{"metadata": {"schema_version": "0.2", "title": "None", "source_filename": "383.mid", "source_format": "midi"}, "resolution": 12, "tempos": [{"time": 0, "qpm": 72.00011520018433}], "time_signatures": [{"time": 0, "numerator": 1, "denominator": 4}], "tracks": [{"program": 0, "is_drum": false, "name": "MELODY", "notes": [{"time": 475, "pitch": 60, "duration": 13, "velocity": 95}, {"time": 493, "pitch": 63, "duration": 3, "velocity": 102}, {"time": 499, "pitch": 62, "duration": 5, "velocity": 100}, {"time": 505, "pitch": 60, "duration": 4, "velocity": 68}, {"time": 511, "pitch": 58, "duration": 6, "velocity": 96}, {"time": 517, "pitch": 53, "duration": 4, "velocity": 88}, {"time": 523, "pitch": 56, "duration": 8, "velocity": 96}, {"time": 535, "pitch": 55, "duration": 18, "velocity": 90}, {"time": 583, "pitch": 63, "duration": 6, "velocity": 96}, {"time": 589, "pitch": 67, "duration": 6, "velocity": 90}, {"time": 595, "pitch": 65, "duration": 6, "velocity": 95}, {"time": 601, "pitch": 62, "duration": 6, "velocity": 85}, {"time": 607, "pitch": 58, "duration": 6, "velocity": 81}, {"time": 613, "pitch": 63, "duration": 8, "velocity": 90}, {"time": 625, "pitch": 63, "duration": 15, "velocity": 99}, {"time": 667, "pitch": 60, "duration": 6, "velocity": 93}, {"time": 673, "pitch": 62, "duration": 6, "velocity": 83}, {"time": 679, "pitch": 63, "duration": 6, "velocity": 100}, {"time": 685, "pitch": 67, "duration": 6, "velocity": 92}, {"time": 691, "pitch": 65, "duration": 18, "velocity": 85}, {"time": 715, "pitch": 65, "duration": 5, "velocity": 95}, {"time": 721, "pitch": 67, "duration": 6, "velocity": 102}, {"time": 727, "pitch": 70, "duration": 5, "velocity": 107}, {"time": 733, "pitch": 65, "duration": 6, "velocity": 89}, {"time": 739, "pitch": 67, "duration": 12, "velocity": 100}, {"time": 751, "pitch": 62, "duration": 9, "velocity": 93}, {"time": 763, "pitch": 60, "duration": 5, "velocity": 100}, {"time": 769, "pitch": 62, "duration": 5, "velocity": 88}, {"time": 775, "pitch": 63, "duration": 5, "velocity": 90}, {"time": 781, "pitch": 67, "duration": 5, "velocity": 92}, {"time": 787, "pitch": 65, "duration": 6, "velocity": 86}, {"time": 793, "pitch": 62, "duration": 4, "velocity": 89}, {"time": 799, "pitch": 62, "duration": 11, "velocity": 93}, {"time": 811, "pitch": 58, "duration": 5, "velocity": 77}, {"time": 820, "pitch": 60, "duration": 28, "velocity": 85}, {"time": 859, "pitch": 60, "duration": 11, "velocity": 92}, {"time": 877, "pitch": 63, "duration": 5, "velocity": 112}, {"time": 883, "pitch": 62, "duration": 6, "velocity": 100}, {"time": 889, "pitch": 60, "duration": 6, "velocity": 96}, {"time": 895, "pitch": 58, "duration": 5, "velocity": 97}, {"time": 901, "pitch": 53, "duration": 11, "velocity": 83}, {"time": 913, "pitch": 55, "duration": 16, "velocity": 93}, {"time": 967, "pitch": 63, "duration": 4, "velocity": 97}, {"time": 973, "pitch": 67, "duration": 5, "velocity": 90}, {"time": 979, "pitch": 65, "duration": 3, "velocity": 97}, {"time": 985, "pitch": 62, "duration": 4, "velocity": 97}, {"time": 991, "pitch": 58, "duration": 3, "velocity": 99}, {"time": 997, "pitch": 62, "duration": 12, "velocity": 100}, {"time": 1009, "pitch": 63, "duration": 30, "velocity": 102}, {"time": 1051, "pitch": 60, "duration": 5, "velocity": 100}, {"time": 1057, "pitch": 62, "duration": 5, "velocity": 100}, {"time": 1063, "pitch": 63, "duration": 4, "velocity": 100}, {"time": 1069, "pitch": 67, "duration": 4, "velocity": 99}, {"time": 1075, "pitch": 65, "duration": 13, "velocity": 122}, {"time": 1099, "pitch": 65, "duration": 4, "velocity": 96}, {"time": 1105, "pitch": 67, "duration": 4, "velocity": 99}, {"time": 1111, "pitch": 70, "duration": 4, "velocity": 117}, {"time": 1117, "pitch": 65, "duration": 4, "velocity": 96}, {"time": 1123, "pitch": 67, "duration": 11, "velocity": 107}, {"time": 1135, "pitch": 62, "duration": 6, "velocity": 97}, {"time": 1147, "pitch": 60, "duration": 4, "velocity": 112}, {"time": 1153, "pitch": 62, "duration": 4, "velocity": 97}, {"time": 1159, "pitch": 63, "duration": 4, "velocity": 99}, {"time": 1165, "pitch": 67, "duration": 4, "velocity": 96}, {"time": 1171, "pitch": 65, "duration": 5, "velocity": 107}, {"time": 1177, "pitch": 62, "duration": 3, "velocity": 88}, {"time": 1183, "pitch": 62, "duration": 9, "velocity": 96}, {"time": 1195, "pitch": 58, "duration": 4, "velocity": 93}, {"time": 1204, "pitch": 60, "duration": 27, "velocity": 90}, {"time": 1243, "pitch": 75, "duration": 6, "velocity": 127}, {"time": 1249, "pitch": 74, "duration": 3, "velocity": 97}, {"time": 1255, "pitch": 72, "duration": 8, "velocity": 112}, {"time": 1267, "pitch": 70, "duration": 12, "velocity": 127}, {"time": 1279, "pitch": 65, "duration": 7, "velocity": 96}, {"time": 1291, "pitch": 67, "duration": 6, "velocity": 122}, {"time": 1297, "pitch": 70, "duration": 5, "velocity": 122}, {"time": 1303, "pitch": 65, "duration": 6, "velocity": 112}, {"time": 1309, "pitch": 67, "duration": 5, "velocity": 86}, {"time": 1315, "pitch": 60, "duration": 15, "velocity": 102}, {"time": 1339, "pitch": 58, "duration": 5, "velocity": 117}, {"time": 1345, "pitch": 60, "duration": 5, "velocity": 96}, {"time": 1351, "pitch": 63, "duration": 6, "velocity": 112}, {"time": 1357, "pitch": 70, "duration": 5, "velocity": 112}, {"time": 1363, "pitch": 65, "duration": 9, "velocity": 107}, {"time": 1375, "pitch": 63, "duration": 4, "velocity": 122}, {"time": 1381, "pitch": 65, "duration": 5, "velocity": 97}, {"time": 1387, "pitch": 67, "duration": 6, "velocity": 127}, {"time": 1393, "pitch": 70, "duration": 4, "velocity": 112}, {"time": 1399, "pitch": 65, "duration": 5, "velocity": 112}, {"time": 1405, "pitch": 63, "duration": 11, "velocity": 122}, {"time": 1417, "pitch": 67, "duration": 13, "velocity": 122}, {"time": 1435, "pitch": 75, "duration": 5, "velocity": 127}, {"time": 1441, "pitch": 74, "duration": 3, "velocity": 97}, {"time": 1444, "pitch": 72, "duration": 8, "velocity": 97}, {"time": 1459, "pitch": 70, "duration": 8, "velocity": 127}, {"time": 1468, "pitch": 65, "duration": 8, "velocity": 107}, {"time": 1483, "pitch": 67, "duration": 5, "velocity": 107}, {"time": 1489, "pitch": 70, "duration": 5, "velocity": 112}, {"time": 1495, "pitch": 65, "duration": 6, "velocity": 99}, {"time": 1501, "pitch": 67, "duration": 5, "velocity": 100}, {"time": 1507, "pitch": 60, "duration": 15, "velocity": 100}, {"time": 1531, "pitch": 58, "duration": 5, "velocity": 127}, {"time": 1537, "pitch": 60, "duration": 6, "velocity": 112}, {"time": 1543, "pitch": 63, "duration": 4, "velocity": 127}, {"time": 1549, "pitch": 70, "duration": 5, "velocity": 127}, {"time": 1555, "pitch": 65, "duration": 5, "velocity": 112}, {"time": 1561, "pitch": 67, "duration": 10, "velocity": 107}, {"time": 1573, "pitch": 63, "duration": 3, "velocity": 127}, {"time": 1579, "pitch": 75, "duration": 5, "velocity": 127}, {"time": 1585, "pitch": 74, "duration": 3, "velocity": 97}, {"time": 1588, "pitch": 72, "duration": 8, "velocity": 117}, {"time": 1603, "pitch": 75, "duration": 6, "velocity": 127}, {"time": 1609, "pitch": 74, "duration": 3, "velocity": 95}, {"time": 1612, "pitch": 72, "duration": 8, "velocity": 102}, {"time": 1621, "pitch": 70, "duration": 9, "velocity": 122}, {"time": 1633, "pitch": 72, "duration": 28, "velocity": 107}, {"time": 1675, "pitch": 72, "duration": 14, "velocity": 90}, {"time": 1693, "pitch": 70, "duration": 3, "velocity": 117}, {"time": 1696, "pitch": 68, "duration": 3, "velocity": 90}, {"time": 1699, "pitch": 67, "duration": 12, "velocity": 96}, {"time": 1717, "pitch": 65, "duration": 6, "velocity": 92}, {"time": 1723, "pitch": 67, "duration": 22, "velocity": 100}, {"time": 1771, "pitch": 65, "duration": 7, "velocity": 100}, {"time": 1777, "pitch": 67, "duration": 6, "velocity": 81}, {"time": 1783, "pitch": 60, "duration": 26, "velocity": 82}, {"time": 1819, "pitch": 63, "duration": 7, "velocity": 93}, {"time": 1825, "pitch": 65, "duration": 6, "velocity": 59}, {"time": 1831, "pitch": 60, "duration": 30, "velocity": 93}, {"time": 2107, "pitch": 60, "duration": 13, "velocity": 95}, {"time": 2125, "pitch": 63, "duration": 3, "velocity": 102}, {"time": 2131, "pitch": 62, "duration": 5, "velocity": 100}, {"time": 2137, "pitch": 60, "duration": 4, "velocity": 68}, {"time": 2143, "pitch": 58, "duration": 6, "velocity": 96}, {"time": 2149, "pitch": 53, "duration": 4, "velocity": 88}, {"time": 2155, "pitch": 56, "duration": 8, "velocity": 96}, {"time": 2167, "pitch": 55, "duration": 18, "velocity": 90}, {"time": 2215, "pitch": 63, "duration": 6, "velocity": 96}, {"time": 2221, "pitch": 67, "duration": 6, "velocity": 90}, {"time": 2227, "pitch": 65, "duration": 6, "velocity": 95}, {"time": 2233, "pitch": 62, "duration": 6, "velocity": 85}, {"time": 2239, "pitch": 58, "duration": 6, "velocity": 81}, {"time": 2245, "pitch": 63, "duration": 8, "velocity": 90}, {"time": 2257, "pitch": 63, "duration": 15, "velocity": 99}, {"time": 2299, "pitch": 60, "duration": 6, "velocity": 93}, {"time": 2305, "pitch": 62, "duration": 6, "velocity": 83}, {"time": 2311, "pitch": 63, "duration": 6, "velocity": 100}, {"time": 2317, "pitch": 67, "duration": 6, "velocity": 92}, {"time": 2323, "pitch": 65, "duration": 18, "velocity": 85}, {"time": 2347, "pitch": 65, "duration": 5, "velocity": 95}, {"time": 2353, "pitch": 67, "duration": 6, "velocity": 102}, {"time": 2359, "pitch": 70, "duration": 5, "velocity": 107}, {"time": 2365, "pitch": 65, "duration": 6, "velocity": 89}, {"time": 2371, "pitch": 67, "duration": 12, "velocity": 100}, {"time": 2383, "pitch": 62, "duration": 9, "velocity": 93}, {"time": 2395, "pitch": 60, "duration": 5, "velocity": 100}, {"time": 2401, "pitch": 62, "duration": 5, "velocity": 88}, {"time": 2407, "pitch": 63, "duration": 5, "velocity": 90}, {"time": 2413, "pitch": 67, "duration": 5, "velocity": 92}, {"time": 2419, "pitch": 65, "duration": 6, "velocity": 86}, {"time": 2425, "pitch": 62, "duration": 4, "velocity": 89}, {"time": 2431, "pitch": 62, "duration": 11, "velocity": 93}, {"time": 2443, "pitch": 58, "duration": 5, "velocity": 77}, {"time": 2452, "pitch": 60, "duration": 28, "velocity": 85}, {"time": 2491, "pitch": 60, "duration": 11, "velocity": 92}, {"time": 2509, "pitch": 63, "duration": 5, "velocity": 112}, {"time": 2515, "pitch": 62, "duration": 6, "velocity": 100}, {"time": 2521, "pitch": 60, "duration": 6, "velocity": 96}, {"time": 2527, "pitch": 58, "duration": 5, "velocity": 97}, {"time": 2533, "pitch": 53, "duration": 11, "velocity": 83}, {"time": 2545, "pitch": 55, "duration": 16, "velocity": 93}, {"time": 2599, "pitch": 63, "duration": 4, "velocity": 97}, {"time": 2605, "pitch": 67, "duration": 5, "velocity": 90}, {"time": 2611, "pitch": 65, "duration": 3, "velocity": 97}, {"time": 2617, "pitch": 62, "duration": 4, "velocity": 97}, {"time": 2623, "pitch": 58, "duration": 3, "velocity": 99}, {"time": 2629, "pitch": 62, "duration": 12, "velocity": 100}, {"time": 2641, "pitch": 63, "duration": 30, "velocity": 102}, {"time": 2683, "pitch": 60, "duration": 5, "velocity": 100}, {"time": 2689, "pitch": 62, "duration": 5, "velocity": 100}, {"time": 2695, "pitch": 63, "duration": 4, "velocity": 100}, {"time": 2701, "pitch": 67, "duration": 4, "velocity": 99}, {"time": 2707, "pitch": 65, "duration": 13, "velocity": 122}, {"time": 2731, "pitch": 65, "duration": 4, "velocity": 96}, {"time": 2737, "pitch": 67, "duration": 4, "velocity": 99}, {"time": 2743, "pitch": 70, "duration": 4, "velocity": 117}, {"time": 2749, "pitch": 65, "duration": 4, "velocity": 96}, {"time": 2755, "pitch": 67, "duration": 11, "velocity": 107}, {"time": 2767, "pitch": 62, "duration": 6, "velocity": 97}, {"time": 2779, "pitch": 60, "duration": 4, "velocity": 112}, {"time": 2785, "pitch": 62, "duration": 4, "velocity": 97}, {"time": 2791, "pitch": 63, "duration": 4, "velocity": 99}, {"time": 2797, "pitch": 67, "duration": 4, "velocity": 96}, {"time": 2803, "pitch": 65, "duration": 5, "velocity": 107}, {"time": 2809, "pitch": 62, "duration": 3, "velocity": 88}, {"time": 2815, "pitch": 62, "duration": 9, "velocity": 96}, {"time": 2827, "pitch": 58, "duration": 4, "velocity": 93}, {"time": 2836, "pitch": 60, "duration": 27, "velocity": 90}, {"time": 2875, "pitch": 75, "duration": 6, "velocity": 127}, {"time": 2881, "pitch": 74, "duration": 3, "velocity": 97}, {"time": 2887, "pitch": 72, "duration": 8, "velocity": 112}, {"time": 2899, "pitch": 70, "duration": 12, "velocity": 127}, {"time": 2911, "pitch": 65, "duration": 7, "velocity": 96}, {"time": 2923, "pitch": 67, "duration": 6, "velocity": 122}, {"time": 2929, "pitch": 70, "duration": 5, "velocity": 122}, {"time": 2935, "pitch": 65, "duration": 6, "velocity": 112}, {"time": 2941, "pitch": 67, "duration": 5, "velocity": 86}, {"time": 2947, "pitch": 60, "duration": 15, "velocity": 102}, {"time": 2971, "pitch": 58, "duration": 5, "velocity": 117}, {"time": 2977, "pitch": 60, "duration": 5, "velocity": 96}, {"time": 2983, "pitch": 63, "duration": 6, "velocity": 112}, {"time": 2989, "pitch": 70, "duration": 5, "velocity": 112}, {"time": 2995, "pitch": 65, "duration": 9, "velocity": 107}, {"time": 3007, "pitch": 63, "duration": 4, "velocity": 122}, {"time": 3013, "pitch": 65, "duration": 5, "velocity": 97}, {"time": 3019, "pitch": 67, "duration": 6, "velocity": 127}, {"time": 3025, "pitch": 70, "duration": 4, "velocity": 112}, {"time": 3031, "pitch": 65, "duration": 5, "velocity": 112}, {"time": 3037, "pitch": 63, "duration": 11, "velocity": 122}, {"time": 3049, "pitch": 67, "duration": 13, "velocity": 122}, {"time": 3067, "pitch": 75, "duration": 5, "velocity": 127}, {"time": 3073, "pitch": 74, "duration": 3, "velocity": 97}, {"time": 3076, "pitch": 72, "duration": 8, "velocity": 97}, {"time": 3091, "pitch": 70, "duration": 8, "velocity": 127}, {"time": 3100, "pitch": 65, "duration": 8, "velocity": 107}, {"time": 3115, "pitch": 67, "duration": 5, "velocity": 107}, {"time": 3121, "pitch": 70, "duration": 5, "velocity": 112}, {"time": 3127, "pitch": 65, "duration": 6, "velocity": 99}, {"time": 3133, "pitch": 67, "duration": 5, "velocity": 100}, {"time": 3139, "pitch": 60, "duration": 15, "velocity": 100}, {"time": 3163, "pitch": 58, "duration": 5, "velocity": 127}, {"time": 3169, "pitch": 60, "duration": 6, "velocity": 112}, {"time": 3175, "pitch": 63, "duration": 4, "velocity": 127}, {"time": 3181, "pitch": 70, "duration": 5, "velocity": 127}, {"time": 3187, "pitch": 65, "duration": 5, "velocity": 112}, {"time": 3193, "pitch": 67, "duration": 10, "velocity": 107}, {"time": 3205, "pitch": 63, "duration": 3, "velocity": 127}, {"time": 3211, "pitch": 75, "duration": 5, "velocity": 127}, {"time": 3217, "pitch": 74, "duration": 3, "velocity": 97}, {"time": 3220, "pitch": 72, "duration": 8, "velocity": 117}, {"time": 3235, "pitch": 75, "duration": 6, "velocity": 127}, {"time": 3241, "pitch": 74, "duration": 3, "velocity": 95}, {"time": 3244, "pitch": 72, "duration": 8, "velocity": 102}, {"time": 3253, "pitch": 70, "duration": 9, "velocity": 122}, {"time": 3265, "pitch": 72, "duration": 28, "velocity": 107}, {"time": 3451, "pitch": 75, "duration": 6, "velocity": 127}, {"time": 3457, "pitch": 74, "duration": 3, "velocity": 97}, {"time": 3463, "pitch": 72, "duration": 8, "velocity": 112}, {"time": 3475, "pitch": 70, "duration": 12, "velocity": 127}, {"time": 3487, "pitch": 65, "duration": 7, "velocity": 96}, {"time": 3499, "pitch": 67, "duration": 6, "velocity": 122}, {"time": 3505, "pitch": 70, "duration": 5, "velocity": 122}, {"time": 3511, "pitch": 65, "duration": 6, "velocity": 112}, {"time": 3517, "pitch": 67, "duration": 5, "velocity": 86}, {"time": 3523, "pitch": 60, "duration": 21, "velocity": 102}, {"time": 3547, "pitch": 58, "duration": 5, "velocity": 117}, {"time": 3553, "pitch": 60, "duration": 5, "velocity": 96}, {"time": 3559, "pitch": 63, "duration": 6, "velocity": 112}, {"time": 3565, "pitch": 70, "duration": 5, "velocity": 112}, {"time": 3571, "pitch": 65, "duration": 9, "velocity": 107}, {"time": 3583, "pitch": 63, "duration": 4, "velocity": 122}, {"time": 3589, "pitch": 65, "duration": 5, "velocity": 97}, {"time": 3595, "pitch": 67, "duration": 6, "velocity": 127}, {"time": 3601, "pitch": 70, "duration": 4, "velocity": 112}, {"time": 3607, "pitch": 65, "duration": 5, "velocity": 112}, {"time": 3613, "pitch": 63, "duration": 11, "velocity": 122}, {"time": 3625, "pitch": 67, "duration": 13, "velocity": 122}, {"time": 3643, "pitch": 75, "duration": 5, "velocity": 127}, {"time": 3649, "pitch": 74, "duration": 3, "velocity": 97}, {"time": 3652, "pitch": 72, "duration": 8, "velocity": 97}, {"time": 3667, "pitch": 70, "duration": 8, "velocity": 127}, {"time": 3676, "pitch": 65, "duration": 8, "velocity": 107}, {"time": 3691, "pitch": 67, "duration": 5, "velocity": 107}, {"time": 3697, "pitch": 70, "duration": 5, "velocity": 112}, {"time": 3703, "pitch": 65, "duration": 6, "velocity": 99}, {"time": 3709, "pitch": 67, "duration": 5, "velocity": 100}, {"time": 3715, "pitch": 60, "duration": 15, "velocity": 100}, {"time": 3739, "pitch": 58, "duration": 5, "velocity": 127}, {"time": 3745, "pitch": 60, "duration": 6, "velocity": 112}, {"time": 3751, "pitch": 63, "duration": 4, "velocity": 127}, {"time": 3757, "pitch": 70, "duration": 5, "velocity": 127}, {"time": 3763, "pitch": 65, "duration": 5, "velocity": 112}, {"time": 3769, "pitch": 67, "duration": 10, "velocity": 107}, {"time": 3781, "pitch": 63, "duration": 3, "velocity": 127}, {"time": 3787, "pitch": 75, "duration": 5, "velocity": 127}, {"time": 3793, "pitch": 74, "duration": 3, "velocity": 97}, {"time": 3796, "pitch": 72, "duration": 8, "velocity": 117}, {"time": 3811, "pitch": 75, "duration": 6, "velocity": 127}, {"time": 3817, "pitch": 74, "duration": 3, "velocity": 95}, {"time": 3820, "pitch": 72, "duration": 8, "velocity": 102}, {"time": 3829, "pitch": 70, "duration": 9, "velocity": 122}, {"time": 3841, "pitch": 72, "duration": 28, "velocity": 107}, {"time": 3883, "pitch": 72, "duration": 14, "velocity": 127}, {"time": 3901, "pitch": 70, "duration": 3, "velocity": 117}, {"time": 3904, "pitch": 68, "duration": 3, "velocity": 93}, {"time": 3907, "pitch": 67, "duration": 15, "velocity": 102}, {"time": 3925, "pitch": 65, "duration": 6, "velocity": 99}, {"time": 3931, "pitch": 67, "duration": 33, "velocity": 117}, {"time": 3979, "pitch": 67, "duration": 12, "velocity": 89}, {"time": 3991, "pitch": 60, "duration": 33, "velocity": 102}, {"time": 4027, "pitch": 63, "duration": 6, "velocity": 102}, {"time": 4033, "pitch": 65, "duration": 6, "velocity": 92}, {"time": 4039, "pitch": 60, "duration": 57, "velocity": 95}]}, {"program": 0, "is_drum": false, "name": "BRIDGE", "notes": [{"time": 43, "pitch": 72, "duration": 6, "velocity": 92}, {"time": 49, "pitch": 67, "duration": 6, "velocity": 71}, {"time": 55, "pitch": 75, "duration": 11, "velocity": 96}, {"time": 67, "pitch": 74, "duration": 3, "velocity": 32}, {"time": 70, "pitch": 75, "duration": 3, "velocity": 47}, {"time": 73, "pitch": 74, "duration": 3, "velocity": 55}, {"time": 76, "pitch": 75, "duration": 2, "velocity": 68}, {"time": 79, "pitch": 72, "duration": 10, "velocity": 67}, {"time": 91, "pitch": 72, "duration": 5, "velocity": 89}, {"time": 97, "pitch": 68, "duration": 6, "velocity": 74}, {"time": 103, "pitch": 77, "duration": 14, "velocity": 96}, {"time": 115, "pitch": 77, "duration": 2, "velocity": 97}, {"time": 118, "pitch": 75, "duration": 4, "velocity": 77}, {"time": 121, "pitch": 77, "duration": 3, "velocity": 82}, {"time": 124, "pitch": 75, "duration": 3, "velocity": 74}, {"time": 127, "pitch": 72, "duration": 7, "velocity": 74}, {"time": 139, "pitch": 72, "duration": 6, "velocity": 92}, {"time": 145, "pitch": 67, "duration": 6, "velocity": 71}, {"time": 151, "pitch": 75, "duration": 11, "velocity": 96}, {"time": 163, "pitch": 74, "duration": 3, "velocity": 32}, {"time": 166, "pitch": 75, "duration": 3, "velocity": 47}, {"time": 169, "pitch": 74, "duration": 3, "velocity": 55}, {"time": 172, "pitch": 75, "duration": 2, "velocity": 68}, {"time": 175, "pitch": 72, "duration": 10, "velocity": 67}, {"time": 187, "pitch": 72, "duration": 5, "velocity": 89}, {"time": 193, "pitch": 68, "duration": 6, "velocity": 74}, {"time": 199, "pitch": 77, "duration": 9, "velocity": 96}, {"time": 211, "pitch": 77, "duration": 3, "velocity": 97}, {"time": 214, "pitch": 75, "duration": 4, "velocity": 77}, {"time": 217, "pitch": 77, "duration": 3, "velocity": 82}, {"time": 220, "pitch": 75, "duration": 3, "velocity": 74}, {"time": 223, "pitch": 72, "duration": 7, "velocity": 74}, {"time": 235, "pitch": 67, "duration": 6, "velocity": 97}, {"time": 241, "pitch": 72, "duration": 7, "velocity": 99}, {"time": 247, "pitch": 74, "duration": 7, "velocity": 92}, {"time": 253, "pitch": 72, "duration": 6, "velocity": 107}, {"time": 259, "pitch": 79, "duration": 12, "velocity": 117}, {"time": 271, "pitch": 77, "duration": 11, "velocity": 112}, {"time": 283, "pitch": 72, "duration": 24, "velocity": 102}, {"time": 307, "pitch": 70, "duration": 21, "velocity": 117}, {"time": 331, "pitch": 77, "duration": 16, "velocity": 112}, {"time": 349, "pitch": 79, "duration": 6, "velocity": 99}, {"time": 355, "pitch": 75, "duration": 21, "velocity": 112}, {"time": 379, "pitch": 77, "duration": 25, "velocity": 107}, {"time": 409, "pitch": 75, "duration": 6, "velocity": 93}, {"time": 415, "pitch": 77, "duration": 12, "velocity": 102}, {"time": 427, "pitch": 79, "duration": 7, "velocity": 127}, {"time": 433, "pitch": 74, "duration": 34, "velocity": 95}, {"time": 811, "pitch": 79, "duration": 13, "velocity": 96}, {"time": 823, "pitch": 77, "duration": 13, "velocity": 71}, {"time": 835, "pitch": 76, "duration": 23, "velocity": 79}, {"time": 859, "pitch": 60, "duration": 26, "velocity": 83}, {"time": 883, "pitch": 58, "duration": 23, "velocity": 96}, {"time": 907, "pitch": 63, "duration": 22, "velocity": 83}, {"time": 931, "pitch": 65, "duration": 12, "velocity": 95}, {"time": 943, "pitch": 67, "duration": 7, "velocity": 85}, {"time": 949, "pitch": 68, "duration": 7, "velocity": 86}, {"time": 955, "pitch": 70, "duration": 26, "velocity": 74}, {"time": 1033, "pitch": 62, "duration": 7, "velocity": 97}, {"time": 1039, "pitch": 60, "duration": 7, "velocity": 86}, {"time": 1045, "pitch": 58, "duration": 6, "velocity": 82}, {"time": 1051, "pitch": 60, "duration": 32, "velocity": 81}, {"time": 1183, "pitch": 58, "duration": 13, "velocity": 89}, {"time": 1195, "pitch": 60, "duration": 40, "velocity": 88}, {"time": 1627, "pitch": 75, "duration": 43, "velocity": 122}, {"time": 1759, "pitch": 55, "duration": 8, "velocity": 77}, {"time": 1771, "pitch": 55, "duration": 6, "velocity": 82}, {"time": 1777, "pitch": 60, "duration": 7, "velocity": 74}, {"time": 1783, "pitch": 62, "duration": 6, "velocity": 81}, {"time": 1789, "pitch": 60, "duration": 6, "velocity": 69}, {"time": 1795, "pitch": 55, "duration": 18, "velocity": 70}, {"time": 1813, "pitch": 53, "duration": 4, "velocity": 86}, {"time": 1816, "pitch": 55, "duration": 3, "velocity": 43}, {"time": 1819, "pitch": 48, "duration": 35, "velocity": 65}, {"time": 1867, "pitch": 67, "duration": 5, "velocity": 102}, {"time": 1873, "pitch": 72, "duration": 6, "velocity": 102}, {"time": 1879, "pitch": 74, "duration": 6, "velocity": 96}, {"time": 1885, "pitch": 72, "duration": 6, "velocity": 99}, {"time": 1891, "pitch": 67, "duration": 12, "velocity": 112}, {"time": 1903, "pitch": 65, "duration": 8, "velocity": 117}, {"time": 1909, "pitch": 67, "duration": 5, "velocity": 83}, {"time": 1915, "pitch": 60, "duration": 26, "velocity": 99}, {"time": 1939, "pitch": 58, "duration": 22, "velocity": 107}, {"time": 1963, "pitch": 60, "duration": 12, "velocity": 99}, {"time": 1975, "pitch": 67, "duration": 11, "velocity": 93}, {"time": 1987, "pitch": 63, "duration": 20, "velocity": 95}, {"time": 2011, "pitch": 65, "duration": 25, "velocity": 112}, {"time": 2035, "pitch": 63, "duration": 12, "velocity": 95}, {"time": 2047, "pitch": 65, "duration": 12, "velocity": 95}, {"time": 2059, "pitch": 67, "duration": 42, "velocity": 100}, {"time": 2173, "pitch": 70, "duration": 6, "velocity": 88}, {"time": 2179, "pitch": 77, "duration": 6, "velocity": 89}, {"time": 2185, "pitch": 70, "duration": 5, "velocity": 81}, {"time": 2191, "pitch": 74, "duration": 13, "velocity": 95}, {"time": 2203, "pitch": 75, "duration": 19, "velocity": 66}, {"time": 2257, "pitch": 75, "duration": 3, "velocity": 95}, {"time": 2263, "pitch": 74, "duration": 6, "velocity": 92}, {"time": 2269, "pitch": 75, "duration": 6, "velocity": 78}, {"time": 2275, "pitch": 74, "duration": 13, "velocity": 82}, {"time": 2287, "pitch": 70, "duration": 12, "velocity": 90}, {"time": 2299, "pitch": 72, "duration": 24, "velocity": 85}, {"time": 2323, "pitch": 74, "duration": 6, "velocity": 92}, {"time": 2329, "pitch": 75, "duration": 6, "velocity": 95}, {"time": 2335, "pitch": 77, "duration": 13, "velocity": 92}, {"time": 2449, "pitch": 55, "duration": 6, "velocity": 74}, {"time": 2455, "pitch": 65, "duration": 13, "velocity": 92}, {"time": 2467, "pitch": 64, "duration": 26, "velocity": 89}, {"time": 2491, "pitch": 60, "duration": 26, "velocity": 83}, {"time": 2515, "pitch": 58, "duration": 23, "velocity": 96}, {"time": 2539, "pitch": 63, "duration": 22, "velocity": 83}, {"time": 2563, "pitch": 65, "duration": 12, "velocity": 95}, {"time": 2575, "pitch": 67, "duration": 7, "velocity": 85}, {"time": 2581, "pitch": 68, "duration": 7, "velocity": 86}, {"time": 2587, "pitch": 70, "duration": 26, "velocity": 74}, {"time": 2623, "pitch": 65, "duration": 11, "velocity": 117}, {"time": 2635, "pitch": 63, "duration": 19, "velocity": 117}, {"time": 2665, "pitch": 62, "duration": 7, "velocity": 97}, {"time": 2671, "pitch": 60, "duration": 7, "velocity": 86}, {"time": 2677, "pitch": 58, "duration": 6, "velocity": 82}, {"time": 2683, "pitch": 60, "duration": 32, "velocity": 81}, {"time": 2713, "pitch": 58, "duration": 7, "velocity": 112}, {"time": 2722, "pitch": 53, "duration": 3, "velocity": 74}, {"time": 2725, "pitch": 55, "duration": 3, "velocity": 79}, {"time": 2728, "pitch": 56, "duration": 4, "velocity": 92}, {"time": 2731, "pitch": 58, "duration": 20, "velocity": 99}, {"time": 2749, "pitch": 53, "duration": 6, "velocity": 81}, {"time": 2755, "pitch": 51, "duration": 17, "velocity": 95}, {"time": 2779, "pitch": 44, "duration": 21, "velocity": 112}, {"time": 2803, "pitch": 46, "duration": 12, "velocity": 122}, {"time": 2815, "pitch": 58, "duration": 13, "velocity": 89}, {"time": 2827, "pitch": 60, "duration": 40, "velocity": 88}, {"time": 3259, "pitch": 75, "duration": 36, "velocity": 127}, {"time": 3295, "pitch": 67, "duration": 6, "velocity": 100}, {"time": 3301, "pitch": 70, "duration": 6, "velocity": 102}, {"time": 3307, "pitch": 72, "duration": 24, "velocity": 100}, {"time": 3343, "pitch": 70, "duration": 3, "velocity": 99}, {"time": 3346, "pitch": 72, "duration": 4, "velocity": 83}, {"time": 3349, "pitch": 70, "duration": 3, "velocity": 81}, {"time": 3352, "pitch": 72, "duration": 4, "velocity": 90}, {"time": 3355, "pitch": 68, "duration": 2, "velocity": 117}, {"time": 3364, "pitch": 70, "duration": 2, "velocity": 127}, {"time": 3373, "pitch": 72, "duration": 4, "velocity": 127}, {"time": 3382, "pitch": 74, "duration": 2, "velocity": 127}, {"time": 3391, "pitch": 75, "duration": 3, "velocity": 127}, {"time": 3397, "pitch": 72, "duration": 3, "velocity": 99}, {"time": 3399, "pitch": 74, "duration": 2, "velocity": 96}, {"time": 3400, "pitch": 75, "duration": 1, "velocity": 102}, {"time": 3402, "pitch": 77, "duration": 1, "velocity": 97}, {"time": 3403, "pitch": 82, "duration": 1, "velocity": 127}, {"time": 3406, "pitch": 82, "duration": 2, "velocity": 127}, {"time": 3421, "pitch": 82, "duration": 2, "velocity": 127}, {"time": 3424, "pitch": 82, "duration": 2, "velocity": 122}, {"time": 3823, "pitch": 65, "duration": 13, "velocity": 93}, {"time": 3835, "pitch": 67, "duration": 33, "velocity": 97}, {"time": 3955, "pitch": 72, "duration": 63, "velocity": 117}, {"time": 4075, "pitch": 70, "duration": 25, "velocity": 100}, {"time": 4099, "pitch": 72, "duration": 60, "velocity": 96}, {"time": 4171, "pitch": 75, "duration": 26, "velocity": 69}, {"time": 4195, "pitch": 72, "duration": 24, "velocity": 67}, {"time": 4219, "pitch": 70, "duration": 12, "velocity": 77}, {"time": 4231, "pitch": 72, "duration": 43, "velocity": 76}]}, {"program": 0, "is_drum": false, "name": "PIANO", "notes": [{"time": 43, "pitch": 36, "duration": 39, "velocity": 58}, {"time": 49, "pitch": 55, "duration": 23, "velocity": 55}, {"time": 55, "pitch": 63, "duration": 21, "velocity": 81}, {"time": 61, "pitch": 60, "duration": 15, "velocity": 55}, {"time": 73, "pitch": 55, "duration": 18, "velocity": 56}, {"time": 79, "pitch": 63, "duration": 12, "velocity": 102}, {"time": 85, "pitch": 60, "duration": 6, "velocity": 48}, {"time": 91, "pitch": 36, "duration": 43, "velocity": 75}, {"time": 97, "pitch": 56, "duration": 23, "velocity": 74}, {"time": 103, "pitch": 63, "duration": 20, "velocity": 82}, {"time": 109, "pitch": 60, "duration": 18, "velocity": 45}, {"time": 121, "pitch": 55, "duration": 17, "velocity": 31}, {"time": 127, "pitch": 63, "duration": 12, "velocity": 102}, {"time": 133, "pitch": 60, "duration": 6, "velocity": 45}, {"time": 139, "pitch": 36, "duration": 40, "velocity": 83}, {"time": 145, "pitch": 55, "duration": 22, "velocity": 59}, {"time": 151, "pitch": 63, "duration": 20, "velocity": 107}, {"time": 157, "pitch": 60, "duration": 14, "velocity": 59}, {"time": 169, "pitch": 55, "duration": 15, "velocity": 38}, {"time": 175, "pitch": 63, "duration": 12, "velocity": 97}, {"time": 181, "pitch": 60, "duration": 7, "velocity": 44}, {"time": 187, "pitch": 36, "duration": 37, "velocity": 72}, {"time": 193, "pitch": 56, "duration": 32, "velocity": 62}, {"time": 199, "pitch": 63, "duration": 20, "velocity": 90}, {"time": 205, "pitch": 60, "duration": 12, "velocity": 30}, {"time": 223, "pitch": 63, "duration": 12, "velocity": 85}, {"time": 229, "pitch": 56, "duration": 5, "velocity": 52}, {"time": 235, "pitch": 36, "duration": 20, "velocity": 90}, {"time": 241, "pitch": 48, "duration": 16, "velocity": 88}, {"time": 247, "pitch": 63, "duration": 11, "velocity": 107}, {"time": 253, "pitch": 60, "duration": 6, "velocity": 70}, {"time": 259, "pitch": 46, "duration": 13, "velocity": 86}, {"time": 265, "pitch": 53, "duration": 16, "velocity": 47}, {"time": 271, "pitch": 62, "duration": 11, "velocity": 96}, {"time": 283, "pitch": 44, "duration": 17, "velocity": 82}, {"time": 289, "pitch": 56, "duration": 9, "velocity": 59}, {"time": 295, "pitch": 63, "duration": 12, "velocity": 90}, {"time": 301, "pitch": 56, "duration": 6, "velocity": 63}, {"time": 307, "pitch": 39, "duration": 16, "velocity": 89}, {"time": 313, "pitch": 51, "duration": 9, "velocity": 73}, {"time": 319, "pitch": 63, "duration": 13, "velocity": 107}, {"time": 325, "pitch": 58, "duration": 7, "velocity": 55}, {"time": 331, "pitch": 41, "duration": 17, "velocity": 79}, {"time": 337, "pitch": 48, "duration": 10, "velocity": 63}, {"time": 343, "pitch": 60, "duration": 12, "velocity": 93}, {"time": 349, "pitch": 56, "duration": 6, "velocity": 85}, {"time": 355, "pitch": 36, "duration": 17, "velocity": 77}, {"time": 361, "pitch": 48, "duration": 14, "velocity": 66}, {"time": 367, "pitch": 55, "duration": 12, "velocity": 88}, {"time": 373, "pitch": 63, "duration": 6, "velocity": 107}, {"time": 379, "pitch": 37, "duration": 37, "velocity": 89}, {"time": 385, "pitch": 49, "duration": 10, "velocity": 82}, {"time": 391, "pitch": 56, "duration": 10, "velocity": 92}, {"time": 391, "pitch": 61, "duration": 11, "velocity": 69}, {"time": 397, "pitch": 49, "duration": 8, "velocity": 73}, {"time": 403, "pitch": 56, "duration": 14, "velocity": 58}, {"time": 403, "pitch": 61, "duration": 11, "velocity": 65}, {"time": 403, "pitch": 65, "duration": 10, "velocity": 69}, {"time": 409, "pitch": 49, "duration": 8, "velocity": 65}, {"time": 415, "pitch": 65, "duration": 12, "velocity": 92}, {"time": 421, "pitch": 56, "duration": 5, "velocity": 88}, {"time": 427, "pitch": 43, "duration": 42, "velocity": 95}, {"time": 433, "pitch": 50, "duration": 10, "velocity": 89}, {"time": 439, "pitch": 59, "duration": 11, "velocity": 107}, {"time": 445, "pitch": 50, "duration": 9, "velocity": 66}, {"time": 451, "pitch": 62, "duration": 25, "velocity": 99}, {"time": 457, "pitch": 50, "duration": 9, "velocity": 61}, {"time": 475, "pitch": 36, "duration": 19, "velocity": 66}, {"time": 481, "pitch": 43, "duration": 13, "velocity": 43}, {"time": 487, "pitch": 48, "duration": 12, "velocity": 72}, {"time": 493, "pitch": 63, "duration": 8, "velocity": 66}, {"time": 499, "pitch": 46, "duration": 14, "velocity": 69}, {"time": 505, "pitch": 53, "duration": 19, "velocity": 48}, {"time": 511, "pitch": 62, "duration": 13, "velocity": 69}, {"time": 523, "pitch": 39, "duration": 24, "velocity": 73}, {"time": 529, "pitch": 51, "duration": 8, "velocity": 53}, {"time": 535, "pitch": 63, "duration": 12, "velocity": 93}, {"time": 541, "pitch": 55, "duration": 6, "velocity": 49}, {"time": 547, "pitch": 46, "duration": 17, "velocity": 53}, {"time": 553, "pitch": 53, "duration": 14, "velocity": 56}, {"time": 559, "pitch": 62, "duration": 13, "velocity": 78}, {"time": 565, "pitch": 58, "duration": 7, "velocity": 47}, {"time": 571, "pitch": 39, "duration": 17, "velocity": 78}, {"time": 577, "pitch": 51, "duration": 6, "velocity": 63}, {"time": 583, "pitch": 63, "duration": 10, "velocity": 95}, {"time": 589, "pitch": 55, "duration": 5, "velocity": 59}, {"time": 595, "pitch": 38, "duration": 14, "velocity": 69}, {"time": 601, "pitch": 50, "duration": 18, "velocity": 70}, {"time": 607, "pitch": 56, "duration": 12, "velocity": 66}, {"time": 613, "pitch": 53, "duration": 6, "velocity": 55}, {"time": 619, "pitch": 36, "duration": 18, "velocity": 70}, {"time": 625, "pitch": 43, "duration": 9, "velocity": 50}, {"time": 631, "pitch": 63, "duration": 11, "velocity": 92}, {"time": 637, "pitch": 60, "duration": 6, "velocity": 56}, {"time": 643, "pitch": 46, "duration": 13, "velocity": 81}, {"time": 649, "pitch": 53, "duration": 18, "velocity": 52}, {"time": 655, "pitch": 62, "duration": 12, "velocity": 73}, {"time": 661, "pitch": 58, "duration": 6, "velocity": 59}, {"time": 667, "pitch": 44, "duration": 21, "velocity": 52}, {"time": 673, "pitch": 56, "duration": 8, "velocity": 59}, {"time": 679, "pitch": 63, "duration": 12, "velocity": 59}, {"time": 685, "pitch": 56, "duration": 6, "velocity": 48}, {"time": 691, "pitch": 46, "duration": 15, "velocity": 71}, {"time": 697, "pitch": 53, "duration": 18, "velocity": 65}, {"time": 703, "pitch": 62, "duration": 13, "velocity": 73}, {"time": 715, "pitch": 43, "duration": 15, "velocity": 72}, {"time": 721, "pitch": 50, "duration": 9, "velocity": 55}, {"time": 727, "pitch": 62, "duration": 12, "velocity": 89}, {"time": 733, "pitch": 55, "duration": 6, "velocity": 55}, {"time": 739, "pitch": 48, "duration": 11, "velocity": 92}, {"time": 745, "pitch": 55, "duration": 7, "velocity": 59}, {"time": 751, "pitch": 46, "duration": 12, "velocity": 79}, {"time": 757, "pitch": 58, "duration": 7, "velocity": 58}, {"time": 763, "pitch": 44, "duration": 23, "velocity": 47}, {"time": 769, "pitch": 56, "duration": 9, "velocity": 59}, {"time": 775, "pitch": 63, "duration": 11, "velocity": 72}, {"time": 781, "pitch": 56, "duration": 5, "velocity": 40}, {"time": 787, "pitch": 46, "duration": 13, "velocity": 63}, {"time": 793, "pitch": 53, "duration": 18, "velocity": 54}, {"time": 799, "pitch": 62, "duration": 12, "velocity": 65}, {"time": 811, "pitch": 36, "duration": 45, "velocity": 67}, {"time": 817, "pitch": 43, "duration": 15, "velocity": 42}, {"time": 823, "pitch": 48, "duration": 7, "velocity": 77}, {"time": 829, "pitch": 55, "duration": 30, "velocity": 86}, {"time": 835, "pitch": 43, "duration": 22, "velocity": 64}, {"time": 835, "pitch": 60, "duration": 24, "velocity": 76}, {"time": 835, "pitch": 64, "duration": 24, "velocity": 79}, {"time": 859, "pitch": 36, "duration": 19, "velocity": 66}, {"time": 865, "pitch": 43, "duration": 13, "velocity": 43}, {"time": 871, "pitch": 48, "duration": 12, "velocity": 72}, {"time": 877, "pitch": 63, "duration": 8, "velocity": 66}, {"time": 883, "pitch": 46, "duration": 14, "velocity": 69}, {"time": 889, "pitch": 53, "duration": 19, "velocity": 48}, {"time": 895, "pitch": 62, "duration": 13, "velocity": 69}, {"time": 907, "pitch": 39, "duration": 24, "velocity": 73}, {"time": 913, "pitch": 51, "duration": 8, "velocity": 53}, {"time": 919, "pitch": 63, "duration": 12, "velocity": 93}, {"time": 925, "pitch": 55, "duration": 6, "velocity": 49}, {"time": 931, "pitch": 46, "duration": 17, "velocity": 53}, {"time": 937, "pitch": 53, "duration": 14, "velocity": 56}, {"time": 943, "pitch": 62, "duration": 13, "velocity": 78}, {"time": 949, "pitch": 58, "duration": 7, "velocity": 47}, {"time": 955, "pitch": 39, "duration": 17, "velocity": 78}, {"time": 961, "pitch": 51, "duration": 6, "velocity": 63}, {"time": 967, "pitch": 63, "duration": 10, "velocity": 95}, {"time": 973, "pitch": 55, "duration": 5, "velocity": 59}, {"time": 979, "pitch": 38, "duration": 14, "velocity": 69}, {"time": 985, "pitch": 50, "duration": 18, "velocity": 70}, {"time": 991, "pitch": 56, "duration": 12, "velocity": 66}, {"time": 997, "pitch": 53, "duration": 6, "velocity": 55}, {"time": 1003, "pitch": 36, "duration": 18, "velocity": 70}, {"time": 1009, "pitch": 43, "duration": 9, "velocity": 50}, {"time": 1015, "pitch": 63, "duration": 11, "velocity": 92}, {"time": 1021, "pitch": 60, "duration": 6, "velocity": 56}, {"time": 1027, "pitch": 46, "duration": 13, "velocity": 81}, {"time": 1033, "pitch": 53, "duration": 18, "velocity": 52}, {"time": 1039, "pitch": 62, "duration": 12, "velocity": 73}, {"time": 1045, "pitch": 58, "duration": 6, "velocity": 59}, {"time": 1051, "pitch": 44, "duration": 21, "velocity": 52}, {"time": 1057, "pitch": 56, "duration": 8, "velocity": 59}, {"time": 1063, "pitch": 63, "duration": 12, "velocity": 59}, {"time": 1069, "pitch": 56, "duration": 6, "velocity": 48}, {"time": 1075, "pitch": 46, "duration": 15, "velocity": 71}, {"time": 1081, "pitch": 53, "duration": 18, "velocity": 65}, {"time": 1087, "pitch": 62, "duration": 13, "velocity": 73}, {"time": 1099, "pitch": 43, "duration": 15, "velocity": 72}, {"time": 1105, "pitch": 50, "duration": 9, "velocity": 55}, {"time": 1111, "pitch": 62, "duration": 12, "velocity": 89}, {"time": 1117, "pitch": 55, "duration": 6, "velocity": 55}, {"time": 1123, "pitch": 48, "duration": 11, "velocity": 92}, {"time": 1129, "pitch": 55, "duration": 7, "velocity": 59}, {"time": 1135, "pitch": 46, "duration": 12, "velocity": 79}, {"time": 1141, "pitch": 58, "duration": 7, "velocity": 58}, {"time": 1147, "pitch": 44, "duration": 23, "velocity": 47}, {"time": 1153, "pitch": 56, "duration": 9, "velocity": 59}, {"time": 1159, "pitch": 63, "duration": 11, "velocity": 72}, {"time": 1165, "pitch": 56, "duration": 5, "velocity": 40}, {"time": 1171, "pitch": 46, "duration": 16, "velocity": 97}, {"time": 1177, "pitch": 53, "duration": 19, "velocity": 58}, {"time": 1183, "pitch": 62, "duration": 12, "velocity": 85}, {"time": 1195, "pitch": 36, "duration": 41, "velocity": 78}, {"time": 1201, "pitch": 43, "duration": 34, "velocity": 58}, {"time": 1207, "pitch": 48, "duration": 8, "velocity": 43}, {"time": 1207, "pitch": 63, "duration": 7, "velocity": 95}, {"time": 1213, "pitch": 62, "duration": 4, "velocity": 79}, {"time": 1216, "pitch": 63, "duration": 4, "velocity": 32}, {"time": 1219, "pitch": 48, "duration": 13, "velocity": 76}, {"time": 1219, "pitch": 60, "duration": 13, "velocity": 73}, {"time": 1222, "pitch": 63, "duration": 6, "velocity": 24}, {"time": 1231, "pitch": 63, "duration": 12, "velocity": 99}, {"time": 1237, "pitch": 60, "duration": 6, "velocity": 85}, {"time": 1243, "pitch": 44, "duration": 19, "velocity": 96}, {"time": 1246, "pitch": 51, "duration": 15, "velocity": 73}, {"time": 1249, "pitch": 56, "duration": 7, "velocity": 107}, {"time": 1252, "pitch": 60, "duration": 6, "velocity": 92}, {"time": 1255, "pitch": 68, "duration": 11, "velocity": 127}, {"time": 1258, "pitch": 56, "duration": 3, "velocity": 97}, {"time": 1261, "pitch": 63, "duration": 5, "velocity": 100}, {"time": 1264, "pitch": 60, "duration": 4, "velocity": 93}, {"time": 1267, "pitch": 46, "duration": 19, "velocity": 99}, {"time": 1270, "pitch": 53, "duration": 14, "velocity": 52}, {"time": 1273, "pitch": 58, "duration": 7, "velocity": 97}, {"time": 1276, "pitch": 62, "duration": 3, "velocity": 95}, {"time": 1279, "pitch": 65, "duration": 7, "velocity": 107}, {"time": 1282, "pitch": 58, "duration": 3, "velocity": 89}, {"time": 1285, "pitch": 62, "duration": 5, "velocity": 79}, {"time": 1288, "pitch": 65, "duration": 3, "velocity": 89}, {"time": 1291, "pitch": 43, "duration": 17, "velocity": 76}, {"time": 1294, "pitch": 50, "duration": 10, "velocity": 63}, {"time": 1297, "pitch": 55, "duration": 7, "velocity": 79}, {"time": 1300, "pitch": 58, "duration": 3, "velocity": 96}, {"time": 1303, "pitch": 62, "duration": 10, "velocity": 100}, {"time": 1306, "pitch": 50, "duration": 2, "velocity": 82}, {"time": 1309, "pitch": 58, "duration": 3, "velocity": 117}, {"time": 1312, "pitch": 55, "duration": 5, "velocity": 97}, {"time": 1315, "pitch": 36, "duration": 18, "velocity": 81}, {"time": 1318, "pitch": 43, "duration": 16, "velocity": 60}, {"time": 1321, "pitch": 48, "duration": 7, "velocity": 93}, {"time": 1324, "pitch": 55, "duration": 6, "velocity": 95}, {"time": 1327, "pitch": 63, "duration": 12, "velocity": 127}, {"time": 1330, "pitch": 48, "duration": 9, "velocity": 95}, {"time": 1333, "pitch": 60, "duration": 6, "velocity": 97}, {"time": 1336, "pitch": 55, "duration": 4, "velocity": 88}, {"time": 1339, "pitch": 41, "duration": 17, "velocity": 75}, {"time": 1342, "pitch": 48, "duration": 10, "velocity": 66}, {"time": 1345, "pitch": 53, "duration": 4, "velocity": 90}, {"time": 1348, "pitch": 56, "duration": 4, "velocity": 93}, {"time": 1351, "pitch": 60, "duration": 11, "velocity": 96}, {"time": 1354, "pitch": 48, "duration": 2, "velocity": 82}, {"time": 1357, "pitch": 56, "duration": 5, "velocity": 99}, {"time": 1360, "pitch": 53, "duration": 3, "velocity": 90}, {"time": 1363, "pitch": 46, "duration": 20, "velocity": 122}, {"time": 1366, "pitch": 53, "duration": 16, "velocity": 58}, {"time": 1369, "pitch": 58, "duration": 7, "velocity": 102}, {"time": 1372, "pitch": 62, "duration": 4, "velocity": 96}, {"time": 1375, "pitch": 65, "duration": 6, "velocity": 107}, {"time": 1378, "pitch": 58, "duration": 3, "velocity": 99}, {"time": 1381, "pitch": 62, "duration": 4, "velocity": 99}, {"time": 1384, "pitch": 65, "duration": 3, "velocity": 97}, {"time": 1387, "pitch": 44, "duration": 19, "velocity": 82}, {"time": 1390, "pitch": 51, "duration": 15, "velocity": 83}, {"time": 1393, "pitch": 56, "duration": 7, "velocity": 100}, {"time": 1396, "pitch": 60, "duration": 7, "velocity": 95}, {"time": 1399, "pitch": 68, "duration": 11, "velocity": 127}, {"time": 1402, "pitch": 56, "duration": 2, "velocity": 107}, {"time": 1405, "pitch": 63, "duration": 5, "velocity": 117}, {"time": 1408, "pitch": 60, "duration": 3, "velocity": 100}, {"time": 1411, "pitch": 43, "duration": 17, "velocity": 82}, {"time": 1414, "pitch": 50, "duration": 11, "velocity": 90}, {"time": 1417, "pitch": 55, "duration": 3, "velocity": 99}, {"time": 1420, "pitch": 59, "duration": 3, "velocity": 112}, {"time": 1423, "pitch": 62, "duration": 11, "velocity": 117}, {"time": 1426, "pitch": 50, "duration": 2, "velocity": 83}, {"time": 1429, "pitch": 59, "duration": 5, "velocity": 117}, {"time": 1432, "pitch": 55, "duration": 2, "velocity": 99}, {"time": 1435, "pitch": 44, "duration": 18, "velocity": 93}, {"time": 1438, "pitch": 51, "duration": 15, "velocity": 39}, {"time": 1441, "pitch": 56, "duration": 7, "velocity": 107}, {"time": 1444, "pitch": 60, "duration": 6, "velocity": 96}, {"time": 1447, "pitch": 68, "duration": 10, "velocity": 122}, {"time": 1450, "pitch": 56, "duration": 3, "velocity": 96}, {"time": 1453, "pitch": 63, "duration": 4, "velocity": 117}, {"time": 1456, "pitch": 60, "duration": 3, "velocity": 100}, {"time": 1459, "pitch": 46, "duration": 18, "velocity": 102}, {"time": 1462, "pitch": 50, "duration": 14, "velocity": 66}, {"time": 1465, "pitch": 53, "duration": 7, "velocity": 76}, {"time": 1468, "pitch": 62, "duration": 3, "velocity": 97}, {"time": 1471, "pitch": 65, "duration": 6, "velocity": 122}, {"time": 1474, "pitch": 53, "duration": 2, "velocity": 76}, {"time": 1477, "pitch": 62, "duration": 4, "velocity": 102}, {"time": 1480, "pitch": 65, "duration": 2, "velocity": 102}, {"time": 1483, "pitch": 43, "duration": 23, "velocity": 74}, {"time": 1486, "pitch": 50, "duration": 11, "velocity": 92}, {"time": 1489, "pitch": 55, "duration": 4, "velocity": 90}, {"time": 1492, "pitch": 62, "duration": 14, "velocity": 112}, {"time": 1495, "pitch": 58, "duration": 6, "velocity": 122}, {"time": 1498, "pitch": 50, "duration": 3, "velocity": 83}, {"time": 1501, "pitch": 55, "duration": 7, "velocity": 93}, {"time": 1504, "pitch": 58, "duration": 4, "velocity": 107}, {"time": 1507, "pitch": 48, "duration": 5, "velocity": 107}, {"time": 1510, "pitch": 55, "duration": 4, "velocity": 97}, {"time": 1513, "pitch": 60, "duration": 4, "velocity": 99}, {"time": 1516, "pitch": 55, "duration": 14, "velocity": 83}, {"time": 1519, "pitch": 36, "duration": 5, "velocity": 67}, {"time": 1519, "pitch": 60, "duration": 11, "velocity": 102}, {"time": 1519, "pitch": 64, "duration": 11, "velocity": 107}, {"time": 1531, "pitch": 41, "duration": 21, "velocity": 79}, {"time": 1534, "pitch": 48, "duration": 11, "velocity": 73}, {"time": 1537, "pitch": 53, "duration": 4, "velocity": 90}, {"time": 1540, "pitch": 56, "duration": 3, "velocity": 93}, {"time": 1543, "pitch": 60, "duration": 12, "velocity": 100}, {"time": 1546, "pitch": 48, "duration": 8, "velocity": 77}, {"time": 1549, "pitch": 56, "duration": 5, "velocity": 112}, {"time": 1552, "pitch": 53, "duration": 3, "velocity": 93}, {"time": 1555, "pitch": 43, "duration": 17, "velocity": 92}, {"time": 1558, "pitch": 50, "duration": 15, "velocity": 82}, {"time": 1561, "pitch": 55, "duration": 7, "velocity": 92}, {"time": 1564, "pitch": 62, "duration": 8, "velocity": 95}, {"time": 1567, "pitch": 70, "duration": 13, "velocity": 127}, {"time": 1570, "pitch": 55, "duration": 2, "velocity": 89}, {"time": 1573, "pitch": 67, "duration": 7, "velocity": 97}, {"time": 1576, "pitch": 62, "duration": 4, "velocity": 99}, {"time": 1579, "pitch": 44, "duration": 19, "velocity": 95}, {"time": 1582, "pitch": 51, "duration": 16, "velocity": 64}, {"time": 1585, "pitch": 56, "duration": 7, "velocity": 117}, {"time": 1588, "pitch": 60, "duration": 3, "velocity": 95}, {"time": 1591, "pitch": 63, "duration": 6, "velocity": 102}, {"time": 1594, "pitch": 56, "duration": 3, "velocity": 100}, {"time": 1597, "pitch": 60, "duration": 5, "velocity": 93}, {"time": 1600, "pitch": 63, "duration": 2, "velocity": 112}, {"time": 1603, "pitch": 46, "duration": 19, "velocity": 102}, {"time": 1606, "pitch": 50, "duration": 16, "velocity": 66}, {"time": 1609, "pitch": 53, "duration": 7, "velocity": 95}, {"time": 1612, "pitch": 58, "duration": 3, "velocity": 95}, {"time": 1615, "pitch": 65, "duration": 8, "velocity": 100}, {"time": 1618, "pitch": 53, "duration": 3, "velocity": 86}, {"time": 1621, "pitch": 58, "duration": 4, "velocity": 112}, {"time": 1624, "pitch": 62, "duration": 3, "velocity": 93}, {"time": 1627, "pitch": 44, "duration": 18, "velocity": 99}, {"time": 1630, "pitch": 48, "duration": 14, "velocity": 55}, {"time": 1633, "pitch": 51, "duration": 7, "velocity": 102}, {"time": 1636, "pitch": 56, "duration": 4, "velocity": 96}, {"time": 1639, "pitch": 63, "duration": 11, "velocity": 127}, {"time": 1642, "pitch": 51, "duration": 2, "velocity": 96}, {"time": 1645, "pitch": 56, "duration": 5, "velocity": 99}, {"time": 1648, "pitch": 60, "duration": 3, "velocity": 72}, {"time": 1651, "pitch": 36, "duration": 25, "velocity": 77}, {"time": 1654, "pitch": 43, "duration": 21, "velocity": 89}, {"time": 1657, "pitch": 48, "duration": 8, "velocity": 93}, {"time": 1660, "pitch": 55, "duration": 5, "velocity": 86}, {"time": 1663, "pitch": 60, "duration": 13, "velocity": 112}, {"time": 1666, "pitch": 48, "duration": 4, "velocity": 86}, {"time": 1669, "pitch": 55, "duration": 7, "velocity": 89}, {"time": 1675, "pitch": 36, "duration": 1, "velocity": 76}, {"time": 1681, "pitch": 43, "duration": 12, "velocity": 63}, {"time": 1687, "pitch": 48, "duration": 8, "velocity": 63}, {"time": 1687, "pitch": 63, "duration": 12, "velocity": 93}, {"time": 1693, "pitch": 60, "duration": 7, "velocity": 52}, {"time": 1699, "pitch": 46, "duration": 13, "velocity": 82}, {"time": 1705, "pitch": 58, "duration": 7, "velocity": 66}, {"time": 1711, "pitch": 65, "duration": 12, "velocity": 76}, {"time": 1723, "pitch": 44, "duration": 41, "velocity": 67}, {"time": 1729, "pitch": 51, "duration": 33, "velocity": 58}, {"time": 1735, "pitch": 56, "duration": 10, "velocity": 42}, {"time": 1735, "pitch": 63, "duration": 23, "velocity": 97}, {"time": 1741, "pitch": 60, "duration": 30, "velocity": 60}, {"time": 1747, "pitch": 56, "duration": 15, "velocity": 56}, {"time": 1771, "pitch": 36, "duration": 15, "velocity": 82}, {"time": 1777, "pitch": 43, "duration": 8, "velocity": 57}, {"time": 1783, "pitch": 63, "duration": 10, "velocity": 99}, {"time": 1789, "pitch": 60, "duration": 7, "velocity": 68}, {"time": 1795, "pitch": 46, "duration": 18, "velocity": 65}, {"time": 1801, "pitch": 53, "duration": 11, "velocity": 40}, {"time": 1807, "pitch": 58, "duration": 5, "velocity": 60}, {"time": 1807, "pitch": 65, "duration": 11, "velocity": 59}, {"time": 1819, "pitch": 48, "duration": 16, "velocity": 71}, {"time": 1825, "pitch": 55, "duration": 43, "velocity": 61}, {"time": 1831, "pitch": 63, "duration": 6, "velocity": 107}, {"time": 1837, "pitch": 62, "duration": 7, "velocity": 61}, {"time": 1843, "pitch": 36, "duration": 23, "velocity": 66}, {"time": 1843, "pitch": 60, "duration": 9, "velocity": 71}, {"time": 1855, "pitch": 63, "duration": 15, "velocity": 88}, {"time": 1867, "pitch": 36, "duration": 15, "velocity": 100}, {"time": 1873, "pitch": 48, "duration": 12, "velocity": 53}, {"time": 1873, "pitch": 55, "duration": 8, "velocity": 65}, {"time": 1879, "pitch": 63, "duration": 8, "velocity": 127}, {"time": 1885, "pitch": 55, "duration": 6, "velocity": 102}, {"time": 1891, "pitch": 46, "duration": 17, "velocity": 102}, {"time": 1894, "pitch": 50, "duration": 13, "velocity": 69}, {"time": 1897, "pitch": 53, "duration": 11, "velocity": 92}, {"time": 1900, "pitch": 58, "duration": 3, "velocity": 107}, {"time": 1903, "pitch": 65, "duration": 12, "velocity": 102}, {"time": 1915, "pitch": 44, "duration": 22, "velocity": 99}, {"time": 1921, "pitch": 51, "duration": 15, "velocity": 62}, {"time": 1927, "pitch": 56, "duration": 8, "velocity": 81}, {"time": 1927, "pitch": 63, "duration": 12, "velocity": 127}, {"time": 1933, "pitch": 60, "duration": 6, "velocity": 82}, {"time": 1939, "pitch": 43, "duration": 15, "velocity": 90}, {"time": 1945, "pitch": 55, "duration": 7, "velocity": 64}, {"time": 1951, "pitch": 58, "duration": 12, "velocity": 97}, {"time": 1951, "pitch": 62, "duration": 12, "velocity": 97}, {"time": 1963, "pitch": 41, "duration": 18, "velocity": 93}, {"time": 1969, "pitch": 48, "duration": 11, "velocity": 61}, {"time": 1975, "pitch": 53, "duration": 4, "velocity": 96}, {"time": 1975, "pitch": 68, "duration": 8, "velocity": 107}, {"time": 1981, "pitch": 65, "duration": 6, "velocity": 92}, {"time": 1987, "pitch": 36, "duration": 17, "velocity": 89}, {"time": 1993, "pitch": 43, "duration": 9, "velocity": 61}, {"time": 1999, "pitch": 48, "duration": 5, "velocity": 93}, {"time": 1999, "pitch": 63, "duration": 12, "velocity": 122}, {"time": 2005, "pitch": 55, "duration": 6, "velocity": 97}, {"time": 2011, "pitch": 37, "duration": 38, "velocity": 97}, {"time": 2017, "pitch": 44, "duration": 32, "velocity": 45}, {"time": 2023, "pitch": 49, "duration": 26, "velocity": 99}, {"time": 2029, "pitch": 53, "duration": 30, "velocity": 88}, {"time": 2035, "pitch": 56, "duration": 12, "velocity": 102}, {"time": 2035, "pitch": 61, "duration": 10, "velocity": 117}, {"time": 2047, "pitch": 61, "duration": 12, "velocity": 112}, {"time": 2053, "pitch": 56, "duration": 6, "velocity": 97}, {"time": 2059, "pitch": 43, "duration": 47, "velocity": 100}, {"time": 2065, "pitch": 50, "duration": 16, "velocity": 78}, {"time": 2071, "pitch": 55, "duration": 5, "velocity": 102}, {"time": 2077, "pitch": 59, "duration": 30, "velocity": 77}, {"time": 2083, "pitch": 50, "duration": 23, "velocity": 90}, {"time": 2083, "pitch": 55, "duration": 24, "velocity": 89}, {"time": 2083, "pitch": 62, "duration": 24, "velocity": 92}, {"time": 2107, "pitch": 36, "duration": 19, "velocity": 66}, {"time": 2113, "pitch": 43, "duration": 13, "velocity": 43}, {"time": 2119, "pitch": 48, "duration": 12, "velocity": 72}, {"time": 2125, "pitch": 63, "duration": 8, "velocity": 66}, {"time": 2131, "pitch": 46, "duration": 14, "velocity": 69}, {"time": 2137, "pitch": 53, "duration": 19, "velocity": 48}, {"time": 2143, "pitch": 62, "duration": 13, "velocity": 69}, {"time": 2155, "pitch": 39, "duration": 24, "velocity": 73}, {"time": 2161, "pitch": 51, "duration": 8, "velocity": 53}, {"time": 2167, "pitch": 63, "duration": 12, "velocity": 93}, {"time": 2173, "pitch": 55, "duration": 6, "velocity": 49}, {"time": 2179, "pitch": 46, "duration": 17, "velocity": 53}, {"time": 2185, "pitch": 53, "duration": 14, "velocity": 56}, {"time": 2191, "pitch": 62, "duration": 13, "velocity": 78}, {"time": 2197, "pitch": 58, "duration": 7, "velocity": 47}, {"time": 2203, "pitch": 39, "duration": 17, "velocity": 78}, {"time": 2209, "pitch": 51, "duration": 6, "velocity": 63}, {"time": 2215, "pitch": 63, "duration": 10, "velocity": 95}, {"time": 2221, "pitch": 55, "duration": 5, "velocity": 59}, {"time": 2227, "pitch": 38, "duration": 14, "velocity": 69}, {"time": 2233, "pitch": 50, "duration": 18, "velocity": 70}, {"time": 2239, "pitch": 56, "duration": 12, "velocity": 66}, {"time": 2245, "pitch": 53, "duration": 6, "velocity": 55}, {"time": 2251, "pitch": 36, "duration": 18, "velocity": 70}, {"time": 2257, "pitch": 43, "duration": 9, "velocity": 50}, {"time": 2263, "pitch": 63, "duration": 11, "velocity": 92}, {"time": 2269, "pitch": 60, "duration": 6, "velocity": 56}, {"time": 2275, "pitch": 46, "duration": 13, "velocity": 81}, {"time": 2281, "pitch": 53, "duration": 18, "velocity": 52}, {"time": 2287, "pitch": 62, "duration": 12, "velocity": 73}, {"time": 2293, "pitch": 58, "duration": 6, "velocity": 59}, {"time": 2299, "pitch": 44, "duration": 21, "velocity": 52}, {"time": 2305, "pitch": 56, "duration": 8, "velocity": 59}, {"time": 2311, "pitch": 63, "duration": 12, "velocity": 59}, {"time": 2317, "pitch": 56, "duration": 6, "velocity": 48}, {"time": 2323, "pitch": 46, "duration": 15, "velocity": 71}, {"time": 2329, "pitch": 53, "duration": 18, "velocity": 65}, {"time": 2335, "pitch": 62, "duration": 13, "velocity": 73}, {"time": 2347, "pitch": 43, "duration": 15, "velocity": 72}, {"time": 2353, "pitch": 50, "duration": 9, "velocity": 55}, {"time": 2359, "pitch": 62, "duration": 12, "velocity": 89}, {"time": 2365, "pitch": 55, "duration": 6, "velocity": 55}, {"time": 2371, "pitch": 48, "duration": 11, "velocity": 92}, {"time": 2377, "pitch": 55, "duration": 7, "velocity": 59}, {"time": 2383, "pitch": 46, "duration": 12, "velocity": 79}, {"time": 2389, "pitch": 58, "duration": 7, "velocity": 58}, {"time": 2395, "pitch": 44, "duration": 23, "velocity": 47}, {"time": 2401, "pitch": 56, "duration": 9, "velocity": 59}, {"time": 2407, "pitch": 63, "duration": 11, "velocity": 72}, {"time": 2413, "pitch": 56, "duration": 5, "velocity": 40}, {"time": 2419, "pitch": 46, "duration": 13, "velocity": 63}, {"time": 2425, "pitch": 53, "duration": 18, "velocity": 54}, {"time": 2431, "pitch": 62, "duration": 12, "velocity": 65}, {"time": 2443, "pitch": 36, "duration": 45, "velocity": 67}, {"time": 2449, "pitch": 43, "duration": 15, "velocity": 42}, {"time": 2455, "pitch": 48, "duration": 7, "velocity": 77}, {"time": 2461, "pitch": 55, "duration": 30, "velocity": 86}, {"time": 2467, "pitch": 43, "duration": 22, "velocity": 64}, {"time": 2467, "pitch": 60, "duration": 24, "velocity": 76}, {"time": 2467, "pitch": 64, "duration": 24, "velocity": 79}, {"time": 2491, "pitch": 36, "duration": 19, "velocity": 66}, {"time": 2497, "pitch": 43, "duration": 13, "velocity": 43}, {"time": 2503, "pitch": 48, "duration": 12, "velocity": 72}, {"time": 2509, "pitch": 63, "duration": 8, "velocity": 66}, {"time": 2515, "pitch": 46, "duration": 14, "velocity": 69}, {"time": 2521, "pitch": 53, "duration": 19, "velocity": 48}, {"time": 2527, "pitch": 62, "duration": 13, "velocity": 69}, {"time": 2539, "pitch": 39, "duration": 24, "velocity": 73}, {"time": 2545, "pitch": 51, "duration": 8, "velocity": 53}, {"time": 2551, "pitch": 63, "duration": 12, "velocity": 93}, {"time": 2557, "pitch": 55, "duration": 6, "velocity": 49}, {"time": 2563, "pitch": 46, "duration": 17, "velocity": 53}, {"time": 2569, "pitch": 53, "duration": 14, "velocity": 56}, {"time": 2575, "pitch": 62, "duration": 13, "velocity": 78}, {"time": 2581, "pitch": 58, "duration": 7, "velocity": 47}, {"time": 2587, "pitch": 39, "duration": 17, "velocity": 78}, {"time": 2593, "pitch": 51, "duration": 6, "velocity": 63}, {"time": 2599, "pitch": 63, "duration": 10, "velocity": 95}, {"time": 2605, "pitch": 55, "duration": 5, "velocity": 59}, {"time": 2611, "pitch": 38, "duration": 14, "velocity": 69}, {"time": 2617, "pitch": 50, "duration": 18, "velocity": 70}, {"time": 2623, "pitch": 56, "duration": 12, "velocity": 66}, {"time": 2629, "pitch": 53, "duration": 6, "velocity": 55}, {"time": 2635, "pitch": 36, "duration": 18, "velocity": 70}, {"time": 2641, "pitch": 43, "duration": 9, "velocity": 50}, {"time": 2647, "pitch": 63, "duration": 11, "velocity": 92}, {"time": 2653, "pitch": 60, "duration": 6, "velocity": 56}, {"time": 2659, "pitch": 46, "duration": 13, "velocity": 81}, {"time": 2665, "pitch": 53, "duration": 18, "velocity": 52}, {"time": 2671, "pitch": 62, "duration": 12, "velocity": 73}, {"time": 2677, "pitch": 58, "duration": 6, "velocity": 59}, {"time": 2683, "pitch": 44, "duration": 21, "velocity": 52}, {"time": 2689, "pitch": 56, "duration": 8, "velocity": 59}, {"time": 2695, "pitch": 63, "duration": 12, "velocity": 59}, {"time": 2701, "pitch": 56, "duration": 6, "velocity": 48}, {"time": 2707, "pitch": 46, "duration": 15, "velocity": 71}, {"time": 2713, "pitch": 53, "duration": 18, "velocity": 65}, {"time": 2719, "pitch": 62, "duration": 13, "velocity": 73}, {"time": 2731, "pitch": 43, "duration": 15, "velocity": 72}, {"time": 2737, "pitch": 50, "duration": 9, "velocity": 55}, {"time": 2743, "pitch": 62, "duration": 12, "velocity": 89}, {"time": 2749, "pitch": 55, "duration": 6, "velocity": 55}, {"time": 2755, "pitch": 48, "duration": 11, "velocity": 92}, {"time": 2761, "pitch": 55, "duration": 7, "velocity": 59}, {"time": 2767, "pitch": 46, "duration": 12, "velocity": 79}, {"time": 2773, "pitch": 58, "duration": 7, "velocity": 58}, {"time": 2779, "pitch": 44, "duration": 23, "velocity": 47}, {"time": 2785, "pitch": 56, "duration": 9, "velocity": 59}, {"time": 2791, "pitch": 63, "duration": 11, "velocity": 72}, {"time": 2797, "pitch": 56, "duration": 5, "velocity": 40}, {"time": 2803, "pitch": 46, "duration": 16, "velocity": 97}, {"time": 2809, "pitch": 53, "duration": 19, "velocity": 58}, {"time": 2815, "pitch": 62, "duration": 12, "velocity": 85}, {"time": 2827, "pitch": 36, "duration": 41, "velocity": 78}, {"time": 2833, "pitch": 43, "duration": 34, "velocity": 58}, {"time": 2839, "pitch": 48, "duration": 8, "velocity": 43}, {"time": 2839, "pitch": 63, "duration": 7, "velocity": 95}, {"time": 2845, "pitch": 62, "duration": 4, "velocity": 79}, {"time": 2848, "pitch": 63, "duration": 4, "velocity": 32}, {"time": 2851, "pitch": 48, "duration": 13, "velocity": 76}, {"time": 2851, "pitch": 60, "duration": 13, "velocity": 73}, {"time": 2854, "pitch": 63, "duration": 6, "velocity": 24}, {"time": 2863, "pitch": 63, "duration": 12, "velocity": 99}, {"time": 2869, "pitch": 60, "duration": 6, "velocity": 85}, {"time": 2875, "pitch": 44, "duration": 19, "velocity": 96}, {"time": 2878, "pitch": 51, "duration": 15, "velocity": 73}, {"time": 2881, "pitch": 56, "duration": 7, "velocity": 107}, {"time": 2884, "pitch": 60, "duration": 6, "velocity": 92}, {"time": 2887, "pitch": 68, "duration": 11, "velocity": 127}, {"time": 2890, "pitch": 56, "duration": 3, "velocity": 97}, {"time": 2893, "pitch": 63, "duration": 5, "velocity": 100}, {"time": 2896, "pitch": 60, "duration": 4, "velocity": 93}, {"time": 2899, "pitch": 46, "duration": 19, "velocity": 99}, {"time": 2902, "pitch": 53, "duration": 14, "velocity": 52}, {"time": 2905, "pitch": 58, "duration": 7, "velocity": 97}, {"time": 2908, "pitch": 62, "duration": 3, "velocity": 95}, {"time": 2911, "pitch": 65, "duration": 7, "velocity": 107}, {"time": 2914, "pitch": 58, "duration": 3, "velocity": 89}, {"time": 2917, "pitch": 62, "duration": 5, "velocity": 79}, {"time": 2920, "pitch": 65, "duration": 3, "velocity": 89}, {"time": 2923, "pitch": 43, "duration": 17, "velocity": 76}, {"time": 2926, "pitch": 50, "duration": 10, "velocity": 63}, {"time": 2929, "pitch": 55, "duration": 7, "velocity": 79}, {"time": 2932, "pitch": 58, "duration": 3, "velocity": 96}, {"time": 2935, "pitch": 62, "duration": 10, "velocity": 100}, {"time": 2938, "pitch": 50, "duration": 2, "velocity": 82}, {"time": 2941, "pitch": 58, "duration": 3, "velocity": 117}, {"time": 2944, "pitch": 55, "duration": 5, "velocity": 97}, {"time": 2947, "pitch": 36, "duration": 18, "velocity": 81}, {"time": 2950, "pitch": 43, "duration": 16, "velocity": 60}, {"time": 2953, "pitch": 48, "duration": 7, "velocity": 93}, {"time": 2956, "pitch": 55, "duration": 6, "velocity": 95}, {"time": 2959, "pitch": 63, "duration": 12, "velocity": 127}, {"time": 2962, "pitch": 48, "duration": 9, "velocity": 95}, {"time": 2965, "pitch": 60, "duration": 6, "velocity": 97}, {"time": 2968, "pitch": 55, "duration": 4, "velocity": 88}, {"time": 2971, "pitch": 41, "duration": 17, "velocity": 75}, {"time": 2974, "pitch": 48, "duration": 10, "velocity": 66}, {"time": 2977, "pitch": 53, "duration": 4, "velocity": 90}, {"time": 2980, "pitch": 56, "duration": 4, "velocity": 93}, {"time": 2983, "pitch": 60, "duration": 11, "velocity": 96}, {"time": 2986, "pitch": 48, "duration": 2, "velocity": 82}, {"time": 2989, "pitch": 56, "duration": 5, "velocity": 99}, {"time": 2992, "pitch": 53, "duration": 3, "velocity": 90}, {"time": 2995, "pitch": 46, "duration": 20, "velocity": 122}, {"time": 2998, "pitch": 53, "duration": 16, "velocity": 58}, {"time": 3001, "pitch": 58, "duration": 7, "velocity": 102}, {"time": 3004, "pitch": 62, "duration": 4, "velocity": 96}, {"time": 3007, "pitch": 65, "duration": 6, "velocity": 107}, {"time": 3010, "pitch": 58, "duration": 3, "velocity": 99}, {"time": 3013, "pitch": 62, "duration": 4, "velocity": 99}, {"time": 3016, "pitch": 65, "duration": 3, "velocity": 97}, {"time": 3019, "pitch": 44, "duration": 19, "velocity": 82}, {"time": 3022, "pitch": 51, "duration": 15, "velocity": 83}, {"time": 3025, "pitch": 56, "duration": 7, "velocity": 100}, {"time": 3028, "pitch": 60, "duration": 7, "velocity": 95}, {"time": 3031, "pitch": 68, "duration": 11, "velocity": 127}, {"time": 3034, "pitch": 56, "duration": 2, "velocity": 107}, {"time": 3037, "pitch": 63, "duration": 5, "velocity": 117}, {"time": 3040, "pitch": 60, "duration": 3, "velocity": 100}, {"time": 3043, "pitch": 43, "duration": 17, "velocity": 82}, {"time": 3046, "pitch": 50, "duration": 11, "velocity": 90}, {"time": 3049, "pitch": 55, "duration": 3, "velocity": 99}, {"time": 3052, "pitch": 59, "duration": 3, "velocity": 112}, {"time": 3055, "pitch": 62, "duration": 11, "velocity": 117}, {"time": 3058, "pitch": 50, "duration": 2, "velocity": 83}, {"time": 3061, "pitch": 59, "duration": 5, "velocity": 117}, {"time": 3064, "pitch": 55, "duration": 2, "velocity": 99}, {"time": 3067, "pitch": 44, "duration": 18, "velocity": 93}, {"time": 3070, "pitch": 51, "duration": 15, "velocity": 39}, {"time": 3073, "pitch": 56, "duration": 7, "velocity": 107}, {"time": 3076, "pitch": 60, "duration": 6, "velocity": 96}, {"time": 3079, "pitch": 68, "duration": 10, "velocity": 122}, {"time": 3082, "pitch": 56, "duration": 3, "velocity": 96}, {"time": 3085, "pitch": 63, "duration": 4, "velocity": 117}, {"time": 3088, "pitch": 60, "duration": 3, "velocity": 100}, {"time": 3091, "pitch": 46, "duration": 18, "velocity": 102}, {"time": 3094, "pitch": 50, "duration": 14, "velocity": 66}, {"time": 3097, "pitch": 53, "duration": 7, "velocity": 76}, {"time": 3100, "pitch": 62, "duration": 3, "velocity": 97}, {"time": 3103, "pitch": 65, "duration": 6, "velocity": 122}, {"time": 3106, "pitch": 53, "duration": 2, "velocity": 76}, {"time": 3109, "pitch": 62, "duration": 4, "velocity": 102}, {"time": 3112, "pitch": 65, "duration": 2, "velocity": 102}, {"time": 3115, "pitch": 43, "duration": 23, "velocity": 74}, {"time": 3118, "pitch": 50, "duration": 11, "velocity": 92}, {"time": 3121, "pitch": 55, "duration": 4, "velocity": 90}, {"time": 3124, "pitch": 62, "duration": 14, "velocity": 112}, {"time": 3127, "pitch": 58, "duration": 6, "velocity": 122}, {"time": 3130, "pitch": 50, "duration": 3, "velocity": 83}, {"time": 3133, "pitch": 55, "duration": 7, "velocity": 93}, {"time": 3136, "pitch": 58, "duration": 4, "velocity": 107}, {"time": 3139, "pitch": 48, "duration": 5, "velocity": 107}, {"time": 3142, "pitch": 55, "duration": 4, "velocity": 97}, {"time": 3145, "pitch": 60, "duration": 4, "velocity": 99}, {"time": 3148, "pitch": 55, "duration": 14, "velocity": 83}, {"time": 3151, "pitch": 36, "duration": 5, "velocity": 67}, {"time": 3151, "pitch": 60, "duration": 11, "velocity": 102}, {"time": 3151, "pitch": 64, "duration": 11, "velocity": 107}, {"time": 3163, "pitch": 41, "duration": 21, "velocity": 79}, {"time": 3166, "pitch": 48, "duration": 11, "velocity": 73}, {"time": 3169, "pitch": 53, "duration": 4, "velocity": 90}, {"time": 3172, "pitch": 56, "duration": 3, "velocity": 93}, {"time": 3175, "pitch": 60, "duration": 12, "velocity": 100}, {"time": 3178, "pitch": 48, "duration": 8, "velocity": 77}, {"time": 3181, "pitch": 56, "duration": 5, "velocity": 112}, {"time": 3184, "pitch": 53, "duration": 3, "velocity": 93}, {"time": 3187, "pitch": 43, "duration": 17, "velocity": 92}, {"time": 3190, "pitch": 50, "duration": 15, "velocity": 82}, {"time": 3193, "pitch": 55, "duration": 7, "velocity": 92}, {"time": 3196, "pitch": 62, "duration": 8, "velocity": 95}, {"time": 3199, "pitch": 70, "duration": 13, "velocity": 127}, {"time": 3202, "pitch": 55, "duration": 2, "velocity": 89}, {"time": 3205, "pitch": 67, "duration": 7, "velocity": 97}, {"time": 3208, "pitch": 62, "duration": 4, "velocity": 99}, {"time": 3211, "pitch": 44, "duration": 19, "velocity": 95}, {"time": 3214, "pitch": 51, "duration": 16, "velocity": 64}, {"time": 3217, "pitch": 56, "duration": 7, "velocity": 117}, {"time": 3220, "pitch": 60, "duration": 3, "velocity": 95}, {"time": 3223, "pitch": 63, "duration": 6, "velocity": 102}, {"time": 3226, "pitch": 56, "duration": 3, "velocity": 100}, {"time": 3229, "pitch": 60, "duration": 5, "velocity": 93}, {"time": 3232, "pitch": 63, "duration": 2, "velocity": 112}, {"time": 3235, "pitch": 46, "duration": 19, "velocity": 102}, {"time": 3238, "pitch": 50, "duration": 16, "velocity": 66}, {"time": 3241, "pitch": 53, "duration": 7, "velocity": 95}, {"time": 3244, "pitch": 58, "duration": 3, "velocity": 95}, {"time": 3247, "pitch": 65, "duration": 8, "velocity": 100}, {"time": 3250, "pitch": 53, "duration": 3, "velocity": 86}, {"time": 3253, "pitch": 58, "duration": 4, "velocity": 112}, {"time": 3256, "pitch": 62, "duration": 3, "velocity": 93}, {"time": 3259, "pitch": 44, "duration": 18, "velocity": 99}, {"time": 3262, "pitch": 48, "duration": 14, "velocity": 55}, {"time": 3265, "pitch": 51, "duration": 7, "velocity": 102}, {"time": 3268, "pitch": 56, "duration": 4, "velocity": 96}, {"time": 3271, "pitch": 63, "duration": 11, "velocity": 127}, {"time": 3274, "pitch": 51, "duration": 2, "velocity": 96}, {"time": 3277, "pitch": 56, "duration": 5, "velocity": 99}, {"time": 3280, "pitch": 60, "duration": 3, "velocity": 72}, {"time": 3283, "pitch": 36, "duration": 25, "velocity": 77}, {"time": 3286, "pitch": 43, "duration": 21, "velocity": 89}, {"time": 3289, "pitch": 48, "duration": 8, "velocity": 93}, {"time": 3292, "pitch": 55, "duration": 5, "velocity": 86}, {"time": 3295, "pitch": 60, "duration": 13, "velocity": 112}, {"time": 3298, "pitch": 48, "duration": 4, "velocity": 86}, {"time": 3301, "pitch": 55, "duration": 7, "velocity": 89}, {"time": 3307, "pitch": 36, "duration": 1, "velocity": 100}, {"time": 3313, "pitch": 43, "duration": 18, "velocity": 76}, {"time": 3316, "pitch": 48, "duration": 15, "velocity": 86}, {"time": 3319, "pitch": 63, "duration": 19, "velocity": 127}, {"time": 3325, "pitch": 60, "duration": 13, "velocity": 86}, {"time": 3328, "pitch": 55, "duration": 10, "velocity": 90}, {"time": 3331, "pitch": 36, "duration": 18, "velocity": 78}, {"time": 3334, "pitch": 43, "duration": 16, "velocity": 78}, {"time": 3337, "pitch": 48, "duration": 8, "velocity": 93}, {"time": 3340, "pitch": 55, "duration": 5, "velocity": 88}, {"time": 3343, "pitch": 63, "duration": 7, "velocity": 127}, {"time": 3346, "pitch": 48, "duration": 3, "velocity": 99}, {"time": 3349, "pitch": 55, "duration": 4, "velocity": 99}, {"time": 3355, "pitch": 41, "duration": 4, "velocity": 85}, {"time": 3355, "pitch": 53, "duration": 4, "velocity": 86}, {"time": 3355, "pitch": 56, "duration": 3, "velocity": 96}, {"time": 3355, "pitch": 60, "duration": 4, "velocity": 86}, {"time": 3364, "pitch": 43, "duration": 4, "velocity": 88}, {"time": 3364, "pitch": 55, "duration": 5, "velocity": 90}, {"time": 3364, "pitch": 62, "duration": 3, "velocity": 92}, {"time": 3373, "pitch": 44, "duration": 4, "velocity": 99}, {"time": 3373, "pitch": 56, "duration": 3, "velocity": 100}, {"time": 3373, "pitch": 60, "duration": 3, "velocity": 89}, {"time": 3382, "pitch": 46, "duration": 9, "velocity": 107}, {"time": 3382, "pitch": 53, "duration": 9, "velocity": 85}, {"time": 3382, "pitch": 58, "duration": 9, "velocity": 92}, {"time": 3382, "pitch": 62, "duration": 9, "velocity": 85}, {"time": 3391, "pitch": 48, "duration": 4, "velocity": 97}, {"time": 3391, "pitch": 55, "duration": 4, "velocity": 93}, {"time": 3391, "pitch": 60, "duration": 5, "velocity": 97}, {"time": 3391, "pitch": 63, "duration": 4, "velocity": 97}, {"time": 3403, "pitch": 46, "duration": 2, "velocity": 112}, {"time": 3403, "pitch": 53, "duration": 2, "velocity": 92}, {"time": 3403, "pitch": 58, "duration": 2, "velocity": 107}, {"time": 3403, "pitch": 62, "duration": 2, "velocity": 90}, {"time": 3406, "pitch": 46, "duration": 2, "velocity": 90}, {"time": 3406, "pitch": 53, "duration": 2, "velocity": 83}, {"time": 3406, "pitch": 58, "duration": 2, "velocity": 96}, {"time": 3406, "pitch": 62, "duration": 2, "velocity": 82}, {"time": 3421, "pitch": 46, "duration": 2, "velocity": 107}, {"time": 3421, "pitch": 53, "duration": 2, "velocity": 96}, {"time": 3421, "pitch": 58, "duration": 2, "velocity": 99}, {"time": 3421, "pitch": 62, "duration": 2, "velocity": 86}, {"time": 3424, "pitch": 46, "duration": 3, "velocity": 83}, {"time": 3424, "pitch": 53, "duration": 3, "velocity": 99}, {"time": 3424, "pitch": 58, "duration": 2, "velocity": 107}, {"time": 3424, "pitch": 62, "duration": 3, "velocity": 90}, {"time": 3451, "pitch": 44, "duration": 19, "velocity": 96}, {"time": 3454, "pitch": 51, "duration": 15, "velocity": 73}, {"time": 3457, "pitch": 56, "duration": 7, "velocity": 107}, {"time": 3460, "pitch": 60, "duration": 6, "velocity": 92}, {"time": 3463, "pitch": 68, "duration": 11, "velocity": 127}, {"time": 3466, "pitch": 56, "duration": 3, "velocity": 97}, {"time": 3469, "pitch": 63, "duration": 5, "velocity": 100}, {"time": 3472, "pitch": 60, "duration": 4, "velocity": 93}, {"time": 3475, "pitch": 46, "duration": 19, "velocity": 99}, {"time": 3478, "pitch": 53, "duration": 14, "velocity": 52}, {"time": 3481, "pitch": 58, "duration": 7, "velocity": 97}, {"time": 3484, "pitch": 62, "duration": 3, "velocity": 95}, {"time": 3487, "pitch": 65, "duration": 7, "velocity": 107}, {"time": 3490, "pitch": 58, "duration": 3, "velocity": 89}, {"time": 3493, "pitch": 62, "duration": 5, "velocity": 79}, {"time": 3496, "pitch": 65, "duration": 3, "velocity": 89}, {"time": 3499, "pitch": 43, "duration": 17, "velocity": 76}, {"time": 3502, "pitch": 50, "duration": 10, "velocity": 63}, {"time": 3505, "pitch": 55, "duration": 7, "velocity": 79}, {"time": 3508, "pitch": 58, "duration": 3, "velocity": 96}, {"time": 3511, "pitch": 62, "duration": 10, "velocity": 100}, {"time": 3514, "pitch": 50, "duration": 2, "velocity": 82}, {"time": 3517, "pitch": 58, "duration": 3, "velocity": 117}, {"time": 3520, "pitch": 55, "duration": 5, "velocity": 97}, {"time": 3523, "pitch": 36, "duration": 18, "velocity": 81}, {"time": 3526, "pitch": 43, "duration": 16, "velocity": 60}, {"time": 3529, "pitch": 48, "duration": 7, "velocity": 93}, {"time": 3532, "pitch": 55, "duration": 6, "velocity": 95}, {"time": 3535, "pitch": 63, "duration": 12, "velocity": 127}, {"time": 3538, "pitch": 48, "duration": 9, "velocity": 95}, {"time": 3541, "pitch": 60, "duration": 6, "velocity": 97}, {"time": 3544, "pitch": 55, "duration": 4, "velocity": 88}, {"time": 3547, "pitch": 41, "duration": 17, "velocity": 75}, {"time": 3550, "pitch": 48, "duration": 10, "velocity": 66}, {"time": 3553, "pitch": 53, "duration": 4, "velocity": 90}, {"time": 3556, "pitch": 56, "duration": 4, "velocity": 93}, {"time": 3559, "pitch": 60, "duration": 11, "velocity": 96}, {"time": 3562, "pitch": 48, "duration": 2, "velocity": 82}, {"time": 3565, "pitch": 56, "duration": 5, "velocity": 99}, {"time": 3568, "pitch": 53, "duration": 3, "velocity": 90}, {"time": 3571, "pitch": 46, "duration": 20, "velocity": 122}, {"time": 3574, "pitch": 53, "duration": 16, "velocity": 58}, {"time": 3577, "pitch": 58, "duration": 7, "velocity": 102}, {"time": 3580, "pitch": 62, "duration": 4, "velocity": 96}, {"time": 3583, "pitch": 65, "duration": 6, "velocity": 107}, {"time": 3586, "pitch": 58, "duration": 3, "velocity": 99}, {"time": 3589, "pitch": 62, "duration": 4, "velocity": 99}, {"time": 3592, "pitch": 65, "duration": 3, "velocity": 97}, {"time": 3595, "pitch": 44, "duration": 19, "velocity": 82}, {"time": 3598, "pitch": 51, "duration": 15, "velocity": 83}, {"time": 3601, "pitch": 56, "duration": 7, "velocity": 100}, {"time": 3604, "pitch": 60, "duration": 7, "velocity": 95}, {"time": 3607, "pitch": 68, "duration": 11, "velocity": 127}, {"time": 3610, "pitch": 56, "duration": 2, "velocity": 107}, {"time": 3613, "pitch": 63, "duration": 5, "velocity": 117}, {"time": 3616, "pitch": 60, "duration": 3, "velocity": 100}, {"time": 3619, "pitch": 43, "duration": 17, "velocity": 82}, {"time": 3622, "pitch": 50, "duration": 11, "velocity": 90}, {"time": 3625, "pitch": 55, "duration": 3, "velocity": 99}, {"time": 3628, "pitch": 59, "duration": 3, "velocity": 112}, {"time": 3631, "pitch": 62, "duration": 11, "velocity": 117}, {"time": 3634, "pitch": 50, "duration": 2, "velocity": 83}, {"time": 3637, "pitch": 59, "duration": 5, "velocity": 117}, {"time": 3640, "pitch": 55, "duration": 2, "velocity": 99}, {"time": 3643, "pitch": 44, "duration": 18, "velocity": 93}, {"time": 3646, "pitch": 51, "duration": 15, "velocity": 39}, {"time": 3649, "pitch": 56, "duration": 7, "velocity": 107}, {"time": 3652, "pitch": 60, "duration": 6, "velocity": 96}, {"time": 3655, "pitch": 68, "duration": 10, "velocity": 122}, {"time": 3658, "pitch": 56, "duration": 3, "velocity": 96}, {"time": 3661, "pitch": 63, "duration": 4, "velocity": 117}, {"time": 3664, "pitch": 60, "duration": 3, "velocity": 100}, {"time": 3667, "pitch": 46, "duration": 18, "velocity": 102}, {"time": 3670, "pitch": 50, "duration": 14, "velocity": 66}, {"time": 3673, "pitch": 53, "duration": 7, "velocity": 76}, {"time": 3676, "pitch": 62, "duration": 3, "velocity": 97}, {"time": 3679, "pitch": 65, "duration": 6, "velocity": 122}, {"time": 3682, "pitch": 53, "duration": 2, "velocity": 76}, {"time": 3685, "pitch": 62, "duration": 4, "velocity": 102}, {"time": 3688, "pitch": 65, "duration": 2, "velocity": 102}, {"time": 3691, "pitch": 43, "duration": 23, "velocity": 74}, {"time": 3694, "pitch": 50, "duration": 11, "velocity": 92}, {"time": 3697, "pitch": 55, "duration": 4, "velocity": 90}, {"time": 3700, "pitch": 62, "duration": 14, "velocity": 112}, {"time": 3703, "pitch": 58, "duration": 6, "velocity": 122}, {"time": 3706, "pitch": 50, "duration": 3, "velocity": 83}, {"time": 3709, "pitch": 55, "duration": 7, "velocity": 93}, {"time": 3712, "pitch": 58, "duration": 4, "velocity": 107}, {"time": 3715, "pitch": 48, "duration": 5, "velocity": 107}, {"time": 3718, "pitch": 55, "duration": 4, "velocity": 97}, {"time": 3721, "pitch": 60, "duration": 4, "velocity": 99}, {"time": 3724, "pitch": 55, "duration": 14, "velocity": 83}, {"time": 3727, "pitch": 36, "duration": 5, "velocity": 67}, {"time": 3727, "pitch": 60, "duration": 11, "velocity": 102}, {"time": 3727, "pitch": 64, "duration": 11, "velocity": 107}, {"time": 3739, "pitch": 41, "duration": 21, "velocity": 79}, {"time": 3742, "pitch": 48, "duration": 11, "velocity": 73}, {"time": 3745, "pitch": 53, "duration": 4, "velocity": 90}, {"time": 3748, "pitch": 56, "duration": 3, "velocity": 93}, {"time": 3751, "pitch": 60, "duration": 12, "velocity": 100}, {"time": 3754, "pitch": 48, "duration": 8, "velocity": 77}, {"time": 3757, "pitch": 56, "duration": 5, "velocity": 112}, {"time": 3760, "pitch": 53, "duration": 3, "velocity": 93}, {"time": 3763, "pitch": 43, "duration": 17, "velocity": 92}, {"time": 3766, "pitch": 50, "duration": 15, "velocity": 82}, {"time": 3769, "pitch": 55, "duration": 7, "velocity": 92}, {"time": 3772, "pitch": 62, "duration": 8, "velocity": 95}, {"time": 3775, "pitch": 70, "duration": 13, "velocity": 127}, {"time": 3778, "pitch": 55, "duration": 2, "velocity": 89}, {"time": 3781, "pitch": 67, "duration": 7, "velocity": 97}, {"time": 3784, "pitch": 62, "duration": 4, "velocity": 99}, {"time": 3787, "pitch": 44, "duration": 19, "velocity": 95}, {"time": 3790, "pitch": 51, "duration": 16, "velocity": 64}, {"time": 3793, "pitch": 56, "duration": 7, "velocity": 117}, {"time": 3796, "pitch": 60, "duration": 3, "velocity": 95}, {"time": 3799, "pitch": 63, "duration": 6, "velocity": 102}, {"time": 3802, "pitch": 56, "duration": 3, "velocity": 100}, {"time": 3805, "pitch": 60, "duration": 5, "velocity": 93}, {"time": 3808, "pitch": 63, "duration": 2, "velocity": 112}, {"time": 3811, "pitch": 46, "duration": 19, "velocity": 102}, {"time": 3814, "pitch": 50, "duration": 16, "velocity": 66}, {"time": 3817, "pitch": 53, "duration": 7, "velocity": 95}, {"time": 3820, "pitch": 58, "duration": 3, "velocity": 95}, {"time": 3823, "pitch": 65, "duration": 8, "velocity": 100}, {"time": 3826, "pitch": 53, "duration": 3, "velocity": 86}, {"time": 3829, "pitch": 58, "duration": 4, "velocity": 112}, {"time": 3832, "pitch": 62, "duration": 3, "velocity": 93}, {"time": 3835, "pitch": 44, "duration": 18, "velocity": 99}, {"time": 3838, "pitch": 48, "duration": 14, "velocity": 55}, {"time": 3841, "pitch": 51, "duration": 7, "velocity": 102}, {"time": 3844, "pitch": 56, "duration": 4, "velocity": 96}, {"time": 3847, "pitch": 63, "duration": 11, "velocity": 127}, {"time": 3850, "pitch": 51, "duration": 2, "velocity": 96}, {"time": 3853, "pitch": 56, "duration": 5, "velocity": 99}, {"time": 3856, "pitch": 60, "duration": 3, "velocity": 72}, {"time": 3859, "pitch": 36, "duration": 24, "velocity": 77}, {"time": 3862, "pitch": 43, "duration": 21, "velocity": 89}, {"time": 3865, "pitch": 48, "duration": 8, "velocity": 93}, {"time": 3868, "pitch": 55, "duration": 5, "velocity": 86}, {"time": 3871, "pitch": 60, "duration": 12, "velocity": 112}, {"time": 3874, "pitch": 48, "duration": 4, "velocity": 86}, {"time": 3877, "pitch": 55, "duration": 6, "velocity": 89}, {"time": 3883, "pitch": 36, "duration": 45, "velocity": 82}, {"time": 3889, "pitch": 43, "duration": 42, "velocity": 60}, {"time": 3895, "pitch": 48, "duration": 36, "velocity": 85}, {"time": 3901, "pitch": 63, "duration": 42, "velocity": 88}, {"time": 3907, "pitch": 60, "duration": 38, "velocity": 55}, {"time": 3919, "pitch": 55, "duration": 23, "velocity": 30}, {"time": 3931, "pitch": 36, "duration": 48, "velocity": 69}, {"time": 3937, "pitch": 43, "duration": 41, "velocity": 61}, {"time": 3943, "pitch": 48, "duration": 28, "velocity": 74}, {"time": 3949, "pitch": 55, "duration": 30, "velocity": 45}, {"time": 3955, "pitch": 63, "duration": 24, "velocity": 88}, {"time": 3967, "pitch": 60, "duration": 12, "velocity": 63}, {"time": 3979, "pitch": 36, "duration": 1, "velocity": 86}, {"time": 3985, "pitch": 43, "duration": 31, "velocity": 43}, {"time": 3991, "pitch": 48, "duration": 25, "velocity": 69}, {"time": 3997, "pitch": 60, "duration": 22, "velocity": 57}, {"time": 3997, "pitch": 63, "duration": 22, "velocity": 56}, {"time": 4027, "pitch": 41, "duration": 45, "velocity": 64}, {"time": 4027, "pitch": 53, "duration": 7, "velocity": 40}, {"time": 4027, "pitch": 57, "duration": 13, "velocity": 45}, {"time": 4027, "pitch": 60, "duration": 14, "velocity": 47}, {"time": 4033, "pitch": 48, "duration": 37, "velocity": 63}, {"time": 4039, "pitch": 53, "duration": 28, "velocity": 67}, {"time": 4045, "pitch": 57, "duration": 25, "velocity": 54}, {"time": 4045, "pitch": 60, "duration": 25, "velocity": 36}, {"time": 4081, "pitch": 72, "duration": 6, "velocity": 59}, {"time": 4087, "pitch": 48, "duration": 46, "velocity": 64}, {"time": 4087, "pitch": 67, "duration": 12, "velocity": 52}, {"time": 4093, "pitch": 55, "duration": 42, "velocity": 33}, {"time": 4099, "pitch": 60, "duration": 74, "velocity": 32}, {"time": 4099, "pitch": 74, "duration": 12, "velocity": 76}, {"time": 4111, "pitch": 75, "duration": 40, "velocity": 60}, {"time": 4123, "pitch": 72, "duration": 19, "velocity": 53}, {"time": 4135, "pitch": 48, "duration": 43, "velocity": 42}, {"time": 4147, "pitch": 72, "duration": 11, "velocity": 48}, {"time": 4153, "pitch": 55, "duration": 31, "velocity": 31}, {"time": 4159, "pitch": 74, "duration": 12, "velocity": 50}, {"time": 4171, "pitch": 75, "duration": 33, "velocity": 48}, {"time": 4183, "pitch": 48, "duration": 46, "velocity": 39}, {"time": 4183, "pitch": 72, "duration": 21, "velocity": 30}, {"time": 4189, "pitch": 55, "duration": 129, "velocity": 37}, {"time": 4195, "pitch": 60, "duration": 122, "velocity": 40}, {"time": 4207, "pitch": 74, "duration": 13, "velocity": 34}, {"time": 4219, "pitch": 75, "duration": 37, "velocity": 52}, {"time": 4225, "pitch": 67, "duration": 95, "velocity": 1}, {"time": 4231, "pitch": 48, "duration": 86, "velocity": 42}, {"time": 4231, "pitch": 72, "duration": 86, "velocity": 25}], "annotations": [{"time": 44, "annotation": {"number": 64, "value": 127}, "group": "control_change"}, {"time": 89, "annotation": {"number": 64, "value": 0}, "group": "control_change"}, {"time": 91, "annotation": {"number": 64, "value": 127}, "group": "control_change"}, {"time": 137, "annotation": {"number": 64, "value": 0}, "group": "control_change"}, {"time": 139, "annotation": {"number": 64, "value": 127}, "group": "control_change"}, {"time": 185, "annotation": {"number": 64, "value": 0}, "group": "control_change"}, {"time": 187, "annotation": {"number": 64, "value": 127}, "group": "control_change"}, {"time": 233, "annotation": {"number": 64, "value": 0}, "group": "control_change"}, {"time": 235, "annotation": {"number": 64, "value": 127}, "group": "control_change"}, {"time": 258, "annotation": {"number": 64, "value": 0}, "group": "control_change"}, {"time": 260, "annotation": {"number": 64, "value": 127}, "group": "control_change"}, {"time": 281, "annotation": {"number": 64, "value": 0}, "group": "control_change"}, {"time": 283, "annotation": {"number": 64, "value": 127}, "group": "control_change"}, {"time": 305, "annotation": {"number": 64, "value": 0}, "group": "control_change"}, {"time": 307, "annotation": {"number": 64, "value": 127}, "group": "control_change"}, {"time": 329, "annotation": {"number": 64, "value": 0}, "group": "control_change"}, {"time": 332, "annotation": {"number": 64, "value": 127}, "group": "control_change"}, {"time": 353, "annotation": {"number": 64, "value": 0}, "group": "control_change"}, {"time": 355, "annotation": {"number": 64, "value": 127}, "group": "control_change"}, {"time": 377, "annotation": {"number": 64, "value": 0}, "group": "control_change"}, {"time": 379, "annotation": {"number": 64, "value": 127}, "group": "control_change"}, {"time": 425, "annotation": {"number": 64, "value": 0}, "group": "control_change"}, {"time": 427, "annotation": {"number": 64, "value": 127}, "group": "control_change"}, {"time": 472, "annotation": {"number": 64, "value": 0}, "group": "control_change"}, {"time": 475, "annotation": {"number": 64, "value": 127}, "group": "control_change"}, {"time": 496, "annotation": {"number": 64, "value": 0}, "group": "control_change"}, {"time": 501, "annotation": {"number": 64, "value": 127}, "group": "control_change"}, {"time": 521, "annotation": {"number": 64, "value": 0}, "group": "control_change"}, {"time": 523, "annotation": {"number": 64, "value": 127}, "group": "control_change"}, {"time": 544, "annotation": {"number": 64, "value": 0}, "group": "control_change"}, {"time": 546, "annotation": {"number": 64, "value": 127}, "group": "control_change"}, {"time": 569, "annotation": {"number": 64, "value": 0}, "group": "control_change"}, {"time": 571, "annotation": {"number": 64, "value": 127}, "group": "control_change"}, {"time": 593, "annotation": {"number": 64, "value": 0}, "group": "control_change"}, {"time": 595, "annotation": {"number": 64, "value": 127}, "group": "control_change"}, {"time": 617, "annotation": {"number": 64, "value": 0}, "group": "control_change"}, {"time": 619, "annotation": {"number": 64, "value": 127}, "group": "control_change"}, {"time": 641, "annotation": {"number": 64, "value": 0}, "group": "control_change"}, {"time": 643, "annotation": {"number": 64, "value": 127}, "group": "control_change"}, {"time": 664, "annotation": {"number": 64, "value": 0}, "group": "control_change"}, {"time": 666, "annotation": {"number": 64, "value": 127}, "group": "control_change"}, {"time": 690, "annotation": {"number": 64, "value": 0}, "group": "control_change"}, {"time": 691, "annotation": {"number": 64, "value": 127}, "group": "control_change"}, {"time": 713, "annotation": {"number": 64, "value": 0}, "group": "control_change"}, {"time": 715, "annotation": {"number": 64, "value": 127}, "group": "control_change"}, {"time": 737, "annotation": {"number": 64, "value": 0}, "group": "control_change"}, {"time": 739, "annotation": {"number": 64, "value": 127}, "group": "control_change"}, {"time": 740, "annotation": {"number": 64, "value": 127}, "group": "control_change"}, {"time": 759, "annotation": {"number": 64, "value": 0}, "group": "control_change"}, {"time": 763, "annotation": {"number": 64, "value": 127}, "group": "control_change"}, {"time": 785, "annotation": {"number": 64, "value": 0}, "group": "control_change"}, {"time": 788, "annotation": {"number": 64, "value": 127}, "group": "control_change"}, {"time": 809, "annotation": {"number": 64, "value": 0}, "group": "control_change"}, {"time": 811, "annotation": {"number": 64, "value": 127}, "group": "control_change"}, {"time": 834, "annotation": {"number": 64, "value": 0}, "group": "control_change"}, {"time": 836, "annotation": {"number": 64, "value": 127}, "group": "control_change"}, {"time": 856, "annotation": {"number": 64, "value": 0}, "group": "control_change"}, {"time": 859, "annotation": {"number": 64, "value": 127}, "group": "control_change"}, {"time": 880, "annotation": {"number": 64, "value": 0}, "group": "control_change"}, {"time": 885, "annotation": {"number": 64, "value": 127}, "group": "control_change"}, {"time": 905, "annotation": {"number": 64, "value": 0}, "group": "control_change"}, {"time": 907, "annotation": {"number": 64, "value": 127}, "group": "control_change"}, {"time": 928, "annotation": {"number": 64, "value": 0}, "group": "control_change"}, {"time": 930, "annotation": {"number": 64, "value": 127}, "group": "control_change"}, {"time": 953, "annotation": {"number": 64, "value": 0}, "group": "control_change"}, {"time": 955, "annotation": {"number": 64, "value": 127}, "group": "control_change"}, {"time": 977, "annotation": {"number": 64, "value": 0}, "group": "control_change"}, {"time": 979, "annotation": {"number": 64, "value": 127}, "group": "control_change"}, {"time": 1001, "annotation": {"number": 64, "value": 0}, "group": "control_change"}, {"time": 1003, "annotation": {"number": 64, "value": 127}, "group": "control_change"}, {"time": 1025, "annotation": {"number": 64, "value": 0}, "group": "control_change"}, {"time": 1027, "annotation": {"number": 64, "value": 127}, "group": "control_change"}, {"time": 1048, "annotation": {"number": 64, "value": 0}, "group": "control_change"}, {"time": 1050, "annotation": {"number": 64, "value": 127}, "group": "control_change"}, {"time": 1074, "annotation": {"number": 64, "value": 0}, "group": "control_change"}, {"time": 1075, "annotation": {"number": 64, "value": 127}, "group": "control_change"}, {"time": 1097, "annotation": {"number": 64, "value": 0}, "group": "control_change"}, {"time": 1099, "annotation": {"number": 64, "value": 127}, "group": "control_change"}, {"time": 1121, "annotation": {"number": 64, "value": 0}, "group": "control_change"}, {"time": 1123, "annotation": {"number": 64, "value": 127}, "group": "control_change"}, {"time": 1124, "annotation": {"number": 64, "value": 127}, "group": "control_change"}, {"time": 1143, "annotation": {"number": 64, "value": 0}, "group": "control_change"}, {"time": 1147, "annotation": {"number": 64, "value": 127}, "group": "control_change"}, {"time": 1169, "annotation": {"number": 64, "value": 0}, "group": "control_change"}, {"time": 1171, "annotation": {"number": 64, "value": 127}, "group": "control_change"}, {"time": 1192, "annotation": {"number": 64, "value": 0}, "group": "control_change"}, {"time": 1195, "annotation": {"number": 64, "value": 127}, "group": "control_change"}, {"time": 1218, "annotation": {"number": 64, "value": 0}, "group": "control_change"}, {"time": 1220, "annotation": {"number": 64, "value": 127}, "group": "control_change"}, {"time": 1241, "annotation": {"number": 64, "value": 0}, "group": "control_change"}, {"time": 1244, "annotation": {"number": 64, "value": 127}, "group": "control_change"}, {"time": 1265, "annotation": {"number": 64, "value": 0}, "group": "control_change"}, {"time": 1267, "annotation": {"number": 64, "value": 127}, "group": "control_change"}, {"time": 1289, "annotation": {"number": 64, "value": 0}, "group": "control_change"}, {"time": 1291, "annotation": {"number": 64, "value": 127}, "group": "control_change"}, {"time": 1313, "annotation": {"number": 64, "value": 0}, "group": "control_change"}, {"time": 1315, "annotation": {"number": 64, "value": 127}, "group": "control_change"}, {"time": 1337, "annotation": {"number": 64, "value": 0}, "group": "control_change"}, {"time": 1339, "annotation": {"number": 64, "value": 127}, "group": "control_change"}, {"time": 1361, "annotation": {"number": 64, "value": 0}, "group": "control_change"}, {"time": 1363, "annotation": {"number": 64, "value": 127}, "group": "control_change"}, {"time": 1364, "annotation": {"number": 64, "value": 127}, "group": "control_change"}, {"time": 1385, "annotation": {"number": 64, "value": 0}, "group": "control_change"}, {"time": 1388, "annotation": {"number": 64, "value": 127}, "group": "control_change"}, {"time": 1409, "annotation": {"number": 64, "value": 0}, "group": "control_change"}, {"time": 1412, "annotation": {"number": 64, "value": 127}, "group": "control_change"}, {"time": 1433, "annotation": {"number": 64, "value": 0}, "group": "control_change"}, {"time": 1435, "annotation": {"number": 64, "value": 127}, "group": "control_change"}, {"time": 1457, "annotation": {"number": 64, "value": 0}, "group": "control_change"}, {"time": 1459, "annotation": {"number": 64, "value": 127}, "group": "control_change"}, {"time": 1481, "annotation": {"number": 64, "value": 0}, "group": "control_change"}, {"time": 1483, "annotation": {"number": 64, "value": 127}, "group": "control_change"}, {"time": 1505, "annotation": {"number": 64, "value": 0}, "group": "control_change"}, {"time": 1507, "annotation": {"number": 64, "value": 127}, "group": "control_change"}, {"time": 1519, "annotation": {"number": 64, "value": 0}, "group": "control_change"}, {"time": 1523, "annotation": {"number": 64, "value": 127}, "group": "control_change"}, {"time": 1528, "annotation": {"number": 64, "value": 0}, "group": "control_change"}, {"time": 1531, "annotation": {"number": 64, "value": 127}, "group": "control_change"}, {"time": 1552, "annotation": {"number": 64, "value": 0}, "group": "control_change"}, {"time": 1554, "annotation": {"number": 64, "value": 127}, "group": "control_change"}, {"time": 1577, "annotation": {"number": 64, "value": 0}, "group": "control_change"}, {"time": 1579, "annotation": {"number": 64, "value": 127}, "group": "control_change"}, {"time": 1601, "annotation": {"number": 64, "value": 0}, "group": "control_change"}, {"time": 1603, "annotation": {"number": 64, "value": 127}, "group": "control_change"}, {"time": 1625, "annotation": {"number": 64, "value": 0}, "group": "control_change"}, {"time": 1628, "annotation": {"number": 64, "value": 127}, "group": "control_change"}, {"time": 1650, "annotation": {"number": 64, "value": 0}, "group": "control_change"}, {"time": 1652, "annotation": {"number": 64, "value": 127}, "group": "control_change"}, {"time": 1672, "annotation": {"number": 64, "value": 0}, "group": "control_change"}, {"time": 1676, "annotation": {"number": 64, "value": 127}, "group": "control_change"}, {"time": 1698, "annotation": {"number": 64, "value": 0}, "group": "control_change"}, {"time": 1700, "annotation": {"number": 64, "value": 127}, "group": "control_change"}, {"time": 1721, "annotation": {"number": 64, "value": 0}, "group": "control_change"}, {"time": 1723, "annotation": {"number": 64, "value": 127}, "group": "control_change"}, {"time": 1770, "annotation": {"number": 64, "value": 0}, "group": "control_change"}, {"time": 1772, "annotation": {"number": 64, "value": 127}, "group": "control_change"}, {"time": 1794, "annotation": {"number": 64, "value": 0}, "group": "control_change"}, {"time": 1795, "annotation": {"number": 64, "value": 127}, "group": "control_change"}, {"time": 1817, "annotation": {"number": 64, "value": 0}, "group": "control_change"}, {"time": 1819, "annotation": {"number": 64, "value": 127}, "group": "control_change"}, {"time": 1863, "annotation": {"number": 64, "value": 0}, "group": "control_change"}, {"time": 1867, "annotation": {"number": 64, "value": 127}, "group": "control_change"}, {"time": 1889, "annotation": {"number": 64, "value": 0}, "group": "control_change"}, {"time": 1891, "annotation": {"number": 64, "value": 127}, "group": "control_change"}, {"time": 1913, "annotation": {"number": 64, "value": 0}, "group": "control_change"}, {"time": 1915, "annotation": {"number": 64, "value": 127}, "group": "control_change"}, {"time": 1937, "annotation": {"number": 64, "value": 0}, "group": "control_change"}, {"time": 1940, "annotation": {"number": 64, "value": 127}, "group": "control_change"}, {"time": 1962, "annotation": {"number": 64, "value": 0}, "group": "control_change"}, {"time": 1964, "annotation": {"number": 64, "value": 127}, "group": "control_change"}, {"time": 1985, "annotation": {"number": 64, "value": 0}, "group": "control_change"}, {"time": 1987, "annotation": {"number": 64, "value": 127}, "group": "control_change"}, {"time": 2010, "annotation": {"number": 64, "value": 0}, "group": "control_change"}, {"time": 2012, "annotation": {"number": 64, "value": 127}, "group": "control_change"}, {"time": 2057, "annotation": {"number": 64, "value": 0}, "group": "control_change"}, {"time": 2059, "annotation": {"number": 64, "value": 127}, "group": "control_change"}, {"time": 2083, "annotation": {"number": 64, "value": 0}, "group": "control_change"}, {"time": 2107, "annotation": {"number": 64, "value": 127}, "group": "control_change"}, {"time": 2128, "annotation": {"number": 64, "value": 0}, "group": "control_change"}, {"time": 2133, "annotation": {"number": 64, "value": 127}, "group": "control_change"}, {"time": 2153, "annotation": {"number": 64, "value": 0}, "group": "control_change"}, {"time": 2155, "annotation": {"number": 64, "value": 127}, "group": "control_change"}, {"time": 2176, "annotation": {"number": 64, "value": 0}, "group": "control_change"}, {"time": 2178, "annotation": {"number": 64, "value": 127}, "group": "control_change"}, {"time": 2201, "annotation": {"number": 64, "value": 0}, "group": "control_change"}, {"time": 2203, "annotation": {"number": 64, "value": 127}, "group": "control_change"}, {"time": 2225, "annotation": {"number": 64, "value": 0}, "group": "control_change"}, {"time": 2227, "annotation": {"number": 64, "value": 127}, "group": "control_change"}, {"time": 2249, "annotation": {"number": 64, "value": 0}, "group": "control_change"}, {"time": 2251, "annotation": {"number": 64, "value": 127}, "group": "control_change"}, {"time": 2273, "annotation": {"number": 64, "value": 0}, "group": "control_change"}, {"time": 2275, "annotation": {"number": 64, "value": 127}, "group": "control_change"}, {"time": 2296, "annotation": {"number": 64, "value": 0}, "group": "control_change"}, {"time": 2298, "annotation": {"number": 64, "value": 127}, "group": "control_change"}, {"time": 2322, "annotation": {"number": 64, "value": 0}, "group": "control_change"}, {"time": 2323, "annotation": {"number": 64, "value": 127}, "group": "control_change"}, {"time": 2345, "annotation": {"number": 64, "value": 0}, "group": "control_change"}, {"time": 2347, "annotation": {"number": 64, "value": 127}, "group": "control_change"}, {"time": 2369, "annotation": {"number": 64, "value": 0}, "group": "control_change"}, {"time": 2371, "annotation": {"number": 64, "value": 127}, "group": "control_change"}, {"time": 2372, "annotation": {"number": 64, "value": 127}, "group": "control_change"}, {"time": 2391, "annotation": {"number": 64, "value": 0}, "group": "control_change"}, {"time": 2395, "annotation": {"number": 64, "value": 127}, "group": "control_change"}, {"time": 2417, "annotation": {"number": 64, "value": 0}, "group": "control_change"}, {"time": 2420, "annotation": {"number": 64, "value": 127}, "group": "control_change"}, {"time": 2441, "annotation": {"number": 64, "value": 0}, "group": "control_change"}, {"time": 2443, "annotation": {"number": 64, "value": 127}, "group": "control_change"}, {"time": 2466, "annotation": {"number": 64, "value": 0}, "group": "control_change"}, {"time": 2468, "annotation": {"number": 64, "value": 127}, "group": "control_change"}, {"time": 2488, "annotation": {"number": 64, "value": 0}, "group": "control_change"}, {"time": 2491, "annotation": {"number": 64, "value": 127}, "group": "control_change"}, {"time": 2512, "annotation": {"number": 64, "value": 0}, "group": "control_change"}, {"time": 2517, "annotation": {"number": 64, "value": 127}, "group": "control_change"}, {"time": 2537, "annotation": {"number": 64, "value": 0}, "group": "control_change"}, {"time": 2539, "annotation": {"number": 64, "value": 127}, "group": "control_change"}, {"time": 2560, "annotation": {"number": 64, "value": 0}, "group": "control_change"}, {"time": 2562, "annotation": {"number": 64, "value": 127}, "group": "control_change"}, {"time": 2585, "annotation": {"number": 64, "value": 0}, "group": "control_change"}, {"time": 2587, "annotation": {"number": 64, "value": 127}, "group": "control_change"}, {"time": 2609, "annotation": {"number": 64, "value": 0}, "group": "control_change"}, {"time": 2611, "annotation": {"number": 64, "value": 127}, "group": "control_change"}, {"time": 2633, "annotation": {"number": 64, "value": 0}, "group": "control_change"}, {"time": 2635, "annotation": {"number": 64, "value": 127}, "group": "control_change"}, {"time": 2657, "annotation": {"number": 64, "value": 0}, "group": "control_change"}, {"time": 2659, "annotation": {"number": 64, "value": 127}, "group": "control_change"}, {"time": 2680, "annotation": {"number": 64, "value": 0}, "group": "control_change"}, {"time": 2682, "annotation": {"number": 64, "value": 127}, "group": "control_change"}, {"time": 2706, "annotation": {"number": 64, "value": 0}, "group": "control_change"}, {"time": 2707, "annotation": {"number": 64, "value": 127}, "group": "control_change"}, {"time": 2729, "annotation": {"number": 64, "value": 0}, "group": "control_change"}, {"time": 2731, "annotation": {"number": 64, "value": 127}, "group": "control_change"}, {"time": 2753, "annotation": {"number": 64, "value": 0}, "group": "control_change"}, {"time": 2755, "annotation": {"number": 64, "value": 127}, "group": "control_change"}, {"time": 2756, "annotation": {"number": 64, "value": 127}, "group": "control_change"}, {"time": 2775, "annotation": {"number": 64, "value": 0}, "group": "control_change"}, {"time": 2779, "annotation": {"number": 64, "value": 127}, "group": "control_change"}, {"time": 2801, "annotation": {"number": 64, "value": 0}, "group": "control_change"}, {"time": 2803, "annotation": {"number": 64, "value": 127}, "group": "control_change"}, {"time": 2824, "annotation": {"number": 64, "value": 0}, "group": "control_change"}, {"time": 2827, "annotation": {"number": 64, "value": 127}, "group": "control_change"}, {"time": 2850, "annotation": {"number": 64, "value": 0}, "group": "control_change"}, {"time": 2852, "annotation": {"number": 64, "value": 127}, "group": "control_change"}, {"time": 2873, "annotation": {"number": 64, "value": 0}, "group": "control_change"}, {"time": 2876, "annotation": {"number": 64, "value": 127}, "group": "control_change"}, {"time": 2897, "annotation": {"number": 64, "value": 0}, "group": "control_change"}, {"time": 2899, "annotation": {"number": 64, "value": 127}, "group": "control_change"}, {"time": 2921, "annotation": {"number": 64, "value": 0}, "group": "control_change"}, {"time": 2923, "annotation": {"number": 64, "value": 127}, "group": "control_change"}, {"time": 2945, "annotation": {"number": 64, "value": 0}, "group": "control_change"}, {"time": 2947, "annotation": {"number": 64, "value": 127}, "group": "control_change"}, {"time": 2969, "annotation": {"number": 64, "value": 0}, "group": "control_change"}, {"time": 2971, "annotation": {"number": 64, "value": 127}, "group": "control_change"}, {"time": 2993, "annotation": {"number": 64, "value": 0}, "group": "control_change"}, {"time": 2995, "annotation": {"number": 64, "value": 127}, "group": "control_change"}, {"time": 2996, "annotation": {"number": 64, "value": 127}, "group": "control_change"}, {"time": 3017, "annotation": {"number": 64, "value": 0}, "group": "control_change"}, {"time": 3020, "annotation": {"number": 64, "value": 127}, "group": "control_change"}, {"time": 3041, "annotation": {"number": 64, "value": 0}, "group": "control_change"}, {"time": 3044, "annotation": {"number": 64, "value": 127}, "group": "control_change"}, {"time": 3065, "annotation": {"number": 64, "value": 0}, "group": "control_change"}, {"time": 3067, "annotation": {"number": 64, "value": 127}, "group": "control_change"}, {"time": 3089, "annotation": {"number": 64, "value": 0}, "group": "control_change"}, {"time": 3091, "annotation": {"number": 64, "value": 127}, "group": "control_change"}, {"time": 3113, "annotation": {"number": 64, "value": 0}, "group": "control_change"}, {"time": 3115, "annotation": {"number": 64, "value": 127}, "group": "control_change"}, {"time": 3137, "annotation": {"number": 64, "value": 0}, "group": "control_change"}, {"time": 3139, "annotation": {"number": 64, "value": 127}, "group": "control_change"}, {"time": 3151, "annotation": {"number": 64, "value": 0}, "group": "control_change"}, {"time": 3155, "annotation": {"number": 64, "value": 127}, "group": "control_change"}, {"time": 3160, "annotation": {"number": 64, "value": 0}, "group": "control_change"}, {"time": 3163, "annotation": {"number": 64, "value": 127}, "group": "control_change"}, {"time": 3184, "annotation": {"number": 64, "value": 0}, "group": "control_change"}, {"time": 3186, "annotation": {"number": 64, "value": 127}, "group": "control_change"}, {"time": 3209, "annotation": {"number": 64, "value": 0}, "group": "control_change"}, {"time": 3211, "annotation": {"number": 64, "value": 127}, "group": "control_change"}, {"time": 3233, "annotation": {"number": 64, "value": 0}, "group": "control_change"}, {"time": 3235, "annotation": {"number": 64, "value": 127}, "group": "control_change"}, {"time": 3257, "annotation": {"number": 64, "value": 0}, "group": "control_change"}, {"time": 3260, "annotation": {"number": 64, "value": 127}, "group": "control_change"}, {"time": 3282, "annotation": {"number": 64, "value": 0}, "group": "control_change"}, {"time": 3284, "annotation": {"number": 64, "value": 127}, "group": "control_change"}, {"time": 3304, "annotation": {"number": 64, "value": 0}, "group": "control_change"}, {"time": 3308, "annotation": {"number": 64, "value": 127}, "group": "control_change"}, {"time": 3353, "annotation": {"number": 64, "value": 0}, "group": "control_change"}, {"time": 3355, "annotation": {"number": 64, "value": 127}, "group": "control_change"}, {"time": 3360, "annotation": {"number": 64, "value": 0}, "group": "control_change"}, {"time": 3391, "annotation": {"number": 64, "value": 127}, "group": "control_change"}, {"time": 3396, "annotation": {"number": 64, "value": 0}, "group": "control_change"}, {"time": 3406, "annotation": {"number": 64, "value": 127}, "group": "control_change"}, {"time": 3408, "annotation": {"number": 64, "value": 0}, "group": "control_change"}, {"time": 3425, "annotation": {"number": 64, "value": 127}, "group": "control_change"}, {"time": 3426, "annotation": {"number": 64, "value": 0}, "group": "control_change"}, {"time": 3452, "annotation": {"number": 64, "value": 127}, "group": "control_change"}, {"time": 3473, "annotation": {"number": 64, "value": 0}, "group": "control_change"}, {"time": 3475, "annotation": {"number": 64, "value": 127}, "group": "control_change"}, {"time": 3497, "annotation": {"number": 64, "value": 0}, "group": "control_change"}, {"time": 3499, "annotation": {"number": 64, "value": 127}, "group": "control_change"}, {"time": 3521, "annotation": {"number": 64, "value": 0}, "group": "control_change"}, {"time": 3523, "annotation": {"number": 64, "value": 127}, "group": "control_change"}, {"time": 3545, "annotation": {"number": 64, "value": 0}, "group": "control_change"}, {"time": 3547, "annotation": {"number": 64, "value": 127}, "group": "control_change"}, {"time": 3569, "annotation": {"number": 64, "value": 0}, "group": "control_change"}, {"time": 3571, "annotation": {"number": 64, "value": 127}, "group": "control_change"}, {"time": 3572, "annotation": {"number": 64, "value": 127}, "group": "control_change"}, {"time": 3593, "annotation": {"number": 64, "value": 0}, "group": "control_change"}, {"time": 3596, "annotation": {"number": 64, "value": 127}, "group": "control_change"}, {"time": 3617, "annotation": {"number": 64, "value": 0}, "group": "control_change"}, {"time": 3620, "annotation": {"number": 64, "value": 127}, "group": "control_change"}, {"time": 3641, "annotation": {"number": 64, "value": 0}, "group": "control_change"}, {"time": 3643, "annotation": {"number": 64, "value": 127}, "group": "control_change"}, {"time": 3665, "annotation": {"number": 64, "value": 0}, "group": "control_change"}, {"time": 3667, "annotation": {"number": 64, "value": 127}, "group": "control_change"}, {"time": 3689, "annotation": {"number": 64, "value": 0}, "group": "control_change"}, {"time": 3691, "annotation": {"number": 64, "value": 127}, "group": "control_change"}, {"time": 3713, "annotation": {"number": 64, "value": 0}, "group": "control_change"}, {"time": 3715, "annotation": {"number": 64, "value": 127}, "group": "control_change"}, {"time": 3727, "annotation": {"number": 64, "value": 0}, "group": "control_change"}, {"time": 3731, "annotation": {"number": 64, "value": 127}, "group": "control_change"}, {"time": 3736, "annotation": {"number": 64, "value": 0}, "group": "control_change"}, {"time": 3739, "annotation": {"number": 64, "value": 127}, "group": "control_change"}, {"time": 3760, "annotation": {"number": 64, "value": 0}, "group": "control_change"}, {"time": 3762, "annotation": {"number": 64, "value": 127}, "group": "control_change"}, {"time": 3785, "annotation": {"number": 64, "value": 0}, "group": "control_change"}, {"time": 3787, "annotation": {"number": 64, "value": 127}, "group": "control_change"}, {"time": 3809, "annotation": {"number": 64, "value": 0}, "group": "control_change"}, {"time": 3811, "annotation": {"number": 64, "value": 127}, "group": "control_change"}, {"time": 3833, "annotation": {"number": 64, "value": 0}, "group": "control_change"}, {"time": 3836, "annotation": {"number": 64, "value": 127}, "group": "control_change"}, {"time": 3858, "annotation": {"number": 64, "value": 0}, "group": "control_change"}, {"time": 3860, "annotation": {"number": 64, "value": 127}, "group": "control_change"}, {"time": 3880, "annotation": {"number": 64, "value": 0}, "group": "control_change"}, {"time": 3887, "annotation": {"number": 64, "value": 127}, "group": "control_change"}, {"time": 3928, "annotation": {"number": 64, "value": 0}, "group": "control_change"}, {"time": 3933, "annotation": {"number": 64, "value": 127}, "group": "control_change"}, {"time": 3977, "annotation": {"number": 64, "value": 0}, "group": "control_change"}, {"time": 3980, "annotation": {"number": 64, "value": 127}, "group": "control_change"}, {"time": 4024, "annotation": {"number": 64, "value": 0}, "group": "control_change"}, {"time": 4028, "annotation": {"number": 64, "value": 127}, "group": "control_change"}, {"time": 4075, "annotation": {"number": 64, "value": 0}, "group": "control_change"}, {"time": 4088, "annotation": {"number": 64, "value": 127}, "group": "control_change"}, {"time": 4134, "annotation": {"number": 64, "value": 0}, "group": "control_change"}, {"time": 4135, "annotation": {"number": 64, "value": 127}, "group": "control_change"}, {"time": 4181, "annotation": {"number": 64, "value": 0}, "group": "control_change"}, {"time": 4185, "annotation": {"number": 64, "value": 127}, "group": "control_change"}, {"time": 4297, "annotation": {"number": 64, "value": 0}, "group": "control_change"}, {"time": 4302, "annotation": {"number": 64, "value": 127}, "group": "control_change"}, {"time": 4304, "annotation": {"number": 64, "value": 0}, "group": "control_change"}, {"time": 4316, "annotation": {"number": 64, "value": 127}, "group": "control_change"}, {"time": 4322, "annotation": {"number": 64, "value": 0}, "group": "control_change"}]}]}