{"metadata": {"schema_version": "0.2", "title": "None", "source_filename": "384.mid", "source_format": "midi"}, "resolution": 12, "tempos": [{"time": 0, "qpm": 82.00014760026568}], "time_signatures": [{"time": 0, "numerator": 1, "denominator": 4}], "tracks": [{"program": 0, "is_drum": false, "name": "MELODY", "notes": [{"time": 98, "pitch": 69, "duration": 24, "velocity": 117}, {"time": 122, "pitch": 67, "duration": 19, "velocity": 112}, {"time": 146, "pitch": 65, "duration": 24, "velocity": 112}, {"time": 194, "pitch": 65, "duration": 24, "velocity": 102}, {"time": 218, "pitch": 64, "duration": 19, "velocity": 99}, {"time": 236, "pitch": 65, "duration": 7, "velocity": 95}, {"time": 242, "pitch": 62, "duration": 39, "velocity": 92}, {"time": 470, "pitch": 62, "duration": 5, "velocity": 96}, {"time": 476, "pitch": 64, "duration": 5, "velocity": 93}, {"time": 482, "pitch": 65, "duration": 11, "velocity": 107}, {"time": 494, "pitch": 57, "duration": 5, "velocity": 107}, {"time": 500, "pitch": 65, "duration": 5, "velocity": 99}, {"time": 506, "pitch": 64, "duration": 7, "velocity": 99}, {"time": 518, "pitch": 62, "duration": 5, "velocity": 102}, {"time": 524, "pitch": 60, "duration": 5, "velocity": 85}, {"time": 530, "pitch": 62, "duration": 11, "velocity": 100}, {"time": 542, "pitch": 60, "duration": 5, "velocity": 99}, {"time": 548, "pitch": 62, "duration": 6, "velocity": 96}, {"time": 554, "pitch": 57, "duration": 7, "velocity": 97}, {"time": 566, "pitch": 62, "duration": 5, "velocity": 102}, {"time": 572, "pitch": 64, "duration": 6, "velocity": 93}, {"time": 578, "pitch": 65, "duration": 7, "velocity": 117}, {"time": 590, "pitch": 57, "duration": 5, "velocity": 112}, {"time": 596, "pitch": 65, "duration": 6, "velocity": 112}, {"time": 602, "pitch": 64, "duration": 8, "velocity": 112}, {"time": 614, "pitch": 62, "duration": 6, "velocity": 122}, {"time": 620, "pitch": 60, "duration": 5, "velocity": 93}, {"time": 626, "pitch": 62, "duration": 5, "velocity": 97}, {"time": 632, "pitch": 65, "duration": 5, "velocity": 95}, {"time": 638, "pitch": 64, "duration": 4, "velocity": 100}, {"time": 644, "pitch": 60, "duration": 5, "velocity": 92}, {"time": 650, "pitch": 62, "duration": 10, "velocity": 102}, {"time": 662, "pitch": 62, "duration": 5, "velocity": 96}, {"time": 668, "pitch": 64, "duration": 5, "velocity": 93}, {"time": 674, "pitch": 65, "duration": 11, "velocity": 107}, {"time": 686, "pitch": 57, "duration": 5, "velocity": 107}, {"time": 692, "pitch": 65, "duration": 5, "velocity": 99}, {"time": 698, "pitch": 64, "duration": 7, "velocity": 99}, {"time": 710, "pitch": 62, "duration": 5, "velocity": 102}, {"time": 716, "pitch": 60, "duration": 5, "velocity": 85}, {"time": 722, "pitch": 62, "duration": 11, "velocity": 100}, {"time": 734, "pitch": 60, "duration": 5, "velocity": 99}, {"time": 740, "pitch": 62, "duration": 6, "velocity": 96}, {"time": 746, "pitch": 57, "duration": 7, "velocity": 97}, {"time": 758, "pitch": 62, "duration": 5, "velocity": 102}, {"time": 764, "pitch": 64, "duration": 6, "velocity": 93}, {"time": 770, "pitch": 65, "duration": 7, "velocity": 117}, {"time": 782, "pitch": 67, "duration": 6, "velocity": 117}, {"time": 788, "pitch": 69, "duration": 5, "velocity": 96}, {"time": 794, "pitch": 64, "duration": 8, "velocity": 102}, {"time": 806, "pitch": 62, "duration": 6, "velocity": 122}, {"time": 812, "pitch": 60, "duration": 5, "velocity": 93}, {"time": 818, "pitch": 62, "duration": 5, "velocity": 97}, {"time": 824, "pitch": 65, "duration": 5, "velocity": 95}, {"time": 830, "pitch": 64, "duration": 4, "velocity": 100}, {"time": 836, "pitch": 60, "duration": 5, "velocity": 92}, {"time": 842, "pitch": 62, "duration": 10, "velocity": 102}, {"time": 854, "pitch": 65, "duration": 5, "velocity": 107}, {"time": 860, "pitch": 67, "duration": 4, "velocity": 112}, {"time": 866, "pitch": 69, "duration": 6, "velocity": 122}, {"time": 872, "pitch": 72, "duration": 4, "velocity": 93}, {"time": 878, "pitch": 69, "duration": 7, "velocity": 102}, {"time": 884, "pitch": 65, "duration": 5, "velocity": 73}, {"time": 890, "pitch": 67, "duration": 6, "velocity": 127}, {"time": 902, "pitch": 64, "duration": 4, "velocity": 112}, {"time": 908, "pitch": 62, "duration": 4, "velocity": 102}, {"time": 914, "pitch": 60, "duration": 4, "velocity": 107}, {"time": 920, "pitch": 57, "duration": 5, "velocity": 117}, {"time": 926, "pitch": 67, "duration": 5, "velocity": 122}, {"time": 932, "pitch": 69, "duration": 4, "velocity": 112}, {"time": 938, "pitch": 65, "duration": 7, "velocity": 127}, {"time": 950, "pitch": 62, "duration": 4, "velocity": 117}, {"time": 956, "pitch": 64, "duration": 4, "velocity": 107}, {"time": 962, "pitch": 65, "duration": 5, "velocity": 117}, {"time": 974, "pitch": 67, "duration": 5, "velocity": 127}, {"time": 980, "pitch": 69, "duration": 4, "velocity": 117}, {"time": 986, "pitch": 64, "duration": 6, "velocity": 127}, {"time": 998, "pitch": 62, "duration": 5, "velocity": 100}, {"time": 1004, "pitch": 64, "duration": 4, "velocity": 100}, {"time": 1010, "pitch": 65, "duration": 5, "velocity": 122}, {"time": 1016, "pitch": 65, "duration": 4, "velocity": 107}, {"time": 1022, "pitch": 65, "duration": 4, "velocity": 117}, {"time": 1028, "pitch": 67, "duration": 5, "velocity": 127}, {"time": 1034, "pitch": 69, "duration": 8, "velocity": 127}, {"time": 1046, "pitch": 65, "duration": 5, "velocity": 107}, {"time": 1052, "pitch": 67, "duration": 4, "velocity": 112}, {"time": 1058, "pitch": 69, "duration": 6, "velocity": 122}, {"time": 1064, "pitch": 72, "duration": 4, "velocity": 93}, {"time": 1070, "pitch": 69, "duration": 7, "velocity": 102}, {"time": 1076, "pitch": 65, "duration": 5, "velocity": 73}, {"time": 1082, "pitch": 67, "duration": 6, "velocity": 127}, {"time": 1094, "pitch": 64, "duration": 4, "velocity": 112}, {"time": 1100, "pitch": 62, "duration": 4, "velocity": 102}, {"time": 1106, "pitch": 60, "duration": 4, "velocity": 107}, {"time": 1112, "pitch": 57, "duration": 5, "velocity": 117}, {"time": 1118, "pitch": 67, "duration": 5, "velocity": 122}, {"time": 1124, "pitch": 69, "duration": 4, "velocity": 112}, {"time": 1130, "pitch": 65, "duration": 7, "velocity": 127}, {"time": 1142, "pitch": 62, "duration": 4, "velocity": 117}, {"time": 1148, "pitch": 64, "duration": 4, "velocity": 107}, {"time": 1154, "pitch": 65, "duration": 5, "velocity": 117}, {"time": 1166, "pitch": 67, "duration": 5, "velocity": 127}, {"time": 1172, "pitch": 69, "duration": 4, "velocity": 117}, {"time": 1178, "pitch": 64, "duration": 6, "velocity": 127}, {"time": 1190, "pitch": 62, "duration": 5, "velocity": 100}, {"time": 1196, "pitch": 60, "duration": 7, "velocity": 97}, {"time": 1208, "pitch": 62, "duration": 31, "velocity": 117}, {"time": 1622, "pitch": 62, "duration": 5, "velocity": 96}, {"time": 1628, "pitch": 64, "duration": 5, "velocity": 93}, {"time": 1634, "pitch": 65, "duration": 11, "velocity": 107}, {"time": 1646, "pitch": 57, "duration": 5, "velocity": 107}, {"time": 1652, "pitch": 65, "duration": 5, "velocity": 99}, {"time": 1658, "pitch": 64, "duration": 7, "velocity": 99}, {"time": 1670, "pitch": 62, "duration": 5, "velocity": 102}, {"time": 1676, "pitch": 60, "duration": 5, "velocity": 85}, {"time": 1682, "pitch": 62, "duration": 11, "velocity": 100}, {"time": 1694, "pitch": 60, "duration": 5, "velocity": 99}, {"time": 1700, "pitch": 62, "duration": 6, "velocity": 96}, {"time": 1706, "pitch": 57, "duration": 7, "velocity": 97}, {"time": 1718, "pitch": 62, "duration": 5, "velocity": 102}, {"time": 1724, "pitch": 64, "duration": 6, "velocity": 93}, {"time": 1730, "pitch": 65, "duration": 7, "velocity": 117}, {"time": 1742, "pitch": 57, "duration": 5, "velocity": 112}, {"time": 1748, "pitch": 65, "duration": 6, "velocity": 112}, {"time": 1754, "pitch": 64, "duration": 8, "velocity": 112}, {"time": 1766, "pitch": 62, "duration": 6, "velocity": 122}, {"time": 1772, "pitch": 60, "duration": 5, "velocity": 93}, {"time": 1778, "pitch": 62, "duration": 5, "velocity": 97}, {"time": 1784, "pitch": 65, "duration": 5, "velocity": 95}, {"time": 1790, "pitch": 64, "duration": 4, "velocity": 100}, {"time": 1796, "pitch": 60, "duration": 5, "velocity": 92}, {"time": 1802, "pitch": 62, "duration": 10, "velocity": 102}, {"time": 1814, "pitch": 62, "duration": 5, "velocity": 96}, {"time": 1820, "pitch": 64, "duration": 5, "velocity": 93}, {"time": 1826, "pitch": 65, "duration": 11, "velocity": 107}, {"time": 1838, "pitch": 57, "duration": 5, "velocity": 107}, {"time": 1844, "pitch": 65, "duration": 5, "velocity": 99}, {"time": 1850, "pitch": 64, "duration": 7, "velocity": 99}, {"time": 1862, "pitch": 62, "duration": 5, "velocity": 102}, {"time": 1868, "pitch": 60, "duration": 5, "velocity": 85}, {"time": 1874, "pitch": 62, "duration": 11, "velocity": 100}, {"time": 1886, "pitch": 60, "duration": 5, "velocity": 99}, {"time": 1892, "pitch": 62, "duration": 6, "velocity": 96}, {"time": 1898, "pitch": 57, "duration": 7, "velocity": 97}, {"time": 1910, "pitch": 62, "duration": 5, "velocity": 102}, {"time": 1916, "pitch": 64, "duration": 6, "velocity": 93}, {"time": 1922, "pitch": 65, "duration": 7, "velocity": 117}, {"time": 1934, "pitch": 67, "duration": 6, "velocity": 117}, {"time": 1940, "pitch": 69, "duration": 5, "velocity": 96}, {"time": 1946, "pitch": 64, "duration": 8, "velocity": 102}, {"time": 1958, "pitch": 62, "duration": 6, "velocity": 122}, {"time": 1964, "pitch": 60, "duration": 5, "velocity": 93}, {"time": 1970, "pitch": 62, "duration": 5, "velocity": 97}, {"time": 1976, "pitch": 65, "duration": 5, "velocity": 95}, {"time": 1982, "pitch": 64, "duration": 4, "velocity": 100}, {"time": 1988, "pitch": 60, "duration": 5, "velocity": 92}, {"time": 1994, "pitch": 62, "duration": 10, "velocity": 102}, {"time": 2006, "pitch": 65, "duration": 5, "velocity": 107}, {"time": 2012, "pitch": 67, "duration": 4, "velocity": 112}, {"time": 2018, "pitch": 69, "duration": 6, "velocity": 122}, {"time": 2024, "pitch": 72, "duration": 4, "velocity": 93}, {"time": 2030, "pitch": 69, "duration": 7, "velocity": 102}, {"time": 2036, "pitch": 65, "duration": 5, "velocity": 73}, {"time": 2042, "pitch": 67, "duration": 6, "velocity": 127}, {"time": 2054, "pitch": 64, "duration": 4, "velocity": 112}, {"time": 2060, "pitch": 62, "duration": 4, "velocity": 102}, {"time": 2066, "pitch": 60, "duration": 4, "velocity": 107}, {"time": 2072, "pitch": 57, "duration": 5, "velocity": 117}, {"time": 2078, "pitch": 67, "duration": 5, "velocity": 122}, {"time": 2084, "pitch": 69, "duration": 4, "velocity": 112}, {"time": 2090, "pitch": 65, "duration": 7, "velocity": 127}, {"time": 2102, "pitch": 62, "duration": 4, "velocity": 117}, {"time": 2108, "pitch": 64, "duration": 4, "velocity": 107}, {"time": 2114, "pitch": 65, "duration": 5, "velocity": 117}, {"time": 2126, "pitch": 67, "duration": 5, "velocity": 127}, {"time": 2132, "pitch": 69, "duration": 4, "velocity": 117}, {"time": 2138, "pitch": 64, "duration": 6, "velocity": 127}, {"time": 2150, "pitch": 62, "duration": 5, "velocity": 100}, {"time": 2156, "pitch": 64, "duration": 4, "velocity": 100}, {"time": 2162, "pitch": 65, "duration": 5, "velocity": 122}, {"time": 2168, "pitch": 65, "duration": 4, "velocity": 107}, {"time": 2174, "pitch": 65, "duration": 4, "velocity": 117}, {"time": 2180, "pitch": 67, "duration": 5, "velocity": 127}, {"time": 2186, "pitch": 69, "duration": 8, "velocity": 127}, {"time": 2198, "pitch": 65, "duration": 5, "velocity": 107}, {"time": 2204, "pitch": 67, "duration": 4, "velocity": 112}, {"time": 2210, "pitch": 69, "duration": 6, "velocity": 122}, {"time": 2216, "pitch": 72, "duration": 4, "velocity": 93}, {"time": 2222, "pitch": 69, "duration": 7, "velocity": 102}, {"time": 2228, "pitch": 65, "duration": 5, "velocity": 73}, {"time": 2234, "pitch": 67, "duration": 6, "velocity": 127}, {"time": 2246, "pitch": 64, "duration": 4, "velocity": 112}, {"time": 2252, "pitch": 62, "duration": 4, "velocity": 102}, {"time": 2258, "pitch": 60, "duration": 4, "velocity": 107}, {"time": 2264, "pitch": 57, "duration": 5, "velocity": 117}, {"time": 2270, "pitch": 67, "duration": 5, "velocity": 122}, {"time": 2276, "pitch": 69, "duration": 4, "velocity": 112}, {"time": 2282, "pitch": 65, "duration": 7, "velocity": 127}, {"time": 2294, "pitch": 62, "duration": 4, "velocity": 117}, {"time": 2300, "pitch": 64, "duration": 4, "velocity": 107}, {"time": 2306, "pitch": 65, "duration": 5, "velocity": 117}, {"time": 2318, "pitch": 67, "duration": 5, "velocity": 127}, {"time": 2324, "pitch": 69, "duration": 4, "velocity": 117}, {"time": 2330, "pitch": 64, "duration": 6, "velocity": 127}, {"time": 2342, "pitch": 62, "duration": 5, "velocity": 100}, {"time": 2348, "pitch": 60, "duration": 7, "velocity": 97}, {"time": 2360, "pitch": 62, "duration": 28, "velocity": 117}, {"time": 2390, "pitch": 65, "duration": 5, "velocity": 107}, {"time": 2396, "pitch": 67, "duration": 4, "velocity": 112}, {"time": 2402, "pitch": 69, "duration": 6, "velocity": 122}, {"time": 2408, "pitch": 72, "duration": 4, "velocity": 93}, {"time": 2414, "pitch": 69, "duration": 7, "velocity": 102}, {"time": 2420, "pitch": 65, "duration": 5, "velocity": 73}, {"time": 2426, "pitch": 67, "duration": 6, "velocity": 127}, {"time": 2438, "pitch": 64, "duration": 4, "velocity": 112}, {"time": 2444, "pitch": 62, "duration": 4, "velocity": 102}, {"time": 2450, "pitch": 60, "duration": 4, "velocity": 107}, {"time": 2456, "pitch": 57, "duration": 5, "velocity": 117}, {"time": 2462, "pitch": 67, "duration": 5, "velocity": 122}, {"time": 2468, "pitch": 69, "duration": 4, "velocity": 112}, {"time": 2474, "pitch": 65, "duration": 7, "velocity": 127}, {"time": 2486, "pitch": 62, "duration": 4, "velocity": 117}, {"time": 2492, "pitch": 64, "duration": 4, "velocity": 107}, {"time": 2498, "pitch": 65, "duration": 5, "velocity": 117}, {"time": 2510, "pitch": 67, "duration": 5, "velocity": 127}, {"time": 2516, "pitch": 69, "duration": 4, "velocity": 117}, {"time": 2522, "pitch": 64, "duration": 6, "velocity": 127}, {"time": 2534, "pitch": 62, "duration": 5, "velocity": 100}, {"time": 2540, "pitch": 64, "duration": 4, "velocity": 100}, {"time": 2546, "pitch": 65, "duration": 5, "velocity": 122}, {"time": 2552, "pitch": 65, "duration": 4, "velocity": 107}, {"time": 2558, "pitch": 65, "duration": 4, "velocity": 117}, {"time": 2564, "pitch": 67, "duration": 5, "velocity": 127}, {"time": 2570, "pitch": 69, "duration": 8, "velocity": 127}, {"time": 2582, "pitch": 65, "duration": 5, "velocity": 107}, {"time": 2588, "pitch": 67, "duration": 4, "velocity": 112}, {"time": 2594, "pitch": 69, "duration": 6, "velocity": 122}, {"time": 2600, "pitch": 72, "duration": 4, "velocity": 93}, {"time": 2606, "pitch": 69, "duration": 7, "velocity": 102}, {"time": 2612, "pitch": 65, "duration": 5, "velocity": 73}, {"time": 2618, "pitch": 67, "duration": 6, "velocity": 127}, {"time": 2630, "pitch": 64, "duration": 4, "velocity": 112}, {"time": 2636, "pitch": 62, "duration": 4, "velocity": 102}, {"time": 2642, "pitch": 60, "duration": 4, "velocity": 107}, {"time": 2648, "pitch": 57, "duration": 5, "velocity": 117}, {"time": 2654, "pitch": 67, "duration": 5, "velocity": 122}, {"time": 2660, "pitch": 69, "duration": 4, "velocity": 112}, {"time": 2666, "pitch": 65, "duration": 7, "velocity": 127}, {"time": 2678, "pitch": 62, "duration": 4, "velocity": 117}, {"time": 2684, "pitch": 64, "duration": 4, "velocity": 107}, {"time": 2690, "pitch": 65, "duration": 5, "velocity": 117}, {"time": 2702, "pitch": 67, "duration": 5, "velocity": 127}, {"time": 2708, "pitch": 69, "duration": 4, "velocity": 117}, {"time": 2714, "pitch": 64, "duration": 6, "velocity": 127}, {"time": 2726, "pitch": 62, "duration": 5, "velocity": 100}, {"time": 2732, "pitch": 60, "duration": 7, "velocity": 97}, {"time": 2744, "pitch": 62, "duration": 23, "velocity": 117}, {"time": 2774, "pitch": 62, "duration": 4, "velocity": 117}, {"time": 2780, "pitch": 64, "duration": 4, "velocity": 107}, {"time": 2786, "pitch": 65, "duration": 5, "velocity": 117}, {"time": 2798, "pitch": 67, "duration": 5, "velocity": 127}, {"time": 2804, "pitch": 69, "duration": 4, "velocity": 117}, {"time": 2810, "pitch": 64, "duration": 6, "velocity": 127}, {"time": 2822, "pitch": 62, "duration": 5, "velocity": 100}, {"time": 2828, "pitch": 60, "duration": 7, "velocity": 97}, {"time": 2840, "pitch": 62, "duration": 23, "velocity": 117}, {"time": 2870, "pitch": 62, "duration": 5, "velocity": 99}, {"time": 2876, "pitch": 64, "duration": 5, "velocity": 99}, {"time": 2882, "pitch": 65, "duration": 12, "velocity": 107}, {"time": 2904, "pitch": 67, "duration": 6, "velocity": 99}, {"time": 2911, "pitch": 69, "duration": 6, "velocity": 93}, {"time": 2919, "pitch": 64, "duration": 34, "velocity": 107}, {"time": 2960, "pitch": 62, "duration": 8, "velocity": 97}, {"time": 2969, "pitch": 60, "duration": 14, "velocity": 93}, {"time": 2983, "pitch": 62, "duration": 87, "velocity": 100}]}, {"program": 0, "is_drum": false, "name": "BRIDGE", "notes": [{"time": 278, "pitch": 77, "duration": 5, "velocity": 117}, {"time": 284, "pitch": 79, "duration": 5, "velocity": 112}, {"time": 290, "pitch": 81, "duration": 6, "velocity": 122}, {"time": 296, "pitch": 84, "duration": 6, "velocity": 107}, {"time": 302, "pitch": 81, "duration": 6, "velocity": 127}, {"time": 308, "pitch": 77, "duration": 7, "velocity": 100}, {"time": 315, "pitch": 79, "duration": 13, "velocity": 127}, {"time": 327, "pitch": 76, "duration": 4, "velocity": 127}, {"time": 332, "pitch": 74, "duration": 6, "velocity": 122}, {"time": 338, "pitch": 72, "duration": 6, "velocity": 127}, {"time": 344, "pitch": 69, "duration": 6, "velocity": 122}, {"time": 350, "pitch": 79, "duration": 6, "velocity": 127}, {"time": 356, "pitch": 81, "duration": 6, "velocity": 107}, {"time": 363, "pitch": 77, "duration": 12, "velocity": 117}, {"time": 375, "pitch": 74, "duration": 4, "velocity": 127}, {"time": 380, "pitch": 76, "duration": 5, "velocity": 112}, {"time": 386, "pitch": 77, "duration": 9, "velocity": 122}, {"time": 399, "pitch": 79, "duration": 5, "velocity": 127}, {"time": 404, "pitch": 81, "duration": 6, "velocity": 112}, {"time": 410, "pitch": 76, "duration": 12, "velocity": 127}, {"time": 423, "pitch": 74, "duration": 5, "velocity": 122}, {"time": 428, "pitch": 72, "duration": 9, "velocity": 102}, {"time": 434, "pitch": 74, "duration": 42, "velocity": 117}, {"time": 662, "pitch": 77, "duration": 6, "velocity": 112}, {"time": 669, "pitch": 79, "duration": 5, "velocity": 88}, {"time": 674, "pitch": 81, "duration": 25, "velocity": 99}, {"time": 698, "pitch": 79, "duration": 22, "velocity": 83}, {"time": 722, "pitch": 77, "duration": 21, "velocity": 102}, {"time": 746, "pitch": 72, "duration": 19, "velocity": 92}, {"time": 770, "pitch": 81, "duration": 24, "velocity": 107}, {"time": 794, "pitch": 79, "duration": 21, "velocity": 102}, {"time": 818, "pitch": 76, "duration": 11, "velocity": 102}, {"time": 830, "pitch": 72, "duration": 12, "velocity": 90}, {"time": 842, "pitch": 74, "duration": 19, "velocity": 90}, {"time": 854, "pitch": 77, "duration": 6, "velocity": 122}, {"time": 860, "pitch": 79, "duration": 8, "velocity": 99}, {"time": 866, "pitch": 81, "duration": 25, "velocity": 127}, {"time": 890, "pitch": 79, "duration": 21, "velocity": 97}, {"time": 902, "pitch": 84, "duration": 11, "velocity": 127}, {"time": 914, "pitch": 76, "duration": 22, "velocity": 112}, {"time": 938, "pitch": 77, "duration": 7, "velocity": 102}, {"time": 945, "pitch": 79, "duration": 5, "velocity": 112}, {"time": 950, "pitch": 81, "duration": 11, "velocity": 127}, {"time": 956, "pitch": 76, "duration": 6, "velocity": 122}, {"time": 962, "pitch": 74, "duration": 24, "velocity": 99}, {"time": 986, "pitch": 76, "duration": 10, "velocity": 117}, {"time": 998, "pitch": 72, "duration": 10, "velocity": 102}, {"time": 1010, "pitch": 77, "duration": 12, "velocity": 127}, {"time": 1028, "pitch": 79, "duration": 6, "velocity": 112}, {"time": 1034, "pitch": 81, "duration": 4, "velocity": 127}, {"time": 1040, "pitch": 81, "duration": 7, "velocity": 102}, {"time": 1046, "pitch": 86, "duration": 7, "velocity": 127}, {"time": 1052, "pitch": 88, "duration": 7, "velocity": 102}, {"time": 1058, "pitch": 89, "duration": 21, "velocity": 127}, {"time": 1082, "pitch": 88, "duration": 16, "velocity": 117}, {"time": 1095, "pitch": 86, "duration": 5, "velocity": 112}, {"time": 1100, "pitch": 84, "duration": 7, "velocity": 107}, {"time": 1107, "pitch": 79, "duration": 13, "velocity": 117}, {"time": 1124, "pitch": 81, "duration": 6, "velocity": 122}, {"time": 1131, "pitch": 77, "duration": 5, "velocity": 112}, {"time": 1136, "pitch": 76, "duration": 6, "velocity": 97}, {"time": 1142, "pitch": 77, "duration": 8, "velocity": 95}, {"time": 1149, "pitch": 69, "duration": 5, "velocity": 112}, {"time": 1154, "pitch": 74, "duration": 22, "velocity": 117}, {"time": 1178, "pitch": 72, "duration": 24, "velocity": 117}, {"time": 1202, "pitch": 74, "duration": 38, "velocity": 102}, {"time": 1250, "pitch": 81, "duration": 28, "velocity": 127}, {"time": 1280, "pitch": 79, "duration": 6, "velocity": 112}, {"time": 1286, "pitch": 81, "duration": 6, "velocity": 127}, {"time": 1292, "pitch": 84, "duration": 6, "velocity": 127}, {"time": 1298, "pitch": 81, "duration": 31, "velocity": 127}, {"time": 1334, "pitch": 74, "duration": 5, "velocity": 117}, {"time": 1340, "pitch": 76, "duration": 6, "velocity": 112}, {"time": 1346, "pitch": 77, "duration": 12, "velocity": 112}, {"time": 1358, "pitch": 79, "duration": 6, "velocity": 127}, {"time": 1365, "pitch": 77, "duration": 5, "velocity": 112}, {"time": 1371, "pitch": 76, "duration": 10, "velocity": 117}, {"time": 1376, "pitch": 74, "duration": 6, "velocity": 117}, {"time": 1382, "pitch": 76, "duration": 7, "velocity": 97}, {"time": 1388, "pitch": 72, "duration": 6, "velocity": 107}, {"time": 1394, "pitch": 69, "duration": 13, "velocity": 96}, {"time": 1401, "pitch": 62, "duration": 3, "velocity": 112}, {"time": 1404, "pitch": 64, "duration": 3, "velocity": 92}, {"time": 1406, "pitch": 65, "duration": 4, "velocity": 89}, {"time": 1409, "pitch": 64, "duration": 3, "velocity": 112}, {"time": 1412, "pitch": 62, "duration": 3, "velocity": 102}, {"time": 1415, "pitch": 60, "duration": 3, "velocity": 102}, {"time": 1418, "pitch": 57, "duration": 16, "velocity": 99}, {"time": 1431, "pitch": 74, "duration": 5, "velocity": 117}, {"time": 1436, "pitch": 72, "duration": 6, "velocity": 107}, {"time": 1442, "pitch": 74, "duration": 17, "velocity": 127}, {"time": 1460, "pitch": 77, "duration": 6, "velocity": 127}, {"time": 1466, "pitch": 76, "duration": 7, "velocity": 122}, {"time": 1472, "pitch": 74, "duration": 6, "velocity": 127}, {"time": 1478, "pitch": 76, "duration": 7, "velocity": 100}, {"time": 1484, "pitch": 72, "duration": 6, "velocity": 117}, {"time": 1490, "pitch": 67, "duration": 17, "velocity": 102}, {"time": 1502, "pitch": 72, "duration": 7, "velocity": 97}, {"time": 1509, "pitch": 67, "duration": 5, "velocity": 122}, {"time": 1514, "pitch": 65, "duration": 13, "velocity": 102}, {"time": 1526, "pitch": 69, "duration": 6, "velocity": 112}, {"time": 1532, "pitch": 72, "duration": 5, "velocity": 127}, {"time": 1538, "pitch": 74, "duration": 6, "velocity": 112}, {"time": 1544, "pitch": 81, "duration": 6, "velocity": 112}, {"time": 1550, "pitch": 79, "duration": 6, "velocity": 127}, {"time": 1556, "pitch": 77, "duration": 6, "velocity": 127}, {"time": 1563, "pitch": 76, "duration": 11, "velocity": 117}, {"time": 1574, "pitch": 74, "duration": 6, "velocity": 127}, {"time": 1580, "pitch": 72, "duration": 6, "velocity": 127}, {"time": 1586, "pitch": 74, "duration": 34, "velocity": 127}, {"time": 1802, "pitch": 74, "duration": 6, "velocity": 127}, {"time": 1808, "pitch": 76, "duration": 6, "velocity": 107}, {"time": 1814, "pitch": 77, "duration": 6, "velocity": 127}, {"time": 1821, "pitch": 79, "duration": 5, "velocity": 88}, {"time": 1826, "pitch": 81, "duration": 25, "velocity": 99}, {"time": 1850, "pitch": 79, "duration": 22, "velocity": 83}, {"time": 1874, "pitch": 77, "duration": 21, "velocity": 102}, {"time": 1898, "pitch": 72, "duration": 19, "velocity": 92}, {"time": 1904, "pitch": 84, "duration": 6, "velocity": 127}, {"time": 1911, "pitch": 81, "duration": 5, "velocity": 96}, {"time": 1916, "pitch": 79, "duration": 6, "velocity": 92}, {"time": 1922, "pitch": 81, "duration": 24, "velocity": 107}, {"time": 1922, "pitch": 77, "duration": 25, "velocity": 102}, {"time": 1946, "pitch": 79, "duration": 21, "velocity": 102}, {"time": 1947, "pitch": 76, "duration": 22, "velocity": 95}, {"time": 1970, "pitch": 76, "duration": 11, "velocity": 102}, {"time": 1982, "pitch": 72, "duration": 12, "velocity": 90}, {"time": 1994, "pitch": 74, "duration": 19, "velocity": 90}, {"time": 2006, "pitch": 77, "duration": 6, "velocity": 122}, {"time": 2012, "pitch": 79, "duration": 8, "velocity": 99}, {"time": 2018, "pitch": 81, "duration": 25, "velocity": 127}, {"time": 2042, "pitch": 79, "duration": 21, "velocity": 97}, {"time": 2054, "pitch": 84, "duration": 11, "velocity": 127}, {"time": 2066, "pitch": 76, "duration": 22, "velocity": 112}, {"time": 2090, "pitch": 77, "duration": 7, "velocity": 102}, {"time": 2097, "pitch": 79, "duration": 5, "velocity": 112}, {"time": 2102, "pitch": 81, "duration": 11, "velocity": 127}, {"time": 2108, "pitch": 76, "duration": 6, "velocity": 122}, {"time": 2114, "pitch": 74, "duration": 24, "velocity": 99}, {"time": 2138, "pitch": 76, "duration": 10, "velocity": 117}, {"time": 2150, "pitch": 72, "duration": 10, "velocity": 102}, {"time": 2162, "pitch": 77, "duration": 12, "velocity": 127}, {"time": 2180, "pitch": 79, "duration": 6, "velocity": 112}, {"time": 2186, "pitch": 81, "duration": 4, "velocity": 127}, {"time": 2192, "pitch": 81, "duration": 7, "velocity": 102}, {"time": 2198, "pitch": 86, "duration": 7, "velocity": 127}, {"time": 2204, "pitch": 88, "duration": 7, "velocity": 102}, {"time": 2210, "pitch": 89, "duration": 21, "velocity": 127}, {"time": 2234, "pitch": 88, "duration": 16, "velocity": 117}, {"time": 2247, "pitch": 86, "duration": 5, "velocity": 112}, {"time": 2252, "pitch": 84, "duration": 7, "velocity": 107}, {"time": 2259, "pitch": 79, "duration": 13, "velocity": 117}, {"time": 2276, "pitch": 81, "duration": 6, "velocity": 122}, {"time": 2283, "pitch": 77, "duration": 5, "velocity": 112}, {"time": 2288, "pitch": 76, "duration": 6, "velocity": 97}, {"time": 2294, "pitch": 77, "duration": 8, "velocity": 95}, {"time": 2301, "pitch": 69, "duration": 5, "velocity": 112}, {"time": 2306, "pitch": 74, "duration": 22, "velocity": 117}, {"time": 2330, "pitch": 72, "duration": 24, "velocity": 117}, {"time": 2354, "pitch": 74, "duration": 31, "velocity": 102}, {"time": 2373, "pitch": 69, "duration": 5, "velocity": 97}, {"time": 2378, "pitch": 74, "duration": 7, "velocity": 107}, {"time": 2384, "pitch": 76, "duration": 6, "velocity": 99}, {"time": 2390, "pitch": 77, "duration": 7, "velocity": 95}, {"time": 2396, "pitch": 79, "duration": 7, "velocity": 107}, {"time": 2402, "pitch": 81, "duration": 24, "velocity": 122}, {"time": 2426, "pitch": 79, "duration": 23, "velocity": 89}, {"time": 2475, "pitch": 81, "duration": 5, "velocity": 127}, {"time": 2481, "pitch": 79, "duration": 6, "velocity": 107}, {"time": 2486, "pitch": 77, "duration": 6, "velocity": 100}, {"time": 2492, "pitch": 76, "duration": 7, "velocity": 107}, {"time": 2498, "pitch": 74, "duration": 26, "velocity": 100}, {"time": 2792, "pitch": 77, "duration": 15, "velocity": 95}, {"time": 2816, "pitch": 76, "duration": 20, "velocity": 81}, {"time": 2840, "pitch": 77, "duration": 31, "velocity": 63}, {"time": 2840, "pitch": 81, "duration": 30, "velocity": 66}, {"time": 2978, "pitch": 81, "duration": 25, "velocity": 127}, {"time": 3002, "pitch": 79, "duration": 24, "velocity": 127}, {"time": 3026, "pitch": 77, "duration": 44, "velocity": 122}, {"time": 3074, "pitch": 77, "duration": 26, "velocity": 127}, {"time": 3098, "pitch": 76, "duration": 23, "velocity": 122}, {"time": 3122, "pitch": 74, "duration": 55, "velocity": 122}, {"time": 3184, "pitch": 74, "duration": 10, "velocity": 99}, {"time": 3193, "pitch": 76, "duration": 2, "velocity": 58}, {"time": 3195, "pitch": 74, "duration": 3, "velocity": 77}, {"time": 3197, "pitch": 72, "duration": 3, "velocity": 82}, {"time": 3200, "pitch": 74, "duration": 108, "velocity": 79}]}, {"program": 0, "is_drum": false, "name": "PIANO", "notes": [{"time": 2, "pitch": 50, "duration": 48, "velocity": 93}, {"time": 8, "pitch": 57, "duration": 42, "velocity": 73}, {"time": 14, "pitch": 62, "duration": 5, "velocity": 86}, {"time": 20, "pitch": 64, "duration": 5, "velocity": 76}, {"time": 26, "pitch": 65, "duration": 24, "velocity": 75}, {"time": 50, "pitch": 50, "duration": 35, "velocity": 95}, {"time": 57, "pitch": 57, "duration": 28, "velocity": 67}, {"time": 62, "pitch": 64, "duration": 24, "velocity": 68}, {"time": 68, "pitch": 65, "duration": 20, "velocity": 69}, {"time": 74, "pitch": 69, "duration": 15, "velocity": 78}, {"time": 98, "pitch": 50, "duration": 25, "velocity": 81}, {"time": 104, "pitch": 57, "duration": 19, "velocity": 92}, {"time": 110, "pitch": 62, "duration": 13, "velocity": 99}, {"time": 122, "pitch": 48, "duration": 18, "velocity": 81}, {"time": 127, "pitch": 55, "duration": 13, "velocity": 83}, {"time": 134, "pitch": 74, "duration": 10, "velocity": 93}, {"time": 146, "pitch": 46, "duration": 19, "velocity": 93}, {"time": 146, "pitch": 74, "duration": 24, "velocity": 95}, {"time": 152, "pitch": 62, "duration": 6, "velocity": 83}, {"time": 158, "pitch": 65, "duration": 12, "velocity": 92}, {"time": 164, "pitch": 70, "duration": 6, "velocity": 107}, {"time": 170, "pitch": 74, "duration": 24, "velocity": 100}, {"time": 200, "pitch": 57, "duration": 19, "velocity": 92}, {"time": 206, "pitch": 62, "duration": 13, "velocity": 99}, {"time": 218, "pitch": 48, "duration": 18, "velocity": 81}, {"time": 223, "pitch": 55, "duration": 13, "velocity": 83}, {"time": 230, "pitch": 74, "duration": 10, "velocity": 93}, {"time": 242, "pitch": 46, "duration": 19, "velocity": 93}, {"time": 242, "pitch": 74, "duration": 24, "velocity": 95}, {"time": 248, "pitch": 62, "duration": 6, "velocity": 83}, {"time": 254, "pitch": 65, "duration": 12, "velocity": 92}, {"time": 260, "pitch": 70, "duration": 6, "velocity": 107}, {"time": 266, "pitch": 74, "duration": 24, "velocity": 100}, {"time": 290, "pitch": 46, "duration": 17, "velocity": 89}, {"time": 297, "pitch": 53, "duration": 9, "velocity": 62}, {"time": 302, "pitch": 65, "duration": 12, "velocity": 86}, {"time": 308, "pitch": 62, "duration": 6, "velocity": 85}, {"time": 315, "pitch": 48, "duration": 15, "velocity": 70}, {"time": 321, "pitch": 55, "duration": 17, "velocity": 61}, {"time": 327, "pitch": 64, "duration": 13, "velocity": 95}, {"time": 332, "pitch": 60, "duration": 7, "velocity": 73}, {"time": 338, "pitch": 45, "duration": 15, "velocity": 81}, {"time": 344, "pitch": 52, "duration": 9, "velocity": 81}, {"time": 350, "pitch": 64, "duration": 11, "velocity": 96}, {"time": 356, "pitch": 60, "duration": 4, "velocity": 79}, {"time": 359, "pitch": 57, "duration": 5, "velocity": 55}, {"time": 362, "pitch": 38, "duration": 15, "velocity": 70}, {"time": 368, "pitch": 45, "duration": 10, "velocity": 60}, {"time": 374, "pitch": 65, "duration": 12, "velocity": 92}, {"time": 380, "pitch": 62, "duration": 6, "velocity": 71}, {"time": 383, "pitch": 57, "duration": 4, "velocity": 66}, {"time": 386, "pitch": 43, "duration": 16, "velocity": 73}, {"time": 392, "pitch": 50, "duration": 12, "velocity": 65}, {"time": 398, "pitch": 62, "duration": 12, "velocity": 89}, {"time": 404, "pitch": 58, "duration": 6, "velocity": 57}, {"time": 410, "pitch": 45, "duration": 16, "velocity": 75}, {"time": 416, "pitch": 52, "duration": 10, "velocity": 56}, {"time": 422, "pitch": 64, "duration": 13, "velocity": 89}, {"time": 428, "pitch": 60, "duration": 6, "velocity": 72}, {"time": 434, "pitch": 38, "duration": 46, "velocity": 75}, {"time": 440, "pitch": 45, "duration": 43, "velocity": 63}, {"time": 446, "pitch": 50, "duration": 28, "velocity": 82}, {"time": 452, "pitch": 52, "duration": 7, "velocity": 70}, {"time": 458, "pitch": 53, "duration": 7, "velocity": 61}, {"time": 464, "pitch": 57, "duration": 4, "velocity": 69}, {"time": 471, "pitch": 62, "duration": 11, "velocity": 61}, {"time": 482, "pitch": 38, "duration": 16, "velocity": 69}, {"time": 488, "pitch": 45, "duration": 10, "velocity": 62}, {"time": 494, "pitch": 65, "duration": 12, "velocity": 81}, {"time": 506, "pitch": 36, "duration": 13, "velocity": 74}, {"time": 512, "pitch": 55, "duration": 21, "velocity": 66}, {"time": 518, "pitch": 64, "duration": 12, "velocity": 90}, {"time": 530, "pitch": 46, "duration": 16, "velocity": 86}, {"time": 536, "pitch": 58, "duration": 6, "velocity": 52}, {"time": 541, "pitch": 62, "duration": 13, "velocity": 77}, {"time": 548, "pitch": 58, "duration": 6, "velocity": 55}, {"time": 554, "pitch": 41, "duration": 13, "velocity": 72}, {"time": 560, "pitch": 53, "duration": 18, "velocity": 60}, {"time": 566, "pitch": 60, "duration": 12, "velocity": 85}, {"time": 572, "pitch": 57, "duration": 6, "velocity": 59}, {"time": 578, "pitch": 38, "duration": 17, "velocity": 72}, {"time": 584, "pitch": 45, "duration": 10, "velocity": 58}, {"time": 590, "pitch": 65, "duration": 12, "velocity": 76}, {"time": 596, "pitch": 62, "duration": 6, "velocity": 65}, {"time": 602, "pitch": 36, "duration": 16, "velocity": 72}, {"time": 608, "pitch": 43, "duration": 10, "velocity": 67}, {"time": 614, "pitch": 64, "duration": 11, "velocity": 88}, {"time": 620, "pitch": 60, "duration": 5, "velocity": 73}, {"time": 626, "pitch": 46, "duration": 1, "velocity": 93}, {"time": 626, "pitch": 46, "duration": 1, "velocity": 99}, {"time": 632, "pitch": 58, "duration": 5, "velocity": 77}, {"time": 638, "pitch": 48, "duration": 8, "velocity": 63}, {"time": 644, "pitch": 60, "duration": 6, "velocity": 73}, {"time": 650, "pitch": 38, "duration": 20, "velocity": 69}, {"time": 656, "pitch": 45, "duration": 17, "velocity": 61}, {"time": 662, "pitch": 65, "duration": 11, "velocity": 89}, {"time": 668, "pitch": 62, "duration": 6, "velocity": 67}, {"time": 680, "pitch": 45, "duration": 10, "velocity": 62}, {"time": 686, "pitch": 65, "duration": 12, "velocity": 81}, {"time": 698, "pitch": 36, "duration": 13, "velocity": 74}, {"time": 704, "pitch": 55, "duration": 21, "velocity": 66}, {"time": 710, "pitch": 64, "duration": 12, "velocity": 90}, {"time": 722, "pitch": 46, "duration": 16, "velocity": 86}, {"time": 728, "pitch": 58, "duration": 6, "velocity": 52}, {"time": 733, "pitch": 62, "duration": 13, "velocity": 77}, {"time": 740, "pitch": 58, "duration": 6, "velocity": 55}, {"time": 746, "pitch": 41, "duration": 13, "velocity": 72}, {"time": 752, "pitch": 53, "duration": 18, "velocity": 60}, {"time": 758, "pitch": 60, "duration": 12, "velocity": 85}, {"time": 764, "pitch": 57, "duration": 6, "velocity": 59}, {"time": 770, "pitch": 38, "duration": 17, "velocity": 72}, {"time": 776, "pitch": 45, "duration": 10, "velocity": 58}, {"time": 782, "pitch": 65, "duration": 12, "velocity": 76}, {"time": 788, "pitch": 62, "duration": 6, "velocity": 65}, {"time": 794, "pitch": 36, "duration": 16, "velocity": 72}, {"time": 800, "pitch": 43, "duration": 10, "velocity": 67}, {"time": 806, "pitch": 64, "duration": 11, "velocity": 88}, {"time": 812, "pitch": 60, "duration": 5, "velocity": 73}, {"time": 818, "pitch": 46, "duration": 1, "velocity": 93}, {"time": 818, "pitch": 46, "duration": 1, "velocity": 99}, {"time": 824, "pitch": 58, "duration": 5, "velocity": 77}, {"time": 830, "pitch": 48, "duration": 8, "velocity": 63}, {"time": 836, "pitch": 60, "duration": 6, "velocity": 73}, {"time": 842, "pitch": 38, "duration": 20, "velocity": 69}, {"time": 848, "pitch": 45, "duration": 17, "velocity": 61}, {"time": 854, "pitch": 65, "duration": 11, "velocity": 89}, {"time": 860, "pitch": 62, "duration": 6, "velocity": 67}, {"time": 866, "pitch": 46, "duration": 18, "velocity": 95}, {"time": 870, "pitch": 53, "duration": 13, "velocity": 76}, {"time": 872, "pitch": 58, "duration": 7, "velocity": 95}, {"time": 876, "pitch": 62, "duration": 2, "velocity": 78}, {"time": 878, "pitch": 65, "duration": 7, "velocity": 100}, {"time": 882, "pitch": 58, "duration": 2, "velocity": 96}, {"time": 884, "pitch": 62, "duration": 5, "velocity": 88}, {"time": 888, "pitch": 65, "duration": 2, "velocity": 90}, {"time": 890, "pitch": 48, "duration": 19, "velocity": 70}, {"time": 894, "pitch": 55, "duration": 10, "velocity": 92}, {"time": 896, "pitch": 60, "duration": 5, "velocity": 73}, {"time": 900, "pitch": 64, "duration": 3, "velocity": 86}, {"time": 902, "pitch": 67, "duration": 11, "velocity": 97}, {"time": 906, "pitch": 55, "duration": 2, "velocity": 85}, {"time": 908, "pitch": 64, "duration": 5, "velocity": 97}, {"time": 912, "pitch": 60, "duration": 3, "velocity": 93}, {"time": 914, "pitch": 45, "duration": 19, "velocity": 63}, {"time": 918, "pitch": 52, "duration": 9, "velocity": 70}, {"time": 920, "pitch": 57, "duration": 7, "velocity": 66}, {"time": 924, "pitch": 60, "duration": 3, "velocity": 85}, {"time": 926, "pitch": 64, "duration": 11, "velocity": 95}, {"time": 930, "pitch": 52, "duration": 3, "velocity": 76}, {"time": 932, "pitch": 60, "duration": 5, "velocity": 96}, {"time": 936, "pitch": 57, "duration": 2, "velocity": 88}, {"time": 938, "pitch": 50, "duration": 19, "velocity": 78}, {"time": 942, "pitch": 57, "duration": 10, "velocity": 95}, {"time": 944, "pitch": 62, "duration": 4, "velocity": 96}, {"time": 948, "pitch": 64, "duration": 4, "velocity": 77}, {"time": 950, "pitch": 69, "duration": 11, "velocity": 97}, {"time": 954, "pitch": 57, "duration": 1, "velocity": 71}, {"time": 956, "pitch": 65, "duration": 5, "velocity": 99}, {"time": 960, "pitch": 62, "duration": 2, "velocity": 82}, {"time": 962, "pitch": 43, "duration": 19, "velocity": 70}, {"time": 966, "pitch": 50, "duration": 10, "velocity": 83}, {"time": 968, "pitch": 55, "duration": 5, "velocity": 89}, {"time": 972, "pitch": 58, "duration": 2, "velocity": 77}, {"time": 974, "pitch": 62, "duration": 12, "velocity": 93}, {"time": 978, "pitch": 50, "duration": 3, "velocity": 66}, {"time": 980, "pitch": 58, "duration": 5, "velocity": 99}, {"time": 984, "pitch": 55, "duration": 2, "velocity": 81}, {"time": 986, "pitch": 48, "duration": 18, "velocity": 82}, {"time": 990, "pitch": 55, "duration": 10, "velocity": 77}, {"time": 992, "pitch": 60, "duration": 4, "velocity": 95}, {"time": 996, "pitch": 64, "duration": 3, "velocity": 86}, {"time": 998, "pitch": 67, "duration": 11, "velocity": 102}, {"time": 1002, "pitch": 55, "duration": 1, "velocity": 77}, {"time": 1004, "pitch": 64, "duration": 5, "velocity": 96}, {"time": 1008, "pitch": 60, "duration": 2, "velocity": 93}, {"time": 1010, "pitch": 41, "duration": 17, "velocity": 79}, {"time": 1014, "pitch": 48, "duration": 14, "velocity": 86}, {"time": 1016, "pitch": 53, "duration": 7, "velocity": 92}, {"time": 1020, "pitch": 57, "duration": 2, "velocity": 82}, {"time": 1022, "pitch": 60, "duration": 7, "velocity": 97}, {"time": 1026, "pitch": 53, "duration": 3, "velocity": 89}, {"time": 1028, "pitch": 57, "duration": 4, "velocity": 96}, {"time": 1032, "pitch": 60, "duration": 2, "velocity": 92}, {"time": 1034, "pitch": 45, "duration": 19, "velocity": 79}, {"time": 1038, "pitch": 52, "duration": 10, "velocity": 82}, {"time": 1040, "pitch": 57, "duration": 5, "velocity": 95}, {"time": 1044, "pitch": 61, "duration": 2, "velocity": 117}, {"time": 1046, "pitch": 64, "duration": 11, "velocity": 97}, {"time": 1050, "pitch": 52, "duration": 2, "velocity": 89}, {"time": 1052, "pitch": 61, "duration": 5, "velocity": 127}, {"time": 1056, "pitch": 57, "duration": 2, "velocity": 95}, {"time": 1058, "pitch": 45, "duration": 3, "velocity": 38}, {"time": 1058, "pitch": 46, "duration": 19, "velocity": 96}, {"time": 1062, "pitch": 53, "duration": 15, "velocity": 76}, {"time": 1064, "pitch": 58, "duration": 7, "velocity": 100}, {"time": 1068, "pitch": 62, "duration": 2, "velocity": 77}, {"time": 1070, "pitch": 65, "duration": 7, "velocity": 107}, {"time": 1074, "pitch": 58, "duration": 3, "velocity": 100}, {"time": 1076, "pitch": 62, "duration": 4, "velocity": 100}, {"time": 1080, "pitch": 65, "duration": 2, "velocity": 97}, {"time": 1082, "pitch": 48, "duration": 18, "velocity": 81}, {"time": 1086, "pitch": 55, "duration": 9, "velocity": 72}, {"time": 1088, "pitch": 60, "duration": 5, "velocity": 73}, {"time": 1092, "pitch": 64, "duration": 3, "velocity": 95}, {"time": 1094, "pitch": 67, "duration": 12, "velocity": 100}, {"time": 1098, "pitch": 55, "duration": 2, "velocity": 92}, {"time": 1100, "pitch": 64, "duration": 6, "velocity": 99}, {"time": 1104, "pitch": 60, "duration": 3, "velocity": 93}, {"time": 1106, "pitch": 45, "duration": 18, "velocity": 82}, {"time": 1110, "pitch": 52, "duration": 10, "velocity": 78}, {"time": 1112, "pitch": 57, "duration": 4, "velocity": 96}, {"time": 1116, "pitch": 60, "duration": 3, "velocity": 88}, {"time": 1118, "pitch": 64, "duration": 10, "velocity": 102}, {"time": 1122, "pitch": 52, "duration": 1, "velocity": 79}, {"time": 1124, "pitch": 60, "duration": 4, "velocity": 99}, {"time": 1128, "pitch": 57, "duration": 2, "velocity": 99}, {"time": 1130, "pitch": 38, "duration": 18, "velocity": 76}, {"time": 1134, "pitch": 45, "duration": 14, "velocity": 74}, {"time": 1136, "pitch": 50, "duration": 8, "velocity": 92}, {"time": 1140, "pitch": 57, "duration": 4, "velocity": 89}, {"time": 1142, "pitch": 65, "duration": 11, "velocity": 99}, {"time": 1146, "pitch": 50, "duration": 6, "velocity": 88}, {"time": 1148, "pitch": 62, "duration": 4, "velocity": 88}, {"time": 1152, "pitch": 57, "duration": 3, "velocity": 102}, {"time": 1154, "pitch": 43, "duration": 22, "velocity": 78}, {"time": 1158, "pitch": 50, "duration": 10, "velocity": 85}, {"time": 1160, "pitch": 55, "duration": 6, "velocity": 93}, {"time": 1164, "pitch": 58, "duration": 2, "velocity": 95}, {"time": 1166, "pitch": 62, "duration": 11, "velocity": 100}, {"time": 1170, "pitch": 50, "duration": 6, "velocity": 75}, {"time": 1172, "pitch": 58, "duration": 5, "velocity": 122}, {"time": 1176, "pitch": 53, "duration": 1, "velocity": 76}, {"time": 1176, "pitch": 55, "duration": 2, "velocity": 76}, {"time": 1178, "pitch": 48, "duration": 17, "velocity": 100}, {"time": 1182, "pitch": 55, "duration": 4, "velocity": 78}, {"time": 1184, "pitch": 60, "duration": 4, "velocity": 85}, {"time": 1188, "pitch": 55, "duration": 3, "velocity": 86}, {"time": 1190, "pitch": 64, "duration": 7, "velocity": 97}, {"time": 1194, "pitch": 55, "duration": 6, "velocity": 93}, {"time": 1196, "pitch": 60, "duration": 5, "velocity": 97}, {"time": 1200, "pitch": 64, "duration": 2, "velocity": 78}, {"time": 1203, "pitch": 38, "duration": 42, "velocity": 90}, {"time": 1205, "pitch": 45, "duration": 40, "velocity": 82}, {"time": 1208, "pitch": 50, "duration": 8, "velocity": 88}, {"time": 1211, "pitch": 57, "duration": 4, "velocity": 71}, {"time": 1214, "pitch": 62, "duration": 8, "velocity": 95}, {"time": 1217, "pitch": 50, "duration": 30, "velocity": 62}, {"time": 1221, "pitch": 64, "duration": 7, "velocity": 88}, {"time": 1226, "pitch": 57, "duration": 23, "velocity": 67}, {"time": 1226, "pitch": 62, "duration": 24, "velocity": 67}, {"time": 1250, "pitch": 46, "duration": 17, "velocity": 93}, {"time": 1253, "pitch": 53, "duration": 14, "velocity": 59}, {"time": 1256, "pitch": 58, "duration": 7, "velocity": 92}, {"time": 1259, "pitch": 62, "duration": 3, "velocity": 77}, {"time": 1262, "pitch": 65, "duration": 7, "velocity": 89}, {"time": 1265, "pitch": 58, "duration": 3, "velocity": 85}, {"time": 1268, "pitch": 62, "duration": 7, "velocity": 71}, {"time": 1274, "pitch": 48, "duration": 16, "velocity": 71}, {"time": 1277, "pitch": 55, "duration": 10, "velocity": 72}, {"time": 1280, "pitch": 60, "duration": 4, "velocity": 58}, {"time": 1283, "pitch": 64, "duration": 3, "velocity": 64}, {"time": 1286, "pitch": 67, "duration": 12, "velocity": 93}, {"time": 1289, "pitch": 55, "duration": 2, "velocity": 81}, {"time": 1292, "pitch": 64, "duration": 6, "velocity": 77}, {"time": 1295, "pitch": 60, "duration": 3, "velocity": 67}, {"time": 1298, "pitch": 45, "duration": 18, "velocity": 59}, {"time": 1301, "pitch": 52, "duration": 11, "velocity": 56}, {"time": 1303, "pitch": 57, "duration": 5, "velocity": 82}, {"time": 1307, "pitch": 60, "duration": 3, "velocity": 60}, {"time": 1310, "pitch": 64, "duration": 11, "velocity": 77}, {"time": 1313, "pitch": 52, "duration": 3, "velocity": 62}, {"time": 1316, "pitch": 60, "duration": 5, "velocity": 86}, {"time": 1319, "pitch": 57, "duration": 3, "velocity": 65}, {"time": 1322, "pitch": 38, "duration": 15, "velocity": 62}, {"time": 1325, "pitch": 45, "duration": 12, "velocity": 67}, {"time": 1328, "pitch": 50, "duration": 8, "velocity": 83}, {"time": 1331, "pitch": 57, "duration": 4, "velocity": 76}, {"time": 1334, "pitch": 65, "duration": 12, "velocity": 95}, {"time": 1340, "pitch": 62, "duration": 6, "velocity": 66}, {"time": 1343, "pitch": 57, "duration": 3, "velocity": 85}, {"time": 1346, "pitch": 43, "duration": 17, "velocity": 61}, {"time": 1349, "pitch": 50, "duration": 10, "velocity": 59}, {"time": 1352, "pitch": 55, "duration": 4, "velocity": 72}, {"time": 1355, "pitch": 58, "duration": 3, "velocity": 64}, {"time": 1358, "pitch": 62, "duration": 11, "velocity": 88}, {"time": 1361, "pitch": 50, "duration": 2, "velocity": 45}, {"time": 1364, "pitch": 58, "duration": 5, "velocity": 90}, {"time": 1367, "pitch": 55, "duration": 4, "velocity": 73}, {"time": 1370, "pitch": 36, "duration": 17, "velocity": 61}, {"time": 1373, "pitch": 43, "duration": 14, "velocity": 58}, {"time": 1376, "pitch": 48, "duration": 8, "velocity": 74}, {"time": 1379, "pitch": 55, "duration": 4, "velocity": 67}, {"time": 1382, "pitch": 64, "duration": 12, "velocity": 95}, {"time": 1385, "pitch": 48, "duration": 5, "velocity": 73}, {"time": 1388, "pitch": 60, "duration": 6, "velocity": 83}, {"time": 1391, "pitch": 55, "duration": 3, "velocity": 83}, {"time": 1394, "pitch": 41, "duration": 17, "velocity": 67}, {"time": 1394, "pitch": 43, "duration": 1, "velocity": 58}, {"time": 1397, "pitch": 48, "duration": 15, "velocity": 74}, {"time": 1400, "pitch": 53, "duration": 7, "velocity": 93}, {"time": 1403, "pitch": 57, "duration": 3, "velocity": 72}, {"time": 1406, "pitch": 60, "duration": 6, "velocity": 92}, {"time": 1409, "pitch": 53, "duration": 4, "velocity": 88}, {"time": 1412, "pitch": 57, "duration": 4, "velocity": 78}, {"time": 1415, "pitch": 60, "duration": 2, "velocity": 92}, {"time": 1418, "pitch": 45, "duration": 18, "velocity": 78}, {"time": 1421, "pitch": 52, "duration": 11, "velocity": 92}, {"time": 1424, "pitch": 57, "duration": 3, "velocity": 97}, {"time": 1427, "pitch": 61, "duration": 3, "velocity": 112}, {"time": 1430, "pitch": 64, "duration": 11, "velocity": 107}, {"time": 1433, "pitch": 52, "duration": 3, "velocity": 92}, {"time": 1436, "pitch": 61, "duration": 4, "velocity": 127}, {"time": 1439, "pitch": 57, "duration": 3, "velocity": 102}, {"time": 1442, "pitch": 46, "duration": 18, "velocity": 99}, {"time": 1445, "pitch": 53, "duration": 14, "velocity": 66}, {"time": 1448, "pitch": 58, "duration": 7, "velocity": 100}, {"time": 1451, "pitch": 62, "duration": 3, "velocity": 96}, {"time": 1454, "pitch": 65, "duration": 7, "velocity": 112}, {"time": 1457, "pitch": 58, "duration": 4, "velocity": 107}, {"time": 1461, "pitch": 62, "duration": 4, "velocity": 127}, {"time": 1464, "pitch": 65, "duration": 2, "velocity": 97}, {"time": 1466, "pitch": 48, "duration": 17, "velocity": 72}, {"time": 1469, "pitch": 55, "duration": 11, "velocity": 75}, {"time": 1472, "pitch": 60, "duration": 4, "velocity": 99}, {"time": 1475, "pitch": 64, "duration": 3, "velocity": 107}, {"time": 1478, "pitch": 67, "duration": 11, "velocity": 122}, {"time": 1482, "pitch": 55, "duration": 2, "velocity": 82}, {"time": 1485, "pitch": 64, "duration": 4, "velocity": 117}, {"time": 1488, "pitch": 60, "duration": 2, "velocity": 95}, {"time": 1490, "pitch": 45, "duration": 14, "velocity": 81}, {"time": 1494, "pitch": 52, "duration": 11, "velocity": 92}, {"time": 1497, "pitch": 57, "duration": 4, "velocity": 72}, {"time": 1500, "pitch": 60, "duration": 2, "velocity": 99}, {"time": 1503, "pitch": 64, "duration": 11, "velocity": 117}, {"time": 1508, "pitch": 45, "duration": 4, "velocity": 89}, {"time": 1510, "pitch": 57, "duration": 5, "velocity": 72}, {"time": 1514, "pitch": 38, "duration": 18, "velocity": 92}, {"time": 1517, "pitch": 45, "duration": 14, "velocity": 82}, {"time": 1520, "pitch": 50, "duration": 7, "velocity": 89}, {"time": 1523, "pitch": 57, "duration": 4, "velocity": 86}, {"time": 1526, "pitch": 65, "duration": 11, "velocity": 99}, {"time": 1529, "pitch": 50, "duration": 6, "velocity": 107}, {"time": 1532, "pitch": 57, "duration": 4, "velocity": 107}, {"time": 1535, "pitch": 62, "duration": 4, "velocity": 107}, {"time": 1538, "pitch": 43, "duration": 19, "velocity": 72}, {"time": 1541, "pitch": 50, "duration": 11, "velocity": 89}, {"time": 1544, "pitch": 55, "duration": 4, "velocity": 93}, {"time": 1547, "pitch": 58, "duration": 3, "velocity": 96}, {"time": 1550, "pitch": 62, "duration": 11, "velocity": 100}, {"time": 1553, "pitch": 50, "duration": 8, "velocity": 73}, {"time": 1556, "pitch": 58, "duration": 4, "velocity": 97}, {"time": 1559, "pitch": 55, "duration": 2, "velocity": 89}, {"time": 1562, "pitch": 45, "duration": 18, "velocity": 76}, {"time": 1565, "pitch": 52, "duration": 11, "velocity": 58}, {"time": 1568, "pitch": 57, "duration": 4, "velocity": 89}, {"time": 1571, "pitch": 60, "duration": 3, "velocity": 93}, {"time": 1574, "pitch": 64, "duration": 11, "velocity": 95}, {"time": 1577, "pitch": 52, "duration": 3, "velocity": 79}, {"time": 1580, "pitch": 60, "duration": 4, "velocity": 99}, {"time": 1583, "pitch": 57, "duration": 3, "velocity": 96}, {"time": 1586, "pitch": 38, "duration": 40, "velocity": 65}, {"time": 1589, "pitch": 45, "duration": 36, "velocity": 92}, {"time": 1592, "pitch": 50, "duration": 7, "velocity": 78}, {"time": 1595, "pitch": 57, "duration": 36, "velocity": 67}, {"time": 1598, "pitch": 65, "duration": 33, "velocity": 88}, {"time": 1601, "pitch": 50, "duration": 21, "velocity": 77}, {"time": 1605, "pitch": 64, "duration": 26, "velocity": 69}, {"time": 1611, "pitch": 62, "duration": 20, "velocity": 65}, {"time": 1640, "pitch": 45, "duration": 10, "velocity": 62}, {"time": 1646, "pitch": 65, "duration": 12, "velocity": 81}, {"time": 1658, "pitch": 36, "duration": 13, "velocity": 74}, {"time": 1664, "pitch": 55, "duration": 21, "velocity": 66}, {"time": 1670, "pitch": 64, "duration": 12, "velocity": 90}, {"time": 1682, "pitch": 46, "duration": 16, "velocity": 86}, {"time": 1688, "pitch": 58, "duration": 6, "velocity": 52}, {"time": 1693, "pitch": 62, "duration": 13, "velocity": 77}, {"time": 1700, "pitch": 58, "duration": 6, "velocity": 55}, {"time": 1706, "pitch": 41, "duration": 13, "velocity": 72}, {"time": 1712, "pitch": 53, "duration": 18, "velocity": 60}, {"time": 1718, "pitch": 60, "duration": 12, "velocity": 85}, {"time": 1724, "pitch": 57, "duration": 6, "velocity": 59}, {"time": 1730, "pitch": 38, "duration": 17, "velocity": 72}, {"time": 1736, "pitch": 45, "duration": 10, "velocity": 58}, {"time": 1742, "pitch": 65, "duration": 12, "velocity": 76}, {"time": 1748, "pitch": 62, "duration": 6, "velocity": 65}, {"time": 1754, "pitch": 36, "duration": 16, "velocity": 72}, {"time": 1760, "pitch": 43, "duration": 10, "velocity": 67}, {"time": 1766, "pitch": 64, "duration": 11, "velocity": 88}, {"time": 1772, "pitch": 60, "duration": 5, "velocity": 73}, {"time": 1778, "pitch": 46, "duration": 1, "velocity": 93}, {"time": 1778, "pitch": 46, "duration": 1, "velocity": 99}, {"time": 1784, "pitch": 58, "duration": 5, "velocity": 77}, {"time": 1790, "pitch": 48, "duration": 8, "velocity": 63}, {"time": 1796, "pitch": 60, "duration": 6, "velocity": 73}, {"time": 1802, "pitch": 38, "duration": 20, "velocity": 69}, {"time": 1808, "pitch": 45, "duration": 17, "velocity": 61}, {"time": 1814, "pitch": 65, "duration": 11, "velocity": 89}, {"time": 1820, "pitch": 62, "duration": 6, "velocity": 67}, {"time": 1826, "pitch": 46, "duration": 18, "velocity": 95}, {"time": 1830, "pitch": 53, "duration": 13, "velocity": 76}, {"time": 1832, "pitch": 58, "duration": 7, "velocity": 95}, {"time": 1836, "pitch": 62, "duration": 2, "velocity": 78}, {"time": 1838, "pitch": 65, "duration": 7, "velocity": 100}, {"time": 1842, "pitch": 58, "duration": 2, "velocity": 96}, {"time": 1844, "pitch": 62, "duration": 5, "velocity": 88}, {"time": 1848, "pitch": 65, "duration": 2, "velocity": 90}, {"time": 1850, "pitch": 48, "duration": 19, "velocity": 70}, {"time": 1854, "pitch": 55, "duration": 10, "velocity": 92}, {"time": 1856, "pitch": 60, "duration": 5, "velocity": 73}, {"time": 1860, "pitch": 64, "duration": 3, "velocity": 86}, {"time": 1862, "pitch": 67, "duration": 11, "velocity": 97}, {"time": 1866, "pitch": 55, "duration": 2, "velocity": 85}, {"time": 1868, "pitch": 64, "duration": 5, "velocity": 97}, {"time": 1872, "pitch": 60, "duration": 3, "velocity": 93}, {"time": 1874, "pitch": 45, "duration": 19, "velocity": 63}, {"time": 1878, "pitch": 52, "duration": 9, "velocity": 70}, {"time": 1880, "pitch": 57, "duration": 7, "velocity": 66}, {"time": 1884, "pitch": 60, "duration": 3, "velocity": 85}, {"time": 1886, "pitch": 64, "duration": 11, "velocity": 95}, {"time": 1890, "pitch": 52, "duration": 3, "velocity": 76}, {"time": 1892, "pitch": 60, "duration": 5, "velocity": 96}, {"time": 1896, "pitch": 57, "duration": 2, "velocity": 88}, {"time": 1898, "pitch": 50, "duration": 19, "velocity": 78}, {"time": 1902, "pitch": 57, "duration": 10, "velocity": 95}, {"time": 1904, "pitch": 62, "duration": 4, "velocity": 96}, {"time": 1908, "pitch": 64, "duration": 4, "velocity": 77}, {"time": 1910, "pitch": 69, "duration": 11, "velocity": 97}, {"time": 1914, "pitch": 57, "duration": 1, "velocity": 71}, {"time": 1916, "pitch": 65, "duration": 5, "velocity": 99}, {"time": 1920, "pitch": 62, "duration": 2, "velocity": 82}, {"time": 1922, "pitch": 43, "duration": 19, "velocity": 70}, {"time": 1926, "pitch": 50, "duration": 10, "velocity": 83}, {"time": 1928, "pitch": 55, "duration": 5, "velocity": 89}, {"time": 1932, "pitch": 58, "duration": 2, "velocity": 77}, {"time": 1934, "pitch": 62, "duration": 12, "velocity": 93}, {"time": 1938, "pitch": 50, "duration": 3, "velocity": 66}, {"time": 1940, "pitch": 58, "duration": 5, "velocity": 99}, {"time": 1944, "pitch": 55, "duration": 2, "velocity": 81}, {"time": 1946, "pitch": 48, "duration": 18, "velocity": 82}, {"time": 1950, "pitch": 55, "duration": 10, "velocity": 77}, {"time": 1952, "pitch": 60, "duration": 4, "velocity": 95}, {"time": 1956, "pitch": 64, "duration": 3, "velocity": 86}, {"time": 1958, "pitch": 67, "duration": 11, "velocity": 102}, {"time": 1962, "pitch": 55, "duration": 1, "velocity": 77}, {"time": 1964, "pitch": 64, "duration": 5, "velocity": 96}, {"time": 1968, "pitch": 60, "duration": 2, "velocity": 93}, {"time": 1970, "pitch": 41, "duration": 17, "velocity": 79}, {"time": 1974, "pitch": 48, "duration": 14, "velocity": 86}, {"time": 1976, "pitch": 53, "duration": 7, "velocity": 92}, {"time": 1980, "pitch": 57, "duration": 2, "velocity": 82}, {"time": 1982, "pitch": 60, "duration": 7, "velocity": 97}, {"time": 1986, "pitch": 53, "duration": 3, "velocity": 89}, {"time": 1988, "pitch": 57, "duration": 4, "velocity": 96}, {"time": 1992, "pitch": 60, "duration": 2, "velocity": 92}, {"time": 1994, "pitch": 45, "duration": 19, "velocity": 79}, {"time": 1998, "pitch": 52, "duration": 10, "velocity": 82}, {"time": 2000, "pitch": 57, "duration": 5, "velocity": 95}, {"time": 2004, "pitch": 61, "duration": 2, "velocity": 117}, {"time": 2006, "pitch": 64, "duration": 11, "velocity": 97}, {"time": 2010, "pitch": 52, "duration": 2, "velocity": 89}, {"time": 2012, "pitch": 61, "duration": 5, "velocity": 127}, {"time": 2016, "pitch": 57, "duration": 2, "velocity": 95}, {"time": 2018, "pitch": 45, "duration": 3, "velocity": 38}, {"time": 2018, "pitch": 46, "duration": 19, "velocity": 96}, {"time": 2022, "pitch": 53, "duration": 15, "velocity": 76}, {"time": 2024, "pitch": 58, "duration": 7, "velocity": 100}, {"time": 2028, "pitch": 62, "duration": 2, "velocity": 77}, {"time": 2030, "pitch": 65, "duration": 7, "velocity": 107}, {"time": 2034, "pitch": 58, "duration": 3, "velocity": 100}, {"time": 2036, "pitch": 62, "duration": 4, "velocity": 100}, {"time": 2040, "pitch": 65, "duration": 2, "velocity": 97}, {"time": 2042, "pitch": 48, "duration": 18, "velocity": 81}, {"time": 2046, "pitch": 55, "duration": 9, "velocity": 72}, {"time": 2048, "pitch": 60, "duration": 5, "velocity": 73}, {"time": 2052, "pitch": 64, "duration": 3, "velocity": 95}, {"time": 2054, "pitch": 67, "duration": 12, "velocity": 100}, {"time": 2058, "pitch": 55, "duration": 2, "velocity": 92}, {"time": 2060, "pitch": 64, "duration": 6, "velocity": 99}, {"time": 2064, "pitch": 60, "duration": 3, "velocity": 93}, {"time": 2066, "pitch": 45, "duration": 18, "velocity": 82}, {"time": 2070, "pitch": 52, "duration": 10, "velocity": 78}, {"time": 2072, "pitch": 57, "duration": 4, "velocity": 96}, {"time": 2076, "pitch": 60, "duration": 3, "velocity": 88}, {"time": 2078, "pitch": 64, "duration": 10, "velocity": 102}, {"time": 2082, "pitch": 52, "duration": 1, "velocity": 79}, {"time": 2084, "pitch": 60, "duration": 4, "velocity": 99}, {"time": 2088, "pitch": 57, "duration": 2, "velocity": 99}, {"time": 2090, "pitch": 38, "duration": 18, "velocity": 76}, {"time": 2094, "pitch": 45, "duration": 14, "velocity": 74}, {"time": 2096, "pitch": 50, "duration": 8, "velocity": 92}, {"time": 2100, "pitch": 57, "duration": 4, "velocity": 89}, {"time": 2102, "pitch": 65, "duration": 11, "velocity": 99}, {"time": 2106, "pitch": 50, "duration": 6, "velocity": 88}, {"time": 2108, "pitch": 62, "duration": 4, "velocity": 88}, {"time": 2112, "pitch": 57, "duration": 3, "velocity": 102}, {"time": 2114, "pitch": 43, "duration": 22, "velocity": 78}, {"time": 2118, "pitch": 50, "duration": 10, "velocity": 85}, {"time": 2120, "pitch": 55, "duration": 6, "velocity": 93}, {"time": 2124, "pitch": 58, "duration": 2, "velocity": 95}, {"time": 2126, "pitch": 62, "duration": 11, "velocity": 100}, {"time": 2130, "pitch": 50, "duration": 6, "velocity": 75}, {"time": 2132, "pitch": 58, "duration": 5, "velocity": 122}, {"time": 2136, "pitch": 53, "duration": 1, "velocity": 76}, {"time": 2136, "pitch": 55, "duration": 2, "velocity": 76}, {"time": 2138, "pitch": 48, "duration": 17, "velocity": 100}, {"time": 2142, "pitch": 55, "duration": 4, "velocity": 78}, {"time": 2144, "pitch": 60, "duration": 4, "velocity": 85}, {"time": 2148, "pitch": 55, "duration": 3, "velocity": 86}, {"time": 2150, "pitch": 64, "duration": 7, "velocity": 97}, {"time": 2154, "pitch": 55, "duration": 6, "velocity": 93}, {"time": 2156, "pitch": 60, "duration": 5, "velocity": 97}, {"time": 2160, "pitch": 64, "duration": 2, "velocity": 78}, {"time": 2163, "pitch": 38, "duration": 42, "velocity": 90}, {"time": 2165, "pitch": 45, "duration": 40, "velocity": 82}, {"time": 2168, "pitch": 50, "duration": 8, "velocity": 88}, {"time": 2171, "pitch": 57, "duration": 4, "velocity": 71}, {"time": 2174, "pitch": 62, "duration": 8, "velocity": 95}, {"time": 2177, "pitch": 50, "duration": 30, "velocity": 62}, {"time": 2181, "pitch": 64, "duration": 7, "velocity": 88}, {"time": 2186, "pitch": 57, "duration": 23, "velocity": 67}, {"time": 2186, "pitch": 62, "duration": 24, "velocity": 67}, {"time": 2210, "pitch": 46, "duration": 17, "velocity": 93}, {"time": 2213, "pitch": 53, "duration": 14, "velocity": 59}, {"time": 2216, "pitch": 58, "duration": 7, "velocity": 92}, {"time": 2219, "pitch": 62, "duration": 3, "velocity": 77}, {"time": 2222, "pitch": 65, "duration": 7, "velocity": 89}, {"time": 2225, "pitch": 58, "duration": 3, "velocity": 85}, {"time": 2228, "pitch": 62, "duration": 7, "velocity": 71}, {"time": 2234, "pitch": 48, "duration": 16, "velocity": 71}, {"time": 2237, "pitch": 55, "duration": 10, "velocity": 72}, {"time": 2240, "pitch": 60, "duration": 4, "velocity": 58}, {"time": 2243, "pitch": 64, "duration": 3, "velocity": 64}, {"time": 2246, "pitch": 67, "duration": 12, "velocity": 93}, {"time": 2249, "pitch": 55, "duration": 2, "velocity": 81}, {"time": 2252, "pitch": 64, "duration": 6, "velocity": 77}, {"time": 2255, "pitch": 60, "duration": 3, "velocity": 67}, {"time": 2258, "pitch": 45, "duration": 18, "velocity": 59}, {"time": 2261, "pitch": 52, "duration": 11, "velocity": 56}, {"time": 2263, "pitch": 57, "duration": 5, "velocity": 82}, {"time": 2267, "pitch": 60, "duration": 3, "velocity": 60}, {"time": 2270, "pitch": 64, "duration": 11, "velocity": 77}, {"time": 2273, "pitch": 52, "duration": 3, "velocity": 62}, {"time": 2276, "pitch": 60, "duration": 5, "velocity": 86}, {"time": 2279, "pitch": 57, "duration": 3, "velocity": 65}, {"time": 2282, "pitch": 38, "duration": 15, "velocity": 62}, {"time": 2285, "pitch": 45, "duration": 12, "velocity": 67}, {"time": 2288, "pitch": 50, "duration": 8, "velocity": 83}, {"time": 2291, "pitch": 57, "duration": 4, "velocity": 76}, {"time": 2294, "pitch": 65, "duration": 12, "velocity": 95}, {"time": 2300, "pitch": 62, "duration": 6, "velocity": 66}, {"time": 2303, "pitch": 57, "duration": 3, "velocity": 85}, {"time": 2306, "pitch": 43, "duration": 17, "velocity": 61}, {"time": 2309, "pitch": 50, "duration": 10, "velocity": 59}, {"time": 2312, "pitch": 55, "duration": 4, "velocity": 72}, {"time": 2315, "pitch": 58, "duration": 3, "velocity": 64}, {"time": 2318, "pitch": 62, "duration": 11, "velocity": 88}, {"time": 2321, "pitch": 50, "duration": 2, "velocity": 45}, {"time": 2324, "pitch": 58, "duration": 5, "velocity": 90}, {"time": 2327, "pitch": 55, "duration": 4, "velocity": 73}, {"time": 2330, "pitch": 36, "duration": 17, "velocity": 61}, {"time": 2333, "pitch": 43, "duration": 14, "velocity": 58}, {"time": 2336, "pitch": 48, "duration": 8, "velocity": 74}, {"time": 2339, "pitch": 55, "duration": 4, "velocity": 67}, {"time": 2342, "pitch": 64, "duration": 12, "velocity": 95}, {"time": 2345, "pitch": 48, "duration": 5, "velocity": 73}, {"time": 2348, "pitch": 60, "duration": 6, "velocity": 83}, {"time": 2351, "pitch": 55, "duration": 3, "velocity": 83}, {"time": 2354, "pitch": 38, "duration": 37, "velocity": 99}, {"time": 2354, "pitch": 41, "duration": 1, "velocity": 67}, {"time": 2354, "pitch": 43, "duration": 1, "velocity": 58}, {"time": 2360, "pitch": 45, "duration": 31, "velocity": 77}, {"time": 2366, "pitch": 50, "duration": 27, "velocity": 88}, {"time": 2372, "pitch": 57, "duration": 30, "velocity": 76}, {"time": 2379, "pitch": 62, "duration": 24, "velocity": 73}, {"time": 2379, "pitch": 65, "duration": 24, "velocity": 69}, {"time": 2402, "pitch": 46, "duration": 19, "velocity": 85}, {"time": 2408, "pitch": 53, "duration": 14, "velocity": 54}, {"time": 2414, "pitch": 58, "duration": 8, "velocity": 81}, {"time": 2420, "pitch": 62, "duration": 7, "velocity": 92}, {"time": 2427, "pitch": 48, "duration": 14, "velocity": 61}, {"time": 2432, "pitch": 55, "duration": 9, "velocity": 67}, {"time": 2438, "pitch": 67, "duration": 13, "velocity": 92}, {"time": 2444, "pitch": 64, "duration": 7, "velocity": 59}, {"time": 2450, "pitch": 45, "duration": 14, "velocity": 70}, {"time": 2456, "pitch": 52, "duration": 7, "velocity": 66}, {"time": 2462, "pitch": 64, "duration": 12, "velocity": 97}, {"time": 2468, "pitch": 60, "duration": 6, "velocity": 69}, {"time": 2474, "pitch": 38, "duration": 15, "velocity": 68}, {"time": 2481, "pitch": 45, "duration": 9, "velocity": 64}, {"time": 2486, "pitch": 65, "duration": 12, "velocity": 107}, {"time": 2492, "pitch": 62, "duration": 6, "velocity": 100}, {"time": 2498, "pitch": 43, "duration": 15, "velocity": 79}, {"time": 2504, "pitch": 50, "duration": 9, "velocity": 69}, {"time": 2510, "pitch": 62, "duration": 12, "velocity": 99}, {"time": 2516, "pitch": 58, "duration": 5, "velocity": 97}, {"time": 2522, "pitch": 48, "duration": 15, "velocity": 99}, {"time": 2529, "pitch": 55, "duration": 13, "velocity": 76}, {"time": 2534, "pitch": 64, "duration": 13, "velocity": 100}, {"time": 2541, "pitch": 60, "duration": 6, "velocity": 96}, {"time": 2546, "pitch": 41, "duration": 15, "velocity": 74}, {"time": 2552, "pitch": 48, "duration": 11, "velocity": 60}, {"time": 2558, "pitch": 60, "duration": 10, "velocity": 122}, {"time": 2564, "pitch": 57, "duration": 5, "velocity": 102}, {"time": 2570, "pitch": 45, "duration": 17, "velocity": 79}, {"time": 2573, "pitch": 52, "duration": 11, "velocity": 73}, {"time": 2576, "pitch": 57, "duration": 4, "velocity": 102}, {"time": 2579, "pitch": 61, "duration": 3, "velocity": 112}, {"time": 2582, "pitch": 64, "duration": 11, "velocity": 107}, {"time": 2585, "pitch": 52, "duration": 3, "velocity": 86}, {"time": 2588, "pitch": 61, "duration": 5, "velocity": 127}, {"time": 2591, "pitch": 57, "duration": 3, "velocity": 100}, {"time": 2594, "pitch": 46, "duration": 17, "velocity": 63}, {"time": 2598, "pitch": 53, "duration": 13, "velocity": 71}, {"time": 2600, "pitch": 58, "duration": 7, "velocity": 90}, {"time": 2604, "pitch": 62, "duration": 2, "velocity": 82}, {"time": 2606, "pitch": 65, "duration": 7, "velocity": 93}, {"time": 2610, "pitch": 58, "duration": 3, "velocity": 95}, {"time": 2612, "pitch": 62, "duration": 5, "velocity": 93}, {"time": 2616, "pitch": 65, "duration": 3, "velocity": 92}, {"time": 2618, "pitch": 48, "duration": 18, "velocity": 74}, {"time": 2622, "pitch": 55, "duration": 10, "velocity": 67}, {"time": 2624, "pitch": 60, "duration": 5, "velocity": 72}, {"time": 2628, "pitch": 64, "duration": 3, "velocity": 90}, {"time": 2630, "pitch": 67, "duration": 12, "velocity": 96}, {"time": 2634, "pitch": 55, "duration": 2, "velocity": 81}, {"time": 2636, "pitch": 64, "duration": 6, "velocity": 95}, {"time": 2640, "pitch": 60, "duration": 3, "velocity": 86}, {"time": 2642, "pitch": 45, "duration": 18, "velocity": 74}, {"time": 2646, "pitch": 52, "duration": 9, "velocity": 77}, {"time": 2648, "pitch": 57, "duration": 5, "velocity": 70}, {"time": 2652, "pitch": 60, "duration": 3, "velocity": 79}, {"time": 2654, "pitch": 64, "duration": 9, "velocity": 93}, {"time": 2658, "pitch": 52, "duration": 2, "velocity": 78}, {"time": 2660, "pitch": 60, "duration": 4, "velocity": 97}, {"time": 2664, "pitch": 57, "duration": 5, "velocity": 96}, {"time": 2666, "pitch": 38, "duration": 18, "velocity": 70}, {"time": 2670, "pitch": 45, "duration": 14, "velocity": 77}, {"time": 2672, "pitch": 50, "duration": 8, "velocity": 88}, {"time": 2676, "pitch": 57, "duration": 4, "velocity": 74}, {"time": 2678, "pitch": 65, "duration": 12, "velocity": 117}, {"time": 2682, "pitch": 50, "duration": 5, "velocity": 78}, {"time": 2684, "pitch": 62, "duration": 5, "velocity": 92}, {"time": 2688, "pitch": 57, "duration": 3, "velocity": 97}, {"time": 2690, "pitch": 43, "duration": 18, "velocity": 78}, {"time": 2694, "pitch": 50, "duration": 9, "velocity": 70}, {"time": 2696, "pitch": 55, "duration": 5, "velocity": 89}, {"time": 2700, "pitch": 58, "duration": 2, "velocity": 100}, {"time": 2702, "pitch": 62, "duration": 12, "velocity": 97}, {"time": 2706, "pitch": 50, "duration": 2, "velocity": 60}, {"time": 2708, "pitch": 58, "duration": 5, "velocity": 102}, {"time": 2712, "pitch": 55, "duration": 3, "velocity": 79}, {"time": 2714, "pitch": 45, "duration": 17, "velocity": 86}, {"time": 2718, "pitch": 52, "duration": 9, "velocity": 72}, {"time": 2720, "pitch": 57, "duration": 4, "velocity": 93}, {"time": 2724, "pitch": 60, "duration": 2, "velocity": 77}, {"time": 2726, "pitch": 64, "duration": 13, "velocity": 97}, {"time": 2730, "pitch": 52, "duration": 1, "velocity": 68}, {"time": 2732, "pitch": 60, "duration": 6, "velocity": 90}, {"time": 2738, "pitch": 38, "duration": 45, "velocity": 70}, {"time": 2742, "pitch": 45, "duration": 42, "velocity": 69}, {"time": 2744, "pitch": 50, "duration": 8, "velocity": 76}, {"time": 2748, "pitch": 57, "duration": 35, "velocity": 74}, {"time": 2750, "pitch": 65, "duration": 34, "velocity": 90}, {"time": 2754, "pitch": 50, "duration": 21, "velocity": 70}, {"time": 2756, "pitch": 64, "duration": 27, "velocity": 76}, {"time": 2762, "pitch": 62, "duration": 21, "velocity": 69}, {"time": 2786, "pitch": 43, "duration": 18, "velocity": 78}, {"time": 2792, "pitch": 50, "duration": 12, "velocity": 69}, {"time": 2798, "pitch": 62, "duration": 13, "velocity": 97}, {"time": 2804, "pitch": 58, "duration": 6, "velocity": 85}, {"time": 2811, "pitch": 45, "duration": 20, "velocity": 74}, {"time": 2816, "pitch": 52, "duration": 14, "velocity": 63}, {"time": 2823, "pitch": 64, "duration": 13, "velocity": 89}, {"time": 2828, "pitch": 60, "duration": 7, "velocity": 63}, {"time": 2835, "pitch": 38, "duration": 38, "velocity": 74}, {"time": 2840, "pitch": 45, "duration": 34, "velocity": 59}, {"time": 2846, "pitch": 50, "duration": 36, "velocity": 77}, {"time": 2852, "pitch": 57, "duration": 32, "velocity": 61}, {"time": 2858, "pitch": 65, "duration": 25, "velocity": 90}, {"time": 2883, "pitch": 43, "duration": 22, "velocity": 67}, {"time": 2889, "pitch": 50, "duration": 16, "velocity": 59}, {"time": 2896, "pitch": 62, "duration": 24, "velocity": 89}, {"time": 2918, "pitch": 45, "duration": 49, "velocity": 72}, {"time": 2924, "pitch": 52, "duration": 41, "velocity": 61}, {"time": 2931, "pitch": 57, "duration": 11, "velocity": 52}, {"time": 2938, "pitch": 60, "duration": 34, "velocity": 36}, {"time": 2945, "pitch": 64, "duration": 28, "velocity": 32}, {"time": 2979, "pitch": 38, "duration": 21, "velocity": 72}, {"time": 2984, "pitch": 45, "duration": 16, "velocity": 62}, {"time": 2990, "pitch": 50, "duration": 6, "velocity": 79}, {"time": 3002, "pitch": 36, "duration": 13, "velocity": 77}, {"time": 3008, "pitch": 48, "duration": 9, "velocity": 52}, {"time": 3014, "pitch": 64, "duration": 13, "velocity": 77}, {"time": 3025, "pitch": 46, "duration": 39, "velocity": 89}, {"time": 3031, "pitch": 50, "duration": 33, "velocity": 56}, {"time": 3037, "pitch": 53, "duration": 26, "velocity": 71}, {"time": 3043, "pitch": 58, "duration": 32, "velocity": 53}, {"time": 3049, "pitch": 62, "duration": 25, "velocity": 38}, {"time": 3050, "pitch": 65, "duration": 26, "velocity": 57}, {"time": 3074, "pitch": 38, "duration": 19, "velocity": 74}, {"time": 3080, "pitch": 45, "duration": 13, "velocity": 61}, {"time": 3086, "pitch": 50, "duration": 5, "velocity": 67}, {"time": 3086, "pitch": 65, "duration": 13, "velocity": 72}, {"time": 3092, "pitch": 62, "duration": 7, "velocity": 72}, {"time": 3098, "pitch": 36, "duration": 16, "velocity": 65}, {"time": 3104, "pitch": 43, "duration": 10, "velocity": 58}, {"time": 3110, "pitch": 64, "duration": 14, "velocity": 88}, {"time": 3122, "pitch": 46, "duration": 38, "velocity": 96}, {"time": 3128, "pitch": 50, "duration": 29, "velocity": 65}, {"time": 3134, "pitch": 53, "duration": 19, "velocity": 59}, {"time": 3140, "pitch": 58, "duration": 31, "velocity": 58}, {"time": 3146, "pitch": 62, "duration": 26, "velocity": 66}, {"time": 3147, "pitch": 65, "duration": 26, "velocity": 35}, {"time": 3183, "pitch": 65, "duration": 27, "velocity": 41}, {"time": 3184, "pitch": 64, "duration": 26, "velocity": 62}, {"time": 3185, "pitch": 62, "duration": 22, "velocity": 59}, {"time": 3185, "pitch": 57, "duration": 31, "velocity": 52}, {"time": 3186, "pitch": 38, "duration": 84, "velocity": 74}, {"time": 3197, "pitch": 45, "duration": 72, "velocity": 58}, {"time": 3203, "pitch": 50, "duration": 66, "velocity": 54}, {"time": 3208, "pitch": 62, "duration": 13, "velocity": 59}, {"time": 3214, "pitch": 64, "duration": 9, "velocity": 41}, {"time": 3220, "pitch": 65, "duration": 4, "velocity": 37}, {"time": 3228, "pitch": 69, "duration": 42, "velocity": 30}, {"time": 3239, "pitch": 74, "duration": 30, "velocity": 36}, {"time": 3239, "pitch": 77, "duration": 31, "velocity": 32}, {"time": 3240, "pitch": 76, "duration": 29, "velocity": 33}], "annotations": [{"time": 292, "annotation": {"number": 64, "value": 127}, "group": "control_change"}, {"time": 313, "annotation": {"number": 64, "value": 0}, "group": "control_change"}, {"time": 315, "annotation": {"number": 64, "value": 127}, "group": "control_change"}, {"time": 336, "annotation": {"number": 64, "value": 0}, "group": "control_change"}, {"time": 339, "annotation": {"number": 64, "value": 127}, "group": "control_change"}, {"time": 360, "annotation": {"number": 64, "value": 0}, "group": "control_change"}, {"time": 363, "annotation": {"number": 64, "value": 127}, "group": "control_change"}, {"time": 384, "annotation": {"number": 64, "value": 0}, "group": "control_change"}, {"time": 387, "annotation": {"number": 64, "value": 127}, "group": "control_change"}, {"time": 408, "annotation": {"number": 64, "value": 0}, "group": "control_change"}, {"time": 410, "annotation": {"number": 64, "value": 127}, "group": "control_change"}, {"time": 433, "annotation": {"number": 64, "value": 0}, "group": "control_change"}, {"time": 435, "annotation": {"number": 64, "value": 127}, "group": "control_change"}, {"time": 480, "annotation": {"number": 64, "value": 0}, "group": "control_change"}, {"time": 483, "annotation": {"number": 64, "value": 127}, "group": "control_change"}, {"time": 505, "annotation": {"number": 64, "value": 0}, "group": "control_change"}, {"time": 507, "annotation": {"number": 64, "value": 127}, "group": "control_change"}, {"time": 527, "annotation": {"number": 64, "value": 0}, "group": "control_change"}, {"time": 529, "annotation": {"number": 64, "value": 127}, "group": "control_change"}, {"time": 551, "annotation": {"number": 64, "value": 0}, "group": "control_change"}, {"time": 554, "annotation": {"number": 64, "value": 127}, "group": "control_change"}, {"time": 575, "annotation": {"number": 64, "value": 0}, "group": "control_change"}, {"time": 578, "annotation": {"number": 64, "value": 127}, "group": "control_change"}, {"time": 600, "annotation": {"number": 64, "value": 0}, "group": "control_change"}, {"time": 602, "annotation": {"number": 64, "value": 127}, "group": "control_change"}, {"time": 624, "annotation": {"number": 64, "value": 0}, "group": "control_change"}, {"time": 626, "annotation": {"number": 64, "value": 127}, "group": "control_change"}, {"time": 632, "annotation": {"number": 64, "value": 127}, "group": "control_change"}, {"time": 637, "annotation": {"number": 64, "value": 0}, "group": "control_change"}, {"time": 644, "annotation": {"number": 64, "value": 127}, "group": "control_change"}, {"time": 646, "annotation": {"number": 64, "value": 0}, "group": "control_change"}, {"time": 650, "annotation": {"number": 64, "value": 127}, "group": "control_change"}, {"time": 670, "annotation": {"number": 64, "value": 0}, "group": "control_change"}, {"time": 675, "annotation": {"number": 64, "value": 127}, "group": "control_change"}, {"time": 697, "annotation": {"number": 64, "value": 0}, "group": "control_change"}, {"time": 699, "annotation": {"number": 64, "value": 127}, "group": "control_change"}, {"time": 719, "annotation": {"number": 64, "value": 0}, "group": "control_change"}, {"time": 721, "annotation": {"number": 64, "value": 127}, "group": "control_change"}, {"time": 743, "annotation": {"number": 64, "value": 0}, "group": "control_change"}, {"time": 746, "annotation": {"number": 64, "value": 127}, "group": "control_change"}, {"time": 767, "annotation": {"number": 64, "value": 0}, "group": "control_change"}, {"time": 770, "annotation": {"number": 64, "value": 127}, "group": "control_change"}, {"time": 792, "annotation": {"number": 64, "value": 0}, "group": "control_change"}, {"time": 794, "annotation": {"number": 64, "value": 127}, "group": "control_change"}, {"time": 816, "annotation": {"number": 64, "value": 0}, "group": "control_change"}, {"time": 818, "annotation": {"number": 64, "value": 127}, "group": "control_change"}, {"time": 824, "annotation": {"number": 64, "value": 127}, "group": "control_change"}, {"time": 829, "annotation": {"number": 64, "value": 0}, "group": "control_change"}, {"time": 836, "annotation": {"number": 64, "value": 127}, "group": "control_change"}, {"time": 838, "annotation": {"number": 64, "value": 0}, "group": "control_change"}, {"time": 842, "annotation": {"number": 64, "value": 127}, "group": "control_change"}, {"time": 862, "annotation": {"number": 64, "value": 0}, "group": "control_change"}, {"time": 867, "annotation": {"number": 64, "value": 127}, "group": "control_change"}, {"time": 888, "annotation": {"number": 64, "value": 0}, "group": "control_change"}, {"time": 890, "annotation": {"number": 64, "value": 127}, "group": "control_change"}, {"time": 913, "annotation": {"number": 64, "value": 0}, "group": "control_change"}, {"time": 915, "annotation": {"number": 64, "value": 127}, "group": "control_change"}, {"time": 935, "annotation": {"number": 64, "value": 0}, "group": "control_change"}, {"time": 938, "annotation": {"number": 64, "value": 127}, "group": "control_change"}, {"time": 960, "annotation": {"number": 64, "value": 0}, "group": "control_change"}, {"time": 963, "annotation": {"number": 64, "value": 127}, "group": "control_change"}, {"time": 984, "annotation": {"number": 64, "value": 0}, "group": "control_change"}, {"time": 986, "annotation": {"number": 64, "value": 127}, "group": "control_change"}, {"time": 1008, "annotation": {"number": 64, "value": 0}, "group": "control_change"}, {"time": 1010, "annotation": {"number": 64, "value": 127}, "group": "control_change"}, {"time": 1031, "annotation": {"number": 64, "value": 0}, "group": "control_change"}, {"time": 1034, "annotation": {"number": 64, "value": 127}, "group": "control_change"}, {"time": 1055, "annotation": {"number": 64, "value": 0}, "group": "control_change"}, {"time": 1058, "annotation": {"number": 64, "value": 127}, "group": "control_change"}, {"time": 1080, "annotation": {"number": 64, "value": 0}, "group": "control_change"}, {"time": 1082, "annotation": {"number": 64, "value": 127}, "group": "control_change"}, {"time": 1104, "annotation": {"number": 64, "value": 0}, "group": "control_change"}, {"time": 1106, "annotation": {"number": 64, "value": 127}, "group": "control_change"}, {"time": 1128, "annotation": {"number": 64, "value": 0}, "group": "control_change"}, {"time": 1130, "annotation": {"number": 64, "value": 127}, "group": "control_change"}, {"time": 1152, "annotation": {"number": 64, "value": 0}, "group": "control_change"}, {"time": 1155, "annotation": {"number": 64, "value": 127}, "group": "control_change"}, {"time": 1176, "annotation": {"number": 64, "value": 0}, "group": "control_change"}, {"time": 1179, "annotation": {"number": 64, "value": 127}, "group": "control_change"}, {"time": 1201, "annotation": {"number": 64, "value": 0}, "group": "control_change"}, {"time": 1203, "annotation": {"number": 64, "value": 127}, "group": "control_change"}, {"time": 1248, "annotation": {"number": 64, "value": 0}, "group": "control_change"}, {"time": 1252, "annotation": {"number": 64, "value": 127}, "group": "control_change"}, {"time": 1273, "annotation": {"number": 64, "value": 0}, "group": "control_change"}, {"time": 1275, "annotation": {"number": 64, "value": 127}, "group": "control_change"}, {"time": 1296, "annotation": {"number": 64, "value": 0}, "group": "control_change"}, {"time": 1299, "annotation": {"number": 64, "value": 127}, "group": "control_change"}, {"time": 1320, "annotation": {"number": 64, "value": 0}, "group": "control_change"}, {"time": 1323, "annotation": {"number": 64, "value": 127}, "group": "control_change"}, {"time": 1344, "annotation": {"number": 64, "value": 0}, "group": "control_change"}, {"time": 1347, "annotation": {"number": 64, "value": 127}, "group": "control_change"}, {"time": 1368, "annotation": {"number": 64, "value": 0}, "group": "control_change"}, {"time": 1371, "annotation": {"number": 64, "value": 127}, "group": "control_change"}, {"time": 1392, "annotation": {"number": 64, "value": 0}, "group": "control_change"}, {"time": 1396, "annotation": {"number": 64, "value": 127}, "group": "control_change"}, {"time": 1415, "annotation": {"number": 64, "value": 0}, "group": "control_change"}, {"time": 1418, "annotation": {"number": 64, "value": 127}, "group": "control_change"}, {"time": 1440, "annotation": {"number": 64, "value": 0}, "group": "control_change"}, {"time": 1443, "annotation": {"number": 64, "value": 127}, "group": "control_change"}, {"time": 1464, "annotation": {"number": 64, "value": 0}, "group": "control_change"}, {"time": 1467, "annotation": {"number": 64, "value": 127}, "group": "control_change"}, {"time": 1488, "annotation": {"number": 64, "value": 0}, "group": "control_change"}, {"time": 1491, "annotation": {"number": 64, "value": 127}, "group": "control_change"}, {"time": 1511, "annotation": {"number": 64, "value": 0}, "group": "control_change"}, {"time": 1514, "annotation": {"number": 64, "value": 127}, "group": "control_change"}, {"time": 1536, "annotation": {"number": 64, "value": 0}, "group": "control_change"}, {"time": 1539, "annotation": {"number": 64, "value": 127}, "group": "control_change"}, {"time": 1559, "annotation": {"number": 64, "value": 0}, "group": "control_change"}, {"time": 1562, "annotation": {"number": 64, "value": 127}, "group": "control_change"}, {"time": 1583, "annotation": {"number": 64, "value": 0}, "group": "control_change"}, {"time": 1586, "annotation": {"number": 64, "value": 127}, "group": "control_change"}, {"time": 1612, "annotation": {"number": 64, "value": 0}, "group": "control_change"}, {"time": 1635, "annotation": {"number": 64, "value": 127}, "group": "control_change"}, {"time": 1657, "annotation": {"number": 64, "value": 0}, "group": "control_change"}, {"time": 1659, "annotation": {"number": 64, "value": 127}, "group": "control_change"}, {"time": 1679, "annotation": {"number": 64, "value": 0}, "group": "control_change"}, {"time": 1681, "annotation": {"number": 64, "value": 127}, "group": "control_change"}, {"time": 1703, "annotation": {"number": 64, "value": 0}, "group": "control_change"}, {"time": 1706, "annotation": {"number": 64, "value": 127}, "group": "control_change"}, {"time": 1727, "annotation": {"number": 64, "value": 0}, "group": "control_change"}, {"time": 1730, "annotation": {"number": 64, "value": 127}, "group": "control_change"}, {"time": 1752, "annotation": {"number": 64, "value": 0}, "group": "control_change"}, {"time": 1754, "annotation": {"number": 64, "value": 127}, "group": "control_change"}, {"time": 1776, "annotation": {"number": 64, "value": 0}, "group": "control_change"}, {"time": 1778, "annotation": {"number": 64, "value": 127}, "group": "control_change"}, {"time": 1784, "annotation": {"number": 64, "value": 127}, "group": "control_change"}, {"time": 1789, "annotation": {"number": 64, "value": 0}, "group": "control_change"}, {"time": 1796, "annotation": {"number": 64, "value": 127}, "group": "control_change"}, {"time": 1798, "annotation": {"number": 64, "value": 0}, "group": "control_change"}, {"time": 1802, "annotation": {"number": 64, "value": 127}, "group": "control_change"}, {"time": 1822, "annotation": {"number": 64, "value": 0}, "group": "control_change"}, {"time": 1827, "annotation": {"number": 64, "value": 127}, "group": "control_change"}, {"time": 1848, "annotation": {"number": 64, "value": 0}, "group": "control_change"}, {"time": 1850, "annotation": {"number": 64, "value": 127}, "group": "control_change"}, {"time": 1873, "annotation": {"number": 64, "value": 0}, "group": "control_change"}, {"time": 1875, "annotation": {"number": 64, "value": 127}, "group": "control_change"}, {"time": 1895, "annotation": {"number": 64, "value": 0}, "group": "control_change"}, {"time": 1898, "annotation": {"number": 64, "value": 127}, "group": "control_change"}, {"time": 1920, "annotation": {"number": 64, "value": 0}, "group": "control_change"}, {"time": 1923, "annotation": {"number": 64, "value": 127}, "group": "control_change"}, {"time": 1944, "annotation": {"number": 64, "value": 0}, "group": "control_change"}, {"time": 1946, "annotation": {"number": 64, "value": 127}, "group": "control_change"}, {"time": 1968, "annotation": {"number": 64, "value": 0}, "group": "control_change"}, {"time": 1970, "annotation": {"number": 64, "value": 127}, "group": "control_change"}, {"time": 1991, "annotation": {"number": 64, "value": 0}, "group": "control_change"}, {"time": 1994, "annotation": {"number": 64, "value": 127}, "group": "control_change"}, {"time": 2015, "annotation": {"number": 64, "value": 0}, "group": "control_change"}, {"time": 2018, "annotation": {"number": 64, "value": 127}, "group": "control_change"}, {"time": 2040, "annotation": {"number": 64, "value": 0}, "group": "control_change"}, {"time": 2042, "annotation": {"number": 64, "value": 127}, "group": "control_change"}, {"time": 2064, "annotation": {"number": 64, "value": 0}, "group": "control_change"}, {"time": 2066, "annotation": {"number": 64, "value": 127}, "group": "control_change"}, {"time": 2088, "annotation": {"number": 64, "value": 0}, "group": "control_change"}, {"time": 2090, "annotation": {"number": 64, "value": 127}, "group": "control_change"}, {"time": 2112, "annotation": {"number": 64, "value": 0}, "group": "control_change"}, {"time": 2115, "annotation": {"number": 64, "value": 127}, "group": "control_change"}, {"time": 2136, "annotation": {"number": 64, "value": 0}, "group": "control_change"}, {"time": 2139, "annotation": {"number": 64, "value": 127}, "group": "control_change"}, {"time": 2161, "annotation": {"number": 64, "value": 0}, "group": "control_change"}, {"time": 2163, "annotation": {"number": 64, "value": 127}, "group": "control_change"}, {"time": 2208, "annotation": {"number": 64, "value": 0}, "group": "control_change"}, {"time": 2212, "annotation": {"number": 64, "value": 127}, "group": "control_change"}, {"time": 2233, "annotation": {"number": 64, "value": 0}, "group": "control_change"}, {"time": 2235, "annotation": {"number": 64, "value": 127}, "group": "control_change"}, {"time": 2256, "annotation": {"number": 64, "value": 0}, "group": "control_change"}, {"time": 2259, "annotation": {"number": 64, "value": 127}, "group": "control_change"}, {"time": 2280, "annotation": {"number": 64, "value": 0}, "group": "control_change"}, {"time": 2283, "annotation": {"number": 64, "value": 127}, "group": "control_change"}, {"time": 2304, "annotation": {"number": 64, "value": 0}, "group": "control_change"}, {"time": 2307, "annotation": {"number": 64, "value": 127}, "group": "control_change"}, {"time": 2328, "annotation": {"number": 64, "value": 0}, "group": "control_change"}, {"time": 2331, "annotation": {"number": 64, "value": 127}, "group": "control_change"}, {"time": 2352, "annotation": {"number": 64, "value": 0}, "group": "control_change"}, {"time": 2355, "annotation": {"number": 64, "value": 127}, "group": "control_change"}, {"time": 2400, "annotation": {"number": 64, "value": 0}, "group": "control_change"}, {"time": 2402, "annotation": {"number": 64, "value": 127}, "group": "control_change"}, {"time": 2424, "annotation": {"number": 64, "value": 0}, "group": "control_change"}, {"time": 2426, "annotation": {"number": 64, "value": 127}, "group": "control_change"}, {"time": 2448, "annotation": {"number": 64, "value": 0}, "group": "control_change"}, {"time": 2450, "annotation": {"number": 64, "value": 127}, "group": "control_change"}, {"time": 2472, "annotation": {"number": 64, "value": 0}, "group": "control_change"}, {"time": 2474, "annotation": {"number": 64, "value": 127}, "group": "control_change"}, {"time": 2496, "annotation": {"number": 64, "value": 0}, "group": "control_change"}, {"time": 2499, "annotation": {"number": 64, "value": 127}, "group": "control_change"}, {"time": 2520, "annotation": {"number": 64, "value": 0}, "group": "control_change"}, {"time": 2522, "annotation": {"number": 64, "value": 127}, "group": "control_change"}, {"time": 2544, "annotation": {"number": 64, "value": 0}, "group": "control_change"}, {"time": 2546, "annotation": {"number": 64, "value": 127}, "group": "control_change"}, {"time": 2567, "annotation": {"number": 64, "value": 0}, "group": "control_change"}, {"time": 2570, "annotation": {"number": 64, "value": 127}, "group": "control_change"}, {"time": 2573, "annotation": {"number": 64, "value": 0}, "group": "control_change"}, {"time": 2574, "annotation": {"number": 64, "value": 127}, "group": "control_change"}, {"time": 2592, "annotation": {"number": 64, "value": 0}, "group": "control_change"}, {"time": 2595, "annotation": {"number": 64, "value": 127}, "group": "control_change"}, {"time": 2616, "annotation": {"number": 64, "value": 0}, "group": "control_change"}, {"time": 2618, "annotation": {"number": 64, "value": 127}, "group": "control_change"}, {"time": 2640, "annotation": {"number": 64, "value": 0}, "group": "control_change"}, {"time": 2642, "annotation": {"number": 64, "value": 127}, "group": "control_change"}, {"time": 2664, "annotation": {"number": 64, "value": 0}, "group": "control_change"}, {"time": 2666, "annotation": {"number": 64, "value": 127}, "group": "control_change"}, {"time": 2688, "annotation": {"number": 64, "value": 0}, "group": "control_change"}, {"time": 2690, "annotation": {"number": 64, "value": 127}, "group": "control_change"}, {"time": 2712, "annotation": {"number": 64, "value": 0}, "group": "control_change"}, {"time": 2715, "annotation": {"number": 64, "value": 127}, "group": "control_change"}, {"time": 2736, "annotation": {"number": 64, "value": 0}, "group": "control_change"}, {"time": 2739, "annotation": {"number": 64, "value": 127}, "group": "control_change"}, {"time": 2782, "annotation": {"number": 64, "value": 0}, "group": "control_change"}, {"time": 2788, "annotation": {"number": 64, "value": 127}, "group": "control_change"}, {"time": 2808, "annotation": {"number": 64, "value": 0}, "group": "control_change"}, {"time": 2812, "annotation": {"number": 64, "value": 127}, "group": "control_change"}, {"time": 2833, "annotation": {"number": 64, "value": 0}, "group": "control_change"}, {"time": 2837, "annotation": {"number": 64, "value": 127}, "group": "control_change"}, {"time": 2879, "annotation": {"number": 64, "value": 0}, "group": "control_change"}, {"time": 2885, "annotation": {"number": 64, "value": 127}, "group": "control_change"}, {"time": 2918, "annotation": {"number": 64, "value": 0}, "group": "control_change"}, {"time": 2924, "annotation": {"number": 64, "value": 127}, "group": "control_change"}, {"time": 2980, "annotation": {"number": 64, "value": 127}, "group": "control_change"}, {"time": 2982, "annotation": {"number": 64, "value": 0}, "group": "control_change"}, {"time": 2999, "annotation": {"number": 64, "value": 0}, "group": "control_change"}, {"time": 3002, "annotation": {"number": 64, "value": 127}, "group": "control_change"}, {"time": 3024, "annotation": {"number": 64, "value": 0}, "group": "control_change"}, {"time": 3027, "annotation": {"number": 64, "value": 127}, "group": "control_change"}, {"time": 3071, "annotation": {"number": 64, "value": 0}, "group": "control_change"}, {"time": 3075, "annotation": {"number": 64, "value": 127}, "group": "control_change"}, {"time": 3096, "annotation": {"number": 64, "value": 0}, "group": "control_change"}, {"time": 3099, "annotation": {"number": 64, "value": 127}, "group": "control_change"}, {"time": 3121, "annotation": {"number": 64, "value": 0}, "group": "control_change"}, {"time": 3124, "annotation": {"number": 64, "value": 127}, "group": "control_change"}, {"time": 3185, "annotation": {"number": 64, "value": 0}, "group": "control_change"}, {"time": 3190, "annotation": {"number": 64, "value": 127}, "group": "control_change"}, {"time": 3285, "annotation": {"number": 64, "value": 0}, "group": "control_change"}, {"time": 3286, "annotation": {"number": 64, "value": 127}, "group": "control_change"}, {"time": 3289, "annotation": {"number": 64, "value": 0}, "group": "control_change"}, {"time": 3291, "annotation": {"number": 64, "value": 127}, "group": "control_change"}, {"time": 3296, "annotation": {"number": 64, "value": 0}, "group": "control_change"}]}]}