{"metadata": {"schema_version": "0.2", "title": "None", "source_filename": "385.mid", "source_format": "midi"}, "resolution": 12, "tempos": [{"time": 0, "qpm": 115.48033081265433}], "time_signatures": [{"time": 0, "numerator": 1, "denominator": 4}], "tracks": [{"program": 0, "is_drum": false, "name": "MELODY", "notes": [{"time": 420, "pitch": 71, "duration": 4, "velocity": 99}, {"time": 426, "pitch": 71, "duration": 3, "velocity": 86}, {"time": 432, "pitch": 71, "duration": 3, "velocity": 92}, {"time": 438, "pitch": 71, "duration": 4, "velocity": 100}, {"time": 444, "pitch": 68, "duration": 7, "velocity": 117}, {"time": 456, "pitch": 66, "duration": 2, "velocity": 97}, {"time": 462, "pitch": 68, "duration": 23, "velocity": 122}, {"time": 486, "pitch": 64, "duration": 3, "velocity": 75}, {"time": 492, "pitch": 64, "duration": 5, "velocity": 77}, {"time": 498, "pitch": 66, "duration": 6, "velocity": 96}, {"time": 504, "pitch": 68, "duration": 13, "velocity": 93}, {"time": 516, "pitch": 61, "duration": 39, "velocity": 93}, {"time": 612, "pitch": 66, "duration": 5, "velocity": 127}, {"time": 618, "pitch": 68, "duration": 6, "velocity": 100}, {"time": 624, "pitch": 66, "duration": 4, "velocity": 100}, {"time": 630, "pitch": 68, "duration": 3, "velocity": 107}, {"time": 636, "pitch": 71, "duration": 9, "velocity": 100}, {"time": 648, "pitch": 68, "duration": 12, "velocity": 122}, {"time": 660, "pitch": 66, "duration": 18, "velocity": 112}, {"time": 678, "pitch": 64, "duration": 3, "velocity": 90}, {"time": 684, "pitch": 64, "duration": 4, "velocity": 90}, {"time": 690, "pitch": 61, "duration": 6, "velocity": 83}, {"time": 696, "pitch": 59, "duration": 13, "velocity": 90}, {"time": 708, "pitch": 68, "duration": 47, "velocity": 99}, {"time": 804, "pitch": 71, "duration": 3, "velocity": 99}, {"time": 810, "pitch": 71, "duration": 3, "velocity": 72}, {"time": 816, "pitch": 71, "duration": 3, "velocity": 70}, {"time": 822, "pitch": 71, "duration": 3, "velocity": 92}, {"time": 828, "pitch": 68, "duration": 7, "velocity": 96}, {"time": 840, "pitch": 66, "duration": 3, "velocity": 92}, {"time": 846, "pitch": 68, "duration": 22, "velocity": 112}, {"time": 870, "pitch": 64, "duration": 3, "velocity": 85}, {"time": 876, "pitch": 64, "duration": 4, "velocity": 82}, {"time": 882, "pitch": 66, "duration": 5, "velocity": 95}, {"time": 888, "pitch": 68, "duration": 10, "velocity": 95}, {"time": 900, "pitch": 61, "duration": 60, "velocity": 95}, {"time": 996, "pitch": 66, "duration": 4, "velocity": 107}, {"time": 1002, "pitch": 68, "duration": 3, "velocity": 95}, {"time": 1008, "pitch": 66, "duration": 4, "velocity": 97}, {"time": 1014, "pitch": 68, "duration": 3, "velocity": 102}, {"time": 1020, "pitch": 71, "duration": 10, "velocity": 86}, {"time": 1032, "pitch": 68, "duration": 10, "velocity": 90}, {"time": 1044, "pitch": 66, "duration": 11, "velocity": 83}, {"time": 1062, "pitch": 59, "duration": 5, "velocity": 85}, {"time": 1068, "pitch": 68, "duration": 5, "velocity": 99}, {"time": 1074, "pitch": 66, "duration": 5, "velocity": 102}, {"time": 1080, "pitch": 68, "duration": 12, "velocity": 102}, {"time": 1092, "pitch": 64, "duration": 34, "velocity": 102}, {"time": 1188, "pitch": 71, "duration": 4, "velocity": 99}, {"time": 1194, "pitch": 71, "duration": 3, "velocity": 86}, {"time": 1200, "pitch": 71, "duration": 3, "velocity": 92}, {"time": 1206, "pitch": 71, "duration": 4, "velocity": 100}, {"time": 1212, "pitch": 68, "duration": 7, "velocity": 117}, {"time": 1224, "pitch": 66, "duration": 2, "velocity": 97}, {"time": 1230, "pitch": 68, "duration": 23, "velocity": 122}, {"time": 1254, "pitch": 64, "duration": 3, "velocity": 75}, {"time": 1260, "pitch": 64, "duration": 5, "velocity": 77}, {"time": 1266, "pitch": 66, "duration": 6, "velocity": 96}, {"time": 1272, "pitch": 68, "duration": 13, "velocity": 93}, {"time": 1284, "pitch": 61, "duration": 39, "velocity": 93}, {"time": 1380, "pitch": 66, "duration": 5, "velocity": 127}, {"time": 1386, "pitch": 68, "duration": 6, "velocity": 100}, {"time": 1392, "pitch": 66, "duration": 4, "velocity": 100}, {"time": 1398, "pitch": 68, "duration": 3, "velocity": 107}, {"time": 1404, "pitch": 71, "duration": 9, "velocity": 100}, {"time": 1416, "pitch": 68, "duration": 12, "velocity": 122}, {"time": 1428, "pitch": 66, "duration": 18, "velocity": 112}, {"time": 1446, "pitch": 64, "duration": 3, "velocity": 90}, {"time": 1452, "pitch": 64, "duration": 4, "velocity": 90}, {"time": 1458, "pitch": 61, "duration": 6, "velocity": 83}, {"time": 1464, "pitch": 59, "duration": 13, "velocity": 90}, {"time": 1476, "pitch": 68, "duration": 47, "velocity": 99}, {"time": 1572, "pitch": 71, "duration": 3, "velocity": 99}, {"time": 1578, "pitch": 71, "duration": 3, "velocity": 72}, {"time": 1584, "pitch": 71, "duration": 3, "velocity": 70}, {"time": 1590, "pitch": 71, "duration": 3, "velocity": 92}, {"time": 1596, "pitch": 68, "duration": 7, "velocity": 96}, {"time": 1608, "pitch": 66, "duration": 3, "velocity": 92}, {"time": 1614, "pitch": 68, "duration": 22, "velocity": 112}, {"time": 1638, "pitch": 64, "duration": 3, "velocity": 85}, {"time": 1644, "pitch": 64, "duration": 4, "velocity": 82}, {"time": 1650, "pitch": 66, "duration": 5, "velocity": 95}, {"time": 1656, "pitch": 68, "duration": 10, "velocity": 95}, {"time": 1668, "pitch": 61, "duration": 60, "velocity": 95}, {"time": 1764, "pitch": 66, "duration": 4, "velocity": 107}, {"time": 1770, "pitch": 68, "duration": 3, "velocity": 95}, {"time": 1776, "pitch": 66, "duration": 4, "velocity": 97}, {"time": 1782, "pitch": 68, "duration": 3, "velocity": 102}, {"time": 1788, "pitch": 71, "duration": 10, "velocity": 86}, {"time": 1800, "pitch": 68, "duration": 10, "velocity": 90}, {"time": 1812, "pitch": 66, "duration": 11, "velocity": 83}, {"time": 1830, "pitch": 59, "duration": 5, "velocity": 85}, {"time": 1836, "pitch": 68, "duration": 5, "velocity": 99}, {"time": 1842, "pitch": 66, "duration": 5, "velocity": 102}, {"time": 1848, "pitch": 68, "duration": 12, "velocity": 102}, {"time": 1860, "pitch": 64, "duration": 34, "velocity": 102}, {"time": 1956, "pitch": 71, "duration": 13, "velocity": 100}, {"time": 1974, "pitch": 68, "duration": 4, "velocity": 97}, {"time": 1980, "pitch": 71, "duration": 11, "velocity": 102}, {"time": 1992, "pitch": 73, "duration": 10, "velocity": 122}, {"time": 2004, "pitch": 76, "duration": 11, "velocity": 127}, {"time": 2022, "pitch": 73, "duration": 4, "velocity": 107}, {"time": 2028, "pitch": 76, "duration": 7, "velocity": 99}, {"time": 2040, "pitch": 73, "duration": 8, "velocity": 107}, {"time": 2052, "pitch": 71, "duration": 9, "velocity": 102}, {"time": 2064, "pitch": 71, "duration": 5, "velocity": 99}, {"time": 2070, "pitch": 68, "duration": 4, "velocity": 99}, {"time": 2076, "pitch": 71, "duration": 8, "velocity": 100}, {"time": 2088, "pitch": 73, "duration": 5, "velocity": 127}, {"time": 2094, "pitch": 71, "duration": 6, "velocity": 99}, {"time": 2100, "pitch": 68, "duration": 32, "velocity": 100}, {"time": 2148, "pitch": 66, "duration": 4, "velocity": 122}, {"time": 2154, "pitch": 68, "duration": 4, "velocity": 100}, {"time": 2160, "pitch": 66, "duration": 3, "velocity": 99}, {"time": 2166, "pitch": 68, "duration": 3, "velocity": 122}, {"time": 2172, "pitch": 71, "duration": 8, "velocity": 97}, {"time": 2184, "pitch": 68, "duration": 8, "velocity": 127}, {"time": 2196, "pitch": 66, "duration": 12, "velocity": 100}, {"time": 2214, "pitch": 61, "duration": 4, "velocity": 93}, {"time": 2220, "pitch": 64, "duration": 12, "velocity": 96}, {"time": 2232, "pitch": 68, "duration": 13, "velocity": 107}, {"time": 2244, "pitch": 66, "duration": 62, "velocity": 117}, {"time": 2340, "pitch": 68, "duration": 13, "velocity": 112}, {"time": 2358, "pitch": 68, "duration": 4, "velocity": 107}, {"time": 2364, "pitch": 66, "duration": 8, "velocity": 112}, {"time": 2376, "pitch": 68, "duration": 8, "velocity": 122}, {"time": 2388, "pitch": 71, "duration": 13, "velocity": 102}, {"time": 2406, "pitch": 68, "duration": 4, "velocity": 99}, {"time": 2412, "pitch": 71, "duration": 9, "velocity": 102}, {"time": 2424, "pitch": 73, "duration": 7, "velocity": 122}, {"time": 2436, "pitch": 76, "duration": 9, "velocity": 127}, {"time": 2448, "pitch": 76, "duration": 5, "velocity": 117}, {"time": 2454, "pitch": 73, "duration": 3, "velocity": 112}, {"time": 2460, "pitch": 76, "duration": 6, "velocity": 107}, {"time": 2472, "pitch": 78, "duration": 9, "velocity": 127}, {"time": 2484, "pitch": 73, "duration": 16, "velocity": 127}, {"time": 2532, "pitch": 76, "duration": 3, "velocity": 127}, {"time": 2538, "pitch": 76, "duration": 2, "velocity": 93}, {"time": 2544, "pitch": 76, "duration": 2, "velocity": 107}, {"time": 2550, "pitch": 76, "duration": 2, "velocity": 99}, {"time": 2556, "pitch": 73, "duration": 7, "velocity": 127}, {"time": 2568, "pitch": 71, "duration": 7, "velocity": 127}, {"time": 2580, "pitch": 66, "duration": 4, "velocity": 117}, {"time": 2586, "pitch": 66, "duration": 8, "velocity": 100}, {"time": 2598, "pitch": 66, "duration": 3, "velocity": 122}, {"time": 2604, "pitch": 66, "duration": 8, "velocity": 112}, {"time": 2616, "pitch": 68, "duration": 9, "velocity": 127}, {"time": 2628, "pitch": 71, "duration": 43, "velocity": 117}, {"time": 2718, "pitch": 71, "duration": 7, "velocity": 112}, {"time": 2730, "pitch": 71, "duration": 3, "velocity": 100}, {"time": 2736, "pitch": 71, "duration": 3, "velocity": 95}, {"time": 2742, "pitch": 71, "duration": 3, "velocity": 100}, {"time": 2748, "pitch": 68, "duration": 7, "velocity": 122}, {"time": 2760, "pitch": 66, "duration": 9, "velocity": 117}, {"time": 2772, "pitch": 68, "duration": 10, "velocity": 127}, {"time": 2790, "pitch": 64, "duration": 3, "velocity": 89}, {"time": 2796, "pitch": 64, "duration": 4, "velocity": 97}, {"time": 2802, "pitch": 66, "duration": 4, "velocity": 112}, {"time": 2808, "pitch": 68, "duration": 9, "velocity": 117}, {"time": 2820, "pitch": 61, "duration": 30, "velocity": 99}, {"time": 2916, "pitch": 66, "duration": 4, "velocity": 127}, {"time": 2922, "pitch": 68, "duration": 3, "velocity": 102}, {"time": 2928, "pitch": 66, "duration": 3, "velocity": 112}, {"time": 2934, "pitch": 68, "duration": 3, "velocity": 122}, {"time": 2940, "pitch": 71, "duration": 7, "velocity": 102}, {"time": 2952, "pitch": 68, "duration": 9, "velocity": 127}, {"time": 2964, "pitch": 66, "duration": 7, "velocity": 117}, {"time": 2982, "pitch": 64, "duration": 2, "velocity": 93}, {"time": 2988, "pitch": 64, "duration": 4, "velocity": 97}, {"time": 2994, "pitch": 61, "duration": 4, "velocity": 112}, {"time": 3000, "pitch": 59, "duration": 10, "velocity": 102}, {"time": 3012, "pitch": 68, "duration": 41, "velocity": 112}, {"time": 3108, "pitch": 71, "duration": 3, "velocity": 100}, {"time": 3114, "pitch": 71, "duration": 3, "velocity": 90}, {"time": 3120, "pitch": 71, "duration": 2, "velocity": 93}, {"time": 3126, "pitch": 71, "duration": 2, "velocity": 99}, {"time": 3132, "pitch": 68, "duration": 7, "velocity": 127}, {"time": 3144, "pitch": 66, "duration": 3, "velocity": 117}, {"time": 3150, "pitch": 68, "duration": 19, "velocity": 127}, {"time": 3174, "pitch": 64, "duration": 3, "velocity": 100}, {"time": 3180, "pitch": 64, "duration": 6, "velocity": 93}, {"time": 3186, "pitch": 66, "duration": 5, "velocity": 102}, {"time": 3192, "pitch": 68, "duration": 9, "velocity": 117}, {"time": 3204, "pitch": 61, "duration": 74, "velocity": 112}, {"time": 3300, "pitch": 66, "duration": 4, "velocity": 127}, {"time": 3306, "pitch": 68, "duration": 4, "velocity": 112}, {"time": 3312, "pitch": 66, "duration": 3, "velocity": 112}, {"time": 3318, "pitch": 68, "duration": 3, "velocity": 122}, {"time": 3324, "pitch": 71, "duration": 8, "velocity": 102}, {"time": 3336, "pitch": 68, "duration": 8, "velocity": 122}, {"time": 3348, "pitch": 66, "duration": 11, "velocity": 117}, {"time": 3366, "pitch": 59, "duration": 4, "velocity": 93}, {"time": 3372, "pitch": 68, "duration": 4, "velocity": 117}, {"time": 3378, "pitch": 66, "duration": 3, "velocity": 127}, {"time": 3384, "pitch": 68, "duration": 9, "velocity": 112}, {"time": 3396, "pitch": 64, "duration": 51, "velocity": 112}, {"time": 3876, "pitch": 71, "duration": 4, "velocity": 99}, {"time": 3882, "pitch": 71, "duration": 3, "velocity": 86}, {"time": 3888, "pitch": 71, "duration": 3, "velocity": 92}, {"time": 3894, "pitch": 71, "duration": 4, "velocity": 100}, {"time": 3900, "pitch": 68, "duration": 7, "velocity": 117}, {"time": 3912, "pitch": 66, "duration": 2, "velocity": 97}, {"time": 3918, "pitch": 68, "duration": 23, "velocity": 122}, {"time": 3942, "pitch": 64, "duration": 3, "velocity": 75}, {"time": 3948, "pitch": 64, "duration": 5, "velocity": 77}, {"time": 3954, "pitch": 66, "duration": 6, "velocity": 96}, {"time": 3960, "pitch": 68, "duration": 13, "velocity": 93}, {"time": 3972, "pitch": 61, "duration": 39, "velocity": 93}, {"time": 4068, "pitch": 66, "duration": 5, "velocity": 127}, {"time": 4074, "pitch": 68, "duration": 6, "velocity": 100}, {"time": 4080, "pitch": 66, "duration": 4, "velocity": 100}, {"time": 4086, "pitch": 68, "duration": 3, "velocity": 107}, {"time": 4092, "pitch": 71, "duration": 9, "velocity": 100}, {"time": 4104, "pitch": 68, "duration": 12, "velocity": 122}, {"time": 4116, "pitch": 66, "duration": 18, "velocity": 112}, {"time": 4134, "pitch": 64, "duration": 3, "velocity": 90}, {"time": 4140, "pitch": 64, "duration": 4, "velocity": 90}, {"time": 4146, "pitch": 61, "duration": 6, "velocity": 83}, {"time": 4152, "pitch": 59, "duration": 13, "velocity": 90}, {"time": 4164, "pitch": 68, "duration": 47, "velocity": 99}, {"time": 4260, "pitch": 71, "duration": 3, "velocity": 99}, {"time": 4266, "pitch": 71, "duration": 3, "velocity": 72}, {"time": 4272, "pitch": 71, "duration": 3, "velocity": 70}, {"time": 4278, "pitch": 71, "duration": 3, "velocity": 92}, {"time": 4284, "pitch": 68, "duration": 7, "velocity": 96}, {"time": 4296, "pitch": 66, "duration": 3, "velocity": 92}, {"time": 4302, "pitch": 68, "duration": 22, "velocity": 112}, {"time": 4326, "pitch": 64, "duration": 3, "velocity": 85}, {"time": 4332, "pitch": 64, "duration": 4, "velocity": 82}, {"time": 4338, "pitch": 66, "duration": 5, "velocity": 95}, {"time": 4344, "pitch": 68, "duration": 10, "velocity": 95}, {"time": 4356, "pitch": 61, "duration": 60, "velocity": 95}, {"time": 4452, "pitch": 66, "duration": 4, "velocity": 107}, {"time": 4458, "pitch": 68, "duration": 3, "velocity": 95}, {"time": 4464, "pitch": 66, "duration": 4, "velocity": 97}, {"time": 4470, "pitch": 68, "duration": 3, "velocity": 102}, {"time": 4476, "pitch": 71, "duration": 10, "velocity": 86}, {"time": 4488, "pitch": 68, "duration": 10, "velocity": 90}, {"time": 4500, "pitch": 66, "duration": 11, "velocity": 83}, {"time": 4518, "pitch": 59, "duration": 5, "velocity": 85}, {"time": 4524, "pitch": 68, "duration": 5, "velocity": 99}, {"time": 4530, "pitch": 66, "duration": 5, "velocity": 102}, {"time": 4536, "pitch": 68, "duration": 12, "velocity": 102}, {"time": 4548, "pitch": 64, "duration": 34, "velocity": 102}, {"time": 4644, "pitch": 71, "duration": 13, "velocity": 100}, {"time": 4662, "pitch": 68, "duration": 4, "velocity": 97}, {"time": 4668, "pitch": 71, "duration": 11, "velocity": 102}, {"time": 4680, "pitch": 73, "duration": 10, "velocity": 122}, {"time": 4692, "pitch": 76, "duration": 11, "velocity": 127}, {"time": 4710, "pitch": 73, "duration": 4, "velocity": 107}, {"time": 4716, "pitch": 76, "duration": 7, "velocity": 99}, {"time": 4728, "pitch": 73, "duration": 8, "velocity": 107}, {"time": 4740, "pitch": 71, "duration": 9, "velocity": 102}, {"time": 4752, "pitch": 71, "duration": 5, "velocity": 99}, {"time": 4758, "pitch": 68, "duration": 4, "velocity": 99}, {"time": 4764, "pitch": 71, "duration": 8, "velocity": 100}, {"time": 4776, "pitch": 73, "duration": 5, "velocity": 127}, {"time": 4782, "pitch": 71, "duration": 6, "velocity": 99}, {"time": 4788, "pitch": 68, "duration": 32, "velocity": 100}, {"time": 4836, "pitch": 66, "duration": 4, "velocity": 122}, {"time": 4842, "pitch": 68, "duration": 4, "velocity": 100}, {"time": 4848, "pitch": 66, "duration": 3, "velocity": 99}, {"time": 4854, "pitch": 68, "duration": 3, "velocity": 122}, {"time": 4860, "pitch": 71, "duration": 8, "velocity": 97}, {"time": 4872, "pitch": 68, "duration": 8, "velocity": 127}, {"time": 4884, "pitch": 66, "duration": 12, "velocity": 100}, {"time": 4902, "pitch": 61, "duration": 4, "velocity": 93}, {"time": 4908, "pitch": 64, "duration": 12, "velocity": 96}, {"time": 4920, "pitch": 68, "duration": 13, "velocity": 107}, {"time": 4932, "pitch": 66, "duration": 62, "velocity": 117}, {"time": 5028, "pitch": 68, "duration": 13, "velocity": 112}, {"time": 5046, "pitch": 68, "duration": 4, "velocity": 107}, {"time": 5052, "pitch": 66, "duration": 8, "velocity": 112}, {"time": 5064, "pitch": 68, "duration": 8, "velocity": 122}, {"time": 5076, "pitch": 71, "duration": 13, "velocity": 102}, {"time": 5094, "pitch": 68, "duration": 4, "velocity": 99}, {"time": 5100, "pitch": 71, "duration": 9, "velocity": 102}, {"time": 5112, "pitch": 73, "duration": 7, "velocity": 122}, {"time": 5124, "pitch": 76, "duration": 9, "velocity": 127}, {"time": 5136, "pitch": 76, "duration": 5, "velocity": 117}, {"time": 5142, "pitch": 73, "duration": 3, "velocity": 112}, {"time": 5148, "pitch": 76, "duration": 6, "velocity": 107}, {"time": 5160, "pitch": 78, "duration": 9, "velocity": 127}, {"time": 5172, "pitch": 73, "duration": 16, "velocity": 127}, {"time": 5220, "pitch": 76, "duration": 3, "velocity": 127}, {"time": 5226, "pitch": 76, "duration": 2, "velocity": 93}, {"time": 5232, "pitch": 76, "duration": 2, "velocity": 107}, {"time": 5238, "pitch": 76, "duration": 2, "velocity": 99}, {"time": 5244, "pitch": 73, "duration": 7, "velocity": 127}, {"time": 5256, "pitch": 71, "duration": 7, "velocity": 127}, {"time": 5268, "pitch": 66, "duration": 4, "velocity": 117}, {"time": 5274, "pitch": 66, "duration": 8, "velocity": 100}, {"time": 5286, "pitch": 66, "duration": 3, "velocity": 122}, {"time": 5292, "pitch": 66, "duration": 8, "velocity": 112}, {"time": 5304, "pitch": 68, "duration": 9, "velocity": 127}, {"time": 5316, "pitch": 71, "duration": 43, "velocity": 117}, {"time": 5406, "pitch": 71, "duration": 7, "velocity": 112}, {"time": 5418, "pitch": 71, "duration": 3, "velocity": 100}, {"time": 5424, "pitch": 71, "duration": 3, "velocity": 95}, {"time": 5430, "pitch": 71, "duration": 3, "velocity": 100}, {"time": 5436, "pitch": 68, "duration": 7, "velocity": 122}, {"time": 5448, "pitch": 66, "duration": 9, "velocity": 117}, {"time": 5460, "pitch": 68, "duration": 10, "velocity": 127}, {"time": 5478, "pitch": 64, "duration": 3, "velocity": 89}, {"time": 5484, "pitch": 64, "duration": 4, "velocity": 97}, {"time": 5490, "pitch": 66, "duration": 4, "velocity": 112}, {"time": 5496, "pitch": 68, "duration": 9, "velocity": 117}, {"time": 5508, "pitch": 61, "duration": 30, "velocity": 99}, {"time": 5604, "pitch": 66, "duration": 4, "velocity": 127}, {"time": 5610, "pitch": 68, "duration": 3, "velocity": 102}, {"time": 5616, "pitch": 66, "duration": 3, "velocity": 112}, {"time": 5622, "pitch": 68, "duration": 3, "velocity": 122}, {"time": 5628, "pitch": 71, "duration": 7, "velocity": 102}, {"time": 5640, "pitch": 68, "duration": 9, "velocity": 127}, {"time": 5652, "pitch": 66, "duration": 7, "velocity": 117}, {"time": 5670, "pitch": 64, "duration": 2, "velocity": 93}, {"time": 5676, "pitch": 64, "duration": 4, "velocity": 97}, {"time": 5682, "pitch": 61, "duration": 4, "velocity": 112}, {"time": 5688, "pitch": 59, "duration": 10, "velocity": 102}, {"time": 5700, "pitch": 68, "duration": 41, "velocity": 112}, {"time": 5796, "pitch": 71, "duration": 3, "velocity": 100}, {"time": 5802, "pitch": 71, "duration": 3, "velocity": 90}, {"time": 5808, "pitch": 71, "duration": 2, "velocity": 93}, {"time": 5814, "pitch": 71, "duration": 2, "velocity": 99}, {"time": 5820, "pitch": 68, "duration": 7, "velocity": 127}, {"time": 5832, "pitch": 66, "duration": 3, "velocity": 117}, {"time": 5838, "pitch": 68, "duration": 19, "velocity": 127}, {"time": 5862, "pitch": 64, "duration": 3, "velocity": 100}, {"time": 5868, "pitch": 64, "duration": 6, "velocity": 93}, {"time": 5874, "pitch": 66, "duration": 5, "velocity": 102}, {"time": 5880, "pitch": 68, "duration": 9, "velocity": 117}, {"time": 5892, "pitch": 61, "duration": 74, "velocity": 112}, {"time": 5988, "pitch": 66, "duration": 4, "velocity": 127}, {"time": 5994, "pitch": 68, "duration": 4, "velocity": 112}, {"time": 6000, "pitch": 66, "duration": 3, "velocity": 112}, {"time": 6006, "pitch": 68, "duration": 3, "velocity": 122}, {"time": 6012, "pitch": 71, "duration": 8, "velocity": 102}, {"time": 6024, "pitch": 68, "duration": 8, "velocity": 122}, {"time": 6036, "pitch": 66, "duration": 11, "velocity": 117}, {"time": 6054, "pitch": 59, "duration": 4, "velocity": 93}, {"time": 6060, "pitch": 68, "duration": 4, "velocity": 117}, {"time": 6066, "pitch": 66, "duration": 3, "velocity": 127}, {"time": 6072, "pitch": 68, "duration": 9, "velocity": 112}, {"time": 6084, "pitch": 64, "duration": 51, "velocity": 112}, {"time": 6180, "pitch": 66, "duration": 4, "velocity": 127}, {"time": 6186, "pitch": 68, "duration": 4, "velocity": 112}, {"time": 6192, "pitch": 66, "duration": 3, "velocity": 112}, {"time": 6198, "pitch": 68, "duration": 3, "velocity": 122}, {"time": 6204, "pitch": 71, "duration": 8, "velocity": 102}, {"time": 6216, "pitch": 68, "duration": 8, "velocity": 122}, {"time": 6228, "pitch": 66, "duration": 11, "velocity": 117}, {"time": 6246, "pitch": 59, "duration": 4, "velocity": 93}, {"time": 6252, "pitch": 68, "duration": 4, "velocity": 117}, {"time": 6258, "pitch": 66, "duration": 3, "velocity": 127}, {"time": 6264, "pitch": 68, "duration": 9, "velocity": 112}, {"time": 6276, "pitch": 64, "duration": 48, "velocity": 112}]}, {"program": 0, "is_drum": false, "name": "BRIDGE", "notes": [{"time": 36, "pitch": 59, "duration": 15, "velocity": 92}, {"time": 36, "pitch": 68, "duration": 13, "velocity": 122}, {"time": 54, "pitch": 59, "duration": 6, "velocity": 86}, {"time": 54, "pitch": 68, "duration": 4, "velocity": 99}, {"time": 60, "pitch": 61, "duration": 11, "velocity": 96}, {"time": 60, "pitch": 66, "duration": 9, "velocity": 122}, {"time": 72, "pitch": 59, "duration": 10, "velocity": 82}, {"time": 72, "pitch": 64, "duration": 11, "velocity": 93}, {"time": 84, "pitch": 59, "duration": 3, "velocity": 90}, {"time": 84, "pitch": 68, "duration": 14, "velocity": 112}, {"time": 90, "pitch": 59, "duration": 9, "velocity": 72}, {"time": 102, "pitch": 59, "duration": 5, "velocity": 86}, {"time": 102, "pitch": 68, "duration": 4, "velocity": 112}, {"time": 108, "pitch": 61, "duration": 12, "velocity": 99}, {"time": 108, "pitch": 66, "duration": 8, "velocity": 102}, {"time": 120, "pitch": 59, "duration": 10, "velocity": 82}, {"time": 120, "pitch": 64, "duration": 8, "velocity": 93}, {"time": 132, "pitch": 59, "duration": 3, "velocity": 83}, {"time": 132, "pitch": 68, "duration": 13, "velocity": 112}, {"time": 138, "pitch": 59, "duration": 9, "velocity": 79}, {"time": 150, "pitch": 59, "duration": 6, "velocity": 85}, {"time": 150, "pitch": 68, "duration": 4, "velocity": 107}, {"time": 156, "pitch": 61, "duration": 12, "velocity": 93}, {"time": 156, "pitch": 66, "duration": 8, "velocity": 112}, {"time": 168, "pitch": 59, "duration": 10, "velocity": 89}, {"time": 168, "pitch": 64, "duration": 9, "velocity": 97}, {"time": 180, "pitch": 59, "duration": 16, "velocity": 93}, {"time": 180, "pitch": 68, "duration": 39, "velocity": 117}, {"time": 198, "pitch": 59, "duration": 5, "velocity": 86}, {"time": 204, "pitch": 61, "duration": 12, "velocity": 102}, {"time": 216, "pitch": 59, "duration": 10, "velocity": 86}, {"time": 228, "pitch": 59, "duration": 14, "velocity": 96}, {"time": 228, "pitch": 68, "duration": 13, "velocity": 112}, {"time": 246, "pitch": 59, "duration": 6, "velocity": 86}, {"time": 246, "pitch": 68, "duration": 4, "velocity": 99}, {"time": 252, "pitch": 61, "duration": 12, "velocity": 100}, {"time": 252, "pitch": 66, "duration": 9, "velocity": 100}, {"time": 264, "pitch": 59, "duration": 11, "velocity": 83}, {"time": 264, "pitch": 64, "duration": 9, "velocity": 95}, {"time": 276, "pitch": 59, "duration": 3, "velocity": 82}, {"time": 276, "pitch": 68, "duration": 14, "velocity": 107}, {"time": 282, "pitch": 59, "duration": 9, "velocity": 72}, {"time": 294, "pitch": 59, "duration": 6, "velocity": 82}, {"time": 294, "pitch": 68, "duration": 4, "velocity": 102}, {"time": 300, "pitch": 61, "duration": 12, "velocity": 93}, {"time": 300, "pitch": 66, "duration": 9, "velocity": 97}, {"time": 312, "pitch": 59, "duration": 9, "velocity": 74}, {"time": 312, "pitch": 64, "duration": 12, "velocity": 89}, {"time": 324, "pitch": 59, "duration": 3, "velocity": 86}, {"time": 324, "pitch": 68, "duration": 14, "velocity": 107}, {"time": 330, "pitch": 59, "duration": 9, "velocity": 70}, {"time": 342, "pitch": 59, "duration": 6, "velocity": 86}, {"time": 342, "pitch": 68, "duration": 5, "velocity": 107}, {"time": 348, "pitch": 61, "duration": 12, "velocity": 86}, {"time": 348, "pitch": 66, "duration": 12, "velocity": 112}, {"time": 360, "pitch": 59, "duration": 22, "velocity": 76}, {"time": 360, "pitch": 64, "duration": 13, "velocity": 89}, {"time": 372, "pitch": 59, "duration": 10, "velocity": 93}, {"time": 372, "pitch": 68, "duration": 36, "velocity": 117}, {"time": 390, "pitch": 59, "duration": 6, "velocity": 89}, {"time": 396, "pitch": 61, "duration": 11, "velocity": 81}, {"time": 408, "pitch": 59, "duration": 13, "velocity": 90}, {"time": 420, "pitch": 59, "duration": 1, "velocity": 85}, {"time": 438, "pitch": 59, "duration": 7, "velocity": 88}, {"time": 444, "pitch": 61, "duration": 13, "velocity": 89}, {"time": 456, "pitch": 59, "duration": 27, "velocity": 85}, {"time": 486, "pitch": 59, "duration": 7, "velocity": 70}, {"time": 492, "pitch": 61, "duration": 12, "velocity": 79}, {"time": 504, "pitch": 59, "duration": 15, "velocity": 69}, {"time": 534, "pitch": 61, "duration": 5, "velocity": 89}, {"time": 540, "pitch": 66, "duration": 13, "velocity": 100}, {"time": 552, "pitch": 64, "duration": 6, "velocity": 75}, {"time": 558, "pitch": 61, "duration": 7, "velocity": 78}, {"time": 564, "pitch": 66, "duration": 28, "velocity": 97}, {"time": 570, "pitch": 64, "duration": 9, "velocity": 85}, {"time": 582, "pitch": 66, "duration": 10, "velocity": 95}, {"time": 594, "pitch": 64, "duration": 6, "velocity": 76}, {"time": 600, "pitch": 61, "duration": 7, "velocity": 82}, {"time": 606, "pitch": 64, "duration": 8, "velocity": 72}, {"time": 612, "pitch": 66, "duration": 32, "velocity": 97}, {"time": 726, "pitch": 59, "duration": 4, "velocity": 93}, {"time": 732, "pitch": 61, "duration": 12, "velocity": 99}, {"time": 744, "pitch": 59, "duration": 13, "velocity": 90}, {"time": 756, "pitch": 59, "duration": 1, "velocity": 69}, {"time": 774, "pitch": 59, "duration": 7, "velocity": 81}, {"time": 780, "pitch": 61, "duration": 13, "velocity": 99}, {"time": 792, "pitch": 59, "duration": 15, "velocity": 89}, {"time": 822, "pitch": 59, "duration": 5, "velocity": 73}, {"time": 828, "pitch": 61, "duration": 13, "velocity": 99}, {"time": 840, "pitch": 59, "duration": 26, "velocity": 75}, {"time": 870, "pitch": 59, "duration": 8, "velocity": 69}, {"time": 876, "pitch": 61, "duration": 12, "velocity": 93}, {"time": 888, "pitch": 59, "duration": 12, "velocity": 63}, {"time": 900, "pitch": 66, "duration": 15, "velocity": 95}, {"time": 918, "pitch": 66, "duration": 5, "velocity": 100}, {"time": 924, "pitch": 64, "duration": 12, "velocity": 88}, {"time": 936, "pitch": 61, "duration": 10, "velocity": 81}, {"time": 948, "pitch": 66, "duration": 17, "velocity": 96}, {"time": 966, "pitch": 66, "duration": 7, "velocity": 95}, {"time": 972, "pitch": 64, "duration": 13, "velocity": 88}, {"time": 984, "pitch": 61, "duration": 13, "velocity": 74}, {"time": 1092, "pitch": 59, "duration": 15, "velocity": 95}, {"time": 1110, "pitch": 59, "duration": 7, "velocity": 86}, {"time": 1116, "pitch": 61, "duration": 12, "velocity": 96}, {"time": 1128, "pitch": 59, "duration": 16, "velocity": 83}, {"time": 1146, "pitch": 59, "duration": 9, "velocity": 76}, {"time": 1158, "pitch": 59, "duration": 7, "velocity": 83}, {"time": 1164, "pitch": 61, "duration": 13, "velocity": 95}, {"time": 1176, "pitch": 59, "duration": 11, "velocity": 89}, {"time": 1188, "pitch": 59, "duration": 13, "velocity": 75}, {"time": 1188, "pitch": 59, "duration": 13, "velocity": 85}, {"time": 1206, "pitch": 59, "duration": 3, "velocity": 88}, {"time": 1212, "pitch": 61, "duration": 13, "velocity": 89}, {"time": 1224, "pitch": 59, "duration": 27, "velocity": 85}, {"time": 1254, "pitch": 59, "duration": 7, "velocity": 70}, {"time": 1260, "pitch": 61, "duration": 12, "velocity": 79}, {"time": 1272, "pitch": 59, "duration": 15, "velocity": 69}, {"time": 1302, "pitch": 61, "duration": 5, "velocity": 89}, {"time": 1308, "pitch": 66, "duration": 13, "velocity": 100}, {"time": 1320, "pitch": 64, "duration": 6, "velocity": 75}, {"time": 1326, "pitch": 61, "duration": 7, "velocity": 78}, {"time": 1332, "pitch": 66, "duration": 28, "velocity": 97}, {"time": 1338, "pitch": 64, "duration": 9, "velocity": 85}, {"time": 1350, "pitch": 66, "duration": 10, "velocity": 95}, {"time": 1362, "pitch": 64, "duration": 6, "velocity": 76}, {"time": 1368, "pitch": 61, "duration": 7, "velocity": 82}, {"time": 1374, "pitch": 64, "duration": 8, "velocity": 72}, {"time": 1380, "pitch": 66, "duration": 32, "velocity": 97}, {"time": 1494, "pitch": 59, "duration": 4, "velocity": 93}, {"time": 1500, "pitch": 61, "duration": 12, "velocity": 99}, {"time": 1512, "pitch": 59, "duration": 13, "velocity": 90}, {"time": 1524, "pitch": 59, "duration": 1, "velocity": 69}, {"time": 1542, "pitch": 59, "duration": 7, "velocity": 81}, {"time": 1548, "pitch": 61, "duration": 13, "velocity": 99}, {"time": 1560, "pitch": 59, "duration": 15, "velocity": 89}, {"time": 1590, "pitch": 59, "duration": 5, "velocity": 73}, {"time": 1596, "pitch": 61, "duration": 13, "velocity": 99}, {"time": 1608, "pitch": 59, "duration": 26, "velocity": 75}, {"time": 1638, "pitch": 59, "duration": 8, "velocity": 69}, {"time": 1644, "pitch": 61, "duration": 12, "velocity": 93}, {"time": 1656, "pitch": 59, "duration": 12, "velocity": 63}, {"time": 1668, "pitch": 66, "duration": 15, "velocity": 95}, {"time": 1686, "pitch": 66, "duration": 5, "velocity": 100}, {"time": 1692, "pitch": 64, "duration": 12, "velocity": 88}, {"time": 1704, "pitch": 61, "duration": 10, "velocity": 81}, {"time": 1716, "pitch": 66, "duration": 17, "velocity": 96}, {"time": 1734, "pitch": 66, "duration": 7, "velocity": 95}, {"time": 1740, "pitch": 64, "duration": 13, "velocity": 88}, {"time": 1752, "pitch": 61, "duration": 13, "velocity": 74}, {"time": 1860, "pitch": 59, "duration": 15, "velocity": 95}, {"time": 1878, "pitch": 59, "duration": 7, "velocity": 86}, {"time": 1884, "pitch": 61, "duration": 12, "velocity": 96}, {"time": 1896, "pitch": 59, "duration": 16, "velocity": 83}, {"time": 1914, "pitch": 59, "duration": 9, "velocity": 76}, {"time": 1926, "pitch": 59, "duration": 7, "velocity": 83}, {"time": 1932, "pitch": 61, "duration": 13, "velocity": 95}, {"time": 1944, "pitch": 59, "duration": 11, "velocity": 89}, {"time": 2244, "pitch": 59, "duration": 14, "velocity": 102}, {"time": 2262, "pitch": 59, "duration": 6, "velocity": 90}, {"time": 2268, "pitch": 61, "duration": 11, "velocity": 112}, {"time": 2280, "pitch": 59, "duration": 9, "velocity": 93}, {"time": 2292, "pitch": 59, "duration": 3, "velocity": 85}, {"time": 2298, "pitch": 59, "duration": 3, "velocity": 76}, {"time": 2304, "pitch": 59, "duration": 3, "velocity": 90}, {"time": 2310, "pitch": 59, "duration": 4, "velocity": 93}, {"time": 2316, "pitch": 61, "duration": 12, "velocity": 122}, {"time": 2328, "pitch": 59, "duration": 14, "velocity": 97}, {"time": 2628, "pitch": 71, "duration": 2, "velocity": 107}, {"time": 2634, "pitch": 71, "duration": 2, "velocity": 84}, {"time": 2640, "pitch": 71, "duration": 2, "velocity": 83}, {"time": 2640, "pitch": 71, "duration": 2, "velocity": 90}, {"time": 2646, "pitch": 71, "duration": 2, "velocity": 102}, {"time": 2652, "pitch": 73, "duration": 3, "velocity": 122}, {"time": 2664, "pitch": 71, "duration": 5, "velocity": 95}, {"time": 2676, "pitch": 71, "duration": 2, "velocity": 93}, {"time": 2682, "pitch": 71, "duration": 1, "velocity": 107}, {"time": 2688, "pitch": 71, "duration": 2, "velocity": 82}, {"time": 2688, "pitch": 71, "duration": 2, "velocity": 93}, {"time": 2694, "pitch": 71, "duration": 2, "velocity": 93}, {"time": 2700, "pitch": 73, "duration": 13, "velocity": 112}, {"time": 2712, "pitch": 71, "duration": 2, "velocity": 90}, {"time": 2724, "pitch": 59, "duration": 13, "velocity": 85}, {"time": 2742, "pitch": 59, "duration": 7, "velocity": 88}, {"time": 2748, "pitch": 61, "duration": 13, "velocity": 89}, {"time": 2760, "pitch": 59, "duration": 27, "velocity": 85}, {"time": 2790, "pitch": 59, "duration": 7, "velocity": 70}, {"time": 2796, "pitch": 61, "duration": 12, "velocity": 79}, {"time": 2808, "pitch": 59, "duration": 15, "velocity": 69}, {"time": 2838, "pitch": 61, "duration": 5, "velocity": 89}, {"time": 2844, "pitch": 66, "duration": 13, "velocity": 100}, {"time": 2856, "pitch": 64, "duration": 6, "velocity": 75}, {"time": 2862, "pitch": 61, "duration": 7, "velocity": 78}, {"time": 2868, "pitch": 66, "duration": 28, "velocity": 97}, {"time": 2874, "pitch": 64, "duration": 9, "velocity": 85}, {"time": 2886, "pitch": 66, "duration": 10, "velocity": 95}, {"time": 2898, "pitch": 64, "duration": 6, "velocity": 76}, {"time": 2904, "pitch": 61, "duration": 7, "velocity": 82}, {"time": 2910, "pitch": 64, "duration": 8, "velocity": 72}, {"time": 2916, "pitch": 66, "duration": 32, "velocity": 97}, {"time": 3030, "pitch": 59, "duration": 4, "velocity": 93}, {"time": 3036, "pitch": 61, "duration": 12, "velocity": 99}, {"time": 3048, "pitch": 59, "duration": 13, "velocity": 90}, {"time": 3060, "pitch": 59, "duration": 1, "velocity": 69}, {"time": 3078, "pitch": 59, "duration": 7, "velocity": 81}, {"time": 3084, "pitch": 61, "duration": 13, "velocity": 99}, {"time": 3096, "pitch": 59, "duration": 15, "velocity": 89}, {"time": 3126, "pitch": 59, "duration": 5, "velocity": 73}, {"time": 3132, "pitch": 61, "duration": 13, "velocity": 99}, {"time": 3144, "pitch": 59, "duration": 26, "velocity": 75}, {"time": 3174, "pitch": 59, "duration": 8, "velocity": 69}, {"time": 3180, "pitch": 61, "duration": 12, "velocity": 93}, {"time": 3192, "pitch": 59, "duration": 12, "velocity": 63}, {"time": 3204, "pitch": 66, "duration": 15, "velocity": 95}, {"time": 3222, "pitch": 66, "duration": 5, "velocity": 100}, {"time": 3228, "pitch": 64, "duration": 12, "velocity": 88}, {"time": 3240, "pitch": 61, "duration": 10, "velocity": 81}, {"time": 3252, "pitch": 66, "duration": 17, "velocity": 96}, {"time": 3270, "pitch": 66, "duration": 7, "velocity": 95}, {"time": 3276, "pitch": 64, "duration": 13, "velocity": 88}, {"time": 3288, "pitch": 61, "duration": 13, "velocity": 74}, {"time": 3396, "pitch": 59, "duration": 15, "velocity": 95}, {"time": 3414, "pitch": 59, "duration": 7, "velocity": 86}, {"time": 3420, "pitch": 61, "duration": 12, "velocity": 96}, {"time": 3432, "pitch": 59, "duration": 15, "velocity": 83}, {"time": 3444, "pitch": 59, "duration": 3, "velocity": 89}, {"time": 3450, "pitch": 59, "duration": 7, "velocity": 74}, {"time": 3462, "pitch": 59, "duration": 5, "velocity": 82}, {"time": 3468, "pitch": 61, "duration": 13, "velocity": 100}, {"time": 3480, "pitch": 59, "duration": 11, "velocity": 83}, {"time": 3492, "pitch": 59, "duration": 15, "velocity": 92}, {"time": 3492, "pitch": 68, "duration": 13, "velocity": 122}, {"time": 3510, "pitch": 59, "duration": 6, "velocity": 86}, {"time": 3510, "pitch": 68, "duration": 4, "velocity": 99}, {"time": 3516, "pitch": 61, "duration": 11, "velocity": 96}, {"time": 3516, "pitch": 66, "duration": 9, "velocity": 122}, {"time": 3528, "pitch": 59, "duration": 10, "velocity": 82}, {"time": 3528, "pitch": 64, "duration": 11, "velocity": 93}, {"time": 3540, "pitch": 59, "duration": 3, "velocity": 90}, {"time": 3540, "pitch": 68, "duration": 14, "velocity": 112}, {"time": 3546, "pitch": 59, "duration": 9, "velocity": 72}, {"time": 3558, "pitch": 59, "duration": 5, "velocity": 86}, {"time": 3558, "pitch": 68, "duration": 4, "velocity": 112}, {"time": 3564, "pitch": 61, "duration": 12, "velocity": 99}, {"time": 3564, "pitch": 66, "duration": 8, "velocity": 102}, {"time": 3576, "pitch": 59, "duration": 10, "velocity": 82}, {"time": 3576, "pitch": 64, "duration": 8, "velocity": 93}, {"time": 3588, "pitch": 59, "duration": 3, "velocity": 83}, {"time": 3588, "pitch": 68, "duration": 13, "velocity": 112}, {"time": 3594, "pitch": 59, "duration": 9, "velocity": 79}, {"time": 3606, "pitch": 59, "duration": 6, "velocity": 85}, {"time": 3606, "pitch": 68, "duration": 4, "velocity": 107}, {"time": 3612, "pitch": 61, "duration": 12, "velocity": 93}, {"time": 3612, "pitch": 66, "duration": 8, "velocity": 112}, {"time": 3624, "pitch": 59, "duration": 10, "velocity": 89}, {"time": 3624, "pitch": 64, "duration": 9, "velocity": 97}, {"time": 3636, "pitch": 59, "duration": 16, "velocity": 93}, {"time": 3636, "pitch": 68, "duration": 39, "velocity": 117}, {"time": 3654, "pitch": 59, "duration": 5, "velocity": 86}, {"time": 3660, "pitch": 61, "duration": 12, "velocity": 102}, {"time": 3672, "pitch": 59, "duration": 10, "velocity": 86}, {"time": 3684, "pitch": 59, "duration": 14, "velocity": 96}, {"time": 3684, "pitch": 68, "duration": 13, "velocity": 112}, {"time": 3702, "pitch": 59, "duration": 6, "velocity": 86}, {"time": 3702, "pitch": 68, "duration": 4, "velocity": 99}, {"time": 3708, "pitch": 61, "duration": 12, "velocity": 100}, {"time": 3708, "pitch": 66, "duration": 9, "velocity": 100}, {"time": 3720, "pitch": 59, "duration": 11, "velocity": 83}, {"time": 3720, "pitch": 64, "duration": 9, "velocity": 95}, {"time": 3732, "pitch": 59, "duration": 3, "velocity": 82}, {"time": 3732, "pitch": 68, "duration": 14, "velocity": 107}, {"time": 3738, "pitch": 59, "duration": 9, "velocity": 72}, {"time": 3750, "pitch": 59, "duration": 6, "velocity": 82}, {"time": 3750, "pitch": 68, "duration": 4, "velocity": 102}, {"time": 3756, "pitch": 61, "duration": 12, "velocity": 93}, {"time": 3756, "pitch": 66, "duration": 9, "velocity": 97}, {"time": 3768, "pitch": 59, "duration": 9, "velocity": 74}, {"time": 3768, "pitch": 64, "duration": 12, "velocity": 89}, {"time": 3780, "pitch": 59, "duration": 3, "velocity": 86}, {"time": 3780, "pitch": 68, "duration": 14, "velocity": 107}, {"time": 3786, "pitch": 59, "duration": 9, "velocity": 70}, {"time": 3798, "pitch": 59, "duration": 6, "velocity": 86}, {"time": 3798, "pitch": 68, "duration": 5, "velocity": 107}, {"time": 3804, "pitch": 61, "duration": 12, "velocity": 86}, {"time": 3804, "pitch": 66, "duration": 12, "velocity": 112}, {"time": 3816, "pitch": 59, "duration": 22, "velocity": 76}, {"time": 3816, "pitch": 64, "duration": 13, "velocity": 89}, {"time": 3828, "pitch": 59, "duration": 10, "velocity": 93}, {"time": 3828, "pitch": 68, "duration": 36, "velocity": 117}, {"time": 3846, "pitch": 59, "duration": 6, "velocity": 89}, {"time": 3852, "pitch": 61, "duration": 11, "velocity": 81}, {"time": 3864, "pitch": 59, "duration": 13, "velocity": 90}, {"time": 3876, "pitch": 59, "duration": 1, "velocity": 75}, {"time": 3876, "pitch": 59, "duration": 1, "velocity": 85}, {"time": 3894, "pitch": 59, "duration": 3, "velocity": 88}, {"time": 3900, "pitch": 61, "duration": 13, "velocity": 89}, {"time": 3912, "pitch": 59, "duration": 27, "velocity": 85}, {"time": 3942, "pitch": 59, "duration": 7, "velocity": 70}, {"time": 3948, "pitch": 61, "duration": 12, "velocity": 79}, {"time": 3960, "pitch": 59, "duration": 15, "velocity": 69}, {"time": 3990, "pitch": 61, "duration": 5, "velocity": 89}, {"time": 3996, "pitch": 66, "duration": 13, "velocity": 100}, {"time": 4008, "pitch": 64, "duration": 6, "velocity": 75}, {"time": 4014, "pitch": 61, "duration": 7, "velocity": 78}, {"time": 4020, "pitch": 66, "duration": 28, "velocity": 97}, {"time": 4026, "pitch": 64, "duration": 9, "velocity": 85}, {"time": 4038, "pitch": 66, "duration": 10, "velocity": 95}, {"time": 4050, "pitch": 64, "duration": 6, "velocity": 76}, {"time": 4056, "pitch": 61, "duration": 7, "velocity": 82}, {"time": 4062, "pitch": 64, "duration": 8, "velocity": 72}, {"time": 4068, "pitch": 66, "duration": 32, "velocity": 97}, {"time": 4182, "pitch": 59, "duration": 4, "velocity": 93}, {"time": 4188, "pitch": 61, "duration": 12, "velocity": 99}, {"time": 4200, "pitch": 59, "duration": 13, "velocity": 90}, {"time": 4212, "pitch": 59, "duration": 1, "velocity": 69}, {"time": 4230, "pitch": 59, "duration": 7, "velocity": 81}, {"time": 4236, "pitch": 61, "duration": 13, "velocity": 99}, {"time": 4248, "pitch": 59, "duration": 15, "velocity": 89}, {"time": 4278, "pitch": 59, "duration": 5, "velocity": 73}, {"time": 4284, "pitch": 61, "duration": 13, "velocity": 99}, {"time": 4296, "pitch": 59, "duration": 26, "velocity": 75}, {"time": 4326, "pitch": 59, "duration": 8, "velocity": 69}, {"time": 4332, "pitch": 61, "duration": 12, "velocity": 93}, {"time": 4344, "pitch": 59, "duration": 12, "velocity": 63}, {"time": 4356, "pitch": 66, "duration": 15, "velocity": 95}, {"time": 4374, "pitch": 66, "duration": 5, "velocity": 100}, {"time": 4380, "pitch": 64, "duration": 12, "velocity": 88}, {"time": 4392, "pitch": 61, "duration": 10, "velocity": 81}, {"time": 4404, "pitch": 66, "duration": 17, "velocity": 96}, {"time": 4422, "pitch": 66, "duration": 7, "velocity": 95}, {"time": 4428, "pitch": 64, "duration": 13, "velocity": 88}, {"time": 4440, "pitch": 61, "duration": 13, "velocity": 74}, {"time": 4548, "pitch": 59, "duration": 15, "velocity": 95}, {"time": 4566, "pitch": 59, "duration": 7, "velocity": 86}, {"time": 4572, "pitch": 61, "duration": 12, "velocity": 96}, {"time": 4584, "pitch": 59, "duration": 16, "velocity": 83}, {"time": 4602, "pitch": 59, "duration": 9, "velocity": 76}, {"time": 4614, "pitch": 59, "duration": 7, "velocity": 83}, {"time": 4620, "pitch": 61, "duration": 13, "velocity": 95}, {"time": 4632, "pitch": 59, "duration": 11, "velocity": 89}, {"time": 4932, "pitch": 59, "duration": 14, "velocity": 102}, {"time": 4950, "pitch": 59, "duration": 6, "velocity": 90}, {"time": 4956, "pitch": 61, "duration": 11, "velocity": 112}, {"time": 4968, "pitch": 59, "duration": 9, "velocity": 93}, {"time": 4980, "pitch": 59, "duration": 3, "velocity": 85}, {"time": 4986, "pitch": 59, "duration": 3, "velocity": 76}, {"time": 4992, "pitch": 59, "duration": 3, "velocity": 90}, {"time": 4998, "pitch": 59, "duration": 4, "velocity": 93}, {"time": 5004, "pitch": 61, "duration": 12, "velocity": 122}, {"time": 5016, "pitch": 59, "duration": 14, "velocity": 97}, {"time": 5316, "pitch": 71, "duration": 2, "velocity": 107}, {"time": 5322, "pitch": 71, "duration": 2, "velocity": 84}, {"time": 5328, "pitch": 71, "duration": 2, "velocity": 83}, {"time": 5328, "pitch": 71, "duration": 2, "velocity": 90}, {"time": 5334, "pitch": 71, "duration": 2, "velocity": 102}, {"time": 5340, "pitch": 73, "duration": 3, "velocity": 122}, {"time": 5352, "pitch": 71, "duration": 5, "velocity": 95}, {"time": 5364, "pitch": 71, "duration": 2, "velocity": 93}, {"time": 5370, "pitch": 71, "duration": 1, "velocity": 107}, {"time": 5376, "pitch": 71, "duration": 2, "velocity": 82}, {"time": 5376, "pitch": 71, "duration": 2, "velocity": 93}, {"time": 5382, "pitch": 71, "duration": 2, "velocity": 93}, {"time": 5388, "pitch": 73, "duration": 13, "velocity": 112}, {"time": 5400, "pitch": 71, "duration": 2, "velocity": 90}, {"time": 5412, "pitch": 59, "duration": 13, "velocity": 85}, {"time": 5430, "pitch": 59, "duration": 7, "velocity": 88}, {"time": 5436, "pitch": 61, "duration": 13, "velocity": 89}, {"time": 5448, "pitch": 59, "duration": 27, "velocity": 85}, {"time": 5478, "pitch": 59, "duration": 7, "velocity": 70}, {"time": 5484, "pitch": 61, "duration": 12, "velocity": 79}, {"time": 5496, "pitch": 59, "duration": 15, "velocity": 69}, {"time": 5526, "pitch": 61, "duration": 5, "velocity": 89}, {"time": 5532, "pitch": 66, "duration": 13, "velocity": 100}, {"time": 5544, "pitch": 64, "duration": 6, "velocity": 75}, {"time": 5550, "pitch": 61, "duration": 7, "velocity": 78}, {"time": 5556, "pitch": 66, "duration": 28, "velocity": 97}, {"time": 5562, "pitch": 64, "duration": 9, "velocity": 85}, {"time": 5574, "pitch": 66, "duration": 10, "velocity": 95}, {"time": 5586, "pitch": 64, "duration": 6, "velocity": 76}, {"time": 5592, "pitch": 61, "duration": 7, "velocity": 82}, {"time": 5598, "pitch": 64, "duration": 8, "velocity": 72}, {"time": 5604, "pitch": 66, "duration": 32, "velocity": 97}, {"time": 5718, "pitch": 59, "duration": 4, "velocity": 93}, {"time": 5724, "pitch": 61, "duration": 12, "velocity": 99}, {"time": 5736, "pitch": 59, "duration": 13, "velocity": 90}, {"time": 5748, "pitch": 59, "duration": 1, "velocity": 69}, {"time": 5766, "pitch": 59, "duration": 7, "velocity": 81}, {"time": 5772, "pitch": 61, "duration": 13, "velocity": 99}, {"time": 5784, "pitch": 59, "duration": 15, "velocity": 89}, {"time": 5814, "pitch": 59, "duration": 5, "velocity": 73}, {"time": 5820, "pitch": 61, "duration": 13, "velocity": 99}, {"time": 5832, "pitch": 59, "duration": 26, "velocity": 75}, {"time": 5862, "pitch": 59, "duration": 8, "velocity": 69}, {"time": 5868, "pitch": 61, "duration": 12, "velocity": 93}, {"time": 5880, "pitch": 59, "duration": 12, "velocity": 63}, {"time": 5892, "pitch": 66, "duration": 15, "velocity": 95}, {"time": 5910, "pitch": 66, "duration": 5, "velocity": 100}, {"time": 5916, "pitch": 64, "duration": 12, "velocity": 88}, {"time": 5928, "pitch": 61, "duration": 10, "velocity": 81}, {"time": 5940, "pitch": 66, "duration": 17, "velocity": 96}, {"time": 5958, "pitch": 66, "duration": 7, "velocity": 95}, {"time": 5964, "pitch": 64, "duration": 13, "velocity": 88}, {"time": 5976, "pitch": 61, "duration": 13, "velocity": 74}, {"time": 6084, "pitch": 59, "duration": 15, "velocity": 95}, {"time": 6102, "pitch": 59, "duration": 7, "velocity": 86}, {"time": 6108, "pitch": 61, "duration": 12, "velocity": 96}, {"time": 6120, "pitch": 59, "duration": 15, "velocity": 83}, {"time": 6132, "pitch": 59, "duration": 3, "velocity": 89}, {"time": 6138, "pitch": 59, "duration": 7, "velocity": 74}, {"time": 6150, "pitch": 59, "duration": 5, "velocity": 82}, {"time": 6156, "pitch": 61, "duration": 13, "velocity": 100}, {"time": 6168, "pitch": 59, "duration": 11, "velocity": 83}, {"time": 6276, "pitch": 59, "duration": 15, "velocity": 95}, {"time": 6294, "pitch": 59, "duration": 7, "velocity": 86}, {"time": 6300, "pitch": 61, "duration": 12, "velocity": 96}, {"time": 6312, "pitch": 59, "duration": 15, "velocity": 83}, {"time": 6324, "pitch": 59, "duration": 3, "velocity": 89}, {"time": 6330, "pitch": 59, "duration": 7, "velocity": 74}, {"time": 6342, "pitch": 59, "duration": 5, "velocity": 82}, {"time": 6348, "pitch": 61, "duration": 13, "velocity": 100}, {"time": 6360, "pitch": 59, "duration": 11, "velocity": 83}, {"time": 6372, "pitch": 59, "duration": 15, "velocity": 92}, {"time": 6372, "pitch": 68, "duration": 13, "velocity": 122}, {"time": 6390, "pitch": 59, "duration": 6, "velocity": 86}, {"time": 6390, "pitch": 68, "duration": 4, "velocity": 99}, {"time": 6396, "pitch": 61, "duration": 11, "velocity": 96}, {"time": 6396, "pitch": 66, "duration": 9, "velocity": 122}, {"time": 6408, "pitch": 59, "duration": 10, "velocity": 82}, {"time": 6408, "pitch": 64, "duration": 11, "velocity": 93}, {"time": 6420, "pitch": 59, "duration": 3, "velocity": 90}, {"time": 6420, "pitch": 68, "duration": 14, "velocity": 112}, {"time": 6426, "pitch": 59, "duration": 9, "velocity": 72}, {"time": 6438, "pitch": 59, "duration": 5, "velocity": 86}, {"time": 6438, "pitch": 68, "duration": 4, "velocity": 112}, {"time": 6444, "pitch": 61, "duration": 12, "velocity": 99}, {"time": 6444, "pitch": 66, "duration": 8, "velocity": 102}, {"time": 6456, "pitch": 59, "duration": 10, "velocity": 82}, {"time": 6456, "pitch": 64, "duration": 8, "velocity": 93}, {"time": 6468, "pitch": 59, "duration": 3, "velocity": 83}, {"time": 6468, "pitch": 68, "duration": 13, "velocity": 112}, {"time": 6474, "pitch": 59, "duration": 9, "velocity": 79}, {"time": 6486, "pitch": 59, "duration": 6, "velocity": 85}, {"time": 6486, "pitch": 68, "duration": 4, "velocity": 107}, {"time": 6492, "pitch": 61, "duration": 12, "velocity": 93}, {"time": 6492, "pitch": 66, "duration": 8, "velocity": 112}, {"time": 6504, "pitch": 59, "duration": 10, "velocity": 89}, {"time": 6504, "pitch": 64, "duration": 9, "velocity": 97}, {"time": 6516, "pitch": 59, "duration": 16, "velocity": 93}, {"time": 6516, "pitch": 68, "duration": 39, "velocity": 117}, {"time": 6534, "pitch": 59, "duration": 5, "velocity": 86}, {"time": 6540, "pitch": 61, "duration": 12, "velocity": 102}, {"time": 6552, "pitch": 59, "duration": 10, "velocity": 86}, {"time": 6564, "pitch": 59, "duration": 14, "velocity": 96}, {"time": 6564, "pitch": 68, "duration": 13, "velocity": 112}, {"time": 6582, "pitch": 59, "duration": 6, "velocity": 86}, {"time": 6582, "pitch": 68, "duration": 4, "velocity": 99}, {"time": 6588, "pitch": 61, "duration": 12, "velocity": 100}, {"time": 6588, "pitch": 66, "duration": 9, "velocity": 100}, {"time": 6600, "pitch": 59, "duration": 11, "velocity": 83}, {"time": 6600, "pitch": 64, "duration": 9, "velocity": 95}, {"time": 6612, "pitch": 59, "duration": 3, "velocity": 82}, {"time": 6612, "pitch": 68, "duration": 14, "velocity": 107}, {"time": 6618, "pitch": 59, "duration": 9, "velocity": 72}, {"time": 6630, "pitch": 59, "duration": 6, "velocity": 82}, {"time": 6630, "pitch": 68, "duration": 4, "velocity": 102}, {"time": 6636, "pitch": 61, "duration": 12, "velocity": 93}, {"time": 6636, "pitch": 66, "duration": 9, "velocity": 97}, {"time": 6648, "pitch": 59, "duration": 9, "velocity": 74}, {"time": 6648, "pitch": 64, "duration": 12, "velocity": 89}, {"time": 6660, "pitch": 59, "duration": 3, "velocity": 86}, {"time": 6660, "pitch": 68, "duration": 14, "velocity": 107}, {"time": 6666, "pitch": 59, "duration": 9, "velocity": 70}, {"time": 6678, "pitch": 59, "duration": 6, "velocity": 86}, {"time": 6678, "pitch": 68, "duration": 5, "velocity": 107}, {"time": 6684, "pitch": 61, "duration": 12, "velocity": 86}, {"time": 6684, "pitch": 66, "duration": 12, "velocity": 112}, {"time": 6696, "pitch": 59, "duration": 22, "velocity": 76}, {"time": 6696, "pitch": 64, "duration": 13, "velocity": 89}, {"time": 6708, "pitch": 59, "duration": 10, "velocity": 93}, {"time": 6708, "pitch": 68, "duration": 36, "velocity": 117}, {"time": 6726, "pitch": 59, "duration": 6, "velocity": 89}, {"time": 6732, "pitch": 61, "duration": 11, "velocity": 81}, {"time": 6744, "pitch": 59, "duration": 12, "velocity": 90}, {"time": 6756, "pitch": 59, "duration": 15, "velocity": 92}, {"time": 6756, "pitch": 68, "duration": 13, "velocity": 122}, {"time": 6774, "pitch": 59, "duration": 6, "velocity": 86}, {"time": 6774, "pitch": 68, "duration": 4, "velocity": 99}, {"time": 6780, "pitch": 61, "duration": 11, "velocity": 96}, {"time": 6780, "pitch": 66, "duration": 9, "velocity": 122}, {"time": 6792, "pitch": 59, "duration": 10, "velocity": 82}, {"time": 6792, "pitch": 64, "duration": 11, "velocity": 93}, {"time": 6804, "pitch": 59, "duration": 3, "velocity": 90}, {"time": 6804, "pitch": 68, "duration": 14, "velocity": 112}, {"time": 6810, "pitch": 59, "duration": 9, "velocity": 72}, {"time": 6822, "pitch": 59, "duration": 5, "velocity": 86}, {"time": 6822, "pitch": 68, "duration": 4, "velocity": 112}, {"time": 6828, "pitch": 61, "duration": 12, "velocity": 99}, {"time": 6828, "pitch": 66, "duration": 8, "velocity": 102}, {"time": 6840, "pitch": 59, "duration": 10, "velocity": 82}, {"time": 6840, "pitch": 64, "duration": 8, "velocity": 93}, {"time": 6852, "pitch": 59, "duration": 3, "velocity": 83}, {"time": 6852, "pitch": 68, "duration": 13, "velocity": 112}, {"time": 6858, "pitch": 59, "duration": 9, "velocity": 79}, {"time": 6870, "pitch": 59, "duration": 6, "velocity": 85}, {"time": 6870, "pitch": 68, "duration": 4, "velocity": 107}, {"time": 6876, "pitch": 61, "duration": 12, "velocity": 93}, {"time": 6876, "pitch": 66, "duration": 8, "velocity": 112}, {"time": 6888, "pitch": 59, "duration": 10, "velocity": 89}, {"time": 6888, "pitch": 64, "duration": 9, "velocity": 97}, {"time": 6900, "pitch": 59, "duration": 16, "velocity": 93}, {"time": 6900, "pitch": 68, "duration": 39, "velocity": 117}, {"time": 6918, "pitch": 59, "duration": 5, "velocity": 86}, {"time": 6924, "pitch": 61, "duration": 12, "velocity": 102}, {"time": 6936, "pitch": 59, "duration": 10, "velocity": 86}, {"time": 6948, "pitch": 59, "duration": 14, "velocity": 96}, {"time": 6948, "pitch": 68, "duration": 13, "velocity": 112}, {"time": 6966, "pitch": 59, "duration": 6, "velocity": 86}, {"time": 6966, "pitch": 68, "duration": 4, "velocity": 99}, {"time": 6972, "pitch": 61, "duration": 12, "velocity": 100}, {"time": 6972, "pitch": 66, "duration": 9, "velocity": 100}, {"time": 6984, "pitch": 59, "duration": 11, "velocity": 83}, {"time": 6984, "pitch": 64, "duration": 9, "velocity": 95}, {"time": 6996, "pitch": 59, "duration": 3, "velocity": 82}, {"time": 6996, "pitch": 68, "duration": 14, "velocity": 107}, {"time": 7002, "pitch": 59, "duration": 9, "velocity": 72}, {"time": 7014, "pitch": 59, "duration": 6, "velocity": 82}, {"time": 7014, "pitch": 68, "duration": 4, "velocity": 102}, {"time": 7020, "pitch": 61, "duration": 12, "velocity": 93}, {"time": 7020, "pitch": 66, "duration": 9, "velocity": 97}, {"time": 7032, "pitch": 59, "duration": 9, "velocity": 74}, {"time": 7032, "pitch": 64, "duration": 12, "velocity": 89}, {"time": 7044, "pitch": 59, "duration": 3, "velocity": 86}, {"time": 7044, "pitch": 68, "duration": 14, "velocity": 107}, {"time": 7050, "pitch": 59, "duration": 9, "velocity": 70}, {"time": 7062, "pitch": 59, "duration": 6, "velocity": 86}, {"time": 7062, "pitch": 68, "duration": 5, "velocity": 107}, {"time": 7068, "pitch": 61, "duration": 12, "velocity": 86}, {"time": 7068, "pitch": 66, "duration": 12, "velocity": 112}, {"time": 7080, "pitch": 59, "duration": 22, "velocity": 76}, {"time": 7080, "pitch": 64, "duration": 13, "velocity": 89}, {"time": 7092, "pitch": 59, "duration": 10, "velocity": 93}, {"time": 7092, "pitch": 68, "duration": 12, "velocity": 117}]}, {"program": 0, "is_drum": false, "name": "PIANO", "notes": [{"time": 36, "pitch": 40, "duration": 18, "velocity": 75}, {"time": 54, "pitch": 40, "duration": 24, "velocity": 81}, {"time": 60, "pitch": 52, "duration": 10, "velocity": 78}, {"time": 60, "pitch": 56, "duration": 10, "velocity": 78}, {"time": 60, "pitch": 59, "duration": 10, "velocity": 75}, {"time": 72, "pitch": 52, "duration": 11, "velocity": 68}, {"time": 72, "pitch": 56, "duration": 12, "velocity": 70}, {"time": 72, "pitch": 59, "duration": 12, "velocity": 78}, {"time": 84, "pitch": 40, "duration": 44, "velocity": 81}, {"time": 102, "pitch": 47, "duration": 32, "velocity": 59}, {"time": 108, "pitch": 64, "duration": 33, "velocity": 81}, {"time": 108, "pitch": 68, "duration": 31, "velocity": 95}, {"time": 120, "pitch": 59, "duration": 19, "velocity": 85}, {"time": 132, "pitch": 40, "duration": 38, "velocity": 77}, {"time": 150, "pitch": 47, "duration": 27, "velocity": 59}, {"time": 156, "pitch": 64, "duration": 25, "velocity": 88}, {"time": 156, "pitch": 68, "duration": 24, "velocity": 95}, {"time": 168, "pitch": 59, "duration": 13, "velocity": 86}, {"time": 180, "pitch": 40, "duration": 47, "velocity": 73}, {"time": 198, "pitch": 47, "duration": 32, "velocity": 45}, {"time": 204, "pitch": 64, "duration": 28, "velocity": 70}, {"time": 204, "pitch": 68, "duration": 28, "velocity": 70}, {"time": 228, "pitch": 40, "duration": 44, "velocity": 77}, {"time": 246, "pitch": 47, "duration": 30, "velocity": 63}, {"time": 252, "pitch": 64, "duration": 41, "velocity": 90}, {"time": 252, "pitch": 68, "duration": 41, "velocity": 92}, {"time": 264, "pitch": 59, "duration": 15, "velocity": 78}, {"time": 276, "pitch": 40, "duration": 39, "velocity": 72}, {"time": 294, "pitch": 47, "duration": 30, "velocity": 62}, {"time": 300, "pitch": 64, "duration": 26, "velocity": 92}, {"time": 300, "pitch": 68, "duration": 26, "velocity": 93}, {"time": 312, "pitch": 59, "duration": 14, "velocity": 88}, {"time": 324, "pitch": 40, "duration": 38, "velocity": 82}, {"time": 342, "pitch": 47, "duration": 27, "velocity": 58}, {"time": 348, "pitch": 64, "duration": 26, "velocity": 85}, {"time": 348, "pitch": 68, "duration": 26, "velocity": 85}, {"time": 360, "pitch": 59, "duration": 13, "velocity": 78}, {"time": 372, "pitch": 40, "duration": 50, "velocity": 72}, {"time": 396, "pitch": 47, "duration": 23, "velocity": 58}, {"time": 396, "pitch": 59, "duration": 24, "velocity": 59}, {"time": 396, "pitch": 64, "duration": 23, "velocity": 55}, {"time": 396, "pitch": 68, "duration": 23, "velocity": 53}, {"time": 420, "pitch": 40, "duration": 2, "velocity": 85}, {"time": 426, "pitch": 47, "duration": 43, "velocity": 76}, {"time": 432, "pitch": 52, "duration": 15, "velocity": 90}, {"time": 438, "pitch": 59, "duration": 8, "velocity": 72}, {"time": 444, "pitch": 64, "duration": 44, "velocity": 74}, {"time": 456, "pitch": 59, "duration": 26, "velocity": 85}, {"time": 468, "pitch": 40, "duration": 32, "velocity": 72}, {"time": 474, "pitch": 47, "duration": 27, "velocity": 65}, {"time": 480, "pitch": 52, "duration": 15, "velocity": 86}, {"time": 486, "pitch": 59, "duration": 32, "velocity": 76}, {"time": 492, "pitch": 68, "duration": 24, "velocity": 117}, {"time": 504, "pitch": 64, "duration": 12, "velocity": 78}, {"time": 516, "pitch": 42, "duration": 47, "velocity": 78}, {"time": 522, "pitch": 49, "duration": 44, "velocity": 65}, {"time": 528, "pitch": 54, "duration": 16, "velocity": 82}, {"time": 534, "pitch": 66, "duration": 50, "velocity": 82}, {"time": 546, "pitch": 54, "duration": 24, "velocity": 53}, {"time": 552, "pitch": 61, "duration": 30, "velocity": 82}, {"time": 564, "pitch": 42, "duration": 33, "velocity": 60}, {"time": 570, "pitch": 49, "duration": 28, "velocity": 54}, {"time": 576, "pitch": 54, "duration": 14, "velocity": 99}, {"time": 582, "pitch": 57, "duration": 31, "velocity": 92}, {"time": 588, "pitch": 66, "duration": 27, "velocity": 122}, {"time": 594, "pitch": 54, "duration": 8, "velocity": 86}, {"time": 600, "pitch": 61, "duration": 13, "velocity": 99}, {"time": 612, "pitch": 47, "duration": 46, "velocity": 71}, {"time": 618, "pitch": 54, "duration": 45, "velocity": 93}, {"time": 624, "pitch": 59, "duration": 45, "velocity": 63}, {"time": 630, "pitch": 63, "duration": 8, "velocity": 79}, {"time": 636, "pitch": 66, "duration": 32, "velocity": 107}, {"time": 648, "pitch": 63, "duration": 26, "velocity": 79}, {"time": 660, "pitch": 47, "duration": 26, "velocity": 70}, {"time": 666, "pitch": 54, "duration": 19, "velocity": 83}, {"time": 672, "pitch": 59, "duration": 48, "velocity": 72}, {"time": 678, "pitch": 63, "duration": 9, "velocity": 93}, {"time": 684, "pitch": 66, "duration": 15, "velocity": 102}, {"time": 696, "pitch": 63, "duration": 10, "velocity": 93}, {"time": 708, "pitch": 40, "duration": 45, "velocity": 79}, {"time": 714, "pitch": 47, "duration": 44, "velocity": 74}, {"time": 720, "pitch": 52, "duration": 35, "velocity": 90}, {"time": 726, "pitch": 59, "duration": 45, "velocity": 82}, {"time": 732, "pitch": 68, "duration": 44, "velocity": 100}, {"time": 744, "pitch": 64, "duration": 32, "velocity": 88}, {"time": 756, "pitch": 40, "duration": 35, "velocity": 64}, {"time": 762, "pitch": 47, "duration": 30, "velocity": 59}, {"time": 768, "pitch": 52, "duration": 16, "velocity": 90}, {"time": 774, "pitch": 59, "duration": 30, "velocity": 83}, {"time": 780, "pitch": 68, "duration": 24, "velocity": 122}, {"time": 786, "pitch": 52, "duration": 10, "velocity": 85}, {"time": 792, "pitch": 64, "duration": 12, "velocity": 90}, {"time": 804, "pitch": 40, "duration": 46, "velocity": 95}, {"time": 810, "pitch": 47, "duration": 44, "velocity": 75}, {"time": 816, "pitch": 52, "duration": 44, "velocity": 89}, {"time": 822, "pitch": 59, "duration": 45, "velocity": 85}, {"time": 828, "pitch": 68, "duration": 40, "velocity": 117}, {"time": 840, "pitch": 64, "duration": 32, "velocity": 70}, {"time": 852, "pitch": 40, "duration": 25, "velocity": 69}, {"time": 858, "pitch": 47, "duration": 23, "velocity": 61}, {"time": 864, "pitch": 52, "duration": 9, "velocity": 88}, {"time": 870, "pitch": 59, "duration": 14, "velocity": 76}, {"time": 876, "pitch": 68, "duration": 24, "velocity": 127}, {"time": 882, "pitch": 64, "duration": 18, "velocity": 82}, {"time": 888, "pitch": 59, "duration": 14, "velocity": 90}, {"time": 900, "pitch": 42, "duration": 46, "velocity": 72}, {"time": 906, "pitch": 49, "duration": 43, "velocity": 60}, {"time": 912, "pitch": 54, "duration": 44, "velocity": 81}, {"time": 918, "pitch": 57, "duration": 45, "velocity": 89}, {"time": 924, "pitch": 66, "duration": 39, "velocity": 117}, {"time": 936, "pitch": 61, "duration": 27, "velocity": 112}, {"time": 948, "pitch": 42, "duration": 34, "velocity": 59}, {"time": 954, "pitch": 49, "duration": 29, "velocity": 69}, {"time": 960, "pitch": 54, "duration": 15, "velocity": 89}, {"time": 966, "pitch": 57, "duration": 30, "velocity": 82}, {"time": 972, "pitch": 66, "duration": 25, "velocity": 127}, {"time": 978, "pitch": 54, "duration": 7, "velocity": 93}, {"time": 984, "pitch": 61, "duration": 11, "velocity": 122}, {"time": 996, "pitch": 47, "duration": 45, "velocity": 74}, {"time": 1002, "pitch": 54, "duration": 43, "velocity": 64}, {"time": 1008, "pitch": 59, "duration": 10, "velocity": 93}, {"time": 1014, "pitch": 63, "duration": 7, "velocity": 93}, {"time": 1020, "pitch": 66, "duration": 36, "velocity": 100}, {"time": 1032, "pitch": 63, "duration": 25, "velocity": 55}, {"time": 1038, "pitch": 59, "duration": 15, "velocity": 59}, {"time": 1044, "pitch": 47, "duration": 31, "velocity": 53}, {"time": 1050, "pitch": 54, "duration": 21, "velocity": 74}, {"time": 1056, "pitch": 59, "duration": 9, "velocity": 79}, {"time": 1062, "pitch": 66, "duration": 29, "velocity": 117}, {"time": 1068, "pitch": 63, "duration": 22, "velocity": 112}, {"time": 1080, "pitch": 59, "duration": 27, "velocity": 76}, {"time": 1092, "pitch": 40, "duration": 45, "velocity": 72}, {"time": 1098, "pitch": 47, "duration": 44, "velocity": 56}, {"time": 1104, "pitch": 52, "duration": 15, "velocity": 83}, {"time": 1110, "pitch": 59, "duration": 42, "velocity": 86}, {"time": 1116, "pitch": 68, "duration": 38, "velocity": 99}, {"time": 1122, "pitch": 52, "duration": 5, "velocity": 82}, {"time": 1128, "pitch": 64, "duration": 18, "velocity": 78}, {"time": 1140, "pitch": 40, "duration": 45, "velocity": 70}, {"time": 1146, "pitch": 47, "duration": 39, "velocity": 69}, {"time": 1152, "pitch": 52, "duration": 14, "velocity": 99}, {"time": 1158, "pitch": 59, "duration": 30, "velocity": 93}, {"time": 1164, "pitch": 68, "duration": 24, "velocity": 127}, {"time": 1170, "pitch": 52, "duration": 6, "velocity": 89}, {"time": 1176, "pitch": 64, "duration": 12, "velocity": 92}, {"time": 1188, "pitch": 40, "duration": 44, "velocity": 85}, {"time": 1194, "pitch": 47, "duration": 43, "velocity": 76}, {"time": 1200, "pitch": 52, "duration": 15, "velocity": 90}, {"time": 1206, "pitch": 59, "duration": 8, "velocity": 72}, {"time": 1212, "pitch": 64, "duration": 44, "velocity": 74}, {"time": 1224, "pitch": 59, "duration": 26, "velocity": 85}, {"time": 1236, "pitch": 40, "duration": 32, "velocity": 72}, {"time": 1242, "pitch": 47, "duration": 27, "velocity": 65}, {"time": 1248, "pitch": 52, "duration": 15, "velocity": 86}, {"time": 1254, "pitch": 59, "duration": 32, "velocity": 76}, {"time": 1260, "pitch": 68, "duration": 24, "velocity": 117}, {"time": 1272, "pitch": 64, "duration": 12, "velocity": 78}, {"time": 1284, "pitch": 42, "duration": 47, "velocity": 78}, {"time": 1290, "pitch": 49, "duration": 44, "velocity": 65}, {"time": 1296, "pitch": 54, "duration": 16, "velocity": 82}, {"time": 1302, "pitch": 66, "duration": 50, "velocity": 82}, {"time": 1314, "pitch": 54, "duration": 24, "velocity": 53}, {"time": 1320, "pitch": 61, "duration": 30, "velocity": 82}, {"time": 1332, "pitch": 42, "duration": 33, "velocity": 60}, {"time": 1338, "pitch": 49, "duration": 28, "velocity": 54}, {"time": 1344, "pitch": 54, "duration": 14, "velocity": 99}, {"time": 1350, "pitch": 57, "duration": 31, "velocity": 92}, {"time": 1356, "pitch": 66, "duration": 27, "velocity": 122}, {"time": 1362, "pitch": 54, "duration": 8, "velocity": 86}, {"time": 1368, "pitch": 61, "duration": 13, "velocity": 99}, {"time": 1380, "pitch": 47, "duration": 46, "velocity": 71}, {"time": 1386, "pitch": 54, "duration": 45, "velocity": 93}, {"time": 1392, "pitch": 59, "duration": 45, "velocity": 63}, {"time": 1398, "pitch": 63, "duration": 8, "velocity": 79}, {"time": 1404, "pitch": 66, "duration": 32, "velocity": 107}, {"time": 1416, "pitch": 63, "duration": 26, "velocity": 79}, {"time": 1428, "pitch": 47, "duration": 26, "velocity": 70}, {"time": 1434, "pitch": 54, "duration": 19, "velocity": 83}, {"time": 1440, "pitch": 59, "duration": 48, "velocity": 72}, {"time": 1446, "pitch": 63, "duration": 9, "velocity": 93}, {"time": 1452, "pitch": 66, "duration": 15, "velocity": 102}, {"time": 1464, "pitch": 63, "duration": 10, "velocity": 93}, {"time": 1476, "pitch": 40, "duration": 45, "velocity": 79}, {"time": 1482, "pitch": 47, "duration": 44, "velocity": 74}, {"time": 1488, "pitch": 52, "duration": 35, "velocity": 90}, {"time": 1494, "pitch": 59, "duration": 45, "velocity": 82}, {"time": 1500, "pitch": 68, "duration": 44, "velocity": 100}, {"time": 1512, "pitch": 64, "duration": 32, "velocity": 88}, {"time": 1524, "pitch": 40, "duration": 35, "velocity": 64}, {"time": 1530, "pitch": 47, "duration": 30, "velocity": 59}, {"time": 1536, "pitch": 52, "duration": 16, "velocity": 90}, {"time": 1542, "pitch": 59, "duration": 30, "velocity": 83}, {"time": 1548, "pitch": 68, "duration": 24, "velocity": 122}, {"time": 1554, "pitch": 52, "duration": 10, "velocity": 85}, {"time": 1560, "pitch": 64, "duration": 12, "velocity": 90}, {"time": 1572, "pitch": 40, "duration": 46, "velocity": 95}, {"time": 1578, "pitch": 47, "duration": 44, "velocity": 75}, {"time": 1584, "pitch": 52, "duration": 44, "velocity": 89}, {"time": 1590, "pitch": 59, "duration": 45, "velocity": 85}, {"time": 1596, "pitch": 68, "duration": 40, "velocity": 117}, {"time": 1608, "pitch": 64, "duration": 32, "velocity": 70}, {"time": 1620, "pitch": 40, "duration": 25, "velocity": 69}, {"time": 1626, "pitch": 47, "duration": 23, "velocity": 61}, {"time": 1632, "pitch": 52, "duration": 9, "velocity": 88}, {"time": 1638, "pitch": 59, "duration": 14, "velocity": 76}, {"time": 1644, "pitch": 68, "duration": 24, "velocity": 127}, {"time": 1650, "pitch": 64, "duration": 18, "velocity": 82}, {"time": 1656, "pitch": 59, "duration": 14, "velocity": 90}, {"time": 1668, "pitch": 42, "duration": 46, "velocity": 72}, {"time": 1674, "pitch": 49, "duration": 43, "velocity": 60}, {"time": 1680, "pitch": 54, "duration": 44, "velocity": 81}, {"time": 1686, "pitch": 57, "duration": 45, "velocity": 89}, {"time": 1692, "pitch": 66, "duration": 39, "velocity": 117}, {"time": 1704, "pitch": 61, "duration": 27, "velocity": 112}, {"time": 1716, "pitch": 42, "duration": 34, "velocity": 59}, {"time": 1722, "pitch": 49, "duration": 29, "velocity": 69}, {"time": 1728, "pitch": 54, "duration": 15, "velocity": 89}, {"time": 1734, "pitch": 57, "duration": 30, "velocity": 82}, {"time": 1740, "pitch": 66, "duration": 25, "velocity": 127}, {"time": 1746, "pitch": 54, "duration": 7, "velocity": 93}, {"time": 1752, "pitch": 61, "duration": 11, "velocity": 122}, {"time": 1764, "pitch": 47, "duration": 45, "velocity": 74}, {"time": 1770, "pitch": 54, "duration": 43, "velocity": 64}, {"time": 1776, "pitch": 59, "duration": 10, "velocity": 93}, {"time": 1782, "pitch": 63, "duration": 7, "velocity": 93}, {"time": 1788, "pitch": 66, "duration": 36, "velocity": 100}, {"time": 1800, "pitch": 63, "duration": 25, "velocity": 55}, {"time": 1806, "pitch": 59, "duration": 15, "velocity": 59}, {"time": 1812, "pitch": 47, "duration": 31, "velocity": 53}, {"time": 1818, "pitch": 54, "duration": 21, "velocity": 74}, {"time": 1824, "pitch": 59, "duration": 9, "velocity": 79}, {"time": 1830, "pitch": 66, "duration": 29, "velocity": 117}, {"time": 1836, "pitch": 63, "duration": 22, "velocity": 112}, {"time": 1848, "pitch": 59, "duration": 27, "velocity": 76}, {"time": 1860, "pitch": 40, "duration": 45, "velocity": 72}, {"time": 1866, "pitch": 47, "duration": 44, "velocity": 56}, {"time": 1872, "pitch": 52, "duration": 15, "velocity": 83}, {"time": 1878, "pitch": 59, "duration": 42, "velocity": 86}, {"time": 1884, "pitch": 68, "duration": 38, "velocity": 99}, {"time": 1890, "pitch": 52, "duration": 5, "velocity": 82}, {"time": 1896, "pitch": 64, "duration": 18, "velocity": 78}, {"time": 1908, "pitch": 40, "duration": 45, "velocity": 70}, {"time": 1914, "pitch": 47, "duration": 39, "velocity": 69}, {"time": 1920, "pitch": 52, "duration": 14, "velocity": 99}, {"time": 1926, "pitch": 59, "duration": 30, "velocity": 93}, {"time": 1932, "pitch": 68, "duration": 24, "velocity": 127}, {"time": 1938, "pitch": 52, "duration": 6, "velocity": 89}, {"time": 1944, "pitch": 64, "duration": 12, "velocity": 92}, {"time": 1956, "pitch": 44, "duration": 46, "velocity": 93}, {"time": 1962, "pitch": 51, "duration": 40, "velocity": 97}, {"time": 1968, "pitch": 56, "duration": 15, "velocity": 107}, {"time": 1974, "pitch": 59, "duration": 14, "velocity": 112}, {"time": 1980, "pitch": 68, "duration": 22, "velocity": 117}, {"time": 1986, "pitch": 56, "duration": 12, "velocity": 112}, {"time": 1992, "pitch": 63, "duration": 9, "velocity": 127}, {"time": 1998, "pitch": 59, "duration": 6, "velocity": 92}, {"time": 2004, "pitch": 49, "duration": 47, "velocity": 92}, {"time": 2010, "pitch": 56, "duration": 8, "velocity": 96}, {"time": 2016, "pitch": 61, "duration": 7, "velocity": 112}, {"time": 2022, "pitch": 56, "duration": 8, "velocity": 112}, {"time": 2028, "pitch": 64, "duration": 24, "velocity": 99}, {"time": 2034, "pitch": 56, "duration": 8, "velocity": 102}, {"time": 2040, "pitch": 61, "duration": 9, "velocity": 97}, {"time": 2046, "pitch": 56, "duration": 5, "velocity": 112}, {"time": 2052, "pitch": 44, "duration": 42, "velocity": 79}, {"time": 2058, "pitch": 51, "duration": 31, "velocity": 73}, {"time": 2064, "pitch": 59, "duration": 16, "velocity": 97}, {"time": 2070, "pitch": 56, "duration": 10, "velocity": 67}, {"time": 2070, "pitch": 63, "duration": 7, "velocity": 107}, {"time": 2076, "pitch": 68, "duration": 21, "velocity": 127}, {"time": 2082, "pitch": 56, "duration": 5, "velocity": 112}, {"time": 2088, "pitch": 63, "duration": 9, "velocity": 117}, {"time": 2094, "pitch": 59, "duration": 6, "velocity": 99}, {"time": 2100, "pitch": 49, "duration": 30, "velocity": 112}, {"time": 2106, "pitch": 56, "duration": 8, "velocity": 100}, {"time": 2112, "pitch": 61, "duration": 9, "velocity": 99}, {"time": 2118, "pitch": 56, "duration": 8, "velocity": 112}, {"time": 2124, "pitch": 64, "duration": 15, "velocity": 92}, {"time": 2130, "pitch": 56, "duration": 13, "velocity": 107}, {"time": 2136, "pitch": 61, "duration": 13, "velocity": 75}, {"time": 2142, "pitch": 64, "duration": 7, "velocity": 83}, {"time": 2148, "pitch": 42, "duration": 45, "velocity": 83}, {"time": 2154, "pitch": 49, "duration": 42, "velocity": 57}, {"time": 2160, "pitch": 54, "duration": 14, "velocity": 97}, {"time": 2166, "pitch": 57, "duration": 8, "velocity": 95}, {"time": 2172, "pitch": 61, "duration": 14, "velocity": 89}, {"time": 2172, "pitch": 66, "duration": 20, "velocity": 127}, {"time": 2178, "pitch": 54, "duration": 9, "velocity": 93}, {"time": 2184, "pitch": 57, "duration": 20, "velocity": 96}, {"time": 2190, "pitch": 54, "duration": 4, "velocity": 30}, {"time": 2190, "pitch": 61, "duration": 11, "velocity": 122}, {"time": 2196, "pitch": 42, "duration": 23, "velocity": 90}, {"time": 2202, "pitch": 49, "duration": 31, "velocity": 99}, {"time": 2208, "pitch": 54, "duration": 17, "velocity": 102}, {"time": 2214, "pitch": 57, "duration": 9, "velocity": 112}, {"time": 2220, "pitch": 42, "duration": 12, "velocity": 45}, {"time": 2220, "pitch": 61, "duration": 14, "velocity": 127}, {"time": 2220, "pitch": 66, "duration": 24, "velocity": 127}, {"time": 2232, "pitch": 54, "duration": 6, "velocity": 75}, {"time": 2232, "pitch": 57, "duration": 9, "velocity": 100}, {"time": 2238, "pitch": 61, "duration": 6, "velocity": 112}, {"time": 2244, "pitch": 47, "duration": 44, "velocity": 83}, {"time": 2250, "pitch": 54, "duration": 21, "velocity": 99}, {"time": 2256, "pitch": 59, "duration": 8, "velocity": 97}, {"time": 2262, "pitch": 63, "duration": 7, "velocity": 117}, {"time": 2268, "pitch": 66, "duration": 32, "velocity": 117}, {"time": 2274, "pitch": 54, "duration": 18, "velocity": 100}, {"time": 2280, "pitch": 63, "duration": 20, "velocity": 127}, {"time": 2286, "pitch": 59, "duration": 10, "velocity": 95}, {"time": 2292, "pitch": 47, "duration": 35, "velocity": 92}, {"time": 2298, "pitch": 54, "duration": 22, "velocity": 100}, {"time": 2301, "pitch": 59, "duration": 15, "velocity": 96}, {"time": 2310, "pitch": 63, "duration": 8, "velocity": 117}, {"time": 2316, "pitch": 66, "duration": 21, "velocity": 122}, {"time": 2322, "pitch": 54, "duration": 4, "velocity": 92}, {"time": 2328, "pitch": 63, "duration": 11, "velocity": 117}, {"time": 2334, "pitch": 59, "duration": 6, "velocity": 99}, {"time": 2340, "pitch": 44, "duration": 46, "velocity": 92}, {"time": 2346, "pitch": 51, "duration": 42, "velocity": 83}, {"time": 2352, "pitch": 56, "duration": 14, "velocity": 102}, {"time": 2358, "pitch": 59, "duration": 18, "velocity": 96}, {"time": 2364, "pitch": 68, "duration": 34, "velocity": 112}, {"time": 2370, "pitch": 56, "duration": 22, "velocity": 107}, {"time": 2376, "pitch": 63, "duration": 20, "velocity": 117}, {"time": 2382, "pitch": 59, "duration": 20, "velocity": 97}, {"time": 2388, "pitch": 44, "duration": 40, "velocity": 93}, {"time": 2394, "pitch": 51, "duration": 26, "velocity": 68}, {"time": 2400, "pitch": 56, "duration": 13, "velocity": 100}, {"time": 2406, "pitch": 59, "duration": 12, "velocity": 100}, {"time": 2412, "pitch": 68, "duration": 20, "velocity": 117}, {"time": 2418, "pitch": 56, "duration": 5, "velocity": 112}, {"time": 2424, "pitch": 63, "duration": 9, "velocity": 112}, {"time": 2430, "pitch": 59, "duration": 6, "velocity": 88}, {"time": 2436, "pitch": 49, "duration": 28, "velocity": 122}, {"time": 2442, "pitch": 56, "duration": 8, "velocity": 79}, {"time": 2448, "pitch": 61, "duration": 9, "velocity": 83}, {"time": 2454, "pitch": 56, "duration": 8, "velocity": 107}, {"time": 2460, "pitch": 64, "duration": 24, "velocity": 89}, {"time": 2466, "pitch": 49, "duration": 14, "velocity": 93}, {"time": 2472, "pitch": 56, "duration": 7, "velocity": 99}, {"time": 2478, "pitch": 61, "duration": 8, "velocity": 95}, {"time": 2484, "pitch": 45, "duration": 34, "velocity": 82}, {"time": 2490, "pitch": 52, "duration": 21, "velocity": 89}, {"time": 2496, "pitch": 57, "duration": 6, "velocity": 112}, {"time": 2502, "pitch": 61, "duration": 7, "velocity": 117}, {"time": 2508, "pitch": 64, "duration": 22, "velocity": 99}, {"time": 2514, "pitch": 52, "duration": 3, "velocity": 88}, {"time": 2520, "pitch": 61, "duration": 10, "velocity": 127}, {"time": 2526, "pitch": 57, "duration": 7, "velocity": 100}, {"time": 2532, "pitch": 49, "duration": 33, "velocity": 122}, {"time": 2538, "pitch": 56, "duration": 6, "velocity": 69}, {"time": 2544, "pitch": 61, "duration": 7, "velocity": 95}, {"time": 2550, "pitch": 56, "duration": 8, "velocity": 89}, {"time": 2556, "pitch": 64, "duration": 22, "velocity": 95}, {"time": 2562, "pitch": 56, "duration": 7, "velocity": 95}, {"time": 2568, "pitch": 61, "duration": 9, "velocity": 83}, {"time": 2574, "pitch": 56, "duration": 7, "velocity": 107}, {"time": 2580, "pitch": 42, "duration": 34, "velocity": 76}, {"time": 2586, "pitch": 49, "duration": 27, "velocity": 76}, {"time": 2592, "pitch": 54, "duration": 13, "velocity": 102}, {"time": 2598, "pitch": 58, "duration": 7, "velocity": 112}, {"time": 2604, "pitch": 61, "duration": 12, "velocity": 112}, {"time": 2610, "pitch": 54, "duration": 7, "velocity": 102}, {"time": 2616, "pitch": 58, "duration": 8, "velocity": 117}, {"time": 2622, "pitch": 61, "duration": 5, "velocity": 122}, {"time": 2628, "pitch": 47, "duration": 46, "velocity": 81}, {"time": 2634, "pitch": 54, "duration": 22, "velocity": 95}, {"time": 2640, "pitch": 59, "duration": 8, "velocity": 95}, {"time": 2646, "pitch": 63, "duration": 7, "velocity": 112}, {"time": 2652, "pitch": 66, "duration": 15, "velocity": 117}, {"time": 2658, "pitch": 54, "duration": 19, "velocity": 102}, {"time": 2664, "pitch": 63, "duration": 11, "velocity": 117}, {"time": 2670, "pitch": 61, "duration": 6, "velocity": 122}, {"time": 2670, "pitch": 66, "duration": 6, "velocity": 27}, {"time": 2676, "pitch": 47, "duration": 48, "velocity": 85}, {"time": 2682, "pitch": 54, "duration": 20, "velocity": 107}, {"time": 2688, "pitch": 59, "duration": 14, "velocity": 86}, {"time": 2694, "pitch": 63, "duration": 6, "velocity": 127}, {"time": 2700, "pitch": 63, "duration": 10, "velocity": 75}, {"time": 2700, "pitch": 66, "duration": 10, "velocity": 127}, {"time": 2712, "pitch": 54, "duration": 12, "velocity": 44}, {"time": 2712, "pitch": 59, "duration": 12, "velocity": 65}, {"time": 2712, "pitch": 63, "duration": 12, "velocity": 122}, {"time": 2712, "pitch": 66, "duration": 12, "velocity": 117}, {"time": 2724, "pitch": 40, "duration": 44, "velocity": 85}, {"time": 2730, "pitch": 47, "duration": 43, "velocity": 76}, {"time": 2736, "pitch": 52, "duration": 15, "velocity": 90}, {"time": 2742, "pitch": 59, "duration": 8, "velocity": 72}, {"time": 2748, "pitch": 64, "duration": 44, "velocity": 74}, {"time": 2760, "pitch": 59, "duration": 26, "velocity": 85}, {"time": 2772, "pitch": 40, "duration": 32, "velocity": 72}, {"time": 2778, "pitch": 47, "duration": 27, "velocity": 65}, {"time": 2784, "pitch": 52, "duration": 15, "velocity": 86}, {"time": 2790, "pitch": 59, "duration": 32, "velocity": 76}, {"time": 2796, "pitch": 68, "duration": 24, "velocity": 117}, {"time": 2808, "pitch": 64, "duration": 12, "velocity": 78}, {"time": 2820, "pitch": 42, "duration": 47, "velocity": 78}, {"time": 2826, "pitch": 49, "duration": 44, "velocity": 65}, {"time": 2832, "pitch": 54, "duration": 16, "velocity": 82}, {"time": 2838, "pitch": 66, "duration": 50, "velocity": 82}, {"time": 2850, "pitch": 54, "duration": 24, "velocity": 53}, {"time": 2856, "pitch": 61, "duration": 30, "velocity": 82}, {"time": 2868, "pitch": 42, "duration": 33, "velocity": 60}, {"time": 2874, "pitch": 49, "duration": 28, "velocity": 54}, {"time": 2880, "pitch": 54, "duration": 14, "velocity": 99}, {"time": 2886, "pitch": 57, "duration": 31, "velocity": 92}, {"time": 2892, "pitch": 66, "duration": 27, "velocity": 122}, {"time": 2898, "pitch": 54, "duration": 8, "velocity": 86}, {"time": 2904, "pitch": 61, "duration": 13, "velocity": 99}, {"time": 2916, "pitch": 47, "duration": 46, "velocity": 71}, {"time": 2922, "pitch": 54, "duration": 45, "velocity": 93}, {"time": 2928, "pitch": 59, "duration": 45, "velocity": 63}, {"time": 2934, "pitch": 63, "duration": 8, "velocity": 79}, {"time": 2940, "pitch": 66, "duration": 32, "velocity": 107}, {"time": 2952, "pitch": 63, "duration": 26, "velocity": 79}, {"time": 2964, "pitch": 47, "duration": 26, "velocity": 70}, {"time": 2970, "pitch": 54, "duration": 19, "velocity": 83}, {"time": 2976, "pitch": 59, "duration": 48, "velocity": 72}, {"time": 2982, "pitch": 63, "duration": 9, "velocity": 93}, {"time": 2988, "pitch": 66, "duration": 15, "velocity": 102}, {"time": 3000, "pitch": 63, "duration": 10, "velocity": 93}, {"time": 3012, "pitch": 40, "duration": 45, "velocity": 79}, {"time": 3018, "pitch": 47, "duration": 44, "velocity": 74}, {"time": 3024, "pitch": 52, "duration": 35, "velocity": 90}, {"time": 3030, "pitch": 59, "duration": 45, "velocity": 82}, {"time": 3036, "pitch": 68, "duration": 44, "velocity": 100}, {"time": 3048, "pitch": 64, "duration": 32, "velocity": 88}, {"time": 3060, "pitch": 40, "duration": 35, "velocity": 64}, {"time": 3066, "pitch": 47, "duration": 30, "velocity": 59}, {"time": 3072, "pitch": 52, "duration": 16, "velocity": 90}, {"time": 3078, "pitch": 59, "duration": 30, "velocity": 83}, {"time": 3084, "pitch": 68, "duration": 24, "velocity": 122}, {"time": 3090, "pitch": 52, "duration": 10, "velocity": 85}, {"time": 3096, "pitch": 64, "duration": 12, "velocity": 90}, {"time": 3108, "pitch": 40, "duration": 46, "velocity": 95}, {"time": 3114, "pitch": 47, "duration": 44, "velocity": 75}, {"time": 3120, "pitch": 52, "duration": 44, "velocity": 89}, {"time": 3126, "pitch": 59, "duration": 45, "velocity": 85}, {"time": 3132, "pitch": 68, "duration": 40, "velocity": 117}, {"time": 3144, "pitch": 64, "duration": 32, "velocity": 70}, {"time": 3156, "pitch": 40, "duration": 25, "velocity": 69}, {"time": 3162, "pitch": 47, "duration": 23, "velocity": 61}, {"time": 3168, "pitch": 52, "duration": 9, "velocity": 88}, {"time": 3174, "pitch": 59, "duration": 14, "velocity": 76}, {"time": 3180, "pitch": 68, "duration": 24, "velocity": 127}, {"time": 3186, "pitch": 64, "duration": 18, "velocity": 82}, {"time": 3192, "pitch": 59, "duration": 14, "velocity": 90}, {"time": 3204, "pitch": 42, "duration": 46, "velocity": 72}, {"time": 3210, "pitch": 49, "duration": 43, "velocity": 60}, {"time": 3216, "pitch": 54, "duration": 44, "velocity": 81}, {"time": 3222, "pitch": 57, "duration": 45, "velocity": 89}, {"time": 3228, "pitch": 66, "duration": 39, "velocity": 117}, {"time": 3240, "pitch": 61, "duration": 27, "velocity": 112}, {"time": 3252, "pitch": 42, "duration": 34, "velocity": 59}, {"time": 3258, "pitch": 49, "duration": 29, "velocity": 69}, {"time": 3264, "pitch": 54, "duration": 15, "velocity": 89}, {"time": 3270, "pitch": 57, "duration": 30, "velocity": 82}, {"time": 3276, "pitch": 66, "duration": 25, "velocity": 127}, {"time": 3282, "pitch": 54, "duration": 7, "velocity": 93}, {"time": 3288, "pitch": 61, "duration": 11, "velocity": 122}, {"time": 3300, "pitch": 47, "duration": 45, "velocity": 74}, {"time": 3306, "pitch": 54, "duration": 43, "velocity": 64}, {"time": 3312, "pitch": 59, "duration": 10, "velocity": 93}, {"time": 3318, "pitch": 63, "duration": 7, "velocity": 93}, {"time": 3324, "pitch": 66, "duration": 36, "velocity": 100}, {"time": 3336, "pitch": 63, "duration": 25, "velocity": 55}, {"time": 3342, "pitch": 59, "duration": 15, "velocity": 59}, {"time": 3348, "pitch": 47, "duration": 31, "velocity": 53}, {"time": 3354, "pitch": 54, "duration": 21, "velocity": 74}, {"time": 3360, "pitch": 59, "duration": 9, "velocity": 79}, {"time": 3366, "pitch": 66, "duration": 29, "velocity": 117}, {"time": 3372, "pitch": 63, "duration": 22, "velocity": 112}, {"time": 3384, "pitch": 59, "duration": 27, "velocity": 76}, {"time": 3396, "pitch": 40, "duration": 45, "velocity": 72}, {"time": 3402, "pitch": 47, "duration": 44, "velocity": 56}, {"time": 3408, "pitch": 52, "duration": 15, "velocity": 83}, {"time": 3414, "pitch": 59, "duration": 42, "velocity": 86}, {"time": 3420, "pitch": 68, "duration": 38, "velocity": 99}, {"time": 3426, "pitch": 52, "duration": 5, "velocity": 82}, {"time": 3432, "pitch": 64, "duration": 18, "velocity": 78}, {"time": 3444, "pitch": 40, "duration": 36, "velocity": 70}, {"time": 3450, "pitch": 47, "duration": 30, "velocity": 69}, {"time": 3456, "pitch": 52, "duration": 14, "velocity": 99}, {"time": 3462, "pitch": 59, "duration": 18, "velocity": 93}, {"time": 3468, "pitch": 68, "duration": 12, "velocity": 127}, {"time": 3474, "pitch": 52, "duration": 6, "velocity": 89}, {"time": 3492, "pitch": 40, "duration": 18, "velocity": 75}, {"time": 3510, "pitch": 40, "duration": 24, "velocity": 81}, {"time": 3516, "pitch": 52, "duration": 10, "velocity": 78}, {"time": 3516, "pitch": 56, "duration": 10, "velocity": 78}, {"time": 3516, "pitch": 59, "duration": 10, "velocity": 75}, {"time": 3528, "pitch": 52, "duration": 11, "velocity": 68}, {"time": 3528, "pitch": 56, "duration": 12, "velocity": 70}, {"time": 3528, "pitch": 59, "duration": 12, "velocity": 78}, {"time": 3540, "pitch": 40, "duration": 44, "velocity": 81}, {"time": 3558, "pitch": 47, "duration": 32, "velocity": 59}, {"time": 3564, "pitch": 64, "duration": 33, "velocity": 81}, {"time": 3564, "pitch": 68, "duration": 31, "velocity": 95}, {"time": 3576, "pitch": 59, "duration": 19, "velocity": 85}, {"time": 3588, "pitch": 40, "duration": 38, "velocity": 77}, {"time": 3606, "pitch": 47, "duration": 27, "velocity": 59}, {"time": 3612, "pitch": 64, "duration": 25, "velocity": 88}, {"time": 3612, "pitch": 68, "duration": 24, "velocity": 95}, {"time": 3624, "pitch": 59, "duration": 13, "velocity": 86}, {"time": 3636, "pitch": 40, "duration": 47, "velocity": 73}, {"time": 3654, "pitch": 47, "duration": 32, "velocity": 45}, {"time": 3660, "pitch": 64, "duration": 28, "velocity": 70}, {"time": 3660, "pitch": 68, "duration": 28, "velocity": 70}, {"time": 3684, "pitch": 40, "duration": 44, "velocity": 77}, {"time": 3702, "pitch": 47, "duration": 30, "velocity": 63}, {"time": 3708, "pitch": 64, "duration": 41, "velocity": 90}, {"time": 3708, "pitch": 68, "duration": 41, "velocity": 92}, {"time": 3720, "pitch": 59, "duration": 15, "velocity": 78}, {"time": 3732, "pitch": 40, "duration": 39, "velocity": 72}, {"time": 3750, "pitch": 47, "duration": 30, "velocity": 62}, {"time": 3756, "pitch": 64, "duration": 26, "velocity": 92}, {"time": 3756, "pitch": 68, "duration": 26, "velocity": 93}, {"time": 3768, "pitch": 59, "duration": 14, "velocity": 88}, {"time": 3780, "pitch": 40, "duration": 38, "velocity": 82}, {"time": 3798, "pitch": 47, "duration": 27, "velocity": 58}, {"time": 3804, "pitch": 64, "duration": 26, "velocity": 85}, {"time": 3804, "pitch": 68, "duration": 26, "velocity": 85}, {"time": 3816, "pitch": 59, "duration": 13, "velocity": 78}, {"time": 3828, "pitch": 40, "duration": 50, "velocity": 72}, {"time": 3852, "pitch": 47, "duration": 23, "velocity": 58}, {"time": 3852, "pitch": 59, "duration": 24, "velocity": 59}, {"time": 3852, "pitch": 64, "duration": 23, "velocity": 55}, {"time": 3852, "pitch": 68, "duration": 23, "velocity": 53}, {"time": 3876, "pitch": 40, "duration": 2, "velocity": 85}, {"time": 3882, "pitch": 47, "duration": 43, "velocity": 76}, {"time": 3888, "pitch": 52, "duration": 15, "velocity": 90}, {"time": 3894, "pitch": 59, "duration": 8, "velocity": 72}, {"time": 3900, "pitch": 64, "duration": 44, "velocity": 74}, {"time": 3912, "pitch": 59, "duration": 26, "velocity": 85}, {"time": 3924, "pitch": 40, "duration": 32, "velocity": 72}, {"time": 3930, "pitch": 47, "duration": 27, "velocity": 65}, {"time": 3936, "pitch": 52, "duration": 15, "velocity": 86}, {"time": 3942, "pitch": 59, "duration": 32, "velocity": 76}, {"time": 3948, "pitch": 68, "duration": 24, "velocity": 117}, {"time": 3960, "pitch": 64, "duration": 12, "velocity": 78}, {"time": 3972, "pitch": 42, "duration": 47, "velocity": 78}, {"time": 3978, "pitch": 49, "duration": 44, "velocity": 65}, {"time": 3984, "pitch": 54, "duration": 16, "velocity": 82}, {"time": 3990, "pitch": 66, "duration": 50, "velocity": 82}, {"time": 4002, "pitch": 54, "duration": 24, "velocity": 53}, {"time": 4008, "pitch": 61, "duration": 30, "velocity": 82}, {"time": 4020, "pitch": 42, "duration": 33, "velocity": 60}, {"time": 4026, "pitch": 49, "duration": 28, "velocity": 54}, {"time": 4032, "pitch": 54, "duration": 14, "velocity": 99}, {"time": 4038, "pitch": 57, "duration": 31, "velocity": 92}, {"time": 4044, "pitch": 66, "duration": 27, "velocity": 122}, {"time": 4050, "pitch": 54, "duration": 8, "velocity": 86}, {"time": 4056, "pitch": 61, "duration": 13, "velocity": 99}, {"time": 4068, "pitch": 47, "duration": 46, "velocity": 71}, {"time": 4074, "pitch": 54, "duration": 45, "velocity": 93}, {"time": 4080, "pitch": 59, "duration": 45, "velocity": 63}, {"time": 4086, "pitch": 63, "duration": 8, "velocity": 79}, {"time": 4092, "pitch": 66, "duration": 32, "velocity": 107}, {"time": 4104, "pitch": 63, "duration": 26, "velocity": 79}, {"time": 4116, "pitch": 47, "duration": 26, "velocity": 70}, {"time": 4122, "pitch": 54, "duration": 19, "velocity": 83}, {"time": 4128, "pitch": 59, "duration": 48, "velocity": 72}, {"time": 4134, "pitch": 63, "duration": 9, "velocity": 93}, {"time": 4140, "pitch": 66, "duration": 15, "velocity": 102}, {"time": 4152, "pitch": 63, "duration": 10, "velocity": 93}, {"time": 4164, "pitch": 40, "duration": 45, "velocity": 79}, {"time": 4170, "pitch": 47, "duration": 44, "velocity": 74}, {"time": 4176, "pitch": 52, "duration": 35, "velocity": 90}, {"time": 4182, "pitch": 59, "duration": 45, "velocity": 82}, {"time": 4188, "pitch": 68, "duration": 44, "velocity": 100}, {"time": 4200, "pitch": 64, "duration": 32, "velocity": 88}, {"time": 4212, "pitch": 40, "duration": 35, "velocity": 64}, {"time": 4218, "pitch": 47, "duration": 30, "velocity": 59}, {"time": 4224, "pitch": 52, "duration": 16, "velocity": 90}, {"time": 4230, "pitch": 59, "duration": 30, "velocity": 83}, {"time": 4236, "pitch": 68, "duration": 24, "velocity": 122}, {"time": 4242, "pitch": 52, "duration": 10, "velocity": 85}, {"time": 4248, "pitch": 64, "duration": 12, "velocity": 90}, {"time": 4260, "pitch": 40, "duration": 46, "velocity": 95}, {"time": 4266, "pitch": 47, "duration": 44, "velocity": 75}, {"time": 4272, "pitch": 52, "duration": 44, "velocity": 89}, {"time": 4278, "pitch": 59, "duration": 45, "velocity": 85}, {"time": 4284, "pitch": 68, "duration": 40, "velocity": 117}, {"time": 4296, "pitch": 64, "duration": 32, "velocity": 70}, {"time": 4308, "pitch": 40, "duration": 25, "velocity": 69}, {"time": 4314, "pitch": 47, "duration": 23, "velocity": 61}, {"time": 4320, "pitch": 52, "duration": 9, "velocity": 88}, {"time": 4326, "pitch": 59, "duration": 14, "velocity": 76}, {"time": 4332, "pitch": 68, "duration": 24, "velocity": 127}, {"time": 4338, "pitch": 64, "duration": 18, "velocity": 82}, {"time": 4344, "pitch": 59, "duration": 14, "velocity": 90}, {"time": 4356, "pitch": 42, "duration": 46, "velocity": 72}, {"time": 4362, "pitch": 49, "duration": 43, "velocity": 60}, {"time": 4368, "pitch": 54, "duration": 44, "velocity": 81}, {"time": 4374, "pitch": 57, "duration": 45, "velocity": 89}, {"time": 4380, "pitch": 66, "duration": 39, "velocity": 117}, {"time": 4392, "pitch": 61, "duration": 27, "velocity": 112}, {"time": 4404, "pitch": 42, "duration": 34, "velocity": 59}, {"time": 4410, "pitch": 49, "duration": 29, "velocity": 69}, {"time": 4416, "pitch": 54, "duration": 15, "velocity": 89}, {"time": 4422, "pitch": 57, "duration": 30, "velocity": 82}, {"time": 4428, "pitch": 66, "duration": 25, "velocity": 127}, {"time": 4434, "pitch": 54, "duration": 7, "velocity": 93}, {"time": 4440, "pitch": 61, "duration": 11, "velocity": 122}, {"time": 4452, "pitch": 47, "duration": 45, "velocity": 74}, {"time": 4458, "pitch": 54, "duration": 43, "velocity": 64}, {"time": 4464, "pitch": 59, "duration": 10, "velocity": 93}, {"time": 4470, "pitch": 63, "duration": 7, "velocity": 93}, {"time": 4476, "pitch": 66, "duration": 36, "velocity": 100}, {"time": 4488, "pitch": 63, "duration": 25, "velocity": 55}, {"time": 4494, "pitch": 59, "duration": 15, "velocity": 59}, {"time": 4500, "pitch": 47, "duration": 31, "velocity": 53}, {"time": 4506, "pitch": 54, "duration": 21, "velocity": 74}, {"time": 4512, "pitch": 59, "duration": 9, "velocity": 79}, {"time": 4518, "pitch": 66, "duration": 29, "velocity": 117}, {"time": 4524, "pitch": 63, "duration": 22, "velocity": 112}, {"time": 4536, "pitch": 59, "duration": 27, "velocity": 76}, {"time": 4548, "pitch": 40, "duration": 45, "velocity": 72}, {"time": 4554, "pitch": 47, "duration": 44, "velocity": 56}, {"time": 4560, "pitch": 52, "duration": 15, "velocity": 83}, {"time": 4566, "pitch": 59, "duration": 42, "velocity": 86}, {"time": 4572, "pitch": 68, "duration": 38, "velocity": 99}, {"time": 4578, "pitch": 52, "duration": 5, "velocity": 82}, {"time": 4584, "pitch": 64, "duration": 18, "velocity": 78}, {"time": 4596, "pitch": 40, "duration": 45, "velocity": 70}, {"time": 4602, "pitch": 47, "duration": 39, "velocity": 69}, {"time": 4608, "pitch": 52, "duration": 14, "velocity": 99}, {"time": 4614, "pitch": 59, "duration": 30, "velocity": 93}, {"time": 4620, "pitch": 68, "duration": 24, "velocity": 127}, {"time": 4626, "pitch": 52, "duration": 6, "velocity": 89}, {"time": 4632, "pitch": 64, "duration": 12, "velocity": 92}, {"time": 4644, "pitch": 44, "duration": 46, "velocity": 93}, {"time": 4650, "pitch": 51, "duration": 40, "velocity": 97}, {"time": 4656, "pitch": 56, "duration": 15, "velocity": 107}, {"time": 4662, "pitch": 59, "duration": 14, "velocity": 112}, {"time": 4668, "pitch": 68, "duration": 22, "velocity": 117}, {"time": 4674, "pitch": 56, "duration": 12, "velocity": 112}, {"time": 4680, "pitch": 63, "duration": 9, "velocity": 127}, {"time": 4686, "pitch": 59, "duration": 6, "velocity": 92}, {"time": 4692, "pitch": 49, "duration": 47, "velocity": 92}, {"time": 4698, "pitch": 56, "duration": 8, "velocity": 96}, {"time": 4704, "pitch": 61, "duration": 7, "velocity": 112}, {"time": 4710, "pitch": 56, "duration": 8, "velocity": 112}, {"time": 4716, "pitch": 64, "duration": 24, "velocity": 99}, {"time": 4722, "pitch": 56, "duration": 8, "velocity": 102}, {"time": 4728, "pitch": 61, "duration": 9, "velocity": 97}, {"time": 4734, "pitch": 56, "duration": 5, "velocity": 112}, {"time": 4740, "pitch": 44, "duration": 42, "velocity": 79}, {"time": 4746, "pitch": 51, "duration": 31, "velocity": 73}, {"time": 4752, "pitch": 59, "duration": 16, "velocity": 97}, {"time": 4758, "pitch": 56, "duration": 10, "velocity": 67}, {"time": 4758, "pitch": 63, "duration": 7, "velocity": 107}, {"time": 4764, "pitch": 68, "duration": 21, "velocity": 127}, {"time": 4770, "pitch": 56, "duration": 5, "velocity": 112}, {"time": 4776, "pitch": 63, "duration": 9, "velocity": 117}, {"time": 4782, "pitch": 59, "duration": 6, "velocity": 99}, {"time": 4788, "pitch": 49, "duration": 30, "velocity": 112}, {"time": 4794, "pitch": 56, "duration": 8, "velocity": 100}, {"time": 4800, "pitch": 61, "duration": 9, "velocity": 99}, {"time": 4806, "pitch": 56, "duration": 8, "velocity": 112}, {"time": 4812, "pitch": 64, "duration": 15, "velocity": 92}, {"time": 4818, "pitch": 56, "duration": 13, "velocity": 107}, {"time": 4824, "pitch": 61, "duration": 13, "velocity": 75}, {"time": 4830, "pitch": 64, "duration": 7, "velocity": 83}, {"time": 4836, "pitch": 42, "duration": 45, "velocity": 83}, {"time": 4842, "pitch": 49, "duration": 42, "velocity": 57}, {"time": 4848, "pitch": 54, "duration": 14, "velocity": 97}, {"time": 4854, "pitch": 57, "duration": 8, "velocity": 95}, {"time": 4860, "pitch": 61, "duration": 14, "velocity": 89}, {"time": 4860, "pitch": 66, "duration": 20, "velocity": 127}, {"time": 4866, "pitch": 54, "duration": 9, "velocity": 93}, {"time": 4872, "pitch": 57, "duration": 20, "velocity": 96}, {"time": 4878, "pitch": 54, "duration": 4, "velocity": 30}, {"time": 4878, "pitch": 61, "duration": 11, "velocity": 122}, {"time": 4884, "pitch": 42, "duration": 23, "velocity": 90}, {"time": 4890, "pitch": 49, "duration": 31, "velocity": 99}, {"time": 4896, "pitch": 54, "duration": 17, "velocity": 102}, {"time": 4902, "pitch": 57, "duration": 9, "velocity": 112}, {"time": 4908, "pitch": 42, "duration": 12, "velocity": 45}, {"time": 4908, "pitch": 61, "duration": 14, "velocity": 127}, {"time": 4908, "pitch": 66, "duration": 24, "velocity": 127}, {"time": 4920, "pitch": 54, "duration": 6, "velocity": 75}, {"time": 4920, "pitch": 57, "duration": 9, "velocity": 100}, {"time": 4926, "pitch": 61, "duration": 6, "velocity": 112}, {"time": 4932, "pitch": 47, "duration": 44, "velocity": 83}, {"time": 4938, "pitch": 54, "duration": 21, "velocity": 99}, {"time": 4944, "pitch": 59, "duration": 8, "velocity": 97}, {"time": 4950, "pitch": 63, "duration": 7, "velocity": 117}, {"time": 4956, "pitch": 66, "duration": 32, "velocity": 117}, {"time": 4962, "pitch": 54, "duration": 18, "velocity": 100}, {"time": 4968, "pitch": 63, "duration": 20, "velocity": 127}, {"time": 4974, "pitch": 59, "duration": 10, "velocity": 95}, {"time": 4980, "pitch": 47, "duration": 35, "velocity": 92}, {"time": 4986, "pitch": 54, "duration": 22, "velocity": 100}, {"time": 4989, "pitch": 59, "duration": 15, "velocity": 96}, {"time": 4998, "pitch": 63, "duration": 8, "velocity": 117}, {"time": 5004, "pitch": 66, "duration": 21, "velocity": 122}, {"time": 5010, "pitch": 54, "duration": 4, "velocity": 92}, {"time": 5016, "pitch": 63, "duration": 11, "velocity": 117}, {"time": 5022, "pitch": 59, "duration": 6, "velocity": 99}, {"time": 5028, "pitch": 44, "duration": 46, "velocity": 92}, {"time": 5034, "pitch": 51, "duration": 42, "velocity": 83}, {"time": 5040, "pitch": 56, "duration": 14, "velocity": 102}, {"time": 5046, "pitch": 59, "duration": 18, "velocity": 96}, {"time": 5052, "pitch": 68, "duration": 34, "velocity": 112}, {"time": 5058, "pitch": 56, "duration": 22, "velocity": 107}, {"time": 5064, "pitch": 63, "duration": 20, "velocity": 117}, {"time": 5070, "pitch": 59, "duration": 20, "velocity": 97}, {"time": 5076, "pitch": 44, "duration": 40, "velocity": 93}, {"time": 5082, "pitch": 51, "duration": 26, "velocity": 68}, {"time": 5088, "pitch": 56, "duration": 13, "velocity": 100}, {"time": 5094, "pitch": 59, "duration": 12, "velocity": 100}, {"time": 5100, "pitch": 68, "duration": 20, "velocity": 117}, {"time": 5106, "pitch": 56, "duration": 5, "velocity": 112}, {"time": 5112, "pitch": 63, "duration": 9, "velocity": 112}, {"time": 5118, "pitch": 59, "duration": 6, "velocity": 88}, {"time": 5124, "pitch": 49, "duration": 28, "velocity": 122}, {"time": 5130, "pitch": 56, "duration": 8, "velocity": 79}, {"time": 5136, "pitch": 61, "duration": 9, "velocity": 83}, {"time": 5142, "pitch": 56, "duration": 8, "velocity": 107}, {"time": 5148, "pitch": 64, "duration": 24, "velocity": 89}, {"time": 5154, "pitch": 49, "duration": 14, "velocity": 93}, {"time": 5160, "pitch": 56, "duration": 7, "velocity": 99}, {"time": 5166, "pitch": 61, "duration": 8, "velocity": 95}, {"time": 5172, "pitch": 45, "duration": 34, "velocity": 82}, {"time": 5178, "pitch": 52, "duration": 21, "velocity": 89}, {"time": 5184, "pitch": 57, "duration": 6, "velocity": 112}, {"time": 5190, "pitch": 61, "duration": 7, "velocity": 117}, {"time": 5196, "pitch": 64, "duration": 22, "velocity": 99}, {"time": 5202, "pitch": 52, "duration": 3, "velocity": 88}, {"time": 5208, "pitch": 61, "duration": 10, "velocity": 127}, {"time": 5214, "pitch": 57, "duration": 7, "velocity": 100}, {"time": 5220, "pitch": 49, "duration": 33, "velocity": 122}, {"time": 5226, "pitch": 56, "duration": 6, "velocity": 69}, {"time": 5232, "pitch": 61, "duration": 7, "velocity": 95}, {"time": 5238, "pitch": 56, "duration": 8, "velocity": 89}, {"time": 5244, "pitch": 64, "duration": 22, "velocity": 95}, {"time": 5250, "pitch": 56, "duration": 7, "velocity": 95}, {"time": 5256, "pitch": 61, "duration": 9, "velocity": 83}, {"time": 5262, "pitch": 56, "duration": 7, "velocity": 107}, {"time": 5268, "pitch": 42, "duration": 34, "velocity": 76}, {"time": 5274, "pitch": 49, "duration": 27, "velocity": 76}, {"time": 5280, "pitch": 54, "duration": 13, "velocity": 102}, {"time": 5286, "pitch": 58, "duration": 7, "velocity": 112}, {"time": 5292, "pitch": 61, "duration": 12, "velocity": 112}, {"time": 5298, "pitch": 54, "duration": 7, "velocity": 102}, {"time": 5304, "pitch": 58, "duration": 8, "velocity": 117}, {"time": 5310, "pitch": 61, "duration": 5, "velocity": 122}, {"time": 5316, "pitch": 47, "duration": 46, "velocity": 81}, {"time": 5322, "pitch": 54, "duration": 22, "velocity": 95}, {"time": 5328, "pitch": 59, "duration": 8, "velocity": 95}, {"time": 5334, "pitch": 63, "duration": 7, "velocity": 112}, {"time": 5340, "pitch": 66, "duration": 15, "velocity": 117}, {"time": 5346, "pitch": 54, "duration": 19, "velocity": 102}, {"time": 5352, "pitch": 63, "duration": 11, "velocity": 117}, {"time": 5358, "pitch": 61, "duration": 6, "velocity": 122}, {"time": 5358, "pitch": 66, "duration": 6, "velocity": 27}, {"time": 5364, "pitch": 47, "duration": 48, "velocity": 85}, {"time": 5370, "pitch": 54, "duration": 20, "velocity": 107}, {"time": 5376, "pitch": 59, "duration": 14, "velocity": 86}, {"time": 5382, "pitch": 63, "duration": 6, "velocity": 127}, {"time": 5388, "pitch": 63, "duration": 10, "velocity": 75}, {"time": 5388, "pitch": 66, "duration": 10, "velocity": 127}, {"time": 5400, "pitch": 54, "duration": 12, "velocity": 44}, {"time": 5400, "pitch": 59, "duration": 12, "velocity": 65}, {"time": 5400, "pitch": 63, "duration": 12, "velocity": 122}, {"time": 5400, "pitch": 66, "duration": 12, "velocity": 117}, {"time": 5412, "pitch": 40, "duration": 44, "velocity": 85}, {"time": 5418, "pitch": 47, "duration": 43, "velocity": 76}, {"time": 5424, "pitch": 52, "duration": 15, "velocity": 90}, {"time": 5430, "pitch": 59, "duration": 8, "velocity": 72}, {"time": 5436, "pitch": 64, "duration": 44, "velocity": 74}, {"time": 5448, "pitch": 59, "duration": 26, "velocity": 85}, {"time": 5460, "pitch": 40, "duration": 32, "velocity": 72}, {"time": 5466, "pitch": 47, "duration": 27, "velocity": 65}, {"time": 5472, "pitch": 52, "duration": 15, "velocity": 86}, {"time": 5478, "pitch": 59, "duration": 32, "velocity": 76}, {"time": 5484, "pitch": 68, "duration": 24, "velocity": 117}, {"time": 5496, "pitch": 64, "duration": 12, "velocity": 78}, {"time": 5508, "pitch": 42, "duration": 47, "velocity": 78}, {"time": 5514, "pitch": 49, "duration": 44, "velocity": 65}, {"time": 5520, "pitch": 54, "duration": 16, "velocity": 82}, {"time": 5526, "pitch": 66, "duration": 50, "velocity": 82}, {"time": 5538, "pitch": 54, "duration": 24, "velocity": 53}, {"time": 5544, "pitch": 61, "duration": 30, "velocity": 82}, {"time": 5556, "pitch": 42, "duration": 33, "velocity": 60}, {"time": 5562, "pitch": 49, "duration": 28, "velocity": 54}, {"time": 5568, "pitch": 54, "duration": 14, "velocity": 99}, {"time": 5574, "pitch": 57, "duration": 31, "velocity": 92}, {"time": 5580, "pitch": 66, "duration": 27, "velocity": 122}, {"time": 5586, "pitch": 54, "duration": 8, "velocity": 86}, {"time": 5592, "pitch": 61, "duration": 13, "velocity": 99}, {"time": 5604, "pitch": 47, "duration": 46, "velocity": 71}, {"time": 5610, "pitch": 54, "duration": 45, "velocity": 93}, {"time": 5616, "pitch": 59, "duration": 45, "velocity": 63}, {"time": 5622, "pitch": 63, "duration": 8, "velocity": 79}, {"time": 5628, "pitch": 66, "duration": 32, "velocity": 107}, {"time": 5640, "pitch": 63, "duration": 26, "velocity": 79}, {"time": 5652, "pitch": 47, "duration": 26, "velocity": 70}, {"time": 5658, "pitch": 54, "duration": 19, "velocity": 83}, {"time": 5664, "pitch": 59, "duration": 48, "velocity": 72}, {"time": 5670, "pitch": 63, "duration": 9, "velocity": 93}, {"time": 5676, "pitch": 66, "duration": 15, "velocity": 102}, {"time": 5688, "pitch": 63, "duration": 10, "velocity": 93}, {"time": 5700, "pitch": 40, "duration": 45, "velocity": 79}, {"time": 5706, "pitch": 47, "duration": 44, "velocity": 74}, {"time": 5712, "pitch": 52, "duration": 35, "velocity": 90}, {"time": 5718, "pitch": 59, "duration": 45, "velocity": 82}, {"time": 5724, "pitch": 68, "duration": 44, "velocity": 100}, {"time": 5736, "pitch": 64, "duration": 32, "velocity": 88}, {"time": 5748, "pitch": 40, "duration": 35, "velocity": 64}, {"time": 5754, "pitch": 47, "duration": 30, "velocity": 59}, {"time": 5760, "pitch": 52, "duration": 16, "velocity": 90}, {"time": 5766, "pitch": 59, "duration": 30, "velocity": 83}, {"time": 5772, "pitch": 68, "duration": 24, "velocity": 122}, {"time": 5778, "pitch": 52, "duration": 10, "velocity": 85}, {"time": 5784, "pitch": 64, "duration": 12, "velocity": 90}, {"time": 5796, "pitch": 40, "duration": 46, "velocity": 95}, {"time": 5802, "pitch": 47, "duration": 44, "velocity": 75}, {"time": 5808, "pitch": 52, "duration": 44, "velocity": 89}, {"time": 5814, "pitch": 59, "duration": 45, "velocity": 85}, {"time": 5820, "pitch": 68, "duration": 40, "velocity": 117}, {"time": 5832, "pitch": 64, "duration": 32, "velocity": 70}, {"time": 5844, "pitch": 40, "duration": 25, "velocity": 69}, {"time": 5850, "pitch": 47, "duration": 23, "velocity": 61}, {"time": 5856, "pitch": 52, "duration": 9, "velocity": 88}, {"time": 5862, "pitch": 59, "duration": 14, "velocity": 76}, {"time": 5868, "pitch": 68, "duration": 24, "velocity": 127}, {"time": 5874, "pitch": 64, "duration": 18, "velocity": 82}, {"time": 5880, "pitch": 59, "duration": 14, "velocity": 90}, {"time": 5892, "pitch": 42, "duration": 46, "velocity": 72}, {"time": 5898, "pitch": 49, "duration": 43, "velocity": 60}, {"time": 5904, "pitch": 54, "duration": 44, "velocity": 81}, {"time": 5910, "pitch": 57, "duration": 45, "velocity": 89}, {"time": 5916, "pitch": 66, "duration": 39, "velocity": 117}, {"time": 5928, "pitch": 61, "duration": 27, "velocity": 112}, {"time": 5940, "pitch": 42, "duration": 34, "velocity": 59}, {"time": 5946, "pitch": 49, "duration": 29, "velocity": 69}, {"time": 5952, "pitch": 54, "duration": 15, "velocity": 89}, {"time": 5958, "pitch": 57, "duration": 30, "velocity": 82}, {"time": 5964, "pitch": 66, "duration": 25, "velocity": 127}, {"time": 5970, "pitch": 54, "duration": 7, "velocity": 93}, {"time": 5976, "pitch": 61, "duration": 11, "velocity": 122}, {"time": 5988, "pitch": 47, "duration": 45, "velocity": 74}, {"time": 5994, "pitch": 54, "duration": 43, "velocity": 64}, {"time": 6000, "pitch": 59, "duration": 10, "velocity": 93}, {"time": 6006, "pitch": 63, "duration": 7, "velocity": 93}, {"time": 6012, "pitch": 66, "duration": 36, "velocity": 100}, {"time": 6024, "pitch": 63, "duration": 25, "velocity": 55}, {"time": 6030, "pitch": 59, "duration": 15, "velocity": 59}, {"time": 6036, "pitch": 47, "duration": 31, "velocity": 53}, {"time": 6042, "pitch": 54, "duration": 21, "velocity": 74}, {"time": 6048, "pitch": 59, "duration": 9, "velocity": 79}, {"time": 6054, "pitch": 66, "duration": 29, "velocity": 117}, {"time": 6060, "pitch": 63, "duration": 22, "velocity": 112}, {"time": 6072, "pitch": 59, "duration": 27, "velocity": 76}, {"time": 6084, "pitch": 40, "duration": 45, "velocity": 72}, {"time": 6090, "pitch": 47, "duration": 44, "velocity": 56}, {"time": 6096, "pitch": 52, "duration": 15, "velocity": 83}, {"time": 6102, "pitch": 59, "duration": 42, "velocity": 86}, {"time": 6108, "pitch": 68, "duration": 38, "velocity": 99}, {"time": 6114, "pitch": 52, "duration": 5, "velocity": 82}, {"time": 6120, "pitch": 64, "duration": 18, "velocity": 78}, {"time": 6132, "pitch": 40, "duration": 45, "velocity": 70}, {"time": 6138, "pitch": 47, "duration": 39, "velocity": 69}, {"time": 6144, "pitch": 52, "duration": 14, "velocity": 99}, {"time": 6150, "pitch": 59, "duration": 30, "velocity": 93}, {"time": 6156, "pitch": 68, "duration": 24, "velocity": 127}, {"time": 6162, "pitch": 52, "duration": 6, "velocity": 89}, {"time": 6168, "pitch": 64, "duration": 12, "velocity": 92}, {"time": 6180, "pitch": 47, "duration": 45, "velocity": 74}, {"time": 6186, "pitch": 54, "duration": 43, "velocity": 64}, {"time": 6192, "pitch": 59, "duration": 10, "velocity": 93}, {"time": 6198, "pitch": 63, "duration": 7, "velocity": 93}, {"time": 6204, "pitch": 66, "duration": 36, "velocity": 100}, {"time": 6216, "pitch": 63, "duration": 25, "velocity": 55}, {"time": 6222, "pitch": 59, "duration": 15, "velocity": 59}, {"time": 6228, "pitch": 47, "duration": 31, "velocity": 53}, {"time": 6234, "pitch": 54, "duration": 21, "velocity": 74}, {"time": 6240, "pitch": 59, "duration": 9, "velocity": 79}, {"time": 6246, "pitch": 66, "duration": 29, "velocity": 117}, {"time": 6252, "pitch": 63, "duration": 22, "velocity": 112}, {"time": 6264, "pitch": 59, "duration": 27, "velocity": 76}, {"time": 6276, "pitch": 40, "duration": 45, "velocity": 72}, {"time": 6282, "pitch": 47, "duration": 44, "velocity": 56}, {"time": 6288, "pitch": 52, "duration": 15, "velocity": 83}, {"time": 6294, "pitch": 59, "duration": 42, "velocity": 86}, {"time": 6300, "pitch": 68, "duration": 38, "velocity": 99}, {"time": 6306, "pitch": 52, "duration": 5, "velocity": 82}, {"time": 6312, "pitch": 64, "duration": 18, "velocity": 78}, {"time": 6324, "pitch": 40, "duration": 45, "velocity": 70}, {"time": 6330, "pitch": 47, "duration": 39, "velocity": 69}, {"time": 6336, "pitch": 52, "duration": 14, "velocity": 99}, {"time": 6342, "pitch": 59, "duration": 30, "velocity": 93}, {"time": 6348, "pitch": 68, "duration": 24, "velocity": 127}, {"time": 6354, "pitch": 52, "duration": 6, "velocity": 89}, {"time": 6360, "pitch": 64, "duration": 12, "velocity": 92}, {"time": 6372, "pitch": 40, "duration": 18, "velocity": 75}, {"time": 6390, "pitch": 40, "duration": 24, "velocity": 81}, {"time": 6396, "pitch": 52, "duration": 10, "velocity": 78}, {"time": 6396, "pitch": 56, "duration": 10, "velocity": 78}, {"time": 6396, "pitch": 59, "duration": 10, "velocity": 75}, {"time": 6408, "pitch": 52, "duration": 11, "velocity": 68}, {"time": 6408, "pitch": 56, "duration": 12, "velocity": 70}, {"time": 6408, "pitch": 59, "duration": 12, "velocity": 78}, {"time": 6420, "pitch": 40, "duration": 44, "velocity": 81}, {"time": 6438, "pitch": 47, "duration": 32, "velocity": 59}, {"time": 6444, "pitch": 64, "duration": 33, "velocity": 81}, {"time": 6444, "pitch": 68, "duration": 31, "velocity": 95}, {"time": 6456, "pitch": 59, "duration": 19, "velocity": 85}, {"time": 6468, "pitch": 40, "duration": 38, "velocity": 77}, {"time": 6486, "pitch": 47, "duration": 27, "velocity": 59}, {"time": 6492, "pitch": 64, "duration": 25, "velocity": 88}, {"time": 6492, "pitch": 68, "duration": 24, "velocity": 95}, {"time": 6504, "pitch": 59, "duration": 13, "velocity": 86}, {"time": 6516, "pitch": 40, "duration": 47, "velocity": 73}, {"time": 6534, "pitch": 47, "duration": 32, "velocity": 45}, {"time": 6540, "pitch": 64, "duration": 28, "velocity": 70}, {"time": 6540, "pitch": 68, "duration": 28, "velocity": 70}, {"time": 6564, "pitch": 40, "duration": 44, "velocity": 77}, {"time": 6582, "pitch": 47, "duration": 30, "velocity": 63}, {"time": 6588, "pitch": 64, "duration": 41, "velocity": 90}, {"time": 6588, "pitch": 68, "duration": 41, "velocity": 92}, {"time": 6600, "pitch": 59, "duration": 15, "velocity": 78}, {"time": 6612, "pitch": 40, "duration": 39, "velocity": 72}, {"time": 6630, "pitch": 47, "duration": 30, "velocity": 62}, {"time": 6636, "pitch": 64, "duration": 26, "velocity": 92}, {"time": 6636, "pitch": 68, "duration": 26, "velocity": 93}, {"time": 6648, "pitch": 59, "duration": 14, "velocity": 88}, {"time": 6660, "pitch": 40, "duration": 38, "velocity": 82}, {"time": 6678, "pitch": 47, "duration": 27, "velocity": 58}, {"time": 6684, "pitch": 64, "duration": 26, "velocity": 85}, {"time": 6684, "pitch": 68, "duration": 26, "velocity": 85}, {"time": 6696, "pitch": 59, "duration": 13, "velocity": 78}, {"time": 6708, "pitch": 40, "duration": 48, "velocity": 72}, {"time": 6732, "pitch": 47, "duration": 23, "velocity": 58}, {"time": 6732, "pitch": 59, "duration": 24, "velocity": 59}, {"time": 6732, "pitch": 64, "duration": 23, "velocity": 55}, {"time": 6732, "pitch": 68, "duration": 23, "velocity": 53}, {"time": 6756, "pitch": 40, "duration": 18, "velocity": 75}, {"time": 6774, "pitch": 40, "duration": 24, "velocity": 81}, {"time": 6780, "pitch": 52, "duration": 10, "velocity": 78}, {"time": 6780, "pitch": 56, "duration": 10, "velocity": 78}, {"time": 6780, "pitch": 59, "duration": 10, "velocity": 75}, {"time": 6792, "pitch": 52, "duration": 11, "velocity": 68}, {"time": 6792, "pitch": 56, "duration": 12, "velocity": 70}, {"time": 6792, "pitch": 59, "duration": 12, "velocity": 78}, {"time": 6804, "pitch": 40, "duration": 44, "velocity": 81}, {"time": 6822, "pitch": 47, "duration": 32, "velocity": 59}, {"time": 6828, "pitch": 64, "duration": 33, "velocity": 81}, {"time": 6828, "pitch": 68, "duration": 31, "velocity": 95}, {"time": 6840, "pitch": 59, "duration": 19, "velocity": 85}, {"time": 6852, "pitch": 40, "duration": 38, "velocity": 77}, {"time": 6870, "pitch": 47, "duration": 27, "velocity": 59}, {"time": 6876, "pitch": 64, "duration": 25, "velocity": 88}, {"time": 6876, "pitch": 68, "duration": 24, "velocity": 95}, {"time": 6888, "pitch": 59, "duration": 13, "velocity": 86}, {"time": 6900, "pitch": 40, "duration": 47, "velocity": 73}, {"time": 6918, "pitch": 47, "duration": 32, "velocity": 45}, {"time": 6924, "pitch": 64, "duration": 28, "velocity": 70}, {"time": 6924, "pitch": 68, "duration": 28, "velocity": 70}, {"time": 6948, "pitch": 40, "duration": 44, "velocity": 77}, {"time": 6966, "pitch": 47, "duration": 30, "velocity": 63}, {"time": 6972, "pitch": 64, "duration": 41, "velocity": 90}, {"time": 6972, "pitch": 68, "duration": 41, "velocity": 92}, {"time": 6984, "pitch": 59, "duration": 15, "velocity": 78}, {"time": 6996, "pitch": 40, "duration": 39, "velocity": 72}, {"time": 7014, "pitch": 47, "duration": 30, "velocity": 62}, {"time": 7020, "pitch": 64, "duration": 26, "velocity": 92}, {"time": 7020, "pitch": 68, "duration": 26, "velocity": 93}, {"time": 7032, "pitch": 59, "duration": 14, "velocity": 88}, {"time": 7044, "pitch": 40, "duration": 38, "velocity": 82}, {"time": 7062, "pitch": 47, "duration": 27, "velocity": 58}, {"time": 7068, "pitch": 64, "duration": 26, "velocity": 85}, {"time": 7068, "pitch": 68, "duration": 26, "velocity": 85}, {"time": 7080, "pitch": 59, "duration": 13, "velocity": 78}, {"time": 7092, "pitch": 40, "duration": 12, "velocity": 72}], "annotations": [{"time": 36, "annotation": {"number": 64, "value": 127}, "group": "control_change"}, {"time": 52, "annotation": {"number": 64, "value": 0}, "group": "control_change"}, {"time": 53, "annotation": {"number": 64, "value": 127}, "group": "control_change"}, {"time": 80, "annotation": {"number": 64, "value": 0}, "group": "control_change"}, {"time": 83, "annotation": {"number": 64, "value": 127}, "group": "control_change"}, {"time": 128, "annotation": {"number": 64, "value": 0}, "group": "control_change"}, {"time": 132, "annotation": {"number": 64, "value": 127}, "group": "control_change"}, {"time": 174, "annotation": {"number": 64, "value": 0}, "group": "control_change"}, {"time": 179, "annotation": {"number": 64, "value": 127}, "group": "control_change"}, {"time": 225, "annotation": {"number": 64, "value": 0}, "group": "control_change"}, {"time": 228, "annotation": {"number": 64, "value": 127}, "group": "control_change"}, {"time": 272, "annotation": {"number": 64, "value": 0}, "group": "control_change"}, {"time": 275, "annotation": {"number": 64, "value": 127}, "group": "control_change"}, {"time": 319, "annotation": {"number": 64, "value": 0}, "group": "control_change"}, {"time": 323, "annotation": {"number": 64, "value": 127}, "group": "control_change"}, {"time": 367, "annotation": {"number": 64, "value": 0}, "group": "control_change"}, {"time": 371, "annotation": {"number": 64, "value": 127}, "group": "control_change"}, {"time": 413, "annotation": {"number": 64, "value": 0}, "group": "control_change"}, {"time": 421, "annotation": {"number": 64, "value": 127}, "group": "control_change"}, {"time": 464, "annotation": {"number": 64, "value": 0}, "group": "control_change"}, {"time": 468, "annotation": {"number": 64, "value": 127}, "group": "control_change"}, {"time": 513, "annotation": {"number": 64, "value": 0}, "group": "control_change"}, {"time": 516, "annotation": {"number": 64, "value": 127}, "group": "control_change"}, {"time": 561, "annotation": {"number": 64, "value": 0}, "group": "control_change"}, {"time": 564, "annotation": {"number": 64, "value": 127}, "group": "control_change"}, {"time": 608, "annotation": {"number": 64, "value": 0}, "group": "control_change"}, {"time": 611, "annotation": {"number": 64, "value": 127}, "group": "control_change"}, {"time": 657, "annotation": {"number": 64, "value": 0}, "group": "control_change"}, {"time": 661, "annotation": {"number": 64, "value": 127}, "group": "control_change"}, {"time": 705, "annotation": {"number": 64, "value": 0}, "group": "control_change"}, {"time": 709, "annotation": {"number": 64, "value": 127}, "group": "control_change"}, {"time": 753, "annotation": {"number": 64, "value": 0}, "group": "control_change"}, {"time": 756, "annotation": {"number": 64, "value": 127}, "group": "control_change"}, {"time": 801, "annotation": {"number": 64, "value": 0}, "group": "control_change"}, {"time": 804, "annotation": {"number": 64, "value": 127}, "group": "control_change"}, {"time": 805, "annotation": {"number": 64, "value": 127}, "group": "control_change"}, {"time": 849, "annotation": {"number": 64, "value": 0}, "group": "control_change"}, {"time": 853, "annotation": {"number": 64, "value": 127}, "group": "control_change"}, {"time": 898, "annotation": {"number": 64, "value": 0}, "group": "control_change"}, {"time": 901, "annotation": {"number": 64, "value": 127}, "group": "control_change"}, {"time": 944, "annotation": {"number": 64, "value": 0}, "group": "control_change"}, {"time": 946, "annotation": {"number": 64, "value": 127}, "group": "control_change"}, {"time": 992, "annotation": {"number": 64, "value": 0}, "group": "control_change"}, {"time": 996, "annotation": {"number": 64, "value": 127}, "group": "control_change"}, {"time": 1040, "annotation": {"number": 64, "value": 0}, "group": "control_change"}, {"time": 1043, "annotation": {"number": 64, "value": 127}, "group": "control_change"}, {"time": 1088, "annotation": {"number": 64, "value": 0}, "group": "control_change"}, {"time": 1092, "annotation": {"number": 64, "value": 127}, "group": "control_change"}, {"time": 1136, "annotation": {"number": 64, "value": 0}, "group": "control_change"}, {"time": 1139, "annotation": {"number": 64, "value": 127}, "group": "control_change"}, {"time": 1178, "annotation": {"number": 64, "value": 0}, "group": "control_change"}, {"time": 1189, "annotation": {"number": 64, "value": 127}, "group": "control_change"}, {"time": 1232, "annotation": {"number": 64, "value": 0}, "group": "control_change"}, {"time": 1236, "annotation": {"number": 64, "value": 127}, "group": "control_change"}, {"time": 1281, "annotation": {"number": 64, "value": 0}, "group": "control_change"}, {"time": 1284, "annotation": {"number": 64, "value": 127}, "group": "control_change"}, {"time": 1329, "annotation": {"number": 64, "value": 0}, "group": "control_change"}, {"time": 1332, "annotation": {"number": 64, "value": 127}, "group": "control_change"}, {"time": 1376, "annotation": {"number": 64, "value": 0}, "group": "control_change"}, {"time": 1379, "annotation": {"number": 64, "value": 127}, "group": "control_change"}, {"time": 1425, "annotation": {"number": 64, "value": 0}, "group": "control_change"}, {"time": 1429, "annotation": {"number": 64, "value": 127}, "group": "control_change"}, {"time": 1473, "annotation": {"number": 64, "value": 0}, "group": "control_change"}, {"time": 1477, "annotation": {"number": 64, "value": 127}, "group": "control_change"}, {"time": 1521, "annotation": {"number": 64, "value": 0}, "group": "control_change"}, {"time": 1524, "annotation": {"number": 64, "value": 127}, "group": "control_change"}, {"time": 1569, "annotation": {"number": 64, "value": 0}, "group": "control_change"}, {"time": 1572, "annotation": {"number": 64, "value": 127}, "group": "control_change"}, {"time": 1573, "annotation": {"number": 64, "value": 127}, "group": "control_change"}, {"time": 1617, "annotation": {"number": 64, "value": 0}, "group": "control_change"}, {"time": 1621, "annotation": {"number": 64, "value": 127}, "group": "control_change"}, {"time": 1666, "annotation": {"number": 64, "value": 0}, "group": "control_change"}, {"time": 1669, "annotation": {"number": 64, "value": 127}, "group": "control_change"}, {"time": 1712, "annotation": {"number": 64, "value": 0}, "group": "control_change"}, {"time": 1714, "annotation": {"number": 64, "value": 127}, "group": "control_change"}, {"time": 1760, "annotation": {"number": 64, "value": 0}, "group": "control_change"}, {"time": 1764, "annotation": {"number": 64, "value": 127}, "group": "control_change"}, {"time": 1808, "annotation": {"number": 64, "value": 0}, "group": "control_change"}, {"time": 1811, "annotation": {"number": 64, "value": 127}, "group": "control_change"}, {"time": 1856, "annotation": {"number": 64, "value": 0}, "group": "control_change"}, {"time": 1860, "annotation": {"number": 64, "value": 127}, "group": "control_change"}, {"time": 1904, "annotation": {"number": 64, "value": 0}, "group": "control_change"}, {"time": 1907, "annotation": {"number": 64, "value": 127}, "group": "control_change"}, {"time": 1946, "annotation": {"number": 64, "value": 0}, "group": "control_change"}, {"time": 1956, "annotation": {"number": 64, "value": 127}, "group": "control_change"}, {"time": 2000, "annotation": {"number": 64, "value": 0}, "group": "control_change"}, {"time": 2003, "annotation": {"number": 64, "value": 127}, "group": "control_change"}, {"time": 2048, "annotation": {"number": 64, "value": 0}, "group": "control_change"}, {"time": 2053, "annotation": {"number": 64, "value": 127}, "group": "control_change"}, {"time": 2097, "annotation": {"number": 64, "value": 0}, "group": "control_change"}, {"time": 2100, "annotation": {"number": 64, "value": 127}, "group": "control_change"}, {"time": 2145, "annotation": {"number": 64, "value": 0}, "group": "control_change"}, {"time": 2148, "annotation": {"number": 64, "value": 127}, "group": "control_change"}, {"time": 2193, "annotation": {"number": 64, "value": 0}, "group": "control_change"}, {"time": 2196, "annotation": {"number": 64, "value": 127}, "group": "control_change"}, {"time": 2240, "annotation": {"number": 64, "value": 0}, "group": "control_change"}, {"time": 2244, "annotation": {"number": 64, "value": 127}, "group": "control_change"}, {"time": 2266, "annotation": {"number": 64, "value": 0}, "group": "control_change"}, {"time": 2268, "annotation": {"number": 64, "value": 127}, "group": "control_change"}, {"time": 2276, "annotation": {"number": 64, "value": 0}, "group": "control_change"}, {"time": 2279, "annotation": {"number": 64, "value": 127}, "group": "control_change"}, {"time": 2288, "annotation": {"number": 64, "value": 0}, "group": "control_change"}, {"time": 2291, "annotation": {"number": 64, "value": 127}, "group": "control_change"}, {"time": 2294, "annotation": {"number": 64, "value": 0}, "group": "control_change"}, {"time": 2297, "annotation": {"number": 64, "value": 127}, "group": "control_change"}, {"time": 2337, "annotation": {"number": 64, "value": 0}, "group": "control_change"}, {"time": 2343, "annotation": {"number": 64, "value": 127}, "group": "control_change"}, {"time": 2346, "annotation": {"number": 64, "value": 0}, "group": "control_change"}, {"time": 2349, "annotation": {"number": 64, "value": 127}, "group": "control_change"}, {"time": 2372, "annotation": {"number": 64, "value": 0}, "group": "control_change"}, {"time": 2372, "annotation": {"number": 64, "value": 127}, "group": "control_change"}, {"time": 2383, "annotation": {"number": 64, "value": 0}, "group": "control_change"}, {"time": 2387, "annotation": {"number": 64, "value": 127}, "group": "control_change"}, {"time": 2432, "annotation": {"number": 64, "value": 0}, "group": "control_change"}, {"time": 2436, "annotation": {"number": 64, "value": 127}, "group": "control_change"}, {"time": 2481, "annotation": {"number": 64, "value": 0}, "group": "control_change"}, {"time": 2485, "annotation": {"number": 64, "value": 127}, "group": "control_change"}, {"time": 2528, "annotation": {"number": 64, "value": 0}, "group": "control_change"}, {"time": 2532, "annotation": {"number": 64, "value": 127}, "group": "control_change"}, {"time": 2577, "annotation": {"number": 64, "value": 0}, "group": "control_change"}, {"time": 2580, "annotation": {"number": 64, "value": 127}, "group": "control_change"}, {"time": 2626, "annotation": {"number": 64, "value": 0}, "group": "control_change"}, {"time": 2630, "annotation": {"number": 64, "value": 127}, "group": "control_change"}, {"time": 2673, "annotation": {"number": 64, "value": 0}, "group": "control_change"}, {"time": 2677, "annotation": {"number": 64, "value": 127}, "group": "control_change"}, {"time": 2718, "annotation": {"number": 64, "value": 0}, "group": "control_change"}, {"time": 2725, "annotation": {"number": 64, "value": 127}, "group": "control_change"}, {"time": 2768, "annotation": {"number": 64, "value": 0}, "group": "control_change"}, {"time": 2772, "annotation": {"number": 64, "value": 127}, "group": "control_change"}, {"time": 2817, "annotation": {"number": 64, "value": 0}, "group": "control_change"}, {"time": 2820, "annotation": {"number": 64, "value": 127}, "group": "control_change"}, {"time": 2865, "annotation": {"number": 64, "value": 0}, "group": "control_change"}, {"time": 2868, "annotation": {"number": 64, "value": 127}, "group": "control_change"}, {"time": 2912, "annotation": {"number": 64, "value": 0}, "group": "control_change"}, {"time": 2915, "annotation": {"number": 64, "value": 127}, "group": "control_change"}, {"time": 2961, "annotation": {"number": 64, "value": 0}, "group": "control_change"}, {"time": 2965, "annotation": {"number": 64, "value": 127}, "group": "control_change"}, {"time": 3009, "annotation": {"number": 64, "value": 0}, "group": "control_change"}, {"time": 3013, "annotation": {"number": 64, "value": 127}, "group": "control_change"}, {"time": 3057, "annotation": {"number": 64, "value": 0}, "group": "control_change"}, {"time": 3060, "annotation": {"number": 64, "value": 127}, "group": "control_change"}, {"time": 3105, "annotation": {"number": 64, "value": 0}, "group": "control_change"}, {"time": 3108, "annotation": {"number": 64, "value": 127}, "group": "control_change"}, {"time": 3109, "annotation": {"number": 64, "value": 127}, "group": "control_change"}, {"time": 3153, "annotation": {"number": 64, "value": 0}, "group": "control_change"}, {"time": 3157, "annotation": {"number": 64, "value": 127}, "group": "control_change"}, {"time": 3202, "annotation": {"number": 64, "value": 0}, "group": "control_change"}, {"time": 3205, "annotation": {"number": 64, "value": 127}, "group": "control_change"}, {"time": 3248, "annotation": {"number": 64, "value": 0}, "group": "control_change"}, {"time": 3250, "annotation": {"number": 64, "value": 127}, "group": "control_change"}, {"time": 3296, "annotation": {"number": 64, "value": 0}, "group": "control_change"}, {"time": 3300, "annotation": {"number": 64, "value": 127}, "group": "control_change"}, {"time": 3344, "annotation": {"number": 64, "value": 0}, "group": "control_change"}, {"time": 3347, "annotation": {"number": 64, "value": 127}, "group": "control_change"}, {"time": 3392, "annotation": {"number": 64, "value": 0}, "group": "control_change"}, {"time": 3396, "annotation": {"number": 64, "value": 127}, "group": "control_change"}, {"time": 3440, "annotation": {"number": 64, "value": 0}, "group": "control_change"}, {"time": 3443, "annotation": {"number": 64, "value": 127}, "group": "control_change"}, {"time": 3492, "annotation": {"number": 64, "value": 127}, "group": "control_change"}, {"time": 3508, "annotation": {"number": 64, "value": 0}, "group": "control_change"}, {"time": 3509, "annotation": {"number": 64, "value": 127}, "group": "control_change"}, {"time": 3536, "annotation": {"number": 64, "value": 0}, "group": "control_change"}, {"time": 3539, "annotation": {"number": 64, "value": 127}, "group": "control_change"}, {"time": 3584, "annotation": {"number": 64, "value": 0}, "group": "control_change"}, {"time": 3588, "annotation": {"number": 64, "value": 127}, "group": "control_change"}, {"time": 3630, "annotation": {"number": 64, "value": 0}, "group": "control_change"}, {"time": 3635, "annotation": {"number": 64, "value": 127}, "group": "control_change"}, {"time": 3681, "annotation": {"number": 64, "value": 0}, "group": "control_change"}, {"time": 3684, "annotation": {"number": 64, "value": 127}, "group": "control_change"}, {"time": 3728, "annotation": {"number": 64, "value": 0}, "group": "control_change"}, {"time": 3731, "annotation": {"number": 64, "value": 127}, "group": "control_change"}, {"time": 3775, "annotation": {"number": 64, "value": 0}, "group": "control_change"}, {"time": 3779, "annotation": {"number": 64, "value": 127}, "group": "control_change"}, {"time": 3823, "annotation": {"number": 64, "value": 0}, "group": "control_change"}, {"time": 3827, "annotation": {"number": 64, "value": 127}, "group": "control_change"}, {"time": 3869, "annotation": {"number": 64, "value": 0}, "group": "control_change"}, {"time": 3877, "annotation": {"number": 64, "value": 127}, "group": "control_change"}, {"time": 3920, "annotation": {"number": 64, "value": 0}, "group": "control_change"}, {"time": 3924, "annotation": {"number": 64, "value": 127}, "group": "control_change"}, {"time": 3969, "annotation": {"number": 64, "value": 0}, "group": "control_change"}, {"time": 3972, "annotation": {"number": 64, "value": 127}, "group": "control_change"}, {"time": 4017, "annotation": {"number": 64, "value": 0}, "group": "control_change"}, {"time": 4020, "annotation": {"number": 64, "value": 127}, "group": "control_change"}, {"time": 4064, "annotation": {"number": 64, "value": 0}, "group": "control_change"}, {"time": 4067, "annotation": {"number": 64, "value": 127}, "group": "control_change"}, {"time": 4113, "annotation": {"number": 64, "value": 0}, "group": "control_change"}, {"time": 4117, "annotation": {"number": 64, "value": 127}, "group": "control_change"}, {"time": 4161, "annotation": {"number": 64, "value": 0}, "group": "control_change"}, {"time": 4165, "annotation": {"number": 64, "value": 127}, "group": "control_change"}, {"time": 4209, "annotation": {"number": 64, "value": 0}, "group": "control_change"}, {"time": 4212, "annotation": {"number": 64, "value": 127}, "group": "control_change"}, {"time": 4257, "annotation": {"number": 64, "value": 0}, "group": "control_change"}, {"time": 4260, "annotation": {"number": 64, "value": 127}, "group": "control_change"}, {"time": 4261, "annotation": {"number": 64, "value": 127}, "group": "control_change"}, {"time": 4305, "annotation": {"number": 64, "value": 0}, "group": "control_change"}, {"time": 4309, "annotation": {"number": 64, "value": 127}, "group": "control_change"}, {"time": 4354, "annotation": {"number": 64, "value": 0}, "group": "control_change"}, {"time": 4357, "annotation": {"number": 64, "value": 127}, "group": "control_change"}, {"time": 4400, "annotation": {"number": 64, "value": 0}, "group": "control_change"}, {"time": 4402, "annotation": {"number": 64, "value": 127}, "group": "control_change"}, {"time": 4448, "annotation": {"number": 64, "value": 0}, "group": "control_change"}, {"time": 4452, "annotation": {"number": 64, "value": 127}, "group": "control_change"}, {"time": 4496, "annotation": {"number": 64, "value": 0}, "group": "control_change"}, {"time": 4499, "annotation": {"number": 64, "value": 127}, "group": "control_change"}, {"time": 4544, "annotation": {"number": 64, "value": 0}, "group": "control_change"}, {"time": 4548, "annotation": {"number": 64, "value": 127}, "group": "control_change"}, {"time": 4592, "annotation": {"number": 64, "value": 0}, "group": "control_change"}, {"time": 4595, "annotation": {"number": 64, "value": 127}, "group": "control_change"}, {"time": 4634, "annotation": {"number": 64, "value": 0}, "group": "control_change"}, {"time": 4644, "annotation": {"number": 64, "value": 127}, "group": "control_change"}, {"time": 4688, "annotation": {"number": 64, "value": 0}, "group": "control_change"}, {"time": 4691, "annotation": {"number": 64, "value": 127}, "group": "control_change"}, {"time": 4736, "annotation": {"number": 64, "value": 0}, "group": "control_change"}, {"time": 4741, "annotation": {"number": 64, "value": 127}, "group": "control_change"}, {"time": 4785, "annotation": {"number": 64, "value": 0}, "group": "control_change"}, {"time": 4788, "annotation": {"number": 64, "value": 127}, "group": "control_change"}, {"time": 4833, "annotation": {"number": 64, "value": 0}, "group": "control_change"}, {"time": 4836, "annotation": {"number": 64, "value": 127}, "group": "control_change"}, {"time": 4881, "annotation": {"number": 64, "value": 0}, "group": "control_change"}, {"time": 4884, "annotation": {"number": 64, "value": 127}, "group": "control_change"}, {"time": 4928, "annotation": {"number": 64, "value": 0}, "group": "control_change"}, {"time": 4932, "annotation": {"number": 64, "value": 127}, "group": "control_change"}, {"time": 4954, "annotation": {"number": 64, "value": 0}, "group": "control_change"}, {"time": 4956, "annotation": {"number": 64, "value": 127}, "group": "control_change"}, {"time": 4964, "annotation": {"number": 64, "value": 0}, "group": "control_change"}, {"time": 4967, "annotation": {"number": 64, "value": 127}, "group": "control_change"}, {"time": 4976, "annotation": {"number": 64, "value": 0}, "group": "control_change"}, {"time": 4979, "annotation": {"number": 64, "value": 127}, "group": "control_change"}, {"time": 4982, "annotation": {"number": 64, "value": 0}, "group": "control_change"}, {"time": 4985, "annotation": {"number": 64, "value": 127}, "group": "control_change"}, {"time": 5025, "annotation": {"number": 64, "value": 0}, "group": "control_change"}, {"time": 5031, "annotation": {"number": 64, "value": 127}, "group": "control_change"}, {"time": 5034, "annotation": {"number": 64, "value": 0}, "group": "control_change"}, {"time": 5037, "annotation": {"number": 64, "value": 127}, "group": "control_change"}, {"time": 5060, "annotation": {"number": 64, "value": 0}, "group": "control_change"}, {"time": 5060, "annotation": {"number": 64, "value": 127}, "group": "control_change"}, {"time": 5071, "annotation": {"number": 64, "value": 0}, "group": "control_change"}, {"time": 5075, "annotation": {"number": 64, "value": 127}, "group": "control_change"}, {"time": 5120, "annotation": {"number": 64, "value": 0}, "group": "control_change"}, {"time": 5124, "annotation": {"number": 64, "value": 127}, "group": "control_change"}, {"time": 5169, "annotation": {"number": 64, "value": 0}, "group": "control_change"}, {"time": 5173, "annotation": {"number": 64, "value": 127}, "group": "control_change"}, {"time": 5216, "annotation": {"number": 64, "value": 0}, "group": "control_change"}, {"time": 5220, "annotation": {"number": 64, "value": 127}, "group": "control_change"}, {"time": 5265, "annotation": {"number": 64, "value": 0}, "group": "control_change"}, {"time": 5268, "annotation": {"number": 64, "value": 127}, "group": "control_change"}, {"time": 5314, "annotation": {"number": 64, "value": 0}, "group": "control_change"}, {"time": 5318, "annotation": {"number": 64, "value": 127}, "group": "control_change"}, {"time": 5361, "annotation": {"number": 64, "value": 0}, "group": "control_change"}, {"time": 5365, "annotation": {"number": 64, "value": 127}, "group": "control_change"}, {"time": 5406, "annotation": {"number": 64, "value": 0}, "group": "control_change"}, {"time": 5413, "annotation": {"number": 64, "value": 127}, "group": "control_change"}, {"time": 5456, "annotation": {"number": 64, "value": 0}, "group": "control_change"}, {"time": 5460, "annotation": {"number": 64, "value": 127}, "group": "control_change"}, {"time": 5505, "annotation": {"number": 64, "value": 0}, "group": "control_change"}, {"time": 5508, "annotation": {"number": 64, "value": 127}, "group": "control_change"}, {"time": 5553, "annotation": {"number": 64, "value": 0}, "group": "control_change"}, {"time": 5556, "annotation": {"number": 64, "value": 127}, "group": "control_change"}, {"time": 5600, "annotation": {"number": 64, "value": 0}, "group": "control_change"}, {"time": 5603, "annotation": {"number": 64, "value": 127}, "group": "control_change"}, {"time": 5649, "annotation": {"number": 64, "value": 0}, "group": "control_change"}, {"time": 5653, "annotation": {"number": 64, "value": 127}, "group": "control_change"}, {"time": 5697, "annotation": {"number": 64, "value": 0}, "group": "control_change"}, {"time": 5701, "annotation": {"number": 64, "value": 127}, "group": "control_change"}, {"time": 5745, "annotation": {"number": 64, "value": 0}, "group": "control_change"}, {"time": 5748, "annotation": {"number": 64, "value": 127}, "group": "control_change"}, {"time": 5793, "annotation": {"number": 64, "value": 0}, "group": "control_change"}, {"time": 5796, "annotation": {"number": 64, "value": 127}, "group": "control_change"}, {"time": 5797, "annotation": {"number": 64, "value": 127}, "group": "control_change"}, {"time": 5841, "annotation": {"number": 64, "value": 0}, "group": "control_change"}, {"time": 5845, "annotation": {"number": 64, "value": 127}, "group": "control_change"}, {"time": 5890, "annotation": {"number": 64, "value": 0}, "group": "control_change"}, {"time": 5893, "annotation": {"number": 64, "value": 127}, "group": "control_change"}, {"time": 5936, "annotation": {"number": 64, "value": 0}, "group": "control_change"}, {"time": 5938, "annotation": {"number": 64, "value": 127}, "group": "control_change"}, {"time": 5984, "annotation": {"number": 64, "value": 0}, "group": "control_change"}, {"time": 5988, "annotation": {"number": 64, "value": 127}, "group": "control_change"}, {"time": 6032, "annotation": {"number": 64, "value": 0}, "group": "control_change"}, {"time": 6035, "annotation": {"number": 64, "value": 127}, "group": "control_change"}, {"time": 6080, "annotation": {"number": 64, "value": 0}, "group": "control_change"}, {"time": 6084, "annotation": {"number": 64, "value": 127}, "group": "control_change"}, {"time": 6128, "annotation": {"number": 64, "value": 0}, "group": "control_change"}, {"time": 6131, "annotation": {"number": 64, "value": 127}, "group": "control_change"}, {"time": 6170, "annotation": {"number": 64, "value": 0}, "group": "control_change"}, {"time": 6224, "annotation": {"number": 64, "value": 0}, "group": "control_change"}, {"time": 6227, "annotation": {"number": 64, "value": 127}, "group": "control_change"}, {"time": 6272, "annotation": {"number": 64, "value": 0}, "group": "control_change"}, {"time": 6276, "annotation": {"number": 64, "value": 127}, "group": "control_change"}, {"time": 6320, "annotation": {"number": 64, "value": 0}, "group": "control_change"}, {"time": 6323, "annotation": {"number": 64, "value": 127}, "group": "control_change"}, {"time": 6362, "annotation": {"number": 64, "value": 0}, "group": "control_change"}, {"time": 6372, "annotation": {"number": 64, "value": 127}, "group": "control_change"}, {"time": 6388, "annotation": {"number": 64, "value": 0}, "group": "control_change"}, {"time": 6389, "annotation": {"number": 64, "value": 127}, "group": "control_change"}, {"time": 6416, "annotation": {"number": 64, "value": 0}, "group": "control_change"}, {"time": 6419, "annotation": {"number": 64, "value": 127}, "group": "control_change"}, {"time": 6464, "annotation": {"number": 64, "value": 0}, "group": "control_change"}, {"time": 6468, "annotation": {"number": 64, "value": 127}, "group": "control_change"}, {"time": 6510, "annotation": {"number": 64, "value": 0}, "group": "control_change"}, {"time": 6515, "annotation": {"number": 64, "value": 127}, "group": "control_change"}, {"time": 6561, "annotation": {"number": 64, "value": 0}, "group": "control_change"}, {"time": 6564, "annotation": {"number": 64, "value": 127}, "group": "control_change"}, {"time": 6608, "annotation": {"number": 64, "value": 0}, "group": "control_change"}, {"time": 6611, "annotation": {"number": 64, "value": 127}, "group": "control_change"}, {"time": 6655, "annotation": {"number": 64, "value": 0}, "group": "control_change"}, {"time": 6659, "annotation": {"number": 64, "value": 127}, "group": "control_change"}, {"time": 6703, "annotation": {"number": 64, "value": 0}, "group": "control_change"}, {"time": 6707, "annotation": {"number": 64, "value": 127}, "group": "control_change"}, {"time": 6749, "annotation": {"number": 64, "value": 0}, "group": "control_change"}, {"time": 6756, "annotation": {"number": 64, "value": 127}, "group": "control_change"}, {"time": 6772, "annotation": {"number": 64, "value": 0}, "group": "control_change"}, {"time": 6773, "annotation": {"number": 64, "value": 127}, "group": "control_change"}, {"time": 6800, "annotation": {"number": 64, "value": 0}, "group": "control_change"}, {"time": 6803, "annotation": {"number": 64, "value": 127}, "group": "control_change"}, {"time": 6848, "annotation": {"number": 64, "value": 0}, "group": "control_change"}, {"time": 6852, "annotation": {"number": 64, "value": 127}, "group": "control_change"}, {"time": 6894, "annotation": {"number": 64, "value": 0}, "group": "control_change"}, {"time": 6899, "annotation": {"number": 64, "value": 127}, "group": "control_change"}, {"time": 6945, "annotation": {"number": 64, "value": 0}, "group": "control_change"}, {"time": 6948, "annotation": {"number": 64, "value": 127}, "group": "control_change"}, {"time": 6992, "annotation": {"number": 64, "value": 0}, "group": "control_change"}, {"time": 6995, "annotation": {"number": 64, "value": 127}, "group": "control_change"}, {"time": 7039, "annotation": {"number": 64, "value": 0}, "group": "control_change"}, {"time": 7043, "annotation": {"number": 64, "value": 127}, "group": "control_change"}, {"time": 7087, "annotation": {"number": 64, "value": 0}, "group": "control_change"}, {"time": 7091, "annotation": {"number": 64, "value": 127}, "group": "control_change"}]}]}