{"metadata": {"schema_version": "0.2", "title": "None", "source_filename": "386.mid", "source_format": "midi"}, "resolution": 12, "tempos": [{"time": 0, "qpm": 196.9996946504733}], "time_signatures": [{"time": 0, "numerator": 1, "denominator": 4}], "tracks": [{"program": 0, "is_drum": false, "name": "MELODY", "notes": [{"time": 390, "pitch": 64, "duration": 10, "velocity": 112}, {"time": 402, "pitch": 65, "duration": 8, "velocity": 117}, {"time": 414, "pitch": 67, "duration": 18, "velocity": 122}, {"time": 438, "pitch": 76, "duration": 18, "velocity": 127}, {"time": 462, "pitch": 74, "duration": 14, "velocity": 127}, {"time": 480, "pitch": 72, "duration": 6, "velocity": 122}, {"time": 486, "pitch": 71, "duration": 5, "velocity": 74}, {"time": 492, "pitch": 74, "duration": 6, "velocity": 112}, {"time": 510, "pitch": 72, "duration": 10, "velocity": 127}, {"time": 528, "pitch": 71, "duration": 6, "velocity": 102}, {"time": 534, "pitch": 69, "duration": 4, "velocity": 97}, {"time": 540, "pitch": 72, "duration": 5, "velocity": 117}, {"time": 558, "pitch": 71, "duration": 11, "velocity": 122}, {"time": 582, "pitch": 62, "duration": 8, "velocity": 99}, {"time": 594, "pitch": 64, "duration": 7, "velocity": 107}, {"time": 606, "pitch": 65, "duration": 16, "velocity": 122}, {"time": 630, "pitch": 72, "duration": 18, "velocity": 127}, {"time": 654, "pitch": 71, "duration": 10, "velocity": 127}, {"time": 672, "pitch": 65, "duration": 6, "velocity": 102}, {"time": 678, "pitch": 64, "duration": 5, "velocity": 90}, {"time": 690, "pitch": 67, "duration": 8, "velocity": 107}, {"time": 702, "pitch": 65, "duration": 11, "velocity": 122}, {"time": 720, "pitch": 67, "duration": 6, "velocity": 112}, {"time": 726, "pitch": 65, "duration": 5, "velocity": 88}, {"time": 732, "pitch": 64, "duration": 17, "velocity": 107}, {"time": 750, "pitch": 62, "duration": 16, "velocity": 122}, {"time": 774, "pitch": 64, "duration": 8, "velocity": 95}, {"time": 786, "pitch": 65, "duration": 7, "velocity": 107}, {"time": 798, "pitch": 67, "duration": 18, "velocity": 122}, {"time": 822, "pitch": 76, "duration": 17, "velocity": 127}, {"time": 846, "pitch": 74, "duration": 11, "velocity": 127}, {"time": 864, "pitch": 72, "duration": 6, "velocity": 117}, {"time": 870, "pitch": 71, "duration": 5, "velocity": 86}, {"time": 876, "pitch": 74, "duration": 9, "velocity": 117}, {"time": 894, "pitch": 72, "duration": 13, "velocity": 112}, {"time": 912, "pitch": 71, "duration": 7, "velocity": 127}, {"time": 918, "pitch": 69, "duration": 6, "velocity": 90}, {"time": 924, "pitch": 72, "duration": 13, "velocity": 127}, {"time": 942, "pitch": 71, "duration": 14, "velocity": 127}, {"time": 966, "pitch": 74, "duration": 9, "velocity": 112}, {"time": 978, "pitch": 76, "duration": 6, "velocity": 112}, {"time": 990, "pitch": 79, "duration": 13, "velocity": 127}, {"time": 1008, "pitch": 76, "duration": 6, "velocity": 93}, {"time": 1014, "pitch": 74, "duration": 5, "velocity": 93}, {"time": 1020, "pitch": 77, "duration": 11, "velocity": 127}, {"time": 1038, "pitch": 76, "duration": 12, "velocity": 127}, {"time": 1056, "pitch": 74, "duration": 6, "velocity": 96}, {"time": 1062, "pitch": 72, "duration": 5, "velocity": 100}, {"time": 1068, "pitch": 76, "duration": 12, "velocity": 117}, {"time": 1086, "pitch": 74, "duration": 53, "velocity": 127}, {"time": 1242, "pitch": 79, "duration": 7, "velocity": 107}, {"time": 1254, "pitch": 77, "duration": 7, "velocity": 127}, {"time": 1266, "pitch": 76, "duration": 6, "velocity": 122}, {"time": 1278, "pitch": 74, "duration": 13, "velocity": 127}, {"time": 1296, "pitch": 72, "duration": 32, "velocity": 127}, {"time": 1326, "pitch": 71, "duration": 13, "velocity": 122}, {"time": 1344, "pitch": 67, "duration": 15, "velocity": 107}, {"time": 1374, "pitch": 72, "duration": 16, "velocity": 127}, {"time": 1398, "pitch": 72, "duration": 11, "velocity": 127}, {"time": 1422, "pitch": 76, "duration": 6, "velocity": 117}, {"time": 1434, "pitch": 64, "duration": 6, "velocity": 107}, {"time": 1446, "pitch": 65, "duration": 6, "velocity": 100}, {"time": 1458, "pitch": 67, "duration": 7, "velocity": 117}, {"time": 1470, "pitch": 69, "duration": 11, "velocity": 112}, {"time": 1488, "pitch": 65, "duration": 14, "velocity": 112}, {"time": 1518, "pitch": 67, "duration": 10, "velocity": 102}, {"time": 1536, "pitch": 72, "duration": 11, "velocity": 127}, {"time": 1566, "pitch": 72, "duration": 8, "velocity": 117}, {"time": 1584, "pitch": 71, "duration": 6, "velocity": 112}, {"time": 1590, "pitch": 69, "duration": 5, "velocity": 86}, {"time": 1596, "pitch": 76, "duration": 14, "velocity": 117}, {"time": 1614, "pitch": 74, "duration": 15, "velocity": 127}, {"time": 1626, "pitch": 79, "duration": 6, "velocity": 127}, {"time": 1638, "pitch": 77, "duration": 6, "velocity": 117}, {"time": 1650, "pitch": 76, "duration": 4, "velocity": 127}, {"time": 1662, "pitch": 74, "duration": 14, "velocity": 117}, {"time": 1680, "pitch": 72, "duration": 11, "velocity": 127}, {"time": 1710, "pitch": 71, "duration": 13, "velocity": 112}, {"time": 1728, "pitch": 67, "duration": 15, "velocity": 97}, {"time": 1758, "pitch": 72, "duration": 12, "velocity": 127}, {"time": 1782, "pitch": 72, "duration": 9, "velocity": 127}, {"time": 1806, "pitch": 76, "duration": 5, "velocity": 127}, {"time": 1818, "pitch": 64, "duration": 6, "velocity": 107}, {"time": 1830, "pitch": 65, "duration": 5, "velocity": 117}, {"time": 1842, "pitch": 67, "duration": 8, "velocity": 127}, {"time": 1854, "pitch": 69, "duration": 12, "velocity": 122}, {"time": 1872, "pitch": 65, "duration": 19, "velocity": 102}, {"time": 1902, "pitch": 67, "duration": 16, "velocity": 127}, {"time": 1920, "pitch": 72, "duration": 13, "velocity": 127}, {"time": 1950, "pitch": 72, "duration": 12, "velocity": 122}, {"time": 1968, "pitch": 69, "duration": 10, "velocity": 102}, {"time": 1986, "pitch": 76, "duration": 6, "velocity": 127}, {"time": 1998, "pitch": 74, "duration": 11, "velocity": 127}, {"time": 2016, "pitch": 71, "duration": 13, "velocity": 117}, {"time": 2034, "pitch": 74, "duration": 6, "velocity": 122}, {"time": 2046, "pitch": 74, "duration": 12, "velocity": 112}, {"time": 2064, "pitch": 72, "duration": 28, "velocity": 107}, {"time": 2214, "pitch": 64, "duration": 10, "velocity": 112}, {"time": 2226, "pitch": 65, "duration": 8, "velocity": 117}, {"time": 2238, "pitch": 67, "duration": 18, "velocity": 122}, {"time": 2262, "pitch": 76, "duration": 18, "velocity": 127}, {"time": 2286, "pitch": 74, "duration": 14, "velocity": 127}, {"time": 2304, "pitch": 72, "duration": 6, "velocity": 122}, {"time": 2310, "pitch": 71, "duration": 5, "velocity": 96}, {"time": 2316, "pitch": 74, "duration": 6, "velocity": 112}, {"time": 2334, "pitch": 72, "duration": 10, "velocity": 127}, {"time": 2352, "pitch": 71, "duration": 6, "velocity": 102}, {"time": 2358, "pitch": 69, "duration": 4, "velocity": 97}, {"time": 2364, "pitch": 72, "duration": 5, "velocity": 117}, {"time": 2382, "pitch": 71, "duration": 11, "velocity": 122}, {"time": 2406, "pitch": 62, "duration": 8, "velocity": 99}, {"time": 2418, "pitch": 64, "duration": 7, "velocity": 107}, {"time": 2430, "pitch": 65, "duration": 16, "velocity": 122}, {"time": 2454, "pitch": 72, "duration": 18, "velocity": 127}, {"time": 2478, "pitch": 71, "duration": 10, "velocity": 127}, {"time": 2496, "pitch": 65, "duration": 6, "velocity": 102}, {"time": 2502, "pitch": 64, "duration": 5, "velocity": 90}, {"time": 2514, "pitch": 67, "duration": 8, "velocity": 107}, {"time": 2526, "pitch": 65, "duration": 11, "velocity": 122}, {"time": 2544, "pitch": 67, "duration": 6, "velocity": 112}, {"time": 2550, "pitch": 65, "duration": 5, "velocity": 88}, {"time": 2556, "pitch": 64, "duration": 17, "velocity": 107}, {"time": 2574, "pitch": 62, "duration": 16, "velocity": 122}, {"time": 2598, "pitch": 64, "duration": 8, "velocity": 95}, {"time": 2610, "pitch": 65, "duration": 7, "velocity": 107}, {"time": 2622, "pitch": 67, "duration": 18, "velocity": 122}, {"time": 2646, "pitch": 76, "duration": 17, "velocity": 127}, {"time": 2670, "pitch": 74, "duration": 11, "velocity": 127}, {"time": 2688, "pitch": 72, "duration": 6, "velocity": 117}, {"time": 2694, "pitch": 71, "duration": 5, "velocity": 86}, {"time": 2700, "pitch": 74, "duration": 9, "velocity": 117}, {"time": 2718, "pitch": 72, "duration": 13, "velocity": 112}, {"time": 2736, "pitch": 71, "duration": 7, "velocity": 127}, {"time": 2742, "pitch": 69, "duration": 6, "velocity": 90}, {"time": 2748, "pitch": 72, "duration": 13, "velocity": 127}, {"time": 2766, "pitch": 71, "duration": 14, "velocity": 127}, {"time": 2790, "pitch": 74, "duration": 9, "velocity": 112}, {"time": 2802, "pitch": 76, "duration": 6, "velocity": 112}, {"time": 2814, "pitch": 79, "duration": 13, "velocity": 127}, {"time": 2832, "pitch": 76, "duration": 6, "velocity": 93}, {"time": 2838, "pitch": 74, "duration": 5, "velocity": 93}, {"time": 2844, "pitch": 77, "duration": 11, "velocity": 127}, {"time": 2862, "pitch": 76, "duration": 12, "velocity": 127}, {"time": 2880, "pitch": 74, "duration": 6, "velocity": 96}, {"time": 2886, "pitch": 72, "duration": 5, "velocity": 100}, {"time": 2892, "pitch": 76, "duration": 12, "velocity": 117}, {"time": 2910, "pitch": 74, "duration": 53, "velocity": 127}, {"time": 3066, "pitch": 79, "duration": 7, "velocity": 107}, {"time": 3078, "pitch": 77, "duration": 7, "velocity": 127}, {"time": 3090, "pitch": 76, "duration": 6, "velocity": 122}, {"time": 3102, "pitch": 74, "duration": 13, "velocity": 127}, {"time": 3120, "pitch": 72, "duration": 32, "velocity": 127}, {"time": 3150, "pitch": 71, "duration": 13, "velocity": 122}, {"time": 3168, "pitch": 67, "duration": 15, "velocity": 107}, {"time": 3198, "pitch": 72, "duration": 16, "velocity": 127}, {"time": 3222, "pitch": 72, "duration": 11, "velocity": 127}, {"time": 3246, "pitch": 76, "duration": 6, "velocity": 117}, {"time": 3258, "pitch": 64, "duration": 6, "velocity": 107}, {"time": 3270, "pitch": 65, "duration": 6, "velocity": 100}, {"time": 3282, "pitch": 67, "duration": 7, "velocity": 117}, {"time": 3294, "pitch": 69, "duration": 11, "velocity": 112}, {"time": 3312, "pitch": 65, "duration": 14, "velocity": 112}, {"time": 3342, "pitch": 67, "duration": 10, "velocity": 102}, {"time": 3360, "pitch": 72, "duration": 11, "velocity": 127}, {"time": 3390, "pitch": 72, "duration": 8, "velocity": 117}, {"time": 3408, "pitch": 71, "duration": 6, "velocity": 112}, {"time": 3414, "pitch": 69, "duration": 5, "velocity": 86}, {"time": 3420, "pitch": 76, "duration": 14, "velocity": 117}, {"time": 3438, "pitch": 74, "duration": 15, "velocity": 127}, {"time": 3450, "pitch": 79, "duration": 6, "velocity": 127}, {"time": 3462, "pitch": 77, "duration": 6, "velocity": 117}, {"time": 3474, "pitch": 76, "duration": 4, "velocity": 127}, {"time": 3486, "pitch": 74, "duration": 14, "velocity": 117}, {"time": 3504, "pitch": 72, "duration": 11, "velocity": 127}, {"time": 3534, "pitch": 71, "duration": 13, "velocity": 112}, {"time": 3552, "pitch": 67, "duration": 15, "velocity": 97}, {"time": 3582, "pitch": 72, "duration": 12, "velocity": 127}, {"time": 3606, "pitch": 72, "duration": 9, "velocity": 127}, {"time": 3630, "pitch": 76, "duration": 5, "velocity": 127}, {"time": 3642, "pitch": 64, "duration": 6, "velocity": 107}, {"time": 3654, "pitch": 65, "duration": 5, "velocity": 117}, {"time": 3666, "pitch": 67, "duration": 8, "velocity": 127}, {"time": 3678, "pitch": 69, "duration": 12, "velocity": 122}, {"time": 3696, "pitch": 65, "duration": 19, "velocity": 102}, {"time": 3726, "pitch": 67, "duration": 16, "velocity": 127}, {"time": 3744, "pitch": 72, "duration": 13, "velocity": 127}, {"time": 3774, "pitch": 72, "duration": 12, "velocity": 122}, {"time": 3792, "pitch": 69, "duration": 10, "velocity": 102}, {"time": 3810, "pitch": 76, "duration": 6, "velocity": 127}, {"time": 3822, "pitch": 74, "duration": 11, "velocity": 127}, {"time": 3840, "pitch": 71, "duration": 13, "velocity": 117}, {"time": 3858, "pitch": 74, "duration": 6, "velocity": 122}, {"time": 3870, "pitch": 74, "duration": 12, "velocity": 112}, {"time": 3888, "pitch": 72, "duration": 28, "velocity": 107}, {"time": 4806, "pitch": 69, "duration": 6, "velocity": 112}, {"time": 4818, "pitch": 71, "duration": 6, "velocity": 112}, {"time": 4830, "pitch": 72, "duration": 4, "velocity": 127}, {"time": 4836, "pitch": 71, "duration": 4, "velocity": 107}, {"time": 4842, "pitch": 72, "duration": 5, "velocity": 97}, {"time": 4848, "pitch": 71, "duration": 3, "velocity": 96}, {"time": 4854, "pitch": 72, "duration": 5, "velocity": 122}, {"time": 4860, "pitch": 71, "duration": 4, "velocity": 112}, {"time": 4866, "pitch": 72, "duration": 5, "velocity": 112}, {"time": 4872, "pitch": 71, "duration": 4, "velocity": 127}, {"time": 4878, "pitch": 72, "duration": 3, "velocity": 122}, {"time": 4884, "pitch": 71, "duration": 5, "velocity": 100}, {"time": 4890, "pitch": 72, "duration": 5, "velocity": 100}, {"time": 4896, "pitch": 71, "duration": 4, "velocity": 97}, {"time": 4902, "pitch": 72, "duration": 5, "velocity": 107}, {"time": 4908, "pitch": 71, "duration": 4, "velocity": 99}, {"time": 4914, "pitch": 72, "duration": 5, "velocity": 122}, {"time": 4920, "pitch": 71, "duration": 4, "velocity": 112}, {"time": 4926, "pitch": 72, "duration": 3, "velocity": 127}, {"time": 4932, "pitch": 71, "duration": 5, "velocity": 127}, {"time": 4938, "pitch": 72, "duration": 4, "velocity": 112}, {"time": 4944, "pitch": 71, "duration": 5, "velocity": 95}, {"time": 4950, "pitch": 74, "duration": 5, "velocity": 117}, {"time": 4962, "pitch": 71, "duration": 5, "velocity": 127}, {"time": 4974, "pitch": 67, "duration": 9, "velocity": 112}, {"time": 4998, "pitch": 69, "duration": 7, "velocity": 107}, {"time": 5010, "pitch": 71, "duration": 5, "velocity": 112}, {"time": 5022, "pitch": 72, "duration": 7, "velocity": 122}, {"time": 5040, "pitch": 79, "duration": 5, "velocity": 117}, {"time": 5046, "pitch": 77, "duration": 4, "velocity": 100}, {"time": 5058, "pitch": 76, "duration": 11, "velocity": 122}, {"time": 5070, "pitch": 74, "duration": 14, "velocity": 117}, {"time": 5088, "pitch": 72, "duration": 4, "velocity": 99}, {"time": 5094, "pitch": 72, "duration": 4, "velocity": 102}, {"time": 5100, "pitch": 76, "duration": 10, "velocity": 117}, {"time": 5118, "pitch": 74, "duration": 12, "velocity": 127}, {"time": 5466, "pitch": 79, "duration": 7, "velocity": 107}, {"time": 5478, "pitch": 77, "duration": 7, "velocity": 127}, {"time": 5490, "pitch": 76, "duration": 6, "velocity": 122}, {"time": 5502, "pitch": 74, "duration": 13, "velocity": 127}, {"time": 5520, "pitch": 72, "duration": 32, "velocity": 127}, {"time": 5550, "pitch": 71, "duration": 13, "velocity": 122}, {"time": 5568, "pitch": 67, "duration": 15, "velocity": 107}, {"time": 5598, "pitch": 72, "duration": 16, "velocity": 127}, {"time": 5622, "pitch": 72, "duration": 11, "velocity": 127}, {"time": 5646, "pitch": 76, "duration": 6, "velocity": 117}, {"time": 5658, "pitch": 64, "duration": 6, "velocity": 107}, {"time": 5670, "pitch": 65, "duration": 6, "velocity": 100}, {"time": 5682, "pitch": 67, "duration": 7, "velocity": 117}, {"time": 5694, "pitch": 69, "duration": 11, "velocity": 112}, {"time": 5712, "pitch": 65, "duration": 14, "velocity": 112}, {"time": 5742, "pitch": 67, "duration": 10, "velocity": 102}, {"time": 5760, "pitch": 72, "duration": 11, "velocity": 127}, {"time": 5790, "pitch": 72, "duration": 8, "velocity": 117}, {"time": 5808, "pitch": 71, "duration": 6, "velocity": 112}, {"time": 5814, "pitch": 69, "duration": 5, "velocity": 86}, {"time": 5820, "pitch": 76, "duration": 14, "velocity": 117}, {"time": 5838, "pitch": 74, "duration": 15, "velocity": 127}, {"time": 5850, "pitch": 79, "duration": 6, "velocity": 127}, {"time": 5862, "pitch": 77, "duration": 6, "velocity": 117}, {"time": 5874, "pitch": 76, "duration": 4, "velocity": 127}, {"time": 5886, "pitch": 74, "duration": 14, "velocity": 117}, {"time": 5904, "pitch": 72, "duration": 11, "velocity": 127}, {"time": 5934, "pitch": 71, "duration": 13, "velocity": 112}, {"time": 5952, "pitch": 67, "duration": 15, "velocity": 97}, {"time": 5982, "pitch": 72, "duration": 12, "velocity": 127}, {"time": 6006, "pitch": 72, "duration": 9, "velocity": 127}, {"time": 6030, "pitch": 76, "duration": 5, "velocity": 127}, {"time": 6042, "pitch": 64, "duration": 6, "velocity": 107}, {"time": 6054, "pitch": 65, "duration": 5, "velocity": 117}, {"time": 6066, "pitch": 67, "duration": 8, "velocity": 127}, {"time": 6078, "pitch": 69, "duration": 12, "velocity": 122}, {"time": 6096, "pitch": 65, "duration": 19, "velocity": 102}, {"time": 6126, "pitch": 67, "duration": 16, "velocity": 127}, {"time": 6144, "pitch": 72, "duration": 13, "velocity": 127}, {"time": 6174, "pitch": 72, "duration": 12, "velocity": 122}, {"time": 6192, "pitch": 69, "duration": 10, "velocity": 102}, {"time": 6210, "pitch": 76, "duration": 6, "velocity": 127}, {"time": 6222, "pitch": 74, "duration": 11, "velocity": 127}, {"time": 6240, "pitch": 71, "duration": 13, "velocity": 117}, {"time": 6258, "pitch": 74, "duration": 6, "velocity": 122}, {"time": 6270, "pitch": 74, "duration": 12, "velocity": 112}, {"time": 6288, "pitch": 72, "duration": 28, "velocity": 107}, {"time": 6366, "pitch": 69, "duration": 12, "velocity": 122}, {"time": 6384, "pitch": 65, "duration": 19, "velocity": 102}, {"time": 6414, "pitch": 67, "duration": 16, "velocity": 127}, {"time": 6432, "pitch": 72, "duration": 13, "velocity": 127}, {"time": 6462, "pitch": 72, "duration": 12, "velocity": 122}, {"time": 6480, "pitch": 69, "duration": 10, "velocity": 102}, {"time": 6498, "pitch": 76, "duration": 6, "velocity": 127}, {"time": 6510, "pitch": 74, "duration": 11, "velocity": 127}, {"time": 6528, "pitch": 71, "duration": 13, "velocity": 117}, {"time": 6546, "pitch": 74, "duration": 6, "velocity": 122}, {"time": 6558, "pitch": 74, "duration": 12, "velocity": 112}, {"time": 6576, "pitch": 72, "duration": 28, "velocity": 107}]}, {"program": 0, "is_drum": false, "name": "BRIDGE", "notes": [{"time": 222, "pitch": 64, "duration": 18, "velocity": 122}, {"time": 240, "pitch": 60, "duration": 17, "velocity": 112}, {"time": 258, "pitch": 64, "duration": 11, "velocity": 112}, {"time": 270, "pitch": 65, "duration": 19, "velocity": 100}, {"time": 288, "pitch": 60, "duration": 19, "velocity": 100}, {"time": 306, "pitch": 65, "duration": 13, "velocity": 102}, {"time": 318, "pitch": 67, "duration": 17, "velocity": 102}, {"time": 336, "pitch": 67, "duration": 14, "velocity": 112}, {"time": 354, "pitch": 65, "duration": 10, "velocity": 117}, {"time": 366, "pitch": 64, "duration": 15, "velocity": 93}, {"time": 1083, "pitch": 67, "duration": 10, "velocity": 127}, {"time": 1110, "pitch": 67, "duration": 10, "velocity": 127}, {"time": 1134, "pitch": 67, "duration": 8, "velocity": 127}, {"time": 1158, "pitch": 67, "duration": 10, "velocity": 127}, {"time": 1182, "pitch": 67, "duration": 10, "velocity": 127}, {"time": 1200, "pitch": 67, "duration": 3, "velocity": 112}, {"time": 1206, "pitch": 67, "duration": 3, "velocity": 107}, {"time": 1215, "pitch": 67, "duration": 4, "velocity": 127}, {"time": 1224, "pitch": 67, "duration": 7, "velocity": 127}, {"time": 2082, "pitch": 64, "duration": 9, "velocity": 97}, {"time": 2091, "pitch": 65, "duration": 30, "velocity": 112}, {"time": 2130, "pitch": 65, "duration": 11, "velocity": 100}, {"time": 2142, "pitch": 67, "duration": 31, "velocity": 112}, {"time": 2178, "pitch": 65, "duration": 6, "velocity": 127}, {"time": 2190, "pitch": 64, "duration": 11, "velocity": 127}, {"time": 2910, "pitch": 67, "duration": 10, "velocity": 127}, {"time": 2934, "pitch": 67, "duration": 10, "velocity": 127}, {"time": 2958, "pitch": 67, "duration": 8, "velocity": 127}, {"time": 2982, "pitch": 67, "duration": 10, "velocity": 127}, {"time": 3006, "pitch": 67, "duration": 10, "velocity": 127}, {"time": 3024, "pitch": 67, "duration": 3, "velocity": 112}, {"time": 3030, "pitch": 67, "duration": 3, "velocity": 107}, {"time": 3036, "pitch": 67, "duration": 4, "velocity": 127}, {"time": 3048, "pitch": 67, "duration": 7, "velocity": 127}, {"time": 3870, "pitch": 64, "duration": 33, "velocity": 112}, {"time": 3906, "pitch": 64, "duration": 9, "velocity": 117}, {"time": 3918, "pitch": 65, "duration": 35, "velocity": 127}, {"time": 3954, "pitch": 65, "duration": 11, "velocity": 127}, {"time": 3966, "pitch": 67, "duration": 30, "velocity": 107}, {"time": 4002, "pitch": 65, "duration": 11, "velocity": 117}, {"time": 4014, "pitch": 64, "duration": 11, "velocity": 127}, {"time": 4062, "pitch": 69, "duration": 7, "velocity": 107}, {"time": 4068, "pitch": 65, "duration": 6, "velocity": 72}, {"time": 4074, "pitch": 60, "duration": 7, "velocity": 97}, {"time": 4080, "pitch": 69, "duration": 6, "velocity": 97}, {"time": 4086, "pitch": 65, "duration": 6, "velocity": 82}, {"time": 4092, "pitch": 60, "duration": 7, "velocity": 97}, {"time": 4098, "pitch": 69, "duration": 8, "velocity": 96}, {"time": 4104, "pitch": 65, "duration": 6, "velocity": 88}, {"time": 4110, "pitch": 60, "duration": 6, "velocity": 95}, {"time": 4116, "pitch": 69, "duration": 8, "velocity": 99}, {"time": 4122, "pitch": 65, "duration": 6, "velocity": 83}, {"time": 4128, "pitch": 60, "duration": 8, "velocity": 99}, {"time": 4134, "pitch": 69, "duration": 8, "velocity": 95}, {"time": 4140, "pitch": 65, "duration": 6, "velocity": 88}, {"time": 4146, "pitch": 60, "duration": 6, "velocity": 99}, {"time": 4152, "pitch": 69, "duration": 6, "velocity": 99}, {"time": 4152, "pitch": 72, "duration": 5, "velocity": 127}, {"time": 4158, "pitch": 76, "duration": 4, "velocity": 92}, {"time": 4164, "pitch": 72, "duration": 5, "velocity": 81}, {"time": 4170, "pitch": 76, "duration": 4, "velocity": 100}, {"time": 4176, "pitch": 76, "duration": 4, "velocity": 86}, {"time": 4182, "pitch": 76, "duration": 3, "velocity": 117}, {"time": 4188, "pitch": 72, "duration": 7, "velocity": 90}, {"time": 4194, "pitch": 76, "duration": 6, "velocity": 96}, {"time": 4200, "pitch": 72, "duration": 8, "velocity": 93}, {"time": 4212, "pitch": 76, "duration": 4, "velocity": 100}, {"time": 4218, "pitch": 76, "duration": 5, "velocity": 96}, {"time": 4224, "pitch": 72, "duration": 5, "velocity": 95}, {"time": 4230, "pitch": 76, "duration": 5, "velocity": 100}, {"time": 4236, "pitch": 72, "duration": 5, "velocity": 85}, {"time": 4242, "pitch": 76, "duration": 6, "velocity": 107}, {"time": 4248, "pitch": 72, "duration": 6, "velocity": 107}, {"time": 4254, "pitch": 69, "duration": 7, "velocity": 102}, {"time": 4260, "pitch": 65, "duration": 7, "velocity": 78}, {"time": 4266, "pitch": 60, "duration": 9, "velocity": 95}, {"time": 4272, "pitch": 69, "duration": 7, "velocity": 96}, {"time": 4278, "pitch": 65, "duration": 7, "velocity": 83}, {"time": 4284, "pitch": 60, "duration": 7, "velocity": 92}, {"time": 4290, "pitch": 69, "duration": 8, "velocity": 100}, {"time": 4296, "pitch": 65, "duration": 6, "velocity": 77}, {"time": 4302, "pitch": 60, "duration": 6, "velocity": 76}, {"time": 4308, "pitch": 69, "duration": 7, "velocity": 97}, {"time": 4314, "pitch": 65, "duration": 6, "velocity": 72}, {"time": 4320, "pitch": 60, "duration": 7, "velocity": 93}, {"time": 4326, "pitch": 69, "duration": 8, "velocity": 102}, {"time": 4332, "pitch": 65, "duration": 6, "velocity": 83}, {"time": 4338, "pitch": 60, "duration": 8, "velocity": 99}, {"time": 4344, "pitch": 69, "duration": 7, "velocity": 100}, {"time": 4350, "pitch": 71, "duration": 6, "velocity": 127}, {"time": 4356, "pitch": 67, "duration": 13, "velocity": 92}, {"time": 4368, "pitch": 71, "duration": 6, "velocity": 95}, {"time": 4374, "pitch": 67, "duration": 8, "velocity": 82}, {"time": 4386, "pitch": 71, "duration": 7, "velocity": 99}, {"time": 4392, "pitch": 67, "duration": 11, "velocity": 78}, {"time": 4404, "pitch": 71, "duration": 7, "velocity": 97}, {"time": 4410, "pitch": 67, "duration": 12, "velocity": 76}, {"time": 4422, "pitch": 71, "duration": 7, "velocity": 96}, {"time": 4428, "pitch": 67, "duration": 12, "velocity": 75}, {"time": 4440, "pitch": 71, "duration": 7, "velocity": 93}, {"time": 4446, "pitch": 69, "duration": 7, "velocity": 107}, {"time": 4452, "pitch": 65, "duration": 6, "velocity": 72}, {"time": 4458, "pitch": 60, "duration": 7, "velocity": 97}, {"time": 4464, "pitch": 69, "duration": 6, "velocity": 97}, {"time": 4470, "pitch": 65, "duration": 6, "velocity": 82}, {"time": 4476, "pitch": 60, "duration": 7, "velocity": 97}, {"time": 4482, "pitch": 69, "duration": 8, "velocity": 96}, {"time": 4488, "pitch": 65, "duration": 6, "velocity": 88}, {"time": 4494, "pitch": 60, "duration": 6, "velocity": 95}, {"time": 4500, "pitch": 69, "duration": 8, "velocity": 99}, {"time": 4506, "pitch": 65, "duration": 6, "velocity": 83}, {"time": 4512, "pitch": 60, "duration": 8, "velocity": 99}, {"time": 4518, "pitch": 69, "duration": 8, "velocity": 95}, {"time": 4524, "pitch": 65, "duration": 6, "velocity": 88}, {"time": 4530, "pitch": 60, "duration": 6, "velocity": 99}, {"time": 4536, "pitch": 69, "duration": 6, "velocity": 99}, {"time": 4536, "pitch": 72, "duration": 5, "velocity": 127}, {"time": 4542, "pitch": 76, "duration": 4, "velocity": 92}, {"time": 4548, "pitch": 72, "duration": 5, "velocity": 81}, {"time": 4554, "pitch": 76, "duration": 4, "velocity": 100}, {"time": 4560, "pitch": 76, "duration": 4, "velocity": 86}, {"time": 4566, "pitch": 76, "duration": 3, "velocity": 117}, {"time": 4572, "pitch": 72, "duration": 7, "velocity": 90}, {"time": 4578, "pitch": 76, "duration": 6, "velocity": 96}, {"time": 4584, "pitch": 72, "duration": 8, "velocity": 93}, {"time": 4596, "pitch": 76, "duration": 4, "velocity": 100}, {"time": 4602, "pitch": 76, "duration": 5, "velocity": 96}, {"time": 4608, "pitch": 72, "duration": 5, "velocity": 95}, {"time": 4614, "pitch": 76, "duration": 5, "velocity": 100}, {"time": 4620, "pitch": 72, "duration": 5, "velocity": 85}, {"time": 4626, "pitch": 76, "duration": 6, "velocity": 107}, {"time": 4632, "pitch": 72, "duration": 6, "velocity": 107}, {"time": 4638, "pitch": 69, "duration": 7, "velocity": 102}, {"time": 4644, "pitch": 65, "duration": 7, "velocity": 78}, {"time": 4650, "pitch": 60, "duration": 9, "velocity": 95}, {"time": 4656, "pitch": 69, "duration": 7, "velocity": 96}, {"time": 4662, "pitch": 65, "duration": 7, "velocity": 83}, {"time": 4668, "pitch": 60, "duration": 7, "velocity": 92}, {"time": 4674, "pitch": 69, "duration": 8, "velocity": 100}, {"time": 4680, "pitch": 65, "duration": 6, "velocity": 77}, {"time": 4686, "pitch": 60, "duration": 6, "velocity": 76}, {"time": 4692, "pitch": 69, "duration": 7, "velocity": 97}, {"time": 4698, "pitch": 65, "duration": 6, "velocity": 72}, {"time": 4704, "pitch": 60, "duration": 7, "velocity": 93}, {"time": 4710, "pitch": 69, "duration": 8, "velocity": 102}, {"time": 4716, "pitch": 65, "duration": 6, "velocity": 83}, {"time": 4722, "pitch": 60, "duration": 8, "velocity": 99}, {"time": 4728, "pitch": 69, "duration": 7, "velocity": 100}, {"time": 4734, "pitch": 72, "duration": 7, "velocity": 122}, {"time": 4740, "pitch": 68, "duration": 7, "velocity": 93}, {"time": 4746, "pitch": 65, "duration": 7, "velocity": 86}, {"time": 4752, "pitch": 72, "duration": 6, "velocity": 112}, {"time": 4758, "pitch": 68, "duration": 7, "velocity": 102}, {"time": 4764, "pitch": 65, "duration": 6, "velocity": 90}, {"time": 4770, "pitch": 72, "duration": 6, "velocity": 107}, {"time": 4776, "pitch": 68, "duration": 5, "velocity": 112}, {"time": 4782, "pitch": 71, "duration": 8, "velocity": 102}, {"time": 4788, "pitch": 67, "duration": 6, "velocity": 75}, {"time": 4794, "pitch": 62, "duration": 7, "velocity": 92}, {"time": 4800, "pitch": 71, "duration": 7, "velocity": 95}, {"time": 4806, "pitch": 67, "duration": 6, "velocity": 78}, {"time": 4812, "pitch": 62, "duration": 6, "velocity": 97}, {"time": 4818, "pitch": 71, "duration": 7, "velocity": 99}, {"time": 4824, "pitch": 67, "duration": 5, "velocity": 86}, {"time": 5118, "pitch": 67, "duration": 7, "velocity": 127}, {"time": 5142, "pitch": 67, "duration": 7, "velocity": 122}, {"time": 5166, "pitch": 67, "duration": 6, "velocity": 127}, {"time": 5190, "pitch": 67, "duration": 8, "velocity": 127}, {"time": 5214, "pitch": 68, "duration": 7, "velocity": 127}, {"time": 5238, "pitch": 68, "duration": 8, "velocity": 127}, {"time": 5262, "pitch": 68, "duration": 8, "velocity": 127}, {"time": 5286, "pitch": 68, "duration": 8, "velocity": 127}, {"time": 5310, "pitch": 70, "duration": 10, "velocity": 127}, {"time": 5334, "pitch": 70, "duration": 10, "velocity": 127}, {"time": 5358, "pitch": 70, "duration": 10, "velocity": 127}, {"time": 5382, "pitch": 70, "duration": 10, "velocity": 127}, {"time": 5406, "pitch": 72, "duration": 10, "velocity": 122}, {"time": 5424, "pitch": 72, "duration": 6, "velocity": 122}, {"time": 5430, "pitch": 70, "duration": 7, "velocity": 96}, {"time": 5436, "pitch": 68, "duration": 6, "velocity": 127}, {"time": 5448, "pitch": 67, "duration": 18, "velocity": 127}, {"time": 6582, "pitch": 64, "duration": 3, "velocity": 127}, {"time": 6588, "pitch": 64, "duration": 3, "velocity": 83}, {"time": 6594, "pitch": 64, "duration": 8, "velocity": 99}, {"time": 6606, "pitch": 65, "duration": 3, "velocity": 102}, {"time": 6612, "pitch": 65, "duration": 3, "velocity": 88}, {"time": 6618, "pitch": 65, "duration": 4, "velocity": 83}, {"time": 6624, "pitch": 65, "duration": 6, "velocity": 112}, {"time": 6642, "pitch": 65, "duration": 10, "velocity": 112}, {"time": 6654, "pitch": 67, "duration": 11, "velocity": 117}, {"time": 6666, "pitch": 67, "duration": 4, "velocity": 89}, {"time": 6672, "pitch": 67, "duration": 8, "velocity": 102}, {"time": 6690, "pitch": 65, "duration": 8, "velocity": 102}, {"time": 6702, "pitch": 64, "duration": 7, "velocity": 117}]}, {"program": 0, "is_drum": false, "name": "PIANO", "notes": [{"time": 222, "pitch": 36, "duration": 16, "velocity": 83}, {"time": 222, "pitch": 48, "duration": 17, "velocity": 117}, {"time": 234, "pitch": 55, "duration": 22, "velocity": 89}, {"time": 240, "pitch": 60, "duration": 15, "velocity": 107}, {"time": 240, "pitch": 64, "duration": 15, "velocity": 99}, {"time": 258, "pitch": 36, "duration": 5, "velocity": 55}, {"time": 258, "pitch": 48, "duration": 6, "velocity": 85}, {"time": 258, "pitch": 55, "duration": 7, "velocity": 72}, {"time": 258, "pitch": 60, "duration": 8, "velocity": 79}, {"time": 258, "pitch": 64, "duration": 8, "velocity": 77}, {"time": 270, "pitch": 36, "duration": 44, "velocity": 74}, {"time": 270, "pitch": 48, "duration": 43, "velocity": 90}, {"time": 270, "pitch": 55, "duration": 7, "velocity": 81}, {"time": 270, "pitch": 60, "duration": 10, "velocity": 96}, {"time": 270, "pitch": 64, "duration": 12, "velocity": 93}, {"time": 276, "pitch": 55, "duration": 1, "velocity": 35}, {"time": 282, "pitch": 60, "duration": 4, "velocity": 83}, {"time": 282, "pitch": 64, "duration": 4, "velocity": 72}, {"time": 288, "pitch": 55, "duration": 13, "velocity": 85}, {"time": 288, "pitch": 60, "duration": 13, "velocity": 93}, {"time": 288, "pitch": 64, "duration": 14, "velocity": 81}, {"time": 306, "pitch": 55, "duration": 10, "velocity": 86}, {"time": 306, "pitch": 60, "duration": 9, "velocity": 86}, {"time": 306, "pitch": 64, "duration": 10, "velocity": 85}, {"time": 306, "pitch": 67, "duration": 8, "velocity": 81}, {"time": 318, "pitch": 36, "duration": 17, "velocity": 68}, {"time": 318, "pitch": 48, "duration": 16, "velocity": 97}, {"time": 318, "pitch": 55, "duration": 16, "velocity": 79}, {"time": 318, "pitch": 60, "duration": 16, "velocity": 76}, {"time": 318, "pitch": 64, "duration": 16, "velocity": 82}, {"time": 336, "pitch": 36, "duration": 22, "velocity": 69}, {"time": 336, "pitch": 48, "duration": 15, "velocity": 88}, {"time": 336, "pitch": 55, "duration": 14, "velocity": 77}, {"time": 336, "pitch": 60, "duration": 14, "velocity": 76}, {"time": 336, "pitch": 64, "duration": 14, "velocity": 77}, {"time": 336, "pitch": 67, "duration": 13, "velocity": 72}, {"time": 354, "pitch": 48, "duration": 6, "velocity": 66}, {"time": 354, "pitch": 55, "duration": 8, "velocity": 88}, {"time": 354, "pitch": 60, "duration": 7, "velocity": 92}, {"time": 354, "pitch": 64, "duration": 8, "velocity": 85}, {"time": 354, "pitch": 67, "duration": 7, "velocity": 82}, {"time": 366, "pitch": 36, "duration": 9, "velocity": 82}, {"time": 366, "pitch": 48, "duration": 10, "velocity": 112}, {"time": 366, "pitch": 55, "duration": 8, "velocity": 96}, {"time": 366, "pitch": 60, "duration": 8, "velocity": 93}, {"time": 366, "pitch": 64, "duration": 8, "velocity": 85}, {"time": 366, "pitch": 67, "duration": 8, "velocity": 82}, {"time": 414, "pitch": 36, "duration": 43, "velocity": 102}, {"time": 426, "pitch": 55, "duration": 3, "velocity": 100}, {"time": 426, "pitch": 60, "duration": 2, "velocity": 99}, {"time": 426, "pitch": 64, "duration": 3, "velocity": 90}, {"time": 432, "pitch": 55, "duration": 16, "velocity": 75}, {"time": 432, "pitch": 60, "duration": 15, "velocity": 85}, {"time": 432, "pitch": 64, "duration": 15, "velocity": 79}, {"time": 438, "pitch": 48, "duration": 22, "velocity": 112}, {"time": 450, "pitch": 60, "duration": 8, "velocity": 107}, {"time": 450, "pitch": 64, "duration": 11, "velocity": 99}, {"time": 456, "pitch": 55, "duration": 6, "velocity": 95}, {"time": 462, "pitch": 43, "duration": 25, "velocity": 95}, {"time": 474, "pitch": 55, "duration": 3, "velocity": 107}, {"time": 474, "pitch": 59, "duration": 3, "velocity": 122}, {"time": 474, "pitch": 62, "duration": 3, "velocity": 96}, {"time": 480, "pitch": 55, "duration": 9, "velocity": 76}, {"time": 480, "pitch": 59, "duration": 9, "velocity": 92}, {"time": 480, "pitch": 62, "duration": 13, "velocity": 86}, {"time": 486, "pitch": 50, "duration": 21, "velocity": 97}, {"time": 498, "pitch": 59, "duration": 8, "velocity": 99}, {"time": 498, "pitch": 62, "duration": 11, "velocity": 97}, {"time": 504, "pitch": 55, "duration": 6, "velocity": 86}, {"time": 510, "pitch": 45, "duration": 23, "velocity": 100}, {"time": 522, "pitch": 57, "duration": 3, "velocity": 100}, {"time": 522, "pitch": 60, "duration": 3, "velocity": 99}, {"time": 522, "pitch": 64, "duration": 4, "velocity": 93}, {"time": 528, "pitch": 57, "duration": 6, "velocity": 83}, {"time": 528, "pitch": 60, "duration": 6, "velocity": 89}, {"time": 528, "pitch": 64, "duration": 7, "velocity": 85}, {"time": 534, "pitch": 52, "duration": 16, "velocity": 100}, {"time": 546, "pitch": 60, "duration": 8, "velocity": 107}, {"time": 546, "pitch": 64, "duration": 10, "velocity": 100}, {"time": 552, "pitch": 57, "duration": 6, "velocity": 107}, {"time": 558, "pitch": 40, "duration": 24, "velocity": 107}, {"time": 570, "pitch": 55, "duration": 8, "velocity": 107}, {"time": 570, "pitch": 59, "duration": 10, "velocity": 99}, {"time": 576, "pitch": 52, "duration": 4, "velocity": 122}, {"time": 582, "pitch": 47, "duration": 24, "velocity": 107}, {"time": 588, "pitch": 55, "duration": 6, "velocity": 93}, {"time": 588, "pitch": 59, "duration": 7, "velocity": 96}, {"time": 594, "pitch": 52, "duration": 8, "velocity": 100}, {"time": 600, "pitch": 55, "duration": 5, "velocity": 107}, {"time": 600, "pitch": 59, "duration": 5, "velocity": 97}, {"time": 606, "pitch": 41, "duration": 27, "velocity": 92}, {"time": 618, "pitch": 53, "duration": 3, "velocity": 93}, {"time": 618, "pitch": 57, "duration": 3, "velocity": 97}, {"time": 618, "pitch": 60, "duration": 4, "velocity": 100}, {"time": 624, "pitch": 53, "duration": 4, "velocity": 88}, {"time": 624, "pitch": 57, "duration": 5, "velocity": 95}, {"time": 624, "pitch": 60, "duration": 6, "velocity": 79}, {"time": 630, "pitch": 48, "duration": 15, "velocity": 99}, {"time": 642, "pitch": 57, "duration": 8, "velocity": 117}, {"time": 642, "pitch": 60, "duration": 10, "velocity": 117}, {"time": 648, "pitch": 53, "duration": 6, "velocity": 102}, {"time": 654, "pitch": 40, "duration": 16, "velocity": 102}, {"time": 666, "pitch": 55, "duration": 7, "velocity": 107}, {"time": 666, "pitch": 59, "duration": 10, "velocity": 100}, {"time": 672, "pitch": 52, "duration": 6, "velocity": 97}, {"time": 678, "pitch": 40, "duration": 21, "velocity": 102}, {"time": 684, "pitch": 55, "duration": 6, "velocity": 100}, {"time": 684, "pitch": 59, "duration": 8, "velocity": 102}, {"time": 690, "pitch": 52, "duration": 8, "velocity": 99}, {"time": 696, "pitch": 55, "duration": 4, "velocity": 100}, {"time": 696, "pitch": 59, "duration": 5, "velocity": 107}, {"time": 702, "pitch": 38, "duration": 20, "velocity": 96}, {"time": 714, "pitch": 57, "duration": 3, "velocity": 93}, {"time": 714, "pitch": 62, "duration": 4, "velocity": 117}, {"time": 720, "pitch": 57, "duration": 6, "velocity": 90}, {"time": 720, "pitch": 62, "duration": 6, "velocity": 96}, {"time": 720, "pitch": 65, "duration": 6, "velocity": 99}, {"time": 726, "pitch": 45, "duration": 12, "velocity": 27}, {"time": 726, "pitch": 50, "duration": 22, "velocity": 99}, {"time": 738, "pitch": 62, "duration": 10, "velocity": 122}, {"time": 738, "pitch": 65, "duration": 9, "velocity": 122}, {"time": 744, "pitch": 57, "duration": 6, "velocity": 93}, {"time": 744, "pitch": 59, "duration": 3, "velocity": 81}, {"time": 750, "pitch": 43, "duration": 36, "velocity": 96}, {"time": 762, "pitch": 55, "duration": 2, "velocity": 92}, {"time": 762, "pitch": 59, "duration": 3, "velocity": 112}, {"time": 762, "pitch": 62, "duration": 5, "velocity": 100}, {"time": 768, "pitch": 59, "duration": 6, "velocity": 82}, {"time": 768, "pitch": 62, "duration": 7, "velocity": 72}, {"time": 774, "pitch": 50, "duration": 13, "velocity": 99}, {"time": 780, "pitch": 59, "duration": 6, "velocity": 107}, {"time": 780, "pitch": 62, "duration": 8, "velocity": 107}, {"time": 786, "pitch": 55, "duration": 12, "velocity": 99}, {"time": 792, "pitch": 59, "duration": 6, "velocity": 100}, {"time": 792, "pitch": 62, "duration": 7, "velocity": 100}, {"time": 798, "pitch": 36, "duration": 20, "velocity": 95}, {"time": 810, "pitch": 55, "duration": 3, "velocity": 99}, {"time": 810, "pitch": 60, "duration": 3, "velocity": 107}, {"time": 810, "pitch": 64, "duration": 3, "velocity": 99}, {"time": 816, "pitch": 55, "duration": 5, "velocity": 75}, {"time": 816, "pitch": 60, "duration": 6, "velocity": 100}, {"time": 816, "pitch": 64, "duration": 6, "velocity": 90}, {"time": 822, "pitch": 48, "duration": 23, "velocity": 97}, {"time": 834, "pitch": 60, "duration": 9, "velocity": 127}, {"time": 834, "pitch": 64, "duration": 7, "velocity": 107}, {"time": 840, "pitch": 55, "duration": 7, "velocity": 99}, {"time": 846, "pitch": 43, "duration": 20, "velocity": 100}, {"time": 858, "pitch": 59, "duration": 3, "velocity": 117}, {"time": 858, "pitch": 62, "duration": 4, "velocity": 102}, {"time": 864, "pitch": 47, "duration": 6, "velocity": 35}, {"time": 864, "pitch": 55, "duration": 5, "velocity": 112}, {"time": 864, "pitch": 59, "duration": 4, "velocity": 73}, {"time": 864, "pitch": 62, "duration": 5, "velocity": 79}, {"time": 870, "pitch": 50, "duration": 23, "velocity": 99}, {"time": 876, "pitch": 59, "duration": 6, "velocity": 107}, {"time": 876, "pitch": 62, "duration": 5, "velocity": 100}, {"time": 888, "pitch": 59, "duration": 6, "velocity": 107}, {"time": 888, "pitch": 62, "duration": 7, "velocity": 112}, {"time": 894, "pitch": 45, "duration": 20, "velocity": 96}, {"time": 906, "pitch": 57, "duration": 4, "velocity": 95}, {"time": 906, "pitch": 60, "duration": 3, "velocity": 107}, {"time": 906, "pitch": 64, "duration": 3, "velocity": 97}, {"time": 912, "pitch": 48, "duration": 5, "velocity": 32}, {"time": 912, "pitch": 57, "duration": 5, "velocity": 67}, {"time": 912, "pitch": 60, "duration": 6, "velocity": 93}, {"time": 912, "pitch": 64, "duration": 6, "velocity": 86}, {"time": 918, "pitch": 52, "duration": 14, "velocity": 97}, {"time": 930, "pitch": 60, "duration": 9, "velocity": 127}, {"time": 930, "pitch": 64, "duration": 8, "velocity": 107}, {"time": 936, "pitch": 57, "duration": 6, "velocity": 92}, {"time": 942, "pitch": 40, "duration": 24, "velocity": 95}, {"time": 954, "pitch": 52, "duration": 2, "velocity": 81}, {"time": 954, "pitch": 55, "duration": 3, "velocity": 96}, {"time": 954, "pitch": 59, "duration": 4, "velocity": 90}, {"time": 960, "pitch": 52, "duration": 5, "velocity": 97}, {"time": 960, "pitch": 55, "duration": 4, "velocity": 92}, {"time": 960, "pitch": 59, "duration": 6, "velocity": 81}, {"time": 966, "pitch": 47, "duration": 22, "velocity": 86}, {"time": 972, "pitch": 55, "duration": 8, "velocity": 96}, {"time": 972, "pitch": 59, "duration": 8, "velocity": 92}, {"time": 984, "pitch": 55, "duration": 4, "velocity": 97}, {"time": 984, "pitch": 59, "duration": 6, "velocity": 97}, {"time": 990, "pitch": 41, "duration": 20, "velocity": 92}, {"time": 1002, "pitch": 53, "duration": 3, "velocity": 95}, {"time": 1002, "pitch": 57, "duration": 3, "velocity": 100}, {"time": 1002, "pitch": 60, "duration": 4, "velocity": 100}, {"time": 1008, "pitch": 53, "duration": 6, "velocity": 81}, {"time": 1008, "pitch": 57, "duration": 6, "velocity": 97}, {"time": 1008, "pitch": 60, "duration": 6, "velocity": 88}, {"time": 1014, "pitch": 41, "duration": 2, "velocity": 38}, {"time": 1014, "pitch": 47, "duration": 16, "velocity": 54}, {"time": 1026, "pitch": 53, "duration": 4, "velocity": 96}, {"time": 1026, "pitch": 57, "duration": 5, "velocity": 99}, {"time": 1026, "pitch": 60, "duration": 6, "velocity": 96}, {"time": 1038, "pitch": 40, "duration": 19, "velocity": 107}, {"time": 1050, "pitch": 52, "duration": 3, "velocity": 89}, {"time": 1050, "pitch": 55, "duration": 3, "velocity": 99}, {"time": 1050, "pitch": 59, "duration": 3, "velocity": 90}, {"time": 1056, "pitch": 43, "duration": 5, "velocity": 34}, {"time": 1056, "pitch": 52, "duration": 4, "velocity": 74}, {"time": 1056, "pitch": 55, "duration": 5, "velocity": 90}, {"time": 1056, "pitch": 59, "duration": 5, "velocity": 82}, {"time": 1062, "pitch": 47, "duration": 19, "velocity": 95}, {"time": 1074, "pitch": 55, "duration": 8, "velocity": 99}, {"time": 1074, "pitch": 59, "duration": 10, "velocity": 97}, {"time": 1080, "pitch": 52, "duration": 4, "velocity": 89}, {"time": 1086, "pitch": 43, "duration": 6, "velocity": 66}, {"time": 1086, "pitch": 50, "duration": 7, "velocity": 89}, {"time": 1086, "pitch": 55, "duration": 7, "velocity": 102}, {"time": 1086, "pitch": 59, "duration": 7, "velocity": 102}, {"time": 1086, "pitch": 62, "duration": 7, "velocity": 97}, {"time": 1110, "pitch": 43, "duration": 6, "velocity": 77}, {"time": 1110, "pitch": 50, "duration": 6, "velocity": 102}, {"time": 1110, "pitch": 55, "duration": 7, "velocity": 97}, {"time": 1110, "pitch": 59, "duration": 7, "velocity": 102}, {"time": 1110, "pitch": 62, "duration": 8, "velocity": 97}, {"time": 1134, "pitch": 43, "duration": 6, "velocity": 70}, {"time": 1134, "pitch": 50, "duration": 5, "velocity": 99}, {"time": 1134, "pitch": 55, "duration": 5, "velocity": 102}, {"time": 1134, "pitch": 59, "duration": 5, "velocity": 112}, {"time": 1134, "pitch": 62, "duration": 6, "velocity": 100}, {"time": 1158, "pitch": 43, "duration": 4, "velocity": 79}, {"time": 1158, "pitch": 50, "duration": 4, "velocity": 107}, {"time": 1158, "pitch": 55, "duration": 4, "velocity": 100}, {"time": 1158, "pitch": 59, "duration": 4, "velocity": 117}, {"time": 1158, "pitch": 62, "duration": 5, "velocity": 102}, {"time": 1182, "pitch": 43, "duration": 4, "velocity": 78}, {"time": 1182, "pitch": 50, "duration": 4, "velocity": 117}, {"time": 1182, "pitch": 55, "duration": 3, "velocity": 102}, {"time": 1182, "pitch": 59, "duration": 4, "velocity": 112}, {"time": 1182, "pitch": 62, "duration": 4, "velocity": 100}, {"time": 1200, "pitch": 43, "duration": 2, "velocity": 69}, {"time": 1200, "pitch": 50, "duration": 3, "velocity": 100}, {"time": 1200, "pitch": 55, "duration": 2, "velocity": 112}, {"time": 1200, "pitch": 59, "duration": 2, "velocity": 112}, {"time": 1200, "pitch": 62, "duration": 3, "velocity": 102}, {"time": 1206, "pitch": 43, "duration": 3, "velocity": 89}, {"time": 1206, "pitch": 50, "duration": 3, "velocity": 92}, {"time": 1206, "pitch": 55, "duration": 3, "velocity": 92}, {"time": 1206, "pitch": 59, "duration": 3, "velocity": 97}, {"time": 1206, "pitch": 62, "duration": 3, "velocity": 95}, {"time": 1215, "pitch": 43, "duration": 3, "velocity": 96}, {"time": 1215, "pitch": 50, "duration": 3, "velocity": 112}, {"time": 1215, "pitch": 55, "duration": 3, "velocity": 107}, {"time": 1215, "pitch": 59, "duration": 3, "velocity": 117}, {"time": 1215, "pitch": 62, "duration": 3, "velocity": 102}, {"time": 1224, "pitch": 43, "duration": 8, "velocity": 102}, {"time": 1224, "pitch": 50, "duration": 7, "velocity": 117}, {"time": 1224, "pitch": 55, "duration": 7, "velocity": 112}, {"time": 1224, "pitch": 59, "duration": 7, "velocity": 122}, {"time": 1224, "pitch": 62, "duration": 8, "velocity": 102}, {"time": 1278, "pitch": 36, "duration": 19, "velocity": 96}, {"time": 1290, "pitch": 55, "duration": 3, "velocity": 99}, {"time": 1290, "pitch": 60, "duration": 3, "velocity": 122}, {"time": 1290, "pitch": 64, "duration": 3, "velocity": 95}, {"time": 1296, "pitch": 55, "duration": 5, "velocity": 69}, {"time": 1296, "pitch": 60, "duration": 5, "velocity": 81}, {"time": 1296, "pitch": 64, "duration": 5, "velocity": 76}, {"time": 1302, "pitch": 48, "duration": 22, "velocity": 112}, {"time": 1308, "pitch": 60, "duration": 8, "velocity": 100}, {"time": 1308, "pitch": 64, "duration": 8, "velocity": 99}, {"time": 1320, "pitch": 55, "duration": 8, "velocity": 89}, {"time": 1320, "pitch": 60, "duration": 6, "velocity": 99}, {"time": 1320, "pitch": 64, "duration": 8, "velocity": 96}, {"time": 1326, "pitch": 43, "duration": 26, "velocity": 82}, {"time": 1338, "pitch": 55, "duration": 3, "velocity": 93}, {"time": 1338, "pitch": 59, "duration": 3, "velocity": 97}, {"time": 1338, "pitch": 62, "duration": 3, "velocity": 96}, {"time": 1344, "pitch": 55, "duration": 5, "velocity": 81}, {"time": 1344, "pitch": 59, "duration": 5, "velocity": 96}, {"time": 1344, "pitch": 62, "duration": 5, "velocity": 90}, {"time": 1350, "pitch": 50, "duration": 24, "velocity": 81}, {"time": 1356, "pitch": 55, "duration": 8, "velocity": 82}, {"time": 1356, "pitch": 59, "duration": 8, "velocity": 95}, {"time": 1356, "pitch": 62, "duration": 9, "velocity": 90}, {"time": 1368, "pitch": 55, "duration": 6, "velocity": 79}, {"time": 1368, "pitch": 59, "duration": 5, "velocity": 96}, {"time": 1368, "pitch": 62, "duration": 6, "velocity": 92}, {"time": 1374, "pitch": 45, "duration": 25, "velocity": 96}, {"time": 1386, "pitch": 57, "duration": 4, "velocity": 100}, {"time": 1386, "pitch": 60, "duration": 3, "velocity": 100}, {"time": 1386, "pitch": 64, "duration": 3, "velocity": 95}, {"time": 1392, "pitch": 57, "duration": 5, "velocity": 82}, {"time": 1392, "pitch": 60, "duration": 5, "velocity": 90}, {"time": 1392, "pitch": 64, "duration": 5, "velocity": 92}, {"time": 1398, "pitch": 52, "duration": 14, "velocity": 89}, {"time": 1404, "pitch": 57, "duration": 1, "velocity": 66}, {"time": 1404, "pitch": 60, "duration": 9, "velocity": 102}, {"time": 1404, "pitch": 64, "duration": 9, "velocity": 99}, {"time": 1416, "pitch": 57, "duration": 7, "velocity": 93}, {"time": 1416, "pitch": 60, "duration": 6, "velocity": 102}, {"time": 1416, "pitch": 64, "duration": 7, "velocity": 95}, {"time": 1422, "pitch": 40, "duration": 24, "velocity": 78}, {"time": 1434, "pitch": 52, "duration": 4, "velocity": 83}, {"time": 1434, "pitch": 55, "duration": 3, "velocity": 95}, {"time": 1434, "pitch": 59, "duration": 4, "velocity": 90}, {"time": 1440, "pitch": 52, "duration": 4, "velocity": 72}, {"time": 1440, "pitch": 55, "duration": 5, "velocity": 88}, {"time": 1440, "pitch": 59, "duration": 5, "velocity": 82}, {"time": 1446, "pitch": 47, "duration": 22, "velocity": 90}, {"time": 1452, "pitch": 52, "duration": 8, "velocity": 89}, {"time": 1452, "pitch": 55, "duration": 8, "velocity": 100}, {"time": 1452, "pitch": 59, "duration": 8, "velocity": 97}, {"time": 1464, "pitch": 52, "duration": 4, "velocity": 83}, {"time": 1464, "pitch": 55, "duration": 5, "velocity": 95}, {"time": 1464, "pitch": 59, "duration": 6, "velocity": 95}, {"time": 1470, "pitch": 41, "duration": 25, "velocity": 95}, {"time": 1482, "pitch": 53, "duration": 4, "velocity": 97}, {"time": 1482, "pitch": 57, "duration": 3, "velocity": 107}, {"time": 1482, "pitch": 60, "duration": 3, "velocity": 95}, {"time": 1482, "pitch": 64, "duration": 3, "velocity": 72}, {"time": 1488, "pitch": 53, "duration": 5, "velocity": 78}, {"time": 1488, "pitch": 57, "duration": 4, "velocity": 88}, {"time": 1488, "pitch": 60, "duration": 4, "velocity": 88}, {"time": 1488, "pitch": 64, "duration": 5, "velocity": 76}, {"time": 1494, "pitch": 48, "duration": 21, "velocity": 85}, {"time": 1500, "pitch": 53, "duration": 7, "velocity": 93}, {"time": 1500, "pitch": 57, "duration": 7, "velocity": 93}, {"time": 1500, "pitch": 60, "duration": 8, "velocity": 93}, {"time": 1512, "pitch": 53, "duration": 7, "velocity": 93}, {"time": 1512, "pitch": 57, "duration": 5, "velocity": 97}, {"time": 1512, "pitch": 60, "duration": 6, "velocity": 97}, {"time": 1518, "pitch": 40, "duration": 24, "velocity": 95}, {"time": 1530, "pitch": 52, "duration": 3, "velocity": 96}, {"time": 1530, "pitch": 55, "duration": 3, "velocity": 97}, {"time": 1530, "pitch": 59, "duration": 3, "velocity": 89}, {"time": 1536, "pitch": 52, "duration": 5, "velocity": 71}, {"time": 1536, "pitch": 55, "duration": 5, "velocity": 83}, {"time": 1536, "pitch": 59, "duration": 5, "velocity": 83}, {"time": 1542, "pitch": 47, "duration": 17, "velocity": 88}, {"time": 1548, "pitch": 52, "duration": 8, "velocity": 95}, {"time": 1548, "pitch": 55, "duration": 8, "velocity": 97}, {"time": 1548, "pitch": 59, "duration": 9, "velocity": 99}, {"time": 1560, "pitch": 52, "duration": 4, "velocity": 90}, {"time": 1560, "pitch": 55, "duration": 4, "velocity": 95}, {"time": 1560, "pitch": 59, "duration": 5, "velocity": 89}, {"time": 1566, "pitch": 38, "duration": 22, "velocity": 89}, {"time": 1578, "pitch": 57, "duration": 4, "velocity": 100}, {"time": 1578, "pitch": 62, "duration": 3, "velocity": 122}, {"time": 1578, "pitch": 65, "duration": 4, "velocity": 100}, {"time": 1584, "pitch": 45, "duration": 8, "velocity": 27}, {"time": 1584, "pitch": 57, "duration": 6, "velocity": 75}, {"time": 1584, "pitch": 62, "duration": 5, "velocity": 96}, {"time": 1584, "pitch": 65, "duration": 5, "velocity": 88}, {"time": 1590, "pitch": 50, "duration": 22, "velocity": 81}, {"time": 1596, "pitch": 57, "duration": 8, "velocity": 89}, {"time": 1596, "pitch": 62, "duration": 7, "velocity": 100}, {"time": 1596, "pitch": 65, "duration": 7, "velocity": 97}, {"time": 1608, "pitch": 57, "duration": 7, "velocity": 93}, {"time": 1608, "pitch": 62, "duration": 6, "velocity": 102}, {"time": 1608, "pitch": 65, "duration": 5, "velocity": 95}, {"time": 1614, "pitch": 43, "duration": 25, "velocity": 85}, {"time": 1626, "pitch": 55, "duration": 3, "velocity": 102}, {"time": 1626, "pitch": 59, "duration": 3, "velocity": 112}, {"time": 1626, "pitch": 61, "duration": 1, "velocity": 95}, {"time": 1626, "pitch": 62, "duration": 3, "velocity": 100}, {"time": 1632, "pitch": 55, "duration": 5, "velocity": 88}, {"time": 1632, "pitch": 59, "duration": 4, "velocity": 96}, {"time": 1632, "pitch": 62, "duration": 5, "velocity": 92}, {"time": 1638, "pitch": 50, "duration": 12, "velocity": 96}, {"time": 1644, "pitch": 55, "duration": 6, "velocity": 96}, {"time": 1644, "pitch": 59, "duration": 6, "velocity": 100}, {"time": 1644, "pitch": 62, "duration": 7, "velocity": 100}, {"time": 1656, "pitch": 55, "duration": 6, "velocity": 93}, {"time": 1656, "pitch": 59, "duration": 6, "velocity": 99}, {"time": 1656, "pitch": 62, "duration": 6, "velocity": 97}, {"time": 1662, "pitch": 36, "duration": 23, "velocity": 89}, {"time": 1674, "pitch": 55, "duration": 4, "velocity": 99}, {"time": 1674, "pitch": 60, "duration": 3, "velocity": 122}, {"time": 1674, "pitch": 64, "duration": 3, "velocity": 97}, {"time": 1680, "pitch": 55, "duration": 5, "velocity": 73}, {"time": 1680, "pitch": 60, "duration": 5, "velocity": 97}, {"time": 1680, "pitch": 64, "duration": 4, "velocity": 90}, {"time": 1686, "pitch": 48, "duration": 22, "velocity": 92}, {"time": 1692, "pitch": 55, "duration": 7, "velocity": 95}, {"time": 1692, "pitch": 60, "duration": 7, "velocity": 112}, {"time": 1692, "pitch": 64, "duration": 7, "velocity": 97}, {"time": 1704, "pitch": 55, "duration": 7, "velocity": 93}, {"time": 1704, "pitch": 60, "duration": 8, "velocity": 117}, {"time": 1704, "pitch": 64, "duration": 5, "velocity": 96}, {"time": 1710, "pitch": 43, "duration": 32, "velocity": 89}, {"time": 1722, "pitch": 55, "duration": 4, "velocity": 95}, {"time": 1722, "pitch": 59, "duration": 3, "velocity": 95}, {"time": 1722, "pitch": 62, "duration": 3, "velocity": 95}, {"time": 1728, "pitch": 55, "duration": 6, "velocity": 72}, {"time": 1728, "pitch": 59, "duration": 5, "velocity": 88}, {"time": 1728, "pitch": 62, "duration": 5, "velocity": 83}, {"time": 1734, "pitch": 50, "duration": 24, "velocity": 73}, {"time": 1740, "pitch": 55, "duration": 4, "velocity": 92}, {"time": 1740, "pitch": 59, "duration": 4, "velocity": 97}, {"time": 1740, "pitch": 62, "duration": 4, "velocity": 92}, {"time": 1752, "pitch": 55, "duration": 6, "velocity": 92}, {"time": 1752, "pitch": 59, "duration": 6, "velocity": 100}, {"time": 1752, "pitch": 62, "duration": 6, "velocity": 93}, {"time": 1758, "pitch": 45, "duration": 26, "velocity": 76}, {"time": 1770, "pitch": 57, "duration": 3, "velocity": 92}, {"time": 1770, "pitch": 59, "duration": 2, "velocity": 85}, {"time": 1770, "pitch": 60, "duration": 3, "velocity": 86}, {"time": 1770, "pitch": 64, "duration": 3, "velocity": 82}, {"time": 1776, "pitch": 57, "duration": 5, "velocity": 82}, {"time": 1776, "pitch": 60, "duration": 5, "velocity": 97}, {"time": 1776, "pitch": 64, "duration": 5, "velocity": 92}, {"time": 1782, "pitch": 52, "duration": 12, "velocity": 71}, {"time": 1788, "pitch": 57, "duration": 7, "velocity": 83}, {"time": 1788, "pitch": 60, "duration": 6, "velocity": 107}, {"time": 1788, "pitch": 64, "duration": 7, "velocity": 97}, {"time": 1800, "pitch": 57, "duration": 7, "velocity": 85}, {"time": 1800, "pitch": 60, "duration": 6, "velocity": 107}, {"time": 1800, "pitch": 64, "duration": 5, "velocity": 93}, {"time": 1806, "pitch": 40, "duration": 25, "velocity": 78}, {"time": 1818, "pitch": 52, "duration": 4, "velocity": 93}, {"time": 1818, "pitch": 55, "duration": 3, "velocity": 89}, {"time": 1818, "pitch": 59, "duration": 4, "velocity": 82}, {"time": 1824, "pitch": 52, "duration": 5, "velocity": 81}, {"time": 1824, "pitch": 55, "duration": 5, "velocity": 93}, {"time": 1824, "pitch": 59, "duration": 5, "velocity": 89}, {"time": 1830, "pitch": 47, "duration": 23, "velocity": 68}, {"time": 1836, "pitch": 52, "duration": 6, "velocity": 88}, {"time": 1836, "pitch": 55, "duration": 6, "velocity": 95}, {"time": 1836, "pitch": 59, "duration": 6, "velocity": 93}, {"time": 1848, "pitch": 52, "duration": 4, "velocity": 95}, {"time": 1848, "pitch": 55, "duration": 4, "velocity": 93}, {"time": 1848, "pitch": 59, "duration": 6, "velocity": 93}, {"time": 1854, "pitch": 41, "duration": 24, "velocity": 73}, {"time": 1866, "pitch": 53, "duration": 3, "velocity": 95}, {"time": 1866, "pitch": 57, "duration": 3, "velocity": 99}, {"time": 1866, "pitch": 60, "duration": 3, "velocity": 97}, {"time": 1872, "pitch": 53, "duration": 4, "velocity": 70}, {"time": 1872, "pitch": 57, "duration": 4, "velocity": 86}, {"time": 1872, "pitch": 60, "duration": 5, "velocity": 76}, {"time": 1878, "pitch": 48, "duration": 24, "velocity": 71}, {"time": 1884, "pitch": 53, "duration": 6, "velocity": 93}, {"time": 1884, "pitch": 57, "duration": 6, "velocity": 99}, {"time": 1884, "pitch": 60, "duration": 7, "velocity": 95}, {"time": 1896, "pitch": 53, "duration": 5, "velocity": 95}, {"time": 1896, "pitch": 57, "duration": 5, "velocity": 97}, {"time": 1896, "pitch": 60, "duration": 6, "velocity": 95}, {"time": 1902, "pitch": 40, "duration": 21, "velocity": 93}, {"time": 1914, "pitch": 59, "duration": 3, "velocity": 97}, {"time": 1914, "pitch": 64, "duration": 3, "velocity": 99}, {"time": 1914, "pitch": 67, "duration": 3, "velocity": 90}, {"time": 1920, "pitch": 59, "duration": 5, "velocity": 86}, {"time": 1920, "pitch": 64, "duration": 5, "velocity": 97}, {"time": 1920, "pitch": 67, "duration": 5, "velocity": 89}, {"time": 1926, "pitch": 52, "duration": 20, "velocity": 88}, {"time": 1932, "pitch": 59, "duration": 9, "velocity": 92}, {"time": 1932, "pitch": 64, "duration": 8, "velocity": 96}, {"time": 1932, "pitch": 67, "duration": 9, "velocity": 86}, {"time": 1944, "pitch": 59, "duration": 6, "velocity": 97}, {"time": 1944, "pitch": 64, "duration": 5, "velocity": 97}, {"time": 1944, "pitch": 67, "duration": 5, "velocity": 95}, {"time": 1950, "pitch": 38, "duration": 20, "velocity": 83}, {"time": 1962, "pitch": 57, "duration": 3, "velocity": 92}, {"time": 1962, "pitch": 62, "duration": 3, "velocity": 99}, {"time": 1962, "pitch": 65, "duration": 3, "velocity": 90}, {"time": 1968, "pitch": 57, "duration": 4, "velocity": 86}, {"time": 1968, "pitch": 62, "duration": 4, "velocity": 99}, {"time": 1968, "pitch": 65, "duration": 4, "velocity": 93}, {"time": 1974, "pitch": 50, "duration": 20, "velocity": 89}, {"time": 1980, "pitch": 57, "duration": 7, "velocity": 99}, {"time": 1980, "pitch": 62, "duration": 6, "velocity": 107}, {"time": 1980, "pitch": 65, "duration": 7, "velocity": 107}, {"time": 1992, "pitch": 57, "duration": 7, "velocity": 96}, {"time": 1992, "pitch": 62, "duration": 5, "velocity": 102}, {"time": 1992, "pitch": 65, "duration": 6, "velocity": 95}, {"time": 1998, "pitch": 43, "duration": 25, "velocity": 86}, {"time": 2010, "pitch": 55, "duration": 3, "velocity": 97}, {"time": 2010, "pitch": 59, "duration": 3, "velocity": 100}, {"time": 2010, "pitch": 62, "duration": 3, "velocity": 93}, {"time": 2016, "pitch": 55, "duration": 5, "velocity": 79}, {"time": 2016, "pitch": 59, "duration": 4, "velocity": 96}, {"time": 2016, "pitch": 62, "duration": 5, "velocity": 93}, {"time": 2022, "pitch": 50, "duration": 20, "velocity": 81}, {"time": 2028, "pitch": 55, "duration": 5, "velocity": 96}, {"time": 2028, "pitch": 59, "duration": 5, "velocity": 99}, {"time": 2028, "pitch": 62, "duration": 5, "velocity": 99}, {"time": 2040, "pitch": 55, "duration": 4, "velocity": 100}, {"time": 2040, "pitch": 59, "duration": 4, "velocity": 102}, {"time": 2040, "pitch": 62, "duration": 5, "velocity": 100}, {"time": 2046, "pitch": 36, "duration": 17, "velocity": 112}, {"time": 2046, "pitch": 38, "duration": 1, "velocity": 86}, {"time": 2058, "pitch": 55, "duration": 3, "velocity": 92}, {"time": 2058, "pitch": 60, "duration": 3, "velocity": 95}, {"time": 2058, "pitch": 64, "duration": 3, "velocity": 86}, {"time": 2064, "pitch": 55, "duration": 6, "velocity": 79}, {"time": 2064, "pitch": 60, "duration": 6, "velocity": 90}, {"time": 2064, "pitch": 64, "duration": 6, "velocity": 82}, {"time": 2070, "pitch": 43, "duration": 20, "velocity": 45}, {"time": 2070, "pitch": 48, "duration": 13, "velocity": 74}, {"time": 2076, "pitch": 55, "duration": 6, "velocity": 89}, {"time": 2076, "pitch": 60, "duration": 6, "velocity": 96}, {"time": 2076, "pitch": 64, "duration": 6, "velocity": 89}, {"time": 2088, "pitch": 55, "duration": 6, "velocity": 100}, {"time": 2088, "pitch": 60, "duration": 6, "velocity": 100}, {"time": 2088, "pitch": 64, "duration": 8, "velocity": 95}, {"time": 2094, "pitch": 36, "duration": 21, "velocity": 92}, {"time": 2106, "pitch": 55, "duration": 4, "velocity": 93}, {"time": 2106, "pitch": 60, "duration": 3, "velocity": 96}, {"time": 2106, "pitch": 64, "duration": 4, "velocity": 86}, {"time": 2112, "pitch": 55, "duration": 4, "velocity": 77}, {"time": 2112, "pitch": 60, "duration": 5, "velocity": 89}, {"time": 2112, "pitch": 64, "duration": 5, "velocity": 79}, {"time": 2118, "pitch": 48, "duration": 21, "velocity": 97}, {"time": 2124, "pitch": 55, "duration": 5, "velocity": 99}, {"time": 2124, "pitch": 60, "duration": 5, "velocity": 107}, {"time": 2124, "pitch": 64, "duration": 5, "velocity": 96}, {"time": 2136, "pitch": 55, "duration": 7, "velocity": 100}, {"time": 2136, "pitch": 60, "duration": 6, "velocity": 117}, {"time": 2136, "pitch": 64, "duration": 11, "velocity": 96}, {"time": 2142, "pitch": 36, "duration": 23, "velocity": 69}, {"time": 2154, "pitch": 55, "duration": 4, "velocity": 90}, {"time": 2154, "pitch": 60, "duration": 3, "velocity": 97}, {"time": 2154, "pitch": 64, "duration": 3, "velocity": 95}, {"time": 2160, "pitch": 55, "duration": 7, "velocity": 77}, {"time": 2160, "pitch": 60, "duration": 6, "velocity": 86}, {"time": 2160, "pitch": 64, "duration": 6, "velocity": 77}, {"time": 2166, "pitch": 43, "duration": 21, "velocity": 40}, {"time": 2166, "pitch": 48, "duration": 19, "velocity": 77}, {"time": 2172, "pitch": 55, "duration": 7, "velocity": 97}, {"time": 2172, "pitch": 60, "duration": 6, "velocity": 99}, {"time": 2172, "pitch": 64, "duration": 7, "velocity": 86}, {"time": 2184, "pitch": 55, "duration": 3, "velocity": 102}, {"time": 2184, "pitch": 60, "duration": 3, "velocity": 112}, {"time": 2184, "pitch": 64, "duration": 3, "velocity": 99}, {"time": 2190, "pitch": 36, "duration": 7, "velocity": 73}, {"time": 2190, "pitch": 43, "duration": 7, "velocity": 100}, {"time": 2190, "pitch": 48, "duration": 7, "velocity": 122}, {"time": 2190, "pitch": 55, "duration": 6, "velocity": 117}, {"time": 2190, "pitch": 60, "duration": 6, "velocity": 122}, {"time": 2190, "pitch": 64, "duration": 6, "velocity": 102}, {"time": 2238, "pitch": 36, "duration": 43, "velocity": 102}, {"time": 2250, "pitch": 55, "duration": 3, "velocity": 100}, {"time": 2250, "pitch": 60, "duration": 2, "velocity": 99}, {"time": 2250, "pitch": 64, "duration": 3, "velocity": 90}, {"time": 2256, "pitch": 55, "duration": 16, "velocity": 75}, {"time": 2256, "pitch": 60, "duration": 15, "velocity": 85}, {"time": 2256, "pitch": 64, "duration": 15, "velocity": 79}, {"time": 2262, "pitch": 48, "duration": 22, "velocity": 112}, {"time": 2274, "pitch": 60, "duration": 8, "velocity": 107}, {"time": 2274, "pitch": 64, "duration": 11, "velocity": 99}, {"time": 2280, "pitch": 55, "duration": 6, "velocity": 95}, {"time": 2286, "pitch": 43, "duration": 25, "velocity": 95}, {"time": 2298, "pitch": 55, "duration": 3, "velocity": 107}, {"time": 2298, "pitch": 59, "duration": 3, "velocity": 122}, {"time": 2298, "pitch": 62, "duration": 3, "velocity": 96}, {"time": 2304, "pitch": 55, "duration": 9, "velocity": 76}, {"time": 2304, "pitch": 59, "duration": 9, "velocity": 92}, {"time": 2304, "pitch": 62, "duration": 13, "velocity": 86}, {"time": 2310, "pitch": 50, "duration": 21, "velocity": 97}, {"time": 2322, "pitch": 59, "duration": 8, "velocity": 99}, {"time": 2322, "pitch": 62, "duration": 11, "velocity": 97}, {"time": 2328, "pitch": 55, "duration": 6, "velocity": 86}, {"time": 2334, "pitch": 45, "duration": 23, "velocity": 100}, {"time": 2346, "pitch": 57, "duration": 3, "velocity": 100}, {"time": 2346, "pitch": 60, "duration": 3, "velocity": 99}, {"time": 2346, "pitch": 64, "duration": 4, "velocity": 93}, {"time": 2352, "pitch": 57, "duration": 6, "velocity": 83}, {"time": 2352, "pitch": 60, "duration": 6, "velocity": 89}, {"time": 2352, "pitch": 64, "duration": 7, "velocity": 85}, {"time": 2358, "pitch": 52, "duration": 16, "velocity": 100}, {"time": 2370, "pitch": 60, "duration": 8, "velocity": 107}, {"time": 2370, "pitch": 64, "duration": 10, "velocity": 100}, {"time": 2376, "pitch": 57, "duration": 6, "velocity": 107}, {"time": 2382, "pitch": 40, "duration": 24, "velocity": 107}, {"time": 2394, "pitch": 55, "duration": 8, "velocity": 107}, {"time": 2394, "pitch": 59, "duration": 10, "velocity": 99}, {"time": 2400, "pitch": 52, "duration": 4, "velocity": 122}, {"time": 2406, "pitch": 47, "duration": 24, "velocity": 107}, {"time": 2412, "pitch": 55, "duration": 6, "velocity": 93}, {"time": 2412, "pitch": 59, "duration": 7, "velocity": 96}, {"time": 2418, "pitch": 52, "duration": 8, "velocity": 100}, {"time": 2424, "pitch": 55, "duration": 5, "velocity": 107}, {"time": 2424, "pitch": 59, "duration": 5, "velocity": 97}, {"time": 2430, "pitch": 41, "duration": 27, "velocity": 92}, {"time": 2442, "pitch": 53, "duration": 3, "velocity": 93}, {"time": 2442, "pitch": 57, "duration": 3, "velocity": 97}, {"time": 2442, "pitch": 60, "duration": 4, "velocity": 100}, {"time": 2448, "pitch": 53, "duration": 4, "velocity": 88}, {"time": 2448, "pitch": 57, "duration": 5, "velocity": 95}, {"time": 2448, "pitch": 60, "duration": 6, "velocity": 79}, {"time": 2454, "pitch": 48, "duration": 15, "velocity": 99}, {"time": 2466, "pitch": 57, "duration": 8, "velocity": 117}, {"time": 2466, "pitch": 60, "duration": 10, "velocity": 117}, {"time": 2472, "pitch": 53, "duration": 6, "velocity": 102}, {"time": 2478, "pitch": 40, "duration": 16, "velocity": 102}, {"time": 2490, "pitch": 55, "duration": 7, "velocity": 107}, {"time": 2490, "pitch": 59, "duration": 10, "velocity": 100}, {"time": 2496, "pitch": 52, "duration": 6, "velocity": 97}, {"time": 2502, "pitch": 40, "duration": 21, "velocity": 102}, {"time": 2508, "pitch": 55, "duration": 6, "velocity": 100}, {"time": 2508, "pitch": 59, "duration": 8, "velocity": 102}, {"time": 2514, "pitch": 52, "duration": 8, "velocity": 99}, {"time": 2520, "pitch": 55, "duration": 4, "velocity": 100}, {"time": 2520, "pitch": 59, "duration": 5, "velocity": 107}, {"time": 2526, "pitch": 38, "duration": 20, "velocity": 96}, {"time": 2538, "pitch": 57, "duration": 3, "velocity": 93}, {"time": 2538, "pitch": 62, "duration": 4, "velocity": 117}, {"time": 2544, "pitch": 57, "duration": 6, "velocity": 90}, {"time": 2544, "pitch": 62, "duration": 6, "velocity": 96}, {"time": 2544, "pitch": 65, "duration": 6, "velocity": 99}, {"time": 2550, "pitch": 45, "duration": 12, "velocity": 27}, {"time": 2550, "pitch": 50, "duration": 22, "velocity": 99}, {"time": 2562, "pitch": 62, "duration": 10, "velocity": 122}, {"time": 2562, "pitch": 65, "duration": 9, "velocity": 122}, {"time": 2568, "pitch": 57, "duration": 6, "velocity": 93}, {"time": 2568, "pitch": 59, "duration": 3, "velocity": 81}, {"time": 2574, "pitch": 43, "duration": 36, "velocity": 96}, {"time": 2586, "pitch": 55, "duration": 2, "velocity": 92}, {"time": 2586, "pitch": 59, "duration": 3, "velocity": 112}, {"time": 2586, "pitch": 62, "duration": 5, "velocity": 100}, {"time": 2592, "pitch": 59, "duration": 6, "velocity": 82}, {"time": 2592, "pitch": 62, "duration": 7, "velocity": 72}, {"time": 2598, "pitch": 50, "duration": 13, "velocity": 99}, {"time": 2604, "pitch": 59, "duration": 6, "velocity": 107}, {"time": 2604, "pitch": 62, "duration": 8, "velocity": 107}, {"time": 2610, "pitch": 55, "duration": 12, "velocity": 99}, {"time": 2616, "pitch": 59, "duration": 6, "velocity": 100}, {"time": 2616, "pitch": 62, "duration": 7, "velocity": 100}, {"time": 2622, "pitch": 36, "duration": 20, "velocity": 95}, {"time": 2634, "pitch": 55, "duration": 3, "velocity": 99}, {"time": 2634, "pitch": 60, "duration": 3, "velocity": 107}, {"time": 2634, "pitch": 64, "duration": 3, "velocity": 99}, {"time": 2640, "pitch": 55, "duration": 5, "velocity": 75}, {"time": 2640, "pitch": 60, "duration": 6, "velocity": 100}, {"time": 2640, "pitch": 64, "duration": 6, "velocity": 90}, {"time": 2646, "pitch": 48, "duration": 23, "velocity": 97}, {"time": 2658, "pitch": 60, "duration": 9, "velocity": 127}, {"time": 2658, "pitch": 64, "duration": 7, "velocity": 107}, {"time": 2664, "pitch": 55, "duration": 7, "velocity": 99}, {"time": 2670, "pitch": 43, "duration": 20, "velocity": 100}, {"time": 2682, "pitch": 59, "duration": 3, "velocity": 117}, {"time": 2682, "pitch": 62, "duration": 4, "velocity": 102}, {"time": 2688, "pitch": 47, "duration": 6, "velocity": 35}, {"time": 2688, "pitch": 55, "duration": 5, "velocity": 112}, {"time": 2688, "pitch": 59, "duration": 4, "velocity": 73}, {"time": 2688, "pitch": 62, "duration": 5, "velocity": 79}, {"time": 2694, "pitch": 50, "duration": 23, "velocity": 99}, {"time": 2700, "pitch": 59, "duration": 6, "velocity": 107}, {"time": 2700, "pitch": 62, "duration": 5, "velocity": 100}, {"time": 2712, "pitch": 59, "duration": 6, "velocity": 107}, {"time": 2712, "pitch": 62, "duration": 7, "velocity": 112}, {"time": 2718, "pitch": 45, "duration": 20, "velocity": 96}, {"time": 2730, "pitch": 57, "duration": 4, "velocity": 95}, {"time": 2730, "pitch": 60, "duration": 3, "velocity": 107}, {"time": 2730, "pitch": 64, "duration": 3, "velocity": 97}, {"time": 2736, "pitch": 48, "duration": 5, "velocity": 32}, {"time": 2736, "pitch": 57, "duration": 5, "velocity": 67}, {"time": 2736, "pitch": 60, "duration": 6, "velocity": 93}, {"time": 2736, "pitch": 64, "duration": 6, "velocity": 86}, {"time": 2742, "pitch": 52, "duration": 14, "velocity": 97}, {"time": 2754, "pitch": 60, "duration": 9, "velocity": 127}, {"time": 2754, "pitch": 64, "duration": 8, "velocity": 107}, {"time": 2760, "pitch": 57, "duration": 6, "velocity": 92}, {"time": 2766, "pitch": 40, "duration": 24, "velocity": 95}, {"time": 2778, "pitch": 52, "duration": 2, "velocity": 81}, {"time": 2778, "pitch": 55, "duration": 3, "velocity": 96}, {"time": 2778, "pitch": 59, "duration": 4, "velocity": 90}, {"time": 2784, "pitch": 52, "duration": 5, "velocity": 97}, {"time": 2784, "pitch": 55, "duration": 4, "velocity": 92}, {"time": 2784, "pitch": 59, "duration": 6, "velocity": 81}, {"time": 2790, "pitch": 47, "duration": 22, "velocity": 86}, {"time": 2796, "pitch": 55, "duration": 8, "velocity": 96}, {"time": 2796, "pitch": 59, "duration": 8, "velocity": 92}, {"time": 2808, "pitch": 55, "duration": 4, "velocity": 97}, {"time": 2808, "pitch": 59, "duration": 6, "velocity": 97}, {"time": 2814, "pitch": 41, "duration": 20, "velocity": 92}, {"time": 2826, "pitch": 53, "duration": 3, "velocity": 95}, {"time": 2826, "pitch": 57, "duration": 3, "velocity": 100}, {"time": 2826, "pitch": 60, "duration": 4, "velocity": 100}, {"time": 2832, "pitch": 53, "duration": 6, "velocity": 81}, {"time": 2832, "pitch": 57, "duration": 6, "velocity": 97}, {"time": 2832, "pitch": 60, "duration": 6, "velocity": 88}, {"time": 2838, "pitch": 41, "duration": 2, "velocity": 38}, {"time": 2838, "pitch": 47, "duration": 16, "velocity": 54}, {"time": 2850, "pitch": 53, "duration": 4, "velocity": 96}, {"time": 2850, "pitch": 57, "duration": 5, "velocity": 99}, {"time": 2850, "pitch": 60, "duration": 6, "velocity": 96}, {"time": 2862, "pitch": 40, "duration": 19, "velocity": 107}, {"time": 2874, "pitch": 52, "duration": 3, "velocity": 89}, {"time": 2874, "pitch": 55, "duration": 3, "velocity": 99}, {"time": 2874, "pitch": 59, "duration": 3, "velocity": 90}, {"time": 2880, "pitch": 43, "duration": 5, "velocity": 34}, {"time": 2880, "pitch": 52, "duration": 4, "velocity": 74}, {"time": 2880, "pitch": 55, "duration": 5, "velocity": 90}, {"time": 2880, "pitch": 59, "duration": 5, "velocity": 82}, {"time": 2886, "pitch": 47, "duration": 19, "velocity": 95}, {"time": 2898, "pitch": 55, "duration": 8, "velocity": 99}, {"time": 2898, "pitch": 59, "duration": 10, "velocity": 97}, {"time": 2904, "pitch": 52, "duration": 4, "velocity": 89}, {"time": 2910, "pitch": 43, "duration": 6, "velocity": 66}, {"time": 2910, "pitch": 50, "duration": 7, "velocity": 89}, {"time": 2910, "pitch": 55, "duration": 7, "velocity": 102}, {"time": 2910, "pitch": 59, "duration": 7, "velocity": 102}, {"time": 2910, "pitch": 62, "duration": 7, "velocity": 97}, {"time": 2934, "pitch": 43, "duration": 6, "velocity": 77}, {"time": 2934, "pitch": 50, "duration": 6, "velocity": 102}, {"time": 2934, "pitch": 55, "duration": 7, "velocity": 97}, {"time": 2934, "pitch": 59, "duration": 7, "velocity": 102}, {"time": 2934, "pitch": 62, "duration": 8, "velocity": 97}, {"time": 2958, "pitch": 43, "duration": 6, "velocity": 70}, {"time": 2958, "pitch": 50, "duration": 5, "velocity": 99}, {"time": 2958, "pitch": 55, "duration": 5, "velocity": 102}, {"time": 2958, "pitch": 59, "duration": 5, "velocity": 112}, {"time": 2958, "pitch": 62, "duration": 6, "velocity": 100}, {"time": 2982, "pitch": 43, "duration": 4, "velocity": 79}, {"time": 2982, "pitch": 50, "duration": 4, "velocity": 107}, {"time": 2982, "pitch": 55, "duration": 4, "velocity": 100}, {"time": 2982, "pitch": 59, "duration": 4, "velocity": 117}, {"time": 2982, "pitch": 62, "duration": 5, "velocity": 102}, {"time": 3006, "pitch": 43, "duration": 4, "velocity": 78}, {"time": 3006, "pitch": 50, "duration": 4, "velocity": 117}, {"time": 3006, "pitch": 55, "duration": 3, "velocity": 102}, {"time": 3006, "pitch": 59, "duration": 4, "velocity": 112}, {"time": 3006, "pitch": 62, "duration": 4, "velocity": 100}, {"time": 3024, "pitch": 43, "duration": 2, "velocity": 69}, {"time": 3024, "pitch": 50, "duration": 3, "velocity": 100}, {"time": 3024, "pitch": 55, "duration": 2, "velocity": 112}, {"time": 3024, "pitch": 59, "duration": 2, "velocity": 112}, {"time": 3024, "pitch": 62, "duration": 3, "velocity": 102}, {"time": 3030, "pitch": 43, "duration": 3, "velocity": 89}, {"time": 3030, "pitch": 50, "duration": 3, "velocity": 92}, {"time": 3030, "pitch": 55, "duration": 3, "velocity": 92}, {"time": 3030, "pitch": 59, "duration": 3, "velocity": 97}, {"time": 3030, "pitch": 62, "duration": 3, "velocity": 95}, {"time": 3039, "pitch": 43, "duration": 3, "velocity": 96}, {"time": 3039, "pitch": 50, "duration": 3, "velocity": 112}, {"time": 3039, "pitch": 55, "duration": 3, "velocity": 107}, {"time": 3039, "pitch": 59, "duration": 3, "velocity": 117}, {"time": 3039, "pitch": 62, "duration": 3, "velocity": 102}, {"time": 3048, "pitch": 43, "duration": 8, "velocity": 102}, {"time": 3048, "pitch": 50, "duration": 7, "velocity": 117}, {"time": 3048, "pitch": 55, "duration": 7, "velocity": 112}, {"time": 3048, "pitch": 59, "duration": 7, "velocity": 122}, {"time": 3048, "pitch": 62, "duration": 8, "velocity": 102}, {"time": 3102, "pitch": 36, "duration": 19, "velocity": 96}, {"time": 3114, "pitch": 55, "duration": 3, "velocity": 99}, {"time": 3114, "pitch": 60, "duration": 3, "velocity": 122}, {"time": 3114, "pitch": 64, "duration": 3, "velocity": 95}, {"time": 3120, "pitch": 55, "duration": 5, "velocity": 69}, {"time": 3120, "pitch": 60, "duration": 5, "velocity": 81}, {"time": 3120, "pitch": 64, "duration": 5, "velocity": 76}, {"time": 3126, "pitch": 48, "duration": 22, "velocity": 112}, {"time": 3132, "pitch": 60, "duration": 8, "velocity": 100}, {"time": 3132, "pitch": 64, "duration": 8, "velocity": 99}, {"time": 3144, "pitch": 55, "duration": 8, "velocity": 89}, {"time": 3144, "pitch": 60, "duration": 6, "velocity": 99}, {"time": 3144, "pitch": 64, "duration": 8, "velocity": 96}, {"time": 3150, "pitch": 43, "duration": 26, "velocity": 82}, {"time": 3162, "pitch": 55, "duration": 3, "velocity": 93}, {"time": 3162, "pitch": 59, "duration": 3, "velocity": 97}, {"time": 3162, "pitch": 62, "duration": 3, "velocity": 96}, {"time": 3168, "pitch": 55, "duration": 5, "velocity": 81}, {"time": 3168, "pitch": 59, "duration": 5, "velocity": 96}, {"time": 3168, "pitch": 62, "duration": 5, "velocity": 90}, {"time": 3174, "pitch": 50, "duration": 24, "velocity": 81}, {"time": 3180, "pitch": 55, "duration": 8, "velocity": 82}, {"time": 3180, "pitch": 59, "duration": 8, "velocity": 95}, {"time": 3180, "pitch": 62, "duration": 9, "velocity": 90}, {"time": 3192, "pitch": 55, "duration": 6, "velocity": 79}, {"time": 3192, "pitch": 59, "duration": 5, "velocity": 96}, {"time": 3192, "pitch": 62, "duration": 6, "velocity": 92}, {"time": 3198, "pitch": 45, "duration": 25, "velocity": 96}, {"time": 3210, "pitch": 57, "duration": 4, "velocity": 100}, {"time": 3210, "pitch": 60, "duration": 3, "velocity": 100}, {"time": 3210, "pitch": 64, "duration": 3, "velocity": 95}, {"time": 3216, "pitch": 57, "duration": 5, "velocity": 82}, {"time": 3216, "pitch": 60, "duration": 5, "velocity": 90}, {"time": 3216, "pitch": 64, "duration": 5, "velocity": 92}, {"time": 3222, "pitch": 52, "duration": 14, "velocity": 89}, {"time": 3228, "pitch": 57, "duration": 1, "velocity": 66}, {"time": 3228, "pitch": 60, "duration": 9, "velocity": 102}, {"time": 3228, "pitch": 64, "duration": 9, "velocity": 99}, {"time": 3240, "pitch": 57, "duration": 7, "velocity": 93}, {"time": 3240, "pitch": 60, "duration": 6, "velocity": 102}, {"time": 3240, "pitch": 64, "duration": 7, "velocity": 95}, {"time": 3246, "pitch": 40, "duration": 24, "velocity": 78}, {"time": 3258, "pitch": 52, "duration": 4, "velocity": 83}, {"time": 3258, "pitch": 55, "duration": 3, "velocity": 95}, {"time": 3258, "pitch": 59, "duration": 4, "velocity": 90}, {"time": 3264, "pitch": 52, "duration": 4, "velocity": 72}, {"time": 3264, "pitch": 55, "duration": 5, "velocity": 88}, {"time": 3264, "pitch": 59, "duration": 5, "velocity": 82}, {"time": 3270, "pitch": 47, "duration": 22, "velocity": 90}, {"time": 3276, "pitch": 52, "duration": 8, "velocity": 89}, {"time": 3276, "pitch": 55, "duration": 8, "velocity": 100}, {"time": 3276, "pitch": 59, "duration": 8, "velocity": 97}, {"time": 3288, "pitch": 52, "duration": 4, "velocity": 83}, {"time": 3288, "pitch": 55, "duration": 5, "velocity": 95}, {"time": 3288, "pitch": 59, "duration": 6, "velocity": 95}, {"time": 3294, "pitch": 41, "duration": 25, "velocity": 95}, {"time": 3306, "pitch": 53, "duration": 4, "velocity": 97}, {"time": 3306, "pitch": 57, "duration": 3, "velocity": 107}, {"time": 3306, "pitch": 60, "duration": 3, "velocity": 95}, {"time": 3306, "pitch": 64, "duration": 3, "velocity": 72}, {"time": 3312, "pitch": 53, "duration": 5, "velocity": 78}, {"time": 3312, "pitch": 57, "duration": 4, "velocity": 88}, {"time": 3312, "pitch": 60, "duration": 4, "velocity": 88}, {"time": 3312, "pitch": 64, "duration": 5, "velocity": 76}, {"time": 3318, "pitch": 48, "duration": 21, "velocity": 85}, {"time": 3324, "pitch": 53, "duration": 7, "velocity": 93}, {"time": 3324, "pitch": 57, "duration": 7, "velocity": 93}, {"time": 3324, "pitch": 60, "duration": 8, "velocity": 93}, {"time": 3336, "pitch": 53, "duration": 7, "velocity": 93}, {"time": 3336, "pitch": 57, "duration": 5, "velocity": 97}, {"time": 3336, "pitch": 60, "duration": 6, "velocity": 97}, {"time": 3342, "pitch": 40, "duration": 24, "velocity": 95}, {"time": 3354, "pitch": 52, "duration": 3, "velocity": 96}, {"time": 3354, "pitch": 55, "duration": 3, "velocity": 97}, {"time": 3354, "pitch": 59, "duration": 3, "velocity": 89}, {"time": 3360, "pitch": 52, "duration": 5, "velocity": 71}, {"time": 3360, "pitch": 55, "duration": 5, "velocity": 83}, {"time": 3360, "pitch": 59, "duration": 5, "velocity": 83}, {"time": 3366, "pitch": 47, "duration": 17, "velocity": 88}, {"time": 3372, "pitch": 52, "duration": 8, "velocity": 95}, {"time": 3372, "pitch": 55, "duration": 8, "velocity": 97}, {"time": 3372, "pitch": 59, "duration": 9, "velocity": 99}, {"time": 3384, "pitch": 52, "duration": 4, "velocity": 90}, {"time": 3384, "pitch": 55, "duration": 4, "velocity": 95}, {"time": 3384, "pitch": 59, "duration": 5, "velocity": 89}, {"time": 3390, "pitch": 38, "duration": 22, "velocity": 89}, {"time": 3402, "pitch": 57, "duration": 4, "velocity": 100}, {"time": 3402, "pitch": 62, "duration": 3, "velocity": 122}, {"time": 3402, "pitch": 65, "duration": 4, "velocity": 100}, {"time": 3408, "pitch": 45, "duration": 8, "velocity": 27}, {"time": 3408, "pitch": 57, "duration": 6, "velocity": 75}, {"time": 3408, "pitch": 62, "duration": 5, "velocity": 96}, {"time": 3408, "pitch": 65, "duration": 5, "velocity": 88}, {"time": 3414, "pitch": 50, "duration": 22, "velocity": 81}, {"time": 3420, "pitch": 57, "duration": 8, "velocity": 89}, {"time": 3420, "pitch": 62, "duration": 7, "velocity": 100}, {"time": 3420, "pitch": 65, "duration": 7, "velocity": 97}, {"time": 3432, "pitch": 57, "duration": 7, "velocity": 93}, {"time": 3432, "pitch": 62, "duration": 6, "velocity": 102}, {"time": 3432, "pitch": 65, "duration": 5, "velocity": 95}, {"time": 3438, "pitch": 43, "duration": 25, "velocity": 85}, {"time": 3450, "pitch": 55, "duration": 3, "velocity": 102}, {"time": 3450, "pitch": 59, "duration": 3, "velocity": 112}, {"time": 3450, "pitch": 61, "duration": 1, "velocity": 95}, {"time": 3450, "pitch": 62, "duration": 3, "velocity": 100}, {"time": 3456, "pitch": 55, "duration": 5, "velocity": 88}, {"time": 3456, "pitch": 59, "duration": 4, "velocity": 96}, {"time": 3456, "pitch": 62, "duration": 5, "velocity": 92}, {"time": 3462, "pitch": 50, "duration": 12, "velocity": 96}, {"time": 3468, "pitch": 55, "duration": 6, "velocity": 96}, {"time": 3468, "pitch": 59, "duration": 6, "velocity": 100}, {"time": 3468, "pitch": 62, "duration": 7, "velocity": 100}, {"time": 3480, "pitch": 55, "duration": 6, "velocity": 93}, {"time": 3480, "pitch": 59, "duration": 6, "velocity": 99}, {"time": 3480, "pitch": 62, "duration": 6, "velocity": 97}, {"time": 3486, "pitch": 36, "duration": 23, "velocity": 89}, {"time": 3498, "pitch": 55, "duration": 4, "velocity": 99}, {"time": 3498, "pitch": 60, "duration": 3, "velocity": 122}, {"time": 3498, "pitch": 64, "duration": 3, "velocity": 97}, {"time": 3504, "pitch": 55, "duration": 5, "velocity": 73}, {"time": 3504, "pitch": 60, "duration": 5, "velocity": 97}, {"time": 3504, "pitch": 64, "duration": 4, "velocity": 90}, {"time": 3510, "pitch": 48, "duration": 22, "velocity": 92}, {"time": 3516, "pitch": 55, "duration": 7, "velocity": 95}, {"time": 3516, "pitch": 60, "duration": 7, "velocity": 112}, {"time": 3516, "pitch": 64, "duration": 7, "velocity": 97}, {"time": 3528, "pitch": 55, "duration": 7, "velocity": 93}, {"time": 3528, "pitch": 60, "duration": 8, "velocity": 117}, {"time": 3528, "pitch": 64, "duration": 5, "velocity": 96}, {"time": 3534, "pitch": 43, "duration": 32, "velocity": 89}, {"time": 3546, "pitch": 55, "duration": 4, "velocity": 95}, {"time": 3546, "pitch": 59, "duration": 3, "velocity": 95}, {"time": 3546, "pitch": 62, "duration": 3, "velocity": 95}, {"time": 3552, "pitch": 55, "duration": 6, "velocity": 72}, {"time": 3552, "pitch": 59, "duration": 5, "velocity": 88}, {"time": 3552, "pitch": 62, "duration": 5, "velocity": 83}, {"time": 3558, "pitch": 50, "duration": 24, "velocity": 73}, {"time": 3564, "pitch": 55, "duration": 4, "velocity": 92}, {"time": 3564, "pitch": 59, "duration": 4, "velocity": 97}, {"time": 3564, "pitch": 62, "duration": 4, "velocity": 92}, {"time": 3576, "pitch": 55, "duration": 6, "velocity": 92}, {"time": 3576, "pitch": 59, "duration": 6, "velocity": 100}, {"time": 3576, "pitch": 62, "duration": 6, "velocity": 93}, {"time": 3582, "pitch": 45, "duration": 26, "velocity": 76}, {"time": 3594, "pitch": 57, "duration": 3, "velocity": 92}, {"time": 3594, "pitch": 59, "duration": 2, "velocity": 85}, {"time": 3594, "pitch": 60, "duration": 3, "velocity": 86}, {"time": 3594, "pitch": 64, "duration": 3, "velocity": 82}, {"time": 3600, "pitch": 57, "duration": 5, "velocity": 82}, {"time": 3600, "pitch": 60, "duration": 5, "velocity": 97}, {"time": 3600, "pitch": 64, "duration": 5, "velocity": 92}, {"time": 3606, "pitch": 52, "duration": 12, "velocity": 71}, {"time": 3612, "pitch": 57, "duration": 7, "velocity": 83}, {"time": 3612, "pitch": 60, "duration": 6, "velocity": 107}, {"time": 3612, "pitch": 64, "duration": 7, "velocity": 97}, {"time": 3624, "pitch": 57, "duration": 7, "velocity": 85}, {"time": 3624, "pitch": 60, "duration": 6, "velocity": 107}, {"time": 3624, "pitch": 64, "duration": 5, "velocity": 93}, {"time": 3630, "pitch": 40, "duration": 25, "velocity": 78}, {"time": 3642, "pitch": 52, "duration": 4, "velocity": 93}, {"time": 3642, "pitch": 55, "duration": 3, "velocity": 89}, {"time": 3642, "pitch": 59, "duration": 4, "velocity": 82}, {"time": 3648, "pitch": 52, "duration": 5, "velocity": 81}, {"time": 3648, "pitch": 55, "duration": 5, "velocity": 93}, {"time": 3648, "pitch": 59, "duration": 5, "velocity": 89}, {"time": 3654, "pitch": 47, "duration": 23, "velocity": 68}, {"time": 3660, "pitch": 52, "duration": 6, "velocity": 88}, {"time": 3660, "pitch": 55, "duration": 6, "velocity": 95}, {"time": 3660, "pitch": 59, "duration": 6, "velocity": 93}, {"time": 3672, "pitch": 52, "duration": 4, "velocity": 95}, {"time": 3672, "pitch": 55, "duration": 4, "velocity": 93}, {"time": 3672, "pitch": 59, "duration": 6, "velocity": 93}, {"time": 3678, "pitch": 41, "duration": 24, "velocity": 73}, {"time": 3690, "pitch": 53, "duration": 3, "velocity": 95}, {"time": 3690, "pitch": 57, "duration": 3, "velocity": 99}, {"time": 3690, "pitch": 60, "duration": 3, "velocity": 97}, {"time": 3696, "pitch": 53, "duration": 4, "velocity": 70}, {"time": 3696, "pitch": 57, "duration": 4, "velocity": 86}, {"time": 3696, "pitch": 60, "duration": 5, "velocity": 76}, {"time": 3702, "pitch": 48, "duration": 24, "velocity": 71}, {"time": 3708, "pitch": 53, "duration": 6, "velocity": 93}, {"time": 3708, "pitch": 57, "duration": 6, "velocity": 99}, {"time": 3708, "pitch": 60, "duration": 7, "velocity": 95}, {"time": 3720, "pitch": 53, "duration": 5, "velocity": 95}, {"time": 3720, "pitch": 57, "duration": 5, "velocity": 97}, {"time": 3720, "pitch": 60, "duration": 6, "velocity": 95}, {"time": 3726, "pitch": 40, "duration": 21, "velocity": 93}, {"time": 3738, "pitch": 59, "duration": 3, "velocity": 97}, {"time": 3738, "pitch": 64, "duration": 3, "velocity": 99}, {"time": 3738, "pitch": 67, "duration": 3, "velocity": 90}, {"time": 3744, "pitch": 59, "duration": 5, "velocity": 86}, {"time": 3744, "pitch": 64, "duration": 5, "velocity": 97}, {"time": 3744, "pitch": 67, "duration": 5, "velocity": 89}, {"time": 3750, "pitch": 52, "duration": 20, "velocity": 88}, {"time": 3756, "pitch": 59, "duration": 9, "velocity": 92}, {"time": 3756, "pitch": 64, "duration": 8, "velocity": 96}, {"time": 3756, "pitch": 67, "duration": 9, "velocity": 86}, {"time": 3768, "pitch": 59, "duration": 6, "velocity": 97}, {"time": 3768, "pitch": 64, "duration": 5, "velocity": 97}, {"time": 3768, "pitch": 67, "duration": 5, "velocity": 95}, {"time": 3774, "pitch": 38, "duration": 20, "velocity": 83}, {"time": 3786, "pitch": 57, "duration": 3, "velocity": 92}, {"time": 3786, "pitch": 62, "duration": 3, "velocity": 99}, {"time": 3786, "pitch": 65, "duration": 3, "velocity": 90}, {"time": 3792, "pitch": 57, "duration": 4, "velocity": 86}, {"time": 3792, "pitch": 62, "duration": 4, "velocity": 99}, {"time": 3792, "pitch": 65, "duration": 4, "velocity": 93}, {"time": 3798, "pitch": 50, "duration": 20, "velocity": 89}, {"time": 3804, "pitch": 57, "duration": 7, "velocity": 99}, {"time": 3804, "pitch": 62, "duration": 6, "velocity": 107}, {"time": 3804, "pitch": 65, "duration": 7, "velocity": 107}, {"time": 3816, "pitch": 57, "duration": 7, "velocity": 96}, {"time": 3816, "pitch": 62, "duration": 5, "velocity": 102}, {"time": 3816, "pitch": 65, "duration": 6, "velocity": 95}, {"time": 3822, "pitch": 43, "duration": 25, "velocity": 86}, {"time": 3834, "pitch": 55, "duration": 3, "velocity": 97}, {"time": 3834, "pitch": 59, "duration": 3, "velocity": 100}, {"time": 3834, "pitch": 62, "duration": 3, "velocity": 93}, {"time": 3840, "pitch": 55, "duration": 5, "velocity": 79}, {"time": 3840, "pitch": 59, "duration": 4, "velocity": 96}, {"time": 3840, "pitch": 62, "duration": 5, "velocity": 93}, {"time": 3846, "pitch": 50, "duration": 20, "velocity": 81}, {"time": 3852, "pitch": 55, "duration": 5, "velocity": 96}, {"time": 3852, "pitch": 59, "duration": 5, "velocity": 99}, {"time": 3852, "pitch": 62, "duration": 5, "velocity": 99}, {"time": 3864, "pitch": 55, "duration": 4, "velocity": 100}, {"time": 3864, "pitch": 59, "duration": 4, "velocity": 102}, {"time": 3864, "pitch": 62, "duration": 5, "velocity": 100}, {"time": 3870, "pitch": 36, "duration": 17, "velocity": 112}, {"time": 3870, "pitch": 38, "duration": 1, "velocity": 86}, {"time": 3882, "pitch": 55, "duration": 3, "velocity": 92}, {"time": 3882, "pitch": 60, "duration": 3, "velocity": 95}, {"time": 3882, "pitch": 64, "duration": 3, "velocity": 86}, {"time": 3888, "pitch": 55, "duration": 6, "velocity": 79}, {"time": 3888, "pitch": 60, "duration": 6, "velocity": 90}, {"time": 3888, "pitch": 64, "duration": 6, "velocity": 82}, {"time": 3894, "pitch": 43, "duration": 20, "velocity": 45}, {"time": 3894, "pitch": 48, "duration": 13, "velocity": 74}, {"time": 3900, "pitch": 55, "duration": 6, "velocity": 89}, {"time": 3900, "pitch": 60, "duration": 6, "velocity": 96}, {"time": 3900, "pitch": 64, "duration": 6, "velocity": 89}, {"time": 3912, "pitch": 55, "duration": 6, "velocity": 100}, {"time": 3912, "pitch": 60, "duration": 6, "velocity": 100}, {"time": 3912, "pitch": 64, "duration": 8, "velocity": 95}, {"time": 3918, "pitch": 36, "duration": 21, "velocity": 92}, {"time": 3930, "pitch": 55, "duration": 4, "velocity": 93}, {"time": 3930, "pitch": 60, "duration": 3, "velocity": 96}, {"time": 3930, "pitch": 64, "duration": 4, "velocity": 86}, {"time": 3936, "pitch": 55, "duration": 4, "velocity": 77}, {"time": 3936, "pitch": 60, "duration": 5, "velocity": 89}, {"time": 3936, "pitch": 64, "duration": 5, "velocity": 79}, {"time": 3942, "pitch": 48, "duration": 21, "velocity": 97}, {"time": 3948, "pitch": 55, "duration": 5, "velocity": 99}, {"time": 3948, "pitch": 60, "duration": 5, "velocity": 107}, {"time": 3948, "pitch": 64, "duration": 5, "velocity": 96}, {"time": 3960, "pitch": 55, "duration": 7, "velocity": 100}, {"time": 3960, "pitch": 60, "duration": 6, "velocity": 117}, {"time": 3960, "pitch": 64, "duration": 11, "velocity": 96}, {"time": 3966, "pitch": 36, "duration": 23, "velocity": 69}, {"time": 3978, "pitch": 55, "duration": 4, "velocity": 90}, {"time": 3978, "pitch": 60, "duration": 3, "velocity": 97}, {"time": 3978, "pitch": 64, "duration": 3, "velocity": 95}, {"time": 3984, "pitch": 55, "duration": 7, "velocity": 77}, {"time": 3984, "pitch": 60, "duration": 6, "velocity": 86}, {"time": 3984, "pitch": 64, "duration": 6, "velocity": 77}, {"time": 3990, "pitch": 43, "duration": 21, "velocity": 40}, {"time": 3990, "pitch": 48, "duration": 19, "velocity": 77}, {"time": 3996, "pitch": 55, "duration": 7, "velocity": 97}, {"time": 3996, "pitch": 60, "duration": 6, "velocity": 99}, {"time": 3996, "pitch": 64, "duration": 7, "velocity": 86}, {"time": 4008, "pitch": 55, "duration": 3, "velocity": 102}, {"time": 4008, "pitch": 60, "duration": 3, "velocity": 112}, {"time": 4008, "pitch": 64, "duration": 3, "velocity": 99}, {"time": 4014, "pitch": 36, "duration": 7, "velocity": 73}, {"time": 4014, "pitch": 43, "duration": 7, "velocity": 100}, {"time": 4014, "pitch": 48, "duration": 7, "velocity": 122}, {"time": 4014, "pitch": 55, "duration": 6, "velocity": 117}, {"time": 4014, "pitch": 60, "duration": 6, "velocity": 122}, {"time": 4014, "pitch": 64, "duration": 6, "velocity": 102}, {"time": 4062, "pitch": 41, "duration": 18, "velocity": 78}, {"time": 4074, "pitch": 60, "duration": 4, "velocity": 102}, {"time": 4074, "pitch": 65, "duration": 3, "velocity": 97}, {"time": 4074, "pitch": 69, "duration": 4, "velocity": 93}, {"time": 4080, "pitch": 60, "duration": 5, "velocity": 69}, {"time": 4080, "pitch": 65, "duration": 5, "velocity": 72}, {"time": 4080, "pitch": 69, "duration": 5, "velocity": 72}, {"time": 4086, "pitch": 48, "duration": 25, "velocity": 47}, {"time": 4086, "pitch": 53, "duration": 21, "velocity": 89}, {"time": 4092, "pitch": 60, "duration": 5, "velocity": 93}, {"time": 4092, "pitch": 65, "duration": 4, "velocity": 99}, {"time": 4092, "pitch": 69, "duration": 5, "velocity": 88}, {"time": 4104, "pitch": 60, "duration": 5, "velocity": 100}, {"time": 4104, "pitch": 65, "duration": 4, "velocity": 99}, {"time": 4104, "pitch": 69, "duration": 6, "velocity": 96}, {"time": 4110, "pitch": 41, "duration": 21, "velocity": 69}, {"time": 4122, "pitch": 60, "duration": 4, "velocity": 95}, {"time": 4122, "pitch": 65, "duration": 3, "velocity": 96}, {"time": 4122, "pitch": 69, "duration": 4, "velocity": 88}, {"time": 4128, "pitch": 60, "duration": 5, "velocity": 68}, {"time": 4128, "pitch": 65, "duration": 4, "velocity": 82}, {"time": 4128, "pitch": 69, "duration": 5, "velocity": 78}, {"time": 4134, "pitch": 48, "duration": 10, "velocity": 31}, {"time": 4134, "pitch": 53, "duration": 9, "velocity": 78}, {"time": 4140, "pitch": 60, "duration": 8, "velocity": 96}, {"time": 4140, "pitch": 65, "duration": 6, "velocity": 100}, {"time": 4140, "pitch": 69, "duration": 8, "velocity": 92}, {"time": 4152, "pitch": 60, "duration": 7, "velocity": 95}, {"time": 4152, "pitch": 65, "duration": 4, "velocity": 99}, {"time": 4152, "pitch": 69, "duration": 5, "velocity": 93}, {"time": 4158, "pitch": 36, "duration": 19, "velocity": 79}, {"time": 4170, "pitch": 55, "duration": 4, "velocity": 95}, {"time": 4170, "pitch": 60, "duration": 3, "velocity": 97}, {"time": 4170, "pitch": 64, "duration": 4, "velocity": 83}, {"time": 4176, "pitch": 55, "duration": 6, "velocity": 54}, {"time": 4176, "pitch": 60, "duration": 5, "velocity": 71}, {"time": 4176, "pitch": 64, "duration": 5, "velocity": 59}, {"time": 4182, "pitch": 43, "duration": 23, "velocity": 45}, {"time": 4182, "pitch": 48, "duration": 11, "velocity": 81}, {"time": 4188, "pitch": 55, "duration": 7, "velocity": 89}, {"time": 4188, "pitch": 60, "duration": 6, "velocity": 96}, {"time": 4188, "pitch": 64, "duration": 7, "velocity": 81}, {"time": 4200, "pitch": 55, "duration": 6, "velocity": 97}, {"time": 4200, "pitch": 60, "duration": 5, "velocity": 99}, {"time": 4200, "pitch": 64, "duration": 7, "velocity": 92}, {"time": 4206, "pitch": 36, "duration": 21, "velocity": 71}, {"time": 4218, "pitch": 55, "duration": 4, "velocity": 86}, {"time": 4218, "pitch": 60, "duration": 3, "velocity": 96}, {"time": 4218, "pitch": 64, "duration": 4, "velocity": 90}, {"time": 4224, "pitch": 55, "duration": 5, "velocity": 64}, {"time": 4224, "pitch": 60, "duration": 5, "velocity": 81}, {"time": 4224, "pitch": 64, "duration": 5, "velocity": 77}, {"time": 4230, "pitch": 43, "duration": 11, "velocity": 50}, {"time": 4230, "pitch": 48, "duration": 9, "velocity": 100}, {"time": 4236, "pitch": 55, "duration": 7, "velocity": 93}, {"time": 4236, "pitch": 60, "duration": 7, "velocity": 99}, {"time": 4236, "pitch": 64, "duration": 6, "velocity": 93}, {"time": 4242, "pitch": 37, "duration": 8, "velocity": 117}, {"time": 4248, "pitch": 55, "duration": 3, "velocity": 90}, {"time": 4248, "pitch": 60, "duration": 4, "velocity": 97}, {"time": 4248, "pitch": 64, "duration": 3, "velocity": 82}, {"time": 4254, "pitch": 38, "duration": 23, "velocity": 81}, {"time": 4266, "pitch": 57, "duration": 4, "velocity": 102}, {"time": 4266, "pitch": 62, "duration": 3, "velocity": 112}, {"time": 4266, "pitch": 65, "duration": 3, "velocity": 99}, {"time": 4272, "pitch": 57, "duration": 5, "velocity": 76}, {"time": 4272, "pitch": 62, "duration": 5, "velocity": 102}, {"time": 4272, "pitch": 65, "duration": 5, "velocity": 97}, {"time": 4278, "pitch": 45, "duration": 24, "velocity": 47}, {"time": 4278, "pitch": 50, "duration": 10, "velocity": 95}, {"time": 4284, "pitch": 57, "duration": 5, "velocity": 89}, {"time": 4284, "pitch": 62, "duration": 6, "velocity": 99}, {"time": 4284, "pitch": 65, "duration": 6, "velocity": 92}, {"time": 4296, "pitch": 57, "duration": 5, "velocity": 96}, {"time": 4296, "pitch": 62, "duration": 5, "velocity": 112}, {"time": 4296, "pitch": 65, "duration": 6, "velocity": 99}, {"time": 4302, "pitch": 38, "duration": 22, "velocity": 82}, {"time": 4314, "pitch": 57, "duration": 4, "velocity": 96}, {"time": 4314, "pitch": 62, "duration": 3, "velocity": 102}, {"time": 4314, "pitch": 65, "duration": 4, "velocity": 96}, {"time": 4320, "pitch": 57, "duration": 5, "velocity": 71}, {"time": 4320, "pitch": 62, "duration": 5, "velocity": 77}, {"time": 4320, "pitch": 65, "duration": 5, "velocity": 72}, {"time": 4326, "pitch": 50, "duration": 20, "velocity": 96}, {"time": 4332, "pitch": 57, "duration": 7, "velocity": 89}, {"time": 4332, "pitch": 62, "duration": 7, "velocity": 97}, {"time": 4332, "pitch": 65, "duration": 7, "velocity": 97}, {"time": 4344, "pitch": 57, "duration": 7, "velocity": 95}, {"time": 4344, "pitch": 62, "duration": 6, "velocity": 117}, {"time": 4344, "pitch": 65, "duration": 5, "velocity": 99}, {"time": 4350, "pitch": 43, "duration": 25, "velocity": 89}, {"time": 4362, "pitch": 55, "duration": 4, "velocity": 95}, {"time": 4362, "pitch": 59, "duration": 3, "velocity": 96}, {"time": 4362, "pitch": 62, "duration": 4, "velocity": 92}, {"time": 4368, "pitch": 55, "duration": 6, "velocity": 72}, {"time": 4368, "pitch": 59, "duration": 5, "velocity": 81}, {"time": 4368, "pitch": 62, "duration": 5, "velocity": 78}, {"time": 4374, "pitch": 50, "duration": 24, "velocity": 93}, {"time": 4380, "pitch": 55, "duration": 6, "velocity": 97}, {"time": 4380, "pitch": 59, "duration": 5, "velocity": 97}, {"time": 4380, "pitch": 62, "duration": 8, "velocity": 95}, {"time": 4392, "pitch": 55, "duration": 7, "velocity": 97}, {"time": 4392, "pitch": 59, "duration": 6, "velocity": 97}, {"time": 4392, "pitch": 62, "duration": 11, "velocity": 93}, {"time": 4398, "pitch": 43, "duration": 24, "velocity": 89}, {"time": 4410, "pitch": 55, "duration": 4, "velocity": 99}, {"time": 4410, "pitch": 59, "duration": 3, "velocity": 100}, {"time": 4410, "pitch": 62, "duration": 3, "velocity": 96}, {"time": 4416, "pitch": 55, "duration": 6, "velocity": 79}, {"time": 4416, "pitch": 59, "duration": 5, "velocity": 85}, {"time": 4416, "pitch": 62, "duration": 5, "velocity": 79}, {"time": 4422, "pitch": 50, "duration": 11, "velocity": 99}, {"time": 4428, "pitch": 55, "duration": 9, "velocity": 96}, {"time": 4428, "pitch": 59, "duration": 9, "velocity": 97}, {"time": 4428, "pitch": 62, "duration": 10, "velocity": 88}, {"time": 4440, "pitch": 55, "duration": 5, "velocity": 95}, {"time": 4440, "pitch": 59, "duration": 4, "velocity": 99}, {"time": 4440, "pitch": 62, "duration": 5, "velocity": 95}, {"time": 4446, "pitch": 41, "duration": 21, "velocity": 85}, {"time": 4458, "pitch": 57, "duration": 4, "velocity": 93}, {"time": 4458, "pitch": 60, "duration": 3, "velocity": 99}, {"time": 4458, "pitch": 65, "duration": 4, "velocity": 86}, {"time": 4464, "pitch": 48, "duration": 27, "velocity": 15}, {"time": 4464, "pitch": 57, "duration": 6, "velocity": 69}, {"time": 4464, "pitch": 60, "duration": 5, "velocity": 85}, {"time": 4464, "pitch": 65, "duration": 6, "velocity": 76}, {"time": 4470, "pitch": 53, "duration": 9, "velocity": 78}, {"time": 4476, "pitch": 57, "duration": 6, "velocity": 93}, {"time": 4476, "pitch": 60, "duration": 5, "velocity": 95}, {"time": 4476, "pitch": 65, "duration": 6, "velocity": 89}, {"time": 4488, "pitch": 57, "duration": 6, "velocity": 96}, {"time": 4488, "pitch": 60, "duration": 6, "velocity": 99}, {"time": 4488, "pitch": 65, "duration": 6, "velocity": 90}, {"time": 4494, "pitch": 41, "duration": 22, "velocity": 73}, {"time": 4506, "pitch": 57, "duration": 4, "velocity": 102}, {"time": 4506, "pitch": 60, "duration": 3, "velocity": 107}, {"time": 4506, "pitch": 65, "duration": 3, "velocity": 97}, {"time": 4512, "pitch": 57, "duration": 6, "velocity": 69}, {"time": 4512, "pitch": 60, "duration": 5, "velocity": 81}, {"time": 4512, "pitch": 65, "duration": 5, "velocity": 77}, {"time": 4518, "pitch": 48, "duration": 8, "velocity": 20}, {"time": 4518, "pitch": 53, "duration": 6, "velocity": 93}, {"time": 4524, "pitch": 57, "duration": 8, "velocity": 85}, {"time": 4524, "pitch": 60, "duration": 7, "velocity": 95}, {"time": 4524, "pitch": 65, "duration": 8, "velocity": 93}, {"time": 4536, "pitch": 57, "duration": 6, "velocity": 99}, {"time": 4536, "pitch": 60, "duration": 5, "velocity": 97}, {"time": 4536, "pitch": 65, "duration": 5, "velocity": 88}, {"time": 4542, "pitch": 40, "duration": 23, "velocity": 79}, {"time": 4554, "pitch": 52, "duration": 4, "velocity": 90}, {"time": 4554, "pitch": 55, "duration": 3, "velocity": 90}, {"time": 4554, "pitch": 59, "duration": 3, "velocity": 81}, {"time": 4560, "pitch": 52, "duration": 6, "velocity": 79}, {"time": 4560, "pitch": 55, "duration": 5, "velocity": 86}, {"time": 4560, "pitch": 59, "duration": 6, "velocity": 90}, {"time": 4566, "pitch": 47, "duration": 25, "velocity": 93}, {"time": 4572, "pitch": 52, "duration": 6, "velocity": 93}, {"time": 4572, "pitch": 55, "duration": 5, "velocity": 93}, {"time": 4572, "pitch": 59, "duration": 6, "velocity": 92}, {"time": 4584, "pitch": 52, "duration": 3, "velocity": 88}, {"time": 4584, "pitch": 55, "duration": 4, "velocity": 97}, {"time": 4584, "pitch": 59, "duration": 5, "velocity": 88}, {"time": 4590, "pitch": 40, "duration": 23, "velocity": 85}, {"time": 4602, "pitch": 59, "duration": 4, "velocity": 107}, {"time": 4602, "pitch": 64, "duration": 4, "velocity": 102}, {"time": 4602, "pitch": 67, "duration": 4, "velocity": 97}, {"time": 4608, "pitch": 59, "duration": 6, "velocity": 75}, {"time": 4608, "pitch": 64, "duration": 5, "velocity": 88}, {"time": 4608, "pitch": 67, "duration": 5, "velocity": 82}, {"time": 4614, "pitch": 47, "duration": 11, "velocity": 16}, {"time": 4614, "pitch": 52, "duration": 7, "velocity": 63}, {"time": 4620, "pitch": 59, "duration": 7, "velocity": 95}, {"time": 4620, "pitch": 64, "duration": 7, "velocity": 102}, {"time": 4620, "pitch": 67, "duration": 7, "velocity": 97}, {"time": 4632, "pitch": 59, "duration": 7, "velocity": 92}, {"time": 4632, "pitch": 64, "duration": 6, "velocity": 100}, {"time": 4632, "pitch": 67, "duration": 5, "velocity": 89}, {"time": 4638, "pitch": 38, "duration": 22, "velocity": 86}, {"time": 4650, "pitch": 57, "duration": 3, "velocity": 96}, {"time": 4650, "pitch": 62, "duration": 3, "velocity": 97}, {"time": 4650, "pitch": 65, "duration": 3, "velocity": 90}, {"time": 4656, "pitch": 45, "duration": 31, "velocity": 24}, {"time": 4656, "pitch": 57, "duration": 6, "velocity": 79}, {"time": 4656, "pitch": 62, "duration": 5, "velocity": 86}, {"time": 4656, "pitch": 65, "duration": 6, "velocity": 74}, {"time": 4662, "pitch": 50, "duration": 10, "velocity": 83}, {"time": 4668, "pitch": 57, "duration": 6, "velocity": 96}, {"time": 4668, "pitch": 62, "duration": 5, "velocity": 99}, {"time": 4668, "pitch": 65, "duration": 6, "velocity": 95}, {"time": 4680, "pitch": 57, "duration": 6, "velocity": 99}, {"time": 4680, "pitch": 62, "duration": 5, "velocity": 107}, {"time": 4680, "pitch": 65, "duration": 5, "velocity": 95}, {"time": 4686, "pitch": 38, "duration": 26, "velocity": 73}, {"time": 4698, "pitch": 57, "duration": 4, "velocity": 92}, {"time": 4698, "pitch": 62, "duration": 3, "velocity": 102}, {"time": 4698, "pitch": 65, "duration": 3, "velocity": 89}, {"time": 4704, "pitch": 57, "duration": 6, "velocity": 76}, {"time": 4704, "pitch": 62, "duration": 5, "velocity": 88}, {"time": 4704, "pitch": 65, "duration": 6, "velocity": 78}, {"time": 4710, "pitch": 50, "duration": 20, "velocity": 93}, {"time": 4716, "pitch": 57, "duration": 7, "velocity": 93}, {"time": 4716, "pitch": 62, "duration": 6, "velocity": 102}, {"time": 4716, "pitch": 65, "duration": 7, "velocity": 93}, {"time": 4728, "pitch": 57, "duration": 4, "velocity": 95}, {"time": 4728, "pitch": 62, "duration": 4, "velocity": 100}, {"time": 4728, "pitch": 65, "duration": 5, "velocity": 93}, {"time": 4734, "pitch": 44, "duration": 15, "velocity": 107}, {"time": 4746, "pitch": 56, "duration": 4, "velocity": 97}, {"time": 4746, "pitch": 60, "duration": 3, "velocity": 99}, {"time": 4746, "pitch": 63, "duration": 3, "velocity": 99}, {"time": 4752, "pitch": 56, "duration": 5, "velocity": 74}, {"time": 4752, "pitch": 60, "duration": 4, "velocity": 89}, {"time": 4752, "pitch": 63, "duration": 5, "velocity": 88}, {"time": 4758, "pitch": 51, "duration": 19, "velocity": 72}, {"time": 4770, "pitch": 56, "duration": 7, "velocity": 102}, {"time": 4770, "pitch": 60, "duration": 5, "velocity": 112}, {"time": 4770, "pitch": 63, "duration": 7, "velocity": 102}, {"time": 4782, "pitch": 43, "duration": 21, "velocity": 95}, {"time": 4794, "pitch": 55, "duration": 3, "velocity": 97}, {"time": 4794, "pitch": 59, "duration": 3, "velocity": 97}, {"time": 4794, "pitch": 62, "duration": 3, "velocity": 95}, {"time": 4800, "pitch": 55, "duration": 5, "velocity": 71}, {"time": 4800, "pitch": 59, "duration": 4, "velocity": 86}, {"time": 4800, "pitch": 62, "duration": 5, "velocity": 83}, {"time": 4806, "pitch": 50, "duration": 18, "velocity": 96}, {"time": 4812, "pitch": 55, "duration": 5, "velocity": 96}, {"time": 4812, "pitch": 59, "duration": 5, "velocity": 97}, {"time": 4812, "pitch": 62, "duration": 6, "velocity": 92}, {"time": 4824, "pitch": 55, "duration": 4, "velocity": 92}, {"time": 4824, "pitch": 59, "duration": 3, "velocity": 93}, {"time": 4824, "pitch": 62, "duration": 4, "velocity": 88}, {"time": 4830, "pitch": 45, "duration": 19, "velocity": 100}, {"time": 4842, "pitch": 64, "duration": 3, "velocity": 95}, {"time": 4842, "pitch": 69, "duration": 3, "velocity": 97}, {"time": 4842, "pitch": 72, "duration": 3, "velocity": 89}, {"time": 4848, "pitch": 64, "duration": 5, "velocity": 93}, {"time": 4848, "pitch": 69, "duration": 5, "velocity": 96}, {"time": 4848, "pitch": 72, "duration": 5, "velocity": 90}, {"time": 4854, "pitch": 52, "duration": 24, "velocity": 41}, {"time": 4854, "pitch": 57, "duration": 15, "velocity": 92}, {"time": 4860, "pitch": 64, "duration": 6, "velocity": 97}, {"time": 4860, "pitch": 69, "duration": 5, "velocity": 100}, {"time": 4860, "pitch": 72, "duration": 6, "velocity": 95}, {"time": 4872, "pitch": 64, "duration": 7, "velocity": 102}, {"time": 4872, "pitch": 69, "duration": 6, "velocity": 107}, {"time": 4872, "pitch": 72, "duration": 7, "velocity": 100}, {"time": 4878, "pitch": 45, "duration": 16, "velocity": 83}, {"time": 4884, "pitch": 64, "duration": 6, "velocity": 100}, {"time": 4884, "pitch": 69, "duration": 5, "velocity": 102}, {"time": 4884, "pitch": 72, "duration": 6, "velocity": 99}, {"time": 4890, "pitch": 52, "duration": 13, "velocity": 64}, {"time": 4890, "pitch": 57, "duration": 12, "velocity": 71}, {"time": 4896, "pitch": 64, "duration": 5, "velocity": 107}, {"time": 4896, "pitch": 69, "duration": 5, "velocity": 100}, {"time": 4896, "pitch": 72, "duration": 6, "velocity": 99}, {"time": 4902, "pitch": 45, "duration": 19, "velocity": 85}, {"time": 4908, "pitch": 64, "duration": 7, "velocity": 93}, {"time": 4908, "pitch": 69, "duration": 6, "velocity": 99}, {"time": 4908, "pitch": 72, "duration": 7, "velocity": 95}, {"time": 4914, "pitch": 52, "duration": 6, "velocity": 90}, {"time": 4920, "pitch": 57, "duration": 5, "velocity": 102}, {"time": 4920, "pitch": 64, "duration": 6, "velocity": 92}, {"time": 4920, "pitch": 69, "duration": 5, "velocity": 99}, {"time": 4920, "pitch": 72, "duration": 5, "velocity": 96}, {"time": 4926, "pitch": 40, "duration": 13, "velocity": 95}, {"time": 4932, "pitch": 64, "duration": 5, "velocity": 102}, {"time": 4932, "pitch": 67, "duration": 5, "velocity": 117}, {"time": 4932, "pitch": 71, "duration": 6, "velocity": 102}, {"time": 4938, "pitch": 47, "duration": 11, "velocity": 62}, {"time": 4944, "pitch": 52, "duration": 9, "velocity": 96}, {"time": 4944, "pitch": 64, "duration": 5, "velocity": 95}, {"time": 4944, "pitch": 67, "duration": 4, "velocity": 99}, {"time": 4944, "pitch": 71, "duration": 5, "velocity": 97}, {"time": 4950, "pitch": 40, "duration": 12, "velocity": 85}, {"time": 4956, "pitch": 64, "duration": 5, "velocity": 95}, {"time": 4956, "pitch": 67, "duration": 4, "velocity": 100}, {"time": 4956, "pitch": 71, "duration": 5, "velocity": 95}, {"time": 4962, "pitch": 47, "duration": 10, "velocity": 73}, {"time": 4962, "pitch": 52, "duration": 10, "velocity": 90}, {"time": 4968, "pitch": 64, "duration": 5, "velocity": 89}, {"time": 4968, "pitch": 67, "duration": 4, "velocity": 99}, {"time": 4968, "pitch": 71, "duration": 5, "velocity": 97}, {"time": 4974, "pitch": 40, "duration": 14, "velocity": 72}, {"time": 4980, "pitch": 64, "duration": 5, "velocity": 92}, {"time": 4980, "pitch": 67, "duration": 4, "velocity": 97}, {"time": 4980, "pitch": 71, "duration": 5, "velocity": 93}, {"time": 4986, "pitch": 52, "duration": 10, "velocity": 88}, {"time": 4992, "pitch": 47, "duration": 5, "velocity": 42}, {"time": 4992, "pitch": 64, "duration": 6, "velocity": 90}, {"time": 4992, "pitch": 67, "duration": 5, "velocity": 97}, {"time": 4992, "pitch": 71, "duration": 5, "velocity": 95}, {"time": 4998, "pitch": 40, "duration": 17, "velocity": 89}, {"time": 5004, "pitch": 64, "duration": 6, "velocity": 85}, {"time": 5004, "pitch": 67, "duration": 5, "velocity": 95}, {"time": 5004, "pitch": 71, "duration": 6, "velocity": 90}, {"time": 5010, "pitch": 47, "duration": 10, "velocity": 76}, {"time": 5016, "pitch": 52, "duration": 10, "velocity": 97}, {"time": 5016, "pitch": 64, "duration": 5, "velocity": 92}, {"time": 5016, "pitch": 67, "duration": 4, "velocity": 99}, {"time": 5016, "pitch": 71, "duration": 5, "velocity": 96}, {"time": 5022, "pitch": 41, "duration": 13, "velocity": 90}, {"time": 5028, "pitch": 60, "duration": 6, "velocity": 97}, {"time": 5028, "pitch": 65, "duration": 5, "velocity": 97}, {"time": 5028, "pitch": 69, "duration": 5, "velocity": 92}, {"time": 5034, "pitch": 48, "duration": 11, "velocity": 96}, {"time": 5040, "pitch": 53, "duration": 11, "velocity": 93}, {"time": 5040, "pitch": 60, "duration": 5, "velocity": 96}, {"time": 5040, "pitch": 65, "duration": 5, "velocity": 100}, {"time": 5040, "pitch": 69, "duration": 6, "velocity": 93}, {"time": 5046, "pitch": 41, "duration": 13, "velocity": 83}, {"time": 5052, "pitch": 60, "duration": 6, "velocity": 99}, {"time": 5052, "pitch": 65, "duration": 5, "velocity": 112}, {"time": 5052, "pitch": 69, "duration": 5, "velocity": 96}, {"time": 5058, "pitch": 48, "duration": 10, "velocity": 93}, {"time": 5058, "pitch": 53, "duration": 9, "velocity": 107}, {"time": 5064, "pitch": 60, "duration": 5, "velocity": 95}, {"time": 5064, "pitch": 65, "duration": 5, "velocity": 96}, {"time": 5064, "pitch": 69, "duration": 5, "velocity": 93}, {"time": 5070, "pitch": 41, "duration": 15, "velocity": 79}, {"time": 5076, "pitch": 60, "duration": 5, "velocity": 97}, {"time": 5076, "pitch": 65, "duration": 5, "velocity": 96}, {"time": 5076, "pitch": 69, "duration": 5, "velocity": 92}, {"time": 5082, "pitch": 48, "duration": 10, "velocity": 90}, {"time": 5082, "pitch": 53, "duration": 9, "velocity": 102}, {"time": 5088, "pitch": 60, "duration": 6, "velocity": 95}, {"time": 5088, "pitch": 65, "duration": 5, "velocity": 99}, {"time": 5088, "pitch": 69, "duration": 5, "velocity": 95}, {"time": 5094, "pitch": 41, "duration": 17, "velocity": 74}, {"time": 5100, "pitch": 60, "duration": 7, "velocity": 93}, {"time": 5100, "pitch": 65, "duration": 6, "velocity": 97}, {"time": 5100, "pitch": 69, "duration": 6, "velocity": 90}, {"time": 5106, "pitch": 48, "duration": 11, "velocity": 97}, {"time": 5106, "pitch": 53, "duration": 10, "velocity": 107}, {"time": 5112, "pitch": 60, "duration": 4, "velocity": 99}, {"time": 5112, "pitch": 65, "duration": 4, "velocity": 97}, {"time": 5112, "pitch": 69, "duration": 3, "velocity": 83}, {"time": 5118, "pitch": 43, "duration": 8, "velocity": 102}, {"time": 5118, "pitch": 62, "duration": 5, "velocity": 127}, {"time": 5118, "pitch": 67, "duration": 6, "velocity": 127}, {"time": 5118, "pitch": 71, "duration": 7, "velocity": 127}, {"time": 5142, "pitch": 43, "duration": 8, "velocity": 122}, {"time": 5142, "pitch": 62, "duration": 6, "velocity": 107}, {"time": 5142, "pitch": 67, "duration": 6, "velocity": 112}, {"time": 5142, "pitch": 71, "duration": 6, "velocity": 97}, {"time": 5166, "pitch": 43, "duration": 5, "velocity": 122}, {"time": 5166, "pitch": 62, "duration": 5, "velocity": 100}, {"time": 5166, "pitch": 67, "duration": 5, "velocity": 122}, {"time": 5166, "pitch": 71, "duration": 5, "velocity": 100}, {"time": 5190, "pitch": 43, "duration": 7, "velocity": 117}, {"time": 5190, "pitch": 62, "duration": 5, "velocity": 112}, {"time": 5190, "pitch": 67, "duration": 5, "velocity": 112}, {"time": 5190, "pitch": 71, "duration": 5, "velocity": 107}, {"time": 5214, "pitch": 44, "duration": 3, "velocity": 92}, {"time": 5214, "pitch": 51, "duration": 7, "velocity": 112}, {"time": 5214, "pitch": 56, "duration": 7, "velocity": 102}, {"time": 5214, "pitch": 60, "duration": 4, "velocity": 117}, {"time": 5214, "pitch": 63, "duration": 6, "velocity": 117}, {"time": 5238, "pitch": 44, "duration": 5, "velocity": 97}, {"time": 5238, "pitch": 51, "duration": 5, "velocity": 100}, {"time": 5238, "pitch": 56, "duration": 6, "velocity": 107}, {"time": 5238, "pitch": 60, "duration": 4, "velocity": 107}, {"time": 5238, "pitch": 63, "duration": 5, "velocity": 100}, {"time": 5262, "pitch": 44, "duration": 5, "velocity": 122}, {"time": 5262, "pitch": 51, "duration": 4, "velocity": 107}, {"time": 5262, "pitch": 56, "duration": 5, "velocity": 112}, {"time": 5262, "pitch": 60, "duration": 4, "velocity": 107}, {"time": 5262, "pitch": 63, "duration": 5, "velocity": 102}, {"time": 5286, "pitch": 44, "duration": 5, "velocity": 99}, {"time": 5286, "pitch": 51, "duration": 6, "velocity": 107}, {"time": 5286, "pitch": 56, "duration": 6, "velocity": 107}, {"time": 5286, "pitch": 60, "duration": 4, "velocity": 127}, {"time": 5286, "pitch": 63, "duration": 5, "velocity": 112}, {"time": 5310, "pitch": 46, "duration": 5, "velocity": 127}, {"time": 5310, "pitch": 58, "duration": 5, "velocity": 127}, {"time": 5310, "pitch": 62, "duration": 5, "velocity": 100}, {"time": 5310, "pitch": 65, "duration": 5, "velocity": 90}, {"time": 5334, "pitch": 46, "duration": 5, "velocity": 127}, {"time": 5334, "pitch": 58, "duration": 5, "velocity": 127}, {"time": 5334, "pitch": 62, "duration": 5, "velocity": 102}, {"time": 5334, "pitch": 65, "duration": 5, "velocity": 86}, {"time": 5358, "pitch": 46, "duration": 4, "velocity": 127}, {"time": 5358, "pitch": 58, "duration": 4, "velocity": 127}, {"time": 5358, "pitch": 62, "duration": 5, "velocity": 100}, {"time": 5358, "pitch": 65, "duration": 4, "velocity": 75}, {"time": 5382, "pitch": 46, "duration": 5, "velocity": 127}, {"time": 5382, "pitch": 58, "duration": 5, "velocity": 127}, {"time": 5382, "pitch": 62, "duration": 5, "velocity": 112}, {"time": 5382, "pitch": 65, "duration": 4, "velocity": 93}, {"time": 5406, "pitch": 48, "duration": 5, "velocity": 107}, {"time": 5406, "pitch": 60, "duration": 9, "velocity": 112}, {"time": 5424, "pitch": 48, "duration": 8, "velocity": 99}, {"time": 5424, "pitch": 60, "duration": 8, "velocity": 117}, {"time": 5430, "pitch": 46, "duration": 6, "velocity": 112}, {"time": 5430, "pitch": 58, "duration": 5, "velocity": 127}, {"time": 5436, "pitch": 44, "duration": 5, "velocity": 127}, {"time": 5436, "pitch": 56, "duration": 4, "velocity": 122}, {"time": 5448, "pitch": 43, "duration": 12, "velocity": 112}, {"time": 5448, "pitch": 55, "duration": 13, "velocity": 117}, {"time": 5502, "pitch": 36, "duration": 19, "velocity": 96}, {"time": 5514, "pitch": 55, "duration": 3, "velocity": 99}, {"time": 5514, "pitch": 60, "duration": 3, "velocity": 122}, {"time": 5514, "pitch": 64, "duration": 3, "velocity": 95}, {"time": 5520, "pitch": 55, "duration": 5, "velocity": 69}, {"time": 5520, "pitch": 60, "duration": 5, "velocity": 81}, {"time": 5520, "pitch": 64, "duration": 5, "velocity": 76}, {"time": 5526, "pitch": 48, "duration": 22, "velocity": 112}, {"time": 5532, "pitch": 60, "duration": 8, "velocity": 100}, {"time": 5532, "pitch": 64, "duration": 8, "velocity": 99}, {"time": 5544, "pitch": 55, "duration": 8, "velocity": 89}, {"time": 5544, "pitch": 60, "duration": 6, "velocity": 99}, {"time": 5544, "pitch": 64, "duration": 8, "velocity": 96}, {"time": 5550, "pitch": 43, "duration": 26, "velocity": 82}, {"time": 5562, "pitch": 55, "duration": 3, "velocity": 93}, {"time": 5562, "pitch": 59, "duration": 3, "velocity": 97}, {"time": 5562, "pitch": 62, "duration": 3, "velocity": 96}, {"time": 5568, "pitch": 55, "duration": 5, "velocity": 81}, {"time": 5568, "pitch": 59, "duration": 5, "velocity": 96}, {"time": 5568, "pitch": 62, "duration": 5, "velocity": 90}, {"time": 5574, "pitch": 50, "duration": 24, "velocity": 81}, {"time": 5580, "pitch": 55, "duration": 8, "velocity": 82}, {"time": 5580, "pitch": 59, "duration": 8, "velocity": 95}, {"time": 5580, "pitch": 62, "duration": 9, "velocity": 90}, {"time": 5592, "pitch": 55, "duration": 6, "velocity": 79}, {"time": 5592, "pitch": 59, "duration": 5, "velocity": 96}, {"time": 5592, "pitch": 62, "duration": 6, "velocity": 92}, {"time": 5598, "pitch": 45, "duration": 25, "velocity": 96}, {"time": 5610, "pitch": 57, "duration": 4, "velocity": 100}, {"time": 5610, "pitch": 60, "duration": 3, "velocity": 100}, {"time": 5610, "pitch": 64, "duration": 3, "velocity": 95}, {"time": 5616, "pitch": 57, "duration": 5, "velocity": 82}, {"time": 5616, "pitch": 60, "duration": 5, "velocity": 90}, {"time": 5616, "pitch": 64, "duration": 5, "velocity": 92}, {"time": 5622, "pitch": 52, "duration": 14, "velocity": 89}, {"time": 5628, "pitch": 57, "duration": 1, "velocity": 66}, {"time": 5628, "pitch": 60, "duration": 9, "velocity": 102}, {"time": 5628, "pitch": 64, "duration": 9, "velocity": 99}, {"time": 5640, "pitch": 57, "duration": 7, "velocity": 93}, {"time": 5640, "pitch": 60, "duration": 6, "velocity": 102}, {"time": 5640, "pitch": 64, "duration": 7, "velocity": 95}, {"time": 5646, "pitch": 40, "duration": 24, "velocity": 78}, {"time": 5658, "pitch": 52, "duration": 4, "velocity": 83}, {"time": 5658, "pitch": 55, "duration": 3, "velocity": 95}, {"time": 5658, "pitch": 59, "duration": 4, "velocity": 90}, {"time": 5664, "pitch": 52, "duration": 4, "velocity": 72}, {"time": 5664, "pitch": 55, "duration": 5, "velocity": 88}, {"time": 5664, "pitch": 59, "duration": 5, "velocity": 82}, {"time": 5670, "pitch": 47, "duration": 22, "velocity": 90}, {"time": 5676, "pitch": 52, "duration": 8, "velocity": 89}, {"time": 5676, "pitch": 55, "duration": 8, "velocity": 100}, {"time": 5676, "pitch": 59, "duration": 8, "velocity": 97}, {"time": 5688, "pitch": 52, "duration": 4, "velocity": 83}, {"time": 5688, "pitch": 55, "duration": 5, "velocity": 95}, {"time": 5688, "pitch": 59, "duration": 6, "velocity": 95}, {"time": 5694, "pitch": 41, "duration": 25, "velocity": 95}, {"time": 5706, "pitch": 53, "duration": 4, "velocity": 97}, {"time": 5706, "pitch": 57, "duration": 3, "velocity": 107}, {"time": 5706, "pitch": 60, "duration": 3, "velocity": 95}, {"time": 5706, "pitch": 64, "duration": 3, "velocity": 72}, {"time": 5712, "pitch": 53, "duration": 5, "velocity": 78}, {"time": 5712, "pitch": 57, "duration": 4, "velocity": 88}, {"time": 5712, "pitch": 60, "duration": 4, "velocity": 88}, {"time": 5712, "pitch": 64, "duration": 5, "velocity": 76}, {"time": 5718, "pitch": 48, "duration": 21, "velocity": 85}, {"time": 5724, "pitch": 53, "duration": 7, "velocity": 93}, {"time": 5724, "pitch": 57, "duration": 7, "velocity": 93}, {"time": 5724, "pitch": 60, "duration": 8, "velocity": 93}, {"time": 5736, "pitch": 53, "duration": 7, "velocity": 93}, {"time": 5736, "pitch": 57, "duration": 5, "velocity": 97}, {"time": 5736, "pitch": 60, "duration": 6, "velocity": 97}, {"time": 5742, "pitch": 40, "duration": 24, "velocity": 95}, {"time": 5754, "pitch": 52, "duration": 3, "velocity": 96}, {"time": 5754, "pitch": 55, "duration": 3, "velocity": 97}, {"time": 5754, "pitch": 59, "duration": 3, "velocity": 89}, {"time": 5760, "pitch": 52, "duration": 5, "velocity": 71}, {"time": 5760, "pitch": 55, "duration": 5, "velocity": 83}, {"time": 5760, "pitch": 59, "duration": 5, "velocity": 83}, {"time": 5766, "pitch": 47, "duration": 17, "velocity": 88}, {"time": 5772, "pitch": 52, "duration": 8, "velocity": 95}, {"time": 5772, "pitch": 55, "duration": 8, "velocity": 97}, {"time": 5772, "pitch": 59, "duration": 9, "velocity": 99}, {"time": 5784, "pitch": 52, "duration": 4, "velocity": 90}, {"time": 5784, "pitch": 55, "duration": 4, "velocity": 95}, {"time": 5784, "pitch": 59, "duration": 5, "velocity": 89}, {"time": 5790, "pitch": 38, "duration": 22, "velocity": 89}, {"time": 5802, "pitch": 57, "duration": 4, "velocity": 100}, {"time": 5802, "pitch": 62, "duration": 3, "velocity": 122}, {"time": 5802, "pitch": 65, "duration": 4, "velocity": 100}, {"time": 5808, "pitch": 45, "duration": 8, "velocity": 27}, {"time": 5808, "pitch": 57, "duration": 6, "velocity": 75}, {"time": 5808, "pitch": 62, "duration": 5, "velocity": 96}, {"time": 5808, "pitch": 65, "duration": 5, "velocity": 88}, {"time": 5814, "pitch": 50, "duration": 22, "velocity": 81}, {"time": 5820, "pitch": 57, "duration": 8, "velocity": 89}, {"time": 5820, "pitch": 62, "duration": 7, "velocity": 100}, {"time": 5820, "pitch": 65, "duration": 7, "velocity": 97}, {"time": 5832, "pitch": 57, "duration": 7, "velocity": 93}, {"time": 5832, "pitch": 62, "duration": 6, "velocity": 102}, {"time": 5832, "pitch": 65, "duration": 5, "velocity": 95}, {"time": 5838, "pitch": 43, "duration": 25, "velocity": 85}, {"time": 5850, "pitch": 55, "duration": 3, "velocity": 102}, {"time": 5850, "pitch": 59, "duration": 3, "velocity": 112}, {"time": 5850, "pitch": 61, "duration": 1, "velocity": 95}, {"time": 5850, "pitch": 62, "duration": 3, "velocity": 100}, {"time": 5856, "pitch": 55, "duration": 5, "velocity": 88}, {"time": 5856, "pitch": 59, "duration": 4, "velocity": 96}, {"time": 5856, "pitch": 62, "duration": 5, "velocity": 92}, {"time": 5862, "pitch": 50, "duration": 12, "velocity": 96}, {"time": 5868, "pitch": 55, "duration": 6, "velocity": 96}, {"time": 5868, "pitch": 59, "duration": 6, "velocity": 100}, {"time": 5868, "pitch": 62, "duration": 7, "velocity": 100}, {"time": 5880, "pitch": 55, "duration": 6, "velocity": 93}, {"time": 5880, "pitch": 59, "duration": 6, "velocity": 99}, {"time": 5880, "pitch": 62, "duration": 6, "velocity": 97}, {"time": 5886, "pitch": 36, "duration": 23, "velocity": 89}, {"time": 5898, "pitch": 55, "duration": 4, "velocity": 99}, {"time": 5898, "pitch": 60, "duration": 3, "velocity": 122}, {"time": 5898, "pitch": 64, "duration": 3, "velocity": 97}, {"time": 5904, "pitch": 55, "duration": 5, "velocity": 73}, {"time": 5904, "pitch": 60, "duration": 5, "velocity": 97}, {"time": 5904, "pitch": 64, "duration": 4, "velocity": 90}, {"time": 5910, "pitch": 48, "duration": 22, "velocity": 92}, {"time": 5916, "pitch": 55, "duration": 7, "velocity": 95}, {"time": 5916, "pitch": 60, "duration": 7, "velocity": 112}, {"time": 5916, "pitch": 64, "duration": 7, "velocity": 97}, {"time": 5928, "pitch": 55, "duration": 7, "velocity": 93}, {"time": 5928, "pitch": 60, "duration": 8, "velocity": 117}, {"time": 5928, "pitch": 64, "duration": 5, "velocity": 96}, {"time": 5934, "pitch": 43, "duration": 32, "velocity": 89}, {"time": 5946, "pitch": 55, "duration": 4, "velocity": 95}, {"time": 5946, "pitch": 59, "duration": 3, "velocity": 95}, {"time": 5946, "pitch": 62, "duration": 3, "velocity": 95}, {"time": 5952, "pitch": 55, "duration": 6, "velocity": 72}, {"time": 5952, "pitch": 59, "duration": 5, "velocity": 88}, {"time": 5952, "pitch": 62, "duration": 5, "velocity": 83}, {"time": 5958, "pitch": 50, "duration": 24, "velocity": 73}, {"time": 5964, "pitch": 55, "duration": 4, "velocity": 92}, {"time": 5964, "pitch": 59, "duration": 4, "velocity": 97}, {"time": 5964, "pitch": 62, "duration": 4, "velocity": 92}, {"time": 5976, "pitch": 55, "duration": 6, "velocity": 92}, {"time": 5976, "pitch": 59, "duration": 6, "velocity": 100}, {"time": 5976, "pitch": 62, "duration": 6, "velocity": 93}, {"time": 5982, "pitch": 45, "duration": 26, "velocity": 76}, {"time": 5994, "pitch": 57, "duration": 3, "velocity": 92}, {"time": 5994, "pitch": 59, "duration": 2, "velocity": 85}, {"time": 5994, "pitch": 60, "duration": 3, "velocity": 86}, {"time": 5994, "pitch": 64, "duration": 3, "velocity": 82}, {"time": 6000, "pitch": 57, "duration": 5, "velocity": 82}, {"time": 6000, "pitch": 60, "duration": 5, "velocity": 97}, {"time": 6000, "pitch": 64, "duration": 5, "velocity": 92}, {"time": 6006, "pitch": 52, "duration": 12, "velocity": 71}, {"time": 6012, "pitch": 57, "duration": 7, "velocity": 83}, {"time": 6012, "pitch": 60, "duration": 6, "velocity": 107}, {"time": 6012, "pitch": 64, "duration": 7, "velocity": 97}, {"time": 6024, "pitch": 57, "duration": 7, "velocity": 85}, {"time": 6024, "pitch": 60, "duration": 6, "velocity": 107}, {"time": 6024, "pitch": 64, "duration": 5, "velocity": 93}, {"time": 6030, "pitch": 40, "duration": 25, "velocity": 78}, {"time": 6042, "pitch": 52, "duration": 4, "velocity": 93}, {"time": 6042, "pitch": 55, "duration": 3, "velocity": 89}, {"time": 6042, "pitch": 59, "duration": 4, "velocity": 82}, {"time": 6048, "pitch": 52, "duration": 5, "velocity": 81}, {"time": 6048, "pitch": 55, "duration": 5, "velocity": 93}, {"time": 6048, "pitch": 59, "duration": 5, "velocity": 89}, {"time": 6054, "pitch": 47, "duration": 23, "velocity": 68}, {"time": 6060, "pitch": 52, "duration": 6, "velocity": 88}, {"time": 6060, "pitch": 55, "duration": 6, "velocity": 95}, {"time": 6060, "pitch": 59, "duration": 6, "velocity": 93}, {"time": 6072, "pitch": 52, "duration": 4, "velocity": 95}, {"time": 6072, "pitch": 55, "duration": 4, "velocity": 93}, {"time": 6072, "pitch": 59, "duration": 6, "velocity": 93}, {"time": 6078, "pitch": 41, "duration": 24, "velocity": 73}, {"time": 6090, "pitch": 53, "duration": 3, "velocity": 95}, {"time": 6090, "pitch": 57, "duration": 3, "velocity": 99}, {"time": 6090, "pitch": 60, "duration": 3, "velocity": 97}, {"time": 6096, "pitch": 53, "duration": 4, "velocity": 70}, {"time": 6096, "pitch": 57, "duration": 4, "velocity": 86}, {"time": 6096, "pitch": 60, "duration": 5, "velocity": 76}, {"time": 6102, "pitch": 48, "duration": 25, "velocity": 71}, {"time": 6108, "pitch": 53, "duration": 6, "velocity": 93}, {"time": 6108, "pitch": 57, "duration": 6, "velocity": 99}, {"time": 6108, "pitch": 60, "duration": 7, "velocity": 95}, {"time": 6120, "pitch": 53, "duration": 5, "velocity": 95}, {"time": 6120, "pitch": 57, "duration": 5, "velocity": 97}, {"time": 6120, "pitch": 60, "duration": 6, "velocity": 95}, {"time": 6126, "pitch": 40, "duration": 16, "velocity": 77}, {"time": 6138, "pitch": 59, "duration": 3, "velocity": 100}, {"time": 6138, "pitch": 64, "duration": 2, "velocity": 102}, {"time": 6138, "pitch": 67, "duration": 3, "velocity": 90}, {"time": 6144, "pitch": 47, "duration": 5, "velocity": 32}, {"time": 6144, "pitch": 59, "duration": 5, "velocity": 75}, {"time": 6144, "pitch": 64, "duration": 5, "velocity": 88}, {"time": 6144, "pitch": 67, "duration": 5, "velocity": 82}, {"time": 6150, "pitch": 47, "duration": 4, "velocity": 51}, {"time": 6150, "pitch": 52, "duration": 10, "velocity": 93}, {"time": 6156, "pitch": 59, "duration": 7, "velocity": 96}, {"time": 6156, "pitch": 64, "duration": 7, "velocity": 100}, {"time": 6156, "pitch": 67, "duration": 7, "velocity": 89}, {"time": 6168, "pitch": 59, "duration": 4, "velocity": 89}, {"time": 6168, "pitch": 64, "duration": 4, "velocity": 97}, {"time": 6168, "pitch": 67, "duration": 5, "velocity": 92}, {"time": 6174, "pitch": 50, "duration": 18, "velocity": 77}, {"time": 6186, "pitch": 62, "duration": 3, "velocity": 93}, {"time": 6186, "pitch": 65, "duration": 3, "velocity": 97}, {"time": 6186, "pitch": 69, "duration": 3, "velocity": 97}, {"time": 6192, "pitch": 62, "duration": 5, "velocity": 70}, {"time": 6192, "pitch": 65, "duration": 4, "velocity": 81}, {"time": 6192, "pitch": 69, "duration": 5, "velocity": 88}, {"time": 6198, "pitch": 57, "duration": 14, "velocity": 97}, {"time": 6204, "pitch": 62, "duration": 7, "velocity": 97}, {"time": 6204, "pitch": 65, "duration": 6, "velocity": 99}, {"time": 6204, "pitch": 69, "duration": 7, "velocity": 93}, {"time": 6216, "pitch": 62, "duration": 6, "velocity": 95}, {"time": 6216, "pitch": 65, "duration": 5, "velocity": 102}, {"time": 6216, "pitch": 69, "duration": 6, "velocity": 92}, {"time": 6222, "pitch": 43, "duration": 18, "velocity": 82}, {"time": 6234, "pitch": 62, "duration": 4, "velocity": 99}, {"time": 6234, "pitch": 67, "duration": 3, "velocity": 122}, {"time": 6234, "pitch": 71, "duration": 4, "velocity": 107}, {"time": 6240, "pitch": 62, "duration": 5, "velocity": 78}, {"time": 6240, "pitch": 67, "duration": 5, "velocity": 100}, {"time": 6240, "pitch": 71, "duration": 5, "velocity": 95}, {"time": 6246, "pitch": 50, "duration": 9, "velocity": 9}, {"time": 6246, "pitch": 55, "duration": 11, "velocity": 93}, {"time": 6252, "pitch": 62, "duration": 5, "velocity": 99}, {"time": 6252, "pitch": 67, "duration": 5, "velocity": 122}, {"time": 6252, "pitch": 71, "duration": 6, "velocity": 99}, {"time": 6264, "pitch": 62, "duration": 4, "velocity": 107}, {"time": 6264, "pitch": 67, "duration": 4, "velocity": 122}, {"time": 6264, "pitch": 71, "duration": 5, "velocity": 112}, {"time": 6270, "pitch": 50, "duration": 4, "velocity": 127}, {"time": 6270, "pitch": 57, "duration": 5, "velocity": 112}, {"time": 6270, "pitch": 62, "duration": 5, "velocity": 122}, {"time": 6270, "pitch": 65, "duration": 5, "velocity": 102}, {"time": 6282, "pitch": 50, "duration": 3, "velocity": 122}, {"time": 6282, "pitch": 57, "duration": 3, "velocity": 95}, {"time": 6282, "pitch": 62, "duration": 2, "velocity": 97}, {"time": 6282, "pitch": 65, "duration": 2, "velocity": 78}, {"time": 6288, "pitch": 36, "duration": 19, "velocity": 112}, {"time": 6306, "pitch": 55, "duration": 3, "velocity": 97}, {"time": 6306, "pitch": 60, "duration": 3, "velocity": 99}, {"time": 6306, "pitch": 64, "duration": 4, "velocity": 93}, {"time": 6312, "pitch": 55, "duration": 4, "velocity": 82}, {"time": 6312, "pitch": 60, "duration": 4, "velocity": 97}, {"time": 6312, "pitch": 64, "duration": 4, "velocity": 89}, {"time": 6318, "pitch": 48, "duration": 15, "velocity": 112}, {"time": 6330, "pitch": 36, "duration": 10, "velocity": 117}, {"time": 6330, "pitch": 55, "duration": 3, "velocity": 107}, {"time": 6330, "pitch": 60, "duration": 3, "velocity": 112}, {"time": 6330, "pitch": 64, "duration": 4, "velocity": 97}, {"time": 6333, "pitch": 36, "duration": 7, "velocity": 89}, {"time": 6342, "pitch": 38, "duration": 9, "velocity": 117}, {"time": 6354, "pitch": 40, "duration": 10, "velocity": 112}, {"time": 6366, "pitch": 41, "duration": 16, "velocity": 93}, {"time": 6378, "pitch": 60, "duration": 3, "velocity": 102}, {"time": 6378, "pitch": 65, "duration": 3, "velocity": 100}, {"time": 6378, "pitch": 69, "duration": 3, "velocity": 97}, {"time": 6384, "pitch": 60, "duration": 5, "velocity": 79}, {"time": 6384, "pitch": 65, "duration": 4, "velocity": 89}, {"time": 6384, "pitch": 69, "duration": 4, "velocity": 82}, {"time": 6390, "pitch": 53, "duration": 14, "velocity": 99}, {"time": 6396, "pitch": 60, "duration": 8, "velocity": 95}, {"time": 6396, "pitch": 65, "duration": 7, "velocity": 100}, {"time": 6396, "pitch": 69, "duration": 8, "velocity": 96}, {"time": 6408, "pitch": 60, "duration": 6, "velocity": 96}, {"time": 6408, "pitch": 65, "duration": 6, "velocity": 97}, {"time": 6408, "pitch": 69, "duration": 7, "velocity": 93}, {"time": 6414, "pitch": 40, "duration": 17, "velocity": 88}, {"time": 6426, "pitch": 64, "duration": 3, "velocity": 100}, {"time": 6426, "pitch": 67, "duration": 3, "velocity": 112}, {"time": 6426, "pitch": 71, "duration": 3, "velocity": 100}, {"time": 6432, "pitch": 64, "duration": 5, "velocity": 78}, {"time": 6432, "pitch": 67, "duration": 5, "velocity": 88}, {"time": 6432, "pitch": 71, "duration": 5, "velocity": 83}, {"time": 6438, "pitch": 52, "duration": 18, "velocity": 97}, {"time": 6444, "pitch": 64, "duration": 8, "velocity": 92}, {"time": 6444, "pitch": 67, "duration": 7, "velocity": 97}, {"time": 6444, "pitch": 71, "duration": 8, "velocity": 93}, {"time": 6456, "pitch": 64, "duration": 7, "velocity": 99}, {"time": 6456, "pitch": 67, "duration": 5, "velocity": 100}, {"time": 6456, "pitch": 71, "duration": 6, "velocity": 100}, {"time": 6462, "pitch": 38, "duration": 16, "velocity": 82}, {"time": 6474, "pitch": 62, "duration": 3, "velocity": 99}, {"time": 6474, "pitch": 65, "duration": 2, "velocity": 99}, {"time": 6474, "pitch": 69, "duration": 3, "velocity": 82}, {"time": 6480, "pitch": 62, "duration": 4, "velocity": 85}, {"time": 6480, "pitch": 65, "duration": 4, "velocity": 95}, {"time": 6480, "pitch": 69, "duration": 4, "velocity": 90}, {"time": 6486, "pitch": 50, "duration": 21, "velocity": 97}, {"time": 6492, "pitch": 62, "duration": 7, "velocity": 97}, {"time": 6492, "pitch": 65, "duration": 6, "velocity": 100}, {"time": 6492, "pitch": 69, "duration": 7, "velocity": 97}, {"time": 6504, "pitch": 62, "duration": 8, "velocity": 90}, {"time": 6504, "pitch": 65, "duration": 8, "velocity": 97}, {"time": 6504, "pitch": 69, "duration": 7, "velocity": 92}, {"time": 6510, "pitch": 43, "duration": 20, "velocity": 89}, {"time": 6522, "pitch": 62, "duration": 4, "velocity": 99}, {"time": 6522, "pitch": 67, "duration": 3, "velocity": 122}, {"time": 6522, "pitch": 71, "duration": 3, "velocity": 107}, {"time": 6528, "pitch": 62, "duration": 4, "velocity": 89}, {"time": 6528, "pitch": 67, "duration": 5, "velocity": 102}, {"time": 6528, "pitch": 71, "duration": 5, "velocity": 95}, {"time": 6534, "pitch": 50, "duration": 11, "velocity": 59}, {"time": 6534, "pitch": 55, "duration": 10, "velocity": 100}, {"time": 6540, "pitch": 62, "duration": 5, "velocity": 100}, {"time": 6540, "pitch": 67, "duration": 5, "velocity": 117}, {"time": 6540, "pitch": 71, "duration": 6, "velocity": 100}, {"time": 6552, "pitch": 62, "duration": 4, "velocity": 102}, {"time": 6552, "pitch": 67, "duration": 3, "velocity": 122}, {"time": 6552, "pitch": 71, "duration": 4, "velocity": 100}, {"time": 6558, "pitch": 36, "duration": 17, "velocity": 97}, {"time": 6570, "pitch": 60, "duration": 3, "velocity": 97}, {"time": 6570, "pitch": 64, "duration": 3, "velocity": 102}, {"time": 6570, "pitch": 67, "duration": 3, "velocity": 99}, {"time": 6576, "pitch": 60, "duration": 4, "velocity": 85}, {"time": 6576, "pitch": 64, "duration": 4, "velocity": 96}, {"time": 6576, "pitch": 67, "duration": 4, "velocity": 89}, {"time": 6582, "pitch": 48, "duration": 16, "velocity": 97}, {"time": 6588, "pitch": 60, "duration": 4, "velocity": 107}, {"time": 6588, "pitch": 64, "duration": 4, "velocity": 102}, {"time": 6588, "pitch": 67, "duration": 5, "velocity": 97}, {"time": 6600, "pitch": 60, "duration": 4, "velocity": 99}, {"time": 6600, "pitch": 64, "duration": 4, "velocity": 99}, {"time": 6600, "pitch": 67, "duration": 5, "velocity": 95}, {"time": 6606, "pitch": 36, "duration": 18, "velocity": 81}, {"time": 6618, "pitch": 60, "duration": 3, "velocity": 99}, {"time": 6618, "pitch": 64, "duration": 3, "velocity": 102}, {"time": 6618, "pitch": 67, "duration": 3, "velocity": 95}, {"time": 6624, "pitch": 60, "duration": 4, "velocity": 88}, {"time": 6624, "pitch": 64, "duration": 4, "velocity": 89}, {"time": 6624, "pitch": 67, "duration": 4, "velocity": 86}, {"time": 6630, "pitch": 48, "duration": 15, "velocity": 93}, {"time": 6636, "pitch": 60, "duration": 5, "velocity": 96}, {"time": 6636, "pitch": 64, "duration": 5, "velocity": 99}, {"time": 6636, "pitch": 67, "duration": 6, "velocity": 92}, {"time": 6648, "pitch": 60, "duration": 6, "velocity": 97}, {"time": 6648, "pitch": 64, "duration": 5, "velocity": 99}, {"time": 6648, "pitch": 67, "duration": 6, "velocity": 99}, {"time": 6654, "pitch": 36, "duration": 18, "velocity": 77}, {"time": 6666, "pitch": 55, "duration": 3, "velocity": 96}, {"time": 6666, "pitch": 60, "duration": 4, "velocity": 89}, {"time": 6666, "pitch": 64, "duration": 4, "velocity": 82}, {"time": 6672, "pitch": 55, "duration": 5, "velocity": 66}, {"time": 6672, "pitch": 60, "duration": 5, "velocity": 86}, {"time": 6672, "pitch": 64, "duration": 5, "velocity": 83}, {"time": 6678, "pitch": 48, "duration": 16, "velocity": 83}, {"time": 6684, "pitch": 55, "duration": 6, "velocity": 95}, {"time": 6684, "pitch": 60, "duration": 6, "velocity": 100}, {"time": 6684, "pitch": 64, "duration": 6, "velocity": 96}, {"time": 6696, "pitch": 55, "duration": 6, "velocity": 96}, {"time": 6696, "pitch": 60, "duration": 6, "velocity": 102}, {"time": 6696, "pitch": 64, "duration": 6, "velocity": 97}, {"time": 6702, "pitch": 36, "duration": 14, "velocity": 96}], "annotations": [{"time": 242, "annotation": {"number": 64, "value": 127}, "group": "control_change"}, {"time": 265, "annotation": {"number": 64, "value": 0}, "group": "control_change"}, {"time": 270, "annotation": {"number": 64, "value": 127}, "group": "control_change"}, {"time": 314, "annotation": {"number": 64, "value": 0}, "group": "control_change"}, {"time": 318, "annotation": {"number": 64, "value": 127}, "group": "control_change"}, {"time": 352, "annotation": {"number": 64, "value": 0}, "group": "control_change"}, {"time": 354, "annotation": {"number": 64, "value": 127}, "group": "control_change"}, {"time": 360, "annotation": {"number": 64, "value": 0}, "group": "control_change"}, {"time": 415, "annotation": {"number": 64, "value": 127}, "group": "control_change"}, {"time": 420, "annotation": {"number": 64, "value": 0}, "group": "control_change"}, {"time": 434, "annotation": {"number": 64, "value": 127}, "group": "control_change"}, {"time": 448, "annotation": {"number": 64, "value": 0}, "group": "control_change"}, {"time": 451, "annotation": {"number": 64, "value": 127}, "group": "control_change"}, {"time": 457, "annotation": {"number": 64, "value": 0}, "group": "control_change"}, {"time": 465, "annotation": {"number": 64, "value": 127}, "group": "control_change"}, {"time": 468, "annotation": {"number": 64, "value": 0}, "group": "control_change"}, {"time": 486, "annotation": {"number": 64, "value": 127}, "group": "control_change"}, {"time": 490, "annotation": {"number": 64, "value": 0}, "group": "control_change"}, {"time": 608, "annotation": {"number": 64, "value": 127}, "group": "control_change"}, {"time": 612, "annotation": {"number": 64, "value": 0}, "group": "control_change"}, {"time": 631, "annotation": {"number": 64, "value": 127}, "group": "control_change"}, {"time": 636, "annotation": {"number": 64, "value": 0}, "group": "control_change"}, {"time": 654, "annotation": {"number": 64, "value": 127}, "group": "control_change"}, {"time": 655, "annotation": {"number": 64, "value": 0}, "group": "control_change"}, {"time": 705, "annotation": {"number": 64, "value": 127}, "group": "control_change"}, {"time": 706, "annotation": {"number": 64, "value": 0}, "group": "control_change"}, {"time": 798, "annotation": {"number": 64, "value": 127}, "group": "control_change"}, {"time": 802, "annotation": {"number": 64, "value": 0}, "group": "control_change"}, {"time": 824, "annotation": {"number": 64, "value": 127}, "group": "control_change"}, {"time": 826, "annotation": {"number": 64, "value": 0}, "group": "control_change"}, {"time": 871, "annotation": {"number": 64, "value": 127}, "group": "control_change"}, {"time": 873, "annotation": {"number": 64, "value": 0}, "group": "control_change"}, {"time": 895, "annotation": {"number": 64, "value": 127}, "group": "control_change"}, {"time": 910, "annotation": {"number": 64, "value": 0}, "group": "control_change"}, {"time": 919, "annotation": {"number": 64, "value": 127}, "group": "control_change"}, {"time": 934, "annotation": {"number": 64, "value": 0}, "group": "control_change"}, {"time": 943, "annotation": {"number": 64, "value": 127}, "group": "control_change"}, {"time": 949, "annotation": {"number": 64, "value": 0}, "group": "control_change"}, {"time": 967, "annotation": {"number": 64, "value": 127}, "group": "control_change"}, {"time": 974, "annotation": {"number": 64, "value": 0}, "group": "control_change"}, {"time": 991, "annotation": {"number": 64, "value": 127}, "group": "control_change"}, {"time": 995, "annotation": {"number": 64, "value": 0}, "group": "control_change"}, {"time": 1017, "annotation": {"number": 64, "value": 127}, "group": "control_change"}, {"time": 1025, "annotation": {"number": 64, "value": 0}, "group": "control_change"}, {"time": 1063, "annotation": {"number": 64, "value": 127}, "group": "control_change"}, {"time": 1075, "annotation": {"number": 64, "value": 0}, "group": "control_change"}, {"time": 1086, "annotation": {"number": 64, "value": 127}, "group": "control_change"}, {"time": 1088, "annotation": {"number": 64, "value": 0}, "group": "control_change"}, {"time": 1277, "annotation": {"number": 64, "value": 127}, "group": "control_change"}, {"time": 1285, "annotation": {"number": 64, "value": 0}, "group": "control_change"}, {"time": 1301, "annotation": {"number": 64, "value": 127}, "group": "control_change"}, {"time": 1307, "annotation": {"number": 64, "value": 0}, "group": "control_change"}, {"time": 1326, "annotation": {"number": 64, "value": 127}, "group": "control_change"}, {"time": 1334, "annotation": {"number": 64, "value": 0}, "group": "control_change"}, {"time": 1350, "annotation": {"number": 64, "value": 127}, "group": "control_change"}, {"time": 1364, "annotation": {"number": 64, "value": 0}, "group": "control_change"}, {"time": 1374, "annotation": {"number": 64, "value": 127}, "group": "control_change"}, {"time": 1386, "annotation": {"number": 64, "value": 0}, "group": "control_change"}, {"time": 1400, "annotation": {"number": 64, "value": 127}, "group": "control_change"}, {"time": 1413, "annotation": {"number": 64, "value": 0}, "group": "control_change"}, {"time": 1422, "annotation": {"number": 64, "value": 127}, "group": "control_change"}, {"time": 1440, "annotation": {"number": 64, "value": 0}, "group": "control_change"}, {"time": 1448, "annotation": {"number": 64, "value": 127}, "group": "control_change"}, {"time": 1456, "annotation": {"number": 64, "value": 0}, "group": "control_change"}, {"time": 1471, "annotation": {"number": 64, "value": 127}, "group": "control_change"}, {"time": 1488, "annotation": {"number": 64, "value": 0}, "group": "control_change"}, {"time": 1496, "annotation": {"number": 64, "value": 127}, "group": "control_change"}, {"time": 1503, "annotation": {"number": 64, "value": 0}, "group": "control_change"}, {"time": 1518, "annotation": {"number": 64, "value": 127}, "group": "control_change"}, {"time": 1536, "annotation": {"number": 64, "value": 0}, "group": "control_change"}, {"time": 1544, "annotation": {"number": 64, "value": 127}, "group": "control_change"}, {"time": 1550, "annotation": {"number": 64, "value": 0}, "group": "control_change"}, {"time": 1567, "annotation": {"number": 64, "value": 127}, "group": "control_change"}, {"time": 1580, "annotation": {"number": 64, "value": 0}, "group": "control_change"}, {"time": 1591, "annotation": {"number": 64, "value": 127}, "group": "control_change"}, {"time": 1602, "annotation": {"number": 64, "value": 0}, "group": "control_change"}, {"time": 1613, "annotation": {"number": 64, "value": 127}, "group": "control_change"}, {"time": 1624, "annotation": {"number": 64, "value": 0}, "group": "control_change"}, {"time": 1639, "annotation": {"number": 64, "value": 127}, "group": "control_change"}, {"time": 1647, "annotation": {"number": 64, "value": 0}, "group": "control_change"}, {"time": 1662, "annotation": {"number": 64, "value": 127}, "group": "control_change"}, {"time": 1670, "annotation": {"number": 64, "value": 0}, "group": "control_change"}, {"time": 1686, "annotation": {"number": 64, "value": 127}, "group": "control_change"}, {"time": 1694, "annotation": {"number": 64, "value": 0}, "group": "control_change"}, {"time": 1709, "annotation": {"number": 64, "value": 127}, "group": "control_change"}, {"time": 1718, "annotation": {"number": 64, "value": 0}, "group": "control_change"}, {"time": 1735, "annotation": {"number": 64, "value": 127}, "group": "control_change"}, {"time": 1743, "annotation": {"number": 64, "value": 0}, "group": "control_change"}, {"time": 1758, "annotation": {"number": 64, "value": 127}, "group": "control_change"}, {"time": 1772, "annotation": {"number": 64, "value": 0}, "group": "control_change"}, {"time": 1784, "annotation": {"number": 64, "value": 127}, "group": "control_change"}, {"time": 1795, "annotation": {"number": 64, "value": 0}, "group": "control_change"}, {"time": 1806, "annotation": {"number": 64, "value": 127}, "group": "control_change"}, {"time": 1823, "annotation": {"number": 64, "value": 0}, "group": "control_change"}, {"time": 1832, "annotation": {"number": 64, "value": 127}, "group": "control_change"}, {"time": 1837, "annotation": {"number": 64, "value": 0}, "group": "control_change"}, {"time": 1854, "annotation": {"number": 64, "value": 127}, "group": "control_change"}, {"time": 1870, "annotation": {"number": 64, "value": 0}, "group": "control_change"}, {"time": 1880, "annotation": {"number": 64, "value": 127}, "group": "control_change"}, {"time": 1891, "annotation": {"number": 64, "value": 0}, "group": "control_change"}, {"time": 1904, "annotation": {"number": 64, "value": 127}, "group": "control_change"}, {"time": 1917, "annotation": {"number": 64, "value": 0}, "group": "control_change"}, {"time": 1925, "annotation": {"number": 64, "value": 127}, "group": "control_change"}, {"time": 1939, "annotation": {"number": 64, "value": 0}, "group": "control_change"}, {"time": 1952, "annotation": {"number": 64, "value": 127}, "group": "control_change"}, {"time": 1965, "annotation": {"number": 64, "value": 0}, "group": "control_change"}, {"time": 1974, "annotation": {"number": 64, "value": 127}, "group": "control_change"}, {"time": 1985, "annotation": {"number": 64, "value": 0}, "group": "control_change"}, {"time": 1997, "annotation": {"number": 64, "value": 127}, "group": "control_change"}, {"time": 2012, "annotation": {"number": 64, "value": 0}, "group": "control_change"}, {"time": 2021, "annotation": {"number": 64, "value": 127}, "group": "control_change"}, {"time": 2027, "annotation": {"number": 64, "value": 0}, "group": "control_change"}, {"time": 2141, "annotation": {"number": 64, "value": 127}, "group": "control_change"}, {"time": 2159, "annotation": {"number": 64, "value": 0}, "group": "control_change"}, {"time": 2166, "annotation": {"number": 64, "value": 127}, "group": "control_change"}, {"time": 2178, "annotation": {"number": 64, "value": 0}, "group": "control_change"}, {"time": 2239, "annotation": {"number": 64, "value": 127}, "group": "control_change"}, {"time": 2244, "annotation": {"number": 64, "value": 0}, "group": "control_change"}, {"time": 2258, "annotation": {"number": 64, "value": 127}, "group": "control_change"}, {"time": 2272, "annotation": {"number": 64, "value": 0}, "group": "control_change"}, {"time": 2275, "annotation": {"number": 64, "value": 127}, "group": "control_change"}, {"time": 2281, "annotation": {"number": 64, "value": 0}, "group": "control_change"}, {"time": 2289, "annotation": {"number": 64, "value": 127}, "group": "control_change"}, {"time": 2292, "annotation": {"number": 64, "value": 0}, "group": "control_change"}, {"time": 2310, "annotation": {"number": 64, "value": 127}, "group": "control_change"}, {"time": 2314, "annotation": {"number": 64, "value": 0}, "group": "control_change"}, {"time": 2432, "annotation": {"number": 64, "value": 127}, "group": "control_change"}, {"time": 2436, "annotation": {"number": 64, "value": 0}, "group": "control_change"}, {"time": 2455, "annotation": {"number": 64, "value": 127}, "group": "control_change"}, {"time": 2460, "annotation": {"number": 64, "value": 0}, "group": "control_change"}, {"time": 2478, "annotation": {"number": 64, "value": 127}, "group": "control_change"}, {"time": 2479, "annotation": {"number": 64, "value": 0}, "group": "control_change"}, {"time": 2529, "annotation": {"number": 64, "value": 127}, "group": "control_change"}, {"time": 2530, "annotation": {"number": 64, "value": 0}, "group": "control_change"}, {"time": 2622, "annotation": {"number": 64, "value": 127}, "group": "control_change"}, {"time": 2626, "annotation": {"number": 64, "value": 0}, "group": "control_change"}, {"time": 2648, "annotation": {"number": 64, "value": 127}, "group": "control_change"}, {"time": 2650, "annotation": {"number": 64, "value": 0}, "group": "control_change"}, {"time": 2695, "annotation": {"number": 64, "value": 127}, "group": "control_change"}, {"time": 2697, "annotation": {"number": 64, "value": 0}, "group": "control_change"}, {"time": 2719, "annotation": {"number": 64, "value": 127}, "group": "control_change"}, {"time": 2734, "annotation": {"number": 64, "value": 0}, "group": "control_change"}, {"time": 2743, "annotation": {"number": 64, "value": 127}, "group": "control_change"}, {"time": 2758, "annotation": {"number": 64, "value": 0}, "group": "control_change"}, {"time": 2767, "annotation": {"number": 64, "value": 127}, "group": "control_change"}, {"time": 2773, "annotation": {"number": 64, "value": 0}, "group": "control_change"}, {"time": 2791, "annotation": {"number": 64, "value": 127}, "group": "control_change"}, {"time": 2798, "annotation": {"number": 64, "value": 0}, "group": "control_change"}, {"time": 2815, "annotation": {"number": 64, "value": 127}, "group": "control_change"}, {"time": 2819, "annotation": {"number": 64, "value": 0}, "group": "control_change"}, {"time": 2841, "annotation": {"number": 64, "value": 127}, "group": "control_change"}, {"time": 2849, "annotation": {"number": 64, "value": 0}, "group": "control_change"}, {"time": 2887, "annotation": {"number": 64, "value": 127}, "group": "control_change"}, {"time": 2899, "annotation": {"number": 64, "value": 0}, "group": "control_change"}, {"time": 2910, "annotation": {"number": 64, "value": 127}, "group": "control_change"}, {"time": 2912, "annotation": {"number": 64, "value": 0}, "group": "control_change"}, {"time": 3101, "annotation": {"number": 64, "value": 127}, "group": "control_change"}, {"time": 3109, "annotation": {"number": 64, "value": 0}, "group": "control_change"}, {"time": 3125, "annotation": {"number": 64, "value": 127}, "group": "control_change"}, {"time": 3131, "annotation": {"number": 64, "value": 0}, "group": "control_change"}, {"time": 3150, "annotation": {"number": 64, "value": 127}, "group": "control_change"}, {"time": 3158, "annotation": {"number": 64, "value": 0}, "group": "control_change"}, {"time": 3174, "annotation": {"number": 64, "value": 127}, "group": "control_change"}, {"time": 3188, "annotation": {"number": 64, "value": 0}, "group": "control_change"}, {"time": 3198, "annotation": {"number": 64, "value": 127}, "group": "control_change"}, {"time": 3210, "annotation": {"number": 64, "value": 0}, "group": "control_change"}, {"time": 3224, "annotation": {"number": 64, "value": 127}, "group": "control_change"}, {"time": 3237, "annotation": {"number": 64, "value": 0}, "group": "control_change"}, {"time": 3246, "annotation": {"number": 64, "value": 127}, "group": "control_change"}, {"time": 3264, "annotation": {"number": 64, "value": 0}, "group": "control_change"}, {"time": 3272, "annotation": {"number": 64, "value": 127}, "group": "control_change"}, {"time": 3280, "annotation": {"number": 64, "value": 0}, "group": "control_change"}, {"time": 3295, "annotation": {"number": 64, "value": 127}, "group": "control_change"}, {"time": 3312, "annotation": {"number": 64, "value": 0}, "group": "control_change"}, {"time": 3320, "annotation": {"number": 64, "value": 127}, "group": "control_change"}, {"time": 3327, "annotation": {"number": 64, "value": 0}, "group": "control_change"}, {"time": 3342, "annotation": {"number": 64, "value": 127}, "group": "control_change"}, {"time": 3360, "annotation": {"number": 64, "value": 0}, "group": "control_change"}, {"time": 3368, "annotation": {"number": 64, "value": 127}, "group": "control_change"}, {"time": 3374, "annotation": {"number": 64, "value": 0}, "group": "control_change"}, {"time": 3391, "annotation": {"number": 64, "value": 127}, "group": "control_change"}, {"time": 3404, "annotation": {"number": 64, "value": 0}, "group": "control_change"}, {"time": 3415, "annotation": {"number": 64, "value": 127}, "group": "control_change"}, {"time": 3426, "annotation": {"number": 64, "value": 0}, "group": "control_change"}, {"time": 3437, "annotation": {"number": 64, "value": 127}, "group": "control_change"}, {"time": 3448, "annotation": {"number": 64, "value": 0}, "group": "control_change"}, {"time": 3463, "annotation": {"number": 64, "value": 127}, "group": "control_change"}, {"time": 3471, "annotation": {"number": 64, "value": 0}, "group": "control_change"}, {"time": 3486, "annotation": {"number": 64, "value": 127}, "group": "control_change"}, {"time": 3494, "annotation": {"number": 64, "value": 0}, "group": "control_change"}, {"time": 3510, "annotation": {"number": 64, "value": 127}, "group": "control_change"}, {"time": 3518, "annotation": {"number": 64, "value": 0}, "group": "control_change"}, {"time": 3533, "annotation": {"number": 64, "value": 127}, "group": "control_change"}, {"time": 3542, "annotation": {"number": 64, "value": 0}, "group": "control_change"}, {"time": 3559, "annotation": {"number": 64, "value": 127}, "group": "control_change"}, {"time": 3567, "annotation": {"number": 64, "value": 0}, "group": "control_change"}, {"time": 3582, "annotation": {"number": 64, "value": 127}, "group": "control_change"}, {"time": 3596, "annotation": {"number": 64, "value": 0}, "group": "control_change"}, {"time": 3608, "annotation": {"number": 64, "value": 127}, "group": "control_change"}, {"time": 3619, "annotation": {"number": 64, "value": 0}, "group": "control_change"}, {"time": 3630, "annotation": {"number": 64, "value": 127}, "group": "control_change"}, {"time": 3647, "annotation": {"number": 64, "value": 0}, "group": "control_change"}, {"time": 3656, "annotation": {"number": 64, "value": 127}, "group": "control_change"}, {"time": 3661, "annotation": {"number": 64, "value": 0}, "group": "control_change"}, {"time": 3678, "annotation": {"number": 64, "value": 127}, "group": "control_change"}, {"time": 3694, "annotation": {"number": 64, "value": 0}, "group": "control_change"}, {"time": 3704, "annotation": {"number": 64, "value": 127}, "group": "control_change"}, {"time": 3715, "annotation": {"number": 64, "value": 0}, "group": "control_change"}, {"time": 3728, "annotation": {"number": 64, "value": 127}, "group": "control_change"}, {"time": 3741, "annotation": {"number": 64, "value": 0}, "group": "control_change"}, {"time": 3749, "annotation": {"number": 64, "value": 127}, "group": "control_change"}, {"time": 3763, "annotation": {"number": 64, "value": 0}, "group": "control_change"}, {"time": 3776, "annotation": {"number": 64, "value": 127}, "group": "control_change"}, {"time": 3789, "annotation": {"number": 64, "value": 0}, "group": "control_change"}, {"time": 3798, "annotation": {"number": 64, "value": 127}, "group": "control_change"}, {"time": 3809, "annotation": {"number": 64, "value": 0}, "group": "control_change"}, {"time": 3821, "annotation": {"number": 64, "value": 127}, "group": "control_change"}, {"time": 3836, "annotation": {"number": 64, "value": 0}, "group": "control_change"}, {"time": 3845, "annotation": {"number": 64, "value": 127}, "group": "control_change"}, {"time": 3851, "annotation": {"number": 64, "value": 0}, "group": "control_change"}, {"time": 3965, "annotation": {"number": 64, "value": 127}, "group": "control_change"}, {"time": 3983, "annotation": {"number": 64, "value": 0}, "group": "control_change"}, {"time": 3990, "annotation": {"number": 64, "value": 127}, "group": "control_change"}, {"time": 4002, "annotation": {"number": 64, "value": 0}, "group": "control_change"}, {"time": 5502, "annotation": {"number": 64, "value": 127}, "group": "control_change"}, {"time": 5510, "annotation": {"number": 64, "value": 0}, "group": "control_change"}, {"time": 5525, "annotation": {"number": 64, "value": 127}, "group": "control_change"}, {"time": 5532, "annotation": {"number": 64, "value": 0}, "group": "control_change"}, {"time": 5550, "annotation": {"number": 64, "value": 127}, "group": "control_change"}, {"time": 5558, "annotation": {"number": 64, "value": 0}, "group": "control_change"}, {"time": 5575, "annotation": {"number": 64, "value": 127}, "group": "control_change"}, {"time": 5588, "annotation": {"number": 64, "value": 0}, "group": "control_change"}, {"time": 5599, "annotation": {"number": 64, "value": 127}, "group": "control_change"}, {"time": 5611, "annotation": {"number": 64, "value": 0}, "group": "control_change"}, {"time": 5625, "annotation": {"number": 64, "value": 127}, "group": "control_change"}, {"time": 5638, "annotation": {"number": 64, "value": 0}, "group": "control_change"}, {"time": 5646, "annotation": {"number": 64, "value": 127}, "group": "control_change"}, {"time": 5664, "annotation": {"number": 64, "value": 0}, "group": "control_change"}, {"time": 5672, "annotation": {"number": 64, "value": 127}, "group": "control_change"}, {"time": 5680, "annotation": {"number": 64, "value": 0}, "group": "control_change"}, {"time": 5695, "annotation": {"number": 64, "value": 127}, "group": "control_change"}, {"time": 5712, "annotation": {"number": 64, "value": 0}, "group": "control_change"}, {"time": 5721, "annotation": {"number": 64, "value": 127}, "group": "control_change"}, {"time": 5728, "annotation": {"number": 64, "value": 0}, "group": "control_change"}, {"time": 5743, "annotation": {"number": 64, "value": 127}, "group": "control_change"}, {"time": 5760, "annotation": {"number": 64, "value": 0}, "group": "control_change"}, {"time": 5768, "annotation": {"number": 64, "value": 127}, "group": "control_change"}, {"time": 5774, "annotation": {"number": 64, "value": 0}, "group": "control_change"}, {"time": 5792, "annotation": {"number": 64, "value": 127}, "group": "control_change"}, {"time": 5804, "annotation": {"number": 64, "value": 0}, "group": "control_change"}, {"time": 5815, "annotation": {"number": 64, "value": 127}, "group": "control_change"}, {"time": 5826, "annotation": {"number": 64, "value": 0}, "group": "control_change"}, {"time": 5838, "annotation": {"number": 64, "value": 127}, "group": "control_change"}, {"time": 5849, "annotation": {"number": 64, "value": 0}, "group": "control_change"}, {"time": 5863, "annotation": {"number": 64, "value": 127}, "group": "control_change"}, {"time": 5871, "annotation": {"number": 64, "value": 0}, "group": "control_change"}, {"time": 5886, "annotation": {"number": 64, "value": 127}, "group": "control_change"}, {"time": 5895, "annotation": {"number": 64, "value": 0}, "group": "control_change"}, {"time": 5911, "annotation": {"number": 64, "value": 127}, "group": "control_change"}, {"time": 5919, "annotation": {"number": 64, "value": 0}, "group": "control_change"}, {"time": 5934, "annotation": {"number": 64, "value": 127}, "group": "control_change"}, {"time": 5942, "annotation": {"number": 64, "value": 0}, "group": "control_change"}, {"time": 5959, "annotation": {"number": 64, "value": 127}, "group": "control_change"}, {"time": 5968, "annotation": {"number": 64, "value": 0}, "group": "control_change"}, {"time": 5983, "annotation": {"number": 64, "value": 127}, "group": "control_change"}, {"time": 5997, "annotation": {"number": 64, "value": 0}, "group": "control_change"}, {"time": 6009, "annotation": {"number": 64, "value": 127}, "group": "control_change"}, {"time": 6020, "annotation": {"number": 64, "value": 0}, "group": "control_change"}, {"time": 6030, "annotation": {"number": 64, "value": 127}, "group": "control_change"}, {"time": 6048, "annotation": {"number": 64, "value": 0}, "group": "control_change"}, {"time": 6056, "annotation": {"number": 64, "value": 127}, "group": "control_change"}, {"time": 6061, "annotation": {"number": 64, "value": 0}, "group": "control_change"}, {"time": 6078, "annotation": {"number": 64, "value": 127}, "group": "control_change"}, {"time": 6094, "annotation": {"number": 64, "value": 0}, "group": "control_change"}, {"time": 6105, "annotation": {"number": 64, "value": 127}, "group": "control_change"}, {"time": 6115, "annotation": {"number": 64, "value": 0}, "group": "control_change"}]}]}