{"metadata": {"schema_version": "0.2", "title": "None", "source_filename": "387.mid", "source_format": "midi"}, "resolution": 12, "tempos": [{"time": 0, "qpm": 78.000078000078}, {"time": 156, "qpm": 78.9999657666815}, {"time": 552, "qpm": 78.000078000078}, {"time": 588, "qpm": 77.000077000077}, {"time": 684, "qpm": 78.000078000078}, {"time": 720, "qpm": 78.9999657666815}, {"time": 1068, "qpm": 80.0}, {"time": 1524, "qpm": 78.9999657666815}, {"time": 1548, "qpm": 78.000078000078}, {"time": 1680, "qpm": 80.0}, {"time": 1860, "qpm": 78.9999657666815}, {"time": 2388, "qpm": 80.0}, {"time": 2484, "qpm": 80.99997165000993}, {"time": 2904, "qpm": 78.9999657666815}, {"time": 3048, "qpm": 80.0}, {"time": 3228, "qpm": 80.99997165000993}, {"time": 3336, "qpm": 80.0}, {"time": 3588, "qpm": 78.9999657666815}], "time_signatures": [{"time": 0, "numerator": 1, "denominator": 4}], "tracks": [{"program": 0, "is_drum": false, "name": "MELODY", "notes": [{"time": 410, "pitch": 71, "duration": 4, "velocity": 96}, {"time": 416, "pitch": 71, "duration": 2, "velocity": 99}, {"time": 419, "pitch": 69, "duration": 2, "velocity": 101}, {"time": 422, "pitch": 71, "duration": 17, "velocity": 104}, {"time": 440, "pitch": 69, "duration": 5, "velocity": 113}, {"time": 446, "pitch": 71, "duration": 6, "velocity": 113}, {"time": 452, "pitch": 74, "duration": 4, "velocity": 113}, {"time": 458, "pitch": 76, "duration": 10, "velocity": 97}, {"time": 506, "pitch": 72, "duration": 4, "velocity": 112}, {"time": 512, "pitch": 72, "duration": 1, "velocity": 99}, {"time": 515, "pitch": 72, "duration": 1, "velocity": 89}, {"time": 518, "pitch": 72, "duration": 11, "velocity": 117}, {"time": 536, "pitch": 72, "duration": 5, "velocity": 93}, {"time": 542, "pitch": 74, "duration": 5, "velocity": 96}, {"time": 548, "pitch": 76, "duration": 5, "velocity": 97}, {"time": 554, "pitch": 69, "duration": 25, "velocity": 85}, {"time": 590, "pitch": 71, "duration": 5, "velocity": 100}, {"time": 596, "pitch": 72, "duration": 4, "velocity": 96}, {"time": 602, "pitch": 74, "duration": 17, "velocity": 122}, {"time": 620, "pitch": 74, "duration": 5, "velocity": 117}, {"time": 626, "pitch": 71, "duration": 18, "velocity": 100}, {"time": 647, "pitch": 69, "duration": 7, "velocity": 100}, {"time": 656, "pitch": 67, "duration": 23, "velocity": 100}, {"time": 692, "pitch": 67, "duration": 4, "velocity": 97}, {"time": 698, "pitch": 76, "duration": 15, "velocity": 122}, {"time": 716, "pitch": 76, "duration": 3, "velocity": 122}, {"time": 722, "pitch": 76, "duration": 6, "velocity": 107}, {"time": 734, "pitch": 72, "duration": 2, "velocity": 96}, {"time": 737, "pitch": 74, "duration": 3, "velocity": 85}, {"time": 740, "pitch": 76, "duration": 6, "velocity": 95}, {"time": 746, "pitch": 74, "duration": 40, "velocity": 95}, {"time": 794, "pitch": 71, "duration": 3, "velocity": 112}, {"time": 800, "pitch": 71, "duration": 2, "velocity": 102}, {"time": 803, "pitch": 69, "duration": 2, "velocity": 69}, {"time": 806, "pitch": 71, "duration": 15, "velocity": 97}, {"time": 824, "pitch": 69, "duration": 6, "velocity": 102}, {"time": 830, "pitch": 71, "duration": 5, "velocity": 112}, {"time": 836, "pitch": 74, "duration": 4, "velocity": 122}, {"time": 842, "pitch": 76, "duration": 23, "velocity": 127}, {"time": 890, "pitch": 72, "duration": 3, "velocity": 127}, {"time": 896, "pitch": 72, "duration": 2, "velocity": 122}, {"time": 899, "pitch": 71, "duration": 1, "velocity": 92}, {"time": 902, "pitch": 72, "duration": 12, "velocity": 127}, {"time": 920, "pitch": 72, "duration": 4, "velocity": 102}, {"time": 926, "pitch": 74, "duration": 5, "velocity": 122}, {"time": 932, "pitch": 76, "duration": 4, "velocity": 97}, {"time": 938, "pitch": 69, "duration": 32, "velocity": 117}, {"time": 974, "pitch": 71, "duration": 4, "velocity": 97}, {"time": 977, "pitch": 72, "duration": 5, "velocity": 102}, {"time": 986, "pitch": 74, "duration": 16, "velocity": 127}, {"time": 1010, "pitch": 71, "duration": 6, "velocity": 122}, {"time": 1019, "pitch": 69, "duration": 7, "velocity": 127}, {"time": 1028, "pitch": 67, "duration": 5, "velocity": 102}, {"time": 1034, "pitch": 76, "duration": 24, "velocity": 112}, {"time": 1070, "pitch": 72, "duration": 4, "velocity": 107}, {"time": 1076, "pitch": 74, "duration": 3, "velocity": 112}, {"time": 1082, "pitch": 76, "duration": 20, "velocity": 127}, {"time": 1112, "pitch": 76, "duration": 4, "velocity": 112}, {"time": 1118, "pitch": 78, "duration": 4, "velocity": 122}, {"time": 1124, "pitch": 79, "duration": 4, "velocity": 117}, {"time": 1130, "pitch": 81, "duration": 15, "velocity": 127}, {"time": 1148, "pitch": 74, "duration": 4, "velocity": 122}, {"time": 1154, "pitch": 76, "duration": 10, "velocity": 127}, {"time": 1166, "pitch": 78, "duration": 9, "velocity": 127}, {"time": 1178, "pitch": 79, "duration": 9, "velocity": 127}, {"time": 1184, "pitch": 79, "duration": 3, "velocity": 127}, {"time": 1190, "pitch": 79, "duration": 11, "velocity": 127}, {"time": 1208, "pitch": 79, "duration": 2, "velocity": 127}, {"time": 1214, "pitch": 79, "duration": 3, "velocity": 122}, {"time": 1220, "pitch": 79, "duration": 4, "velocity": 127}, {"time": 1226, "pitch": 76, "duration": 4, "velocity": 127}, {"time": 1232, "pitch": 78, "duration": 2, "velocity": 127}, {"time": 1235, "pitch": 76, "duration": 3, "velocity": 122}, {"time": 1244, "pitch": 76, "duration": 13, "velocity": 122}, {"time": 1262, "pitch": 74, "duration": 4, "velocity": 127}, {"time": 1268, "pitch": 74, "duration": 4, "velocity": 117}, {"time": 1274, "pitch": 76, "duration": 18, "velocity": 127}, {"time": 1304, "pitch": 76, "duration": 4, "velocity": 122}, {"time": 1310, "pitch": 78, "duration": 4, "velocity": 127}, {"time": 1316, "pitch": 79, "duration": 5, "velocity": 122}, {"time": 1322, "pitch": 78, "duration": 20, "velocity": 127}, {"time": 1340, "pitch": 74, "duration": 4, "velocity": 112}, {"time": 1346, "pitch": 76, "duration": 10, "velocity": 127}, {"time": 1358, "pitch": 78, "duration": 7, "velocity": 127}, {"time": 1370, "pitch": 79, "duration": 3, "velocity": 122}, {"time": 1376, "pitch": 79, "duration": 3, "velocity": 117}, {"time": 1382, "pitch": 78, "duration": 3, "velocity": 122}, {"time": 1388, "pitch": 79, "duration": 12, "velocity": 127}, {"time": 1400, "pitch": 79, "duration": 1, "velocity": 127}, {"time": 1406, "pitch": 79, "duration": 3, "velocity": 127}, {"time": 1412, "pitch": 78, "duration": 3, "velocity": 127}, {"time": 1418, "pitch": 76, "duration": 7, "velocity": 122}, {"time": 1427, "pitch": 78, "duration": 5, "velocity": 117}, {"time": 1436, "pitch": 76, "duration": 10, "velocity": 127}, {"time": 1460, "pitch": 74, "duration": 4, "velocity": 107}, {"time": 1466, "pitch": 76, "duration": 14, "velocity": 127}, {"time": 1484, "pitch": 76, "duration": 4, "velocity": 127}, {"time": 1490, "pitch": 74, "duration": 10, "velocity": 127}, {"time": 1502, "pitch": 76, "duration": 5, "velocity": 112}, {"time": 1508, "pitch": 79, "duration": 4, "velocity": 112}, {"time": 1514, "pitch": 79, "duration": 27, "velocity": 122}, {"time": 1898, "pitch": 71, "duration": 4, "velocity": 96}, {"time": 1904, "pitch": 71, "duration": 2, "velocity": 99}, {"time": 1907, "pitch": 69, "duration": 2, "velocity": 101}, {"time": 1910, "pitch": 71, "duration": 17, "velocity": 104}, {"time": 1928, "pitch": 69, "duration": 5, "velocity": 113}, {"time": 1934, "pitch": 71, "duration": 6, "velocity": 113}, {"time": 1940, "pitch": 74, "duration": 4, "velocity": 113}, {"time": 1946, "pitch": 76, "duration": 10, "velocity": 97}, {"time": 1994, "pitch": 72, "duration": 4, "velocity": 112}, {"time": 2000, "pitch": 72, "duration": 1, "velocity": 99}, {"time": 2003, "pitch": 72, "duration": 1, "velocity": 89}, {"time": 2006, "pitch": 72, "duration": 11, "velocity": 117}, {"time": 2024, "pitch": 72, "duration": 5, "velocity": 93}, {"time": 2030, "pitch": 74, "duration": 5, "velocity": 96}, {"time": 2036, "pitch": 76, "duration": 5, "velocity": 97}, {"time": 2042, "pitch": 69, "duration": 25, "velocity": 85}, {"time": 2078, "pitch": 71, "duration": 5, "velocity": 100}, {"time": 2084, "pitch": 72, "duration": 4, "velocity": 96}, {"time": 2090, "pitch": 74, "duration": 17, "velocity": 122}, {"time": 2108, "pitch": 74, "duration": 5, "velocity": 117}, {"time": 2114, "pitch": 71, "duration": 18, "velocity": 100}, {"time": 2135, "pitch": 69, "duration": 7, "velocity": 100}, {"time": 2144, "pitch": 67, "duration": 23, "velocity": 100}, {"time": 2180, "pitch": 67, "duration": 4, "velocity": 97}, {"time": 2186, "pitch": 76, "duration": 15, "velocity": 122}, {"time": 2204, "pitch": 76, "duration": 3, "velocity": 122}, {"time": 2210, "pitch": 76, "duration": 6, "velocity": 107}, {"time": 2222, "pitch": 72, "duration": 2, "velocity": 96}, {"time": 2225, "pitch": 74, "duration": 3, "velocity": 85}, {"time": 2228, "pitch": 76, "duration": 6, "velocity": 95}, {"time": 2234, "pitch": 74, "duration": 40, "velocity": 95}, {"time": 2282, "pitch": 71, "duration": 3, "velocity": 112}, {"time": 2288, "pitch": 71, "duration": 2, "velocity": 102}, {"time": 2291, "pitch": 69, "duration": 2, "velocity": 69}, {"time": 2294, "pitch": 71, "duration": 15, "velocity": 97}, {"time": 2312, "pitch": 69, "duration": 6, "velocity": 102}, {"time": 2318, "pitch": 71, "duration": 5, "velocity": 112}, {"time": 2324, "pitch": 74, "duration": 4, "velocity": 122}, {"time": 2330, "pitch": 76, "duration": 23, "velocity": 127}, {"time": 2378, "pitch": 72, "duration": 3, "velocity": 127}, {"time": 2384, "pitch": 72, "duration": 2, "velocity": 122}, {"time": 2387, "pitch": 71, "duration": 1, "velocity": 92}, {"time": 2390, "pitch": 72, "duration": 12, "velocity": 127}, {"time": 2408, "pitch": 72, "duration": 4, "velocity": 102}, {"time": 2414, "pitch": 74, "duration": 5, "velocity": 122}, {"time": 2420, "pitch": 76, "duration": 4, "velocity": 97}, {"time": 2426, "pitch": 69, "duration": 32, "velocity": 117}, {"time": 2462, "pitch": 71, "duration": 4, "velocity": 97}, {"time": 2465, "pitch": 72, "duration": 5, "velocity": 102}, {"time": 2474, "pitch": 74, "duration": 16, "velocity": 127}, {"time": 2498, "pitch": 71, "duration": 6, "velocity": 122}, {"time": 2507, "pitch": 69, "duration": 7, "velocity": 127}, {"time": 2516, "pitch": 67, "duration": 5, "velocity": 102}, {"time": 2522, "pitch": 76, "duration": 24, "velocity": 112}, {"time": 2558, "pitch": 72, "duration": 4, "velocity": 107}, {"time": 2564, "pitch": 74, "duration": 3, "velocity": 112}, {"time": 2570, "pitch": 76, "duration": 20, "velocity": 127}, {"time": 2600, "pitch": 76, "duration": 4, "velocity": 112}, {"time": 2606, "pitch": 78, "duration": 4, "velocity": 122}, {"time": 2612, "pitch": 79, "duration": 4, "velocity": 117}, {"time": 2618, "pitch": 81, "duration": 15, "velocity": 127}, {"time": 2636, "pitch": 74, "duration": 4, "velocity": 122}, {"time": 2642, "pitch": 76, "duration": 10, "velocity": 127}, {"time": 2654, "pitch": 78, "duration": 9, "velocity": 127}, {"time": 2666, "pitch": 79, "duration": 9, "velocity": 127}, {"time": 2672, "pitch": 79, "duration": 3, "velocity": 127}, {"time": 2678, "pitch": 79, "duration": 11, "velocity": 127}, {"time": 2696, "pitch": 79, "duration": 2, "velocity": 127}, {"time": 2702, "pitch": 79, "duration": 3, "velocity": 122}, {"time": 2708, "pitch": 79, "duration": 4, "velocity": 127}, {"time": 2714, "pitch": 76, "duration": 4, "velocity": 127}, {"time": 2720, "pitch": 78, "duration": 2, "velocity": 127}, {"time": 2723, "pitch": 76, "duration": 3, "velocity": 122}, {"time": 2732, "pitch": 76, "duration": 13, "velocity": 122}, {"time": 2750, "pitch": 74, "duration": 4, "velocity": 127}, {"time": 2756, "pitch": 74, "duration": 4, "velocity": 117}, {"time": 2762, "pitch": 76, "duration": 18, "velocity": 127}, {"time": 2792, "pitch": 76, "duration": 4, "velocity": 122}, {"time": 2798, "pitch": 78, "duration": 4, "velocity": 127}, {"time": 2804, "pitch": 79, "duration": 5, "velocity": 122}, {"time": 2810, "pitch": 78, "duration": 20, "velocity": 127}, {"time": 2828, "pitch": 74, "duration": 4, "velocity": 112}, {"time": 2834, "pitch": 76, "duration": 10, "velocity": 127}, {"time": 2846, "pitch": 78, "duration": 7, "velocity": 127}, {"time": 2858, "pitch": 79, "duration": 3, "velocity": 122}, {"time": 2864, "pitch": 79, "duration": 3, "velocity": 117}, {"time": 2870, "pitch": 78, "duration": 3, "velocity": 122}, {"time": 2876, "pitch": 79, "duration": 12, "velocity": 127}, {"time": 2888, "pitch": 79, "duration": 1, "velocity": 127}, {"time": 2894, "pitch": 79, "duration": 3, "velocity": 127}, {"time": 2900, "pitch": 78, "duration": 3, "velocity": 127}, {"time": 2906, "pitch": 76, "duration": 7, "velocity": 122}, {"time": 2915, "pitch": 78, "duration": 5, "velocity": 117}, {"time": 2924, "pitch": 76, "duration": 10, "velocity": 127}, {"time": 2948, "pitch": 74, "duration": 4, "velocity": 107}, {"time": 2954, "pitch": 76, "duration": 14, "velocity": 127}, {"time": 2972, "pitch": 76, "duration": 4, "velocity": 127}, {"time": 2978, "pitch": 74, "duration": 10, "velocity": 127}, {"time": 2990, "pitch": 76, "duration": 5, "velocity": 112}, {"time": 2996, "pitch": 79, "duration": 4, "velocity": 112}, {"time": 3002, "pitch": 79, "duration": 27, "velocity": 122}, {"time": 3212, "pitch": 74, "duration": 4, "velocity": 122}, {"time": 3218, "pitch": 76, "duration": 10, "velocity": 127}, {"time": 3230, "pitch": 78, "duration": 9, "velocity": 127}, {"time": 3242, "pitch": 79, "duration": 9, "velocity": 127}, {"time": 3248, "pitch": 79, "duration": 3, "velocity": 127}, {"time": 3254, "pitch": 79, "duration": 11, "velocity": 127}, {"time": 3272, "pitch": 79, "duration": 2, "velocity": 127}, {"time": 3278, "pitch": 79, "duration": 3, "velocity": 122}, {"time": 3284, "pitch": 79, "duration": 4, "velocity": 127}, {"time": 3290, "pitch": 76, "duration": 4, "velocity": 127}, {"time": 3296, "pitch": 78, "duration": 2, "velocity": 127}, {"time": 3299, "pitch": 76, "duration": 3, "velocity": 122}, {"time": 3308, "pitch": 76, "duration": 13, "velocity": 122}, {"time": 3326, "pitch": 74, "duration": 4, "velocity": 127}, {"time": 3332, "pitch": 74, "duration": 4, "velocity": 117}, {"time": 3338, "pitch": 76, "duration": 18, "velocity": 127}, {"time": 3368, "pitch": 76, "duration": 4, "velocity": 122}, {"time": 3374, "pitch": 78, "duration": 4, "velocity": 127}, {"time": 3380, "pitch": 79, "duration": 5, "velocity": 122}, {"time": 3386, "pitch": 78, "duration": 20, "velocity": 127}, {"time": 3404, "pitch": 74, "duration": 4, "velocity": 112}, {"time": 3410, "pitch": 76, "duration": 10, "velocity": 127}, {"time": 3422, "pitch": 78, "duration": 7, "velocity": 127}, {"time": 3434, "pitch": 79, "duration": 3, "velocity": 122}, {"time": 3440, "pitch": 79, "duration": 3, "velocity": 117}, {"time": 3446, "pitch": 78, "duration": 3, "velocity": 122}, {"time": 3452, "pitch": 79, "duration": 12, "velocity": 127}, {"time": 3464, "pitch": 79, "duration": 1, "velocity": 127}, {"time": 3470, "pitch": 79, "duration": 3, "velocity": 127}, {"time": 3476, "pitch": 78, "duration": 3, "velocity": 127}, {"time": 3482, "pitch": 76, "duration": 7, "velocity": 122}, {"time": 3491, "pitch": 78, "duration": 5, "velocity": 117}, {"time": 3500, "pitch": 76, "duration": 10, "velocity": 127}, {"time": 3524, "pitch": 74, "duration": 4, "velocity": 107}, {"time": 3530, "pitch": 76, "duration": 14, "velocity": 127}, {"time": 3548, "pitch": 76, "duration": 4, "velocity": 127}, {"time": 3554, "pitch": 74, "duration": 10, "velocity": 127}, {"time": 3566, "pitch": 76, "duration": 5, "velocity": 112}, {"time": 3572, "pitch": 79, "duration": 4, "velocity": 112}, {"time": 3578, "pitch": 79, "duration": 27, "velocity": 122}]}, {"program": 0, "is_drum": false, "name": "PIANO", "notes": [{"time": 26, "pitch": 43, "duration": 38, "velocity": 85}, {"time": 32, "pitch": 50, "duration": 9, "velocity": 66}, {"time": 38, "pitch": 59, "duration": 23, "velocity": 77}, {"time": 38, "pitch": 62, "duration": 19, "velocity": 69}, {"time": 44, "pitch": 50, "duration": 9, "velocity": 62}, {"time": 50, "pitch": 55, "duration": 12, "velocity": 83}, {"time": 56, "pitch": 50, "duration": 6, "velocity": 69}, {"time": 62, "pitch": 59, "duration": 14, "velocity": 66}, {"time": 62, "pitch": 62, "duration": 14, "velocity": 92}, {"time": 68, "pitch": 55, "duration": 8, "velocity": 69}, {"time": 74, "pitch": 40, "duration": 38, "velocity": 81}, {"time": 80, "pitch": 47, "duration": 32, "velocity": 48}, {"time": 86, "pitch": 55, "duration": 13, "velocity": 69}, {"time": 86, "pitch": 59, "duration": 9, "velocity": 78}, {"time": 92, "pitch": 52, "duration": 8, "velocity": 53}, {"time": 98, "pitch": 59, "duration": 8, "velocity": 72}, {"time": 98, "pitch": 64, "duration": 24, "velocity": 73}, {"time": 104, "pitch": 52, "duration": 6, "velocity": 78}, {"time": 110, "pitch": 59, "duration": 12, "velocity": 78}, {"time": 116, "pitch": 55, "duration": 6, "velocity": 78}, {"time": 122, "pitch": 45, "duration": 38, "velocity": 75}, {"time": 128, "pitch": 52, "duration": 9, "velocity": 56}, {"time": 134, "pitch": 57, "duration": 13, "velocity": 92}, {"time": 140, "pitch": 52, "duration": 8, "velocity": 69}, {"time": 146, "pitch": 60, "duration": 8, "velocity": 73}, {"time": 146, "pitch": 64, "duration": 24, "velocity": 72}, {"time": 152, "pitch": 52, "duration": 7, "velocity": 59}, {"time": 158, "pitch": 60, "duration": 13, "velocity": 93}, {"time": 164, "pitch": 57, "duration": 6, "velocity": 85}, {"time": 170, "pitch": 38, "duration": 47, "velocity": 81}, {"time": 176, "pitch": 45, "duration": 40, "velocity": 61}, {"time": 182, "pitch": 54, "duration": 11, "velocity": 89}, {"time": 188, "pitch": 50, "duration": 8, "velocity": 78}, {"time": 194, "pitch": 54, "duration": 3, "velocity": 73}, {"time": 194, "pitch": 57, "duration": 4, "velocity": 78}, {"time": 200, "pitch": 50, "duration": 9, "velocity": 60}, {"time": 206, "pitch": 62, "duration": 11, "velocity": 95}, {"time": 206, "pitch": 66, "duration": 11, "velocity": 99}, {"time": 212, "pitch": 57, "duration": 5, "velocity": 58}, {"time": 218, "pitch": 43, "duration": 41, "velocity": 81}, {"time": 224, "pitch": 50, "duration": 8, "velocity": 56}, {"time": 227, "pitch": 55, "duration": 20, "velocity": 93}, {"time": 236, "pitch": 50, "duration": 9, "velocity": 69}, {"time": 242, "pitch": 59, "duration": 10, "velocity": 82}, {"time": 242, "pitch": 62, "duration": 7, "velocity": 88}, {"time": 248, "pitch": 50, "duration": 8, "velocity": 61}, {"time": 254, "pitch": 62, "duration": 14, "velocity": 96}, {"time": 260, "pitch": 59, "duration": 7, "velocity": 77}, {"time": 263, "pitch": 55, "duration": 4, "velocity": 63}, {"time": 266, "pitch": 40, "duration": 40, "velocity": 72}, {"time": 272, "pitch": 47, "duration": 32, "velocity": 51}, {"time": 278, "pitch": 55, "duration": 19, "velocity": 82}, {"time": 278, "pitch": 59, "duration": 10, "velocity": 77}, {"time": 284, "pitch": 52, "duration": 8, "velocity": 63}, {"time": 290, "pitch": 59, "duration": 7, "velocity": 74}, {"time": 290, "pitch": 64, "duration": 8, "velocity": 83}, {"time": 296, "pitch": 52, "duration": 7, "velocity": 85}, {"time": 302, "pitch": 59, "duration": 11, "velocity": 99}, {"time": 302, "pitch": 64, "duration": 13, "velocity": 97}, {"time": 305, "pitch": 47, "duration": 2, "velocity": 58}, {"time": 308, "pitch": 55, "duration": 5, "velocity": 81}, {"time": 314, "pitch": 45, "duration": 18, "velocity": 76}, {"time": 320, "pitch": 52, "duration": 9, "velocity": 73}, {"time": 326, "pitch": 60, "duration": 12, "velocity": 100}, {"time": 326, "pitch": 64, "duration": 11, "velocity": 99}, {"time": 332, "pitch": 57, "duration": 5, "velocity": 73}, {"time": 335, "pitch": 45, "duration": 3, "velocity": 72}, {"time": 338, "pitch": 50, "duration": 15, "velocity": 97}, {"time": 344, "pitch": 57, "duration": 7, "velocity": 85}, {"time": 350, "pitch": 62, "duration": 12, "velocity": 93}, {"time": 350, "pitch": 66, "duration": 12, "velocity": 100}, {"time": 356, "pitch": 57, "duration": 5, "velocity": 86}, {"time": 362, "pitch": 43, "duration": 22, "velocity": 74}, {"time": 368, "pitch": 50, "duration": 7, "velocity": 69}, {"time": 374, "pitch": 59, "duration": 6, "velocity": 95}, {"time": 374, "pitch": 62, "duration": 36, "velocity": 95}, {"time": 377, "pitch": 50, "duration": 9, "velocity": 95}, {"time": 380, "pitch": 57, "duration": 4, "velocity": 66}, {"time": 383, "pitch": 43, "duration": 1, "velocity": 81}, {"time": 383, "pitch": 59, "duration": 27, "velocity": 56}, {"time": 410, "pitch": 43, "duration": 42, "velocity": 88}, {"time": 416, "pitch": 50, "duration": 9, "velocity": 64}, {"time": 422, "pitch": 55, "duration": 13, "velocity": 89}, {"time": 428, "pitch": 50, "duration": 9, "velocity": 55}, {"time": 434, "pitch": 59, "duration": 11, "velocity": 82}, {"time": 440, "pitch": 50, "duration": 7, "velocity": 50}, {"time": 446, "pitch": 62, "duration": 11, "velocity": 95}, {"time": 449, "pitch": 50, "duration": 2, "velocity": 57}, {"time": 452, "pitch": 59, "duration": 5, "velocity": 66}, {"time": 455, "pitch": 55, "duration": 2, "velocity": 73}, {"time": 458, "pitch": 40, "duration": 40, "velocity": 72}, {"time": 464, "pitch": 47, "duration": 34, "velocity": 40}, {"time": 470, "pitch": 55, "duration": 25, "velocity": 69}, {"time": 476, "pitch": 52, "duration": 9, "velocity": 50}, {"time": 482, "pitch": 64, "duration": 10, "velocity": 66}, {"time": 488, "pitch": 52, "duration": 5, "velocity": 51}, {"time": 494, "pitch": 59, "duration": 12, "velocity": 78}, {"time": 494, "pitch": 64, "duration": 12, "velocity": 73}, {"time": 500, "pitch": 55, "duration": 6, "velocity": 65}, {"time": 506, "pitch": 45, "duration": 38, "velocity": 78}, {"time": 512, "pitch": 52, "duration": 8, "velocity": 62}, {"time": 518, "pitch": 57, "duration": 24, "velocity": 90}, {"time": 524, "pitch": 52, "duration": 7, "velocity": 50}, {"time": 530, "pitch": 64, "duration": 15, "velocity": 73}, {"time": 536, "pitch": 52, "duration": 7, "velocity": 38}, {"time": 542, "pitch": 60, "duration": 9, "velocity": 100}, {"time": 548, "pitch": 57, "duration": 11, "velocity": 81}, {"time": 554, "pitch": 38, "duration": 37, "velocity": 71}, {"time": 560, "pitch": 45, "duration": 32, "velocity": 44}, {"time": 566, "pitch": 62, "duration": 11, "velocity": 77}, {"time": 572, "pitch": 50, "duration": 9, "velocity": 50}, {"time": 578, "pitch": 66, "duration": 24, "velocity": 93}, {"time": 584, "pitch": 50, "duration": 7, "velocity": 59}, {"time": 590, "pitch": 62, "duration": 12, "velocity": 89}, {"time": 596, "pitch": 57, "duration": 8, "velocity": 76}, {"time": 602, "pitch": 43, "duration": 13, "velocity": 72}, {"time": 608, "pitch": 50, "duration": 8, "velocity": 61}, {"time": 614, "pitch": 59, "duration": 12, "velocity": 85}, {"time": 614, "pitch": 62, "duration": 12, "velocity": 89}, {"time": 620, "pitch": 55, "duration": 6, "velocity": 73}, {"time": 626, "pitch": 47, "duration": 17, "velocity": 86}, {"time": 632, "pitch": 54, "duration": 10, "velocity": 62}, {"time": 638, "pitch": 62, "duration": 13, "velocity": 81}, {"time": 638, "pitch": 66, "duration": 12, "velocity": 97}, {"time": 644, "pitch": 59, "duration": 8, "velocity": 71}, {"time": 650, "pitch": 40, "duration": 38, "velocity": 81}, {"time": 656, "pitch": 47, "duration": 31, "velocity": 58}, {"time": 662, "pitch": 59, "duration": 24, "velocity": 81}, {"time": 662, "pitch": 64, "duration": 5, "velocity": 72}, {"time": 668, "pitch": 52, "duration": 8, "velocity": 59}, {"time": 674, "pitch": 67, "duration": 22, "velocity": 79}, {"time": 680, "pitch": 52, "duration": 4, "velocity": 60}, {"time": 686, "pitch": 64, "duration": 10, "velocity": 82}, {"time": 692, "pitch": 59, "duration": 7, "velocity": 70}, {"time": 698, "pitch": 36, "duration": 41, "velocity": 73}, {"time": 704, "pitch": 43, "duration": 36, "velocity": 56}, {"time": 710, "pitch": 60, "duration": 14, "velocity": 74}, {"time": 710, "pitch": 64, "duration": 17, "velocity": 85}, {"time": 716, "pitch": 55, "duration": 20, "velocity": 83}, {"time": 722, "pitch": 48, "duration": 13, "velocity": 85}, {"time": 728, "pitch": 60, "duration": 7, "velocity": 71}, {"time": 734, "pitch": 64, "duration": 11, "velocity": 86}, {"time": 740, "pitch": 55, "duration": 8, "velocity": 85}, {"time": 746, "pitch": 38, "duration": 38, "velocity": 71}, {"time": 752, "pitch": 45, "duration": 33, "velocity": 60}, {"time": 758, "pitch": 57, "duration": 24, "velocity": 88}, {"time": 764, "pitch": 50, "duration": 9, "velocity": 61}, {"time": 770, "pitch": 62, "duration": 8, "velocity": 75}, {"time": 770, "pitch": 66, "duration": 23, "velocity": 95}, {"time": 776, "pitch": 50, "duration": 11, "velocity": 72}, {"time": 782, "pitch": 62, "duration": 12, "velocity": 86}, {"time": 788, "pitch": 57, "duration": 6, "velocity": 66}, {"time": 794, "pitch": 43, "duration": 42, "velocity": 70}, {"time": 800, "pitch": 50, "duration": 9, "velocity": 59}, {"time": 806, "pitch": 55, "duration": 26, "velocity": 83}, {"time": 812, "pitch": 50, "duration": 9, "velocity": 71}, {"time": 818, "pitch": 59, "duration": 11, "velocity": 85}, {"time": 824, "pitch": 50, "duration": 7, "velocity": 81}, {"time": 830, "pitch": 62, "duration": 12, "velocity": 99}, {"time": 833, "pitch": 50, "duration": 2, "velocity": 66}, {"time": 836, "pitch": 59, "duration": 6, "velocity": 79}, {"time": 839, "pitch": 55, "duration": 3, "velocity": 73}, {"time": 842, "pitch": 40, "duration": 21, "velocity": 76}, {"time": 848, "pitch": 47, "duration": 18, "velocity": 41}, {"time": 854, "pitch": 64, "duration": 12, "velocity": 93}, {"time": 854, "pitch": 67, "duration": 13, "velocity": 93}, {"time": 863, "pitch": 59, "duration": 4, "velocity": 86}, {"time": 866, "pitch": 40, "duration": 17, "velocity": 83}, {"time": 872, "pitch": 47, "duration": 12, "velocity": 78}, {"time": 878, "pitch": 55, "duration": 11, "velocity": 76}, {"time": 878, "pitch": 59, "duration": 11, "velocity": 76}, {"time": 884, "pitch": 52, "duration": 5, "velocity": 82}, {"time": 890, "pitch": 45, "duration": 22, "velocity": 85}, {"time": 896, "pitch": 52, "duration": 18, "velocity": 61}, {"time": 902, "pitch": 64, "duration": 19, "velocity": 93}, {"time": 908, "pitch": 57, "duration": 20, "velocity": 73}, {"time": 911, "pitch": 60, "duration": 13, "velocity": 88}, {"time": 914, "pitch": 45, "duration": 15, "velocity": 69}, {"time": 920, "pitch": 52, "duration": 8, "velocity": 76}, {"time": 926, "pitch": 64, "duration": 11, "velocity": 97}, {"time": 932, "pitch": 60, "duration": 4, "velocity": 90}, {"time": 935, "pitch": 57, "duration": 5, "velocity": 86}, {"time": 938, "pitch": 38, "duration": 21, "velocity": 88}, {"time": 944, "pitch": 45, "duration": 18, "velocity": 51}, {"time": 950, "pitch": 66, "duration": 19, "velocity": 112}, {"time": 956, "pitch": 57, "duration": 15, "velocity": 85}, {"time": 959, "pitch": 62, "duration": 11, "velocity": 86}, {"time": 962, "pitch": 38, "duration": 15, "velocity": 75}, {"time": 968, "pitch": 45, "duration": 8, "velocity": 79}, {"time": 974, "pitch": 66, "duration": 12, "velocity": 117}, {"time": 977, "pitch": 62, "duration": 9, "velocity": 75}, {"time": 980, "pitch": 57, "duration": 6, "velocity": 96}, {"time": 986, "pitch": 43, "duration": 14, "velocity": 88}, {"time": 992, "pitch": 50, "duration": 9, "velocity": 90}, {"time": 998, "pitch": 62, "duration": 11, "velocity": 107}, {"time": 1004, "pitch": 55, "duration": 5, "velocity": 93}, {"time": 1010, "pitch": 47, "duration": 14, "velocity": 86}, {"time": 1016, "pitch": 54, "duration": 7, "velocity": 75}, {"time": 1022, "pitch": 66, "duration": 11, "velocity": 117}, {"time": 1028, "pitch": 59, "duration": 11, "velocity": 93}, {"time": 1034, "pitch": 40, "duration": 18, "velocity": 90}, {"time": 1040, "pitch": 47, "duration": 12, "velocity": 78}, {"time": 1043, "pitch": 59, "duration": 1, "velocity": 16}, {"time": 1043, "pitch": 67, "duration": 12, "velocity": 99}, {"time": 1049, "pitch": 59, "duration": 7, "velocity": 112}, {"time": 1058, "pitch": 38, "duration": 16, "velocity": 89}, {"time": 1064, "pitch": 57, "duration": 8, "velocity": 86}, {"time": 1070, "pitch": 62, "duration": 11, "velocity": 96}, {"time": 1076, "pitch": 57, "duration": 7, "velocity": 78}, {"time": 1082, "pitch": 36, "duration": 43, "velocity": 88}, {"time": 1088, "pitch": 43, "duration": 40, "velocity": 57}, {"time": 1091, "pitch": 64, "duration": 19, "velocity": 102}, {"time": 1097, "pitch": 55, "duration": 7, "velocity": 93}, {"time": 1103, "pitch": 60, "duration": 9, "velocity": 90}, {"time": 1106, "pitch": 48, "duration": 8, "velocity": 72}, {"time": 1109, "pitch": 55, "duration": 13, "velocity": 72}, {"time": 1118, "pitch": 64, "duration": 12, "velocity": 107}, {"time": 1124, "pitch": 60, "duration": 7, "velocity": 107}, {"time": 1130, "pitch": 38, "duration": 38, "velocity": 79}, {"time": 1136, "pitch": 45, "duration": 32, "velocity": 73}, {"time": 1142, "pitch": 62, "duration": 9, "velocity": 102}, {"time": 1148, "pitch": 50, "duration": 9, "velocity": 86}, {"time": 1154, "pitch": 57, "duration": 10, "velocity": 70}, {"time": 1154, "pitch": 62, "duration": 9, "velocity": 107}, {"time": 1160, "pitch": 50, "duration": 5, "velocity": 83}, {"time": 1166, "pitch": 66, "duration": 10, "velocity": 127}, {"time": 1172, "pitch": 62, "duration": 5, "velocity": 97}, {"time": 1175, "pitch": 57, "duration": 2, "velocity": 97}, {"time": 1178, "pitch": 43, "duration": 22, "velocity": 92}, {"time": 1184, "pitch": 50, "duration": 21, "velocity": 89}, {"time": 1184, "pitch": 55, "duration": 7, "velocity": 102}, {"time": 1187, "pitch": 59, "duration": 4, "velocity": 95}, {"time": 1190, "pitch": 67, "duration": 12, "velocity": 122}, {"time": 1193, "pitch": 55, "duration": 2, "velocity": 97}, {"time": 1196, "pitch": 62, "duration": 4, "velocity": 95}, {"time": 1199, "pitch": 59, "duration": 4, "velocity": 99}, {"time": 1202, "pitch": 43, "duration": 18, "velocity": 88}, {"time": 1205, "pitch": 50, "duration": 1, "velocity": 74}, {"time": 1208, "pitch": 55, "duration": 4, "velocity": 92}, {"time": 1211, "pitch": 59, "duration": 3, "velocity": 107}, {"time": 1214, "pitch": 67, "duration": 11, "velocity": 122}, {"time": 1217, "pitch": 50, "duration": 1, "velocity": 85}, {"time": 1220, "pitch": 62, "duration": 5, "velocity": 102}, {"time": 1223, "pitch": 59, "duration": 3, "velocity": 93}, {"time": 1226, "pitch": 40, "duration": 21, "velocity": 81}, {"time": 1229, "pitch": 47, "duration": 10, "velocity": 83}, {"time": 1232, "pitch": 52, "duration": 4, "velocity": 95}, {"time": 1235, "pitch": 55, "duration": 2, "velocity": 78}, {"time": 1238, "pitch": 59, "duration": 11, "velocity": 122}, {"time": 1241, "pitch": 47, "duration": 8, "velocity": 88}, {"time": 1244, "pitch": 55, "duration": 5, "velocity": 97}, {"time": 1247, "pitch": 52, "duration": 2, "velocity": 112}, {"time": 1250, "pitch": 40, "duration": 18, "velocity": 86}, {"time": 1253, "pitch": 47, "duration": 15, "velocity": 93}, {"time": 1256, "pitch": 52, "duration": 7, "velocity": 95}, {"time": 1259, "pitch": 59, "duration": 5, "velocity": 100}, {"time": 1262, "pitch": 67, "duration": 12, "velocity": 122}, {"time": 1265, "pitch": 52, "duration": 4, "velocity": 96}, {"time": 1268, "pitch": 64, "duration": 5, "velocity": 96}, {"time": 1271, "pitch": 59, "duration": 3, "velocity": 99}, {"time": 1274, "pitch": 45, "duration": 21, "velocity": 92}, {"time": 1277, "pitch": 52, "duration": 21, "velocity": 92}, {"time": 1280, "pitch": 57, "duration": 6, "velocity": 95}, {"time": 1283, "pitch": 60, "duration": 5, "velocity": 90}, {"time": 1286, "pitch": 69, "duration": 12, "velocity": 107}, {"time": 1289, "pitch": 57, "duration": 3, "velocity": 97}, {"time": 1292, "pitch": 60, "duration": 7, "velocity": 97}, {"time": 1295, "pitch": 64, "duration": 4, "velocity": 117}, {"time": 1298, "pitch": 45, "duration": 18, "velocity": 95}, {"time": 1301, "pitch": 52, "duration": 11, "velocity": 86}, {"time": 1304, "pitch": 57, "duration": 7, "velocity": 102}, {"time": 1307, "pitch": 60, "duration": 3, "velocity": 89}, {"time": 1310, "pitch": 64, "duration": 9, "velocity": 107}, {"time": 1313, "pitch": 52, "duration": 2, "velocity": 93}, {"time": 1316, "pitch": 60, "duration": 4, "velocity": 122}, {"time": 1319, "pitch": 57, "duration": 4, "velocity": 112}, {"time": 1322, "pitch": 38, "duration": 22, "velocity": 82}, {"time": 1325, "pitch": 45, "duration": 21, "velocity": 79}, {"time": 1328, "pitch": 50, "duration": 6, "velocity": 99}, {"time": 1331, "pitch": 57, "duration": 4, "velocity": 95}, {"time": 1334, "pitch": 66, "duration": 10, "velocity": 127}, {"time": 1337, "pitch": 50, "duration": 3, "velocity": 100}, {"time": 1340, "pitch": 62, "duration": 7, "velocity": 102}, {"time": 1343, "pitch": 57, "duration": 4, "velocity": 107}, {"time": 1346, "pitch": 38, "duration": 17, "velocity": 88}, {"time": 1349, "pitch": 45, "duration": 14, "velocity": 96}, {"time": 1352, "pitch": 50, "duration": 7, "velocity": 99}, {"time": 1355, "pitch": 57, "duration": 4, "velocity": 99}, {"time": 1358, "pitch": 66, "duration": 9, "velocity": 127}, {"time": 1361, "pitch": 50, "duration": 8, "velocity": 96}, {"time": 1364, "pitch": 62, "duration": 4, "velocity": 100}, {"time": 1367, "pitch": 57, "duration": 3, "velocity": 107}, {"time": 1370, "pitch": 43, "duration": 22, "velocity": 78}, {"time": 1373, "pitch": 50, "duration": 10, "velocity": 72}, {"time": 1376, "pitch": 55, "duration": 4, "velocity": 96}, {"time": 1379, "pitch": 59, "duration": 3, "velocity": 99}, {"time": 1382, "pitch": 62, "duration": 10, "velocity": 127}, {"time": 1385, "pitch": 50, "duration": 8, "velocity": 90}, {"time": 1388, "pitch": 59, "duration": 5, "velocity": 112}, {"time": 1391, "pitch": 55, "duration": 2, "velocity": 102}, {"time": 1394, "pitch": 43, "duration": 18, "velocity": 89}, {"time": 1397, "pitch": 50, "duration": 10, "velocity": 88}, {"time": 1400, "pitch": 55, "duration": 3, "velocity": 99}, {"time": 1403, "pitch": 59, "duration": 2, "velocity": 122}, {"time": 1406, "pitch": 62, "duration": 5, "velocity": 117}, {"time": 1409, "pitch": 50, "duration": 3, "velocity": 96}, {"time": 1412, "pitch": 55, "duration": 3, "velocity": 112}, {"time": 1415, "pitch": 54, "duration": 3, "velocity": 117}, {"time": 1418, "pitch": 40, "duration": 22, "velocity": 74}, {"time": 1421, "pitch": 47, "duration": 22, "velocity": 89}, {"time": 1424, "pitch": 52, "duration": 7, "velocity": 90}, {"time": 1427, "pitch": 55, "duration": 2, "velocity": 70}, {"time": 1430, "pitch": 59, "duration": 6, "velocity": 117}, {"time": 1433, "pitch": 52, "duration": 2, "velocity": 99}, {"time": 1436, "pitch": 55, "duration": 4, "velocity": 95}, {"time": 1439, "pitch": 59, "duration": 3, "velocity": 107}, {"time": 1442, "pitch": 40, "duration": 17, "velocity": 79}, {"time": 1445, "pitch": 47, "duration": 15, "velocity": 79}, {"time": 1448, "pitch": 52, "duration": 7, "velocity": 86}, {"time": 1451, "pitch": 59, "duration": 5, "velocity": 112}, {"time": 1454, "pitch": 67, "duration": 12, "velocity": 122}, {"time": 1457, "pitch": 52, "duration": 8, "velocity": 99}, {"time": 1460, "pitch": 64, "duration": 6, "velocity": 97}, {"time": 1463, "pitch": 59, "duration": 3, "velocity": 107}, {"time": 1466, "pitch": 45, "duration": 22, "velocity": 73}, {"time": 1469, "pitch": 52, "duration": 11, "velocity": 86}, {"time": 1472, "pitch": 57, "duration": 3, "velocity": 92}, {"time": 1475, "pitch": 60, "duration": 4, "velocity": 100}, {"time": 1478, "pitch": 64, "duration": 10, "velocity": 122}, {"time": 1481, "pitch": 52, "duration": 7, "velocity": 75}, {"time": 1484, "pitch": 60, "duration": 4, "velocity": 99}, {"time": 1487, "pitch": 57, "duration": 4, "velocity": 95}, {"time": 1490, "pitch": 50, "duration": 14, "velocity": 89}, {"time": 1493, "pitch": 57, "duration": 4, "velocity": 99}, {"time": 1496, "pitch": 62, "duration": 4, "velocity": 107}, {"time": 1499, "pitch": 57, "duration": 4, "velocity": 93}, {"time": 1502, "pitch": 66, "duration": 11, "velocity": 127}, {"time": 1505, "pitch": 62, "duration": 3, "velocity": 72}, {"time": 1508, "pitch": 57, "duration": 4, "velocity": 97}, {"time": 1511, "pitch": 62, "duration": 3, "velocity": 90}, {"time": 1514, "pitch": 43, "duration": 22, "velocity": 89}, {"time": 1517, "pitch": 50, "duration": 22, "velocity": 95}, {"time": 1520, "pitch": 55, "duration": 7, "velocity": 100}, {"time": 1523, "pitch": 59, "duration": 5, "velocity": 97}, {"time": 1526, "pitch": 62, "duration": 7, "velocity": 127}, {"time": 1529, "pitch": 55, "duration": 3, "velocity": 85}, {"time": 1532, "pitch": 57, "duration": 4, "velocity": 82}, {"time": 1535, "pitch": 59, "duration": 4, "velocity": 86}, {"time": 1538, "pitch": 43, "duration": 17, "velocity": 78}, {"time": 1541, "pitch": 50, "duration": 10, "velocity": 73}, {"time": 1544, "pitch": 55, "duration": 3, "velocity": 86}, {"time": 1547, "pitch": 59, "duration": 3, "velocity": 81}, {"time": 1550, "pitch": 62, "duration": 10, "velocity": 127}, {"time": 1553, "pitch": 50, "duration": 2, "velocity": 86}, {"time": 1556, "pitch": 59, "duration": 5, "velocity": 97}, {"time": 1559, "pitch": 55, "duration": 3, "velocity": 86}, {"time": 1562, "pitch": 40, "duration": 21, "velocity": 77}, {"time": 1565, "pitch": 47, "duration": 22, "velocity": 76}, {"time": 1568, "pitch": 52, "duration": 7, "velocity": 92}, {"time": 1571, "pitch": 55, "duration": 4, "velocity": 85}, {"time": 1574, "pitch": 64, "duration": 13, "velocity": 100}, {"time": 1577, "pitch": 52, "duration": 2, "velocity": 90}, {"time": 1580, "pitch": 55, "duration": 5, "velocity": 69}, {"time": 1583, "pitch": 59, "duration": 5, "velocity": 107}, {"time": 1586, "pitch": 40, "duration": 17, "velocity": 72}, {"time": 1589, "pitch": 47, "duration": 14, "velocity": 70}, {"time": 1592, "pitch": 52, "duration": 7, "velocity": 96}, {"time": 1595, "pitch": 55, "duration": 4, "velocity": 89}, {"time": 1598, "pitch": 64, "duration": 12, "velocity": 122}, {"time": 1601, "pitch": 52, "duration": 5, "velocity": 89}, {"time": 1604, "pitch": 59, "duration": 5, "velocity": 93}, {"time": 1607, "pitch": 55, "duration": 3, "velocity": 90}, {"time": 1610, "pitch": 45, "duration": 22, "velocity": 78}, {"time": 1613, "pitch": 52, "duration": 10, "velocity": 66}, {"time": 1616, "pitch": 57, "duration": 4, "velocity": 90}, {"time": 1619, "pitch": 60, "duration": 2, "velocity": 112}, {"time": 1622, "pitch": 64, "duration": 12, "velocity": 112}, {"time": 1625, "pitch": 52, "duration": 9, "velocity": 88}, {"time": 1628, "pitch": 60, "duration": 6, "velocity": 83}, {"time": 1631, "pitch": 57, "duration": 3, "velocity": 82}, {"time": 1634, "pitch": 45, "duration": 17, "velocity": 82}, {"time": 1637, "pitch": 52, "duration": 10, "velocity": 76}, {"time": 1640, "pitch": 57, "duration": 3, "velocity": 93}, {"time": 1643, "pitch": 60, "duration": 3, "velocity": 88}, {"time": 1646, "pitch": 64, "duration": 10, "velocity": 117}, {"time": 1649, "pitch": 52, "duration": 2, "velocity": 88}, {"time": 1652, "pitch": 60, "duration": 5, "velocity": 96}, {"time": 1655, "pitch": 57, "duration": 2, "velocity": 112}, {"time": 1658, "pitch": 38, "duration": 22, "velocity": 89}, {"time": 1661, "pitch": 45, "duration": 21, "velocity": 81}, {"time": 1664, "pitch": 50, "duration": 7, "velocity": 89}, {"time": 1667, "pitch": 57, "duration": 5, "velocity": 90}, {"time": 1670, "pitch": 66, "duration": 10, "velocity": 127}, {"time": 1673, "pitch": 50, "duration": 3, "velocity": 93}, {"time": 1676, "pitch": 62, "duration": 7, "velocity": 89}, {"time": 1679, "pitch": 57, "duration": 8, "velocity": 117}, {"time": 1682, "pitch": 38, "duration": 16, "velocity": 86}, {"time": 1688, "pitch": 45, "duration": 11, "velocity": 75}, {"time": 1688, "pitch": 57, "duration": 3, "velocity": 30}, {"time": 1688, "pitch": 62, "duration": 4, "velocity": 96}, {"time": 1694, "pitch": 62, "duration": 7, "velocity": 122}, {"time": 1694, "pitch": 66, "duration": 12, "velocity": 127}, {"time": 1697, "pitch": 50, "duration": 3, "velocity": 72}, {"time": 1700, "pitch": 57, "duration": 6, "velocity": 112}, {"time": 1706, "pitch": 43, "duration": 22, "velocity": 81}, {"time": 1709, "pitch": 50, "duration": 10, "velocity": 89}, {"time": 1712, "pitch": 55, "duration": 5, "velocity": 95}, {"time": 1715, "pitch": 59, "duration": 5, "velocity": 81}, {"time": 1718, "pitch": 67, "duration": 14, "velocity": 112}, {"time": 1721, "pitch": 50, "duration": 9, "velocity": 71}, {"time": 1724, "pitch": 62, "duration": 9, "velocity": 71}, {"time": 1727, "pitch": 59, "duration": 4, "velocity": 81}, {"time": 1730, "pitch": 43, "duration": 16, "velocity": 61}, {"time": 1733, "pitch": 50, "duration": 10, "velocity": 76}, {"time": 1736, "pitch": 55, "duration": 3, "velocity": 86}, {"time": 1739, "pitch": 59, "duration": 4, "velocity": 92}, {"time": 1742, "pitch": 67, "duration": 11, "velocity": 117}, {"time": 1745, "pitch": 50, "duration": 1, "velocity": 86}, {"time": 1748, "pitch": 62, "duration": 5, "velocity": 96}, {"time": 1751, "pitch": 59, "duration": 3, "velocity": 93}, {"time": 1754, "pitch": 40, "duration": 22, "velocity": 72}, {"time": 1757, "pitch": 47, "duration": 10, "velocity": 69}, {"time": 1760, "pitch": 52, "duration": 4, "velocity": 86}, {"time": 1763, "pitch": 55, "duration": 3, "velocity": 93}, {"time": 1766, "pitch": 59, "duration": 12, "velocity": 107}, {"time": 1769, "pitch": 47, "duration": 9, "velocity": 83}, {"time": 1772, "pitch": 55, "duration": 6, "velocity": 83}, {"time": 1775, "pitch": 52, "duration": 3, "velocity": 82}, {"time": 1778, "pitch": 40, "duration": 17, "velocity": 72}, {"time": 1781, "pitch": 47, "duration": 14, "velocity": 68}, {"time": 1784, "pitch": 52, "duration": 7, "velocity": 82}, {"time": 1787, "pitch": 55, "duration": 2, "velocity": 97}, {"time": 1790, "pitch": 59, "duration": 6, "velocity": 117}, {"time": 1793, "pitch": 52, "duration": 7, "velocity": 89}, {"time": 1796, "pitch": 55, "duration": 4, "velocity": 97}, {"time": 1799, "pitch": 59, "duration": 2, "velocity": 107}, {"time": 1802, "pitch": 45, "duration": 18, "velocity": 81}, {"time": 1805, "pitch": 52, "duration": 10, "velocity": 63}, {"time": 1808, "pitch": 57, "duration": 4, "velocity": 86}, {"time": 1811, "pitch": 60, "duration": 2, "velocity": 92}, {"time": 1814, "pitch": 64, "duration": 9, "velocity": 117}, {"time": 1817, "pitch": 52, "duration": 2, "velocity": 79}, {"time": 1820, "pitch": 60, "duration": 4, "velocity": 112}, {"time": 1823, "pitch": 57, "duration": 4, "velocity": 92}, {"time": 1826, "pitch": 38, "duration": 18, "velocity": 76}, {"time": 1829, "pitch": 45, "duration": 15, "velocity": 88}, {"time": 1832, "pitch": 50, "duration": 7, "velocity": 83}, {"time": 1835, "pitch": 57, "duration": 5, "velocity": 92}, {"time": 1838, "pitch": 66, "duration": 11, "velocity": 127}, {"time": 1841, "pitch": 50, "duration": 8, "velocity": 92}, {"time": 1844, "pitch": 62, "duration": 4, "velocity": 96}, {"time": 1847, "pitch": 57, "duration": 3, "velocity": 92}, {"time": 1850, "pitch": 43, "duration": 18, "velocity": 92}, {"time": 1853, "pitch": 50, "duration": 10, "velocity": 78}, {"time": 1856, "pitch": 55, "duration": 5, "velocity": 95}, {"time": 1859, "pitch": 57, "duration": 4, "velocity": 93}, {"time": 1862, "pitch": 59, "duration": 5, "velocity": 107}, {"time": 1865, "pitch": 50, "duration": 8, "velocity": 89}, {"time": 1868, "pitch": 62, "duration": 5, "velocity": 97}, {"time": 1871, "pitch": 59, "duration": 3, "velocity": 97}, {"time": 1874, "pitch": 43, "duration": 23, "velocity": 78}, {"time": 1874, "pitch": 55, "duration": 22, "velocity": 74}, {"time": 1874, "pitch": 59, "duration": 22, "velocity": 72}, {"time": 1874, "pitch": 62, "duration": 22, "velocity": 88}, {"time": 1898, "pitch": 43, "duration": 42, "velocity": 88}, {"time": 1904, "pitch": 50, "duration": 9, "velocity": 64}, {"time": 1910, "pitch": 55, "duration": 13, "velocity": 89}, {"time": 1916, "pitch": 50, "duration": 9, "velocity": 55}, {"time": 1922, "pitch": 59, "duration": 11, "velocity": 82}, {"time": 1928, "pitch": 50, "duration": 7, "velocity": 50}, {"time": 1934, "pitch": 62, "duration": 11, "velocity": 95}, {"time": 1937, "pitch": 50, "duration": 2, "velocity": 57}, {"time": 1940, "pitch": 59, "duration": 5, "velocity": 66}, {"time": 1943, "pitch": 55, "duration": 2, "velocity": 73}, {"time": 1946, "pitch": 40, "duration": 40, "velocity": 72}, {"time": 1952, "pitch": 47, "duration": 34, "velocity": 40}, {"time": 1958, "pitch": 55, "duration": 25, "velocity": 69}, {"time": 1964, "pitch": 52, "duration": 9, "velocity": 50}, {"time": 1970, "pitch": 64, "duration": 10, "velocity": 66}, {"time": 1976, "pitch": 52, "duration": 5, "velocity": 51}, {"time": 1982, "pitch": 59, "duration": 12, "velocity": 78}, {"time": 1982, "pitch": 64, "duration": 12, "velocity": 73}, {"time": 1988, "pitch": 55, "duration": 6, "velocity": 65}, {"time": 1994, "pitch": 45, "duration": 38, "velocity": 78}, {"time": 2000, "pitch": 52, "duration": 8, "velocity": 62}, {"time": 2006, "pitch": 57, "duration": 24, "velocity": 90}, {"time": 2012, "pitch": 52, "duration": 7, "velocity": 50}, {"time": 2018, "pitch": 64, "duration": 15, "velocity": 73}, {"time": 2024, "pitch": 52, "duration": 7, "velocity": 38}, {"time": 2030, "pitch": 60, "duration": 9, "velocity": 100}, {"time": 2036, "pitch": 57, "duration": 11, "velocity": 81}, {"time": 2042, "pitch": 38, "duration": 37, "velocity": 71}, {"time": 2048, "pitch": 45, "duration": 32, "velocity": 44}, {"time": 2054, "pitch": 62, "duration": 11, "velocity": 77}, {"time": 2060, "pitch": 50, "duration": 9, "velocity": 50}, {"time": 2066, "pitch": 66, "duration": 24, "velocity": 93}, {"time": 2072, "pitch": 50, "duration": 7, "velocity": 59}, {"time": 2078, "pitch": 62, "duration": 12, "velocity": 89}, {"time": 2084, "pitch": 57, "duration": 8, "velocity": 76}, {"time": 2090, "pitch": 43, "duration": 13, "velocity": 72}, {"time": 2096, "pitch": 50, "duration": 8, "velocity": 61}, {"time": 2102, "pitch": 59, "duration": 12, "velocity": 85}, {"time": 2102, "pitch": 62, "duration": 12, "velocity": 89}, {"time": 2108, "pitch": 55, "duration": 6, "velocity": 73}, {"time": 2114, "pitch": 47, "duration": 17, "velocity": 86}, {"time": 2120, "pitch": 54, "duration": 10, "velocity": 62}, {"time": 2126, "pitch": 62, "duration": 13, "velocity": 81}, {"time": 2126, "pitch": 66, "duration": 12, "velocity": 97}, {"time": 2132, "pitch": 59, "duration": 8, "velocity": 71}, {"time": 2138, "pitch": 40, "duration": 38, "velocity": 81}, {"time": 2144, "pitch": 47, "duration": 31, "velocity": 58}, {"time": 2150, "pitch": 59, "duration": 24, "velocity": 81}, {"time": 2150, "pitch": 64, "duration": 5, "velocity": 72}, {"time": 2156, "pitch": 52, "duration": 8, "velocity": 59}, {"time": 2162, "pitch": 67, "duration": 22, "velocity": 79}, {"time": 2168, "pitch": 52, "duration": 4, "velocity": 60}, {"time": 2174, "pitch": 64, "duration": 10, "velocity": 82}, {"time": 2180, "pitch": 59, "duration": 7, "velocity": 70}, {"time": 2186, "pitch": 36, "duration": 41, "velocity": 73}, {"time": 2192, "pitch": 43, "duration": 36, "velocity": 56}, {"time": 2198, "pitch": 60, "duration": 14, "velocity": 74}, {"time": 2198, "pitch": 64, "duration": 17, "velocity": 85}, {"time": 2204, "pitch": 55, "duration": 20, "velocity": 83}, {"time": 2210, "pitch": 48, "duration": 13, "velocity": 85}, {"time": 2216, "pitch": 60, "duration": 7, "velocity": 71}, {"time": 2222, "pitch": 64, "duration": 11, "velocity": 86}, {"time": 2228, "pitch": 55, "duration": 8, "velocity": 85}, {"time": 2234, "pitch": 38, "duration": 38, "velocity": 71}, {"time": 2240, "pitch": 45, "duration": 33, "velocity": 60}, {"time": 2246, "pitch": 57, "duration": 24, "velocity": 88}, {"time": 2252, "pitch": 50, "duration": 9, "velocity": 61}, {"time": 2258, "pitch": 62, "duration": 8, "velocity": 75}, {"time": 2258, "pitch": 66, "duration": 23, "velocity": 95}, {"time": 2264, "pitch": 50, "duration": 11, "velocity": 72}, {"time": 2270, "pitch": 62, "duration": 12, "velocity": 86}, {"time": 2276, "pitch": 57, "duration": 6, "velocity": 66}, {"time": 2282, "pitch": 43, "duration": 42, "velocity": 70}, {"time": 2288, "pitch": 50, "duration": 9, "velocity": 59}, {"time": 2294, "pitch": 55, "duration": 26, "velocity": 83}, {"time": 2300, "pitch": 50, "duration": 9, "velocity": 71}, {"time": 2306, "pitch": 59, "duration": 11, "velocity": 85}, {"time": 2312, "pitch": 50, "duration": 7, "velocity": 81}, {"time": 2318, "pitch": 62, "duration": 12, "velocity": 99}, {"time": 2321, "pitch": 50, "duration": 2, "velocity": 66}, {"time": 2324, "pitch": 59, "duration": 6, "velocity": 79}, {"time": 2327, "pitch": 55, "duration": 3, "velocity": 73}, {"time": 2330, "pitch": 40, "duration": 21, "velocity": 76}, {"time": 2336, "pitch": 47, "duration": 18, "velocity": 41}, {"time": 2342, "pitch": 64, "duration": 12, "velocity": 93}, {"time": 2342, "pitch": 67, "duration": 13, "velocity": 93}, {"time": 2351, "pitch": 59, "duration": 4, "velocity": 86}, {"time": 2354, "pitch": 40, "duration": 17, "velocity": 83}, {"time": 2360, "pitch": 47, "duration": 12, "velocity": 78}, {"time": 2366, "pitch": 55, "duration": 11, "velocity": 76}, {"time": 2366, "pitch": 59, "duration": 11, "velocity": 76}, {"time": 2372, "pitch": 52, "duration": 5, "velocity": 82}, {"time": 2378, "pitch": 45, "duration": 22, "velocity": 85}, {"time": 2384, "pitch": 52, "duration": 18, "velocity": 61}, {"time": 2390, "pitch": 64, "duration": 19, "velocity": 93}, {"time": 2396, "pitch": 57, "duration": 20, "velocity": 73}, {"time": 2399, "pitch": 60, "duration": 13, "velocity": 88}, {"time": 2402, "pitch": 45, "duration": 15, "velocity": 69}, {"time": 2408, "pitch": 52, "duration": 8, "velocity": 76}, {"time": 2414, "pitch": 64, "duration": 11, "velocity": 97}, {"time": 2420, "pitch": 60, "duration": 4, "velocity": 90}, {"time": 2423, "pitch": 57, "duration": 5, "velocity": 86}, {"time": 2426, "pitch": 38, "duration": 21, "velocity": 88}, {"time": 2432, "pitch": 45, "duration": 18, "velocity": 51}, {"time": 2438, "pitch": 66, "duration": 19, "velocity": 112}, {"time": 2444, "pitch": 57, "duration": 15, "velocity": 85}, {"time": 2447, "pitch": 62, "duration": 11, "velocity": 86}, {"time": 2450, "pitch": 38, "duration": 15, "velocity": 75}, {"time": 2456, "pitch": 45, "duration": 8, "velocity": 79}, {"time": 2462, "pitch": 66, "duration": 12, "velocity": 117}, {"time": 2465, "pitch": 62, "duration": 9, "velocity": 75}, {"time": 2468, "pitch": 57, "duration": 6, "velocity": 96}, {"time": 2474, "pitch": 43, "duration": 14, "velocity": 88}, {"time": 2480, "pitch": 50, "duration": 9, "velocity": 90}, {"time": 2486, "pitch": 62, "duration": 11, "velocity": 107}, {"time": 2492, "pitch": 55, "duration": 5, "velocity": 93}, {"time": 2498, "pitch": 47, "duration": 14, "velocity": 86}, {"time": 2504, "pitch": 54, "duration": 7, "velocity": 75}, {"time": 2510, "pitch": 66, "duration": 11, "velocity": 117}, {"time": 2516, "pitch": 59, "duration": 11, "velocity": 93}, {"time": 2522, "pitch": 40, "duration": 18, "velocity": 90}, {"time": 2528, "pitch": 47, "duration": 12, "velocity": 78}, {"time": 2531, "pitch": 59, "duration": 1, "velocity": 16}, {"time": 2531, "pitch": 67, "duration": 12, "velocity": 99}, {"time": 2537, "pitch": 59, "duration": 7, "velocity": 112}, {"time": 2546, "pitch": 38, "duration": 16, "velocity": 89}, {"time": 2549, "pitch": 57, "duration": 8, "velocity": 86}, {"time": 2558, "pitch": 62, "duration": 11, "velocity": 96}, {"time": 2564, "pitch": 57, "duration": 7, "velocity": 78}, {"time": 2567, "pitch": 36, "duration": 43, "velocity": 88}, {"time": 2576, "pitch": 43, "duration": 40, "velocity": 57}, {"time": 2579, "pitch": 64, "duration": 19, "velocity": 102}, {"time": 2585, "pitch": 55, "duration": 7, "velocity": 93}, {"time": 2591, "pitch": 60, "duration": 9, "velocity": 90}, {"time": 2594, "pitch": 48, "duration": 8, "velocity": 72}, {"time": 2597, "pitch": 55, "duration": 13, "velocity": 72}, {"time": 2606, "pitch": 64, "duration": 12, "velocity": 107}, {"time": 2612, "pitch": 60, "duration": 7, "velocity": 107}, {"time": 2618, "pitch": 38, "duration": 38, "velocity": 79}, {"time": 2624, "pitch": 45, "duration": 32, "velocity": 73}, {"time": 2630, "pitch": 62, "duration": 9, "velocity": 102}, {"time": 2636, "pitch": 50, "duration": 9, "velocity": 86}, {"time": 2642, "pitch": 57, "duration": 10, "velocity": 70}, {"time": 2642, "pitch": 62, "duration": 9, "velocity": 107}, {"time": 2648, "pitch": 50, "duration": 5, "velocity": 83}, {"time": 2654, "pitch": 66, "duration": 10, "velocity": 127}, {"time": 2660, "pitch": 62, "duration": 5, "velocity": 97}, {"time": 2663, "pitch": 43, "duration": 22, "velocity": 92}, {"time": 2663, "pitch": 57, "duration": 2, "velocity": 97}, {"time": 2669, "pitch": 50, "duration": 21, "velocity": 89}, {"time": 2672, "pitch": 55, "duration": 7, "velocity": 102}, {"time": 2675, "pitch": 59, "duration": 4, "velocity": 95}, {"time": 2678, "pitch": 67, "duration": 12, "velocity": 122}, {"time": 2681, "pitch": 55, "duration": 2, "velocity": 97}, {"time": 2684, "pitch": 62, "duration": 4, "velocity": 95}, {"time": 2687, "pitch": 59, "duration": 4, "velocity": 99}, {"time": 2690, "pitch": 43, "duration": 18, "velocity": 88}, {"time": 2693, "pitch": 50, "duration": 10, "velocity": 74}, {"time": 2696, "pitch": 55, "duration": 4, "velocity": 92}, {"time": 2699, "pitch": 59, "duration": 3, "velocity": 107}, {"time": 2702, "pitch": 67, "duration": 11, "velocity": 122}, {"time": 2705, "pitch": 50, "duration": 1, "velocity": 85}, {"time": 2708, "pitch": 62, "duration": 5, "velocity": 102}, {"time": 2711, "pitch": 59, "duration": 3, "velocity": 93}, {"time": 2714, "pitch": 40, "duration": 21, "velocity": 81}, {"time": 2717, "pitch": 47, "duration": 10, "velocity": 83}, {"time": 2720, "pitch": 52, "duration": 4, "velocity": 95}, {"time": 2723, "pitch": 55, "duration": 2, "velocity": 78}, {"time": 2726, "pitch": 59, "duration": 11, "velocity": 122}, {"time": 2729, "pitch": 47, "duration": 8, "velocity": 88}, {"time": 2732, "pitch": 55, "duration": 5, "velocity": 97}, {"time": 2735, "pitch": 52, "duration": 2, "velocity": 112}, {"time": 2738, "pitch": 40, "duration": 18, "velocity": 86}, {"time": 2741, "pitch": 47, "duration": 15, "velocity": 93}, {"time": 2744, "pitch": 52, "duration": 7, "velocity": 95}, {"time": 2747, "pitch": 59, "duration": 5, "velocity": 100}, {"time": 2750, "pitch": 67, "duration": 12, "velocity": 122}, {"time": 2753, "pitch": 52, "duration": 4, "velocity": 96}, {"time": 2756, "pitch": 64, "duration": 5, "velocity": 96}, {"time": 2759, "pitch": 59, "duration": 3, "velocity": 99}, {"time": 2762, "pitch": 45, "duration": 21, "velocity": 92}, {"time": 2765, "pitch": 52, "duration": 21, "velocity": 92}, {"time": 2768, "pitch": 57, "duration": 6, "velocity": 95}, {"time": 2771, "pitch": 60, "duration": 5, "velocity": 90}, {"time": 2774, "pitch": 69, "duration": 12, "velocity": 107}, {"time": 2777, "pitch": 57, "duration": 3, "velocity": 97}, {"time": 2780, "pitch": 60, "duration": 7, "velocity": 97}, {"time": 2783, "pitch": 64, "duration": 4, "velocity": 117}, {"time": 2786, "pitch": 45, "duration": 18, "velocity": 95}, {"time": 2789, "pitch": 52, "duration": 11, "velocity": 86}, {"time": 2792, "pitch": 57, "duration": 7, "velocity": 102}, {"time": 2795, "pitch": 60, "duration": 3, "velocity": 89}, {"time": 2798, "pitch": 64, "duration": 9, "velocity": 107}, {"time": 2801, "pitch": 52, "duration": 2, "velocity": 93}, {"time": 2804, "pitch": 60, "duration": 4, "velocity": 122}, {"time": 2807, "pitch": 57, "duration": 4, "velocity": 112}, {"time": 2810, "pitch": 38, "duration": 22, "velocity": 82}, {"time": 2813, "pitch": 45, "duration": 21, "velocity": 79}, {"time": 2816, "pitch": 50, "duration": 6, "velocity": 99}, {"time": 2819, "pitch": 57, "duration": 4, "velocity": 95}, {"time": 2822, "pitch": 66, "duration": 10, "velocity": 127}, {"time": 2825, "pitch": 50, "duration": 3, "velocity": 100}, {"time": 2828, "pitch": 62, "duration": 7, "velocity": 102}, {"time": 2831, "pitch": 57, "duration": 4, "velocity": 107}, {"time": 2834, "pitch": 38, "duration": 17, "velocity": 88}, {"time": 2837, "pitch": 45, "duration": 14, "velocity": 96}, {"time": 2840, "pitch": 50, "duration": 7, "velocity": 99}, {"time": 2843, "pitch": 57, "duration": 4, "velocity": 99}, {"time": 2846, "pitch": 66, "duration": 9, "velocity": 127}, {"time": 2849, "pitch": 50, "duration": 8, "velocity": 96}, {"time": 2852, "pitch": 62, "duration": 4, "velocity": 100}, {"time": 2855, "pitch": 57, "duration": 3, "velocity": 107}, {"time": 2858, "pitch": 43, "duration": 22, "velocity": 78}, {"time": 2861, "pitch": 50, "duration": 10, "velocity": 72}, {"time": 2864, "pitch": 55, "duration": 4, "velocity": 96}, {"time": 2867, "pitch": 59, "duration": 3, "velocity": 99}, {"time": 2870, "pitch": 62, "duration": 10, "velocity": 127}, {"time": 2873, "pitch": 50, "duration": 8, "velocity": 90}, {"time": 2876, "pitch": 59, "duration": 5, "velocity": 112}, {"time": 2879, "pitch": 55, "duration": 2, "velocity": 102}, {"time": 2882, "pitch": 43, "duration": 18, "velocity": 89}, {"time": 2885, "pitch": 50, "duration": 10, "velocity": 88}, {"time": 2888, "pitch": 55, "duration": 3, "velocity": 99}, {"time": 2891, "pitch": 59, "duration": 2, "velocity": 122}, {"time": 2894, "pitch": 62, "duration": 5, "velocity": 117}, {"time": 2897, "pitch": 50, "duration": 3, "velocity": 96}, {"time": 2900, "pitch": 55, "duration": 3, "velocity": 112}, {"time": 2903, "pitch": 54, "duration": 3, "velocity": 117}, {"time": 2906, "pitch": 40, "duration": 22, "velocity": 74}, {"time": 2909, "pitch": 47, "duration": 22, "velocity": 89}, {"time": 2912, "pitch": 52, "duration": 7, "velocity": 90}, {"time": 2915, "pitch": 55, "duration": 2, "velocity": 70}, {"time": 2918, "pitch": 59, "duration": 6, "velocity": 117}, {"time": 2921, "pitch": 52, "duration": 2, "velocity": 99}, {"time": 2924, "pitch": 55, "duration": 4, "velocity": 95}, {"time": 2927, "pitch": 59, "duration": 3, "velocity": 107}, {"time": 2930, "pitch": 40, "duration": 17, "velocity": 79}, {"time": 2933, "pitch": 47, "duration": 15, "velocity": 79}, {"time": 2936, "pitch": 52, "duration": 7, "velocity": 86}, {"time": 2939, "pitch": 59, "duration": 5, "velocity": 112}, {"time": 2942, "pitch": 67, "duration": 12, "velocity": 122}, {"time": 2945, "pitch": 52, "duration": 8, "velocity": 99}, {"time": 2948, "pitch": 64, "duration": 6, "velocity": 97}, {"time": 2951, "pitch": 59, "duration": 3, "velocity": 107}, {"time": 2954, "pitch": 45, "duration": 22, "velocity": 73}, {"time": 2957, "pitch": 52, "duration": 11, "velocity": 86}, {"time": 2960, "pitch": 57, "duration": 3, "velocity": 92}, {"time": 2963, "pitch": 60, "duration": 4, "velocity": 100}, {"time": 2966, "pitch": 64, "duration": 10, "velocity": 122}, {"time": 2969, "pitch": 52, "duration": 7, "velocity": 75}, {"time": 2972, "pitch": 60, "duration": 4, "velocity": 99}, {"time": 2975, "pitch": 57, "duration": 4, "velocity": 95}, {"time": 2978, "pitch": 50, "duration": 14, "velocity": 89}, {"time": 2981, "pitch": 57, "duration": 4, "velocity": 99}, {"time": 2984, "pitch": 62, "duration": 4, "velocity": 107}, {"time": 2987, "pitch": 57, "duration": 4, "velocity": 93}, {"time": 2990, "pitch": 66, "duration": 11, "velocity": 127}, {"time": 2993, "pitch": 62, "duration": 3, "velocity": 72}, {"time": 2996, "pitch": 57, "duration": 4, "velocity": 97}, {"time": 2999, "pitch": 62, "duration": 3, "velocity": 90}, {"time": 3002, "pitch": 43, "duration": 21, "velocity": 93}, {"time": 3005, "pitch": 50, "duration": 21, "velocity": 88}, {"time": 3008, "pitch": 55, "duration": 6, "velocity": 95}, {"time": 3011, "pitch": 59, "duration": 5, "velocity": 97}, {"time": 3014, "pitch": 62, "duration": 7, "velocity": 112}, {"time": 3017, "pitch": 55, "duration": 3, "velocity": 97}, {"time": 3020, "pitch": 59, "duration": 8, "velocity": 82}, {"time": 3023, "pitch": 62, "duration": 9, "velocity": 89}, {"time": 3023, "pitch": 67, "duration": 9, "velocity": 96}, {"time": 3026, "pitch": 43, "duration": 16, "velocity": 83}, {"time": 3029, "pitch": 50, "duration": 10, "velocity": 96}, {"time": 3032, "pitch": 55, "duration": 3, "velocity": 99}, {"time": 3035, "pitch": 59, "duration": 3, "velocity": 96}, {"time": 3038, "pitch": 67, "duration": 11, "velocity": 112}, {"time": 3041, "pitch": 50, "duration": 1, "velocity": 86}, {"time": 3044, "pitch": 62, "duration": 5, "velocity": 112}, {"time": 3047, "pitch": 59, "duration": 3, "velocity": 122}, {"time": 3050, "pitch": 36, "duration": 22, "velocity": 93}, {"time": 3053, "pitch": 43, "duration": 22, "velocity": 81}, {"time": 3056, "pitch": 48, "duration": 7, "velocity": 95}, {"time": 3059, "pitch": 55, "duration": 4, "velocity": 90}, {"time": 3062, "pitch": 64, "duration": 16, "velocity": 122}, {"time": 3065, "pitch": 48, "duration": 3, "velocity": 90}, {"time": 3068, "pitch": 60, "duration": 13, "velocity": 93}, {"time": 3071, "pitch": 55, "duration": 7, "velocity": 102}, {"time": 3074, "pitch": 36, "duration": 16, "velocity": 86}, {"time": 3077, "pitch": 43, "duration": 13, "velocity": 76}, {"time": 3080, "pitch": 48, "duration": 7, "velocity": 92}, {"time": 3083, "pitch": 55, "duration": 5, "velocity": 86}, {"time": 3086, "pitch": 64, "duration": 11, "velocity": 127}, {"time": 3089, "pitch": 48, "duration": 2, "velocity": 82}, {"time": 3092, "pitch": 55, "duration": 4, "velocity": 99}, {"time": 3095, "pitch": 60, "duration": 2, "velocity": 102}, {"time": 3098, "pitch": 47, "duration": 23, "velocity": 82}, {"time": 3101, "pitch": 54, "duration": 10, "velocity": 97}, {"time": 3104, "pitch": 59, "duration": 8, "velocity": 89}, {"time": 3107, "pitch": 62, "duration": 2, "velocity": 77}, {"time": 3110, "pitch": 66, "duration": 15, "velocity": 127}, {"time": 3113, "pitch": 54, "duration": 5, "velocity": 96}, {"time": 3116, "pitch": 62, "duration": 4, "velocity": 102}, {"time": 3119, "pitch": 59, "duration": 5, "velocity": 102}, {"time": 3122, "pitch": 47, "duration": 19, "velocity": 100}, {"time": 3125, "pitch": 54, "duration": 10, "velocity": 102}, {"time": 3128, "pitch": 59, "duration": 7, "velocity": 82}, {"time": 3131, "pitch": 62, "duration": 2, "velocity": 97}, {"time": 3134, "pitch": 66, "duration": 7, "velocity": 127}, {"time": 3137, "pitch": 54, "duration": 3, "velocity": 97}, {"time": 3140, "pitch": 59, "duration": 5, "velocity": 95}, {"time": 3143, "pitch": 66, "duration": 3, "velocity": 127}, {"time": 3146, "pitch": 45, "duration": 23, "velocity": 78}, {"time": 3149, "pitch": 52, "duration": 11, "velocity": 86}, {"time": 3152, "pitch": 57, "duration": 3, "velocity": 100}, {"time": 3155, "pitch": 60, "duration": 3, "velocity": 99}, {"time": 3158, "pitch": 64, "duration": 11, "velocity": 127}, {"time": 3161, "pitch": 52, "duration": 9, "velocity": 89}, {"time": 3164, "pitch": 60, "duration": 6, "velocity": 92}, {"time": 3167, "pitch": 57, "duration": 3, "velocity": 88}, {"time": 3170, "pitch": 45, "duration": 17, "velocity": 88}, {"time": 3173, "pitch": 52, "duration": 10, "velocity": 96}, {"time": 3176, "pitch": 57, "duration": 7, "velocity": 82}, {"time": 3179, "pitch": 60, "duration": 3, "velocity": 97}, {"time": 3182, "pitch": 64, "duration": 9, "velocity": 107}, {"time": 3185, "pitch": 52, "duration": 2, "velocity": 81}, {"time": 3188, "pitch": 60, "duration": 3, "velocity": 112}, {"time": 3191, "pitch": 57, "duration": 4, "velocity": 100}, {"time": 3194, "pitch": 38, "duration": 22, "velocity": 79}, {"time": 3197, "pitch": 45, "duration": 21, "velocity": 79}, {"time": 3200, "pitch": 50, "duration": 6, "velocity": 96}, {"time": 3203, "pitch": 57, "duration": 5, "velocity": 99}, {"time": 3206, "pitch": 66, "duration": 6, "velocity": 127}, {"time": 3209, "pitch": 50, "duration": 3, "velocity": 100}, {"time": 3212, "pitch": 57, "duration": 5, "velocity": 107}, {"time": 3215, "pitch": 62, "duration": 2, "velocity": 86}, {"time": 3215, "pitch": 66, "duration": 2, "velocity": 107}, {"time": 3218, "pitch": 38, "duration": 21, "velocity": 96}, {"time": 3218, "pitch": 57, "duration": 10, "velocity": 97}, {"time": 3218, "pitch": 62, "duration": 7, "velocity": 122}, {"time": 3218, "pitch": 66, "duration": 10, "velocity": 127}, {"time": 3224, "pitch": 45, "duration": 14, "velocity": 53}, {"time": 3227, "pitch": 50, "duration": 3, "velocity": 107}, {"time": 3227, "pitch": 62, "duration": 1, "velocity": 35}, {"time": 3230, "pitch": 62, "duration": 4, "velocity": 127}, {"time": 3230, "pitch": 66, "duration": 4, "velocity": 127}, {"time": 3233, "pitch": 50, "duration": 2, "velocity": 112}, {"time": 3236, "pitch": 57, "duration": 4, "velocity": 107}, {"time": 3236, "pitch": 62, "duration": 4, "velocity": 100}, {"time": 3236, "pitch": 66, "duration": 4, "velocity": 117}, {"time": 3245, "pitch": 50, "duration": 21, "velocity": 89}, {"time": 3248, "pitch": 55, "duration": 7, "velocity": 102}, {"time": 3251, "pitch": 59, "duration": 4, "velocity": 95}, {"time": 3254, "pitch": 67, "duration": 12, "velocity": 122}, {"time": 3257, "pitch": 55, "duration": 2, "velocity": 97}, {"time": 3260, "pitch": 62, "duration": 4, "velocity": 95}, {"time": 3263, "pitch": 59, "duration": 4, "velocity": 99}, {"time": 3266, "pitch": 43, "duration": 18, "velocity": 88}, {"time": 3269, "pitch": 50, "duration": 10, "velocity": 74}, {"time": 3272, "pitch": 55, "duration": 4, "velocity": 92}, {"time": 3275, "pitch": 59, "duration": 3, "velocity": 107}, {"time": 3278, "pitch": 67, "duration": 11, "velocity": 122}, {"time": 3281, "pitch": 50, "duration": 1, "velocity": 85}, {"time": 3284, "pitch": 62, "duration": 5, "velocity": 102}, {"time": 3287, "pitch": 59, "duration": 3, "velocity": 93}, {"time": 3290, "pitch": 40, "duration": 21, "velocity": 81}, {"time": 3293, "pitch": 47, "duration": 10, "velocity": 83}, {"time": 3296, "pitch": 52, "duration": 4, "velocity": 95}, {"time": 3299, "pitch": 55, "duration": 2, "velocity": 78}, {"time": 3302, "pitch": 59, "duration": 11, "velocity": 122}, {"time": 3305, "pitch": 47, "duration": 8, "velocity": 88}, {"time": 3308, "pitch": 55, "duration": 5, "velocity": 97}, {"time": 3311, "pitch": 52, "duration": 2, "velocity": 112}, {"time": 3314, "pitch": 40, "duration": 18, "velocity": 86}, {"time": 3317, "pitch": 47, "duration": 15, "velocity": 93}, {"time": 3320, "pitch": 52, "duration": 7, "velocity": 95}, {"time": 3323, "pitch": 59, "duration": 5, "velocity": 100}, {"time": 3326, "pitch": 67, "duration": 12, "velocity": 122}, {"time": 3329, "pitch": 52, "duration": 4, "velocity": 96}, {"time": 3332, "pitch": 64, "duration": 5, "velocity": 96}, {"time": 3335, "pitch": 59, "duration": 3, "velocity": 99}, {"time": 3338, "pitch": 45, "duration": 21, "velocity": 92}, {"time": 3341, "pitch": 52, "duration": 21, "velocity": 92}, {"time": 3344, "pitch": 57, "duration": 6, "velocity": 95}, {"time": 3347, "pitch": 60, "duration": 5, "velocity": 90}, {"time": 3350, "pitch": 69, "duration": 12, "velocity": 107}, {"time": 3353, "pitch": 57, "duration": 3, "velocity": 97}, {"time": 3356, "pitch": 60, "duration": 7, "velocity": 97}, {"time": 3359, "pitch": 64, "duration": 4, "velocity": 117}, {"time": 3362, "pitch": 45, "duration": 18, "velocity": 95}, {"time": 3365, "pitch": 52, "duration": 11, "velocity": 86}, {"time": 3368, "pitch": 57, "duration": 7, "velocity": 102}, {"time": 3371, "pitch": 60, "duration": 3, "velocity": 89}, {"time": 3374, "pitch": 64, "duration": 9, "velocity": 107}, {"time": 3377, "pitch": 52, "duration": 2, "velocity": 93}, {"time": 3380, "pitch": 60, "duration": 4, "velocity": 122}, {"time": 3383, "pitch": 57, "duration": 4, "velocity": 112}, {"time": 3386, "pitch": 38, "duration": 22, "velocity": 82}, {"time": 3389, "pitch": 45, "duration": 21, "velocity": 79}, {"time": 3392, "pitch": 50, "duration": 6, "velocity": 99}, {"time": 3395, "pitch": 57, "duration": 4, "velocity": 95}, {"time": 3398, "pitch": 66, "duration": 10, "velocity": 127}, {"time": 3401, "pitch": 50, "duration": 3, "velocity": 100}, {"time": 3404, "pitch": 62, "duration": 7, "velocity": 102}, {"time": 3407, "pitch": 57, "duration": 4, "velocity": 107}, {"time": 3410, "pitch": 38, "duration": 17, "velocity": 88}, {"time": 3413, "pitch": 45, "duration": 14, "velocity": 96}, {"time": 3416, "pitch": 50, "duration": 7, "velocity": 99}, {"time": 3419, "pitch": 57, "duration": 4, "velocity": 99}, {"time": 3422, "pitch": 66, "duration": 9, "velocity": 127}, {"time": 3425, "pitch": 50, "duration": 8, "velocity": 96}, {"time": 3428, "pitch": 62, "duration": 4, "velocity": 100}, {"time": 3431, "pitch": 57, "duration": 3, "velocity": 107}, {"time": 3434, "pitch": 43, "duration": 22, "velocity": 78}, {"time": 3437, "pitch": 50, "duration": 10, "velocity": 72}, {"time": 3440, "pitch": 55, "duration": 4, "velocity": 96}, {"time": 3443, "pitch": 59, "duration": 3, "velocity": 99}, {"time": 3446, "pitch": 62, "duration": 10, "velocity": 127}, {"time": 3449, "pitch": 50, "duration": 8, "velocity": 90}, {"time": 3452, "pitch": 59, "duration": 5, "velocity": 112}, {"time": 3455, "pitch": 55, "duration": 2, "velocity": 102}, {"time": 3458, "pitch": 43, "duration": 18, "velocity": 89}, {"time": 3461, "pitch": 50, "duration": 10, "velocity": 88}, {"time": 3464, "pitch": 55, "duration": 3, "velocity": 99}, {"time": 3467, "pitch": 59, "duration": 2, "velocity": 122}, {"time": 3470, "pitch": 62, "duration": 5, "velocity": 117}, {"time": 3473, "pitch": 50, "duration": 3, "velocity": 96}, {"time": 3476, "pitch": 55, "duration": 3, "velocity": 112}, {"time": 3479, "pitch": 54, "duration": 3, "velocity": 117}, {"time": 3482, "pitch": 40, "duration": 22, "velocity": 74}, {"time": 3485, "pitch": 47, "duration": 22, "velocity": 89}, {"time": 3488, "pitch": 52, "duration": 7, "velocity": 90}, {"time": 3491, "pitch": 55, "duration": 2, "velocity": 70}, {"time": 3494, "pitch": 59, "duration": 6, "velocity": 117}, {"time": 3497, "pitch": 52, "duration": 2, "velocity": 99}, {"time": 3500, "pitch": 55, "duration": 4, "velocity": 95}, {"time": 3503, "pitch": 59, "duration": 3, "velocity": 107}, {"time": 3506, "pitch": 40, "duration": 17, "velocity": 79}, {"time": 3509, "pitch": 47, "duration": 15, "velocity": 79}, {"time": 3512, "pitch": 52, "duration": 7, "velocity": 86}, {"time": 3515, "pitch": 59, "duration": 5, "velocity": 112}, {"time": 3518, "pitch": 67, "duration": 12, "velocity": 122}, {"time": 3521, "pitch": 52, "duration": 8, "velocity": 99}, {"time": 3524, "pitch": 64, "duration": 6, "velocity": 97}, {"time": 3527, "pitch": 59, "duration": 3, "velocity": 107}, {"time": 3530, "pitch": 45, "duration": 22, "velocity": 73}, {"time": 3533, "pitch": 52, "duration": 11, "velocity": 86}, {"time": 3536, "pitch": 57, "duration": 3, "velocity": 92}, {"time": 3539, "pitch": 60, "duration": 4, "velocity": 100}, {"time": 3542, "pitch": 64, "duration": 10, "velocity": 122}, {"time": 3545, "pitch": 52, "duration": 7, "velocity": 75}, {"time": 3548, "pitch": 60, "duration": 4, "velocity": 99}, {"time": 3551, "pitch": 57, "duration": 4, "velocity": 95}, {"time": 3554, "pitch": 50, "duration": 14, "velocity": 89}, {"time": 3557, "pitch": 57, "duration": 4, "velocity": 99}, {"time": 3560, "pitch": 62, "duration": 4, "velocity": 107}, {"time": 3563, "pitch": 57, "duration": 4, "velocity": 93}, {"time": 3566, "pitch": 66, "duration": 11, "velocity": 127}, {"time": 3569, "pitch": 62, "duration": 3, "velocity": 72}, {"time": 3572, "pitch": 57, "duration": 4, "velocity": 97}, {"time": 3575, "pitch": 62, "duration": 3, "velocity": 90}, {"time": 3578, "pitch": 43, "duration": 22, "velocity": 83}, {"time": 3581, "pitch": 50, "duration": 21, "velocity": 85}, {"time": 3584, "pitch": 55, "duration": 6, "velocity": 95}, {"time": 3587, "pitch": 59, "duration": 5, "velocity": 102}, {"time": 3590, "pitch": 67, "duration": 21, "velocity": 127}, {"time": 3593, "pitch": 55, "duration": 2, "velocity": 92}, {"time": 3596, "pitch": 62, "duration": 13, "velocity": 81}, {"time": 3599, "pitch": 59, "duration": 10, "velocity": 117}, {"time": 3602, "pitch": 43, "duration": 22, "velocity": 85}, {"time": 3605, "pitch": 50, "duration": 11, "velocity": 78}, {"time": 3608, "pitch": 55, "duration": 4, "velocity": 93}, {"time": 3611, "pitch": 59, "duration": 5, "velocity": 78}, {"time": 3614, "pitch": 67, "duration": 10, "velocity": 117}, {"time": 3617, "pitch": 50, "duration": 6, "velocity": 67}, {"time": 3620, "pitch": 62, "duration": 4, "velocity": 99}, {"time": 3623, "pitch": 59, "duration": 2, "velocity": 92}, {"time": 3626, "pitch": 40, "duration": 22, "velocity": 86}, {"time": 3629, "pitch": 47, "duration": 21, "velocity": 90}, {"time": 3632, "pitch": 52, "duration": 6, "velocity": 90}, {"time": 3635, "pitch": 59, "duration": 5, "velocity": 76}, {"time": 3638, "pitch": 67, "duration": 16, "velocity": 117}, {"time": 3641, "pitch": 52, "duration": 2, "velocity": 74}, {"time": 3644, "pitch": 64, "duration": 14, "velocity": 95}, {"time": 3647, "pitch": 59, "duration": 10, "velocity": 96}, {"time": 3650, "pitch": 40, "duration": 17, "velocity": 73}, {"time": 3653, "pitch": 47, "duration": 10, "velocity": 77}, {"time": 3656, "pitch": 52, "duration": 5, "velocity": 88}, {"time": 3659, "pitch": 59, "duration": 5, "velocity": 75}, {"time": 3662, "pitch": 67, "duration": 10, "velocity": 117}, {"time": 3665, "pitch": 47, "duration": 2, "velocity": 65}, {"time": 3668, "pitch": 64, "duration": 4, "velocity": 92}, {"time": 3671, "pitch": 59, "duration": 2, "velocity": 74}, {"time": 3673, "pitch": 45, "duration": 21, "velocity": 90}, {"time": 3677, "pitch": 52, "duration": 10, "velocity": 86}, {"time": 3680, "pitch": 57, "duration": 4, "velocity": 95}, {"time": 3682, "pitch": 60, "duration": 3, "velocity": 82}, {"time": 3686, "pitch": 64, "duration": 8, "velocity": 100}, {"time": 3688, "pitch": 52, "duration": 5, "velocity": 36}, {"time": 3692, "pitch": 60, "duration": 4, "velocity": 89}, {"time": 3695, "pitch": 57, "duration": 2, "velocity": 67}, {"time": 3698, "pitch": 66, "duration": 10, "velocity": 122}, {"time": 3698, "pitch": 57, "duration": 10, "velocity": 82}, {"time": 3698, "pitch": 38, "duration": 17, "velocity": 95}, {"time": 3698, "pitch": 62, "duration": 10, "velocity": 102}, {"time": 3704, "pitch": 45, "duration": 11, "velocity": 78}, {"time": 3710, "pitch": 50, "duration": 4, "velocity": 102}, {"time": 3711, "pitch": 66, "duration": 7, "velocity": 127}, {"time": 3711, "pitch": 62, "duration": 7, "velocity": 122}, {"time": 3718, "pitch": 57, "duration": 1, "velocity": 112}, {"time": 3725, "pitch": 55, "duration": 59, "velocity": 127}, {"time": 3725, "pitch": 59, "duration": 59, "velocity": 122}, {"time": 3725, "pitch": 43, "duration": 59, "velocity": 89}, {"time": 3725, "pitch": 62, "duration": 59, "velocity": 107}, {"time": 3725, "pitch": 50, "duration": 59, "velocity": 117}], "annotations": [{"time": 34, "annotation": {"number": 64, "value": 127}, "group": "control_change"}, {"time": 71, "annotation": {"number": 64, "value": 0}, "group": "control_change"}, {"time": 74, "annotation": {"number": 64, "value": 127}, "group": "control_change"}, {"time": 95, "annotation": {"number": 64, "value": 0}, "group": "control_change"}, {"time": 97, "annotation": {"number": 64, "value": 127}, "group": "control_change"}, {"time": 116, "annotation": {"number": 64, "value": 0}, "group": "control_change"}, {"time": 122, "annotation": {"number": 64, "value": 127}, "group": "control_change"}, {"time": 143, "annotation": {"number": 64, "value": 0}, "group": "control_change"}, {"time": 145, "annotation": {"number": 64, "value": 127}, "group": "control_change"}, {"time": 166, "annotation": {"number": 64, "value": 0}, "group": "control_change"}, {"time": 170, "annotation": {"number": 64, "value": 127}, "group": "control_change"}, {"time": 213, "annotation": {"number": 64, "value": 0}, "group": "control_change"}, {"time": 237, "annotation": {"number": 64, "value": 0}, "group": "control_change"}, {"time": 241, "annotation": {"number": 64, "value": 127}, "group": "control_change"}, {"time": 263, "annotation": {"number": 64, "value": 0}, "group": "control_change"}, {"time": 266, "annotation": {"number": 64, "value": 127}, "group": "control_change"}, {"time": 286, "annotation": {"number": 64, "value": 0}, "group": "control_change"}, {"time": 289, "annotation": {"number": 64, "value": 127}, "group": "control_change"}, {"time": 309, "annotation": {"number": 64, "value": 0}, "group": "control_change"}, {"time": 313, "annotation": {"number": 64, "value": 127}, "group": "control_change"}, {"time": 334, "annotation": {"number": 64, "value": 0}, "group": "control_change"}, {"time": 338, "annotation": {"number": 64, "value": 127}, "group": "control_change"}, {"time": 339, "annotation": {"number": 64, "value": 0}, "group": "control_change"}, {"time": 340, "annotation": {"number": 64, "value": 127}, "group": "control_change"}, {"time": 357, "annotation": {"number": 64, "value": 0}, "group": "control_change"}, {"time": 362, "annotation": {"number": 64, "value": 127}, "group": "control_change"}, {"time": 381, "annotation": {"number": 64, "value": 0}, "group": "control_change"}, {"time": 385, "annotation": {"number": 64, "value": 127}, "group": "control_change"}, {"time": 405, "annotation": {"number": 64, "value": 0}, "group": "control_change"}, {"time": 410, "annotation": {"number": 64, "value": 127}, "group": "control_change"}, {"time": 454, "annotation": {"number": 64, "value": 0}, "group": "control_change"}, {"time": 458, "annotation": {"number": 64, "value": 127}, "group": "control_change"}, {"time": 502, "annotation": {"number": 64, "value": 0}, "group": "control_change"}, {"time": 506, "annotation": {"number": 64, "value": 127}, "group": "control_change"}, {"time": 527, "annotation": {"number": 64, "value": 0}, "group": "control_change"}, {"time": 530, "annotation": {"number": 64, "value": 127}, "group": "control_change"}, {"time": 550, "annotation": {"number": 64, "value": 0}, "group": "control_change"}, {"time": 554, "annotation": {"number": 64, "value": 127}, "group": "control_change"}, {"time": 598, "annotation": {"number": 64, "value": 0}, "group": "control_change"}, {"time": 602, "annotation": {"number": 64, "value": 127}, "group": "control_change"}, {"time": 622, "annotation": {"number": 64, "value": 0}, "group": "control_change"}, {"time": 626, "annotation": {"number": 64, "value": 127}, "group": "control_change"}, {"time": 646, "annotation": {"number": 64, "value": 0}, "group": "control_change"}, {"time": 650, "annotation": {"number": 64, "value": 127}, "group": "control_change"}, {"time": 661, "annotation": {"number": 64, "value": 0}, "group": "control_change"}, {"time": 661, "annotation": {"number": 64, "value": 127}, "group": "control_change"}, {"time": 694, "annotation": {"number": 64, "value": 0}, "group": "control_change"}, {"time": 698, "annotation": {"number": 64, "value": 127}, "group": "control_change"}, {"time": 718, "annotation": {"number": 64, "value": 0}, "group": "control_change"}, {"time": 722, "annotation": {"number": 64, "value": 127}, "group": "control_change"}, {"time": 742, "annotation": {"number": 64, "value": 0}, "group": "control_change"}, {"time": 746, "annotation": {"number": 64, "value": 127}, "group": "control_change"}, {"time": 766, "annotation": {"number": 64, "value": 0}, "group": "control_change"}, {"time": 770, "annotation": {"number": 64, "value": 127}, "group": "control_change"}, {"time": 788, "annotation": {"number": 64, "value": 0}, "group": "control_change"}, {"time": 794, "annotation": {"number": 64, "value": 127}, "group": "control_change"}, {"time": 814, "annotation": {"number": 64, "value": 0}, "group": "control_change"}, {"time": 818, "annotation": {"number": 64, "value": 127}, "group": "control_change"}, {"time": 838, "annotation": {"number": 64, "value": 0}, "group": "control_change"}, {"time": 842, "annotation": {"number": 64, "value": 127}, "group": "control_change"}, {"time": 862, "annotation": {"number": 64, "value": 0}, "group": "control_change"}, {"time": 866, "annotation": {"number": 64, "value": 127}, "group": "control_change"}, {"time": 885, "annotation": {"number": 64, "value": 0}, "group": "control_change"}, {"time": 890, "annotation": {"number": 64, "value": 127}, "group": "control_change"}, {"time": 910, "annotation": {"number": 64, "value": 0}, "group": "control_change"}, {"time": 914, "annotation": {"number": 64, "value": 127}, "group": "control_change"}, {"time": 933, "annotation": {"number": 64, "value": 0}, "group": "control_change"}, {"time": 938, "annotation": {"number": 64, "value": 127}, "group": "control_change"}, {"time": 949, "annotation": {"number": 64, "value": 0}, "group": "control_change"}, {"time": 950, "annotation": {"number": 64, "value": 127}, "group": "control_change"}, {"time": 958, "annotation": {"number": 64, "value": 0}, "group": "control_change"}, {"time": 962, "annotation": {"number": 64, "value": 127}, "group": "control_change"}, {"time": 980, "annotation": {"number": 64, "value": 0}, "group": "control_change"}, {"time": 985, "annotation": {"number": 64, "value": 127}, "group": "control_change"}, {"time": 986, "annotation": {"number": 64, "value": 127}, "group": "control_change"}, {"time": 1006, "annotation": {"number": 64, "value": 0}, "group": "control_change"}, {"time": 1009, "annotation": {"number": 64, "value": 127}, "group": "control_change"}, {"time": 1029, "annotation": {"number": 64, "value": 0}, "group": "control_change"}, {"time": 1033, "annotation": {"number": 64, "value": 127}, "group": "control_change"}, {"time": 1054, "annotation": {"number": 64, "value": 0}, "group": "control_change"}, {"time": 1057, "annotation": {"number": 64, "value": 127}, "group": "control_change"}, {"time": 1077, "annotation": {"number": 64, "value": 0}, "group": "control_change"}, {"time": 1081, "annotation": {"number": 64, "value": 127}, "group": "control_change"}, {"time": 1101, "annotation": {"number": 64, "value": 0}, "group": "control_change"}, {"time": 1105, "annotation": {"number": 64, "value": 127}, "group": "control_change"}, {"time": 1125, "annotation": {"number": 64, "value": 0}, "group": "control_change"}, {"time": 1130, "annotation": {"number": 64, "value": 127}, "group": "control_change"}, {"time": 1173, "annotation": {"number": 64, "value": 0}, "group": "control_change"}, {"time": 1177, "annotation": {"number": 64, "value": 127}, "group": "control_change"}, {"time": 1198, "annotation": {"number": 64, "value": 0}, "group": "control_change"}, {"time": 1201, "annotation": {"number": 64, "value": 127}, "group": "control_change"}, {"time": 1222, "annotation": {"number": 64, "value": 0}, "group": "control_change"}, {"time": 1225, "annotation": {"number": 64, "value": 127}, "group": "control_change"}, {"time": 1246, "annotation": {"number": 64, "value": 0}, "group": "control_change"}, {"time": 1249, "annotation": {"number": 64, "value": 127}, "group": "control_change"}, {"time": 1270, "annotation": {"number": 64, "value": 0}, "group": "control_change"}, {"time": 1274, "annotation": {"number": 64, "value": 127}, "group": "control_change"}, {"time": 1295, "annotation": {"number": 64, "value": 0}, "group": "control_change"}, {"time": 1297, "annotation": {"number": 64, "value": 127}, "group": "control_change"}, {"time": 1319, "annotation": {"number": 64, "value": 0}, "group": "control_change"}, {"time": 1322, "annotation": {"number": 64, "value": 127}, "group": "control_change"}, {"time": 1342, "annotation": {"number": 64, "value": 0}, "group": "control_change"}, {"time": 1345, "annotation": {"number": 64, "value": 127}, "group": "control_change"}, {"time": 1366, "annotation": {"number": 64, "value": 0}, "group": "control_change"}, {"time": 1370, "annotation": {"number": 64, "value": 127}, "group": "control_change"}, {"time": 1389, "annotation": {"number": 64, "value": 0}, "group": "control_change"}, {"time": 1394, "annotation": {"number": 64, "value": 127}, "group": "control_change"}, {"time": 1414, "annotation": {"number": 64, "value": 0}, "group": "control_change"}, {"time": 1418, "annotation": {"number": 64, "value": 127}, "group": "control_change"}, {"time": 1438, "annotation": {"number": 64, "value": 0}, "group": "control_change"}, {"time": 1442, "annotation": {"number": 64, "value": 127}, "group": "control_change"}, {"time": 1462, "annotation": {"number": 64, "value": 0}, "group": "control_change"}, {"time": 1466, "annotation": {"number": 64, "value": 127}, "group": "control_change"}, {"time": 1484, "annotation": {"number": 64, "value": 0}, "group": "control_change"}, {"time": 1490, "annotation": {"number": 64, "value": 127}, "group": "control_change"}, {"time": 1510, "annotation": {"number": 64, "value": 0}, "group": "control_change"}, {"time": 1514, "annotation": {"number": 64, "value": 127}, "group": "control_change"}, {"time": 1535, "annotation": {"number": 64, "value": 0}, "group": "control_change"}, {"time": 1539, "annotation": {"number": 64, "value": 127}, "group": "control_change"}, {"time": 1558, "annotation": {"number": 64, "value": 0}, "group": "control_change"}, {"time": 1562, "annotation": {"number": 64, "value": 127}, "group": "control_change"}, {"time": 1582, "annotation": {"number": 64, "value": 0}, "group": "control_change"}, {"time": 1586, "annotation": {"number": 64, "value": 127}, "group": "control_change"}, {"time": 1605, "annotation": {"number": 64, "value": 0}, "group": "control_change"}, {"time": 1610, "annotation": {"number": 64, "value": 127}, "group": "control_change"}, {"time": 1623, "annotation": {"number": 64, "value": 0}, "group": "control_change"}, {"time": 1634, "annotation": {"number": 64, "value": 127}, "group": "control_change"}, {"time": 1643, "annotation": {"number": 64, "value": 0}, "group": "control_change"}, {"time": 1644, "annotation": {"number": 64, "value": 127}, "group": "control_change"}, {"time": 1644, "annotation": {"number": 64, "value": 0}, "group": "control_change"}, {"time": 1652, "annotation": {"number": 64, "value": 0}, "group": "control_change"}, {"time": 1658, "annotation": {"number": 64, "value": 127}, "group": "control_change"}, {"time": 1678, "annotation": {"number": 64, "value": 0}, "group": "control_change"}, {"time": 1682, "annotation": {"number": 64, "value": 127}, "group": "control_change"}, {"time": 1701, "annotation": {"number": 64, "value": 0}, "group": "control_change"}, {"time": 1705, "annotation": {"number": 64, "value": 127}, "group": "control_change"}, {"time": 1724, "annotation": {"number": 64, "value": 0}, "group": "control_change"}, {"time": 1729, "annotation": {"number": 64, "value": 127}, "group": "control_change"}, {"time": 1735, "annotation": {"number": 64, "value": 0}, "group": "control_change"}, {"time": 1753, "annotation": {"number": 64, "value": 127}, "group": "control_change"}, {"time": 1758, "annotation": {"number": 64, "value": 0}, "group": "control_change"}, {"time": 1777, "annotation": {"number": 64, "value": 127}, "group": "control_change"}, {"time": 1780, "annotation": {"number": 64, "value": 0}, "group": "control_change"}, {"time": 1802, "annotation": {"number": 64, "value": 127}, "group": "control_change"}, {"time": 1805, "annotation": {"number": 64, "value": 0}, "group": "control_change"}, {"time": 1826, "annotation": {"number": 64, "value": 127}, "group": "control_change"}, {"time": 1830, "annotation": {"number": 64, "value": 0}, "group": "control_change"}, {"time": 1851, "annotation": {"number": 64, "value": 127}, "group": "control_change"}, {"time": 1854, "annotation": {"number": 64, "value": 0}, "group": "control_change"}, {"time": 1854, "annotation": {"number": 64, "value": 127}, "group": "control_change"}, {"time": 1893, "annotation": {"number": 64, "value": 0}, "group": "control_change"}, {"time": 1898, "annotation": {"number": 64, "value": 127}, "group": "control_change"}, {"time": 1942, "annotation": {"number": 64, "value": 0}, "group": "control_change"}, {"time": 1946, "annotation": {"number": 64, "value": 127}, "group": "control_change"}, {"time": 1990, "annotation": {"number": 64, "value": 0}, "group": "control_change"}, {"time": 1994, "annotation": {"number": 64, "value": 127}, "group": "control_change"}, {"time": 2015, "annotation": {"number": 64, "value": 0}, "group": "control_change"}, {"time": 2018, "annotation": {"number": 64, "value": 127}, "group": "control_change"}, {"time": 2038, "annotation": {"number": 64, "value": 0}, "group": "control_change"}, {"time": 2042, "annotation": {"number": 64, "value": 127}, "group": "control_change"}, {"time": 2086, "annotation": {"number": 64, "value": 0}, "group": "control_change"}, {"time": 2090, "annotation": {"number": 64, "value": 127}, "group": "control_change"}, {"time": 2110, "annotation": {"number": 64, "value": 0}, "group": "control_change"}, {"time": 2114, "annotation": {"number": 64, "value": 127}, "group": "control_change"}, {"time": 2134, "annotation": {"number": 64, "value": 0}, "group": "control_change"}, {"time": 2138, "annotation": {"number": 64, "value": 127}, "group": "control_change"}, {"time": 2149, "annotation": {"number": 64, "value": 0}, "group": "control_change"}, {"time": 2149, "annotation": {"number": 64, "value": 127}, "group": "control_change"}, {"time": 2182, "annotation": {"number": 64, "value": 0}, "group": "control_change"}, {"time": 2186, "annotation": {"number": 64, "value": 127}, "group": "control_change"}, {"time": 2206, "annotation": {"number": 64, "value": 0}, "group": "control_change"}, {"time": 2210, "annotation": {"number": 64, "value": 127}, "group": "control_change"}, {"time": 2230, "annotation": {"number": 64, "value": 0}, "group": "control_change"}, {"time": 2234, "annotation": {"number": 64, "value": 127}, "group": "control_change"}, {"time": 2254, "annotation": {"number": 64, "value": 0}, "group": "control_change"}, {"time": 2258, "annotation": {"number": 64, "value": 127}, "group": "control_change"}, {"time": 2276, "annotation": {"number": 64, "value": 0}, "group": "control_change"}, {"time": 2282, "annotation": {"number": 64, "value": 127}, "group": "control_change"}, {"time": 2302, "annotation": {"number": 64, "value": 0}, "group": "control_change"}, {"time": 2306, "annotation": {"number": 64, "value": 127}, "group": "control_change"}, {"time": 2326, "annotation": {"number": 64, "value": 0}, "group": "control_change"}, {"time": 2330, "annotation": {"number": 64, "value": 127}, "group": "control_change"}, {"time": 2350, "annotation": {"number": 64, "value": 0}, "group": "control_change"}, {"time": 2354, "annotation": {"number": 64, "value": 127}, "group": "control_change"}, {"time": 2373, "annotation": {"number": 64, "value": 0}, "group": "control_change"}, {"time": 2378, "annotation": {"number": 64, "value": 127}, "group": "control_change"}, {"time": 2398, "annotation": {"number": 64, "value": 0}, "group": "control_change"}, {"time": 2402, "annotation": {"number": 64, "value": 127}, "group": "control_change"}, {"time": 2421, "annotation": {"number": 64, "value": 0}, "group": "control_change"}, {"time": 2426, "annotation": {"number": 64, "value": 127}, "group": "control_change"}, {"time": 2437, "annotation": {"number": 64, "value": 0}, "group": "control_change"}, {"time": 2438, "annotation": {"number": 64, "value": 127}, "group": "control_change"}, {"time": 2446, "annotation": {"number": 64, "value": 0}, "group": "control_change"}, {"time": 2450, "annotation": {"number": 64, "value": 127}, "group": "control_change"}, {"time": 2468, "annotation": {"number": 64, "value": 0}, "group": "control_change"}, {"time": 2473, "annotation": {"number": 64, "value": 127}, "group": "control_change"}, {"time": 2474, "annotation": {"number": 64, "value": 127}, "group": "control_change"}, {"time": 2494, "annotation": {"number": 64, "value": 0}, "group": "control_change"}, {"time": 2497, "annotation": {"number": 64, "value": 127}, "group": "control_change"}, {"time": 2517, "annotation": {"number": 64, "value": 0}, "group": "control_change"}, {"time": 2521, "annotation": {"number": 64, "value": 127}, "group": "control_change"}, {"time": 2542, "annotation": {"number": 64, "value": 0}, "group": "control_change"}, {"time": 2545, "annotation": {"number": 64, "value": 127}, "group": "control_change"}, {"time": 2565, "annotation": {"number": 64, "value": 0}, "group": "control_change"}, {"time": 2569, "annotation": {"number": 64, "value": 127}, "group": "control_change"}, {"time": 2589, "annotation": {"number": 64, "value": 0}, "group": "control_change"}, {"time": 2593, "annotation": {"number": 64, "value": 127}, "group": "control_change"}, {"time": 2613, "annotation": {"number": 64, "value": 0}, "group": "control_change"}, {"time": 2618, "annotation": {"number": 64, "value": 127}, "group": "control_change"}, {"time": 2661, "annotation": {"number": 64, "value": 0}, "group": "control_change"}, {"time": 2665, "annotation": {"number": 64, "value": 127}, "group": "control_change"}, {"time": 2686, "annotation": {"number": 64, "value": 0}, "group": "control_change"}, {"time": 2689, "annotation": {"number": 64, "value": 127}, "group": "control_change"}, {"time": 2710, "annotation": {"number": 64, "value": 0}, "group": "control_change"}, {"time": 2713, "annotation": {"number": 64, "value": 127}, "group": "control_change"}, {"time": 2734, "annotation": {"number": 64, "value": 0}, "group": "control_change"}, {"time": 2737, "annotation": {"number": 64, "value": 127}, "group": "control_change"}, {"time": 2758, "annotation": {"number": 64, "value": 0}, "group": "control_change"}, {"time": 2762, "annotation": {"number": 64, "value": 127}, "group": "control_change"}, {"time": 2783, "annotation": {"number": 64, "value": 0}, "group": "control_change"}, {"time": 2785, "annotation": {"number": 64, "value": 127}, "group": "control_change"}, {"time": 2807, "annotation": {"number": 64, "value": 0}, "group": "control_change"}, {"time": 2810, "annotation": {"number": 64, "value": 127}, "group": "control_change"}, {"time": 2830, "annotation": {"number": 64, "value": 0}, "group": "control_change"}, {"time": 2833, "annotation": {"number": 64, "value": 127}, "group": "control_change"}, {"time": 2854, "annotation": {"number": 64, "value": 0}, "group": "control_change"}, {"time": 2858, "annotation": {"number": 64, "value": 127}, "group": "control_change"}, {"time": 2877, "annotation": {"number": 64, "value": 0}, "group": "control_change"}, {"time": 2882, "annotation": {"number": 64, "value": 127}, "group": "control_change"}, {"time": 2902, "annotation": {"number": 64, "value": 0}, "group": "control_change"}, {"time": 2906, "annotation": {"number": 64, "value": 127}, "group": "control_change"}, {"time": 2926, "annotation": {"number": 64, "value": 0}, "group": "control_change"}, {"time": 2930, "annotation": {"number": 64, "value": 127}, "group": "control_change"}, {"time": 2950, "annotation": {"number": 64, "value": 0}, "group": "control_change"}, {"time": 2954, "annotation": {"number": 64, "value": 127}, "group": "control_change"}, {"time": 2972, "annotation": {"number": 64, "value": 0}, "group": "control_change"}, {"time": 2978, "annotation": {"number": 64, "value": 127}, "group": "control_change"}, {"time": 2998, "annotation": {"number": 64, "value": 0}, "group": "control_change"}, {"time": 3002, "annotation": {"number": 64, "value": 127}, "group": "control_change"}, {"time": 3022, "annotation": {"number": 64, "value": 0}, "group": "control_change"}, {"time": 3025, "annotation": {"number": 64, "value": 127}, "group": "control_change"}, {"time": 3046, "annotation": {"number": 64, "value": 0}, "group": "control_change"}, {"time": 3050, "annotation": {"number": 64, "value": 127}, "group": "control_change"}, {"time": 3070, "annotation": {"number": 64, "value": 0}, "group": "control_change"}, {"time": 3074, "annotation": {"number": 64, "value": 127}, "group": "control_change"}, {"time": 3094, "annotation": {"number": 64, "value": 0}, "group": "control_change"}, {"time": 3098, "annotation": {"number": 64, "value": 127}, "group": "control_change"}, {"time": 3119, "annotation": {"number": 64, "value": 0}, "group": "control_change"}, {"time": 3122, "annotation": {"number": 64, "value": 127}, "group": "control_change"}, {"time": 3140, "annotation": {"number": 64, "value": 0}, "group": "control_change"}, {"time": 3145, "annotation": {"number": 64, "value": 127}, "group": "control_change"}, {"time": 3151, "annotation": {"number": 64, "value": 0}, "group": "control_change"}, {"time": 3152, "annotation": {"number": 64, "value": 127}, "group": "control_change"}, {"time": 3153, "annotation": {"number": 64, "value": 0}, "group": "control_change"}, {"time": 3153, "annotation": {"number": 64, "value": 127}, "group": "control_change"}, {"time": 3154, "annotation": {"number": 64, "value": 0}, "group": "control_change"}, {"time": 3170, "annotation": {"number": 64, "value": 127}, "group": "control_change"}, {"time": 3175, "annotation": {"number": 64, "value": 0}, "group": "control_change"}, {"time": 3194, "annotation": {"number": 64, "value": 127}, "group": "control_change"}, {"time": 3210, "annotation": {"number": 64, "value": 0}, "group": "control_change"}, {"time": 3262, "annotation": {"number": 64, "value": 0}, "group": "control_change"}, {"time": 3265, "annotation": {"number": 64, "value": 127}, "group": "control_change"}, {"time": 3286, "annotation": {"number": 64, "value": 0}, "group": "control_change"}, {"time": 3289, "annotation": {"number": 64, "value": 127}, "group": "control_change"}, {"time": 3310, "annotation": {"number": 64, "value": 0}, "group": "control_change"}, {"time": 3313, "annotation": {"number": 64, "value": 127}, "group": "control_change"}, {"time": 3334, "annotation": {"number": 64, "value": 0}, "group": "control_change"}, {"time": 3338, "annotation": {"number": 64, "value": 127}, "group": "control_change"}, {"time": 3359, "annotation": {"number": 64, "value": 0}, "group": "control_change"}, {"time": 3361, "annotation": {"number": 64, "value": 127}, "group": "control_change"}, {"time": 3383, "annotation": {"number": 64, "value": 0}, "group": "control_change"}, {"time": 3386, "annotation": {"number": 64, "value": 127}, "group": "control_change"}, {"time": 3406, "annotation": {"number": 64, "value": 0}, "group": "control_change"}, {"time": 3409, "annotation": {"number": 64, "value": 127}, "group": "control_change"}, {"time": 3430, "annotation": {"number": 64, "value": 0}, "group": "control_change"}, {"time": 3434, "annotation": {"number": 64, "value": 127}, "group": "control_change"}, {"time": 3453, "annotation": {"number": 64, "value": 0}, "group": "control_change"}, {"time": 3458, "annotation": {"number": 64, "value": 127}, "group": "control_change"}, {"time": 3478, "annotation": {"number": 64, "value": 0}, "group": "control_change"}, {"time": 3482, "annotation": {"number": 64, "value": 127}, "group": "control_change"}, {"time": 3502, "annotation": {"number": 64, "value": 0}, "group": "control_change"}, {"time": 3506, "annotation": {"number": 64, "value": 127}, "group": "control_change"}, {"time": 3526, "annotation": {"number": 64, "value": 0}, "group": "control_change"}, {"time": 3530, "annotation": {"number": 64, "value": 127}, "group": "control_change"}, {"time": 3548, "annotation": {"number": 64, "value": 0}, "group": "control_change"}, {"time": 3554, "annotation": {"number": 64, "value": 127}, "group": "control_change"}, {"time": 3574, "annotation": {"number": 64, "value": 0}, "group": "control_change"}, {"time": 3578, "annotation": {"number": 64, "value": 127}, "group": "control_change"}, {"time": 3597, "annotation": {"number": 64, "value": 0}, "group": "control_change"}, {"time": 3602, "annotation": {"number": 64, "value": 127}, "group": "control_change"}, {"time": 3609, "annotation": {"number": 64, "value": 0}, "group": "control_change"}, {"time": 3612, "annotation": {"number": 64, "value": 127}, "group": "control_change"}, {"time": 3623, "annotation": {"number": 64, "value": 0}, "group": "control_change"}, {"time": 3626, "annotation": {"number": 64, "value": 127}, "group": "control_change"}, {"time": 3646, "annotation": {"number": 64, "value": 0}, "group": "control_change"}, {"time": 3650, "annotation": {"number": 64, "value": 127}, "group": "control_change"}, {"time": 3670, "annotation": {"number": 64, "value": 0}, "group": "control_change"}, {"time": 3675, "annotation": {"number": 64, "value": 127}, "group": "control_change"}, {"time": 3696, "annotation": {"number": 64, "value": 0}, "group": "control_change"}, {"time": 3700, "annotation": {"number": 64, "value": 127}, "group": "control_change"}, {"time": 3722, "annotation": {"number": 64, "value": 0}, "group": "control_change"}, {"time": 3759, "annotation": {"number": 64, "value": 127}, "group": "control_change"}, {"time": 3795, "annotation": {"number": 64, "value": 0}, "group": "control_change"}, {"time": 3796, "annotation": {"number": 64, "value": 127}, "group": "control_change"}, {"time": 3797, "annotation": {"number": 64, "value": 0}, "group": "control_change"}, {"time": 3799, "annotation": {"number": 64, "value": 127}, "group": "control_change"}, {"time": 3807, "annotation": {"number": 64, "value": 0}, "group": "control_change"}]}]}