{"metadata": {"schema_version": "0.2", "title": "None", "source_filename": "388.mid", "source_format": "midi"}, "resolution": 12, "tempos": [{"time": 0, "qpm": 75.0}, {"time": 3792, "qpm": 72.00011520018433}, {"time": 3816, "qpm": 75.0}], "time_signatures": [{"time": 0, "numerator": 1, "denominator": 4}], "tracks": [{"program": 4, "is_drum": false, "name": "MELODY", "notes": [{"time": 1012, "pitch": 66, "duration": 5, "velocity": 100}, {"time": 1018, "pitch": 64, "duration": 4, "velocity": 90}, {"time": 1024, "pitch": 66, "duration": 4, "velocity": 112}, {"time": 1030, "pitch": 64, "duration": 4, "velocity": 90}, {"time": 1036, "pitch": 66, "duration": 4, "velocity": 112}, {"time": 1042, "pitch": 64, "duration": 4, "velocity": 93}, {"time": 1048, "pitch": 66, "duration": 9, "velocity": 112}, {"time": 1060, "pitch": 68, "duration": 9, "velocity": 112}, {"time": 1072, "pitch": 68, "duration": 12, "velocity": 112}, {"time": 1084, "pitch": 61, "duration": 20, "velocity": 95}, {"time": 1108, "pitch": 66, "duration": 4, "velocity": 117}, {"time": 1114, "pitch": 64, "duration": 4, "velocity": 92}, {"time": 1120, "pitch": 66, "duration": 4, "velocity": 122}, {"time": 1126, "pitch": 64, "duration": 5, "velocity": 93}, {"time": 1132, "pitch": 66, "duration": 6, "velocity": 117}, {"time": 1138, "pitch": 68, "duration": 4, "velocity": 112}, {"time": 1144, "pitch": 68, "duration": 4, "velocity": 112}, {"time": 1147, "pitch": 71, "duration": 13, "velocity": 96}, {"time": 1162, "pitch": 66, "duration": 6, "velocity": 107}, {"time": 1168, "pitch": 68, "duration": 26, "velocity": 112}, {"time": 1204, "pitch": 66, "duration": 5, "velocity": 102}, {"time": 1210, "pitch": 64, "duration": 4, "velocity": 85}, {"time": 1216, "pitch": 66, "duration": 5, "velocity": 99}, {"time": 1222, "pitch": 64, "duration": 4, "velocity": 78}, {"time": 1228, "pitch": 66, "duration": 5, "velocity": 100}, {"time": 1234, "pitch": 64, "duration": 4, "velocity": 79}, {"time": 1240, "pitch": 66, "duration": 7, "velocity": 107}, {"time": 1252, "pitch": 68, "duration": 10, "velocity": 122}, {"time": 1264, "pitch": 68, "duration": 12, "velocity": 122}, {"time": 1276, "pitch": 61, "duration": 20, "velocity": 93}, {"time": 1300, "pitch": 61, "duration": 5, "velocity": 100}, {"time": 1306, "pitch": 59, "duration": 5, "velocity": 86}, {"time": 1312, "pitch": 61, "duration": 6, "velocity": 96}, {"time": 1324, "pitch": 64, "duration": 5, "velocity": 97}, {"time": 1330, "pitch": 68, "duration": 4, "velocity": 99}, {"time": 1336, "pitch": 66, "duration": 9, "velocity": 107}, {"time": 1342, "pitch": 64, "duration": 4, "velocity": 97}, {"time": 1348, "pitch": 61, "duration": 4, "velocity": 102}, {"time": 1354, "pitch": 59, "duration": 4, "velocity": 85}, {"time": 1360, "pitch": 61, "duration": 26, "velocity": 100}, {"time": 1396, "pitch": 68, "duration": 5, "velocity": 100}, {"time": 1402, "pitch": 71, "duration": 4, "velocity": 97}, {"time": 1408, "pitch": 73, "duration": 11, "velocity": 127}, {"time": 1426, "pitch": 75, "duration": 4, "velocity": 122}, {"time": 1432, "pitch": 76, "duration": 5, "velocity": 112}, {"time": 1438, "pitch": 75, "duration": 6, "velocity": 127}, {"time": 1444, "pitch": 73, "duration": 6, "velocity": 112}, {"time": 1450, "pitch": 71, "duration": 7, "velocity": 112}, {"time": 1456, "pitch": 68, "duration": 24, "velocity": 96}, {"time": 1492, "pitch": 68, "duration": 5, "velocity": 117}, {"time": 1498, "pitch": 71, "duration": 5, "velocity": 100}, {"time": 1504, "pitch": 73, "duration": 10, "velocity": 112}, {"time": 1522, "pitch": 75, "duration": 4, "velocity": 127}, {"time": 1528, "pitch": 76, "duration": 4, "velocity": 127}, {"time": 1534, "pitch": 75, "duration": 4, "velocity": 127}, {"time": 1540, "pitch": 73, "duration": 4, "velocity": 122}, {"time": 1546, "pitch": 71, "duration": 6, "velocity": 100}, {"time": 1552, "pitch": 73, "duration": 31, "velocity": 112}, {"time": 1588, "pitch": 68, "duration": 4, "velocity": 122}, {"time": 1594, "pitch": 71, "duration": 4, "velocity": 102}, {"time": 1600, "pitch": 73, "duration": 4, "velocity": 127}, {"time": 1606, "pitch": 71, "duration": 5, "velocity": 112}, {"time": 1612, "pitch": 73, "duration": 3, "velocity": 127}, {"time": 1618, "pitch": 80, "duration": 6, "velocity": 127}, {"time": 1624, "pitch": 78, "duration": 16, "velocity": 127}, {"time": 1648, "pitch": 78, "duration": 4, "velocity": 127}, {"time": 1654, "pitch": 76, "duration": 5, "velocity": 102}, {"time": 1660, "pitch": 75, "duration": 4, "velocity": 122}, {"time": 1666, "pitch": 73, "duration": 5, "velocity": 122}, {"time": 1672, "pitch": 68, "duration": 10, "velocity": 107}, {"time": 1684, "pitch": 68, "duration": 4, "velocity": 122}, {"time": 1690, "pitch": 71, "duration": 5, "velocity": 102}, {"time": 1696, "pitch": 73, "duration": 5, "velocity": 117}, {"time": 1702, "pitch": 71, "duration": 5, "velocity": 107}, {"time": 1708, "pitch": 73, "duration": 3, "velocity": 117}, {"time": 1714, "pitch": 80, "duration": 5, "velocity": 122}, {"time": 1720, "pitch": 78, "duration": 9, "velocity": 127}, {"time": 1726, "pitch": 76, "duration": 8, "velocity": 112}, {"time": 1738, "pitch": 73, "duration": 3, "velocity": 122}, {"time": 1741, "pitch": 71, "duration": 3, "velocity": 89}, {"time": 1744, "pitch": 73, "duration": 32, "velocity": 122}, {"time": 2164, "pitch": 66, "duration": 5, "velocity": 100}, {"time": 2170, "pitch": 64, "duration": 4, "velocity": 90}, {"time": 2176, "pitch": 66, "duration": 4, "velocity": 112}, {"time": 2182, "pitch": 64, "duration": 4, "velocity": 90}, {"time": 2188, "pitch": 66, "duration": 4, "velocity": 112}, {"time": 2194, "pitch": 64, "duration": 4, "velocity": 93}, {"time": 2200, "pitch": 66, "duration": 9, "velocity": 112}, {"time": 2212, "pitch": 68, "duration": 9, "velocity": 112}, {"time": 2224, "pitch": 68, "duration": 12, "velocity": 112}, {"time": 2236, "pitch": 61, "duration": 20, "velocity": 95}, {"time": 2260, "pitch": 66, "duration": 4, "velocity": 117}, {"time": 2266, "pitch": 64, "duration": 4, "velocity": 92}, {"time": 2272, "pitch": 66, "duration": 4, "velocity": 122}, {"time": 2278, "pitch": 64, "duration": 5, "velocity": 93}, {"time": 2284, "pitch": 66, "duration": 6, "velocity": 117}, {"time": 2290, "pitch": 68, "duration": 4, "velocity": 112}, {"time": 2296, "pitch": 68, "duration": 4, "velocity": 112}, {"time": 2299, "pitch": 71, "duration": 13, "velocity": 96}, {"time": 2314, "pitch": 66, "duration": 6, "velocity": 107}, {"time": 2320, "pitch": 68, "duration": 26, "velocity": 112}, {"time": 2356, "pitch": 66, "duration": 5, "velocity": 102}, {"time": 2362, "pitch": 64, "duration": 4, "velocity": 85}, {"time": 2368, "pitch": 66, "duration": 5, "velocity": 99}, {"time": 2374, "pitch": 64, "duration": 4, "velocity": 78}, {"time": 2380, "pitch": 66, "duration": 5, "velocity": 100}, {"time": 2386, "pitch": 64, "duration": 4, "velocity": 79}, {"time": 2392, "pitch": 66, "duration": 7, "velocity": 107}, {"time": 2404, "pitch": 68, "duration": 10, "velocity": 122}, {"time": 2416, "pitch": 68, "duration": 12, "velocity": 122}, {"time": 2428, "pitch": 61, "duration": 20, "velocity": 93}, {"time": 2452, "pitch": 61, "duration": 5, "velocity": 100}, {"time": 2458, "pitch": 59, "duration": 5, "velocity": 86}, {"time": 2464, "pitch": 61, "duration": 6, "velocity": 96}, {"time": 2476, "pitch": 64, "duration": 5, "velocity": 97}, {"time": 2482, "pitch": 68, "duration": 4, "velocity": 99}, {"time": 2488, "pitch": 66, "duration": 9, "velocity": 107}, {"time": 2494, "pitch": 64, "duration": 4, "velocity": 97}, {"time": 2500, "pitch": 61, "duration": 4, "velocity": 102}, {"time": 2506, "pitch": 59, "duration": 4, "velocity": 85}, {"time": 2512, "pitch": 61, "duration": 26, "velocity": 100}, {"time": 2548, "pitch": 68, "duration": 5, "velocity": 100}, {"time": 2554, "pitch": 71, "duration": 4, "velocity": 97}, {"time": 2560, "pitch": 73, "duration": 11, "velocity": 127}, {"time": 2578, "pitch": 75, "duration": 4, "velocity": 122}, {"time": 2584, "pitch": 76, "duration": 5, "velocity": 112}, {"time": 2590, "pitch": 75, "duration": 6, "velocity": 127}, {"time": 2596, "pitch": 73, "duration": 6, "velocity": 112}, {"time": 2602, "pitch": 71, "duration": 7, "velocity": 112}, {"time": 2608, "pitch": 68, "duration": 24, "velocity": 96}, {"time": 2644, "pitch": 68, "duration": 5, "velocity": 117}, {"time": 2650, "pitch": 71, "duration": 5, "velocity": 100}, {"time": 2656, "pitch": 73, "duration": 10, "velocity": 112}, {"time": 2674, "pitch": 75, "duration": 4, "velocity": 127}, {"time": 2680, "pitch": 76, "duration": 4, "velocity": 127}, {"time": 2686, "pitch": 75, "duration": 4, "velocity": 127}, {"time": 2692, "pitch": 73, "duration": 4, "velocity": 122}, {"time": 2698, "pitch": 71, "duration": 6, "velocity": 100}, {"time": 2704, "pitch": 73, "duration": 31, "velocity": 112}, {"time": 2740, "pitch": 68, "duration": 4, "velocity": 122}, {"time": 2746, "pitch": 71, "duration": 4, "velocity": 102}, {"time": 2752, "pitch": 73, "duration": 4, "velocity": 127}, {"time": 2758, "pitch": 71, "duration": 5, "velocity": 112}, {"time": 2764, "pitch": 73, "duration": 3, "velocity": 127}, {"time": 2770, "pitch": 80, "duration": 6, "velocity": 127}, {"time": 2776, "pitch": 78, "duration": 16, "velocity": 127}, {"time": 2800, "pitch": 78, "duration": 4, "velocity": 127}, {"time": 2806, "pitch": 76, "duration": 5, "velocity": 102}, {"time": 2812, "pitch": 75, "duration": 4, "velocity": 122}, {"time": 2818, "pitch": 73, "duration": 5, "velocity": 122}, {"time": 2824, "pitch": 68, "duration": 10, "velocity": 107}, {"time": 2836, "pitch": 68, "duration": 4, "velocity": 122}, {"time": 2842, "pitch": 71, "duration": 5, "velocity": 102}, {"time": 2848, "pitch": 73, "duration": 5, "velocity": 117}, {"time": 2854, "pitch": 71, "duration": 5, "velocity": 107}, {"time": 2860, "pitch": 73, "duration": 3, "velocity": 117}, {"time": 2866, "pitch": 80, "duration": 5, "velocity": 122}, {"time": 2872, "pitch": 78, "duration": 9, "velocity": 127}, {"time": 2878, "pitch": 76, "duration": 8, "velocity": 112}, {"time": 2890, "pitch": 73, "duration": 3, "velocity": 122}, {"time": 2893, "pitch": 71, "duration": 3, "velocity": 89}, {"time": 2896, "pitch": 73, "duration": 32, "velocity": 122}, {"time": 2944, "pitch": 73, "duration": 5, "velocity": 127}, {"time": 2950, "pitch": 80, "duration": 6, "velocity": 122}, {"time": 2956, "pitch": 78, "duration": 6, "velocity": 127}, {"time": 2962, "pitch": 76, "duration": 4, "velocity": 100}, {"time": 2968, "pitch": 73, "duration": 16, "velocity": 112}, {"time": 2989, "pitch": 73, "duration": 2, "velocity": 117}, {"time": 2992, "pitch": 73, "duration": 4, "velocity": 122}, {"time": 2998, "pitch": 80, "duration": 5, "velocity": 107}, {"time": 3004, "pitch": 78, "duration": 4, "velocity": 122}, {"time": 3010, "pitch": 76, "duration": 4, "velocity": 100}, {"time": 3016, "pitch": 73, "duration": 17, "velocity": 122}, {"time": 3040, "pitch": 73, "duration": 5, "velocity": 122}, {"time": 3046, "pitch": 76, "duration": 4, "velocity": 99}, {"time": 3052, "pitch": 78, "duration": 5, "velocity": 127}, {"time": 3058, "pitch": 76, "duration": 6, "velocity": 117}, {"time": 3064, "pitch": 75, "duration": 7, "velocity": 122}, {"time": 3070, "pitch": 73, "duration": 5, "velocity": 122}, {"time": 3076, "pitch": 71, "duration": 6, "velocity": 107}, {"time": 3082, "pitch": 66, "duration": 5, "velocity": 112}, {"time": 3088, "pitch": 68, "duration": 21, "velocity": 117}, {"time": 3136, "pitch": 73, "duration": 5, "velocity": 127}, {"time": 3142, "pitch": 80, "duration": 6, "velocity": 122}, {"time": 3148, "pitch": 78, "duration": 6, "velocity": 127}, {"time": 3154, "pitch": 76, "duration": 4, "velocity": 100}, {"time": 3160, "pitch": 73, "duration": 8, "velocity": 112}, {"time": 3172, "pitch": 71, "duration": 4, "velocity": 112}, {"time": 3178, "pitch": 73, "duration": 3, "velocity": 117}, {"time": 3184, "pitch": 73, "duration": 4, "velocity": 122}, {"time": 3190, "pitch": 80, "duration": 5, "velocity": 107}, {"time": 3196, "pitch": 78, "duration": 4, "velocity": 122}, {"time": 3202, "pitch": 76, "duration": 4, "velocity": 100}, {"time": 3208, "pitch": 73, "duration": 17, "velocity": 122}, {"time": 3232, "pitch": 73, "duration": 5, "velocity": 122}, {"time": 3238, "pitch": 76, "duration": 4, "velocity": 99}, {"time": 3244, "pitch": 78, "duration": 5, "velocity": 127}, {"time": 3250, "pitch": 76, "duration": 6, "velocity": 117}, {"time": 3256, "pitch": 75, "duration": 7, "velocity": 122}, {"time": 3262, "pitch": 71, "duration": 4, "velocity": 107}, {"time": 3268, "pitch": 68, "duration": 5, "velocity": 100}, {"time": 3274, "pitch": 73, "duration": 10, "velocity": 112}, {"time": 3286, "pitch": 73, "duration": 37, "velocity": 127}, {"time": 3508, "pitch": 68, "duration": 4, "velocity": 122}, {"time": 3514, "pitch": 71, "duration": 4, "velocity": 102}, {"time": 3520, "pitch": 73, "duration": 4, "velocity": 127}, {"time": 3526, "pitch": 71, "duration": 5, "velocity": 112}, {"time": 3532, "pitch": 73, "duration": 3, "velocity": 127}, {"time": 3538, "pitch": 80, "duration": 6, "velocity": 127}, {"time": 3544, "pitch": 78, "duration": 16, "velocity": 127}, {"time": 3568, "pitch": 78, "duration": 4, "velocity": 127}, {"time": 3574, "pitch": 76, "duration": 5, "velocity": 102}, {"time": 3580, "pitch": 75, "duration": 4, "velocity": 122}, {"time": 3586, "pitch": 73, "duration": 5, "velocity": 122}, {"time": 3592, "pitch": 68, "duration": 10, "velocity": 107}, {"time": 3604, "pitch": 68, "duration": 4, "velocity": 122}, {"time": 3610, "pitch": 71, "duration": 5, "velocity": 102}, {"time": 3616, "pitch": 73, "duration": 5, "velocity": 117}, {"time": 3622, "pitch": 71, "duration": 5, "velocity": 107}, {"time": 3628, "pitch": 73, "duration": 3, "velocity": 117}, {"time": 3634, "pitch": 80, "duration": 5, "velocity": 122}, {"time": 3640, "pitch": 78, "duration": 9, "velocity": 127}, {"time": 3646, "pitch": 76, "duration": 8, "velocity": 112}, {"time": 3658, "pitch": 73, "duration": 3, "velocity": 122}, {"time": 3661, "pitch": 71, "duration": 3, "velocity": 89}, {"time": 3664, "pitch": 73, "duration": 24, "velocity": 122}, {"time": 3700, "pitch": 68, "duration": 4, "velocity": 112}, {"time": 3706, "pitch": 71, "duration": 4, "velocity": 90}, {"time": 3712, "pitch": 73, "duration": 5, "velocity": 122}, {"time": 3718, "pitch": 71, "duration": 5, "velocity": 102}, {"time": 3724, "pitch": 73, "duration": 3, "velocity": 122}, {"time": 3732, "pitch": 80, "duration": 5, "velocity": 127}, {"time": 3738, "pitch": 78, "duration": 14, "velocity": 127}, {"time": 3749, "pitch": 76, "duration": 22, "velocity": 122}, {"time": 3784, "pitch": 73, "duration": 15, "velocity": 117}, {"time": 3802, "pitch": 71, "duration": 11, "velocity": 122}, {"time": 3815, "pitch": 73, "duration": 61, "velocity": 127}]}, {"program": 0, "is_drum": false, "name": "PIANO", "notes": [{"time": 256, "pitch": 45, "duration": 14, "velocity": 61}, {"time": 256, "pitch": 57, "duration": 17, "velocity": 41}, {"time": 256, "pitch": 61, "duration": 16, "velocity": 42}, {"time": 256, "pitch": 64, "duration": 16, "velocity": 38}, {"time": 256, "pitch": 68, "duration": 16, "velocity": 40}, {"time": 280, "pitch": 47, "duration": 16, "velocity": 48}, {"time": 280, "pitch": 59, "duration": 19, "velocity": 39}, {"time": 280, "pitch": 63, "duration": 20, "velocity": 44}, {"time": 280, "pitch": 66, "duration": 17, "velocity": 42}, {"time": 304, "pitch": 49, "duration": 29, "velocity": 45}, {"time": 304, "pitch": 61, "duration": 29, "velocity": 49}, {"time": 304, "pitch": 64, "duration": 28, "velocity": 52}, {"time": 304, "pitch": 68, "duration": 28, "velocity": 41}, {"time": 352, "pitch": 45, "duration": 22, "velocity": 39}, {"time": 352, "pitch": 57, "duration": 21, "velocity": 40}, {"time": 352, "pitch": 61, "duration": 22, "velocity": 50}, {"time": 352, "pitch": 64, "duration": 18, "velocity": 43}, {"time": 352, "pitch": 68, "duration": 20, "velocity": 45}, {"time": 376, "pitch": 47, "duration": 14, "velocity": 37}, {"time": 376, "pitch": 59, "duration": 14, "velocity": 50}, {"time": 376, "pitch": 63, "duration": 13, "velocity": 39}, {"time": 376, "pitch": 66, "duration": 13, "velocity": 42}, {"time": 400, "pitch": 49, "duration": 36, "velocity": 55}, {"time": 400, "pitch": 56, "duration": 36, "velocity": 45}, {"time": 400, "pitch": 61, "duration": 36, "velocity": 44}, {"time": 400, "pitch": 64, "duration": 36, "velocity": 48}, {"time": 445, "pitch": 45, "duration": 19, "velocity": 42}, {"time": 448, "pitch": 57, "duration": 21, "velocity": 47}, {"time": 448, "pitch": 61, "duration": 23, "velocity": 50}, {"time": 448, "pitch": 64, "duration": 19, "velocity": 41}, {"time": 448, "pitch": 68, "duration": 20, "velocity": 43}, {"time": 472, "pitch": 47, "duration": 15, "velocity": 52}, {"time": 472, "pitch": 59, "duration": 15, "velocity": 55}, {"time": 472, "pitch": 63, "duration": 15, "velocity": 50}, {"time": 472, "pitch": 66, "duration": 15, "velocity": 56}, {"time": 496, "pitch": 49, "duration": 28, "velocity": 61}, {"time": 496, "pitch": 56, "duration": 33, "velocity": 55}, {"time": 496, "pitch": 61, "duration": 33, "velocity": 52}, {"time": 496, "pitch": 64, "duration": 34, "velocity": 59}, {"time": 544, "pitch": 45, "duration": 16, "velocity": 51}, {"time": 544, "pitch": 56, "duration": 15, "velocity": 54}, {"time": 544, "pitch": 57, "duration": 18, "velocity": 50}, {"time": 544, "pitch": 61, "duration": 16, "velocity": 56}, {"time": 544, "pitch": 64, "duration": 16, "velocity": 50}, {"time": 544, "pitch": 68, "duration": 16, "velocity": 44}, {"time": 568, "pitch": 47, "duration": 14, "velocity": 47}, {"time": 568, "pitch": 59, "duration": 13, "velocity": 57}, {"time": 568, "pitch": 63, "duration": 13, "velocity": 61}, {"time": 568, "pitch": 66, "duration": 13, "velocity": 61}, {"time": 592, "pitch": 49, "duration": 35, "velocity": 44}, {"time": 592, "pitch": 56, "duration": 33, "velocity": 44}, {"time": 592, "pitch": 61, "duration": 34, "velocity": 46}, {"time": 592, "pitch": 64, "duration": 34, "velocity": 45}, {"time": 640, "pitch": 45, "duration": 18, "velocity": 43}, {"time": 640, "pitch": 57, "duration": 19, "velocity": 42}, {"time": 640, "pitch": 61, "duration": 20, "velocity": 50}, {"time": 640, "pitch": 64, "duration": 18, "velocity": 43}, {"time": 640, "pitch": 68, "duration": 19, "velocity": 50}, {"time": 664, "pitch": 47, "duration": 14, "velocity": 53}, {"time": 664, "pitch": 59, "duration": 15, "velocity": 50}, {"time": 664, "pitch": 63, "duration": 15, "velocity": 42}, {"time": 664, "pitch": 66, "duration": 14, "velocity": 44}, {"time": 688, "pitch": 44, "duration": 29, "velocity": 40}, {"time": 688, "pitch": 56, "duration": 30, "velocity": 40}, {"time": 688, "pitch": 59, "duration": 30, "velocity": 56}, {"time": 688, "pitch": 63, "duration": 30, "velocity": 42}, {"time": 736, "pitch": 45, "duration": 15, "velocity": 39}, {"time": 736, "pitch": 57, "duration": 18, "velocity": 61}, {"time": 736, "pitch": 61, "duration": 16, "velocity": 61}, {"time": 736, "pitch": 64, "duration": 15, "velocity": 52}, {"time": 736, "pitch": 68, "duration": 16, "velocity": 48}, {"time": 760, "pitch": 47, "duration": 14, "velocity": 47}, {"time": 760, "pitch": 59, "duration": 15, "velocity": 48}, {"time": 760, "pitch": 63, "duration": 14, "velocity": 47}, {"time": 760, "pitch": 66, "duration": 14, "velocity": 51}, {"time": 784, "pitch": 49, "duration": 26, "velocity": 52}, {"time": 784, "pitch": 56, "duration": 26, "velocity": 47}, {"time": 784, "pitch": 61, "duration": 26, "velocity": 41}, {"time": 784, "pitch": 64, "duration": 26, "velocity": 53}, {"time": 832, "pitch": 45, "duration": 15, "velocity": 61}, {"time": 832, "pitch": 57, "duration": 17, "velocity": 52}, {"time": 832, "pitch": 61, "duration": 18, "velocity": 59}, {"time": 832, "pitch": 64, "duration": 15, "velocity": 55}, {"time": 832, "pitch": 68, "duration": 16, "velocity": 62}, {"time": 856, "pitch": 47, "duration": 16, "velocity": 55}, {"time": 856, "pitch": 59, "duration": 17, "velocity": 58}, {"time": 856, "pitch": 63, "duration": 16, "velocity": 54}, {"time": 856, "pitch": 66, "duration": 16, "velocity": 59}, {"time": 880, "pitch": 44, "duration": 19, "velocity": 48}, {"time": 880, "pitch": 56, "duration": 20, "velocity": 52}, {"time": 880, "pitch": 59, "duration": 18, "velocity": 63}, {"time": 880, "pitch": 63, "duration": 18, "velocity": 60}, {"time": 904, "pitch": 49, "duration": 16, "velocity": 41}, {"time": 904, "pitch": 56, "duration": 15, "velocity": 47}, {"time": 904, "pitch": 61, "duration": 16, "velocity": 52}, {"time": 904, "pitch": 64, "duration": 17, "velocity": 58}, {"time": 928, "pitch": 45, "duration": 16, "velocity": 42}, {"time": 928, "pitch": 57, "duration": 18, "velocity": 48}, {"time": 928, "pitch": 61, "duration": 16, "velocity": 52}, {"time": 928, "pitch": 64, "duration": 15, "velocity": 45}, {"time": 928, "pitch": 68, "duration": 16, "velocity": 54}, {"time": 952, "pitch": 47, "duration": 16, "velocity": 51}, {"time": 952, "pitch": 59, "duration": 15, "velocity": 53}, {"time": 952, "pitch": 63, "duration": 14, "velocity": 59}, {"time": 952, "pitch": 66, "duration": 14, "velocity": 55}, {"time": 976, "pitch": 49, "duration": 23, "velocity": 57}, {"time": 976, "pitch": 56, "duration": 26, "velocity": 54}, {"time": 976, "pitch": 61, "duration": 26, "velocity": 47}, {"time": 976, "pitch": 64, "duration": 26, "velocity": 57}, {"time": 1024, "pitch": 45, "duration": 18, "velocity": 62}, {"time": 1030, "pitch": 52, "duration": 18, "velocity": 61}, {"time": 1036, "pitch": 64, "duration": 13, "velocity": 77}, {"time": 1042, "pitch": 57, "duration": 8, "velocity": 43}, {"time": 1048, "pitch": 47, "duration": 15, "velocity": 61}, {"time": 1054, "pitch": 54, "duration": 8, "velocity": 56}, {"time": 1060, "pitch": 66, "duration": 13, "velocity": 69}, {"time": 1072, "pitch": 49, "duration": 40, "velocity": 67}, {"time": 1078, "pitch": 56, "duration": 32, "velocity": 44}, {"time": 1084, "pitch": 64, "duration": 38, "velocity": 55}, {"time": 1090, "pitch": 63, "duration": 7, "velocity": 24}, {"time": 1096, "pitch": 61, "duration": 13, "velocity": 35}, {"time": 1114, "pitch": 56, "duration": 7, "velocity": 55}, {"time": 1120, "pitch": 45, "duration": 15, "velocity": 71}, {"time": 1126, "pitch": 52, "duration": 12, "velocity": 61}, {"time": 1132, "pitch": 64, "duration": 13, "velocity": 79}, {"time": 1138, "pitch": 57, "duration": 8, "velocity": 70}, {"time": 1141, "pitch": 61, "duration": 5, "velocity": 57}, {"time": 1144, "pitch": 47, "duration": 14, "velocity": 67}, {"time": 1150, "pitch": 54, "duration": 8, "velocity": 63}, {"time": 1156, "pitch": 66, "duration": 11, "velocity": 89}, {"time": 1168, "pitch": 49, "duration": 43, "velocity": 69}, {"time": 1174, "pitch": 56, "duration": 9, "velocity": 53}, {"time": 1180, "pitch": 64, "duration": 23, "velocity": 58}, {"time": 1186, "pitch": 56, "duration": 21, "velocity": 40}, {"time": 1192, "pitch": 61, "duration": 25, "velocity": 39}, {"time": 1204, "pitch": 64, "duration": 15, "velocity": 66}, {"time": 1210, "pitch": 56, "duration": 6, "velocity": 53}, {"time": 1216, "pitch": 45, "duration": 20, "velocity": 69}, {"time": 1222, "pitch": 52, "duration": 18, "velocity": 63}, {"time": 1228, "pitch": 57, "duration": 1, "velocity": 26}, {"time": 1228, "pitch": 61, "duration": 2, "velocity": 31}, {"time": 1228, "pitch": 64, "duration": 14, "velocity": 25}, {"time": 1228, "pitch": 68, "duration": 15, "velocity": 82}, {"time": 1234, "pitch": 57, "duration": 9, "velocity": 49}, {"time": 1234, "pitch": 61, "duration": 13, "velocity": 11}, {"time": 1240, "pitch": 47, "duration": 18, "velocity": 63}, {"time": 1246, "pitch": 54, "duration": 11, "velocity": 53}, {"time": 1252, "pitch": 66, "duration": 13, "velocity": 63}, {"time": 1264, "pitch": 49, "duration": 41, "velocity": 66}, {"time": 1270, "pitch": 56, "duration": 23, "velocity": 59}, {"time": 1276, "pitch": 64, "duration": 21, "velocity": 58}, {"time": 1282, "pitch": 61, "duration": 19, "velocity": 41}, {"time": 1294, "pitch": 56, "duration": 8, "velocity": 48}, {"time": 1300, "pitch": 64, "duration": 15, "velocity": 66}, {"time": 1306, "pitch": 56, "duration": 7, "velocity": 51}, {"time": 1312, "pitch": 45, "duration": 18, "velocity": 67}, {"time": 1318, "pitch": 52, "duration": 13, "velocity": 62}, {"time": 1324, "pitch": 64, "duration": 12, "velocity": 46}, {"time": 1324, "pitch": 68, "duration": 13, "velocity": 79}, {"time": 1330, "pitch": 57, "duration": 8, "velocity": 52}, {"time": 1333, "pitch": 61, "duration": 3, "velocity": 19}, {"time": 1336, "pitch": 47, "duration": 15, "velocity": 61}, {"time": 1342, "pitch": 54, "duration": 8, "velocity": 50}, {"time": 1348, "pitch": 66, "duration": 12, "velocity": 66}, {"time": 1354, "pitch": 59, "duration": 7, "velocity": 50}, {"time": 1360, "pitch": 49, "duration": 43, "velocity": 64}, {"time": 1366, "pitch": 56, "duration": 37, "velocity": 57}, {"time": 1372, "pitch": 64, "duration": 32, "velocity": 54}, {"time": 1378, "pitch": 63, "duration": 11, "velocity": 39}, {"time": 1384, "pitch": 61, "duration": 24, "velocity": 38}, {"time": 1408, "pitch": 45, "duration": 22, "velocity": 72}, {"time": 1411, "pitch": 52, "duration": 11, "velocity": 77}, {"time": 1414, "pitch": 57, "duration": 8, "velocity": 58}, {"time": 1417, "pitch": 61, "duration": 4, "velocity": 92}, {"time": 1420, "pitch": 64, "duration": 12, "velocity": 96}, {"time": 1423, "pitch": 52, "duration": 9, "velocity": 62}, {"time": 1426, "pitch": 57, "duration": 7, "velocity": 88}, {"time": 1429, "pitch": 61, "duration": 5, "velocity": 67}, {"time": 1432, "pitch": 47, "duration": 18, "velocity": 62}, {"time": 1435, "pitch": 54, "duration": 11, "velocity": 70}, {"time": 1438, "pitch": 59, "duration": 8, "velocity": 68}, {"time": 1441, "pitch": 63, "duration": 5, "velocity": 96}, {"time": 1444, "pitch": 66, "duration": 11, "velocity": 102}, {"time": 1447, "pitch": 54, "duration": 2, "velocity": 47}, {"time": 1450, "pitch": 59, "duration": 6, "velocity": 78}, {"time": 1453, "pitch": 63, "duration": 4, "velocity": 89}, {"time": 1456, "pitch": 49, "duration": 24, "velocity": 65}, {"time": 1459, "pitch": 56, "duration": 5, "velocity": 48}, {"time": 1462, "pitch": 61, "duration": 14, "velocity": 69}, {"time": 1465, "pitch": 56, "duration": 5, "velocity": 68}, {"time": 1468, "pitch": 64, "duration": 7, "velocity": 66}, {"time": 1471, "pitch": 56, "duration": 10, "velocity": 59}, {"time": 1474, "pitch": 63, "duration": 4, "velocity": 50}, {"time": 1477, "pitch": 61, "duration": 6, "velocity": 69}, {"time": 1480, "pitch": 49, "duration": 16, "velocity": 64}, {"time": 1483, "pitch": 56, "duration": 5, "velocity": 58}, {"time": 1486, "pitch": 61, "duration": 7, "velocity": 52}, {"time": 1489, "pitch": 56, "duration": 4, "velocity": 76}, {"time": 1492, "pitch": 64, "duration": 12, "velocity": 83}, {"time": 1495, "pitch": 56, "duration": 4, "velocity": 85}, {"time": 1498, "pitch": 61, "duration": 6, "velocity": 86}, {"time": 1501, "pitch": 56, "duration": 3, "velocity": 95}, {"time": 1504, "pitch": 45, "duration": 22, "velocity": 73}, {"time": 1507, "pitch": 52, "duration": 21, "velocity": 69}, {"time": 1510, "pitch": 57, "duration": 7, "velocity": 74}, {"time": 1513, "pitch": 61, "duration": 5, "velocity": 107}, {"time": 1516, "pitch": 68, "duration": 5, "velocity": 100}, {"time": 1519, "pitch": 57, "duration": 8, "velocity": 89}, {"time": 1522, "pitch": 61, "duration": 8, "velocity": 107}, {"time": 1525, "pitch": 64, "duration": 3, "velocity": 71}, {"time": 1528, "pitch": 47, "duration": 20, "velocity": 69}, {"time": 1531, "pitch": 54, "duration": 11, "velocity": 75}, {"time": 1534, "pitch": 59, "duration": 8, "velocity": 66}, {"time": 1537, "pitch": 63, "duration": 5, "velocity": 86}, {"time": 1540, "pitch": 66, "duration": 10, "velocity": 102}, {"time": 1543, "pitch": 54, "duration": 3, "velocity": 61}, {"time": 1546, "pitch": 63, "duration": 6, "velocity": 99}, {"time": 1549, "pitch": 59, "duration": 3, "velocity": 72}, {"time": 1552, "pitch": 49, "duration": 23, "velocity": 81}, {"time": 1555, "pitch": 56, "duration": 5, "velocity": 75}, {"time": 1558, "pitch": 61, "duration": 9, "velocity": 73}, {"time": 1561, "pitch": 56, "duration": 4, "velocity": 89}, {"time": 1564, "pitch": 64, "duration": 7, "velocity": 70}, {"time": 1567, "pitch": 56, "duration": 10, "velocity": 90}, {"time": 1570, "pitch": 63, "duration": 4, "velocity": 68}, {"time": 1573, "pitch": 61, "duration": 5, "velocity": 50}, {"time": 1576, "pitch": 49, "duration": 18, "velocity": 59}, {"time": 1579, "pitch": 56, "duration": 5, "velocity": 59}, {"time": 1582, "pitch": 61, "duration": 7, "velocity": 53}, {"time": 1585, "pitch": 56, "duration": 5, "velocity": 79}, {"time": 1588, "pitch": 64, "duration": 12, "velocity": 96}, {"time": 1591, "pitch": 56, "duration": 4, "velocity": 96}, {"time": 1594, "pitch": 61, "duration": 6, "velocity": 97}, {"time": 1597, "pitch": 56, "duration": 3, "velocity": 100}, {"time": 1600, "pitch": 45, "duration": 21, "velocity": 73}, {"time": 1603, "pitch": 52, "duration": 11, "velocity": 73}, {"time": 1606, "pitch": 57, "duration": 8, "velocity": 82}, {"time": 1609, "pitch": 61, "duration": 3, "velocity": 99}, {"time": 1612, "pitch": 64, "duration": 10, "velocity": 93}, {"time": 1615, "pitch": 52, "duration": 9, "velocity": 69}, {"time": 1618, "pitch": 57, "duration": 6, "velocity": 97}, {"time": 1621, "pitch": 61, "duration": 5, "velocity": 117}, {"time": 1624, "pitch": 47, "duration": 18, "velocity": 76}, {"time": 1627, "pitch": 54, "duration": 10, "velocity": 76}, {"time": 1630, "pitch": 59, "duration": 6, "velocity": 74}, {"time": 1633, "pitch": 63, "duration": 5, "velocity": 95}, {"time": 1636, "pitch": 66, "duration": 12, "velocity": 107}, {"time": 1639, "pitch": 54, "duration": 3, "velocity": 95}, {"time": 1642, "pitch": 63, "duration": 6, "velocity": 102}, {"time": 1645, "pitch": 59, "duration": 3, "velocity": 92}, {"time": 1648, "pitch": 49, "duration": 13, "velocity": 97}, {"time": 1651, "pitch": 56, "duration": 4, "velocity": 66}, {"time": 1654, "pitch": 61, "duration": 8, "velocity": 67}, {"time": 1657, "pitch": 56, "duration": 4, "velocity": 68}, {"time": 1660, "pitch": 64, "duration": 11, "velocity": 69}, {"time": 1663, "pitch": 56, "duration": 4, "velocity": 79}, {"time": 1666, "pitch": 61, "duration": 6, "velocity": 62}, {"time": 1669, "pitch": 56, "duration": 3, "velocity": 95}, {"time": 1672, "pitch": 44, "duration": 20, "velocity": 74}, {"time": 1675, "pitch": 51, "duration": 17, "velocity": 44}, {"time": 1678, "pitch": 59, "duration": 5, "velocity": 66}, {"time": 1681, "pitch": 63, "duration": 5, "velocity": 83}, {"time": 1684, "pitch": 68, "duration": 12, "velocity": 86}, {"time": 1687, "pitch": 59, "duration": 4, "velocity": 82}, {"time": 1690, "pitch": 63, "duration": 5, "velocity": 92}, {"time": 1693, "pitch": 59, "duration": 4, "velocity": 74}, {"time": 1696, "pitch": 45, "duration": 18, "velocity": 85}, {"time": 1699, "pitch": 52, "duration": 14, "velocity": 35}, {"time": 1699, "pitch": 57, "duration": 5, "velocity": 58}, {"time": 1702, "pitch": 61, "duration": 10, "velocity": 90}, {"time": 1705, "pitch": 57, "duration": 4, "velocity": 76}, {"time": 1708, "pitch": 68, "duration": 11, "velocity": 97}, {"time": 1711, "pitch": 57, "duration": 4, "velocity": 76}, {"time": 1714, "pitch": 61, "duration": 6, "velocity": 99}, {"time": 1717, "pitch": 57, "duration": 4, "velocity": 85}, {"time": 1720, "pitch": 47, "duration": 19, "velocity": 72}, {"time": 1723, "pitch": 54, "duration": 11, "velocity": 66}, {"time": 1726, "pitch": 59, "duration": 4, "velocity": 75}, {"time": 1729, "pitch": 66, "duration": 13, "velocity": 99}, {"time": 1732, "pitch": 59, "duration": 6, "velocity": 79}, {"time": 1735, "pitch": 54, "duration": 3, "velocity": 73}, {"time": 1738, "pitch": 63, "duration": 5, "velocity": 92}, {"time": 1741, "pitch": 59, "duration": 3, "velocity": 74}, {"time": 1744, "pitch": 49, "duration": 23, "velocity": 72}, {"time": 1747, "pitch": 56, "duration": 5, "velocity": 65}, {"time": 1750, "pitch": 61, "duration": 7, "velocity": 63}, {"time": 1753, "pitch": 56, "duration": 4, "velocity": 75}, {"time": 1756, "pitch": 64, "duration": 8, "velocity": 75}, {"time": 1759, "pitch": 56, "duration": 5, "velocity": 86}, {"time": 1762, "pitch": 63, "duration": 4, "velocity": 88}, {"time": 1765, "pitch": 61, "duration": 5, "velocity": 96}, {"time": 1768, "pitch": 49, "duration": 16, "velocity": 72}, {"time": 1771, "pitch": 56, "duration": 5, "velocity": 56}, {"time": 1774, "pitch": 61, "duration": 6, "velocity": 59}, {"time": 1777, "pitch": 56, "duration": 4, "velocity": 72}, {"time": 1780, "pitch": 64, "duration": 12, "velocity": 76}, {"time": 1783, "pitch": 56, "duration": 4, "velocity": 83}, {"time": 1786, "pitch": 61, "duration": 5, "velocity": 78}, {"time": 1789, "pitch": 56, "duration": 3, "velocity": 102}, {"time": 1792, "pitch": 45, "duration": 42, "velocity": 89}, {"time": 1798, "pitch": 52, "duration": 23, "velocity": 63}, {"time": 1804, "pitch": 64, "duration": 36, "velocity": 88}, {"time": 1810, "pitch": 57, "duration": 17, "velocity": 71}, {"time": 1816, "pitch": 61, "duration": 12, "velocity": 59}, {"time": 1822, "pitch": 52, "duration": 8, "velocity": 49}, {"time": 1828, "pitch": 61, "duration": 13, "velocity": 50}, {"time": 1828, "pitch": 68, "duration": 13, "velocity": 77}, {"time": 1840, "pitch": 47, "duration": 37, "velocity": 73}, {"time": 1846, "pitch": 54, "duration": 11, "velocity": 59}, {"time": 1852, "pitch": 66, "duration": 11, "velocity": 107}, {"time": 1858, "pitch": 54, "duration": 10, "velocity": 56}, {"time": 1864, "pitch": 59, "duration": 2, "velocity": 62}, {"time": 1864, "pitch": 63, "duration": 14, "velocity": 78}, {"time": 1864, "pitch": 66, "duration": 23, "velocity": 73}, {"time": 1870, "pitch": 54, "duration": 6, "velocity": 62}, {"time": 1876, "pitch": 59, "duration": 12, "velocity": 82}, {"time": 1882, "pitch": 63, "duration": 6, "velocity": 77}, {"time": 1888, "pitch": 49, "duration": 43, "velocity": 90}, {"time": 1894, "pitch": 56, "duration": 9, "velocity": 59}, {"time": 1900, "pitch": 61, "duration": 18, "velocity": 73}, {"time": 1906, "pitch": 56, "duration": 8, "velocity": 52}, {"time": 1912, "pitch": 64, "duration": 14, "velocity": 76}, {"time": 1918, "pitch": 56, "duration": 18, "velocity": 53}, {"time": 1924, "pitch": 63, "duration": 11, "velocity": 100}, {"time": 1930, "pitch": 61, "duration": 8, "velocity": 46}, {"time": 1936, "pitch": 49, "duration": 22, "velocity": 100}, {"time": 1942, "pitch": 56, "duration": 21, "velocity": 63}, {"time": 1948, "pitch": 64, "duration": 11, "velocity": 86}, {"time": 1954, "pitch": 63, "duration": 14, "velocity": 57}, {"time": 1960, "pitch": 49, "duration": 17, "velocity": 59}, {"time": 1966, "pitch": 56, "duration": 8, "velocity": 69}, {"time": 1972, "pitch": 61, "duration": 11, "velocity": 122}, {"time": 1978, "pitch": 56, "duration": 6, "velocity": 96}, {"time": 1984, "pitch": 45, "duration": 41, "velocity": 92}, {"time": 1990, "pitch": 52, "duration": 23, "velocity": 61}, {"time": 1996, "pitch": 57, "duration": 8, "velocity": 95}, {"time": 2002, "pitch": 61, "duration": 18, "velocity": 88}, {"time": 2002, "pitch": 64, "duration": 16, "velocity": 82}, {"time": 2014, "pitch": 52, "duration": 11, "velocity": 54}, {"time": 2020, "pitch": 64, "duration": 12, "velocity": 92}, {"time": 2026, "pitch": 61, "duration": 7, "velocity": 66}, {"time": 2032, "pitch": 47, "duration": 39, "velocity": 81}, {"time": 2038, "pitch": 54, "duration": 22, "velocity": 70}, {"time": 2044, "pitch": 59, "duration": 8, "velocity": 92}, {"time": 2050, "pitch": 63, "duration": 16, "velocity": 77}, {"time": 2050, "pitch": 66, "duration": 15, "velocity": 93}, {"time": 2062, "pitch": 54, "duration": 6, "velocity": 56}, {"time": 2068, "pitch": 66, "duration": 12, "velocity": 112}, {"time": 2074, "pitch": 59, "duration": 7, "velocity": 72}, {"time": 2080, "pitch": 49, "duration": 28, "velocity": 93}, {"time": 2086, "pitch": 56, "duration": 56, "velocity": 50}, {"time": 2092, "pitch": 64, "duration": 8, "velocity": 64}, {"time": 2098, "pitch": 63, "duration": 16, "velocity": 63}, {"time": 2110, "pitch": 49, "duration": 10, "velocity": 54}, {"time": 2116, "pitch": 64, "duration": 7, "velocity": 90}, {"time": 2122, "pitch": 63, "duration": 6, "velocity": 88}, {"time": 2128, "pitch": 49, "duration": 47, "velocity": 72}, {"time": 2128, "pitch": 61, "duration": 12, "velocity": 77}, {"time": 2128, "pitch": 64, "duration": 10, "velocity": 88}, {"time": 2140, "pitch": 64, "duration": 23, "velocity": 75}, {"time": 2146, "pitch": 56, "duration": 20, "velocity": 60}, {"time": 2152, "pitch": 61, "duration": 24, "velocity": 66}, {"time": 2164, "pitch": 64, "duration": 12, "velocity": 72}, {"time": 2170, "pitch": 56, "duration": 6, "velocity": 58}, {"time": 2176, "pitch": 45, "duration": 18, "velocity": 62}, {"time": 2182, "pitch": 52, "duration": 18, "velocity": 61}, {"time": 2188, "pitch": 64, "duration": 13, "velocity": 77}, {"time": 2194, "pitch": 57, "duration": 8, "velocity": 43}, {"time": 2200, "pitch": 47, "duration": 15, "velocity": 61}, {"time": 2206, "pitch": 54, "duration": 8, "velocity": 56}, {"time": 2212, "pitch": 66, "duration": 13, "velocity": 69}, {"time": 2224, "pitch": 49, "duration": 40, "velocity": 67}, {"time": 2230, "pitch": 56, "duration": 32, "velocity": 44}, {"time": 2236, "pitch": 64, "duration": 38, "velocity": 55}, {"time": 2242, "pitch": 63, "duration": 7, "velocity": 24}, {"time": 2248, "pitch": 61, "duration": 13, "velocity": 35}, {"time": 2266, "pitch": 56, "duration": 7, "velocity": 55}, {"time": 2272, "pitch": 45, "duration": 15, "velocity": 71}, {"time": 2278, "pitch": 52, "duration": 12, "velocity": 61}, {"time": 2284, "pitch": 64, "duration": 13, "velocity": 79}, {"time": 2290, "pitch": 57, "duration": 8, "velocity": 70}, {"time": 2293, "pitch": 61, "duration": 5, "velocity": 57}, {"time": 2296, "pitch": 47, "duration": 14, "velocity": 67}, {"time": 2302, "pitch": 54, "duration": 8, "velocity": 63}, {"time": 2308, "pitch": 66, "duration": 11, "velocity": 89}, {"time": 2320, "pitch": 49, "duration": 43, "velocity": 69}, {"time": 2326, "pitch": 56, "duration": 9, "velocity": 53}, {"time": 2332, "pitch": 64, "duration": 23, "velocity": 58}, {"time": 2338, "pitch": 56, "duration": 21, "velocity": 40}, {"time": 2344, "pitch": 61, "duration": 25, "velocity": 39}, {"time": 2356, "pitch": 64, "duration": 15, "velocity": 66}, {"time": 2362, "pitch": 56, "duration": 6, "velocity": 53}, {"time": 2368, "pitch": 45, "duration": 20, "velocity": 69}, {"time": 2374, "pitch": 52, "duration": 18, "velocity": 63}, {"time": 2380, "pitch": 57, "duration": 1, "velocity": 26}, {"time": 2380, "pitch": 61, "duration": 2, "velocity": 31}, {"time": 2380, "pitch": 64, "duration": 14, "velocity": 25}, {"time": 2380, "pitch": 68, "duration": 15, "velocity": 82}, {"time": 2386, "pitch": 57, "duration": 9, "velocity": 49}, {"time": 2386, "pitch": 61, "duration": 13, "velocity": 11}, {"time": 2392, "pitch": 47, "duration": 18, "velocity": 63}, {"time": 2398, "pitch": 54, "duration": 11, "velocity": 53}, {"time": 2404, "pitch": 66, "duration": 13, "velocity": 63}, {"time": 2416, "pitch": 49, "duration": 41, "velocity": 66}, {"time": 2422, "pitch": 56, "duration": 23, "velocity": 59}, {"time": 2428, "pitch": 64, "duration": 21, "velocity": 58}, {"time": 2434, "pitch": 61, "duration": 19, "velocity": 41}, {"time": 2446, "pitch": 56, "duration": 8, "velocity": 48}, {"time": 2452, "pitch": 64, "duration": 15, "velocity": 66}, {"time": 2458, "pitch": 56, "duration": 7, "velocity": 51}, {"time": 2464, "pitch": 45, "duration": 18, "velocity": 67}, {"time": 2470, "pitch": 52, "duration": 13, "velocity": 62}, {"time": 2476, "pitch": 64, "duration": 12, "velocity": 46}, {"time": 2476, "pitch": 68, "duration": 13, "velocity": 79}, {"time": 2482, "pitch": 57, "duration": 8, "velocity": 52}, {"time": 2485, "pitch": 61, "duration": 3, "velocity": 19}, {"time": 2488, "pitch": 47, "duration": 15, "velocity": 61}, {"time": 2494, "pitch": 54, "duration": 8, "velocity": 50}, {"time": 2500, "pitch": 66, "duration": 12, "velocity": 66}, {"time": 2506, "pitch": 59, "duration": 7, "velocity": 50}, {"time": 2512, "pitch": 49, "duration": 43, "velocity": 64}, {"time": 2518, "pitch": 56, "duration": 37, "velocity": 57}, {"time": 2524, "pitch": 64, "duration": 32, "velocity": 54}, {"time": 2530, "pitch": 63, "duration": 11, "velocity": 39}, {"time": 2536, "pitch": 61, "duration": 24, "velocity": 38}, {"time": 2560, "pitch": 45, "duration": 22, "velocity": 72}, {"time": 2563, "pitch": 52, "duration": 11, "velocity": 77}, {"time": 2566, "pitch": 57, "duration": 8, "velocity": 58}, {"time": 2569, "pitch": 61, "duration": 4, "velocity": 92}, {"time": 2572, "pitch": 64, "duration": 12, "velocity": 96}, {"time": 2575, "pitch": 52, "duration": 9, "velocity": 62}, {"time": 2578, "pitch": 57, "duration": 7, "velocity": 88}, {"time": 2581, "pitch": 61, "duration": 5, "velocity": 67}, {"time": 2584, "pitch": 47, "duration": 18, "velocity": 62}, {"time": 2587, "pitch": 54, "duration": 11, "velocity": 70}, {"time": 2590, "pitch": 59, "duration": 8, "velocity": 68}, {"time": 2593, "pitch": 63, "duration": 5, "velocity": 96}, {"time": 2596, "pitch": 66, "duration": 11, "velocity": 102}, {"time": 2599, "pitch": 54, "duration": 2, "velocity": 47}, {"time": 2602, "pitch": 59, "duration": 6, "velocity": 78}, {"time": 2605, "pitch": 63, "duration": 4, "velocity": 89}, {"time": 2608, "pitch": 49, "duration": 24, "velocity": 65}, {"time": 2611, "pitch": 56, "duration": 5, "velocity": 48}, {"time": 2614, "pitch": 61, "duration": 14, "velocity": 69}, {"time": 2617, "pitch": 56, "duration": 5, "velocity": 68}, {"time": 2620, "pitch": 64, "duration": 7, "velocity": 66}, {"time": 2623, "pitch": 56, "duration": 10, "velocity": 59}, {"time": 2626, "pitch": 63, "duration": 4, "velocity": 50}, {"time": 2629, "pitch": 61, "duration": 6, "velocity": 69}, {"time": 2632, "pitch": 49, "duration": 16, "velocity": 64}, {"time": 2635, "pitch": 56, "duration": 5, "velocity": 58}, {"time": 2638, "pitch": 61, "duration": 7, "velocity": 52}, {"time": 2641, "pitch": 56, "duration": 4, "velocity": 76}, {"time": 2644, "pitch": 64, "duration": 12, "velocity": 83}, {"time": 2647, "pitch": 56, "duration": 4, "velocity": 85}, {"time": 2650, "pitch": 61, "duration": 6, "velocity": 86}, {"time": 2653, "pitch": 56, "duration": 3, "velocity": 95}, {"time": 2656, "pitch": 45, "duration": 22, "velocity": 73}, {"time": 2659, "pitch": 52, "duration": 21, "velocity": 69}, {"time": 2662, "pitch": 57, "duration": 7, "velocity": 74}, {"time": 2665, "pitch": 61, "duration": 5, "velocity": 107}, {"time": 2668, "pitch": 68, "duration": 5, "velocity": 100}, {"time": 2671, "pitch": 57, "duration": 8, "velocity": 89}, {"time": 2674, "pitch": 61, "duration": 8, "velocity": 107}, {"time": 2677, "pitch": 64, "duration": 3, "velocity": 71}, {"time": 2680, "pitch": 47, "duration": 20, "velocity": 69}, {"time": 2683, "pitch": 54, "duration": 11, "velocity": 75}, {"time": 2686, "pitch": 59, "duration": 8, "velocity": 66}, {"time": 2689, "pitch": 63, "duration": 5, "velocity": 86}, {"time": 2692, "pitch": 66, "duration": 10, "velocity": 102}, {"time": 2695, "pitch": 54, "duration": 3, "velocity": 61}, {"time": 2698, "pitch": 63, "duration": 6, "velocity": 99}, {"time": 2701, "pitch": 59, "duration": 3, "velocity": 72}, {"time": 2704, "pitch": 49, "duration": 23, "velocity": 81}, {"time": 2707, "pitch": 56, "duration": 5, "velocity": 75}, {"time": 2710, "pitch": 61, "duration": 9, "velocity": 73}, {"time": 2713, "pitch": 56, "duration": 4, "velocity": 89}, {"time": 2716, "pitch": 64, "duration": 7, "velocity": 70}, {"time": 2719, "pitch": 56, "duration": 10, "velocity": 90}, {"time": 2722, "pitch": 63, "duration": 4, "velocity": 68}, {"time": 2725, "pitch": 61, "duration": 5, "velocity": 50}, {"time": 2728, "pitch": 49, "duration": 18, "velocity": 59}, {"time": 2731, "pitch": 56, "duration": 5, "velocity": 59}, {"time": 2734, "pitch": 61, "duration": 7, "velocity": 53}, {"time": 2737, "pitch": 56, "duration": 5, "velocity": 79}, {"time": 2740, "pitch": 64, "duration": 12, "velocity": 96}, {"time": 2743, "pitch": 56, "duration": 4, "velocity": 96}, {"time": 2746, "pitch": 61, "duration": 6, "velocity": 97}, {"time": 2749, "pitch": 56, "duration": 3, "velocity": 100}, {"time": 2752, "pitch": 45, "duration": 21, "velocity": 73}, {"time": 2755, "pitch": 52, "duration": 11, "velocity": 73}, {"time": 2758, "pitch": 57, "duration": 8, "velocity": 82}, {"time": 2761, "pitch": 61, "duration": 3, "velocity": 99}, {"time": 2764, "pitch": 64, "duration": 10, "velocity": 93}, {"time": 2767, "pitch": 52, "duration": 9, "velocity": 69}, {"time": 2770, "pitch": 57, "duration": 6, "velocity": 97}, {"time": 2773, "pitch": 61, "duration": 5, "velocity": 117}, {"time": 2776, "pitch": 47, "duration": 18, "velocity": 76}, {"time": 2779, "pitch": 54, "duration": 10, "velocity": 76}, {"time": 2782, "pitch": 59, "duration": 6, "velocity": 74}, {"time": 2785, "pitch": 63, "duration": 5, "velocity": 95}, {"time": 2788, "pitch": 66, "duration": 12, "velocity": 107}, {"time": 2791, "pitch": 54, "duration": 3, "velocity": 95}, {"time": 2794, "pitch": 63, "duration": 6, "velocity": 102}, {"time": 2797, "pitch": 59, "duration": 3, "velocity": 92}, {"time": 2800, "pitch": 49, "duration": 13, "velocity": 97}, {"time": 2803, "pitch": 56, "duration": 4, "velocity": 66}, {"time": 2806, "pitch": 61, "duration": 8, "velocity": 67}, {"time": 2809, "pitch": 56, "duration": 4, "velocity": 68}, {"time": 2812, "pitch": 64, "duration": 11, "velocity": 69}, {"time": 2815, "pitch": 56, "duration": 4, "velocity": 79}, {"time": 2818, "pitch": 61, "duration": 6, "velocity": 62}, {"time": 2821, "pitch": 56, "duration": 3, "velocity": 95}, {"time": 2824, "pitch": 44, "duration": 20, "velocity": 74}, {"time": 2827, "pitch": 51, "duration": 17, "velocity": 44}, {"time": 2830, "pitch": 59, "duration": 5, "velocity": 66}, {"time": 2833, "pitch": 63, "duration": 5, "velocity": 83}, {"time": 2836, "pitch": 68, "duration": 12, "velocity": 86}, {"time": 2839, "pitch": 59, "duration": 4, "velocity": 82}, {"time": 2842, "pitch": 63, "duration": 5, "velocity": 92}, {"time": 2845, "pitch": 59, "duration": 4, "velocity": 74}, {"time": 2848, "pitch": 45, "duration": 18, "velocity": 85}, {"time": 2851, "pitch": 52, "duration": 14, "velocity": 35}, {"time": 2851, "pitch": 57, "duration": 5, "velocity": 58}, {"time": 2854, "pitch": 61, "duration": 10, "velocity": 90}, {"time": 2857, "pitch": 57, "duration": 4, "velocity": 76}, {"time": 2860, "pitch": 68, "duration": 11, "velocity": 97}, {"time": 2863, "pitch": 57, "duration": 4, "velocity": 76}, {"time": 2866, "pitch": 61, "duration": 6, "velocity": 99}, {"time": 2869, "pitch": 57, "duration": 4, "velocity": 85}, {"time": 2872, "pitch": 47, "duration": 19, "velocity": 72}, {"time": 2875, "pitch": 54, "duration": 11, "velocity": 66}, {"time": 2878, "pitch": 59, "duration": 4, "velocity": 75}, {"time": 2881, "pitch": 66, "duration": 13, "velocity": 99}, {"time": 2884, "pitch": 59, "duration": 6, "velocity": 79}, {"time": 2887, "pitch": 54, "duration": 3, "velocity": 73}, {"time": 2890, "pitch": 63, "duration": 5, "velocity": 92}, {"time": 2893, "pitch": 59, "duration": 3, "velocity": 74}, {"time": 2896, "pitch": 49, "duration": 23, "velocity": 72}, {"time": 2899, "pitch": 56, "duration": 5, "velocity": 65}, {"time": 2902, "pitch": 61, "duration": 7, "velocity": 63}, {"time": 2905, "pitch": 56, "duration": 4, "velocity": 75}, {"time": 2908, "pitch": 64, "duration": 8, "velocity": 75}, {"time": 2911, "pitch": 56, "duration": 5, "velocity": 86}, {"time": 2914, "pitch": 63, "duration": 4, "velocity": 88}, {"time": 2917, "pitch": 61, "duration": 5, "velocity": 96}, {"time": 2920, "pitch": 49, "duration": 16, "velocity": 72}, {"time": 2923, "pitch": 56, "duration": 5, "velocity": 56}, {"time": 2926, "pitch": 61, "duration": 6, "velocity": 59}, {"time": 2929, "pitch": 56, "duration": 4, "velocity": 72}, {"time": 2932, "pitch": 64, "duration": 12, "velocity": 76}, {"time": 2935, "pitch": 56, "duration": 4, "velocity": 83}, {"time": 2938, "pitch": 61, "duration": 5, "velocity": 78}, {"time": 2941, "pitch": 56, "duration": 3, "velocity": 102}, {"time": 2944, "pitch": 45, "duration": 22, "velocity": 95}, {"time": 2947, "pitch": 52, "duration": 21, "velocity": 86}, {"time": 2950, "pitch": 57, "duration": 8, "velocity": 88}, {"time": 2953, "pitch": 61, "duration": 4, "velocity": 93}, {"time": 2956, "pitch": 68, "duration": 8, "velocity": 112}, {"time": 2959, "pitch": 57, "duration": 3, "velocity": 73}, {"time": 2962, "pitch": 61, "duration": 6, "velocity": 112}, {"time": 2965, "pitch": 64, "duration": 4, "velocity": 71}, {"time": 2968, "pitch": 47, "duration": 19, "velocity": 75}, {"time": 2971, "pitch": 54, "duration": 11, "velocity": 74}, {"time": 2974, "pitch": 59, "duration": 8, "velocity": 77}, {"time": 2977, "pitch": 63, "duration": 4, "velocity": 100}, {"time": 2980, "pitch": 66, "duration": 11, "velocity": 127}, {"time": 2983, "pitch": 54, "duration": 2, "velocity": 93}, {"time": 2986, "pitch": 63, "duration": 6, "velocity": 107}, {"time": 2989, "pitch": 59, "duration": 3, "velocity": 107}, {"time": 2992, "pitch": 37, "duration": 23, "velocity": 102}, {"time": 2995, "pitch": 49, "duration": 11, "velocity": 86}, {"time": 2998, "pitch": 52, "duration": 7, "velocity": 97}, {"time": 3001, "pitch": 56, "duration": 5, "velocity": 68}, {"time": 3004, "pitch": 61, "duration": 7, "velocity": 122}, {"time": 3007, "pitch": 49, "duration": 10, "velocity": 88}, {"time": 3010, "pitch": 52, "duration": 9, "velocity": 95}, {"time": 3013, "pitch": 56, "duration": 7, "velocity": 100}, {"time": 3013, "pitch": 61, "duration": 10, "velocity": 122}, {"time": 3016, "pitch": 37, "duration": 17, "velocity": 79}, {"time": 3019, "pitch": 49, "duration": 9, "velocity": 90}, {"time": 3022, "pitch": 52, "duration": 7, "velocity": 85}, {"time": 3025, "pitch": 56, "duration": 3, "velocity": 107}, {"time": 3028, "pitch": 61, "duration": 10, "velocity": 127}, {"time": 3031, "pitch": 49, "duration": 2, "velocity": 112}, {"time": 3034, "pitch": 52, "duration": 4, "velocity": 99}, {"time": 3037, "pitch": 56, "duration": 3, "velocity": 127}, {"time": 3040, "pitch": 45, "duration": 22, "velocity": 97}, {"time": 3043, "pitch": 52, "duration": 11, "velocity": 81}, {"time": 3046, "pitch": 57, "duration": 4, "velocity": 96}, {"time": 3049, "pitch": 61, "duration": 3, "velocity": 107}, {"time": 3052, "pitch": 64, "duration": 11, "velocity": 99}, {"time": 3055, "pitch": 52, "duration": 8, "velocity": 93}, {"time": 3058, "pitch": 57, "duration": 6, "velocity": 93}, {"time": 3061, "pitch": 61, "duration": 3, "velocity": 122}, {"time": 3064, "pitch": 47, "duration": 19, "velocity": 82}, {"time": 3067, "pitch": 54, "duration": 11, "velocity": 96}, {"time": 3070, "pitch": 59, "duration": 7, "velocity": 85}, {"time": 3073, "pitch": 63, "duration": 4, "velocity": 112}, {"time": 3076, "pitch": 66, "duration": 11, "velocity": 127}, {"time": 3079, "pitch": 54, "duration": 2, "velocity": 89}, {"time": 3082, "pitch": 59, "duration": 6, "velocity": 107}, {"time": 3085, "pitch": 63, "duration": 3, "velocity": 112}, {"time": 3088, "pitch": 40, "duration": 16, "velocity": 96}, {"time": 3091, "pitch": 47, "duration": 14, "velocity": 92}, {"time": 3094, "pitch": 52, "duration": 7, "velocity": 93}, {"time": 3097, "pitch": 59, "duration": 5, "velocity": 95}, {"time": 3100, "pitch": 68, "duration": 11, "velocity": 127}, {"time": 3103, "pitch": 52, "duration": 4, "velocity": 100}, {"time": 3106, "pitch": 64, "duration": 5, "velocity": 86}, {"time": 3109, "pitch": 59, "duration": 4, "velocity": 117}, {"time": 3112, "pitch": 44, "duration": 17, "velocity": 112}, {"time": 3115, "pitch": 48, "duration": 14, "velocity": 68}, {"time": 3118, "pitch": 51, "duration": 7, "velocity": 107}, {"time": 3121, "pitch": 56, "duration": 5, "velocity": 112}, {"time": 3124, "pitch": 63, "duration": 12, "velocity": 127}, {"time": 3127, "pitch": 51, "duration": 3, "velocity": 122}, {"time": 3130, "pitch": 56, "duration": 5, "velocity": 122}, {"time": 3133, "pitch": 60, "duration": 3, "velocity": 90}, {"time": 3136, "pitch": 45, "duration": 21, "velocity": 96}, {"time": 3139, "pitch": 52, "duration": 10, "velocity": 95}, {"time": 3142, "pitch": 57, "duration": 4, "velocity": 100}, {"time": 3145, "pitch": 61, "duration": 3, "velocity": 100}, {"time": 3148, "pitch": 64, "duration": 12, "velocity": 100}, {"time": 3151, "pitch": 52, "duration": 9, "velocity": 96}, {"time": 3154, "pitch": 57, "duration": 5, "velocity": 95}, {"time": 3157, "pitch": 61, "duration": 4, "velocity": 122}, {"time": 3160, "pitch": 47, "duration": 19, "velocity": 85}, {"time": 3163, "pitch": 54, "duration": 11, "velocity": 99}, {"time": 3166, "pitch": 59, "duration": 5, "velocity": 89}, {"time": 3169, "pitch": 63, "duration": 3, "velocity": 112}, {"time": 3172, "pitch": 66, "duration": 11, "velocity": 122}, {"time": 3175, "pitch": 54, "duration": 2, "velocity": 100}, {"time": 3178, "pitch": 63, "duration": 5, "velocity": 127}, {"time": 3181, "pitch": 59, "duration": 3, "velocity": 97}, {"time": 3184, "pitch": 49, "duration": 23, "velocity": 117}, {"time": 3187, "pitch": 56, "duration": 5, "velocity": 63}, {"time": 3190, "pitch": 61, "duration": 6, "velocity": 67}, {"time": 3193, "pitch": 56, "duration": 4, "velocity": 97}, {"time": 3196, "pitch": 64, "duration": 17, "velocity": 96}, {"time": 3199, "pitch": 56, "duration": 4, "velocity": 99}, {"time": 3202, "pitch": 61, "duration": 7, "velocity": 90}, {"time": 3205, "pitch": 56, "duration": 4, "velocity": 99}, {"time": 3208, "pitch": 49, "duration": 13, "velocity": 96}, {"time": 3211, "pitch": 56, "duration": 4, "velocity": 73}, {"time": 3214, "pitch": 61, "duration": 5, "velocity": 77}, {"time": 3217, "pitch": 56, "duration": 5, "velocity": 96}, {"time": 3220, "pitch": 64, "duration": 12, "velocity": 96}, {"time": 3223, "pitch": 49, "duration": 3, "velocity": 93}, {"time": 3226, "pitch": 56, "duration": 4, "velocity": 99}, {"time": 3229, "pitch": 61, "duration": 4, "velocity": 112}, {"time": 3232, "pitch": 45, "duration": 20, "velocity": 85}, {"time": 3235, "pitch": 52, "duration": 11, "velocity": 82}, {"time": 3238, "pitch": 57, "duration": 4, "velocity": 90}, {"time": 3241, "pitch": 61, "duration": 3, "velocity": 100}, {"time": 3244, "pitch": 64, "duration": 11, "velocity": 99}, {"time": 3247, "pitch": 52, "duration": 7, "velocity": 81}, {"time": 3250, "pitch": 57, "duration": 5, "velocity": 93}, {"time": 3253, "pitch": 61, "duration": 3, "velocity": 112}, {"time": 3256, "pitch": 47, "duration": 19, "velocity": 96}, {"time": 3259, "pitch": 51, "duration": 15, "velocity": 107}, {"time": 3262, "pitch": 54, "duration": 7, "velocity": 74}, {"time": 3265, "pitch": 59, "duration": 5, "velocity": 90}, {"time": 3268, "pitch": 66, "duration": 11, "velocity": 127}, {"time": 3271, "pitch": 54, "duration": 3, "velocity": 99}, {"time": 3274, "pitch": 63, "duration": 5, "velocity": 122}, {"time": 3277, "pitch": 59, "duration": 3, "velocity": 100}, {"time": 3280, "pitch": 49, "duration": 23, "velocity": 117}, {"time": 3283, "pitch": 56, "duration": 5, "velocity": 77}, {"time": 3286, "pitch": 61, "duration": 5, "velocity": 56}, {"time": 3289, "pitch": 56, "duration": 4, "velocity": 89}, {"time": 3292, "pitch": 64, "duration": 7, "velocity": 92}, {"time": 3295, "pitch": 56, "duration": 4, "velocity": 93}, {"time": 3298, "pitch": 63, "duration": 4, "velocity": 100}, {"time": 3301, "pitch": 56, "duration": 5, "velocity": 93}, {"time": 3304, "pitch": 49, "duration": 11, "velocity": 112}, {"time": 3307, "pitch": 56, "duration": 5, "velocity": 74}, {"time": 3310, "pitch": 61, "duration": 5, "velocity": 62}, {"time": 3313, "pitch": 56, "duration": 3, "velocity": 97}, {"time": 3316, "pitch": 49, "duration": 12, "velocity": 112}, {"time": 3316, "pitch": 56, "duration": 2, "velocity": 59}, {"time": 3316, "pitch": 61, "duration": 5, "velocity": 99}, {"time": 3316, "pitch": 64, "duration": 5, "velocity": 99}, {"time": 3322, "pitch": 56, "duration": 7, "velocity": 112}, {"time": 3322, "pitch": 61, "duration": 6, "velocity": 112}, {"time": 3322, "pitch": 64, "duration": 6, "velocity": 99}, {"time": 3328, "pitch": 45, "duration": 22, "velocity": 72}, {"time": 3331, "pitch": 52, "duration": 11, "velocity": 77}, {"time": 3334, "pitch": 57, "duration": 8, "velocity": 58}, {"time": 3337, "pitch": 61, "duration": 4, "velocity": 92}, {"time": 3340, "pitch": 64, "duration": 12, "velocity": 96}, {"time": 3343, "pitch": 52, "duration": 9, "velocity": 62}, {"time": 3346, "pitch": 57, "duration": 7, "velocity": 88}, {"time": 3349, "pitch": 61, "duration": 5, "velocity": 67}, {"time": 3352, "pitch": 47, "duration": 18, "velocity": 62}, {"time": 3355, "pitch": 54, "duration": 11, "velocity": 70}, {"time": 3358, "pitch": 59, "duration": 8, "velocity": 68}, {"time": 3361, "pitch": 63, "duration": 5, "velocity": 96}, {"time": 3364, "pitch": 66, "duration": 11, "velocity": 102}, {"time": 3367, "pitch": 54, "duration": 2, "velocity": 47}, {"time": 3370, "pitch": 59, "duration": 6, "velocity": 78}, {"time": 3373, "pitch": 63, "duration": 4, "velocity": 89}, {"time": 3376, "pitch": 49, "duration": 24, "velocity": 65}, {"time": 3379, "pitch": 56, "duration": 5, "velocity": 48}, {"time": 3382, "pitch": 61, "duration": 14, "velocity": 69}, {"time": 3385, "pitch": 56, "duration": 5, "velocity": 68}, {"time": 3388, "pitch": 64, "duration": 7, "velocity": 66}, {"time": 3391, "pitch": 56, "duration": 10, "velocity": 59}, {"time": 3394, "pitch": 63, "duration": 4, "velocity": 50}, {"time": 3397, "pitch": 61, "duration": 6, "velocity": 69}, {"time": 3400, "pitch": 49, "duration": 16, "velocity": 64}, {"time": 3403, "pitch": 56, "duration": 5, "velocity": 58}, {"time": 3406, "pitch": 61, "duration": 7, "velocity": 52}, {"time": 3409, "pitch": 56, "duration": 4, "velocity": 76}, {"time": 3412, "pitch": 64, "duration": 12, "velocity": 83}, {"time": 3415, "pitch": 56, "duration": 4, "velocity": 85}, {"time": 3418, "pitch": 61, "duration": 6, "velocity": 86}, {"time": 3421, "pitch": 56, "duration": 3, "velocity": 95}, {"time": 3424, "pitch": 45, "duration": 22, "velocity": 73}, {"time": 3427, "pitch": 52, "duration": 21, "velocity": 69}, {"time": 3430, "pitch": 57, "duration": 7, "velocity": 74}, {"time": 3433, "pitch": 61, "duration": 5, "velocity": 107}, {"time": 3436, "pitch": 68, "duration": 5, "velocity": 100}, {"time": 3439, "pitch": 57, "duration": 8, "velocity": 89}, {"time": 3442, "pitch": 61, "duration": 8, "velocity": 107}, {"time": 3445, "pitch": 64, "duration": 3, "velocity": 71}, {"time": 3448, "pitch": 47, "duration": 20, "velocity": 69}, {"time": 3451, "pitch": 54, "duration": 11, "velocity": 75}, {"time": 3454, "pitch": 59, "duration": 8, "velocity": 66}, {"time": 3457, "pitch": 63, "duration": 5, "velocity": 86}, {"time": 3460, "pitch": 66, "duration": 10, "velocity": 102}, {"time": 3463, "pitch": 54, "duration": 3, "velocity": 61}, {"time": 3466, "pitch": 63, "duration": 6, "velocity": 99}, {"time": 3469, "pitch": 59, "duration": 3, "velocity": 72}, {"time": 3472, "pitch": 49, "duration": 23, "velocity": 81}, {"time": 3475, "pitch": 56, "duration": 5, "velocity": 75}, {"time": 3478, "pitch": 61, "duration": 9, "velocity": 73}, {"time": 3481, "pitch": 56, "duration": 4, "velocity": 89}, {"time": 3484, "pitch": 64, "duration": 7, "velocity": 70}, {"time": 3487, "pitch": 56, "duration": 10, "velocity": 90}, {"time": 3490, "pitch": 63, "duration": 4, "velocity": 68}, {"time": 3493, "pitch": 61, "duration": 5, "velocity": 50}, {"time": 3496, "pitch": 49, "duration": 18, "velocity": 59}, {"time": 3499, "pitch": 56, "duration": 5, "velocity": 59}, {"time": 3502, "pitch": 61, "duration": 7, "velocity": 53}, {"time": 3505, "pitch": 56, "duration": 5, "velocity": 79}, {"time": 3508, "pitch": 64, "duration": 12, "velocity": 96}, {"time": 3511, "pitch": 56, "duration": 4, "velocity": 96}, {"time": 3514, "pitch": 61, "duration": 6, "velocity": 97}, {"time": 3517, "pitch": 56, "duration": 3, "velocity": 100}, {"time": 3520, "pitch": 45, "duration": 21, "velocity": 73}, {"time": 3523, "pitch": 52, "duration": 11, "velocity": 73}, {"time": 3526, "pitch": 57, "duration": 8, "velocity": 82}, {"time": 3529, "pitch": 61, "duration": 3, "velocity": 99}, {"time": 3532, "pitch": 64, "duration": 10, "velocity": 93}, {"time": 3535, "pitch": 52, "duration": 9, "velocity": 69}, {"time": 3538, "pitch": 57, "duration": 6, "velocity": 97}, {"time": 3541, "pitch": 61, "duration": 5, "velocity": 117}, {"time": 3544, "pitch": 47, "duration": 18, "velocity": 76}, {"time": 3547, "pitch": 54, "duration": 10, "velocity": 76}, {"time": 3550, "pitch": 59, "duration": 6, "velocity": 74}, {"time": 3553, "pitch": 63, "duration": 5, "velocity": 95}, {"time": 3556, "pitch": 66, "duration": 12, "velocity": 107}, {"time": 3559, "pitch": 54, "duration": 3, "velocity": 95}, {"time": 3562, "pitch": 63, "duration": 6, "velocity": 102}, {"time": 3565, "pitch": 59, "duration": 3, "velocity": 92}, {"time": 3568, "pitch": 49, "duration": 13, "velocity": 97}, {"time": 3571, "pitch": 56, "duration": 4, "velocity": 66}, {"time": 3574, "pitch": 61, "duration": 8, "velocity": 67}, {"time": 3577, "pitch": 56, "duration": 4, "velocity": 68}, {"time": 3580, "pitch": 64, "duration": 11, "velocity": 69}, {"time": 3583, "pitch": 56, "duration": 4, "velocity": 79}, {"time": 3586, "pitch": 61, "duration": 6, "velocity": 62}, {"time": 3589, "pitch": 56, "duration": 3, "velocity": 95}, {"time": 3592, "pitch": 44, "duration": 20, "velocity": 74}, {"time": 3595, "pitch": 51, "duration": 17, "velocity": 44}, {"time": 3598, "pitch": 59, "duration": 5, "velocity": 66}, {"time": 3601, "pitch": 63, "duration": 5, "velocity": 83}, {"time": 3604, "pitch": 68, "duration": 12, "velocity": 86}, {"time": 3607, "pitch": 59, "duration": 4, "velocity": 82}, {"time": 3610, "pitch": 63, "duration": 5, "velocity": 92}, {"time": 3613, "pitch": 59, "duration": 4, "velocity": 74}, {"time": 3616, "pitch": 45, "duration": 18, "velocity": 85}, {"time": 3619, "pitch": 52, "duration": 14, "velocity": 35}, {"time": 3619, "pitch": 57, "duration": 5, "velocity": 58}, {"time": 3622, "pitch": 61, "duration": 10, "velocity": 90}, {"time": 3625, "pitch": 57, "duration": 4, "velocity": 76}, {"time": 3628, "pitch": 68, "duration": 11, "velocity": 97}, {"time": 3631, "pitch": 57, "duration": 4, "velocity": 76}, {"time": 3634, "pitch": 61, "duration": 6, "velocity": 99}, {"time": 3637, "pitch": 57, "duration": 4, "velocity": 85}, {"time": 3640, "pitch": 47, "duration": 19, "velocity": 72}, {"time": 3643, "pitch": 54, "duration": 11, "velocity": 66}, {"time": 3646, "pitch": 59, "duration": 4, "velocity": 75}, {"time": 3649, "pitch": 66, "duration": 13, "velocity": 99}, {"time": 3652, "pitch": 59, "duration": 6, "velocity": 79}, {"time": 3655, "pitch": 54, "duration": 3, "velocity": 73}, {"time": 3658, "pitch": 63, "duration": 5, "velocity": 92}, {"time": 3661, "pitch": 59, "duration": 3, "velocity": 74}, {"time": 3664, "pitch": 49, "duration": 23, "velocity": 72}, {"time": 3667, "pitch": 56, "duration": 5, "velocity": 65}, {"time": 3670, "pitch": 61, "duration": 7, "velocity": 63}, {"time": 3673, "pitch": 56, "duration": 4, "velocity": 75}, {"time": 3676, "pitch": 64, "duration": 8, "velocity": 75}, {"time": 3679, "pitch": 56, "duration": 5, "velocity": 86}, {"time": 3682, "pitch": 63, "duration": 4, "velocity": 88}, {"time": 3685, "pitch": 61, "duration": 5, "velocity": 96}, {"time": 3688, "pitch": 49, "duration": 16, "velocity": 72}, {"time": 3691, "pitch": 56, "duration": 5, "velocity": 56}, {"time": 3694, "pitch": 61, "duration": 6, "velocity": 59}, {"time": 3697, "pitch": 56, "duration": 4, "velocity": 72}, {"time": 3700, "pitch": 64, "duration": 12, "velocity": 76}, {"time": 3703, "pitch": 56, "duration": 4, "velocity": 83}, {"time": 3706, "pitch": 61, "duration": 5, "velocity": 78}, {"time": 3709, "pitch": 56, "duration": 3, "velocity": 102}, {"time": 3713, "pitch": 61, "duration": 4, "velocity": 112}, {"time": 3713, "pitch": 64, "duration": 5, "velocity": 93}, {"time": 3713, "pitch": 57, "duration": 3, "velocity": 99}, {"time": 3713, "pitch": 45, "duration": 21, "velocity": 100}, {"time": 3716, "pitch": 52, "duration": 19, "velocity": 96}, {"time": 3720, "pitch": 57, "duration": 4, "velocity": 99}, {"time": 3724, "pitch": 61, "duration": 4, "velocity": 97}, {"time": 3727, "pitch": 64, "duration": 7, "velocity": 102}, {"time": 3732, "pitch": 61, "duration": 9, "velocity": 122}, {"time": 3738, "pitch": 64, "duration": 4, "velocity": 95}, {"time": 3741, "pitch": 47, "duration": 49, "velocity": 97}, {"time": 3747, "pitch": 54, "duration": 42, "velocity": 58}, {"time": 3757, "pitch": 66, "duration": 51, "velocity": 117}, {"time": 3765, "pitch": 63, "duration": 43, "velocity": 46}, {"time": 3775, "pitch": 59, "duration": 33, "velocity": 38}, {"time": 3807, "pitch": 45, "duration": 15, "velocity": 89}, {"time": 3814, "pitch": 52, "duration": 8, "velocity": 52}, {"time": 3820, "pitch": 64, "duration": 13, "velocity": 93}, {"time": 3826, "pitch": 61, "duration": 8, "velocity": 57}, {"time": 3832, "pitch": 47, "duration": 16, "velocity": 65}, {"time": 3838, "pitch": 54, "duration": 8, "velocity": 60}, {"time": 3844, "pitch": 66, "duration": 13, "velocity": 92}, {"time": 3856, "pitch": 49, "duration": 41, "velocity": 71}, {"time": 3862, "pitch": 56, "duration": 9, "velocity": 60}, {"time": 3868, "pitch": 64, "duration": 11, "velocity": 61}, {"time": 3874, "pitch": 56, "duration": 10, "velocity": 67}, {"time": 3880, "pitch": 63, "duration": 13, "velocity": 67}, {"time": 3886, "pitch": 56, "duration": 7, "velocity": 52}, {"time": 3892, "pitch": 61, "duration": 13, "velocity": 57}, {"time": 3898, "pitch": 56, "duration": 6, "velocity": 57}, {"time": 3904, "pitch": 45, "duration": 23, "velocity": 75}, {"time": 3910, "pitch": 52, "duration": 19, "velocity": 61}, {"time": 3916, "pitch": 68, "duration": 14, "velocity": 93}, {"time": 3922, "pitch": 57, "duration": 8, "velocity": 51}, {"time": 3929, "pitch": 47, "duration": 32, "velocity": 73}, {"time": 3935, "pitch": 54, "duration": 24, "velocity": 69}, {"time": 3942, "pitch": 66, "duration": 24, "velocity": 99}, {"time": 3952, "pitch": 63, "duration": 14, "velocity": 97}, {"time": 3977, "pitch": 61, "duration": 54, "velocity": 52}, {"time": 3977, "pitch": 37, "duration": 53, "velocity": 76}, {"time": 3979, "pitch": 56, "duration": 51, "velocity": 40}, {"time": 3980, "pitch": 49, "duration": 50, "velocity": 63}, {"time": 3980, "pitch": 52, "duration": 50, "velocity": 59}], "annotations": [{"time": 263, "annotation": {"number": 64, "value": 127}, "group": "control_change"}, {"time": 280, "annotation": {"number": 64, "value": 0}, "group": "control_change"}, {"time": 289, "annotation": {"number": 64, "value": 127}, "group": "control_change"}, {"time": 303, "annotation": {"number": 64, "value": 0}, "group": "control_change"}, {"time": 315, "annotation": {"number": 64, "value": 127}, "group": "control_change"}, {"time": 353, "annotation": {"number": 64, "value": 0}, "group": "control_change"}, {"time": 363, "annotation": {"number": 64, "value": 127}, "group": "control_change"}, {"time": 376, "annotation": {"number": 64, "value": 0}, "group": "control_change"}, {"time": 388, "annotation": {"number": 64, "value": 127}, "group": "control_change"}, {"time": 400, "annotation": {"number": 64, "value": 0}, "group": "control_change"}, {"time": 423, "annotation": {"number": 64, "value": 127}, "group": "control_change"}, {"time": 447, "annotation": {"number": 64, "value": 0}, "group": "control_change"}, {"time": 460, "annotation": {"number": 64, "value": 127}, "group": "control_change"}, {"time": 471, "annotation": {"number": 64, "value": 0}, "group": "control_change"}, {"time": 484, "annotation": {"number": 64, "value": 127}, "group": "control_change"}, {"time": 497, "annotation": {"number": 64, "value": 0}, "group": "control_change"}, {"time": 506, "annotation": {"number": 64, "value": 127}, "group": "control_change"}, {"time": 542, "annotation": {"number": 64, "value": 0}, "group": "control_change"}, {"time": 555, "annotation": {"number": 64, "value": 127}, "group": "control_change"}, {"time": 568, "annotation": {"number": 64, "value": 0}, "group": "control_change"}, {"time": 580, "annotation": {"number": 64, "value": 127}, "group": "control_change"}, {"time": 591, "annotation": {"number": 64, "value": 0}, "group": "control_change"}, {"time": 601, "annotation": {"number": 64, "value": 127}, "group": "control_change"}, {"time": 638, "annotation": {"number": 64, "value": 0}, "group": "control_change"}, {"time": 655, "annotation": {"number": 64, "value": 127}, "group": "control_change"}, {"time": 664, "annotation": {"number": 64, "value": 0}, "group": "control_change"}, {"time": 676, "annotation": {"number": 64, "value": 127}, "group": "control_change"}, {"time": 687, "annotation": {"number": 64, "value": 0}, "group": "control_change"}, {"time": 709, "annotation": {"number": 64, "value": 127}, "group": "control_change"}, {"time": 735, "annotation": {"number": 64, "value": 0}, "group": "control_change"}, {"time": 748, "annotation": {"number": 64, "value": 127}, "group": "control_change"}, {"time": 760, "annotation": {"number": 64, "value": 0}, "group": "control_change"}, {"time": 772, "annotation": {"number": 64, "value": 127}, "group": "control_change"}, {"time": 783, "annotation": {"number": 64, "value": 0}, "group": "control_change"}, {"time": 801, "annotation": {"number": 64, "value": 127}, "group": "control_change"}, {"time": 832, "annotation": {"number": 64, "value": 0}, "group": "control_change"}, {"time": 844, "annotation": {"number": 64, "value": 127}, "group": "control_change"}, {"time": 855, "annotation": {"number": 64, "value": 0}, "group": "control_change"}, {"time": 868, "annotation": {"number": 64, "value": 127}, "group": "control_change"}, {"time": 878, "annotation": {"number": 64, "value": 0}, "group": "control_change"}, {"time": 893, "annotation": {"number": 64, "value": 127}, "group": "control_change"}, {"time": 902, "annotation": {"number": 64, "value": 0}, "group": "control_change"}, {"time": 915, "annotation": {"number": 64, "value": 127}, "group": "control_change"}, {"time": 925, "annotation": {"number": 64, "value": 0}, "group": "control_change"}, {"time": 941, "annotation": {"number": 64, "value": 127}, "group": "control_change"}, {"time": 951, "annotation": {"number": 64, "value": 0}, "group": "control_change"}, {"time": 966, "annotation": {"number": 64, "value": 127}, "group": "control_change"}, {"time": 975, "annotation": {"number": 64, "value": 0}, "group": "control_change"}, {"time": 990, "annotation": {"number": 64, "value": 127}, "group": "control_change"}, {"time": 1021, "annotation": {"number": 64, "value": 0}, "group": "control_change"}, {"time": 1026, "annotation": {"number": 64, "value": 127}, "group": "control_change"}, {"time": 1046, "annotation": {"number": 64, "value": 0}, "group": "control_change"}, {"time": 1050, "annotation": {"number": 64, "value": 127}, "group": "control_change"}, {"time": 1070, "annotation": {"number": 64, "value": 0}, "group": "control_change"}, {"time": 1073, "annotation": {"number": 64, "value": 127}, "group": "control_change"}, {"time": 1118, "annotation": {"number": 64, "value": 0}, "group": "control_change"}, {"time": 1121, "annotation": {"number": 64, "value": 127}, "group": "control_change"}, {"time": 1142, "annotation": {"number": 64, "value": 0}, "group": "control_change"}, {"time": 1145, "annotation": {"number": 64, "value": 127}, "group": "control_change"}, {"time": 1166, "annotation": {"number": 64, "value": 0}, "group": "control_change"}, {"time": 1168, "annotation": {"number": 64, "value": 127}, "group": "control_change"}, {"time": 1180, "annotation": {"number": 64, "value": 0}, "group": "control_change"}, {"time": 1180, "annotation": {"number": 64, "value": 127}, "group": "control_change"}, {"time": 1214, "annotation": {"number": 64, "value": 0}, "group": "control_change"}, {"time": 1217, "annotation": {"number": 64, "value": 127}, "group": "control_change"}, {"time": 1238, "annotation": {"number": 64, "value": 0}, "group": "control_change"}, {"time": 1241, "annotation": {"number": 64, "value": 127}, "group": "control_change"}, {"time": 1262, "annotation": {"number": 64, "value": 0}, "group": "control_change"}, {"time": 1265, "annotation": {"number": 64, "value": 127}, "group": "control_change"}, {"time": 1310, "annotation": {"number": 64, "value": 0}, "group": "control_change"}, {"time": 1313, "annotation": {"number": 64, "value": 127}, "group": "control_change"}, {"time": 1322, "annotation": {"number": 64, "value": 0}, "group": "control_change"}, {"time": 1325, "annotation": {"number": 64, "value": 127}, "group": "control_change"}, {"time": 1334, "annotation": {"number": 64, "value": 0}, "group": "control_change"}, {"time": 1336, "annotation": {"number": 64, "value": 127}, "group": "control_change"}, {"time": 1357, "annotation": {"number": 64, "value": 0}, "group": "control_change"}, {"time": 1360, "annotation": {"number": 64, "value": 127}, "group": "control_change"}, {"time": 1405, "annotation": {"number": 64, "value": 0}, "group": "control_change"}, {"time": 1409, "annotation": {"number": 64, "value": 127}, "group": "control_change"}, {"time": 1429, "annotation": {"number": 64, "value": 0}, "group": "control_change"}, {"time": 1432, "annotation": {"number": 64, "value": 127}, "group": "control_change"}, {"time": 1453, "annotation": {"number": 64, "value": 0}, "group": "control_change"}, {"time": 1456, "annotation": {"number": 64, "value": 127}, "group": "control_change"}, {"time": 1501, "annotation": {"number": 64, "value": 0}, "group": "control_change"}, {"time": 1505, "annotation": {"number": 64, "value": 127}, "group": "control_change"}, {"time": 1525, "annotation": {"number": 64, "value": 0}, "group": "control_change"}, {"time": 1528, "annotation": {"number": 64, "value": 127}, "group": "control_change"}, {"time": 1549, "annotation": {"number": 64, "value": 0}, "group": "control_change"}, {"time": 1552, "annotation": {"number": 64, "value": 127}, "group": "control_change"}, {"time": 1573, "annotation": {"number": 64, "value": 0}, "group": "control_change"}, {"time": 1576, "annotation": {"number": 64, "value": 127}, "group": "control_change"}, {"time": 1597, "annotation": {"number": 64, "value": 0}, "group": "control_change"}, {"time": 1601, "annotation": {"number": 64, "value": 127}, "group": "control_change"}, {"time": 1621, "annotation": {"number": 64, "value": 0}, "group": "control_change"}, {"time": 1624, "annotation": {"number": 64, "value": 127}, "group": "control_change"}, {"time": 1644, "annotation": {"number": 64, "value": 0}, "group": "control_change"}, {"time": 1648, "annotation": {"number": 64, "value": 127}, "group": "control_change"}, {"time": 1649, "annotation": {"number": 64, "value": 127}, "group": "control_change"}, {"time": 1669, "annotation": {"number": 64, "value": 0}, "group": "control_change"}, {"time": 1673, "annotation": {"number": 64, "value": 127}, "group": "control_change"}, {"time": 1692, "annotation": {"number": 64, "value": 0}, "group": "control_change"}, {"time": 1697, "annotation": {"number": 64, "value": 127}, "group": "control_change"}, {"time": 1718, "annotation": {"number": 64, "value": 0}, "group": "control_change"}, {"time": 1721, "annotation": {"number": 64, "value": 127}, "group": "control_change"}, {"time": 1741, "annotation": {"number": 64, "value": 0}, "group": "control_change"}, {"time": 1744, "annotation": {"number": 64, "value": 127}, "group": "control_change"}, {"time": 1766, "annotation": {"number": 64, "value": 0}, "group": "control_change"}, {"time": 1769, "annotation": {"number": 64, "value": 127}, "group": "control_change"}, {"time": 1789, "annotation": {"number": 64, "value": 0}, "group": "control_change"}, {"time": 1793, "annotation": {"number": 64, "value": 127}, "group": "control_change"}, {"time": 1838, "annotation": {"number": 64, "value": 0}, "group": "control_change"}, {"time": 1841, "annotation": {"number": 64, "value": 127}, "group": "control_change"}, {"time": 1886, "annotation": {"number": 64, "value": 0}, "group": "control_change"}, {"time": 1889, "annotation": {"number": 64, "value": 127}, "group": "control_change"}, {"time": 1934, "annotation": {"number": 64, "value": 0}, "group": "control_change"}, {"time": 1937, "annotation": {"number": 64, "value": 127}, "group": "control_change"}, {"time": 1980, "annotation": {"number": 64, "value": 0}, "group": "control_change"}, {"time": 1985, "annotation": {"number": 64, "value": 127}, "group": "control_change"}, {"time": 2029, "annotation": {"number": 64, "value": 0}, "group": "control_change"}, {"time": 2033, "annotation": {"number": 64, "value": 127}, "group": "control_change"}, {"time": 2077, "annotation": {"number": 64, "value": 0}, "group": "control_change"}, {"time": 2081, "annotation": {"number": 64, "value": 127}, "group": "control_change"}, {"time": 2126, "annotation": {"number": 64, "value": 0}, "group": "control_change"}, {"time": 2129, "annotation": {"number": 64, "value": 127}, "group": "control_change"}, {"time": 2171, "annotation": {"number": 64, "value": 0}, "group": "control_change"}, {"time": 2178, "annotation": {"number": 64, "value": 127}, "group": "control_change"}, {"time": 2198, "annotation": {"number": 64, "value": 0}, "group": "control_change"}, {"time": 2202, "annotation": {"number": 64, "value": 127}, "group": "control_change"}, {"time": 2222, "annotation": {"number": 64, "value": 0}, "group": "control_change"}, {"time": 2225, "annotation": {"number": 64, "value": 127}, "group": "control_change"}, {"time": 2270, "annotation": {"number": 64, "value": 0}, "group": "control_change"}, {"time": 2273, "annotation": {"number": 64, "value": 127}, "group": "control_change"}, {"time": 2294, "annotation": {"number": 64, "value": 0}, "group": "control_change"}, {"time": 2297, "annotation": {"number": 64, "value": 127}, "group": "control_change"}, {"time": 2318, "annotation": {"number": 64, "value": 0}, "group": "control_change"}, {"time": 2320, "annotation": {"number": 64, "value": 127}, "group": "control_change"}, {"time": 2332, "annotation": {"number": 64, "value": 0}, "group": "control_change"}, {"time": 2332, "annotation": {"number": 64, "value": 127}, "group": "control_change"}, {"time": 2366, "annotation": {"number": 64, "value": 0}, "group": "control_change"}, {"time": 2369, "annotation": {"number": 64, "value": 127}, "group": "control_change"}, {"time": 2390, "annotation": {"number": 64, "value": 0}, "group": "control_change"}, {"time": 2393, "annotation": {"number": 64, "value": 127}, "group": "control_change"}, {"time": 2414, "annotation": {"number": 64, "value": 0}, "group": "control_change"}, {"time": 2417, "annotation": {"number": 64, "value": 127}, "group": "control_change"}, {"time": 2462, "annotation": {"number": 64, "value": 0}, "group": "control_change"}, {"time": 2465, "annotation": {"number": 64, "value": 127}, "group": "control_change"}, {"time": 2474, "annotation": {"number": 64, "value": 0}, "group": "control_change"}, {"time": 2477, "annotation": {"number": 64, "value": 127}, "group": "control_change"}, {"time": 2486, "annotation": {"number": 64, "value": 0}, "group": "control_change"}, {"time": 2488, "annotation": {"number": 64, "value": 127}, "group": "control_change"}, {"time": 2509, "annotation": {"number": 64, "value": 0}, "group": "control_change"}, {"time": 2512, "annotation": {"number": 64, "value": 127}, "group": "control_change"}, {"time": 2557, "annotation": {"number": 64, "value": 0}, "group": "control_change"}, {"time": 2561, "annotation": {"number": 64, "value": 127}, "group": "control_change"}, {"time": 2581, "annotation": {"number": 64, "value": 0}, "group": "control_change"}, {"time": 2584, "annotation": {"number": 64, "value": 127}, "group": "control_change"}, {"time": 2605, "annotation": {"number": 64, "value": 0}, "group": "control_change"}, {"time": 2608, "annotation": {"number": 64, "value": 127}, "group": "control_change"}, {"time": 2653, "annotation": {"number": 64, "value": 0}, "group": "control_change"}, {"time": 2657, "annotation": {"number": 64, "value": 127}, "group": "control_change"}, {"time": 2677, "annotation": {"number": 64, "value": 0}, "group": "control_change"}, {"time": 2680, "annotation": {"number": 64, "value": 127}, "group": "control_change"}, {"time": 2701, "annotation": {"number": 64, "value": 0}, "group": "control_change"}, {"time": 2704, "annotation": {"number": 64, "value": 127}, "group": "control_change"}, {"time": 2725, "annotation": {"number": 64, "value": 0}, "group": "control_change"}, {"time": 2728, "annotation": {"number": 64, "value": 127}, "group": "control_change"}, {"time": 2749, "annotation": {"number": 64, "value": 0}, "group": "control_change"}, {"time": 2753, "annotation": {"number": 64, "value": 127}, "group": "control_change"}, {"time": 2773, "annotation": {"number": 64, "value": 0}, "group": "control_change"}, {"time": 2776, "annotation": {"number": 64, "value": 127}, "group": "control_change"}, {"time": 2796, "annotation": {"number": 64, "value": 0}, "group": "control_change"}, {"time": 2800, "annotation": {"number": 64, "value": 127}, "group": "control_change"}, {"time": 2801, "annotation": {"number": 64, "value": 127}, "group": "control_change"}, {"time": 2821, "annotation": {"number": 64, "value": 0}, "group": "control_change"}, {"time": 2825, "annotation": {"number": 64, "value": 127}, "group": "control_change"}, {"time": 2844, "annotation": {"number": 64, "value": 0}, "group": "control_change"}, {"time": 2849, "annotation": {"number": 64, "value": 127}, "group": "control_change"}, {"time": 2870, "annotation": {"number": 64, "value": 0}, "group": "control_change"}, {"time": 2873, "annotation": {"number": 64, "value": 127}, "group": "control_change"}, {"time": 2893, "annotation": {"number": 64, "value": 0}, "group": "control_change"}, {"time": 2896, "annotation": {"number": 64, "value": 127}, "group": "control_change"}, {"time": 2918, "annotation": {"number": 64, "value": 0}, "group": "control_change"}, {"time": 2921, "annotation": {"number": 64, "value": 127}, "group": "control_change"}, {"time": 2941, "annotation": {"number": 64, "value": 0}, "group": "control_change"}, {"time": 2945, "annotation": {"number": 64, "value": 127}, "group": "control_change"}, {"time": 2965, "annotation": {"number": 64, "value": 0}, "group": "control_change"}, {"time": 2968, "annotation": {"number": 64, "value": 127}, "group": "control_change"}, {"time": 2990, "annotation": {"number": 64, "value": 0}, "group": "control_change"}, {"time": 2993, "annotation": {"number": 64, "value": 127}, "group": "control_change"}, {"time": 3015, "annotation": {"number": 64, "value": 0}, "group": "control_change"}, {"time": 3017, "annotation": {"number": 64, "value": 127}, "group": "control_change"}, {"time": 3037, "annotation": {"number": 64, "value": 0}, "group": "control_change"}, {"time": 3041, "annotation": {"number": 64, "value": 127}, "group": "control_change"}, {"time": 3060, "annotation": {"number": 64, "value": 0}, "group": "control_change"}, {"time": 3065, "annotation": {"number": 64, "value": 127}, "group": "control_change"}, {"time": 3085, "annotation": {"number": 64, "value": 0}, "group": "control_change"}, {"time": 3089, "annotation": {"number": 64, "value": 127}, "group": "control_change"}, {"time": 3110, "annotation": {"number": 64, "value": 0}, "group": "control_change"}, {"time": 3113, "annotation": {"number": 64, "value": 127}, "group": "control_change"}, {"time": 3134, "annotation": {"number": 64, "value": 0}, "group": "control_change"}, {"time": 3137, "annotation": {"number": 64, "value": 127}, "group": "control_change"}, {"time": 3156, "annotation": {"number": 64, "value": 0}, "group": "control_change"}, {"time": 3160, "annotation": {"number": 64, "value": 127}, "group": "control_change"}, {"time": 3180, "annotation": {"number": 64, "value": 0}, "group": "control_change"}, {"time": 3184, "annotation": {"number": 64, "value": 127}, "group": "control_change"}, {"time": 3206, "annotation": {"number": 64, "value": 0}, "group": "control_change"}, {"time": 3212, "annotation": {"number": 64, "value": 127}, "group": "control_change"}, {"time": 3225, "annotation": {"number": 64, "value": 0}, "group": "control_change"}, {"time": 3233, "annotation": {"number": 64, "value": 127}, "group": "control_change"}, {"time": 3251, "annotation": {"number": 64, "value": 0}, "group": "control_change"}, {"time": 3256, "annotation": {"number": 64, "value": 127}, "group": "control_change"}, {"time": 3275, "annotation": {"number": 64, "value": 0}, "group": "control_change"}, {"time": 3281, "annotation": {"number": 64, "value": 127}, "group": "control_change"}, {"time": 3302, "annotation": {"number": 64, "value": 0}, "group": "control_change"}, {"time": 3329, "annotation": {"number": 64, "value": 127}, "group": "control_change"}, {"time": 3349, "annotation": {"number": 64, "value": 0}, "group": "control_change"}, {"time": 3352, "annotation": {"number": 64, "value": 127}, "group": "control_change"}, {"time": 3373, "annotation": {"number": 64, "value": 0}, "group": "control_change"}, {"time": 3376, "annotation": {"number": 64, "value": 127}, "group": "control_change"}, {"time": 3421, "annotation": {"number": 64, "value": 0}, "group": "control_change"}, {"time": 3425, "annotation": {"number": 64, "value": 127}, "group": "control_change"}, {"time": 3445, "annotation": {"number": 64, "value": 0}, "group": "control_change"}, {"time": 3448, "annotation": {"number": 64, "value": 127}, "group": "control_change"}, {"time": 3469, "annotation": {"number": 64, "value": 0}, "group": "control_change"}, {"time": 3472, "annotation": {"number": 64, "value": 127}, "group": "control_change"}, {"time": 3493, "annotation": {"number": 64, "value": 0}, "group": "control_change"}, {"time": 3496, "annotation": {"number": 64, "value": 127}, "group": "control_change"}, {"time": 3517, "annotation": {"number": 64, "value": 0}, "group": "control_change"}, {"time": 3521, "annotation": {"number": 64, "value": 127}, "group": "control_change"}, {"time": 3541, "annotation": {"number": 64, "value": 0}, "group": "control_change"}, {"time": 3544, "annotation": {"number": 64, "value": 127}, "group": "control_change"}, {"time": 3564, "annotation": {"number": 64, "value": 0}, "group": "control_change"}, {"time": 3568, "annotation": {"number": 64, "value": 127}, "group": "control_change"}, {"time": 3569, "annotation": {"number": 64, "value": 127}, "group": "control_change"}, {"time": 3589, "annotation": {"number": 64, "value": 0}, "group": "control_change"}, {"time": 3593, "annotation": {"number": 64, "value": 127}, "group": "control_change"}, {"time": 3612, "annotation": {"number": 64, "value": 0}, "group": "control_change"}, {"time": 3617, "annotation": {"number": 64, "value": 127}, "group": "control_change"}, {"time": 3638, "annotation": {"number": 64, "value": 0}, "group": "control_change"}, {"time": 3641, "annotation": {"number": 64, "value": 127}, "group": "control_change"}, {"time": 3661, "annotation": {"number": 64, "value": 0}, "group": "control_change"}, {"time": 3664, "annotation": {"number": 64, "value": 127}, "group": "control_change"}, {"time": 3686, "annotation": {"number": 64, "value": 0}, "group": "control_change"}, {"time": 3689, "annotation": {"number": 64, "value": 127}, "group": "control_change"}, {"time": 3709, "annotation": {"number": 64, "value": 0}, "group": "control_change"}, {"time": 3713, "annotation": {"number": 64, "value": 127}, "group": "control_change"}, {"time": 3738, "annotation": {"number": 64, "value": 0}, "group": "control_change"}, {"time": 3743, "annotation": {"number": 64, "value": 127}, "group": "control_change"}, {"time": 3808, "annotation": {"number": 64, "value": 0}, "group": "control_change"}, {"time": 3808, "annotation": {"number": 64, "value": 127}, "group": "control_change"}, {"time": 3830, "annotation": {"number": 64, "value": 0}, "group": "control_change"}, {"time": 3834, "annotation": {"number": 64, "value": 127}, "group": "control_change"}, {"time": 3853, "annotation": {"number": 64, "value": 0}, "group": "control_change"}, {"time": 3857, "annotation": {"number": 64, "value": 127}, "group": "control_change"}, {"time": 3901, "annotation": {"number": 64, "value": 0}, "group": "control_change"}, {"time": 3905, "annotation": {"number": 64, "value": 127}, "group": "control_change"}, {"time": 3926, "annotation": {"number": 64, "value": 0}, "group": "control_change"}, {"time": 3930, "annotation": {"number": 64, "value": 127}, "group": "control_change"}, {"time": 3979, "annotation": {"number": 64, "value": 0}, "group": "control_change"}, {"time": 3998, "annotation": {"number": 64, "value": 127}, "group": "control_change"}, {"time": 4057, "annotation": {"number": 64, "value": 0}, "group": "control_change"}, {"time": 4058, "annotation": {"number": 64, "value": 127}, "group": "control_change"}, {"time": 4059, "annotation": {"number": 64, "value": 0}, "group": "control_change"}, {"time": 4062, "annotation": {"number": 64, "value": 127}, "group": "control_change"}, {"time": 4063, "annotation": {"number": 64, "value": 0}, "group": "control_change"}]}]}