{"metadata": {"schema_version": "0.2", "title": "None", "source_filename": "389.mid", "source_format": "midi"}, "resolution": 12, "tempos": [{"time": 0, "qpm": 100.0}], "time_signatures": [{"time": 0, "numerator": 1, "denominator": 4}], "tracks": [{"program": 0, "is_drum": false, "name": "MELODY", "notes": [{"time": 416, "pitch": 69, "duration": 3, "velocity": 100}, {"time": 422, "pitch": 72, "duration": 3, "velocity": 122}, {"time": 428, "pitch": 74, "duration": 2, "velocity": 112}, {"time": 434, "pitch": 77, "duration": 6, "velocity": 127}, {"time": 446, "pitch": 77, "duration": 6, "velocity": 127}, {"time": 458, "pitch": 74, "duration": 2, "velocity": 127}, {"time": 464, "pitch": 74, "duration": 16, "velocity": 127}, {"time": 512, "pitch": 72, "duration": 4, "velocity": 96}, {"time": 518, "pitch": 74, "duration": 3, "velocity": 107}, {"time": 524, "pitch": 77, "duration": 5, "velocity": 112}, {"time": 530, "pitch": 74, "duration": 7, "velocity": 107}, {"time": 542, "pitch": 72, "duration": 5, "velocity": 127}, {"time": 548, "pitch": 74, "duration": 6, "velocity": 99}, {"time": 554, "pitch": 69, "duration": 12, "velocity": 102}, {"time": 572, "pitch": 69, "duration": 12, "velocity": 102}, {"time": 608, "pitch": 72, "duration": 5, "velocity": 102}, {"time": 614, "pitch": 74, "duration": 6, "velocity": 117}, {"time": 620, "pitch": 77, "duration": 3, "velocity": 112}, {"time": 626, "pitch": 77, "duration": 7, "velocity": 127}, {"time": 638, "pitch": 77, "duration": 5, "velocity": 122}, {"time": 647, "pitch": 77, "duration": 3, "velocity": 102}, {"time": 650, "pitch": 74, "duration": 5, "velocity": 99}, {"time": 656, "pitch": 79, "duration": 38, "velocity": 117}, {"time": 704, "pitch": 81, "duration": 2, "velocity": 117}, {"time": 710, "pitch": 81, "duration": 2, "velocity": 122}, {"time": 716, "pitch": 81, "duration": 3, "velocity": 127}, {"time": 722, "pitch": 79, "duration": 6, "velocity": 127}, {"time": 734, "pitch": 77, "duration": 4, "velocity": 127}, {"time": 740, "pitch": 72, "duration": 5, "velocity": 100}, {"time": 746, "pitch": 74, "duration": 4, "velocity": 127}, {"time": 752, "pitch": 74, "duration": 2, "velocity": 102}, {"time": 758, "pitch": 74, "duration": 3, "velocity": 117}, {"time": 764, "pitch": 77, "duration": 7, "velocity": 127}, {"time": 776, "pitch": 74, "duration": 31, "velocity": 127}, {"time": 824, "pitch": 69, "duration": 4, "velocity": 112}, {"time": 830, "pitch": 72, "duration": 4, "velocity": 112}, {"time": 836, "pitch": 74, "duration": 4, "velocity": 100}, {"time": 842, "pitch": 77, "duration": 8, "velocity": 122}, {"time": 854, "pitch": 77, "duration": 8, "velocity": 122}, {"time": 866, "pitch": 74, "duration": 2, "velocity": 99}, {"time": 872, "pitch": 74, "duration": 14, "velocity": 102}, {"time": 920, "pitch": 72, "duration": 4, "velocity": 107}, {"time": 926, "pitch": 74, "duration": 5, "velocity": 102}, {"time": 932, "pitch": 77, "duration": 6, "velocity": 97}, {"time": 938, "pitch": 74, "duration": 8, "velocity": 117}, {"time": 950, "pitch": 72, "duration": 5, "velocity": 127}, {"time": 956, "pitch": 74, "duration": 5, "velocity": 100}, {"time": 962, "pitch": 69, "duration": 12, "velocity": 112}, {"time": 980, "pitch": 69, "duration": 12, "velocity": 112}, {"time": 1016, "pitch": 72, "duration": 5, "velocity": 102}, {"time": 1022, "pitch": 74, "duration": 6, "velocity": 102}, {"time": 1028, "pitch": 77, "duration": 3, "velocity": 102}, {"time": 1034, "pitch": 77, "duration": 7, "velocity": 127}, {"time": 1046, "pitch": 77, "duration": 5, "velocity": 127}, {"time": 1055, "pitch": 77, "duration": 2, "velocity": 99}, {"time": 1058, "pitch": 74, "duration": 4, "velocity": 100}, {"time": 1064, "pitch": 79, "duration": 21, "velocity": 127}, {"time": 1112, "pitch": 81, "duration": 2, "velocity": 122}, {"time": 1118, "pitch": 81, "duration": 2, "velocity": 117}, {"time": 1124, "pitch": 81, "duration": 3, "velocity": 90}, {"time": 1130, "pitch": 79, "duration": 7, "velocity": 122}, {"time": 1142, "pitch": 77, "duration": 5, "velocity": 117}, {"time": 1148, "pitch": 72, "duration": 2, "velocity": 100}, {"time": 1154, "pitch": 72, "duration": 5, "velocity": 102}, {"time": 1160, "pitch": 74, "duration": 4, "velocity": 117}, {"time": 1166, "pitch": 74, "duration": 3, "velocity": 93}, {"time": 1172, "pitch": 77, "duration": 8, "velocity": 122}, {"time": 1184, "pitch": 74, "duration": 42, "velocity": 117}, {"time": 1592, "pitch": 69, "duration": 3, "velocity": 100}, {"time": 1598, "pitch": 72, "duration": 3, "velocity": 122}, {"time": 1604, "pitch": 74, "duration": 2, "velocity": 112}, {"time": 1610, "pitch": 77, "duration": 6, "velocity": 127}, {"time": 1622, "pitch": 77, "duration": 6, "velocity": 127}, {"time": 1634, "pitch": 74, "duration": 2, "velocity": 127}, {"time": 1640, "pitch": 74, "duration": 16, "velocity": 127}, {"time": 1688, "pitch": 72, "duration": 4, "velocity": 96}, {"time": 1694, "pitch": 74, "duration": 3, "velocity": 107}, {"time": 1700, "pitch": 77, "duration": 5, "velocity": 112}, {"time": 1706, "pitch": 74, "duration": 7, "velocity": 107}, {"time": 1718, "pitch": 72, "duration": 5, "velocity": 127}, {"time": 1724, "pitch": 74, "duration": 6, "velocity": 99}, {"time": 1730, "pitch": 69, "duration": 12, "velocity": 102}, {"time": 1748, "pitch": 69, "duration": 12, "velocity": 102}, {"time": 1784, "pitch": 72, "duration": 5, "velocity": 102}, {"time": 1790, "pitch": 74, "duration": 6, "velocity": 117}, {"time": 1796, "pitch": 77, "duration": 3, "velocity": 112}, {"time": 1802, "pitch": 77, "duration": 7, "velocity": 127}, {"time": 1814, "pitch": 77, "duration": 5, "velocity": 122}, {"time": 1823, "pitch": 77, "duration": 3, "velocity": 102}, {"time": 1826, "pitch": 74, "duration": 5, "velocity": 99}, {"time": 1832, "pitch": 79, "duration": 38, "velocity": 117}, {"time": 1880, "pitch": 81, "duration": 2, "velocity": 117}, {"time": 1886, "pitch": 81, "duration": 2, "velocity": 122}, {"time": 1892, "pitch": 81, "duration": 3, "velocity": 127}, {"time": 1898, "pitch": 79, "duration": 6, "velocity": 127}, {"time": 1910, "pitch": 77, "duration": 4, "velocity": 127}, {"time": 1916, "pitch": 72, "duration": 5, "velocity": 100}, {"time": 1922, "pitch": 74, "duration": 4, "velocity": 127}, {"time": 1928, "pitch": 74, "duration": 2, "velocity": 102}, {"time": 1934, "pitch": 74, "duration": 3, "velocity": 117}, {"time": 1940, "pitch": 77, "duration": 7, "velocity": 127}, {"time": 1952, "pitch": 74, "duration": 30, "velocity": 127}, {"time": 2432, "pitch": 69, "duration": 3, "velocity": 100}, {"time": 2438, "pitch": 72, "duration": 3, "velocity": 122}, {"time": 2444, "pitch": 74, "duration": 2, "velocity": 112}, {"time": 2450, "pitch": 77, "duration": 6, "velocity": 127}, {"time": 2462, "pitch": 77, "duration": 6, "velocity": 127}, {"time": 2474, "pitch": 74, "duration": 2, "velocity": 127}, {"time": 2480, "pitch": 74, "duration": 16, "velocity": 127}, {"time": 2528, "pitch": 72, "duration": 4, "velocity": 96}, {"time": 2534, "pitch": 74, "duration": 3, "velocity": 107}, {"time": 2540, "pitch": 77, "duration": 5, "velocity": 112}, {"time": 2546, "pitch": 74, "duration": 7, "velocity": 107}, {"time": 2558, "pitch": 72, "duration": 5, "velocity": 127}, {"time": 2564, "pitch": 74, "duration": 6, "velocity": 99}, {"time": 2570, "pitch": 69, "duration": 12, "velocity": 102}, {"time": 2588, "pitch": 69, "duration": 12, "velocity": 102}, {"time": 2624, "pitch": 72, "duration": 5, "velocity": 102}, {"time": 2630, "pitch": 74, "duration": 6, "velocity": 117}, {"time": 2636, "pitch": 77, "duration": 3, "velocity": 112}, {"time": 2642, "pitch": 77, "duration": 7, "velocity": 127}, {"time": 2654, "pitch": 77, "duration": 5, "velocity": 122}, {"time": 2663, "pitch": 77, "duration": 3, "velocity": 102}, {"time": 2666, "pitch": 74, "duration": 5, "velocity": 99}, {"time": 2672, "pitch": 79, "duration": 38, "velocity": 117}, {"time": 2720, "pitch": 81, "duration": 2, "velocity": 117}, {"time": 2726, "pitch": 81, "duration": 2, "velocity": 122}, {"time": 2732, "pitch": 81, "duration": 3, "velocity": 127}, {"time": 2738, "pitch": 79, "duration": 6, "velocity": 127}, {"time": 2750, "pitch": 77, "duration": 4, "velocity": 127}, {"time": 2756, "pitch": 72, "duration": 5, "velocity": 100}, {"time": 2762, "pitch": 74, "duration": 4, "velocity": 127}, {"time": 2768, "pitch": 74, "duration": 2, "velocity": 102}, {"time": 2774, "pitch": 74, "duration": 3, "velocity": 117}, {"time": 2780, "pitch": 77, "duration": 7, "velocity": 127}, {"time": 2792, "pitch": 74, "duration": 31, "velocity": 127}, {"time": 2864, "pitch": 72, "duration": 3, "velocity": 112}, {"time": 2870, "pitch": 72, "duration": 4, "velocity": 99}, {"time": 2876, "pitch": 74, "duration": 4, "velocity": 107}, {"time": 2882, "pitch": 77, "duration": 5, "velocity": 117}, {"time": 2888, "pitch": 74, "duration": 4, "velocity": 107}, {"time": 2894, "pitch": 79, "duration": 40, "velocity": 127}, {"time": 2948, "pitch": 72, "duration": 3, "velocity": 99}, {"time": 2954, "pitch": 72, "duration": 5, "velocity": 107}, {"time": 2960, "pitch": 74, "duration": 4, "velocity": 127}, {"time": 2966, "pitch": 77, "duration": 5, "velocity": 117}, {"time": 2972, "pitch": 74, "duration": 2, "velocity": 107}, {"time": 2978, "pitch": 74, "duration": 37, "velocity": 127}, {"time": 3032, "pitch": 72, "duration": 3, "velocity": 112}, {"time": 3038, "pitch": 72, "duration": 4, "velocity": 99}, {"time": 3044, "pitch": 74, "duration": 4, "velocity": 107}, {"time": 3050, "pitch": 77, "duration": 5, "velocity": 117}, {"time": 3056, "pitch": 74, "duration": 4, "velocity": 107}, {"time": 3062, "pitch": 79, "duration": 40, "velocity": 127}, {"time": 3116, "pitch": 72, "duration": 3, "velocity": 99}, {"time": 3122, "pitch": 72, "duration": 5, "velocity": 107}, {"time": 3128, "pitch": 74, "duration": 4, "velocity": 127}, {"time": 3134, "pitch": 77, "duration": 5, "velocity": 117}, {"time": 3140, "pitch": 74, "duration": 2, "velocity": 107}, {"time": 3146, "pitch": 74, "duration": 37, "velocity": 127}, {"time": 3200, "pitch": 72, "duration": 3, "velocity": 112}, {"time": 3206, "pitch": 72, "duration": 4, "velocity": 99}, {"time": 3212, "pitch": 74, "duration": 4, "velocity": 107}, {"time": 3218, "pitch": 77, "duration": 5, "velocity": 117}, {"time": 3224, "pitch": 74, "duration": 4, "velocity": 107}, {"time": 3230, "pitch": 79, "duration": 40, "velocity": 127}, {"time": 3284, "pitch": 72, "duration": 3, "velocity": 99}, {"time": 3290, "pitch": 72, "duration": 5, "velocity": 107}, {"time": 3296, "pitch": 74, "duration": 4, "velocity": 127}, {"time": 3302, "pitch": 77, "duration": 5, "velocity": 117}, {"time": 3308, "pitch": 74, "duration": 2, "velocity": 107}, {"time": 3314, "pitch": 74, "duration": 37, "velocity": 127}, {"time": 3368, "pitch": 72, "duration": 3, "velocity": 112}, {"time": 3374, "pitch": 72, "duration": 4, "velocity": 99}, {"time": 3380, "pitch": 74, "duration": 4, "velocity": 107}, {"time": 3386, "pitch": 77, "duration": 5, "velocity": 117}, {"time": 3392, "pitch": 74, "duration": 4, "velocity": 107}, {"time": 3398, "pitch": 79, "duration": 40, "velocity": 127}, {"time": 3452, "pitch": 72, "duration": 3, "velocity": 99}, {"time": 3458, "pitch": 72, "duration": 5, "velocity": 107}, {"time": 3464, "pitch": 74, "duration": 4, "velocity": 127}, {"time": 3470, "pitch": 77, "duration": 5, "velocity": 117}, {"time": 3476, "pitch": 74, "duration": 2, "velocity": 107}, {"time": 3482, "pitch": 74, "duration": 37, "velocity": 127}]}, {"program": 0, "is_drum": false, "name": "BRIDGE", "notes": [{"time": 8, "pitch": 69, "duration": 5, "velocity": 112}, {"time": 14, "pitch": 72, "duration": 5, "velocity": 117}, {"time": 20, "pitch": 74, "duration": 5, "velocity": 85}, {"time": 26, "pitch": 77, "duration": 3, "velocity": 117}, {"time": 38, "pitch": 77, "duration": 5, "velocity": 127}, {"time": 44, "pitch": 74, "duration": 3, "velocity": 117}, {"time": 50, "pitch": 74, "duration": 42, "velocity": 117}, {"time": 104, "pitch": 72, "duration": 5, "velocity": 99}, {"time": 110, "pitch": 74, "duration": 6, "velocity": 112}, {"time": 116, "pitch": 77, "duration": 5, "velocity": 107}, {"time": 122, "pitch": 74, "duration": 3, "velocity": 117}, {"time": 134, "pitch": 72, "duration": 5, "velocity": 117}, {"time": 140, "pitch": 74, "duration": 6, "velocity": 90}, {"time": 146, "pitch": 72, "duration": 5, "velocity": 117}, {"time": 152, "pitch": 69, "duration": 31, "velocity": 100}, {"time": 200, "pitch": 72, "duration": 5, "velocity": 96}, {"time": 206, "pitch": 74, "duration": 6, "velocity": 117}, {"time": 212, "pitch": 77, "duration": 3, "velocity": 107}, {"time": 218, "pitch": 77, "duration": 5, "velocity": 117}, {"time": 230, "pitch": 77, "duration": 5, "velocity": 127}, {"time": 236, "pitch": 74, "duration": 4, "velocity": 122}, {"time": 242, "pitch": 74, "duration": 5, "velocity": 112}, {"time": 248, "pitch": 79, "duration": 3, "velocity": 122}, {"time": 254, "pitch": 79, "duration": 3, "velocity": 107}, {"time": 260, "pitch": 79, "duration": 23, "velocity": 122}, {"time": 296, "pitch": 81, "duration": 1, "velocity": 107}, {"time": 299, "pitch": 81, "duration": 1, "velocity": 85}, {"time": 302, "pitch": 81, "duration": 3, "velocity": 90}, {"time": 308, "pitch": 79, "duration": 2, "velocity": 102}, {"time": 314, "pitch": 79, "duration": 3, "velocity": 112}, {"time": 320, "pitch": 77, "duration": 3, "velocity": 97}, {"time": 326, "pitch": 77, "duration": 3, "velocity": 100}, {"time": 332, "pitch": 74, "duration": 5, "velocity": 127}, {"time": 338, "pitch": 72, "duration": 5, "velocity": 112}, {"time": 344, "pitch": 74, "duration": 3, "velocity": 112}, {"time": 350, "pitch": 74, "duration": 4, "velocity": 127}, {"time": 356, "pitch": 77, "duration": 8, "velocity": 127}, {"time": 368, "pitch": 74, "duration": 13, "velocity": 100}, {"time": 386, "pitch": 69, "duration": 4, "velocity": 107}, {"time": 392, "pitch": 72, "duration": 3, "velocity": 107}, {"time": 398, "pitch": 72, "duration": 5, "velocity": 112}, {"time": 404, "pitch": 77, "duration": 4, "velocity": 107}, {"time": 410, "pitch": 74, "duration": 3, "velocity": 127}, {"time": 698, "pitch": 69, "duration": 4, "velocity": 127}, {"time": 746, "pitch": 72, "duration": 4, "velocity": 112}, {"time": 752, "pitch": 74, "duration": 3, "velocity": 117}, {"time": 758, "pitch": 74, "duration": 3, "velocity": 102}, {"time": 764, "pitch": 77, "duration": 5, "velocity": 127}, {"time": 776, "pitch": 74, "duration": 18, "velocity": 127}, {"time": 794, "pitch": 69, "duration": 5, "velocity": 117}, {"time": 800, "pitch": 72, "duration": 2, "velocity": 127}, {"time": 806, "pitch": 72, "duration": 3, "velocity": 127}, {"time": 812, "pitch": 77, "duration": 4, "velocity": 127}, {"time": 818, "pitch": 74, "duration": 5, "velocity": 127}, {"time": 872, "pitch": 69, "duration": 4, "velocity": 96}, {"time": 878, "pitch": 72, "duration": 6, "velocity": 112}, {"time": 884, "pitch": 74, "duration": 5, "velocity": 99}, {"time": 890, "pitch": 77, "duration": 3, "velocity": 112}, {"time": 902, "pitch": 77, "duration": 5, "velocity": 117}, {"time": 908, "pitch": 74, "duration": 2, "velocity": 122}, {"time": 914, "pitch": 74, "duration": 29, "velocity": 117}, {"time": 968, "pitch": 72, "duration": 2, "velocity": 107}, {"time": 974, "pitch": 74, "duration": 5, "velocity": 117}, {"time": 980, "pitch": 77, "duration": 2, "velocity": 90}, {"time": 986, "pitch": 74, "duration": 8, "velocity": 112}, {"time": 998, "pitch": 72, "duration": 5, "velocity": 122}, {"time": 1004, "pitch": 67, "duration": 6, "velocity": 96}, {"time": 1010, "pitch": 69, "duration": 2, "velocity": 112}, {"time": 1016, "pitch": 69, "duration": 32, "velocity": 107}, {"time": 1064, "pitch": 72, "duration": 2, "velocity": 95}, {"time": 1070, "pitch": 74, "duration": 5, "velocity": 127}, {"time": 1076, "pitch": 77, "duration": 2, "velocity": 100}, {"time": 1082, "pitch": 77, "duration": 6, "velocity": 127}, {"time": 1094, "pitch": 77, "duration": 4, "velocity": 127}, {"time": 1100, "pitch": 72, "duration": 1, "velocity": 95}, {"time": 1106, "pitch": 74, "duration": 5, "velocity": 127}, {"time": 1154, "pitch": 72, "duration": 5, "velocity": 107}, {"time": 1160, "pitch": 74, "duration": 3, "velocity": 107}, {"time": 1166, "pitch": 74, "duration": 2, "velocity": 112}, {"time": 1172, "pitch": 77, "duration": 8, "velocity": 117}, {"time": 1184, "pitch": 74, "duration": 17, "velocity": 127}, {"time": 1202, "pitch": 67, "duration": 5, "velocity": 102}, {"time": 1208, "pitch": 69, "duration": 4, "velocity": 112}, {"time": 1214, "pitch": 72, "duration": 3, "velocity": 117}, {"time": 1220, "pitch": 69, "duration": 4, "velocity": 100}, {"time": 1226, "pitch": 72, "duration": 5, "velocity": 122}, {"time": 1232, "pitch": 74, "duration": 4, "velocity": 122}, {"time": 1238, "pitch": 77, "duration": 3, "velocity": 122}, {"time": 1244, "pitch": 79, "duration": 10, "velocity": 127}, {"time": 1256, "pitch": 72, "duration": 2, "velocity": 102}, {"time": 1262, "pitch": 72, "duration": 2, "velocity": 100}, {"time": 1268, "pitch": 72, "duration": 2, "velocity": 100}, {"time": 1271, "pitch": 74, "duration": 2, "velocity": 107}, {"time": 1274, "pitch": 77, "duration": 3, "velocity": 102}, {"time": 1280, "pitch": 74, "duration": 6, "velocity": 102}, {"time": 1286, "pitch": 79, "duration": 42, "velocity": 122}, {"time": 1340, "pitch": 72, "duration": 2, "velocity": 112}, {"time": 1346, "pitch": 72, "duration": 2, "velocity": 102}, {"time": 1352, "pitch": 72, "duration": 2, "velocity": 102}, {"time": 1352, "pitch": 74, "duration": 3, "velocity": 93}, {"time": 1358, "pitch": 77, "duration": 5, "velocity": 107}, {"time": 1364, "pitch": 74, "duration": 2, "velocity": 102}, {"time": 1370, "pitch": 74, "duration": 29, "velocity": 122}, {"time": 1424, "pitch": 72, "duration": 2, "velocity": 99}, {"time": 1430, "pitch": 72, "duration": 2, "velocity": 93}, {"time": 1436, "pitch": 72, "duration": 2, "velocity": 92}, {"time": 1436, "pitch": 74, "duration": 3, "velocity": 90}, {"time": 1442, "pitch": 77, "duration": 5, "velocity": 97}, {"time": 1448, "pitch": 74, "duration": 4, "velocity": 99}, {"time": 1454, "pitch": 79, "duration": 27, "velocity": 127}, {"time": 1508, "pitch": 72, "duration": 2, "velocity": 112}, {"time": 1514, "pitch": 72, "duration": 2, "velocity": 100}, {"time": 1520, "pitch": 72, "duration": 2, "velocity": 97}, {"time": 1523, "pitch": 74, "duration": 3, "velocity": 99}, {"time": 1526, "pitch": 77, "duration": 2, "velocity": 107}, {"time": 1532, "pitch": 74, "duration": 2, "velocity": 122}, {"time": 1538, "pitch": 74, "duration": 37, "velocity": 122}, {"time": 1586, "pitch": 74, "duration": 8, "velocity": 127}, {"time": 1640, "pitch": 69, "duration": 4, "velocity": 96}, {"time": 1646, "pitch": 72, "duration": 6, "velocity": 112}, {"time": 1652, "pitch": 74, "duration": 5, "velocity": 99}, {"time": 1658, "pitch": 77, "duration": 3, "velocity": 112}, {"time": 1670, "pitch": 77, "duration": 5, "velocity": 117}, {"time": 1676, "pitch": 74, "duration": 2, "velocity": 122}, {"time": 1682, "pitch": 74, "duration": 29, "velocity": 117}, {"time": 1736, "pitch": 72, "duration": 2, "velocity": 107}, {"time": 1742, "pitch": 74, "duration": 5, "velocity": 117}, {"time": 1748, "pitch": 77, "duration": 2, "velocity": 90}, {"time": 1754, "pitch": 74, "duration": 8, "velocity": 112}, {"time": 1766, "pitch": 72, "duration": 5, "velocity": 122}, {"time": 1772, "pitch": 67, "duration": 6, "velocity": 96}, {"time": 1778, "pitch": 69, "duration": 2, "velocity": 112}, {"time": 1784, "pitch": 69, "duration": 32, "velocity": 107}, {"time": 1832, "pitch": 72, "duration": 2, "velocity": 95}, {"time": 1838, "pitch": 74, "duration": 5, "velocity": 127}, {"time": 1844, "pitch": 77, "duration": 2, "velocity": 100}, {"time": 1850, "pitch": 77, "duration": 6, "velocity": 127}, {"time": 1862, "pitch": 77, "duration": 4, "velocity": 127}, {"time": 1868, "pitch": 72, "duration": 1, "velocity": 95}, {"time": 1874, "pitch": 74, "duration": 5, "velocity": 127}, {"time": 1922, "pitch": 72, "duration": 5, "velocity": 107}, {"time": 1928, "pitch": 74, "duration": 3, "velocity": 107}, {"time": 1934, "pitch": 74, "duration": 2, "velocity": 112}, {"time": 1940, "pitch": 77, "duration": 8, "velocity": 117}, {"time": 1952, "pitch": 74, "duration": 6, "velocity": 127}, {"time": 1970, "pitch": 67, "duration": 4, "velocity": 100}, {"time": 1976, "pitch": 69, "duration": 3, "velocity": 117}, {"time": 1982, "pitch": 72, "duration": 4, "velocity": 122}, {"time": 1988, "pitch": 69, "duration": 4, "velocity": 102}, {"time": 1994, "pitch": 72, "duration": 5, "velocity": 122}, {"time": 2000, "pitch": 74, "duration": 4, "velocity": 122}, {"time": 2006, "pitch": 77, "duration": 3, "velocity": 127}, {"time": 2012, "pitch": 79, "duration": 14, "velocity": 127}, {"time": 2024, "pitch": 69, "duration": 2, "velocity": 107}, {"time": 2030, "pitch": 72, "duration": 3, "velocity": 112}, {"time": 2036, "pitch": 74, "duration": 2, "velocity": 102}, {"time": 2042, "pitch": 77, "duration": 4, "velocity": 127}, {"time": 2054, "pitch": 77, "duration": 4, "velocity": 122}, {"time": 2060, "pitch": 74, "duration": 2, "velocity": 112}, {"time": 2066, "pitch": 72, "duration": 5, "velocity": 122}, {"time": 2072, "pitch": 74, "duration": 1, "velocity": 117}, {"time": 2078, "pitch": 72, "duration": 6, "velocity": 122}, {"time": 2084, "pitch": 74, "duration": 6, "velocity": 117}, {"time": 2096, "pitch": 74, "duration": 1, "velocity": 89}, {"time": 2099, "pitch": 74, "duration": 1, "velocity": 72}, {"time": 2102, "pitch": 74, "duration": 1, "velocity": 72}, {"time": 2105, "pitch": 74, "duration": 1, "velocity": 75}, {"time": 2108, "pitch": 74, "duration": 1, "velocity": 73}, {"time": 2111, "pitch": 74, "duration": 1, "velocity": 86}, {"time": 2120, "pitch": 72, "duration": 2, "velocity": 112}, {"time": 2126, "pitch": 74, "duration": 1, "velocity": 117}, {"time": 2132, "pitch": 77, "duration": 2, "velocity": 122}, {"time": 2138, "pitch": 77, "duration": 4, "velocity": 127}, {"time": 2144, "pitch": 74, "duration": 2, "velocity": 127}, {"time": 2150, "pitch": 72, "duration": 1, "velocity": 117}, {"time": 2156, "pitch": 74, "duration": 2, "velocity": 127}, {"time": 2162, "pitch": 72, "duration": 11, "velocity": 112}, {"time": 2174, "pitch": 69, "duration": 4, "velocity": 95}, {"time": 2180, "pitch": 69, "duration": 1, "velocity": 89}, {"time": 2183, "pitch": 69, "duration": 1, "velocity": 59}, {"time": 2186, "pitch": 69, "duration": 1, "velocity": 68}, {"time": 2189, "pitch": 69, "duration": 2, "velocity": 78}, {"time": 2192, "pitch": 69, "duration": 1, "velocity": 79}, {"time": 2195, "pitch": 69, "duration": 1, "velocity": 85}, {"time": 2198, "pitch": 69, "duration": 1, "velocity": 97}, {"time": 2201, "pitch": 69, "duration": 1, "velocity": 93}, {"time": 2204, "pitch": 69, "duration": 1, "velocity": 96}, {"time": 2207, "pitch": 69, "duration": 1, "velocity": 107}, {"time": 2216, "pitch": 72, "duration": 2, "velocity": 107}, {"time": 2222, "pitch": 74, "duration": 5, "velocity": 122}, {"time": 2228, "pitch": 77, "duration": 1, "velocity": 93}, {"time": 2234, "pitch": 77, "duration": 6, "velocity": 127}, {"time": 2240, "pitch": 74, "duration": 3, "velocity": 97}, {"time": 2246, "pitch": 74, "duration": 6, "velocity": 107}, {"time": 2258, "pitch": 74, "duration": 7, "velocity": 117}, {"time": 2267, "pitch": 79, "duration": 1, "velocity": 79}, {"time": 2270, "pitch": 79, "duration": 2, "velocity": 92}, {"time": 2276, "pitch": 79, "duration": 9, "velocity": 127}, {"time": 2288, "pitch": 79, "duration": 2, "velocity": 112}, {"time": 2294, "pitch": 79, "duration": 2, "velocity": 92}, {"time": 2300, "pitch": 79, "duration": 3, "velocity": 97}, {"time": 2306, "pitch": 81, "duration": 3, "velocity": 127}, {"time": 2312, "pitch": 81, "duration": 2, "velocity": 100}, {"time": 2318, "pitch": 81, "duration": 2, "velocity": 127}, {"time": 2324, "pitch": 79, "duration": 2, "velocity": 107}, {"time": 2330, "pitch": 79, "duration": 2, "velocity": 122}, {"time": 2336, "pitch": 77, "duration": 2, "velocity": 100}, {"time": 2342, "pitch": 77, "duration": 2, "velocity": 100}, {"time": 2348, "pitch": 74, "duration": 3, "velocity": 100}, {"time": 2354, "pitch": 72, "duration": 4, "velocity": 102}, {"time": 2360, "pitch": 74, "duration": 2, "velocity": 58}, {"time": 2366, "pitch": 74, "duration": 3, "velocity": 112}, {"time": 2372, "pitch": 77, "duration": 2, "velocity": 122}, {"time": 2384, "pitch": 74, "duration": 4, "velocity": 127}, {"time": 2402, "pitch": 69, "duration": 4, "velocity": 102}, {"time": 2408, "pitch": 72, "duration": 2, "velocity": 97}, {"time": 2414, "pitch": 72, "duration": 5, "velocity": 112}, {"time": 2420, "pitch": 77, "duration": 5, "velocity": 97}, {"time": 2426, "pitch": 74, "duration": 7, "velocity": 127}, {"time": 2480, "pitch": 69, "duration": 4, "velocity": 96}, {"time": 2486, "pitch": 72, "duration": 6, "velocity": 112}, {"time": 2492, "pitch": 74, "duration": 5, "velocity": 99}, {"time": 2498, "pitch": 77, "duration": 3, "velocity": 112}, {"time": 2510, "pitch": 77, "duration": 5, "velocity": 117}, {"time": 2516, "pitch": 74, "duration": 2, "velocity": 122}, {"time": 2522, "pitch": 74, "duration": 29, "velocity": 117}, {"time": 2576, "pitch": 72, "duration": 2, "velocity": 107}, {"time": 2582, "pitch": 74, "duration": 5, "velocity": 117}, {"time": 2588, "pitch": 77, "duration": 2, "velocity": 90}, {"time": 2594, "pitch": 74, "duration": 8, "velocity": 112}, {"time": 2606, "pitch": 72, "duration": 5, "velocity": 122}, {"time": 2612, "pitch": 67, "duration": 6, "velocity": 96}, {"time": 2618, "pitch": 69, "duration": 2, "velocity": 112}, {"time": 2624, "pitch": 69, "duration": 32, "velocity": 107}, {"time": 2672, "pitch": 72, "duration": 2, "velocity": 95}, {"time": 2678, "pitch": 74, "duration": 5, "velocity": 127}, {"time": 2684, "pitch": 77, "duration": 2, "velocity": 100}, {"time": 2690, "pitch": 77, "duration": 6, "velocity": 127}, {"time": 2702, "pitch": 77, "duration": 4, "velocity": 127}, {"time": 2708, "pitch": 72, "duration": 1, "velocity": 95}, {"time": 2714, "pitch": 74, "duration": 5, "velocity": 127}, {"time": 2762, "pitch": 72, "duration": 5, "velocity": 107}, {"time": 2768, "pitch": 74, "duration": 3, "velocity": 107}, {"time": 2774, "pitch": 74, "duration": 2, "velocity": 112}, {"time": 2780, "pitch": 77, "duration": 8, "velocity": 117}, {"time": 2792, "pitch": 74, "duration": 17, "velocity": 127}, {"time": 2810, "pitch": 67, "duration": 4, "velocity": 102}, {"time": 2816, "pitch": 69, "duration": 3, "velocity": 112}, {"time": 2822, "pitch": 72, "duration": 3, "velocity": 112}, {"time": 2828, "pitch": 69, "duration": 3, "velocity": 102}, {"time": 2834, "pitch": 72, "duration": 2, "velocity": 127}, {"time": 2840, "pitch": 74, "duration": 3, "velocity": 127}, {"time": 2846, "pitch": 77, "duration": 3, "velocity": 127}, {"time": 2852, "pitch": 79, "duration": 9, "velocity": 127}, {"time": 2864, "pitch": 72, "duration": 2, "velocity": 117}, {"time": 2870, "pitch": 72, "duration": 4, "velocity": 122}, {"time": 2876, "pitch": 74, "duration": 2, "velocity": 122}, {"time": 2882, "pitch": 77, "duration": 3, "velocity": 127}, {"time": 2888, "pitch": 74, "duration": 5, "velocity": 100}, {"time": 2894, "pitch": 79, "duration": 4, "velocity": 127}, {"time": 2900, "pitch": 72, "duration": 2, "velocity": 107}, {"time": 2903, "pitch": 72, "duration": 1, "velocity": 74}, {"time": 2906, "pitch": 72, "duration": 2, "velocity": 69}, {"time": 2912, "pitch": 74, "duration": 4, "velocity": 90}, {"time": 2918, "pitch": 77, "duration": 5, "velocity": 102}, {"time": 2924, "pitch": 74, "duration": 4, "velocity": 100}, {"time": 2930, "pitch": 79, "duration": 14, "velocity": 127}, {"time": 2984, "pitch": 81, "duration": 4, "velocity": 127}, {"time": 2990, "pitch": 79, "duration": 4, "velocity": 117}, {"time": 2996, "pitch": 77, "duration": 2, "velocity": 97}, {"time": 3002, "pitch": 79, "duration": 6, "velocity": 117}, {"time": 3008, "pitch": 77, "duration": 4, "velocity": 107}, {"time": 3014, "pitch": 72, "duration": 5, "velocity": 112}, {"time": 3020, "pitch": 74, "duration": 19, "velocity": 122}, {"time": 3080, "pitch": 81, "duration": 9, "velocity": 127}, {"time": 3092, "pitch": 79, "duration": 8, "velocity": 112}, {"time": 3104, "pitch": 77, "duration": 5, "velocity": 117}, {"time": 3110, "pitch": 79, "duration": 27, "velocity": 127}, {"time": 3152, "pitch": 72, "duration": 2, "velocity": 97}, {"time": 3158, "pitch": 72, "duration": 4, "velocity": 78}, {"time": 3164, "pitch": 69, "duration": 5, "velocity": 95}, {"time": 3170, "pitch": 72, "duration": 4, "velocity": 112}, {"time": 3176, "pitch": 69, "duration": 6, "velocity": 86}, {"time": 3182, "pitch": 74, "duration": 6, "velocity": 99}, {"time": 3188, "pitch": 77, "duration": 6, "velocity": 72}, {"time": 3194, "pitch": 74, "duration": 11, "velocity": 122}, {"time": 3236, "pitch": 72, "duration": 2, "velocity": 97}, {"time": 3239, "pitch": 74, "duration": 3, "velocity": 93}, {"time": 3242, "pitch": 77, "duration": 3, "velocity": 100}, {"time": 3248, "pitch": 77, "duration": 3, "velocity": 97}, {"time": 3254, "pitch": 77, "duration": 3, "velocity": 100}, {"time": 3260, "pitch": 74, "duration": 5, "velocity": 100}, {"time": 3266, "pitch": 81, "duration": 3, "velocity": 112}, {"time": 3272, "pitch": 79, "duration": 18, "velocity": 127}, {"time": 3320, "pitch": 84, "duration": 2, "velocity": 122}, {"time": 3323, "pitch": 86, "duration": 3, "velocity": 99}, {"time": 3326, "pitch": 84, "duration": 3, "velocity": 127}, {"time": 3332, "pitch": 81, "duration": 3, "velocity": 127}, {"time": 3335, "pitch": 79, "duration": 2, "velocity": 122}, {"time": 3338, "pitch": 81, "duration": 2, "velocity": 112}, {"time": 3344, "pitch": 79, "duration": 3, "velocity": 107}, {"time": 3347, "pitch": 77, "duration": 3, "velocity": 88}, {"time": 3350, "pitch": 77, "duration": 1, "velocity": 99}, {"time": 3356, "pitch": 79, "duration": 5, "velocity": 112}, {"time": 3362, "pitch": 74, "duration": 10, "velocity": 99}, {"time": 3404, "pitch": 81, "duration": 3, "velocity": 117}, {"time": 3410, "pitch": 81, "duration": 3, "velocity": 92}, {"time": 3416, "pitch": 81, "duration": 2, "velocity": 97}, {"time": 3422, "pitch": 81, "duration": 3, "velocity": 127}, {"time": 3428, "pitch": 81, "duration": 2, "velocity": 85}, {"time": 3434, "pitch": 81, "duration": 3, "velocity": 122}, {"time": 3440, "pitch": 77, "duration": 2, "velocity": 96}, {"time": 3443, "pitch": 74, "duration": 2, "velocity": 92}, {"time": 3446, "pitch": 79, "duration": 25, "velocity": 100}, {"time": 3488, "pitch": 86, "duration": 8, "velocity": 127}, {"time": 3500, "pitch": 86, "duration": 4, "velocity": 127}, {"time": 3506, "pitch": 84, "duration": 5, "velocity": 122}, {"time": 3512, "pitch": 81, "duration": 5, "velocity": 100}, {"time": 3518, "pitch": 81, "duration": 7, "velocity": 122}, {"time": 3530, "pitch": 81, "duration": 5, "velocity": 122}, {"time": 3536, "pitch": 77, "duration": 5, "velocity": 102}, {"time": 3542, "pitch": 74, "duration": 8, "velocity": 99}, {"time": 3548, "pitch": 72, "duration": 2, "velocity": 83}, {"time": 3551, "pitch": 74, "duration": 2, "velocity": 107}, {"time": 3554, "pitch": 77, "duration": 6, "velocity": 100}, {"time": 3560, "pitch": 74, "duration": 4, "velocity": 64}, {"time": 3566, "pitch": 67, "duration": 11, "velocity": 99}, {"time": 3572, "pitch": 72, "duration": 1, "velocity": 112}, {"time": 3578, "pitch": 72, "duration": 2, "velocity": 99}, {"time": 3581, "pitch": 74, "duration": 3, "velocity": 96}, {"time": 3584, "pitch": 77, "duration": 2, "velocity": 102}, {"time": 3590, "pitch": 77, "duration": 3, "velocity": 112}, {"time": 3596, "pitch": 74, "duration": 3, "velocity": 102}, {"time": 3602, "pitch": 81, "duration": 5, "velocity": 117}, {"time": 3608, "pitch": 79, "duration": 21, "velocity": 122}, {"time": 3620, "pitch": 72, "duration": 1, "velocity": 117}, {"time": 3626, "pitch": 72, "duration": 2, "velocity": 102}, {"time": 3632, "pitch": 72, "duration": 2, "velocity": 97}, {"time": 3632, "pitch": 74, "duration": 3, "velocity": 62}, {"time": 3638, "pitch": 77, "duration": 4, "velocity": 96}, {"time": 3644, "pitch": 74, "duration": 2, "velocity": 102}, {"time": 3650, "pitch": 74, "duration": 12, "velocity": 112}, {"time": 3656, "pitch": 81, "duration": 2, "velocity": 127}, {"time": 3662, "pitch": 79, "duration": 5, "velocity": 97}, {"time": 3668, "pitch": 77, "duration": 2, "velocity": 92}, {"time": 3674, "pitch": 79, "duration": 6, "velocity": 122}, {"time": 3680, "pitch": 77, "duration": 1, "velocity": 93}, {"time": 3686, "pitch": 74, "duration": 2, "velocity": 127}, {"time": 3692, "pitch": 72, "duration": 2, "velocity": 100}, {"time": 3698, "pitch": 74, "duration": 13, "velocity": 112}, {"time": 3704, "pitch": 72, "duration": 2, "velocity": 100}, {"time": 3710, "pitch": 72, "duration": 2, "velocity": 102}, {"time": 3716, "pitch": 72, "duration": 3, "velocity": 107}, {"time": 3719, "pitch": 74, "duration": 3, "velocity": 75}, {"time": 3722, "pitch": 77, "duration": 6, "velocity": 96}, {"time": 3728, "pitch": 74, "duration": 4, "velocity": 90}, {"time": 3734, "pitch": 67, "duration": 13, "velocity": 95}, {"time": 3740, "pitch": 72, "duration": 2, "velocity": 92}, {"time": 3743, "pitch": 74, "duration": 3, "velocity": 66}, {"time": 3746, "pitch": 77, "duration": 2, "velocity": 93}, {"time": 3752, "pitch": 77, "duration": 2, "velocity": 95}, {"time": 3758, "pitch": 77, "duration": 3, "velocity": 96}, {"time": 3764, "pitch": 74, "duration": 2, "velocity": 99}, {"time": 3770, "pitch": 79, "duration": 3, "velocity": 90}, {"time": 3776, "pitch": 79, "duration": 10, "velocity": 88}]}, {"program": 0, "is_drum": false, "name": "PIANO", "notes": [{"time": 50, "pitch": 38, "duration": 9, "velocity": 88}, {"time": 56, "pitch": 57, "duration": 1, "velocity": 78}, {"time": 56, "pitch": 62, "duration": 1, "velocity": 88}, {"time": 56, "pitch": 65, "duration": 1, "velocity": 76}, {"time": 59, "pitch": 57, "duration": 1, "velocity": 63}, {"time": 59, "pitch": 62, "duration": 1, "velocity": 69}, {"time": 59, "pitch": 65, "duration": 1, "velocity": 77}, {"time": 62, "pitch": 50, "duration": 9, "velocity": 58}, {"time": 68, "pitch": 57, "duration": 1, "velocity": 72}, {"time": 68, "pitch": 62, "duration": 1, "velocity": 77}, {"time": 68, "pitch": 65, "duration": 1, "velocity": 74}, {"time": 74, "pitch": 36, "duration": 1, "velocity": 54}, {"time": 74, "pitch": 38, "duration": 12, "velocity": 47}, {"time": 80, "pitch": 57, "duration": 1, "velocity": 66}, {"time": 80, "pitch": 62, "duration": 1, "velocity": 92}, {"time": 80, "pitch": 65, "duration": 1, "velocity": 73}, {"time": 83, "pitch": 57, "duration": 1, "velocity": 53}, {"time": 83, "pitch": 62, "duration": 2, "velocity": 71}, {"time": 83, "pitch": 65, "duration": 2, "velocity": 70}, {"time": 86, "pitch": 45, "duration": 9, "velocity": 63}, {"time": 92, "pitch": 57, "duration": 1, "velocity": 78}, {"time": 92, "pitch": 62, "duration": 1, "velocity": 88}, {"time": 92, "pitch": 65, "duration": 2, "velocity": 86}, {"time": 98, "pitch": 38, "duration": 7, "velocity": 71}, {"time": 104, "pitch": 62, "duration": 1, "velocity": 85}, {"time": 104, "pitch": 65, "duration": 1, "velocity": 72}, {"time": 107, "pitch": 57, "duration": 1, "velocity": 55}, {"time": 107, "pitch": 62, "duration": 2, "velocity": 73}, {"time": 107, "pitch": 65, "duration": 1, "velocity": 67}, {"time": 110, "pitch": 45, "duration": 10, "velocity": 52}, {"time": 116, "pitch": 57, "duration": 1, "velocity": 74}, {"time": 116, "pitch": 62, "duration": 1, "velocity": 86}, {"time": 116, "pitch": 65, "duration": 1, "velocity": 77}, {"time": 122, "pitch": 38, "duration": 12, "velocity": 48}, {"time": 128, "pitch": 57, "duration": 1, "velocity": 78}, {"time": 128, "pitch": 62, "duration": 1, "velocity": 90}, {"time": 128, "pitch": 65, "duration": 1, "velocity": 78}, {"time": 131, "pitch": 62, "duration": 2, "velocity": 66}, {"time": 131, "pitch": 65, "duration": 2, "velocity": 62}, {"time": 134, "pitch": 45, "duration": 7, "velocity": 95}, {"time": 140, "pitch": 57, "duration": 1, "velocity": 74}, {"time": 140, "pitch": 62, "duration": 2, "velocity": 89}, {"time": 140, "pitch": 65, "duration": 2, "velocity": 79}, {"time": 146, "pitch": 45, "duration": 12, "velocity": 61}, {"time": 152, "pitch": 57, "duration": 1, "velocity": 76}, {"time": 152, "pitch": 60, "duration": 1, "velocity": 88}, {"time": 152, "pitch": 64, "duration": 1, "velocity": 79}, {"time": 155, "pitch": 57, "duration": 1, "velocity": 64}, {"time": 155, "pitch": 60, "duration": 1, "velocity": 79}, {"time": 155, "pitch": 64, "duration": 1, "velocity": 72}, {"time": 158, "pitch": 52, "duration": 10, "velocity": 69}, {"time": 164, "pitch": 57, "duration": 1, "velocity": 82}, {"time": 164, "pitch": 60, "duration": 1, "velocity": 93}, {"time": 164, "pitch": 64, "duration": 1, "velocity": 89}, {"time": 170, "pitch": 45, "duration": 12, "velocity": 69}, {"time": 176, "pitch": 57, "duration": 1, "velocity": 76}, {"time": 176, "pitch": 60, "duration": 1, "velocity": 89}, {"time": 176, "pitch": 64, "duration": 1, "velocity": 78}, {"time": 179, "pitch": 57, "duration": 1, "velocity": 59}, {"time": 179, "pitch": 60, "duration": 1, "velocity": 72}, {"time": 179, "pitch": 64, "duration": 2, "velocity": 74}, {"time": 182, "pitch": 52, "duration": 10, "velocity": 74}, {"time": 188, "pitch": 57, "duration": 2, "velocity": 85}, {"time": 188, "pitch": 60, "duration": 2, "velocity": 90}, {"time": 188, "pitch": 63, "duration": 1, "velocity": 71}, {"time": 188, "pitch": 64, "duration": 2, "velocity": 86}, {"time": 194, "pitch": 41, "duration": 12, "velocity": 75}, {"time": 200, "pitch": 53, "duration": 1, "velocity": 75}, {"time": 200, "pitch": 57, "duration": 1, "velocity": 86}, {"time": 200, "pitch": 60, "duration": 1, "velocity": 78}, {"time": 203, "pitch": 53, "duration": 1, "velocity": 64}, {"time": 203, "pitch": 57, "duration": 2, "velocity": 74}, {"time": 203, "pitch": 60, "duration": 1, "velocity": 74}, {"time": 206, "pitch": 48, "duration": 9, "velocity": 75}, {"time": 212, "pitch": 53, "duration": 1, "velocity": 86}, {"time": 212, "pitch": 57, "duration": 1, "velocity": 95}, {"time": 212, "pitch": 60, "duration": 1, "velocity": 89}, {"time": 218, "pitch": 41, "duration": 14, "velocity": 59}, {"time": 224, "pitch": 53, "duration": 1, "velocity": 79}, {"time": 224, "pitch": 57, "duration": 1, "velocity": 92}, {"time": 224, "pitch": 60, "duration": 1, "velocity": 82}, {"time": 227, "pitch": 53, "duration": 2, "velocity": 59}, {"time": 227, "pitch": 57, "duration": 2, "velocity": 65}, {"time": 227, "pitch": 60, "duration": 2, "velocity": 69}, {"time": 230, "pitch": 48, "duration": 10, "velocity": 82}, {"time": 236, "pitch": 53, "duration": 1, "velocity": 83}, {"time": 236, "pitch": 57, "duration": 1, "velocity": 95}, {"time": 236, "pitch": 60, "duration": 1, "velocity": 83}, {"time": 239, "pitch": 43, "duration": 13, "velocity": 64}, {"time": 248, "pitch": 55, "duration": 1, "velocity": 79}, {"time": 248, "pitch": 58, "duration": 1, "velocity": 100}, {"time": 248, "pitch": 62, "duration": 1, "velocity": 82}, {"time": 251, "pitch": 55, "duration": 1, "velocity": 59}, {"time": 251, "pitch": 58, "duration": 1, "velocity": 64}, {"time": 251, "pitch": 62, "duration": 2, "velocity": 69}, {"time": 254, "pitch": 50, "duration": 9, "velocity": 78}, {"time": 260, "pitch": 55, "duration": 1, "velocity": 79}, {"time": 260, "pitch": 58, "duration": 1, "velocity": 97}, {"time": 260, "pitch": 62, "duration": 2, "velocity": 88}, {"time": 266, "pitch": 43, "duration": 13, "velocity": 59}, {"time": 266, "pitch": 62, "duration": 1, "velocity": 43}, {"time": 272, "pitch": 55, "duration": 1, "velocity": 97}, {"time": 272, "pitch": 58, "duration": 1, "velocity": 122}, {"time": 272, "pitch": 62, "duration": 1, "velocity": 92}, {"time": 275, "pitch": 55, "duration": 2, "velocity": 58}, {"time": 275, "pitch": 58, "duration": 2, "velocity": 73}, {"time": 275, "pitch": 62, "duration": 2, "velocity": 69}, {"time": 278, "pitch": 50, "duration": 11, "velocity": 90}, {"time": 284, "pitch": 55, "duration": 2, "velocity": 82}, {"time": 284, "pitch": 58, "duration": 2, "velocity": 96}, {"time": 284, "pitch": 62, "duration": 3, "velocity": 85}, {"time": 290, "pitch": 45, "duration": 4, "velocity": 96}, {"time": 290, "pitch": 57, "duration": 4, "velocity": 92}, {"time": 290, "pitch": 60, "duration": 4, "velocity": 97}, {"time": 290, "pitch": 64, "duration": 4, "velocity": 99}, {"time": 338, "pitch": 48, "duration": 5, "velocity": 112}, {"time": 338, "pitch": 60, "duration": 5, "velocity": 112}, {"time": 344, "pitch": 50, "duration": 3, "velocity": 112}, {"time": 344, "pitch": 62, "duration": 3, "velocity": 112}, {"time": 350, "pitch": 50, "duration": 4, "velocity": 127}, {"time": 350, "pitch": 62, "duration": 4, "velocity": 127}, {"time": 356, "pitch": 53, "duration": 8, "velocity": 127}, {"time": 356, "pitch": 65, "duration": 8, "velocity": 127}, {"time": 368, "pitch": 50, "duration": 13, "velocity": 100}, {"time": 368, "pitch": 62, "duration": 13, "velocity": 100}, {"time": 386, "pitch": 45, "duration": 4, "velocity": 107}, {"time": 386, "pitch": 57, "duration": 4, "velocity": 107}, {"time": 392, "pitch": 48, "duration": 3, "velocity": 107}, {"time": 392, "pitch": 60, "duration": 3, "velocity": 107}, {"time": 398, "pitch": 48, "duration": 5, "velocity": 112}, {"time": 398, "pitch": 60, "duration": 5, "velocity": 112}, {"time": 404, "pitch": 53, "duration": 4, "velocity": 107}, {"time": 404, "pitch": 65, "duration": 4, "velocity": 107}, {"time": 410, "pitch": 50, "duration": 3, "velocity": 127}, {"time": 410, "pitch": 62, "duration": 3, "velocity": 127}, {"time": 458, "pitch": 38, "duration": 9, "velocity": 88}, {"time": 464, "pitch": 62, "duration": 1, "velocity": 97}, {"time": 464, "pitch": 65, "duration": 1, "velocity": 90}, {"time": 467, "pitch": 57, "duration": 1, "velocity": 59}, {"time": 467, "pitch": 62, "duration": 2, "velocity": 76}, {"time": 467, "pitch": 65, "duration": 2, "velocity": 73}, {"time": 470, "pitch": 50, "duration": 8, "velocity": 63}, {"time": 476, "pitch": 57, "duration": 1, "velocity": 81}, {"time": 476, "pitch": 62, "duration": 1, "velocity": 86}, {"time": 476, "pitch": 65, "duration": 1, "velocity": 77}, {"time": 482, "pitch": 38, "duration": 9, "velocity": 64}, {"time": 488, "pitch": 62, "duration": 1, "velocity": 89}, {"time": 488, "pitch": 65, "duration": 1, "velocity": 72}, {"time": 494, "pitch": 50, "duration": 8, "velocity": 96}, {"time": 500, "pitch": 57, "duration": 1, "velocity": 78}, {"time": 500, "pitch": 62, "duration": 1, "velocity": 89}, {"time": 500, "pitch": 65, "duration": 1, "velocity": 77}, {"time": 506, "pitch": 38, "duration": 9, "velocity": 66}, {"time": 512, "pitch": 57, "duration": 1, "velocity": 75}, {"time": 512, "pitch": 62, "duration": 1, "velocity": 88}, {"time": 512, "pitch": 65, "duration": 1, "velocity": 77}, {"time": 518, "pitch": 50, "duration": 8, "velocity": 63}, {"time": 524, "pitch": 57, "duration": 1, "velocity": 82}, {"time": 524, "pitch": 62, "duration": 1, "velocity": 93}, {"time": 524, "pitch": 65, "duration": 1, "velocity": 88}, {"time": 530, "pitch": 38, "duration": 11, "velocity": 73}, {"time": 536, "pitch": 57, "duration": 1, "velocity": 88}, {"time": 536, "pitch": 62, "duration": 1, "velocity": 99}, {"time": 536, "pitch": 65, "duration": 1, "velocity": 88}, {"time": 539, "pitch": 57, "duration": 1, "velocity": 48}, {"time": 539, "pitch": 62, "duration": 1, "velocity": 63}, {"time": 539, "pitch": 65, "duration": 1, "velocity": 69}, {"time": 542, "pitch": 50, "duration": 8, "velocity": 79}, {"time": 548, "pitch": 57, "duration": 1, "velocity": 88}, {"time": 548, "pitch": 62, "duration": 1, "velocity": 97}, {"time": 548, "pitch": 65, "duration": 1, "velocity": 92}, {"time": 554, "pitch": 45, "duration": 11, "velocity": 71}, {"time": 560, "pitch": 57, "duration": 1, "velocity": 90}, {"time": 560, "pitch": 60, "duration": 1, "velocity": 99}, {"time": 560, "pitch": 64, "duration": 1, "velocity": 92}, {"time": 566, "pitch": 52, "duration": 11, "velocity": 70}, {"time": 572, "pitch": 57, "duration": 1, "velocity": 85}, {"time": 572, "pitch": 60, "duration": 1, "velocity": 78}, {"time": 572, "pitch": 64, "duration": 1, "velocity": 78}, {"time": 578, "pitch": 45, "duration": 11, "velocity": 61}, {"time": 584, "pitch": 57, "duration": 1, "velocity": 86}, {"time": 584, "pitch": 60, "duration": 1, "velocity": 86}, {"time": 584, "pitch": 64, "duration": 1, "velocity": 83}, {"time": 587, "pitch": 57, "duration": 1, "velocity": 61}, {"time": 587, "pitch": 60, "duration": 1, "velocity": 69}, {"time": 587, "pitch": 64, "duration": 1, "velocity": 72}, {"time": 590, "pitch": 52, "duration": 8, "velocity": 72}, {"time": 596, "pitch": 57, "duration": 1, "velocity": 79}, {"time": 596, "pitch": 60, "duration": 1, "velocity": 89}, {"time": 596, "pitch": 63, "duration": 1, "velocity": 72}, {"time": 596, "pitch": 64, "duration": 1, "velocity": 76}, {"time": 602, "pitch": 41, "duration": 12, "velocity": 70}, {"time": 608, "pitch": 53, "duration": 1, "velocity": 71}, {"time": 608, "pitch": 57, "duration": 1, "velocity": 83}, {"time": 608, "pitch": 60, "duration": 1, "velocity": 82}, {"time": 614, "pitch": 48, "duration": 11, "velocity": 70}, {"time": 620, "pitch": 60, "duration": 1, "velocity": 82}, {"time": 620, "pitch": 65, "duration": 1, "velocity": 83}, {"time": 620, "pitch": 69, "duration": 1, "velocity": 77}, {"time": 626, "pitch": 41, "duration": 13, "velocity": 61}, {"time": 632, "pitch": 53, "duration": 1, "velocity": 72}, {"time": 632, "pitch": 57, "duration": 1, "velocity": 83}, {"time": 632, "pitch": 60, "duration": 1, "velocity": 83}, {"time": 638, "pitch": 48, "duration": 9, "velocity": 60}, {"time": 644, "pitch": 53, "duration": 1, "velocity": 83}, {"time": 644, "pitch": 57, "duration": 1, "velocity": 85}, {"time": 644, "pitch": 60, "duration": 1, "velocity": 83}, {"time": 650, "pitch": 43, "duration": 12, "velocity": 70}, {"time": 656, "pitch": 55, "duration": 1, "velocity": 92}, {"time": 656, "pitch": 58, "duration": 1, "velocity": 107}, {"time": 656, "pitch": 62, "duration": 1, "velocity": 93}, {"time": 662, "pitch": 50, "duration": 11, "velocity": 60}, {"time": 668, "pitch": 62, "duration": 1, "velocity": 83}, {"time": 668, "pitch": 67, "duration": 1, "velocity": 92}, {"time": 668, "pitch": 70, "duration": 1, "velocity": 97}, {"time": 674, "pitch": 43, "duration": 13, "velocity": 62}, {"time": 680, "pitch": 55, "duration": 1, "velocity": 79}, {"time": 680, "pitch": 58, "duration": 1, "velocity": 99}, {"time": 680, "pitch": 62, "duration": 1, "velocity": 90}, {"time": 686, "pitch": 50, "duration": 10, "velocity": 76}, {"time": 692, "pitch": 55, "duration": 1, "velocity": 85}, {"time": 692, "pitch": 58, "duration": 1, "velocity": 92}, {"time": 692, "pitch": 62, "duration": 1, "velocity": 82}, {"time": 698, "pitch": 45, "duration": 2, "velocity": 89}, {"time": 698, "pitch": 57, "duration": 2, "velocity": 102}, {"time": 698, "pitch": 60, "duration": 2, "velocity": 107}, {"time": 698, "pitch": 64, "duration": 2, "velocity": 107}, {"time": 746, "pitch": 48, "duration": 5, "velocity": 112}, {"time": 746, "pitch": 60, "duration": 5, "velocity": 112}, {"time": 752, "pitch": 50, "duration": 3, "velocity": 112}, {"time": 752, "pitch": 62, "duration": 3, "velocity": 112}, {"time": 758, "pitch": 50, "duration": 4, "velocity": 127}, {"time": 758, "pitch": 62, "duration": 4, "velocity": 127}, {"time": 764, "pitch": 53, "duration": 8, "velocity": 127}, {"time": 764, "pitch": 65, "duration": 8, "velocity": 127}, {"time": 776, "pitch": 50, "duration": 13, "velocity": 100}, {"time": 776, "pitch": 62, "duration": 13, "velocity": 100}, {"time": 794, "pitch": 45, "duration": 4, "velocity": 107}, {"time": 794, "pitch": 57, "duration": 4, "velocity": 107}, {"time": 800, "pitch": 48, "duration": 3, "velocity": 107}, {"time": 800, "pitch": 60, "duration": 3, "velocity": 107}, {"time": 806, "pitch": 48, "duration": 5, "velocity": 112}, {"time": 806, "pitch": 60, "duration": 5, "velocity": 112}, {"time": 812, "pitch": 53, "duration": 4, "velocity": 107}, {"time": 812, "pitch": 65, "duration": 4, "velocity": 107}, {"time": 818, "pitch": 50, "duration": 3, "velocity": 127}, {"time": 818, "pitch": 62, "duration": 3, "velocity": 127}, {"time": 866, "pitch": 38, "duration": 9, "velocity": 88}, {"time": 872, "pitch": 62, "duration": 1, "velocity": 97}, {"time": 872, "pitch": 65, "duration": 1, "velocity": 90}, {"time": 875, "pitch": 57, "duration": 1, "velocity": 59}, {"time": 875, "pitch": 62, "duration": 2, "velocity": 76}, {"time": 875, "pitch": 65, "duration": 2, "velocity": 73}, {"time": 878, "pitch": 50, "duration": 8, "velocity": 63}, {"time": 884, "pitch": 57, "duration": 1, "velocity": 81}, {"time": 884, "pitch": 62, "duration": 1, "velocity": 86}, {"time": 884, "pitch": 65, "duration": 1, "velocity": 77}, {"time": 890, "pitch": 38, "duration": 9, "velocity": 64}, {"time": 896, "pitch": 62, "duration": 1, "velocity": 89}, {"time": 896, "pitch": 65, "duration": 1, "velocity": 72}, {"time": 902, "pitch": 50, "duration": 8, "velocity": 96}, {"time": 908, "pitch": 57, "duration": 1, "velocity": 78}, {"time": 908, "pitch": 62, "duration": 1, "velocity": 89}, {"time": 908, "pitch": 65, "duration": 1, "velocity": 77}, {"time": 914, "pitch": 38, "duration": 9, "velocity": 66}, {"time": 920, "pitch": 57, "duration": 1, "velocity": 75}, {"time": 920, "pitch": 62, "duration": 1, "velocity": 88}, {"time": 920, "pitch": 65, "duration": 1, "velocity": 77}, {"time": 926, "pitch": 50, "duration": 8, "velocity": 63}, {"time": 932, "pitch": 57, "duration": 1, "velocity": 82}, {"time": 932, "pitch": 62, "duration": 1, "velocity": 93}, {"time": 932, "pitch": 65, "duration": 1, "velocity": 88}, {"time": 938, "pitch": 38, "duration": 11, "velocity": 73}, {"time": 944, "pitch": 57, "duration": 1, "velocity": 88}, {"time": 944, "pitch": 62, "duration": 1, "velocity": 99}, {"time": 944, "pitch": 65, "duration": 1, "velocity": 88}, {"time": 947, "pitch": 57, "duration": 1, "velocity": 48}, {"time": 947, "pitch": 62, "duration": 1, "velocity": 63}, {"time": 947, "pitch": 65, "duration": 1, "velocity": 69}, {"time": 950, "pitch": 50, "duration": 8, "velocity": 79}, {"time": 956, "pitch": 57, "duration": 1, "velocity": 88}, {"time": 956, "pitch": 62, "duration": 1, "velocity": 97}, {"time": 956, "pitch": 65, "duration": 1, "velocity": 92}, {"time": 962, "pitch": 45, "duration": 11, "velocity": 71}, {"time": 968, "pitch": 57, "duration": 1, "velocity": 90}, {"time": 968, "pitch": 60, "duration": 1, "velocity": 99}, {"time": 968, "pitch": 64, "duration": 1, "velocity": 92}, {"time": 974, "pitch": 52, "duration": 11, "velocity": 70}, {"time": 980, "pitch": 57, "duration": 1, "velocity": 85}, {"time": 980, "pitch": 60, "duration": 1, "velocity": 78}, {"time": 980, "pitch": 64, "duration": 1, "velocity": 78}, {"time": 986, "pitch": 45, "duration": 11, "velocity": 61}, {"time": 992, "pitch": 57, "duration": 1, "velocity": 86}, {"time": 992, "pitch": 60, "duration": 1, "velocity": 86}, {"time": 992, "pitch": 64, "duration": 1, "velocity": 83}, {"time": 995, "pitch": 57, "duration": 1, "velocity": 61}, {"time": 995, "pitch": 60, "duration": 1, "velocity": 69}, {"time": 995, "pitch": 64, "duration": 1, "velocity": 72}, {"time": 998, "pitch": 52, "duration": 8, "velocity": 72}, {"time": 1004, "pitch": 57, "duration": 1, "velocity": 79}, {"time": 1004, "pitch": 60, "duration": 1, "velocity": 89}, {"time": 1004, "pitch": 63, "duration": 1, "velocity": 72}, {"time": 1004, "pitch": 64, "duration": 1, "velocity": 76}, {"time": 1010, "pitch": 41, "duration": 12, "velocity": 70}, {"time": 1016, "pitch": 53, "duration": 1, "velocity": 71}, {"time": 1016, "pitch": 57, "duration": 1, "velocity": 83}, {"time": 1016, "pitch": 60, "duration": 1, "velocity": 82}, {"time": 1022, "pitch": 48, "duration": 11, "velocity": 70}, {"time": 1028, "pitch": 60, "duration": 1, "velocity": 82}, {"time": 1028, "pitch": 65, "duration": 1, "velocity": 83}, {"time": 1028, "pitch": 69, "duration": 1, "velocity": 77}, {"time": 1034, "pitch": 41, "duration": 13, "velocity": 61}, {"time": 1040, "pitch": 53, "duration": 1, "velocity": 72}, {"time": 1040, "pitch": 57, "duration": 1, "velocity": 83}, {"time": 1040, "pitch": 60, "duration": 1, "velocity": 83}, {"time": 1046, "pitch": 48, "duration": 9, "velocity": 60}, {"time": 1052, "pitch": 53, "duration": 1, "velocity": 83}, {"time": 1052, "pitch": 57, "duration": 1, "velocity": 85}, {"time": 1052, "pitch": 60, "duration": 1, "velocity": 83}, {"time": 1058, "pitch": 43, "duration": 12, "velocity": 70}, {"time": 1064, "pitch": 55, "duration": 1, "velocity": 92}, {"time": 1064, "pitch": 58, "duration": 1, "velocity": 107}, {"time": 1064, "pitch": 62, "duration": 1, "velocity": 93}, {"time": 1070, "pitch": 50, "duration": 11, "velocity": 60}, {"time": 1076, "pitch": 62, "duration": 1, "velocity": 83}, {"time": 1076, "pitch": 67, "duration": 1, "velocity": 92}, {"time": 1076, "pitch": 70, "duration": 1, "velocity": 97}, {"time": 1082, "pitch": 43, "duration": 13, "velocity": 62}, {"time": 1088, "pitch": 55, "duration": 1, "velocity": 79}, {"time": 1088, "pitch": 58, "duration": 1, "velocity": 99}, {"time": 1088, "pitch": 62, "duration": 1, "velocity": 90}, {"time": 1094, "pitch": 50, "duration": 10, "velocity": 76}, {"time": 1100, "pitch": 55, "duration": 1, "velocity": 85}, {"time": 1100, "pitch": 58, "duration": 1, "velocity": 92}, {"time": 1100, "pitch": 62, "duration": 1, "velocity": 82}, {"time": 1106, "pitch": 45, "duration": 2, "velocity": 89}, {"time": 1106, "pitch": 57, "duration": 2, "velocity": 102}, {"time": 1106, "pitch": 60, "duration": 2, "velocity": 107}, {"time": 1106, "pitch": 64, "duration": 2, "velocity": 107}, {"time": 1154, "pitch": 48, "duration": 5, "velocity": 112}, {"time": 1154, "pitch": 60, "duration": 5, "velocity": 112}, {"time": 1160, "pitch": 50, "duration": 3, "velocity": 112}, {"time": 1160, "pitch": 62, "duration": 3, "velocity": 112}, {"time": 1166, "pitch": 50, "duration": 4, "velocity": 127}, {"time": 1166, "pitch": 62, "duration": 4, "velocity": 127}, {"time": 1172, "pitch": 53, "duration": 8, "velocity": 127}, {"time": 1172, "pitch": 65, "duration": 8, "velocity": 127}, {"time": 1184, "pitch": 50, "duration": 13, "velocity": 100}, {"time": 1184, "pitch": 62, "duration": 13, "velocity": 100}, {"time": 1202, "pitch": 43, "duration": 5, "velocity": 102}, {"time": 1202, "pitch": 55, "duration": 5, "velocity": 102}, {"time": 1208, "pitch": 45, "duration": 4, "velocity": 112}, {"time": 1208, "pitch": 57, "duration": 4, "velocity": 112}, {"time": 1214, "pitch": 48, "duration": 3, "velocity": 117}, {"time": 1214, "pitch": 60, "duration": 3, "velocity": 117}, {"time": 1220, "pitch": 45, "duration": 4, "velocity": 100}, {"time": 1220, "pitch": 57, "duration": 4, "velocity": 100}, {"time": 1226, "pitch": 48, "duration": 5, "velocity": 122}, {"time": 1226, "pitch": 60, "duration": 5, "velocity": 122}, {"time": 1232, "pitch": 50, "duration": 4, "velocity": 122}, {"time": 1232, "pitch": 62, "duration": 4, "velocity": 122}, {"time": 1238, "pitch": 53, "duration": 3, "velocity": 122}, {"time": 1238, "pitch": 65, "duration": 3, "velocity": 122}, {"time": 1244, "pitch": 55, "duration": 10, "velocity": 127}, {"time": 1244, "pitch": 67, "duration": 10, "velocity": 127}, {"time": 1286, "pitch": 43, "duration": 9, "velocity": 76}, {"time": 1292, "pitch": 62, "duration": 1, "velocity": 61}, {"time": 1292, "pitch": 67, "duration": 1, "velocity": 83}, {"time": 1292, "pitch": 70, "duration": 1, "velocity": 78}, {"time": 1295, "pitch": 62, "duration": 1, "velocity": 59}, {"time": 1295, "pitch": 67, "duration": 2, "velocity": 75}, {"time": 1295, "pitch": 70, "duration": 2, "velocity": 75}, {"time": 1298, "pitch": 55, "duration": 8, "velocity": 73}, {"time": 1304, "pitch": 62, "duration": 1, "velocity": 81}, {"time": 1304, "pitch": 67, "duration": 1, "velocity": 88}, {"time": 1304, "pitch": 70, "duration": 1, "velocity": 81}, {"time": 1310, "pitch": 43, "duration": 15, "velocity": 75}, {"time": 1316, "pitch": 62, "duration": 1, "velocity": 73}, {"time": 1316, "pitch": 67, "duration": 1, "velocity": 83}, {"time": 1316, "pitch": 70, "duration": 1, "velocity": 90}, {"time": 1319, "pitch": 62, "duration": 1, "velocity": 58}, {"time": 1319, "pitch": 67, "duration": 2, "velocity": 78}, {"time": 1319, "pitch": 70, "duration": 2, "velocity": 82}, {"time": 1322, "pitch": 55, "duration": 3, "velocity": 89}, {"time": 1328, "pitch": 62, "duration": 2, "velocity": 81}, {"time": 1328, "pitch": 67, "duration": 1, "velocity": 66}, {"time": 1334, "pitch": 36, "duration": 6, "velocity": 71}, {"time": 1334, "pitch": 43, "duration": 5, "velocity": 78}, {"time": 1334, "pitch": 48, "duration": 5, "velocity": 97}, {"time": 1334, "pitch": 60, "duration": 5, "velocity": 99}, {"time": 1334, "pitch": 64, "duration": 5, "velocity": 69}, {"time": 1334, "pitch": 67, "duration": 5, "velocity": 73}, {"time": 1370, "pitch": 38, "duration": 8, "velocity": 73}, {"time": 1376, "pitch": 62, "duration": 1, "velocity": 62}, {"time": 1376, "pitch": 62, "duration": 1, "velocity": 72}, {"time": 1376, "pitch": 65, "duration": 1, "velocity": 71}, {"time": 1376, "pitch": 69, "duration": 1, "velocity": 69}, {"time": 1379, "pitch": 65, "duration": 1, "velocity": 68}, {"time": 1379, "pitch": 69, "duration": 2, "velocity": 68}, {"time": 1382, "pitch": 50, "duration": 8, "velocity": 57}, {"time": 1388, "pitch": 62, "duration": 1, "velocity": 78}, {"time": 1388, "pitch": 65, "duration": 1, "velocity": 85}, {"time": 1388, "pitch": 69, "duration": 1, "velocity": 78}, {"time": 1394, "pitch": 38, "duration": 11, "velocity": 71}, {"time": 1400, "pitch": 62, "duration": 1, "velocity": 74}, {"time": 1400, "pitch": 65, "duration": 1, "velocity": 73}, {"time": 1400, "pitch": 69, "duration": 1, "velocity": 63}, {"time": 1403, "pitch": 62, "duration": 1, "velocity": 64}, {"time": 1403, "pitch": 65, "duration": 1, "velocity": 69}, {"time": 1403, "pitch": 69, "duration": 1, "velocity": 66}, {"time": 1406, "pitch": 50, "duration": 8, "velocity": 71}, {"time": 1412, "pitch": 62, "duration": 2, "velocity": 82}, {"time": 1412, "pitch": 65, "duration": 1, "velocity": 82}, {"time": 1412, "pitch": 69, "duration": 1, "velocity": 72}, {"time": 1418, "pitch": 36, "duration": 8, "velocity": 74}, {"time": 1424, "pitch": 60, "duration": 1, "velocity": 68}, {"time": 1424, "pitch": 64, "duration": 1, "velocity": 78}, {"time": 1424, "pitch": 67, "duration": 1, "velocity": 69}, {"time": 1427, "pitch": 60, "duration": 1, "velocity": 67}, {"time": 1427, "pitch": 64, "duration": 1, "velocity": 69}, {"time": 1427, "pitch": 67, "duration": 1, "velocity": 71}, {"time": 1430, "pitch": 48, "duration": 9, "velocity": 64}, {"time": 1436, "pitch": 60, "duration": 1, "velocity": 89}, {"time": 1436, "pitch": 64, "duration": 1, "velocity": 88}, {"time": 1436, "pitch": 67, "duration": 1, "velocity": 83}, {"time": 1442, "pitch": 36, "duration": 10, "velocity": 72}, {"time": 1448, "pitch": 60, "duration": 1, "velocity": 88}, {"time": 1448, "pitch": 64, "duration": 1, "velocity": 90}, {"time": 1448, "pitch": 67, "duration": 1, "velocity": 88}, {"time": 1451, "pitch": 60, "duration": 2, "velocity": 71}, {"time": 1451, "pitch": 64, "duration": 1, "velocity": 75}, {"time": 1451, "pitch": 67, "duration": 2, "velocity": 69}, {"time": 1454, "pitch": 43, "duration": 8, "velocity": 85}, {"time": 1460, "pitch": 62, "duration": 1, "velocity": 78}, {"time": 1460, "pitch": 67, "duration": 1, "velocity": 85}, {"time": 1460, "pitch": 70, "duration": 1, "velocity": 96}, {"time": 1463, "pitch": 62, "duration": 2, "velocity": 70}, {"time": 1463, "pitch": 67, "duration": 2, "velocity": 79}, {"time": 1463, "pitch": 70, "duration": 2, "velocity": 79}, {"time": 1466, "pitch": 55, "duration": 9, "velocity": 79}, {"time": 1472, "pitch": 62, "duration": 1, "velocity": 77}, {"time": 1472, "pitch": 67, "duration": 1, "velocity": 89}, {"time": 1472, "pitch": 70, "duration": 1, "velocity": 79}, {"time": 1475, "pitch": 67, "duration": 1, "velocity": 53}, {"time": 1475, "pitch": 70, "duration": 1, "velocity": 50}, {"time": 1478, "pitch": 43, "duration": 10, "velocity": 75}, {"time": 1484, "pitch": 67, "duration": 1, "velocity": 85}, {"time": 1484, "pitch": 70, "duration": 1, "velocity": 81}, {"time": 1487, "pitch": 62, "duration": 2, "velocity": 54}, {"time": 1487, "pitch": 67, "duration": 2, "velocity": 72}, {"time": 1487, "pitch": 70, "duration": 2, "velocity": 72}, {"time": 1490, "pitch": 55, "duration": 5, "velocity": 78}, {"time": 1496, "pitch": 62, "duration": 2, "velocity": 88}, {"time": 1496, "pitch": 67, "duration": 1, "velocity": 89}, {"time": 1496, "pitch": 70, "duration": 1, "velocity": 74}, {"time": 1502, "pitch": 36, "duration": 8, "velocity": 81}, {"time": 1508, "pitch": 60, "duration": 1, "velocity": 77}, {"time": 1508, "pitch": 64, "duration": 1, "velocity": 89}, {"time": 1508, "pitch": 67, "duration": 1, "velocity": 81}, {"time": 1511, "pitch": 60, "duration": 2, "velocity": 65}, {"time": 1511, "pitch": 64, "duration": 2, "velocity": 70}, {"time": 1511, "pitch": 67, "duration": 2, "velocity": 70}, {"time": 1514, "pitch": 48, "duration": 9, "velocity": 85}, {"time": 1520, "pitch": 60, "duration": 2, "velocity": 83}, {"time": 1520, "pitch": 64, "duration": 1, "velocity": 83}, {"time": 1520, "pitch": 67, "duration": 1, "velocity": 77}, {"time": 1526, "pitch": 38, "duration": 8, "velocity": 85}, {"time": 1532, "pitch": 62, "duration": 1, "velocity": 75}, {"time": 1532, "pitch": 65, "duration": 1, "velocity": 92}, {"time": 1532, "pitch": 69, "duration": 1, "velocity": 69}, {"time": 1535, "pitch": 62, "duration": 1, "velocity": 66}, {"time": 1535, "pitch": 65, "duration": 1, "velocity": 76}, {"time": 1535, "pitch": 69, "duration": 1, "velocity": 69}, {"time": 1538, "pitch": 50, "duration": 9, "velocity": 74}, {"time": 1544, "pitch": 62, "duration": 1, "velocity": 75}, {"time": 1544, "pitch": 65, "duration": 1, "velocity": 86}, {"time": 1544, "pitch": 69, "duration": 1, "velocity": 77}, {"time": 1550, "pitch": 38, "duration": 8, "velocity": 76}, {"time": 1556, "pitch": 57, "duration": 1, "velocity": 89}, {"time": 1556, "pitch": 62, "duration": 1, "velocity": 93}, {"time": 1556, "pitch": 65, "duration": 1, "velocity": 79}, {"time": 1559, "pitch": 57, "duration": 1, "velocity": 58}, {"time": 1559, "pitch": 62, "duration": 2, "velocity": 75}, {"time": 1559, "pitch": 65, "duration": 2, "velocity": 72}, {"time": 1562, "pitch": 50, "duration": 8, "velocity": 75}, {"time": 1568, "pitch": 57, "duration": 1, "velocity": 82}, {"time": 1568, "pitch": 62, "duration": 1, "velocity": 95}, {"time": 1568, "pitch": 65, "duration": 1, "velocity": 86}, {"time": 1574, "pitch": 38, "duration": 8, "velocity": 79}, {"time": 1580, "pitch": 57, "duration": 1, "velocity": 59}, {"time": 1580, "pitch": 57, "duration": 1, "velocity": 93}, {"time": 1580, "pitch": 62, "duration": 1, "velocity": 79}, {"time": 1580, "pitch": 62, "duration": 1, "velocity": 100}, {"time": 1580, "pitch": 65, "duration": 1, "velocity": 77}, {"time": 1580, "pitch": 65, "duration": 1, "velocity": 93}, {"time": 1586, "pitch": 38, "duration": 5, "velocity": 67}, {"time": 1586, "pitch": 45, "duration": 5, "velocity": 86}, {"time": 1586, "pitch": 50, "duration": 5, "velocity": 92}, {"time": 1586, "pitch": 57, "duration": 5, "velocity": 90}, {"time": 1586, "pitch": 62, "duration": 5, "velocity": 107}, {"time": 1586, "pitch": 65, "duration": 5, "velocity": 99}, {"time": 1634, "pitch": 38, "duration": 9, "velocity": 88}, {"time": 1640, "pitch": 57, "duration": 1, "velocity": 78}, {"time": 1640, "pitch": 62, "duration": 1, "velocity": 88}, {"time": 1640, "pitch": 65, "duration": 1, "velocity": 76}, {"time": 1643, "pitch": 57, "duration": 1, "velocity": 63}, {"time": 1643, "pitch": 62, "duration": 1, "velocity": 69}, {"time": 1643, "pitch": 65, "duration": 1, "velocity": 77}, {"time": 1646, "pitch": 50, "duration": 9, "velocity": 58}, {"time": 1652, "pitch": 57, "duration": 1, "velocity": 72}, {"time": 1652, "pitch": 62, "duration": 1, "velocity": 77}, {"time": 1652, "pitch": 65, "duration": 1, "velocity": 74}, {"time": 1658, "pitch": 38, "duration": 12, "velocity": 47}, {"time": 1664, "pitch": 57, "duration": 1, "velocity": 66}, {"time": 1664, "pitch": 62, "duration": 1, "velocity": 92}, {"time": 1664, "pitch": 65, "duration": 1, "velocity": 73}, {"time": 1667, "pitch": 57, "duration": 1, "velocity": 53}, {"time": 1667, "pitch": 62, "duration": 2, "velocity": 71}, {"time": 1667, "pitch": 65, "duration": 2, "velocity": 70}, {"time": 1670, "pitch": 45, "duration": 9, "velocity": 63}, {"time": 1676, "pitch": 57, "duration": 1, "velocity": 78}, {"time": 1676, "pitch": 62, "duration": 1, "velocity": 88}, {"time": 1676, "pitch": 65, "duration": 2, "velocity": 86}, {"time": 1682, "pitch": 38, "duration": 7, "velocity": 71}, {"time": 1688, "pitch": 62, "duration": 1, "velocity": 85}, {"time": 1688, "pitch": 65, "duration": 1, "velocity": 72}, {"time": 1691, "pitch": 57, "duration": 1, "velocity": 55}, {"time": 1691, "pitch": 62, "duration": 2, "velocity": 73}, {"time": 1691, "pitch": 65, "duration": 1, "velocity": 67}, {"time": 1694, "pitch": 45, "duration": 10, "velocity": 52}, {"time": 1700, "pitch": 57, "duration": 1, "velocity": 74}, {"time": 1700, "pitch": 62, "duration": 1, "velocity": 86}, {"time": 1700, "pitch": 65, "duration": 1, "velocity": 77}, {"time": 1706, "pitch": 38, "duration": 12, "velocity": 48}, {"time": 1712, "pitch": 57, "duration": 1, "velocity": 78}, {"time": 1712, "pitch": 62, "duration": 1, "velocity": 90}, {"time": 1712, "pitch": 65, "duration": 1, "velocity": 78}, {"time": 1715, "pitch": 62, "duration": 2, "velocity": 66}, {"time": 1715, "pitch": 65, "duration": 2, "velocity": 62}, {"time": 1718, "pitch": 45, "duration": 7, "velocity": 95}, {"time": 1724, "pitch": 57, "duration": 1, "velocity": 74}, {"time": 1724, "pitch": 62, "duration": 2, "velocity": 89}, {"time": 1724, "pitch": 65, "duration": 2, "velocity": 79}, {"time": 1730, "pitch": 45, "duration": 12, "velocity": 61}, {"time": 1736, "pitch": 57, "duration": 1, "velocity": 76}, {"time": 1736, "pitch": 60, "duration": 1, "velocity": 88}, {"time": 1736, "pitch": 64, "duration": 1, "velocity": 79}, {"time": 1739, "pitch": 57, "duration": 1, "velocity": 64}, {"time": 1739, "pitch": 60, "duration": 1, "velocity": 79}, {"time": 1739, "pitch": 64, "duration": 1, "velocity": 72}, {"time": 1742, "pitch": 52, "duration": 10, "velocity": 69}, {"time": 1748, "pitch": 57, "duration": 1, "velocity": 82}, {"time": 1748, "pitch": 60, "duration": 1, "velocity": 93}, {"time": 1748, "pitch": 64, "duration": 1, "velocity": 89}, {"time": 1754, "pitch": 45, "duration": 12, "velocity": 69}, {"time": 1760, "pitch": 57, "duration": 1, "velocity": 76}, {"time": 1760, "pitch": 60, "duration": 1, "velocity": 89}, {"time": 1760, "pitch": 64, "duration": 1, "velocity": 78}, {"time": 1763, "pitch": 57, "duration": 1, "velocity": 59}, {"time": 1763, "pitch": 60, "duration": 1, "velocity": 72}, {"time": 1763, "pitch": 64, "duration": 2, "velocity": 74}, {"time": 1766, "pitch": 52, "duration": 10, "velocity": 74}, {"time": 1772, "pitch": 57, "duration": 2, "velocity": 85}, {"time": 1772, "pitch": 60, "duration": 2, "velocity": 90}, {"time": 1772, "pitch": 63, "duration": 1, "velocity": 71}, {"time": 1772, "pitch": 64, "duration": 2, "velocity": 86}, {"time": 1778, "pitch": 41, "duration": 12, "velocity": 75}, {"time": 1784, "pitch": 53, "duration": 1, "velocity": 75}, {"time": 1784, "pitch": 57, "duration": 1, "velocity": 86}, {"time": 1784, "pitch": 60, "duration": 1, "velocity": 78}, {"time": 1787, "pitch": 53, "duration": 1, "velocity": 64}, {"time": 1787, "pitch": 57, "duration": 2, "velocity": 74}, {"time": 1787, "pitch": 60, "duration": 1, "velocity": 74}, {"time": 1790, "pitch": 48, "duration": 9, "velocity": 75}, {"time": 1796, "pitch": 53, "duration": 1, "velocity": 86}, {"time": 1796, "pitch": 57, "duration": 1, "velocity": 95}, {"time": 1796, "pitch": 60, "duration": 1, "velocity": 89}, {"time": 1802, "pitch": 41, "duration": 14, "velocity": 59}, {"time": 1808, "pitch": 53, "duration": 1, "velocity": 79}, {"time": 1808, "pitch": 57, "duration": 1, "velocity": 92}, {"time": 1808, "pitch": 60, "duration": 1, "velocity": 82}, {"time": 1811, "pitch": 53, "duration": 2, "velocity": 59}, {"time": 1811, "pitch": 57, "duration": 2, "velocity": 65}, {"time": 1811, "pitch": 60, "duration": 2, "velocity": 69}, {"time": 1814, "pitch": 48, "duration": 10, "velocity": 82}, {"time": 1820, "pitch": 53, "duration": 1, "velocity": 83}, {"time": 1820, "pitch": 57, "duration": 1, "velocity": 95}, {"time": 1820, "pitch": 60, "duration": 1, "velocity": 83}, {"time": 1826, "pitch": 43, "duration": 13, "velocity": 64}, {"time": 1832, "pitch": 55, "duration": 1, "velocity": 79}, {"time": 1832, "pitch": 58, "duration": 1, "velocity": 100}, {"time": 1832, "pitch": 62, "duration": 1, "velocity": 82}, {"time": 1835, "pitch": 55, "duration": 1, "velocity": 59}, {"time": 1835, "pitch": 58, "duration": 1, "velocity": 64}, {"time": 1835, "pitch": 62, "duration": 2, "velocity": 69}, {"time": 1838, "pitch": 50, "duration": 9, "velocity": 78}, {"time": 1844, "pitch": 55, "duration": 1, "velocity": 79}, {"time": 1844, "pitch": 58, "duration": 1, "velocity": 97}, {"time": 1844, "pitch": 62, "duration": 2, "velocity": 88}, {"time": 1850, "pitch": 43, "duration": 13, "velocity": 59}, {"time": 1850, "pitch": 62, "duration": 1, "velocity": 43}, {"time": 1856, "pitch": 55, "duration": 1, "velocity": 97}, {"time": 1856, "pitch": 58, "duration": 1, "velocity": 122}, {"time": 1856, "pitch": 62, "duration": 1, "velocity": 92}, {"time": 1859, "pitch": 55, "duration": 2, "velocity": 58}, {"time": 1859, "pitch": 58, "duration": 2, "velocity": 73}, {"time": 1859, "pitch": 62, "duration": 2, "velocity": 69}, {"time": 1862, "pitch": 50, "duration": 11, "velocity": 90}, {"time": 1868, "pitch": 55, "duration": 2, "velocity": 82}, {"time": 1868, "pitch": 58, "duration": 2, "velocity": 96}, {"time": 1868, "pitch": 62, "duration": 3, "velocity": 85}, {"time": 1874, "pitch": 45, "duration": 4, "velocity": 96}, {"time": 1874, "pitch": 57, "duration": 4, "velocity": 92}, {"time": 1874, "pitch": 60, "duration": 4, "velocity": 97}, {"time": 1874, "pitch": 64, "duration": 4, "velocity": 99}, {"time": 1922, "pitch": 48, "duration": 5, "velocity": 112}, {"time": 1922, "pitch": 60, "duration": 5, "velocity": 112}, {"time": 1928, "pitch": 50, "duration": 3, "velocity": 112}, {"time": 1928, "pitch": 62, "duration": 3, "velocity": 112}, {"time": 1934, "pitch": 50, "duration": 4, "velocity": 127}, {"time": 1934, "pitch": 62, "duration": 4, "velocity": 127}, {"time": 1940, "pitch": 53, "duration": 8, "velocity": 127}, {"time": 1940, "pitch": 65, "duration": 8, "velocity": 127}, {"time": 1952, "pitch": 50, "duration": 13, "velocity": 100}, {"time": 1952, "pitch": 62, "duration": 13, "velocity": 100}, {"time": 1970, "pitch": 43, "duration": 5, "velocity": 102}, {"time": 1970, "pitch": 55, "duration": 5, "velocity": 102}, {"time": 1976, "pitch": 45, "duration": 4, "velocity": 112}, {"time": 1976, "pitch": 57, "duration": 4, "velocity": 112}, {"time": 1982, "pitch": 48, "duration": 3, "velocity": 117}, {"time": 1982, "pitch": 60, "duration": 3, "velocity": 117}, {"time": 1988, "pitch": 45, "duration": 4, "velocity": 100}, {"time": 1988, "pitch": 57, "duration": 4, "velocity": 100}, {"time": 1994, "pitch": 48, "duration": 5, "velocity": 122}, {"time": 1994, "pitch": 60, "duration": 5, "velocity": 122}, {"time": 2000, "pitch": 50, "duration": 4, "velocity": 122}, {"time": 2000, "pitch": 62, "duration": 4, "velocity": 122}, {"time": 2006, "pitch": 53, "duration": 3, "velocity": 122}, {"time": 2006, "pitch": 65, "duration": 3, "velocity": 122}, {"time": 2012, "pitch": 55, "duration": 10, "velocity": 127}, {"time": 2012, "pitch": 67, "duration": 10, "velocity": 127}, {"time": 2066, "pitch": 38, "duration": 9, "velocity": 88}, {"time": 2072, "pitch": 57, "duration": 1, "velocity": 78}, {"time": 2072, "pitch": 62, "duration": 1, "velocity": 88}, {"time": 2072, "pitch": 65, "duration": 1, "velocity": 76}, {"time": 2075, "pitch": 57, "duration": 1, "velocity": 63}, {"time": 2075, "pitch": 62, "duration": 1, "velocity": 69}, {"time": 2075, "pitch": 65, "duration": 1, "velocity": 77}, {"time": 2078, "pitch": 50, "duration": 9, "velocity": 58}, {"time": 2084, "pitch": 57, "duration": 1, "velocity": 72}, {"time": 2084, "pitch": 62, "duration": 1, "velocity": 77}, {"time": 2084, "pitch": 65, "duration": 1, "velocity": 74}, {"time": 2090, "pitch": 38, "duration": 12, "velocity": 47}, {"time": 2096, "pitch": 57, "duration": 1, "velocity": 66}, {"time": 2096, "pitch": 62, "duration": 1, "velocity": 92}, {"time": 2096, "pitch": 65, "duration": 1, "velocity": 73}, {"time": 2099, "pitch": 57, "duration": 1, "velocity": 53}, {"time": 2099, "pitch": 62, "duration": 2, "velocity": 71}, {"time": 2099, "pitch": 65, "duration": 2, "velocity": 70}, {"time": 2102, "pitch": 45, "duration": 9, "velocity": 63}, {"time": 2108, "pitch": 57, "duration": 1, "velocity": 78}, {"time": 2108, "pitch": 62, "duration": 1, "velocity": 88}, {"time": 2108, "pitch": 65, "duration": 2, "velocity": 86}, {"time": 2114, "pitch": 38, "duration": 7, "velocity": 71}, {"time": 2120, "pitch": 62, "duration": 1, "velocity": 85}, {"time": 2120, "pitch": 65, "duration": 1, "velocity": 72}, {"time": 2123, "pitch": 57, "duration": 1, "velocity": 55}, {"time": 2123, "pitch": 62, "duration": 2, "velocity": 73}, {"time": 2123, "pitch": 65, "duration": 1, "velocity": 67}, {"time": 2126, "pitch": 45, "duration": 10, "velocity": 52}, {"time": 2132, "pitch": 57, "duration": 1, "velocity": 74}, {"time": 2132, "pitch": 62, "duration": 1, "velocity": 86}, {"time": 2132, "pitch": 65, "duration": 1, "velocity": 77}, {"time": 2138, "pitch": 38, "duration": 12, "velocity": 48}, {"time": 2144, "pitch": 57, "duration": 1, "velocity": 78}, {"time": 2144, "pitch": 62, "duration": 1, "velocity": 90}, {"time": 2144, "pitch": 65, "duration": 1, "velocity": 78}, {"time": 2147, "pitch": 62, "duration": 2, "velocity": 66}, {"time": 2147, "pitch": 65, "duration": 2, "velocity": 62}, {"time": 2150, "pitch": 45, "duration": 7, "velocity": 95}, {"time": 2156, "pitch": 57, "duration": 1, "velocity": 74}, {"time": 2156, "pitch": 62, "duration": 2, "velocity": 89}, {"time": 2156, "pitch": 65, "duration": 2, "velocity": 79}, {"time": 2162, "pitch": 45, "duration": 12, "velocity": 61}, {"time": 2168, "pitch": 57, "duration": 1, "velocity": 76}, {"time": 2168, "pitch": 60, "duration": 1, "velocity": 88}, {"time": 2168, "pitch": 64, "duration": 1, "velocity": 79}, {"time": 2171, "pitch": 57, "duration": 1, "velocity": 64}, {"time": 2171, "pitch": 60, "duration": 1, "velocity": 79}, {"time": 2171, "pitch": 64, "duration": 1, "velocity": 72}, {"time": 2174, "pitch": 52, "duration": 10, "velocity": 69}, {"time": 2180, "pitch": 57, "duration": 1, "velocity": 82}, {"time": 2180, "pitch": 60, "duration": 1, "velocity": 93}, {"time": 2180, "pitch": 64, "duration": 1, "velocity": 89}, {"time": 2186, "pitch": 45, "duration": 12, "velocity": 69}, {"time": 2192, "pitch": 57, "duration": 1, "velocity": 76}, {"time": 2192, "pitch": 60, "duration": 1, "velocity": 89}, {"time": 2192, "pitch": 64, "duration": 1, "velocity": 78}, {"time": 2195, "pitch": 57, "duration": 1, "velocity": 59}, {"time": 2195, "pitch": 60, "duration": 1, "velocity": 72}, {"time": 2195, "pitch": 64, "duration": 2, "velocity": 74}, {"time": 2198, "pitch": 52, "duration": 10, "velocity": 74}, {"time": 2204, "pitch": 57, "duration": 2, "velocity": 85}, {"time": 2204, "pitch": 60, "duration": 2, "velocity": 90}, {"time": 2204, "pitch": 64, "duration": 2, "velocity": 86}, {"time": 2210, "pitch": 41, "duration": 12, "velocity": 75}, {"time": 2216, "pitch": 53, "duration": 1, "velocity": 75}, {"time": 2216, "pitch": 57, "duration": 1, "velocity": 86}, {"time": 2216, "pitch": 60, "duration": 1, "velocity": 78}, {"time": 2219, "pitch": 53, "duration": 1, "velocity": 64}, {"time": 2219, "pitch": 57, "duration": 2, "velocity": 74}, {"time": 2219, "pitch": 60, "duration": 1, "velocity": 74}, {"time": 2222, "pitch": 48, "duration": 9, "velocity": 75}, {"time": 2228, "pitch": 53, "duration": 1, "velocity": 86}, {"time": 2228, "pitch": 57, "duration": 1, "velocity": 95}, {"time": 2228, "pitch": 60, "duration": 1, "velocity": 89}, {"time": 2234, "pitch": 41, "duration": 14, "velocity": 59}, {"time": 2240, "pitch": 53, "duration": 1, "velocity": 79}, {"time": 2240, "pitch": 57, "duration": 1, "velocity": 92}, {"time": 2240, "pitch": 60, "duration": 1, "velocity": 82}, {"time": 2243, "pitch": 53, "duration": 2, "velocity": 59}, {"time": 2243, "pitch": 57, "duration": 2, "velocity": 65}, {"time": 2243, "pitch": 60, "duration": 2, "velocity": 69}, {"time": 2246, "pitch": 48, "duration": 10, "velocity": 82}, {"time": 2252, "pitch": 53, "duration": 1, "velocity": 83}, {"time": 2252, "pitch": 57, "duration": 1, "velocity": 95}, {"time": 2252, "pitch": 60, "duration": 1, "velocity": 83}, {"time": 2258, "pitch": 43, "duration": 13, "velocity": 64}, {"time": 2264, "pitch": 55, "duration": 1, "velocity": 79}, {"time": 2264, "pitch": 58, "duration": 1, "velocity": 100}, {"time": 2264, "pitch": 62, "duration": 1, "velocity": 82}, {"time": 2267, "pitch": 55, "duration": 1, "velocity": 59}, {"time": 2267, "pitch": 58, "duration": 1, "velocity": 64}, {"time": 2267, "pitch": 62, "duration": 2, "velocity": 69}, {"time": 2270, "pitch": 50, "duration": 9, "velocity": 78}, {"time": 2276, "pitch": 55, "duration": 1, "velocity": 79}, {"time": 2276, "pitch": 58, "duration": 1, "velocity": 97}, {"time": 2276, "pitch": 62, "duration": 2, "velocity": 88}, {"time": 2282, "pitch": 43, "duration": 13, "velocity": 59}, {"time": 2282, "pitch": 62, "duration": 1, "velocity": 43}, {"time": 2288, "pitch": 55, "duration": 1, "velocity": 97}, {"time": 2288, "pitch": 58, "duration": 1, "velocity": 122}, {"time": 2288, "pitch": 62, "duration": 1, "velocity": 92}, {"time": 2291, "pitch": 55, "duration": 2, "velocity": 58}, {"time": 2291, "pitch": 58, "duration": 2, "velocity": 73}, {"time": 2291, "pitch": 62, "duration": 2, "velocity": 69}, {"time": 2294, "pitch": 50, "duration": 11, "velocity": 90}, {"time": 2300, "pitch": 55, "duration": 2, "velocity": 82}, {"time": 2300, "pitch": 58, "duration": 2, "velocity": 96}, {"time": 2300, "pitch": 62, "duration": 3, "velocity": 85}, {"time": 2306, "pitch": 45, "duration": 4, "velocity": 96}, {"time": 2306, "pitch": 57, "duration": 4, "velocity": 92}, {"time": 2306, "pitch": 60, "duration": 4, "velocity": 97}, {"time": 2306, "pitch": 64, "duration": 4, "velocity": 99}, {"time": 2354, "pitch": 48, "duration": 5, "velocity": 112}, {"time": 2354, "pitch": 60, "duration": 5, "velocity": 112}, {"time": 2360, "pitch": 50, "duration": 3, "velocity": 112}, {"time": 2360, "pitch": 62, "duration": 3, "velocity": 112}, {"time": 2366, "pitch": 50, "duration": 4, "velocity": 127}, {"time": 2366, "pitch": 62, "duration": 4, "velocity": 127}, {"time": 2372, "pitch": 53, "duration": 8, "velocity": 127}, {"time": 2372, "pitch": 65, "duration": 8, "velocity": 127}, {"time": 2384, "pitch": 50, "duration": 13, "velocity": 100}, {"time": 2384, "pitch": 62, "duration": 13, "velocity": 100}, {"time": 2402, "pitch": 45, "duration": 4, "velocity": 107}, {"time": 2402, "pitch": 57, "duration": 4, "velocity": 107}, {"time": 2408, "pitch": 48, "duration": 3, "velocity": 107}, {"time": 2408, "pitch": 60, "duration": 3, "velocity": 107}, {"time": 2414, "pitch": 48, "duration": 5, "velocity": 112}, {"time": 2414, "pitch": 60, "duration": 5, "velocity": 112}, {"time": 2420, "pitch": 53, "duration": 4, "velocity": 107}, {"time": 2420, "pitch": 65, "duration": 4, "velocity": 107}, {"time": 2426, "pitch": 50, "duration": 3, "velocity": 127}, {"time": 2426, "pitch": 62, "duration": 3, "velocity": 127}, {"time": 2474, "pitch": 38, "duration": 9, "velocity": 88}, {"time": 2480, "pitch": 57, "duration": 1, "velocity": 78}, {"time": 2480, "pitch": 62, "duration": 1, "velocity": 88}, {"time": 2480, "pitch": 65, "duration": 1, "velocity": 76}, {"time": 2483, "pitch": 57, "duration": 1, "velocity": 63}, {"time": 2483, "pitch": 62, "duration": 1, "velocity": 69}, {"time": 2483, "pitch": 65, "duration": 1, "velocity": 77}, {"time": 2486, "pitch": 50, "duration": 9, "velocity": 58}, {"time": 2492, "pitch": 57, "duration": 1, "velocity": 72}, {"time": 2492, "pitch": 62, "duration": 1, "velocity": 77}, {"time": 2492, "pitch": 65, "duration": 1, "velocity": 74}, {"time": 2498, "pitch": 38, "duration": 12, "velocity": 47}, {"time": 2504, "pitch": 57, "duration": 1, "velocity": 66}, {"time": 2504, "pitch": 62, "duration": 1, "velocity": 92}, {"time": 2504, "pitch": 65, "duration": 1, "velocity": 73}, {"time": 2507, "pitch": 57, "duration": 1, "velocity": 53}, {"time": 2507, "pitch": 62, "duration": 2, "velocity": 71}, {"time": 2507, "pitch": 65, "duration": 2, "velocity": 70}, {"time": 2510, "pitch": 45, "duration": 9, "velocity": 63}, {"time": 2516, "pitch": 57, "duration": 1, "velocity": 78}, {"time": 2516, "pitch": 62, "duration": 1, "velocity": 88}, {"time": 2516, "pitch": 65, "duration": 2, "velocity": 86}, {"time": 2522, "pitch": 38, "duration": 7, "velocity": 71}, {"time": 2528, "pitch": 62, "duration": 1, "velocity": 85}, {"time": 2528, "pitch": 65, "duration": 1, "velocity": 72}, {"time": 2531, "pitch": 57, "duration": 1, "velocity": 55}, {"time": 2531, "pitch": 62, "duration": 2, "velocity": 73}, {"time": 2531, "pitch": 65, "duration": 1, "velocity": 67}, {"time": 2534, "pitch": 45, "duration": 10, "velocity": 52}, {"time": 2540, "pitch": 57, "duration": 1, "velocity": 74}, {"time": 2540, "pitch": 62, "duration": 1, "velocity": 86}, {"time": 2540, "pitch": 65, "duration": 1, "velocity": 77}, {"time": 2546, "pitch": 38, "duration": 12, "velocity": 48}, {"time": 2552, "pitch": 57, "duration": 1, "velocity": 78}, {"time": 2552, "pitch": 62, "duration": 1, "velocity": 90}, {"time": 2552, "pitch": 65, "duration": 1, "velocity": 78}, {"time": 2555, "pitch": 62, "duration": 2, "velocity": 66}, {"time": 2555, "pitch": 65, "duration": 2, "velocity": 62}, {"time": 2558, "pitch": 45, "duration": 7, "velocity": 95}, {"time": 2564, "pitch": 57, "duration": 1, "velocity": 74}, {"time": 2564, "pitch": 62, "duration": 2, "velocity": 89}, {"time": 2564, "pitch": 65, "duration": 2, "velocity": 79}, {"time": 2570, "pitch": 45, "duration": 12, "velocity": 61}, {"time": 2576, "pitch": 57, "duration": 1, "velocity": 76}, {"time": 2576, "pitch": 60, "duration": 1, "velocity": 88}, {"time": 2576, "pitch": 64, "duration": 1, "velocity": 79}, {"time": 2579, "pitch": 57, "duration": 1, "velocity": 64}, {"time": 2579, "pitch": 60, "duration": 1, "velocity": 79}, {"time": 2579, "pitch": 64, "duration": 1, "velocity": 72}, {"time": 2582, "pitch": 52, "duration": 10, "velocity": 69}, {"time": 2588, "pitch": 57, "duration": 1, "velocity": 82}, {"time": 2588, "pitch": 60, "duration": 1, "velocity": 93}, {"time": 2588, "pitch": 64, "duration": 1, "velocity": 89}, {"time": 2594, "pitch": 45, "duration": 12, "velocity": 69}, {"time": 2600, "pitch": 57, "duration": 1, "velocity": 76}, {"time": 2600, "pitch": 60, "duration": 1, "velocity": 89}, {"time": 2600, "pitch": 64, "duration": 1, "velocity": 78}, {"time": 2603, "pitch": 57, "duration": 1, "velocity": 59}, {"time": 2603, "pitch": 60, "duration": 1, "velocity": 72}, {"time": 2603, "pitch": 64, "duration": 2, "velocity": 74}, {"time": 2606, "pitch": 52, "duration": 10, "velocity": 74}, {"time": 2612, "pitch": 57, "duration": 2, "velocity": 85}, {"time": 2612, "pitch": 60, "duration": 2, "velocity": 90}, {"time": 2612, "pitch": 63, "duration": 1, "velocity": 71}, {"time": 2612, "pitch": 64, "duration": 2, "velocity": 86}, {"time": 2618, "pitch": 41, "duration": 12, "velocity": 75}, {"time": 2624, "pitch": 53, "duration": 1, "velocity": 75}, {"time": 2624, "pitch": 57, "duration": 1, "velocity": 86}, {"time": 2624, "pitch": 60, "duration": 1, "velocity": 78}, {"time": 2627, "pitch": 53, "duration": 1, "velocity": 64}, {"time": 2627, "pitch": 57, "duration": 2, "velocity": 74}, {"time": 2627, "pitch": 60, "duration": 1, "velocity": 74}, {"time": 2630, "pitch": 48, "duration": 9, "velocity": 75}, {"time": 2636, "pitch": 53, "duration": 1, "velocity": 86}, {"time": 2636, "pitch": 57, "duration": 1, "velocity": 95}, {"time": 2636, "pitch": 60, "duration": 1, "velocity": 89}, {"time": 2642, "pitch": 41, "duration": 14, "velocity": 59}, {"time": 2648, "pitch": 53, "duration": 1, "velocity": 79}, {"time": 2648, "pitch": 57, "duration": 1, "velocity": 92}, {"time": 2648, "pitch": 60, "duration": 1, "velocity": 82}, {"time": 2651, "pitch": 53, "duration": 2, "velocity": 59}, {"time": 2651, "pitch": 57, "duration": 2, "velocity": 65}, {"time": 2651, "pitch": 60, "duration": 2, "velocity": 69}, {"time": 2654, "pitch": 48, "duration": 10, "velocity": 82}, {"time": 2660, "pitch": 53, "duration": 1, "velocity": 83}, {"time": 2660, "pitch": 57, "duration": 1, "velocity": 95}, {"time": 2660, "pitch": 60, "duration": 1, "velocity": 83}, {"time": 2666, "pitch": 43, "duration": 13, "velocity": 64}, {"time": 2672, "pitch": 55, "duration": 1, "velocity": 79}, {"time": 2672, "pitch": 58, "duration": 1, "velocity": 100}, {"time": 2672, "pitch": 62, "duration": 1, "velocity": 82}, {"time": 2675, "pitch": 55, "duration": 1, "velocity": 59}, {"time": 2675, "pitch": 58, "duration": 1, "velocity": 64}, {"time": 2675, "pitch": 62, "duration": 2, "velocity": 69}, {"time": 2678, "pitch": 50, "duration": 9, "velocity": 78}, {"time": 2684, "pitch": 55, "duration": 1, "velocity": 79}, {"time": 2684, "pitch": 58, "duration": 1, "velocity": 97}, {"time": 2684, "pitch": 62, "duration": 2, "velocity": 88}, {"time": 2690, "pitch": 43, "duration": 13, "velocity": 59}, {"time": 2690, "pitch": 62, "duration": 1, "velocity": 43}, {"time": 2696, "pitch": 55, "duration": 1, "velocity": 97}, {"time": 2696, "pitch": 58, "duration": 1, "velocity": 122}, {"time": 2696, "pitch": 62, "duration": 1, "velocity": 92}, {"time": 2699, "pitch": 55, "duration": 2, "velocity": 58}, {"time": 2699, "pitch": 58, "duration": 2, "velocity": 73}, {"time": 2699, "pitch": 62, "duration": 2, "velocity": 69}, {"time": 2702, "pitch": 50, "duration": 11, "velocity": 90}, {"time": 2708, "pitch": 55, "duration": 2, "velocity": 82}, {"time": 2708, "pitch": 58, "duration": 2, "velocity": 96}, {"time": 2708, "pitch": 62, "duration": 3, "velocity": 85}, {"time": 2714, "pitch": 45, "duration": 4, "velocity": 96}, {"time": 2714, "pitch": 57, "duration": 4, "velocity": 92}, {"time": 2714, "pitch": 60, "duration": 4, "velocity": 97}, {"time": 2714, "pitch": 64, "duration": 4, "velocity": 99}, {"time": 2762, "pitch": 48, "duration": 5, "velocity": 112}, {"time": 2762, "pitch": 60, "duration": 5, "velocity": 112}, {"time": 2768, "pitch": 50, "duration": 3, "velocity": 112}, {"time": 2768, "pitch": 62, "duration": 3, "velocity": 112}, {"time": 2774, "pitch": 50, "duration": 4, "velocity": 127}, {"time": 2774, "pitch": 62, "duration": 4, "velocity": 127}, {"time": 2780, "pitch": 53, "duration": 8, "velocity": 127}, {"time": 2780, "pitch": 65, "duration": 8, "velocity": 127}, {"time": 2792, "pitch": 50, "duration": 13, "velocity": 100}, {"time": 2792, "pitch": 62, "duration": 13, "velocity": 100}, {"time": 2810, "pitch": 43, "duration": 5, "velocity": 102}, {"time": 2810, "pitch": 55, "duration": 5, "velocity": 102}, {"time": 2816, "pitch": 45, "duration": 4, "velocity": 112}, {"time": 2816, "pitch": 57, "duration": 4, "velocity": 112}, {"time": 2822, "pitch": 48, "duration": 3, "velocity": 117}, {"time": 2822, "pitch": 60, "duration": 3, "velocity": 117}, {"time": 2828, "pitch": 45, "duration": 4, "velocity": 100}, {"time": 2828, "pitch": 57, "duration": 4, "velocity": 100}, {"time": 2834, "pitch": 48, "duration": 5, "velocity": 122}, {"time": 2834, "pitch": 60, "duration": 5, "velocity": 122}, {"time": 2840, "pitch": 50, "duration": 4, "velocity": 122}, {"time": 2840, "pitch": 62, "duration": 4, "velocity": 122}, {"time": 2846, "pitch": 53, "duration": 3, "velocity": 122}, {"time": 2846, "pitch": 65, "duration": 3, "velocity": 122}, {"time": 2852, "pitch": 55, "duration": 10, "velocity": 127}, {"time": 2852, "pitch": 67, "duration": 10, "velocity": 127}, {"time": 2894, "pitch": 43, "duration": 9, "velocity": 76}, {"time": 2900, "pitch": 62, "duration": 1, "velocity": 61}, {"time": 2900, "pitch": 67, "duration": 1, "velocity": 83}, {"time": 2900, "pitch": 70, "duration": 1, "velocity": 78}, {"time": 2903, "pitch": 62, "duration": 1, "velocity": 59}, {"time": 2903, "pitch": 67, "duration": 2, "velocity": 75}, {"time": 2903, "pitch": 70, "duration": 2, "velocity": 75}, {"time": 2906, "pitch": 55, "duration": 8, "velocity": 73}, {"time": 2912, "pitch": 62, "duration": 1, "velocity": 81}, {"time": 2912, "pitch": 67, "duration": 1, "velocity": 88}, {"time": 2912, "pitch": 70, "duration": 1, "velocity": 81}, {"time": 2918, "pitch": 43, "duration": 15, "velocity": 75}, {"time": 2924, "pitch": 62, "duration": 1, "velocity": 73}, {"time": 2924, "pitch": 67, "duration": 1, "velocity": 83}, {"time": 2924, "pitch": 70, "duration": 1, "velocity": 90}, {"time": 2927, "pitch": 62, "duration": 1, "velocity": 58}, {"time": 2927, "pitch": 67, "duration": 2, "velocity": 78}, {"time": 2927, "pitch": 70, "duration": 2, "velocity": 82}, {"time": 2930, "pitch": 55, "duration": 3, "velocity": 89}, {"time": 2936, "pitch": 62, "duration": 2, "velocity": 81}, {"time": 2936, "pitch": 67, "duration": 1, "velocity": 66}, {"time": 2942, "pitch": 36, "duration": 6, "velocity": 71}, {"time": 2942, "pitch": 43, "duration": 5, "velocity": 78}, {"time": 2942, "pitch": 48, "duration": 5, "velocity": 97}, {"time": 2942, "pitch": 60, "duration": 5, "velocity": 99}, {"time": 2942, "pitch": 64, "duration": 5, "velocity": 69}, {"time": 2942, "pitch": 67, "duration": 5, "velocity": 73}, {"time": 2978, "pitch": 38, "duration": 7, "velocity": 85}, {"time": 2984, "pitch": 57, "duration": 1, "velocity": 77}, {"time": 2984, "pitch": 62, "duration": 1, "velocity": 93}, {"time": 2984, "pitch": 65, "duration": 1, "velocity": 83}, {"time": 2987, "pitch": 57, "duration": 2, "velocity": 58}, {"time": 2987, "pitch": 62, "duration": 1, "velocity": 79}, {"time": 2987, "pitch": 65, "duration": 2, "velocity": 73}, {"time": 2990, "pitch": 50, "duration": 8, "velocity": 82}, {"time": 2996, "pitch": 57, "duration": 1, "velocity": 81}, {"time": 2996, "pitch": 62, "duration": 1, "velocity": 99}, {"time": 2996, "pitch": 65, "duration": 1, "velocity": 89}, {"time": 3002, "pitch": 38, "duration": 8, "velocity": 72}, {"time": 3008, "pitch": 57, "duration": 1, "velocity": 89}, {"time": 3008, "pitch": 62, "duration": 1, "velocity": 97}, {"time": 3008, "pitch": 65, "duration": 1, "velocity": 86}, {"time": 3011, "pitch": 57, "duration": 2, "velocity": 56}, {"time": 3011, "pitch": 62, "duration": 1, "velocity": 76}, {"time": 3011, "pitch": 65, "duration": 2, "velocity": 70}, {"time": 3014, "pitch": 50, "duration": 7, "velocity": 79}, {"time": 3020, "pitch": 57, "duration": 1, "velocity": 81}, {"time": 3020, "pitch": 62, "duration": 1, "velocity": 97}, {"time": 3020, "pitch": 65, "duration": 1, "velocity": 89}, {"time": 3026, "pitch": 36, "duration": 9, "velocity": 71}, {"time": 3032, "pitch": 55, "duration": 1, "velocity": 82}, {"time": 3032, "pitch": 60, "duration": 1, "velocity": 95}, {"time": 3032, "pitch": 64, "duration": 1, "velocity": 85}, {"time": 3035, "pitch": 55, "duration": 2, "velocity": 59}, {"time": 3035, "pitch": 60, "duration": 1, "velocity": 75}, {"time": 3035, "pitch": 64, "duration": 2, "velocity": 75}, {"time": 3038, "pitch": 48, "duration": 10, "velocity": 72}, {"time": 3044, "pitch": 55, "duration": 1, "velocity": 77}, {"time": 3044, "pitch": 60, "duration": 1, "velocity": 89}, {"time": 3044, "pitch": 64, "duration": 1, "velocity": 85}, {"time": 3050, "pitch": 41, "duration": 8, "velocity": 72}, {"time": 3056, "pitch": 60, "duration": 1, "velocity": 85}, {"time": 3056, "pitch": 65, "duration": 1, "velocity": 92}, {"time": 3056, "pitch": 69, "duration": 1, "velocity": 81}, {"time": 3059, "pitch": 60, "duration": 2, "velocity": 56}, {"time": 3059, "pitch": 65, "duration": 2, "velocity": 60}, {"time": 3059, "pitch": 69, "duration": 2, "velocity": 71}, {"time": 3062, "pitch": 43, "duration": 8, "velocity": 75}, {"time": 3068, "pitch": 62, "duration": 1, "velocity": 76}, {"time": 3068, "pitch": 67, "duration": 1, "velocity": 90}, {"time": 3068, "pitch": 70, "duration": 1, "velocity": 92}, {"time": 3071, "pitch": 62, "duration": 2, "velocity": 69}, {"time": 3071, "pitch": 67, "duration": 2, "velocity": 74}, {"time": 3071, "pitch": 70, "duration": 2, "velocity": 71}, {"time": 3074, "pitch": 55, "duration": 8, "velocity": 79}, {"time": 3080, "pitch": 62, "duration": 1, "velocity": 82}, {"time": 3080, "pitch": 67, "duration": 1, "velocity": 93}, {"time": 3080, "pitch": 70, "duration": 1, "velocity": 95}, {"time": 3086, "pitch": 43, "duration": 9, "velocity": 66}, {"time": 3092, "pitch": 62, "duration": 1, "velocity": 81}, {"time": 3092, "pitch": 67, "duration": 1, "velocity": 88}, {"time": 3092, "pitch": 70, "duration": 1, "velocity": 89}, {"time": 3095, "pitch": 62, "duration": 1, "velocity": 68}, {"time": 3095, "pitch": 67, "duration": 2, "velocity": 79}, {"time": 3095, "pitch": 70, "duration": 2, "velocity": 79}, {"time": 3098, "pitch": 55, "duration": 8, "velocity": 76}, {"time": 3104, "pitch": 62, "duration": 1, "velocity": 86}, {"time": 3104, "pitch": 67, "duration": 1, "velocity": 100}, {"time": 3104, "pitch": 70, "duration": 1, "velocity": 86}, {"time": 3110, "pitch": 36, "duration": 7, "velocity": 71}, {"time": 3116, "pitch": 60, "duration": 1, "velocity": 82}, {"time": 3116, "pitch": 64, "duration": 1, "velocity": 89}, {"time": 3116, "pitch": 67, "duration": 1, "velocity": 79}, {"time": 3119, "pitch": 60, "duration": 2, "velocity": 63}, {"time": 3119, "pitch": 64, "duration": 1, "velocity": 76}, {"time": 3119, "pitch": 67, "duration": 2, "velocity": 72}, {"time": 3122, "pitch": 48, "duration": 9, "velocity": 77}, {"time": 3128, "pitch": 60, "duration": 1, "velocity": 88}, {"time": 3128, "pitch": 64, "duration": 1, "velocity": 93}, {"time": 3128, "pitch": 67, "duration": 1, "velocity": 86}, {"time": 3134, "pitch": 41, "duration": 8, "velocity": 81}, {"time": 3140, "pitch": 60, "duration": 1, "velocity": 99}, {"time": 3140, "pitch": 65, "duration": 1, "velocity": 100}, {"time": 3140, "pitch": 69, "duration": 1, "velocity": 96}, {"time": 3146, "pitch": 38, "duration": 8, "velocity": 83}, {"time": 3152, "pitch": 57, "duration": 1, "velocity": 76}, {"time": 3152, "pitch": 62, "duration": 1, "velocity": 86}, {"time": 3152, "pitch": 65, "duration": 1, "velocity": 82}, {"time": 3155, "pitch": 57, "duration": 2, "velocity": 44}, {"time": 3155, "pitch": 62, "duration": 2, "velocity": 69}, {"time": 3155, "pitch": 65, "duration": 2, "velocity": 62}, {"time": 3158, "pitch": 50, "duration": 8, "velocity": 71}, {"time": 3164, "pitch": 57, "duration": 1, "velocity": 85}, {"time": 3164, "pitch": 62, "duration": 1, "velocity": 92}, {"time": 3164, "pitch": 65, "duration": 1, "velocity": 83}, {"time": 3170, "pitch": 38, "duration": 10, "velocity": 59}, {"time": 3176, "pitch": 57, "duration": 1, "velocity": 86}, {"time": 3176, "pitch": 62, "duration": 1, "velocity": 96}, {"time": 3176, "pitch": 65, "duration": 1, "velocity": 86}, {"time": 3179, "pitch": 57, "duration": 1, "velocity": 50}, {"time": 3179, "pitch": 62, "duration": 1, "velocity": 73}, {"time": 3179, "pitch": 65, "duration": 2, "velocity": 72}, {"time": 3182, "pitch": 50, "duration": 9, "velocity": 69}, {"time": 3188, "pitch": 57, "duration": 1, "velocity": 86}, {"time": 3188, "pitch": 62, "duration": 1, "velocity": 99}, {"time": 3188, "pitch": 65, "duration": 1, "velocity": 89}, {"time": 3194, "pitch": 38, "duration": 7, "velocity": 79}, {"time": 3200, "pitch": 57, "duration": 1, "velocity": 82}, {"time": 3200, "pitch": 62, "duration": 1, "velocity": 97}, {"time": 3200, "pitch": 65, "duration": 1, "velocity": 82}, {"time": 3203, "pitch": 57, "duration": 3, "velocity": 57}, {"time": 3203, "pitch": 62, "duration": 3, "velocity": 63}, {"time": 3203, "pitch": 65, "duration": 3, "velocity": 66}, {"time": 3206, "pitch": 50, "duration": 8, "velocity": 92}, {"time": 3212, "pitch": 57, "duration": 1, "velocity": 79}, {"time": 3212, "pitch": 62, "duration": 1, "velocity": 86}, {"time": 3212, "pitch": 65, "duration": 1, "velocity": 77}, {"time": 3218, "pitch": 41, "duration": 8, "velocity": 82}, {"time": 3224, "pitch": 60, "duration": 2, "velocity": 92}, {"time": 3224, "pitch": 65, "duration": 2, "velocity": 102}, {"time": 3224, "pitch": 69, "duration": 1, "velocity": 93}, {"time": 3230, "pitch": 43, "duration": 10, "velocity": 82}, {"time": 3236, "pitch": 55, "duration": 1, "velocity": 79}, {"time": 3236, "pitch": 58, "duration": 1, "velocity": 100}, {"time": 3236, "pitch": 62, "duration": 1, "velocity": 66}, {"time": 3239, "pitch": 55, "duration": 1, "velocity": 58}, {"time": 3239, "pitch": 58, "duration": 1, "velocity": 79}, {"time": 3239, "pitch": 62, "duration": 1, "velocity": 69}, {"time": 3242, "pitch": 50, "duration": 8, "velocity": 75}, {"time": 3248, "pitch": 62, "duration": 1, "velocity": 76}, {"time": 3248, "pitch": 67, "duration": 1, "velocity": 88}, {"time": 3248, "pitch": 70, "duration": 1, "velocity": 88}, {"time": 3254, "pitch": 43, "duration": 8, "velocity": 73}, {"time": 3260, "pitch": 62, "duration": 1, "velocity": 74}, {"time": 3260, "pitch": 67, "duration": 1, "velocity": 89}, {"time": 3260, "pitch": 70, "duration": 1, "velocity": 89}, {"time": 3263, "pitch": 62, "duration": 2, "velocity": 62}, {"time": 3263, "pitch": 67, "duration": 2, "velocity": 82}, {"time": 3263, "pitch": 70, "duration": 2, "velocity": 88}, {"time": 3266, "pitch": 55, "duration": 8, "velocity": 90}, {"time": 3272, "pitch": 62, "duration": 2, "velocity": 81}, {"time": 3272, "pitch": 67, "duration": 2, "velocity": 90}, {"time": 3272, "pitch": 70, "duration": 2, "velocity": 89}, {"time": 3278, "pitch": 36, "duration": 7, "velocity": 85}, {"time": 3284, "pitch": 55, "duration": 1, "velocity": 71}, {"time": 3284, "pitch": 60, "duration": 1, "velocity": 88}, {"time": 3284, "pitch": 64, "duration": 1, "velocity": 78}, {"time": 3287, "pitch": 55, "duration": 1, "velocity": 56}, {"time": 3287, "pitch": 60, "duration": 2, "velocity": 75}, {"time": 3287, "pitch": 64, "duration": 2, "velocity": 72}, {"time": 3290, "pitch": 48, "duration": 9, "velocity": 79}, {"time": 3296, "pitch": 55, "duration": 1, "velocity": 70}, {"time": 3296, "pitch": 60, "duration": 1, "velocity": 82}, {"time": 3296, "pitch": 64, "duration": 2, "velocity": 76}, {"time": 3302, "pitch": 36, "duration": 9, "velocity": 78}, {"time": 3308, "pitch": 55, "duration": 1, "velocity": 79}, {"time": 3308, "pitch": 60, "duration": 1, "velocity": 96}, {"time": 3308, "pitch": 64, "duration": 1, "velocity": 86}, {"time": 3314, "pitch": 48, "duration": 9, "velocity": 61}, {"time": 3320, "pitch": 55, "duration": 2, "velocity": 79}, {"time": 3320, "pitch": 60, "duration": 1, "velocity": 85}, {"time": 3320, "pitch": 64, "duration": 2, "velocity": 77}, {"time": 3326, "pitch": 38, "duration": 8, "velocity": 78}, {"time": 3332, "pitch": 57, "duration": 1, "velocity": 73}, {"time": 3332, "pitch": 62, "duration": 1, "velocity": 79}, {"time": 3332, "pitch": 65, "duration": 1, "velocity": 67}, {"time": 3335, "pitch": 57, "duration": 1, "velocity": 68}, {"time": 3335, "pitch": 62, "duration": 2, "velocity": 75}, {"time": 3335, "pitch": 65, "duration": 2, "velocity": 73}, {"time": 3338, "pitch": 50, "duration": 8, "velocity": 88}, {"time": 3344, "pitch": 57, "duration": 1, "velocity": 88}, {"time": 3344, "pitch": 62, "duration": 1, "velocity": 97}, {"time": 3344, "pitch": 65, "duration": 1, "velocity": 86}, {"time": 3350, "pitch": 38, "duration": 9, "velocity": 76}, {"time": 3356, "pitch": 57, "duration": 1, "velocity": 88}, {"time": 3356, "pitch": 62, "duration": 1, "velocity": 97}, {"time": 3356, "pitch": 65, "duration": 1, "velocity": 89}, {"time": 3359, "pitch": 57, "duration": 1, "velocity": 66}, {"time": 3359, "pitch": 62, "duration": 1, "velocity": 76}, {"time": 3359, "pitch": 65, "duration": 2, "velocity": 72}, {"time": 3362, "pitch": 36, "duration": 8, "velocity": 88}, {"time": 3368, "pitch": 55, "duration": 1, "velocity": 93}, {"time": 3368, "pitch": 60, "duration": 1, "velocity": 102}, {"time": 3368, "pitch": 64, "duration": 1, "velocity": 96}, {"time": 3374, "pitch": 48, "duration": 8, "velocity": 77}, {"time": 3380, "pitch": 55, "duration": 1, "velocity": 90}, {"time": 3380, "pitch": 60, "duration": 1, "velocity": 97}, {"time": 3380, "pitch": 64, "duration": 1, "velocity": 86}, {"time": 3386, "pitch": 36, "duration": 7, "velocity": 69}, {"time": 3392, "pitch": 55, "duration": 1, "velocity": 78}, {"time": 3392, "pitch": 60, "duration": 1, "velocity": 95}, {"time": 3392, "pitch": 64, "duration": 1, "velocity": 88}, {"time": 3398, "pitch": 43, "duration": 11, "velocity": 86}, {"time": 3404, "pitch": 55, "duration": 1, "velocity": 85}, {"time": 3404, "pitch": 58, "duration": 1, "velocity": 107}, {"time": 3404, "pitch": 62, "duration": 1, "velocity": 78}, {"time": 3407, "pitch": 55, "duration": 1, "velocity": 65}, {"time": 3407, "pitch": 58, "duration": 1, "velocity": 86}, {"time": 3407, "pitch": 62, "duration": 1, "velocity": 76}, {"time": 3410, "pitch": 50, "duration": 8, "velocity": 86}, {"time": 3416, "pitch": 62, "duration": 1, "velocity": 90}, {"time": 3416, "pitch": 67, "duration": 1, "velocity": 99}, {"time": 3416, "pitch": 70, "duration": 1, "velocity": 100}, {"time": 3422, "pitch": 43, "duration": 10, "velocity": 70}, {"time": 3428, "pitch": 62, "duration": 1, "velocity": 76}, {"time": 3428, "pitch": 67, "duration": 1, "velocity": 89}, {"time": 3428, "pitch": 70, "duration": 1, "velocity": 90}, {"time": 3431, "pitch": 55, "duration": 4, "velocity": 75}, {"time": 3431, "pitch": 62, "duration": 1, "velocity": 63}, {"time": 3431, "pitch": 67, "duration": 1, "velocity": 89}, {"time": 3431, "pitch": 70, "duration": 1, "velocity": 89}, {"time": 3434, "pitch": 50, "duration": 6, "velocity": 34}, {"time": 3440, "pitch": 62, "duration": 1, "velocity": 83}, {"time": 3440, "pitch": 67, "duration": 1, "velocity": 97}, {"time": 3440, "pitch": 70, "duration": 1, "velocity": 95}, {"time": 3446, "pitch": 36, "duration": 8, "velocity": 88}, {"time": 3452, "pitch": 55, "duration": 1, "velocity": 82}, {"time": 3452, "pitch": 60, "duration": 1, "velocity": 88}, {"time": 3452, "pitch": 64, "duration": 1, "velocity": 78}, {"time": 3455, "pitch": 55, "duration": 2, "velocity": 60}, {"time": 3455, "pitch": 60, "duration": 2, "velocity": 68}, {"time": 3455, "pitch": 64, "duration": 2, "velocity": 71}, {"time": 3458, "pitch": 48, "duration": 7, "velocity": 88}, {"time": 3464, "pitch": 55, "duration": 1, "velocity": 82}, {"time": 3464, "pitch": 60, "duration": 1, "velocity": 92}, {"time": 3464, "pitch": 64, "duration": 1, "velocity": 83}, {"time": 3470, "pitch": 41, "duration": 8, "velocity": 90}, {"time": 3476, "pitch": 60, "duration": 1, "velocity": 85}, {"time": 3476, "pitch": 65, "duration": 1, "velocity": 90}, {"time": 3476, "pitch": 69, "duration": 1, "velocity": 82}, {"time": 3482, "pitch": 38, "duration": 7, "velocity": 76}, {"time": 3488, "pitch": 57, "duration": 1, "velocity": 76}, {"time": 3488, "pitch": 62, "duration": 1, "velocity": 89}, {"time": 3488, "pitch": 65, "duration": 1, "velocity": 75}, {"time": 3491, "pitch": 57, "duration": 2, "velocity": 58}, {"time": 3491, "pitch": 62, "duration": 2, "velocity": 68}, {"time": 3491, "pitch": 65, "duration": 2, "velocity": 64}, {"time": 3494, "pitch": 50, "duration": 8, "velocity": 67}, {"time": 3500, "pitch": 57, "duration": 1, "velocity": 88}, {"time": 3500, "pitch": 62, "duration": 1, "velocity": 97}, {"time": 3500, "pitch": 65, "duration": 1, "velocity": 88}, {"time": 3506, "pitch": 38, "duration": 8, "velocity": 59}, {"time": 3512, "pitch": 57, "duration": 1, "velocity": 83}, {"time": 3512, "pitch": 62, "duration": 1, "velocity": 93}, {"time": 3512, "pitch": 65, "duration": 1, "velocity": 78}, {"time": 3515, "pitch": 57, "duration": 1, "velocity": 51}, {"time": 3515, "pitch": 62, "duration": 1, "velocity": 76}, {"time": 3515, "pitch": 65, "duration": 1, "velocity": 72}, {"time": 3518, "pitch": 50, "duration": 8, "velocity": 73}, {"time": 3524, "pitch": 57, "duration": 1, "velocity": 83}, {"time": 3524, "pitch": 62, "duration": 1, "velocity": 100}, {"time": 3524, "pitch": 65, "duration": 1, "velocity": 89}, {"time": 3530, "pitch": 36, "duration": 7, "velocity": 69}, {"time": 3536, "pitch": 55, "duration": 1, "velocity": 74}, {"time": 3536, "pitch": 60, "duration": 1, "velocity": 86}, {"time": 3536, "pitch": 64, "duration": 1, "velocity": 74}, {"time": 3539, "pitch": 55, "duration": 2, "velocity": 69}, {"time": 3539, "pitch": 60, "duration": 2, "velocity": 78}, {"time": 3539, "pitch": 64, "duration": 2, "velocity": 77}, {"time": 3542, "pitch": 48, "duration": 8, "velocity": 72}, {"time": 3548, "pitch": 55, "duration": 1, "velocity": 75}, {"time": 3548, "pitch": 60, "duration": 1, "velocity": 95}, {"time": 3548, "pitch": 64, "duration": 1, "velocity": 89}, {"time": 3554, "pitch": 41, "duration": 6, "velocity": 81}, {"time": 3560, "pitch": 60, "duration": 1, "velocity": 92}, {"time": 3560, "pitch": 65, "duration": 1, "velocity": 99}, {"time": 3560, "pitch": 69, "duration": 1, "velocity": 92}, {"time": 3566, "pitch": 43, "duration": 8, "velocity": 77}, {"time": 3572, "pitch": 62, "duration": 1, "velocity": 79}, {"time": 3572, "pitch": 67, "duration": 1, "velocity": 93}, {"time": 3572, "pitch": 70, "duration": 1, "velocity": 92}, {"time": 3575, "pitch": 62, "duration": 2, "velocity": 63}, {"time": 3575, "pitch": 67, "duration": 2, "velocity": 69}, {"time": 3575, "pitch": 70, "duration": 2, "velocity": 66}, {"time": 3578, "pitch": 55, "duration": 8, "velocity": 77}, {"time": 3584, "pitch": 62, "duration": 1, "velocity": 78}, {"time": 3584, "pitch": 67, "duration": 1, "velocity": 88}, {"time": 3584, "pitch": 70, "duration": 2, "velocity": 85}, {"time": 3590, "pitch": 43, "duration": 9, "velocity": 79}, {"time": 3596, "pitch": 62, "duration": 1, "velocity": 72}, {"time": 3596, "pitch": 67, "duration": 1, "velocity": 90}, {"time": 3596, "pitch": 70, "duration": 1, "velocity": 86}, {"time": 3599, "pitch": 62, "duration": 2, "velocity": 71}, {"time": 3599, "pitch": 67, "duration": 2, "velocity": 82}, {"time": 3599, "pitch": 70, "duration": 2, "velocity": 78}, {"time": 3602, "pitch": 55, "duration": 8, "velocity": 79}, {"time": 3608, "pitch": 62, "duration": 1, "velocity": 79}, {"time": 3608, "pitch": 67, "duration": 1, "velocity": 92}, {"time": 3608, "pitch": 70, "duration": 1, "velocity": 86}, {"time": 3614, "pitch": 36, "duration": 7, "velocity": 72}, {"time": 3620, "pitch": 55, "duration": 1, "velocity": 77}, {"time": 3620, "pitch": 60, "duration": 1, "velocity": 82}, {"time": 3620, "pitch": 64, "duration": 1, "velocity": 71}, {"time": 3623, "pitch": 55, "duration": 2, "velocity": 56}, {"time": 3623, "pitch": 60, "duration": 1, "velocity": 75}, {"time": 3623, "pitch": 64, "duration": 2, "velocity": 69}, {"time": 3626, "pitch": 48, "duration": 8, "velocity": 74}, {"time": 3632, "pitch": 55, "duration": 1, "velocity": 86}, {"time": 3632, "pitch": 60, "duration": 1, "velocity": 89}, {"time": 3632, "pitch": 64, "duration": 1, "velocity": 78}, {"time": 3638, "pitch": 41, "duration": 5, "velocity": 77}, {"time": 3644, "pitch": 60, "duration": 1, "velocity": 82}, {"time": 3644, "pitch": 65, "duration": 1, "velocity": 86}, {"time": 3644, "pitch": 69, "duration": 1, "velocity": 76}, {"time": 3650, "pitch": 38, "duration": 8, "velocity": 60}, {"time": 3656, "pitch": 57, "duration": 1, "velocity": 59}, {"time": 3656, "pitch": 62, "duration": 1, "velocity": 72}, {"time": 3656, "pitch": 62, "duration": 1, "velocity": 76}, {"time": 3656, "pitch": 65, "duration": 1, "velocity": 61}, {"time": 3656, "pitch": 65, "duration": 1, "velocity": 69}, {"time": 3659, "pitch": 57, "duration": 1, "velocity": 55}, {"time": 3662, "pitch": 50, "duration": 8, "velocity": 83}, {"time": 3668, "pitch": 57, "duration": 1, "velocity": 81}, {"time": 3668, "pitch": 62, "duration": 1, "velocity": 89}, {"time": 3668, "pitch": 65, "duration": 1, "velocity": 79}, {"time": 3674, "pitch": 38, "duration": 8, "velocity": 66}, {"time": 3680, "pitch": 57, "duration": 1, "velocity": 75}, {"time": 3680, "pitch": 62, "duration": 1, "velocity": 81}, {"time": 3680, "pitch": 65, "duration": 1, "velocity": 72}, {"time": 3683, "pitch": 57, "duration": 2, "velocity": 60}, {"time": 3683, "pitch": 62, "duration": 2, "velocity": 73}, {"time": 3683, "pitch": 65, "duration": 2, "velocity": 72}, {"time": 3686, "pitch": 50, "duration": 8, "velocity": 65}, {"time": 3692, "pitch": 57, "duration": 1, "velocity": 79}, {"time": 3692, "pitch": 62, "duration": 1, "velocity": 90}, {"time": 3692, "pitch": 65, "duration": 1, "velocity": 82}, {"time": 3698, "pitch": 36, "duration": 8, "velocity": 74}, {"time": 3704, "pitch": 60, "duration": 1, "velocity": 68}, {"time": 3704, "pitch": 64, "duration": 1, "velocity": 61}, {"time": 3704, "pitch": 67, "duration": 1, "velocity": 55}, {"time": 3710, "pitch": 48, "duration": 7, "velocity": 69}, {"time": 3716, "pitch": 60, "duration": 1, "velocity": 79}, {"time": 3716, "pitch": 64, "duration": 1, "velocity": 76}, {"time": 3716, "pitch": 67, "duration": 1, "velocity": 70}, {"time": 3722, "pitch": 41, "duration": 7, "velocity": 58}, {"time": 3728, "pitch": 60, "duration": 1, "velocity": 77}, {"time": 3728, "pitch": 65, "duration": 1, "velocity": 77}, {"time": 3728, "pitch": 69, "duration": 1, "velocity": 72}, {"time": 3731, "pitch": 60, "duration": 2, "velocity": 63}, {"time": 3731, "pitch": 65, "duration": 1, "velocity": 66}, {"time": 3731, "pitch": 69, "duration": 1, "velocity": 66}, {"time": 3734, "pitch": 43, "duration": 8, "velocity": 82}, {"time": 3740, "pitch": 55, "duration": 1, "velocity": 66}, {"time": 3740, "pitch": 58, "duration": 1, "velocity": 81}, {"time": 3740, "pitch": 62, "duration": 1, "velocity": 72}, {"time": 3743, "pitch": 55, "duration": 1, "velocity": 62}, {"time": 3743, "pitch": 58, "duration": 1, "velocity": 72}, {"time": 3743, "pitch": 62, "duration": 1, "velocity": 72}, {"time": 3746, "pitch": 50, "duration": 7, "velocity": 48}, {"time": 3752, "pitch": 55, "duration": 1, "velocity": 63}, {"time": 3752, "pitch": 58, "duration": 1, "velocity": 66}, {"time": 3752, "pitch": 62, "duration": 1, "velocity": 67}, {"time": 3758, "pitch": 43, "duration": 8, "velocity": 53}, {"time": 3764, "pitch": 55, "duration": 1, "velocity": 51}, {"time": 3764, "pitch": 58, "duration": 1, "velocity": 72}, {"time": 3767, "pitch": 55, "duration": 1, "velocity": 57}, {"time": 3767, "pitch": 58, "duration": 2, "velocity": 74}, {"time": 3767, "pitch": 62, "duration": 2, "velocity": 73}, {"time": 3770, "pitch": 50, "duration": 7, "velocity": 38}, {"time": 3776, "pitch": 55, "duration": 1, "velocity": 65}, {"time": 3776, "pitch": 58, "duration": 1, "velocity": 79}, {"time": 3776, "pitch": 62, "duration": 1, "velocity": 72}, {"time": 3782, "pitch": 36, "duration": 8, "velocity": 66}, {"time": 3788, "pitch": 55, "duration": 1, "velocity": 56}, {"time": 3788, "pitch": 60, "duration": 1, "velocity": 73}, {"time": 3788, "pitch": 64, "duration": 1, "velocity": 66}, {"time": 3791, "pitch": 60, "duration": 1, "velocity": 67}, {"time": 3791, "pitch": 64, "duration": 1, "velocity": 67}, {"time": 3794, "pitch": 48, "duration": 3, "velocity": 67}], "annotations": [{"time": 51, "annotation": {"number": 64, "value": 127}, "group": "control_change"}, {"time": 57, "annotation": {"number": 64, "value": 0}, "group": "control_change"}, {"time": 62, "annotation": {"number": 64, "value": 127}, "group": "control_change"}, {"time": 63, "annotation": {"number": 64, "value": 0}, "group": "control_change"}, {"time": 74, "annotation": {"number": 64, "value": 127}, "group": "control_change"}, {"time": 81, "annotation": {"number": 64, "value": 0}, "group": "control_change"}, {"time": 86, "annotation": {"number": 64, "value": 127}, "group": "control_change"}, {"time": 92, "annotation": {"number": 64, "value": 0}, "group": "control_change"}, {"time": 98, "annotation": {"number": 64, "value": 127}, "group": "control_change"}, {"time": 103, "annotation": {"number": 64, "value": 0}, "group": "control_change"}, {"time": 110, "annotation": {"number": 64, "value": 127}, "group": "control_change"}, {"time": 117, "annotation": {"number": 64, "value": 0}, "group": "control_change"}, {"time": 122, "annotation": {"number": 64, "value": 127}, "group": "control_change"}, {"time": 129, "annotation": {"number": 64, "value": 0}, "group": "control_change"}, {"time": 134, "annotation": {"number": 64, "value": 127}, "group": "control_change"}, {"time": 139, "annotation": {"number": 64, "value": 0}, "group": "control_change"}, {"time": 146, "annotation": {"number": 64, "value": 127}, "group": "control_change"}, {"time": 153, "annotation": {"number": 64, "value": 0}, "group": "control_change"}, {"time": 159, "annotation": {"number": 64, "value": 127}, "group": "control_change"}, {"time": 160, "annotation": {"number": 64, "value": 0}, "group": "control_change"}, {"time": 170, "annotation": {"number": 64, "value": 127}, "group": "control_change"}, {"time": 177, "annotation": {"number": 64, "value": 0}, "group": "control_change"}, {"time": 182, "annotation": {"number": 64, "value": 127}, "group": "control_change"}, {"time": 188, "annotation": {"number": 64, "value": 0}, "group": "control_change"}, {"time": 194, "annotation": {"number": 64, "value": 127}, "group": "control_change"}, {"time": 201, "annotation": {"number": 64, "value": 0}, "group": "control_change"}, {"time": 206, "annotation": {"number": 64, "value": 127}, "group": "control_change"}, {"time": 211, "annotation": {"number": 64, "value": 0}, "group": "control_change"}, {"time": 218, "annotation": {"number": 64, "value": 127}, "group": "control_change"}, {"time": 224, "annotation": {"number": 64, "value": 0}, "group": "control_change"}, {"time": 229, "annotation": {"number": 64, "value": 127}, "group": "control_change"}, {"time": 238, "annotation": {"number": 64, "value": 0}, "group": "control_change"}, {"time": 1635, "annotation": {"number": 64, "value": 127}, "group": "control_change"}, {"time": 1641, "annotation": {"number": 64, "value": 0}, "group": "control_change"}, {"time": 1646, "annotation": {"number": 64, "value": 127}, "group": "control_change"}, {"time": 1647, "annotation": {"number": 64, "value": 0}, "group": "control_change"}, {"time": 1658, "annotation": {"number": 64, "value": 127}, "group": "control_change"}, {"time": 1665, "annotation": {"number": 64, "value": 0}, "group": "control_change"}, {"time": 1670, "annotation": {"number": 64, "value": 127}, "group": "control_change"}, {"time": 1676, "annotation": {"number": 64, "value": 0}, "group": "control_change"}, {"time": 1682, "annotation": {"number": 64, "value": 127}, "group": "control_change"}, {"time": 1687, "annotation": {"number": 64, "value": 0}, "group": "control_change"}, {"time": 1694, "annotation": {"number": 64, "value": 127}, "group": "control_change"}, {"time": 1701, "annotation": {"number": 64, "value": 0}, "group": "control_change"}, {"time": 1706, "annotation": {"number": 64, "value": 127}, "group": "control_change"}, {"time": 1713, "annotation": {"number": 64, "value": 0}, "group": "control_change"}, {"time": 1718, "annotation": {"number": 64, "value": 127}, "group": "control_change"}, {"time": 1723, "annotation": {"number": 64, "value": 0}, "group": "control_change"}, {"time": 1730, "annotation": {"number": 64, "value": 127}, "group": "control_change"}, {"time": 1737, "annotation": {"number": 64, "value": 0}, "group": "control_change"}, {"time": 1743, "annotation": {"number": 64, "value": 127}, "group": "control_change"}, {"time": 1744, "annotation": {"number": 64, "value": 0}, "group": "control_change"}, {"time": 1754, "annotation": {"number": 64, "value": 127}, "group": "control_change"}, {"time": 1761, "annotation": {"number": 64, "value": 0}, "group": "control_change"}, {"time": 1766, "annotation": {"number": 64, "value": 127}, "group": "control_change"}, {"time": 1772, "annotation": {"number": 64, "value": 0}, "group": "control_change"}, {"time": 1778, "annotation": {"number": 64, "value": 127}, "group": "control_change"}, {"time": 1785, "annotation": {"number": 64, "value": 0}, "group": "control_change"}, {"time": 1790, "annotation": {"number": 64, "value": 127}, "group": "control_change"}, {"time": 1795, "annotation": {"number": 64, "value": 0}, "group": "control_change"}, {"time": 1802, "annotation": {"number": 64, "value": 127}, "group": "control_change"}, {"time": 1808, "annotation": {"number": 64, "value": 0}, "group": "control_change"}, {"time": 1813, "annotation": {"number": 64, "value": 127}, "group": "control_change"}, {"time": 1822, "annotation": {"number": 64, "value": 0}, "group": "control_change"}, {"time": 2067, "annotation": {"number": 64, "value": 127}, "group": "control_change"}, {"time": 2073, "annotation": {"number": 64, "value": 0}, "group": "control_change"}, {"time": 2078, "annotation": {"number": 64, "value": 127}, "group": "control_change"}, {"time": 2079, "annotation": {"number": 64, "value": 0}, "group": "control_change"}, {"time": 2090, "annotation": {"number": 64, "value": 127}, "group": "control_change"}, {"time": 2097, "annotation": {"number": 64, "value": 0}, "group": "control_change"}, {"time": 2102, "annotation": {"number": 64, "value": 127}, "group": "control_change"}, {"time": 2108, "annotation": {"number": 64, "value": 0}, "group": "control_change"}, {"time": 2114, "annotation": {"number": 64, "value": 127}, "group": "control_change"}, {"time": 2119, "annotation": {"number": 64, "value": 0}, "group": "control_change"}, {"time": 2126, "annotation": {"number": 64, "value": 127}, "group": "control_change"}, {"time": 2133, "annotation": {"number": 64, "value": 0}, "group": "control_change"}, {"time": 2138, "annotation": {"number": 64, "value": 127}, "group": "control_change"}, {"time": 2145, "annotation": {"number": 64, "value": 0}, "group": "control_change"}, {"time": 2150, "annotation": {"number": 64, "value": 127}, "group": "control_change"}, {"time": 2155, "annotation": {"number": 64, "value": 0}, "group": "control_change"}, {"time": 2162, "annotation": {"number": 64, "value": 127}, "group": "control_change"}, {"time": 2169, "annotation": {"number": 64, "value": 0}, "group": "control_change"}, {"time": 2175, "annotation": {"number": 64, "value": 127}, "group": "control_change"}, {"time": 2176, "annotation": {"number": 64, "value": 0}, "group": "control_change"}, {"time": 2186, "annotation": {"number": 64, "value": 127}, "group": "control_change"}, {"time": 2193, "annotation": {"number": 64, "value": 0}, "group": "control_change"}, {"time": 2198, "annotation": {"number": 64, "value": 127}, "group": "control_change"}, {"time": 2204, "annotation": {"number": 64, "value": 0}, "group": "control_change"}, {"time": 2210, "annotation": {"number": 64, "value": 127}, "group": "control_change"}, {"time": 2217, "annotation": {"number": 64, "value": 0}, "group": "control_change"}, {"time": 2222, "annotation": {"number": 64, "value": 127}, "group": "control_change"}, {"time": 2227, "annotation": {"number": 64, "value": 0}, "group": "control_change"}, {"time": 2234, "annotation": {"number": 64, "value": 127}, "group": "control_change"}, {"time": 2240, "annotation": {"number": 64, "value": 0}, "group": "control_change"}, {"time": 2245, "annotation": {"number": 64, "value": 127}, "group": "control_change"}, {"time": 2254, "annotation": {"number": 64, "value": 0}, "group": "control_change"}, {"time": 2475, "annotation": {"number": 64, "value": 127}, "group": "control_change"}, {"time": 2481, "annotation": {"number": 64, "value": 0}, "group": "control_change"}, {"time": 2486, "annotation": {"number": 64, "value": 127}, "group": "control_change"}, {"time": 2487, "annotation": {"number": 64, "value": 0}, "group": "control_change"}, {"time": 2498, "annotation": {"number": 64, "value": 127}, "group": "control_change"}, {"time": 2505, "annotation": {"number": 64, "value": 0}, "group": "control_change"}, {"time": 2510, "annotation": {"number": 64, "value": 127}, "group": "control_change"}, {"time": 2516, "annotation": {"number": 64, "value": 0}, "group": "control_change"}, {"time": 2522, "annotation": {"number": 64, "value": 127}, "group": "control_change"}, {"time": 2527, "annotation": {"number": 64, "value": 0}, "group": "control_change"}, {"time": 2534, "annotation": {"number": 64, "value": 127}, "group": "control_change"}, {"time": 2541, "annotation": {"number": 64, "value": 0}, "group": "control_change"}, {"time": 2546, "annotation": {"number": 64, "value": 127}, "group": "control_change"}, {"time": 2553, "annotation": {"number": 64, "value": 0}, "group": "control_change"}, {"time": 2558, "annotation": {"number": 64, "value": 127}, "group": "control_change"}, {"time": 2563, "annotation": {"number": 64, "value": 0}, "group": "control_change"}, {"time": 2570, "annotation": {"number": 64, "value": 127}, "group": "control_change"}, {"time": 2577, "annotation": {"number": 64, "value": 0}, "group": "control_change"}, {"time": 2583, "annotation": {"number": 64, "value": 127}, "group": "control_change"}, {"time": 2584, "annotation": {"number": 64, "value": 0}, "group": "control_change"}, {"time": 2594, "annotation": {"number": 64, "value": 127}, "group": "control_change"}, {"time": 2601, "annotation": {"number": 64, "value": 0}, "group": "control_change"}, {"time": 2606, "annotation": {"number": 64, "value": 127}, "group": "control_change"}, {"time": 2612, "annotation": {"number": 64, "value": 0}, "group": "control_change"}, {"time": 2618, "annotation": {"number": 64, "value": 127}, "group": "control_change"}, {"time": 2625, "annotation": {"number": 64, "value": 0}, "group": "control_change"}, {"time": 2630, "annotation": {"number": 64, "value": 127}, "group": "control_change"}, {"time": 2635, "annotation": {"number": 64, "value": 0}, "group": "control_change"}, {"time": 2642, "annotation": {"number": 64, "value": 127}, "group": "control_change"}, {"time": 2648, "annotation": {"number": 64, "value": 0}, "group": "control_change"}, {"time": 2653, "annotation": {"number": 64, "value": 127}, "group": "control_change"}, {"time": 2662, "annotation": {"number": 64, "value": 0}, "group": "control_change"}]}]}