{"metadata": {"schema_version": "0.2", "title": "None", "source_filename": "390.mid", "source_format": "midi"}, "resolution": 12, "tempos": [{"time": 0, "qpm": 100.0}], "time_signatures": [{"time": 0, "numerator": 1, "denominator": 4}], "tracks": [{"program": 0, "is_drum": false, "name": "MELODY", "notes": [{"time": 603, "pitch": 57, "duration": 6, "velocity": 112}, {"time": 609, "pitch": 64, "duration": 4, "velocity": 99}, {"time": 615, "pitch": 64, "duration": 5, "velocity": 127}, {"time": 621, "pitch": 64, "duration": 3, "velocity": 127}, {"time": 627, "pitch": 64, "duration": 4, "velocity": 112}, {"time": 633, "pitch": 64, "duration": 4, "velocity": 117}, {"time": 639, "pitch": 62, "duration": 3, "velocity": 122}, {"time": 645, "pitch": 60, "duration": 4, "velocity": 102}, {"time": 651, "pitch": 62, "duration": 3, "velocity": 127}, {"time": 657, "pitch": 62, "duration": 4, "velocity": 102}, {"time": 663, "pitch": 60, "duration": 6, "velocity": 112}, {"time": 669, "pitch": 59, "duration": 5, "velocity": 89}, {"time": 675, "pitch": 57, "duration": 8, "velocity": 112}, {"time": 699, "pitch": 59, "duration": 3, "velocity": 107}, {"time": 705, "pitch": 59, "duration": 3, "velocity": 95}, {"time": 711, "pitch": 59, "duration": 4, "velocity": 102}, {"time": 717, "pitch": 60, "duration": 5, "velocity": 112}, {"time": 723, "pitch": 62, "duration": 5, "velocity": 127}, {"time": 729, "pitch": 55, "duration": 3, "velocity": 100}, {"time": 735, "pitch": 55, "duration": 3, "velocity": 99}, {"time": 741, "pitch": 55, "duration": 3, "velocity": 112}, {"time": 747, "pitch": 60, "duration": 5, "velocity": 107}, {"time": 753, "pitch": 59, "duration": 4, "velocity": 90}, {"time": 759, "pitch": 60, "duration": 4, "velocity": 127}, {"time": 765, "pitch": 62, "duration": 3, "velocity": 107}, {"time": 771, "pitch": 64, "duration": 11, "velocity": 127}, {"time": 795, "pitch": 57, "duration": 3, "velocity": 112}, {"time": 801, "pitch": 69, "duration": 3, "velocity": 127}, {"time": 807, "pitch": 69, "duration": 3, "velocity": 117}, {"time": 813, "pitch": 67, "duration": 5, "velocity": 112}, {"time": 819, "pitch": 69, "duration": 3, "velocity": 102}, {"time": 825, "pitch": 69, "duration": 5, "velocity": 112}, {"time": 831, "pitch": 67, "duration": 4, "velocity": 122}, {"time": 837, "pitch": 64, "duration": 6, "velocity": 127}, {"time": 843, "pitch": 62, "duration": 5, "velocity": 122}, {"time": 849, "pitch": 62, "duration": 5, "velocity": 100}, {"time": 855, "pitch": 57, "duration": 7, "velocity": 112}, {"time": 861, "pitch": 64, "duration": 4, "velocity": 122}, {"time": 867, "pitch": 62, "duration": 16, "velocity": 117}, {"time": 891, "pitch": 55, "duration": 6, "velocity": 102}, {"time": 897, "pitch": 67, "duration": 4, "velocity": 112}, {"time": 903, "pitch": 67, "duration": 3, "velocity": 122}, {"time": 909, "pitch": 67, "duration": 3, "velocity": 127}, {"time": 915, "pitch": 67, "duration": 4, "velocity": 127}, {"time": 921, "pitch": 67, "duration": 6, "velocity": 122}, {"time": 927, "pitch": 64, "duration": 4, "velocity": 102}, {"time": 933, "pitch": 62, "duration": 4, "velocity": 100}, {"time": 939, "pitch": 60, "duration": 5, "velocity": 107}, {"time": 945, "pitch": 59, "duration": 5, "velocity": 100}, {"time": 951, "pitch": 55, "duration": 5, "velocity": 96}, {"time": 957, "pitch": 59, "duration": 3, "velocity": 99}, {"time": 963, "pitch": 57, "duration": 16, "velocity": 117}, {"time": 987, "pitch": 57, "duration": 5, "velocity": 112}, {"time": 993, "pitch": 64, "duration": 3, "velocity": 127}, {"time": 999, "pitch": 64, "duration": 3, "velocity": 112}, {"time": 1005, "pitch": 64, "duration": 3, "velocity": 112}, {"time": 1011, "pitch": 64, "duration": 4, "velocity": 102}, {"time": 1017, "pitch": 64, "duration": 3, "velocity": 122}, {"time": 1023, "pitch": 62, "duration": 4, "velocity": 127}, {"time": 1029, "pitch": 60, "duration": 3, "velocity": 95}, {"time": 1035, "pitch": 62, "duration": 3, "velocity": 127}, {"time": 1041, "pitch": 62, "duration": 4, "velocity": 127}, {"time": 1047, "pitch": 60, "duration": 4, "velocity": 127}, {"time": 1053, "pitch": 59, "duration": 6, "velocity": 95}, {"time": 1059, "pitch": 57, "duration": 14, "velocity": 96}, {"time": 1083, "pitch": 59, "duration": 3, "velocity": 112}, {"time": 1089, "pitch": 59, "duration": 3, "velocity": 100}, {"time": 1095, "pitch": 59, "duration": 3, "velocity": 102}, {"time": 1101, "pitch": 60, "duration": 4, "velocity": 112}, {"time": 1107, "pitch": 62, "duration": 4, "velocity": 117}, {"time": 1113, "pitch": 55, "duration": 3, "velocity": 102}, {"time": 1119, "pitch": 55, "duration": 3, "velocity": 99}, {"time": 1125, "pitch": 55, "duration": 3, "velocity": 107}, {"time": 1131, "pitch": 60, "duration": 3, "velocity": 122}, {"time": 1137, "pitch": 59, "duration": 3, "velocity": 117}, {"time": 1143, "pitch": 60, "duration": 3, "velocity": 127}, {"time": 1149, "pitch": 62, "duration": 3, "velocity": 127}, {"time": 1155, "pitch": 64, "duration": 10, "velocity": 117}, {"time": 1179, "pitch": 57, "duration": 5, "velocity": 112}, {"time": 1185, "pitch": 69, "duration": 4, "velocity": 112}, {"time": 1191, "pitch": 69, "duration": 3, "velocity": 122}, {"time": 1197, "pitch": 67, "duration": 3, "velocity": 127}, {"time": 1203, "pitch": 69, "duration": 4, "velocity": 127}, {"time": 1209, "pitch": 69, "duration": 4, "velocity": 127}, {"time": 1215, "pitch": 67, "duration": 4, "velocity": 127}, {"time": 1221, "pitch": 64, "duration": 4, "velocity": 117}, {"time": 1227, "pitch": 62, "duration": 3, "velocity": 112}, {"time": 1233, "pitch": 62, "duration": 4, "velocity": 117}, {"time": 1239, "pitch": 57, "duration": 5, "velocity": 107}, {"time": 1245, "pitch": 64, "duration": 3, "velocity": 117}, {"time": 1251, "pitch": 62, "duration": 13, "velocity": 127}, {"time": 1275, "pitch": 55, "duration": 5, "velocity": 117}, {"time": 1281, "pitch": 67, "duration": 3, "velocity": 112}, {"time": 1287, "pitch": 67, "duration": 3, "velocity": 117}, {"time": 1293, "pitch": 67, "duration": 3, "velocity": 127}, {"time": 1299, "pitch": 67, "duration": 3, "velocity": 127}, {"time": 1305, "pitch": 67, "duration": 2, "velocity": 122}, {"time": 1308, "pitch": 67, "duration": 3, "velocity": 99}, {"time": 1311, "pitch": 64, "duration": 4, "velocity": 127}, {"time": 1317, "pitch": 62, "duration": 3, "velocity": 117}, {"time": 1323, "pitch": 60, "duration": 4, "velocity": 112}, {"time": 1329, "pitch": 59, "duration": 5, "velocity": 112}, {"time": 1335, "pitch": 55, "duration": 5, "velocity": 102}, {"time": 1341, "pitch": 59, "duration": 4, "velocity": 112}, {"time": 1347, "pitch": 57, "duration": 13, "velocity": 100}, {"time": 1371, "pitch": 64, "duration": 9, "velocity": 117}, {"time": 1383, "pitch": 69, "duration": 7, "velocity": 127}, {"time": 1395, "pitch": 72, "duration": 5, "velocity": 127}, {"time": 1401, "pitch": 71, "duration": 4, "velocity": 127}, {"time": 1407, "pitch": 69, "duration": 9, "velocity": 127}, {"time": 1419, "pitch": 69, "duration": 5, "velocity": 127}, {"time": 1425, "pitch": 67, "duration": 7, "velocity": 100}, {"time": 1431, "pitch": 62, "duration": 6, "velocity": 122}, {"time": 1437, "pitch": 67, "duration": 6, "velocity": 112}, {"time": 1443, "pitch": 64, "duration": 10, "velocity": 127}, {"time": 1467, "pitch": 57, "duration": 6, "velocity": 122}, {"time": 1473, "pitch": 62, "duration": 3, "velocity": 117}, {"time": 1479, "pitch": 62, "duration": 3, "velocity": 97}, {"time": 1485, "pitch": 64, "duration": 4, "velocity": 112}, {"time": 1491, "pitch": 67, "duration": 3, "velocity": 127}, {"time": 1497, "pitch": 67, "duration": 3, "velocity": 127}, {"time": 1503, "pitch": 67, "duration": 3, "velocity": 122}, {"time": 1509, "pitch": 69, "duration": 3, "velocity": 127}, {"time": 1515, "pitch": 67, "duration": 3, "velocity": 127}, {"time": 1521, "pitch": 64, "duration": 2, "velocity": 127}, {"time": 1527, "pitch": 64, "duration": 2, "velocity": 107}, {"time": 1532, "pitch": 62, "duration": 3, "velocity": 117}, {"time": 1539, "pitch": 64, "duration": 17, "velocity": 127}, {"time": 1563, "pitch": 64, "duration": 8, "velocity": 117}, {"time": 1575, "pitch": 69, "duration": 6, "velocity": 127}, {"time": 1587, "pitch": 72, "duration": 5, "velocity": 127}, {"time": 1593, "pitch": 71, "duration": 5, "velocity": 127}, {"time": 1599, "pitch": 69, "duration": 4, "velocity": 127}, {"time": 1611, "pitch": 69, "duration": 6, "velocity": 127}, {"time": 1617, "pitch": 67, "duration": 5, "velocity": 112}, {"time": 1620, "pitch": 67, "duration": 2, "velocity": 127}, {"time": 1623, "pitch": 62, "duration": 5, "velocity": 117}, {"time": 1629, "pitch": 67, "duration": 3, "velocity": 102}, {"time": 1635, "pitch": 64, "duration": 12, "velocity": 127}, {"time": 1659, "pitch": 62, "duration": 3, "velocity": 112}, {"time": 1665, "pitch": 62, "duration": 3, "velocity": 112}, {"time": 1668, "pitch": 62, "duration": 2, "velocity": 97}, {"time": 1671, "pitch": 62, "duration": 3, "velocity": 107}, {"time": 1677, "pitch": 64, "duration": 4, "velocity": 127}, {"time": 1683, "pitch": 67, "duration": 4, "velocity": 127}, {"time": 1689, "pitch": 67, "duration": 3, "velocity": 112}, {"time": 1695, "pitch": 67, "duration": 4, "velocity": 117}, {"time": 1701, "pitch": 64, "duration": 4, "velocity": 107}, {"time": 1707, "pitch": 72, "duration": 5, "velocity": 127}, {"time": 1713, "pitch": 71, "duration": 4, "velocity": 117}, {"time": 1719, "pitch": 69, "duration": 3, "velocity": 127}, {"time": 1725, "pitch": 67, "duration": 3, "velocity": 117}, {"time": 1731, "pitch": 69, "duration": 16, "velocity": 127}, {"time": 1755, "pitch": 64, "duration": 9, "velocity": 117}, {"time": 1767, "pitch": 69, "duration": 7, "velocity": 127}, {"time": 1779, "pitch": 72, "duration": 5, "velocity": 127}, {"time": 1785, "pitch": 71, "duration": 4, "velocity": 127}, {"time": 1791, "pitch": 69, "duration": 9, "velocity": 127}, {"time": 1803, "pitch": 69, "duration": 5, "velocity": 127}, {"time": 1809, "pitch": 67, "duration": 7, "velocity": 100}, {"time": 1815, "pitch": 62, "duration": 6, "velocity": 122}, {"time": 1821, "pitch": 67, "duration": 6, "velocity": 112}, {"time": 1827, "pitch": 64, "duration": 10, "velocity": 127}, {"time": 1851, "pitch": 57, "duration": 6, "velocity": 122}, {"time": 1857, "pitch": 62, "duration": 3, "velocity": 117}, {"time": 1863, "pitch": 62, "duration": 3, "velocity": 97}, {"time": 1869, "pitch": 64, "duration": 4, "velocity": 112}, {"time": 1875, "pitch": 67, "duration": 3, "velocity": 127}, {"time": 1881, "pitch": 67, "duration": 3, "velocity": 127}, {"time": 1887, "pitch": 67, "duration": 3, "velocity": 122}, {"time": 1893, "pitch": 69, "duration": 3, "velocity": 127}, {"time": 1899, "pitch": 67, "duration": 3, "velocity": 127}, {"time": 1905, "pitch": 64, "duration": 2, "velocity": 127}, {"time": 1911, "pitch": 64, "duration": 2, "velocity": 107}, {"time": 1916, "pitch": 62, "duration": 3, "velocity": 117}, {"time": 1923, "pitch": 64, "duration": 17, "velocity": 127}, {"time": 1947, "pitch": 64, "duration": 8, "velocity": 117}, {"time": 1959, "pitch": 69, "duration": 6, "velocity": 127}, {"time": 1971, "pitch": 72, "duration": 5, "velocity": 127}, {"time": 1977, "pitch": 71, "duration": 5, "velocity": 127}, {"time": 1983, "pitch": 69, "duration": 4, "velocity": 127}, {"time": 1995, "pitch": 69, "duration": 6, "velocity": 127}, {"time": 2001, "pitch": 76, "duration": 4, "velocity": 127}, {"time": 2007, "pitch": 74, "duration": 3, "velocity": 127}, {"time": 2013, "pitch": 72, "duration": 2, "velocity": 127}, {"time": 2019, "pitch": 74, "duration": 17, "velocity": 127}, {"time": 2043, "pitch": 71, "duration": 2, "velocity": 127}, {"time": 2049, "pitch": 71, "duration": 2, "velocity": 122}, {"time": 2055, "pitch": 71, "duration": 3, "velocity": 122}, {"time": 2061, "pitch": 72, "duration": 3, "velocity": 127}, {"time": 2067, "pitch": 74, "duration": 3, "velocity": 127}, {"time": 2073, "pitch": 74, "duration": 2, "velocity": 127}, {"time": 2079, "pitch": 74, "duration": 3, "velocity": 127}, {"time": 2085, "pitch": 76, "duration": 4, "velocity": 127}, {"time": 2091, "pitch": 72, "duration": 4, "velocity": 127}, {"time": 2097, "pitch": 71, "duration": 3, "velocity": 112}, {"time": 2103, "pitch": 69, "duration": 3, "velocity": 127}, {"time": 2109, "pitch": 67, "duration": 3, "velocity": 112}, {"time": 2115, "pitch": 69, "duration": 25, "velocity": 127}, {"time": 2571, "pitch": 57, "duration": 6, "velocity": 112}, {"time": 2577, "pitch": 64, "duration": 4, "velocity": 99}, {"time": 2583, "pitch": 64, "duration": 5, "velocity": 127}, {"time": 2589, "pitch": 64, "duration": 3, "velocity": 127}, {"time": 2595, "pitch": 64, "duration": 4, "velocity": 112}, {"time": 2601, "pitch": 64, "duration": 4, "velocity": 117}, {"time": 2607, "pitch": 62, "duration": 3, "velocity": 122}, {"time": 2613, "pitch": 60, "duration": 4, "velocity": 102}, {"time": 2619, "pitch": 62, "duration": 3, "velocity": 127}, {"time": 2625, "pitch": 62, "duration": 4, "velocity": 102}, {"time": 2631, "pitch": 60, "duration": 6, "velocity": 112}, {"time": 2637, "pitch": 59, "duration": 5, "velocity": 89}, {"time": 2643, "pitch": 57, "duration": 8, "velocity": 112}, {"time": 2667, "pitch": 59, "duration": 3, "velocity": 107}, {"time": 2673, "pitch": 59, "duration": 3, "velocity": 95}, {"time": 2679, "pitch": 59, "duration": 4, "velocity": 102}, {"time": 2685, "pitch": 60, "duration": 5, "velocity": 112}, {"time": 2691, "pitch": 62, "duration": 5, "velocity": 127}, {"time": 2697, "pitch": 55, "duration": 3, "velocity": 100}, {"time": 2703, "pitch": 55, "duration": 3, "velocity": 99}, {"time": 2709, "pitch": 55, "duration": 3, "velocity": 112}, {"time": 2715, "pitch": 60, "duration": 5, "velocity": 107}, {"time": 2721, "pitch": 59, "duration": 4, "velocity": 90}, {"time": 2727, "pitch": 60, "duration": 4, "velocity": 127}, {"time": 2733, "pitch": 62, "duration": 3, "velocity": 107}, {"time": 2739, "pitch": 64, "duration": 11, "velocity": 127}, {"time": 2763, "pitch": 57, "duration": 3, "velocity": 112}, {"time": 2769, "pitch": 69, "duration": 3, "velocity": 127}, {"time": 2775, "pitch": 69, "duration": 3, "velocity": 117}, {"time": 2781, "pitch": 67, "duration": 5, "velocity": 112}, {"time": 2787, "pitch": 69, "duration": 3, "velocity": 102}, {"time": 2793, "pitch": 69, "duration": 5, "velocity": 112}, {"time": 2799, "pitch": 67, "duration": 4, "velocity": 122}, {"time": 2805, "pitch": 64, "duration": 6, "velocity": 127}, {"time": 2811, "pitch": 62, "duration": 5, "velocity": 122}, {"time": 2817, "pitch": 62, "duration": 5, "velocity": 100}, {"time": 2823, "pitch": 57, "duration": 7, "velocity": 112}, {"time": 2829, "pitch": 64, "duration": 4, "velocity": 122}, {"time": 2835, "pitch": 62, "duration": 16, "velocity": 117}, {"time": 2859, "pitch": 55, "duration": 6, "velocity": 102}, {"time": 2865, "pitch": 67, "duration": 4, "velocity": 112}, {"time": 2871, "pitch": 67, "duration": 3, "velocity": 122}, {"time": 2877, "pitch": 67, "duration": 3, "velocity": 127}, {"time": 2883, "pitch": 67, "duration": 4, "velocity": 127}, {"time": 2889, "pitch": 67, "duration": 6, "velocity": 122}, {"time": 2895, "pitch": 64, "duration": 4, "velocity": 102}, {"time": 2901, "pitch": 62, "duration": 4, "velocity": 100}, {"time": 2907, "pitch": 60, "duration": 5, "velocity": 107}, {"time": 2913, "pitch": 59, "duration": 5, "velocity": 100}, {"time": 2919, "pitch": 55, "duration": 5, "velocity": 96}, {"time": 2925, "pitch": 59, "duration": 3, "velocity": 99}, {"time": 2931, "pitch": 57, "duration": 16, "velocity": 117}, {"time": 2955, "pitch": 57, "duration": 5, "velocity": 112}, {"time": 2961, "pitch": 64, "duration": 3, "velocity": 127}, {"time": 2967, "pitch": 64, "duration": 3, "velocity": 112}, {"time": 2973, "pitch": 64, "duration": 3, "velocity": 112}, {"time": 2979, "pitch": 64, "duration": 4, "velocity": 102}, {"time": 2985, "pitch": 64, "duration": 3, "velocity": 122}, {"time": 2991, "pitch": 62, "duration": 4, "velocity": 127}, {"time": 2997, "pitch": 60, "duration": 3, "velocity": 95}, {"time": 3003, "pitch": 62, "duration": 3, "velocity": 127}, {"time": 3009, "pitch": 62, "duration": 4, "velocity": 127}, {"time": 3015, "pitch": 60, "duration": 4, "velocity": 127}, {"time": 3021, "pitch": 59, "duration": 6, "velocity": 95}, {"time": 3027, "pitch": 57, "duration": 14, "velocity": 96}, {"time": 3051, "pitch": 59, "duration": 3, "velocity": 112}, {"time": 3057, "pitch": 59, "duration": 3, "velocity": 100}, {"time": 3063, "pitch": 59, "duration": 3, "velocity": 102}, {"time": 3069, "pitch": 60, "duration": 4, "velocity": 112}, {"time": 3075, "pitch": 62, "duration": 4, "velocity": 117}, {"time": 3081, "pitch": 55, "duration": 3, "velocity": 102}, {"time": 3087, "pitch": 55, "duration": 3, "velocity": 99}, {"time": 3093, "pitch": 55, "duration": 3, "velocity": 107}, {"time": 3099, "pitch": 60, "duration": 3, "velocity": 122}, {"time": 3105, "pitch": 59, "duration": 3, "velocity": 117}, {"time": 3111, "pitch": 60, "duration": 3, "velocity": 127}, {"time": 3117, "pitch": 62, "duration": 3, "velocity": 127}, {"time": 3123, "pitch": 64, "duration": 10, "velocity": 117}, {"time": 3147, "pitch": 57, "duration": 5, "velocity": 112}, {"time": 3153, "pitch": 69, "duration": 4, "velocity": 112}, {"time": 3159, "pitch": 69, "duration": 3, "velocity": 122}, {"time": 3165, "pitch": 67, "duration": 3, "velocity": 127}, {"time": 3171, "pitch": 69, "duration": 4, "velocity": 127}, {"time": 3177, "pitch": 69, "duration": 4, "velocity": 127}, {"time": 3183, "pitch": 67, "duration": 4, "velocity": 127}, {"time": 3189, "pitch": 64, "duration": 4, "velocity": 117}, {"time": 3195, "pitch": 62, "duration": 3, "velocity": 112}, {"time": 3201, "pitch": 62, "duration": 4, "velocity": 117}, {"time": 3207, "pitch": 57, "duration": 5, "velocity": 107}, {"time": 3213, "pitch": 64, "duration": 3, "velocity": 117}, {"time": 3219, "pitch": 62, "duration": 13, "velocity": 127}, {"time": 3243, "pitch": 55, "duration": 5, "velocity": 117}, {"time": 3249, "pitch": 67, "duration": 3, "velocity": 112}, {"time": 3255, "pitch": 67, "duration": 3, "velocity": 117}, {"time": 3261, "pitch": 67, "duration": 3, "velocity": 127}, {"time": 3267, "pitch": 67, "duration": 3, "velocity": 127}, {"time": 3273, "pitch": 67, "duration": 2, "velocity": 122}, {"time": 3276, "pitch": 67, "duration": 3, "velocity": 99}, {"time": 3279, "pitch": 64, "duration": 4, "velocity": 127}, {"time": 3285, "pitch": 62, "duration": 3, "velocity": 117}, {"time": 3291, "pitch": 60, "duration": 4, "velocity": 112}, {"time": 3297, "pitch": 59, "duration": 5, "velocity": 112}, {"time": 3303, "pitch": 55, "duration": 5, "velocity": 102}, {"time": 3309, "pitch": 59, "duration": 4, "velocity": 112}, {"time": 3315, "pitch": 57, "duration": 13, "velocity": 100}, {"time": 3339, "pitch": 64, "duration": 9, "velocity": 117}, {"time": 3351, "pitch": 69, "duration": 7, "velocity": 127}, {"time": 3363, "pitch": 72, "duration": 5, "velocity": 127}, {"time": 3369, "pitch": 71, "duration": 4, "velocity": 127}, {"time": 3375, "pitch": 69, "duration": 9, "velocity": 127}, {"time": 3387, "pitch": 69, "duration": 5, "velocity": 127}, {"time": 3393, "pitch": 67, "duration": 7, "velocity": 100}, {"time": 3399, "pitch": 62, "duration": 6, "velocity": 122}, {"time": 3405, "pitch": 67, "duration": 6, "velocity": 112}, {"time": 3411, "pitch": 64, "duration": 10, "velocity": 127}, {"time": 3435, "pitch": 57, "duration": 6, "velocity": 122}, {"time": 3441, "pitch": 62, "duration": 3, "velocity": 117}, {"time": 3447, "pitch": 62, "duration": 3, "velocity": 97}, {"time": 3453, "pitch": 64, "duration": 4, "velocity": 112}, {"time": 3459, "pitch": 67, "duration": 3, "velocity": 127}, {"time": 3465, "pitch": 67, "duration": 3, "velocity": 127}, {"time": 3471, "pitch": 67, "duration": 3, "velocity": 122}, {"time": 3477, "pitch": 69, "duration": 3, "velocity": 127}, {"time": 3483, "pitch": 67, "duration": 3, "velocity": 127}, {"time": 3489, "pitch": 64, "duration": 2, "velocity": 127}, {"time": 3495, "pitch": 64, "duration": 2, "velocity": 107}, {"time": 3500, "pitch": 62, "duration": 3, "velocity": 117}, {"time": 3507, "pitch": 64, "duration": 17, "velocity": 127}, {"time": 3531, "pitch": 64, "duration": 8, "velocity": 117}, {"time": 3543, "pitch": 69, "duration": 6, "velocity": 127}, {"time": 3555, "pitch": 72, "duration": 5, "velocity": 127}, {"time": 3561, "pitch": 71, "duration": 5, "velocity": 127}, {"time": 3567, "pitch": 69, "duration": 4, "velocity": 127}, {"time": 3579, "pitch": 69, "duration": 6, "velocity": 127}, {"time": 3585, "pitch": 67, "duration": 5, "velocity": 112}, {"time": 3588, "pitch": 67, "duration": 2, "velocity": 127}, {"time": 3591, "pitch": 62, "duration": 5, "velocity": 117}, {"time": 3597, "pitch": 67, "duration": 3, "velocity": 102}, {"time": 3603, "pitch": 64, "duration": 12, "velocity": 127}, {"time": 3627, "pitch": 62, "duration": 3, "velocity": 112}, {"time": 3633, "pitch": 62, "duration": 3, "velocity": 112}, {"time": 3636, "pitch": 62, "duration": 2, "velocity": 97}, {"time": 3639, "pitch": 62, "duration": 3, "velocity": 107}, {"time": 3645, "pitch": 64, "duration": 4, "velocity": 127}, {"time": 3651, "pitch": 67, "duration": 4, "velocity": 127}, {"time": 3657, "pitch": 67, "duration": 3, "velocity": 112}, {"time": 3663, "pitch": 67, "duration": 4, "velocity": 117}, {"time": 3669, "pitch": 64, "duration": 4, "velocity": 107}, {"time": 3675, "pitch": 72, "duration": 5, "velocity": 127}, {"time": 3681, "pitch": 71, "duration": 4, "velocity": 117}, {"time": 3687, "pitch": 69, "duration": 3, "velocity": 127}, {"time": 3693, "pitch": 67, "duration": 3, "velocity": 117}, {"time": 3699, "pitch": 69, "duration": 16, "velocity": 127}, {"time": 3723, "pitch": 64, "duration": 9, "velocity": 117}, {"time": 3735, "pitch": 69, "duration": 7, "velocity": 127}, {"time": 3747, "pitch": 72, "duration": 5, "velocity": 127}, {"time": 3753, "pitch": 71, "duration": 4, "velocity": 127}, {"time": 3759, "pitch": 69, "duration": 9, "velocity": 127}, {"time": 3771, "pitch": 69, "duration": 5, "velocity": 127}, {"time": 3777, "pitch": 67, "duration": 7, "velocity": 100}, {"time": 3783, "pitch": 62, "duration": 6, "velocity": 122}, {"time": 3789, "pitch": 67, "duration": 6, "velocity": 112}, {"time": 3795, "pitch": 64, "duration": 10, "velocity": 127}, {"time": 3819, "pitch": 57, "duration": 6, "velocity": 122}, {"time": 3825, "pitch": 62, "duration": 3, "velocity": 117}, {"time": 3831, "pitch": 62, "duration": 3, "velocity": 97}, {"time": 3837, "pitch": 64, "duration": 4, "velocity": 112}, {"time": 3843, "pitch": 67, "duration": 3, "velocity": 127}, {"time": 3849, "pitch": 67, "duration": 3, "velocity": 127}, {"time": 3855, "pitch": 67, "duration": 3, "velocity": 122}, {"time": 3861, "pitch": 69, "duration": 3, "velocity": 127}, {"time": 3867, "pitch": 67, "duration": 3, "velocity": 127}, {"time": 3873, "pitch": 64, "duration": 2, "velocity": 127}, {"time": 3879, "pitch": 64, "duration": 2, "velocity": 107}, {"time": 3884, "pitch": 62, "duration": 3, "velocity": 117}, {"time": 3891, "pitch": 64, "duration": 17, "velocity": 127}, {"time": 3915, "pitch": 64, "duration": 8, "velocity": 117}, {"time": 3927, "pitch": 69, "duration": 6, "velocity": 127}, {"time": 3939, "pitch": 72, "duration": 5, "velocity": 127}, {"time": 3945, "pitch": 71, "duration": 5, "velocity": 127}, {"time": 3951, "pitch": 69, "duration": 4, "velocity": 127}, {"time": 3963, "pitch": 69, "duration": 6, "velocity": 127}, {"time": 3969, "pitch": 76, "duration": 4, "velocity": 127}, {"time": 3975, "pitch": 74, "duration": 3, "velocity": 127}, {"time": 3981, "pitch": 72, "duration": 2, "velocity": 127}, {"time": 3987, "pitch": 74, "duration": 17, "velocity": 127}, {"time": 4011, "pitch": 71, "duration": 2, "velocity": 127}, {"time": 4017, "pitch": 71, "duration": 2, "velocity": 122}, {"time": 4023, "pitch": 71, "duration": 3, "velocity": 122}, {"time": 4029, "pitch": 72, "duration": 3, "velocity": 127}, {"time": 4035, "pitch": 74, "duration": 3, "velocity": 127}, {"time": 4041, "pitch": 74, "duration": 2, "velocity": 127}, {"time": 4047, "pitch": 74, "duration": 3, "velocity": 127}, {"time": 4053, "pitch": 76, "duration": 4, "velocity": 127}, {"time": 4059, "pitch": 72, "duration": 4, "velocity": 127}, {"time": 4065, "pitch": 71, "duration": 3, "velocity": 112}, {"time": 4071, "pitch": 69, "duration": 3, "velocity": 127}, {"time": 4077, "pitch": 67, "duration": 3, "velocity": 112}, {"time": 4083, "pitch": 69, "duration": 25, "velocity": 127}]}, {"program": 0, "is_drum": false, "name": "BRIDGE", "notes": [{"time": 219, "pitch": 64, "duration": 38, "velocity": 127}, {"time": 267, "pitch": 62, "duration": 12, "velocity": 97}, {"time": 279, "pitch": 64, "duration": 3, "velocity": 100}, {"time": 282, "pitch": 62, "duration": 3, "velocity": 69}, {"time": 285, "pitch": 64, "duration": 3, "velocity": 71}, {"time": 288, "pitch": 62, "duration": 3, "velocity": 71}, {"time": 291, "pitch": 64, "duration": 4, "velocity": 71}, {"time": 294, "pitch": 62, "duration": 4, "velocity": 76}, {"time": 297, "pitch": 64, "duration": 4, "velocity": 81}, {"time": 300, "pitch": 62, "duration": 16, "velocity": 89}, {"time": 315, "pitch": 60, "duration": 25, "velocity": 100}, {"time": 339, "pitch": 57, "duration": 18, "velocity": 97}, {"time": 360, "pitch": 62, "duration": 3, "velocity": 83}, {"time": 363, "pitch": 67, "duration": 49, "velocity": 102}, {"time": 411, "pitch": 81, "duration": 14, "velocity": 127}, {"time": 429, "pitch": 79, "duration": 5, "velocity": 122}, {"time": 435, "pitch": 81, "duration": 11, "velocity": 112}, {"time": 447, "pitch": 88, "duration": 10, "velocity": 117}, {"time": 459, "pitch": 86, "duration": 11, "velocity": 127}, {"time": 471, "pitch": 88, "duration": 6, "velocity": 112}, {"time": 477, "pitch": 79, "duration": 6, "velocity": 99}, {"time": 483, "pitch": 76, "duration": 15, "velocity": 117}, {"time": 507, "pitch": 74, "duration": 14, "velocity": 117}, {"time": 525, "pitch": 76, "duration": 6, "velocity": 117}, {"time": 531, "pitch": 79, "duration": 12, "velocity": 127}, {"time": 549, "pitch": 76, "duration": 5, "velocity": 107}, {"time": 555, "pitch": 84, "duration": 6, "velocity": 127}, {"time": 561, "pitch": 83, "duration": 4, "velocity": 127}, {"time": 567, "pitch": 81, "duration": 3, "velocity": 127}, {"time": 573, "pitch": 76, "duration": 3, "velocity": 112}, {"time": 579, "pitch": 81, "duration": 10, "velocity": 127}, {"time": 675, "pitch": 57, "duration": 28, "velocity": 97}, {"time": 747, "pitch": 55, "duration": 24, "velocity": 117}, {"time": 771, "pitch": 64, "duration": 23, "velocity": 117}, {"time": 873, "pitch": 64, "duration": 4, "velocity": 97}, {"time": 879, "pitch": 62, "duration": 7, "velocity": 90}, {"time": 885, "pitch": 64, "duration": 7, "velocity": 97}, {"time": 891, "pitch": 62, "duration": 31, "velocity": 85}, {"time": 963, "pitch": 69, "duration": 6, "velocity": 102}, {"time": 969, "pitch": 72, "duration": 6, "velocity": 102}, {"time": 975, "pitch": 71, "duration": 6, "velocity": 89}, {"time": 981, "pitch": 67, "duration": 7, "velocity": 82}, {"time": 987, "pitch": 69, "duration": 14, "velocity": 107}, {"time": 1071, "pitch": 72, "duration": 4, "velocity": 122}, {"time": 1074, "pitch": 74, "duration": 4, "velocity": 76}, {"time": 1077, "pitch": 72, "duration": 3, "velocity": 90}, {"time": 1080, "pitch": 71, "duration": 3, "velocity": 95}, {"time": 1083, "pitch": 67, "duration": 27, "velocity": 97}, {"time": 1161, "pitch": 76, "duration": 3, "velocity": 117}, {"time": 1164, "pitch": 79, "duration": 4, "velocity": 90}, {"time": 1167, "pitch": 76, "duration": 15, "velocity": 122}, {"time": 1323, "pitch": 60, "duration": 6, "velocity": 127}, {"time": 1323, "pitch": 72, "duration": 5, "velocity": 127}, {"time": 1329, "pitch": 59, "duration": 6, "velocity": 112}, {"time": 1329, "pitch": 71, "duration": 5, "velocity": 117}, {"time": 1335, "pitch": 55, "duration": 6, "velocity": 100}, {"time": 1335, "pitch": 67, "duration": 6, "velocity": 97}, {"time": 1341, "pitch": 59, "duration": 5, "velocity": 112}, {"time": 1341, "pitch": 71, "duration": 5, "velocity": 117}, {"time": 1347, "pitch": 57, "duration": 10, "velocity": 127}, {"time": 1347, "pitch": 69, "duration": 22, "velocity": 127}, {"time": 1449, "pitch": 72, "duration": 4, "velocity": 112}, {"time": 1455, "pitch": 72, "duration": 5, "velocity": 102}, {"time": 1461, "pitch": 71, "duration": 7, "velocity": 107}, {"time": 1467, "pitch": 67, "duration": 15, "velocity": 96}, {"time": 1539, "pitch": 76, "duration": 24, "velocity": 127}, {"time": 2139, "pitch": 69, "duration": 96, "velocity": 120}, {"time": 2235, "pitch": 76, "duration": 3, "velocity": 107}, {"time": 2238, "pitch": 79, "duration": 3, "velocity": 92}, {"time": 2241, "pitch": 76, "duration": 42, "velocity": 97}, {"time": 2301, "pitch": 76, "duration": 8, "velocity": 102}, {"time": 2313, "pitch": 74, "duration": 3, "velocity": 93}, {"time": 2316, "pitch": 76, "duration": 4, "velocity": 70}, {"time": 2319, "pitch": 74, "duration": 4, "velocity": 72}, {"time": 2322, "pitch": 76, "duration": 3, "velocity": 73}, {"time": 2325, "pitch": 74, "duration": 13, "velocity": 95}, {"time": 2337, "pitch": 72, "duration": 37, "velocity": 117}, {"time": 2397, "pitch": 79, "duration": 74, "velocity": 117}, {"time": 2481, "pitch": 81, "duration": 6, "velocity": 112}, {"time": 2490, "pitch": 81, "duration": 4, "velocity": 107}, {"time": 2494, "pitch": 79, "duration": 4, "velocity": 59}, {"time": 2499, "pitch": 76, "duration": 4, "velocity": 72}, {"time": 2505, "pitch": 79, "duration": 4, "velocity": 93}, {"time": 2508, "pitch": 81, "duration": 3, "velocity": 73}, {"time": 2511, "pitch": 76, "duration": 7, "velocity": 78}, {"time": 2517, "pitch": 74, "duration": 6, "velocity": 93}, {"time": 2523, "pitch": 72, "duration": 49, "velocity": 90}, {"time": 2655, "pitch": 57, "duration": 28, "velocity": 97}, {"time": 2727, "pitch": 55, "duration": 24, "velocity": 117}, {"time": 2751, "pitch": 64, "duration": 23, "velocity": 117}, {"time": 2853, "pitch": 64, "duration": 4, "velocity": 97}, {"time": 2859, "pitch": 62, "duration": 7, "velocity": 90}, {"time": 2865, "pitch": 64, "duration": 7, "velocity": 97}, {"time": 2871, "pitch": 62, "duration": 31, "velocity": 85}, {"time": 2943, "pitch": 69, "duration": 6, "velocity": 102}, {"time": 2949, "pitch": 72, "duration": 6, "velocity": 102}, {"time": 2955, "pitch": 71, "duration": 6, "velocity": 89}, {"time": 2961, "pitch": 67, "duration": 7, "velocity": 82}, {"time": 2967, "pitch": 69, "duration": 14, "velocity": 107}, {"time": 3051, "pitch": 72, "duration": 4, "velocity": 122}, {"time": 3054, "pitch": 74, "duration": 4, "velocity": 76}, {"time": 3057, "pitch": 72, "duration": 3, "velocity": 90}, {"time": 3060, "pitch": 71, "duration": 3, "velocity": 95}, {"time": 3063, "pitch": 67, "duration": 27, "velocity": 97}, {"time": 3141, "pitch": 76, "duration": 3, "velocity": 117}, {"time": 3144, "pitch": 79, "duration": 4, "velocity": 90}, {"time": 3147, "pitch": 76, "duration": 15, "velocity": 122}, {"time": 3303, "pitch": 60, "duration": 6, "velocity": 127}, {"time": 3303, "pitch": 72, "duration": 5, "velocity": 127}, {"time": 3309, "pitch": 59, "duration": 6, "velocity": 112}, {"time": 3309, "pitch": 71, "duration": 5, "velocity": 117}, {"time": 3315, "pitch": 55, "duration": 6, "velocity": 100}, {"time": 3315, "pitch": 67, "duration": 6, "velocity": 97}, {"time": 3321, "pitch": 59, "duration": 5, "velocity": 112}, {"time": 3321, "pitch": 71, "duration": 5, "velocity": 117}, {"time": 3327, "pitch": 57, "duration": 10, "velocity": 127}, {"time": 3327, "pitch": 69, "duration": 22, "velocity": 127}, {"time": 3429, "pitch": 72, "duration": 4, "velocity": 112}, {"time": 3435, "pitch": 72, "duration": 5, "velocity": 102}, {"time": 3441, "pitch": 71, "duration": 7, "velocity": 107}, {"time": 3447, "pitch": 67, "duration": 15, "velocity": 96}, {"time": 3519, "pitch": 76, "duration": 24, "velocity": 127}, {"time": 4107, "pitch": 64, "duration": 20, "velocity": 112}, {"time": 4125, "pitch": 67, "duration": 5, "velocity": 99}, {"time": 4131, "pitch": 69, "duration": 12, "velocity": 112}, {"time": 4143, "pitch": 76, "duration": 11, "velocity": 127}, {"time": 4155, "pitch": 74, "duration": 22, "velocity": 127}, {"time": 4179, "pitch": 76, "duration": 9, "velocity": 127}, {"time": 4203, "pitch": 62, "duration": 16, "velocity": 122}, {"time": 4221, "pitch": 64, "duration": 5, "velocity": 122}, {"time": 4227, "pitch": 67, "duration": 12, "velocity": 107}, {"time": 4239, "pitch": 62, "duration": 8, "velocity": 112}, {"time": 4251, "pitch": 72, "duration": 6, "velocity": 127}, {"time": 4257, "pitch": 71, "duration": 6, "velocity": 100}, {"time": 4263, "pitch": 69, "duration": 6, "velocity": 127}, {"time": 4269, "pitch": 64, "duration": 7, "velocity": 102}, {"time": 4275, "pitch": 69, "duration": 15, "velocity": 127}]}, {"program": 0, "is_drum": false, "name": "PIANO", "notes": [{"time": 399, "pitch": 45, "duration": 6, "velocity": 93}, {"time": 411, "pitch": 45, "duration": 15, "velocity": 95}, {"time": 423, "pitch": 64, "duration": 14, "velocity": 75}, {"time": 423, "pitch": 69, "duration": 15, "velocity": 78}, {"time": 423, "pitch": 72, "duration": 15, "velocity": 72}, {"time": 429, "pitch": 45, "duration": 3, "velocity": 96}, {"time": 435, "pitch": 45, "duration": 17, "velocity": 93}, {"time": 441, "pitch": 69, "duration": 10, "velocity": 96}, {"time": 441, "pitch": 72, "duration": 14, "velocity": 93}, {"time": 453, "pitch": 64, "duration": 6, "velocity": 97}, {"time": 459, "pitch": 48, "duration": 13, "velocity": 77}, {"time": 465, "pitch": 60, "duration": 17, "velocity": 82}, {"time": 465, "pitch": 64, "duration": 18, "velocity": 90}, {"time": 465, "pitch": 67, "duration": 18, "velocity": 86}, {"time": 477, "pitch": 48, "duration": 4, "velocity": 92}, {"time": 483, "pitch": 40, "duration": 15, "velocity": 96}, {"time": 489, "pitch": 59, "duration": 9, "velocity": 69}, {"time": 495, "pitch": 64, "duration": 11, "velocity": 92}, {"time": 495, "pitch": 67, "duration": 12, "velocity": 95}, {"time": 501, "pitch": 47, "duration": 4, "velocity": 75}, {"time": 507, "pitch": 43, "duration": 15, "velocity": 79}, {"time": 513, "pitch": 55, "duration": 8, "velocity": 81}, {"time": 519, "pitch": 59, "duration": 13, "velocity": 89}, {"time": 519, "pitch": 62, "duration": 14, "velocity": 95}, {"time": 525, "pitch": 50, "duration": 5, "velocity": 89}, {"time": 531, "pitch": 43, "duration": 14, "velocity": 88}, {"time": 537, "pitch": 55, "duration": 15, "velocity": 71}, {"time": 543, "pitch": 50, "duration": 11, "velocity": 93}, {"time": 549, "pitch": 59, "duration": 4, "velocity": 86}, {"time": 549, "pitch": 62, "duration": 5, "velocity": 89}, {"time": 555, "pitch": 60, "duration": 5, "velocity": 122}, {"time": 555, "pitch": 72, "duration": 6, "velocity": 122}, {"time": 561, "pitch": 59, "duration": 7, "velocity": 97}, {"time": 561, "pitch": 71, "duration": 6, "velocity": 88}, {"time": 567, "pitch": 57, "duration": 4, "velocity": 97}, {"time": 567, "pitch": 69, "duration": 6, "velocity": 92}, {"time": 573, "pitch": 52, "duration": 6, "velocity": 96}, {"time": 573, "pitch": 64, "duration": 5, "velocity": 85}, {"time": 579, "pitch": 57, "duration": 9, "velocity": 122}, {"time": 579, "pitch": 69, "duration": 8, "velocity": 107}, {"time": 603, "pitch": 45, "duration": 21, "velocity": 97}, {"time": 609, "pitch": 52, "duration": 19, "velocity": 63}, {"time": 615, "pitch": 60, "duration": 10, "velocity": 34}, {"time": 621, "pitch": 57, "duration": 9, "velocity": 76}, {"time": 627, "pitch": 45, "duration": 15, "velocity": 62}, {"time": 633, "pitch": 57, "duration": 19, "velocity": 75}, {"time": 639, "pitch": 64, "duration": 12, "velocity": 97}, {"time": 645, "pitch": 45, "duration": 5, "velocity": 81}, {"time": 651, "pitch": 50, "duration": 16, "velocity": 82}, {"time": 657, "pitch": 57, "duration": 14, "velocity": 81}, {"time": 663, "pitch": 65, "duration": 10, "velocity": 92}, {"time": 669, "pitch": 50, "duration": 6, "velocity": 88}, {"time": 669, "pitch": 62, "duration": 6, "velocity": 63}, {"time": 675, "pitch": 45, "duration": 16, "velocity": 72}, {"time": 681, "pitch": 57, "duration": 8, "velocity": 78}, {"time": 687, "pitch": 64, "duration": 12, "velocity": 97}, {"time": 693, "pitch": 60, "duration": 6, "velocity": 82}, {"time": 699, "pitch": 43, "duration": 14, "velocity": 74}, {"time": 705, "pitch": 55, "duration": 21, "velocity": 56}, {"time": 711, "pitch": 62, "duration": 16, "velocity": 99}, {"time": 717, "pitch": 43, "duration": 3, "velocity": 83}, {"time": 723, "pitch": 43, "duration": 14, "velocity": 83}, {"time": 729, "pitch": 55, "duration": 21, "velocity": 88}, {"time": 735, "pitch": 59, "duration": 11, "velocity": 102}, {"time": 741, "pitch": 62, "duration": 5, "velocity": 89}, {"time": 747, "pitch": 36, "duration": 16, "velocity": 93}, {"time": 753, "pitch": 55, "duration": 13, "velocity": 82}, {"time": 759, "pitch": 64, "duration": 12, "velocity": 99}, {"time": 765, "pitch": 60, "duration": 5, "velocity": 97}, {"time": 771, "pitch": 40, "duration": 15, "velocity": 96}, {"time": 777, "pitch": 59, "duration": 8, "velocity": 93}, {"time": 783, "pitch": 67, "duration": 12, "velocity": 93}, {"time": 789, "pitch": 64, "duration": 6, "velocity": 79}, {"time": 795, "pitch": 45, "duration": 21, "velocity": 71}, {"time": 801, "pitch": 57, "duration": 8, "velocity": 70}, {"time": 807, "pitch": 64, "duration": 15, "velocity": 97}, {"time": 813, "pitch": 57, "duration": 8, "velocity": 85}, {"time": 819, "pitch": 45, "duration": 14, "velocity": 99}, {"time": 825, "pitch": 57, "duration": 19, "velocity": 85}, {"time": 831, "pitch": 64, "duration": 9, "velocity": 102}, {"time": 837, "pitch": 45, "duration": 4, "velocity": 100}, {"time": 843, "pitch": 38, "duration": 14, "velocity": 88}, {"time": 849, "pitch": 57, "duration": 17, "velocity": 81}, {"time": 855, "pitch": 65, "duration": 11, "velocity": 96}, {"time": 861, "pitch": 38, "duration": 4, "velocity": 83}, {"time": 867, "pitch": 38, "duration": 17, "velocity": 95}, {"time": 873, "pitch": 57, "duration": 19, "velocity": 69}, {"time": 879, "pitch": 65, "duration": 11, "velocity": 96}, {"time": 885, "pitch": 62, "duration": 6, "velocity": 93}, {"time": 891, "pitch": 43, "duration": 8, "velocity": 93}, {"time": 897, "pitch": 50, "duration": 11, "velocity": 89}, {"time": 903, "pitch": 62, "duration": 19, "velocity": 99}, {"time": 909, "pitch": 43, "duration": 3, "velocity": 68}, {"time": 915, "pitch": 43, "duration": 18, "velocity": 92}, {"time": 921, "pitch": 55, "duration": 21, "velocity": 86}, {"time": 927, "pitch": 62, "duration": 9, "velocity": 100}, {"time": 933, "pitch": 59, "duration": 4, "velocity": 97}, {"time": 939, "pitch": 36, "duration": 11, "velocity": 90}, {"time": 945, "pitch": 55, "duration": 12, "velocity": 83}, {"time": 951, "pitch": 48, "duration": 8, "velocity": 99}, {"time": 951, "pitch": 64, "duration": 11, "velocity": 96}, {"time": 957, "pitch": 47, "duration": 6, "velocity": 65}, {"time": 957, "pitch": 60, "duration": 6, "velocity": 79}, {"time": 963, "pitch": 45, "duration": 22, "velocity": 99}, {"time": 969, "pitch": 57, "duration": 9, "velocity": 85}, {"time": 975, "pitch": 64, "duration": 13, "velocity": 99}, {"time": 981, "pitch": 60, "duration": 9, "velocity": 89}, {"time": 987, "pitch": 45, "duration": 11, "velocity": 90}, {"time": 993, "pitch": 52, "duration": 13, "velocity": 79}, {"time": 999, "pitch": 64, "duration": 17, "velocity": 102}, {"time": 1005, "pitch": 45, "duration": 22, "velocity": 85}, {"time": 1011, "pitch": 52, "duration": 14, "velocity": 97}, {"time": 1017, "pitch": 57, "duration": 15, "velocity": 79}, {"time": 1023, "pitch": 64, "duration": 11, "velocity": 122}, {"time": 1029, "pitch": 60, "duration": 5, "velocity": 99}, {"time": 1035, "pitch": 38, "duration": 13, "velocity": 86}, {"time": 1041, "pitch": 45, "duration": 10, "velocity": 61}, {"time": 1041, "pitch": 57, "duration": 12, "velocity": 92}, {"time": 1047, "pitch": 65, "duration": 12, "velocity": 102}, {"time": 1053, "pitch": 62, "duration": 7, "velocity": 95}, {"time": 1059, "pitch": 45, "duration": 18, "velocity": 82}, {"time": 1065, "pitch": 52, "duration": 13, "velocity": 89}, {"time": 1071, "pitch": 64, "duration": 11, "velocity": 112}, {"time": 1077, "pitch": 60, "duration": 5, "velocity": 89}, {"time": 1080, "pitch": 57, "duration": 4, "velocity": 78}, {"time": 1083, "pitch": 43, "duration": 20, "velocity": 88}, {"time": 1089, "pitch": 50, "duration": 18, "velocity": 75}, {"time": 1095, "pitch": 62, "duration": 13, "velocity": 100}, {"time": 1101, "pitch": 59, "duration": 15, "velocity": 95}, {"time": 1107, "pitch": 43, "duration": 23, "velocity": 93}, {"time": 1113, "pitch": 50, "duration": 14, "velocity": 93}, {"time": 1119, "pitch": 62, "duration": 10, "velocity": 107}, {"time": 1125, "pitch": 59, "duration": 4, "velocity": 100}, {"time": 1131, "pitch": 48, "duration": 14, "velocity": 107}, {"time": 1137, "pitch": 55, "duration": 9, "velocity": 95}, {"time": 1143, "pitch": 64, "duration": 9, "velocity": 107}, {"time": 1149, "pitch": 62, "duration": 5, "velocity": 100}, {"time": 1155, "pitch": 40, "duration": 16, "velocity": 93}, {"time": 1161, "pitch": 47, "duration": 11, "velocity": 69}, {"time": 1161, "pitch": 52, "duration": 8, "velocity": 89}, {"time": 1161, "pitch": 58, "duration": 2, "velocity": 35}, {"time": 1167, "pitch": 59, "duration": 9, "velocity": 99}, {"time": 1173, "pitch": 55, "duration": 5, "velocity": 92}, {"time": 1179, "pitch": 45, "duration": 22, "velocity": 83}, {"time": 1185, "pitch": 52, "duration": 19, "velocity": 100}, {"time": 1191, "pitch": 64, "duration": 10, "velocity": 99}, {"time": 1197, "pitch": 60, "duration": 16, "velocity": 93}, {"time": 1203, "pitch": 45, "duration": 23, "velocity": 89}, {"time": 1209, "pitch": 52, "duration": 12, "velocity": 112}, {"time": 1215, "pitch": 64, "duration": 11, "velocity": 99}, {"time": 1221, "pitch": 60, "duration": 5, "velocity": 99}, {"time": 1227, "pitch": 50, "duration": 15, "velocity": 95}, {"time": 1233, "pitch": 57, "duration": 23, "velocity": 79}, {"time": 1239, "pitch": 65, "duration": 15, "velocity": 99}, {"time": 1245, "pitch": 50, "duration": 3, "velocity": 99}, {"time": 1251, "pitch": 50, "duration": 23, "velocity": 99}, {"time": 1257, "pitch": 65, "duration": 14, "velocity": 107}, {"time": 1263, "pitch": 62, "duration": 8, "velocity": 95}, {"time": 1269, "pitch": 57, "duration": 7, "velocity": 99}, {"time": 1275, "pitch": 43, "duration": 15, "velocity": 70}, {"time": 1281, "pitch": 55, "duration": 20, "velocity": 90}, {"time": 1287, "pitch": 62, "duration": 15, "velocity": 102}, {"time": 1293, "pitch": 43, "duration": 3, "velocity": 90}, {"time": 1299, "pitch": 43, "duration": 22, "velocity": 89}, {"time": 1305, "pitch": 62, "duration": 14, "velocity": 102}, {"time": 1311, "pitch": 59, "duration": 7, "velocity": 92}, {"time": 1317, "pitch": 55, "duration": 4, "velocity": 88}, {"time": 1323, "pitch": 48, "duration": 7, "velocity": 112}, {"time": 1323, "pitch": 60, "duration": 7, "velocity": 107}, {"time": 1329, "pitch": 47, "duration": 6, "velocity": 74}, {"time": 1329, "pitch": 59, "duration": 6, "velocity": 102}, {"time": 1335, "pitch": 43, "duration": 4, "velocity": 107}, {"time": 1335, "pitch": 55, "duration": 5, "velocity": 102}, {"time": 1341, "pitch": 47, "duration": 5, "velocity": 117}, {"time": 1341, "pitch": 59, "duration": 4, "velocity": 112}, {"time": 1347, "pitch": 45, "duration": 15, "velocity": 112}, {"time": 1347, "pitch": 57, "duration": 15, "velocity": 99}, {"time": 1371, "pitch": 45, "duration": 19, "velocity": 102}, {"time": 1377, "pitch": 57, "duration": 7, "velocity": 82}, {"time": 1380, "pitch": 52, "duration": 4, "velocity": 66}, {"time": 1383, "pitch": 64, "duration": 8, "velocity": 99}, {"time": 1386, "pitch": 52, "duration": 8, "velocity": 92}, {"time": 1389, "pitch": 60, "duration": 4, "velocity": 89}, {"time": 1392, "pitch": 57, "duration": 4, "velocity": 92}, {"time": 1395, "pitch": 45, "duration": 21, "velocity": 78}, {"time": 1401, "pitch": 57, "duration": 5, "velocity": 92}, {"time": 1404, "pitch": 52, "duration": 4, "velocity": 93}, {"time": 1407, "pitch": 64, "duration": 8, "velocity": 96}, {"time": 1410, "pitch": 52, "duration": 5, "velocity": 92}, {"time": 1413, "pitch": 60, "duration": 4, "velocity": 97}, {"time": 1416, "pitch": 57, "duration": 3, "velocity": 90}, {"time": 1419, "pitch": 43, "duration": 22, "velocity": 96}, {"time": 1425, "pitch": 55, "duration": 4, "velocity": 92}, {"time": 1428, "pitch": 50, "duration": 14, "velocity": 93}, {"time": 1431, "pitch": 62, "duration": 7, "velocity": 127}, {"time": 1437, "pitch": 59, "duration": 3, "velocity": 92}, {"time": 1440, "pitch": 55, "duration": 4, "velocity": 77}, {"time": 1443, "pitch": 48, "duration": 7, "velocity": 95}, {"time": 1449, "pitch": 55, "duration": 5, "velocity": 90}, {"time": 1452, "pitch": 48, "duration": 4, "velocity": 86}, {"time": 1455, "pitch": 64, "duration": 10, "velocity": 93}, {"time": 1458, "pitch": 48, "duration": 3, "velocity": 93}, {"time": 1461, "pitch": 60, "duration": 4, "velocity": 93}, {"time": 1464, "pitch": 55, "duration": 4, "velocity": 99}, {"time": 1467, "pitch": 43, "duration": 21, "velocity": 92}, {"time": 1473, "pitch": 59, "duration": 3, "velocity": 83}, {"time": 1476, "pitch": 50, "duration": 4, "velocity": 96}, {"time": 1479, "pitch": 62, "duration": 5, "velocity": 97}, {"time": 1482, "pitch": 50, "duration": 10, "velocity": 88}, {"time": 1485, "pitch": 59, "duration": 4, "velocity": 83}, {"time": 1488, "pitch": 55, "duration": 3, "velocity": 89}, {"time": 1491, "pitch": 43, "duration": 18, "velocity": 90}, {"time": 1497, "pitch": 62, "duration": 5, "velocity": 78}, {"time": 1500, "pitch": 50, "duration": 5, "velocity": 86}, {"time": 1503, "pitch": 71, "duration": 10, "velocity": 100}, {"time": 1506, "pitch": 50, "duration": 3, "velocity": 93}, {"time": 1509, "pitch": 67, "duration": 4, "velocity": 97}, {"time": 1512, "pitch": 62, "duration": 3, "velocity": 99}, {"time": 1515, "pitch": 36, "duration": 17, "velocity": 82}, {"time": 1521, "pitch": 55, "duration": 5, "velocity": 89}, {"time": 1524, "pitch": 43, "duration": 4, "velocity": 88}, {"time": 1527, "pitch": 64, "duration": 10, "velocity": 100}, {"time": 1530, "pitch": 43, "duration": 3, "velocity": 96}, {"time": 1533, "pitch": 60, "duration": 4, "velocity": 102}, {"time": 1536, "pitch": 55, "duration": 3, "velocity": 83}, {"time": 1539, "pitch": 40, "duration": 18, "velocity": 85}, {"time": 1542, "pitch": 47, "duration": 16, "velocity": 99}, {"time": 1545, "pitch": 52, "duration": 8, "velocity": 99}, {"time": 1548, "pitch": 55, "duration": 3, "velocity": 88}, {"time": 1551, "pitch": 59, "duration": 7, "velocity": 122}, {"time": 1557, "pitch": 55, "duration": 4, "velocity": 112}, {"time": 1560, "pitch": 59, "duration": 3, "velocity": 86}, {"time": 1563, "pitch": 45, "duration": 22, "velocity": 89}, {"time": 1566, "pitch": 52, "duration": 11, "velocity": 90}, {"time": 1569, "pitch": 57, "duration": 5, "velocity": 97}, {"time": 1572, "pitch": 59, "duration": 3, "velocity": 85}, {"time": 1575, "pitch": 64, "duration": 10, "velocity": 112}, {"time": 1578, "pitch": 52, "duration": 4, "velocity": 67}, {"time": 1581, "pitch": 52, "duration": 1, "velocity": 56}, {"time": 1581, "pitch": 60, "duration": 5, "velocity": 97}, {"time": 1584, "pitch": 57, "duration": 3, "velocity": 78}, {"time": 1587, "pitch": 45, "duration": 22, "velocity": 88}, {"time": 1590, "pitch": 52, "duration": 11, "velocity": 78}, {"time": 1593, "pitch": 57, "duration": 5, "velocity": 77}, {"time": 1596, "pitch": 60, "duration": 3, "velocity": 77}, {"time": 1599, "pitch": 64, "duration": 8, "velocity": 100}, {"time": 1602, "pitch": 52, "duration": 5, "velocity": 58}, {"time": 1605, "pitch": 60, "duration": 4, "velocity": 96}, {"time": 1608, "pitch": 57, "duration": 4, "velocity": 90}, {"time": 1608, "pitch": 64, "duration": 2, "velocity": 39}, {"time": 1611, "pitch": 43, "duration": 23, "velocity": 81}, {"time": 1614, "pitch": 50, "duration": 12, "velocity": 77}, {"time": 1617, "pitch": 55, "duration": 4, "velocity": 86}, {"time": 1620, "pitch": 59, "duration": 3, "velocity": 79}, {"time": 1623, "pitch": 62, "duration": 8, "velocity": 127}, {"time": 1629, "pitch": 59, "duration": 3, "velocity": 96}, {"time": 1632, "pitch": 55, "duration": 4, "velocity": 85}, {"time": 1635, "pitch": 48, "duration": 25, "velocity": 74}, {"time": 1638, "pitch": 55, "duration": 5, "velocity": 76}, {"time": 1641, "pitch": 60, "duration": 4, "velocity": 89}, {"time": 1644, "pitch": 64, "duration": 4, "velocity": 107}, {"time": 1647, "pitch": 60, "duration": 8, "velocity": 97}, {"time": 1653, "pitch": 55, "duration": 7, "velocity": 93}, {"time": 1659, "pitch": 43, "duration": 22, "velocity": 70}, {"time": 1662, "pitch": 50, "duration": 20, "velocity": 62}, {"time": 1665, "pitch": 55, "duration": 4, "velocity": 73}, {"time": 1668, "pitch": 59, "duration": 3, "velocity": 63}, {"time": 1671, "pitch": 62, "duration": 8, "velocity": 117}, {"time": 1677, "pitch": 59, "duration": 4, "velocity": 95}, {"time": 1680, "pitch": 55, "duration": 4, "velocity": 69}, {"time": 1683, "pitch": 43, "duration": 16, "velocity": 72}, {"time": 1686, "pitch": 50, "duration": 11, "velocity": 72}, {"time": 1689, "pitch": 55, "duration": 4, "velocity": 77}, {"time": 1692, "pitch": 59, "duration": 4, "velocity": 79}, {"time": 1695, "pitch": 62, "duration": 9, "velocity": 107}, {"time": 1701, "pitch": 59, "duration": 4, "velocity": 102}, {"time": 1704, "pitch": 55, "duration": 2, "velocity": 72}, {"time": 1707, "pitch": 36, "duration": 13, "velocity": 72}, {"time": 1710, "pitch": 55, "duration": 9, "velocity": 89}, {"time": 1719, "pitch": 64, "duration": 9, "velocity": 96}, {"time": 1725, "pitch": 60, "duration": 8, "velocity": 107}, {"time": 1731, "pitch": 45, "duration": 22, "velocity": 93}, {"time": 1737, "pitch": 57, "duration": 7, "velocity": 74}, {"time": 1743, "pitch": 52, "duration": 12, "velocity": 86}, {"time": 1743, "pitch": 60, "duration": 7, "velocity": 79}, {"time": 1743, "pitch": 64, "duration": 12, "velocity": 89}, {"time": 1749, "pitch": 57, "duration": 5, "velocity": 92}, {"time": 1755, "pitch": 45, "duration": 19, "velocity": 102}, {"time": 1761, "pitch": 57, "duration": 7, "velocity": 82}, {"time": 1764, "pitch": 52, "duration": 4, "velocity": 66}, {"time": 1767, "pitch": 64, "duration": 8, "velocity": 99}, {"time": 1770, "pitch": 52, "duration": 8, "velocity": 92}, {"time": 1773, "pitch": 60, "duration": 4, "velocity": 89}, {"time": 1776, "pitch": 57, "duration": 4, "velocity": 92}, {"time": 1779, "pitch": 45, "duration": 21, "velocity": 78}, {"time": 1785, "pitch": 57, "duration": 5, "velocity": 92}, {"time": 1788, "pitch": 52, "duration": 4, "velocity": 93}, {"time": 1791, "pitch": 64, "duration": 8, "velocity": 96}, {"time": 1794, "pitch": 52, "duration": 5, "velocity": 92}, {"time": 1797, "pitch": 60, "duration": 4, "velocity": 97}, {"time": 1800, "pitch": 57, "duration": 3, "velocity": 90}, {"time": 1803, "pitch": 43, "duration": 22, "velocity": 96}, {"time": 1809, "pitch": 55, "duration": 4, "velocity": 92}, {"time": 1812, "pitch": 50, "duration": 14, "velocity": 93}, {"time": 1815, "pitch": 62, "duration": 7, "velocity": 127}, {"time": 1821, "pitch": 59, "duration": 3, "velocity": 92}, {"time": 1824, "pitch": 55, "duration": 4, "velocity": 77}, {"time": 1827, "pitch": 48, "duration": 7, "velocity": 95}, {"time": 1833, "pitch": 55, "duration": 5, "velocity": 90}, {"time": 1836, "pitch": 48, "duration": 4, "velocity": 86}, {"time": 1839, "pitch": 64, "duration": 10, "velocity": 93}, {"time": 1842, "pitch": 48, "duration": 3, "velocity": 93}, {"time": 1845, "pitch": 60, "duration": 4, "velocity": 93}, {"time": 1848, "pitch": 55, "duration": 4, "velocity": 99}, {"time": 1851, "pitch": 43, "duration": 21, "velocity": 92}, {"time": 1857, "pitch": 59, "duration": 3, "velocity": 83}, {"time": 1860, "pitch": 50, "duration": 4, "velocity": 96}, {"time": 1863, "pitch": 62, "duration": 5, "velocity": 97}, {"time": 1866, "pitch": 50, "duration": 10, "velocity": 88}, {"time": 1869, "pitch": 59, "duration": 4, "velocity": 83}, {"time": 1872, "pitch": 55, "duration": 3, "velocity": 89}, {"time": 1875, "pitch": 43, "duration": 18, "velocity": 90}, {"time": 1881, "pitch": 62, "duration": 5, "velocity": 78}, {"time": 1884, "pitch": 50, "duration": 5, "velocity": 86}, {"time": 1887, "pitch": 71, "duration": 10, "velocity": 100}, {"time": 1890, "pitch": 50, "duration": 3, "velocity": 93}, {"time": 1893, "pitch": 67, "duration": 4, "velocity": 97}, {"time": 1896, "pitch": 62, "duration": 3, "velocity": 99}, {"time": 1899, "pitch": 36, "duration": 17, "velocity": 82}, {"time": 1905, "pitch": 55, "duration": 5, "velocity": 89}, {"time": 1908, "pitch": 43, "duration": 4, "velocity": 88}, {"time": 1911, "pitch": 64, "duration": 10, "velocity": 100}, {"time": 1914, "pitch": 43, "duration": 3, "velocity": 96}, {"time": 1917, "pitch": 60, "duration": 4, "velocity": 102}, {"time": 1920, "pitch": 55, "duration": 3, "velocity": 83}, {"time": 1923, "pitch": 40, "duration": 18, "velocity": 85}, {"time": 1926, "pitch": 47, "duration": 16, "velocity": 99}, {"time": 1929, "pitch": 52, "duration": 8, "velocity": 99}, {"time": 1932, "pitch": 55, "duration": 3, "velocity": 88}, {"time": 1935, "pitch": 59, "duration": 7, "velocity": 122}, {"time": 1941, "pitch": 55, "duration": 4, "velocity": 112}, {"time": 1944, "pitch": 59, "duration": 3, "velocity": 86}, {"time": 1947, "pitch": 45, "duration": 22, "velocity": 89}, {"time": 1950, "pitch": 52, "duration": 11, "velocity": 90}, {"time": 1953, "pitch": 57, "duration": 5, "velocity": 97}, {"time": 1956, "pitch": 59, "duration": 3, "velocity": 85}, {"time": 1959, "pitch": 64, "duration": 10, "velocity": 112}, {"time": 1962, "pitch": 52, "duration": 4, "velocity": 67}, {"time": 1965, "pitch": 52, "duration": 1, "velocity": 56}, {"time": 1965, "pitch": 60, "duration": 5, "velocity": 97}, {"time": 1968, "pitch": 57, "duration": 3, "velocity": 78}, {"time": 1971, "pitch": 45, "duration": 22, "velocity": 88}, {"time": 1974, "pitch": 52, "duration": 11, "velocity": 78}, {"time": 1977, "pitch": 57, "duration": 5, "velocity": 77}, {"time": 1980, "pitch": 60, "duration": 3, "velocity": 77}, {"time": 1983, "pitch": 64, "duration": 8, "velocity": 100}, {"time": 1986, "pitch": 52, "duration": 5, "velocity": 58}, {"time": 1989, "pitch": 60, "duration": 4, "velocity": 96}, {"time": 1992, "pitch": 57, "duration": 3, "velocity": 90}, {"time": 1992, "pitch": 64, "duration": 2, "velocity": 39}, {"time": 1995, "pitch": 36, "duration": 22, "velocity": 96}, {"time": 2001, "pitch": 55, "duration": 4, "velocity": 93}, {"time": 2004, "pitch": 60, "duration": 3, "velocity": 88}, {"time": 2007, "pitch": 64, "duration": 9, "velocity": 107}, {"time": 2013, "pitch": 55, "duration": 2, "velocity": 49}, {"time": 2013, "pitch": 60, "duration": 6, "velocity": 85}, {"time": 2019, "pitch": 38, "duration": 18, "velocity": 92}, {"time": 2025, "pitch": 45, "duration": 13, "velocity": 60}, {"time": 2028, "pitch": 57, "duration": 3, "velocity": 88}, {"time": 2031, "pitch": 66, "duration": 11, "velocity": 122}, {"time": 2037, "pitch": 62, "duration": 4, "velocity": 99}, {"time": 2040, "pitch": 57, "duration": 3, "velocity": 75}, {"time": 2043, "pitch": 43, "duration": 21, "velocity": 77}, {"time": 2046, "pitch": 50, "duration": 14, "velocity": 79}, {"time": 2049, "pitch": 55, "duration": 5, "velocity": 83}, {"time": 2052, "pitch": 59, "duration": 3, "velocity": 88}, {"time": 2055, "pitch": 62, "duration": 5, "velocity": 102}, {"time": 2058, "pitch": 59, "duration": 4, "velocity": 92}, {"time": 2061, "pitch": 55, "duration": 5, "velocity": 97}, {"time": 2064, "pitch": 59, "duration": 3, "velocity": 81}, {"time": 2067, "pitch": 43, "duration": 16, "velocity": 95}, {"time": 2073, "pitch": 55, "duration": 4, "velocity": 83}, {"time": 2076, "pitch": 59, "duration": 3, "velocity": 72}, {"time": 2079, "pitch": 62, "duration": 4, "velocity": 112}, {"time": 2082, "pitch": 59, "duration": 3, "velocity": 81}, {"time": 2085, "pitch": 55, "duration": 6, "velocity": 88}, {"time": 2088, "pitch": 59, "duration": 3, "velocity": 83}, {"time": 2091, "pitch": 36, "duration": 12, "velocity": 78}, {"time": 2097, "pitch": 55, "duration": 5, "velocity": 90}, {"time": 2100, "pitch": 60, "duration": 3, "velocity": 99}, {"time": 2103, "pitch": 64, "duration": 4, "velocity": 112}, {"time": 2106, "pitch": 60, "duration": 3, "velocity": 89}, {"time": 2109, "pitch": 59, "duration": 4, "velocity": 97}, {"time": 2112, "pitch": 60, "duration": 3, "velocity": 117}, {"time": 2115, "pitch": 45, "duration": 22, "velocity": 83}, {"time": 2121, "pitch": 57, "duration": 5, "velocity": 90}, {"time": 2124, "pitch": 52, "duration": 4, "velocity": 62}, {"time": 2127, "pitch": 64, "duration": 8, "velocity": 102}, {"time": 2130, "pitch": 52, "duration": 5, "velocity": 70}, {"time": 2133, "pitch": 60, "duration": 3, "velocity": 93}, {"time": 2136, "pitch": 57, "duration": 3, "velocity": 97}, {"time": 2139, "pitch": 45, "duration": 95, "velocity": 67}, {"time": 2139, "pitch": 52, "duration": 95, "velocity": 97}, {"time": 2139, "pitch": 57, "duration": 94, "velocity": 99}, {"time": 2139, "pitch": 64, "duration": 95, "velocity": 88}, {"time": 2235, "pitch": 45, "duration": 47, "velocity": 64}, {"time": 2241, "pitch": 57, "duration": 5, "velocity": 48}, {"time": 2247, "pitch": 52, "duration": 11, "velocity": 28}, {"time": 2247, "pitch": 57, "duration": 5, "velocity": 70}, {"time": 2247, "pitch": 60, "duration": 5, "velocity": 62}, {"time": 2247, "pitch": 64, "duration": 5, "velocity": 65}, {"time": 2253, "pitch": 57, "duration": 17, "velocity": 67}, {"time": 2253, "pitch": 60, "duration": 12, "velocity": 66}, {"time": 2253, "pitch": 64, "duration": 12, "velocity": 67}, {"time": 2265, "pitch": 60, "duration": 4, "velocity": 63}, {"time": 2265, "pitch": 64, "duration": 4, "velocity": 59}, {"time": 2268, "pitch": 52, "duration": 18, "velocity": 42}, {"time": 2271, "pitch": 57, "duration": 2, "velocity": 59}, {"time": 2271, "pitch": 60, "duration": 14, "velocity": 70}, {"time": 2271, "pitch": 64, "duration": 15, "velocity": 72}, {"time": 2277, "pitch": 57, "duration": 9, "velocity": 67}, {"time": 2283, "pitch": 45, "duration": 22, "velocity": 57}, {"time": 2289, "pitch": 57, "duration": 5, "velocity": 58}, {"time": 2289, "pitch": 60, "duration": 5, "velocity": 41}, {"time": 2289, "pitch": 64, "duration": 4, "velocity": 48}, {"time": 2295, "pitch": 57, "duration": 5, "velocity": 61}, {"time": 2295, "pitch": 60, "duration": 4, "velocity": 58}, {"time": 2295, "pitch": 64, "duration": 4, "velocity": 59}, {"time": 2301, "pitch": 57, "duration": 10, "velocity": 60}, {"time": 2301, "pitch": 60, "duration": 7, "velocity": 58}, {"time": 2301, "pitch": 64, "duration": 8, "velocity": 61}, {"time": 2307, "pitch": 45, "duration": 20, "velocity": 45}, {"time": 2313, "pitch": 57, "duration": 5, "velocity": 40}, {"time": 2313, "pitch": 60, "duration": 5, "velocity": 59}, {"time": 2313, "pitch": 64, "duration": 5, "velocity": 58}, {"time": 2319, "pitch": 57, "duration": 4, "velocity": 67}, {"time": 2319, "pitch": 60, "duration": 5, "velocity": 66}, {"time": 2319, "pitch": 64, "duration": 5, "velocity": 66}, {"time": 2325, "pitch": 57, "duration": 7, "velocity": 69}, {"time": 2325, "pitch": 60, "duration": 8, "velocity": 65}, {"time": 2325, "pitch": 64, "duration": 8, "velocity": 65}, {"time": 2331, "pitch": 45, "duration": 22, "velocity": 63}, {"time": 2337, "pitch": 57, "duration": 4, "velocity": 44}, {"time": 2337, "pitch": 60, "duration": 4, "velocity": 40}, {"time": 2337, "pitch": 64, "duration": 4, "velocity": 44}, {"time": 2343, "pitch": 57, "duration": 4, "velocity": 67}, {"time": 2343, "pitch": 60, "duration": 4, "velocity": 66}, {"time": 2343, "pitch": 64, "duration": 5, "velocity": 68}, {"time": 2349, "pitch": 57, "duration": 7, "velocity": 73}, {"time": 2349, "pitch": 60, "duration": 7, "velocity": 73}, {"time": 2349, "pitch": 64, "duration": 8, "velocity": 73}, {"time": 2355, "pitch": 45, "duration": 22, "velocity": 45}, {"time": 2361, "pitch": 57, "duration": 3, "velocity": 41}, {"time": 2361, "pitch": 60, "duration": 3, "velocity": 38}, {"time": 2361, "pitch": 64, "duration": 3, "velocity": 40}, {"time": 2367, "pitch": 57, "duration": 5, "velocity": 59}, {"time": 2367, "pitch": 60, "duration": 4, "velocity": 53}, {"time": 2367, "pitch": 64, "duration": 5, "velocity": 66}, {"time": 2373, "pitch": 57, "duration": 5, "velocity": 70}, {"time": 2373, "pitch": 60, "duration": 5, "velocity": 68}, {"time": 2373, "pitch": 64, "duration": 6, "velocity": 71}, {"time": 2379, "pitch": 45, "duration": 22, "velocity": 53}, {"time": 2385, "pitch": 57, "duration": 4, "velocity": 40}, {"time": 2385, "pitch": 60, "duration": 4, "velocity": 35}, {"time": 2385, "pitch": 64, "duration": 4, "velocity": 38}, {"time": 2391, "pitch": 57, "duration": 4, "velocity": 67}, {"time": 2391, "pitch": 60, "duration": 4, "velocity": 63}, {"time": 2391, "pitch": 64, "duration": 4, "velocity": 64}, {"time": 2397, "pitch": 57, "duration": 9, "velocity": 63}, {"time": 2397, "pitch": 60, "duration": 3, "velocity": 60}, {"time": 2397, "pitch": 64, "duration": 10, "velocity": 65}, {"time": 2403, "pitch": 45, "duration": 23, "velocity": 55}, {"time": 2409, "pitch": 57, "duration": 5, "velocity": 37}, {"time": 2409, "pitch": 60, "duration": 5, "velocity": 48}, {"time": 2409, "pitch": 64, "duration": 5, "velocity": 38}, {"time": 2415, "pitch": 60, "duration": 5, "velocity": 70}, {"time": 2415, "pitch": 64, "duration": 4, "velocity": 73}, {"time": 2421, "pitch": 60, "duration": 14, "velocity": 69}, {"time": 2421, "pitch": 64, "duration": 10, "velocity": 72}, {"time": 2427, "pitch": 45, "duration": 23, "velocity": 63}, {"time": 2433, "pitch": 57, "duration": 7, "velocity": 66}, {"time": 2439, "pitch": 60, "duration": 15, "velocity": 73}, {"time": 2439, "pitch": 64, "duration": 14, "velocity": 81}, {"time": 2445, "pitch": 57, "duration": 9, "velocity": 58}, {"time": 2451, "pitch": 45, "duration": 46, "velocity": 54}, {"time": 2457, "pitch": 57, "duration": 9, "velocity": 66}, {"time": 2463, "pitch": 60, "duration": 15, "velocity": 76}, {"time": 2463, "pitch": 64, "duration": 15, "velocity": 77}, {"time": 2469, "pitch": 57, "duration": 9, "velocity": 59}, {"time": 2475, "pitch": 52, "duration": 22, "velocity": 48}, {"time": 2481, "pitch": 57, "duration": 11, "velocity": 44}, {"time": 2481, "pitch": 60, "duration": 4, "velocity": 52}, {"time": 2481, "pitch": 64, "duration": 4, "velocity": 57}, {"time": 2487, "pitch": 60, "duration": 4, "velocity": 82}, {"time": 2487, "pitch": 64, "duration": 4, "velocity": 85}, {"time": 2493, "pitch": 57, "duration": 9, "velocity": 71}, {"time": 2493, "pitch": 60, "duration": 9, "velocity": 68}, {"time": 2493, "pitch": 64, "duration": 9, "velocity": 66}, {"time": 2499, "pitch": 45, "duration": 22, "velocity": 58}, {"time": 2505, "pitch": 57, "duration": 4, "velocity": 37}, {"time": 2505, "pitch": 60, "duration": 4, "velocity": 42}, {"time": 2505, "pitch": 64, "duration": 4, "velocity": 40}, {"time": 2511, "pitch": 57, "duration": 4, "velocity": 62}, {"time": 2511, "pitch": 60, "duration": 4, "velocity": 63}, {"time": 2511, "pitch": 64, "duration": 4, "velocity": 64}, {"time": 2517, "pitch": 57, "duration": 6, "velocity": 68}, {"time": 2517, "pitch": 60, "duration": 6, "velocity": 66}, {"time": 2517, "pitch": 64, "duration": 6, "velocity": 69}, {"time": 2523, "pitch": 45, "duration": 22, "velocity": 72}, {"time": 2529, "pitch": 57, "duration": 4, "velocity": 56}, {"time": 2529, "pitch": 60, "duration": 4, "velocity": 48}, {"time": 2529, "pitch": 64, "duration": 4, "velocity": 46}, {"time": 2535, "pitch": 57, "duration": 4, "velocity": 50}, {"time": 2535, "pitch": 60, "duration": 4, "velocity": 56}, {"time": 2535, "pitch": 64, "duration": 4, "velocity": 56}, {"time": 2541, "pitch": 57, "duration": 9, "velocity": 72}, {"time": 2541, "pitch": 60, "duration": 9, "velocity": 67}, {"time": 2541, "pitch": 64, "duration": 8, "velocity": 67}, {"time": 2547, "pitch": 45, "duration": 17, "velocity": 59}, {"time": 2553, "pitch": 57, "duration": 5, "velocity": 67}, {"time": 2553, "pitch": 60, "duration": 5, "velocity": 59}, {"time": 2553, "pitch": 64, "duration": 5, "velocity": 62}, {"time": 2559, "pitch": 57, "duration": 4, "velocity": 93}, {"time": 2559, "pitch": 60, "duration": 4, "velocity": 88}, {"time": 2559, "pitch": 64, "duration": 4, "velocity": 92}, {"time": 2565, "pitch": 57, "duration": 4, "velocity": 112}, {"time": 2565, "pitch": 60, "duration": 4, "velocity": 112}, {"time": 2565, "pitch": 64, "duration": 4, "velocity": 102}, {"time": 2571, "pitch": 45, "duration": 21, "velocity": 97}, {"time": 2577, "pitch": 52, "duration": 19, "velocity": 63}, {"time": 2583, "pitch": 60, "duration": 10, "velocity": 34}, {"time": 2589, "pitch": 57, "duration": 9, "velocity": 76}, {"time": 2595, "pitch": 45, "duration": 15, "velocity": 62}, {"time": 2601, "pitch": 57, "duration": 19, "velocity": 75}, {"time": 2607, "pitch": 64, "duration": 12, "velocity": 97}, {"time": 2613, "pitch": 45, "duration": 5, "velocity": 81}, {"time": 2619, "pitch": 50, "duration": 16, "velocity": 82}, {"time": 2625, "pitch": 57, "duration": 14, "velocity": 81}, {"time": 2631, "pitch": 65, "duration": 10, "velocity": 92}, {"time": 2637, "pitch": 50, "duration": 6, "velocity": 88}, {"time": 2637, "pitch": 62, "duration": 6, "velocity": 63}, {"time": 2643, "pitch": 45, "duration": 16, "velocity": 72}, {"time": 2649, "pitch": 57, "duration": 8, "velocity": 78}, {"time": 2655, "pitch": 64, "duration": 12, "velocity": 97}, {"time": 2661, "pitch": 60, "duration": 6, "velocity": 82}, {"time": 2667, "pitch": 43, "duration": 14, "velocity": 74}, {"time": 2673, "pitch": 55, "duration": 21, "velocity": 56}, {"time": 2679, "pitch": 62, "duration": 16, "velocity": 99}, {"time": 2685, "pitch": 43, "duration": 3, "velocity": 83}, {"time": 2691, "pitch": 43, "duration": 14, "velocity": 83}, {"time": 2697, "pitch": 55, "duration": 21, "velocity": 88}, {"time": 2703, "pitch": 59, "duration": 11, "velocity": 102}, {"time": 2709, "pitch": 62, "duration": 5, "velocity": 89}, {"time": 2715, "pitch": 36, "duration": 16, "velocity": 93}, {"time": 2721, "pitch": 55, "duration": 13, "velocity": 82}, {"time": 2727, "pitch": 64, "duration": 12, "velocity": 99}, {"time": 2733, "pitch": 60, "duration": 5, "velocity": 97}, {"time": 2739, "pitch": 40, "duration": 15, "velocity": 96}, {"time": 2745, "pitch": 59, "duration": 8, "velocity": 93}, {"time": 2751, "pitch": 67, "duration": 12, "velocity": 93}, {"time": 2757, "pitch": 64, "duration": 6, "velocity": 79}, {"time": 2763, "pitch": 45, "duration": 21, "velocity": 71}, {"time": 2769, "pitch": 57, "duration": 8, "velocity": 70}, {"time": 2775, "pitch": 64, "duration": 15, "velocity": 97}, {"time": 2781, "pitch": 57, "duration": 8, "velocity": 85}, {"time": 2787, "pitch": 45, "duration": 14, "velocity": 99}, {"time": 2793, "pitch": 57, "duration": 19, "velocity": 85}, {"time": 2799, "pitch": 64, "duration": 9, "velocity": 102}, {"time": 2805, "pitch": 45, "duration": 4, "velocity": 100}, {"time": 2811, "pitch": 38, "duration": 14, "velocity": 88}, {"time": 2817, "pitch": 57, "duration": 17, "velocity": 81}, {"time": 2823, "pitch": 65, "duration": 11, "velocity": 96}, {"time": 2829, "pitch": 38, "duration": 4, "velocity": 83}, {"time": 2835, "pitch": 38, "duration": 17, "velocity": 95}, {"time": 2841, "pitch": 57, "duration": 19, "velocity": 69}, {"time": 2847, "pitch": 65, "duration": 11, "velocity": 96}, {"time": 2853, "pitch": 62, "duration": 6, "velocity": 93}, {"time": 2859, "pitch": 43, "duration": 8, "velocity": 93}, {"time": 2865, "pitch": 50, "duration": 11, "velocity": 89}, {"time": 2871, "pitch": 62, "duration": 19, "velocity": 99}, {"time": 2877, "pitch": 43, "duration": 3, "velocity": 68}, {"time": 2883, "pitch": 43, "duration": 18, "velocity": 92}, {"time": 2889, "pitch": 55, "duration": 21, "velocity": 86}, {"time": 2895, "pitch": 62, "duration": 9, "velocity": 100}, {"time": 2901, "pitch": 59, "duration": 4, "velocity": 97}, {"time": 2907, "pitch": 36, "duration": 11, "velocity": 90}, {"time": 2913, "pitch": 55, "duration": 12, "velocity": 83}, {"time": 2919, "pitch": 48, "duration": 8, "velocity": 99}, {"time": 2919, "pitch": 64, "duration": 11, "velocity": 96}, {"time": 2925, "pitch": 47, "duration": 6, "velocity": 65}, {"time": 2925, "pitch": 60, "duration": 6, "velocity": 79}, {"time": 2931, "pitch": 45, "duration": 22, "velocity": 99}, {"time": 2937, "pitch": 57, "duration": 9, "velocity": 85}, {"time": 2943, "pitch": 64, "duration": 13, "velocity": 99}, {"time": 2949, "pitch": 60, "duration": 9, "velocity": 89}, {"time": 2955, "pitch": 45, "duration": 11, "velocity": 90}, {"time": 2961, "pitch": 52, "duration": 13, "velocity": 79}, {"time": 2967, "pitch": 64, "duration": 17, "velocity": 102}, {"time": 2973, "pitch": 45, "duration": 22, "velocity": 85}, {"time": 2979, "pitch": 52, "duration": 14, "velocity": 97}, {"time": 2985, "pitch": 57, "duration": 15, "velocity": 79}, {"time": 2991, "pitch": 64, "duration": 11, "velocity": 122}, {"time": 2997, "pitch": 60, "duration": 5, "velocity": 99}, {"time": 3003, "pitch": 38, "duration": 13, "velocity": 86}, {"time": 3009, "pitch": 45, "duration": 10, "velocity": 61}, {"time": 3009, "pitch": 57, "duration": 12, "velocity": 92}, {"time": 3015, "pitch": 65, "duration": 12, "velocity": 102}, {"time": 3021, "pitch": 62, "duration": 7, "velocity": 95}, {"time": 3027, "pitch": 45, "duration": 18, "velocity": 82}, {"time": 3033, "pitch": 52, "duration": 13, "velocity": 89}, {"time": 3039, "pitch": 64, "duration": 11, "velocity": 112}, {"time": 3045, "pitch": 60, "duration": 5, "velocity": 89}, {"time": 3048, "pitch": 57, "duration": 4, "velocity": 78}, {"time": 3051, "pitch": 43, "duration": 20, "velocity": 88}, {"time": 3057, "pitch": 50, "duration": 18, "velocity": 75}, {"time": 3063, "pitch": 62, "duration": 13, "velocity": 100}, {"time": 3069, "pitch": 59, "duration": 15, "velocity": 95}, {"time": 3075, "pitch": 43, "duration": 23, "velocity": 93}, {"time": 3081, "pitch": 50, "duration": 14, "velocity": 93}, {"time": 3087, "pitch": 62, "duration": 10, "velocity": 107}, {"time": 3093, "pitch": 59, "duration": 4, "velocity": 100}, {"time": 3099, "pitch": 48, "duration": 14, "velocity": 107}, {"time": 3105, "pitch": 55, "duration": 9, "velocity": 95}, {"time": 3111, "pitch": 64, "duration": 9, "velocity": 107}, {"time": 3117, "pitch": 62, "duration": 5, "velocity": 100}, {"time": 3123, "pitch": 40, "duration": 16, "velocity": 93}, {"time": 3129, "pitch": 47, "duration": 11, "velocity": 69}, {"time": 3129, "pitch": 52, "duration": 8, "velocity": 89}, {"time": 3129, "pitch": 58, "duration": 2, "velocity": 35}, {"time": 3135, "pitch": 59, "duration": 9, "velocity": 99}, {"time": 3141, "pitch": 55, "duration": 5, "velocity": 92}, {"time": 3147, "pitch": 45, "duration": 22, "velocity": 83}, {"time": 3153, "pitch": 52, "duration": 19, "velocity": 100}, {"time": 3159, "pitch": 64, "duration": 10, "velocity": 99}, {"time": 3165, "pitch": 60, "duration": 16, "velocity": 93}, {"time": 3171, "pitch": 45, "duration": 23, "velocity": 89}, {"time": 3177, "pitch": 52, "duration": 12, "velocity": 112}, {"time": 3183, "pitch": 64, "duration": 11, "velocity": 99}, {"time": 3189, "pitch": 60, "duration": 5, "velocity": 99}, {"time": 3195, "pitch": 50, "duration": 15, "velocity": 95}, {"time": 3201, "pitch": 57, "duration": 23, "velocity": 79}, {"time": 3207, "pitch": 65, "duration": 15, "velocity": 99}, {"time": 3213, "pitch": 50, "duration": 3, "velocity": 99}, {"time": 3219, "pitch": 50, "duration": 23, "velocity": 99}, {"time": 3225, "pitch": 65, "duration": 14, "velocity": 107}, {"time": 3231, "pitch": 62, "duration": 8, "velocity": 95}, {"time": 3237, "pitch": 57, "duration": 7, "velocity": 99}, {"time": 3243, "pitch": 43, "duration": 15, "velocity": 70}, {"time": 3249, "pitch": 55, "duration": 20, "velocity": 90}, {"time": 3255, "pitch": 62, "duration": 15, "velocity": 102}, {"time": 3261, "pitch": 43, "duration": 3, "velocity": 90}, {"time": 3267, "pitch": 43, "duration": 22, "velocity": 89}, {"time": 3273, "pitch": 62, "duration": 14, "velocity": 102}, {"time": 3279, "pitch": 59, "duration": 7, "velocity": 92}, {"time": 3285, "pitch": 55, "duration": 4, "velocity": 88}, {"time": 3291, "pitch": 48, "duration": 7, "velocity": 112}, {"time": 3291, "pitch": 60, "duration": 7, "velocity": 107}, {"time": 3297, "pitch": 47, "duration": 6, "velocity": 74}, {"time": 3297, "pitch": 59, "duration": 6, "velocity": 102}, {"time": 3303, "pitch": 43, "duration": 4, "velocity": 107}, {"time": 3303, "pitch": 55, "duration": 5, "velocity": 102}, {"time": 3309, "pitch": 47, "duration": 5, "velocity": 117}, {"time": 3309, "pitch": 59, "duration": 4, "velocity": 112}, {"time": 3315, "pitch": 45, "duration": 15, "velocity": 112}, {"time": 3315, "pitch": 57, "duration": 15, "velocity": 99}, {"time": 3339, "pitch": 45, "duration": 19, "velocity": 102}, {"time": 3345, "pitch": 57, "duration": 7, "velocity": 82}, {"time": 3348, "pitch": 52, "duration": 4, "velocity": 66}, {"time": 3351, "pitch": 64, "duration": 8, "velocity": 99}, {"time": 3354, "pitch": 52, "duration": 8, "velocity": 92}, {"time": 3357, "pitch": 60, "duration": 4, "velocity": 89}, {"time": 3360, "pitch": 57, "duration": 4, "velocity": 92}, {"time": 3363, "pitch": 45, "duration": 21, "velocity": 78}, {"time": 3369, "pitch": 57, "duration": 5, "velocity": 92}, {"time": 3372, "pitch": 52, "duration": 4, "velocity": 93}, {"time": 3375, "pitch": 64, "duration": 8, "velocity": 96}, {"time": 3378, "pitch": 52, "duration": 5, "velocity": 92}, {"time": 3381, "pitch": 60, "duration": 4, "velocity": 97}, {"time": 3384, "pitch": 57, "duration": 3, "velocity": 90}, {"time": 3387, "pitch": 43, "duration": 22, "velocity": 96}, {"time": 3393, "pitch": 55, "duration": 4, "velocity": 92}, {"time": 3396, "pitch": 50, "duration": 14, "velocity": 93}, {"time": 3399, "pitch": 62, "duration": 7, "velocity": 127}, {"time": 3405, "pitch": 59, "duration": 3, "velocity": 92}, {"time": 3408, "pitch": 55, "duration": 4, "velocity": 77}, {"time": 3411, "pitch": 48, "duration": 7, "velocity": 95}, {"time": 3417, "pitch": 55, "duration": 5, "velocity": 90}, {"time": 3420, "pitch": 48, "duration": 4, "velocity": 86}, {"time": 3423, "pitch": 64, "duration": 10, "velocity": 93}, {"time": 3426, "pitch": 48, "duration": 3, "velocity": 93}, {"time": 3429, "pitch": 60, "duration": 4, "velocity": 93}, {"time": 3432, "pitch": 55, "duration": 4, "velocity": 99}, {"time": 3435, "pitch": 43, "duration": 21, "velocity": 92}, {"time": 3441, "pitch": 59, "duration": 3, "velocity": 83}, {"time": 3444, "pitch": 50, "duration": 4, "velocity": 96}, {"time": 3447, "pitch": 62, "duration": 5, "velocity": 97}, {"time": 3450, "pitch": 50, "duration": 10, "velocity": 88}, {"time": 3453, "pitch": 59, "duration": 4, "velocity": 83}, {"time": 3456, "pitch": 55, "duration": 3, "velocity": 89}, {"time": 3459, "pitch": 43, "duration": 18, "velocity": 90}, {"time": 3465, "pitch": 62, "duration": 5, "velocity": 78}, {"time": 3468, "pitch": 50, "duration": 5, "velocity": 86}, {"time": 3471, "pitch": 71, "duration": 10, "velocity": 100}, {"time": 3474, "pitch": 50, "duration": 3, "velocity": 93}, {"time": 3477, "pitch": 67, "duration": 4, "velocity": 97}, {"time": 3480, "pitch": 62, "duration": 3, "velocity": 99}, {"time": 3483, "pitch": 36, "duration": 17, "velocity": 82}, {"time": 3489, "pitch": 55, "duration": 5, "velocity": 89}, {"time": 3492, "pitch": 43, "duration": 4, "velocity": 88}, {"time": 3495, "pitch": 64, "duration": 10, "velocity": 100}, {"time": 3498, "pitch": 43, "duration": 3, "velocity": 96}, {"time": 3501, "pitch": 60, "duration": 4, "velocity": 102}, {"time": 3504, "pitch": 55, "duration": 3, "velocity": 83}, {"time": 3507, "pitch": 40, "duration": 18, "velocity": 85}, {"time": 3510, "pitch": 47, "duration": 16, "velocity": 99}, {"time": 3513, "pitch": 52, "duration": 8, "velocity": 99}, {"time": 3516, "pitch": 55, "duration": 3, "velocity": 88}, {"time": 3519, "pitch": 59, "duration": 7, "velocity": 122}, {"time": 3525, "pitch": 55, "duration": 4, "velocity": 112}, {"time": 3528, "pitch": 59, "duration": 3, "velocity": 86}, {"time": 3531, "pitch": 45, "duration": 22, "velocity": 89}, {"time": 3534, "pitch": 52, "duration": 11, "velocity": 90}, {"time": 3537, "pitch": 57, "duration": 5, "velocity": 97}, {"time": 3540, "pitch": 59, "duration": 3, "velocity": 85}, {"time": 3543, "pitch": 64, "duration": 10, "velocity": 112}, {"time": 3546, "pitch": 52, "duration": 4, "velocity": 67}, {"time": 3549, "pitch": 52, "duration": 1, "velocity": 56}, {"time": 3549, "pitch": 60, "duration": 5, "velocity": 97}, {"time": 3552, "pitch": 57, "duration": 3, "velocity": 78}, {"time": 3555, "pitch": 45, "duration": 22, "velocity": 88}, {"time": 3558, "pitch": 52, "duration": 11, "velocity": 78}, {"time": 3561, "pitch": 57, "duration": 5, "velocity": 77}, {"time": 3564, "pitch": 60, "duration": 3, "velocity": 77}, {"time": 3567, "pitch": 64, "duration": 8, "velocity": 100}, {"time": 3570, "pitch": 52, "duration": 5, "velocity": 58}, {"time": 3573, "pitch": 60, "duration": 4, "velocity": 96}, {"time": 3576, "pitch": 57, "duration": 4, "velocity": 90}, {"time": 3576, "pitch": 64, "duration": 2, "velocity": 39}, {"time": 3579, "pitch": 43, "duration": 23, "velocity": 81}, {"time": 3582, "pitch": 50, "duration": 12, "velocity": 77}, {"time": 3585, "pitch": 55, "duration": 4, "velocity": 86}, {"time": 3588, "pitch": 59, "duration": 3, "velocity": 79}, {"time": 3591, "pitch": 62, "duration": 8, "velocity": 127}, {"time": 3597, "pitch": 59, "duration": 3, "velocity": 96}, {"time": 3600, "pitch": 55, "duration": 4, "velocity": 85}, {"time": 3603, "pitch": 48, "duration": 25, "velocity": 74}, {"time": 3606, "pitch": 55, "duration": 5, "velocity": 76}, {"time": 3609, "pitch": 60, "duration": 4, "velocity": 89}, {"time": 3612, "pitch": 64, "duration": 4, "velocity": 107}, {"time": 3615, "pitch": 60, "duration": 8, "velocity": 97}, {"time": 3621, "pitch": 55, "duration": 7, "velocity": 93}, {"time": 3627, "pitch": 43, "duration": 22, "velocity": 70}, {"time": 3630, "pitch": 50, "duration": 20, "velocity": 62}, {"time": 3633, "pitch": 55, "duration": 4, "velocity": 73}, {"time": 3636, "pitch": 59, "duration": 3, "velocity": 63}, {"time": 3639, "pitch": 62, "duration": 8, "velocity": 117}, {"time": 3645, "pitch": 59, "duration": 4, "velocity": 95}, {"time": 3648, "pitch": 55, "duration": 4, "velocity": 69}, {"time": 3651, "pitch": 43, "duration": 16, "velocity": 72}, {"time": 3654, "pitch": 50, "duration": 11, "velocity": 72}, {"time": 3657, "pitch": 55, "duration": 4, "velocity": 77}, {"time": 3660, "pitch": 59, "duration": 4, "velocity": 79}, {"time": 3663, "pitch": 62, "duration": 9, "velocity": 107}, {"time": 3669, "pitch": 59, "duration": 4, "velocity": 102}, {"time": 3672, "pitch": 55, "duration": 2, "velocity": 72}, {"time": 3675, "pitch": 36, "duration": 13, "velocity": 72}, {"time": 3678, "pitch": 55, "duration": 9, "velocity": 89}, {"time": 3687, "pitch": 64, "duration": 9, "velocity": 96}, {"time": 3693, "pitch": 60, "duration": 8, "velocity": 107}, {"time": 3699, "pitch": 45, "duration": 22, "velocity": 93}, {"time": 3705, "pitch": 57, "duration": 7, "velocity": 74}, {"time": 3711, "pitch": 52, "duration": 12, "velocity": 86}, {"time": 3711, "pitch": 60, "duration": 7, "velocity": 79}, {"time": 3711, "pitch": 64, "duration": 12, "velocity": 89}, {"time": 3717, "pitch": 57, "duration": 5, "velocity": 92}, {"time": 3723, "pitch": 45, "duration": 19, "velocity": 102}, {"time": 3729, "pitch": 57, "duration": 7, "velocity": 82}, {"time": 3732, "pitch": 52, "duration": 4, "velocity": 66}, {"time": 3735, "pitch": 64, "duration": 8, "velocity": 99}, {"time": 3738, "pitch": 52, "duration": 8, "velocity": 92}, {"time": 3741, "pitch": 60, "duration": 4, "velocity": 89}, {"time": 3744, "pitch": 57, "duration": 4, "velocity": 92}, {"time": 3747, "pitch": 45, "duration": 21, "velocity": 78}, {"time": 3753, "pitch": 57, "duration": 5, "velocity": 92}, {"time": 3756, "pitch": 52, "duration": 4, "velocity": 93}, {"time": 3759, "pitch": 64, "duration": 8, "velocity": 96}, {"time": 3762, "pitch": 52, "duration": 5, "velocity": 92}, {"time": 3765, "pitch": 60, "duration": 4, "velocity": 97}, {"time": 3768, "pitch": 57, "duration": 3, "velocity": 90}, {"time": 3771, "pitch": 43, "duration": 22, "velocity": 96}, {"time": 3777, "pitch": 55, "duration": 4, "velocity": 92}, {"time": 3780, "pitch": 50, "duration": 14, "velocity": 93}, {"time": 3783, "pitch": 62, "duration": 7, "velocity": 127}, {"time": 3789, "pitch": 59, "duration": 3, "velocity": 92}, {"time": 3792, "pitch": 55, "duration": 4, "velocity": 77}, {"time": 3795, "pitch": 48, "duration": 7, "velocity": 95}, {"time": 3801, "pitch": 55, "duration": 5, "velocity": 90}, {"time": 3804, "pitch": 48, "duration": 4, "velocity": 86}, {"time": 3807, "pitch": 64, "duration": 10, "velocity": 93}, {"time": 3810, "pitch": 48, "duration": 3, "velocity": 93}, {"time": 3813, "pitch": 60, "duration": 4, "velocity": 93}, {"time": 3816, "pitch": 55, "duration": 4, "velocity": 99}, {"time": 3819, "pitch": 43, "duration": 21, "velocity": 92}, {"time": 3825, "pitch": 59, "duration": 3, "velocity": 83}, {"time": 3828, "pitch": 50, "duration": 4, "velocity": 96}, {"time": 3831, "pitch": 62, "duration": 5, "velocity": 97}, {"time": 3834, "pitch": 50, "duration": 10, "velocity": 88}, {"time": 3837, "pitch": 59, "duration": 4, "velocity": 83}, {"time": 3840, "pitch": 55, "duration": 3, "velocity": 89}, {"time": 3843, "pitch": 43, "duration": 18, "velocity": 90}, {"time": 3849, "pitch": 62, "duration": 5, "velocity": 78}, {"time": 3852, "pitch": 50, "duration": 5, "velocity": 86}, {"time": 3855, "pitch": 71, "duration": 10, "velocity": 100}, {"time": 3858, "pitch": 50, "duration": 3, "velocity": 93}, {"time": 3861, "pitch": 67, "duration": 4, "velocity": 97}, {"time": 3864, "pitch": 62, "duration": 3, "velocity": 99}, {"time": 3867, "pitch": 36, "duration": 17, "velocity": 82}, {"time": 3873, "pitch": 55, "duration": 5, "velocity": 89}, {"time": 3876, "pitch": 43, "duration": 4, "velocity": 88}, {"time": 3879, "pitch": 64, "duration": 10, "velocity": 100}, {"time": 3882, "pitch": 43, "duration": 3, "velocity": 96}, {"time": 3885, "pitch": 60, "duration": 4, "velocity": 102}, {"time": 3888, "pitch": 55, "duration": 3, "velocity": 83}, {"time": 3891, "pitch": 40, "duration": 18, "velocity": 85}, {"time": 3894, "pitch": 47, "duration": 16, "velocity": 99}, {"time": 3897, "pitch": 52, "duration": 8, "velocity": 99}, {"time": 3900, "pitch": 55, "duration": 3, "velocity": 88}, {"time": 3903, "pitch": 59, "duration": 7, "velocity": 122}, {"time": 3909, "pitch": 55, "duration": 4, "velocity": 112}, {"time": 3912, "pitch": 59, "duration": 3, "velocity": 86}, {"time": 3915, "pitch": 45, "duration": 22, "velocity": 89}, {"time": 3918, "pitch": 52, "duration": 11, "velocity": 90}, {"time": 3921, "pitch": 57, "duration": 5, "velocity": 97}, {"time": 3924, "pitch": 59, "duration": 3, "velocity": 85}, {"time": 3927, "pitch": 64, "duration": 10, "velocity": 112}, {"time": 3930, "pitch": 52, "duration": 4, "velocity": 67}, {"time": 3933, "pitch": 52, "duration": 1, "velocity": 56}, {"time": 3933, "pitch": 60, "duration": 5, "velocity": 97}, {"time": 3936, "pitch": 57, "duration": 3, "velocity": 78}, {"time": 3939, "pitch": 45, "duration": 22, "velocity": 88}, {"time": 3942, "pitch": 52, "duration": 11, "velocity": 78}, {"time": 3945, "pitch": 57, "duration": 5, "velocity": 77}, {"time": 3948, "pitch": 60, "duration": 3, "velocity": 77}, {"time": 3951, "pitch": 64, "duration": 8, "velocity": 100}, {"time": 3954, "pitch": 52, "duration": 5, "velocity": 58}, {"time": 3957, "pitch": 60, "duration": 4, "velocity": 96}, {"time": 3960, "pitch": 57, "duration": 3, "velocity": 90}, {"time": 3960, "pitch": 64, "duration": 2, "velocity": 39}, {"time": 3963, "pitch": 36, "duration": 22, "velocity": 96}, {"time": 3969, "pitch": 55, "duration": 4, "velocity": 93}, {"time": 3972, "pitch": 60, "duration": 3, "velocity": 88}, {"time": 3975, "pitch": 64, "duration": 9, "velocity": 107}, {"time": 3981, "pitch": 55, "duration": 2, "velocity": 49}, {"time": 3981, "pitch": 60, "duration": 6, "velocity": 85}, {"time": 3987, "pitch": 38, "duration": 18, "velocity": 92}, {"time": 3993, "pitch": 45, "duration": 13, "velocity": 60}, {"time": 3996, "pitch": 57, "duration": 3, "velocity": 88}, {"time": 3999, "pitch": 66, "duration": 11, "velocity": 122}, {"time": 4005, "pitch": 62, "duration": 4, "velocity": 99}, {"time": 4008, "pitch": 57, "duration": 3, "velocity": 75}, {"time": 4011, "pitch": 43, "duration": 21, "velocity": 77}, {"time": 4014, "pitch": 50, "duration": 14, "velocity": 79}, {"time": 4017, "pitch": 55, "duration": 5, "velocity": 83}, {"time": 4020, "pitch": 59, "duration": 3, "velocity": 88}, {"time": 4023, "pitch": 62, "duration": 5, "velocity": 102}, {"time": 4026, "pitch": 59, "duration": 4, "velocity": 92}, {"time": 4029, "pitch": 55, "duration": 5, "velocity": 97}, {"time": 4032, "pitch": 59, "duration": 3, "velocity": 81}, {"time": 4035, "pitch": 43, "duration": 16, "velocity": 95}, {"time": 4041, "pitch": 55, "duration": 4, "velocity": 83}, {"time": 4044, "pitch": 59, "duration": 3, "velocity": 72}, {"time": 4047, "pitch": 62, "duration": 4, "velocity": 112}, {"time": 4050, "pitch": 59, "duration": 3, "velocity": 81}, {"time": 4053, "pitch": 55, "duration": 6, "velocity": 88}, {"time": 4056, "pitch": 59, "duration": 3, "velocity": 83}, {"time": 4059, "pitch": 36, "duration": 12, "velocity": 78}, {"time": 4065, "pitch": 55, "duration": 5, "velocity": 90}, {"time": 4068, "pitch": 60, "duration": 3, "velocity": 99}, {"time": 4071, "pitch": 64, "duration": 4, "velocity": 112}, {"time": 4074, "pitch": 60, "duration": 3, "velocity": 89}, {"time": 4077, "pitch": 59, "duration": 4, "velocity": 97}, {"time": 4080, "pitch": 60, "duration": 3, "velocity": 117}, {"time": 4083, "pitch": 45, "duration": 22, "velocity": 83}, {"time": 4089, "pitch": 57, "duration": 5, "velocity": 90}, {"time": 4092, "pitch": 52, "duration": 4, "velocity": 62}, {"time": 4095, "pitch": 64, "duration": 8, "velocity": 102}, {"time": 4098, "pitch": 52, "duration": 5, "velocity": 70}, {"time": 4101, "pitch": 60, "duration": 3, "velocity": 93}, {"time": 4104, "pitch": 57, "duration": 3, "velocity": 97}, {"time": 4107, "pitch": 45, "duration": 21, "velocity": 92}, {"time": 4113, "pitch": 52, "duration": 17, "velocity": 77}, {"time": 4119, "pitch": 64, "duration": 15, "velocity": 102}, {"time": 4125, "pitch": 60, "duration": 10, "velocity": 83}, {"time": 4131, "pitch": 45, "duration": 13, "velocity": 81}, {"time": 4137, "pitch": 57, "duration": 9, "velocity": 92}, {"time": 4143, "pitch": 64, "duration": 12, "velocity": 107}, {"time": 4149, "pitch": 57, "duration": 7, "velocity": 99}, {"time": 4155, "pitch": 36, "duration": 11, "velocity": 75}, {"time": 4161, "pitch": 55, "duration": 14, "velocity": 82}, {"time": 4167, "pitch": 64, "duration": 11, "velocity": 100}, {"time": 4173, "pitch": 60, "duration": 5, "velocity": 88}, {"time": 4176, "pitch": 55, "duration": 2, "velocity": 34}, {"time": 4179, "pitch": 40, "duration": 16, "velocity": 74}, {"time": 4185, "pitch": 47, "duration": 10, "velocity": 58}, {"time": 4191, "pitch": 59, "duration": 12, "velocity": 100}, {"time": 4197, "pitch": 52, "duration": 6, "velocity": 83}, {"time": 4203, "pitch": 43, "duration": 22, "velocity": 69}, {"time": 4209, "pitch": 50, "duration": 17, "velocity": 53}, {"time": 4215, "pitch": 62, "duration": 17, "velocity": 97}, {"time": 4221, "pitch": 59, "duration": 10, "velocity": 74}, {"time": 4227, "pitch": 43, "duration": 21, "velocity": 65}, {"time": 4233, "pitch": 55, "duration": 5, "velocity": 67}, {"time": 4239, "pitch": 62, "duration": 8, "velocity": 112}, {"time": 4245, "pitch": 55, "duration": 4, "velocity": 83}, {"time": 4251, "pitch": 48, "duration": 5, "velocity": 107}, {"time": 4251, "pitch": 60, "duration": 5, "velocity": 127}, {"time": 4257, "pitch": 47, "duration": 5, "velocity": 93}, {"time": 4257, "pitch": 59, "duration": 6, "velocity": 122}, {"time": 4263, "pitch": 45, "duration": 4, "velocity": 107}, {"time": 4263, "pitch": 57, "duration": 6, "velocity": 107}, {"time": 4269, "pitch": 40, "duration": 5, "velocity": 102}, {"time": 4269, "pitch": 52, "duration": 5, "velocity": 95}, {"time": 4275, "pitch": 45, "duration": 13, "velocity": 107}, {"time": 4275, "pitch": 57, "duration": 13, "velocity": 122}], "annotations": [{"time": 431, "annotation": {"number": 64, "value": 127}, "group": "control_change"}, {"time": 436, "annotation": {"number": 64, "value": 0}, "group": "control_change"}, {"time": 446, "annotation": {"number": 64, "value": 127}, "group": "control_change"}, {"time": 453, "annotation": {"number": 64, "value": 0}, "group": "control_change"}, {"time": 460, "annotation": {"number": 64, "value": 127}, "group": "control_change"}, {"time": 472, "annotation": {"number": 64, "value": 0}, "group": "control_change"}, {"time": 494, "annotation": {"number": 64, "value": 127}, "group": "control_change"}, {"time": 501, "annotation": {"number": 64, "value": 0}, "group": "control_change"}, {"time": 555, "annotation": {"number": 64, "value": 127}, "group": "control_change"}, {"time": 557, "annotation": {"number": 64, "value": 0}, "group": "control_change"}, {"time": 608, "annotation": {"number": 64, "value": 127}, "group": "control_change"}, {"time": 622, "annotation": {"number": 64, "value": 0}, "group": "control_change"}, {"time": 661, "annotation": {"number": 64, "value": 127}, "group": "control_change"}, {"time": 663, "annotation": {"number": 64, "value": 0}, "group": "control_change"}, {"time": 686, "annotation": {"number": 64, "value": 127}, "group": "control_change"}, {"time": 692, "annotation": {"number": 64, "value": 0}, "group": "control_change"}, {"time": 700, "annotation": {"number": 64, "value": 127}, "group": "control_change"}, {"time": 705, "annotation": {"number": 64, "value": 0}, "group": "control_change"}, {"time": 734, "annotation": {"number": 64, "value": 127}, "group": "control_change"}, {"time": 740, "annotation": {"number": 64, "value": 0}, "group": "control_change"}, {"time": 758, "annotation": {"number": 64, "value": 127}, "group": "control_change"}, {"time": 762, "annotation": {"number": 64, "value": 0}, "group": "control_change"}, {"time": 772, "annotation": {"number": 64, "value": 127}, "group": "control_change"}, {"time": 777, "annotation": {"number": 64, "value": 0}, "group": "control_change"}, {"time": 784, "annotation": {"number": 64, "value": 127}, "group": "control_change"}, {"time": 789, "annotation": {"number": 64, "value": 0}, "group": "control_change"}, {"time": 796, "annotation": {"number": 64, "value": 127}, "group": "control_change"}, {"time": 801, "annotation": {"number": 64, "value": 0}, "group": "control_change"}, {"time": 808, "annotation": {"number": 64, "value": 127}, "group": "control_change"}, {"time": 814, "annotation": {"number": 64, "value": 0}, "group": "control_change"}, {"time": 845, "annotation": {"number": 64, "value": 127}, "group": "control_change"}, {"time": 850, "annotation": {"number": 64, "value": 0}, "group": "control_change"}, {"time": 855, "annotation": {"number": 64, "value": 127}, "group": "control_change"}, {"time": 861, "annotation": {"number": 64, "value": 0}, "group": "control_change"}, {"time": 878, "annotation": {"number": 64, "value": 127}, "group": "control_change"}, {"time": 886, "annotation": {"number": 64, "value": 0}, "group": "control_change"}, {"time": 893, "annotation": {"number": 64, "value": 127}, "group": "control_change"}, {"time": 897, "annotation": {"number": 64, "value": 0}, "group": "control_change"}, {"time": 924, "annotation": {"number": 64, "value": 127}, "group": "control_change"}, {"time": 937, "annotation": {"number": 64, "value": 0}, "group": "control_change"}, {"time": 975, "annotation": {"number": 64, "value": 127}, "group": "control_change"}, {"time": 981, "annotation": {"number": 64, "value": 0}, "group": "control_change"}, {"time": 989, "annotation": {"number": 64, "value": 127}, "group": "control_change"}, {"time": 992, "annotation": {"number": 64, "value": 0}, "group": "control_change"}, {"time": 1012, "annotation": {"number": 64, "value": 127}, "group": "control_change"}, {"time": 1032, "annotation": {"number": 64, "value": 0}, "group": "control_change"}, {"time": 1035, "annotation": {"number": 64, "value": 127}, "group": "control_change"}, {"time": 1054, "annotation": {"number": 64, "value": 0}, "group": "control_change"}, {"time": 1060, "annotation": {"number": 64, "value": 127}, "group": "control_change"}, {"time": 1080, "annotation": {"number": 64, "value": 0}, "group": "control_change"}, {"time": 1084, "annotation": {"number": 64, "value": 127}, "group": "control_change"}, {"time": 1098, "annotation": {"number": 64, "value": 0}, "group": "control_change"}, {"time": 1100, "annotation": {"number": 64, "value": 127}, "group": "control_change"}, {"time": 1102, "annotation": {"number": 64, "value": 0}, "group": "control_change"}, {"time": 1108, "annotation": {"number": 64, "value": 127}, "group": "control_change"}, {"time": 1128, "annotation": {"number": 64, "value": 0}, "group": "control_change"}, {"time": 1132, "annotation": {"number": 64, "value": 127}, "group": "control_change"}, {"time": 1151, "annotation": {"number": 64, "value": 0}, "group": "control_change"}, {"time": 1155, "annotation": {"number": 64, "value": 127}, "group": "control_change"}, {"time": 1175, "annotation": {"number": 64, "value": 0}, "group": "control_change"}, {"time": 1179, "annotation": {"number": 64, "value": 127}, "group": "control_change"}, {"time": 1199, "annotation": {"number": 64, "value": 0}, "group": "control_change"}, {"time": 1205, "annotation": {"number": 64, "value": 127}, "group": "control_change"}, {"time": 1224, "annotation": {"number": 64, "value": 0}, "group": "control_change"}, {"time": 1229, "annotation": {"number": 64, "value": 127}, "group": "control_change"}, {"time": 1236, "annotation": {"number": 64, "value": 0}, "group": "control_change"}, {"time": 1241, "annotation": {"number": 64, "value": 127}, "group": "control_change"}, {"time": 1246, "annotation": {"number": 64, "value": 0}, "group": "control_change"}, {"time": 1252, "annotation": {"number": 64, "value": 127}, "group": "control_change"}, {"time": 1269, "annotation": {"number": 64, "value": 0}, "group": "control_change"}, {"time": 1275, "annotation": {"number": 64, "value": 127}, "group": "control_change"}, {"time": 1288, "annotation": {"number": 64, "value": 0}, "group": "control_change"}, {"time": 1294, "annotation": {"number": 64, "value": 127}, "group": "control_change"}, {"time": 1317, "annotation": {"number": 64, "value": 0}, "group": "control_change"}, {"time": 1381, "annotation": {"number": 64, "value": 127}, "group": "control_change"}, {"time": 1392, "annotation": {"number": 64, "value": 0}, "group": "control_change"}, {"time": 1396, "annotation": {"number": 64, "value": 127}, "group": "control_change"}, {"time": 1415, "annotation": {"number": 64, "value": 0}, "group": "control_change"}, {"time": 1420, "annotation": {"number": 64, "value": 127}, "group": "control_change"}, {"time": 1440, "annotation": {"number": 64, "value": 0}, "group": "control_change"}, {"time": 1445, "annotation": {"number": 64, "value": 127}, "group": "control_change"}, {"time": 1464, "annotation": {"number": 64, "value": 0}, "group": "control_change"}, {"time": 1467, "annotation": {"number": 64, "value": 127}, "group": "control_change"}, {"time": 1488, "annotation": {"number": 64, "value": 0}, "group": "control_change"}, {"time": 1491, "annotation": {"number": 64, "value": 127}, "group": "control_change"}, {"time": 1512, "annotation": {"number": 64, "value": 0}, "group": "control_change"}, {"time": 1515, "annotation": {"number": 64, "value": 127}, "group": "control_change"}, {"time": 1536, "annotation": {"number": 64, "value": 0}, "group": "control_change"}, {"time": 1539, "annotation": {"number": 64, "value": 127}, "group": "control_change"}, {"time": 1561, "annotation": {"number": 64, "value": 0}, "group": "control_change"}, {"time": 1564, "annotation": {"number": 64, "value": 127}, "group": "control_change"}, {"time": 1584, "annotation": {"number": 64, "value": 0}, "group": "control_change"}, {"time": 1588, "annotation": {"number": 64, "value": 127}, "group": "control_change"}, {"time": 1608, "annotation": {"number": 64, "value": 0}, "group": "control_change"}, {"time": 1612, "annotation": {"number": 64, "value": 127}, "group": "control_change"}, {"time": 1632, "annotation": {"number": 64, "value": 0}, "group": "control_change"}, {"time": 1635, "annotation": {"number": 64, "value": 127}, "group": "control_change"}, {"time": 1656, "annotation": {"number": 64, "value": 0}, "group": "control_change"}, {"time": 1659, "annotation": {"number": 64, "value": 127}, "group": "control_change"}, {"time": 1660, "annotation": {"number": 64, "value": 0}, "group": "control_change"}, {"time": 1662, "annotation": {"number": 64, "value": 127}, "group": "control_change"}, {"time": 1679, "annotation": {"number": 64, "value": 0}, "group": "control_change"}, {"time": 1685, "annotation": {"number": 64, "value": 127}, "group": "control_change"}, {"time": 1704, "annotation": {"number": 64, "value": 0}, "group": "control_change"}, {"time": 1710, "annotation": {"number": 64, "value": 127}, "group": "control_change"}, {"time": 1712, "annotation": {"number": 64, "value": 0}, "group": "control_change"}, {"time": 1712, "annotation": {"number": 64, "value": 127}, "group": "control_change"}, {"time": 1720, "annotation": {"number": 64, "value": 0}, "group": "control_change"}, {"time": 1765, "annotation": {"number": 64, "value": 127}, "group": "control_change"}, {"time": 1776, "annotation": {"number": 64, "value": 0}, "group": "control_change"}, {"time": 1780, "annotation": {"number": 64, "value": 127}, "group": "control_change"}, {"time": 1799, "annotation": {"number": 64, "value": 0}, "group": "control_change"}, {"time": 1804, "annotation": {"number": 64, "value": 127}, "group": "control_change"}, {"time": 1824, "annotation": {"number": 64, "value": 0}, "group": "control_change"}, {"time": 1829, "annotation": {"number": 64, "value": 127}, "group": "control_change"}, {"time": 1848, "annotation": {"number": 64, "value": 0}, "group": "control_change"}, {"time": 1851, "annotation": {"number": 64, "value": 127}, "group": "control_change"}, {"time": 1872, "annotation": {"number": 64, "value": 0}, "group": "control_change"}, {"time": 1875, "annotation": {"number": 64, "value": 127}, "group": "control_change"}, {"time": 1896, "annotation": {"number": 64, "value": 0}, "group": "control_change"}, {"time": 1899, "annotation": {"number": 64, "value": 127}, "group": "control_change"}, {"time": 1920, "annotation": {"number": 64, "value": 0}, "group": "control_change"}, {"time": 1923, "annotation": {"number": 64, "value": 127}, "group": "control_change"}, {"time": 1945, "annotation": {"number": 64, "value": 0}, "group": "control_change"}, {"time": 1948, "annotation": {"number": 64, "value": 127}, "group": "control_change"}, {"time": 1968, "annotation": {"number": 64, "value": 0}, "group": "control_change"}, {"time": 1972, "annotation": {"number": 64, "value": 127}, "group": "control_change"}, {"time": 1992, "annotation": {"number": 64, "value": 0}, "group": "control_change"}, {"time": 1997, "annotation": {"number": 64, "value": 127}, "group": "control_change"}, {"time": 2015, "annotation": {"number": 64, "value": 0}, "group": "control_change"}, {"time": 2020, "annotation": {"number": 64, "value": 127}, "group": "control_change"}, {"time": 2039, "annotation": {"number": 64, "value": 0}, "group": "control_change"}, {"time": 2044, "annotation": {"number": 64, "value": 127}, "group": "control_change"}, {"time": 2065, "annotation": {"number": 64, "value": 0}, "group": "control_change"}, {"time": 2069, "annotation": {"number": 64, "value": 127}, "group": "control_change"}, {"time": 2088, "annotation": {"number": 64, "value": 0}, "group": "control_change"}, {"time": 2092, "annotation": {"number": 64, "value": 127}, "group": "control_change"}, {"time": 2107, "annotation": {"number": 64, "value": 0}, "group": "control_change"}, {"time": 2142, "annotation": {"number": 64, "value": 127}, "group": "control_change"}, {"time": 2168, "annotation": {"number": 64, "value": 0}, "group": "control_change"}, {"time": 2182, "annotation": {"number": 64, "value": 127}, "group": "control_change"}, {"time": 2189, "annotation": {"number": 64, "value": 0}, "group": "control_change"}, {"time": 2259, "annotation": {"number": 64, "value": 127}, "group": "control_change"}, {"time": 2278, "annotation": {"number": 64, "value": 0}, "group": "control_change"}, {"time": 2285, "annotation": {"number": 64, "value": 127}, "group": "control_change"}, {"time": 2301, "annotation": {"number": 64, "value": 0}, "group": "control_change"}, {"time": 2309, "annotation": {"number": 64, "value": 127}, "group": "control_change"}, {"time": 2325, "annotation": {"number": 64, "value": 0}, "group": "control_change"}, {"time": 2332, "annotation": {"number": 64, "value": 127}, "group": "control_change"}, {"time": 2349, "annotation": {"number": 64, "value": 0}, "group": "control_change"}, {"time": 2357, "annotation": {"number": 64, "value": 127}, "group": "control_change"}, {"time": 2374, "annotation": {"number": 64, "value": 0}, "group": "control_change"}, {"time": 2379, "annotation": {"number": 64, "value": 127}, "group": "control_change"}, {"time": 2396, "annotation": {"number": 64, "value": 0}, "group": "control_change"}, {"time": 2403, "annotation": {"number": 64, "value": 127}, "group": "control_change"}, {"time": 2418, "annotation": {"number": 64, "value": 0}, "group": "control_change"}, {"time": 2427, "annotation": {"number": 64, "value": 127}, "group": "control_change"}, {"time": 2439, "annotation": {"number": 64, "value": 0}, "group": "control_change"}, {"time": 2451, "annotation": {"number": 64, "value": 127}, "group": "control_change"}, {"time": 2466, "annotation": {"number": 64, "value": 0}, "group": "control_change"}, {"time": 2476, "annotation": {"number": 64, "value": 127}, "group": "control_change"}, {"time": 2488, "annotation": {"number": 64, "value": 0}, "group": "control_change"}, {"time": 2501, "annotation": {"number": 64, "value": 127}, "group": "control_change"}, {"time": 2518, "annotation": {"number": 64, "value": 0}, "group": "control_change"}, {"time": 2576, "annotation": {"number": 64, "value": 127}, "group": "control_change"}, {"time": 2590, "annotation": {"number": 64, "value": 0}, "group": "control_change"}, {"time": 2629, "annotation": {"number": 64, "value": 127}, "group": "control_change"}, {"time": 2631, "annotation": {"number": 64, "value": 0}, "group": "control_change"}, {"time": 2654, "annotation": {"number": 64, "value": 127}, "group": "control_change"}, {"time": 2660, "annotation": {"number": 64, "value": 0}, "group": "control_change"}, {"time": 2668, "annotation": {"number": 64, "value": 127}, "group": "control_change"}, {"time": 2673, "annotation": {"number": 64, "value": 0}, "group": "control_change"}, {"time": 2702, "annotation": {"number": 64, "value": 127}, "group": "control_change"}, {"time": 2708, "annotation": {"number": 64, "value": 0}, "group": "control_change"}, {"time": 2726, "annotation": {"number": 64, "value": 127}, "group": "control_change"}, {"time": 2730, "annotation": {"number": 64, "value": 0}, "group": "control_change"}, {"time": 2740, "annotation": {"number": 64, "value": 127}, "group": "control_change"}, {"time": 2745, "annotation": {"number": 64, "value": 0}, "group": "control_change"}, {"time": 2752, "annotation": {"number": 64, "value": 127}, "group": "control_change"}, {"time": 2757, "annotation": {"number": 64, "value": 0}, "group": "control_change"}, {"time": 2764, "annotation": {"number": 64, "value": 127}, "group": "control_change"}, {"time": 2769, "annotation": {"number": 64, "value": 0}, "group": "control_change"}, {"time": 2776, "annotation": {"number": 64, "value": 127}, "group": "control_change"}, {"time": 2782, "annotation": {"number": 64, "value": 0}, "group": "control_change"}, {"time": 2813, "annotation": {"number": 64, "value": 127}, "group": "control_change"}, {"time": 2818, "annotation": {"number": 64, "value": 0}, "group": "control_change"}, {"time": 2823, "annotation": {"number": 64, "value": 127}, "group": "control_change"}, {"time": 2829, "annotation": {"number": 64, "value": 0}, "group": "control_change"}, {"time": 2846, "annotation": {"number": 64, "value": 127}, "group": "control_change"}, {"time": 2854, "annotation": {"number": 64, "value": 0}, "group": "control_change"}, {"time": 2861, "annotation": {"number": 64, "value": 127}, "group": "control_change"}, {"time": 2865, "annotation": {"number": 64, "value": 0}, "group": "control_change"}, {"time": 2892, "annotation": {"number": 64, "value": 127}, "group": "control_change"}, {"time": 2905, "annotation": {"number": 64, "value": 0}, "group": "control_change"}, {"time": 2943, "annotation": {"number": 64, "value": 127}, "group": "control_change"}, {"time": 2949, "annotation": {"number": 64, "value": 0}, "group": "control_change"}, {"time": 2957, "annotation": {"number": 64, "value": 127}, "group": "control_change"}, {"time": 2960, "annotation": {"number": 64, "value": 0}, "group": "control_change"}, {"time": 2980, "annotation": {"number": 64, "value": 127}, "group": "control_change"}, {"time": 3000, "annotation": {"number": 64, "value": 0}, "group": "control_change"}, {"time": 3003, "annotation": {"number": 64, "value": 127}, "group": "control_change"}, {"time": 3022, "annotation": {"number": 64, "value": 0}, "group": "control_change"}, {"time": 3028, "annotation": {"number": 64, "value": 127}, "group": "control_change"}, {"time": 3048, "annotation": {"number": 64, "value": 0}, "group": "control_change"}, {"time": 3052, "annotation": {"number": 64, "value": 127}, "group": "control_change"}, {"time": 3066, "annotation": {"number": 64, "value": 0}, "group": "control_change"}, {"time": 3068, "annotation": {"number": 64, "value": 127}, "group": "control_change"}, {"time": 3070, "annotation": {"number": 64, "value": 0}, "group": "control_change"}, {"time": 3076, "annotation": {"number": 64, "value": 127}, "group": "control_change"}, {"time": 3096, "annotation": {"number": 64, "value": 0}, "group": "control_change"}, {"time": 3100, "annotation": {"number": 64, "value": 127}, "group": "control_change"}, {"time": 3119, "annotation": {"number": 64, "value": 0}, "group": "control_change"}, {"time": 3123, "annotation": {"number": 64, "value": 127}, "group": "control_change"}, {"time": 3143, "annotation": {"number": 64, "value": 0}, "group": "control_change"}, {"time": 3147, "annotation": {"number": 64, "value": 127}, "group": "control_change"}, {"time": 3167, "annotation": {"number": 64, "value": 0}, "group": "control_change"}, {"time": 3173, "annotation": {"number": 64, "value": 127}, "group": "control_change"}, {"time": 3192, "annotation": {"number": 64, "value": 0}, "group": "control_change"}, {"time": 3197, "annotation": {"number": 64, "value": 127}, "group": "control_change"}, {"time": 3204, "annotation": {"number": 64, "value": 0}, "group": "control_change"}, {"time": 3209, "annotation": {"number": 64, "value": 127}, "group": "control_change"}, {"time": 3214, "annotation": {"number": 64, "value": 0}, "group": "control_change"}, {"time": 3220, "annotation": {"number": 64, "value": 127}, "group": "control_change"}, {"time": 3237, "annotation": {"number": 64, "value": 0}, "group": "control_change"}, {"time": 3243, "annotation": {"number": 64, "value": 127}, "group": "control_change"}, {"time": 3256, "annotation": {"number": 64, "value": 0}, "group": "control_change"}, {"time": 3262, "annotation": {"number": 64, "value": 127}, "group": "control_change"}, {"time": 3285, "annotation": {"number": 64, "value": 0}, "group": "control_change"}, {"time": 3349, "annotation": {"number": 64, "value": 127}, "group": "control_change"}, {"time": 3360, "annotation": {"number": 64, "value": 0}, "group": "control_change"}, {"time": 3364, "annotation": {"number": 64, "value": 127}, "group": "control_change"}, {"time": 3383, "annotation": {"number": 64, "value": 0}, "group": "control_change"}, {"time": 3388, "annotation": {"number": 64, "value": 127}, "group": "control_change"}, {"time": 3408, "annotation": {"number": 64, "value": 0}, "group": "control_change"}, {"time": 3413, "annotation": {"number": 64, "value": 127}, "group": "control_change"}, {"time": 3432, "annotation": {"number": 64, "value": 0}, "group": "control_change"}, {"time": 3435, "annotation": {"number": 64, "value": 127}, "group": "control_change"}, {"time": 3456, "annotation": {"number": 64, "value": 0}, "group": "control_change"}, {"time": 3459, "annotation": {"number": 64, "value": 127}, "group": "control_change"}, {"time": 3480, "annotation": {"number": 64, "value": 0}, "group": "control_change"}, {"time": 3483, "annotation": {"number": 64, "value": 127}, "group": "control_change"}, {"time": 3504, "annotation": {"number": 64, "value": 0}, "group": "control_change"}, {"time": 3507, "annotation": {"number": 64, "value": 127}, "group": "control_change"}, {"time": 3529, "annotation": {"number": 64, "value": 0}, "group": "control_change"}, {"time": 3532, "annotation": {"number": 64, "value": 127}, "group": "control_change"}, {"time": 3552, "annotation": {"number": 64, "value": 0}, "group": "control_change"}, {"time": 3556, "annotation": {"number": 64, "value": 127}, "group": "control_change"}, {"time": 3576, "annotation": {"number": 64, "value": 0}, "group": "control_change"}, {"time": 3580, "annotation": {"number": 64, "value": 127}, "group": "control_change"}, {"time": 3600, "annotation": {"number": 64, "value": 0}, "group": "control_change"}, {"time": 3603, "annotation": {"number": 64, "value": 127}, "group": "control_change"}, {"time": 3624, "annotation": {"number": 64, "value": 0}, "group": "control_change"}, {"time": 3627, "annotation": {"number": 64, "value": 127}, "group": "control_change"}, {"time": 3628, "annotation": {"number": 64, "value": 0}, "group": "control_change"}, {"time": 3630, "annotation": {"number": 64, "value": 127}, "group": "control_change"}, {"time": 3647, "annotation": {"number": 64, "value": 0}, "group": "control_change"}, {"time": 3653, "annotation": {"number": 64, "value": 127}, "group": "control_change"}, {"time": 3672, "annotation": {"number": 64, "value": 0}, "group": "control_change"}, {"time": 3678, "annotation": {"number": 64, "value": 127}, "group": "control_change"}, {"time": 3680, "annotation": {"number": 64, "value": 0}, "group": "control_change"}, {"time": 3680, "annotation": {"number": 64, "value": 127}, "group": "control_change"}, {"time": 3688, "annotation": {"number": 64, "value": 0}, "group": "control_change"}, {"time": 3733, "annotation": {"number": 64, "value": 127}, "group": "control_change"}, {"time": 3744, "annotation": {"number": 64, "value": 0}, "group": "control_change"}, {"time": 3748, "annotation": {"number": 64, "value": 127}, "group": "control_change"}, {"time": 3767, "annotation": {"number": 64, "value": 0}, "group": "control_change"}, {"time": 3772, "annotation": {"number": 64, "value": 127}, "group": "control_change"}, {"time": 3792, "annotation": {"number": 64, "value": 0}, "group": "control_change"}, {"time": 3797, "annotation": {"number": 64, "value": 127}, "group": "control_change"}, {"time": 3816, "annotation": {"number": 64, "value": 0}, "group": "control_change"}, {"time": 3819, "annotation": {"number": 64, "value": 127}, "group": "control_change"}, {"time": 3840, "annotation": {"number": 64, "value": 0}, "group": "control_change"}, {"time": 3843, "annotation": {"number": 64, "value": 127}, "group": "control_change"}, {"time": 3864, "annotation": {"number": 64, "value": 0}, "group": "control_change"}, {"time": 3867, "annotation": {"number": 64, "value": 127}, "group": "control_change"}, {"time": 3888, "annotation": {"number": 64, "value": 0}, "group": "control_change"}, {"time": 3891, "annotation": {"number": 64, "value": 127}, "group": "control_change"}, {"time": 3913, "annotation": {"number": 64, "value": 0}, "group": "control_change"}, {"time": 3916, "annotation": {"number": 64, "value": 127}, "group": "control_change"}, {"time": 3936, "annotation": {"number": 64, "value": 0}, "group": "control_change"}, {"time": 3940, "annotation": {"number": 64, "value": 127}, "group": "control_change"}, {"time": 3960, "annotation": {"number": 64, "value": 0}, "group": "control_change"}, {"time": 3965, "annotation": {"number": 64, "value": 127}, "group": "control_change"}, {"time": 3983, "annotation": {"number": 64, "value": 0}, "group": "control_change"}, {"time": 3988, "annotation": {"number": 64, "value": 127}, "group": "control_change"}, {"time": 4007, "annotation": {"number": 64, "value": 0}, "group": "control_change"}, {"time": 4012, "annotation": {"number": 64, "value": 127}, "group": "control_change"}, {"time": 4033, "annotation": {"number": 64, "value": 0}, "group": "control_change"}, {"time": 4037, "annotation": {"number": 64, "value": 127}, "group": "control_change"}, {"time": 4056, "annotation": {"number": 64, "value": 0}, "group": "control_change"}, {"time": 4060, "annotation": {"number": 64, "value": 127}, "group": "control_change"}, {"time": 4075, "annotation": {"number": 64, "value": 0}, "group": "control_change"}, {"time": 4141, "annotation": {"number": 64, "value": 127}, "group": "control_change"}, {"time": 4151, "annotation": {"number": 64, "value": 0}, "group": "control_change"}, {"time": 4157, "annotation": {"number": 64, "value": 127}, "group": "control_change"}, {"time": 4175, "annotation": {"number": 64, "value": 0}, "group": "control_change"}, {"time": 4180, "annotation": {"number": 64, "value": 127}, "group": "control_change"}, {"time": 4199, "annotation": {"number": 64, "value": 0}, "group": "control_change"}, {"time": 4205, "annotation": {"number": 64, "value": 127}, "group": "control_change"}, {"time": 4223, "annotation": {"number": 64, "value": 0}, "group": "control_change"}, {"time": 4229, "annotation": {"number": 64, "value": 127}, "group": "control_change"}, {"time": 4248, "annotation": {"number": 64, "value": 0}, "group": "control_change"}, {"time": 4269, "annotation": {"number": 64, "value": 127}, "group": "control_change"}, {"time": 4272, "annotation": {"number": 64, "value": 0}, "group": "control_change"}]}]}