{"metadata": {"schema_version": "0.2", "title": "None", "source_filename": "391.mid", "source_format": "midi"}, "resolution": 12, "tempos": [{"time": 0, "qpm": 70.00007000007}], "time_signatures": [{"time": 0, "numerator": 1, "denominator": 4}], "tracks": [{"program": 4, "is_drum": false, "name": "MELODY", "notes": [{"time": 372, "pitch": 61, "duration": 5, "velocity": 99}, {"time": 378, "pitch": 66, "duration": 6, "velocity": 96}, {"time": 384, "pitch": 68, "duration": 6, "velocity": 92}, {"time": 390, "pitch": 70, "duration": 10, "velocity": 112}, {"time": 402, "pitch": 73, "duration": 5, "velocity": 102}, {"time": 414, "pitch": 71, "duration": 6, "velocity": 95}, {"time": 420, "pitch": 70, "duration": 3, "velocity": 90}, {"time": 423, "pitch": 68, "duration": 10, "velocity": 92}, {"time": 432, "pitch": 70, "duration": 11, "velocity": 96}, {"time": 444, "pitch": 70, "duration": 3, "velocity": 92}, {"time": 447, "pitch": 71, "duration": 3, "velocity": 69}, {"time": 450, "pitch": 70, "duration": 5, "velocity": 92}, {"time": 456, "pitch": 66, "duration": 8, "velocity": 66}, {"time": 468, "pitch": 66, "duration": 5, "velocity": 107}, {"time": 474, "pitch": 70, "duration": 5, "velocity": 99}, {"time": 480, "pitch": 73, "duration": 6, "velocity": 99}, {"time": 486, "pitch": 78, "duration": 12, "velocity": 99}, {"time": 498, "pitch": 80, "duration": 4, "velocity": 99}, {"time": 510, "pitch": 77, "duration": 6, "velocity": 107}, {"time": 516, "pitch": 75, "duration": 3, "velocity": 93}, {"time": 519, "pitch": 73, "duration": 7, "velocity": 90}, {"time": 528, "pitch": 68, "duration": 6, "velocity": 93}, {"time": 534, "pitch": 70, "duration": 23, "velocity": 96}, {"time": 564, "pitch": 66, "duration": 5, "velocity": 92}, {"time": 570, "pitch": 70, "duration": 4, "velocity": 102}, {"time": 576, "pitch": 73, "duration": 4, "velocity": 96}, {"time": 582, "pitch": 78, "duration": 9, "velocity": 102}, {"time": 594, "pitch": 80, "duration": 5, "velocity": 122}, {"time": 606, "pitch": 77, "duration": 5, "velocity": 112}, {"time": 612, "pitch": 75, "duration": 3, "velocity": 93}, {"time": 615, "pitch": 73, "duration": 8, "velocity": 82}, {"time": 621, "pitch": 75, "duration": 8, "velocity": 88}, {"time": 630, "pitch": 78, "duration": 3, "velocity": 117}, {"time": 636, "pitch": 78, "duration": 1, "velocity": 95}, {"time": 639, "pitch": 78, "duration": 5, "velocity": 112}, {"time": 645, "pitch": 73, "duration": 8, "velocity": 96}, {"time": 651, "pitch": 70, "duration": 11, "velocity": 78}, {"time": 666, "pitch": 70, "duration": 3, "velocity": 117}, {"time": 669, "pitch": 71, "duration": 4, "velocity": 90}, {"time": 675, "pitch": 73, "duration": 1, "velocity": 97}, {"time": 677, "pitch": 70, "duration": 6, "velocity": 93}, {"time": 684, "pitch": 68, "duration": 21, "velocity": 89}, {"time": 714, "pitch": 70, "duration": 4, "velocity": 100}, {"time": 717, "pitch": 71, "duration": 4, "velocity": 85}, {"time": 723, "pitch": 73, "duration": 2, "velocity": 96}, {"time": 726, "pitch": 70, "duration": 6, "velocity": 83}, {"time": 732, "pitch": 68, "duration": 24, "velocity": 86}, {"time": 756, "pitch": 61, "duration": 5, "velocity": 99}, {"time": 762, "pitch": 66, "duration": 6, "velocity": 96}, {"time": 768, "pitch": 68, "duration": 6, "velocity": 92}, {"time": 774, "pitch": 70, "duration": 10, "velocity": 112}, {"time": 786, "pitch": 73, "duration": 5, "velocity": 102}, {"time": 798, "pitch": 71, "duration": 6, "velocity": 95}, {"time": 804, "pitch": 70, "duration": 3, "velocity": 90}, {"time": 807, "pitch": 68, "duration": 10, "velocity": 92}, {"time": 816, "pitch": 70, "duration": 11, "velocity": 96}, {"time": 828, "pitch": 70, "duration": 3, "velocity": 92}, {"time": 831, "pitch": 71, "duration": 3, "velocity": 69}, {"time": 834, "pitch": 70, "duration": 5, "velocity": 92}, {"time": 840, "pitch": 66, "duration": 8, "velocity": 66}, {"time": 852, "pitch": 66, "duration": 5, "velocity": 107}, {"time": 858, "pitch": 70, "duration": 5, "velocity": 99}, {"time": 864, "pitch": 73, "duration": 6, "velocity": 99}, {"time": 870, "pitch": 78, "duration": 12, "velocity": 99}, {"time": 882, "pitch": 80, "duration": 4, "velocity": 99}, {"time": 894, "pitch": 77, "duration": 6, "velocity": 107}, {"time": 900, "pitch": 75, "duration": 3, "velocity": 93}, {"time": 903, "pitch": 73, "duration": 7, "velocity": 90}, {"time": 912, "pitch": 68, "duration": 6, "velocity": 93}, {"time": 918, "pitch": 70, "duration": 23, "velocity": 96}, {"time": 948, "pitch": 66, "duration": 5, "velocity": 92}, {"time": 954, "pitch": 70, "duration": 4, "velocity": 102}, {"time": 960, "pitch": 73, "duration": 4, "velocity": 96}, {"time": 966, "pitch": 78, "duration": 9, "velocity": 102}, {"time": 978, "pitch": 80, "duration": 5, "velocity": 122}, {"time": 990, "pitch": 77, "duration": 5, "velocity": 112}, {"time": 996, "pitch": 75, "duration": 3, "velocity": 93}, {"time": 999, "pitch": 73, "duration": 8, "velocity": 82}, {"time": 1005, "pitch": 75, "duration": 8, "velocity": 88}, {"time": 1014, "pitch": 78, "duration": 3, "velocity": 117}, {"time": 1020, "pitch": 78, "duration": 1, "velocity": 95}, {"time": 1023, "pitch": 78, "duration": 5, "velocity": 112}, {"time": 1029, "pitch": 73, "duration": 8, "velocity": 96}, {"time": 1035, "pitch": 70, "duration": 11, "velocity": 78}, {"time": 1050, "pitch": 70, "duration": 3, "velocity": 117}, {"time": 1053, "pitch": 71, "duration": 4, "velocity": 90}, {"time": 1059, "pitch": 73, "duration": 1, "velocity": 97}, {"time": 1062, "pitch": 70, "duration": 6, "velocity": 93}, {"time": 1068, "pitch": 68, "duration": 21, "velocity": 89}, {"time": 1098, "pitch": 70, "duration": 4, "velocity": 100}, {"time": 1101, "pitch": 71, "duration": 4, "velocity": 85}, {"time": 1107, "pitch": 73, "duration": 2, "velocity": 96}, {"time": 1110, "pitch": 70, "duration": 6, "velocity": 83}, {"time": 1116, "pitch": 68, "duration": 18, "velocity": 86}, {"time": 1140, "pitch": 73, "duration": 4, "velocity": 112}, {"time": 1146, "pitch": 75, "duration": 3, "velocity": 99}, {"time": 1152, "pitch": 77, "duration": 4, "velocity": 96}, {"time": 1158, "pitch": 78, "duration": 5, "velocity": 127}, {"time": 1164, "pitch": 80, "duration": 3, "velocity": 122}, {"time": 1167, "pitch": 82, "duration": 8, "velocity": 127}, {"time": 1173, "pitch": 78, "duration": 7, "velocity": 127}, {"time": 1182, "pitch": 77, "duration": 4, "velocity": 127}, {"time": 1188, "pitch": 75, "duration": 2, "velocity": 112}, {"time": 1191, "pitch": 77, "duration": 4, "velocity": 107}, {"time": 1197, "pitch": 73, "duration": 7, "velocity": 127}, {"time": 1206, "pitch": 75, "duration": 5, "velocity": 117}, {"time": 1212, "pitch": 73, "duration": 3, "velocity": 100}, {"time": 1215, "pitch": 75, "duration": 4, "velocity": 107}, {"time": 1221, "pitch": 66, "duration": 4, "velocity": 99}, {"time": 1227, "pitch": 73, "duration": 8, "velocity": 96}, {"time": 1242, "pitch": 73, "duration": 4, "velocity": 127}, {"time": 1246, "pitch": 75, "duration": 2, "velocity": 112}, {"time": 1250, "pitch": 77, "duration": 2, "velocity": 92}, {"time": 1254, "pitch": 78, "duration": 3, "velocity": 122}, {"time": 1260, "pitch": 80, "duration": 1, "velocity": 122}, {"time": 1263, "pitch": 82, "duration": 9, "velocity": 112}, {"time": 1272, "pitch": 85, "duration": 2, "velocity": 127}, {"time": 1278, "pitch": 85, "duration": 14, "velocity": 122}, {"time": 1290, "pitch": 80, "duration": 8, "velocity": 127}, {"time": 1302, "pitch": 75, "duration": 4, "velocity": 122}, {"time": 1308, "pitch": 77, "duration": 2, "velocity": 86}, {"time": 1311, "pitch": 78, "duration": 6, "velocity": 122}, {"time": 1317, "pitch": 80, "duration": 5, "velocity": 122}, {"time": 1326, "pitch": 80, "duration": 10, "velocity": 127}, {"time": 1338, "pitch": 82, "duration": 5, "velocity": 127}, {"time": 1344, "pitch": 80, "duration": 4, "velocity": 122}, {"time": 1350, "pitch": 78, "duration": 8, "velocity": 127}, {"time": 1362, "pitch": 85, "duration": 6, "velocity": 117}, {"time": 1374, "pitch": 83, "duration": 2, "velocity": 127}, {"time": 1380, "pitch": 82, "duration": 2, "velocity": 127}, {"time": 1383, "pitch": 80, "duration": 3, "velocity": 122}, {"time": 1389, "pitch": 78, "duration": 6, "velocity": 127}, {"time": 1398, "pitch": 78, "duration": 9, "velocity": 127}, {"time": 1410, "pitch": 85, "duration": 4, "velocity": 122}, {"time": 1422, "pitch": 83, "duration": 6, "velocity": 122}, {"time": 1428, "pitch": 82, "duration": 3, "velocity": 122}, {"time": 1431, "pitch": 80, "duration": 5, "velocity": 127}, {"time": 1440, "pitch": 82, "duration": 4, "velocity": 127}, {"time": 1446, "pitch": 80, "duration": 3, "velocity": 127}, {"time": 1452, "pitch": 78, "duration": 1, "velocity": 112}, {"time": 1455, "pitch": 78, "duration": 5, "velocity": 127}, {"time": 1464, "pitch": 80, "duration": 3, "velocity": 127}, {"time": 1467, "pitch": 82, "duration": 2, "velocity": 102}, {"time": 1470, "pitch": 80, "duration": 3, "velocity": 122}, {"time": 1476, "pitch": 78, "duration": 1, "velocity": 122}, {"time": 1479, "pitch": 78, "duration": 5, "velocity": 117}, {"time": 1491, "pitch": 73, "duration": 1, "velocity": 112}, {"time": 1494, "pitch": 75, "duration": 5, "velocity": 117}, {"time": 1500, "pitch": 78, "duration": 1, "velocity": 67}, {"time": 1503, "pitch": 78, "duration": 4, "velocity": 127}, {"time": 1509, "pitch": 82, "duration": 8, "velocity": 117}, {"time": 1518, "pitch": 80, "duration": 6, "velocity": 127}, {"time": 1530, "pitch": 82, "duration": 4, "velocity": 127}, {"time": 1536, "pitch": 80, "duration": 3, "velocity": 122}, {"time": 1542, "pitch": 78, "duration": 8, "velocity": 127}, {"time": 1554, "pitch": 85, "duration": 5, "velocity": 127}, {"time": 1566, "pitch": 83, "duration": 4, "velocity": 127}, {"time": 1572, "pitch": 82, "duration": 2, "velocity": 112}, {"time": 1575, "pitch": 80, "duration": 3, "velocity": 127}, {"time": 1581, "pitch": 78, "duration": 6, "velocity": 127}, {"time": 1590, "pitch": 78, "duration": 8, "velocity": 127}, {"time": 1602, "pitch": 85, "duration": 6, "velocity": 127}, {"time": 1614, "pitch": 83, "duration": 4, "velocity": 127}, {"time": 1620, "pitch": 82, "duration": 2, "velocity": 122}, {"time": 1623, "pitch": 80, "duration": 6, "velocity": 122}, {"time": 1632, "pitch": 82, "duration": 3, "velocity": 127}, {"time": 1638, "pitch": 80, "duration": 3, "velocity": 127}, {"time": 1644, "pitch": 78, "duration": 1, "velocity": 102}, {"time": 1647, "pitch": 78, "duration": 5, "velocity": 122}, {"time": 1656, "pitch": 80, "duration": 2, "velocity": 127}, {"time": 1659, "pitch": 82, "duration": 2, "velocity": 99}, {"time": 1662, "pitch": 80, "duration": 3, "velocity": 122}, {"time": 1668, "pitch": 78, "duration": 1, "velocity": 117}, {"time": 1671, "pitch": 78, "duration": 5, "velocity": 127}, {"time": 1680, "pitch": 80, "duration": 3, "velocity": 127}, {"time": 1683, "pitch": 82, "duration": 2, "velocity": 97}, {"time": 1686, "pitch": 80, "duration": 2, "velocity": 122}, {"time": 1692, "pitch": 80, "duration": 16, "velocity": 127}, {"time": 1716, "pitch": 82, "duration": 3, "velocity": 117}, {"time": 1722, "pitch": 80, "duration": 5, "velocity": 127}, {"time": 1731, "pitch": 78, "duration": 1, "velocity": 100}, {"time": 1734, "pitch": 78, "duration": 33, "velocity": 127}, {"time": 1980, "pitch": 61, "duration": 5, "velocity": 99}, {"time": 1986, "pitch": 66, "duration": 6, "velocity": 96}, {"time": 1992, "pitch": 68, "duration": 6, "velocity": 92}, {"time": 1998, "pitch": 70, "duration": 10, "velocity": 112}, {"time": 2010, "pitch": 73, "duration": 5, "velocity": 102}, {"time": 2022, "pitch": 71, "duration": 6, "velocity": 95}, {"time": 2028, "pitch": 70, "duration": 3, "velocity": 90}, {"time": 2031, "pitch": 68, "duration": 10, "velocity": 92}, {"time": 2040, "pitch": 70, "duration": 11, "velocity": 96}, {"time": 2052, "pitch": 70, "duration": 3, "velocity": 92}, {"time": 2055, "pitch": 71, "duration": 3, "velocity": 69}, {"time": 2058, "pitch": 70, "duration": 5, "velocity": 92}, {"time": 2064, "pitch": 66, "duration": 8, "velocity": 66}, {"time": 2076, "pitch": 66, "duration": 5, "velocity": 107}, {"time": 2082, "pitch": 70, "duration": 5, "velocity": 99}, {"time": 2088, "pitch": 73, "duration": 6, "velocity": 99}, {"time": 2094, "pitch": 78, "duration": 12, "velocity": 99}, {"time": 2106, "pitch": 80, "duration": 4, "velocity": 99}, {"time": 2118, "pitch": 77, "duration": 6, "velocity": 107}, {"time": 2124, "pitch": 75, "duration": 3, "velocity": 93}, {"time": 2127, "pitch": 73, "duration": 7, "velocity": 90}, {"time": 2136, "pitch": 68, "duration": 6, "velocity": 93}, {"time": 2142, "pitch": 70, "duration": 23, "velocity": 96}, {"time": 2172, "pitch": 66, "duration": 5, "velocity": 92}, {"time": 2178, "pitch": 70, "duration": 4, "velocity": 102}, {"time": 2184, "pitch": 73, "duration": 4, "velocity": 96}, {"time": 2190, "pitch": 78, "duration": 9, "velocity": 102}, {"time": 2202, "pitch": 80, "duration": 5, "velocity": 122}, {"time": 2214, "pitch": 77, "duration": 5, "velocity": 112}, {"time": 2220, "pitch": 75, "duration": 3, "velocity": 93}, {"time": 2223, "pitch": 73, "duration": 8, "velocity": 82}, {"time": 2229, "pitch": 75, "duration": 8, "velocity": 88}, {"time": 2238, "pitch": 78, "duration": 3, "velocity": 117}, {"time": 2244, "pitch": 78, "duration": 1, "velocity": 95}, {"time": 2247, "pitch": 78, "duration": 5, "velocity": 112}, {"time": 2253, "pitch": 73, "duration": 8, "velocity": 96}, {"time": 2259, "pitch": 70, "duration": 11, "velocity": 78}, {"time": 2274, "pitch": 70, "duration": 3, "velocity": 117}, {"time": 2277, "pitch": 71, "duration": 4, "velocity": 90}, {"time": 2283, "pitch": 73, "duration": 1, "velocity": 97}, {"time": 2286, "pitch": 70, "duration": 6, "velocity": 93}, {"time": 2292, "pitch": 68, "duration": 21, "velocity": 89}, {"time": 2322, "pitch": 70, "duration": 4, "velocity": 100}, {"time": 2325, "pitch": 71, "duration": 4, "velocity": 85}, {"time": 2331, "pitch": 73, "duration": 2, "velocity": 96}, {"time": 2334, "pitch": 70, "duration": 6, "velocity": 83}, {"time": 2340, "pitch": 68, "duration": 18, "velocity": 86}, {"time": 2364, "pitch": 73, "duration": 4, "velocity": 112}, {"time": 2370, "pitch": 75, "duration": 3, "velocity": 99}, {"time": 2376, "pitch": 77, "duration": 4, "velocity": 96}, {"time": 2382, "pitch": 78, "duration": 5, "velocity": 127}, {"time": 2388, "pitch": 80, "duration": 3, "velocity": 122}, {"time": 2391, "pitch": 82, "duration": 8, "velocity": 127}, {"time": 2397, "pitch": 78, "duration": 7, "velocity": 127}, {"time": 2406, "pitch": 77, "duration": 4, "velocity": 127}, {"time": 2412, "pitch": 75, "duration": 2, "velocity": 112}, {"time": 2415, "pitch": 77, "duration": 4, "velocity": 107}, {"time": 2421, "pitch": 73, "duration": 7, "velocity": 127}, {"time": 2430, "pitch": 75, "duration": 5, "velocity": 117}, {"time": 2436, "pitch": 73, "duration": 3, "velocity": 100}, {"time": 2439, "pitch": 75, "duration": 4, "velocity": 107}, {"time": 2445, "pitch": 66, "duration": 4, "velocity": 99}, {"time": 2451, "pitch": 73, "duration": 8, "velocity": 96}, {"time": 2466, "pitch": 73, "duration": 4, "velocity": 127}, {"time": 2470, "pitch": 75, "duration": 2, "velocity": 112}, {"time": 2474, "pitch": 77, "duration": 2, "velocity": 92}, {"time": 2478, "pitch": 78, "duration": 3, "velocity": 122}, {"time": 2484, "pitch": 80, "duration": 1, "velocity": 122}, {"time": 2487, "pitch": 82, "duration": 9, "velocity": 112}, {"time": 2496, "pitch": 85, "duration": 2, "velocity": 127}, {"time": 2502, "pitch": 85, "duration": 14, "velocity": 122}, {"time": 2514, "pitch": 80, "duration": 8, "velocity": 127}, {"time": 2526, "pitch": 75, "duration": 4, "velocity": 122}, {"time": 2532, "pitch": 77, "duration": 2, "velocity": 86}, {"time": 2535, "pitch": 78, "duration": 6, "velocity": 122}, {"time": 2541, "pitch": 82, "duration": 7, "velocity": 127}, {"time": 2550, "pitch": 80, "duration": 21, "velocity": 117}, {"time": 2586, "pitch": 82, "duration": 5, "velocity": 127}, {"time": 2592, "pitch": 80, "duration": 4, "velocity": 122}, {"time": 2598, "pitch": 78, "duration": 8, "velocity": 127}, {"time": 2610, "pitch": 85, "duration": 6, "velocity": 117}, {"time": 2622, "pitch": 83, "duration": 2, "velocity": 127}, {"time": 2628, "pitch": 82, "duration": 2, "velocity": 127}, {"time": 2631, "pitch": 80, "duration": 3, "velocity": 122}, {"time": 2637, "pitch": 78, "duration": 6, "velocity": 127}, {"time": 2646, "pitch": 78, "duration": 9, "velocity": 127}, {"time": 2658, "pitch": 85, "duration": 4, "velocity": 122}, {"time": 2670, "pitch": 83, "duration": 6, "velocity": 122}, {"time": 2676, "pitch": 82, "duration": 3, "velocity": 122}, {"time": 2679, "pitch": 80, "duration": 5, "velocity": 127}, {"time": 2688, "pitch": 82, "duration": 4, "velocity": 127}, {"time": 2694, "pitch": 80, "duration": 3, "velocity": 127}, {"time": 2700, "pitch": 78, "duration": 1, "velocity": 112}, {"time": 2703, "pitch": 78, "duration": 5, "velocity": 127}, {"time": 2712, "pitch": 80, "duration": 3, "velocity": 127}, {"time": 2715, "pitch": 82, "duration": 2, "velocity": 102}, {"time": 2718, "pitch": 80, "duration": 3, "velocity": 122}, {"time": 2724, "pitch": 78, "duration": 1, "velocity": 122}, {"time": 2727, "pitch": 78, "duration": 5, "velocity": 117}, {"time": 2739, "pitch": 73, "duration": 1, "velocity": 112}, {"time": 2742, "pitch": 75, "duration": 5, "velocity": 117}, {"time": 2748, "pitch": 78, "duration": 1, "velocity": 67}, {"time": 2751, "pitch": 78, "duration": 4, "velocity": 127}, {"time": 2757, "pitch": 82, "duration": 8, "velocity": 117}, {"time": 2766, "pitch": 80, "duration": 6, "velocity": 127}, {"time": 2778, "pitch": 82, "duration": 4, "velocity": 127}, {"time": 2784, "pitch": 80, "duration": 3, "velocity": 122}, {"time": 2790, "pitch": 78, "duration": 8, "velocity": 127}, {"time": 2802, "pitch": 85, "duration": 5, "velocity": 127}, {"time": 2814, "pitch": 83, "duration": 4, "velocity": 127}, {"time": 2820, "pitch": 82, "duration": 2, "velocity": 112}, {"time": 2823, "pitch": 80, "duration": 3, "velocity": 127}, {"time": 2829, "pitch": 78, "duration": 6, "velocity": 127}, {"time": 2838, "pitch": 78, "duration": 8, "velocity": 127}, {"time": 2850, "pitch": 85, "duration": 6, "velocity": 127}, {"time": 2862, "pitch": 83, "duration": 4, "velocity": 127}, {"time": 2868, "pitch": 82, "duration": 2, "velocity": 122}, {"time": 2871, "pitch": 80, "duration": 6, "velocity": 122}, {"time": 2880, "pitch": 82, "duration": 3, "velocity": 127}, {"time": 2886, "pitch": 80, "duration": 3, "velocity": 127}, {"time": 2892, "pitch": 78, "duration": 1, "velocity": 102}, {"time": 2895, "pitch": 78, "duration": 5, "velocity": 122}, {"time": 2904, "pitch": 80, "duration": 2, "velocity": 127}, {"time": 2907, "pitch": 82, "duration": 2, "velocity": 99}, {"time": 2910, "pitch": 80, "duration": 3, "velocity": 122}, {"time": 2916, "pitch": 78, "duration": 1, "velocity": 117}, {"time": 2919, "pitch": 78, "duration": 5, "velocity": 127}, {"time": 2928, "pitch": 80, "duration": 3, "velocity": 127}, {"time": 2931, "pitch": 82, "duration": 2, "velocity": 97}, {"time": 2934, "pitch": 80, "duration": 2, "velocity": 122}, {"time": 2940, "pitch": 80, "duration": 16, "velocity": 127}, {"time": 2964, "pitch": 82, "duration": 3, "velocity": 117}, {"time": 2970, "pitch": 80, "duration": 5, "velocity": 127}, {"time": 2979, "pitch": 78, "duration": 1, "velocity": 100}, {"time": 2982, "pitch": 78, "duration": 33, "velocity": 127}, {"time": 3018, "pitch": 82, "duration": 5, "velocity": 127}, {"time": 3024, "pitch": 80, "duration": 4, "velocity": 122}, {"time": 3030, "pitch": 78, "duration": 8, "velocity": 127}, {"time": 3042, "pitch": 85, "duration": 6, "velocity": 117}, {"time": 3054, "pitch": 83, "duration": 2, "velocity": 127}, {"time": 3060, "pitch": 82, "duration": 2, "velocity": 127}, {"time": 3063, "pitch": 80, "duration": 3, "velocity": 122}, {"time": 3069, "pitch": 78, "duration": 6, "velocity": 127}, {"time": 3078, "pitch": 78, "duration": 9, "velocity": 127}, {"time": 3090, "pitch": 85, "duration": 4, "velocity": 122}, {"time": 3102, "pitch": 83, "duration": 6, "velocity": 122}, {"time": 3108, "pitch": 82, "duration": 3, "velocity": 122}, {"time": 3111, "pitch": 80, "duration": 5, "velocity": 127}, {"time": 3120, "pitch": 82, "duration": 4, "velocity": 127}, {"time": 3126, "pitch": 80, "duration": 3, "velocity": 127}, {"time": 3132, "pitch": 78, "duration": 1, "velocity": 112}, {"time": 3135, "pitch": 78, "duration": 5, "velocity": 127}, {"time": 3144, "pitch": 80, "duration": 3, "velocity": 127}, {"time": 3147, "pitch": 82, "duration": 2, "velocity": 102}, {"time": 3150, "pitch": 80, "duration": 3, "velocity": 122}, {"time": 3156, "pitch": 78, "duration": 1, "velocity": 122}, {"time": 3159, "pitch": 78, "duration": 5, "velocity": 117}, {"time": 3171, "pitch": 73, "duration": 1, "velocity": 112}, {"time": 3174, "pitch": 75, "duration": 5, "velocity": 117}, {"time": 3180, "pitch": 78, "duration": 1, "velocity": 67}, {"time": 3183, "pitch": 78, "duration": 4, "velocity": 127}, {"time": 3189, "pitch": 82, "duration": 8, "velocity": 117}, {"time": 3198, "pitch": 80, "duration": 6, "velocity": 127}, {"time": 3210, "pitch": 82, "duration": 4, "velocity": 127}, {"time": 3216, "pitch": 80, "duration": 3, "velocity": 122}, {"time": 3222, "pitch": 78, "duration": 8, "velocity": 127}, {"time": 3234, "pitch": 85, "duration": 5, "velocity": 127}, {"time": 3246, "pitch": 83, "duration": 4, "velocity": 127}, {"time": 3252, "pitch": 82, "duration": 2, "velocity": 112}, {"time": 3255, "pitch": 80, "duration": 3, "velocity": 127}, {"time": 3261, "pitch": 78, "duration": 6, "velocity": 127}, {"time": 3270, "pitch": 78, "duration": 8, "velocity": 127}, {"time": 3282, "pitch": 85, "duration": 6, "velocity": 127}, {"time": 3294, "pitch": 83, "duration": 4, "velocity": 127}, {"time": 3300, "pitch": 82, "duration": 2, "velocity": 122}, {"time": 3303, "pitch": 80, "duration": 6, "velocity": 122}, {"time": 3312, "pitch": 82, "duration": 3, "velocity": 127}, {"time": 3318, "pitch": 80, "duration": 3, "velocity": 127}, {"time": 3324, "pitch": 78, "duration": 1, "velocity": 102}, {"time": 3327, "pitch": 78, "duration": 5, "velocity": 122}, {"time": 3336, "pitch": 80, "duration": 2, "velocity": 127}, {"time": 3339, "pitch": 82, "duration": 2, "velocity": 99}, {"time": 3342, "pitch": 80, "duration": 3, "velocity": 122}, {"time": 3348, "pitch": 78, "duration": 1, "velocity": 117}, {"time": 3351, "pitch": 78, "duration": 5, "velocity": 127}, {"time": 3360, "pitch": 80, "duration": 3, "velocity": 127}, {"time": 3363, "pitch": 82, "duration": 2, "velocity": 97}, {"time": 3366, "pitch": 80, "duration": 2, "velocity": 122}, {"time": 3372, "pitch": 80, "duration": 16, "velocity": 127}, {"time": 3396, "pitch": 82, "duration": 3, "velocity": 117}, {"time": 3402, "pitch": 80, "duration": 5, "velocity": 127}, {"time": 3411, "pitch": 78, "duration": 1, "velocity": 100}, {"time": 3414, "pitch": 78, "duration": 33, "velocity": 127}]}, {"program": 0, "is_drum": false, "name": "PIANO", "notes": [{"time": 198, "pitch": 54, "duration": 23, "velocity": 43}, {"time": 204, "pitch": 61, "duration": 9, "velocity": 47}, {"time": 210, "pitch": 70, "duration": 13, "velocity": 54}, {"time": 216, "pitch": 61, "duration": 5, "velocity": 51}, {"time": 222, "pitch": 53, "duration": 17, "velocity": 41}, {"time": 228, "pitch": 65, "duration": 7, "velocity": 47}, {"time": 234, "pitch": 70, "duration": 12, "velocity": 42}, {"time": 240, "pitch": 65, "duration": 5, "velocity": 41}, {"time": 246, "pitch": 51, "duration": 14, "velocity": 47}, {"time": 252, "pitch": 63, "duration": 11, "velocity": 39}, {"time": 258, "pitch": 70, "duration": 12, "velocity": 45}, {"time": 270, "pitch": 49, "duration": 14, "velocity": 59}, {"time": 276, "pitch": 56, "duration": 7, "velocity": 47}, {"time": 282, "pitch": 61, "duration": 1, "velocity": 23}, {"time": 282, "pitch": 68, "duration": 12, "velocity": 61}, {"time": 288, "pitch": 61, "duration": 6, "velocity": 45}, {"time": 294, "pitch": 47, "duration": 18, "velocity": 68}, {"time": 300, "pitch": 54, "duration": 11, "velocity": 58}, {"time": 306, "pitch": 66, "duration": 10, "velocity": 83}, {"time": 312, "pitch": 59, "duration": 6, "velocity": 56}, {"time": 318, "pitch": 49, "duration": 12, "velocity": 41}, {"time": 324, "pitch": 56, "duration": 7, "velocity": 53}, {"time": 330, "pitch": 65, "duration": 10, "velocity": 53}, {"time": 336, "pitch": 61, "duration": 7, "velocity": 48}, {"time": 342, "pitch": 42, "duration": 47, "velocity": 66}, {"time": 348, "pitch": 49, "duration": 40, "velocity": 31}, {"time": 354, "pitch": 54, "duration": 33, "velocity": 45}, {"time": 357, "pitch": 58, "duration": 31, "velocity": 46}, {"time": 366, "pitch": 61, "duration": 23, "velocity": 37}, {"time": 366, "pitch": 66, "duration": 23, "velocity": 39}, {"time": 390, "pitch": 42, "duration": 33, "velocity": 89}, {"time": 396, "pitch": 54, "duration": 12, "velocity": 58}, {"time": 402, "pitch": 61, "duration": 25, "velocity": 71}, {"time": 408, "pitch": 58, "duration": 6, "velocity": 66}, {"time": 414, "pitch": 54, "duration": 11, "velocity": 52}, {"time": 420, "pitch": 58, "duration": 7, "velocity": 52}, {"time": 426, "pitch": 41, "duration": 7, "velocity": 67}, {"time": 432, "pitch": 53, "duration": 8, "velocity": 52}, {"time": 432, "pitch": 58, "duration": 7, "velocity": 1}, {"time": 438, "pitch": 39, "duration": 34, "velocity": 67}, {"time": 444, "pitch": 51, "duration": 4, "velocity": 42}, {"time": 450, "pitch": 58, "duration": 24, "velocity": 42}, {"time": 456, "pitch": 51, "duration": 6, "velocity": 50}, {"time": 462, "pitch": 54, "duration": 11, "velocity": 69}, {"time": 468, "pitch": 51, "duration": 5, "velocity": 43}, {"time": 474, "pitch": 37, "duration": 12, "velocity": 63}, {"time": 480, "pitch": 54, "duration": 7, "velocity": 57}, {"time": 486, "pitch": 35, "duration": 21, "velocity": 66}, {"time": 492, "pitch": 42, "duration": 17, "velocity": 47}, {"time": 498, "pitch": 63, "duration": 11, "velocity": 54}, {"time": 498, "pitch": 66, "duration": 11, "velocity": 41}, {"time": 504, "pitch": 59, "duration": 5, "velocity": 55}, {"time": 510, "pitch": 37, "duration": 13, "velocity": 65}, {"time": 516, "pitch": 49, "duration": 6, "velocity": 72}, {"time": 522, "pitch": 53, "duration": 11, "velocity": 56}, {"time": 522, "pitch": 56, "duration": 12, "velocity": 53}, {"time": 534, "pitch": 39, "duration": 22, "velocity": 67}, {"time": 540, "pitch": 51, "duration": 6, "velocity": 53}, {"time": 546, "pitch": 54, "duration": 24, "velocity": 41}, {"time": 546, "pitch": 58, "duration": 23, "velocity": 39}, {"time": 552, "pitch": 51, "duration": 8, "velocity": 37}, {"time": 558, "pitch": 39, "duration": 10, "velocity": 67}, {"time": 564, "pitch": 51, "duration": 5, "velocity": 63}, {"time": 570, "pitch": 37, "duration": 12, "velocity": 73}, {"time": 576, "pitch": 51, "duration": 6, "velocity": 62}, {"time": 576, "pitch": 54, "duration": 3, "velocity": 18}, {"time": 582, "pitch": 47, "duration": 22, "velocity": 82}, {"time": 588, "pitch": 54, "duration": 18, "velocity": 64}, {"time": 594, "pitch": 63, "duration": 21, "velocity": 69}, {"time": 594, "pitch": 66, "duration": 21, "velocity": 67}, {"time": 600, "pitch": 59, "duration": 13, "velocity": 66}, {"time": 606, "pitch": 47, "duration": 24, "velocity": 78}, {"time": 612, "pitch": 54, "duration": 18, "velocity": 69}, {"time": 618, "pitch": 63, "duration": 12, "velocity": 64}, {"time": 618, "pitch": 66, "duration": 13, "velocity": 64}, {"time": 624, "pitch": 59, "duration": 6, "velocity": 62}, {"time": 630, "pitch": 42, "duration": 7, "velocity": 81}, {"time": 636, "pitch": 49, "duration": 6, "velocity": 46}, {"time": 636, "pitch": 54, "duration": 6, "velocity": 50}, {"time": 642, "pitch": 41, "duration": 12, "velocity": 57}, {"time": 642, "pitch": 61, "duration": 12, "velocity": 79}, {"time": 648, "pitch": 54, "duration": 7, "velocity": 66}, {"time": 654, "pitch": 39, "duration": 13, "velocity": 68}, {"time": 660, "pitch": 51, "duration": 6, "velocity": 47}, {"time": 666, "pitch": 54, "duration": 12, "velocity": 56}, {"time": 666, "pitch": 58, "duration": 13, "velocity": 64}, {"time": 672, "pitch": 51, "duration": 6, "velocity": 47}, {"time": 678, "pitch": 44, "duration": 14, "velocity": 66}, {"time": 684, "pitch": 56, "duration": 7, "velocity": 43}, {"time": 690, "pitch": 59, "duration": 10, "velocity": 48}, {"time": 690, "pitch": 63, "duration": 11, "velocity": 58}, {"time": 696, "pitch": 56, "duration": 7, "velocity": 49}, {"time": 702, "pitch": 37, "duration": 21, "velocity": 67}, {"time": 708, "pitch": 44, "duration": 15, "velocity": 25}, {"time": 714, "pitch": 61, "duration": 12, "velocity": 69}, {"time": 714, "pitch": 65, "duration": 12, "velocity": 62}, {"time": 726, "pitch": 37, "duration": 47, "velocity": 66}, {"time": 732, "pitch": 44, "duration": 40, "velocity": 34}, {"time": 738, "pitch": 49, "duration": 35, "velocity": 58}, {"time": 744, "pitch": 56, "duration": 29, "velocity": 41}, {"time": 750, "pitch": 61, "duration": 23, "velocity": 56}, {"time": 750, "pitch": 65, "duration": 23, "velocity": 58}, {"time": 774, "pitch": 42, "duration": 33, "velocity": 89}, {"time": 780, "pitch": 54, "duration": 12, "velocity": 58}, {"time": 786, "pitch": 61, "duration": 25, "velocity": 71}, {"time": 792, "pitch": 58, "duration": 6, "velocity": 66}, {"time": 798, "pitch": 54, "duration": 11, "velocity": 52}, {"time": 804, "pitch": 58, "duration": 7, "velocity": 52}, {"time": 810, "pitch": 41, "duration": 7, "velocity": 67}, {"time": 816, "pitch": 53, "duration": 8, "velocity": 52}, {"time": 816, "pitch": 58, "duration": 7, "velocity": 1}, {"time": 822, "pitch": 39, "duration": 34, "velocity": 67}, {"time": 828, "pitch": 51, "duration": 4, "velocity": 42}, {"time": 834, "pitch": 58, "duration": 24, "velocity": 42}, {"time": 840, "pitch": 51, "duration": 6, "velocity": 50}, {"time": 846, "pitch": 54, "duration": 11, "velocity": 69}, {"time": 852, "pitch": 51, "duration": 5, "velocity": 43}, {"time": 858, "pitch": 37, "duration": 12, "velocity": 63}, {"time": 864, "pitch": 54, "duration": 7, "velocity": 57}, {"time": 870, "pitch": 35, "duration": 21, "velocity": 66}, {"time": 876, "pitch": 42, "duration": 17, "velocity": 47}, {"time": 882, "pitch": 63, "duration": 11, "velocity": 54}, {"time": 882, "pitch": 66, "duration": 11, "velocity": 41}, {"time": 888, "pitch": 59, "duration": 5, "velocity": 55}, {"time": 894, "pitch": 37, "duration": 13, "velocity": 65}, {"time": 900, "pitch": 49, "duration": 6, "velocity": 72}, {"time": 906, "pitch": 53, "duration": 11, "velocity": 56}, {"time": 906, "pitch": 56, "duration": 12, "velocity": 53}, {"time": 918, "pitch": 39, "duration": 22, "velocity": 67}, {"time": 924, "pitch": 51, "duration": 6, "velocity": 53}, {"time": 930, "pitch": 54, "duration": 24, "velocity": 41}, {"time": 930, "pitch": 58, "duration": 23, "velocity": 39}, {"time": 936, "pitch": 51, "duration": 8, "velocity": 37}, {"time": 942, "pitch": 39, "duration": 10, "velocity": 67}, {"time": 948, "pitch": 51, "duration": 5, "velocity": 63}, {"time": 954, "pitch": 37, "duration": 12, "velocity": 73}, {"time": 960, "pitch": 51, "duration": 6, "velocity": 62}, {"time": 960, "pitch": 54, "duration": 3, "velocity": 18}, {"time": 966, "pitch": 35, "duration": 37, "velocity": 72}, {"time": 972, "pitch": 42, "duration": 31, "velocity": 46}, {"time": 978, "pitch": 47, "duration": 29, "velocity": 90}, {"time": 984, "pitch": 59, "duration": 7, "velocity": 64}, {"time": 990, "pitch": 63, "duration": 12, "velocity": 75}, {"time": 990, "pitch": 66, "duration": 22, "velocity": 90}, {"time": 1002, "pitch": 59, "duration": 12, "velocity": 85}, {"time": 1008, "pitch": 63, "duration": 5, "velocity": 53}, {"time": 1014, "pitch": 42, "duration": 12, "velocity": 71}, {"time": 1020, "pitch": 54, "duration": 6, "velocity": 50}, {"time": 1026, "pitch": 41, "duration": 12, "velocity": 57}, {"time": 1026, "pitch": 61, "duration": 12, "velocity": 79}, {"time": 1032, "pitch": 54, "duration": 7, "velocity": 66}, {"time": 1038, "pitch": 39, "duration": 13, "velocity": 68}, {"time": 1044, "pitch": 51, "duration": 6, "velocity": 47}, {"time": 1050, "pitch": 54, "duration": 12, "velocity": 56}, {"time": 1050, "pitch": 58, "duration": 12, "velocity": 64}, {"time": 1056, "pitch": 51, "duration": 6, "velocity": 47}, {"time": 1062, "pitch": 44, "duration": 38, "velocity": 72}, {"time": 1068, "pitch": 51, "duration": 8, "velocity": 53}, {"time": 1074, "pitch": 60, "duration": 22, "velocity": 58}, {"time": 1074, "pitch": 63, "duration": 22, "velocity": 56}, {"time": 1080, "pitch": 51, "duration": 12, "velocity": 34}, {"time": 1086, "pitch": 56, "duration": 13, "velocity": 58}, {"time": 1092, "pitch": 51, "duration": 6, "velocity": 45}, {"time": 1098, "pitch": 60, "duration": 12, "velocity": 68}, {"time": 1098, "pitch": 63, "duration": 11, "velocity": 66}, {"time": 1104, "pitch": 56, "duration": 7, "velocity": 53}, {"time": 1110, "pitch": 37, "duration": 36, "velocity": 70}, {"time": 1116, "pitch": 44, "duration": 31, "velocity": 38}, {"time": 1122, "pitch": 49, "duration": 15, "velocity": 83}, {"time": 1128, "pitch": 56, "duration": 17, "velocity": 71}, {"time": 1134, "pitch": 61, "duration": 10, "velocity": 70}, {"time": 1134, "pitch": 65, "duration": 8, "velocity": 66}, {"time": 1140, "pitch": 49, "duration": 7, "velocity": 50}, {"time": 1146, "pitch": 56, "duration": 1, "velocity": 61}, {"time": 1146, "pitch": 61, "duration": 11, "velocity": 82}, {"time": 1146, "pitch": 65, "duration": 10, "velocity": 86}, {"time": 1152, "pitch": 56, "duration": 5, "velocity": 90}, {"time": 1158, "pitch": 51, "duration": 19, "velocity": 82}, {"time": 1161, "pitch": 58, "duration": 15, "velocity": 34}, {"time": 1164, "pitch": 63, "duration": 6, "velocity": 78}, {"time": 1167, "pitch": 75, "duration": 4, "velocity": 58}, {"time": 1170, "pitch": 82, "duration": 11, "velocity": 100}, {"time": 1173, "pitch": 63, "duration": 2, "velocity": 82}, {"time": 1176, "pitch": 78, "duration": 5, "velocity": 32}, {"time": 1182, "pitch": 46, "duration": 17, "velocity": 78}, {"time": 1188, "pitch": 58, "duration": 12, "velocity": 61}, {"time": 1194, "pitch": 70, "duration": 2, "velocity": 72}, {"time": 1194, "pitch": 73, "duration": 12, "velocity": 70}, {"time": 1194, "pitch": 77, "duration": 12, "velocity": 63}, {"time": 1200, "pitch": 70, "duration": 6, "velocity": 68}, {"time": 1206, "pitch": 59, "duration": 12, "velocity": 76}, {"time": 1209, "pitch": 66, "duration": 9, "velocity": 73}, {"time": 1212, "pitch": 71, "duration": 5, "velocity": 63}, {"time": 1215, "pitch": 75, "duration": 15, "velocity": 60}, {"time": 1218, "pitch": 78, "duration": 12, "velocity": 85}, {"time": 1224, "pitch": 71, "duration": 7, "velocity": 56}, {"time": 1230, "pitch": 54, "duration": 13, "velocity": 69}, {"time": 1236, "pitch": 61, "duration": 6, "velocity": 60}, {"time": 1242, "pitch": 70, "duration": 12, "velocity": 71}, {"time": 1242, "pitch": 73, "duration": 12, "velocity": 65}, {"time": 1248, "pitch": 66, "duration": 6, "velocity": 64}, {"time": 1254, "pitch": 51, "duration": 20, "velocity": 75}, {"time": 1260, "pitch": 58, "duration": 15, "velocity": 46}, {"time": 1266, "pitch": 63, "duration": 9, "velocity": 55}, {"time": 1266, "pitch": 75, "duration": 12, "velocity": 50}, {"time": 1266, "pitch": 78, "duration": 12, "velocity": 60}, {"time": 1278, "pitch": 58, "duration": 12, "velocity": 65}, {"time": 1284, "pitch": 70, "duration": 6, "velocity": 59}, {"time": 1290, "pitch": 73, "duration": 13, "velocity": 67}, {"time": 1290, "pitch": 77, "duration": 10, "velocity": 60}, {"time": 1302, "pitch": 59, "duration": 13, "velocity": 74}, {"time": 1308, "pitch": 66, "duration": 7, "velocity": 66}, {"time": 1314, "pitch": 75, "duration": 11, "velocity": 107}, {"time": 1314, "pitch": 78, "duration": 10, "velocity": 97}, {"time": 1320, "pitch": 71, "duration": 6, "velocity": 56}, {"time": 1326, "pitch": 49, "duration": 17, "velocity": 76}, {"time": 1329, "pitch": 56, "duration": 14, "velocity": 56}, {"time": 1332, "pitch": 61, "duration": 6, "velocity": 75}, {"time": 1335, "pitch": 68, "duration": 4, "velocity": 64}, {"time": 1338, "pitch": 77, "duration": 10, "velocity": 73}, {"time": 1341, "pitch": 61, "duration": 5, "velocity": 86}, {"time": 1344, "pitch": 68, "duration": 5, "velocity": 85}, {"time": 1347, "pitch": 73, "duration": 3, "velocity": 71}, {"time": 1350, "pitch": 42, "duration": 20, "velocity": 88}, {"time": 1353, "pitch": 49, "duration": 15, "velocity": 33}, {"time": 1356, "pitch": 54, "duration": 1, "velocity": 97}, {"time": 1359, "pitch": 58, "duration": 4, "velocity": 86}, {"time": 1362, "pitch": 66, "duration": 10, "velocity": 102}, {"time": 1365, "pitch": 54, "duration": 2, "velocity": 89}, {"time": 1368, "pitch": 61, "duration": 4, "velocity": 59}, {"time": 1371, "pitch": 58, "duration": 3, "velocity": 81}, {"time": 1374, "pitch": 41, "duration": 11, "velocity": 71}, {"time": 1377, "pitch": 53, "duration": 4, "velocity": 81}, {"time": 1380, "pitch": 58, "duration": 4, "velocity": 82}, {"time": 1383, "pitch": 53, "duration": 4, "velocity": 65}, {"time": 1386, "pitch": 61, "duration": 11, "velocity": 107}, {"time": 1389, "pitch": 58, "duration": 3, "velocity": 69}, {"time": 1392, "pitch": 53, "duration": 4, "velocity": 76}, {"time": 1395, "pitch": 58, "duration": 3, "velocity": 77}, {"time": 1398, "pitch": 39, "duration": 19, "velocity": 72}, {"time": 1401, "pitch": 46, "duration": 16, "velocity": 63}, {"time": 1404, "pitch": 51, "duration": 7, "velocity": 65}, {"time": 1407, "pitch": 54, "duration": 5, "velocity": 75}, {"time": 1410, "pitch": 63, "duration": 11, "velocity": 96}, {"time": 1413, "pitch": 51, "duration": 5, "velocity": 85}, {"time": 1416, "pitch": 58, "duration": 4, "velocity": 38}, {"time": 1419, "pitch": 54, "duration": 2, "velocity": 83}, {"time": 1422, "pitch": 46, "duration": 16, "velocity": 95}, {"time": 1425, "pitch": 58, "duration": 4, "velocity": 77}, {"time": 1428, "pitch": 61, "duration": 7, "velocity": 74}, {"time": 1431, "pitch": 58, "duration": 3, "velocity": 70}, {"time": 1434, "pitch": 65, "duration": 5, "velocity": 72}, {"time": 1437, "pitch": 58, "duration": 8, "velocity": 67}, {"time": 1437, "pitch": 61, "duration": 1, "velocity": 34}, {"time": 1440, "pitch": 61, "duration": 5, "velocity": 66}, {"time": 1443, "pitch": 65, "duration": 3, "velocity": 47}, {"time": 1446, "pitch": 47, "duration": 16, "velocity": 60}, {"time": 1449, "pitch": 54, "duration": 14, "velocity": 70}, {"time": 1452, "pitch": 59, "duration": 6, "velocity": 64}, {"time": 1455, "pitch": 63, "duration": 3, "velocity": 79}, {"time": 1458, "pitch": 66, "duration": 10, "velocity": 97}, {"time": 1461, "pitch": 63, "duration": 4, "velocity": 73}, {"time": 1464, "pitch": 59, "duration": 6, "velocity": 63}, {"time": 1464, "pitch": 63, "duration": 1, "velocity": 62}, {"time": 1470, "pitch": 46, "duration": 15, "velocity": 51}, {"time": 1473, "pitch": 58, "duration": 4, "velocity": 72}, {"time": 1476, "pitch": 61, "duration": 6, "velocity": 64}, {"time": 1479, "pitch": 58, "duration": 3, "velocity": 67}, {"time": 1482, "pitch": 65, "duration": 11, "velocity": 72}, {"time": 1485, "pitch": 58, "duration": 4, "velocity": 47}, {"time": 1488, "pitch": 61, "duration": 4, "velocity": 55}, {"time": 1491, "pitch": 58, "duration": 4, "velocity": 51}, {"time": 1494, "pitch": 44, "duration": 16, "velocity": 61}, {"time": 1497, "pitch": 56, "duration": 4, "velocity": 63}, {"time": 1500, "pitch": 59, "duration": 4, "velocity": 66}, {"time": 1503, "pitch": 56, "duration": 4, "velocity": 69}, {"time": 1506, "pitch": 63, "duration": 11, "velocity": 83}, {"time": 1509, "pitch": 56, "duration": 4, "velocity": 78}, {"time": 1512, "pitch": 59, "duration": 4, "velocity": 60}, {"time": 1515, "pitch": 56, "duration": 3, "velocity": 93}, {"time": 1518, "pitch": 37, "duration": 16, "velocity": 71}, {"time": 1521, "pitch": 44, "duration": 13, "velocity": 53}, {"time": 1524, "pitch": 49, "duration": 7, "velocity": 86}, {"time": 1527, "pitch": 53, "duration": 4, "velocity": 70}, {"time": 1530, "pitch": 61, "duration": 12, "velocity": 112}, {"time": 1533, "pitch": 49, "duration": 5, "velocity": 92}, {"time": 1536, "pitch": 56, "duration": 5, "velocity": 112}, {"time": 1539, "pitch": 53, "duration": 3, "velocity": 97}, {"time": 1542, "pitch": 42, "duration": 16, "velocity": 88}, {"time": 1545, "pitch": 54, "duration": 3, "velocity": 66}, {"time": 1548, "pitch": 58, "duration": 7, "velocity": 59}, {"time": 1551, "pitch": 54, "duration": 4, "velocity": 77}, {"time": 1554, "pitch": 61, "duration": 6, "velocity": 34}, {"time": 1554, "pitch": 66, "duration": 5, "velocity": 79}, {"time": 1557, "pitch": 54, "duration": 6, "velocity": 74}, {"time": 1560, "pitch": 58, "duration": 6, "velocity": 72}, {"time": 1563, "pitch": 61, "duration": 4, "velocity": 65}, {"time": 1566, "pitch": 41, "duration": 11, "velocity": 71}, {"time": 1569, "pitch": 53, "duration": 4, "velocity": 59}, {"time": 1572, "pitch": 58, "duration": 4, "velocity": 78}, {"time": 1575, "pitch": 53, "duration": 4, "velocity": 66}, {"time": 1578, "pitch": 61, "duration": 11, "velocity": 100}, {"time": 1581, "pitch": 53, "duration": 3, "velocity": 73}, {"time": 1584, "pitch": 58, "duration": 6, "velocity": 77}, {"time": 1587, "pitch": 53, "duration": 2, "velocity": 78}, {"time": 1590, "pitch": 39, "duration": 16, "velocity": 68}, {"time": 1593, "pitch": 46, "duration": 11, "velocity": 35}, {"time": 1596, "pitch": 51, "duration": 7, "velocity": 70}, {"time": 1599, "pitch": 54, "duration": 4, "velocity": 72}, {"time": 1602, "pitch": 63, "duration": 11, "velocity": 93}, {"time": 1605, "pitch": 54, "duration": 3, "velocity": 78}, {"time": 1608, "pitch": 58, "duration": 3, "velocity": 59}, {"time": 1611, "pitch": 54, "duration": 3, "velocity": 82}, {"time": 1614, "pitch": 34, "duration": 18, "velocity": 73}, {"time": 1617, "pitch": 46, "duration": 16, "velocity": 59}, {"time": 1620, "pitch": 49, "duration": 4, "velocity": 57}, {"time": 1623, "pitch": 53, "duration": 4, "velocity": 58}, {"time": 1626, "pitch": 58, "duration": 4, "velocity": 90}, {"time": 1629, "pitch": 49, "duration": 8, "velocity": 60}, {"time": 1632, "pitch": 53, "duration": 6, "velocity": 52}, {"time": 1635, "pitch": 58, "duration": 2, "velocity": 65}, {"time": 1638, "pitch": 35, "duration": 22, "velocity": 74}, {"time": 1641, "pitch": 42, "duration": 20, "velocity": 75}, {"time": 1644, "pitch": 47, "duration": 17, "velocity": 66}, {"time": 1647, "pitch": 51, "duration": 4, "velocity": 72}, {"time": 1650, "pitch": 59, "duration": 12, "velocity": 74}, {"time": 1653, "pitch": 51, "duration": 3, "velocity": 72}, {"time": 1656, "pitch": 54, "duration": 5, "velocity": 70}, {"time": 1659, "pitch": 51, "duration": 3, "velocity": 61}, {"time": 1662, "pitch": 46, "duration": 17, "velocity": 76}, {"time": 1665, "pitch": 54, "duration": 13, "velocity": 35}, {"time": 1668, "pitch": 58, "duration": 6, "velocity": 92}, {"time": 1671, "pitch": 61, "duration": 3, "velocity": 74}, {"time": 1674, "pitch": 65, "duration": 7, "velocity": 88}, {"time": 1677, "pitch": 58, "duration": 2, "velocity": 89}, {"time": 1680, "pitch": 61, "duration": 4, "velocity": 90}, {"time": 1683, "pitch": 65, "duration": 2, "velocity": 69}, {"time": 1686, "pitch": 44, "duration": 12, "velocity": 58}, {"time": 1689, "pitch": 56, "duration": 4, "velocity": 66}, {"time": 1692, "pitch": 59, "duration": 5, "velocity": 63}, {"time": 1695, "pitch": 56, "duration": 4, "velocity": 70}, {"time": 1698, "pitch": 63, "duration": 11, "velocity": 82}, {"time": 1701, "pitch": 56, "duration": 4, "velocity": 60}, {"time": 1704, "pitch": 59, "duration": 3, "velocity": 59}, {"time": 1707, "pitch": 56, "duration": 3, "velocity": 56}, {"time": 1710, "pitch": 37, "duration": 14, "velocity": 83}, {"time": 1713, "pitch": 44, "duration": 10, "velocity": 26}, {"time": 1716, "pitch": 49, "duration": 10, "velocity": 60}, {"time": 1722, "pitch": 61, "duration": 12, "velocity": 66}, {"time": 1722, "pitch": 65, "duration": 12, "velocity": 64}, {"time": 1734, "pitch": 42, "duration": 21, "velocity": 66}, {"time": 1737, "pitch": 49, "duration": 19, "velocity": 59}, {"time": 1740, "pitch": 54, "duration": 6, "velocity": 72}, {"time": 1743, "pitch": 58, "duration": 2, "velocity": 50}, {"time": 1746, "pitch": 61, "duration": 6, "velocity": 74}, {"time": 1749, "pitch": 54, "duration": 2, "velocity": 71}, {"time": 1752, "pitch": 58, "duration": 29, "velocity": 76}, {"time": 1755, "pitch": 61, "duration": 27, "velocity": 72}, {"time": 1758, "pitch": 42, "duration": 23, "velocity": 61}, {"time": 1758, "pitch": 54, "duration": 24, "velocity": 68}, {"time": 1764, "pitch": 73, "duration": 6, "velocity": 92}, {"time": 1770, "pitch": 78, "duration": 6, "velocity": 90}, {"time": 1776, "pitch": 80, "duration": 6, "velocity": 83}, {"time": 1782, "pitch": 66, "duration": 23, "velocity": 79}, {"time": 1782, "pitch": 82, "duration": 12, "velocity": 107}, {"time": 1788, "pitch": 73, "duration": 6, "velocity": 83}, {"time": 1794, "pitch": 85, "duration": 5, "velocity": 76}, {"time": 1800, "pitch": 73, "duration": 7, "velocity": 79}, {"time": 1806, "pitch": 65, "duration": 24, "velocity": 71}, {"time": 1806, "pitch": 83, "duration": 12, "velocity": 92}, {"time": 1812, "pitch": 73, "duration": 18, "velocity": 75}, {"time": 1818, "pitch": 85, "duration": 11, "velocity": 85}, {"time": 1830, "pitch": 63, "duration": 29, "velocity": 68}, {"time": 1830, "pitch": 78, "duration": 16, "velocity": 93}, {"time": 1836, "pitch": 70, "duration": 6, "velocity": 66}, {"time": 1842, "pitch": 73, "duration": 12, "velocity": 65}, {"time": 1842, "pitch": 85, "duration": 12, "velocity": 96}, {"time": 1848, "pitch": 70, "duration": 7, "velocity": 68}, {"time": 1854, "pitch": 61, "duration": 23, "velocity": 66}, {"time": 1860, "pitch": 73, "duration": 6, "velocity": 83}, {"time": 1866, "pitch": 78, "duration": 6, "velocity": 58}, {"time": 1872, "pitch": 80, "duration": 6, "velocity": 63}, {"time": 1878, "pitch": 47, "duration": 17, "velocity": 76}, {"time": 1878, "pitch": 82, "duration": 15, "velocity": 93}, {"time": 1884, "pitch": 54, "duration": 8, "velocity": 60}, {"time": 1890, "pitch": 63, "duration": 12, "velocity": 69}, {"time": 1890, "pitch": 66, "duration": 12, "velocity": 67}, {"time": 1890, "pitch": 85, "duration": 11, "velocity": 93}, {"time": 1896, "pitch": 59, "duration": 7, "velocity": 48}, {"time": 1902, "pitch": 46, "duration": 14, "velocity": 69}, {"time": 1908, "pitch": 58, "duration": 7, "velocity": 62}, {"time": 1908, "pitch": 90, "duration": 6, "velocity": 83}, {"time": 1914, "pitch": 61, "duration": 12, "velocity": 55}, {"time": 1914, "pitch": 65, "duration": 11, "velocity": 64}, {"time": 1914, "pitch": 85, "duration": 6, "velocity": 92}, {"time": 1920, "pitch": 78, "duration": 6, "velocity": 77}, {"time": 1926, "pitch": 44, "duration": 14, "velocity": 90}, {"time": 1926, "pitch": 85, "duration": 11, "velocity": 97}, {"time": 1932, "pitch": 56, "duration": 7, "velocity": 51}, {"time": 1938, "pitch": 59, "duration": 8, "velocity": 71}, {"time": 1938, "pitch": 63, "duration": 8, "velocity": 57}, {"time": 1950, "pitch": 37, "duration": 20, "velocity": 66}, {"time": 1950, "pitch": 56, "duration": 2, "velocity": 33}, {"time": 1950, "pitch": 61, "duration": 19, "velocity": 56}, {"time": 1950, "pitch": 65, "duration": 13, "velocity": 55}, {"time": 1956, "pitch": 44, "duration": 15, "velocity": 40}, {"time": 1962, "pitch": 49, "duration": 10, "velocity": 73}, {"time": 1968, "pitch": 56, "duration": 29, "velocity": 50}, {"time": 1974, "pitch": 37, "duration": 22, "velocity": 62}, {"time": 1974, "pitch": 44, "duration": 23, "velocity": 61}, {"time": 1974, "pitch": 49, "duration": 23, "velocity": 54}, {"time": 1974, "pitch": 61, "duration": 23, "velocity": 56}, {"time": 1974, "pitch": 65, "duration": 23, "velocity": 51}, {"time": 1998, "pitch": 42, "duration": 33, "velocity": 89}, {"time": 2004, "pitch": 54, "duration": 12, "velocity": 58}, {"time": 2010, "pitch": 61, "duration": 25, "velocity": 71}, {"time": 2016, "pitch": 58, "duration": 6, "velocity": 66}, {"time": 2022, "pitch": 54, "duration": 11, "velocity": 52}, {"time": 2028, "pitch": 58, "duration": 7, "velocity": 52}, {"time": 2034, "pitch": 41, "duration": 7, "velocity": 67}, {"time": 2040, "pitch": 53, "duration": 8, "velocity": 52}, {"time": 2040, "pitch": 58, "duration": 7, "velocity": 1}, {"time": 2046, "pitch": 39, "duration": 34, "velocity": 67}, {"time": 2052, "pitch": 51, "duration": 4, "velocity": 42}, {"time": 2058, "pitch": 58, "duration": 24, "velocity": 42}, {"time": 2064, "pitch": 51, "duration": 6, "velocity": 50}, {"time": 2070, "pitch": 54, "duration": 11, "velocity": 69}, {"time": 2076, "pitch": 51, "duration": 5, "velocity": 43}, {"time": 2082, "pitch": 37, "duration": 12, "velocity": 63}, {"time": 2088, "pitch": 54, "duration": 7, "velocity": 57}, {"time": 2094, "pitch": 35, "duration": 21, "velocity": 66}, {"time": 2100, "pitch": 42, "duration": 17, "velocity": 47}, {"time": 2106, "pitch": 63, "duration": 11, "velocity": 54}, {"time": 2106, "pitch": 66, "duration": 11, "velocity": 41}, {"time": 2112, "pitch": 59, "duration": 5, "velocity": 55}, {"time": 2118, "pitch": 37, "duration": 13, "velocity": 65}, {"time": 2124, "pitch": 49, "duration": 6, "velocity": 72}, {"time": 2130, "pitch": 53, "duration": 11, "velocity": 56}, {"time": 2130, "pitch": 56, "duration": 12, "velocity": 53}, {"time": 2142, "pitch": 39, "duration": 22, "velocity": 67}, {"time": 2148, "pitch": 51, "duration": 6, "velocity": 53}, {"time": 2154, "pitch": 54, "duration": 24, "velocity": 41}, {"time": 2154, "pitch": 58, "duration": 23, "velocity": 39}, {"time": 2160, "pitch": 51, "duration": 8, "velocity": 37}, {"time": 2166, "pitch": 39, "duration": 10, "velocity": 67}, {"time": 2172, "pitch": 51, "duration": 5, "velocity": 63}, {"time": 2178, "pitch": 37, "duration": 12, "velocity": 73}, {"time": 2184, "pitch": 51, "duration": 6, "velocity": 62}, {"time": 2184, "pitch": 54, "duration": 3, "velocity": 18}, {"time": 2190, "pitch": 35, "duration": 37, "velocity": 72}, {"time": 2196, "pitch": 42, "duration": 31, "velocity": 46}, {"time": 2202, "pitch": 47, "duration": 29, "velocity": 90}, {"time": 2208, "pitch": 59, "duration": 7, "velocity": 64}, {"time": 2214, "pitch": 63, "duration": 12, "velocity": 75}, {"time": 2214, "pitch": 66, "duration": 22, "velocity": 90}, {"time": 2226, "pitch": 59, "duration": 12, "velocity": 85}, {"time": 2232, "pitch": 63, "duration": 5, "velocity": 53}, {"time": 2238, "pitch": 42, "duration": 12, "velocity": 71}, {"time": 2244, "pitch": 54, "duration": 6, "velocity": 50}, {"time": 2250, "pitch": 41, "duration": 12, "velocity": 57}, {"time": 2250, "pitch": 61, "duration": 12, "velocity": 79}, {"time": 2256, "pitch": 54, "duration": 7, "velocity": 66}, {"time": 2262, "pitch": 39, "duration": 13, "velocity": 68}, {"time": 2268, "pitch": 51, "duration": 6, "velocity": 47}, {"time": 2274, "pitch": 54, "duration": 12, "velocity": 56}, {"time": 2274, "pitch": 58, "duration": 12, "velocity": 64}, {"time": 2280, "pitch": 51, "duration": 6, "velocity": 47}, {"time": 2286, "pitch": 44, "duration": 38, "velocity": 72}, {"time": 2292, "pitch": 51, "duration": 8, "velocity": 53}, {"time": 2298, "pitch": 60, "duration": 22, "velocity": 58}, {"time": 2298, "pitch": 63, "duration": 22, "velocity": 56}, {"time": 2304, "pitch": 51, "duration": 12, "velocity": 34}, {"time": 2310, "pitch": 56, "duration": 13, "velocity": 58}, {"time": 2316, "pitch": 51, "duration": 6, "velocity": 45}, {"time": 2322, "pitch": 60, "duration": 12, "velocity": 68}, {"time": 2322, "pitch": 63, "duration": 11, "velocity": 66}, {"time": 2328, "pitch": 56, "duration": 7, "velocity": 53}, {"time": 2334, "pitch": 37, "duration": 36, "velocity": 70}, {"time": 2340, "pitch": 44, "duration": 31, "velocity": 38}, {"time": 2346, "pitch": 49, "duration": 15, "velocity": 83}, {"time": 2352, "pitch": 56, "duration": 17, "velocity": 71}, {"time": 2358, "pitch": 61, "duration": 10, "velocity": 70}, {"time": 2358, "pitch": 65, "duration": 8, "velocity": 66}, {"time": 2364, "pitch": 49, "duration": 7, "velocity": 50}, {"time": 2370, "pitch": 56, "duration": 1, "velocity": 61}, {"time": 2370, "pitch": 61, "duration": 11, "velocity": 82}, {"time": 2370, "pitch": 65, "duration": 10, "velocity": 86}, {"time": 2376, "pitch": 56, "duration": 5, "velocity": 90}, {"time": 2382, "pitch": 39, "duration": 19, "velocity": 82}, {"time": 2385, "pitch": 46, "duration": 15, "velocity": 34}, {"time": 2388, "pitch": 51, "duration": 6, "velocity": 78}, {"time": 2391, "pitch": 63, "duration": 4, "velocity": 58}, {"time": 2394, "pitch": 70, "duration": 11, "velocity": 100}, {"time": 2397, "pitch": 51, "duration": 2, "velocity": 82}, {"time": 2400, "pitch": 66, "duration": 5, "velocity": 32}, {"time": 2403, "pitch": 34, "duration": 17, "velocity": 78}, {"time": 2412, "pitch": 46, "duration": 12, "velocity": 61}, {"time": 2418, "pitch": 58, "duration": 2, "velocity": 72}, {"time": 2418, "pitch": 61, "duration": 12, "velocity": 70}, {"time": 2418, "pitch": 65, "duration": 12, "velocity": 63}, {"time": 2424, "pitch": 58, "duration": 6, "velocity": 68}, {"time": 2430, "pitch": 47, "duration": 12, "velocity": 76}, {"time": 2433, "pitch": 54, "duration": 9, "velocity": 73}, {"time": 2436, "pitch": 59, "duration": 5, "velocity": 63}, {"time": 2439, "pitch": 63, "duration": 15, "velocity": 60}, {"time": 2442, "pitch": 66, "duration": 12, "velocity": 85}, {"time": 2448, "pitch": 59, "duration": 7, "velocity": 56}, {"time": 2454, "pitch": 42, "duration": 13, "velocity": 69}, {"time": 2460, "pitch": 49, "duration": 6, "velocity": 60}, {"time": 2466, "pitch": 58, "duration": 12, "velocity": 71}, {"time": 2466, "pitch": 61, "duration": 12, "velocity": 65}, {"time": 2472, "pitch": 54, "duration": 6, "velocity": 64}, {"time": 2478, "pitch": 39, "duration": 20, "velocity": 75}, {"time": 2484, "pitch": 46, "duration": 15, "velocity": 46}, {"time": 2490, "pitch": 51, "duration": 9, "velocity": 55}, {"time": 2490, "pitch": 63, "duration": 12, "velocity": 50}, {"time": 2490, "pitch": 66, "duration": 12, "velocity": 60}, {"time": 2502, "pitch": 46, "duration": 12, "velocity": 65}, {"time": 2508, "pitch": 58, "duration": 6, "velocity": 59}, {"time": 2514, "pitch": 61, "duration": 13, "velocity": 67}, {"time": 2514, "pitch": 65, "duration": 10, "velocity": 60}, {"time": 2526, "pitch": 47, "duration": 13, "velocity": 74}, {"time": 2532, "pitch": 54, "duration": 7, "velocity": 66}, {"time": 2538, "pitch": 63, "duration": 11, "velocity": 107}, {"time": 2538, "pitch": 66, "duration": 10, "velocity": 97}, {"time": 2544, "pitch": 59, "duration": 6, "velocity": 56}, {"time": 2550, "pitch": 37, "duration": 17, "velocity": 76}, {"time": 2553, "pitch": 44, "duration": 14, "velocity": 56}, {"time": 2556, "pitch": 49, "duration": 6, "velocity": 75}, {"time": 2559, "pitch": 56, "duration": 4, "velocity": 64}, {"time": 2562, "pitch": 65, "duration": 10, "velocity": 73}, {"time": 2565, "pitch": 49, "duration": 5, "velocity": 86}, {"time": 2568, "pitch": 56, "duration": 5, "velocity": 85}, {"time": 2571, "pitch": 61, "duration": 3, "velocity": 71}, {"time": 2574, "pitch": 37, "duration": 25, "velocity": 97}, {"time": 2577, "pitch": 44, "duration": 21, "velocity": 83}, {"time": 2580, "pitch": 49, "duration": 8, "velocity": 100}, {"time": 2583, "pitch": 53, "duration": 7, "velocity": 76}, {"time": 2586, "pitch": 61, "duration": 12, "velocity": 117}, {"time": 2589, "pitch": 49, "duration": 8, "velocity": 76}, {"time": 2592, "pitch": 56, "duration": 6, "velocity": 82}, {"time": 2595, "pitch": 53, "duration": 3, "velocity": 83}, {"time": 2598, "pitch": 42, "duration": 20, "velocity": 88}, {"time": 2601, "pitch": 49, "duration": 15, "velocity": 33}, {"time": 2604, "pitch": 54, "duration": 1, "velocity": 97}, {"time": 2607, "pitch": 58, "duration": 4, "velocity": 86}, {"time": 2610, "pitch": 66, "duration": 10, "velocity": 102}, {"time": 2613, "pitch": 54, "duration": 2, "velocity": 89}, {"time": 2616, "pitch": 61, "duration": 4, "velocity": 59}, {"time": 2619, "pitch": 58, "duration": 3, "velocity": 81}, {"time": 2622, "pitch": 41, "duration": 11, "velocity": 71}, {"time": 2625, "pitch": 53, "duration": 4, "velocity": 81}, {"time": 2628, "pitch": 58, "duration": 4, "velocity": 82}, {"time": 2631, "pitch": 53, "duration": 4, "velocity": 65}, {"time": 2634, "pitch": 61, "duration": 11, "velocity": 107}, {"time": 2637, "pitch": 58, "duration": 3, "velocity": 69}, {"time": 2640, "pitch": 53, "duration": 4, "velocity": 76}, {"time": 2643, "pitch": 58, "duration": 3, "velocity": 77}, {"time": 2646, "pitch": 39, "duration": 19, "velocity": 72}, {"time": 2649, "pitch": 46, "duration": 16, "velocity": 63}, {"time": 2652, "pitch": 51, "duration": 7, "velocity": 65}, {"time": 2655, "pitch": 54, "duration": 5, "velocity": 75}, {"time": 2658, "pitch": 63, "duration": 11, "velocity": 96}, {"time": 2661, "pitch": 51, "duration": 5, "velocity": 85}, {"time": 2664, "pitch": 58, "duration": 4, "velocity": 38}, {"time": 2667, "pitch": 54, "duration": 2, "velocity": 83}, {"time": 2670, "pitch": 46, "duration": 16, "velocity": 95}, {"time": 2673, "pitch": 58, "duration": 4, "velocity": 77}, {"time": 2676, "pitch": 61, "duration": 7, "velocity": 74}, {"time": 2679, "pitch": 58, "duration": 3, "velocity": 70}, {"time": 2682, "pitch": 65, "duration": 5, "velocity": 72}, {"time": 2685, "pitch": 58, "duration": 8, "velocity": 67}, {"time": 2685, "pitch": 61, "duration": 1, "velocity": 34}, {"time": 2688, "pitch": 61, "duration": 5, "velocity": 66}, {"time": 2691, "pitch": 65, "duration": 3, "velocity": 47}, {"time": 2694, "pitch": 47, "duration": 16, "velocity": 60}, {"time": 2697, "pitch": 54, "duration": 14, "velocity": 70}, {"time": 2700, "pitch": 59, "duration": 6, "velocity": 64}, {"time": 2703, "pitch": 63, "duration": 3, "velocity": 79}, {"time": 2706, "pitch": 66, "duration": 10, "velocity": 97}, {"time": 2709, "pitch": 63, "duration": 4, "velocity": 73}, {"time": 2712, "pitch": 59, "duration": 6, "velocity": 63}, {"time": 2712, "pitch": 63, "duration": 1, "velocity": 62}, {"time": 2718, "pitch": 46, "duration": 15, "velocity": 51}, {"time": 2721, "pitch": 58, "duration": 4, "velocity": 72}, {"time": 2724, "pitch": 61, "duration": 6, "velocity": 64}, {"time": 2727, "pitch": 58, "duration": 3, "velocity": 67}, {"time": 2730, "pitch": 65, "duration": 11, "velocity": 72}, {"time": 2733, "pitch": 58, "duration": 4, "velocity": 47}, {"time": 2736, "pitch": 61, "duration": 4, "velocity": 55}, {"time": 2739, "pitch": 58, "duration": 4, "velocity": 51}, {"time": 2742, "pitch": 44, "duration": 16, "velocity": 61}, {"time": 2745, "pitch": 56, "duration": 4, "velocity": 63}, {"time": 2748, "pitch": 59, "duration": 4, "velocity": 66}, {"time": 2751, "pitch": 56, "duration": 4, "velocity": 69}, {"time": 2754, "pitch": 63, "duration": 11, "velocity": 83}, {"time": 2757, "pitch": 56, "duration": 4, "velocity": 78}, {"time": 2760, "pitch": 59, "duration": 4, "velocity": 60}, {"time": 2763, "pitch": 56, "duration": 3, "velocity": 93}, {"time": 2766, "pitch": 37, "duration": 16, "velocity": 71}, {"time": 2769, "pitch": 44, "duration": 13, "velocity": 53}, {"time": 2772, "pitch": 49, "duration": 7, "velocity": 86}, {"time": 2775, "pitch": 53, "duration": 4, "velocity": 70}, {"time": 2778, "pitch": 61, "duration": 12, "velocity": 112}, {"time": 2781, "pitch": 49, "duration": 5, "velocity": 92}, {"time": 2784, "pitch": 56, "duration": 5, "velocity": 112}, {"time": 2787, "pitch": 53, "duration": 3, "velocity": 97}, {"time": 2790, "pitch": 42, "duration": 16, "velocity": 88}, {"time": 2793, "pitch": 54, "duration": 3, "velocity": 66}, {"time": 2796, "pitch": 58, "duration": 7, "velocity": 59}, {"time": 2799, "pitch": 54, "duration": 4, "velocity": 77}, {"time": 2802, "pitch": 61, "duration": 6, "velocity": 34}, {"time": 2802, "pitch": 66, "duration": 5, "velocity": 79}, {"time": 2805, "pitch": 54, "duration": 6, "velocity": 74}, {"time": 2808, "pitch": 58, "duration": 6, "velocity": 72}, {"time": 2811, "pitch": 61, "duration": 4, "velocity": 65}, {"time": 2814, "pitch": 41, "duration": 11, "velocity": 71}, {"time": 2817, "pitch": 53, "duration": 4, "velocity": 59}, {"time": 2820, "pitch": 58, "duration": 4, "velocity": 78}, {"time": 2823, "pitch": 53, "duration": 4, "velocity": 66}, {"time": 2826, "pitch": 61, "duration": 11, "velocity": 100}, {"time": 2829, "pitch": 53, "duration": 3, "velocity": 73}, {"time": 2832, "pitch": 58, "duration": 6, "velocity": 77}, {"time": 2835, "pitch": 53, "duration": 2, "velocity": 78}, {"time": 2838, "pitch": 39, "duration": 16, "velocity": 68}, {"time": 2841, "pitch": 46, "duration": 11, "velocity": 35}, {"time": 2844, "pitch": 51, "duration": 7, "velocity": 70}, {"time": 2847, "pitch": 54, "duration": 4, "velocity": 72}, {"time": 2850, "pitch": 63, "duration": 11, "velocity": 93}, {"time": 2853, "pitch": 54, "duration": 3, "velocity": 78}, {"time": 2856, "pitch": 58, "duration": 3, "velocity": 59}, {"time": 2859, "pitch": 54, "duration": 3, "velocity": 82}, {"time": 2862, "pitch": 34, "duration": 18, "velocity": 73}, {"time": 2865, "pitch": 46, "duration": 16, "velocity": 59}, {"time": 2868, "pitch": 49, "duration": 4, "velocity": 57}, {"time": 2871, "pitch": 53, "duration": 4, "velocity": 58}, {"time": 2874, "pitch": 58, "duration": 4, "velocity": 90}, {"time": 2877, "pitch": 49, "duration": 8, "velocity": 60}, {"time": 2880, "pitch": 53, "duration": 6, "velocity": 52}, {"time": 2883, "pitch": 58, "duration": 2, "velocity": 65}, {"time": 2886, "pitch": 35, "duration": 22, "velocity": 74}, {"time": 2889, "pitch": 42, "duration": 20, "velocity": 75}, {"time": 2892, "pitch": 47, "duration": 17, "velocity": 66}, {"time": 2895, "pitch": 51, "duration": 4, "velocity": 72}, {"time": 2898, "pitch": 59, "duration": 12, "velocity": 74}, {"time": 2901, "pitch": 51, "duration": 3, "velocity": 72}, {"time": 2904, "pitch": 54, "duration": 5, "velocity": 70}, {"time": 2907, "pitch": 51, "duration": 3, "velocity": 61}, {"time": 2910, "pitch": 46, "duration": 17, "velocity": 76}, {"time": 2913, "pitch": 54, "duration": 13, "velocity": 35}, {"time": 2916, "pitch": 58, "duration": 6, "velocity": 92}, {"time": 2919, "pitch": 61, "duration": 3, "velocity": 74}, {"time": 2922, "pitch": 65, "duration": 7, "velocity": 88}, {"time": 2925, "pitch": 58, "duration": 2, "velocity": 89}, {"time": 2928, "pitch": 61, "duration": 4, "velocity": 90}, {"time": 2931, "pitch": 65, "duration": 2, "velocity": 69}, {"time": 2934, "pitch": 44, "duration": 12, "velocity": 58}, {"time": 2937, "pitch": 56, "duration": 4, "velocity": 66}, {"time": 2940, "pitch": 59, "duration": 5, "velocity": 63}, {"time": 2943, "pitch": 56, "duration": 4, "velocity": 70}, {"time": 2946, "pitch": 63, "duration": 11, "velocity": 82}, {"time": 2949, "pitch": 56, "duration": 4, "velocity": 60}, {"time": 2952, "pitch": 59, "duration": 3, "velocity": 59}, {"time": 2955, "pitch": 56, "duration": 3, "velocity": 56}, {"time": 2958, "pitch": 37, "duration": 14, "velocity": 83}, {"time": 2961, "pitch": 44, "duration": 10, "velocity": 26}, {"time": 2964, "pitch": 49, "duration": 10, "velocity": 60}, {"time": 2970, "pitch": 61, "duration": 12, "velocity": 66}, {"time": 2970, "pitch": 65, "duration": 12, "velocity": 64}, {"time": 2982, "pitch": 42, "duration": 25, "velocity": 99}, {"time": 2988, "pitch": 49, "duration": 17, "velocity": 51}, {"time": 2994, "pitch": 54, "duration": 12, "velocity": 86}, {"time": 3000, "pitch": 58, "duration": 6, "velocity": 96}, {"time": 3006, "pitch": 42, "duration": 1, "velocity": 81}, {"time": 3006, "pitch": 61, "duration": 10, "velocity": 96}, {"time": 3006, "pitch": 66, "duration": 10, "velocity": 93}, {"time": 3006, "pitch": 70, "duration": 6, "velocity": 90}, {"time": 3012, "pitch": 49, "duration": 17, "velocity": 27}, {"time": 3018, "pitch": 66, "duration": 22, "velocity": 93}, {"time": 3018, "pitch": 70, "duration": 21, "velocity": 88}, {"time": 3024, "pitch": 54, "duration": 20, "velocity": 49}, {"time": 3030, "pitch": 42, "duration": 22, "velocity": 78}, {"time": 3042, "pitch": 66, "duration": 10, "velocity": 52}, {"time": 3042, "pitch": 70, "duration": 10, "velocity": 66}, {"time": 3054, "pitch": 53, "duration": 14, "velocity": 64}, {"time": 3060, "pitch": 65, "duration": 18, "velocity": 44}, {"time": 3066, "pitch": 73, "duration": 12, "velocity": 95}, {"time": 3072, "pitch": 70, "duration": 6, "velocity": 48}, {"time": 3078, "pitch": 51, "duration": 13, "velocity": 67}, {"time": 3084, "pitch": 63, "duration": 7, "velocity": 58}, {"time": 3090, "pitch": 70, "duration": 12, "velocity": 56}, {"time": 3096, "pitch": 63, "duration": 6, "velocity": 63}, {"time": 3102, "pitch": 47, "duration": 22, "velocity": 68}, {"time": 3108, "pitch": 54, "duration": 15, "velocity": 39}, {"time": 3114, "pitch": 63, "duration": 11, "velocity": 67}, {"time": 3114, "pitch": 66, "duration": 11, "velocity": 67}, {"time": 3120, "pitch": 59, "duration": 6, "velocity": 60}, {"time": 3126, "pitch": 47, "duration": 15, "velocity": 67}, {"time": 3132, "pitch": 54, "duration": 8, "velocity": 72}, {"time": 3138, "pitch": 63, "duration": 11, "velocity": 81}, {"time": 3138, "pitch": 66, "duration": 11, "velocity": 83}, {"time": 3144, "pitch": 59, "duration": 7, "velocity": 61}, {"time": 3150, "pitch": 46, "duration": 17, "velocity": 86}, {"time": 3156, "pitch": 58, "duration": 6, "velocity": 58}, {"time": 3162, "pitch": 61, "duration": 11, "velocity": 68}, {"time": 3162, "pitch": 65, "duration": 10, "velocity": 66}, {"time": 3168, "pitch": 58, "duration": 6, "velocity": 42}, {"time": 3174, "pitch": 44, "duration": 19, "velocity": 72}, {"time": 3180, "pitch": 56, "duration": 11, "velocity": 64}, {"time": 3186, "pitch": 63, "duration": 11, "velocity": 67}, {"time": 3186, "pitch": 68, "duration": 12, "velocity": 69}, {"time": 3192, "pitch": 59, "duration": 5, "velocity": 79}, {"time": 3198, "pitch": 49, "duration": 18, "velocity": 96}, {"time": 3201, "pitch": 53, "duration": 14, "velocity": 52}, {"time": 3204, "pitch": 56, "duration": 6, "velocity": 78}, {"time": 3207, "pitch": 61, "duration": 4, "velocity": 82}, {"time": 3210, "pitch": 68, "duration": 11, "velocity": 122}, {"time": 3213, "pitch": 56, "duration": 3, "velocity": 97}, {"time": 3216, "pitch": 65, "duration": 4, "velocity": 63}, {"time": 3219, "pitch": 61, "duration": 3, "velocity": 99}, {"time": 3222, "pitch": 42, "duration": 18, "velocity": 112}, {"time": 3225, "pitch": 54, "duration": 9, "velocity": 79}, {"time": 3228, "pitch": 61, "duration": 7, "velocity": 86}, {"time": 3231, "pitch": 66, "duration": 3, "velocity": 112}, {"time": 3234, "pitch": 70, "duration": 12, "velocity": 127}, {"time": 3237, "pitch": 54, "duration": 2, "velocity": 100}, {"time": 3240, "pitch": 61, "duration": 6, "velocity": 99}, {"time": 3243, "pitch": 66, "duration": 3, "velocity": 86}, {"time": 3246, "pitch": 41, "duration": 12, "velocity": 82}, {"time": 3249, "pitch": 61, "duration": 4, "velocity": 73}, {"time": 3252, "pitch": 66, "duration": 3, "velocity": 54}, {"time": 3255, "pitch": 61, "duration": 4, "velocity": 75}, {"time": 3258, "pitch": 70, "duration": 10, "velocity": 112}, {"time": 3261, "pitch": 61, "duration": 3, "velocity": 86}, {"time": 3264, "pitch": 66, "duration": 4, "velocity": 82}, {"time": 3267, "pitch": 61, "duration": 3, "velocity": 97}, {"time": 3270, "pitch": 39, "duration": 18, "velocity": 78}, {"time": 3273, "pitch": 51, "duration": 10, "velocity": 75}, {"time": 3276, "pitch": 54, "duration": 7, "velocity": 89}, {"time": 3279, "pitch": 58, "duration": 2, "velocity": 53}, {"time": 3282, "pitch": 63, "duration": 9, "velocity": 107}, {"time": 3285, "pitch": 51, "duration": 2, "velocity": 75}, {"time": 3288, "pitch": 54, "duration": 3, "velocity": 86}, {"time": 3291, "pitch": 58, "duration": 1, "velocity": 72}, {"time": 3294, "pitch": 46, "duration": 20, "velocity": 85}, {"time": 3297, "pitch": 53, "duration": 15, "velocity": 58}, {"time": 3300, "pitch": 58, "duration": 7, "velocity": 92}, {"time": 3303, "pitch": 61, "duration": 4, "velocity": 86}, {"time": 3306, "pitch": 70, "duration": 12, "velocity": 117}, {"time": 3309, "pitch": 58, "duration": 3, "velocity": 96}, {"time": 3312, "pitch": 65, "duration": 5, "velocity": 67}, {"time": 3315, "pitch": 61, "duration": 3, "velocity": 102}, {"time": 3318, "pitch": 47, "duration": 16, "velocity": 78}, {"time": 3321, "pitch": 54, "duration": 10, "velocity": 92}, {"time": 3324, "pitch": 59, "duration": 5, "velocity": 72}, {"time": 3327, "pitch": 63, "duration": 4, "velocity": 93}, {"time": 3330, "pitch": 66, "duration": 10, "velocity": 99}, {"time": 3333, "pitch": 54, "duration": 1, "velocity": 69}, {"time": 3336, "pitch": 63, "duration": 4, "velocity": 100}, {"time": 3339, "pitch": 59, "duration": 3, "velocity": 82}, {"time": 3342, "pitch": 46, "duration": 18, "velocity": 85}, {"time": 3345, "pitch": 53, "duration": 12, "velocity": 69}, {"time": 3345, "pitch": 58, "duration": 4, "velocity": 76}, {"time": 3351, "pitch": 61, "duration": 4, "velocity": 74}, {"time": 3351, "pitch": 65, "duration": 11, "velocity": 75}, {"time": 3357, "pitch": 58, "duration": 4, "velocity": 54}, {"time": 3360, "pitch": 61, "duration": 4, "velocity": 81}, {"time": 3363, "pitch": 58, "duration": 4, "velocity": 76}, {"time": 3366, "pitch": 44, "duration": 13, "velocity": 83}, {"time": 3369, "pitch": 56, "duration": 7, "velocity": 88}, {"time": 3372, "pitch": 59, "duration": 4, "velocity": 59}, {"time": 3375, "pitch": 63, "duration": 6, "velocity": 92}, {"time": 3378, "pitch": 56, "duration": 7, "velocity": 93}, {"time": 3381, "pitch": 59, "duration": 3, "velocity": 64}, {"time": 3384, "pitch": 63, "duration": 4, "velocity": 102}, {"time": 3387, "pitch": 56, "duration": 1, "velocity": 79}, {"time": 3390, "pitch": 37, "duration": 13, "velocity": 64}, {"time": 3390, "pitch": 49, "duration": 14, "velocity": 63}, {"time": 3390, "pitch": 56, "duration": 14, "velocity": 77}, {"time": 3390, "pitch": 61, "duration": 14, "velocity": 67}, {"time": 3390, "pitch": 65, "duration": 14, "velocity": 71}, {"time": 3414, "pitch": 42, "duration": 16, "velocity": 81}, {"time": 3420, "pitch": 54, "duration": 8, "velocity": 61}, {"time": 3426, "pitch": 73, "duration": 14, "velocity": 83}, {"time": 3432, "pitch": 66, "duration": 6, "velocity": 59}, {"time": 3438, "pitch": 41, "duration": 14, "velocity": 56}, {"time": 3444, "pitch": 53, "duration": 6, "velocity": 41}, {"time": 3444, "pitch": 65, "duration": 7, "velocity": 39}, {"time": 3450, "pitch": 73, "duration": 12, "velocity": 93}, {"time": 3456, "pitch": 70, "duration": 6, "velocity": 56}, {"time": 3462, "pitch": 39, "duration": 23, "velocity": 66}, {"time": 3468, "pitch": 51, "duration": 12, "velocity": 40}, {"time": 3474, "pitch": 58, "duration": 11, "velocity": 63}, {"time": 3474, "pitch": 63, "duration": 12, "velocity": 65}, {"time": 3480, "pitch": 54, "duration": 5, "velocity": 55}, {"time": 3486, "pitch": 37, "duration": 15, "velocity": 76}, {"time": 3492, "pitch": 49, "duration": 10, "velocity": 36}, {"time": 3498, "pitch": 56, "duration": 12, "velocity": 56}, {"time": 3498, "pitch": 61, "duration": 12, "velocity": 55}, {"time": 3504, "pitch": 53, "duration": 6, "velocity": 50}, {"time": 3510, "pitch": 35, "duration": 23, "velocity": 62}, {"time": 3516, "pitch": 42, "duration": 18, "velocity": 58}, {"time": 3522, "pitch": 47, "duration": 12, "velocity": 37}, {"time": 3522, "pitch": 63, "duration": 7, "velocity": 57}, {"time": 3522, "pitch": 66, "duration": 11, "velocity": 54}, {"time": 3528, "pitch": 59, "duration": 5, "velocity": 39}, {"time": 3534, "pitch": 37, "duration": 18, "velocity": 75}, {"time": 3540, "pitch": 49, "duration": 15, "velocity": 56}, {"time": 3546, "pitch": 61, "duration": 12, "velocity": 71}, {"time": 3552, "pitch": 56, "duration": 6, "velocity": 61}, {"time": 3552, "pitch": 65, "duration": 6, "velocity": 41}, {"time": 3559, "pitch": 42, "duration": 28, "velocity": 74}, {"time": 3566, "pitch": 54, "duration": 22, "velocity": 54}, {"time": 3572, "pitch": 58, "duration": 10, "velocity": 59}, {"time": 3581, "pitch": 61, "duration": 2, "velocity": 59}, {"time": 3590, "pitch": 42, "duration": 39, "velocity": 37}, {"time": 3590, "pitch": 54, "duration": 39, "velocity": 62}, {"time": 3590, "pitch": 66, "duration": 40, "velocity": 42}, {"time": 3592, "pitch": 70, "duration": 38, "velocity": 32}, {"time": 3593, "pitch": 73, "duration": 37, "velocity": 37}, {"time": 3595, "pitch": 78, "duration": 35, "velocity": 66}], "annotations": [{"time": 199, "annotation": {"number": 64, "value": 127}, "group": "control_change"}, {"time": 243, "annotation": {"number": 64, "value": 0}, "group": "control_change"}, {"time": 247, "annotation": {"number": 64, "value": 127}, "group": "control_change"}, {"time": 267, "annotation": {"number": 64, "value": 0}, "group": "control_change"}, {"time": 270, "annotation": {"number": 64, "value": 127}, "group": "control_change"}, {"time": 291, "annotation": {"number": 64, "value": 0}, "group": "control_change"}, {"time": 294, "annotation": {"number": 64, "value": 127}, "group": "control_change"}, {"time": 315, "annotation": {"number": 64, "value": 0}, "group": "control_change"}, {"time": 319, "annotation": {"number": 64, "value": 127}, "group": "control_change"}, {"time": 338, "annotation": {"number": 64, "value": 0}, "group": "control_change"}, {"time": 342, "annotation": {"number": 64, "value": 127}, "group": "control_change"}, {"time": 363, "annotation": {"number": 64, "value": 0}, "group": "control_change"}, {"time": 390, "annotation": {"number": 64, "value": 127}, "group": "control_change"}, {"time": 425, "annotation": {"number": 64, "value": 0}, "group": "control_change"}, {"time": 438, "annotation": {"number": 64, "value": 127}, "group": "control_change"}, {"time": 471, "annotation": {"number": 64, "value": 0}, "group": "control_change"}, {"time": 474, "annotation": {"number": 64, "value": 127}, "group": "control_change"}, {"time": 483, "annotation": {"number": 64, "value": 0}, "group": "control_change"}, {"time": 486, "annotation": {"number": 64, "value": 127}, "group": "control_change"}, {"time": 508, "annotation": {"number": 64, "value": 0}, "group": "control_change"}, {"time": 514, "annotation": {"number": 64, "value": 127}, "group": "control_change"}, {"time": 531, "annotation": {"number": 64, "value": 0}, "group": "control_change"}, {"time": 534, "annotation": {"number": 64, "value": 127}, "group": "control_change"}, {"time": 571, "annotation": {"number": 64, "value": 0}, "group": "control_change"}, {"time": 581, "annotation": {"number": 64, "value": 127}, "group": "control_change"}, {"time": 607, "annotation": {"number": 64, "value": 127}, "group": "control_change"}, {"time": 610, "annotation": {"number": 64, "value": 0}, "group": "control_change"}, {"time": 640, "annotation": {"number": 64, "value": 0}, "group": "control_change"}, {"time": 653, "annotation": {"number": 64, "value": 127}, "group": "control_change"}, {"time": 675, "annotation": {"number": 64, "value": 0}, "group": "control_change"}, {"time": 679, "annotation": {"number": 64, "value": 127}, "group": "control_change"}, {"time": 698, "annotation": {"number": 64, "value": 0}, "group": "control_change"}, {"time": 702, "annotation": {"number": 64, "value": 127}, "group": "control_change"}, {"time": 724, "annotation": {"number": 64, "value": 0}, "group": "control_change"}, {"time": 726, "annotation": {"number": 64, "value": 127}, "group": "control_change"}, {"time": 749, "annotation": {"number": 64, "value": 0}, "group": "control_change"}, {"time": 774, "annotation": {"number": 64, "value": 127}, "group": "control_change"}, {"time": 809, "annotation": {"number": 64, "value": 0}, "group": "control_change"}, {"time": 822, "annotation": {"number": 64, "value": 127}, "group": "control_change"}, {"time": 855, "annotation": {"number": 64, "value": 0}, "group": "control_change"}, {"time": 858, "annotation": {"number": 64, "value": 127}, "group": "control_change"}, {"time": 867, "annotation": {"number": 64, "value": 0}, "group": "control_change"}, {"time": 870, "annotation": {"number": 64, "value": 127}, "group": "control_change"}, {"time": 892, "annotation": {"number": 64, "value": 0}, "group": "control_change"}, {"time": 898, "annotation": {"number": 64, "value": 127}, "group": "control_change"}, {"time": 915, "annotation": {"number": 64, "value": 0}, "group": "control_change"}, {"time": 918, "annotation": {"number": 64, "value": 127}, "group": "control_change"}, {"time": 955, "annotation": {"number": 64, "value": 0}, "group": "control_change"}, {"time": 965, "annotation": {"number": 64, "value": 127}, "group": "control_change"}, {"time": 966, "annotation": {"number": 64, "value": 127}, "group": "control_change"}, {"time": 987, "annotation": {"number": 64, "value": 0}, "group": "control_change"}, {"time": 990, "annotation": {"number": 64, "value": 127}, "group": "control_change"}, {"time": 997, "annotation": {"number": 64, "value": 0}, "group": "control_change"}, {"time": 1001, "annotation": {"number": 64, "value": 127}, "group": "control_change"}, {"time": 1009, "annotation": {"number": 64, "value": 0}, "group": "control_change"}, {"time": 1013, "annotation": {"number": 64, "value": 127}, "group": "control_change"}, {"time": 1024, "annotation": {"number": 64, "value": 0}, "group": "control_change"}, {"time": 1037, "annotation": {"number": 64, "value": 127}, "group": "control_change"}, {"time": 1059, "annotation": {"number": 64, "value": 0}, "group": "control_change"}, {"time": 1062, "annotation": {"number": 64, "value": 127}, "group": "control_change"}, {"time": 1107, "annotation": {"number": 64, "value": 0}, "group": "control_change"}, {"time": 1110, "annotation": {"number": 64, "value": 127}, "group": "control_change"}, {"time": 1132, "annotation": {"number": 64, "value": 0}, "group": "control_change"}, {"time": 1134, "annotation": {"number": 64, "value": 127}, "group": "control_change"}, {"time": 1153, "annotation": {"number": 64, "value": 0}, "group": "control_change"}, {"time": 1157, "annotation": {"number": 64, "value": 127}, "group": "control_change"}, {"time": 1178, "annotation": {"number": 64, "value": 0}, "group": "control_change"}, {"time": 1181, "annotation": {"number": 64, "value": 127}, "group": "control_change"}, {"time": 1202, "annotation": {"number": 64, "value": 0}, "group": "control_change"}, {"time": 1206, "annotation": {"number": 64, "value": 127}, "group": "control_change"}, {"time": 1226, "annotation": {"number": 64, "value": 0}, "group": "control_change"}, {"time": 1230, "annotation": {"number": 64, "value": 127}, "group": "control_change"}, {"time": 1252, "annotation": {"number": 64, "value": 0}, "group": "control_change"}, {"time": 1283, "annotation": {"number": 64, "value": 127}, "group": "control_change"}, {"time": 1299, "annotation": {"number": 64, "value": 0}, "group": "control_change"}, {"time": 1302, "annotation": {"number": 64, "value": 127}, "group": "control_change"}, {"time": 1322, "annotation": {"number": 64, "value": 0}, "group": "control_change"}, {"time": 1326, "annotation": {"number": 64, "value": 127}, "group": "control_change"}, {"time": 1347, "annotation": {"number": 64, "value": 0}, "group": "control_change"}, {"time": 1350, "annotation": {"number": 64, "value": 127}, "group": "control_change"}, {"time": 1395, "annotation": {"number": 64, "value": 0}, "group": "control_change"}, {"time": 1398, "annotation": {"number": 64, "value": 127}, "group": "control_change"}, {"time": 1418, "annotation": {"number": 64, "value": 0}, "group": "control_change"}, {"time": 1422, "annotation": {"number": 64, "value": 127}, "group": "control_change"}, {"time": 1492, "annotation": {"number": 64, "value": 0}, "group": "control_change"}, {"time": 1496, "annotation": {"number": 64, "value": 127}, "group": "control_change"}, {"time": 1515, "annotation": {"number": 64, "value": 0}, "group": "control_change"}, {"time": 1518, "annotation": {"number": 64, "value": 127}, "group": "control_change"}, {"time": 1538, "annotation": {"number": 64, "value": 0}, "group": "control_change"}, {"time": 1543, "annotation": {"number": 64, "value": 127}, "group": "control_change"}, {"time": 1563, "annotation": {"number": 64, "value": 0}, "group": "control_change"}, {"time": 1566, "annotation": {"number": 64, "value": 127}, "group": "control_change"}, {"time": 1586, "annotation": {"number": 64, "value": 0}, "group": "control_change"}, {"time": 1590, "annotation": {"number": 64, "value": 127}, "group": "control_change"}, {"time": 1610, "annotation": {"number": 64, "value": 0}, "group": "control_change"}, {"time": 1614, "annotation": {"number": 64, "value": 127}, "group": "control_change"}, {"time": 1636, "annotation": {"number": 64, "value": 0}, "group": "control_change"}, {"time": 1639, "annotation": {"number": 64, "value": 127}, "group": "control_change"}, {"time": 1659, "annotation": {"number": 64, "value": 0}, "group": "control_change"}, {"time": 1662, "annotation": {"number": 64, "value": 127}, "group": "control_change"}, {"time": 1682, "annotation": {"number": 64, "value": 0}, "group": "control_change"}, {"time": 1686, "annotation": {"number": 64, "value": 127}, "group": "control_change"}, {"time": 1706, "annotation": {"number": 64, "value": 0}, "group": "control_change"}, {"time": 1710, "annotation": {"number": 64, "value": 127}, "group": "control_change"}, {"time": 1731, "annotation": {"number": 64, "value": 0}, "group": "control_change"}, {"time": 1734, "annotation": {"number": 64, "value": 127}, "group": "control_change"}, {"time": 1760, "annotation": {"number": 64, "value": 0}, "group": "control_change"}, {"time": 1803, "annotation": {"number": 64, "value": 127}, "group": "control_change"}, {"time": 1827, "annotation": {"number": 64, "value": 0}, "group": "control_change"}, {"time": 1829, "annotation": {"number": 64, "value": 127}, "group": "control_change"}, {"time": 1851, "annotation": {"number": 64, "value": 0}, "group": "control_change"}, {"time": 1852, "annotation": {"number": 64, "value": 127}, "group": "control_change"}, {"time": 1874, "annotation": {"number": 64, "value": 0}, "group": "control_change"}, {"time": 1878, "annotation": {"number": 64, "value": 127}, "group": "control_change"}, {"time": 1900, "annotation": {"number": 64, "value": 0}, "group": "control_change"}, {"time": 1902, "annotation": {"number": 64, "value": 127}, "group": "control_change"}, {"time": 1926, "annotation": {"number": 64, "value": 127}, "group": "control_change"}, {"time": 1946, "annotation": {"number": 64, "value": 0}, "group": "control_change"}, {"time": 1950, "annotation": {"number": 64, "value": 127}, "group": "control_change"}, {"time": 1973, "annotation": {"number": 64, "value": 0}, "group": "control_change"}, {"time": 1998, "annotation": {"number": 64, "value": 127}, "group": "control_change"}, {"time": 2033, "annotation": {"number": 64, "value": 0}, "group": "control_change"}, {"time": 2046, "annotation": {"number": 64, "value": 127}, "group": "control_change"}, {"time": 2079, "annotation": {"number": 64, "value": 0}, "group": "control_change"}, {"time": 2082, "annotation": {"number": 64, "value": 127}, "group": "control_change"}, {"time": 2091, "annotation": {"number": 64, "value": 0}, "group": "control_change"}, {"time": 2094, "annotation": {"number": 64, "value": 127}, "group": "control_change"}, {"time": 2116, "annotation": {"number": 64, "value": 0}, "group": "control_change"}, {"time": 2122, "annotation": {"number": 64, "value": 127}, "group": "control_change"}, {"time": 2139, "annotation": {"number": 64, "value": 0}, "group": "control_change"}, {"time": 2142, "annotation": {"number": 64, "value": 127}, "group": "control_change"}, {"time": 2179, "annotation": {"number": 64, "value": 0}, "group": "control_change"}, {"time": 2189, "annotation": {"number": 64, "value": 127}, "group": "control_change"}, {"time": 2190, "annotation": {"number": 64, "value": 127}, "group": "control_change"}, {"time": 2211, "annotation": {"number": 64, "value": 0}, "group": "control_change"}, {"time": 2214, "annotation": {"number": 64, "value": 127}, "group": "control_change"}, {"time": 2221, "annotation": {"number": 64, "value": 0}, "group": "control_change"}, {"time": 2225, "annotation": {"number": 64, "value": 127}, "group": "control_change"}, {"time": 2233, "annotation": {"number": 64, "value": 0}, "group": "control_change"}, {"time": 2237, "annotation": {"number": 64, "value": 127}, "group": "control_change"}, {"time": 2248, "annotation": {"number": 64, "value": 0}, "group": "control_change"}, {"time": 2261, "annotation": {"number": 64, "value": 127}, "group": "control_change"}, {"time": 2283, "annotation": {"number": 64, "value": 0}, "group": "control_change"}, {"time": 2286, "annotation": {"number": 64, "value": 127}, "group": "control_change"}, {"time": 2331, "annotation": {"number": 64, "value": 0}, "group": "control_change"}, {"time": 2334, "annotation": {"number": 64, "value": 127}, "group": "control_change"}, {"time": 2356, "annotation": {"number": 64, "value": 0}, "group": "control_change"}, {"time": 2358, "annotation": {"number": 64, "value": 127}, "group": "control_change"}, {"time": 2377, "annotation": {"number": 64, "value": 0}, "group": "control_change"}, {"time": 2381, "annotation": {"number": 64, "value": 127}, "group": "control_change"}, {"time": 2402, "annotation": {"number": 64, "value": 0}, "group": "control_change"}, {"time": 2405, "annotation": {"number": 64, "value": 127}, "group": "control_change"}, {"time": 2426, "annotation": {"number": 64, "value": 0}, "group": "control_change"}, {"time": 2430, "annotation": {"number": 64, "value": 127}, "group": "control_change"}, {"time": 2450, "annotation": {"number": 64, "value": 0}, "group": "control_change"}, {"time": 2454, "annotation": {"number": 64, "value": 127}, "group": "control_change"}, {"time": 2476, "annotation": {"number": 64, "value": 0}, "group": "control_change"}, {"time": 2507, "annotation": {"number": 64, "value": 127}, "group": "control_change"}, {"time": 2523, "annotation": {"number": 64, "value": 0}, "group": "control_change"}, {"time": 2526, "annotation": {"number": 64, "value": 127}, "group": "control_change"}, {"time": 2546, "annotation": {"number": 64, "value": 0}, "group": "control_change"}, {"time": 2550, "annotation": {"number": 64, "value": 127}, "group": "control_change"}, {"time": 2571, "annotation": {"number": 64, "value": 0}, "group": "control_change"}, {"time": 2598, "annotation": {"number": 64, "value": 127}, "group": "control_change"}, {"time": 2643, "annotation": {"number": 64, "value": 0}, "group": "control_change"}, {"time": 2646, "annotation": {"number": 64, "value": 127}, "group": "control_change"}, {"time": 2666, "annotation": {"number": 64, "value": 0}, "group": "control_change"}, {"time": 2670, "annotation": {"number": 64, "value": 127}, "group": "control_change"}, {"time": 2740, "annotation": {"number": 64, "value": 0}, "group": "control_change"}, {"time": 2744, "annotation": {"number": 64, "value": 127}, "group": "control_change"}, {"time": 2763, "annotation": {"number": 64, "value": 0}, "group": "control_change"}, {"time": 2766, "annotation": {"number": 64, "value": 127}, "group": "control_change"}, {"time": 2786, "annotation": {"number": 64, "value": 0}, "group": "control_change"}, {"time": 2791, "annotation": {"number": 64, "value": 127}, "group": "control_change"}, {"time": 2811, "annotation": {"number": 64, "value": 0}, "group": "control_change"}, {"time": 2814, "annotation": {"number": 64, "value": 127}, "group": "control_change"}, {"time": 2834, "annotation": {"number": 64, "value": 0}, "group": "control_change"}, {"time": 2838, "annotation": {"number": 64, "value": 127}, "group": "control_change"}, {"time": 2858, "annotation": {"number": 64, "value": 0}, "group": "control_change"}, {"time": 2862, "annotation": {"number": 64, "value": 127}, "group": "control_change"}, {"time": 2884, "annotation": {"number": 64, "value": 0}, "group": "control_change"}, {"time": 2887, "annotation": {"number": 64, "value": 127}, "group": "control_change"}, {"time": 2907, "annotation": {"number": 64, "value": 0}, "group": "control_change"}, {"time": 2910, "annotation": {"number": 64, "value": 127}, "group": "control_change"}, {"time": 2930, "annotation": {"number": 64, "value": 0}, "group": "control_change"}, {"time": 2934, "annotation": {"number": 64, "value": 127}, "group": "control_change"}, {"time": 2954, "annotation": {"number": 64, "value": 0}, "group": "control_change"}, {"time": 2958, "annotation": {"number": 64, "value": 127}, "group": "control_change"}, {"time": 2979, "annotation": {"number": 64, "value": 0}, "group": "control_change"}, {"time": 2981, "annotation": {"number": 64, "value": 127}, "group": "control_change"}, {"time": 3027, "annotation": {"number": 64, "value": 0}, "group": "control_change"}, {"time": 3030, "annotation": {"number": 64, "value": 127}, "group": "control_change"}, {"time": 3050, "annotation": {"number": 64, "value": 0}, "group": "control_change"}, {"time": 3054, "annotation": {"number": 64, "value": 127}, "group": "control_change"}, {"time": 3056, "annotation": {"number": 64, "value": 127}, "group": "control_change"}, {"time": 3073, "annotation": {"number": 64, "value": 0}, "group": "control_change"}, {"time": 3079, "annotation": {"number": 64, "value": 127}, "group": "control_change"}, {"time": 3099, "annotation": {"number": 64, "value": 0}, "group": "control_change"}, {"time": 3103, "annotation": {"number": 64, "value": 127}, "group": "control_change"}, {"time": 3122, "annotation": {"number": 64, "value": 0}, "group": "control_change"}, {"time": 3126, "annotation": {"number": 64, "value": 127}, "group": "control_change"}, {"time": 3145, "annotation": {"number": 64, "value": 0}, "group": "control_change"}, {"time": 3150, "annotation": {"number": 64, "value": 127}, "group": "control_change"}, {"time": 3171, "annotation": {"number": 64, "value": 0}, "group": "control_change"}, {"time": 3174, "annotation": {"number": 64, "value": 127}, "group": "control_change"}, {"time": 3194, "annotation": {"number": 64, "value": 0}, "group": "control_change"}, {"time": 3198, "annotation": {"number": 64, "value": 127}, "group": "control_change"}, {"time": 3218, "annotation": {"number": 64, "value": 0}, "group": "control_change"}, {"time": 3223, "annotation": {"number": 64, "value": 127}, "group": "control_change"}, {"time": 3242, "annotation": {"number": 64, "value": 0}, "group": "control_change"}, {"time": 3245, "annotation": {"number": 64, "value": 127}, "group": "control_change"}, {"time": 3247, "annotation": {"number": 64, "value": 127}, "group": "control_change"}, {"time": 3280, "annotation": {"number": 64, "value": 0}, "group": "control_change"}, {"time": 3283, "annotation": {"number": 64, "value": 127}, "group": "control_change"}, {"time": 3296, "annotation": {"number": 64, "value": 127}, "group": "control_change"}, {"time": 3314, "annotation": {"number": 64, "value": 0}, "group": "control_change"}, {"time": 3318, "annotation": {"number": 64, "value": 127}, "group": "control_change"}, {"time": 3337, "annotation": {"number": 64, "value": 0}, "group": "control_change"}, {"time": 3341, "annotation": {"number": 64, "value": 127}, "group": "control_change"}, {"time": 3347, "annotation": {"number": 64, "value": 0}, "group": "control_change"}, {"time": 3353, "annotation": {"number": 64, "value": 127}, "group": "control_change"}, {"time": 3361, "annotation": {"number": 64, "value": 0}, "group": "control_change"}, {"time": 3366, "annotation": {"number": 64, "value": 127}, "group": "control_change"}, {"time": 3387, "annotation": {"number": 64, "value": 0}, "group": "control_change"}, {"time": 3392, "annotation": {"number": 64, "value": 127}, "group": "control_change"}, {"time": 3411, "annotation": {"number": 64, "value": 0}, "group": "control_change"}, {"time": 3414, "annotation": {"number": 64, "value": 127}, "group": "control_change"}, {"time": 3484, "annotation": {"number": 64, "value": 0}, "group": "control_change"}, {"time": 3486, "annotation": {"number": 64, "value": 127}, "group": "control_change"}, {"time": 3507, "annotation": {"number": 64, "value": 0}, "group": "control_change"}, {"time": 3510, "annotation": {"number": 64, "value": 127}, "group": "control_change"}, {"time": 3533, "annotation": {"number": 64, "value": 0}, "group": "control_change"}, {"time": 3534, "annotation": {"number": 64, "value": 127}, "group": "control_change"}, {"time": 3556, "annotation": {"number": 64, "value": 0}, "group": "control_change"}, {"time": 3568, "annotation": {"number": 64, "value": 127}, "group": "control_change"}, {"time": 3592, "annotation": {"number": 64, "value": 0}, "group": "control_change"}]}]}