{"metadata": {"schema_version": "0.2", "title": "None", "source_filename": "392.mid", "source_format": "midi"}, "resolution": 12, "tempos": [{"time": 0, "qpm": 78.000078000078}], "key_signatures": [{"time": 0, "root": 0, "mode": "major"}], "time_signatures": [{"time": 0, "numerator": 4, "denominator": 4}, {"time": 0, "numerator": 1, "denominator": 4}], "tracks": [{"program": 4, "is_drum": false, "name": "MELODY", "notes": [{"time": 484, "pitch": 61, "duration": 6, "velocity": 122}, {"time": 490, "pitch": 59, "duration": 6, "velocity": 66}, {"time": 496, "pitch": 61, "duration": 5, "velocity": 89}, {"time": 502, "pitch": 61, "duration": 2, "velocity": 95}, {"time": 505, "pitch": 64, "duration": 4, "velocity": 92}, {"time": 508, "pitch": 63, "duration": 11, "velocity": 99}, {"time": 520, "pitch": 61, "duration": 6, "velocity": 122}, {"time": 526, "pitch": 59, "duration": 6, "velocity": 83}, {"time": 532, "pitch": 61, "duration": 32, "velocity": 107}, {"time": 580, "pitch": 61, "duration": 3, "velocity": 102}, {"time": 586, "pitch": 61, "duration": 3, "velocity": 107}, {"time": 589, "pitch": 59, "duration": 4, "velocity": 78}, {"time": 592, "pitch": 61, "duration": 5, "velocity": 102}, {"time": 598, "pitch": 64, "duration": 6, "velocity": 86}, {"time": 604, "pitch": 61, "duration": 9, "velocity": 93}, {"time": 616, "pitch": 52, "duration": 5, "velocity": 93}, {"time": 622, "pitch": 59, "duration": 7, "velocity": 92}, {"time": 628, "pitch": 56, "duration": 32, "velocity": 79}, {"time": 676, "pitch": 54, "duration": 10, "velocity": 88}, {"time": 688, "pitch": 54, "duration": 5, "velocity": 99}, {"time": 694, "pitch": 56, "duration": 5, "velocity": 93}, {"time": 700, "pitch": 59, "duration": 16, "velocity": 96}, {"time": 724, "pitch": 61, "duration": 3, "velocity": 99}, {"time": 730, "pitch": 61, "duration": 2, "velocity": 99}, {"time": 736, "pitch": 61, "duration": 1, "velocity": 102}, {"time": 739, "pitch": 61, "duration": 5, "velocity": 100}, {"time": 745, "pitch": 64, "duration": 4, "velocity": 87}, {"time": 748, "pitch": 66, "duration": 13, "velocity": 100}, {"time": 772, "pitch": 66, "duration": 15, "velocity": 112}, {"time": 790, "pitch": 68, "duration": 3, "velocity": 107}, {"time": 796, "pitch": 63, "duration": 5, "velocity": 100}, {"time": 802, "pitch": 61, "duration": 4, "velocity": 95}, {"time": 808, "pitch": 61, "duration": 6, "velocity": 102}, {"time": 814, "pitch": 59, "duration": 6, "velocity": 85}, {"time": 820, "pitch": 61, "duration": 31, "velocity": 100}, {"time": 865, "pitch": 56, "duration": 2, "velocity": 81}, {"time": 868, "pitch": 61, "duration": 4, "velocity": 81}, {"time": 874, "pitch": 61, "duration": 4, "velocity": 99}, {"time": 880, "pitch": 61, "duration": 4, "velocity": 93}, {"time": 886, "pitch": 64, "duration": 3, "velocity": 90}, {"time": 892, "pitch": 63, "duration": 2, "velocity": 102}, {"time": 898, "pitch": 63, "duration": 2, "velocity": 102}, {"time": 901, "pitch": 61, "duration": 9, "velocity": 112}, {"time": 910, "pitch": 59, "duration": 7, "velocity": 92}, {"time": 916, "pitch": 61, "duration": 9, "velocity": 102}, {"time": 958, "pitch": 56, "duration": 2, "velocity": 99}, {"time": 961, "pitch": 56, "duration": 2, "velocity": 82}, {"time": 964, "pitch": 61, "duration": 4, "velocity": 102}, {"time": 970, "pitch": 61, "duration": 5, "velocity": 117}, {"time": 976, "pitch": 61, "duration": 4, "velocity": 107}, {"time": 982, "pitch": 64, "duration": 4, "velocity": 97}, {"time": 988, "pitch": 61, "duration": 6, "velocity": 117}, {"time": 1000, "pitch": 52, "duration": 5, "velocity": 92}, {"time": 1006, "pitch": 59, "duration": 6, "velocity": 96}, {"time": 1012, "pitch": 56, "duration": 24, "velocity": 99}, {"time": 1060, "pitch": 54, "duration": 5, "velocity": 100}, {"time": 1072, "pitch": 54, "duration": 5, "velocity": 107}, {"time": 1078, "pitch": 56, "duration": 4, "velocity": 100}, {"time": 1084, "pitch": 59, "duration": 12, "velocity": 102}, {"time": 1102, "pitch": 59, "duration": 6, "velocity": 96}, {"time": 1108, "pitch": 61, "duration": 9, "velocity": 112}, {"time": 1120, "pitch": 61, "duration": 4, "velocity": 117}, {"time": 1126, "pitch": 64, "duration": 5, "velocity": 102}, {"time": 1132, "pitch": 66, "duration": 12, "velocity": 127}, {"time": 1156, "pitch": 66, "duration": 3, "velocity": 127}, {"time": 1162, "pitch": 66, "duration": 3, "velocity": 127}, {"time": 1168, "pitch": 66, "duration": 2, "velocity": 127}, {"time": 1174, "pitch": 66, "duration": 2, "velocity": 127}, {"time": 1177, "pitch": 68, "duration": 2, "velocity": 127}, {"time": 1180, "pitch": 63, "duration": 5, "velocity": 112}, {"time": 1186, "pitch": 61, "duration": 4, "velocity": 107}, {"time": 1192, "pitch": 61, "duration": 4, "velocity": 122}, {"time": 1198, "pitch": 59, "duration": 5, "velocity": 92}, {"time": 1204, "pitch": 61, "duration": 17, "velocity": 112}, {"time": 1300, "pitch": 68, "duration": 5, "velocity": 127}, {"time": 1309, "pitch": 68, "duration": 1, "velocity": 122}, {"time": 1312, "pitch": 68, "duration": 4, "velocity": 127}, {"time": 1318, "pitch": 68, "duration": 3, "velocity": 117}, {"time": 1324, "pitch": 68, "duration": 4, "velocity": 127}, {"time": 1330, "pitch": 66, "duration": 1, "velocity": 122}, {"time": 1333, "pitch": 66, "duration": 4, "velocity": 127}, {"time": 1342, "pitch": 64, "duration": 2, "velocity": 107}, {"time": 1345, "pitch": 66, "duration": 2, "velocity": 102}, {"time": 1348, "pitch": 66, "duration": 17, "velocity": 127}, {"time": 1396, "pitch": 66, "duration": 5, "velocity": 127}, {"time": 1405, "pitch": 66, "duration": 2, "velocity": 127}, {"time": 1408, "pitch": 66, "duration": 4, "velocity": 117}, {"time": 1414, "pitch": 66, "duration": 2, "velocity": 117}, {"time": 1417, "pitch": 64, "duration": 2, "velocity": 97}, {"time": 1420, "pitch": 66, "duration": 4, "velocity": 117}, {"time": 1432, "pitch": 64, "duration": 2, "velocity": 112}, {"time": 1435, "pitch": 61, "duration": 4, "velocity": 96}, {"time": 1441, "pitch": 61, "duration": 2, "velocity": 100}, {"time": 1444, "pitch": 63, "duration": 23, "velocity": 107}, {"time": 1492, "pitch": 61, "duration": 3, "velocity": 117}, {"time": 1498, "pitch": 61, "duration": 2, "velocity": 107}, {"time": 1504, "pitch": 61, "duration": 6, "velocity": 122}, {"time": 1513, "pitch": 64, "duration": 3, "velocity": 100}, {"time": 1516, "pitch": 66, "duration": 13, "velocity": 117}, {"time": 1540, "pitch": 68, "duration": 8, "velocity": 127}, {"time": 1552, "pitch": 71, "duration": 4, "velocity": 127}, {"time": 1555, "pitch": 68, "duration": 3, "velocity": 127}, {"time": 1558, "pitch": 66, "duration": 6, "velocity": 112}, {"time": 1564, "pitch": 64, "duration": 12, "velocity": 107}, {"time": 1588, "pitch": 59, "duration": 3, "velocity": 107}, {"time": 1594, "pitch": 59, "duration": 3, "velocity": 100}, {"time": 1600, "pitch": 59, "duration": 4, "velocity": 100}, {"time": 1606, "pitch": 61, "duration": 4, "velocity": 112}, {"time": 1612, "pitch": 63, "duration": 6, "velocity": 127}, {"time": 1618, "pitch": 63, "duration": 2, "velocity": 122}, {"time": 1621, "pitch": 66, "duration": 6, "velocity": 127}, {"time": 1630, "pitch": 59, "duration": 2, "velocity": 97}, {"time": 1633, "pitch": 61, "duration": 2, "velocity": 100}, {"time": 1636, "pitch": 61, "duration": 27, "velocity": 117}, {"time": 1684, "pitch": 68, "duration": 5, "velocity": 127}, {"time": 1693, "pitch": 68, "duration": 1, "velocity": 127}, {"time": 1696, "pitch": 68, "duration": 5, "velocity": 127}, {"time": 1702, "pitch": 68, "duration": 2, "velocity": 122}, {"time": 1708, "pitch": 71, "duration": 4, "velocity": 117}, {"time": 1714, "pitch": 68, "duration": 1, "velocity": 127}, {"time": 1717, "pitch": 68, "duration": 3, "velocity": 127}, {"time": 1726, "pitch": 64, "duration": 3, "velocity": 117}, {"time": 1729, "pitch": 66, "duration": 2, "velocity": 107}, {"time": 1732, "pitch": 66, "duration": 31, "velocity": 127}, {"time": 1777, "pitch": 56, "duration": 2, "velocity": 117}, {"time": 1780, "pitch": 66, "duration": 6, "velocity": 122}, {"time": 1789, "pitch": 66, "duration": 2, "velocity": 122}, {"time": 1792, "pitch": 66, "duration": 4, "velocity": 112}, {"time": 1798, "pitch": 64, "duration": 4, "velocity": 88}, {"time": 1804, "pitch": 66, "duration": 7, "velocity": 122}, {"time": 1816, "pitch": 64, "duration": 4, "velocity": 107}, {"time": 1822, "pitch": 61, "duration": 5, "velocity": 107}, {"time": 1828, "pitch": 63, "duration": 24, "velocity": 127}, {"time": 1876, "pitch": 61, "duration": 2, "velocity": 127}, {"time": 1882, "pitch": 61, "duration": 3, "velocity": 112}, {"time": 1888, "pitch": 61, "duration": 3, "velocity": 122}, {"time": 1894, "pitch": 61, "duration": 2, "velocity": 112}, {"time": 1897, "pitch": 64, "duration": 2, "velocity": 95}, {"time": 1900, "pitch": 64, "duration": 15, "velocity": 102}, {"time": 1924, "pitch": 68, "duration": 10, "velocity": 127}, {"time": 1936, "pitch": 71, "duration": 5, "velocity": 99}, {"time": 1942, "pitch": 66, "duration": 5, "velocity": 117}, {"time": 1948, "pitch": 64, "duration": 12, "velocity": 112}, {"time": 1972, "pitch": 59, "duration": 4, "velocity": 107}, {"time": 1978, "pitch": 59, "duration": 4, "velocity": 97}, {"time": 1984, "pitch": 59, "duration": 3, "velocity": 100}, {"time": 1990, "pitch": 59, "duration": 3, "velocity": 99}, {"time": 1993, "pitch": 61, "duration": 2, "velocity": 102}, {"time": 1996, "pitch": 63, "duration": 8, "velocity": 127}, {"time": 2008, "pitch": 66, "duration": 6, "velocity": 127}, {"time": 2014, "pitch": 59, "duration": 3, "velocity": 96}, {"time": 2017, "pitch": 61, "duration": 2, "velocity": 100}, {"time": 2020, "pitch": 61, "duration": 40, "velocity": 127}, {"time": 2449, "pitch": 56, "duration": 2, "velocity": 81}, {"time": 2452, "pitch": 61, "duration": 4, "velocity": 81}, {"time": 2458, "pitch": 61, "duration": 4, "velocity": 99}, {"time": 2464, "pitch": 61, "duration": 4, "velocity": 93}, {"time": 2470, "pitch": 64, "duration": 3, "velocity": 90}, {"time": 2476, "pitch": 63, "duration": 2, "velocity": 102}, {"time": 2482, "pitch": 63, "duration": 2, "velocity": 102}, {"time": 2485, "pitch": 61, "duration": 9, "velocity": 112}, {"time": 2494, "pitch": 59, "duration": 7, "velocity": 92}, {"time": 2500, "pitch": 61, "duration": 9, "velocity": 102}, {"time": 2542, "pitch": 56, "duration": 2, "velocity": 99}, {"time": 2545, "pitch": 56, "duration": 2, "velocity": 82}, {"time": 2548, "pitch": 61, "duration": 4, "velocity": 102}, {"time": 2554, "pitch": 61, "duration": 5, "velocity": 117}, {"time": 2560, "pitch": 61, "duration": 4, "velocity": 107}, {"time": 2566, "pitch": 64, "duration": 4, "velocity": 97}, {"time": 2572, "pitch": 61, "duration": 6, "velocity": 117}, {"time": 2584, "pitch": 52, "duration": 5, "velocity": 92}, {"time": 2590, "pitch": 59, "duration": 6, "velocity": 96}, {"time": 2596, "pitch": 56, "duration": 24, "velocity": 99}, {"time": 2644, "pitch": 54, "duration": 5, "velocity": 100}, {"time": 2656, "pitch": 54, "duration": 5, "velocity": 107}, {"time": 2662, "pitch": 56, "duration": 4, "velocity": 100}, {"time": 2668, "pitch": 59, "duration": 12, "velocity": 102}, {"time": 2686, "pitch": 59, "duration": 6, "velocity": 96}, {"time": 2692, "pitch": 61, "duration": 9, "velocity": 112}, {"time": 2704, "pitch": 61, "duration": 4, "velocity": 117}, {"time": 2710, "pitch": 64, "duration": 5, "velocity": 102}, {"time": 2716, "pitch": 66, "duration": 12, "velocity": 127}, {"time": 2740, "pitch": 66, "duration": 3, "velocity": 127}, {"time": 2746, "pitch": 66, "duration": 3, "velocity": 127}, {"time": 2752, "pitch": 66, "duration": 2, "velocity": 127}, {"time": 2758, "pitch": 66, "duration": 2, "velocity": 127}, {"time": 2761, "pitch": 68, "duration": 2, "velocity": 127}, {"time": 2764, "pitch": 63, "duration": 5, "velocity": 112}, {"time": 2770, "pitch": 61, "duration": 4, "velocity": 107}, {"time": 2776, "pitch": 61, "duration": 4, "velocity": 122}, {"time": 2782, "pitch": 59, "duration": 5, "velocity": 92}, {"time": 2788, "pitch": 61, "duration": 17, "velocity": 112}, {"time": 2884, "pitch": 68, "duration": 5, "velocity": 127}, {"time": 2893, "pitch": 68, "duration": 1, "velocity": 122}, {"time": 2896, "pitch": 68, "duration": 4, "velocity": 127}, {"time": 2902, "pitch": 68, "duration": 3, "velocity": 117}, {"time": 2908, "pitch": 68, "duration": 4, "velocity": 127}, {"time": 2914, "pitch": 66, "duration": 1, "velocity": 122}, {"time": 2917, "pitch": 66, "duration": 4, "velocity": 127}, {"time": 2926, "pitch": 64, "duration": 2, "velocity": 107}, {"time": 2929, "pitch": 66, "duration": 2, "velocity": 102}, {"time": 2932, "pitch": 66, "duration": 17, "velocity": 127}, {"time": 2980, "pitch": 66, "duration": 5, "velocity": 127}, {"time": 2989, "pitch": 66, "duration": 2, "velocity": 127}, {"time": 2992, "pitch": 66, "duration": 4, "velocity": 117}, {"time": 2998, "pitch": 66, "duration": 2, "velocity": 117}, {"time": 3001, "pitch": 64, "duration": 2, "velocity": 97}, {"time": 3004, "pitch": 66, "duration": 4, "velocity": 117}, {"time": 3016, "pitch": 64, "duration": 2, "velocity": 112}, {"time": 3019, "pitch": 61, "duration": 4, "velocity": 96}, {"time": 3025, "pitch": 61, "duration": 2, "velocity": 100}, {"time": 3028, "pitch": 63, "duration": 23, "velocity": 107}, {"time": 3076, "pitch": 61, "duration": 3, "velocity": 117}, {"time": 3082, "pitch": 61, "duration": 2, "velocity": 107}, {"time": 3088, "pitch": 61, "duration": 6, "velocity": 122}, {"time": 3097, "pitch": 64, "duration": 3, "velocity": 100}, {"time": 3100, "pitch": 66, "duration": 13, "velocity": 117}, {"time": 3124, "pitch": 68, "duration": 8, "velocity": 127}, {"time": 3136, "pitch": 71, "duration": 4, "velocity": 127}, {"time": 3139, "pitch": 68, "duration": 3, "velocity": 127}, {"time": 3142, "pitch": 66, "duration": 6, "velocity": 112}, {"time": 3148, "pitch": 64, "duration": 12, "velocity": 107}, {"time": 3172, "pitch": 59, "duration": 3, "velocity": 107}, {"time": 3178, "pitch": 59, "duration": 3, "velocity": 100}, {"time": 3184, "pitch": 59, "duration": 4, "velocity": 100}, {"time": 3190, "pitch": 61, "duration": 4, "velocity": 112}, {"time": 3196, "pitch": 63, "duration": 6, "velocity": 127}, {"time": 3202, "pitch": 63, "duration": 2, "velocity": 122}, {"time": 3205, "pitch": 66, "duration": 6, "velocity": 127}, {"time": 3214, "pitch": 59, "duration": 2, "velocity": 97}, {"time": 3217, "pitch": 61, "duration": 2, "velocity": 100}, {"time": 3220, "pitch": 61, "duration": 27, "velocity": 117}, {"time": 3268, "pitch": 68, "duration": 5, "velocity": 127}, {"time": 3277, "pitch": 68, "duration": 1, "velocity": 127}, {"time": 3280, "pitch": 68, "duration": 5, "velocity": 127}, {"time": 3286, "pitch": 68, "duration": 2, "velocity": 122}, {"time": 3292, "pitch": 71, "duration": 4, "velocity": 117}, {"time": 3298, "pitch": 68, "duration": 1, "velocity": 127}, {"time": 3301, "pitch": 68, "duration": 3, "velocity": 127}, {"time": 3310, "pitch": 64, "duration": 3, "velocity": 117}, {"time": 3313, "pitch": 66, "duration": 2, "velocity": 107}, {"time": 3316, "pitch": 66, "duration": 31, "velocity": 127}, {"time": 3361, "pitch": 56, "duration": 2, "velocity": 117}, {"time": 3364, "pitch": 66, "duration": 6, "velocity": 122}, {"time": 3373, "pitch": 66, "duration": 2, "velocity": 122}, {"time": 3376, "pitch": 66, "duration": 4, "velocity": 112}, {"time": 3382, "pitch": 64, "duration": 4, "velocity": 88}, {"time": 3388, "pitch": 66, "duration": 7, "velocity": 122}, {"time": 3400, "pitch": 64, "duration": 4, "velocity": 107}, {"time": 3406, "pitch": 61, "duration": 5, "velocity": 107}, {"time": 3412, "pitch": 63, "duration": 24, "velocity": 127}, {"time": 3460, "pitch": 61, "duration": 2, "velocity": 127}, {"time": 3466, "pitch": 61, "duration": 3, "velocity": 112}, {"time": 3472, "pitch": 61, "duration": 3, "velocity": 122}, {"time": 3478, "pitch": 61, "duration": 2, "velocity": 112}, {"time": 3481, "pitch": 64, "duration": 2, "velocity": 95}, {"time": 3484, "pitch": 64, "duration": 15, "velocity": 102}, {"time": 3508, "pitch": 68, "duration": 10, "velocity": 127}, {"time": 3520, "pitch": 71, "duration": 5, "velocity": 99}, {"time": 3526, "pitch": 66, "duration": 5, "velocity": 117}, {"time": 3532, "pitch": 64, "duration": 12, "velocity": 112}, {"time": 3556, "pitch": 59, "duration": 4, "velocity": 107}, {"time": 3562, "pitch": 59, "duration": 4, "velocity": 97}, {"time": 3568, "pitch": 59, "duration": 3, "velocity": 100}, {"time": 3574, "pitch": 59, "duration": 3, "velocity": 99}, {"time": 3577, "pitch": 61, "duration": 2, "velocity": 102}, {"time": 3580, "pitch": 63, "duration": 8, "velocity": 127}, {"time": 3592, "pitch": 66, "duration": 6, "velocity": 127}, {"time": 3598, "pitch": 59, "duration": 3, "velocity": 96}, {"time": 3601, "pitch": 61, "duration": 2, "velocity": 100}, {"time": 3604, "pitch": 61, "duration": 40, "velocity": 127}, {"time": 3652, "pitch": 68, "duration": 5, "velocity": 127}, {"time": 3661, "pitch": 68, "duration": 1, "velocity": 127}, {"time": 3664, "pitch": 68, "duration": 5, "velocity": 127}, {"time": 3670, "pitch": 68, "duration": 2, "velocity": 122}, {"time": 3676, "pitch": 71, "duration": 4, "velocity": 117}, {"time": 3682, "pitch": 68, "duration": 1, "velocity": 127}, {"time": 3685, "pitch": 68, "duration": 3, "velocity": 127}, {"time": 3694, "pitch": 64, "duration": 3, "velocity": 117}, {"time": 3697, "pitch": 66, "duration": 2, "velocity": 107}, {"time": 3700, "pitch": 66, "duration": 31, "velocity": 127}, {"time": 3745, "pitch": 56, "duration": 2, "velocity": 117}, {"time": 3748, "pitch": 66, "duration": 6, "velocity": 122}, {"time": 3757, "pitch": 66, "duration": 2, "velocity": 122}, {"time": 3760, "pitch": 66, "duration": 4, "velocity": 112}, {"time": 3766, "pitch": 64, "duration": 4, "velocity": 88}, {"time": 3772, "pitch": 66, "duration": 7, "velocity": 122}, {"time": 3784, "pitch": 64, "duration": 4, "velocity": 107}, {"time": 3790, "pitch": 61, "duration": 5, "velocity": 107}, {"time": 3796, "pitch": 63, "duration": 24, "velocity": 127}, {"time": 3844, "pitch": 61, "duration": 2, "velocity": 127}, {"time": 3850, "pitch": 61, "duration": 3, "velocity": 112}, {"time": 3856, "pitch": 61, "duration": 3, "velocity": 122}, {"time": 3862, "pitch": 61, "duration": 2, "velocity": 112}, {"time": 3865, "pitch": 64, "duration": 2, "velocity": 95}, {"time": 3868, "pitch": 64, "duration": 15, "velocity": 102}, {"time": 3892, "pitch": 68, "duration": 10, "velocity": 127}, {"time": 3904, "pitch": 71, "duration": 5, "velocity": 99}, {"time": 3910, "pitch": 66, "duration": 5, "velocity": 117}, {"time": 3916, "pitch": 64, "duration": 12, "velocity": 112}, {"time": 3940, "pitch": 59, "duration": 4, "velocity": 107}, {"time": 3946, "pitch": 59, "duration": 4, "velocity": 97}, {"time": 3952, "pitch": 59, "duration": 3, "velocity": 100}, {"time": 3958, "pitch": 59, "duration": 3, "velocity": 99}, {"time": 3961, "pitch": 61, "duration": 2, "velocity": 102}, {"time": 3964, "pitch": 63, "duration": 8, "velocity": 127}, {"time": 3976, "pitch": 66, "duration": 6, "velocity": 127}, {"time": 3982, "pitch": 59, "duration": 3, "velocity": 96}, {"time": 3985, "pitch": 61, "duration": 2, "velocity": 100}, {"time": 3988, "pitch": 61, "duration": 40, "velocity": 127}, {"time": 4036, "pitch": 68, "duration": 5, "velocity": 127}, {"time": 4045, "pitch": 68, "duration": 1, "velocity": 127}, {"time": 4048, "pitch": 68, "duration": 5, "velocity": 127}, {"time": 4054, "pitch": 68, "duration": 2, "velocity": 122}, {"time": 4060, "pitch": 71, "duration": 4, "velocity": 117}, {"time": 4066, "pitch": 68, "duration": 1, "velocity": 127}, {"time": 4069, "pitch": 68, "duration": 3, "velocity": 127}, {"time": 4078, "pitch": 64, "duration": 3, "velocity": 117}, {"time": 4081, "pitch": 66, "duration": 2, "velocity": 107}, {"time": 4084, "pitch": 66, "duration": 31, "velocity": 127}, {"time": 4129, "pitch": 56, "duration": 3, "velocity": 76}, {"time": 4132, "pitch": 71, "duration": 7, "velocity": 127}, {"time": 4141, "pitch": 71, "duration": 2, "velocity": 112}, {"time": 4144, "pitch": 71, "duration": 3, "velocity": 112}, {"time": 4150, "pitch": 71, "duration": 4, "velocity": 127}, {"time": 4156, "pitch": 71, "duration": 4, "velocity": 127}, {"time": 4168, "pitch": 66, "duration": 2, "velocity": 127}, {"time": 4171, "pitch": 64, "duration": 2, "velocity": 93}, {"time": 4174, "pitch": 64, "duration": 6, "velocity": 112}, {"time": 4180, "pitch": 68, "duration": 34, "velocity": 122}, {"time": 4228, "pitch": 61, "duration": 2, "velocity": 127}, {"time": 4234, "pitch": 61, "duration": 3, "velocity": 112}, {"time": 4240, "pitch": 61, "duration": 3, "velocity": 122}, {"time": 4246, "pitch": 61, "duration": 2, "velocity": 112}, {"time": 4249, "pitch": 64, "duration": 2, "velocity": 95}, {"time": 4252, "pitch": 64, "duration": 15, "velocity": 102}, {"time": 4276, "pitch": 68, "duration": 10, "velocity": 127}, {"time": 4288, "pitch": 71, "duration": 5, "velocity": 99}, {"time": 4294, "pitch": 66, "duration": 5, "velocity": 117}, {"time": 4300, "pitch": 64, "duration": 12, "velocity": 112}, {"time": 4324, "pitch": 59, "duration": 4, "velocity": 107}, {"time": 4330, "pitch": 59, "duration": 4, "velocity": 97}, {"time": 4336, "pitch": 59, "duration": 3, "velocity": 100}, {"time": 4342, "pitch": 59, "duration": 3, "velocity": 99}, {"time": 4345, "pitch": 61, "duration": 2, "velocity": 102}, {"time": 4348, "pitch": 63, "duration": 8, "velocity": 127}, {"time": 4360, "pitch": 66, "duration": 6, "velocity": 127}, {"time": 4366, "pitch": 59, "duration": 3, "velocity": 96}, {"time": 4369, "pitch": 61, "duration": 2, "velocity": 100}, {"time": 4372, "pitch": 61, "duration": 37, "velocity": 117}]}, {"program": 0, "is_drum": false, "name": "PIANO", "notes": [{"time": 40, "pitch": 37, "duration": 36, "velocity": 44}, {"time": 40, "pitch": 49, "duration": 36, "velocity": 40}, {"time": 40, "pitch": 61, "duration": 36, "velocity": 44}, {"time": 40, "pitch": 64, "duration": 36, "velocity": 52}, {"time": 40, "pitch": 68, "duration": 36, "velocity": 44}, {"time": 76, "pitch": 37, "duration": 15, "velocity": 39}, {"time": 76, "pitch": 49, "duration": 18, "velocity": 53}, {"time": 76, "pitch": 61, "duration": 20, "velocity": 53}, {"time": 76, "pitch": 64, "duration": 19, "velocity": 65}, {"time": 76, "pitch": 68, "duration": 20, "velocity": 64}, {"time": 100, "pitch": 37, "duration": 36, "velocity": 89}, {"time": 106, "pitch": 44, "duration": 30, "velocity": 38}, {"time": 112, "pitch": 49, "duration": 16, "velocity": 82}, {"time": 118, "pitch": 61, "duration": 19, "velocity": 73}, {"time": 124, "pitch": 68, "duration": 24, "velocity": 93}, {"time": 130, "pitch": 49, "duration": 8, "velocity": 53}, {"time": 136, "pitch": 64, "duration": 11, "velocity": 74}, {"time": 142, "pitch": 61, "duration": 7, "velocity": 44}, {"time": 148, "pitch": 42, "duration": 34, "velocity": 56}, {"time": 154, "pitch": 49, "duration": 27, "velocity": 65}, {"time": 160, "pitch": 54, "duration": 15, "velocity": 86}, {"time": 166, "pitch": 57, "duration": 20, "velocity": 63}, {"time": 172, "pitch": 66, "duration": 26, "velocity": 96}, {"time": 178, "pitch": 54, "duration": 7, "velocity": 53}, {"time": 184, "pitch": 61, "duration": 15, "velocity": 69}, {"time": 190, "pitch": 57, "duration": 7, "velocity": 42}, {"time": 196, "pitch": 47, "duration": 35, "velocity": 68}, {"time": 202, "pitch": 54, "duration": 22, "velocity": 65}, {"time": 208, "pitch": 59, "duration": 14, "velocity": 88}, {"time": 214, "pitch": 63, "duration": 8, "velocity": 81}, {"time": 220, "pitch": 66, "duration": 21, "velocity": 97}, {"time": 226, "pitch": 54, "duration": 5, "velocity": 54}, {"time": 232, "pitch": 63, "duration": 13, "velocity": 88}, {"time": 238, "pitch": 59, "duration": 7, "velocity": 66}, {"time": 244, "pitch": 44, "duration": 40, "velocity": 82}, {"time": 250, "pitch": 51, "duration": 33, "velocity": 40}, {"time": 256, "pitch": 56, "duration": 14, "velocity": 73}, {"time": 262, "pitch": 60, "duration": 13, "velocity": 56}, {"time": 268, "pitch": 68, "duration": 25, "velocity": 112}, {"time": 274, "pitch": 56, "duration": 6, "velocity": 90}, {"time": 280, "pitch": 63, "duration": 13, "velocity": 127}, {"time": 286, "pitch": 60, "duration": 7, "velocity": 82}, {"time": 292, "pitch": 37, "duration": 41, "velocity": 73}, {"time": 298, "pitch": 44, "duration": 34, "velocity": 45}, {"time": 301, "pitch": 49, "duration": 5, "velocity": 71}, {"time": 304, "pitch": 56, "duration": 11, "velocity": 96}, {"time": 310, "pitch": 49, "duration": 7, "velocity": 61}, {"time": 313, "pitch": 52, "duration": 5, "velocity": 49}, {"time": 316, "pitch": 61, "duration": 10, "velocity": 96}, {"time": 319, "pitch": 49, "duration": 5, "velocity": 88}, {"time": 322, "pitch": 52, "duration": 9, "velocity": 75}, {"time": 325, "pitch": 49, "duration": 4, "velocity": 63}, {"time": 328, "pitch": 61, "duration": 12, "velocity": 75}, {"time": 331, "pitch": 49, "duration": 4, "velocity": 78}, {"time": 334, "pitch": 52, "duration": 5, "velocity": 72}, {"time": 337, "pitch": 56, "duration": 3, "velocity": 89}, {"time": 340, "pitch": 42, "duration": 22, "velocity": 50}, {"time": 343, "pitch": 49, "duration": 21, "velocity": 52}, {"time": 346, "pitch": 54, "duration": 7, "velocity": 90}, {"time": 349, "pitch": 57, "duration": 6, "velocity": 69}, {"time": 352, "pitch": 66, "duration": 14, "velocity": 107}, {"time": 355, "pitch": 54, "duration": 11, "velocity": 79}, {"time": 358, "pitch": 61, "duration": 9, "velocity": 81}, {"time": 361, "pitch": 57, "duration": 9, "velocity": 77}, {"time": 364, "pitch": 42, "duration": 16, "velocity": 40}, {"time": 367, "pitch": 49, "duration": 13, "velocity": 47}, {"time": 370, "pitch": 54, "duration": 7, "velocity": 90}, {"time": 373, "pitch": 57, "duration": 5, "velocity": 82}, {"time": 376, "pitch": 66, "duration": 11, "velocity": 102}, {"time": 379, "pitch": 54, "duration": 3, "velocity": 93}, {"time": 382, "pitch": 61, "duration": 5, "velocity": 81}, {"time": 385, "pitch": 57, "duration": 3, "velocity": 92}, {"time": 388, "pitch": 47, "duration": 22, "velocity": 53}, {"time": 391, "pitch": 54, "duration": 11, "velocity": 53}, {"time": 394, "pitch": 59, "duration": 7, "velocity": 79}, {"time": 397, "pitch": 63, "duration": 4, "velocity": 88}, {"time": 400, "pitch": 66, "duration": 9, "velocity": 97}, {"time": 403, "pitch": 54, "duration": 9, "velocity": 85}, {"time": 406, "pitch": 63, "duration": 7, "velocity": 107}, {"time": 409, "pitch": 59, "duration": 7, "velocity": 92}, {"time": 412, "pitch": 47, "duration": 10, "velocity": 69}, {"time": 415, "pitch": 54, "duration": 5, "velocity": 92}, {"time": 418, "pitch": 59, "duration": 6, "velocity": 74}, {"time": 421, "pitch": 63, "duration": 4, "velocity": 97}, {"time": 424, "pitch": 66, "duration": 13, "velocity": 99}, {"time": 427, "pitch": 63, "duration": 3, "velocity": 92}, {"time": 430, "pitch": 59, "duration": 6, "velocity": 83}, {"time": 433, "pitch": 63, "duration": 3, "velocity": 100}, {"time": 436, "pitch": 37, "duration": 21, "velocity": 66}, {"time": 439, "pitch": 44, "duration": 20, "velocity": 59}, {"time": 442, "pitch": 49, "duration": 7, "velocity": 66}, {"time": 445, "pitch": 52, "duration": 6, "velocity": 72}, {"time": 448, "pitch": 61, "duration": 10, "velocity": 97}, {"time": 451, "pitch": 49, "duration": 8, "velocity": 71}, {"time": 454, "pitch": 56, "duration": 4, "velocity": 90}, {"time": 457, "pitch": 52, "duration": 3, "velocity": 78}, {"time": 460, "pitch": 37, "duration": 24, "velocity": 67}, {"time": 460, "pitch": 49, "duration": 24, "velocity": 58}, {"time": 460, "pitch": 56, "duration": 24, "velocity": 63}, {"time": 460, "pitch": 61, "duration": 23, "velocity": 57}, {"time": 460, "pitch": 64, "duration": 24, "velocity": 70}, {"time": 484, "pitch": 37, "duration": 46, "velocity": 66}, {"time": 490, "pitch": 44, "duration": 41, "velocity": 43}, {"time": 496, "pitch": 49, "duration": 15, "velocity": 82}, {"time": 502, "pitch": 56, "duration": 8, "velocity": 59}, {"time": 508, "pitch": 61, "duration": 41, "velocity": 61}, {"time": 508, "pitch": 64, "duration": 44, "velocity": 66}, {"time": 514, "pitch": 49, "duration": 18, "velocity": 41}, {"time": 520, "pitch": 56, "duration": 19, "velocity": 70}, {"time": 532, "pitch": 37, "duration": 45, "velocity": 77}, {"time": 538, "pitch": 44, "duration": 42, "velocity": 37}, {"time": 544, "pitch": 49, "duration": 15, "velocity": 69}, {"time": 550, "pitch": 56, "duration": 46, "velocity": 58}, {"time": 556, "pitch": 64, "duration": 27, "velocity": 69}, {"time": 562, "pitch": 49, "duration": 9, "velocity": 40}, {"time": 568, "pitch": 63, "duration": 26, "velocity": 76}, {"time": 574, "pitch": 49, "duration": 8, "velocity": 36}, {"time": 580, "pitch": 37, "duration": 37, "velocity": 92}, {"time": 586, "pitch": 44, "duration": 31, "velocity": 39}, {"time": 592, "pitch": 49, "duration": 15, "velocity": 77}, {"time": 598, "pitch": 56, "duration": 29, "velocity": 76}, {"time": 604, "pitch": 64, "duration": 19, "velocity": 77}, {"time": 610, "pitch": 49, "duration": 11, "velocity": 38}, {"time": 616, "pitch": 63, "duration": 9, "velocity": 67}, {"time": 622, "pitch": 61, "duration": 6, "velocity": 63}, {"time": 628, "pitch": 44, "duration": 38, "velocity": 70}, {"time": 634, "pitch": 51, "duration": 31, "velocity": 45}, {"time": 640, "pitch": 56, "duration": 16, "velocity": 77}, {"time": 646, "pitch": 60, "duration": 8, "velocity": 76}, {"time": 652, "pitch": 63, "duration": 14, "velocity": 73}, {"time": 652, "pitch": 68, "duration": 25, "velocity": 75}, {"time": 658, "pitch": 56, "duration": 6, "velocity": 61}, {"time": 664, "pitch": 60, "duration": 13, "velocity": 79}, {"time": 670, "pitch": 63, "duration": 7, "velocity": 62}, {"time": 676, "pitch": 42, "duration": 34, "velocity": 75}, {"time": 682, "pitch": 49, "duration": 28, "velocity": 53}, {"time": 688, "pitch": 54, "duration": 14, "velocity": 77}, {"time": 694, "pitch": 57, "duration": 8, "velocity": 69}, {"time": 700, "pitch": 61, "duration": 15, "velocity": 72}, {"time": 700, "pitch": 66, "duration": 26, "velocity": 97}, {"time": 706, "pitch": 54, "duration": 3, "velocity": 58}, {"time": 712, "pitch": 57, "duration": 13, "velocity": 85}, {"time": 718, "pitch": 61, "duration": 7, "velocity": 81}, {"time": 724, "pitch": 37, "duration": 18, "velocity": 82}, {"time": 730, "pitch": 44, "duration": 12, "velocity": 39}, {"time": 736, "pitch": 49, "duration": 8, "velocity": 76}, {"time": 742, "pitch": 56, "duration": 7, "velocity": 88}, {"time": 748, "pitch": 42, "duration": 14, "velocity": 69}, {"time": 754, "pitch": 54, "duration": 9, "velocity": 78}, {"time": 760, "pitch": 61, "duration": 12, "velocity": 86}, {"time": 760, "pitch": 66, "duration": 12, "velocity": 88}, {"time": 766, "pitch": 57, "duration": 7, "velocity": 72}, {"time": 772, "pitch": 47, "duration": 13, "velocity": 70}, {"time": 778, "pitch": 54, "duration": 7, "velocity": 48}, {"time": 784, "pitch": 63, "duration": 13, "velocity": 83}, {"time": 784, "pitch": 66, "duration": 13, "velocity": 92}, {"time": 790, "pitch": 59, "duration": 7, "velocity": 67}, {"time": 796, "pitch": 44, "duration": 16, "velocity": 50}, {"time": 802, "pitch": 51, "duration": 10, "velocity": 60}, {"time": 808, "pitch": 56, "duration": 3, "velocity": 53}, {"time": 808, "pitch": 63, "duration": 12, "velocity": 66}, {"time": 808, "pitch": 68, "duration": 13, "velocity": 76}, {"time": 814, "pitch": 59, "duration": 6, "velocity": 76}, {"time": 820, "pitch": 37, "duration": 39, "velocity": 76}, {"time": 826, "pitch": 44, "duration": 36, "velocity": 56}, {"time": 832, "pitch": 49, "duration": 14, "velocity": 85}, {"time": 838, "pitch": 56, "duration": 10, "velocity": 69}, {"time": 844, "pitch": 61, "duration": 25, "velocity": 64}, {"time": 844, "pitch": 64, "duration": 25, "velocity": 70}, {"time": 850, "pitch": 49, "duration": 12, "velocity": 49}, {"time": 856, "pitch": 56, "duration": 12, "velocity": 72}, {"time": 868, "pitch": 37, "duration": 46, "velocity": 66}, {"time": 874, "pitch": 44, "duration": 41, "velocity": 43}, {"time": 880, "pitch": 49, "duration": 15, "velocity": 82}, {"time": 886, "pitch": 56, "duration": 8, "velocity": 59}, {"time": 892, "pitch": 61, "duration": 41, "velocity": 61}, {"time": 892, "pitch": 64, "duration": 44, "velocity": 66}, {"time": 898, "pitch": 49, "duration": 18, "velocity": 41}, {"time": 904, "pitch": 56, "duration": 19, "velocity": 70}, {"time": 916, "pitch": 37, "duration": 45, "velocity": 77}, {"time": 922, "pitch": 44, "duration": 42, "velocity": 37}, {"time": 928, "pitch": 49, "duration": 15, "velocity": 69}, {"time": 934, "pitch": 56, "duration": 46, "velocity": 58}, {"time": 940, "pitch": 64, "duration": 27, "velocity": 69}, {"time": 946, "pitch": 49, "duration": 9, "velocity": 40}, {"time": 952, "pitch": 63, "duration": 26, "velocity": 76}, {"time": 958, "pitch": 49, "duration": 8, "velocity": 36}, {"time": 964, "pitch": 37, "duration": 37, "velocity": 92}, {"time": 970, "pitch": 44, "duration": 31, "velocity": 39}, {"time": 976, "pitch": 49, "duration": 15, "velocity": 77}, {"time": 982, "pitch": 56, "duration": 29, "velocity": 76}, {"time": 988, "pitch": 64, "duration": 19, "velocity": 77}, {"time": 994, "pitch": 49, "duration": 11, "velocity": 38}, {"time": 1000, "pitch": 63, "duration": 9, "velocity": 67}, {"time": 1006, "pitch": 61, "duration": 6, "velocity": 63}, {"time": 1012, "pitch": 44, "duration": 38, "velocity": 70}, {"time": 1018, "pitch": 51, "duration": 31, "velocity": 45}, {"time": 1024, "pitch": 56, "duration": 16, "velocity": 77}, {"time": 1030, "pitch": 60, "duration": 8, "velocity": 76}, {"time": 1036, "pitch": 63, "duration": 14, "velocity": 73}, {"time": 1036, "pitch": 68, "duration": 25, "velocity": 75}, {"time": 1042, "pitch": 56, "duration": 6, "velocity": 61}, {"time": 1048, "pitch": 60, "duration": 13, "velocity": 79}, {"time": 1054, "pitch": 63, "duration": 7, "velocity": 62}, {"time": 1060, "pitch": 42, "duration": 34, "velocity": 75}, {"time": 1066, "pitch": 49, "duration": 28, "velocity": 53}, {"time": 1072, "pitch": 54, "duration": 14, "velocity": 77}, {"time": 1078, "pitch": 57, "duration": 8, "velocity": 69}, {"time": 1084, "pitch": 61, "duration": 15, "velocity": 72}, {"time": 1084, "pitch": 66, "duration": 26, "velocity": 97}, {"time": 1090, "pitch": 54, "duration": 3, "velocity": 58}, {"time": 1096, "pitch": 57, "duration": 13, "velocity": 85}, {"time": 1102, "pitch": 61, "duration": 7, "velocity": 81}, {"time": 1108, "pitch": 37, "duration": 18, "velocity": 82}, {"time": 1114, "pitch": 44, "duration": 12, "velocity": 39}, {"time": 1120, "pitch": 49, "duration": 8, "velocity": 76}, {"time": 1126, "pitch": 56, "duration": 7, "velocity": 88}, {"time": 1132, "pitch": 42, "duration": 14, "velocity": 69}, {"time": 1138, "pitch": 54, "duration": 9, "velocity": 78}, {"time": 1144, "pitch": 61, "duration": 12, "velocity": 86}, {"time": 1144, "pitch": 66, "duration": 12, "velocity": 88}, {"time": 1150, "pitch": 57, "duration": 7, "velocity": 72}, {"time": 1156, "pitch": 47, "duration": 13, "velocity": 70}, {"time": 1162, "pitch": 54, "duration": 7, "velocity": 48}, {"time": 1168, "pitch": 63, "duration": 13, "velocity": 83}, {"time": 1168, "pitch": 66, "duration": 13, "velocity": 92}, {"time": 1174, "pitch": 59, "duration": 7, "velocity": 67}, {"time": 1180, "pitch": 44, "duration": 16, "velocity": 50}, {"time": 1186, "pitch": 51, "duration": 10, "velocity": 60}, {"time": 1192, "pitch": 56, "duration": 3, "velocity": 53}, {"time": 1192, "pitch": 63, "duration": 12, "velocity": 66}, {"time": 1192, "pitch": 68, "duration": 13, "velocity": 76}, {"time": 1198, "pitch": 59, "duration": 6, "velocity": 76}, {"time": 1204, "pitch": 37, "duration": 39, "velocity": 76}, {"time": 1210, "pitch": 44, "duration": 36, "velocity": 56}, {"time": 1216, "pitch": 49, "duration": 14, "velocity": 85}, {"time": 1222, "pitch": 56, "duration": 10, "velocity": 69}, {"time": 1228, "pitch": 61, "duration": 25, "velocity": 64}, {"time": 1228, "pitch": 64, "duration": 25, "velocity": 70}, {"time": 1234, "pitch": 49, "duration": 12, "velocity": 49}, {"time": 1240, "pitch": 56, "duration": 12, "velocity": 72}, {"time": 1252, "pitch": 37, "duration": 21, "velocity": 88}, {"time": 1255, "pitch": 44, "duration": 21, "velocity": 32}, {"time": 1258, "pitch": 49, "duration": 8, "velocity": 82}, {"time": 1261, "pitch": 52, "duration": 5, "velocity": 63}, {"time": 1264, "pitch": 56, "duration": 8, "velocity": 112}, {"time": 1267, "pitch": 49, "duration": 10, "velocity": 59}, {"time": 1270, "pitch": 52, "duration": 8, "velocity": 67}, {"time": 1273, "pitch": 56, "duration": 4, "velocity": 89}, {"time": 1273, "pitch": 61, "duration": 4, "velocity": 99}, {"time": 1279, "pitch": 52, "duration": 2, "velocity": 74}, {"time": 1279, "pitch": 56, "duration": 2, "velocity": 95}, {"time": 1279, "pitch": 61, "duration": 2, "velocity": 100}, {"time": 1282, "pitch": 49, "duration": 5, "velocity": 35}, {"time": 1285, "pitch": 37, "duration": 12, "velocity": 33}, {"time": 1285, "pitch": 44, "duration": 13, "velocity": 37}, {"time": 1288, "pitch": 56, "duration": 5, "velocity": 127}, {"time": 1288, "pitch": 61, "duration": 5, "velocity": 127}, {"time": 1291, "pitch": 49, "duration": 8, "velocity": 93}, {"time": 1294, "pitch": 52, "duration": 4, "velocity": 96}, {"time": 1297, "pitch": 56, "duration": 2, "velocity": 127}, {"time": 1300, "pitch": 37, "duration": 22, "velocity": 97}, {"time": 1303, "pitch": 44, "duration": 20, "velocity": 79}, {"time": 1306, "pitch": 49, "duration": 7, "velocity": 102}, {"time": 1309, "pitch": 52, "duration": 5, "velocity": 89}, {"time": 1312, "pitch": 61, "duration": 12, "velocity": 117}, {"time": 1315, "pitch": 49, "duration": 9, "velocity": 82}, {"time": 1318, "pitch": 56, "duration": 6, "velocity": 89}, {"time": 1321, "pitch": 52, "duration": 3, "velocity": 95}, {"time": 1324, "pitch": 37, "duration": 13, "velocity": 77}, {"time": 1327, "pitch": 44, "duration": 10, "velocity": 68}, {"time": 1330, "pitch": 49, "duration": 9, "velocity": 97}, {"time": 1333, "pitch": 61, "duration": 5, "velocity": 93}, {"time": 1336, "pitch": 68, "duration": 10, "velocity": 127}, {"time": 1339, "pitch": 61, "duration": 4, "velocity": 81}, {"time": 1342, "pitch": 64, "duration": 4, "velocity": 65}, {"time": 1345, "pitch": 61, "duration": 3, "velocity": 117}, {"time": 1348, "pitch": 42, "duration": 21, "velocity": 83}, {"time": 1351, "pitch": 49, "duration": 19, "velocity": 34}, {"time": 1354, "pitch": 54, "duration": 7, "velocity": 92}, {"time": 1357, "pitch": 57, "duration": 6, "velocity": 82}, {"time": 1360, "pitch": 66, "duration": 11, "velocity": 117}, {"time": 1363, "pitch": 54, "duration": 9, "velocity": 89}, {"time": 1366, "pitch": 61, "duration": 5, "velocity": 102}, {"time": 1369, "pitch": 57, "duration": 2, "velocity": 96}, {"time": 1372, "pitch": 42, "duration": 16, "velocity": 85}, {"time": 1375, "pitch": 49, "duration": 13, "velocity": 37}, {"time": 1378, "pitch": 54, "duration": 7, "velocity": 93}, {"time": 1381, "pitch": 66, "duration": 5, "velocity": 100}, {"time": 1384, "pitch": 73, "duration": 10, "velocity": 127}, {"time": 1387, "pitch": 54, "duration": 2, "velocity": 90}, {"time": 1390, "pitch": 69, "duration": 4, "velocity": 71}, {"time": 1393, "pitch": 66, "duration": 3, "velocity": 92}, {"time": 1396, "pitch": 47, "duration": 22, "velocity": 68}, {"time": 1399, "pitch": 54, "duration": 11, "velocity": 90}, {"time": 1402, "pitch": 59, "duration": 8, "velocity": 79}, {"time": 1405, "pitch": 63, "duration": 11, "velocity": 102}, {"time": 1408, "pitch": 66, "duration": 12, "velocity": 102}, {"time": 1411, "pitch": 54, "duration": 8, "velocity": 86}, {"time": 1414, "pitch": 59, "duration": 6, "velocity": 90}, {"time": 1417, "pitch": 63, "duration": 3, "velocity": 107}, {"time": 1420, "pitch": 47, "duration": 16, "velocity": 83}, {"time": 1423, "pitch": 54, "duration": 12, "velocity": 82}, {"time": 1426, "pitch": 59, "duration": 7, "velocity": 89}, {"time": 1429, "pitch": 71, "duration": 5, "velocity": 92}, {"time": 1432, "pitch": 78, "duration": 12, "velocity": 127}, {"time": 1435, "pitch": 75, "duration": 3, "velocity": 102}, {"time": 1438, "pitch": 71, "duration": 5, "velocity": 89}, {"time": 1441, "pitch": 75, "duration": 3, "velocity": 107}, {"time": 1444, "pitch": 44, "duration": 22, "velocity": 65}, {"time": 1447, "pitch": 51, "duration": 21, "velocity": 73}, {"time": 1450, "pitch": 56, "duration": 7, "velocity": 93}, {"time": 1453, "pitch": 60, "duration": 4, "velocity": 92}, {"time": 1456, "pitch": 63, "duration": 6, "velocity": 122}, {"time": 1459, "pitch": 56, "duration": 11, "velocity": 100}, {"time": 1462, "pitch": 60, "duration": 7, "velocity": 79}, {"time": 1465, "pitch": 68, "duration": 5, "velocity": 112}, {"time": 1468, "pitch": 44, "duration": 17, "velocity": 86}, {"time": 1471, "pitch": 51, "duration": 14, "velocity": 92}, {"time": 1474, "pitch": 56, "duration": 7, "velocity": 97}, {"time": 1477, "pitch": 68, "duration": 5, "velocity": 79}, {"time": 1480, "pitch": 75, "duration": 11, "velocity": 127}, {"time": 1483, "pitch": 56, "duration": 3, "velocity": 95}, {"time": 1486, "pitch": 72, "duration": 3, "velocity": 71}, {"time": 1489, "pitch": 68, "duration": 3, "velocity": 99}, {"time": 1492, "pitch": 49, "duration": 17, "velocity": 86}, {"time": 1495, "pitch": 52, "duration": 13, "velocity": 38}, {"time": 1498, "pitch": 56, "duration": 7, "velocity": 82}, {"time": 1501, "pitch": 61, "duration": 5, "velocity": 73}, {"time": 1504, "pitch": 68, "duration": 10, "velocity": 117}, {"time": 1507, "pitch": 56, "duration": 2, "velocity": 90}, {"time": 1510, "pitch": 61, "duration": 4, "velocity": 97}, {"time": 1513, "pitch": 64, "duration": 3, "velocity": 63}, {"time": 1516, "pitch": 42, "duration": 16, "velocity": 89}, {"time": 1519, "pitch": 49, "duration": 12, "velocity": 56}, {"time": 1522, "pitch": 54, "duration": 6, "velocity": 78}, {"time": 1525, "pitch": 57, "duration": 5, "velocity": 86}, {"time": 1528, "pitch": 66, "duration": 11, "velocity": 122}, {"time": 1531, "pitch": 54, "duration": 3, "velocity": 90}, {"time": 1534, "pitch": 61, "duration": 5, "velocity": 112}, {"time": 1537, "pitch": 57, "duration": 3, "velocity": 95}, {"time": 1540, "pitch": 44, "duration": 20, "velocity": 61}, {"time": 1543, "pitch": 51, "duration": 15, "velocity": 63}, {"time": 1546, "pitch": 56, "duration": 7, "velocity": 85}, {"time": 1549, "pitch": 59, "duration": 6, "velocity": 76}, {"time": 1552, "pitch": 68, "duration": 10, "velocity": 112}, {"time": 1555, "pitch": 56, "duration": 3, "velocity": 92}, {"time": 1558, "pitch": 63, "duration": 4, "velocity": 107}, {"time": 1561, "pitch": 59, "duration": 2, "velocity": 96}, {"time": 1564, "pitch": 40, "duration": 17, "velocity": 77}, {"time": 1567, "pitch": 47, "duration": 14, "velocity": 58}, {"time": 1570, "pitch": 52, "duration": 7, "velocity": 83}, {"time": 1573, "pitch": 59, "duration": 6, "velocity": 82}, {"time": 1576, "pitch": 68, "duration": 10, "velocity": 112}, {"time": 1579, "pitch": 52, "duration": 3, "velocity": 76}, {"time": 1582, "pitch": 64, "duration": 4, "velocity": 95}, {"time": 1585, "pitch": 59, "duration": 4, "velocity": 85}, {"time": 1588, "pitch": 47, "duration": 16, "velocity": 76}, {"time": 1591, "pitch": 54, "duration": 10, "velocity": 81}, {"time": 1594, "pitch": 59, "duration": 6, "velocity": 79}, {"time": 1597, "pitch": 63, "duration": 3, "velocity": 107}, {"time": 1600, "pitch": 66, "duration": 11, "velocity": 112}, {"time": 1603, "pitch": 54, "duration": 3, "velocity": 78}, {"time": 1606, "pitch": 63, "duration": 5, "velocity": 117}, {"time": 1609, "pitch": 59, "duration": 3, "velocity": 97}, {"time": 1612, "pitch": 44, "duration": 17, "velocity": 69}, {"time": 1615, "pitch": 56, "duration": 10, "velocity": 99}, {"time": 1618, "pitch": 59, "duration": 6, "velocity": 85}, {"time": 1621, "pitch": 63, "duration": 3, "velocity": 117}, {"time": 1624, "pitch": 68, "duration": 11, "velocity": 107}, {"time": 1627, "pitch": 56, "duration": 3, "velocity": 93}, {"time": 1630, "pitch": 59, "duration": 5, "velocity": 97}, {"time": 1633, "pitch": 63, "duration": 2, "velocity": 117}, {"time": 1636, "pitch": 49, "duration": 18, "velocity": 92}, {"time": 1639, "pitch": 52, "duration": 14, "velocity": 66}, {"time": 1642, "pitch": 56, "duration": 6, "velocity": 88}, {"time": 1645, "pitch": 61, "duration": 5, "velocity": 89}, {"time": 1648, "pitch": 68, "duration": 10, "velocity": 112}, {"time": 1651, "pitch": 56, "duration": 2, "velocity": 99}, {"time": 1654, "pitch": 64, "duration": 3, "velocity": 83}, {"time": 1657, "pitch": 37, "duration": 1, "velocity": 50}, {"time": 1657, "pitch": 61, "duration": 5, "velocity": 107}, {"time": 1660, "pitch": 37, "duration": 22, "velocity": 122}, {"time": 1663, "pitch": 49, "duration": 10, "velocity": 99}, {"time": 1666, "pitch": 61, "duration": 8, "velocity": 99}, {"time": 1669, "pitch": 64, "duration": 2, "velocity": 73}, {"time": 1672, "pitch": 68, "duration": 11, "velocity": 127}, {"time": 1675, "pitch": 49, "duration": 6, "velocity": 97}, {"time": 1678, "pitch": 64, "duration": 4, "velocity": 85}, {"time": 1681, "pitch": 61, "duration": 3, "velocity": 117}, {"time": 1684, "pitch": 37, "duration": 22, "velocity": 97}, {"time": 1687, "pitch": 44, "duration": 20, "velocity": 79}, {"time": 1690, "pitch": 49, "duration": 7, "velocity": 102}, {"time": 1693, "pitch": 52, "duration": 5, "velocity": 89}, {"time": 1696, "pitch": 61, "duration": 12, "velocity": 117}, {"time": 1699, "pitch": 49, "duration": 9, "velocity": 82}, {"time": 1702, "pitch": 56, "duration": 6, "velocity": 89}, {"time": 1705, "pitch": 52, "duration": 3, "velocity": 95}, {"time": 1708, "pitch": 37, "duration": 13, "velocity": 77}, {"time": 1711, "pitch": 44, "duration": 10, "velocity": 68}, {"time": 1714, "pitch": 49, "duration": 9, "velocity": 97}, {"time": 1717, "pitch": 61, "duration": 5, "velocity": 93}, {"time": 1720, "pitch": 68, "duration": 10, "velocity": 127}, {"time": 1723, "pitch": 61, "duration": 4, "velocity": 81}, {"time": 1726, "pitch": 64, "duration": 4, "velocity": 65}, {"time": 1729, "pitch": 61, "duration": 3, "velocity": 117}, {"time": 1732, "pitch": 42, "duration": 21, "velocity": 83}, {"time": 1735, "pitch": 49, "duration": 19, "velocity": 34}, {"time": 1738, "pitch": 54, "duration": 7, "velocity": 92}, {"time": 1741, "pitch": 57, "duration": 6, "velocity": 82}, {"time": 1744, "pitch": 66, "duration": 11, "velocity": 117}, {"time": 1747, "pitch": 54, "duration": 9, "velocity": 89}, {"time": 1750, "pitch": 61, "duration": 5, "velocity": 102}, {"time": 1753, "pitch": 57, "duration": 2, "velocity": 96}, {"time": 1756, "pitch": 42, "duration": 16, "velocity": 85}, {"time": 1759, "pitch": 49, "duration": 13, "velocity": 37}, {"time": 1762, "pitch": 54, "duration": 7, "velocity": 93}, {"time": 1765, "pitch": 66, "duration": 5, "velocity": 100}, {"time": 1768, "pitch": 73, "duration": 10, "velocity": 127}, {"time": 1771, "pitch": 54, "duration": 2, "velocity": 90}, {"time": 1774, "pitch": 69, "duration": 4, "velocity": 71}, {"time": 1777, "pitch": 66, "duration": 3, "velocity": 92}, {"time": 1780, "pitch": 47, "duration": 22, "velocity": 68}, {"time": 1783, "pitch": 54, "duration": 11, "velocity": 90}, {"time": 1786, "pitch": 59, "duration": 8, "velocity": 79}, {"time": 1789, "pitch": 63, "duration": 11, "velocity": 102}, {"time": 1792, "pitch": 66, "duration": 12, "velocity": 102}, {"time": 1795, "pitch": 54, "duration": 8, "velocity": 86}, {"time": 1798, "pitch": 59, "duration": 6, "velocity": 90}, {"time": 1801, "pitch": 63, "duration": 3, "velocity": 107}, {"time": 1804, "pitch": 47, "duration": 16, "velocity": 83}, {"time": 1807, "pitch": 54, "duration": 12, "velocity": 82}, {"time": 1810, "pitch": 59, "duration": 7, "velocity": 89}, {"time": 1813, "pitch": 71, "duration": 5, "velocity": 92}, {"time": 1816, "pitch": 78, "duration": 12, "velocity": 127}, {"time": 1819, "pitch": 75, "duration": 3, "velocity": 102}, {"time": 1822, "pitch": 71, "duration": 5, "velocity": 89}, {"time": 1825, "pitch": 75, "duration": 3, "velocity": 107}, {"time": 1828, "pitch": 44, "duration": 22, "velocity": 65}, {"time": 1831, "pitch": 51, "duration": 21, "velocity": 73}, {"time": 1834, "pitch": 56, "duration": 7, "velocity": 93}, {"time": 1837, "pitch": 60, "duration": 4, "velocity": 92}, {"time": 1840, "pitch": 63, "duration": 6, "velocity": 122}, {"time": 1843, "pitch": 56, "duration": 11, "velocity": 100}, {"time": 1846, "pitch": 60, "duration": 7, "velocity": 79}, {"time": 1849, "pitch": 68, "duration": 5, "velocity": 112}, {"time": 1852, "pitch": 44, "duration": 17, "velocity": 86}, {"time": 1855, "pitch": 51, "duration": 14, "velocity": 92}, {"time": 1858, "pitch": 56, "duration": 7, "velocity": 97}, {"time": 1861, "pitch": 68, "duration": 5, "velocity": 79}, {"time": 1864, "pitch": 75, "duration": 11, "velocity": 127}, {"time": 1867, "pitch": 56, "duration": 3, "velocity": 95}, {"time": 1870, "pitch": 72, "duration": 3, "velocity": 71}, {"time": 1873, "pitch": 68, "duration": 3, "velocity": 99}, {"time": 1876, "pitch": 49, "duration": 17, "velocity": 86}, {"time": 1879, "pitch": 52, "duration": 13, "velocity": 38}, {"time": 1882, "pitch": 56, "duration": 7, "velocity": 82}, {"time": 1885, "pitch": 61, "duration": 5, "velocity": 73}, {"time": 1888, "pitch": 68, "duration": 10, "velocity": 117}, {"time": 1891, "pitch": 56, "duration": 2, "velocity": 90}, {"time": 1894, "pitch": 61, "duration": 4, "velocity": 97}, {"time": 1897, "pitch": 64, "duration": 3, "velocity": 63}, {"time": 1900, "pitch": 40, "duration": 23, "velocity": 67}, {"time": 1903, "pitch": 47, "duration": 18, "velocity": 85}, {"time": 1906, "pitch": 52, "duration": 8, "velocity": 90}, {"time": 1909, "pitch": 56, "duration": 4, "velocity": 95}, {"time": 1912, "pitch": 64, "duration": 13, "velocity": 83}, {"time": 1915, "pitch": 52, "duration": 4, "velocity": 76}, {"time": 1918, "pitch": 59, "duration": 6, "velocity": 72}, {"time": 1921, "pitch": 56, "duration": 3, "velocity": 96}, {"time": 1924, "pitch": 44, "duration": 20, "velocity": 61}, {"time": 1927, "pitch": 51, "duration": 15, "velocity": 63}, {"time": 1930, "pitch": 56, "duration": 7, "velocity": 85}, {"time": 1933, "pitch": 59, "duration": 6, "velocity": 76}, {"time": 1936, "pitch": 68, "duration": 10, "velocity": 112}, {"time": 1939, "pitch": 56, "duration": 3, "velocity": 92}, {"time": 1942, "pitch": 63, "duration": 4, "velocity": 107}, {"time": 1945, "pitch": 59, "duration": 2, "velocity": 96}, {"time": 1948, "pitch": 40, "duration": 17, "velocity": 77}, {"time": 1951, "pitch": 47, "duration": 14, "velocity": 58}, {"time": 1954, "pitch": 52, "duration": 7, "velocity": 83}, {"time": 1957, "pitch": 59, "duration": 6, "velocity": 82}, {"time": 1960, "pitch": 68, "duration": 10, "velocity": 112}, {"time": 1963, "pitch": 52, "duration": 3, "velocity": 76}, {"time": 1966, "pitch": 64, "duration": 4, "velocity": 95}, {"time": 1969, "pitch": 59, "duration": 4, "velocity": 85}, {"time": 1972, "pitch": 47, "duration": 16, "velocity": 76}, {"time": 1975, "pitch": 54, "duration": 10, "velocity": 81}, {"time": 1978, "pitch": 59, "duration": 6, "velocity": 79}, {"time": 1981, "pitch": 63, "duration": 3, "velocity": 107}, {"time": 1984, "pitch": 66, "duration": 11, "velocity": 112}, {"time": 1987, "pitch": 54, "duration": 3, "velocity": 78}, {"time": 1990, "pitch": 63, "duration": 5, "velocity": 117}, {"time": 1993, "pitch": 59, "duration": 3, "velocity": 97}, {"time": 1996, "pitch": 44, "duration": 17, "velocity": 69}, {"time": 1999, "pitch": 56, "duration": 10, "velocity": 99}, {"time": 2002, "pitch": 59, "duration": 6, "velocity": 85}, {"time": 2005, "pitch": 63, "duration": 3, "velocity": 117}, {"time": 2008, "pitch": 68, "duration": 11, "velocity": 107}, {"time": 2011, "pitch": 56, "duration": 3, "velocity": 93}, {"time": 2014, "pitch": 59, "duration": 5, "velocity": 97}, {"time": 2017, "pitch": 63, "duration": 2, "velocity": 117}, {"time": 2020, "pitch": 49, "duration": 18, "velocity": 92}, {"time": 2023, "pitch": 52, "duration": 14, "velocity": 66}, {"time": 2026, "pitch": 56, "duration": 6, "velocity": 88}, {"time": 2029, "pitch": 61, "duration": 5, "velocity": 89}, {"time": 2032, "pitch": 68, "duration": 10, "velocity": 112}, {"time": 2035, "pitch": 56, "duration": 2, "velocity": 99}, {"time": 2038, "pitch": 64, "duration": 3, "velocity": 83}, {"time": 2041, "pitch": 37, "duration": 1, "velocity": 50}, {"time": 2041, "pitch": 61, "duration": 5, "velocity": 107}, {"time": 2044, "pitch": 37, "duration": 22, "velocity": 122}, {"time": 2047, "pitch": 49, "duration": 10, "velocity": 99}, {"time": 2050, "pitch": 61, "duration": 8, "velocity": 99}, {"time": 2053, "pitch": 64, "duration": 2, "velocity": 73}, {"time": 2056, "pitch": 68, "duration": 11, "velocity": 127}, {"time": 2059, "pitch": 49, "duration": 6, "velocity": 97}, {"time": 2062, "pitch": 64, "duration": 4, "velocity": 85}, {"time": 2065, "pitch": 61, "duration": 3, "velocity": 117}, {"time": 2068, "pitch": 37, "duration": 22, "velocity": 74}, {"time": 2071, "pitch": 44, "duration": 20, "velocity": 55}, {"time": 2074, "pitch": 49, "duration": 7, "velocity": 67}, {"time": 2077, "pitch": 52, "duration": 5, "velocity": 79}, {"time": 2080, "pitch": 56, "duration": 7, "velocity": 99}, {"time": 2083, "pitch": 49, "duration": 10, "velocity": 89}, {"time": 2086, "pitch": 61, "duration": 4, "velocity": 96}, {"time": 2089, "pitch": 56, "duration": 3, "velocity": 95}, {"time": 2092, "pitch": 37, "duration": 12, "velocity": 88}, {"time": 2095, "pitch": 44, "duration": 9, "velocity": 62}, {"time": 2098, "pitch": 49, "duration": 7, "velocity": 74}, {"time": 2101, "pitch": 61, "duration": 4, "velocity": 86}, {"time": 2104, "pitch": 68, "duration": 8, "velocity": 107}, {"time": 2107, "pitch": 61, "duration": 4, "velocity": 81}, {"time": 2110, "pitch": 64, "duration": 4, "velocity": 45}, {"time": 2113, "pitch": 61, "duration": 3, "velocity": 96}, {"time": 2116, "pitch": 42, "duration": 22, "velocity": 64}, {"time": 2119, "pitch": 49, "duration": 20, "velocity": 41}, {"time": 2122, "pitch": 54, "duration": 7, "velocity": 71}, {"time": 2125, "pitch": 57, "duration": 10, "velocity": 71}, {"time": 2128, "pitch": 61, "duration": 7, "velocity": 99}, {"time": 2131, "pitch": 54, "duration": 9, "velocity": 85}, {"time": 2134, "pitch": 66, "duration": 6, "velocity": 107}, {"time": 2137, "pitch": 61, "duration": 2, "velocity": 107}, {"time": 2140, "pitch": 42, "duration": 16, "velocity": 82}, {"time": 2143, "pitch": 49, "duration": 13, "velocity": 66}, {"time": 2146, "pitch": 54, "duration": 7, "velocity": 72}, {"time": 2149, "pitch": 66, "duration": 6, "velocity": 82}, {"time": 2152, "pitch": 73, "duration": 11, "velocity": 100}, {"time": 2155, "pitch": 54, "duration": 3, "velocity": 92}, {"time": 2158, "pitch": 69, "duration": 4, "velocity": 52}, {"time": 2161, "pitch": 66, "duration": 3, "velocity": 93}, {"time": 2164, "pitch": 47, "duration": 22, "velocity": 65}, {"time": 2167, "pitch": 54, "duration": 10, "velocity": 62}, {"time": 2170, "pitch": 59, "duration": 5, "velocity": 45}, {"time": 2173, "pitch": 63, "duration": 4, "velocity": 95}, {"time": 2176, "pitch": 66, "duration": 12, "velocity": 102}, {"time": 2179, "pitch": 54, "duration": 9, "velocity": 88}, {"time": 2182, "pitch": 63, "duration": 5, "velocity": 95}, {"time": 2185, "pitch": 59, "duration": 3, "velocity": 76}, {"time": 2188, "pitch": 47, "duration": 11, "velocity": 65}, {"time": 2191, "pitch": 54, "duration": 8, "velocity": 79}, {"time": 2194, "pitch": 59, "duration": 4, "velocity": 88}, {"time": 2197, "pitch": 71, "duration": 5, "velocity": 90}, {"time": 2200, "pitch": 78, "duration": 11, "velocity": 117}, {"time": 2203, "pitch": 75, "duration": 3, "velocity": 95}, {"time": 2206, "pitch": 71, "duration": 5, "velocity": 83}, {"time": 2209, "pitch": 75, "duration": 3, "velocity": 102}, {"time": 2212, "pitch": 44, "duration": 22, "velocity": 39}, {"time": 2212, "pitch": 51, "duration": 21, "velocity": 68}, {"time": 2218, "pitch": 56, "duration": 7, "velocity": 90}, {"time": 2221, "pitch": 60, "duration": 4, "velocity": 82}, {"time": 2224, "pitch": 63, "duration": 5, "velocity": 122}, {"time": 2227, "pitch": 56, "duration": 9, "velocity": 97}, {"time": 2230, "pitch": 60, "duration": 5, "velocity": 93}, {"time": 2233, "pitch": 68, "duration": 3, "velocity": 112}, {"time": 2236, "pitch": 44, "duration": 17, "velocity": 97}, {"time": 2239, "pitch": 51, "duration": 13, "velocity": 69}, {"time": 2242, "pitch": 56, "duration": 7, "velocity": 100}, {"time": 2245, "pitch": 68, "duration": 5, "velocity": 102}, {"time": 2248, "pitch": 75, "duration": 11, "velocity": 127}, {"time": 2251, "pitch": 56, "duration": 1, "velocity": 83}, {"time": 2251, "pitch": 68, "duration": 4, "velocity": 99}, {"time": 2254, "pitch": 72, "duration": 4, "velocity": 74}, {"time": 2257, "pitch": 68, "duration": 3, "velocity": 122}, {"time": 2260, "pitch": 37, "duration": 22, "velocity": 82}, {"time": 2263, "pitch": 44, "duration": 20, "velocity": 55}, {"time": 2266, "pitch": 49, "duration": 7, "velocity": 97}, {"time": 2269, "pitch": 52, "duration": 5, "velocity": 89}, {"time": 2272, "pitch": 56, "duration": 7, "velocity": 112}, {"time": 2275, "pitch": 49, "duration": 10, "velocity": 97}, {"time": 2278, "pitch": 61, "duration": 5, "velocity": 97}, {"time": 2281, "pitch": 64, "duration": 3, "velocity": 71}, {"time": 2284, "pitch": 37, "duration": 16, "velocity": 82}, {"time": 2287, "pitch": 44, "duration": 13, "velocity": 39}, {"time": 2290, "pitch": 49, "duration": 7, "velocity": 92}, {"time": 2293, "pitch": 61, "duration": 4, "velocity": 93}, {"time": 2296, "pitch": 68, "duration": 11, "velocity": 117}, {"time": 2299, "pitch": 49, "duration": 3, "velocity": 83}, {"time": 2299, "pitch": 61, "duration": 4, "velocity": 88}, {"time": 2302, "pitch": 64, "duration": 4, "velocity": 67}, {"time": 2305, "pitch": 61, "duration": 3, "velocity": 102}, {"time": 2308, "pitch": 42, "duration": 22, "velocity": 70}, {"time": 2311, "pitch": 49, "duration": 20, "velocity": 66}, {"time": 2314, "pitch": 54, "duration": 7, "velocity": 79}, {"time": 2317, "pitch": 57, "duration": 6, "velocity": 76}, {"time": 2320, "pitch": 66, "duration": 13, "velocity": 112}, {"time": 2323, "pitch": 54, "duration": 7, "velocity": 73}, {"time": 2326, "pitch": 57, "duration": 6, "velocity": 95}, {"time": 2329, "pitch": 69, "duration": 6, "velocity": 78}, {"time": 2332, "pitch": 42, "duration": 17, "velocity": 97}, {"time": 2335, "pitch": 49, "duration": 13, "velocity": 63}, {"time": 2338, "pitch": 54, "duration": 8, "velocity": 73}, {"time": 2341, "pitch": 57, "duration": 7, "velocity": 82}, {"time": 2344, "pitch": 66, "duration": 11, "velocity": 117}, {"time": 2347, "pitch": 54, "duration": 3, "velocity": 92}, {"time": 2350, "pitch": 61, "duration": 4, "velocity": 97}, {"time": 2353, "pitch": 57, "duration": 3, "velocity": 97}, {"time": 2356, "pitch": 47, "duration": 21, "velocity": 69}, {"time": 2359, "pitch": 54, "duration": 10, "velocity": 81}, {"time": 2362, "pitch": 59, "duration": 5, "velocity": 85}, {"time": 2365, "pitch": 63, "duration": 3, "velocity": 107}, {"time": 2368, "pitch": 66, "duration": 10, "velocity": 97}, {"time": 2371, "pitch": 54, "duration": 8, "velocity": 95}, {"time": 2374, "pitch": 63, "duration": 5, "velocity": 100}, {"time": 2377, "pitch": 59, "duration": 3, "velocity": 88}, {"time": 2380, "pitch": 47, "duration": 12, "velocity": 66}, {"time": 2383, "pitch": 54, "duration": 8, "velocity": 83}, {"time": 2386, "pitch": 59, "duration": 4, "velocity": 92}, {"time": 2389, "pitch": 71, "duration": 3, "velocity": 95}, {"time": 2392, "pitch": 78, "duration": 11, "velocity": 117}, {"time": 2395, "pitch": 75, "duration": 3, "velocity": 99}, {"time": 2398, "pitch": 71, "duration": 5, "velocity": 88}, {"time": 2401, "pitch": 75, "duration": 3, "velocity": 122}, {"time": 2404, "pitch": 37, "duration": 22, "velocity": 85}, {"time": 2407, "pitch": 44, "duration": 20, "velocity": 31}, {"time": 2410, "pitch": 49, "duration": 7, "velocity": 79}, {"time": 2413, "pitch": 52, "duration": 5, "velocity": 66}, {"time": 2416, "pitch": 64, "duration": 20, "velocity": 92}, {"time": 2419, "pitch": 49, "duration": 9, "velocity": 83}, {"time": 2422, "pitch": 52, "duration": 11, "velocity": 64}, {"time": 2425, "pitch": 61, "duration": 10, "velocity": 96}, {"time": 2428, "pitch": 37, "duration": 24, "velocity": 81}, {"time": 2431, "pitch": 44, "duration": 20, "velocity": 83}, {"time": 2434, "pitch": 49, "duration": 8, "velocity": 95}, {"time": 2437, "pitch": 52, "duration": 5, "velocity": 89}, {"time": 2440, "pitch": 64, "duration": 13, "velocity": 102}, {"time": 2443, "pitch": 61, "duration": 10, "velocity": 90}, {"time": 2446, "pitch": 56, "duration": 6, "velocity": 86}, {"time": 2449, "pitch": 52, "duration": 4, "velocity": 78}, {"time": 2452, "pitch": 37, "duration": 46, "velocity": 66}, {"time": 2458, "pitch": 44, "duration": 41, "velocity": 43}, {"time": 2464, "pitch": 49, "duration": 15, "velocity": 82}, {"time": 2470, "pitch": 56, "duration": 8, "velocity": 59}, {"time": 2476, "pitch": 61, "duration": 41, "velocity": 61}, {"time": 2476, "pitch": 64, "duration": 44, "velocity": 66}, {"time": 2482, "pitch": 49, "duration": 18, "velocity": 41}, {"time": 2488, "pitch": 56, "duration": 19, "velocity": 70}, {"time": 2500, "pitch": 37, "duration": 45, "velocity": 77}, {"time": 2506, "pitch": 44, "duration": 42, "velocity": 37}, {"time": 2512, "pitch": 49, "duration": 15, "velocity": 69}, {"time": 2518, "pitch": 56, "duration": 46, "velocity": 58}, {"time": 2524, "pitch": 64, "duration": 27, "velocity": 69}, {"time": 2530, "pitch": 49, "duration": 9, "velocity": 40}, {"time": 2536, "pitch": 63, "duration": 26, "velocity": 76}, {"time": 2542, "pitch": 49, "duration": 8, "velocity": 36}, {"time": 2548, "pitch": 37, "duration": 37, "velocity": 92}, {"time": 2554, "pitch": 44, "duration": 31, "velocity": 39}, {"time": 2560, "pitch": 49, "duration": 15, "velocity": 77}, {"time": 2566, "pitch": 56, "duration": 29, "velocity": 76}, {"time": 2572, "pitch": 64, "duration": 19, "velocity": 77}, {"time": 2578, "pitch": 49, "duration": 11, "velocity": 38}, {"time": 2584, "pitch": 63, "duration": 9, "velocity": 67}, {"time": 2590, "pitch": 61, "duration": 6, "velocity": 63}, {"time": 2596, "pitch": 44, "duration": 38, "velocity": 70}, {"time": 2602, "pitch": 51, "duration": 31, "velocity": 45}, {"time": 2608, "pitch": 56, "duration": 16, "velocity": 77}, {"time": 2614, "pitch": 60, "duration": 8, "velocity": 76}, {"time": 2620, "pitch": 63, "duration": 14, "velocity": 73}, {"time": 2620, "pitch": 68, "duration": 25, "velocity": 75}, {"time": 2626, "pitch": 56, "duration": 6, "velocity": 61}, {"time": 2632, "pitch": 60, "duration": 13, "velocity": 79}, {"time": 2638, "pitch": 63, "duration": 7, "velocity": 62}, {"time": 2644, "pitch": 42, "duration": 34, "velocity": 75}, {"time": 2650, "pitch": 49, "duration": 28, "velocity": 53}, {"time": 2656, "pitch": 54, "duration": 14, "velocity": 77}, {"time": 2662, "pitch": 57, "duration": 8, "velocity": 69}, {"time": 2668, "pitch": 61, "duration": 15, "velocity": 72}, {"time": 2668, "pitch": 66, "duration": 26, "velocity": 97}, {"time": 2674, "pitch": 54, "duration": 3, "velocity": 58}, {"time": 2680, "pitch": 57, "duration": 13, "velocity": 85}, {"time": 2686, "pitch": 61, "duration": 7, "velocity": 81}, {"time": 2692, "pitch": 37, "duration": 18, "velocity": 82}, {"time": 2698, "pitch": 44, "duration": 12, "velocity": 39}, {"time": 2704, "pitch": 49, "duration": 8, "velocity": 76}, {"time": 2710, "pitch": 56, "duration": 7, "velocity": 88}, {"time": 2716, "pitch": 42, "duration": 14, "velocity": 69}, {"time": 2722, "pitch": 54, "duration": 9, "velocity": 78}, {"time": 2728, "pitch": 61, "duration": 12, "velocity": 86}, {"time": 2728, "pitch": 66, "duration": 12, "velocity": 88}, {"time": 2734, "pitch": 57, "duration": 7, "velocity": 72}, {"time": 2740, "pitch": 47, "duration": 13, "velocity": 70}, {"time": 2746, "pitch": 54, "duration": 7, "velocity": 48}, {"time": 2752, "pitch": 63, "duration": 13, "velocity": 83}, {"time": 2752, "pitch": 66, "duration": 13, "velocity": 92}, {"time": 2758, "pitch": 59, "duration": 7, "velocity": 67}, {"time": 2764, "pitch": 44, "duration": 16, "velocity": 50}, {"time": 2770, "pitch": 51, "duration": 10, "velocity": 60}, {"time": 2776, "pitch": 56, "duration": 3, "velocity": 53}, {"time": 2776, "pitch": 63, "duration": 12, "velocity": 66}, {"time": 2776, "pitch": 68, "duration": 13, "velocity": 76}, {"time": 2782, "pitch": 59, "duration": 6, "velocity": 76}, {"time": 2788, "pitch": 37, "duration": 39, "velocity": 76}, {"time": 2794, "pitch": 44, "duration": 36, "velocity": 56}, {"time": 2800, "pitch": 49, "duration": 14, "velocity": 85}, {"time": 2806, "pitch": 56, "duration": 10, "velocity": 69}, {"time": 2812, "pitch": 61, "duration": 25, "velocity": 64}, {"time": 2812, "pitch": 64, "duration": 25, "velocity": 70}, {"time": 2818, "pitch": 49, "duration": 12, "velocity": 49}, {"time": 2824, "pitch": 56, "duration": 12, "velocity": 72}, {"time": 2836, "pitch": 37, "duration": 21, "velocity": 88}, {"time": 2839, "pitch": 44, "duration": 21, "velocity": 32}, {"time": 2842, "pitch": 49, "duration": 8, "velocity": 82}, {"time": 2845, "pitch": 52, "duration": 5, "velocity": 63}, {"time": 2848, "pitch": 56, "duration": 8, "velocity": 112}, {"time": 2851, "pitch": 49, "duration": 10, "velocity": 59}, {"time": 2854, "pitch": 52, "duration": 8, "velocity": 67}, {"time": 2857, "pitch": 56, "duration": 4, "velocity": 89}, {"time": 2857, "pitch": 61, "duration": 4, "velocity": 99}, {"time": 2863, "pitch": 52, "duration": 2, "velocity": 74}, {"time": 2863, "pitch": 56, "duration": 2, "velocity": 95}, {"time": 2863, "pitch": 61, "duration": 2, "velocity": 100}, {"time": 2866, "pitch": 49, "duration": 5, "velocity": 35}, {"time": 2869, "pitch": 37, "duration": 12, "velocity": 33}, {"time": 2869, "pitch": 44, "duration": 13, "velocity": 37}, {"time": 2872, "pitch": 56, "duration": 5, "velocity": 127}, {"time": 2872, "pitch": 61, "duration": 5, "velocity": 127}, {"time": 2875, "pitch": 49, "duration": 8, "velocity": 93}, {"time": 2878, "pitch": 52, "duration": 4, "velocity": 96}, {"time": 2881, "pitch": 56, "duration": 2, "velocity": 127}, {"time": 2884, "pitch": 37, "duration": 22, "velocity": 97}, {"time": 2887, "pitch": 44, "duration": 20, "velocity": 79}, {"time": 2890, "pitch": 49, "duration": 7, "velocity": 102}, {"time": 2893, "pitch": 52, "duration": 5, "velocity": 89}, {"time": 2896, "pitch": 61, "duration": 12, "velocity": 117}, {"time": 2899, "pitch": 49, "duration": 9, "velocity": 82}, {"time": 2902, "pitch": 56, "duration": 6, "velocity": 89}, {"time": 2905, "pitch": 52, "duration": 3, "velocity": 95}, {"time": 2908, "pitch": 37, "duration": 13, "velocity": 77}, {"time": 2911, "pitch": 44, "duration": 10, "velocity": 68}, {"time": 2914, "pitch": 49, "duration": 9, "velocity": 97}, {"time": 2917, "pitch": 61, "duration": 5, "velocity": 93}, {"time": 2920, "pitch": 68, "duration": 10, "velocity": 127}, {"time": 2923, "pitch": 61, "duration": 4, "velocity": 81}, {"time": 2926, "pitch": 64, "duration": 4, "velocity": 65}, {"time": 2929, "pitch": 61, "duration": 3, "velocity": 117}, {"time": 2932, "pitch": 42, "duration": 21, "velocity": 83}, {"time": 2935, "pitch": 49, "duration": 19, "velocity": 34}, {"time": 2938, "pitch": 54, "duration": 7, "velocity": 92}, {"time": 2941, "pitch": 57, "duration": 6, "velocity": 82}, {"time": 2944, "pitch": 66, "duration": 11, "velocity": 117}, {"time": 2947, "pitch": 54, "duration": 9, "velocity": 89}, {"time": 2950, "pitch": 61, "duration": 5, "velocity": 102}, {"time": 2953, "pitch": 57, "duration": 2, "velocity": 96}, {"time": 2956, "pitch": 42, "duration": 16, "velocity": 85}, {"time": 2959, "pitch": 49, "duration": 13, "velocity": 37}, {"time": 2962, "pitch": 54, "duration": 7, "velocity": 93}, {"time": 2971, "pitch": 54, "duration": 2, "velocity": 90}, {"time": 2980, "pitch": 47, "duration": 22, "velocity": 68}, {"time": 2983, "pitch": 54, "duration": 11, "velocity": 90}, {"time": 2986, "pitch": 59, "duration": 8, "velocity": 79}, {"time": 2989, "pitch": 63, "duration": 11, "velocity": 102}, {"time": 2992, "pitch": 66, "duration": 12, "velocity": 102}, {"time": 2995, "pitch": 54, "duration": 8, "velocity": 86}, {"time": 2998, "pitch": 59, "duration": 6, "velocity": 90}, {"time": 3004, "pitch": 47, "duration": 13, "velocity": 85}, {"time": 3007, "pitch": 54, "duration": 9, "velocity": 96}, {"time": 3010, "pitch": 59, "duration": 5, "velocity": 76}, {"time": 3013, "pitch": 63, "duration": 2, "velocity": 90}, {"time": 3016, "pitch": 49, "duration": 12, "velocity": 97}, {"time": 3016, "pitch": 56, "duration": 12, "velocity": 97}, {"time": 3016, "pitch": 61, "duration": 12, "velocity": 86}, {"time": 3016, "pitch": 64, "duration": 12, "velocity": 97}, {"time": 3016, "pitch": 68, "duration": 13, "velocity": 95}, {"time": 3028, "pitch": 44, "duration": 22, "velocity": 65}, {"time": 3031, "pitch": 51, "duration": 21, "velocity": 73}, {"time": 3034, "pitch": 56, "duration": 7, "velocity": 93}, {"time": 3037, "pitch": 60, "duration": 4, "velocity": 92}, {"time": 3040, "pitch": 63, "duration": 6, "velocity": 122}, {"time": 3043, "pitch": 56, "duration": 11, "velocity": 100}, {"time": 3046, "pitch": 60, "duration": 7, "velocity": 79}, {"time": 3049, "pitch": 68, "duration": 5, "velocity": 112}, {"time": 3052, "pitch": 44, "duration": 17, "velocity": 86}, {"time": 3055, "pitch": 51, "duration": 14, "velocity": 92}, {"time": 3058, "pitch": 56, "duration": 7, "velocity": 97}, {"time": 3061, "pitch": 68, "duration": 5, "velocity": 79}, {"time": 3064, "pitch": 75, "duration": 11, "velocity": 127}, {"time": 3067, "pitch": 56, "duration": 3, "velocity": 95}, {"time": 3070, "pitch": 72, "duration": 3, "velocity": 71}, {"time": 3073, "pitch": 68, "duration": 3, "velocity": 99}, {"time": 3076, "pitch": 49, "duration": 17, "velocity": 86}, {"time": 3079, "pitch": 52, "duration": 13, "velocity": 38}, {"time": 3082, "pitch": 56, "duration": 7, "velocity": 82}, {"time": 3085, "pitch": 61, "duration": 5, "velocity": 73}, {"time": 3088, "pitch": 68, "duration": 10, "velocity": 117}, {"time": 3091, "pitch": 56, "duration": 2, "velocity": 90}, {"time": 3094, "pitch": 61, "duration": 4, "velocity": 97}, {"time": 3097, "pitch": 64, "duration": 3, "velocity": 63}, {"time": 3100, "pitch": 42, "duration": 16, "velocity": 89}, {"time": 3103, "pitch": 49, "duration": 12, "velocity": 56}, {"time": 3106, "pitch": 54, "duration": 6, "velocity": 78}, {"time": 3109, "pitch": 57, "duration": 5, "velocity": 86}, {"time": 3112, "pitch": 66, "duration": 11, "velocity": 122}, {"time": 3115, "pitch": 54, "duration": 3, "velocity": 90}, {"time": 3118, "pitch": 61, "duration": 5, "velocity": 112}, {"time": 3121, "pitch": 57, "duration": 3, "velocity": 95}, {"time": 3124, "pitch": 44, "duration": 20, "velocity": 61}, {"time": 3127, "pitch": 51, "duration": 15, "velocity": 63}, {"time": 3130, "pitch": 56, "duration": 7, "velocity": 85}, {"time": 3133, "pitch": 59, "duration": 6, "velocity": 76}, {"time": 3136, "pitch": 68, "duration": 10, "velocity": 112}, {"time": 3139, "pitch": 56, "duration": 3, "velocity": 92}, {"time": 3142, "pitch": 63, "duration": 4, "velocity": 107}, {"time": 3145, "pitch": 59, "duration": 2, "velocity": 96}, {"time": 3148, "pitch": 40, "duration": 17, "velocity": 77}, {"time": 3151, "pitch": 47, "duration": 14, "velocity": 58}, {"time": 3154, "pitch": 52, "duration": 7, "velocity": 83}, {"time": 3157, "pitch": 59, "duration": 6, "velocity": 82}, {"time": 3160, "pitch": 68, "duration": 10, "velocity": 112}, {"time": 3163, "pitch": 52, "duration": 3, "velocity": 76}, {"time": 3166, "pitch": 64, "duration": 4, "velocity": 95}, {"time": 3169, "pitch": 59, "duration": 4, "velocity": 85}, {"time": 3172, "pitch": 47, "duration": 16, "velocity": 76}, {"time": 3175, "pitch": 54, "duration": 10, "velocity": 81}, {"time": 3178, "pitch": 59, "duration": 6, "velocity": 79}, {"time": 3181, "pitch": 63, "duration": 3, "velocity": 107}, {"time": 3184, "pitch": 66, "duration": 11, "velocity": 112}, {"time": 3187, "pitch": 54, "duration": 3, "velocity": 78}, {"time": 3190, "pitch": 63, "duration": 5, "velocity": 117}, {"time": 3193, "pitch": 59, "duration": 3, "velocity": 97}, {"time": 3196, "pitch": 44, "duration": 17, "velocity": 69}, {"time": 3199, "pitch": 56, "duration": 10, "velocity": 99}, {"time": 3202, "pitch": 59, "duration": 6, "velocity": 85}, {"time": 3205, "pitch": 63, "duration": 3, "velocity": 117}, {"time": 3208, "pitch": 68, "duration": 11, "velocity": 107}, {"time": 3211, "pitch": 56, "duration": 3, "velocity": 93}, {"time": 3214, "pitch": 59, "duration": 5, "velocity": 97}, {"time": 3217, "pitch": 63, "duration": 2, "velocity": 117}, {"time": 3220, "pitch": 49, "duration": 18, "velocity": 92}, {"time": 3223, "pitch": 52, "duration": 14, "velocity": 66}, {"time": 3226, "pitch": 56, "duration": 6, "velocity": 88}, {"time": 3229, "pitch": 61, "duration": 5, "velocity": 89}, {"time": 3232, "pitch": 68, "duration": 10, "velocity": 112}, {"time": 3235, "pitch": 56, "duration": 2, "velocity": 99}, {"time": 3238, "pitch": 64, "duration": 3, "velocity": 83}, {"time": 3241, "pitch": 37, "duration": 1, "velocity": 50}, {"time": 3241, "pitch": 61, "duration": 5, "velocity": 107}, {"time": 3244, "pitch": 37, "duration": 22, "velocity": 122}, {"time": 3247, "pitch": 49, "duration": 10, "velocity": 99}, {"time": 3250, "pitch": 61, "duration": 8, "velocity": 99}, {"time": 3253, "pitch": 64, "duration": 2, "velocity": 73}, {"time": 3256, "pitch": 68, "duration": 11, "velocity": 127}, {"time": 3259, "pitch": 49, "duration": 6, "velocity": 97}, {"time": 3262, "pitch": 64, "duration": 4, "velocity": 85}, {"time": 3265, "pitch": 61, "duration": 3, "velocity": 117}, {"time": 3268, "pitch": 37, "duration": 22, "velocity": 97}, {"time": 3271, "pitch": 44, "duration": 20, "velocity": 79}, {"time": 3274, "pitch": 49, "duration": 7, "velocity": 102}, {"time": 3277, "pitch": 52, "duration": 5, "velocity": 89}, {"time": 3280, "pitch": 61, "duration": 12, "velocity": 117}, {"time": 3283, "pitch": 49, "duration": 9, "velocity": 82}, {"time": 3286, "pitch": 56, "duration": 6, "velocity": 89}, {"time": 3289, "pitch": 52, "duration": 3, "velocity": 95}, {"time": 3292, "pitch": 37, "duration": 13, "velocity": 77}, {"time": 3295, "pitch": 44, "duration": 10, "velocity": 68}, {"time": 3298, "pitch": 49, "duration": 9, "velocity": 97}, {"time": 3301, "pitch": 61, "duration": 5, "velocity": 93}, {"time": 3304, "pitch": 68, "duration": 10, "velocity": 127}, {"time": 3307, "pitch": 61, "duration": 4, "velocity": 81}, {"time": 3310, "pitch": 64, "duration": 4, "velocity": 65}, {"time": 3313, "pitch": 61, "duration": 3, "velocity": 117}, {"time": 3316, "pitch": 42, "duration": 21, "velocity": 83}, {"time": 3319, "pitch": 49, "duration": 19, "velocity": 34}, {"time": 3322, "pitch": 54, "duration": 7, "velocity": 92}, {"time": 3325, "pitch": 57, "duration": 6, "velocity": 82}, {"time": 3328, "pitch": 66, "duration": 11, "velocity": 117}, {"time": 3331, "pitch": 54, "duration": 9, "velocity": 89}, {"time": 3334, "pitch": 61, "duration": 5, "velocity": 102}, {"time": 3337, "pitch": 57, "duration": 2, "velocity": 96}, {"time": 3340, "pitch": 42, "duration": 16, "velocity": 85}, {"time": 3343, "pitch": 49, "duration": 13, "velocity": 37}, {"time": 3346, "pitch": 54, "duration": 7, "velocity": 93}, {"time": 3349, "pitch": 66, "duration": 5, "velocity": 100}, {"time": 3352, "pitch": 73, "duration": 10, "velocity": 127}, {"time": 3355, "pitch": 54, "duration": 2, "velocity": 90}, {"time": 3358, "pitch": 69, "duration": 4, "velocity": 71}, {"time": 3361, "pitch": 66, "duration": 3, "velocity": 92}, {"time": 3364, "pitch": 47, "duration": 22, "velocity": 68}, {"time": 3367, "pitch": 54, "duration": 11, "velocity": 90}, {"time": 3370, "pitch": 59, "duration": 8, "velocity": 79}, {"time": 3373, "pitch": 63, "duration": 11, "velocity": 102}, {"time": 3376, "pitch": 66, "duration": 12, "velocity": 102}, {"time": 3379, "pitch": 54, "duration": 8, "velocity": 86}, {"time": 3382, "pitch": 59, "duration": 6, "velocity": 90}, {"time": 3385, "pitch": 63, "duration": 3, "velocity": 107}, {"time": 3388, "pitch": 47, "duration": 16, "velocity": 83}, {"time": 3391, "pitch": 54, "duration": 12, "velocity": 82}, {"time": 3394, "pitch": 59, "duration": 7, "velocity": 89}, {"time": 3397, "pitch": 71, "duration": 5, "velocity": 92}, {"time": 3400, "pitch": 78, "duration": 12, "velocity": 127}, {"time": 3403, "pitch": 75, "duration": 3, "velocity": 102}, {"time": 3406, "pitch": 71, "duration": 5, "velocity": 89}, {"time": 3409, "pitch": 75, "duration": 3, "velocity": 107}, {"time": 3412, "pitch": 44, "duration": 22, "velocity": 65}, {"time": 3415, "pitch": 51, "duration": 21, "velocity": 73}, {"time": 3418, "pitch": 56, "duration": 7, "velocity": 93}, {"time": 3421, "pitch": 60, "duration": 4, "velocity": 92}, {"time": 3424, "pitch": 63, "duration": 6, "velocity": 122}, {"time": 3427, "pitch": 56, "duration": 11, "velocity": 100}, {"time": 3430, "pitch": 60, "duration": 7, "velocity": 79}, {"time": 3433, "pitch": 68, "duration": 5, "velocity": 112}, {"time": 3436, "pitch": 44, "duration": 17, "velocity": 86}, {"time": 3439, "pitch": 51, "duration": 14, "velocity": 92}, {"time": 3442, "pitch": 56, "duration": 7, "velocity": 97}, {"time": 3445, "pitch": 68, "duration": 5, "velocity": 79}, {"time": 3448, "pitch": 75, "duration": 11, "velocity": 127}, {"time": 3451, "pitch": 56, "duration": 3, "velocity": 95}, {"time": 3454, "pitch": 72, "duration": 3, "velocity": 71}, {"time": 3457, "pitch": 68, "duration": 3, "velocity": 99}, {"time": 3460, "pitch": 49, "duration": 17, "velocity": 86}, {"time": 3463, "pitch": 52, "duration": 13, "velocity": 38}, {"time": 3466, "pitch": 56, "duration": 7, "velocity": 82}, {"time": 3469, "pitch": 61, "duration": 5, "velocity": 73}, {"time": 3472, "pitch": 68, "duration": 10, "velocity": 117}, {"time": 3475, "pitch": 56, "duration": 2, "velocity": 90}, {"time": 3478, "pitch": 61, "duration": 4, "velocity": 97}, {"time": 3481, "pitch": 64, "duration": 3, "velocity": 63}, {"time": 3484, "pitch": 40, "duration": 23, "velocity": 67}, {"time": 3487, "pitch": 47, "duration": 18, "velocity": 85}, {"time": 3490, "pitch": 52, "duration": 8, "velocity": 90}, {"time": 3493, "pitch": 56, "duration": 4, "velocity": 95}, {"time": 3496, "pitch": 64, "duration": 13, "velocity": 83}, {"time": 3499, "pitch": 52, "duration": 4, "velocity": 76}, {"time": 3502, "pitch": 59, "duration": 6, "velocity": 72}, {"time": 3505, "pitch": 56, "duration": 3, "velocity": 96}, {"time": 3508, "pitch": 44, "duration": 20, "velocity": 61}, {"time": 3511, "pitch": 51, "duration": 15, "velocity": 63}, {"time": 3514, "pitch": 56, "duration": 7, "velocity": 85}, {"time": 3517, "pitch": 59, "duration": 6, "velocity": 76}, {"time": 3520, "pitch": 68, "duration": 10, "velocity": 112}, {"time": 3523, "pitch": 56, "duration": 3, "velocity": 92}, {"time": 3526, "pitch": 63, "duration": 4, "velocity": 107}, {"time": 3529, "pitch": 59, "duration": 2, "velocity": 96}, {"time": 3532, "pitch": 40, "duration": 17, "velocity": 77}, {"time": 3535, "pitch": 47, "duration": 14, "velocity": 58}, {"time": 3538, "pitch": 52, "duration": 7, "velocity": 83}, {"time": 3541, "pitch": 59, "duration": 6, "velocity": 82}, {"time": 3544, "pitch": 68, "duration": 10, "velocity": 112}, {"time": 3547, "pitch": 52, "duration": 3, "velocity": 76}, {"time": 3550, "pitch": 64, "duration": 4, "velocity": 95}, {"time": 3553, "pitch": 59, "duration": 4, "velocity": 85}, {"time": 3556, "pitch": 47, "duration": 16, "velocity": 76}, {"time": 3559, "pitch": 54, "duration": 10, "velocity": 81}, {"time": 3562, "pitch": 59, "duration": 6, "velocity": 79}, {"time": 3565, "pitch": 63, "duration": 3, "velocity": 107}, {"time": 3568, "pitch": 66, "duration": 11, "velocity": 112}, {"time": 3571, "pitch": 54, "duration": 3, "velocity": 78}, {"time": 3574, "pitch": 63, "duration": 5, "velocity": 117}, {"time": 3577, "pitch": 59, "duration": 3, "velocity": 97}, {"time": 3580, "pitch": 44, "duration": 17, "velocity": 69}, {"time": 3583, "pitch": 56, "duration": 10, "velocity": 99}, {"time": 3586, "pitch": 59, "duration": 6, "velocity": 85}, {"time": 3589, "pitch": 63, "duration": 3, "velocity": 117}, {"time": 3592, "pitch": 68, "duration": 11, "velocity": 107}, {"time": 3595, "pitch": 56, "duration": 3, "velocity": 93}, {"time": 3598, "pitch": 59, "duration": 5, "velocity": 97}, {"time": 3601, "pitch": 63, "duration": 2, "velocity": 117}, {"time": 3604, "pitch": 49, "duration": 18, "velocity": 92}, {"time": 3607, "pitch": 52, "duration": 14, "velocity": 66}, {"time": 3610, "pitch": 56, "duration": 6, "velocity": 88}, {"time": 3613, "pitch": 61, "duration": 5, "velocity": 89}, {"time": 3616, "pitch": 68, "duration": 10, "velocity": 112}, {"time": 3619, "pitch": 56, "duration": 2, "velocity": 99}, {"time": 3622, "pitch": 64, "duration": 3, "velocity": 83}, {"time": 3625, "pitch": 37, "duration": 1, "velocity": 50}, {"time": 3625, "pitch": 61, "duration": 5, "velocity": 107}, {"time": 3628, "pitch": 37, "duration": 22, "velocity": 122}, {"time": 3631, "pitch": 49, "duration": 10, "velocity": 99}, {"time": 3634, "pitch": 61, "duration": 8, "velocity": 99}, {"time": 3637, "pitch": 64, "duration": 2, "velocity": 73}, {"time": 3640, "pitch": 68, "duration": 11, "velocity": 127}, {"time": 3643, "pitch": 49, "duration": 6, "velocity": 97}, {"time": 3646, "pitch": 64, "duration": 4, "velocity": 85}, {"time": 3649, "pitch": 61, "duration": 3, "velocity": 117}, {"time": 3652, "pitch": 37, "duration": 22, "velocity": 97}, {"time": 3655, "pitch": 44, "duration": 20, "velocity": 79}, {"time": 3658, "pitch": 49, "duration": 7, "velocity": 102}, {"time": 3661, "pitch": 52, "duration": 5, "velocity": 89}, {"time": 3664, "pitch": 61, "duration": 12, "velocity": 117}, {"time": 3667, "pitch": 49, "duration": 9, "velocity": 82}, {"time": 3670, "pitch": 56, "duration": 6, "velocity": 89}, {"time": 3673, "pitch": 52, "duration": 3, "velocity": 95}, {"time": 3676, "pitch": 37, "duration": 13, "velocity": 77}, {"time": 3679, "pitch": 44, "duration": 10, "velocity": 68}, {"time": 3682, "pitch": 49, "duration": 9, "velocity": 97}, {"time": 3685, "pitch": 61, "duration": 5, "velocity": 93}, {"time": 3688, "pitch": 68, "duration": 10, "velocity": 127}, {"time": 3691, "pitch": 61, "duration": 4, "velocity": 81}, {"time": 3694, "pitch": 64, "duration": 4, "velocity": 65}, {"time": 3697, "pitch": 61, "duration": 3, "velocity": 117}, {"time": 3700, "pitch": 42, "duration": 21, "velocity": 83}, {"time": 3703, "pitch": 49, "duration": 19, "velocity": 34}, {"time": 3706, "pitch": 54, "duration": 7, "velocity": 92}, {"time": 3709, "pitch": 57, "duration": 6, "velocity": 82}, {"time": 3712, "pitch": 66, "duration": 11, "velocity": 117}, {"time": 3715, "pitch": 54, "duration": 9, "velocity": 89}, {"time": 3718, "pitch": 61, "duration": 5, "velocity": 102}, {"time": 3721, "pitch": 57, "duration": 2, "velocity": 96}, {"time": 3724, "pitch": 42, "duration": 16, "velocity": 85}, {"time": 3727, "pitch": 49, "duration": 13, "velocity": 37}, {"time": 3730, "pitch": 54, "duration": 7, "velocity": 93}, {"time": 3733, "pitch": 66, "duration": 5, "velocity": 100}, {"time": 3736, "pitch": 73, "duration": 10, "velocity": 127}, {"time": 3739, "pitch": 54, "duration": 2, "velocity": 90}, {"time": 3742, "pitch": 69, "duration": 4, "velocity": 71}, {"time": 3745, "pitch": 66, "duration": 3, "velocity": 92}, {"time": 3748, "pitch": 47, "duration": 22, "velocity": 68}, {"time": 3751, "pitch": 54, "duration": 11, "velocity": 90}, {"time": 3754, "pitch": 59, "duration": 8, "velocity": 79}, {"time": 3757, "pitch": 63, "duration": 11, "velocity": 102}, {"time": 3760, "pitch": 66, "duration": 12, "velocity": 102}, {"time": 3763, "pitch": 54, "duration": 8, "velocity": 86}, {"time": 3766, "pitch": 59, "duration": 6, "velocity": 90}, {"time": 3769, "pitch": 63, "duration": 3, "velocity": 107}, {"time": 3772, "pitch": 47, "duration": 12, "velocity": 83}, {"time": 3775, "pitch": 54, "duration": 12, "velocity": 82}, {"time": 3778, "pitch": 59, "duration": 7, "velocity": 89}, {"time": 3784, "pitch": 49, "duration": 12, "velocity": 97}, {"time": 3784, "pitch": 56, "duration": 12, "velocity": 97}, {"time": 3784, "pitch": 61, "duration": 12, "velocity": 86}, {"time": 3784, "pitch": 64, "duration": 12, "velocity": 97}, {"time": 3784, "pitch": 68, "duration": 12, "velocity": 95}, {"time": 3796, "pitch": 44, "duration": 22, "velocity": 98}, {"time": 3799, "pitch": 51, "duration": 21, "velocity": 73}, {"time": 3802, "pitch": 56, "duration": 7, "velocity": 93}, {"time": 3805, "pitch": 60, "duration": 4, "velocity": 92}, {"time": 3808, "pitch": 63, "duration": 6, "velocity": 122}, {"time": 3811, "pitch": 56, "duration": 11, "velocity": 100}, {"time": 3814, "pitch": 60, "duration": 7, "velocity": 79}, {"time": 3817, "pitch": 68, "duration": 5, "velocity": 112}, {"time": 3820, "pitch": 39, "duration": 8, "velocity": 92}, {"time": 3823, "pitch": 51, "duration": 8, "velocity": 86}, {"time": 3826, "pitch": 54, "duration": 4, "velocity": 77}, {"time": 3829, "pitch": 58, "duration": 2, "velocity": 75}, {"time": 3832, "pitch": 44, "duration": 12, "velocity": 88}, {"time": 3835, "pitch": 56, "duration": 8, "velocity": 79}, {"time": 3838, "pitch": 60, "duration": 6, "velocity": 88}, {"time": 3841, "pitch": 63, "duration": 4, "velocity": 73}, {"time": 3844, "pitch": 49, "duration": 17, "velocity": 86}, {"time": 3847, "pitch": 52, "duration": 13, "velocity": 38}, {"time": 3850, "pitch": 56, "duration": 7, "velocity": 82}, {"time": 3853, "pitch": 61, "duration": 5, "velocity": 73}, {"time": 3856, "pitch": 68, "duration": 10, "velocity": 117}, {"time": 3859, "pitch": 56, "duration": 2, "velocity": 90}, {"time": 3862, "pitch": 61, "duration": 4, "velocity": 97}, {"time": 3865, "pitch": 64, "duration": 3, "velocity": 63}, {"time": 3868, "pitch": 42, "duration": 16, "velocity": 89}, {"time": 3871, "pitch": 49, "duration": 12, "velocity": 56}, {"time": 3874, "pitch": 54, "duration": 6, "velocity": 78}, {"time": 3877, "pitch": 57, "duration": 5, "velocity": 86}, {"time": 3880, "pitch": 66, "duration": 11, "velocity": 122}, {"time": 3883, "pitch": 54, "duration": 3, "velocity": 90}, {"time": 3886, "pitch": 61, "duration": 5, "velocity": 112}, {"time": 3889, "pitch": 57, "duration": 3, "velocity": 95}, {"time": 3892, "pitch": 44, "duration": 20, "velocity": 61}, {"time": 3895, "pitch": 51, "duration": 15, "velocity": 63}, {"time": 3898, "pitch": 56, "duration": 7, "velocity": 85}, {"time": 3901, "pitch": 59, "duration": 6, "velocity": 76}, {"time": 3904, "pitch": 68, "duration": 10, "velocity": 112}, {"time": 3907, "pitch": 56, "duration": 3, "velocity": 92}, {"time": 3910, "pitch": 63, "duration": 4, "velocity": 107}, {"time": 3913, "pitch": 59, "duration": 2, "velocity": 96}, {"time": 3916, "pitch": 40, "duration": 17, "velocity": 77}, {"time": 3919, "pitch": 47, "duration": 14, "velocity": 58}, {"time": 3922, "pitch": 52, "duration": 7, "velocity": 83}, {"time": 3925, "pitch": 59, "duration": 6, "velocity": 82}, {"time": 3928, "pitch": 68, "duration": 10, "velocity": 112}, {"time": 3931, "pitch": 52, "duration": 3, "velocity": 76}, {"time": 3934, "pitch": 64, "duration": 4, "velocity": 95}, {"time": 3937, "pitch": 59, "duration": 4, "velocity": 85}, {"time": 3940, "pitch": 47, "duration": 16, "velocity": 76}, {"time": 3943, "pitch": 54, "duration": 10, "velocity": 81}, {"time": 3946, "pitch": 59, "duration": 6, "velocity": 79}, {"time": 3949, "pitch": 63, "duration": 3, "velocity": 107}, {"time": 3952, "pitch": 66, "duration": 11, "velocity": 112}, {"time": 3955, "pitch": 54, "duration": 3, "velocity": 78}, {"time": 3958, "pitch": 63, "duration": 5, "velocity": 117}, {"time": 3961, "pitch": 59, "duration": 3, "velocity": 97}, {"time": 3964, "pitch": 44, "duration": 17, "velocity": 69}, {"time": 3967, "pitch": 56, "duration": 10, "velocity": 99}, {"time": 3970, "pitch": 59, "duration": 6, "velocity": 85}, {"time": 3973, "pitch": 63, "duration": 3, "velocity": 117}, {"time": 3976, "pitch": 68, "duration": 11, "velocity": 107}, {"time": 3979, "pitch": 56, "duration": 3, "velocity": 93}, {"time": 3982, "pitch": 59, "duration": 5, "velocity": 97}, {"time": 3985, "pitch": 63, "duration": 2, "velocity": 117}, {"time": 3988, "pitch": 49, "duration": 18, "velocity": 92}, {"time": 3991, "pitch": 52, "duration": 14, "velocity": 66}, {"time": 3994, "pitch": 56, "duration": 6, "velocity": 88}, {"time": 3997, "pitch": 61, "duration": 5, "velocity": 89}, {"time": 4000, "pitch": 68, "duration": 10, "velocity": 112}, {"time": 4003, "pitch": 56, "duration": 2, "velocity": 99}, {"time": 4006, "pitch": 64, "duration": 3, "velocity": 83}, {"time": 4009, "pitch": 37, "duration": 1, "velocity": 50}, {"time": 4009, "pitch": 61, "duration": 5, "velocity": 107}, {"time": 4012, "pitch": 37, "duration": 22, "velocity": 122}, {"time": 4015, "pitch": 49, "duration": 10, "velocity": 99}, {"time": 4018, "pitch": 61, "duration": 8, "velocity": 99}, {"time": 4021, "pitch": 64, "duration": 2, "velocity": 73}, {"time": 4024, "pitch": 68, "duration": 11, "velocity": 127}, {"time": 4027, "pitch": 49, "duration": 6, "velocity": 97}, {"time": 4030, "pitch": 64, "duration": 4, "velocity": 85}, {"time": 4033, "pitch": 61, "duration": 3, "velocity": 117}, {"time": 4036, "pitch": 37, "duration": 22, "velocity": 97}, {"time": 4039, "pitch": 44, "duration": 20, "velocity": 79}, {"time": 4042, "pitch": 49, "duration": 7, "velocity": 102}, {"time": 4045, "pitch": 52, "duration": 5, "velocity": 89}, {"time": 4048, "pitch": 61, "duration": 12, "velocity": 117}, {"time": 4051, "pitch": 49, "duration": 9, "velocity": 82}, {"time": 4054, "pitch": 56, "duration": 6, "velocity": 89}, {"time": 4057, "pitch": 52, "duration": 3, "velocity": 95}, {"time": 4060, "pitch": 37, "duration": 13, "velocity": 77}, {"time": 4063, "pitch": 44, "duration": 10, "velocity": 68}, {"time": 4066, "pitch": 49, "duration": 9, "velocity": 97}, {"time": 4069, "pitch": 61, "duration": 5, "velocity": 93}, {"time": 4072, "pitch": 68, "duration": 10, "velocity": 127}, {"time": 4075, "pitch": 61, "duration": 4, "velocity": 81}, {"time": 4078, "pitch": 64, "duration": 4, "velocity": 65}, {"time": 4081, "pitch": 61, "duration": 3, "velocity": 117}, {"time": 4084, "pitch": 42, "duration": 21, "velocity": 83}, {"time": 4087, "pitch": 49, "duration": 19, "velocity": 34}, {"time": 4090, "pitch": 54, "duration": 7, "velocity": 92}, {"time": 4093, "pitch": 57, "duration": 6, "velocity": 82}, {"time": 4096, "pitch": 66, "duration": 11, "velocity": 117}, {"time": 4099, "pitch": 54, "duration": 9, "velocity": 89}, {"time": 4102, "pitch": 61, "duration": 5, "velocity": 102}, {"time": 4105, "pitch": 57, "duration": 2, "velocity": 96}, {"time": 4108, "pitch": 42, "duration": 16, "velocity": 85}, {"time": 4111, "pitch": 49, "duration": 13, "velocity": 37}, {"time": 4114, "pitch": 54, "duration": 7, "velocity": 93}, {"time": 4117, "pitch": 66, "duration": 5, "velocity": 100}, {"time": 4120, "pitch": 73, "duration": 10, "velocity": 127}, {"time": 4123, "pitch": 54, "duration": 2, "velocity": 90}, {"time": 4126, "pitch": 69, "duration": 4, "velocity": 71}, {"time": 4129, "pitch": 66, "duration": 3, "velocity": 92}, {"time": 4132, "pitch": 47, "duration": 22, "velocity": 68}, {"time": 4135, "pitch": 54, "duration": 11, "velocity": 90}, {"time": 4138, "pitch": 59, "duration": 8, "velocity": 79}, {"time": 4141, "pitch": 63, "duration": 11, "velocity": 102}, {"time": 4144, "pitch": 66, "duration": 12, "velocity": 102}, {"time": 4147, "pitch": 54, "duration": 8, "velocity": 86}, {"time": 4150, "pitch": 59, "duration": 6, "velocity": 90}, {"time": 4153, "pitch": 63, "duration": 3, "velocity": 107}, {"time": 4156, "pitch": 47, "duration": 13, "velocity": 83}, {"time": 4159, "pitch": 54, "duration": 9, "velocity": 82}, {"time": 4162, "pitch": 59, "duration": 7, "velocity": 89}, {"time": 4168, "pitch": 49, "duration": 12, "velocity": 97}, {"time": 4168, "pitch": 56, "duration": 12, "velocity": 97}, {"time": 4168, "pitch": 61, "duration": 12, "velocity": 86}, {"time": 4168, "pitch": 64, "duration": 12, "velocity": 97}, {"time": 4168, "pitch": 68, "duration": 13, "velocity": 95}, {"time": 4180, "pitch": 44, "duration": 22, "velocity": 65}, {"time": 4183, "pitch": 51, "duration": 21, "velocity": 73}, {"time": 4186, "pitch": 56, "duration": 7, "velocity": 93}, {"time": 4189, "pitch": 60, "duration": 4, "velocity": 92}, {"time": 4192, "pitch": 63, "duration": 6, "velocity": 122}, {"time": 4195, "pitch": 56, "duration": 11, "velocity": 100}, {"time": 4198, "pitch": 60, "duration": 7, "velocity": 79}, {"time": 4201, "pitch": 68, "duration": 5, "velocity": 112}, {"time": 4204, "pitch": 44, "duration": 17, "velocity": 86}, {"time": 4207, "pitch": 51, "duration": 14, "velocity": 92}, {"time": 4210, "pitch": 56, "duration": 7, "velocity": 97}, {"time": 4213, "pitch": 68, "duration": 5, "velocity": 79}, {"time": 4216, "pitch": 75, "duration": 11, "velocity": 127}, {"time": 4219, "pitch": 56, "duration": 3, "velocity": 95}, {"time": 4222, "pitch": 72, "duration": 3, "velocity": 71}, {"time": 4225, "pitch": 68, "duration": 3, "velocity": 99}, {"time": 4228, "pitch": 49, "duration": 17, "velocity": 86}, {"time": 4231, "pitch": 52, "duration": 13, "velocity": 38}, {"time": 4234, "pitch": 56, "duration": 7, "velocity": 82}, {"time": 4237, "pitch": 61, "duration": 5, "velocity": 73}, {"time": 4240, "pitch": 68, "duration": 10, "velocity": 117}, {"time": 4243, "pitch": 56, "duration": 2, "velocity": 90}, {"time": 4246, "pitch": 61, "duration": 4, "velocity": 97}, {"time": 4249, "pitch": 64, "duration": 3, "velocity": 63}, {"time": 4252, "pitch": 40, "duration": 23, "velocity": 67}, {"time": 4255, "pitch": 47, "duration": 18, "velocity": 85}, {"time": 4258, "pitch": 52, "duration": 8, "velocity": 90}, {"time": 4261, "pitch": 56, "duration": 4, "velocity": 95}, {"time": 4264, "pitch": 64, "duration": 13, "velocity": 83}, {"time": 4267, "pitch": 52, "duration": 4, "velocity": 76}, {"time": 4270, "pitch": 59, "duration": 6, "velocity": 72}, {"time": 4273, "pitch": 56, "duration": 3, "velocity": 96}, {"time": 4276, "pitch": 44, "duration": 20, "velocity": 61}, {"time": 4279, "pitch": 51, "duration": 15, "velocity": 63}, {"time": 4282, "pitch": 56, "duration": 7, "velocity": 85}, {"time": 4285, "pitch": 59, "duration": 6, "velocity": 76}, {"time": 4288, "pitch": 68, "duration": 10, "velocity": 112}, {"time": 4291, "pitch": 56, "duration": 3, "velocity": 92}, {"time": 4294, "pitch": 63, "duration": 4, "velocity": 107}, {"time": 4297, "pitch": 59, "duration": 2, "velocity": 96}, {"time": 4300, "pitch": 40, "duration": 17, "velocity": 77}, {"time": 4303, "pitch": 47, "duration": 14, "velocity": 58}, {"time": 4306, "pitch": 52, "duration": 7, "velocity": 83}, {"time": 4309, "pitch": 59, "duration": 6, "velocity": 82}, {"time": 4312, "pitch": 68, "duration": 10, "velocity": 112}, {"time": 4315, "pitch": 52, "duration": 3, "velocity": 76}, {"time": 4318, "pitch": 64, "duration": 4, "velocity": 95}, {"time": 4321, "pitch": 59, "duration": 4, "velocity": 85}, {"time": 4324, "pitch": 47, "duration": 16, "velocity": 76}, {"time": 4327, "pitch": 54, "duration": 10, "velocity": 81}, {"time": 4330, "pitch": 59, "duration": 6, "velocity": 79}, {"time": 4333, "pitch": 63, "duration": 3, "velocity": 107}, {"time": 4336, "pitch": 66, "duration": 11, "velocity": 112}, {"time": 4339, "pitch": 54, "duration": 3, "velocity": 78}, {"time": 4342, "pitch": 63, "duration": 5, "velocity": 117}, {"time": 4345, "pitch": 59, "duration": 3, "velocity": 97}, {"time": 4348, "pitch": 44, "duration": 17, "velocity": 69}, {"time": 4351, "pitch": 56, "duration": 10, "velocity": 99}, {"time": 4354, "pitch": 59, "duration": 6, "velocity": 85}, {"time": 4357, "pitch": 63, "duration": 3, "velocity": 117}, {"time": 4360, "pitch": 68, "duration": 11, "velocity": 107}, {"time": 4363, "pitch": 56, "duration": 3, "velocity": 93}, {"time": 4366, "pitch": 59, "duration": 5, "velocity": 97}, {"time": 4369, "pitch": 63, "duration": 2, "velocity": 117}, {"time": 4372, "pitch": 49, "duration": 18, "velocity": 92}, {"time": 4375, "pitch": 52, "duration": 14, "velocity": 66}, {"time": 4378, "pitch": 56, "duration": 6, "velocity": 88}, {"time": 4381, "pitch": 61, "duration": 5, "velocity": 89}, {"time": 4384, "pitch": 68, "duration": 10, "velocity": 112}, {"time": 4387, "pitch": 56, "duration": 2, "velocity": 99}, {"time": 4390, "pitch": 64, "duration": 3, "velocity": 83}, {"time": 4393, "pitch": 37, "duration": 1, "velocity": 50}, {"time": 4393, "pitch": 61, "duration": 5, "velocity": 107}, {"time": 4396, "pitch": 37, "duration": 22, "velocity": 122}, {"time": 4399, "pitch": 49, "duration": 10, "velocity": 99}, {"time": 4402, "pitch": 61, "duration": 8, "velocity": 99}, {"time": 4405, "pitch": 64, "duration": 2, "velocity": 73}, {"time": 4408, "pitch": 68, "duration": 11, "velocity": 127}, {"time": 4411, "pitch": 49, "duration": 6, "velocity": 97}, {"time": 4414, "pitch": 64, "duration": 4, "velocity": 85}, {"time": 4417, "pitch": 61, "duration": 3, "velocity": 117}, {"time": 4420, "pitch": 37, "duration": 21, "velocity": 76}, {"time": 4423, "pitch": 44, "duration": 20, "velocity": 60}, {"time": 4426, "pitch": 49, "duration": 6, "velocity": 67}, {"time": 4429, "pitch": 61, "duration": 5, "velocity": 78}, {"time": 4432, "pitch": 68, "duration": 13, "velocity": 102}, {"time": 4435, "pitch": 49, "duration": 8, "velocity": 61}, {"time": 4438, "pitch": 64, "duration": 6, "velocity": 53}, {"time": 4441, "pitch": 61, "duration": 5, "velocity": 75}, {"time": 4444, "pitch": 37, "duration": 11, "velocity": 76}, {"time": 4447, "pitch": 44, "duration": 8, "velocity": 67}, {"time": 4450, "pitch": 49, "duration": 7, "velocity": 72}, {"time": 4453, "pitch": 61, "duration": 5, "velocity": 73}, {"time": 4456, "pitch": 68, "duration": 11, "velocity": 117}, {"time": 4459, "pitch": 61, "duration": 4, "velocity": 82}, {"time": 4462, "pitch": 64, "duration": 4, "velocity": 39}, {"time": 4465, "pitch": 61, "duration": 3, "velocity": 88}, {"time": 4468, "pitch": 42, "duration": 22, "velocity": 55}, {"time": 4471, "pitch": 49, "duration": 20, "velocity": 59}, {"time": 4474, "pitch": 54, "duration": 6, "velocity": 83}, {"time": 4477, "pitch": 57, "duration": 6, "velocity": 75}, {"time": 4480, "pitch": 66, "duration": 17, "velocity": 117}, {"time": 4483, "pitch": 54, "duration": 8, "velocity": 78}, {"time": 4486, "pitch": 61, "duration": 7, "velocity": 67}, {"time": 4489, "pitch": 57, "duration": 8, "velocity": 82}, {"time": 4492, "pitch": 42, "duration": 12, "velocity": 85}, {"time": 4495, "pitch": 49, "duration": 9, "velocity": 35}, {"time": 4498, "pitch": 54, "duration": 6, "velocity": 81}, {"time": 4501, "pitch": 57, "duration": 5, "velocity": 86}, {"time": 4504, "pitch": 66, "duration": 12, "velocity": 122}, {"time": 4507, "pitch": 61, "duration": 4, "velocity": 71}, {"time": 4510, "pitch": 57, "duration": 5, "velocity": 82}, {"time": 4513, "pitch": 61, "duration": 2, "velocity": 86}, {"time": 4516, "pitch": 47, "duration": 21, "velocity": 64}, {"time": 4519, "pitch": 54, "duration": 10, "velocity": 73}, {"time": 4522, "pitch": 59, "duration": 5, "velocity": 77}, {"time": 4525, "pitch": 63, "duration": 3, "velocity": 100}, {"time": 4528, "pitch": 66, "duration": 11, "velocity": 102}, {"time": 4531, "pitch": 54, "duration": 9, "velocity": 79}, {"time": 4534, "pitch": 63, "duration": 8, "velocity": 90}, {"time": 4537, "pitch": 59, "duration": 5, "velocity": 82}, {"time": 4540, "pitch": 47, "duration": 16, "velocity": 79}, {"time": 4543, "pitch": 54, "duration": 9, "velocity": 89}, {"time": 4546, "pitch": 59, "duration": 7, "velocity": 74}, {"time": 4549, "pitch": 63, "duration": 3, "velocity": 92}, {"time": 4552, "pitch": 66, "duration": 11, "velocity": 117}, {"time": 4555, "pitch": 54, "duration": 1, "velocity": 82}, {"time": 4558, "pitch": 63, "duration": 6, "velocity": 107}, {"time": 4561, "pitch": 59, "duration": 3, "velocity": 92}, {"time": 4564, "pitch": 44, "duration": 22, "velocity": 68}, {"time": 4567, "pitch": 51, "duration": 20, "velocity": 75}, {"time": 4570, "pitch": 56, "duration": 6, "velocity": 90}, {"time": 4573, "pitch": 60, "duration": 5, "velocity": 78}, {"time": 4576, "pitch": 68, "duration": 13, "velocity": 127}, {"time": 4579, "pitch": 56, "duration": 8, "velocity": 99}, {"time": 4582, "pitch": 63, "duration": 7, "velocity": 100}, {"time": 4585, "pitch": 60, "duration": 5, "velocity": 97}, {"time": 4588, "pitch": 44, "duration": 17, "velocity": 81}, {"time": 4591, "pitch": 51, "duration": 13, "velocity": 69}, {"time": 4594, "pitch": 56, "duration": 7, "velocity": 97}, {"time": 4597, "pitch": 63, "duration": 2, "velocity": 97}, {"time": 4597, "pitch": 68, "duration": 2, "velocity": 93}, {"time": 4600, "pitch": 63, "duration": 6, "velocity": 127}, {"time": 4600, "pitch": 68, "duration": 10, "velocity": 122}, {"time": 4603, "pitch": 56, "duration": 1, "velocity": 96}, {"time": 4606, "pitch": 59, "duration": 1, "velocity": 96}, {"time": 4606, "pitch": 60, "duration": 4, "velocity": 100}, {"time": 4609, "pitch": 63, "duration": 4, "velocity": 122}, {"time": 4612, "pitch": 37, "duration": 22, "velocity": 66}, {"time": 4615, "pitch": 44, "duration": 21, "velocity": 88}, {"time": 4618, "pitch": 49, "duration": 7, "velocity": 99}, {"time": 4621, "pitch": 52, "duration": 5, "velocity": 89}, {"time": 4624, "pitch": 61, "duration": 12, "velocity": 122}, {"time": 4627, "pitch": 49, "duration": 9, "velocity": 93}, {"time": 4630, "pitch": 56, "duration": 6, "velocity": 99}, {"time": 4633, "pitch": 52, "duration": 3, "velocity": 97}, {"time": 4636, "pitch": 37, "duration": 12, "velocity": 77}, {"time": 4639, "pitch": 44, "duration": 9, "velocity": 73}, {"time": 4642, "pitch": 49, "duration": 8, "velocity": 93}, {"time": 4645, "pitch": 61, "duration": 4, "velocity": 92}, {"time": 4648, "pitch": 68, "duration": 10, "velocity": 127}, {"time": 4651, "pitch": 61, "duration": 4, "velocity": 97}, {"time": 4654, "pitch": 64, "duration": 3, "velocity": 56}, {"time": 4657, "pitch": 61, "duration": 3, "velocity": 102}, {"time": 4660, "pitch": 42, "duration": 23, "velocity": 72}, {"time": 4663, "pitch": 49, "duration": 20, "velocity": 59}, {"time": 4666, "pitch": 54, "duration": 7, "velocity": 82}, {"time": 4669, "pitch": 57, "duration": 6, "velocity": 86}, {"time": 4672, "pitch": 66, "duration": 20, "velocity": 102}, {"time": 4675, "pitch": 54, "duration": 10, "velocity": 92}, {"time": 4678, "pitch": 61, "duration": 13, "velocity": 99}, {"time": 4681, "pitch": 57, "duration": 9, "velocity": 92}, {"time": 4684, "pitch": 42, "duration": 12, "velocity": 86}, {"time": 4687, "pitch": 49, "duration": 7, "velocity": 34}, {"time": 4690, "pitch": 54, "duration": 6, "velocity": 93}, {"time": 4693, "pitch": 57, "duration": 4, "velocity": 93}, {"time": 4696, "pitch": 66, "duration": 9, "velocity": 112}, {"time": 4699, "pitch": 57, "duration": 4, "velocity": 72}, {"time": 4702, "pitch": 61, "duration": 5, "velocity": 107}, {"time": 4705, "pitch": 57, "duration": 2, "velocity": 81}, {"time": 4708, "pitch": 47, "duration": 22, "velocity": 63}, {"time": 4711, "pitch": 54, "duration": 10, "velocity": 89}, {"time": 4714, "pitch": 59, "duration": 5, "velocity": 86}, {"time": 4717, "pitch": 63, "duration": 3, "velocity": 99}, {"time": 4720, "pitch": 66, "duration": 11, "velocity": 102}, {"time": 4723, "pitch": 54, "duration": 9, "velocity": 89}, {"time": 4726, "pitch": 63, "duration": 7, "velocity": 92}, {"time": 4729, "pitch": 59, "duration": 5, "velocity": 82}, {"time": 4732, "pitch": 47, "duration": 16, "velocity": 66}, {"time": 4735, "pitch": 54, "duration": 11, "velocity": 79}, {"time": 4738, "pitch": 59, "duration": 6, "velocity": 92}, {"time": 4741, "pitch": 63, "duration": 3, "velocity": 93}, {"time": 4744, "pitch": 66, "duration": 12, "velocity": 97}, {"time": 4747, "pitch": 63, "duration": 3, "velocity": 95}, {"time": 4750, "pitch": 59, "duration": 5, "velocity": 95}, {"time": 4753, "pitch": 63, "duration": 3, "velocity": 100}, {"time": 4756, "pitch": 37, "duration": 22, "velocity": 72}, {"time": 4759, "pitch": 44, "duration": 20, "velocity": 55}, {"time": 4762, "pitch": 49, "duration": 7, "velocity": 85}, {"time": 4765, "pitch": 52, "duration": 4, "velocity": 73}, {"time": 4768, "pitch": 56, "duration": 7, "velocity": 102}, {"time": 4771, "pitch": 49, "duration": 11, "velocity": 83}, {"time": 4774, "pitch": 52, "duration": 11, "velocity": 71}, {"time": 4777, "pitch": 61, "duration": 85, "velocity": 96}, {"time": 4780, "pitch": 37, "duration": 82, "velocity": 63}, {"time": 4783, "pitch": 44, "duration": 77, "velocity": 52}, {"time": 4786, "pitch": 49, "duration": 74, "velocity": 59}], "annotations": [{"time": 102, "annotation": {"number": 64, "value": 127}, "group": "control_change"}, {"time": 147, "annotation": {"number": 64, "value": 0}, "group": "control_change"}, {"time": 149, "annotation": {"number": 64, "value": 127}, "group": "control_change"}, {"time": 194, "annotation": {"number": 64, "value": 0}, "group": "control_change"}, {"time": 198, "annotation": {"number": 64, "value": 127}, "group": "control_change"}, {"time": 241, "annotation": {"number": 64, "value": 0}, "group": "control_change"}, {"time": 244, "annotation": {"number": 64, "value": 127}, "group": "control_change"}, {"time": 289, "annotation": {"number": 64, "value": 0}, "group": "control_change"}, {"time": 293, "annotation": {"number": 64, "value": 127}, "group": "control_change"}, {"time": 313, "annotation": {"number": 64, "value": 0}, "group": "control_change"}, {"time": 317, "annotation": {"number": 64, "value": 127}, "group": "control_change"}, {"time": 337, "annotation": {"number": 64, "value": 0}, "group": "control_change"}, {"time": 340, "annotation": {"number": 64, "value": 127}, "group": "control_change"}, {"time": 361, "annotation": {"number": 64, "value": 0}, "group": "control_change"}, {"time": 364, "annotation": {"number": 64, "value": 127}, "group": "control_change"}, {"time": 384, "annotation": {"number": 64, "value": 0}, "group": "control_change"}, {"time": 388, "annotation": {"number": 64, "value": 127}, "group": "control_change"}, {"time": 408, "annotation": {"number": 64, "value": 0}, "group": "control_change"}, {"time": 412, "annotation": {"number": 64, "value": 127}, "group": "control_change"}, {"time": 434, "annotation": {"number": 64, "value": 0}, "group": "control_change"}, {"time": 437, "annotation": {"number": 64, "value": 127}, "group": "control_change"}, {"time": 458, "annotation": {"number": 64, "value": 0}, "group": "control_change"}, {"time": 485, "annotation": {"number": 64, "value": 127}, "group": "control_change"}, {"time": 530, "annotation": {"number": 64, "value": 0}, "group": "control_change"}, {"time": 552, "annotation": {"number": 64, "value": 127}, "group": "control_change"}, {"time": 577, "annotation": {"number": 64, "value": 0}, "group": "control_change"}, {"time": 581, "annotation": {"number": 64, "value": 127}, "group": "control_change"}, {"time": 625, "annotation": {"number": 64, "value": 0}, "group": "control_change"}, {"time": 629, "annotation": {"number": 64, "value": 127}, "group": "control_change"}, {"time": 673, "annotation": {"number": 64, "value": 0}, "group": "control_change"}, {"time": 677, "annotation": {"number": 64, "value": 127}, "group": "control_change"}, {"time": 696, "annotation": {"number": 64, "value": 0}, "group": "control_change"}, {"time": 700, "annotation": {"number": 64, "value": 127}, "group": "control_change"}, {"time": 721, "annotation": {"number": 64, "value": 0}, "group": "control_change"}, {"time": 724, "annotation": {"number": 64, "value": 127}, "group": "control_change"}, {"time": 746, "annotation": {"number": 64, "value": 0}, "group": "control_change"}, {"time": 749, "annotation": {"number": 64, "value": 127}, "group": "control_change"}, {"time": 768, "annotation": {"number": 64, "value": 0}, "group": "control_change"}, {"time": 772, "annotation": {"number": 64, "value": 127}, "group": "control_change"}, {"time": 793, "annotation": {"number": 64, "value": 0}, "group": "control_change"}, {"time": 797, "annotation": {"number": 64, "value": 127}, "group": "control_change"}, {"time": 817, "annotation": {"number": 64, "value": 0}, "group": "control_change"}, {"time": 821, "annotation": {"number": 64, "value": 127}, "group": "control_change"}, {"time": 864, "annotation": {"number": 64, "value": 0}, "group": "control_change"}, {"time": 869, "annotation": {"number": 64, "value": 127}, "group": "control_change"}, {"time": 914, "annotation": {"number": 64, "value": 0}, "group": "control_change"}, {"time": 936, "annotation": {"number": 64, "value": 127}, "group": "control_change"}, {"time": 961, "annotation": {"number": 64, "value": 0}, "group": "control_change"}, {"time": 965, "annotation": {"number": 64, "value": 127}, "group": "control_change"}, {"time": 1009, "annotation": {"number": 64, "value": 0}, "group": "control_change"}, {"time": 1013, "annotation": {"number": 64, "value": 127}, "group": "control_change"}, {"time": 1057, "annotation": {"number": 64, "value": 0}, "group": "control_change"}, {"time": 1061, "annotation": {"number": 64, "value": 127}, "group": "control_change"}, {"time": 1080, "annotation": {"number": 64, "value": 0}, "group": "control_change"}, {"time": 1084, "annotation": {"number": 64, "value": 127}, "group": "control_change"}, {"time": 1105, "annotation": {"number": 64, "value": 0}, "group": "control_change"}, {"time": 1108, "annotation": {"number": 64, "value": 127}, "group": "control_change"}, {"time": 1130, "annotation": {"number": 64, "value": 0}, "group": "control_change"}, {"time": 1133, "annotation": {"number": 64, "value": 127}, "group": "control_change"}, {"time": 1152, "annotation": {"number": 64, "value": 0}, "group": "control_change"}, {"time": 1156, "annotation": {"number": 64, "value": 127}, "group": "control_change"}, {"time": 1177, "annotation": {"number": 64, "value": 0}, "group": "control_change"}, {"time": 1181, "annotation": {"number": 64, "value": 127}, "group": "control_change"}, {"time": 1201, "annotation": {"number": 64, "value": 0}, "group": "control_change"}, {"time": 1205, "annotation": {"number": 64, "value": 127}, "group": "control_change"}, {"time": 1248, "annotation": {"number": 64, "value": 0}, "group": "control_change"}, {"time": 1257, "annotation": {"number": 64, "value": 127}, "group": "control_change"}, {"time": 1274, "annotation": {"number": 64, "value": 0}, "group": "control_change"}, {"time": 1277, "annotation": {"number": 64, "value": 127}, "group": "control_change"}, {"time": 1286, "annotation": {"number": 64, "value": 0}, "group": "control_change"}, {"time": 1288, "annotation": {"number": 64, "value": 127}, "group": "control_change"}, {"time": 1295, "annotation": {"number": 64, "value": 0}, "group": "control_change"}, {"time": 1306, "annotation": {"number": 64, "value": 127}, "group": "control_change"}, {"time": 1321, "annotation": {"number": 64, "value": 0}, "group": "control_change"}, {"time": 1324, "annotation": {"number": 64, "value": 127}, "group": "control_change"}, {"time": 1345, "annotation": {"number": 64, "value": 0}, "group": "control_change"}, {"time": 1348, "annotation": {"number": 64, "value": 127}, "group": "control_change"}, {"time": 1369, "annotation": {"number": 64, "value": 0}, "group": "control_change"}, {"time": 1372, "annotation": {"number": 64, "value": 127}, "group": "control_change"}, {"time": 1393, "annotation": {"number": 64, "value": 0}, "group": "control_change"}, {"time": 1396, "annotation": {"number": 64, "value": 127}, "group": "control_change"}, {"time": 1417, "annotation": {"number": 64, "value": 0}, "group": "control_change"}, {"time": 1419, "annotation": {"number": 64, "value": 127}, "group": "control_change"}, {"time": 1441, "annotation": {"number": 64, "value": 0}, "group": "control_change"}, {"time": 1444, "annotation": {"number": 64, "value": 127}, "group": "control_change"}, {"time": 1466, "annotation": {"number": 64, "value": 0}, "group": "control_change"}, {"time": 1469, "annotation": {"number": 64, "value": 127}, "group": "control_change"}, {"time": 1488, "annotation": {"number": 64, "value": 0}, "group": "control_change"}, {"time": 1492, "annotation": {"number": 64, "value": 127}, "group": "control_change"}, {"time": 1495, "annotation": {"number": 64, "value": 0}, "group": "control_change"}, {"time": 1504, "annotation": {"number": 64, "value": 127}, "group": "control_change"}, {"time": 1512, "annotation": {"number": 64, "value": 0}, "group": "control_change"}, {"time": 1516, "annotation": {"number": 64, "value": 127}, "group": "control_change"}, {"time": 1536, "annotation": {"number": 64, "value": 0}, "group": "control_change"}, {"time": 1539, "annotation": {"number": 64, "value": 127}, "group": "control_change"}, {"time": 1560, "annotation": {"number": 64, "value": 0}, "group": "control_change"}, {"time": 1564, "annotation": {"number": 64, "value": 127}, "group": "control_change"}, {"time": 1584, "annotation": {"number": 64, "value": 0}, "group": "control_change"}, {"time": 1588, "annotation": {"number": 64, "value": 127}, "group": "control_change"}, {"time": 1608, "annotation": {"number": 64, "value": 0}, "group": "control_change"}, {"time": 1620, "annotation": {"number": 64, "value": 127}, "group": "control_change"}, {"time": 1631, "annotation": {"number": 64, "value": 0}, "group": "control_change"}, {"time": 1635, "annotation": {"number": 64, "value": 127}, "group": "control_change"}, {"time": 1655, "annotation": {"number": 64, "value": 0}, "group": "control_change"}, {"time": 1668, "annotation": {"number": 64, "value": 127}, "group": "control_change"}, {"time": 1668, "annotation": {"number": 64, "value": 0}, "group": "control_change"}, {"time": 1673, "annotation": {"number": 64, "value": 127}, "group": "control_change"}, {"time": 1677, "annotation": {"number": 64, "value": 0}, "group": "control_change"}, {"time": 1690, "annotation": {"number": 64, "value": 127}, "group": "control_change"}, {"time": 1705, "annotation": {"number": 64, "value": 0}, "group": "control_change"}, {"time": 1708, "annotation": {"number": 64, "value": 127}, "group": "control_change"}, {"time": 1729, "annotation": {"number": 64, "value": 0}, "group": "control_change"}, {"time": 1732, "annotation": {"number": 64, "value": 127}, "group": "control_change"}, {"time": 1753, "annotation": {"number": 64, "value": 0}, "group": "control_change"}, {"time": 1756, "annotation": {"number": 64, "value": 127}, "group": "control_change"}, {"time": 1777, "annotation": {"number": 64, "value": 0}, "group": "control_change"}, {"time": 1780, "annotation": {"number": 64, "value": 127}, "group": "control_change"}, {"time": 1801, "annotation": {"number": 64, "value": 0}, "group": "control_change"}, {"time": 1803, "annotation": {"number": 64, "value": 127}, "group": "control_change"}, {"time": 1825, "annotation": {"number": 64, "value": 0}, "group": "control_change"}, {"time": 1828, "annotation": {"number": 64, "value": 127}, "group": "control_change"}, {"time": 1850, "annotation": {"number": 64, "value": 0}, "group": "control_change"}, {"time": 1853, "annotation": {"number": 64, "value": 127}, "group": "control_change"}, {"time": 1872, "annotation": {"number": 64, "value": 0}, "group": "control_change"}, {"time": 1876, "annotation": {"number": 64, "value": 127}, "group": "control_change"}, {"time": 1879, "annotation": {"number": 64, "value": 0}, "group": "control_change"}, {"time": 1888, "annotation": {"number": 64, "value": 127}, "group": "control_change"}, {"time": 1896, "annotation": {"number": 64, "value": 0}, "group": "control_change"}, {"time": 1900, "annotation": {"number": 64, "value": 127}, "group": "control_change"}, {"time": 1921, "annotation": {"number": 64, "value": 0}, "group": "control_change"}, {"time": 1944, "annotation": {"number": 64, "value": 0}, "group": "control_change"}, {"time": 1948, "annotation": {"number": 64, "value": 127}, "group": "control_change"}, {"time": 1968, "annotation": {"number": 64, "value": 0}, "group": "control_change"}, {"time": 1972, "annotation": {"number": 64, "value": 127}, "group": "control_change"}, {"time": 1992, "annotation": {"number": 64, "value": 0}, "group": "control_change"}, {"time": 2004, "annotation": {"number": 64, "value": 127}, "group": "control_change"}, {"time": 2015, "annotation": {"number": 64, "value": 0}, "group": "control_change"}, {"time": 2019, "annotation": {"number": 64, "value": 127}, "group": "control_change"}, {"time": 2039, "annotation": {"number": 64, "value": 0}, "group": "control_change"}, {"time": 2052, "annotation": {"number": 64, "value": 127}, "group": "control_change"}, {"time": 2052, "annotation": {"number": 64, "value": 0}, "group": "control_change"}, {"time": 2057, "annotation": {"number": 64, "value": 127}, "group": "control_change"}, {"time": 2061, "annotation": {"number": 64, "value": 0}, "group": "control_change"}, {"time": 2068, "annotation": {"number": 64, "value": 127}, "group": "control_change"}, {"time": 2113, "annotation": {"number": 64, "value": 0}, "group": "control_change"}, {"time": 2115, "annotation": {"number": 64, "value": 127}, "group": "control_change"}, {"time": 2160, "annotation": {"number": 64, "value": 0}, "group": "control_change"}, {"time": 2163, "annotation": {"number": 64, "value": 127}, "group": "control_change"}, {"time": 2184, "annotation": {"number": 64, "value": 0}, "group": "control_change"}, {"time": 2188, "annotation": {"number": 64, "value": 127}, "group": "control_change"}, {"time": 2209, "annotation": {"number": 64, "value": 0}, "group": "control_change"}, {"time": 2211, "annotation": {"number": 64, "value": 127}, "group": "control_change"}, {"time": 2233, "annotation": {"number": 64, "value": 0}, "group": "control_change"}, {"time": 2235, "annotation": {"number": 64, "value": 127}, "group": "control_change"}, {"time": 2257, "annotation": {"number": 64, "value": 0}, "group": "control_change"}, {"time": 2261, "annotation": {"number": 64, "value": 127}, "group": "control_change"}, {"time": 2307, "annotation": {"number": 64, "value": 0}, "group": "control_change"}, {"time": 2311, "annotation": {"number": 64, "value": 127}, "group": "control_change"}, {"time": 2318, "annotation": {"number": 64, "value": 0}, "group": "control_change"}, {"time": 2318, "annotation": {"number": 64, "value": 127}, "group": "control_change"}, {"time": 2319, "annotation": {"number": 64, "value": 0}, "group": "control_change"}, {"time": 2328, "annotation": {"number": 64, "value": 127}, "group": "control_change"}, {"time": 2331, "annotation": {"number": 64, "value": 0}, "group": "control_change"}, {"time": 2332, "annotation": {"number": 64, "value": 127}, "group": "control_change"}, {"time": 2333, "annotation": {"number": 64, "value": 0}, "group": "control_change"}, {"time": 2340, "annotation": {"number": 64, "value": 127}, "group": "control_change"}, {"time": 2352, "annotation": {"number": 64, "value": 0}, "group": "control_change"}, {"time": 2358, "annotation": {"number": 64, "value": 127}, "group": "control_change"}, {"time": 2401, "annotation": {"number": 64, "value": 0}, "group": "control_change"}, {"time": 2404, "annotation": {"number": 64, "value": 127}, "group": "control_change"}, {"time": 2405, "annotation": {"number": 64, "value": 127}, "group": "control_change"}, {"time": 2425, "annotation": {"number": 64, "value": 0}, "group": "control_change"}, {"time": 2427, "annotation": {"number": 64, "value": 127}, "group": "control_change"}, {"time": 2446, "annotation": {"number": 64, "value": 0}, "group": "control_change"}, {"time": 2453, "annotation": {"number": 64, "value": 127}, "group": "control_change"}, {"time": 2498, "annotation": {"number": 64, "value": 0}, "group": "control_change"}, {"time": 2520, "annotation": {"number": 64, "value": 127}, "group": "control_change"}, {"time": 2545, "annotation": {"number": 64, "value": 0}, "group": "control_change"}, {"time": 2549, "annotation": {"number": 64, "value": 127}, "group": "control_change"}, {"time": 2593, "annotation": {"number": 64, "value": 0}, "group": "control_change"}, {"time": 2597, "annotation": {"number": 64, "value": 127}, "group": "control_change"}, {"time": 2641, "annotation": {"number": 64, "value": 0}, "group": "control_change"}, {"time": 2645, "annotation": {"number": 64, "value": 127}, "group": "control_change"}, {"time": 2664, "annotation": {"number": 64, "value": 0}, "group": "control_change"}, {"time": 2668, "annotation": {"number": 64, "value": 127}, "group": "control_change"}, {"time": 2689, "annotation": {"number": 64, "value": 0}, "group": "control_change"}, {"time": 2692, "annotation": {"number": 64, "value": 127}, "group": "control_change"}, {"time": 2714, "annotation": {"number": 64, "value": 0}, "group": "control_change"}, {"time": 2717, "annotation": {"number": 64, "value": 127}, "group": "control_change"}, {"time": 2736, "annotation": {"number": 64, "value": 0}, "group": "control_change"}, {"time": 2740, "annotation": {"number": 64, "value": 127}, "group": "control_change"}, {"time": 2761, "annotation": {"number": 64, "value": 0}, "group": "control_change"}, {"time": 2765, "annotation": {"number": 64, "value": 127}, "group": "control_change"}, {"time": 2785, "annotation": {"number": 64, "value": 0}, "group": "control_change"}, {"time": 2789, "annotation": {"number": 64, "value": 127}, "group": "control_change"}, {"time": 2832, "annotation": {"number": 64, "value": 0}, "group": "control_change"}, {"time": 2841, "annotation": {"number": 64, "value": 127}, "group": "control_change"}, {"time": 2858, "annotation": {"number": 64, "value": 0}, "group": "control_change"}, {"time": 2861, "annotation": {"number": 64, "value": 127}, "group": "control_change"}, {"time": 2870, "annotation": {"number": 64, "value": 0}, "group": "control_change"}, {"time": 2872, "annotation": {"number": 64, "value": 127}, "group": "control_change"}, {"time": 2879, "annotation": {"number": 64, "value": 0}, "group": "control_change"}, {"time": 2890, "annotation": {"number": 64, "value": 127}, "group": "control_change"}, {"time": 2905, "annotation": {"number": 64, "value": 0}, "group": "control_change"}, {"time": 2908, "annotation": {"number": 64, "value": 127}, "group": "control_change"}, {"time": 2929, "annotation": {"number": 64, "value": 0}, "group": "control_change"}, {"time": 2932, "annotation": {"number": 64, "value": 127}, "group": "control_change"}, {"time": 2953, "annotation": {"number": 64, "value": 0}, "group": "control_change"}, {"time": 2956, "annotation": {"number": 64, "value": 127}, "group": "control_change"}, {"time": 2977, "annotation": {"number": 64, "value": 0}, "group": "control_change"}, {"time": 2980, "annotation": {"number": 64, "value": 127}, "group": "control_change"}, {"time": 3001, "annotation": {"number": 64, "value": 0}, "group": "control_change"}, {"time": 3003, "annotation": {"number": 64, "value": 127}, "group": "control_change"}, {"time": 3017, "annotation": {"number": 64, "value": 0}, "group": "control_change"}, {"time": 3019, "annotation": {"number": 64, "value": 126}, "group": "control_change"}, {"time": 3028, "annotation": {"number": 64, "value": 127}, "group": "control_change"}, {"time": 3029, "annotation": {"number": 64, "value": 0}, "group": "control_change"}, {"time": 3030, "annotation": {"number": 64, "value": 124}, "group": "control_change"}, {"time": 3050, "annotation": {"number": 64, "value": 0}, "group": "control_change"}, {"time": 3053, "annotation": {"number": 64, "value": 127}, "group": "control_change"}, {"time": 3072, "annotation": {"number": 64, "value": 0}, "group": "control_change"}, {"time": 3076, "annotation": {"number": 64, "value": 127}, "group": "control_change"}, {"time": 3079, "annotation": {"number": 64, "value": 0}, "group": "control_change"}, {"time": 3088, "annotation": {"number": 64, "value": 127}, "group": "control_change"}, {"time": 3096, "annotation": {"number": 64, "value": 0}, "group": "control_change"}, {"time": 3100, "annotation": {"number": 64, "value": 127}, "group": "control_change"}, {"time": 3120, "annotation": {"number": 64, "value": 0}, "group": "control_change"}, {"time": 3123, "annotation": {"number": 64, "value": 127}, "group": "control_change"}, {"time": 3144, "annotation": {"number": 64, "value": 0}, "group": "control_change"}, {"time": 3148, "annotation": {"number": 64, "value": 127}, "group": "control_change"}, {"time": 3168, "annotation": {"number": 64, "value": 0}, "group": "control_change"}, {"time": 3172, "annotation": {"number": 64, "value": 127}, "group": "control_change"}, {"time": 3192, "annotation": {"number": 64, "value": 0}, "group": "control_change"}, {"time": 3204, "annotation": {"number": 64, "value": 127}, "group": "control_change"}, {"time": 3215, "annotation": {"number": 64, "value": 0}, "group": "control_change"}, {"time": 3219, "annotation": {"number": 64, "value": 127}, "group": "control_change"}, {"time": 3239, "annotation": {"number": 64, "value": 0}, "group": "control_change"}, {"time": 3252, "annotation": {"number": 64, "value": 127}, "group": "control_change"}, {"time": 3252, "annotation": {"number": 64, "value": 0}, "group": "control_change"}, {"time": 3257, "annotation": {"number": 64, "value": 127}, "group": "control_change"}, {"time": 3261, "annotation": {"number": 64, "value": 0}, "group": "control_change"}, {"time": 3274, "annotation": {"number": 64, "value": 127}, "group": "control_change"}, {"time": 3289, "annotation": {"number": 64, "value": 0}, "group": "control_change"}, {"time": 3292, "annotation": {"number": 64, "value": 127}, "group": "control_change"}, {"time": 3313, "annotation": {"number": 64, "value": 0}, "group": "control_change"}, {"time": 3316, "annotation": {"number": 64, "value": 127}, "group": "control_change"}, {"time": 3337, "annotation": {"number": 64, "value": 0}, "group": "control_change"}, {"time": 3340, "annotation": {"number": 64, "value": 127}, "group": "control_change"}, {"time": 3361, "annotation": {"number": 64, "value": 0}, "group": "control_change"}, {"time": 3364, "annotation": {"number": 64, "value": 127}, "group": "control_change"}, {"time": 3385, "annotation": {"number": 64, "value": 0}, "group": "control_change"}, {"time": 3387, "annotation": {"number": 64, "value": 127}, "group": "control_change"}, {"time": 3409, "annotation": {"number": 64, "value": 0}, "group": "control_change"}, {"time": 3412, "annotation": {"number": 64, "value": 127}, "group": "control_change"}, {"time": 3434, "annotation": {"number": 64, "value": 0}, "group": "control_change"}, {"time": 3437, "annotation": {"number": 64, "value": 127}, "group": "control_change"}, {"time": 3456, "annotation": {"number": 64, "value": 0}, "group": "control_change"}, {"time": 3460, "annotation": {"number": 64, "value": 127}, "group": "control_change"}, {"time": 3463, "annotation": {"number": 64, "value": 0}, "group": "control_change"}, {"time": 3472, "annotation": {"number": 64, "value": 127}, "group": "control_change"}, {"time": 3480, "annotation": {"number": 64, "value": 0}, "group": "control_change"}, {"time": 3484, "annotation": {"number": 64, "value": 127}, "group": "control_change"}, {"time": 3505, "annotation": {"number": 64, "value": 0}, "group": "control_change"}, {"time": 3528, "annotation": {"number": 64, "value": 0}, "group": "control_change"}, {"time": 3532, "annotation": {"number": 64, "value": 127}, "group": "control_change"}, {"time": 3552, "annotation": {"number": 64, "value": 0}, "group": "control_change"}, {"time": 3556, "annotation": {"number": 64, "value": 127}, "group": "control_change"}, {"time": 3576, "annotation": {"number": 64, "value": 0}, "group": "control_change"}, {"time": 3588, "annotation": {"number": 64, "value": 127}, "group": "control_change"}, {"time": 3599, "annotation": {"number": 64, "value": 0}, "group": "control_change"}, {"time": 3603, "annotation": {"number": 64, "value": 127}, "group": "control_change"}, {"time": 3623, "annotation": {"number": 64, "value": 0}, "group": "control_change"}, {"time": 3636, "annotation": {"number": 64, "value": 127}, "group": "control_change"}, {"time": 3636, "annotation": {"number": 64, "value": 0}, "group": "control_change"}, {"time": 3641, "annotation": {"number": 64, "value": 127}, "group": "control_change"}, {"time": 3645, "annotation": {"number": 64, "value": 0}, "group": "control_change"}, {"time": 3658, "annotation": {"number": 64, "value": 127}, "group": "control_change"}, {"time": 3673, "annotation": {"number": 64, "value": 0}, "group": "control_change"}, {"time": 3676, "annotation": {"number": 64, "value": 127}, "group": "control_change"}, {"time": 3697, "annotation": {"number": 64, "value": 0}, "group": "control_change"}, {"time": 3700, "annotation": {"number": 64, "value": 127}, "group": "control_change"}, {"time": 3721, "annotation": {"number": 64, "value": 0}, "group": "control_change"}, {"time": 3724, "annotation": {"number": 64, "value": 127}, "group": "control_change"}, {"time": 3745, "annotation": {"number": 64, "value": 0}, "group": "control_change"}, {"time": 3748, "annotation": {"number": 64, "value": 127}, "group": "control_change"}, {"time": 3769, "annotation": {"number": 64, "value": 0}, "group": "control_change"}, {"time": 3771, "annotation": {"number": 64, "value": 127}, "group": "control_change"}, {"time": 3783, "annotation": {"number": 64, "value": 0}, "group": "control_change"}, {"time": 3786, "annotation": {"number": 64, "value": 123}, "group": "control_change"}, {"time": 3796, "annotation": {"number": 64, "value": 127}, "group": "control_change"}, {"time": 3797, "annotation": {"number": 64, "value": 0}, "group": "control_change"}, {"time": 3800, "annotation": {"number": 64, "value": 126}, "group": "control_change"}, {"time": 3818, "annotation": {"number": 64, "value": 0}, "group": "control_change"}, {"time": 3823, "annotation": {"number": 64, "value": 126}, "group": "control_change"}, {"time": 3832, "annotation": {"number": 64, "value": 0}, "group": "control_change"}, {"time": 3835, "annotation": {"number": 64, "value": 125}, "group": "control_change"}, {"time": 3847, "annotation": {"number": 64, "value": 0}, "group": "control_change"}, {"time": 3856, "annotation": {"number": 64, "value": 127}, "group": "control_change"}, {"time": 3864, "annotation": {"number": 64, "value": 0}, "group": "control_change"}, {"time": 3868, "annotation": {"number": 64, "value": 127}, "group": "control_change"}, {"time": 3888, "annotation": {"number": 64, "value": 0}, "group": "control_change"}, {"time": 3891, "annotation": {"number": 64, "value": 127}, "group": "control_change"}, {"time": 3912, "annotation": {"number": 64, "value": 0}, "group": "control_change"}, {"time": 3916, "annotation": {"number": 64, "value": 127}, "group": "control_change"}, {"time": 3936, "annotation": {"number": 64, "value": 0}, "group": "control_change"}, {"time": 3940, "annotation": {"number": 64, "value": 127}, "group": "control_change"}, {"time": 3960, "annotation": {"number": 64, "value": 0}, "group": "control_change"}, {"time": 3972, "annotation": {"number": 64, "value": 127}, "group": "control_change"}, {"time": 3983, "annotation": {"number": 64, "value": 0}, "group": "control_change"}, {"time": 3987, "annotation": {"number": 64, "value": 127}, "group": "control_change"}, {"time": 4007, "annotation": {"number": 64, "value": 0}, "group": "control_change"}, {"time": 4020, "annotation": {"number": 64, "value": 127}, "group": "control_change"}, {"time": 4020, "annotation": {"number": 64, "value": 0}, "group": "control_change"}, {"time": 4025, "annotation": {"number": 64, "value": 127}, "group": "control_change"}, {"time": 4029, "annotation": {"number": 64, "value": 0}, "group": "control_change"}, {"time": 4042, "annotation": {"number": 64, "value": 127}, "group": "control_change"}, {"time": 4057, "annotation": {"number": 64, "value": 0}, "group": "control_change"}, {"time": 4060, "annotation": {"number": 64, "value": 127}, "group": "control_change"}, {"time": 4081, "annotation": {"number": 64, "value": 0}, "group": "control_change"}, {"time": 4084, "annotation": {"number": 64, "value": 127}, "group": "control_change"}, {"time": 4105, "annotation": {"number": 64, "value": 0}, "group": "control_change"}, {"time": 4108, "annotation": {"number": 64, "value": 127}, "group": "control_change"}, {"time": 4129, "annotation": {"number": 64, "value": 0}, "group": "control_change"}, {"time": 4132, "annotation": {"number": 64, "value": 127}, "group": "control_change"}, {"time": 4153, "annotation": {"number": 64, "value": 0}, "group": "control_change"}, {"time": 4155, "annotation": {"number": 64, "value": 127}, "group": "control_change"}, {"time": 4169, "annotation": {"number": 64, "value": 0}, "group": "control_change"}, {"time": 4172, "annotation": {"number": 64, "value": 126}, "group": "control_change"}, {"time": 4180, "annotation": {"number": 64, "value": 0}, "group": "control_change"}, {"time": 4184, "annotation": {"number": 64, "value": 127}, "group": "control_change"}, {"time": 4202, "annotation": {"number": 64, "value": 0}, "group": "control_change"}, {"time": 4205, "annotation": {"number": 64, "value": 127}, "group": "control_change"}, {"time": 4224, "annotation": {"number": 64, "value": 0}, "group": "control_change"}, {"time": 4228, "annotation": {"number": 64, "value": 127}, "group": "control_change"}, {"time": 4231, "annotation": {"number": 64, "value": 0}, "group": "control_change"}, {"time": 4240, "annotation": {"number": 64, "value": 127}, "group": "control_change"}, {"time": 4248, "annotation": {"number": 64, "value": 0}, "group": "control_change"}, {"time": 4252, "annotation": {"number": 64, "value": 127}, "group": "control_change"}, {"time": 4273, "annotation": {"number": 64, "value": 0}, "group": "control_change"}, {"time": 4296, "annotation": {"number": 64, "value": 0}, "group": "control_change"}, {"time": 4300, "annotation": {"number": 64, "value": 127}, "group": "control_change"}, {"time": 4320, "annotation": {"number": 64, "value": 0}, "group": "control_change"}, {"time": 4324, "annotation": {"number": 64, "value": 127}, "group": "control_change"}, {"time": 4344, "annotation": {"number": 64, "value": 0}, "group": "control_change"}, {"time": 4356, "annotation": {"number": 64, "value": 127}, "group": "control_change"}, {"time": 4367, "annotation": {"number": 64, "value": 0}, "group": "control_change"}, {"time": 4371, "annotation": {"number": 64, "value": 127}, "group": "control_change"}, {"time": 4391, "annotation": {"number": 64, "value": 0}, "group": "control_change"}, {"time": 4404, "annotation": {"number": 64, "value": 127}, "group": "control_change"}, {"time": 4404, "annotation": {"number": 64, "value": 0}, "group": "control_change"}, {"time": 4409, "annotation": {"number": 64, "value": 127}, "group": "control_change"}, {"time": 4413, "annotation": {"number": 64, "value": 0}, "group": "control_change"}, {"time": 4420, "annotation": {"number": 64, "value": 127}, "group": "control_change"}, {"time": 4441, "annotation": {"number": 64, "value": 0}, "group": "control_change"}, {"time": 4444, "annotation": {"number": 64, "value": 127}, "group": "control_change"}, {"time": 4465, "annotation": {"number": 64, "value": 0}, "group": "control_change"}, {"time": 4469, "annotation": {"number": 64, "value": 127}, "group": "control_change"}, {"time": 4489, "annotation": {"number": 64, "value": 0}, "group": "control_change"}, {"time": 4492, "annotation": {"number": 64, "value": 127}, "group": "control_change"}, {"time": 4512, "annotation": {"number": 64, "value": 0}, "group": "control_change"}, {"time": 4517, "annotation": {"number": 64, "value": 127}, "group": "control_change"}, {"time": 4536, "annotation": {"number": 64, "value": 0}, "group": "control_change"}, {"time": 4541, "annotation": {"number": 64, "value": 127}, "group": "control_change"}, {"time": 4561, "annotation": {"number": 64, "value": 0}, "group": "control_change"}, {"time": 4564, "annotation": {"number": 64, "value": 127}, "group": "control_change"}, {"time": 4585, "annotation": {"number": 64, "value": 0}, "group": "control_change"}, {"time": 4588, "annotation": {"number": 64, "value": 127}, "group": "control_change"}, {"time": 4608, "annotation": {"number": 64, "value": 0}, "group": "control_change"}, {"time": 4612, "annotation": {"number": 64, "value": 127}, "group": "control_change"}, {"time": 4632, "annotation": {"number": 64, "value": 0}, "group": "control_change"}, {"time": 4636, "annotation": {"number": 64, "value": 127}, "group": "control_change"}, {"time": 4657, "annotation": {"number": 64, "value": 0}, "group": "control_change"}, {"time": 4660, "annotation": {"number": 64, "value": 127}, "group": "control_change"}, {"time": 4680, "annotation": {"number": 64, "value": 0}, "group": "control_change"}, {"time": 4684, "annotation": {"number": 64, "value": 127}, "group": "control_change"}, {"time": 4705, "annotation": {"number": 64, "value": 0}, "group": "control_change"}, {"time": 4708, "annotation": {"number": 64, "value": 127}, "group": "control_change"}, {"time": 4753, "annotation": {"number": 64, "value": 0}, "group": "control_change"}, {"time": 4757, "annotation": {"number": 64, "value": 127}, "group": "control_change"}, {"time": 4777, "annotation": {"number": 64, "value": 0}, "group": "control_change"}, {"time": 4780, "annotation": {"number": 64, "value": 127}, "group": "control_change"}, {"time": 4847, "annotation": {"number": 64, "value": 0}, "group": "control_change"}]}]}