{"metadata": {"schema_version": "0.2", "title": "None", "source_filename": "393.mid", "source_format": "midi"}, "resolution": 12, "tempos": [{"time": 0, "qpm": 68.0000725334107}, {"time": 1308, "qpm": 67.80005763004898}, {"time": 1440, "qpm": 68.0000725334107}, {"time": 2136, "qpm": 67.80005763004898}, {"time": 2196, "qpm": 68.0000725334107}, {"time": 2448, "qpm": 67.90003304468274}], "time_signatures": [{"time": 0, "numerator": 1, "denominator": 4}], "tracks": [{"program": 4, "is_drum": false, "name": "MELODY", "notes": [{"time": 480, "pitch": 62, "duration": 2, "velocity": 97}, {"time": 484, "pitch": 62, "duration": 2, "velocity": 82}, {"time": 488, "pitch": 62, "duration": 2, "velocity": 88}, {"time": 492, "pitch": 62, "duration": 5, "velocity": 102}, {"time": 496, "pitch": 62, "duration": 1, "velocity": 96}, {"time": 500, "pitch": 64, "duration": 4, "velocity": 86}, {"time": 504, "pitch": 59, "duration": 16, "velocity": 99}, {"time": 520, "pitch": 59, "duration": 3, "velocity": 95}, {"time": 524, "pitch": 62, "duration": 4, "velocity": 97}, {"time": 528, "pitch": 67, "duration": 6, "velocity": 99}, {"time": 536, "pitch": 67, "duration": 3, "velocity": 100}, {"time": 540, "pitch": 66, "duration": 4, "velocity": 99}, {"time": 544, "pitch": 66, "duration": 4, "velocity": 97}, {"time": 548, "pitch": 62, "duration": 3, "velocity": 99}, {"time": 552, "pitch": 59, "duration": 13, "velocity": 97}, {"time": 568, "pitch": 59, "duration": 4, "velocity": 93}, {"time": 572, "pitch": 62, "duration": 3, "velocity": 88}, {"time": 576, "pitch": 67, "duration": 6, "velocity": 107}, {"time": 584, "pitch": 67, "duration": 3, "velocity": 112}, {"time": 588, "pitch": 66, "duration": 4, "velocity": 112}, {"time": 592, "pitch": 66, "duration": 3, "velocity": 112}, {"time": 596, "pitch": 62, "duration": 3, "velocity": 97}, {"time": 600, "pitch": 59, "duration": 13, "velocity": 90}, {"time": 616, "pitch": 59, "duration": 3, "velocity": 102}, {"time": 620, "pitch": 62, "duration": 3, "velocity": 93}, {"time": 624, "pitch": 64, "duration": 6, "velocity": 99}, {"time": 632, "pitch": 64, "duration": 5, "velocity": 102}, {"time": 640, "pitch": 62, "duration": 3, "velocity": 102}, {"time": 644, "pitch": 59, "duration": 4, "velocity": 81}, {"time": 648, "pitch": 57, "duration": 12, "velocity": 93}, {"time": 664, "pitch": 59, "duration": 3, "velocity": 100}, {"time": 668, "pitch": 57, "duration": 4, "velocity": 95}, {"time": 672, "pitch": 59, "duration": 6, "velocity": 117}, {"time": 680, "pitch": 59, "duration": 16, "velocity": 99}, {"time": 708, "pitch": 59, "duration": 4, "velocity": 117}, {"time": 712, "pitch": 66, "duration": 4, "velocity": 107}, {"time": 720, "pitch": 69, "duration": 7, "velocity": 102}, {"time": 724, "pitch": 67, "duration": 10, "velocity": 117}, {"time": 756, "pitch": 64, "duration": 6, "velocity": 117}, {"time": 764, "pitch": 62, "duration": 4, "velocity": 100}, {"time": 768, "pitch": 64, "duration": 6, "velocity": 117}, {"time": 776, "pitch": 67, "duration": 8, "velocity": 107}, {"time": 804, "pitch": 64, "duration": 4, "velocity": 112}, {"time": 808, "pitch": 66, "duration": 4, "velocity": 112}, {"time": 812, "pitch": 67, "duration": 3, "velocity": 100}, {"time": 816, "pitch": 69, "duration": 22, "velocity": 127}, {"time": 860, "pitch": 62, "duration": 4, "velocity": 96}, {"time": 864, "pitch": 71, "duration": 3, "velocity": 117}, {"time": 868, "pitch": 69, "duration": 2, "velocity": 122}, {"time": 872, "pitch": 67, "duration": 2, "velocity": 112}, {"time": 876, "pitch": 71, "duration": 2, "velocity": 122}, {"time": 880, "pitch": 69, "duration": 2, "velocity": 117}, {"time": 884, "pitch": 67, "duration": 3, "velocity": 99}, {"time": 888, "pitch": 69, "duration": 1, "velocity": 122}, {"time": 892, "pitch": 69, "duration": 2, "velocity": 122}, {"time": 896, "pitch": 69, "duration": 2, "velocity": 122}, {"time": 900, "pitch": 69, "duration": 2, "velocity": 127}, {"time": 904, "pitch": 71, "duration": 4, "velocity": 112}, {"time": 908, "pitch": 74, "duration": 6, "velocity": 112}, {"time": 916, "pitch": 67, "duration": 9, "velocity": 117}, {"time": 932, "pitch": 71, "duration": 4, "velocity": 117}, {"time": 936, "pitch": 69, "duration": 2, "velocity": 100}, {"time": 940, "pitch": 69, "duration": 2, "velocity": 93}, {"time": 944, "pitch": 69, "duration": 2, "velocity": 112}, {"time": 948, "pitch": 69, "duration": 3, "velocity": 117}, {"time": 952, "pitch": 66, "duration": 2, "velocity": 122}, {"time": 956, "pitch": 62, "duration": 3, "velocity": 107}, {"time": 960, "pitch": 67, "duration": 12, "velocity": 112}, {"time": 980, "pitch": 71, "duration": 4, "velocity": 117}, {"time": 984, "pitch": 69, "duration": 2, "velocity": 112}, {"time": 988, "pitch": 69, "duration": 2, "velocity": 102}, {"time": 992, "pitch": 69, "duration": 2, "velocity": 107}, {"time": 996, "pitch": 69, "duration": 2, "velocity": 112}, {"time": 1000, "pitch": 74, "duration": 4, "velocity": 127}, {"time": 1004, "pitch": 76, "duration": 5, "velocity": 99}, {"time": 1012, "pitch": 71, "duration": 7, "velocity": 107}, {"time": 1024, "pitch": 67, "duration": 3, "velocity": 96}, {"time": 1028, "pitch": 69, "duration": 3, "velocity": 107}, {"time": 1032, "pitch": 71, "duration": 4, "velocity": 107}, {"time": 1040, "pitch": 71, "duration": 2, "velocity": 127}, {"time": 1044, "pitch": 71, "duration": 2, "velocity": 127}, {"time": 1048, "pitch": 67, "duration": 2, "velocity": 112}, {"time": 1052, "pitch": 64, "duration": 2, "velocity": 112}, {"time": 1056, "pitch": 71, "duration": 2, "velocity": 127}, {"time": 1060, "pitch": 71, "duration": 2, "velocity": 102}, {"time": 1064, "pitch": 71, "duration": 2, "velocity": 122}, {"time": 1068, "pitch": 71, "duration": 2, "velocity": 127}, {"time": 1072, "pitch": 67, "duration": 3, "velocity": 112}, {"time": 1076, "pitch": 64, "duration": 3, "velocity": 112}, {"time": 1080, "pitch": 69, "duration": 19, "velocity": 127}, {"time": 1128, "pitch": 71, "duration": 3, "velocity": 117}, {"time": 1132, "pitch": 69, "duration": 2, "velocity": 122}, {"time": 1136, "pitch": 67, "duration": 2, "velocity": 112}, {"time": 1140, "pitch": 71, "duration": 2, "velocity": 122}, {"time": 1144, "pitch": 69, "duration": 2, "velocity": 117}, {"time": 1148, "pitch": 67, "duration": 3, "velocity": 99}, {"time": 1152, "pitch": 69, "duration": 1, "velocity": 122}, {"time": 1156, "pitch": 69, "duration": 2, "velocity": 122}, {"time": 1160, "pitch": 69, "duration": 2, "velocity": 122}, {"time": 1164, "pitch": 69, "duration": 2, "velocity": 127}, {"time": 1168, "pitch": 69, "duration": 4, "velocity": 112}, {"time": 1172, "pitch": 74, "duration": 6, "velocity": 112}, {"time": 1180, "pitch": 67, "duration": 9, "velocity": 117}, {"time": 1196, "pitch": 71, "duration": 4, "velocity": 117}, {"time": 1200, "pitch": 69, "duration": 2, "velocity": 100}, {"time": 1204, "pitch": 69, "duration": 2, "velocity": 93}, {"time": 1208, "pitch": 69, "duration": 2, "velocity": 112}, {"time": 1212, "pitch": 69, "duration": 3, "velocity": 117}, {"time": 1216, "pitch": 66, "duration": 2, "velocity": 122}, {"time": 1220, "pitch": 62, "duration": 3, "velocity": 107}, {"time": 1224, "pitch": 67, "duration": 12, "velocity": 112}, {"time": 1244, "pitch": 71, "duration": 4, "velocity": 117}, {"time": 1248, "pitch": 69, "duration": 2, "velocity": 112}, {"time": 1252, "pitch": 69, "duration": 2, "velocity": 102}, {"time": 1256, "pitch": 69, "duration": 2, "velocity": 107}, {"time": 1260, "pitch": 69, "duration": 2, "velocity": 112}, {"time": 1264, "pitch": 74, "duration": 4, "velocity": 127}, {"time": 1268, "pitch": 76, "duration": 5, "velocity": 99}, {"time": 1276, "pitch": 71, "duration": 7, "velocity": 107}, {"time": 1288, "pitch": 67, "duration": 3, "velocity": 96}, {"time": 1292, "pitch": 69, "duration": 3, "velocity": 107}, {"time": 1296, "pitch": 71, "duration": 4, "velocity": 107}, {"time": 1304, "pitch": 71, "duration": 2, "velocity": 127}, {"time": 1308, "pitch": 71, "duration": 2, "velocity": 127}, {"time": 1312, "pitch": 67, "duration": 2, "velocity": 112}, {"time": 1316, "pitch": 64, "duration": 2, "velocity": 112}, {"time": 1320, "pitch": 71, "duration": 6, "velocity": 122}, {"time": 1328, "pitch": 71, "duration": 5, "velocity": 117}, {"time": 1336, "pitch": 67, "duration": 3, "velocity": 102}, {"time": 1340, "pitch": 64, "duration": 3, "velocity": 112}, {"time": 1344, "pitch": 69, "duration": 29, "velocity": 112}, {"time": 1380, "pitch": 67, "duration": 2, "velocity": 117}, {"time": 1384, "pitch": 69, "duration": 7, "velocity": 127}, {"time": 1396, "pitch": 67, "duration": 22, "velocity": 127}, {"time": 1872, "pitch": 62, "duration": 2, "velocity": 97}, {"time": 1876, "pitch": 62, "duration": 2, "velocity": 82}, {"time": 1880, "pitch": 62, "duration": 2, "velocity": 88}, {"time": 1884, "pitch": 62, "duration": 5, "velocity": 102}, {"time": 1888, "pitch": 62, "duration": 1, "velocity": 96}, {"time": 1892, "pitch": 64, "duration": 4, "velocity": 86}, {"time": 1896, "pitch": 59, "duration": 16, "velocity": 99}, {"time": 1912, "pitch": 59, "duration": 3, "velocity": 95}, {"time": 1916, "pitch": 62, "duration": 4, "velocity": 97}, {"time": 1920, "pitch": 67, "duration": 6, "velocity": 99}, {"time": 1928, "pitch": 67, "duration": 3, "velocity": 100}, {"time": 1932, "pitch": 66, "duration": 4, "velocity": 99}, {"time": 1936, "pitch": 66, "duration": 4, "velocity": 97}, {"time": 1940, "pitch": 62, "duration": 3, "velocity": 99}, {"time": 1944, "pitch": 59, "duration": 13, "velocity": 97}, {"time": 1960, "pitch": 59, "duration": 4, "velocity": 93}, {"time": 1964, "pitch": 62, "duration": 3, "velocity": 88}, {"time": 1968, "pitch": 67, "duration": 6, "velocity": 107}, {"time": 1976, "pitch": 67, "duration": 3, "velocity": 112}, {"time": 1980, "pitch": 66, "duration": 4, "velocity": 112}, {"time": 1984, "pitch": 66, "duration": 3, "velocity": 112}, {"time": 1988, "pitch": 62, "duration": 3, "velocity": 97}, {"time": 1992, "pitch": 59, "duration": 13, "velocity": 90}, {"time": 2008, "pitch": 59, "duration": 3, "velocity": 102}, {"time": 2012, "pitch": 62, "duration": 3, "velocity": 93}, {"time": 2016, "pitch": 64, "duration": 6, "velocity": 99}, {"time": 2024, "pitch": 64, "duration": 5, "velocity": 102}, {"time": 2032, "pitch": 62, "duration": 3, "velocity": 102}, {"time": 2036, "pitch": 59, "duration": 4, "velocity": 81}, {"time": 2040, "pitch": 57, "duration": 12, "velocity": 93}, {"time": 2056, "pitch": 59, "duration": 3, "velocity": 100}, {"time": 2060, "pitch": 57, "duration": 4, "velocity": 95}, {"time": 2064, "pitch": 59, "duration": 6, "velocity": 117}, {"time": 2072, "pitch": 59, "duration": 16, "velocity": 99}, {"time": 2100, "pitch": 59, "duration": 4, "velocity": 117}, {"time": 2104, "pitch": 66, "duration": 4, "velocity": 107}, {"time": 2112, "pitch": 69, "duration": 7, "velocity": 102}, {"time": 2116, "pitch": 67, "duration": 10, "velocity": 117}, {"time": 2148, "pitch": 64, "duration": 6, "velocity": 117}, {"time": 2156, "pitch": 62, "duration": 4, "velocity": 100}, {"time": 2160, "pitch": 64, "duration": 6, "velocity": 117}, {"time": 2168, "pitch": 67, "duration": 8, "velocity": 107}, {"time": 2196, "pitch": 64, "duration": 4, "velocity": 112}, {"time": 2200, "pitch": 66, "duration": 4, "velocity": 112}, {"time": 2204, "pitch": 67, "duration": 3, "velocity": 100}, {"time": 2208, "pitch": 69, "duration": 22, "velocity": 127}, {"time": 2252, "pitch": 62, "duration": 4, "velocity": 96}, {"time": 2256, "pitch": 71, "duration": 3, "velocity": 117}, {"time": 2260, "pitch": 69, "duration": 2, "velocity": 122}, {"time": 2264, "pitch": 67, "duration": 2, "velocity": 112}, {"time": 2268, "pitch": 71, "duration": 2, "velocity": 122}, {"time": 2272, "pitch": 69, "duration": 2, "velocity": 117}, {"time": 2276, "pitch": 67, "duration": 3, "velocity": 99}, {"time": 2280, "pitch": 69, "duration": 1, "velocity": 122}, {"time": 2284, "pitch": 69, "duration": 2, "velocity": 122}, {"time": 2288, "pitch": 69, "duration": 2, "velocity": 122}, {"time": 2292, "pitch": 69, "duration": 2, "velocity": 127}, {"time": 2296, "pitch": 71, "duration": 4, "velocity": 112}, {"time": 2300, "pitch": 74, "duration": 6, "velocity": 112}, {"time": 2308, "pitch": 67, "duration": 9, "velocity": 117}, {"time": 2324, "pitch": 71, "duration": 4, "velocity": 117}, {"time": 2328, "pitch": 69, "duration": 2, "velocity": 100}, {"time": 2332, "pitch": 69, "duration": 2, "velocity": 93}, {"time": 2336, "pitch": 69, "duration": 2, "velocity": 112}, {"time": 2340, "pitch": 69, "duration": 3, "velocity": 117}, {"time": 2344, "pitch": 66, "duration": 2, "velocity": 122}, {"time": 2348, "pitch": 62, "duration": 3, "velocity": 107}, {"time": 2352, "pitch": 67, "duration": 12, "velocity": 112}, {"time": 2372, "pitch": 71, "duration": 4, "velocity": 117}, {"time": 2376, "pitch": 69, "duration": 2, "velocity": 112}, {"time": 2380, "pitch": 69, "duration": 2, "velocity": 102}, {"time": 2384, "pitch": 69, "duration": 2, "velocity": 107}, {"time": 2388, "pitch": 69, "duration": 2, "velocity": 112}, {"time": 2392, "pitch": 74, "duration": 4, "velocity": 127}, {"time": 2396, "pitch": 76, "duration": 5, "velocity": 99}, {"time": 2404, "pitch": 71, "duration": 7, "velocity": 107}, {"time": 2416, "pitch": 67, "duration": 3, "velocity": 96}, {"time": 2420, "pitch": 69, "duration": 3, "velocity": 107}, {"time": 2424, "pitch": 71, "duration": 4, "velocity": 107}, {"time": 2432, "pitch": 71, "duration": 2, "velocity": 127}, {"time": 2436, "pitch": 71, "duration": 2, "velocity": 127}, {"time": 2440, "pitch": 67, "duration": 2, "velocity": 112}, {"time": 2444, "pitch": 64, "duration": 2, "velocity": 112}, {"time": 2448, "pitch": 71, "duration": 2, "velocity": 127}, {"time": 2452, "pitch": 71, "duration": 2, "velocity": 102}, {"time": 2456, "pitch": 71, "duration": 2, "velocity": 122}, {"time": 2460, "pitch": 71, "duration": 2, "velocity": 127}, {"time": 2464, "pitch": 67, "duration": 3, "velocity": 112}, {"time": 2468, "pitch": 64, "duration": 3, "velocity": 112}, {"time": 2472, "pitch": 69, "duration": 19, "velocity": 127}, {"time": 2520, "pitch": 71, "duration": 3, "velocity": 117}, {"time": 2524, "pitch": 69, "duration": 2, "velocity": 122}, {"time": 2528, "pitch": 67, "duration": 2, "velocity": 112}, {"time": 2532, "pitch": 71, "duration": 2, "velocity": 122}, {"time": 2536, "pitch": 69, "duration": 2, "velocity": 117}, {"time": 2540, "pitch": 67, "duration": 3, "velocity": 99}, {"time": 2544, "pitch": 69, "duration": 1, "velocity": 122}, {"time": 2548, "pitch": 69, "duration": 2, "velocity": 122}, {"time": 2552, "pitch": 69, "duration": 2, "velocity": 122}, {"time": 2556, "pitch": 69, "duration": 2, "velocity": 127}, {"time": 2560, "pitch": 69, "duration": 4, "velocity": 112}, {"time": 2564, "pitch": 74, "duration": 6, "velocity": 112}, {"time": 2572, "pitch": 67, "duration": 9, "velocity": 117}, {"time": 2588, "pitch": 71, "duration": 4, "velocity": 117}, {"time": 2592, "pitch": 69, "duration": 2, "velocity": 100}, {"time": 2596, "pitch": 69, "duration": 2, "velocity": 93}, {"time": 2600, "pitch": 69, "duration": 2, "velocity": 112}, {"time": 2604, "pitch": 69, "duration": 3, "velocity": 117}, {"time": 2608, "pitch": 66, "duration": 2, "velocity": 122}, {"time": 2612, "pitch": 62, "duration": 3, "velocity": 107}, {"time": 2616, "pitch": 67, "duration": 12, "velocity": 112}, {"time": 2636, "pitch": 71, "duration": 4, "velocity": 117}, {"time": 2640, "pitch": 69, "duration": 2, "velocity": 112}, {"time": 2644, "pitch": 69, "duration": 2, "velocity": 102}, {"time": 2648, "pitch": 69, "duration": 2, "velocity": 107}, {"time": 2652, "pitch": 69, "duration": 2, "velocity": 112}, {"time": 2656, "pitch": 74, "duration": 4, "velocity": 127}, {"time": 2660, "pitch": 76, "duration": 5, "velocity": 99}, {"time": 2668, "pitch": 71, "duration": 7, "velocity": 107}, {"time": 2680, "pitch": 67, "duration": 3, "velocity": 96}, {"time": 2684, "pitch": 69, "duration": 3, "velocity": 107}, {"time": 2688, "pitch": 71, "duration": 4, "velocity": 107}, {"time": 2696, "pitch": 71, "duration": 2, "velocity": 127}, {"time": 2700, "pitch": 71, "duration": 2, "velocity": 127}, {"time": 2704, "pitch": 67, "duration": 2, "velocity": 112}, {"time": 2708, "pitch": 64, "duration": 2, "velocity": 112}, {"time": 2712, "pitch": 71, "duration": 6, "velocity": 122}, {"time": 2720, "pitch": 71, "duration": 5, "velocity": 117}, {"time": 2728, "pitch": 67, "duration": 3, "velocity": 102}, {"time": 2732, "pitch": 64, "duration": 3, "velocity": 112}, {"time": 2736, "pitch": 69, "duration": 29, "velocity": 112}, {"time": 2772, "pitch": 67, "duration": 2, "velocity": 117}, {"time": 2776, "pitch": 69, "duration": 7, "velocity": 127}, {"time": 2788, "pitch": 67, "duration": 22, "velocity": 127}, {"time": 2876, "pitch": 62, "duration": 4, "velocity": 96}, {"time": 2880, "pitch": 71, "duration": 3, "velocity": 117}, {"time": 2884, "pitch": 69, "duration": 2, "velocity": 122}, {"time": 2888, "pitch": 67, "duration": 2, "velocity": 112}, {"time": 2892, "pitch": 71, "duration": 2, "velocity": 122}, {"time": 2896, "pitch": 69, "duration": 2, "velocity": 117}, {"time": 2900, "pitch": 67, "duration": 3, "velocity": 99}, {"time": 2904, "pitch": 69, "duration": 1, "velocity": 122}, {"time": 2908, "pitch": 69, "duration": 2, "velocity": 122}, {"time": 2912, "pitch": 69, "duration": 2, "velocity": 122}, {"time": 2916, "pitch": 69, "duration": 2, "velocity": 127}, {"time": 2920, "pitch": 71, "duration": 4, "velocity": 112}, {"time": 2924, "pitch": 74, "duration": 6, "velocity": 112}, {"time": 2932, "pitch": 67, "duration": 9, "velocity": 117}, {"time": 2948, "pitch": 71, "duration": 4, "velocity": 117}, {"time": 2952, "pitch": 69, "duration": 2, "velocity": 100}, {"time": 2956, "pitch": 69, "duration": 2, "velocity": 93}, {"time": 2960, "pitch": 69, "duration": 2, "velocity": 112}, {"time": 2964, "pitch": 69, "duration": 3, "velocity": 117}, {"time": 2968, "pitch": 66, "duration": 2, "velocity": 122}, {"time": 2972, "pitch": 62, "duration": 3, "velocity": 107}, {"time": 2976, "pitch": 67, "duration": 12, "velocity": 112}, {"time": 2996, "pitch": 71, "duration": 4, "velocity": 117}, {"time": 3000, "pitch": 69, "duration": 2, "velocity": 112}, {"time": 3004, "pitch": 69, "duration": 2, "velocity": 102}, {"time": 3008, "pitch": 69, "duration": 2, "velocity": 107}, {"time": 3012, "pitch": 69, "duration": 2, "velocity": 112}, {"time": 3016, "pitch": 74, "duration": 4, "velocity": 127}, {"time": 3020, "pitch": 76, "duration": 5, "velocity": 99}, {"time": 3028, "pitch": 71, "duration": 7, "velocity": 107}, {"time": 3040, "pitch": 67, "duration": 3, "velocity": 96}, {"time": 3044, "pitch": 69, "duration": 3, "velocity": 107}, {"time": 3048, "pitch": 71, "duration": 4, "velocity": 107}, {"time": 3056, "pitch": 71, "duration": 2, "velocity": 127}, {"time": 3060, "pitch": 71, "duration": 2, "velocity": 127}, {"time": 3064, "pitch": 67, "duration": 2, "velocity": 112}, {"time": 3068, "pitch": 64, "duration": 2, "velocity": 112}, {"time": 3072, "pitch": 71, "duration": 2, "velocity": 127}, {"time": 3076, "pitch": 71, "duration": 2, "velocity": 102}, {"time": 3080, "pitch": 71, "duration": 2, "velocity": 122}, {"time": 3084, "pitch": 71, "duration": 2, "velocity": 127}, {"time": 3088, "pitch": 67, "duration": 3, "velocity": 112}, {"time": 3092, "pitch": 64, "duration": 3, "velocity": 112}, {"time": 3096, "pitch": 69, "duration": 19, "velocity": 127}, {"time": 3144, "pitch": 71, "duration": 3, "velocity": 117}, {"time": 3148, "pitch": 69, "duration": 2, "velocity": 122}, {"time": 3152, "pitch": 67, "duration": 2, "velocity": 112}, {"time": 3156, "pitch": 71, "duration": 2, "velocity": 122}, {"time": 3160, "pitch": 69, "duration": 2, "velocity": 117}, {"time": 3164, "pitch": 67, "duration": 3, "velocity": 99}, {"time": 3168, "pitch": 69, "duration": 1, "velocity": 122}, {"time": 3172, "pitch": 69, "duration": 2, "velocity": 122}, {"time": 3176, "pitch": 69, "duration": 2, "velocity": 122}, {"time": 3180, "pitch": 69, "duration": 2, "velocity": 127}, {"time": 3184, "pitch": 69, "duration": 4, "velocity": 112}, {"time": 3188, "pitch": 74, "duration": 6, "velocity": 112}, {"time": 3196, "pitch": 67, "duration": 9, "velocity": 117}, {"time": 3212, "pitch": 71, "duration": 4, "velocity": 117}, {"time": 3216, "pitch": 69, "duration": 2, "velocity": 100}, {"time": 3220, "pitch": 69, "duration": 2, "velocity": 93}, {"time": 3224, "pitch": 69, "duration": 2, "velocity": 112}, {"time": 3228, "pitch": 69, "duration": 3, "velocity": 117}, {"time": 3232, "pitch": 66, "duration": 2, "velocity": 122}, {"time": 3236, "pitch": 62, "duration": 3, "velocity": 107}, {"time": 3240, "pitch": 67, "duration": 12, "velocity": 112}, {"time": 3260, "pitch": 71, "duration": 4, "velocity": 117}, {"time": 3264, "pitch": 69, "duration": 2, "velocity": 112}, {"time": 3268, "pitch": 69, "duration": 2, "velocity": 102}, {"time": 3272, "pitch": 69, "duration": 2, "velocity": 107}, {"time": 3276, "pitch": 69, "duration": 2, "velocity": 112}, {"time": 3280, "pitch": 74, "duration": 4, "velocity": 127}, {"time": 3284, "pitch": 76, "duration": 5, "velocity": 99}, {"time": 3292, "pitch": 71, "duration": 7, "velocity": 107}, {"time": 3304, "pitch": 67, "duration": 3, "velocity": 96}, {"time": 3308, "pitch": 69, "duration": 3, "velocity": 107}, {"time": 3312, "pitch": 71, "duration": 4, "velocity": 107}, {"time": 3320, "pitch": 71, "duration": 2, "velocity": 127}, {"time": 3324, "pitch": 71, "duration": 2, "velocity": 127}, {"time": 3328, "pitch": 67, "duration": 2, "velocity": 112}, {"time": 3332, "pitch": 64, "duration": 2, "velocity": 112}, {"time": 3336, "pitch": 71, "duration": 6, "velocity": 122}, {"time": 3344, "pitch": 71, "duration": 5, "velocity": 117}, {"time": 3352, "pitch": 67, "duration": 3, "velocity": 102}, {"time": 3356, "pitch": 64, "duration": 3, "velocity": 112}, {"time": 3360, "pitch": 69, "duration": 29, "velocity": 112}, {"time": 3396, "pitch": 67, "duration": 2, "velocity": 117}, {"time": 3400, "pitch": 69, "duration": 7, "velocity": 127}, {"time": 3412, "pitch": 67, "duration": 22, "velocity": 127}]}, {"program": 0, "is_drum": false, "name": "PIANO", "notes": [{"time": 20, "pitch": 43, "duration": 26, "velocity": 63}, {"time": 20, "pitch": 59, "duration": 26, "velocity": 41}, {"time": 20, "pitch": 62, "duration": 26, "velocity": 51}, {"time": 20, "pitch": 66, "duration": 26, "velocity": 39}, {"time": 20, "pitch": 67, "duration": 26, "velocity": 42}, {"time": 48, "pitch": 43, "duration": 22, "velocity": 78}, {"time": 52, "pitch": 50, "duration": 12, "velocity": 68}, {"time": 56, "pitch": 55, "duration": 6, "velocity": 89}, {"time": 60, "pitch": 59, "duration": 1, "velocity": 37}, {"time": 60, "pitch": 67, "duration": 22, "velocity": 96}, {"time": 64, "pitch": 50, "duration": 8, "velocity": 52}, {"time": 68, "pitch": 62, "duration": 15, "velocity": 67}, {"time": 72, "pitch": 43, "duration": 15, "velocity": 81}, {"time": 80, "pitch": 50, "duration": 6, "velocity": 61}, {"time": 84, "pitch": 67, "duration": 10, "velocity": 99}, {"time": 88, "pitch": 62, "duration": 7, "velocity": 77}, {"time": 92, "pitch": 59, "duration": 4, "velocity": 78}, {"time": 96, "pitch": 42, "duration": 39, "velocity": 90}, {"time": 100, "pitch": 54, "duration": 32, "velocity": 65}, {"time": 104, "pitch": 57, "duration": 8, "velocity": 66}, {"time": 108, "pitch": 66, "duration": 12, "velocity": 112}, {"time": 112, "pitch": 62, "duration": 5, "velocity": 59}, {"time": 116, "pitch": 57, "duration": 21, "velocity": 76}, {"time": 120, "pitch": 66, "duration": 10, "velocity": 97}, {"time": 132, "pitch": 66, "duration": 7, "velocity": 100}, {"time": 136, "pitch": 62, "duration": 7, "velocity": 63}, {"time": 140, "pitch": 57, "duration": 4, "velocity": 83}, {"time": 144, "pitch": 40, "duration": 22, "velocity": 86}, {"time": 148, "pitch": 47, "duration": 20, "velocity": 49}, {"time": 152, "pitch": 52, "duration": 17, "velocity": 93}, {"time": 156, "pitch": 67, "duration": 22, "velocity": 97}, {"time": 160, "pitch": 64, "duration": 19, "velocity": 78}, {"time": 164, "pitch": 59, "duration": 18, "velocity": 76}, {"time": 168, "pitch": 40, "duration": 14, "velocity": 71}, {"time": 172, "pitch": 47, "duration": 10, "velocity": 52}, {"time": 176, "pitch": 52, "duration": 3, "velocity": 66}, {"time": 180, "pitch": 67, "duration": 10, "velocity": 100}, {"time": 184, "pitch": 64, "duration": 6, "velocity": 86}, {"time": 188, "pitch": 59, "duration": 4, "velocity": 92}, {"time": 192, "pitch": 38, "duration": 22, "velocity": 74}, {"time": 196, "pitch": 45, "duration": 21, "velocity": 51}, {"time": 200, "pitch": 50, "duration": 6, "velocity": 86}, {"time": 204, "pitch": 66, "duration": 6, "velocity": 96}, {"time": 208, "pitch": 50, "duration": 4, "velocity": 82}, {"time": 212, "pitch": 66, "duration": 6, "velocity": 92}, {"time": 216, "pitch": 38, "duration": 17, "velocity": 63}, {"time": 216, "pitch": 62, "duration": 10, "velocity": 68}, {"time": 220, "pitch": 45, "duration": 10, "velocity": 54}, {"time": 224, "pitch": 50, "duration": 5, "velocity": 86}, {"time": 228, "pitch": 66, "duration": 8, "velocity": 127}, {"time": 232, "pitch": 45, "duration": 2, "velocity": 63}, {"time": 236, "pitch": 62, "duration": 4, "velocity": 107}, {"time": 240, "pitch": 36, "duration": 22, "velocity": 97}, {"time": 244, "pitch": 43, "duration": 20, "velocity": 83}, {"time": 248, "pitch": 48, "duration": 6, "velocity": 75}, {"time": 252, "pitch": 67, "duration": 12, "velocity": 127}, {"time": 256, "pitch": 48, "duration": 3, "velocity": 72}, {"time": 260, "pitch": 64, "duration": 8, "velocity": 79}, {"time": 264, "pitch": 36, "duration": 14, "velocity": 71}, {"time": 268, "pitch": 43, "duration": 11, "velocity": 31}, {"time": 272, "pitch": 48, "duration": 10, "velocity": 57}, {"time": 276, "pitch": 67, "duration": 11, "velocity": 82}, {"time": 280, "pitch": 64, "duration": 6, "velocity": 72}, {"time": 284, "pitch": 60, "duration": 4, "velocity": 67}, {"time": 288, "pitch": 47, "duration": 22, "velocity": 61}, {"time": 292, "pitch": 54, "duration": 20, "velocity": 47}, {"time": 296, "pitch": 59, "duration": 6, "velocity": 76}, {"time": 300, "pitch": 66, "duration": 22, "velocity": 112}, {"time": 304, "pitch": 62, "duration": 18, "velocity": 59}, {"time": 308, "pitch": 59, "duration": 10, "velocity": 88}, {"time": 312, "pitch": 47, "duration": 16, "velocity": 70}, {"time": 316, "pitch": 54, "duration": 11, "velocity": 83}, {"time": 320, "pitch": 59, "duration": 6, "velocity": 72}, {"time": 324, "pitch": 66, "duration": 10, "velocity": 127}, {"time": 328, "pitch": 62, "duration": 6, "velocity": 86}, {"time": 332, "pitch": 59, "duration": 5, "velocity": 93}, {"time": 336, "pitch": 45, "duration": 11, "velocity": 83}, {"time": 340, "pitch": 57, "duration": 5, "velocity": 88}, {"time": 344, "pitch": 64, "duration": 6, "velocity": 99}, {"time": 348, "pitch": 47, "duration": 11, "velocity": 102}, {"time": 352, "pitch": 59, "duration": 6, "velocity": 70}, {"time": 356, "pitch": 64, "duration": 3, "velocity": 95}, {"time": 360, "pitch": 48, "duration": 11, "velocity": 95}, {"time": 364, "pitch": 60, "duration": 2, "velocity": 66}, {"time": 368, "pitch": 60, "duration": 4, "velocity": 89}, {"time": 372, "pitch": 49, "duration": 11, "velocity": 88}, {"time": 376, "pitch": 61, "duration": 4, "velocity": 86}, {"time": 380, "pitch": 61, "duration": 4, "velocity": 95}, {"time": 384, "pitch": 50, "duration": 20, "velocity": 89}, {"time": 388, "pitch": 62, "duration": 4, "velocity": 59}, {"time": 392, "pitch": 57, "duration": 6, "velocity": 72}, {"time": 396, "pitch": 66, "duration": 12, "velocity": 117}, {"time": 400, "pitch": 57, "duration": 8, "velocity": 77}, {"time": 404, "pitch": 64, "duration": 4, "velocity": 56}, {"time": 408, "pitch": 38, "duration": 21, "velocity": 77}, {"time": 412, "pitch": 45, "duration": 20, "velocity": 42}, {"time": 416, "pitch": 57, "duration": 17, "velocity": 53}, {"time": 420, "pitch": 62, "duration": 13, "velocity": 70}, {"time": 432, "pitch": 38, "duration": 20, "velocity": 69}, {"time": 440, "pitch": 57, "duration": 6, "velocity": 39}, {"time": 444, "pitch": 62, "duration": 10, "velocity": 82}, {"time": 456, "pitch": 38, "duration": 17, "velocity": 48}, {"time": 456, "pitch": 45, "duration": 17, "velocity": 59}, {"time": 456, "pitch": 57, "duration": 23, "velocity": 76}, {"time": 456, "pitch": 62, "duration": 23, "velocity": 75}, {"time": 480, "pitch": 43, "duration": 15, "velocity": 72}, {"time": 484, "pitch": 50, "duration": 9, "velocity": 51}, {"time": 488, "pitch": 55, "duration": 16, "velocity": 59}, {"time": 492, "pitch": 62, "duration": 12, "velocity": 97}, {"time": 504, "pitch": 40, "duration": 18, "velocity": 79}, {"time": 508, "pitch": 47, "duration": 14, "velocity": 41}, {"time": 512, "pitch": 52, "duration": 6, "velocity": 50}, {"time": 516, "pitch": 59, "duration": 3, "velocity": 41}, {"time": 516, "pitch": 67, "duration": 12, "velocity": 90}, {"time": 520, "pitch": 64, "duration": 8, "velocity": 59}, {"time": 528, "pitch": 36, "duration": 16, "velocity": 66}, {"time": 532, "pitch": 43, "duration": 13, "velocity": 53}, {"time": 536, "pitch": 48, "duration": 12, "velocity": 72}, {"time": 540, "pitch": 64, "duration": 12, "velocity": 96}, {"time": 544, "pitch": 60, "duration": 8, "velocity": 72}, {"time": 548, "pitch": 55, "duration": 4, "velocity": 58}, {"time": 552, "pitch": 43, "duration": 20, "velocity": 66}, {"time": 556, "pitch": 50, "duration": 17, "velocity": 62}, {"time": 560, "pitch": 55, "duration": 7, "velocity": 73}, {"time": 564, "pitch": 71, "duration": 12, "velocity": 96}, {"time": 568, "pitch": 67, "duration": 8, "velocity": 73}, {"time": 572, "pitch": 62, "duration": 4, "velocity": 85}, {"time": 576, "pitch": 36, "duration": 14, "velocity": 77}, {"time": 580, "pitch": 43, "duration": 11, "velocity": 53}, {"time": 584, "pitch": 48, "duration": 8, "velocity": 64}, {"time": 588, "pitch": 67, "duration": 11, "velocity": 102}, {"time": 592, "pitch": 64, "duration": 7, "velocity": 78}, {"time": 596, "pitch": 60, "duration": 5, "velocity": 79}, {"time": 600, "pitch": 47, "duration": 20, "velocity": 66}, {"time": 604, "pitch": 54, "duration": 12, "velocity": 67}, {"time": 608, "pitch": 59, "duration": 16, "velocity": 81}, {"time": 612, "pitch": 69, "duration": 9, "velocity": 75}, {"time": 616, "pitch": 66, "duration": 7, "velocity": 71}, {"time": 620, "pitch": 62, "duration": 3, "velocity": 65}, {"time": 624, "pitch": 48, "duration": 17, "velocity": 89}, {"time": 628, "pitch": 55, "duration": 11, "velocity": 46}, {"time": 632, "pitch": 60, "duration": 5, "velocity": 90}, {"time": 636, "pitch": 64, "duration": 13, "velocity": 96}, {"time": 640, "pitch": 55, "duration": 9, "velocity": 81}, {"time": 644, "pitch": 59, "duration": 4, "velocity": 47}, {"time": 648, "pitch": 38, "duration": 18, "velocity": 69}, {"time": 652, "pitch": 45, "duration": 14, "velocity": 58}, {"time": 656, "pitch": 50, "duration": 12, "velocity": 79}, {"time": 660, "pitch": 66, "duration": 11, "velocity": 127}, {"time": 664, "pitch": 62, "duration": 6, "velocity": 65}, {"time": 668, "pitch": 57, "duration": 4, "velocity": 88}, {"time": 672, "pitch": 51, "duration": 17, "velocity": 100}, {"time": 676, "pitch": 59, "duration": 10, "velocity": 75}, {"time": 680, "pitch": 63, "duration": 5, "velocity": 107}, {"time": 684, "pitch": 66, "duration": 12, "velocity": 117}, {"time": 688, "pitch": 63, "duration": 9, "velocity": 107}, {"time": 692, "pitch": 59, "duration": 5, "velocity": 58}, {"time": 696, "pitch": 47, "duration": 12, "velocity": 73}, {"time": 700, "pitch": 54, "duration": 8, "velocity": 72}, {"time": 704, "pitch": 59, "duration": 6, "velocity": 66}, {"time": 708, "pitch": 66, "duration": 11, "velocity": 99}, {"time": 712, "pitch": 63, "duration": 7, "velocity": 83}, {"time": 716, "pitch": 59, "duration": 16, "velocity": 62}, {"time": 720, "pitch": 40, "duration": 20, "velocity": 69}, {"time": 724, "pitch": 47, "duration": 13, "velocity": 58}, {"time": 728, "pitch": 52, "duration": 7, "velocity": 70}, {"time": 732, "pitch": 67, "duration": 11, "velocity": 112}, {"time": 736, "pitch": 64, "duration": 6, "velocity": 83}, {"time": 740, "pitch": 59, "duration": 4, "velocity": 86}, {"time": 744, "pitch": 38, "duration": 16, "velocity": 76}, {"time": 748, "pitch": 45, "duration": 12, "velocity": 39}, {"time": 752, "pitch": 50, "duration": 4, "velocity": 89}, {"time": 756, "pitch": 66, "duration": 11, "velocity": 112}, {"time": 760, "pitch": 62, "duration": 7, "velocity": 90}, {"time": 764, "pitch": 57, "duration": 4, "velocity": 95}, {"time": 768, "pitch": 36, "duration": 18, "velocity": 77}, {"time": 772, "pitch": 43, "duration": 14, "velocity": 37}, {"time": 776, "pitch": 48, "duration": 11, "velocity": 81}, {"time": 780, "pitch": 64, "duration": 11, "velocity": 100}, {"time": 784, "pitch": 55, "duration": 4, "velocity": 83}, {"time": 788, "pitch": 60, "duration": 3, "velocity": 102}, {"time": 792, "pitch": 47, "duration": 14, "velocity": 79}, {"time": 796, "pitch": 54, "duration": 8, "velocity": 76}, {"time": 800, "pitch": 59, "duration": 6, "velocity": 88}, {"time": 804, "pitch": 66, "duration": 11, "velocity": 117}, {"time": 808, "pitch": 62, "duration": 7, "velocity": 85}, {"time": 812, "pitch": 59, "duration": 5, "velocity": 96}, {"time": 816, "pitch": 45, "duration": 13, "velocity": 92}, {"time": 820, "pitch": 52, "duration": 8, "velocity": 81}, {"time": 824, "pitch": 57, "duration": 6, "velocity": 95}, {"time": 828, "pitch": 64, "duration": 8, "velocity": 122}, {"time": 832, "pitch": 60, "duration": 4, "velocity": 107}, {"time": 836, "pitch": 57, "duration": 5, "velocity": 112}, {"time": 840, "pitch": 38, "duration": 17, "velocity": 96}, {"time": 844, "pitch": 45, "duration": 14, "velocity": 97}, {"time": 848, "pitch": 50, "duration": 9, "velocity": 95}, {"time": 848, "pitch": 57, "duration": 4, "velocity": 93}, {"time": 852, "pitch": 62, "duration": 2, "velocity": 95}, {"time": 852, "pitch": 66, "duration": 9, "velocity": 127}, {"time": 856, "pitch": 62, "duration": 6, "velocity": 127}, {"time": 860, "pitch": 57, "duration": 3, "velocity": 102}, {"time": 864, "pitch": 43, "duration": 19, "velocity": 93}, {"time": 866, "pitch": 50, "duration": 20, "velocity": 99}, {"time": 868, "pitch": 55, "duration": 14, "velocity": 81}, {"time": 870, "pitch": 59, "duration": 2, "velocity": 92}, {"time": 872, "pitch": 62, "duration": 1, "velocity": 99}, {"time": 874, "pitch": 67, "duration": 2, "velocity": 99}, {"time": 876, "pitch": 71, "duration": 2, "velocity": 97}, {"time": 878, "pitch": 74, "duration": 1, "velocity": 112}, {"time": 880, "pitch": 79, "duration": 2, "velocity": 107}, {"time": 882, "pitch": 83, "duration": 2, "velocity": 122}, {"time": 884, "pitch": 86, "duration": 2, "velocity": 127}, {"time": 886, "pitch": 83, "duration": 1, "velocity": 99}, {"time": 888, "pitch": 47, "duration": 17, "velocity": 93}, {"time": 890, "pitch": 54, "duration": 13, "velocity": 99}, {"time": 892, "pitch": 59, "duration": 10, "velocity": 79}, {"time": 894, "pitch": 62, "duration": 2, "velocity": 92}, {"time": 896, "pitch": 66, "duration": 1, "velocity": 112}, {"time": 898, "pitch": 71, "duration": 2, "velocity": 99}, {"time": 900, "pitch": 74, "duration": 2, "velocity": 97}, {"time": 902, "pitch": 78, "duration": 2, "velocity": 127}, {"time": 904, "pitch": 74, "duration": 2, "velocity": 97}, {"time": 906, "pitch": 71, "duration": 3, "velocity": 97}, {"time": 908, "pitch": 74, "duration": 2, "velocity": 81}, {"time": 910, "pitch": 76, "duration": 1, "velocity": 68}, {"time": 912, "pitch": 40, "duration": 21, "velocity": 83}, {"time": 914, "pitch": 47, "duration": 19, "velocity": 95}, {"time": 916, "pitch": 52, "duration": 15, "velocity": 89}, {"time": 918, "pitch": 55, "duration": 2, "velocity": 82}, {"time": 920, "pitch": 59, "duration": 1, "velocity": 82}, {"time": 922, "pitch": 64, "duration": 1, "velocity": 82}, {"time": 924, "pitch": 67, "duration": 2, "velocity": 90}, {"time": 926, "pitch": 71, "duration": 1, "velocity": 99}, {"time": 928, "pitch": 76, "duration": 2, "velocity": 107}, {"time": 930, "pitch": 79, "duration": 2, "velocity": 99}, {"time": 932, "pitch": 83, "duration": 2, "velocity": 117}, {"time": 934, "pitch": 79, "duration": 1, "velocity": 95}, {"time": 936, "pitch": 47, "duration": 21, "velocity": 95}, {"time": 938, "pitch": 54, "duration": 18, "velocity": 102}, {"time": 940, "pitch": 59, "duration": 16, "velocity": 93}, {"time": 942, "pitch": 62, "duration": 3, "velocity": 88}, {"time": 944, "pitch": 66, "duration": 2, "velocity": 112}, {"time": 946, "pitch": 71, "duration": 1, "velocity": 100}, {"time": 950, "pitch": 74, "duration": 2, "velocity": 96}, {"time": 952, "pitch": 78, "duration": 1, "velocity": 122}, {"time": 954, "pitch": 81, "duration": 1, "velocity": 88}, {"time": 954, "pitch": 83, "duration": 2, "velocity": 99}, {"time": 956, "pitch": 86, "duration": 2, "velocity": 85}, {"time": 958, "pitch": 90, "duration": 1, "velocity": 127}, {"time": 960, "pitch": 40, "duration": 21, "velocity": 96}, {"time": 962, "pitch": 47, "duration": 19, "velocity": 88}, {"time": 964, "pitch": 52, "duration": 16, "velocity": 95}, {"time": 966, "pitch": 55, "duration": 2, "velocity": 93}, {"time": 968, "pitch": 59, "duration": 1, "velocity": 100}, {"time": 970, "pitch": 64, "duration": 2, "velocity": 96}, {"time": 972, "pitch": 67, "duration": 2, "velocity": 97}, {"time": 974, "pitch": 71, "duration": 1, "velocity": 127}, {"time": 976, "pitch": 76, "duration": 2, "velocity": 102}, {"time": 978, "pitch": 79, "duration": 2, "velocity": 107}, {"time": 980, "pitch": 83, "duration": 2, "velocity": 127}, {"time": 984, "pitch": 47, "duration": 21, "velocity": 95}, {"time": 986, "pitch": 54, "duration": 18, "velocity": 102}, {"time": 988, "pitch": 59, "duration": 16, "velocity": 93}, {"time": 990, "pitch": 62, "duration": 3, "velocity": 88}, {"time": 992, "pitch": 66, "duration": 2, "velocity": 112}, {"time": 994, "pitch": 71, "duration": 1, "velocity": 100}, {"time": 998, "pitch": 74, "duration": 2, "velocity": 96}, {"time": 1000, "pitch": 78, "duration": 1, "velocity": 122}, {"time": 1002, "pitch": 81, "duration": 1, "velocity": 88}, {"time": 1002, "pitch": 83, "duration": 2, "velocity": 99}, {"time": 1004, "pitch": 86, "duration": 2, "velocity": 85}, {"time": 1006, "pitch": 90, "duration": 1, "velocity": 127}, {"time": 1008, "pitch": 40, "duration": 21, "velocity": 96}, {"time": 1010, "pitch": 47, "duration": 19, "velocity": 88}, {"time": 1012, "pitch": 52, "duration": 16, "velocity": 95}, {"time": 1014, "pitch": 55, "duration": 2, "velocity": 93}, {"time": 1016, "pitch": 59, "duration": 1, "velocity": 100}, {"time": 1018, "pitch": 64, "duration": 2, "velocity": 96}, {"time": 1020, "pitch": 67, "duration": 2, "velocity": 97}, {"time": 1022, "pitch": 71, "duration": 1, "velocity": 127}, {"time": 1024, "pitch": 76, "duration": 2, "velocity": 102}, {"time": 1026, "pitch": 79, "duration": 2, "velocity": 107}, {"time": 1028, "pitch": 83, "duration": 2, "velocity": 127}, {"time": 1032, "pitch": 36, "duration": 18, "velocity": 85}, {"time": 1034, "pitch": 43, "duration": 16, "velocity": 92}, {"time": 1036, "pitch": 48, "duration": 15, "velocity": 78}, {"time": 1038, "pitch": 52, "duration": 3, "velocity": 76}, {"time": 1040, "pitch": 55, "duration": 1, "velocity": 100}, {"time": 1042, "pitch": 60, "duration": 2, "velocity": 96}, {"time": 1044, "pitch": 64, "duration": 2, "velocity": 92}, {"time": 1046, "pitch": 67, "duration": 1, "velocity": 112}, {"time": 1048, "pitch": 72, "duration": 3, "velocity": 99}, {"time": 1050, "pitch": 76, "duration": 2, "velocity": 95}, {"time": 1052, "pitch": 79, "duration": 2, "velocity": 112}, {"time": 1054, "pitch": 76, "duration": 1, "velocity": 99}, {"time": 1056, "pitch": 47, "duration": 19, "velocity": 82}, {"time": 1058, "pitch": 54, "duration": 14, "velocity": 99}, {"time": 1060, "pitch": 59, "duration": 11, "velocity": 86}, {"time": 1062, "pitch": 62, "duration": 2, "velocity": 85}, {"time": 1064, "pitch": 66, "duration": 1, "velocity": 97}, {"time": 1066, "pitch": 71, "duration": 2, "velocity": 85}, {"time": 1068, "pitch": 74, "duration": 2, "velocity": 93}, {"time": 1070, "pitch": 78, "duration": 2, "velocity": 117}, {"time": 1072, "pitch": 74, "duration": 2, "velocity": 90}, {"time": 1074, "pitch": 71, "duration": 2, "velocity": 93}, {"time": 1076, "pitch": 78, "duration": 2, "velocity": 127}, {"time": 1078, "pitch": 74, "duration": 2, "velocity": 82}, {"time": 1080, "pitch": 45, "duration": 17, "velocity": 78}, {"time": 1082, "pitch": 52, "duration": 13, "velocity": 77}, {"time": 1084, "pitch": 57, "duration": 9, "velocity": 96}, {"time": 1086, "pitch": 60, "duration": 2, "velocity": 77}, {"time": 1088, "pitch": 64, "duration": 1, "velocity": 99}, {"time": 1090, "pitch": 69, "duration": 1, "velocity": 92}, {"time": 1092, "pitch": 72, "duration": 2, "velocity": 112}, {"time": 1094, "pitch": 76, "duration": 2, "velocity": 99}, {"time": 1096, "pitch": 72, "duration": 2, "velocity": 95}, {"time": 1098, "pitch": 69, "duration": 2, "velocity": 100}, {"time": 1100, "pitch": 76, "duration": 2, "velocity": 112}, {"time": 1102, "pitch": 72, "duration": 1, "velocity": 102}, {"time": 1104, "pitch": 38, "duration": 25, "velocity": 85}, {"time": 1106, "pitch": 45, "duration": 22, "velocity": 102}, {"time": 1108, "pitch": 50, "duration": 18, "velocity": 92}, {"time": 1110, "pitch": 54, "duration": 2, "velocity": 112}, {"time": 1112, "pitch": 57, "duration": 1, "velocity": 107}, {"time": 1114, "pitch": 62, "duration": 1, "velocity": 89}, {"time": 1116, "pitch": 66, "duration": 2, "velocity": 127}, {"time": 1118, "pitch": 69, "duration": 1, "velocity": 117}, {"time": 1120, "pitch": 74, "duration": 3, "velocity": 117}, {"time": 1122, "pitch": 78, "duration": 2, "velocity": 127}, {"time": 1124, "pitch": 81, "duration": 1, "velocity": 127}, {"time": 1126, "pitch": 86, "duration": 1, "velocity": 112}, {"time": 1128, "pitch": 43, "duration": 19, "velocity": 93}, {"time": 1128, "pitch": 95, "duration": 1, "velocity": 78}, {"time": 1130, "pitch": 50, "duration": 20, "velocity": 99}, {"time": 1132, "pitch": 55, "duration": 14, "velocity": 81}, {"time": 1134, "pitch": 59, "duration": 2, "velocity": 92}, {"time": 1136, "pitch": 62, "duration": 1, "velocity": 99}, {"time": 1138, "pitch": 67, "duration": 2, "velocity": 99}, {"time": 1140, "pitch": 71, "duration": 2, "velocity": 97}, {"time": 1142, "pitch": 74, "duration": 1, "velocity": 112}, {"time": 1144, "pitch": 79, "duration": 2, "velocity": 107}, {"time": 1146, "pitch": 83, "duration": 2, "velocity": 122}, {"time": 1148, "pitch": 86, "duration": 2, "velocity": 127}, {"time": 1150, "pitch": 83, "duration": 1, "velocity": 99}, {"time": 1152, "pitch": 47, "duration": 17, "velocity": 93}, {"time": 1154, "pitch": 54, "duration": 13, "velocity": 99}, {"time": 1156, "pitch": 59, "duration": 10, "velocity": 79}, {"time": 1158, "pitch": 62, "duration": 2, "velocity": 92}, {"time": 1160, "pitch": 66, "duration": 1, "velocity": 112}, {"time": 1162, "pitch": 71, "duration": 2, "velocity": 99}, {"time": 1164, "pitch": 74, "duration": 2, "velocity": 97}, {"time": 1166, "pitch": 78, "duration": 2, "velocity": 127}, {"time": 1168, "pitch": 74, "duration": 2, "velocity": 97}, {"time": 1170, "pitch": 71, "duration": 3, "velocity": 97}, {"time": 1172, "pitch": 74, "duration": 2, "velocity": 81}, {"time": 1174, "pitch": 76, "duration": 1, "velocity": 68}, {"time": 1176, "pitch": 40, "duration": 21, "velocity": 83}, {"time": 1178, "pitch": 47, "duration": 19, "velocity": 95}, {"time": 1180, "pitch": 52, "duration": 15, "velocity": 89}, {"time": 1182, "pitch": 55, "duration": 2, "velocity": 82}, {"time": 1184, "pitch": 59, "duration": 1, "velocity": 82}, {"time": 1186, "pitch": 64, "duration": 1, "velocity": 82}, {"time": 1188, "pitch": 67, "duration": 2, "velocity": 90}, {"time": 1190, "pitch": 71, "duration": 1, "velocity": 99}, {"time": 1192, "pitch": 76, "duration": 2, "velocity": 107}, {"time": 1194, "pitch": 79, "duration": 2, "velocity": 99}, {"time": 1196, "pitch": 83, "duration": 2, "velocity": 117}, {"time": 1198, "pitch": 79, "duration": 1, "velocity": 95}, {"time": 1200, "pitch": 47, "duration": 21, "velocity": 95}, {"time": 1202, "pitch": 54, "duration": 18, "velocity": 102}, {"time": 1204, "pitch": 59, "duration": 16, "velocity": 93}, {"time": 1206, "pitch": 62, "duration": 3, "velocity": 88}, {"time": 1208, "pitch": 66, "duration": 2, "velocity": 112}, {"time": 1210, "pitch": 71, "duration": 1, "velocity": 100}, {"time": 1214, "pitch": 74, "duration": 2, "velocity": 96}, {"time": 1216, "pitch": 78, "duration": 1, "velocity": 122}, {"time": 1218, "pitch": 81, "duration": 1, "velocity": 88}, {"time": 1218, "pitch": 83, "duration": 2, "velocity": 99}, {"time": 1220, "pitch": 86, "duration": 2, "velocity": 85}, {"time": 1222, "pitch": 90, "duration": 1, "velocity": 127}, {"time": 1224, "pitch": 40, "duration": 21, "velocity": 96}, {"time": 1226, "pitch": 47, "duration": 19, "velocity": 88}, {"time": 1228, "pitch": 52, "duration": 16, "velocity": 95}, {"time": 1230, "pitch": 55, "duration": 2, "velocity": 93}, {"time": 1232, "pitch": 59, "duration": 1, "velocity": 100}, {"time": 1234, "pitch": 64, "duration": 2, "velocity": 96}, {"time": 1236, "pitch": 67, "duration": 2, "velocity": 97}, {"time": 1238, "pitch": 71, "duration": 1, "velocity": 127}, {"time": 1240, "pitch": 76, "duration": 2, "velocity": 102}, {"time": 1242, "pitch": 79, "duration": 2, "velocity": 107}, {"time": 1244, "pitch": 83, "duration": 2, "velocity": 127}, {"time": 1248, "pitch": 47, "duration": 21, "velocity": 95}, {"time": 1250, "pitch": 54, "duration": 18, "velocity": 102}, {"time": 1252, "pitch": 59, "duration": 16, "velocity": 93}, {"time": 1254, "pitch": 62, "duration": 3, "velocity": 88}, {"time": 1256, "pitch": 66, "duration": 2, "velocity": 112}, {"time": 1258, "pitch": 71, "duration": 1, "velocity": 100}, {"time": 1262, "pitch": 74, "duration": 2, "velocity": 96}, {"time": 1264, "pitch": 78, "duration": 1, "velocity": 122}, {"time": 1266, "pitch": 81, "duration": 1, "velocity": 88}, {"time": 1266, "pitch": 83, "duration": 2, "velocity": 99}, {"time": 1268, "pitch": 86, "duration": 2, "velocity": 85}, {"time": 1270, "pitch": 90, "duration": 1, "velocity": 127}, {"time": 1272, "pitch": 40, "duration": 21, "velocity": 96}, {"time": 1274, "pitch": 47, "duration": 19, "velocity": 88}, {"time": 1276, "pitch": 52, "duration": 16, "velocity": 95}, {"time": 1278, "pitch": 55, "duration": 2, "velocity": 93}, {"time": 1280, "pitch": 59, "duration": 1, "velocity": 100}, {"time": 1282, "pitch": 64, "duration": 2, "velocity": 96}, {"time": 1284, "pitch": 67, "duration": 2, "velocity": 97}, {"time": 1286, "pitch": 71, "duration": 1, "velocity": 127}, {"time": 1288, "pitch": 76, "duration": 2, "velocity": 102}, {"time": 1290, "pitch": 79, "duration": 2, "velocity": 107}, {"time": 1292, "pitch": 83, "duration": 2, "velocity": 127}, {"time": 1296, "pitch": 36, "duration": 18, "velocity": 85}, {"time": 1298, "pitch": 43, "duration": 16, "velocity": 92}, {"time": 1300, "pitch": 48, "duration": 15, "velocity": 78}, {"time": 1302, "pitch": 52, "duration": 3, "velocity": 76}, {"time": 1304, "pitch": 55, "duration": 1, "velocity": 100}, {"time": 1306, "pitch": 60, "duration": 2, "velocity": 96}, {"time": 1308, "pitch": 64, "duration": 2, "velocity": 92}, {"time": 1310, "pitch": 67, "duration": 1, "velocity": 112}, {"time": 1312, "pitch": 72, "duration": 3, "velocity": 99}, {"time": 1314, "pitch": 76, "duration": 2, "velocity": 95}, {"time": 1316, "pitch": 79, "duration": 2, "velocity": 112}, {"time": 1318, "pitch": 76, "duration": 1, "velocity": 99}, {"time": 1320, "pitch": 47, "duration": 19, "velocity": 82}, {"time": 1322, "pitch": 54, "duration": 14, "velocity": 99}, {"time": 1324, "pitch": 59, "duration": 11, "velocity": 86}, {"time": 1326, "pitch": 62, "duration": 2, "velocity": 85}, {"time": 1328, "pitch": 66, "duration": 1, "velocity": 97}, {"time": 1330, "pitch": 71, "duration": 2, "velocity": 85}, {"time": 1332, "pitch": 74, "duration": 2, "velocity": 93}, {"time": 1334, "pitch": 78, "duration": 2, "velocity": 117}, {"time": 1336, "pitch": 74, "duration": 2, "velocity": 90}, {"time": 1338, "pitch": 71, "duration": 2, "velocity": 93}, {"time": 1340, "pitch": 78, "duration": 2, "velocity": 127}, {"time": 1342, "pitch": 74, "duration": 2, "velocity": 82}, {"time": 1344, "pitch": 45, "duration": 17, "velocity": 78}, {"time": 1346, "pitch": 52, "duration": 13, "velocity": 77}, {"time": 1348, "pitch": 57, "duration": 9, "velocity": 96}, {"time": 1350, "pitch": 60, "duration": 2, "velocity": 77}, {"time": 1352, "pitch": 64, "duration": 1, "velocity": 99}, {"time": 1354, "pitch": 69, "duration": 1, "velocity": 92}, {"time": 1356, "pitch": 72, "duration": 2, "velocity": 112}, {"time": 1358, "pitch": 76, "duration": 2, "velocity": 99}, {"time": 1360, "pitch": 72, "duration": 2, "velocity": 95}, {"time": 1362, "pitch": 69, "duration": 2, "velocity": 100}, {"time": 1364, "pitch": 76, "duration": 2, "velocity": 112}, {"time": 1366, "pitch": 72, "duration": 1, "velocity": 102}, {"time": 1368, "pitch": 38, "duration": 15, "velocity": 64}, {"time": 1368, "pitch": 45, "duration": 15, "velocity": 72}, {"time": 1368, "pitch": 50, "duration": 14, "velocity": 78}, {"time": 1368, "pitch": 57, "duration": 24, "velocity": 90}, {"time": 1368, "pitch": 62, "duration": 24, "velocity": 90}, {"time": 1368, "pitch": 66, "duration": 25, "velocity": 93}, {"time": 1392, "pitch": 43, "duration": 22, "velocity": 82}, {"time": 1396, "pitch": 50, "duration": 20, "velocity": 72}, {"time": 1400, "pitch": 55, "duration": 6, "velocity": 82}, {"time": 1404, "pitch": 67, "duration": 12, "velocity": 107}, {"time": 1408, "pitch": 62, "duration": 8, "velocity": 86}, {"time": 1412, "pitch": 59, "duration": 4, "velocity": 73}, {"time": 1416, "pitch": 43, "duration": 21, "velocity": 63}, {"time": 1416, "pitch": 50, "duration": 21, "velocity": 56}, {"time": 1416, "pitch": 55, "duration": 21, "velocity": 67}, {"time": 1416, "pitch": 62, "duration": 22, "velocity": 81}, {"time": 1416, "pitch": 67, "duration": 22, "velocity": 78}, {"time": 1416, "pitch": 71, "duration": 22, "velocity": 76}, {"time": 1488, "pitch": 36, "duration": 43, "velocity": 85}, {"time": 1490, "pitch": 43, "duration": 42, "velocity": 93}, {"time": 1492, "pitch": 48, "duration": 37, "velocity": 95}, {"time": 1494, "pitch": 52, "duration": 2, "velocity": 89}, {"time": 1496, "pitch": 55, "duration": 1, "velocity": 93}, {"time": 1498, "pitch": 60, "duration": 2, "velocity": 107}, {"time": 1500, "pitch": 64, "duration": 2, "velocity": 92}, {"time": 1502, "pitch": 67, "duration": 1, "velocity": 100}, {"time": 1504, "pitch": 72, "duration": 2, "velocity": 93}, {"time": 1506, "pitch": 76, "duration": 2, "velocity": 99}, {"time": 1508, "pitch": 79, "duration": 3, "velocity": 112}, {"time": 1510, "pitch": 76, "duration": 2, "velocity": 95}, {"time": 1512, "pitch": 72, "duration": 1, "velocity": 117}, {"time": 1514, "pitch": 76, "duration": 3, "velocity": 122}, {"time": 1516, "pitch": 72, "duration": 2, "velocity": 89}, {"time": 1518, "pitch": 67, "duration": 1, "velocity": 88}, {"time": 1520, "pitch": 72, "duration": 3, "velocity": 95}, {"time": 1522, "pitch": 67, "duration": 2, "velocity": 50}, {"time": 1524, "pitch": 64, "duration": 2, "velocity": 82}, {"time": 1526, "pitch": 67, "duration": 3, "velocity": 90}, {"time": 1528, "pitch": 64, "duration": 2, "velocity": 65}, {"time": 1530, "pitch": 60, "duration": 3, "velocity": 83}, {"time": 1532, "pitch": 67, "duration": 2, "velocity": 92}, {"time": 1534, "pitch": 64, "duration": 2, "velocity": 81}, {"time": 1536, "pitch": 47, "duration": 22, "velocity": 69}, {"time": 1538, "pitch": 54, "duration": 22, "velocity": 92}, {"time": 1540, "pitch": 59, "duration": 20, "velocity": 86}, {"time": 1542, "pitch": 62, "duration": 2, "velocity": 95}, {"time": 1544, "pitch": 66, "duration": 1, "velocity": 99}, {"time": 1546, "pitch": 71, "duration": 2, "velocity": 95}, {"time": 1548, "pitch": 74, "duration": 2, "velocity": 82}, {"time": 1550, "pitch": 78, "duration": 1, "velocity": 89}, {"time": 1552, "pitch": 83, "duration": 2, "velocity": 88}, {"time": 1554, "pitch": 86, "duration": 2, "velocity": 52}, {"time": 1556, "pitch": 90, "duration": 3, "velocity": 112}, {"time": 1558, "pitch": 86, "duration": 2, "velocity": 90}, {"time": 1560, "pitch": 47, "duration": 20, "velocity": 48}, {"time": 1560, "pitch": 83, "duration": 1, "velocity": 107}, {"time": 1564, "pitch": 54, "duration": 13, "velocity": 77}, {"time": 1568, "pitch": 59, "duration": 7, "velocity": 82}, {"time": 1572, "pitch": 78, "duration": 4, "velocity": 99}, {"time": 1576, "pitch": 74, "duration": 6, "velocity": 83}, {"time": 1580, "pitch": 71, "duration": 2, "velocity": 85}, {"time": 1580, "pitch": 78, "duration": 1, "velocity": 23}, {"time": 1584, "pitch": 45, "duration": 21, "velocity": 79}, {"time": 1586, "pitch": 52, "duration": 22, "velocity": 78}, {"time": 1588, "pitch": 57, "duration": 14, "velocity": 88}, {"time": 1590, "pitch": 60, "duration": 2, "velocity": 61}, {"time": 1592, "pitch": 64, "duration": 1, "velocity": 92}, {"time": 1594, "pitch": 69, "duration": 2, "velocity": 99}, {"time": 1596, "pitch": 72, "duration": 3, "velocity": 99}, {"time": 1600, "pitch": 76, "duration": 5, "velocity": 102}, {"time": 1604, "pitch": 72, "duration": 4, "velocity": 97}, {"time": 1608, "pitch": 45, "duration": 10, "velocity": 71}, {"time": 1612, "pitch": 52, "duration": 5, "velocity": 63}, {"time": 1616, "pitch": 57, "duration": 4, "velocity": 93}, {"time": 1620, "pitch": 64, "duration": 11, "velocity": 107}, {"time": 1624, "pitch": 60, "duration": 7, "velocity": 97}, {"time": 1628, "pitch": 57, "duration": 3, "velocity": 100}, {"time": 1632, "pitch": 41, "duration": 46, "velocity": 88}, {"time": 1636, "pitch": 48, "duration": 42, "velocity": 100}, {"time": 1638, "pitch": 53, "duration": 35, "velocity": 86}, {"time": 1640, "pitch": 57, "duration": 2, "velocity": 79}, {"time": 1642, "pitch": 60, "duration": 1, "velocity": 93}, {"time": 1644, "pitch": 65, "duration": 2, "velocity": 107}, {"time": 1646, "pitch": 69, "duration": 2, "velocity": 88}, {"time": 1648, "pitch": 72, "duration": 1, "velocity": 117}, {"time": 1650, "pitch": 77, "duration": 2, "velocity": 90}, {"time": 1652, "pitch": 81, "duration": 2, "velocity": 75}, {"time": 1654, "pitch": 84, "duration": 2, "velocity": 127}, {"time": 1656, "pitch": 81, "duration": 1, "velocity": 102}, {"time": 1660, "pitch": 72, "duration": 4, "velocity": 107}, {"time": 1664, "pitch": 69, "duration": 4, "velocity": 81}, {"time": 1668, "pitch": 65, "duration": 1, "velocity": 95}, {"time": 1672, "pitch": 60, "duration": 4, "velocity": 97}, {"time": 1676, "pitch": 57, "duration": 1, "velocity": 96}, {"time": 1680, "pitch": 40, "duration": 38, "velocity": 95}, {"time": 1684, "pitch": 47, "duration": 34, "velocity": 93}, {"time": 1688, "pitch": 52, "duration": 26, "velocity": 89}, {"time": 1692, "pitch": 55, "duration": 4, "velocity": 78}, {"time": 1696, "pitch": 59, "duration": 1, "velocity": 90}, {"time": 1700, "pitch": 64, "duration": 4, "velocity": 73}, {"time": 1704, "pitch": 67, "duration": 4, "velocity": 86}, {"time": 1708, "pitch": 71, "duration": 1, "velocity": 73}, {"time": 1712, "pitch": 76, "duration": 3, "velocity": 63}, {"time": 1716, "pitch": 79, "duration": 4, "velocity": 107}, {"time": 1720, "pitch": 83, "duration": 6, "velocity": 102}, {"time": 1724, "pitch": 79, "duration": 4, "velocity": 102}, {"time": 1728, "pitch": 38, "duration": 35, "velocity": 82}, {"time": 1732, "pitch": 45, "duration": 30, "velocity": 63}, {"time": 1736, "pitch": 50, "duration": 26, "velocity": 75}, {"time": 1740, "pitch": 54, "duration": 4, "velocity": 73}, {"time": 1744, "pitch": 57, "duration": 1, "velocity": 78}, {"time": 1748, "pitch": 62, "duration": 6, "velocity": 86}, {"time": 1752, "pitch": 66, "duration": 5, "velocity": 93}, {"time": 1756, "pitch": 69, "duration": 1, "velocity": 92}, {"time": 1760, "pitch": 74, "duration": 3, "velocity": 92}, {"time": 1764, "pitch": 78, "duration": 4, "velocity": 127}, {"time": 1768, "pitch": 81, "duration": 8, "velocity": 107}, {"time": 1772, "pitch": 78, "duration": 4, "velocity": 96}, {"time": 1776, "pitch": 36, "duration": 40, "velocity": 89}, {"time": 1780, "pitch": 43, "duration": 37, "velocity": 92}, {"time": 1784, "pitch": 48, "duration": 29, "velocity": 97}, {"time": 1788, "pitch": 52, "duration": 4, "velocity": 75}, {"time": 1792, "pitch": 55, "duration": 1, "velocity": 79}, {"time": 1796, "pitch": 60, "duration": 18, "velocity": 90}, {"time": 1800, "pitch": 64, "duration": 12, "velocity": 65}, {"time": 1800, "pitch": 67, "duration": 10, "velocity": 69}, {"time": 1812, "pitch": 67, "duration": 12, "velocity": 82}, {"time": 1816, "pitch": 64, "duration": 8, "velocity": 86}, {"time": 1820, "pitch": 60, "duration": 5, "velocity": 75}, {"time": 1824, "pitch": 38, "duration": 40, "velocity": 83}, {"time": 1828, "pitch": 45, "duration": 35, "velocity": 79}, {"time": 1832, "pitch": 50, "duration": 30, "velocity": 82}, {"time": 1836, "pitch": 57, "duration": 5, "velocity": 96}, {"time": 1840, "pitch": 62, "duration": 8, "velocity": 73}, {"time": 1844, "pitch": 64, "duration": 5, "velocity": 74}, {"time": 1848, "pitch": 66, "duration": 1, "velocity": 82}, {"time": 1852, "pitch": 69, "duration": 21, "velocity": 69}, {"time": 1856, "pitch": 74, "duration": 16, "velocity": 40}, {"time": 1860, "pitch": 78, "duration": 13, "velocity": 57}, {"time": 1872, "pitch": 43, "duration": 15, "velocity": 72}, {"time": 1876, "pitch": 50, "duration": 9, "velocity": 51}, {"time": 1880, "pitch": 55, "duration": 16, "velocity": 59}, {"time": 1884, "pitch": 62, "duration": 12, "velocity": 97}, {"time": 1896, "pitch": 40, "duration": 18, "velocity": 79}, {"time": 1900, "pitch": 47, "duration": 14, "velocity": 41}, {"time": 1904, "pitch": 52, "duration": 6, "velocity": 50}, {"time": 1908, "pitch": 59, "duration": 3, "velocity": 41}, {"time": 1908, "pitch": 67, "duration": 12, "velocity": 90}, {"time": 1912, "pitch": 64, "duration": 8, "velocity": 59}, {"time": 1920, "pitch": 36, "duration": 16, "velocity": 66}, {"time": 1924, "pitch": 43, "duration": 13, "velocity": 53}, {"time": 1928, "pitch": 48, "duration": 12, "velocity": 72}, {"time": 1932, "pitch": 64, "duration": 12, "velocity": 96}, {"time": 1936, "pitch": 60, "duration": 8, "velocity": 72}, {"time": 1940, "pitch": 55, "duration": 4, "velocity": 58}, {"time": 1944, "pitch": 43, "duration": 20, "velocity": 66}, {"time": 1948, "pitch": 50, "duration": 17, "velocity": 62}, {"time": 1952, "pitch": 55, "duration": 7, "velocity": 73}, {"time": 1956, "pitch": 71, "duration": 12, "velocity": 96}, {"time": 1960, "pitch": 67, "duration": 8, "velocity": 73}, {"time": 1964, "pitch": 62, "duration": 4, "velocity": 85}, {"time": 1968, "pitch": 36, "duration": 14, "velocity": 77}, {"time": 1972, "pitch": 43, "duration": 11, "velocity": 53}, {"time": 1976, "pitch": 48, "duration": 8, "velocity": 64}, {"time": 1980, "pitch": 67, "duration": 11, "velocity": 102}, {"time": 1984, "pitch": 64, "duration": 7, "velocity": 78}, {"time": 1988, "pitch": 60, "duration": 5, "velocity": 79}, {"time": 1992, "pitch": 47, "duration": 20, "velocity": 66}, {"time": 1996, "pitch": 54, "duration": 12, "velocity": 67}, {"time": 2000, "pitch": 59, "duration": 16, "velocity": 81}, {"time": 2004, "pitch": 69, "duration": 9, "velocity": 75}, {"time": 2008, "pitch": 66, "duration": 7, "velocity": 71}, {"time": 2012, "pitch": 62, "duration": 3, "velocity": 65}, {"time": 2016, "pitch": 48, "duration": 17, "velocity": 89}, {"time": 2020, "pitch": 55, "duration": 11, "velocity": 46}, {"time": 2024, "pitch": 60, "duration": 5, "velocity": 90}, {"time": 2028, "pitch": 64, "duration": 13, "velocity": 96}, {"time": 2032, "pitch": 55, "duration": 9, "velocity": 81}, {"time": 2036, "pitch": 59, "duration": 4, "velocity": 47}, {"time": 2040, "pitch": 38, "duration": 18, "velocity": 69}, {"time": 2044, "pitch": 45, "duration": 14, "velocity": 58}, {"time": 2048, "pitch": 50, "duration": 12, "velocity": 79}, {"time": 2052, "pitch": 66, "duration": 11, "velocity": 127}, {"time": 2056, "pitch": 62, "duration": 6, "velocity": 65}, {"time": 2060, "pitch": 57, "duration": 4, "velocity": 88}, {"time": 2064, "pitch": 51, "duration": 17, "velocity": 100}, {"time": 2068, "pitch": 59, "duration": 10, "velocity": 75}, {"time": 2072, "pitch": 63, "duration": 5, "velocity": 107}, {"time": 2076, "pitch": 66, "duration": 12, "velocity": 117}, {"time": 2080, "pitch": 63, "duration": 9, "velocity": 107}, {"time": 2084, "pitch": 59, "duration": 5, "velocity": 58}, {"time": 2088, "pitch": 47, "duration": 12, "velocity": 73}, {"time": 2092, "pitch": 54, "duration": 8, "velocity": 72}, {"time": 2096, "pitch": 59, "duration": 6, "velocity": 66}, {"time": 2100, "pitch": 66, "duration": 11, "velocity": 99}, {"time": 2104, "pitch": 63, "duration": 7, "velocity": 83}, {"time": 2108, "pitch": 59, "duration": 16, "velocity": 62}, {"time": 2112, "pitch": 40, "duration": 20, "velocity": 69}, {"time": 2116, "pitch": 47, "duration": 13, "velocity": 58}, {"time": 2120, "pitch": 52, "duration": 7, "velocity": 70}, {"time": 2124, "pitch": 67, "duration": 11, "velocity": 112}, {"time": 2128, "pitch": 64, "duration": 6, "velocity": 83}, {"time": 2132, "pitch": 59, "duration": 4, "velocity": 86}, {"time": 2136, "pitch": 38, "duration": 16, "velocity": 76}, {"time": 2140, "pitch": 45, "duration": 12, "velocity": 39}, {"time": 2144, "pitch": 50, "duration": 4, "velocity": 89}, {"time": 2148, "pitch": 66, "duration": 11, "velocity": 112}, {"time": 2152, "pitch": 62, "duration": 7, "velocity": 90}, {"time": 2156, "pitch": 57, "duration": 4, "velocity": 95}, {"time": 2160, "pitch": 36, "duration": 18, "velocity": 77}, {"time": 2164, "pitch": 43, "duration": 14, "velocity": 37}, {"time": 2168, "pitch": 48, "duration": 11, "velocity": 81}, {"time": 2172, "pitch": 64, "duration": 11, "velocity": 100}, {"time": 2176, "pitch": 55, "duration": 4, "velocity": 83}, {"time": 2180, "pitch": 60, "duration": 3, "velocity": 102}, {"time": 2184, "pitch": 47, "duration": 14, "velocity": 79}, {"time": 2188, "pitch": 54, "duration": 8, "velocity": 76}, {"time": 2192, "pitch": 59, "duration": 6, "velocity": 88}, {"time": 2196, "pitch": 66, "duration": 11, "velocity": 117}, {"time": 2200, "pitch": 62, "duration": 7, "velocity": 85}, {"time": 2204, "pitch": 59, "duration": 5, "velocity": 96}, {"time": 2208, "pitch": 45, "duration": 13, "velocity": 92}, {"time": 2212, "pitch": 52, "duration": 8, "velocity": 81}, {"time": 2216, "pitch": 57, "duration": 6, "velocity": 95}, {"time": 2220, "pitch": 64, "duration": 8, "velocity": 122}, {"time": 2224, "pitch": 60, "duration": 4, "velocity": 107}, {"time": 2228, "pitch": 57, "duration": 5, "velocity": 112}, {"time": 2232, "pitch": 38, "duration": 17, "velocity": 96}, {"time": 2236, "pitch": 45, "duration": 14, "velocity": 97}, {"time": 2240, "pitch": 50, "duration": 9, "velocity": 95}, {"time": 2240, "pitch": 57, "duration": 4, "velocity": 93}, {"time": 2244, "pitch": 62, "duration": 2, "velocity": 95}, {"time": 2244, "pitch": 66, "duration": 9, "velocity": 127}, {"time": 2248, "pitch": 62, "duration": 6, "velocity": 127}, {"time": 2252, "pitch": 57, "duration": 3, "velocity": 102}, {"time": 2256, "pitch": 43, "duration": 19, "velocity": 93}, {"time": 2258, "pitch": 50, "duration": 20, "velocity": 99}, {"time": 2260, "pitch": 55, "duration": 14, "velocity": 81}, {"time": 2262, "pitch": 59, "duration": 2, "velocity": 92}, {"time": 2264, "pitch": 62, "duration": 1, "velocity": 99}, {"time": 2266, "pitch": 67, "duration": 2, "velocity": 99}, {"time": 2268, "pitch": 71, "duration": 2, "velocity": 97}, {"time": 2270, "pitch": 74, "duration": 1, "velocity": 112}, {"time": 2272, "pitch": 79, "duration": 2, "velocity": 107}, {"time": 2274, "pitch": 83, "duration": 2, "velocity": 122}, {"time": 2276, "pitch": 86, "duration": 2, "velocity": 127}, {"time": 2278, "pitch": 83, "duration": 1, "velocity": 99}, {"time": 2280, "pitch": 47, "duration": 17, "velocity": 93}, {"time": 2282, "pitch": 54, "duration": 13, "velocity": 99}, {"time": 2284, "pitch": 59, "duration": 10, "velocity": 79}, {"time": 2286, "pitch": 62, "duration": 2, "velocity": 92}, {"time": 2288, "pitch": 66, "duration": 1, "velocity": 112}, {"time": 2290, "pitch": 71, "duration": 2, "velocity": 99}, {"time": 2292, "pitch": 74, "duration": 2, "velocity": 97}, {"time": 2294, "pitch": 78, "duration": 2, "velocity": 127}, {"time": 2296, "pitch": 74, "duration": 2, "velocity": 97}, {"time": 2298, "pitch": 71, "duration": 3, "velocity": 97}, {"time": 2300, "pitch": 74, "duration": 2, "velocity": 81}, {"time": 2302, "pitch": 76, "duration": 1, "velocity": 68}, {"time": 2304, "pitch": 40, "duration": 21, "velocity": 83}, {"time": 2306, "pitch": 47, "duration": 19, "velocity": 95}, {"time": 2308, "pitch": 52, "duration": 15, "velocity": 89}, {"time": 2310, "pitch": 55, "duration": 2, "velocity": 82}, {"time": 2312, "pitch": 59, "duration": 1, "velocity": 82}, {"time": 2314, "pitch": 64, "duration": 1, "velocity": 82}, {"time": 2316, "pitch": 67, "duration": 2, "velocity": 90}, {"time": 2318, "pitch": 71, "duration": 1, "velocity": 99}, {"time": 2320, "pitch": 76, "duration": 2, "velocity": 107}, {"time": 2322, "pitch": 79, "duration": 2, "velocity": 99}, {"time": 2324, "pitch": 83, "duration": 2, "velocity": 117}, {"time": 2326, "pitch": 79, "duration": 1, "velocity": 95}, {"time": 2328, "pitch": 47, "duration": 21, "velocity": 95}, {"time": 2330, "pitch": 54, "duration": 18, "velocity": 102}, {"time": 2332, "pitch": 59, "duration": 16, "velocity": 93}, {"time": 2334, "pitch": 62, "duration": 3, "velocity": 88}, {"time": 2336, "pitch": 66, "duration": 2, "velocity": 112}, {"time": 2338, "pitch": 71, "duration": 1, "velocity": 100}, {"time": 2342, "pitch": 74, "duration": 2, "velocity": 96}, {"time": 2344, "pitch": 78, "duration": 1, "velocity": 122}, {"time": 2346, "pitch": 81, "duration": 1, "velocity": 88}, {"time": 2346, "pitch": 83, "duration": 2, "velocity": 99}, {"time": 2348, "pitch": 86, "duration": 2, "velocity": 85}, {"time": 2350, "pitch": 90, "duration": 1, "velocity": 127}, {"time": 2352, "pitch": 40, "duration": 21, "velocity": 96}, {"time": 2354, "pitch": 47, "duration": 19, "velocity": 88}, {"time": 2356, "pitch": 52, "duration": 16, "velocity": 95}, {"time": 2358, "pitch": 55, "duration": 2, "velocity": 93}, {"time": 2360, "pitch": 59, "duration": 1, "velocity": 100}, {"time": 2362, "pitch": 64, "duration": 2, "velocity": 96}, {"time": 2364, "pitch": 67, "duration": 2, "velocity": 97}, {"time": 2366, "pitch": 71, "duration": 1, "velocity": 127}, {"time": 2368, "pitch": 76, "duration": 2, "velocity": 102}, {"time": 2370, "pitch": 79, "duration": 2, "velocity": 107}, {"time": 2372, "pitch": 83, "duration": 2, "velocity": 127}, {"time": 2376, "pitch": 47, "duration": 21, "velocity": 95}, {"time": 2378, "pitch": 54, "duration": 18, "velocity": 102}, {"time": 2380, "pitch": 59, "duration": 16, "velocity": 93}, {"time": 2382, "pitch": 62, "duration": 3, "velocity": 88}, {"time": 2384, "pitch": 66, "duration": 2, "velocity": 112}, {"time": 2386, "pitch": 71, "duration": 1, "velocity": 100}, {"time": 2390, "pitch": 74, "duration": 2, "velocity": 96}, {"time": 2392, "pitch": 78, "duration": 1, "velocity": 122}, {"time": 2394, "pitch": 81, "duration": 1, "velocity": 88}, {"time": 2394, "pitch": 83, "duration": 2, "velocity": 99}, {"time": 2396, "pitch": 86, "duration": 2, "velocity": 85}, {"time": 2398, "pitch": 90, "duration": 1, "velocity": 127}, {"time": 2400, "pitch": 40, "duration": 21, "velocity": 96}, {"time": 2402, "pitch": 47, "duration": 19, "velocity": 88}, {"time": 2404, "pitch": 52, "duration": 16, "velocity": 95}, {"time": 2406, "pitch": 55, "duration": 2, "velocity": 93}, {"time": 2408, "pitch": 59, "duration": 1, "velocity": 100}, {"time": 2410, "pitch": 64, "duration": 2, "velocity": 96}, {"time": 2412, "pitch": 67, "duration": 2, "velocity": 97}, {"time": 2414, "pitch": 71, "duration": 1, "velocity": 127}, {"time": 2416, "pitch": 76, "duration": 2, "velocity": 102}, {"time": 2418, "pitch": 79, "duration": 2, "velocity": 107}, {"time": 2420, "pitch": 83, "duration": 2, "velocity": 127}, {"time": 2424, "pitch": 36, "duration": 18, "velocity": 85}, {"time": 2426, "pitch": 43, "duration": 16, "velocity": 92}, {"time": 2428, "pitch": 48, "duration": 15, "velocity": 78}, {"time": 2430, "pitch": 52, "duration": 3, "velocity": 76}, {"time": 2432, "pitch": 55, "duration": 1, "velocity": 100}, {"time": 2434, "pitch": 60, "duration": 2, "velocity": 96}, {"time": 2436, "pitch": 64, "duration": 2, "velocity": 92}, {"time": 2438, "pitch": 67, "duration": 1, "velocity": 112}, {"time": 2440, "pitch": 72, "duration": 3, "velocity": 99}, {"time": 2442, "pitch": 76, "duration": 2, "velocity": 95}, {"time": 2444, "pitch": 79, "duration": 2, "velocity": 112}, {"time": 2446, "pitch": 76, "duration": 1, "velocity": 99}, {"time": 2448, "pitch": 47, "duration": 19, "velocity": 82}, {"time": 2450, "pitch": 54, "duration": 14, "velocity": 99}, {"time": 2452, "pitch": 59, "duration": 11, "velocity": 86}, {"time": 2454, "pitch": 62, "duration": 2, "velocity": 85}, {"time": 2456, "pitch": 66, "duration": 1, "velocity": 97}, {"time": 2458, "pitch": 71, "duration": 2, "velocity": 85}, {"time": 2460, "pitch": 74, "duration": 2, "velocity": 93}, {"time": 2462, "pitch": 78, "duration": 2, "velocity": 117}, {"time": 2464, "pitch": 74, "duration": 2, "velocity": 90}, {"time": 2466, "pitch": 71, "duration": 2, "velocity": 93}, {"time": 2468, "pitch": 78, "duration": 2, "velocity": 127}, {"time": 2470, "pitch": 74, "duration": 2, "velocity": 82}, {"time": 2472, "pitch": 45, "duration": 17, "velocity": 78}, {"time": 2474, "pitch": 52, "duration": 13, "velocity": 77}, {"time": 2476, "pitch": 57, "duration": 9, "velocity": 96}, {"time": 2478, "pitch": 60, "duration": 2, "velocity": 77}, {"time": 2480, "pitch": 64, "duration": 1, "velocity": 99}, {"time": 2482, "pitch": 69, "duration": 1, "velocity": 92}, {"time": 2484, "pitch": 72, "duration": 2, "velocity": 112}, {"time": 2486, "pitch": 76, "duration": 2, "velocity": 99}, {"time": 2488, "pitch": 72, "duration": 2, "velocity": 95}, {"time": 2490, "pitch": 69, "duration": 2, "velocity": 100}, {"time": 2492, "pitch": 76, "duration": 2, "velocity": 112}, {"time": 2494, "pitch": 72, "duration": 1, "velocity": 102}, {"time": 2496, "pitch": 38, "duration": 25, "velocity": 85}, {"time": 2498, "pitch": 45, "duration": 22, "velocity": 102}, {"time": 2500, "pitch": 50, "duration": 18, "velocity": 92}, {"time": 2502, "pitch": 54, "duration": 2, "velocity": 112}, {"time": 2504, "pitch": 57, "duration": 1, "velocity": 107}, {"time": 2506, "pitch": 62, "duration": 1, "velocity": 89}, {"time": 2508, "pitch": 66, "duration": 2, "velocity": 127}, {"time": 2510, "pitch": 69, "duration": 1, "velocity": 117}, {"time": 2512, "pitch": 74, "duration": 3, "velocity": 117}, {"time": 2514, "pitch": 78, "duration": 2, "velocity": 127}, {"time": 2516, "pitch": 81, "duration": 1, "velocity": 127}, {"time": 2518, "pitch": 86, "duration": 1, "velocity": 112}, {"time": 2520, "pitch": 43, "duration": 19, "velocity": 93}, {"time": 2520, "pitch": 95, "duration": 1, "velocity": 78}, {"time": 2522, "pitch": 50, "duration": 20, "velocity": 99}, {"time": 2524, "pitch": 55, "duration": 14, "velocity": 81}, {"time": 2526, "pitch": 59, "duration": 2, "velocity": 92}, {"time": 2528, "pitch": 62, "duration": 1, "velocity": 99}, {"time": 2530, "pitch": 67, "duration": 2, "velocity": 99}, {"time": 2532, "pitch": 71, "duration": 2, "velocity": 97}, {"time": 2534, "pitch": 74, "duration": 1, "velocity": 112}, {"time": 2536, "pitch": 79, "duration": 2, "velocity": 107}, {"time": 2538, "pitch": 83, "duration": 2, "velocity": 122}, {"time": 2540, "pitch": 86, "duration": 2, "velocity": 127}, {"time": 2542, "pitch": 83, "duration": 1, "velocity": 99}, {"time": 2544, "pitch": 47, "duration": 17, "velocity": 93}, {"time": 2546, "pitch": 54, "duration": 13, "velocity": 99}, {"time": 2548, "pitch": 59, "duration": 10, "velocity": 79}, {"time": 2550, "pitch": 62, "duration": 2, "velocity": 92}, {"time": 2552, "pitch": 66, "duration": 1, "velocity": 112}, {"time": 2554, "pitch": 71, "duration": 2, "velocity": 99}, {"time": 2556, "pitch": 74, "duration": 2, "velocity": 97}, {"time": 2558, "pitch": 78, "duration": 2, "velocity": 127}, {"time": 2560, "pitch": 74, "duration": 2, "velocity": 97}, {"time": 2562, "pitch": 71, "duration": 3, "velocity": 97}, {"time": 2564, "pitch": 74, "duration": 2, "velocity": 81}, {"time": 2566, "pitch": 76, "duration": 1, "velocity": 68}, {"time": 2568, "pitch": 40, "duration": 21, "velocity": 83}, {"time": 2570, "pitch": 47, "duration": 19, "velocity": 95}, {"time": 2572, "pitch": 52, "duration": 15, "velocity": 89}, {"time": 2574, "pitch": 55, "duration": 2, "velocity": 82}, {"time": 2576, "pitch": 59, "duration": 1, "velocity": 82}, {"time": 2578, "pitch": 64, "duration": 1, "velocity": 82}, {"time": 2580, "pitch": 67, "duration": 2, "velocity": 90}, {"time": 2582, "pitch": 71, "duration": 1, "velocity": 99}, {"time": 2584, "pitch": 76, "duration": 2, "velocity": 107}, {"time": 2586, "pitch": 79, "duration": 2, "velocity": 99}, {"time": 2588, "pitch": 83, "duration": 2, "velocity": 117}, {"time": 2590, "pitch": 79, "duration": 1, "velocity": 95}, {"time": 2592, "pitch": 47, "duration": 21, "velocity": 95}, {"time": 2594, "pitch": 54, "duration": 18, "velocity": 102}, {"time": 2596, "pitch": 59, "duration": 16, "velocity": 93}, {"time": 2598, "pitch": 62, "duration": 3, "velocity": 88}, {"time": 2600, "pitch": 66, "duration": 2, "velocity": 112}, {"time": 2602, "pitch": 71, "duration": 1, "velocity": 100}, {"time": 2606, "pitch": 74, "duration": 2, "velocity": 96}, {"time": 2608, "pitch": 78, "duration": 1, "velocity": 122}, {"time": 2610, "pitch": 81, "duration": 1, "velocity": 88}, {"time": 2610, "pitch": 83, "duration": 2, "velocity": 99}, {"time": 2612, "pitch": 86, "duration": 2, "velocity": 85}, {"time": 2614, "pitch": 90, "duration": 1, "velocity": 127}, {"time": 2616, "pitch": 40, "duration": 21, "velocity": 96}, {"time": 2618, "pitch": 47, "duration": 19, "velocity": 88}, {"time": 2620, "pitch": 52, "duration": 16, "velocity": 95}, {"time": 2622, "pitch": 55, "duration": 2, "velocity": 93}, {"time": 2624, "pitch": 59, "duration": 1, "velocity": 100}, {"time": 2626, "pitch": 64, "duration": 2, "velocity": 96}, {"time": 2628, "pitch": 67, "duration": 2, "velocity": 97}, {"time": 2630, "pitch": 71, "duration": 1, "velocity": 127}, {"time": 2632, "pitch": 76, "duration": 2, "velocity": 102}, {"time": 2634, "pitch": 79, "duration": 2, "velocity": 107}, {"time": 2636, "pitch": 83, "duration": 2, "velocity": 127}, {"time": 2640, "pitch": 47, "duration": 21, "velocity": 95}, {"time": 2642, "pitch": 54, "duration": 18, "velocity": 102}, {"time": 2644, "pitch": 59, "duration": 16, "velocity": 93}, {"time": 2646, "pitch": 62, "duration": 3, "velocity": 88}, {"time": 2648, "pitch": 66, "duration": 2, "velocity": 112}, {"time": 2650, "pitch": 71, "duration": 1, "velocity": 100}, {"time": 2654, "pitch": 74, "duration": 2, "velocity": 96}, {"time": 2656, "pitch": 78, "duration": 1, "velocity": 122}, {"time": 2658, "pitch": 81, "duration": 1, "velocity": 88}, {"time": 2658, "pitch": 83, "duration": 2, "velocity": 99}, {"time": 2660, "pitch": 86, "duration": 2, "velocity": 85}, {"time": 2662, "pitch": 90, "duration": 1, "velocity": 127}, {"time": 2664, "pitch": 40, "duration": 21, "velocity": 96}, {"time": 2666, "pitch": 47, "duration": 19, "velocity": 88}, {"time": 2668, "pitch": 52, "duration": 16, "velocity": 95}, {"time": 2670, "pitch": 55, "duration": 2, "velocity": 93}, {"time": 2672, "pitch": 59, "duration": 1, "velocity": 100}, {"time": 2674, "pitch": 64, "duration": 2, "velocity": 96}, {"time": 2676, "pitch": 67, "duration": 2, "velocity": 97}, {"time": 2678, "pitch": 71, "duration": 1, "velocity": 127}, {"time": 2680, "pitch": 76, "duration": 2, "velocity": 102}, {"time": 2682, "pitch": 79, "duration": 2, "velocity": 107}, {"time": 2684, "pitch": 83, "duration": 2, "velocity": 127}, {"time": 2688, "pitch": 36, "duration": 18, "velocity": 85}, {"time": 2690, "pitch": 43, "duration": 16, "velocity": 92}, {"time": 2692, "pitch": 48, "duration": 15, "velocity": 78}, {"time": 2694, "pitch": 52, "duration": 3, "velocity": 76}, {"time": 2696, "pitch": 55, "duration": 1, "velocity": 100}, {"time": 2698, "pitch": 60, "duration": 2, "velocity": 96}, {"time": 2700, "pitch": 64, "duration": 2, "velocity": 92}, {"time": 2702, "pitch": 67, "duration": 1, "velocity": 112}, {"time": 2704, "pitch": 72, "duration": 3, "velocity": 99}, {"time": 2706, "pitch": 76, "duration": 2, "velocity": 95}, {"time": 2708, "pitch": 79, "duration": 2, "velocity": 112}, {"time": 2710, "pitch": 76, "duration": 1, "velocity": 99}, {"time": 2712, "pitch": 47, "duration": 19, "velocity": 82}, {"time": 2714, "pitch": 54, "duration": 14, "velocity": 99}, {"time": 2716, "pitch": 59, "duration": 11, "velocity": 86}, {"time": 2718, "pitch": 62, "duration": 2, "velocity": 85}, {"time": 2720, "pitch": 66, "duration": 1, "velocity": 97}, {"time": 2722, "pitch": 71, "duration": 2, "velocity": 85}, {"time": 2724, "pitch": 74, "duration": 2, "velocity": 93}, {"time": 2726, "pitch": 78, "duration": 2, "velocity": 117}, {"time": 2728, "pitch": 74, "duration": 2, "velocity": 90}, {"time": 2730, "pitch": 71, "duration": 2, "velocity": 93}, {"time": 2732, "pitch": 78, "duration": 2, "velocity": 127}, {"time": 2734, "pitch": 74, "duration": 2, "velocity": 82}, {"time": 2736, "pitch": 45, "duration": 17, "velocity": 78}, {"time": 2738, "pitch": 52, "duration": 13, "velocity": 77}, {"time": 2740, "pitch": 57, "duration": 9, "velocity": 96}, {"time": 2742, "pitch": 60, "duration": 2, "velocity": 77}, {"time": 2744, "pitch": 64, "duration": 1, "velocity": 99}, {"time": 2746, "pitch": 69, "duration": 1, "velocity": 92}, {"time": 2748, "pitch": 72, "duration": 2, "velocity": 112}, {"time": 2750, "pitch": 76, "duration": 2, "velocity": 99}, {"time": 2752, "pitch": 72, "duration": 2, "velocity": 95}, {"time": 2754, "pitch": 69, "duration": 2, "velocity": 100}, {"time": 2756, "pitch": 76, "duration": 2, "velocity": 112}, {"time": 2758, "pitch": 72, "duration": 1, "velocity": 102}, {"time": 2760, "pitch": 38, "duration": 15, "velocity": 64}, {"time": 2760, "pitch": 45, "duration": 15, "velocity": 72}, {"time": 2760, "pitch": 50, "duration": 14, "velocity": 78}, {"time": 2760, "pitch": 57, "duration": 24, "velocity": 90}, {"time": 2760, "pitch": 62, "duration": 24, "velocity": 90}, {"time": 2760, "pitch": 66, "duration": 25, "velocity": 93}, {"time": 2784, "pitch": 43, "duration": 22, "velocity": 82}, {"time": 2788, "pitch": 50, "duration": 20, "velocity": 72}, {"time": 2792, "pitch": 55, "duration": 6, "velocity": 82}, {"time": 2796, "pitch": 67, "duration": 12, "velocity": 107}, {"time": 2800, "pitch": 62, "duration": 8, "velocity": 86}, {"time": 2804, "pitch": 59, "duration": 4, "velocity": 73}, {"time": 2808, "pitch": 43, "duration": 10, "velocity": 55}, {"time": 2808, "pitch": 50, "duration": 10, "velocity": 56}, {"time": 2808, "pitch": 55, "duration": 10, "velocity": 79}, {"time": 2808, "pitch": 62, "duration": 11, "velocity": 69}, {"time": 2808, "pitch": 67, "duration": 11, "velocity": 67}, {"time": 2808, "pitch": 71, "duration": 10, "velocity": 59}, {"time": 2820, "pitch": 43, "duration": 6, "velocity": 57}, {"time": 2820, "pitch": 50, "duration": 6, "velocity": 79}, {"time": 2820, "pitch": 55, "duration": 4, "velocity": 88}, {"time": 2820, "pitch": 62, "duration": 8, "velocity": 90}, {"time": 2820, "pitch": 67, "duration": 7, "velocity": 89}, {"time": 2820, "pitch": 71, "duration": 7, "velocity": 79}, {"time": 2832, "pitch": 38, "duration": 2, "velocity": 52}, {"time": 2832, "pitch": 45, "duration": 2, "velocity": 55}, {"time": 2832, "pitch": 50, "duration": 2, "velocity": 53}, {"time": 2832, "pitch": 62, "duration": 2, "velocity": 47}, {"time": 2832, "pitch": 66, "duration": 2, "velocity": 49}, {"time": 2832, "pitch": 69, "duration": 2, "velocity": 50}, {"time": 2836, "pitch": 38, "duration": 2, "velocity": 40}, {"time": 2836, "pitch": 45, "duration": 2, "velocity": 50}, {"time": 2836, "pitch": 50, "duration": 2, "velocity": 55}, {"time": 2836, "pitch": 62, "duration": 2, "velocity": 42}, {"time": 2836, "pitch": 66, "duration": 2, "velocity": 46}, {"time": 2836, "pitch": 69, "duration": 2, "velocity": 48}, {"time": 2840, "pitch": 38, "duration": 2, "velocity": 55}, {"time": 2840, "pitch": 45, "duration": 2, "velocity": 55}, {"time": 2840, "pitch": 50, "duration": 2, "velocity": 59}, {"time": 2840, "pitch": 62, "duration": 2, "velocity": 58}, {"time": 2840, "pitch": 66, "duration": 2, "velocity": 47}, {"time": 2840, "pitch": 69, "duration": 2, "velocity": 61}, {"time": 2844, "pitch": 45, "duration": 2, "velocity": 86}, {"time": 2844, "pitch": 50, "duration": 2, "velocity": 77}, {"time": 2844, "pitch": 62, "duration": 2, "velocity": 76}, {"time": 2844, "pitch": 66, "duration": 2, "velocity": 83}, {"time": 2844, "pitch": 69, "duration": 2, "velocity": 77}, {"time": 2848, "pitch": 38, "duration": 2, "velocity": 64}, {"time": 2848, "pitch": 45, "duration": 2, "velocity": 77}, {"time": 2848, "pitch": 50, "duration": 2, "velocity": 71}, {"time": 2848, "pitch": 62, "duration": 2, "velocity": 72}, {"time": 2848, "pitch": 66, "duration": 2, "velocity": 74}, {"time": 2848, "pitch": 69, "duration": 2, "velocity": 73}, {"time": 2852, "pitch": 38, "duration": 2, "velocity": 78}, {"time": 2852, "pitch": 45, "duration": 2, "velocity": 93}, {"time": 2852, "pitch": 50, "duration": 2, "velocity": 83}, {"time": 2852, "pitch": 62, "duration": 2, "velocity": 92}, {"time": 2852, "pitch": 66, "duration": 2, "velocity": 95}, {"time": 2852, "pitch": 69, "duration": 2, "velocity": 86}, {"time": 2856, "pitch": 38, "duration": 2, "velocity": 86}, {"time": 2856, "pitch": 45, "duration": 2, "velocity": 102}, {"time": 2856, "pitch": 50, "duration": 2, "velocity": 93}, {"time": 2856, "pitch": 62, "duration": 2, "velocity": 93}, {"time": 2856, "pitch": 66, "duration": 2, "velocity": 107}, {"time": 2856, "pitch": 69, "duration": 2, "velocity": 92}, {"time": 2860, "pitch": 38, "duration": 2, "velocity": 90}, {"time": 2860, "pitch": 45, "duration": 2, "velocity": 102}, {"time": 2860, "pitch": 50, "duration": 2, "velocity": 90}, {"time": 2860, "pitch": 62, "duration": 2, "velocity": 97}, {"time": 2860, "pitch": 66, "duration": 2, "velocity": 117}, {"time": 2860, "pitch": 69, "duration": 2, "velocity": 96}, {"time": 2864, "pitch": 38, "duration": 2, "velocity": 85}, {"time": 2864, "pitch": 45, "duration": 2, "velocity": 112}, {"time": 2864, "pitch": 50, "duration": 2, "velocity": 96}, {"time": 2864, "pitch": 62, "duration": 2, "velocity": 100}, {"time": 2864, "pitch": 66, "duration": 2, "velocity": 117}, {"time": 2864, "pitch": 69, "duration": 2, "velocity": 97}, {"time": 2868, "pitch": 38, "duration": 2, "velocity": 78}, {"time": 2868, "pitch": 45, "duration": 2, "velocity": 85}, {"time": 2868, "pitch": 50, "duration": 2, "velocity": 90}, {"time": 2868, "pitch": 62, "duration": 2, "velocity": 96}, {"time": 2868, "pitch": 66, "duration": 2, "velocity": 112}, {"time": 2868, "pitch": 69, "duration": 2, "velocity": 96}, {"time": 2872, "pitch": 38, "duration": 2, "velocity": 79}, {"time": 2872, "pitch": 45, "duration": 2, "velocity": 97}, {"time": 2872, "pitch": 50, "duration": 2, "velocity": 95}, {"time": 2872, "pitch": 62, "duration": 2, "velocity": 93}, {"time": 2872, "pitch": 66, "duration": 2, "velocity": 107}, {"time": 2872, "pitch": 69, "duration": 2, "velocity": 93}, {"time": 2876, "pitch": 38, "duration": 1, "velocity": 82}, {"time": 2876, "pitch": 45, "duration": 1, "velocity": 95}, {"time": 2876, "pitch": 50, "duration": 1, "velocity": 117}, {"time": 2876, "pitch": 62, "duration": 2, "velocity": 107}, {"time": 2876, "pitch": 66, "duration": 1, "velocity": 122}, {"time": 2876, "pitch": 69, "duration": 2, "velocity": 100}, {"time": 2880, "pitch": 43, "duration": 19, "velocity": 93}, {"time": 2882, "pitch": 50, "duration": 20, "velocity": 99}, {"time": 2884, "pitch": 55, "duration": 14, "velocity": 81}, {"time": 2886, "pitch": 59, "duration": 2, "velocity": 92}, {"time": 2888, "pitch": 62, "duration": 1, "velocity": 99}, {"time": 2890, "pitch": 67, "duration": 2, "velocity": 99}, {"time": 2892, "pitch": 71, "duration": 2, "velocity": 97}, {"time": 2894, "pitch": 74, "duration": 1, "velocity": 112}, {"time": 2896, "pitch": 79, "duration": 2, "velocity": 107}, {"time": 2898, "pitch": 83, "duration": 2, "velocity": 122}, {"time": 2900, "pitch": 86, "duration": 2, "velocity": 127}, {"time": 2902, "pitch": 83, "duration": 1, "velocity": 99}, {"time": 2904, "pitch": 47, "duration": 17, "velocity": 93}, {"time": 2906, "pitch": 54, "duration": 13, "velocity": 99}, {"time": 2908, "pitch": 59, "duration": 10, "velocity": 79}, {"time": 2910, "pitch": 62, "duration": 2, "velocity": 92}, {"time": 2912, "pitch": 66, "duration": 1, "velocity": 112}, {"time": 2914, "pitch": 71, "duration": 2, "velocity": 99}, {"time": 2916, "pitch": 74, "duration": 2, "velocity": 97}, {"time": 2918, "pitch": 78, "duration": 2, "velocity": 127}, {"time": 2920, "pitch": 74, "duration": 2, "velocity": 97}, {"time": 2922, "pitch": 71, "duration": 3, "velocity": 97}, {"time": 2924, "pitch": 74, "duration": 2, "velocity": 81}, {"time": 2926, "pitch": 76, "duration": 1, "velocity": 68}, {"time": 2928, "pitch": 40, "duration": 21, "velocity": 83}, {"time": 2930, "pitch": 47, "duration": 19, "velocity": 95}, {"time": 2932, "pitch": 52, "duration": 15, "velocity": 89}, {"time": 2934, "pitch": 55, "duration": 2, "velocity": 82}, {"time": 2936, "pitch": 59, "duration": 1, "velocity": 82}, {"time": 2938, "pitch": 64, "duration": 1, "velocity": 82}, {"time": 2940, "pitch": 67, "duration": 2, "velocity": 90}, {"time": 2942, "pitch": 71, "duration": 1, "velocity": 99}, {"time": 2944, "pitch": 76, "duration": 2, "velocity": 107}, {"time": 2946, "pitch": 79, "duration": 2, "velocity": 99}, {"time": 2948, "pitch": 83, "duration": 2, "velocity": 117}, {"time": 2950, "pitch": 79, "duration": 1, "velocity": 95}, {"time": 2952, "pitch": 47, "duration": 21, "velocity": 95}, {"time": 2954, "pitch": 54, "duration": 18, "velocity": 102}, {"time": 2956, "pitch": 59, "duration": 16, "velocity": 93}, {"time": 2958, "pitch": 62, "duration": 3, "velocity": 88}, {"time": 2960, "pitch": 66, "duration": 2, "velocity": 112}, {"time": 2962, "pitch": 71, "duration": 1, "velocity": 100}, {"time": 2966, "pitch": 74, "duration": 2, "velocity": 96}, {"time": 2968, "pitch": 78, "duration": 1, "velocity": 122}, {"time": 2970, "pitch": 81, "duration": 1, "velocity": 88}, {"time": 2970, "pitch": 83, "duration": 2, "velocity": 99}, {"time": 2972, "pitch": 86, "duration": 2, "velocity": 85}, {"time": 2974, "pitch": 90, "duration": 1, "velocity": 127}, {"time": 2976, "pitch": 40, "duration": 21, "velocity": 96}, {"time": 2978, "pitch": 47, "duration": 19, "velocity": 88}, {"time": 2980, "pitch": 52, "duration": 16, "velocity": 95}, {"time": 2982, "pitch": 55, "duration": 2, "velocity": 93}, {"time": 2984, "pitch": 59, "duration": 1, "velocity": 100}, {"time": 2986, "pitch": 64, "duration": 2, "velocity": 96}, {"time": 2988, "pitch": 67, "duration": 2, "velocity": 97}, {"time": 2990, "pitch": 71, "duration": 1, "velocity": 127}, {"time": 2992, "pitch": 76, "duration": 2, "velocity": 102}, {"time": 2994, "pitch": 79, "duration": 2, "velocity": 107}, {"time": 2996, "pitch": 83, "duration": 2, "velocity": 127}, {"time": 3000, "pitch": 47, "duration": 21, "velocity": 95}, {"time": 3002, "pitch": 54, "duration": 18, "velocity": 102}, {"time": 3004, "pitch": 59, "duration": 16, "velocity": 93}, {"time": 3006, "pitch": 62, "duration": 3, "velocity": 88}, {"time": 3008, "pitch": 66, "duration": 2, "velocity": 112}, {"time": 3010, "pitch": 71, "duration": 1, "velocity": 100}, {"time": 3014, "pitch": 74, "duration": 2, "velocity": 96}, {"time": 3016, "pitch": 78, "duration": 1, "velocity": 122}, {"time": 3018, "pitch": 81, "duration": 1, "velocity": 88}, {"time": 3018, "pitch": 83, "duration": 2, "velocity": 99}, {"time": 3020, "pitch": 86, "duration": 2, "velocity": 85}, {"time": 3022, "pitch": 90, "duration": 1, "velocity": 127}, {"time": 3024, "pitch": 40, "duration": 21, "velocity": 96}, {"time": 3026, "pitch": 47, "duration": 19, "velocity": 88}, {"time": 3028, "pitch": 52, "duration": 16, "velocity": 95}, {"time": 3030, "pitch": 55, "duration": 2, "velocity": 93}, {"time": 3032, "pitch": 59, "duration": 1, "velocity": 100}, {"time": 3034, "pitch": 64, "duration": 2, "velocity": 96}, {"time": 3036, "pitch": 67, "duration": 2, "velocity": 97}, {"time": 3038, "pitch": 71, "duration": 1, "velocity": 127}, {"time": 3040, "pitch": 76, "duration": 2, "velocity": 102}, {"time": 3042, "pitch": 79, "duration": 2, "velocity": 107}, {"time": 3044, "pitch": 83, "duration": 2, "velocity": 127}, {"time": 3048, "pitch": 36, "duration": 18, "velocity": 85}, {"time": 3050, "pitch": 43, "duration": 16, "velocity": 92}, {"time": 3052, "pitch": 48, "duration": 15, "velocity": 78}, {"time": 3054, "pitch": 52, "duration": 3, "velocity": 76}, {"time": 3056, "pitch": 55, "duration": 1, "velocity": 100}, {"time": 3058, "pitch": 60, "duration": 2, "velocity": 96}, {"time": 3060, "pitch": 64, "duration": 2, "velocity": 92}, {"time": 3062, "pitch": 67, "duration": 1, "velocity": 112}, {"time": 3064, "pitch": 72, "duration": 3, "velocity": 99}, {"time": 3066, "pitch": 76, "duration": 2, "velocity": 95}, {"time": 3068, "pitch": 79, "duration": 2, "velocity": 112}, {"time": 3070, "pitch": 76, "duration": 1, "velocity": 99}, {"time": 3072, "pitch": 47, "duration": 19, "velocity": 82}, {"time": 3074, "pitch": 54, "duration": 14, "velocity": 99}, {"time": 3076, "pitch": 59, "duration": 11, "velocity": 86}, {"time": 3078, "pitch": 62, "duration": 2, "velocity": 85}, {"time": 3080, "pitch": 66, "duration": 1, "velocity": 97}, {"time": 3082, "pitch": 71, "duration": 2, "velocity": 85}, {"time": 3084, "pitch": 74, "duration": 2, "velocity": 93}, {"time": 3086, "pitch": 78, "duration": 2, "velocity": 117}, {"time": 3088, "pitch": 74, "duration": 2, "velocity": 90}, {"time": 3090, "pitch": 71, "duration": 2, "velocity": 93}, {"time": 3092, "pitch": 78, "duration": 2, "velocity": 127}, {"time": 3094, "pitch": 74, "duration": 2, "velocity": 82}, {"time": 3096, "pitch": 45, "duration": 17, "velocity": 78}, {"time": 3098, "pitch": 52, "duration": 13, "velocity": 77}, {"time": 3100, "pitch": 57, "duration": 9, "velocity": 96}, {"time": 3102, "pitch": 60, "duration": 2, "velocity": 77}, {"time": 3104, "pitch": 64, "duration": 1, "velocity": 99}, {"time": 3106, "pitch": 69, "duration": 1, "velocity": 92}, {"time": 3108, "pitch": 72, "duration": 2, "velocity": 112}, {"time": 3110, "pitch": 76, "duration": 2, "velocity": 99}, {"time": 3112, "pitch": 72, "duration": 2, "velocity": 95}, {"time": 3114, "pitch": 69, "duration": 2, "velocity": 100}, {"time": 3116, "pitch": 76, "duration": 2, "velocity": 112}, {"time": 3118, "pitch": 72, "duration": 1, "velocity": 102}, {"time": 3120, "pitch": 38, "duration": 25, "velocity": 85}, {"time": 3122, "pitch": 45, "duration": 22, "velocity": 102}, {"time": 3124, "pitch": 50, "duration": 18, "velocity": 92}, {"time": 3126, "pitch": 54, "duration": 2, "velocity": 112}, {"time": 3128, "pitch": 57, "duration": 1, "velocity": 107}, {"time": 3130, "pitch": 62, "duration": 1, "velocity": 89}, {"time": 3132, "pitch": 66, "duration": 2, "velocity": 127}, {"time": 3134, "pitch": 69, "duration": 1, "velocity": 117}, {"time": 3136, "pitch": 74, "duration": 3, "velocity": 117}, {"time": 3138, "pitch": 78, "duration": 2, "velocity": 127}, {"time": 3140, "pitch": 81, "duration": 1, "velocity": 127}, {"time": 3142, "pitch": 86, "duration": 1, "velocity": 112}, {"time": 3144, "pitch": 43, "duration": 19, "velocity": 93}, {"time": 3144, "pitch": 95, "duration": 1, "velocity": 78}, {"time": 3146, "pitch": 50, "duration": 20, "velocity": 99}, {"time": 3148, "pitch": 55, "duration": 14, "velocity": 81}, {"time": 3150, "pitch": 59, "duration": 2, "velocity": 92}, {"time": 3152, "pitch": 62, "duration": 1, "velocity": 99}, {"time": 3154, "pitch": 67, "duration": 2, "velocity": 99}, {"time": 3156, "pitch": 71, "duration": 2, "velocity": 97}, {"time": 3158, "pitch": 74, "duration": 1, "velocity": 112}, {"time": 3160, "pitch": 79, "duration": 2, "velocity": 107}, {"time": 3162, "pitch": 83, "duration": 2, "velocity": 122}, {"time": 3164, "pitch": 86, "duration": 2, "velocity": 127}, {"time": 3166, "pitch": 83, "duration": 1, "velocity": 99}, {"time": 3168, "pitch": 47, "duration": 17, "velocity": 93}, {"time": 3170, "pitch": 54, "duration": 13, "velocity": 99}, {"time": 3172, "pitch": 59, "duration": 10, "velocity": 79}, {"time": 3174, "pitch": 62, "duration": 2, "velocity": 92}, {"time": 3176, "pitch": 66, "duration": 1, "velocity": 112}, {"time": 3178, "pitch": 71, "duration": 2, "velocity": 99}, {"time": 3180, "pitch": 74, "duration": 2, "velocity": 97}, {"time": 3182, "pitch": 78, "duration": 2, "velocity": 127}, {"time": 3184, "pitch": 74, "duration": 2, "velocity": 97}, {"time": 3186, "pitch": 71, "duration": 3, "velocity": 97}, {"time": 3188, "pitch": 74, "duration": 2, "velocity": 81}, {"time": 3190, "pitch": 76, "duration": 1, "velocity": 68}, {"time": 3192, "pitch": 40, "duration": 21, "velocity": 83}, {"time": 3194, "pitch": 47, "duration": 19, "velocity": 95}, {"time": 3196, "pitch": 52, "duration": 15, "velocity": 89}, {"time": 3198, "pitch": 55, "duration": 2, "velocity": 82}, {"time": 3200, "pitch": 59, "duration": 1, "velocity": 82}, {"time": 3202, "pitch": 64, "duration": 1, "velocity": 82}, {"time": 3204, "pitch": 67, "duration": 2, "velocity": 90}, {"time": 3206, "pitch": 71, "duration": 1, "velocity": 99}, {"time": 3208, "pitch": 76, "duration": 2, "velocity": 107}, {"time": 3210, "pitch": 79, "duration": 2, "velocity": 99}, {"time": 3212, "pitch": 83, "duration": 2, "velocity": 117}, {"time": 3214, "pitch": 79, "duration": 1, "velocity": 95}, {"time": 3216, "pitch": 47, "duration": 21, "velocity": 95}, {"time": 3218, "pitch": 54, "duration": 18, "velocity": 102}, {"time": 3220, "pitch": 59, "duration": 16, "velocity": 93}, {"time": 3222, "pitch": 62, "duration": 3, "velocity": 88}, {"time": 3224, "pitch": 66, "duration": 2, "velocity": 112}, {"time": 3226, "pitch": 71, "duration": 1, "velocity": 100}, {"time": 3230, "pitch": 74, "duration": 2, "velocity": 96}, {"time": 3232, "pitch": 78, "duration": 1, "velocity": 122}, {"time": 3234, "pitch": 81, "duration": 1, "velocity": 88}, {"time": 3234, "pitch": 83, "duration": 2, "velocity": 99}, {"time": 3236, "pitch": 86, "duration": 2, "velocity": 85}, {"time": 3238, "pitch": 90, "duration": 1, "velocity": 127}, {"time": 3240, "pitch": 40, "duration": 21, "velocity": 96}, {"time": 3242, "pitch": 47, "duration": 19, "velocity": 88}, {"time": 3244, "pitch": 52, "duration": 16, "velocity": 95}, {"time": 3246, "pitch": 55, "duration": 2, "velocity": 93}, {"time": 3248, "pitch": 59, "duration": 1, "velocity": 100}, {"time": 3250, "pitch": 64, "duration": 2, "velocity": 96}, {"time": 3252, "pitch": 67, "duration": 2, "velocity": 97}, {"time": 3254, "pitch": 71, "duration": 1, "velocity": 127}, {"time": 3256, "pitch": 76, "duration": 2, "velocity": 102}, {"time": 3258, "pitch": 79, "duration": 2, "velocity": 107}, {"time": 3260, "pitch": 83, "duration": 2, "velocity": 127}, {"time": 3264, "pitch": 47, "duration": 21, "velocity": 95}, {"time": 3266, "pitch": 54, "duration": 18, "velocity": 102}, {"time": 3268, "pitch": 59, "duration": 16, "velocity": 93}, {"time": 3270, "pitch": 62, "duration": 3, "velocity": 88}, {"time": 3272, "pitch": 66, "duration": 2, "velocity": 112}, {"time": 3274, "pitch": 71, "duration": 1, "velocity": 100}, {"time": 3278, "pitch": 74, "duration": 2, "velocity": 96}, {"time": 3280, "pitch": 78, "duration": 1, "velocity": 122}, {"time": 3282, "pitch": 81, "duration": 1, "velocity": 88}, {"time": 3282, "pitch": 83, "duration": 2, "velocity": 99}, {"time": 3284, "pitch": 86, "duration": 2, "velocity": 85}, {"time": 3286, "pitch": 90, "duration": 1, "velocity": 127}, {"time": 3288, "pitch": 40, "duration": 21, "velocity": 96}, {"time": 3290, "pitch": 47, "duration": 19, "velocity": 88}, {"time": 3292, "pitch": 52, "duration": 16, "velocity": 95}, {"time": 3294, "pitch": 55, "duration": 2, "velocity": 93}, {"time": 3296, "pitch": 59, "duration": 1, "velocity": 100}, {"time": 3298, "pitch": 64, "duration": 2, "velocity": 96}, {"time": 3300, "pitch": 67, "duration": 2, "velocity": 97}, {"time": 3302, "pitch": 71, "duration": 1, "velocity": 127}, {"time": 3304, "pitch": 76, "duration": 2, "velocity": 102}, {"time": 3306, "pitch": 79, "duration": 2, "velocity": 107}, {"time": 3308, "pitch": 83, "duration": 2, "velocity": 127}, {"time": 3312, "pitch": 36, "duration": 18, "velocity": 85}, {"time": 3314, "pitch": 43, "duration": 16, "velocity": 92}, {"time": 3316, "pitch": 48, "duration": 15, "velocity": 78}, {"time": 3318, "pitch": 52, "duration": 3, "velocity": 76}, {"time": 3320, "pitch": 55, "duration": 1, "velocity": 100}, {"time": 3322, "pitch": 60, "duration": 2, "velocity": 96}, {"time": 3324, "pitch": 64, "duration": 2, "velocity": 92}, {"time": 3326, "pitch": 67, "duration": 1, "velocity": 112}, {"time": 3328, "pitch": 72, "duration": 3, "velocity": 99}, {"time": 3330, "pitch": 76, "duration": 2, "velocity": 95}, {"time": 3332, "pitch": 79, "duration": 2, "velocity": 112}, {"time": 3334, "pitch": 76, "duration": 1, "velocity": 99}, {"time": 3336, "pitch": 47, "duration": 19, "velocity": 82}, {"time": 3338, "pitch": 54, "duration": 14, "velocity": 99}, {"time": 3340, "pitch": 59, "duration": 11, "velocity": 86}, {"time": 3342, "pitch": 62, "duration": 2, "velocity": 85}, {"time": 3344, "pitch": 66, "duration": 1, "velocity": 97}, {"time": 3346, "pitch": 71, "duration": 2, "velocity": 85}, {"time": 3348, "pitch": 74, "duration": 2, "velocity": 93}, {"time": 3350, "pitch": 78, "duration": 2, "velocity": 117}, {"time": 3352, "pitch": 74, "duration": 2, "velocity": 90}, {"time": 3354, "pitch": 71, "duration": 2, "velocity": 93}, {"time": 3356, "pitch": 78, "duration": 2, "velocity": 127}, {"time": 3358, "pitch": 74, "duration": 2, "velocity": 82}, {"time": 3360, "pitch": 45, "duration": 17, "velocity": 78}, {"time": 3362, "pitch": 52, "duration": 13, "velocity": 77}, {"time": 3364, "pitch": 57, "duration": 9, "velocity": 96}, {"time": 3366, "pitch": 60, "duration": 2, "velocity": 77}, {"time": 3368, "pitch": 64, "duration": 1, "velocity": 99}, {"time": 3370, "pitch": 69, "duration": 1, "velocity": 92}, {"time": 3372, "pitch": 72, "duration": 2, "velocity": 112}, {"time": 3374, "pitch": 76, "duration": 2, "velocity": 99}, {"time": 3376, "pitch": 72, "duration": 2, "velocity": 95}, {"time": 3378, "pitch": 69, "duration": 2, "velocity": 100}, {"time": 3380, "pitch": 76, "duration": 2, "velocity": 112}, {"time": 3382, "pitch": 72, "duration": 1, "velocity": 102}, {"time": 3384, "pitch": 38, "duration": 15, "velocity": 64}, {"time": 3384, "pitch": 45, "duration": 15, "velocity": 72}, {"time": 3384, "pitch": 50, "duration": 14, "velocity": 78}, {"time": 3384, "pitch": 57, "duration": 24, "velocity": 90}, {"time": 3384, "pitch": 62, "duration": 24, "velocity": 90}, {"time": 3384, "pitch": 66, "duration": 24, "velocity": 93}, {"time": 3408, "pitch": 43, "duration": 18, "velocity": 85}, {"time": 3411, "pitch": 50, "duration": 10, "velocity": 58}, {"time": 3415, "pitch": 55, "duration": 5, "velocity": 74}, {"time": 3420, "pitch": 62, "duration": 8, "velocity": 99}, {"time": 3423, "pitch": 50, "duration": 9, "velocity": 67}, {"time": 3427, "pitch": 59, "duration": 26, "velocity": 72}, {"time": 3432, "pitch": 62, "duration": 22, "velocity": 72}, {"time": 3432, "pitch": 55, "duration": 21, "velocity": 78}, {"time": 3432, "pitch": 43, "duration": 20, "velocity": 61}, {"time": 3455, "pitch": 47, "duration": 15, "velocity": 78}, {"time": 3459, "pitch": 54, "duration": 11, "velocity": 69}, {"time": 3464, "pitch": 59, "duration": 5, "velocity": 85}, {"time": 3468, "pitch": 71, "duration": 13, "velocity": 96}, {"time": 3471, "pitch": 66, "duration": 9, "velocity": 90}, {"time": 3476, "pitch": 62, "duration": 5, "velocity": 66}, {"time": 3479, "pitch": 40, "duration": 16, "velocity": 69}, {"time": 3483, "pitch": 47, "duration": 12, "velocity": 72}, {"time": 3487, "pitch": 52, "duration": 10, "velocity": 85}, {"time": 3491, "pitch": 67, "duration": 13, "velocity": 89}, {"time": 3496, "pitch": 64, "duration": 7, "velocity": 77}, {"time": 3499, "pitch": 59, "duration": 5, "velocity": 76}, {"time": 3504, "pitch": 47, "duration": 12, "velocity": 75}, {"time": 3508, "pitch": 54, "duration": 9, "velocity": 54}, {"time": 3512, "pitch": 59, "duration": 4, "velocity": 58}, {"time": 3515, "pitch": 71, "duration": 12, "velocity": 95}, {"time": 3520, "pitch": 66, "duration": 5, "velocity": 55}, {"time": 3523, "pitch": 62, "duration": 5, "velocity": 75}, {"time": 3527, "pitch": 40, "duration": 15, "velocity": 69}, {"time": 3531, "pitch": 47, "duration": 11, "velocity": 48}, {"time": 3536, "pitch": 52, "duration": 5, "velocity": 69}, {"time": 3540, "pitch": 67, "duration": 10, "velocity": 95}, {"time": 3544, "pitch": 64, "duration": 8, "velocity": 79}, {"time": 3548, "pitch": 59, "duration": 4, "velocity": 69}, {"time": 3552, "pitch": 45, "duration": 22, "velocity": 95}, {"time": 3556, "pitch": 52, "duration": 11, "velocity": 45}, {"time": 3560, "pitch": 57, "duration": 5, "velocity": 89}, {"time": 3565, "pitch": 64, "duration": 11, "velocity": 88}, {"time": 3569, "pitch": 52, "duration": 7, "velocity": 31}, {"time": 3573, "pitch": 60, "duration": 3, "velocity": 74}, {"time": 3577, "pitch": 45, "duration": 17, "velocity": 82}, {"time": 3577, "pitch": 64, "duration": 11, "velocity": 82}, {"time": 3577, "pitch": 57, "duration": 11, "velocity": 90}, {"time": 3577, "pitch": 60, "duration": 11, "velocity": 85}, {"time": 3589, "pitch": 64, "duration": 7, "velocity": 75}, {"time": 3589, "pitch": 57, "duration": 9, "velocity": 65}, {"time": 3589, "pitch": 60, "duration": 10, "velocity": 72}, {"time": 3600, "pitch": 62, "duration": 4, "velocity": 73}, {"time": 3600, "pitch": 66, "duration": 4, "velocity": 73}, {"time": 3600, "pitch": 57, "duration": 4, "velocity": 70}, {"time": 3600, "pitch": 38, "duration": 43, "velocity": 95}, {"time": 3604, "pitch": 45, "duration": 38, "velocity": 61}, {"time": 3609, "pitch": 50, "duration": 31, "velocity": 79}, {"time": 3613, "pitch": 54, "duration": 4, "velocity": 66}, {"time": 3617, "pitch": 57, "duration": 1, "velocity": 66}, {"time": 3621, "pitch": 62, "duration": 38, "velocity": 77}, {"time": 3626, "pitch": 66, "duration": 21, "velocity": 66}, {"time": 3638, "pitch": 69, "duration": 8, "velocity": 66}, {"time": 3649, "pitch": 71, "duration": 10, "velocity": 63}, {"time": 3650, "pitch": 69, "duration": 8, "velocity": 53}, {"time": 3650, "pitch": 67, "duration": 9, "velocity": 82}, {"time": 3651, "pitch": 43, "duration": 56, "velocity": 96}, {"time": 3657, "pitch": 50, "duration": 50, "velocity": 56}, {"time": 3660, "pitch": 55, "duration": 46, "velocity": 88}, {"time": 3663, "pitch": 57, "duration": 4, "velocity": 66}, {"time": 3666, "pitch": 59, "duration": 2, "velocity": 59}, {"time": 3668, "pitch": 62, "duration": 1, "velocity": 85}, {"time": 3670, "pitch": 67, "duration": 7, "velocity": 69}, {"time": 3674, "pitch": 71, "duration": 6, "velocity": 52}, {"time": 3678, "pitch": 76, "duration": 3, "velocity": 49}, {"time": 3684, "pitch": 79, "duration": 5, "velocity": 63}, {"time": 3689, "pitch": 83, "duration": 1, "velocity": 70}, {"time": 3693, "pitch": 86, "duration": 2, "velocity": 71}, {"time": 3702, "pitch": 86, "duration": 13, "velocity": 36}, {"time": 3702, "pitch": 91, "duration": 13, "velocity": 47}, {"time": 3703, "pitch": 95, "duration": 12, "velocity": 63}], "annotations": [{"time": 48, "annotation": {"number": 64, "value": 127}, "group": "control_change"}, {"time": 70, "annotation": {"number": 64, "value": 0}, "group": "control_change"}, {"time": 71, "annotation": {"number": 64, "value": 127}, "group": "control_change"}, {"time": 93, "annotation": {"number": 64, "value": 0}, "group": "control_change"}, {"time": 96, "annotation": {"number": 64, "value": 127}, "group": "control_change"}, {"time": 116, "annotation": {"number": 64, "value": 0}, "group": "control_change"}, {"time": 120, "annotation": {"number": 64, "value": 127}, "group": "control_change"}, {"time": 140, "annotation": {"number": 64, "value": 0}, "group": "control_change"}, {"time": 144, "annotation": {"number": 64, "value": 127}, "group": "control_change"}, {"time": 166, "annotation": {"number": 64, "value": 0}, "group": "control_change"}, {"time": 167, "annotation": {"number": 64, "value": 127}, "group": "control_change"}, {"time": 189, "annotation": {"number": 64, "value": 0}, "group": "control_change"}, {"time": 192, "annotation": {"number": 64, "value": 127}, "group": "control_change"}, {"time": 238, "annotation": {"number": 64, "value": 0}, "group": "control_change"}, {"time": 240, "annotation": {"number": 64, "value": 127}, "group": "control_change"}, {"time": 285, "annotation": {"number": 64, "value": 0}, "group": "control_change"}, {"time": 288, "annotation": {"number": 64, "value": 127}, "group": "control_change"}, {"time": 332, "annotation": {"number": 64, "value": 0}, "group": "control_change"}, {"time": 336, "annotation": {"number": 64, "value": 127}, "group": "control_change"}, {"time": 345, "annotation": {"number": 64, "value": 0}, "group": "control_change"}, {"time": 348, "annotation": {"number": 64, "value": 127}, "group": "control_change"}, {"time": 356, "annotation": {"number": 64, "value": 0}, "group": "control_change"}, {"time": 372, "annotation": {"number": 64, "value": 127}, "group": "control_change"}, {"time": 381, "annotation": {"number": 64, "value": 0}, "group": "control_change"}, {"time": 385, "annotation": {"number": 64, "value": 127}, "group": "control_change"}, {"time": 405, "annotation": {"number": 64, "value": 0}, "group": "control_change"}, {"time": 408, "annotation": {"number": 64, "value": 127}, "group": "control_change"}, {"time": 428, "annotation": {"number": 64, "value": 0}, "group": "control_change"}, {"time": 432, "annotation": {"number": 64, "value": 127}, "group": "control_change"}, {"time": 453, "annotation": {"number": 64, "value": 0}, "group": "control_change"}, {"time": 480, "annotation": {"number": 64, "value": 127}, "group": "control_change"}, {"time": 501, "annotation": {"number": 64, "value": 0}, "group": "control_change"}, {"time": 504, "annotation": {"number": 64, "value": 127}, "group": "control_change"}, {"time": 525, "annotation": {"number": 64, "value": 0}, "group": "control_change"}, {"time": 528, "annotation": {"number": 64, "value": 127}, "group": "control_change"}, {"time": 548, "annotation": {"number": 64, "value": 0}, "group": "control_change"}, {"time": 552, "annotation": {"number": 64, "value": 127}, "group": "control_change"}, {"time": 573, "annotation": {"number": 64, "value": 0}, "group": "control_change"}, {"time": 576, "annotation": {"number": 64, "value": 127}, "group": "control_change"}, {"time": 596, "annotation": {"number": 64, "value": 0}, "group": "control_change"}, {"time": 600, "annotation": {"number": 64, "value": 127}, "group": "control_change"}, {"time": 621, "annotation": {"number": 64, "value": 0}, "group": "control_change"}, {"time": 624, "annotation": {"number": 64, "value": 127}, "group": "control_change"}, {"time": 645, "annotation": {"number": 64, "value": 0}, "group": "control_change"}, {"time": 648, "annotation": {"number": 64, "value": 127}, "group": "control_change"}, {"time": 669, "annotation": {"number": 64, "value": 0}, "group": "control_change"}, {"time": 672, "annotation": {"number": 64, "value": 127}, "group": "control_change"}, {"time": 692, "annotation": {"number": 64, "value": 0}, "group": "control_change"}, {"time": 696, "annotation": {"number": 64, "value": 127}, "group": "control_change"}, {"time": 717, "annotation": {"number": 64, "value": 0}, "group": "control_change"}, {"time": 719, "annotation": {"number": 64, "value": 127}, "group": "control_change"}, {"time": 740, "annotation": {"number": 64, "value": 0}, "group": "control_change"}, {"time": 744, "annotation": {"number": 64, "value": 127}, "group": "control_change"}, {"time": 764, "annotation": {"number": 64, "value": 0}, "group": "control_change"}, {"time": 767, "annotation": {"number": 64, "value": 127}, "group": "control_change"}, {"time": 788, "annotation": {"number": 64, "value": 0}, "group": "control_change"}, {"time": 792, "annotation": {"number": 64, "value": 127}, "group": "control_change"}, {"time": 813, "annotation": {"number": 64, "value": 0}, "group": "control_change"}, {"time": 816, "annotation": {"number": 64, "value": 127}, "group": "control_change"}, {"time": 836, "annotation": {"number": 64, "value": 0}, "group": "control_change"}, {"time": 840, "annotation": {"number": 64, "value": 127}, "group": "control_change"}, {"time": 861, "annotation": {"number": 64, "value": 0}, "group": "control_change"}, {"time": 864, "annotation": {"number": 64, "value": 127}, "group": "control_change"}, {"time": 865, "annotation": {"number": 64, "value": 127}, "group": "control_change"}, {"time": 886, "annotation": {"number": 64, "value": 0}, "group": "control_change"}, {"time": 888, "annotation": {"number": 64, "value": 127}, "group": "control_change"}, {"time": 910, "annotation": {"number": 64, "value": 0}, "group": "control_change"}, {"time": 912, "annotation": {"number": 64, "value": 127}, "group": "control_change"}, {"time": 934, "annotation": {"number": 64, "value": 0}, "group": "control_change"}, {"time": 936, "annotation": {"number": 64, "value": 127}, "group": "control_change"}, {"time": 958, "annotation": {"number": 64, "value": 0}, "group": "control_change"}, {"time": 960, "annotation": {"number": 64, "value": 127}, "group": "control_change"}, {"time": 982, "annotation": {"number": 64, "value": 0}, "group": "control_change"}, {"time": 984, "annotation": {"number": 64, "value": 127}, "group": "control_change"}, {"time": 1006, "annotation": {"number": 64, "value": 0}, "group": "control_change"}, {"time": 1008, "annotation": {"number": 64, "value": 127}, "group": "control_change"}, {"time": 1030, "annotation": {"number": 64, "value": 0}, "group": "control_change"}, {"time": 1032, "annotation": {"number": 64, "value": 127}, "group": "control_change"}, {"time": 1055, "annotation": {"number": 64, "value": 0}, "group": "control_change"}, {"time": 1056, "annotation": {"number": 64, "value": 127}, "group": "control_change"}, {"time": 1079, "annotation": {"number": 64, "value": 0}, "group": "control_change"}, {"time": 1081, "annotation": {"number": 64, "value": 127}, "group": "control_change"}, {"time": 1103, "annotation": {"number": 64, "value": 0}, "group": "control_change"}, {"time": 1104, "annotation": {"number": 64, "value": 127}, "group": "control_change"}, {"time": 1128, "annotation": {"number": 64, "value": 0}, "group": "control_change"}, {"time": 1129, "annotation": {"number": 64, "value": 127}, "group": "control_change"}, {"time": 1150, "annotation": {"number": 64, "value": 0}, "group": "control_change"}, {"time": 1152, "annotation": {"number": 64, "value": 127}, "group": "control_change"}, {"time": 1174, "annotation": {"number": 64, "value": 0}, "group": "control_change"}, {"time": 1176, "annotation": {"number": 64, "value": 127}, "group": "control_change"}, {"time": 1198, "annotation": {"number": 64, "value": 0}, "group": "control_change"}, {"time": 1200, "annotation": {"number": 64, "value": 127}, "group": "control_change"}, {"time": 1222, "annotation": {"number": 64, "value": 0}, "group": "control_change"}, {"time": 1224, "annotation": {"number": 64, "value": 127}, "group": "control_change"}, {"time": 1246, "annotation": {"number": 64, "value": 0}, "group": "control_change"}, {"time": 1248, "annotation": {"number": 64, "value": 127}, "group": "control_change"}, {"time": 1270, "annotation": {"number": 64, "value": 0}, "group": "control_change"}, {"time": 1272, "annotation": {"number": 64, "value": 127}, "group": "control_change"}, {"time": 1294, "annotation": {"number": 64, "value": 0}, "group": "control_change"}, {"time": 1296, "annotation": {"number": 64, "value": 127}, "group": "control_change"}, {"time": 1319, "annotation": {"number": 64, "value": 0}, "group": "control_change"}, {"time": 1320, "annotation": {"number": 64, "value": 127}, "group": "control_change"}, {"time": 1343, "annotation": {"number": 64, "value": 0}, "group": "control_change"}, {"time": 1345, "annotation": {"number": 64, "value": 127}, "group": "control_change"}, {"time": 1367, "annotation": {"number": 64, "value": 0}, "group": "control_change"}, {"time": 1379, "annotation": {"number": 64, "value": 127}, "group": "control_change"}, {"time": 1390, "annotation": {"number": 64, "value": 0}, "group": "control_change"}, {"time": 1393, "annotation": {"number": 64, "value": 127}, "group": "control_change"}, {"time": 1412, "annotation": {"number": 64, "value": 0}, "group": "control_change"}, {"time": 1428, "annotation": {"number": 64, "value": 127}, "group": "control_change"}, {"time": 1441, "annotation": {"number": 64, "value": 0}, "group": "control_change"}, {"time": 1488, "annotation": {"number": 64, "value": 127}, "group": "control_change"}, {"time": 1535, "annotation": {"number": 64, "value": 0}, "group": "control_change"}, {"time": 1536, "annotation": {"number": 64, "value": 127}, "group": "control_change"}, {"time": 1585, "annotation": {"number": 64, "value": 0}, "group": "control_change"}, {"time": 1585, "annotation": {"number": 64, "value": 127}, "group": "control_change"}, {"time": 1630, "annotation": {"number": 64, "value": 0}, "group": "control_change"}, {"time": 1633, "annotation": {"number": 64, "value": 127}, "group": "control_change"}, {"time": 1679, "annotation": {"number": 64, "value": 0}, "group": "control_change"}, {"time": 1681, "annotation": {"number": 64, "value": 127}, "group": "control_change"}, {"time": 1726, "annotation": {"number": 64, "value": 0}, "group": "control_change"}, {"time": 1729, "annotation": {"number": 64, "value": 127}, "group": "control_change"}, {"time": 1774, "annotation": {"number": 64, "value": 0}, "group": "control_change"}, {"time": 1776, "annotation": {"number": 64, "value": 127}, "group": "control_change"}, {"time": 1822, "annotation": {"number": 64, "value": 0}, "group": "control_change"}, {"time": 1825, "annotation": {"number": 64, "value": 127}, "group": "control_change"}, {"time": 1873, "annotation": {"number": 64, "value": 0}, "group": "control_change"}, {"time": 1893, "annotation": {"number": 64, "value": 0}, "group": "control_change"}, {"time": 1896, "annotation": {"number": 64, "value": 127}, "group": "control_change"}, {"time": 1917, "annotation": {"number": 64, "value": 0}, "group": "control_change"}, {"time": 1920, "annotation": {"number": 64, "value": 127}, "group": "control_change"}, {"time": 1940, "annotation": {"number": 64, "value": 0}, "group": "control_change"}, {"time": 1944, "annotation": {"number": 64, "value": 127}, "group": "control_change"}, {"time": 1965, "annotation": {"number": 64, "value": 0}, "group": "control_change"}, {"time": 1968, "annotation": {"number": 64, "value": 127}, "group": "control_change"}, {"time": 1988, "annotation": {"number": 64, "value": 0}, "group": "control_change"}, {"time": 1992, "annotation": {"number": 64, "value": 127}, "group": "control_change"}, {"time": 2013, "annotation": {"number": 64, "value": 0}, "group": "control_change"}, {"time": 2016, "annotation": {"number": 64, "value": 127}, "group": "control_change"}, {"time": 2037, "annotation": {"number": 64, "value": 0}, "group": "control_change"}, {"time": 2040, "annotation": {"number": 64, "value": 127}, "group": "control_change"}, {"time": 2061, "annotation": {"number": 64, "value": 0}, "group": "control_change"}, {"time": 2064, "annotation": {"number": 64, "value": 127}, "group": "control_change"}, {"time": 2084, "annotation": {"number": 64, "value": 0}, "group": "control_change"}, {"time": 2088, "annotation": {"number": 64, "value": 127}, "group": "control_change"}, {"time": 2109, "annotation": {"number": 64, "value": 0}, "group": "control_change"}, {"time": 2111, "annotation": {"number": 64, "value": 127}, "group": "control_change"}, {"time": 2132, "annotation": {"number": 64, "value": 0}, "group": "control_change"}, {"time": 2136, "annotation": {"number": 64, "value": 127}, "group": "control_change"}, {"time": 2156, "annotation": {"number": 64, "value": 0}, "group": "control_change"}, {"time": 2159, "annotation": {"number": 64, "value": 127}, "group": "control_change"}, {"time": 2180, "annotation": {"number": 64, "value": 0}, "group": "control_change"}, {"time": 2184, "annotation": {"number": 64, "value": 127}, "group": "control_change"}, {"time": 2205, "annotation": {"number": 64, "value": 0}, "group": "control_change"}, {"time": 2208, "annotation": {"number": 64, "value": 127}, "group": "control_change"}, {"time": 2228, "annotation": {"number": 64, "value": 0}, "group": "control_change"}, {"time": 2232, "annotation": {"number": 64, "value": 127}, "group": "control_change"}, {"time": 2253, "annotation": {"number": 64, "value": 0}, "group": "control_change"}, {"time": 2256, "annotation": {"number": 64, "value": 127}, "group": "control_change"}, {"time": 2257, "annotation": {"number": 64, "value": 127}, "group": "control_change"}, {"time": 2278, "annotation": {"number": 64, "value": 0}, "group": "control_change"}, {"time": 2280, "annotation": {"number": 64, "value": 127}, "group": "control_change"}, {"time": 2302, "annotation": {"number": 64, "value": 0}, "group": "control_change"}, {"time": 2304, "annotation": {"number": 64, "value": 127}, "group": "control_change"}, {"time": 2326, "annotation": {"number": 64, "value": 0}, "group": "control_change"}, {"time": 2328, "annotation": {"number": 64, "value": 127}, "group": "control_change"}, {"time": 2350, "annotation": {"number": 64, "value": 0}, "group": "control_change"}, {"time": 2352, "annotation": {"number": 64, "value": 127}, "group": "control_change"}, {"time": 2374, "annotation": {"number": 64, "value": 0}, "group": "control_change"}, {"time": 2376, "annotation": {"number": 64, "value": 127}, "group": "control_change"}, {"time": 2398, "annotation": {"number": 64, "value": 0}, "group": "control_change"}, {"time": 2400, "annotation": {"number": 64, "value": 127}, "group": "control_change"}, {"time": 2422, "annotation": {"number": 64, "value": 0}, "group": "control_change"}, {"time": 2424, "annotation": {"number": 64, "value": 127}, "group": "control_change"}, {"time": 2447, "annotation": {"number": 64, "value": 0}, "group": "control_change"}, {"time": 2448, "annotation": {"number": 64, "value": 127}, "group": "control_change"}, {"time": 2471, "annotation": {"number": 64, "value": 0}, "group": "control_change"}, {"time": 2473, "annotation": {"number": 64, "value": 127}, "group": "control_change"}, {"time": 2495, "annotation": {"number": 64, "value": 0}, "group": "control_change"}, {"time": 2496, "annotation": {"number": 64, "value": 127}, "group": "control_change"}, {"time": 2520, "annotation": {"number": 64, "value": 0}, "group": "control_change"}, {"time": 2521, "annotation": {"number": 64, "value": 127}, "group": "control_change"}, {"time": 2542, "annotation": {"number": 64, "value": 0}, "group": "control_change"}, {"time": 2544, "annotation": {"number": 64, "value": 127}, "group": "control_change"}, {"time": 2566, "annotation": {"number": 64, "value": 0}, "group": "control_change"}, {"time": 2568, "annotation": {"number": 64, "value": 127}, "group": "control_change"}, {"time": 2590, "annotation": {"number": 64, "value": 0}, "group": "control_change"}, {"time": 2592, "annotation": {"number": 64, "value": 127}, "group": "control_change"}, {"time": 2614, "annotation": {"number": 64, "value": 0}, "group": "control_change"}, {"time": 2616, "annotation": {"number": 64, "value": 127}, "group": "control_change"}, {"time": 2638, "annotation": {"number": 64, "value": 0}, "group": "control_change"}, {"time": 2640, "annotation": {"number": 64, "value": 127}, "group": "control_change"}, {"time": 2662, "annotation": {"number": 64, "value": 0}, "group": "control_change"}, {"time": 2664, "annotation": {"number": 64, "value": 127}, "group": "control_change"}, {"time": 2686, "annotation": {"number": 64, "value": 0}, "group": "control_change"}, {"time": 2688, "annotation": {"number": 64, "value": 127}, "group": "control_change"}, {"time": 2711, "annotation": {"number": 64, "value": 0}, "group": "control_change"}, {"time": 2712, "annotation": {"number": 64, "value": 127}, "group": "control_change"}, {"time": 2735, "annotation": {"number": 64, "value": 0}, "group": "control_change"}, {"time": 2737, "annotation": {"number": 64, "value": 127}, "group": "control_change"}, {"time": 2759, "annotation": {"number": 64, "value": 0}, "group": "control_change"}, {"time": 2771, "annotation": {"number": 64, "value": 127}, "group": "control_change"}, {"time": 2782, "annotation": {"number": 64, "value": 0}, "group": "control_change"}, {"time": 2785, "annotation": {"number": 64, "value": 127}, "group": "control_change"}, {"time": 2804, "annotation": {"number": 64, "value": 0}, "group": "control_change"}, {"time": 2819, "annotation": {"number": 64, "value": 127}, "group": "control_change"}, {"time": 2822, "annotation": {"number": 64, "value": 0}, "group": "control_change"}, {"time": 2824, "annotation": {"number": 64, "value": 127}, "group": "control_change"}, {"time": 2829, "annotation": {"number": 64, "value": 0}, "group": "control_change"}, {"time": 2881, "annotation": {"number": 64, "value": 127}, "group": "control_change"}, {"time": 2902, "annotation": {"number": 64, "value": 0}, "group": "control_change"}, {"time": 2904, "annotation": {"number": 64, "value": 127}, "group": "control_change"}, {"time": 2926, "annotation": {"number": 64, "value": 0}, "group": "control_change"}, {"time": 2928, "annotation": {"number": 64, "value": 127}, "group": "control_change"}, {"time": 2950, "annotation": {"number": 64, "value": 0}, "group": "control_change"}, {"time": 2952, "annotation": {"number": 64, "value": 127}, "group": "control_change"}, {"time": 2974, "annotation": {"number": 64, "value": 0}, "group": "control_change"}, {"time": 2976, "annotation": {"number": 64, "value": 127}, "group": "control_change"}, {"time": 2998, "annotation": {"number": 64, "value": 0}, "group": "control_change"}, {"time": 3000, "annotation": {"number": 64, "value": 127}, "group": "control_change"}, {"time": 3022, "annotation": {"number": 64, "value": 0}, "group": "control_change"}, {"time": 3024, "annotation": {"number": 64, "value": 127}, "group": "control_change"}, {"time": 3046, "annotation": {"number": 64, "value": 0}, "group": "control_change"}, {"time": 3048, "annotation": {"number": 64, "value": 127}, "group": "control_change"}, {"time": 3071, "annotation": {"number": 64, "value": 0}, "group": "control_change"}, {"time": 3072, "annotation": {"number": 64, "value": 127}, "group": "control_change"}, {"time": 3095, "annotation": {"number": 64, "value": 0}, "group": "control_change"}, {"time": 3097, "annotation": {"number": 64, "value": 127}, "group": "control_change"}, {"time": 3119, "annotation": {"number": 64, "value": 0}, "group": "control_change"}, {"time": 3120, "annotation": {"number": 64, "value": 127}, "group": "control_change"}, {"time": 3144, "annotation": {"number": 64, "value": 0}, "group": "control_change"}, {"time": 3145, "annotation": {"number": 64, "value": 127}, "group": "control_change"}, {"time": 3166, "annotation": {"number": 64, "value": 0}, "group": "control_change"}, {"time": 3168, "annotation": {"number": 64, "value": 127}, "group": "control_change"}, {"time": 3190, "annotation": {"number": 64, "value": 0}, "group": "control_change"}, {"time": 3192, "annotation": {"number": 64, "value": 127}, "group": "control_change"}, {"time": 3214, "annotation": {"number": 64, "value": 0}, "group": "control_change"}, {"time": 3216, "annotation": {"number": 64, "value": 127}, "group": "control_change"}, {"time": 3238, "annotation": {"number": 64, "value": 0}, "group": "control_change"}, {"time": 3240, "annotation": {"number": 64, "value": 127}, "group": "control_change"}, {"time": 3262, "annotation": {"number": 64, "value": 0}, "group": "control_change"}, {"time": 3264, "annotation": {"number": 64, "value": 127}, "group": "control_change"}, {"time": 3286, "annotation": {"number": 64, "value": 0}, "group": "control_change"}, {"time": 3288, "annotation": {"number": 64, "value": 127}, "group": "control_change"}, {"time": 3310, "annotation": {"number": 64, "value": 0}, "group": "control_change"}, {"time": 3312, "annotation": {"number": 64, "value": 127}, "group": "control_change"}, {"time": 3335, "annotation": {"number": 64, "value": 0}, "group": "control_change"}, {"time": 3336, "annotation": {"number": 64, "value": 127}, "group": "control_change"}, {"time": 3359, "annotation": {"number": 64, "value": 0}, "group": "control_change"}, {"time": 3361, "annotation": {"number": 64, "value": 127}, "group": "control_change"}, {"time": 3383, "annotation": {"number": 64, "value": 0}, "group": "control_change"}, {"time": 3395, "annotation": {"number": 64, "value": 127}, "group": "control_change"}, {"time": 3406, "annotation": {"number": 64, "value": 0}, "group": "control_change"}, {"time": 3409, "annotation": {"number": 64, "value": 127}, "group": "control_change"}, {"time": 3430, "annotation": {"number": 64, "value": 0}, "group": "control_change"}, {"time": 3456, "annotation": {"number": 64, "value": 127}, "group": "control_change"}, {"time": 3478, "annotation": {"number": 64, "value": 0}, "group": "control_change"}, {"time": 3480, "annotation": {"number": 64, "value": 127}, "group": "control_change"}, {"time": 3503, "annotation": {"number": 64, "value": 0}, "group": "control_change"}, {"time": 3505, "annotation": {"number": 64, "value": 127}, "group": "control_change"}, {"time": 3526, "annotation": {"number": 64, "value": 0}, "group": "control_change"}, {"time": 3528, "annotation": {"number": 64, "value": 127}, "group": "control_change"}, {"time": 3550, "annotation": {"number": 64, "value": 0}, "group": "control_change"}, {"time": 3554, "annotation": {"number": 64, "value": 127}, "group": "control_change"}, {"time": 3576, "annotation": {"number": 64, "value": 0}, "group": "control_change"}, {"time": 3601, "annotation": {"number": 64, "value": 127}, "group": "control_change"}, {"time": 3651, "annotation": {"number": 64, "value": 0}, "group": "control_change"}, {"time": 3656, "annotation": {"number": 64, "value": 127}, "group": "control_change"}, {"time": 3726, "annotation": {"number": 64, "value": 0}, "group": "control_change"}, {"time": 3728, "annotation": {"number": 64, "value": 127}, "group": "control_change"}, {"time": 3731, "annotation": {"number": 64, "value": 0}, "group": "control_change"}]}]}