{"metadata": {"schema_version": "0.2", "title": "None", "source_filename": "394.mid", "source_format": "midi"}, "resolution": 12, "tempos": [{"time": 0, "qpm": 89.9999550000225}, {"time": 3888, "qpm": 88.00002346667293}, {"time": 3960, "qpm": 86.00005160003096}, {"time": 3996, "qpm": 88.00002346667293}], "time_signatures": [{"time": 0, "numerator": 1, "denominator": 4}], "tracks": [{"program": 0, "is_drum": false, "name": "MELODY", "notes": [{"time": 389, "pitch": 63, "duration": 5, "velocity": 127}, {"time": 395, "pitch": 65, "duration": 4, "velocity": 122}, {"time": 401, "pitch": 67, "duration": 11, "velocity": 127}, {"time": 419, "pitch": 67, "duration": 5, "velocity": 112}, {"time": 425, "pitch": 65, "duration": 6, "velocity": 117}, {"time": 437, "pitch": 63, "duration": 5, "velocity": 127}, {"time": 443, "pitch": 62, "duration": 7, "velocity": 107}, {"time": 449, "pitch": 63, "duration": 7, "velocity": 127}, {"time": 455, "pitch": 63, "duration": 1, "velocity": 127}, {"time": 461, "pitch": 63, "duration": 4, "velocity": 122}, {"time": 467, "pitch": 65, "duration": 4, "velocity": 117}, {"time": 473, "pitch": 67, "duration": 8, "velocity": 127}, {"time": 485, "pitch": 65, "duration": 4, "velocity": 122}, {"time": 491, "pitch": 67, "duration": 3, "velocity": 127}, {"time": 497, "pitch": 68, "duration": 9, "velocity": 127}, {"time": 515, "pitch": 68, "duration": 4, "velocity": 122}, {"time": 521, "pitch": 67, "duration": 8, "velocity": 127}, {"time": 533, "pitch": 65, "duration": 5, "velocity": 127}, {"time": 539, "pitch": 67, "duration": 4, "velocity": 127}, {"time": 545, "pitch": 67, "duration": 4, "velocity": 127}, {"time": 551, "pitch": 65, "duration": 4, "velocity": 122}, {"time": 557, "pitch": 65, "duration": 3, "velocity": 112}, {"time": 563, "pitch": 60, "duration": 3, "velocity": 100}, {"time": 569, "pitch": 63, "duration": 9, "velocity": 127}, {"time": 581, "pitch": 65, "duration": 4, "velocity": 117}, {"time": 593, "pitch": 67, "duration": 6, "velocity": 127}, {"time": 605, "pitch": 58, "duration": 5, "velocity": 122}, {"time": 611, "pitch": 67, "duration": 5, "velocity": 112}, {"time": 617, "pitch": 65, "duration": 8, "velocity": 127}, {"time": 629, "pitch": 63, "duration": 2, "velocity": 127}, {"time": 635, "pitch": 62, "duration": 2, "velocity": 100}, {"time": 641, "pitch": 63, "duration": 4, "velocity": 127}, {"time": 647, "pitch": 63, "duration": 3, "velocity": 127}, {"time": 653, "pitch": 63, "duration": 3, "velocity": 127}, {"time": 659, "pitch": 65, "duration": 3, "velocity": 122}, {"time": 665, "pitch": 67, "duration": 8, "velocity": 127}, {"time": 677, "pitch": 65, "duration": 2, "velocity": 102}, {"time": 683, "pitch": 67, "duration": 3, "velocity": 117}, {"time": 689, "pitch": 68, "duration": 8, "velocity": 127}, {"time": 705, "pitch": 68, "duration": 4, "velocity": 127}, {"time": 713, "pitch": 67, "duration": 7, "velocity": 127}, {"time": 719, "pitch": 65, "duration": 3, "velocity": 112}, {"time": 725, "pitch": 63, "duration": 3, "velocity": 112}, {"time": 731, "pitch": 67, "duration": 3, "velocity": 127}, {"time": 737, "pitch": 68, "duration": 6, "velocity": 127}, {"time": 749, "pitch": 62, "duration": 7, "velocity": 127}, {"time": 761, "pitch": 63, "duration": 24, "velocity": 127}, {"time": 791, "pitch": 67, "duration": 3, "velocity": 100}, {"time": 797, "pitch": 67, "duration": 3, "velocity": 102}, {"time": 803, "pitch": 63, "duration": 2, "velocity": 102}, {"time": 806, "pitch": 65, "duration": 7, "velocity": 100}, {"time": 815, "pitch": 65, "duration": 3, "velocity": 99}, {"time": 821, "pitch": 65, "duration": 3, "velocity": 102}, {"time": 827, "pitch": 62, "duration": 2, "velocity": 96}, {"time": 830, "pitch": 63, "duration": 8, "velocity": 127}, {"time": 839, "pitch": 67, "duration": 3, "velocity": 117}, {"time": 845, "pitch": 67, "duration": 3, "velocity": 96}, {"time": 851, "pitch": 63, "duration": 2, "velocity": 117}, {"time": 854, "pitch": 65, "duration": 7, "velocity": 107}, {"time": 863, "pitch": 65, "duration": 3, "velocity": 107}, {"time": 869, "pitch": 65, "duration": 3, "velocity": 102}, {"time": 875, "pitch": 62, "duration": 2, "velocity": 102}, {"time": 878, "pitch": 63, "duration": 6, "velocity": 122}, {"time": 887, "pitch": 63, "duration": 2, "velocity": 127}, {"time": 893, "pitch": 63, "duration": 3, "velocity": 127}, {"time": 899, "pitch": 65, "duration": 2, "velocity": 102}, {"time": 902, "pitch": 63, "duration": 6, "velocity": 112}, {"time": 911, "pitch": 58, "duration": 3, "velocity": 122}, {"time": 917, "pitch": 63, "duration": 4, "velocity": 127}, {"time": 923, "pitch": 62, "duration": 4, "velocity": 112}, {"time": 929, "pitch": 60, "duration": 4, "velocity": 112}, {"time": 941, "pitch": 67, "duration": 11, "velocity": 127}, {"time": 953, "pitch": 65, "duration": 5, "velocity": 127}, {"time": 965, "pitch": 63, "duration": 4, "velocity": 127}, {"time": 971, "pitch": 65, "duration": 5, "velocity": 127}, {"time": 983, "pitch": 67, "duration": 3, "velocity": 127}, {"time": 989, "pitch": 67, "duration": 3, "velocity": 127}, {"time": 995, "pitch": 63, "duration": 2, "velocity": 127}, {"time": 998, "pitch": 65, "duration": 7, "velocity": 127}, {"time": 1007, "pitch": 65, "duration": 1, "velocity": 127}, {"time": 1010, "pitch": 65, "duration": 1, "velocity": 85}, {"time": 1013, "pitch": 65, "duration": 2, "velocity": 107}, {"time": 1019, "pitch": 62, "duration": 2, "velocity": 112}, {"time": 1022, "pitch": 63, "duration": 3, "velocity": 127}, {"time": 1031, "pitch": 67, "duration": 3, "velocity": 100}, {"time": 1037, "pitch": 67, "duration": 3, "velocity": 107}, {"time": 1043, "pitch": 63, "duration": 2, "velocity": 127}, {"time": 1046, "pitch": 65, "duration": 4, "velocity": 112}, {"time": 1055, "pitch": 65, "duration": 3, "velocity": 127}, {"time": 1061, "pitch": 65, "duration": 2, "velocity": 107}, {"time": 1067, "pitch": 62, "duration": 2, "velocity": 99}, {"time": 1070, "pitch": 63, "duration": 4, "velocity": 122}, {"time": 1079, "pitch": 63, "duration": 3, "velocity": 127}, {"time": 1085, "pitch": 63, "duration": 4, "velocity": 122}, {"time": 1091, "pitch": 65, "duration": 3, "velocity": 107}, {"time": 1097, "pitch": 63, "duration": 4, "velocity": 122}, {"time": 1103, "pitch": 58, "duration": 4, "velocity": 127}, {"time": 1109, "pitch": 63, "duration": 4, "velocity": 127}, {"time": 1115, "pitch": 60, "duration": 4, "velocity": 117}, {"time": 1121, "pitch": 60, "duration": 5, "velocity": 127}, {"time": 1133, "pitch": 67, "duration": 9, "velocity": 122}, {"time": 1145, "pitch": 65, "duration": 4, "velocity": 127}, {"time": 1157, "pitch": 63, "duration": 3, "velocity": 127}, {"time": 1163, "pitch": 62, "duration": 4, "velocity": 117}, {"time": 1169, "pitch": 60, "duration": 4, "velocity": 127}, {"time": 1181, "pitch": 60, "duration": 3, "velocity": 112}, {"time": 1187, "pitch": 63, "duration": 3, "velocity": 122}, {"time": 1193, "pitch": 62, "duration": 5, "velocity": 127}, {"time": 1205, "pitch": 62, "duration": 4, "velocity": 127}, {"time": 1211, "pitch": 60, "duration": 4, "velocity": 112}, {"time": 1217, "pitch": 58, "duration": 5, "velocity": 127}, {"time": 1229, "pitch": 58, "duration": 5, "velocity": 127}, {"time": 1235, "pitch": 65, "duration": 4, "velocity": 122}, {"time": 1241, "pitch": 63, "duration": 5, "velocity": 127}, {"time": 1253, "pitch": 60, "duration": 4, "velocity": 117}, {"time": 1259, "pitch": 55, "duration": 5, "velocity": 102}, {"time": 1265, "pitch": 56, "duration": 4, "velocity": 127}, {"time": 1277, "pitch": 56, "duration": 4, "velocity": 107}, {"time": 1283, "pitch": 63, "duration": 2, "velocity": 117}, {"time": 1286, "pitch": 63, "duration": 6, "velocity": 122}, {"time": 1295, "pitch": 62, "duration": 2, "velocity": 107}, {"time": 1301, "pitch": 62, "duration": 3, "velocity": 127}, {"time": 1307, "pitch": 60, "duration": 5, "velocity": 122}, {"time": 1319, "pitch": 58, "duration": 22, "velocity": 117}, {"time": 1349, "pitch": 63, "duration": 4, "velocity": 127}, {"time": 1355, "pitch": 62, "duration": 3, "velocity": 122}, {"time": 1361, "pitch": 60, "duration": 5, "velocity": 112}, {"time": 1373, "pitch": 60, "duration": 4, "velocity": 122}, {"time": 1379, "pitch": 63, "duration": 4, "velocity": 127}, {"time": 1385, "pitch": 62, "duration": 8, "velocity": 127}, {"time": 1397, "pitch": 62, "duration": 4, "velocity": 117}, {"time": 1403, "pitch": 60, "duration": 3, "velocity": 112}, {"time": 1409, "pitch": 58, "duration": 4, "velocity": 127}, {"time": 1421, "pitch": 65, "duration": 10, "velocity": 122}, {"time": 1433, "pitch": 63, "duration": 5, "velocity": 127}, {"time": 1445, "pitch": 60, "duration": 4, "velocity": 112}, {"time": 1451, "pitch": 62, "duration": 2, "velocity": 127}, {"time": 1454, "pitch": 63, "duration": 6, "velocity": 122}, {"time": 1463, "pitch": 63, "duration": 3, "velocity": 127}, {"time": 1469, "pitch": 63, "duration": 2, "velocity": 127}, {"time": 1475, "pitch": 62, "duration": 3, "velocity": 127}, {"time": 1481, "pitch": 63, "duration": 4, "velocity": 127}, {"time": 1487, "pitch": 65, "duration": 4, "velocity": 127}, {"time": 1493, "pitch": 67, "duration": 2, "velocity": 122}, {"time": 1499, "pitch": 67, "duration": 11, "velocity": 127}, {"time": 1511, "pitch": 68, "duration": 2, "velocity": 127}, {"time": 1517, "pitch": 67, "duration": 5, "velocity": 127}, {"time": 1523, "pitch": 65, "duration": 15, "velocity": 127}, {"time": 1541, "pitch": 63, "duration": 4, "velocity": 127}, {"time": 1547, "pitch": 65, "duration": 4, "velocity": 112}, {"time": 1553, "pitch": 67, "duration": 7, "velocity": 127}, {"time": 1571, "pitch": 67, "duration": 4, "velocity": 122}, {"time": 1577, "pitch": 65, "duration": 5, "velocity": 117}, {"time": 1589, "pitch": 63, "duration": 3, "velocity": 127}, {"time": 1595, "pitch": 62, "duration": 3, "velocity": 100}, {"time": 1601, "pitch": 63, "duration": 5, "velocity": 127}, {"time": 1607, "pitch": 63, "duration": 3, "velocity": 117}, {"time": 1613, "pitch": 63, "duration": 3, "velocity": 127}, {"time": 1619, "pitch": 65, "duration": 4, "velocity": 117}, {"time": 1625, "pitch": 67, "duration": 6, "velocity": 127}, {"time": 1637, "pitch": 65, "duration": 3, "velocity": 122}, {"time": 1643, "pitch": 67, "duration": 3, "velocity": 127}, {"time": 1649, "pitch": 68, "duration": 7, "velocity": 127}, {"time": 1667, "pitch": 68, "duration": 3, "velocity": 127}, {"time": 1673, "pitch": 67, "duration": 7, "velocity": 122}, {"time": 1685, "pitch": 65, "duration": 5, "velocity": 117}, {"time": 1691, "pitch": 67, "duration": 3, "velocity": 127}, {"time": 1697, "pitch": 67, "duration": 3, "velocity": 127}, {"time": 1703, "pitch": 65, "duration": 3, "velocity": 99}, {"time": 1709, "pitch": 65, "duration": 3, "velocity": 99}, {"time": 1715, "pitch": 60, "duration": 3, "velocity": 102}, {"time": 1721, "pitch": 63, "duration": 6, "velocity": 127}, {"time": 1733, "pitch": 65, "duration": 4, "velocity": 127}, {"time": 1745, "pitch": 67, "duration": 4, "velocity": 122}, {"time": 1757, "pitch": 58, "duration": 2, "velocity": 122}, {"time": 1763, "pitch": 67, "duration": 4, "velocity": 112}, {"time": 1769, "pitch": 65, "duration": 6, "velocity": 127}, {"time": 1781, "pitch": 63, "duration": 3, "velocity": 127}, {"time": 1787, "pitch": 62, "duration": 3, "velocity": 107}, {"time": 1793, "pitch": 63, "duration": 4, "velocity": 127}, {"time": 1799, "pitch": 63, "duration": 2, "velocity": 122}, {"time": 1805, "pitch": 63, "duration": 2, "velocity": 127}, {"time": 1808, "pitch": 65, "duration": 4, "velocity": 107}, {"time": 1814, "pitch": 67, "duration": 6, "velocity": 127}, {"time": 1829, "pitch": 65, "duration": 3, "velocity": 112}, {"time": 1835, "pitch": 67, "duration": 3, "velocity": 122}, {"time": 1841, "pitch": 68, "duration": 7, "velocity": 102}, {"time": 1859, "pitch": 68, "duration": 3, "velocity": 127}, {"time": 1865, "pitch": 67, "duration": 3, "velocity": 122}, {"time": 1871, "pitch": 65, "duration": 4, "velocity": 117}, {"time": 1877, "pitch": 63, "duration": 3, "velocity": 122}, {"time": 1883, "pitch": 67, "duration": 4, "velocity": 127}, {"time": 1889, "pitch": 68, "duration": 6, "velocity": 127}, {"time": 1901, "pitch": 62, "duration": 4, "velocity": 127}, {"time": 1913, "pitch": 63, "duration": 27, "velocity": 127}, {"time": 1943, "pitch": 67, "duration": 3, "velocity": 100}, {"time": 1949, "pitch": 67, "duration": 3, "velocity": 102}, {"time": 1955, "pitch": 63, "duration": 2, "velocity": 102}, {"time": 1958, "pitch": 65, "duration": 7, "velocity": 100}, {"time": 1967, "pitch": 65, "duration": 3, "velocity": 99}, {"time": 1973, "pitch": 65, "duration": 3, "velocity": 102}, {"time": 1979, "pitch": 62, "duration": 2, "velocity": 96}, {"time": 1982, "pitch": 63, "duration": 8, "velocity": 127}, {"time": 1991, "pitch": 67, "duration": 3, "velocity": 117}, {"time": 1997, "pitch": 67, "duration": 3, "velocity": 96}, {"time": 2003, "pitch": 63, "duration": 2, "velocity": 117}, {"time": 2006, "pitch": 65, "duration": 7, "velocity": 107}, {"time": 2015, "pitch": 65, "duration": 3, "velocity": 107}, {"time": 2021, "pitch": 65, "duration": 3, "velocity": 102}, {"time": 2027, "pitch": 62, "duration": 2, "velocity": 102}, {"time": 2030, "pitch": 63, "duration": 6, "velocity": 122}, {"time": 2039, "pitch": 63, "duration": 2, "velocity": 127}, {"time": 2045, "pitch": 63, "duration": 3, "velocity": 127}, {"time": 2051, "pitch": 65, "duration": 2, "velocity": 102}, {"time": 2054, "pitch": 63, "duration": 6, "velocity": 112}, {"time": 2063, "pitch": 58, "duration": 3, "velocity": 122}, {"time": 2069, "pitch": 63, "duration": 4, "velocity": 127}, {"time": 2075, "pitch": 62, "duration": 4, "velocity": 112}, {"time": 2081, "pitch": 60, "duration": 4, "velocity": 112}, {"time": 2093, "pitch": 67, "duration": 11, "velocity": 127}, {"time": 2105, "pitch": 65, "duration": 5, "velocity": 127}, {"time": 2117, "pitch": 63, "duration": 4, "velocity": 127}, {"time": 2123, "pitch": 65, "duration": 5, "velocity": 127}, {"time": 2135, "pitch": 67, "duration": 3, "velocity": 127}, {"time": 2141, "pitch": 67, "duration": 3, "velocity": 127}, {"time": 2147, "pitch": 63, "duration": 2, "velocity": 127}, {"time": 2150, "pitch": 65, "duration": 7, "velocity": 127}, {"time": 2159, "pitch": 65, "duration": 1, "velocity": 127}, {"time": 2162, "pitch": 65, "duration": 1, "velocity": 85}, {"time": 2165, "pitch": 65, "duration": 2, "velocity": 107}, {"time": 2171, "pitch": 62, "duration": 2, "velocity": 112}, {"time": 2174, "pitch": 63, "duration": 3, "velocity": 127}, {"time": 2183, "pitch": 67, "duration": 3, "velocity": 100}, {"time": 2189, "pitch": 67, "duration": 3, "velocity": 107}, {"time": 2195, "pitch": 63, "duration": 2, "velocity": 127}, {"time": 2198, "pitch": 65, "duration": 4, "velocity": 112}, {"time": 2207, "pitch": 65, "duration": 3, "velocity": 127}, {"time": 2213, "pitch": 65, "duration": 2, "velocity": 107}, {"time": 2219, "pitch": 62, "duration": 2, "velocity": 99}, {"time": 2222, "pitch": 63, "duration": 4, "velocity": 122}, {"time": 2231, "pitch": 63, "duration": 3, "velocity": 127}, {"time": 2237, "pitch": 63, "duration": 4, "velocity": 122}, {"time": 2243, "pitch": 65, "duration": 3, "velocity": 107}, {"time": 2249, "pitch": 63, "duration": 4, "velocity": 122}, {"time": 2255, "pitch": 58, "duration": 4, "velocity": 127}, {"time": 2261, "pitch": 63, "duration": 4, "velocity": 127}, {"time": 2267, "pitch": 60, "duration": 4, "velocity": 117}, {"time": 2273, "pitch": 60, "duration": 5, "velocity": 127}, {"time": 2285, "pitch": 67, "duration": 9, "velocity": 122}, {"time": 2297, "pitch": 65, "duration": 4, "velocity": 127}, {"time": 2309, "pitch": 63, "duration": 3, "velocity": 127}, {"time": 2315, "pitch": 62, "duration": 4, "velocity": 117}, {"time": 2321, "pitch": 60, "duration": 4, "velocity": 127}, {"time": 2333, "pitch": 60, "duration": 3, "velocity": 112}, {"time": 2339, "pitch": 63, "duration": 3, "velocity": 122}, {"time": 2345, "pitch": 62, "duration": 5, "velocity": 127}, {"time": 2357, "pitch": 62, "duration": 4, "velocity": 127}, {"time": 2363, "pitch": 60, "duration": 4, "velocity": 112}, {"time": 2369, "pitch": 58, "duration": 5, "velocity": 127}, {"time": 2381, "pitch": 58, "duration": 5, "velocity": 127}, {"time": 2387, "pitch": 65, "duration": 4, "velocity": 122}, {"time": 2393, "pitch": 63, "duration": 5, "velocity": 127}, {"time": 2405, "pitch": 60, "duration": 4, "velocity": 117}, {"time": 2411, "pitch": 55, "duration": 5, "velocity": 102}, {"time": 2417, "pitch": 56, "duration": 4, "velocity": 127}, {"time": 2429, "pitch": 56, "duration": 4, "velocity": 107}, {"time": 2435, "pitch": 63, "duration": 2, "velocity": 117}, {"time": 2438, "pitch": 63, "duration": 6, "velocity": 122}, {"time": 2447, "pitch": 62, "duration": 2, "velocity": 107}, {"time": 2453, "pitch": 62, "duration": 3, "velocity": 127}, {"time": 2459, "pitch": 60, "duration": 5, "velocity": 122}, {"time": 2471, "pitch": 58, "duration": 22, "velocity": 117}, {"time": 2501, "pitch": 63, "duration": 4, "velocity": 127}, {"time": 2507, "pitch": 62, "duration": 3, "velocity": 122}, {"time": 2513, "pitch": 60, "duration": 5, "velocity": 112}, {"time": 2525, "pitch": 60, "duration": 4, "velocity": 122}, {"time": 2531, "pitch": 63, "duration": 4, "velocity": 127}, {"time": 2537, "pitch": 62, "duration": 8, "velocity": 127}, {"time": 2549, "pitch": 62, "duration": 4, "velocity": 117}, {"time": 2555, "pitch": 60, "duration": 3, "velocity": 112}, {"time": 2561, "pitch": 58, "duration": 4, "velocity": 127}, {"time": 2573, "pitch": 65, "duration": 10, "velocity": 122}, {"time": 2585, "pitch": 63, "duration": 5, "velocity": 127}, {"time": 2597, "pitch": 60, "duration": 4, "velocity": 112}, {"time": 2603, "pitch": 62, "duration": 2, "velocity": 127}, {"time": 2606, "pitch": 63, "duration": 6, "velocity": 122}, {"time": 2615, "pitch": 63, "duration": 3, "velocity": 127}, {"time": 2621, "pitch": 63, "duration": 2, "velocity": 127}, {"time": 2627, "pitch": 62, "duration": 3, "velocity": 127}, {"time": 2633, "pitch": 63, "duration": 4, "velocity": 127}, {"time": 2639, "pitch": 65, "duration": 4, "velocity": 127}, {"time": 2645, "pitch": 67, "duration": 2, "velocity": 122}, {"time": 2651, "pitch": 67, "duration": 11, "velocity": 127}, {"time": 2663, "pitch": 68, "duration": 2, "velocity": 127}, {"time": 2669, "pitch": 67, "duration": 5, "velocity": 127}, {"time": 2675, "pitch": 65, "duration": 15, "velocity": 127}, {"time": 2693, "pitch": 63, "duration": 4, "velocity": 127}, {"time": 2699, "pitch": 65, "duration": 4, "velocity": 112}, {"time": 2705, "pitch": 67, "duration": 7, "velocity": 127}, {"time": 2723, "pitch": 67, "duration": 4, "velocity": 122}, {"time": 2729, "pitch": 65, "duration": 5, "velocity": 117}, {"time": 2741, "pitch": 63, "duration": 3, "velocity": 127}, {"time": 2747, "pitch": 62, "duration": 3, "velocity": 100}, {"time": 2753, "pitch": 63, "duration": 5, "velocity": 127}, {"time": 2759, "pitch": 63, "duration": 3, "velocity": 117}, {"time": 2765, "pitch": 63, "duration": 3, "velocity": 127}, {"time": 2771, "pitch": 65, "duration": 4, "velocity": 117}, {"time": 2777, "pitch": 67, "duration": 6, "velocity": 127}, {"time": 2789, "pitch": 65, "duration": 3, "velocity": 122}, {"time": 2795, "pitch": 67, "duration": 3, "velocity": 127}, {"time": 2801, "pitch": 68, "duration": 7, "velocity": 127}, {"time": 2819, "pitch": 68, "duration": 3, "velocity": 127}, {"time": 2825, "pitch": 67, "duration": 7, "velocity": 122}, {"time": 2837, "pitch": 65, "duration": 5, "velocity": 117}, {"time": 2843, "pitch": 67, "duration": 3, "velocity": 127}, {"time": 2849, "pitch": 67, "duration": 3, "velocity": 127}, {"time": 2855, "pitch": 65, "duration": 3, "velocity": 99}, {"time": 2861, "pitch": 65, "duration": 3, "velocity": 99}, {"time": 2867, "pitch": 60, "duration": 3, "velocity": 102}, {"time": 2873, "pitch": 63, "duration": 6, "velocity": 127}, {"time": 2885, "pitch": 65, "duration": 4, "velocity": 127}, {"time": 2897, "pitch": 67, "duration": 4, "velocity": 122}, {"time": 2909, "pitch": 58, "duration": 2, "velocity": 122}, {"time": 2915, "pitch": 67, "duration": 4, "velocity": 112}, {"time": 2921, "pitch": 65, "duration": 6, "velocity": 127}, {"time": 2933, "pitch": 63, "duration": 3, "velocity": 127}, {"time": 2939, "pitch": 62, "duration": 3, "velocity": 107}, {"time": 2945, "pitch": 63, "duration": 4, "velocity": 127}, {"time": 2951, "pitch": 63, "duration": 2, "velocity": 122}, {"time": 2957, "pitch": 63, "duration": 2, "velocity": 127}, {"time": 2960, "pitch": 65, "duration": 4, "velocity": 107}, {"time": 2966, "pitch": 67, "duration": 6, "velocity": 127}, {"time": 2981, "pitch": 65, "duration": 3, "velocity": 112}, {"time": 2987, "pitch": 67, "duration": 3, "velocity": 122}, {"time": 2993, "pitch": 68, "duration": 7, "velocity": 102}, {"time": 3011, "pitch": 68, "duration": 3, "velocity": 127}, {"time": 3017, "pitch": 67, "duration": 3, "velocity": 122}, {"time": 3023, "pitch": 65, "duration": 4, "velocity": 117}, {"time": 3029, "pitch": 63, "duration": 3, "velocity": 122}, {"time": 3035, "pitch": 67, "duration": 4, "velocity": 127}, {"time": 3041, "pitch": 68, "duration": 6, "velocity": 127}, {"time": 3053, "pitch": 62, "duration": 4, "velocity": 127}, {"time": 3065, "pitch": 63, "duration": 12, "velocity": 127}, {"time": 3077, "pitch": 64, "duration": 4, "velocity": 127}, {"time": 3083, "pitch": 66, "duration": 4, "velocity": 112}, {"time": 3089, "pitch": 68, "duration": 7, "velocity": 127}, {"time": 3107, "pitch": 68, "duration": 4, "velocity": 122}, {"time": 3113, "pitch": 66, "duration": 5, "velocity": 117}, {"time": 3125, "pitch": 64, "duration": 3, "velocity": 127}, {"time": 3131, "pitch": 63, "duration": 3, "velocity": 100}, {"time": 3137, "pitch": 64, "duration": 5, "velocity": 127}, {"time": 3143, "pitch": 64, "duration": 3, "velocity": 117}, {"time": 3149, "pitch": 64, "duration": 3, "velocity": 127}, {"time": 3155, "pitch": 66, "duration": 4, "velocity": 117}, {"time": 3161, "pitch": 68, "duration": 6, "velocity": 127}, {"time": 3173, "pitch": 66, "duration": 3, "velocity": 122}, {"time": 3179, "pitch": 68, "duration": 3, "velocity": 127}, {"time": 3185, "pitch": 69, "duration": 7, "velocity": 127}, {"time": 3203, "pitch": 69, "duration": 3, "velocity": 127}, {"time": 3209, "pitch": 68, "duration": 7, "velocity": 122}, {"time": 3221, "pitch": 66, "duration": 5, "velocity": 117}, {"time": 3227, "pitch": 68, "duration": 3, "velocity": 127}, {"time": 3233, "pitch": 68, "duration": 3, "velocity": 127}, {"time": 3239, "pitch": 66, "duration": 3, "velocity": 99}, {"time": 3245, "pitch": 66, "duration": 3, "velocity": 99}, {"time": 3251, "pitch": 61, "duration": 3, "velocity": 102}, {"time": 3257, "pitch": 64, "duration": 6, "velocity": 127}, {"time": 3269, "pitch": 66, "duration": 4, "velocity": 127}, {"time": 3281, "pitch": 68, "duration": 4, "velocity": 122}, {"time": 3293, "pitch": 59, "duration": 2, "velocity": 122}, {"time": 3299, "pitch": 68, "duration": 4, "velocity": 112}, {"time": 3305, "pitch": 66, "duration": 6, "velocity": 127}, {"time": 3317, "pitch": 64, "duration": 3, "velocity": 127}, {"time": 3323, "pitch": 63, "duration": 3, "velocity": 107}, {"time": 3329, "pitch": 64, "duration": 4, "velocity": 127}, {"time": 3335, "pitch": 64, "duration": 2, "velocity": 122}, {"time": 3341, "pitch": 64, "duration": 2, "velocity": 127}, {"time": 3344, "pitch": 66, "duration": 4, "velocity": 107}, {"time": 3350, "pitch": 68, "duration": 6, "velocity": 127}, {"time": 3365, "pitch": 66, "duration": 3, "velocity": 112}, {"time": 3371, "pitch": 68, "duration": 3, "velocity": 122}, {"time": 3377, "pitch": 69, "duration": 7, "velocity": 102}, {"time": 3395, "pitch": 69, "duration": 3, "velocity": 127}, {"time": 3401, "pitch": 68, "duration": 3, "velocity": 122}, {"time": 3407, "pitch": 66, "duration": 4, "velocity": 117}, {"time": 3413, "pitch": 64, "duration": 3, "velocity": 122}, {"time": 3419, "pitch": 68, "duration": 4, "velocity": 127}, {"time": 3425, "pitch": 69, "duration": 6, "velocity": 127}, {"time": 3437, "pitch": 63, "duration": 4, "velocity": 127}, {"time": 3449, "pitch": 64, "duration": 27, "velocity": 127}]}, {"program": 0, "is_drum": false, "name": "BRIDGE", "notes": [{"time": 17, "pitch": 63, "duration": 7, "velocity": 86}, {"time": 23, "pitch": 70, "duration": 6, "velocity": 88}, {"time": 29, "pitch": 75, "duration": 6, "velocity": 96}, {"time": 35, "pitch": 74, "duration": 7, "velocity": 96}, {"time": 41, "pitch": 70, "duration": 8, "velocity": 89}, {"time": 47, "pitch": 70, "duration": 2, "velocity": 92}, {"time": 53, "pitch": 63, "duration": 8, "velocity": 81}, {"time": 59, "pitch": 79, "duration": 3, "velocity": 85}, {"time": 62, "pitch": 80, "duration": 4, "velocity": 71}, {"time": 65, "pitch": 82, "duration": 7, "velocity": 99}, {"time": 71, "pitch": 67, "duration": 11, "velocity": 93}, {"time": 77, "pitch": 72, "duration": 13, "velocity": 90}, {"time": 77, "pitch": 79, "duration": 6, "velocity": 100}, {"time": 83, "pitch": 80, "duration": 6, "velocity": 93}, {"time": 89, "pitch": 77, "duration": 12, "velocity": 79}, {"time": 95, "pitch": 65, "duration": 6, "velocity": 90}, {"time": 101, "pitch": 70, "duration": 9, "velocity": 100}, {"time": 113, "pitch": 56, "duration": 7, "velocity": 42}, {"time": 113, "pitch": 79, "duration": 6, "velocity": 90}, {"time": 119, "pitch": 63, "duration": 7, "velocity": 62}, {"time": 119, "pitch": 80, "duration": 12, "velocity": 96}, {"time": 125, "pitch": 68, "duration": 12, "velocity": 70}, {"time": 131, "pitch": 79, "duration": 7, "velocity": 86}, {"time": 137, "pitch": 55, "duration": 8, "velocity": 73}, {"time": 137, "pitch": 75, "duration": 19, "velocity": 85}, {"time": 143, "pitch": 63, "duration": 7, "velocity": 62}, {"time": 149, "pitch": 67, "duration": 13, "velocity": 69}, {"time": 161, "pitch": 53, "duration": 9, "velocity": 81}, {"time": 161, "pitch": 77, "duration": 5, "velocity": 90}, {"time": 167, "pitch": 60, "duration": 7, "velocity": 77}, {"time": 167, "pitch": 75, "duration": 5, "velocity": 81}, {"time": 173, "pitch": 65, "duration": 12, "velocity": 69}, {"time": 173, "pitch": 79, "duration": 6, "velocity": 86}, {"time": 179, "pitch": 80, "duration": 6, "velocity": 93}, {"time": 185, "pitch": 58, "duration": 7, "velocity": 72}, {"time": 185, "pitch": 77, "duration": 14, "velocity": 83}, {"time": 191, "pitch": 65, "duration": 7, "velocity": 62}, {"time": 197, "pitch": 70, "duration": 13, "velocity": 63}, {"time": 209, "pitch": 63, "duration": 7, "velocity": 86}, {"time": 215, "pitch": 70, "duration": 6, "velocity": 88}, {"time": 221, "pitch": 75, "duration": 6, "velocity": 96}, {"time": 227, "pitch": 74, "duration": 7, "velocity": 96}, {"time": 233, "pitch": 70, "duration": 8, "velocity": 89}, {"time": 239, "pitch": 70, "duration": 2, "velocity": 92}, {"time": 245, "pitch": 63, "duration": 8, "velocity": 81}, {"time": 251, "pitch": 79, "duration": 3, "velocity": 85}, {"time": 254, "pitch": 80, "duration": 4, "velocity": 71}, {"time": 257, "pitch": 82, "duration": 7, "velocity": 99}, {"time": 263, "pitch": 67, "duration": 11, "velocity": 93}, {"time": 269, "pitch": 72, "duration": 13, "velocity": 90}, {"time": 269, "pitch": 79, "duration": 6, "velocity": 100}, {"time": 275, "pitch": 80, "duration": 6, "velocity": 93}, {"time": 281, "pitch": 77, "duration": 12, "velocity": 79}, {"time": 287, "pitch": 65, "duration": 6, "velocity": 90}, {"time": 293, "pitch": 70, "duration": 9, "velocity": 100}, {"time": 305, "pitch": 56, "duration": 7, "velocity": 42}, {"time": 305, "pitch": 79, "duration": 6, "velocity": 90}, {"time": 311, "pitch": 63, "duration": 7, "velocity": 62}, {"time": 311, "pitch": 80, "duration": 12, "velocity": 96}, {"time": 317, "pitch": 68, "duration": 12, "velocity": 70}, {"time": 323, "pitch": 79, "duration": 7, "velocity": 86}, {"time": 329, "pitch": 55, "duration": 8, "velocity": 73}, {"time": 329, "pitch": 75, "duration": 19, "velocity": 85}, {"time": 335, "pitch": 63, "duration": 7, "velocity": 62}, {"time": 341, "pitch": 67, "duration": 13, "velocity": 69}, {"time": 353, "pitch": 53, "duration": 9, "velocity": 81}, {"time": 353, "pitch": 77, "duration": 5, "velocity": 90}, {"time": 359, "pitch": 60, "duration": 7, "velocity": 77}, {"time": 359, "pitch": 75, "duration": 5, "velocity": 81}, {"time": 365, "pitch": 65, "duration": 12, "velocity": 69}, {"time": 365, "pitch": 79, "duration": 6, "velocity": 86}, {"time": 371, "pitch": 80, "duration": 6, "velocity": 93}, {"time": 377, "pitch": 58, "duration": 7, "velocity": 72}, {"time": 377, "pitch": 77, "duration": 14, "velocity": 83}, {"time": 383, "pitch": 65, "duration": 7, "velocity": 62}, {"time": 389, "pitch": 70, "duration": 13, "velocity": 63}, {"time": 3473, "pitch": 83, "duration": 11, "velocity": 89}, {"time": 3485, "pitch": 88, "duration": 6, "velocity": 79}, {"time": 3491, "pitch": 87, "duration": 6, "velocity": 65}, {"time": 3497, "pitch": 83, "duration": 13, "velocity": 83}, {"time": 3515, "pitch": 76, "duration": 3, "velocity": 90}, {"time": 3518, "pitch": 78, "duration": 4, "velocity": 85}, {"time": 3521, "pitch": 80, "duration": 11, "velocity": 97}, {"time": 3533, "pitch": 88, "duration": 5, "velocity": 96}, {"time": 3539, "pitch": 87, "duration": 6, "velocity": 85}, {"time": 3545, "pitch": 83, "duration": 18, "velocity": 86}, {"time": 3569, "pitch": 81, "duration": 9, "velocity": 102}, {"time": 3581, "pitch": 83, "duration": 5, "velocity": 102}, {"time": 3587, "pitch": 81, "duration": 6, "velocity": 95}, {"time": 3593, "pitch": 80, "duration": 12, "velocity": 97}, {"time": 3605, "pitch": 76, "duration": 5, "velocity": 97}, {"time": 3611, "pitch": 78, "duration": 7, "velocity": 93}, {"time": 3617, "pitch": 80, "duration": 9, "velocity": 107}, {"time": 3617, "pitch": 83, "duration": 9, "velocity": 100}, {"time": 3629, "pitch": 81, "duration": 5, "velocity": 90}, {"time": 3635, "pitch": 80, "duration": 6, "velocity": 85}, {"time": 3641, "pitch": 76, "duration": 10, "velocity": 90}, {"time": 3653, "pitch": 75, "duration": 13, "velocity": 97}, {"time": 3665, "pitch": 71, "duration": 11, "velocity": 86}, {"time": 3665, "pitch": 83, "duration": 11, "velocity": 89}, {"time": 3677, "pitch": 88, "duration": 6, "velocity": 79}, {"time": 3683, "pitch": 87, "duration": 6, "velocity": 65}, {"time": 3689, "pitch": 83, "duration": 13, "velocity": 83}, {"time": 3707, "pitch": 76, "duration": 3, "velocity": 90}, {"time": 3710, "pitch": 78, "duration": 4, "velocity": 85}, {"time": 3713, "pitch": 80, "duration": 11, "velocity": 97}, {"time": 3725, "pitch": 88, "duration": 5, "velocity": 96}, {"time": 3731, "pitch": 87, "duration": 6, "velocity": 85}, {"time": 3737, "pitch": 83, "duration": 18, "velocity": 86}, {"time": 3761, "pitch": 81, "duration": 9, "velocity": 102}, {"time": 3773, "pitch": 83, "duration": 5, "velocity": 102}, {"time": 3779, "pitch": 81, "duration": 6, "velocity": 95}, {"time": 3785, "pitch": 80, "duration": 12, "velocity": 97}, {"time": 3797, "pitch": 76, "duration": 5, "velocity": 97}, {"time": 3803, "pitch": 78, "duration": 7, "velocity": 93}, {"time": 3809, "pitch": 80, "duration": 9, "velocity": 107}, {"time": 3809, "pitch": 83, "duration": 9, "velocity": 100}, {"time": 3821, "pitch": 81, "duration": 5, "velocity": 90}, {"time": 3827, "pitch": 80, "duration": 6, "velocity": 85}, {"time": 3833, "pitch": 76, "duration": 24, "velocity": 90}, {"time": 3857, "pitch": 64, "duration": 7, "velocity": 86}, {"time": 3857, "pitch": 71, "duration": 11, "velocity": 86}, {"time": 3863, "pitch": 71, "duration": 5, "velocity": 88}, {"time": 3869, "pitch": 76, "duration": 6, "velocity": 96}, {"time": 3875, "pitch": 75, "duration": 7, "velocity": 96}, {"time": 3881, "pitch": 71, "duration": 8, "velocity": 89}, {"time": 3887, "pitch": 71, "duration": 2, "velocity": 92}, {"time": 3893, "pitch": 64, "duration": 8, "velocity": 81}, {"time": 3899, "pitch": 80, "duration": 3, "velocity": 85}, {"time": 3902, "pitch": 81, "duration": 4, "velocity": 71}, {"time": 3905, "pitch": 83, "duration": 7, "velocity": 99}, {"time": 3911, "pitch": 68, "duration": 11, "velocity": 93}, {"time": 3917, "pitch": 73, "duration": 13, "velocity": 90}, {"time": 3917, "pitch": 80, "duration": 6, "velocity": 100}, {"time": 3923, "pitch": 81, "duration": 6, "velocity": 93}, {"time": 3929, "pitch": 78, "duration": 12, "velocity": 79}, {"time": 3935, "pitch": 66, "duration": 6, "velocity": 90}, {"time": 3941, "pitch": 71, "duration": 9, "velocity": 100}, {"time": 3953, "pitch": 57, "duration": 7, "velocity": 42}, {"time": 3953, "pitch": 80, "duration": 6, "velocity": 90}, {"time": 3959, "pitch": 64, "duration": 7, "velocity": 62}, {"time": 3959, "pitch": 81, "duration": 12, "velocity": 96}, {"time": 3965, "pitch": 69, "duration": 12, "velocity": 70}, {"time": 3971, "pitch": 80, "duration": 7, "velocity": 86}, {"time": 3977, "pitch": 56, "duration": 8, "velocity": 73}, {"time": 3977, "pitch": 76, "duration": 19, "velocity": 85}, {"time": 3983, "pitch": 64, "duration": 7, "velocity": 62}, {"time": 3989, "pitch": 68, "duration": 13, "velocity": 69}, {"time": 4001, "pitch": 54, "duration": 9, "velocity": 81}, {"time": 4001, "pitch": 78, "duration": 5, "velocity": 90}, {"time": 4007, "pitch": 61, "duration": 7, "velocity": 77}, {"time": 4007, "pitch": 76, "duration": 5, "velocity": 81}, {"time": 4013, "pitch": 66, "duration": 12, "velocity": 69}, {"time": 4013, "pitch": 80, "duration": 6, "velocity": 86}, {"time": 4019, "pitch": 81, "duration": 6, "velocity": 93}, {"time": 4025, "pitch": 59, "duration": 7, "velocity": 72}, {"time": 4025, "pitch": 78, "duration": 14, "velocity": 83}, {"time": 4031, "pitch": 66, "duration": 7, "velocity": 62}, {"time": 4037, "pitch": 71, "duration": 13, "velocity": 63}, {"time": 4049, "pitch": 64, "duration": 7, "velocity": 86}, {"time": 4055, "pitch": 71, "duration": 6, "velocity": 88}, {"time": 4061, "pitch": 76, "duration": 6, "velocity": 96}, {"time": 4067, "pitch": 75, "duration": 7, "velocity": 96}, {"time": 4073, "pitch": 71, "duration": 8, "velocity": 89}, {"time": 4079, "pitch": 71, "duration": 2, "velocity": 92}, {"time": 4085, "pitch": 64, "duration": 8, "velocity": 81}, {"time": 4091, "pitch": 80, "duration": 3, "velocity": 85}, {"time": 4094, "pitch": 81, "duration": 4, "velocity": 71}, {"time": 4097, "pitch": 83, "duration": 7, "velocity": 99}, {"time": 4103, "pitch": 68, "duration": 11, "velocity": 93}, {"time": 4109, "pitch": 73, "duration": 13, "velocity": 90}, {"time": 4109, "pitch": 80, "duration": 6, "velocity": 100}, {"time": 4115, "pitch": 81, "duration": 6, "velocity": 93}, {"time": 4121, "pitch": 78, "duration": 12, "velocity": 79}, {"time": 4127, "pitch": 66, "duration": 6, "velocity": 90}, {"time": 4133, "pitch": 71, "duration": 9, "velocity": 100}, {"time": 4145, "pitch": 57, "duration": 7, "velocity": 42}, {"time": 4145, "pitch": 80, "duration": 6, "velocity": 90}, {"time": 4151, "pitch": 64, "duration": 7, "velocity": 62}, {"time": 4151, "pitch": 81, "duration": 12, "velocity": 96}, {"time": 4157, "pitch": 69, "duration": 12, "velocity": 70}, {"time": 4163, "pitch": 80, "duration": 7, "velocity": 86}, {"time": 4169, "pitch": 56, "duration": 8, "velocity": 73}, {"time": 4169, "pitch": 76, "duration": 19, "velocity": 85}, {"time": 4175, "pitch": 64, "duration": 7, "velocity": 62}, {"time": 4181, "pitch": 68, "duration": 13, "velocity": 69}, {"time": 4193, "pitch": 54, "duration": 9, "velocity": 81}, {"time": 4193, "pitch": 78, "duration": 5, "velocity": 90}, {"time": 4199, "pitch": 61, "duration": 7, "velocity": 77}, {"time": 4199, "pitch": 76, "duration": 5, "velocity": 81}, {"time": 4205, "pitch": 66, "duration": 12, "velocity": 69}, {"time": 4205, "pitch": 80, "duration": 6, "velocity": 86}, {"time": 4211, "pitch": 81, "duration": 6, "velocity": 93}, {"time": 4217, "pitch": 59, "duration": 7, "velocity": 72}, {"time": 4217, "pitch": 78, "duration": 14, "velocity": 83}, {"time": 4223, "pitch": 66, "duration": 7, "velocity": 62}, {"time": 4229, "pitch": 71, "duration": 13, "velocity": 63}]}, {"program": 0, "is_drum": false, "name": "PIANO", "notes": [{"time": 209, "pitch": 39, "duration": 19, "velocity": 70}, {"time": 215, "pitch": 51, "duration": 9, "velocity": 58}, {"time": 221, "pitch": 70, "duration": 13, "velocity": 47}, {"time": 227, "pitch": 63, "duration": 7, "velocity": 56}, {"time": 233, "pitch": 38, "duration": 22, "velocity": 55}, {"time": 239, "pitch": 50, "duration": 7, "velocity": 53}, {"time": 245, "pitch": 70, "duration": 12, "velocity": 76}, {"time": 251, "pitch": 62, "duration": 7, "velocity": 52}, {"time": 257, "pitch": 36, "duration": 20, "velocity": 63}, {"time": 263, "pitch": 60, "duration": 9, "velocity": 56}, {"time": 269, "pitch": 67, "duration": 13, "velocity": 83}, {"time": 275, "pitch": 60, "duration": 6, "velocity": 66}, {"time": 281, "pitch": 34, "duration": 18, "velocity": 75}, {"time": 287, "pitch": 58, "duration": 7, "velocity": 40}, {"time": 293, "pitch": 62, "duration": 11, "velocity": 67}, {"time": 299, "pitch": 58, "duration": 5, "velocity": 71}, {"time": 305, "pitch": 32, "duration": 14, "velocity": 66}, {"time": 311, "pitch": 56, "duration": 8, "velocity": 64}, {"time": 317, "pitch": 63, "duration": 11, "velocity": 81}, {"time": 323, "pitch": 56, "duration": 7, "velocity": 73}, {"time": 329, "pitch": 43, "duration": 18, "velocity": 70}, {"time": 335, "pitch": 55, "duration": 8, "velocity": 58}, {"time": 341, "pitch": 62, "duration": 12, "velocity": 93}, {"time": 347, "pitch": 55, "duration": 6, "velocity": 69}, {"time": 353, "pitch": 41, "duration": 9, "velocity": 76}, {"time": 359, "pitch": 53, "duration": 9, "velocity": 68}, {"time": 365, "pitch": 60, "duration": 11, "velocity": 93}, {"time": 371, "pitch": 53, "duration": 5, "velocity": 76}, {"time": 374, "pitch": 46, "duration": 21, "velocity": 102}, {"time": 383, "pitch": 58, "duration": 11, "velocity": 83}, {"time": 389, "pitch": 62, "duration": 7, "velocity": 97}, {"time": 395, "pitch": 65, "duration": 7, "velocity": 92}, {"time": 401, "pitch": 39, "duration": 15, "velocity": 72}, {"time": 407, "pitch": 51, "duration": 8, "velocity": 85}, {"time": 413, "pitch": 70, "duration": 14, "velocity": 99}, {"time": 419, "pitch": 63, "duration": 7, "velocity": 89}, {"time": 425, "pitch": 38, "duration": 22, "velocity": 75}, {"time": 431, "pitch": 50, "duration": 6, "velocity": 63}, {"time": 431, "pitch": 62, "duration": 8, "velocity": 82}, {"time": 437, "pitch": 70, "duration": 11, "velocity": 102}, {"time": 443, "pitch": 62, "duration": 8, "velocity": 88}, {"time": 449, "pitch": 36, "duration": 16, "velocity": 73}, {"time": 455, "pitch": 48, "duration": 8, "velocity": 89}, {"time": 455, "pitch": 60, "duration": 8, "velocity": 77}, {"time": 461, "pitch": 67, "duration": 11, "velocity": 97}, {"time": 467, "pitch": 60, "duration": 7, "velocity": 93}, {"time": 473, "pitch": 34, "duration": 16, "velocity": 99}, {"time": 479, "pitch": 46, "duration": 8, "velocity": 77}, {"time": 479, "pitch": 58, "duration": 7, "velocity": 69}, {"time": 485, "pitch": 65, "duration": 12, "velocity": 96}, {"time": 491, "pitch": 58, "duration": 7, "velocity": 95}, {"time": 497, "pitch": 32, "duration": 17, "velocity": 81}, {"time": 503, "pitch": 44, "duration": 8, "velocity": 89}, {"time": 509, "pitch": 63, "duration": 11, "velocity": 107}, {"time": 515, "pitch": 56, "duration": 7, "velocity": 99}, {"time": 521, "pitch": 31, "duration": 11, "velocity": 77}, {"time": 527, "pitch": 55, "duration": 8, "velocity": 92}, {"time": 533, "pitch": 62, "duration": 12, "velocity": 100}, {"time": 539, "pitch": 55, "duration": 7, "velocity": 97}, {"time": 545, "pitch": 41, "duration": 18, "velocity": 83}, {"time": 551, "pitch": 53, "duration": 10, "velocity": 89}, {"time": 557, "pitch": 60, "duration": 12, "velocity": 102}, {"time": 563, "pitch": 53, "duration": 6, "velocity": 95}, {"time": 569, "pitch": 44, "duration": 12, "velocity": 95}, {"time": 569, "pitch": 56, "duration": 1, "velocity": 72}, {"time": 575, "pitch": 56, "duration": 6, "velocity": 100}, {"time": 581, "pitch": 46, "duration": 11, "velocity": 95}, {"time": 581, "pitch": 58, "duration": 10, "velocity": 75}, {"time": 581, "pitch": 62, "duration": 11, "velocity": 86}, {"time": 593, "pitch": 39, "duration": 15, "velocity": 72}, {"time": 599, "pitch": 51, "duration": 8, "velocity": 85}, {"time": 605, "pitch": 70, "duration": 14, "velocity": 99}, {"time": 611, "pitch": 63, "duration": 7, "velocity": 89}, {"time": 617, "pitch": 38, "duration": 22, "velocity": 75}, {"time": 623, "pitch": 50, "duration": 6, "velocity": 63}, {"time": 623, "pitch": 62, "duration": 8, "velocity": 82}, {"time": 629, "pitch": 70, "duration": 11, "velocity": 102}, {"time": 635, "pitch": 62, "duration": 8, "velocity": 88}, {"time": 641, "pitch": 36, "duration": 16, "velocity": 73}, {"time": 647, "pitch": 48, "duration": 8, "velocity": 89}, {"time": 647, "pitch": 60, "duration": 8, "velocity": 77}, {"time": 653, "pitch": 67, "duration": 11, "velocity": 97}, {"time": 659, "pitch": 60, "duration": 7, "velocity": 93}, {"time": 665, "pitch": 34, "duration": 16, "velocity": 99}, {"time": 671, "pitch": 46, "duration": 8, "velocity": 77}, {"time": 671, "pitch": 58, "duration": 7, "velocity": 69}, {"time": 677, "pitch": 65, "duration": 12, "velocity": 96}, {"time": 683, "pitch": 58, "duration": 7, "velocity": 95}, {"time": 689, "pitch": 32, "duration": 17, "velocity": 81}, {"time": 695, "pitch": 44, "duration": 8, "velocity": 89}, {"time": 701, "pitch": 63, "duration": 11, "velocity": 107}, {"time": 707, "pitch": 56, "duration": 7, "velocity": 99}, {"time": 713, "pitch": 31, "duration": 11, "velocity": 77}, {"time": 719, "pitch": 55, "duration": 8, "velocity": 92}, {"time": 725, "pitch": 62, "duration": 12, "velocity": 100}, {"time": 731, "pitch": 55, "duration": 6, "velocity": 97}, {"time": 737, "pitch": 41, "duration": 5, "velocity": 74}, {"time": 737, "pitch": 53, "duration": 5, "velocity": 81}, {"time": 737, "pitch": 56, "duration": 4, "velocity": 79}, {"time": 737, "pitch": 60, "duration": 5, "velocity": 79}, {"time": 749, "pitch": 46, "duration": 5, "velocity": 97}, {"time": 749, "pitch": 58, "duration": 5, "velocity": 100}, {"time": 749, "pitch": 62, "duration": 5, "velocity": 82}, {"time": 749, "pitch": 65, "duration": 6, "velocity": 75}, {"time": 761, "pitch": 39, "duration": 26, "velocity": 74}, {"time": 767, "pitch": 51, "duration": 18, "velocity": 73}, {"time": 773, "pitch": 70, "duration": 12, "velocity": 99}, {"time": 779, "pitch": 63, "duration": 6, "velocity": 83}, {"time": 785, "pitch": 39, "duration": 2, "velocity": 72}, {"time": 791, "pitch": 51, "duration": 8, "velocity": 85}, {"time": 797, "pitch": 70, "duration": 14, "velocity": 99}, {"time": 803, "pitch": 63, "duration": 7, "velocity": 89}, {"time": 809, "pitch": 38, "duration": 22, "velocity": 75}, {"time": 815, "pitch": 50, "duration": 6, "velocity": 63}, {"time": 815, "pitch": 62, "duration": 8, "velocity": 82}, {"time": 821, "pitch": 70, "duration": 11, "velocity": 102}, {"time": 827, "pitch": 62, "duration": 8, "velocity": 88}, {"time": 833, "pitch": 36, "duration": 16, "velocity": 73}, {"time": 839, "pitch": 48, "duration": 8, "velocity": 89}, {"time": 839, "pitch": 60, "duration": 8, "velocity": 77}, {"time": 845, "pitch": 67, "duration": 11, "velocity": 97}, {"time": 851, "pitch": 60, "duration": 7, "velocity": 93}, {"time": 857, "pitch": 34, "duration": 16, "velocity": 99}, {"time": 863, "pitch": 46, "duration": 8, "velocity": 77}, {"time": 863, "pitch": 58, "duration": 7, "velocity": 69}, {"time": 869, "pitch": 65, "duration": 12, "velocity": 96}, {"time": 875, "pitch": 58, "duration": 7, "velocity": 95}, {"time": 881, "pitch": 32, "duration": 17, "velocity": 81}, {"time": 887, "pitch": 44, "duration": 8, "velocity": 89}, {"time": 893, "pitch": 63, "duration": 11, "velocity": 107}, {"time": 899, "pitch": 56, "duration": 7, "velocity": 99}, {"time": 905, "pitch": 31, "duration": 11, "velocity": 77}, {"time": 911, "pitch": 55, "duration": 8, "velocity": 92}, {"time": 917, "pitch": 62, "duration": 12, "velocity": 100}, {"time": 923, "pitch": 55, "duration": 7, "velocity": 97}, {"time": 929, "pitch": 41, "duration": 18, "velocity": 83}, {"time": 935, "pitch": 53, "duration": 10, "velocity": 89}, {"time": 941, "pitch": 60, "duration": 12, "velocity": 102}, {"time": 947, "pitch": 53, "duration": 6, "velocity": 95}, {"time": 953, "pitch": 44, "duration": 12, "velocity": 95}, {"time": 953, "pitch": 56, "duration": 1, "velocity": 72}, {"time": 959, "pitch": 56, "duration": 6, "velocity": 100}, {"time": 965, "pitch": 46, "duration": 11, "velocity": 95}, {"time": 965, "pitch": 58, "duration": 10, "velocity": 75}, {"time": 965, "pitch": 62, "duration": 11, "velocity": 86}, {"time": 977, "pitch": 39, "duration": 15, "velocity": 72}, {"time": 983, "pitch": 51, "duration": 8, "velocity": 85}, {"time": 989, "pitch": 70, "duration": 14, "velocity": 99}, {"time": 995, "pitch": 63, "duration": 7, "velocity": 89}, {"time": 1001, "pitch": 38, "duration": 22, "velocity": 75}, {"time": 1007, "pitch": 50, "duration": 6, "velocity": 63}, {"time": 1007, "pitch": 62, "duration": 8, "velocity": 82}, {"time": 1013, "pitch": 70, "duration": 11, "velocity": 102}, {"time": 1019, "pitch": 62, "duration": 8, "velocity": 88}, {"time": 1025, "pitch": 36, "duration": 16, "velocity": 73}, {"time": 1031, "pitch": 48, "duration": 8, "velocity": 89}, {"time": 1031, "pitch": 60, "duration": 8, "velocity": 77}, {"time": 1037, "pitch": 67, "duration": 11, "velocity": 97}, {"time": 1043, "pitch": 60, "duration": 7, "velocity": 93}, {"time": 1049, "pitch": 34, "duration": 16, "velocity": 99}, {"time": 1055, "pitch": 46, "duration": 8, "velocity": 77}, {"time": 1055, "pitch": 58, "duration": 7, "velocity": 69}, {"time": 1061, "pitch": 65, "duration": 12, "velocity": 96}, {"time": 1067, "pitch": 58, "duration": 7, "velocity": 95}, {"time": 1073, "pitch": 32, "duration": 17, "velocity": 81}, {"time": 1079, "pitch": 44, "duration": 8, "velocity": 89}, {"time": 1085, "pitch": 63, "duration": 11, "velocity": 107}, {"time": 1091, "pitch": 56, "duration": 7, "velocity": 99}, {"time": 1097, "pitch": 31, "duration": 11, "velocity": 77}, {"time": 1103, "pitch": 55, "duration": 8, "velocity": 92}, {"time": 1109, "pitch": 62, "duration": 12, "velocity": 100}, {"time": 1115, "pitch": 55, "duration": 6, "velocity": 97}, {"time": 1121, "pitch": 41, "duration": 12, "velocity": 86}, {"time": 1127, "pitch": 53, "duration": 9, "velocity": 81}, {"time": 1133, "pitch": 60, "duration": 7, "velocity": 97}, {"time": 1139, "pitch": 53, "duration": 8, "velocity": 95}, {"time": 1145, "pitch": 46, "duration": 23, "velocity": 83}, {"time": 1145, "pitch": 58, "duration": 7, "velocity": 95}, {"time": 1145, "pitch": 62, "duration": 8, "velocity": 96}, {"time": 1151, "pitch": 53, "duration": 9, "velocity": 67}, {"time": 1157, "pitch": 62, "duration": 11, "velocity": 100}, {"time": 1163, "pitch": 58, "duration": 5, "velocity": 100}, {"time": 1169, "pitch": 44, "duration": 14, "velocity": 112}, {"time": 1175, "pitch": 60, "duration": 5, "velocity": 90}, {"time": 1181, "pitch": 56, "duration": 7, "velocity": 112}, {"time": 1181, "pitch": 63, "duration": 13, "velocity": 93}, {"time": 1181, "pitch": 68, "duration": 12, "velocity": 97}, {"time": 1190, "pitch": 44, "duration": 3, "velocity": 68}, {"time": 1193, "pitch": 46, "duration": 14, "velocity": 127}, {"time": 1199, "pitch": 58, "duration": 5, "velocity": 70}, {"time": 1205, "pitch": 58, "duration": 3, "velocity": 67}, {"time": 1205, "pitch": 62, "duration": 4, "velocity": 95}, {"time": 1205, "pitch": 65, "duration": 4, "velocity": 95}, {"time": 1211, "pitch": 58, "duration": 8, "velocity": 117}, {"time": 1211, "pitch": 62, "duration": 7, "velocity": 45}, {"time": 1211, "pitch": 65, "duration": 6, "velocity": 41}, {"time": 1214, "pitch": 46, "duration": 3, "velocity": 117}, {"time": 1217, "pitch": 43, "duration": 15, "velocity": 86}, {"time": 1223, "pitch": 55, "duration": 7, "velocity": 96}, {"time": 1229, "pitch": 58, "duration": 12, "velocity": 100}, {"time": 1229, "pitch": 62, "duration": 11, "velocity": 97}, {"time": 1232, "pitch": 55, "duration": 8, "velocity": 76}, {"time": 1238, "pitch": 43, "duration": 3, "velocity": 100}, {"time": 1241, "pitch": 48, "duration": 15, "velocity": 100}, {"time": 1247, "pitch": 55, "duration": 7, "velocity": 97}, {"time": 1253, "pitch": 60, "duration": 12, "velocity": 99}, {"time": 1253, "pitch": 63, "duration": 12, "velocity": 122}, {"time": 1259, "pitch": 55, "duration": 6, "velocity": 86}, {"time": 1265, "pitch": 41, "duration": 18, "velocity": 97}, {"time": 1271, "pitch": 53, "duration": 8, "velocity": 89}, {"time": 1274, "pitch": 48, "duration": 9, "velocity": 64}, {"time": 1277, "pitch": 60, "duration": 12, "velocity": 102}, {"time": 1283, "pitch": 56, "duration": 5, "velocity": 99}, {"time": 1286, "pitch": 53, "duration": 3, "velocity": 86}, {"time": 1289, "pitch": 44, "duration": 13, "velocity": 92}, {"time": 1295, "pitch": 56, "duration": 8, "velocity": 95}, {"time": 1301, "pitch": 63, "duration": 11, "velocity": 112}, {"time": 1304, "pitch": 44, "duration": 2, "velocity": 75}, {"time": 1307, "pitch": 56, "duration": 5, "velocity": 96}, {"time": 1310, "pitch": 60, "duration": 3, "velocity": 63}, {"time": 1313, "pitch": 39, "duration": 23, "velocity": 112}, {"time": 1319, "pitch": 51, "duration": 7, "velocity": 92}, {"time": 1325, "pitch": 63, "duration": 11, "velocity": 127}, {"time": 1328, "pitch": 51, "duration": 9, "velocity": 93}, {"time": 1331, "pitch": 58, "duration": 4, "velocity": 93}, {"time": 1334, "pitch": 55, "duration": 4, "velocity": 82}, {"time": 1337, "pitch": 39, "duration": 17, "velocity": 107}, {"time": 1340, "pitch": 51, "duration": 9, "velocity": 99}, {"time": 1343, "pitch": 55, "duration": 5, "velocity": 89}, {"time": 1346, "pitch": 58, "duration": 3, "velocity": 102}, {"time": 1349, "pitch": 63, "duration": 11, "velocity": 127}, {"time": 1352, "pitch": 51, "duration": 3, "velocity": 100}, {"time": 1355, "pitch": 58, "duration": 4, "velocity": 112}, {"time": 1358, "pitch": 55, "duration": 3, "velocity": 93}, {"time": 1361, "pitch": 44, "duration": 18, "velocity": 112}, {"time": 1367, "pitch": 56, "duration": 9, "velocity": 95}, {"time": 1370, "pitch": 51, "duration": 5, "velocity": 66}, {"time": 1373, "pitch": 63, "duration": 10, "velocity": 127}, {"time": 1376, "pitch": 51, "duration": 3, "velocity": 96}, {"time": 1379, "pitch": 56, "duration": 4, "velocity": 90}, {"time": 1382, "pitch": 60, "duration": 2, "velocity": 78}, {"time": 1385, "pitch": 46, "duration": 19, "velocity": 102}, {"time": 1391, "pitch": 50, "duration": 12, "velocity": 67}, {"time": 1394, "pitch": 53, "duration": 4, "velocity": 95}, {"time": 1397, "pitch": 62, "duration": 6, "velocity": 82}, {"time": 1397, "pitch": 65, "duration": 1, "velocity": 62}, {"time": 1400, "pitch": 53, "duration": 4, "velocity": 90}, {"time": 1403, "pitch": 58, "duration": 5, "velocity": 112}, {"time": 1406, "pitch": 62, "duration": 4, "velocity": 85}, {"time": 1409, "pitch": 43, "duration": 18, "velocity": 88}, {"time": 1412, "pitch": 50, "duration": 11, "velocity": 74}, {"time": 1415, "pitch": 55, "duration": 5, "velocity": 97}, {"time": 1418, "pitch": 58, "duration": 3, "velocity": 90}, {"time": 1421, "pitch": 62, "duration": 10, "velocity": 99}, {"time": 1424, "pitch": 50, "duration": 2, "velocity": 81}, {"time": 1427, "pitch": 58, "duration": 4, "velocity": 102}, {"time": 1430, "pitch": 55, "duration": 5, "velocity": 93}, {"time": 1433, "pitch": 36, "duration": 18, "velocity": 79}, {"time": 1436, "pitch": 43, "duration": 15, "velocity": 74}, {"time": 1439, "pitch": 48, "duration": 7, "velocity": 76}, {"time": 1442, "pitch": 55, "duration": 4, "velocity": 89}, {"time": 1445, "pitch": 63, "duration": 10, "velocity": 117}, {"time": 1448, "pitch": 48, "duration": 8, "velocity": 93}, {"time": 1451, "pitch": 60, "duration": 4, "velocity": 95}, {"time": 1454, "pitch": 55, "duration": 3, "velocity": 89}, {"time": 1457, "pitch": 41, "duration": 22, "velocity": 76}, {"time": 1460, "pitch": 48, "duration": 10, "velocity": 82}, {"time": 1463, "pitch": 53, "duration": 5, "velocity": 89}, {"time": 1466, "pitch": 56, "duration": 3, "velocity": 96}, {"time": 1469, "pitch": 60, "duration": 11, "velocity": 99}, {"time": 1472, "pitch": 48, "duration": 9, "velocity": 81}, {"time": 1475, "pitch": 56, "duration": 5, "velocity": 96}, {"time": 1478, "pitch": 53, "duration": 3, "velocity": 75}, {"time": 1481, "pitch": 41, "duration": 18, "velocity": 74}, {"time": 1484, "pitch": 48, "duration": 11, "velocity": 70}, {"time": 1487, "pitch": 53, "duration": 4, "velocity": 96}, {"time": 1490, "pitch": 56, "duration": 3, "velocity": 90}, {"time": 1493, "pitch": 60, "duration": 10, "velocity": 100}, {"time": 1496, "pitch": 48, "duration": 3, "velocity": 83}, {"time": 1499, "pitch": 56, "duration": 4, "velocity": 127}, {"time": 1502, "pitch": 53, "duration": 3, "velocity": 89}, {"time": 1505, "pitch": 46, "duration": 23, "velocity": 107}, {"time": 1508, "pitch": 50, "duration": 20, "velocity": 63}, {"time": 1511, "pitch": 53, "duration": 6, "velocity": 99}, {"time": 1514, "pitch": 58, "duration": 3, "velocity": 89}, {"time": 1517, "pitch": 65, "duration": 7, "velocity": 112}, {"time": 1520, "pitch": 53, "duration": 7, "velocity": 97}, {"time": 1523, "pitch": 62, "duration": 5, "velocity": 100}, {"time": 1526, "pitch": 58, "duration": 2, "velocity": 107}, {"time": 1529, "pitch": 46, "duration": 21, "velocity": 112}, {"time": 1529, "pitch": 53, "duration": 8, "velocity": 93}, {"time": 1529, "pitch": 58, "duration": 9, "velocity": 99}, {"time": 1529, "pitch": 62, "duration": 10, "velocity": 97}, {"time": 1529, "pitch": 65, "duration": 10, "velocity": 99}, {"time": 1535, "pitch": 50, "duration": 15, "velocity": 102}, {"time": 1538, "pitch": 53, "duration": 3, "velocity": 89}, {"time": 1541, "pitch": 58, "duration": 5, "velocity": 100}, {"time": 1544, "pitch": 53, "duration": 6, "velocity": 102}, {"time": 1547, "pitch": 62, "duration": 5, "velocity": 97}, {"time": 1550, "pitch": 58, "duration": 3, "velocity": 112}, {"time": 1553, "pitch": 39, "duration": 16, "velocity": 85}, {"time": 1556, "pitch": 46, "duration": 12, "velocity": 66}, {"time": 1559, "pitch": 51, "duration": 8, "velocity": 86}, {"time": 1562, "pitch": 63, "duration": 4, "velocity": 92}, {"time": 1565, "pitch": 70, "duration": 4, "velocity": 102}, {"time": 1568, "pitch": 63, "duration": 7, "velocity": 99}, {"time": 1571, "pitch": 67, "duration": 3, "velocity": 68}, {"time": 1574, "pitch": 70, "duration": 3, "velocity": 100}, {"time": 1577, "pitch": 38, "duration": 5, "velocity": 89}, {"time": 1580, "pitch": 43, "duration": 13, "velocity": 95}, {"time": 1583, "pitch": 62, "duration": 5, "velocity": 82}, {"time": 1586, "pitch": 67, "duration": 3, "velocity": 90}, {"time": 1589, "pitch": 70, "duration": 4, "velocity": 127}, {"time": 1592, "pitch": 67, "duration": 3, "velocity": 89}, {"time": 1595, "pitch": 62, "duration": 5, "velocity": 95}, {"time": 1598, "pitch": 70, "duration": 3, "velocity": 112}, {"time": 1601, "pitch": 36, "duration": 12, "velocity": 66}, {"time": 1604, "pitch": 43, "duration": 10, "velocity": 86}, {"time": 1607, "pitch": 48, "duration": 7, "velocity": 95}, {"time": 1610, "pitch": 60, "duration": 4, "velocity": 88}, {"time": 1613, "pitch": 67, "duration": 5, "velocity": 88}, {"time": 1616, "pitch": 63, "duration": 3, "velocity": 112}, {"time": 1619, "pitch": 60, "duration": 4, "velocity": 107}, {"time": 1622, "pitch": 67, "duration": 2, "velocity": 97}, {"time": 1625, "pitch": 46, "duration": 18, "velocity": 100}, {"time": 1628, "pitch": 50, "duration": 14, "velocity": 82}, {"time": 1631, "pitch": 53, "duration": 10, "velocity": 92}, {"time": 1634, "pitch": 58, "duration": 4, "velocity": 97}, {"time": 1637, "pitch": 62, "duration": 4, "velocity": 73}, {"time": 1640, "pitch": 65, "duration": 5, "velocity": 97}, {"time": 1643, "pitch": 62, "duration": 5, "velocity": 74}, {"time": 1646, "pitch": 58, "duration": 2, "velocity": 92}, {"time": 1649, "pitch": 44, "duration": 4, "velocity": 112}, {"time": 1652, "pitch": 48, "duration": 18, "velocity": 66}, {"time": 1655, "pitch": 44, "duration": 14, "velocity": 25}, {"time": 1655, "pitch": 51, "duration": 13, "velocity": 100}, {"time": 1658, "pitch": 60, "duration": 3, "velocity": 78}, {"time": 1661, "pitch": 68, "duration": 4, "velocity": 127}, {"time": 1664, "pitch": 63, "duration": 3, "velocity": 122}, {"time": 1667, "pitch": 60, "duration": 3, "velocity": 96}, {"time": 1670, "pitch": 68, "duration": 3, "velocity": 122}, {"time": 1673, "pitch": 43, "duration": 22, "velocity": 85}, {"time": 1676, "pitch": 50, "duration": 17, "velocity": 88}, {"time": 1679, "pitch": 55, "duration": 8, "velocity": 76}, {"time": 1682, "pitch": 58, "duration": 4, "velocity": 107}, {"time": 1685, "pitch": 65, "duration": 5, "velocity": 100}, {"time": 1688, "pitch": 62, "duration": 5, "velocity": 85}, {"time": 1691, "pitch": 58, "duration": 4, "velocity": 88}, {"time": 1694, "pitch": 55, "duration": 2, "velocity": 77}, {"time": 1697, "pitch": 41, "duration": 17, "velocity": 89}, {"time": 1700, "pitch": 48, "duration": 11, "velocity": 88}, {"time": 1703, "pitch": 53, "duration": 5, "velocity": 85}, {"time": 1706, "pitch": 56, "duration": 3, "velocity": 85}, {"time": 1709, "pitch": 60, "duration": 10, "velocity": 100}, {"time": 1712, "pitch": 48, "duration": 3, "velocity": 68}, {"time": 1715, "pitch": 56, "duration": 3, "velocity": 112}, {"time": 1718, "pitch": 53, "duration": 2, "velocity": 79}, {"time": 1721, "pitch": 44, "duration": 10, "velocity": 107}, {"time": 1727, "pitch": 56, "duration": 4, "velocity": 96}, {"time": 1730, "pitch": 63, "duration": 2, "velocity": 75}, {"time": 1733, "pitch": 46, "duration": 11, "velocity": 112}, {"time": 1739, "pitch": 58, "duration": 4, "velocity": 107}, {"time": 1742, "pitch": 62, "duration": 3, "velocity": 85}, {"time": 1745, "pitch": 39, "duration": 16, "velocity": 85}, {"time": 1748, "pitch": 46, "duration": 12, "velocity": 66}, {"time": 1751, "pitch": 51, "duration": 8, "velocity": 86}, {"time": 1754, "pitch": 63, "duration": 4, "velocity": 92}, {"time": 1757, "pitch": 70, "duration": 4, "velocity": 102}, {"time": 1760, "pitch": 63, "duration": 7, "velocity": 99}, {"time": 1763, "pitch": 67, "duration": 3, "velocity": 68}, {"time": 1766, "pitch": 70, "duration": 3, "velocity": 100}, {"time": 1769, "pitch": 38, "duration": 5, "velocity": 89}, {"time": 1772, "pitch": 43, "duration": 13, "velocity": 95}, {"time": 1775, "pitch": 62, "duration": 5, "velocity": 82}, {"time": 1778, "pitch": 67, "duration": 3, "velocity": 90}, {"time": 1781, "pitch": 70, "duration": 4, "velocity": 127}, {"time": 1784, "pitch": 67, "duration": 3, "velocity": 89}, {"time": 1787, "pitch": 62, "duration": 5, "velocity": 95}, {"time": 1790, "pitch": 70, "duration": 3, "velocity": 112}, {"time": 1793, "pitch": 36, "duration": 12, "velocity": 66}, {"time": 1796, "pitch": 43, "duration": 10, "velocity": 86}, {"time": 1799, "pitch": 48, "duration": 7, "velocity": 95}, {"time": 1802, "pitch": 60, "duration": 4, "velocity": 88}, {"time": 1805, "pitch": 67, "duration": 5, "velocity": 88}, {"time": 1808, "pitch": 63, "duration": 3, "velocity": 112}, {"time": 1811, "pitch": 60, "duration": 4, "velocity": 107}, {"time": 1814, "pitch": 67, "duration": 2, "velocity": 97}, {"time": 1817, "pitch": 46, "duration": 18, "velocity": 100}, {"time": 1820, "pitch": 50, "duration": 14, "velocity": 82}, {"time": 1823, "pitch": 53, "duration": 10, "velocity": 92}, {"time": 1826, "pitch": 58, "duration": 4, "velocity": 97}, {"time": 1829, "pitch": 62, "duration": 4, "velocity": 73}, {"time": 1832, "pitch": 65, "duration": 5, "velocity": 97}, {"time": 1835, "pitch": 62, "duration": 5, "velocity": 74}, {"time": 1838, "pitch": 58, "duration": 2, "velocity": 92}, {"time": 1841, "pitch": 44, "duration": 4, "velocity": 112}, {"time": 1844, "pitch": 48, "duration": 18, "velocity": 66}, {"time": 1847, "pitch": 44, "duration": 14, "velocity": 25}, {"time": 1847, "pitch": 51, "duration": 13, "velocity": 100}, {"time": 1850, "pitch": 60, "duration": 3, "velocity": 78}, {"time": 1853, "pitch": 68, "duration": 4, "velocity": 127}, {"time": 1856, "pitch": 63, "duration": 3, "velocity": 122}, {"time": 1859, "pitch": 60, "duration": 3, "velocity": 96}, {"time": 1862, "pitch": 68, "duration": 3, "velocity": 122}, {"time": 1865, "pitch": 43, "duration": 22, "velocity": 85}, {"time": 1868, "pitch": 50, "duration": 17, "velocity": 88}, {"time": 1871, "pitch": 55, "duration": 8, "velocity": 76}, {"time": 1874, "pitch": 58, "duration": 4, "velocity": 107}, {"time": 1877, "pitch": 65, "duration": 5, "velocity": 100}, {"time": 1880, "pitch": 62, "duration": 5, "velocity": 85}, {"time": 1883, "pitch": 58, "duration": 4, "velocity": 88}, {"time": 1886, "pitch": 55, "duration": 2, "velocity": 77}, {"time": 1889, "pitch": 41, "duration": 8, "velocity": 92}, {"time": 1892, "pitch": 53, "duration": 4, "velocity": 90}, {"time": 1895, "pitch": 56, "duration": 2, "velocity": 99}, {"time": 1895, "pitch": 60, "duration": 4, "velocity": 100}, {"time": 1901, "pitch": 46, "duration": 10, "velocity": 127}, {"time": 1904, "pitch": 53, "duration": 5, "velocity": 71}, {"time": 1907, "pitch": 62, "duration": 5, "velocity": 88}, {"time": 1910, "pitch": 39, "duration": 23, "velocity": 76}, {"time": 1910, "pitch": 58, "duration": 3, "velocity": 117}, {"time": 1913, "pitch": 46, "duration": 22, "velocity": 66}, {"time": 1919, "pitch": 51, "duration": 8, "velocity": 92}, {"time": 1922, "pitch": 55, "duration": 4, "velocity": 79}, {"time": 1925, "pitch": 63, "duration": 12, "velocity": 99}, {"time": 1928, "pitch": 51, "duration": 9, "velocity": 86}, {"time": 1931, "pitch": 58, "duration": 6, "velocity": 102}, {"time": 1934, "pitch": 55, "duration": 3, "velocity": 70}, {"time": 1937, "pitch": 39, "duration": 15, "velocity": 72}, {"time": 1943, "pitch": 51, "duration": 8, "velocity": 85}, {"time": 1949, "pitch": 70, "duration": 14, "velocity": 99}, {"time": 1955, "pitch": 63, "duration": 7, "velocity": 89}, {"time": 1961, "pitch": 38, "duration": 22, "velocity": 75}, {"time": 1967, "pitch": 50, "duration": 6, "velocity": 63}, {"time": 1967, "pitch": 62, "duration": 8, "velocity": 82}, {"time": 1973, "pitch": 70, "duration": 11, "velocity": 102}, {"time": 1979, "pitch": 62, "duration": 8, "velocity": 88}, {"time": 1985, "pitch": 36, "duration": 16, "velocity": 73}, {"time": 1991, "pitch": 48, "duration": 8, "velocity": 89}, {"time": 1991, "pitch": 60, "duration": 8, "velocity": 77}, {"time": 1997, "pitch": 67, "duration": 11, "velocity": 97}, {"time": 2003, "pitch": 60, "duration": 7, "velocity": 93}, {"time": 2009, "pitch": 34, "duration": 16, "velocity": 99}, {"time": 2015, "pitch": 46, "duration": 8, "velocity": 77}, {"time": 2015, "pitch": 58, "duration": 7, "velocity": 69}, {"time": 2021, "pitch": 65, "duration": 12, "velocity": 96}, {"time": 2027, "pitch": 58, "duration": 7, "velocity": 95}, {"time": 2033, "pitch": 32, "duration": 17, "velocity": 81}, {"time": 2039, "pitch": 44, "duration": 8, "velocity": 89}, {"time": 2045, "pitch": 63, "duration": 11, "velocity": 107}, {"time": 2051, "pitch": 56, "duration": 7, "velocity": 99}, {"time": 2057, "pitch": 31, "duration": 11, "velocity": 77}, {"time": 2063, "pitch": 55, "duration": 8, "velocity": 92}, {"time": 2069, "pitch": 62, "duration": 12, "velocity": 100}, {"time": 2075, "pitch": 55, "duration": 7, "velocity": 97}, {"time": 2081, "pitch": 41, "duration": 18, "velocity": 83}, {"time": 2087, "pitch": 53, "duration": 10, "velocity": 89}, {"time": 2093, "pitch": 60, "duration": 12, "velocity": 102}, {"time": 2099, "pitch": 53, "duration": 6, "velocity": 95}, {"time": 2105, "pitch": 44, "duration": 12, "velocity": 95}, {"time": 2105, "pitch": 56, "duration": 1, "velocity": 72}, {"time": 2111, "pitch": 56, "duration": 6, "velocity": 100}, {"time": 2117, "pitch": 46, "duration": 11, "velocity": 95}, {"time": 2117, "pitch": 58, "duration": 10, "velocity": 75}, {"time": 2117, "pitch": 62, "duration": 11, "velocity": 86}, {"time": 2129, "pitch": 39, "duration": 15, "velocity": 72}, {"time": 2135, "pitch": 51, "duration": 8, "velocity": 85}, {"time": 2141, "pitch": 70, "duration": 14, "velocity": 99}, {"time": 2147, "pitch": 63, "duration": 7, "velocity": 89}, {"time": 2153, "pitch": 38, "duration": 22, "velocity": 75}, {"time": 2159, "pitch": 50, "duration": 6, "velocity": 63}, {"time": 2159, "pitch": 62, "duration": 8, "velocity": 82}, {"time": 2165, "pitch": 70, "duration": 11, "velocity": 102}, {"time": 2171, "pitch": 62, "duration": 8, "velocity": 88}, {"time": 2177, "pitch": 36, "duration": 16, "velocity": 73}, {"time": 2183, "pitch": 48, "duration": 8, "velocity": 89}, {"time": 2183, "pitch": 60, "duration": 8, "velocity": 77}, {"time": 2189, "pitch": 67, "duration": 11, "velocity": 97}, {"time": 2195, "pitch": 60, "duration": 7, "velocity": 93}, {"time": 2201, "pitch": 34, "duration": 16, "velocity": 99}, {"time": 2207, "pitch": 46, "duration": 8, "velocity": 77}, {"time": 2207, "pitch": 58, "duration": 7, "velocity": 69}, {"time": 2213, "pitch": 65, "duration": 12, "velocity": 96}, {"time": 2219, "pitch": 58, "duration": 7, "velocity": 95}, {"time": 2225, "pitch": 32, "duration": 17, "velocity": 81}, {"time": 2231, "pitch": 44, "duration": 8, "velocity": 89}, {"time": 2237, "pitch": 63, "duration": 11, "velocity": 107}, {"time": 2243, "pitch": 56, "duration": 7, "velocity": 99}, {"time": 2249, "pitch": 31, "duration": 11, "velocity": 77}, {"time": 2255, "pitch": 55, "duration": 8, "velocity": 92}, {"time": 2261, "pitch": 62, "duration": 12, "velocity": 100}, {"time": 2267, "pitch": 55, "duration": 6, "velocity": 97}, {"time": 2273, "pitch": 41, "duration": 12, "velocity": 86}, {"time": 2279, "pitch": 53, "duration": 9, "velocity": 81}, {"time": 2285, "pitch": 60, "duration": 7, "velocity": 97}, {"time": 2291, "pitch": 53, "duration": 8, "velocity": 95}, {"time": 2297, "pitch": 46, "duration": 23, "velocity": 83}, {"time": 2297, "pitch": 58, "duration": 7, "velocity": 95}, {"time": 2297, "pitch": 62, "duration": 8, "velocity": 96}, {"time": 2303, "pitch": 53, "duration": 9, "velocity": 67}, {"time": 2309, "pitch": 62, "duration": 11, "velocity": 100}, {"time": 2315, "pitch": 58, "duration": 5, "velocity": 100}, {"time": 2321, "pitch": 44, "duration": 14, "velocity": 112}, {"time": 2327, "pitch": 60, "duration": 5, "velocity": 90}, {"time": 2333, "pitch": 56, "duration": 7, "velocity": 112}, {"time": 2333, "pitch": 63, "duration": 13, "velocity": 93}, {"time": 2333, "pitch": 68, "duration": 12, "velocity": 97}, {"time": 2342, "pitch": 44, "duration": 3, "velocity": 68}, {"time": 2345, "pitch": 46, "duration": 14, "velocity": 127}, {"time": 2351, "pitch": 58, "duration": 5, "velocity": 70}, {"time": 2357, "pitch": 58, "duration": 3, "velocity": 67}, {"time": 2357, "pitch": 62, "duration": 4, "velocity": 95}, {"time": 2357, "pitch": 65, "duration": 4, "velocity": 95}, {"time": 2363, "pitch": 58, "duration": 8, "velocity": 117}, {"time": 2363, "pitch": 62, "duration": 7, "velocity": 45}, {"time": 2363, "pitch": 65, "duration": 6, "velocity": 41}, {"time": 2366, "pitch": 46, "duration": 3, "velocity": 117}, {"time": 2369, "pitch": 43, "duration": 15, "velocity": 86}, {"time": 2375, "pitch": 55, "duration": 7, "velocity": 96}, {"time": 2381, "pitch": 58, "duration": 12, "velocity": 100}, {"time": 2381, "pitch": 62, "duration": 11, "velocity": 97}, {"time": 2384, "pitch": 55, "duration": 8, "velocity": 76}, {"time": 2390, "pitch": 43, "duration": 3, "velocity": 100}, {"time": 2393, "pitch": 48, "duration": 15, "velocity": 100}, {"time": 2399, "pitch": 55, "duration": 7, "velocity": 97}, {"time": 2405, "pitch": 60, "duration": 12, "velocity": 99}, {"time": 2405, "pitch": 63, "duration": 12, "velocity": 122}, {"time": 2411, "pitch": 55, "duration": 6, "velocity": 86}, {"time": 2417, "pitch": 41, "duration": 18, "velocity": 97}, {"time": 2423, "pitch": 53, "duration": 8, "velocity": 89}, {"time": 2426, "pitch": 48, "duration": 9, "velocity": 64}, {"time": 2429, "pitch": 60, "duration": 12, "velocity": 102}, {"time": 2435, "pitch": 56, "duration": 5, "velocity": 99}, {"time": 2438, "pitch": 53, "duration": 3, "velocity": 86}, {"time": 2441, "pitch": 44, "duration": 13, "velocity": 92}, {"time": 2447, "pitch": 56, "duration": 8, "velocity": 95}, {"time": 2453, "pitch": 63, "duration": 11, "velocity": 112}, {"time": 2456, "pitch": 44, "duration": 2, "velocity": 75}, {"time": 2459, "pitch": 56, "duration": 5, "velocity": 96}, {"time": 2462, "pitch": 60, "duration": 3, "velocity": 63}, {"time": 2465, "pitch": 39, "duration": 23, "velocity": 112}, {"time": 2471, "pitch": 51, "duration": 7, "velocity": 92}, {"time": 2477, "pitch": 63, "duration": 11, "velocity": 127}, {"time": 2480, "pitch": 51, "duration": 9, "velocity": 93}, {"time": 2483, "pitch": 58, "duration": 4, "velocity": 93}, {"time": 2486, "pitch": 55, "duration": 4, "velocity": 82}, {"time": 2489, "pitch": 39, "duration": 17, "velocity": 107}, {"time": 2492, "pitch": 51, "duration": 9, "velocity": 99}, {"time": 2495, "pitch": 55, "duration": 5, "velocity": 89}, {"time": 2498, "pitch": 58, "duration": 3, "velocity": 102}, {"time": 2501, "pitch": 63, "duration": 11, "velocity": 127}, {"time": 2504, "pitch": 51, "duration": 3, "velocity": 100}, {"time": 2507, "pitch": 58, "duration": 4, "velocity": 112}, {"time": 2510, "pitch": 55, "duration": 3, "velocity": 93}, {"time": 2513, "pitch": 44, "duration": 18, "velocity": 112}, {"time": 2519, "pitch": 56, "duration": 9, "velocity": 95}, {"time": 2522, "pitch": 51, "duration": 5, "velocity": 66}, {"time": 2525, "pitch": 63, "duration": 10, "velocity": 127}, {"time": 2528, "pitch": 51, "duration": 3, "velocity": 96}, {"time": 2531, "pitch": 56, "duration": 4, "velocity": 90}, {"time": 2534, "pitch": 60, "duration": 2, "velocity": 78}, {"time": 2537, "pitch": 46, "duration": 19, "velocity": 102}, {"time": 2543, "pitch": 50, "duration": 12, "velocity": 67}, {"time": 2546, "pitch": 53, "duration": 4, "velocity": 95}, {"time": 2549, "pitch": 62, "duration": 6, "velocity": 82}, {"time": 2549, "pitch": 65, "duration": 1, "velocity": 62}, {"time": 2552, "pitch": 53, "duration": 4, "velocity": 90}, {"time": 2555, "pitch": 58, "duration": 5, "velocity": 112}, {"time": 2558, "pitch": 62, "duration": 4, "velocity": 85}, {"time": 2561, "pitch": 43, "duration": 18, "velocity": 88}, {"time": 2564, "pitch": 50, "duration": 11, "velocity": 74}, {"time": 2567, "pitch": 55, "duration": 5, "velocity": 97}, {"time": 2570, "pitch": 58, "duration": 3, "velocity": 90}, {"time": 2573, "pitch": 62, "duration": 10, "velocity": 99}, {"time": 2576, "pitch": 50, "duration": 2, "velocity": 81}, {"time": 2579, "pitch": 58, "duration": 4, "velocity": 102}, {"time": 2582, "pitch": 55, "duration": 5, "velocity": 93}, {"time": 2585, "pitch": 36, "duration": 18, "velocity": 79}, {"time": 2588, "pitch": 43, "duration": 15, "velocity": 74}, {"time": 2591, "pitch": 48, "duration": 7, "velocity": 76}, {"time": 2594, "pitch": 55, "duration": 4, "velocity": 89}, {"time": 2597, "pitch": 63, "duration": 10, "velocity": 117}, {"time": 2600, "pitch": 48, "duration": 8, "velocity": 93}, {"time": 2603, "pitch": 60, "duration": 4, "velocity": 95}, {"time": 2606, "pitch": 55, "duration": 3, "velocity": 89}, {"time": 2609, "pitch": 41, "duration": 22, "velocity": 76}, {"time": 2612, "pitch": 48, "duration": 10, "velocity": 82}, {"time": 2615, "pitch": 53, "duration": 5, "velocity": 89}, {"time": 2618, "pitch": 56, "duration": 3, "velocity": 96}, {"time": 2621, "pitch": 60, "duration": 11, "velocity": 99}, {"time": 2624, "pitch": 48, "duration": 9, "velocity": 81}, {"time": 2627, "pitch": 56, "duration": 5, "velocity": 96}, {"time": 2630, "pitch": 53, "duration": 3, "velocity": 75}, {"time": 2633, "pitch": 41, "duration": 18, "velocity": 74}, {"time": 2636, "pitch": 48, "duration": 11, "velocity": 70}, {"time": 2639, "pitch": 53, "duration": 4, "velocity": 96}, {"time": 2642, "pitch": 56, "duration": 3, "velocity": 90}, {"time": 2645, "pitch": 60, "duration": 10, "velocity": 100}, {"time": 2648, "pitch": 48, "duration": 3, "velocity": 83}, {"time": 2651, "pitch": 56, "duration": 4, "velocity": 127}, {"time": 2654, "pitch": 53, "duration": 3, "velocity": 89}, {"time": 2657, "pitch": 46, "duration": 23, "velocity": 107}, {"time": 2660, "pitch": 50, "duration": 20, "velocity": 63}, {"time": 2663, "pitch": 53, "duration": 6, "velocity": 99}, {"time": 2666, "pitch": 58, "duration": 3, "velocity": 89}, {"time": 2669, "pitch": 65, "duration": 7, "velocity": 112}, {"time": 2672, "pitch": 53, "duration": 7, "velocity": 97}, {"time": 2675, "pitch": 62, "duration": 5, "velocity": 100}, {"time": 2678, "pitch": 58, "duration": 2, "velocity": 107}, {"time": 2681, "pitch": 46, "duration": 21, "velocity": 112}, {"time": 2681, "pitch": 53, "duration": 8, "velocity": 93}, {"time": 2681, "pitch": 58, "duration": 9, "velocity": 99}, {"time": 2681, "pitch": 62, "duration": 10, "velocity": 97}, {"time": 2681, "pitch": 65, "duration": 10, "velocity": 99}, {"time": 2687, "pitch": 50, "duration": 15, "velocity": 102}, {"time": 2690, "pitch": 53, "duration": 3, "velocity": 89}, {"time": 2693, "pitch": 58, "duration": 5, "velocity": 100}, {"time": 2696, "pitch": 53, "duration": 6, "velocity": 102}, {"time": 2699, "pitch": 62, "duration": 5, "velocity": 97}, {"time": 2702, "pitch": 58, "duration": 3, "velocity": 112}, {"time": 2705, "pitch": 39, "duration": 16, "velocity": 85}, {"time": 2708, "pitch": 46, "duration": 12, "velocity": 66}, {"time": 2711, "pitch": 51, "duration": 8, "velocity": 86}, {"time": 2714, "pitch": 63, "duration": 4, "velocity": 92}, {"time": 2717, "pitch": 70, "duration": 4, "velocity": 102}, {"time": 2720, "pitch": 63, "duration": 7, "velocity": 99}, {"time": 2723, "pitch": 67, "duration": 3, "velocity": 68}, {"time": 2726, "pitch": 70, "duration": 3, "velocity": 100}, {"time": 2729, "pitch": 38, "duration": 5, "velocity": 89}, {"time": 2732, "pitch": 43, "duration": 13, "velocity": 95}, {"time": 2735, "pitch": 62, "duration": 5, "velocity": 82}, {"time": 2738, "pitch": 67, "duration": 3, "velocity": 90}, {"time": 2741, "pitch": 70, "duration": 4, "velocity": 127}, {"time": 2744, "pitch": 67, "duration": 3, "velocity": 89}, {"time": 2747, "pitch": 62, "duration": 5, "velocity": 95}, {"time": 2750, "pitch": 70, "duration": 3, "velocity": 112}, {"time": 2753, "pitch": 36, "duration": 12, "velocity": 66}, {"time": 2756, "pitch": 43, "duration": 10, "velocity": 86}, {"time": 2759, "pitch": 48, "duration": 7, "velocity": 95}, {"time": 2762, "pitch": 60, "duration": 4, "velocity": 88}, {"time": 2765, "pitch": 67, "duration": 5, "velocity": 88}, {"time": 2768, "pitch": 63, "duration": 3, "velocity": 112}, {"time": 2771, "pitch": 60, "duration": 4, "velocity": 107}, {"time": 2774, "pitch": 67, "duration": 2, "velocity": 97}, {"time": 2777, "pitch": 46, "duration": 18, "velocity": 100}, {"time": 2780, "pitch": 50, "duration": 14, "velocity": 82}, {"time": 2783, "pitch": 53, "duration": 10, "velocity": 92}, {"time": 2786, "pitch": 58, "duration": 4, "velocity": 97}, {"time": 2789, "pitch": 62, "duration": 4, "velocity": 73}, {"time": 2792, "pitch": 65, "duration": 5, "velocity": 97}, {"time": 2795, "pitch": 62, "duration": 5, "velocity": 74}, {"time": 2798, "pitch": 58, "duration": 2, "velocity": 92}, {"time": 2801, "pitch": 44, "duration": 4, "velocity": 112}, {"time": 2804, "pitch": 48, "duration": 18, "velocity": 66}, {"time": 2807, "pitch": 44, "duration": 14, "velocity": 25}, {"time": 2807, "pitch": 51, "duration": 13, "velocity": 100}, {"time": 2810, "pitch": 60, "duration": 3, "velocity": 78}, {"time": 2813, "pitch": 68, "duration": 4, "velocity": 127}, {"time": 2816, "pitch": 63, "duration": 3, "velocity": 122}, {"time": 2819, "pitch": 60, "duration": 3, "velocity": 96}, {"time": 2822, "pitch": 68, "duration": 3, "velocity": 122}, {"time": 2825, "pitch": 43, "duration": 22, "velocity": 85}, {"time": 2828, "pitch": 50, "duration": 17, "velocity": 88}, {"time": 2831, "pitch": 55, "duration": 8, "velocity": 76}, {"time": 2834, "pitch": 58, "duration": 4, "velocity": 107}, {"time": 2837, "pitch": 65, "duration": 5, "velocity": 100}, {"time": 2840, "pitch": 62, "duration": 5, "velocity": 85}, {"time": 2843, "pitch": 58, "duration": 4, "velocity": 88}, {"time": 2846, "pitch": 55, "duration": 2, "velocity": 77}, {"time": 2849, "pitch": 41, "duration": 17, "velocity": 89}, {"time": 2852, "pitch": 48, "duration": 11, "velocity": 88}, {"time": 2855, "pitch": 53, "duration": 5, "velocity": 85}, {"time": 2858, "pitch": 56, "duration": 3, "velocity": 85}, {"time": 2861, "pitch": 60, "duration": 10, "velocity": 100}, {"time": 2864, "pitch": 48, "duration": 3, "velocity": 68}, {"time": 2867, "pitch": 56, "duration": 3, "velocity": 112}, {"time": 2870, "pitch": 53, "duration": 2, "velocity": 79}, {"time": 2873, "pitch": 44, "duration": 10, "velocity": 107}, {"time": 2879, "pitch": 56, "duration": 4, "velocity": 96}, {"time": 2882, "pitch": 63, "duration": 2, "velocity": 75}, {"time": 2885, "pitch": 46, "duration": 11, "velocity": 112}, {"time": 2891, "pitch": 58, "duration": 4, "velocity": 107}, {"time": 2894, "pitch": 62, "duration": 3, "velocity": 85}, {"time": 2897, "pitch": 39, "duration": 16, "velocity": 85}, {"time": 2900, "pitch": 46, "duration": 12, "velocity": 66}, {"time": 2903, "pitch": 51, "duration": 8, "velocity": 86}, {"time": 2906, "pitch": 63, "duration": 4, "velocity": 92}, {"time": 2909, "pitch": 70, "duration": 4, "velocity": 102}, {"time": 2912, "pitch": 63, "duration": 7, "velocity": 99}, {"time": 2915, "pitch": 67, "duration": 3, "velocity": 68}, {"time": 2918, "pitch": 70, "duration": 3, "velocity": 100}, {"time": 2921, "pitch": 38, "duration": 5, "velocity": 89}, {"time": 2924, "pitch": 43, "duration": 13, "velocity": 95}, {"time": 2927, "pitch": 62, "duration": 5, "velocity": 82}, {"time": 2930, "pitch": 67, "duration": 3, "velocity": 90}, {"time": 2933, "pitch": 70, "duration": 4, "velocity": 127}, {"time": 2936, "pitch": 67, "duration": 3, "velocity": 89}, {"time": 2939, "pitch": 62, "duration": 5, "velocity": 95}, {"time": 2942, "pitch": 70, "duration": 3, "velocity": 112}, {"time": 2945, "pitch": 36, "duration": 12, "velocity": 66}, {"time": 2948, "pitch": 43, "duration": 10, "velocity": 86}, {"time": 2951, "pitch": 48, "duration": 7, "velocity": 95}, {"time": 2954, "pitch": 60, "duration": 4, "velocity": 88}, {"time": 2957, "pitch": 67, "duration": 5, "velocity": 88}, {"time": 2960, "pitch": 63, "duration": 3, "velocity": 112}, {"time": 2963, "pitch": 60, "duration": 4, "velocity": 107}, {"time": 2966, "pitch": 67, "duration": 2, "velocity": 97}, {"time": 2969, "pitch": 46, "duration": 18, "velocity": 100}, {"time": 2972, "pitch": 50, "duration": 14, "velocity": 82}, {"time": 2975, "pitch": 53, "duration": 10, "velocity": 92}, {"time": 2978, "pitch": 58, "duration": 4, "velocity": 97}, {"time": 2981, "pitch": 62, "duration": 4, "velocity": 73}, {"time": 2984, "pitch": 65, "duration": 5, "velocity": 97}, {"time": 2987, "pitch": 62, "duration": 5, "velocity": 74}, {"time": 2990, "pitch": 58, "duration": 2, "velocity": 92}, {"time": 2993, "pitch": 44, "duration": 4, "velocity": 112}, {"time": 2996, "pitch": 48, "duration": 18, "velocity": 66}, {"time": 2999, "pitch": 44, "duration": 14, "velocity": 25}, {"time": 2999, "pitch": 51, "duration": 13, "velocity": 100}, {"time": 3002, "pitch": 60, "duration": 3, "velocity": 78}, {"time": 3005, "pitch": 68, "duration": 4, "velocity": 127}, {"time": 3008, "pitch": 63, "duration": 3, "velocity": 122}, {"time": 3011, "pitch": 60, "duration": 3, "velocity": 96}, {"time": 3014, "pitch": 68, "duration": 3, "velocity": 122}, {"time": 3017, "pitch": 43, "duration": 22, "velocity": 85}, {"time": 3020, "pitch": 50, "duration": 17, "velocity": 88}, {"time": 3023, "pitch": 55, "duration": 8, "velocity": 76}, {"time": 3026, "pitch": 58, "duration": 4, "velocity": 107}, {"time": 3029, "pitch": 65, "duration": 5, "velocity": 100}, {"time": 3032, "pitch": 62, "duration": 5, "velocity": 85}, {"time": 3035, "pitch": 58, "duration": 4, "velocity": 88}, {"time": 3038, "pitch": 55, "duration": 2, "velocity": 77}, {"time": 3041, "pitch": 41, "duration": 8, "velocity": 92}, {"time": 3044, "pitch": 53, "duration": 4, "velocity": 90}, {"time": 3047, "pitch": 56, "duration": 2, "velocity": 99}, {"time": 3047, "pitch": 60, "duration": 4, "velocity": 100}, {"time": 3053, "pitch": 46, "duration": 10, "velocity": 127}, {"time": 3056, "pitch": 53, "duration": 5, "velocity": 71}, {"time": 3059, "pitch": 62, "duration": 5, "velocity": 88}, {"time": 3062, "pitch": 58, "duration": 3, "velocity": 117}, {"time": 3065, "pitch": 51, "duration": 7, "velocity": 107}, {"time": 3071, "pitch": 63, "duration": 3, "velocity": 100}, {"time": 3077, "pitch": 47, "duration": 11, "velocity": 117}, {"time": 3077, "pitch": 59, "duration": 12, "velocity": 122}, {"time": 3077, "pitch": 63, "duration": 11, "velocity": 117}, {"time": 3077, "pitch": 66, "duration": 11, "velocity": 122}, {"time": 3089, "pitch": 40, "duration": 16, "velocity": 85}, {"time": 3092, "pitch": 47, "duration": 12, "velocity": 66}, {"time": 3095, "pitch": 52, "duration": 8, "velocity": 86}, {"time": 3098, "pitch": 64, "duration": 4, "velocity": 92}, {"time": 3101, "pitch": 71, "duration": 4, "velocity": 102}, {"time": 3104, "pitch": 64, "duration": 7, "velocity": 99}, {"time": 3107, "pitch": 68, "duration": 3, "velocity": 68}, {"time": 3110, "pitch": 71, "duration": 3, "velocity": 100}, {"time": 3113, "pitch": 39, "duration": 20, "velocity": 89}, {"time": 3119, "pitch": 44, "duration": 13, "velocity": 95}, {"time": 3119, "pitch": 63, "duration": 5, "velocity": 82}, {"time": 3122, "pitch": 68, "duration": 3, "velocity": 90}, {"time": 3125, "pitch": 71, "duration": 4, "velocity": 127}, {"time": 3128, "pitch": 68, "duration": 3, "velocity": 89}, {"time": 3131, "pitch": 63, "duration": 5, "velocity": 95}, {"time": 3134, "pitch": 71, "duration": 3, "velocity": 112}, {"time": 3137, "pitch": 37, "duration": 12, "velocity": 66}, {"time": 3143, "pitch": 44, "duration": 10, "velocity": 86}, {"time": 3143, "pitch": 49, "duration": 7, "velocity": 95}, {"time": 3146, "pitch": 61, "duration": 4, "velocity": 88}, {"time": 3149, "pitch": 68, "duration": 5, "velocity": 88}, {"time": 3152, "pitch": 64, "duration": 3, "velocity": 112}, {"time": 3155, "pitch": 61, "duration": 4, "velocity": 107}, {"time": 3158, "pitch": 68, "duration": 2, "velocity": 97}, {"time": 3161, "pitch": 47, "duration": 18, "velocity": 100}, {"time": 3164, "pitch": 51, "duration": 14, "velocity": 82}, {"time": 3167, "pitch": 54, "duration": 10, "velocity": 92}, {"time": 3170, "pitch": 59, "duration": 4, "velocity": 97}, {"time": 3173, "pitch": 63, "duration": 4, "velocity": 73}, {"time": 3176, "pitch": 66, "duration": 5, "velocity": 97}, {"time": 3179, "pitch": 63, "duration": 5, "velocity": 74}, {"time": 3182, "pitch": 59, "duration": 2, "velocity": 92}, {"time": 3185, "pitch": 45, "duration": 4, "velocity": 112}, {"time": 3188, "pitch": 49, "duration": 18, "velocity": 66}, {"time": 3191, "pitch": 45, "duration": 14, "velocity": 25}, {"time": 3191, "pitch": 52, "duration": 13, "velocity": 100}, {"time": 3194, "pitch": 61, "duration": 3, "velocity": 78}, {"time": 3197, "pitch": 69, "duration": 4, "velocity": 127}, {"time": 3200, "pitch": 64, "duration": 3, "velocity": 122}, {"time": 3203, "pitch": 61, "duration": 3, "velocity": 96}, {"time": 3206, "pitch": 69, "duration": 3, "velocity": 122}, {"time": 3209, "pitch": 44, "duration": 22, "velocity": 85}, {"time": 3212, "pitch": 51, "duration": 17, "velocity": 88}, {"time": 3215, "pitch": 56, "duration": 8, "velocity": 76}, {"time": 3218, "pitch": 59, "duration": 4, "velocity": 107}, {"time": 3221, "pitch": 66, "duration": 5, "velocity": 100}, {"time": 3224, "pitch": 63, "duration": 5, "velocity": 85}, {"time": 3227, "pitch": 59, "duration": 4, "velocity": 88}, {"time": 3230, "pitch": 56, "duration": 2, "velocity": 77}, {"time": 3233, "pitch": 42, "duration": 17, "velocity": 89}, {"time": 3236, "pitch": 49, "duration": 11, "velocity": 88}, {"time": 3239, "pitch": 54, "duration": 5, "velocity": 85}, {"time": 3242, "pitch": 57, "duration": 3, "velocity": 85}, {"time": 3245, "pitch": 61, "duration": 10, "velocity": 100}, {"time": 3248, "pitch": 49, "duration": 3, "velocity": 68}, {"time": 3251, "pitch": 57, "duration": 3, "velocity": 112}, {"time": 3254, "pitch": 54, "duration": 2, "velocity": 79}, {"time": 3257, "pitch": 45, "duration": 10, "velocity": 107}, {"time": 3263, "pitch": 57, "duration": 4, "velocity": 96}, {"time": 3266, "pitch": 64, "duration": 2, "velocity": 75}, {"time": 3269, "pitch": 47, "duration": 11, "velocity": 112}, {"time": 3275, "pitch": 59, "duration": 4, "velocity": 107}, {"time": 3278, "pitch": 63, "duration": 3, "velocity": 85}, {"time": 3281, "pitch": 40, "duration": 16, "velocity": 85}, {"time": 3284, "pitch": 47, "duration": 12, "velocity": 66}, {"time": 3287, "pitch": 52, "duration": 8, "velocity": 86}, {"time": 3290, "pitch": 64, "duration": 4, "velocity": 92}, {"time": 3293, "pitch": 71, "duration": 4, "velocity": 102}, {"time": 3296, "pitch": 64, "duration": 7, "velocity": 99}, {"time": 3299, "pitch": 68, "duration": 3, "velocity": 68}, {"time": 3302, "pitch": 71, "duration": 3, "velocity": 100}, {"time": 3305, "pitch": 39, "duration": 5, "velocity": 89}, {"time": 3308, "pitch": 44, "duration": 13, "velocity": 95}, {"time": 3311, "pitch": 63, "duration": 5, "velocity": 82}, {"time": 3314, "pitch": 68, "duration": 3, "velocity": 90}, {"time": 3317, "pitch": 71, "duration": 4, "velocity": 127}, {"time": 3320, "pitch": 68, "duration": 3, "velocity": 89}, {"time": 3323, "pitch": 63, "duration": 5, "velocity": 95}, {"time": 3326, "pitch": 71, "duration": 3, "velocity": 112}, {"time": 3329, "pitch": 37, "duration": 12, "velocity": 66}, {"time": 3332, "pitch": 44, "duration": 10, "velocity": 86}, {"time": 3335, "pitch": 49, "duration": 7, "velocity": 95}, {"time": 3338, "pitch": 61, "duration": 4, "velocity": 88}, {"time": 3341, "pitch": 68, "duration": 5, "velocity": 88}, {"time": 3344, "pitch": 64, "duration": 3, "velocity": 112}, {"time": 3347, "pitch": 61, "duration": 4, "velocity": 107}, {"time": 3350, "pitch": 68, "duration": 2, "velocity": 97}, {"time": 3353, "pitch": 47, "duration": 18, "velocity": 100}, {"time": 3356, "pitch": 51, "duration": 14, "velocity": 82}, {"time": 3359, "pitch": 54, "duration": 10, "velocity": 92}, {"time": 3362, "pitch": 59, "duration": 4, "velocity": 97}, {"time": 3365, "pitch": 63, "duration": 4, "velocity": 73}, {"time": 3368, "pitch": 66, "duration": 5, "velocity": 97}, {"time": 3371, "pitch": 63, "duration": 5, "velocity": 74}, {"time": 3374, "pitch": 59, "duration": 2, "velocity": 92}, {"time": 3377, "pitch": 45, "duration": 4, "velocity": 112}, {"time": 3380, "pitch": 49, "duration": 18, "velocity": 66}, {"time": 3383, "pitch": 45, "duration": 14, "velocity": 25}, {"time": 3383, "pitch": 52, "duration": 13, "velocity": 100}, {"time": 3386, "pitch": 61, "duration": 3, "velocity": 78}, {"time": 3389, "pitch": 69, "duration": 4, "velocity": 127}, {"time": 3392, "pitch": 64, "duration": 3, "velocity": 122}, {"time": 3395, "pitch": 61, "duration": 3, "velocity": 96}, {"time": 3398, "pitch": 69, "duration": 3, "velocity": 122}, {"time": 3401, "pitch": 44, "duration": 22, "velocity": 85}, {"time": 3404, "pitch": 51, "duration": 17, "velocity": 88}, {"time": 3407, "pitch": 56, "duration": 8, "velocity": 76}, {"time": 3410, "pitch": 59, "duration": 4, "velocity": 107}, {"time": 3413, "pitch": 66, "duration": 5, "velocity": 100}, {"time": 3416, "pitch": 63, "duration": 5, "velocity": 85}, {"time": 3419, "pitch": 59, "duration": 4, "velocity": 88}, {"time": 3422, "pitch": 56, "duration": 2, "velocity": 77}, {"time": 3425, "pitch": 42, "duration": 8, "velocity": 92}, {"time": 3428, "pitch": 54, "duration": 4, "velocity": 90}, {"time": 3431, "pitch": 57, "duration": 2, "velocity": 99}, {"time": 3431, "pitch": 61, "duration": 4, "velocity": 100}, {"time": 3437, "pitch": 47, "duration": 10, "velocity": 127}, {"time": 3440, "pitch": 54, "duration": 5, "velocity": 71}, {"time": 3443, "pitch": 63, "duration": 5, "velocity": 88}, {"time": 3446, "pitch": 59, "duration": 3, "velocity": 117}, {"time": 3449, "pitch": 47, "duration": 22, "velocity": 66}, {"time": 3455, "pitch": 52, "duration": 8, "velocity": 92}, {"time": 3458, "pitch": 56, "duration": 4, "velocity": 79}, {"time": 3461, "pitch": 64, "duration": 12, "velocity": 99}, {"time": 3464, "pitch": 52, "duration": 9, "velocity": 86}, {"time": 3467, "pitch": 59, "duration": 6, "velocity": 102}, {"time": 3470, "pitch": 56, "duration": 3, "velocity": 70}, {"time": 3473, "pitch": 40, "duration": 16, "velocity": 85}, {"time": 3476, "pitch": 47, "duration": 12, "velocity": 66}, {"time": 3479, "pitch": 52, "duration": 8, "velocity": 86}, {"time": 3482, "pitch": 64, "duration": 4, "velocity": 92}, {"time": 3485, "pitch": 71, "duration": 4, "velocity": 102}, {"time": 3488, "pitch": 64, "duration": 7, "velocity": 99}, {"time": 3491, "pitch": 68, "duration": 3, "velocity": 68}, {"time": 3494, "pitch": 71, "duration": 3, "velocity": 100}, {"time": 3497, "pitch": 39, "duration": 20, "velocity": 89}, {"time": 3503, "pitch": 44, "duration": 13, "velocity": 95}, {"time": 3503, "pitch": 63, "duration": 5, "velocity": 82}, {"time": 3506, "pitch": 68, "duration": 3, "velocity": 90}, {"time": 3509, "pitch": 71, "duration": 4, "velocity": 127}, {"time": 3512, "pitch": 68, "duration": 3, "velocity": 89}, {"time": 3515, "pitch": 63, "duration": 5, "velocity": 95}, {"time": 3518, "pitch": 71, "duration": 3, "velocity": 112}, {"time": 3521, "pitch": 37, "duration": 12, "velocity": 66}, {"time": 3527, "pitch": 44, "duration": 10, "velocity": 86}, {"time": 3527, "pitch": 49, "duration": 7, "velocity": 95}, {"time": 3530, "pitch": 61, "duration": 4, "velocity": 88}, {"time": 3533, "pitch": 68, "duration": 5, "velocity": 88}, {"time": 3536, "pitch": 64, "duration": 3, "velocity": 112}, {"time": 3539, "pitch": 61, "duration": 4, "velocity": 107}, {"time": 3542, "pitch": 68, "duration": 2, "velocity": 97}, {"time": 3545, "pitch": 47, "duration": 18, "velocity": 100}, {"time": 3548, "pitch": 51, "duration": 14, "velocity": 82}, {"time": 3551, "pitch": 54, "duration": 10, "velocity": 92}, {"time": 3554, "pitch": 59, "duration": 4, "velocity": 97}, {"time": 3557, "pitch": 63, "duration": 4, "velocity": 73}, {"time": 3560, "pitch": 66, "duration": 5, "velocity": 97}, {"time": 3563, "pitch": 63, "duration": 5, "velocity": 74}, {"time": 3566, "pitch": 59, "duration": 2, "velocity": 92}, {"time": 3569, "pitch": 45, "duration": 4, "velocity": 112}, {"time": 3572, "pitch": 49, "duration": 18, "velocity": 66}, {"time": 3575, "pitch": 45, "duration": 14, "velocity": 25}, {"time": 3575, "pitch": 52, "duration": 13, "velocity": 100}, {"time": 3578, "pitch": 61, "duration": 3, "velocity": 78}, {"time": 3581, "pitch": 69, "duration": 4, "velocity": 127}, {"time": 3584, "pitch": 64, "duration": 3, "velocity": 122}, {"time": 3587, "pitch": 61, "duration": 3, "velocity": 96}, {"time": 3590, "pitch": 69, "duration": 3, "velocity": 122}, {"time": 3593, "pitch": 44, "duration": 22, "velocity": 85}, {"time": 3596, "pitch": 51, "duration": 17, "velocity": 88}, {"time": 3599, "pitch": 56, "duration": 8, "velocity": 76}, {"time": 3602, "pitch": 59, "duration": 4, "velocity": 107}, {"time": 3605, "pitch": 66, "duration": 5, "velocity": 100}, {"time": 3608, "pitch": 63, "duration": 5, "velocity": 85}, {"time": 3611, "pitch": 59, "duration": 4, "velocity": 88}, {"time": 3614, "pitch": 56, "duration": 2, "velocity": 77}, {"time": 3617, "pitch": 42, "duration": 17, "velocity": 89}, {"time": 3620, "pitch": 49, "duration": 11, "velocity": 88}, {"time": 3623, "pitch": 54, "duration": 5, "velocity": 85}, {"time": 3626, "pitch": 57, "duration": 3, "velocity": 85}, {"time": 3629, "pitch": 61, "duration": 10, "velocity": 100}, {"time": 3632, "pitch": 49, "duration": 3, "velocity": 68}, {"time": 3635, "pitch": 57, "duration": 3, "velocity": 112}, {"time": 3638, "pitch": 54, "duration": 2, "velocity": 79}, {"time": 3641, "pitch": 45, "duration": 10, "velocity": 107}, {"time": 3647, "pitch": 57, "duration": 4, "velocity": 96}, {"time": 3650, "pitch": 64, "duration": 2, "velocity": 75}, {"time": 3653, "pitch": 47, "duration": 11, "velocity": 112}, {"time": 3659, "pitch": 59, "duration": 4, "velocity": 107}, {"time": 3662, "pitch": 63, "duration": 3, "velocity": 85}, {"time": 3665, "pitch": 40, "duration": 16, "velocity": 85}, {"time": 3668, "pitch": 47, "duration": 12, "velocity": 66}, {"time": 3671, "pitch": 52, "duration": 8, "velocity": 86}, {"time": 3674, "pitch": 64, "duration": 4, "velocity": 92}, {"time": 3677, "pitch": 71, "duration": 4, "velocity": 102}, {"time": 3680, "pitch": 64, "duration": 7, "velocity": 99}, {"time": 3683, "pitch": 68, "duration": 3, "velocity": 68}, {"time": 3686, "pitch": 71, "duration": 3, "velocity": 100}, {"time": 3689, "pitch": 39, "duration": 5, "velocity": 89}, {"time": 3692, "pitch": 44, "duration": 13, "velocity": 95}, {"time": 3695, "pitch": 63, "duration": 5, "velocity": 82}, {"time": 3698, "pitch": 68, "duration": 3, "velocity": 90}, {"time": 3701, "pitch": 71, "duration": 4, "velocity": 127}, {"time": 3704, "pitch": 68, "duration": 3, "velocity": 89}, {"time": 3707, "pitch": 63, "duration": 5, "velocity": 95}, {"time": 3710, "pitch": 71, "duration": 3, "velocity": 112}, {"time": 3713, "pitch": 37, "duration": 12, "velocity": 66}, {"time": 3716, "pitch": 44, "duration": 10, "velocity": 86}, {"time": 3719, "pitch": 49, "duration": 7, "velocity": 95}, {"time": 3722, "pitch": 61, "duration": 4, "velocity": 88}, {"time": 3725, "pitch": 68, "duration": 5, "velocity": 88}, {"time": 3728, "pitch": 64, "duration": 3, "velocity": 112}, {"time": 3731, "pitch": 61, "duration": 4, "velocity": 107}, {"time": 3734, "pitch": 68, "duration": 2, "velocity": 97}, {"time": 3737, "pitch": 47, "duration": 18, "velocity": 100}, {"time": 3740, "pitch": 51, "duration": 14, "velocity": 82}, {"time": 3743, "pitch": 54, "duration": 10, "velocity": 92}, {"time": 3746, "pitch": 59, "duration": 4, "velocity": 97}, {"time": 3749, "pitch": 63, "duration": 4, "velocity": 73}, {"time": 3752, "pitch": 66, "duration": 5, "velocity": 97}, {"time": 3755, "pitch": 63, "duration": 5, "velocity": 74}, {"time": 3758, "pitch": 59, "duration": 2, "velocity": 92}, {"time": 3761, "pitch": 45, "duration": 4, "velocity": 112}, {"time": 3764, "pitch": 49, "duration": 18, "velocity": 66}, {"time": 3767, "pitch": 45, "duration": 14, "velocity": 25}, {"time": 3767, "pitch": 52, "duration": 13, "velocity": 100}, {"time": 3770, "pitch": 61, "duration": 3, "velocity": 78}, {"time": 3773, "pitch": 69, "duration": 4, "velocity": 127}, {"time": 3776, "pitch": 64, "duration": 3, "velocity": 122}, {"time": 3779, "pitch": 61, "duration": 3, "velocity": 96}, {"time": 3782, "pitch": 69, "duration": 3, "velocity": 122}, {"time": 3785, "pitch": 44, "duration": 22, "velocity": 85}, {"time": 3788, "pitch": 51, "duration": 17, "velocity": 88}, {"time": 3791, "pitch": 56, "duration": 8, "velocity": 76}, {"time": 3794, "pitch": 59, "duration": 4, "velocity": 107}, {"time": 3797, "pitch": 66, "duration": 5, "velocity": 100}, {"time": 3800, "pitch": 63, "duration": 5, "velocity": 85}, {"time": 3803, "pitch": 59, "duration": 4, "velocity": 88}, {"time": 3806, "pitch": 56, "duration": 2, "velocity": 77}, {"time": 3809, "pitch": 42, "duration": 8, "velocity": 92}, {"time": 3812, "pitch": 54, "duration": 4, "velocity": 90}, {"time": 3815, "pitch": 57, "duration": 2, "velocity": 99}, {"time": 3815, "pitch": 61, "duration": 4, "velocity": 100}, {"time": 3821, "pitch": 47, "duration": 10, "velocity": 127}, {"time": 3824, "pitch": 54, "duration": 5, "velocity": 71}, {"time": 3827, "pitch": 63, "duration": 5, "velocity": 88}, {"time": 3830, "pitch": 59, "duration": 3, "velocity": 117}, {"time": 3833, "pitch": 47, "duration": 22, "velocity": 66}, {"time": 3839, "pitch": 52, "duration": 8, "velocity": 92}, {"time": 3842, "pitch": 56, "duration": 4, "velocity": 79}, {"time": 3845, "pitch": 64, "duration": 12, "velocity": 99}, {"time": 3848, "pitch": 52, "duration": 9, "velocity": 86}, {"time": 3851, "pitch": 59, "duration": 6, "velocity": 102}, {"time": 3854, "pitch": 56, "duration": 3, "velocity": 70}, {"time": 3857, "pitch": 52, "duration": 21, "velocity": 77}, {"time": 3863, "pitch": 59, "duration": 21, "velocity": 45}, {"time": 3869, "pitch": 64, "duration": 16, "velocity": 56}, {"time": 3881, "pitch": 51, "duration": 23, "velocity": 63}, {"time": 3887, "pitch": 63, "duration": 8, "velocity": 53}, {"time": 3893, "pitch": 64, "duration": 12, "velocity": 44}, {"time": 3905, "pitch": 49, "duration": 24, "velocity": 55}, {"time": 3911, "pitch": 61, "duration": 18, "velocity": 43}, {"time": 3917, "pitch": 68, "duration": 13, "velocity": 45}, {"time": 3929, "pitch": 47, "duration": 23, "velocity": 63}, {"time": 3935, "pitch": 59, "duration": 9, "velocity": 50}, {"time": 3941, "pitch": 68, "duration": 11, "velocity": 62}, {"time": 3953, "pitch": 45, "duration": 24, "velocity": 65}, {"time": 3959, "pitch": 57, "duration": 7, "velocity": 48}, {"time": 3965, "pitch": 64, "duration": 12, "velocity": 69}, {"time": 3977, "pitch": 44, "duration": 25, "velocity": 59}, {"time": 3983, "pitch": 56, "duration": 7, "velocity": 43}, {"time": 3989, "pitch": 64, "duration": 11, "velocity": 59}, {"time": 4001, "pitch": 42, "duration": 19, "velocity": 58}, {"time": 4007, "pitch": 54, "duration": 17, "velocity": 37}, {"time": 4025, "pitch": 47, "duration": 15, "velocity": 70}, {"time": 4031, "pitch": 59, "duration": 22, "velocity": 55}, {"time": 4037, "pitch": 66, "duration": 13, "velocity": 74}, {"time": 4049, "pitch": 52, "duration": 21, "velocity": 63}, {"time": 4055, "pitch": 59, "duration": 10, "velocity": 53}, {"time": 4061, "pitch": 64, "duration": 9, "velocity": 68}, {"time": 4067, "pitch": 59, "duration": 13, "velocity": 58}, {"time": 4073, "pitch": 51, "duration": 24, "velocity": 50}, {"time": 4079, "pitch": 63, "duration": 7, "velocity": 58}, {"time": 4085, "pitch": 64, "duration": 12, "velocity": 57}, {"time": 4097, "pitch": 49, "duration": 24, "velocity": 66}, {"time": 4103, "pitch": 61, "duration": 9, "velocity": 50}, {"time": 4109, "pitch": 68, "duration": 12, "velocity": 58}, {"time": 4115, "pitch": 61, "duration": 7, "velocity": 47}, {"time": 4121, "pitch": 47, "duration": 24, "velocity": 56}, {"time": 4127, "pitch": 59, "duration": 7, "velocity": 50}, {"time": 4133, "pitch": 66, "duration": 12, "velocity": 68}, {"time": 4139, "pitch": 59, "duration": 7, "velocity": 48}, {"time": 4145, "pitch": 45, "duration": 18, "velocity": 48}, {"time": 4151, "pitch": 57, "duration": 8, "velocity": 53}, {"time": 4157, "pitch": 64, "duration": 12, "velocity": 71}, {"time": 4169, "pitch": 44, "duration": 24, "velocity": 58}, {"time": 4175, "pitch": 56, "duration": 7, "velocity": 54}, {"time": 4181, "pitch": 64, "duration": 11, "velocity": 50}, {"time": 4193, "pitch": 42, "duration": 13, "velocity": 75}, {"time": 4199, "pitch": 54, "duration": 11, "velocity": 42}, {"time": 4205, "pitch": 61, "duration": 15, "velocity": 50}, {"time": 4217, "pitch": 47, "duration": 17, "velocity": 42}, {"time": 4223, "pitch": 54, "duration": 8, "velocity": 43}, {"time": 4229, "pitch": 66, "duration": 9, "velocity": 57}, {"time": 4241, "pitch": 40, "duration": 60, "velocity": 35}, {"time": 4241, "pitch": 52, "duration": 60, "velocity": 36}, {"time": 4241, "pitch": 59, "duration": 60, "velocity": 42}, {"time": 4241, "pitch": 64, "duration": 60, "velocity": 52}, {"time": 4241, "pitch": 68, "duration": 60, "velocity": 51}], "annotations": [{"time": 209, "annotation": {"number": 64, "value": 127}, "group": "control_change"}, {"time": 281, "annotation": {"number": 64, "value": 0}, "group": "control_change"}, {"time": 286, "annotation": {"number": 64, "value": 127}, "group": "control_change"}, {"time": 301, "annotation": {"number": 64, "value": 0}, "group": "control_change"}, {"time": 306, "annotation": {"number": 64, "value": 127}, "group": "control_change"}, {"time": 326, "annotation": {"number": 64, "value": 0}, "group": "control_change"}, {"time": 330, "annotation": {"number": 64, "value": 127}, "group": "control_change"}, {"time": 351, "annotation": {"number": 64, "value": 0}, "group": "control_change"}, {"time": 354, "annotation": {"number": 64, "value": 127}, "group": "control_change"}, {"time": 373, "annotation": {"number": 64, "value": 0}, "group": "control_change"}, {"time": 377, "annotation": {"number": 64, "value": 127}, "group": "control_change"}, {"time": 398, "annotation": {"number": 64, "value": 0}, "group": "control_change"}, {"time": 401, "annotation": {"number": 64, "value": 127}, "group": "control_change"}, {"time": 422, "annotation": {"number": 64, "value": 0}, "group": "control_change"}, {"time": 426, "annotation": {"number": 64, "value": 127}, "group": "control_change"}, {"time": 446, "annotation": {"number": 64, "value": 0}, "group": "control_change"}, {"time": 450, "annotation": {"number": 64, "value": 127}, "group": "control_change"}, {"time": 471, "annotation": {"number": 64, "value": 0}, "group": "control_change"}, {"time": 474, "annotation": {"number": 64, "value": 127}, "group": "control_change"}, {"time": 518, "annotation": {"number": 64, "value": 0}, "group": "control_change"}, {"time": 522, "annotation": {"number": 64, "value": 127}, "group": "control_change"}, {"time": 542, "annotation": {"number": 64, "value": 0}, "group": "control_change"}, {"time": 546, "annotation": {"number": 64, "value": 127}, "group": "control_change"}, {"time": 566, "annotation": {"number": 64, "value": 0}, "group": "control_change"}, {"time": 569, "annotation": {"number": 64, "value": 127}, "group": "control_change"}, {"time": 573, "annotation": {"number": 64, "value": 0}, "group": "control_change"}, {"time": 593, "annotation": {"number": 64, "value": 127}, "group": "control_change"}, {"time": 614, "annotation": {"number": 64, "value": 0}, "group": "control_change"}, {"time": 618, "annotation": {"number": 64, "value": 127}, "group": "control_change"}, {"time": 638, "annotation": {"number": 64, "value": 0}, "group": "control_change"}, {"time": 642, "annotation": {"number": 64, "value": 127}, "group": "control_change"}, {"time": 663, "annotation": {"number": 64, "value": 0}, "group": "control_change"}, {"time": 666, "annotation": {"number": 64, "value": 127}, "group": "control_change"}, {"time": 710, "annotation": {"number": 64, "value": 0}, "group": "control_change"}, {"time": 714, "annotation": {"number": 64, "value": 127}, "group": "control_change"}, {"time": 734, "annotation": {"number": 64, "value": 0}, "group": "control_change"}, {"time": 737, "annotation": {"number": 64, "value": 127}, "group": "control_change"}, {"time": 741, "annotation": {"number": 64, "value": 0}, "group": "control_change"}, {"time": 774, "annotation": {"number": 64, "value": 127}, "group": "control_change"}, {"time": 778, "annotation": {"number": 64, "value": 0}, "group": "control_change"}, {"time": 785, "annotation": {"number": 64, "value": 127}, "group": "control_change"}, {"time": 806, "annotation": {"number": 64, "value": 0}, "group": "control_change"}, {"time": 810, "annotation": {"number": 64, "value": 127}, "group": "control_change"}, {"time": 830, "annotation": {"number": 64, "value": 0}, "group": "control_change"}, {"time": 834, "annotation": {"number": 64, "value": 127}, "group": "control_change"}, {"time": 855, "annotation": {"number": 64, "value": 0}, "group": "control_change"}, {"time": 858, "annotation": {"number": 64, "value": 127}, "group": "control_change"}, {"time": 902, "annotation": {"number": 64, "value": 0}, "group": "control_change"}, {"time": 906, "annotation": {"number": 64, "value": 127}, "group": "control_change"}, {"time": 926, "annotation": {"number": 64, "value": 0}, "group": "control_change"}, {"time": 930, "annotation": {"number": 64, "value": 127}, "group": "control_change"}, {"time": 950, "annotation": {"number": 64, "value": 0}, "group": "control_change"}, {"time": 953, "annotation": {"number": 64, "value": 127}, "group": "control_change"}, {"time": 957, "annotation": {"number": 64, "value": 0}, "group": "control_change"}, {"time": 977, "annotation": {"number": 64, "value": 127}, "group": "control_change"}, {"time": 998, "annotation": {"number": 64, "value": 0}, "group": "control_change"}, {"time": 1002, "annotation": {"number": 64, "value": 127}, "group": "control_change"}, {"time": 1022, "annotation": {"number": 64, "value": 0}, "group": "control_change"}, {"time": 1026, "annotation": {"number": 64, "value": 127}, "group": "control_change"}, {"time": 1047, "annotation": {"number": 64, "value": 0}, "group": "control_change"}, {"time": 1050, "annotation": {"number": 64, "value": 127}, "group": "control_change"}, {"time": 1094, "annotation": {"number": 64, "value": 0}, "group": "control_change"}, {"time": 1098, "annotation": {"number": 64, "value": 127}, "group": "control_change"}, {"time": 1118, "annotation": {"number": 64, "value": 0}, "group": "control_change"}, {"time": 1124, "annotation": {"number": 64, "value": 127}, "group": "control_change"}, {"time": 1141, "annotation": {"number": 64, "value": 0}, "group": "control_change"}, {"time": 1145, "annotation": {"number": 64, "value": 127}, "group": "control_change"}, {"time": 1155, "annotation": {"number": 64, "value": 0}, "group": "control_change"}, {"time": 1170, "annotation": {"number": 64, "value": 127}, "group": "control_change"}, {"time": 1189, "annotation": {"number": 64, "value": 0}, "group": "control_change"}, {"time": 1194, "annotation": {"number": 64, "value": 127}, "group": "control_change"}, {"time": 1201, "annotation": {"number": 64, "value": 0}, "group": "control_change"}, {"time": 1205, "annotation": {"number": 64, "value": 127}, "group": "control_change"}, {"time": 1213, "annotation": {"number": 64, "value": 0}, "group": "control_change"}, {"time": 1229, "annotation": {"number": 64, "value": 127}, "group": "control_change"}, {"time": 1234, "annotation": {"number": 64, "value": 0}, "group": "control_change"}, {"time": 1242, "annotation": {"number": 64, "value": 127}, "group": "control_change"}, {"time": 1249, "annotation": {"number": 64, "value": 0}, "group": "control_change"}, {"time": 1253, "annotation": {"number": 64, "value": 127}, "group": "control_change"}, {"time": 1260, "annotation": {"number": 64, "value": 0}, "group": "control_change"}, {"time": 1265, "annotation": {"number": 64, "value": 127}, "group": "control_change"}, {"time": 1269, "annotation": {"number": 64, "value": 0}, "group": "control_change"}, {"time": 1278, "annotation": {"number": 64, "value": 127}, "group": "control_change"}, {"time": 1285, "annotation": {"number": 64, "value": 0}, "group": "control_change"}, {"time": 1289, "annotation": {"number": 64, "value": 127}, "group": "control_change"}, {"time": 1300, "annotation": {"number": 64, "value": 0}, "group": "control_change"}, {"time": 1301, "annotation": {"number": 64, "value": 127}, "group": "control_change"}, {"time": 1309, "annotation": {"number": 64, "value": 0}, "group": "control_change"}, {"time": 1313, "annotation": {"number": 64, "value": 127}, "group": "control_change"}, {"time": 1334, "annotation": {"number": 64, "value": 0}, "group": "control_change"}, {"time": 1338, "annotation": {"number": 64, "value": 127}, "group": "control_change"}, {"time": 1358, "annotation": {"number": 64, "value": 0}, "group": "control_change"}, {"time": 1361, "annotation": {"number": 64, "value": 127}, "group": "control_change"}, {"time": 1383, "annotation": {"number": 64, "value": 0}, "group": "control_change"}, {"time": 1386, "annotation": {"number": 64, "value": 127}, "group": "control_change"}, {"time": 1407, "annotation": {"number": 64, "value": 0}, "group": "control_change"}, {"time": 1410, "annotation": {"number": 64, "value": 127}, "group": "control_change"}, {"time": 1430, "annotation": {"number": 64, "value": 0}, "group": "control_change"}, {"time": 1434, "annotation": {"number": 64, "value": 127}, "group": "control_change"}, {"time": 1453, "annotation": {"number": 64, "value": 0}, "group": "control_change"}, {"time": 1458, "annotation": {"number": 64, "value": 127}, "group": "control_change"}, {"time": 1477, "annotation": {"number": 64, "value": 0}, "group": "control_change"}, {"time": 1482, "annotation": {"number": 64, "value": 127}, "group": "control_change"}, {"time": 1502, "annotation": {"number": 64, "value": 0}, "group": "control_change"}, {"time": 1506, "annotation": {"number": 64, "value": 127}, "group": "control_change"}, {"time": 1526, "annotation": {"number": 64, "value": 0}, "group": "control_change"}, {"time": 1554, "annotation": {"number": 64, "value": 127}, "group": "control_change"}, {"time": 1575, "annotation": {"number": 64, "value": 0}, "group": "control_change"}, {"time": 1578, "annotation": {"number": 64, "value": 127}, "group": "control_change"}, {"time": 1599, "annotation": {"number": 64, "value": 0}, "group": "control_change"}, {"time": 1602, "annotation": {"number": 64, "value": 127}, "group": "control_change"}, {"time": 1623, "annotation": {"number": 64, "value": 0}, "group": "control_change"}, {"time": 1626, "annotation": {"number": 64, "value": 127}, "group": "control_change"}, {"time": 1647, "annotation": {"number": 64, "value": 0}, "group": "control_change"}, {"time": 1650, "annotation": {"number": 64, "value": 127}, "group": "control_change"}, {"time": 1671, "annotation": {"number": 64, "value": 0}, "group": "control_change"}, {"time": 1746, "annotation": {"number": 64, "value": 127}, "group": "control_change"}, {"time": 1767, "annotation": {"number": 64, "value": 0}, "group": "control_change"}, {"time": 1770, "annotation": {"number": 64, "value": 127}, "group": "control_change"}, {"time": 1791, "annotation": {"number": 64, "value": 0}, "group": "control_change"}, {"time": 1794, "annotation": {"number": 64, "value": 127}, "group": "control_change"}, {"time": 1815, "annotation": {"number": 64, "value": 0}, "group": "control_change"}, {"time": 1818, "annotation": {"number": 64, "value": 127}, "group": "control_change"}, {"time": 1839, "annotation": {"number": 64, "value": 0}, "group": "control_change"}, {"time": 1842, "annotation": {"number": 64, "value": 127}, "group": "control_change"}, {"time": 1863, "annotation": {"number": 64, "value": 0}, "group": "control_change"}, {"time": 1890, "annotation": {"number": 64, "value": 127}, "group": "control_change"}, {"time": 1894, "annotation": {"number": 64, "value": 0}, "group": "control_change"}, {"time": 1913, "annotation": {"number": 64, "value": 127}, "group": "control_change"}, {"time": 1935, "annotation": {"number": 64, "value": 0}, "group": "control_change"}, {"time": 1937, "annotation": {"number": 64, "value": 127}, "group": "control_change"}, {"time": 1958, "annotation": {"number": 64, "value": 0}, "group": "control_change"}, {"time": 1962, "annotation": {"number": 64, "value": 127}, "group": "control_change"}, {"time": 1982, "annotation": {"number": 64, "value": 0}, "group": "control_change"}, {"time": 1986, "annotation": {"number": 64, "value": 127}, "group": "control_change"}, {"time": 2007, "annotation": {"number": 64, "value": 0}, "group": "control_change"}, {"time": 2010, "annotation": {"number": 64, "value": 127}, "group": "control_change"}, {"time": 2054, "annotation": {"number": 64, "value": 0}, "group": "control_change"}, {"time": 2058, "annotation": {"number": 64, "value": 127}, "group": "control_change"}, {"time": 2078, "annotation": {"number": 64, "value": 0}, "group": "control_change"}, {"time": 2082, "annotation": {"number": 64, "value": 127}, "group": "control_change"}, {"time": 2102, "annotation": {"number": 64, "value": 0}, "group": "control_change"}, {"time": 2105, "annotation": {"number": 64, "value": 127}, "group": "control_change"}, {"time": 2109, "annotation": {"number": 64, "value": 0}, "group": "control_change"}, {"time": 2129, "annotation": {"number": 64, "value": 127}, "group": "control_change"}, {"time": 2150, "annotation": {"number": 64, "value": 0}, "group": "control_change"}, {"time": 2154, "annotation": {"number": 64, "value": 127}, "group": "control_change"}, {"time": 2174, "annotation": {"number": 64, "value": 0}, "group": "control_change"}, {"time": 2178, "annotation": {"number": 64, "value": 127}, "group": "control_change"}, {"time": 2199, "annotation": {"number": 64, "value": 0}, "group": "control_change"}, {"time": 2202, "annotation": {"number": 64, "value": 127}, "group": "control_change"}, {"time": 2246, "annotation": {"number": 64, "value": 0}, "group": "control_change"}, {"time": 2250, "annotation": {"number": 64, "value": 127}, "group": "control_change"}, {"time": 2270, "annotation": {"number": 64, "value": 0}, "group": "control_change"}, {"time": 2276, "annotation": {"number": 64, "value": 127}, "group": "control_change"}, {"time": 2293, "annotation": {"number": 64, "value": 0}, "group": "control_change"}, {"time": 2297, "annotation": {"number": 64, "value": 127}, "group": "control_change"}, {"time": 2307, "annotation": {"number": 64, "value": 0}, "group": "control_change"}, {"time": 2322, "annotation": {"number": 64, "value": 127}, "group": "control_change"}, {"time": 2341, "annotation": {"number": 64, "value": 0}, "group": "control_change"}, {"time": 2346, "annotation": {"number": 64, "value": 127}, "group": "control_change"}, {"time": 2353, "annotation": {"number": 64, "value": 0}, "group": "control_change"}, {"time": 2357, "annotation": {"number": 64, "value": 127}, "group": "control_change"}, {"time": 2365, "annotation": {"number": 64, "value": 0}, "group": "control_change"}, {"time": 2381, "annotation": {"number": 64, "value": 127}, "group": "control_change"}, {"time": 2386, "annotation": {"number": 64, "value": 0}, "group": "control_change"}, {"time": 2394, "annotation": {"number": 64, "value": 127}, "group": "control_change"}, {"time": 2401, "annotation": {"number": 64, "value": 0}, "group": "control_change"}, {"time": 2405, "annotation": {"number": 64, "value": 127}, "group": "control_change"}, {"time": 2412, "annotation": {"number": 64, "value": 0}, "group": "control_change"}, {"time": 2417, "annotation": {"number": 64, "value": 127}, "group": "control_change"}, {"time": 2421, "annotation": {"number": 64, "value": 0}, "group": "control_change"}, {"time": 2430, "annotation": {"number": 64, "value": 127}, "group": "control_change"}, {"time": 2437, "annotation": {"number": 64, "value": 0}, "group": "control_change"}, {"time": 2441, "annotation": {"number": 64, "value": 127}, "group": "control_change"}, {"time": 2452, "annotation": {"number": 64, "value": 0}, "group": "control_change"}, {"time": 2453, "annotation": {"number": 64, "value": 127}, "group": "control_change"}, {"time": 2461, "annotation": {"number": 64, "value": 0}, "group": "control_change"}, {"time": 2465, "annotation": {"number": 64, "value": 127}, "group": "control_change"}, {"time": 2486, "annotation": {"number": 64, "value": 0}, "group": "control_change"}, {"time": 2490, "annotation": {"number": 64, "value": 127}, "group": "control_change"}, {"time": 2510, "annotation": {"number": 64, "value": 0}, "group": "control_change"}, {"time": 2513, "annotation": {"number": 64, "value": 127}, "group": "control_change"}, {"time": 2535, "annotation": {"number": 64, "value": 0}, "group": "control_change"}, {"time": 2538, "annotation": {"number": 64, "value": 127}, "group": "control_change"}, {"time": 2559, "annotation": {"number": 64, "value": 0}, "group": "control_change"}, {"time": 2562, "annotation": {"number": 64, "value": 127}, "group": "control_change"}, {"time": 2582, "annotation": {"number": 64, "value": 0}, "group": "control_change"}, {"time": 2586, "annotation": {"number": 64, "value": 127}, "group": "control_change"}, {"time": 2605, "annotation": {"number": 64, "value": 0}, "group": "control_change"}, {"time": 2610, "annotation": {"number": 64, "value": 127}, "group": "control_change"}, {"time": 2629, "annotation": {"number": 64, "value": 0}, "group": "control_change"}, {"time": 2634, "annotation": {"number": 64, "value": 127}, "group": "control_change"}, {"time": 2654, "annotation": {"number": 64, "value": 0}, "group": "control_change"}, {"time": 2658, "annotation": {"number": 64, "value": 127}, "group": "control_change"}, {"time": 2678, "annotation": {"number": 64, "value": 0}, "group": "control_change"}, {"time": 2706, "annotation": {"number": 64, "value": 127}, "group": "control_change"}, {"time": 2727, "annotation": {"number": 64, "value": 0}, "group": "control_change"}, {"time": 2730, "annotation": {"number": 64, "value": 127}, "group": "control_change"}, {"time": 2751, "annotation": {"number": 64, "value": 0}, "group": "control_change"}, {"time": 2754, "annotation": {"number": 64, "value": 127}, "group": "control_change"}, {"time": 2775, "annotation": {"number": 64, "value": 0}, "group": "control_change"}, {"time": 2778, "annotation": {"number": 64, "value": 127}, "group": "control_change"}, {"time": 2799, "annotation": {"number": 64, "value": 0}, "group": "control_change"}, {"time": 2802, "annotation": {"number": 64, "value": 127}, "group": "control_change"}, {"time": 2823, "annotation": {"number": 64, "value": 0}, "group": "control_change"}, {"time": 2898, "annotation": {"number": 64, "value": 127}, "group": "control_change"}, {"time": 2919, "annotation": {"number": 64, "value": 0}, "group": "control_change"}, {"time": 2922, "annotation": {"number": 64, "value": 127}, "group": "control_change"}, {"time": 2943, "annotation": {"number": 64, "value": 0}, "group": "control_change"}, {"time": 2946, "annotation": {"number": 64, "value": 127}, "group": "control_change"}, {"time": 2967, "annotation": {"number": 64, "value": 0}, "group": "control_change"}, {"time": 2970, "annotation": {"number": 64, "value": 127}, "group": "control_change"}, {"time": 2991, "annotation": {"number": 64, "value": 0}, "group": "control_change"}, {"time": 2994, "annotation": {"number": 64, "value": 127}, "group": "control_change"}, {"time": 3015, "annotation": {"number": 64, "value": 0}, "group": "control_change"}, {"time": 3042, "annotation": {"number": 64, "value": 127}, "group": "control_change"}, {"time": 3046, "annotation": {"number": 64, "value": 0}, "group": "control_change"}, {"time": 3065, "annotation": {"number": 64, "value": 127}, "group": "control_change"}, {"time": 3090, "annotation": {"number": 64, "value": 127}, "group": "control_change"}, {"time": 3111, "annotation": {"number": 64, "value": 0}, "group": "control_change"}, {"time": 3114, "annotation": {"number": 64, "value": 127}, "group": "control_change"}, {"time": 3135, "annotation": {"number": 64, "value": 0}, "group": "control_change"}, {"time": 3138, "annotation": {"number": 64, "value": 127}, "group": "control_change"}, {"time": 3159, "annotation": {"number": 64, "value": 0}, "group": "control_change"}, {"time": 3162, "annotation": {"number": 64, "value": 127}, "group": "control_change"}, {"time": 3183, "annotation": {"number": 64, "value": 0}, "group": "control_change"}, {"time": 3186, "annotation": {"number": 64, "value": 127}, "group": "control_change"}, {"time": 3207, "annotation": {"number": 64, "value": 0}, "group": "control_change"}, {"time": 3282, "annotation": {"number": 64, "value": 127}, "group": "control_change"}, {"time": 3303, "annotation": {"number": 64, "value": 0}, "group": "control_change"}, {"time": 3306, "annotation": {"number": 64, "value": 127}, "group": "control_change"}, {"time": 3327, "annotation": {"number": 64, "value": 0}, "group": "control_change"}, {"time": 3330, "annotation": {"number": 64, "value": 127}, "group": "control_change"}, {"time": 3351, "annotation": {"number": 64, "value": 0}, "group": "control_change"}, {"time": 3354, "annotation": {"number": 64, "value": 127}, "group": "control_change"}, {"time": 3375, "annotation": {"number": 64, "value": 0}, "group": "control_change"}, {"time": 3378, "annotation": {"number": 64, "value": 127}, "group": "control_change"}, {"time": 3399, "annotation": {"number": 64, "value": 0}, "group": "control_change"}, {"time": 3426, "annotation": {"number": 64, "value": 127}, "group": "control_change"}, {"time": 3430, "annotation": {"number": 64, "value": 0}, "group": "control_change"}, {"time": 3449, "annotation": {"number": 64, "value": 127}, "group": "control_change"}, {"time": 3471, "annotation": {"number": 64, "value": 0}, "group": "control_change"}, {"time": 3474, "annotation": {"number": 64, "value": 127}, "group": "control_change"}, {"time": 3495, "annotation": {"number": 64, "value": 0}, "group": "control_change"}, {"time": 3498, "annotation": {"number": 64, "value": 127}, "group": "control_change"}, {"time": 3519, "annotation": {"number": 64, "value": 0}, "group": "control_change"}, {"time": 3522, "annotation": {"number": 64, "value": 127}, "group": "control_change"}, {"time": 3543, "annotation": {"number": 64, "value": 0}, "group": "control_change"}, {"time": 3546, "annotation": {"number": 64, "value": 127}, "group": "control_change"}, {"time": 3567, "annotation": {"number": 64, "value": 0}, "group": "control_change"}, {"time": 3570, "annotation": {"number": 64, "value": 127}, "group": "control_change"}, {"time": 3591, "annotation": {"number": 64, "value": 0}, "group": "control_change"}, {"time": 3666, "annotation": {"number": 64, "value": 127}, "group": "control_change"}, {"time": 3687, "annotation": {"number": 64, "value": 0}, "group": "control_change"}, {"time": 3690, "annotation": {"number": 64, "value": 127}, "group": "control_change"}, {"time": 3711, "annotation": {"number": 64, "value": 0}, "group": "control_change"}, {"time": 3714, "annotation": {"number": 64, "value": 127}, "group": "control_change"}, {"time": 3735, "annotation": {"number": 64, "value": 0}, "group": "control_change"}, {"time": 3738, "annotation": {"number": 64, "value": 127}, "group": "control_change"}, {"time": 3759, "annotation": {"number": 64, "value": 0}, "group": "control_change"}, {"time": 3762, "annotation": {"number": 64, "value": 127}, "group": "control_change"}, {"time": 3783, "annotation": {"number": 64, "value": 0}, "group": "control_change"}, {"time": 3810, "annotation": {"number": 64, "value": 127}, "group": "control_change"}, {"time": 3814, "annotation": {"number": 64, "value": 0}, "group": "control_change"}, {"time": 3833, "annotation": {"number": 64, "value": 127}, "group": "control_change"}, {"time": 3855, "annotation": {"number": 64, "value": 0}, "group": "control_change"}, {"time": 4154, "annotation": {"number": 64, "value": 127}, "group": "control_change"}, {"time": 4168, "annotation": {"number": 64, "value": 0}, "group": "control_change"}, {"time": 4219, "annotation": {"number": 64, "value": 127}, "group": "control_change"}, {"time": 4239, "annotation": {"number": 64, "value": 0}, "group": "control_change"}]}]}