{"metadata": {"schema_version": "0.2", "title": "None", "source_filename": "395.mid", "source_format": "midi"}, "resolution": 12, "tempos": [{"time": 0, "qpm": 70.00007000007}], "time_signatures": [{"time": 0, "numerator": 1, "denominator": 4}], "tracks": [{"program": 4, "is_drum": false, "name": "MELODY", "notes": [{"time": 230, "pitch": 72, "duration": 4, "velocity": 100}, {"time": 236, "pitch": 72, "duration": 2, "velocity": 101}, {"time": 239, "pitch": 72, "duration": 1, "velocity": 103}, {"time": 242, "pitch": 72, "duration": 4, "velocity": 98}, {"time": 248, "pitch": 67, "duration": 5, "velocity": 100}, {"time": 254, "pitch": 70, "duration": 16, "velocity": 101}, {"time": 278, "pitch": 72, "duration": 3, "velocity": 98}, {"time": 284, "pitch": 72, "duration": 1, "velocity": 101}, {"time": 287, "pitch": 72, "duration": 1, "velocity": 99}, {"time": 290, "pitch": 72, "duration": 4, "velocity": 94}, {"time": 296, "pitch": 67, "duration": 4, "velocity": 100}, {"time": 302, "pitch": 63, "duration": 13, "velocity": 105}, {"time": 326, "pitch": 65, "duration": 3, "velocity": 108}, {"time": 332, "pitch": 65, "duration": 1, "velocity": 95}, {"time": 335, "pitch": 65, "duration": 7, "velocity": 103}, {"time": 344, "pitch": 67, "duration": 4, "velocity": 98}, {"time": 350, "pitch": 70, "duration": 4, "velocity": 98}, {"time": 356, "pitch": 70, "duration": 1, "velocity": 96}, {"time": 359, "pitch": 70, "duration": 8, "velocity": 98}, {"time": 368, "pitch": 67, "duration": 3, "velocity": 94}, {"time": 371, "pitch": 70, "duration": 3, "velocity": 99}, {"time": 374, "pitch": 72, "duration": 6, "velocity": 96}, {"time": 380, "pitch": 72, "duration": 1, "velocity": 94}, {"time": 383, "pitch": 72, "duration": 1, "velocity": 98}, {"time": 386, "pitch": 72, "duration": 5, "velocity": 98}, {"time": 392, "pitch": 70, "duration": 5, "velocity": 105}, {"time": 398, "pitch": 67, "duration": 19, "velocity": 101}, {"time": 422, "pitch": 72, "duration": 4, "velocity": 100}, {"time": 428, "pitch": 72, "duration": 1, "velocity": 97}, {"time": 431, "pitch": 72, "duration": 1, "velocity": 98}, {"time": 434, "pitch": 72, "duration": 5, "velocity": 103}, {"time": 440, "pitch": 67, "duration": 4, "velocity": 96}, {"time": 446, "pitch": 70, "duration": 17, "velocity": 94}, {"time": 470, "pitch": 72, "duration": 3, "velocity": 98}, {"time": 476, "pitch": 72, "duration": 2, "velocity": 96}, {"time": 479, "pitch": 72, "duration": 1, "velocity": 95}, {"time": 482, "pitch": 72, "duration": 4, "velocity": 100}, {"time": 488, "pitch": 67, "duration": 4, "velocity": 98}, {"time": 494, "pitch": 63, "duration": 21, "velocity": 84}, {"time": 518, "pitch": 65, "duration": 4, "velocity": 105}, {"time": 524, "pitch": 65, "duration": 2, "velocity": 96}, {"time": 527, "pitch": 65, "duration": 4, "velocity": 101}, {"time": 533, "pitch": 65, "duration": 1, "velocity": 101}, {"time": 536, "pitch": 65, "duration": 1, "velocity": 97}, {"time": 539, "pitch": 67, "duration": 1, "velocity": 95}, {"time": 542, "pitch": 70, "duration": 4, "velocity": 98}, {"time": 548, "pitch": 67, "duration": 3, "velocity": 90}, {"time": 551, "pitch": 70, "duration": 3, "velocity": 93}, {"time": 554, "pitch": 63, "duration": 9, "velocity": 101}, {"time": 566, "pitch": 60, "duration": 41, "velocity": 103}, {"time": 614, "pitch": 72, "duration": 4, "velocity": 100}, {"time": 620, "pitch": 72, "duration": 2, "velocity": 101}, {"time": 623, "pitch": 72, "duration": 1, "velocity": 103}, {"time": 626, "pitch": 72, "duration": 4, "velocity": 98}, {"time": 632, "pitch": 67, "duration": 5, "velocity": 100}, {"time": 638, "pitch": 70, "duration": 16, "velocity": 101}, {"time": 662, "pitch": 72, "duration": 3, "velocity": 98}, {"time": 668, "pitch": 72, "duration": 1, "velocity": 101}, {"time": 671, "pitch": 72, "duration": 1, "velocity": 99}, {"time": 674, "pitch": 72, "duration": 4, "velocity": 94}, {"time": 680, "pitch": 67, "duration": 4, "velocity": 100}, {"time": 686, "pitch": 63, "duration": 13, "velocity": 105}, {"time": 710, "pitch": 65, "duration": 3, "velocity": 108}, {"time": 716, "pitch": 65, "duration": 1, "velocity": 95}, {"time": 719, "pitch": 65, "duration": 7, "velocity": 103}, {"time": 728, "pitch": 67, "duration": 4, "velocity": 98}, {"time": 734, "pitch": 70, "duration": 4, "velocity": 98}, {"time": 740, "pitch": 70, "duration": 1, "velocity": 96}, {"time": 743, "pitch": 70, "duration": 8, "velocity": 98}, {"time": 752, "pitch": 67, "duration": 3, "velocity": 94}, {"time": 755, "pitch": 70, "duration": 3, "velocity": 99}, {"time": 758, "pitch": 72, "duration": 6, "velocity": 96}, {"time": 764, "pitch": 72, "duration": 1, "velocity": 94}, {"time": 767, "pitch": 72, "duration": 1, "velocity": 98}, {"time": 770, "pitch": 72, "duration": 5, "velocity": 98}, {"time": 776, "pitch": 70, "duration": 5, "velocity": 105}, {"time": 782, "pitch": 67, "duration": 19, "velocity": 101}, {"time": 806, "pitch": 72, "duration": 4, "velocity": 100}, {"time": 812, "pitch": 72, "duration": 1, "velocity": 97}, {"time": 815, "pitch": 72, "duration": 1, "velocity": 98}, {"time": 818, "pitch": 72, "duration": 5, "velocity": 103}, {"time": 824, "pitch": 67, "duration": 4, "velocity": 96}, {"time": 830, "pitch": 70, "duration": 17, "velocity": 94}, {"time": 854, "pitch": 72, "duration": 3, "velocity": 98}, {"time": 860, "pitch": 72, "duration": 2, "velocity": 96}, {"time": 863, "pitch": 72, "duration": 1, "velocity": 95}, {"time": 866, "pitch": 72, "duration": 4, "velocity": 100}, {"time": 872, "pitch": 67, "duration": 4, "velocity": 98}, {"time": 878, "pitch": 63, "duration": 21, "velocity": 84}, {"time": 902, "pitch": 65, "duration": 4, "velocity": 105}, {"time": 908, "pitch": 65, "duration": 2, "velocity": 96}, {"time": 911, "pitch": 65, "duration": 4, "velocity": 101}, {"time": 917, "pitch": 65, "duration": 1, "velocity": 101}, {"time": 920, "pitch": 65, "duration": 1, "velocity": 97}, {"time": 923, "pitch": 67, "duration": 1, "velocity": 95}, {"time": 926, "pitch": 70, "duration": 4, "velocity": 98}, {"time": 935, "pitch": 67, "duration": 3, "velocity": 90}, {"time": 938, "pitch": 70, "duration": 3, "velocity": 93}, {"time": 944, "pitch": 75, "duration": 3, "velocity": 100}, {"time": 947, "pitch": 74, "duration": 3, "velocity": 108}, {"time": 950, "pitch": 72, "duration": 2, "velocity": 100}, {"time": 953, "pitch": 74, "duration": 2, "velocity": 105}, {"time": 956, "pitch": 72, "duration": 38, "velocity": 101}, {"time": 1046, "pitch": 79, "duration": 6, "velocity": 101}, {"time": 1055, "pitch": 79, "duration": 1, "velocity": 98}, {"time": 1058, "pitch": 79, "duration": 1, "velocity": 101}, {"time": 1061, "pitch": 79, "duration": 1, "velocity": 95}, {"time": 1064, "pitch": 79, "duration": 1, "velocity": 99}, {"time": 1067, "pitch": 79, "duration": 1, "velocity": 98}, {"time": 1070, "pitch": 77, "duration": 4, "velocity": 103}, {"time": 1076, "pitch": 79, "duration": 1, "velocity": 101}, {"time": 1079, "pitch": 77, "duration": 1, "velocity": 97}, {"time": 1082, "pitch": 75, "duration": 6, "velocity": 98}, {"time": 1094, "pitch": 77, "duration": 4, "velocity": 96}, {"time": 1100, "pitch": 77, "duration": 1, "velocity": 100}, {"time": 1103, "pitch": 79, "duration": 1, "velocity": 101}, {"time": 1106, "pitch": 70, "duration": 4, "velocity": 103}, {"time": 1112, "pitch": 67, "duration": 1, "velocity": 101}, {"time": 1115, "pitch": 70, "duration": 2, "velocity": 99}, {"time": 1118, "pitch": 72, "duration": 17, "velocity": 96}, {"time": 1142, "pitch": 79, "duration": 7, "velocity": 96}, {"time": 1151, "pitch": 79, "duration": 1, "velocity": 98}, {"time": 1154, "pitch": 79, "duration": 1, "velocity": 96}, {"time": 1157, "pitch": 79, "duration": 1, "velocity": 95}, {"time": 1160, "pitch": 79, "duration": 1, "velocity": 96}, {"time": 1163, "pitch": 79, "duration": 2, "velocity": 95}, {"time": 1166, "pitch": 77, "duration": 4, "velocity": 98}, {"time": 1172, "pitch": 79, "duration": 1, "velocity": 100}, {"time": 1175, "pitch": 77, "duration": 1, "velocity": 96}, {"time": 1178, "pitch": 75, "duration": 9, "velocity": 95}, {"time": 1190, "pitch": 67, "duration": 5, "velocity": 99}, {"time": 1196, "pitch": 70, "duration": 2, "velocity": 105}, {"time": 1199, "pitch": 72, "duration": 2, "velocity": 96}, {"time": 1202, "pitch": 75, "duration": 1, "velocity": 101}, {"time": 1205, "pitch": 77, "duration": 2, "velocity": 96}, {"time": 1208, "pitch": 75, "duration": 2, "velocity": 105}, {"time": 1211, "pitch": 72, "duration": 1, "velocity": 97}, {"time": 1214, "pitch": 72, "duration": 19, "velocity": 101}, {"time": 1238, "pitch": 77, "duration": 1, "velocity": 100}, {"time": 1241, "pitch": 77, "duration": 1, "velocity": 98}, {"time": 1244, "pitch": 77, "duration": 1, "velocity": 101}, {"time": 1247, "pitch": 77, "duration": 1, "velocity": 96}, {"time": 1250, "pitch": 77, "duration": 1, "velocity": 95}, {"time": 1253, "pitch": 77, "duration": 1, "velocity": 96}, {"time": 1256, "pitch": 77, "duration": 1, "velocity": 93}, {"time": 1259, "pitch": 79, "duration": 1, "velocity": 98}, {"time": 1262, "pitch": 75, "duration": 4, "velocity": 98}, {"time": 1268, "pitch": 72, "duration": 12, "velocity": 101}, {"time": 1286, "pitch": 77, "duration": 1, "velocity": 95}, {"time": 1289, "pitch": 77, "duration": 1, "velocity": 95}, {"time": 1292, "pitch": 77, "duration": 1, "velocity": 96}, {"time": 1295, "pitch": 77, "duration": 1, "velocity": 99}, {"time": 1298, "pitch": 79, "duration": 2, "velocity": 101}, {"time": 1301, "pitch": 77, "duration": 1, "velocity": 105}, {"time": 1304, "pitch": 75, "duration": 2, "velocity": 99}, {"time": 1307, "pitch": 77, "duration": 1, "velocity": 98}, {"time": 1310, "pitch": 79, "duration": 19, "velocity": 101}, {"time": 1334, "pitch": 77, "duration": 1, "velocity": 98}, {"time": 1337, "pitch": 77, "duration": 1, "velocity": 96}, {"time": 1340, "pitch": 77, "duration": 1, "velocity": 94}, {"time": 1343, "pitch": 77, "duration": 1, "velocity": 96}, {"time": 1346, "pitch": 77, "duration": 1, "velocity": 97}, {"time": 1349, "pitch": 77, "duration": 1, "velocity": 95}, {"time": 1352, "pitch": 77, "duration": 1, "velocity": 96}, {"time": 1355, "pitch": 79, "duration": 1, "velocity": 101}, {"time": 1358, "pitch": 70, "duration": 4, "velocity": 103}, {"time": 1364, "pitch": 67, "duration": 10, "velocity": 98}, {"time": 1376, "pitch": 77, "duration": 4, "velocity": 99}, {"time": 1382, "pitch": 75, "duration": 2, "velocity": 105}, {"time": 1385, "pitch": 74, "duration": 2, "velocity": 100}, {"time": 1388, "pitch": 72, "duration": 39, "velocity": 99}, {"time": 1814, "pitch": 72, "duration": 4, "velocity": 100}, {"time": 1820, "pitch": 72, "duration": 2, "velocity": 101}, {"time": 1823, "pitch": 72, "duration": 1, "velocity": 103}, {"time": 1826, "pitch": 72, "duration": 4, "velocity": 98}, {"time": 1832, "pitch": 67, "duration": 5, "velocity": 100}, {"time": 1838, "pitch": 70, "duration": 16, "velocity": 101}, {"time": 1862, "pitch": 72, "duration": 3, "velocity": 98}, {"time": 1868, "pitch": 72, "duration": 1, "velocity": 101}, {"time": 1871, "pitch": 72, "duration": 1, "velocity": 99}, {"time": 1874, "pitch": 72, "duration": 4, "velocity": 94}, {"time": 1880, "pitch": 67, "duration": 4, "velocity": 100}, {"time": 1886, "pitch": 63, "duration": 13, "velocity": 105}, {"time": 1910, "pitch": 65, "duration": 3, "velocity": 108}, {"time": 1916, "pitch": 65, "duration": 1, "velocity": 95}, {"time": 1919, "pitch": 65, "duration": 7, "velocity": 103}, {"time": 1928, "pitch": 67, "duration": 4, "velocity": 98}, {"time": 1934, "pitch": 70, "duration": 4, "velocity": 98}, {"time": 1940, "pitch": 70, "duration": 1, "velocity": 96}, {"time": 1943, "pitch": 70, "duration": 8, "velocity": 98}, {"time": 1952, "pitch": 67, "duration": 3, "velocity": 94}, {"time": 1955, "pitch": 70, "duration": 3, "velocity": 99}, {"time": 1958, "pitch": 72, "duration": 6, "velocity": 96}, {"time": 1964, "pitch": 72, "duration": 1, "velocity": 94}, {"time": 1967, "pitch": 72, "duration": 1, "velocity": 98}, {"time": 1970, "pitch": 72, "duration": 5, "velocity": 98}, {"time": 1976, "pitch": 70, "duration": 5, "velocity": 105}, {"time": 1982, "pitch": 67, "duration": 19, "velocity": 101}, {"time": 2006, "pitch": 72, "duration": 4, "velocity": 100}, {"time": 2012, "pitch": 72, "duration": 1, "velocity": 97}, {"time": 2015, "pitch": 72, "duration": 1, "velocity": 98}, {"time": 2018, "pitch": 72, "duration": 5, "velocity": 103}, {"time": 2024, "pitch": 67, "duration": 4, "velocity": 96}, {"time": 2030, "pitch": 70, "duration": 17, "velocity": 94}, {"time": 2054, "pitch": 72, "duration": 3, "velocity": 98}, {"time": 2060, "pitch": 72, "duration": 2, "velocity": 96}, {"time": 2063, "pitch": 72, "duration": 1, "velocity": 95}, {"time": 2066, "pitch": 72, "duration": 4, "velocity": 100}, {"time": 2072, "pitch": 67, "duration": 4, "velocity": 98}, {"time": 2078, "pitch": 63, "duration": 21, "velocity": 84}, {"time": 2102, "pitch": 65, "duration": 4, "velocity": 105}, {"time": 2108, "pitch": 65, "duration": 2, "velocity": 96}, {"time": 2111, "pitch": 65, "duration": 4, "velocity": 101}, {"time": 2117, "pitch": 65, "duration": 1, "velocity": 101}, {"time": 2120, "pitch": 65, "duration": 1, "velocity": 97}, {"time": 2123, "pitch": 67, "duration": 1, "velocity": 95}, {"time": 2126, "pitch": 70, "duration": 4, "velocity": 98}, {"time": 2132, "pitch": 67, "duration": 3, "velocity": 90}, {"time": 2135, "pitch": 70, "duration": 3, "velocity": 93}, {"time": 2138, "pitch": 63, "duration": 9, "velocity": 101}, {"time": 2150, "pitch": 60, "duration": 41, "velocity": 103}, {"time": 2198, "pitch": 72, "duration": 4, "velocity": 100}, {"time": 2204, "pitch": 72, "duration": 2, "velocity": 101}, {"time": 2207, "pitch": 72, "duration": 1, "velocity": 103}, {"time": 2210, "pitch": 72, "duration": 4, "velocity": 98}, {"time": 2216, "pitch": 67, "duration": 5, "velocity": 100}, {"time": 2222, "pitch": 70, "duration": 16, "velocity": 101}, {"time": 2246, "pitch": 72, "duration": 3, "velocity": 98}, {"time": 2252, "pitch": 72, "duration": 1, "velocity": 101}, {"time": 2255, "pitch": 72, "duration": 1, "velocity": 99}, {"time": 2258, "pitch": 72, "duration": 4, "velocity": 94}, {"time": 2264, "pitch": 67, "duration": 4, "velocity": 100}, {"time": 2270, "pitch": 63, "duration": 13, "velocity": 105}, {"time": 2294, "pitch": 65, "duration": 3, "velocity": 108}, {"time": 2300, "pitch": 65, "duration": 1, "velocity": 95}, {"time": 2303, "pitch": 65, "duration": 7, "velocity": 103}, {"time": 2312, "pitch": 67, "duration": 4, "velocity": 98}, {"time": 2318, "pitch": 70, "duration": 4, "velocity": 98}, {"time": 2324, "pitch": 70, "duration": 1, "velocity": 96}, {"time": 2327, "pitch": 70, "duration": 8, "velocity": 98}, {"time": 2336, "pitch": 67, "duration": 3, "velocity": 94}, {"time": 2339, "pitch": 70, "duration": 3, "velocity": 99}, {"time": 2342, "pitch": 72, "duration": 6, "velocity": 96}, {"time": 2348, "pitch": 72, "duration": 1, "velocity": 94}, {"time": 2351, "pitch": 72, "duration": 1, "velocity": 98}, {"time": 2354, "pitch": 72, "duration": 5, "velocity": 98}, {"time": 2360, "pitch": 70, "duration": 5, "velocity": 105}, {"time": 2366, "pitch": 67, "duration": 19, "velocity": 101}, {"time": 2390, "pitch": 72, "duration": 4, "velocity": 100}, {"time": 2396, "pitch": 72, "duration": 1, "velocity": 97}, {"time": 2399, "pitch": 72, "duration": 1, "velocity": 98}, {"time": 2402, "pitch": 72, "duration": 5, "velocity": 103}, {"time": 2408, "pitch": 67, "duration": 4, "velocity": 96}, {"time": 2414, "pitch": 70, "duration": 17, "velocity": 94}, {"time": 2438, "pitch": 72, "duration": 3, "velocity": 98}, {"time": 2444, "pitch": 72, "duration": 2, "velocity": 96}, {"time": 2447, "pitch": 72, "duration": 1, "velocity": 95}, {"time": 2450, "pitch": 72, "duration": 4, "velocity": 100}, {"time": 2456, "pitch": 67, "duration": 4, "velocity": 98}, {"time": 2462, "pitch": 63, "duration": 21, "velocity": 84}, {"time": 2486, "pitch": 65, "duration": 4, "velocity": 105}, {"time": 2492, "pitch": 65, "duration": 2, "velocity": 96}, {"time": 2495, "pitch": 65, "duration": 4, "velocity": 101}, {"time": 2501, "pitch": 65, "duration": 1, "velocity": 101}, {"time": 2504, "pitch": 65, "duration": 1, "velocity": 97}, {"time": 2507, "pitch": 67, "duration": 1, "velocity": 95}, {"time": 2510, "pitch": 70, "duration": 4, "velocity": 98}, {"time": 2519, "pitch": 67, "duration": 3, "velocity": 90}, {"time": 2522, "pitch": 70, "duration": 3, "velocity": 93}, {"time": 2528, "pitch": 75, "duration": 3, "velocity": 100}, {"time": 2531, "pitch": 74, "duration": 3, "velocity": 108}, {"time": 2534, "pitch": 72, "duration": 2, "velocity": 100}, {"time": 2537, "pitch": 74, "duration": 2, "velocity": 105}, {"time": 2540, "pitch": 72, "duration": 38, "velocity": 101}, {"time": 2630, "pitch": 79, "duration": 6, "velocity": 101}, {"time": 2639, "pitch": 79, "duration": 1, "velocity": 98}, {"time": 2642, "pitch": 79, "duration": 1, "velocity": 101}, {"time": 2645, "pitch": 79, "duration": 1, "velocity": 95}, {"time": 2648, "pitch": 79, "duration": 1, "velocity": 99}, {"time": 2651, "pitch": 79, "duration": 1, "velocity": 98}, {"time": 2654, "pitch": 77, "duration": 4, "velocity": 103}, {"time": 2660, "pitch": 79, "duration": 1, "velocity": 101}, {"time": 2663, "pitch": 77, "duration": 1, "velocity": 97}, {"time": 2666, "pitch": 75, "duration": 6, "velocity": 98}, {"time": 2678, "pitch": 77, "duration": 4, "velocity": 96}, {"time": 2684, "pitch": 77, "duration": 1, "velocity": 100}, {"time": 2687, "pitch": 79, "duration": 1, "velocity": 101}, {"time": 2690, "pitch": 70, "duration": 4, "velocity": 103}, {"time": 2696, "pitch": 67, "duration": 1, "velocity": 101}, {"time": 2699, "pitch": 70, "duration": 2, "velocity": 99}, {"time": 2702, "pitch": 72, "duration": 17, "velocity": 96}, {"time": 2726, "pitch": 79, "duration": 7, "velocity": 96}, {"time": 2735, "pitch": 79, "duration": 1, "velocity": 98}, {"time": 2738, "pitch": 79, "duration": 1, "velocity": 96}, {"time": 2741, "pitch": 79, "duration": 1, "velocity": 95}, {"time": 2744, "pitch": 79, "duration": 1, "velocity": 96}, {"time": 2747, "pitch": 79, "duration": 2, "velocity": 95}, {"time": 2750, "pitch": 77, "duration": 4, "velocity": 98}, {"time": 2756, "pitch": 79, "duration": 1, "velocity": 100}, {"time": 2759, "pitch": 77, "duration": 1, "velocity": 96}, {"time": 2762, "pitch": 75, "duration": 9, "velocity": 95}, {"time": 2774, "pitch": 67, "duration": 5, "velocity": 99}, {"time": 2780, "pitch": 70, "duration": 2, "velocity": 105}, {"time": 2783, "pitch": 72, "duration": 2, "velocity": 96}, {"time": 2786, "pitch": 75, "duration": 1, "velocity": 101}, {"time": 2789, "pitch": 77, "duration": 2, "velocity": 96}, {"time": 2792, "pitch": 75, "duration": 2, "velocity": 105}, {"time": 2795, "pitch": 72, "duration": 1, "velocity": 97}, {"time": 2798, "pitch": 72, "duration": 19, "velocity": 101}, {"time": 2822, "pitch": 77, "duration": 1, "velocity": 100}, {"time": 2825, "pitch": 77, "duration": 1, "velocity": 98}, {"time": 2828, "pitch": 77, "duration": 1, "velocity": 101}, {"time": 2831, "pitch": 77, "duration": 1, "velocity": 96}, {"time": 2834, "pitch": 77, "duration": 1, "velocity": 95}, {"time": 2837, "pitch": 77, "duration": 1, "velocity": 96}, {"time": 2840, "pitch": 77, "duration": 1, "velocity": 93}, {"time": 2843, "pitch": 79, "duration": 1, "velocity": 98}, {"time": 2846, "pitch": 75, "duration": 4, "velocity": 98}, {"time": 2852, "pitch": 72, "duration": 12, "velocity": 101}, {"time": 2870, "pitch": 77, "duration": 1, "velocity": 95}, {"time": 2873, "pitch": 77, "duration": 1, "velocity": 95}, {"time": 2876, "pitch": 77, "duration": 1, "velocity": 96}, {"time": 2879, "pitch": 77, "duration": 1, "velocity": 99}, {"time": 2882, "pitch": 79, "duration": 2, "velocity": 101}, {"time": 2885, "pitch": 77, "duration": 1, "velocity": 105}, {"time": 2888, "pitch": 75, "duration": 2, "velocity": 99}, {"time": 2891, "pitch": 77, "duration": 1, "velocity": 98}, {"time": 2894, "pitch": 79, "duration": 19, "velocity": 101}, {"time": 2918, "pitch": 77, "duration": 1, "velocity": 98}, {"time": 2921, "pitch": 77, "duration": 1, "velocity": 96}, {"time": 2924, "pitch": 77, "duration": 1, "velocity": 94}, {"time": 2927, "pitch": 77, "duration": 1, "velocity": 96}, {"time": 2930, "pitch": 77, "duration": 1, "velocity": 97}, {"time": 2933, "pitch": 77, "duration": 1, "velocity": 95}, {"time": 2936, "pitch": 77, "duration": 1, "velocity": 96}, {"time": 2939, "pitch": 79, "duration": 1, "velocity": 101}, {"time": 2942, "pitch": 70, "duration": 4, "velocity": 103}, {"time": 2948, "pitch": 67, "duration": 10, "velocity": 98}, {"time": 2960, "pitch": 77, "duration": 4, "velocity": 99}, {"time": 2966, "pitch": 75, "duration": 2, "velocity": 105}, {"time": 2969, "pitch": 74, "duration": 2, "velocity": 100}, {"time": 2972, "pitch": 72, "duration": 39, "velocity": 99}, {"time": 3014, "pitch": 79, "duration": 6, "velocity": 101}, {"time": 3023, "pitch": 79, "duration": 1, "velocity": 98}, {"time": 3026, "pitch": 79, "duration": 1, "velocity": 101}, {"time": 3029, "pitch": 79, "duration": 1, "velocity": 95}, {"time": 3032, "pitch": 79, "duration": 1, "velocity": 99}, {"time": 3035, "pitch": 79, "duration": 1, "velocity": 98}, {"time": 3038, "pitch": 77, "duration": 4, "velocity": 103}, {"time": 3044, "pitch": 79, "duration": 1, "velocity": 101}, {"time": 3047, "pitch": 77, "duration": 1, "velocity": 97}, {"time": 3050, "pitch": 75, "duration": 6, "velocity": 98}, {"time": 3062, "pitch": 77, "duration": 4, "velocity": 96}, {"time": 3068, "pitch": 77, "duration": 1, "velocity": 100}, {"time": 3071, "pitch": 79, "duration": 1, "velocity": 101}, {"time": 3074, "pitch": 70, "duration": 4, "velocity": 103}, {"time": 3080, "pitch": 67, "duration": 1, "velocity": 101}, {"time": 3083, "pitch": 70, "duration": 2, "velocity": 99}, {"time": 3086, "pitch": 72, "duration": 17, "velocity": 96}, {"time": 3110, "pitch": 79, "duration": 7, "velocity": 96}, {"time": 3119, "pitch": 79, "duration": 1, "velocity": 98}, {"time": 3122, "pitch": 79, "duration": 1, "velocity": 96}, {"time": 3125, "pitch": 79, "duration": 1, "velocity": 95}, {"time": 3128, "pitch": 79, "duration": 1, "velocity": 96}, {"time": 3131, "pitch": 79, "duration": 2, "velocity": 95}, {"time": 3134, "pitch": 77, "duration": 4, "velocity": 98}, {"time": 3140, "pitch": 79, "duration": 1, "velocity": 100}, {"time": 3143, "pitch": 77, "duration": 1, "velocity": 96}, {"time": 3146, "pitch": 75, "duration": 9, "velocity": 95}, {"time": 3158, "pitch": 67, "duration": 5, "velocity": 99}, {"time": 3164, "pitch": 70, "duration": 2, "velocity": 105}, {"time": 3167, "pitch": 72, "duration": 2, "velocity": 96}, {"time": 3170, "pitch": 75, "duration": 1, "velocity": 101}, {"time": 3173, "pitch": 77, "duration": 2, "velocity": 96}, {"time": 3176, "pitch": 75, "duration": 2, "velocity": 105}, {"time": 3179, "pitch": 72, "duration": 1, "velocity": 97}, {"time": 3182, "pitch": 72, "duration": 19, "velocity": 101}, {"time": 3206, "pitch": 77, "duration": 1, "velocity": 100}, {"time": 3209, "pitch": 77, "duration": 1, "velocity": 98}, {"time": 3212, "pitch": 77, "duration": 1, "velocity": 101}, {"time": 3215, "pitch": 77, "duration": 1, "velocity": 96}, {"time": 3218, "pitch": 77, "duration": 1, "velocity": 95}, {"time": 3221, "pitch": 77, "duration": 1, "velocity": 96}, {"time": 3224, "pitch": 77, "duration": 1, "velocity": 93}, {"time": 3227, "pitch": 79, "duration": 1, "velocity": 98}, {"time": 3230, "pitch": 75, "duration": 4, "velocity": 98}, {"time": 3236, "pitch": 72, "duration": 12, "velocity": 101}, {"time": 3254, "pitch": 77, "duration": 1, "velocity": 95}, {"time": 3257, "pitch": 77, "duration": 1, "velocity": 95}, {"time": 3260, "pitch": 77, "duration": 1, "velocity": 96}, {"time": 3263, "pitch": 77, "duration": 1, "velocity": 99}, {"time": 3266, "pitch": 79, "duration": 2, "velocity": 101}, {"time": 3269, "pitch": 77, "duration": 1, "velocity": 105}, {"time": 3272, "pitch": 75, "duration": 2, "velocity": 99}, {"time": 3275, "pitch": 77, "duration": 1, "velocity": 98}, {"time": 3278, "pitch": 79, "duration": 19, "velocity": 101}, {"time": 3302, "pitch": 77, "duration": 1, "velocity": 98}, {"time": 3305, "pitch": 77, "duration": 1, "velocity": 96}, {"time": 3308, "pitch": 77, "duration": 1, "velocity": 94}, {"time": 3311, "pitch": 77, "duration": 1, "velocity": 96}, {"time": 3314, "pitch": 77, "duration": 1, "velocity": 97}, {"time": 3317, "pitch": 77, "duration": 1, "velocity": 95}, {"time": 3320, "pitch": 77, "duration": 1, "velocity": 96}, {"time": 3323, "pitch": 79, "duration": 1, "velocity": 101}, {"time": 3326, "pitch": 70, "duration": 4, "velocity": 103}, {"time": 3332, "pitch": 67, "duration": 10, "velocity": 98}, {"time": 3344, "pitch": 77, "duration": 4, "velocity": 99}, {"time": 3350, "pitch": 75, "duration": 2, "velocity": 105}, {"time": 3353, "pitch": 74, "duration": 2, "velocity": 100}, {"time": 3356, "pitch": 72, "duration": 39, "velocity": 99}]}, {"program": 0, "is_drum": false, "name": "PIANO", "notes": [{"time": 35, "pitch": 68, "duration": 11, "velocity": 100}, {"time": 37, "pitch": 72, "duration": 2, "velocity": 106}, {"time": 37, "pitch": 75, "duration": 11, "velocity": 101}, {"time": 37, "pitch": 44, "duration": 2, "velocity": 112}, {"time": 44, "pitch": 56, "duration": 3, "velocity": 92}, {"time": 47, "pitch": 63, "duration": 4, "velocity": 112}, {"time": 50, "pitch": 68, "duration": 3, "velocity": 120}, {"time": 53, "pitch": 75, "duration": 2, "velocity": 114}, {"time": 62, "pitch": 43, "duration": 16, "velocity": 103}, {"time": 62, "pitch": 67, "duration": 6, "velocity": 109}, {"time": 62, "pitch": 74, "duration": 8, "velocity": 115}, {"time": 68, "pitch": 50, "duration": 9, "velocity": 97}, {"time": 71, "pitch": 67, "duration": 2, "velocity": 110}, {"time": 77, "pitch": 67, "duration": 4, "velocity": 112}, {"time": 77, "pitch": 70, "duration": 3, "velocity": 112}, {"time": 86, "pitch": 53, "duration": 16, "velocity": 111}, {"time": 86, "pitch": 65, "duration": 6, "velocity": 114}, {"time": 92, "pitch": 60, "duration": 4, "velocity": 106}, {"time": 95, "pitch": 65, "duration": 4, "velocity": 125}, {"time": 98, "pitch": 60, "duration": 3, "velocity": 103}, {"time": 100, "pitch": 77, "duration": 8, "velocity": 110}, {"time": 101, "pitch": 65, "duration": 8, "velocity": 113}, {"time": 110, "pitch": 51, "duration": 13, "velocity": 115}, {"time": 113, "pitch": 58, "duration": 7, "velocity": 109}, {"time": 116, "pitch": 63, "duration": 2, "velocity": 120}, {"time": 119, "pitch": 63, "duration": 4, "velocity": 108}, {"time": 119, "pitch": 70, "duration": 3, "velocity": 117}, {"time": 122, "pitch": 58, "duration": 3, "velocity": 102}, {"time": 125, "pitch": 63, "duration": 2, "velocity": 117}, {"time": 125, "pitch": 67, "duration": 7, "velocity": 112}, {"time": 131, "pitch": 63, "duration": 2, "velocity": 113}, {"time": 134, "pitch": 44, "duration": 16, "velocity": 118}, {"time": 137, "pitch": 51, "duration": 14, "velocity": 107}, {"time": 140, "pitch": 56, "duration": 7, "velocity": 125}, {"time": 143, "pitch": 60, "duration": 4, "velocity": 114}, {"time": 149, "pitch": 56, "duration": 3, "velocity": 104}, {"time": 149, "pitch": 60, "duration": 4, "velocity": 114}, {"time": 149, "pitch": 63, "duration": 4, "velocity": 112}, {"time": 149, "pitch": 68, "duration": 4, "velocity": 113}, {"time": 158, "pitch": 43, "duration": 1, "velocity": 112}, {"time": 158, "pitch": 55, "duration": 3, "velocity": 116}, {"time": 158, "pitch": 58, "duration": 4, "velocity": 111}, {"time": 164, "pitch": 55, "duration": 9, "velocity": 103}, {"time": 167, "pitch": 62, "duration": 5, "velocity": 114}, {"time": 170, "pitch": 67, "duration": 3, "velocity": 122}, {"time": 173, "pitch": 79, "duration": 5, "velocity": 113}, {"time": 176, "pitch": 67, "duration": 3, "velocity": 111}, {"time": 182, "pitch": 36, "duration": 1, "velocity": 111}, {"time": 182, "pitch": 67, "duration": 5, "velocity": 112}, {"time": 182, "pitch": 72, "duration": 5, "velocity": 111}, {"time": 188, "pitch": 48, "duration": 16, "velocity": 103}, {"time": 191, "pitch": 55, "duration": 6, "velocity": 116}, {"time": 194, "pitch": 60, "duration": 4, "velocity": 122}, {"time": 197, "pitch": 63, "duration": 3, "velocity": 117}, {"time": 200, "pitch": 55, "duration": 4, "velocity": 99}, {"time": 203, "pitch": 60, "duration": 2, "velocity": 112}, {"time": 206, "pitch": 48, "duration": 23, "velocity": 111}, {"time": 206, "pitch": 60, "duration": 11, "velocity": 103}, {"time": 206, "pitch": 63, "duration": 9, "velocity": 104}, {"time": 206, "pitch": 67, "duration": 10, "velocity": 107}, {"time": 218, "pitch": 60, "duration": 1, "velocity": 92}, {"time": 218, "pitch": 63, "duration": 11, "velocity": 109}, {"time": 218, "pitch": 67, "duration": 12, "velocity": 112}, {"time": 218, "pitch": 72, "duration": 12, "velocity": 111}, {"time": 224, "pitch": 60, "duration": 5, "velocity": 104}, {"time": 230, "pitch": 48, "duration": 18, "velocity": 100}, {"time": 233, "pitch": 60, "duration": 5, "velocity": 74}, {"time": 242, "pitch": 63, "duration": 7, "velocity": 99}, {"time": 248, "pitch": 55, "duration": 4, "velocity": 98}, {"time": 254, "pitch": 43, "duration": 16, "velocity": 92}, {"time": 254, "pitch": 55, "duration": 12, "velocity": 90}, {"time": 254, "pitch": 58, "duration": 10, "velocity": 89}, {"time": 260, "pitch": 50, "duration": 11, "velocity": 82}, {"time": 266, "pitch": 62, "duration": 5, "velocity": 96}, {"time": 272, "pitch": 55, "duration": 6, "velocity": 103}, {"time": 278, "pitch": 44, "duration": 14, "velocity": 90}, {"time": 278, "pitch": 60, "duration": 12, "velocity": 89}, {"time": 284, "pitch": 51, "duration": 10, "velocity": 87}, {"time": 290, "pitch": 58, "duration": 6, "velocity": 98}, {"time": 296, "pitch": 63, "duration": 2, "velocity": 95}, {"time": 302, "pitch": 44, "duration": 13, "velocity": 92}, {"time": 302, "pitch": 60, "duration": 12, "velocity": 88}, {"time": 308, "pitch": 51, "duration": 8, "velocity": 87}, {"time": 314, "pitch": 56, "duration": 5, "velocity": 96}, {"time": 320, "pitch": 60, "duration": 5, "velocity": 100}, {"time": 326, "pitch": 46, "duration": 40, "velocity": 89}, {"time": 326, "pitch": 62, "duration": 12, "velocity": 95}, {"time": 332, "pitch": 53, "duration": 7, "velocity": 87}, {"time": 338, "pitch": 58, "duration": 12, "velocity": 98}, {"time": 344, "pitch": 53, "duration": 9, "velocity": 83}, {"time": 350, "pitch": 65, "duration": 8, "velocity": 95}, {"time": 356, "pitch": 53, "duration": 10, "velocity": 83}, {"time": 362, "pitch": 58, "duration": 3, "velocity": 96}, {"time": 362, "pitch": 62, "duration": 6, "velocity": 95}, {"time": 368, "pitch": 58, "duration": 1, "velocity": 100}, {"time": 374, "pitch": 41, "duration": 15, "velocity": 95}, {"time": 374, "pitch": 53, "duration": 9, "velocity": 85}, {"time": 380, "pitch": 48, "duration": 8, "velocity": 94}, {"time": 386, "pitch": 53, "duration": 4, "velocity": 95}, {"time": 386, "pitch": 60, "duration": 5, "velocity": 94}, {"time": 392, "pitch": 41, "duration": 2, "velocity": 95}, {"time": 398, "pitch": 43, "duration": 24, "velocity": 95}, {"time": 398, "pitch": 55, "duration": 9, "velocity": 92}, {"time": 398, "pitch": 62, "duration": 9, "velocity": 93}, {"time": 404, "pitch": 50, "duration": 18, "velocity": 94}, {"time": 410, "pitch": 55, "duration": 3, "velocity": 99}, {"time": 410, "pitch": 67, "duration": 12, "velocity": 94}, {"time": 416, "pitch": 55, "duration": 5, "velocity": 100}, {"time": 422, "pitch": 48, "duration": 18, "velocity": 94}, {"time": 422, "pitch": 60, "duration": 7, "velocity": 95}, {"time": 428, "pitch": 55, "duration": 7, "velocity": 94}, {"time": 434, "pitch": 63, "duration": 6, "velocity": 97}, {"time": 440, "pitch": 60, "duration": 1, "velocity": 87}, {"time": 446, "pitch": 43, "duration": 17, "velocity": 93}, {"time": 446, "pitch": 62, "duration": 8, "velocity": 93}, {"time": 452, "pitch": 50, "duration": 10, "velocity": 86}, {"time": 458, "pitch": 55, "duration": 3, "velocity": 95}, {"time": 458, "pitch": 58, "duration": 5, "velocity": 99}, {"time": 458, "pitch": 62, "duration": 6, "velocity": 96}, {"time": 464, "pitch": 55, "duration": 5, "velocity": 95}, {"time": 470, "pitch": 44, "duration": 14, "velocity": 95}, {"time": 470, "pitch": 60, "duration": 12, "velocity": 94}, {"time": 476, "pitch": 51, "duration": 8, "velocity": 84}, {"time": 482, "pitch": 56, "duration": 8, "velocity": 100}, {"time": 488, "pitch": 44, "duration": 4, "velocity": 87}, {"time": 494, "pitch": 44, "duration": 14, "velocity": 96}, {"time": 494, "pitch": 56, "duration": 3, "velocity": 86}, {"time": 494, "pitch": 60, "duration": 4, "velocity": 90}, {"time": 500, "pitch": 51, "duration": 9, "velocity": 77}, {"time": 506, "pitch": 56, "duration": 4, "velocity": 96}, {"time": 506, "pitch": 63, "duration": 4, "velocity": 94}, {"time": 512, "pitch": 44, "duration": 2, "velocity": 95}, {"time": 518, "pitch": 46, "duration": 14, "velocity": 94}, {"time": 518, "pitch": 58, "duration": 9, "velocity": 93}, {"time": 524, "pitch": 53, "duration": 10, "velocity": 82}, {"time": 530, "pitch": 58, "duration": 5, "velocity": 97}, {"time": 530, "pitch": 62, "duration": 6, "velocity": 95}, {"time": 536, "pitch": 46, "duration": 4, "velocity": 95}, {"time": 542, "pitch": 43, "duration": 14, "velocity": 94}, {"time": 542, "pitch": 55, "duration": 8, "velocity": 91}, {"time": 542, "pitch": 62, "duration": 7, "velocity": 91}, {"time": 548, "pitch": 50, "duration": 8, "velocity": 90}, {"time": 554, "pitch": 55, "duration": 6, "velocity": 95}, {"time": 554, "pitch": 58, "duration": 5, "velocity": 96}, {"time": 554, "pitch": 62, "duration": 7, "velocity": 96}, {"time": 560, "pitch": 43, "duration": 4, "velocity": 94}, {"time": 566, "pitch": 48, "duration": 21, "velocity": 94}, {"time": 566, "pitch": 55, "duration": 3, "velocity": 93}, {"time": 566, "pitch": 60, "duration": 7, "velocity": 92}, {"time": 572, "pitch": 55, "duration": 6, "velocity": 95}, {"time": 578, "pitch": 63, "duration": 5, "velocity": 103}, {"time": 584, "pitch": 55, "duration": 3, "velocity": 95}, {"time": 590, "pitch": 48, "duration": 25, "velocity": 96}, {"time": 590, "pitch": 55, "duration": 3, "velocity": 95}, {"time": 590, "pitch": 60, "duration": 7, "velocity": 96}, {"time": 596, "pitch": 55, "duration": 2, "velocity": 96}, {"time": 602, "pitch": 55, "duration": 4, "velocity": 98}, {"time": 602, "pitch": 62, "duration": 4, "velocity": 97}, {"time": 608, "pitch": 63, "duration": 6, "velocity": 92}, {"time": 614, "pitch": 48, "duration": 1, "velocity": 100}, {"time": 617, "pitch": 55, "duration": 14, "velocity": 85}, {"time": 620, "pitch": 60, "duration": 7, "velocity": 98}, {"time": 623, "pitch": 63, "duration": 4, "velocity": 109}, {"time": 629, "pitch": 67, "duration": 5, "velocity": 96}, {"time": 632, "pitch": 60, "duration": 3, "velocity": 93}, {"time": 638, "pitch": 43, "duration": 16, "velocity": 95}, {"time": 641, "pitch": 50, "duration": 8, "velocity": 86}, {"time": 644, "pitch": 55, "duration": 7, "velocity": 96}, {"time": 647, "pitch": 58, "duration": 3, "velocity": 95}, {"time": 650, "pitch": 50, "duration": 4, "velocity": 71}, {"time": 653, "pitch": 58, "duration": 3, "velocity": 94}, {"time": 653, "pitch": 62, "duration": 3, "velocity": 94}, {"time": 662, "pitch": 44, "duration": 19, "velocity": 95}, {"time": 662, "pitch": 56, "duration": 5, "velocity": 95}, {"time": 662, "pitch": 60, "duration": 9, "velocity": 94}, {"time": 668, "pitch": 51, "duration": 15, "velocity": 86}, {"time": 671, "pitch": 56, "duration": 5, "velocity": 99}, {"time": 677, "pitch": 63, "duration": 3, "velocity": 102}, {"time": 680, "pitch": 56, "duration": 3, "velocity": 97}, {"time": 686, "pitch": 44, "duration": 16, "velocity": 107}, {"time": 686, "pitch": 56, "duration": 2, "velocity": 91}, {"time": 686, "pitch": 60, "duration": 3, "velocity": 94}, {"time": 692, "pitch": 51, "duration": 7, "velocity": 85}, {"time": 695, "pitch": 56, "duration": 3, "velocity": 96}, {"time": 698, "pitch": 63, "duration": 5, "velocity": 109}, {"time": 701, "pitch": 51, "duration": 2, "velocity": 93}, {"time": 704, "pitch": 56, "duration": 3, "velocity": 98}, {"time": 707, "pitch": 63, "duration": 1, "velocity": 94}, {"time": 710, "pitch": 46, "duration": 21, "velocity": 95}, {"time": 710, "pitch": 62, "duration": 7, "velocity": 96}, {"time": 716, "pitch": 53, "duration": 4, "velocity": 92}, {"time": 719, "pitch": 53, "duration": 1, "velocity": 88}, {"time": 719, "pitch": 58, "duration": 4, "velocity": 95}, {"time": 725, "pitch": 58, "duration": 7, "velocity": 99}, {"time": 725, "pitch": 62, "duration": 7, "velocity": 96}, {"time": 734, "pitch": 46, "duration": 16, "velocity": 89}, {"time": 734, "pitch": 58, "duration": 9, "velocity": 86}, {"time": 734, "pitch": 62, "duration": 10, "velocity": 93}, {"time": 746, "pitch": 58, "duration": 3, "velocity": 100}, {"time": 746, "pitch": 62, "duration": 4, "velocity": 98}, {"time": 749, "pitch": 53, "duration": 3, "velocity": 87}, {"time": 752, "pitch": 58, "duration": 3, "velocity": 96}, {"time": 752, "pitch": 62, "duration": 1, "velocity": 80}, {"time": 755, "pitch": 62, "duration": 3, "velocity": 93}, {"time": 758, "pitch": 41, "duration": 16, "velocity": 98}, {"time": 761, "pitch": 48, "duration": 12, "velocity": 88}, {"time": 764, "pitch": 53, "duration": 7, "velocity": 95}, {"time": 767, "pitch": 60, "duration": 5, "velocity": 100}, {"time": 773, "pitch": 53, "duration": 3, "velocity": 95}, {"time": 773, "pitch": 60, "duration": 3, "velocity": 95}, {"time": 773, "pitch": 65, "duration": 4, "velocity": 94}, {"time": 782, "pitch": 43, "duration": 16, "velocity": 94}, {"time": 782, "pitch": 55, "duration": 6, "velocity": 93}, {"time": 782, "pitch": 62, "duration": 9, "velocity": 94}, {"time": 788, "pitch": 50, "duration": 6, "velocity": 84}, {"time": 791, "pitch": 55, "duration": 2, "velocity": 98}, {"time": 794, "pitch": 55, "duration": 3, "velocity": 104}, {"time": 794, "pitch": 62, "duration": 4, "velocity": 97}, {"time": 794, "pitch": 67, "duration": 4, "velocity": 95}, {"time": 797, "pitch": 50, "duration": 2, "velocity": 94}, {"time": 800, "pitch": 55, "duration": 1, "velocity": 104}, {"time": 806, "pitch": 48, "duration": 17, "velocity": 96}, {"time": 806, "pitch": 60, "duration": 7, "velocity": 93}, {"time": 806, "pitch": 63, "duration": 7, "velocity": 94}, {"time": 812, "pitch": 55, "duration": 4, "velocity": 88}, {"time": 815, "pitch": 67, "duration": 5, "velocity": 93}, {"time": 818, "pitch": 55, "duration": 4, "velocity": 88}, {"time": 821, "pitch": 63, "duration": 3, "velocity": 98}, {"time": 824, "pitch": 60, "duration": 1, "velocity": 94}, {"time": 830, "pitch": 43, "duration": 16, "velocity": 100}, {"time": 830, "pitch": 58, "duration": 6, "velocity": 96}, {"time": 833, "pitch": 50, "duration": 7, "velocity": 92}, {"time": 836, "pitch": 55, "duration": 2, "velocity": 102}, {"time": 839, "pitch": 62, "duration": 3, "velocity": 106}, {"time": 842, "pitch": 50, "duration": 5, "velocity": 92}, {"time": 845, "pitch": 58, "duration": 3, "velocity": 105}, {"time": 848, "pitch": 55, "duration": 2, "velocity": 100}, {"time": 854, "pitch": 44, "duration": 16, "velocity": 101}, {"time": 854, "pitch": 60, "duration": 9, "velocity": 99}, {"time": 860, "pitch": 51, "duration": 11, "velocity": 93}, {"time": 863, "pitch": 56, "duration": 4, "velocity": 115}, {"time": 869, "pitch": 56, "duration": 1, "velocity": 100}, {"time": 869, "pitch": 60, "duration": 7, "velocity": 100}, {"time": 878, "pitch": 44, "duration": 17, "velocity": 105}, {"time": 878, "pitch": 56, "duration": 6, "velocity": 99}, {"time": 878, "pitch": 60, "duration": 9, "velocity": 99}, {"time": 884, "pitch": 51, "duration": 12, "velocity": 89}, {"time": 887, "pitch": 56, "duration": 5, "velocity": 103}, {"time": 893, "pitch": 56, "duration": 1, "velocity": 96}, {"time": 893, "pitch": 60, "duration": 3, "velocity": 101}, {"time": 896, "pitch": 56, "duration": 3, "velocity": 103}, {"time": 899, "pitch": 60, "duration": 2, "velocity": 97}, {"time": 902, "pitch": 46, "duration": 14, "velocity": 106}, {"time": 905, "pitch": 53, "duration": 7, "velocity": 88}, {"time": 908, "pitch": 58, "duration": 2, "velocity": 108}, {"time": 911, "pitch": 58, "duration": 1, "velocity": 85}, {"time": 911, "pitch": 62, "duration": 6, "velocity": 106}, {"time": 914, "pitch": 53, "duration": 3, "velocity": 98}, {"time": 917, "pitch": 58, "duration": 4, "velocity": 106}, {"time": 926, "pitch": 43, "duration": 17, "velocity": 101}, {"time": 929, "pitch": 50, "duration": 7, "velocity": 91}, {"time": 932, "pitch": 55, "duration": 2, "velocity": 102}, {"time": 935, "pitch": 62, "duration": 4, "velocity": 103}, {"time": 938, "pitch": 50, "duration": 4, "velocity": 93}, {"time": 941, "pitch": 58, "duration": 3, "velocity": 101}, {"time": 944, "pitch": 55, "duration": 1, "velocity": 103}, {"time": 950, "pitch": 48, "duration": 21, "velocity": 105}, {"time": 950, "pitch": 60, "duration": 7, "velocity": 102}, {"time": 956, "pitch": 55, "duration": 4, "velocity": 95}, {"time": 959, "pitch": 62, "duration": 3, "velocity": 101}, {"time": 962, "pitch": 55, "duration": 3, "velocity": 93}, {"time": 965, "pitch": 63, "duration": 2, "velocity": 116}, {"time": 968, "pitch": 55, "duration": 3, "velocity": 92}, {"time": 971, "pitch": 60, "duration": 2, "velocity": 100}, {"time": 974, "pitch": 48, "duration": 19, "velocity": 105}, {"time": 974, "pitch": 60, "duration": 5, "velocity": 89}, {"time": 974, "pitch": 63, "duration": 5, "velocity": 104}, {"time": 974, "pitch": 67, "duration": 5, "velocity": 99}, {"time": 980, "pitch": 55, "duration": 7, "velocity": 93}, {"time": 986, "pitch": 60, "duration": 2, "velocity": 106}, {"time": 986, "pitch": 72, "duration": 3, "velocity": 101}, {"time": 989, "pitch": 55, "duration": 4, "velocity": 98}, {"time": 992, "pitch": 60, "duration": 4, "velocity": 100}, {"time": 995, "pitch": 63, "duration": 2, "velocity": 99}, {"time": 998, "pitch": 48, "duration": 11, "velocity": 103}, {"time": 998, "pitch": 60, "duration": 3, "velocity": 102}, {"time": 998, "pitch": 63, "duration": 6, "velocity": 108}, {"time": 1001, "pitch": 55, "duration": 7, "velocity": 96}, {"time": 1004, "pitch": 60, "duration": 2, "velocity": 99}, {"time": 1007, "pitch": 60, "duration": 3, "velocity": 94}, {"time": 1007, "pitch": 63, "duration": 3, "velocity": 102}, {"time": 1007, "pitch": 67, "duration": 2, "velocity": 102}, {"time": 1010, "pitch": 58, "duration": 1, "velocity": 88}, {"time": 1013, "pitch": 46, "duration": 4, "velocity": 120}, {"time": 1013, "pitch": 58, "duration": 3, "velocity": 110}, {"time": 1013, "pitch": 62, "duration": 4, "velocity": 104}, {"time": 1019, "pitch": 48, "duration": 6, "velocity": 110}, {"time": 1019, "pitch": 60, "duration": 6, "velocity": 99}, {"time": 1019, "pitch": 63, "duration": 6, "velocity": 110}, {"time": 1046, "pitch": 48, "duration": 17, "velocity": 100}, {"time": 1046, "pitch": 60, "duration": 3, "velocity": 103}, {"time": 1046, "pitch": 63, "duration": 3, "velocity": 102}, {"time": 1049, "pitch": 55, "duration": 3, "velocity": 101}, {"time": 1052, "pitch": 60, "duration": 2, "velocity": 95}, {"time": 1055, "pitch": 55, "duration": 1, "velocity": 91}, {"time": 1058, "pitch": 55, "duration": 2, "velocity": 112}, {"time": 1058, "pitch": 63, "duration": 4, "velocity": 115}, {"time": 1061, "pitch": 55, "duration": 1, "velocity": 101}, {"time": 1064, "pitch": 60, "duration": 2, "velocity": 105}, {"time": 1067, "pitch": 55, "duration": 1, "velocity": 103}, {"time": 1070, "pitch": 43, "duration": 7, "velocity": 103}, {"time": 1070, "pitch": 55, "duration": 3, "velocity": 107}, {"time": 1070, "pitch": 62, "duration": 7, "velocity": 108}, {"time": 1076, "pitch": 55, "duration": 4, "velocity": 103}, {"time": 1082, "pitch": 44, "duration": 6, "velocity": 108}, {"time": 1082, "pitch": 56, "duration": 5, "velocity": 105}, {"time": 1082, "pitch": 60, "duration": 6, "velocity": 107}, {"time": 1088, "pitch": 51, "duration": 4, "velocity": 102}, {"time": 1091, "pitch": 56, "duration": 1, "velocity": 115}, {"time": 1094, "pitch": 46, "duration": 14, "velocity": 107}, {"time": 1094, "pitch": 58, "duration": 3, "velocity": 110}, {"time": 1097, "pitch": 53, "duration": 10, "velocity": 100}, {"time": 1100, "pitch": 58, "duration": 2, "velocity": 110}, {"time": 1106, "pitch": 58, "duration": 2, "velocity": 122}, {"time": 1106, "pitch": 62, "duration": 4, "velocity": 112}, {"time": 1109, "pitch": 53, "duration": 2, "velocity": 102}, {"time": 1112, "pitch": 58, "duration": 3, "velocity": 115}, {"time": 1115, "pitch": 62, "duration": 1, "velocity": 103}, {"time": 1118, "pitch": 48, "duration": 13, "velocity": 108}, {"time": 1118, "pitch": 60, "duration": 3, "velocity": 102}, {"time": 1118, "pitch": 63, "duration": 3, "velocity": 117}, {"time": 1121, "pitch": 55, "duration": 4, "velocity": 97}, {"time": 1124, "pitch": 60, "duration": 3, "velocity": 106}, {"time": 1127, "pitch": 55, "duration": 3, "velocity": 96}, {"time": 1130, "pitch": 60, "duration": 3, "velocity": 103}, {"time": 1130, "pitch": 67, "duration": 2, "velocity": 105}, {"time": 1133, "pitch": 48, "duration": 1, "velocity": 80}, {"time": 1133, "pitch": 55, "duration": 2, "velocity": 103}, {"time": 1136, "pitch": 60, "duration": 1, "velocity": 98}, {"time": 1136, "pitch": 63, "duration": 1, "velocity": 107}, {"time": 1142, "pitch": 44, "duration": 13, "velocity": 107}, {"time": 1142, "pitch": 56, "duration": 2, "velocity": 101}, {"time": 1142, "pitch": 60, "duration": 4, "velocity": 102}, {"time": 1145, "pitch": 51, "duration": 5, "velocity": 97}, {"time": 1148, "pitch": 56, "duration": 2, "velocity": 107}, {"time": 1151, "pitch": 51, "duration": 3, "velocity": 95}, {"time": 1154, "pitch": 56, "duration": 2, "velocity": 115}, {"time": 1154, "pitch": 60, "duration": 3, "velocity": 112}, {"time": 1157, "pitch": 51, "duration": 2, "velocity": 103}, {"time": 1160, "pitch": 56, "duration": 3, "velocity": 110}, {"time": 1160, "pitch": 60, "duration": 1, "velocity": 71}, {"time": 1163, "pitch": 60, "duration": 2, "velocity": 108}, {"time": 1166, "pitch": 43, "duration": 11, "velocity": 103}, {"time": 1166, "pitch": 55, "duration": 3, "velocity": 103}, {"time": 1166, "pitch": 58, "duration": 4, "velocity": 115}, {"time": 1169, "pitch": 50, "duration": 7, "velocity": 103}, {"time": 1172, "pitch": 55, "duration": 4, "velocity": 107}, {"time": 1178, "pitch": 41, "duration": 7, "velocity": 104}, {"time": 1178, "pitch": 53, "duration": 8, "velocity": 108}, {"time": 1184, "pitch": 48, "duration": 3, "velocity": 96}, {"time": 1190, "pitch": 39, "duration": 16, "velocity": 106}, {"time": 1190, "pitch": 63, "duration": 3, "velocity": 98}, {"time": 1190, "pitch": 67, "duration": 6, "velocity": 96}, {"time": 1193, "pitch": 46, "duration": 10, "velocity": 89}, {"time": 1196, "pitch": 63, "duration": 4, "velocity": 103}, {"time": 1199, "pitch": 67, "duration": 2, "velocity": 99}, {"time": 1202, "pitch": 63, "duration": 4, "velocity": 110}, {"time": 1202, "pitch": 70, "duration": 3, "velocity": 110}, {"time": 1205, "pitch": 46, "duration": 1, "velocity": 96}, {"time": 1208, "pitch": 63, "duration": 2, "velocity": 102}, {"time": 1208, "pitch": 67, "duration": 3, "velocity": 101}, {"time": 1208, "pitch": 70, "duration": 4, "velocity": 96}, {"time": 1211, "pitch": 63, "duration": 3, "velocity": 98}, {"time": 1214, "pitch": 48, "duration": 14, "velocity": 105}, {"time": 1217, "pitch": 55, "duration": 4, "velocity": 101}, {"time": 1220, "pitch": 60, "duration": 3, "velocity": 110}, {"time": 1220, "pitch": 67, "duration": 1, "velocity": 90}, {"time": 1223, "pitch": 55, "duration": 3, "velocity": 103}, {"time": 1226, "pitch": 60, "duration": 3, "velocity": 105}, {"time": 1226, "pitch": 63, "duration": 2, "velocity": 118}, {"time": 1226, "pitch": 67, "duration": 3, "velocity": 103}, {"time": 1229, "pitch": 48, "duration": 4, "velocity": 80}, {"time": 1229, "pitch": 55, "duration": 3, "velocity": 102}, {"time": 1232, "pitch": 60, "duration": 1, "velocity": 105}, {"time": 1232, "pitch": 63, "duration": 3, "velocity": 106}, {"time": 1235, "pitch": 60, "duration": 2, "velocity": 110}, {"time": 1238, "pitch": 41, "duration": 16, "velocity": 105}, {"time": 1238, "pitch": 65, "duration": 5, "velocity": 101}, {"time": 1238, "pitch": 69, "duration": 5, "velocity": 103}, {"time": 1238, "pitch": 72, "duration": 5, "velocity": 103}, {"time": 1244, "pitch": 48, "duration": 6, "velocity": 97}, {"time": 1247, "pitch": 65, "duration": 1, "velocity": 104}, {"time": 1250, "pitch": 65, "duration": 3, "velocity": 118}, {"time": 1250, "pitch": 72, "duration": 4, "velocity": 104}, {"time": 1253, "pitch": 48, "duration": 2, "velocity": 107}, {"time": 1256, "pitch": 65, "duration": 4, "velocity": 108}, {"time": 1259, "pitch": 72, "duration": 1, "velocity": 101}, {"time": 1262, "pitch": 44, "duration": 7, "velocity": 106}, {"time": 1262, "pitch": 68, "duration": 6, "velocity": 104}, {"time": 1262, "pitch": 72, "duration": 6, "velocity": 103}, {"time": 1268, "pitch": 51, "duration": 4, "velocity": 97}, {"time": 1274, "pitch": 44, "duration": 4, "velocity": 107}, {"time": 1274, "pitch": 51, "duration": 5, "velocity": 105}, {"time": 1274, "pitch": 68, "duration": 6, "velocity": 107}, {"time": 1274, "pitch": 72, "duration": 9, "velocity": 105}, {"time": 1280, "pitch": 44, "duration": 1, "velocity": 102}, {"time": 1283, "pitch": 68, "duration": 2, "velocity": 103}, {"time": 1286, "pitch": 46, "duration": 10, "velocity": 118}, {"time": 1289, "pitch": 53, "duration": 7, "velocity": 106}, {"time": 1292, "pitch": 58, "duration": 4, "velocity": 102}, {"time": 1295, "pitch": 62, "duration": 1, "velocity": 100}, {"time": 1298, "pitch": 46, "duration": 3, "velocity": 106}, {"time": 1298, "pitch": 53, "duration": 5, "velocity": 102}, {"time": 1298, "pitch": 58, "duration": 3, "velocity": 112}, {"time": 1298, "pitch": 62, "duration": 4, "velocity": 110}, {"time": 1304, "pitch": 46, "duration": 1, "velocity": 108}, {"time": 1310, "pitch": 51, "duration": 6, "velocity": 118}, {"time": 1310, "pitch": 63, "duration": 2, "velocity": 108}, {"time": 1310, "pitch": 67, "duration": 3, "velocity": 104}, {"time": 1316, "pitch": 58, "duration": 5, "velocity": 103}, {"time": 1319, "pitch": 63, "duration": 1, "velocity": 108}, {"time": 1322, "pitch": 63, "duration": 4, "velocity": 117}, {"time": 1322, "pitch": 67, "duration": 5, "velocity": 107}, {"time": 1322, "pitch": 70, "duration": 7, "velocity": 103}, {"time": 1325, "pitch": 51, "duration": 1, "velocity": 97}, {"time": 1325, "pitch": 58, "duration": 2, "velocity": 94}, {"time": 1328, "pitch": 63, "duration": 3, "velocity": 110}, {"time": 1331, "pitch": 70, "duration": 2, "velocity": 106}, {"time": 1334, "pitch": 43, "duration": 17, "velocity": 105}, {"time": 1337, "pitch": 50, "duration": 5, "velocity": 105}, {"time": 1340, "pitch": 55, "duration": 4, "velocity": 122}, {"time": 1343, "pitch": 58, "duration": 1, "velocity": 97}, {"time": 1346, "pitch": 55, "duration": 5, "velocity": 107}, {"time": 1346, "pitch": 58, "duration": 5, "velocity": 108}, {"time": 1346, "pitch": 62, "duration": 6, "velocity": 108}, {"time": 1352, "pitch": 43, "duration": 4, "velocity": 75}, {"time": 1352, "pitch": 50, "duration": 4, "velocity": 103}, {"time": 1355, "pitch": 55, "duration": 2, "velocity": 101}, {"time": 1355, "pitch": 62, "duration": 1, "velocity": 88}, {"time": 1358, "pitch": 43, "duration": 18, "velocity": 105}, {"time": 1358, "pitch": 55, "duration": 10, "velocity": 101}, {"time": 1358, "pitch": 58, "duration": 7, "velocity": 96}, {"time": 1358, "pitch": 62, "duration": 9, "velocity": 102}, {"time": 1364, "pitch": 50, "duration": 9, "velocity": 97}, {"time": 1370, "pitch": 55, "duration": 1, "velocity": 82}, {"time": 1370, "pitch": 58, "duration": 6, "velocity": 103}, {"time": 1370, "pitch": 62, "duration": 6, "velocity": 102}, {"time": 1370, "pitch": 67, "duration": 8, "velocity": 101}, {"time": 1376, "pitch": 55, "duration": 1, "velocity": 107}, {"time": 1382, "pitch": 48, "duration": 21, "velocity": 107}, {"time": 1382, "pitch": 60, "duration": 8, "velocity": 103}, {"time": 1382, "pitch": 63, "duration": 6, "velocity": 102}, {"time": 1388, "pitch": 55, "duration": 7, "velocity": 97}, {"time": 1394, "pitch": 63, "duration": 3, "velocity": 110}, {"time": 1394, "pitch": 67, "duration": 4, "velocity": 106}, {"time": 1397, "pitch": 55, "duration": 4, "velocity": 102}, {"time": 1400, "pitch": 60, "duration": 3, "velocity": 104}, {"time": 1400, "pitch": 67, "duration": 1, "velocity": 71}, {"time": 1403, "pitch": 63, "duration": 1, "velocity": 107}, {"time": 1403, "pitch": 67, "duration": 1, "velocity": 84}, {"time": 1406, "pitch": 48, "duration": 23, "velocity": 108}, {"time": 1406, "pitch": 60, "duration": 8, "velocity": 97}, {"time": 1406, "pitch": 63, "duration": 8, "velocity": 97}, {"time": 1406, "pitch": 72, "duration": 7, "velocity": 102}, {"time": 1412, "pitch": 55, "duration": 12, "velocity": 89}, {"time": 1418, "pitch": 60, "duration": 3, "velocity": 99}, {"time": 1418, "pitch": 63, "duration": 12, "velocity": 101}, {"time": 1418, "pitch": 67, "duration": 12, "velocity": 100}, {"time": 1424, "pitch": 60, "duration": 6, "velocity": 90}, {"time": 1430, "pitch": 44, "duration": 36, "velocity": 100}, {"time": 1430, "pitch": 68, "duration": 12, "velocity": 90}, {"time": 1436, "pitch": 51, "duration": 9, "velocity": 88}, {"time": 1442, "pitch": 56, "duration": 7, "velocity": 106}, {"time": 1448, "pitch": 60, "duration": 4, "velocity": 96}, {"time": 1454, "pitch": 56, "duration": 10, "velocity": 99}, {"time": 1454, "pitch": 63, "duration": 7, "velocity": 91}, {"time": 1454, "pitch": 68, "duration": 9, "velocity": 95}, {"time": 1466, "pitch": 56, "duration": 3, "velocity": 98}, {"time": 1466, "pitch": 60, "duration": 2, "velocity": 97}, {"time": 1466, "pitch": 63, "duration": 3, "velocity": 97}, {"time": 1478, "pitch": 43, "duration": 40, "velocity": 96}, {"time": 1478, "pitch": 55, "duration": 13, "velocity": 96}, {"time": 1478, "pitch": 58, "duration": 8, "velocity": 95}, {"time": 1484, "pitch": 50, "duration": 21, "velocity": 87}, {"time": 1490, "pitch": 62, "duration": 9, "velocity": 96}, {"time": 1496, "pitch": 55, "duration": 4, "velocity": 43}, {"time": 1496, "pitch": 58, "duration": 3, "velocity": 98}, {"time": 1502, "pitch": 55, "duration": 10, "velocity": 93}, {"time": 1502, "pitch": 58, "duration": 2, "velocity": 86}, {"time": 1502, "pitch": 62, "duration": 10, "velocity": 92}, {"time": 1502, "pitch": 67, "duration": 10, "velocity": 88}, {"time": 1508, "pitch": 50, "duration": 7, "velocity": 89}, {"time": 1514, "pitch": 55, "duration": 5, "velocity": 91}, {"time": 1514, "pitch": 58, "duration": 5, "velocity": 97}, {"time": 1514, "pitch": 62, "duration": 5, "velocity": 96}, {"time": 1526, "pitch": 41, "duration": 1, "velocity": 96}, {"time": 1526, "pitch": 53, "duration": 4, "velocity": 97}, {"time": 1532, "pitch": 53, "duration": 31, "velocity": 90}, {"time": 1538, "pitch": 60, "duration": 15, "velocity": 100}, {"time": 1544, "pitch": 65, "duration": 4, "velocity": 104}, {"time": 1550, "pitch": 65, "duration": 9, "velocity": 95}, {"time": 1550, "pitch": 72, "duration": 12, "velocity": 96}, {"time": 1556, "pitch": 60, "duration": 7, "velocity": 82}, {"time": 1562, "pitch": 65, "duration": 2, "velocity": 100}, {"time": 1574, "pitch": 39, "duration": 1, "velocity": 96}, {"time": 1574, "pitch": 63, "duration": 6, "velocity": 90}, {"time": 1574, "pitch": 67, "duration": 6, "velocity": 93}, {"time": 1580, "pitch": 51, "duration": 20, "velocity": 84}, {"time": 1586, "pitch": 58, "duration": 14, "velocity": 96}, {"time": 1592, "pitch": 63, "duration": 4, "velocity": 101}, {"time": 1598, "pitch": 63, "duration": 10, "velocity": 99}, {"time": 1598, "pitch": 70, "duration": 11, "velocity": 95}, {"time": 1604, "pitch": 51, "duration": 11, "velocity": 85}, {"time": 1610, "pitch": 63, "duration": 11, "velocity": 98}, {"time": 1610, "pitch": 67, "duration": 8, "velocity": 96}, {"time": 1610, "pitch": 70, "duration": 12, "velocity": 96}, {"time": 1616, "pitch": 58, "duration": 6, "velocity": 98}, {"time": 1622, "pitch": 48, "duration": 20, "velocity": 100}, {"time": 1622, "pitch": 60, "duration": 5, "velocity": 95}, {"time": 1622, "pitch": 67, "duration": 6, "velocity": 94}, {"time": 1628, "pitch": 55, "duration": 3, "velocity": 94}, {"time": 1631, "pitch": 60, "duration": 4, "velocity": 119}, {"time": 1631, "pitch": 67, "duration": 1, "velocity": 77}, {"time": 1634, "pitch": 55, "duration": 3, "velocity": 94}, {"time": 1637, "pitch": 60, "duration": 3, "velocity": 100}, {"time": 1637, "pitch": 64, "duration": 4, "velocity": 104}, {"time": 1637, "pitch": 67, "duration": 6, "velocity": 98}, {"time": 1640, "pitch": 55, "duration": 7, "velocity": 93}, {"time": 1643, "pitch": 60, "duration": 1, "velocity": 94}, {"time": 1646, "pitch": 47, "duration": 21, "velocity": 96}, {"time": 1646, "pitch": 59, "duration": 5, "velocity": 98}, {"time": 1646, "pitch": 67, "duration": 10, "velocity": 94}, {"time": 1652, "pitch": 55, "duration": 4, "velocity": 95}, {"time": 1655, "pitch": 59, "duration": 4, "velocity": 99}, {"time": 1658, "pitch": 55, "duration": 4, "velocity": 90}, {"time": 1661, "pitch": 59, "duration": 3, "velocity": 97}, {"time": 1661, "pitch": 62, "duration": 4, "velocity": 99}, {"time": 1661, "pitch": 67, "duration": 8, "velocity": 94}, {"time": 1664, "pitch": 55, "duration": 4, "velocity": 93}, {"time": 1670, "pitch": 45, "duration": 21, "velocity": 97}, {"time": 1670, "pitch": 60, "duration": 7, "velocity": 94}, {"time": 1670, "pitch": 69, "duration": 10, "velocity": 88}, {"time": 1676, "pitch": 57, "duration": 5, "velocity": 93}, {"time": 1679, "pitch": 60, "duration": 3, "velocity": 94}, {"time": 1685, "pitch": 57, "duration": 2, "velocity": 97}, {"time": 1685, "pitch": 60, "duration": 6, "velocity": 98}, {"time": 1685, "pitch": 69, "duration": 6, "velocity": 94}, {"time": 1691, "pitch": 57, "duration": 1, "velocity": 95}, {"time": 1694, "pitch": 43, "duration": 17, "velocity": 92}, {"time": 1694, "pitch": 55, "duration": 6, "velocity": 98}, {"time": 1694, "pitch": 59, "duration": 6, "velocity": 96}, {"time": 1700, "pitch": 50, "duration": 3, "velocity": 95}, {"time": 1703, "pitch": 55, "duration": 4, "velocity": 99}, {"time": 1703, "pitch": 59, "duration": 4, "velocity": 99}, {"time": 1703, "pitch": 62, "duration": 4, "velocity": 96}, {"time": 1706, "pitch": 50, "duration": 4, "velocity": 93}, {"time": 1709, "pitch": 55, "duration": 2, "velocity": 102}, {"time": 1709, "pitch": 59, "duration": 3, "velocity": 104}, {"time": 1709, "pitch": 62, "duration": 4, "velocity": 98}, {"time": 1712, "pitch": 43, "duration": 1, "velocity": 63}, {"time": 1712, "pitch": 50, "duration": 4, "velocity": 94}, {"time": 1718, "pitch": 41, "duration": 19, "velocity": 97}, {"time": 1718, "pitch": 53, "duration": 6, "velocity": 93}, {"time": 1718, "pitch": 60, "duration": 9, "velocity": 92}, {"time": 1724, "pitch": 48, "duration": 4, "velocity": 95}, {"time": 1727, "pitch": 53, "duration": 4, "velocity": 102}, {"time": 1730, "pitch": 48, "duration": 4, "velocity": 96}, {"time": 1733, "pitch": 53, "duration": 3, "velocity": 102}, {"time": 1733, "pitch": 60, "duration": 7, "velocity": 104}, {"time": 1733, "pitch": 65, "duration": 7, "velocity": 96}, {"time": 1736, "pitch": 48, "duration": 3, "velocity": 99}, {"time": 1739, "pitch": 53, "duration": 2, "velocity": 104}, {"time": 1742, "pitch": 43, "duration": 16, "velocity": 100}, {"time": 1742, "pitch": 55, "duration": 6, "velocity": 98}, {"time": 1742, "pitch": 58, "duration": 6, "velocity": 96}, {"time": 1748, "pitch": 50, "duration": 3, "velocity": 93}, {"time": 1751, "pitch": 55, "duration": 4, "velocity": 99}, {"time": 1751, "pitch": 58, "duration": 4, "velocity": 109}, {"time": 1751, "pitch": 62, "duration": 4, "velocity": 102}, {"time": 1754, "pitch": 50, "duration": 4, "velocity": 97}, {"time": 1757, "pitch": 55, "duration": 2, "velocity": 104}, {"time": 1757, "pitch": 58, "duration": 3, "velocity": 107}, {"time": 1757, "pitch": 62, "duration": 3, "velocity": 97}, {"time": 1757, "pitch": 67, "duration": 4, "velocity": 95}, {"time": 1760, "pitch": 43, "duration": 1, "velocity": 95}, {"time": 1766, "pitch": 48, "duration": 21, "velocity": 102}, {"time": 1766, "pitch": 55, "duration": 2, "velocity": 107}, {"time": 1766, "pitch": 60, "duration": 3, "velocity": 96}, {"time": 1772, "pitch": 55, "duration": 3, "velocity": 91}, {"time": 1775, "pitch": 60, "duration": 4, "velocity": 107}, {"time": 1778, "pitch": 55, "duration": 8, "velocity": 88}, {"time": 1781, "pitch": 67, "duration": 4, "velocity": 96}, {"time": 1784, "pitch": 63, "duration": 1, "velocity": 94}, {"time": 1787, "pitch": 60, "duration": 1, "velocity": 93}, {"time": 1790, "pitch": 48, "duration": 21, "velocity": 99}, {"time": 1790, "pitch": 60, "duration": 9, "velocity": 92}, {"time": 1790, "pitch": 63, "duration": 8, "velocity": 92}, {"time": 1790, "pitch": 67, "duration": 8, "velocity": 94}, {"time": 1790, "pitch": 72, "duration": 7, "velocity": 93}, {"time": 1796, "pitch": 55, "duration": 8, "velocity": 81}, {"time": 1802, "pitch": 60, "duration": 1, "velocity": 86}, {"time": 1802, "pitch": 63, "duration": 12, "velocity": 88}, {"time": 1802, "pitch": 67, "duration": 13, "velocity": 92}, {"time": 1808, "pitch": 60, "duration": 6, "velocity": 84}, {"time": 1814, "pitch": 48, "duration": 18, "velocity": 100}, {"time": 1817, "pitch": 60, "duration": 5, "velocity": 74}, {"time": 1826, "pitch": 63, "duration": 7, "velocity": 99}, {"time": 1832, "pitch": 55, "duration": 4, "velocity": 98}, {"time": 1838, "pitch": 43, "duration": 16, "velocity": 92}, {"time": 1838, "pitch": 55, "duration": 12, "velocity": 90}, {"time": 1838, "pitch": 58, "duration": 10, "velocity": 89}, {"time": 1844, "pitch": 50, "duration": 11, "velocity": 82}, {"time": 1850, "pitch": 62, "duration": 5, "velocity": 96}, {"time": 1856, "pitch": 55, "duration": 6, "velocity": 103}, {"time": 1862, "pitch": 44, "duration": 14, "velocity": 90}, {"time": 1862, "pitch": 60, "duration": 12, "velocity": 89}, {"time": 1868, "pitch": 51, "duration": 10, "velocity": 87}, {"time": 1874, "pitch": 58, "duration": 6, "velocity": 98}, {"time": 1880, "pitch": 63, "duration": 2, "velocity": 95}, {"time": 1886, "pitch": 44, "duration": 13, "velocity": 92}, {"time": 1886, "pitch": 60, "duration": 12, "velocity": 88}, {"time": 1892, "pitch": 51, "duration": 8, "velocity": 87}, {"time": 1898, "pitch": 56, "duration": 5, "velocity": 96}, {"time": 1904, "pitch": 60, "duration": 5, "velocity": 100}, {"time": 1910, "pitch": 46, "duration": 40, "velocity": 89}, {"time": 1910, "pitch": 62, "duration": 12, "velocity": 95}, {"time": 1916, "pitch": 53, "duration": 7, "velocity": 87}, {"time": 1922, "pitch": 58, "duration": 12, "velocity": 98}, {"time": 1928, "pitch": 53, "duration": 9, "velocity": 83}, {"time": 1934, "pitch": 65, "duration": 8, "velocity": 95}, {"time": 1940, "pitch": 53, "duration": 10, "velocity": 83}, {"time": 1946, "pitch": 58, "duration": 3, "velocity": 96}, {"time": 1946, "pitch": 62, "duration": 6, "velocity": 95}, {"time": 1952, "pitch": 58, "duration": 1, "velocity": 100}, {"time": 1958, "pitch": 41, "duration": 15, "velocity": 95}, {"time": 1958, "pitch": 53, "duration": 9, "velocity": 85}, {"time": 1964, "pitch": 48, "duration": 8, "velocity": 94}, {"time": 1970, "pitch": 53, "duration": 4, "velocity": 95}, {"time": 1970, "pitch": 60, "duration": 5, "velocity": 94}, {"time": 1976, "pitch": 41, "duration": 2, "velocity": 95}, {"time": 1982, "pitch": 43, "duration": 24, "velocity": 95}, {"time": 1982, "pitch": 55, "duration": 9, "velocity": 92}, {"time": 1982, "pitch": 62, "duration": 9, "velocity": 93}, {"time": 1988, "pitch": 50, "duration": 18, "velocity": 94}, {"time": 1994, "pitch": 55, "duration": 3, "velocity": 99}, {"time": 1994, "pitch": 67, "duration": 12, "velocity": 94}, {"time": 2000, "pitch": 55, "duration": 5, "velocity": 100}, {"time": 2006, "pitch": 48, "duration": 18, "velocity": 94}, {"time": 2006, "pitch": 60, "duration": 7, "velocity": 95}, {"time": 2012, "pitch": 55, "duration": 7, "velocity": 94}, {"time": 2018, "pitch": 63, "duration": 6, "velocity": 97}, {"time": 2024, "pitch": 60, "duration": 1, "velocity": 87}, {"time": 2030, "pitch": 43, "duration": 17, "velocity": 93}, {"time": 2030, "pitch": 62, "duration": 8, "velocity": 93}, {"time": 2036, "pitch": 50, "duration": 10, "velocity": 86}, {"time": 2042, "pitch": 55, "duration": 3, "velocity": 95}, {"time": 2042, "pitch": 58, "duration": 5, "velocity": 99}, {"time": 2042, "pitch": 62, "duration": 6, "velocity": 96}, {"time": 2048, "pitch": 55, "duration": 5, "velocity": 95}, {"time": 2054, "pitch": 44, "duration": 14, "velocity": 95}, {"time": 2054, "pitch": 60, "duration": 12, "velocity": 94}, {"time": 2060, "pitch": 51, "duration": 8, "velocity": 84}, {"time": 2066, "pitch": 56, "duration": 8, "velocity": 100}, {"time": 2072, "pitch": 44, "duration": 4, "velocity": 87}, {"time": 2078, "pitch": 44, "duration": 14, "velocity": 96}, {"time": 2078, "pitch": 56, "duration": 3, "velocity": 86}, {"time": 2078, "pitch": 60, "duration": 4, "velocity": 90}, {"time": 2084, "pitch": 51, "duration": 9, "velocity": 77}, {"time": 2090, "pitch": 56, "duration": 4, "velocity": 96}, {"time": 2090, "pitch": 63, "duration": 4, "velocity": 94}, {"time": 2096, "pitch": 44, "duration": 2, "velocity": 95}, {"time": 2102, "pitch": 46, "duration": 14, "velocity": 94}, {"time": 2102, "pitch": 58, "duration": 9, "velocity": 93}, {"time": 2108, "pitch": 53, "duration": 10, "velocity": 82}, {"time": 2114, "pitch": 58, "duration": 5, "velocity": 97}, {"time": 2114, "pitch": 62, "duration": 6, "velocity": 95}, {"time": 2120, "pitch": 46, "duration": 4, "velocity": 95}, {"time": 2126, "pitch": 43, "duration": 14, "velocity": 94}, {"time": 2126, "pitch": 55, "duration": 8, "velocity": 91}, {"time": 2126, "pitch": 62, "duration": 7, "velocity": 91}, {"time": 2132, "pitch": 50, "duration": 8, "velocity": 90}, {"time": 2138, "pitch": 55, "duration": 6, "velocity": 95}, {"time": 2138, "pitch": 58, "duration": 5, "velocity": 96}, {"time": 2138, "pitch": 62, "duration": 7, "velocity": 96}, {"time": 2144, "pitch": 43, "duration": 4, "velocity": 94}, {"time": 2150, "pitch": 48, "duration": 21, "velocity": 94}, {"time": 2150, "pitch": 55, "duration": 3, "velocity": 93}, {"time": 2150, "pitch": 60, "duration": 7, "velocity": 92}, {"time": 2156, "pitch": 55, "duration": 6, "velocity": 95}, {"time": 2162, "pitch": 63, "duration": 5, "velocity": 103}, {"time": 2168, "pitch": 55, "duration": 3, "velocity": 95}, {"time": 2174, "pitch": 48, "duration": 25, "velocity": 96}, {"time": 2174, "pitch": 55, "duration": 3, "velocity": 95}, {"time": 2174, "pitch": 60, "duration": 7, "velocity": 96}, {"time": 2180, "pitch": 55, "duration": 2, "velocity": 96}, {"time": 2186, "pitch": 55, "duration": 4, "velocity": 98}, {"time": 2186, "pitch": 62, "duration": 4, "velocity": 97}, {"time": 2192, "pitch": 63, "duration": 6, "velocity": 92}, {"time": 2198, "pitch": 48, "duration": 1, "velocity": 100}, {"time": 2201, "pitch": 55, "duration": 6, "velocity": 87}, {"time": 2204, "pitch": 60, "duration": 7, "velocity": 100}, {"time": 2207, "pitch": 63, "duration": 4, "velocity": 109}, {"time": 2210, "pitch": 55, "duration": 5, "velocity": 90}, {"time": 2213, "pitch": 60, "duration": 4, "velocity": 89}, {"time": 2213, "pitch": 63, "duration": 9, "velocity": 102}, {"time": 2213, "pitch": 67, "duration": 11, "velocity": 99}, {"time": 2222, "pitch": 43, "duration": 18, "velocity": 96}, {"time": 2225, "pitch": 50, "duration": 5, "velocity": 90}, {"time": 2228, "pitch": 55, "duration": 4, "velocity": 95}, {"time": 2231, "pitch": 50, "duration": 7, "velocity": 89}, {"time": 2231, "pitch": 62, "duration": 7, "velocity": 98}, {"time": 2237, "pitch": 58, "duration": 4, "velocity": 100}, {"time": 2240, "pitch": 55, "duration": 5, "velocity": 94}, {"time": 2246, "pitch": 44, "duration": 12, "velocity": 95}, {"time": 2246, "pitch": 60, "duration": 9, "velocity": 93}, {"time": 2252, "pitch": 51, "duration": 5, "velocity": 96}, {"time": 2255, "pitch": 56, "duration": 5, "velocity": 107}, {"time": 2258, "pitch": 51, "duration": 3, "velocity": 88}, {"time": 2261, "pitch": 60, "duration": 4, "velocity": 95}, {"time": 2264, "pitch": 56, "duration": 4, "velocity": 83}, {"time": 2270, "pitch": 44, "duration": 14, "velocity": 95}, {"time": 2270, "pitch": 56, "duration": 3, "velocity": 94}, {"time": 2270, "pitch": 60, "duration": 3, "velocity": 93}, {"time": 2276, "pitch": 51, "duration": 4, "velocity": 88}, {"time": 2279, "pitch": 56, "duration": 5, "velocity": 100}, {"time": 2282, "pitch": 51, "duration": 4, "velocity": 93}, {"time": 2285, "pitch": 63, "duration": 3, "velocity": 100}, {"time": 2288, "pitch": 56, "duration": 2, "velocity": 97}, {"time": 2294, "pitch": 46, "duration": 21, "velocity": 97}, {"time": 2294, "pitch": 58, "duration": 6, "velocity": 84}, {"time": 2294, "pitch": 62, "duration": 8, "velocity": 93}, {"time": 2300, "pitch": 53, "duration": 15, "velocity": 93}, {"time": 2303, "pitch": 58, "duration": 4, "velocity": 100}, {"time": 2309, "pitch": 58, "duration": 7, "velocity": 95}, {"time": 2309, "pitch": 62, "duration": 7, "velocity": 94}, {"time": 2318, "pitch": 46, "duration": 22, "velocity": 96}, {"time": 2318, "pitch": 58, "duration": 7, "velocity": 92}, {"time": 2318, "pitch": 62, "duration": 9, "velocity": 96}, {"time": 2324, "pitch": 53, "duration": 14, "velocity": 94}, {"time": 2327, "pitch": 58, "duration": 7, "velocity": 96}, {"time": 2333, "pitch": 65, "duration": 9, "velocity": 94}, {"time": 2336, "pitch": 58, "duration": 5, "velocity": 93}, {"time": 2342, "pitch": 41, "duration": 16, "velocity": 94}, {"time": 2342, "pitch": 57, "duration": 3, "velocity": 93}, {"time": 2342, "pitch": 60, "duration": 7, "velocity": 94}, {"time": 2345, "pitch": 48, "duration": 6, "velocity": 92}, {"time": 2348, "pitch": 57, "duration": 2, "velocity": 97}, {"time": 2351, "pitch": 57, "duration": 4, "velocity": 99}, {"time": 2351, "pitch": 65, "duration": 4, "velocity": 94}, {"time": 2354, "pitch": 48, "duration": 4, "velocity": 94}, {"time": 2357, "pitch": 57, "duration": 3, "velocity": 96}, {"time": 2357, "pitch": 60, "duration": 3, "velocity": 95}, {"time": 2363, "pitch": 55, "duration": 1, "velocity": 74}, {"time": 2366, "pitch": 43, "duration": 17, "velocity": 94}, {"time": 2366, "pitch": 55, "duration": 3, "velocity": 92}, {"time": 2366, "pitch": 62, "duration": 6, "velocity": 93}, {"time": 2369, "pitch": 50, "duration": 6, "velocity": 93}, {"time": 2372, "pitch": 55, "duration": 1, "velocity": 99}, {"time": 2375, "pitch": 55, "duration": 4, "velocity": 114}, {"time": 2375, "pitch": 62, "duration": 4, "velocity": 99}, {"time": 2375, "pitch": 67, "duration": 3, "velocity": 93}, {"time": 2378, "pitch": 50, "duration": 4, "velocity": 96}, {"time": 2381, "pitch": 55, "duration": 2, "velocity": 97}, {"time": 2381, "pitch": 62, "duration": 4, "velocity": 98}, {"time": 2384, "pitch": 55, "duration": 5, "velocity": 102}, {"time": 2390, "pitch": 48, "duration": 18, "velocity": 97}, {"time": 2393, "pitch": 55, "duration": 7, "velocity": 86}, {"time": 2396, "pitch": 60, "duration": 2, "velocity": 100}, {"time": 2399, "pitch": 60, "duration": 1, "velocity": 82}, {"time": 2399, "pitch": 67, "duration": 5, "velocity": 94}, {"time": 2402, "pitch": 55, "duration": 5, "velocity": 93}, {"time": 2405, "pitch": 63, "duration": 4, "velocity": 110}, {"time": 2408, "pitch": 60, "duration": 6, "velocity": 98}, {"time": 2414, "pitch": 43, "duration": 21, "velocity": 96}, {"time": 2417, "pitch": 50, "duration": 5, "velocity": 89}, {"time": 2420, "pitch": 58, "duration": 3, "velocity": 95}, {"time": 2423, "pitch": 55, "duration": 4, "velocity": 114}, {"time": 2426, "pitch": 50, "duration": 4, "velocity": 91}, {"time": 2429, "pitch": 58, "duration": 4, "velocity": 97}, {"time": 2429, "pitch": 62, "duration": 5, "velocity": 96}, {"time": 2432, "pitch": 50, "duration": 2, "velocity": 89}, {"time": 2438, "pitch": 44, "duration": 13, "velocity": 97}, {"time": 2438, "pitch": 56, "duration": 2, "velocity": 93}, {"time": 2438, "pitch": 60, "duration": 2, "velocity": 93}, {"time": 2441, "pitch": 51, "duration": 7, "velocity": 93}, {"time": 2444, "pitch": 56, "duration": 4, "velocity": 95}, {"time": 2447, "pitch": 63, "duration": 4, "velocity": 109}, {"time": 2450, "pitch": 51, "duration": 3, "velocity": 91}, {"time": 2453, "pitch": 56, "duration": 1, "velocity": 81}, {"time": 2453, "pitch": 60, "duration": 6, "velocity": 94}, {"time": 2459, "pitch": 56, "duration": 2, "velocity": 89}, {"time": 2462, "pitch": 44, "duration": 13, "velocity": 100}, {"time": 2462, "pitch": 56, "duration": 6, "velocity": 94}, {"time": 2462, "pitch": 60, "duration": 7, "velocity": 94}, {"time": 2468, "pitch": 51, "duration": 4, "velocity": 87}, {"time": 2471, "pitch": 56, "duration": 4, "velocity": 102}, {"time": 2474, "pitch": 51, "duration": 3, "velocity": 89}, {"time": 2477, "pitch": 56, "duration": 2, "velocity": 97}, {"time": 2477, "pitch": 63, "duration": 3, "velocity": 95}, {"time": 2486, "pitch": 46, "duration": 16, "velocity": 99}, {"time": 2486, "pitch": 58, "duration": 6, "velocity": 95}, {"time": 2486, "pitch": 62, "duration": 8, "velocity": 94}, {"time": 2492, "pitch": 53, "duration": 5, "velocity": 89}, {"time": 2495, "pitch": 58, "duration": 4, "velocity": 107}, {"time": 2498, "pitch": 53, "duration": 4, "velocity": 75}, {"time": 2501, "pitch": 58, "duration": 3, "velocity": 100}, {"time": 2501, "pitch": 65, "duration": 7, "velocity": 95}, {"time": 2504, "pitch": 46, "duration": 1, "velocity": 96}, {"time": 2507, "pitch": 58, "duration": 1, "velocity": 75}, {"time": 2507, "pitch": 62, "duration": 9, "velocity": 93}, {"time": 2510, "pitch": 43, "duration": 16, "velocity": 97}, {"time": 2513, "pitch": 50, "duration": 6, "velocity": 93}, {"time": 2516, "pitch": 55, "duration": 7, "velocity": 97}, {"time": 2519, "pitch": 58, "duration": 4, "velocity": 107}, {"time": 2522, "pitch": 50, "duration": 3, "velocity": 96}, {"time": 2525, "pitch": 55, "duration": 3, "velocity": 94}, {"time": 2525, "pitch": 58, "duration": 3, "velocity": 97}, {"time": 2525, "pitch": 62, "duration": 4, "velocity": 98}, {"time": 2528, "pitch": 43, "duration": 2, "velocity": 94}, {"time": 2534, "pitch": 48, "duration": 19, "velocity": 100}, {"time": 2534, "pitch": 55, "duration": 2, "velocity": 94}, {"time": 2534, "pitch": 60, "duration": 3, "velocity": 93}, {"time": 2537, "pitch": 55, "duration": 6, "velocity": 93}, {"time": 2540, "pitch": 60, "duration": 1, "velocity": 102}, {"time": 2543, "pitch": 60, "duration": 3, "velocity": 99}, {"time": 2543, "pitch": 67, "duration": 3, "velocity": 97}, {"time": 2546, "pitch": 55, "duration": 4, "velocity": 85}, {"time": 2549, "pitch": 60, "duration": 3, "velocity": 96}, {"time": 2549, "pitch": 63, "duration": 3, "velocity": 98}, {"time": 2549, "pitch": 67, "duration": 3, "velocity": 96}, {"time": 2552, "pitch": 55, "duration": 1, "velocity": 84}, {"time": 2555, "pitch": 48, "duration": 1, "velocity": 84}, {"time": 2558, "pitch": 48, "duration": 16, "velocity": 98}, {"time": 2558, "pitch": 60, "duration": 3, "velocity": 93}, {"time": 2558, "pitch": 62, "duration": 2, "velocity": 91}, {"time": 2558, "pitch": 63, "duration": 3, "velocity": 98}, {"time": 2558, "pitch": 72, "duration": 7, "velocity": 93}, {"time": 2561, "pitch": 55, "duration": 7, "velocity": 94}, {"time": 2564, "pitch": 60, "duration": 1, "velocity": 94}, {"time": 2567, "pitch": 60, "duration": 4, "velocity": 98}, {"time": 2567, "pitch": 63, "duration": 4, "velocity": 100}, {"time": 2567, "pitch": 67, "duration": 4, "velocity": 99}, {"time": 2570, "pitch": 55, "duration": 4, "velocity": 89}, {"time": 2573, "pitch": 60, "duration": 2, "velocity": 100}, {"time": 2573, "pitch": 63, "duration": 6, "velocity": 109}, {"time": 2573, "pitch": 67, "duration": 6, "velocity": 99}, {"time": 2579, "pitch": 60, "duration": 1, "velocity": 93}, {"time": 2582, "pitch": 48, "duration": 11, "velocity": 103}, {"time": 2582, "pitch": 60, "duration": 3, "velocity": 102}, {"time": 2582, "pitch": 63, "duration": 6, "velocity": 108}, {"time": 2585, "pitch": 55, "duration": 7, "velocity": 96}, {"time": 2588, "pitch": 60, "duration": 2, "velocity": 99}, {"time": 2591, "pitch": 60, "duration": 3, "velocity": 94}, {"time": 2591, "pitch": 63, "duration": 3, "velocity": 102}, {"time": 2591, "pitch": 67, "duration": 2, "velocity": 102}, {"time": 2594, "pitch": 58, "duration": 1, "velocity": 88}, {"time": 2597, "pitch": 46, "duration": 4, "velocity": 120}, {"time": 2597, "pitch": 58, "duration": 3, "velocity": 110}, {"time": 2597, "pitch": 62, "duration": 4, "velocity": 104}, {"time": 2603, "pitch": 48, "duration": 6, "velocity": 110}, {"time": 2603, "pitch": 60, "duration": 6, "velocity": 99}, {"time": 2603, "pitch": 63, "duration": 6, "velocity": 110}, {"time": 2630, "pitch": 48, "duration": 17, "velocity": 100}, {"time": 2630, "pitch": 60, "duration": 3, "velocity": 103}, {"time": 2630, "pitch": 63, "duration": 3, "velocity": 102}, {"time": 2633, "pitch": 55, "duration": 3, "velocity": 101}, {"time": 2636, "pitch": 60, "duration": 2, "velocity": 95}, {"time": 2639, "pitch": 55, "duration": 1, "velocity": 91}, {"time": 2642, "pitch": 55, "duration": 2, "velocity": 112}, {"time": 2642, "pitch": 63, "duration": 4, "velocity": 115}, {"time": 2645, "pitch": 55, "duration": 1, "velocity": 101}, {"time": 2648, "pitch": 60, "duration": 2, "velocity": 105}, {"time": 2651, "pitch": 55, "duration": 1, "velocity": 103}, {"time": 2654, "pitch": 43, "duration": 7, "velocity": 103}, {"time": 2654, "pitch": 55, "duration": 3, "velocity": 107}, {"time": 2654, "pitch": 62, "duration": 7, "velocity": 108}, {"time": 2660, "pitch": 55, "duration": 4, "velocity": 103}, {"time": 2666, "pitch": 44, "duration": 6, "velocity": 108}, {"time": 2666, "pitch": 56, "duration": 5, "velocity": 105}, {"time": 2666, "pitch": 60, "duration": 6, "velocity": 107}, {"time": 2672, "pitch": 51, "duration": 4, "velocity": 102}, {"time": 2675, "pitch": 56, "duration": 1, "velocity": 115}, {"time": 2678, "pitch": 46, "duration": 14, "velocity": 107}, {"time": 2678, "pitch": 58, "duration": 3, "velocity": 110}, {"time": 2681, "pitch": 53, "duration": 10, "velocity": 100}, {"time": 2684, "pitch": 58, "duration": 2, "velocity": 110}, {"time": 2690, "pitch": 58, "duration": 2, "velocity": 122}, {"time": 2690, "pitch": 62, "duration": 4, "velocity": 112}, {"time": 2693, "pitch": 53, "duration": 2, "velocity": 102}, {"time": 2696, "pitch": 58, "duration": 3, "velocity": 115}, {"time": 2699, "pitch": 62, "duration": 1, "velocity": 103}, {"time": 2702, "pitch": 48, "duration": 13, "velocity": 108}, {"time": 2702, "pitch": 60, "duration": 3, "velocity": 102}, {"time": 2702, "pitch": 63, "duration": 3, "velocity": 117}, {"time": 2705, "pitch": 55, "duration": 4, "velocity": 97}, {"time": 2708, "pitch": 60, "duration": 3, "velocity": 106}, {"time": 2711, "pitch": 55, "duration": 3, "velocity": 96}, {"time": 2714, "pitch": 60, "duration": 3, "velocity": 103}, {"time": 2714, "pitch": 67, "duration": 2, "velocity": 105}, {"time": 2717, "pitch": 48, "duration": 1, "velocity": 80}, {"time": 2717, "pitch": 55, "duration": 2, "velocity": 103}, {"time": 2720, "pitch": 60, "duration": 1, "velocity": 98}, {"time": 2720, "pitch": 63, "duration": 1, "velocity": 107}, {"time": 2726, "pitch": 44, "duration": 13, "velocity": 107}, {"time": 2726, "pitch": 56, "duration": 2, "velocity": 101}, {"time": 2726, "pitch": 60, "duration": 4, "velocity": 102}, {"time": 2729, "pitch": 51, "duration": 5, "velocity": 97}, {"time": 2732, "pitch": 56, "duration": 2, "velocity": 107}, {"time": 2735, "pitch": 51, "duration": 3, "velocity": 95}, {"time": 2738, "pitch": 56, "duration": 2, "velocity": 115}, {"time": 2738, "pitch": 60, "duration": 3, "velocity": 112}, {"time": 2741, "pitch": 51, "duration": 2, "velocity": 103}, {"time": 2744, "pitch": 56, "duration": 3, "velocity": 110}, {"time": 2744, "pitch": 60, "duration": 1, "velocity": 71}, {"time": 2747, "pitch": 60, "duration": 2, "velocity": 108}, {"time": 2750, "pitch": 43, "duration": 11, "velocity": 103}, {"time": 2750, "pitch": 55, "duration": 3, "velocity": 103}, {"time": 2750, "pitch": 58, "duration": 4, "velocity": 115}, {"time": 2753, "pitch": 50, "duration": 7, "velocity": 103}, {"time": 2756, "pitch": 55, "duration": 4, "velocity": 107}, {"time": 2762, "pitch": 41, "duration": 7, "velocity": 104}, {"time": 2762, "pitch": 53, "duration": 8, "velocity": 108}, {"time": 2768, "pitch": 48, "duration": 3, "velocity": 96}, {"time": 2774, "pitch": 39, "duration": 16, "velocity": 106}, {"time": 2774, "pitch": 63, "duration": 3, "velocity": 98}, {"time": 2774, "pitch": 67, "duration": 6, "velocity": 96}, {"time": 2777, "pitch": 46, "duration": 10, "velocity": 89}, {"time": 2780, "pitch": 63, "duration": 4, "velocity": 103}, {"time": 2783, "pitch": 67, "duration": 2, "velocity": 99}, {"time": 2786, "pitch": 63, "duration": 4, "velocity": 110}, {"time": 2786, "pitch": 70, "duration": 3, "velocity": 110}, {"time": 2789, "pitch": 46, "duration": 1, "velocity": 96}, {"time": 2792, "pitch": 63, "duration": 2, "velocity": 102}, {"time": 2792, "pitch": 67, "duration": 3, "velocity": 101}, {"time": 2792, "pitch": 70, "duration": 4, "velocity": 96}, {"time": 2795, "pitch": 63, "duration": 3, "velocity": 98}, {"time": 2798, "pitch": 48, "duration": 14, "velocity": 105}, {"time": 2801, "pitch": 55, "duration": 4, "velocity": 101}, {"time": 2804, "pitch": 60, "duration": 3, "velocity": 110}, {"time": 2804, "pitch": 67, "duration": 1, "velocity": 90}, {"time": 2807, "pitch": 55, "duration": 3, "velocity": 103}, {"time": 2810, "pitch": 60, "duration": 3, "velocity": 105}, {"time": 2810, "pitch": 63, "duration": 2, "velocity": 118}, {"time": 2810, "pitch": 67, "duration": 3, "velocity": 103}, {"time": 2813, "pitch": 48, "duration": 4, "velocity": 80}, {"time": 2813, "pitch": 55, "duration": 3, "velocity": 102}, {"time": 2816, "pitch": 60, "duration": 1, "velocity": 105}, {"time": 2816, "pitch": 63, "duration": 3, "velocity": 106}, {"time": 2819, "pitch": 60, "duration": 2, "velocity": 110}, {"time": 2822, "pitch": 41, "duration": 16, "velocity": 105}, {"time": 2822, "pitch": 65, "duration": 5, "velocity": 101}, {"time": 2822, "pitch": 69, "duration": 5, "velocity": 103}, {"time": 2822, "pitch": 72, "duration": 5, "velocity": 103}, {"time": 2828, "pitch": 48, "duration": 6, "velocity": 97}, {"time": 2831, "pitch": 65, "duration": 1, "velocity": 104}, {"time": 2834, "pitch": 65, "duration": 3, "velocity": 118}, {"time": 2834, "pitch": 72, "duration": 4, "velocity": 104}, {"time": 2837, "pitch": 48, "duration": 2, "velocity": 107}, {"time": 2840, "pitch": 65, "duration": 4, "velocity": 108}, {"time": 2843, "pitch": 72, "duration": 1, "velocity": 101}, {"time": 2846, "pitch": 44, "duration": 7, "velocity": 106}, {"time": 2846, "pitch": 68, "duration": 6, "velocity": 104}, {"time": 2846, "pitch": 72, "duration": 6, "velocity": 103}, {"time": 2852, "pitch": 51, "duration": 4, "velocity": 97}, {"time": 2858, "pitch": 44, "duration": 4, "velocity": 107}, {"time": 2858, "pitch": 51, "duration": 5, "velocity": 105}, {"time": 2858, "pitch": 68, "duration": 6, "velocity": 107}, {"time": 2858, "pitch": 72, "duration": 9, "velocity": 105}, {"time": 2864, "pitch": 44, "duration": 1, "velocity": 102}, {"time": 2867, "pitch": 68, "duration": 2, "velocity": 103}, {"time": 2870, "pitch": 46, "duration": 10, "velocity": 118}, {"time": 2873, "pitch": 53, "duration": 7, "velocity": 106}, {"time": 2876, "pitch": 58, "duration": 4, "velocity": 102}, {"time": 2879, "pitch": 62, "duration": 1, "velocity": 100}, {"time": 2882, "pitch": 46, "duration": 3, "velocity": 106}, {"time": 2882, "pitch": 53, "duration": 5, "velocity": 102}, {"time": 2882, "pitch": 58, "duration": 3, "velocity": 112}, {"time": 2882, "pitch": 62, "duration": 4, "velocity": 110}, {"time": 2888, "pitch": 46, "duration": 1, "velocity": 108}, {"time": 2894, "pitch": 51, "duration": 6, "velocity": 118}, {"time": 2894, "pitch": 63, "duration": 2, "velocity": 108}, {"time": 2894, "pitch": 67, "duration": 3, "velocity": 104}, {"time": 2900, "pitch": 58, "duration": 5, "velocity": 103}, {"time": 2903, "pitch": 63, "duration": 1, "velocity": 108}, {"time": 2906, "pitch": 63, "duration": 4, "velocity": 117}, {"time": 2906, "pitch": 67, "duration": 5, "velocity": 107}, {"time": 2906, "pitch": 70, "duration": 7, "velocity": 103}, {"time": 2909, "pitch": 51, "duration": 1, "velocity": 97}, {"time": 2909, "pitch": 58, "duration": 2, "velocity": 94}, {"time": 2912, "pitch": 63, "duration": 3, "velocity": 110}, {"time": 2915, "pitch": 70, "duration": 2, "velocity": 106}, {"time": 2918, "pitch": 43, "duration": 17, "velocity": 105}, {"time": 2921, "pitch": 50, "duration": 5, "velocity": 105}, {"time": 2924, "pitch": 55, "duration": 4, "velocity": 122}, {"time": 2927, "pitch": 58, "duration": 1, "velocity": 97}, {"time": 2930, "pitch": 55, "duration": 5, "velocity": 107}, {"time": 2930, "pitch": 58, "duration": 5, "velocity": 108}, {"time": 2930, "pitch": 62, "duration": 6, "velocity": 108}, {"time": 2936, "pitch": 43, "duration": 4, "velocity": 75}, {"time": 2936, "pitch": 50, "duration": 4, "velocity": 103}, {"time": 2939, "pitch": 55, "duration": 2, "velocity": 101}, {"time": 2939, "pitch": 62, "duration": 1, "velocity": 88}, {"time": 2942, "pitch": 43, "duration": 18, "velocity": 105}, {"time": 2942, "pitch": 55, "duration": 10, "velocity": 101}, {"time": 2942, "pitch": 58, "duration": 7, "velocity": 96}, {"time": 2942, "pitch": 62, "duration": 9, "velocity": 102}, {"time": 2948, "pitch": 50, "duration": 9, "velocity": 97}, {"time": 2954, "pitch": 55, "duration": 1, "velocity": 82}, {"time": 2954, "pitch": 58, "duration": 6, "velocity": 103}, {"time": 2954, "pitch": 62, "duration": 6, "velocity": 102}, {"time": 2954, "pitch": 67, "duration": 8, "velocity": 101}, {"time": 2960, "pitch": 55, "duration": 1, "velocity": 107}, {"time": 2966, "pitch": 48, "duration": 21, "velocity": 107}, {"time": 2966, "pitch": 60, "duration": 8, "velocity": 103}, {"time": 2966, "pitch": 63, "duration": 6, "velocity": 102}, {"time": 2972, "pitch": 55, "duration": 7, "velocity": 97}, {"time": 2978, "pitch": 63, "duration": 3, "velocity": 110}, {"time": 2978, "pitch": 67, "duration": 4, "velocity": 106}, {"time": 2981, "pitch": 55, "duration": 4, "velocity": 102}, {"time": 2984, "pitch": 60, "duration": 3, "velocity": 104}, {"time": 2984, "pitch": 67, "duration": 1, "velocity": 71}, {"time": 2987, "pitch": 63, "duration": 1, "velocity": 107}, {"time": 2987, "pitch": 67, "duration": 1, "velocity": 84}, {"time": 2990, "pitch": 48, "duration": 23, "velocity": 108}, {"time": 2990, "pitch": 60, "duration": 8, "velocity": 97}, {"time": 2990, "pitch": 63, "duration": 8, "velocity": 97}, {"time": 2990, "pitch": 72, "duration": 7, "velocity": 102}, {"time": 2996, "pitch": 55, "duration": 12, "velocity": 89}, {"time": 3002, "pitch": 60, "duration": 3, "velocity": 99}, {"time": 3002, "pitch": 63, "duration": 12, "velocity": 101}, {"time": 3002, "pitch": 67, "duration": 12, "velocity": 100}, {"time": 3008, "pitch": 60, "duration": 6, "velocity": 90}, {"time": 3014, "pitch": 48, "duration": 17, "velocity": 100}, {"time": 3014, "pitch": 60, "duration": 1, "velocity": 103}, {"time": 3014, "pitch": 63, "duration": 1, "velocity": 102}, {"time": 3017, "pitch": 55, "duration": 3, "velocity": 101}, {"time": 3020, "pitch": 60, "duration": 2, "velocity": 95}, {"time": 3023, "pitch": 55, "duration": 1, "velocity": 91}, {"time": 3026, "pitch": 55, "duration": 2, "velocity": 112}, {"time": 3026, "pitch": 63, "duration": 4, "velocity": 115}, {"time": 3029, "pitch": 55, "duration": 1, "velocity": 101}, {"time": 3032, "pitch": 60, "duration": 2, "velocity": 105}, {"time": 3035, "pitch": 55, "duration": 1, "velocity": 103}, {"time": 3038, "pitch": 43, "duration": 7, "velocity": 103}, {"time": 3038, "pitch": 55, "duration": 3, "velocity": 107}, {"time": 3038, "pitch": 62, "duration": 7, "velocity": 108}, {"time": 3044, "pitch": 55, "duration": 4, "velocity": 103}, {"time": 3050, "pitch": 44, "duration": 6, "velocity": 108}, {"time": 3050, "pitch": 56, "duration": 5, "velocity": 105}, {"time": 3050, "pitch": 60, "duration": 6, "velocity": 107}, {"time": 3056, "pitch": 51, "duration": 4, "velocity": 102}, {"time": 3059, "pitch": 56, "duration": 1, "velocity": 115}, {"time": 3062, "pitch": 46, "duration": 14, "velocity": 107}, {"time": 3062, "pitch": 58, "duration": 3, "velocity": 110}, {"time": 3065, "pitch": 53, "duration": 10, "velocity": 100}, {"time": 3068, "pitch": 58, "duration": 2, "velocity": 110}, {"time": 3074, "pitch": 58, "duration": 2, "velocity": 122}, {"time": 3074, "pitch": 62, "duration": 4, "velocity": 112}, {"time": 3077, "pitch": 53, "duration": 2, "velocity": 102}, {"time": 3080, "pitch": 58, "duration": 3, "velocity": 115}, {"time": 3083, "pitch": 62, "duration": 1, "velocity": 103}, {"time": 3086, "pitch": 48, "duration": 13, "velocity": 108}, {"time": 3086, "pitch": 60, "duration": 3, "velocity": 102}, {"time": 3086, "pitch": 63, "duration": 3, "velocity": 117}, {"time": 3089, "pitch": 55, "duration": 4, "velocity": 97}, {"time": 3092, "pitch": 60, "duration": 3, "velocity": 106}, {"time": 3095, "pitch": 55, "duration": 3, "velocity": 96}, {"time": 3098, "pitch": 60, "duration": 3, "velocity": 103}, {"time": 3098, "pitch": 67, "duration": 2, "velocity": 105}, {"time": 3101, "pitch": 48, "duration": 1, "velocity": 80}, {"time": 3101, "pitch": 55, "duration": 2, "velocity": 103}, {"time": 3104, "pitch": 60, "duration": 1, "velocity": 98}, {"time": 3104, "pitch": 63, "duration": 1, "velocity": 107}, {"time": 3110, "pitch": 44, "duration": 13, "velocity": 107}, {"time": 3110, "pitch": 56, "duration": 2, "velocity": 101}, {"time": 3110, "pitch": 60, "duration": 4, "velocity": 102}, {"time": 3113, "pitch": 51, "duration": 5, "velocity": 97}, {"time": 3116, "pitch": 56, "duration": 2, "velocity": 107}, {"time": 3119, "pitch": 51, "duration": 3, "velocity": 95}, {"time": 3122, "pitch": 56, "duration": 2, "velocity": 115}, {"time": 3122, "pitch": 60, "duration": 3, "velocity": 112}, {"time": 3125, "pitch": 51, "duration": 2, "velocity": 103}, {"time": 3128, "pitch": 56, "duration": 3, "velocity": 110}, {"time": 3128, "pitch": 60, "duration": 1, "velocity": 71}, {"time": 3131, "pitch": 60, "duration": 2, "velocity": 108}, {"time": 3134, "pitch": 43, "duration": 11, "velocity": 103}, {"time": 3134, "pitch": 55, "duration": 3, "velocity": 103}, {"time": 3134, "pitch": 58, "duration": 4, "velocity": 115}, {"time": 3137, "pitch": 50, "duration": 7, "velocity": 103}, {"time": 3140, "pitch": 55, "duration": 4, "velocity": 107}, {"time": 3146, "pitch": 41, "duration": 7, "velocity": 104}, {"time": 3146, "pitch": 53, "duration": 8, "velocity": 108}, {"time": 3152, "pitch": 48, "duration": 3, "velocity": 96}, {"time": 3158, "pitch": 39, "duration": 16, "velocity": 106}, {"time": 3158, "pitch": 63, "duration": 3, "velocity": 98}, {"time": 3158, "pitch": 67, "duration": 6, "velocity": 96}, {"time": 3161, "pitch": 46, "duration": 10, "velocity": 89}, {"time": 3164, "pitch": 63, "duration": 4, "velocity": 103}, {"time": 3167, "pitch": 67, "duration": 2, "velocity": 99}, {"time": 3170, "pitch": 63, "duration": 4, "velocity": 110}, {"time": 3170, "pitch": 70, "duration": 3, "velocity": 110}, {"time": 3173, "pitch": 46, "duration": 1, "velocity": 96}, {"time": 3176, "pitch": 63, "duration": 2, "velocity": 102}, {"time": 3176, "pitch": 67, "duration": 3, "velocity": 101}, {"time": 3176, "pitch": 70, "duration": 4, "velocity": 96}, {"time": 3179, "pitch": 63, "duration": 3, "velocity": 98}, {"time": 3182, "pitch": 48, "duration": 14, "velocity": 105}, {"time": 3185, "pitch": 55, "duration": 4, "velocity": 101}, {"time": 3188, "pitch": 60, "duration": 3, "velocity": 110}, {"time": 3188, "pitch": 67, "duration": 1, "velocity": 90}, {"time": 3191, "pitch": 55, "duration": 3, "velocity": 103}, {"time": 3194, "pitch": 60, "duration": 3, "velocity": 105}, {"time": 3194, "pitch": 63, "duration": 2, "velocity": 118}, {"time": 3194, "pitch": 67, "duration": 3, "velocity": 103}, {"time": 3197, "pitch": 48, "duration": 4, "velocity": 80}, {"time": 3197, "pitch": 55, "duration": 3, "velocity": 102}, {"time": 3200, "pitch": 60, "duration": 1, "velocity": 105}, {"time": 3200, "pitch": 63, "duration": 3, "velocity": 106}, {"time": 3203, "pitch": 60, "duration": 2, "velocity": 110}, {"time": 3206, "pitch": 41, "duration": 16, "velocity": 105}, {"time": 3206, "pitch": 65, "duration": 5, "velocity": 101}, {"time": 3206, "pitch": 69, "duration": 5, "velocity": 103}, {"time": 3206, "pitch": 72, "duration": 5, "velocity": 103}, {"time": 3212, "pitch": 48, "duration": 6, "velocity": 97}, {"time": 3215, "pitch": 65, "duration": 1, "velocity": 104}, {"time": 3218, "pitch": 65, "duration": 3, "velocity": 118}, {"time": 3218, "pitch": 72, "duration": 4, "velocity": 104}, {"time": 3221, "pitch": 48, "duration": 2, "velocity": 107}, {"time": 3224, "pitch": 65, "duration": 4, "velocity": 108}, {"time": 3227, "pitch": 72, "duration": 1, "velocity": 101}, {"time": 3230, "pitch": 44, "duration": 7, "velocity": 106}, {"time": 3230, "pitch": 68, "duration": 6, "velocity": 104}, {"time": 3230, "pitch": 72, "duration": 6, "velocity": 103}, {"time": 3236, "pitch": 51, "duration": 4, "velocity": 97}, {"time": 3242, "pitch": 44, "duration": 4, "velocity": 107}, {"time": 3242, "pitch": 51, "duration": 5, "velocity": 105}, {"time": 3242, "pitch": 68, "duration": 6, "velocity": 107}, {"time": 3242, "pitch": 72, "duration": 9, "velocity": 105}, {"time": 3248, "pitch": 44, "duration": 1, "velocity": 102}, {"time": 3251, "pitch": 68, "duration": 2, "velocity": 103}, {"time": 3254, "pitch": 46, "duration": 10, "velocity": 118}, {"time": 3257, "pitch": 53, "duration": 7, "velocity": 106}, {"time": 3260, "pitch": 58, "duration": 4, "velocity": 102}, {"time": 3263, "pitch": 62, "duration": 1, "velocity": 100}, {"time": 3266, "pitch": 46, "duration": 3, "velocity": 106}, {"time": 3266, "pitch": 53, "duration": 5, "velocity": 102}, {"time": 3266, "pitch": 58, "duration": 3, "velocity": 112}, {"time": 3266, "pitch": 62, "duration": 4, "velocity": 110}, {"time": 3272, "pitch": 46, "duration": 1, "velocity": 108}, {"time": 3278, "pitch": 51, "duration": 6, "velocity": 118}, {"time": 3278, "pitch": 63, "duration": 2, "velocity": 108}, {"time": 3278, "pitch": 67, "duration": 3, "velocity": 104}, {"time": 3284, "pitch": 58, "duration": 5, "velocity": 103}, {"time": 3287, "pitch": 63, "duration": 1, "velocity": 108}, {"time": 3290, "pitch": 63, "duration": 4, "velocity": 117}, {"time": 3290, "pitch": 67, "duration": 5, "velocity": 107}, {"time": 3290, "pitch": 70, "duration": 7, "velocity": 103}, {"time": 3293, "pitch": 51, "duration": 1, "velocity": 97}, {"time": 3293, "pitch": 58, "duration": 2, "velocity": 94}, {"time": 3296, "pitch": 63, "duration": 3, "velocity": 110}, {"time": 3299, "pitch": 70, "duration": 2, "velocity": 106}, {"time": 3302, "pitch": 43, "duration": 17, "velocity": 105}, {"time": 3305, "pitch": 50, "duration": 5, "velocity": 105}, {"time": 3308, "pitch": 55, "duration": 4, "velocity": 122}, {"time": 3311, "pitch": 58, "duration": 1, "velocity": 97}, {"time": 3314, "pitch": 55, "duration": 5, "velocity": 107}, {"time": 3314, "pitch": 58, "duration": 5, "velocity": 108}, {"time": 3314, "pitch": 62, "duration": 6, "velocity": 108}, {"time": 3320, "pitch": 43, "duration": 4, "velocity": 75}, {"time": 3320, "pitch": 50, "duration": 4, "velocity": 103}, {"time": 3323, "pitch": 55, "duration": 2, "velocity": 101}, {"time": 3323, "pitch": 62, "duration": 1, "velocity": 88}, {"time": 3326, "pitch": 43, "duration": 18, "velocity": 105}, {"time": 3326, "pitch": 55, "duration": 10, "velocity": 101}, {"time": 3326, "pitch": 58, "duration": 7, "velocity": 96}, {"time": 3326, "pitch": 62, "duration": 9, "velocity": 102}, {"time": 3332, "pitch": 50, "duration": 9, "velocity": 97}, {"time": 3338, "pitch": 55, "duration": 1, "velocity": 82}, {"time": 3338, "pitch": 58, "duration": 6, "velocity": 103}, {"time": 3338, "pitch": 62, "duration": 6, "velocity": 102}, {"time": 3338, "pitch": 67, "duration": 8, "velocity": 101}, {"time": 3344, "pitch": 55, "duration": 1, "velocity": 107}, {"time": 3350, "pitch": 44, "duration": 36, "velocity": 100}, {"time": 3350, "pitch": 68, "duration": 12, "velocity": 90}, {"time": 3356, "pitch": 51, "duration": 9, "velocity": 88}, {"time": 3362, "pitch": 56, "duration": 7, "velocity": 106}, {"time": 3368, "pitch": 60, "duration": 4, "velocity": 96}, {"time": 3374, "pitch": 56, "duration": 10, "velocity": 99}, {"time": 3374, "pitch": 63, "duration": 7, "velocity": 91}, {"time": 3374, "pitch": 68, "duration": 9, "velocity": 95}, {"time": 3386, "pitch": 56, "duration": 3, "velocity": 98}, {"time": 3386, "pitch": 60, "duration": 2, "velocity": 97}, {"time": 3386, "pitch": 63, "duration": 3, "velocity": 97}, {"time": 3398, "pitch": 43, "duration": 40, "velocity": 96}, {"time": 3398, "pitch": 55, "duration": 13, "velocity": 96}, {"time": 3398, "pitch": 58, "duration": 8, "velocity": 95}, {"time": 3404, "pitch": 50, "duration": 21, "velocity": 87}, {"time": 3410, "pitch": 62, "duration": 9, "velocity": 96}, {"time": 3416, "pitch": 55, "duration": 4, "velocity": 43}, {"time": 3416, "pitch": 58, "duration": 3, "velocity": 98}, {"time": 3422, "pitch": 55, "duration": 10, "velocity": 93}, {"time": 3422, "pitch": 58, "duration": 2, "velocity": 86}, {"time": 3422, "pitch": 62, "duration": 10, "velocity": 92}, {"time": 3422, "pitch": 67, "duration": 10, "velocity": 88}, {"time": 3428, "pitch": 50, "duration": 7, "velocity": 89}, {"time": 3434, "pitch": 55, "duration": 5, "velocity": 91}, {"time": 3434, "pitch": 58, "duration": 5, "velocity": 97}, {"time": 3434, "pitch": 62, "duration": 5, "velocity": 96}, {"time": 3445, "pitch": 60, "duration": 14, "velocity": 97}, {"time": 3445, "pitch": 41, "duration": 20, "velocity": 94}, {"time": 3451, "pitch": 48, "duration": 14, "velocity": 94}, {"time": 3457, "pitch": 53, "duration": 7, "velocity": 107}, {"time": 3463, "pitch": 60, "duration": 6, "velocity": 91}, {"time": 3469, "pitch": 65, "duration": 14, "velocity": 95}, {"time": 3469, "pitch": 43, "duration": 8, "velocity": 94}, {"time": 3476, "pitch": 50, "duration": 2, "velocity": 88}, {"time": 3483, "pitch": 55, "duration": 18, "velocity": 94}, {"time": 3487, "pitch": 62, "duration": 13, "velocity": 87}, {"time": 3490, "pitch": 67, "duration": 13, "velocity": 95}, {"time": 3493, "pitch": 70, "duration": 5, "velocity": 94}, {"time": 3496, "pitch": 74, "duration": 10, "velocity": 93}, {"time": 3500, "pitch": 79, "duration": 6, "velocity": 87}, {"time": 3511, "pitch": 48, "duration": 8, "velocity": 97}, {"time": 3515, "pitch": 55, "duration": 4, "velocity": 92}, {"time": 3517, "pitch": 60, "duration": 3, "velocity": 86}, {"time": 3520, "pitch": 62, "duration": 2, "velocity": 90}, {"time": 3522, "pitch": 63, "duration": 1, "velocity": 94}, {"time": 3524, "pitch": 60, "duration": 3, "velocity": 84}, {"time": 3526, "pitch": 67, "duration": 1, "velocity": 86}, {"time": 3528, "pitch": 72, "duration": 3, "velocity": 89}, {"time": 3530, "pitch": 79, "duration": 2, "velocity": 86}, {"time": 3533, "pitch": 72, "duration": 40, "velocity": 92}, {"time": 3536, "pitch": 79, "duration": 37, "velocity": 85}, {"time": 3538, "pitch": 84, "duration": 8, "velocity": 89}, {"time": 3541, "pitch": 91, "duration": 6, "velocity": 83}, {"time": 3545, "pitch": 96, "duration": 3, "velocity": 91}], "annotations": [{"time": 37, "annotation": {"number": 64, "value": 127}, "group": "control_change"}, {"time": 61, "annotation": {"number": 64, "value": 0}, "group": "control_change"}, {"time": 64, "annotation": {"number": 64, "value": 127}, "group": "control_change"}, {"time": 86, "annotation": {"number": 64, "value": 0}, "group": "control_change"}, {"time": 88, "annotation": {"number": 64, "value": 127}, "group": "control_change"}, {"time": 110, "annotation": {"number": 64, "value": 0}, "group": "control_change"}, {"time": 111, "annotation": {"number": 64, "value": 127}, "group": "control_change"}, {"time": 133, "annotation": {"number": 64, "value": 0}, "group": "control_change"}, {"time": 135, "annotation": {"number": 64, "value": 127}, "group": "control_change"}, {"time": 158, "annotation": {"number": 64, "value": 0}, "group": "control_change"}, {"time": 159, "annotation": {"number": 64, "value": 127}, "group": "control_change"}, {"time": 181, "annotation": {"number": 64, "value": 0}, "group": "control_change"}, {"time": 182, "annotation": {"number": 64, "value": 127}, "group": "control_change"}, {"time": 229, "annotation": {"number": 64, "value": 0}, "group": "control_change"}, {"time": 230, "annotation": {"number": 64, "value": 127}, "group": "control_change"}, {"time": 252, "annotation": {"number": 64, "value": 0}, "group": "control_change"}, {"time": 257, "annotation": {"number": 64, "value": 127}, "group": "control_change"}, {"time": 276, "annotation": {"number": 64, "value": 0}, "group": "control_change"}, {"time": 280, "annotation": {"number": 64, "value": 127}, "group": "control_change"}, {"time": 295, "annotation": {"number": 64, "value": 127}, "group": "control_change"}, {"time": 298, "annotation": {"number": 64, "value": 0}, "group": "control_change"}, {"time": 302, "annotation": {"number": 64, "value": 0}, "group": "control_change"}, {"time": 302, "annotation": {"number": 64, "value": 127}, "group": "control_change"}, {"time": 325, "annotation": {"number": 64, "value": 0}, "group": "control_change"}, {"time": 343, "annotation": {"number": 64, "value": 127}, "group": "control_change"}, {"time": 360, "annotation": {"number": 64, "value": 0}, "group": "control_change"}, {"time": 360, "annotation": {"number": 64, "value": 127}, "group": "control_change"}, {"time": 374, "annotation": {"number": 64, "value": 0}, "group": "control_change"}, {"time": 376, "annotation": {"number": 64, "value": 127}, "group": "control_change"}, {"time": 397, "annotation": {"number": 64, "value": 0}, "group": "control_change"}, {"time": 403, "annotation": {"number": 64, "value": 127}, "group": "control_change"}, {"time": 420, "annotation": {"number": 64, "value": 0}, "group": "control_change"}, {"time": 423, "annotation": {"number": 64, "value": 127}, "group": "control_change"}, {"time": 446, "annotation": {"number": 64, "value": 0}, "group": "control_change"}, {"time": 451, "annotation": {"number": 64, "value": 127}, "group": "control_change"}, {"time": 469, "annotation": {"number": 64, "value": 0}, "group": "control_change"}, {"time": 475, "annotation": {"number": 64, "value": 127}, "group": "control_change"}, {"time": 493, "annotation": {"number": 64, "value": 0}, "group": "control_change"}, {"time": 495, "annotation": {"number": 64, "value": 127}, "group": "control_change"}, {"time": 521, "annotation": {"number": 64, "value": 127}, "group": "control_change"}, {"time": 542, "annotation": {"number": 64, "value": 0}, "group": "control_change"}, {"time": 548, "annotation": {"number": 64, "value": 127}, "group": "control_change"}, {"time": 564, "annotation": {"number": 64, "value": 0}, "group": "control_change"}, {"time": 569, "annotation": {"number": 64, "value": 127}, "group": "control_change"}, {"time": 589, "annotation": {"number": 64, "value": 0}, "group": "control_change"}, {"time": 591, "annotation": {"number": 64, "value": 127}, "group": "control_change"}, {"time": 612, "annotation": {"number": 64, "value": 0}, "group": "control_change"}, {"time": 615, "annotation": {"number": 64, "value": 127}, "group": "control_change"}, {"time": 638, "annotation": {"number": 64, "value": 0}, "group": "control_change"}, {"time": 640, "annotation": {"number": 64, "value": 127}, "group": "control_change"}, {"time": 661, "annotation": {"number": 64, "value": 0}, "group": "control_change"}, {"time": 666, "annotation": {"number": 64, "value": 127}, "group": "control_change"}, {"time": 685, "annotation": {"number": 64, "value": 0}, "group": "control_change"}, {"time": 687, "annotation": {"number": 64, "value": 127}, "group": "control_change"}, {"time": 708, "annotation": {"number": 64, "value": 0}, "group": "control_change"}, {"time": 714, "annotation": {"number": 64, "value": 127}, "group": "control_change"}, {"time": 734, "annotation": {"number": 64, "value": 0}, "group": "control_change"}, {"time": 741, "annotation": {"number": 64, "value": 127}, "group": "control_change"}, {"time": 756, "annotation": {"number": 64, "value": 0}, "group": "control_change"}, {"time": 759, "annotation": {"number": 64, "value": 127}, "group": "control_change"}, {"time": 781, "annotation": {"number": 64, "value": 0}, "group": "control_change"}, {"time": 785, "annotation": {"number": 64, "value": 127}, "group": "control_change"}, {"time": 806, "annotation": {"number": 64, "value": 0}, "group": "control_change"}, {"time": 811, "annotation": {"number": 64, "value": 127}, "group": "control_change"}, {"time": 830, "annotation": {"number": 64, "value": 0}, "group": "control_change"}, {"time": 831, "annotation": {"number": 64, "value": 127}, "group": "control_change"}, {"time": 853, "annotation": {"number": 64, "value": 0}, "group": "control_change"}, {"time": 858, "annotation": {"number": 64, "value": 127}, "group": "control_change"}, {"time": 879, "annotation": {"number": 64, "value": 0}, "group": "control_change"}, {"time": 883, "annotation": {"number": 64, "value": 127}, "group": "control_change"}, {"time": 901, "annotation": {"number": 64, "value": 0}, "group": "control_change"}, {"time": 904, "annotation": {"number": 64, "value": 127}, "group": "control_change"}, {"time": 926, "annotation": {"number": 64, "value": 0}, "group": "control_change"}, {"time": 928, "annotation": {"number": 64, "value": 127}, "group": "control_change"}, {"time": 950, "annotation": {"number": 64, "value": 0}, "group": "control_change"}, {"time": 955, "annotation": {"number": 64, "value": 127}, "group": "control_change"}, {"time": 973, "annotation": {"number": 64, "value": 0}, "group": "control_change"}, {"time": 975, "annotation": {"number": 64, "value": 127}, "group": "control_change"}, {"time": 997, "annotation": {"number": 64, "value": 0}, "group": "control_change"}, {"time": 999, "annotation": {"number": 64, "value": 127}, "group": "control_change"}, {"time": 1014, "annotation": {"number": 64, "value": 127}, "group": "control_change"}, {"time": 1015, "annotation": {"number": 64, "value": 0}, "group": "control_change"}, {"time": 1020, "annotation": {"number": 64, "value": 0}, "group": "control_change"}, {"time": 1046, "annotation": {"number": 64, "value": 127}, "group": "control_change"}, {"time": 1068, "annotation": {"number": 64, "value": 0}, "group": "control_change"}, {"time": 1070, "annotation": {"number": 64, "value": 127}, "group": "control_change"}, {"time": 1081, "annotation": {"number": 64, "value": 0}, "group": "control_change"}, {"time": 1083, "annotation": {"number": 64, "value": 127}, "group": "control_change"}, {"time": 1093, "annotation": {"number": 64, "value": 0}, "group": "control_change"}, {"time": 1095, "annotation": {"number": 64, "value": 127}, "group": "control_change"}, {"time": 1116, "annotation": {"number": 64, "value": 0}, "group": "control_change"}, {"time": 1119, "annotation": {"number": 64, "value": 127}, "group": "control_change"}, {"time": 1141, "annotation": {"number": 64, "value": 0}, "group": "control_change"}, {"time": 1144, "annotation": {"number": 64, "value": 127}, "group": "control_change"}, {"time": 1164, "annotation": {"number": 64, "value": 0}, "group": "control_change"}, {"time": 1167, "annotation": {"number": 64, "value": 127}, "group": "control_change"}, {"time": 1179, "annotation": {"number": 64, "value": 0}, "group": "control_change"}, {"time": 1181, "annotation": {"number": 64, "value": 127}, "group": "control_change"}, {"time": 1189, "annotation": {"number": 64, "value": 0}, "group": "control_change"}, {"time": 1191, "annotation": {"number": 64, "value": 127}, "group": "control_change"}, {"time": 1212, "annotation": {"number": 64, "value": 0}, "group": "control_change"}, {"time": 1216, "annotation": {"number": 64, "value": 127}, "group": "control_change"}, {"time": 1237, "annotation": {"number": 64, "value": 0}, "group": "control_change"}, {"time": 1239, "annotation": {"number": 64, "value": 127}, "group": "control_change"}, {"time": 1262, "annotation": {"number": 64, "value": 0}, "group": "control_change"}, {"time": 1264, "annotation": {"number": 64, "value": 127}, "group": "control_change"}, {"time": 1285, "annotation": {"number": 64, "value": 0}, "group": "control_change"}, {"time": 1287, "annotation": {"number": 64, "value": 127}, "group": "control_change"}, {"time": 1310, "annotation": {"number": 64, "value": 0}, "group": "control_change"}, {"time": 1311, "annotation": {"number": 64, "value": 127}, "group": "control_change"}, {"time": 1333, "annotation": {"number": 64, "value": 0}, "group": "control_change"}, {"time": 1335, "annotation": {"number": 64, "value": 127}, "group": "control_change"}, {"time": 1357, "annotation": {"number": 64, "value": 0}, "group": "control_change"}, {"time": 1358, "annotation": {"number": 64, "value": 127}, "group": "control_change"}, {"time": 1382, "annotation": {"number": 64, "value": 0}, "group": "control_change"}, {"time": 1386, "annotation": {"number": 64, "value": 127}, "group": "control_change"}, {"time": 1406, "annotation": {"number": 64, "value": 0}, "group": "control_change"}, {"time": 1407, "annotation": {"number": 64, "value": 127}, "group": "control_change"}, {"time": 1429, "annotation": {"number": 64, "value": 0}, "group": "control_change"}, {"time": 1431, "annotation": {"number": 64, "value": 127}, "group": "control_change"}, {"time": 1476, "annotation": {"number": 64, "value": 0}, "group": "control_change"}, {"time": 1482, "annotation": {"number": 64, "value": 127}, "group": "control_change"}, {"time": 1525, "annotation": {"number": 64, "value": 0}, "group": "control_change"}, {"time": 1526, "annotation": {"number": 64, "value": 127}, "group": "control_change"}, {"time": 1573, "annotation": {"number": 64, "value": 0}, "group": "control_change"}, {"time": 1574, "annotation": {"number": 64, "value": 127}, "group": "control_change"}, {"time": 1605, "annotation": {"number": 64, "value": 0}, "group": "control_change"}, {"time": 1607, "annotation": {"number": 64, "value": 127}, "group": "control_change"}, {"time": 1621, "annotation": {"number": 64, "value": 0}, "group": "control_change"}, {"time": 1622, "annotation": {"number": 64, "value": 127}, "group": "control_change"}, {"time": 1645, "annotation": {"number": 64, "value": 0}, "group": "control_change"}, {"time": 1648, "annotation": {"number": 64, "value": 127}, "group": "control_change"}, {"time": 1672, "annotation": {"number": 64, "value": 127}, "group": "control_change"}, {"time": 1694, "annotation": {"number": 64, "value": 0}, "group": "control_change"}, {"time": 1697, "annotation": {"number": 64, "value": 127}, "group": "control_change"}, {"time": 1718, "annotation": {"number": 64, "value": 0}, "group": "control_change"}, {"time": 1720, "annotation": {"number": 64, "value": 127}, "group": "control_change"}, {"time": 1741, "annotation": {"number": 64, "value": 0}, "group": "control_change"}, {"time": 1744, "annotation": {"number": 64, "value": 127}, "group": "control_change"}, {"time": 1765, "annotation": {"number": 64, "value": 0}, "group": "control_change"}, {"time": 1766, "annotation": {"number": 64, "value": 127}, "group": "control_change"}, {"time": 1813, "annotation": {"number": 64, "value": 0}, "group": "control_change"}, {"time": 1814, "annotation": {"number": 64, "value": 127}, "group": "control_change"}, {"time": 1836, "annotation": {"number": 64, "value": 0}, "group": "control_change"}, {"time": 1841, "annotation": {"number": 64, "value": 127}, "group": "control_change"}, {"time": 1860, "annotation": {"number": 64, "value": 0}, "group": "control_change"}, {"time": 1864, "annotation": {"number": 64, "value": 127}, "group": "control_change"}, {"time": 1879, "annotation": {"number": 64, "value": 127}, "group": "control_change"}, {"time": 1882, "annotation": {"number": 64, "value": 0}, "group": "control_change"}, {"time": 1886, "annotation": {"number": 64, "value": 0}, "group": "control_change"}, {"time": 1886, "annotation": {"number": 64, "value": 127}, "group": "control_change"}, {"time": 1909, "annotation": {"number": 64, "value": 0}, "group": "control_change"}, {"time": 1927, "annotation": {"number": 64, "value": 127}, "group": "control_change"}, {"time": 1944, "annotation": {"number": 64, "value": 0}, "group": "control_change"}, {"time": 1944, "annotation": {"number": 64, "value": 127}, "group": "control_change"}, {"time": 1958, "annotation": {"number": 64, "value": 0}, "group": "control_change"}, {"time": 1960, "annotation": {"number": 64, "value": 127}, "group": "control_change"}, {"time": 1981, "annotation": {"number": 64, "value": 0}, "group": "control_change"}, {"time": 1987, "annotation": {"number": 64, "value": 127}, "group": "control_change"}, {"time": 2004, "annotation": {"number": 64, "value": 0}, "group": "control_change"}, {"time": 2007, "annotation": {"number": 64, "value": 127}, "group": "control_change"}, {"time": 2030, "annotation": {"number": 64, "value": 0}, "group": "control_change"}, {"time": 2035, "annotation": {"number": 64, "value": 127}, "group": "control_change"}, {"time": 2053, "annotation": {"number": 64, "value": 0}, "group": "control_change"}, {"time": 2059, "annotation": {"number": 64, "value": 127}, "group": "control_change"}, {"time": 2077, "annotation": {"number": 64, "value": 0}, "group": "control_change"}, {"time": 2079, "annotation": {"number": 64, "value": 127}, "group": "control_change"}, {"time": 2105, "annotation": {"number": 64, "value": 127}, "group": "control_change"}, {"time": 2126, "annotation": {"number": 64, "value": 0}, "group": "control_change"}, {"time": 2132, "annotation": {"number": 64, "value": 127}, "group": "control_change"}, {"time": 2148, "annotation": {"number": 64, "value": 0}, "group": "control_change"}, {"time": 2153, "annotation": {"number": 64, "value": 127}, "group": "control_change"}, {"time": 2173, "annotation": {"number": 64, "value": 0}, "group": "control_change"}, {"time": 2175, "annotation": {"number": 64, "value": 127}, "group": "control_change"}, {"time": 2196, "annotation": {"number": 64, "value": 0}, "group": "control_change"}, {"time": 2199, "annotation": {"number": 64, "value": 127}, "group": "control_change"}, {"time": 2221, "annotation": {"number": 64, "value": 0}, "group": "control_change"}, {"time": 2224, "annotation": {"number": 64, "value": 127}, "group": "control_change"}, {"time": 2246, "annotation": {"number": 64, "value": 0}, "group": "control_change"}, {"time": 2251, "annotation": {"number": 64, "value": 127}, "group": "control_change"}, {"time": 2270, "annotation": {"number": 64, "value": 0}, "group": "control_change"}, {"time": 2271, "annotation": {"number": 64, "value": 127}, "group": "control_change"}, {"time": 2294, "annotation": {"number": 64, "value": 0}, "group": "control_change"}, {"time": 2298, "annotation": {"number": 64, "value": 127}, "group": "control_change"}, {"time": 2317, "annotation": {"number": 64, "value": 0}, "group": "control_change"}, {"time": 2320, "annotation": {"number": 64, "value": 127}, "group": "control_change"}, {"time": 2342, "annotation": {"number": 64, "value": 0}, "group": "control_change"}, {"time": 2345, "annotation": {"number": 64, "value": 127}, "group": "control_change"}, {"time": 2366, "annotation": {"number": 64, "value": 0}, "group": "control_change"}, {"time": 2368, "annotation": {"number": 64, "value": 127}, "group": "control_change"}, {"time": 2388, "annotation": {"number": 64, "value": 0}, "group": "control_change"}, {"time": 2392, "annotation": {"number": 64, "value": 127}, "group": "control_change"}, {"time": 2413, "annotation": {"number": 64, "value": 0}, "group": "control_change"}, {"time": 2415, "annotation": {"number": 64, "value": 127}, "group": "control_change"}, {"time": 2438, "annotation": {"number": 64, "value": 127}, "group": "control_change"}, {"time": 2463, "annotation": {"number": 64, "value": 0}, "group": "control_change"}, {"time": 2467, "annotation": {"number": 64, "value": 127}, "group": "control_change"}, {"time": 2486, "annotation": {"number": 64, "value": 0}, "group": "control_change"}, {"time": 2490, "annotation": {"number": 64, "value": 127}, "group": "control_change"}, {"time": 2510, "annotation": {"number": 64, "value": 0}, "group": "control_change"}, {"time": 2513, "annotation": {"number": 64, "value": 127}, "group": "control_change"}, {"time": 2533, "annotation": {"number": 64, "value": 0}, "group": "control_change"}, {"time": 2534, "annotation": {"number": 64, "value": 127}, "group": "control_change"}, {"time": 2558, "annotation": {"number": 64, "value": 0}, "group": "control_change"}, {"time": 2559, "annotation": {"number": 64, "value": 127}, "group": "control_change"}, {"time": 2582, "annotation": {"number": 64, "value": 0}, "group": "control_change"}, {"time": 2583, "annotation": {"number": 64, "value": 127}, "group": "control_change"}, {"time": 2598, "annotation": {"number": 64, "value": 127}, "group": "control_change"}, {"time": 2599, "annotation": {"number": 64, "value": 0}, "group": "control_change"}, {"time": 2604, "annotation": {"number": 64, "value": 0}, "group": "control_change"}, {"time": 2630, "annotation": {"number": 64, "value": 127}, "group": "control_change"}, {"time": 2652, "annotation": {"number": 64, "value": 0}, "group": "control_change"}, {"time": 2654, "annotation": {"number": 64, "value": 127}, "group": "control_change"}, {"time": 2665, "annotation": {"number": 64, "value": 0}, "group": "control_change"}, {"time": 2667, "annotation": {"number": 64, "value": 127}, "group": "control_change"}, {"time": 2677, "annotation": {"number": 64, "value": 0}, "group": "control_change"}, {"time": 2679, "annotation": {"number": 64, "value": 127}, "group": "control_change"}, {"time": 2700, "annotation": {"number": 64, "value": 0}, "group": "control_change"}, {"time": 2703, "annotation": {"number": 64, "value": 127}, "group": "control_change"}, {"time": 2725, "annotation": {"number": 64, "value": 0}, "group": "control_change"}, {"time": 2728, "annotation": {"number": 64, "value": 127}, "group": "control_change"}, {"time": 2748, "annotation": {"number": 64, "value": 0}, "group": "control_change"}, {"time": 2751, "annotation": {"number": 64, "value": 127}, "group": "control_change"}, {"time": 2763, "annotation": {"number": 64, "value": 0}, "group": "control_change"}, {"time": 2765, "annotation": {"number": 64, "value": 127}, "group": "control_change"}, {"time": 2773, "annotation": {"number": 64, "value": 0}, "group": "control_change"}, {"time": 2775, "annotation": {"number": 64, "value": 127}, "group": "control_change"}, {"time": 2796, "annotation": {"number": 64, "value": 0}, "group": "control_change"}, {"time": 2800, "annotation": {"number": 64, "value": 127}, "group": "control_change"}, {"time": 2821, "annotation": {"number": 64, "value": 0}, "group": "control_change"}, {"time": 2823, "annotation": {"number": 64, "value": 127}, "group": "control_change"}, {"time": 2846, "annotation": {"number": 64, "value": 0}, "group": "control_change"}, {"time": 2848, "annotation": {"number": 64, "value": 127}, "group": "control_change"}, {"time": 2869, "annotation": {"number": 64, "value": 0}, "group": "control_change"}, {"time": 2871, "annotation": {"number": 64, "value": 127}, "group": "control_change"}, {"time": 2894, "annotation": {"number": 64, "value": 0}, "group": "control_change"}, {"time": 2895, "annotation": {"number": 64, "value": 127}, "group": "control_change"}, {"time": 2917, "annotation": {"number": 64, "value": 0}, "group": "control_change"}, {"time": 2919, "annotation": {"number": 64, "value": 127}, "group": "control_change"}, {"time": 2941, "annotation": {"number": 64, "value": 0}, "group": "control_change"}, {"time": 2942, "annotation": {"number": 64, "value": 127}, "group": "control_change"}, {"time": 2966, "annotation": {"number": 64, "value": 0}, "group": "control_change"}, {"time": 2970, "annotation": {"number": 64, "value": 127}, "group": "control_change"}, {"time": 2990, "annotation": {"number": 64, "value": 0}, "group": "control_change"}, {"time": 2991, "annotation": {"number": 64, "value": 127}, "group": "control_change"}, {"time": 3013, "annotation": {"number": 64, "value": 0}, "group": "control_change"}, {"time": 3014, "annotation": {"number": 64, "value": 127}, "group": "control_change"}, {"time": 3036, "annotation": {"number": 64, "value": 0}, "group": "control_change"}, {"time": 3038, "annotation": {"number": 64, "value": 127}, "group": "control_change"}, {"time": 3049, "annotation": {"number": 64, "value": 0}, "group": "control_change"}, {"time": 3051, "annotation": {"number": 64, "value": 127}, "group": "control_change"}, {"time": 3061, "annotation": {"number": 64, "value": 0}, "group": "control_change"}, {"time": 3063, "annotation": {"number": 64, "value": 127}, "group": "control_change"}, {"time": 3084, "annotation": {"number": 64, "value": 0}, "group": "control_change"}, {"time": 3087, "annotation": {"number": 64, "value": 127}, "group": "control_change"}, {"time": 3109, "annotation": {"number": 64, "value": 0}, "group": "control_change"}, {"time": 3112, "annotation": {"number": 64, "value": 127}, "group": "control_change"}, {"time": 3132, "annotation": {"number": 64, "value": 0}, "group": "control_change"}, {"time": 3135, "annotation": {"number": 64, "value": 127}, "group": "control_change"}, {"time": 3147, "annotation": {"number": 64, "value": 0}, "group": "control_change"}, {"time": 3149, "annotation": {"number": 64, "value": 127}, "group": "control_change"}, {"time": 3157, "annotation": {"number": 64, "value": 0}, "group": "control_change"}, {"time": 3159, "annotation": {"number": 64, "value": 127}, "group": "control_change"}, {"time": 3180, "annotation": {"number": 64, "value": 0}, "group": "control_change"}, {"time": 3184, "annotation": {"number": 64, "value": 127}, "group": "control_change"}, {"time": 3205, "annotation": {"number": 64, "value": 0}, "group": "control_change"}, {"time": 3207, "annotation": {"number": 64, "value": 127}, "group": "control_change"}, {"time": 3230, "annotation": {"number": 64, "value": 0}, "group": "control_change"}, {"time": 3232, "annotation": {"number": 64, "value": 127}, "group": "control_change"}, {"time": 3253, "annotation": {"number": 64, "value": 0}, "group": "control_change"}, {"time": 3255, "annotation": {"number": 64, "value": 127}, "group": "control_change"}, {"time": 3278, "annotation": {"number": 64, "value": 0}, "group": "control_change"}, {"time": 3279, "annotation": {"number": 64, "value": 127}, "group": "control_change"}, {"time": 3301, "annotation": {"number": 64, "value": 0}, "group": "control_change"}, {"time": 3303, "annotation": {"number": 64, "value": 127}, "group": "control_change"}, {"time": 3325, "annotation": {"number": 64, "value": 0}, "group": "control_change"}, {"time": 3326, "annotation": {"number": 64, "value": 127}, "group": "control_change"}, {"time": 3351, "annotation": {"number": 64, "value": 127}, "group": "control_change"}, {"time": 3396, "annotation": {"number": 64, "value": 0}, "group": "control_change"}, {"time": 3402, "annotation": {"number": 64, "value": 127}, "group": "control_change"}, {"time": 3445, "annotation": {"number": 64, "value": 0}, "group": "control_change"}, {"time": 3446, "annotation": {"number": 64, "value": 127}, "group": "control_change"}, {"time": 3452, "annotation": {"number": 64, "value": 127}, "group": "control_change"}, {"time": 3470, "annotation": {"number": 64, "value": 0}, "group": "control_change"}, {"time": 3473, "annotation": {"number": 64, "value": 127}, "group": "control_change"}, {"time": 3513, "annotation": {"number": 64, "value": 0}, "group": "control_change"}, {"time": 3515, "annotation": {"number": 64, "value": 127}, "group": "control_change"}, {"time": 3596, "annotation": {"number": 64, "value": 0}, "group": "control_change"}]}]}