{"metadata": {"schema_version": "0.2", "title": "None", "source_filename": "396.mid", "source_format": "midi"}, "resolution": 12, "tempos": [{"time": 0, "qpm": 89.50000820416741}, {"time": 576, "qpm": 89.9999550000225}, {"time": 804, "qpm": 89.00004005001803}, {"time": 996, "qpm": 89.50000820416741}, {"time": 1128, "qpm": 89.09995678652096}, {"time": 1176, "qpm": 89.00004005001803}, {"time": 1200, "qpm": 88.50001327500199}, {"time": 1320, "qpm": 87.89998154100388}, {"time": 1392, "qpm": 88.59998730066849}, {"time": 1536, "qpm": 89.09995678652096}, {"time": 1584, "qpm": 89.50000820416741}, {"time": 1824, "qpm": 89.00004005001803}, {"time": 1968, "qpm": 88.50001327500199}, {"time": 2100, "qpm": 88.70005632453577}, {"time": 2112, "qpm": 89.50000820416741}, {"time": 2172, "qpm": 89.09995678652096}, {"time": 2208, "qpm": 88.59998730066849}, {"time": 2304, "qpm": 88.40000412533352}, {"time": 2352, "qpm": 88.00002346667293}, {"time": 2436, "qpm": 87.59993692804541}, {"time": 2448, "qpm": 87.20004999469533}, {"time": 2460, "qpm": 86.9000996454476}, {"time": 2532, "qpm": 88.20014376623433}, {"time": 2544, "qpm": 89.00004005001803}, {"time": 2580, "qpm": 89.50000820416741}, {"time": 2604, "qpm": 89.9999550000225}, {"time": 2916, "qpm": 90.5000580708706}, {"time": 3288, "qpm": 89.50000820416741}, {"time": 3396, "qpm": 88.50001327500199}], "key_signatures": [{"time": 0, "root": 0, "mode": "major"}], "time_signatures": [{"time": 0, "numerator": 4, "denominator": 4}, {"time": 0, "numerator": 1, "denominator": 4}], "tracks": [{"program": 0, "is_drum": false, "name": "MELODY", "notes": [{"time": 55, "pitch": 80, "duration": 5, "velocity": 114}, {"time": 61, "pitch": 78, "duration": 3, "velocity": 97}, {"time": 67, "pitch": 78, "duration": 16, "velocity": 111}, {"time": 103, "pitch": 80, "duration": 5, "velocity": 114}, {"time": 109, "pitch": 78, "duration": 3, "velocity": 97}, {"time": 115, "pitch": 78, "duration": 16, "velocity": 111}, {"time": 151, "pitch": 87, "duration": 5, "velocity": 111}, {"time": 157, "pitch": 85, "duration": 3, "velocity": 108}, {"time": 163, "pitch": 83, "duration": 4, "velocity": 111}, {"time": 175, "pitch": 78, "duration": 2, "velocity": 105}, {"time": 178, "pitch": 80, "duration": 2, "velocity": 105}, {"time": 181, "pitch": 78, "duration": 2, "velocity": 111}, {"time": 187, "pitch": 78, "duration": 26, "velocity": 117}, {"time": 427, "pitch": 66, "duration": 13, "velocity": 117}, {"time": 445, "pitch": 68, "duration": 2, "velocity": 117}, {"time": 448, "pitch": 66, "duration": 2, "velocity": 105}, {"time": 451, "pitch": 71, "duration": 3, "velocity": 111}, {"time": 457, "pitch": 73, "duration": 3, "velocity": 111}, {"time": 463, "pitch": 75, "duration": 8, "velocity": 117}, {"time": 475, "pitch": 78, "duration": 4, "velocity": 108}, {"time": 481, "pitch": 80, "duration": 3, "velocity": 105}, {"time": 487, "pitch": 80, "duration": 4, "velocity": 105}, {"time": 493, "pitch": 78, "duration": 4, "velocity": 100}, {"time": 499, "pitch": 75, "duration": 9, "velocity": 94}, {"time": 511, "pitch": 73, "duration": 4, "velocity": 102}, {"time": 517, "pitch": 71, "duration": 4, "velocity": 117}, {"time": 523, "pitch": 73, "duration": 4, "velocity": 102}, {"time": 529, "pitch": 75, "duration": 3, "velocity": 100}, {"time": 535, "pitch": 75, "duration": 3, "velocity": 111}, {"time": 541, "pitch": 75, "duration": 4, "velocity": 111}, {"time": 547, "pitch": 73, "duration": 6, "velocity": 108}, {"time": 553, "pitch": 75, "duration": 1, "velocity": 120}, {"time": 556, "pitch": 73, "duration": 1, "velocity": 105}, {"time": 559, "pitch": 71, "duration": 4, "velocity": 111}, {"time": 565, "pitch": 68, "duration": 4, "velocity": 111}, {"time": 571, "pitch": 66, "duration": 33, "velocity": 108}, {"time": 619, "pitch": 68, "duration": 15, "velocity": 120}, {"time": 637, "pitch": 71, "duration": 4, "velocity": 111}, {"time": 643, "pitch": 71, "duration": 4, "velocity": 108}, {"time": 649, "pitch": 71, "duration": 4, "velocity": 111}, {"time": 655, "pitch": 68, "duration": 4, "velocity": 102}, {"time": 661, "pitch": 66, "duration": 4, "velocity": 108}, {"time": 667, "pitch": 71, "duration": 5, "velocity": 105}, {"time": 673, "pitch": 73, "duration": 4, "velocity": 105}, {"time": 679, "pitch": 75, "duration": 5, "velocity": 105}, {"time": 685, "pitch": 80, "duration": 4, "velocity": 114}, {"time": 691, "pitch": 78, "duration": 8, "velocity": 108}, {"time": 703, "pitch": 71, "duration": 4, "velocity": 105}, {"time": 709, "pitch": 73, "duration": 4, "velocity": 108}, {"time": 715, "pitch": 75, "duration": 16, "velocity": 100}, {"time": 733, "pitch": 80, "duration": 4, "velocity": 108}, {"time": 739, "pitch": 78, "duration": 5, "velocity": 100}, {"time": 745, "pitch": 75, "duration": 2, "velocity": 111}, {"time": 748, "pitch": 78, "duration": 1, "velocity": 111}, {"time": 751, "pitch": 75, "duration": 5, "velocity": 114}, {"time": 757, "pitch": 73, "duration": 3, "velocity": 111}, {"time": 763, "pitch": 71, "duration": 31, "velocity": 114}, {"time": 799, "pitch": 71, "duration": 5, "velocity": 108}, {"time": 805, "pitch": 70, "duration": 4, "velocity": 111}, {"time": 811, "pitch": 68, "duration": 4, "velocity": 117}, {"time": 817, "pitch": 68, "duration": 4, "velocity": 117}, {"time": 823, "pitch": 75, "duration": 4, "velocity": 120}, {"time": 829, "pitch": 73, "duration": 5, "velocity": 114}, {"time": 835, "pitch": 75, "duration": 9, "velocity": 108}, {"time": 847, "pitch": 75, "duration": 5, "velocity": 114}, {"time": 853, "pitch": 78, "duration": 4, "velocity": 111}, {"time": 859, "pitch": 80, "duration": 3, "velocity": 108}, {"time": 865, "pitch": 80, "duration": 2, "velocity": 94}, {"time": 868, "pitch": 80, "duration": 1, "velocity": 94}, {"time": 871, "pitch": 82, "duration": 2, "velocity": 108}, {"time": 874, "pitch": 80, "duration": 1, "velocity": 114}, {"time": 877, "pitch": 78, "duration": 4, "velocity": 117}, {"time": 883, "pitch": 75, "duration": 8, "velocity": 120}, {"time": 895, "pitch": 75, "duration": 2, "velocity": 117}, {"time": 898, "pitch": 78, "duration": 7, "velocity": 111}, {"time": 907, "pitch": 80, "duration": 4, "velocity": 102}, {"time": 913, "pitch": 80, "duration": 3, "velocity": 105}, {"time": 919, "pitch": 80, "duration": 1, "velocity": 111}, {"time": 922, "pitch": 80, "duration": 6, "velocity": 102}, {"time": 928, "pitch": 80, "duration": 2, "velocity": 105}, {"time": 931, "pitch": 83, "duration": 3, "velocity": 117}, {"time": 937, "pitch": 83, "duration": 2, "velocity": 117}, {"time": 940, "pitch": 80, "duration": 1, "velocity": 108}, {"time": 943, "pitch": 78, "duration": 3, "velocity": 114}, {"time": 946, "pitch": 80, "duration": 2, "velocity": 97}, {"time": 949, "pitch": 78, "duration": 1, "velocity": 111}, {"time": 952, "pitch": 75, "duration": 6, "velocity": 108}, {"time": 961, "pitch": 78, "duration": 18, "velocity": 111}, {"time": 1003, "pitch": 83, "duration": 2, "velocity": 111}, {"time": 1009, "pitch": 83, "duration": 2, "velocity": 111}, {"time": 1015, "pitch": 83, "duration": 4, "velocity": 111}, {"time": 1021, "pitch": 80, "duration": 3, "velocity": 117}, {"time": 1027, "pitch": 83, "duration": 4, "velocity": 117}, {"time": 1033, "pitch": 85, "duration": 1, "velocity": 102}, {"time": 1036, "pitch": 83, "duration": 1, "velocity": 114}, {"time": 1039, "pitch": 80, "duration": 5, "velocity": 114}, {"time": 1051, "pitch": 83, "duration": 4, "velocity": 114}, {"time": 1057, "pitch": 85, "duration": 2, "velocity": 105}, {"time": 1060, "pitch": 83, "duration": 1, "velocity": 114}, {"time": 1063, "pitch": 80, "duration": 4, "velocity": 117}, {"time": 1069, "pitch": 78, "duration": 4, "velocity": 111}, {"time": 1075, "pitch": 78, "duration": 5, "velocity": 108}, {"time": 1081, "pitch": 75, "duration": 12, "velocity": 114}, {"time": 1099, "pitch": 83, "duration": 3, "velocity": 114}, {"time": 1105, "pitch": 80, "duration": 1, "velocity": 102}, {"time": 1108, "pitch": 80, "duration": 2, "velocity": 108}, {"time": 1111, "pitch": 78, "duration": 4, "velocity": 105}, {"time": 1117, "pitch": 75, "duration": 3, "velocity": 105}, {"time": 1123, "pitch": 73, "duration": 4, "velocity": 105}, {"time": 1129, "pitch": 71, "duration": 4, "velocity": 114}, {"time": 1135, "pitch": 78, "duration": 4, "velocity": 108}, {"time": 1141, "pitch": 75, "duration": 11, "velocity": 108}, {"time": 1153, "pitch": 73, "duration": 24, "velocity": 111}, {"time": 1177, "pitch": 75, "duration": 5, "velocity": 111}, {"time": 1183, "pitch": 73, "duration": 5, "velocity": 100}, {"time": 1189, "pitch": 71, "duration": 3, "velocity": 105}, {"time": 1195, "pitch": 71, "duration": 6, "velocity": 108}, {"time": 1201, "pitch": 68, "duration": 19, "velocity": 105}, {"time": 1225, "pitch": 80, "duration": 3, "velocity": 100}, {"time": 1231, "pitch": 80, "duration": 5, "velocity": 108}, {"time": 1237, "pitch": 83, "duration": 3, "velocity": 111}, {"time": 1243, "pitch": 78, "duration": 24, "velocity": 96}, {"time": 1279, "pitch": 80, "duration": 5, "velocity": 111}, {"time": 1285, "pitch": 78, "duration": 4, "velocity": 111}, {"time": 1291, "pitch": 75, "duration": 14, "velocity": 111}, {"time": 1309, "pitch": 78, "duration": 4, "velocity": 100}, {"time": 1315, "pitch": 73, "duration": 4, "velocity": 102}, {"time": 1321, "pitch": 71, "duration": 5, "velocity": 111}, {"time": 1327, "pitch": 68, "duration": 4, "velocity": 114}, {"time": 1333, "pitch": 66, "duration": 4, "velocity": 111}, {"time": 1339, "pitch": 71, "duration": 47, "velocity": 105}, {"time": 1579, "pitch": 66, "duration": 13, "velocity": 117}, {"time": 1597, "pitch": 68, "duration": 2, "velocity": 117}, {"time": 1600, "pitch": 66, "duration": 2, "velocity": 105}, {"time": 1603, "pitch": 71, "duration": 3, "velocity": 111}, {"time": 1609, "pitch": 73, "duration": 3, "velocity": 111}, {"time": 1615, "pitch": 75, "duration": 8, "velocity": 117}, {"time": 1627, "pitch": 78, "duration": 4, "velocity": 108}, {"time": 1633, "pitch": 80, "duration": 3, "velocity": 105}, {"time": 1639, "pitch": 80, "duration": 4, "velocity": 105}, {"time": 1645, "pitch": 78, "duration": 4, "velocity": 100}, {"time": 1651, "pitch": 75, "duration": 9, "velocity": 94}, {"time": 1663, "pitch": 73, "duration": 4, "velocity": 102}, {"time": 1669, "pitch": 71, "duration": 4, "velocity": 117}, {"time": 1675, "pitch": 73, "duration": 4, "velocity": 102}, {"time": 1681, "pitch": 75, "duration": 3, "velocity": 100}, {"time": 1687, "pitch": 75, "duration": 3, "velocity": 111}, {"time": 1693, "pitch": 75, "duration": 4, "velocity": 111}, {"time": 1699, "pitch": 73, "duration": 6, "velocity": 108}, {"time": 1705, "pitch": 75, "duration": 1, "velocity": 120}, {"time": 1708, "pitch": 73, "duration": 1, "velocity": 105}, {"time": 1711, "pitch": 71, "duration": 4, "velocity": 111}, {"time": 1717, "pitch": 68, "duration": 4, "velocity": 111}, {"time": 1723, "pitch": 66, "duration": 33, "velocity": 108}, {"time": 1771, "pitch": 68, "duration": 15, "velocity": 120}, {"time": 1789, "pitch": 71, "duration": 4, "velocity": 111}, {"time": 1795, "pitch": 71, "duration": 4, "velocity": 108}, {"time": 1801, "pitch": 71, "duration": 4, "velocity": 111}, {"time": 1807, "pitch": 68, "duration": 4, "velocity": 102}, {"time": 1813, "pitch": 66, "duration": 4, "velocity": 108}, {"time": 1819, "pitch": 71, "duration": 5, "velocity": 105}, {"time": 1825, "pitch": 73, "duration": 4, "velocity": 105}, {"time": 1831, "pitch": 75, "duration": 5, "velocity": 105}, {"time": 1837, "pitch": 80, "duration": 4, "velocity": 114}, {"time": 1843, "pitch": 78, "duration": 8, "velocity": 108}, {"time": 1855, "pitch": 71, "duration": 4, "velocity": 105}, {"time": 1861, "pitch": 73, "duration": 4, "velocity": 108}, {"time": 1867, "pitch": 75, "duration": 16, "velocity": 100}, {"time": 1885, "pitch": 80, "duration": 4, "velocity": 108}, {"time": 1891, "pitch": 78, "duration": 5, "velocity": 100}, {"time": 1897, "pitch": 75, "duration": 2, "velocity": 111}, {"time": 1900, "pitch": 78, "duration": 1, "velocity": 111}, {"time": 1903, "pitch": 75, "duration": 5, "velocity": 114}, {"time": 1909, "pitch": 73, "duration": 3, "velocity": 111}, {"time": 1915, "pitch": 71, "duration": 31, "velocity": 114}, {"time": 1951, "pitch": 71, "duration": 5, "velocity": 108}, {"time": 1957, "pitch": 70, "duration": 4, "velocity": 111}, {"time": 1963, "pitch": 68, "duration": 4, "velocity": 117}, {"time": 1969, "pitch": 68, "duration": 4, "velocity": 117}, {"time": 1975, "pitch": 75, "duration": 4, "velocity": 120}, {"time": 1981, "pitch": 73, "duration": 5, "velocity": 114}, {"time": 1987, "pitch": 75, "duration": 9, "velocity": 108}, {"time": 1999, "pitch": 75, "duration": 5, "velocity": 114}, {"time": 2005, "pitch": 78, "duration": 4, "velocity": 111}, {"time": 2011, "pitch": 80, "duration": 3, "velocity": 108}, {"time": 2017, "pitch": 80, "duration": 2, "velocity": 94}, {"time": 2020, "pitch": 80, "duration": 1, "velocity": 94}, {"time": 2023, "pitch": 82, "duration": 2, "velocity": 108}, {"time": 2026, "pitch": 80, "duration": 1, "velocity": 114}, {"time": 2029, "pitch": 78, "duration": 4, "velocity": 117}, {"time": 2035, "pitch": 75, "duration": 8, "velocity": 120}, {"time": 2047, "pitch": 75, "duration": 2, "velocity": 117}, {"time": 2050, "pitch": 78, "duration": 7, "velocity": 111}, {"time": 2059, "pitch": 80, "duration": 4, "velocity": 102}, {"time": 2065, "pitch": 80, "duration": 3, "velocity": 105}, {"time": 2071, "pitch": 80, "duration": 1, "velocity": 111}, {"time": 2074, "pitch": 80, "duration": 6, "velocity": 102}, {"time": 2080, "pitch": 80, "duration": 2, "velocity": 105}, {"time": 2083, "pitch": 83, "duration": 3, "velocity": 117}, {"time": 2089, "pitch": 83, "duration": 2, "velocity": 117}, {"time": 2092, "pitch": 80, "duration": 1, "velocity": 108}, {"time": 2095, "pitch": 78, "duration": 3, "velocity": 114}, {"time": 2098, "pitch": 80, "duration": 2, "velocity": 97}, {"time": 2101, "pitch": 78, "duration": 1, "velocity": 111}, {"time": 2104, "pitch": 75, "duration": 6, "velocity": 108}, {"time": 2113, "pitch": 78, "duration": 18, "velocity": 111}, {"time": 2155, "pitch": 83, "duration": 2, "velocity": 111}, {"time": 2161, "pitch": 83, "duration": 2, "velocity": 111}, {"time": 2167, "pitch": 83, "duration": 4, "velocity": 111}, {"time": 2173, "pitch": 80, "duration": 3, "velocity": 117}, {"time": 2179, "pitch": 83, "duration": 4, "velocity": 117}, {"time": 2185, "pitch": 85, "duration": 1, "velocity": 102}, {"time": 2188, "pitch": 83, "duration": 1, "velocity": 114}, {"time": 2191, "pitch": 80, "duration": 5, "velocity": 114}, {"time": 2203, "pitch": 83, "duration": 4, "velocity": 114}, {"time": 2209, "pitch": 85, "duration": 2, "velocity": 105}, {"time": 2212, "pitch": 83, "duration": 1, "velocity": 114}, {"time": 2215, "pitch": 80, "duration": 4, "velocity": 117}, {"time": 2221, "pitch": 78, "duration": 4, "velocity": 111}, {"time": 2227, "pitch": 78, "duration": 5, "velocity": 108}, {"time": 2233, "pitch": 75, "duration": 12, "velocity": 114}, {"time": 2251, "pitch": 83, "duration": 3, "velocity": 114}, {"time": 2257, "pitch": 80, "duration": 1, "velocity": 102}, {"time": 2260, "pitch": 80, "duration": 2, "velocity": 108}, {"time": 2263, "pitch": 78, "duration": 4, "velocity": 105}, {"time": 2269, "pitch": 75, "duration": 3, "velocity": 105}, {"time": 2275, "pitch": 73, "duration": 4, "velocity": 105}, {"time": 2281, "pitch": 71, "duration": 4, "velocity": 114}, {"time": 2287, "pitch": 78, "duration": 4, "velocity": 108}, {"time": 2293, "pitch": 75, "duration": 11, "velocity": 108}, {"time": 2305, "pitch": 73, "duration": 24, "velocity": 111}, {"time": 2329, "pitch": 75, "duration": 5, "velocity": 111}, {"time": 2335, "pitch": 73, "duration": 5, "velocity": 100}, {"time": 2341, "pitch": 71, "duration": 3, "velocity": 105}, {"time": 2347, "pitch": 71, "duration": 6, "velocity": 108}, {"time": 2353, "pitch": 68, "duration": 19, "velocity": 105}, {"time": 2377, "pitch": 80, "duration": 3, "velocity": 100}, {"time": 2383, "pitch": 80, "duration": 5, "velocity": 108}, {"time": 2389, "pitch": 83, "duration": 3, "velocity": 111}, {"time": 2395, "pitch": 78, "duration": 24, "velocity": 96}, {"time": 2431, "pitch": 80, "duration": 5, "velocity": 111}, {"time": 2437, "pitch": 78, "duration": 4, "velocity": 111}, {"time": 2443, "pitch": 75, "duration": 14, "velocity": 111}, {"time": 2461, "pitch": 78, "duration": 4, "velocity": 100}, {"time": 2467, "pitch": 73, "duration": 4, "velocity": 102}, {"time": 2473, "pitch": 71, "duration": 5, "velocity": 111}, {"time": 2479, "pitch": 68, "duration": 4, "velocity": 114}, {"time": 2485, "pitch": 66, "duration": 4, "velocity": 111}, {"time": 2491, "pitch": 71, "duration": 47, "velocity": 105}, {"time": 2911, "pitch": 71, "duration": 5, "velocity": 108}, {"time": 2917, "pitch": 70, "duration": 4, "velocity": 111}, {"time": 2923, "pitch": 68, "duration": 4, "velocity": 117}, {"time": 2929, "pitch": 68, "duration": 4, "velocity": 117}, {"time": 2935, "pitch": 75, "duration": 4, "velocity": 120}, {"time": 2941, "pitch": 73, "duration": 5, "velocity": 114}, {"time": 2947, "pitch": 75, "duration": 9, "velocity": 108}, {"time": 2959, "pitch": 75, "duration": 5, "velocity": 114}, {"time": 2965, "pitch": 78, "duration": 4, "velocity": 111}, {"time": 2971, "pitch": 80, "duration": 3, "velocity": 108}, {"time": 2977, "pitch": 80, "duration": 2, "velocity": 94}, {"time": 2980, "pitch": 80, "duration": 1, "velocity": 94}, {"time": 2983, "pitch": 82, "duration": 2, "velocity": 108}, {"time": 2986, "pitch": 80, "duration": 1, "velocity": 114}, {"time": 2989, "pitch": 78, "duration": 4, "velocity": 117}, {"time": 2995, "pitch": 75, "duration": 8, "velocity": 120}, {"time": 3007, "pitch": 75, "duration": 2, "velocity": 117}, {"time": 3010, "pitch": 78, "duration": 7, "velocity": 111}, {"time": 3019, "pitch": 80, "duration": 4, "velocity": 102}, {"time": 3025, "pitch": 80, "duration": 3, "velocity": 105}, {"time": 3031, "pitch": 80, "duration": 1, "velocity": 111}, {"time": 3034, "pitch": 80, "duration": 6, "velocity": 102}, {"time": 3040, "pitch": 80, "duration": 2, "velocity": 105}, {"time": 3043, "pitch": 83, "duration": 3, "velocity": 117}, {"time": 3049, "pitch": 83, "duration": 2, "velocity": 117}, {"time": 3052, "pitch": 80, "duration": 1, "velocity": 108}, {"time": 3055, "pitch": 78, "duration": 3, "velocity": 114}, {"time": 3058, "pitch": 80, "duration": 2, "velocity": 97}, {"time": 3061, "pitch": 78, "duration": 1, "velocity": 111}, {"time": 3064, "pitch": 75, "duration": 6, "velocity": 108}, {"time": 3073, "pitch": 78, "duration": 18, "velocity": 111}, {"time": 3115, "pitch": 83, "duration": 2, "velocity": 111}, {"time": 3121, "pitch": 83, "duration": 2, "velocity": 111}, {"time": 3127, "pitch": 83, "duration": 4, "velocity": 111}, {"time": 3133, "pitch": 80, "duration": 3, "velocity": 117}, {"time": 3139, "pitch": 83, "duration": 4, "velocity": 117}, {"time": 3145, "pitch": 85, "duration": 1, "velocity": 102}, {"time": 3148, "pitch": 83, "duration": 1, "velocity": 114}, {"time": 3151, "pitch": 80, "duration": 5, "velocity": 114}, {"time": 3163, "pitch": 83, "duration": 4, "velocity": 114}, {"time": 3169, "pitch": 85, "duration": 2, "velocity": 105}, {"time": 3172, "pitch": 83, "duration": 1, "velocity": 114}, {"time": 3175, "pitch": 80, "duration": 4, "velocity": 117}, {"time": 3181, "pitch": 78, "duration": 4, "velocity": 111}, {"time": 3187, "pitch": 78, "duration": 5, "velocity": 108}, {"time": 3193, "pitch": 75, "duration": 12, "velocity": 114}, {"time": 3211, "pitch": 83, "duration": 3, "velocity": 114}, {"time": 3217, "pitch": 80, "duration": 1, "velocity": 102}, {"time": 3220, "pitch": 80, "duration": 2, "velocity": 108}, {"time": 3223, "pitch": 78, "duration": 4, "velocity": 105}, {"time": 3229, "pitch": 75, "duration": 3, "velocity": 105}, {"time": 3235, "pitch": 73, "duration": 4, "velocity": 105}, {"time": 3241, "pitch": 71, "duration": 4, "velocity": 114}, {"time": 3247, "pitch": 78, "duration": 4, "velocity": 108}, {"time": 3253, "pitch": 75, "duration": 11, "velocity": 108}, {"time": 3265, "pitch": 73, "duration": 24, "velocity": 111}, {"time": 3289, "pitch": 75, "duration": 5, "velocity": 111}, {"time": 3295, "pitch": 73, "duration": 5, "velocity": 100}, {"time": 3301, "pitch": 71, "duration": 3, "velocity": 105}, {"time": 3307, "pitch": 71, "duration": 6, "velocity": 108}, {"time": 3313, "pitch": 68, "duration": 19, "velocity": 105}, {"time": 3337, "pitch": 80, "duration": 3, "velocity": 100}, {"time": 3343, "pitch": 80, "duration": 5, "velocity": 108}, {"time": 3349, "pitch": 83, "duration": 3, "velocity": 111}, {"time": 3355, "pitch": 78, "duration": 24, "velocity": 96}, {"time": 3391, "pitch": 80, "duration": 5, "velocity": 111}, {"time": 3397, "pitch": 78, "duration": 4, "velocity": 111}, {"time": 3403, "pitch": 75, "duration": 14, "velocity": 111}, {"time": 3421, "pitch": 78, "duration": 4, "velocity": 100}, {"time": 3427, "pitch": 73, "duration": 4, "velocity": 102}, {"time": 3433, "pitch": 71, "duration": 5, "velocity": 111}, {"time": 3439, "pitch": 68, "duration": 4, "velocity": 114}, {"time": 3445, "pitch": 66, "duration": 4, "velocity": 111}, {"time": 3451, "pitch": 71, "duration": 47, "velocity": 105}]}, {"program": 0, "is_drum": false, "name": "BRIDGE", "notes": [{"time": 31, "pitch": 66, "duration": 5, "velocity": 123}, {"time": 37, "pitch": 68, "duration": 4, "velocity": 123}, {"time": 43, "pitch": 71, "duration": 27, "velocity": 127}, {"time": 73, "pitch": 66, "duration": 4, "velocity": 114}, {"time": 79, "pitch": 71, "duration": 4, "velocity": 114}, {"time": 85, "pitch": 73, "duration": 4, "velocity": 114}, {"time": 91, "pitch": 75, "duration": 30, "velocity": 117}, {"time": 127, "pitch": 66, "duration": 4, "velocity": 120}, {"time": 133, "pitch": 68, "duration": 4, "velocity": 117}, {"time": 139, "pitch": 71, "duration": 26, "velocity": 111}, {"time": 169, "pitch": 68, "duration": 5, "velocity": 114}, {"time": 175, "pitch": 66, "duration": 1, "velocity": 117}, {"time": 178, "pitch": 68, "duration": 2, "velocity": 117}, {"time": 181, "pitch": 66, "duration": 2, "velocity": 120}, {"time": 184, "pitch": 63, "duration": 1, "velocity": 114}, {"time": 187, "pitch": 61, "duration": 24, "velocity": 117}, {"time": 211, "pitch": 70, "duration": 1, "velocity": 114}, {"time": 212, "pitch": 71, "duration": 2, "velocity": 114}, {"time": 214, "pitch": 73, "duration": 1, "velocity": 114}, {"time": 215, "pitch": 75, "duration": 2, "velocity": 114}, {"time": 217, "pitch": 76, "duration": 1, "velocity": 114}, {"time": 218, "pitch": 75, "duration": 2, "velocity": 114}, {"time": 220, "pitch": 73, "duration": 1, "velocity": 114}, {"time": 221, "pitch": 76, "duration": 2, "velocity": 114}, {"time": 223, "pitch": 75, "duration": 1, "velocity": 114}, {"time": 224, "pitch": 76, "duration": 2, "velocity": 114}, {"time": 226, "pitch": 77, "duration": 1, "velocity": 114}, {"time": 227, "pitch": 78, "duration": 2, "velocity": 114}, {"time": 229, "pitch": 79, "duration": 1, "velocity": 114}, {"time": 230, "pitch": 80, "duration": 2, "velocity": 114}, {"time": 232, "pitch": 81, "duration": 1, "velocity": 114}, {"time": 233, "pitch": 82, "duration": 2, "velocity": 114}, {"time": 235, "pitch": 83, "duration": 12, "velocity": 114}, {"time": 247, "pitch": 83, "duration": 7, "velocity": 114}, {"time": 256, "pitch": 80, "duration": 1, "velocity": 120}, {"time": 259, "pitch": 83, "duration": 4, "velocity": 117}, {"time": 265, "pitch": 85, "duration": 2, "velocity": 111}, {"time": 268, "pitch": 83, "duration": 1, "velocity": 120}, {"time": 271, "pitch": 80, "duration": 4, "velocity": 120}, {"time": 277, "pitch": 78, "duration": 4, "velocity": 117}, {"time": 283, "pitch": 83, "duration": 4, "velocity": 114}, {"time": 289, "pitch": 85, "duration": 2, "velocity": 114}, {"time": 292, "pitch": 83, "duration": 1, "velocity": 111}, {"time": 295, "pitch": 80, "duration": 4, "velocity": 120}, {"time": 301, "pitch": 78, "duration": 4, "velocity": 111}, {"time": 307, "pitch": 75, "duration": 19, "velocity": 111}, {"time": 319, "pitch": 92, "duration": 5, "velocity": 105}, {"time": 325, "pitch": 90, "duration": 4, "velocity": 108}, {"time": 331, "pitch": 71, "duration": 22, "velocity": 111}, {"time": 331, "pitch": 87, "duration": 12, "velocity": 105}, {"time": 349, "pitch": 90, "duration": 3, "velocity": 108}, {"time": 355, "pitch": 70, "duration": 21, "velocity": 111}, {"time": 355, "pitch": 85, "duration": 4, "velocity": 117}, {"time": 361, "pitch": 83, "duration": 4, "velocity": 114}, {"time": 367, "pitch": 80, "duration": 10, "velocity": 114}, {"time": 379, "pitch": 83, "duration": 1, "velocity": 114}, {"time": 382, "pitch": 83, "duration": 1, "velocity": 94}, {"time": 385, "pitch": 82, "duration": 4, "velocity": 117}, {"time": 391, "pitch": 80, "duration": 4, "velocity": 114}, {"time": 397, "pitch": 78, "duration": 3, "velocity": 117}, {"time": 403, "pitch": 83, "duration": 1, "velocity": 105}, {"time": 406, "pitch": 83, "duration": 1, "velocity": 105}, {"time": 409, "pitch": 82, "duration": 1, "velocity": 120}, {"time": 412, "pitch": 82, "duration": 1, "velocity": 105}, {"time": 415, "pitch": 80, "duration": 4, "velocity": 114}, {"time": 421, "pitch": 78, "duration": 4, "velocity": 114}, {"time": 427, "pitch": 83, "duration": 12, "velocity": 114}, {"time": 511, "pitch": 73, "duration": 4, "velocity": 102}, {"time": 517, "pitch": 71, "duration": 4, "velocity": 117}, {"time": 523, "pitch": 73, "duration": 4, "velocity": 102}, {"time": 529, "pitch": 75, "duration": 3, "velocity": 100}, {"time": 535, "pitch": 75, "duration": 3, "velocity": 111}, {"time": 541, "pitch": 75, "duration": 4, "velocity": 111}, {"time": 547, "pitch": 73, "duration": 6, "velocity": 108}, {"time": 553, "pitch": 75, "duration": 1, "velocity": 120}, {"time": 556, "pitch": 73, "duration": 1, "velocity": 105}, {"time": 559, "pitch": 71, "duration": 4, "velocity": 111}, {"time": 565, "pitch": 68, "duration": 4, "velocity": 111}, {"time": 571, "pitch": 66, "duration": 33, "velocity": 108}, {"time": 601, "pitch": 73, "duration": 3, "velocity": 108}, {"time": 604, "pitch": 75, "duration": 2, "velocity": 100}, {"time": 607, "pitch": 78, "duration": 2, "velocity": 111}, {"time": 610, "pitch": 73, "duration": 4, "velocity": 94}, {"time": 613, "pitch": 75, "duration": 3, "velocity": 108}, {"time": 616, "pitch": 78, "duration": 2, "velocity": 114}, {"time": 619, "pitch": 80, "duration": 15, "velocity": 117}, {"time": 703, "pitch": 71, "duration": 4, "velocity": 105}, {"time": 709, "pitch": 73, "duration": 4, "velocity": 108}, {"time": 715, "pitch": 75, "duration": 21, "velocity": 100}, {"time": 739, "pitch": 78, "duration": 6, "velocity": 100}, {"time": 745, "pitch": 75, "duration": 2, "velocity": 111}, {"time": 748, "pitch": 78, "duration": 1, "velocity": 111}, {"time": 751, "pitch": 75, "duration": 5, "velocity": 114}, {"time": 757, "pitch": 73, "duration": 3, "velocity": 111}, {"time": 763, "pitch": 71, "duration": 36, "velocity": 114}, {"time": 799, "pitch": 71, "duration": 4, "velocity": 108}, {"time": 799, "pitch": 75, "duration": 5, "velocity": 108}, {"time": 805, "pitch": 70, "duration": 3, "velocity": 89}, {"time": 805, "pitch": 73, "duration": 4, "velocity": 92}, {"time": 811, "pitch": 71, "duration": 22, "velocity": 100}, {"time": 811, "pitch": 75, "duration": 22, "velocity": 105}, {"time": 835, "pitch": 71, "duration": 17, "velocity": 87}, {"time": 835, "pitch": 75, "duration": 18, "velocity": 97}, {"time": 853, "pitch": 70, "duration": 4, "velocity": 92}, {"time": 853, "pitch": 73, "duration": 4, "velocity": 102}, {"time": 859, "pitch": 71, "duration": 33, "velocity": 92}, {"time": 859, "pitch": 75, "duration": 33, "velocity": 111}, {"time": 895, "pitch": 75, "duration": 4, "velocity": 123}, {"time": 901, "pitch": 78, "duration": 4, "velocity": 117}, {"time": 907, "pitch": 80, "duration": 34, "velocity": 117}, {"time": 943, "pitch": 78, "duration": 5, "velocity": 114}, {"time": 949, "pitch": 75, "duration": 4, "velocity": 114}, {"time": 955, "pitch": 78, "duration": 6, "velocity": 117}, {"time": 961, "pitch": 61, "duration": 3, "velocity": 105}, {"time": 964, "pitch": 63, "duration": 3, "velocity": 97}, {"time": 967, "pitch": 66, "duration": 2, "velocity": 117}, {"time": 970, "pitch": 61, "duration": 4, "velocity": 89}, {"time": 973, "pitch": 63, "duration": 3, "velocity": 94}, {"time": 976, "pitch": 66, "duration": 1, "velocity": 111}, {"time": 979, "pitch": 61, "duration": 3, "velocity": 92}, {"time": 982, "pitch": 63, "duration": 3, "velocity": 102}, {"time": 985, "pitch": 66, "duration": 2, "velocity": 111}, {"time": 988, "pitch": 61, "duration": 4, "velocity": 84}, {"time": 991, "pitch": 75, "duration": 1, "velocity": 114}, {"time": 992, "pitch": 76, "duration": 2, "velocity": 114}, {"time": 994, "pitch": 77, "duration": 1, "velocity": 114}, {"time": 995, "pitch": 78, "duration": 2, "velocity": 114}, {"time": 997, "pitch": 79, "duration": 1, "velocity": 114}, {"time": 998, "pitch": 80, "duration": 2, "velocity": 114}, {"time": 1000, "pitch": 81, "duration": 1, "velocity": 114}, {"time": 1001, "pitch": 82, "duration": 2, "velocity": 114}, {"time": 1003, "pitch": 78, "duration": 10, "velocity": 100}, {"time": 1003, "pitch": 83, "duration": 11, "velocity": 105}, {"time": 1021, "pitch": 75, "duration": 4, "velocity": 105}, {"time": 1021, "pitch": 80, "duration": 3, "velocity": 102}, {"time": 1027, "pitch": 75, "duration": 14, "velocity": 111}, {"time": 1027, "pitch": 83, "duration": 14, "velocity": 102}, {"time": 1051, "pitch": 83, "duration": 9, "velocity": 114}, {"time": 1063, "pitch": 80, "duration": 5, "velocity": 120}, {"time": 1069, "pitch": 78, "duration": 5, "velocity": 114}, {"time": 1075, "pitch": 75, "duration": 12, "velocity": 120}, {"time": 1087, "pitch": 75, "duration": 2, "velocity": 111}, {"time": 1090, "pitch": 73, "duration": 2, "velocity": 94}, {"time": 1093, "pitch": 71, "duration": 3, "velocity": 105}, {"time": 1096, "pitch": 73, "duration": 1, "velocity": 117}, {"time": 1099, "pitch": 75, "duration": 18, "velocity": 111}, {"time": 1123, "pitch": 73, "duration": 21, "velocity": 114}, {"time": 1153, "pitch": 66, "duration": 2, "velocity": 94}, {"time": 1153, "pitch": 78, "duration": 2, "velocity": 92}, {"time": 1156, "pitch": 68, "duration": 1, "velocity": 111}, {"time": 1156, "pitch": 80, "duration": 2, "velocity": 97}, {"time": 1159, "pitch": 66, "duration": 3, "velocity": 105}, {"time": 1159, "pitch": 78, "duration": 3, "velocity": 111}, {"time": 1165, "pitch": 63, "duration": 4, "velocity": 100}, {"time": 1165, "pitch": 75, "duration": 4, "velocity": 111}, {"time": 1171, "pitch": 61, "duration": 18, "velocity": 94}, {"time": 1171, "pitch": 73, "duration": 17, "velocity": 84}, {"time": 1201, "pitch": 75, "duration": 4, "velocity": 111}, {"time": 1207, "pitch": 73, "duration": 4, "velocity": 105}, {"time": 1213, "pitch": 71, "duration": 6, "velocity": 108}, {"time": 1219, "pitch": 68, "duration": 20, "velocity": 114}, {"time": 1249, "pitch": 80, "duration": 4, "velocity": 117}, {"time": 1255, "pitch": 80, "duration": 4, "velocity": 117}, {"time": 1261, "pitch": 83, "duration": 4, "velocity": 117}, {"time": 1267, "pitch": 78, "duration": 14, "velocity": 114}, {"time": 1291, "pitch": 75, "duration": 19, "velocity": 114}, {"time": 1315, "pitch": 73, "duration": 11, "velocity": 114}, {"time": 1327, "pitch": 66, "duration": 9, "velocity": 114}, {"time": 1339, "pitch": 71, "duration": 27, "velocity": 108}, {"time": 1345, "pitch": 54, "duration": 3, "velocity": 114}, {"time": 1351, "pitch": 56, "duration": 3, "velocity": 111}, {"time": 1357, "pitch": 54, "duration": 2, "velocity": 108}, {"time": 1360, "pitch": 56, "duration": 1, "velocity": 100}, {"time": 1363, "pitch": 59, "duration": 11, "velocity": 111}, {"time": 1375, "pitch": 87, "duration": 4, "velocity": 120}, {"time": 1381, "pitch": 85, "duration": 4, "velocity": 120}, {"time": 1387, "pitch": 83, "duration": 27, "velocity": 123}, {"time": 1393, "pitch": 78, "duration": 1, "velocity": 105}, {"time": 1396, "pitch": 78, "duration": 2, "velocity": 105}, {"time": 1399, "pitch": 75, "duration": 5, "velocity": 114}, {"time": 1405, "pitch": 73, "duration": 4, "velocity": 114}, {"time": 1411, "pitch": 71, "duration": 12, "velocity": 108}, {"time": 1417, "pitch": 87, "duration": 4, "velocity": 117}, {"time": 1423, "pitch": 85, "duration": 5, "velocity": 108}, {"time": 1429, "pitch": 83, "duration": 5, "velocity": 120}, {"time": 1435, "pitch": 80, "duration": 26, "velocity": 120}, {"time": 1441, "pitch": 71, "duration": 1, "velocity": 105}, {"time": 1444, "pitch": 71, "duration": 1, "velocity": 92}, {"time": 1447, "pitch": 73, "duration": 1, "velocity": 100}, {"time": 1450, "pitch": 73, "duration": 2, "velocity": 94}, {"time": 1453, "pitch": 71, "duration": 5, "velocity": 105}, {"time": 1459, "pitch": 68, "duration": 17, "velocity": 117}, {"time": 1471, "pitch": 83, "duration": 2, "velocity": 114}, {"time": 1474, "pitch": 78, "duration": 2, "velocity": 102}, {"time": 1477, "pitch": 80, "duration": 2, "velocity": 114}, {"time": 1480, "pitch": 83, "duration": 1, "velocity": 120}, {"time": 1483, "pitch": 87, "duration": 15, "velocity": 114}, {"time": 1501, "pitch": 90, "duration": 4, "velocity": 120}, {"time": 1507, "pitch": 85, "duration": 4, "velocity": 111}, {"time": 1513, "pitch": 83, "duration": 4, "velocity": 114}, {"time": 1519, "pitch": 80, "duration": 5, "velocity": 120}, {"time": 1525, "pitch": 78, "duration": 4, "velocity": 117}, {"time": 1528, "pitch": 80, "duration": 3, "velocity": 105}, {"time": 1531, "pitch": 83, "duration": 38, "velocity": 120}, {"time": 1537, "pitch": 66, "duration": 4, "velocity": 108}, {"time": 1543, "pitch": 68, "duration": 4, "velocity": 114}, {"time": 1549, "pitch": 66, "duration": 4, "velocity": 114}, {"time": 1555, "pitch": 71, "duration": 4, "velocity": 114}, {"time": 1561, "pitch": 66, "duration": 4, "velocity": 114}, {"time": 1567, "pitch": 68, "duration": 1, "velocity": 102}, {"time": 1570, "pitch": 68, "duration": 2, "velocity": 108}, {"time": 1573, "pitch": 66, "duration": 4, "velocity": 117}, {"time": 1663, "pitch": 73, "duration": 4, "velocity": 102}, {"time": 1669, "pitch": 71, "duration": 4, "velocity": 117}, {"time": 1675, "pitch": 73, "duration": 4, "velocity": 102}, {"time": 1681, "pitch": 75, "duration": 3, "velocity": 100}, {"time": 1687, "pitch": 75, "duration": 3, "velocity": 111}, {"time": 1693, "pitch": 75, "duration": 4, "velocity": 111}, {"time": 1699, "pitch": 73, "duration": 6, "velocity": 108}, {"time": 1705, "pitch": 75, "duration": 1, "velocity": 120}, {"time": 1708, "pitch": 73, "duration": 1, "velocity": 105}, {"time": 1711, "pitch": 71, "duration": 4, "velocity": 111}, {"time": 1717, "pitch": 68, "duration": 4, "velocity": 111}, {"time": 1723, "pitch": 66, "duration": 33, "velocity": 108}, {"time": 1753, "pitch": 73, "duration": 3, "velocity": 108}, {"time": 1756, "pitch": 75, "duration": 2, "velocity": 100}, {"time": 1759, "pitch": 78, "duration": 2, "velocity": 111}, {"time": 1762, "pitch": 73, "duration": 4, "velocity": 94}, {"time": 1765, "pitch": 75, "duration": 3, "velocity": 108}, {"time": 1768, "pitch": 78, "duration": 2, "velocity": 114}, {"time": 1771, "pitch": 80, "duration": 15, "velocity": 117}, {"time": 1855, "pitch": 71, "duration": 4, "velocity": 105}, {"time": 1861, "pitch": 73, "duration": 4, "velocity": 108}, {"time": 1867, "pitch": 75, "duration": 21, "velocity": 100}, {"time": 1891, "pitch": 78, "duration": 6, "velocity": 100}, {"time": 1897, "pitch": 75, "duration": 2, "velocity": 111}, {"time": 1900, "pitch": 78, "duration": 1, "velocity": 111}, {"time": 1903, "pitch": 75, "duration": 5, "velocity": 114}, {"time": 1909, "pitch": 73, "duration": 3, "velocity": 111}, {"time": 1915, "pitch": 71, "duration": 36, "velocity": 114}, {"time": 1951, "pitch": 71, "duration": 4, "velocity": 108}, {"time": 1951, "pitch": 75, "duration": 5, "velocity": 108}, {"time": 1957, "pitch": 70, "duration": 3, "velocity": 89}, {"time": 1957, "pitch": 73, "duration": 4, "velocity": 92}, {"time": 1963, "pitch": 71, "duration": 22, "velocity": 100}, {"time": 1963, "pitch": 75, "duration": 22, "velocity": 105}, {"time": 1987, "pitch": 71, "duration": 17, "velocity": 87}, {"time": 1987, "pitch": 75, "duration": 18, "velocity": 97}, {"time": 2005, "pitch": 70, "duration": 4, "velocity": 92}, {"time": 2005, "pitch": 73, "duration": 4, "velocity": 102}, {"time": 2011, "pitch": 71, "duration": 33, "velocity": 92}, {"time": 2011, "pitch": 75, "duration": 33, "velocity": 111}, {"time": 2047, "pitch": 75, "duration": 4, "velocity": 123}, {"time": 2053, "pitch": 78, "duration": 4, "velocity": 117}, {"time": 2059, "pitch": 80, "duration": 34, "velocity": 117}, {"time": 2095, "pitch": 78, "duration": 5, "velocity": 114}, {"time": 2101, "pitch": 75, "duration": 4, "velocity": 114}, {"time": 2107, "pitch": 78, "duration": 6, "velocity": 117}, {"time": 2113, "pitch": 61, "duration": 3, "velocity": 105}, {"time": 2116, "pitch": 63, "duration": 3, "velocity": 97}, {"time": 2119, "pitch": 66, "duration": 2, "velocity": 117}, {"time": 2122, "pitch": 61, "duration": 4, "velocity": 89}, {"time": 2125, "pitch": 63, "duration": 3, "velocity": 94}, {"time": 2128, "pitch": 66, "duration": 1, "velocity": 111}, {"time": 2131, "pitch": 61, "duration": 3, "velocity": 92}, {"time": 2134, "pitch": 63, "duration": 3, "velocity": 102}, {"time": 2137, "pitch": 66, "duration": 2, "velocity": 111}, {"time": 2140, "pitch": 61, "duration": 4, "velocity": 84}, {"time": 2143, "pitch": 75, "duration": 1, "velocity": 114}, {"time": 2144, "pitch": 76, "duration": 2, "velocity": 114}, {"time": 2146, "pitch": 77, "duration": 1, "velocity": 114}, {"time": 2147, "pitch": 78, "duration": 2, "velocity": 114}, {"time": 2149, "pitch": 79, "duration": 1, "velocity": 114}, {"time": 2150, "pitch": 80, "duration": 2, "velocity": 114}, {"time": 2152, "pitch": 81, "duration": 1, "velocity": 114}, {"time": 2153, "pitch": 82, "duration": 2, "velocity": 114}, {"time": 2155, "pitch": 78, "duration": 10, "velocity": 100}, {"time": 2155, "pitch": 83, "duration": 11, "velocity": 105}, {"time": 2173, "pitch": 75, "duration": 4, "velocity": 105}, {"time": 2173, "pitch": 80, "duration": 3, "velocity": 102}, {"time": 2179, "pitch": 75, "duration": 14, "velocity": 111}, {"time": 2179, "pitch": 83, "duration": 14, "velocity": 102}, {"time": 2203, "pitch": 83, "duration": 9, "velocity": 114}, {"time": 2215, "pitch": 80, "duration": 5, "velocity": 120}, {"time": 2221, "pitch": 78, "duration": 5, "velocity": 114}, {"time": 2227, "pitch": 75, "duration": 12, "velocity": 120}, {"time": 2239, "pitch": 75, "duration": 2, "velocity": 111}, {"time": 2242, "pitch": 73, "duration": 2, "velocity": 94}, {"time": 2245, "pitch": 71, "duration": 3, "velocity": 105}, {"time": 2248, "pitch": 73, "duration": 1, "velocity": 117}, {"time": 2251, "pitch": 75, "duration": 18, "velocity": 111}, {"time": 2275, "pitch": 73, "duration": 21, "velocity": 114}, {"time": 2305, "pitch": 66, "duration": 2, "velocity": 94}, {"time": 2305, "pitch": 78, "duration": 2, "velocity": 92}, {"time": 2308, "pitch": 68, "duration": 1, "velocity": 111}, {"time": 2308, "pitch": 80, "duration": 2, "velocity": 97}, {"time": 2311, "pitch": 66, "duration": 3, "velocity": 105}, {"time": 2311, "pitch": 78, "duration": 3, "velocity": 111}, {"time": 2317, "pitch": 63, "duration": 4, "velocity": 100}, {"time": 2317, "pitch": 75, "duration": 4, "velocity": 111}, {"time": 2323, "pitch": 61, "duration": 18, "velocity": 94}, {"time": 2323, "pitch": 73, "duration": 17, "velocity": 84}, {"time": 2353, "pitch": 75, "duration": 4, "velocity": 111}, {"time": 2359, "pitch": 73, "duration": 4, "velocity": 105}, {"time": 2365, "pitch": 71, "duration": 6, "velocity": 108}, {"time": 2371, "pitch": 68, "duration": 20, "velocity": 114}, {"time": 2401, "pitch": 80, "duration": 4, "velocity": 117}, {"time": 2407, "pitch": 80, "duration": 4, "velocity": 117}, {"time": 2413, "pitch": 83, "duration": 4, "velocity": 117}, {"time": 2419, "pitch": 78, "duration": 14, "velocity": 114}, {"time": 2443, "pitch": 75, "duration": 19, "velocity": 114}, {"time": 2467, "pitch": 73, "duration": 11, "velocity": 114}, {"time": 2479, "pitch": 66, "duration": 9, "velocity": 114}, {"time": 2491, "pitch": 71, "duration": 27, "velocity": 108}, {"time": 2497, "pitch": 54, "duration": 3, "velocity": 114}, {"time": 2503, "pitch": 56, "duration": 3, "velocity": 111}, {"time": 2509, "pitch": 54, "duration": 2, "velocity": 108}, {"time": 2512, "pitch": 56, "duration": 1, "velocity": 100}, {"time": 2515, "pitch": 59, "duration": 11, "velocity": 111}, {"time": 2539, "pitch": 78, "duration": 13, "velocity": 117}, {"time": 2557, "pitch": 80, "duration": 2, "velocity": 117}, {"time": 2560, "pitch": 78, "duration": 2, "velocity": 105}, {"time": 2563, "pitch": 83, "duration": 3, "velocity": 111}, {"time": 2569, "pitch": 85, "duration": 3, "velocity": 111}, {"time": 2575, "pitch": 87, "duration": 8, "velocity": 117}, {"time": 2587, "pitch": 90, "duration": 4, "velocity": 108}, {"time": 2593, "pitch": 92, "duration": 3, "velocity": 105}, {"time": 2599, "pitch": 92, "duration": 4, "velocity": 105}, {"time": 2605, "pitch": 90, "duration": 4, "velocity": 100}, {"time": 2611, "pitch": 87, "duration": 9, "velocity": 94}, {"time": 2623, "pitch": 85, "duration": 4, "velocity": 102}, {"time": 2629, "pitch": 83, "duration": 4, "velocity": 117}, {"time": 2635, "pitch": 85, "duration": 4, "velocity": 102}, {"time": 2641, "pitch": 87, "duration": 3, "velocity": 100}, {"time": 2647, "pitch": 87, "duration": 3, "velocity": 111}, {"time": 2653, "pitch": 87, "duration": 4, "velocity": 111}, {"time": 2659, "pitch": 85, "duration": 6, "velocity": 108}, {"time": 2665, "pitch": 87, "duration": 1, "velocity": 120}, {"time": 2668, "pitch": 85, "duration": 1, "velocity": 105}, {"time": 2671, "pitch": 83, "duration": 4, "velocity": 111}, {"time": 2677, "pitch": 80, "duration": 4, "velocity": 111}, {"time": 2683, "pitch": 78, "duration": 33, "velocity": 108}, {"time": 2713, "pitch": 73, "duration": 2, "velocity": 111}, {"time": 2716, "pitch": 75, "duration": 2, "velocity": 105}, {"time": 2719, "pitch": 78, "duration": 2, "velocity": 114}, {"time": 2722, "pitch": 73, "duration": 2, "velocity": 111}, {"time": 2725, "pitch": 75, "duration": 2, "velocity": 117}, {"time": 2728, "pitch": 78, "duration": 2, "velocity": 114}, {"time": 2731, "pitch": 80, "duration": 11, "velocity": 114}, {"time": 2749, "pitch": 83, "duration": 4, "velocity": 111}, {"time": 2755, "pitch": 83, "duration": 4, "velocity": 108}, {"time": 2761, "pitch": 85, "duration": 4, "velocity": 111}, {"time": 2764, "pitch": 83, "duration": 3, "velocity": 114}, {"time": 2767, "pitch": 80, "duration": 4, "velocity": 102}, {"time": 2773, "pitch": 78, "duration": 4, "velocity": 108}, {"time": 2779, "pitch": 83, "duration": 5, "velocity": 105}, {"time": 2785, "pitch": 85, "duration": 4, "velocity": 105}, {"time": 2791, "pitch": 87, "duration": 5, "velocity": 105}, {"time": 2797, "pitch": 92, "duration": 4, "velocity": 114}, {"time": 2803, "pitch": 90, "duration": 8, "velocity": 108}, {"time": 2815, "pitch": 83, "duration": 4, "velocity": 105}, {"time": 2821, "pitch": 85, "duration": 4, "velocity": 108}, {"time": 2827, "pitch": 87, "duration": 16, "velocity": 100}, {"time": 2845, "pitch": 92, "duration": 4, "velocity": 108}, {"time": 2851, "pitch": 90, "duration": 5, "velocity": 100}, {"time": 2857, "pitch": 87, "duration": 2, "velocity": 111}, {"time": 2860, "pitch": 90, "duration": 1, "velocity": 111}, {"time": 2863, "pitch": 87, "duration": 5, "velocity": 114}, {"time": 2869, "pitch": 85, "duration": 3, "velocity": 111}, {"time": 2875, "pitch": 83, "duration": 31, "velocity": 114}, {"time": 2911, "pitch": 71, "duration": 4, "velocity": 108}, {"time": 2911, "pitch": 75, "duration": 5, "velocity": 108}, {"time": 2917, "pitch": 70, "duration": 3, "velocity": 89}, {"time": 2917, "pitch": 73, "duration": 4, "velocity": 92}, {"time": 2923, "pitch": 71, "duration": 22, "velocity": 100}, {"time": 2923, "pitch": 75, "duration": 22, "velocity": 105}, {"time": 2947, "pitch": 71, "duration": 17, "velocity": 87}, {"time": 2947, "pitch": 75, "duration": 18, "velocity": 97}, {"time": 2965, "pitch": 70, "duration": 4, "velocity": 92}, {"time": 2965, "pitch": 73, "duration": 4, "velocity": 102}, {"time": 2971, "pitch": 71, "duration": 33, "velocity": 92}, {"time": 2971, "pitch": 75, "duration": 33, "velocity": 111}, {"time": 3007, "pitch": 75, "duration": 4, "velocity": 123}, {"time": 3013, "pitch": 78, "duration": 4, "velocity": 117}, {"time": 3019, "pitch": 80, "duration": 34, "velocity": 117}, {"time": 3055, "pitch": 78, "duration": 5, "velocity": 114}, {"time": 3061, "pitch": 75, "duration": 4, "velocity": 114}, {"time": 3067, "pitch": 78, "duration": 6, "velocity": 117}, {"time": 3073, "pitch": 61, "duration": 3, "velocity": 105}, {"time": 3076, "pitch": 63, "duration": 3, "velocity": 97}, {"time": 3079, "pitch": 66, "duration": 2, "velocity": 117}, {"time": 3082, "pitch": 61, "duration": 4, "velocity": 89}, {"time": 3085, "pitch": 63, "duration": 3, "velocity": 94}, {"time": 3088, "pitch": 66, "duration": 1, "velocity": 111}, {"time": 3091, "pitch": 61, "duration": 3, "velocity": 92}, {"time": 3094, "pitch": 63, "duration": 3, "velocity": 102}, {"time": 3097, "pitch": 66, "duration": 2, "velocity": 111}, {"time": 3100, "pitch": 61, "duration": 4, "velocity": 84}, {"time": 3103, "pitch": 75, "duration": 1, "velocity": 114}, {"time": 3104, "pitch": 76, "duration": 2, "velocity": 114}, {"time": 3106, "pitch": 77, "duration": 1, "velocity": 114}, {"time": 3107, "pitch": 78, "duration": 2, "velocity": 114}, {"time": 3109, "pitch": 79, "duration": 1, "velocity": 114}, {"time": 3110, "pitch": 80, "duration": 2, "velocity": 114}, {"time": 3112, "pitch": 81, "duration": 1, "velocity": 114}, {"time": 3113, "pitch": 82, "duration": 2, "velocity": 114}, {"time": 3115, "pitch": 78, "duration": 10, "velocity": 100}, {"time": 3115, "pitch": 83, "duration": 11, "velocity": 105}, {"time": 3133, "pitch": 75, "duration": 4, "velocity": 105}, {"time": 3133, "pitch": 80, "duration": 3, "velocity": 102}, {"time": 3139, "pitch": 75, "duration": 14, "velocity": 111}, {"time": 3139, "pitch": 83, "duration": 14, "velocity": 102}, {"time": 3163, "pitch": 83, "duration": 9, "velocity": 114}, {"time": 3175, "pitch": 80, "duration": 5, "velocity": 120}, {"time": 3181, "pitch": 78, "duration": 5, "velocity": 114}, {"time": 3187, "pitch": 75, "duration": 12, "velocity": 120}, {"time": 3199, "pitch": 75, "duration": 2, "velocity": 111}, {"time": 3202, "pitch": 73, "duration": 2, "velocity": 94}, {"time": 3205, "pitch": 71, "duration": 3, "velocity": 105}, {"time": 3208, "pitch": 73, "duration": 1, "velocity": 117}, {"time": 3211, "pitch": 75, "duration": 18, "velocity": 111}, {"time": 3235, "pitch": 73, "duration": 21, "velocity": 114}, {"time": 3265, "pitch": 66, "duration": 2, "velocity": 94}, {"time": 3265, "pitch": 78, "duration": 2, "velocity": 92}, {"time": 3268, "pitch": 68, "duration": 1, "velocity": 111}, {"time": 3268, "pitch": 80, "duration": 2, "velocity": 97}, {"time": 3271, "pitch": 66, "duration": 3, "velocity": 105}, {"time": 3271, "pitch": 78, "duration": 3, "velocity": 111}, {"time": 3277, "pitch": 63, "duration": 4, "velocity": 100}, {"time": 3277, "pitch": 75, "duration": 4, "velocity": 111}, {"time": 3283, "pitch": 61, "duration": 18, "velocity": 94}, {"time": 3283, "pitch": 73, "duration": 17, "velocity": 84}, {"time": 3313, "pitch": 75, "duration": 4, "velocity": 111}, {"time": 3319, "pitch": 73, "duration": 4, "velocity": 105}, {"time": 3325, "pitch": 71, "duration": 6, "velocity": 108}, {"time": 3331, "pitch": 68, "duration": 20, "velocity": 114}, {"time": 3361, "pitch": 80, "duration": 4, "velocity": 117}, {"time": 3367, "pitch": 80, "duration": 4, "velocity": 117}, {"time": 3373, "pitch": 83, "duration": 4, "velocity": 117}, {"time": 3379, "pitch": 78, "duration": 14, "velocity": 114}, {"time": 3403, "pitch": 75, "duration": 19, "velocity": 114}, {"time": 3427, "pitch": 73, "duration": 11, "velocity": 114}, {"time": 3439, "pitch": 66, "duration": 9, "velocity": 114}, {"time": 3451, "pitch": 71, "duration": 27, "velocity": 108}, {"time": 3457, "pitch": 54, "duration": 3, "velocity": 114}, {"time": 3463, "pitch": 56, "duration": 3, "velocity": 111}, {"time": 3469, "pitch": 54, "duration": 2, "velocity": 108}, {"time": 3472, "pitch": 56, "duration": 1, "velocity": 100}, {"time": 3475, "pitch": 59, "duration": 11, "velocity": 111}, {"time": 3487, "pitch": 87, "duration": 4, "velocity": 120}, {"time": 3493, "pitch": 85, "duration": 4, "velocity": 120}, {"time": 3499, "pitch": 83, "duration": 27, "velocity": 123}, {"time": 3505, "pitch": 78, "duration": 1, "velocity": 105}, {"time": 3508, "pitch": 78, "duration": 2, "velocity": 105}, {"time": 3511, "pitch": 75, "duration": 5, "velocity": 114}, {"time": 3517, "pitch": 73, "duration": 4, "velocity": 114}, {"time": 3523, "pitch": 71, "duration": 12, "velocity": 108}, {"time": 3529, "pitch": 87, "duration": 4, "velocity": 117}, {"time": 3535, "pitch": 85, "duration": 5, "velocity": 108}, {"time": 3541, "pitch": 83, "duration": 5, "velocity": 120}, {"time": 3547, "pitch": 80, "duration": 26, "velocity": 120}, {"time": 3553, "pitch": 71, "duration": 1, "velocity": 105}, {"time": 3556, "pitch": 71, "duration": 1, "velocity": 92}, {"time": 3559, "pitch": 73, "duration": 1, "velocity": 100}, {"time": 3562, "pitch": 73, "duration": 2, "velocity": 94}, {"time": 3565, "pitch": 71, "duration": 5, "velocity": 105}, {"time": 3571, "pitch": 68, "duration": 17, "velocity": 117}, {"time": 3583, "pitch": 83, "duration": 2, "velocity": 114}, {"time": 3586, "pitch": 78, "duration": 2, "velocity": 102}, {"time": 3589, "pitch": 80, "duration": 2, "velocity": 114}, {"time": 3592, "pitch": 83, "duration": 1, "velocity": 120}, {"time": 3595, "pitch": 87, "duration": 15, "velocity": 114}, {"time": 3613, "pitch": 90, "duration": 4, "velocity": 120}, {"time": 3619, "pitch": 85, "duration": 4, "velocity": 111}, {"time": 3625, "pitch": 83, "duration": 4, "velocity": 114}, {"time": 3631, "pitch": 80, "duration": 5, "velocity": 120}, {"time": 3637, "pitch": 78, "duration": 4, "velocity": 117}, {"time": 3640, "pitch": 80, "duration": 3, "velocity": 105}, {"time": 3643, "pitch": 83, "duration": 38, "velocity": 120}, {"time": 3649, "pitch": 66, "duration": 4, "velocity": 108}, {"time": 3655, "pitch": 68, "duration": 4, "velocity": 114}, {"time": 3661, "pitch": 66, "duration": 4, "velocity": 114}, {"time": 3667, "pitch": 71, "duration": 4, "velocity": 114}, {"time": 3673, "pitch": 66, "duration": 4, "velocity": 114}, {"time": 3679, "pitch": 68, "duration": 1, "velocity": 102}, {"time": 3682, "pitch": 68, "duration": 2, "velocity": 108}, {"time": 3685, "pitch": 66, "duration": 4, "velocity": 117}, {"time": 3691, "pitch": 71, "duration": 4, "velocity": 114}, {"time": 3703, "pitch": 78, "duration": 4, "velocity": 102}, {"time": 3703, "pitch": 83, "duration": 4, "velocity": 111}]}, {"program": 0, "is_drum": false, "name": "PIANO", "notes": [{"time": 43, "pitch": 59, "duration": 11, "velocity": 92}, {"time": 49, "pitch": 66, "duration": 6, "velocity": 64}, {"time": 49, "pitch": 71, "duration": 6, "velocity": 82}, {"time": 49, "pitch": 75, "duration": 6, "velocity": 80}, {"time": 55, "pitch": 54, "duration": 8, "velocity": 89}, {"time": 61, "pitch": 66, "duration": 3, "velocity": 92}, {"time": 61, "pitch": 71, "duration": 3, "velocity": 89}, {"time": 61, "pitch": 75, "duration": 3, "velocity": 94}, {"time": 67, "pitch": 59, "duration": 11, "velocity": 51}, {"time": 73, "pitch": 66, "duration": 7, "velocity": 97}, {"time": 73, "pitch": 71, "duration": 6, "velocity": 94}, {"time": 73, "pitch": 75, "duration": 6, "velocity": 100}, {"time": 79, "pitch": 54, "duration": 7, "velocity": 84}, {"time": 85, "pitch": 66, "duration": 2, "velocity": 84}, {"time": 85, "pitch": 71, "duration": 3, "velocity": 97}, {"time": 85, "pitch": 75, "duration": 3, "velocity": 89}, {"time": 91, "pitch": 59, "duration": 11, "velocity": 71}, {"time": 97, "pitch": 66, "duration": 7, "velocity": 80}, {"time": 97, "pitch": 71, "duration": 6, "velocity": 84}, {"time": 97, "pitch": 75, "duration": 6, "velocity": 84}, {"time": 103, "pitch": 54, "duration": 8, "velocity": 76}, {"time": 109, "pitch": 66, "duration": 2, "velocity": 87}, {"time": 109, "pitch": 71, "duration": 2, "velocity": 97}, {"time": 109, "pitch": 75, "duration": 2, "velocity": 92}, {"time": 115, "pitch": 59, "duration": 12, "velocity": 55}, {"time": 121, "pitch": 66, "duration": 9, "velocity": 78}, {"time": 121, "pitch": 71, "duration": 9, "velocity": 87}, {"time": 121, "pitch": 75, "duration": 9, "velocity": 89}, {"time": 127, "pitch": 54, "duration": 9, "velocity": 97}, {"time": 133, "pitch": 66, "duration": 4, "velocity": 97}, {"time": 133, "pitch": 71, "duration": 4, "velocity": 94}, {"time": 133, "pitch": 75, "duration": 4, "velocity": 87}, {"time": 139, "pitch": 56, "duration": 7, "velocity": 97}, {"time": 145, "pitch": 68, "duration": 7, "velocity": 94}, {"time": 145, "pitch": 71, "duration": 6, "velocity": 92}, {"time": 145, "pitch": 75, "duration": 7, "velocity": 89}, {"time": 151, "pitch": 63, "duration": 12, "velocity": 80}, {"time": 157, "pitch": 68, "duration": 5, "velocity": 92}, {"time": 157, "pitch": 71, "duration": 5, "velocity": 94}, {"time": 157, "pitch": 75, "duration": 6, "velocity": 89}, {"time": 163, "pitch": 56, "duration": 9, "velocity": 97}, {"time": 169, "pitch": 68, "duration": 8, "velocity": 78}, {"time": 169, "pitch": 71, "duration": 7, "velocity": 80}, {"time": 169, "pitch": 75, "duration": 8, "velocity": 89}, {"time": 175, "pitch": 63, "duration": 9, "velocity": 76}, {"time": 181, "pitch": 68, "duration": 3, "velocity": 94}, {"time": 181, "pitch": 71, "duration": 3, "velocity": 100}, {"time": 181, "pitch": 75, "duration": 3, "velocity": 87}, {"time": 187, "pitch": 54, "duration": 2, "velocity": 97}, {"time": 187, "pitch": 66, "duration": 2, "velocity": 84}, {"time": 187, "pitch": 70, "duration": 2, "velocity": 82}, {"time": 187, "pitch": 73, "duration": 2, "velocity": 92}, {"time": 193, "pitch": 54, "duration": 2, "velocity": 92}, {"time": 193, "pitch": 66, "duration": 2, "velocity": 66}, {"time": 193, "pitch": 70, "duration": 2, "velocity": 80}, {"time": 193, "pitch": 73, "duration": 2, "velocity": 84}, {"time": 199, "pitch": 54, "duration": 2, "velocity": 97}, {"time": 199, "pitch": 66, "duration": 2, "velocity": 87}, {"time": 199, "pitch": 70, "duration": 2, "velocity": 94}, {"time": 199, "pitch": 73, "duration": 2, "velocity": 92}, {"time": 205, "pitch": 54, "duration": 2, "velocity": 100}, {"time": 205, "pitch": 66, "duration": 2, "velocity": 87}, {"time": 205, "pitch": 70, "duration": 2, "velocity": 92}, {"time": 205, "pitch": 73, "duration": 2, "velocity": 94}, {"time": 211, "pitch": 54, "duration": 3, "velocity": 92}, {"time": 211, "pitch": 66, "duration": 2, "velocity": 73}, {"time": 211, "pitch": 70, "duration": 2, "velocity": 82}, {"time": 211, "pitch": 73, "duration": 3, "velocity": 84}, {"time": 217, "pitch": 54, "duration": 2, "velocity": 89}, {"time": 217, "pitch": 66, "duration": 2, "velocity": 66}, {"time": 217, "pitch": 70, "duration": 2, "velocity": 82}, {"time": 217, "pitch": 73, "duration": 2, "velocity": 82}, {"time": 223, "pitch": 54, "duration": 3, "velocity": 102}, {"time": 223, "pitch": 66, "duration": 2, "velocity": 73}, {"time": 223, "pitch": 70, "duration": 2, "velocity": 92}, {"time": 223, "pitch": 73, "duration": 2, "velocity": 92}, {"time": 229, "pitch": 54, "duration": 3, "velocity": 97}, {"time": 229, "pitch": 66, "duration": 6, "velocity": 76}, {"time": 229, "pitch": 70, "duration": 5, "velocity": 89}, {"time": 229, "pitch": 73, "duration": 5, "velocity": 94}, {"time": 235, "pitch": 59, "duration": 10, "velocity": 100}, {"time": 241, "pitch": 66, "duration": 6, "velocity": 92}, {"time": 241, "pitch": 71, "duration": 6, "velocity": 94}, {"time": 241, "pitch": 75, "duration": 6, "velocity": 92}, {"time": 247, "pitch": 54, "duration": 6, "velocity": 100}, {"time": 253, "pitch": 66, "duration": 2, "velocity": 87}, {"time": 253, "pitch": 71, "duration": 2, "velocity": 102}, {"time": 253, "pitch": 75, "duration": 2, "velocity": 92}, {"time": 259, "pitch": 59, "duration": 9, "velocity": 80}, {"time": 265, "pitch": 66, "duration": 7, "velocity": 87}, {"time": 265, "pitch": 71, "duration": 7, "velocity": 92}, {"time": 265, "pitch": 75, "duration": 7, "velocity": 82}, {"time": 271, "pitch": 54, "duration": 9, "velocity": 100}, {"time": 277, "pitch": 66, "duration": 2, "velocity": 94}, {"time": 277, "pitch": 71, "duration": 2, "velocity": 105}, {"time": 277, "pitch": 75, "duration": 3, "velocity": 97}, {"time": 283, "pitch": 59, "duration": 11, "velocity": 60}, {"time": 289, "pitch": 66, "duration": 3, "velocity": 84}, {"time": 289, "pitch": 71, "duration": 3, "velocity": 89}, {"time": 289, "pitch": 75, "duration": 4, "velocity": 92}, {"time": 295, "pitch": 54, "duration": 10, "velocity": 94}, {"time": 301, "pitch": 66, "duration": 4, "velocity": 92}, {"time": 301, "pitch": 71, "duration": 4, "velocity": 100}, {"time": 301, "pitch": 75, "duration": 4, "velocity": 87}, {"time": 307, "pitch": 59, "duration": 11, "velocity": 94}, {"time": 313, "pitch": 66, "duration": 6, "velocity": 84}, {"time": 313, "pitch": 71, "duration": 6, "velocity": 97}, {"time": 313, "pitch": 75, "duration": 8, "velocity": 71}, {"time": 319, "pitch": 54, "duration": 7, "velocity": 97}, {"time": 325, "pitch": 66, "duration": 3, "velocity": 97}, {"time": 325, "pitch": 71, "duration": 2, "velocity": 108}, {"time": 325, "pitch": 75, "duration": 3, "velocity": 92}, {"time": 331, "pitch": 59, "duration": 10, "velocity": 80}, {"time": 337, "pitch": 66, "duration": 8, "velocity": 94}, {"time": 337, "pitch": 71, "duration": 8, "velocity": 97}, {"time": 337, "pitch": 75, "duration": 8, "velocity": 94}, {"time": 343, "pitch": 54, "duration": 8, "velocity": 102}, {"time": 349, "pitch": 66, "duration": 2, "velocity": 105}, {"time": 349, "pitch": 71, "duration": 2, "velocity": 117}, {"time": 349, "pitch": 75, "duration": 3, "velocity": 100}, {"time": 355, "pitch": 54, "duration": 10, "velocity": 97}, {"time": 361, "pitch": 66, "duration": 7, "velocity": 87}, {"time": 361, "pitch": 70, "duration": 7, "velocity": 100}, {"time": 361, "pitch": 73, "duration": 7, "velocity": 97}, {"time": 367, "pitch": 61, "duration": 9, "velocity": 69}, {"time": 373, "pitch": 66, "duration": 4, "velocity": 97}, {"time": 373, "pitch": 70, "duration": 3, "velocity": 108}, {"time": 373, "pitch": 73, "duration": 3, "velocity": 97}, {"time": 379, "pitch": 59, "duration": 1, "velocity": 105}, {"time": 379, "pitch": 71, "duration": 1, "velocity": 108}, {"time": 382, "pitch": 59, "duration": 1, "velocity": 94}, {"time": 382, "pitch": 71, "duration": 2, "velocity": 102}, {"time": 385, "pitch": 58, "duration": 2, "velocity": 111}, {"time": 385, "pitch": 70, "duration": 4, "velocity": 100}, {"time": 391, "pitch": 56, "duration": 4, "velocity": 108}, {"time": 391, "pitch": 68, "duration": 3, "velocity": 100}, {"time": 397, "pitch": 54, "duration": 4, "velocity": 100}, {"time": 397, "pitch": 66, "duration": 4, "velocity": 108}, {"time": 403, "pitch": 59, "duration": 1, "velocity": 100}, {"time": 403, "pitch": 71, "duration": 1, "velocity": 111}, {"time": 406, "pitch": 59, "duration": 1, "velocity": 97}, {"time": 406, "pitch": 71, "duration": 1, "velocity": 100}, {"time": 409, "pitch": 58, "duration": 1, "velocity": 100}, {"time": 409, "pitch": 70, "duration": 1, "velocity": 114}, {"time": 412, "pitch": 58, "duration": 1, "velocity": 92}, {"time": 412, "pitch": 70, "duration": 1, "velocity": 102}, {"time": 415, "pitch": 56, "duration": 3, "velocity": 108}, {"time": 415, "pitch": 68, "duration": 4, "velocity": 108}, {"time": 421, "pitch": 54, "duration": 5, "velocity": 97}, {"time": 421, "pitch": 66, "duration": 5, "velocity": 111}, {"time": 427, "pitch": 59, "duration": 10, "velocity": 102}, {"time": 433, "pitch": 66, "duration": 6, "velocity": 92}, {"time": 433, "pitch": 71, "duration": 6, "velocity": 100}, {"time": 433, "pitch": 75, "duration": 6, "velocity": 97}, {"time": 439, "pitch": 54, "duration": 8, "velocity": 97}, {"time": 445, "pitch": 66, "duration": 2, "velocity": 87}, {"time": 445, "pitch": 71, "duration": 2, "velocity": 94}, {"time": 445, "pitch": 75, "duration": 2, "velocity": 92}, {"time": 451, "pitch": 59, "duration": 10, "velocity": 82}, {"time": 457, "pitch": 66, "duration": 6, "velocity": 78}, {"time": 457, "pitch": 71, "duration": 6, "velocity": 92}, {"time": 457, "pitch": 75, "duration": 6, "velocity": 82}, {"time": 463, "pitch": 54, "duration": 9, "velocity": 100}, {"time": 469, "pitch": 66, "duration": 3, "velocity": 92}, {"time": 469, "pitch": 71, "duration": 3, "velocity": 102}, {"time": 469, "pitch": 75, "duration": 3, "velocity": 102}, {"time": 475, "pitch": 59, "duration": 11, "velocity": 82}, {"time": 481, "pitch": 66, "duration": 6, "velocity": 97}, {"time": 481, "pitch": 71, "duration": 5, "velocity": 102}, {"time": 481, "pitch": 75, "duration": 5, "velocity": 102}, {"time": 487, "pitch": 54, "duration": 8, "velocity": 100}, {"time": 493, "pitch": 66, "duration": 2, "velocity": 94}, {"time": 493, "pitch": 71, "duration": 2, "velocity": 102}, {"time": 493, "pitch": 75, "duration": 2, "velocity": 97}, {"time": 499, "pitch": 59, "duration": 10, "velocity": 92}, {"time": 505, "pitch": 66, "duration": 7, "velocity": 94}, {"time": 505, "pitch": 71, "duration": 7, "velocity": 102}, {"time": 505, "pitch": 75, "duration": 7, "velocity": 92}, {"time": 511, "pitch": 54, "duration": 7, "velocity": 102}, {"time": 517, "pitch": 66, "duration": 2, "velocity": 94}, {"time": 517, "pitch": 71, "duration": 2, "velocity": 102}, {"time": 517, "pitch": 75, "duration": 2, "velocity": 94}, {"time": 523, "pitch": 61, "duration": 10, "velocity": 94}, {"time": 529, "pitch": 68, "duration": 5, "velocity": 102}, {"time": 529, "pitch": 73, "duration": 5, "velocity": 87}, {"time": 529, "pitch": 76, "duration": 5, "velocity": 89}, {"time": 535, "pitch": 56, "duration": 7, "velocity": 100}, {"time": 541, "pitch": 68, "duration": 3, "velocity": 100}, {"time": 541, "pitch": 73, "duration": 2, "velocity": 100}, {"time": 541, "pitch": 76, "duration": 2, "velocity": 97}, {"time": 547, "pitch": 61, "duration": 11, "velocity": 82}, {"time": 553, "pitch": 68, "duration": 8, "velocity": 102}, {"time": 553, "pitch": 73, "duration": 7, "velocity": 97}, {"time": 553, "pitch": 76, "duration": 7, "velocity": 100}, {"time": 559, "pitch": 56, "duration": 9, "velocity": 97}, {"time": 565, "pitch": 68, "duration": 3, "velocity": 92}, {"time": 565, "pitch": 73, "duration": 3, "velocity": 100}, {"time": 565, "pitch": 76, "duration": 4, "velocity": 94}, {"time": 571, "pitch": 54, "duration": 9, "velocity": 97}, {"time": 577, "pitch": 66, "duration": 7, "velocity": 100}, {"time": 577, "pitch": 70, "duration": 7, "velocity": 111}, {"time": 577, "pitch": 73, "duration": 7, "velocity": 97}, {"time": 583, "pitch": 61, "duration": 9, "velocity": 73}, {"time": 589, "pitch": 66, "duration": 2, "velocity": 92}, {"time": 589, "pitch": 70, "duration": 2, "velocity": 102}, {"time": 589, "pitch": 73, "duration": 2, "velocity": 97}, {"time": 595, "pitch": 54, "duration": 22, "velocity": 100}, {"time": 595, "pitch": 66, "duration": 9, "velocity": 53}, {"time": 595, "pitch": 70, "duration": 8, "velocity": 78}, {"time": 595, "pitch": 73, "duration": 8, "velocity": 66}, {"time": 607, "pitch": 61, "duration": 9, "velocity": 102}, {"time": 613, "pitch": 66, "duration": 4, "velocity": 84}, {"time": 613, "pitch": 70, "duration": 4, "velocity": 105}, {"time": 613, "pitch": 73, "duration": 4, "velocity": 97}, {"time": 613, "pitch": 78, "duration": 4, "velocity": 84}, {"time": 619, "pitch": 56, "duration": 9, "velocity": 102}, {"time": 625, "pitch": 68, "duration": 5, "velocity": 97}, {"time": 625, "pitch": 71, "duration": 5, "velocity": 108}, {"time": 625, "pitch": 75, "duration": 4, "velocity": 102}, {"time": 631, "pitch": 63, "duration": 10, "velocity": 80}, {"time": 637, "pitch": 68, "duration": 4, "velocity": 94}, {"time": 637, "pitch": 71, "duration": 4, "velocity": 100}, {"time": 637, "pitch": 75, "duration": 4, "velocity": 97}, {"time": 643, "pitch": 56, "duration": 19, "velocity": 89}, {"time": 649, "pitch": 68, "duration": 8, "velocity": 97}, {"time": 649, "pitch": 71, "duration": 7, "velocity": 105}, {"time": 649, "pitch": 75, "duration": 7, "velocity": 94}, {"time": 655, "pitch": 63, "duration": 8, "velocity": 97}, {"time": 661, "pitch": 68, "duration": 2, "velocity": 97}, {"time": 661, "pitch": 71, "duration": 2, "velocity": 100}, {"time": 661, "pitch": 75, "duration": 3, "velocity": 102}, {"time": 667, "pitch": 59, "duration": 11, "velocity": 94}, {"time": 667, "pitch": 66, "duration": 7, "velocity": 92}, {"time": 667, "pitch": 71, "duration": 10, "velocity": 97}, {"time": 667, "pitch": 75, "duration": 10, "velocity": 97}, {"time": 679, "pitch": 56, "duration": 10, "velocity": 102}, {"time": 679, "pitch": 68, "duration": 9, "velocity": 87}, {"time": 679, "pitch": 71, "duration": 8, "velocity": 92}, {"time": 691, "pitch": 54, "duration": 9, "velocity": 100}, {"time": 691, "pitch": 66, "duration": 4, "velocity": 71}, {"time": 691, "pitch": 70, "duration": 4, "velocity": 94}, {"time": 697, "pitch": 66, "duration": 7, "velocity": 94}, {"time": 697, "pitch": 70, "duration": 6, "velocity": 97}, {"time": 697, "pitch": 73, "duration": 5, "velocity": 89}, {"time": 703, "pitch": 61, "duration": 9, "velocity": 71}, {"time": 709, "pitch": 66, "duration": 3, "velocity": 100}, {"time": 709, "pitch": 70, "duration": 3, "velocity": 114}, {"time": 709, "pitch": 73, "duration": 3, "velocity": 100}, {"time": 715, "pitch": 59, "duration": 11, "velocity": 100}, {"time": 721, "pitch": 66, "duration": 6, "velocity": 92}, {"time": 721, "pitch": 71, "duration": 6, "velocity": 97}, {"time": 721, "pitch": 75, "duration": 6, "velocity": 94}, {"time": 727, "pitch": 54, "duration": 8, "velocity": 100}, {"time": 733, "pitch": 66, "duration": 3, "velocity": 94}, {"time": 733, "pitch": 71, "duration": 3, "velocity": 102}, {"time": 733, "pitch": 75, "duration": 3, "velocity": 100}, {"time": 739, "pitch": 59, "duration": 10, "velocity": 97}, {"time": 745, "pitch": 66, "duration": 8, "velocity": 97}, {"time": 745, "pitch": 71, "duration": 8, "velocity": 108}, {"time": 745, "pitch": 75, "duration": 8, "velocity": 100}, {"time": 751, "pitch": 54, "duration": 8, "velocity": 105}, {"time": 757, "pitch": 66, "duration": 9, "velocity": 94}, {"time": 757, "pitch": 71, "duration": 8, "velocity": 108}, {"time": 757, "pitch": 75, "duration": 8, "velocity": 100}, {"time": 763, "pitch": 59, "duration": 9, "velocity": 82}, {"time": 769, "pitch": 78, "duration": 3, "velocity": 120}, {"time": 775, "pitch": 54, "duration": 7, "velocity": 105}, {"time": 775, "pitch": 75, "duration": 5, "velocity": 92}, {"time": 781, "pitch": 73, "duration": 3, "velocity": 117}, {"time": 787, "pitch": 59, "duration": 9, "velocity": 94}, {"time": 787, "pitch": 66, "duration": 9, "velocity": 82}, {"time": 787, "pitch": 71, "duration": 8, "velocity": 94}, {"time": 787, "pitch": 75, "duration": 8, "velocity": 94}, {"time": 799, "pitch": 59, "duration": 4, "velocity": 100}, {"time": 799, "pitch": 66, "duration": 2, "velocity": 84}, {"time": 799, "pitch": 71, "duration": 4, "velocity": 97}, {"time": 799, "pitch": 75, "duration": 4, "velocity": 97}, {"time": 805, "pitch": 58, "duration": 4, "velocity": 94}, {"time": 805, "pitch": 70, "duration": 4, "velocity": 94}, {"time": 805, "pitch": 73, "duration": 4, "velocity": 89}, {"time": 811, "pitch": 56, "duration": 22, "velocity": 100}, {"time": 811, "pitch": 68, "duration": 6, "velocity": 100}, {"time": 811, "pitch": 71, "duration": 6, "velocity": 100}, {"time": 820, "pitch": 68, "duration": 1, "velocity": 102}, {"time": 820, "pitch": 71, "duration": 1, "velocity": 108}, {"time": 823, "pitch": 63, "duration": 10, "velocity": 108}, {"time": 823, "pitch": 68, "duration": 6, "velocity": 94}, {"time": 823, "pitch": 71, "duration": 7, "velocity": 84}, {"time": 823, "pitch": 75, "duration": 8, "velocity": 108}, {"time": 835, "pitch": 56, "duration": 21, "velocity": 89}, {"time": 835, "pitch": 68, "duration": 6, "velocity": 87}, {"time": 835, "pitch": 71, "duration": 6, "velocity": 87}, {"time": 844, "pitch": 68, "duration": 1, "velocity": 92}, {"time": 847, "pitch": 63, "duration": 10, "velocity": 102}, {"time": 847, "pitch": 68, "duration": 3, "velocity": 102}, {"time": 847, "pitch": 71, "duration": 7, "velocity": 111}, {"time": 847, "pitch": 75, "duration": 7, "velocity": 97}, {"time": 853, "pitch": 68, "duration": 3, "velocity": 87}, {"time": 859, "pitch": 56, "duration": 22, "velocity": 100}, {"time": 859, "pitch": 68, "duration": 6, "velocity": 100}, {"time": 859, "pitch": 71, "duration": 6, "velocity": 100}, {"time": 868, "pitch": 68, "duration": 1, "velocity": 102}, {"time": 868, "pitch": 71, "duration": 1, "velocity": 108}, {"time": 871, "pitch": 63, "duration": 10, "velocity": 108}, {"time": 871, "pitch": 68, "duration": 6, "velocity": 94}, {"time": 871, "pitch": 71, "duration": 7, "velocity": 84}, {"time": 871, "pitch": 75, "duration": 8, "velocity": 108}, {"time": 883, "pitch": 56, "duration": 21, "velocity": 89}, {"time": 883, "pitch": 68, "duration": 6, "velocity": 87}, {"time": 883, "pitch": 71, "duration": 6, "velocity": 87}, {"time": 892, "pitch": 68, "duration": 1, "velocity": 92}, {"time": 895, "pitch": 63, "duration": 10, "velocity": 102}, {"time": 895, "pitch": 68, "duration": 3, "velocity": 102}, {"time": 895, "pitch": 71, "duration": 7, "velocity": 111}, {"time": 895, "pitch": 75, "duration": 7, "velocity": 97}, {"time": 901, "pitch": 68, "duration": 3, "velocity": 87}, {"time": 907, "pitch": 56, "duration": 22, "velocity": 100}, {"time": 907, "pitch": 68, "duration": 6, "velocity": 100}, {"time": 907, "pitch": 71, "duration": 6, "velocity": 100}, {"time": 916, "pitch": 68, "duration": 1, "velocity": 102}, {"time": 916, "pitch": 71, "duration": 1, "velocity": 108}, {"time": 919, "pitch": 63, "duration": 10, "velocity": 108}, {"time": 919, "pitch": 68, "duration": 6, "velocity": 94}, {"time": 919, "pitch": 71, "duration": 7, "velocity": 84}, {"time": 919, "pitch": 75, "duration": 8, "velocity": 108}, {"time": 931, "pitch": 56, "duration": 21, "velocity": 89}, {"time": 931, "pitch": 68, "duration": 6, "velocity": 87}, {"time": 931, "pitch": 71, "duration": 6, "velocity": 87}, {"time": 940, "pitch": 68, "duration": 1, "velocity": 92}, {"time": 943, "pitch": 63, "duration": 10, "velocity": 102}, {"time": 943, "pitch": 68, "duration": 3, "velocity": 102}, {"time": 943, "pitch": 71, "duration": 7, "velocity": 111}, {"time": 943, "pitch": 75, "duration": 7, "velocity": 97}, {"time": 949, "pitch": 68, "duration": 3, "velocity": 87}, {"time": 955, "pitch": 54, "duration": 21, "velocity": 102}, {"time": 955, "pitch": 66, "duration": 6, "velocity": 97}, {"time": 955, "pitch": 73, "duration": 6, "velocity": 92}, {"time": 961, "pitch": 61, "duration": 9, "velocity": 71}, {"time": 964, "pitch": 66, "duration": 1, "velocity": 82}, {"time": 964, "pitch": 70, "duration": 1, "velocity": 100}, {"time": 967, "pitch": 66, "duration": 5, "velocity": 102}, {"time": 967, "pitch": 70, "duration": 6, "velocity": 108}, {"time": 973, "pitch": 61, "duration": 5, "velocity": 67}, {"time": 976, "pitch": 66, "duration": 1, "velocity": 40}, {"time": 979, "pitch": 54, "duration": 23, "velocity": 105}, {"time": 979, "pitch": 66, "duration": 6, "velocity": 89}, {"time": 979, "pitch": 70, "duration": 6, "velocity": 108}, {"time": 979, "pitch": 73, "duration": 7, "velocity": 102}, {"time": 985, "pitch": 61, "duration": 9, "velocity": 62}, {"time": 988, "pitch": 66, "duration": 1, "velocity": 53}, {"time": 988, "pitch": 70, "duration": 1, "velocity": 100}, {"time": 991, "pitch": 66, "duration": 6, "velocity": 92}, {"time": 991, "pitch": 70, "duration": 7, "velocity": 114}, {"time": 991, "pitch": 73, "duration": 7, "velocity": 114}, {"time": 997, "pitch": 61, "duration": 5, "velocity": 94}, {"time": 1003, "pitch": 59, "duration": 15, "velocity": 105}, {"time": 1003, "pitch": 66, "duration": 3, "velocity": 92}, {"time": 1003, "pitch": 71, "duration": 3, "velocity": 97}, {"time": 1009, "pitch": 71, "duration": 1, "velocity": 58}, {"time": 1009, "pitch": 75, "duration": 1, "velocity": 67}, {"time": 1012, "pitch": 66, "duration": 1, "velocity": 60}, {"time": 1012, "pitch": 71, "duration": 1, "velocity": 82}, {"time": 1012, "pitch": 75, "duration": 1, "velocity": 71}, {"time": 1015, "pitch": 66, "duration": 2, "velocity": 102}, {"time": 1015, "pitch": 71, "duration": 2, "velocity": 102}, {"time": 1015, "pitch": 75, "duration": 3, "velocity": 108}, {"time": 1021, "pitch": 66, "duration": 3, "velocity": 80}, {"time": 1027, "pitch": 59, "duration": 15, "velocity": 102}, {"time": 1027, "pitch": 66, "duration": 4, "velocity": 84}, {"time": 1027, "pitch": 71, "duration": 4, "velocity": 92}, {"time": 1033, "pitch": 66, "duration": 1, "velocity": 64}, {"time": 1033, "pitch": 71, "duration": 1, "velocity": 76}, {"time": 1033, "pitch": 75, "duration": 1, "velocity": 84}, {"time": 1036, "pitch": 66, "duration": 1, "velocity": 73}, {"time": 1036, "pitch": 71, "duration": 1, "velocity": 89}, {"time": 1036, "pitch": 75, "duration": 1, "velocity": 92}, {"time": 1039, "pitch": 66, "duration": 3, "velocity": 97}, {"time": 1039, "pitch": 71, "duration": 5, "velocity": 108}, {"time": 1039, "pitch": 75, "duration": 6, "velocity": 105}, {"time": 1045, "pitch": 59, "duration": 2, "velocity": 84}, {"time": 1051, "pitch": 59, "duration": 18, "velocity": 97}, {"time": 1051, "pitch": 66, "duration": 4, "velocity": 89}, {"time": 1051, "pitch": 71, "duration": 4, "velocity": 89}, {"time": 1057, "pitch": 66, "duration": 1, "velocity": 62}, {"time": 1057, "pitch": 71, "duration": 1, "velocity": 78}, {"time": 1057, "pitch": 75, "duration": 1, "velocity": 87}, {"time": 1060, "pitch": 66, "duration": 1, "velocity": 80}, {"time": 1060, "pitch": 71, "duration": 1, "velocity": 92}, {"time": 1060, "pitch": 75, "duration": 1, "velocity": 87}, {"time": 1063, "pitch": 66, "duration": 2, "velocity": 102}, {"time": 1063, "pitch": 71, "duration": 2, "velocity": 108}, {"time": 1063, "pitch": 75, "duration": 2, "velocity": 117}, {"time": 1069, "pitch": 66, "duration": 6, "velocity": 76}, {"time": 1069, "pitch": 71, "duration": 6, "velocity": 84}, {"time": 1069, "pitch": 75, "duration": 4, "velocity": 87}, {"time": 1075, "pitch": 59, "duration": 15, "velocity": 102}, {"time": 1081, "pitch": 66, "duration": 1, "velocity": 55}, {"time": 1081, "pitch": 71, "duration": 1, "velocity": 80}, {"time": 1081, "pitch": 75, "duration": 1, "velocity": 82}, {"time": 1084, "pitch": 66, "duration": 1, "velocity": 45}, {"time": 1084, "pitch": 71, "duration": 1, "velocity": 82}, {"time": 1084, "pitch": 75, "duration": 1, "velocity": 73}, {"time": 1087, "pitch": 66, "duration": 10, "velocity": 97}, {"time": 1087, "pitch": 71, "duration": 10, "velocity": 108}, {"time": 1087, "pitch": 75, "duration": 10, "velocity": 111}, {"time": 1093, "pitch": 59, "duration": 5, "velocity": 100}, {"time": 1099, "pitch": 56, "duration": 8, "velocity": 102}, {"time": 1105, "pitch": 68, "duration": 8, "velocity": 94}, {"time": 1105, "pitch": 71, "duration": 8, "velocity": 100}, {"time": 1105, "pitch": 75, "duration": 7, "velocity": 94}, {"time": 1111, "pitch": 63, "duration": 9, "velocity": 80}, {"time": 1117, "pitch": 68, "duration": 3, "velocity": 97}, {"time": 1117, "pitch": 71, "duration": 3, "velocity": 108}, {"time": 1117, "pitch": 75, "duration": 3, "velocity": 100}, {"time": 1123, "pitch": 61, "duration": 11, "velocity": 100}, {"time": 1129, "pitch": 68, "duration": 9, "velocity": 100}, {"time": 1129, "pitch": 73, "duration": 9, "velocity": 87}, {"time": 1129, "pitch": 76, "duration": 9, "velocity": 97}, {"time": 1135, "pitch": 56, "duration": 9, "velocity": 105}, {"time": 1141, "pitch": 68, "duration": 5, "velocity": 100}, {"time": 1141, "pitch": 73, "duration": 3, "velocity": 102}, {"time": 1141, "pitch": 76, "duration": 6, "velocity": 97}, {"time": 1147, "pitch": 54, "duration": 13, "velocity": 105}, {"time": 1153, "pitch": 66, "duration": 7, "velocity": 100}, {"time": 1153, "pitch": 70, "duration": 7, "velocity": 105}, {"time": 1153, "pitch": 73, "duration": 7, "velocity": 102}, {"time": 1159, "pitch": 61, "duration": 7, "velocity": 92}, {"time": 1165, "pitch": 66, "duration": 4, "velocity": 114}, {"time": 1171, "pitch": 54, "duration": 21, "velocity": 102}, {"time": 1171, "pitch": 66, "duration": 6, "velocity": 92}, {"time": 1171, "pitch": 70, "duration": 5, "velocity": 108}, {"time": 1171, "pitch": 73, "duration": 6, "velocity": 102}, {"time": 1171, "pitch": 78, "duration": 6, "velocity": 94}, {"time": 1195, "pitch": 56, "duration": 9, "velocity": 102}, {"time": 1201, "pitch": 68, "duration": 7, "velocity": 92}, {"time": 1201, "pitch": 71, "duration": 7, "velocity": 97}, {"time": 1201, "pitch": 75, "duration": 7, "velocity": 94}, {"time": 1207, "pitch": 63, "duration": 9, "velocity": 89}, {"time": 1213, "pitch": 68, "duration": 4, "velocity": 92}, {"time": 1213, "pitch": 71, "duration": 3, "velocity": 97}, {"time": 1213, "pitch": 75, "duration": 3, "velocity": 94}, {"time": 1219, "pitch": 56, "duration": 19, "velocity": 92}, {"time": 1225, "pitch": 68, "duration": 8, "velocity": 105}, {"time": 1225, "pitch": 71, "duration": 7, "velocity": 105}, {"time": 1225, "pitch": 75, "duration": 7, "velocity": 105}, {"time": 1231, "pitch": 63, "duration": 10, "velocity": 92}, {"time": 1237, "pitch": 68, "duration": 4, "velocity": 100}, {"time": 1237, "pitch": 71, "duration": 3, "velocity": 100}, {"time": 1237, "pitch": 75, "duration": 4, "velocity": 100}, {"time": 1243, "pitch": 54, "duration": 14, "velocity": 78}, {"time": 1249, "pitch": 66, "duration": 8, "velocity": 100}, {"time": 1249, "pitch": 70, "duration": 7, "velocity": 108}, {"time": 1249, "pitch": 73, "duration": 8, "velocity": 97}, {"time": 1255, "pitch": 61, "duration": 8, "velocity": 87}, {"time": 1261, "pitch": 66, "duration": 3, "velocity": 102}, {"time": 1261, "pitch": 70, "duration": 3, "velocity": 111}, {"time": 1261, "pitch": 73, "duration": 4, "velocity": 100}, {"time": 1267, "pitch": 54, "duration": 14, "velocity": 94}, {"time": 1273, "pitch": 66, "duration": 8, "velocity": 100}, {"time": 1273, "pitch": 70, "duration": 8, "velocity": 105}, {"time": 1273, "pitch": 73, "duration": 8, "velocity": 100}, {"time": 1279, "pitch": 61, "duration": 9, "velocity": 80}, {"time": 1285, "pitch": 66, "duration": 3, "velocity": 100}, {"time": 1285, "pitch": 70, "duration": 3, "velocity": 102}, {"time": 1285, "pitch": 73, "duration": 3, "velocity": 97}, {"time": 1291, "pitch": 59, "duration": 11, "velocity": 94}, {"time": 1297, "pitch": 66, "duration": 8, "velocity": 102}, {"time": 1297, "pitch": 71, "duration": 8, "velocity": 105}, {"time": 1297, "pitch": 75, "duration": 8, "velocity": 97}, {"time": 1303, "pitch": 54, "duration": 9, "velocity": 102}, {"time": 1309, "pitch": 66, "duration": 2, "velocity": 97}, {"time": 1309, "pitch": 71, "duration": 4, "velocity": 102}, {"time": 1309, "pitch": 75, "duration": 5, "velocity": 94}, {"time": 1315, "pitch": 61, "duration": 9, "velocity": 108}, {"time": 1321, "pitch": 68, "duration": 6, "velocity": 105}, {"time": 1321, "pitch": 73, "duration": 5, "velocity": 102}, {"time": 1321, "pitch": 76, "duration": 6, "velocity": 102}, {"time": 1327, "pitch": 54, "duration": 9, "velocity": 108}, {"time": 1333, "pitch": 66, "duration": 4, "velocity": 97}, {"time": 1333, "pitch": 70, "duration": 4, "velocity": 102}, {"time": 1333, "pitch": 73, "duration": 5, "velocity": 94}, {"time": 1339, "pitch": 59, "duration": 11, "velocity": 102}, {"time": 1345, "pitch": 66, "duration": 8, "velocity": 94}, {"time": 1345, "pitch": 71, "duration": 7, "velocity": 102}, {"time": 1345, "pitch": 75, "duration": 7, "velocity": 97}, {"time": 1351, "pitch": 54, "duration": 9, "velocity": 97}, {"time": 1357, "pitch": 66, "duration": 3, "velocity": 92}, {"time": 1357, "pitch": 71, "duration": 2, "velocity": 100}, {"time": 1357, "pitch": 75, "duration": 3, "velocity": 100}, {"time": 1363, "pitch": 59, "duration": 24, "velocity": 89}, {"time": 1363, "pitch": 66, "duration": 16, "velocity": 100}, {"time": 1363, "pitch": 71, "duration": 10, "velocity": 102}, {"time": 1375, "pitch": 71, "duration": 10, "velocity": 111}, {"time": 1375, "pitch": 75, "duration": 10, "velocity": 102}, {"time": 1381, "pitch": 66, "duration": 4, "velocity": 97}, {"time": 1387, "pitch": 59, "duration": 1, "velocity": 92}, {"time": 1393, "pitch": 66, "duration": 2, "velocity": 94}, {"time": 1393, "pitch": 71, "duration": 2, "velocity": 100}, {"time": 1393, "pitch": 75, "duration": 2, "velocity": 89}, {"time": 1399, "pitch": 54, "duration": 9, "velocity": 89}, {"time": 1405, "pitch": 66, "duration": 3, "velocity": 87}, {"time": 1405, "pitch": 71, "duration": 2, "velocity": 89}, {"time": 1405, "pitch": 75, "duration": 3, "velocity": 94}, {"time": 1411, "pitch": 59, "duration": 11, "velocity": 92}, {"time": 1417, "pitch": 66, "duration": 5, "velocity": 92}, {"time": 1417, "pitch": 71, "duration": 5, "velocity": 92}, {"time": 1417, "pitch": 75, "duration": 5, "velocity": 97}, {"time": 1423, "pitch": 54, "duration": 9, "velocity": 94}, {"time": 1429, "pitch": 66, "duration": 2, "velocity": 92}, {"time": 1429, "pitch": 71, "duration": 2, "velocity": 89}, {"time": 1429, "pitch": 75, "duration": 3, "velocity": 97}, {"time": 1435, "pitch": 56, "duration": 13, "velocity": 97}, {"time": 1441, "pitch": 68, "duration": 7, "velocity": 94}, {"time": 1441, "pitch": 71, "duration": 6, "velocity": 92}, {"time": 1441, "pitch": 75, "duration": 7, "velocity": 92}, {"time": 1447, "pitch": 63, "duration": 5, "velocity": 78}, {"time": 1453, "pitch": 68, "duration": 2, "velocity": 100}, {"time": 1453, "pitch": 71, "duration": 2, "velocity": 100}, {"time": 1453, "pitch": 75, "duration": 2, "velocity": 92}, {"time": 1459, "pitch": 56, "duration": 8, "velocity": 89}, {"time": 1465, "pitch": 68, "duration": 3, "velocity": 97}, {"time": 1465, "pitch": 71, "duration": 3, "velocity": 97}, {"time": 1465, "pitch": 75, "duration": 3, "velocity": 94}, {"time": 1471, "pitch": 63, "duration": 10, "velocity": 82}, {"time": 1477, "pitch": 68, "duration": 3, "velocity": 97}, {"time": 1477, "pitch": 71, "duration": 3, "velocity": 94}, {"time": 1477, "pitch": 75, "duration": 3, "velocity": 94}, {"time": 1483, "pitch": 59, "duration": 16, "velocity": 97}, {"time": 1489, "pitch": 66, "duration": 6, "velocity": 97}, {"time": 1489, "pitch": 71, "duration": 6, "velocity": 102}, {"time": 1489, "pitch": 75, "duration": 6, "velocity": 100}, {"time": 1501, "pitch": 66, "duration": 3, "velocity": 94}, {"time": 1501, "pitch": 71, "duration": 3, "velocity": 105}, {"time": 1501, "pitch": 75, "duration": 3, "velocity": 100}, {"time": 1507, "pitch": 54, "duration": 9, "velocity": 89}, {"time": 1513, "pitch": 66, "duration": 7, "velocity": 97}, {"time": 1513, "pitch": 70, "duration": 7, "velocity": 108}, {"time": 1513, "pitch": 73, "duration": 7, "velocity": 102}, {"time": 1519, "pitch": 61, "duration": 7, "velocity": 64}, {"time": 1525, "pitch": 66, "duration": 3, "velocity": 100}, {"time": 1525, "pitch": 70, "duration": 3, "velocity": 111}, {"time": 1525, "pitch": 73, "duration": 3, "velocity": 97}, {"time": 1531, "pitch": 59, "duration": 5, "velocity": 100}, {"time": 1537, "pitch": 54, "duration": 5, "velocity": 102}, {"time": 1537, "pitch": 66, "duration": 5, "velocity": 97}, {"time": 1543, "pitch": 56, "duration": 3, "velocity": 97}, {"time": 1543, "pitch": 68, "duration": 5, "velocity": 111}, {"time": 1549, "pitch": 54, "duration": 5, "velocity": 102}, {"time": 1549, "pitch": 66, "duration": 5, "velocity": 100}, {"time": 1555, "pitch": 59, "duration": 5, "velocity": 108}, {"time": 1555, "pitch": 71, "duration": 6, "velocity": 111}, {"time": 1561, "pitch": 54, "duration": 4, "velocity": 105}, {"time": 1561, "pitch": 66, "duration": 4, "velocity": 92}, {"time": 1567, "pitch": 56, "duration": 3, "velocity": 76}, {"time": 1567, "pitch": 68, "duration": 4, "velocity": 105}, {"time": 1573, "pitch": 54, "duration": 4, "velocity": 100}, {"time": 1573, "pitch": 66, "duration": 4, "velocity": 100}, {"time": 1579, "pitch": 59, "duration": 10, "velocity": 102}, {"time": 1585, "pitch": 66, "duration": 6, "velocity": 92}, {"time": 1585, "pitch": 71, "duration": 6, "velocity": 100}, {"time": 1585, "pitch": 75, "duration": 6, "velocity": 97}, {"time": 1591, "pitch": 54, "duration": 8, "velocity": 97}, {"time": 1597, "pitch": 66, "duration": 2, "velocity": 87}, {"time": 1597, "pitch": 71, "duration": 2, "velocity": 94}, {"time": 1597, "pitch": 75, "duration": 2, "velocity": 92}, {"time": 1603, "pitch": 59, "duration": 10, "velocity": 82}, {"time": 1609, "pitch": 66, "duration": 6, "velocity": 78}, {"time": 1609, "pitch": 71, "duration": 6, "velocity": 92}, {"time": 1609, "pitch": 75, "duration": 6, "velocity": 82}, {"time": 1615, "pitch": 54, "duration": 9, "velocity": 100}, {"time": 1621, "pitch": 66, "duration": 3, "velocity": 92}, {"time": 1621, "pitch": 71, "duration": 3, "velocity": 102}, {"time": 1621, "pitch": 75, "duration": 3, "velocity": 102}, {"time": 1627, "pitch": 59, "duration": 11, "velocity": 82}, {"time": 1633, "pitch": 66, "duration": 6, "velocity": 97}, {"time": 1633, "pitch": 71, "duration": 5, "velocity": 102}, {"time": 1633, "pitch": 75, "duration": 5, "velocity": 102}, {"time": 1639, "pitch": 54, "duration": 8, "velocity": 100}, {"time": 1645, "pitch": 66, "duration": 2, "velocity": 94}, {"time": 1645, "pitch": 71, "duration": 2, "velocity": 102}, {"time": 1645, "pitch": 75, "duration": 2, "velocity": 97}, {"time": 1651, "pitch": 59, "duration": 10, "velocity": 92}, {"time": 1657, "pitch": 66, "duration": 7, "velocity": 94}, {"time": 1657, "pitch": 71, "duration": 7, "velocity": 102}, {"time": 1657, "pitch": 75, "duration": 7, "velocity": 92}, {"time": 1663, "pitch": 54, "duration": 7, "velocity": 102}, {"time": 1669, "pitch": 66, "duration": 2, "velocity": 94}, {"time": 1669, "pitch": 71, "duration": 2, "velocity": 102}, {"time": 1669, "pitch": 75, "duration": 2, "velocity": 94}, {"time": 1675, "pitch": 61, "duration": 10, "velocity": 94}, {"time": 1681, "pitch": 68, "duration": 5, "velocity": 102}, {"time": 1681, "pitch": 73, "duration": 5, "velocity": 87}, {"time": 1681, "pitch": 76, "duration": 5, "velocity": 89}, {"time": 1687, "pitch": 56, "duration": 7, "velocity": 100}, {"time": 1693, "pitch": 68, "duration": 3, "velocity": 100}, {"time": 1693, "pitch": 73, "duration": 2, "velocity": 100}, {"time": 1693, "pitch": 76, "duration": 2, "velocity": 97}, {"time": 1699, "pitch": 61, "duration": 11, "velocity": 82}, {"time": 1705, "pitch": 68, "duration": 8, "velocity": 102}, {"time": 1705, "pitch": 73, "duration": 7, "velocity": 97}, {"time": 1705, "pitch": 76, "duration": 7, "velocity": 100}, {"time": 1711, "pitch": 56, "duration": 9, "velocity": 97}, {"time": 1717, "pitch": 68, "duration": 3, "velocity": 92}, {"time": 1717, "pitch": 73, "duration": 3, "velocity": 100}, {"time": 1717, "pitch": 76, "duration": 4, "velocity": 94}, {"time": 1723, "pitch": 54, "duration": 9, "velocity": 97}, {"time": 1729, "pitch": 66, "duration": 7, "velocity": 100}, {"time": 1729, "pitch": 70, "duration": 7, "velocity": 111}, {"time": 1729, "pitch": 73, "duration": 7, "velocity": 97}, {"time": 1735, "pitch": 61, "duration": 9, "velocity": 73}, {"time": 1741, "pitch": 66, "duration": 2, "velocity": 92}, {"time": 1741, "pitch": 70, "duration": 2, "velocity": 102}, {"time": 1741, "pitch": 73, "duration": 2, "velocity": 97}, {"time": 1747, "pitch": 54, "duration": 22, "velocity": 100}, {"time": 1747, "pitch": 66, "duration": 9, "velocity": 53}, {"time": 1747, "pitch": 70, "duration": 8, "velocity": 78}, {"time": 1747, "pitch": 73, "duration": 8, "velocity": 66}, {"time": 1759, "pitch": 61, "duration": 9, "velocity": 102}, {"time": 1765, "pitch": 66, "duration": 4, "velocity": 84}, {"time": 1765, "pitch": 70, "duration": 4, "velocity": 105}, {"time": 1765, "pitch": 73, "duration": 4, "velocity": 97}, {"time": 1765, "pitch": 78, "duration": 4, "velocity": 84}, {"time": 1771, "pitch": 56, "duration": 9, "velocity": 102}, {"time": 1777, "pitch": 68, "duration": 5, "velocity": 97}, {"time": 1777, "pitch": 71, "duration": 5, "velocity": 108}, {"time": 1777, "pitch": 75, "duration": 4, "velocity": 102}, {"time": 1783, "pitch": 63, "duration": 10, "velocity": 80}, {"time": 1789, "pitch": 68, "duration": 4, "velocity": 94}, {"time": 1789, "pitch": 71, "duration": 4, "velocity": 100}, {"time": 1789, "pitch": 75, "duration": 4, "velocity": 97}, {"time": 1795, "pitch": 56, "duration": 19, "velocity": 89}, {"time": 1801, "pitch": 68, "duration": 8, "velocity": 97}, {"time": 1801, "pitch": 71, "duration": 7, "velocity": 105}, {"time": 1801, "pitch": 75, "duration": 7, "velocity": 94}, {"time": 1807, "pitch": 63, "duration": 8, "velocity": 97}, {"time": 1813, "pitch": 68, "duration": 2, "velocity": 97}, {"time": 1813, "pitch": 71, "duration": 2, "velocity": 100}, {"time": 1813, "pitch": 75, "duration": 3, "velocity": 102}, {"time": 1819, "pitch": 59, "duration": 11, "velocity": 94}, {"time": 1819, "pitch": 66, "duration": 7, "velocity": 92}, {"time": 1819, "pitch": 71, "duration": 10, "velocity": 97}, {"time": 1819, "pitch": 75, "duration": 10, "velocity": 97}, {"time": 1831, "pitch": 56, "duration": 10, "velocity": 102}, {"time": 1831, "pitch": 68, "duration": 9, "velocity": 87}, {"time": 1831, "pitch": 71, "duration": 8, "velocity": 92}, {"time": 1843, "pitch": 54, "duration": 9, "velocity": 100}, {"time": 1843, "pitch": 66, "duration": 4, "velocity": 71}, {"time": 1843, "pitch": 70, "duration": 4, "velocity": 94}, {"time": 1849, "pitch": 66, "duration": 7, "velocity": 94}, {"time": 1849, "pitch": 70, "duration": 6, "velocity": 97}, {"time": 1849, "pitch": 73, "duration": 5, "velocity": 89}, {"time": 1855, "pitch": 61, "duration": 9, "velocity": 71}, {"time": 1861, "pitch": 66, "duration": 3, "velocity": 100}, {"time": 1861, "pitch": 70, "duration": 3, "velocity": 114}, {"time": 1861, "pitch": 73, "duration": 3, "velocity": 100}, {"time": 1867, "pitch": 59, "duration": 11, "velocity": 100}, {"time": 1873, "pitch": 66, "duration": 6, "velocity": 92}, {"time": 1873, "pitch": 71, "duration": 6, "velocity": 97}, {"time": 1873, "pitch": 75, "duration": 6, "velocity": 94}, {"time": 1879, "pitch": 54, "duration": 8, "velocity": 100}, {"time": 1885, "pitch": 66, "duration": 3, "velocity": 94}, {"time": 1885, "pitch": 71, "duration": 3, "velocity": 102}, {"time": 1885, "pitch": 75, "duration": 3, "velocity": 100}, {"time": 1891, "pitch": 59, "duration": 10, "velocity": 97}, {"time": 1897, "pitch": 66, "duration": 8, "velocity": 97}, {"time": 1897, "pitch": 71, "duration": 8, "velocity": 108}, {"time": 1897, "pitch": 75, "duration": 8, "velocity": 100}, {"time": 1903, "pitch": 54, "duration": 8, "velocity": 105}, {"time": 1909, "pitch": 66, "duration": 9, "velocity": 94}, {"time": 1909, "pitch": 71, "duration": 8, "velocity": 108}, {"time": 1909, "pitch": 75, "duration": 8, "velocity": 100}, {"time": 1915, "pitch": 59, "duration": 9, "velocity": 82}, {"time": 1921, "pitch": 78, "duration": 3, "velocity": 120}, {"time": 1927, "pitch": 54, "duration": 7, "velocity": 105}, {"time": 1927, "pitch": 75, "duration": 5, "velocity": 92}, {"time": 1933, "pitch": 73, "duration": 3, "velocity": 117}, {"time": 1939, "pitch": 59, "duration": 9, "velocity": 94}, {"time": 1939, "pitch": 66, "duration": 9, "velocity": 82}, {"time": 1939, "pitch": 71, "duration": 8, "velocity": 94}, {"time": 1939, "pitch": 75, "duration": 8, "velocity": 94}, {"time": 1951, "pitch": 59, "duration": 4, "velocity": 100}, {"time": 1951, "pitch": 66, "duration": 2, "velocity": 84}, {"time": 1951, "pitch": 71, "duration": 4, "velocity": 97}, {"time": 1951, "pitch": 75, "duration": 4, "velocity": 97}, {"time": 1957, "pitch": 58, "duration": 4, "velocity": 94}, {"time": 1957, "pitch": 70, "duration": 4, "velocity": 94}, {"time": 1957, "pitch": 73, "duration": 4, "velocity": 89}, {"time": 1963, "pitch": 56, "duration": 22, "velocity": 100}, {"time": 1963, "pitch": 68, "duration": 6, "velocity": 100}, {"time": 1963, "pitch": 71, "duration": 6, "velocity": 100}, {"time": 1972, "pitch": 68, "duration": 1, "velocity": 102}, {"time": 1972, "pitch": 71, "duration": 1, "velocity": 108}, {"time": 1975, "pitch": 63, "duration": 10, "velocity": 108}, {"time": 1975, "pitch": 68, "duration": 6, "velocity": 94}, {"time": 1975, "pitch": 71, "duration": 7, "velocity": 84}, {"time": 1975, "pitch": 75, "duration": 8, "velocity": 108}, {"time": 1987, "pitch": 56, "duration": 21, "velocity": 89}, {"time": 1987, "pitch": 68, "duration": 6, "velocity": 87}, {"time": 1987, "pitch": 71, "duration": 6, "velocity": 87}, {"time": 1996, "pitch": 68, "duration": 1, "velocity": 92}, {"time": 1999, "pitch": 63, "duration": 10, "velocity": 102}, {"time": 1999, "pitch": 68, "duration": 3, "velocity": 102}, {"time": 1999, "pitch": 71, "duration": 7, "velocity": 111}, {"time": 1999, "pitch": 75, "duration": 7, "velocity": 97}, {"time": 2005, "pitch": 68, "duration": 3, "velocity": 87}, {"time": 2011, "pitch": 56, "duration": 22, "velocity": 100}, {"time": 2011, "pitch": 68, "duration": 6, "velocity": 100}, {"time": 2011, "pitch": 71, "duration": 6, "velocity": 100}, {"time": 2020, "pitch": 68, "duration": 1, "velocity": 102}, {"time": 2020, "pitch": 71, "duration": 1, "velocity": 108}, {"time": 2023, "pitch": 63, "duration": 10, "velocity": 108}, {"time": 2023, "pitch": 68, "duration": 6, "velocity": 94}, {"time": 2023, "pitch": 71, "duration": 7, "velocity": 84}, {"time": 2023, "pitch": 75, "duration": 8, "velocity": 108}, {"time": 2035, "pitch": 56, "duration": 21, "velocity": 89}, {"time": 2035, "pitch": 68, "duration": 6, "velocity": 87}, {"time": 2035, "pitch": 71, "duration": 6, "velocity": 87}, {"time": 2044, "pitch": 68, "duration": 1, "velocity": 92}, {"time": 2047, "pitch": 63, "duration": 10, "velocity": 102}, {"time": 2047, "pitch": 68, "duration": 3, "velocity": 102}, {"time": 2047, "pitch": 71, "duration": 7, "velocity": 111}, {"time": 2047, "pitch": 75, "duration": 7, "velocity": 97}, {"time": 2053, "pitch": 68, "duration": 3, "velocity": 87}, {"time": 2059, "pitch": 56, "duration": 22, "velocity": 100}, {"time": 2059, "pitch": 68, "duration": 6, "velocity": 100}, {"time": 2059, "pitch": 71, "duration": 6, "velocity": 100}, {"time": 2068, "pitch": 68, "duration": 1, "velocity": 102}, {"time": 2068, "pitch": 71, "duration": 1, "velocity": 108}, {"time": 2071, "pitch": 63, "duration": 10, "velocity": 108}, {"time": 2071, "pitch": 68, "duration": 6, "velocity": 94}, {"time": 2071, "pitch": 71, "duration": 7, "velocity": 84}, {"time": 2071, "pitch": 75, "duration": 8, "velocity": 108}, {"time": 2083, "pitch": 56, "duration": 21, "velocity": 89}, {"time": 2083, "pitch": 68, "duration": 6, "velocity": 87}, {"time": 2083, "pitch": 71, "duration": 6, "velocity": 87}, {"time": 2092, "pitch": 68, "duration": 1, "velocity": 92}, {"time": 2095, "pitch": 63, "duration": 10, "velocity": 102}, {"time": 2095, "pitch": 68, "duration": 3, "velocity": 102}, {"time": 2095, "pitch": 71, "duration": 7, "velocity": 111}, {"time": 2095, "pitch": 75, "duration": 7, "velocity": 97}, {"time": 2101, "pitch": 68, "duration": 3, "velocity": 87}, {"time": 2107, "pitch": 54, "duration": 21, "velocity": 102}, {"time": 2107, "pitch": 66, "duration": 6, "velocity": 97}, {"time": 2107, "pitch": 73, "duration": 6, "velocity": 92}, {"time": 2113, "pitch": 61, "duration": 9, "velocity": 71}, {"time": 2116, "pitch": 66, "duration": 1, "velocity": 82}, {"time": 2116, "pitch": 70, "duration": 1, "velocity": 100}, {"time": 2119, "pitch": 66, "duration": 5, "velocity": 102}, {"time": 2119, "pitch": 70, "duration": 6, "velocity": 108}, {"time": 2125, "pitch": 61, "duration": 5, "velocity": 67}, {"time": 2128, "pitch": 66, "duration": 1, "velocity": 40}, {"time": 2131, "pitch": 54, "duration": 23, "velocity": 105}, {"time": 2131, "pitch": 66, "duration": 6, "velocity": 89}, {"time": 2131, "pitch": 70, "duration": 6, "velocity": 108}, {"time": 2131, "pitch": 73, "duration": 7, "velocity": 102}, {"time": 2137, "pitch": 61, "duration": 9, "velocity": 62}, {"time": 2140, "pitch": 66, "duration": 1, "velocity": 53}, {"time": 2140, "pitch": 70, "duration": 1, "velocity": 100}, {"time": 2143, "pitch": 66, "duration": 6, "velocity": 92}, {"time": 2143, "pitch": 70, "duration": 7, "velocity": 114}, {"time": 2143, "pitch": 73, "duration": 7, "velocity": 114}, {"time": 2149, "pitch": 61, "duration": 5, "velocity": 94}, {"time": 2155, "pitch": 59, "duration": 15, "velocity": 105}, {"time": 2155, "pitch": 66, "duration": 3, "velocity": 92}, {"time": 2155, "pitch": 71, "duration": 3, "velocity": 97}, {"time": 2161, "pitch": 71, "duration": 1, "velocity": 58}, {"time": 2161, "pitch": 75, "duration": 1, "velocity": 67}, {"time": 2164, "pitch": 66, "duration": 1, "velocity": 60}, {"time": 2164, "pitch": 71, "duration": 1, "velocity": 82}, {"time": 2164, "pitch": 75, "duration": 1, "velocity": 71}, {"time": 2167, "pitch": 66, "duration": 2, "velocity": 102}, {"time": 2167, "pitch": 71, "duration": 2, "velocity": 102}, {"time": 2167, "pitch": 75, "duration": 3, "velocity": 108}, {"time": 2173, "pitch": 66, "duration": 3, "velocity": 80}, {"time": 2179, "pitch": 59, "duration": 15, "velocity": 102}, {"time": 2179, "pitch": 66, "duration": 4, "velocity": 84}, {"time": 2179, "pitch": 71, "duration": 4, "velocity": 92}, {"time": 2185, "pitch": 66, "duration": 1, "velocity": 64}, {"time": 2185, "pitch": 71, "duration": 1, "velocity": 76}, {"time": 2185, "pitch": 75, "duration": 1, "velocity": 84}, {"time": 2188, "pitch": 66, "duration": 1, "velocity": 73}, {"time": 2188, "pitch": 71, "duration": 1, "velocity": 89}, {"time": 2188, "pitch": 75, "duration": 1, "velocity": 92}, {"time": 2191, "pitch": 66, "duration": 3, "velocity": 97}, {"time": 2191, "pitch": 71, "duration": 5, "velocity": 108}, {"time": 2191, "pitch": 75, "duration": 6, "velocity": 105}, {"time": 2197, "pitch": 59, "duration": 2, "velocity": 84}, {"time": 2203, "pitch": 59, "duration": 18, "velocity": 97}, {"time": 2203, "pitch": 66, "duration": 4, "velocity": 89}, {"time": 2203, "pitch": 71, "duration": 4, "velocity": 89}, {"time": 2209, "pitch": 66, "duration": 1, "velocity": 62}, {"time": 2209, "pitch": 71, "duration": 1, "velocity": 78}, {"time": 2209, "pitch": 75, "duration": 1, "velocity": 87}, {"time": 2212, "pitch": 66, "duration": 1, "velocity": 80}, {"time": 2212, "pitch": 71, "duration": 1, "velocity": 92}, {"time": 2212, "pitch": 75, "duration": 1, "velocity": 87}, {"time": 2215, "pitch": 66, "duration": 2, "velocity": 102}, {"time": 2215, "pitch": 71, "duration": 2, "velocity": 108}, {"time": 2215, "pitch": 75, "duration": 2, "velocity": 117}, {"time": 2221, "pitch": 66, "duration": 6, "velocity": 76}, {"time": 2221, "pitch": 71, "duration": 6, "velocity": 84}, {"time": 2221, "pitch": 75, "duration": 4, "velocity": 87}, {"time": 2227, "pitch": 59, "duration": 15, "velocity": 102}, {"time": 2233, "pitch": 66, "duration": 1, "velocity": 55}, {"time": 2233, "pitch": 71, "duration": 1, "velocity": 80}, {"time": 2233, "pitch": 75, "duration": 1, "velocity": 82}, {"time": 2236, "pitch": 66, "duration": 1, "velocity": 45}, {"time": 2236, "pitch": 71, "duration": 1, "velocity": 82}, {"time": 2236, "pitch": 75, "duration": 1, "velocity": 73}, {"time": 2239, "pitch": 66, "duration": 10, "velocity": 97}, {"time": 2239, "pitch": 71, "duration": 10, "velocity": 108}, {"time": 2239, "pitch": 75, "duration": 10, "velocity": 111}, {"time": 2245, "pitch": 59, "duration": 5, "velocity": 100}, {"time": 2251, "pitch": 56, "duration": 8, "velocity": 102}, {"time": 2257, "pitch": 68, "duration": 8, "velocity": 94}, {"time": 2257, "pitch": 71, "duration": 8, "velocity": 100}, {"time": 2257, "pitch": 75, "duration": 7, "velocity": 94}, {"time": 2263, "pitch": 63, "duration": 9, "velocity": 80}, {"time": 2269, "pitch": 68, "duration": 3, "velocity": 97}, {"time": 2269, "pitch": 71, "duration": 3, "velocity": 108}, {"time": 2269, "pitch": 75, "duration": 3, "velocity": 100}, {"time": 2275, "pitch": 61, "duration": 11, "velocity": 100}, {"time": 2281, "pitch": 68, "duration": 9, "velocity": 100}, {"time": 2281, "pitch": 73, "duration": 9, "velocity": 87}, {"time": 2281, "pitch": 76, "duration": 9, "velocity": 97}, {"time": 2287, "pitch": 56, "duration": 9, "velocity": 105}, {"time": 2293, "pitch": 68, "duration": 5, "velocity": 100}, {"time": 2293, "pitch": 73, "duration": 3, "velocity": 102}, {"time": 2293, "pitch": 76, "duration": 6, "velocity": 97}, {"time": 2299, "pitch": 54, "duration": 13, "velocity": 105}, {"time": 2305, "pitch": 66, "duration": 7, "velocity": 100}, {"time": 2305, "pitch": 70, "duration": 7, "velocity": 105}, {"time": 2305, "pitch": 73, "duration": 7, "velocity": 102}, {"time": 2311, "pitch": 61, "duration": 7, "velocity": 92}, {"time": 2317, "pitch": 66, "duration": 4, "velocity": 114}, {"time": 2323, "pitch": 54, "duration": 21, "velocity": 102}, {"time": 2323, "pitch": 66, "duration": 6, "velocity": 92}, {"time": 2323, "pitch": 70, "duration": 5, "velocity": 108}, {"time": 2323, "pitch": 73, "duration": 6, "velocity": 102}, {"time": 2323, "pitch": 78, "duration": 6, "velocity": 94}, {"time": 2347, "pitch": 56, "duration": 9, "velocity": 102}, {"time": 2353, "pitch": 68, "duration": 7, "velocity": 92}, {"time": 2353, "pitch": 71, "duration": 7, "velocity": 97}, {"time": 2353, "pitch": 75, "duration": 7, "velocity": 94}, {"time": 2359, "pitch": 63, "duration": 9, "velocity": 89}, {"time": 2365, "pitch": 68, "duration": 4, "velocity": 92}, {"time": 2365, "pitch": 71, "duration": 3, "velocity": 97}, {"time": 2365, "pitch": 75, "duration": 3, "velocity": 94}, {"time": 2371, "pitch": 56, "duration": 19, "velocity": 92}, {"time": 2377, "pitch": 68, "duration": 8, "velocity": 105}, {"time": 2377, "pitch": 71, "duration": 7, "velocity": 105}, {"time": 2377, "pitch": 75, "duration": 7, "velocity": 105}, {"time": 2383, "pitch": 63, "duration": 10, "velocity": 92}, {"time": 2389, "pitch": 68, "duration": 4, "velocity": 100}, {"time": 2389, "pitch": 71, "duration": 3, "velocity": 100}, {"time": 2389, "pitch": 75, "duration": 4, "velocity": 100}, {"time": 2395, "pitch": 54, "duration": 14, "velocity": 78}, {"time": 2401, "pitch": 66, "duration": 8, "velocity": 100}, {"time": 2401, "pitch": 70, "duration": 7, "velocity": 108}, {"time": 2401, "pitch": 73, "duration": 8, "velocity": 97}, {"time": 2407, "pitch": 61, "duration": 8, "velocity": 87}, {"time": 2413, "pitch": 66, "duration": 3, "velocity": 102}, {"time": 2413, "pitch": 70, "duration": 3, "velocity": 111}, {"time": 2413, "pitch": 73, "duration": 4, "velocity": 100}, {"time": 2419, "pitch": 54, "duration": 14, "velocity": 94}, {"time": 2425, "pitch": 66, "duration": 8, "velocity": 100}, {"time": 2425, "pitch": 70, "duration": 8, "velocity": 105}, {"time": 2425, "pitch": 73, "duration": 8, "velocity": 100}, {"time": 2431, "pitch": 61, "duration": 9, "velocity": 80}, {"time": 2437, "pitch": 66, "duration": 3, "velocity": 100}, {"time": 2437, "pitch": 70, "duration": 3, "velocity": 102}, {"time": 2437, "pitch": 73, "duration": 3, "velocity": 97}, {"time": 2443, "pitch": 59, "duration": 11, "velocity": 94}, {"time": 2449, "pitch": 66, "duration": 8, "velocity": 102}, {"time": 2449, "pitch": 71, "duration": 8, "velocity": 105}, {"time": 2449, "pitch": 75, "duration": 8, "velocity": 97}, {"time": 2455, "pitch": 54, "duration": 9, "velocity": 102}, {"time": 2461, "pitch": 66, "duration": 2, "velocity": 97}, {"time": 2461, "pitch": 71, "duration": 4, "velocity": 102}, {"time": 2461, "pitch": 75, "duration": 5, "velocity": 94}, {"time": 2467, "pitch": 61, "duration": 9, "velocity": 108}, {"time": 2473, "pitch": 68, "duration": 6, "velocity": 105}, {"time": 2473, "pitch": 73, "duration": 5, "velocity": 102}, {"time": 2473, "pitch": 76, "duration": 6, "velocity": 102}, {"time": 2479, "pitch": 54, "duration": 9, "velocity": 108}, {"time": 2485, "pitch": 66, "duration": 4, "velocity": 97}, {"time": 2485, "pitch": 70, "duration": 4, "velocity": 102}, {"time": 2485, "pitch": 73, "duration": 5, "velocity": 94}, {"time": 2491, "pitch": 59, "duration": 11, "velocity": 102}, {"time": 2497, "pitch": 66, "duration": 8, "velocity": 94}, {"time": 2497, "pitch": 71, "duration": 7, "velocity": 102}, {"time": 2497, "pitch": 75, "duration": 7, "velocity": 97}, {"time": 2503, "pitch": 54, "duration": 9, "velocity": 97}, {"time": 2509, "pitch": 66, "duration": 3, "velocity": 92}, {"time": 2509, "pitch": 71, "duration": 2, "velocity": 100}, {"time": 2509, "pitch": 75, "duration": 3, "velocity": 100}, {"time": 2515, "pitch": 59, "duration": 24, "velocity": 89}, {"time": 2515, "pitch": 66, "duration": 16, "velocity": 100}, {"time": 2515, "pitch": 71, "duration": 10, "velocity": 102}, {"time": 2527, "pitch": 71, "duration": 10, "velocity": 111}, {"time": 2527, "pitch": 75, "duration": 10, "velocity": 102}, {"time": 2533, "pitch": 66, "duration": 4, "velocity": 97}, {"time": 2539, "pitch": 59, "duration": 1, "velocity": 102}, {"time": 2545, "pitch": 66, "duration": 6, "velocity": 92}, {"time": 2545, "pitch": 71, "duration": 6, "velocity": 100}, {"time": 2545, "pitch": 75, "duration": 6, "velocity": 97}, {"time": 2551, "pitch": 54, "duration": 8, "velocity": 97}, {"time": 2557, "pitch": 66, "duration": 2, "velocity": 87}, {"time": 2557, "pitch": 71, "duration": 2, "velocity": 94}, {"time": 2557, "pitch": 75, "duration": 2, "velocity": 92}, {"time": 2563, "pitch": 59, "duration": 10, "velocity": 82}, {"time": 2569, "pitch": 66, "duration": 6, "velocity": 78}, {"time": 2569, "pitch": 71, "duration": 6, "velocity": 92}, {"time": 2569, "pitch": 75, "duration": 6, "velocity": 82}, {"time": 2575, "pitch": 54, "duration": 9, "velocity": 100}, {"time": 2581, "pitch": 66, "duration": 3, "velocity": 92}, {"time": 2581, "pitch": 71, "duration": 3, "velocity": 102}, {"time": 2581, "pitch": 75, "duration": 3, "velocity": 102}, {"time": 2587, "pitch": 59, "duration": 11, "velocity": 82}, {"time": 2593, "pitch": 66, "duration": 6, "velocity": 97}, {"time": 2593, "pitch": 71, "duration": 5, "velocity": 102}, {"time": 2593, "pitch": 75, "duration": 5, "velocity": 102}, {"time": 2599, "pitch": 54, "duration": 8, "velocity": 100}, {"time": 2605, "pitch": 66, "duration": 2, "velocity": 94}, {"time": 2605, "pitch": 71, "duration": 2, "velocity": 102}, {"time": 2605, "pitch": 75, "duration": 2, "velocity": 97}, {"time": 2611, "pitch": 59, "duration": 10, "velocity": 92}, {"time": 2617, "pitch": 66, "duration": 7, "velocity": 94}, {"time": 2617, "pitch": 71, "duration": 7, "velocity": 102}, {"time": 2617, "pitch": 75, "duration": 7, "velocity": 92}, {"time": 2623, "pitch": 54, "duration": 7, "velocity": 102}, {"time": 2629, "pitch": 66, "duration": 2, "velocity": 94}, {"time": 2629, "pitch": 71, "duration": 2, "velocity": 102}, {"time": 2629, "pitch": 75, "duration": 2, "velocity": 94}, {"time": 2635, "pitch": 61, "duration": 10, "velocity": 94}, {"time": 2641, "pitch": 68, "duration": 5, "velocity": 102}, {"time": 2641, "pitch": 73, "duration": 5, "velocity": 87}, {"time": 2641, "pitch": 76, "duration": 5, "velocity": 89}, {"time": 2647, "pitch": 56, "duration": 7, "velocity": 100}, {"time": 2653, "pitch": 68, "duration": 3, "velocity": 100}, {"time": 2653, "pitch": 73, "duration": 2, "velocity": 100}, {"time": 2653, "pitch": 76, "duration": 2, "velocity": 97}, {"time": 2659, "pitch": 61, "duration": 11, "velocity": 82}, {"time": 2665, "pitch": 68, "duration": 8, "velocity": 102}, {"time": 2665, "pitch": 73, "duration": 7, "velocity": 97}, {"time": 2665, "pitch": 76, "duration": 7, "velocity": 100}, {"time": 2671, "pitch": 56, "duration": 9, "velocity": 97}, {"time": 2677, "pitch": 68, "duration": 3, "velocity": 92}, {"time": 2677, "pitch": 73, "duration": 3, "velocity": 100}, {"time": 2677, "pitch": 76, "duration": 4, "velocity": 94}, {"time": 2683, "pitch": 54, "duration": 9, "velocity": 97}, {"time": 2689, "pitch": 66, "duration": 7, "velocity": 100}, {"time": 2689, "pitch": 70, "duration": 7, "velocity": 111}, {"time": 2689, "pitch": 73, "duration": 7, "velocity": 97}, {"time": 2695, "pitch": 61, "duration": 9, "velocity": 73}, {"time": 2701, "pitch": 66, "duration": 2, "velocity": 92}, {"time": 2701, "pitch": 70, "duration": 2, "velocity": 102}, {"time": 2701, "pitch": 73, "duration": 2, "velocity": 97}, {"time": 2707, "pitch": 54, "duration": 22, "velocity": 100}, {"time": 2707, "pitch": 66, "duration": 9, "velocity": 53}, {"time": 2707, "pitch": 70, "duration": 8, "velocity": 78}, {"time": 2707, "pitch": 73, "duration": 8, "velocity": 66}, {"time": 2719, "pitch": 61, "duration": 9, "velocity": 102}, {"time": 2725, "pitch": 66, "duration": 4, "velocity": 84}, {"time": 2725, "pitch": 70, "duration": 4, "velocity": 105}, {"time": 2725, "pitch": 73, "duration": 4, "velocity": 97}, {"time": 2725, "pitch": 78, "duration": 4, "velocity": 84}, {"time": 2731, "pitch": 56, "duration": 9, "velocity": 102}, {"time": 2737, "pitch": 68, "duration": 5, "velocity": 97}, {"time": 2737, "pitch": 71, "duration": 5, "velocity": 108}, {"time": 2737, "pitch": 75, "duration": 4, "velocity": 102}, {"time": 2743, "pitch": 63, "duration": 10, "velocity": 80}, {"time": 2749, "pitch": 68, "duration": 4, "velocity": 94}, {"time": 2749, "pitch": 71, "duration": 4, "velocity": 100}, {"time": 2749, "pitch": 75, "duration": 4, "velocity": 97}, {"time": 2755, "pitch": 56, "duration": 19, "velocity": 89}, {"time": 2761, "pitch": 68, "duration": 8, "velocity": 97}, {"time": 2761, "pitch": 71, "duration": 7, "velocity": 105}, {"time": 2761, "pitch": 75, "duration": 7, "velocity": 94}, {"time": 2767, "pitch": 63, "duration": 8, "velocity": 97}, {"time": 2773, "pitch": 68, "duration": 2, "velocity": 97}, {"time": 2773, "pitch": 71, "duration": 2, "velocity": 100}, {"time": 2773, "pitch": 75, "duration": 3, "velocity": 102}, {"time": 2779, "pitch": 59, "duration": 11, "velocity": 94}, {"time": 2779, "pitch": 66, "duration": 7, "velocity": 92}, {"time": 2779, "pitch": 71, "duration": 10, "velocity": 97}, {"time": 2779, "pitch": 75, "duration": 10, "velocity": 97}, {"time": 2791, "pitch": 56, "duration": 10, "velocity": 102}, {"time": 2791, "pitch": 68, "duration": 9, "velocity": 87}, {"time": 2791, "pitch": 71, "duration": 8, "velocity": 92}, {"time": 2803, "pitch": 54, "duration": 9, "velocity": 100}, {"time": 2803, "pitch": 66, "duration": 4, "velocity": 71}, {"time": 2803, "pitch": 70, "duration": 4, "velocity": 94}, {"time": 2809, "pitch": 66, "duration": 7, "velocity": 94}, {"time": 2809, "pitch": 70, "duration": 6, "velocity": 97}, {"time": 2809, "pitch": 73, "duration": 5, "velocity": 89}, {"time": 2815, "pitch": 61, "duration": 9, "velocity": 71}, {"time": 2821, "pitch": 66, "duration": 3, "velocity": 100}, {"time": 2821, "pitch": 70, "duration": 3, "velocity": 114}, {"time": 2821, "pitch": 73, "duration": 3, "velocity": 100}, {"time": 2827, "pitch": 59, "duration": 11, "velocity": 100}, {"time": 2833, "pitch": 66, "duration": 6, "velocity": 92}, {"time": 2833, "pitch": 71, "duration": 6, "velocity": 97}, {"time": 2833, "pitch": 75, "duration": 6, "velocity": 94}, {"time": 2839, "pitch": 54, "duration": 8, "velocity": 100}, {"time": 2845, "pitch": 66, "duration": 3, "velocity": 94}, {"time": 2845, "pitch": 71, "duration": 3, "velocity": 102}, {"time": 2845, "pitch": 75, "duration": 3, "velocity": 100}, {"time": 2851, "pitch": 59, "duration": 10, "velocity": 97}, {"time": 2857, "pitch": 66, "duration": 8, "velocity": 97}, {"time": 2857, "pitch": 71, "duration": 8, "velocity": 108}, {"time": 2857, "pitch": 75, "duration": 8, "velocity": 100}, {"time": 2863, "pitch": 54, "duration": 8, "velocity": 105}, {"time": 2869, "pitch": 66, "duration": 9, "velocity": 94}, {"time": 2869, "pitch": 71, "duration": 8, "velocity": 108}, {"time": 2869, "pitch": 75, "duration": 8, "velocity": 100}, {"time": 2875, "pitch": 59, "duration": 9, "velocity": 82}, {"time": 2881, "pitch": 78, "duration": 3, "velocity": 120}, {"time": 2887, "pitch": 54, "duration": 7, "velocity": 105}, {"time": 2887, "pitch": 75, "duration": 5, "velocity": 92}, {"time": 2893, "pitch": 73, "duration": 3, "velocity": 117}, {"time": 2899, "pitch": 59, "duration": 9, "velocity": 94}, {"time": 2899, "pitch": 66, "duration": 9, "velocity": 82}, {"time": 2899, "pitch": 71, "duration": 8, "velocity": 94}, {"time": 2899, "pitch": 75, "duration": 8, "velocity": 94}, {"time": 2911, "pitch": 59, "duration": 4, "velocity": 100}, {"time": 2911, "pitch": 66, "duration": 2, "velocity": 84}, {"time": 2911, "pitch": 71, "duration": 4, "velocity": 97}, {"time": 2911, "pitch": 75, "duration": 4, "velocity": 97}, {"time": 2917, "pitch": 58, "duration": 4, "velocity": 94}, {"time": 2917, "pitch": 70, "duration": 4, "velocity": 94}, {"time": 2917, "pitch": 73, "duration": 4, "velocity": 89}, {"time": 2923, "pitch": 56, "duration": 22, "velocity": 100}, {"time": 2923, "pitch": 68, "duration": 6, "velocity": 100}, {"time": 2923, "pitch": 71, "duration": 6, "velocity": 100}, {"time": 2932, "pitch": 68, "duration": 1, "velocity": 102}, {"time": 2932, "pitch": 71, "duration": 1, "velocity": 108}, {"time": 2935, "pitch": 63, "duration": 10, "velocity": 108}, {"time": 2935, "pitch": 68, "duration": 6, "velocity": 94}, {"time": 2935, "pitch": 71, "duration": 7, "velocity": 84}, {"time": 2935, "pitch": 75, "duration": 8, "velocity": 108}, {"time": 2947, "pitch": 56, "duration": 21, "velocity": 89}, {"time": 2947, "pitch": 68, "duration": 6, "velocity": 87}, {"time": 2947, "pitch": 71, "duration": 6, "velocity": 87}, {"time": 2956, "pitch": 68, "duration": 1, "velocity": 92}, {"time": 2959, "pitch": 63, "duration": 10, "velocity": 102}, {"time": 2959, "pitch": 68, "duration": 3, "velocity": 102}, {"time": 2959, "pitch": 71, "duration": 7, "velocity": 111}, {"time": 2959, "pitch": 75, "duration": 7, "velocity": 97}, {"time": 2965, "pitch": 68, "duration": 3, "velocity": 87}, {"time": 2971, "pitch": 56, "duration": 22, "velocity": 100}, {"time": 2971, "pitch": 68, "duration": 6, "velocity": 100}, {"time": 2971, "pitch": 71, "duration": 6, "velocity": 100}, {"time": 2980, "pitch": 68, "duration": 1, "velocity": 102}, {"time": 2980, "pitch": 71, "duration": 1, "velocity": 108}, {"time": 2983, "pitch": 63, "duration": 10, "velocity": 108}, {"time": 2983, "pitch": 68, "duration": 6, "velocity": 94}, {"time": 2983, "pitch": 71, "duration": 7, "velocity": 84}, {"time": 2983, "pitch": 75, "duration": 8, "velocity": 108}, {"time": 2995, "pitch": 56, "duration": 21, "velocity": 89}, {"time": 2995, "pitch": 68, "duration": 6, "velocity": 87}, {"time": 2995, "pitch": 71, "duration": 6, "velocity": 87}, {"time": 3004, "pitch": 68, "duration": 1, "velocity": 92}, {"time": 3007, "pitch": 63, "duration": 10, "velocity": 102}, {"time": 3007, "pitch": 68, "duration": 3, "velocity": 102}, {"time": 3007, "pitch": 71, "duration": 7, "velocity": 111}, {"time": 3007, "pitch": 75, "duration": 7, "velocity": 97}, {"time": 3013, "pitch": 68, "duration": 3, "velocity": 87}, {"time": 3019, "pitch": 56, "duration": 22, "velocity": 100}, {"time": 3019, "pitch": 68, "duration": 6, "velocity": 100}, {"time": 3019, "pitch": 71, "duration": 6, "velocity": 100}, {"time": 3028, "pitch": 68, "duration": 1, "velocity": 102}, {"time": 3028, "pitch": 71, "duration": 1, "velocity": 108}, {"time": 3031, "pitch": 63, "duration": 10, "velocity": 108}, {"time": 3031, "pitch": 68, "duration": 6, "velocity": 94}, {"time": 3031, "pitch": 71, "duration": 7, "velocity": 84}, {"time": 3031, "pitch": 75, "duration": 8, "velocity": 108}, {"time": 3043, "pitch": 56, "duration": 21, "velocity": 89}, {"time": 3043, "pitch": 68, "duration": 6, "velocity": 87}, {"time": 3043, "pitch": 71, "duration": 6, "velocity": 87}, {"time": 3052, "pitch": 68, "duration": 1, "velocity": 92}, {"time": 3055, "pitch": 63, "duration": 10, "velocity": 102}, {"time": 3055, "pitch": 68, "duration": 3, "velocity": 102}, {"time": 3055, "pitch": 71, "duration": 7, "velocity": 111}, {"time": 3055, "pitch": 75, "duration": 7, "velocity": 97}, {"time": 3061, "pitch": 68, "duration": 3, "velocity": 87}, {"time": 3067, "pitch": 54, "duration": 21, "velocity": 102}, {"time": 3067, "pitch": 66, "duration": 6, "velocity": 97}, {"time": 3067, "pitch": 73, "duration": 6, "velocity": 92}, {"time": 3073, "pitch": 61, "duration": 9, "velocity": 71}, {"time": 3076, "pitch": 66, "duration": 1, "velocity": 82}, {"time": 3076, "pitch": 70, "duration": 1, "velocity": 100}, {"time": 3079, "pitch": 66, "duration": 5, "velocity": 102}, {"time": 3079, "pitch": 70, "duration": 6, "velocity": 108}, {"time": 3085, "pitch": 61, "duration": 5, "velocity": 67}, {"time": 3088, "pitch": 66, "duration": 1, "velocity": 40}, {"time": 3091, "pitch": 54, "duration": 23, "velocity": 105}, {"time": 3091, "pitch": 66, "duration": 6, "velocity": 89}, {"time": 3091, "pitch": 70, "duration": 6, "velocity": 108}, {"time": 3091, "pitch": 73, "duration": 7, "velocity": 102}, {"time": 3097, "pitch": 61, "duration": 9, "velocity": 62}, {"time": 3100, "pitch": 66, "duration": 1, "velocity": 53}, {"time": 3100, "pitch": 70, "duration": 1, "velocity": 100}, {"time": 3103, "pitch": 66, "duration": 6, "velocity": 92}, {"time": 3103, "pitch": 70, "duration": 7, "velocity": 114}, {"time": 3103, "pitch": 73, "duration": 7, "velocity": 114}, {"time": 3109, "pitch": 61, "duration": 5, "velocity": 94}, {"time": 3115, "pitch": 59, "duration": 15, "velocity": 105}, {"time": 3115, "pitch": 66, "duration": 3, "velocity": 92}, {"time": 3115, "pitch": 71, "duration": 3, "velocity": 97}, {"time": 3121, "pitch": 71, "duration": 1, "velocity": 58}, {"time": 3121, "pitch": 75, "duration": 1, "velocity": 67}, {"time": 3124, "pitch": 66, "duration": 1, "velocity": 60}, {"time": 3124, "pitch": 71, "duration": 1, "velocity": 82}, {"time": 3124, "pitch": 75, "duration": 1, "velocity": 71}, {"time": 3127, "pitch": 66, "duration": 2, "velocity": 102}, {"time": 3127, "pitch": 71, "duration": 2, "velocity": 102}, {"time": 3127, "pitch": 75, "duration": 3, "velocity": 108}, {"time": 3133, "pitch": 66, "duration": 3, "velocity": 80}, {"time": 3139, "pitch": 59, "duration": 15, "velocity": 102}, {"time": 3139, "pitch": 66, "duration": 4, "velocity": 84}, {"time": 3139, "pitch": 71, "duration": 4, "velocity": 92}, {"time": 3145, "pitch": 66, "duration": 1, "velocity": 64}, {"time": 3145, "pitch": 71, "duration": 1, "velocity": 76}, {"time": 3145, "pitch": 75, "duration": 1, "velocity": 84}, {"time": 3148, "pitch": 66, "duration": 1, "velocity": 73}, {"time": 3148, "pitch": 71, "duration": 1, "velocity": 89}, {"time": 3148, "pitch": 75, "duration": 1, "velocity": 92}, {"time": 3151, "pitch": 66, "duration": 3, "velocity": 97}, {"time": 3151, "pitch": 71, "duration": 5, "velocity": 108}, {"time": 3151, "pitch": 75, "duration": 6, "velocity": 105}, {"time": 3157, "pitch": 59, "duration": 2, "velocity": 84}, {"time": 3163, "pitch": 59, "duration": 18, "velocity": 97}, {"time": 3163, "pitch": 66, "duration": 4, "velocity": 89}, {"time": 3163, "pitch": 71, "duration": 4, "velocity": 89}, {"time": 3169, "pitch": 66, "duration": 1, "velocity": 62}, {"time": 3169, "pitch": 71, "duration": 1, "velocity": 78}, {"time": 3169, "pitch": 75, "duration": 1, "velocity": 87}, {"time": 3172, "pitch": 66, "duration": 1, "velocity": 80}, {"time": 3172, "pitch": 71, "duration": 1, "velocity": 92}, {"time": 3172, "pitch": 75, "duration": 1, "velocity": 87}, {"time": 3175, "pitch": 66, "duration": 2, "velocity": 102}, {"time": 3175, "pitch": 71, "duration": 2, "velocity": 108}, {"time": 3175, "pitch": 75, "duration": 2, "velocity": 117}, {"time": 3181, "pitch": 66, "duration": 6, "velocity": 76}, {"time": 3181, "pitch": 71, "duration": 6, "velocity": 84}, {"time": 3181, "pitch": 75, "duration": 4, "velocity": 87}, {"time": 3187, "pitch": 59, "duration": 15, "velocity": 102}, {"time": 3193, "pitch": 66, "duration": 1, "velocity": 55}, {"time": 3193, "pitch": 71, "duration": 1, "velocity": 80}, {"time": 3193, "pitch": 75, "duration": 1, "velocity": 82}, {"time": 3196, "pitch": 66, "duration": 1, "velocity": 45}, {"time": 3196, "pitch": 71, "duration": 1, "velocity": 82}, {"time": 3196, "pitch": 75, "duration": 1, "velocity": 73}, {"time": 3199, "pitch": 66, "duration": 10, "velocity": 97}, {"time": 3199, "pitch": 71, "duration": 10, "velocity": 108}, {"time": 3199, "pitch": 75, "duration": 10, "velocity": 111}, {"time": 3205, "pitch": 59, "duration": 5, "velocity": 100}, {"time": 3211, "pitch": 56, "duration": 8, "velocity": 102}, {"time": 3217, "pitch": 68, "duration": 8, "velocity": 94}, {"time": 3217, "pitch": 71, "duration": 8, "velocity": 100}, {"time": 3217, "pitch": 75, "duration": 7, "velocity": 94}, {"time": 3223, "pitch": 63, "duration": 9, "velocity": 80}, {"time": 3229, "pitch": 68, "duration": 3, "velocity": 97}, {"time": 3229, "pitch": 71, "duration": 3, "velocity": 108}, {"time": 3229, "pitch": 75, "duration": 3, "velocity": 100}, {"time": 3235, "pitch": 61, "duration": 11, "velocity": 100}, {"time": 3241, "pitch": 68, "duration": 9, "velocity": 100}, {"time": 3241, "pitch": 73, "duration": 9, "velocity": 87}, {"time": 3241, "pitch": 76, "duration": 9, "velocity": 97}, {"time": 3247, "pitch": 56, "duration": 9, "velocity": 105}, {"time": 3253, "pitch": 68, "duration": 5, "velocity": 100}, {"time": 3253, "pitch": 73, "duration": 3, "velocity": 102}, {"time": 3253, "pitch": 76, "duration": 6, "velocity": 97}, {"time": 3259, "pitch": 54, "duration": 13, "velocity": 105}, {"time": 3265, "pitch": 66, "duration": 7, "velocity": 100}, {"time": 3265, "pitch": 70, "duration": 7, "velocity": 105}, {"time": 3265, "pitch": 73, "duration": 7, "velocity": 102}, {"time": 3271, "pitch": 61, "duration": 7, "velocity": 92}, {"time": 3277, "pitch": 66, "duration": 4, "velocity": 114}, {"time": 3283, "pitch": 54, "duration": 21, "velocity": 102}, {"time": 3283, "pitch": 66, "duration": 6, "velocity": 92}, {"time": 3283, "pitch": 70, "duration": 5, "velocity": 108}, {"time": 3283, "pitch": 73, "duration": 6, "velocity": 102}, {"time": 3283, "pitch": 78, "duration": 6, "velocity": 94}, {"time": 3307, "pitch": 56, "duration": 9, "velocity": 102}, {"time": 3313, "pitch": 68, "duration": 7, "velocity": 92}, {"time": 3313, "pitch": 71, "duration": 7, "velocity": 97}, {"time": 3313, "pitch": 75, "duration": 7, "velocity": 94}, {"time": 3319, "pitch": 63, "duration": 9, "velocity": 89}, {"time": 3325, "pitch": 68, "duration": 4, "velocity": 92}, {"time": 3325, "pitch": 71, "duration": 3, "velocity": 97}, {"time": 3325, "pitch": 75, "duration": 3, "velocity": 94}, {"time": 3331, "pitch": 56, "duration": 19, "velocity": 92}, {"time": 3337, "pitch": 68, "duration": 8, "velocity": 105}, {"time": 3337, "pitch": 71, "duration": 7, "velocity": 105}, {"time": 3337, "pitch": 75, "duration": 7, "velocity": 105}, {"time": 3343, "pitch": 63, "duration": 10, "velocity": 92}, {"time": 3349, "pitch": 68, "duration": 4, "velocity": 100}, {"time": 3349, "pitch": 71, "duration": 3, "velocity": 100}, {"time": 3349, "pitch": 75, "duration": 4, "velocity": 100}, {"time": 3355, "pitch": 54, "duration": 14, "velocity": 78}, {"time": 3361, "pitch": 66, "duration": 8, "velocity": 100}, {"time": 3361, "pitch": 70, "duration": 7, "velocity": 108}, {"time": 3361, "pitch": 73, "duration": 8, "velocity": 97}, {"time": 3367, "pitch": 61, "duration": 8, "velocity": 87}, {"time": 3373, "pitch": 66, "duration": 3, "velocity": 102}, {"time": 3373, "pitch": 70, "duration": 3, "velocity": 111}, {"time": 3373, "pitch": 73, "duration": 4, "velocity": 100}, {"time": 3379, "pitch": 54, "duration": 14, "velocity": 94}, {"time": 3385, "pitch": 66, "duration": 8, "velocity": 100}, {"time": 3385, "pitch": 70, "duration": 8, "velocity": 105}, {"time": 3385, "pitch": 73, "duration": 8, "velocity": 100}, {"time": 3391, "pitch": 61, "duration": 9, "velocity": 80}, {"time": 3397, "pitch": 66, "duration": 3, "velocity": 100}, {"time": 3397, "pitch": 70, "duration": 3, "velocity": 102}, {"time": 3397, "pitch": 73, "duration": 3, "velocity": 97}, {"time": 3403, "pitch": 59, "duration": 11, "velocity": 94}, {"time": 3409, "pitch": 66, "duration": 8, "velocity": 102}, {"time": 3409, "pitch": 71, "duration": 8, "velocity": 105}, {"time": 3409, "pitch": 75, "duration": 8, "velocity": 97}, {"time": 3415, "pitch": 54, "duration": 9, "velocity": 102}, {"time": 3421, "pitch": 66, "duration": 2, "velocity": 97}, {"time": 3421, "pitch": 71, "duration": 4, "velocity": 102}, {"time": 3421, "pitch": 75, "duration": 5, "velocity": 94}, {"time": 3427, "pitch": 61, "duration": 9, "velocity": 108}, {"time": 3433, "pitch": 68, "duration": 6, "velocity": 105}, {"time": 3433, "pitch": 73, "duration": 5, "velocity": 102}, {"time": 3433, "pitch": 76, "duration": 6, "velocity": 102}, {"time": 3439, "pitch": 54, "duration": 9, "velocity": 108}, {"time": 3445, "pitch": 66, "duration": 4, "velocity": 97}, {"time": 3445, "pitch": 70, "duration": 4, "velocity": 102}, {"time": 3445, "pitch": 73, "duration": 5, "velocity": 94}, {"time": 3451, "pitch": 59, "duration": 11, "velocity": 102}, {"time": 3457, "pitch": 66, "duration": 8, "velocity": 94}, {"time": 3457, "pitch": 71, "duration": 7, "velocity": 102}, {"time": 3457, "pitch": 75, "duration": 7, "velocity": 97}, {"time": 3463, "pitch": 54, "duration": 9, "velocity": 97}, {"time": 3469, "pitch": 66, "duration": 3, "velocity": 92}, {"time": 3469, "pitch": 71, "duration": 2, "velocity": 100}, {"time": 3469, "pitch": 75, "duration": 3, "velocity": 100}, {"time": 3475, "pitch": 59, "duration": 24, "velocity": 89}, {"time": 3475, "pitch": 66, "duration": 16, "velocity": 100}, {"time": 3475, "pitch": 71, "duration": 10, "velocity": 102}, {"time": 3487, "pitch": 71, "duration": 10, "velocity": 111}, {"time": 3487, "pitch": 75, "duration": 10, "velocity": 102}, {"time": 3493, "pitch": 66, "duration": 4, "velocity": 97}, {"time": 3499, "pitch": 59, "duration": 1, "velocity": 92}, {"time": 3505, "pitch": 66, "duration": 2, "velocity": 94}, {"time": 3505, "pitch": 71, "duration": 2, "velocity": 100}, {"time": 3505, "pitch": 75, "duration": 2, "velocity": 89}, {"time": 3511, "pitch": 54, "duration": 9, "velocity": 89}, {"time": 3517, "pitch": 66, "duration": 3, "velocity": 87}, {"time": 3517, "pitch": 71, "duration": 2, "velocity": 89}, {"time": 3517, "pitch": 75, "duration": 3, "velocity": 94}, {"time": 3523, "pitch": 59, "duration": 11, "velocity": 92}, {"time": 3529, "pitch": 66, "duration": 5, "velocity": 92}, {"time": 3529, "pitch": 71, "duration": 5, "velocity": 92}, {"time": 3529, "pitch": 75, "duration": 5, "velocity": 97}, {"time": 3535, "pitch": 54, "duration": 9, "velocity": 94}, {"time": 3541, "pitch": 66, "duration": 2, "velocity": 92}, {"time": 3541, "pitch": 71, "duration": 2, "velocity": 89}, {"time": 3541, "pitch": 75, "duration": 3, "velocity": 97}, {"time": 3547, "pitch": 56, "duration": 13, "velocity": 97}, {"time": 3553, "pitch": 68, "duration": 7, "velocity": 94}, {"time": 3553, "pitch": 71, "duration": 6, "velocity": 92}, {"time": 3553, "pitch": 75, "duration": 7, "velocity": 92}, {"time": 3559, "pitch": 63, "duration": 5, "velocity": 78}, {"time": 3565, "pitch": 68, "duration": 2, "velocity": 100}, {"time": 3565, "pitch": 71, "duration": 2, "velocity": 100}, {"time": 3565, "pitch": 75, "duration": 2, "velocity": 92}, {"time": 3571, "pitch": 56, "duration": 8, "velocity": 89}, {"time": 3577, "pitch": 68, "duration": 3, "velocity": 97}, {"time": 3577, "pitch": 71, "duration": 3, "velocity": 97}, {"time": 3577, "pitch": 75, "duration": 3, "velocity": 94}, {"time": 3583, "pitch": 63, "duration": 10, "velocity": 82}, {"time": 3589, "pitch": 68, "duration": 3, "velocity": 97}, {"time": 3589, "pitch": 71, "duration": 3, "velocity": 94}, {"time": 3589, "pitch": 75, "duration": 3, "velocity": 94}, {"time": 3595, "pitch": 59, "duration": 16, "velocity": 97}, {"time": 3601, "pitch": 66, "duration": 6, "velocity": 97}, {"time": 3601, "pitch": 71, "duration": 6, "velocity": 102}, {"time": 3601, "pitch": 75, "duration": 6, "velocity": 100}, {"time": 3613, "pitch": 66, "duration": 3, "velocity": 94}, {"time": 3613, "pitch": 71, "duration": 3, "velocity": 105}, {"time": 3613, "pitch": 75, "duration": 3, "velocity": 100}, {"time": 3619, "pitch": 54, "duration": 9, "velocity": 89}, {"time": 3625, "pitch": 66, "duration": 7, "velocity": 97}, {"time": 3625, "pitch": 70, "duration": 7, "velocity": 108}, {"time": 3625, "pitch": 73, "duration": 7, "velocity": 102}, {"time": 3631, "pitch": 61, "duration": 7, "velocity": 64}, {"time": 3637, "pitch": 66, "duration": 3, "velocity": 100}, {"time": 3637, "pitch": 70, "duration": 3, "velocity": 111}, {"time": 3637, "pitch": 73, "duration": 3, "velocity": 97}, {"time": 3643, "pitch": 59, "duration": 5, "velocity": 100}, {"time": 3649, "pitch": 54, "duration": 5, "velocity": 102}, {"time": 3649, "pitch": 66, "duration": 5, "velocity": 97}, {"time": 3655, "pitch": 56, "duration": 3, "velocity": 97}, {"time": 3655, "pitch": 68, "duration": 5, "velocity": 111}, {"time": 3661, "pitch": 54, "duration": 5, "velocity": 102}, {"time": 3661, "pitch": 66, "duration": 5, "velocity": 100}, {"time": 3667, "pitch": 59, "duration": 5, "velocity": 108}, {"time": 3667, "pitch": 71, "duration": 6, "velocity": 111}, {"time": 3673, "pitch": 54, "duration": 4, "velocity": 105}, {"time": 3673, "pitch": 66, "duration": 4, "velocity": 92}, {"time": 3679, "pitch": 56, "duration": 3, "velocity": 76}, {"time": 3679, "pitch": 68, "duration": 4, "velocity": 105}, {"time": 3685, "pitch": 54, "duration": 4, "velocity": 100}, {"time": 3685, "pitch": 66, "duration": 4, "velocity": 100}, {"time": 3691, "pitch": 59, "duration": 4, "velocity": 105}, {"time": 3691, "pitch": 66, "duration": 3, "velocity": 92}, {"time": 3691, "pitch": 71, "duration": 3, "velocity": 100}, {"time": 3703, "pitch": 59, "duration": 4, "velocity": 105}, {"time": 3703, "pitch": 71, "duration": 6, "velocity": 80}, {"time": 3703, "pitch": 75, "duration": 6, "velocity": 69}, {"time": 3703, "pitch": 83, "duration": 6, "velocity": 97}], "annotations": [{"time": 812, "annotation": {"number": 64, "value": 127}, "group": "control_change"}, {"time": 826, "annotation": {"number": 64, "value": 0}, "group": "control_change"}, {"time": 829, "annotation": {"number": 64, "value": 127}, "group": "control_change"}, {"time": 848, "annotation": {"number": 64, "value": 0}, "group": "control_change"}, {"time": 850, "annotation": {"number": 64, "value": 127}, "group": "control_change"}, {"time": 856, "annotation": {"number": 64, "value": 0}, "group": "control_change"}, {"time": 860, "annotation": {"number": 64, "value": 127}, "group": "control_change"}, {"time": 874, "annotation": {"number": 64, "value": 0}, "group": "control_change"}, {"time": 877, "annotation": {"number": 64, "value": 127}, "group": "control_change"}, {"time": 896, "annotation": {"number": 64, "value": 0}, "group": "control_change"}, {"time": 898, "annotation": {"number": 64, "value": 127}, "group": "control_change"}, {"time": 904, "annotation": {"number": 64, "value": 0}, "group": "control_change"}, {"time": 908, "annotation": {"number": 64, "value": 127}, "group": "control_change"}, {"time": 922, "annotation": {"number": 64, "value": 0}, "group": "control_change"}, {"time": 925, "annotation": {"number": 64, "value": 127}, "group": "control_change"}, {"time": 944, "annotation": {"number": 64, "value": 0}, "group": "control_change"}, {"time": 946, "annotation": {"number": 64, "value": 127}, "group": "control_change"}, {"time": 952, "annotation": {"number": 64, "value": 0}, "group": "control_change"}, {"time": 957, "annotation": {"number": 64, "value": 127}, "group": "control_change"}, {"time": 978, "annotation": {"number": 64, "value": 0}, "group": "control_change"}, {"time": 983, "annotation": {"number": 64, "value": 127}, "group": "control_change"}, {"time": 1001, "annotation": {"number": 64, "value": 0}, "group": "control_change"}, {"time": 1005, "annotation": {"number": 64, "value": 127}, "group": "control_change"}, {"time": 1024, "annotation": {"number": 64, "value": 0}, "group": "control_change"}, {"time": 1029, "annotation": {"number": 64, "value": 127}, "group": "control_change"}, {"time": 1047, "annotation": {"number": 64, "value": 0}, "group": "control_change"}, {"time": 1053, "annotation": {"number": 64, "value": 127}, "group": "control_change"}, {"time": 1072, "annotation": {"number": 64, "value": 0}, "group": "control_change"}, {"time": 1076, "annotation": {"number": 64, "value": 127}, "group": "control_change"}, {"time": 1095, "annotation": {"number": 64, "value": 0}, "group": "control_change"}, {"time": 1101, "annotation": {"number": 64, "value": 127}, "group": "control_change"}, {"time": 1106, "annotation": {"number": 64, "value": 0}, "group": "control_change"}, {"time": 1156, "annotation": {"number": 64, "value": 127}, "group": "control_change"}, {"time": 1171, "annotation": {"number": 64, "value": 0}, "group": "control_change"}, {"time": 1195, "annotation": {"number": 64, "value": 127}, "group": "control_change"}, {"time": 1203, "annotation": {"number": 64, "value": 0}, "group": "control_change"}, {"time": 1254, "annotation": {"number": 64, "value": 127}, "group": "control_change"}, {"time": 1263, "annotation": {"number": 64, "value": 0}, "group": "control_change"}, {"time": 1374, "annotation": {"number": 64, "value": 127}, "group": "control_change"}, {"time": 1383, "annotation": {"number": 64, "value": 0}, "group": "control_change"}, {"time": 1964, "annotation": {"number": 64, "value": 127}, "group": "control_change"}, {"time": 1978, "annotation": {"number": 64, "value": 0}, "group": "control_change"}, {"time": 1981, "annotation": {"number": 64, "value": 127}, "group": "control_change"}, {"time": 2000, "annotation": {"number": 64, "value": 0}, "group": "control_change"}, {"time": 2002, "annotation": {"number": 64, "value": 127}, "group": "control_change"}, {"time": 2008, "annotation": {"number": 64, "value": 0}, "group": "control_change"}, {"time": 2012, "annotation": {"number": 64, "value": 127}, "group": "control_change"}, {"time": 2026, "annotation": {"number": 64, "value": 0}, "group": "control_change"}, {"time": 2029, "annotation": {"number": 64, "value": 127}, "group": "control_change"}, {"time": 2048, "annotation": {"number": 64, "value": 0}, "group": "control_change"}, {"time": 2050, "annotation": {"number": 64, "value": 127}, "group": "control_change"}, {"time": 2056, "annotation": {"number": 64, "value": 0}, "group": "control_change"}, {"time": 2060, "annotation": {"number": 64, "value": 127}, "group": "control_change"}, {"time": 2074, "annotation": {"number": 64, "value": 0}, "group": "control_change"}, {"time": 2077, "annotation": {"number": 64, "value": 127}, "group": "control_change"}, {"time": 2096, "annotation": {"number": 64, "value": 0}, "group": "control_change"}, {"time": 2098, "annotation": {"number": 64, "value": 127}, "group": "control_change"}, {"time": 2104, "annotation": {"number": 64, "value": 0}, "group": "control_change"}, {"time": 2109, "annotation": {"number": 64, "value": 127}, "group": "control_change"}, {"time": 2130, "annotation": {"number": 64, "value": 0}, "group": "control_change"}, {"time": 2135, "annotation": {"number": 64, "value": 127}, "group": "control_change"}, {"time": 2153, "annotation": {"number": 64, "value": 0}, "group": "control_change"}, {"time": 2157, "annotation": {"number": 64, "value": 127}, "group": "control_change"}, {"time": 2176, "annotation": {"number": 64, "value": 0}, "group": "control_change"}, {"time": 2181, "annotation": {"number": 64, "value": 127}, "group": "control_change"}, {"time": 2199, "annotation": {"number": 64, "value": 0}, "group": "control_change"}, {"time": 2205, "annotation": {"number": 64, "value": 127}, "group": "control_change"}, {"time": 2224, "annotation": {"number": 64, "value": 0}, "group": "control_change"}, {"time": 2228, "annotation": {"number": 64, "value": 127}, "group": "control_change"}, {"time": 2247, "annotation": {"number": 64, "value": 0}, "group": "control_change"}, {"time": 2253, "annotation": {"number": 64, "value": 127}, "group": "control_change"}, {"time": 2258, "annotation": {"number": 64, "value": 0}, "group": "control_change"}, {"time": 2308, "annotation": {"number": 64, "value": 127}, "group": "control_change"}, {"time": 2323, "annotation": {"number": 64, "value": 0}, "group": "control_change"}, {"time": 2347, "annotation": {"number": 64, "value": 127}, "group": "control_change"}, {"time": 2355, "annotation": {"number": 64, "value": 0}, "group": "control_change"}, {"time": 2406, "annotation": {"number": 64, "value": 127}, "group": "control_change"}, {"time": 2415, "annotation": {"number": 64, "value": 0}, "group": "control_change"}, {"time": 2526, "annotation": {"number": 64, "value": 127}, "group": "control_change"}, {"time": 2535, "annotation": {"number": 64, "value": 0}, "group": "control_change"}, {"time": 2924, "annotation": {"number": 64, "value": 127}, "group": "control_change"}, {"time": 2938, "annotation": {"number": 64, "value": 0}, "group": "control_change"}, {"time": 2941, "annotation": {"number": 64, "value": 127}, "group": "control_change"}, {"time": 2960, "annotation": {"number": 64, "value": 0}, "group": "control_change"}, {"time": 2962, "annotation": {"number": 64, "value": 127}, "group": "control_change"}, {"time": 2968, "annotation": {"number": 64, "value": 0}, "group": "control_change"}, {"time": 2972, "annotation": {"number": 64, "value": 127}, "group": "control_change"}, {"time": 2986, "annotation": {"number": 64, "value": 0}, "group": "control_change"}, {"time": 2989, "annotation": {"number": 64, "value": 127}, "group": "control_change"}, {"time": 3008, "annotation": {"number": 64, "value": 0}, "group": "control_change"}, {"time": 3010, "annotation": {"number": 64, "value": 127}, "group": "control_change"}, {"time": 3016, "annotation": {"number": 64, "value": 0}, "group": "control_change"}, {"time": 3020, "annotation": {"number": 64, "value": 127}, "group": "control_change"}, {"time": 3034, "annotation": {"number": 64, "value": 0}, "group": "control_change"}, {"time": 3037, "annotation": {"number": 64, "value": 127}, "group": "control_change"}, {"time": 3056, "annotation": {"number": 64, "value": 0}, "group": "control_change"}, {"time": 3058, "annotation": {"number": 64, "value": 127}, "group": "control_change"}, {"time": 3064, "annotation": {"number": 64, "value": 0}, "group": "control_change"}, {"time": 3069, "annotation": {"number": 64, "value": 127}, "group": "control_change"}, {"time": 3090, "annotation": {"number": 64, "value": 0}, "group": "control_change"}, {"time": 3095, "annotation": {"number": 64, "value": 127}, "group": "control_change"}, {"time": 3113, "annotation": {"number": 64, "value": 0}, "group": "control_change"}, {"time": 3117, "annotation": {"number": 64, "value": 127}, "group": "control_change"}, {"time": 3136, "annotation": {"number": 64, "value": 0}, "group": "control_change"}, {"time": 3141, "annotation": {"number": 64, "value": 127}, "group": "control_change"}, {"time": 3159, "annotation": {"number": 64, "value": 0}, "group": "control_change"}, {"time": 3165, "annotation": {"number": 64, "value": 127}, "group": "control_change"}, {"time": 3184, "annotation": {"number": 64, "value": 0}, "group": "control_change"}, {"time": 3188, "annotation": {"number": 64, "value": 127}, "group": "control_change"}, {"time": 3207, "annotation": {"number": 64, "value": 0}, "group": "control_change"}, {"time": 3213, "annotation": {"number": 64, "value": 127}, "group": "control_change"}, {"time": 3218, "annotation": {"number": 64, "value": 0}, "group": "control_change"}, {"time": 3268, "annotation": {"number": 64, "value": 127}, "group": "control_change"}, {"time": 3283, "annotation": {"number": 64, "value": 0}, "group": "control_change"}, {"time": 3307, "annotation": {"number": 64, "value": 127}, "group": "control_change"}, {"time": 3315, "annotation": {"number": 64, "value": 0}, "group": "control_change"}, {"time": 3366, "annotation": {"number": 64, "value": 127}, "group": "control_change"}, {"time": 3375, "annotation": {"number": 64, "value": 0}, "group": "control_change"}, {"time": 3486, "annotation": {"number": 64, "value": 127}, "group": "control_change"}, {"time": 3495, "annotation": {"number": 64, "value": 0}, "group": "control_change"}]}]}