{"metadata": {"schema_version": "0.2", "title": "None", "source_filename": "397.mid", "source_format": "midi"}, "resolution": 12, "tempos": [{"time": 0, "qpm": 80.0}], "time_signatures": [{"time": 0, "numerator": 1, "denominator": 4}], "tracks": [{"program": 0, "is_drum": false, "name": "MELODY", "notes": [{"time": 458, "pitch": 70, "duration": 16, "velocity": 108}, {"time": 476, "pitch": 70, "duration": 5, "velocity": 100}, {"time": 482, "pitch": 68, "duration": 4, "velocity": 97}, {"time": 488, "pitch": 70, "duration": 5, "velocity": 102}, {"time": 494, "pitch": 68, "duration": 5, "velocity": 94}, {"time": 500, "pitch": 63, "duration": 5, "velocity": 100}, {"time": 506, "pitch": 66, "duration": 31, "velocity": 97}, {"time": 542, "pitch": 70, "duration": 5, "velocity": 102}, {"time": 548, "pitch": 73, "duration": 5, "velocity": 94}, {"time": 554, "pitch": 75, "duration": 4, "velocity": 97}, {"time": 560, "pitch": 75, "duration": 4, "velocity": 92}, {"time": 566, "pitch": 75, "duration": 5, "velocity": 82}, {"time": 572, "pitch": 78, "duration": 4, "velocity": 94}, {"time": 578, "pitch": 75, "duration": 10, "velocity": 94}, {"time": 590, "pitch": 73, "duration": 6, "velocity": 102}, {"time": 596, "pitch": 70, "duration": 5, "velocity": 105}, {"time": 602, "pitch": 73, "duration": 25, "velocity": 97}, {"time": 650, "pitch": 75, "duration": 5, "velocity": 105}, {"time": 656, "pitch": 75, "duration": 5, "velocity": 94}, {"time": 662, "pitch": 75, "duration": 5, "velocity": 84}, {"time": 668, "pitch": 73, "duration": 5, "velocity": 97}, {"time": 674, "pitch": 75, "duration": 5, "velocity": 97}, {"time": 680, "pitch": 78, "duration": 5, "velocity": 94}, {"time": 686, "pitch": 75, "duration": 9, "velocity": 102}, {"time": 698, "pitch": 73, "duration": 5, "velocity": 97}, {"time": 704, "pitch": 70, "duration": 5, "velocity": 97}, {"time": 710, "pitch": 70, "duration": 5, "velocity": 87}, {"time": 716, "pitch": 68, "duration": 5, "velocity": 97}, {"time": 722, "pitch": 66, "duration": 10, "velocity": 102}, {"time": 746, "pitch": 68, "duration": 5, "velocity": 89}, {"time": 752, "pitch": 68, "duration": 4, "velocity": 94}, {"time": 758, "pitch": 68, "duration": 4, "velocity": 92}, {"time": 764, "pitch": 70, "duration": 4, "velocity": 100}, {"time": 770, "pitch": 68, "duration": 10, "velocity": 97}, {"time": 782, "pitch": 66, "duration": 5, "velocity": 97}, {"time": 788, "pitch": 63, "duration": 4, "velocity": 97}, {"time": 794, "pitch": 61, "duration": 30, "velocity": 87}, {"time": 842, "pitch": 70, "duration": 17, "velocity": 100}, {"time": 860, "pitch": 70, "duration": 5, "velocity": 105}, {"time": 866, "pitch": 68, "duration": 5, "velocity": 89}, {"time": 872, "pitch": 70, "duration": 4, "velocity": 100}, {"time": 878, "pitch": 68, "duration": 5, "velocity": 97}, {"time": 884, "pitch": 63, "duration": 5, "velocity": 97}, {"time": 890, "pitch": 66, "duration": 29, "velocity": 97}, {"time": 926, "pitch": 70, "duration": 5, "velocity": 108}, {"time": 932, "pitch": 73, "duration": 4, "velocity": 92}, {"time": 938, "pitch": 75, "duration": 3, "velocity": 89}, {"time": 944, "pitch": 75, "duration": 4, "velocity": 92}, {"time": 950, "pitch": 75, "duration": 5, "velocity": 89}, {"time": 956, "pitch": 78, "duration": 4, "velocity": 92}, {"time": 962, "pitch": 75, "duration": 9, "velocity": 87}, {"time": 974, "pitch": 73, "duration": 6, "velocity": 94}, {"time": 980, "pitch": 70, "duration": 5, "velocity": 100}, {"time": 986, "pitch": 73, "duration": 25, "velocity": 102}, {"time": 1034, "pitch": 75, "duration": 5, "velocity": 89}, {"time": 1040, "pitch": 75, "duration": 5, "velocity": 92}, {"time": 1046, "pitch": 75, "duration": 5, "velocity": 97}, {"time": 1052, "pitch": 73, "duration": 4, "velocity": 100}, {"time": 1058, "pitch": 75, "duration": 6, "velocity": 100}, {"time": 1064, "pitch": 78, "duration": 6, "velocity": 89}, {"time": 1070, "pitch": 75, "duration": 10, "velocity": 97}, {"time": 1082, "pitch": 73, "duration": 6, "velocity": 94}, {"time": 1088, "pitch": 70, "duration": 4, "velocity": 94}, {"time": 1094, "pitch": 70, "duration": 7, "velocity": 94}, {"time": 1100, "pitch": 68, "duration": 5, "velocity": 100}, {"time": 1106, "pitch": 66, "duration": 10, "velocity": 97}, {"time": 1130, "pitch": 68, "duration": 4, "velocity": 97}, {"time": 1136, "pitch": 68, "duration": 4, "velocity": 94}, {"time": 1142, "pitch": 68, "duration": 4, "velocity": 105}, {"time": 1148, "pitch": 70, "duration": 4, "velocity": 102}, {"time": 1154, "pitch": 68, "duration": 11, "velocity": 102}, {"time": 1166, "pitch": 66, "duration": 5, "velocity": 102}, {"time": 1172, "pitch": 75, "duration": 5, "velocity": 105}, {"time": 1178, "pitch": 73, "duration": 39, "velocity": 100}, {"time": 1226, "pitch": 78, "duration": 16, "velocity": 100}, {"time": 1244, "pitch": 77, "duration": 5, "velocity": 105}, {"time": 1250, "pitch": 75, "duration": 4, "velocity": 100}, {"time": 1256, "pitch": 77, "duration": 4, "velocity": 94}, {"time": 1262, "pitch": 75, "duration": 5, "velocity": 94}, {"time": 1268, "pitch": 70, "duration": 5, "velocity": 105}, {"time": 1274, "pitch": 73, "duration": 31, "velocity": 97}, {"time": 1322, "pitch": 75, "duration": 4, "velocity": 97}, {"time": 1328, "pitch": 75, "duration": 4, "velocity": 102}, {"time": 1334, "pitch": 75, "duration": 5, "velocity": 97}, {"time": 1340, "pitch": 78, "duration": 4, "velocity": 100}, {"time": 1346, "pitch": 75, "duration": 10, "velocity": 92}, {"time": 1358, "pitch": 73, "duration": 5, "velocity": 94}, {"time": 1364, "pitch": 70, "duration": 4, "velocity": 92}, {"time": 1370, "pitch": 68, "duration": 29, "velocity": 100}, {"time": 1418, "pitch": 68, "duration": 4, "velocity": 97}, {"time": 1424, "pitch": 68, "duration": 4, "velocity": 100}, {"time": 1430, "pitch": 68, "duration": 4, "velocity": 100}, {"time": 1436, "pitch": 66, "duration": 4, "velocity": 102}, {"time": 1442, "pitch": 68, "duration": 10, "velocity": 100}, {"time": 1454, "pitch": 70, "duration": 10, "velocity": 105}, {"time": 1466, "pitch": 75, "duration": 6, "velocity": 93}, {"time": 1472, "pitch": 73, "duration": 4, "velocity": 102}, {"time": 1478, "pitch": 73, "duration": 5, "velocity": 105}, {"time": 1484, "pitch": 70, "duration": 5, "velocity": 105}, {"time": 1490, "pitch": 73, "duration": 5, "velocity": 105}, {"time": 1496, "pitch": 75, "duration": 6, "velocity": 102}, {"time": 1502, "pitch": 73, "duration": 10, "velocity": 105}, {"time": 1514, "pitch": 75, "duration": 4, "velocity": 102}, {"time": 1520, "pitch": 75, "duration": 3, "velocity": 100}, {"time": 1526, "pitch": 75, "duration": 4, "velocity": 102}, {"time": 1532, "pitch": 75, "duration": 10, "velocity": 105}, {"time": 1544, "pitch": 73, "duration": 4, "velocity": 102}, {"time": 1550, "pitch": 73, "duration": 5, "velocity": 105}, {"time": 1556, "pitch": 70, "duration": 5, "velocity": 108}, {"time": 1562, "pitch": 73, "duration": 37, "velocity": 102}, {"time": 1610, "pitch": 78, "duration": 16, "velocity": 105}, {"time": 1628, "pitch": 77, "duration": 5, "velocity": 105}, {"time": 1634, "pitch": 75, "duration": 5, "velocity": 105}, {"time": 1640, "pitch": 77, "duration": 4, "velocity": 105}, {"time": 1646, "pitch": 75, "duration": 5, "velocity": 100}, {"time": 1652, "pitch": 70, "duration": 5, "velocity": 108}, {"time": 1658, "pitch": 73, "duration": 32, "velocity": 94}, {"time": 1706, "pitch": 75, "duration": 4, "velocity": 102}, {"time": 1712, "pitch": 75, "duration": 4, "velocity": 100}, {"time": 1718, "pitch": 75, "duration": 4, "velocity": 92}, {"time": 1724, "pitch": 78, "duration": 4, "velocity": 97}, {"time": 1730, "pitch": 75, "duration": 10, "velocity": 94}, {"time": 1742, "pitch": 73, "duration": 5, "velocity": 94}, {"time": 1748, "pitch": 70, "duration": 5, "velocity": 100}, {"time": 1754, "pitch": 68, "duration": 31, "velocity": 100}, {"time": 1802, "pitch": 68, "duration": 4, "velocity": 102}, {"time": 1808, "pitch": 68, "duration": 5, "velocity": 105}, {"time": 1814, "pitch": 68, "duration": 5, "velocity": 97}, {"time": 1820, "pitch": 66, "duration": 5, "velocity": 108}, {"time": 1826, "pitch": 68, "duration": 10, "velocity": 97}, {"time": 1838, "pitch": 70, "duration": 10, "velocity": 102}, {"time": 1850, "pitch": 75, "duration": 5, "velocity": 100}, {"time": 1856, "pitch": 73, "duration": 4, "velocity": 102}, {"time": 1862, "pitch": 73, "duration": 5, "velocity": 105}, {"time": 1868, "pitch": 70, "duration": 5, "velocity": 108}, {"time": 1874, "pitch": 75, "duration": 12, "velocity": 92}, {"time": 1886, "pitch": 73, "duration": 9, "velocity": 92}, {"time": 1898, "pitch": 75, "duration": 4, "velocity": 89}, {"time": 1904, "pitch": 75, "duration": 4, "velocity": 94}, {"time": 1910, "pitch": 75, "duration": 4, "velocity": 97}, {"time": 1916, "pitch": 75, "duration": 10, "velocity": 105}, {"time": 1928, "pitch": 73, "duration": 5, "velocity": 102}, {"time": 1934, "pitch": 73, "duration": 5, "velocity": 97}, {"time": 1940, "pitch": 70, "duration": 4, "velocity": 108}, {"time": 1946, "pitch": 73, "duration": 37, "velocity": 105}, {"time": 1994, "pitch": 73, "duration": 4, "velocity": 87}, {"time": 2000, "pitch": 70, "duration": 5, "velocity": 100}, {"time": 2006, "pitch": 68, "duration": 4, "velocity": 97}, {"time": 2012, "pitch": 70, "duration": 5, "velocity": 94}, {"time": 2018, "pitch": 68, "duration": 10, "velocity": 100}, {"time": 2030, "pitch": 63, "duration": 11, "velocity": 94}, {"time": 2042, "pitch": 66, "duration": 46, "velocity": 100}, {"time": 2474, "pitch": 70, "duration": 17, "velocity": 100}, {"time": 2492, "pitch": 70, "duration": 5, "velocity": 105}, {"time": 2498, "pitch": 68, "duration": 5, "velocity": 89}, {"time": 2504, "pitch": 70, "duration": 4, "velocity": 100}, {"time": 2510, "pitch": 68, "duration": 5, "velocity": 97}, {"time": 2516, "pitch": 63, "duration": 5, "velocity": 97}, {"time": 2522, "pitch": 66, "duration": 29, "velocity": 97}, {"time": 2558, "pitch": 70, "duration": 5, "velocity": 108}, {"time": 2564, "pitch": 73, "duration": 4, "velocity": 92}, {"time": 2570, "pitch": 75, "duration": 3, "velocity": 89}, {"time": 2576, "pitch": 75, "duration": 4, "velocity": 92}, {"time": 2582, "pitch": 75, "duration": 5, "velocity": 89}, {"time": 2588, "pitch": 78, "duration": 4, "velocity": 92}, {"time": 2594, "pitch": 75, "duration": 9, "velocity": 87}, {"time": 2606, "pitch": 73, "duration": 6, "velocity": 94}, {"time": 2612, "pitch": 70, "duration": 5, "velocity": 100}, {"time": 2618, "pitch": 73, "duration": 25, "velocity": 102}, {"time": 2666, "pitch": 75, "duration": 5, "velocity": 89}, {"time": 2672, "pitch": 75, "duration": 5, "velocity": 92}, {"time": 2678, "pitch": 75, "duration": 5, "velocity": 97}, {"time": 2684, "pitch": 73, "duration": 4, "velocity": 100}, {"time": 2690, "pitch": 75, "duration": 6, "velocity": 100}, {"time": 2696, "pitch": 78, "duration": 6, "velocity": 89}, {"time": 2702, "pitch": 75, "duration": 10, "velocity": 97}, {"time": 2714, "pitch": 73, "duration": 6, "velocity": 94}, {"time": 2720, "pitch": 70, "duration": 4, "velocity": 94}, {"time": 2726, "pitch": 70, "duration": 7, "velocity": 94}, {"time": 2732, "pitch": 68, "duration": 5, "velocity": 100}, {"time": 2738, "pitch": 66, "duration": 10, "velocity": 97}, {"time": 2762, "pitch": 68, "duration": 4, "velocity": 97}, {"time": 2768, "pitch": 68, "duration": 4, "velocity": 94}, {"time": 2774, "pitch": 68, "duration": 4, "velocity": 105}, {"time": 2780, "pitch": 70, "duration": 4, "velocity": 102}, {"time": 2786, "pitch": 68, "duration": 11, "velocity": 102}, {"time": 2798, "pitch": 66, "duration": 5, "velocity": 102}, {"time": 2804, "pitch": 75, "duration": 5, "velocity": 105}, {"time": 2810, "pitch": 73, "duration": 39, "velocity": 100}, {"time": 2858, "pitch": 78, "duration": 16, "velocity": 100}, {"time": 2876, "pitch": 77, "duration": 5, "velocity": 105}, {"time": 2882, "pitch": 75, "duration": 4, "velocity": 100}, {"time": 2888, "pitch": 77, "duration": 4, "velocity": 94}, {"time": 2894, "pitch": 75, "duration": 5, "velocity": 94}, {"time": 2900, "pitch": 70, "duration": 5, "velocity": 105}, {"time": 2906, "pitch": 73, "duration": 31, "velocity": 97}, {"time": 2954, "pitch": 75, "duration": 4, "velocity": 97}, {"time": 2960, "pitch": 75, "duration": 4, "velocity": 102}, {"time": 2966, "pitch": 75, "duration": 5, "velocity": 97}, {"time": 2972, "pitch": 78, "duration": 4, "velocity": 100}, {"time": 2978, "pitch": 75, "duration": 10, "velocity": 92}, {"time": 2990, "pitch": 73, "duration": 5, "velocity": 94}, {"time": 2996, "pitch": 70, "duration": 4, "velocity": 92}, {"time": 3002, "pitch": 68, "duration": 29, "velocity": 100}, {"time": 3050, "pitch": 68, "duration": 4, "velocity": 97}, {"time": 3056, "pitch": 68, "duration": 4, "velocity": 100}, {"time": 3062, "pitch": 68, "duration": 4, "velocity": 100}, {"time": 3068, "pitch": 66, "duration": 4, "velocity": 102}, {"time": 3074, "pitch": 68, "duration": 10, "velocity": 100}, {"time": 3086, "pitch": 70, "duration": 10, "velocity": 105}, {"time": 3098, "pitch": 75, "duration": 6, "velocity": 93}, {"time": 3104, "pitch": 73, "duration": 4, "velocity": 102}, {"time": 3110, "pitch": 73, "duration": 5, "velocity": 105}, {"time": 3116, "pitch": 70, "duration": 5, "velocity": 105}, {"time": 3122, "pitch": 73, "duration": 5, "velocity": 105}, {"time": 3128, "pitch": 75, "duration": 6, "velocity": 102}, {"time": 3134, "pitch": 73, "duration": 10, "velocity": 105}, {"time": 3146, "pitch": 75, "duration": 4, "velocity": 102}, {"time": 3152, "pitch": 75, "duration": 3, "velocity": 100}, {"time": 3158, "pitch": 75, "duration": 4, "velocity": 102}, {"time": 3164, "pitch": 75, "duration": 10, "velocity": 105}, {"time": 3176, "pitch": 73, "duration": 4, "velocity": 102}, {"time": 3182, "pitch": 73, "duration": 5, "velocity": 105}, {"time": 3188, "pitch": 70, "duration": 5, "velocity": 108}, {"time": 3194, "pitch": 73, "duration": 37, "velocity": 102}, {"time": 3242, "pitch": 78, "duration": 16, "velocity": 105}, {"time": 3260, "pitch": 77, "duration": 5, "velocity": 105}, {"time": 3266, "pitch": 75, "duration": 5, "velocity": 105}, {"time": 3272, "pitch": 77, "duration": 4, "velocity": 105}, {"time": 3278, "pitch": 75, "duration": 5, "velocity": 100}, {"time": 3284, "pitch": 70, "duration": 5, "velocity": 108}, {"time": 3290, "pitch": 73, "duration": 32, "velocity": 94}, {"time": 3338, "pitch": 75, "duration": 4, "velocity": 102}, {"time": 3344, "pitch": 75, "duration": 4, "velocity": 100}, {"time": 3350, "pitch": 75, "duration": 4, "velocity": 92}, {"time": 3356, "pitch": 78, "duration": 4, "velocity": 97}, {"time": 3362, "pitch": 75, "duration": 10, "velocity": 94}, {"time": 3374, "pitch": 73, "duration": 5, "velocity": 94}, {"time": 3380, "pitch": 70, "duration": 5, "velocity": 100}, {"time": 3386, "pitch": 68, "duration": 31, "velocity": 100}, {"time": 3434, "pitch": 68, "duration": 4, "velocity": 102}, {"time": 3440, "pitch": 68, "duration": 5, "velocity": 105}, {"time": 3446, "pitch": 68, "duration": 5, "velocity": 97}, {"time": 3452, "pitch": 66, "duration": 5, "velocity": 108}, {"time": 3458, "pitch": 68, "duration": 10, "velocity": 97}, {"time": 3470, "pitch": 70, "duration": 10, "velocity": 102}, {"time": 3482, "pitch": 75, "duration": 5, "velocity": 100}, {"time": 3488, "pitch": 73, "duration": 4, "velocity": 102}, {"time": 3494, "pitch": 73, "duration": 5, "velocity": 105}, {"time": 3500, "pitch": 70, "duration": 5, "velocity": 108}, {"time": 3506, "pitch": 75, "duration": 12, "velocity": 92}, {"time": 3518, "pitch": 73, "duration": 9, "velocity": 92}, {"time": 3530, "pitch": 75, "duration": 4, "velocity": 89}, {"time": 3536, "pitch": 75, "duration": 4, "velocity": 94}, {"time": 3542, "pitch": 75, "duration": 4, "velocity": 97}, {"time": 3548, "pitch": 75, "duration": 10, "velocity": 105}, {"time": 3560, "pitch": 73, "duration": 5, "velocity": 102}, {"time": 3566, "pitch": 73, "duration": 5, "velocity": 97}, {"time": 3572, "pitch": 70, "duration": 4, "velocity": 108}, {"time": 3578, "pitch": 73, "duration": 37, "velocity": 105}, {"time": 3626, "pitch": 78, "duration": 16, "velocity": 100}, {"time": 3644, "pitch": 77, "duration": 5, "velocity": 105}, {"time": 3650, "pitch": 75, "duration": 4, "velocity": 100}, {"time": 3656, "pitch": 77, "duration": 4, "velocity": 94}, {"time": 3662, "pitch": 75, "duration": 5, "velocity": 94}, {"time": 3668, "pitch": 70, "duration": 5, "velocity": 105}, {"time": 3674, "pitch": 73, "duration": 31, "velocity": 97}, {"time": 3722, "pitch": 75, "duration": 4, "velocity": 97}, {"time": 3728, "pitch": 75, "duration": 4, "velocity": 102}, {"time": 3734, "pitch": 75, "duration": 5, "velocity": 97}, {"time": 3740, "pitch": 78, "duration": 4, "velocity": 100}, {"time": 3746, "pitch": 75, "duration": 10, "velocity": 92}, {"time": 3758, "pitch": 73, "duration": 5, "velocity": 94}, {"time": 3764, "pitch": 70, "duration": 4, "velocity": 92}, {"time": 3770, "pitch": 68, "duration": 29, "velocity": 100}, {"time": 3818, "pitch": 68, "duration": 4, "velocity": 97}, {"time": 3824, "pitch": 68, "duration": 4, "velocity": 100}, {"time": 3830, "pitch": 68, "duration": 4, "velocity": 100}, {"time": 3836, "pitch": 66, "duration": 4, "velocity": 102}, {"time": 3842, "pitch": 68, "duration": 10, "velocity": 100}, {"time": 3854, "pitch": 70, "duration": 10, "velocity": 105}, {"time": 3866, "pitch": 75, "duration": 6, "velocity": 93}, {"time": 3872, "pitch": 73, "duration": 4, "velocity": 102}, {"time": 3878, "pitch": 73, "duration": 5, "velocity": 105}, {"time": 3884, "pitch": 70, "duration": 5, "velocity": 105}, {"time": 3890, "pitch": 73, "duration": 5, "velocity": 105}, {"time": 3896, "pitch": 75, "duration": 6, "velocity": 102}, {"time": 3902, "pitch": 73, "duration": 10, "velocity": 105}, {"time": 3914, "pitch": 75, "duration": 4, "velocity": 102}, {"time": 3920, "pitch": 75, "duration": 3, "velocity": 100}, {"time": 3926, "pitch": 75, "duration": 4, "velocity": 102}, {"time": 3932, "pitch": 75, "duration": 10, "velocity": 105}, {"time": 3944, "pitch": 73, "duration": 4, "velocity": 102}, {"time": 3950, "pitch": 73, "duration": 5, "velocity": 105}, {"time": 3956, "pitch": 70, "duration": 5, "velocity": 108}, {"time": 3962, "pitch": 73, "duration": 37, "velocity": 102}, {"time": 4010, "pitch": 78, "duration": 16, "velocity": 105}, {"time": 4028, "pitch": 77, "duration": 5, "velocity": 105}, {"time": 4034, "pitch": 75, "duration": 5, "velocity": 105}, {"time": 4040, "pitch": 77, "duration": 4, "velocity": 105}, {"time": 4046, "pitch": 75, "duration": 5, "velocity": 100}, {"time": 4052, "pitch": 70, "duration": 5, "velocity": 108}, {"time": 4058, "pitch": 73, "duration": 32, "velocity": 94}, {"time": 4106, "pitch": 75, "duration": 4, "velocity": 102}, {"time": 4112, "pitch": 75, "duration": 4, "velocity": 100}, {"time": 4118, "pitch": 75, "duration": 4, "velocity": 92}, {"time": 4124, "pitch": 78, "duration": 4, "velocity": 97}, {"time": 4130, "pitch": 75, "duration": 10, "velocity": 94}, {"time": 4142, "pitch": 73, "duration": 5, "velocity": 94}, {"time": 4148, "pitch": 70, "duration": 5, "velocity": 100}, {"time": 4154, "pitch": 68, "duration": 31, "velocity": 100}, {"time": 4202, "pitch": 68, "duration": 4, "velocity": 102}, {"time": 4208, "pitch": 68, "duration": 5, "velocity": 105}, {"time": 4214, "pitch": 68, "duration": 5, "velocity": 97}, {"time": 4220, "pitch": 66, "duration": 5, "velocity": 108}, {"time": 4226, "pitch": 68, "duration": 10, "velocity": 97}, {"time": 4238, "pitch": 70, "duration": 10, "velocity": 102}, {"time": 4250, "pitch": 75, "duration": 5, "velocity": 100}, {"time": 4256, "pitch": 73, "duration": 4, "velocity": 102}, {"time": 4262, "pitch": 73, "duration": 5, "velocity": 105}, {"time": 4268, "pitch": 70, "duration": 5, "velocity": 108}, {"time": 4274, "pitch": 75, "duration": 12, "velocity": 92}, {"time": 4286, "pitch": 73, "duration": 9, "velocity": 92}, {"time": 4298, "pitch": 75, "duration": 4, "velocity": 89}, {"time": 4304, "pitch": 75, "duration": 4, "velocity": 94}, {"time": 4310, "pitch": 75, "duration": 4, "velocity": 97}, {"time": 4316, "pitch": 75, "duration": 10, "velocity": 105}, {"time": 4328, "pitch": 73, "duration": 5, "velocity": 102}, {"time": 4334, "pitch": 73, "duration": 5, "velocity": 97}, {"time": 4340, "pitch": 70, "duration": 4, "velocity": 108}, {"time": 4346, "pitch": 73, "duration": 37, "velocity": 105}, {"time": 4394, "pitch": 73, "duration": 4, "velocity": 87}, {"time": 4400, "pitch": 70, "duration": 5, "velocity": 100}, {"time": 4406, "pitch": 68, "duration": 4, "velocity": 97}, {"time": 4412, "pitch": 70, "duration": 5, "velocity": 94}, {"time": 4418, "pitch": 68, "duration": 10, "velocity": 100}, {"time": 4430, "pitch": 63, "duration": 11, "velocity": 94}, {"time": 4442, "pitch": 66, "duration": 46, "velocity": 100}]}, {"program": 0, "is_drum": false, "name": "BRIDGE", "notes": [{"time": 62, "pitch": 78, "duration": 4, "velocity": 114}, {"time": 68, "pitch": 80, "duration": 5, "velocity": 111}, {"time": 74, "pitch": 82, "duration": 29, "velocity": 114}, {"time": 104, "pitch": 85, "duration": 6, "velocity": 117}, {"time": 110, "pitch": 80, "duration": 6, "velocity": 117}, {"time": 116, "pitch": 82, "duration": 6, "velocity": 108}, {"time": 122, "pitch": 78, "duration": 33, "velocity": 117}, {"time": 158, "pitch": 75, "duration": 5, "velocity": 111}, {"time": 164, "pitch": 78, "duration": 4, "velocity": 105}, {"time": 170, "pitch": 80, "duration": 35, "velocity": 111}, {"time": 206, "pitch": 82, "duration": 10, "velocity": 105}, {"time": 218, "pitch": 80, "duration": 36, "velocity": 111}, {"time": 254, "pitch": 66, "duration": 5, "velocity": 105}, {"time": 254, "pitch": 78, "duration": 5, "velocity": 105}, {"time": 260, "pitch": 68, "duration": 6, "velocity": 108}, {"time": 260, "pitch": 80, "duration": 6, "velocity": 108}, {"time": 266, "pitch": 70, "duration": 6, "velocity": 105}, {"time": 266, "pitch": 82, "duration": 6, "velocity": 105}, {"time": 272, "pitch": 68, "duration": 5, "velocity": 105}, {"time": 272, "pitch": 80, "duration": 5, "velocity": 105}, {"time": 278, "pitch": 68, "duration": 5, "velocity": 100}, {"time": 278, "pitch": 80, "duration": 5, "velocity": 100}, {"time": 284, "pitch": 66, "duration": 4, "velocity": 105}, {"time": 284, "pitch": 78, "duration": 4, "velocity": 105}, {"time": 290, "pitch": 66, "duration": 10, "velocity": 108}, {"time": 290, "pitch": 78, "duration": 10, "velocity": 108}, {"time": 302, "pitch": 75, "duration": 10, "velocity": 114}, {"time": 302, "pitch": 87, "duration": 10, "velocity": 114}, {"time": 314, "pitch": 73, "duration": 18, "velocity": 108}, {"time": 314, "pitch": 85, "duration": 18, "velocity": 108}, {"time": 332, "pitch": 75, "duration": 6, "velocity": 114}, {"time": 332, "pitch": 87, "duration": 6, "velocity": 114}, {"time": 338, "pitch": 70, "duration": 24, "velocity": 105}, {"time": 338, "pitch": 82, "duration": 24, "velocity": 105}, {"time": 362, "pitch": 68, "duration": 35, "velocity": 114}, {"time": 362, "pitch": 80, "duration": 35, "velocity": 114}, {"time": 398, "pitch": 73, "duration": 5, "velocity": 105}, {"time": 398, "pitch": 85, "duration": 5, "velocity": 105}, {"time": 404, "pitch": 70, "duration": 6, "velocity": 102}, {"time": 404, "pitch": 82, "duration": 6, "velocity": 102}, {"time": 410, "pitch": 68, "duration": 48, "velocity": 108}, {"time": 410, "pitch": 80, "duration": 48, "velocity": 108}, {"time": 614, "pitch": 75, "duration": 6, "velocity": 100}, {"time": 620, "pitch": 77, "duration": 3, "velocity": 102}, {"time": 623, "pitch": 75, "duration": 3, "velocity": 89}, {"time": 626, "pitch": 73, "duration": 21, "velocity": 108}, {"time": 650, "pitch": 75, "duration": 22, "velocity": 92}, {"time": 674, "pitch": 78, "duration": 12, "velocity": 105}, {"time": 686, "pitch": 75, "duration": 10, "velocity": 108}, {"time": 698, "pitch": 73, "duration": 19, "velocity": 100}, {"time": 722, "pitch": 75, "duration": 12, "velocity": 87}, {"time": 734, "pitch": 73, "duration": 6, "velocity": 87}, {"time": 740, "pitch": 70, "duration": 5, "velocity": 82}, {"time": 746, "pitch": 80, "duration": 15, "velocity": 111}, {"time": 764, "pitch": 82, "duration": 5, "velocity": 100}, {"time": 770, "pitch": 80, "duration": 9, "velocity": 105}, {"time": 782, "pitch": 85, "duration": 5, "velocity": 111}, {"time": 788, "pitch": 82, "duration": 5, "velocity": 111}, {"time": 794, "pitch": 80, "duration": 18, "velocity": 111}, {"time": 812, "pitch": 73, "duration": 17, "velocity": 92}, {"time": 812, "pitch": 77, "duration": 17, "velocity": 100}, {"time": 830, "pitch": 75, "duration": 11, "velocity": 73}, {"time": 890, "pitch": 78, "duration": 6, "velocity": 84}, {"time": 896, "pitch": 73, "duration": 8, "velocity": 71}, {"time": 902, "pitch": 75, "duration": 6, "velocity": 92}, {"time": 908, "pitch": 80, "duration": 6, "velocity": 100}, {"time": 914, "pitch": 78, "duration": 18, "velocity": 97}, {"time": 938, "pitch": 71, "duration": 43, "velocity": 77}, {"time": 938, "pitch": 75, "duration": 43, "velocity": 84}, {"time": 986, "pitch": 73, "duration": 18, "velocity": 82}, {"time": 986, "pitch": 77, "duration": 18, "velocity": 84}, {"time": 1004, "pitch": 80, "duration": 3, "velocity": 94}, {"time": 1007, "pitch": 82, "duration": 3, "velocity": 73}, {"time": 1010, "pitch": 80, "duration": 22, "velocity": 117}, {"time": 1040, "pitch": 66, "duration": 8, "velocity": 100}, {"time": 1046, "pitch": 71, "duration": 6, "velocity": 105}, {"time": 1052, "pitch": 75, "duration": 7, "velocity": 80}, {"time": 1058, "pitch": 78, "duration": 19, "velocity": 100}, {"time": 1088, "pitch": 70, "duration": 7, "velocity": 51}, {"time": 1094, "pitch": 73, "duration": 7, "velocity": 92}, {"time": 1100, "pitch": 77, "duration": 8, "velocity": 92}, {"time": 1106, "pitch": 82, "duration": 18, "velocity": 84}, {"time": 1130, "pitch": 80, "duration": 31, "velocity": 102}, {"time": 1166, "pitch": 78, "duration": 6, "velocity": 87}, {"time": 1172, "pitch": 75, "duration": 6, "velocity": 105}, {"time": 1178, "pitch": 73, "duration": 24, "velocity": 102}, {"time": 1208, "pitch": 65, "duration": 6, "velocity": 78}, {"time": 1214, "pitch": 68, "duration": 6, "velocity": 117}, {"time": 1220, "pitch": 73, "duration": 5, "velocity": 111}, {"time": 1226, "pitch": 75, "duration": 24, "velocity": 108}, {"time": 1238, "pitch": 78, "duration": 24, "velocity": 111}, {"time": 1262, "pitch": 75, "duration": 10, "velocity": 108}, {"time": 1274, "pitch": 73, "duration": 18, "velocity": 84}, {"time": 1274, "pitch": 77, "duration": 18, "velocity": 82}, {"time": 1292, "pitch": 75, "duration": 6, "velocity": 78}, {"time": 1298, "pitch": 73, "duration": 21, "velocity": 94}, {"time": 1322, "pitch": 75, "duration": 24, "velocity": 105}, {"time": 1346, "pitch": 78, "duration": 11, "velocity": 97}, {"time": 1358, "pitch": 73, "duration": 5, "velocity": 102}, {"time": 1364, "pitch": 70, "duration": 6, "velocity": 100}, {"time": 1370, "pitch": 68, "duration": 22, "velocity": 92}, {"time": 1394, "pitch": 68, "duration": 23, "velocity": 102}, {"time": 1394, "pitch": 73, "duration": 23, "velocity": 100}, {"time": 1418, "pitch": 68, "duration": 22, "velocity": 84}, {"time": 1418, "pitch": 71, "duration": 24, "velocity": 77}, {"time": 1442, "pitch": 68, "duration": 13, "velocity": 80}, {"time": 1454, "pitch": 75, "duration": 11, "velocity": 97}, {"time": 1466, "pitch": 70, "duration": 26, "velocity": 97}, {"time": 1466, "pitch": 73, "duration": 27, "velocity": 92}, {"time": 1496, "pitch": 70, "duration": 9, "velocity": 82}, {"time": 1502, "pitch": 75, "duration": 6, "velocity": 92}, {"time": 1508, "pitch": 73, "duration": 6, "velocity": 92}, {"time": 1514, "pitch": 75, "duration": 45, "velocity": 84}, {"time": 1562, "pitch": 68, "duration": 18, "velocity": 84}, {"time": 1562, "pitch": 73, "duration": 18, "velocity": 87}, {"time": 1580, "pitch": 73, "duration": 5, "velocity": 102}, {"time": 1586, "pitch": 80, "duration": 13, "velocity": 105}, {"time": 1598, "pitch": 85, "duration": 12, "velocity": 102}, {"time": 1610, "pitch": 78, "duration": 30, "velocity": 105}, {"time": 1640, "pitch": 77, "duration": 6, "velocity": 94}, {"time": 1646, "pitch": 75, "duration": 11, "velocity": 89}, {"time": 1658, "pitch": 73, "duration": 35, "velocity": 97}, {"time": 1694, "pitch": 77, "duration": 6, "velocity": 97}, {"time": 1700, "pitch": 73, "duration": 6, "velocity": 97}, {"time": 1706, "pitch": 75, "duration": 34, "velocity": 102}, {"time": 1742, "pitch": 73, "duration": 6, "velocity": 82}, {"time": 1748, "pitch": 70, "duration": 5, "velocity": 97}, {"time": 1754, "pitch": 68, "duration": 19, "velocity": 92}, {"time": 1772, "pitch": 75, "duration": 6, "velocity": 87}, {"time": 1778, "pitch": 77, "duration": 5, "velocity": 87}, {"time": 1784, "pitch": 75, "duration": 6, "velocity": 84}, {"time": 1790, "pitch": 73, "duration": 7, "velocity": 93}, {"time": 1796, "pitch": 70, "duration": 5, "velocity": 93}, {"time": 1802, "pitch": 68, "duration": 18, "velocity": 100}, {"time": 1838, "pitch": 75, "duration": 11, "velocity": 100}, {"time": 1850, "pitch": 73, "duration": 23, "velocity": 100}, {"time": 1874, "pitch": 73, "duration": 10, "velocity": 49}, {"time": 1886, "pitch": 73, "duration": 6, "velocity": 105}, {"time": 1892, "pitch": 70, "duration": 6, "velocity": 97}, {"time": 1898, "pitch": 75, "duration": 32, "velocity": 102}, {"time": 1934, "pitch": 75, "duration": 11, "velocity": 114}, {"time": 1946, "pitch": 73, "duration": 19, "velocity": 111}, {"time": 1964, "pitch": 78, "duration": 6, "velocity": 84}, {"time": 1970, "pitch": 77, "duration": 6, "velocity": 97}, {"time": 1976, "pitch": 75, "duration": 7, "velocity": 76}, {"time": 1982, "pitch": 73, "duration": 12, "velocity": 92}, {"time": 1994, "pitch": 73, "duration": 17, "velocity": 89}, {"time": 2012, "pitch": 70, "duration": 6, "velocity": 82}, {"time": 2018, "pitch": 68, "duration": 12, "velocity": 82}, {"time": 2030, "pitch": 63, "duration": 10, "velocity": 92}, {"time": 2042, "pitch": 66, "duration": 47, "velocity": 89}, {"time": 2078, "pitch": 78, "duration": 4, "velocity": 114}, {"time": 2084, "pitch": 80, "duration": 5, "velocity": 111}, {"time": 2090, "pitch": 82, "duration": 29, "velocity": 114}, {"time": 2120, "pitch": 85, "duration": 6, "velocity": 117}, {"time": 2126, "pitch": 80, "duration": 6, "velocity": 117}, {"time": 2132, "pitch": 82, "duration": 6, "velocity": 108}, {"time": 2138, "pitch": 80, "duration": 6, "velocity": 117}, {"time": 2144, "pitch": 78, "duration": 27, "velocity": 117}, {"time": 2174, "pitch": 82, "duration": 5, "velocity": 117}, {"time": 2180, "pitch": 85, "duration": 5, "velocity": 117}, {"time": 2186, "pitch": 87, "duration": 34, "velocity": 117}, {"time": 2222, "pitch": 85, "duration": 5, "velocity": 111}, {"time": 2228, "pitch": 82, "duration": 5, "velocity": 117}, {"time": 2234, "pitch": 80, "duration": 34, "velocity": 111}, {"time": 2270, "pitch": 66, "duration": 5, "velocity": 105}, {"time": 2270, "pitch": 78, "duration": 5, "velocity": 105}, {"time": 2276, "pitch": 68, "duration": 6, "velocity": 108}, {"time": 2276, "pitch": 80, "duration": 6, "velocity": 108}, {"time": 2282, "pitch": 70, "duration": 6, "velocity": 105}, {"time": 2282, "pitch": 82, "duration": 6, "velocity": 105}, {"time": 2288, "pitch": 68, "duration": 5, "velocity": 105}, {"time": 2288, "pitch": 80, "duration": 5, "velocity": 105}, {"time": 2294, "pitch": 68, "duration": 5, "velocity": 100}, {"time": 2294, "pitch": 80, "duration": 5, "velocity": 100}, {"time": 2300, "pitch": 66, "duration": 4, "velocity": 105}, {"time": 2300, "pitch": 78, "duration": 4, "velocity": 105}, {"time": 2306, "pitch": 66, "duration": 10, "velocity": 108}, {"time": 2306, "pitch": 78, "duration": 10, "velocity": 108}, {"time": 2318, "pitch": 75, "duration": 10, "velocity": 114}, {"time": 2318, "pitch": 87, "duration": 10, "velocity": 114}, {"time": 2330, "pitch": 73, "duration": 18, "velocity": 108}, {"time": 2330, "pitch": 85, "duration": 18, "velocity": 108}, {"time": 2348, "pitch": 75, "duration": 6, "velocity": 114}, {"time": 2348, "pitch": 87, "duration": 6, "velocity": 114}, {"time": 2354, "pitch": 73, "duration": 24, "velocity": 105}, {"time": 2354, "pitch": 85, "duration": 24, "velocity": 105}, {"time": 2378, "pitch": 68, "duration": 35, "velocity": 114}, {"time": 2378, "pitch": 80, "duration": 35, "velocity": 114}, {"time": 2414, "pitch": 73, "duration": 5, "velocity": 105}, {"time": 2414, "pitch": 85, "duration": 5, "velocity": 105}, {"time": 2420, "pitch": 70, "duration": 6, "velocity": 102}, {"time": 2420, "pitch": 82, "duration": 6, "velocity": 102}, {"time": 2426, "pitch": 68, "duration": 48, "velocity": 108}, {"time": 2426, "pitch": 80, "duration": 48, "velocity": 108}, {"time": 2522, "pitch": 78, "duration": 6, "velocity": 84}, {"time": 2528, "pitch": 73, "duration": 8, "velocity": 71}, {"time": 2534, "pitch": 75, "duration": 6, "velocity": 92}, {"time": 2540, "pitch": 80, "duration": 6, "velocity": 100}, {"time": 2546, "pitch": 78, "duration": 18, "velocity": 97}, {"time": 2570, "pitch": 71, "duration": 43, "velocity": 77}, {"time": 2570, "pitch": 75, "duration": 43, "velocity": 84}, {"time": 2618, "pitch": 73, "duration": 18, "velocity": 82}, {"time": 2618, "pitch": 77, "duration": 18, "velocity": 84}, {"time": 2636, "pitch": 80, "duration": 3, "velocity": 94}, {"time": 2639, "pitch": 82, "duration": 3, "velocity": 73}, {"time": 2642, "pitch": 80, "duration": 22, "velocity": 117}, {"time": 2672, "pitch": 66, "duration": 8, "velocity": 100}, {"time": 2678, "pitch": 71, "duration": 6, "velocity": 105}, {"time": 2684, "pitch": 75, "duration": 7, "velocity": 80}, {"time": 2690, "pitch": 78, "duration": 19, "velocity": 100}, {"time": 2720, "pitch": 70, "duration": 7, "velocity": 51}, {"time": 2726, "pitch": 73, "duration": 7, "velocity": 92}, {"time": 2732, "pitch": 77, "duration": 8, "velocity": 92}, {"time": 2738, "pitch": 82, "duration": 18, "velocity": 84}, {"time": 2762, "pitch": 80, "duration": 31, "velocity": 102}, {"time": 2798, "pitch": 78, "duration": 6, "velocity": 87}, {"time": 2804, "pitch": 75, "duration": 6, "velocity": 105}, {"time": 2810, "pitch": 73, "duration": 24, "velocity": 102}, {"time": 2840, "pitch": 65, "duration": 6, "velocity": 78}, {"time": 2846, "pitch": 68, "duration": 6, "velocity": 117}, {"time": 2852, "pitch": 73, "duration": 5, "velocity": 111}, {"time": 2858, "pitch": 75, "duration": 24, "velocity": 108}, {"time": 2870, "pitch": 78, "duration": 24, "velocity": 111}, {"time": 2894, "pitch": 75, "duration": 10, "velocity": 108}, {"time": 2906, "pitch": 73, "duration": 18, "velocity": 84}, {"time": 2906, "pitch": 77, "duration": 18, "velocity": 82}, {"time": 2924, "pitch": 75, "duration": 6, "velocity": 78}, {"time": 2930, "pitch": 73, "duration": 21, "velocity": 94}, {"time": 2954, "pitch": 75, "duration": 24, "velocity": 105}, {"time": 2978, "pitch": 78, "duration": 11, "velocity": 97}, {"time": 2990, "pitch": 73, "duration": 5, "velocity": 102}, {"time": 2996, "pitch": 70, "duration": 6, "velocity": 100}, {"time": 3002, "pitch": 68, "duration": 22, "velocity": 92}, {"time": 3026, "pitch": 68, "duration": 23, "velocity": 102}, {"time": 3026, "pitch": 73, "duration": 23, "velocity": 100}, {"time": 3050, "pitch": 68, "duration": 22, "velocity": 84}, {"time": 3050, "pitch": 71, "duration": 24, "velocity": 77}, {"time": 3074, "pitch": 68, "duration": 13, "velocity": 80}, {"time": 3086, "pitch": 75, "duration": 11, "velocity": 97}, {"time": 3098, "pitch": 70, "duration": 26, "velocity": 97}, {"time": 3098, "pitch": 73, "duration": 27, "velocity": 92}, {"time": 3128, "pitch": 70, "duration": 9, "velocity": 82}, {"time": 3134, "pitch": 75, "duration": 6, "velocity": 92}, {"time": 3140, "pitch": 73, "duration": 6, "velocity": 92}, {"time": 3146, "pitch": 75, "duration": 45, "velocity": 84}, {"time": 3194, "pitch": 68, "duration": 18, "velocity": 84}, {"time": 3194, "pitch": 73, "duration": 18, "velocity": 87}, {"time": 3212, "pitch": 73, "duration": 5, "velocity": 102}, {"time": 3218, "pitch": 80, "duration": 13, "velocity": 105}, {"time": 3230, "pitch": 85, "duration": 12, "velocity": 102}, {"time": 3242, "pitch": 78, "duration": 30, "velocity": 105}, {"time": 3272, "pitch": 77, "duration": 6, "velocity": 94}, {"time": 3278, "pitch": 75, "duration": 11, "velocity": 89}, {"time": 3290, "pitch": 73, "duration": 35, "velocity": 97}, {"time": 3326, "pitch": 77, "duration": 6, "velocity": 97}, {"time": 3332, "pitch": 73, "duration": 6, "velocity": 97}, {"time": 3338, "pitch": 75, "duration": 34, "velocity": 102}, {"time": 3374, "pitch": 73, "duration": 6, "velocity": 82}, {"time": 3380, "pitch": 70, "duration": 5, "velocity": 97}, {"time": 3386, "pitch": 68, "duration": 19, "velocity": 92}, {"time": 3404, "pitch": 75, "duration": 6, "velocity": 87}, {"time": 3410, "pitch": 77, "duration": 5, "velocity": 87}, {"time": 3416, "pitch": 75, "duration": 6, "velocity": 84}, {"time": 3422, "pitch": 73, "duration": 7, "velocity": 93}, {"time": 3428, "pitch": 70, "duration": 5, "velocity": 93}, {"time": 3434, "pitch": 68, "duration": 18, "velocity": 100}, {"time": 3470, "pitch": 75, "duration": 11, "velocity": 100}, {"time": 3482, "pitch": 73, "duration": 23, "velocity": 100}, {"time": 3506, "pitch": 73, "duration": 10, "velocity": 49}, {"time": 3518, "pitch": 73, "duration": 6, "velocity": 105}, {"time": 3524, "pitch": 70, "duration": 6, "velocity": 97}, {"time": 3530, "pitch": 75, "duration": 32, "velocity": 102}, {"time": 3566, "pitch": 75, "duration": 11, "velocity": 114}, {"time": 3578, "pitch": 73, "duration": 19, "velocity": 111}, {"time": 3596, "pitch": 78, "duration": 6, "velocity": 84}, {"time": 3602, "pitch": 77, "duration": 6, "velocity": 97}, {"time": 3608, "pitch": 75, "duration": 7, "velocity": 76}, {"time": 3614, "pitch": 73, "duration": 12, "velocity": 92}, {"time": 3626, "pitch": 75, "duration": 24, "velocity": 108}, {"time": 3638, "pitch": 78, "duration": 24, "velocity": 111}, {"time": 3662, "pitch": 75, "duration": 10, "velocity": 108}, {"time": 3674, "pitch": 73, "duration": 18, "velocity": 84}, {"time": 3674, "pitch": 77, "duration": 18, "velocity": 82}, {"time": 3692, "pitch": 75, "duration": 6, "velocity": 78}, {"time": 3698, "pitch": 73, "duration": 21, "velocity": 94}, {"time": 3722, "pitch": 75, "duration": 24, "velocity": 105}, {"time": 3746, "pitch": 78, "duration": 11, "velocity": 97}, {"time": 3758, "pitch": 73, "duration": 5, "velocity": 102}, {"time": 3764, "pitch": 70, "duration": 6, "velocity": 100}, {"time": 3770, "pitch": 68, "duration": 22, "velocity": 92}, {"time": 3794, "pitch": 68, "duration": 23, "velocity": 102}, {"time": 3794, "pitch": 73, "duration": 23, "velocity": 100}, {"time": 3818, "pitch": 68, "duration": 22, "velocity": 84}, {"time": 3818, "pitch": 71, "duration": 24, "velocity": 77}, {"time": 3842, "pitch": 68, "duration": 13, "velocity": 80}, {"time": 3854, "pitch": 75, "duration": 11, "velocity": 97}, {"time": 3866, "pitch": 70, "duration": 26, "velocity": 97}, {"time": 3866, "pitch": 73, "duration": 27, "velocity": 92}, {"time": 3896, "pitch": 70, "duration": 9, "velocity": 82}, {"time": 3902, "pitch": 75, "duration": 6, "velocity": 92}, {"time": 3908, "pitch": 73, "duration": 6, "velocity": 92}, {"time": 3914, "pitch": 75, "duration": 45, "velocity": 84}, {"time": 3962, "pitch": 68, "duration": 18, "velocity": 84}, {"time": 3962, "pitch": 73, "duration": 18, "velocity": 87}, {"time": 3980, "pitch": 73, "duration": 5, "velocity": 102}, {"time": 3986, "pitch": 80, "duration": 13, "velocity": 105}, {"time": 3998, "pitch": 85, "duration": 12, "velocity": 102}, {"time": 4010, "pitch": 78, "duration": 30, "velocity": 105}, {"time": 4040, "pitch": 77, "duration": 6, "velocity": 94}, {"time": 4046, "pitch": 75, "duration": 11, "velocity": 89}, {"time": 4058, "pitch": 73, "duration": 35, "velocity": 97}, {"time": 4094, "pitch": 77, "duration": 6, "velocity": 97}, {"time": 4100, "pitch": 73, "duration": 6, "velocity": 97}, {"time": 4106, "pitch": 75, "duration": 34, "velocity": 102}, {"time": 4142, "pitch": 73, "duration": 6, "velocity": 82}, {"time": 4148, "pitch": 70, "duration": 5, "velocity": 97}, {"time": 4154, "pitch": 68, "duration": 19, "velocity": 92}, {"time": 4172, "pitch": 75, "duration": 6, "velocity": 87}, {"time": 4178, "pitch": 77, "duration": 5, "velocity": 87}, {"time": 4184, "pitch": 75, "duration": 6, "velocity": 84}, {"time": 4190, "pitch": 73, "duration": 7, "velocity": 93}, {"time": 4196, "pitch": 70, "duration": 5, "velocity": 93}, {"time": 4202, "pitch": 68, "duration": 18, "velocity": 100}, {"time": 4238, "pitch": 75, "duration": 11, "velocity": 100}, {"time": 4250, "pitch": 73, "duration": 23, "velocity": 100}, {"time": 4274, "pitch": 73, "duration": 10, "velocity": 49}, {"time": 4286, "pitch": 73, "duration": 6, "velocity": 105}, {"time": 4292, "pitch": 70, "duration": 6, "velocity": 97}, {"time": 4298, "pitch": 75, "duration": 32, "velocity": 102}, {"time": 4334, "pitch": 75, "duration": 11, "velocity": 114}, {"time": 4346, "pitch": 73, "duration": 19, "velocity": 111}, {"time": 4364, "pitch": 78, "duration": 6, "velocity": 84}, {"time": 4370, "pitch": 77, "duration": 6, "velocity": 97}, {"time": 4376, "pitch": 75, "duration": 7, "velocity": 76}, {"time": 4382, "pitch": 73, "duration": 12, "velocity": 92}, {"time": 4394, "pitch": 73, "duration": 17, "velocity": 89}, {"time": 4412, "pitch": 70, "duration": 6, "velocity": 82}, {"time": 4418, "pitch": 68, "duration": 12, "velocity": 82}, {"time": 4430, "pitch": 63, "duration": 10, "velocity": 92}, {"time": 4430, "pitch": 78, "duration": 4, "velocity": 114}, {"time": 4436, "pitch": 80, "duration": 5, "velocity": 111}, {"time": 4442, "pitch": 82, "duration": 29, "velocity": 114}, {"time": 4472, "pitch": 85, "duration": 6, "velocity": 117}, {"time": 4478, "pitch": 80, "duration": 6, "velocity": 117}, {"time": 4484, "pitch": 82, "duration": 6, "velocity": 108}, {"time": 4490, "pitch": 78, "duration": 33, "velocity": 117}, {"time": 4526, "pitch": 75, "duration": 5, "velocity": 111}, {"time": 4532, "pitch": 78, "duration": 4, "velocity": 105}, {"time": 4538, "pitch": 80, "duration": 35, "velocity": 111}, {"time": 4574, "pitch": 82, "duration": 10, "velocity": 105}, {"time": 4586, "pitch": 80, "duration": 36, "velocity": 111}, {"time": 4622, "pitch": 66, "duration": 5, "velocity": 105}, {"time": 4622, "pitch": 78, "duration": 5, "velocity": 105}, {"time": 4628, "pitch": 68, "duration": 6, "velocity": 108}, {"time": 4628, "pitch": 80, "duration": 6, "velocity": 108}, {"time": 4634, "pitch": 70, "duration": 6, "velocity": 105}, {"time": 4634, "pitch": 82, "duration": 6, "velocity": 105}, {"time": 4640, "pitch": 68, "duration": 5, "velocity": 105}, {"time": 4640, "pitch": 80, "duration": 5, "velocity": 105}, {"time": 4646, "pitch": 68, "duration": 5, "velocity": 100}, {"time": 4646, "pitch": 80, "duration": 5, "velocity": 100}, {"time": 4652, "pitch": 66, "duration": 4, "velocity": 105}, {"time": 4652, "pitch": 78, "duration": 4, "velocity": 105}, {"time": 4658, "pitch": 66, "duration": 10, "velocity": 108}, {"time": 4658, "pitch": 78, "duration": 10, "velocity": 108}, {"time": 4670, "pitch": 75, "duration": 10, "velocity": 114}, {"time": 4670, "pitch": 87, "duration": 10, "velocity": 114}, {"time": 4682, "pitch": 73, "duration": 18, "velocity": 108}, {"time": 4682, "pitch": 85, "duration": 18, "velocity": 108}, {"time": 4700, "pitch": 75, "duration": 6, "velocity": 114}, {"time": 4700, "pitch": 87, "duration": 6, "velocity": 114}, {"time": 4706, "pitch": 70, "duration": 24, "velocity": 105}, {"time": 4706, "pitch": 82, "duration": 24, "velocity": 105}, {"time": 4730, "pitch": 68, "duration": 35, "velocity": 114}, {"time": 4730, "pitch": 80, "duration": 35, "velocity": 114}, {"time": 4766, "pitch": 66, "duration": 5, "velocity": 105}, {"time": 4766, "pitch": 78, "duration": 5, "velocity": 105}, {"time": 4772, "pitch": 63, "duration": 6, "velocity": 102}, {"time": 4772, "pitch": 75, "duration": 6, "velocity": 102}, {"time": 4778, "pitch": 66, "duration": 48, "velocity": 108}, {"time": 4778, "pitch": 78, "duration": 48, "velocity": 108}]}, {"program": 0, "is_drum": false, "name": "PIANO", "notes": [{"time": 12, "pitch": 54, "duration": 54, "velocity": 82}, {"time": 13, "pitch": 42, "duration": 62, "velocity": 87}, {"time": 14, "pitch": 58, "duration": 51, "velocity": 73}, {"time": 38, "pitch": 66, "duration": 6, "velocity": 108}, {"time": 44, "pitch": 65, "duration": 6, "velocity": 97}, {"time": 50, "pitch": 63, "duration": 6, "velocity": 111}, {"time": 56, "pitch": 61, "duration": 7, "velocity": 108}, {"time": 62, "pitch": 56, "duration": 6, "velocity": 92}, {"time": 68, "pitch": 54, "duration": 6, "velocity": 87}, {"time": 74, "pitch": 42, "duration": 1, "velocity": 100}, {"time": 74, "pitch": 58, "duration": 20, "velocity": 97}, {"time": 80, "pitch": 49, "duration": 8, "velocity": 89}, {"time": 86, "pitch": 58, "duration": 8, "velocity": 100}, {"time": 92, "pitch": 49, "duration": 9, "velocity": 79}, {"time": 98, "pitch": 54, "duration": 13, "velocity": 100}, {"time": 98, "pitch": 61, "duration": 19, "velocity": 98}, {"time": 104, "pitch": 49, "duration": 11, "velocity": 88}, {"time": 110, "pitch": 66, "duration": 18, "velocity": 97}, {"time": 116, "pitch": 54, "duration": 4, "velocity": 97}, {"time": 122, "pitch": 51, "duration": 42, "velocity": 101}, {"time": 128, "pitch": 58, "duration": 8, "velocity": 92}, {"time": 134, "pitch": 63, "duration": 13, "velocity": 98}, {"time": 140, "pitch": 58, "duration": 9, "velocity": 97}, {"time": 146, "pitch": 70, "duration": 10, "velocity": 98}, {"time": 152, "pitch": 63, "duration": 7, "velocity": 96}, {"time": 158, "pitch": 68, "duration": 13, "velocity": 97}, {"time": 170, "pitch": 47, "duration": 40, "velocity": 97}, {"time": 170, "pitch": 66, "duration": 14, "velocity": 97}, {"time": 176, "pitch": 54, "duration": 21, "velocity": 97}, {"time": 182, "pitch": 59, "duration": 6, "velocity": 97}, {"time": 188, "pitch": 63, "duration": 8, "velocity": 97}, {"time": 194, "pitch": 66, "duration": 19, "velocity": 99}, {"time": 200, "pitch": 54, "duration": 10, "velocity": 87}, {"time": 206, "pitch": 59, "duration": 7, "velocity": 99}, {"time": 206, "pitch": 63, "duration": 2, "velocity": 40}, {"time": 212, "pitch": 63, "duration": 2, "velocity": 97}, {"time": 218, "pitch": 49, "duration": 39, "velocity": 100}, {"time": 218, "pitch": 61, "duration": 13, "velocity": 97}, {"time": 224, "pitch": 56, "duration": 20, "velocity": 93}, {"time": 230, "pitch": 65, "duration": 7, "velocity": 103}, {"time": 236, "pitch": 61, "duration": 5, "velocity": 98}, {"time": 242, "pitch": 61, "duration": 9, "velocity": 101}, {"time": 242, "pitch": 68, "duration": 11, "velocity": 98}, {"time": 248, "pitch": 56, "duration": 9, "velocity": 92}, {"time": 254, "pitch": 61, "duration": 4, "velocity": 98}, {"time": 254, "pitch": 66, "duration": 11, "velocity": 98}, {"time": 260, "pitch": 49, "duration": 2, "velocity": 98}, {"time": 266, "pitch": 47, "duration": 42, "velocity": 95}, {"time": 266, "pitch": 59, "duration": 9, "velocity": 91}, {"time": 266, "pitch": 63, "duration": 14, "velocity": 94}, {"time": 272, "pitch": 54, "duration": 21, "velocity": 90}, {"time": 278, "pitch": 59, "duration": 6, "velocity": 102}, {"time": 284, "pitch": 63, "duration": 19, "velocity": 98}, {"time": 290, "pitch": 66, "duration": 19, "velocity": 95}, {"time": 296, "pitch": 54, "duration": 12, "velocity": 82}, {"time": 302, "pitch": 59, "duration": 6, "velocity": 104}, {"time": 308, "pitch": 63, "duration": 2, "velocity": 97}, {"time": 314, "pitch": 46, "duration": 22, "velocity": 97}, {"time": 314, "pitch": 56, "duration": 8, "velocity": 99}, {"time": 314, "pitch": 61, "duration": 13, "velocity": 96}, {"time": 320, "pitch": 53, "duration": 14, "velocity": 89}, {"time": 326, "pitch": 56, "duration": 5, "velocity": 106}, {"time": 332, "pitch": 61, "duration": 5, "velocity": 98}, {"time": 338, "pitch": 51, "duration": 18, "velocity": 98}, {"time": 338, "pitch": 58, "duration": 8, "velocity": 93}, {"time": 338, "pitch": 63, "duration": 9, "velocity": 96}, {"time": 344, "pitch": 54, "duration": 12, "velocity": 82}, {"time": 350, "pitch": 58, "duration": 3, "velocity": 97}, {"time": 350, "pitch": 63, "duration": 8, "velocity": 98}, {"time": 350, "pitch": 66, "duration": 11, "velocity": 98}, {"time": 356, "pitch": 58, "duration": 5, "velocity": 92}, {"time": 362, "pitch": 44, "duration": 41, "velocity": 101}, {"time": 368, "pitch": 59, "duration": 7, "velocity": 104}, {"time": 374, "pitch": 56, "duration": 10, "velocity": 97}, {"time": 380, "pitch": 63, "duration": 7, "velocity": 92}, {"time": 386, "pitch": 68, "duration": 13, "velocity": 98}, {"time": 392, "pitch": 63, "duration": 7, "velocity": 97}, {"time": 398, "pitch": 59, "duration": 7, "velocity": 98}, {"time": 404, "pitch": 56, "duration": 2, "velocity": 101}, {"time": 410, "pitch": 49, "duration": 48, "velocity": 103}, {"time": 410, "pitch": 61, "duration": 8, "velocity": 93}, {"time": 410, "pitch": 65, "duration": 12, "velocity": 99}, {"time": 416, "pitch": 56, "duration": 8, "velocity": 95}, {"time": 422, "pitch": 61, "duration": 10, "velocity": 103}, {"time": 428, "pitch": 65, "duration": 5, "velocity": 99}, {"time": 434, "pitch": 61, "duration": 8, "velocity": 97}, {"time": 434, "pitch": 68, "duration": 14, "velocity": 92}, {"time": 440, "pitch": 56, "duration": 9, "velocity": 89}, {"time": 446, "pitch": 61, "duration": 12, "velocity": 97}, {"time": 452, "pitch": 56, "duration": 6, "velocity": 90}, {"time": 458, "pitch": 42, "duration": 38, "velocity": 97}, {"time": 458, "pitch": 54, "duration": 12, "velocity": 93}, {"time": 458, "pitch": 58, "duration": 10, "velocity": 93}, {"time": 464, "pitch": 49, "duration": 31, "velocity": 97}, {"time": 470, "pitch": 61, "duration": 6, "velocity": 98}, {"time": 476, "pitch": 58, "duration": 7, "velocity": 92}, {"time": 482, "pitch": 66, "duration": 13, "velocity": 98}, {"time": 488, "pitch": 58, "duration": 7, "velocity": 94}, {"time": 494, "pitch": 61, "duration": 6, "velocity": 103}, {"time": 500, "pitch": 58, "duration": 5, "velocity": 98}, {"time": 506, "pitch": 51, "duration": 38, "velocity": 98}, {"time": 506, "pitch": 58, "duration": 4, "velocity": 92}, {"time": 506, "pitch": 63, "duration": 9, "velocity": 97}, {"time": 512, "pitch": 58, "duration": 8, "velocity": 97}, {"time": 518, "pitch": 66, "duration": 6, "velocity": 98}, {"time": 524, "pitch": 58, "duration": 7, "velocity": 93}, {"time": 530, "pitch": 70, "duration": 12, "velocity": 98}, {"time": 536, "pitch": 58, "duration": 6, "velocity": 101}, {"time": 542, "pitch": 66, "duration": 6, "velocity": 100}, {"time": 548, "pitch": 58, "duration": 3, "velocity": 98}, {"time": 554, "pitch": 47, "duration": 45, "velocity": 93}, {"time": 554, "pitch": 59, "duration": 4, "velocity": 80}, {"time": 554, "pitch": 63, "duration": 13, "velocity": 98}, {"time": 560, "pitch": 54, "duration": 16, "velocity": 94}, {"time": 566, "pitch": 59, "duration": 7, "velocity": 99}, {"time": 572, "pitch": 63, "duration": 13, "velocity": 97}, {"time": 578, "pitch": 54, "duration": 22, "velocity": 90}, {"time": 584, "pitch": 59, "duration": 8, "velocity": 97}, {"time": 590, "pitch": 66, "duration": 13, "velocity": 98}, {"time": 596, "pitch": 59, "duration": 7, "velocity": 99}, {"time": 602, "pitch": 49, "duration": 44, "velocity": 102}, {"time": 608, "pitch": 56, "duration": 21, "velocity": 90}, {"time": 614, "pitch": 61, "duration": 7, "velocity": 103}, {"time": 620, "pitch": 63, "duration": 4, "velocity": 103}, {"time": 626, "pitch": 61, "duration": 10, "velocity": 99}, {"time": 626, "pitch": 65, "duration": 8, "velocity": 102}, {"time": 632, "pitch": 56, "duration": 9, "velocity": 91}, {"time": 638, "pitch": 61, "duration": 11, "velocity": 98}, {"time": 638, "pitch": 68, "duration": 11, "velocity": 92}, {"time": 644, "pitch": 56, "duration": 3, "velocity": 89}, {"time": 650, "pitch": 47, "duration": 40, "velocity": 99}, {"time": 650, "pitch": 59, "duration": 7, "velocity": 93}, {"time": 650, "pitch": 63, "duration": 13, "velocity": 95}, {"time": 656, "pitch": 54, "duration": 8, "velocity": 88}, {"time": 662, "pitch": 59, "duration": 17, "velocity": 101}, {"time": 668, "pitch": 54, "duration": 10, "velocity": 92}, {"time": 674, "pitch": 66, "duration": 11, "velocity": 98}, {"time": 680, "pitch": 54, "duration": 11, "velocity": 85}, {"time": 686, "pitch": 59, "duration": 3, "velocity": 99}, {"time": 686, "pitch": 63, "duration": 7, "velocity": 97}, {"time": 692, "pitch": 59, "duration": 6, "velocity": 102}, {"time": 698, "pitch": 46, "duration": 23, "velocity": 97}, {"time": 698, "pitch": 58, "duration": 9, "velocity": 93}, {"time": 698, "pitch": 61, "duration": 11, "velocity": 97}, {"time": 704, "pitch": 53, "duration": 14, "velocity": 92}, {"time": 710, "pitch": 58, "duration": 8, "velocity": 99}, {"time": 716, "pitch": 61, "duration": 7, "velocity": 98}, {"time": 722, "pitch": 51, "duration": 16, "velocity": 99}, {"time": 722, "pitch": 63, "duration": 10, "velocity": 98}, {"time": 728, "pitch": 58, "duration": 5, "velocity": 97}, {"time": 734, "pitch": 58, "duration": 3, "velocity": 94}, {"time": 734, "pitch": 63, "duration": 6, "velocity": 98}, {"time": 734, "pitch": 66, "duration": 11, "velocity": 98}, {"time": 746, "pitch": 44, "duration": 40, "velocity": 98}, {"time": 746, "pitch": 59, "duration": 13, "velocity": 93}, {"time": 752, "pitch": 51, "duration": 33, "velocity": 94}, {"time": 758, "pitch": 63, "duration": 13, "velocity": 97}, {"time": 764, "pitch": 59, "duration": 7, "velocity": 99}, {"time": 770, "pitch": 68, "duration": 22, "velocity": 98}, {"time": 776, "pitch": 63, "duration": 13, "velocity": 97}, {"time": 782, "pitch": 59, "duration": 7, "velocity": 100}, {"time": 788, "pitch": 56, "duration": 2, "velocity": 97}, {"time": 794, "pitch": 49, "duration": 22, "velocity": 100}, {"time": 794, "pitch": 61, "duration": 8, "velocity": 98}, {"time": 794, "pitch": 65, "duration": 11, "velocity": 99}, {"time": 800, "pitch": 56, "duration": 16, "velocity": 91}, {"time": 806, "pitch": 61, "duration": 7, "velocity": 103}, {"time": 812, "pitch": 63, "duration": 6, "velocity": 103}, {"time": 818, "pitch": 49, "duration": 23, "velocity": 100}, {"time": 818, "pitch": 61, "duration": 10, "velocity": 98}, {"time": 818, "pitch": 65, "duration": 6, "velocity": 104}, {"time": 824, "pitch": 56, "duration": 8, "velocity": 93}, {"time": 830, "pitch": 61, "duration": 11, "velocity": 100}, {"time": 830, "pitch": 68, "duration": 11, "velocity": 99}, {"time": 836, "pitch": 56, "duration": 6, "velocity": 98}, {"time": 842, "pitch": 42, "duration": 43, "velocity": 100}, {"time": 842, "pitch": 54, "duration": 4, "velocity": 99}, {"time": 842, "pitch": 58, "duration": 9, "velocity": 99}, {"time": 848, "pitch": 49, "duration": 21, "velocity": 89}, {"time": 854, "pitch": 61, "duration": 14, "velocity": 102}, {"time": 860, "pitch": 58, "duration": 7, "velocity": 99}, {"time": 866, "pitch": 66, "duration": 9, "velocity": 103}, {"time": 872, "pitch": 49, "duration": 9, "velocity": 100}, {"time": 872, "pitch": 54, "duration": 2, "velocity": 95}, {"time": 878, "pitch": 61, "duration": 6, "velocity": 104}, {"time": 878, "pitch": 66, "duration": 15, "velocity": 106}, {"time": 884, "pitch": 49, "duration": 3, "velocity": 102}, {"time": 890, "pitch": 51, "duration": 39, "velocity": 105}, {"time": 896, "pitch": 58, "duration": 8, "velocity": 98}, {"time": 902, "pitch": 63, "duration": 10, "velocity": 100}, {"time": 902, "pitch": 66, "duration": 8, "velocity": 100}, {"time": 908, "pitch": 58, "duration": 9, "velocity": 91}, {"time": 914, "pitch": 63, "duration": 9, "velocity": 100}, {"time": 914, "pitch": 66, "duration": 9, "velocity": 100}, {"time": 914, "pitch": 70, "duration": 9, "velocity": 99}, {"time": 920, "pitch": 58, "duration": 8, "velocity": 92}, {"time": 926, "pitch": 63, "duration": 3, "velocity": 102}, {"time": 926, "pitch": 66, "duration": 6, "velocity": 110}, {"time": 932, "pitch": 63, "duration": 6, "velocity": 103}, {"time": 938, "pitch": 47, "duration": 46, "velocity": 103}, {"time": 938, "pitch": 66, "duration": 13, "velocity": 99}, {"time": 944, "pitch": 54, "duration": 33, "velocity": 94}, {"time": 950, "pitch": 59, "duration": 8, "velocity": 104}, {"time": 956, "pitch": 63, "duration": 5, "velocity": 100}, {"time": 962, "pitch": 59, "duration": 3, "velocity": 94}, {"time": 962, "pitch": 63, "duration": 7, "velocity": 101}, {"time": 962, "pitch": 66, "duration": 13, "velocity": 104}, {"time": 968, "pitch": 59, "duration": 5, "velocity": 102}, {"time": 974, "pitch": 63, "duration": 6, "velocity": 99}, {"time": 980, "pitch": 59, "duration": 5, "velocity": 108}, {"time": 980, "pitch": 63, "duration": 3, "velocity": 64}, {"time": 986, "pitch": 49, "duration": 42, "velocity": 103}, {"time": 986, "pitch": 61, "duration": 8, "velocity": 95}, {"time": 986, "pitch": 65, "duration": 8, "velocity": 101}, {"time": 992, "pitch": 56, "duration": 8, "velocity": 96}, {"time": 998, "pitch": 61, "duration": 8, "velocity": 108}, {"time": 1004, "pitch": 56, "duration": 18, "velocity": 88}, {"time": 1004, "pitch": 63, "duration": 5, "velocity": 106}, {"time": 1010, "pitch": 61, "duration": 3, "velocity": 102}, {"time": 1010, "pitch": 65, "duration": 6, "velocity": 108}, {"time": 1016, "pitch": 61, "duration": 5, "velocity": 102}, {"time": 1022, "pitch": 61, "duration": 4, "velocity": 102}, {"time": 1022, "pitch": 68, "duration": 7, "velocity": 105}, {"time": 1028, "pitch": 61, "duration": 6, "velocity": 104}, {"time": 1034, "pitch": 47, "duration": 38, "velocity": 106}, {"time": 1040, "pitch": 54, "duration": 9, "velocity": 102}, {"time": 1046, "pitch": 59, "duration": 9, "velocity": 105}, {"time": 1046, "pitch": 63, "duration": 11, "velocity": 100}, {"time": 1052, "pitch": 54, "duration": 10, "velocity": 91}, {"time": 1058, "pitch": 59, "duration": 3, "velocity": 92}, {"time": 1058, "pitch": 63, "duration": 8, "velocity": 99}, {"time": 1058, "pitch": 66, "duration": 7, "velocity": 99}, {"time": 1064, "pitch": 59, "duration": 5, "velocity": 99}, {"time": 1070, "pitch": 59, "duration": 6, "velocity": 99}, {"time": 1070, "pitch": 63, "duration": 10, "velocity": 101}, {"time": 1070, "pitch": 66, "duration": 8, "velocity": 101}, {"time": 1076, "pitch": 54, "duration": 5, "velocity": 93}, {"time": 1082, "pitch": 46, "duration": 22, "velocity": 102}, {"time": 1082, "pitch": 58, "duration": 7, "velocity": 96}, {"time": 1082, "pitch": 61, "duration": 8, "velocity": 99}, {"time": 1088, "pitch": 53, "duration": 14, "velocity": 99}, {"time": 1094, "pitch": 58, "duration": 3, "velocity": 105}, {"time": 1094, "pitch": 65, "duration": 5, "velocity": 106}, {"time": 1100, "pitch": 58, "duration": 5, "velocity": 100}, {"time": 1106, "pitch": 51, "duration": 18, "velocity": 94}, {"time": 1106, "pitch": 66, "duration": 8, "velocity": 101}, {"time": 1112, "pitch": 58, "duration": 6, "velocity": 100}, {"time": 1118, "pitch": 65, "duration": 6, "velocity": 105}, {"time": 1124, "pitch": 63, "duration": 2, "velocity": 100}, {"time": 1130, "pitch": 44, "duration": 39, "velocity": 100}, {"time": 1130, "pitch": 56, "duration": 10, "velocity": 95}, {"time": 1130, "pitch": 61, "duration": 1, "velocity": 93}, {"time": 1130, "pitch": 63, "duration": 9, "velocity": 93}, {"time": 1136, "pitch": 51, "duration": 9, "velocity": 99}, {"time": 1142, "pitch": 56, "duration": 5, "velocity": 99}, {"time": 1142, "pitch": 59, "duration": 7, "velocity": 104}, {"time": 1148, "pitch": 51, "duration": 9, "velocity": 91}, {"time": 1154, "pitch": 56, "duration": 9, "velocity": 100}, {"time": 1154, "pitch": 63, "duration": 8, "velocity": 99}, {"time": 1160, "pitch": 51, "duration": 9, "velocity": 93}, {"time": 1166, "pitch": 56, "duration": 4, "velocity": 101}, {"time": 1166, "pitch": 59, "duration": 5, "velocity": 106}, {"time": 1166, "pitch": 63, "duration": 6, "velocity": 102}, {"time": 1172, "pitch": 44, "duration": 5, "velocity": 99}, {"time": 1178, "pitch": 49, "duration": 21, "velocity": 105}, {"time": 1178, "pitch": 56, "duration": 3, "velocity": 93}, {"time": 1178, "pitch": 61, "duration": 7, "velocity": 97}, {"time": 1184, "pitch": 56, "duration": 5, "velocity": 104}, {"time": 1190, "pitch": 63, "duration": 6, "velocity": 106}, {"time": 1196, "pitch": 61, "duration": 3, "velocity": 100}, {"time": 1202, "pitch": 49, "duration": 25, "velocity": 110}, {"time": 1202, "pitch": 56, "duration": 3, "velocity": 100}, {"time": 1202, "pitch": 65, "duration": 10, "velocity": 102}, {"time": 1208, "pitch": 56, "duration": 4, "velocity": 99}, {"time": 1214, "pitch": 56, "duration": 3, "velocity": 104}, {"time": 1214, "pitch": 61, "duration": 7, "velocity": 108}, {"time": 1220, "pitch": 56, "duration": 5, "velocity": 108}, {"time": 1226, "pitch": 51, "duration": 22, "velocity": 100}, {"time": 1226, "pitch": 63, "duration": 7, "velocity": 97}, {"time": 1226, "pitch": 66, "duration": 7, "velocity": 102}, {"time": 1232, "pitch": 58, "duration": 16, "velocity": 95}, {"time": 1238, "pitch": 63, "duration": 3, "velocity": 98}, {"time": 1238, "pitch": 70, "duration": 3, "velocity": 98}, {"time": 1244, "pitch": 66, "duration": 3, "velocity": 100}, {"time": 1247, "pitch": 63, "duration": 2, "velocity": 96}, {"time": 1250, "pitch": 51, "duration": 15, "velocity": 98}, {"time": 1250, "pitch": 63, "duration": 7, "velocity": 96}, {"time": 1250, "pitch": 75, "duration": 6, "velocity": 100}, {"time": 1256, "pitch": 58, "duration": 8, "velocity": 91}, {"time": 1262, "pitch": 63, "duration": 3, "velocity": 97}, {"time": 1262, "pitch": 66, "duration": 7, "velocity": 101}, {"time": 1262, "pitch": 70, "duration": 6, "velocity": 96}, {"time": 1268, "pitch": 63, "duration": 2, "velocity": 95}, {"time": 1274, "pitch": 46, "duration": 21, "velocity": 95}, {"time": 1274, "pitch": 58, "duration": 8, "velocity": 85}, {"time": 1274, "pitch": 61, "duration": 9, "velocity": 83}, {"time": 1280, "pitch": 53, "duration": 8, "velocity": 98}, {"time": 1286, "pitch": 58, "duration": 6, "velocity": 101}, {"time": 1286, "pitch": 65, "duration": 6, "velocity": 104}, {"time": 1292, "pitch": 53, "duration": 4, "velocity": 92}, {"time": 1292, "pitch": 65, "duration": 2, "velocity": 88}, {"time": 1295, "pitch": 66, "duration": 4, "velocity": 84}, {"time": 1298, "pitch": 46, "duration": 15, "velocity": 97}, {"time": 1298, "pitch": 65, "duration": 6, "velocity": 102}, {"time": 1304, "pitch": 53, "duration": 8, "velocity": 97}, {"time": 1310, "pitch": 58, "duration": 3, "velocity": 98}, {"time": 1310, "pitch": 61, "duration": 4, "velocity": 101}, {"time": 1316, "pitch": 46, "duration": 4, "velocity": 96}, {"time": 1316, "pitch": 58, "duration": 5, "velocity": 102}, {"time": 1316, "pitch": 61, "duration": 1, "velocity": 64}, {"time": 1322, "pitch": 47, "duration": 14, "velocity": 97}, {"time": 1322, "pitch": 59, "duration": 8, "velocity": 90}, {"time": 1322, "pitch": 63, "duration": 9, "velocity": 95}, {"time": 1328, "pitch": 54, "duration": 8, "velocity": 96}, {"time": 1334, "pitch": 59, "duration": 6, "velocity": 106}, {"time": 1334, "pitch": 63, "duration": 10, "velocity": 100}, {"time": 1334, "pitch": 66, "duration": 10, "velocity": 98}, {"time": 1340, "pitch": 47, "duration": 5, "velocity": 95}, {"time": 1346, "pitch": 47, "duration": 15, "velocity": 95}, {"time": 1346, "pitch": 54, "duration": 15, "velocity": 91}, {"time": 1346, "pitch": 59, "duration": 4, "velocity": 97}, {"time": 1346, "pitch": 63, "duration": 8, "velocity": 96}, {"time": 1346, "pitch": 66, "duration": 7, "velocity": 96}, {"time": 1352, "pitch": 59, "duration": 4, "velocity": 94}, {"time": 1358, "pitch": 59, "duration": 3, "velocity": 100}, {"time": 1358, "pitch": 63, "duration": 4, "velocity": 100}, {"time": 1358, "pitch": 66, "duration": 4, "velocity": 97}, {"time": 1364, "pitch": 47, "duration": 2, "velocity": 102}, {"time": 1370, "pitch": 49, "duration": 21, "velocity": 96}, {"time": 1370, "pitch": 61, "duration": 9, "velocity": 94}, {"time": 1370, "pitch": 65, "duration": 7, "velocity": 95}, {"time": 1376, "pitch": 56, "duration": 16, "velocity": 96}, {"time": 1382, "pitch": 61, "duration": 3, "velocity": 102}, {"time": 1382, "pitch": 65, "duration": 3, "velocity": 111}, {"time": 1388, "pitch": 63, "duration": 3, "velocity": 104}, {"time": 1391, "pitch": 65, "duration": 4, "velocity": 104}, {"time": 1394, "pitch": 49, "duration": 15, "velocity": 102}, {"time": 1394, "pitch": 63, "duration": 7, "velocity": 109}, {"time": 1400, "pitch": 56, "duration": 8, "velocity": 86}, {"time": 1400, "pitch": 61, "duration": 4, "velocity": 95}, {"time": 1406, "pitch": 61, "duration": 7, "velocity": 106}, {"time": 1406, "pitch": 65, "duration": 10, "velocity": 104}, {"time": 1412, "pitch": 49, "duration": 2, "velocity": 98}, {"time": 1415, "pitch": 61, "duration": 4, "velocity": 99}, {"time": 1418, "pitch": 44, "duration": 19, "velocity": 97}, {"time": 1424, "pitch": 51, "duration": 8, "velocity": 95}, {"time": 1430, "pitch": 56, "duration": 5, "velocity": 92}, {"time": 1430, "pitch": 59, "duration": 6, "velocity": 97}, {"time": 1430, "pitch": 63, "duration": 11, "velocity": 97}, {"time": 1436, "pitch": 51, "duration": 6, "velocity": 97}, {"time": 1442, "pitch": 44, "duration": 16, "velocity": 97}, {"time": 1442, "pitch": 56, "duration": 10, "velocity": 91}, {"time": 1442, "pitch": 63, "duration": 4, "velocity": 92}, {"time": 1442, "pitch": 68, "duration": 9, "velocity": 96}, {"time": 1448, "pitch": 51, "duration": 8, "velocity": 94}, {"time": 1454, "pitch": 56, "duration": 1, "velocity": 93}, {"time": 1454, "pitch": 59, "duration": 6, "velocity": 101}, {"time": 1454, "pitch": 63, "duration": 10, "velocity": 101}, {"time": 1460, "pitch": 56, "duration": 2, "velocity": 98}, {"time": 1466, "pitch": 46, "duration": 22, "velocity": 95}, {"time": 1466, "pitch": 58, "duration": 14, "velocity": 90}, {"time": 1466, "pitch": 61, "duration": 10, "velocity": 94}, {"time": 1472, "pitch": 53, "duration": 17, "velocity": 95}, {"time": 1478, "pitch": 61, "duration": 7, "velocity": 98}, {"time": 1478, "pitch": 65, "duration": 7, "velocity": 101}, {"time": 1484, "pitch": 58, "duration": 5, "velocity": 100}, {"time": 1490, "pitch": 46, "duration": 14, "velocity": 96}, {"time": 1490, "pitch": 58, "duration": 10, "velocity": 96}, {"time": 1490, "pitch": 61, "duration": 8, "velocity": 95}, {"time": 1496, "pitch": 53, "duration": 8, "velocity": 93}, {"time": 1502, "pitch": 58, "duration": 2, "velocity": 92}, {"time": 1502, "pitch": 61, "duration": 7, "velocity": 100}, {"time": 1502, "pitch": 65, "duration": 7, "velocity": 97}, {"time": 1508, "pitch": 58, "duration": 5, "velocity": 104}, {"time": 1514, "pitch": 47, "duration": 22, "velocity": 104}, {"time": 1514, "pitch": 59, "duration": 9, "velocity": 95}, {"time": 1514, "pitch": 63, "duration": 10, "velocity": 95}, {"time": 1520, "pitch": 54, "duration": 10, "velocity": 89}, {"time": 1526, "pitch": 59, "duration": 3, "velocity": 99}, {"time": 1526, "pitch": 63, "duration": 7, "velocity": 97}, {"time": 1526, "pitch": 66, "duration": 7, "velocity": 95}, {"time": 1532, "pitch": 59, "duration": 5, "velocity": 101}, {"time": 1538, "pitch": 47, "duration": 18, "velocity": 97}, {"time": 1538, "pitch": 59, "duration": 10, "velocity": 95}, {"time": 1538, "pitch": 63, "duration": 10, "velocity": 96}, {"time": 1544, "pitch": 54, "duration": 12, "velocity": 95}, {"time": 1550, "pitch": 59, "duration": 2, "velocity": 75}, {"time": 1550, "pitch": 63, "duration": 2, "velocity": 92}, {"time": 1550, "pitch": 66, "duration": 7, "velocity": 98}, {"time": 1556, "pitch": 63, "duration": 6, "velocity": 99}, {"time": 1562, "pitch": 49, "duration": 21, "velocity": 98}, {"time": 1562, "pitch": 61, "duration": 7, "velocity": 95}, {"time": 1568, "pitch": 56, "duration": 9, "velocity": 99}, {"time": 1571, "pitch": 61, "duration": 2, "velocity": 109}, {"time": 1574, "pitch": 63, "duration": 3, "velocity": 97}, {"time": 1577, "pitch": 61, "duration": 4, "velocity": 101}, {"time": 1580, "pitch": 56, "duration": 4, "velocity": 97}, {"time": 1583, "pitch": 61, "duration": 2, "velocity": 98}, {"time": 1586, "pitch": 49, "duration": 15, "velocity": 101}, {"time": 1586, "pitch": 61, "duration": 4, "velocity": 106}, {"time": 1586, "pitch": 65, "duration": 4, "velocity": 112}, {"time": 1589, "pitch": 56, "duration": 8, "velocity": 101}, {"time": 1592, "pitch": 61, "duration": 2, "velocity": 109}, {"time": 1595, "pitch": 61, "duration": 1, "velocity": 92}, {"time": 1595, "pitch": 68, "duration": 2, "velocity": 97}, {"time": 1598, "pitch": 56, "duration": 2, "velocity": 101}, {"time": 1598, "pitch": 61, "duration": 5, "velocity": 121}, {"time": 1598, "pitch": 68, "duration": 5, "velocity": 104}, {"time": 1601, "pitch": 49, "duration": 1, "velocity": 91}, {"time": 1601, "pitch": 56, "duration": 1, "velocity": 92}, {"time": 1604, "pitch": 49, "duration": 2, "velocity": 97}, {"time": 1604, "pitch": 61, "duration": 5, "velocity": 112}, {"time": 1610, "pitch": 51, "duration": 22, "velocity": 100}, {"time": 1610, "pitch": 63, "duration": 7, "velocity": 97}, {"time": 1610, "pitch": 66, "duration": 7, "velocity": 102}, {"time": 1616, "pitch": 58, "duration": 16, "velocity": 95}, {"time": 1622, "pitch": 63, "duration": 3, "velocity": 98}, {"time": 1622, "pitch": 70, "duration": 3, "velocity": 98}, {"time": 1628, "pitch": 66, "duration": 3, "velocity": 100}, {"time": 1631, "pitch": 63, "duration": 2, "velocity": 96}, {"time": 1634, "pitch": 51, "duration": 15, "velocity": 98}, {"time": 1634, "pitch": 63, "duration": 7, "velocity": 96}, {"time": 1634, "pitch": 75, "duration": 6, "velocity": 100}, {"time": 1640, "pitch": 58, "duration": 8, "velocity": 91}, {"time": 1646, "pitch": 63, "duration": 3, "velocity": 97}, {"time": 1646, "pitch": 66, "duration": 7, "velocity": 101}, {"time": 1646, "pitch": 70, "duration": 6, "velocity": 96}, {"time": 1652, "pitch": 63, "duration": 2, "velocity": 95}, {"time": 1658, "pitch": 46, "duration": 21, "velocity": 95}, {"time": 1658, "pitch": 58, "duration": 8, "velocity": 85}, {"time": 1658, "pitch": 61, "duration": 9, "velocity": 83}, {"time": 1664, "pitch": 53, "duration": 8, "velocity": 98}, {"time": 1670, "pitch": 58, "duration": 6, "velocity": 101}, {"time": 1670, "pitch": 65, "duration": 6, "velocity": 104}, {"time": 1676, "pitch": 53, "duration": 4, "velocity": 92}, {"time": 1676, "pitch": 65, "duration": 2, "velocity": 88}, {"time": 1679, "pitch": 66, "duration": 4, "velocity": 84}, {"time": 1682, "pitch": 46, "duration": 15, "velocity": 97}, {"time": 1682, "pitch": 65, "duration": 6, "velocity": 102}, {"time": 1688, "pitch": 53, "duration": 8, "velocity": 97}, {"time": 1694, "pitch": 58, "duration": 3, "velocity": 98}, {"time": 1694, "pitch": 61, "duration": 4, "velocity": 101}, {"time": 1700, "pitch": 46, "duration": 4, "velocity": 96}, {"time": 1700, "pitch": 58, "duration": 5, "velocity": 102}, {"time": 1700, "pitch": 61, "duration": 1, "velocity": 64}, {"time": 1706, "pitch": 47, "duration": 14, "velocity": 97}, {"time": 1706, "pitch": 59, "duration": 8, "velocity": 90}, {"time": 1706, "pitch": 63, "duration": 9, "velocity": 95}, {"time": 1712, "pitch": 54, "duration": 8, "velocity": 96}, {"time": 1718, "pitch": 59, "duration": 6, "velocity": 106}, {"time": 1718, "pitch": 63, "duration": 10, "velocity": 100}, {"time": 1718, "pitch": 66, "duration": 10, "velocity": 98}, {"time": 1724, "pitch": 47, "duration": 5, "velocity": 95}, {"time": 1730, "pitch": 47, "duration": 15, "velocity": 95}, {"time": 1730, "pitch": 54, "duration": 15, "velocity": 91}, {"time": 1730, "pitch": 59, "duration": 4, "velocity": 97}, {"time": 1730, "pitch": 63, "duration": 8, "velocity": 96}, {"time": 1730, "pitch": 66, "duration": 7, "velocity": 96}, {"time": 1736, "pitch": 59, "duration": 4, "velocity": 94}, {"time": 1742, "pitch": 59, "duration": 3, "velocity": 100}, {"time": 1742, "pitch": 63, "duration": 4, "velocity": 100}, {"time": 1742, "pitch": 66, "duration": 4, "velocity": 97}, {"time": 1748, "pitch": 47, "duration": 2, "velocity": 102}, {"time": 1754, "pitch": 49, "duration": 21, "velocity": 96}, {"time": 1754, "pitch": 61, "duration": 9, "velocity": 94}, {"time": 1754, "pitch": 65, "duration": 7, "velocity": 95}, {"time": 1760, "pitch": 56, "duration": 16, "velocity": 96}, {"time": 1766, "pitch": 61, "duration": 3, "velocity": 102}, {"time": 1766, "pitch": 65, "duration": 3, "velocity": 111}, {"time": 1772, "pitch": 63, "duration": 3, "velocity": 104}, {"time": 1775, "pitch": 65, "duration": 4, "velocity": 104}, {"time": 1778, "pitch": 49, "duration": 15, "velocity": 102}, {"time": 1778, "pitch": 63, "duration": 7, "velocity": 109}, {"time": 1784, "pitch": 56, "duration": 8, "velocity": 86}, {"time": 1784, "pitch": 61, "duration": 4, "velocity": 95}, {"time": 1790, "pitch": 61, "duration": 7, "velocity": 106}, {"time": 1790, "pitch": 65, "duration": 10, "velocity": 104}, {"time": 1796, "pitch": 49, "duration": 2, "velocity": 98}, {"time": 1799, "pitch": 61, "duration": 4, "velocity": 99}, {"time": 1802, "pitch": 44, "duration": 19, "velocity": 97}, {"time": 1808, "pitch": 51, "duration": 8, "velocity": 95}, {"time": 1814, "pitch": 56, "duration": 5, "velocity": 92}, {"time": 1814, "pitch": 59, "duration": 6, "velocity": 97}, {"time": 1814, "pitch": 63, "duration": 11, "velocity": 97}, {"time": 1820, "pitch": 51, "duration": 6, "velocity": 97}, {"time": 1826, "pitch": 44, "duration": 16, "velocity": 97}, {"time": 1826, "pitch": 56, "duration": 10, "velocity": 91}, {"time": 1826, "pitch": 63, "duration": 4, "velocity": 92}, {"time": 1826, "pitch": 68, "duration": 9, "velocity": 96}, {"time": 1832, "pitch": 51, "duration": 8, "velocity": 94}, {"time": 1838, "pitch": 56, "duration": 1, "velocity": 93}, {"time": 1838, "pitch": 59, "duration": 6, "velocity": 101}, {"time": 1838, "pitch": 63, "duration": 10, "velocity": 101}, {"time": 1844, "pitch": 56, "duration": 2, "velocity": 98}, {"time": 1850, "pitch": 46, "duration": 22, "velocity": 95}, {"time": 1850, "pitch": 58, "duration": 14, "velocity": 90}, {"time": 1850, "pitch": 61, "duration": 10, "velocity": 94}, {"time": 1856, "pitch": 53, "duration": 17, "velocity": 95}, {"time": 1862, "pitch": 61, "duration": 7, "velocity": 98}, {"time": 1862, "pitch": 65, "duration": 7, "velocity": 101}, {"time": 1868, "pitch": 58, "duration": 5, "velocity": 100}, {"time": 1874, "pitch": 46, "duration": 14, "velocity": 96}, {"time": 1874, "pitch": 58, "duration": 10, "velocity": 96}, {"time": 1874, "pitch": 61, "duration": 8, "velocity": 95}, {"time": 1880, "pitch": 53, "duration": 8, "velocity": 93}, {"time": 1886, "pitch": 58, "duration": 2, "velocity": 92}, {"time": 1886, "pitch": 61, "duration": 7, "velocity": 100}, {"time": 1886, "pitch": 65, "duration": 7, "velocity": 97}, {"time": 1892, "pitch": 58, "duration": 5, "velocity": 104}, {"time": 1898, "pitch": 47, "duration": 22, "velocity": 104}, {"time": 1898, "pitch": 59, "duration": 9, "velocity": 95}, {"time": 1898, "pitch": 63, "duration": 10, "velocity": 95}, {"time": 1904, "pitch": 54, "duration": 10, "velocity": 89}, {"time": 1910, "pitch": 59, "duration": 3, "velocity": 99}, {"time": 1910, "pitch": 63, "duration": 7, "velocity": 97}, {"time": 1910, "pitch": 66, "duration": 7, "velocity": 95}, {"time": 1916, "pitch": 59, "duration": 5, "velocity": 101}, {"time": 1922, "pitch": 47, "duration": 18, "velocity": 97}, {"time": 1922, "pitch": 59, "duration": 10, "velocity": 95}, {"time": 1922, "pitch": 63, "duration": 10, "velocity": 96}, {"time": 1928, "pitch": 54, "duration": 12, "velocity": 95}, {"time": 1934, "pitch": 59, "duration": 2, "velocity": 75}, {"time": 1934, "pitch": 63, "duration": 2, "velocity": 92}, {"time": 1934, "pitch": 66, "duration": 7, "velocity": 98}, {"time": 1940, "pitch": 63, "duration": 6, "velocity": 99}, {"time": 1946, "pitch": 49, "duration": 21, "velocity": 98}, {"time": 1946, "pitch": 61, "duration": 7, "velocity": 95}, {"time": 1952, "pitch": 56, "duration": 9, "velocity": 99}, {"time": 1955, "pitch": 61, "duration": 2, "velocity": 109}, {"time": 1958, "pitch": 63, "duration": 3, "velocity": 97}, {"time": 1961, "pitch": 61, "duration": 4, "velocity": 101}, {"time": 1964, "pitch": 56, "duration": 4, "velocity": 97}, {"time": 1967, "pitch": 61, "duration": 2, "velocity": 98}, {"time": 1970, "pitch": 49, "duration": 26, "velocity": 100}, {"time": 1970, "pitch": 61, "duration": 8, "velocity": 94}, {"time": 1970, "pitch": 65, "duration": 9, "velocity": 100}, {"time": 1976, "pitch": 56, "duration": 8, "velocity": 92}, {"time": 1982, "pitch": 61, "duration": 13, "velocity": 98}, {"time": 1982, "pitch": 68, "duration": 13, "velocity": 98}, {"time": 1988, "pitch": 56, "duration": 8, "velocity": 90}, {"time": 1994, "pitch": 58, "duration": 18, "velocity": 77}, {"time": 1995, "pitch": 61, "duration": 1, "velocity": 98}, {"time": 1995, "pitch": 46, "duration": 20, "velocity": 102}, {"time": 1996, "pitch": 65, "duration": 21, "velocity": 97}, {"time": 2016, "pitch": 56, "duration": 21, "velocity": 91}, {"time": 2017, "pitch": 59, "duration": 14, "velocity": 89}, {"time": 2018, "pitch": 44, "duration": 22, "velocity": 99}, {"time": 2018, "pitch": 63, "duration": 24, "velocity": 98}, {"time": 2041, "pitch": 54, "duration": 27, "velocity": 91}, {"time": 2042, "pitch": 58, "duration": 13, "velocity": 95}, {"time": 2042, "pitch": 42, "duration": 48, "velocity": 99}, {"time": 2048, "pitch": 49, "duration": 42, "velocity": 96}, {"time": 2054, "pitch": 61, "duration": 22, "velocity": 98}, {"time": 2060, "pitch": 58, "duration": 13, "velocity": 94}, {"time": 2066, "pitch": 66, "duration": 24, "velocity": 94}, {"time": 2072, "pitch": 54, "duration": 9, "velocity": 93}, {"time": 2078, "pitch": 58, "duration": 11, "velocity": 100}, {"time": 2078, "pitch": 61, "duration": 12, "velocity": 99}, {"time": 2084, "pitch": 54, "duration": 6, "velocity": 97}, {"time": 2090, "pitch": 42, "duration": 42, "velocity": 100}, {"time": 2096, "pitch": 49, "duration": 8, "velocity": 89}, {"time": 2102, "pitch": 58, "duration": 8, "velocity": 100}, {"time": 2108, "pitch": 49, "duration": 9, "velocity": 79}, {"time": 2114, "pitch": 54, "duration": 13, "velocity": 100}, {"time": 2114, "pitch": 61, "duration": 19, "velocity": 98}, {"time": 2120, "pitch": 49, "duration": 11, "velocity": 88}, {"time": 2126, "pitch": 66, "duration": 18, "velocity": 97}, {"time": 2132, "pitch": 54, "duration": 4, "velocity": 97}, {"time": 2138, "pitch": 51, "duration": 42, "velocity": 101}, {"time": 2144, "pitch": 58, "duration": 8, "velocity": 92}, {"time": 2150, "pitch": 63, "duration": 13, "velocity": 98}, {"time": 2156, "pitch": 58, "duration": 9, "velocity": 97}, {"time": 2162, "pitch": 70, "duration": 10, "velocity": 98}, {"time": 2168, "pitch": 63, "duration": 7, "velocity": 96}, {"time": 2174, "pitch": 68, "duration": 13, "velocity": 97}, {"time": 2186, "pitch": 47, "duration": 40, "velocity": 97}, {"time": 2186, "pitch": 66, "duration": 14, "velocity": 97}, {"time": 2192, "pitch": 54, "duration": 21, "velocity": 97}, {"time": 2198, "pitch": 59, "duration": 6, "velocity": 97}, {"time": 2204, "pitch": 63, "duration": 8, "velocity": 97}, {"time": 2210, "pitch": 66, "duration": 19, "velocity": 99}, {"time": 2216, "pitch": 54, "duration": 10, "velocity": 87}, {"time": 2222, "pitch": 59, "duration": 7, "velocity": 99}, {"time": 2222, "pitch": 63, "duration": 2, "velocity": 40}, {"time": 2228, "pitch": 63, "duration": 2, "velocity": 97}, {"time": 2234, "pitch": 49, "duration": 39, "velocity": 100}, {"time": 2234, "pitch": 61, "duration": 13, "velocity": 97}, {"time": 2240, "pitch": 56, "duration": 20, "velocity": 93}, {"time": 2246, "pitch": 65, "duration": 7, "velocity": 103}, {"time": 2252, "pitch": 61, "duration": 5, "velocity": 98}, {"time": 2258, "pitch": 61, "duration": 9, "velocity": 101}, {"time": 2258, "pitch": 68, "duration": 11, "velocity": 98}, {"time": 2264, "pitch": 56, "duration": 9, "velocity": 92}, {"time": 2270, "pitch": 61, "duration": 4, "velocity": 98}, {"time": 2270, "pitch": 66, "duration": 11, "velocity": 98}, {"time": 2276, "pitch": 49, "duration": 2, "velocity": 98}, {"time": 2282, "pitch": 47, "duration": 42, "velocity": 95}, {"time": 2282, "pitch": 59, "duration": 9, "velocity": 91}, {"time": 2282, "pitch": 63, "duration": 14, "velocity": 94}, {"time": 2288, "pitch": 54, "duration": 21, "velocity": 90}, {"time": 2294, "pitch": 59, "duration": 6, "velocity": 102}, {"time": 2300, "pitch": 63, "duration": 19, "velocity": 98}, {"time": 2306, "pitch": 66, "duration": 19, "velocity": 95}, {"time": 2312, "pitch": 54, "duration": 12, "velocity": 82}, {"time": 2318, "pitch": 59, "duration": 6, "velocity": 104}, {"time": 2324, "pitch": 63, "duration": 2, "velocity": 97}, {"time": 2330, "pitch": 46, "duration": 22, "velocity": 97}, {"time": 2330, "pitch": 56, "duration": 8, "velocity": 99}, {"time": 2330, "pitch": 61, "duration": 13, "velocity": 96}, {"time": 2336, "pitch": 53, "duration": 14, "velocity": 89}, {"time": 2342, "pitch": 56, "duration": 5, "velocity": 106}, {"time": 2348, "pitch": 61, "duration": 5, "velocity": 98}, {"time": 2354, "pitch": 51, "duration": 18, "velocity": 98}, {"time": 2354, "pitch": 58, "duration": 8, "velocity": 93}, {"time": 2354, "pitch": 63, "duration": 9, "velocity": 96}, {"time": 2360, "pitch": 54, "duration": 12, "velocity": 82}, {"time": 2366, "pitch": 58, "duration": 3, "velocity": 97}, {"time": 2366, "pitch": 63, "duration": 8, "velocity": 98}, {"time": 2366, "pitch": 66, "duration": 11, "velocity": 98}, {"time": 2372, "pitch": 58, "duration": 5, "velocity": 92}, {"time": 2378, "pitch": 44, "duration": 41, "velocity": 101}, {"time": 2384, "pitch": 59, "duration": 7, "velocity": 104}, {"time": 2390, "pitch": 56, "duration": 10, "velocity": 97}, {"time": 2396, "pitch": 63, "duration": 7, "velocity": 92}, {"time": 2402, "pitch": 68, "duration": 13, "velocity": 98}, {"time": 2408, "pitch": 63, "duration": 7, "velocity": 97}, {"time": 2414, "pitch": 59, "duration": 7, "velocity": 98}, {"time": 2420, "pitch": 56, "duration": 2, "velocity": 101}, {"time": 2426, "pitch": 49, "duration": 48, "velocity": 103}, {"time": 2426, "pitch": 61, "duration": 8, "velocity": 93}, {"time": 2426, "pitch": 65, "duration": 12, "velocity": 99}, {"time": 2432, "pitch": 56, "duration": 8, "velocity": 95}, {"time": 2438, "pitch": 61, "duration": 10, "velocity": 103}, {"time": 2444, "pitch": 65, "duration": 5, "velocity": 99}, {"time": 2450, "pitch": 61, "duration": 8, "velocity": 97}, {"time": 2450, "pitch": 68, "duration": 14, "velocity": 92}, {"time": 2456, "pitch": 56, "duration": 9, "velocity": 89}, {"time": 2462, "pitch": 61, "duration": 12, "velocity": 97}, {"time": 2468, "pitch": 56, "duration": 6, "velocity": 90}, {"time": 2474, "pitch": 42, "duration": 43, "velocity": 100}, {"time": 2474, "pitch": 54, "duration": 4, "velocity": 99}, {"time": 2474, "pitch": 58, "duration": 9, "velocity": 99}, {"time": 2480, "pitch": 49, "duration": 21, "velocity": 89}, {"time": 2486, "pitch": 61, "duration": 14, "velocity": 102}, {"time": 2492, "pitch": 58, "duration": 7, "velocity": 99}, {"time": 2498, "pitch": 66, "duration": 9, "velocity": 103}, {"time": 2504, "pitch": 49, "duration": 9, "velocity": 100}, {"time": 2504, "pitch": 54, "duration": 2, "velocity": 95}, {"time": 2510, "pitch": 61, "duration": 6, "velocity": 104}, {"time": 2510, "pitch": 66, "duration": 15, "velocity": 106}, {"time": 2516, "pitch": 49, "duration": 3, "velocity": 102}, {"time": 2522, "pitch": 51, "duration": 39, "velocity": 105}, {"time": 2528, "pitch": 58, "duration": 8, "velocity": 98}, {"time": 2534, "pitch": 63, "duration": 10, "velocity": 100}, {"time": 2534, "pitch": 66, "duration": 8, "velocity": 100}, {"time": 2540, "pitch": 58, "duration": 9, "velocity": 91}, {"time": 2546, "pitch": 63, "duration": 9, "velocity": 100}, {"time": 2546, "pitch": 66, "duration": 9, "velocity": 100}, {"time": 2546, "pitch": 70, "duration": 9, "velocity": 99}, {"time": 2552, "pitch": 58, "duration": 8, "velocity": 92}, {"time": 2558, "pitch": 63, "duration": 3, "velocity": 102}, {"time": 2558, "pitch": 66, "duration": 6, "velocity": 110}, {"time": 2564, "pitch": 63, "duration": 6, "velocity": 103}, {"time": 2570, "pitch": 47, "duration": 46, "velocity": 103}, {"time": 2570, "pitch": 66, "duration": 13, "velocity": 99}, {"time": 2576, "pitch": 54, "duration": 33, "velocity": 94}, {"time": 2582, "pitch": 59, "duration": 8, "velocity": 104}, {"time": 2588, "pitch": 63, "duration": 5, "velocity": 100}, {"time": 2594, "pitch": 59, "duration": 3, "velocity": 94}, {"time": 2594, "pitch": 63, "duration": 7, "velocity": 101}, {"time": 2594, "pitch": 66, "duration": 13, "velocity": 104}, {"time": 2600, "pitch": 59, "duration": 5, "velocity": 102}, {"time": 2606, "pitch": 63, "duration": 6, "velocity": 99}, {"time": 2612, "pitch": 59, "duration": 5, "velocity": 108}, {"time": 2612, "pitch": 63, "duration": 3, "velocity": 64}, {"time": 2618, "pitch": 49, "duration": 42, "velocity": 103}, {"time": 2618, "pitch": 61, "duration": 8, "velocity": 95}, {"time": 2618, "pitch": 65, "duration": 8, "velocity": 101}, {"time": 2624, "pitch": 56, "duration": 8, "velocity": 96}, {"time": 2630, "pitch": 61, "duration": 8, "velocity": 108}, {"time": 2636, "pitch": 56, "duration": 18, "velocity": 88}, {"time": 2636, "pitch": 63, "duration": 5, "velocity": 106}, {"time": 2642, "pitch": 61, "duration": 3, "velocity": 102}, {"time": 2642, "pitch": 65, "duration": 6, "velocity": 108}, {"time": 2648, "pitch": 61, "duration": 5, "velocity": 102}, {"time": 2654, "pitch": 61, "duration": 4, "velocity": 102}, {"time": 2654, "pitch": 68, "duration": 7, "velocity": 105}, {"time": 2660, "pitch": 61, "duration": 6, "velocity": 104}, {"time": 2666, "pitch": 47, "duration": 38, "velocity": 106}, {"time": 2672, "pitch": 54, "duration": 9, "velocity": 102}, {"time": 2678, "pitch": 59, "duration": 9, "velocity": 105}, {"time": 2678, "pitch": 63, "duration": 11, "velocity": 100}, {"time": 2684, "pitch": 54, "duration": 10, "velocity": 91}, {"time": 2690, "pitch": 59, "duration": 3, "velocity": 92}, {"time": 2690, "pitch": 63, "duration": 8, "velocity": 99}, {"time": 2690, "pitch": 66, "duration": 7, "velocity": 99}, {"time": 2696, "pitch": 59, "duration": 5, "velocity": 99}, {"time": 2702, "pitch": 59, "duration": 6, "velocity": 99}, {"time": 2702, "pitch": 63, "duration": 10, "velocity": 101}, {"time": 2702, "pitch": 66, "duration": 8, "velocity": 101}, {"time": 2708, "pitch": 54, "duration": 5, "velocity": 93}, {"time": 2714, "pitch": 46, "duration": 22, "velocity": 102}, {"time": 2714, "pitch": 58, "duration": 7, "velocity": 96}, {"time": 2714, "pitch": 61, "duration": 8, "velocity": 99}, {"time": 2720, "pitch": 53, "duration": 14, "velocity": 99}, {"time": 2726, "pitch": 58, "duration": 3, "velocity": 105}, {"time": 2726, "pitch": 65, "duration": 5, "velocity": 106}, {"time": 2732, "pitch": 58, "duration": 5, "velocity": 100}, {"time": 2738, "pitch": 51, "duration": 18, "velocity": 94}, {"time": 2738, "pitch": 66, "duration": 8, "velocity": 101}, {"time": 2744, "pitch": 58, "duration": 6, "velocity": 100}, {"time": 2750, "pitch": 65, "duration": 6, "velocity": 105}, {"time": 2756, "pitch": 63, "duration": 2, "velocity": 100}, {"time": 2762, "pitch": 44, "duration": 39, "velocity": 100}, {"time": 2762, "pitch": 56, "duration": 10, "velocity": 95}, {"time": 2762, "pitch": 61, "duration": 1, "velocity": 93}, {"time": 2762, "pitch": 63, "duration": 9, "velocity": 93}, {"time": 2768, "pitch": 51, "duration": 9, "velocity": 99}, {"time": 2774, "pitch": 56, "duration": 5, "velocity": 99}, {"time": 2774, "pitch": 59, "duration": 7, "velocity": 104}, {"time": 2780, "pitch": 51, "duration": 9, "velocity": 91}, {"time": 2786, "pitch": 56, "duration": 9, "velocity": 100}, {"time": 2786, "pitch": 63, "duration": 8, "velocity": 99}, {"time": 2792, "pitch": 51, "duration": 9, "velocity": 93}, {"time": 2798, "pitch": 56, "duration": 4, "velocity": 101}, {"time": 2798, "pitch": 59, "duration": 5, "velocity": 106}, {"time": 2798, "pitch": 63, "duration": 6, "velocity": 102}, {"time": 2804, "pitch": 44, "duration": 5, "velocity": 99}, {"time": 2810, "pitch": 49, "duration": 21, "velocity": 105}, {"time": 2810, "pitch": 56, "duration": 3, "velocity": 93}, {"time": 2810, "pitch": 61, "duration": 7, "velocity": 97}, {"time": 2816, "pitch": 56, "duration": 5, "velocity": 104}, {"time": 2822, "pitch": 63, "duration": 6, "velocity": 106}, {"time": 2828, "pitch": 61, "duration": 3, "velocity": 100}, {"time": 2834, "pitch": 49, "duration": 25, "velocity": 110}, {"time": 2834, "pitch": 56, "duration": 3, "velocity": 100}, {"time": 2834, "pitch": 65, "duration": 10, "velocity": 102}, {"time": 2840, "pitch": 56, "duration": 4, "velocity": 99}, {"time": 2846, "pitch": 56, "duration": 3, "velocity": 104}, {"time": 2846, "pitch": 61, "duration": 7, "velocity": 108}, {"time": 2852, "pitch": 56, "duration": 5, "velocity": 108}, {"time": 2858, "pitch": 51, "duration": 22, "velocity": 100}, {"time": 2858, "pitch": 63, "duration": 7, "velocity": 97}, {"time": 2858, "pitch": 66, "duration": 7, "velocity": 102}, {"time": 2864, "pitch": 58, "duration": 16, "velocity": 95}, {"time": 2870, "pitch": 63, "duration": 3, "velocity": 98}, {"time": 2870, "pitch": 70, "duration": 3, "velocity": 98}, {"time": 2876, "pitch": 66, "duration": 3, "velocity": 100}, {"time": 2879, "pitch": 63, "duration": 2, "velocity": 96}, {"time": 2882, "pitch": 51, "duration": 15, "velocity": 98}, {"time": 2882, "pitch": 63, "duration": 7, "velocity": 96}, {"time": 2882, "pitch": 75, "duration": 6, "velocity": 100}, {"time": 2888, "pitch": 58, "duration": 8, "velocity": 91}, {"time": 2894, "pitch": 63, "duration": 3, "velocity": 97}, {"time": 2894, "pitch": 66, "duration": 7, "velocity": 101}, {"time": 2894, "pitch": 70, "duration": 6, "velocity": 96}, {"time": 2900, "pitch": 63, "duration": 2, "velocity": 95}, {"time": 2906, "pitch": 46, "duration": 21, "velocity": 95}, {"time": 2906, "pitch": 58, "duration": 8, "velocity": 85}, {"time": 2906, "pitch": 61, "duration": 9, "velocity": 83}, {"time": 2912, "pitch": 53, "duration": 8, "velocity": 98}, {"time": 2918, "pitch": 58, "duration": 6, "velocity": 101}, {"time": 2918, "pitch": 65, "duration": 6, "velocity": 104}, {"time": 2924, "pitch": 53, "duration": 4, "velocity": 92}, {"time": 2924, "pitch": 65, "duration": 2, "velocity": 88}, {"time": 2927, "pitch": 66, "duration": 4, "velocity": 84}, {"time": 2930, "pitch": 46, "duration": 15, "velocity": 97}, {"time": 2930, "pitch": 65, "duration": 6, "velocity": 102}, {"time": 2936, "pitch": 53, "duration": 8, "velocity": 97}, {"time": 2942, "pitch": 58, "duration": 3, "velocity": 98}, {"time": 2942, "pitch": 61, "duration": 4, "velocity": 101}, {"time": 2948, "pitch": 46, "duration": 4, "velocity": 96}, {"time": 2948, "pitch": 58, "duration": 5, "velocity": 102}, {"time": 2948, "pitch": 61, "duration": 1, "velocity": 64}, {"time": 2954, "pitch": 47, "duration": 14, "velocity": 97}, {"time": 2954, "pitch": 59, "duration": 8, "velocity": 90}, {"time": 2954, "pitch": 63, "duration": 9, "velocity": 95}, {"time": 2960, "pitch": 54, "duration": 8, "velocity": 96}, {"time": 2966, "pitch": 59, "duration": 6, "velocity": 106}, {"time": 2966, "pitch": 63, "duration": 10, "velocity": 100}, {"time": 2966, "pitch": 66, "duration": 10, "velocity": 98}, {"time": 2972, "pitch": 47, "duration": 5, "velocity": 95}, {"time": 2978, "pitch": 47, "duration": 15, "velocity": 95}, {"time": 2978, "pitch": 54, "duration": 15, "velocity": 91}, {"time": 2978, "pitch": 59, "duration": 4, "velocity": 97}, {"time": 2978, "pitch": 63, "duration": 8, "velocity": 96}, {"time": 2978, "pitch": 66, "duration": 7, "velocity": 96}, {"time": 2984, "pitch": 59, "duration": 4, "velocity": 94}, {"time": 2990, "pitch": 59, "duration": 3, "velocity": 100}, {"time": 2990, "pitch": 63, "duration": 4, "velocity": 100}, {"time": 2990, "pitch": 66, "duration": 4, "velocity": 97}, {"time": 2996, "pitch": 47, "duration": 2, "velocity": 102}, {"time": 3002, "pitch": 49, "duration": 21, "velocity": 96}, {"time": 3002, "pitch": 61, "duration": 9, "velocity": 94}, {"time": 3002, "pitch": 65, "duration": 7, "velocity": 95}, {"time": 3008, "pitch": 56, "duration": 16, "velocity": 96}, {"time": 3014, "pitch": 61, "duration": 3, "velocity": 102}, {"time": 3014, "pitch": 65, "duration": 3, "velocity": 111}, {"time": 3020, "pitch": 63, "duration": 3, "velocity": 104}, {"time": 3023, "pitch": 65, "duration": 4, "velocity": 104}, {"time": 3026, "pitch": 49, "duration": 15, "velocity": 102}, {"time": 3026, "pitch": 63, "duration": 7, "velocity": 109}, {"time": 3032, "pitch": 56, "duration": 8, "velocity": 86}, {"time": 3032, "pitch": 61, "duration": 4, "velocity": 95}, {"time": 3038, "pitch": 61, "duration": 7, "velocity": 106}, {"time": 3038, "pitch": 65, "duration": 10, "velocity": 104}, {"time": 3044, "pitch": 49, "duration": 2, "velocity": 98}, {"time": 3047, "pitch": 61, "duration": 4, "velocity": 99}, {"time": 3050, "pitch": 44, "duration": 19, "velocity": 97}, {"time": 3056, "pitch": 51, "duration": 8, "velocity": 95}, {"time": 3062, "pitch": 56, "duration": 5, "velocity": 92}, {"time": 3062, "pitch": 59, "duration": 6, "velocity": 97}, {"time": 3062, "pitch": 63, "duration": 11, "velocity": 97}, {"time": 3068, "pitch": 51, "duration": 6, "velocity": 97}, {"time": 3074, "pitch": 44, "duration": 16, "velocity": 97}, {"time": 3074, "pitch": 56, "duration": 10, "velocity": 91}, {"time": 3074, "pitch": 63, "duration": 4, "velocity": 92}, {"time": 3074, "pitch": 68, "duration": 9, "velocity": 96}, {"time": 3080, "pitch": 51, "duration": 8, "velocity": 94}, {"time": 3086, "pitch": 56, "duration": 1, "velocity": 93}, {"time": 3086, "pitch": 59, "duration": 6, "velocity": 101}, {"time": 3086, "pitch": 63, "duration": 10, "velocity": 101}, {"time": 3092, "pitch": 56, "duration": 2, "velocity": 98}, {"time": 3098, "pitch": 46, "duration": 22, "velocity": 95}, {"time": 3098, "pitch": 58, "duration": 14, "velocity": 90}, {"time": 3098, "pitch": 61, "duration": 10, "velocity": 94}, {"time": 3104, "pitch": 53, "duration": 17, "velocity": 95}, {"time": 3110, "pitch": 61, "duration": 7, "velocity": 98}, {"time": 3110, "pitch": 65, "duration": 7, "velocity": 101}, {"time": 3116, "pitch": 58, "duration": 5, "velocity": 100}, {"time": 3122, "pitch": 46, "duration": 14, "velocity": 96}, {"time": 3122, "pitch": 58, "duration": 10, "velocity": 96}, {"time": 3122, "pitch": 61, "duration": 8, "velocity": 95}, {"time": 3128, "pitch": 53, "duration": 8, "velocity": 93}, {"time": 3134, "pitch": 58, "duration": 2, "velocity": 92}, {"time": 3134, "pitch": 61, "duration": 7, "velocity": 100}, {"time": 3134, "pitch": 65, "duration": 7, "velocity": 97}, {"time": 3140, "pitch": 58, "duration": 5, "velocity": 104}, {"time": 3146, "pitch": 47, "duration": 22, "velocity": 104}, {"time": 3146, "pitch": 59, "duration": 9, "velocity": 95}, {"time": 3146, "pitch": 63, "duration": 10, "velocity": 95}, {"time": 3152, "pitch": 54, "duration": 10, "velocity": 89}, {"time": 3158, "pitch": 59, "duration": 3, "velocity": 99}, {"time": 3158, "pitch": 63, "duration": 7, "velocity": 97}, {"time": 3158, "pitch": 66, "duration": 7, "velocity": 95}, {"time": 3164, "pitch": 59, "duration": 5, "velocity": 101}, {"time": 3170, "pitch": 47, "duration": 18, "velocity": 97}, {"time": 3170, "pitch": 59, "duration": 10, "velocity": 95}, {"time": 3170, "pitch": 63, "duration": 10, "velocity": 96}, {"time": 3176, "pitch": 54, "duration": 12, "velocity": 95}, {"time": 3182, "pitch": 59, "duration": 2, "velocity": 75}, {"time": 3182, "pitch": 63, "duration": 2, "velocity": 92}, {"time": 3182, "pitch": 66, "duration": 7, "velocity": 98}, {"time": 3188, "pitch": 63, "duration": 6, "velocity": 99}, {"time": 3194, "pitch": 49, "duration": 21, "velocity": 98}, {"time": 3194, "pitch": 61, "duration": 7, "velocity": 95}, {"time": 3200, "pitch": 56, "duration": 9, "velocity": 99}, {"time": 3203, "pitch": 61, "duration": 2, "velocity": 109}, {"time": 3206, "pitch": 63, "duration": 3, "velocity": 97}, {"time": 3209, "pitch": 61, "duration": 4, "velocity": 101}, {"time": 3212, "pitch": 56, "duration": 4, "velocity": 97}, {"time": 3215, "pitch": 61, "duration": 2, "velocity": 98}, {"time": 3218, "pitch": 49, "duration": 15, "velocity": 101}, {"time": 3218, "pitch": 61, "duration": 4, "velocity": 106}, {"time": 3218, "pitch": 65, "duration": 4, "velocity": 112}, {"time": 3221, "pitch": 56, "duration": 8, "velocity": 101}, {"time": 3224, "pitch": 61, "duration": 2, "velocity": 109}, {"time": 3227, "pitch": 61, "duration": 1, "velocity": 92}, {"time": 3227, "pitch": 68, "duration": 2, "velocity": 97}, {"time": 3230, "pitch": 56, "duration": 2, "velocity": 101}, {"time": 3230, "pitch": 61, "duration": 5, "velocity": 121}, {"time": 3230, "pitch": 68, "duration": 5, "velocity": 104}, {"time": 3233, "pitch": 49, "duration": 1, "velocity": 91}, {"time": 3233, "pitch": 56, "duration": 1, "velocity": 92}, {"time": 3236, "pitch": 49, "duration": 2, "velocity": 97}, {"time": 3236, "pitch": 61, "duration": 5, "velocity": 112}, {"time": 3242, "pitch": 51, "duration": 22, "velocity": 100}, {"time": 3242, "pitch": 63, "duration": 7, "velocity": 97}, {"time": 3242, "pitch": 66, "duration": 7, "velocity": 102}, {"time": 3248, "pitch": 58, "duration": 16, "velocity": 95}, {"time": 3254, "pitch": 63, "duration": 3, "velocity": 98}, {"time": 3254, "pitch": 70, "duration": 3, "velocity": 98}, {"time": 3260, "pitch": 66, "duration": 3, "velocity": 100}, {"time": 3263, "pitch": 63, "duration": 2, "velocity": 96}, {"time": 3266, "pitch": 51, "duration": 15, "velocity": 98}, {"time": 3266, "pitch": 63, "duration": 7, "velocity": 96}, {"time": 3266, "pitch": 75, "duration": 6, "velocity": 100}, {"time": 3272, "pitch": 58, "duration": 8, "velocity": 91}, {"time": 3278, "pitch": 63, "duration": 3, "velocity": 97}, {"time": 3278, "pitch": 66, "duration": 7, "velocity": 101}, {"time": 3278, "pitch": 70, "duration": 6, "velocity": 96}, {"time": 3284, "pitch": 63, "duration": 2, "velocity": 95}, {"time": 3290, "pitch": 46, "duration": 21, "velocity": 95}, {"time": 3290, "pitch": 58, "duration": 8, "velocity": 85}, {"time": 3290, "pitch": 61, "duration": 9, "velocity": 83}, {"time": 3296, "pitch": 53, "duration": 8, "velocity": 98}, {"time": 3302, "pitch": 58, "duration": 6, "velocity": 101}, {"time": 3302, "pitch": 65, "duration": 6, "velocity": 104}, {"time": 3308, "pitch": 53, "duration": 4, "velocity": 92}, {"time": 3308, "pitch": 65, "duration": 2, "velocity": 88}, {"time": 3311, "pitch": 66, "duration": 4, "velocity": 84}, {"time": 3314, "pitch": 46, "duration": 15, "velocity": 97}, {"time": 3314, "pitch": 65, "duration": 6, "velocity": 102}, {"time": 3320, "pitch": 53, "duration": 8, "velocity": 97}, {"time": 3326, "pitch": 58, "duration": 3, "velocity": 98}, {"time": 3326, "pitch": 61, "duration": 4, "velocity": 101}, {"time": 3332, "pitch": 46, "duration": 4, "velocity": 96}, {"time": 3332, "pitch": 58, "duration": 5, "velocity": 102}, {"time": 3332, "pitch": 61, "duration": 1, "velocity": 64}, {"time": 3338, "pitch": 47, "duration": 14, "velocity": 97}, {"time": 3338, "pitch": 59, "duration": 8, "velocity": 90}, {"time": 3338, "pitch": 63, "duration": 9, "velocity": 95}, {"time": 3344, "pitch": 54, "duration": 8, "velocity": 96}, {"time": 3350, "pitch": 59, "duration": 6, "velocity": 106}, {"time": 3350, "pitch": 63, "duration": 10, "velocity": 100}, {"time": 3350, "pitch": 66, "duration": 10, "velocity": 98}, {"time": 3356, "pitch": 47, "duration": 5, "velocity": 95}, {"time": 3362, "pitch": 47, "duration": 15, "velocity": 95}, {"time": 3362, "pitch": 54, "duration": 15, "velocity": 91}, {"time": 3362, "pitch": 59, "duration": 4, "velocity": 97}, {"time": 3362, "pitch": 63, "duration": 8, "velocity": 96}, {"time": 3362, "pitch": 66, "duration": 7, "velocity": 96}, {"time": 3368, "pitch": 59, "duration": 4, "velocity": 94}, {"time": 3374, "pitch": 59, "duration": 3, "velocity": 100}, {"time": 3374, "pitch": 63, "duration": 4, "velocity": 100}, {"time": 3374, "pitch": 66, "duration": 4, "velocity": 97}, {"time": 3380, "pitch": 47, "duration": 2, "velocity": 102}, {"time": 3386, "pitch": 49, "duration": 21, "velocity": 96}, {"time": 3386, "pitch": 61, "duration": 9, "velocity": 94}, {"time": 3386, "pitch": 65, "duration": 7, "velocity": 95}, {"time": 3392, "pitch": 56, "duration": 16, "velocity": 96}, {"time": 3398, "pitch": 61, "duration": 3, "velocity": 102}, {"time": 3398, "pitch": 65, "duration": 3, "velocity": 111}, {"time": 3404, "pitch": 63, "duration": 3, "velocity": 104}, {"time": 3407, "pitch": 65, "duration": 4, "velocity": 104}, {"time": 3410, "pitch": 49, "duration": 15, "velocity": 102}, {"time": 3410, "pitch": 63, "duration": 7, "velocity": 109}, {"time": 3416, "pitch": 56, "duration": 8, "velocity": 86}, {"time": 3416, "pitch": 61, "duration": 4, "velocity": 95}, {"time": 3422, "pitch": 61, "duration": 7, "velocity": 106}, {"time": 3422, "pitch": 65, "duration": 10, "velocity": 104}, {"time": 3428, "pitch": 49, "duration": 2, "velocity": 98}, {"time": 3431, "pitch": 61, "duration": 4, "velocity": 99}, {"time": 3434, "pitch": 44, "duration": 19, "velocity": 97}, {"time": 3440, "pitch": 51, "duration": 8, "velocity": 95}, {"time": 3446, "pitch": 56, "duration": 5, "velocity": 92}, {"time": 3446, "pitch": 59, "duration": 6, "velocity": 97}, {"time": 3446, "pitch": 63, "duration": 11, "velocity": 97}, {"time": 3452, "pitch": 51, "duration": 6, "velocity": 97}, {"time": 3458, "pitch": 44, "duration": 16, "velocity": 97}, {"time": 3458, "pitch": 56, "duration": 10, "velocity": 91}, {"time": 3458, "pitch": 63, "duration": 4, "velocity": 92}, {"time": 3458, "pitch": 68, "duration": 9, "velocity": 96}, {"time": 3464, "pitch": 51, "duration": 8, "velocity": 94}, {"time": 3470, "pitch": 56, "duration": 1, "velocity": 93}, {"time": 3470, "pitch": 59, "duration": 6, "velocity": 101}, {"time": 3470, "pitch": 63, "duration": 10, "velocity": 101}, {"time": 3476, "pitch": 56, "duration": 2, "velocity": 98}, {"time": 3482, "pitch": 46, "duration": 22, "velocity": 95}, {"time": 3482, "pitch": 58, "duration": 14, "velocity": 90}, {"time": 3482, "pitch": 61, "duration": 10, "velocity": 94}, {"time": 3488, "pitch": 53, "duration": 17, "velocity": 95}, {"time": 3494, "pitch": 61, "duration": 7, "velocity": 98}, {"time": 3494, "pitch": 65, "duration": 7, "velocity": 101}, {"time": 3500, "pitch": 58, "duration": 5, "velocity": 100}, {"time": 3506, "pitch": 46, "duration": 14, "velocity": 96}, {"time": 3506, "pitch": 58, "duration": 10, "velocity": 96}, {"time": 3506, "pitch": 61, "duration": 8, "velocity": 95}, {"time": 3512, "pitch": 53, "duration": 8, "velocity": 93}, {"time": 3518, "pitch": 58, "duration": 2, "velocity": 92}, {"time": 3518, "pitch": 61, "duration": 7, "velocity": 100}, {"time": 3518, "pitch": 65, "duration": 7, "velocity": 97}, {"time": 3524, "pitch": 58, "duration": 5, "velocity": 104}, {"time": 3530, "pitch": 47, "duration": 22, "velocity": 104}, {"time": 3530, "pitch": 59, "duration": 9, "velocity": 95}, {"time": 3530, "pitch": 63, "duration": 10, "velocity": 95}, {"time": 3536, "pitch": 54, "duration": 10, "velocity": 89}, {"time": 3542, "pitch": 59, "duration": 3, "velocity": 99}, {"time": 3542, "pitch": 63, "duration": 7, "velocity": 97}, {"time": 3542, "pitch": 66, "duration": 7, "velocity": 95}, {"time": 3548, "pitch": 59, "duration": 5, "velocity": 101}, {"time": 3554, "pitch": 47, "duration": 18, "velocity": 97}, {"time": 3554, "pitch": 59, "duration": 10, "velocity": 95}, {"time": 3554, "pitch": 63, "duration": 10, "velocity": 96}, {"time": 3560, "pitch": 54, "duration": 12, "velocity": 95}, {"time": 3566, "pitch": 59, "duration": 2, "velocity": 75}, {"time": 3566, "pitch": 63, "duration": 2, "velocity": 92}, {"time": 3566, "pitch": 66, "duration": 7, "velocity": 98}, {"time": 3572, "pitch": 63, "duration": 6, "velocity": 99}, {"time": 3578, "pitch": 49, "duration": 21, "velocity": 98}, {"time": 3578, "pitch": 61, "duration": 7, "velocity": 95}, {"time": 3584, "pitch": 56, "duration": 9, "velocity": 99}, {"time": 3587, "pitch": 61, "duration": 2, "velocity": 109}, {"time": 3590, "pitch": 63, "duration": 3, "velocity": 97}, {"time": 3593, "pitch": 61, "duration": 4, "velocity": 101}, {"time": 3596, "pitch": 56, "duration": 4, "velocity": 97}, {"time": 3599, "pitch": 61, "duration": 2, "velocity": 98}, {"time": 3602, "pitch": 49, "duration": 26, "velocity": 100}, {"time": 3602, "pitch": 61, "duration": 8, "velocity": 94}, {"time": 3602, "pitch": 65, "duration": 9, "velocity": 100}, {"time": 3608, "pitch": 56, "duration": 8, "velocity": 92}, {"time": 3614, "pitch": 61, "duration": 13, "velocity": 98}, {"time": 3614, "pitch": 68, "duration": 13, "velocity": 98}, {"time": 3620, "pitch": 56, "duration": 8, "velocity": 90}, {"time": 3626, "pitch": 51, "duration": 22, "velocity": 100}, {"time": 3626, "pitch": 63, "duration": 7, "velocity": 97}, {"time": 3626, "pitch": 66, "duration": 7, "velocity": 102}, {"time": 3632, "pitch": 58, "duration": 16, "velocity": 95}, {"time": 3638, "pitch": 63, "duration": 3, "velocity": 98}, {"time": 3638, "pitch": 70, "duration": 3, "velocity": 98}, {"time": 3644, "pitch": 66, "duration": 3, "velocity": 100}, {"time": 3647, "pitch": 63, "duration": 2, "velocity": 96}, {"time": 3650, "pitch": 51, "duration": 15, "velocity": 98}, {"time": 3650, "pitch": 63, "duration": 7, "velocity": 96}, {"time": 3650, "pitch": 75, "duration": 6, "velocity": 100}, {"time": 3656, "pitch": 58, "duration": 8, "velocity": 91}, {"time": 3662, "pitch": 63, "duration": 3, "velocity": 97}, {"time": 3662, "pitch": 66, "duration": 7, "velocity": 101}, {"time": 3662, "pitch": 70, "duration": 6, "velocity": 96}, {"time": 3668, "pitch": 63, "duration": 2, "velocity": 95}, {"time": 3674, "pitch": 46, "duration": 21, "velocity": 95}, {"time": 3674, "pitch": 58, "duration": 8, "velocity": 85}, {"time": 3674, "pitch": 61, "duration": 9, "velocity": 83}, {"time": 3680, "pitch": 53, "duration": 8, "velocity": 98}, {"time": 3686, "pitch": 58, "duration": 6, "velocity": 101}, {"time": 3686, "pitch": 65, "duration": 6, "velocity": 104}, {"time": 3692, "pitch": 53, "duration": 4, "velocity": 92}, {"time": 3692, "pitch": 65, "duration": 2, "velocity": 88}, {"time": 3695, "pitch": 66, "duration": 4, "velocity": 84}, {"time": 3698, "pitch": 46, "duration": 15, "velocity": 97}, {"time": 3698, "pitch": 65, "duration": 6, "velocity": 102}, {"time": 3704, "pitch": 53, "duration": 8, "velocity": 97}, {"time": 3710, "pitch": 58, "duration": 3, "velocity": 98}, {"time": 3710, "pitch": 61, "duration": 4, "velocity": 101}, {"time": 3716, "pitch": 46, "duration": 4, "velocity": 96}, {"time": 3716, "pitch": 58, "duration": 5, "velocity": 102}, {"time": 3716, "pitch": 61, "duration": 1, "velocity": 64}, {"time": 3722, "pitch": 47, "duration": 14, "velocity": 97}, {"time": 3722, "pitch": 59, "duration": 8, "velocity": 90}, {"time": 3722, "pitch": 63, "duration": 9, "velocity": 95}, {"time": 3728, "pitch": 54, "duration": 8, "velocity": 96}, {"time": 3734, "pitch": 59, "duration": 6, "velocity": 106}, {"time": 3734, "pitch": 63, "duration": 10, "velocity": 100}, {"time": 3734, "pitch": 66, "duration": 10, "velocity": 98}, {"time": 3740, "pitch": 47, "duration": 5, "velocity": 95}, {"time": 3746, "pitch": 47, "duration": 15, "velocity": 95}, {"time": 3746, "pitch": 54, "duration": 15, "velocity": 91}, {"time": 3746, "pitch": 59, "duration": 4, "velocity": 97}, {"time": 3746, "pitch": 63, "duration": 8, "velocity": 96}, {"time": 3746, "pitch": 66, "duration": 7, "velocity": 96}, {"time": 3752, "pitch": 59, "duration": 4, "velocity": 94}, {"time": 3758, "pitch": 59, "duration": 3, "velocity": 100}, {"time": 3758, "pitch": 63, "duration": 4, "velocity": 100}, {"time": 3758, "pitch": 66, "duration": 4, "velocity": 97}, {"time": 3764, "pitch": 47, "duration": 2, "velocity": 102}, {"time": 3770, "pitch": 49, "duration": 21, "velocity": 96}, {"time": 3770, "pitch": 61, "duration": 9, "velocity": 94}, {"time": 3770, "pitch": 65, "duration": 7, "velocity": 95}, {"time": 3776, "pitch": 56, "duration": 16, "velocity": 96}, {"time": 3782, "pitch": 61, "duration": 3, "velocity": 102}, {"time": 3782, "pitch": 65, "duration": 3, "velocity": 111}, {"time": 3788, "pitch": 63, "duration": 3, "velocity": 104}, {"time": 3791, "pitch": 65, "duration": 4, "velocity": 104}, {"time": 3794, "pitch": 49, "duration": 15, "velocity": 102}, {"time": 3794, "pitch": 63, "duration": 7, "velocity": 109}, {"time": 3800, "pitch": 56, "duration": 8, "velocity": 86}, {"time": 3800, "pitch": 61, "duration": 4, "velocity": 95}, {"time": 3806, "pitch": 61, "duration": 7, "velocity": 106}, {"time": 3806, "pitch": 65, "duration": 10, "velocity": 104}, {"time": 3812, "pitch": 49, "duration": 2, "velocity": 98}, {"time": 3815, "pitch": 61, "duration": 4, "velocity": 99}, {"time": 3818, "pitch": 44, "duration": 19, "velocity": 97}, {"time": 3824, "pitch": 51, "duration": 8, "velocity": 95}, {"time": 3830, "pitch": 56, "duration": 5, "velocity": 92}, {"time": 3830, "pitch": 59, "duration": 6, "velocity": 97}, {"time": 3830, "pitch": 63, "duration": 11, "velocity": 97}, {"time": 3836, "pitch": 51, "duration": 6, "velocity": 97}, {"time": 3842, "pitch": 44, "duration": 16, "velocity": 97}, {"time": 3842, "pitch": 56, "duration": 10, "velocity": 91}, {"time": 3842, "pitch": 63, "duration": 4, "velocity": 92}, {"time": 3842, "pitch": 68, "duration": 9, "velocity": 96}, {"time": 3848, "pitch": 51, "duration": 8, "velocity": 94}, {"time": 3854, "pitch": 56, "duration": 1, "velocity": 93}, {"time": 3854, "pitch": 59, "duration": 6, "velocity": 101}, {"time": 3854, "pitch": 63, "duration": 10, "velocity": 101}, {"time": 3860, "pitch": 56, "duration": 2, "velocity": 98}, {"time": 3866, "pitch": 46, "duration": 22, "velocity": 95}, {"time": 3866, "pitch": 58, "duration": 14, "velocity": 90}, {"time": 3866, "pitch": 61, "duration": 10, "velocity": 94}, {"time": 3872, "pitch": 53, "duration": 17, "velocity": 95}, {"time": 3878, "pitch": 61, "duration": 7, "velocity": 98}, {"time": 3878, "pitch": 65, "duration": 7, "velocity": 101}, {"time": 3884, "pitch": 58, "duration": 5, "velocity": 100}, {"time": 3890, "pitch": 46, "duration": 14, "velocity": 96}, {"time": 3890, "pitch": 58, "duration": 10, "velocity": 96}, {"time": 3890, "pitch": 61, "duration": 8, "velocity": 95}, {"time": 3896, "pitch": 53, "duration": 8, "velocity": 93}, {"time": 3902, "pitch": 58, "duration": 2, "velocity": 92}, {"time": 3902, "pitch": 61, "duration": 7, "velocity": 100}, {"time": 3902, "pitch": 65, "duration": 7, "velocity": 97}, {"time": 3908, "pitch": 58, "duration": 5, "velocity": 104}, {"time": 3914, "pitch": 47, "duration": 22, "velocity": 104}, {"time": 3914, "pitch": 59, "duration": 9, "velocity": 95}, {"time": 3914, "pitch": 63, "duration": 10, "velocity": 95}, {"time": 3920, "pitch": 54, "duration": 10, "velocity": 89}, {"time": 3926, "pitch": 59, "duration": 3, "velocity": 99}, {"time": 3926, "pitch": 63, "duration": 7, "velocity": 97}, {"time": 3926, "pitch": 66, "duration": 7, "velocity": 95}, {"time": 3932, "pitch": 59, "duration": 5, "velocity": 101}, {"time": 3938, "pitch": 47, "duration": 18, "velocity": 97}, {"time": 3938, "pitch": 59, "duration": 10, "velocity": 95}, {"time": 3938, "pitch": 63, "duration": 10, "velocity": 96}, {"time": 3944, "pitch": 54, "duration": 12, "velocity": 95}, {"time": 3950, "pitch": 59, "duration": 2, "velocity": 75}, {"time": 3950, "pitch": 63, "duration": 2, "velocity": 92}, {"time": 3950, "pitch": 66, "duration": 7, "velocity": 98}, {"time": 3956, "pitch": 63, "duration": 6, "velocity": 99}, {"time": 3962, "pitch": 49, "duration": 21, "velocity": 98}, {"time": 3962, "pitch": 61, "duration": 7, "velocity": 95}, {"time": 3968, "pitch": 56, "duration": 9, "velocity": 99}, {"time": 3971, "pitch": 61, "duration": 2, "velocity": 109}, {"time": 3974, "pitch": 63, "duration": 3, "velocity": 97}, {"time": 3977, "pitch": 61, "duration": 4, "velocity": 101}, {"time": 3980, "pitch": 56, "duration": 4, "velocity": 97}, {"time": 3983, "pitch": 61, "duration": 2, "velocity": 98}, {"time": 3986, "pitch": 49, "duration": 15, "velocity": 101}, {"time": 3986, "pitch": 61, "duration": 4, "velocity": 106}, {"time": 3986, "pitch": 65, "duration": 4, "velocity": 112}, {"time": 3989, "pitch": 56, "duration": 8, "velocity": 101}, {"time": 3992, "pitch": 61, "duration": 2, "velocity": 109}, {"time": 3995, "pitch": 61, "duration": 1, "velocity": 92}, {"time": 3995, "pitch": 68, "duration": 2, "velocity": 97}, {"time": 3998, "pitch": 56, "duration": 2, "velocity": 101}, {"time": 3998, "pitch": 61, "duration": 5, "velocity": 121}, {"time": 3998, "pitch": 68, "duration": 5, "velocity": 104}, {"time": 4001, "pitch": 49, "duration": 1, "velocity": 91}, {"time": 4001, "pitch": 56, "duration": 1, "velocity": 92}, {"time": 4004, "pitch": 49, "duration": 2, "velocity": 97}, {"time": 4004, "pitch": 61, "duration": 5, "velocity": 112}, {"time": 4010, "pitch": 51, "duration": 22, "velocity": 100}, {"time": 4010, "pitch": 63, "duration": 7, "velocity": 97}, {"time": 4010, "pitch": 66, "duration": 7, "velocity": 102}, {"time": 4016, "pitch": 58, "duration": 16, "velocity": 95}, {"time": 4022, "pitch": 63, "duration": 3, "velocity": 98}, {"time": 4022, "pitch": 70, "duration": 3, "velocity": 98}, {"time": 4028, "pitch": 66, "duration": 3, "velocity": 100}, {"time": 4031, "pitch": 63, "duration": 2, "velocity": 96}, {"time": 4034, "pitch": 51, "duration": 15, "velocity": 98}, {"time": 4034, "pitch": 63, "duration": 7, "velocity": 96}, {"time": 4034, "pitch": 75, "duration": 6, "velocity": 100}, {"time": 4040, "pitch": 58, "duration": 8, "velocity": 91}, {"time": 4046, "pitch": 63, "duration": 3, "velocity": 97}, {"time": 4046, "pitch": 66, "duration": 7, "velocity": 101}, {"time": 4046, "pitch": 70, "duration": 6, "velocity": 96}, {"time": 4052, "pitch": 63, "duration": 2, "velocity": 95}, {"time": 4058, "pitch": 46, "duration": 21, "velocity": 95}, {"time": 4058, "pitch": 58, "duration": 8, "velocity": 85}, {"time": 4058, "pitch": 61, "duration": 9, "velocity": 83}, {"time": 4064, "pitch": 53, "duration": 8, "velocity": 98}, {"time": 4070, "pitch": 58, "duration": 6, "velocity": 101}, {"time": 4070, "pitch": 65, "duration": 6, "velocity": 104}, {"time": 4076, "pitch": 53, "duration": 4, "velocity": 92}, {"time": 4076, "pitch": 65, "duration": 2, "velocity": 88}, {"time": 4079, "pitch": 66, "duration": 4, "velocity": 84}, {"time": 4082, "pitch": 46, "duration": 15, "velocity": 97}, {"time": 4082, "pitch": 65, "duration": 6, "velocity": 102}, {"time": 4088, "pitch": 53, "duration": 8, "velocity": 97}, {"time": 4094, "pitch": 58, "duration": 3, "velocity": 98}, {"time": 4094, "pitch": 61, "duration": 4, "velocity": 101}, {"time": 4100, "pitch": 46, "duration": 4, "velocity": 96}, {"time": 4100, "pitch": 58, "duration": 5, "velocity": 102}, {"time": 4100, "pitch": 61, "duration": 1, "velocity": 64}, {"time": 4106, "pitch": 47, "duration": 14, "velocity": 97}, {"time": 4106, "pitch": 59, "duration": 8, "velocity": 90}, {"time": 4106, "pitch": 63, "duration": 9, "velocity": 95}, {"time": 4112, "pitch": 54, "duration": 8, "velocity": 96}, {"time": 4118, "pitch": 59, "duration": 6, "velocity": 106}, {"time": 4118, "pitch": 63, "duration": 10, "velocity": 100}, {"time": 4118, "pitch": 66, "duration": 10, "velocity": 98}, {"time": 4124, "pitch": 47, "duration": 5, "velocity": 95}, {"time": 4130, "pitch": 47, "duration": 15, "velocity": 95}, {"time": 4130, "pitch": 54, "duration": 15, "velocity": 91}, {"time": 4130, "pitch": 59, "duration": 4, "velocity": 97}, {"time": 4130, "pitch": 63, "duration": 8, "velocity": 96}, {"time": 4130, "pitch": 66, "duration": 7, "velocity": 96}, {"time": 4136, "pitch": 59, "duration": 4, "velocity": 94}, {"time": 4142, "pitch": 59, "duration": 3, "velocity": 100}, {"time": 4142, "pitch": 63, "duration": 4, "velocity": 100}, {"time": 4142, "pitch": 66, "duration": 4, "velocity": 97}, {"time": 4148, "pitch": 47, "duration": 2, "velocity": 102}, {"time": 4154, "pitch": 49, "duration": 21, "velocity": 96}, {"time": 4154, "pitch": 61, "duration": 9, "velocity": 94}, {"time": 4154, "pitch": 65, "duration": 7, "velocity": 95}, {"time": 4160, "pitch": 56, "duration": 16, "velocity": 96}, {"time": 4166, "pitch": 61, "duration": 3, "velocity": 102}, {"time": 4166, "pitch": 65, "duration": 3, "velocity": 111}, {"time": 4172, "pitch": 63, "duration": 3, "velocity": 104}, {"time": 4175, "pitch": 65, "duration": 4, "velocity": 104}, {"time": 4178, "pitch": 49, "duration": 15, "velocity": 102}, {"time": 4178, "pitch": 63, "duration": 7, "velocity": 109}, {"time": 4184, "pitch": 56, "duration": 8, "velocity": 86}, {"time": 4184, "pitch": 61, "duration": 4, "velocity": 95}, {"time": 4190, "pitch": 61, "duration": 7, "velocity": 106}, {"time": 4190, "pitch": 65, "duration": 10, "velocity": 104}, {"time": 4196, "pitch": 49, "duration": 2, "velocity": 98}, {"time": 4199, "pitch": 61, "duration": 4, "velocity": 99}, {"time": 4202, "pitch": 44, "duration": 19, "velocity": 97}, {"time": 4208, "pitch": 51, "duration": 8, "velocity": 95}, {"time": 4214, "pitch": 56, "duration": 5, "velocity": 92}, {"time": 4214, "pitch": 59, "duration": 6, "velocity": 97}, {"time": 4214, "pitch": 63, "duration": 11, "velocity": 97}, {"time": 4220, "pitch": 51, "duration": 6, "velocity": 97}, {"time": 4226, "pitch": 44, "duration": 16, "velocity": 97}, {"time": 4226, "pitch": 56, "duration": 10, "velocity": 91}, {"time": 4226, "pitch": 63, "duration": 4, "velocity": 92}, {"time": 4226, "pitch": 68, "duration": 9, "velocity": 96}, {"time": 4232, "pitch": 51, "duration": 8, "velocity": 94}, {"time": 4238, "pitch": 56, "duration": 1, "velocity": 93}, {"time": 4238, "pitch": 59, "duration": 6, "velocity": 101}, {"time": 4238, "pitch": 63, "duration": 10, "velocity": 101}, {"time": 4244, "pitch": 56, "duration": 2, "velocity": 98}, {"time": 4250, "pitch": 46, "duration": 22, "velocity": 95}, {"time": 4250, "pitch": 58, "duration": 14, "velocity": 90}, {"time": 4250, "pitch": 61, "duration": 10, "velocity": 94}, {"time": 4256, "pitch": 53, "duration": 17, "velocity": 95}, {"time": 4262, "pitch": 61, "duration": 7, "velocity": 98}, {"time": 4262, "pitch": 65, "duration": 7, "velocity": 101}, {"time": 4268, "pitch": 58, "duration": 5, "velocity": 100}, {"time": 4274, "pitch": 46, "duration": 14, "velocity": 96}, {"time": 4274, "pitch": 58, "duration": 10, "velocity": 96}, {"time": 4274, "pitch": 61, "duration": 8, "velocity": 95}, {"time": 4280, "pitch": 53, "duration": 8, "velocity": 93}, {"time": 4286, "pitch": 58, "duration": 2, "velocity": 92}, {"time": 4286, "pitch": 61, "duration": 7, "velocity": 100}, {"time": 4286, "pitch": 65, "duration": 7, "velocity": 97}, {"time": 4292, "pitch": 58, "duration": 5, "velocity": 104}, {"time": 4298, "pitch": 47, "duration": 22, "velocity": 104}, {"time": 4298, "pitch": 59, "duration": 9, "velocity": 95}, {"time": 4298, "pitch": 63, "duration": 10, "velocity": 95}, {"time": 4304, "pitch": 54, "duration": 10, "velocity": 89}, {"time": 4310, "pitch": 59, "duration": 3, "velocity": 99}, {"time": 4310, "pitch": 63, "duration": 7, "velocity": 97}, {"time": 4310, "pitch": 66, "duration": 7, "velocity": 95}, {"time": 4316, "pitch": 59, "duration": 5, "velocity": 101}, {"time": 4322, "pitch": 47, "duration": 18, "velocity": 97}, {"time": 4322, "pitch": 59, "duration": 10, "velocity": 95}, {"time": 4322, "pitch": 63, "duration": 10, "velocity": 96}, {"time": 4328, "pitch": 54, "duration": 12, "velocity": 95}, {"time": 4334, "pitch": 59, "duration": 2, "velocity": 75}, {"time": 4334, "pitch": 63, "duration": 2, "velocity": 92}, {"time": 4334, "pitch": 66, "duration": 7, "velocity": 98}, {"time": 4340, "pitch": 63, "duration": 6, "velocity": 99}, {"time": 4346, "pitch": 49, "duration": 21, "velocity": 98}, {"time": 4346, "pitch": 61, "duration": 7, "velocity": 95}, {"time": 4352, "pitch": 56, "duration": 9, "velocity": 99}, {"time": 4355, "pitch": 61, "duration": 2, "velocity": 109}, {"time": 4358, "pitch": 63, "duration": 3, "velocity": 97}, {"time": 4361, "pitch": 61, "duration": 4, "velocity": 101}, {"time": 4364, "pitch": 56, "duration": 4, "velocity": 97}, {"time": 4367, "pitch": 61, "duration": 2, "velocity": 98}, {"time": 4370, "pitch": 49, "duration": 26, "velocity": 100}, {"time": 4370, "pitch": 61, "duration": 8, "velocity": 94}, {"time": 4370, "pitch": 65, "duration": 9, "velocity": 100}, {"time": 4376, "pitch": 56, "duration": 8, "velocity": 92}, {"time": 4382, "pitch": 61, "duration": 13, "velocity": 98}, {"time": 4382, "pitch": 68, "duration": 13, "velocity": 98}, {"time": 4388, "pitch": 56, "duration": 8, "velocity": 90}, {"time": 4394, "pitch": 58, "duration": 18, "velocity": 77}, {"time": 4395, "pitch": 61, "duration": 1, "velocity": 98}, {"time": 4395, "pitch": 46, "duration": 20, "velocity": 102}, {"time": 4396, "pitch": 65, "duration": 21, "velocity": 97}, {"time": 4416, "pitch": 56, "duration": 21, "velocity": 91}, {"time": 4417, "pitch": 59, "duration": 14, "velocity": 89}, {"time": 4418, "pitch": 44, "duration": 22, "velocity": 99}, {"time": 4418, "pitch": 63, "duration": 24, "velocity": 98}, {"time": 4442, "pitch": 42, "duration": 42, "velocity": 100}, {"time": 4448, "pitch": 49, "duration": 8, "velocity": 89}, {"time": 4454, "pitch": 58, "duration": 8, "velocity": 100}, {"time": 4460, "pitch": 49, "duration": 9, "velocity": 79}, {"time": 4466, "pitch": 54, "duration": 13, "velocity": 100}, {"time": 4466, "pitch": 61, "duration": 19, "velocity": 98}, {"time": 4472, "pitch": 49, "duration": 11, "velocity": 88}, {"time": 4478, "pitch": 66, "duration": 18, "velocity": 97}, {"time": 4484, "pitch": 54, "duration": 4, "velocity": 97}, {"time": 4490, "pitch": 51, "duration": 42, "velocity": 101}, {"time": 4496, "pitch": 58, "duration": 8, "velocity": 92}, {"time": 4502, "pitch": 63, "duration": 13, "velocity": 98}, {"time": 4508, "pitch": 58, "duration": 9, "velocity": 97}, {"time": 4514, "pitch": 70, "duration": 10, "velocity": 98}, {"time": 4520, "pitch": 63, "duration": 7, "velocity": 96}, {"time": 4526, "pitch": 68, "duration": 13, "velocity": 97}, {"time": 4538, "pitch": 47, "duration": 40, "velocity": 97}, {"time": 4538, "pitch": 66, "duration": 14, "velocity": 97}, {"time": 4544, "pitch": 54, "duration": 21, "velocity": 97}, {"time": 4550, "pitch": 59, "duration": 6, "velocity": 97}, {"time": 4556, "pitch": 63, "duration": 8, "velocity": 97}, {"time": 4562, "pitch": 66, "duration": 19, "velocity": 99}, {"time": 4568, "pitch": 54, "duration": 10, "velocity": 87}, {"time": 4574, "pitch": 59, "duration": 7, "velocity": 99}, {"time": 4574, "pitch": 63, "duration": 2, "velocity": 40}, {"time": 4580, "pitch": 63, "duration": 2, "velocity": 97}, {"time": 4586, "pitch": 49, "duration": 39, "velocity": 100}, {"time": 4586, "pitch": 61, "duration": 13, "velocity": 97}, {"time": 4592, "pitch": 56, "duration": 20, "velocity": 93}, {"time": 4598, "pitch": 65, "duration": 7, "velocity": 103}, {"time": 4604, "pitch": 61, "duration": 5, "velocity": 98}, {"time": 4610, "pitch": 61, "duration": 9, "velocity": 101}, {"time": 4610, "pitch": 68, "duration": 11, "velocity": 98}, {"time": 4616, "pitch": 56, "duration": 9, "velocity": 92}, {"time": 4622, "pitch": 61, "duration": 4, "velocity": 98}, {"time": 4622, "pitch": 66, "duration": 11, "velocity": 98}, {"time": 4628, "pitch": 49, "duration": 2, "velocity": 98}, {"time": 4634, "pitch": 47, "duration": 42, "velocity": 95}, {"time": 4634, "pitch": 59, "duration": 9, "velocity": 91}, {"time": 4634, "pitch": 63, "duration": 14, "velocity": 94}, {"time": 4640, "pitch": 54, "duration": 21, "velocity": 90}, {"time": 4646, "pitch": 59, "duration": 6, "velocity": 102}, {"time": 4652, "pitch": 63, "duration": 19, "velocity": 98}, {"time": 4658, "pitch": 66, "duration": 19, "velocity": 95}, {"time": 4664, "pitch": 54, "duration": 12, "velocity": 82}, {"time": 4670, "pitch": 59, "duration": 6, "velocity": 104}, {"time": 4676, "pitch": 63, "duration": 2, "velocity": 97}, {"time": 4682, "pitch": 46, "duration": 22, "velocity": 97}, {"time": 4682, "pitch": 56, "duration": 8, "velocity": 99}, {"time": 4682, "pitch": 61, "duration": 13, "velocity": 96}, {"time": 4688, "pitch": 53, "duration": 14, "velocity": 89}, {"time": 4694, "pitch": 56, "duration": 5, "velocity": 106}, {"time": 4700, "pitch": 61, "duration": 5, "velocity": 98}, {"time": 4706, "pitch": 51, "duration": 18, "velocity": 98}, {"time": 4706, "pitch": 58, "duration": 8, "velocity": 93}, {"time": 4706, "pitch": 63, "duration": 9, "velocity": 96}, {"time": 4712, "pitch": 54, "duration": 12, "velocity": 82}, {"time": 4718, "pitch": 58, "duration": 3, "velocity": 97}, {"time": 4718, "pitch": 63, "duration": 8, "velocity": 98}, {"time": 4718, "pitch": 66, "duration": 11, "velocity": 98}, {"time": 4724, "pitch": 58, "duration": 5, "velocity": 92}, {"time": 4730, "pitch": 44, "duration": 22, "velocity": 84}, {"time": 4736, "pitch": 51, "duration": 13, "velocity": 77}, {"time": 4742, "pitch": 59, "duration": 6, "velocity": 88}, {"time": 4748, "pitch": 56, "duration": 6, "velocity": 83}, {"time": 4754, "pitch": 49, "duration": 16, "velocity": 83}, {"time": 4754, "pitch": 61, "duration": 10, "velocity": 82}, {"time": 4760, "pitch": 56, "duration": 8, "velocity": 75}, {"time": 4766, "pitch": 65, "duration": 5, "velocity": 84}, {"time": 4778, "pitch": 42, "duration": 40, "velocity": 83}, {"time": 4784, "pitch": 49, "duration": 34, "velocity": 82}, {"time": 4790, "pitch": 54, "duration": 7, "velocity": 86}, {"time": 4797, "pitch": 56, "duration": 6, "velocity": 93}, {"time": 4803, "pitch": 58, "duration": 8, "velocity": 82}, {"time": 4810, "pitch": 61, "duration": 7, "velocity": 87}, {"time": 4818, "pitch": 66, "duration": 8, "velocity": 83}, {"time": 4828, "pitch": 54, "duration": 23, "velocity": 62}, {"time": 4831, "pitch": 61, "duration": 20, "velocity": 68}, {"time": 4832, "pitch": 66, "duration": 19, "velocity": 69}, {"time": 4833, "pitch": 70, "duration": 17, "velocity": 70}, {"time": 4835, "pitch": 78, "duration": 16, "velocity": 63}], "annotations": [{"time": 77, "annotation": {"number": 64, "value": 127}, "group": "control_change"}, {"time": 123, "annotation": {"number": 64, "value": 0}, "group": "control_change"}, {"time": 128, "annotation": {"number": 64, "value": 127}, "group": "control_change"}, {"time": 146, "annotation": {"number": 64, "value": 0}, "group": "control_change"}, {"time": 147, "annotation": {"number": 64, "value": 127}, "group": "control_change"}, {"time": 169, "annotation": {"number": 64, "value": 0}, "group": "control_change"}, {"time": 172, "annotation": {"number": 64, "value": 127}, "group": "control_change"}, {"time": 193, "annotation": {"number": 64, "value": 0}, "group": "control_change"}, {"time": 199, "annotation": {"number": 64, "value": 127}, "group": "control_change"}, {"time": 218, "annotation": {"number": 64, "value": 0}, "group": "control_change"}, {"time": 225, "annotation": {"number": 64, "value": 127}, "group": "control_change"}, {"time": 266, "annotation": {"number": 64, "value": 0}, "group": "control_change"}, {"time": 271, "annotation": {"number": 64, "value": 127}, "group": "control_change"}, {"time": 272, "annotation": {"number": 64, "value": 127}, "group": "control_change"}, {"time": 280, "annotation": {"number": 64, "value": 0}, "group": "control_change"}, {"time": 289, "annotation": {"number": 64, "value": 0}, "group": "control_change"}, {"time": 296, "annotation": {"number": 64, "value": 127}, "group": "control_change"}, {"time": 314, "annotation": {"number": 64, "value": 0}, "group": "control_change"}, {"time": 320, "annotation": {"number": 64, "value": 127}, "group": "control_change"}, {"time": 338, "annotation": {"number": 64, "value": 0}, "group": "control_change"}, {"time": 343, "annotation": {"number": 64, "value": 127}, "group": "control_change"}, {"time": 362, "annotation": {"number": 64, "value": 0}, "group": "control_change"}, {"time": 363, "annotation": {"number": 64, "value": 127}, "group": "control_change"}, {"time": 367, "annotation": {"number": 64, "value": 127}, "group": "control_change"}, {"time": 385, "annotation": {"number": 64, "value": 0}, "group": "control_change"}, {"time": 391, "annotation": {"number": 64, "value": 127}, "group": "control_change"}, {"time": 407, "annotation": {"number": 64, "value": 0}, "group": "control_change"}, {"time": 411, "annotation": {"number": 64, "value": 0}, "group": "control_change"}, {"time": 418, "annotation": {"number": 64, "value": 127}, "group": "control_change"}, {"time": 437, "annotation": {"number": 64, "value": 0}, "group": "control_change"}, {"time": 438, "annotation": {"number": 64, "value": 127}, "group": "control_change"}, {"time": 457, "annotation": {"number": 64, "value": 0}, "group": "control_change"}, {"time": 461, "annotation": {"number": 64, "value": 127}, "group": "control_change"}, {"time": 484, "annotation": {"number": 64, "value": 0}, "group": "control_change"}, {"time": 485, "annotation": {"number": 64, "value": 127}, "group": "control_change"}, {"time": 505, "annotation": {"number": 64, "value": 0}, "group": "control_change"}, {"time": 510, "annotation": {"number": 64, "value": 127}, "group": "control_change"}, {"time": 530, "annotation": {"number": 64, "value": 0}, "group": "control_change"}, {"time": 531, "annotation": {"number": 64, "value": 127}, "group": "control_change"}, {"time": 554, "annotation": {"number": 64, "value": 0}, "group": "control_change"}, {"time": 559, "annotation": {"number": 64, "value": 127}, "group": "control_change"}, {"time": 603, "annotation": {"number": 64, "value": 0}, "group": "control_change"}, {"time": 606, "annotation": {"number": 64, "value": 127}, "group": "control_change"}, {"time": 628, "annotation": {"number": 64, "value": 0}, "group": "control_change"}, {"time": 631, "annotation": {"number": 64, "value": 127}, "group": "control_change"}, {"time": 650, "annotation": {"number": 64, "value": 0}, "group": "control_change"}, {"time": 653, "annotation": {"number": 64, "value": 127}, "group": "control_change"}, {"time": 673, "annotation": {"number": 64, "value": 0}, "group": "control_change"}, {"time": 673, "annotation": {"number": 64, "value": 127}, "group": "control_change"}, {"time": 699, "annotation": {"number": 64, "value": 0}, "group": "control_change"}, {"time": 705, "annotation": {"number": 64, "value": 127}, "group": "control_change"}, {"time": 722, "annotation": {"number": 64, "value": 0}, "group": "control_change"}, {"time": 727, "annotation": {"number": 64, "value": 127}, "group": "control_change"}, {"time": 747, "annotation": {"number": 64, "value": 0}, "group": "control_change"}, {"time": 753, "annotation": {"number": 64, "value": 127}, "group": "control_change"}, {"time": 774, "annotation": {"number": 64, "value": 0}, "group": "control_change"}, {"time": 779, "annotation": {"number": 64, "value": 127}, "group": "control_change"}, {"time": 795, "annotation": {"number": 64, "value": 0}, "group": "control_change"}, {"time": 801, "annotation": {"number": 64, "value": 127}, "group": "control_change"}, {"time": 820, "annotation": {"number": 64, "value": 0}, "group": "control_change"}, {"time": 824, "annotation": {"number": 64, "value": 127}, "group": "control_change"}, {"time": 840, "annotation": {"number": 64, "value": 0}, "group": "control_change"}, {"time": 843, "annotation": {"number": 64, "value": 127}, "group": "control_change"}, {"time": 889, "annotation": {"number": 64, "value": 0}, "group": "control_change"}, {"time": 891, "annotation": {"number": 64, "value": 127}, "group": "control_change"}, {"time": 913, "annotation": {"number": 64, "value": 0}, "group": "control_change"}, {"time": 914, "annotation": {"number": 64, "value": 127}, "group": "control_change"}, {"time": 937, "annotation": {"number": 64, "value": 0}, "group": "control_change"}, {"time": 940, "annotation": {"number": 64, "value": 127}, "group": "control_change"}, {"time": 961, "annotation": {"number": 64, "value": 0}, "group": "control_change"}, {"time": 963, "annotation": {"number": 64, "value": 127}, "group": "control_change"}, {"time": 987, "annotation": {"number": 64, "value": 0}, "group": "control_change"}, {"time": 989, "annotation": {"number": 64, "value": 127}, "group": "control_change"}, {"time": 992, "annotation": {"number": 64, "value": 127}, "group": "control_change"}, {"time": 998, "annotation": {"number": 64, "value": 0}, "group": "control_change"}, {"time": 1034, "annotation": {"number": 64, "value": 0}, "group": "control_change"}, {"time": 1037, "annotation": {"number": 64, "value": 127}, "group": "control_change"}, {"time": 1083, "annotation": {"number": 64, "value": 0}, "group": "control_change"}, {"time": 1087, "annotation": {"number": 64, "value": 127}, "group": "control_change"}, {"time": 1106, "annotation": {"number": 64, "value": 0}, "group": "control_change"}, {"time": 1111, "annotation": {"number": 64, "value": 127}, "group": "control_change"}, {"time": 1132, "annotation": {"number": 64, "value": 0}, "group": "control_change"}, {"time": 1138, "annotation": {"number": 64, "value": 127}, "group": "control_change"}, {"time": 1155, "annotation": {"number": 64, "value": 0}, "group": "control_change"}, {"time": 1156, "annotation": {"number": 64, "value": 127}, "group": "control_change"}, {"time": 1177, "annotation": {"number": 64, "value": 0}, "group": "control_change"}, {"time": 1181, "annotation": {"number": 64, "value": 127}, "group": "control_change"}, {"time": 1201, "annotation": {"number": 64, "value": 0}, "group": "control_change"}, {"time": 1203, "annotation": {"number": 64, "value": 127}, "group": "control_change"}, {"time": 1224, "annotation": {"number": 64, "value": 0}, "group": "control_change"}, {"time": 1228, "annotation": {"number": 64, "value": 127}, "group": "control_change"}, {"time": 1250, "annotation": {"number": 64, "value": 0}, "group": "control_change"}, {"time": 1251, "annotation": {"number": 64, "value": 127}, "group": "control_change"}, {"time": 1277, "annotation": {"number": 64, "value": 0}, "group": "control_change"}, {"time": 1281, "annotation": {"number": 64, "value": 127}, "group": "control_change"}, {"time": 1297, "annotation": {"number": 64, "value": 0}, "group": "control_change"}, {"time": 1299, "annotation": {"number": 64, "value": 127}, "group": "control_change"}, {"time": 1322, "annotation": {"number": 64, "value": 0}, "group": "control_change"}, {"time": 1327, "annotation": {"number": 64, "value": 127}, "group": "control_change"}, {"time": 1346, "annotation": {"number": 64, "value": 0}, "group": "control_change"}, {"time": 1349, "annotation": {"number": 64, "value": 127}, "group": "control_change"}, {"time": 1370, "annotation": {"number": 64, "value": 0}, "group": "control_change"}, {"time": 1376, "annotation": {"number": 64, "value": 127}, "group": "control_change"}, {"time": 1393, "annotation": {"number": 64, "value": 0}, "group": "control_change"}, {"time": 1396, "annotation": {"number": 64, "value": 127}, "group": "control_change"}, {"time": 1417, "annotation": {"number": 64, "value": 0}, "group": "control_change"}, {"time": 1420, "annotation": {"number": 64, "value": 127}, "group": "control_change"}, {"time": 1442, "annotation": {"number": 64, "value": 0}, "group": "control_change"}, {"time": 1447, "annotation": {"number": 64, "value": 127}, "group": "control_change"}, {"time": 1466, "annotation": {"number": 64, "value": 0}, "group": "control_change"}, {"time": 1479, "annotation": {"number": 64, "value": 127}, "group": "control_change"}, {"time": 1480, "annotation": {"number": 64, "value": 0}, "group": "control_change"}, {"time": 1483, "annotation": {"number": 64, "value": 127}, "group": "control_change"}, {"time": 1490, "annotation": {"number": 64, "value": 0}, "group": "control_change"}, {"time": 1492, "annotation": {"number": 64, "value": 127}, "group": "control_change"}, {"time": 1514, "annotation": {"number": 64, "value": 0}, "group": "control_change"}, {"time": 1519, "annotation": {"number": 64, "value": 127}, "group": "control_change"}, {"time": 1538, "annotation": {"number": 64, "value": 0}, "group": "control_change"}, {"time": 1541, "annotation": {"number": 64, "value": 127}, "group": "control_change"}, {"time": 1562, "annotation": {"number": 64, "value": 0}, "group": "control_change"}, {"time": 1565, "annotation": {"number": 64, "value": 127}, "group": "control_change"}, {"time": 1587, "annotation": {"number": 64, "value": 0}, "group": "control_change"}, {"time": 1588, "annotation": {"number": 64, "value": 127}, "group": "control_change"}, {"time": 1606, "annotation": {"number": 64, "value": 127}, "group": "control_change"}, {"time": 1608, "annotation": {"number": 64, "value": 0}, "group": "control_change"}, {"time": 1612, "annotation": {"number": 64, "value": 127}, "group": "control_change"}, {"time": 1634, "annotation": {"number": 64, "value": 0}, "group": "control_change"}, {"time": 1635, "annotation": {"number": 64, "value": 127}, "group": "control_change"}, {"time": 1661, "annotation": {"number": 64, "value": 0}, "group": "control_change"}, {"time": 1665, "annotation": {"number": 64, "value": 127}, "group": "control_change"}, {"time": 1681, "annotation": {"number": 64, "value": 0}, "group": "control_change"}, {"time": 1683, "annotation": {"number": 64, "value": 127}, "group": "control_change"}, {"time": 1706, "annotation": {"number": 64, "value": 0}, "group": "control_change"}, {"time": 1711, "annotation": {"number": 64, "value": 127}, "group": "control_change"}, {"time": 1730, "annotation": {"number": 64, "value": 0}, "group": "control_change"}, {"time": 1733, "annotation": {"number": 64, "value": 127}, "group": "control_change"}, {"time": 1754, "annotation": {"number": 64, "value": 0}, "group": "control_change"}, {"time": 1760, "annotation": {"number": 64, "value": 127}, "group": "control_change"}, {"time": 1777, "annotation": {"number": 64, "value": 0}, "group": "control_change"}, {"time": 1780, "annotation": {"number": 64, "value": 127}, "group": "control_change"}, {"time": 1801, "annotation": {"number": 64, "value": 0}, "group": "control_change"}, {"time": 1804, "annotation": {"number": 64, "value": 127}, "group": "control_change"}, {"time": 1826, "annotation": {"number": 64, "value": 0}, "group": "control_change"}, {"time": 1831, "annotation": {"number": 64, "value": 127}, "group": "control_change"}, {"time": 1850, "annotation": {"number": 64, "value": 0}, "group": "control_change"}, {"time": 1863, "annotation": {"number": 64, "value": 127}, "group": "control_change"}, {"time": 1864, "annotation": {"number": 64, "value": 0}, "group": "control_change"}, {"time": 1867, "annotation": {"number": 64, "value": 127}, "group": "control_change"}, {"time": 1874, "annotation": {"number": 64, "value": 0}, "group": "control_change"}, {"time": 1876, "annotation": {"number": 64, "value": 127}, "group": "control_change"}, {"time": 1898, "annotation": {"number": 64, "value": 0}, "group": "control_change"}, {"time": 1903, "annotation": {"number": 64, "value": 127}, "group": "control_change"}, {"time": 1922, "annotation": {"number": 64, "value": 0}, "group": "control_change"}, {"time": 1925, "annotation": {"number": 64, "value": 127}, "group": "control_change"}, {"time": 1946, "annotation": {"number": 64, "value": 0}, "group": "control_change"}, {"time": 1949, "annotation": {"number": 64, "value": 127}, "group": "control_change"}, {"time": 1975, "annotation": {"number": 64, "value": 127}, "group": "control_change"}, {"time": 1993, "annotation": {"number": 64, "value": 0}, "group": "control_change"}, {"time": 2075, "annotation": {"number": 64, "value": 127}, "group": "control_change"}, {"time": 2088, "annotation": {"number": 64, "value": 0}, "group": "control_change"}, {"time": 2093, "annotation": {"number": 64, "value": 127}, "group": "control_change"}, {"time": 2139, "annotation": {"number": 64, "value": 0}, "group": "control_change"}, {"time": 2144, "annotation": {"number": 64, "value": 127}, "group": "control_change"}, {"time": 2162, "annotation": {"number": 64, "value": 0}, "group": "control_change"}, {"time": 2163, "annotation": {"number": 64, "value": 127}, "group": "control_change"}, {"time": 2185, "annotation": {"number": 64, "value": 0}, "group": "control_change"}, {"time": 2188, "annotation": {"number": 64, "value": 127}, "group": "control_change"}, {"time": 2209, "annotation": {"number": 64, "value": 0}, "group": "control_change"}, {"time": 2215, "annotation": {"number": 64, "value": 127}, "group": "control_change"}, {"time": 2234, "annotation": {"number": 64, "value": 0}, "group": "control_change"}, {"time": 2241, "annotation": {"number": 64, "value": 127}, "group": "control_change"}, {"time": 2282, "annotation": {"number": 64, "value": 0}, "group": "control_change"}, {"time": 2287, "annotation": {"number": 64, "value": 127}, "group": "control_change"}, {"time": 2288, "annotation": {"number": 64, "value": 127}, "group": "control_change"}, {"time": 2296, "annotation": {"number": 64, "value": 0}, "group": "control_change"}, {"time": 2305, "annotation": {"number": 64, "value": 0}, "group": "control_change"}, {"time": 2312, "annotation": {"number": 64, "value": 127}, "group": "control_change"}, {"time": 2330, "annotation": {"number": 64, "value": 0}, "group": "control_change"}, {"time": 2336, "annotation": {"number": 64, "value": 127}, "group": "control_change"}, {"time": 2354, "annotation": {"number": 64, "value": 0}, "group": "control_change"}, {"time": 2359, "annotation": {"number": 64, "value": 127}, "group": "control_change"}, {"time": 2378, "annotation": {"number": 64, "value": 0}, "group": "control_change"}, {"time": 2379, "annotation": {"number": 64, "value": 127}, "group": "control_change"}, {"time": 2383, "annotation": {"number": 64, "value": 127}, "group": "control_change"}, {"time": 2401, "annotation": {"number": 64, "value": 0}, "group": "control_change"}, {"time": 2407, "annotation": {"number": 64, "value": 127}, "group": "control_change"}, {"time": 2423, "annotation": {"number": 64, "value": 0}, "group": "control_change"}, {"time": 2427, "annotation": {"number": 64, "value": 0}, "group": "control_change"}, {"time": 2434, "annotation": {"number": 64, "value": 127}, "group": "control_change"}, {"time": 2453, "annotation": {"number": 64, "value": 0}, "group": "control_change"}, {"time": 2454, "annotation": {"number": 64, "value": 127}, "group": "control_change"}, {"time": 2473, "annotation": {"number": 64, "value": 0}, "group": "control_change"}, {"time": 2475, "annotation": {"number": 64, "value": 127}, "group": "control_change"}, {"time": 2521, "annotation": {"number": 64, "value": 0}, "group": "control_change"}, {"time": 2523, "annotation": {"number": 64, "value": 127}, "group": "control_change"}, {"time": 2545, "annotation": {"number": 64, "value": 0}, "group": "control_change"}, {"time": 2546, "annotation": {"number": 64, "value": 127}, "group": "control_change"}, {"time": 2569, "annotation": {"number": 64, "value": 0}, "group": "control_change"}, {"time": 2572, "annotation": {"number": 64, "value": 127}, "group": "control_change"}, {"time": 2593, "annotation": {"number": 64, "value": 0}, "group": "control_change"}, {"time": 2595, "annotation": {"number": 64, "value": 127}, "group": "control_change"}, {"time": 2619, "annotation": {"number": 64, "value": 0}, "group": "control_change"}, {"time": 2621, "annotation": {"number": 64, "value": 127}, "group": "control_change"}, {"time": 2624, "annotation": {"number": 64, "value": 127}, "group": "control_change"}, {"time": 2630, "annotation": {"number": 64, "value": 0}, "group": "control_change"}, {"time": 2666, "annotation": {"number": 64, "value": 0}, "group": "control_change"}, {"time": 2669, "annotation": {"number": 64, "value": 127}, "group": "control_change"}, {"time": 2715, "annotation": {"number": 64, "value": 0}, "group": "control_change"}, {"time": 2719, "annotation": {"number": 64, "value": 127}, "group": "control_change"}, {"time": 2738, "annotation": {"number": 64, "value": 0}, "group": "control_change"}, {"time": 2743, "annotation": {"number": 64, "value": 127}, "group": "control_change"}, {"time": 2764, "annotation": {"number": 64, "value": 0}, "group": "control_change"}, {"time": 2770, "annotation": {"number": 64, "value": 127}, "group": "control_change"}, {"time": 2787, "annotation": {"number": 64, "value": 0}, "group": "control_change"}, {"time": 2788, "annotation": {"number": 64, "value": 127}, "group": "control_change"}, {"time": 2809, "annotation": {"number": 64, "value": 0}, "group": "control_change"}, {"time": 2813, "annotation": {"number": 64, "value": 127}, "group": "control_change"}, {"time": 2833, "annotation": {"number": 64, "value": 0}, "group": "control_change"}, {"time": 2835, "annotation": {"number": 64, "value": 127}, "group": "control_change"}, {"time": 2856, "annotation": {"number": 64, "value": 0}, "group": "control_change"}, {"time": 2860, "annotation": {"number": 64, "value": 127}, "group": "control_change"}, {"time": 2882, "annotation": {"number": 64, "value": 0}, "group": "control_change"}, {"time": 2883, "annotation": {"number": 64, "value": 127}, "group": "control_change"}, {"time": 2909, "annotation": {"number": 64, "value": 0}, "group": "control_change"}, {"time": 2913, "annotation": {"number": 64, "value": 127}, "group": "control_change"}, {"time": 2929, "annotation": {"number": 64, "value": 0}, "group": "control_change"}, {"time": 2931, "annotation": {"number": 64, "value": 127}, "group": "control_change"}, {"time": 2954, "annotation": {"number": 64, "value": 0}, "group": "control_change"}, {"time": 2959, "annotation": {"number": 64, "value": 127}, "group": "control_change"}, {"time": 2978, "annotation": {"number": 64, "value": 0}, "group": "control_change"}, {"time": 2981, "annotation": {"number": 64, "value": 127}, "group": "control_change"}, {"time": 3002, "annotation": {"number": 64, "value": 0}, "group": "control_change"}, {"time": 3008, "annotation": {"number": 64, "value": 127}, "group": "control_change"}, {"time": 3025, "annotation": {"number": 64, "value": 0}, "group": "control_change"}, {"time": 3028, "annotation": {"number": 64, "value": 127}, "group": "control_change"}, {"time": 3049, "annotation": {"number": 64, "value": 0}, "group": "control_change"}, {"time": 3052, "annotation": {"number": 64, "value": 127}, "group": "control_change"}, {"time": 3074, "annotation": {"number": 64, "value": 0}, "group": "control_change"}, {"time": 3079, "annotation": {"number": 64, "value": 127}, "group": "control_change"}, {"time": 3098, "annotation": {"number": 64, "value": 0}, "group": "control_change"}, {"time": 3111, "annotation": {"number": 64, "value": 127}, "group": "control_change"}, {"time": 3112, "annotation": {"number": 64, "value": 0}, "group": "control_change"}, {"time": 3115, "annotation": {"number": 64, "value": 127}, "group": "control_change"}, {"time": 3122, "annotation": {"number": 64, "value": 0}, "group": "control_change"}, {"time": 3124, "annotation": {"number": 64, "value": 127}, "group": "control_change"}, {"time": 3146, "annotation": {"number": 64, "value": 0}, "group": "control_change"}, {"time": 3151, "annotation": {"number": 64, "value": 127}, "group": "control_change"}, {"time": 3170, "annotation": {"number": 64, "value": 0}, "group": "control_change"}, {"time": 3173, "annotation": {"number": 64, "value": 127}, "group": "control_change"}, {"time": 3194, "annotation": {"number": 64, "value": 0}, "group": "control_change"}, {"time": 3197, "annotation": {"number": 64, "value": 127}, "group": "control_change"}, {"time": 3219, "annotation": {"number": 64, "value": 0}, "group": "control_change"}, {"time": 3220, "annotation": {"number": 64, "value": 127}, "group": "control_change"}, {"time": 3238, "annotation": {"number": 64, "value": 127}, "group": "control_change"}, {"time": 3240, "annotation": {"number": 64, "value": 0}, "group": "control_change"}, {"time": 3244, "annotation": {"number": 64, "value": 127}, "group": "control_change"}, {"time": 3266, "annotation": {"number": 64, "value": 0}, "group": "control_change"}, {"time": 3267, "annotation": {"number": 64, "value": 127}, "group": "control_change"}, {"time": 3293, "annotation": {"number": 64, "value": 0}, "group": "control_change"}, {"time": 3297, "annotation": {"number": 64, "value": 127}, "group": "control_change"}, {"time": 3313, "annotation": {"number": 64, "value": 0}, "group": "control_change"}, {"time": 3315, "annotation": {"number": 64, "value": 127}, "group": "control_change"}, {"time": 3338, "annotation": {"number": 64, "value": 0}, "group": "control_change"}, {"time": 3343, "annotation": {"number": 64, "value": 127}, "group": "control_change"}, {"time": 3362, "annotation": {"number": 64, "value": 0}, "group": "control_change"}, {"time": 3365, "annotation": {"number": 64, "value": 127}, "group": "control_change"}, {"time": 3386, "annotation": {"number": 64, "value": 0}, "group": "control_change"}, {"time": 3392, "annotation": {"number": 64, "value": 127}, "group": "control_change"}, {"time": 3409, "annotation": {"number": 64, "value": 0}, "group": "control_change"}, {"time": 3412, "annotation": {"number": 64, "value": 127}, "group": "control_change"}, {"time": 3433, "annotation": {"number": 64, "value": 0}, "group": "control_change"}, {"time": 3436, "annotation": {"number": 64, "value": 127}, "group": "control_change"}, {"time": 3458, "annotation": {"number": 64, "value": 0}, "group": "control_change"}, {"time": 3463, "annotation": {"number": 64, "value": 127}, "group": "control_change"}, {"time": 3482, "annotation": {"number": 64, "value": 0}, "group": "control_change"}, {"time": 3495, "annotation": {"number": 64, "value": 127}, "group": "control_change"}, {"time": 3496, "annotation": {"number": 64, "value": 0}, "group": "control_change"}, {"time": 3499, "annotation": {"number": 64, "value": 127}, "group": "control_change"}, {"time": 3506, "annotation": {"number": 64, "value": 0}, "group": "control_change"}, {"time": 3508, "annotation": {"number": 64, "value": 127}, "group": "control_change"}, {"time": 3530, "annotation": {"number": 64, "value": 0}, "group": "control_change"}, {"time": 3535, "annotation": {"number": 64, "value": 127}, "group": "control_change"}, {"time": 3554, "annotation": {"number": 64, "value": 0}, "group": "control_change"}, {"time": 3557, "annotation": {"number": 64, "value": 127}, "group": "control_change"}, {"time": 3578, "annotation": {"number": 64, "value": 0}, "group": "control_change"}, {"time": 3581, "annotation": {"number": 64, "value": 127}, "group": "control_change"}, {"time": 3607, "annotation": {"number": 64, "value": 127}, "group": "control_change"}, {"time": 3625, "annotation": {"number": 64, "value": 0}, "group": "control_change"}, {"time": 3628, "annotation": {"number": 64, "value": 127}, "group": "control_change"}, {"time": 3650, "annotation": {"number": 64, "value": 0}, "group": "control_change"}, {"time": 3651, "annotation": {"number": 64, "value": 127}, "group": "control_change"}, {"time": 3677, "annotation": {"number": 64, "value": 0}, "group": "control_change"}, {"time": 3681, "annotation": {"number": 64, "value": 127}, "group": "control_change"}, {"time": 3697, "annotation": {"number": 64, "value": 0}, "group": "control_change"}, {"time": 3699, "annotation": {"number": 64, "value": 127}, "group": "control_change"}, {"time": 3722, "annotation": {"number": 64, "value": 0}, "group": "control_change"}, {"time": 3727, "annotation": {"number": 64, "value": 127}, "group": "control_change"}, {"time": 3746, "annotation": {"number": 64, "value": 0}, "group": "control_change"}, {"time": 3749, "annotation": {"number": 64, "value": 127}, "group": "control_change"}, {"time": 3770, "annotation": {"number": 64, "value": 0}, "group": "control_change"}, {"time": 3776, "annotation": {"number": 64, "value": 127}, "group": "control_change"}, {"time": 3793, "annotation": {"number": 64, "value": 0}, "group": "control_change"}, {"time": 3796, "annotation": {"number": 64, "value": 127}, "group": "control_change"}, {"time": 3817, "annotation": {"number": 64, "value": 0}, "group": "control_change"}, {"time": 3820, "annotation": {"number": 64, "value": 127}, "group": "control_change"}, {"time": 3842, "annotation": {"number": 64, "value": 0}, "group": "control_change"}, {"time": 3847, "annotation": {"number": 64, "value": 127}, "group": "control_change"}, {"time": 3866, "annotation": {"number": 64, "value": 0}, "group": "control_change"}, {"time": 3879, "annotation": {"number": 64, "value": 127}, "group": "control_change"}, {"time": 3880, "annotation": {"number": 64, "value": 0}, "group": "control_change"}, {"time": 3883, "annotation": {"number": 64, "value": 127}, "group": "control_change"}, {"time": 3890, "annotation": {"number": 64, "value": 0}, "group": "control_change"}, {"time": 3892, "annotation": {"number": 64, "value": 127}, "group": "control_change"}, {"time": 3914, "annotation": {"number": 64, "value": 0}, "group": "control_change"}, {"time": 3919, "annotation": {"number": 64, "value": 127}, "group": "control_change"}, {"time": 3938, "annotation": {"number": 64, "value": 0}, "group": "control_change"}, {"time": 3941, "annotation": {"number": 64, "value": 127}, "group": "control_change"}, {"time": 3962, "annotation": {"number": 64, "value": 0}, "group": "control_change"}, {"time": 3965, "annotation": {"number": 64, "value": 127}, "group": "control_change"}, {"time": 3987, "annotation": {"number": 64, "value": 0}, "group": "control_change"}, {"time": 3988, "annotation": {"number": 64, "value": 127}, "group": "control_change"}, {"time": 4006, "annotation": {"number": 64, "value": 127}, "group": "control_change"}, {"time": 4008, "annotation": {"number": 64, "value": 0}, "group": "control_change"}, {"time": 4012, "annotation": {"number": 64, "value": 127}, "group": "control_change"}, {"time": 4034, "annotation": {"number": 64, "value": 0}, "group": "control_change"}, {"time": 4035, "annotation": {"number": 64, "value": 127}, "group": "control_change"}, {"time": 4061, "annotation": {"number": 64, "value": 0}, "group": "control_change"}, {"time": 4065, "annotation": {"number": 64, "value": 127}, "group": "control_change"}, {"time": 4081, "annotation": {"number": 64, "value": 0}, "group": "control_change"}, {"time": 4083, "annotation": {"number": 64, "value": 127}, "group": "control_change"}, {"time": 4106, "annotation": {"number": 64, "value": 0}, "group": "control_change"}, {"time": 4111, "annotation": {"number": 64, "value": 127}, "group": "control_change"}, {"time": 4130, "annotation": {"number": 64, "value": 0}, "group": "control_change"}, {"time": 4133, "annotation": {"number": 64, "value": 127}, "group": "control_change"}, {"time": 4154, "annotation": {"number": 64, "value": 0}, "group": "control_change"}, {"time": 4160, "annotation": {"number": 64, "value": 127}, "group": "control_change"}, {"time": 4177, "annotation": {"number": 64, "value": 0}, "group": "control_change"}, {"time": 4180, "annotation": {"number": 64, "value": 127}, "group": "control_change"}, {"time": 4201, "annotation": {"number": 64, "value": 0}, "group": "control_change"}, {"time": 4204, "annotation": {"number": 64, "value": 127}, "group": "control_change"}, {"time": 4226, "annotation": {"number": 64, "value": 0}, "group": "control_change"}, {"time": 4231, "annotation": {"number": 64, "value": 127}, "group": "control_change"}, {"time": 4250, "annotation": {"number": 64, "value": 0}, "group": "control_change"}, {"time": 4263, "annotation": {"number": 64, "value": 127}, "group": "control_change"}, {"time": 4264, "annotation": {"number": 64, "value": 0}, "group": "control_change"}, {"time": 4267, "annotation": {"number": 64, "value": 127}, "group": "control_change"}, {"time": 4274, "annotation": {"number": 64, "value": 0}, "group": "control_change"}, {"time": 4276, "annotation": {"number": 64, "value": 127}, "group": "control_change"}, {"time": 4298, "annotation": {"number": 64, "value": 0}, "group": "control_change"}, {"time": 4303, "annotation": {"number": 64, "value": 127}, "group": "control_change"}, {"time": 4322, "annotation": {"number": 64, "value": 0}, "group": "control_change"}, {"time": 4325, "annotation": {"number": 64, "value": 127}, "group": "control_change"}, {"time": 4346, "annotation": {"number": 64, "value": 0}, "group": "control_change"}, {"time": 4349, "annotation": {"number": 64, "value": 127}, "group": "control_change"}, {"time": 4375, "annotation": {"number": 64, "value": 127}, "group": "control_change"}, {"time": 4393, "annotation": {"number": 64, "value": 0}, "group": "control_change"}, {"time": 4445, "annotation": {"number": 64, "value": 127}, "group": "control_change"}, {"time": 4491, "annotation": {"number": 64, "value": 0}, "group": "control_change"}, {"time": 4496, "annotation": {"number": 64, "value": 127}, "group": "control_change"}, {"time": 4514, "annotation": {"number": 64, "value": 0}, "group": "control_change"}, {"time": 4515, "annotation": {"number": 64, "value": 127}, "group": "control_change"}, {"time": 4537, "annotation": {"number": 64, "value": 0}, "group": "control_change"}, {"time": 4540, "annotation": {"number": 64, "value": 127}, "group": "control_change"}, {"time": 4561, "annotation": {"number": 64, "value": 0}, "group": "control_change"}, {"time": 4567, "annotation": {"number": 64, "value": 127}, "group": "control_change"}, {"time": 4586, "annotation": {"number": 64, "value": 0}, "group": "control_change"}, {"time": 4593, "annotation": {"number": 64, "value": 127}, "group": "control_change"}, {"time": 4634, "annotation": {"number": 64, "value": 0}, "group": "control_change"}, {"time": 4639, "annotation": {"number": 64, "value": 127}, "group": "control_change"}, {"time": 4640, "annotation": {"number": 64, "value": 127}, "group": "control_change"}, {"time": 4648, "annotation": {"number": 64, "value": 0}, "group": "control_change"}, {"time": 4657, "annotation": {"number": 64, "value": 0}, "group": "control_change"}, {"time": 4664, "annotation": {"number": 64, "value": 127}, "group": "control_change"}, {"time": 4682, "annotation": {"number": 64, "value": 0}, "group": "control_change"}, {"time": 4688, "annotation": {"number": 64, "value": 127}, "group": "control_change"}, {"time": 4706, "annotation": {"number": 64, "value": 0}, "group": "control_change"}, {"time": 4711, "annotation": {"number": 64, "value": 127}, "group": "control_change"}, {"time": 4730, "annotation": {"number": 64, "value": 0}, "group": "control_change"}, {"time": 4733, "annotation": {"number": 64, "value": 127}, "group": "control_change"}, {"time": 4754, "annotation": {"number": 64, "value": 0}, "group": "control_change"}, {"time": 4758, "annotation": {"number": 64, "value": 127}, "group": "control_change"}, {"time": 4760, "annotation": {"number": 64, "value": 127}, "group": "control_change"}, {"time": 4774, "annotation": {"number": 64, "value": 0}, "group": "control_change"}, {"time": 4777, "annotation": {"number": 64, "value": 127}, "group": "control_change"}, {"time": 4778, "annotation": {"number": 64, "value": 0}, "group": "control_change"}]}]}