{"metadata": {"schema_version": "0.2", "title": "None", "source_filename": "398.mid", "source_format": "midi"}, "resolution": 12, "tempos": [{"time": 0, "qpm": 62.00005993339127}], "time_signatures": [{"time": 0, "numerator": 1, "denominator": 4}], "tracks": [{"program": 4, "is_drum": false, "name": "MELODY", "notes": [{"time": 142, "pitch": 59, "duration": 4, "velocity": 100}, {"time": 146, "pitch": 68, "duration": 20, "velocity": 100}, {"time": 166, "pitch": 64, "duration": 4, "velocity": 100}, {"time": 170, "pitch": 66, "duration": 24, "velocity": 100}, {"time": 194, "pitch": 66, "duration": 4, "velocity": 100}, {"time": 198, "pitch": 66, "duration": 5, "velocity": 100}, {"time": 203, "pitch": 68, "duration": 11, "velocity": 100}, {"time": 214, "pitch": 66, "duration": 4, "velocity": 100}, {"time": 218, "pitch": 64, "duration": 5, "velocity": 100}, {"time": 223, "pitch": 64, "duration": 24, "velocity": 100}, {"time": 247, "pitch": 66, "duration": 6, "velocity": 100}, {"time": 253, "pitch": 66, "duration": 6, "velocity": 100}, {"time": 259, "pitch": 68, "duration": 4, "velocity": 100}, {"time": 263, "pitch": 69, "duration": 9, "velocity": 100}, {"time": 272, "pitch": 68, "duration": 6, "velocity": 100}, {"time": 278, "pitch": 66, "duration": 5, "velocity": 100}, {"time": 283, "pitch": 64, "duration": 6, "velocity": 100}, {"time": 289, "pitch": 68, "duration": 7, "velocity": 100}, {"time": 296, "pitch": 68, "duration": 38, "velocity": 100}, {"time": 334, "pitch": 59, "duration": 4, "velocity": 100}, {"time": 338, "pitch": 68, "duration": 20, "velocity": 100}, {"time": 358, "pitch": 64, "duration": 4, "velocity": 100}, {"time": 362, "pitch": 66, "duration": 29, "velocity": 100}, {"time": 391, "pitch": 68, "duration": 6, "velocity": 100}, {"time": 397, "pitch": 68, "duration": 6, "velocity": 100}, {"time": 403, "pitch": 64, "duration": 4, "velocity": 100}, {"time": 407, "pitch": 66, "duration": 8, "velocity": 100}, {"time": 415, "pitch": 64, "duration": 24, "velocity": 100}, {"time": 439, "pitch": 66, "duration": 6, "velocity": 100}, {"time": 445, "pitch": 66, "duration": 7, "velocity": 100}, {"time": 452, "pitch": 68, "duration": 3, "velocity": 100}, {"time": 455, "pitch": 69, "duration": 12, "velocity": 100}, {"time": 467, "pitch": 68, "duration": 3, "velocity": 100}, {"time": 470, "pitch": 66, "duration": 6, "velocity": 100}, {"time": 476, "pitch": 64, "duration": 5, "velocity": 100}, {"time": 481, "pitch": 66, "duration": 6, "velocity": 100}, {"time": 487, "pitch": 64, "duration": 31, "velocity": 100}, {"time": 518, "pitch": 64, "duration": 4, "velocity": 100}, {"time": 522, "pitch": 66, "duration": 4, "velocity": 100}, {"time": 526, "pitch": 68, "duration": 4, "velocity": 100}, {"time": 530, "pitch": 71, "duration": 17, "velocity": 100}, {"time": 547, "pitch": 71, "duration": 7, "velocity": 100}, {"time": 554, "pitch": 69, "duration": 12, "velocity": 100}, {"time": 566, "pitch": 69, "duration": 6, "velocity": 100}, {"time": 572, "pitch": 64, "duration": 6, "velocity": 100}, {"time": 578, "pitch": 68, "duration": 5, "velocity": 100}, {"time": 583, "pitch": 66, "duration": 3, "velocity": 100}, {"time": 586, "pitch": 68, "duration": 28, "velocity": 100}, {"time": 614, "pitch": 66, "duration": 4, "velocity": 100}, {"time": 618, "pitch": 66, "duration": 4, "velocity": 100}, {"time": 622, "pitch": 68, "duration": 4, "velocity": 100}, {"time": 626, "pitch": 69, "duration": 20, "velocity": 100}, {"time": 646, "pitch": 61, "duration": 4, "velocity": 100}, {"time": 650, "pitch": 73, "duration": 6, "velocity": 100}, {"time": 656, "pitch": 76, "duration": 4, "velocity": 100}, {"time": 660, "pitch": 75, "duration": 11, "velocity": 100}, {"time": 671, "pitch": 68, "duration": 3, "velocity": 100}, {"time": 674, "pitch": 73, "duration": 7, "velocity": 100}, {"time": 681, "pitch": 71, "duration": 52, "velocity": 100}, {"time": 733, "pitch": 73, "duration": 6, "velocity": 100}, {"time": 739, "pitch": 76, "duration": 6, "velocity": 100}, {"time": 745, "pitch": 76, "duration": 21, "velocity": 100}, {"time": 766, "pitch": 78, "duration": 4, "velocity": 100}, {"time": 770, "pitch": 75, "duration": 17, "velocity": 100}, {"time": 787, "pitch": 73, "duration": 6, "velocity": 100}, {"time": 793, "pitch": 71, "duration": 30, "velocity": 100}, {"time": 823, "pitch": 69, "duration": 3, "velocity": 100}, {"time": 826, "pitch": 68, "duration": 4, "velocity": 100}, {"time": 830, "pitch": 69, "duration": 3, "velocity": 100}, {"time": 833, "pitch": 71, "duration": 9, "velocity": 100}, {"time": 842, "pitch": 73, "duration": 8, "velocity": 100}, {"time": 850, "pitch": 76, "duration": 9, "velocity": 100}, {"time": 859, "pitch": 73, "duration": 6, "velocity": 100}, {"time": 865, "pitch": 78, "duration": 36, "velocity": 100}, {"time": 901, "pitch": 76, "duration": 6, "velocity": 100}, {"time": 907, "pitch": 78, "duration": 3, "velocity": 100}, {"time": 910, "pitch": 76, "duration": 4, "velocity": 100}, {"time": 914, "pitch": 80, "duration": 36, "velocity": 100}, {"time": 950, "pitch": 76, "duration": 4, "velocity": 100}, {"time": 954, "pitch": 80, "duration": 4, "velocity": 100}, {"time": 958, "pitch": 76, "duration": 4, "velocity": 100}, {"time": 962, "pitch": 78, "duration": 6, "velocity": 100}, {"time": 968, "pitch": 78, "duration": 6, "velocity": 100}, {"time": 974, "pitch": 78, "duration": 3, "velocity": 100}, {"time": 977, "pitch": 75, "duration": 8, "velocity": 100}, {"time": 985, "pitch": 73, "duration": 6, "velocity": 100}, {"time": 991, "pitch": 71, "duration": 10, "velocity": 100}, {"time": 1001, "pitch": 68, "duration": 3, "velocity": 100}, {"time": 1004, "pitch": 68, "duration": 2, "velocity": 100}, {"time": 1006, "pitch": 71, "duration": 4, "velocity": 100}, {"time": 1010, "pitch": 73, "duration": 5, "velocity": 100}, {"time": 1015, "pitch": 78, "duration": 3, "velocity": 100}, {"time": 1018, "pitch": 76, "duration": 12, "velocity": 100}, {"time": 1030, "pitch": 64, "duration": 3, "velocity": 100}, {"time": 1033, "pitch": 76, "duration": 6, "velocity": 100}, {"time": 1039, "pitch": 75, "duration": 12, "velocity": 100}, {"time": 1051, "pitch": 73, "duration": 6, "velocity": 100}, {"time": 1057, "pitch": 75, "duration": 6, "velocity": 100}, {"time": 1063, "pitch": 73, "duration": 4, "velocity": 100}, {"time": 1067, "pitch": 71, "duration": 14, "velocity": 100}, {"time": 1081, "pitch": 81, "duration": 7, "velocity": 100}, {"time": 1087, "pitch": 80, "duration": 7, "velocity": 100}, {"time": 1094, "pitch": 76, "duration": 5, "velocity": 100}, {"time": 1099, "pitch": 78, "duration": 3, "velocity": 100}, {"time": 1102, "pitch": 76, "duration": 4, "velocity": 100}, {"time": 1106, "pitch": 80, "duration": 7, "velocity": 100}, {"time": 1113, "pitch": 85, "duration": 29, "velocity": 100}, {"time": 1142, "pitch": 85, "duration": 4, "velocity": 100}, {"time": 1146, "pitch": 87, "duration": 4, "velocity": 100}, {"time": 1150, "pitch": 88, "duration": 4, "velocity": 100}, {"time": 1154, "pitch": 87, "duration": 6, "velocity": 100}, {"time": 1159, "pitch": 88, "duration": 6, "velocity": 100}, {"time": 1165, "pitch": 87, "duration": 6, "velocity": 100}, {"time": 1171, "pitch": 83, "duration": 12, "velocity": 100}, {"time": 1183, "pitch": 80, "duration": 11, "velocity": 100}, {"time": 1194, "pitch": 80, "duration": 7, "velocity": 100}, {"time": 1201, "pitch": 78, "duration": 3, "velocity": 100}, {"time": 1204, "pitch": 76, "duration": 3, "velocity": 100}, {"time": 1207, "pitch": 73, "duration": 15, "velocity": 100}, {"time": 1222, "pitch": 73, "duration": 3, "velocity": 100}, {"time": 1225, "pitch": 76, "duration": 9, "velocity": 100}, {"time": 1234, "pitch": 75, "duration": 16, "velocity": 100}, {"time": 1250, "pitch": 73, "duration": 4, "velocity": 100}, {"time": 1253, "pitch": 75, "duration": 3, "velocity": 100}, {"time": 1256, "pitch": 76, "duration": 56, "velocity": 100}, {"time": 1438, "pitch": 59, "duration": 4, "velocity": 100}, {"time": 1442, "pitch": 68, "duration": 20, "velocity": 100}, {"time": 1462, "pitch": 64, "duration": 4, "velocity": 100}, {"time": 1466, "pitch": 66, "duration": 24, "velocity": 100}, {"time": 1490, "pitch": 66, "duration": 4, "velocity": 100}, {"time": 1494, "pitch": 66, "duration": 5, "velocity": 100}, {"time": 1499, "pitch": 68, "duration": 11, "velocity": 100}, {"time": 1510, "pitch": 66, "duration": 4, "velocity": 100}, {"time": 1514, "pitch": 64, "duration": 5, "velocity": 100}, {"time": 1519, "pitch": 64, "duration": 24, "velocity": 100}, {"time": 1543, "pitch": 66, "duration": 6, "velocity": 100}, {"time": 1549, "pitch": 66, "duration": 6, "velocity": 100}, {"time": 1555, "pitch": 68, "duration": 4, "velocity": 100}, {"time": 1559, "pitch": 69, "duration": 9, "velocity": 100}, {"time": 1568, "pitch": 68, "duration": 6, "velocity": 100}, {"time": 1574, "pitch": 66, "duration": 5, "velocity": 100}, {"time": 1579, "pitch": 64, "duration": 6, "velocity": 100}, {"time": 1585, "pitch": 68, "duration": 7, "velocity": 100}, {"time": 1592, "pitch": 68, "duration": 38, "velocity": 100}, {"time": 1630, "pitch": 59, "duration": 4, "velocity": 100}, {"time": 1634, "pitch": 68, "duration": 20, "velocity": 100}, {"time": 1654, "pitch": 64, "duration": 4, "velocity": 100}, {"time": 1658, "pitch": 66, "duration": 29, "velocity": 100}, {"time": 1687, "pitch": 68, "duration": 6, "velocity": 100}, {"time": 1693, "pitch": 68, "duration": 6, "velocity": 100}, {"time": 1699, "pitch": 64, "duration": 4, "velocity": 100}, {"time": 1703, "pitch": 66, "duration": 8, "velocity": 100}, {"time": 1711, "pitch": 64, "duration": 24, "velocity": 100}, {"time": 1735, "pitch": 66, "duration": 6, "velocity": 100}, {"time": 1741, "pitch": 66, "duration": 7, "velocity": 100}, {"time": 1748, "pitch": 68, "duration": 3, "velocity": 100}, {"time": 1751, "pitch": 69, "duration": 12, "velocity": 100}, {"time": 1763, "pitch": 68, "duration": 3, "velocity": 100}, {"time": 1766, "pitch": 66, "duration": 6, "velocity": 100}, {"time": 1772, "pitch": 64, "duration": 5, "velocity": 100}, {"time": 1777, "pitch": 66, "duration": 6, "velocity": 100}, {"time": 1783, "pitch": 64, "duration": 31, "velocity": 100}, {"time": 1814, "pitch": 64, "duration": 4, "velocity": 100}, {"time": 1818, "pitch": 66, "duration": 4, "velocity": 100}, {"time": 1822, "pitch": 68, "duration": 4, "velocity": 100}, {"time": 1826, "pitch": 71, "duration": 17, "velocity": 100}, {"time": 1843, "pitch": 71, "duration": 7, "velocity": 100}, {"time": 1850, "pitch": 69, "duration": 12, "velocity": 100}, {"time": 1862, "pitch": 69, "duration": 6, "velocity": 100}, {"time": 1868, "pitch": 64, "duration": 6, "velocity": 100}, {"time": 1874, "pitch": 68, "duration": 5, "velocity": 100}, {"time": 1879, "pitch": 66, "duration": 3, "velocity": 100}, {"time": 1882, "pitch": 68, "duration": 28, "velocity": 100}, {"time": 1910, "pitch": 66, "duration": 4, "velocity": 100}, {"time": 1914, "pitch": 66, "duration": 4, "velocity": 100}, {"time": 1918, "pitch": 68, "duration": 4, "velocity": 100}, {"time": 1922, "pitch": 69, "duration": 20, "velocity": 100}, {"time": 1942, "pitch": 61, "duration": 4, "velocity": 100}, {"time": 1946, "pitch": 73, "duration": 6, "velocity": 100}, {"time": 1952, "pitch": 76, "duration": 4, "velocity": 100}, {"time": 1956, "pitch": 75, "duration": 11, "velocity": 100}, {"time": 1967, "pitch": 68, "duration": 3, "velocity": 100}, {"time": 1970, "pitch": 73, "duration": 7, "velocity": 100}, {"time": 1977, "pitch": 71, "duration": 52, "velocity": 100}, {"time": 2029, "pitch": 73, "duration": 6, "velocity": 100}, {"time": 2035, "pitch": 76, "duration": 6, "velocity": 100}, {"time": 2041, "pitch": 76, "duration": 21, "velocity": 100}, {"time": 2062, "pitch": 78, "duration": 4, "velocity": 100}, {"time": 2066, "pitch": 75, "duration": 17, "velocity": 100}, {"time": 2083, "pitch": 73, "duration": 6, "velocity": 100}, {"time": 2089, "pitch": 71, "duration": 30, "velocity": 100}, {"time": 2119, "pitch": 69, "duration": 3, "velocity": 100}, {"time": 2122, "pitch": 68, "duration": 4, "velocity": 100}, {"time": 2126, "pitch": 69, "duration": 3, "velocity": 100}, {"time": 2129, "pitch": 71, "duration": 9, "velocity": 100}, {"time": 2138, "pitch": 73, "duration": 8, "velocity": 100}, {"time": 2146, "pitch": 76, "duration": 9, "velocity": 100}, {"time": 2155, "pitch": 73, "duration": 6, "velocity": 100}, {"time": 2161, "pitch": 78, "duration": 36, "velocity": 100}, {"time": 2197, "pitch": 76, "duration": 6, "velocity": 100}, {"time": 2203, "pitch": 78, "duration": 3, "velocity": 100}, {"time": 2206, "pitch": 76, "duration": 4, "velocity": 100}, {"time": 2210, "pitch": 80, "duration": 36, "velocity": 100}, {"time": 2246, "pitch": 76, "duration": 4, "velocity": 100}, {"time": 2250, "pitch": 80, "duration": 4, "velocity": 100}, {"time": 2254, "pitch": 76, "duration": 4, "velocity": 100}, {"time": 2258, "pitch": 78, "duration": 6, "velocity": 100}, {"time": 2264, "pitch": 78, "duration": 6, "velocity": 100}, {"time": 2270, "pitch": 78, "duration": 3, "velocity": 100}, {"time": 2273, "pitch": 75, "duration": 8, "velocity": 100}, {"time": 2281, "pitch": 73, "duration": 6, "velocity": 100}, {"time": 2287, "pitch": 71, "duration": 10, "velocity": 100}, {"time": 2297, "pitch": 68, "duration": 3, "velocity": 100}, {"time": 2300, "pitch": 68, "duration": 2, "velocity": 100}, {"time": 2302, "pitch": 71, "duration": 4, "velocity": 100}, {"time": 2306, "pitch": 73, "duration": 5, "velocity": 100}, {"time": 2311, "pitch": 78, "duration": 3, "velocity": 100}, {"time": 2314, "pitch": 76, "duration": 12, "velocity": 100}, {"time": 2326, "pitch": 64, "duration": 3, "velocity": 100}, {"time": 2329, "pitch": 76, "duration": 6, "velocity": 100}, {"time": 2335, "pitch": 75, "duration": 12, "velocity": 100}, {"time": 2347, "pitch": 73, "duration": 6, "velocity": 100}, {"time": 2353, "pitch": 75, "duration": 6, "velocity": 100}, {"time": 2359, "pitch": 73, "duration": 4, "velocity": 100}, {"time": 2363, "pitch": 71, "duration": 14, "velocity": 100}, {"time": 2377, "pitch": 81, "duration": 7, "velocity": 100}, {"time": 2383, "pitch": 80, "duration": 7, "velocity": 100}, {"time": 2390, "pitch": 76, "duration": 5, "velocity": 100}, {"time": 2395, "pitch": 78, "duration": 3, "velocity": 100}, {"time": 2398, "pitch": 76, "duration": 4, "velocity": 100}, {"time": 2402, "pitch": 80, "duration": 7, "velocity": 100}, {"time": 2409, "pitch": 85, "duration": 29, "velocity": 100}, {"time": 2438, "pitch": 85, "duration": 4, "velocity": 100}, {"time": 2442, "pitch": 87, "duration": 4, "velocity": 100}, {"time": 2446, "pitch": 88, "duration": 4, "velocity": 100}, {"time": 2450, "pitch": 87, "duration": 6, "velocity": 100}, {"time": 2455, "pitch": 88, "duration": 6, "velocity": 100}, {"time": 2461, "pitch": 87, "duration": 6, "velocity": 100}, {"time": 2467, "pitch": 83, "duration": 12, "velocity": 100}, {"time": 2479, "pitch": 80, "duration": 11, "velocity": 100}, {"time": 2490, "pitch": 80, "duration": 7, "velocity": 100}, {"time": 2497, "pitch": 78, "duration": 3, "velocity": 100}, {"time": 2500, "pitch": 76, "duration": 3, "velocity": 100}, {"time": 2503, "pitch": 73, "duration": 15, "velocity": 100}, {"time": 2518, "pitch": 73, "duration": 3, "velocity": 100}, {"time": 2521, "pitch": 76, "duration": 9, "velocity": 100}, {"time": 2530, "pitch": 75, "duration": 16, "velocity": 100}, {"time": 2546, "pitch": 73, "duration": 4, "velocity": 100}, {"time": 2549, "pitch": 75, "duration": 3, "velocity": 100}, {"time": 2552, "pitch": 76, "duration": 29, "velocity": 100}, {"time": 2581, "pitch": 76, "duration": 6, "velocity": 100}, {"time": 2587, "pitch": 78, "duration": 3, "velocity": 100}, {"time": 2590, "pitch": 76, "duration": 4, "velocity": 100}, {"time": 2594, "pitch": 80, "duration": 36, "velocity": 100}, {"time": 2630, "pitch": 76, "duration": 4, "velocity": 100}, {"time": 2634, "pitch": 80, "duration": 4, "velocity": 100}, {"time": 2638, "pitch": 76, "duration": 4, "velocity": 100}, {"time": 2642, "pitch": 78, "duration": 6, "velocity": 100}, {"time": 2648, "pitch": 78, "duration": 6, "velocity": 100}, {"time": 2654, "pitch": 78, "duration": 3, "velocity": 100}, {"time": 2657, "pitch": 75, "duration": 8, "velocity": 100}, {"time": 2665, "pitch": 73, "duration": 6, "velocity": 100}, {"time": 2671, "pitch": 71, "duration": 10, "velocity": 100}, {"time": 2681, "pitch": 68, "duration": 3, "velocity": 100}, {"time": 2684, "pitch": 68, "duration": 2, "velocity": 100}, {"time": 2686, "pitch": 71, "duration": 4, "velocity": 100}, {"time": 2690, "pitch": 73, "duration": 5, "velocity": 100}, {"time": 2695, "pitch": 78, "duration": 3, "velocity": 100}, {"time": 2698, "pitch": 76, "duration": 12, "velocity": 100}, {"time": 2710, "pitch": 64, "duration": 3, "velocity": 100}, {"time": 2713, "pitch": 76, "duration": 6, "velocity": 100}, {"time": 2719, "pitch": 75, "duration": 12, "velocity": 100}, {"time": 2731, "pitch": 73, "duration": 6, "velocity": 100}, {"time": 2737, "pitch": 75, "duration": 6, "velocity": 100}, {"time": 2743, "pitch": 73, "duration": 4, "velocity": 100}, {"time": 2747, "pitch": 71, "duration": 14, "velocity": 100}, {"time": 2761, "pitch": 81, "duration": 7, "velocity": 100}, {"time": 2767, "pitch": 80, "duration": 7, "velocity": 100}, {"time": 2774, "pitch": 76, "duration": 5, "velocity": 100}, {"time": 2779, "pitch": 78, "duration": 3, "velocity": 100}, {"time": 2782, "pitch": 76, "duration": 4, "velocity": 100}, {"time": 2786, "pitch": 80, "duration": 7, "velocity": 100}, {"time": 2793, "pitch": 85, "duration": 29, "velocity": 100}, {"time": 2822, "pitch": 85, "duration": 4, "velocity": 100}, {"time": 2826, "pitch": 87, "duration": 4, "velocity": 100}, {"time": 2830, "pitch": 88, "duration": 4, "velocity": 100}, {"time": 2834, "pitch": 87, "duration": 6, "velocity": 100}, {"time": 2839, "pitch": 88, "duration": 6, "velocity": 100}, {"time": 2845, "pitch": 87, "duration": 6, "velocity": 100}, {"time": 2851, "pitch": 83, "duration": 12, "velocity": 100}, {"time": 2863, "pitch": 80, "duration": 11, "velocity": 100}, {"time": 2874, "pitch": 80, "duration": 7, "velocity": 100}, {"time": 2881, "pitch": 78, "duration": 3, "velocity": 100}, {"time": 2884, "pitch": 76, "duration": 3, "velocity": 100}, {"time": 2887, "pitch": 73, "duration": 15, "velocity": 100}, {"time": 2902, "pitch": 73, "duration": 3, "velocity": 100}, {"time": 2905, "pitch": 76, "duration": 9, "velocity": 100}, {"time": 2914, "pitch": 75, "duration": 16, "velocity": 100}, {"time": 2930, "pitch": 73, "duration": 4, "velocity": 100}, {"time": 2933, "pitch": 75, "duration": 3, "velocity": 100}, {"time": 2936, "pitch": 76, "duration": 28, "velocity": 100}]}, {"program": 0, "is_drum": false, "name": "PIANO", "notes": [{"time": 8, "pitch": 59, "duration": 20, "velocity": 83}, {"time": 8, "pitch": 66, "duration": 17, "velocity": 83}, {"time": 11, "pitch": 71, "duration": 15, "velocity": 83}, {"time": 11, "pitch": 83, "duration": 11, "velocity": 83}, {"time": 11, "pitch": 90, "duration": 16, "velocity": 83}, {"time": 11, "pitch": 95, "duration": 15, "velocity": 83}, {"time": 35, "pitch": 57, "duration": 16, "velocity": 66}, {"time": 35, "pitch": 69, "duration": 14, "velocity": 79}, {"time": 38, "pitch": 64, "duration": 15, "velocity": 75}, {"time": 38, "pitch": 73, "duration": 11, "velocity": 78}, {"time": 38, "pitch": 76, "duration": 15, "velocity": 82}, {"time": 53, "pitch": 56, "duration": 20, "velocity": 74}, {"time": 53, "pitch": 66, "duration": 19, "velocity": 56}, {"time": 56, "pitch": 63, "duration": 18, "velocity": 62}, {"time": 56, "pitch": 71, "duration": 18, "velocity": 51}, {"time": 74, "pitch": 55, "duration": 17, "velocity": 85}, {"time": 74, "pitch": 62, "duration": 27, "velocity": 66}, {"time": 77, "pitch": 67, "duration": 27, "velocity": 85}, {"time": 101, "pitch": 59, "duration": 34, "velocity": 62}, {"time": 104, "pitch": 66, "duration": 32, "velocity": 82}, {"time": 104, "pitch": 71, "duration": 33, "velocity": 69}, {"time": 107, "pitch": 78, "duration": 31, "velocity": 58}, {"time": 146, "pitch": 45, "duration": 21, "velocity": 95}, {"time": 146, "pitch": 57, "duration": 21, "velocity": 88}, {"time": 146, "pitch": 61, "duration": 21, "velocity": 94}, {"time": 146, "pitch": 64, "duration": 19, "velocity": 89}, {"time": 149, "pitch": 68, "duration": 15, "velocity": 94}, {"time": 170, "pitch": 45, "duration": 23, "velocity": 95}, {"time": 170, "pitch": 57, "duration": 20, "velocity": 88}, {"time": 170, "pitch": 61, "duration": 19, "velocity": 97}, {"time": 170, "pitch": 66, "duration": 25, "velocity": 99}, {"time": 194, "pitch": 44, "duration": 21, "velocity": 95}, {"time": 194, "pitch": 54, "duration": 15, "velocity": 90}, {"time": 194, "pitch": 59, "duration": 14, "velocity": 92}, {"time": 194, "pitch": 63, "duration": 15, "velocity": 101}, {"time": 215, "pitch": 56, "duration": 10, "velocity": 84}, {"time": 218, "pitch": 49, "duration": 18, "velocity": 97}, {"time": 218, "pitch": 61, "duration": 7, "velocity": 92}, {"time": 218, "pitch": 64, "duration": 24, "velocity": 91}, {"time": 230, "pitch": 56, "duration": 7, "velocity": 91}, {"time": 230, "pitch": 59, "duration": 6, "velocity": 97}, {"time": 242, "pitch": 42, "duration": 25, "velocity": 103}, {"time": 242, "pitch": 54, "duration": 17, "velocity": 94}, {"time": 242, "pitch": 57, "duration": 19, "velocity": 83}, {"time": 242, "pitch": 61, "duration": 22, "velocity": 98}, {"time": 257, "pitch": 49, "duration": 6, "velocity": 93}, {"time": 260, "pitch": 54, "duration": 4, "velocity": 89}, {"time": 263, "pitch": 57, "duration": 2, "velocity": 98}, {"time": 266, "pitch": 47, "duration": 18, "velocity": 103}, {"time": 266, "pitch": 54, "duration": 19, "velocity": 90}, {"time": 266, "pitch": 59, "duration": 17, "velocity": 102}, {"time": 284, "pitch": 57, "duration": 6, "velocity": 104}, {"time": 290, "pitch": 40, "duration": 48, "velocity": 102}, {"time": 290, "pitch": 52, "duration": 8, "velocity": 87}, {"time": 290, "pitch": 56, "duration": 10, "velocity": 92}, {"time": 296, "pitch": 47, "duration": 31, "velocity": 94}, {"time": 302, "pitch": 56, "duration": 6, "velocity": 98}, {"time": 308, "pitch": 54, "duration": 4, "velocity": 103}, {"time": 314, "pitch": 52, "duration": 10, "velocity": 102}, {"time": 314, "pitch": 57, "duration": 10, "velocity": 93}, {"time": 326, "pitch": 52, "duration": 11, "velocity": 97}, {"time": 326, "pitch": 56, "duration": 11, "velocity": 97}, {"time": 332, "pitch": 47, "duration": 6, "velocity": 91}, {"time": 335, "pitch": 57, "duration": 15, "velocity": 91}, {"time": 335, "pitch": 68, "duration": 1, "velocity": 70}, {"time": 338, "pitch": 45, "duration": 23, "velocity": 99}, {"time": 338, "pitch": 61, "duration": 23, "velocity": 102}, {"time": 338, "pitch": 64, "duration": 11, "velocity": 97}, {"time": 338, "pitch": 68, "duration": 10, "velocity": 92}, {"time": 350, "pitch": 64, "duration": 6, "velocity": 92}, {"time": 350, "pitch": 68, "duration": 5, "velocity": 93}, {"time": 362, "pitch": 45, "duration": 22, "velocity": 94}, {"time": 362, "pitch": 57, "duration": 12, "velocity": 94}, {"time": 362, "pitch": 61, "duration": 11, "velocity": 99}, {"time": 362, "pitch": 66, "duration": 10, "velocity": 97}, {"time": 374, "pitch": 57, "duration": 1, "velocity": 90}, {"time": 374, "pitch": 61, "duration": 6, "velocity": 98}, {"time": 374, "pitch": 66, "duration": 12, "velocity": 95}, {"time": 380, "pitch": 57, "duration": 2, "velocity": 84}, {"time": 386, "pitch": 44, "duration": 22, "velocity": 102}, {"time": 386, "pitch": 54, "duration": 9, "velocity": 94}, {"time": 386, "pitch": 59, "duration": 7, "velocity": 97}, {"time": 392, "pitch": 51, "duration": 13, "velocity": 81}, {"time": 398, "pitch": 54, "duration": 4, "velocity": 108}, {"time": 398, "pitch": 63, "duration": 5, "velocity": 105}, {"time": 410, "pitch": 49, "duration": 24, "velocity": 103}, {"time": 410, "pitch": 56, "duration": 4, "velocity": 95}, {"time": 410, "pitch": 59, "duration": 7, "velocity": 98}, {"time": 416, "pitch": 56, "duration": 14, "velocity": 90}, {"time": 422, "pitch": 64, "duration": 7, "velocity": 103}, {"time": 428, "pitch": 63, "duration": 7, "velocity": 103}, {"time": 434, "pitch": 42, "duration": 23, "velocity": 104}, {"time": 434, "pitch": 54, "duration": 21, "velocity": 97}, {"time": 434, "pitch": 61, "duration": 12, "velocity": 102}, {"time": 440, "pitch": 49, "duration": 17, "velocity": 99}, {"time": 446, "pitch": 57, "duration": 11, "velocity": 105}, {"time": 458, "pitch": 47, "duration": 23, "velocity": 102}, {"time": 458, "pitch": 54, "duration": 15, "velocity": 98}, {"time": 458, "pitch": 59, "duration": 10, "velocity": 98}, {"time": 470, "pitch": 59, "duration": 11, "velocity": 102}, {"time": 470, "pitch": 63, "duration": 14, "velocity": 104}, {"time": 476, "pitch": 54, "duration": 4, "velocity": 97}, {"time": 482, "pitch": 40, "duration": 48, "velocity": 103}, {"time": 482, "pitch": 52, "duration": 18, "velocity": 94}, {"time": 482, "pitch": 56, "duration": 18, "velocity": 93}, {"time": 488, "pitch": 47, "duration": 42, "velocity": 99}, {"time": 494, "pitch": 59, "duration": 6, "velocity": 100}, {"time": 500, "pitch": 63, "duration": 5, "velocity": 102}, {"time": 506, "pitch": 64, "duration": 7, "velocity": 97}, {"time": 512, "pitch": 59, "duration": 18, "velocity": 87}, {"time": 518, "pitch": 64, "duration": 11, "velocity": 102}, {"time": 518, "pitch": 68, "duration": 11, "velocity": 102}, {"time": 530, "pitch": 57, "duration": 22, "velocity": 97}, {"time": 530, "pitch": 64, "duration": 22, "velocity": 92}, {"time": 530, "pitch": 69, "duration": 22, "velocity": 96}, {"time": 530, "pitch": 72, "duration": 17, "velocity": 84}, {"time": 554, "pitch": 57, "duration": 17, "velocity": 89}, {"time": 554, "pitch": 64, "duration": 19, "velocity": 89}, {"time": 554, "pitch": 69, "duration": 24, "velocity": 91}, {"time": 578, "pitch": 40, "duration": 1, "velocity": 88}, {"time": 578, "pitch": 68, "duration": 16, "velocity": 93}, {"time": 584, "pitch": 52, "duration": 33, "velocity": 94}, {"time": 590, "pitch": 59, "duration": 14, "velocity": 98}, {"time": 596, "pitch": 66, "duration": 7, "velocity": 99}, {"time": 602, "pitch": 64, "duration": 13, "velocity": 96}, {"time": 602, "pitch": 68, "duration": 10, "velocity": 94}, {"time": 614, "pitch": 71, "duration": 5, "velocity": 98}, {"time": 626, "pitch": 42, "duration": 18, "velocity": 92}, {"time": 626, "pitch": 66, "duration": 8, "velocity": 92}, {"time": 626, "pitch": 69, "duration": 7, "velocity": 96}, {"time": 632, "pitch": 49, "duration": 11, "velocity": 76}, {"time": 638, "pitch": 66, "duration": 9, "velocity": 96}, {"time": 638, "pitch": 69, "duration": 7, "velocity": 102}, {"time": 638, "pitch": 73, "duration": 11, "velocity": 102}, {"time": 650, "pitch": 35, "duration": 1, "velocity": 89}, {"time": 650, "pitch": 66, "duration": 5, "velocity": 87}, {"time": 650, "pitch": 71, "duration": 6, "velocity": 89}, {"time": 656, "pitch": 47, "duration": 12, "velocity": 83}, {"time": 662, "pitch": 59, "duration": 10, "velocity": 100}, {"time": 662, "pitch": 63, "duration": 5, "velocity": 107}, {"time": 674, "pitch": 40, "duration": 1, "velocity": 96}, {"time": 674, "pitch": 59, "duration": 4, "velocity": 91}, {"time": 674, "pitch": 64, "duration": 5, "velocity": 91}, {"time": 680, "pitch": 52, "duration": 13, "velocity": 77}, {"time": 686, "pitch": 64, "duration": 8, "velocity": 91}, {"time": 686, "pitch": 68, "duration": 9, "velocity": 91}, {"time": 692, "pitch": 59, "duration": 3, "velocity": 82}, {"time": 698, "pitch": 47, "duration": 15, "velocity": 97}, {"time": 698, "pitch": 59, "duration": 7, "velocity": 84}, {"time": 698, "pitch": 62, "duration": 8, "velocity": 90}, {"time": 704, "pitch": 54, "duration": 7, "velocity": 100}, {"time": 710, "pitch": 59, "duration": 12, "velocity": 98}, {"time": 710, "pitch": 64, "duration": 17, "velocity": 101}, {"time": 722, "pitch": 45, "duration": 17, "velocity": 102}, {"time": 725, "pitch": 52, "duration": 12, "velocity": 85}, {"time": 728, "pitch": 57, "duration": 5, "velocity": 97}, {"time": 734, "pitch": 57, "duration": 10, "velocity": 90}, {"time": 734, "pitch": 61, "duration": 10, "velocity": 89}, {"time": 734, "pitch": 64, "duration": 10, "velocity": 93}, {"time": 746, "pitch": 45, "duration": 14, "velocity": 86}, {"time": 746, "pitch": 52, "duration": 15, "velocity": 82}, {"time": 746, "pitch": 57, "duration": 3, "velocity": 77}, {"time": 746, "pitch": 61, "duration": 4, "velocity": 84}, {"time": 758, "pitch": 64, "duration": 2, "velocity": 97}, {"time": 758, "pitch": 69, "duration": 2, "velocity": 103}, {"time": 770, "pitch": 44, "duration": 17, "velocity": 97}, {"time": 770, "pitch": 66, "duration": 8, "velocity": 92}, {"time": 770, "pitch": 71, "duration": 8, "velocity": 96}, {"time": 782, "pitch": 66, "duration": 4, "velocity": 97}, {"time": 782, "pitch": 75, "duration": 12, "velocity": 97}, {"time": 794, "pitch": 37, "duration": 1, "velocity": 97}, {"time": 794, "pitch": 68, "duration": 3, "velocity": 89}, {"time": 794, "pitch": 73, "duration": 5, "velocity": 97}, {"time": 806, "pitch": 49, "duration": 7, "velocity": 96}, {"time": 806, "pitch": 56, "duration": 8, "velocity": 86}, {"time": 806, "pitch": 59, "duration": 7, "velocity": 96}, {"time": 806, "pitch": 65, "duration": 11, "velocity": 95}, {"time": 818, "pitch": 42, "duration": 20, "velocity": 89}, {"time": 818, "pitch": 61, "duration": 4, "velocity": 87}, {"time": 818, "pitch": 66, "duration": 24, "velocity": 94}, {"time": 824, "pitch": 49, "duration": 15, "velocity": 81}, {"time": 830, "pitch": 54, "duration": 11, "velocity": 90}, {"time": 830, "pitch": 57, "duration": 11, "velocity": 88}, {"time": 842, "pitch": 45, "duration": 14, "velocity": 92}, {"time": 842, "pitch": 57, "duration": 9, "velocity": 89}, {"time": 842, "pitch": 61, "duration": 10, "velocity": 96}, {"time": 848, "pitch": 52, "duration": 8, "velocity": 92}, {"time": 854, "pitch": 57, "duration": 4, "velocity": 101}, {"time": 854, "pitch": 61, "duration": 4, "velocity": 97}, {"time": 854, "pitch": 64, "duration": 9, "velocity": 98}, {"time": 866, "pitch": 35, "duration": 1, "velocity": 97}, {"time": 866, "pitch": 59, "duration": 15, "velocity": 82}, {"time": 866, "pitch": 63, "duration": 13, "velocity": 97}, {"time": 872, "pitch": 47, "duration": 16, "velocity": 102}, {"time": 878, "pitch": 54, "duration": 9, "velocity": 100}, {"time": 884, "pitch": 59, "duration": 4, "velocity": 101}, {"time": 884, "pitch": 64, "duration": 6, "velocity": 100}, {"time": 890, "pitch": 47, "duration": 18, "velocity": 99}, {"time": 890, "pitch": 54, "duration": 18, "velocity": 95}, {"time": 890, "pitch": 59, "duration": 3, "velocity": 96}, {"time": 890, "pitch": 63, "duration": 6, "velocity": 98}, {"time": 896, "pitch": 59, "duration": 8, "velocity": 95}, {"time": 902, "pitch": 63, "duration": 8, "velocity": 107}, {"time": 902, "pitch": 66, "duration": 8, "velocity": 100}, {"time": 902, "pitch": 71, "duration": 7, "velocity": 97}, {"time": 914, "pitch": 45, "duration": 38, "velocity": 100}, {"time": 914, "pitch": 57, "duration": 6, "velocity": 96}, {"time": 914, "pitch": 61, "duration": 9, "velocity": 99}, {"time": 920, "pitch": 52, "duration": 8, "velocity": 91}, {"time": 926, "pitch": 57, "duration": 10, "velocity": 98}, {"time": 926, "pitch": 61, "duration": 7, "velocity": 103}, {"time": 926, "pitch": 69, "duration": 6, "velocity": 99}, {"time": 932, "pitch": 52, "duration": 9, "velocity": 84}, {"time": 938, "pitch": 57, "duration": 10, "velocity": 92}, {"time": 938, "pitch": 61, "duration": 9, "velocity": 92}, {"time": 938, "pitch": 68, "duration": 6, "velocity": 95}, {"time": 944, "pitch": 52, "duration": 8, "velocity": 86}, {"time": 950, "pitch": 57, "duration": 3, "velocity": 97}, {"time": 950, "pitch": 61, "duration": 4, "velocity": 98}, {"time": 950, "pitch": 66, "duration": 7, "velocity": 96}, {"time": 956, "pitch": 64, "duration": 6, "velocity": 96}, {"time": 962, "pitch": 44, "duration": 16, "velocity": 98}, {"time": 962, "pitch": 66, "duration": 23, "velocity": 96}, {"time": 968, "pitch": 51, "duration": 7, "velocity": 97}, {"time": 974, "pitch": 54, "duration": 11, "velocity": 99}, {"time": 974, "pitch": 59, "duration": 11, "velocity": 92}, {"time": 980, "pitch": 44, "duration": 4, "velocity": 44}, {"time": 980, "pitch": 51, "duration": 6, "velocity": 91}, {"time": 986, "pitch": 44, "duration": 15, "velocity": 97}, {"time": 986, "pitch": 54, "duration": 3, "velocity": 92}, {"time": 986, "pitch": 59, "duration": 6, "velocity": 96}, {"time": 992, "pitch": 51, "duration": 7, "velocity": 85}, {"time": 998, "pitch": 56, "duration": 6, "velocity": 97}, {"time": 998, "pitch": 68, "duration": 6, "velocity": 97}, {"time": 1004, "pitch": 44, "duration": 2, "velocity": 96}, {"time": 1004, "pitch": 51, "duration": 1, "velocity": 89}, {"time": 1010, "pitch": 42, "duration": 1, "velocity": 95}, {"time": 1010, "pitch": 54, "duration": 3, "velocity": 89}, {"time": 1010, "pitch": 57, "duration": 4, "velocity": 86}, {"time": 1010, "pitch": 61, "duration": 5, "velocity": 91}, {"time": 1016, "pitch": 54, "duration": 9, "velocity": 95}, {"time": 1022, "pitch": 61, "duration": 3, "velocity": 98}, {"time": 1025, "pitch": 66, "duration": 2, "velocity": 101}, {"time": 1028, "pitch": 68, "duration": 3, "velocity": 98}, {"time": 1031, "pitch": 69, "duration": 2, "velocity": 103}, {"time": 1034, "pitch": 47, "duration": 15, "velocity": 99}, {"time": 1034, "pitch": 66, "duration": 3, "velocity": 93}, {"time": 1034, "pitch": 69, "duration": 4, "velocity": 91}, {"time": 1040, "pitch": 54, "duration": 8, "velocity": 89}, {"time": 1046, "pitch": 59, "duration": 10, "velocity": 102}, {"time": 1046, "pitch": 63, "duration": 6, "velocity": 113}, {"time": 1058, "pitch": 40, "duration": 1, "velocity": 97}, {"time": 1058, "pitch": 59, "duration": 4, "velocity": 97}, {"time": 1058, "pitch": 68, "duration": 17, "velocity": 95}, {"time": 1064, "pitch": 52, "duration": 16, "velocity": 96}, {"time": 1070, "pitch": 59, "duration": 9, "velocity": 102}, {"time": 1076, "pitch": 66, "duration": 3, "velocity": 112}, {"time": 1079, "pitch": 68, "duration": 1, "velocity": 105}, {"time": 1082, "pitch": 52, "duration": 17, "velocity": 99}, {"time": 1082, "pitch": 59, "duration": 14, "velocity": 97}, {"time": 1082, "pitch": 64, "duration": 7, "velocity": 97}, {"time": 1082, "pitch": 69, "duration": 7, "velocity": 110}, {"time": 1094, "pitch": 64, "duration": 10, "velocity": 102}, {"time": 1094, "pitch": 71, "duration": 7, "velocity": 110}, {"time": 1106, "pitch": 45, "duration": 20, "velocity": 99}, {"time": 1106, "pitch": 64, "duration": 12, "velocity": 96}, {"time": 1106, "pitch": 69, "duration": 14, "velocity": 97}, {"time": 1106, "pitch": 73, "duration": 15, "velocity": 98}, {"time": 1118, "pitch": 52, "duration": 7, "velocity": 83}, {"time": 1121, "pitch": 64, "duration": 4, "velocity": 96}, {"time": 1124, "pitch": 69, "duration": 3, "velocity": 110}, {"time": 1130, "pitch": 45, "duration": 15, "velocity": 92}, {"time": 1130, "pitch": 64, "duration": 6, "velocity": 91}, {"time": 1130, "pitch": 69, "duration": 7, "velocity": 90}, {"time": 1142, "pitch": 64, "duration": 3, "velocity": 96}, {"time": 1142, "pitch": 69, "duration": 3, "velocity": 103}, {"time": 1142, "pitch": 73, "duration": 12, "velocity": 103}, {"time": 1154, "pitch": 44, "duration": 22, "velocity": 97}, {"time": 1154, "pitch": 66, "duration": 4, "velocity": 86}, {"time": 1154, "pitch": 71, "duration": 5, "velocity": 90}, {"time": 1160, "pitch": 51, "duration": 7, "velocity": 97}, {"time": 1166, "pitch": 59, "duration": 5, "velocity": 100}, {"time": 1166, "pitch": 63, "duration": 5, "velocity": 113}, {"time": 1172, "pitch": 51, "duration": 4, "velocity": 88}, {"time": 1178, "pitch": 44, "duration": 12, "velocity": 91}, {"time": 1178, "pitch": 61, "duration": 1, "velocity": 84}, {"time": 1184, "pitch": 51, "duration": 4, "velocity": 83}, {"time": 1190, "pitch": 49, "duration": 9, "velocity": 103}, {"time": 1190, "pitch": 56, "duration": 7, "velocity": 98}, {"time": 1190, "pitch": 61, "duration": 9, "velocity": 102}, {"time": 1202, "pitch": 42, "duration": 14, "velocity": 97}, {"time": 1202, "pitch": 54, "duration": 4, "velocity": 97}, {"time": 1202, "pitch": 57, "duration": 5, "velocity": 96}, {"time": 1202, "pitch": 61, "duration": 4, "velocity": 96}, {"time": 1208, "pitch": 49, "duration": 8, "velocity": 69}, {"time": 1214, "pitch": 52, "duration": 4, "velocity": 102}, {"time": 1214, "pitch": 57, "duration": 4, "velocity": 103}, {"time": 1226, "pitch": 47, "duration": 3, "velocity": 96}, {"time": 1226, "pitch": 54, "duration": 4, "velocity": 94}, {"time": 1226, "pitch": 59, "duration": 5, "velocity": 94}, {"time": 1232, "pitch": 47, "duration": 10, "velocity": 96}, {"time": 1238, "pitch": 59, "duration": 9, "velocity": 101}, {"time": 1238, "pitch": 63, "duration": 10, "velocity": 113}, {"time": 1250, "pitch": 45, "duration": 13, "velocity": 105}, {"time": 1250, "pitch": 64, "duration": 6, "velocity": 91}, {"time": 1250, "pitch": 69, "duration": 6, "velocity": 105}, {"time": 1250, "pitch": 73, "duration": 8, "velocity": 111}, {"time": 1259, "pitch": 64, "duration": 3, "velocity": 103}, {"time": 1259, "pitch": 71, "duration": 4, "velocity": 105}, {"time": 1268, "pitch": 68, "duration": 1, "velocity": 102}, {"time": 1274, "pitch": 45, "duration": 21, "velocity": 95}, {"time": 1274, "pitch": 64, "duration": 22, "velocity": 95}, {"time": 1274, "pitch": 69, "duration": 22, "velocity": 98}, {"time": 1274, "pitch": 72, "duration": 22, "velocity": 97}, {"time": 1298, "pitch": 44, "duration": 1, "velocity": 105}, {"time": 1298, "pitch": 54, "duration": 3, "velocity": 89}, {"time": 1298, "pitch": 59, "duration": 3, "velocity": 100}, {"time": 1307, "pitch": 56, "duration": 6, "velocity": 100}, {"time": 1307, "pitch": 63, "duration": 6, "velocity": 105}, {"time": 1307, "pitch": 66, "duration": 9, "velocity": 99}, {"time": 1307, "pitch": 71, "duration": 8, "velocity": 103}, {"time": 1322, "pitch": 49, "duration": 10, "velocity": 109}, {"time": 1322, "pitch": 59, "duration": 6, "velocity": 106}, {"time": 1322, "pitch": 65, "duration": 8, "velocity": 99}, {"time": 1334, "pitch": 49, "duration": 5, "velocity": 109}, {"time": 1334, "pitch": 56, "duration": 5, "velocity": 101}, {"time": 1334, "pitch": 61, "duration": 6, "velocity": 106}, {"time": 1334, "pitch": 65, "duration": 6, "velocity": 106}, {"time": 1334, "pitch": 68, "duration": 6, "velocity": 102}, {"time": 1334, "pitch": 71, "duration": 8, "velocity": 105}, {"time": 1343, "pitch": 54, "duration": 2, "velocity": 94}, {"time": 1346, "pitch": 42, "duration": 10, "velocity": 106}, {"time": 1346, "pitch": 57, "duration": 2, "velocity": 91}, {"time": 1346, "pitch": 61, "duration": 5, "velocity": 100}, {"time": 1346, "pitch": 66, "duration": 7, "velocity": 105}, {"time": 1349, "pitch": 49, "duration": 7, "velocity": 100}, {"time": 1352, "pitch": 54, "duration": 4, "velocity": 116}, {"time": 1352, "pitch": 61, "duration": 1, "velocity": 74}, {"time": 1358, "pitch": 44, "duration": 10, "velocity": 107}, {"time": 1358, "pitch": 54, "duration": 3, "velocity": 107}, {"time": 1358, "pitch": 59, "duration": 6, "velocity": 104}, {"time": 1361, "pitch": 51, "duration": 7, "velocity": 105}, {"time": 1364, "pitch": 54, "duration": 5, "velocity": 106}, {"time": 1367, "pitch": 59, "duration": 3, "velocity": 99}, {"time": 1370, "pitch": 45, "duration": 15, "velocity": 107}, {"time": 1373, "pitch": 52, "duration": 7, "velocity": 96}, {"time": 1376, "pitch": 57, "duration": 4, "velocity": 107}, {"time": 1379, "pitch": 64, "duration": 7, "velocity": 106}, {"time": 1382, "pitch": 52, "duration": 4, "velocity": 95}, {"time": 1385, "pitch": 57, "duration": 1, "velocity": 90}, {"time": 1385, "pitch": 61, "duration": 2, "velocity": 102}, {"time": 1394, "pitch": 35, "duration": 21, "velocity": 103}, {"time": 1394, "pitch": 59, "duration": 16, "velocity": 96}, {"time": 1394, "pitch": 63, "duration": 15, "velocity": 97}, {"time": 1394, "pitch": 66, "duration": 15, "velocity": 102}, {"time": 1394, "pitch": 71, "duration": 15, "velocity": 96}, {"time": 1415, "pitch": 83, "duration": 25, "velocity": 98}, {"time": 1418, "pitch": 35, "duration": 13, "velocity": 99}, {"time": 1418, "pitch": 71, "duration": 23, "velocity": 98}, {"time": 1418, "pitch": 75, "duration": 24, "velocity": 106}, {"time": 1418, "pitch": 78, "duration": 24, "velocity": 103}, {"time": 1442, "pitch": 45, "duration": 22, "velocity": 95}, {"time": 1442, "pitch": 57, "duration": 3, "velocity": 87}, {"time": 1442, "pitch": 61, "duration": 7, "velocity": 96}, {"time": 1442, "pitch": 64, "duration": 6, "velocity": 91}, {"time": 1448, "pitch": 57, "duration": 4, "velocity": 76}, {"time": 1454, "pitch": 57, "duration": 3, "velocity": 92}, {"time": 1454, "pitch": 61, "duration": 5, "velocity": 96}, {"time": 1454, "pitch": 64, "duration": 10, "velocity": 95}, {"time": 1466, "pitch": 45, "duration": 22, "velocity": 91}, {"time": 1466, "pitch": 57, "duration": 3, "velocity": 88}, {"time": 1466, "pitch": 60, "duration": 9, "velocity": 88}, {"time": 1472, "pitch": 57, "duration": 3, "velocity": 70}, {"time": 1478, "pitch": 57, "duration": 6, "velocity": 92}, {"time": 1478, "pitch": 60, "duration": 6, "velocity": 97}, {"time": 1478, "pitch": 64, "duration": 7, "velocity": 92}, {"time": 1490, "pitch": 44, "duration": 23, "velocity": 96}, {"time": 1490, "pitch": 54, "duration": 9, "velocity": 95}, {"time": 1490, "pitch": 59, "duration": 7, "velocity": 93}, {"time": 1496, "pitch": 51, "duration": 14, "velocity": 84}, {"time": 1502, "pitch": 54, "duration": 3, "velocity": 97}, {"time": 1502, "pitch": 63, "duration": 10, "velocity": 96}, {"time": 1508, "pitch": 54, "duration": 2, "velocity": 92}, {"time": 1514, "pitch": 49, "duration": 17, "velocity": 100}, {"time": 1514, "pitch": 56, "duration": 2, "velocity": 95}, {"time": 1514, "pitch": 61, "duration": 10, "velocity": 96}, {"time": 1520, "pitch": 56, "duration": 6, "velocity": 95}, {"time": 1526, "pitch": 64, "duration": 6, "velocity": 102}, {"time": 1532, "pitch": 63, "duration": 6, "velocity": 97}, {"time": 1538, "pitch": 42, "duration": 21, "velocity": 96}, {"time": 1538, "pitch": 61, "duration": 7, "velocity": 89}, {"time": 1544, "pitch": 49, "duration": 12, "velocity": 93}, {"time": 1550, "pitch": 54, "duration": 2, "velocity": 95}, {"time": 1550, "pitch": 57, "duration": 6, "velocity": 97}, {"time": 1550, "pitch": 61, "duration": 8, "velocity": 96}, {"time": 1556, "pitch": 54, "duration": 4, "velocity": 91}, {"time": 1562, "pitch": 47, "duration": 19, "velocity": 96}, {"time": 1562, "pitch": 54, "duration": 2, "velocity": 95}, {"time": 1562, "pitch": 59, "duration": 7, "velocity": 95}, {"time": 1568, "pitch": 54, "duration": 4, "velocity": 89}, {"time": 1574, "pitch": 54, "duration": 4, "velocity": 97}, {"time": 1574, "pitch": 59, "duration": 6, "velocity": 95}, {"time": 1580, "pitch": 57, "duration": 6, "velocity": 102}, {"time": 1586, "pitch": 40, "duration": 1, "velocity": 95}, {"time": 1586, "pitch": 52, "duration": 3, "velocity": 92}, {"time": 1586, "pitch": 56, "duration": 4, "velocity": 92}, {"time": 1592, "pitch": 52, "duration": 16, "velocity": 89}, {"time": 1598, "pitch": 59, "duration": 10, "velocity": 102}, {"time": 1604, "pitch": 64, "duration": 3, "velocity": 87}, {"time": 1607, "pitch": 66, "duration": 2, "velocity": 91}, {"time": 1610, "pitch": 52, "duration": 18, "velocity": 100}, {"time": 1610, "pitch": 64, "duration": 7, "velocity": 95}, {"time": 1610, "pitch": 68, "duration": 8, "velocity": 94}, {"time": 1616, "pitch": 59, "duration": 5, "velocity": 82}, {"time": 1622, "pitch": 59, "duration": 6, "velocity": 96}, {"time": 1628, "pitch": 64, "duration": 5, "velocity": 106}, {"time": 1634, "pitch": 45, "duration": 21, "velocity": 100}, {"time": 1634, "pitch": 64, "duration": 9, "velocity": 93}, {"time": 1634, "pitch": 69, "duration": 9, "velocity": 87}, {"time": 1640, "pitch": 52, "duration": 16, "velocity": 80}, {"time": 1646, "pitch": 64, "duration": 10, "velocity": 97}, {"time": 1646, "pitch": 69, "duration": 9, "velocity": 102}, {"time": 1658, "pitch": 45, "duration": 22, "velocity": 87}, {"time": 1658, "pitch": 64, "duration": 5, "velocity": 92}, {"time": 1658, "pitch": 69, "duration": 9, "velocity": 93}, {"time": 1658, "pitch": 72, "duration": 9, "velocity": 86}, {"time": 1664, "pitch": 64, "duration": 3, "velocity": 76}, {"time": 1670, "pitch": 64, "duration": 4, "velocity": 90}, {"time": 1670, "pitch": 72, "duration": 12, "velocity": 95}, {"time": 1682, "pitch": 44, "duration": 22, "velocity": 95}, {"time": 1682, "pitch": 68, "duration": 8, "velocity": 86}, {"time": 1688, "pitch": 51, "duration": 8, "velocity": 88}, {"time": 1694, "pitch": 56, "duration": 4, "velocity": 93}, {"time": 1694, "pitch": 59, "duration": 6, "velocity": 96}, {"time": 1694, "pitch": 63, "duration": 11, "velocity": 97}, {"time": 1700, "pitch": 51, "duration": 4, "velocity": 95}, {"time": 1706, "pitch": 49, "duration": 18, "velocity": 91}, {"time": 1706, "pitch": 56, "duration": 3, "velocity": 93}, {"time": 1706, "pitch": 61, "duration": 10, "velocity": 93}, {"time": 1712, "pitch": 56, "duration": 4, "velocity": 83}, {"time": 1718, "pitch": 56, "duration": 2, "velocity": 96}, {"time": 1718, "pitch": 61, "duration": 6, "velocity": 97}, {"time": 1718, "pitch": 65, "duration": 6, "velocity": 104}, {"time": 1724, "pitch": 56, "duration": 1, "velocity": 96}, {"time": 1730, "pitch": 42, "duration": 22, "velocity": 95}, {"time": 1730, "pitch": 54, "duration": 10, "velocity": 94}, {"time": 1730, "pitch": 57, "duration": 8, "velocity": 88}, {"time": 1730, "pitch": 61, "duration": 8, "velocity": 96}, {"time": 1736, "pitch": 49, "duration": 15, "velocity": 79}, {"time": 1742, "pitch": 57, "duration": 6, "velocity": 100}, {"time": 1742, "pitch": 61, "duration": 9, "velocity": 97}, {"time": 1748, "pitch": 54, "duration": 4, "velocity": 92}, {"time": 1754, "pitch": 47, "duration": 20, "velocity": 95}, {"time": 1754, "pitch": 54, "duration": 3, "velocity": 96}, {"time": 1754, "pitch": 59, "duration": 6, "velocity": 95}, {"time": 1760, "pitch": 54, "duration": 4, "velocity": 88}, {"time": 1766, "pitch": 54, "duration": 4, "velocity": 98}, {"time": 1766, "pitch": 59, "duration": 5, "velocity": 97}, {"time": 1772, "pitch": 57, "duration": 5, "velocity": 104}, {"time": 1778, "pitch": 40, "duration": 22, "velocity": 96}, {"time": 1778, "pitch": 52, "duration": 13, "velocity": 90}, {"time": 1778, "pitch": 56, "duration": 7, "velocity": 92}, {"time": 1784, "pitch": 47, "duration": 15, "velocity": 85}, {"time": 1790, "pitch": 64, "duration": 4, "velocity": 101}, {"time": 1793, "pitch": 59, "duration": 6, "velocity": 97}, {"time": 1796, "pitch": 56, "duration": 3, "velocity": 83}, {"time": 1799, "pitch": 52, "duration": 1, "velocity": 84}, {"time": 1802, "pitch": 40, "duration": 23, "velocity": 99}, {"time": 1802, "pitch": 52, "duration": 5, "velocity": 93}, {"time": 1802, "pitch": 56, "duration": 6, "velocity": 95}, {"time": 1802, "pitch": 59, "duration": 9, "velocity": 95}, {"time": 1808, "pitch": 47, "duration": 7, "velocity": 96}, {"time": 1811, "pitch": 52, "duration": 2, "velocity": 98}, {"time": 1814, "pitch": 52, "duration": 3, "velocity": 102}, {"time": 1814, "pitch": 56, "duration": 5, "velocity": 109}, {"time": 1814, "pitch": 59, "duration": 6, "velocity": 111}, {"time": 1814, "pitch": 64, "duration": 5, "velocity": 99}, {"time": 1817, "pitch": 47, "duration": 8, "velocity": 98}, {"time": 1820, "pitch": 52, "duration": 4, "velocity": 101}, {"time": 1823, "pitch": 56, "duration": 2, "velocity": 88}, {"time": 1826, "pitch": 45, "duration": 17, "velocity": 88}, {"time": 1826, "pitch": 64, "duration": 2, "velocity": 93}, {"time": 1826, "pitch": 69, "duration": 7, "velocity": 88}, {"time": 1826, "pitch": 72, "duration": 7, "velocity": 86}, {"time": 1832, "pitch": 64, "duration": 3, "velocity": 81}, {"time": 1838, "pitch": 64, "duration": 2, "velocity": 100}, {"time": 1838, "pitch": 69, "duration": 6, "velocity": 104}, {"time": 1838, "pitch": 72, "duration": 6, "velocity": 100}, {"time": 1844, "pitch": 64, "duration": 1, "velocity": 92}, {"time": 1850, "pitch": 47, "duration": 10, "velocity": 98}, {"time": 1850, "pitch": 59, "duration": 2, "velocity": 86}, {"time": 1850, "pitch": 61, "duration": 6, "velocity": 92}, {"time": 1850, "pitch": 66, "duration": 10, "velocity": 95}, {"time": 1856, "pitch": 58, "duration": 2, "velocity": 84}, {"time": 1856, "pitch": 59, "duration": 3, "velocity": 84}, {"time": 1862, "pitch": 47, "duration": 7, "velocity": 97}, {"time": 1862, "pitch": 54, "duration": 6, "velocity": 95}, {"time": 1862, "pitch": 59, "duration": 3, "velocity": 96}, {"time": 1862, "pitch": 63, "duration": 6, "velocity": 100}, {"time": 1868, "pitch": 59, "duration": 5, "velocity": 92}, {"time": 1874, "pitch": 40, "duration": 1, "velocity": 95}, {"time": 1874, "pitch": 59, "duration": 3, "velocity": 95}, {"time": 1874, "pitch": 64, "duration": 6, "velocity": 91}, {"time": 1874, "pitch": 68, "duration": 8, "velocity": 91}, {"time": 1880, "pitch": 52, "duration": 16, "velocity": 91}, {"time": 1886, "pitch": 59, "duration": 10, "velocity": 104}, {"time": 1889, "pitch": 64, "duration": 3, "velocity": 102}, {"time": 1892, "pitch": 66, "duration": 3, "velocity": 101}, {"time": 1895, "pitch": 68, "duration": 1, "velocity": 96}, {"time": 1898, "pitch": 52, "duration": 19, "velocity": 97}, {"time": 1898, "pitch": 64, "duration": 10, "velocity": 91}, {"time": 1898, "pitch": 69, "duration": 5, "velocity": 94}, {"time": 1904, "pitch": 59, "duration": 12, "velocity": 96}, {"time": 1910, "pitch": 64, "duration": 7, "velocity": 98}, {"time": 1910, "pitch": 68, "duration": 7, "velocity": 100}, {"time": 1916, "pitch": 66, "duration": 3, "velocity": 102}, {"time": 1919, "pitch": 64, "duration": 2, "velocity": 93}, {"time": 1922, "pitch": 42, "duration": 4, "velocity": 95}, {"time": 1922, "pitch": 66, "duration": 9, "velocity": 93}, {"time": 1922, "pitch": 69, "duration": 9, "velocity": 96}, {"time": 1928, "pitch": 54, "duration": 10, "velocity": 94}, {"time": 1934, "pitch": 66, "duration": 2, "velocity": 95}, {"time": 1934, "pitch": 73, "duration": 12, "velocity": 99}, {"time": 1946, "pitch": 47, "duration": 18, "velocity": 98}, {"time": 1946, "pitch": 66, "duration": 3, "velocity": 91}, {"time": 1946, "pitch": 71, "duration": 4, "velocity": 91}, {"time": 1952, "pitch": 54, "duration": 7, "velocity": 94}, {"time": 1958, "pitch": 59, "duration": 6, "velocity": 102}, {"time": 1958, "pitch": 63, "duration": 6, "velocity": 111}, {"time": 1964, "pitch": 54, "duration": 1, "velocity": 90}, {"time": 1970, "pitch": 40, "duration": 18, "velocity": 96}, {"time": 1970, "pitch": 59, "duration": 10, "velocity": 96}, {"time": 1970, "pitch": 64, "duration": 10, "velocity": 96}, {"time": 1976, "pitch": 47, "duration": 7, "velocity": 96}, {"time": 1982, "pitch": 59, "duration": 3, "velocity": 106}, {"time": 1982, "pitch": 64, "duration": 6, "velocity": 109}, {"time": 1985, "pitch": 47, "duration": 3, "velocity": 95}, {"time": 1988, "pitch": 59, "duration": 3, "velocity": 97}, {"time": 1991, "pitch": 64, "duration": 1, "velocity": 89}, {"time": 1994, "pitch": 47, "duration": 11, "velocity": 102}, {"time": 1994, "pitch": 59, "duration": 3, "velocity": 97}, {"time": 1994, "pitch": 62, "duration": 6, "velocity": 111}, {"time": 1997, "pitch": 54, "duration": 8, "velocity": 90}, {"time": 2000, "pitch": 59, "duration": 4, "velocity": 97}, {"time": 2003, "pitch": 62, "duration": 2, "velocity": 97}, {"time": 2006, "pitch": 52, "duration": 5, "velocity": 111}, {"time": 2006, "pitch": 59, "duration": 3, "velocity": 98}, {"time": 2006, "pitch": 64, "duration": 6, "velocity": 100}, {"time": 2009, "pitch": 56, "duration": 4, "velocity": 97}, {"time": 2012, "pitch": 59, "duration": 3, "velocity": 109}, {"time": 2015, "pitch": 64, "duration": 10, "velocity": 95}, {"time": 2018, "pitch": 45, "duration": 16, "velocity": 101}, {"time": 2021, "pitch": 52, "duration": 12, "velocity": 88}, {"time": 2024, "pitch": 57, "duration": 5, "velocity": 96}, {"time": 2030, "pitch": 57, "duration": 4, "velocity": 102}, {"time": 2030, "pitch": 64, "duration": 5, "velocity": 97}, {"time": 2042, "pitch": 45, "duration": 14, "velocity": 86}, {"time": 2042, "pitch": 57, "duration": 9, "velocity": 89}, {"time": 2042, "pitch": 60, "duration": 8, "velocity": 87}, {"time": 2048, "pitch": 52, "duration": 8, "velocity": 76}, {"time": 2054, "pitch": 57, "duration": 4, "velocity": 104}, {"time": 2054, "pitch": 64, "duration": 11, "velocity": 97}, {"time": 2060, "pitch": 45, "duration": 2, "velocity": 101}, {"time": 2066, "pitch": 44, "duration": 15, "velocity": 96}, {"time": 2066, "pitch": 54, "duration": 9, "velocity": 97}, {"time": 2066, "pitch": 59, "duration": 8, "velocity": 97}, {"time": 2072, "pitch": 51, "duration": 10, "velocity": 81}, {"time": 2078, "pitch": 54, "duration": 4, "velocity": 101}, {"time": 2078, "pitch": 63, "duration": 5, "velocity": 100}, {"time": 2084, "pitch": 44, "duration": 4, "velocity": 95}, {"time": 2090, "pitch": 49, "duration": 10, "velocity": 100}, {"time": 2090, "pitch": 56, "duration": 4, "velocity": 91}, {"time": 2090, "pitch": 59, "duration": 6, "velocity": 91}, {"time": 2096, "pitch": 56, "duration": 4, "velocity": 88}, {"time": 2102, "pitch": 49, "duration": 5, "velocity": 102}, {"time": 2102, "pitch": 56, "duration": 3, "velocity": 96}, {"time": 2102, "pitch": 59, "duration": 5, "velocity": 91}, {"time": 2102, "pitch": 65, "duration": 5, "velocity": 96}, {"time": 2108, "pitch": 56, "duration": 1, "velocity": 85}, {"time": 2114, "pitch": 42, "duration": 16, "velocity": 97}, {"time": 2114, "pitch": 54, "duration": 9, "velocity": 91}, {"time": 2114, "pitch": 57, "duration": 8, "velocity": 83}, {"time": 2114, "pitch": 61, "duration": 9, "velocity": 92}, {"time": 2120, "pitch": 49, "duration": 10, "velocity": 81}, {"time": 2126, "pitch": 54, "duration": 2, "velocity": 96}, {"time": 2126, "pitch": 57, "duration": 6, "velocity": 102}, {"time": 2126, "pitch": 61, "duration": 6, "velocity": 95}, {"time": 2132, "pitch": 54, "duration": 1, "velocity": 100}, {"time": 2138, "pitch": 45, "duration": 8, "velocity": 112}, {"time": 2138, "pitch": 52, "duration": 1, "velocity": 98}, {"time": 2138, "pitch": 57, "duration": 2, "velocity": 101}, {"time": 2138, "pitch": 61, "duration": 2, "velocity": 97}, {"time": 2144, "pitch": 52, "duration": 6, "velocity": 81}, {"time": 2150, "pitch": 57, "duration": 3, "velocity": 97}, {"time": 2150, "pitch": 61, "duration": 3, "velocity": 102}, {"time": 2150, "pitch": 64, "duration": 4, "velocity": 98}, {"time": 2156, "pitch": 45, "duration": 1, "velocity": 102}, {"time": 2162, "pitch": 35, "duration": 1, "velocity": 97}, {"time": 2162, "pitch": 59, "duration": 3, "velocity": 101}, {"time": 2162, "pitch": 63, "duration": 3, "velocity": 102}, {"time": 2168, "pitch": 47, "duration": 2, "velocity": 96}, {"time": 2168, "pitch": 59, "duration": 2, "velocity": 84}, {"time": 2168, "pitch": 63, "duration": 1, "velocity": 89}, {"time": 2168, "pitch": 66, "duration": 2, "velocity": 88}, {"time": 2174, "pitch": 47, "duration": 2, "velocity": 101}, {"time": 2174, "pitch": 54, "duration": 3, "velocity": 96}, {"time": 2174, "pitch": 59, "duration": 2, "velocity": 99}, {"time": 2174, "pitch": 71, "duration": 1, "velocity": 96}, {"time": 2180, "pitch": 47, "duration": 4, "velocity": 96}, {"time": 2186, "pitch": 35, "duration": 2, "velocity": 91}, {"time": 2186, "pitch": 63, "duration": 2, "velocity": 94}, {"time": 2186, "pitch": 66, "duration": 2, "velocity": 91}, {"time": 2186, "pitch": 71, "duration": 2, "velocity": 95}, {"time": 2189, "pitch": 35, "duration": 1, "velocity": 92}, {"time": 2189, "pitch": 63, "duration": 1, "velocity": 103}, {"time": 2189, "pitch": 66, "duration": 1, "velocity": 101}, {"time": 2189, "pitch": 71, "duration": 1, "velocity": 104}, {"time": 2198, "pitch": 47, "duration": 4, "velocity": 99}, {"time": 2198, "pitch": 54, "duration": 3, "velocity": 98}, {"time": 2198, "pitch": 59, "duration": 4, "velocity": 99}, {"time": 2198, "pitch": 63, "duration": 4, "velocity": 103}, {"time": 2210, "pitch": 45, "duration": 14, "velocity": 108}, {"time": 2210, "pitch": 57, "duration": 9, "velocity": 97}, {"time": 2210, "pitch": 61, "duration": 9, "velocity": 98}, {"time": 2216, "pitch": 52, "duration": 7, "velocity": 78}, {"time": 2222, "pitch": 57, "duration": 4, "velocity": 98}, {"time": 2222, "pitch": 61, "duration": 4, "velocity": 102}, {"time": 2222, "pitch": 64, "duration": 4, "velocity": 99}, {"time": 2228, "pitch": 52, "duration": 5, "velocity": 92}, {"time": 2234, "pitch": 45, "duration": 15, "velocity": 103}, {"time": 2234, "pitch": 57, "duration": 6, "velocity": 88}, {"time": 2234, "pitch": 61, "duration": 7, "velocity": 101}, {"time": 2240, "pitch": 52, "duration": 7, "velocity": 91}, {"time": 2243, "pitch": 57, "duration": 1, "velocity": 88}, {"time": 2246, "pitch": 57, "duration": 3, "velocity": 97}, {"time": 2246, "pitch": 61, "duration": 3, "velocity": 100}, {"time": 2246, "pitch": 64, "duration": 4, "velocity": 98}, {"time": 2249, "pitch": 52, "duration": 2, "velocity": 99}, {"time": 2252, "pitch": 57, "duration": 4, "velocity": 97}, {"time": 2255, "pitch": 61, "duration": 1, "velocity": 87}, {"time": 2258, "pitch": 44, "duration": 22, "velocity": 99}, {"time": 2258, "pitch": 54, "duration": 6, "velocity": 104}, {"time": 2258, "pitch": 59, "duration": 9, "velocity": 106}, {"time": 2264, "pitch": 51, "duration": 6, "velocity": 96}, {"time": 2267, "pitch": 54, "duration": 1, "velocity": 94}, {"time": 2270, "pitch": 54, "duration": 3, "velocity": 108}, {"time": 2270, "pitch": 59, "duration": 4, "velocity": 106}, {"time": 2273, "pitch": 51, "duration": 7, "velocity": 98}, {"time": 2276, "pitch": 54, "duration": 5, "velocity": 96}, {"time": 2279, "pitch": 59, "duration": 2, "velocity": 92}, {"time": 2282, "pitch": 44, "duration": 22, "velocity": 100}, {"time": 2282, "pitch": 54, "duration": 3, "velocity": 98}, {"time": 2282, "pitch": 59, "duration": 4, "velocity": 98}, {"time": 2285, "pitch": 51, "duration": 9, "velocity": 90}, {"time": 2288, "pitch": 63, "duration": 1, "velocity": 87}, {"time": 2291, "pitch": 54, "duration": 4, "velocity": 89}, {"time": 2291, "pitch": 59, "duration": 4, "velocity": 97}, {"time": 2291, "pitch": 63, "duration": 4, "velocity": 99}, {"time": 2294, "pitch": 51, "duration": 4, "velocity": 108}, {"time": 2297, "pitch": 54, "duration": 3, "velocity": 99}, {"time": 2297, "pitch": 59, "duration": 3, "velocity": 92}, {"time": 2300, "pitch": 51, "duration": 3, "velocity": 101}, {"time": 2303, "pitch": 54, "duration": 1, "velocity": 101}, {"time": 2306, "pitch": 42, "duration": 22, "velocity": 100}, {"time": 2306, "pitch": 54, "duration": 9, "velocity": 90}, {"time": 2306, "pitch": 57, "duration": 8, "velocity": 90}, {"time": 2312, "pitch": 49, "duration": 6, "velocity": 97}, {"time": 2318, "pitch": 54, "duration": 2, "velocity": 103}, {"time": 2318, "pitch": 61, "duration": 4, "velocity": 101}, {"time": 2321, "pitch": 49, "duration": 6, "velocity": 95}, {"time": 2324, "pitch": 54, "duration": 4, "velocity": 103}, {"time": 2324, "pitch": 61, "duration": 1, "velocity": 43}, {"time": 2327, "pitch": 57, "duration": 1, "velocity": 91}, {"time": 2330, "pitch": 47, "duration": 10, "velocity": 106}, {"time": 2330, "pitch": 54, "duration": 2, "velocity": 100}, {"time": 2330, "pitch": 59, "duration": 6, "velocity": 100}, {"time": 2336, "pitch": 54, "duration": 2, "velocity": 90}, {"time": 2339, "pitch": 54, "duration": 4, "velocity": 104}, {"time": 2339, "pitch": 63, "duration": 5, "velocity": 101}, {"time": 2342, "pitch": 47, "duration": 5, "velocity": 103}, {"time": 2345, "pitch": 61, "duration": 3, "velocity": 106}, {"time": 2348, "pitch": 59, "duration": 4, "velocity": 94}, {"time": 2354, "pitch": 40, "duration": 21, "velocity": 98}, {"time": 2354, "pitch": 56, "duration": 6, "velocity": 98}, {"time": 2354, "pitch": 59, "duration": 6, "velocity": 102}, {"time": 2360, "pitch": 47, "duration": 7, "velocity": 82}, {"time": 2363, "pitch": 56, "duration": 1, "velocity": 91}, {"time": 2363, "pitch": 64, "duration": 1, "velocity": 97}, {"time": 2366, "pitch": 56, "duration": 2, "velocity": 108}, {"time": 2366, "pitch": 64, "duration": 3, "velocity": 104}, {"time": 2369, "pitch": 47, "duration": 5, "velocity": 97}, {"time": 2372, "pitch": 56, "duration": 1, "velocity": 98}, {"time": 2375, "pitch": 56, "duration": 1, "velocity": 92}, {"time": 2375, "pitch": 59, "duration": 1, "velocity": 92}, {"time": 2378, "pitch": 40, "duration": 17, "velocity": 100}, {"time": 2378, "pitch": 56, "duration": 4, "velocity": 98}, {"time": 2378, "pitch": 59, "duration": 6, "velocity": 98}, {"time": 2384, "pitch": 47, "duration": 6, "velocity": 98}, {"time": 2387, "pitch": 56, "duration": 1, "velocity": 86}, {"time": 2387, "pitch": 62, "duration": 1, "velocity": 89}, {"time": 2390, "pitch": 56, "duration": 4, "velocity": 101}, {"time": 2390, "pitch": 62, "duration": 2, "velocity": 106}, {"time": 2393, "pitch": 47, "duration": 2, "velocity": 91}, {"time": 2396, "pitch": 59, "duration": 2, "velocity": 98}, {"time": 2402, "pitch": 45, "duration": 18, "velocity": 106}, {"time": 2402, "pitch": 57, "duration": 7, "velocity": 97}, {"time": 2402, "pitch": 61, "duration": 9, "velocity": 97}, {"time": 2408, "pitch": 52, "duration": 7, "velocity": 81}, {"time": 2414, "pitch": 57, "duration": 3, "velocity": 100}, {"time": 2414, "pitch": 61, "duration": 4, "velocity": 98}, {"time": 2414, "pitch": 64, "duration": 4, "velocity": 92}, {"time": 2417, "pitch": 52, "duration": 5, "velocity": 89}, {"time": 2420, "pitch": 57, "duration": 1, "velocity": 85}, {"time": 2423, "pitch": 57, "duration": 1, "velocity": 97}, {"time": 2423, "pitch": 61, "duration": 1, "velocity": 95}, {"time": 2426, "pitch": 45, "duration": 10, "velocity": 101}, {"time": 2426, "pitch": 52, "duration": 10, "velocity": 97}, {"time": 2426, "pitch": 57, "duration": 5, "velocity": 100}, {"time": 2426, "pitch": 61, "duration": 7, "velocity": 98}, {"time": 2435, "pitch": 57, "duration": 3, "velocity": 101}, {"time": 2435, "pitch": 64, "duration": 7, "velocity": 103}, {"time": 2438, "pitch": 52, "duration": 5, "velocity": 101}, {"time": 2441, "pitch": 57, "duration": 4, "velocity": 103}, {"time": 2444, "pitch": 61, "duration": 3, "velocity": 97}, {"time": 2447, "pitch": 64, "duration": 2, "velocity": 92}, {"time": 2450, "pitch": 44, "duration": 14, "velocity": 100}, {"time": 2450, "pitch": 54, "duration": 6, "velocity": 102}, {"time": 2450, "pitch": 59, "duration": 8, "velocity": 98}, {"time": 2456, "pitch": 51, "duration": 4, "velocity": 103}, {"time": 2459, "pitch": 54, "duration": 3, "velocity": 113}, {"time": 2462, "pitch": 51, "duration": 4, "velocity": 97}, {"time": 2465, "pitch": 54, "duration": 3, "velocity": 108}, {"time": 2465, "pitch": 59, "duration": 4, "velocity": 104}, {"time": 2468, "pitch": 44, "duration": 4, "velocity": 98}, {"time": 2471, "pitch": 54, "duration": 1, "velocity": 98}, {"time": 2474, "pitch": 49, "duration": 7, "velocity": 103}, {"time": 2474, "pitch": 56, "duration": 3, "velocity": 99}, {"time": 2474, "pitch": 61, "duration": 5, "velocity": 103}, {"time": 2480, "pitch": 56, "duration": 4, "velocity": 98}, {"time": 2486, "pitch": 49, "duration": 4, "velocity": 106}, {"time": 2486, "pitch": 56, "duration": 3, "velocity": 104}, {"time": 2486, "pitch": 59, "duration": 5, "velocity": 104}, {"time": 2486, "pitch": 65, "duration": 5, "velocity": 98}, {"time": 2492, "pitch": 56, "duration": 1, "velocity": 97}, {"time": 2498, "pitch": 42, "duration": 22, "velocity": 99}, {"time": 2498, "pitch": 54, "duration": 3, "velocity": 97}, {"time": 2498, "pitch": 57, "duration": 6, "velocity": 95}, {"time": 2498, "pitch": 61, "duration": 5, "velocity": 98}, {"time": 2501, "pitch": 49, "duration": 7, "velocity": 91}, {"time": 2504, "pitch": 54, "duration": 7, "velocity": 94}, {"time": 2507, "pitch": 66, "duration": 6, "velocity": 104}, {"time": 2510, "pitch": 49, "duration": 4, "velocity": 91}, {"time": 2513, "pitch": 54, "duration": 1, "velocity": 82}, {"time": 2513, "pitch": 57, "duration": 6, "velocity": 97}, {"time": 2513, "pitch": 61, "duration": 8, "velocity": 100}, {"time": 2519, "pitch": 54, "duration": 1, "velocity": 90}, {"time": 2522, "pitch": 47, "duration": 16, "velocity": 103}, {"time": 2522, "pitch": 54, "duration": 7, "velocity": 99}, {"time": 2522, "pitch": 59, "duration": 7, "velocity": 98}, {"time": 2531, "pitch": 54, "duration": 4, "velocity": 102}, {"time": 2531, "pitch": 63, "duration": 5, "velocity": 102}, {"time": 2537, "pitch": 54, "duration": 1, "velocity": 90}, {"time": 2537, "pitch": 59, "duration": 3, "velocity": 95}, {"time": 2540, "pitch": 54, "duration": 1, "velocity": 86}, {"time": 2546, "pitch": 45, "duration": 3, "velocity": 108}, {"time": 2546, "pitch": 57, "duration": 3, "velocity": 94}, {"time": 2546, "pitch": 61, "duration": 3, "velocity": 98}, {"time": 2546, "pitch": 64, "duration": 3, "velocity": 98}, {"time": 2555, "pitch": 44, "duration": 4, "velocity": 100}, {"time": 2555, "pitch": 56, "duration": 2, "velocity": 103}, {"time": 2555, "pitch": 68, "duration": 3, "velocity": 99}, {"time": 2561, "pitch": 45, "duration": 1, "velocity": 102}, {"time": 2561, "pitch": 57, "duration": 2, "velocity": 100}, {"time": 2561, "pitch": 69, "duration": 2, "velocity": 99}, {"time": 2567, "pitch": 47, "duration": 1, "velocity": 101}, {"time": 2567, "pitch": 54, "duration": 1, "velocity": 98}, {"time": 2567, "pitch": 59, "duration": 1, "velocity": 99}, {"time": 2567, "pitch": 71, "duration": 1, "velocity": 99}, {"time": 2573, "pitch": 47, "duration": 1, "velocity": 98}, {"time": 2573, "pitch": 54, "duration": 1, "velocity": 97}, {"time": 2573, "pitch": 59, "duration": 1, "velocity": 91}, {"time": 2573, "pitch": 63, "duration": 1, "velocity": 98}, {"time": 2573, "pitch": 66, "duration": 1, "velocity": 96}, {"time": 2573, "pitch": 71, "duration": 1, "velocity": 94}, {"time": 2576, "pitch": 47, "duration": 1, "velocity": 98}, {"time": 2576, "pitch": 54, "duration": 1, "velocity": 97}, {"time": 2576, "pitch": 59, "duration": 1, "velocity": 97}, {"time": 2576, "pitch": 63, "duration": 1, "velocity": 108}, {"time": 2576, "pitch": 66, "duration": 1, "velocity": 98}, {"time": 2576, "pitch": 71, "duration": 1, "velocity": 96}, {"time": 2579, "pitch": 47, "duration": 3, "velocity": 108}, {"time": 2579, "pitch": 54, "duration": 3, "velocity": 103}, {"time": 2579, "pitch": 59, "duration": 3, "velocity": 98}, {"time": 2579, "pitch": 63, "duration": 3, "velocity": 106}, {"time": 2579, "pitch": 66, "duration": 3, "velocity": 102}, {"time": 2579, "pitch": 71, "duration": 3, "velocity": 98}, {"time": 2585, "pitch": 47, "duration": 1, "velocity": 99}, {"time": 2585, "pitch": 54, "duration": 1, "velocity": 94}, {"time": 2585, "pitch": 59, "duration": 1, "velocity": 88}, {"time": 2585, "pitch": 63, "duration": 1, "velocity": 93}, {"time": 2585, "pitch": 66, "duration": 1, "velocity": 89}, {"time": 2588, "pitch": 47, "duration": 4, "velocity": 106}, {"time": 2588, "pitch": 54, "duration": 2, "velocity": 106}, {"time": 2588, "pitch": 59, "duration": 3, "velocity": 106}, {"time": 2588, "pitch": 63, "duration": 3, "velocity": 114}, {"time": 2588, "pitch": 66, "duration": 3, "velocity": 106}, {"time": 2588, "pitch": 71, "duration": 3, "velocity": 103}, {"time": 2594, "pitch": 45, "duration": 14, "velocity": 108}, {"time": 2594, "pitch": 57, "duration": 9, "velocity": 97}, {"time": 2594, "pitch": 61, "duration": 9, "velocity": 98}, {"time": 2600, "pitch": 52, "duration": 7, "velocity": 78}, {"time": 2606, "pitch": 57, "duration": 4, "velocity": 98}, {"time": 2606, "pitch": 61, "duration": 4, "velocity": 102}, {"time": 2606, "pitch": 64, "duration": 4, "velocity": 99}, {"time": 2612, "pitch": 52, "duration": 5, "velocity": 92}, {"time": 2618, "pitch": 45, "duration": 15, "velocity": 103}, {"time": 2618, "pitch": 57, "duration": 6, "velocity": 88}, {"time": 2618, "pitch": 61, "duration": 7, "velocity": 101}, {"time": 2624, "pitch": 52, "duration": 7, "velocity": 91}, {"time": 2627, "pitch": 57, "duration": 1, "velocity": 88}, {"time": 2630, "pitch": 57, "duration": 3, "velocity": 97}, {"time": 2630, "pitch": 61, "duration": 3, "velocity": 100}, {"time": 2630, "pitch": 64, "duration": 4, "velocity": 98}, {"time": 2633, "pitch": 52, "duration": 2, "velocity": 99}, {"time": 2636, "pitch": 57, "duration": 4, "velocity": 97}, {"time": 2639, "pitch": 61, "duration": 1, "velocity": 87}, {"time": 2642, "pitch": 44, "duration": 22, "velocity": 99}, {"time": 2642, "pitch": 54, "duration": 6, "velocity": 104}, {"time": 2642, "pitch": 59, "duration": 9, "velocity": 106}, {"time": 2648, "pitch": 51, "duration": 6, "velocity": 96}, {"time": 2651, "pitch": 54, "duration": 1, "velocity": 94}, {"time": 2654, "pitch": 54, "duration": 3, "velocity": 108}, {"time": 2654, "pitch": 59, "duration": 4, "velocity": 106}, {"time": 2657, "pitch": 51, "duration": 7, "velocity": 98}, {"time": 2660, "pitch": 54, "duration": 5, "velocity": 96}, {"time": 2663, "pitch": 59, "duration": 2, "velocity": 92}, {"time": 2666, "pitch": 44, "duration": 22, "velocity": 100}, {"time": 2666, "pitch": 54, "duration": 3, "velocity": 98}, {"time": 2666, "pitch": 59, "duration": 4, "velocity": 98}, {"time": 2669, "pitch": 51, "duration": 9, "velocity": 90}, {"time": 2672, "pitch": 63, "duration": 1, "velocity": 87}, {"time": 2675, "pitch": 54, "duration": 4, "velocity": 89}, {"time": 2675, "pitch": 59, "duration": 4, "velocity": 97}, {"time": 2675, "pitch": 63, "duration": 4, "velocity": 99}, {"time": 2678, "pitch": 51, "duration": 4, "velocity": 108}, {"time": 2681, "pitch": 54, "duration": 3, "velocity": 99}, {"time": 2681, "pitch": 59, "duration": 3, "velocity": 92}, {"time": 2684, "pitch": 51, "duration": 3, "velocity": 101}, {"time": 2687, "pitch": 54, "duration": 1, "velocity": 101}, {"time": 2690, "pitch": 42, "duration": 22, "velocity": 100}, {"time": 2690, "pitch": 54, "duration": 9, "velocity": 90}, {"time": 2690, "pitch": 57, "duration": 8, "velocity": 90}, {"time": 2696, "pitch": 49, "duration": 6, "velocity": 97}, {"time": 2702, "pitch": 54, "duration": 2, "velocity": 103}, {"time": 2702, "pitch": 61, "duration": 4, "velocity": 101}, {"time": 2705, "pitch": 49, "duration": 6, "velocity": 95}, {"time": 2708, "pitch": 54, "duration": 4, "velocity": 103}, {"time": 2708, "pitch": 61, "duration": 1, "velocity": 43}, {"time": 2711, "pitch": 57, "duration": 1, "velocity": 91}, {"time": 2714, "pitch": 47, "duration": 10, "velocity": 106}, {"time": 2714, "pitch": 54, "duration": 2, "velocity": 100}, {"time": 2714, "pitch": 59, "duration": 6, "velocity": 100}, {"time": 2720, "pitch": 54, "duration": 2, "velocity": 90}, {"time": 2723, "pitch": 54, "duration": 4, "velocity": 104}, {"time": 2723, "pitch": 63, "duration": 5, "velocity": 101}, {"time": 2726, "pitch": 47, "duration": 5, "velocity": 103}, {"time": 2729, "pitch": 61, "duration": 3, "velocity": 106}, {"time": 2732, "pitch": 59, "duration": 4, "velocity": 94}, {"time": 2738, "pitch": 40, "duration": 21, "velocity": 98}, {"time": 2738, "pitch": 56, "duration": 6, "velocity": 98}, {"time": 2738, "pitch": 59, "duration": 6, "velocity": 102}, {"time": 2744, "pitch": 47, "duration": 7, "velocity": 82}, {"time": 2747, "pitch": 56, "duration": 1, "velocity": 91}, {"time": 2747, "pitch": 64, "duration": 1, "velocity": 97}, {"time": 2750, "pitch": 56, "duration": 2, "velocity": 108}, {"time": 2750, "pitch": 64, "duration": 3, "velocity": 104}, {"time": 2753, "pitch": 47, "duration": 5, "velocity": 97}, {"time": 2756, "pitch": 56, "duration": 1, "velocity": 98}, {"time": 2759, "pitch": 56, "duration": 1, "velocity": 92}, {"time": 2759, "pitch": 59, "duration": 1, "velocity": 92}, {"time": 2762, "pitch": 40, "duration": 17, "velocity": 100}, {"time": 2762, "pitch": 56, "duration": 4, "velocity": 98}, {"time": 2762, "pitch": 59, "duration": 6, "velocity": 98}, {"time": 2768, "pitch": 47, "duration": 6, "velocity": 98}, {"time": 2771, "pitch": 56, "duration": 1, "velocity": 86}, {"time": 2771, "pitch": 62, "duration": 1, "velocity": 89}, {"time": 2774, "pitch": 56, "duration": 4, "velocity": 101}, {"time": 2774, "pitch": 62, "duration": 2, "velocity": 106}, {"time": 2777, "pitch": 47, "duration": 2, "velocity": 91}, {"time": 2780, "pitch": 59, "duration": 2, "velocity": 98}, {"time": 2786, "pitch": 45, "duration": 18, "velocity": 106}, {"time": 2786, "pitch": 57, "duration": 7, "velocity": 97}, {"time": 2786, "pitch": 61, "duration": 9, "velocity": 97}, {"time": 2792, "pitch": 52, "duration": 7, "velocity": 81}, {"time": 2798, "pitch": 57, "duration": 3, "velocity": 100}, {"time": 2798, "pitch": 61, "duration": 4, "velocity": 98}, {"time": 2798, "pitch": 64, "duration": 4, "velocity": 92}, {"time": 2801, "pitch": 52, "duration": 5, "velocity": 89}, {"time": 2804, "pitch": 57, "duration": 1, "velocity": 85}, {"time": 2807, "pitch": 57, "duration": 1, "velocity": 97}, {"time": 2807, "pitch": 61, "duration": 1, "velocity": 95}, {"time": 2810, "pitch": 45, "duration": 10, "velocity": 101}, {"time": 2810, "pitch": 52, "duration": 10, "velocity": 97}, {"time": 2810, "pitch": 57, "duration": 5, "velocity": 100}, {"time": 2810, "pitch": 61, "duration": 7, "velocity": 98}, {"time": 2819, "pitch": 57, "duration": 3, "velocity": 101}, {"time": 2819, "pitch": 64, "duration": 7, "velocity": 103}, {"time": 2822, "pitch": 52, "duration": 5, "velocity": 101}, {"time": 2825, "pitch": 57, "duration": 4, "velocity": 103}, {"time": 2828, "pitch": 61, "duration": 3, "velocity": 97}, {"time": 2831, "pitch": 64, "duration": 2, "velocity": 92}, {"time": 2834, "pitch": 44, "duration": 14, "velocity": 100}, {"time": 2834, "pitch": 54, "duration": 6, "velocity": 102}, {"time": 2834, "pitch": 59, "duration": 8, "velocity": 98}, {"time": 2840, "pitch": 51, "duration": 4, "velocity": 103}, {"time": 2843, "pitch": 54, "duration": 3, "velocity": 113}, {"time": 2846, "pitch": 51, "duration": 4, "velocity": 97}, {"time": 2849, "pitch": 54, "duration": 3, "velocity": 108}, {"time": 2849, "pitch": 59, "duration": 4, "velocity": 104}, {"time": 2852, "pitch": 44, "duration": 4, "velocity": 98}, {"time": 2855, "pitch": 54, "duration": 1, "velocity": 98}, {"time": 2858, "pitch": 49, "duration": 7, "velocity": 103}, {"time": 2858, "pitch": 56, "duration": 3, "velocity": 99}, {"time": 2858, "pitch": 61, "duration": 5, "velocity": 103}, {"time": 2864, "pitch": 56, "duration": 4, "velocity": 98}, {"time": 2870, "pitch": 49, "duration": 4, "velocity": 106}, {"time": 2870, "pitch": 56, "duration": 3, "velocity": 104}, {"time": 2870, "pitch": 59, "duration": 5, "velocity": 104}, {"time": 2870, "pitch": 65, "duration": 5, "velocity": 98}, {"time": 2876, "pitch": 56, "duration": 1, "velocity": 97}, {"time": 2882, "pitch": 42, "duration": 22, "velocity": 99}, {"time": 2882, "pitch": 54, "duration": 3, "velocity": 97}, {"time": 2882, "pitch": 57, "duration": 6, "velocity": 95}, {"time": 2882, "pitch": 61, "duration": 5, "velocity": 98}, {"time": 2885, "pitch": 49, "duration": 7, "velocity": 91}, {"time": 2888, "pitch": 54, "duration": 7, "velocity": 94}, {"time": 2891, "pitch": 66, "duration": 6, "velocity": 104}, {"time": 2894, "pitch": 49, "duration": 4, "velocity": 91}, {"time": 2897, "pitch": 54, "duration": 1, "velocity": 82}, {"time": 2897, "pitch": 57, "duration": 6, "velocity": 97}, {"time": 2897, "pitch": 61, "duration": 8, "velocity": 100}, {"time": 2903, "pitch": 54, "duration": 1, "velocity": 90}, {"time": 2906, "pitch": 35, "duration": 33, "velocity": 89}, {"time": 2906, "pitch": 47, "duration": 33, "velocity": 51}, {"time": 2906, "pitch": 51, "duration": 33, "velocity": 69}, {"time": 2906, "pitch": 54, "duration": 32, "velocity": 55}, {"time": 2942, "pitch": 45, "duration": 13, "velocity": 105}, {"time": 2942, "pitch": 64, "duration": 6, "velocity": 91}, {"time": 2942, "pitch": 69, "duration": 6, "velocity": 105}, {"time": 2942, "pitch": 73, "duration": 8, "velocity": 111}, {"time": 2951, "pitch": 64, "duration": 3, "velocity": 103}, {"time": 2951, "pitch": 71, "duration": 4, "velocity": 105}, {"time": 2960, "pitch": 68, "duration": 1, "velocity": 102}, {"time": 2966, "pitch": 45, "duration": 21, "velocity": 95}, {"time": 2966, "pitch": 64, "duration": 22, "velocity": 95}, {"time": 2966, "pitch": 69, "duration": 22, "velocity": 98}, {"time": 2966, "pitch": 72, "duration": 22, "velocity": 97}, {"time": 2990, "pitch": 44, "duration": 1, "velocity": 105}, {"time": 2990, "pitch": 54, "duration": 3, "velocity": 89}, {"time": 2990, "pitch": 59, "duration": 3, "velocity": 100}, {"time": 2999, "pitch": 56, "duration": 6, "velocity": 100}, {"time": 2999, "pitch": 63, "duration": 6, "velocity": 105}, {"time": 2999, "pitch": 66, "duration": 9, "velocity": 99}, {"time": 2999, "pitch": 71, "duration": 8, "velocity": 103}, {"time": 3014, "pitch": 49, "duration": 10, "velocity": 109}, {"time": 3014, "pitch": 59, "duration": 6, "velocity": 106}, {"time": 3014, "pitch": 65, "duration": 8, "velocity": 99}, {"time": 3026, "pitch": 49, "duration": 5, "velocity": 109}, {"time": 3026, "pitch": 56, "duration": 5, "velocity": 101}, {"time": 3026, "pitch": 61, "duration": 6, "velocity": 106}, {"time": 3026, "pitch": 65, "duration": 6, "velocity": 106}, {"time": 3026, "pitch": 68, "duration": 6, "velocity": 102}, {"time": 3026, "pitch": 71, "duration": 8, "velocity": 105}, {"time": 3035, "pitch": 54, "duration": 2, "velocity": 94}, {"time": 3038, "pitch": 42, "duration": 10, "velocity": 106}, {"time": 3038, "pitch": 57, "duration": 2, "velocity": 91}, {"time": 3038, "pitch": 61, "duration": 5, "velocity": 100}, {"time": 3038, "pitch": 66, "duration": 7, "velocity": 105}, {"time": 3041, "pitch": 49, "duration": 7, "velocity": 100}, {"time": 3044, "pitch": 54, "duration": 4, "velocity": 116}, {"time": 3044, "pitch": 61, "duration": 1, "velocity": 74}, {"time": 3050, "pitch": 44, "duration": 10, "velocity": 107}, {"time": 3050, "pitch": 54, "duration": 3, "velocity": 107}, {"time": 3050, "pitch": 59, "duration": 6, "velocity": 104}, {"time": 3053, "pitch": 51, "duration": 7, "velocity": 105}, {"time": 3056, "pitch": 54, "duration": 5, "velocity": 106}, {"time": 3059, "pitch": 59, "duration": 3, "velocity": 99}, {"time": 3062, "pitch": 45, "duration": 15, "velocity": 107}, {"time": 3065, "pitch": 52, "duration": 7, "velocity": 96}, {"time": 3068, "pitch": 57, "duration": 4, "velocity": 107}, {"time": 3071, "pitch": 64, "duration": 7, "velocity": 106}, {"time": 3074, "pitch": 52, "duration": 4, "velocity": 95}, {"time": 3077, "pitch": 57, "duration": 1, "velocity": 90}, {"time": 3077, "pitch": 61, "duration": 2, "velocity": 102}, {"time": 3086, "pitch": 35, "duration": 21, "velocity": 103}, {"time": 3086, "pitch": 59, "duration": 16, "velocity": 96}, {"time": 3086, "pitch": 63, "duration": 15, "velocity": 97}, {"time": 3086, "pitch": 66, "duration": 15, "velocity": 102}, {"time": 3086, "pitch": 71, "duration": 15, "velocity": 96}, {"time": 3107, "pitch": 83, "duration": 25, "velocity": 98}, {"time": 3110, "pitch": 35, "duration": 13, "velocity": 99}, {"time": 3110, "pitch": 71, "duration": 23, "velocity": 98}, {"time": 3110, "pitch": 75, "duration": 24, "velocity": 106}, {"time": 3110, "pitch": 78, "duration": 24, "velocity": 103}, {"time": 3134, "pitch": 40, "duration": 52, "velocity": 92}, {"time": 3137, "pitch": 47, "duration": 49, "velocity": 86}, {"time": 3140, "pitch": 52, "duration": 1, "velocity": 93}, {"time": 3140, "pitch": 54, "duration": 1, "velocity": 96}, {"time": 3143, "pitch": 56, "duration": 1, "velocity": 92}, {"time": 3146, "pitch": 59, "duration": 2, "velocity": 97}, {"time": 3146, "pitch": 64, "duration": 1, "velocity": 92}, {"time": 3149, "pitch": 66, "duration": 1, "velocity": 74}, {"time": 3152, "pitch": 68, "duration": 3, "velocity": 95}, {"time": 3155, "pitch": 71, "duration": 3, "velocity": 91}, {"time": 3158, "pitch": 76, "duration": 1, "velocity": 94}, {"time": 3161, "pitch": 78, "duration": 1, "velocity": 90}, {"time": 3164, "pitch": 80, "duration": 1, "velocity": 86}, {"time": 3170, "pitch": 83, "duration": 1, "velocity": 89}, {"time": 3176, "pitch": 80, "duration": 1, "velocity": 48}, {"time": 3176, "pitch": 83, "duration": 1, "velocity": 51}, {"time": 3176, "pitch": 92, "duration": 1, "velocity": 84}], "annotations": [{"time": 313, "annotation": {"number": 64, "value": 127}, "group": "control_change"}, {"time": 334, "annotation": {"number": 64, "value": 0}, "group": "control_change"}, {"time": 337, "annotation": {"number": 64, "value": 127}, "group": "control_change"}, {"time": 358, "annotation": {"number": 64, "value": 0}, "group": "control_change"}, {"time": 363, "annotation": {"number": 64, "value": 127}, "group": "control_change"}, {"time": 382, "annotation": {"number": 64, "value": 0}, "group": "control_change"}, {"time": 385, "annotation": {"number": 64, "value": 127}, "group": "control_change"}, {"time": 406, "annotation": {"number": 64, "value": 0}, "group": "control_change"}, {"time": 410, "annotation": {"number": 64, "value": 127}, "group": "control_change"}, {"time": 430, "annotation": {"number": 64, "value": 0}, "group": "control_change"}, {"time": 434, "annotation": {"number": 64, "value": 127}, "group": "control_change"}, {"time": 454, "annotation": {"number": 64, "value": 0}, "group": "control_change"}, {"time": 458, "annotation": {"number": 64, "value": 127}, "group": "control_change"}, {"time": 478, "annotation": {"number": 64, "value": 0}, "group": "control_change"}, {"time": 482, "annotation": {"number": 64, "value": 127}, "group": "control_change"}, {"time": 529, "annotation": {"number": 64, "value": 0}, "group": "control_change"}, {"time": 532, "annotation": {"number": 64, "value": 127}, "group": "control_change"}, {"time": 554, "annotation": {"number": 64, "value": 0}, "group": "control_change"}, {"time": 555, "annotation": {"number": 64, "value": 127}, "group": "control_change"}, {"time": 573, "annotation": {"number": 64, "value": 127}, "group": "control_change"}, {"time": 601, "annotation": {"number": 64, "value": 0}, "group": "control_change"}, {"time": 602, "annotation": {"number": 64, "value": 127}, "group": "control_change"}, {"time": 625, "annotation": {"number": 64, "value": 0}, "group": "control_change"}, {"time": 626, "annotation": {"number": 64, "value": 127}, "group": "control_change"}, {"time": 649, "annotation": {"number": 64, "value": 0}, "group": "control_change"}, {"time": 650, "annotation": {"number": 64, "value": 127}, "group": "control_change"}, {"time": 672, "annotation": {"number": 64, "value": 0}, "group": "control_change"}, {"time": 673, "annotation": {"number": 64, "value": 127}, "group": "control_change"}, {"time": 722, "annotation": {"number": 64, "value": 0}, "group": "control_change"}, {"time": 723, "annotation": {"number": 64, "value": 127}, "group": "control_change"}, {"time": 770, "annotation": {"number": 64, "value": 0}, "group": "control_change"}, {"time": 771, "annotation": {"number": 64, "value": 127}, "group": "control_change"}, {"time": 792, "annotation": {"number": 64, "value": 0}, "group": "control_change"}, {"time": 793, "annotation": {"number": 64, "value": 127}, "group": "control_change"}, {"time": 805, "annotation": {"number": 64, "value": 0}, "group": "control_change"}, {"time": 807, "annotation": {"number": 64, "value": 127}, "group": "control_change"}, {"time": 818, "annotation": {"number": 64, "value": 0}, "group": "control_change"}, {"time": 823, "annotation": {"number": 64, "value": 127}, "group": "control_change"}, {"time": 842, "annotation": {"number": 64, "value": 0}, "group": "control_change"}, {"time": 844, "annotation": {"number": 64, "value": 127}, "group": "control_change"}, {"time": 864, "annotation": {"number": 64, "value": 0}, "group": "control_change"}, {"time": 867, "annotation": {"number": 64, "value": 127}, "group": "control_change"}, {"time": 890, "annotation": {"number": 64, "value": 0}, "group": "control_change"}, {"time": 892, "annotation": {"number": 64, "value": 127}, "group": "control_change"}, {"time": 913, "annotation": {"number": 64, "value": 0}, "group": "control_change"}, {"time": 915, "annotation": {"number": 64, "value": 127}, "group": "control_change"}, {"time": 936, "annotation": {"number": 64, "value": 0}, "group": "control_change"}, {"time": 937, "annotation": {"number": 64, "value": 127}, "group": "control_change"}, {"time": 949, "annotation": {"number": 64, "value": 0}, "group": "control_change"}, {"time": 950, "annotation": {"number": 64, "value": 127}, "group": "control_change"}, {"time": 960, "annotation": {"number": 64, "value": 0}, "group": "control_change"}, {"time": 964, "annotation": {"number": 64, "value": 127}, "group": "control_change"}, {"time": 984, "annotation": {"number": 64, "value": 0}, "group": "control_change"}, {"time": 986, "annotation": {"number": 64, "value": 127}, "group": "control_change"}, {"time": 1008, "annotation": {"number": 64, "value": 0}, "group": "control_change"}, {"time": 1009, "annotation": {"number": 64, "value": 127}, "group": "control_change"}, {"time": 1033, "annotation": {"number": 64, "value": 0}, "group": "control_change"}, {"time": 1035, "annotation": {"number": 64, "value": 127}, "group": "control_change"}, {"time": 1056, "annotation": {"number": 64, "value": 0}, "group": "control_change"}, {"time": 1057, "annotation": {"number": 64, "value": 127}, "group": "control_change"}, {"time": 1081, "annotation": {"number": 64, "value": 0}, "group": "control_change"}, {"time": 1082, "annotation": {"number": 64, "value": 127}, "group": "control_change"}, {"time": 1104, "annotation": {"number": 64, "value": 0}, "group": "control_change"}, {"time": 1106, "annotation": {"number": 64, "value": 127}, "group": "control_change"}, {"time": 1129, "annotation": {"number": 64, "value": 0}, "group": "control_change"}, {"time": 1130, "annotation": {"number": 64, "value": 127}, "group": "control_change"}, {"time": 1153, "annotation": {"number": 64, "value": 0}, "group": "control_change"}, {"time": 1155, "annotation": {"number": 64, "value": 127}, "group": "control_change"}, {"time": 1191, "annotation": {"number": 64, "value": 0}, "group": "control_change"}, {"time": 1193, "annotation": {"number": 64, "value": 127}, "group": "control_change"}, {"time": 1200, "annotation": {"number": 64, "value": 0}, "group": "control_change"}, {"time": 1204, "annotation": {"number": 64, "value": 127}, "group": "control_change"}, {"time": 1224, "annotation": {"number": 64, "value": 0}, "group": "control_change"}, {"time": 1226, "annotation": {"number": 64, "value": 127}, "group": "control_change"}, {"time": 1248, "annotation": {"number": 64, "value": 0}, "group": "control_change"}, {"time": 1251, "annotation": {"number": 64, "value": 127}, "group": "control_change"}, {"time": 1253, "annotation": {"number": 64, "value": 127}, "group": "control_change"}, {"time": 1273, "annotation": {"number": 64, "value": 0}, "group": "control_change"}, {"time": 1275, "annotation": {"number": 64, "value": 127}, "group": "control_change"}, {"time": 1294, "annotation": {"number": 64, "value": 0}, "group": "control_change"}, {"time": 1299, "annotation": {"number": 64, "value": 127}, "group": "control_change"}, {"time": 1322, "annotation": {"number": 64, "value": 0}, "group": "control_change"}, {"time": 1326, "annotation": {"number": 64, "value": 127}, "group": "control_change"}, {"time": 1347, "annotation": {"number": 64, "value": 127}, "group": "control_change"}, {"time": 1357, "annotation": {"number": 64, "value": 0}, "group": "control_change"}, {"time": 1360, "annotation": {"number": 64, "value": 127}, "group": "control_change"}, {"time": 1369, "annotation": {"number": 64, "value": 0}, "group": "control_change"}, {"time": 1371, "annotation": {"number": 64, "value": 127}, "group": "control_change"}, {"time": 1394, "annotation": {"number": 64, "value": 0}, "group": "control_change"}, {"time": 1396, "annotation": {"number": 64, "value": 127}, "group": "control_change"}, {"time": 1417, "annotation": {"number": 64, "value": 0}, "group": "control_change"}, {"time": 1418, "annotation": {"number": 64, "value": 127}, "group": "control_change"}, {"time": 1441, "annotation": {"number": 64, "value": 0}, "group": "control_change"}, {"time": 1465, "annotation": {"number": 64, "value": 0}, "group": "control_change"}, {"time": 1469, "annotation": {"number": 64, "value": 127}, "group": "control_change"}, {"time": 1491, "annotation": {"number": 64, "value": 0}, "group": "control_change"}, {"time": 1495, "annotation": {"number": 64, "value": 127}, "group": "control_change"}, {"time": 1513, "annotation": {"number": 64, "value": 0}, "group": "control_change"}, {"time": 1517, "annotation": {"number": 64, "value": 127}, "group": "control_change"}, {"time": 1537, "annotation": {"number": 64, "value": 0}, "group": "control_change"}, {"time": 1539, "annotation": {"number": 64, "value": 127}, "group": "control_change"}, {"time": 1561, "annotation": {"number": 64, "value": 0}, "group": "control_change"}, {"time": 1566, "annotation": {"number": 64, "value": 127}, "group": "control_change"}, {"time": 1583, "annotation": {"number": 64, "value": 0}, "group": "control_change"}, {"time": 1585, "annotation": {"number": 64, "value": 127}, "group": "control_change"}, {"time": 1609, "annotation": {"number": 64, "value": 0}, "group": "control_change"}, {"time": 1614, "annotation": {"number": 64, "value": 127}, "group": "control_change"}, {"time": 1633, "annotation": {"number": 64, "value": 0}, "group": "control_change"}, {"time": 1638, "annotation": {"number": 64, "value": 127}, "group": "control_change"}, {"time": 1657, "annotation": {"number": 64, "value": 0}, "group": "control_change"}, {"time": 1659, "annotation": {"number": 64, "value": 127}, "group": "control_change"}, {"time": 1681, "annotation": {"number": 64, "value": 0}, "group": "control_change"}, {"time": 1684, "annotation": {"number": 64, "value": 127}, "group": "control_change"}, {"time": 1706, "annotation": {"number": 64, "value": 0}, "group": "control_change"}, {"time": 1711, "annotation": {"number": 64, "value": 127}, "group": "control_change"}, {"time": 1729, "annotation": {"number": 64, "value": 0}, "group": "control_change"}, {"time": 1735, "annotation": {"number": 64, "value": 127}, "group": "control_change"}, {"time": 1754, "annotation": {"number": 64, "value": 0}, "group": "control_change"}, {"time": 1759, "annotation": {"number": 64, "value": 127}, "group": "control_change"}, {"time": 1777, "annotation": {"number": 64, "value": 0}, "group": "control_change"}, {"time": 1783, "annotation": {"number": 64, "value": 127}, "group": "control_change"}, {"time": 1802, "annotation": {"number": 64, "value": 0}, "group": "control_change"}, {"time": 1808, "annotation": {"number": 64, "value": 127}, "group": "control_change"}, {"time": 1823, "annotation": {"number": 64, "value": 0}, "group": "control_change"}, {"time": 1922, "annotation": {"number": 64, "value": 127}, "group": "control_change"}, {"time": 1945, "annotation": {"number": 64, "value": 0}, "group": "control_change"}, {"time": 1947, "annotation": {"number": 64, "value": 127}, "group": "control_change"}, {"time": 1968, "annotation": {"number": 64, "value": 0}, "group": "control_change"}, {"time": 1970, "annotation": {"number": 64, "value": 127}, "group": "control_change"}, {"time": 1993, "annotation": {"number": 64, "value": 0}, "group": "control_change"}, {"time": 1995, "annotation": {"number": 64, "value": 127}, "group": "control_change"}, {"time": 2006, "annotation": {"number": 64, "value": 0}, "group": "control_change"}, {"time": 2007, "annotation": {"number": 64, "value": 127}, "group": "control_change"}, {"time": 2016, "annotation": {"number": 64, "value": 0}, "group": "control_change"}, {"time": 2019, "annotation": {"number": 64, "value": 127}, "group": "control_change"}, {"time": 2042, "annotation": {"number": 64, "value": 0}, "group": "control_change"}, {"time": 2043, "annotation": {"number": 64, "value": 127}, "group": "control_change"}, {"time": 2065, "annotation": {"number": 64, "value": 0}, "group": "control_change"}, {"time": 2070, "annotation": {"number": 64, "value": 127}, "group": "control_change"}, {"time": 2090, "annotation": {"number": 64, "value": 0}, "group": "control_change"}, {"time": 2093, "annotation": {"number": 64, "value": 127}, "group": "control_change"}, {"time": 2114, "annotation": {"number": 64, "value": 0}, "group": "control_change"}, {"time": 2118, "annotation": {"number": 64, "value": 127}, "group": "control_change"}, {"time": 2136, "annotation": {"number": 64, "value": 0}, "group": "control_change"}, {"time": 2137, "annotation": {"number": 64, "value": 127}, "group": "control_change"}, {"time": 2160, "annotation": {"number": 64, "value": 0}, "group": "control_change"}, {"time": 2162, "annotation": {"number": 64, "value": 127}, "group": "control_change"}, {"time": 2185, "annotation": {"number": 64, "value": 0}, "group": "control_change"}, {"time": 2190, "annotation": {"number": 64, "value": 0}, "group": "control_change"}, {"time": 2198, "annotation": {"number": 64, "value": 127}, "group": "control_change"}, {"time": 2207, "annotation": {"number": 64, "value": 0}, "group": "control_change"}, {"time": 2214, "annotation": {"number": 64, "value": 127}, "group": "control_change"}, {"time": 2233, "annotation": {"number": 64, "value": 0}, "group": "control_change"}, {"time": 2235, "annotation": {"number": 64, "value": 127}, "group": "control_change"}, {"time": 2258, "annotation": {"number": 64, "value": 0}, "group": "control_change"}, {"time": 2263, "annotation": {"number": 64, "value": 127}, "group": "control_change"}, {"time": 2282, "annotation": {"number": 64, "value": 0}, "group": "control_change"}, {"time": 2283, "annotation": {"number": 64, "value": 127}, "group": "control_change"}, {"time": 2306, "annotation": {"number": 64, "value": 0}, "group": "control_change"}, {"time": 2311, "annotation": {"number": 64, "value": 127}, "group": "control_change"}, {"time": 2329, "annotation": {"number": 64, "value": 0}, "group": "control_change"}, {"time": 2334, "annotation": {"number": 64, "value": 127}, "group": "control_change"}, {"time": 2353, "annotation": {"number": 64, "value": 0}, "group": "control_change"}, {"time": 2357, "annotation": {"number": 64, "value": 127}, "group": "control_change"}, {"time": 2377, "annotation": {"number": 64, "value": 0}, "group": "control_change"}, {"time": 2378, "annotation": {"number": 64, "value": 127}, "group": "control_change"}, {"time": 2401, "annotation": {"number": 64, "value": 0}, "group": "control_change"}, {"time": 2406, "annotation": {"number": 64, "value": 127}, "group": "control_change"}, {"time": 2426, "annotation": {"number": 64, "value": 0}, "group": "control_change"}, {"time": 2431, "annotation": {"number": 64, "value": 127}, "group": "control_change"}, {"time": 2451, "annotation": {"number": 64, "value": 0}, "group": "control_change"}, {"time": 2455, "annotation": {"number": 64, "value": 127}, "group": "control_change"}, {"time": 2473, "annotation": {"number": 64, "value": 0}, "group": "control_change"}, {"time": 2475, "annotation": {"number": 64, "value": 127}, "group": "control_change"}, {"time": 2486, "annotation": {"number": 64, "value": 0}, "group": "control_change"}, {"time": 2487, "annotation": {"number": 64, "value": 127}, "group": "control_change"}, {"time": 2497, "annotation": {"number": 64, "value": 0}, "group": "control_change"}, {"time": 2501, "annotation": {"number": 64, "value": 127}, "group": "control_change"}, {"time": 2521, "annotation": {"number": 64, "value": 0}, "group": "control_change"}, {"time": 2526, "annotation": {"number": 64, "value": 127}, "group": "control_change"}, {"time": 2546, "annotation": {"number": 64, "value": 127}, "group": "control_change"}, {"time": 2553, "annotation": {"number": 64, "value": 0}, "group": "control_change"}, {"time": 2555, "annotation": {"number": 64, "value": 127}, "group": "control_change"}, {"time": 2559, "annotation": {"number": 64, "value": 0}, "group": "control_change"}, {"time": 2560, "annotation": {"number": 64, "value": 127}, "group": "control_change"}, {"time": 2568, "annotation": {"number": 64, "value": 0}, "group": "control_change"}, {"time": 2583, "annotation": {"number": 64, "value": 127}, "group": "control_change"}, {"time": 2588, "annotation": {"number": 64, "value": 127}, "group": "control_change"}, {"time": 2591, "annotation": {"number": 64, "value": 0}, "group": "control_change"}, {"time": 2592, "annotation": {"number": 64, "value": 127}, "group": "control_change"}, {"time": 2594, "annotation": {"number": 64, "value": 0}, "group": "control_change"}, {"time": 2598, "annotation": {"number": 64, "value": 127}, "group": "control_change"}, {"time": 2617, "annotation": {"number": 64, "value": 0}, "group": "control_change"}, {"time": 2619, "annotation": {"number": 64, "value": 127}, "group": "control_change"}, {"time": 2642, "annotation": {"number": 64, "value": 0}, "group": "control_change"}, {"time": 2647, "annotation": {"number": 64, "value": 127}, "group": "control_change"}, {"time": 2666, "annotation": {"number": 64, "value": 0}, "group": "control_change"}, {"time": 2667, "annotation": {"number": 64, "value": 127}, "group": "control_change"}, {"time": 2690, "annotation": {"number": 64, "value": 0}, "group": "control_change"}, {"time": 2695, "annotation": {"number": 64, "value": 127}, "group": "control_change"}, {"time": 2713, "annotation": {"number": 64, "value": 0}, "group": "control_change"}, {"time": 2718, "annotation": {"number": 64, "value": 127}, "group": "control_change"}, {"time": 2737, "annotation": {"number": 64, "value": 0}, "group": "control_change"}, {"time": 2741, "annotation": {"number": 64, "value": 127}, "group": "control_change"}, {"time": 2761, "annotation": {"number": 64, "value": 0}, "group": "control_change"}, {"time": 2762, "annotation": {"number": 64, "value": 127}, "group": "control_change"}, {"time": 2785, "annotation": {"number": 64, "value": 0}, "group": "control_change"}, {"time": 2790, "annotation": {"number": 64, "value": 127}, "group": "control_change"}, {"time": 2810, "annotation": {"number": 64, "value": 0}, "group": "control_change"}, {"time": 2815, "annotation": {"number": 64, "value": 127}, "group": "control_change"}, {"time": 2835, "annotation": {"number": 64, "value": 0}, "group": "control_change"}, {"time": 2839, "annotation": {"number": 64, "value": 127}, "group": "control_change"}, {"time": 2857, "annotation": {"number": 64, "value": 0}, "group": "control_change"}, {"time": 2859, "annotation": {"number": 64, "value": 127}, "group": "control_change"}, {"time": 2870, "annotation": {"number": 64, "value": 0}, "group": "control_change"}, {"time": 2871, "annotation": {"number": 64, "value": 127}, "group": "control_change"}, {"time": 2881, "annotation": {"number": 64, "value": 0}, "group": "control_change"}, {"time": 2885, "annotation": {"number": 64, "value": 127}, "group": "control_change"}, {"time": 2907, "annotation": {"number": 64, "value": 0}, "group": "control_change"}, {"time": 2945, "annotation": {"number": 64, "value": 127}, "group": "control_change"}, {"time": 2965, "annotation": {"number": 64, "value": 0}, "group": "control_change"}, {"time": 2967, "annotation": {"number": 64, "value": 127}, "group": "control_change"}, {"time": 2986, "annotation": {"number": 64, "value": 0}, "group": "control_change"}, {"time": 2991, "annotation": {"number": 64, "value": 127}, "group": "control_change"}, {"time": 3014, "annotation": {"number": 64, "value": 0}, "group": "control_change"}, {"time": 3018, "annotation": {"number": 64, "value": 127}, "group": "control_change"}, {"time": 3039, "annotation": {"number": 64, "value": 127}, "group": "control_change"}, {"time": 3049, "annotation": {"number": 64, "value": 0}, "group": "control_change"}, {"time": 3052, "annotation": {"number": 64, "value": 127}, "group": "control_change"}, {"time": 3061, "annotation": {"number": 64, "value": 0}, "group": "control_change"}, {"time": 3063, "annotation": {"number": 64, "value": 127}, "group": "control_change"}, {"time": 3086, "annotation": {"number": 64, "value": 0}, "group": "control_change"}, {"time": 3088, "annotation": {"number": 64, "value": 127}, "group": "control_change"}, {"time": 3109, "annotation": {"number": 64, "value": 0}, "group": "control_change"}, {"time": 3110, "annotation": {"number": 64, "value": 127}, "group": "control_change"}, {"time": 3133, "annotation": {"number": 64, "value": 0}, "group": "control_change"}, {"time": 3136, "annotation": {"number": 64, "value": 127}, "group": "control_change"}, {"time": 3222, "annotation": {"number": 64, "value": 0}, "group": "control_change"}]}]}