{"metadata": {"schema_version": "0.2", "title": "None", "source_filename": "399.mid", "source_format": "midi"}, "resolution": 12, "tempos": [{"time": 0, "qpm": 92.80024746732659}, {"time": 791, "qpm": 93.25009208446593}, {"time": 888, "qpm": 93.50003350417867}, {"time": 924, "qpm": 93.75}, {"time": 960, "qpm": 94.00012846684224}, {"time": 984, "qpm": 93.000186000372}], "time_signatures": [{"time": 0, "numerator": 1, "denominator": 4}], "tracks": [{"program": 4, "is_drum": false, "name": "MELODY", "notes": [{"time": 412, "pitch": 66, "duration": 5, "velocity": 87}, {"time": 418, "pitch": 68, "duration": 9, "velocity": 97}, {"time": 430, "pitch": 69, "duration": 8, "velocity": 93}, {"time": 442, "pitch": 69, "duration": 5, "velocity": 82}, {"time": 448, "pitch": 68, "duration": 7, "velocity": 87}, {"time": 460, "pitch": 68, "duration": 5, "velocity": 97}, {"time": 466, "pitch": 73, "duration": 12, "velocity": 92}, {"time": 490, "pitch": 71, "duration": 4, "velocity": 105}, {"time": 496, "pitch": 73, "duration": 9, "velocity": 92}, {"time": 508, "pitch": 66, "duration": 5, "velocity": 60}, {"time": 514, "pitch": 66, "duration": 16, "velocity": 92}, {"time": 556, "pitch": 65, "duration": 6, "velocity": 70}, {"time": 562, "pitch": 66, "duration": 3, "velocity": 84}, {"time": 568, "pitch": 66, "duration": 3, "velocity": 82}, {"time": 574, "pitch": 66, "duration": 4, "velocity": 76}, {"time": 580, "pitch": 68, "duration": 6, "velocity": 92}, {"time": 586, "pitch": 66, "duration": 3, "velocity": 80}, {"time": 592, "pitch": 68, "duration": 10, "velocity": 94}, {"time": 604, "pitch": 69, "duration": 27, "velocity": 96}, {"time": 670, "pitch": 66, "duration": 5, "velocity": 87}, {"time": 676, "pitch": 69, "duration": 4, "velocity": 96}, {"time": 682, "pitch": 66, "duration": 4, "velocity": 100}, {"time": 688, "pitch": 78, "duration": 4, "velocity": 108}, {"time": 694, "pitch": 78, "duration": 3, "velocity": 84}, {"time": 700, "pitch": 78, "duration": 3, "velocity": 97}, {"time": 706, "pitch": 78, "duration": 4, "velocity": 89}, {"time": 712, "pitch": 78, "duration": 6, "velocity": 100}, {"time": 724, "pitch": 76, "duration": 3, "velocity": 100}, {"time": 730, "pitch": 71, "duration": 5, "velocity": 89}, {"time": 736, "pitch": 73, "duration": 19, "velocity": 76}, {"time": 766, "pitch": 73, "duration": 3, "velocity": 89}, {"time": 772, "pitch": 73, "duration": 3, "velocity": 94}, {"time": 778, "pitch": 73, "duration": 3, "velocity": 94}, {"time": 784, "pitch": 74, "duration": 3, "velocity": 102}, {"time": 790, "pitch": 74, "duration": 4, "velocity": 99}, {"time": 796, "pitch": 73, "duration": 4, "velocity": 87}, {"time": 802, "pitch": 66, "duration": 4, "velocity": 102}, {"time": 826, "pitch": 69, "duration": 4, "velocity": 77}, {"time": 832, "pitch": 73, "duration": 5, "velocity": 97}, {"time": 838, "pitch": 71, "duration": 4, "velocity": 89}, {"time": 844, "pitch": 68, "duration": 17, "velocity": 97}, {"time": 880, "pitch": 69, "duration": 6, "velocity": 79}, {"time": 886, "pitch": 66, "duration": 27, "velocity": 60}, {"time": 952, "pitch": 70, "duration": 5, "velocity": 111}, {"time": 958, "pitch": 71, "duration": 4, "velocity": 105}, {"time": 964, "pitch": 73, "duration": 4, "velocity": 102}, {"time": 970, "pitch": 66, "duration": 4, "velocity": 108}, {"time": 976, "pitch": 76, "duration": 11, "velocity": 108}, {"time": 988, "pitch": 74, "duration": 7, "velocity": 102}, {"time": 1000, "pitch": 74, "duration": 5, "velocity": 90}, {"time": 1006, "pitch": 74, "duration": 4, "velocity": 108}, {"time": 1012, "pitch": 73, "duration": 5, "velocity": 102}, {"time": 1018, "pitch": 74, "duration": 17, "velocity": 105}, {"time": 1048, "pitch": 64, "duration": 5, "velocity": 105}, {"time": 1054, "pitch": 66, "duration": 4, "velocity": 102}, {"time": 1060, "pitch": 68, "duration": 4, "velocity": 105}, {"time": 1066, "pitch": 64, "duration": 4, "velocity": 100}, {"time": 1072, "pitch": 74, "duration": 5, "velocity": 102}, {"time": 1078, "pitch": 73, "duration": 9, "velocity": 102}, {"time": 1090, "pitch": 73, "duration": 6, "velocity": 94}, {"time": 1096, "pitch": 71, "duration": 4, "velocity": 102}, {"time": 1102, "pitch": 69, "duration": 5, "velocity": 105}, {"time": 1108, "pitch": 71, "duration": 5, "velocity": 105}, {"time": 1114, "pitch": 73, "duration": 19, "velocity": 94}, {"time": 1144, "pitch": 70, "duration": 4, "velocity": 105}, {"time": 1150, "pitch": 71, "duration": 4, "velocity": 108}, {"time": 1156, "pitch": 73, "duration": 5, "velocity": 108}, {"time": 1162, "pitch": 66, "duration": 5, "velocity": 102}, {"time": 1168, "pitch": 76, "duration": 5, "velocity": 111}, {"time": 1174, "pitch": 74, "duration": 4, "velocity": 96}, {"time": 1180, "pitch": 74, "duration": 4, "velocity": 99}, {"time": 1186, "pitch": 74, "duration": 6, "velocity": 99}, {"time": 1192, "pitch": 74, "duration": 6, "velocity": 99}, {"time": 1204, "pitch": 78, "duration": 4, "velocity": 105}, {"time": 1210, "pitch": 78, "duration": 10, "velocity": 100}, {"time": 1222, "pitch": 76, "duration": 10, "velocity": 100}, {"time": 1240, "pitch": 76, "duration": 4, "velocity": 97}, {"time": 1246, "pitch": 78, "duration": 4, "velocity": 97}, {"time": 1252, "pitch": 80, "duration": 3, "velocity": 102}, {"time": 1258, "pitch": 76, "duration": 4, "velocity": 102}, {"time": 1264, "pitch": 73, "duration": 10, "velocity": 92}, {"time": 1276, "pitch": 73, "duration": 3, "velocity": 97}, {"time": 1282, "pitch": 73, "duration": 3, "velocity": 89}, {"time": 1288, "pitch": 73, "duration": 6, "velocity": 108}, {"time": 1300, "pitch": 71, "duration": 4, "velocity": 108}, {"time": 1306, "pitch": 69, "duration": 4, "velocity": 109}, {"time": 1312, "pitch": 71, "duration": 4, "velocity": 97}, {"time": 1318, "pitch": 73, "duration": 54, "velocity": 100}, {"time": 1408, "pitch": 81, "duration": 6, "velocity": 102}, {"time": 1414, "pitch": 80, "duration": 3, "velocity": 89}, {"time": 1420, "pitch": 80, "duration": 6, "velocity": 105}, {"time": 1426, "pitch": 78, "duration": 4, "velocity": 100}, {"time": 1432, "pitch": 73, "duration": 4, "velocity": 108}, {"time": 1438, "pitch": 78, "duration": 3, "velocity": 111}, {"time": 1444, "pitch": 80, "duration": 3, "velocity": 100}, {"time": 1450, "pitch": 81, "duration": 4, "velocity": 109}, {"time": 1456, "pitch": 85, "duration": 4, "velocity": 114}, {"time": 1462, "pitch": 83, "duration": 3, "velocity": 108}, {"time": 1468, "pitch": 83, "duration": 4, "velocity": 90}, {"time": 1474, "pitch": 81, "duration": 5, "velocity": 87}, {"time": 1480, "pitch": 74, "duration": 17, "velocity": 80}, {"time": 1504, "pitch": 85, "duration": 5, "velocity": 100}, {"time": 1510, "pitch": 83, "duration": 3, "velocity": 92}, {"time": 1516, "pitch": 83, "duration": 4, "velocity": 105}, {"time": 1522, "pitch": 80, "duration": 4, "velocity": 100}, {"time": 1528, "pitch": 76, "duration": 4, "velocity": 100}, {"time": 1534, "pitch": 78, "duration": 4, "velocity": 66}, {"time": 1540, "pitch": 80, "duration": 4, "velocity": 97}, {"time": 1546, "pitch": 76, "duration": 6, "velocity": 100}, {"time": 1552, "pitch": 73, "duration": 30, "velocity": 84}, {"time": 1594, "pitch": 73, "duration": 5, "velocity": 108}, {"time": 1600, "pitch": 71, "duration": 10, "velocity": 100}, {"time": 1612, "pitch": 73, "duration": 5, "velocity": 94}, {"time": 1618, "pitch": 74, "duration": 19, "velocity": 112}, {"time": 1642, "pitch": 74, "duration": 5, "velocity": 112}, {"time": 1648, "pitch": 73, "duration": 15, "velocity": 100}, {"time": 1666, "pitch": 77, "duration": 5, "velocity": 105}, {"time": 1672, "pitch": 78, "duration": 14, "velocity": 100}, {"time": 1690, "pitch": 78, "duration": 4, "velocity": 97}, {"time": 1696, "pitch": 85, "duration": 5, "velocity": 108}, {"time": 1702, "pitch": 83, "duration": 3, "velocity": 97}, {"time": 1708, "pitch": 83, "duration": 3, "velocity": 108}, {"time": 1714, "pitch": 81, "duration": 4, "velocity": 109}, {"time": 1720, "pitch": 75, "duration": 8, "velocity": 105}, {"time": 1732, "pitch": 77, "duration": 6, "velocity": 102}, {"time": 1738, "pitch": 78, "duration": 4, "velocity": 94}, {"time": 1744, "pitch": 80, "duration": 37, "velocity": 111}, {"time": 1792, "pitch": 81, "duration": 6, "velocity": 102}, {"time": 1798, "pitch": 80, "duration": 3, "velocity": 89}, {"time": 1804, "pitch": 80, "duration": 6, "velocity": 105}, {"time": 1810, "pitch": 78, "duration": 4, "velocity": 100}, {"time": 1816, "pitch": 73, "duration": 4, "velocity": 108}, {"time": 1822, "pitch": 78, "duration": 3, "velocity": 111}, {"time": 1828, "pitch": 80, "duration": 3, "velocity": 100}, {"time": 1834, "pitch": 81, "duration": 4, "velocity": 109}, {"time": 1840, "pitch": 85, "duration": 4, "velocity": 114}, {"time": 1846, "pitch": 83, "duration": 3, "velocity": 108}, {"time": 1852, "pitch": 83, "duration": 4, "velocity": 90}, {"time": 1858, "pitch": 81, "duration": 5, "velocity": 87}, {"time": 1864, "pitch": 74, "duration": 17, "velocity": 80}, {"time": 1888, "pitch": 85, "duration": 5, "velocity": 100}, {"time": 1894, "pitch": 83, "duration": 3, "velocity": 92}, {"time": 1900, "pitch": 83, "duration": 4, "velocity": 105}, {"time": 1906, "pitch": 80, "duration": 4, "velocity": 100}, {"time": 1912, "pitch": 76, "duration": 4, "velocity": 100}, {"time": 1918, "pitch": 78, "duration": 4, "velocity": 66}, {"time": 1924, "pitch": 80, "duration": 12, "velocity": 97}, {"time": 1941, "pitch": 73, "duration": 3, "velocity": 92}, {"time": 1947, "pitch": 74, "duration": 4, "velocity": 105}, {"time": 1953, "pitch": 73, "duration": 19, "velocity": 100}, {"time": 1978, "pitch": 73, "duration": 5, "velocity": 108}, {"time": 1984, "pitch": 71, "duration": 10, "velocity": 100}, {"time": 1996, "pitch": 73, "duration": 5, "velocity": 94}, {"time": 2002, "pitch": 74, "duration": 19, "velocity": 112}, {"time": 2026, "pitch": 74, "duration": 5, "velocity": 112}, {"time": 2032, "pitch": 73, "duration": 15, "velocity": 100}, {"time": 2050, "pitch": 77, "duration": 5, "velocity": 105}, {"time": 2056, "pitch": 78, "duration": 14, "velocity": 100}, {"time": 2074, "pitch": 78, "duration": 4, "velocity": 97}, {"time": 2080, "pitch": 85, "duration": 5, "velocity": 108}, {"time": 2086, "pitch": 83, "duration": 3, "velocity": 97}, {"time": 2092, "pitch": 83, "duration": 3, "velocity": 108}, {"time": 2098, "pitch": 81, "duration": 4, "velocity": 109}, {"time": 2104, "pitch": 75, "duration": 8, "velocity": 105}, {"time": 2116, "pitch": 77, "duration": 6, "velocity": 102}, {"time": 2122, "pitch": 78, "duration": 4, "velocity": 94}, {"time": 2128, "pitch": 80, "duration": 37, "velocity": 111}, {"time": 2584, "pitch": 70, "duration": 5, "velocity": 111}, {"time": 2590, "pitch": 71, "duration": 4, "velocity": 105}, {"time": 2596, "pitch": 73, "duration": 4, "velocity": 102}, {"time": 2602, "pitch": 66, "duration": 4, "velocity": 108}, {"time": 2608, "pitch": 76, "duration": 11, "velocity": 108}, {"time": 2620, "pitch": 74, "duration": 7, "velocity": 102}, {"time": 2632, "pitch": 74, "duration": 5, "velocity": 90}, {"time": 2638, "pitch": 74, "duration": 4, "velocity": 108}, {"time": 2644, "pitch": 73, "duration": 5, "velocity": 102}, {"time": 2650, "pitch": 74, "duration": 17, "velocity": 105}, {"time": 2680, "pitch": 64, "duration": 5, "velocity": 105}, {"time": 2686, "pitch": 66, "duration": 4, "velocity": 102}, {"time": 2692, "pitch": 68, "duration": 4, "velocity": 105}, {"time": 2698, "pitch": 64, "duration": 4, "velocity": 100}, {"time": 2704, "pitch": 74, "duration": 5, "velocity": 102}, {"time": 2710, "pitch": 73, "duration": 9, "velocity": 102}, {"time": 2722, "pitch": 73, "duration": 6, "velocity": 94}, {"time": 2728, "pitch": 71, "duration": 4, "velocity": 102}, {"time": 2734, "pitch": 69, "duration": 5, "velocity": 105}, {"time": 2740, "pitch": 71, "duration": 5, "velocity": 105}, {"time": 2746, "pitch": 73, "duration": 19, "velocity": 94}, {"time": 2776, "pitch": 70, "duration": 4, "velocity": 105}, {"time": 2782, "pitch": 71, "duration": 4, "velocity": 108}, {"time": 2788, "pitch": 73, "duration": 5, "velocity": 108}, {"time": 2794, "pitch": 66, "duration": 5, "velocity": 102}, {"time": 2800, "pitch": 76, "duration": 5, "velocity": 111}, {"time": 2806, "pitch": 74, "duration": 4, "velocity": 96}, {"time": 2812, "pitch": 74, "duration": 4, "velocity": 99}, {"time": 2818, "pitch": 74, "duration": 6, "velocity": 99}, {"time": 2824, "pitch": 74, "duration": 6, "velocity": 99}, {"time": 2836, "pitch": 78, "duration": 4, "velocity": 105}, {"time": 2842, "pitch": 78, "duration": 10, "velocity": 100}, {"time": 2854, "pitch": 76, "duration": 10, "velocity": 100}, {"time": 2872, "pitch": 76, "duration": 4, "velocity": 97}, {"time": 2878, "pitch": 78, "duration": 4, "velocity": 97}, {"time": 2884, "pitch": 80, "duration": 3, "velocity": 102}, {"time": 2890, "pitch": 76, "duration": 4, "velocity": 102}, {"time": 2896, "pitch": 73, "duration": 10, "velocity": 92}, {"time": 2908, "pitch": 73, "duration": 3, "velocity": 97}, {"time": 2914, "pitch": 73, "duration": 3, "velocity": 89}, {"time": 2920, "pitch": 73, "duration": 6, "velocity": 108}, {"time": 2932, "pitch": 71, "duration": 4, "velocity": 108}, {"time": 2938, "pitch": 69, "duration": 4, "velocity": 109}, {"time": 2944, "pitch": 71, "duration": 4, "velocity": 97}, {"time": 2950, "pitch": 73, "duration": 54, "velocity": 100}, {"time": 3040, "pitch": 81, "duration": 6, "velocity": 102}, {"time": 3046, "pitch": 80, "duration": 3, "velocity": 89}, {"time": 3052, "pitch": 80, "duration": 6, "velocity": 105}, {"time": 3058, "pitch": 78, "duration": 4, "velocity": 100}, {"time": 3064, "pitch": 73, "duration": 4, "velocity": 108}, {"time": 3070, "pitch": 78, "duration": 3, "velocity": 111}, {"time": 3076, "pitch": 80, "duration": 3, "velocity": 100}, {"time": 3082, "pitch": 81, "duration": 4, "velocity": 109}, {"time": 3088, "pitch": 85, "duration": 4, "velocity": 114}, {"time": 3094, "pitch": 83, "duration": 3, "velocity": 108}, {"time": 3100, "pitch": 83, "duration": 4, "velocity": 90}, {"time": 3106, "pitch": 81, "duration": 5, "velocity": 87}, {"time": 3112, "pitch": 74, "duration": 17, "velocity": 80}, {"time": 3136, "pitch": 85, "duration": 5, "velocity": 100}, {"time": 3142, "pitch": 83, "duration": 3, "velocity": 92}, {"time": 3148, "pitch": 83, "duration": 4, "velocity": 105}, {"time": 3154, "pitch": 80, "duration": 4, "velocity": 100}, {"time": 3160, "pitch": 76, "duration": 4, "velocity": 100}, {"time": 3166, "pitch": 78, "duration": 4, "velocity": 66}, {"time": 3172, "pitch": 80, "duration": 4, "velocity": 97}, {"time": 3178, "pitch": 76, "duration": 6, "velocity": 100}, {"time": 3184, "pitch": 73, "duration": 30, "velocity": 84}, {"time": 3226, "pitch": 73, "duration": 5, "velocity": 108}, {"time": 3232, "pitch": 71, "duration": 10, "velocity": 100}, {"time": 3244, "pitch": 73, "duration": 5, "velocity": 94}, {"time": 3250, "pitch": 74, "duration": 19, "velocity": 112}, {"time": 3274, "pitch": 74, "duration": 5, "velocity": 112}, {"time": 3280, "pitch": 73, "duration": 15, "velocity": 100}, {"time": 3298, "pitch": 77, "duration": 5, "velocity": 105}, {"time": 3304, "pitch": 78, "duration": 14, "velocity": 100}, {"time": 3322, "pitch": 78, "duration": 4, "velocity": 97}, {"time": 3328, "pitch": 85, "duration": 5, "velocity": 108}, {"time": 3334, "pitch": 83, "duration": 3, "velocity": 97}, {"time": 3340, "pitch": 83, "duration": 3, "velocity": 108}, {"time": 3346, "pitch": 81, "duration": 4, "velocity": 109}, {"time": 3352, "pitch": 75, "duration": 8, "velocity": 105}, {"time": 3364, "pitch": 77, "duration": 6, "velocity": 102}, {"time": 3370, "pitch": 78, "duration": 4, "velocity": 94}, {"time": 3376, "pitch": 80, "duration": 37, "velocity": 111}, {"time": 3424, "pitch": 81, "duration": 6, "velocity": 102}, {"time": 3430, "pitch": 80, "duration": 3, "velocity": 89}, {"time": 3436, "pitch": 80, "duration": 6, "velocity": 105}, {"time": 3442, "pitch": 78, "duration": 4, "velocity": 100}, {"time": 3448, "pitch": 73, "duration": 4, "velocity": 108}, {"time": 3454, "pitch": 78, "duration": 3, "velocity": 111}, {"time": 3460, "pitch": 80, "duration": 3, "velocity": 100}, {"time": 3466, "pitch": 81, "duration": 4, "velocity": 109}, {"time": 3472, "pitch": 85, "duration": 4, "velocity": 114}, {"time": 3478, "pitch": 83, "duration": 3, "velocity": 108}, {"time": 3484, "pitch": 83, "duration": 4, "velocity": 90}, {"time": 3490, "pitch": 81, "duration": 5, "velocity": 87}, {"time": 3496, "pitch": 74, "duration": 17, "velocity": 80}, {"time": 3520, "pitch": 85, "duration": 5, "velocity": 100}, {"time": 3526, "pitch": 83, "duration": 3, "velocity": 92}, {"time": 3532, "pitch": 83, "duration": 4, "velocity": 105}, {"time": 3538, "pitch": 80, "duration": 4, "velocity": 100}, {"time": 3544, "pitch": 76, "duration": 4, "velocity": 100}, {"time": 3550, "pitch": 78, "duration": 4, "velocity": 66}, {"time": 3556, "pitch": 80, "duration": 12, "velocity": 97}, {"time": 3573, "pitch": 73, "duration": 3, "velocity": 92}, {"time": 3579, "pitch": 74, "duration": 4, "velocity": 105}, {"time": 3585, "pitch": 73, "duration": 19, "velocity": 100}, {"time": 3610, "pitch": 73, "duration": 5, "velocity": 108}, {"time": 3616, "pitch": 71, "duration": 10, "velocity": 100}, {"time": 3628, "pitch": 73, "duration": 5, "velocity": 94}, {"time": 3634, "pitch": 74, "duration": 19, "velocity": 112}, {"time": 3658, "pitch": 74, "duration": 5, "velocity": 112}, {"time": 3664, "pitch": 73, "duration": 15, "velocity": 100}, {"time": 3682, "pitch": 77, "duration": 5, "velocity": 105}, {"time": 3688, "pitch": 78, "duration": 14, "velocity": 100}, {"time": 3706, "pitch": 78, "duration": 4, "velocity": 97}, {"time": 3712, "pitch": 85, "duration": 5, "velocity": 108}, {"time": 3718, "pitch": 83, "duration": 3, "velocity": 97}, {"time": 3724, "pitch": 83, "duration": 3, "velocity": 108}, {"time": 3730, "pitch": 81, "duration": 4, "velocity": 109}, {"time": 3736, "pitch": 75, "duration": 8, "velocity": 105}, {"time": 3748, "pitch": 77, "duration": 6, "velocity": 102}, {"time": 3754, "pitch": 78, "duration": 4, "velocity": 94}, {"time": 3760, "pitch": 80, "duration": 37, "velocity": 111}, {"time": 3820, "pitch": 66, "duration": 5, "velocity": 87}, {"time": 3826, "pitch": 68, "duration": 9, "velocity": 97}, {"time": 3838, "pitch": 69, "duration": 17, "velocity": 93}, {"time": 3868, "pitch": 68, "duration": 5, "velocity": 97}, {"time": 3874, "pitch": 73, "duration": 24, "velocity": 92}, {"time": 3904, "pitch": 71, "duration": 5, "velocity": 102}, {"time": 3910, "pitch": 71, "duration": 8, "velocity": 97}, {"time": 3922, "pitch": 66, "duration": 17, "velocity": 96}, {"time": 3996, "pitch": 66, "duration": 2, "velocity": 102}, {"time": 4001, "pitch": 68, "duration": 4, "velocity": 96}, {"time": 4006, "pitch": 69, "duration": 2, "velocity": 87}, {"time": 4009, "pitch": 69, "duration": 36, "velocity": 97}, {"time": 4078, "pitch": 66, "duration": 5, "velocity": 87}, {"time": 4084, "pitch": 69, "duration": 4, "velocity": 96}, {"time": 4090, "pitch": 66, "duration": 4, "velocity": 100}, {"time": 4096, "pitch": 78, "duration": 4, "velocity": 108}, {"time": 4102, "pitch": 78, "duration": 3, "velocity": 84}, {"time": 4108, "pitch": 78, "duration": 3, "velocity": 97}, {"time": 4114, "pitch": 78, "duration": 4, "velocity": 89}, {"time": 4120, "pitch": 78, "duration": 6, "velocity": 100}, {"time": 4132, "pitch": 76, "duration": 3, "velocity": 100}, {"time": 4138, "pitch": 71, "duration": 5, "velocity": 89}, {"time": 4144, "pitch": 73, "duration": 19, "velocity": 76}, {"time": 4180, "pitch": 73, "duration": 3, "velocity": 94}, {"time": 4186, "pitch": 73, "duration": 3, "velocity": 94}, {"time": 4192, "pitch": 74, "duration": 3, "velocity": 102}, {"time": 4198, "pitch": 74, "duration": 4, "velocity": 99}, {"time": 4204, "pitch": 73, "duration": 4, "velocity": 87}, {"time": 4210, "pitch": 66, "duration": 4, "velocity": 102}, {"time": 4234, "pitch": 69, "duration": 4, "velocity": 77}, {"time": 4240, "pitch": 73, "duration": 5, "velocity": 97}, {"time": 4246, "pitch": 71, "duration": 4, "velocity": 89}, {"time": 4252, "pitch": 68, "duration": 17, "velocity": 97}, {"time": 4305, "pitch": 68, "duration": 24, "velocity": 96}, {"time": 4329, "pitch": 69, "duration": 16, "velocity": 92}, {"time": 4344, "pitch": 73, "duration": 38, "velocity": 72}]}, {"program": 0, "is_drum": false, "name": "PIANO", "notes": [{"time": 12, "pitch": 50, "duration": 48, "velocity": 98}, {"time": 14, "pitch": 69, "duration": 46, "velocity": 90}, {"time": 15, "pitch": 57, "duration": 44, "velocity": 92}, {"time": 16, "pitch": 74, "duration": 44, "velocity": 95}, {"time": 17, "pitch": 80, "duration": 42, "velocity": 96}, {"time": 61, "pitch": 68, "duration": 50, "velocity": 86}, {"time": 62, "pitch": 49, "duration": 50, "velocity": 96}, {"time": 63, "pitch": 73, "duration": 49, "velocity": 85}, {"time": 64, "pitch": 78, "duration": 48, "velocity": 87}, {"time": 65, "pitch": 56, "duration": 47, "velocity": 83}, {"time": 109, "pitch": 68, "duration": 2, "velocity": 78}, {"time": 110, "pitch": 47, "duration": 49, "velocity": 91}, {"time": 111, "pitch": 73, "duration": 1, "velocity": 89}, {"time": 111, "pitch": 54, "duration": 49, "velocity": 91}, {"time": 113, "pitch": 76, "duration": 48, "velocity": 99}, {"time": 158, "pitch": 64, "duration": 49, "velocity": 89}, {"time": 159, "pitch": 68, "duration": 48, "velocity": 92}, {"time": 159, "pitch": 45, "duration": 49, "velocity": 90}, {"time": 159, "pitch": 57, "duration": 48, "velocity": 87}, {"time": 160, "pitch": 71, "duration": 48, "velocity": 92}, {"time": 160, "pitch": 73, "duration": 48, "velocity": 82}, {"time": 208, "pitch": 42, "duration": 49, "velocity": 99}, {"time": 214, "pitch": 49, "duration": 32, "velocity": 88}, {"time": 220, "pitch": 56, "duration": 5, "velocity": 98}, {"time": 226, "pitch": 59, "duration": 7, "velocity": 95}, {"time": 232, "pitch": 64, "duration": 6, "velocity": 102}, {"time": 238, "pitch": 61, "duration": 8, "velocity": 95}, {"time": 244, "pitch": 57, "duration": 9, "velocity": 93}, {"time": 250, "pitch": 49, "duration": 9, "velocity": 89}, {"time": 256, "pitch": 47, "duration": 52, "velocity": 97}, {"time": 262, "pitch": 54, "duration": 15, "velocity": 90}, {"time": 268, "pitch": 57, "duration": 8, "velocity": 89}, {"time": 274, "pitch": 62, "duration": 11, "velocity": 94}, {"time": 280, "pitch": 54, "duration": 28, "velocity": 78}, {"time": 286, "pitch": 62, "duration": 20, "velocity": 95}, {"time": 286, "pitch": 66, "duration": 20, "velocity": 93}, {"time": 301, "pitch": 59, "duration": 18, "velocity": 88}, {"time": 303, "pitch": 64, "duration": 21, "velocity": 94}, {"time": 303, "pitch": 40, "duration": 50, "velocity": 96}, {"time": 304, "pitch": 69, "duration": 23, "velocity": 95}, {"time": 316, "pitch": 47, "duration": 37, "velocity": 79}, {"time": 322, "pitch": 59, "duration": 31, "velocity": 90}, {"time": 328, "pitch": 64, "duration": 25, "velocity": 86}, {"time": 334, "pitch": 69, "duration": 20, "velocity": 93}, {"time": 350, "pitch": 61, "duration": 11, "velocity": 83}, {"time": 352, "pitch": 65, "duration": 15, "velocity": 89}, {"time": 352, "pitch": 49, "duration": 47, "velocity": 96}, {"time": 352, "pitch": 68, "duration": 16, "velocity": 90}, {"time": 353, "pitch": 73, "duration": 46, "velocity": 95}, {"time": 358, "pitch": 56, "duration": 41, "velocity": 80}, {"time": 364, "pitch": 61, "duration": 35, "velocity": 84}, {"time": 400, "pitch": 42, "duration": 39, "velocity": 98}, {"time": 406, "pitch": 49, "duration": 16, "velocity": 89}, {"time": 412, "pitch": 56, "duration": 3, "velocity": 95}, {"time": 418, "pitch": 59, "duration": 9, "velocity": 96}, {"time": 424, "pitch": 49, "duration": 16, "velocity": 82}, {"time": 430, "pitch": 61, "duration": 17, "velocity": 97}, {"time": 448, "pitch": 40, "duration": 38, "velocity": 97}, {"time": 448, "pitch": 59, "duration": 12, "velocity": 95}, {"time": 454, "pitch": 47, "duration": 31, "velocity": 91}, {"time": 460, "pitch": 56, "duration": 8, "velocity": 95}, {"time": 466, "pitch": 64, "duration": 23, "velocity": 100}, {"time": 478, "pitch": 59, "duration": 9, "velocity": 91}, {"time": 496, "pitch": 50, "duration": 44, "velocity": 97}, {"time": 502, "pitch": 57, "duration": 40, "velocity": 88}, {"time": 508, "pitch": 62, "duration": 8, "velocity": 94}, {"time": 514, "pitch": 64, "duration": 9, "velocity": 101}, {"time": 526, "pitch": 62, "duration": 15, "velocity": 93}, {"time": 526, "pitch": 66, "duration": 14, "velocity": 96}, {"time": 544, "pitch": 49, "duration": 50, "velocity": 97}, {"time": 550, "pitch": 56, "duration": 28, "velocity": 88}, {"time": 556, "pitch": 65, "duration": 4, "velocity": 89}, {"time": 562, "pitch": 61, "duration": 9, "velocity": 91}, {"time": 562, "pitch": 71, "duration": 11, "velocity": 95}, {"time": 574, "pitch": 61, "duration": 10, "velocity": 85}, {"time": 574, "pitch": 65, "duration": 18, "velocity": 93}, {"time": 574, "pitch": 71, "duration": 19, "velocity": 83}, {"time": 580, "pitch": 56, "duration": 13, "velocity": 88}, {"time": 586, "pitch": 61, "duration": 7, "velocity": 84}, {"time": 592, "pitch": 42, "duration": 38, "velocity": 98}, {"time": 592, "pitch": 54, "duration": 9, "velocity": 87}, {"time": 592, "pitch": 61, "duration": 1, "velocity": 95}, {"time": 598, "pitch": 49, "duration": 15, "velocity": 86}, {"time": 604, "pitch": 57, "duration": 4, "velocity": 84}, {"time": 610, "pitch": 66, "duration": 11, "velocity": 96}, {"time": 616, "pitch": 49, "duration": 9, "velocity": 79}, {"time": 622, "pitch": 57, "duration": 5, "velocity": 94}, {"time": 628, "pitch": 54, "duration": 3, "velocity": 95}, {"time": 628, "pitch": 57, "duration": 7, "velocity": 96}, {"time": 628, "pitch": 61, "duration": 9, "velocity": 89}, {"time": 634, "pitch": 54, "duration": 4, "velocity": 90}, {"time": 640, "pitch": 52, "duration": 41, "velocity": 98}, {"time": 646, "pitch": 59, "duration": 20, "velocity": 88}, {"time": 652, "pitch": 64, "duration": 4, "velocity": 97}, {"time": 658, "pitch": 64, "duration": 16, "velocity": 100}, {"time": 658, "pitch": 68, "duration": 14, "velocity": 96}, {"time": 670, "pitch": 59, "duration": 11, "velocity": 84}, {"time": 676, "pitch": 64, "duration": 11, "velocity": 95}, {"time": 676, "pitch": 68, "duration": 12, "velocity": 96}, {"time": 676, "pitch": 71, "duration": 11, "velocity": 96}, {"time": 688, "pitch": 50, "duration": 35, "velocity": 97}, {"time": 694, "pitch": 57, "duration": 27, "velocity": 82}, {"time": 700, "pitch": 62, "duration": 7, "velocity": 96}, {"time": 706, "pitch": 64, "duration": 7, "velocity": 96}, {"time": 712, "pitch": 66, "duration": 4, "velocity": 88}, {"time": 718, "pitch": 62, "duration": 7, "velocity": 94}, {"time": 718, "pitch": 69, "duration": 10, "velocity": 96}, {"time": 736, "pitch": 49, "duration": 35, "velocity": 95}, {"time": 736, "pitch": 61, "duration": 9, "velocity": 86}, {"time": 736, "pitch": 64, "duration": 13, "velocity": 97}, {"time": 742, "pitch": 56, "duration": 30, "velocity": 81}, {"time": 748, "pitch": 61, "duration": 4, "velocity": 82}, {"time": 754, "pitch": 61, "duration": 19, "velocity": 96}, {"time": 754, "pitch": 68, "duration": 20, "velocity": 92}, {"time": 784, "pitch": 47, "duration": 39, "velocity": 94}, {"time": 784, "pitch": 59, "duration": 8, "velocity": 89}, {"time": 784, "pitch": 62, "duration": 14, "velocity": 90}, {"time": 790, "pitch": 54, "duration": 33, "velocity": 83}, {"time": 796, "pitch": 59, "duration": 5, "velocity": 93}, {"time": 802, "pitch": 59, "duration": 19, "velocity": 96}, {"time": 802, "pitch": 62, "duration": 19, "velocity": 96}, {"time": 820, "pitch": 66, "duration": 5, "velocity": 98}, {"time": 832, "pitch": 49, "duration": 44, "velocity": 99}, {"time": 832, "pitch": 61, "duration": 8, "velocity": 88}, {"time": 832, "pitch": 68, "duration": 12, "velocity": 88}, {"time": 838, "pitch": 56, "duration": 15, "velocity": 84}, {"time": 844, "pitch": 61, "duration": 23, "velocity": 91}, {"time": 850, "pitch": 68, "duration": 16, "velocity": 95}, {"time": 856, "pitch": 56, "duration": 15, "velocity": 75}, {"time": 868, "pitch": 71, "duration": 12, "velocity": 96}, {"time": 877, "pitch": 54, "duration": 10, "velocity": 83}, {"time": 879, "pitch": 57, "duration": 11, "velocity": 95}, {"time": 880, "pitch": 42, "duration": 60, "velocity": 101}, {"time": 880, "pitch": 61, "duration": 9, "velocity": 95}, {"time": 881, "pitch": 66, "duration": 12, "velocity": 59}, {"time": 886, "pitch": 49, "duration": 55, "velocity": 75}, {"time": 892, "pitch": 54, "duration": 47, "velocity": 88}, {"time": 898, "pitch": 66, "duration": 40, "velocity": 91}, {"time": 949, "pitch": 54, "duration": 4, "velocity": 89}, {"time": 951, "pitch": 58, "duration": 8, "velocity": 93}, {"time": 952, "pitch": 42, "duration": 25, "velocity": 103}, {"time": 952, "pitch": 64, "duration": 12, "velocity": 105}, {"time": 958, "pitch": 49, "duration": 20, "velocity": 94}, {"time": 964, "pitch": 54, "duration": 9, "velocity": 104}, {"time": 970, "pitch": 64, "duration": 6, "velocity": 107}, {"time": 976, "pitch": 47, "duration": 39, "velocity": 96}, {"time": 976, "pitch": 62, "duration": 13, "velocity": 95}, {"time": 982, "pitch": 54, "duration": 23, "velocity": 84}, {"time": 988, "pitch": 57, "duration": 24, "velocity": 97}, {"time": 994, "pitch": 62, "duration": 20, "velocity": 93}, {"time": 994, "pitch": 66, "duration": 24, "velocity": 95}, {"time": 1012, "pitch": 54, "duration": 3, "velocity": 81}, {"time": 1018, "pitch": 57, "duration": 4, "velocity": 92}, {"time": 1018, "pitch": 62, "duration": 3, "velocity": 64}, {"time": 1024, "pitch": 40, "duration": 40, "velocity": 97}, {"time": 1024, "pitch": 59, "duration": 6, "velocity": 89}, {"time": 1024, "pitch": 64, "duration": 14, "velocity": 97}, {"time": 1030, "pitch": 47, "duration": 23, "velocity": 92}, {"time": 1036, "pitch": 52, "duration": 25, "velocity": 95}, {"time": 1042, "pitch": 56, "duration": 29, "velocity": 95}, {"time": 1042, "pitch": 64, "duration": 26, "velocity": 101}, {"time": 1060, "pitch": 47, "duration": 5, "velocity": 92}, {"time": 1066, "pitch": 52, "duration": 6, "velocity": 102}, {"time": 1072, "pitch": 45, "duration": 44, "velocity": 98}, {"time": 1078, "pitch": 52, "duration": 37, "velocity": 93}, {"time": 1084, "pitch": 59, "duration": 6, "velocity": 93}, {"time": 1090, "pitch": 57, "duration": 16, "velocity": 90}, {"time": 1090, "pitch": 61, "duration": 16, "velocity": 109}, {"time": 1108, "pitch": 57, "duration": 2, "velocity": 89}, {"time": 1108, "pitch": 64, "duration": 8, "velocity": 100}, {"time": 1114, "pitch": 57, "duration": 8, "velocity": 91}, {"time": 1120, "pitch": 42, "duration": 35, "velocity": 98}, {"time": 1126, "pitch": 49, "duration": 16, "velocity": 84}, {"time": 1132, "pitch": 54, "duration": 5, "velocity": 96}, {"time": 1138, "pitch": 54, "duration": 16, "velocity": 106}, {"time": 1138, "pitch": 66, "duration": 17, "velocity": 91}, {"time": 1156, "pitch": 42, "duration": 6, "velocity": 101}, {"time": 1156, "pitch": 54, "duration": 8, "velocity": 99}, {"time": 1156, "pitch": 58, "duration": 10, "velocity": 88}, {"time": 1168, "pitch": 47, "duration": 35, "velocity": 90}, {"time": 1168, "pitch": 59, "duration": 8, "velocity": 81}, {"time": 1168, "pitch": 62, "duration": 10, "velocity": 93}, {"time": 1174, "pitch": 54, "duration": 15, "velocity": 96}, {"time": 1180, "pitch": 59, "duration": 5, "velocity": 101}, {"time": 1186, "pitch": 59, "duration": 10, "velocity": 96}, {"time": 1186, "pitch": 66, "duration": 13, "velocity": 92}, {"time": 1198, "pitch": 59, "duration": 17, "velocity": 97}, {"time": 1198, "pitch": 62, "duration": 17, "velocity": 97}, {"time": 1216, "pitch": 40, "duration": 32, "velocity": 100}, {"time": 1216, "pitch": 64, "duration": 15, "velocity": 96}, {"time": 1222, "pitch": 47, "duration": 15, "velocity": 88}, {"time": 1228, "pitch": 52, "duration": 14, "velocity": 96}, {"time": 1228, "pitch": 56, "duration": 2, "velocity": 53}, {"time": 1234, "pitch": 64, "duration": 11, "velocity": 109}, {"time": 1240, "pitch": 47, "duration": 8, "velocity": 82}, {"time": 1246, "pitch": 52, "duration": 4, "velocity": 95}, {"time": 1246, "pitch": 56, "duration": 7, "velocity": 96}, {"time": 1246, "pitch": 59, "duration": 8, "velocity": 96}, {"time": 1246, "pitch": 64, "duration": 10, "velocity": 78}, {"time": 1264, "pitch": 45, "duration": 42, "velocity": 97}, {"time": 1264, "pitch": 57, "duration": 20, "velocity": 96}, {"time": 1264, "pitch": 61, "duration": 21, "velocity": 91}, {"time": 1270, "pitch": 52, "duration": 15, "velocity": 95}, {"time": 1276, "pitch": 64, "duration": 15, "velocity": 95}, {"time": 1282, "pitch": 69, "duration": 14, "velocity": 96}, {"time": 1288, "pitch": 52, "duration": 19, "velocity": 85}, {"time": 1294, "pitch": 57, "duration": 4, "velocity": 89}, {"time": 1294, "pitch": 61, "duration": 11, "velocity": 98}, {"time": 1294, "pitch": 64, "duration": 13, "velocity": 97}, {"time": 1312, "pitch": 49, "duration": 37, "velocity": 95}, {"time": 1312, "pitch": 61, "duration": 8, "velocity": 98}, {"time": 1312, "pitch": 66, "duration": 13, "velocity": 96}, {"time": 1318, "pitch": 44, "duration": 31, "velocity": 80}, {"time": 1324, "pitch": 61, "duration": 15, "velocity": 97}, {"time": 1330, "pitch": 66, "duration": 20, "velocity": 104}, {"time": 1348, "pitch": 61, "duration": 10, "velocity": 86}, {"time": 1354, "pitch": 66, "duration": 3, "velocity": 94}, {"time": 1360, "pitch": 37, "duration": 48, "velocity": 98}, {"time": 1360, "pitch": 61, "duration": 47, "velocity": 93}, {"time": 1360, "pitch": 65, "duration": 47, "velocity": 98}, {"time": 1361, "pitch": 49, "duration": 47, "velocity": 82}, {"time": 1408, "pitch": 42, "duration": 32, "velocity": 95}, {"time": 1408, "pitch": 66, "duration": 7, "velocity": 86}, {"time": 1408, "pitch": 69, "duration": 13, "velocity": 91}, {"time": 1414, "pitch": 49, "duration": 16, "velocity": 82}, {"time": 1420, "pitch": 66, "duration": 4, "velocity": 93}, {"time": 1426, "pitch": 66, "duration": 8, "velocity": 102}, {"time": 1426, "pitch": 78, "duration": 5, "velocity": 90}, {"time": 1432, "pitch": 49, "duration": 9, "velocity": 72}, {"time": 1438, "pitch": 66, "duration": 6, "velocity": 96}, {"time": 1438, "pitch": 69, "duration": 6, "velocity": 94}, {"time": 1456, "pitch": 47, "duration": 38, "velocity": 96}, {"time": 1456, "pitch": 59, "duration": 8, "velocity": 93}, {"time": 1456, "pitch": 62, "duration": 13, "velocity": 91}, {"time": 1462, "pitch": 54, "duration": 15, "velocity": 80}, {"time": 1468, "pitch": 59, "duration": 4, "velocity": 90}, {"time": 1474, "pitch": 59, "duration": 15, "velocity": 89}, {"time": 1474, "pitch": 66, "duration": 21, "velocity": 98}, {"time": 1486, "pitch": 54, "duration": 6, "velocity": 84}, {"time": 1492, "pitch": 59, "duration": 10, "velocity": 97}, {"time": 1498, "pitch": 62, "duration": 6, "velocity": 96}, {"time": 1504, "pitch": 40, "duration": 3, "velocity": 97}, {"time": 1504, "pitch": 59, "duration": 2, "velocity": 89}, {"time": 1504, "pitch": 64, "duration": 8, "velocity": 94}, {"time": 1510, "pitch": 52, "duration": 34, "velocity": 82}, {"time": 1516, "pitch": 59, "duration": 9, "velocity": 98}, {"time": 1522, "pitch": 64, "duration": 10, "velocity": 99}, {"time": 1522, "pitch": 68, "duration": 10, "velocity": 107}, {"time": 1528, "pitch": 59, "duration": 10, "velocity": 85}, {"time": 1534, "pitch": 64, "duration": 8, "velocity": 91}, {"time": 1534, "pitch": 68, "duration": 6, "velocity": 94}, {"time": 1534, "pitch": 71, "duration": 8, "velocity": 94}, {"time": 1540, "pitch": 59, "duration": 4, "velocity": 74}, {"time": 1546, "pitch": 76, "duration": 10, "velocity": 95}, {"time": 1552, "pitch": 45, "duration": 38, "velocity": 94}, {"time": 1558, "pitch": 52, "duration": 21, "velocity": 88}, {"time": 1564, "pitch": 61, "duration": 8, "velocity": 94}, {"time": 1570, "pitch": 57, "duration": 4, "velocity": 85}, {"time": 1576, "pitch": 57, "duration": 10, "velocity": 99}, {"time": 1576, "pitch": 64, "duration": 10, "velocity": 98}, {"time": 1582, "pitch": 52, "duration": 7, "velocity": 88}, {"time": 1588, "pitch": 61, "duration": 6, "velocity": 99}, {"time": 1588, "pitch": 64, "duration": 8, "velocity": 99}, {"time": 1588, "pitch": 69, "duration": 9, "velocity": 93}, {"time": 1594, "pitch": 57, "duration": 2, "velocity": 83}, {"time": 1600, "pitch": 47, "duration": 37, "velocity": 94}, {"time": 1600, "pitch": 59, "duration": 9, "velocity": 94}, {"time": 1600, "pitch": 62, "duration": 14, "velocity": 94}, {"time": 1606, "pitch": 54, "duration": 16, "velocity": 79}, {"time": 1612, "pitch": 59, "duration": 4, "velocity": 87}, {"time": 1618, "pitch": 59, "duration": 9, "velocity": 98}, {"time": 1618, "pitch": 66, "duration": 11, "velocity": 91}, {"time": 1624, "pitch": 54, "duration": 11, "velocity": 80}, {"time": 1630, "pitch": 59, "duration": 3, "velocity": 96}, {"time": 1630, "pitch": 62, "duration": 3, "velocity": 97}, {"time": 1648, "pitch": 37, "duration": 14, "velocity": 96}, {"time": 1648, "pitch": 61, "duration": 9, "velocity": 93}, {"time": 1648, "pitch": 65, "duration": 12, "velocity": 98}, {"time": 1654, "pitch": 44, "duration": 9, "velocity": 84}, {"time": 1660, "pitch": 61, "duration": 8, "velocity": 92}, {"time": 1672, "pitch": 42, "duration": 13, "velocity": 94}, {"time": 1672, "pitch": 61, "duration": 8, "velocity": 91}, {"time": 1672, "pitch": 66, "duration": 13, "velocity": 94}, {"time": 1672, "pitch": 69, "duration": 13, "velocity": 95}, {"time": 1678, "pitch": 49, "duration": 9, "velocity": 88}, {"time": 1684, "pitch": 61, "duration": 7, "velocity": 98}, {"time": 1690, "pitch": 66, "duration": 5, "velocity": 86}, {"time": 1696, "pitch": 50, "duration": 12, "velocity": 99}, {"time": 1696, "pitch": 62, "duration": 7, "velocity": 93}, {"time": 1696, "pitch": 66, "duration": 12, "velocity": 99}, {"time": 1702, "pitch": 57, "duration": 7, "velocity": 94}, {"time": 1708, "pitch": 62, "duration": 3, "velocity": 97}, {"time": 1720, "pitch": 44, "duration": 13, "velocity": 94}, {"time": 1720, "pitch": 60, "duration": 4, "velocity": 91}, {"time": 1720, "pitch": 63, "duration": 8, "velocity": 94}, {"time": 1720, "pitch": 66, "duration": 8, "velocity": 91}, {"time": 1720, "pitch": 69, "duration": 13, "velocity": 93}, {"time": 1726, "pitch": 60, "duration": 13, "velocity": 93}, {"time": 1732, "pitch": 63, "duration": 7, "velocity": 100}, {"time": 1738, "pitch": 69, "duration": 5, "velocity": 82}, {"time": 1744, "pitch": 49, "duration": 48, "velocity": 100}, {"time": 1750, "pitch": 56, "duration": 16, "velocity": 89}, {"time": 1756, "pitch": 61, "duration": 4, "velocity": 99}, {"time": 1762, "pitch": 61, "duration": 10, "velocity": 99}, {"time": 1762, "pitch": 68, "duration": 8, "velocity": 96}, {"time": 1768, "pitch": 56, "duration": 9, "velocity": 84}, {"time": 1774, "pitch": 61, "duration": 9, "velocity": 102}, {"time": 1774, "pitch": 73, "duration": 18, "velocity": 88}, {"time": 1780, "pitch": 56, "duration": 12, "velocity": 94}, {"time": 1792, "pitch": 42, "duration": 32, "velocity": 95}, {"time": 1792, "pitch": 66, "duration": 7, "velocity": 86}, {"time": 1792, "pitch": 69, "duration": 13, "velocity": 91}, {"time": 1798, "pitch": 49, "duration": 16, "velocity": 82}, {"time": 1804, "pitch": 66, "duration": 4, "velocity": 93}, {"time": 1810, "pitch": 66, "duration": 8, "velocity": 102}, {"time": 1810, "pitch": 78, "duration": 5, "velocity": 90}, {"time": 1816, "pitch": 49, "duration": 9, "velocity": 72}, {"time": 1822, "pitch": 66, "duration": 6, "velocity": 96}, {"time": 1822, "pitch": 69, "duration": 6, "velocity": 94}, {"time": 1840, "pitch": 47, "duration": 38, "velocity": 96}, {"time": 1840, "pitch": 59, "duration": 8, "velocity": 93}, {"time": 1840, "pitch": 62, "duration": 13, "velocity": 91}, {"time": 1846, "pitch": 54, "duration": 15, "velocity": 80}, {"time": 1852, "pitch": 59, "duration": 4, "velocity": 90}, {"time": 1858, "pitch": 59, "duration": 15, "velocity": 89}, {"time": 1858, "pitch": 66, "duration": 21, "velocity": 98}, {"time": 1870, "pitch": 54, "duration": 6, "velocity": 84}, {"time": 1876, "pitch": 59, "duration": 10, "velocity": 97}, {"time": 1882, "pitch": 62, "duration": 6, "velocity": 96}, {"time": 1888, "pitch": 40, "duration": 3, "velocity": 97}, {"time": 1888, "pitch": 59, "duration": 2, "velocity": 89}, {"time": 1888, "pitch": 64, "duration": 8, "velocity": 94}, {"time": 1894, "pitch": 52, "duration": 34, "velocity": 82}, {"time": 1900, "pitch": 59, "duration": 9, "velocity": 98}, {"time": 1906, "pitch": 64, "duration": 10, "velocity": 99}, {"time": 1906, "pitch": 68, "duration": 10, "velocity": 107}, {"time": 1912, "pitch": 59, "duration": 10, "velocity": 85}, {"time": 1918, "pitch": 64, "duration": 8, "velocity": 91}, {"time": 1918, "pitch": 68, "duration": 6, "velocity": 94}, {"time": 1918, "pitch": 71, "duration": 8, "velocity": 94}, {"time": 1924, "pitch": 59, "duration": 4, "velocity": 74}, {"time": 1930, "pitch": 76, "duration": 10, "velocity": 95}, {"time": 1936, "pitch": 45, "duration": 38, "velocity": 94}, {"time": 1942, "pitch": 52, "duration": 21, "velocity": 88}, {"time": 1948, "pitch": 61, "duration": 8, "velocity": 94}, {"time": 1954, "pitch": 57, "duration": 4, "velocity": 85}, {"time": 1960, "pitch": 57, "duration": 10, "velocity": 99}, {"time": 1960, "pitch": 64, "duration": 10, "velocity": 98}, {"time": 1966, "pitch": 52, "duration": 7, "velocity": 88}, {"time": 1972, "pitch": 61, "duration": 6, "velocity": 99}, {"time": 1972, "pitch": 64, "duration": 8, "velocity": 99}, {"time": 1972, "pitch": 69, "duration": 9, "velocity": 93}, {"time": 1978, "pitch": 57, "duration": 2, "velocity": 83}, {"time": 1984, "pitch": 47, "duration": 37, "velocity": 94}, {"time": 1984, "pitch": 59, "duration": 9, "velocity": 94}, {"time": 1984, "pitch": 62, "duration": 14, "velocity": 94}, {"time": 1990, "pitch": 54, "duration": 16, "velocity": 79}, {"time": 1996, "pitch": 59, "duration": 4, "velocity": 87}, {"time": 2002, "pitch": 59, "duration": 9, "velocity": 98}, {"time": 2002, "pitch": 66, "duration": 11, "velocity": 91}, {"time": 2008, "pitch": 54, "duration": 11, "velocity": 80}, {"time": 2014, "pitch": 59, "duration": 3, "velocity": 96}, {"time": 2014, "pitch": 62, "duration": 3, "velocity": 97}, {"time": 2032, "pitch": 37, "duration": 14, "velocity": 96}, {"time": 2032, "pitch": 61, "duration": 9, "velocity": 93}, {"time": 2032, "pitch": 65, "duration": 12, "velocity": 98}, {"time": 2038, "pitch": 44, "duration": 9, "velocity": 84}, {"time": 2044, "pitch": 61, "duration": 8, "velocity": 92}, {"time": 2056, "pitch": 42, "duration": 13, "velocity": 94}, {"time": 2056, "pitch": 61, "duration": 8, "velocity": 91}, {"time": 2056, "pitch": 66, "duration": 13, "velocity": 94}, {"time": 2056, "pitch": 69, "duration": 13, "velocity": 95}, {"time": 2062, "pitch": 49, "duration": 9, "velocity": 88}, {"time": 2068, "pitch": 61, "duration": 7, "velocity": 98}, {"time": 2074, "pitch": 66, "duration": 5, "velocity": 86}, {"time": 2080, "pitch": 50, "duration": 12, "velocity": 99}, {"time": 2080, "pitch": 62, "duration": 7, "velocity": 93}, {"time": 2080, "pitch": 66, "duration": 12, "velocity": 99}, {"time": 2086, "pitch": 57, "duration": 7, "velocity": 94}, {"time": 2092, "pitch": 62, "duration": 3, "velocity": 97}, {"time": 2104, "pitch": 44, "duration": 13, "velocity": 94}, {"time": 2104, "pitch": 60, "duration": 4, "velocity": 91}, {"time": 2104, "pitch": 63, "duration": 8, "velocity": 94}, {"time": 2104, "pitch": 66, "duration": 8, "velocity": 91}, {"time": 2104, "pitch": 69, "duration": 13, "velocity": 93}, {"time": 2110, "pitch": 60, "duration": 13, "velocity": 93}, {"time": 2116, "pitch": 63, "duration": 7, "velocity": 100}, {"time": 2122, "pitch": 69, "duration": 5, "velocity": 82}, {"time": 2128, "pitch": 49, "duration": 48, "velocity": 100}, {"time": 2134, "pitch": 56, "duration": 16, "velocity": 89}, {"time": 2140, "pitch": 61, "duration": 4, "velocity": 99}, {"time": 2146, "pitch": 61, "duration": 10, "velocity": 99}, {"time": 2146, "pitch": 68, "duration": 8, "velocity": 96}, {"time": 2152, "pitch": 56, "duration": 9, "velocity": 84}, {"time": 2158, "pitch": 61, "duration": 9, "velocity": 102}, {"time": 2158, "pitch": 73, "duration": 18, "velocity": 88}, {"time": 2164, "pitch": 56, "duration": 12, "velocity": 94}, {"time": 2173, "pitch": 37, "duration": 39, "velocity": 79}, {"time": 2174, "pitch": 68, "duration": 45, "velocity": 87}, {"time": 2175, "pitch": 49, "duration": 1, "velocity": 89}, {"time": 2176, "pitch": 73, "duration": 1, "velocity": 85}, {"time": 2177, "pitch": 80, "duration": 43, "velocity": 87}, {"time": 2224, "pitch": 47, "duration": 34, "velocity": 93}, {"time": 2224, "pitch": 59, "duration": 8, "velocity": 93}, {"time": 2224, "pitch": 62, "duration": 13, "velocity": 91}, {"time": 2230, "pitch": 54, "duration": 26, "velocity": 89}, {"time": 2236, "pitch": 59, "duration": 4, "velocity": 100}, {"time": 2242, "pitch": 59, "duration": 10, "velocity": 94}, {"time": 2242, "pitch": 66, "duration": 12, "velocity": 91}, {"time": 2254, "pitch": 59, "duration": 9, "velocity": 92}, {"time": 2254, "pitch": 62, "duration": 8, "velocity": 92}, {"time": 2272, "pitch": 40, "duration": 34, "velocity": 93}, {"time": 2272, "pitch": 59, "duration": 7, "velocity": 91}, {"time": 2272, "pitch": 64, "duration": 6, "velocity": 95}, {"time": 2278, "pitch": 47, "duration": 16, "velocity": 93}, {"time": 2284, "pitch": 52, "duration": 5, "velocity": 87}, {"time": 2290, "pitch": 52, "duration": 10, "velocity": 100}, {"time": 2290, "pitch": 64, "duration": 10, "velocity": 93}, {"time": 2296, "pitch": 47, "duration": 10, "velocity": 78}, {"time": 2302, "pitch": 56, "duration": 7, "velocity": 97}, {"time": 2302, "pitch": 59, "duration": 8, "velocity": 92}, {"time": 2308, "pitch": 52, "duration": 3, "velocity": 102}, {"time": 2320, "pitch": 50, "duration": 46, "velocity": 93}, {"time": 2320, "pitch": 57, "duration": 4, "velocity": 89}, {"time": 2320, "pitch": 62, "duration": 7, "velocity": 87}, {"time": 2326, "pitch": 57, "duration": 10, "velocity": 87}, {"time": 2332, "pitch": 61, "duration": 5, "velocity": 97}, {"time": 2338, "pitch": 62, "duration": 3, "velocity": 96}, {"time": 2350, "pitch": 57, "duration": 6, "velocity": 92}, {"time": 2350, "pitch": 66, "duration": 18, "velocity": 95}, {"time": 2362, "pitch": 57, "duration": 7, "velocity": 98}, {"time": 2368, "pitch": 42, "duration": 38, "velocity": 93}, {"time": 2368, "pitch": 61, "duration": 6, "velocity": 93}, {"time": 2368, "pitch": 66, "duration": 8, "velocity": 90}, {"time": 2374, "pitch": 49, "duration": 16, "velocity": 84}, {"time": 2380, "pitch": 61, "duration": 3, "velocity": 82}, {"time": 2386, "pitch": 61, "duration": 12, "velocity": 96}, {"time": 2386, "pitch": 69, "duration": 12, "velocity": 90}, {"time": 2392, "pitch": 49, "duration": 14, "velocity": 75}, {"time": 2404, "pitch": 61, "duration": 4, "velocity": 94}, {"time": 2404, "pitch": 66, "duration": 9, "velocity": 92}, {"time": 2410, "pitch": 61, "duration": 3, "velocity": 83}, {"time": 2416, "pitch": 47, "duration": 42, "velocity": 93}, {"time": 2416, "pitch": 57, "duration": 1, "velocity": 82}, {"time": 2416, "pitch": 59, "duration": 9, "velocity": 85}, {"time": 2416, "pitch": 60, "duration": 1, "velocity": 82}, {"time": 2416, "pitch": 62, "duration": 13, "velocity": 84}, {"time": 2422, "pitch": 54, "duration": 16, "velocity": 90}, {"time": 2428, "pitch": 59, "duration": 4, "velocity": 94}, {"time": 2434, "pitch": 59, "duration": 9, "velocity": 96}, {"time": 2434, "pitch": 62, "duration": 9, "velocity": 94}, {"time": 2446, "pitch": 59, "duration": 18, "velocity": 92}, {"time": 2446, "pitch": 62, "duration": 18, "velocity": 93}, {"time": 2446, "pitch": 66, "duration": 18, "velocity": 91}, {"time": 2464, "pitch": 37, "duration": 3, "velocity": 91}, {"time": 2464, "pitch": 61, "duration": 13, "velocity": 96}, {"time": 2464, "pitch": 66, "duration": 13, "velocity": 92}, {"time": 2470, "pitch": 49, "duration": 38, "velocity": 91}, {"time": 2476, "pitch": 56, "duration": 9, "velocity": 81}, {"time": 2482, "pitch": 61, "duration": 10, "velocity": 97}, {"time": 2482, "pitch": 65, "duration": 13, "velocity": 95}, {"time": 2488, "pitch": 56, "duration": 11, "velocity": 90}, {"time": 2494, "pitch": 61, "duration": 8, "velocity": 91}, {"time": 2500, "pitch": 56, "duration": 7, "velocity": 91}, {"time": 2512, "pitch": 42, "duration": 43, "velocity": 98}, {"time": 2518, "pitch": 49, "duration": 37, "velocity": 89}, {"time": 2524, "pitch": 54, "duration": 5, "velocity": 93}, {"time": 2530, "pitch": 56, "duration": 4, "velocity": 100}, {"time": 2536, "pitch": 57, "duration": 8, "velocity": 96}, {"time": 2542, "pitch": 61, "duration": 3, "velocity": 107}, {"time": 2548, "pitch": 66, "duration": 4, "velocity": 97}, {"time": 2560, "pitch": 42, "duration": 48, "velocity": 93}, {"time": 2560, "pitch": 57, "duration": 21, "velocity": 88}, {"time": 2560, "pitch": 61, "duration": 24, "velocity": 84}, {"time": 2560, "pitch": 66, "duration": 26, "velocity": 88}, {"time": 2578, "pitch": 49, "duration": 31, "velocity": 72}, {"time": 2581, "pitch": 54, "duration": 4, "velocity": 89}, {"time": 2583, "pitch": 58, "duration": 8, "velocity": 93}, {"time": 2584, "pitch": 42, "duration": 24, "velocity": 103}, {"time": 2584, "pitch": 64, "duration": 12, "velocity": 105}, {"time": 2590, "pitch": 49, "duration": 19, "velocity": 94}, {"time": 2596, "pitch": 54, "duration": 9, "velocity": 104}, {"time": 2602, "pitch": 64, "duration": 6, "velocity": 107}, {"time": 2608, "pitch": 47, "duration": 39, "velocity": 96}, {"time": 2608, "pitch": 62, "duration": 13, "velocity": 95}, {"time": 2614, "pitch": 54, "duration": 23, "velocity": 84}, {"time": 2620, "pitch": 57, "duration": 24, "velocity": 97}, {"time": 2626, "pitch": 62, "duration": 20, "velocity": 93}, {"time": 2626, "pitch": 66, "duration": 24, "velocity": 95}, {"time": 2644, "pitch": 54, "duration": 3, "velocity": 81}, {"time": 2650, "pitch": 57, "duration": 4, "velocity": 92}, {"time": 2650, "pitch": 62, "duration": 3, "velocity": 64}, {"time": 2656, "pitch": 40, "duration": 40, "velocity": 97}, {"time": 2656, "pitch": 59, "duration": 6, "velocity": 89}, {"time": 2656, "pitch": 64, "duration": 14, "velocity": 97}, {"time": 2662, "pitch": 47, "duration": 23, "velocity": 92}, {"time": 2668, "pitch": 52, "duration": 25, "velocity": 95}, {"time": 2674, "pitch": 56, "duration": 29, "velocity": 95}, {"time": 2674, "pitch": 64, "duration": 26, "velocity": 101}, {"time": 2692, "pitch": 47, "duration": 5, "velocity": 92}, {"time": 2698, "pitch": 52, "duration": 6, "velocity": 102}, {"time": 2704, "pitch": 45, "duration": 44, "velocity": 98}, {"time": 2710, "pitch": 52, "duration": 37, "velocity": 93}, {"time": 2716, "pitch": 59, "duration": 6, "velocity": 93}, {"time": 2722, "pitch": 57, "duration": 16, "velocity": 90}, {"time": 2722, "pitch": 61, "duration": 16, "velocity": 109}, {"time": 2740, "pitch": 57, "duration": 2, "velocity": 89}, {"time": 2740, "pitch": 64, "duration": 8, "velocity": 100}, {"time": 2746, "pitch": 57, "duration": 8, "velocity": 91}, {"time": 2752, "pitch": 42, "duration": 35, "velocity": 98}, {"time": 2758, "pitch": 49, "duration": 16, "velocity": 84}, {"time": 2764, "pitch": 54, "duration": 5, "velocity": 96}, {"time": 2770, "pitch": 54, "duration": 16, "velocity": 106}, {"time": 2770, "pitch": 66, "duration": 17, "velocity": 91}, {"time": 2788, "pitch": 42, "duration": 6, "velocity": 101}, {"time": 2788, "pitch": 54, "duration": 8, "velocity": 99}, {"time": 2788, "pitch": 58, "duration": 10, "velocity": 88}, {"time": 2800, "pitch": 47, "duration": 35, "velocity": 90}, {"time": 2800, "pitch": 59, "duration": 8, "velocity": 81}, {"time": 2800, "pitch": 62, "duration": 10, "velocity": 93}, {"time": 2806, "pitch": 54, "duration": 15, "velocity": 96}, {"time": 2812, "pitch": 59, "duration": 5, "velocity": 101}, {"time": 2818, "pitch": 59, "duration": 10, "velocity": 96}, {"time": 2818, "pitch": 66, "duration": 13, "velocity": 92}, {"time": 2830, "pitch": 59, "duration": 17, "velocity": 97}, {"time": 2830, "pitch": 62, "duration": 17, "velocity": 97}, {"time": 2848, "pitch": 40, "duration": 32, "velocity": 100}, {"time": 2848, "pitch": 64, "duration": 15, "velocity": 96}, {"time": 2854, "pitch": 47, "duration": 15, "velocity": 88}, {"time": 2860, "pitch": 52, "duration": 14, "velocity": 96}, {"time": 2860, "pitch": 56, "duration": 2, "velocity": 53}, {"time": 2866, "pitch": 64, "duration": 11, "velocity": 109}, {"time": 2872, "pitch": 47, "duration": 8, "velocity": 82}, {"time": 2878, "pitch": 52, "duration": 4, "velocity": 95}, {"time": 2878, "pitch": 56, "duration": 7, "velocity": 96}, {"time": 2878, "pitch": 59, "duration": 8, "velocity": 96}, {"time": 2878, "pitch": 64, "duration": 10, "velocity": 78}, {"time": 2896, "pitch": 45, "duration": 42, "velocity": 97}, {"time": 2896, "pitch": 57, "duration": 20, "velocity": 96}, {"time": 2896, "pitch": 61, "duration": 21, "velocity": 91}, {"time": 2902, "pitch": 52, "duration": 15, "velocity": 95}, {"time": 2908, "pitch": 64, "duration": 15, "velocity": 95}, {"time": 2914, "pitch": 69, "duration": 14, "velocity": 96}, {"time": 2920, "pitch": 52, "duration": 19, "velocity": 85}, {"time": 2926, "pitch": 57, "duration": 4, "velocity": 89}, {"time": 2926, "pitch": 61, "duration": 11, "velocity": 98}, {"time": 2926, "pitch": 64, "duration": 13, "velocity": 97}, {"time": 2944, "pitch": 49, "duration": 37, "velocity": 95}, {"time": 2944, "pitch": 61, "duration": 8, "velocity": 98}, {"time": 2944, "pitch": 66, "duration": 13, "velocity": 96}, {"time": 2950, "pitch": 44, "duration": 31, "velocity": 80}, {"time": 2956, "pitch": 61, "duration": 15, "velocity": 97}, {"time": 2962, "pitch": 66, "duration": 20, "velocity": 104}, {"time": 2980, "pitch": 61, "duration": 10, "velocity": 86}, {"time": 2986, "pitch": 66, "duration": 3, "velocity": 94}, {"time": 2992, "pitch": 37, "duration": 48, "velocity": 98}, {"time": 2992, "pitch": 61, "duration": 47, "velocity": 93}, {"time": 2992, "pitch": 65, "duration": 47, "velocity": 98}, {"time": 2993, "pitch": 49, "duration": 47, "velocity": 82}, {"time": 3040, "pitch": 42, "duration": 32, "velocity": 95}, {"time": 3040, "pitch": 66, "duration": 7, "velocity": 86}, {"time": 3040, "pitch": 69, "duration": 13, "velocity": 91}, {"time": 3046, "pitch": 49, "duration": 16, "velocity": 82}, {"time": 3052, "pitch": 66, "duration": 4, "velocity": 93}, {"time": 3058, "pitch": 66, "duration": 8, "velocity": 102}, {"time": 3058, "pitch": 78, "duration": 5, "velocity": 90}, {"time": 3064, "pitch": 49, "duration": 9, "velocity": 72}, {"time": 3070, "pitch": 66, "duration": 6, "velocity": 96}, {"time": 3070, "pitch": 69, "duration": 6, "velocity": 94}, {"time": 3088, "pitch": 47, "duration": 38, "velocity": 96}, {"time": 3088, "pitch": 59, "duration": 8, "velocity": 93}, {"time": 3088, "pitch": 62, "duration": 13, "velocity": 91}, {"time": 3094, "pitch": 54, "duration": 15, "velocity": 80}, {"time": 3100, "pitch": 59, "duration": 4, "velocity": 90}, {"time": 3106, "pitch": 59, "duration": 15, "velocity": 89}, {"time": 3106, "pitch": 66, "duration": 21, "velocity": 98}, {"time": 3118, "pitch": 54, "duration": 6, "velocity": 84}, {"time": 3124, "pitch": 59, "duration": 10, "velocity": 97}, {"time": 3130, "pitch": 62, "duration": 6, "velocity": 96}, {"time": 3136, "pitch": 40, "duration": 3, "velocity": 97}, {"time": 3136, "pitch": 59, "duration": 2, "velocity": 89}, {"time": 3136, "pitch": 64, "duration": 8, "velocity": 94}, {"time": 3142, "pitch": 52, "duration": 34, "velocity": 82}, {"time": 3148, "pitch": 59, "duration": 9, "velocity": 98}, {"time": 3154, "pitch": 64, "duration": 10, "velocity": 99}, {"time": 3154, "pitch": 68, "duration": 10, "velocity": 107}, {"time": 3160, "pitch": 59, "duration": 10, "velocity": 85}, {"time": 3166, "pitch": 64, "duration": 8, "velocity": 91}, {"time": 3166, "pitch": 68, "duration": 6, "velocity": 94}, {"time": 3166, "pitch": 71, "duration": 8, "velocity": 94}, {"time": 3172, "pitch": 59, "duration": 4, "velocity": 74}, {"time": 3178, "pitch": 76, "duration": 10, "velocity": 95}, {"time": 3184, "pitch": 45, "duration": 38, "velocity": 94}, {"time": 3190, "pitch": 52, "duration": 21, "velocity": 88}, {"time": 3196, "pitch": 61, "duration": 8, "velocity": 94}, {"time": 3202, "pitch": 57, "duration": 4, "velocity": 85}, {"time": 3208, "pitch": 57, "duration": 10, "velocity": 99}, {"time": 3208, "pitch": 64, "duration": 10, "velocity": 98}, {"time": 3214, "pitch": 52, "duration": 7, "velocity": 88}, {"time": 3220, "pitch": 61, "duration": 6, "velocity": 99}, {"time": 3220, "pitch": 64, "duration": 8, "velocity": 99}, {"time": 3220, "pitch": 69, "duration": 9, "velocity": 93}, {"time": 3226, "pitch": 57, "duration": 2, "velocity": 83}, {"time": 3232, "pitch": 47, "duration": 37, "velocity": 94}, {"time": 3232, "pitch": 59, "duration": 9, "velocity": 94}, {"time": 3232, "pitch": 62, "duration": 14, "velocity": 94}, {"time": 3238, "pitch": 54, "duration": 16, "velocity": 79}, {"time": 3244, "pitch": 59, "duration": 4, "velocity": 87}, {"time": 3250, "pitch": 59, "duration": 9, "velocity": 98}, {"time": 3250, "pitch": 66, "duration": 11, "velocity": 91}, {"time": 3256, "pitch": 54, "duration": 11, "velocity": 80}, {"time": 3262, "pitch": 59, "duration": 3, "velocity": 96}, {"time": 3262, "pitch": 62, "duration": 3, "velocity": 97}, {"time": 3280, "pitch": 37, "duration": 14, "velocity": 96}, {"time": 3280, "pitch": 61, "duration": 9, "velocity": 93}, {"time": 3280, "pitch": 65, "duration": 12, "velocity": 98}, {"time": 3286, "pitch": 44, "duration": 9, "velocity": 84}, {"time": 3292, "pitch": 61, "duration": 8, "velocity": 92}, {"time": 3304, "pitch": 42, "duration": 13, "velocity": 94}, {"time": 3304, "pitch": 61, "duration": 8, "velocity": 91}, {"time": 3304, "pitch": 66, "duration": 13, "velocity": 94}, {"time": 3304, "pitch": 69, "duration": 13, "velocity": 95}, {"time": 3310, "pitch": 49, "duration": 9, "velocity": 88}, {"time": 3316, "pitch": 61, "duration": 7, "velocity": 98}, {"time": 3322, "pitch": 66, "duration": 5, "velocity": 86}, {"time": 3328, "pitch": 50, "duration": 12, "velocity": 99}, {"time": 3328, "pitch": 62, "duration": 7, "velocity": 93}, {"time": 3328, "pitch": 66, "duration": 12, "velocity": 99}, {"time": 3334, "pitch": 57, "duration": 7, "velocity": 94}, {"time": 3340, "pitch": 62, "duration": 3, "velocity": 97}, {"time": 3352, "pitch": 44, "duration": 13, "velocity": 94}, {"time": 3352, "pitch": 60, "duration": 4, "velocity": 91}, {"time": 3352, "pitch": 63, "duration": 8, "velocity": 94}, {"time": 3352, "pitch": 66, "duration": 8, "velocity": 91}, {"time": 3352, "pitch": 69, "duration": 13, "velocity": 93}, {"time": 3358, "pitch": 60, "duration": 13, "velocity": 93}, {"time": 3364, "pitch": 63, "duration": 7, "velocity": 100}, {"time": 3370, "pitch": 69, "duration": 5, "velocity": 82}, {"time": 3376, "pitch": 49, "duration": 48, "velocity": 100}, {"time": 3382, "pitch": 56, "duration": 16, "velocity": 89}, {"time": 3388, "pitch": 61, "duration": 4, "velocity": 99}, {"time": 3394, "pitch": 61, "duration": 10, "velocity": 99}, {"time": 3394, "pitch": 68, "duration": 8, "velocity": 96}, {"time": 3400, "pitch": 56, "duration": 9, "velocity": 84}, {"time": 3406, "pitch": 61, "duration": 9, "velocity": 102}, {"time": 3406, "pitch": 73, "duration": 18, "velocity": 88}, {"time": 3412, "pitch": 56, "duration": 12, "velocity": 94}, {"time": 3424, "pitch": 42, "duration": 32, "velocity": 95}, {"time": 3424, "pitch": 66, "duration": 7, "velocity": 86}, {"time": 3424, "pitch": 69, "duration": 13, "velocity": 91}, {"time": 3430, "pitch": 49, "duration": 16, "velocity": 82}, {"time": 3436, "pitch": 66, "duration": 4, "velocity": 93}, {"time": 3442, "pitch": 66, "duration": 8, "velocity": 102}, {"time": 3442, "pitch": 78, "duration": 5, "velocity": 90}, {"time": 3448, "pitch": 49, "duration": 9, "velocity": 72}, {"time": 3454, "pitch": 66, "duration": 6, "velocity": 96}, {"time": 3454, "pitch": 69, "duration": 6, "velocity": 94}, {"time": 3472, "pitch": 47, "duration": 38, "velocity": 96}, {"time": 3472, "pitch": 59, "duration": 8, "velocity": 93}, {"time": 3472, "pitch": 62, "duration": 13, "velocity": 91}, {"time": 3478, "pitch": 54, "duration": 15, "velocity": 80}, {"time": 3484, "pitch": 59, "duration": 4, "velocity": 90}, {"time": 3490, "pitch": 59, "duration": 15, "velocity": 89}, {"time": 3490, "pitch": 66, "duration": 21, "velocity": 98}, {"time": 3502, "pitch": 54, "duration": 6, "velocity": 84}, {"time": 3508, "pitch": 59, "duration": 10, "velocity": 97}, {"time": 3514, "pitch": 62, "duration": 6, "velocity": 96}, {"time": 3520, "pitch": 40, "duration": 3, "velocity": 97}, {"time": 3520, "pitch": 59, "duration": 2, "velocity": 89}, {"time": 3520, "pitch": 64, "duration": 8, "velocity": 94}, {"time": 3526, "pitch": 52, "duration": 34, "velocity": 82}, {"time": 3532, "pitch": 59, "duration": 9, "velocity": 98}, {"time": 3538, "pitch": 64, "duration": 10, "velocity": 99}, {"time": 3538, "pitch": 68, "duration": 10, "velocity": 107}, {"time": 3544, "pitch": 59, "duration": 10, "velocity": 85}, {"time": 3550, "pitch": 64, "duration": 8, "velocity": 91}, {"time": 3550, "pitch": 68, "duration": 6, "velocity": 94}, {"time": 3550, "pitch": 71, "duration": 8, "velocity": 94}, {"time": 3556, "pitch": 59, "duration": 4, "velocity": 74}, {"time": 3562, "pitch": 76, "duration": 10, "velocity": 95}, {"time": 3568, "pitch": 45, "duration": 38, "velocity": 94}, {"time": 3574, "pitch": 52, "duration": 21, "velocity": 88}, {"time": 3580, "pitch": 61, "duration": 8, "velocity": 94}, {"time": 3586, "pitch": 57, "duration": 4, "velocity": 85}, {"time": 3592, "pitch": 57, "duration": 10, "velocity": 99}, {"time": 3592, "pitch": 64, "duration": 10, "velocity": 98}, {"time": 3598, "pitch": 52, "duration": 7, "velocity": 88}, {"time": 3604, "pitch": 61, "duration": 6, "velocity": 99}, {"time": 3604, "pitch": 64, "duration": 8, "velocity": 99}, {"time": 3604, "pitch": 69, "duration": 9, "velocity": 93}, {"time": 3610, "pitch": 57, "duration": 2, "velocity": 83}, {"time": 3616, "pitch": 47, "duration": 37, "velocity": 94}, {"time": 3616, "pitch": 59, "duration": 9, "velocity": 94}, {"time": 3616, "pitch": 62, "duration": 14, "velocity": 94}, {"time": 3622, "pitch": 54, "duration": 16, "velocity": 79}, {"time": 3628, "pitch": 59, "duration": 4, "velocity": 87}, {"time": 3634, "pitch": 59, "duration": 9, "velocity": 98}, {"time": 3634, "pitch": 66, "duration": 11, "velocity": 91}, {"time": 3640, "pitch": 54, "duration": 11, "velocity": 80}, {"time": 3646, "pitch": 59, "duration": 3, "velocity": 96}, {"time": 3646, "pitch": 62, "duration": 3, "velocity": 97}, {"time": 3664, "pitch": 37, "duration": 14, "velocity": 96}, {"time": 3664, "pitch": 61, "duration": 9, "velocity": 93}, {"time": 3664, "pitch": 65, "duration": 12, "velocity": 98}, {"time": 3670, "pitch": 44, "duration": 9, "velocity": 84}, {"time": 3676, "pitch": 61, "duration": 8, "velocity": 92}, {"time": 3688, "pitch": 42, "duration": 13, "velocity": 94}, {"time": 3688, "pitch": 61, "duration": 8, "velocity": 91}, {"time": 3688, "pitch": 66, "duration": 13, "velocity": 94}, {"time": 3688, "pitch": 69, "duration": 13, "velocity": 95}, {"time": 3694, "pitch": 49, "duration": 9, "velocity": 88}, {"time": 3700, "pitch": 61, "duration": 7, "velocity": 98}, {"time": 3706, "pitch": 66, "duration": 5, "velocity": 86}, {"time": 3712, "pitch": 50, "duration": 12, "velocity": 99}, {"time": 3712, "pitch": 62, "duration": 7, "velocity": 93}, {"time": 3712, "pitch": 66, "duration": 12, "velocity": 99}, {"time": 3718, "pitch": 57, "duration": 7, "velocity": 94}, {"time": 3724, "pitch": 62, "duration": 3, "velocity": 97}, {"time": 3736, "pitch": 44, "duration": 13, "velocity": 94}, {"time": 3736, "pitch": 60, "duration": 4, "velocity": 91}, {"time": 3736, "pitch": 63, "duration": 8, "velocity": 94}, {"time": 3736, "pitch": 66, "duration": 8, "velocity": 91}, {"time": 3736, "pitch": 69, "duration": 13, "velocity": 93}, {"time": 3742, "pitch": 60, "duration": 13, "velocity": 93}, {"time": 3748, "pitch": 63, "duration": 7, "velocity": 100}, {"time": 3754, "pitch": 69, "duration": 5, "velocity": 82}, {"time": 3760, "pitch": 49, "duration": 48, "velocity": 100}, {"time": 3766, "pitch": 56, "duration": 16, "velocity": 89}, {"time": 3772, "pitch": 61, "duration": 4, "velocity": 99}, {"time": 3778, "pitch": 61, "duration": 10, "velocity": 99}, {"time": 3778, "pitch": 68, "duration": 8, "velocity": 96}, {"time": 3784, "pitch": 56, "duration": 9, "velocity": 84}, {"time": 3790, "pitch": 61, "duration": 9, "velocity": 102}, {"time": 3790, "pitch": 73, "duration": 18, "velocity": 88}, {"time": 3796, "pitch": 56, "duration": 12, "velocity": 94}, {"time": 3808, "pitch": 42, "duration": 39, "velocity": 98}, {"time": 3814, "pitch": 49, "duration": 16, "velocity": 89}, {"time": 3820, "pitch": 56, "duration": 3, "velocity": 95}, {"time": 3826, "pitch": 59, "duration": 9, "velocity": 96}, {"time": 3832, "pitch": 49, "duration": 16, "velocity": 82}, {"time": 3838, "pitch": 61, "duration": 17, "velocity": 97}, {"time": 3856, "pitch": 40, "duration": 38, "velocity": 97}, {"time": 3856, "pitch": 59, "duration": 12, "velocity": 95}, {"time": 3862, "pitch": 47, "duration": 31, "velocity": 91}, {"time": 3868, "pitch": 56, "duration": 8, "velocity": 95}, {"time": 3874, "pitch": 64, "duration": 23, "velocity": 100}, {"time": 3886, "pitch": 59, "duration": 9, "velocity": 91}, {"time": 3904, "pitch": 50, "duration": 44, "velocity": 97}, {"time": 3910, "pitch": 57, "duration": 40, "velocity": 88}, {"time": 3916, "pitch": 62, "duration": 8, "velocity": 94}, {"time": 3922, "pitch": 64, "duration": 9, "velocity": 101}, {"time": 3934, "pitch": 62, "duration": 15, "velocity": 93}, {"time": 3934, "pitch": 66, "duration": 14, "velocity": 96}, {"time": 3952, "pitch": 49, "duration": 50, "velocity": 97}, {"time": 3958, "pitch": 56, "duration": 28, "velocity": 88}, {"time": 3964, "pitch": 65, "duration": 4, "velocity": 89}, {"time": 3970, "pitch": 61, "duration": 9, "velocity": 91}, {"time": 3970, "pitch": 71, "duration": 11, "velocity": 95}, {"time": 3982, "pitch": 61, "duration": 10, "velocity": 85}, {"time": 3982, "pitch": 65, "duration": 18, "velocity": 93}, {"time": 3982, "pitch": 71, "duration": 19, "velocity": 83}, {"time": 3988, "pitch": 56, "duration": 13, "velocity": 88}, {"time": 3994, "pitch": 61, "duration": 7, "velocity": 84}, {"time": 4000, "pitch": 42, "duration": 38, "velocity": 98}, {"time": 4000, "pitch": 54, "duration": 9, "velocity": 87}, {"time": 4000, "pitch": 61, "duration": 1, "velocity": 95}, {"time": 4006, "pitch": 49, "duration": 15, "velocity": 86}, {"time": 4012, "pitch": 57, "duration": 4, "velocity": 84}, {"time": 4018, "pitch": 66, "duration": 11, "velocity": 96}, {"time": 4024, "pitch": 49, "duration": 9, "velocity": 79}, {"time": 4030, "pitch": 57, "duration": 5, "velocity": 94}, {"time": 4036, "pitch": 54, "duration": 3, "velocity": 95}, {"time": 4036, "pitch": 57, "duration": 7, "velocity": 96}, {"time": 4036, "pitch": 61, "duration": 9, "velocity": 89}, {"time": 4042, "pitch": 54, "duration": 4, "velocity": 90}, {"time": 4048, "pitch": 52, "duration": 41, "velocity": 98}, {"time": 4054, "pitch": 59, "duration": 20, "velocity": 88}, {"time": 4060, "pitch": 64, "duration": 4, "velocity": 97}, {"time": 4066, "pitch": 64, "duration": 16, "velocity": 100}, {"time": 4066, "pitch": 68, "duration": 14, "velocity": 96}, {"time": 4078, "pitch": 59, "duration": 11, "velocity": 84}, {"time": 4084, "pitch": 64, "duration": 11, "velocity": 95}, {"time": 4084, "pitch": 68, "duration": 12, "velocity": 96}, {"time": 4084, "pitch": 71, "duration": 11, "velocity": 96}, {"time": 4096, "pitch": 50, "duration": 35, "velocity": 97}, {"time": 4102, "pitch": 57, "duration": 27, "velocity": 82}, {"time": 4108, "pitch": 62, "duration": 7, "velocity": 96}, {"time": 4114, "pitch": 64, "duration": 7, "velocity": 96}, {"time": 4120, "pitch": 66, "duration": 4, "velocity": 88}, {"time": 4126, "pitch": 62, "duration": 7, "velocity": 94}, {"time": 4126, "pitch": 69, "duration": 10, "velocity": 96}, {"time": 4144, "pitch": 49, "duration": 35, "velocity": 95}, {"time": 4144, "pitch": 61, "duration": 9, "velocity": 86}, {"time": 4144, "pitch": 64, "duration": 13, "velocity": 97}, {"time": 4150, "pitch": 56, "duration": 30, "velocity": 81}, {"time": 4156, "pitch": 61, "duration": 4, "velocity": 82}, {"time": 4162, "pitch": 61, "duration": 19, "velocity": 96}, {"time": 4162, "pitch": 68, "duration": 20, "velocity": 92}, {"time": 4192, "pitch": 47, "duration": 39, "velocity": 94}, {"time": 4192, "pitch": 59, "duration": 8, "velocity": 89}, {"time": 4192, "pitch": 62, "duration": 14, "velocity": 90}, {"time": 4198, "pitch": 54, "duration": 33, "velocity": 83}, {"time": 4204, "pitch": 59, "duration": 5, "velocity": 93}, {"time": 4210, "pitch": 59, "duration": 19, "velocity": 96}, {"time": 4210, "pitch": 62, "duration": 19, "velocity": 96}, {"time": 4228, "pitch": 66, "duration": 5, "velocity": 98}, {"time": 4240, "pitch": 64, "duration": 91, "velocity": 95}, {"time": 4240, "pitch": 49, "duration": 78, "velocity": 100}, {"time": 4242, "pitch": 68, "duration": 90, "velocity": 87}, {"time": 4243, "pitch": 76, "duration": 88, "velocity": 96}, {"time": 4332, "pitch": 42, "duration": 149, "velocity": 97}, {"time": 4338, "pitch": 49, "duration": 143, "velocity": 94}, {"time": 4343, "pitch": 54, "duration": 4, "velocity": 94}, {"time": 4347, "pitch": 56, "duration": 1, "velocity": 100}, {"time": 4351, "pitch": 57, "duration": 3, "velocity": 97}, {"time": 4356, "pitch": 61, "duration": 2, "velocity": 96}, {"time": 4361, "pitch": 66, "duration": 2, "velocity": 105}, {"time": 4367, "pitch": 68, "duration": 2, "velocity": 97}, {"time": 4374, "pitch": 69, "duration": 6, "velocity": 95}, {"time": 4425, "pitch": 69, "duration": 12, "velocity": 79}, {"time": 4426, "pitch": 73, "duration": 54, "velocity": 79}, {"time": 4427, "pitch": 78, "duration": 54, "velocity": 77}, {"time": 4428, "pitch": 81, "duration": 53, "velocity": 90}], "annotations": [{"time": 15, "annotation": {"number": 64, "value": 127}, "group": "control_change"}, {"time": 61, "annotation": {"number": 64, "value": 0}, "group": "control_change"}, {"time": 215, "annotation": {"number": 64, "value": 127}, "group": "control_change"}, {"time": 255, "annotation": {"number": 64, "value": 0}, "group": "control_change"}, {"time": 258, "annotation": {"number": 64, "value": 127}, "group": "control_change"}, {"time": 303, "annotation": {"number": 64, "value": 0}, "group": "control_change"}, {"time": 315, "annotation": {"number": 64, "value": 127}, "group": "control_change"}, {"time": 350, "annotation": {"number": 64, "value": 0}, "group": "control_change"}, {"time": 366, "annotation": {"number": 64, "value": 127}, "group": "control_change"}, {"time": 397, "annotation": {"number": 64, "value": 0}, "group": "control_change"}, {"time": 402, "annotation": {"number": 64, "value": 127}, "group": "control_change"}, {"time": 447, "annotation": {"number": 64, "value": 0}, "group": "control_change"}, {"time": 448, "annotation": {"number": 64, "value": 127}, "group": "control_change"}, {"time": 496, "annotation": {"number": 64, "value": 0}, "group": "control_change"}, {"time": 503, "annotation": {"number": 64, "value": 127}, "group": "control_change"}, {"time": 546, "annotation": {"number": 64, "value": 0}, "group": "control_change"}, {"time": 547, "annotation": {"number": 64, "value": 127}, "group": "control_change"}, {"time": 548, "annotation": {"number": 64, "value": 127}, "group": "control_change"}, {"time": 577, "annotation": {"number": 64, "value": 0}, "group": "control_change"}, {"time": 589, "annotation": {"number": 64, "value": 0}, "group": "control_change"}, {"time": 596, "annotation": {"number": 64, "value": 127}, "group": "control_change"}, {"time": 641, "annotation": {"number": 64, "value": 0}, "group": "control_change"}, {"time": 645, "annotation": {"number": 64, "value": 127}, "group": "control_change"}, {"time": 689, "annotation": {"number": 64, "value": 0}, "group": "control_change"}, {"time": 697, "annotation": {"number": 64, "value": 127}, "group": "control_change"}, {"time": 737, "annotation": {"number": 64, "value": 0}, "group": "control_change"}, {"time": 745, "annotation": {"number": 64, "value": 127}, "group": "control_change"}, {"time": 783, "annotation": {"number": 64, "value": 0}, "group": "control_change"}, {"time": 792, "annotation": {"number": 64, "value": 127}, "group": "control_change"}, {"time": 834, "annotation": {"number": 64, "value": 0}, "group": "control_change"}, {"time": 841, "annotation": {"number": 64, "value": 127}, "group": "control_change"}, {"time": 879, "annotation": {"number": 64, "value": 0}, "group": "control_change"}, {"time": 884, "annotation": {"number": 64, "value": 127}, "group": "control_change"}, {"time": 943, "annotation": {"number": 64, "value": 0}, "group": "control_change"}, {"time": 954, "annotation": {"number": 64, "value": 127}, "group": "control_change"}, {"time": 972, "annotation": {"number": 64, "value": 0}, "group": "control_change"}, {"time": 979, "annotation": {"number": 64, "value": 127}, "group": "control_change"}, {"time": 1023, "annotation": {"number": 64, "value": 0}, "group": "control_change"}, {"time": 1027, "annotation": {"number": 64, "value": 127}, "group": "control_change"}, {"time": 1069, "annotation": {"number": 64, "value": 0}, "group": "control_change"}, {"time": 1077, "annotation": {"number": 64, "value": 127}, "group": "control_change"}, {"time": 1119, "annotation": {"number": 64, "value": 0}, "group": "control_change"}, {"time": 1122, "annotation": {"number": 64, "value": 127}, "group": "control_change"}, {"time": 1157, "annotation": {"number": 64, "value": 0}, "group": "control_change"}, {"time": 1157, "annotation": {"number": 64, "value": 127}, "group": "control_change"}, {"time": 1169, "annotation": {"number": 64, "value": 0}, "group": "control_change"}, {"time": 1173, "annotation": {"number": 64, "value": 127}, "group": "control_change"}, {"time": 1215, "annotation": {"number": 64, "value": 0}, "group": "control_change"}, {"time": 1220, "annotation": {"number": 64, "value": 127}, "group": "control_change"}, {"time": 1264, "annotation": {"number": 64, "value": 0}, "group": "control_change"}, {"time": 1271, "annotation": {"number": 64, "value": 127}, "group": "control_change"}, {"time": 1314, "annotation": {"number": 64, "value": 127}, "group": "control_change"}, {"time": 1361, "annotation": {"number": 64, "value": 0}, "group": "control_change"}, {"time": 1411, "annotation": {"number": 64, "value": 127}, "group": "control_change"}, {"time": 1454, "annotation": {"number": 64, "value": 0}, "group": "control_change"}, {"time": 1461, "annotation": {"number": 64, "value": 127}, "group": "control_change"}, {"time": 1501, "annotation": {"number": 64, "value": 0}, "group": "control_change"}, {"time": 1504, "annotation": {"number": 64, "value": 127}, "group": "control_change"}, {"time": 1550, "annotation": {"number": 64, "value": 0}, "group": "control_change"}, {"time": 1553, "annotation": {"number": 64, "value": 127}, "group": "control_change"}, {"time": 1599, "annotation": {"number": 64, "value": 0}, "group": "control_change"}, {"time": 1605, "annotation": {"number": 64, "value": 127}, "group": "control_change"}, {"time": 1647, "annotation": {"number": 64, "value": 0}, "group": "control_change"}, {"time": 1649, "annotation": {"number": 64, "value": 127}, "group": "control_change"}, {"time": 1671, "annotation": {"number": 64, "value": 0}, "group": "control_change"}, {"time": 1674, "annotation": {"number": 64, "value": 127}, "group": "control_change"}, {"time": 1694, "annotation": {"number": 64, "value": 0}, "group": "control_change"}, {"time": 1698, "annotation": {"number": 64, "value": 127}, "group": "control_change"}, {"time": 1716, "annotation": {"number": 64, "value": 0}, "group": "control_change"}, {"time": 1721, "annotation": {"number": 64, "value": 127}, "group": "control_change"}, {"time": 1743, "annotation": {"number": 64, "value": 0}, "group": "control_change"}, {"time": 1748, "annotation": {"number": 64, "value": 127}, "group": "control_change"}, {"time": 1791, "annotation": {"number": 64, "value": 0}, "group": "control_change"}, {"time": 1795, "annotation": {"number": 64, "value": 127}, "group": "control_change"}, {"time": 1838, "annotation": {"number": 64, "value": 0}, "group": "control_change"}, {"time": 1845, "annotation": {"number": 64, "value": 127}, "group": "control_change"}, {"time": 1885, "annotation": {"number": 64, "value": 0}, "group": "control_change"}, {"time": 1888, "annotation": {"number": 64, "value": 127}, "group": "control_change"}, {"time": 1934, "annotation": {"number": 64, "value": 0}, "group": "control_change"}, {"time": 1937, "annotation": {"number": 64, "value": 127}, "group": "control_change"}, {"time": 1983, "annotation": {"number": 64, "value": 0}, "group": "control_change"}, {"time": 1989, "annotation": {"number": 64, "value": 127}, "group": "control_change"}, {"time": 2031, "annotation": {"number": 64, "value": 0}, "group": "control_change"}, {"time": 2033, "annotation": {"number": 64, "value": 127}, "group": "control_change"}, {"time": 2055, "annotation": {"number": 64, "value": 0}, "group": "control_change"}, {"time": 2058, "annotation": {"number": 64, "value": 127}, "group": "control_change"}, {"time": 2078, "annotation": {"number": 64, "value": 0}, "group": "control_change"}, {"time": 2082, "annotation": {"number": 64, "value": 127}, "group": "control_change"}, {"time": 2100, "annotation": {"number": 64, "value": 0}, "group": "control_change"}, {"time": 2105, "annotation": {"number": 64, "value": 127}, "group": "control_change"}, {"time": 2127, "annotation": {"number": 64, "value": 0}, "group": "control_change"}, {"time": 2132, "annotation": {"number": 64, "value": 127}, "group": "control_change"}, {"time": 2175, "annotation": {"number": 64, "value": 0}, "group": "control_change"}, {"time": 2176, "annotation": {"number": 64, "value": 127}, "group": "control_change"}, {"time": 2219, "annotation": {"number": 64, "value": 0}, "group": "control_change"}, {"time": 2229, "annotation": {"number": 64, "value": 127}, "group": "control_change"}, {"time": 2272, "annotation": {"number": 64, "value": 0}, "group": "control_change"}, {"time": 2277, "annotation": {"number": 64, "value": 127}, "group": "control_change"}, {"time": 2321, "annotation": {"number": 64, "value": 0}, "group": "control_change"}, {"time": 2326, "annotation": {"number": 64, "value": 127}, "group": "control_change"}, {"time": 2367, "annotation": {"number": 64, "value": 0}, "group": "control_change"}, {"time": 2370, "annotation": {"number": 64, "value": 127}, "group": "control_change"}, {"time": 2416, "annotation": {"number": 64, "value": 0}, "group": "control_change"}, {"time": 2425, "annotation": {"number": 64, "value": 127}, "group": "control_change"}, {"time": 2462, "annotation": {"number": 64, "value": 0}, "group": "control_change"}, {"time": 2465, "annotation": {"number": 64, "value": 127}, "group": "control_change"}, {"time": 2512, "annotation": {"number": 64, "value": 0}, "group": "control_change"}, {"time": 2516, "annotation": {"number": 64, "value": 127}, "group": "control_change"}, {"time": 2560, "annotation": {"number": 64, "value": 0}, "group": "control_change"}, {"time": 2563, "annotation": {"number": 64, "value": 127}, "group": "control_change"}, {"time": 2575, "annotation": {"number": 64, "value": 0}, "group": "control_change"}, {"time": 2586, "annotation": {"number": 64, "value": 127}, "group": "control_change"}, {"time": 2604, "annotation": {"number": 64, "value": 0}, "group": "control_change"}, {"time": 2611, "annotation": {"number": 64, "value": 127}, "group": "control_change"}, {"time": 2655, "annotation": {"number": 64, "value": 0}, "group": "control_change"}, {"time": 2659, "annotation": {"number": 64, "value": 127}, "group": "control_change"}, {"time": 2701, "annotation": {"number": 64, "value": 0}, "group": "control_change"}, {"time": 2709, "annotation": {"number": 64, "value": 127}, "group": "control_change"}, {"time": 2751, "annotation": {"number": 64, "value": 0}, "group": "control_change"}, {"time": 2754, "annotation": {"number": 64, "value": 127}, "group": "control_change"}, {"time": 2789, "annotation": {"number": 64, "value": 0}, "group": "control_change"}, {"time": 2789, "annotation": {"number": 64, "value": 127}, "group": "control_change"}, {"time": 2801, "annotation": {"number": 64, "value": 0}, "group": "control_change"}, {"time": 2805, "annotation": {"number": 64, "value": 127}, "group": "control_change"}, {"time": 2847, "annotation": {"number": 64, "value": 0}, "group": "control_change"}, {"time": 2852, "annotation": {"number": 64, "value": 127}, "group": "control_change"}, {"time": 2896, "annotation": {"number": 64, "value": 0}, "group": "control_change"}, {"time": 2903, "annotation": {"number": 64, "value": 127}, "group": "control_change"}, {"time": 2946, "annotation": {"number": 64, "value": 127}, "group": "control_change"}, {"time": 2993, "annotation": {"number": 64, "value": 0}, "group": "control_change"}, {"time": 3043, "annotation": {"number": 64, "value": 127}, "group": "control_change"}, {"time": 3086, "annotation": {"number": 64, "value": 0}, "group": "control_change"}, {"time": 3093, "annotation": {"number": 64, "value": 127}, "group": "control_change"}, {"time": 3133, "annotation": {"number": 64, "value": 0}, "group": "control_change"}, {"time": 3136, "annotation": {"number": 64, "value": 127}, "group": "control_change"}, {"time": 3182, "annotation": {"number": 64, "value": 0}, "group": "control_change"}, {"time": 3185, "annotation": {"number": 64, "value": 127}, "group": "control_change"}, {"time": 3231, "annotation": {"number": 64, "value": 0}, "group": "control_change"}, {"time": 3237, "annotation": {"number": 64, "value": 127}, "group": "control_change"}, {"time": 3279, "annotation": {"number": 64, "value": 0}, "group": "control_change"}, {"time": 3281, "annotation": {"number": 64, "value": 127}, "group": "control_change"}, {"time": 3303, "annotation": {"number": 64, "value": 0}, "group": "control_change"}, {"time": 3306, "annotation": {"number": 64, "value": 127}, "group": "control_change"}, {"time": 3326, "annotation": {"number": 64, "value": 0}, "group": "control_change"}, {"time": 3330, "annotation": {"number": 64, "value": 127}, "group": "control_change"}, {"time": 3348, "annotation": {"number": 64, "value": 0}, "group": "control_change"}, {"time": 3353, "annotation": {"number": 64, "value": 127}, "group": "control_change"}, {"time": 3375, "annotation": {"number": 64, "value": 0}, "group": "control_change"}, {"time": 3380, "annotation": {"number": 64, "value": 127}, "group": "control_change"}, {"time": 3423, "annotation": {"number": 64, "value": 0}, "group": "control_change"}, {"time": 3427, "annotation": {"number": 64, "value": 127}, "group": "control_change"}, {"time": 3470, "annotation": {"number": 64, "value": 0}, "group": "control_change"}, {"time": 3477, "annotation": {"number": 64, "value": 127}, "group": "control_change"}, {"time": 3517, "annotation": {"number": 64, "value": 0}, "group": "control_change"}, {"time": 3520, "annotation": {"number": 64, "value": 127}, "group": "control_change"}, {"time": 3566, "annotation": {"number": 64, "value": 0}, "group": "control_change"}, {"time": 3569, "annotation": {"number": 64, "value": 127}, "group": "control_change"}, {"time": 3615, "annotation": {"number": 64, "value": 0}, "group": "control_change"}, {"time": 3621, "annotation": {"number": 64, "value": 127}, "group": "control_change"}, {"time": 3663, "annotation": {"number": 64, "value": 0}, "group": "control_change"}, {"time": 3665, "annotation": {"number": 64, "value": 127}, "group": "control_change"}, {"time": 3687, "annotation": {"number": 64, "value": 0}, "group": "control_change"}, {"time": 3690, "annotation": {"number": 64, "value": 127}, "group": "control_change"}, {"time": 3710, "annotation": {"number": 64, "value": 0}, "group": "control_change"}, {"time": 3714, "annotation": {"number": 64, "value": 127}, "group": "control_change"}, {"time": 3732, "annotation": {"number": 64, "value": 0}, "group": "control_change"}, {"time": 3737, "annotation": {"number": 64, "value": 127}, "group": "control_change"}, {"time": 3759, "annotation": {"number": 64, "value": 0}, "group": "control_change"}, {"time": 3764, "annotation": {"number": 64, "value": 127}, "group": "control_change"}, {"time": 3786, "annotation": {"number": 64, "value": 127}, "group": "control_change"}, {"time": 3806, "annotation": {"number": 64, "value": 0}, "group": "control_change"}, {"time": 3807, "annotation": {"number": 64, "value": 0}, "group": "control_change"}, {"time": 3810, "annotation": {"number": 64, "value": 127}, "group": "control_change"}, {"time": 3855, "annotation": {"number": 64, "value": 0}, "group": "control_change"}, {"time": 3856, "annotation": {"number": 64, "value": 127}, "group": "control_change"}, {"time": 3904, "annotation": {"number": 64, "value": 0}, "group": "control_change"}, {"time": 3911, "annotation": {"number": 64, "value": 127}, "group": "control_change"}, {"time": 3954, "annotation": {"number": 64, "value": 0}, "group": "control_change"}, {"time": 3955, "annotation": {"number": 64, "value": 127}, "group": "control_change"}, {"time": 3956, "annotation": {"number": 64, "value": 127}, "group": "control_change"}, {"time": 3985, "annotation": {"number": 64, "value": 0}, "group": "control_change"}, {"time": 3997, "annotation": {"number": 64, "value": 0}, "group": "control_change"}, {"time": 4004, "annotation": {"number": 64, "value": 127}, "group": "control_change"}, {"time": 4049, "annotation": {"number": 64, "value": 0}, "group": "control_change"}, {"time": 4053, "annotation": {"number": 64, "value": 127}, "group": "control_change"}, {"time": 4097, "annotation": {"number": 64, "value": 0}, "group": "control_change"}, {"time": 4105, "annotation": {"number": 64, "value": 127}, "group": "control_change"}, {"time": 4145, "annotation": {"number": 64, "value": 0}, "group": "control_change"}, {"time": 4153, "annotation": {"number": 64, "value": 127}, "group": "control_change"}, {"time": 4191, "annotation": {"number": 64, "value": 0}, "group": "control_change"}, {"time": 4200, "annotation": {"number": 64, "value": 127}, "group": "control_change"}, {"time": 4237, "annotation": {"number": 64, "value": 127}, "group": "control_change"}, {"time": 4242, "annotation": {"number": 64, "value": 0}, "group": "control_change"}, {"time": 4336, "annotation": {"number": 64, "value": 127}, "group": "control_change"}]}]}