{"metadata": {"schema_version": "0.2", "title": "None", "source_filename": "400.mid", "source_format": "midi"}, "resolution": 12, "tempos": [{"time": 0, "qpm": 63.000063000063}], "time_signatures": [{"time": 0, "numerator": 1, "denominator": 4}], "tracks": [{"program": 4, "is_drum": false, "name": "MELODY", "notes": [{"time": 68, "pitch": 69, "duration": 3, "velocity": 73}, {"time": 71, "pitch": 71, "duration": 4, "velocity": 76}, {"time": 75, "pitch": 74, "duration": 6, "velocity": 82}, {"time": 81, "pitch": 74, "duration": 3, "velocity": 71}, {"time": 84, "pitch": 71, "duration": 4, "velocity": 78}, {"time": 88, "pitch": 69, "duration": 4, "velocity": 60}, {"time": 92, "pitch": 71, "duration": 4, "velocity": 78}, {"time": 96, "pitch": 74, "duration": 15, "velocity": 82}, {"time": 111, "pitch": 69, "duration": 3, "velocity": 89}, {"time": 114, "pitch": 71, "duration": 3, "velocity": 80}, {"time": 117, "pitch": 69, "duration": 3, "velocity": 82}, {"time": 120, "pitch": 71, "duration": 3, "velocity": 71}, {"time": 123, "pitch": 69, "duration": 7, "velocity": 69}, {"time": 130, "pitch": 64, "duration": 3, "velocity": 66}, {"time": 133, "pitch": 69, "duration": 6, "velocity": 78}, {"time": 139, "pitch": 67, "duration": 24, "velocity": 58}, {"time": 163, "pitch": 74, "duration": 2, "velocity": 71}, {"time": 165, "pitch": 76, "duration": 4, "velocity": 57}, {"time": 169, "pitch": 79, "duration": 3, "velocity": 76}, {"time": 172, "pitch": 76, "duration": 10, "velocity": 80}, {"time": 182, "pitch": 74, "duration": 3, "velocity": 73}, {"time": 185, "pitch": 76, "duration": 6, "velocity": 69}, {"time": 191, "pitch": 79, "duration": 12, "velocity": 78}, {"time": 203, "pitch": 79, "duration": 6, "velocity": 78}, {"time": 209, "pitch": 76, "duration": 3, "velocity": 69}, {"time": 212, "pitch": 79, "duration": 4, "velocity": 87}, {"time": 216, "pitch": 76, "duration": 4, "velocity": 76}, {"time": 220, "pitch": 71, "duration": 6, "velocity": 85}, {"time": 226, "pitch": 76, "duration": 4, "velocity": 73}, {"time": 230, "pitch": 74, "duration": 24, "velocity": 82}, {"time": 496, "pitch": 71, "duration": 3, "velocity": 73}, {"time": 499, "pitch": 71, "duration": 4, "velocity": 82}, {"time": 503, "pitch": 71, "duration": 4, "velocity": 78}, {"time": 507, "pitch": 69, "duration": 5, "velocity": 80}, {"time": 512, "pitch": 67, "duration": 4, "velocity": 55}, {"time": 516, "pitch": 62, "duration": 28, "velocity": 64}, {"time": 544, "pitch": 67, "duration": 5, "velocity": 76}, {"time": 549, "pitch": 66, "duration": 5, "velocity": 85}, {"time": 554, "pitch": 66, "duration": 5, "velocity": 74}, {"time": 559, "pitch": 67, "duration": 3, "velocity": 71}, {"time": 562, "pitch": 66, "duration": 6, "velocity": 93}, {"time": 568, "pitch": 64, "duration": 26, "velocity": 76}, {"time": 594, "pitch": 72, "duration": 4, "velocity": 87}, {"time": 598, "pitch": 72, "duration": 4, "velocity": 73}, {"time": 602, "pitch": 72, "duration": 5, "velocity": 76}, {"time": 607, "pitch": 71, "duration": 4, "velocity": 84}, {"time": 611, "pitch": 72, "duration": 5, "velocity": 87}, {"time": 616, "pitch": 71, "duration": 3, "velocity": 82}, {"time": 619, "pitch": 69, "duration": 16, "velocity": 89}, {"time": 635, "pitch": 67, "duration": 3, "velocity": 57}, {"time": 638, "pitch": 67, "duration": 6, "velocity": 73}, {"time": 644, "pitch": 66, "duration": 3, "velocity": 74}, {"time": 647, "pitch": 66, "duration": 6, "velocity": 63}, {"time": 653, "pitch": 67, "duration": 5, "velocity": 69}, {"time": 658, "pitch": 69, "duration": 30, "velocity": 80}, {"time": 688, "pitch": 71, "duration": 3, "velocity": 78}, {"time": 691, "pitch": 71, "duration": 3, "velocity": 80}, {"time": 694, "pitch": 71, "duration": 3, "velocity": 87}, {"time": 697, "pitch": 69, "duration": 6, "velocity": 82}, {"time": 703, "pitch": 67, "duration": 5, "velocity": 87}, {"time": 708, "pitch": 62, "duration": 27, "velocity": 78}, {"time": 735, "pitch": 66, "duration": 3, "velocity": 65}, {"time": 738, "pitch": 64, "duration": 4, "velocity": 73}, {"time": 742, "pitch": 66, "duration": 6, "velocity": 63}, {"time": 748, "pitch": 67, "duration": 3, "velocity": 62}, {"time": 751, "pitch": 69, "duration": 7, "velocity": 69}, {"time": 758, "pitch": 71, "duration": 25, "velocity": 87}, {"time": 783, "pitch": 72, "duration": 2, "velocity": 89}, {"time": 785, "pitch": 72, "duration": 3, "velocity": 82}, {"time": 788, "pitch": 72, "duration": 3, "velocity": 82}, {"time": 791, "pitch": 71, "duration": 4, "velocity": 66}, {"time": 795, "pitch": 72, "duration": 5, "velocity": 78}, {"time": 800, "pitch": 71, "duration": 6, "velocity": 71}, {"time": 806, "pitch": 69, "duration": 19, "velocity": 82}, {"time": 825, "pitch": 67, "duration": 4, "velocity": 67}, {"time": 829, "pitch": 67, "duration": 6, "velocity": 80}, {"time": 835, "pitch": 66, "duration": 3, "velocity": 65}, {"time": 838, "pitch": 66, "duration": 6, "velocity": 74}, {"time": 844, "pitch": 67, "duration": 3, "velocity": 64}, {"time": 847, "pitch": 69, "duration": 19, "velocity": 64}, {"time": 866, "pitch": 69, "duration": 3, "velocity": 89}, {"time": 869, "pitch": 69, "duration": 2, "velocity": 84}, {"time": 871, "pitch": 67, "duration": 3, "velocity": 80}, {"time": 874, "pitch": 66, "duration": 3, "velocity": 68}, {"time": 877, "pitch": 66, "duration": 3, "velocity": 52}, {"time": 880, "pitch": 66, "duration": 4, "velocity": 52}, {"time": 884, "pitch": 66, "duration": 3, "velocity": 55}, {"time": 887, "pitch": 66, "duration": 5, "velocity": 77}, {"time": 892, "pitch": 66, "duration": 4, "velocity": 82}, {"time": 896, "pitch": 67, "duration": 6, "velocity": 89}, {"time": 902, "pitch": 74, "duration": 16, "velocity": 94}, {"time": 918, "pitch": 66, "duration": 3, "velocity": 63}, {"time": 921, "pitch": 69, "duration": 4, "velocity": 66}, {"time": 925, "pitch": 67, "duration": 6, "velocity": 64}, {"time": 931, "pitch": 67, "duration": 3, "velocity": 73}, {"time": 934, "pitch": 67, "duration": 6, "velocity": 80}, {"time": 940, "pitch": 66, "duration": 4, "velocity": 96}, {"time": 944, "pitch": 69, "duration": 5, "velocity": 78}, {"time": 949, "pitch": 67, "duration": 21, "velocity": 71}, {"time": 970, "pitch": 71, "duration": 3, "velocity": 89}, {"time": 973, "pitch": 72, "duration": 3, "velocity": 84}, {"time": 976, "pitch": 71, "duration": 3, "velocity": 92}, {"time": 979, "pitch": 72, "duration": 3, "velocity": 78}, {"time": 982, "pitch": 71, "duration": 6, "velocity": 89}, {"time": 988, "pitch": 72, "duration": 3, "velocity": 78}, {"time": 991, "pitch": 71, "duration": 7, "velocity": 89}, {"time": 998, "pitch": 69, "duration": 14, "velocity": 89}, {"time": 1012, "pitch": 67, "duration": 3, "velocity": 84}, {"time": 1015, "pitch": 69, "duration": 3, "velocity": 82}, {"time": 1018, "pitch": 71, "duration": 3, "velocity": 89}, {"time": 1021, "pitch": 69, "duration": 3, "velocity": 87}, {"time": 1024, "pitch": 69, "duration": 3, "velocity": 84}, {"time": 1027, "pitch": 67, "duration": 3, "velocity": 80}, {"time": 1030, "pitch": 67, "duration": 6, "velocity": 89}, {"time": 1036, "pitch": 76, "duration": 3, "velocity": 71}, {"time": 1039, "pitch": 76, "duration": 6, "velocity": 92}, {"time": 1045, "pitch": 74, "duration": 9, "velocity": 87}, {"time": 1054, "pitch": 74, "duration": 6, "velocity": 97}, {"time": 1060, "pitch": 76, "duration": 6, "velocity": 97}, {"time": 1066, "pitch": 79, "duration": 3, "velocity": 100}, {"time": 1069, "pitch": 76, "duration": 3, "velocity": 97}, {"time": 1072, "pitch": 76, "duration": 3, "velocity": 87}, {"time": 1075, "pitch": 74, "duration": 3, "velocity": 97}, {"time": 1078, "pitch": 74, "duration": 6, "velocity": 84}, {"time": 1084, "pitch": 76, "duration": 3, "velocity": 80}, {"time": 1087, "pitch": 74, "duration": 12, "velocity": 73}, {"time": 1099, "pitch": 74, "duration": 3, "velocity": 73}, {"time": 1102, "pitch": 76, "duration": 9, "velocity": 94}, {"time": 1111, "pitch": 69, "duration": 6, "velocity": 67}, {"time": 1117, "pitch": 71, "duration": 6, "velocity": 89}, {"time": 1123, "pitch": 71, "duration": 27, "velocity": 84}, {"time": 1150, "pitch": 67, "duration": 6, "velocity": 78}, {"time": 1156, "pitch": 69, "duration": 6, "velocity": 92}, {"time": 1162, "pitch": 71, "duration": 3, "velocity": 89}, {"time": 1165, "pitch": 69, "duration": 3, "velocity": 80}, {"time": 1168, "pitch": 69, "duration": 3, "velocity": 82}, {"time": 1171, "pitch": 67, "duration": 3, "velocity": 69}, {"time": 1174, "pitch": 67, "duration": 6, "velocity": 89}, {"time": 1180, "pitch": 64, "duration": 3, "velocity": 84}, {"time": 1183, "pitch": 67, "duration": 21, "velocity": 76}, {"time": 1204, "pitch": 64, "duration": 3, "velocity": 92}, {"time": 1207, "pitch": 69, "duration": 45, "velocity": 64}, {"time": 1252, "pitch": 74, "duration": 3, "velocity": 92}, {"time": 1255, "pitch": 76, "duration": 3, "velocity": 102}, {"time": 1258, "pitch": 79, "duration": 3, "velocity": 102}, {"time": 1261, "pitch": 76, "duration": 3, "velocity": 92}, {"time": 1264, "pitch": 76, "duration": 3, "velocity": 92}, {"time": 1267, "pitch": 74, "duration": 3, "velocity": 87}, {"time": 1270, "pitch": 74, "duration": 6, "velocity": 89}, {"time": 1276, "pitch": 76, "duration": 3, "velocity": 80}, {"time": 1279, "pitch": 74, "duration": 9, "velocity": 84}, {"time": 1288, "pitch": 76, "duration": 12, "velocity": 92}, {"time": 1300, "pitch": 74, "duration": 6, "velocity": 84}, {"time": 1306, "pitch": 79, "duration": 3, "velocity": 71}, {"time": 1309, "pitch": 74, "duration": 3, "velocity": 64}, {"time": 1312, "pitch": 76, "duration": 30, "velocity": 82}, {"time": 1342, "pitch": 67, "duration": 6, "velocity": 92}, {"time": 1348, "pitch": 69, "duration": 6, "velocity": 97}, {"time": 1354, "pitch": 71, "duration": 3, "velocity": 89}, {"time": 1357, "pitch": 69, "duration": 3, "velocity": 71}, {"time": 1360, "pitch": 69, "duration": 3, "velocity": 87}, {"time": 1363, "pitch": 67, "duration": 3, "velocity": 76}, {"time": 1366, "pitch": 67, "duration": 3, "velocity": 78}, {"time": 1369, "pitch": 64, "duration": 6, "velocity": 89}, {"time": 1375, "pitch": 62, "duration": 21, "velocity": 89}, {"time": 1396, "pitch": 64, "duration": 3, "velocity": 84}, {"time": 1399, "pitch": 67, "duration": 36, "velocity": 76}, {"time": 1840, "pitch": 71, "duration": 3, "velocity": 78}, {"time": 1843, "pitch": 71, "duration": 3, "velocity": 80}, {"time": 1846, "pitch": 71, "duration": 3, "velocity": 87}, {"time": 1849, "pitch": 69, "duration": 6, "velocity": 82}, {"time": 1855, "pitch": 67, "duration": 5, "velocity": 87}, {"time": 1860, "pitch": 62, "duration": 27, "velocity": 78}, {"time": 1887, "pitch": 66, "duration": 3, "velocity": 65}, {"time": 1890, "pitch": 64, "duration": 4, "velocity": 73}, {"time": 1894, "pitch": 66, "duration": 6, "velocity": 63}, {"time": 1900, "pitch": 67, "duration": 3, "velocity": 62}, {"time": 1903, "pitch": 69, "duration": 7, "velocity": 69}, {"time": 1910, "pitch": 71, "duration": 25, "velocity": 87}, {"time": 1935, "pitch": 72, "duration": 2, "velocity": 89}, {"time": 1937, "pitch": 72, "duration": 3, "velocity": 82}, {"time": 1940, "pitch": 72, "duration": 3, "velocity": 82}, {"time": 1943, "pitch": 71, "duration": 4, "velocity": 66}, {"time": 1947, "pitch": 72, "duration": 5, "velocity": 78}, {"time": 1952, "pitch": 71, "duration": 6, "velocity": 71}, {"time": 1958, "pitch": 69, "duration": 19, "velocity": 82}, {"time": 1977, "pitch": 67, "duration": 4, "velocity": 67}, {"time": 1981, "pitch": 67, "duration": 6, "velocity": 80}, {"time": 1987, "pitch": 66, "duration": 3, "velocity": 65}, {"time": 1990, "pitch": 66, "duration": 6, "velocity": 74}, {"time": 1996, "pitch": 67, "duration": 3, "velocity": 64}, {"time": 1999, "pitch": 69, "duration": 19, "velocity": 64}, {"time": 2018, "pitch": 69, "duration": 3, "velocity": 89}, {"time": 2021, "pitch": 69, "duration": 2, "velocity": 84}, {"time": 2023, "pitch": 67, "duration": 3, "velocity": 80}, {"time": 2026, "pitch": 66, "duration": 3, "velocity": 68}, {"time": 2029, "pitch": 66, "duration": 3, "velocity": 52}, {"time": 2032, "pitch": 66, "duration": 4, "velocity": 52}, {"time": 2036, "pitch": 66, "duration": 3, "velocity": 55}, {"time": 2039, "pitch": 66, "duration": 5, "velocity": 77}, {"time": 2044, "pitch": 66, "duration": 4, "velocity": 82}, {"time": 2048, "pitch": 67, "duration": 6, "velocity": 89}, {"time": 2054, "pitch": 74, "duration": 16, "velocity": 94}, {"time": 2070, "pitch": 66, "duration": 3, "velocity": 63}, {"time": 2073, "pitch": 69, "duration": 4, "velocity": 66}, {"time": 2077, "pitch": 67, "duration": 6, "velocity": 64}, {"time": 2083, "pitch": 67, "duration": 3, "velocity": 73}, {"time": 2086, "pitch": 67, "duration": 6, "velocity": 80}, {"time": 2092, "pitch": 66, "duration": 4, "velocity": 96}, {"time": 2096, "pitch": 69, "duration": 5, "velocity": 78}, {"time": 2101, "pitch": 67, "duration": 21, "velocity": 71}, {"time": 2122, "pitch": 71, "duration": 3, "velocity": 89}, {"time": 2125, "pitch": 72, "duration": 3, "velocity": 84}, {"time": 2128, "pitch": 71, "duration": 3, "velocity": 92}, {"time": 2131, "pitch": 72, "duration": 3, "velocity": 78}, {"time": 2134, "pitch": 71, "duration": 6, "velocity": 89}, {"time": 2140, "pitch": 72, "duration": 3, "velocity": 78}, {"time": 2143, "pitch": 71, "duration": 7, "velocity": 89}, {"time": 2150, "pitch": 69, "duration": 14, "velocity": 89}, {"time": 2164, "pitch": 67, "duration": 3, "velocity": 84}, {"time": 2167, "pitch": 69, "duration": 3, "velocity": 82}, {"time": 2170, "pitch": 71, "duration": 3, "velocity": 89}, {"time": 2173, "pitch": 69, "duration": 3, "velocity": 87}, {"time": 2176, "pitch": 69, "duration": 3, "velocity": 84}, {"time": 2179, "pitch": 67, "duration": 3, "velocity": 80}, {"time": 2182, "pitch": 67, "duration": 6, "velocity": 89}, {"time": 2188, "pitch": 76, "duration": 3, "velocity": 71}, {"time": 2191, "pitch": 76, "duration": 6, "velocity": 92}, {"time": 2197, "pitch": 74, "duration": 9, "velocity": 87}, {"time": 2206, "pitch": 74, "duration": 6, "velocity": 97}, {"time": 2212, "pitch": 76, "duration": 6, "velocity": 97}, {"time": 2218, "pitch": 79, "duration": 3, "velocity": 100}, {"time": 2221, "pitch": 76, "duration": 3, "velocity": 97}, {"time": 2224, "pitch": 76, "duration": 3, "velocity": 87}, {"time": 2227, "pitch": 74, "duration": 3, "velocity": 97}, {"time": 2230, "pitch": 74, "duration": 6, "velocity": 84}, {"time": 2236, "pitch": 76, "duration": 3, "velocity": 80}, {"time": 2239, "pitch": 74, "duration": 12, "velocity": 73}, {"time": 2251, "pitch": 74, "duration": 3, "velocity": 73}, {"time": 2254, "pitch": 76, "duration": 9, "velocity": 94}, {"time": 2263, "pitch": 69, "duration": 6, "velocity": 67}, {"time": 2269, "pitch": 71, "duration": 6, "velocity": 89}, {"time": 2275, "pitch": 71, "duration": 27, "velocity": 84}, {"time": 2302, "pitch": 67, "duration": 6, "velocity": 78}, {"time": 2308, "pitch": 69, "duration": 6, "velocity": 92}, {"time": 2314, "pitch": 71, "duration": 3, "velocity": 89}, {"time": 2317, "pitch": 69, "duration": 3, "velocity": 80}, {"time": 2320, "pitch": 69, "duration": 3, "velocity": 82}, {"time": 2323, "pitch": 67, "duration": 3, "velocity": 69}, {"time": 2326, "pitch": 67, "duration": 6, "velocity": 89}, {"time": 2332, "pitch": 64, "duration": 3, "velocity": 84}, {"time": 2335, "pitch": 67, "duration": 21, "velocity": 76}, {"time": 2356, "pitch": 64, "duration": 3, "velocity": 92}, {"time": 2359, "pitch": 69, "duration": 45, "velocity": 64}, {"time": 2404, "pitch": 74, "duration": 3, "velocity": 92}, {"time": 2407, "pitch": 76, "duration": 3, "velocity": 102}, {"time": 2410, "pitch": 79, "duration": 3, "velocity": 102}, {"time": 2413, "pitch": 76, "duration": 3, "velocity": 92}, {"time": 2416, "pitch": 76, "duration": 3, "velocity": 92}, {"time": 2419, "pitch": 74, "duration": 3, "velocity": 87}, {"time": 2422, "pitch": 74, "duration": 6, "velocity": 89}, {"time": 2428, "pitch": 76, "duration": 3, "velocity": 80}, {"time": 2431, "pitch": 74, "duration": 9, "velocity": 84}, {"time": 2440, "pitch": 76, "duration": 12, "velocity": 92}, {"time": 2452, "pitch": 74, "duration": 6, "velocity": 84}, {"time": 2458, "pitch": 79, "duration": 3, "velocity": 71}, {"time": 2461, "pitch": 74, "duration": 3, "velocity": 64}, {"time": 2464, "pitch": 76, "duration": 30, "velocity": 82}, {"time": 2494, "pitch": 67, "duration": 6, "velocity": 92}, {"time": 2500, "pitch": 69, "duration": 6, "velocity": 97}, {"time": 2506, "pitch": 71, "duration": 3, "velocity": 89}, {"time": 2509, "pitch": 69, "duration": 3, "velocity": 71}, {"time": 2512, "pitch": 69, "duration": 3, "velocity": 87}, {"time": 2515, "pitch": 67, "duration": 3, "velocity": 76}, {"time": 2518, "pitch": 67, "duration": 3, "velocity": 78}, {"time": 2521, "pitch": 64, "duration": 6, "velocity": 89}, {"time": 2527, "pitch": 62, "duration": 21, "velocity": 89}, {"time": 2548, "pitch": 64, "duration": 3, "velocity": 84}, {"time": 2551, "pitch": 67, "duration": 12, "velocity": 76}, {"time": 2686, "pitch": 74, "duration": 6, "velocity": 97}, {"time": 2692, "pitch": 76, "duration": 6, "velocity": 97}, {"time": 2698, "pitch": 79, "duration": 3, "velocity": 100}, {"time": 2701, "pitch": 76, "duration": 3, "velocity": 97}, {"time": 2704, "pitch": 76, "duration": 3, "velocity": 87}, {"time": 2707, "pitch": 74, "duration": 3, "velocity": 97}, {"time": 2710, "pitch": 74, "duration": 6, "velocity": 84}, {"time": 2716, "pitch": 76, "duration": 3, "velocity": 80}, {"time": 2719, "pitch": 74, "duration": 12, "velocity": 73}, {"time": 2731, "pitch": 74, "duration": 3, "velocity": 73}, {"time": 2734, "pitch": 76, "duration": 9, "velocity": 94}, {"time": 2743, "pitch": 69, "duration": 6, "velocity": 67}, {"time": 2749, "pitch": 71, "duration": 6, "velocity": 89}, {"time": 2755, "pitch": 71, "duration": 27, "velocity": 84}, {"time": 2782, "pitch": 67, "duration": 6, "velocity": 78}, {"time": 2788, "pitch": 69, "duration": 6, "velocity": 92}, {"time": 2794, "pitch": 71, "duration": 3, "velocity": 89}, {"time": 2797, "pitch": 69, "duration": 3, "velocity": 80}, {"time": 2800, "pitch": 69, "duration": 3, "velocity": 82}, {"time": 2803, "pitch": 67, "duration": 3, "velocity": 69}, {"time": 2806, "pitch": 67, "duration": 6, "velocity": 89}, {"time": 2812, "pitch": 64, "duration": 3, "velocity": 84}, {"time": 2815, "pitch": 67, "duration": 21, "velocity": 76}, {"time": 2836, "pitch": 64, "duration": 3, "velocity": 92}, {"time": 2839, "pitch": 69, "duration": 45, "velocity": 64}, {"time": 2884, "pitch": 74, "duration": 3, "velocity": 92}, {"time": 2887, "pitch": 76, "duration": 3, "velocity": 102}, {"time": 2890, "pitch": 79, "duration": 3, "velocity": 102}, {"time": 2893, "pitch": 76, "duration": 3, "velocity": 92}, {"time": 2896, "pitch": 76, "duration": 3, "velocity": 92}, {"time": 2899, "pitch": 74, "duration": 3, "velocity": 87}, {"time": 2902, "pitch": 74, "duration": 6, "velocity": 89}, {"time": 2908, "pitch": 76, "duration": 3, "velocity": 80}, {"time": 2911, "pitch": 74, "duration": 9, "velocity": 84}, {"time": 2920, "pitch": 76, "duration": 12, "velocity": 92}, {"time": 2932, "pitch": 74, "duration": 6, "velocity": 84}, {"time": 2938, "pitch": 79, "duration": 3, "velocity": 71}, {"time": 2941, "pitch": 74, "duration": 3, "velocity": 64}, {"time": 2944, "pitch": 76, "duration": 30, "velocity": 82}, {"time": 2974, "pitch": 67, "duration": 6, "velocity": 92}, {"time": 2980, "pitch": 69, "duration": 6, "velocity": 97}, {"time": 2986, "pitch": 71, "duration": 3, "velocity": 89}, {"time": 2989, "pitch": 69, "duration": 3, "velocity": 71}, {"time": 2992, "pitch": 69, "duration": 3, "velocity": 87}, {"time": 2995, "pitch": 67, "duration": 3, "velocity": 76}, {"time": 2998, "pitch": 67, "duration": 3, "velocity": 78}, {"time": 3001, "pitch": 64, "duration": 6, "velocity": 89}, {"time": 3007, "pitch": 62, "duration": 21, "velocity": 89}, {"time": 3028, "pitch": 64, "duration": 3, "velocity": 84}, {"time": 3031, "pitch": 67, "duration": 15, "velocity": 76}, {"time": 3136, "pitch": 69, "duration": 3, "velocity": 73}, {"time": 3139, "pitch": 71, "duration": 3, "velocity": 76}, {"time": 3142, "pitch": 74, "duration": 7, "velocity": 82}, {"time": 3149, "pitch": 74, "duration": 3, "velocity": 71}, {"time": 3152, "pitch": 71, "duration": 3, "velocity": 78}, {"time": 3155, "pitch": 69, "duration": 5, "velocity": 60}, {"time": 3160, "pitch": 71, "duration": 4, "velocity": 78}, {"time": 3164, "pitch": 74, "duration": 15, "velocity": 82}, {"time": 3179, "pitch": 69, "duration": 3, "velocity": 89}, {"time": 3182, "pitch": 71, "duration": 3, "velocity": 80}, {"time": 3185, "pitch": 69, "duration": 3, "velocity": 82}, {"time": 3188, "pitch": 71, "duration": 3, "velocity": 71}, {"time": 3191, "pitch": 69, "duration": 6, "velocity": 69}, {"time": 3197, "pitch": 64, "duration": 4, "velocity": 66}, {"time": 3201, "pitch": 69, "duration": 6, "velocity": 78}, {"time": 3207, "pitch": 67, "duration": 23, "velocity": 58}, {"time": 3230, "pitch": 74, "duration": 3, "velocity": 71}, {"time": 3233, "pitch": 76, "duration": 4, "velocity": 57}, {"time": 3237, "pitch": 79, "duration": 3, "velocity": 76}, {"time": 3240, "pitch": 76, "duration": 9, "velocity": 80}, {"time": 3249, "pitch": 74, "duration": 4, "velocity": 73}, {"time": 3253, "pitch": 76, "duration": 6, "velocity": 69}, {"time": 3259, "pitch": 79, "duration": 12, "velocity": 78}, {"time": 3271, "pitch": 79, "duration": 6, "velocity": 78}, {"time": 3277, "pitch": 76, "duration": 3, "velocity": 69}, {"time": 3280, "pitch": 79, "duration": 3, "velocity": 87}, {"time": 3283, "pitch": 76, "duration": 5, "velocity": 76}, {"time": 3288, "pitch": 71, "duration": 6, "velocity": 85}, {"time": 3294, "pitch": 76, "duration": 4, "velocity": 73}, {"time": 3298, "pitch": 74, "duration": 78, "velocity": 82}, {"time": 3376, "pitch": 71, "duration": 4, "velocity": 87}, {"time": 3380, "pitch": 69, "duration": 7, "velocity": 87}, {"time": 3387, "pitch": 67, "duration": 30, "velocity": 69}, {"time": 3417, "pitch": 76, "duration": 7, "velocity": 92}, {"time": 3424, "pitch": 71, "duration": 6, "velocity": 82}, {"time": 3430, "pitch": 76, "duration": 3, "velocity": 76}, {"time": 3433, "pitch": 74, "duration": 47, "velocity": 78}]}, {"program": 0, "is_drum": false, "name": "PIANO", "notes": [{"time": 29, "pitch": 43, "duration": 2, "velocity": 90}, {"time": 35, "pitch": 55, "duration": 33, "velocity": 66}, {"time": 38, "pitch": 62, "duration": 30, "velocity": 81}, {"time": 40, "pitch": 67, "duration": 3, "velocity": 79}, {"time": 43, "pitch": 69, "duration": 2, "velocity": 83}, {"time": 46, "pitch": 71, "duration": 3, "velocity": 94}, {"time": 49, "pitch": 74, "duration": 3, "velocity": 89}, {"time": 52, "pitch": 79, "duration": 2, "velocity": 83}, {"time": 55, "pitch": 81, "duration": 2, "velocity": 80}, {"time": 59, "pitch": 83, "duration": 9, "velocity": 75}, {"time": 63, "pitch": 86, "duration": 4, "velocity": 86}, {"time": 85, "pitch": 83, "duration": 10, "velocity": 51}, {"time": 86, "pitch": 86, "duration": 8, "velocity": 83}, {"time": 87, "pitch": 91, "duration": 7, "velocity": 61}, {"time": 101, "pitch": 43, "duration": 26, "velocity": 56}, {"time": 104, "pitch": 50, "duration": 20, "velocity": 61}, {"time": 107, "pitch": 55, "duration": 4, "velocity": 82}, {"time": 110, "pitch": 57, "duration": 11, "velocity": 79}, {"time": 113, "pitch": 59, "duration": 21, "velocity": 75}, {"time": 118, "pitch": 55, "duration": 13, "velocity": 63}, {"time": 118, "pitch": 62, "duration": 20, "velocity": 55}, {"time": 133, "pitch": 40, "duration": 1, "velocity": 83}, {"time": 138, "pitch": 52, "duration": 23, "velocity": 76}, {"time": 141, "pitch": 59, "duration": 20, "velocity": 83}, {"time": 144, "pitch": 62, "duration": 30, "velocity": 80}, {"time": 147, "pitch": 67, "duration": 27, "velocity": 87}, {"time": 150, "pitch": 71, "duration": 25, "velocity": 88}, {"time": 190, "pitch": 57, "duration": 14, "velocity": 75}, {"time": 190, "pitch": 45, "duration": 27, "velocity": 71}, {"time": 191, "pitch": 60, "duration": 16, "velocity": 80}, {"time": 192, "pitch": 64, "duration": 15, "velocity": 82}, {"time": 203, "pitch": 52, "duration": 13, "velocity": 69}, {"time": 207, "pitch": 57, "duration": 11, "velocity": 84}, {"time": 210, "pitch": 60, "duration": 9, "velocity": 81}, {"time": 212, "pitch": 64, "duration": 7, "velocity": 85}, {"time": 215, "pitch": 67, "duration": 5, "velocity": 40}, {"time": 229, "pitch": 62, "duration": 17, "velocity": 74}, {"time": 229, "pitch": 66, "duration": 20, "velocity": 78}, {"time": 229, "pitch": 69, "duration": 23, "velocity": 69}, {"time": 229, "pitch": 38, "duration": 2, "velocity": 78}, {"time": 244, "pitch": 54, "duration": 4, "velocity": 49}, {"time": 245, "pitch": 57, "duration": 4, "velocity": 76}, {"time": 248, "pitch": 62, "duration": 49, "velocity": 83}, {"time": 251, "pitch": 66, "duration": 46, "velocity": 80}, {"time": 254, "pitch": 69, "duration": 43, "velocity": 56}, {"time": 255, "pitch": 74, "duration": 42, "velocity": 84}, {"time": 298, "pitch": 43, "duration": 2, "velocity": 79}, {"time": 298, "pitch": 67, "duration": 6, "velocity": 79}, {"time": 298, "pitch": 74, "duration": 6, "velocity": 93}, {"time": 304, "pitch": 55, "duration": 17, "velocity": 78}, {"time": 307, "pitch": 62, "duration": 7, "velocity": 80}, {"time": 313, "pitch": 69, "duration": 2, "velocity": 79}, {"time": 316, "pitch": 62, "duration": 5, "velocity": 73}, {"time": 319, "pitch": 67, "duration": 2, "velocity": 76}, {"time": 322, "pitch": 55, "duration": 18, "velocity": 75}, {"time": 322, "pitch": 62, "duration": 10, "velocity": 83}, {"time": 322, "pitch": 67, "duration": 9, "velocity": 82}, {"time": 322, "pitch": 71, "duration": 9, "velocity": 81}, {"time": 334, "pitch": 62, "duration": 5, "velocity": 83}, {"time": 340, "pitch": 67, "duration": 2, "velocity": 74}, {"time": 346, "pitch": 52, "duration": 38, "velocity": 90}, {"time": 346, "pitch": 64, "duration": 6, "velocity": 84}, {"time": 346, "pitch": 67, "duration": 6, "velocity": 84}, {"time": 352, "pitch": 59, "duration": 4, "velocity": 65}, {"time": 355, "pitch": 64, "duration": 5, "velocity": 83}, {"time": 358, "pitch": 59, "duration": 3, "velocity": 70}, {"time": 361, "pitch": 67, "duration": 3, "velocity": 87}, {"time": 364, "pitch": 59, "duration": 19, "velocity": 78}, {"time": 367, "pitch": 62, "duration": 1, "velocity": 61}, {"time": 370, "pitch": 62, "duration": 14, "velocity": 85}, {"time": 370, "pitch": 67, "duration": 16, "velocity": 79}, {"time": 394, "pitch": 36, "duration": 2, "velocity": 77}, {"time": 394, "pitch": 60, "duration": 8, "velocity": 80}, {"time": 394, "pitch": 64, "duration": 7, "velocity": 89}, {"time": 400, "pitch": 48, "duration": 35, "velocity": 64}, {"time": 403, "pitch": 55, "duration": 8, "velocity": 82}, {"time": 406, "pitch": 62, "duration": 4, "velocity": 85}, {"time": 409, "pitch": 67, "duration": 8, "velocity": 93}, {"time": 412, "pitch": 60, "duration": 5, "velocity": 87}, {"time": 418, "pitch": 60, "duration": 9, "velocity": 88}, {"time": 418, "pitch": 67, "duration": 9, "velocity": 89}, {"time": 430, "pitch": 55, "duration": 4, "velocity": 82}, {"time": 430, "pitch": 60, "duration": 6, "velocity": 86}, {"time": 430, "pitch": 64, "duration": 6, "velocity": 90}, {"time": 442, "pitch": 38, "duration": 2, "velocity": 93}, {"time": 442, "pitch": 62, "duration": 15, "velocity": 85}, {"time": 442, "pitch": 66, "duration": 15, "velocity": 86}, {"time": 454, "pitch": 50, "duration": 31, "velocity": 63}, {"time": 457, "pitch": 57, "duration": 29, "velocity": 86}, {"time": 460, "pitch": 62, "duration": 4, "velocity": 89}, {"time": 466, "pitch": 62, "duration": 20, "velocity": 81}, {"time": 466, "pitch": 66, "duration": 2, "velocity": 71}, {"time": 490, "pitch": 43, "duration": 39, "velocity": 93}, {"time": 496, "pitch": 50, "duration": 32, "velocity": 67}, {"time": 502, "pitch": 62, "duration": 11, "velocity": 88}, {"time": 508, "pitch": 59, "duration": 4, "velocity": 87}, {"time": 514, "pitch": 55, "duration": 13, "velocity": 82}, {"time": 514, "pitch": 59, "duration": 14, "velocity": 89}, {"time": 514, "pitch": 62, "duration": 14, "velocity": 83}, {"time": 514, "pitch": 67, "duration": 5, "velocity": 83}, {"time": 538, "pitch": 40, "duration": 2, "velocity": 82}, {"time": 538, "pitch": 64, "duration": 13, "velocity": 76}, {"time": 538, "pitch": 67, "duration": 14, "velocity": 82}, {"time": 544, "pitch": 52, "duration": 34, "velocity": 79}, {"time": 550, "pitch": 59, "duration": 25, "velocity": 82}, {"time": 562, "pitch": 64, "duration": 11, "velocity": 86}, {"time": 562, "pitch": 71, "duration": 15, "velocity": 91}, {"time": 586, "pitch": 45, "duration": 41, "velocity": 90}, {"time": 586, "pitch": 57, "duration": 9, "velocity": 78}, {"time": 586, "pitch": 60, "duration": 12, "velocity": 82}, {"time": 592, "pitch": 52, "duration": 34, "velocity": 75}, {"time": 598, "pitch": 55, "duration": 7, "velocity": 86}, {"time": 604, "pitch": 60, "duration": 3, "velocity": 80}, {"time": 610, "pitch": 60, "duration": 4, "velocity": 85}, {"time": 610, "pitch": 64, "duration": 5, "velocity": 91}, {"time": 622, "pitch": 60, "duration": 5, "velocity": 86}, {"time": 622, "pitch": 67, "duration": 6, "velocity": 86}, {"time": 634, "pitch": 38, "duration": 2, "velocity": 84}, {"time": 634, "pitch": 62, "duration": 17, "velocity": 82}, {"time": 634, "pitch": 67, "duration": 15, "velocity": 83}, {"time": 646, "pitch": 50, "duration": 27, "velocity": 79}, {"time": 652, "pitch": 57, "duration": 20, "velocity": 84}, {"time": 658, "pitch": 62, "duration": 17, "velocity": 89}, {"time": 658, "pitch": 69, "duration": 19, "velocity": 88}, {"time": 682, "pitch": 43, "duration": 3, "velocity": 81}, {"time": 682, "pitch": 62, "duration": 14, "velocity": 84}, {"time": 682, "pitch": 71, "duration": 19, "velocity": 87}, {"time": 688, "pitch": 50, "duration": 35, "velocity": 79}, {"time": 694, "pitch": 59, "duration": 28, "velocity": 95}, {"time": 700, "pitch": 62, "duration": 5, "velocity": 104}, {"time": 706, "pitch": 62, "duration": 8, "velocity": 91}, {"time": 706, "pitch": 71, "duration": 13, "velocity": 93}, {"time": 718, "pitch": 62, "duration": 7, "velocity": 85}, {"time": 718, "pitch": 67, "duration": 6, "velocity": 88}, {"time": 724, "pitch": 66, "duration": 6, "velocity": 87}, {"time": 730, "pitch": 40, "duration": 2, "velocity": 84}, {"time": 730, "pitch": 64, "duration": 12, "velocity": 81}, {"time": 730, "pitch": 67, "duration": 12, "velocity": 85}, {"time": 736, "pitch": 52, "duration": 35, "velocity": 83}, {"time": 742, "pitch": 59, "duration": 28, "velocity": 81}, {"time": 748, "pitch": 64, "duration": 2, "velocity": 81}, {"time": 754, "pitch": 64, "duration": 4, "velocity": 89}, {"time": 754, "pitch": 71, "duration": 3, "velocity": 93}, {"time": 778, "pitch": 45, "duration": 38, "velocity": 93}, {"time": 778, "pitch": 57, "duration": 9, "velocity": 84}, {"time": 778, "pitch": 60, "duration": 8, "velocity": 86}, {"time": 784, "pitch": 52, "duration": 9, "velocity": 74}, {"time": 790, "pitch": 57, "duration": 9, "velocity": 90}, {"time": 790, "pitch": 64, "duration": 4, "velocity": 93}, {"time": 796, "pitch": 52, "duration": 20, "velocity": 77}, {"time": 802, "pitch": 57, "duration": 6, "velocity": 89}, {"time": 802, "pitch": 69, "duration": 8, "velocity": 86}, {"time": 814, "pitch": 57, "duration": 3, "velocity": 90}, {"time": 814, "pitch": 64, "duration": 3, "velocity": 94}, {"time": 826, "pitch": 50, "duration": 47, "velocity": 86}, {"time": 826, "pitch": 62, "duration": 14, "velocity": 83}, {"time": 826, "pitch": 66, "duration": 12, "velocity": 80}, {"time": 832, "pitch": 57, "duration": 32, "velocity": 63}, {"time": 838, "pitch": 69, "duration": 7, "velocity": 84}, {"time": 850, "pitch": 62, "duration": 4, "velocity": 81}, {"time": 850, "pitch": 74, "duration": 3, "velocity": 94}, {"time": 862, "pitch": 62, "duration": 11, "velocity": 87}, {"time": 862, "pitch": 66, "duration": 11, "velocity": 90}, {"time": 862, "pitch": 69, "duration": 11, "velocity": 91}, {"time": 868, "pitch": 57, "duration": 6, "velocity": 83}, {"time": 874, "pitch": 47, "duration": 40, "velocity": 85}, {"time": 874, "pitch": 59, "duration": 12, "velocity": 80}, {"time": 874, "pitch": 62, "duration": 13, "velocity": 87}, {"time": 880, "pitch": 54, "duration": 8, "velocity": 71}, {"time": 886, "pitch": 71, "duration": 3, "velocity": 95}, {"time": 892, "pitch": 54, "duration": 20, "velocity": 68}, {"time": 898, "pitch": 71, "duration": 10, "velocity": 93}, {"time": 898, "pitch": 78, "duration": 10, "velocity": 86}, {"time": 910, "pitch": 74, "duration": 12, "velocity": 94}, {"time": 922, "pitch": 40, "duration": 1, "velocity": 91}, {"time": 922, "pitch": 71, "duration": 6, "velocity": 84}, {"time": 922, "pitch": 76, "duration": 7, "velocity": 87}, {"time": 928, "pitch": 52, "duration": 38, "velocity": 85}, {"time": 934, "pitch": 59, "duration": 15, "velocity": 78}, {"time": 940, "pitch": 66, "duration": 7, "velocity": 84}, {"time": 946, "pitch": 67, "duration": 7, "velocity": 94}, {"time": 952, "pitch": 59, "duration": 7, "velocity": 70}, {"time": 958, "pitch": 64, "duration": 3, "velocity": 92}, {"time": 958, "pitch": 71, "duration": 7, "velocity": 95}, {"time": 961, "pitch": 59, "duration": 3, "velocity": 76}, {"time": 964, "pitch": 64, "duration": 4, "velocity": 80}, {"time": 964, "pitch": 69, "duration": 5, "velocity": 81}, {"time": 970, "pitch": 45, "duration": 2, "velocity": 90}, {"time": 970, "pitch": 64, "duration": 5, "velocity": 87}, {"time": 970, "pitch": 69, "duration": 8, "velocity": 89}, {"time": 982, "pitch": 57, "duration": 27, "velocity": 67}, {"time": 985, "pitch": 64, "duration": 13, "velocity": 83}, {"time": 988, "pitch": 69, "duration": 2, "velocity": 81}, {"time": 988, "pitch": 71, "duration": 4, "velocity": 79}, {"time": 991, "pitch": 72, "duration": 4, "velocity": 88}, {"time": 994, "pitch": 76, "duration": 13, "velocity": 94}, {"time": 1000, "pitch": 64, "duration": 8, "velocity": 76}, {"time": 1006, "pitch": 67, "duration": 6, "velocity": 87}, {"time": 1006, "pitch": 72, "duration": 6, "velocity": 88}, {"time": 1018, "pitch": 38, "duration": 2, "velocity": 93}, {"time": 1018, "pitch": 69, "duration": 5, "velocity": 84}, {"time": 1018, "pitch": 74, "duration": 6, "velocity": 94}, {"time": 1024, "pitch": 50, "duration": 17, "velocity": 83}, {"time": 1030, "pitch": 57, "duration": 10, "velocity": 93}, {"time": 1033, "pitch": 60, "duration": 4, "velocity": 94}, {"time": 1036, "pitch": 66, "duration": 3, "velocity": 89}, {"time": 1039, "pitch": 62, "duration": 2, "velocity": 82}, {"time": 1042, "pitch": 50, "duration": 18, "velocity": 97}, {"time": 1042, "pitch": 62, "duration": 6, "velocity": 87}, {"time": 1042, "pitch": 66, "duration": 6, "velocity": 84}, {"time": 1042, "pitch": 69, "duration": 7, "velocity": 89}, {"time": 1048, "pitch": 57, "duration": 8, "velocity": 77}, {"time": 1051, "pitch": 62, "duration": 2, "velocity": 77}, {"time": 1054, "pitch": 62, "duration": 12, "velocity": 92}, {"time": 1054, "pitch": 66, "duration": 12, "velocity": 93}, {"time": 1054, "pitch": 69, "duration": 12, "velocity": 94}, {"time": 1054, "pitch": 74, "duration": 12, "velocity": 94}, {"time": 1066, "pitch": 43, "duration": 2, "velocity": 93}, {"time": 1066, "pitch": 67, "duration": 9, "velocity": 86}, {"time": 1066, "pitch": 74, "duration": 9, "velocity": 94}, {"time": 1072, "pitch": 55, "duration": 14, "velocity": 84}, {"time": 1075, "pitch": 62, "duration": 7, "velocity": 93}, {"time": 1081, "pitch": 67, "duration": 3, "velocity": 93}, {"time": 1081, "pitch": 74, "duration": 5, "velocity": 95}, {"time": 1084, "pitch": 62, "duration": 2, "velocity": 78}, {"time": 1087, "pitch": 67, "duration": 2, "velocity": 85}, {"time": 1090, "pitch": 67, "duration": 6, "velocity": 85}, {"time": 1090, "pitch": 74, "duration": 10, "velocity": 93}, {"time": 1099, "pitch": 67, "duration": 2, "velocity": 77}, {"time": 1102, "pitch": 43, "duration": 6, "velocity": 92}, {"time": 1102, "pitch": 67, "duration": 3, "velocity": 94}, {"time": 1102, "pitch": 71, "duration": 7, "velocity": 94}, {"time": 1108, "pitch": 67, "duration": 2, "velocity": 85}, {"time": 1114, "pitch": 40, "duration": 2, "velocity": 94}, {"time": 1114, "pitch": 64, "duration": 7, "velocity": 92}, {"time": 1114, "pitch": 67, "duration": 8, "velocity": 89}, {"time": 1120, "pitch": 52, "duration": 35, "velocity": 88}, {"time": 1123, "pitch": 59, "duration": 16, "velocity": 85}, {"time": 1129, "pitch": 66, "duration": 4, "velocity": 93}, {"time": 1135, "pitch": 67, "duration": 6, "velocity": 94}, {"time": 1138, "pitch": 64, "duration": 4, "velocity": 94}, {"time": 1141, "pitch": 59, "duration": 7, "velocity": 89}, {"time": 1144, "pitch": 64, "duration": 2, "velocity": 99}, {"time": 1147, "pitch": 64, "duration": 6, "velocity": 95}, {"time": 1147, "pitch": 67, "duration": 7, "velocity": 89}, {"time": 1147, "pitch": 71, "duration": 8, "velocity": 98}, {"time": 1150, "pitch": 59, "duration": 4, "velocity": 82}, {"time": 1162, "pitch": 45, "duration": 39, "velocity": 93}, {"time": 1162, "pitch": 57, "duration": 7, "velocity": 76}, {"time": 1162, "pitch": 60, "duration": 8, "velocity": 86}, {"time": 1162, "pitch": 64, "duration": 8, "velocity": 89}, {"time": 1168, "pitch": 52, "duration": 32, "velocity": 77}, {"time": 1171, "pitch": 57, "duration": 7, "velocity": 94}, {"time": 1177, "pitch": 69, "duration": 5, "velocity": 93}, {"time": 1186, "pitch": 57, "duration": 10, "velocity": 83}, {"time": 1186, "pitch": 60, "duration": 10, "velocity": 86}, {"time": 1186, "pitch": 64, "duration": 10, "velocity": 89}, {"time": 1198, "pitch": 57, "duration": 3, "velocity": 88}, {"time": 1198, "pitch": 60, "duration": 3, "velocity": 89}, {"time": 1198, "pitch": 64, "duration": 3, "velocity": 94}, {"time": 1210, "pitch": 38, "duration": 1, "velocity": 94}, {"time": 1210, "pitch": 57, "duration": 3, "velocity": 86}, {"time": 1210, "pitch": 62, "duration": 4, "velocity": 90}, {"time": 1216, "pitch": 50, "duration": 16, "velocity": 80}, {"time": 1219, "pitch": 54, "duration": 4, "velocity": 81}, {"time": 1222, "pitch": 57, "duration": 10, "velocity": 93}, {"time": 1225, "pitch": 62, "duration": 7, "velocity": 99}, {"time": 1228, "pitch": 66, "duration": 4, "velocity": 102}, {"time": 1231, "pitch": 69, "duration": 2, "velocity": 90}, {"time": 1234, "pitch": 50, "duration": 16, "velocity": 97}, {"time": 1234, "pitch": 57, "duration": 4, "velocity": 93}, {"time": 1234, "pitch": 62, "duration": 5, "velocity": 90}, {"time": 1234, "pitch": 66, "duration": 7, "velocity": 85}, {"time": 1234, "pitch": 69, "duration": 8, "velocity": 80}, {"time": 1234, "pitch": 74, "duration": 7, "velocity": 99}, {"time": 1240, "pitch": 62, "duration": 3, "velocity": 80}, {"time": 1246, "pitch": 62, "duration": 5, "velocity": 95}, {"time": 1246, "pitch": 66, "duration": 3, "velocity": 97}, {"time": 1246, "pitch": 69, "duration": 6, "velocity": 93}, {"time": 1258, "pitch": 43, "duration": 1, "velocity": 93}, {"time": 1258, "pitch": 62, "duration": 5, "velocity": 91}, {"time": 1258, "pitch": 67, "duration": 5, "velocity": 86}, {"time": 1258, "pitch": 71, "duration": 7, "velocity": 94}, {"time": 1264, "pitch": 55, "duration": 36, "velocity": 86}, {"time": 1267, "pitch": 62, "duration": 13, "velocity": 90}, {"time": 1270, "pitch": 69, "duration": 4, "velocity": 85}, {"time": 1273, "pitch": 71, "duration": 4, "velocity": 96}, {"time": 1279, "pitch": 67, "duration": 7, "velocity": 89}, {"time": 1279, "pitch": 74, "duration": 13, "velocity": 97}, {"time": 1282, "pitch": 62, "duration": 13, "velocity": 97}, {"time": 1291, "pitch": 67, "duration": 2, "velocity": 70}, {"time": 1294, "pitch": 67, "duration": 4, "velocity": 93}, {"time": 1294, "pitch": 71, "duration": 6, "velocity": 96}, {"time": 1294, "pitch": 74, "duration": 6, "velocity": 104}, {"time": 1297, "pitch": 62, "duration": 2, "velocity": 87}, {"time": 1300, "pitch": 67, "duration": 2, "velocity": 89}, {"time": 1306, "pitch": 52, "duration": 39, "velocity": 94}, {"time": 1306, "pitch": 64, "duration": 10, "velocity": 85}, {"time": 1306, "pitch": 67, "duration": 8, "velocity": 86}, {"time": 1318, "pitch": 59, "duration": 10, "velocity": 81}, {"time": 1321, "pitch": 66, "duration": 4, "velocity": 79}, {"time": 1324, "pitch": 67, "duration": 4, "velocity": 82}, {"time": 1327, "pitch": 71, "duration": 10, "velocity": 94}, {"time": 1330, "pitch": 59, "duration": 14, "velocity": 87}, {"time": 1333, "pitch": 64, "duration": 6, "velocity": 87}, {"time": 1336, "pitch": 67, "duration": 4, "velocity": 75}, {"time": 1342, "pitch": 64, "duration": 3, "velocity": 93}, {"time": 1342, "pitch": 67, "duration": 4, "velocity": 93}, {"time": 1342, "pitch": 71, "duration": 4, "velocity": 95}, {"time": 1354, "pitch": 45, "duration": 18, "velocity": 92}, {"time": 1354, "pitch": 57, "duration": 6, "velocity": 82}, {"time": 1354, "pitch": 60, "duration": 7, "velocity": 85}, {"time": 1360, "pitch": 52, "duration": 8, "velocity": 64}, {"time": 1366, "pitch": 57, "duration": 3, "velocity": 97}, {"time": 1366, "pitch": 64, "duration": 4, "velocity": 98}, {"time": 1369, "pitch": 52, "duration": 2, "velocity": 88}, {"time": 1372, "pitch": 60, "duration": 4, "velocity": 92}, {"time": 1378, "pitch": 38, "duration": 1, "velocity": 94}, {"time": 1378, "pitch": 57, "duration": 4, "velocity": 85}, {"time": 1378, "pitch": 62, "duration": 5, "velocity": 91}, {"time": 1384, "pitch": 50, "duration": 12, "velocity": 58}, {"time": 1390, "pitch": 54, "duration": 5, "velocity": 90}, {"time": 1402, "pitch": 43, "duration": 2, "velocity": 86}, {"time": 1402, "pitch": 62, "duration": 10, "velocity": 84}, {"time": 1402, "pitch": 67, "duration": 10, "velocity": 83}, {"time": 1408, "pitch": 50, "duration": 39, "velocity": 76}, {"time": 1411, "pitch": 55, "duration": 36, "velocity": 87}, {"time": 1414, "pitch": 57, "duration": 33, "velocity": 89}, {"time": 1417, "pitch": 59, "duration": 5, "velocity": 85}, {"time": 1417, "pitch": 60, "duration": 1, "velocity": 80}, {"time": 1420, "pitch": 62, "duration": 28, "velocity": 88}, {"time": 1423, "pitch": 67, "duration": 26, "velocity": 87}, {"time": 1426, "pitch": 59, "duration": 22, "velocity": 82}, {"time": 1450, "pitch": 40, "duration": 18, "velocity": 94}, {"time": 1450, "pitch": 64, "duration": 4, "velocity": 95}, {"time": 1450, "pitch": 67, "duration": 5, "velocity": 93}, {"time": 1453, "pitch": 52, "duration": 37, "velocity": 94}, {"time": 1456, "pitch": 59, "duration": 7, "velocity": 89}, {"time": 1459, "pitch": 64, "duration": 2, "velocity": 97}, {"time": 1462, "pitch": 64, "duration": 3, "velocity": 104}, {"time": 1462, "pitch": 71, "duration": 4, "velocity": 96}, {"time": 1465, "pitch": 59, "duration": 4, "velocity": 86}, {"time": 1468, "pitch": 64, "duration": 4, "velocity": 96}, {"time": 1471, "pitch": 59, "duration": 5, "velocity": 85}, {"time": 1474, "pitch": 64, "duration": 4, "velocity": 96}, {"time": 1474, "pitch": 67, "duration": 7, "velocity": 89}, {"time": 1477, "pitch": 59, "duration": 5, "velocity": 84}, {"time": 1480, "pitch": 64, "duration": 4, "velocity": 94}, {"time": 1483, "pitch": 59, "duration": 3, "velocity": 95}, {"time": 1486, "pitch": 64, "duration": 3, "velocity": 99}, {"time": 1486, "pitch": 67, "duration": 4, "velocity": 98}, {"time": 1486, "pitch": 71, "duration": 4, "velocity": 99}, {"time": 1489, "pitch": 59, "duration": 2, "velocity": 94}, {"time": 1492, "pitch": 64, "duration": 3, "velocity": 97}, {"time": 1498, "pitch": 47, "duration": 23, "velocity": 94}, {"time": 1498, "pitch": 59, "duration": 4, "velocity": 94}, {"time": 1498, "pitch": 62, "duration": 7, "velocity": 93}, {"time": 1501, "pitch": 54, "duration": 4, "velocity": 81}, {"time": 1504, "pitch": 59, "duration": 4, "velocity": 99}, {"time": 1507, "pitch": 54, "duration": 4, "velocity": 85}, {"time": 1510, "pitch": 59, "duration": 3, "velocity": 109}, {"time": 1510, "pitch": 66, "duration": 7, "velocity": 99}, {"time": 1513, "pitch": 54, "duration": 9, "velocity": 92}, {"time": 1516, "pitch": 59, "duration": 5, "velocity": 99}, {"time": 1522, "pitch": 47, "duration": 18, "velocity": 94}, {"time": 1522, "pitch": 59, "duration": 3, "velocity": 94}, {"time": 1522, "pitch": 66, "duration": 8, "velocity": 96}, {"time": 1525, "pitch": 54, "duration": 5, "velocity": 81}, {"time": 1528, "pitch": 59, "duration": 4, "velocity": 104}, {"time": 1531, "pitch": 54, "duration": 4, "velocity": 94}, {"time": 1534, "pitch": 59, "duration": 4, "velocity": 96}, {"time": 1534, "pitch": 62, "duration": 6, "velocity": 95}, {"time": 1534, "pitch": 66, "duration": 8, "velocity": 100}, {"time": 1537, "pitch": 54, "duration": 2, "velocity": 94}, {"time": 1540, "pitch": 59, "duration": 4, "velocity": 100}, {"time": 1543, "pitch": 62, "duration": 1, "velocity": 64}, {"time": 1546, "pitch": 45, "duration": 23, "velocity": 93}, {"time": 1546, "pitch": 57, "duration": 4, "velocity": 93}, {"time": 1546, "pitch": 60, "duration": 7, "velocity": 94}, {"time": 1549, "pitch": 52, "duration": 10, "velocity": 87}, {"time": 1552, "pitch": 57, "duration": 4, "velocity": 92}, {"time": 1555, "pitch": 60, "duration": 2, "velocity": 86}, {"time": 1558, "pitch": 57, "duration": 4, "velocity": 94}, {"time": 1558, "pitch": 60, "duration": 5, "velocity": 97}, {"time": 1558, "pitch": 64, "duration": 4, "velocity": 99}, {"time": 1561, "pitch": 52, "duration": 8, "velocity": 93}, {"time": 1564, "pitch": 57, "duration": 5, "velocity": 94}, {"time": 1564, "pitch": 60, "duration": 1, "velocity": 70}, {"time": 1567, "pitch": 60, "duration": 2, "velocity": 95}, {"time": 1570, "pitch": 47, "duration": 16, "velocity": 95}, {"time": 1570, "pitch": 59, "duration": 3, "velocity": 95}, {"time": 1570, "pitch": 62, "duration": 4, "velocity": 97}, {"time": 1573, "pitch": 54, "duration": 4, "velocity": 95}, {"time": 1576, "pitch": 59, "duration": 5, "velocity": 109}, {"time": 1579, "pitch": 54, "duration": 4, "velocity": 96}, {"time": 1582, "pitch": 59, "duration": 3, "velocity": 99}, {"time": 1582, "pitch": 66, "duration": 4, "velocity": 102}, {"time": 1585, "pitch": 54, "duration": 2, "velocity": 97}, {"time": 1588, "pitch": 59, "duration": 2, "velocity": 97}, {"time": 1588, "pitch": 62, "duration": 3, "velocity": 99}, {"time": 1591, "pitch": 59, "duration": 2, "velocity": 94}, {"time": 1594, "pitch": 48, "duration": 16, "velocity": 95}, {"time": 1594, "pitch": 60, "duration": 4, "velocity": 95}, {"time": 1594, "pitch": 64, "duration": 4, "velocity": 97}, {"time": 1597, "pitch": 55, "duration": 4, "velocity": 83}, {"time": 1600, "pitch": 60, "duration": 4, "velocity": 97}, {"time": 1603, "pitch": 55, "duration": 4, "velocity": 95}, {"time": 1606, "pitch": 60, "duration": 3, "velocity": 96}, {"time": 1606, "pitch": 64, "duration": 4, "velocity": 98}, {"time": 1606, "pitch": 67, "duration": 4, "velocity": 94}, {"time": 1609, "pitch": 55, "duration": 2, "velocity": 97}, {"time": 1612, "pitch": 60, "duration": 4, "velocity": 97}, {"time": 1615, "pitch": 64, "duration": 3, "velocity": 93}, {"time": 1618, "pitch": 38, "duration": 10, "velocity": 97}, {"time": 1618, "pitch": 62, "duration": 5, "velocity": 90}, {"time": 1618, "pitch": 66, "duration": 4, "velocity": 94}, {"time": 1621, "pitch": 50, "duration": 12, "velocity": 89}, {"time": 1624, "pitch": 57, "duration": 6, "velocity": 93}, {"time": 1627, "pitch": 62, "duration": 2, "velocity": 98}, {"time": 1630, "pitch": 62, "duration": 4, "velocity": 95}, {"time": 1630, "pitch": 66, "duration": 4, "velocity": 99}, {"time": 1630, "pitch": 74, "duration": 4, "velocity": 97}, {"time": 1633, "pitch": 57, "duration": 2, "velocity": 96}, {"time": 1636, "pitch": 62, "duration": 2, "velocity": 100}, {"time": 1642, "pitch": 40, "duration": 1, "velocity": 97}, {"time": 1642, "pitch": 64, "duration": 7, "velocity": 96}, {"time": 1642, "pitch": 67, "duration": 7, "velocity": 91}, {"time": 1645, "pitch": 52, "duration": 37, "velocity": 95}, {"time": 1648, "pitch": 59, "duration": 7, "velocity": 89}, {"time": 1651, "pitch": 64, "duration": 2, "velocity": 99}, {"time": 1654, "pitch": 64, "duration": 4, "velocity": 104}, {"time": 1654, "pitch": 71, "duration": 5, "velocity": 98}, {"time": 1657, "pitch": 59, "duration": 19, "velocity": 89}, {"time": 1660, "pitch": 64, "duration": 10, "velocity": 97}, {"time": 1663, "pitch": 67, "duration": 2, "velocity": 84}, {"time": 1666, "pitch": 67, "duration": 1, "velocity": 79}, {"time": 1666, "pitch": 76, "duration": 7, "velocity": 107}, {"time": 1669, "pitch": 71, "duration": 4, "velocity": 93}, {"time": 1672, "pitch": 67, "duration": 4, "velocity": 94}, {"time": 1675, "pitch": 64, "duration": 2, "velocity": 102}, {"time": 1678, "pitch": 59, "duration": 6, "velocity": 98}, {"time": 1678, "pitch": 64, "duration": 3, "velocity": 96}, {"time": 1678, "pitch": 67, "duration": 4, "velocity": 97}, {"time": 1678, "pitch": 71, "duration": 4, "velocity": 98}, {"time": 1684, "pitch": 64, "duration": 1, "velocity": 102}, {"time": 1684, "pitch": 67, "duration": 3, "velocity": 99}, {"time": 1687, "pitch": 64, "duration": 1, "velocity": 97}, {"time": 1690, "pitch": 47, "duration": 40, "velocity": 94}, {"time": 1690, "pitch": 59, "duration": 4, "velocity": 82}, {"time": 1690, "pitch": 62, "duration": 4, "velocity": 88}, {"time": 1693, "pitch": 54, "duration": 4, "velocity": 84}, {"time": 1696, "pitch": 59, "duration": 4, "velocity": 107}, {"time": 1699, "pitch": 54, "duration": 4, "velocity": 91}, {"time": 1702, "pitch": 59, "duration": 3, "velocity": 100}, {"time": 1702, "pitch": 62, "duration": 3, "velocity": 94}, {"time": 1702, "pitch": 66, "duration": 3, "velocity": 102}, {"time": 1705, "pitch": 54, "duration": 5, "velocity": 93}, {"time": 1708, "pitch": 59, "duration": 5, "velocity": 100}, {"time": 1711, "pitch": 62, "duration": 2, "velocity": 95}, {"time": 1714, "pitch": 59, "duration": 4, "velocity": 89}, {"time": 1714, "pitch": 62, "duration": 7, "velocity": 94}, {"time": 1714, "pitch": 66, "duration": 7, "velocity": 87}, {"time": 1714, "pitch": 71, "duration": 7, "velocity": 96}, {"time": 1717, "pitch": 54, "duration": 10, "velocity": 87}, {"time": 1720, "pitch": 59, "duration": 5, "velocity": 91}, {"time": 1723, "pitch": 62, "duration": 2, "velocity": 90}, {"time": 1726, "pitch": 59, "duration": 3, "velocity": 99}, {"time": 1726, "pitch": 66, "duration": 4, "velocity": 95}, {"time": 1729, "pitch": 54, "duration": 2, "velocity": 94}, {"time": 1732, "pitch": 62, "duration": 4, "velocity": 95}, {"time": 1735, "pitch": 59, "duration": 2, "velocity": 96}, {"time": 1738, "pitch": 45, "duration": 10, "velocity": 88}, {"time": 1738, "pitch": 57, "duration": 4, "velocity": 94}, {"time": 1738, "pitch": 60, "duration": 4, "velocity": 94}, {"time": 1741, "pitch": 52, "duration": 8, "velocity": 84}, {"time": 1744, "pitch": 57, "duration": 4, "velocity": 100}, {"time": 1747, "pitch": 60, "duration": 2, "velocity": 93}, {"time": 1750, "pitch": 47, "duration": 10, "velocity": 96}, {"time": 1750, "pitch": 59, "duration": 4, "velocity": 94}, {"time": 1750, "pitch": 62, "duration": 7, "velocity": 94}, {"time": 1753, "pitch": 54, "duration": 5, "velocity": 79}, {"time": 1756, "pitch": 59, "duration": 4, "velocity": 98}, {"time": 1759, "pitch": 62, "duration": 2, "velocity": 93}, {"time": 1762, "pitch": 48, "duration": 10, "velocity": 97}, {"time": 1762, "pitch": 60, "duration": 4, "velocity": 90}, {"time": 1762, "pitch": 64, "duration": 5, "velocity": 102}, {"time": 1765, "pitch": 55, "duration": 8, "velocity": 88}, {"time": 1768, "pitch": 60, "duration": 4, "velocity": 90}, {"time": 1771, "pitch": 64, "duration": 2, "velocity": 90}, {"time": 1774, "pitch": 50, "duration": 7, "velocity": 98}, {"time": 1774, "pitch": 62, "duration": 3, "velocity": 89}, {"time": 1774, "pitch": 66, "duration": 5, "velocity": 99}, {"time": 1777, "pitch": 57, "duration": 3, "velocity": 82}, {"time": 1780, "pitch": 62, "duration": 2, "velocity": 94}, {"time": 1786, "pitch": 40, "duration": 2, "velocity": 96}, {"time": 1786, "pitch": 64, "duration": 10, "velocity": 98}, {"time": 1792, "pitch": 52, "duration": 15, "velocity": 79}, {"time": 1795, "pitch": 59, "duration": 7, "velocity": 102}, {"time": 1798, "pitch": 64, "duration": 6, "velocity": 102}, {"time": 1801, "pitch": 76, "duration": 4, "velocity": 102}, {"time": 1804, "pitch": 59, "duration": 2, "velocity": 83}, {"time": 1807, "pitch": 64, "duration": 1, "velocity": 86}, {"time": 1810, "pitch": 52, "duration": 24, "velocity": 95}, {"time": 1810, "pitch": 59, "duration": 24, "velocity": 89}, {"time": 1810, "pitch": 64, "duration": 22, "velocity": 92}, {"time": 1810, "pitch": 76, "duration": 22, "velocity": 94}, {"time": 1834, "pitch": 43, "duration": 23, "velocity": 92}, {"time": 1834, "pitch": 67, "duration": 4, "velocity": 86}, {"time": 1834, "pitch": 74, "duration": 5, "velocity": 88}, {"time": 1840, "pitch": 50, "duration": 9, "velocity": 76}, {"time": 1846, "pitch": 62, "duration": 5, "velocity": 86}, {"time": 1846, "pitch": 71, "duration": 4, "velocity": 93}, {"time": 1852, "pitch": 50, "duration": 7, "velocity": 65}, {"time": 1858, "pitch": 43, "duration": 18, "velocity": 71}, {"time": 1858, "pitch": 62, "duration": 4, "velocity": 85}, {"time": 1858, "pitch": 67, "duration": 7, "velocity": 82}, {"time": 1858, "pitch": 74, "duration": 8, "velocity": 90}, {"time": 1864, "pitch": 50, "duration": 10, "velocity": 66}, {"time": 1864, "pitch": 62, "duration": 2, "velocity": 80}, {"time": 1870, "pitch": 62, "duration": 3, "velocity": 94}, {"time": 1870, "pitch": 67, "duration": 3, "velocity": 94}, {"time": 1870, "pitch": 71, "duration": 3, "velocity": 94}, {"time": 1876, "pitch": 66, "duration": 3, "velocity": 91}, {"time": 1882, "pitch": 40, "duration": 3, "velocity": 94}, {"time": 1882, "pitch": 64, "duration": 9, "velocity": 89}, {"time": 1882, "pitch": 67, "duration": 8, "velocity": 90}, {"time": 1888, "pitch": 52, "duration": 34, "velocity": 93}, {"time": 1894, "pitch": 64, "duration": 6, "velocity": 95}, {"time": 1894, "pitch": 67, "duration": 6, "velocity": 93}, {"time": 1894, "pitch": 71, "duration": 7, "velocity": 95}, {"time": 1900, "pitch": 59, "duration": 10, "velocity": 67}, {"time": 1906, "pitch": 64, "duration": 10, "velocity": 89}, {"time": 1906, "pitch": 67, "duration": 10, "velocity": 86}, {"time": 1906, "pitch": 71, "duration": 10, "velocity": 92}, {"time": 1912, "pitch": 59, "duration": 8, "velocity": 70}, {"time": 1918, "pitch": 64, "duration": 3, "velocity": 95}, {"time": 1918, "pitch": 67, "duration": 3, "velocity": 93}, {"time": 1918, "pitch": 71, "duration": 3, "velocity": 95}, {"time": 1930, "pitch": 45, "duration": 40, "velocity": 92}, {"time": 1930, "pitch": 57, "duration": 9, "velocity": 86}, {"time": 1930, "pitch": 60, "duration": 8, "velocity": 85}, {"time": 1936, "pitch": 52, "duration": 8, "velocity": 74}, {"time": 1942, "pitch": 57, "duration": 4, "velocity": 94}, {"time": 1942, "pitch": 60, "duration": 4, "velocity": 94}, {"time": 1942, "pitch": 64, "duration": 3, "velocity": 97}, {"time": 1948, "pitch": 52, "duration": 10, "velocity": 71}, {"time": 1954, "pitch": 60, "duration": 8, "velocity": 90}, {"time": 1954, "pitch": 64, "duration": 7, "velocity": 94}, {"time": 1960, "pitch": 52, "duration": 8, "velocity": 64}, {"time": 1966, "pitch": 57, "duration": 3, "velocity": 89}, {"time": 1966, "pitch": 60, "duration": 3, "velocity": 94}, {"time": 1966, "pitch": 64, "duration": 3, "velocity": 99}, {"time": 1966, "pitch": 69, "duration": 5, "velocity": 92}, {"time": 1972, "pitch": 45, "duration": 3, "velocity": 93}, {"time": 1978, "pitch": 38, "duration": 2, "velocity": 93}, {"time": 1978, "pitch": 62, "duration": 9, "velocity": 87}, {"time": 1978, "pitch": 66, "duration": 9, "velocity": 86}, {"time": 1984, "pitch": 50, "duration": 17, "velocity": 90}, {"time": 1990, "pitch": 62, "duration": 3, "velocity": 95}, {"time": 1990, "pitch": 74, "duration": 3, "velocity": 99}, {"time": 1993, "pitch": 57, "duration": 8, "velocity": 71}, {"time": 1996, "pitch": 69, "duration": 5, "velocity": 86}, {"time": 1999, "pitch": 62, "duration": 2, "velocity": 89}, {"time": 2002, "pitch": 50, "duration": 16, "velocity": 93}, {"time": 2002, "pitch": 62, "duration": 6, "velocity": 85}, {"time": 2002, "pitch": 66, "duration": 6, "velocity": 86}, {"time": 2008, "pitch": 57, "duration": 7, "velocity": 63}, {"time": 2011, "pitch": 62, "duration": 2, "velocity": 81}, {"time": 2014, "pitch": 62, "duration": 4, "velocity": 99}, {"time": 2014, "pitch": 66, "duration": 3, "velocity": 104}, {"time": 2017, "pitch": 57, "duration": 3, "velocity": 81}, {"time": 2020, "pitch": 50, "duration": 2, "velocity": 92}, {"time": 2026, "pitch": 47, "duration": 17, "velocity": 94}, {"time": 2026, "pitch": 59, "duration": 8, "velocity": 89}, {"time": 2026, "pitch": 62, "duration": 8, "velocity": 91}, {"time": 2032, "pitch": 54, "duration": 9, "velocity": 84}, {"time": 2038, "pitch": 59, "duration": 6, "velocity": 95}, {"time": 2038, "pitch": 62, "duration": 7, "velocity": 97}, {"time": 2038, "pitch": 66, "duration": 8, "velocity": 98}, {"time": 2044, "pitch": 47, "duration": 21, "velocity": 88}, {"time": 2050, "pitch": 59, "duration": 7, "velocity": 93}, {"time": 2050, "pitch": 62, "duration": 9, "velocity": 90}, {"time": 2050, "pitch": 66, "duration": 5, "velocity": 87}, {"time": 2056, "pitch": 54, "duration": 8, "velocity": 62}, {"time": 2062, "pitch": 59, "duration": 3, "velocity": 94}, {"time": 2062, "pitch": 62, "duration": 4, "velocity": 95}, {"time": 2062, "pitch": 66, "duration": 4, "velocity": 93}, {"time": 2062, "pitch": 71, "duration": 6, "velocity": 94}, {"time": 2068, "pitch": 47, "duration": 2, "velocity": 93}, {"time": 2074, "pitch": 40, "duration": 2, "velocity": 94}, {"time": 2074, "pitch": 64, "duration": 9, "velocity": 94}, {"time": 2074, "pitch": 67, "duration": 8, "velocity": 92}, {"time": 2080, "pitch": 52, "duration": 28, "velocity": 87}, {"time": 2086, "pitch": 64, "duration": 3, "velocity": 99}, {"time": 2086, "pitch": 67, "duration": 8, "velocity": 95}, {"time": 2092, "pitch": 64, "duration": 5, "velocity": 93}, {"time": 2098, "pitch": 64, "duration": 4, "velocity": 100}, {"time": 2098, "pitch": 67, "duration": 9, "velocity": 95}, {"time": 2104, "pitch": 64, "duration": 2, "velocity": 95}, {"time": 2110, "pitch": 50, "duration": 7, "velocity": 94}, {"time": 2110, "pitch": 62, "duration": 6, "velocity": 93}, {"time": 2110, "pitch": 66, "duration": 5, "velocity": 93}, {"time": 2122, "pitch": 45, "duration": 21, "velocity": 92}, {"time": 2122, "pitch": 57, "duration": 6, "velocity": 90}, {"time": 2122, "pitch": 60, "duration": 7, "velocity": 86}, {"time": 2128, "pitch": 52, "duration": 8, "velocity": 80}, {"time": 2134, "pitch": 57, "duration": 5, "velocity": 95}, {"time": 2134, "pitch": 60, "duration": 4, "velocity": 97}, {"time": 2134, "pitch": 64, "duration": 3, "velocity": 98}, {"time": 2140, "pitch": 52, "duration": 5, "velocity": 75}, {"time": 2146, "pitch": 45, "duration": 15, "velocity": 93}, {"time": 2146, "pitch": 57, "duration": 4, "velocity": 82}, {"time": 2146, "pitch": 60, "duration": 6, "velocity": 88}, {"time": 2146, "pitch": 64, "duration": 6, "velocity": 91}, {"time": 2146, "pitch": 69, "duration": 6, "velocity": 86}, {"time": 2152, "pitch": 52, "duration": 7, "velocity": 58}, {"time": 2158, "pitch": 57, "duration": 2, "velocity": 98}, {"time": 2158, "pitch": 60, "duration": 2, "velocity": 104}, {"time": 2158, "pitch": 64, "duration": 3, "velocity": 104}, {"time": 2158, "pitch": 69, "duration": 4, "velocity": 95}, {"time": 2164, "pitch": 45, "duration": 2, "velocity": 94}, {"time": 2170, "pitch": 38, "duration": 1, "velocity": 97}, {"time": 2170, "pitch": 60, "duration": 3, "velocity": 84}, {"time": 2170, "pitch": 62, "duration": 12, "velocity": 80}, {"time": 2170, "pitch": 66, "duration": 13, "velocity": 82}, {"time": 2170, "pitch": 69, "duration": 16, "velocity": 91}, {"time": 2176, "pitch": 50, "duration": 16, "velocity": 93}, {"time": 2182, "pitch": 57, "duration": 9, "velocity": 97}, {"time": 2185, "pitch": 60, "duration": 5, "velocity": 104}, {"time": 2188, "pitch": 66, "duration": 4, "velocity": 102}, {"time": 2191, "pitch": 69, "duration": 2, "velocity": 85}, {"time": 2194, "pitch": 50, "duration": 2, "velocity": 100}, {"time": 2194, "pitch": 57, "duration": 2, "velocity": 98}, {"time": 2194, "pitch": 62, "duration": 2, "velocity": 94}, {"time": 2194, "pitch": 66, "duration": 2, "velocity": 104}, {"time": 2194, "pitch": 69, "duration": 2, "velocity": 98}, {"time": 2194, "pitch": 74, "duration": 2, "velocity": 95}, {"time": 2197, "pitch": 50, "duration": 3, "velocity": 95}, {"time": 2197, "pitch": 57, "duration": 2, "velocity": 96}, {"time": 2197, "pitch": 62, "duration": 2, "velocity": 95}, {"time": 2197, "pitch": 66, "duration": 2, "velocity": 102}, {"time": 2197, "pitch": 69, "duration": 2, "velocity": 95}, {"time": 2197, "pitch": 74, "duration": 3, "velocity": 97}, {"time": 2206, "pitch": 50, "duration": 5, "velocity": 102}, {"time": 2206, "pitch": 57, "duration": 5, "velocity": 96}, {"time": 2206, "pitch": 62, "duration": 11, "velocity": 94}, {"time": 2206, "pitch": 66, "duration": 8, "velocity": 95}, {"time": 2206, "pitch": 69, "duration": 11, "velocity": 95}, {"time": 2206, "pitch": 74, "duration": 8, "velocity": 99}, {"time": 2218, "pitch": 43, "duration": 1, "velocity": 94}, {"time": 2218, "pitch": 62, "duration": 5, "velocity": 91}, {"time": 2218, "pitch": 71, "duration": 10, "velocity": 94}, {"time": 2221, "pitch": 50, "duration": 16, "velocity": 86}, {"time": 2224, "pitch": 59, "duration": 7, "velocity": 93}, {"time": 2227, "pitch": 62, "duration": 4, "velocity": 100}, {"time": 2230, "pitch": 67, "duration": 4, "velocity": 107}, {"time": 2233, "pitch": 62, "duration": 2, "velocity": 94}, {"time": 2236, "pitch": 67, "duration": 2, "velocity": 93}, {"time": 2239, "pitch": 62, "duration": 2, "velocity": 86}, {"time": 2242, "pitch": 50, "duration": 12, "velocity": 78}, {"time": 2242, "pitch": 55, "duration": 12, "velocity": 88}, {"time": 2242, "pitch": 59, "duration": 15, "velocity": 90}, {"time": 2242, "pitch": 62, "duration": 3, "velocity": 94}, {"time": 2242, "pitch": 71, "duration": 9, "velocity": 94}, {"time": 2248, "pitch": 62, "duration": 3, "velocity": 89}, {"time": 2254, "pitch": 62, "duration": 4, "velocity": 99}, {"time": 2254, "pitch": 69, "duration": 3, "velocity": 100}, {"time": 2257, "pitch": 55, "duration": 1, "velocity": 89}, {"time": 2260, "pitch": 62, "duration": 2, "velocity": 96}, {"time": 2260, "pitch": 67, "duration": 3, "velocity": 95}, {"time": 2266, "pitch": 40, "duration": 1, "velocity": 92}, {"time": 2266, "pitch": 64, "duration": 6, "velocity": 93}, {"time": 2266, "pitch": 67, "duration": 6, "velocity": 94}, {"time": 2272, "pitch": 52, "duration": 5, "velocity": 88}, {"time": 2278, "pitch": 52, "duration": 5, "velocity": 97}, {"time": 2278, "pitch": 59, "duration": 5, "velocity": 88}, {"time": 2278, "pitch": 64, "duration": 3, "velocity": 94}, {"time": 2278, "pitch": 67, "duration": 4, "velocity": 93}, {"time": 2278, "pitch": 71, "duration": 5, "velocity": 95}, {"time": 2284, "pitch": 64, "duration": 6, "velocity": 98}, {"time": 2290, "pitch": 40, "duration": 1, "velocity": 95}, {"time": 2290, "pitch": 64, "duration": 1, "velocity": 76}, {"time": 2290, "pitch": 67, "duration": 7, "velocity": 94}, {"time": 2290, "pitch": 71, "duration": 7, "velocity": 98}, {"time": 2290, "pitch": 76, "duration": 6, "velocity": 94}, {"time": 2296, "pitch": 52, "duration": 10, "velocity": 91}, {"time": 2296, "pitch": 64, "duration": 2, "velocity": 82}, {"time": 2302, "pitch": 62, "duration": 3, "velocity": 99}, {"time": 2302, "pitch": 67, "duration": 4, "velocity": 100}, {"time": 2305, "pitch": 59, "duration": 1, "velocity": 93}, {"time": 2308, "pitch": 62, "duration": 2, "velocity": 93}, {"time": 2314, "pitch": 45, "duration": 14, "velocity": 94}, {"time": 2314, "pitch": 57, "duration": 6, "velocity": 86}, {"time": 2314, "pitch": 60, "duration": 6, "velocity": 89}, {"time": 2320, "pitch": 52, "duration": 7, "velocity": 79}, {"time": 2326, "pitch": 57, "duration": 6, "velocity": 95}, {"time": 2326, "pitch": 60, "duration": 5, "velocity": 102}, {"time": 2326, "pitch": 64, "duration": 6, "velocity": 107}, {"time": 2332, "pitch": 52, "duration": 6, "velocity": 83}, {"time": 2338, "pitch": 45, "duration": 15, "velocity": 88}, {"time": 2338, "pitch": 57, "duration": 10, "velocity": 89}, {"time": 2338, "pitch": 60, "duration": 7, "velocity": 89}, {"time": 2338, "pitch": 64, "duration": 8, "velocity": 98}, {"time": 2338, "pitch": 69, "duration": 7, "velocity": 83}, {"time": 2338, "pitch": 71, "duration": 3, "velocity": 94}, {"time": 2344, "pitch": 52, "duration": 7, "velocity": 90}, {"time": 2350, "pitch": 57, "duration": 6, "velocity": 99}, {"time": 2350, "pitch": 60, "duration": 7, "velocity": 107}, {"time": 2350, "pitch": 64, "duration": 7, "velocity": 107}, {"time": 2350, "pitch": 69, "duration": 7, "velocity": 98}, {"time": 2356, "pitch": 45, "duration": 2, "velocity": 94}, {"time": 2362, "pitch": 38, "duration": 1, "velocity": 99}, {"time": 2362, "pitch": 57, "duration": 4, "velocity": 89}, {"time": 2362, "pitch": 62, "duration": 5, "velocity": 90}, {"time": 2368, "pitch": 50, "duration": 15, "velocity": 91}, {"time": 2374, "pitch": 57, "duration": 9, "velocity": 100}, {"time": 2377, "pitch": 62, "duration": 7, "velocity": 100}, {"time": 2380, "pitch": 66, "duration": 4, "velocity": 98}, {"time": 2383, "pitch": 69, "duration": 2, "velocity": 89}, {"time": 2386, "pitch": 50, "duration": 5, "velocity": 99}, {"time": 2386, "pitch": 57, "duration": 5, "velocity": 94}, {"time": 2386, "pitch": 62, "duration": 5, "velocity": 89}, {"time": 2386, "pitch": 66, "duration": 7, "velocity": 89}, {"time": 2386, "pitch": 69, "duration": 8, "velocity": 94}, {"time": 2386, "pitch": 74, "duration": 7, "velocity": 98}, {"time": 2392, "pitch": 62, "duration": 4, "velocity": 96}, {"time": 2398, "pitch": 38, "duration": 3, "velocity": 95}, {"time": 2398, "pitch": 62, "duration": 3, "velocity": 97}, {"time": 2398, "pitch": 66, "duration": 4, "velocity": 102}, {"time": 2398, "pitch": 69, "duration": 6, "velocity": 99}, {"time": 2398, "pitch": 74, "duration": 6, "velocity": 98}, {"time": 2404, "pitch": 62, "duration": 2, "velocity": 104}, {"time": 2410, "pitch": 43, "duration": 16, "velocity": 95}, {"time": 2410, "pitch": 55, "duration": 7, "velocity": 92}, {"time": 2410, "pitch": 59, "duration": 6, "velocity": 86}, {"time": 2410, "pitch": 62, "duration": 6, "velocity": 93}, {"time": 2416, "pitch": 50, "duration": 8, "velocity": 84}, {"time": 2422, "pitch": 55, "duration": 5, "velocity": 99}, {"time": 2422, "pitch": 59, "duration": 5, "velocity": 104}, {"time": 2422, "pitch": 62, "duration": 6, "velocity": 98}, {"time": 2422, "pitch": 67, "duration": 6, "velocity": 95}, {"time": 2431, "pitch": 55, "duration": 2, "velocity": 88}, {"time": 2431, "pitch": 62, "duration": 1, "velocity": 66}, {"time": 2434, "pitch": 43, "duration": 2, "velocity": 94}, {"time": 2434, "pitch": 55, "duration": 4, "velocity": 93}, {"time": 2434, "pitch": 59, "duration": 7, "velocity": 92}, {"time": 2434, "pitch": 62, "duration": 10, "velocity": 94}, {"time": 2440, "pitch": 55, "duration": 4, "velocity": 84}, {"time": 2446, "pitch": 55, "duration": 3, "velocity": 98}, {"time": 2446, "pitch": 59, "duration": 7, "velocity": 100}, {"time": 2446, "pitch": 62, "duration": 7, "velocity": 99}, {"time": 2446, "pitch": 67, "duration": 6, "velocity": 95}, {"time": 2452, "pitch": 55, "duration": 2, "velocity": 93}, {"time": 2458, "pitch": 40, "duration": 1, "velocity": 95}, {"time": 2458, "pitch": 52, "duration": 3, "velocity": 88}, {"time": 2458, "pitch": 55, "duration": 4, "velocity": 93}, {"time": 2464, "pitch": 52, "duration": 16, "velocity": 90}, {"time": 2470, "pitch": 62, "duration": 6, "velocity": 100}, {"time": 2470, "pitch": 67, "duration": 7, "velocity": 96}, {"time": 2476, "pitch": 59, "duration": 4, "velocity": 88}, {"time": 2482, "pitch": 52, "duration": 16, "velocity": 99}, {"time": 2482, "pitch": 59, "duration": 13, "velocity": 95}, {"time": 2482, "pitch": 64, "duration": 4, "velocity": 94}, {"time": 2482, "pitch": 67, "duration": 4, "velocity": 93}, {"time": 2482, "pitch": 71, "duration": 4, "velocity": 94}, {"time": 2488, "pitch": 64, "duration": 4, "velocity": 88}, {"time": 2494, "pitch": 64, "duration": 3, "velocity": 98}, {"time": 2494, "pitch": 67, "duration": 3, "velocity": 98}, {"time": 2494, "pitch": 71, "duration": 3, "velocity": 102}, {"time": 2494, "pitch": 76, "duration": 4, "velocity": 95}, {"time": 2497, "pitch": 59, "duration": 1, "velocity": 95}, {"time": 2500, "pitch": 64, "duration": 1, "velocity": 110}, {"time": 2506, "pitch": 45, "duration": 20, "velocity": 94}, {"time": 2506, "pitch": 57, "duration": 9, "velocity": 89}, {"time": 2506, "pitch": 60, "duration": 7, "velocity": 91}, {"time": 2512, "pitch": 52, "duration": 8, "velocity": 79}, {"time": 2518, "pitch": 57, "duration": 4, "velocity": 94}, {"time": 2518, "pitch": 60, "duration": 4, "velocity": 99}, {"time": 2518, "pitch": 64, "duration": 4, "velocity": 99}, {"time": 2524, "pitch": 52, "duration": 4, "velocity": 71}, {"time": 2530, "pitch": 38, "duration": 1, "velocity": 90}, {"time": 2530, "pitch": 62, "duration": 11, "velocity": 86}, {"time": 2530, "pitch": 66, "duration": 11, "velocity": 83}, {"time": 2530, "pitch": 69, "duration": 11, "velocity": 88}, {"time": 2530, "pitch": 74, "duration": 11, "velocity": 94}, {"time": 2536, "pitch": 50, "duration": 19, "velocity": 92}, {"time": 2542, "pitch": 57, "duration": 13, "velocity": 95}, {"time": 2542, "pitch": 62, "duration": 13, "velocity": 94}, {"time": 2542, "pitch": 66, "duration": 13, "velocity": 93}, {"time": 2542, "pitch": 69, "duration": 13, "velocity": 92}, {"time": 2542, "pitch": 74, "duration": 13, "velocity": 95}, {"time": 2557, "pitch": 47, "duration": 9, "velocity": 99}, {"time": 2557, "pitch": 57, "duration": 8, "velocity": 95}, {"time": 2557, "pitch": 62, "duration": 9, "velocity": 95}, {"time": 2557, "pitch": 66, "duration": 9, "velocity": 95}, {"time": 2566, "pitch": 45, "duration": 12, "velocity": 96}, {"time": 2566, "pitch": 57, "duration": 12, "velocity": 95}, {"time": 2566, "pitch": 61, "duration": 12, "velocity": 94}, {"time": 2566, "pitch": 64, "duration": 12, "velocity": 95}, {"time": 2578, "pitch": 47, "duration": 7, "velocity": 97}, {"time": 2578, "pitch": 59, "duration": 4, "velocity": 94}, {"time": 2578, "pitch": 63, "duration": 5, "velocity": 97}, {"time": 2578, "pitch": 66, "duration": 6, "velocity": 94}, {"time": 2581, "pitch": 54, "duration": 3, "velocity": 85}, {"time": 2584, "pitch": 59, "duration": 2, "velocity": 96}, {"time": 2587, "pitch": 52, "duration": 16, "velocity": 104}, {"time": 2587, "pitch": 59, "duration": 4, "velocity": 100}, {"time": 2587, "pitch": 64, "duration": 7, "velocity": 102}, {"time": 2593, "pitch": 59, "duration": 1, "velocity": 93}, {"time": 2596, "pitch": 59, "duration": 2, "velocity": 100}, {"time": 2596, "pitch": 64, "duration": 6, "velocity": 102}, {"time": 2596, "pitch": 67, "duration": 6, "velocity": 97}, {"time": 2599, "pitch": 59, "duration": 3, "velocity": 90}, {"time": 2602, "pitch": 45, "duration": 15, "velocity": 94}, {"time": 2602, "pitch": 69, "duration": 7, "velocity": 91}, {"time": 2602, "pitch": 74, "duration": 7, "velocity": 99}, {"time": 2608, "pitch": 52, "duration": 5, "velocity": 78}, {"time": 2611, "pitch": 69, "duration": 4, "velocity": 96}, {"time": 2611, "pitch": 74, "duration": 4, "velocity": 102}, {"time": 2614, "pitch": 52, "duration": 3, "velocity": 91}, {"time": 2617, "pitch": 69, "duration": 3, "velocity": 99}, {"time": 2617, "pitch": 74, "duration": 4, "velocity": 107}, {"time": 2626, "pitch": 45, "duration": 21, "velocity": 99}, {"time": 2626, "pitch": 64, "duration": 5, "velocity": 97}, {"time": 2626, "pitch": 69, "duration": 6, "velocity": 94}, {"time": 2626, "pitch": 73, "duration": 6, "velocity": 95}, {"time": 2632, "pitch": 52, "duration": 7, "velocity": 93}, {"time": 2635, "pitch": 64, "duration": 1, "velocity": 95}, {"time": 2638, "pitch": 64, "duration": 4, "velocity": 110}, {"time": 2638, "pitch": 73, "duration": 3, "velocity": 109}, {"time": 2641, "pitch": 52, "duration": 3, "velocity": 97}, {"time": 2644, "pitch": 64, "duration": 2, "velocity": 100}, {"time": 2644, "pitch": 69, "duration": 4, "velocity": 98}, {"time": 2647, "pitch": 64, "duration": 3, "velocity": 102}, {"time": 2650, "pitch": 48, "duration": 1, "velocity": 104}, {"time": 2650, "pitch": 72, "duration": 2, "velocity": 94}, {"time": 2650, "pitch": 84, "duration": 2, "velocity": 93}, {"time": 2654, "pitch": 82, "duration": 2, "velocity": 92}, {"time": 2654, "pitch": 70, "duration": 2, "velocity": 92}, {"time": 2654, "pitch": 46, "duration": 2, "velocity": 104}, {"time": 2658, "pitch": 45, "duration": 3, "velocity": 96}, {"time": 2658, "pitch": 81, "duration": 3, "velocity": 95}, {"time": 2658, "pitch": 69, "duration": 3, "velocity": 93}, {"time": 2662, "pitch": 43, "duration": 3, "velocity": 114}, {"time": 2662, "pitch": 79, "duration": 3, "velocity": 93}, {"time": 2662, "pitch": 67, "duration": 3, "velocity": 98}, {"time": 2666, "pitch": 41, "duration": 3, "velocity": 100}, {"time": 2666, "pitch": 77, "duration": 2, "velocity": 89}, {"time": 2666, "pitch": 65, "duration": 2, "velocity": 99}, {"time": 2670, "pitch": 39, "duration": 2, "velocity": 97}, {"time": 2670, "pitch": 63, "duration": 2, "velocity": 94}, {"time": 2670, "pitch": 75, "duration": 2, "velocity": 79}, {"time": 2674, "pitch": 38, "duration": 4, "velocity": 109}, {"time": 2674, "pitch": 74, "duration": 4, "velocity": 102}, {"time": 2674, "pitch": 62, "duration": 4, "velocity": 99}, {"time": 2686, "pitch": 38, "duration": 2, "velocity": 102}, {"time": 2686, "pitch": 62, "duration": 2, "velocity": 94}, {"time": 2686, "pitch": 66, "duration": 2, "velocity": 99}, {"time": 2686, "pitch": 69, "duration": 2, "velocity": 95}, {"time": 2686, "pitch": 74, "duration": 3, "velocity": 89}, {"time": 2689, "pitch": 38, "duration": 11, "velocity": 104}, {"time": 2689, "pitch": 62, "duration": 11, "velocity": 95}, {"time": 2689, "pitch": 66, "duration": 11, "velocity": 95}, {"time": 2689, "pitch": 69, "duration": 11, "velocity": 94}, {"time": 2689, "pitch": 74, "duration": 11, "velocity": 99}, {"time": 2698, "pitch": 43, "duration": 18, "velocity": 92}, {"time": 2698, "pitch": 67, "duration": 4, "velocity": 82}, {"time": 2698, "pitch": 71, "duration": 4, "velocity": 92}, {"time": 2701, "pitch": 62, "duration": 3, "velocity": 86}, {"time": 2704, "pitch": 67, "duration": 3, "velocity": 82}, {"time": 2707, "pitch": 62, "duration": 1, "velocity": 74}, {"time": 2710, "pitch": 50, "duration": 4, "velocity": 82}, {"time": 2710, "pitch": 62, "duration": 2, "velocity": 88}, {"time": 2710, "pitch": 67, "duration": 4, "velocity": 87}, {"time": 2710, "pitch": 71, "duration": 4, "velocity": 91}, {"time": 2713, "pitch": 62, "duration": 1, "velocity": 64}, {"time": 2716, "pitch": 67, "duration": 2, "velocity": 84}, {"time": 2719, "pitch": 62, "duration": 2, "velocity": 83}, {"time": 2722, "pitch": 43, "duration": 10, "velocity": 93}, {"time": 2722, "pitch": 62, "duration": 1, "velocity": 81}, {"time": 2722, "pitch": 67, "duration": 4, "velocity": 88}, {"time": 2722, "pitch": 71, "duration": 4, "velocity": 93}, {"time": 2725, "pitch": 62, "duration": 2, "velocity": 83}, {"time": 2728, "pitch": 67, "duration": 4, "velocity": 82}, {"time": 2731, "pitch": 62, "duration": 1, "velocity": 81}, {"time": 2734, "pitch": 43, "duration": 5, "velocity": 89}, {"time": 2734, "pitch": 50, "duration": 4, "velocity": 89}, {"time": 2734, "pitch": 62, "duration": 2, "velocity": 90}, {"time": 2734, "pitch": 67, "duration": 3, "velocity": 89}, {"time": 2734, "pitch": 71, "duration": 4, "velocity": 90}, {"time": 2737, "pitch": 62, "duration": 2, "velocity": 84}, {"time": 2740, "pitch": 67, "duration": 4, "velocity": 87}, {"time": 2743, "pitch": 62, "duration": 1, "velocity": 79}, {"time": 2746, "pitch": 40, "duration": 3, "velocity": 94}, {"time": 2746, "pitch": 67, "duration": 4, "velocity": 84}, {"time": 2746, "pitch": 71, "duration": 4, "velocity": 89}, {"time": 2749, "pitch": 64, "duration": 3, "velocity": 82}, {"time": 2752, "pitch": 67, "duration": 2, "velocity": 79}, {"time": 2758, "pitch": 52, "duration": 3, "velocity": 95}, {"time": 2758, "pitch": 64, "duration": 1, "velocity": 91}, {"time": 2758, "pitch": 67, "duration": 3, "velocity": 87}, {"time": 2758, "pitch": 71, "duration": 4, "velocity": 89}, {"time": 2761, "pitch": 64, "duration": 2, "velocity": 86}, {"time": 2764, "pitch": 67, "duration": 3, "velocity": 78}, {"time": 2767, "pitch": 64, "duration": 1, "velocity": 83}, {"time": 2770, "pitch": 40, "duration": 4, "velocity": 94}, {"time": 2770, "pitch": 67, "duration": 4, "velocity": 85}, {"time": 2770, "pitch": 71, "duration": 4, "velocity": 93}, {"time": 2773, "pitch": 64, "duration": 2, "velocity": 82}, {"time": 2776, "pitch": 67, "duration": 4, "velocity": 76}, {"time": 2779, "pitch": 64, "duration": 2, "velocity": 74}, {"time": 2782, "pitch": 52, "duration": 3, "velocity": 87}, {"time": 2782, "pitch": 59, "duration": 3, "velocity": 85}, {"time": 2782, "pitch": 64, "duration": 2, "velocity": 88}, {"time": 2782, "pitch": 67, "duration": 4, "velocity": 85}, {"time": 2782, "pitch": 71, "duration": 4, "velocity": 92}, {"time": 2785, "pitch": 64, "duration": 2, "velocity": 84}, {"time": 2788, "pitch": 67, "duration": 3, "velocity": 83}, {"time": 2791, "pitch": 64, "duration": 1, "velocity": 81}, {"time": 2794, "pitch": 45, "duration": 18, "velocity": 93}, {"time": 2794, "pitch": 57, "duration": 3, "velocity": 83}, {"time": 2794, "pitch": 60, "duration": 4, "velocity": 86}, {"time": 2797, "pitch": 57, "duration": 3, "velocity": 89}, {"time": 2800, "pitch": 60, "duration": 3, "velocity": 85}, {"time": 2803, "pitch": 57, "duration": 1, "velocity": 76}, {"time": 2806, "pitch": 52, "duration": 4, "velocity": 83}, {"time": 2806, "pitch": 57, "duration": 1, "velocity": 82}, {"time": 2806, "pitch": 60, "duration": 4, "velocity": 86}, {"time": 2806, "pitch": 64, "duration": 4, "velocity": 94}, {"time": 2809, "pitch": 57, "duration": 2, "velocity": 80}, {"time": 2812, "pitch": 60, "duration": 4, "velocity": 81}, {"time": 2815, "pitch": 57, "duration": 2, "velocity": 82}, {"time": 2818, "pitch": 45, "duration": 11, "velocity": 93}, {"time": 2818, "pitch": 57, "duration": 2, "velocity": 87}, {"time": 2818, "pitch": 60, "duration": 4, "velocity": 88}, {"time": 2821, "pitch": 57, "duration": 2, "velocity": 84}, {"time": 2824, "pitch": 60, "duration": 3, "velocity": 87}, {"time": 2827, "pitch": 57, "duration": 1, "velocity": 78}, {"time": 2830, "pitch": 45, "duration": 2, "velocity": 69}, {"time": 2830, "pitch": 52, "duration": 2, "velocity": 93}, {"time": 2830, "pitch": 57, "duration": 2, "velocity": 89}, {"time": 2830, "pitch": 60, "duration": 4, "velocity": 93}, {"time": 2830, "pitch": 64, "duration": 4, "velocity": 97}, {"time": 2833, "pitch": 57, "duration": 3, "velocity": 81}, {"time": 2836, "pitch": 60, "duration": 2, "velocity": 84}, {"time": 2842, "pitch": 38, "duration": 2, "velocity": 97}, {"time": 2842, "pitch": 62, "duration": 2, "velocity": 93}, {"time": 2842, "pitch": 66, "duration": 3, "velocity": 94}, {"time": 2845, "pitch": 62, "duration": 2, "velocity": 82}, {"time": 2848, "pitch": 69, "duration": 3, "velocity": 88}, {"time": 2851, "pitch": 62, "duration": 2, "velocity": 80}, {"time": 2854, "pitch": 50, "duration": 9, "velocity": 93}, {"time": 2854, "pitch": 57, "duration": 9, "velocity": 88}, {"time": 2854, "pitch": 62, "duration": 2, "velocity": 86}, {"time": 2854, "pitch": 66, "duration": 4, "velocity": 91}, {"time": 2854, "pitch": 74, "duration": 4, "velocity": 97}, {"time": 2857, "pitch": 62, "duration": 2, "velocity": 82}, {"time": 2860, "pitch": 66, "duration": 3, "velocity": 85}, {"time": 2863, "pitch": 62, "duration": 2, "velocity": 89}, {"time": 2866, "pitch": 50, "duration": 11, "velocity": 94}, {"time": 2866, "pitch": 57, "duration": 10, "velocity": 85}, {"time": 2866, "pitch": 62, "duration": 2, "velocity": 85}, {"time": 2866, "pitch": 66, "duration": 3, "velocity": 81}, {"time": 2866, "pitch": 69, "duration": 4, "velocity": 85}, {"time": 2869, "pitch": 62, "duration": 2, "velocity": 80}, {"time": 2872, "pitch": 66, "duration": 2, "velocity": 93}, {"time": 2875, "pitch": 62, "duration": 2, "velocity": 94}, {"time": 2875, "pitch": 69, "duration": 1, "velocity": 76}, {"time": 2878, "pitch": 50, "duration": 2, "velocity": 96}, {"time": 2878, "pitch": 57, "duration": 2, "velocity": 93}, {"time": 2878, "pitch": 62, "duration": 1, "velocity": 84}, {"time": 2878, "pitch": 66, "duration": 3, "velocity": 99}, {"time": 2878, "pitch": 69, "duration": 4, "velocity": 96}, {"time": 2878, "pitch": 74, "duration": 3, "velocity": 98}, {"time": 2881, "pitch": 62, "duration": 2, "velocity": 93}, {"time": 2884, "pitch": 66, "duration": 2, "velocity": 83}, {"time": 2887, "pitch": 62, "duration": 1, "velocity": 73}, {"time": 2890, "pitch": 43, "duration": 11, "velocity": 94}, {"time": 2890, "pitch": 62, "duration": 2, "velocity": 87}, {"time": 2890, "pitch": 67, "duration": 4, "velocity": 89}, {"time": 2893, "pitch": 62, "duration": 3, "velocity": 87}, {"time": 2896, "pitch": 67, "duration": 3, "velocity": 82}, {"time": 2899, "pitch": 62, "duration": 1, "velocity": 74}, {"time": 2902, "pitch": 43, "duration": 10, "velocity": 89}, {"time": 2902, "pitch": 50, "duration": 9, "velocity": 91}, {"time": 2902, "pitch": 62, "duration": 2, "velocity": 94}, {"time": 2902, "pitch": 67, "duration": 4, "velocity": 93}, {"time": 2902, "pitch": 71, "duration": 4, "velocity": 89}, {"time": 2905, "pitch": 62, "duration": 2, "velocity": 90}, {"time": 2908, "pitch": 67, "duration": 4, "velocity": 92}, {"time": 2911, "pitch": 62, "duration": 2, "velocity": 92}, {"time": 2914, "pitch": 43, "duration": 10, "velocity": 92}, {"time": 2914, "pitch": 62, "duration": 2, "velocity": 89}, {"time": 2914, "pitch": 67, "duration": 4, "velocity": 85}, {"time": 2917, "pitch": 62, "duration": 2, "velocity": 76}, {"time": 2920, "pitch": 67, "duration": 3, "velocity": 82}, {"time": 2923, "pitch": 62, "duration": 1, "velocity": 80}, {"time": 2926, "pitch": 43, "duration": 5, "velocity": 93}, {"time": 2926, "pitch": 50, "duration": 4, "velocity": 91}, {"time": 2926, "pitch": 62, "duration": 2, "velocity": 88}, {"time": 2926, "pitch": 67, "duration": 4, "velocity": 89}, {"time": 2926, "pitch": 71, "duration": 4, "velocity": 91}, {"time": 2929, "pitch": 62, "duration": 2, "velocity": 85}, {"time": 2932, "pitch": 67, "duration": 4, "velocity": 83}, {"time": 2935, "pitch": 62, "duration": 1, "velocity": 82}, {"time": 2938, "pitch": 40, "duration": 13, "velocity": 93}, {"time": 2938, "pitch": 64, "duration": 2, "velocity": 92}, {"time": 2938, "pitch": 67, "duration": 4, "velocity": 87}, {"time": 2941, "pitch": 64, "duration": 2, "velocity": 86}, {"time": 2944, "pitch": 67, "duration": 2, "velocity": 81}, {"time": 2947, "pitch": 64, "duration": 1, "velocity": 79}, {"time": 2950, "pitch": 64, "duration": 2, "velocity": 94}, {"time": 2950, "pitch": 67, "duration": 3, "velocity": 93}, {"time": 2950, "pitch": 71, "duration": 4, "velocity": 95}, {"time": 2953, "pitch": 64, "duration": 2, "velocity": 94}, {"time": 2956, "pitch": 67, "duration": 4, "velocity": 91}, {"time": 2959, "pitch": 64, "duration": 2, "velocity": 93}, {"time": 2962, "pitch": 40, "duration": 11, "velocity": 94}, {"time": 2962, "pitch": 64, "duration": 2, "velocity": 89}, {"time": 2962, "pitch": 67, "duration": 3, "velocity": 85}, {"time": 2965, "pitch": 64, "duration": 2, "velocity": 91}, {"time": 2968, "pitch": 67, "duration": 4, "velocity": 81}, {"time": 2971, "pitch": 64, "duration": 2, "velocity": 88}, {"time": 2974, "pitch": 40, "duration": 5, "velocity": 90}, {"time": 2974, "pitch": 47, "duration": 5, "velocity": 92}, {"time": 2974, "pitch": 64, "duration": 2, "velocity": 94}, {"time": 2974, "pitch": 67, "duration": 3, "velocity": 93}, {"time": 2974, "pitch": 71, "duration": 4, "velocity": 94}, {"time": 2977, "pitch": 64, "duration": 2, "velocity": 88}, {"time": 2980, "pitch": 67, "duration": 3, "velocity": 87}, {"time": 2983, "pitch": 64, "duration": 1, "velocity": 89}, {"time": 2986, "pitch": 45, "duration": 11, "velocity": 93}, {"time": 2986, "pitch": 57, "duration": 2, "velocity": 94}, {"time": 2986, "pitch": 60, "duration": 4, "velocity": 95}, {"time": 2989, "pitch": 57, "duration": 2, "velocity": 86}, {"time": 2992, "pitch": 60, "duration": 4, "velocity": 89}, {"time": 2995, "pitch": 57, "duration": 1, "velocity": 83}, {"time": 2998, "pitch": 45, "duration": 4, "velocity": 82}, {"time": 2998, "pitch": 52, "duration": 3, "velocity": 89}, {"time": 2998, "pitch": 57, "duration": 1, "velocity": 83}, {"time": 2998, "pitch": 60, "duration": 2, "velocity": 86}, {"time": 2998, "pitch": 64, "duration": 3, "velocity": 91}, {"time": 3001, "pitch": 57, "duration": 2, "velocity": 84}, {"time": 3004, "pitch": 60, "duration": 4, "velocity": 82}, {"time": 3007, "pitch": 57, "duration": 2, "velocity": 82}, {"time": 3010, "pitch": 38, "duration": 1, "velocity": 92}, {"time": 3010, "pitch": 62, "duration": 9, "velocity": 86}, {"time": 3010, "pitch": 66, "duration": 10, "velocity": 80}, {"time": 3010, "pitch": 69, "duration": 11, "velocity": 87}, {"time": 3016, "pitch": 50, "duration": 17, "velocity": 89}, {"time": 3019, "pitch": 57, "duration": 14, "velocity": 59}, {"time": 3022, "pitch": 62, "duration": 7, "velocity": 89}, {"time": 3025, "pitch": 66, "duration": 6, "velocity": 85}, {"time": 3028, "pitch": 74, "duration": 5, "velocity": 89}, {"time": 3035, "pitch": 67, "duration": 7, "velocity": 84}, {"time": 3035, "pitch": 55, "duration": 46, "velocity": 92}, {"time": 3035, "pitch": 62, "duration": 7, "velocity": 89}, {"time": 3046, "pitch": 71, "duration": 10, "velocity": 89}, {"time": 3046, "pitch": 62, "duration": 2, "velocity": 82}, {"time": 3052, "pitch": 62, "duration": 3, "velocity": 77}, {"time": 3057, "pitch": 69, "duration": 8, "velocity": 82}, {"time": 3058, "pitch": 62, "duration": 4, "velocity": 85}, {"time": 3069, "pitch": 67, "duration": 12, "velocity": 80}, {"time": 3069, "pitch": 62, "duration": 4, "velocity": 81}, {"time": 3076, "pitch": 62, "duration": 5, "velocity": 76}, {"time": 3081, "pitch": 67, "duration": 1, "velocity": 81}, {"time": 3081, "pitch": 71, "duration": 8, "velocity": 88}, {"time": 3082, "pitch": 43, "duration": 21, "velocity": 91}, {"time": 3082, "pitch": 74, "duration": 7, "velocity": 87}, {"time": 3088, "pitch": 50, "duration": 11, "velocity": 73}, {"time": 3091, "pitch": 67, "duration": 3, "velocity": 80}, {"time": 3094, "pitch": 69, "duration": 3, "velocity": 92}, {"time": 3096, "pitch": 71, "duration": 3, "velocity": 95}, {"time": 3100, "pitch": 74, "duration": 3, "velocity": 94}, {"time": 3103, "pitch": 67, "duration": 1, "velocity": 68}, {"time": 3106, "pitch": 74, "duration": 12, "velocity": 94}, {"time": 3106, "pitch": 36, "duration": 1, "velocity": 83}, {"time": 3106, "pitch": 67, "duration": 6, "velocity": 83}, {"time": 3118, "pitch": 72, "duration": 12, "velocity": 82}, {"time": 3118, "pitch": 50, "duration": 3, "velocity": 89}, {"time": 3118, "pitch": 69, "duration": 3, "velocity": 69}, {"time": 3130, "pitch": 62, "duration": 17, "velocity": 81}, {"time": 3130, "pitch": 67, "duration": 20, "velocity": 69}, {"time": 3130, "pitch": 43, "duration": 42, "velocity": 70}, {"time": 3130, "pitch": 71, "duration": 20, "velocity": 83}, {"time": 3154, "pitch": 62, "duration": 13, "velocity": 78}, {"time": 3154, "pitch": 67, "duration": 10, "velocity": 80}, {"time": 3166, "pitch": 67, "duration": 10, "velocity": 82}, {"time": 3166, "pitch": 71, "duration": 10, "velocity": 87}, {"time": 3178, "pitch": 64, "duration": 35, "velocity": 81}, {"time": 3178, "pitch": 67, "duration": 33, "velocity": 76}, {"time": 3178, "pitch": 40, "duration": 2, "velocity": 85}, {"time": 3178, "pitch": 71, "duration": 39, "velocity": 86}, {"time": 3214, "pitch": 52, "duration": 4, "velocity": 88}, {"time": 3217, "pitch": 59, "duration": 2, "velocity": 88}, {"time": 3220, "pitch": 66, "duration": 2, "velocity": 97}, {"time": 3222, "pitch": 67, "duration": 2, "velocity": 91}, {"time": 3226, "pitch": 48, "duration": 28, "velocity": 93}, {"time": 3226, "pitch": 64, "duration": 12, "velocity": 88}, {"time": 3226, "pitch": 60, "duration": 13, "velocity": 85}, {"time": 3248, "pitch": 72, "duration": 38, "velocity": 57}, {"time": 3248, "pitch": 67, "duration": 29, "velocity": 76}, {"time": 3249, "pitch": 64, "duration": 27, "velocity": 85}, {"time": 3250, "pitch": 60, "duration": 24, "velocity": 68}, {"time": 3250, "pitch": 59, "duration": 3, "velocity": 71}, {"time": 3274, "pitch": 38, "duration": 2, "velocity": 81}, {"time": 3280, "pitch": 50, "duration": 10, "velocity": 82}, {"time": 3286, "pitch": 57, "duration": 5, "velocity": 87}, {"time": 3292, "pitch": 62, "duration": 31, "velocity": 95}, {"time": 3298, "pitch": 66, "duration": 25, "velocity": 81}, {"time": 3298, "pitch": 69, "duration": 26, "velocity": 81}, {"time": 3332, "pitch": 43, "duration": 23, "velocity": 93}, {"time": 3335, "pitch": 50, "duration": 18, "velocity": 77}, {"time": 3338, "pitch": 55, "duration": 4, "velocity": 85}, {"time": 3341, "pitch": 57, "duration": 3, "velocity": 87}, {"time": 3345, "pitch": 59, "duration": 2, "velocity": 93}, {"time": 3348, "pitch": 62, "duration": 3, "velocity": 94}, {"time": 3348, "pitch": 59, "duration": 1, "velocity": 73}, {"time": 3357, "pitch": 43, "duration": 18, "velocity": 85}, {"time": 3357, "pitch": 67, "duration": 4, "velocity": 81}, {"time": 3357, "pitch": 62, "duration": 3, "velocity": 80}, {"time": 3357, "pitch": 59, "duration": 3, "velocity": 80}, {"time": 3369, "pitch": 71, "duration": 3, "velocity": 91}, {"time": 3369, "pitch": 67, "duration": 3, "velocity": 86}, {"time": 3382, "pitch": 67, "duration": 9, "velocity": 84}, {"time": 3382, "pitch": 40, "duration": 1, "velocity": 86}, {"time": 3382, "pitch": 64, "duration": 8, "velocity": 83}, {"time": 3388, "pitch": 52, "duration": 32, "velocity": 77}, {"time": 3391, "pitch": 59, "duration": 7, "velocity": 79}, {"time": 3394, "pitch": 62, "duration": 4, "velocity": 89}, {"time": 3397, "pitch": 67, "duration": 4, "velocity": 104}, {"time": 3400, "pitch": 59, "duration": 19, "velocity": 74}, {"time": 3403, "pitch": 62, "duration": 2, "velocity": 71}, {"time": 3406, "pitch": 71, "duration": 5, "velocity": 87}, {"time": 3407, "pitch": 62, "duration": 3, "velocity": 80}, {"time": 3419, "pitch": 67, "duration": 1, "velocity": 93}, {"time": 3419, "pitch": 62, "duration": 1, "velocity": 93}, {"time": 3429, "pitch": 67, "duration": 5, "velocity": 82}, {"time": 3430, "pitch": 64, "duration": 3, "velocity": 91}, {"time": 3431, "pitch": 48, "duration": 38, "velocity": 94}, {"time": 3431, "pitch": 60, "duration": 3, "velocity": 81}, {"time": 3434, "pitch": 55, "duration": 10, "velocity": 81}, {"time": 3437, "pitch": 62, "duration": 3, "velocity": 79}, {"time": 3440, "pitch": 64, "duration": 2, "velocity": 91}, {"time": 3442, "pitch": 67, "duration": 4, "velocity": 94}, {"time": 3445, "pitch": 55, "duration": 12, "velocity": 84}, {"time": 3448, "pitch": 60, "duration": 4, "velocity": 81}, {"time": 3451, "pitch": 67, "duration": 2, "velocity": 83}, {"time": 3455, "pitch": 67, "duration": 6, "velocity": 82}, {"time": 3455, "pitch": 60, "duration": 5, "velocity": 80}, {"time": 3460, "pitch": 55, "duration": 6, "velocity": 53}, {"time": 3466, "pitch": 67, "duration": 2, "velocity": 91}, {"time": 3467, "pitch": 60, "duration": 1, "velocity": 95}, {"time": 3476, "pitch": 74, "duration": 11, "velocity": 94}, {"time": 3477, "pitch": 69, "duration": 15, "velocity": 78}, {"time": 3478, "pitch": 66, "duration": 8, "velocity": 80}, {"time": 3478, "pitch": 62, "duration": 10, "velocity": 86}, {"time": 3479, "pitch": 38, "duration": 1, "velocity": 96}, {"time": 3485, "pitch": 50, "duration": 47, "velocity": 70}, {"time": 3488, "pitch": 57, "duration": 21, "velocity": 84}, {"time": 3491, "pitch": 62, "duration": 3, "velocity": 93}, {"time": 3494, "pitch": 66, "duration": 2, "velocity": 93}, {"time": 3498, "pitch": 67, "duration": 2, "velocity": 100}, {"time": 3501, "pitch": 69, "duration": 4, "velocity": 102}, {"time": 3505, "pitch": 74, "duration": 5, "velocity": 93}, {"time": 3509, "pitch": 69, "duration": 3, "velocity": 77}, {"time": 3514, "pitch": 78, "duration": 3, "velocity": 76}, {"time": 3514, "pitch": 69, "duration": 3, "velocity": 81}, {"time": 3523, "pitch": 74, "duration": 2, "velocity": 75}, {"time": 3526, "pitch": 86, "duration": 1, "velocity": 98}, {"time": 3539, "pitch": 74, "duration": 3, "velocity": 73}, {"time": 3540, "pitch": 79, "duration": 2, "velocity": 74}, {"time": 3540, "pitch": 43, "duration": 2, "velocity": 77}, {"time": 3542, "pitch": 83, "duration": 6, "velocity": 85}, {"time": 3548, "pitch": 55, "duration": 31, "velocity": 40}, {"time": 3550, "pitch": 62, "duration": 26, "velocity": 72}, {"time": 3553, "pitch": 78, "duration": 2, "velocity": 76}, {"time": 3555, "pitch": 81, "duration": 2, "velocity": 78}, {"time": 3557, "pitch": 76, "duration": 2, "velocity": 88}, {"time": 3559, "pitch": 78, "duration": 2, "velocity": 104}, {"time": 3562, "pitch": 74, "duration": 2, "velocity": 92}, {"time": 3567, "pitch": 71, "duration": 3, "velocity": 81}, {"time": 3570, "pitch": 74, "duration": 3, "velocity": 77}, {"time": 3574, "pitch": 69, "duration": 2, "velocity": 74}, {"time": 3578, "pitch": 66, "duration": 3, "velocity": 75}, {"time": 3583, "pitch": 62, "duration": 4, "velocity": 71}], "annotations": [{"time": 27, "annotation": {"number": 64, "value": 127}, "group": "control_change"}, {"time": 132, "annotation": {"number": 64, "value": 0}, "group": "control_change"}, {"time": 132, "annotation": {"number": 64, "value": 127}, "group": "control_change"}, {"time": 193, "annotation": {"number": 64, "value": 0}, "group": "control_change"}, {"time": 198, "annotation": {"number": 64, "value": 127}, "group": "control_change"}, {"time": 228, "annotation": {"number": 64, "value": 0}, "group": "control_change"}, {"time": 230, "annotation": {"number": 64, "value": 127}, "group": "control_change"}, {"time": 295, "annotation": {"number": 64, "value": 0}, "group": "control_change"}, {"time": 298, "annotation": {"number": 64, "value": 127}, "group": "control_change"}, {"time": 346, "annotation": {"number": 64, "value": 0}, "group": "control_change"}, {"time": 348, "annotation": {"number": 64, "value": 127}, "group": "control_change"}, {"time": 393, "annotation": {"number": 64, "value": 0}, "group": "control_change"}, {"time": 394, "annotation": {"number": 64, "value": 127}, "group": "control_change"}, {"time": 410, "annotation": {"number": 64, "value": 0}, "group": "control_change"}, {"time": 410, "annotation": {"number": 64, "value": 127}, "group": "control_change"}, {"time": 440, "annotation": {"number": 64, "value": 0}, "group": "control_change"}, {"time": 441, "annotation": {"number": 64, "value": 127}, "group": "control_change"}, {"time": 487, "annotation": {"number": 64, "value": 0}, "group": "control_change"}, {"time": 536, "annotation": {"number": 64, "value": 0}, "group": "control_change"}, {"time": 538, "annotation": {"number": 64, "value": 127}, "group": "control_change"}, {"time": 586, "annotation": {"number": 64, "value": 0}, "group": "control_change"}, {"time": 591, "annotation": {"number": 64, "value": 127}, "group": "control_change"}, {"time": 633, "annotation": {"number": 64, "value": 0}, "group": "control_change"}, {"time": 635, "annotation": {"number": 64, "value": 127}, "group": "control_change"}, {"time": 681, "annotation": {"number": 64, "value": 0}, "group": "control_change"}, {"time": 682, "annotation": {"number": 64, "value": 127}, "group": "control_change"}, {"time": 728, "annotation": {"number": 64, "value": 0}, "group": "control_change"}, {"time": 730, "annotation": {"number": 64, "value": 127}, "group": "control_change"}, {"time": 778, "annotation": {"number": 64, "value": 0}, "group": "control_change"}, {"time": 783, "annotation": {"number": 64, "value": 127}, "group": "control_change"}, {"time": 826, "annotation": {"number": 64, "value": 0}, "group": "control_change"}, {"time": 829, "annotation": {"number": 64, "value": 127}, "group": "control_change"}, {"time": 872, "annotation": {"number": 64, "value": 0}, "group": "control_change"}, {"time": 874, "annotation": {"number": 64, "value": 127}, "group": "control_change"}, {"time": 921, "annotation": {"number": 64, "value": 0}, "group": "control_change"}, {"time": 922, "annotation": {"number": 64, "value": 127}, "group": "control_change"}, {"time": 969, "annotation": {"number": 64, "value": 0}, "group": "control_change"}, {"time": 971, "annotation": {"number": 64, "value": 127}, "group": "control_change"}, {"time": 1016, "annotation": {"number": 64, "value": 0}, "group": "control_change"}, {"time": 1018, "annotation": {"number": 64, "value": 127}, "group": "control_change"}, {"time": 1041, "annotation": {"number": 64, "value": 0}, "group": "control_change"}, {"time": 1042, "annotation": {"number": 64, "value": 127}, "group": "control_change"}, {"time": 1065, "annotation": {"number": 64, "value": 0}, "group": "control_change"}, {"time": 1066, "annotation": {"number": 64, "value": 127}, "group": "control_change"}, {"time": 1114, "annotation": {"number": 64, "value": 0}, "group": "control_change"}, {"time": 1114, "annotation": {"number": 64, "value": 127}, "group": "control_change"}, {"time": 1143, "annotation": {"number": 64, "value": 0}, "group": "control_change"}, {"time": 1144, "annotation": {"number": 64, "value": 127}, "group": "control_change"}, {"time": 1161, "annotation": {"number": 64, "value": 0}, "group": "control_change"}, {"time": 1163, "annotation": {"number": 64, "value": 127}, "group": "control_change"}, {"time": 1208, "annotation": {"number": 64, "value": 0}, "group": "control_change"}, {"time": 1210, "annotation": {"number": 64, "value": 127}, "group": "control_change"}, {"time": 1234, "annotation": {"number": 64, "value": 0}, "group": "control_change"}, {"time": 1235, "annotation": {"number": 64, "value": 127}, "group": "control_change"}, {"time": 1258, "annotation": {"number": 64, "value": 0}, "group": "control_change"}, {"time": 1259, "annotation": {"number": 64, "value": 127}, "group": "control_change"}, {"time": 1281, "annotation": {"number": 64, "value": 0}, "group": "control_change"}, {"time": 1283, "annotation": {"number": 64, "value": 127}, "group": "control_change"}, {"time": 1307, "annotation": {"number": 64, "value": 0}, "group": "control_change"}, {"time": 1312, "annotation": {"number": 64, "value": 127}, "group": "control_change"}, {"time": 1354, "annotation": {"number": 64, "value": 0}, "group": "control_change"}, {"time": 1356, "annotation": {"number": 64, "value": 127}, "group": "control_change"}, {"time": 1377, "annotation": {"number": 64, "value": 0}, "group": "control_change"}, {"time": 1378, "annotation": {"number": 64, "value": 127}, "group": "control_change"}, {"time": 1401, "annotation": {"number": 64, "value": 0}, "group": "control_change"}, {"time": 1402, "annotation": {"number": 64, "value": 127}, "group": "control_change"}, {"time": 1424, "annotation": {"number": 64, "value": 0}, "group": "control_change"}, {"time": 1425, "annotation": {"number": 64, "value": 127}, "group": "control_change"}, {"time": 1447, "annotation": {"number": 64, "value": 0}, "group": "control_change"}, {"time": 1474, "annotation": {"number": 64, "value": 0}, "group": "control_change"}, {"time": 1474, "annotation": {"number": 64, "value": 127}, "group": "control_change"}, {"time": 1498, "annotation": {"number": 64, "value": 0}, "group": "control_change"}, {"time": 1501, "annotation": {"number": 64, "value": 127}, "group": "control_change"}, {"time": 1522, "annotation": {"number": 64, "value": 0}, "group": "control_change"}, {"time": 1524, "annotation": {"number": 64, "value": 127}, "group": "control_change"}, {"time": 1546, "annotation": {"number": 64, "value": 0}, "group": "control_change"}, {"time": 1549, "annotation": {"number": 64, "value": 127}, "group": "control_change"}, {"time": 1570, "annotation": {"number": 64, "value": 127}, "group": "control_change"}, {"time": 1592, "annotation": {"number": 64, "value": 0}, "group": "control_change"}, {"time": 1595, "annotation": {"number": 64, "value": 127}, "group": "control_change"}, {"time": 1616, "annotation": {"number": 64, "value": 0}, "group": "control_change"}, {"time": 1618, "annotation": {"number": 64, "value": 127}, "group": "control_change"}, {"time": 1641, "annotation": {"number": 64, "value": 0}, "group": "control_change"}, {"time": 1643, "annotation": {"number": 64, "value": 127}, "group": "control_change"}, {"time": 1690, "annotation": {"number": 64, "value": 0}, "group": "control_change"}, {"time": 1692, "annotation": {"number": 64, "value": 127}, "group": "control_change"}, {"time": 1714, "annotation": {"number": 64, "value": 0}, "group": "control_change"}, {"time": 1715, "annotation": {"number": 64, "value": 127}, "group": "control_change"}, {"time": 1737, "annotation": {"number": 64, "value": 0}, "group": "control_change"}, {"time": 1738, "annotation": {"number": 64, "value": 127}, "group": "control_change"}, {"time": 1749, "annotation": {"number": 64, "value": 0}, "group": "control_change"}, {"time": 1750, "annotation": {"number": 64, "value": 127}, "group": "control_change"}, {"time": 1761, "annotation": {"number": 64, "value": 0}, "group": "control_change"}, {"time": 1763, "annotation": {"number": 64, "value": 127}, "group": "control_change"}, {"time": 1773, "annotation": {"number": 64, "value": 0}, "group": "control_change"}, {"time": 1774, "annotation": {"number": 64, "value": 127}, "group": "control_change"}, {"time": 1785, "annotation": {"number": 64, "value": 0}, "group": "control_change"}, {"time": 1786, "annotation": {"number": 64, "value": 127}, "group": "control_change"}, {"time": 1831, "annotation": {"number": 64, "value": 0}, "group": "control_change"}, {"time": 1834, "annotation": {"number": 64, "value": 127}, "group": "control_change"}, {"time": 1857, "annotation": {"number": 64, "value": 0}, "group": "control_change"}, {"time": 1858, "annotation": {"number": 64, "value": 127}, "group": "control_change"}, {"time": 1882, "annotation": {"number": 64, "value": 0}, "group": "control_change"}, {"time": 1883, "annotation": {"number": 64, "value": 127}, "group": "control_change"}, {"time": 1905, "annotation": {"number": 64, "value": 0}, "group": "control_change"}, {"time": 1909, "annotation": {"number": 64, "value": 127}, "group": "control_change"}, {"time": 1931, "annotation": {"number": 64, "value": 0}, "group": "control_change"}, {"time": 1935, "annotation": {"number": 64, "value": 127}, "group": "control_change"}, {"time": 1976, "annotation": {"number": 64, "value": 0}, "group": "control_change"}, {"time": 1978, "annotation": {"number": 64, "value": 127}, "group": "control_change"}, {"time": 2002, "annotation": {"number": 64, "value": 0}, "group": "control_change"}, {"time": 2003, "annotation": {"number": 64, "value": 127}, "group": "control_change"}, {"time": 2026, "annotation": {"number": 64, "value": 0}, "group": "control_change"}, {"time": 2029, "annotation": {"number": 64, "value": 127}, "group": "control_change"}, {"time": 2049, "annotation": {"number": 64, "value": 0}, "group": "control_change"}, {"time": 2050, "annotation": {"number": 64, "value": 127}, "group": "control_change"}, {"time": 2072, "annotation": {"number": 64, "value": 0}, "group": "control_change"}, {"time": 2074, "annotation": {"number": 64, "value": 127}, "group": "control_change"}, {"time": 2110, "annotation": {"number": 64, "value": 0}, "group": "control_change"}, {"time": 2111, "annotation": {"number": 64, "value": 127}, "group": "control_change"}, {"time": 2122, "annotation": {"number": 64, "value": 0}, "group": "control_change"}, {"time": 2124, "annotation": {"number": 64, "value": 127}, "group": "control_change"}, {"time": 2145, "annotation": {"number": 64, "value": 0}, "group": "control_change"}, {"time": 2147, "annotation": {"number": 64, "value": 127}, "group": "control_change"}, {"time": 2168, "annotation": {"number": 64, "value": 0}, "group": "control_change"}, {"time": 2169, "annotation": {"number": 64, "value": 127}, "group": "control_change"}, {"time": 2193, "annotation": {"number": 64, "value": 0}, "group": "control_change"}, {"time": 2207, "annotation": {"number": 64, "value": 127}, "group": "control_change"}, {"time": 2218, "annotation": {"number": 64, "value": 0}, "group": "control_change"}, {"time": 2218, "annotation": {"number": 64, "value": 127}, "group": "control_change"}, {"time": 2242, "annotation": {"number": 64, "value": 0}, "group": "control_change"}, {"time": 2243, "annotation": {"number": 64, "value": 127}, "group": "control_change"}, {"time": 2264, "annotation": {"number": 64, "value": 0}, "group": "control_change"}, {"time": 2266, "annotation": {"number": 64, "value": 127}, "group": "control_change"}, {"time": 2289, "annotation": {"number": 64, "value": 0}, "group": "control_change"}, {"time": 2290, "annotation": {"number": 64, "value": 127}, "group": "control_change"}, {"time": 2314, "annotation": {"number": 64, "value": 0}, "group": "control_change"}, {"time": 2318, "annotation": {"number": 64, "value": 127}, "group": "control_change"}, {"time": 2337, "annotation": {"number": 64, "value": 0}, "group": "control_change"}, {"time": 2339, "annotation": {"number": 64, "value": 127}, "group": "control_change"}, {"time": 2361, "annotation": {"number": 64, "value": 0}, "group": "control_change"}, {"time": 2362, "annotation": {"number": 64, "value": 127}, "group": "control_change"}, {"time": 2386, "annotation": {"number": 64, "value": 0}, "group": "control_change"}, {"time": 2387, "annotation": {"number": 64, "value": 127}, "group": "control_change"}, {"time": 2397, "annotation": {"number": 64, "value": 0}, "group": "control_change"}, {"time": 2398, "annotation": {"number": 64, "value": 127}, "group": "control_change"}, {"time": 2409, "annotation": {"number": 64, "value": 0}, "group": "control_change"}, {"time": 2414, "annotation": {"number": 64, "value": 127}, "group": "control_change"}, {"time": 2434, "annotation": {"number": 64, "value": 0}, "group": "control_change"}, {"time": 2435, "annotation": {"number": 64, "value": 127}, "group": "control_change"}, {"time": 2457, "annotation": {"number": 64, "value": 0}, "group": "control_change"}, {"time": 2459, "annotation": {"number": 64, "value": 127}, "group": "control_change"}, {"time": 2481, "annotation": {"number": 64, "value": 0}, "group": "control_change"}, {"time": 2483, "annotation": {"number": 64, "value": 127}, "group": "control_change"}, {"time": 2505, "annotation": {"number": 64, "value": 0}, "group": "control_change"}, {"time": 2511, "annotation": {"number": 64, "value": 127}, "group": "control_change"}, {"time": 2530, "annotation": {"number": 64, "value": 127}, "group": "control_change"}, {"time": 2554, "annotation": {"number": 64, "value": 0}, "group": "control_change"}, {"time": 2579, "annotation": {"number": 64, "value": 127}, "group": "control_change"}, {"time": 2587, "annotation": {"number": 64, "value": 0}, "group": "control_change"}, {"time": 2588, "annotation": {"number": 64, "value": 127}, "group": "control_change"}, {"time": 2602, "annotation": {"number": 64, "value": 0}, "group": "control_change"}, {"time": 2603, "annotation": {"number": 64, "value": 127}, "group": "control_change"}, {"time": 2626, "annotation": {"number": 64, "value": 0}, "group": "control_change"}, {"time": 2627, "annotation": {"number": 64, "value": 127}, "group": "control_change"}, {"time": 2649, "annotation": {"number": 64, "value": 0}, "group": "control_change"}, {"time": 2650, "annotation": {"number": 64, "value": 127}, "group": "control_change"}, {"time": 2657, "annotation": {"number": 64, "value": 0}, "group": "control_change"}, {"time": 2666, "annotation": {"number": 64, "value": 127}, "group": "control_change"}, {"time": 2672, "annotation": {"number": 64, "value": 0}, "group": "control_change"}, {"time": 2686, "annotation": {"number": 64, "value": 127}, "group": "control_change"}, {"time": 2698, "annotation": {"number": 64, "value": 0}, "group": "control_change"}, {"time": 2700, "annotation": {"number": 64, "value": 127}, "group": "control_change"}, {"time": 2723, "annotation": {"number": 64, "value": 0}, "group": "control_change"}, {"time": 2723, "annotation": {"number": 64, "value": 127}, "group": "control_change"}, {"time": 2735, "annotation": {"number": 64, "value": 0}, "group": "control_change"}, {"time": 2735, "annotation": {"number": 64, "value": 127}, "group": "control_change"}, {"time": 2745, "annotation": {"number": 64, "value": 0}, "group": "control_change"}, {"time": 2747, "annotation": {"number": 64, "value": 127}, "group": "control_change"}, {"time": 2759, "annotation": {"number": 64, "value": 0}, "group": "control_change"}, {"time": 2759, "annotation": {"number": 64, "value": 127}, "group": "control_change"}, {"time": 2769, "annotation": {"number": 64, "value": 0}, "group": "control_change"}, {"time": 2771, "annotation": {"number": 64, "value": 127}, "group": "control_change"}, {"time": 2782, "annotation": {"number": 64, "value": 0}, "group": "control_change"}, {"time": 2783, "annotation": {"number": 64, "value": 127}, "group": "control_change"}, {"time": 2795, "annotation": {"number": 64, "value": 0}, "group": "control_change"}, {"time": 2799, "annotation": {"number": 64, "value": 127}, "group": "control_change"}, {"time": 2817, "annotation": {"number": 64, "value": 0}, "group": "control_change"}, {"time": 2819, "annotation": {"number": 64, "value": 127}, "group": "control_change"}, {"time": 2841, "annotation": {"number": 64, "value": 0}, "group": "control_change"}, {"time": 2843, "annotation": {"number": 64, "value": 127}, "group": "control_change"}, {"time": 2865, "annotation": {"number": 64, "value": 0}, "group": "control_change"}, {"time": 2867, "annotation": {"number": 64, "value": 127}, "group": "control_change"}, {"time": 2878, "annotation": {"number": 64, "value": 0}, "group": "control_change"}, {"time": 2879, "annotation": {"number": 64, "value": 127}, "group": "control_change"}, {"time": 2890, "annotation": {"number": 64, "value": 0}, "group": "control_change"}, {"time": 2892, "annotation": {"number": 64, "value": 127}, "group": "control_change"}, {"time": 2913, "annotation": {"number": 64, "value": 0}, "group": "control_change"}, {"time": 2915, "annotation": {"number": 64, "value": 127}, "group": "control_change"}, {"time": 2925, "annotation": {"number": 64, "value": 0}, "group": "control_change"}, {"time": 2926, "annotation": {"number": 64, "value": 127}, "group": "control_change"}, {"time": 2937, "annotation": {"number": 64, "value": 0}, "group": "control_change"}, {"time": 2938, "annotation": {"number": 64, "value": 127}, "group": "control_change"}, {"time": 2961, "annotation": {"number": 64, "value": 0}, "group": "control_change"}, {"time": 2962, "annotation": {"number": 64, "value": 127}, "group": "control_change"}, {"time": 2973, "annotation": {"number": 64, "value": 0}, "group": "control_change"}, {"time": 2974, "annotation": {"number": 64, "value": 127}, "group": "control_change"}, {"time": 2986, "annotation": {"number": 64, "value": 0}, "group": "control_change"}, {"time": 2988, "annotation": {"number": 64, "value": 127}, "group": "control_change"}, {"time": 3009, "annotation": {"number": 64, "value": 0}, "group": "control_change"}, {"time": 3011, "annotation": {"number": 64, "value": 127}, "group": "control_change"}, {"time": 3035, "annotation": {"number": 64, "value": 0}, "group": "control_change"}, {"time": 3038, "annotation": {"number": 64, "value": 127}, "group": "control_change"}, {"time": 3082, "annotation": {"number": 64, "value": 0}, "group": "control_change"}, {"time": 3083, "annotation": {"number": 64, "value": 127}, "group": "control_change"}, {"time": 3105, "annotation": {"number": 64, "value": 0}, "group": "control_change"}, {"time": 3106, "annotation": {"number": 64, "value": 127}, "group": "control_change"}, {"time": 3118, "annotation": {"number": 64, "value": 0}, "group": "control_change"}, {"time": 3118, "annotation": {"number": 64, "value": 127}, "group": "control_change"}, {"time": 3130, "annotation": {"number": 64, "value": 0}, "group": "control_change"}, {"time": 3140, "annotation": {"number": 64, "value": 127}, "group": "control_change"}, {"time": 3226, "annotation": {"number": 64, "value": 0}, "group": "control_change"}, {"time": 3228, "annotation": {"number": 64, "value": 127}, "group": "control_change"}, {"time": 3272, "annotation": {"number": 64, "value": 0}, "group": "control_change"}, {"time": 3274, "annotation": {"number": 64, "value": 127}, "group": "control_change"}, {"time": 3323, "annotation": {"number": 64, "value": 0}, "group": "control_change"}, {"time": 3335, "annotation": {"number": 64, "value": 127}, "group": "control_change"}, {"time": 3430, "annotation": {"number": 64, "value": 0}, "group": "control_change"}, {"time": 3434, "annotation": {"number": 64, "value": 127}, "group": "control_change"}, {"time": 3477, "annotation": {"number": 64, "value": 0}, "group": "control_change"}, {"time": 3479, "annotation": {"number": 64, "value": 127}, "group": "control_change"}, {"time": 3540, "annotation": {"number": 64, "value": 0}, "group": "control_change"}, {"time": 3541, "annotation": {"number": 64, "value": 127}, "group": "control_change"}, {"time": 3634, "annotation": {"number": 64, "value": 0}, "group": "control_change"}]}]}