{"metadata": {"schema_version": "0.2", "title": "None", "source_filename": "401.mid", "source_format": "midi"}, "resolution": 12, "tempos": [{"time": 0, "qpm": 77.000077000077}, {"time": 3228, "qpm": 75.25001818542106}, {"time": 3233, "qpm": 73.00007178340392}, {"time": 3237, "qpm": 69.50010888350391}, {"time": 3243, "qpm": 67.00002903334591}], "time_signatures": [{"time": 0, "numerator": 1, "denominator": 4}], "tracks": [{"program": 4, "is_drum": false, "name": "MELODY", "notes": [{"time": 218, "pitch": 71, "duration": 5, "velocity": 60}, {"time": 224, "pitch": 71, "duration": 5, "velocity": 60}, {"time": 230, "pitch": 71, "duration": 5, "velocity": 63}, {"time": 236, "pitch": 71, "duration": 30, "velocity": 69}, {"time": 266, "pitch": 70, "duration": 5, "velocity": 59}, {"time": 272, "pitch": 70, "duration": 5, "velocity": 61}, {"time": 278, "pitch": 70, "duration": 5, "velocity": 62}, {"time": 284, "pitch": 70, "duration": 24, "velocity": 69}, {"time": 308, "pitch": 59, "duration": 6, "velocity": 65}, {"time": 314, "pitch": 68, "duration": 11, "velocity": 62}, {"time": 326, "pitch": 68, "duration": 5, "velocity": 61}, {"time": 332, "pitch": 68, "duration": 12, "velocity": 59}, {"time": 344, "pitch": 66, "duration": 6, "velocity": 56}, {"time": 350, "pitch": 64, "duration": 6, "velocity": 59}, {"time": 356, "pitch": 66, "duration": 54, "velocity": 55}, {"time": 410, "pitch": 71, "duration": 5, "velocity": 59}, {"time": 416, "pitch": 71, "duration": 5, "velocity": 59}, {"time": 422, "pitch": 71, "duration": 5, "velocity": 61}, {"time": 428, "pitch": 71, "duration": 30, "velocity": 60}, {"time": 458, "pitch": 70, "duration": 5, "velocity": 59}, {"time": 464, "pitch": 70, "duration": 5, "velocity": 60}, {"time": 470, "pitch": 70, "duration": 5, "velocity": 61}, {"time": 476, "pitch": 70, "duration": 30, "velocity": 59}, {"time": 506, "pitch": 68, "duration": 12, "velocity": 62}, {"time": 518, "pitch": 71, "duration": 5, "velocity": 58}, {"time": 524, "pitch": 71, "duration": 17, "velocity": 62}, {"time": 542, "pitch": 71, "duration": 5, "velocity": 59}, {"time": 548, "pitch": 71, "duration": 29, "velocity": 59}, {"time": 578, "pitch": 71, "duration": 6, "velocity": 61}, {"time": 584, "pitch": 73, "duration": 6, "velocity": 65}, {"time": 590, "pitch": 75, "duration": 8, "velocity": 65}, {"time": 598, "pitch": 68, "duration": 10, "velocity": 62}, {"time": 608, "pitch": 75, "duration": 12, "velocity": 62}, {"time": 620, "pitch": 73, "duration": 12, "velocity": 69}, {"time": 632, "pitch": 71, "duration": 12, "velocity": 61}, {"time": 644, "pitch": 66, "duration": 42, "velocity": 59}, {"time": 686, "pitch": 68, "duration": 6, "velocity": 60}, {"time": 692, "pitch": 70, "duration": 6, "velocity": 62}, {"time": 698, "pitch": 71, "duration": 18, "velocity": 61}, {"time": 716, "pitch": 73, "duration": 12, "velocity": 62}, {"time": 728, "pitch": 71, "duration": 6, "velocity": 61}, {"time": 734, "pitch": 71, "duration": 6, "velocity": 61}, {"time": 740, "pitch": 70, "duration": 8, "velocity": 59}, {"time": 748, "pitch": 68, "duration": 4, "velocity": 54}, {"time": 752, "pitch": 66, "duration": 30, "velocity": 59}, {"time": 782, "pitch": 71, "duration": 6, "velocity": 54}, {"time": 788, "pitch": 70, "duration": 6, "velocity": 60}, {"time": 794, "pitch": 68, "duration": 18, "velocity": 62}, {"time": 812, "pitch": 75, "duration": 30, "velocity": 62}, {"time": 842, "pitch": 66, "duration": 18, "velocity": 60}, {"time": 860, "pitch": 73, "duration": 30, "velocity": 65}, {"time": 890, "pitch": 71, "duration": 6, "velocity": 60}, {"time": 896, "pitch": 70, "duration": 6, "velocity": 60}, {"time": 902, "pitch": 68, "duration": 6, "velocity": 60}, {"time": 908, "pitch": 71, "duration": 12, "velocity": 62}, {"time": 920, "pitch": 73, "duration": 11, "velocity": 69}, {"time": 932, "pitch": 73, "duration": 29, "velocity": 72}, {"time": 962, "pitch": 73, "duration": 6, "velocity": 63}, {"time": 968, "pitch": 75, "duration": 6, "velocity": 60}, {"time": 974, "pitch": 73, "duration": 6, "velocity": 65}, {"time": 980, "pitch": 71, "duration": 5, "velocity": 61}, {"time": 986, "pitch": 71, "duration": 23, "velocity": 63}, {"time": 1010, "pitch": 71, "duration": 6, "velocity": 69}, {"time": 1016, "pitch": 73, "duration": 6, "velocity": 64}, {"time": 1022, "pitch": 75, "duration": 6, "velocity": 62}, {"time": 1028, "pitch": 80, "duration": 6, "velocity": 60}, {"time": 1034, "pitch": 78, "duration": 24, "velocity": 60}, {"time": 1058, "pitch": 73, "duration": 6, "velocity": 62}, {"time": 1064, "pitch": 75, "duration": 6, "velocity": 58}, {"time": 1070, "pitch": 73, "duration": 6, "velocity": 62}, {"time": 1076, "pitch": 71, "duration": 5, "velocity": 62}, {"time": 1082, "pitch": 71, "duration": 23, "velocity": 65}, {"time": 1106, "pitch": 71, "duration": 6, "velocity": 62}, {"time": 1112, "pitch": 73, "duration": 6, "velocity": 64}, {"time": 1118, "pitch": 75, "duration": 6, "velocity": 62}, {"time": 1124, "pitch": 83, "duration": 6, "velocity": 59}, {"time": 1130, "pitch": 82, "duration": 24, "velocity": 62}, {"time": 1154, "pitch": 73, "duration": 6, "velocity": 60}, {"time": 1160, "pitch": 75, "duration": 6, "velocity": 58}, {"time": 1166, "pitch": 73, "duration": 6, "velocity": 61}, {"time": 1172, "pitch": 71, "duration": 5, "velocity": 62}, {"time": 1178, "pitch": 71, "duration": 24, "velocity": 65}, {"time": 1202, "pitch": 68, "duration": 6, "velocity": 60}, {"time": 1208, "pitch": 70, "duration": 6, "velocity": 58}, {"time": 1214, "pitch": 71, "duration": 6, "velocity": 59}, {"time": 1220, "pitch": 76, "duration": 6, "velocity": 59}, {"time": 1226, "pitch": 75, "duration": 24, "velocity": 58}, {"time": 1250, "pitch": 73, "duration": 6, "velocity": 65}, {"time": 1256, "pitch": 75, "duration": 6, "velocity": 64}, {"time": 1262, "pitch": 73, "duration": 6, "velocity": 63}, {"time": 1268, "pitch": 71, "duration": 5, "velocity": 61}, {"time": 1274, "pitch": 71, "duration": 24, "velocity": 64}, {"time": 1298, "pitch": 76, "duration": 12, "velocity": 60}, {"time": 1310, "pitch": 78, "duration": 6, "velocity": 62}, {"time": 1316, "pitch": 75, "duration": 12, "velocity": 67}, {"time": 1328, "pitch": 71, "duration": 18, "velocity": 58}, {"time": 1346, "pitch": 75, "duration": 12, "velocity": 60}, {"time": 1358, "pitch": 73, "duration": 12, "velocity": 65}, {"time": 1370, "pitch": 71, "duration": 36, "velocity": 64}, {"time": 1538, "pitch": 71, "duration": 6, "velocity": 61}, {"time": 1544, "pitch": 73, "duration": 6, "velocity": 65}, {"time": 1550, "pitch": 75, "duration": 8, "velocity": 65}, {"time": 1558, "pitch": 68, "duration": 10, "velocity": 62}, {"time": 1568, "pitch": 75, "duration": 12, "velocity": 62}, {"time": 1580, "pitch": 73, "duration": 12, "velocity": 69}, {"time": 1592, "pitch": 71, "duration": 12, "velocity": 61}, {"time": 1604, "pitch": 66, "duration": 36, "velocity": 59}, {"time": 1646, "pitch": 68, "duration": 6, "velocity": 60}, {"time": 1652, "pitch": 70, "duration": 6, "velocity": 62}, {"time": 1658, "pitch": 71, "duration": 18, "velocity": 61}, {"time": 1676, "pitch": 73, "duration": 12, "velocity": 62}, {"time": 1688, "pitch": 71, "duration": 6, "velocity": 61}, {"time": 1694, "pitch": 71, "duration": 6, "velocity": 61}, {"time": 1700, "pitch": 70, "duration": 8, "velocity": 59}, {"time": 1708, "pitch": 68, "duration": 4, "velocity": 54}, {"time": 1712, "pitch": 66, "duration": 30, "velocity": 59}, {"time": 1742, "pitch": 71, "duration": 6, "velocity": 54}, {"time": 1748, "pitch": 70, "duration": 6, "velocity": 60}, {"time": 1754, "pitch": 68, "duration": 18, "velocity": 62}, {"time": 1772, "pitch": 75, "duration": 30, "velocity": 62}, {"time": 1802, "pitch": 66, "duration": 18, "velocity": 60}, {"time": 1820, "pitch": 73, "duration": 30, "velocity": 65}, {"time": 1850, "pitch": 71, "duration": 6, "velocity": 60}, {"time": 1856, "pitch": 70, "duration": 6, "velocity": 60}, {"time": 1862, "pitch": 68, "duration": 6, "velocity": 60}, {"time": 1868, "pitch": 71, "duration": 12, "velocity": 62}, {"time": 1880, "pitch": 73, "duration": 11, "velocity": 69}, {"time": 1892, "pitch": 73, "duration": 29, "velocity": 72}, {"time": 1922, "pitch": 73, "duration": 6, "velocity": 63}, {"time": 1928, "pitch": 75, "duration": 6, "velocity": 60}, {"time": 1934, "pitch": 73, "duration": 6, "velocity": 65}, {"time": 1940, "pitch": 71, "duration": 5, "velocity": 61}, {"time": 1946, "pitch": 71, "duration": 23, "velocity": 63}, {"time": 1970, "pitch": 71, "duration": 6, "velocity": 69}, {"time": 1976, "pitch": 73, "duration": 6, "velocity": 64}, {"time": 1982, "pitch": 75, "duration": 6, "velocity": 62}, {"time": 1988, "pitch": 80, "duration": 6, "velocity": 60}, {"time": 1994, "pitch": 78, "duration": 24, "velocity": 60}, {"time": 2018, "pitch": 73, "duration": 6, "velocity": 62}, {"time": 2024, "pitch": 75, "duration": 6, "velocity": 58}, {"time": 2030, "pitch": 73, "duration": 6, "velocity": 62}, {"time": 2036, "pitch": 71, "duration": 5, "velocity": 62}, {"time": 2042, "pitch": 71, "duration": 23, "velocity": 65}, {"time": 2066, "pitch": 71, "duration": 6, "velocity": 62}, {"time": 2072, "pitch": 73, "duration": 6, "velocity": 64}, {"time": 2078, "pitch": 75, "duration": 6, "velocity": 62}, {"time": 2084, "pitch": 83, "duration": 6, "velocity": 59}, {"time": 2090, "pitch": 82, "duration": 24, "velocity": 62}, {"time": 2114, "pitch": 73, "duration": 6, "velocity": 60}, {"time": 2120, "pitch": 75, "duration": 6, "velocity": 58}, {"time": 2126, "pitch": 73, "duration": 6, "velocity": 61}, {"time": 2132, "pitch": 71, "duration": 5, "velocity": 62}, {"time": 2138, "pitch": 71, "duration": 24, "velocity": 65}, {"time": 2162, "pitch": 68, "duration": 6, "velocity": 60}, {"time": 2168, "pitch": 70, "duration": 6, "velocity": 58}, {"time": 2174, "pitch": 71, "duration": 6, "velocity": 59}, {"time": 2180, "pitch": 76, "duration": 6, "velocity": 59}, {"time": 2186, "pitch": 75, "duration": 24, "velocity": 58}, {"time": 2210, "pitch": 73, "duration": 6, "velocity": 65}, {"time": 2216, "pitch": 75, "duration": 6, "velocity": 64}, {"time": 2222, "pitch": 73, "duration": 6, "velocity": 63}, {"time": 2228, "pitch": 71, "duration": 5, "velocity": 61}, {"time": 2234, "pitch": 71, "duration": 24, "velocity": 64}, {"time": 2258, "pitch": 76, "duration": 12, "velocity": 60}, {"time": 2270, "pitch": 78, "duration": 6, "velocity": 62}, {"time": 2276, "pitch": 75, "duration": 12, "velocity": 67}, {"time": 2288, "pitch": 71, "duration": 18, "velocity": 58}, {"time": 2306, "pitch": 75, "duration": 12, "velocity": 60}, {"time": 2318, "pitch": 73, "duration": 12, "velocity": 65}, {"time": 2330, "pitch": 71, "duration": 24, "velocity": 64}, {"time": 2354, "pitch": 68, "duration": 6, "velocity": 59}, {"time": 2360, "pitch": 70, "duration": 6, "velocity": 63}, {"time": 2366, "pitch": 71, "duration": 6, "velocity": 60}, {"time": 2372, "pitch": 73, "duration": 5, "velocity": 67}, {"time": 2378, "pitch": 73, "duration": 23, "velocity": 65}, {"time": 2402, "pitch": 73, "duration": 5, "velocity": 61}, {"time": 2408, "pitch": 73, "duration": 6, "velocity": 63}, {"time": 2414, "pitch": 75, "duration": 6, "velocity": 60}, {"time": 2420, "pitch": 76, "duration": 6, "velocity": 60}, {"time": 2426, "pitch": 78, "duration": 23, "velocity": 61}, {"time": 2450, "pitch": 78, "duration": 6, "velocity": 53}, {"time": 2456, "pitch": 76, "duration": 6, "velocity": 58}, {"time": 2462, "pitch": 75, "duration": 6, "velocity": 59}, {"time": 2468, "pitch": 73, "duration": 6, "velocity": 65}, {"time": 2474, "pitch": 71, "duration": 23, "velocity": 59}, {"time": 2498, "pitch": 71, "duration": 5, "velocity": 60}, {"time": 2504, "pitch": 71, "duration": 6, "velocity": 63}, {"time": 2510, "pitch": 73, "duration": 6, "velocity": 61}, {"time": 2516, "pitch": 75, "duration": 6, "velocity": 60}, {"time": 2522, "pitch": 76, "duration": 23, "velocity": 60}, {"time": 2546, "pitch": 76, "duration": 6, "velocity": 59}, {"time": 2552, "pitch": 75, "duration": 6, "velocity": 64}, {"time": 2558, "pitch": 73, "duration": 6, "velocity": 60}, {"time": 2564, "pitch": 75, "duration": 6, "velocity": 60}, {"time": 2570, "pitch": 76, "duration": 23, "velocity": 58}, {"time": 2594, "pitch": 76, "duration": 6, "velocity": 61}, {"time": 2600, "pitch": 75, "duration": 6, "velocity": 62}, {"time": 2606, "pitch": 73, "duration": 6, "velocity": 65}, {"time": 2612, "pitch": 71, "duration": 6, "velocity": 59}, {"time": 2618, "pitch": 73, "duration": 48, "velocity": 64}, {"time": 2666, "pitch": 74, "duration": 23, "velocity": 62}, {"time": 2690, "pitch": 74, "duration": 6, "velocity": 63}, {"time": 2696, "pitch": 76, "duration": 6, "velocity": 60}, {"time": 2702, "pitch": 74, "duration": 6, "velocity": 65}, {"time": 2708, "pitch": 72, "duration": 5, "velocity": 61}, {"time": 2714, "pitch": 72, "duration": 23, "velocity": 63}, {"time": 2738, "pitch": 72, "duration": 6, "velocity": 69}, {"time": 2744, "pitch": 74, "duration": 6, "velocity": 64}, {"time": 2750, "pitch": 76, "duration": 6, "velocity": 62}, {"time": 2756, "pitch": 81, "duration": 6, "velocity": 60}, {"time": 2762, "pitch": 79, "duration": 24, "velocity": 60}, {"time": 2786, "pitch": 74, "duration": 6, "velocity": 62}, {"time": 2792, "pitch": 76, "duration": 6, "velocity": 58}, {"time": 2798, "pitch": 74, "duration": 6, "velocity": 62}, {"time": 2804, "pitch": 72, "duration": 5, "velocity": 62}, {"time": 2810, "pitch": 72, "duration": 23, "velocity": 65}, {"time": 2834, "pitch": 72, "duration": 6, "velocity": 62}, {"time": 2840, "pitch": 74, "duration": 6, "velocity": 64}, {"time": 2846, "pitch": 76, "duration": 6, "velocity": 62}, {"time": 2852, "pitch": 84, "duration": 6, "velocity": 59}, {"time": 2858, "pitch": 83, "duration": 24, "velocity": 62}, {"time": 2882, "pitch": 74, "duration": 6, "velocity": 60}, {"time": 2888, "pitch": 76, "duration": 6, "velocity": 58}, {"time": 2894, "pitch": 74, "duration": 6, "velocity": 61}, {"time": 2900, "pitch": 72, "duration": 5, "velocity": 62}, {"time": 2906, "pitch": 72, "duration": 24, "velocity": 65}, {"time": 2930, "pitch": 69, "duration": 6, "velocity": 60}, {"time": 2936, "pitch": 71, "duration": 6, "velocity": 58}, {"time": 2942, "pitch": 72, "duration": 6, "velocity": 59}, {"time": 2948, "pitch": 77, "duration": 6, "velocity": 59}, {"time": 2954, "pitch": 76, "duration": 24, "velocity": 58}, {"time": 2978, "pitch": 74, "duration": 6, "velocity": 65}, {"time": 2984, "pitch": 76, "duration": 6, "velocity": 64}, {"time": 2990, "pitch": 74, "duration": 6, "velocity": 63}, {"time": 2996, "pitch": 72, "duration": 5, "velocity": 61}, {"time": 3002, "pitch": 72, "duration": 24, "velocity": 64}, {"time": 3026, "pitch": 77, "duration": 12, "velocity": 60}, {"time": 3038, "pitch": 79, "duration": 6, "velocity": 62}, {"time": 3044, "pitch": 76, "duration": 12, "velocity": 67}, {"time": 3056, "pitch": 72, "duration": 18, "velocity": 58}, {"time": 3074, "pitch": 76, "duration": 12, "velocity": 60}, {"time": 3086, "pitch": 74, "duration": 12, "velocity": 65}, {"time": 3098, "pitch": 72, "duration": 199, "velocity": 64}]}, {"program": 0, "is_drum": false, "name": "PIANO", "notes": [{"time": 26, "pitch": 47, "duration": 43, "velocity": 85}, {"time": 32, "pitch": 54, "duration": 15, "velocity": 74}, {"time": 38, "pitch": 61, "duration": 5, "velocity": 80}, {"time": 44, "pitch": 59, "duration": 10, "velocity": 80}, {"time": 44, "pitch": 63, "duration": 9, "velocity": 86}, {"time": 50, "pitch": 54, "duration": 21, "velocity": 67}, {"time": 56, "pitch": 59, "duration": 23, "velocity": 86}, {"time": 56, "pitch": 66, "duration": 23, "velocity": 84}, {"time": 74, "pitch": 47, "duration": 45, "velocity": 86}, {"time": 80, "pitch": 54, "duration": 27, "velocity": 68}, {"time": 86, "pitch": 61, "duration": 4, "velocity": 72}, {"time": 92, "pitch": 61, "duration": 10, "velocity": 81}, {"time": 92, "pitch": 66, "duration": 13, "velocity": 86}, {"time": 104, "pitch": 61, "duration": 9, "velocity": 85}, {"time": 110, "pitch": 54, "duration": 10, "velocity": 62}, {"time": 122, "pitch": 47, "duration": 44, "velocity": 85}, {"time": 128, "pitch": 54, "duration": 25, "velocity": 73}, {"time": 134, "pitch": 59, "duration": 4, "velocity": 86}, {"time": 140, "pitch": 59, "duration": 10, "velocity": 85}, {"time": 140, "pitch": 64, "duration": 9, "velocity": 80}, {"time": 152, "pitch": 59, "duration": 9, "velocity": 85}, {"time": 152, "pitch": 66, "duration": 21, "velocity": 79}, {"time": 158, "pitch": 54, "duration": 9, "velocity": 60}, {"time": 164, "pitch": 59, "duration": 19, "velocity": 78}, {"time": 170, "pitch": 47, "duration": 46, "velocity": 85}, {"time": 176, "pitch": 54, "duration": 34, "velocity": 69}, {"time": 182, "pitch": 61, "duration": 4, "velocity": 74}, {"time": 188, "pitch": 59, "duration": 30, "velocity": 84}, {"time": 188, "pitch": 63, "duration": 1, "velocity": 78}, {"time": 188, "pitch": 66, "duration": 30, "velocity": 84}, {"time": 218, "pitch": 47, "duration": 2, "velocity": 85}, {"time": 218, "pitch": 66, "duration": 1, "velocity": 81}, {"time": 218, "pitch": 71, "duration": 12, "velocity": 83}, {"time": 224, "pitch": 54, "duration": 31, "velocity": 69}, {"time": 230, "pitch": 63, "duration": 8, "velocity": 74}, {"time": 236, "pitch": 66, "duration": 2, "velocity": 85}, {"time": 236, "pitch": 75, "duration": 2, "velocity": 84}, {"time": 254, "pitch": 66, "duration": 2, "velocity": 85}, {"time": 254, "pitch": 71, "duration": 3, "velocity": 86}, {"time": 266, "pitch": 42, "duration": 2, "velocity": 79}, {"time": 266, "pitch": 66, "duration": 7, "velocity": 76}, {"time": 266, "pitch": 70, "duration": 11, "velocity": 81}, {"time": 272, "pitch": 49, "duration": 36, "velocity": 52}, {"time": 278, "pitch": 58, "duration": 18, "velocity": 70}, {"time": 284, "pitch": 61, "duration": 2, "velocity": 85}, {"time": 284, "pitch": 70, "duration": 2, "velocity": 84}, {"time": 296, "pitch": 61, "duration": 7, "velocity": 81}, {"time": 296, "pitch": 66, "duration": 12, "velocity": 78}, {"time": 302, "pitch": 58, "duration": 5, "velocity": 75}, {"time": 308, "pitch": 61, "duration": 1, "velocity": 87}, {"time": 314, "pitch": 40, "duration": 19, "velocity": 84}, {"time": 314, "pitch": 59, "duration": 8, "velocity": 83}, {"time": 314, "pitch": 64, "duration": 8, "velocity": 83}, {"time": 320, "pitch": 47, "duration": 12, "velocity": 68}, {"time": 326, "pitch": 59, "duration": 2, "velocity": 87}, {"time": 326, "pitch": 64, "duration": 11, "velocity": 89}, {"time": 338, "pitch": 42, "duration": 19, "velocity": 84}, {"time": 338, "pitch": 61, "duration": 8, "velocity": 80}, {"time": 338, "pitch": 66, "duration": 9, "velocity": 80}, {"time": 344, "pitch": 49, "duration": 9, "velocity": 70}, {"time": 350, "pitch": 61, "duration": 3, "velocity": 86}, {"time": 350, "pitch": 66, "duration": 10, "velocity": 85}, {"time": 356, "pitch": 61, "duration": 3, "velocity": 65}, {"time": 362, "pitch": 47, "duration": 45, "velocity": 85}, {"time": 362, "pitch": 66, "duration": 12, "velocity": 79}, {"time": 368, "pitch": 54, "duration": 13, "velocity": 68}, {"time": 374, "pitch": 61, "duration": 2, "velocity": 85}, {"time": 380, "pitch": 59, "duration": 7, "velocity": 86}, {"time": 380, "pitch": 66, "duration": 8, "velocity": 85}, {"time": 386, "pitch": 54, "duration": 8, "velocity": 68}, {"time": 392, "pitch": 59, "duration": 11, "velocity": 80}, {"time": 392, "pitch": 63, "duration": 12, "velocity": 84}, {"time": 404, "pitch": 54, "duration": 5, "velocity": 79}, {"time": 410, "pitch": 47, "duration": 39, "velocity": 87}, {"time": 410, "pitch": 59, "duration": 10, "velocity": 84}, {"time": 410, "pitch": 66, "duration": 9, "velocity": 79}, {"time": 416, "pitch": 54, "duration": 16, "velocity": 71}, {"time": 422, "pitch": 59, "duration": 2, "velocity": 42}, {"time": 422, "pitch": 63, "duration": 2, "velocity": 79}, {"time": 428, "pitch": 59, "duration": 8, "velocity": 85}, {"time": 428, "pitch": 71, "duration": 12, "velocity": 83}, {"time": 440, "pitch": 54, "duration": 7, "velocity": 63}, {"time": 446, "pitch": 59, "duration": 5, "velocity": 85}, {"time": 446, "pitch": 66, "duration": 6, "velocity": 80}, {"time": 452, "pitch": 47, "duration": 2, "velocity": 85}, {"time": 458, "pitch": 42, "duration": 3, "velocity": 84}, {"time": 458, "pitch": 61, "duration": 13, "velocity": 78}, {"time": 458, "pitch": 66, "duration": 12, "velocity": 79}, {"time": 464, "pitch": 49, "duration": 33, "velocity": 74}, {"time": 470, "pitch": 58, "duration": 10, "velocity": 88}, {"time": 476, "pitch": 61, "duration": 9, "velocity": 86}, {"time": 476, "pitch": 70, "duration": 12, "velocity": 86}, {"time": 488, "pitch": 58, "duration": 7, "velocity": 63}, {"time": 494, "pitch": 61, "duration": 6, "velocity": 86}, {"time": 494, "pitch": 66, "duration": 9, "velocity": 86}, {"time": 500, "pitch": 49, "duration": 3, "velocity": 86}, {"time": 506, "pitch": 40, "duration": 1, "velocity": 85}, {"time": 506, "pitch": 64, "duration": 5, "velocity": 83}, {"time": 506, "pitch": 68, "duration": 9, "velocity": 85}, {"time": 512, "pitch": 47, "duration": 12, "velocity": 76}, {"time": 518, "pitch": 56, "duration": 5, "velocity": 85}, {"time": 524, "pitch": 59, "duration": 2, "velocity": 93}, {"time": 530, "pitch": 42, "duration": 14, "velocity": 83}, {"time": 530, "pitch": 66, "duration": 9, "velocity": 83}, {"time": 530, "pitch": 70, "duration": 9, "velocity": 84}, {"time": 536, "pitch": 49, "duration": 7, "velocity": 70}, {"time": 542, "pitch": 61, "duration": 3, "velocity": 90}, {"time": 542, "pitch": 66, "duration": 3, "velocity": 90}, {"time": 542, "pitch": 70, "duration": 3, "velocity": 88}, {"time": 554, "pitch": 47, "duration": 47, "velocity": 87}, {"time": 554, "pitch": 59, "duration": 8, "velocity": 79}, {"time": 554, "pitch": 66, "duration": 7, "velocity": 80}, {"time": 560, "pitch": 54, "duration": 6, "velocity": 63}, {"time": 566, "pitch": 59, "duration": 9, "velocity": 86}, {"time": 566, "pitch": 66, "duration": 7, "velocity": 86}, {"time": 572, "pitch": 54, "duration": 7, "velocity": 75}, {"time": 578, "pitch": 59, "duration": 7, "velocity": 85}, {"time": 578, "pitch": 63, "duration": 5, "velocity": 87}, {"time": 584, "pitch": 54, "duration": 7, "velocity": 69}, {"time": 590, "pitch": 59, "duration": 11, "velocity": 88}, {"time": 590, "pitch": 63, "duration": 11, "velocity": 100}, {"time": 590, "pitch": 66, "duration": 11, "velocity": 90}, {"time": 596, "pitch": 54, "duration": 6, "velocity": 85}, {"time": 602, "pitch": 40, "duration": 1, "velocity": 84}, {"time": 602, "pitch": 64, "duration": 4, "velocity": 83}, {"time": 602, "pitch": 71, "duration": 14, "velocity": 83}, {"time": 608, "pitch": 47, "duration": 31, "velocity": 63}, {"time": 614, "pitch": 56, "duration": 7, "velocity": 79}, {"time": 620, "pitch": 59, "duration": 14, "velocity": 86}, {"time": 620, "pitch": 64, "duration": 13, "velocity": 86}, {"time": 620, "pitch": 68, "duration": 13, "velocity": 85}, {"time": 632, "pitch": 56, "duration": 8, "velocity": 63}, {"time": 638, "pitch": 59, "duration": 2, "velocity": 89}, {"time": 638, "pitch": 64, "duration": 2, "velocity": 90}, {"time": 638, "pitch": 68, "duration": 4, "velocity": 86}, {"time": 644, "pitch": 47, "duration": 1, "velocity": 84}, {"time": 650, "pitch": 39, "duration": 1, "velocity": 85}, {"time": 650, "pitch": 63, "duration": 6, "velocity": 85}, {"time": 650, "pitch": 66, "duration": 9, "velocity": 81}, {"time": 656, "pitch": 51, "duration": 31, "velocity": 79}, {"time": 662, "pitch": 58, "duration": 7, "velocity": 89}, {"time": 668, "pitch": 61, "duration": 13, "velocity": 90}, {"time": 668, "pitch": 66, "duration": 14, "velocity": 88}, {"time": 680, "pitch": 58, "duration": 8, "velocity": 73}, {"time": 686, "pitch": 61, "duration": 3, "velocity": 91}, {"time": 686, "pitch": 66, "duration": 3, "velocity": 95}, {"time": 692, "pitch": 51, "duration": 1, "velocity": 85}, {"time": 698, "pitch": 37, "duration": 1, "velocity": 86}, {"time": 698, "pitch": 59, "duration": 10, "velocity": 88}, {"time": 698, "pitch": 64, "duration": 10, "velocity": 86}, {"time": 704, "pitch": 49, "duration": 12, "velocity": 82}, {"time": 710, "pitch": 56, "duration": 6, "velocity": 87}, {"time": 716, "pitch": 59, "duration": 3, "velocity": 87}, {"time": 716, "pitch": 64, "duration": 5, "velocity": 88}, {"time": 722, "pitch": 42, "duration": 15, "velocity": 84}, {"time": 722, "pitch": 61, "duration": 9, "velocity": 86}, {"time": 722, "pitch": 66, "duration": 9, "velocity": 84}, {"time": 728, "pitch": 49, "duration": 8, "velocity": 77}, {"time": 734, "pitch": 61, "duration": 2, "velocity": 87}, {"time": 734, "pitch": 66, "duration": 2, "velocity": 87}, {"time": 740, "pitch": 61, "duration": 2, "velocity": 81}, {"time": 740, "pitch": 64, "duration": 4, "velocity": 85}, {"time": 746, "pitch": 47, "duration": 22, "velocity": 86}, {"time": 746, "pitch": 59, "duration": 9, "velocity": 86}, {"time": 746, "pitch": 63, "duration": 8, "velocity": 84}, {"time": 752, "pitch": 54, "duration": 7, "velocity": 69}, {"time": 758, "pitch": 59, "duration": 5, "velocity": 90}, {"time": 758, "pitch": 63, "duration": 4, "velocity": 98}, {"time": 758, "pitch": 66, "duration": 5, "velocity": 90}, {"time": 764, "pitch": 54, "duration": 4, "velocity": 80}, {"time": 770, "pitch": 47, "duration": 17, "velocity": 88}, {"time": 770, "pitch": 59, "duration": 5, "velocity": 86}, {"time": 770, "pitch": 63, "duration": 5, "velocity": 91}, {"time": 770, "pitch": 66, "duration": 5, "velocity": 85}, {"time": 770, "pitch": 71, "duration": 7, "velocity": 85}, {"time": 776, "pitch": 54, "duration": 5, "velocity": 75}, {"time": 782, "pitch": 54, "duration": 4, "velocity": 79}, {"time": 782, "pitch": 73, "duration": 3, "velocity": 93}, {"time": 788, "pitch": 75, "duration": 4, "velocity": 101}, {"time": 794, "pitch": 40, "duration": 1, "velocity": 85}, {"time": 794, "pitch": 68, "duration": 6, "velocity": 84}, {"time": 794, "pitch": 71, "duration": 9, "velocity": 85}, {"time": 800, "pitch": 52, "duration": 28, "velocity": 75}, {"time": 806, "pitch": 59, "duration": 21, "velocity": 91}, {"time": 812, "pitch": 64, "duration": 4, "velocity": 98}, {"time": 824, "pitch": 64, "duration": 2, "velocity": 79}, {"time": 830, "pitch": 52, "duration": 6, "velocity": 85}, {"time": 830, "pitch": 59, "duration": 5, "velocity": 86}, {"time": 830, "pitch": 64, "duration": 4, "velocity": 89}, {"time": 830, "pitch": 68, "duration": 6, "velocity": 93}, {"time": 836, "pitch": 64, "duration": 1, "velocity": 68}, {"time": 842, "pitch": 51, "duration": 37, "velocity": 90}, {"time": 842, "pitch": 63, "duration": 8, "velocity": 83}, {"time": 842, "pitch": 66, "duration": 9, "velocity": 80}, {"time": 848, "pitch": 58, "duration": 20, "velocity": 71}, {"time": 854, "pitch": 63, "duration": 2, "velocity": 93}, {"time": 854, "pitch": 66, "duration": 7, "velocity": 91}, {"time": 860, "pitch": 63, "duration": 3, "velocity": 78}, {"time": 866, "pitch": 63, "duration": 6, "velocity": 83}, {"time": 866, "pitch": 66, "duration": 6, "velocity": 78}, {"time": 872, "pitch": 58, "duration": 6, "velocity": 67}, {"time": 878, "pitch": 63, "duration": 2, "velocity": 93}, {"time": 878, "pitch": 70, "duration": 3, "velocity": 91}, {"time": 884, "pitch": 63, "duration": 1, "velocity": 86}, {"time": 884, "pitch": 66, "duration": 1, "velocity": 85}, {"time": 890, "pitch": 37, "duration": 3, "velocity": 86}, {"time": 890, "pitch": 61, "duration": 14, "velocity": 77}, {"time": 890, "pitch": 64, "duration": 14, "velocity": 76}, {"time": 896, "pitch": 49, "duration": 32, "velocity": 83}, {"time": 902, "pitch": 56, "duration": 25, "velocity": 90}, {"time": 908, "pitch": 61, "duration": 3, "velocity": 85}, {"time": 914, "pitch": 61, "duration": 9, "velocity": 78}, {"time": 914, "pitch": 64, "duration": 9, "velocity": 75}, {"time": 926, "pitch": 61, "duration": 9, "velocity": 90}, {"time": 926, "pitch": 64, "duration": 10, "velocity": 100}, {"time": 938, "pitch": 42, "duration": 3, "velocity": 85}, {"time": 938, "pitch": 61, "duration": 13, "velocity": 85}, {"time": 938, "pitch": 66, "duration": 15, "velocity": 82}, {"time": 938, "pitch": 70, "duration": 15, "velocity": 85}, {"time": 944, "pitch": 49, "duration": 26, "velocity": 85}, {"time": 950, "pitch": 58, "duration": 21, "velocity": 91}, {"time": 956, "pitch": 61, "duration": 3, "velocity": 90}, {"time": 962, "pitch": 61, "duration": 2, "velocity": 91}, {"time": 962, "pitch": 66, "duration": 2, "velocity": 86}, {"time": 962, "pitch": 73, "duration": 3, "velocity": 95}, {"time": 968, "pitch": 75, "duration": 5, "velocity": 98}, {"time": 974, "pitch": 49, "duration": 6, "velocity": 82}, {"time": 974, "pitch": 54, "duration": 5, "velocity": 78}, {"time": 974, "pitch": 58, "duration": 5, "velocity": 82}, {"time": 974, "pitch": 73, "duration": 6, "velocity": 100}, {"time": 980, "pitch": 71, "duration": 8, "velocity": 101}, {"time": 986, "pitch": 47, "duration": 40, "velocity": 89}, {"time": 986, "pitch": 59, "duration": 4, "velocity": 86}, {"time": 986, "pitch": 63, "duration": 5, "velocity": 93}, {"time": 992, "pitch": 54, "duration": 7, "velocity": 72}, {"time": 998, "pitch": 59, "duration": 10, "velocity": 90}, {"time": 998, "pitch": 66, "duration": 3, "velocity": 90}, {"time": 1004, "pitch": 54, "duration": 9, "velocity": 78}, {"time": 1004, "pitch": 63, "duration": 4, "velocity": 84}, {"time": 1010, "pitch": 59, "duration": 1, "velocity": 71}, {"time": 1010, "pitch": 63, "duration": 1, "velocity": 82}, {"time": 1010, "pitch": 71, "duration": 9, "velocity": 90}, {"time": 1016, "pitch": 59, "duration": 4, "velocity": 75}, {"time": 1022, "pitch": 54, "duration": 4, "velocity": 81}, {"time": 1022, "pitch": 63, "duration": 6, "velocity": 98}, {"time": 1022, "pitch": 66, "duration": 7, "velocity": 87}, {"time": 1028, "pitch": 59, "duration": 1, "velocity": 86}, {"time": 1034, "pitch": 39, "duration": 3, "velocity": 86}, {"time": 1034, "pitch": 63, "duration": 3, "velocity": 83}, {"time": 1034, "pitch": 66, "duration": 7, "velocity": 80}, {"time": 1040, "pitch": 51, "duration": 32, "velocity": 73}, {"time": 1040, "pitch": 63, "duration": 4, "velocity": 77}, {"time": 1046, "pitch": 63, "duration": 4, "velocity": 98}, {"time": 1046, "pitch": 70, "duration": 5, "velocity": 88}, {"time": 1052, "pitch": 58, "duration": 21, "velocity": 76}, {"time": 1058, "pitch": 63, "duration": 2, "velocity": 84}, {"time": 1058, "pitch": 66, "duration": 6, "velocity": 85}, {"time": 1058, "pitch": 70, "duration": 6, "velocity": 85}, {"time": 1058, "pitch": 75, "duration": 5, "velocity": 91}, {"time": 1064, "pitch": 63, "duration": 3, "velocity": 86}, {"time": 1070, "pitch": 63, "duration": 2, "velocity": 95}, {"time": 1070, "pitch": 66, "duration": 4, "velocity": 91}, {"time": 1070, "pitch": 70, "duration": 8, "velocity": 89}, {"time": 1076, "pitch": 63, "duration": 2, "velocity": 88}, {"time": 1076, "pitch": 66, "duration": 1, "velocity": 30}, {"time": 1082, "pitch": 44, "duration": 22, "velocity": 84}, {"time": 1082, "pitch": 63, "duration": 2, "velocity": 87}, {"time": 1082, "pitch": 68, "duration": 7, "velocity": 85}, {"time": 1088, "pitch": 63, "duration": 4, "velocity": 84}, {"time": 1094, "pitch": 63, "duration": 9, "velocity": 88}, {"time": 1094, "pitch": 71, "duration": 5, "velocity": 82}, {"time": 1100, "pitch": 68, "duration": 4, "velocity": 74}, {"time": 1106, "pitch": 44, "duration": 19, "velocity": 86}, {"time": 1106, "pitch": 63, "duration": 1, "velocity": 81}, {"time": 1106, "pitch": 68, "duration": 6, "velocity": 79}, {"time": 1106, "pitch": 75, "duration": 9, "velocity": 93}, {"time": 1112, "pitch": 63, "duration": 3, "velocity": 86}, {"time": 1118, "pitch": 63, "duration": 1, "velocity": 90}, {"time": 1118, "pitch": 68, "duration": 6, "velocity": 93}, {"time": 1118, "pitch": 71, "duration": 6, "velocity": 90}, {"time": 1124, "pitch": 63, "duration": 2, "velocity": 90}, {"time": 1130, "pitch": 39, "duration": 4, "velocity": 79}, {"time": 1130, "pitch": 63, "duration": 2, "velocity": 86}, {"time": 1130, "pitch": 70, "duration": 9, "velocity": 85}, {"time": 1136, "pitch": 63, "duration": 3, "velocity": 82}, {"time": 1142, "pitch": 51, "duration": 10, "velocity": 78}, {"time": 1142, "pitch": 58, "duration": 10, "velocity": 79}, {"time": 1142, "pitch": 63, "duration": 2, "velocity": 88}, {"time": 1142, "pitch": 66, "duration": 6, "velocity": 80}, {"time": 1148, "pitch": 63, "duration": 3, "velocity": 86}, {"time": 1154, "pitch": 51, "duration": 16, "velocity": 90}, {"time": 1154, "pitch": 63, "duration": 9, "velocity": 91}, {"time": 1154, "pitch": 70, "duration": 9, "velocity": 85}, {"time": 1160, "pitch": 58, "duration": 8, "velocity": 83}, {"time": 1166, "pitch": 63, "duration": 2, "velocity": 98}, {"time": 1166, "pitch": 66, "duration": 5, "velocity": 88}, {"time": 1172, "pitch": 63, "duration": 1, "velocity": 86}, {"time": 1178, "pitch": 40, "duration": 22, "velocity": 85}, {"time": 1178, "pitch": 64, "duration": 6, "velocity": 84}, {"time": 1178, "pitch": 68, "duration": 9, "velocity": 85}, {"time": 1184, "pitch": 47, "duration": 14, "velocity": 78}, {"time": 1190, "pitch": 68, "duration": 5, "velocity": 86}, {"time": 1196, "pitch": 64, "duration": 4, "velocity": 86}, {"time": 1202, "pitch": 40, "duration": 15, "velocity": 83}, {"time": 1202, "pitch": 64, "duration": 4, "velocity": 85}, {"time": 1202, "pitch": 71, "duration": 10, "velocity": 87}, {"time": 1208, "pitch": 47, "duration": 8, "velocity": 73}, {"time": 1214, "pitch": 64, "duration": 2, "velocity": 86}, {"time": 1214, "pitch": 68, "duration": 6, "velocity": 89}, {"time": 1220, "pitch": 64, "duration": 1, "velocity": 89}, {"time": 1226, "pitch": 47, "duration": 21, "velocity": 86}, {"time": 1226, "pitch": 59, "duration": 8, "velocity": 84}, {"time": 1226, "pitch": 63, "duration": 8, "velocity": 85}, {"time": 1232, "pitch": 54, "duration": 14, "velocity": 82}, {"time": 1238, "pitch": 59, "duration": 3, "velocity": 86}, {"time": 1238, "pitch": 66, "duration": 2, "velocity": 84}, {"time": 1244, "pitch": 59, "duration": 4, "velocity": 69}, {"time": 1244, "pitch": 63, "duration": 3, "velocity": 84}, {"time": 1250, "pitch": 47, "duration": 14, "velocity": 86}, {"time": 1250, "pitch": 59, "duration": 3, "velocity": 67}, {"time": 1250, "pitch": 63, "duration": 5, "velocity": 85}, {"time": 1250, "pitch": 71, "duration": 9, "velocity": 88}, {"time": 1256, "pitch": 54, "duration": 8, "velocity": 70}, {"time": 1262, "pitch": 59, "duration": 3, "velocity": 85}, {"time": 1262, "pitch": 63, "duration": 3, "velocity": 95}, {"time": 1262, "pitch": 66, "duration": 4, "velocity": 86}, {"time": 1268, "pitch": 47, "duration": 1, "velocity": 85}, {"time": 1274, "pitch": 37, "duration": 2, "velocity": 86}, {"time": 1274, "pitch": 59, "duration": 9, "velocity": 85}, {"time": 1274, "pitch": 64, "duration": 9, "velocity": 81}, {"time": 1280, "pitch": 49, "duration": 32, "velocity": 77}, {"time": 1286, "pitch": 64, "duration": 5, "velocity": 86}, {"time": 1286, "pitch": 68, "duration": 6, "velocity": 87}, {"time": 1292, "pitch": 56, "duration": 8, "velocity": 75}, {"time": 1298, "pitch": 61, "duration": 5, "velocity": 85}, {"time": 1298, "pitch": 64, "duration": 6, "velocity": 89}, {"time": 1298, "pitch": 68, "duration": 6, "velocity": 88}, {"time": 1304, "pitch": 56, "duration": 8, "velocity": 73}, {"time": 1310, "pitch": 59, "duration": 4, "velocity": 90}, {"time": 1310, "pitch": 64, "duration": 5, "velocity": 90}, {"time": 1310, "pitch": 68, "duration": 7, "velocity": 86}, {"time": 1316, "pitch": 49, "duration": 2, "velocity": 86}, {"time": 1322, "pitch": 42, "duration": 21, "velocity": 86}, {"time": 1322, "pitch": 61, "duration": 4, "velocity": 85}, {"time": 1322, "pitch": 66, "duration": 8, "velocity": 84}, {"time": 1328, "pitch": 49, "duration": 14, "velocity": 76}, {"time": 1334, "pitch": 61, "duration": 9, "velocity": 88}, {"time": 1334, "pitch": 70, "duration": 5, "velocity": 87}, {"time": 1340, "pitch": 66, "duration": 3, "velocity": 88}, {"time": 1346, "pitch": 42, "duration": 21, "velocity": 85}, {"time": 1346, "pitch": 61, "duration": 3, "velocity": 86}, {"time": 1346, "pitch": 66, "duration": 7, "velocity": 87}, {"time": 1346, "pitch": 73, "duration": 7, "velocity": 95}, {"time": 1352, "pitch": 61, "duration": 2, "velocity": 90}, {"time": 1358, "pitch": 49, "duration": 10, "velocity": 80}, {"time": 1358, "pitch": 61, "duration": 2, "velocity": 89}, {"time": 1358, "pitch": 66, "duration": 11, "velocity": 85}, {"time": 1358, "pitch": 70, "duration": 10, "velocity": 86}, {"time": 1364, "pitch": 61, "duration": 5, "velocity": 80}, {"time": 1370, "pitch": 47, "duration": 43, "velocity": 85}, {"time": 1376, "pitch": 54, "duration": 15, "velocity": 74}, {"time": 1382, "pitch": 61, "duration": 5, "velocity": 80}, {"time": 1388, "pitch": 59, "duration": 10, "velocity": 80}, {"time": 1388, "pitch": 63, "duration": 9, "velocity": 86}, {"time": 1394, "pitch": 54, "duration": 21, "velocity": 67}, {"time": 1400, "pitch": 59, "duration": 23, "velocity": 86}, {"time": 1400, "pitch": 66, "duration": 23, "velocity": 84}, {"time": 1418, "pitch": 47, "duration": 45, "velocity": 86}, {"time": 1424, "pitch": 54, "duration": 27, "velocity": 68}, {"time": 1430, "pitch": 61, "duration": 4, "velocity": 72}, {"time": 1436, "pitch": 61, "duration": 10, "velocity": 81}, {"time": 1436, "pitch": 66, "duration": 13, "velocity": 86}, {"time": 1448, "pitch": 61, "duration": 9, "velocity": 85}, {"time": 1454, "pitch": 54, "duration": 10, "velocity": 62}, {"time": 1466, "pitch": 47, "duration": 44, "velocity": 85}, {"time": 1472, "pitch": 54, "duration": 25, "velocity": 73}, {"time": 1478, "pitch": 59, "duration": 4, "velocity": 86}, {"time": 1484, "pitch": 59, "duration": 10, "velocity": 85}, {"time": 1484, "pitch": 64, "duration": 9, "velocity": 80}, {"time": 1496, "pitch": 59, "duration": 9, "velocity": 85}, {"time": 1496, "pitch": 66, "duration": 21, "velocity": 79}, {"time": 1502, "pitch": 54, "duration": 9, "velocity": 60}, {"time": 1508, "pitch": 59, "duration": 19, "velocity": 78}, {"time": 1514, "pitch": 47, "duration": 46, "velocity": 85}, {"time": 1520, "pitch": 54, "duration": 34, "velocity": 69}, {"time": 1526, "pitch": 61, "duration": 4, "velocity": 74}, {"time": 1532, "pitch": 59, "duration": 30, "velocity": 84}, {"time": 1532, "pitch": 63, "duration": 1, "velocity": 78}, {"time": 1532, "pitch": 66, "duration": 30, "velocity": 84}, {"time": 1562, "pitch": 40, "duration": 1, "velocity": 84}, {"time": 1562, "pitch": 64, "duration": 4, "velocity": 83}, {"time": 1562, "pitch": 71, "duration": 14, "velocity": 83}, {"time": 1568, "pitch": 47, "duration": 31, "velocity": 63}, {"time": 1574, "pitch": 56, "duration": 7, "velocity": 79}, {"time": 1580, "pitch": 59, "duration": 14, "velocity": 86}, {"time": 1580, "pitch": 64, "duration": 13, "velocity": 86}, {"time": 1580, "pitch": 68, "duration": 13, "velocity": 85}, {"time": 1592, "pitch": 56, "duration": 8, "velocity": 63}, {"time": 1598, "pitch": 59, "duration": 2, "velocity": 89}, {"time": 1598, "pitch": 64, "duration": 2, "velocity": 90}, {"time": 1598, "pitch": 68, "duration": 4, "velocity": 86}, {"time": 1604, "pitch": 47, "duration": 1, "velocity": 84}, {"time": 1610, "pitch": 39, "duration": 1, "velocity": 85}, {"time": 1610, "pitch": 63, "duration": 6, "velocity": 85}, {"time": 1610, "pitch": 66, "duration": 9, "velocity": 81}, {"time": 1616, "pitch": 51, "duration": 31, "velocity": 79}, {"time": 1622, "pitch": 58, "duration": 7, "velocity": 89}, {"time": 1628, "pitch": 61, "duration": 13, "velocity": 90}, {"time": 1628, "pitch": 66, "duration": 14, "velocity": 88}, {"time": 1640, "pitch": 58, "duration": 8, "velocity": 73}, {"time": 1646, "pitch": 61, "duration": 3, "velocity": 91}, {"time": 1646, "pitch": 66, "duration": 3, "velocity": 95}, {"time": 1652, "pitch": 51, "duration": 1, "velocity": 85}, {"time": 1658, "pitch": 37, "duration": 1, "velocity": 86}, {"time": 1658, "pitch": 59, "duration": 10, "velocity": 88}, {"time": 1658, "pitch": 64, "duration": 10, "velocity": 86}, {"time": 1664, "pitch": 49, "duration": 12, "velocity": 82}, {"time": 1670, "pitch": 56, "duration": 6, "velocity": 87}, {"time": 1676, "pitch": 59, "duration": 3, "velocity": 87}, {"time": 1676, "pitch": 64, "duration": 5, "velocity": 88}, {"time": 1682, "pitch": 42, "duration": 15, "velocity": 84}, {"time": 1682, "pitch": 61, "duration": 9, "velocity": 86}, {"time": 1682, "pitch": 66, "duration": 9, "velocity": 84}, {"time": 1688, "pitch": 49, "duration": 8, "velocity": 77}, {"time": 1694, "pitch": 61, "duration": 2, "velocity": 87}, {"time": 1694, "pitch": 66, "duration": 2, "velocity": 87}, {"time": 1700, "pitch": 61, "duration": 2, "velocity": 81}, {"time": 1700, "pitch": 64, "duration": 4, "velocity": 85}, {"time": 1706, "pitch": 47, "duration": 22, "velocity": 86}, {"time": 1706, "pitch": 59, "duration": 9, "velocity": 86}, {"time": 1706, "pitch": 63, "duration": 8, "velocity": 84}, {"time": 1712, "pitch": 54, "duration": 7, "velocity": 69}, {"time": 1718, "pitch": 59, "duration": 5, "velocity": 90}, {"time": 1718, "pitch": 63, "duration": 4, "velocity": 98}, {"time": 1718, "pitch": 66, "duration": 5, "velocity": 90}, {"time": 1724, "pitch": 54, "duration": 4, "velocity": 80}, {"time": 1730, "pitch": 47, "duration": 17, "velocity": 88}, {"time": 1730, "pitch": 59, "duration": 5, "velocity": 86}, {"time": 1730, "pitch": 63, "duration": 5, "velocity": 91}, {"time": 1730, "pitch": 66, "duration": 5, "velocity": 85}, {"time": 1730, "pitch": 71, "duration": 7, "velocity": 85}, {"time": 1736, "pitch": 54, "duration": 5, "velocity": 75}, {"time": 1742, "pitch": 54, "duration": 4, "velocity": 79}, {"time": 1742, "pitch": 73, "duration": 3, "velocity": 93}, {"time": 1748, "pitch": 75, "duration": 4, "velocity": 101}, {"time": 1754, "pitch": 40, "duration": 1, "velocity": 85}, {"time": 1754, "pitch": 68, "duration": 6, "velocity": 84}, {"time": 1754, "pitch": 71, "duration": 9, "velocity": 85}, {"time": 1760, "pitch": 52, "duration": 28, "velocity": 75}, {"time": 1766, "pitch": 59, "duration": 21, "velocity": 91}, {"time": 1772, "pitch": 64, "duration": 4, "velocity": 98}, {"time": 1784, "pitch": 64, "duration": 2, "velocity": 79}, {"time": 1790, "pitch": 52, "duration": 6, "velocity": 85}, {"time": 1790, "pitch": 59, "duration": 5, "velocity": 86}, {"time": 1790, "pitch": 64, "duration": 4, "velocity": 89}, {"time": 1790, "pitch": 68, "duration": 6, "velocity": 93}, {"time": 1796, "pitch": 64, "duration": 1, "velocity": 68}, {"time": 1802, "pitch": 51, "duration": 37, "velocity": 90}, {"time": 1802, "pitch": 63, "duration": 8, "velocity": 83}, {"time": 1802, "pitch": 66, "duration": 9, "velocity": 80}, {"time": 1808, "pitch": 58, "duration": 20, "velocity": 71}, {"time": 1814, "pitch": 63, "duration": 2, "velocity": 93}, {"time": 1814, "pitch": 66, "duration": 7, "velocity": 91}, {"time": 1820, "pitch": 63, "duration": 3, "velocity": 78}, {"time": 1826, "pitch": 63, "duration": 6, "velocity": 83}, {"time": 1826, "pitch": 66, "duration": 6, "velocity": 78}, {"time": 1832, "pitch": 58, "duration": 6, "velocity": 67}, {"time": 1838, "pitch": 63, "duration": 2, "velocity": 93}, {"time": 1838, "pitch": 70, "duration": 3, "velocity": 91}, {"time": 1844, "pitch": 63, "duration": 1, "velocity": 86}, {"time": 1844, "pitch": 66, "duration": 1, "velocity": 85}, {"time": 1850, "pitch": 37, "duration": 3, "velocity": 86}, {"time": 1850, "pitch": 61, "duration": 14, "velocity": 77}, {"time": 1850, "pitch": 64, "duration": 14, "velocity": 76}, {"time": 1856, "pitch": 49, "duration": 32, "velocity": 83}, {"time": 1862, "pitch": 56, "duration": 25, "velocity": 90}, {"time": 1868, "pitch": 61, "duration": 3, "velocity": 85}, {"time": 1874, "pitch": 61, "duration": 9, "velocity": 78}, {"time": 1874, "pitch": 64, "duration": 9, "velocity": 75}, {"time": 1886, "pitch": 61, "duration": 9, "velocity": 90}, {"time": 1886, "pitch": 64, "duration": 10, "velocity": 100}, {"time": 1898, "pitch": 42, "duration": 3, "velocity": 85}, {"time": 1898, "pitch": 61, "duration": 13, "velocity": 85}, {"time": 1898, "pitch": 66, "duration": 15, "velocity": 82}, {"time": 1898, "pitch": 70, "duration": 15, "velocity": 85}, {"time": 1904, "pitch": 49, "duration": 26, "velocity": 85}, {"time": 1910, "pitch": 58, "duration": 21, "velocity": 91}, {"time": 1916, "pitch": 61, "duration": 3, "velocity": 90}, {"time": 1922, "pitch": 61, "duration": 2, "velocity": 91}, {"time": 1922, "pitch": 66, "duration": 2, "velocity": 86}, {"time": 1922, "pitch": 73, "duration": 3, "velocity": 95}, {"time": 1928, "pitch": 75, "duration": 5, "velocity": 98}, {"time": 1934, "pitch": 49, "duration": 6, "velocity": 82}, {"time": 1934, "pitch": 54, "duration": 5, "velocity": 78}, {"time": 1934, "pitch": 58, "duration": 5, "velocity": 82}, {"time": 1934, "pitch": 73, "duration": 6, "velocity": 100}, {"time": 1940, "pitch": 71, "duration": 8, "velocity": 101}, {"time": 1946, "pitch": 47, "duration": 40, "velocity": 89}, {"time": 1946, "pitch": 59, "duration": 4, "velocity": 86}, {"time": 1946, "pitch": 63, "duration": 5, "velocity": 93}, {"time": 1952, "pitch": 54, "duration": 7, "velocity": 72}, {"time": 1958, "pitch": 59, "duration": 10, "velocity": 90}, {"time": 1958, "pitch": 66, "duration": 3, "velocity": 90}, {"time": 1964, "pitch": 54, "duration": 9, "velocity": 78}, {"time": 1964, "pitch": 63, "duration": 4, "velocity": 84}, {"time": 1970, "pitch": 59, "duration": 1, "velocity": 71}, {"time": 1970, "pitch": 63, "duration": 1, "velocity": 82}, {"time": 1970, "pitch": 71, "duration": 9, "velocity": 90}, {"time": 1976, "pitch": 59, "duration": 4, "velocity": 75}, {"time": 1982, "pitch": 54, "duration": 4, "velocity": 81}, {"time": 1982, "pitch": 63, "duration": 6, "velocity": 98}, {"time": 1982, "pitch": 66, "duration": 7, "velocity": 87}, {"time": 1988, "pitch": 59, "duration": 1, "velocity": 86}, {"time": 1994, "pitch": 39, "duration": 3, "velocity": 86}, {"time": 1994, "pitch": 63, "duration": 3, "velocity": 83}, {"time": 1994, "pitch": 66, "duration": 7, "velocity": 80}, {"time": 2000, "pitch": 51, "duration": 32, "velocity": 73}, {"time": 2000, "pitch": 63, "duration": 4, "velocity": 77}, {"time": 2006, "pitch": 63, "duration": 4, "velocity": 98}, {"time": 2006, "pitch": 70, "duration": 5, "velocity": 88}, {"time": 2012, "pitch": 58, "duration": 21, "velocity": 76}, {"time": 2018, "pitch": 63, "duration": 2, "velocity": 84}, {"time": 2018, "pitch": 66, "duration": 6, "velocity": 85}, {"time": 2018, "pitch": 70, "duration": 6, "velocity": 85}, {"time": 2018, "pitch": 75, "duration": 5, "velocity": 91}, {"time": 2024, "pitch": 63, "duration": 3, "velocity": 86}, {"time": 2030, "pitch": 63, "duration": 2, "velocity": 95}, {"time": 2030, "pitch": 66, "duration": 4, "velocity": 91}, {"time": 2030, "pitch": 70, "duration": 8, "velocity": 89}, {"time": 2036, "pitch": 63, "duration": 2, "velocity": 88}, {"time": 2036, "pitch": 66, "duration": 1, "velocity": 30}, {"time": 2042, "pitch": 44, "duration": 22, "velocity": 84}, {"time": 2042, "pitch": 63, "duration": 2, "velocity": 87}, {"time": 2042, "pitch": 68, "duration": 7, "velocity": 85}, {"time": 2048, "pitch": 63, "duration": 4, "velocity": 84}, {"time": 2054, "pitch": 63, "duration": 9, "velocity": 88}, {"time": 2054, "pitch": 71, "duration": 5, "velocity": 82}, {"time": 2060, "pitch": 68, "duration": 4, "velocity": 74}, {"time": 2066, "pitch": 44, "duration": 19, "velocity": 86}, {"time": 2066, "pitch": 63, "duration": 1, "velocity": 81}, {"time": 2066, "pitch": 68, "duration": 6, "velocity": 79}, {"time": 2066, "pitch": 75, "duration": 9, "velocity": 93}, {"time": 2072, "pitch": 63, "duration": 3, "velocity": 86}, {"time": 2078, "pitch": 63, "duration": 1, "velocity": 90}, {"time": 2078, "pitch": 68, "duration": 6, "velocity": 93}, {"time": 2078, "pitch": 71, "duration": 6, "velocity": 90}, {"time": 2084, "pitch": 63, "duration": 2, "velocity": 90}, {"time": 2090, "pitch": 39, "duration": 4, "velocity": 79}, {"time": 2090, "pitch": 63, "duration": 2, "velocity": 86}, {"time": 2090, "pitch": 70, "duration": 9, "velocity": 85}, {"time": 2096, "pitch": 63, "duration": 3, "velocity": 82}, {"time": 2102, "pitch": 51, "duration": 10, "velocity": 78}, {"time": 2102, "pitch": 58, "duration": 10, "velocity": 79}, {"time": 2102, "pitch": 63, "duration": 2, "velocity": 88}, {"time": 2102, "pitch": 66, "duration": 6, "velocity": 80}, {"time": 2108, "pitch": 63, "duration": 3, "velocity": 86}, {"time": 2114, "pitch": 51, "duration": 16, "velocity": 90}, {"time": 2114, "pitch": 63, "duration": 9, "velocity": 91}, {"time": 2114, "pitch": 70, "duration": 9, "velocity": 85}, {"time": 2120, "pitch": 58, "duration": 8, "velocity": 83}, {"time": 2126, "pitch": 63, "duration": 2, "velocity": 98}, {"time": 2126, "pitch": 66, "duration": 5, "velocity": 88}, {"time": 2132, "pitch": 63, "duration": 1, "velocity": 86}, {"time": 2138, "pitch": 40, "duration": 22, "velocity": 85}, {"time": 2138, "pitch": 64, "duration": 6, "velocity": 84}, {"time": 2138, "pitch": 68, "duration": 9, "velocity": 85}, {"time": 2144, "pitch": 47, "duration": 14, "velocity": 78}, {"time": 2150, "pitch": 68, "duration": 5, "velocity": 86}, {"time": 2156, "pitch": 64, "duration": 4, "velocity": 86}, {"time": 2162, "pitch": 40, "duration": 15, "velocity": 83}, {"time": 2162, "pitch": 64, "duration": 4, "velocity": 85}, {"time": 2162, "pitch": 71, "duration": 10, "velocity": 87}, {"time": 2168, "pitch": 47, "duration": 8, "velocity": 73}, {"time": 2174, "pitch": 64, "duration": 2, "velocity": 86}, {"time": 2174, "pitch": 68, "duration": 6, "velocity": 89}, {"time": 2180, "pitch": 64, "duration": 1, "velocity": 89}, {"time": 2186, "pitch": 47, "duration": 21, "velocity": 86}, {"time": 2186, "pitch": 59, "duration": 8, "velocity": 84}, {"time": 2186, "pitch": 63, "duration": 8, "velocity": 85}, {"time": 2192, "pitch": 54, "duration": 14, "velocity": 82}, {"time": 2198, "pitch": 59, "duration": 3, "velocity": 86}, {"time": 2198, "pitch": 66, "duration": 2, "velocity": 84}, {"time": 2204, "pitch": 59, "duration": 4, "velocity": 69}, {"time": 2204, "pitch": 63, "duration": 3, "velocity": 84}, {"time": 2210, "pitch": 47, "duration": 14, "velocity": 86}, {"time": 2210, "pitch": 59, "duration": 3, "velocity": 67}, {"time": 2210, "pitch": 63, "duration": 5, "velocity": 85}, {"time": 2210, "pitch": 71, "duration": 9, "velocity": 88}, {"time": 2216, "pitch": 54, "duration": 8, "velocity": 70}, {"time": 2222, "pitch": 59, "duration": 3, "velocity": 85}, {"time": 2222, "pitch": 63, "duration": 3, "velocity": 95}, {"time": 2222, "pitch": 66, "duration": 4, "velocity": 86}, {"time": 2228, "pitch": 47, "duration": 1, "velocity": 85}, {"time": 2234, "pitch": 37, "duration": 2, "velocity": 86}, {"time": 2234, "pitch": 59, "duration": 9, "velocity": 85}, {"time": 2234, "pitch": 64, "duration": 9, "velocity": 81}, {"time": 2240, "pitch": 49, "duration": 32, "velocity": 77}, {"time": 2246, "pitch": 64, "duration": 5, "velocity": 86}, {"time": 2246, "pitch": 68, "duration": 6, "velocity": 87}, {"time": 2252, "pitch": 56, "duration": 8, "velocity": 75}, {"time": 2258, "pitch": 61, "duration": 5, "velocity": 85}, {"time": 2258, "pitch": 64, "duration": 6, "velocity": 89}, {"time": 2258, "pitch": 68, "duration": 6, "velocity": 88}, {"time": 2264, "pitch": 56, "duration": 8, "velocity": 73}, {"time": 2270, "pitch": 59, "duration": 4, "velocity": 90}, {"time": 2270, "pitch": 64, "duration": 5, "velocity": 90}, {"time": 2270, "pitch": 68, "duration": 7, "velocity": 86}, {"time": 2276, "pitch": 49, "duration": 2, "velocity": 86}, {"time": 2282, "pitch": 42, "duration": 21, "velocity": 86}, {"time": 2282, "pitch": 61, "duration": 4, "velocity": 85}, {"time": 2282, "pitch": 66, "duration": 8, "velocity": 84}, {"time": 2288, "pitch": 49, "duration": 14, "velocity": 76}, {"time": 2294, "pitch": 61, "duration": 9, "velocity": 88}, {"time": 2294, "pitch": 70, "duration": 5, "velocity": 87}, {"time": 2300, "pitch": 66, "duration": 3, "velocity": 88}, {"time": 2306, "pitch": 42, "duration": 21, "velocity": 85}, {"time": 2306, "pitch": 61, "duration": 3, "velocity": 86}, {"time": 2306, "pitch": 66, "duration": 7, "velocity": 87}, {"time": 2306, "pitch": 73, "duration": 7, "velocity": 95}, {"time": 2312, "pitch": 61, "duration": 2, "velocity": 90}, {"time": 2318, "pitch": 49, "duration": 10, "velocity": 80}, {"time": 2318, "pitch": 61, "duration": 2, "velocity": 89}, {"time": 2318, "pitch": 66, "duration": 11, "velocity": 85}, {"time": 2318, "pitch": 70, "duration": 10, "velocity": 86}, {"time": 2324, "pitch": 61, "duration": 5, "velocity": 80}, {"time": 2330, "pitch": 40, "duration": 9, "velocity": 85}, {"time": 2330, "pitch": 59, "duration": 1, "velocity": 80}, {"time": 2330, "pitch": 64, "duration": 6, "velocity": 85}, {"time": 2330, "pitch": 68, "duration": 6, "velocity": 84}, {"time": 2336, "pitch": 59, "duration": 5, "velocity": 70}, {"time": 2342, "pitch": 40, "duration": 7, "velocity": 83}, {"time": 2342, "pitch": 64, "duration": 6, "velocity": 85}, {"time": 2342, "pitch": 68, "duration": 6, "velocity": 86}, {"time": 2348, "pitch": 59, "duration": 6, "velocity": 85}, {"time": 2354, "pitch": 40, "duration": 8, "velocity": 84}, {"time": 2354, "pitch": 64, "duration": 7, "velocity": 85}, {"time": 2354, "pitch": 68, "duration": 7, "velocity": 85}, {"time": 2360, "pitch": 59, "duration": 7, "velocity": 69}, {"time": 2366, "pitch": 40, "duration": 10, "velocity": 84}, {"time": 2366, "pitch": 64, "duration": 6, "velocity": 85}, {"time": 2366, "pitch": 68, "duration": 7, "velocity": 88}, {"time": 2372, "pitch": 59, "duration": 2, "velocity": 84}, {"time": 2378, "pitch": 40, "duration": 8, "velocity": 80}, {"time": 2378, "pitch": 66, "duration": 7, "velocity": 84}, {"time": 2378, "pitch": 70, "duration": 7, "velocity": 89}, {"time": 2384, "pitch": 61, "duration": 6, "velocity": 78}, {"time": 2390, "pitch": 40, "duration": 7, "velocity": 81}, {"time": 2390, "pitch": 66, "duration": 7, "velocity": 84}, {"time": 2390, "pitch": 70, "duration": 7, "velocity": 86}, {"time": 2396, "pitch": 61, "duration": 6, "velocity": 84}, {"time": 2402, "pitch": 40, "duration": 7, "velocity": 80}, {"time": 2402, "pitch": 66, "duration": 8, "velocity": 79}, {"time": 2402, "pitch": 70, "duration": 7, "velocity": 85}, {"time": 2408, "pitch": 61, "duration": 6, "velocity": 79}, {"time": 2414, "pitch": 40, "duration": 4, "velocity": 83}, {"time": 2414, "pitch": 66, "duration": 8, "velocity": 84}, {"time": 2414, "pitch": 70, "duration": 8, "velocity": 89}, {"time": 2420, "pitch": 61, "duration": 3, "velocity": 80}, {"time": 2426, "pitch": 39, "duration": 8, "velocity": 87}, {"time": 2426, "pitch": 66, "duration": 7, "velocity": 84}, {"time": 2426, "pitch": 70, "duration": 7, "velocity": 90}, {"time": 2432, "pitch": 63, "duration": 4, "velocity": 82}, {"time": 2438, "pitch": 39, "duration": 8, "velocity": 85}, {"time": 2438, "pitch": 63, "duration": 2, "velocity": 87}, {"time": 2438, "pitch": 66, "duration": 7, "velocity": 82}, {"time": 2438, "pitch": 70, "duration": 7, "velocity": 83}, {"time": 2444, "pitch": 63, "duration": 5, "velocity": 82}, {"time": 2450, "pitch": 39, "duration": 8, "velocity": 79}, {"time": 2450, "pitch": 66, "duration": 7, "velocity": 84}, {"time": 2450, "pitch": 70, "duration": 7, "velocity": 84}, {"time": 2456, "pitch": 63, "duration": 4, "velocity": 80}, {"time": 2462, "pitch": 39, "duration": 3, "velocity": 84}, {"time": 2462, "pitch": 66, "duration": 6, "velocity": 85}, {"time": 2462, "pitch": 70, "duration": 6, "velocity": 87}, {"time": 2468, "pitch": 63, "duration": 2, "velocity": 86}, {"time": 2474, "pitch": 44, "duration": 10, "velocity": 84}, {"time": 2474, "pitch": 63, "duration": 3, "velocity": 86}, {"time": 2474, "pitch": 68, "duration": 6, "velocity": 85}, {"time": 2480, "pitch": 63, "duration": 4, "velocity": 85}, {"time": 2486, "pitch": 44, "duration": 3, "velocity": 77}, {"time": 2486, "pitch": 68, "duration": 8, "velocity": 87}, {"time": 2486, "pitch": 71, "duration": 7, "velocity": 90}, {"time": 2492, "pitch": 63, "duration": 6, "velocity": 89}, {"time": 2498, "pitch": 44, "duration": 7, "velocity": 83}, {"time": 2498, "pitch": 68, "duration": 8, "velocity": 85}, {"time": 2498, "pitch": 71, "duration": 7, "velocity": 85}, {"time": 2504, "pitch": 63, "duration": 5, "velocity": 85}, {"time": 2510, "pitch": 44, "duration": 1, "velocity": 85}, {"time": 2510, "pitch": 68, "duration": 6, "velocity": 85}, {"time": 2510, "pitch": 71, "duration": 6, "velocity": 93}, {"time": 2516, "pitch": 63, "duration": 2, "velocity": 71}, {"time": 2522, "pitch": 49, "duration": 8, "velocity": 87}, {"time": 2522, "pitch": 61, "duration": 1, "velocity": 76}, {"time": 2522, "pitch": 64, "duration": 7, "velocity": 85}, {"time": 2522, "pitch": 68, "duration": 7, "velocity": 87}, {"time": 2528, "pitch": 61, "duration": 3, "velocity": 84}, {"time": 2534, "pitch": 49, "duration": 8, "velocity": 83}, {"time": 2534, "pitch": 56, "duration": 8, "velocity": 73}, {"time": 2534, "pitch": 64, "duration": 4, "velocity": 84}, {"time": 2534, "pitch": 68, "duration": 3, "velocity": 84}, {"time": 2540, "pitch": 61, "duration": 6, "velocity": 86}, {"time": 2546, "pitch": 49, "duration": 7, "velocity": 85}, {"time": 2546, "pitch": 64, "duration": 6, "velocity": 84}, {"time": 2546, "pitch": 68, "duration": 7, "velocity": 86}, {"time": 2546, "pitch": 73, "duration": 6, "velocity": 89}, {"time": 2552, "pitch": 61, "duration": 3, "velocity": 79}, {"time": 2558, "pitch": 49, "duration": 2, "velocity": 85}, {"time": 2558, "pitch": 61, "duration": 1, "velocity": 78}, {"time": 2558, "pitch": 64, "duration": 6, "velocity": 95}, {"time": 2558, "pitch": 68, "duration": 6, "velocity": 89}, {"time": 2564, "pitch": 61, "duration": 3, "velocity": 86}, {"time": 2570, "pitch": 40, "duration": 9, "velocity": 84}, {"time": 2570, "pitch": 59, "duration": 1, "velocity": 81}, {"time": 2570, "pitch": 64, "duration": 7, "velocity": 84}, {"time": 2570, "pitch": 68, "duration": 6, "velocity": 81}, {"time": 2576, "pitch": 59, "duration": 3, "velocity": 83}, {"time": 2582, "pitch": 40, "duration": 8, "velocity": 82}, {"time": 2582, "pitch": 64, "duration": 6, "velocity": 86}, {"time": 2582, "pitch": 68, "duration": 5, "velocity": 87}, {"time": 2588, "pitch": 59, "duration": 4, "velocity": 87}, {"time": 2594, "pitch": 40, "duration": 8, "velocity": 84}, {"time": 2594, "pitch": 59, "duration": 3, "velocity": 89}, {"time": 2594, "pitch": 64, "duration": 8, "velocity": 91}, {"time": 2594, "pitch": 67, "duration": 9, "velocity": 88}, {"time": 2600, "pitch": 59, "duration": 3, "velocity": 85}, {"time": 2606, "pitch": 40, "duration": 2, "velocity": 84}, {"time": 2606, "pitch": 59, "duration": 2, "velocity": 88}, {"time": 2606, "pitch": 64, "duration": 6, "velocity": 93}, {"time": 2606, "pitch": 67, "duration": 6, "velocity": 90}, {"time": 2612, "pitch": 59, "duration": 2, "velocity": 85}, {"time": 2618, "pitch": 42, "duration": 8, "velocity": 84}, {"time": 2618, "pitch": 61, "duration": 2, "velocity": 90}, {"time": 2618, "pitch": 66, "duration": 7, "velocity": 88}, {"time": 2618, "pitch": 70, "duration": 7, "velocity": 88}, {"time": 2624, "pitch": 61, "duration": 3, "velocity": 80}, {"time": 2630, "pitch": 42, "duration": 6, "velocity": 81}, {"time": 2630, "pitch": 61, "duration": 1, "velocity": 85}, {"time": 2630, "pitch": 66, "duration": 7, "velocity": 85}, {"time": 2630, "pitch": 70, "duration": 7, "velocity": 86}, {"time": 2636, "pitch": 61, "duration": 3, "velocity": 84}, {"time": 2642, "pitch": 40, "duration": 1, "velocity": 84}, {"time": 2642, "pitch": 42, "duration": 8, "velocity": 84}, {"time": 2642, "pitch": 61, "duration": 3, "velocity": 86}, {"time": 2642, "pitch": 66, "duration": 9, "velocity": 85}, {"time": 2642, "pitch": 70, "duration": 9, "velocity": 85}, {"time": 2648, "pitch": 61, "duration": 2, "velocity": 81}, {"time": 2654, "pitch": 42, "duration": 4, "velocity": 85}, {"time": 2654, "pitch": 61, "duration": 2, "velocity": 98}, {"time": 2654, "pitch": 66, "duration": 5, "velocity": 90}, {"time": 2654, "pitch": 70, "duration": 6, "velocity": 93}, {"time": 2660, "pitch": 61, "duration": 1, "velocity": 77}, {"time": 2666, "pitch": 43, "duration": 4, "velocity": 95}, {"time": 2666, "pitch": 67, "duration": 3, "velocity": 85}, {"time": 2666, "pitch": 71, "duration": 3, "velocity": 85}, {"time": 2666, "pitch": 74, "duration": 4, "velocity": 84}, {"time": 2678, "pitch": 43, "duration": 3, "velocity": 91}, {"time": 2678, "pitch": 50, "duration": 3, "velocity": 93}, {"time": 2678, "pitch": 67, "duration": 2, "velocity": 93}, {"time": 2678, "pitch": 71, "duration": 3, "velocity": 91}, {"time": 2678, "pitch": 74, "duration": 3, "velocity": 91}, {"time": 2684, "pitch": 67, "duration": 3, "velocity": 85}, {"time": 2690, "pitch": 43, "duration": 19, "velocity": 86}, {"time": 2690, "pitch": 50, "duration": 19, "velocity": 85}, {"time": 2690, "pitch": 67, "duration": 21, "velocity": 86}, {"time": 2690, "pitch": 71, "duration": 20, "velocity": 95}, {"time": 2690, "pitch": 74, "duration": 21, "velocity": 88}, {"time": 2690, "pitch": 79, "duration": 21, "velocity": 84}, {"time": 2714, "pitch": 48, "duration": 40, "velocity": 89}, {"time": 2714, "pitch": 60, "duration": 4, "velocity": 86}, {"time": 2714, "pitch": 64, "duration": 5, "velocity": 93}, {"time": 2720, "pitch": 55, "duration": 7, "velocity": 72}, {"time": 2726, "pitch": 60, "duration": 10, "velocity": 90}, {"time": 2726, "pitch": 67, "duration": 3, "velocity": 90}, {"time": 2732, "pitch": 55, "duration": 9, "velocity": 78}, {"time": 2732, "pitch": 64, "duration": 4, "velocity": 84}, {"time": 2738, "pitch": 60, "duration": 1, "velocity": 71}, {"time": 2738, "pitch": 64, "duration": 1, "velocity": 82}, {"time": 2738, "pitch": 72, "duration": 9, "velocity": 90}, {"time": 2744, "pitch": 60, "duration": 4, "velocity": 75}, {"time": 2750, "pitch": 55, "duration": 4, "velocity": 81}, {"time": 2750, "pitch": 64, "duration": 6, "velocity": 98}, {"time": 2750, "pitch": 67, "duration": 7, "velocity": 87}, {"time": 2756, "pitch": 60, "duration": 1, "velocity": 86}, {"time": 2762, "pitch": 40, "duration": 3, "velocity": 86}, {"time": 2762, "pitch": 64, "duration": 3, "velocity": 83}, {"time": 2762, "pitch": 67, "duration": 7, "velocity": 80}, {"time": 2768, "pitch": 52, "duration": 32, "velocity": 73}, {"time": 2768, "pitch": 64, "duration": 4, "velocity": 77}, {"time": 2774, "pitch": 64, "duration": 4, "velocity": 98}, {"time": 2774, "pitch": 71, "duration": 5, "velocity": 88}, {"time": 2780, "pitch": 59, "duration": 21, "velocity": 76}, {"time": 2786, "pitch": 64, "duration": 2, "velocity": 84}, {"time": 2786, "pitch": 67, "duration": 6, "velocity": 85}, {"time": 2786, "pitch": 71, "duration": 6, "velocity": 85}, {"time": 2786, "pitch": 76, "duration": 5, "velocity": 91}, {"time": 2792, "pitch": 64, "duration": 3, "velocity": 86}, {"time": 2798, "pitch": 64, "duration": 2, "velocity": 95}, {"time": 2798, "pitch": 67, "duration": 4, "velocity": 91}, {"time": 2798, "pitch": 71, "duration": 8, "velocity": 89}, {"time": 2804, "pitch": 64, "duration": 2, "velocity": 88}, {"time": 2804, "pitch": 67, "duration": 1, "velocity": 30}, {"time": 2810, "pitch": 45, "duration": 22, "velocity": 84}, {"time": 2810, "pitch": 64, "duration": 2, "velocity": 87}, {"time": 2810, "pitch": 69, "duration": 7, "velocity": 85}, {"time": 2816, "pitch": 64, "duration": 4, "velocity": 84}, {"time": 2822, "pitch": 64, "duration": 9, "velocity": 88}, {"time": 2822, "pitch": 72, "duration": 5, "velocity": 82}, {"time": 2828, "pitch": 69, "duration": 4, "velocity": 74}, {"time": 2834, "pitch": 45, "duration": 19, "velocity": 86}, {"time": 2834, "pitch": 64, "duration": 1, "velocity": 81}, {"time": 2834, "pitch": 69, "duration": 6, "velocity": 79}, {"time": 2834, "pitch": 76, "duration": 9, "velocity": 93}, {"time": 2840, "pitch": 64, "duration": 3, "velocity": 86}, {"time": 2846, "pitch": 64, "duration": 1, "velocity": 90}, {"time": 2846, "pitch": 69, "duration": 6, "velocity": 93}, {"time": 2846, "pitch": 72, "duration": 6, "velocity": 90}, {"time": 2852, "pitch": 64, "duration": 2, "velocity": 90}, {"time": 2858, "pitch": 40, "duration": 4, "velocity": 79}, {"time": 2858, "pitch": 64, "duration": 2, "velocity": 86}, {"time": 2858, "pitch": 71, "duration": 9, "velocity": 85}, {"time": 2864, "pitch": 64, "duration": 3, "velocity": 82}, {"time": 2870, "pitch": 52, "duration": 10, "velocity": 78}, {"time": 2870, "pitch": 59, "duration": 10, "velocity": 79}, {"time": 2870, "pitch": 64, "duration": 2, "velocity": 88}, {"time": 2870, "pitch": 67, "duration": 6, "velocity": 80}, {"time": 2876, "pitch": 64, "duration": 3, "velocity": 86}, {"time": 2882, "pitch": 52, "duration": 16, "velocity": 90}, {"time": 2882, "pitch": 64, "duration": 9, "velocity": 91}, {"time": 2882, "pitch": 71, "duration": 9, "velocity": 85}, {"time": 2888, "pitch": 59, "duration": 8, "velocity": 83}, {"time": 2894, "pitch": 64, "duration": 2, "velocity": 98}, {"time": 2894, "pitch": 67, "duration": 5, "velocity": 88}, {"time": 2900, "pitch": 64, "duration": 1, "velocity": 86}, {"time": 2906, "pitch": 41, "duration": 22, "velocity": 85}, {"time": 2906, "pitch": 65, "duration": 6, "velocity": 84}, {"time": 2906, "pitch": 69, "duration": 9, "velocity": 85}, {"time": 2912, "pitch": 48, "duration": 14, "velocity": 78}, {"time": 2918, "pitch": 69, "duration": 5, "velocity": 86}, {"time": 2924, "pitch": 65, "duration": 4, "velocity": 86}, {"time": 2930, "pitch": 41, "duration": 15, "velocity": 83}, {"time": 2930, "pitch": 65, "duration": 4, "velocity": 85}, {"time": 2930, "pitch": 72, "duration": 10, "velocity": 87}, {"time": 2936, "pitch": 48, "duration": 8, "velocity": 73}, {"time": 2942, "pitch": 65, "duration": 2, "velocity": 86}, {"time": 2942, "pitch": 69, "duration": 6, "velocity": 89}, {"time": 2948, "pitch": 65, "duration": 1, "velocity": 89}, {"time": 2954, "pitch": 48, "duration": 21, "velocity": 86}, {"time": 2954, "pitch": 60, "duration": 8, "velocity": 84}, {"time": 2954, "pitch": 64, "duration": 8, "velocity": 85}, {"time": 2960, "pitch": 55, "duration": 14, "velocity": 82}, {"time": 2966, "pitch": 60, "duration": 3, "velocity": 86}, {"time": 2966, "pitch": 67, "duration": 2, "velocity": 84}, {"time": 2972, "pitch": 60, "duration": 4, "velocity": 69}, {"time": 2972, "pitch": 64, "duration": 3, "velocity": 84}, {"time": 2978, "pitch": 48, "duration": 14, "velocity": 86}, {"time": 2978, "pitch": 60, "duration": 3, "velocity": 67}, {"time": 2978, "pitch": 64, "duration": 5, "velocity": 85}, {"time": 2978, "pitch": 72, "duration": 9, "velocity": 88}, {"time": 2984, "pitch": 55, "duration": 8, "velocity": 70}, {"time": 2990, "pitch": 60, "duration": 3, "velocity": 85}, {"time": 2990, "pitch": 64, "duration": 3, "velocity": 95}, {"time": 2990, "pitch": 67, "duration": 4, "velocity": 86}, {"time": 2996, "pitch": 48, "duration": 1, "velocity": 85}, {"time": 3002, "pitch": 38, "duration": 2, "velocity": 86}, {"time": 3002, "pitch": 60, "duration": 9, "velocity": 85}, {"time": 3002, "pitch": 65, "duration": 9, "velocity": 81}, {"time": 3008, "pitch": 50, "duration": 32, "velocity": 77}, {"time": 3014, "pitch": 65, "duration": 5, "velocity": 86}, {"time": 3014, "pitch": 69, "duration": 6, "velocity": 87}, {"time": 3020, "pitch": 57, "duration": 8, "velocity": 75}, {"time": 3026, "pitch": 62, "duration": 5, "velocity": 85}, {"time": 3026, "pitch": 65, "duration": 6, "velocity": 89}, {"time": 3026, "pitch": 69, "duration": 6, "velocity": 88}, {"time": 3032, "pitch": 57, "duration": 8, "velocity": 73}, {"time": 3038, "pitch": 60, "duration": 4, "velocity": 90}, {"time": 3038, "pitch": 65, "duration": 5, "velocity": 90}, {"time": 3038, "pitch": 69, "duration": 7, "velocity": 86}, {"time": 3044, "pitch": 50, "duration": 2, "velocity": 86}, {"time": 3050, "pitch": 43, "duration": 21, "velocity": 86}, {"time": 3050, "pitch": 62, "duration": 4, "velocity": 85}, {"time": 3050, "pitch": 67, "duration": 8, "velocity": 84}, {"time": 3056, "pitch": 50, "duration": 14, "velocity": 76}, {"time": 3062, "pitch": 62, "duration": 9, "velocity": 88}, {"time": 3062, "pitch": 71, "duration": 5, "velocity": 87}, {"time": 3068, "pitch": 67, "duration": 3, "velocity": 88}, {"time": 3074, "pitch": 43, "duration": 21, "velocity": 85}, {"time": 3074, "pitch": 62, "duration": 3, "velocity": 86}, {"time": 3074, "pitch": 67, "duration": 7, "velocity": 87}, {"time": 3074, "pitch": 74, "duration": 7, "velocity": 95}, {"time": 3080, "pitch": 62, "duration": 2, "velocity": 90}, {"time": 3086, "pitch": 50, "duration": 10, "velocity": 80}, {"time": 3086, "pitch": 62, "duration": 2, "velocity": 89}, {"time": 3086, "pitch": 67, "duration": 11, "velocity": 85}, {"time": 3086, "pitch": 71, "duration": 10, "velocity": 86}, {"time": 3092, "pitch": 62, "duration": 5, "velocity": 80}, {"time": 3098, "pitch": 48, "duration": 43, "velocity": 85}, {"time": 3104, "pitch": 55, "duration": 15, "velocity": 74}, {"time": 3110, "pitch": 62, "duration": 5, "velocity": 80}, {"time": 3116, "pitch": 60, "duration": 10, "velocity": 80}, {"time": 3116, "pitch": 64, "duration": 9, "velocity": 86}, {"time": 3122, "pitch": 55, "duration": 21, "velocity": 67}, {"time": 3128, "pitch": 60, "duration": 23, "velocity": 86}, {"time": 3128, "pitch": 67, "duration": 23, "velocity": 84}, {"time": 3146, "pitch": 48, "duration": 45, "velocity": 86}, {"time": 3152, "pitch": 55, "duration": 27, "velocity": 68}, {"time": 3158, "pitch": 62, "duration": 4, "velocity": 72}, {"time": 3164, "pitch": 62, "duration": 10, "velocity": 81}, {"time": 3164, "pitch": 67, "duration": 13, "velocity": 86}, {"time": 3176, "pitch": 62, "duration": 9, "velocity": 85}, {"time": 3182, "pitch": 55, "duration": 10, "velocity": 62}, {"time": 3194, "pitch": 48, "duration": 44, "velocity": 85}, {"time": 3200, "pitch": 55, "duration": 25, "velocity": 73}, {"time": 3206, "pitch": 60, "duration": 4, "velocity": 86}, {"time": 3212, "pitch": 60, "duration": 10, "velocity": 85}, {"time": 3212, "pitch": 65, "duration": 9, "velocity": 80}, {"time": 3224, "pitch": 60, "duration": 9, "velocity": 85}, {"time": 3224, "pitch": 67, "duration": 21, "velocity": 79}, {"time": 3230, "pitch": 55, "duration": 9, "velocity": 60}, {"time": 3236, "pitch": 60, "duration": 19, "velocity": 78}, {"time": 3242, "pitch": 48, "duration": 46, "velocity": 85}, {"time": 3248, "pitch": 55, "duration": 34, "velocity": 69}, {"time": 3254, "pitch": 62, "duration": 4, "velocity": 74}, {"time": 3260, "pitch": 60, "duration": 30, "velocity": 84}, {"time": 3260, "pitch": 64, "duration": 1, "velocity": 78}, {"time": 3260, "pitch": 67, "duration": 30, "velocity": 84}], "annotations": [{"time": 31, "annotation": {"number": 64, "value": 127}, "group": "control_change"}, {"time": 72, "annotation": {"number": 64, "value": 0}, "group": "control_change"}, {"time": 79, "annotation": {"number": 64, "value": 127}, "group": "control_change"}, {"time": 122, "annotation": {"number": 64, "value": 0}, "group": "control_change"}, {"time": 126, "annotation": {"number": 64, "value": 127}, "group": "control_change"}, {"time": 167, "annotation": {"number": 64, "value": 0}, "group": "control_change"}, {"time": 171, "annotation": {"number": 64, "value": 127}, "group": "control_change"}, {"time": 217, "annotation": {"number": 64, "value": 0}, "group": "control_change"}, {"time": 218, "annotation": {"number": 64, "value": 127}, "group": "control_change"}, {"time": 264, "annotation": {"number": 64, "value": 0}, "group": "control_change"}, {"time": 265, "annotation": {"number": 64, "value": 127}, "group": "control_change"}, {"time": 313, "annotation": {"number": 64, "value": 0}, "group": "control_change"}, {"time": 315, "annotation": {"number": 64, "value": 127}, "group": "control_change"}, {"time": 338, "annotation": {"number": 64, "value": 0}, "group": "control_change"}, {"time": 341, "annotation": {"number": 64, "value": 127}, "group": "control_change"}, {"time": 361, "annotation": {"number": 64, "value": 0}, "group": "control_change"}, {"time": 366, "annotation": {"number": 64, "value": 127}, "group": "control_change"}, {"time": 408, "annotation": {"number": 64, "value": 0}, "group": "control_change"}, {"time": 414, "annotation": {"number": 64, "value": 127}, "group": "control_change"}, {"time": 457, "annotation": {"number": 64, "value": 0}, "group": "control_change"}, {"time": 458, "annotation": {"number": 64, "value": 127}, "group": "control_change"}, {"time": 505, "annotation": {"number": 64, "value": 0}, "group": "control_change"}, {"time": 506, "annotation": {"number": 64, "value": 127}, "group": "control_change"}, {"time": 529, "annotation": {"number": 64, "value": 0}, "group": "control_change"}, {"time": 534, "annotation": {"number": 64, "value": 127}, "group": "control_change"}, {"time": 554, "annotation": {"number": 64, "value": 0}, "group": "control_change"}, {"time": 559, "annotation": {"number": 64, "value": 127}, "group": "control_change"}, {"time": 600, "annotation": {"number": 64, "value": 0}, "group": "control_change"}, {"time": 647, "annotation": {"number": 64, "value": 0}, "group": "control_change"}, {"time": 649, "annotation": {"number": 64, "value": 127}, "group": "control_change"}, {"time": 697, "annotation": {"number": 64, "value": 0}, "group": "control_change"}, {"time": 697, "annotation": {"number": 64, "value": 127}, "group": "control_change"}, {"time": 720, "annotation": {"number": 64, "value": 0}, "group": "control_change"}, {"time": 724, "annotation": {"number": 64, "value": 127}, "group": "control_change"}, {"time": 745, "annotation": {"number": 64, "value": 0}, "group": "control_change"}, {"time": 750, "annotation": {"number": 64, "value": 127}, "group": "control_change"}, {"time": 768, "annotation": {"number": 64, "value": 0}, "group": "control_change"}, {"time": 770, "annotation": {"number": 64, "value": 127}, "group": "control_change"}, {"time": 791, "annotation": {"number": 64, "value": 0}, "group": "control_change"}, {"time": 793, "annotation": {"number": 64, "value": 127}, "group": "control_change"}, {"time": 841, "annotation": {"number": 64, "value": 0}, "group": "control_change"}, {"time": 847, "annotation": {"number": 64, "value": 127}, "group": "control_change"}, {"time": 888, "annotation": {"number": 64, "value": 0}, "group": "control_change"}, {"time": 890, "annotation": {"number": 64, "value": 127}, "group": "control_change"}, {"time": 936, "annotation": {"number": 64, "value": 0}, "group": "control_change"}, {"time": 939, "annotation": {"number": 64, "value": 127}, "group": "control_change"}, {"time": 985, "annotation": {"number": 64, "value": 0}, "group": "control_change"}, {"time": 986, "annotation": {"number": 64, "value": 127}, "group": "control_change"}, {"time": 1032, "annotation": {"number": 64, "value": 0}, "group": "control_change"}, {"time": 1034, "annotation": {"number": 64, "value": 127}, "group": "control_change"}, {"time": 1056, "annotation": {"number": 64, "value": 0}, "group": "control_change"}, {"time": 1057, "annotation": {"number": 64, "value": 127}, "group": "control_change"}, {"time": 1081, "annotation": {"number": 64, "value": 0}, "group": "control_change"}, {"time": 1083, "annotation": {"number": 64, "value": 127}, "group": "control_change"}, {"time": 1105, "annotation": {"number": 64, "value": 0}, "group": "control_change"}, {"time": 1105, "annotation": {"number": 64, "value": 127}, "group": "control_change"}, {"time": 1128, "annotation": {"number": 64, "value": 0}, "group": "control_change"}, {"time": 1130, "annotation": {"number": 64, "value": 127}, "group": "control_change"}, {"time": 1154, "annotation": {"number": 64, "value": 0}, "group": "control_change"}, {"time": 1158, "annotation": {"number": 64, "value": 127}, "group": "control_change"}, {"time": 1176, "annotation": {"number": 64, "value": 0}, "group": "control_change"}, {"time": 1180, "annotation": {"number": 64, "value": 127}, "group": "control_change"}, {"time": 1200, "annotation": {"number": 64, "value": 0}, "group": "control_change"}, {"time": 1201, "annotation": {"number": 64, "value": 127}, "group": "control_change"}, {"time": 1226, "annotation": {"number": 64, "value": 0}, "group": "control_change"}, {"time": 1230, "annotation": {"number": 64, "value": 127}, "group": "control_change"}, {"time": 1248, "annotation": {"number": 64, "value": 0}, "group": "control_change"}, {"time": 1249, "annotation": {"number": 64, "value": 127}, "group": "control_change"}, {"time": 1271, "annotation": {"number": 64, "value": 0}, "group": "control_change"}, {"time": 1273, "annotation": {"number": 64, "value": 127}, "group": "control_change"}, {"time": 1295, "annotation": {"number": 64, "value": 0}, "group": "control_change"}, {"time": 1295, "annotation": {"number": 64, "value": 127}, "group": "control_change"}, {"time": 1321, "annotation": {"number": 64, "value": 0}, "group": "control_change"}, {"time": 1324, "annotation": {"number": 64, "value": 127}, "group": "control_change"}, {"time": 1344, "annotation": {"number": 64, "value": 0}, "group": "control_change"}, {"time": 1345, "annotation": {"number": 64, "value": 127}, "group": "control_change"}, {"time": 1368, "annotation": {"number": 64, "value": 0}, "group": "control_change"}, {"time": 1375, "annotation": {"number": 64, "value": 127}, "group": "control_change"}, {"time": 1416, "annotation": {"number": 64, "value": 0}, "group": "control_change"}, {"time": 1423, "annotation": {"number": 64, "value": 127}, "group": "control_change"}, {"time": 1466, "annotation": {"number": 64, "value": 0}, "group": "control_change"}, {"time": 1470, "annotation": {"number": 64, "value": 127}, "group": "control_change"}, {"time": 1511, "annotation": {"number": 64, "value": 0}, "group": "control_change"}, {"time": 1515, "annotation": {"number": 64, "value": 127}, "group": "control_change"}, {"time": 1561, "annotation": {"number": 64, "value": 0}, "group": "control_change"}, {"time": 1607, "annotation": {"number": 64, "value": 0}, "group": "control_change"}, {"time": 1609, "annotation": {"number": 64, "value": 127}, "group": "control_change"}, {"time": 1657, "annotation": {"number": 64, "value": 0}, "group": "control_change"}, {"time": 1657, "annotation": {"number": 64, "value": 127}, "group": "control_change"}, {"time": 1680, "annotation": {"number": 64, "value": 0}, "group": "control_change"}, {"time": 1684, "annotation": {"number": 64, "value": 127}, "group": "control_change"}, {"time": 1705, "annotation": {"number": 64, "value": 0}, "group": "control_change"}, {"time": 1710, "annotation": {"number": 64, "value": 127}, "group": "control_change"}, {"time": 1728, "annotation": {"number": 64, "value": 0}, "group": "control_change"}, {"time": 1730, "annotation": {"number": 64, "value": 127}, "group": "control_change"}, {"time": 1751, "annotation": {"number": 64, "value": 0}, "group": "control_change"}, {"time": 1753, "annotation": {"number": 64, "value": 127}, "group": "control_change"}, {"time": 1801, "annotation": {"number": 64, "value": 0}, "group": "control_change"}, {"time": 1807, "annotation": {"number": 64, "value": 127}, "group": "control_change"}, {"time": 1848, "annotation": {"number": 64, "value": 0}, "group": "control_change"}, {"time": 1850, "annotation": {"number": 64, "value": 127}, "group": "control_change"}, {"time": 1896, "annotation": {"number": 64, "value": 0}, "group": "control_change"}, {"time": 1899, "annotation": {"number": 64, "value": 127}, "group": "control_change"}, {"time": 1945, "annotation": {"number": 64, "value": 0}, "group": "control_change"}, {"time": 1946, "annotation": {"number": 64, "value": 127}, "group": "control_change"}, {"time": 1992, "annotation": {"number": 64, "value": 0}, "group": "control_change"}, {"time": 1994, "annotation": {"number": 64, "value": 127}, "group": "control_change"}, {"time": 2016, "annotation": {"number": 64, "value": 0}, "group": "control_change"}, {"time": 2017, "annotation": {"number": 64, "value": 127}, "group": "control_change"}, {"time": 2041, "annotation": {"number": 64, "value": 0}, "group": "control_change"}, {"time": 2043, "annotation": {"number": 64, "value": 127}, "group": "control_change"}, {"time": 2065, "annotation": {"number": 64, "value": 0}, "group": "control_change"}, {"time": 2065, "annotation": {"number": 64, "value": 127}, "group": "control_change"}, {"time": 2088, "annotation": {"number": 64, "value": 0}, "group": "control_change"}, {"time": 2090, "annotation": {"number": 64, "value": 127}, "group": "control_change"}, {"time": 2114, "annotation": {"number": 64, "value": 0}, "group": "control_change"}, {"time": 2118, "annotation": {"number": 64, "value": 127}, "group": "control_change"}, {"time": 2136, "annotation": {"number": 64, "value": 0}, "group": "control_change"}, {"time": 2140, "annotation": {"number": 64, "value": 127}, "group": "control_change"}, {"time": 2160, "annotation": {"number": 64, "value": 0}, "group": "control_change"}, {"time": 2161, "annotation": {"number": 64, "value": 127}, "group": "control_change"}, {"time": 2186, "annotation": {"number": 64, "value": 0}, "group": "control_change"}, {"time": 2190, "annotation": {"number": 64, "value": 127}, "group": "control_change"}, {"time": 2208, "annotation": {"number": 64, "value": 0}, "group": "control_change"}, {"time": 2209, "annotation": {"number": 64, "value": 127}, "group": "control_change"}, {"time": 2231, "annotation": {"number": 64, "value": 0}, "group": "control_change"}, {"time": 2233, "annotation": {"number": 64, "value": 127}, "group": "control_change"}, {"time": 2255, "annotation": {"number": 64, "value": 0}, "group": "control_change"}, {"time": 2255, "annotation": {"number": 64, "value": 127}, "group": "control_change"}, {"time": 2281, "annotation": {"number": 64, "value": 0}, "group": "control_change"}, {"time": 2284, "annotation": {"number": 64, "value": 127}, "group": "control_change"}, {"time": 2304, "annotation": {"number": 64, "value": 0}, "group": "control_change"}, {"time": 2305, "annotation": {"number": 64, "value": 127}, "group": "control_change"}, {"time": 2328, "annotation": {"number": 64, "value": 0}, "group": "control_change"}, {"time": 2330, "annotation": {"number": 64, "value": 127}, "group": "control_change"}, {"time": 2351, "annotation": {"number": 64, "value": 0}, "group": "control_change"}, {"time": 2354, "annotation": {"number": 64, "value": 127}, "group": "control_change"}, {"time": 2376, "annotation": {"number": 64, "value": 0}, "group": "control_change"}, {"time": 2380, "annotation": {"number": 64, "value": 127}, "group": "control_change"}, {"time": 2398, "annotation": {"number": 64, "value": 0}, "group": "control_change"}, {"time": 2400, "annotation": {"number": 64, "value": 127}, "group": "control_change"}, {"time": 2423, "annotation": {"number": 64, "value": 0}, "group": "control_change"}, {"time": 2427, "annotation": {"number": 64, "value": 127}, "group": "control_change"}, {"time": 2448, "annotation": {"number": 64, "value": 0}, "group": "control_change"}, {"time": 2450, "annotation": {"number": 64, "value": 127}, "group": "control_change"}, {"time": 2473, "annotation": {"number": 64, "value": 0}, "group": "control_change"}, {"time": 2474, "annotation": {"number": 64, "value": 127}, "group": "control_change"}, {"time": 2495, "annotation": {"number": 64, "value": 0}, "group": "control_change"}, {"time": 2497, "annotation": {"number": 64, "value": 127}, "group": "control_change"}, {"time": 2521, "annotation": {"number": 64, "value": 0}, "group": "control_change"}, {"time": 2525, "annotation": {"number": 64, "value": 127}, "group": "control_change"}, {"time": 2544, "annotation": {"number": 64, "value": 0}, "group": "control_change"}, {"time": 2546, "annotation": {"number": 64, "value": 127}, "group": "control_change"}, {"time": 2568, "annotation": {"number": 64, "value": 0}, "group": "control_change"}, {"time": 2570, "annotation": {"number": 64, "value": 127}, "group": "control_change"}, {"time": 2592, "annotation": {"number": 64, "value": 0}, "group": "control_change"}, {"time": 2594, "annotation": {"number": 64, "value": 127}, "group": "control_change"}, {"time": 2616, "annotation": {"number": 64, "value": 0}, "group": "control_change"}, {"time": 2618, "annotation": {"number": 64, "value": 127}, "group": "control_change"}, {"time": 2664, "annotation": {"number": 64, "value": 0}, "group": "control_change"}, {"time": 2666, "annotation": {"number": 64, "value": 127}, "group": "control_change"}, {"time": 2688, "annotation": {"number": 64, "value": 0}, "group": "control_change"}, {"time": 2689, "annotation": {"number": 64, "value": 127}, "group": "control_change"}, {"time": 2710, "annotation": {"number": 64, "value": 0}, "group": "control_change"}, {"time": 2714, "annotation": {"number": 64, "value": 127}, "group": "control_change"}, {"time": 2760, "annotation": {"number": 64, "value": 0}, "group": "control_change"}, {"time": 2762, "annotation": {"number": 64, "value": 127}, "group": "control_change"}, {"time": 2784, "annotation": {"number": 64, "value": 0}, "group": "control_change"}, {"time": 2785, "annotation": {"number": 64, "value": 127}, "group": "control_change"}, {"time": 2809, "annotation": {"number": 64, "value": 0}, "group": "control_change"}, {"time": 2811, "annotation": {"number": 64, "value": 127}, "group": "control_change"}, {"time": 2833, "annotation": {"number": 64, "value": 0}, "group": "control_change"}, {"time": 2833, "annotation": {"number": 64, "value": 127}, "group": "control_change"}, {"time": 2856, "annotation": {"number": 64, "value": 0}, "group": "control_change"}, {"time": 2858, "annotation": {"number": 64, "value": 127}, "group": "control_change"}, {"time": 2882, "annotation": {"number": 64, "value": 0}, "group": "control_change"}, {"time": 2886, "annotation": {"number": 64, "value": 127}, "group": "control_change"}, {"time": 2904, "annotation": {"number": 64, "value": 0}, "group": "control_change"}, {"time": 2908, "annotation": {"number": 64, "value": 127}, "group": "control_change"}, {"time": 2928, "annotation": {"number": 64, "value": 0}, "group": "control_change"}, {"time": 2929, "annotation": {"number": 64, "value": 127}, "group": "control_change"}, {"time": 2954, "annotation": {"number": 64, "value": 0}, "group": "control_change"}, {"time": 2958, "annotation": {"number": 64, "value": 127}, "group": "control_change"}, {"time": 2976, "annotation": {"number": 64, "value": 0}, "group": "control_change"}, {"time": 2977, "annotation": {"number": 64, "value": 127}, "group": "control_change"}, {"time": 2999, "annotation": {"number": 64, "value": 0}, "group": "control_change"}, {"time": 3001, "annotation": {"number": 64, "value": 127}, "group": "control_change"}, {"time": 3023, "annotation": {"number": 64, "value": 0}, "group": "control_change"}, {"time": 3023, "annotation": {"number": 64, "value": 127}, "group": "control_change"}, {"time": 3049, "annotation": {"number": 64, "value": 0}, "group": "control_change"}, {"time": 3052, "annotation": {"number": 64, "value": 127}, "group": "control_change"}, {"time": 3072, "annotation": {"number": 64, "value": 0}, "group": "control_change"}, {"time": 3073, "annotation": {"number": 64, "value": 127}, "group": "control_change"}, {"time": 3096, "annotation": {"number": 64, "value": 0}, "group": "control_change"}, {"time": 3103, "annotation": {"number": 64, "value": 127}, "group": "control_change"}, {"time": 3144, "annotation": {"number": 64, "value": 0}, "group": "control_change"}, {"time": 3151, "annotation": {"number": 64, "value": 127}, "group": "control_change"}, {"time": 3194, "annotation": {"number": 64, "value": 0}, "group": "control_change"}, {"time": 3198, "annotation": {"number": 64, "value": 127}, "group": "control_change"}, {"time": 3239, "annotation": {"number": 64, "value": 0}, "group": "control_change"}, {"time": 3243, "annotation": {"number": 64, "value": 127}, "group": "control_change"}, {"time": 3289, "annotation": {"number": 64, "value": 0}, "group": "control_change"}]}]}