{"metadata": {"schema_version": "0.2", "title": "None", "source_filename": "402.mid", "source_format": "midi"}, "resolution": 12, "tempos": [{"time": 0, "qpm": 78.00017940041262}, {"time": 4477, "qpm": 79.00006978339498}, {"time": 4484, "qpm": 80.0}, {"time": 4490, "qpm": 80.25005918441865}, {"time": 4500, "qpm": 78.00017940041262}], "time_signatures": [{"time": 0, "numerator": 1, "denominator": 4}], "tracks": [{"program": 0, "is_drum": false, "name": "MELODY", "notes": [{"time": 503, "pitch": 77, "duration": 9, "velocity": 102}, {"time": 512, "pitch": 77, "duration": 3, "velocity": 87}, {"time": 515, "pitch": 77, "duration": 6, "velocity": 94}, {"time": 521, "pitch": 79, "duration": 6, "velocity": 97}, {"time": 527, "pitch": 81, "duration": 6, "velocity": 105}, {"time": 533, "pitch": 79, "duration": 6, "velocity": 97}, {"time": 539, "pitch": 77, "duration": 6, "velocity": 102}, {"time": 545, "pitch": 74, "duration": 6, "velocity": 97}, {"time": 551, "pitch": 72, "duration": 48, "velocity": 87}, {"time": 599, "pitch": 81, "duration": 6, "velocity": 82}, {"time": 605, "pitch": 81, "duration": 6, "velocity": 97}, {"time": 611, "pitch": 81, "duration": 6, "velocity": 102}, {"time": 617, "pitch": 84, "duration": 6, "velocity": 102}, {"time": 623, "pitch": 86, "duration": 6, "velocity": 100}, {"time": 629, "pitch": 84, "duration": 6, "velocity": 100}, {"time": 635, "pitch": 84, "duration": 6, "velocity": 105}, {"time": 641, "pitch": 77, "duration": 6, "velocity": 111}, {"time": 647, "pitch": 79, "duration": 48, "velocity": 102}, {"time": 695, "pitch": 81, "duration": 12, "velocity": 97}, {"time": 707, "pitch": 81, "duration": 6, "velocity": 105}, {"time": 713, "pitch": 81, "duration": 6, "velocity": 105}, {"time": 719, "pitch": 84, "duration": 18, "velocity": 97}, {"time": 737, "pitch": 81, "duration": 6, "velocity": 97}, {"time": 743, "pitch": 79, "duration": 6, "velocity": 100}, {"time": 749, "pitch": 81, "duration": 6, "velocity": 102}, {"time": 755, "pitch": 84, "duration": 6, "velocity": 111}, {"time": 761, "pitch": 76, "duration": 6, "velocity": 105}, {"time": 767, "pitch": 74, "duration": 24, "velocity": 108}, {"time": 791, "pitch": 74, "duration": 6, "velocity": 102}, {"time": 797, "pitch": 84, "duration": 6, "velocity": 97}, {"time": 803, "pitch": 84, "duration": 6, "velocity": 105}, {"time": 809, "pitch": 81, "duration": 6, "velocity": 100}, {"time": 815, "pitch": 79, "duration": 6, "velocity": 97}, {"time": 821, "pitch": 81, "duration": 6, "velocity": 100}, {"time": 827, "pitch": 79, "duration": 6, "velocity": 102}, {"time": 833, "pitch": 74, "duration": 6, "velocity": 100}, {"time": 839, "pitch": 77, "duration": 48, "velocity": 94}, {"time": 887, "pitch": 77, "duration": 9, "velocity": 102}, {"time": 896, "pitch": 77, "duration": 3, "velocity": 87}, {"time": 899, "pitch": 77, "duration": 6, "velocity": 94}, {"time": 905, "pitch": 79, "duration": 6, "velocity": 97}, {"time": 911, "pitch": 81, "duration": 6, "velocity": 105}, {"time": 917, "pitch": 79, "duration": 6, "velocity": 97}, {"time": 923, "pitch": 77, "duration": 6, "velocity": 102}, {"time": 929, "pitch": 74, "duration": 6, "velocity": 97}, {"time": 935, "pitch": 72, "duration": 48, "velocity": 87}, {"time": 983, "pitch": 81, "duration": 6, "velocity": 82}, {"time": 989, "pitch": 81, "duration": 6, "velocity": 97}, {"time": 995, "pitch": 81, "duration": 6, "velocity": 102}, {"time": 1001, "pitch": 84, "duration": 6, "velocity": 102}, {"time": 1007, "pitch": 86, "duration": 6, "velocity": 100}, {"time": 1013, "pitch": 84, "duration": 6, "velocity": 100}, {"time": 1019, "pitch": 84, "duration": 6, "velocity": 105}, {"time": 1025, "pitch": 77, "duration": 6, "velocity": 111}, {"time": 1031, "pitch": 79, "duration": 48, "velocity": 102}, {"time": 1079, "pitch": 81, "duration": 12, "velocity": 97}, {"time": 1091, "pitch": 79, "duration": 6, "velocity": 105}, {"time": 1097, "pitch": 81, "duration": 6, "velocity": 105}, {"time": 1103, "pitch": 84, "duration": 12, "velocity": 97}, {"time": 1115, "pitch": 84, "duration": 6, "velocity": 114}, {"time": 1121, "pitch": 81, "duration": 6, "velocity": 97}, {"time": 1127, "pitch": 79, "duration": 6, "velocity": 100}, {"time": 1133, "pitch": 81, "duration": 6, "velocity": 102}, {"time": 1139, "pitch": 81, "duration": 6, "velocity": 111}, {"time": 1145, "pitch": 76, "duration": 6, "velocity": 105}, {"time": 1151, "pitch": 74, "duration": 24, "velocity": 108}, {"time": 1175, "pitch": 74, "duration": 6, "velocity": 102}, {"time": 1181, "pitch": 84, "duration": 6, "velocity": 97}, {"time": 1187, "pitch": 84, "duration": 6, "velocity": 105}, {"time": 1193, "pitch": 81, "duration": 6, "velocity": 100}, {"time": 1199, "pitch": 79, "duration": 6, "velocity": 97}, {"time": 1205, "pitch": 81, "duration": 6, "velocity": 100}, {"time": 1211, "pitch": 79, "duration": 6, "velocity": 102}, {"time": 1217, "pitch": 74, "duration": 6, "velocity": 100}, {"time": 1223, "pitch": 77, "duration": 48, "velocity": 94}, {"time": 1271, "pitch": 84, "duration": 6, "velocity": 108}, {"time": 1277, "pitch": 84, "duration": 6, "velocity": 105}, {"time": 1283, "pitch": 84, "duration": 6, "velocity": 108}, {"time": 1289, "pitch": 86, "duration": 6, "velocity": 108}, {"time": 1295, "pitch": 89, "duration": 6, "velocity": 102}, {"time": 1301, "pitch": 88, "duration": 6, "velocity": 100}, {"time": 1307, "pitch": 86, "duration": 6, "velocity": 82}, {"time": 1313, "pitch": 81, "duration": 6, "velocity": 108}, {"time": 1319, "pitch": 84, "duration": 48, "velocity": 117}, {"time": 1367, "pitch": 84, "duration": 6, "velocity": 105}, {"time": 1373, "pitch": 84, "duration": 6, "velocity": 111}, {"time": 1379, "pitch": 84, "duration": 6, "velocity": 111}, {"time": 1385, "pitch": 86, "duration": 6, "velocity": 102}, {"time": 1391, "pitch": 89, "duration": 6, "velocity": 111}, {"time": 1397, "pitch": 88, "duration": 6, "velocity": 94}, {"time": 1403, "pitch": 86, "duration": 6, "velocity": 87}, {"time": 1409, "pitch": 81, "duration": 6, "velocity": 117}, {"time": 1415, "pitch": 79, "duration": 48, "velocity": 100}, {"time": 1463, "pitch": 81, "duration": 12, "velocity": 111}, {"time": 1475, "pitch": 79, "duration": 6, "velocity": 102}, {"time": 1481, "pitch": 81, "duration": 6, "velocity": 105}, {"time": 1487, "pitch": 84, "duration": 12, "velocity": 108}, {"time": 1499, "pitch": 84, "duration": 6, "velocity": 102}, {"time": 1505, "pitch": 81, "duration": 6, "velocity": 111}, {"time": 1511, "pitch": 79, "duration": 6, "velocity": 108}, {"time": 1517, "pitch": 81, "duration": 6, "velocity": 100}, {"time": 1523, "pitch": 81, "duration": 6, "velocity": 105}, {"time": 1529, "pitch": 76, "duration": 6, "velocity": 100}, {"time": 1535, "pitch": 74, "duration": 18, "velocity": 97}, {"time": 1553, "pitch": 72, "duration": 6, "velocity": 108}, {"time": 1559, "pitch": 84, "duration": 6, "velocity": 108}, {"time": 1565, "pitch": 84, "duration": 3, "velocity": 102}, {"time": 1568, "pitch": 84, "duration": 3, "velocity": 102}, {"time": 1571, "pitch": 84, "duration": 6, "velocity": 105}, {"time": 1577, "pitch": 81, "duration": 6, "velocity": 111}, {"time": 1583, "pitch": 79, "duration": 6, "velocity": 108}, {"time": 1589, "pitch": 77, "duration": 6, "velocity": 111}, {"time": 1595, "pitch": 79, "duration": 6, "velocity": 111}, {"time": 1601, "pitch": 86, "duration": 6, "velocity": 108}, {"time": 1607, "pitch": 84, "duration": 48, "velocity": 105}, {"time": 1655, "pitch": 84, "duration": 6, "velocity": 117}, {"time": 1661, "pitch": 84, "duration": 12, "velocity": 111}, {"time": 1673, "pitch": 86, "duration": 6, "velocity": 105}, {"time": 1679, "pitch": 89, "duration": 9, "velocity": 100}, {"time": 1688, "pitch": 89, "duration": 9, "velocity": 108}, {"time": 1697, "pitch": 88, "duration": 6, "velocity": 89}, {"time": 1703, "pitch": 86, "duration": 18, "velocity": 105}, {"time": 1721, "pitch": 81, "duration": 6, "velocity": 105}, {"time": 1727, "pitch": 84, "duration": 24, "velocity": 92}, {"time": 1751, "pitch": 86, "duration": 6, "velocity": 97}, {"time": 1757, "pitch": 86, "duration": 6, "velocity": 105}, {"time": 1763, "pitch": 86, "duration": 6, "velocity": 105}, {"time": 1769, "pitch": 89, "duration": 6, "velocity": 111}, {"time": 1775, "pitch": 86, "duration": 6, "velocity": 108}, {"time": 1781, "pitch": 84, "duration": 3, "velocity": 94}, {"time": 1784, "pitch": 84, "duration": 3, "velocity": 94}, {"time": 1787, "pitch": 84, "duration": 6, "velocity": 102}, {"time": 1793, "pitch": 81, "duration": 6, "velocity": 108}, {"time": 1799, "pitch": 79, "duration": 48, "velocity": 94}, {"time": 1847, "pitch": 79, "duration": 9, "velocity": 105}, {"time": 1856, "pitch": 79, "duration": 9, "velocity": 111}, {"time": 1865, "pitch": 81, "duration": 6, "velocity": 114}, {"time": 1871, "pitch": 84, "duration": 9, "velocity": 114}, {"time": 1880, "pitch": 84, "duration": 9, "velocity": 114}, {"time": 1889, "pitch": 81, "duration": 6, "velocity": 108}, {"time": 1895, "pitch": 79, "duration": 9, "velocity": 105}, {"time": 1904, "pitch": 81, "duration": 9, "velocity": 102}, {"time": 1913, "pitch": 76, "duration": 6, "velocity": 97}, {"time": 1919, "pitch": 74, "duration": 24, "velocity": 105}, {"time": 1943, "pitch": 72, "duration": 6, "velocity": 108}, {"time": 1949, "pitch": 84, "duration": 6, "velocity": 97}, {"time": 1955, "pitch": 84, "duration": 6, "velocity": 89}, {"time": 1961, "pitch": 81, "duration": 6, "velocity": 105}, {"time": 1967, "pitch": 79, "duration": 6, "velocity": 108}, {"time": 1973, "pitch": 81, "duration": 6, "velocity": 105}, {"time": 1979, "pitch": 79, "duration": 6, "velocity": 97}, {"time": 1985, "pitch": 74, "duration": 6, "velocity": 94}, {"time": 1991, "pitch": 77, "duration": 48, "velocity": 102}, {"time": 2519, "pitch": 77, "duration": 9, "velocity": 102}, {"time": 2528, "pitch": 77, "duration": 3, "velocity": 87}, {"time": 2531, "pitch": 77, "duration": 6, "velocity": 94}, {"time": 2537, "pitch": 79, "duration": 6, "velocity": 97}, {"time": 2543, "pitch": 81, "duration": 6, "velocity": 105}, {"time": 2549, "pitch": 79, "duration": 6, "velocity": 97}, {"time": 2555, "pitch": 77, "duration": 6, "velocity": 102}, {"time": 2561, "pitch": 74, "duration": 6, "velocity": 97}, {"time": 2567, "pitch": 72, "duration": 48, "velocity": 87}, {"time": 2615, "pitch": 81, "duration": 6, "velocity": 82}, {"time": 2621, "pitch": 81, "duration": 6, "velocity": 97}, {"time": 2627, "pitch": 81, "duration": 6, "velocity": 102}, {"time": 2633, "pitch": 84, "duration": 6, "velocity": 102}, {"time": 2639, "pitch": 86, "duration": 6, "velocity": 100}, {"time": 2645, "pitch": 84, "duration": 6, "velocity": 100}, {"time": 2651, "pitch": 84, "duration": 6, "velocity": 105}, {"time": 2657, "pitch": 77, "duration": 6, "velocity": 111}, {"time": 2663, "pitch": 79, "duration": 48, "velocity": 102}, {"time": 2711, "pitch": 81, "duration": 12, "velocity": 97}, {"time": 2723, "pitch": 79, "duration": 6, "velocity": 105}, {"time": 2729, "pitch": 81, "duration": 6, "velocity": 105}, {"time": 2735, "pitch": 84, "duration": 12, "velocity": 97}, {"time": 2747, "pitch": 84, "duration": 6, "velocity": 114}, {"time": 2753, "pitch": 81, "duration": 6, "velocity": 97}, {"time": 2759, "pitch": 79, "duration": 6, "velocity": 100}, {"time": 2765, "pitch": 81, "duration": 6, "velocity": 102}, {"time": 2771, "pitch": 81, "duration": 6, "velocity": 111}, {"time": 2777, "pitch": 76, "duration": 6, "velocity": 105}, {"time": 2783, "pitch": 74, "duration": 24, "velocity": 108}, {"time": 2807, "pitch": 74, "duration": 6, "velocity": 102}, {"time": 2813, "pitch": 84, "duration": 6, "velocity": 97}, {"time": 2819, "pitch": 84, "duration": 6, "velocity": 105}, {"time": 2825, "pitch": 81, "duration": 6, "velocity": 100}, {"time": 2831, "pitch": 79, "duration": 6, "velocity": 97}, {"time": 2837, "pitch": 81, "duration": 6, "velocity": 100}, {"time": 2843, "pitch": 79, "duration": 6, "velocity": 102}, {"time": 2849, "pitch": 74, "duration": 6, "velocity": 100}, {"time": 2855, "pitch": 77, "duration": 48, "velocity": 94}, {"time": 2903, "pitch": 84, "duration": 6, "velocity": 108}, {"time": 2909, "pitch": 84, "duration": 6, "velocity": 105}, {"time": 2915, "pitch": 84, "duration": 6, "velocity": 108}, {"time": 2921, "pitch": 86, "duration": 6, "velocity": 108}, {"time": 2927, "pitch": 89, "duration": 6, "velocity": 102}, {"time": 2933, "pitch": 88, "duration": 6, "velocity": 100}, {"time": 2939, "pitch": 86, "duration": 6, "velocity": 82}, {"time": 2945, "pitch": 81, "duration": 6, "velocity": 108}, {"time": 2951, "pitch": 84, "duration": 48, "velocity": 117}, {"time": 2999, "pitch": 84, "duration": 6, "velocity": 105}, {"time": 3005, "pitch": 84, "duration": 6, "velocity": 111}, {"time": 3011, "pitch": 84, "duration": 6, "velocity": 111}, {"time": 3017, "pitch": 86, "duration": 6, "velocity": 102}, {"time": 3023, "pitch": 89, "duration": 6, "velocity": 111}, {"time": 3029, "pitch": 88, "duration": 6, "velocity": 94}, {"time": 3035, "pitch": 86, "duration": 6, "velocity": 87}, {"time": 3041, "pitch": 81, "duration": 6, "velocity": 117}, {"time": 3047, "pitch": 79, "duration": 48, "velocity": 100}, {"time": 3095, "pitch": 81, "duration": 12, "velocity": 111}, {"time": 3107, "pitch": 79, "duration": 6, "velocity": 102}, {"time": 3113, "pitch": 81, "duration": 6, "velocity": 105}, {"time": 3119, "pitch": 84, "duration": 12, "velocity": 108}, {"time": 3131, "pitch": 84, "duration": 6, "velocity": 102}, {"time": 3137, "pitch": 81, "duration": 6, "velocity": 111}, {"time": 3143, "pitch": 79, "duration": 6, "velocity": 108}, {"time": 3149, "pitch": 81, "duration": 6, "velocity": 100}, {"time": 3155, "pitch": 81, "duration": 6, "velocity": 105}, {"time": 3161, "pitch": 76, "duration": 6, "velocity": 100}, {"time": 3167, "pitch": 74, "duration": 18, "velocity": 97}, {"time": 3185, "pitch": 72, "duration": 6, "velocity": 108}, {"time": 3191, "pitch": 84, "duration": 6, "velocity": 108}, {"time": 3197, "pitch": 84, "duration": 3, "velocity": 102}, {"time": 3200, "pitch": 84, "duration": 3, "velocity": 102}, {"time": 3203, "pitch": 84, "duration": 6, "velocity": 105}, {"time": 3209, "pitch": 81, "duration": 6, "velocity": 111}, {"time": 3215, "pitch": 79, "duration": 6, "velocity": 108}, {"time": 3221, "pitch": 77, "duration": 6, "velocity": 111}, {"time": 3227, "pitch": 79, "duration": 6, "velocity": 111}, {"time": 3233, "pitch": 86, "duration": 6, "velocity": 108}, {"time": 3239, "pitch": 84, "duration": 48, "velocity": 105}, {"time": 3287, "pitch": 84, "duration": 6, "velocity": 117}, {"time": 3293, "pitch": 84, "duration": 12, "velocity": 111}, {"time": 3305, "pitch": 86, "duration": 6, "velocity": 105}, {"time": 3311, "pitch": 89, "duration": 9, "velocity": 100}, {"time": 3320, "pitch": 89, "duration": 9, "velocity": 108}, {"time": 3329, "pitch": 88, "duration": 6, "velocity": 89}, {"time": 3335, "pitch": 86, "duration": 18, "velocity": 105}, {"time": 3353, "pitch": 81, "duration": 6, "velocity": 105}, {"time": 3359, "pitch": 84, "duration": 24, "velocity": 92}, {"time": 3383, "pitch": 86, "duration": 6, "velocity": 97}, {"time": 3389, "pitch": 86, "duration": 6, "velocity": 105}, {"time": 3395, "pitch": 86, "duration": 6, "velocity": 105}, {"time": 3401, "pitch": 89, "duration": 6, "velocity": 111}, {"time": 3407, "pitch": 86, "duration": 6, "velocity": 108}, {"time": 3413, "pitch": 84, "duration": 3, "velocity": 94}, {"time": 3416, "pitch": 84, "duration": 3, "velocity": 94}, {"time": 3419, "pitch": 84, "duration": 6, "velocity": 102}, {"time": 3425, "pitch": 81, "duration": 6, "velocity": 108}, {"time": 3431, "pitch": 79, "duration": 48, "velocity": 94}, {"time": 3479, "pitch": 79, "duration": 9, "velocity": 105}, {"time": 3488, "pitch": 79, "duration": 9, "velocity": 111}, {"time": 3497, "pitch": 81, "duration": 6, "velocity": 114}, {"time": 3503, "pitch": 84, "duration": 9, "velocity": 114}, {"time": 3512, "pitch": 84, "duration": 9, "velocity": 114}, {"time": 3521, "pitch": 81, "duration": 6, "velocity": 108}, {"time": 3527, "pitch": 79, "duration": 9, "velocity": 105}, {"time": 3536, "pitch": 81, "duration": 9, "velocity": 102}, {"time": 3545, "pitch": 76, "duration": 6, "velocity": 97}, {"time": 3551, "pitch": 74, "duration": 24, "velocity": 105}, {"time": 3575, "pitch": 72, "duration": 6, "velocity": 108}, {"time": 3581, "pitch": 84, "duration": 6, "velocity": 97}, {"time": 3587, "pitch": 84, "duration": 6, "velocity": 89}, {"time": 3593, "pitch": 81, "duration": 6, "velocity": 105}, {"time": 3599, "pitch": 79, "duration": 6, "velocity": 108}, {"time": 3605, "pitch": 81, "duration": 6, "velocity": 105}, {"time": 3611, "pitch": 79, "duration": 6, "velocity": 97}, {"time": 3617, "pitch": 74, "duration": 6, "velocity": 94}, {"time": 3623, "pitch": 77, "duration": 48, "velocity": 102}, {"time": 3671, "pitch": 84, "duration": 6, "velocity": 108}, {"time": 3677, "pitch": 84, "duration": 6, "velocity": 105}, {"time": 3683, "pitch": 84, "duration": 6, "velocity": 108}, {"time": 3689, "pitch": 86, "duration": 6, "velocity": 108}, {"time": 3695, "pitch": 89, "duration": 6, "velocity": 102}, {"time": 3701, "pitch": 88, "duration": 6, "velocity": 100}, {"time": 3707, "pitch": 86, "duration": 6, "velocity": 82}, {"time": 3713, "pitch": 81, "duration": 6, "velocity": 108}, {"time": 3719, "pitch": 84, "duration": 48, "velocity": 117}, {"time": 3767, "pitch": 84, "duration": 6, "velocity": 105}, {"time": 3773, "pitch": 84, "duration": 6, "velocity": 111}, {"time": 3779, "pitch": 84, "duration": 6, "velocity": 111}, {"time": 3785, "pitch": 86, "duration": 6, "velocity": 102}, {"time": 3791, "pitch": 89, "duration": 6, "velocity": 111}, {"time": 3797, "pitch": 88, "duration": 6, "velocity": 94}, {"time": 3803, "pitch": 86, "duration": 6, "velocity": 87}, {"time": 3809, "pitch": 81, "duration": 6, "velocity": 117}, {"time": 3815, "pitch": 79, "duration": 48, "velocity": 100}, {"time": 3863, "pitch": 81, "duration": 12, "velocity": 111}, {"time": 3875, "pitch": 79, "duration": 6, "velocity": 102}, {"time": 3881, "pitch": 81, "duration": 6, "velocity": 105}, {"time": 3887, "pitch": 84, "duration": 12, "velocity": 108}, {"time": 3899, "pitch": 84, "duration": 6, "velocity": 102}, {"time": 3905, "pitch": 81, "duration": 6, "velocity": 111}, {"time": 3911, "pitch": 79, "duration": 6, "velocity": 108}, {"time": 3917, "pitch": 81, "duration": 6, "velocity": 100}, {"time": 3923, "pitch": 81, "duration": 6, "velocity": 105}, {"time": 3929, "pitch": 76, "duration": 6, "velocity": 100}, {"time": 3935, "pitch": 74, "duration": 18, "velocity": 97}, {"time": 3953, "pitch": 72, "duration": 6, "velocity": 108}, {"time": 3959, "pitch": 84, "duration": 6, "velocity": 108}, {"time": 3965, "pitch": 84, "duration": 3, "velocity": 102}, {"time": 3968, "pitch": 84, "duration": 3, "velocity": 102}, {"time": 3971, "pitch": 84, "duration": 6, "velocity": 105}, {"time": 3977, "pitch": 81, "duration": 6, "velocity": 111}, {"time": 3983, "pitch": 79, "duration": 6, "velocity": 108}, {"time": 3989, "pitch": 77, "duration": 6, "velocity": 111}, {"time": 3995, "pitch": 79, "duration": 6, "velocity": 111}, {"time": 4001, "pitch": 86, "duration": 6, "velocity": 108}, {"time": 4007, "pitch": 84, "duration": 48, "velocity": 105}, {"time": 4055, "pitch": 84, "duration": 6, "velocity": 117}, {"time": 4061, "pitch": 84, "duration": 12, "velocity": 111}, {"time": 4073, "pitch": 86, "duration": 6, "velocity": 105}, {"time": 4079, "pitch": 89, "duration": 9, "velocity": 100}, {"time": 4088, "pitch": 89, "duration": 9, "velocity": 108}, {"time": 4097, "pitch": 88, "duration": 6, "velocity": 89}, {"time": 4103, "pitch": 86, "duration": 18, "velocity": 105}, {"time": 4121, "pitch": 81, "duration": 6, "velocity": 105}, {"time": 4127, "pitch": 84, "duration": 24, "velocity": 92}, {"time": 4151, "pitch": 86, "duration": 6, "velocity": 97}, {"time": 4157, "pitch": 86, "duration": 6, "velocity": 105}, {"time": 4163, "pitch": 86, "duration": 6, "velocity": 105}, {"time": 4169, "pitch": 89, "duration": 6, "velocity": 111}, {"time": 4175, "pitch": 86, "duration": 6, "velocity": 108}, {"time": 4181, "pitch": 84, "duration": 3, "velocity": 94}, {"time": 4184, "pitch": 84, "duration": 3, "velocity": 94}, {"time": 4187, "pitch": 84, "duration": 6, "velocity": 102}, {"time": 4193, "pitch": 81, "duration": 6, "velocity": 108}, {"time": 4199, "pitch": 79, "duration": 48, "velocity": 94}, {"time": 4247, "pitch": 79, "duration": 9, "velocity": 105}, {"time": 4256, "pitch": 79, "duration": 9, "velocity": 111}, {"time": 4265, "pitch": 81, "duration": 6, "velocity": 114}, {"time": 4271, "pitch": 84, "duration": 9, "velocity": 114}, {"time": 4280, "pitch": 84, "duration": 9, "velocity": 114}, {"time": 4289, "pitch": 81, "duration": 6, "velocity": 108}, {"time": 4295, "pitch": 79, "duration": 9, "velocity": 105}, {"time": 4304, "pitch": 81, "duration": 9, "velocity": 102}, {"time": 4313, "pitch": 76, "duration": 6, "velocity": 97}, {"time": 4319, "pitch": 74, "duration": 24, "velocity": 105}, {"time": 4343, "pitch": 72, "duration": 6, "velocity": 108}, {"time": 4349, "pitch": 84, "duration": 6, "velocity": 97}, {"time": 4355, "pitch": 84, "duration": 6, "velocity": 89}, {"time": 4361, "pitch": 81, "duration": 6, "velocity": 105}, {"time": 4367, "pitch": 79, "duration": 6, "velocity": 108}, {"time": 4373, "pitch": 81, "duration": 6, "velocity": 105}, {"time": 4379, "pitch": 79, "duration": 6, "velocity": 97}, {"time": 4385, "pitch": 74, "duration": 6, "velocity": 94}, {"time": 4391, "pitch": 77, "duration": 48, "velocity": 102}, {"time": 4439, "pitch": 72, "duration": 6, "velocity": 108}, {"time": 4445, "pitch": 84, "duration": 6, "velocity": 97}, {"time": 4451, "pitch": 84, "duration": 6, "velocity": 89}, {"time": 4457, "pitch": 81, "duration": 6, "velocity": 105}, {"time": 4463, "pitch": 79, "duration": 6, "velocity": 108}, {"time": 4469, "pitch": 81, "duration": 6, "velocity": 105}, {"time": 4475, "pitch": 79, "duration": 6, "velocity": 97}, {"time": 4481, "pitch": 74, "duration": 30, "velocity": 94}, {"time": 4511, "pitch": 77, "duration": 37, "velocity": 102}]}, {"program": 0, "is_drum": false, "name": "BRIDGE", "notes": [{"time": 23, "pitch": 72, "duration": 16, "velocity": 99}, {"time": 41, "pitch": 74, "duration": 5, "velocity": 111}, {"time": 47, "pitch": 77, "duration": 12, "velocity": 98}, {"time": 59, "pitch": 76, "duration": 6, "velocity": 96}, {"time": 65, "pitch": 74, "duration": 6, "velocity": 98}, {"time": 71, "pitch": 69, "duration": 6, "velocity": 96}, {"time": 77, "pitch": 72, "duration": 40, "velocity": 108}, {"time": 89, "pitch": 64, "duration": 5, "velocity": 87}, {"time": 95, "pitch": 62, "duration": 13, "velocity": 93}, {"time": 107, "pitch": 60, "duration": 12, "velocity": 96}, {"time": 119, "pitch": 57, "duration": 19, "velocity": 93}, {"time": 119, "pitch": 72, "duration": 16, "velocity": 103}, {"time": 137, "pitch": 60, "duration": 7, "velocity": 91}, {"time": 137, "pitch": 74, "duration": 5, "velocity": 108}, {"time": 143, "pitch": 62, "duration": 22, "velocity": 83}, {"time": 143, "pitch": 77, "duration": 6, "velocity": 93}, {"time": 149, "pitch": 76, "duration": 6, "velocity": 96}, {"time": 155, "pitch": 74, "duration": 6, "velocity": 108}, {"time": 161, "pitch": 69, "duration": 7, "velocity": 99}, {"time": 167, "pitch": 55, "duration": 11, "velocity": 85}, {"time": 167, "pitch": 67, "duration": 45, "velocity": 91}, {"time": 179, "pitch": 64, "duration": 7, "velocity": 83}, {"time": 185, "pitch": 62, "duration": 7, "velocity": 86}, {"time": 191, "pitch": 60, "duration": 23, "velocity": 91}, {"time": 215, "pitch": 57, "duration": 24, "velocity": 86}, {"time": 215, "pitch": 81, "duration": 12, "velocity": 99}, {"time": 227, "pitch": 79, "duration": 6, "velocity": 99}, {"time": 233, "pitch": 81, "duration": 6, "velocity": 96}, {"time": 239, "pitch": 60, "duration": 22, "velocity": 93}, {"time": 239, "pitch": 84, "duration": 17, "velocity": 99}, {"time": 257, "pitch": 81, "duration": 5, "velocity": 89}, {"time": 263, "pitch": 62, "duration": 12, "velocity": 86}, {"time": 263, "pitch": 86, "duration": 11, "velocity": 88}, {"time": 275, "pitch": 57, "duration": 6, "velocity": 88}, {"time": 275, "pitch": 81, "duration": 5, "velocity": 93}, {"time": 281, "pitch": 55, "duration": 5, "velocity": 83}, {"time": 281, "pitch": 79, "duration": 6, "velocity": 98}, {"time": 287, "pitch": 57, "duration": 23, "velocity": 81}, {"time": 287, "pitch": 77, "duration": 21, "velocity": 93}, {"time": 311, "pitch": 55, "duration": 36, "velocity": 87}, {"time": 311, "pitch": 79, "duration": 16, "velocity": 96}, {"time": 329, "pitch": 77, "duration": 4, "velocity": 96}, {"time": 335, "pitch": 79, "duration": 11, "velocity": 96}, {"time": 347, "pitch": 62, "duration": 11, "velocity": 89}, {"time": 347, "pitch": 86, "duration": 5, "velocity": 93}, {"time": 353, "pitch": 84, "duration": 5, "velocity": 108}, {"time": 359, "pitch": 60, "duration": 38, "velocity": 84}, {"time": 359, "pitch": 84, "duration": 24, "velocity": 103}, {"time": 383, "pitch": 81, "duration": 6, "velocity": 98}, {"time": 389, "pitch": 79, "duration": 12, "velocity": 99}, {"time": 401, "pitch": 74, "duration": 5, "velocity": 111}, {"time": 407, "pitch": 77, "duration": 49, "velocity": 89}, {"time": 413, "pitch": 60, "duration": 8, "velocity": 76}, {"time": 419, "pitch": 65, "duration": 14, "velocity": 79}, {"time": 425, "pitch": 60, "duration": 8, "velocity": 71}, {"time": 431, "pitch": 69, "duration": 33, "velocity": 80}, {"time": 437, "pitch": 60, "duration": 7, "velocity": 71}, {"time": 443, "pitch": 65, "duration": 19, "velocity": 78}, {"time": 449, "pitch": 60, "duration": 10, "velocity": 77}, {"time": 461, "pitch": 60, "duration": 7, "velocity": 75}, {"time": 467, "pitch": 65, "duration": 14, "velocity": 82}, {"time": 473, "pitch": 60, "duration": 8, "velocity": 83}, {"time": 479, "pitch": 69, "duration": 9, "velocity": 83}, {"time": 485, "pitch": 67, "duration": 6, "velocity": 79}, {"time": 491, "pitch": 65, "duration": 12, "velocity": 82}, {"time": 569, "pitch": 76, "duration": 3, "velocity": 111}, {"time": 572, "pitch": 77, "duration": 3, "velocity": 86}, {"time": 575, "pitch": 76, "duration": 9, "velocity": 99}, {"time": 584, "pitch": 72, "duration": 9, "velocity": 99}, {"time": 593, "pitch": 69, "duration": 7, "velocity": 86}, {"time": 599, "pitch": 72, "duration": 24, "velocity": 91}, {"time": 647, "pitch": 64, "duration": 17, "velocity": 88}, {"time": 665, "pitch": 62, "duration": 7, "velocity": 86}, {"time": 671, "pitch": 60, "duration": 13, "velocity": 96}, {"time": 683, "pitch": 55, "duration": 12, "velocity": 84}, {"time": 695, "pitch": 57, "duration": 43, "velocity": 82}, {"time": 773, "pitch": 62, "duration": 5, "velocity": 89}, {"time": 779, "pitch": 65, "duration": 5, "velocity": 93}, {"time": 785, "pitch": 67, "duration": 5, "velocity": 84}, {"time": 791, "pitch": 69, "duration": 22, "velocity": 87}, {"time": 845, "pitch": 84, "duration": 6, "velocity": 96}, {"time": 851, "pitch": 81, "duration": 6, "velocity": 93}, {"time": 857, "pitch": 79, "duration": 6, "velocity": 99}, {"time": 863, "pitch": 57, "duration": 12, "velocity": 78}, {"time": 863, "pitch": 77, "duration": 22, "velocity": 98}, {"time": 875, "pitch": 53, "duration": 6, "velocity": 83}, {"time": 881, "pitch": 55, "duration": 6, "velocity": 85}, {"time": 887, "pitch": 57, "duration": 35, "velocity": 84}, {"time": 923, "pitch": 55, "duration": 7, "velocity": 84}, {"time": 929, "pitch": 57, "duration": 7, "velocity": 86}, {"time": 935, "pitch": 60, "duration": 45, "velocity": 89}, {"time": 983, "pitch": 57, "duration": 22, "velocity": 84}, {"time": 1019, "pitch": 62, "duration": 11, "velocity": 82}, {"time": 1031, "pitch": 60, "duration": 11, "velocity": 86}, {"time": 1043, "pitch": 79, "duration": 5, "velocity": 83}, {"time": 1049, "pitch": 76, "duration": 5, "velocity": 87}, {"time": 1055, "pitch": 74, "duration": 12, "velocity": 99}, {"time": 1067, "pitch": 72, "duration": 5, "velocity": 93}, {"time": 1073, "pitch": 74, "duration": 5, "velocity": 99}, {"time": 1079, "pitch": 77, "duration": 25, "velocity": 86}, {"time": 1127, "pitch": 69, "duration": 23, "velocity": 85}, {"time": 1151, "pitch": 74, "duration": 22, "velocity": 86}, {"time": 1175, "pitch": 69, "duration": 24, "velocity": 88}, {"time": 1199, "pitch": 67, "duration": 21, "velocity": 86}, {"time": 1223, "pitch": 65, "duration": 45, "velocity": 91}, {"time": 1223, "pitch": 77, "duration": 12, "velocity": 93}, {"time": 1235, "pitch": 81, "duration": 6, "velocity": 87}, {"time": 1241, "pitch": 79, "duration": 7, "velocity": 89}, {"time": 1247, "pitch": 81, "duration": 7, "velocity": 98}, {"time": 1253, "pitch": 84, "duration": 6, "velocity": 103}, {"time": 1259, "pitch": 86, "duration": 6, "velocity": 91}, {"time": 1265, "pitch": 84, "duration": 7, "velocity": 87}, {"time": 1271, "pitch": 81, "duration": 46, "velocity": 84}, {"time": 1271, "pitch": 89, "duration": 47, "velocity": 91}, {"time": 1319, "pitch": 88, "duration": 17, "velocity": 89}, {"time": 1337, "pitch": 86, "duration": 7, "velocity": 84}, {"time": 1343, "pitch": 84, "duration": 23, "velocity": 87}, {"time": 1367, "pitch": 81, "duration": 24, "velocity": 88}, {"time": 1391, "pitch": 86, "duration": 23, "velocity": 89}, {"time": 1415, "pitch": 84, "duration": 46, "velocity": 85}, {"time": 1427, "pitch": 88, "duration": 11, "velocity": 99}, {"time": 1439, "pitch": 86, "duration": 11, "velocity": 88}, {"time": 1451, "pitch": 79, "duration": 11, "velocity": 99}, {"time": 1463, "pitch": 77, "duration": 48, "velocity": 83}, {"time": 1463, "pitch": 81, "duration": 48, "velocity": 84}, {"time": 1511, "pitch": 84, "duration": 22, "velocity": 87}, {"time": 1535, "pitch": 86, "duration": 24, "velocity": 86}, {"time": 1559, "pitch": 81, "duration": 16, "velocity": 81}, {"time": 1559, "pitch": 84, "duration": 15, "velocity": 93}, {"time": 1577, "pitch": 81, "duration": 6, "velocity": 86}, {"time": 1583, "pitch": 79, "duration": 12, "velocity": 88}, {"time": 1595, "pitch": 86, "duration": 12, "velocity": 96}, {"time": 1607, "pitch": 84, "duration": 12, "velocity": 96}, {"time": 1637, "pitch": 72, "duration": 6, "velocity": 86}, {"time": 1643, "pitch": 77, "duration": 5, "velocity": 91}, {"time": 1649, "pitch": 79, "duration": 5, "velocity": 86}, {"time": 1655, "pitch": 81, "duration": 47, "velocity": 89}, {"time": 1703, "pitch": 86, "duration": 22, "velocity": 86}, {"time": 1727, "pitch": 88, "duration": 24, "velocity": 96}, {"time": 1751, "pitch": 86, "duration": 34, "velocity": 87}, {"time": 1787, "pitch": 84, "duration": 6, "velocity": 86}, {"time": 1793, "pitch": 81, "duration": 5, "velocity": 88}, {"time": 1799, "pitch": 79, "duration": 24, "velocity": 86}, {"time": 1811, "pitch": 88, "duration": 11, "velocity": 88}, {"time": 1823, "pitch": 86, "duration": 11, "velocity": 86}, {"time": 1835, "pitch": 88, "duration": 12, "velocity": 89}, {"time": 1847, "pitch": 84, "duration": 13, "velocity": 91}, {"time": 1859, "pitch": 79, "duration": 11, "velocity": 83}, {"time": 1871, "pitch": 81, "duration": 22, "velocity": 88}, {"time": 1895, "pitch": 84, "duration": 21, "velocity": 91}, {"time": 1919, "pitch": 86, "duration": 24, "velocity": 84}, {"time": 1943, "pitch": 81, "duration": 15, "velocity": 83}, {"time": 1943, "pitch": 84, "duration": 16, "velocity": 88}, {"time": 1961, "pitch": 81, "duration": 6, "velocity": 88}, {"time": 1967, "pitch": 79, "duration": 12, "velocity": 87}, {"time": 1979, "pitch": 74, "duration": 10, "velocity": 98}, {"time": 1991, "pitch": 72, "duration": 46, "velocity": 89}, {"time": 1991, "pitch": 77, "duration": 46, "velocity": 82}, {"time": 2039, "pitch": 72, "duration": 16, "velocity": 99}, {"time": 2057, "pitch": 74, "duration": 5, "velocity": 111}, {"time": 2063, "pitch": 77, "duration": 12, "velocity": 98}, {"time": 2075, "pitch": 76, "duration": 6, "velocity": 96}, {"time": 2081, "pitch": 74, "duration": 6, "velocity": 98}, {"time": 2087, "pitch": 69, "duration": 6, "velocity": 96}, {"time": 2093, "pitch": 72, "duration": 40, "velocity": 108}, {"time": 2105, "pitch": 64, "duration": 5, "velocity": 87}, {"time": 2111, "pitch": 62, "duration": 13, "velocity": 93}, {"time": 2123, "pitch": 60, "duration": 12, "velocity": 96}, {"time": 2135, "pitch": 57, "duration": 19, "velocity": 93}, {"time": 2135, "pitch": 72, "duration": 16, "velocity": 103}, {"time": 2153, "pitch": 60, "duration": 7, "velocity": 91}, {"time": 2153, "pitch": 74, "duration": 5, "velocity": 108}, {"time": 2159, "pitch": 62, "duration": 22, "velocity": 83}, {"time": 2159, "pitch": 77, "duration": 6, "velocity": 93}, {"time": 2165, "pitch": 76, "duration": 6, "velocity": 96}, {"time": 2171, "pitch": 74, "duration": 6, "velocity": 108}, {"time": 2177, "pitch": 69, "duration": 7, "velocity": 99}, {"time": 2183, "pitch": 55, "duration": 11, "velocity": 85}, {"time": 2183, "pitch": 67, "duration": 45, "velocity": 91}, {"time": 2195, "pitch": 64, "duration": 7, "velocity": 83}, {"time": 2201, "pitch": 62, "duration": 7, "velocity": 86}, {"time": 2207, "pitch": 60, "duration": 23, "velocity": 91}, {"time": 2231, "pitch": 57, "duration": 24, "velocity": 86}, {"time": 2231, "pitch": 81, "duration": 12, "velocity": 99}, {"time": 2243, "pitch": 79, "duration": 6, "velocity": 99}, {"time": 2249, "pitch": 81, "duration": 6, "velocity": 96}, {"time": 2255, "pitch": 60, "duration": 22, "velocity": 93}, {"time": 2255, "pitch": 84, "duration": 17, "velocity": 99}, {"time": 2273, "pitch": 81, "duration": 5, "velocity": 89}, {"time": 2279, "pitch": 62, "duration": 12, "velocity": 86}, {"time": 2279, "pitch": 86, "duration": 11, "velocity": 88}, {"time": 2291, "pitch": 57, "duration": 6, "velocity": 88}, {"time": 2291, "pitch": 81, "duration": 5, "velocity": 93}, {"time": 2297, "pitch": 55, "duration": 5, "velocity": 83}, {"time": 2297, "pitch": 79, "duration": 6, "velocity": 98}, {"time": 2303, "pitch": 57, "duration": 23, "velocity": 81}, {"time": 2303, "pitch": 77, "duration": 21, "velocity": 93}, {"time": 2327, "pitch": 55, "duration": 36, "velocity": 87}, {"time": 2327, "pitch": 79, "duration": 16, "velocity": 96}, {"time": 2345, "pitch": 77, "duration": 4, "velocity": 96}, {"time": 2351, "pitch": 79, "duration": 11, "velocity": 96}, {"time": 2363, "pitch": 62, "duration": 11, "velocity": 89}, {"time": 2363, "pitch": 86, "duration": 5, "velocity": 93}, {"time": 2369, "pitch": 84, "duration": 5, "velocity": 108}, {"time": 2375, "pitch": 60, "duration": 38, "velocity": 84}, {"time": 2375, "pitch": 84, "duration": 24, "velocity": 103}, {"time": 2399, "pitch": 81, "duration": 6, "velocity": 98}, {"time": 2405, "pitch": 79, "duration": 12, "velocity": 99}, {"time": 2417, "pitch": 74, "duration": 5, "velocity": 111}, {"time": 2423, "pitch": 77, "duration": 49, "velocity": 89}, {"time": 2429, "pitch": 60, "duration": 8, "velocity": 76}, {"time": 2435, "pitch": 65, "duration": 14, "velocity": 79}, {"time": 2441, "pitch": 60, "duration": 8, "velocity": 71}, {"time": 2447, "pitch": 69, "duration": 33, "velocity": 80}, {"time": 2453, "pitch": 60, "duration": 7, "velocity": 71}, {"time": 2459, "pitch": 65, "duration": 19, "velocity": 78}, {"time": 2465, "pitch": 60, "duration": 10, "velocity": 77}, {"time": 2477, "pitch": 60, "duration": 7, "velocity": 75}, {"time": 2483, "pitch": 65, "duration": 14, "velocity": 82}, {"time": 2489, "pitch": 60, "duration": 8, "velocity": 83}, {"time": 2495, "pitch": 69, "duration": 9, "velocity": 83}, {"time": 2501, "pitch": 67, "duration": 6, "velocity": 79}, {"time": 2507, "pitch": 65, "duration": 12, "velocity": 82}, {"time": 2519, "pitch": 57, "duration": 35, "velocity": 84}, {"time": 2555, "pitch": 55, "duration": 7, "velocity": 84}, {"time": 2561, "pitch": 57, "duration": 7, "velocity": 86}, {"time": 2567, "pitch": 60, "duration": 45, "velocity": 89}, {"time": 2615, "pitch": 57, "duration": 22, "velocity": 84}, {"time": 2651, "pitch": 62, "duration": 11, "velocity": 82}, {"time": 2663, "pitch": 60, "duration": 11, "velocity": 86}, {"time": 2675, "pitch": 79, "duration": 5, "velocity": 83}, {"time": 2681, "pitch": 76, "duration": 5, "velocity": 87}, {"time": 2687, "pitch": 74, "duration": 12, "velocity": 99}, {"time": 2699, "pitch": 72, "duration": 5, "velocity": 93}, {"time": 2705, "pitch": 74, "duration": 5, "velocity": 99}, {"time": 2711, "pitch": 77, "duration": 25, "velocity": 86}, {"time": 2759, "pitch": 69, "duration": 23, "velocity": 85}, {"time": 2783, "pitch": 74, "duration": 22, "velocity": 86}, {"time": 2807, "pitch": 69, "duration": 24, "velocity": 88}, {"time": 2831, "pitch": 67, "duration": 21, "velocity": 86}, {"time": 2855, "pitch": 65, "duration": 45, "velocity": 91}, {"time": 2855, "pitch": 77, "duration": 12, "velocity": 93}, {"time": 2867, "pitch": 81, "duration": 6, "velocity": 87}, {"time": 2873, "pitch": 79, "duration": 7, "velocity": 89}, {"time": 2879, "pitch": 81, "duration": 7, "velocity": 98}, {"time": 2885, "pitch": 84, "duration": 6, "velocity": 103}, {"time": 2891, "pitch": 86, "duration": 6, "velocity": 91}, {"time": 2897, "pitch": 84, "duration": 7, "velocity": 87}, {"time": 2903, "pitch": 81, "duration": 46, "velocity": 84}, {"time": 2903, "pitch": 89, "duration": 47, "velocity": 91}, {"time": 2951, "pitch": 88, "duration": 17, "velocity": 89}, {"time": 2969, "pitch": 86, "duration": 7, "velocity": 84}, {"time": 2975, "pitch": 84, "duration": 23, "velocity": 87}, {"time": 2999, "pitch": 81, "duration": 24, "velocity": 88}, {"time": 3023, "pitch": 86, "duration": 23, "velocity": 89}, {"time": 3047, "pitch": 84, "duration": 46, "velocity": 85}, {"time": 3059, "pitch": 88, "duration": 11, "velocity": 99}, {"time": 3071, "pitch": 86, "duration": 11, "velocity": 88}, {"time": 3083, "pitch": 79, "duration": 11, "velocity": 99}, {"time": 3095, "pitch": 77, "duration": 48, "velocity": 83}, {"time": 3095, "pitch": 81, "duration": 48, "velocity": 84}, {"time": 3143, "pitch": 84, "duration": 22, "velocity": 87}, {"time": 3167, "pitch": 86, "duration": 24, "velocity": 86}, {"time": 3191, "pitch": 81, "duration": 16, "velocity": 81}, {"time": 3191, "pitch": 84, "duration": 15, "velocity": 93}, {"time": 3209, "pitch": 81, "duration": 6, "velocity": 86}, {"time": 3215, "pitch": 79, "duration": 12, "velocity": 88}, {"time": 3227, "pitch": 86, "duration": 12, "velocity": 96}, {"time": 3239, "pitch": 84, "duration": 12, "velocity": 96}, {"time": 3269, "pitch": 72, "duration": 6, "velocity": 86}, {"time": 3275, "pitch": 77, "duration": 5, "velocity": 91}, {"time": 3281, "pitch": 79, "duration": 5, "velocity": 86}, {"time": 3287, "pitch": 81, "duration": 47, "velocity": 89}, {"time": 3335, "pitch": 86, "duration": 22, "velocity": 86}, {"time": 3359, "pitch": 88, "duration": 24, "velocity": 96}, {"time": 3383, "pitch": 86, "duration": 34, "velocity": 87}, {"time": 3419, "pitch": 84, "duration": 6, "velocity": 86}, {"time": 3425, "pitch": 81, "duration": 5, "velocity": 88}, {"time": 3431, "pitch": 79, "duration": 24, "velocity": 86}, {"time": 3443, "pitch": 88, "duration": 11, "velocity": 88}, {"time": 3455, "pitch": 86, "duration": 11, "velocity": 86}, {"time": 3467, "pitch": 88, "duration": 12, "velocity": 89}, {"time": 3479, "pitch": 84, "duration": 13, "velocity": 91}, {"time": 3491, "pitch": 79, "duration": 11, "velocity": 83}, {"time": 3503, "pitch": 81, "duration": 22, "velocity": 88}, {"time": 3527, "pitch": 84, "duration": 21, "velocity": 91}, {"time": 3551, "pitch": 86, "duration": 24, "velocity": 84}, {"time": 3575, "pitch": 81, "duration": 15, "velocity": 83}, {"time": 3575, "pitch": 84, "duration": 16, "velocity": 88}, {"time": 3593, "pitch": 81, "duration": 6, "velocity": 88}, {"time": 3599, "pitch": 79, "duration": 12, "velocity": 87}, {"time": 3611, "pitch": 74, "duration": 10, "velocity": 98}, {"time": 3623, "pitch": 72, "duration": 14, "velocity": 86}, {"time": 3623, "pitch": 77, "duration": 11, "velocity": 82}, {"time": 3635, "pitch": 77, "duration": 8, "velocity": 86}, {"time": 3641, "pitch": 72, "duration": 7, "velocity": 72}, {"time": 3647, "pitch": 77, "duration": 6, "velocity": 91}, {"time": 3653, "pitch": 79, "duration": 6, "velocity": 91}, {"time": 3659, "pitch": 81, "duration": 2, "velocity": 86}, {"time": 3665, "pitch": 84, "duration": 5, "velocity": 98}, {"time": 3671, "pitch": 81, "duration": 46, "velocity": 84}, {"time": 3671, "pitch": 89, "duration": 47, "velocity": 91}, {"time": 3719, "pitch": 88, "duration": 17, "velocity": 89}, {"time": 3737, "pitch": 86, "duration": 7, "velocity": 84}, {"time": 3743, "pitch": 84, "duration": 23, "velocity": 87}, {"time": 3767, "pitch": 81, "duration": 24, "velocity": 88}, {"time": 3791, "pitch": 86, "duration": 23, "velocity": 89}, {"time": 3815, "pitch": 84, "duration": 46, "velocity": 85}, {"time": 3827, "pitch": 88, "duration": 11, "velocity": 99}, {"time": 3839, "pitch": 86, "duration": 11, "velocity": 88}, {"time": 3851, "pitch": 79, "duration": 11, "velocity": 99}, {"time": 3863, "pitch": 77, "duration": 48, "velocity": 83}, {"time": 3863, "pitch": 81, "duration": 48, "velocity": 84}, {"time": 3911, "pitch": 84, "duration": 22, "velocity": 87}, {"time": 3935, "pitch": 86, "duration": 24, "velocity": 86}, {"time": 3959, "pitch": 81, "duration": 16, "velocity": 81}, {"time": 3959, "pitch": 84, "duration": 15, "velocity": 93}, {"time": 3977, "pitch": 81, "duration": 6, "velocity": 86}, {"time": 3983, "pitch": 79, "duration": 12, "velocity": 88}, {"time": 3995, "pitch": 86, "duration": 12, "velocity": 96}, {"time": 4007, "pitch": 84, "duration": 12, "velocity": 96}, {"time": 4037, "pitch": 72, "duration": 6, "velocity": 86}, {"time": 4043, "pitch": 77, "duration": 5, "velocity": 91}, {"time": 4049, "pitch": 79, "duration": 5, "velocity": 86}, {"time": 4055, "pitch": 81, "duration": 47, "velocity": 89}, {"time": 4103, "pitch": 86, "duration": 22, "velocity": 86}, {"time": 4127, "pitch": 88, "duration": 24, "velocity": 96}, {"time": 4151, "pitch": 86, "duration": 34, "velocity": 87}, {"time": 4187, "pitch": 84, "duration": 6, "velocity": 86}, {"time": 4193, "pitch": 81, "duration": 5, "velocity": 88}, {"time": 4199, "pitch": 79, "duration": 24, "velocity": 86}, {"time": 4211, "pitch": 88, "duration": 11, "velocity": 88}, {"time": 4223, "pitch": 86, "duration": 11, "velocity": 86}, {"time": 4235, "pitch": 88, "duration": 12, "velocity": 89}, {"time": 4247, "pitch": 84, "duration": 13, "velocity": 91}, {"time": 4259, "pitch": 79, "duration": 11, "velocity": 83}, {"time": 4271, "pitch": 81, "duration": 22, "velocity": 88}, {"time": 4295, "pitch": 84, "duration": 21, "velocity": 91}, {"time": 4319, "pitch": 86, "duration": 24, "velocity": 84}, {"time": 4343, "pitch": 81, "duration": 15, "velocity": 83}, {"time": 4343, "pitch": 84, "duration": 16, "velocity": 88}, {"time": 4361, "pitch": 81, "duration": 6, "velocity": 88}, {"time": 4367, "pitch": 79, "duration": 12, "velocity": 87}, {"time": 4379, "pitch": 74, "duration": 10, "velocity": 98}, {"time": 4391, "pitch": 72, "duration": 46, "velocity": 89}, {"time": 4391, "pitch": 77, "duration": 46, "velocity": 82}, {"time": 4439, "pitch": 77, "duration": 22, "velocity": 78}, {"time": 4439, "pitch": 81, "duration": 24, "velocity": 84}, {"time": 4463, "pitch": 79, "duration": 45, "velocity": 96}, {"time": 4511, "pitch": 81, "duration": 31, "velocity": 82}, {"time": 4511, "pitch": 77, "duration": 30, "velocity": 73}, {"time": 4546, "pitch": 81, "duration": 7, "velocity": 96}, {"time": 4552, "pitch": 84, "duration": 6, "velocity": 103}, {"time": 4558, "pitch": 86, "duration": 37, "velocity": 93}, {"time": 4594, "pitch": 89, "duration": 13, "velocity": 99}, {"time": 4606, "pitch": 88, "duration": 38, "velocity": 98}, {"time": 4643, "pitch": 84, "duration": 19, "velocity": 91}, {"time": 4662, "pitch": 81, "duration": 67, "velocity": 83}], "annotations": [{"time": 3642, "annotation": {"number": 64, "value": 127}, "group": "control_change"}, {"time": 3668, "annotation": {"number": 64, "value": 0}, "group": "control_change"}]}, {"program": 0, "is_drum": false, "name": "PIANO", "notes": [{"time": 23, "pitch": 41, "duration": 15, "velocity": 80}, {"time": 29, "pitch": 48, "duration": 9, "velocity": 72}, {"time": 35, "pitch": 53, "duration": 6, "velocity": 85}, {"time": 41, "pitch": 60, "duration": 8, "velocity": 82}, {"time": 47, "pitch": 50, "duration": 17, "velocity": 84}, {"time": 47, "pitch": 62, "duration": 7, "velocity": 79}, {"time": 53, "pitch": 57, "duration": 10, "velocity": 67}, {"time": 59, "pitch": 62, "duration": 11, "velocity": 74}, {"time": 59, "pitch": 65, "duration": 26, "velocity": 76}, {"time": 71, "pitch": 45, "duration": 41, "velocity": 79}, {"time": 77, "pitch": 52, "duration": 9, "velocity": 76}, {"time": 83, "pitch": 57, "duration": 10, "velocity": 78}, {"time": 89, "pitch": 52, "duration": 23, "velocity": 67}, {"time": 95, "pitch": 64, "duration": 16, "velocity": 82}, {"time": 119, "pitch": 41, "duration": 26, "velocity": 71}, {"time": 125, "pitch": 48, "duration": 15, "velocity": 83}, {"time": 131, "pitch": 53, "duration": 8, "velocity": 86}, {"time": 137, "pitch": 57, "duration": 7, "velocity": 73}, {"time": 143, "pitch": 62, "duration": 12, "velocity": 83}, {"time": 149, "pitch": 50, "duration": 11, "velocity": 41}, {"time": 155, "pitch": 57, "duration": 7, "velocity": 79}, {"time": 161, "pitch": 62, "duration": 5, "velocity": 78}, {"time": 167, "pitch": 48, "duration": 40, "velocity": 69}, {"time": 167, "pitch": 55, "duration": 9, "velocity": 72}, {"time": 167, "pitch": 60, "duration": 18, "velocity": 71}, {"time": 173, "pitch": 52, "duration": 34, "velocity": 54}, {"time": 179, "pitch": 55, "duration": 7, "velocity": 75}, {"time": 185, "pitch": 62, "duration": 4, "velocity": 70}, {"time": 191, "pitch": 55, "duration": 9, "velocity": 81}, {"time": 191, "pitch": 64, "duration": 12, "velocity": 82}, {"time": 203, "pitch": 55, "duration": 7, "velocity": 82}, {"time": 203, "pitch": 60, "duration": 6, "velocity": 81}, {"time": 215, "pitch": 41, "duration": 39, "velocity": 83}, {"time": 215, "pitch": 53, "duration": 8, "velocity": 77}, {"time": 215, "pitch": 57, "duration": 13, "velocity": 76}, {"time": 221, "pitch": 48, "duration": 32, "velocity": 77}, {"time": 227, "pitch": 53, "duration": 13, "velocity": 79}, {"time": 233, "pitch": 60, "duration": 9, "velocity": 78}, {"time": 239, "pitch": 65, "duration": 13, "velocity": 82}, {"time": 245, "pitch": 53, "duration": 8, "velocity": 74}, {"time": 251, "pitch": 60, "duration": 2, "velocity": 81}, {"time": 263, "pitch": 50, "duration": 36, "velocity": 83}, {"time": 263, "pitch": 57, "duration": 8, "velocity": 70}, {"time": 263, "pitch": 62, "duration": 13, "velocity": 77}, {"time": 269, "pitch": 53, "duration": 30, "velocity": 72}, {"time": 275, "pitch": 57, "duration": 14, "velocity": 84}, {"time": 281, "pitch": 62, "duration": 13, "velocity": 80}, {"time": 287, "pitch": 65, "duration": 14, "velocity": 84}, {"time": 293, "pitch": 57, "duration": 13, "velocity": 71}, {"time": 299, "pitch": 62, "duration": 18, "velocity": 76}, {"time": 311, "pitch": 43, "duration": 44, "velocity": 83}, {"time": 317, "pitch": 50, "duration": 37, "velocity": 77}, {"time": 323, "pitch": 55, "duration": 15, "velocity": 85}, {"time": 329, "pitch": 62, "duration": 15, "velocity": 78}, {"time": 335, "pitch": 67, "duration": 14, "velocity": 76}, {"time": 347, "pitch": 55, "duration": 7, "velocity": 78}, {"time": 347, "pitch": 62, "duration": 9, "velocity": 77}, {"time": 359, "pitch": 48, "duration": 41, "velocity": 82}, {"time": 359, "pitch": 55, "duration": 6, "velocity": 76}, {"time": 359, "pitch": 60, "duration": 14, "velocity": 77}, {"time": 365, "pitch": 52, "duration": 34, "velocity": 71}, {"time": 371, "pitch": 55, "duration": 13, "velocity": 83}, {"time": 377, "pitch": 62, "duration": 6, "velocity": 76}, {"time": 383, "pitch": 64, "duration": 7, "velocity": 78}, {"time": 389, "pitch": 62, "duration": 10, "velocity": 76}, {"time": 395, "pitch": 60, "duration": 4, "velocity": 72}, {"time": 407, "pitch": 41, "duration": 45, "velocity": 82}, {"time": 407, "pitch": 53, "duration": 7, "velocity": 59}, {"time": 407, "pitch": 57, "duration": 12, "velocity": 60}, {"time": 413, "pitch": 48, "duration": 21, "velocity": 77}, {"time": 419, "pitch": 53, "duration": 7, "velocity": 83}, {"time": 425, "pitch": 55, "duration": 8, "velocity": 83}, {"time": 431, "pitch": 57, "duration": 11, "velocity": 71}, {"time": 437, "pitch": 48, "duration": 8, "velocity": 65}, {"time": 443, "pitch": 53, "duration": 19, "velocity": 77}, {"time": 455, "pitch": 41, "duration": 48, "velocity": 82}, {"time": 461, "pitch": 48, "duration": 8, "velocity": 73}, {"time": 467, "pitch": 53, "duration": 10, "velocity": 76}, {"time": 473, "pitch": 48, "duration": 30, "velocity": 59}, {"time": 479, "pitch": 53, "duration": 24, "velocity": 77}, {"time": 479, "pitch": 57, "duration": 24, "velocity": 77}, {"time": 503, "pitch": 41, "duration": 1, "velocity": 81}, {"time": 503, "pitch": 69, "duration": 18, "velocity": 78}, {"time": 509, "pitch": 53, "duration": 11, "velocity": 72}, {"time": 515, "pitch": 60, "duration": 5, "velocity": 84}, {"time": 521, "pitch": 65, "duration": 7, "velocity": 85}, {"time": 527, "pitch": 50, "duration": 15, "velocity": 82}, {"time": 527, "pitch": 69, "duration": 13, "velocity": 81}, {"time": 533, "pitch": 57, "duration": 9, "velocity": 66}, {"time": 539, "pitch": 62, "duration": 12, "velocity": 80}, {"time": 551, "pitch": 45, "duration": 39, "velocity": 75}, {"time": 557, "pitch": 52, "duration": 8, "velocity": 80}, {"time": 563, "pitch": 60, "duration": 9, "velocity": 86}, {"time": 569, "pitch": 52, "duration": 8, "velocity": 75}, {"time": 575, "pitch": 57, "duration": 9, "velocity": 83}, {"time": 575, "pitch": 64, "duration": 7, "velocity": 84}, {"time": 581, "pitch": 52, "duration": 9, "velocity": 72}, {"time": 587, "pitch": 57, "duration": 4, "velocity": 83}, {"time": 587, "pitch": 60, "duration": 3, "velocity": 83}, {"time": 599, "pitch": 41, "duration": 20, "velocity": 82}, {"time": 599, "pitch": 57, "duration": 12, "velocity": 80}, {"time": 605, "pitch": 48, "duration": 14, "velocity": 73}, {"time": 611, "pitch": 53, "duration": 10, "velocity": 84}, {"time": 617, "pitch": 57, "duration": 6, "velocity": 82}, {"time": 623, "pitch": 50, "duration": 16, "velocity": 78}, {"time": 623, "pitch": 62, "duration": 7, "velocity": 78}, {"time": 629, "pitch": 57, "duration": 8, "velocity": 73}, {"time": 635, "pitch": 65, "duration": 11, "velocity": 83}, {"time": 647, "pitch": 48, "duration": 43, "velocity": 83}, {"time": 647, "pitch": 55, "duration": 3, "velocity": 70}, {"time": 647, "pitch": 60, "duration": 10, "velocity": 78}, {"time": 653, "pitch": 55, "duration": 7, "velocity": 82}, {"time": 659, "pitch": 62, "duration": 6, "velocity": 83}, {"time": 665, "pitch": 60, "duration": 4, "velocity": 73}, {"time": 671, "pitch": 55, "duration": 3, "velocity": 83}, {"time": 671, "pitch": 64, "duration": 10, "velocity": 83}, {"time": 677, "pitch": 55, "duration": 4, "velocity": 73}, {"time": 683, "pitch": 55, "duration": 3, "velocity": 84}, {"time": 683, "pitch": 60, "duration": 7, "velocity": 83}, {"time": 689, "pitch": 55, "duration": 3, "velocity": 77}, {"time": 695, "pitch": 41, "duration": 39, "velocity": 82}, {"time": 695, "pitch": 57, "duration": 7, "velocity": 76}, {"time": 695, "pitch": 60, "duration": 13, "velocity": 78}, {"time": 701, "pitch": 48, "duration": 20, "velocity": 67}, {"time": 707, "pitch": 57, "duration": 13, "velocity": 87}, {"time": 713, "pitch": 60, "duration": 7, "velocity": 91}, {"time": 719, "pitch": 65, "duration": 11, "velocity": 85}, {"time": 725, "pitch": 48, "duration": 8, "velocity": 69}, {"time": 731, "pitch": 57, "duration": 3, "velocity": 85}, {"time": 731, "pitch": 60, "duration": 6, "velocity": 86}, {"time": 743, "pitch": 45, "duration": 20, "velocity": 82}, {"time": 743, "pitch": 57, "duration": 10, "velocity": 82}, {"time": 743, "pitch": 60, "duration": 10, "velocity": 82}, {"time": 749, "pitch": 52, "duration": 13, "velocity": 77}, {"time": 755, "pitch": 60, "duration": 6, "velocity": 78}, {"time": 755, "pitch": 64, "duration": 7, "velocity": 87}, {"time": 761, "pitch": 57, "duration": 7, "velocity": 83}, {"time": 767, "pitch": 50, "duration": 14, "velocity": 82}, {"time": 767, "pitch": 62, "duration": 16, "velocity": 83}, {"time": 773, "pitch": 53, "duration": 9, "velocity": 70}, {"time": 779, "pitch": 65, "duration": 6, "velocity": 83}, {"time": 791, "pitch": 41, "duration": 15, "velocity": 82}, {"time": 791, "pitch": 53, "duration": 13, "velocity": 78}, {"time": 791, "pitch": 57, "duration": 12, "velocity": 79}, {"time": 797, "pitch": 48, "duration": 8, "velocity": 78}, {"time": 803, "pitch": 60, "duration": 7, "velocity": 81}, {"time": 809, "pitch": 57, "duration": 5, "velocity": 78}, {"time": 815, "pitch": 48, "duration": 16, "velocity": 81}, {"time": 815, "pitch": 55, "duration": 10, "velocity": 80}, {"time": 815, "pitch": 60, "duration": 7, "velocity": 81}, {"time": 821, "pitch": 52, "duration": 10, "velocity": 80}, {"time": 827, "pitch": 55, "duration": 4, "velocity": 84}, {"time": 827, "pitch": 64, "duration": 5, "velocity": 87}, {"time": 839, "pitch": 41, "duration": 44, "velocity": 82}, {"time": 839, "pitch": 57, "duration": 5, "velocity": 73}, {"time": 839, "pitch": 60, "duration": 13, "velocity": 79}, {"time": 839, "pitch": 65, "duration": 14, "velocity": 82}, {"time": 845, "pitch": 48, "duration": 21, "velocity": 77}, {"time": 851, "pitch": 57, "duration": 13, "velocity": 81}, {"time": 857, "pitch": 60, "duration": 7, "velocity": 74}, {"time": 863, "pitch": 65, "duration": 7, "velocity": 84}, {"time": 869, "pitch": 48, "duration": 10, "velocity": 69}, {"time": 875, "pitch": 57, "duration": 11, "velocity": 82}, {"time": 875, "pitch": 60, "duration": 11, "velocity": 85}, {"time": 875, "pitch": 65, "duration": 11, "velocity": 84}, {"time": 887, "pitch": 41, "duration": 2, "velocity": 81}, {"time": 887, "pitch": 69, "duration": 18, "velocity": 78}, {"time": 893, "pitch": 53, "duration": 11, "velocity": 72}, {"time": 899, "pitch": 60, "duration": 5, "velocity": 84}, {"time": 905, "pitch": 65, "duration": 7, "velocity": 85}, {"time": 911, "pitch": 50, "duration": 15, "velocity": 82}, {"time": 911, "pitch": 69, "duration": 13, "velocity": 81}, {"time": 917, "pitch": 57, "duration": 9, "velocity": 66}, {"time": 923, "pitch": 62, "duration": 12, "velocity": 80}, {"time": 935, "pitch": 45, "duration": 39, "velocity": 75}, {"time": 941, "pitch": 52, "duration": 8, "velocity": 80}, {"time": 947, "pitch": 60, "duration": 9, "velocity": 86}, {"time": 953, "pitch": 52, "duration": 8, "velocity": 75}, {"time": 959, "pitch": 57, "duration": 9, "velocity": 83}, {"time": 959, "pitch": 64, "duration": 7, "velocity": 84}, {"time": 965, "pitch": 52, "duration": 9, "velocity": 72}, {"time": 971, "pitch": 57, "duration": 4, "velocity": 83}, {"time": 971, "pitch": 60, "duration": 3, "velocity": 83}, {"time": 983, "pitch": 41, "duration": 20, "velocity": 82}, {"time": 983, "pitch": 57, "duration": 12, "velocity": 80}, {"time": 989, "pitch": 48, "duration": 14, "velocity": 73}, {"time": 995, "pitch": 53, "duration": 10, "velocity": 84}, {"time": 1001, "pitch": 57, "duration": 6, "velocity": 82}, {"time": 1007, "pitch": 50, "duration": 16, "velocity": 78}, {"time": 1007, "pitch": 62, "duration": 7, "velocity": 78}, {"time": 1013, "pitch": 57, "duration": 8, "velocity": 73}, {"time": 1019, "pitch": 65, "duration": 11, "velocity": 83}, {"time": 1031, "pitch": 48, "duration": 43, "velocity": 83}, {"time": 1031, "pitch": 55, "duration": 3, "velocity": 70}, {"time": 1031, "pitch": 60, "duration": 10, "velocity": 78}, {"time": 1037, "pitch": 55, "duration": 7, "velocity": 82}, {"time": 1043, "pitch": 62, "duration": 6, "velocity": 83}, {"time": 1049, "pitch": 60, "duration": 4, "velocity": 73}, {"time": 1055, "pitch": 55, "duration": 3, "velocity": 83}, {"time": 1055, "pitch": 64, "duration": 10, "velocity": 83}, {"time": 1061, "pitch": 55, "duration": 4, "velocity": 73}, {"time": 1067, "pitch": 55, "duration": 3, "velocity": 84}, {"time": 1067, "pitch": 60, "duration": 7, "velocity": 83}, {"time": 1073, "pitch": 55, "duration": 3, "velocity": 77}, {"time": 1079, "pitch": 41, "duration": 39, "velocity": 82}, {"time": 1079, "pitch": 57, "duration": 7, "velocity": 76}, {"time": 1079, "pitch": 60, "duration": 13, "velocity": 78}, {"time": 1085, "pitch": 48, "duration": 20, "velocity": 67}, {"time": 1091, "pitch": 57, "duration": 13, "velocity": 87}, {"time": 1097, "pitch": 60, "duration": 7, "velocity": 91}, {"time": 1103, "pitch": 65, "duration": 11, "velocity": 85}, {"time": 1109, "pitch": 48, "duration": 8, "velocity": 69}, {"time": 1115, "pitch": 57, "duration": 3, "velocity": 85}, {"time": 1115, "pitch": 60, "duration": 6, "velocity": 86}, {"time": 1127, "pitch": 45, "duration": 20, "velocity": 82}, {"time": 1127, "pitch": 57, "duration": 10, "velocity": 82}, {"time": 1127, "pitch": 60, "duration": 10, "velocity": 82}, {"time": 1133, "pitch": 52, "duration": 13, "velocity": 77}, {"time": 1139, "pitch": 60, "duration": 6, "velocity": 78}, {"time": 1139, "pitch": 64, "duration": 7, "velocity": 87}, {"time": 1145, "pitch": 57, "duration": 7, "velocity": 83}, {"time": 1151, "pitch": 50, "duration": 14, "velocity": 82}, {"time": 1151, "pitch": 62, "duration": 16, "velocity": 83}, {"time": 1157, "pitch": 53, "duration": 9, "velocity": 70}, {"time": 1163, "pitch": 65, "duration": 6, "velocity": 83}, {"time": 1175, "pitch": 41, "duration": 15, "velocity": 82}, {"time": 1175, "pitch": 53, "duration": 13, "velocity": 78}, {"time": 1175, "pitch": 57, "duration": 12, "velocity": 79}, {"time": 1181, "pitch": 48, "duration": 8, "velocity": 78}, {"time": 1187, "pitch": 60, "duration": 7, "velocity": 81}, {"time": 1193, "pitch": 57, "duration": 5, "velocity": 78}, {"time": 1199, "pitch": 48, "duration": 16, "velocity": 81}, {"time": 1199, "pitch": 55, "duration": 10, "velocity": 80}, {"time": 1199, "pitch": 60, "duration": 7, "velocity": 81}, {"time": 1205, "pitch": 52, "duration": 10, "velocity": 80}, {"time": 1211, "pitch": 55, "duration": 4, "velocity": 84}, {"time": 1211, "pitch": 64, "duration": 5, "velocity": 87}, {"time": 1223, "pitch": 41, "duration": 44, "velocity": 82}, {"time": 1223, "pitch": 57, "duration": 5, "velocity": 73}, {"time": 1223, "pitch": 60, "duration": 13, "velocity": 79}, {"time": 1223, "pitch": 65, "duration": 14, "velocity": 82}, {"time": 1229, "pitch": 48, "duration": 21, "velocity": 77}, {"time": 1235, "pitch": 57, "duration": 13, "velocity": 81}, {"time": 1241, "pitch": 60, "duration": 7, "velocity": 74}, {"time": 1247, "pitch": 65, "duration": 7, "velocity": 84}, {"time": 1253, "pitch": 48, "duration": 10, "velocity": 69}, {"time": 1259, "pitch": 57, "duration": 11, "velocity": 82}, {"time": 1259, "pitch": 60, "duration": 11, "velocity": 85}, {"time": 1259, "pitch": 65, "duration": 11, "velocity": 84}, {"time": 1271, "pitch": 41, "duration": 14, "velocity": 78}, {"time": 1271, "pitch": 65, "duration": 7, "velocity": 84}, {"time": 1271, "pitch": 69, "duration": 8, "velocity": 84}, {"time": 1277, "pitch": 60, "duration": 7, "velocity": 82}, {"time": 1283, "pitch": 65, "duration": 8, "velocity": 78}, {"time": 1283, "pitch": 69, "duration": 7, "velocity": 78}, {"time": 1289, "pitch": 60, "duration": 4, "velocity": 91}, {"time": 1295, "pitch": 50, "duration": 15, "velocity": 85}, {"time": 1295, "pitch": 65, "duration": 8, "velocity": 82}, {"time": 1295, "pitch": 69, "duration": 8, "velocity": 82}, {"time": 1301, "pitch": 57, "duration": 8, "velocity": 80}, {"time": 1307, "pitch": 62, "duration": 3, "velocity": 82}, {"time": 1307, "pitch": 65, "duration": 7, "velocity": 86}, {"time": 1313, "pitch": 62, "duration": 4, "velocity": 84}, {"time": 1319, "pitch": 45, "duration": 15, "velocity": 82}, {"time": 1319, "pitch": 64, "duration": 10, "velocity": 82}, {"time": 1325, "pitch": 52, "duration": 7, "velocity": 83}, {"time": 1331, "pitch": 57, "duration": 9, "velocity": 96}, {"time": 1337, "pitch": 52, "duration": 10, "velocity": 83}, {"time": 1343, "pitch": 60, "duration": 8, "velocity": 87}, {"time": 1343, "pitch": 64, "duration": 8, "velocity": 87}, {"time": 1349, "pitch": 57, "duration": 5, "velocity": 83}, {"time": 1355, "pitch": 57, "duration": 3, "velocity": 84}, {"time": 1355, "pitch": 60, "duration": 7, "velocity": 87}, {"time": 1355, "pitch": 64, "duration": 7, "velocity": 83}, {"time": 1361, "pitch": 57, "duration": 3, "velocity": 85}, {"time": 1367, "pitch": 41, "duration": 16, "velocity": 83}, {"time": 1367, "pitch": 65, "duration": 9, "velocity": 82}, {"time": 1367, "pitch": 69, "duration": 9, "velocity": 82}, {"time": 1373, "pitch": 48, "duration": 9, "velocity": 79}, {"time": 1379, "pitch": 65, "duration": 7, "velocity": 85}, {"time": 1379, "pitch": 69, "duration": 7, "velocity": 85}, {"time": 1385, "pitch": 60, "duration": 4, "velocity": 84}, {"time": 1391, "pitch": 50, "duration": 17, "velocity": 82}, {"time": 1391, "pitch": 65, "duration": 13, "velocity": 83}, {"time": 1391, "pitch": 69, "duration": 13, "velocity": 84}, {"time": 1397, "pitch": 57, "duration": 10, "velocity": 77}, {"time": 1403, "pitch": 62, "duration": 7, "velocity": 84}, {"time": 1409, "pitch": 65, "duration": 4, "velocity": 83}, {"time": 1409, "pitch": 69, "duration": 3, "velocity": 85}, {"time": 1415, "pitch": 48, "duration": 22, "velocity": 84}, {"time": 1415, "pitch": 60, "duration": 8, "velocity": 83}, {"time": 1415, "pitch": 64, "duration": 8, "velocity": 89}, {"time": 1421, "pitch": 55, "duration": 16, "velocity": 77}, {"time": 1427, "pitch": 62, "duration": 7, "velocity": 88}, {"time": 1433, "pitch": 64, "duration": 5, "velocity": 84}, {"time": 1439, "pitch": 48, "duration": 15, "velocity": 87}, {"time": 1439, "pitch": 60, "duration": 9, "velocity": 80}, {"time": 1439, "pitch": 64, "duration": 5, "velocity": 84}, {"time": 1439, "pitch": 67, "duration": 6, "velocity": 79}, {"time": 1445, "pitch": 55, "duration": 8, "velocity": 76}, {"time": 1451, "pitch": 60, "duration": 3, "velocity": 85}, {"time": 1451, "pitch": 64, "duration": 6, "velocity": 91}, {"time": 1457, "pitch": 60, "duration": 4, "velocity": 89}, {"time": 1463, "pitch": 41, "duration": 3, "velocity": 82}, {"time": 1463, "pitch": 60, "duration": 3, "velocity": 89}, {"time": 1463, "pitch": 65, "duration": 8, "velocity": 84}, {"time": 1469, "pitch": 53, "duration": 29, "velocity": 58}, {"time": 1469, "pitch": 60, "duration": 7, "velocity": 78}, {"time": 1475, "pitch": 65, "duration": 7, "velocity": 87}, {"time": 1481, "pitch": 60, "duration": 7, "velocity": 85}, {"time": 1487, "pitch": 65, "duration": 8, "velocity": 84}, {"time": 1487, "pitch": 69, "duration": 7, "velocity": 85}, {"time": 1493, "pitch": 60, "duration": 7, "velocity": 76}, {"time": 1499, "pitch": 65, "duration": 6, "velocity": 83}, {"time": 1499, "pitch": 69, "duration": 7, "velocity": 86}, {"time": 1505, "pitch": 60, "duration": 2, "velocity": 83}, {"time": 1511, "pitch": 45, "duration": 20, "velocity": 82}, {"time": 1511, "pitch": 57, "duration": 13, "velocity": 82}, {"time": 1511, "pitch": 60, "duration": 8, "velocity": 83}, {"time": 1517, "pitch": 52, "duration": 13, "velocity": 78}, {"time": 1523, "pitch": 60, "duration": 6, "velocity": 80}, {"time": 1523, "pitch": 64, "duration": 6, "velocity": 98}, {"time": 1529, "pitch": 57, "duration": 6, "velocity": 84}, {"time": 1535, "pitch": 50, "duration": 21, "velocity": 81}, {"time": 1535, "pitch": 62, "duration": 7, "velocity": 82}, {"time": 1535, "pitch": 65, "duration": 7, "velocity": 84}, {"time": 1541, "pitch": 53, "duration": 14, "velocity": 70}, {"time": 1541, "pitch": 57, "duration": 7, "velocity": 86}, {"time": 1547, "pitch": 62, "duration": 5, "velocity": 88}, {"time": 1553, "pitch": 57, "duration": 4, "velocity": 89}, {"time": 1559, "pitch": 41, "duration": 18, "velocity": 82}, {"time": 1559, "pitch": 65, "duration": 9, "velocity": 84}, {"time": 1559, "pitch": 69, "duration": 9, "velocity": 84}, {"time": 1565, "pitch": 48, "duration": 12, "velocity": 67}, {"time": 1571, "pitch": 60, "duration": 3, "velocity": 85}, {"time": 1571, "pitch": 65, "duration": 10, "velocity": 88}, {"time": 1577, "pitch": 60, "duration": 3, "velocity": 84}, {"time": 1583, "pitch": 43, "duration": 16, "velocity": 83}, {"time": 1583, "pitch": 62, "duration": 7, "velocity": 83}, {"time": 1583, "pitch": 67, "duration": 6, "velocity": 81}, {"time": 1589, "pitch": 50, "duration": 8, "velocity": 71}, {"time": 1595, "pitch": 62, "duration": 2, "velocity": 75}, {"time": 1595, "pitch": 67, "duration": 8, "velocity": 83}, {"time": 1595, "pitch": 71, "duration": 7, "velocity": 84}, {"time": 1601, "pitch": 62, "duration": 3, "velocity": 82}, {"time": 1607, "pitch": 48, "duration": 22, "velocity": 84}, {"time": 1607, "pitch": 60, "duration": 8, "velocity": 85}, {"time": 1607, "pitch": 64, "duration": 8, "velocity": 86}, {"time": 1613, "pitch": 55, "duration": 15, "velocity": 82}, {"time": 1619, "pitch": 60, "duration": 4, "velocity": 93}, {"time": 1625, "pitch": 62, "duration": 5, "velocity": 91}, {"time": 1631, "pitch": 48, "duration": 10, "velocity": 88}, {"time": 1631, "pitch": 60, "duration": 4, "velocity": 84}, {"time": 1631, "pitch": 64, "duration": 6, "velocity": 91}, {"time": 1637, "pitch": 62, "duration": 5, "velocity": 89}, {"time": 1643, "pitch": 48, "duration": 12, "velocity": 86}, {"time": 1643, "pitch": 55, "duration": 12, "velocity": 83}, {"time": 1643, "pitch": 60, "duration": 4, "velocity": 96}, {"time": 1649, "pitch": 60, "duration": 5, "velocity": 96}, {"time": 1655, "pitch": 41, "duration": 2, "velocity": 82}, {"time": 1655, "pitch": 65, "duration": 7, "velocity": 83}, {"time": 1655, "pitch": 69, "duration": 7, "velocity": 82}, {"time": 1661, "pitch": 60, "duration": 7, "velocity": 82}, {"time": 1667, "pitch": 53, "duration": 29, "velocity": 80}, {"time": 1667, "pitch": 65, "duration": 7, "velocity": 84}, {"time": 1673, "pitch": 60, "duration": 7, "velocity": 83}, {"time": 1679, "pitch": 65, "duration": 8, "velocity": 83}, {"time": 1679, "pitch": 69, "duration": 7, "velocity": 87}, {"time": 1685, "pitch": 60, "duration": 7, "velocity": 80}, {"time": 1691, "pitch": 65, "duration": 7, "velocity": 89}, {"time": 1697, "pitch": 60, "duration": 3, "velocity": 87}, {"time": 1703, "pitch": 50, "duration": 12, "velocity": 84}, {"time": 1703, "pitch": 62, "duration": 12, "velocity": 83}, {"time": 1703, "pitch": 65, "duration": 7, "velocity": 85}, {"time": 1709, "pitch": 57, "duration": 6, "velocity": 70}, {"time": 1715, "pitch": 65, "duration": 7, "velocity": 83}, {"time": 1715, "pitch": 69, "duration": 6, "velocity": 84}, {"time": 1721, "pitch": 62, "duration": 2, "velocity": 86}, {"time": 1727, "pitch": 45, "duration": 21, "velocity": 83}, {"time": 1727, "pitch": 57, "duration": 13, "velocity": 82}, {"time": 1727, "pitch": 60, "duration": 8, "velocity": 83}, {"time": 1733, "pitch": 52, "duration": 14, "velocity": 82}, {"time": 1739, "pitch": 60, "duration": 7, "velocity": 82}, {"time": 1739, "pitch": 64, "duration": 7, "velocity": 89}, {"time": 1745, "pitch": 57, "duration": 5, "velocity": 80}, {"time": 1751, "pitch": 50, "duration": 40, "velocity": 87}, {"time": 1751, "pitch": 62, "duration": 7, "velocity": 84}, {"time": 1757, "pitch": 57, "duration": 7, "velocity": 83}, {"time": 1763, "pitch": 65, "duration": 8, "velocity": 87}, {"time": 1769, "pitch": 57, "duration": 7, "velocity": 88}, {"time": 1775, "pitch": 62, "duration": 7, "velocity": 84}, {"time": 1781, "pitch": 57, "duration": 7, "velocity": 84}, {"time": 1787, "pitch": 65, "duration": 6, "velocity": 89}, {"time": 1793, "pitch": 57, "duration": 2, "velocity": 88}, {"time": 1799, "pitch": 48, "duration": 38, "velocity": 85}, {"time": 1799, "pitch": 55, "duration": 5, "velocity": 79}, {"time": 1799, "pitch": 60, "duration": 5, "velocity": 78}, {"time": 1805, "pitch": 55, "duration": 9, "velocity": 82}, {"time": 1811, "pitch": 62, "duration": 11, "velocity": 88}, {"time": 1817, "pitch": 55, "duration": 9, "velocity": 87}, {"time": 1823, "pitch": 60, "duration": 8, "velocity": 84}, {"time": 1823, "pitch": 64, "duration": 7, "velocity": 89}, {"time": 1829, "pitch": 55, "duration": 9, "velocity": 81}, {"time": 1835, "pitch": 60, "duration": 3, "velocity": 82}, {"time": 1835, "pitch": 64, "duration": 4, "velocity": 89}, {"time": 1835, "pitch": 67, "duration": 4, "velocity": 82}, {"time": 1841, "pitch": 48, "duration": 2, "velocity": 83}, {"time": 1847, "pitch": 36, "duration": 2, "velocity": 79}, {"time": 1847, "pitch": 60, "duration": 10, "velocity": 81}, {"time": 1847, "pitch": 64, "duration": 9, "velocity": 84}, {"time": 1853, "pitch": 48, "duration": 13, "velocity": 82}, {"time": 1859, "pitch": 64, "duration": 8, "velocity": 88}, {"time": 1859, "pitch": 67, "duration": 8, "velocity": 83}, {"time": 1865, "pitch": 60, "duration": 4, "velocity": 79}, {"time": 1871, "pitch": 41, "duration": 19, "velocity": 81}, {"time": 1871, "pitch": 60, "duration": 5, "velocity": 83}, {"time": 1871, "pitch": 65, "duration": 9, "velocity": 82}, {"time": 1877, "pitch": 48, "duration": 11, "velocity": 82}, {"time": 1883, "pitch": 65, "duration": 10, "velocity": 83}, {"time": 1883, "pitch": 69, "duration": 10, "velocity": 77}, {"time": 1889, "pitch": 60, "duration": 5, "velocity": 83}, {"time": 1895, "pitch": 45, "duration": 18, "velocity": 83}, {"time": 1895, "pitch": 64, "duration": 4, "velocity": 84}, {"time": 1895, "pitch": 69, "duration": 9, "velocity": 82}, {"time": 1901, "pitch": 52, "duration": 9, "velocity": 67}, {"time": 1901, "pitch": 64, "duration": 6, "velocity": 85}, {"time": 1907, "pitch": 69, "duration": 6, "velocity": 84}, {"time": 1907, "pitch": 72, "duration": 6, "velocity": 89}, {"time": 1913, "pitch": 64, "duration": 2, "velocity": 89}, {"time": 1919, "pitch": 50, "duration": 16, "velocity": 82}, {"time": 1919, "pitch": 62, "duration": 11, "velocity": 83}, {"time": 1919, "pitch": 65, "duration": 8, "velocity": 83}, {"time": 1925, "pitch": 57, "duration": 7, "velocity": 76}, {"time": 1931, "pitch": 65, "duration": 7, "velocity": 82}, {"time": 1931, "pitch": 69, "duration": 6, "velocity": 85}, {"time": 1937, "pitch": 62, "duration": 6, "velocity": 87}, {"time": 1943, "pitch": 41, "duration": 19, "velocity": 83}, {"time": 1949, "pitch": 48, "duration": 12, "velocity": 68}, {"time": 1955, "pitch": 57, "duration": 7, "velocity": 84}, {"time": 1961, "pitch": 53, "duration": 3, "velocity": 86}, {"time": 1967, "pitch": 48, "duration": 18, "velocity": 83}, {"time": 1967, "pitch": 55, "duration": 3, "velocity": 84}, {"time": 1967, "pitch": 60, "duration": 8, "velocity": 86}, {"time": 1973, "pitch": 55, "duration": 7, "velocity": 83}, {"time": 1979, "pitch": 60, "duration": 6, "velocity": 85}, {"time": 1979, "pitch": 64, "duration": 6, "velocity": 89}, {"time": 1985, "pitch": 55, "duration": 2, "velocity": 83}, {"time": 1991, "pitch": 41, "duration": 2, "velocity": 83}, {"time": 1991, "pitch": 53, "duration": 4, "velocity": 78}, {"time": 1991, "pitch": 57, "duration": 5, "velocity": 79}, {"time": 1997, "pitch": 53, "duration": 42, "velocity": 80}, {"time": 2003, "pitch": 60, "duration": 15, "velocity": 87}, {"time": 2009, "pitch": 65, "duration": 6, "velocity": 88}, {"time": 2015, "pitch": 67, "duration": 9, "velocity": 89}, {"time": 2021, "pitch": 60, "duration": 8, "velocity": 75}, {"time": 2027, "pitch": 65, "duration": 12, "velocity": 83}, {"time": 2027, "pitch": 69, "duration": 12, "velocity": 83}, {"time": 2033, "pitch": 60, "duration": 6, "velocity": 78}, {"time": 2039, "pitch": 41, "duration": 15, "velocity": 80}, {"time": 2045, "pitch": 48, "duration": 9, "velocity": 72}, {"time": 2051, "pitch": 53, "duration": 6, "velocity": 85}, {"time": 2057, "pitch": 60, "duration": 8, "velocity": 82}, {"time": 2063, "pitch": 50, "duration": 17, "velocity": 84}, {"time": 2063, "pitch": 62, "duration": 7, "velocity": 79}, {"time": 2069, "pitch": 57, "duration": 10, "velocity": 67}, {"time": 2075, "pitch": 62, "duration": 11, "velocity": 74}, {"time": 2075, "pitch": 65, "duration": 26, "velocity": 76}, {"time": 2087, "pitch": 45, "duration": 41, "velocity": 79}, {"time": 2093, "pitch": 52, "duration": 9, "velocity": 76}, {"time": 2099, "pitch": 57, "duration": 10, "velocity": 78}, {"time": 2105, "pitch": 52, "duration": 23, "velocity": 67}, {"time": 2111, "pitch": 64, "duration": 16, "velocity": 82}, {"time": 2135, "pitch": 41, "duration": 26, "velocity": 71}, {"time": 2141, "pitch": 48, "duration": 15, "velocity": 83}, {"time": 2147, "pitch": 53, "duration": 8, "velocity": 86}, {"time": 2153, "pitch": 57, "duration": 7, "velocity": 73}, {"time": 2159, "pitch": 62, "duration": 12, "velocity": 83}, {"time": 2165, "pitch": 50, "duration": 11, "velocity": 41}, {"time": 2171, "pitch": 57, "duration": 7, "velocity": 79}, {"time": 2177, "pitch": 62, "duration": 5, "velocity": 78}, {"time": 2183, "pitch": 48, "duration": 40, "velocity": 69}, {"time": 2183, "pitch": 55, "duration": 9, "velocity": 72}, {"time": 2183, "pitch": 60, "duration": 18, "velocity": 71}, {"time": 2189, "pitch": 52, "duration": 34, "velocity": 54}, {"time": 2195, "pitch": 55, "duration": 7, "velocity": 75}, {"time": 2201, "pitch": 62, "duration": 4, "velocity": 70}, {"time": 2207, "pitch": 55, "duration": 9, "velocity": 81}, {"time": 2207, "pitch": 64, "duration": 12, "velocity": 82}, {"time": 2219, "pitch": 55, "duration": 7, "velocity": 82}, {"time": 2219, "pitch": 60, "duration": 6, "velocity": 81}, {"time": 2231, "pitch": 41, "duration": 39, "velocity": 83}, {"time": 2231, "pitch": 53, "duration": 8, "velocity": 77}, {"time": 2231, "pitch": 57, "duration": 13, "velocity": 76}, {"time": 2237, "pitch": 48, "duration": 32, "velocity": 77}, {"time": 2243, "pitch": 53, "duration": 13, "velocity": 79}, {"time": 2249, "pitch": 60, "duration": 9, "velocity": 78}, {"time": 2255, "pitch": 65, "duration": 13, "velocity": 82}, {"time": 2261, "pitch": 53, "duration": 8, "velocity": 74}, {"time": 2267, "pitch": 60, "duration": 2, "velocity": 81}, {"time": 2279, "pitch": 50, "duration": 36, "velocity": 83}, {"time": 2279, "pitch": 57, "duration": 8, "velocity": 70}, {"time": 2279, "pitch": 62, "duration": 13, "velocity": 77}, {"time": 2285, "pitch": 53, "duration": 30, "velocity": 72}, {"time": 2291, "pitch": 57, "duration": 14, "velocity": 84}, {"time": 2297, "pitch": 62, "duration": 13, "velocity": 80}, {"time": 2303, "pitch": 65, "duration": 14, "velocity": 84}, {"time": 2309, "pitch": 57, "duration": 13, "velocity": 71}, {"time": 2315, "pitch": 62, "duration": 18, "velocity": 76}, {"time": 2327, "pitch": 43, "duration": 44, "velocity": 83}, {"time": 2333, "pitch": 50, "duration": 37, "velocity": 77}, {"time": 2339, "pitch": 55, "duration": 15, "velocity": 85}, {"time": 2345, "pitch": 62, "duration": 15, "velocity": 78}, {"time": 2351, "pitch": 67, "duration": 14, "velocity": 76}, {"time": 2363, "pitch": 55, "duration": 7, "velocity": 78}, {"time": 2363, "pitch": 62, "duration": 9, "velocity": 77}, {"time": 2375, "pitch": 48, "duration": 41, "velocity": 82}, {"time": 2375, "pitch": 55, "duration": 6, "velocity": 76}, {"time": 2375, "pitch": 60, "duration": 14, "velocity": 77}, {"time": 2381, "pitch": 52, "duration": 34, "velocity": 71}, {"time": 2387, "pitch": 55, "duration": 13, "velocity": 83}, {"time": 2393, "pitch": 62, "duration": 6, "velocity": 76}, {"time": 2399, "pitch": 64, "duration": 7, "velocity": 78}, {"time": 2405, "pitch": 62, "duration": 10, "velocity": 76}, {"time": 2411, "pitch": 60, "duration": 4, "velocity": 72}, {"time": 2423, "pitch": 41, "duration": 45, "velocity": 82}, {"time": 2423, "pitch": 53, "duration": 7, "velocity": 59}, {"time": 2423, "pitch": 57, "duration": 12, "velocity": 60}, {"time": 2429, "pitch": 48, "duration": 21, "velocity": 77}, {"time": 2435, "pitch": 53, "duration": 7, "velocity": 83}, {"time": 2441, "pitch": 55, "duration": 8, "velocity": 83}, {"time": 2447, "pitch": 57, "duration": 11, "velocity": 71}, {"time": 2453, "pitch": 48, "duration": 8, "velocity": 65}, {"time": 2459, "pitch": 53, "duration": 19, "velocity": 77}, {"time": 2471, "pitch": 41, "duration": 48, "velocity": 82}, {"time": 2477, "pitch": 48, "duration": 8, "velocity": 73}, {"time": 2483, "pitch": 53, "duration": 10, "velocity": 76}, {"time": 2489, "pitch": 48, "duration": 30, "velocity": 59}, {"time": 2495, "pitch": 53, "duration": 24, "velocity": 77}, {"time": 2495, "pitch": 57, "duration": 24, "velocity": 77}, {"time": 2519, "pitch": 41, "duration": 1, "velocity": 81}, {"time": 2519, "pitch": 69, "duration": 18, "velocity": 78}, {"time": 2525, "pitch": 53, "duration": 11, "velocity": 72}, {"time": 2531, "pitch": 60, "duration": 5, "velocity": 84}, {"time": 2537, "pitch": 65, "duration": 7, "velocity": 85}, {"time": 2543, "pitch": 50, "duration": 15, "velocity": 82}, {"time": 2543, "pitch": 69, "duration": 13, "velocity": 81}, {"time": 2549, "pitch": 57, "duration": 9, "velocity": 66}, {"time": 2555, "pitch": 62, "duration": 12, "velocity": 80}, {"time": 2567, "pitch": 45, "duration": 39, "velocity": 75}, {"time": 2573, "pitch": 52, "duration": 8, "velocity": 80}, {"time": 2579, "pitch": 60, "duration": 9, "velocity": 86}, {"time": 2585, "pitch": 52, "duration": 8, "velocity": 75}, {"time": 2591, "pitch": 57, "duration": 9, "velocity": 83}, {"time": 2591, "pitch": 64, "duration": 7, "velocity": 84}, {"time": 2597, "pitch": 52, "duration": 9, "velocity": 72}, {"time": 2603, "pitch": 57, "duration": 4, "velocity": 83}, {"time": 2603, "pitch": 60, "duration": 3, "velocity": 83}, {"time": 2615, "pitch": 41, "duration": 20, "velocity": 82}, {"time": 2615, "pitch": 57, "duration": 12, "velocity": 80}, {"time": 2621, "pitch": 48, "duration": 14, "velocity": 73}, {"time": 2627, "pitch": 53, "duration": 10, "velocity": 84}, {"time": 2633, "pitch": 57, "duration": 6, "velocity": 82}, {"time": 2639, "pitch": 50, "duration": 16, "velocity": 78}, {"time": 2639, "pitch": 62, "duration": 7, "velocity": 78}, {"time": 2645, "pitch": 57, "duration": 8, "velocity": 73}, {"time": 2651, "pitch": 65, "duration": 11, "velocity": 83}, {"time": 2663, "pitch": 48, "duration": 43, "velocity": 83}, {"time": 2663, "pitch": 55, "duration": 3, "velocity": 70}, {"time": 2663, "pitch": 60, "duration": 10, "velocity": 78}, {"time": 2669, "pitch": 55, "duration": 7, "velocity": 82}, {"time": 2675, "pitch": 62, "duration": 6, "velocity": 83}, {"time": 2681, "pitch": 60, "duration": 4, "velocity": 73}, {"time": 2687, "pitch": 55, "duration": 3, "velocity": 83}, {"time": 2687, "pitch": 64, "duration": 10, "velocity": 83}, {"time": 2693, "pitch": 55, "duration": 4, "velocity": 73}, {"time": 2699, "pitch": 55, "duration": 3, "velocity": 84}, {"time": 2699, "pitch": 60, "duration": 7, "velocity": 83}, {"time": 2705, "pitch": 55, "duration": 3, "velocity": 77}, {"time": 2711, "pitch": 41, "duration": 39, "velocity": 82}, {"time": 2711, "pitch": 57, "duration": 7, "velocity": 76}, {"time": 2711, "pitch": 60, "duration": 13, "velocity": 78}, {"time": 2717, "pitch": 48, "duration": 20, "velocity": 67}, {"time": 2723, "pitch": 57, "duration": 13, "velocity": 87}, {"time": 2729, "pitch": 60, "duration": 7, "velocity": 91}, {"time": 2735, "pitch": 65, "duration": 11, "velocity": 85}, {"time": 2741, "pitch": 48, "duration": 8, "velocity": 69}, {"time": 2747, "pitch": 57, "duration": 3, "velocity": 85}, {"time": 2747, "pitch": 60, "duration": 6, "velocity": 86}, {"time": 2759, "pitch": 45, "duration": 20, "velocity": 82}, {"time": 2759, "pitch": 57, "duration": 10, "velocity": 82}, {"time": 2759, "pitch": 60, "duration": 10, "velocity": 82}, {"time": 2765, "pitch": 52, "duration": 13, "velocity": 77}, {"time": 2771, "pitch": 60, "duration": 6, "velocity": 78}, {"time": 2771, "pitch": 64, "duration": 7, "velocity": 87}, {"time": 2777, "pitch": 57, "duration": 7, "velocity": 83}, {"time": 2783, "pitch": 50, "duration": 14, "velocity": 82}, {"time": 2783, "pitch": 62, "duration": 16, "velocity": 83}, {"time": 2789, "pitch": 53, "duration": 9, "velocity": 70}, {"time": 2795, "pitch": 65, "duration": 6, "velocity": 83}, {"time": 2807, "pitch": 41, "duration": 15, "velocity": 82}, {"time": 2807, "pitch": 53, "duration": 13, "velocity": 78}, {"time": 2807, "pitch": 57, "duration": 12, "velocity": 79}, {"time": 2813, "pitch": 48, "duration": 8, "velocity": 78}, {"time": 2819, "pitch": 60, "duration": 7, "velocity": 81}, {"time": 2825, "pitch": 57, "duration": 5, "velocity": 78}, {"time": 2831, "pitch": 48, "duration": 16, "velocity": 81}, {"time": 2831, "pitch": 55, "duration": 10, "velocity": 80}, {"time": 2831, "pitch": 60, "duration": 7, "velocity": 81}, {"time": 2837, "pitch": 52, "duration": 10, "velocity": 80}, {"time": 2843, "pitch": 55, "duration": 4, "velocity": 84}, {"time": 2843, "pitch": 64, "duration": 5, "velocity": 87}, {"time": 2855, "pitch": 41, "duration": 44, "velocity": 82}, {"time": 2855, "pitch": 57, "duration": 5, "velocity": 73}, {"time": 2855, "pitch": 60, "duration": 13, "velocity": 79}, {"time": 2855, "pitch": 65, "duration": 14, "velocity": 82}, {"time": 2861, "pitch": 48, "duration": 21, "velocity": 77}, {"time": 2867, "pitch": 57, "duration": 13, "velocity": 81}, {"time": 2873, "pitch": 60, "duration": 7, "velocity": 74}, {"time": 2879, "pitch": 65, "duration": 7, "velocity": 84}, {"time": 2885, "pitch": 48, "duration": 10, "velocity": 69}, {"time": 2891, "pitch": 57, "duration": 11, "velocity": 82}, {"time": 2891, "pitch": 60, "duration": 11, "velocity": 85}, {"time": 2891, "pitch": 65, "duration": 11, "velocity": 84}, {"time": 2903, "pitch": 41, "duration": 14, "velocity": 78}, {"time": 2903, "pitch": 65, "duration": 7, "velocity": 84}, {"time": 2903, "pitch": 69, "duration": 8, "velocity": 84}, {"time": 2909, "pitch": 60, "duration": 7, "velocity": 82}, {"time": 2915, "pitch": 65, "duration": 8, "velocity": 78}, {"time": 2915, "pitch": 69, "duration": 7, "velocity": 78}, {"time": 2921, "pitch": 60, "duration": 4, "velocity": 91}, {"time": 2927, "pitch": 50, "duration": 15, "velocity": 85}, {"time": 2927, "pitch": 65, "duration": 8, "velocity": 82}, {"time": 2927, "pitch": 69, "duration": 8, "velocity": 82}, {"time": 2933, "pitch": 57, "duration": 8, "velocity": 80}, {"time": 2939, "pitch": 62, "duration": 3, "velocity": 82}, {"time": 2939, "pitch": 65, "duration": 7, "velocity": 86}, {"time": 2945, "pitch": 62, "duration": 4, "velocity": 84}, {"time": 2951, "pitch": 45, "duration": 15, "velocity": 82}, {"time": 2951, "pitch": 64, "duration": 10, "velocity": 82}, {"time": 2957, "pitch": 52, "duration": 7, "velocity": 83}, {"time": 2963, "pitch": 57, "duration": 9, "velocity": 96}, {"time": 2969, "pitch": 52, "duration": 10, "velocity": 83}, {"time": 2975, "pitch": 60, "duration": 8, "velocity": 87}, {"time": 2975, "pitch": 64, "duration": 8, "velocity": 87}, {"time": 2981, "pitch": 57, "duration": 5, "velocity": 83}, {"time": 2987, "pitch": 57, "duration": 3, "velocity": 84}, {"time": 2987, "pitch": 60, "duration": 7, "velocity": 87}, {"time": 2987, "pitch": 64, "duration": 7, "velocity": 83}, {"time": 2993, "pitch": 57, "duration": 3, "velocity": 85}, {"time": 2999, "pitch": 41, "duration": 16, "velocity": 83}, {"time": 2999, "pitch": 65, "duration": 9, "velocity": 82}, {"time": 2999, "pitch": 69, "duration": 9, "velocity": 82}, {"time": 3005, "pitch": 48, "duration": 9, "velocity": 79}, {"time": 3011, "pitch": 65, "duration": 7, "velocity": 85}, {"time": 3011, "pitch": 69, "duration": 7, "velocity": 85}, {"time": 3017, "pitch": 60, "duration": 4, "velocity": 84}, {"time": 3023, "pitch": 50, "duration": 17, "velocity": 82}, {"time": 3023, "pitch": 65, "duration": 13, "velocity": 83}, {"time": 3023, "pitch": 69, "duration": 13, "velocity": 84}, {"time": 3029, "pitch": 57, "duration": 10, "velocity": 77}, {"time": 3035, "pitch": 62, "duration": 7, "velocity": 84}, {"time": 3041, "pitch": 65, "duration": 4, "velocity": 83}, {"time": 3041, "pitch": 69, "duration": 3, "velocity": 85}, {"time": 3047, "pitch": 48, "duration": 22, "velocity": 84}, {"time": 3047, "pitch": 60, "duration": 8, "velocity": 83}, {"time": 3047, "pitch": 64, "duration": 8, "velocity": 89}, {"time": 3053, "pitch": 55, "duration": 16, "velocity": 77}, {"time": 3059, "pitch": 62, "duration": 7, "velocity": 88}, {"time": 3065, "pitch": 64, "duration": 5, "velocity": 84}, {"time": 3071, "pitch": 48, "duration": 15, "velocity": 87}, {"time": 3071, "pitch": 60, "duration": 9, "velocity": 80}, {"time": 3071, "pitch": 64, "duration": 5, "velocity": 84}, {"time": 3071, "pitch": 67, "duration": 6, "velocity": 79}, {"time": 3077, "pitch": 55, "duration": 8, "velocity": 76}, {"time": 3083, "pitch": 60, "duration": 3, "velocity": 85}, {"time": 3083, "pitch": 64, "duration": 6, "velocity": 91}, {"time": 3089, "pitch": 60, "duration": 4, "velocity": 89}, {"time": 3095, "pitch": 41, "duration": 3, "velocity": 82}, {"time": 3095, "pitch": 60, "duration": 3, "velocity": 89}, {"time": 3095, "pitch": 65, "duration": 8, "velocity": 84}, {"time": 3101, "pitch": 53, "duration": 29, "velocity": 58}, {"time": 3101, "pitch": 60, "duration": 7, "velocity": 78}, {"time": 3107, "pitch": 65, "duration": 7, "velocity": 87}, {"time": 3113, "pitch": 60, "duration": 7, "velocity": 85}, {"time": 3119, "pitch": 65, "duration": 8, "velocity": 84}, {"time": 3119, "pitch": 69, "duration": 7, "velocity": 85}, {"time": 3125, "pitch": 60, "duration": 7, "velocity": 76}, {"time": 3131, "pitch": 65, "duration": 6, "velocity": 83}, {"time": 3131, "pitch": 69, "duration": 7, "velocity": 86}, {"time": 3137, "pitch": 60, "duration": 2, "velocity": 83}, {"time": 3143, "pitch": 45, "duration": 20, "velocity": 82}, {"time": 3143, "pitch": 57, "duration": 13, "velocity": 82}, {"time": 3143, "pitch": 60, "duration": 8, "velocity": 83}, {"time": 3149, "pitch": 52, "duration": 13, "velocity": 78}, {"time": 3155, "pitch": 60, "duration": 6, "velocity": 80}, {"time": 3155, "pitch": 64, "duration": 6, "velocity": 98}, {"time": 3161, "pitch": 57, "duration": 6, "velocity": 84}, {"time": 3167, "pitch": 50, "duration": 21, "velocity": 81}, {"time": 3167, "pitch": 62, "duration": 7, "velocity": 82}, {"time": 3167, "pitch": 65, "duration": 7, "velocity": 84}, {"time": 3173, "pitch": 53, "duration": 14, "velocity": 70}, {"time": 3173, "pitch": 57, "duration": 7, "velocity": 86}, {"time": 3179, "pitch": 62, "duration": 5, "velocity": 88}, {"time": 3185, "pitch": 57, "duration": 4, "velocity": 89}, {"time": 3191, "pitch": 41, "duration": 18, "velocity": 82}, {"time": 3191, "pitch": 65, "duration": 9, "velocity": 84}, {"time": 3191, "pitch": 69, "duration": 9, "velocity": 84}, {"time": 3197, "pitch": 48, "duration": 12, "velocity": 67}, {"time": 3203, "pitch": 60, "duration": 3, "velocity": 85}, {"time": 3203, "pitch": 65, "duration": 10, "velocity": 88}, {"time": 3209, "pitch": 60, "duration": 3, "velocity": 84}, {"time": 3215, "pitch": 43, "duration": 16, "velocity": 83}, {"time": 3215, "pitch": 62, "duration": 7, "velocity": 83}, {"time": 3215, "pitch": 67, "duration": 6, "velocity": 81}, {"time": 3221, "pitch": 50, "duration": 8, "velocity": 71}, {"time": 3227, "pitch": 62, "duration": 2, "velocity": 75}, {"time": 3227, "pitch": 67, "duration": 8, "velocity": 83}, {"time": 3227, "pitch": 71, "duration": 7, "velocity": 84}, {"time": 3233, "pitch": 62, "duration": 3, "velocity": 82}, {"time": 3239, "pitch": 48, "duration": 22, "velocity": 84}, {"time": 3239, "pitch": 60, "duration": 8, "velocity": 85}, {"time": 3239, "pitch": 64, "duration": 8, "velocity": 86}, {"time": 3245, "pitch": 55, "duration": 15, "velocity": 82}, {"time": 3251, "pitch": 60, "duration": 4, "velocity": 93}, {"time": 3257, "pitch": 62, "duration": 5, "velocity": 91}, {"time": 3263, "pitch": 48, "duration": 10, "velocity": 88}, {"time": 3263, "pitch": 60, "duration": 4, "velocity": 84}, {"time": 3263, "pitch": 64, "duration": 6, "velocity": 91}, {"time": 3269, "pitch": 62, "duration": 5, "velocity": 89}, {"time": 3275, "pitch": 48, "duration": 12, "velocity": 86}, {"time": 3275, "pitch": 55, "duration": 12, "velocity": 83}, {"time": 3275, "pitch": 60, "duration": 4, "velocity": 96}, {"time": 3281, "pitch": 60, "duration": 5, "velocity": 96}, {"time": 3287, "pitch": 41, "duration": 2, "velocity": 82}, {"time": 3287, "pitch": 65, "duration": 7, "velocity": 83}, {"time": 3287, "pitch": 69, "duration": 7, "velocity": 82}, {"time": 3293, "pitch": 60, "duration": 7, "velocity": 82}, {"time": 3299, "pitch": 53, "duration": 29, "velocity": 80}, {"time": 3299, "pitch": 65, "duration": 7, "velocity": 84}, {"time": 3305, "pitch": 60, "duration": 7, "velocity": 83}, {"time": 3311, "pitch": 65, "duration": 8, "velocity": 83}, {"time": 3311, "pitch": 69, "duration": 7, "velocity": 87}, {"time": 3317, "pitch": 60, "duration": 7, "velocity": 80}, {"time": 3323, "pitch": 65, "duration": 7, "velocity": 89}, {"time": 3329, "pitch": 60, "duration": 3, "velocity": 87}, {"time": 3335, "pitch": 50, "duration": 12, "velocity": 84}, {"time": 3335, "pitch": 62, "duration": 12, "velocity": 83}, {"time": 3335, "pitch": 65, "duration": 7, "velocity": 85}, {"time": 3341, "pitch": 57, "duration": 6, "velocity": 70}, {"time": 3347, "pitch": 65, "duration": 7, "velocity": 83}, {"time": 3347, "pitch": 69, "duration": 6, "velocity": 84}, {"time": 3353, "pitch": 62, "duration": 2, "velocity": 86}, {"time": 3359, "pitch": 45, "duration": 21, "velocity": 83}, {"time": 3359, "pitch": 57, "duration": 13, "velocity": 82}, {"time": 3359, "pitch": 60, "duration": 8, "velocity": 83}, {"time": 3365, "pitch": 52, "duration": 14, "velocity": 82}, {"time": 3371, "pitch": 60, "duration": 7, "velocity": 82}, {"time": 3371, "pitch": 64, "duration": 7, "velocity": 89}, {"time": 3377, "pitch": 57, "duration": 5, "velocity": 80}, {"time": 3383, "pitch": 50, "duration": 40, "velocity": 87}, {"time": 3383, "pitch": 62, "duration": 7, "velocity": 84}, {"time": 3389, "pitch": 57, "duration": 7, "velocity": 83}, {"time": 3395, "pitch": 65, "duration": 8, "velocity": 87}, {"time": 3401, "pitch": 57, "duration": 7, "velocity": 88}, {"time": 3407, "pitch": 62, "duration": 7, "velocity": 84}, {"time": 3413, "pitch": 57, "duration": 7, "velocity": 84}, {"time": 3419, "pitch": 65, "duration": 6, "velocity": 89}, {"time": 3425, "pitch": 57, "duration": 2, "velocity": 88}, {"time": 3431, "pitch": 48, "duration": 38, "velocity": 85}, {"time": 3431, "pitch": 55, "duration": 5, "velocity": 79}, {"time": 3431, "pitch": 60, "duration": 5, "velocity": 78}, {"time": 3437, "pitch": 55, "duration": 9, "velocity": 82}, {"time": 3443, "pitch": 62, "duration": 11, "velocity": 88}, {"time": 3449, "pitch": 55, "duration": 9, "velocity": 87}, {"time": 3455, "pitch": 60, "duration": 8, "velocity": 84}, {"time": 3455, "pitch": 64, "duration": 7, "velocity": 89}, {"time": 3461, "pitch": 55, "duration": 9, "velocity": 81}, {"time": 3467, "pitch": 60, "duration": 3, "velocity": 82}, {"time": 3467, "pitch": 64, "duration": 4, "velocity": 89}, {"time": 3467, "pitch": 67, "duration": 4, "velocity": 82}, {"time": 3473, "pitch": 48, "duration": 2, "velocity": 83}, {"time": 3479, "pitch": 36, "duration": 2, "velocity": 79}, {"time": 3479, "pitch": 60, "duration": 10, "velocity": 81}, {"time": 3479, "pitch": 64, "duration": 9, "velocity": 84}, {"time": 3485, "pitch": 48, "duration": 13, "velocity": 82}, {"time": 3491, "pitch": 64, "duration": 8, "velocity": 88}, {"time": 3491, "pitch": 67, "duration": 8, "velocity": 83}, {"time": 3497, "pitch": 60, "duration": 4, "velocity": 79}, {"time": 3503, "pitch": 41, "duration": 19, "velocity": 81}, {"time": 3503, "pitch": 60, "duration": 5, "velocity": 83}, {"time": 3503, "pitch": 65, "duration": 9, "velocity": 82}, {"time": 3509, "pitch": 48, "duration": 11, "velocity": 82}, {"time": 3515, "pitch": 65, "duration": 10, "velocity": 83}, {"time": 3515, "pitch": 69, "duration": 10, "velocity": 77}, {"time": 3521, "pitch": 60, "duration": 5, "velocity": 83}, {"time": 3527, "pitch": 45, "duration": 18, "velocity": 83}, {"time": 3527, "pitch": 64, "duration": 4, "velocity": 84}, {"time": 3527, "pitch": 69, "duration": 9, "velocity": 82}, {"time": 3533, "pitch": 52, "duration": 9, "velocity": 67}, {"time": 3533, "pitch": 64, "duration": 6, "velocity": 85}, {"time": 3539, "pitch": 69, "duration": 6, "velocity": 84}, {"time": 3539, "pitch": 72, "duration": 6, "velocity": 89}, {"time": 3545, "pitch": 64, "duration": 2, "velocity": 89}, {"time": 3551, "pitch": 50, "duration": 16, "velocity": 82}, {"time": 3551, "pitch": 62, "duration": 11, "velocity": 83}, {"time": 3551, "pitch": 65, "duration": 8, "velocity": 83}, {"time": 3557, "pitch": 57, "duration": 7, "velocity": 76}, {"time": 3563, "pitch": 65, "duration": 7, "velocity": 82}, {"time": 3563, "pitch": 69, "duration": 6, "velocity": 85}, {"time": 3569, "pitch": 62, "duration": 6, "velocity": 87}, {"time": 3575, "pitch": 41, "duration": 19, "velocity": 83}, {"time": 3581, "pitch": 48, "duration": 12, "velocity": 68}, {"time": 3587, "pitch": 57, "duration": 7, "velocity": 84}, {"time": 3593, "pitch": 53, "duration": 3, "velocity": 86}, {"time": 3599, "pitch": 48, "duration": 18, "velocity": 83}, {"time": 3599, "pitch": 55, "duration": 3, "velocity": 84}, {"time": 3599, "pitch": 60, "duration": 8, "velocity": 86}, {"time": 3605, "pitch": 55, "duration": 7, "velocity": 83}, {"time": 3611, "pitch": 60, "duration": 6, "velocity": 85}, {"time": 3611, "pitch": 64, "duration": 6, "velocity": 89}, {"time": 3617, "pitch": 55, "duration": 2, "velocity": 83}, {"time": 3623, "pitch": 41, "duration": 2, "velocity": 83}, {"time": 3623, "pitch": 53, "duration": 4, "velocity": 78}, {"time": 3623, "pitch": 57, "duration": 5, "velocity": 79}, {"time": 3629, "pitch": 53, "duration": 42, "velocity": 80}, {"time": 3635, "pitch": 60, "duration": 15, "velocity": 87}, {"time": 3641, "pitch": 65, "duration": 6, "velocity": 88}, {"time": 3647, "pitch": 67, "duration": 9, "velocity": 89}, {"time": 3653, "pitch": 60, "duration": 8, "velocity": 75}, {"time": 3659, "pitch": 65, "duration": 12, "velocity": 83}, {"time": 3659, "pitch": 69, "duration": 12, "velocity": 83}, {"time": 3665, "pitch": 60, "duration": 6, "velocity": 78}, {"time": 3671, "pitch": 41, "duration": 14, "velocity": 78}, {"time": 3671, "pitch": 65, "duration": 7, "velocity": 84}, {"time": 3671, "pitch": 69, "duration": 8, "velocity": 84}, {"time": 3677, "pitch": 60, "duration": 7, "velocity": 82}, {"time": 3683, "pitch": 65, "duration": 8, "velocity": 78}, {"time": 3683, "pitch": 69, "duration": 7, "velocity": 78}, {"time": 3689, "pitch": 60, "duration": 4, "velocity": 91}, {"time": 3695, "pitch": 50, "duration": 15, "velocity": 85}, {"time": 3695, "pitch": 65, "duration": 8, "velocity": 82}, {"time": 3695, "pitch": 69, "duration": 8, "velocity": 82}, {"time": 3701, "pitch": 57, "duration": 8, "velocity": 80}, {"time": 3707, "pitch": 62, "duration": 3, "velocity": 82}, {"time": 3707, "pitch": 65, "duration": 7, "velocity": 86}, {"time": 3713, "pitch": 62, "duration": 4, "velocity": 84}, {"time": 3719, "pitch": 45, "duration": 15, "velocity": 82}, {"time": 3719, "pitch": 64, "duration": 10, "velocity": 82}, {"time": 3725, "pitch": 52, "duration": 7, "velocity": 83}, {"time": 3731, "pitch": 57, "duration": 9, "velocity": 96}, {"time": 3737, "pitch": 52, "duration": 10, "velocity": 83}, {"time": 3743, "pitch": 60, "duration": 8, "velocity": 87}, {"time": 3743, "pitch": 64, "duration": 8, "velocity": 87}, {"time": 3749, "pitch": 57, "duration": 5, "velocity": 83}, {"time": 3755, "pitch": 57, "duration": 3, "velocity": 84}, {"time": 3755, "pitch": 60, "duration": 7, "velocity": 87}, {"time": 3755, "pitch": 64, "duration": 7, "velocity": 83}, {"time": 3761, "pitch": 57, "duration": 3, "velocity": 85}, {"time": 3767, "pitch": 41, "duration": 16, "velocity": 83}, {"time": 3767, "pitch": 65, "duration": 9, "velocity": 82}, {"time": 3767, "pitch": 69, "duration": 9, "velocity": 82}, {"time": 3773, "pitch": 48, "duration": 9, "velocity": 79}, {"time": 3779, "pitch": 65, "duration": 7, "velocity": 85}, {"time": 3779, "pitch": 69, "duration": 7, "velocity": 85}, {"time": 3785, "pitch": 60, "duration": 4, "velocity": 84}, {"time": 3791, "pitch": 50, "duration": 17, "velocity": 82}, {"time": 3791, "pitch": 65, "duration": 13, "velocity": 83}, {"time": 3791, "pitch": 69, "duration": 13, "velocity": 84}, {"time": 3797, "pitch": 57, "duration": 10, "velocity": 77}, {"time": 3803, "pitch": 62, "duration": 7, "velocity": 84}, {"time": 3809, "pitch": 65, "duration": 4, "velocity": 83}, {"time": 3809, "pitch": 69, "duration": 3, "velocity": 85}, {"time": 3815, "pitch": 48, "duration": 22, "velocity": 84}, {"time": 3815, "pitch": 60, "duration": 8, "velocity": 83}, {"time": 3815, "pitch": 64, "duration": 8, "velocity": 89}, {"time": 3821, "pitch": 55, "duration": 16, "velocity": 77}, {"time": 3827, "pitch": 62, "duration": 7, "velocity": 88}, {"time": 3833, "pitch": 64, "duration": 5, "velocity": 84}, {"time": 3839, "pitch": 48, "duration": 15, "velocity": 87}, {"time": 3839, "pitch": 60, "duration": 9, "velocity": 80}, {"time": 3839, "pitch": 64, "duration": 5, "velocity": 84}, {"time": 3839, "pitch": 67, "duration": 6, "velocity": 79}, {"time": 3845, "pitch": 55, "duration": 8, "velocity": 76}, {"time": 3851, "pitch": 60, "duration": 3, "velocity": 85}, {"time": 3851, "pitch": 64, "duration": 6, "velocity": 91}, {"time": 3857, "pitch": 60, "duration": 4, "velocity": 89}, {"time": 3863, "pitch": 41, "duration": 3, "velocity": 82}, {"time": 3863, "pitch": 60, "duration": 3, "velocity": 89}, {"time": 3863, "pitch": 65, "duration": 8, "velocity": 84}, {"time": 3869, "pitch": 53, "duration": 29, "velocity": 58}, {"time": 3869, "pitch": 60, "duration": 7, "velocity": 78}, {"time": 3875, "pitch": 65, "duration": 7, "velocity": 87}, {"time": 3881, "pitch": 60, "duration": 7, "velocity": 85}, {"time": 3887, "pitch": 65, "duration": 8, "velocity": 84}, {"time": 3887, "pitch": 69, "duration": 7, "velocity": 85}, {"time": 3893, "pitch": 60, "duration": 7, "velocity": 76}, {"time": 3899, "pitch": 65, "duration": 6, "velocity": 83}, {"time": 3899, "pitch": 69, "duration": 7, "velocity": 86}, {"time": 3905, "pitch": 60, "duration": 2, "velocity": 83}, {"time": 3911, "pitch": 45, "duration": 20, "velocity": 82}, {"time": 3911, "pitch": 57, "duration": 13, "velocity": 82}, {"time": 3911, "pitch": 60, "duration": 8, "velocity": 83}, {"time": 3917, "pitch": 52, "duration": 13, "velocity": 78}, {"time": 3923, "pitch": 60, "duration": 6, "velocity": 80}, {"time": 3923, "pitch": 64, "duration": 6, "velocity": 98}, {"time": 3929, "pitch": 57, "duration": 6, "velocity": 84}, {"time": 3935, "pitch": 50, "duration": 21, "velocity": 81}, {"time": 3935, "pitch": 62, "duration": 7, "velocity": 82}, {"time": 3935, "pitch": 65, "duration": 7, "velocity": 84}, {"time": 3941, "pitch": 53, "duration": 14, "velocity": 70}, {"time": 3941, "pitch": 57, "duration": 7, "velocity": 86}, {"time": 3947, "pitch": 62, "duration": 5, "velocity": 88}, {"time": 3953, "pitch": 57, "duration": 4, "velocity": 89}, {"time": 3959, "pitch": 41, "duration": 18, "velocity": 82}, {"time": 3959, "pitch": 65, "duration": 9, "velocity": 84}, {"time": 3959, "pitch": 69, "duration": 9, "velocity": 84}, {"time": 3965, "pitch": 48, "duration": 12, "velocity": 67}, {"time": 3971, "pitch": 60, "duration": 3, "velocity": 85}, {"time": 3971, "pitch": 65, "duration": 10, "velocity": 88}, {"time": 3977, "pitch": 60, "duration": 3, "velocity": 84}, {"time": 3983, "pitch": 43, "duration": 16, "velocity": 83}, {"time": 3983, "pitch": 62, "duration": 7, "velocity": 83}, {"time": 3983, "pitch": 67, "duration": 6, "velocity": 81}, {"time": 3989, "pitch": 50, "duration": 8, "velocity": 71}, {"time": 3995, "pitch": 62, "duration": 2, "velocity": 75}, {"time": 3995, "pitch": 67, "duration": 8, "velocity": 83}, {"time": 3995, "pitch": 71, "duration": 7, "velocity": 84}, {"time": 4001, "pitch": 62, "duration": 3, "velocity": 82}, {"time": 4007, "pitch": 48, "duration": 22, "velocity": 84}, {"time": 4007, "pitch": 60, "duration": 8, "velocity": 85}, {"time": 4007, "pitch": 64, "duration": 8, "velocity": 86}, {"time": 4013, "pitch": 55, "duration": 15, "velocity": 82}, {"time": 4019, "pitch": 60, "duration": 4, "velocity": 93}, {"time": 4025, "pitch": 62, "duration": 5, "velocity": 91}, {"time": 4031, "pitch": 48, "duration": 10, "velocity": 88}, {"time": 4031, "pitch": 60, "duration": 4, "velocity": 84}, {"time": 4031, "pitch": 64, "duration": 6, "velocity": 91}, {"time": 4037, "pitch": 62, "duration": 5, "velocity": 89}, {"time": 4043, "pitch": 48, "duration": 12, "velocity": 86}, {"time": 4043, "pitch": 55, "duration": 12, "velocity": 83}, {"time": 4043, "pitch": 60, "duration": 4, "velocity": 96}, {"time": 4049, "pitch": 60, "duration": 5, "velocity": 96}, {"time": 4055, "pitch": 41, "duration": 2, "velocity": 82}, {"time": 4055, "pitch": 65, "duration": 7, "velocity": 83}, {"time": 4055, "pitch": 69, "duration": 7, "velocity": 82}, {"time": 4061, "pitch": 60, "duration": 7, "velocity": 82}, {"time": 4067, "pitch": 53, "duration": 29, "velocity": 80}, {"time": 4067, "pitch": 65, "duration": 7, "velocity": 84}, {"time": 4073, "pitch": 60, "duration": 7, "velocity": 83}, {"time": 4079, "pitch": 65, "duration": 8, "velocity": 83}, {"time": 4079, "pitch": 69, "duration": 7, "velocity": 87}, {"time": 4085, "pitch": 60, "duration": 7, "velocity": 80}, {"time": 4091, "pitch": 65, "duration": 7, "velocity": 89}, {"time": 4097, "pitch": 60, "duration": 3, "velocity": 87}, {"time": 4103, "pitch": 50, "duration": 12, "velocity": 84}, {"time": 4103, "pitch": 62, "duration": 12, "velocity": 83}, {"time": 4103, "pitch": 65, "duration": 7, "velocity": 85}, {"time": 4109, "pitch": 57, "duration": 6, "velocity": 70}, {"time": 4115, "pitch": 65, "duration": 7, "velocity": 83}, {"time": 4115, "pitch": 69, "duration": 6, "velocity": 84}, {"time": 4121, "pitch": 62, "duration": 2, "velocity": 86}, {"time": 4127, "pitch": 45, "duration": 21, "velocity": 83}, {"time": 4127, "pitch": 57, "duration": 13, "velocity": 82}, {"time": 4127, "pitch": 60, "duration": 8, "velocity": 83}, {"time": 4133, "pitch": 52, "duration": 14, "velocity": 82}, {"time": 4139, "pitch": 60, "duration": 7, "velocity": 82}, {"time": 4139, "pitch": 64, "duration": 7, "velocity": 89}, {"time": 4145, "pitch": 57, "duration": 5, "velocity": 80}, {"time": 4151, "pitch": 50, "duration": 40, "velocity": 87}, {"time": 4151, "pitch": 62, "duration": 7, "velocity": 84}, {"time": 4157, "pitch": 57, "duration": 7, "velocity": 83}, {"time": 4163, "pitch": 65, "duration": 8, "velocity": 87}, {"time": 4169, "pitch": 57, "duration": 7, "velocity": 88}, {"time": 4175, "pitch": 62, "duration": 7, "velocity": 84}, {"time": 4181, "pitch": 57, "duration": 7, "velocity": 84}, {"time": 4187, "pitch": 65, "duration": 6, "velocity": 89}, {"time": 4193, "pitch": 57, "duration": 2, "velocity": 88}, {"time": 4199, "pitch": 48, "duration": 38, "velocity": 85}, {"time": 4199, "pitch": 55, "duration": 5, "velocity": 79}, {"time": 4199, "pitch": 60, "duration": 5, "velocity": 78}, {"time": 4205, "pitch": 55, "duration": 9, "velocity": 82}, {"time": 4211, "pitch": 62, "duration": 11, "velocity": 88}, {"time": 4217, "pitch": 55, "duration": 9, "velocity": 87}, {"time": 4223, "pitch": 60, "duration": 8, "velocity": 84}, {"time": 4223, "pitch": 64, "duration": 7, "velocity": 89}, {"time": 4229, "pitch": 55, "duration": 9, "velocity": 81}, {"time": 4235, "pitch": 60, "duration": 3, "velocity": 82}, {"time": 4235, "pitch": 64, "duration": 4, "velocity": 89}, {"time": 4235, "pitch": 67, "duration": 4, "velocity": 82}, {"time": 4241, "pitch": 48, "duration": 2, "velocity": 83}, {"time": 4247, "pitch": 36, "duration": 2, "velocity": 79}, {"time": 4247, "pitch": 60, "duration": 10, "velocity": 81}, {"time": 4247, "pitch": 64, "duration": 9, "velocity": 84}, {"time": 4253, "pitch": 48, "duration": 13, "velocity": 82}, {"time": 4259, "pitch": 64, "duration": 8, "velocity": 88}, {"time": 4259, "pitch": 67, "duration": 8, "velocity": 83}, {"time": 4265, "pitch": 60, "duration": 4, "velocity": 79}, {"time": 4271, "pitch": 41, "duration": 19, "velocity": 81}, {"time": 4271, "pitch": 60, "duration": 5, "velocity": 83}, {"time": 4271, "pitch": 65, "duration": 9, "velocity": 82}, {"time": 4277, "pitch": 48, "duration": 11, "velocity": 82}, {"time": 4283, "pitch": 65, "duration": 10, "velocity": 83}, {"time": 4283, "pitch": 69, "duration": 10, "velocity": 77}, {"time": 4289, "pitch": 60, "duration": 5, "velocity": 83}, {"time": 4295, "pitch": 45, "duration": 18, "velocity": 83}, {"time": 4295, "pitch": 64, "duration": 4, "velocity": 84}, {"time": 4295, "pitch": 69, "duration": 9, "velocity": 82}, {"time": 4301, "pitch": 52, "duration": 9, "velocity": 67}, {"time": 4301, "pitch": 64, "duration": 6, "velocity": 85}, {"time": 4307, "pitch": 69, "duration": 6, "velocity": 84}, {"time": 4307, "pitch": 72, "duration": 6, "velocity": 89}, {"time": 4313, "pitch": 64, "duration": 2, "velocity": 89}, {"time": 4319, "pitch": 50, "duration": 16, "velocity": 82}, {"time": 4319, "pitch": 62, "duration": 11, "velocity": 83}, {"time": 4319, "pitch": 65, "duration": 8, "velocity": 83}, {"time": 4325, "pitch": 57, "duration": 7, "velocity": 76}, {"time": 4331, "pitch": 65, "duration": 7, "velocity": 82}, {"time": 4331, "pitch": 69, "duration": 6, "velocity": 85}, {"time": 4337, "pitch": 62, "duration": 6, "velocity": 87}, {"time": 4343, "pitch": 41, "duration": 19, "velocity": 83}, {"time": 4349, "pitch": 48, "duration": 12, "velocity": 68}, {"time": 4355, "pitch": 57, "duration": 7, "velocity": 84}, {"time": 4361, "pitch": 53, "duration": 3, "velocity": 86}, {"time": 4367, "pitch": 48, "duration": 18, "velocity": 83}, {"time": 4367, "pitch": 55, "duration": 3, "velocity": 84}, {"time": 4367, "pitch": 60, "duration": 8, "velocity": 86}, {"time": 4373, "pitch": 55, "duration": 7, "velocity": 83}, {"time": 4379, "pitch": 60, "duration": 6, "velocity": 85}, {"time": 4379, "pitch": 64, "duration": 6, "velocity": 89}, {"time": 4385, "pitch": 55, "duration": 2, "velocity": 83}, {"time": 4391, "pitch": 41, "duration": 2, "velocity": 83}, {"time": 4391, "pitch": 53, "duration": 4, "velocity": 78}, {"time": 4391, "pitch": 57, "duration": 5, "velocity": 79}, {"time": 4397, "pitch": 53, "duration": 42, "velocity": 80}, {"time": 4403, "pitch": 60, "duration": 15, "velocity": 87}, {"time": 4409, "pitch": 65, "duration": 6, "velocity": 88}, {"time": 4415, "pitch": 67, "duration": 9, "velocity": 89}, {"time": 4421, "pitch": 60, "duration": 8, "velocity": 75}, {"time": 4427, "pitch": 65, "duration": 12, "velocity": 83}, {"time": 4427, "pitch": 69, "duration": 12, "velocity": 83}, {"time": 4433, "pitch": 60, "duration": 6, "velocity": 78}, {"time": 4438, "pitch": 41, "duration": 2, "velocity": 82}, {"time": 4438, "pitch": 69, "duration": 1, "velocity": 83}, {"time": 4438, "pitch": 65, "duration": 1, "velocity": 82}, {"time": 4444, "pitch": 53, "duration": 8, "velocity": 81}, {"time": 4451, "pitch": 60, "duration": 4, "velocity": 91}, {"time": 4457, "pitch": 65, "duration": 6, "velocity": 91}, {"time": 4462, "pitch": 48, "duration": 22, "velocity": 85}, {"time": 4469, "pitch": 55, "duration": 16, "velocity": 77}, {"time": 4475, "pitch": 62, "duration": 7, "velocity": 88}, {"time": 4482, "pitch": 64, "duration": 2, "velocity": 88}, {"time": 4487, "pitch": 48, "duration": 23, "velocity": 63}, {"time": 4490, "pitch": 55, "duration": 20, "velocity": 70}, {"time": 4490, "pitch": 60, "duration": 20, "velocity": 73}, {"time": 4491, "pitch": 64, "duration": 19, "velocity": 74}, {"time": 4493, "pitch": 67, "duration": 17, "velocity": 76}, {"time": 4494, "pitch": 72, "duration": 16, "velocity": 76}, {"time": 4511, "pitch": 57, "duration": 5, "velocity": 77}, {"time": 4511, "pitch": 65, "duration": 10, "velocity": 82}, {"time": 4511, "pitch": 60, "duration": 11, "velocity": 82}, {"time": 4511, "pitch": 41, "duration": 37, "velocity": 83}, {"time": 4516, "pitch": 48, "duration": 30, "velocity": 67}, {"time": 4522, "pitch": 57, "duration": 13, "velocity": 86}, {"time": 4528, "pitch": 60, "duration": 7, "velocity": 91}, {"time": 4534, "pitch": 65, "duration": 7, "velocity": 82}, {"time": 4539, "pitch": 57, "duration": 5, "velocity": 62}, {"time": 4546, "pitch": 60, "duration": 5, "velocity": 89}, {"time": 4546, "pitch": 65, "duration": 7, "velocity": 83}, {"time": 4546, "pitch": 57, "duration": 2, "velocity": 83}, {"time": 4551, "pitch": 57, "duration": 2, "velocity": 77}, {"time": 4558, "pitch": 46, "duration": 36, "velocity": 84}, {"time": 4558, "pitch": 58, "duration": 4, "velocity": 81}, {"time": 4558, "pitch": 62, "duration": 5, "velocity": 81}, {"time": 4564, "pitch": 53, "duration": 30, "velocity": 74}, {"time": 4570, "pitch": 65, "duration": 8, "velocity": 80}, {"time": 4576, "pitch": 62, "duration": 8, "velocity": 80}, {"time": 4582, "pitch": 70, "duration": 10, "velocity": 91}, {"time": 4588, "pitch": 62, "duration": 4, "velocity": 83}, {"time": 4594, "pitch": 65, "duration": 5, "velocity": 86}, {"time": 4594, "pitch": 62, "duration": 3, "velocity": 91}, {"time": 4599, "pitch": 62, "duration": 1, "velocity": 69}, {"time": 4606, "pitch": 36, "duration": 1, "velocity": 82}, {"time": 4606, "pitch": 60, "duration": 13, "velocity": 82}, {"time": 4606, "pitch": 64, "duration": 12, "velocity": 84}, {"time": 4612, "pitch": 48, "duration": 35, "velocity": 83}, {"time": 4619, "pitch": 55, "duration": 14, "velocity": 84}, {"time": 4624, "pitch": 62, "duration": 4, "velocity": 91}, {"time": 4630, "pitch": 64, "duration": 6, "velocity": 98}, {"time": 4631, "pitch": 60, "duration": 9, "velocity": 86}, {"time": 4637, "pitch": 55, "duration": 9, "velocity": 82}, {"time": 4644, "pitch": 67, "duration": 17, "velocity": 87}, {"time": 4644, "pitch": 60, "duration": 15, "velocity": 96}, {"time": 4652, "pitch": 48, "duration": 3, "velocity": 85}, {"time": 4661, "pitch": 41, "duration": 1, "velocity": 83}, {"time": 4661, "pitch": 60, "duration": 6, "velocity": 76}, {"time": 4661, "pitch": 65, "duration": 9, "velocity": 79}, {"time": 4667, "pitch": 53, "duration": 54, "velocity": 78}, {"time": 4671, "pitch": 60, "duration": 50, "velocity": 82}, {"time": 4674, "pitch": 65, "duration": 3, "velocity": 83}, {"time": 4677, "pitch": 67, "duration": 2, "velocity": 69}, {"time": 4680, "pitch": 69, "duration": 3, "velocity": 77}, {"time": 4683, "pitch": 72, "duration": 3, "velocity": 78}, {"time": 4686, "pitch": 77, "duration": 3, "velocity": 75}, {"time": 4689, "pitch": 79, "duration": 2, "velocity": 77}, {"time": 4693, "pitch": 81, "duration": 8, "velocity": 77}, {"time": 4697, "pitch": 84, "duration": 8, "velocity": 78}, {"time": 4702, "pitch": 89, "duration": 4, "velocity": 72}], "annotations": [{"time": 31, "annotation": {"number": 11, "value": 44}, "group": "control_change"}, {"time": 31, "annotation": {"number": 11, "value": 84}, "group": "control_change"}, {"time": 31, "annotation": {"number": 11, "value": 107}, "group": "control_change"}, {"time": 31, "annotation": {"number": 11, "value": 119}, "group": "control_change"}, {"time": 32, "annotation": {"number": 11, "value": 125}, "group": "control_change"}, {"time": 32, "annotation": {"number": 11, "value": 127}, "group": "control_change"}, {"time": 45, "annotation": {"number": 11, "value": 81}, "group": "control_change"}, {"time": 45, "annotation": {"number": 11, "value": 38}, "group": "control_change"}, {"time": 45, "annotation": {"number": 11, "value": 17}, "group": "control_change"}, {"time": 46, "annotation": {"number": 11, "value": 7}, "group": "control_change"}, {"time": 46, "annotation": {"number": 11, "value": 1}, "group": "control_change"}, {"time": 46, "annotation": {"number": 11, "value": 0}, "group": "control_change"}, {"time": 47, "annotation": {"number": 64, "value": 127}, "group": "control_change"}, {"time": 53, "annotation": {"number": 11, "value": 47}, "group": "control_change"}, {"time": 53, "annotation": {"number": 11, "value": 85}, "group": "control_change"}, {"time": 53, "annotation": {"number": 11, "value": 106}, "group": "control_change"}, {"time": 54, "annotation": {"number": 11, "value": 117}, "group": "control_change"}, {"time": 54, "annotation": {"number": 11, "value": 124}, "group": "control_change"}, {"time": 54, "annotation": {"number": 11, "value": 127}, "group": "control_change"}, {"time": 66, "annotation": {"number": 64, "value": 0}, "group": "control_change"}, {"time": 71, "annotation": {"number": 64, "value": 127}, "group": "control_change"}, {"time": 71, "annotation": {"number": 11, "value": 62}, "group": "control_change"}, {"time": 72, "annotation": {"number": 11, "value": 29}, "group": "control_change"}, {"time": 72, "annotation": {"number": 11, "value": 13}, "group": "control_change"}, {"time": 72, "annotation": {"number": 11, "value": 4}, "group": "control_change"}, {"time": 72, "annotation": {"number": 11, "value": 0}, "group": "control_change"}, {"time": 81, "annotation": {"number": 11, "value": 7}, "group": "control_change"}, {"time": 82, "annotation": {"number": 11, "value": 5}, "group": "control_change"}, {"time": 82, "annotation": {"number": 11, "value": 42}, "group": "control_change"}, {"time": 82, "annotation": {"number": 11, "value": 81}, "group": "control_change"}, {"time": 82, "annotation": {"number": 11, "value": 104}, "group": "control_change"}, {"time": 83, "annotation": {"number": 11, "value": 117}, "group": "control_change"}, {"time": 83, "annotation": {"number": 11, "value": 124}, "group": "control_change"}, {"time": 83, "annotation": {"number": 11, "value": 127}, "group": "control_change"}, {"time": 115, "annotation": {"number": 64, "value": 0}, "group": "control_change"}, {"time": 119, "annotation": {"number": 64, "value": 127}, "group": "control_change"}, {"time": 121, "annotation": {"number": 11, "value": 63}, "group": "control_change"}, {"time": 121, "annotation": {"number": 11, "value": 29}, "group": "control_change"}, {"time": 122, "annotation": {"number": 11, "value": 13}, "group": "control_change"}, {"time": 122, "annotation": {"number": 11, "value": 4}, "group": "control_change"}, {"time": 122, "annotation": {"number": 11, "value": 0}, "group": "control_change"}, {"time": 131, "annotation": {"number": 11, "value": 3}, "group": "control_change"}, {"time": 131, "annotation": {"number": 11, "value": 53}, "group": "control_change"}, {"time": 132, "annotation": {"number": 11, "value": 89}, "group": "control_change"}, {"time": 132, "annotation": {"number": 11, "value": 109}, "group": "control_change"}, {"time": 132, "annotation": {"number": 11, "value": 120}, "group": "control_change"}, {"time": 132, "annotation": {"number": 11, "value": 125}, "group": "control_change"}, {"time": 133, "annotation": {"number": 11, "value": 127}, "group": "control_change"}, {"time": 143, "annotation": {"number": 11, "value": 63}, "group": "control_change"}, {"time": 143, "annotation": {"number": 11, "value": 29}, "group": "control_change"}, {"time": 143, "annotation": {"number": 11, "value": 13}, "group": "control_change"}, {"time": 143, "annotation": {"number": 11, "value": 4}, "group": "control_change"}, {"time": 144, "annotation": {"number": 11, "value": 0}, "group": "control_change"}, {"time": 146, "annotation": {"number": 11, "value": 16}, "group": "control_change"}, {"time": 147, "annotation": {"number": 11, "value": 64}, "group": "control_change"}, {"time": 147, "annotation": {"number": 11, "value": 96}, "group": "control_change"}, {"time": 147, "annotation": {"number": 11, "value": 114}, "group": "control_change"}, {"time": 147, "annotation": {"number": 11, "value": 122}, "group": "control_change"}, {"time": 148, "annotation": {"number": 11, "value": 126}, "group": "control_change"}, {"time": 148, "annotation": {"number": 11, "value": 127}, "group": "control_change"}, {"time": 163, "annotation": {"number": 64, "value": 0}, "group": "control_change"}, {"time": 166, "annotation": {"number": 11, "value": 63}, "group": "control_change"}, {"time": 166, "annotation": {"number": 64, "value": 127}, "group": "control_change"}, {"time": 167, "annotation": {"number": 11, "value": 29}, "group": "control_change"}, {"time": 167, "annotation": {"number": 11, "value": 13}, "group": "control_change"}, {"time": 167, "annotation": {"number": 11, "value": 4}, "group": "control_change"}, {"time": 168, "annotation": {"number": 11, "value": 0}, "group": "control_change"}, {"time": 175, "annotation": {"number": 11, "value": 47}, "group": "control_change"}, {"time": 176, "annotation": {"number": 11, "value": 86}, "group": "control_change"}, {"time": 176, "annotation": {"number": 11, "value": 108}, "group": "control_change"}, {"time": 176, "annotation": {"number": 11, "value": 119}, "group": "control_change"}, {"time": 177, "annotation": {"number": 11, "value": 125}, "group": "control_change"}, {"time": 177, "annotation": {"number": 11, "value": 127}, "group": "control_change"}, {"time": 211, "annotation": {"number": 64, "value": 0}, "group": "control_change"}, {"time": 214, "annotation": {"number": 11, "value": 63}, "group": "control_change"}, {"time": 214, "annotation": {"number": 64, "value": 127}, "group": "control_change"}, {"time": 214, "annotation": {"number": 11, "value": 30}, "group": "control_change"}, {"time": 215, "annotation": {"number": 11, "value": 13}, "group": "control_change"}, {"time": 215, "annotation": {"number": 11, "value": 4}, "group": "control_change"}, {"time": 215, "annotation": {"number": 11, "value": 0}, "group": "control_change"}, {"time": 225, "annotation": {"number": 11, "value": 41}, "group": "control_change"}, {"time": 225, "annotation": {"number": 11, "value": 82}, "group": "control_change"}, {"time": 225, "annotation": {"number": 11, "value": 106}, "group": "control_change"}, {"time": 225, "annotation": {"number": 11, "value": 118}, "group": "control_change"}, {"time": 226, "annotation": {"number": 11, "value": 124}, "group": "control_change"}, {"time": 226, "annotation": {"number": 11, "value": 127}, "group": "control_change"}, {"time": 259, "annotation": {"number": 64, "value": 0}, "group": "control_change"}, {"time": 263, "annotation": {"number": 64, "value": 127}, "group": "control_change"}, {"time": 264, "annotation": {"number": 11, "value": 63}, "group": "control_change"}, {"time": 264, "annotation": {"number": 11, "value": 29}, "group": "control_change"}, {"time": 264, "annotation": {"number": 11, "value": 13}, "group": "control_change"}, {"time": 264, "annotation": {"number": 11, "value": 4}, "group": "control_change"}, {"time": 265, "annotation": {"number": 11, "value": 0}, "group": "control_change"}, {"time": 292, "annotation": {"number": 64, "value": 127}, "group": "control_change"}, {"time": 306, "annotation": {"number": 64, "value": 0}, "group": "control_change"}, {"time": 310, "annotation": {"number": 64, "value": 127}, "group": "control_change"}, {"time": 311, "annotation": {"number": 64, "value": 0}, "group": "control_change"}, {"time": 317, "annotation": {"number": 64, "value": 127}, "group": "control_change"}, {"time": 336, "annotation": {"number": 64, "value": 0}, "group": "control_change"}, {"time": 337, "annotation": {"number": 64, "value": 127}, "group": "control_change"}, {"time": 355, "annotation": {"number": 64, "value": 0}, "group": "control_change"}, {"time": 358, "annotation": {"number": 64, "value": 0}, "group": "control_change"}, {"time": 359, "annotation": {"number": 64, "value": 127}, "group": "control_change"}, {"time": 364, "annotation": {"number": 64, "value": 127}, "group": "control_change"}, {"time": 403, "annotation": {"number": 64, "value": 0}, "group": "control_change"}, {"time": 406, "annotation": {"number": 64, "value": 0}, "group": "control_change"}, {"time": 407, "annotation": {"number": 64, "value": 127}, "group": "control_change"}, {"time": 415, "annotation": {"number": 64, "value": 127}, "group": "control_change"}, {"time": 451, "annotation": {"number": 64, "value": 0}, "group": "control_change"}, {"time": 455, "annotation": {"number": 64, "value": 127}, "group": "control_change"}, {"time": 455, "annotation": {"number": 64, "value": 0}, "group": "control_change"}, {"time": 461, "annotation": {"number": 64, "value": 127}, "group": "control_change"}, {"time": 499, "annotation": {"number": 64, "value": 0}, "group": "control_change"}, {"time": 500, "annotation": {"number": 64, "value": 0}, "group": "control_change"}, {"time": 526, "annotation": {"number": 64, "value": 0}, "group": "control_change"}, {"time": 532, "annotation": {"number": 64, "value": 127}, "group": "control_change"}, {"time": 551, "annotation": {"number": 64, "value": 0}, "group": "control_change"}, {"time": 556, "annotation": {"number": 64, "value": 127}, "group": "control_change"}, {"time": 599, "annotation": {"number": 64, "value": 0}, "group": "control_change"}, {"time": 605, "annotation": {"number": 64, "value": 127}, "group": "control_change"}, {"time": 624, "annotation": {"number": 64, "value": 0}, "group": "control_change"}, {"time": 628, "annotation": {"number": 64, "value": 127}, "group": "control_change"}, {"time": 646, "annotation": {"number": 64, "value": 0}, "group": "control_change"}, {"time": 652, "annotation": {"number": 64, "value": 127}, "group": "control_change"}, {"time": 696, "annotation": {"number": 64, "value": 127}, "group": "control_change"}, {"time": 744, "annotation": {"number": 64, "value": 0}, "group": "control_change"}, {"time": 750, "annotation": {"number": 64, "value": 127}, "group": "control_change"}, {"time": 767, "annotation": {"number": 64, "value": 0}, "group": "control_change"}, {"time": 773, "annotation": {"number": 64, "value": 127}, "group": "control_change"}, {"time": 792, "annotation": {"number": 64, "value": 0}, "group": "control_change"}, {"time": 797, "annotation": {"number": 64, "value": 127}, "group": "control_change"}, {"time": 815, "annotation": {"number": 64, "value": 0}, "group": "control_change"}, {"time": 820, "annotation": {"number": 64, "value": 127}, "group": "control_change"}, {"time": 838, "annotation": {"number": 64, "value": 0}, "group": "control_change"}, {"time": 845, "annotation": {"number": 64, "value": 127}, "group": "control_change"}, {"time": 885, "annotation": {"number": 64, "value": 0}, "group": "control_change"}, {"time": 910, "annotation": {"number": 64, "value": 0}, "group": "control_change"}, {"time": 916, "annotation": {"number": 64, "value": 127}, "group": "control_change"}, {"time": 935, "annotation": {"number": 64, "value": 0}, "group": "control_change"}, {"time": 940, "annotation": {"number": 64, "value": 127}, "group": "control_change"}, {"time": 983, "annotation": {"number": 64, "value": 0}, "group": "control_change"}, {"time": 989, "annotation": {"number": 64, "value": 127}, "group": "control_change"}, {"time": 1008, "annotation": {"number": 64, "value": 0}, "group": "control_change"}, {"time": 1012, "annotation": {"number": 64, "value": 127}, "group": "control_change"}, {"time": 1030, "annotation": {"number": 64, "value": 0}, "group": "control_change"}, {"time": 1036, "annotation": {"number": 64, "value": 127}, "group": "control_change"}, {"time": 1080, "annotation": {"number": 64, "value": 127}, "group": "control_change"}, {"time": 1128, "annotation": {"number": 64, "value": 0}, "group": "control_change"}, {"time": 1134, "annotation": {"number": 64, "value": 127}, "group": "control_change"}, {"time": 1151, "annotation": {"number": 64, "value": 0}, "group": "control_change"}, {"time": 1157, "annotation": {"number": 64, "value": 127}, "group": "control_change"}, {"time": 1176, "annotation": {"number": 64, "value": 0}, "group": "control_change"}, {"time": 1181, "annotation": {"number": 64, "value": 127}, "group": "control_change"}, {"time": 1199, "annotation": {"number": 64, "value": 0}, "group": "control_change"}, {"time": 1204, "annotation": {"number": 64, "value": 127}, "group": "control_change"}, {"time": 1222, "annotation": {"number": 64, "value": 0}, "group": "control_change"}, {"time": 1229, "annotation": {"number": 64, "value": 127}, "group": "control_change"}, {"time": 1269, "annotation": {"number": 64, "value": 0}, "group": "control_change"}, {"time": 1295, "annotation": {"number": 64, "value": 0}, "group": "control_change"}, {"time": 1300, "annotation": {"number": 64, "value": 127}, "group": "control_change"}, {"time": 1319, "annotation": {"number": 64, "value": 0}, "group": "control_change"}, {"time": 1323, "annotation": {"number": 64, "value": 127}, "group": "control_change"}, {"time": 1368, "annotation": {"number": 64, "value": 127}, "group": "control_change"}, {"time": 1390, "annotation": {"number": 64, "value": 0}, "group": "control_change"}, {"time": 1397, "annotation": {"number": 64, "value": 127}, "group": "control_change"}, {"time": 1416, "annotation": {"number": 64, "value": 0}, "group": "control_change"}, {"time": 1421, "annotation": {"number": 64, "value": 127}, "group": "control_change"}, {"time": 1437, "annotation": {"number": 64, "value": 0}, "group": "control_change"}, {"time": 1440, "annotation": {"number": 64, "value": 127}, "group": "control_change"}, {"time": 1462, "annotation": {"number": 64, "value": 0}, "group": "control_change"}, {"time": 1464, "annotation": {"number": 64, "value": 127}, "group": "control_change"}, {"time": 1511, "annotation": {"number": 64, "value": 0}, "group": "control_change"}, {"time": 1516, "annotation": {"number": 64, "value": 127}, "group": "control_change"}, {"time": 1533, "annotation": {"number": 64, "value": 0}, "group": "control_change"}, {"time": 1539, "annotation": {"number": 64, "value": 127}, "group": "control_change"}, {"time": 1559, "annotation": {"number": 64, "value": 127}, "group": "control_change"}, {"time": 1582, "annotation": {"number": 64, "value": 0}, "group": "control_change"}, {"time": 1586, "annotation": {"number": 64, "value": 127}, "group": "control_change"}, {"time": 1608, "annotation": {"number": 64, "value": 0}, "group": "control_change"}, {"time": 1613, "annotation": {"number": 64, "value": 127}, "group": "control_change"}, {"time": 1630, "annotation": {"number": 64, "value": 0}, "group": "control_change"}, {"time": 1632, "annotation": {"number": 64, "value": 127}, "group": "control_change"}, {"time": 1653, "annotation": {"number": 64, "value": 0}, "group": "control_change"}, {"time": 1655, "annotation": {"number": 64, "value": 127}, "group": "control_change"}, {"time": 1702, "annotation": {"number": 64, "value": 0}, "group": "control_change"}, {"time": 1706, "annotation": {"number": 64, "value": 127}, "group": "control_change"}, {"time": 1727, "annotation": {"number": 64, "value": 0}, "group": "control_change"}, {"time": 1733, "annotation": {"number": 64, "value": 127}, "group": "control_change"}, {"time": 1750, "annotation": {"number": 64, "value": 0}, "group": "control_change"}, {"time": 1755, "annotation": {"number": 64, "value": 127}, "group": "control_change"}, {"time": 1774, "annotation": {"number": 64, "value": 0}, "group": "control_change"}, {"time": 1775, "annotation": {"number": 64, "value": 127}, "group": "control_change"}, {"time": 1798, "annotation": {"number": 64, "value": 0}, "group": "control_change"}, {"time": 1802, "annotation": {"number": 64, "value": 127}, "group": "control_change"}, {"time": 1822, "annotation": {"number": 64, "value": 0}, "group": "control_change"}, {"time": 1822, "annotation": {"number": 64, "value": 127}, "group": "control_change"}, {"time": 1845, "annotation": {"number": 64, "value": 0}, "group": "control_change"}, {"time": 1847, "annotation": {"number": 64, "value": 127}, "group": "control_change"}, {"time": 1872, "annotation": {"number": 64, "value": 0}, "group": "control_change"}, {"time": 1876, "annotation": {"number": 64, "value": 127}, "group": "control_change"}, {"time": 1894, "annotation": {"number": 64, "value": 0}, "group": "control_change"}, {"time": 1896, "annotation": {"number": 64, "value": 127}, "group": "control_change"}, {"time": 1919, "annotation": {"number": 64, "value": 0}, "group": "control_change"}, {"time": 1925, "annotation": {"number": 64, "value": 127}, "group": "control_change"}, {"time": 1945, "annotation": {"number": 64, "value": 0}, "group": "control_change"}, {"time": 1950, "annotation": {"number": 64, "value": 127}, "group": "control_change"}, {"time": 1967, "annotation": {"number": 64, "value": 0}, "group": "control_change"}, {"time": 1972, "annotation": {"number": 64, "value": 127}, "group": "control_change"}, {"time": 1989, "annotation": {"number": 64, "value": 0}, "group": "control_change"}, {"time": 1991, "annotation": {"number": 64, "value": 127}, "group": "control_change"}, {"time": 2006, "annotation": {"number": 64, "value": 0}, "group": "control_change"}, {"time": 2006, "annotation": {"number": 64, "value": 127}, "group": "control_change"}, {"time": 2037, "annotation": {"number": 64, "value": 0}, "group": "control_change"}, {"time": 2047, "annotation": {"number": 11, "value": 44}, "group": "control_change"}, {"time": 2047, "annotation": {"number": 11, "value": 84}, "group": "control_change"}, {"time": 2047, "annotation": {"number": 11, "value": 107}, "group": "control_change"}, {"time": 2047, "annotation": {"number": 11, "value": 119}, "group": "control_change"}, {"time": 2048, "annotation": {"number": 11, "value": 125}, "group": "control_change"}, {"time": 2048, "annotation": {"number": 11, "value": 127}, "group": "control_change"}, {"time": 2061, "annotation": {"number": 11, "value": 81}, "group": "control_change"}, {"time": 2061, "annotation": {"number": 11, "value": 38}, "group": "control_change"}, {"time": 2061, "annotation": {"number": 11, "value": 17}, "group": "control_change"}, {"time": 2062, "annotation": {"number": 11, "value": 7}, "group": "control_change"}, {"time": 2062, "annotation": {"number": 11, "value": 1}, "group": "control_change"}, {"time": 2062, "annotation": {"number": 11, "value": 0}, "group": "control_change"}, {"time": 2063, "annotation": {"number": 64, "value": 127}, "group": "control_change"}, {"time": 2069, "annotation": {"number": 11, "value": 47}, "group": "control_change"}, {"time": 2069, "annotation": {"number": 11, "value": 85}, "group": "control_change"}, {"time": 2069, "annotation": {"number": 11, "value": 106}, "group": "control_change"}, {"time": 2070, "annotation": {"number": 11, "value": 117}, "group": "control_change"}, {"time": 2070, "annotation": {"number": 11, "value": 124}, "group": "control_change"}, {"time": 2070, "annotation": {"number": 11, "value": 127}, "group": "control_change"}, {"time": 2082, "annotation": {"number": 64, "value": 0}, "group": "control_change"}, {"time": 2087, "annotation": {"number": 64, "value": 127}, "group": "control_change"}, {"time": 2087, "annotation": {"number": 11, "value": 62}, "group": "control_change"}, {"time": 2088, "annotation": {"number": 11, "value": 29}, "group": "control_change"}, {"time": 2088, "annotation": {"number": 11, "value": 13}, "group": "control_change"}, {"time": 2088, "annotation": {"number": 11, "value": 4}, "group": "control_change"}, {"time": 2088, "annotation": {"number": 11, "value": 0}, "group": "control_change"}, {"time": 2097, "annotation": {"number": 11, "value": 7}, "group": "control_change"}, {"time": 2098, "annotation": {"number": 11, "value": 5}, "group": "control_change"}, {"time": 2098, "annotation": {"number": 11, "value": 42}, "group": "control_change"}, {"time": 2098, "annotation": {"number": 11, "value": 81}, "group": "control_change"}, {"time": 2098, "annotation": {"number": 11, "value": 104}, "group": "control_change"}, {"time": 2099, "annotation": {"number": 11, "value": 117}, "group": "control_change"}, {"time": 2099, "annotation": {"number": 11, "value": 124}, "group": "control_change"}, {"time": 2099, "annotation": {"number": 11, "value": 127}, "group": "control_change"}, {"time": 2131, "annotation": {"number": 64, "value": 0}, "group": "control_change"}, {"time": 2135, "annotation": {"number": 64, "value": 127}, "group": "control_change"}, {"time": 2137, "annotation": {"number": 11, "value": 63}, "group": "control_change"}, {"time": 2137, "annotation": {"number": 11, "value": 29}, "group": "control_change"}, {"time": 2138, "annotation": {"number": 11, "value": 13}, "group": "control_change"}, {"time": 2138, "annotation": {"number": 11, "value": 4}, "group": "control_change"}, {"time": 2138, "annotation": {"number": 11, "value": 0}, "group": "control_change"}, {"time": 2147, "annotation": {"number": 11, "value": 3}, "group": "control_change"}, {"time": 2147, "annotation": {"number": 11, "value": 53}, "group": "control_change"}, {"time": 2148, "annotation": {"number": 11, "value": 89}, "group": "control_change"}, {"time": 2148, "annotation": {"number": 11, "value": 109}, "group": "control_change"}, {"time": 2148, "annotation": {"number": 11, "value": 120}, "group": "control_change"}, {"time": 2148, "annotation": {"number": 11, "value": 125}, "group": "control_change"}, {"time": 2149, "annotation": {"number": 11, "value": 127}, "group": "control_change"}, {"time": 2159, "annotation": {"number": 11, "value": 63}, "group": "control_change"}, {"time": 2159, "annotation": {"number": 11, "value": 29}, "group": "control_change"}, {"time": 2159, "annotation": {"number": 11, "value": 13}, "group": "control_change"}, {"time": 2159, "annotation": {"number": 11, "value": 4}, "group": "control_change"}, {"time": 2160, "annotation": {"number": 11, "value": 0}, "group": "control_change"}, {"time": 2162, "annotation": {"number": 11, "value": 16}, "group": "control_change"}, {"time": 2163, "annotation": {"number": 11, "value": 64}, "group": "control_change"}, {"time": 2163, "annotation": {"number": 11, "value": 96}, "group": "control_change"}, {"time": 2163, "annotation": {"number": 11, "value": 114}, "group": "control_change"}, {"time": 2163, "annotation": {"number": 11, "value": 122}, "group": "control_change"}, {"time": 2164, "annotation": {"number": 11, "value": 126}, "group": "control_change"}, {"time": 2164, "annotation": {"number": 11, "value": 127}, "group": "control_change"}, {"time": 2179, "annotation": {"number": 64, "value": 0}, "group": "control_change"}, {"time": 2182, "annotation": {"number": 11, "value": 63}, "group": "control_change"}, {"time": 2182, "annotation": {"number": 64, "value": 127}, "group": "control_change"}, {"time": 2183, "annotation": {"number": 11, "value": 29}, "group": "control_change"}, {"time": 2183, "annotation": {"number": 11, "value": 13}, "group": "control_change"}, {"time": 2183, "annotation": {"number": 11, "value": 4}, "group": "control_change"}, {"time": 2184, "annotation": {"number": 11, "value": 0}, "group": "control_change"}, {"time": 2191, "annotation": {"number": 11, "value": 47}, "group": "control_change"}, {"time": 2192, "annotation": {"number": 11, "value": 86}, "group": "control_change"}, {"time": 2192, "annotation": {"number": 11, "value": 108}, "group": "control_change"}, {"time": 2192, "annotation": {"number": 11, "value": 119}, "group": "control_change"}, {"time": 2193, "annotation": {"number": 11, "value": 125}, "group": "control_change"}, {"time": 2193, "annotation": {"number": 11, "value": 127}, "group": "control_change"}, {"time": 2227, "annotation": {"number": 64, "value": 0}, "group": "control_change"}, {"time": 2230, "annotation": {"number": 11, "value": 63}, "group": "control_change"}, {"time": 2230, "annotation": {"number": 64, "value": 127}, "group": "control_change"}, {"time": 2230, "annotation": {"number": 11, "value": 30}, "group": "control_change"}, {"time": 2231, "annotation": {"number": 11, "value": 13}, "group": "control_change"}, {"time": 2231, "annotation": {"number": 11, "value": 4}, "group": "control_change"}, {"time": 2231, "annotation": {"number": 11, "value": 0}, "group": "control_change"}, {"time": 2241, "annotation": {"number": 11, "value": 41}, "group": "control_change"}, {"time": 2241, "annotation": {"number": 11, "value": 82}, "group": "control_change"}, {"time": 2241, "annotation": {"number": 11, "value": 106}, "group": "control_change"}, {"time": 2241, "annotation": {"number": 11, "value": 118}, "group": "control_change"}, {"time": 2242, "annotation": {"number": 11, "value": 124}, "group": "control_change"}, {"time": 2242, "annotation": {"number": 11, "value": 127}, "group": "control_change"}, {"time": 2275, "annotation": {"number": 64, "value": 0}, "group": "control_change"}, {"time": 2279, "annotation": {"number": 64, "value": 127}, "group": "control_change"}, {"time": 2280, "annotation": {"number": 11, "value": 63}, "group": "control_change"}, {"time": 2280, "annotation": {"number": 11, "value": 29}, "group": "control_change"}, {"time": 2280, "annotation": {"number": 11, "value": 13}, "group": "control_change"}, {"time": 2280, "annotation": {"number": 11, "value": 4}, "group": "control_change"}, {"time": 2281, "annotation": {"number": 11, "value": 0}, "group": "control_change"}, {"time": 2308, "annotation": {"number": 64, "value": 127}, "group": "control_change"}, {"time": 2322, "annotation": {"number": 64, "value": 0}, "group": "control_change"}, {"time": 2326, "annotation": {"number": 64, "value": 127}, "group": "control_change"}, {"time": 2327, "annotation": {"number": 64, "value": 0}, "group": "control_change"}, {"time": 2333, "annotation": {"number": 64, "value": 127}, "group": "control_change"}, {"time": 2352, "annotation": {"number": 64, "value": 0}, "group": "control_change"}, {"time": 2353, "annotation": {"number": 64, "value": 127}, "group": "control_change"}, {"time": 2371, "annotation": {"number": 64, "value": 0}, "group": "control_change"}, {"time": 2374, "annotation": {"number": 64, "value": 0}, "group": "control_change"}, {"time": 2375, "annotation": {"number": 64, "value": 127}, "group": "control_change"}, {"time": 2380, "annotation": {"number": 64, "value": 127}, "group": "control_change"}, {"time": 2419, "annotation": {"number": 64, "value": 0}, "group": "control_change"}, {"time": 2422, "annotation": {"number": 64, "value": 0}, "group": "control_change"}, {"time": 2423, "annotation": {"number": 64, "value": 127}, "group": "control_change"}, {"time": 2431, "annotation": {"number": 64, "value": 127}, "group": "control_change"}, {"time": 2467, "annotation": {"number": 64, "value": 0}, "group": "control_change"}, {"time": 2471, "annotation": {"number": 64, "value": 127}, "group": "control_change"}, {"time": 2471, "annotation": {"number": 64, "value": 0}, "group": "control_change"}, {"time": 2477, "annotation": {"number": 64, "value": 127}, "group": "control_change"}, {"time": 2515, "annotation": {"number": 64, "value": 0}, "group": "control_change"}, {"time": 2516, "annotation": {"number": 64, "value": 0}, "group": "control_change"}, {"time": 2542, "annotation": {"number": 64, "value": 0}, "group": "control_change"}, {"time": 2548, "annotation": {"number": 64, "value": 127}, "group": "control_change"}, {"time": 2567, "annotation": {"number": 64, "value": 0}, "group": "control_change"}, {"time": 2572, "annotation": {"number": 64, "value": 127}, "group": "control_change"}, {"time": 2615, "annotation": {"number": 64, "value": 0}, "group": "control_change"}, {"time": 2621, "annotation": {"number": 64, "value": 127}, "group": "control_change"}, {"time": 2640, "annotation": {"number": 64, "value": 0}, "group": "control_change"}, {"time": 2644, "annotation": {"number": 64, "value": 127}, "group": "control_change"}, {"time": 2662, "annotation": {"number": 64, "value": 0}, "group": "control_change"}, {"time": 2668, "annotation": {"number": 64, "value": 127}, "group": "control_change"}, {"time": 2712, "annotation": {"number": 64, "value": 127}, "group": "control_change"}, {"time": 2760, "annotation": {"number": 64, "value": 0}, "group": "control_change"}, {"time": 2766, "annotation": {"number": 64, "value": 127}, "group": "control_change"}, {"time": 2783, "annotation": {"number": 64, "value": 0}, "group": "control_change"}, {"time": 2789, "annotation": {"number": 64, "value": 127}, "group": "control_change"}, {"time": 2808, "annotation": {"number": 64, "value": 0}, "group": "control_change"}, {"time": 2813, "annotation": {"number": 64, "value": 127}, "group": "control_change"}, {"time": 2831, "annotation": {"number": 64, "value": 0}, "group": "control_change"}, {"time": 2836, "annotation": {"number": 64, "value": 127}, "group": "control_change"}, {"time": 2854, "annotation": {"number": 64, "value": 0}, "group": "control_change"}, {"time": 2861, "annotation": {"number": 64, "value": 127}, "group": "control_change"}, {"time": 2901, "annotation": {"number": 64, "value": 0}, "group": "control_change"}, {"time": 2927, "annotation": {"number": 64, "value": 0}, "group": "control_change"}, {"time": 2932, "annotation": {"number": 64, "value": 127}, "group": "control_change"}, {"time": 2951, "annotation": {"number": 64, "value": 0}, "group": "control_change"}, {"time": 2955, "annotation": {"number": 64, "value": 127}, "group": "control_change"}, {"time": 3000, "annotation": {"number": 64, "value": 127}, "group": "control_change"}, {"time": 3022, "annotation": {"number": 64, "value": 0}, "group": "control_change"}, {"time": 3029, "annotation": {"number": 64, "value": 127}, "group": "control_change"}, {"time": 3048, "annotation": {"number": 64, "value": 0}, "group": "control_change"}, {"time": 3053, "annotation": {"number": 64, "value": 127}, "group": "control_change"}, {"time": 3069, "annotation": {"number": 64, "value": 0}, "group": "control_change"}, {"time": 3072, "annotation": {"number": 64, "value": 127}, "group": "control_change"}, {"time": 3094, "annotation": {"number": 64, "value": 0}, "group": "control_change"}, {"time": 3096, "annotation": {"number": 64, "value": 127}, "group": "control_change"}, {"time": 3143, "annotation": {"number": 64, "value": 0}, "group": "control_change"}, {"time": 3148, "annotation": {"number": 64, "value": 127}, "group": "control_change"}, {"time": 3165, "annotation": {"number": 64, "value": 0}, "group": "control_change"}, {"time": 3171, "annotation": {"number": 64, "value": 127}, "group": "control_change"}, {"time": 3191, "annotation": {"number": 64, "value": 127}, "group": "control_change"}, {"time": 3214, "annotation": {"number": 64, "value": 0}, "group": "control_change"}, {"time": 3218, "annotation": {"number": 64, "value": 127}, "group": "control_change"}, {"time": 3240, "annotation": {"number": 64, "value": 0}, "group": "control_change"}, {"time": 3245, "annotation": {"number": 64, "value": 127}, "group": "control_change"}, {"time": 3262, "annotation": {"number": 64, "value": 0}, "group": "control_change"}, {"time": 3264, "annotation": {"number": 64, "value": 127}, "group": "control_change"}, {"time": 3285, "annotation": {"number": 64, "value": 0}, "group": "control_change"}, {"time": 3287, "annotation": {"number": 64, "value": 127}, "group": "control_change"}, {"time": 3334, "annotation": {"number": 64, "value": 0}, "group": "control_change"}, {"time": 3338, "annotation": {"number": 64, "value": 127}, "group": "control_change"}, {"time": 3359, "annotation": {"number": 64, "value": 0}, "group": "control_change"}, {"time": 3365, "annotation": {"number": 64, "value": 127}, "group": "control_change"}, {"time": 3382, "annotation": {"number": 64, "value": 0}, "group": "control_change"}, {"time": 3387, "annotation": {"number": 64, "value": 127}, "group": "control_change"}, {"time": 3406, "annotation": {"number": 64, "value": 0}, "group": "control_change"}, {"time": 3407, "annotation": {"number": 64, "value": 127}, "group": "control_change"}, {"time": 3430, "annotation": {"number": 64, "value": 0}, "group": "control_change"}, {"time": 3434, "annotation": {"number": 64, "value": 127}, "group": "control_change"}, {"time": 3454, "annotation": {"number": 64, "value": 0}, "group": "control_change"}, {"time": 3454, "annotation": {"number": 64, "value": 127}, "group": "control_change"}, {"time": 3477, "annotation": {"number": 64, "value": 0}, "group": "control_change"}, {"time": 3479, "annotation": {"number": 64, "value": 127}, "group": "control_change"}, {"time": 3504, "annotation": {"number": 64, "value": 0}, "group": "control_change"}, {"time": 3508, "annotation": {"number": 64, "value": 127}, "group": "control_change"}, {"time": 3526, "annotation": {"number": 64, "value": 0}, "group": "control_change"}, {"time": 3528, "annotation": {"number": 64, "value": 127}, "group": "control_change"}, {"time": 3551, "annotation": {"number": 64, "value": 0}, "group": "control_change"}, {"time": 3557, "annotation": {"number": 64, "value": 127}, "group": "control_change"}, {"time": 3577, "annotation": {"number": 64, "value": 0}, "group": "control_change"}, {"time": 3582, "annotation": {"number": 64, "value": 127}, "group": "control_change"}, {"time": 3599, "annotation": {"number": 64, "value": 0}, "group": "control_change"}, {"time": 3604, "annotation": {"number": 64, "value": 127}, "group": "control_change"}, {"time": 3621, "annotation": {"number": 64, "value": 0}, "group": "control_change"}, {"time": 3623, "annotation": {"number": 64, "value": 127}, "group": "control_change"}, {"time": 3638, "annotation": {"number": 64, "value": 0}, "group": "control_change"}, {"time": 3638, "annotation": {"number": 64, "value": 127}, "group": "control_change"}, {"time": 3669, "annotation": {"number": 64, "value": 0}, "group": "control_change"}, {"time": 3695, "annotation": {"number": 64, "value": 0}, "group": "control_change"}, {"time": 3700, "annotation": {"number": 64, "value": 127}, "group": "control_change"}, {"time": 3719, "annotation": {"number": 64, "value": 0}, "group": "control_change"}, {"time": 3723, "annotation": {"number": 64, "value": 127}, "group": "control_change"}, {"time": 3768, "annotation": {"number": 64, "value": 127}, "group": "control_change"}, {"time": 3790, "annotation": {"number": 64, "value": 0}, "group": "control_change"}, {"time": 3797, "annotation": {"number": 64, "value": 127}, "group": "control_change"}, {"time": 3816, "annotation": {"number": 64, "value": 0}, "group": "control_change"}, {"time": 3821, "annotation": {"number": 64, "value": 127}, "group": "control_change"}, {"time": 3837, "annotation": {"number": 64, "value": 0}, "group": "control_change"}, {"time": 3840, "annotation": {"number": 64, "value": 127}, "group": "control_change"}, {"time": 3862, "annotation": {"number": 64, "value": 0}, "group": "control_change"}, {"time": 3864, "annotation": {"number": 64, "value": 127}, "group": "control_change"}, {"time": 3911, "annotation": {"number": 64, "value": 0}, "group": "control_change"}, {"time": 3916, "annotation": {"number": 64, "value": 127}, "group": "control_change"}, {"time": 3933, "annotation": {"number": 64, "value": 0}, "group": "control_change"}, {"time": 3939, "annotation": {"number": 64, "value": 127}, "group": "control_change"}, {"time": 3959, "annotation": {"number": 64, "value": 127}, "group": "control_change"}, {"time": 3982, "annotation": {"number": 64, "value": 0}, "group": "control_change"}, {"time": 3986, "annotation": {"number": 64, "value": 127}, "group": "control_change"}, {"time": 4008, "annotation": {"number": 64, "value": 0}, "group": "control_change"}, {"time": 4013, "annotation": {"number": 64, "value": 127}, "group": "control_change"}, {"time": 4030, "annotation": {"number": 64, "value": 0}, "group": "control_change"}, {"time": 4032, "annotation": {"number": 64, "value": 127}, "group": "control_change"}, {"time": 4053, "annotation": {"number": 64, "value": 0}, "group": "control_change"}, {"time": 4055, "annotation": {"number": 64, "value": 127}, "group": "control_change"}, {"time": 4102, "annotation": {"number": 64, "value": 0}, "group": "control_change"}, {"time": 4106, "annotation": {"number": 64, "value": 127}, "group": "control_change"}, {"time": 4127, "annotation": {"number": 64, "value": 0}, "group": "control_change"}, {"time": 4133, "annotation": {"number": 64, "value": 127}, "group": "control_change"}, {"time": 4150, "annotation": {"number": 64, "value": 0}, "group": "control_change"}, {"time": 4155, "annotation": {"number": 64, "value": 127}, "group": "control_change"}, {"time": 4174, "annotation": {"number": 64, "value": 0}, "group": "control_change"}, {"time": 4175, "annotation": {"number": 64, "value": 127}, "group": "control_change"}, {"time": 4198, "annotation": {"number": 64, "value": 0}, "group": "control_change"}, {"time": 4202, "annotation": {"number": 64, "value": 127}, "group": "control_change"}, {"time": 4222, "annotation": {"number": 64, "value": 0}, "group": "control_change"}, {"time": 4222, "annotation": {"number": 64, "value": 127}, "group": "control_change"}, {"time": 4245, "annotation": {"number": 64, "value": 0}, "group": "control_change"}, {"time": 4247, "annotation": {"number": 64, "value": 127}, "group": "control_change"}, {"time": 4272, "annotation": {"number": 64, "value": 0}, "group": "control_change"}, {"time": 4276, "annotation": {"number": 64, "value": 127}, "group": "control_change"}, {"time": 4294, "annotation": {"number": 64, "value": 0}, "group": "control_change"}, {"time": 4296, "annotation": {"number": 64, "value": 127}, "group": "control_change"}, {"time": 4319, "annotation": {"number": 64, "value": 0}, "group": "control_change"}, {"time": 4325, "annotation": {"number": 64, "value": 127}, "group": "control_change"}, {"time": 4345, "annotation": {"number": 64, "value": 0}, "group": "control_change"}, {"time": 4350, "annotation": {"number": 64, "value": 127}, "group": "control_change"}, {"time": 4367, "annotation": {"number": 64, "value": 0}, "group": "control_change"}, {"time": 4372, "annotation": {"number": 64, "value": 127}, "group": "control_change"}, {"time": 4389, "annotation": {"number": 64, "value": 0}, "group": "control_change"}, {"time": 4391, "annotation": {"number": 64, "value": 127}, "group": "control_change"}, {"time": 4406, "annotation": {"number": 64, "value": 0}, "group": "control_change"}, {"time": 4406, "annotation": {"number": 64, "value": 127}, "group": "control_change"}, {"time": 4437, "annotation": {"number": 64, "value": 0}, "group": "control_change"}, {"time": 4438, "annotation": {"number": 64, "value": 127}, "group": "control_change"}, {"time": 4462, "annotation": {"number": 64, "value": 0}, "group": "control_change"}, {"time": 4466, "annotation": {"number": 64, "value": 127}, "group": "control_change"}, {"time": 4494, "annotation": {"number": 64, "value": 0}, "group": "control_change"}, {"time": 4512, "annotation": {"number": 64, "value": 127}, "group": "control_change"}, {"time": 4556, "annotation": {"number": 64, "value": 0}, "group": "control_change"}, {"time": 4560, "annotation": {"number": 64, "value": 127}, "group": "control_change"}, {"time": 4604, "annotation": {"number": 64, "value": 0}, "group": "control_change"}, {"time": 4606, "annotation": {"number": 64, "value": 127}, "group": "control_change"}, {"time": 4659, "annotation": {"number": 64, "value": 0}, "group": "control_change"}, {"time": 4661, "annotation": {"number": 64, "value": 127}, "group": "control_change"}]}]}