{"metadata": {"schema_version": "0.2", "title": "None", "source_filename": "403.mid", "source_format": "midi"}, "resolution": 12, "tempos": [{"time": 0, "qpm": 58.00004253336452}], "time_signatures": [{"time": 0, "numerator": 1, "denominator": 4}], "tracks": [{"program": 0, "is_drum": false, "name": "MELODY", "notes": [{"time": 278, "pitch": 68, "duration": 2, "velocity": 92}, {"time": 281, "pitch": 68, "duration": 2, "velocity": 93}, {"time": 284, "pitch": 68, "duration": 2, "velocity": 94}, {"time": 287, "pitch": 70, "duration": 2, "velocity": 95}, {"time": 290, "pitch": 80, "duration": 5, "velocity": 87}, {"time": 296, "pitch": 75, "duration": 2, "velocity": 92}, {"time": 299, "pitch": 77, "duration": 2, "velocity": 90}, {"time": 302, "pitch": 73, "duration": 13, "velocity": 92}, {"time": 326, "pitch": 68, "duration": 2, "velocity": 92}, {"time": 329, "pitch": 68, "duration": 2, "velocity": 93}, {"time": 332, "pitch": 68, "duration": 2, "velocity": 94}, {"time": 335, "pitch": 82, "duration": 2, "velocity": 90}, {"time": 338, "pitch": 80, "duration": 4, "velocity": 93}, {"time": 344, "pitch": 77, "duration": 5, "velocity": 93}, {"time": 350, "pitch": 75, "duration": 14, "velocity": 96}, {"time": 374, "pitch": 77, "duration": 2, "velocity": 96}, {"time": 377, "pitch": 80, "duration": 2, "velocity": 92}, {"time": 380, "pitch": 80, "duration": 2, "velocity": 93}, {"time": 383, "pitch": 82, "duration": 2, "velocity": 94}, {"time": 386, "pitch": 80, "duration": 2, "velocity": 94}, {"time": 389, "pitch": 77, "duration": 2, "velocity": 96}, {"time": 392, "pitch": 75, "duration": 2, "velocity": 96}, {"time": 395, "pitch": 73, "duration": 3, "velocity": 94}, {"time": 398, "pitch": 70, "duration": 11, "velocity": 93}, {"time": 422, "pitch": 75, "duration": 2, "velocity": 90}, {"time": 425, "pitch": 75, "duration": 2, "velocity": 96}, {"time": 428, "pitch": 75, "duration": 2, "velocity": 94}, {"time": 431, "pitch": 77, "duration": 3, "velocity": 90}, {"time": 434, "pitch": 75, "duration": 2, "velocity": 94}, {"time": 437, "pitch": 73, "duration": 2, "velocity": 92}, {"time": 440, "pitch": 73, "duration": 2, "velocity": 90}, {"time": 443, "pitch": 70, "duration": 3, "velocity": 93}, {"time": 446, "pitch": 68, "duration": 16, "velocity": 92}, {"time": 470, "pitch": 68, "duration": 2, "velocity": 92}, {"time": 473, "pitch": 68, "duration": 2, "velocity": 91}, {"time": 476, "pitch": 68, "duration": 2, "velocity": 90}, {"time": 479, "pitch": 70, "duration": 2, "velocity": 94}, {"time": 482, "pitch": 77, "duration": 3, "velocity": 96}, {"time": 485, "pitch": 80, "duration": 2, "velocity": 92}, {"time": 488, "pitch": 75, "duration": 2, "velocity": 94}, {"time": 491, "pitch": 77, "duration": 2, "velocity": 93}, {"time": 494, "pitch": 73, "duration": 12, "velocity": 92}, {"time": 515, "pitch": 70, "duration": 3, "velocity": 92}, {"time": 518, "pitch": 68, "duration": 2, "velocity": 91}, {"time": 521, "pitch": 68, "duration": 2, "velocity": 93}, {"time": 524, "pitch": 68, "duration": 2, "velocity": 96}, {"time": 527, "pitch": 82, "duration": 2, "velocity": 94}, {"time": 530, "pitch": 80, "duration": 5, "velocity": 89}, {"time": 536, "pitch": 77, "duration": 5, "velocity": 93}, {"time": 542, "pitch": 75, "duration": 16, "velocity": 93}, {"time": 566, "pitch": 77, "duration": 3, "velocity": 93}, {"time": 569, "pitch": 80, "duration": 2, "velocity": 85}, {"time": 572, "pitch": 80, "duration": 2, "velocity": 92}, {"time": 575, "pitch": 82, "duration": 2, "velocity": 89}, {"time": 578, "pitch": 80, "duration": 2, "velocity": 94}, {"time": 581, "pitch": 77, "duration": 2, "velocity": 96}, {"time": 584, "pitch": 75, "duration": 2, "velocity": 89}, {"time": 587, "pitch": 73, "duration": 3, "velocity": 94}, {"time": 590, "pitch": 70, "duration": 16, "velocity": 92}, {"time": 608, "pitch": 70, "duration": 2, "velocity": 96}, {"time": 611, "pitch": 73, "duration": 2, "velocity": 93}, {"time": 614, "pitch": 75, "duration": 2, "velocity": 91}, {"time": 617, "pitch": 75, "duration": 2, "velocity": 94}, {"time": 620, "pitch": 75, "duration": 2, "velocity": 98}, {"time": 623, "pitch": 73, "duration": 2, "velocity": 93}, {"time": 626, "pitch": 75, "duration": 2, "velocity": 96}, {"time": 629, "pitch": 73, "duration": 2, "velocity": 94}, {"time": 632, "pitch": 75, "duration": 2, "velocity": 96}, {"time": 635, "pitch": 77, "duration": 2, "velocity": 93}, {"time": 638, "pitch": 80, "duration": 20, "velocity": 88}, {"time": 662, "pitch": 80, "duration": 5, "velocity": 94}, {"time": 668, "pitch": 80, "duration": 2, "velocity": 92}, {"time": 671, "pitch": 82, "duration": 2, "velocity": 93}, {"time": 674, "pitch": 80, "duration": 4, "velocity": 94}, {"time": 680, "pitch": 75, "duration": 5, "velocity": 94}, {"time": 686, "pitch": 73, "duration": 16, "velocity": 94}, {"time": 710, "pitch": 82, "duration": 2, "velocity": 92}, {"time": 713, "pitch": 82, "duration": 2, "velocity": 88}, {"time": 716, "pitch": 82, "duration": 2, "velocity": 88}, {"time": 719, "pitch": 85, "duration": 2, "velocity": 96}, {"time": 722, "pitch": 82, "duration": 2, "velocity": 88}, {"time": 725, "pitch": 80, "duration": 2, "velocity": 93}, {"time": 728, "pitch": 80, "duration": 2, "velocity": 94}, {"time": 731, "pitch": 77, "duration": 2, "velocity": 94}, {"time": 734, "pitch": 75, "duration": 15, "velocity": 94}, {"time": 758, "pitch": 75, "duration": 2, "velocity": 93}, {"time": 761, "pitch": 75, "duration": 2, "velocity": 92}, {"time": 764, "pitch": 75, "duration": 2, "velocity": 95}, {"time": 767, "pitch": 73, "duration": 2, "velocity": 93}, {"time": 770, "pitch": 75, "duration": 5, "velocity": 99}, {"time": 776, "pitch": 75, "duration": 3, "velocity": 92}, {"time": 779, "pitch": 77, "duration": 2, "velocity": 93}, {"time": 782, "pitch": 80, "duration": 7, "velocity": 96}, {"time": 791, "pitch": 82, "duration": 2, "velocity": 87}, {"time": 794, "pitch": 82, "duration": 6, "velocity": 94}, {"time": 806, "pitch": 75, "duration": 2, "velocity": 93}, {"time": 809, "pitch": 75, "duration": 2, "velocity": 97}, {"time": 812, "pitch": 75, "duration": 2, "velocity": 94}, {"time": 815, "pitch": 73, "duration": 2, "velocity": 93}, {"time": 818, "pitch": 75, "duration": 2, "velocity": 96}, {"time": 821, "pitch": 73, "duration": 2, "velocity": 92}, {"time": 824, "pitch": 75, "duration": 2, "velocity": 98}, {"time": 827, "pitch": 77, "duration": 2, "velocity": 92}, {"time": 830, "pitch": 80, "duration": 21, "velocity": 90}, {"time": 854, "pitch": 80, "duration": 2, "velocity": 89}, {"time": 857, "pitch": 80, "duration": 4, "velocity": 93}, {"time": 863, "pitch": 82, "duration": 2, "velocity": 92}, {"time": 866, "pitch": 80, "duration": 4, "velocity": 96}, {"time": 872, "pitch": 75, "duration": 5, "velocity": 98}, {"time": 878, "pitch": 73, "duration": 18, "velocity": 92}, {"time": 902, "pitch": 82, "duration": 2, "velocity": 93}, {"time": 905, "pitch": 82, "duration": 2, "velocity": 87}, {"time": 908, "pitch": 82, "duration": 2, "velocity": 93}, {"time": 911, "pitch": 85, "duration": 2, "velocity": 94}, {"time": 914, "pitch": 82, "duration": 2, "velocity": 93}, {"time": 917, "pitch": 80, "duration": 2, "velocity": 90}, {"time": 920, "pitch": 80, "duration": 2, "velocity": 94}, {"time": 923, "pitch": 77, "duration": 2, "velocity": 93}, {"time": 926, "pitch": 75, "duration": 17, "velocity": 95}, {"time": 950, "pitch": 75, "duration": 2, "velocity": 94}, {"time": 953, "pitch": 75, "duration": 5, "velocity": 95}, {"time": 959, "pitch": 73, "duration": 2, "velocity": 93}, {"time": 962, "pitch": 75, "duration": 2, "velocity": 97}, {"time": 965, "pitch": 73, "duration": 2, "velocity": 95}, {"time": 968, "pitch": 75, "duration": 2, "velocity": 96}, {"time": 971, "pitch": 77, "duration": 2, "velocity": 93}, {"time": 974, "pitch": 80, "duration": 7, "velocity": 92}, {"time": 983, "pitch": 82, "duration": 2, "velocity": 93}, {"time": 986, "pitch": 82, "duration": 5, "velocity": 93}, {"time": 998, "pitch": 75, "duration": 2, "velocity": 94}, {"time": 1001, "pitch": 77, "duration": 2, "velocity": 93}, {"time": 1004, "pitch": 75, "duration": 2, "velocity": 96}, {"time": 1007, "pitch": 73, "duration": 2, "velocity": 93}, {"time": 1010, "pitch": 75, "duration": 2, "velocity": 99}, {"time": 1013, "pitch": 73, "duration": 2, "velocity": 93}, {"time": 1016, "pitch": 75, "duration": 2, "velocity": 94}, {"time": 1019, "pitch": 77, "duration": 2, "velocity": 92}, {"time": 1022, "pitch": 80, "duration": 22, "velocity": 90}, {"time": 1058, "pitch": 77, "duration": 3, "velocity": 90}, {"time": 1061, "pitch": 80, "duration": 2, "velocity": 89}, {"time": 1064, "pitch": 75, "duration": 6, "velocity": 93}, {"time": 1070, "pitch": 73, "duration": 25, "velocity": 84}, {"time": 1286, "pitch": 68, "duration": 2, "velocity": 92}, {"time": 1289, "pitch": 68, "duration": 2, "velocity": 93}, {"time": 1292, "pitch": 68, "duration": 2, "velocity": 94}, {"time": 1295, "pitch": 70, "duration": 2, "velocity": 95}, {"time": 1298, "pitch": 80, "duration": 5, "velocity": 87}, {"time": 1304, "pitch": 75, "duration": 2, "velocity": 92}, {"time": 1307, "pitch": 77, "duration": 2, "velocity": 90}, {"time": 1310, "pitch": 73, "duration": 13, "velocity": 92}, {"time": 1334, "pitch": 68, "duration": 2, "velocity": 92}, {"time": 1337, "pitch": 68, "duration": 2, "velocity": 93}, {"time": 1340, "pitch": 68, "duration": 2, "velocity": 94}, {"time": 1343, "pitch": 82, "duration": 2, "velocity": 90}, {"time": 1346, "pitch": 80, "duration": 4, "velocity": 93}, {"time": 1352, "pitch": 77, "duration": 5, "velocity": 93}, {"time": 1358, "pitch": 75, "duration": 14, "velocity": 96}, {"time": 1382, "pitch": 77, "duration": 2, "velocity": 96}, {"time": 1385, "pitch": 80, "duration": 2, "velocity": 92}, {"time": 1388, "pitch": 80, "duration": 2, "velocity": 93}, {"time": 1391, "pitch": 82, "duration": 2, "velocity": 94}, {"time": 1394, "pitch": 80, "duration": 2, "velocity": 94}, {"time": 1397, "pitch": 77, "duration": 2, "velocity": 96}, {"time": 1400, "pitch": 75, "duration": 2, "velocity": 96}, {"time": 1403, "pitch": 73, "duration": 3, "velocity": 94}, {"time": 1406, "pitch": 70, "duration": 11, "velocity": 93}, {"time": 1430, "pitch": 75, "duration": 2, "velocity": 90}, {"time": 1433, "pitch": 75, "duration": 2, "velocity": 96}, {"time": 1436, "pitch": 75, "duration": 2, "velocity": 94}, {"time": 1439, "pitch": 77, "duration": 3, "velocity": 90}, {"time": 1442, "pitch": 75, "duration": 2, "velocity": 94}, {"time": 1445, "pitch": 73, "duration": 2, "velocity": 92}, {"time": 1448, "pitch": 73, "duration": 2, "velocity": 90}, {"time": 1451, "pitch": 70, "duration": 3, "velocity": 93}, {"time": 1454, "pitch": 68, "duration": 16, "velocity": 92}, {"time": 1478, "pitch": 68, "duration": 2, "velocity": 92}, {"time": 1481, "pitch": 68, "duration": 2, "velocity": 91}, {"time": 1484, "pitch": 68, "duration": 2, "velocity": 90}, {"time": 1487, "pitch": 70, "duration": 2, "velocity": 94}, {"time": 1490, "pitch": 77, "duration": 3, "velocity": 96}, {"time": 1493, "pitch": 80, "duration": 2, "velocity": 92}, {"time": 1496, "pitch": 75, "duration": 2, "velocity": 94}, {"time": 1499, "pitch": 77, "duration": 2, "velocity": 93}, {"time": 1502, "pitch": 73, "duration": 12, "velocity": 92}, {"time": 1523, "pitch": 70, "duration": 3, "velocity": 92}, {"time": 1526, "pitch": 68, "duration": 2, "velocity": 91}, {"time": 1529, "pitch": 68, "duration": 2, "velocity": 93}, {"time": 1532, "pitch": 68, "duration": 2, "velocity": 96}, {"time": 1535, "pitch": 82, "duration": 2, "velocity": 94}, {"time": 1538, "pitch": 80, "duration": 5, "velocity": 89}, {"time": 1544, "pitch": 77, "duration": 5, "velocity": 93}, {"time": 1550, "pitch": 75, "duration": 16, "velocity": 93}, {"time": 1574, "pitch": 77, "duration": 3, "velocity": 93}, {"time": 1577, "pitch": 80, "duration": 2, "velocity": 85}, {"time": 1580, "pitch": 80, "duration": 2, "velocity": 92}, {"time": 1583, "pitch": 82, "duration": 2, "velocity": 89}, {"time": 1586, "pitch": 80, "duration": 2, "velocity": 94}, {"time": 1589, "pitch": 77, "duration": 2, "velocity": 96}, {"time": 1592, "pitch": 75, "duration": 2, "velocity": 89}, {"time": 1595, "pitch": 73, "duration": 3, "velocity": 94}, {"time": 1598, "pitch": 70, "duration": 16, "velocity": 92}, {"time": 1616, "pitch": 70, "duration": 2, "velocity": 96}, {"time": 1619, "pitch": 73, "duration": 2, "velocity": 93}, {"time": 1622, "pitch": 75, "duration": 2, "velocity": 91}, {"time": 1625, "pitch": 75, "duration": 2, "velocity": 94}, {"time": 1628, "pitch": 75, "duration": 2, "velocity": 98}, {"time": 1631, "pitch": 73, "duration": 2, "velocity": 93}, {"time": 1634, "pitch": 75, "duration": 2, "velocity": 96}, {"time": 1637, "pitch": 73, "duration": 2, "velocity": 94}, {"time": 1640, "pitch": 75, "duration": 2, "velocity": 96}, {"time": 1643, "pitch": 77, "duration": 2, "velocity": 93}, {"time": 1646, "pitch": 80, "duration": 20, "velocity": 88}, {"time": 1670, "pitch": 80, "duration": 5, "velocity": 94}, {"time": 1676, "pitch": 80, "duration": 2, "velocity": 92}, {"time": 1679, "pitch": 82, "duration": 2, "velocity": 93}, {"time": 1682, "pitch": 80, "duration": 4, "velocity": 94}, {"time": 1688, "pitch": 75, "duration": 5, "velocity": 94}, {"time": 1694, "pitch": 73, "duration": 16, "velocity": 94}, {"time": 1718, "pitch": 82, "duration": 2, "velocity": 92}, {"time": 1721, "pitch": 82, "duration": 2, "velocity": 88}, {"time": 1724, "pitch": 82, "duration": 2, "velocity": 88}, {"time": 1727, "pitch": 85, "duration": 2, "velocity": 96}, {"time": 1730, "pitch": 82, "duration": 2, "velocity": 88}, {"time": 1733, "pitch": 80, "duration": 2, "velocity": 93}, {"time": 1736, "pitch": 80, "duration": 2, "velocity": 94}, {"time": 1739, "pitch": 77, "duration": 2, "velocity": 94}, {"time": 1742, "pitch": 75, "duration": 15, "velocity": 94}, {"time": 1766, "pitch": 75, "duration": 2, "velocity": 93}, {"time": 1769, "pitch": 75, "duration": 2, "velocity": 92}, {"time": 1772, "pitch": 75, "duration": 2, "velocity": 95}, {"time": 1775, "pitch": 73, "duration": 2, "velocity": 93}, {"time": 1778, "pitch": 75, "duration": 5, "velocity": 99}, {"time": 1784, "pitch": 75, "duration": 3, "velocity": 92}, {"time": 1787, "pitch": 77, "duration": 2, "velocity": 93}, {"time": 1790, "pitch": 80, "duration": 7, "velocity": 96}, {"time": 1799, "pitch": 82, "duration": 2, "velocity": 87}, {"time": 1802, "pitch": 82, "duration": 6, "velocity": 94}, {"time": 1814, "pitch": 75, "duration": 2, "velocity": 93}, {"time": 1817, "pitch": 75, "duration": 2, "velocity": 97}, {"time": 1820, "pitch": 75, "duration": 2, "velocity": 94}, {"time": 1823, "pitch": 73, "duration": 2, "velocity": 93}, {"time": 1826, "pitch": 75, "duration": 2, "velocity": 96}, {"time": 1829, "pitch": 73, "duration": 2, "velocity": 92}, {"time": 1832, "pitch": 75, "duration": 2, "velocity": 98}, {"time": 1835, "pitch": 77, "duration": 2, "velocity": 92}, {"time": 1838, "pitch": 80, "duration": 21, "velocity": 90}, {"time": 1862, "pitch": 80, "duration": 2, "velocity": 89}, {"time": 1865, "pitch": 80, "duration": 4, "velocity": 93}, {"time": 1871, "pitch": 82, "duration": 2, "velocity": 92}, {"time": 1874, "pitch": 80, "duration": 4, "velocity": 96}, {"time": 1880, "pitch": 75, "duration": 5, "velocity": 98}, {"time": 1886, "pitch": 73, "duration": 18, "velocity": 92}, {"time": 1910, "pitch": 82, "duration": 2, "velocity": 93}, {"time": 1913, "pitch": 82, "duration": 2, "velocity": 87}, {"time": 1916, "pitch": 82, "duration": 2, "velocity": 93}, {"time": 1919, "pitch": 85, "duration": 2, "velocity": 94}, {"time": 1922, "pitch": 82, "duration": 2, "velocity": 93}, {"time": 1925, "pitch": 80, "duration": 2, "velocity": 90}, {"time": 1928, "pitch": 80, "duration": 2, "velocity": 94}, {"time": 1931, "pitch": 77, "duration": 2, "velocity": 93}, {"time": 1934, "pitch": 75, "duration": 17, "velocity": 95}, {"time": 1958, "pitch": 75, "duration": 2, "velocity": 94}, {"time": 1961, "pitch": 75, "duration": 5, "velocity": 95}, {"time": 1967, "pitch": 73, "duration": 2, "velocity": 93}, {"time": 1970, "pitch": 75, "duration": 2, "velocity": 97}, {"time": 1973, "pitch": 73, "duration": 2, "velocity": 95}, {"time": 1976, "pitch": 75, "duration": 2, "velocity": 96}, {"time": 1979, "pitch": 77, "duration": 2, "velocity": 93}, {"time": 1982, "pitch": 80, "duration": 7, "velocity": 92}, {"time": 1991, "pitch": 82, "duration": 2, "velocity": 93}, {"time": 1994, "pitch": 82, "duration": 5, "velocity": 93}, {"time": 2006, "pitch": 75, "duration": 2, "velocity": 94}, {"time": 2009, "pitch": 77, "duration": 2, "velocity": 93}, {"time": 2012, "pitch": 75, "duration": 2, "velocity": 96}, {"time": 2015, "pitch": 73, "duration": 2, "velocity": 93}, {"time": 2018, "pitch": 75, "duration": 2, "velocity": 99}, {"time": 2021, "pitch": 73, "duration": 2, "velocity": 93}, {"time": 2024, "pitch": 75, "duration": 2, "velocity": 94}, {"time": 2027, "pitch": 77, "duration": 2, "velocity": 92}, {"time": 2030, "pitch": 80, "duration": 22, "velocity": 90}, {"time": 2054, "pitch": 80, "duration": 5, "velocity": 94}, {"time": 2060, "pitch": 80, "duration": 2, "velocity": 92}, {"time": 2063, "pitch": 82, "duration": 2, "velocity": 93}, {"time": 2066, "pitch": 80, "duration": 4, "velocity": 94}, {"time": 2072, "pitch": 75, "duration": 5, "velocity": 94}, {"time": 2078, "pitch": 73, "duration": 16, "velocity": 94}, {"time": 2102, "pitch": 82, "duration": 2, "velocity": 92}, {"time": 2105, "pitch": 82, "duration": 2, "velocity": 88}, {"time": 2108, "pitch": 82, "duration": 2, "velocity": 88}, {"time": 2111, "pitch": 85, "duration": 2, "velocity": 96}, {"time": 2114, "pitch": 82, "duration": 2, "velocity": 88}, {"time": 2117, "pitch": 80, "duration": 2, "velocity": 93}, {"time": 2120, "pitch": 80, "duration": 2, "velocity": 94}, {"time": 2123, "pitch": 77, "duration": 2, "velocity": 94}, {"time": 2126, "pitch": 75, "duration": 15, "velocity": 94}, {"time": 2150, "pitch": 75, "duration": 2, "velocity": 93}, {"time": 2153, "pitch": 75, "duration": 2, "velocity": 92}, {"time": 2156, "pitch": 75, "duration": 2, "velocity": 95}, {"time": 2159, "pitch": 73, "duration": 2, "velocity": 93}, {"time": 2162, "pitch": 75, "duration": 5, "velocity": 99}, {"time": 2168, "pitch": 75, "duration": 3, "velocity": 92}, {"time": 2171, "pitch": 77, "duration": 2, "velocity": 93}, {"time": 2174, "pitch": 80, "duration": 7, "velocity": 96}, {"time": 2183, "pitch": 82, "duration": 2, "velocity": 87}, {"time": 2186, "pitch": 82, "duration": 6, "velocity": 94}, {"time": 2198, "pitch": 75, "duration": 2, "velocity": 93}, {"time": 2201, "pitch": 75, "duration": 2, "velocity": 97}, {"time": 2204, "pitch": 75, "duration": 2, "velocity": 94}, {"time": 2207, "pitch": 73, "duration": 2, "velocity": 93}, {"time": 2210, "pitch": 75, "duration": 2, "velocity": 96}, {"time": 2213, "pitch": 73, "duration": 2, "velocity": 92}, {"time": 2216, "pitch": 75, "duration": 2, "velocity": 98}, {"time": 2219, "pitch": 77, "duration": 2, "velocity": 92}, {"time": 2222, "pitch": 80, "duration": 21, "velocity": 90}, {"time": 2246, "pitch": 80, "duration": 2, "velocity": 89}, {"time": 2249, "pitch": 80, "duration": 4, "velocity": 93}, {"time": 2255, "pitch": 82, "duration": 2, "velocity": 92}, {"time": 2258, "pitch": 80, "duration": 4, "velocity": 96}, {"time": 2264, "pitch": 75, "duration": 5, "velocity": 98}, {"time": 2270, "pitch": 73, "duration": 18, "velocity": 92}, {"time": 2294, "pitch": 82, "duration": 2, "velocity": 93}, {"time": 2297, "pitch": 82, "duration": 2, "velocity": 87}, {"time": 2300, "pitch": 82, "duration": 2, "velocity": 93}, {"time": 2303, "pitch": 85, "duration": 2, "velocity": 94}, {"time": 2306, "pitch": 82, "duration": 2, "velocity": 93}, {"time": 2309, "pitch": 80, "duration": 2, "velocity": 90}, {"time": 2312, "pitch": 80, "duration": 2, "velocity": 94}, {"time": 2315, "pitch": 77, "duration": 2, "velocity": 93}, {"time": 2318, "pitch": 75, "duration": 17, "velocity": 95}, {"time": 2342, "pitch": 75, "duration": 2, "velocity": 94}, {"time": 2345, "pitch": 75, "duration": 5, "velocity": 95}, {"time": 2351, "pitch": 73, "duration": 2, "velocity": 93}, {"time": 2354, "pitch": 75, "duration": 2, "velocity": 97}, {"time": 2357, "pitch": 73, "duration": 2, "velocity": 95}, {"time": 2360, "pitch": 75, "duration": 2, "velocity": 96}, {"time": 2363, "pitch": 77, "duration": 2, "velocity": 93}, {"time": 2366, "pitch": 80, "duration": 7, "velocity": 92}, {"time": 2375, "pitch": 82, "duration": 2, "velocity": 93}, {"time": 2378, "pitch": 82, "duration": 5, "velocity": 93}, {"time": 2390, "pitch": 75, "duration": 2, "velocity": 94}, {"time": 2393, "pitch": 77, "duration": 2, "velocity": 93}, {"time": 2396, "pitch": 75, "duration": 2, "velocity": 96}, {"time": 2399, "pitch": 73, "duration": 2, "velocity": 93}, {"time": 2402, "pitch": 75, "duration": 2, "velocity": 99}, {"time": 2405, "pitch": 73, "duration": 2, "velocity": 93}, {"time": 2408, "pitch": 75, "duration": 2, "velocity": 94}, {"time": 2411, "pitch": 77, "duration": 2, "velocity": 92}, {"time": 2414, "pitch": 80, "duration": 22, "velocity": 90}, {"time": 2450, "pitch": 77, "duration": 3, "velocity": 90}, {"time": 2453, "pitch": 80, "duration": 2, "velocity": 89}, {"time": 2456, "pitch": 75, "duration": 6, "velocity": 93}, {"time": 2462, "pitch": 73, "duration": 25, "velocity": 84}]}, {"program": 0, "is_drum": false, "name": "BRIDGE", "notes": [{"time": 50, "pitch": 68, "duration": 2, "velocity": 96}, {"time": 53, "pitch": 70, "duration": 3, "velocity": 96}, {"time": 56, "pitch": 73, "duration": 2, "velocity": 97}, {"time": 59, "pitch": 75, "duration": 2, "velocity": 94}, {"time": 62, "pitch": 80, "duration": 8, "velocity": 98}, {"time": 71, "pitch": 82, "duration": 3, "velocity": 101}, {"time": 74, "pitch": 80, "duration": 5, "velocity": 108}, {"time": 80, "pitch": 75, "duration": 3, "velocity": 101}, {"time": 83, "pitch": 77, "duration": 2, "velocity": 91}, {"time": 85, "pitch": 75, "duration": 1, "velocity": 94}, {"time": 86, "pitch": 73, "duration": 14, "velocity": 94}, {"time": 110, "pitch": 82, "duration": 9, "velocity": 101}, {"time": 119, "pitch": 85, "duration": 3, "velocity": 108}, {"time": 122, "pitch": 82, "duration": 4, "velocity": 103}, {"time": 125, "pitch": 80, "duration": 1, "velocity": 90}, {"time": 128, "pitch": 80, "duration": 2, "velocity": 103}, {"time": 131, "pitch": 77, "duration": 2, "velocity": 103}, {"time": 134, "pitch": 75, "duration": 1, "velocity": 97}, {"time": 136, "pitch": 77, "duration": 1, "velocity": 80}, {"time": 137, "pitch": 75, "duration": 21, "velocity": 101}, {"time": 158, "pitch": 75, "duration": 8, "velocity": 109}, {"time": 167, "pitch": 73, "duration": 3, "velocity": 103}, {"time": 170, "pitch": 75, "duration": 5, "velocity": 109}, {"time": 176, "pitch": 77, "duration": 5, "velocity": 101}, {"time": 182, "pitch": 80, "duration": 8, "velocity": 98}, {"time": 191, "pitch": 82, "duration": 8, "velocity": 98}, {"time": 200, "pitch": 75, "duration": 3, "velocity": 109}, {"time": 203, "pitch": 73, "duration": 3, "velocity": 109}, {"time": 206, "pitch": 75, "duration": 9, "velocity": 101}, {"time": 215, "pitch": 73, "duration": 3, "velocity": 95}, {"time": 218, "pitch": 75, "duration": 3, "velocity": 101}, {"time": 221, "pitch": 73, "duration": 4, "velocity": 95}, {"time": 224, "pitch": 75, "duration": 3, "velocity": 109}, {"time": 227, "pitch": 77, "duration": 4, "velocity": 99}, {"time": 230, "pitch": 80, "duration": 21, "velocity": 98}, {"time": 251, "pitch": 85, "duration": 2, "velocity": 101}, {"time": 253, "pitch": 82, "duration": 1, "velocity": 103}, {"time": 254, "pitch": 80, "duration": 21, "velocity": 101}, {"time": 455, "pitch": 68, "duration": 3, "velocity": 94}, {"time": 458, "pitch": 82, "duration": 5, "velocity": 95}, {"time": 464, "pitch": 80, "duration": 2, "velocity": 99}, {"time": 467, "pitch": 82, "duration": 3, "velocity": 92}, {"time": 470, "pitch": 80, "duration": 19, "velocity": 86}, {"time": 494, "pitch": 73, "duration": 19, "velocity": 86}, {"time": 554, "pitch": 73, "duration": 6, "velocity": 98}, {"time": 560, "pitch": 77, "duration": 5, "velocity": 82}, {"time": 566, "pitch": 75, "duration": 21, "velocity": 98}, {"time": 650, "pitch": 68, "duration": 4, "velocity": 94}, {"time": 653, "pitch": 70, "duration": 2, "velocity": 94}, {"time": 656, "pitch": 73, "duration": 2, "velocity": 95}, {"time": 659, "pitch": 75, "duration": 2, "velocity": 93}, {"time": 662, "pitch": 80, "duration": 16, "velocity": 92}, {"time": 680, "pitch": 75, "duration": 6, "velocity": 98}, {"time": 686, "pitch": 73, "duration": 23, "velocity": 87}, {"time": 710, "pitch": 82, "duration": 23, "velocity": 91}, {"time": 734, "pitch": 84, "duration": 19, "velocity": 92}, {"time": 758, "pitch": 75, "duration": 23, "velocity": 93}, {"time": 782, "pitch": 77, "duration": 11, "velocity": 93}, {"time": 794, "pitch": 82, "duration": 12, "velocity": 92}, {"time": 806, "pitch": 75, "duration": 17, "velocity": 95}, {"time": 824, "pitch": 77, "duration": 5, "velocity": 93}, {"time": 830, "pitch": 80, "duration": 6, "velocity": 92}, {"time": 836, "pitch": 75, "duration": 2, "velocity": 98}, {"time": 839, "pitch": 77, "duration": 2, "velocity": 88}, {"time": 842, "pitch": 80, "duration": 2, "velocity": 97}, {"time": 845, "pitch": 82, "duration": 2, "velocity": 92}, {"time": 848, "pitch": 80, "duration": 6, "velocity": 87}, {"time": 854, "pitch": 80, "duration": 24, "velocity": 91}, {"time": 878, "pitch": 77, "duration": 23, "velocity": 91}, {"time": 902, "pitch": 82, "duration": 21, "velocity": 92}, {"time": 926, "pitch": 80, "duration": 11, "velocity": 93}, {"time": 938, "pitch": 80, "duration": 2, "velocity": 92}, {"time": 941, "pitch": 77, "duration": 3, "velocity": 88}, {"time": 944, "pitch": 75, "duration": 3, "velocity": 88}, {"time": 947, "pitch": 73, "duration": 3, "velocity": 87}, {"time": 950, "pitch": 75, "duration": 22, "velocity": 96}, {"time": 974, "pitch": 77, "duration": 10, "velocity": 94}, {"time": 986, "pitch": 82, "duration": 13, "velocity": 86}, {"time": 1010, "pitch": 75, "duration": 5, "velocity": 98}, {"time": 1016, "pitch": 77, "duration": 4, "velocity": 94}, {"time": 1022, "pitch": 80, "duration": 18, "velocity": 93}, {"time": 1040, "pitch": 82, "duration": 6, "velocity": 84}, {"time": 1046, "pitch": 80, "duration": 23, "velocity": 86}, {"time": 1070, "pitch": 80, "duration": 8, "velocity": 98}, {"time": 1079, "pitch": 82, "duration": 3, "velocity": 101}, {"time": 1082, "pitch": 80, "duration": 5, "velocity": 108}, {"time": 1088, "pitch": 75, "duration": 3, "velocity": 101}, {"time": 1091, "pitch": 77, "duration": 2, "velocity": 91}, {"time": 1093, "pitch": 75, "duration": 1, "velocity": 94}, {"time": 1094, "pitch": 73, "duration": 14, "velocity": 94}, {"time": 1118, "pitch": 82, "duration": 9, "velocity": 101}, {"time": 1127, "pitch": 85, "duration": 3, "velocity": 108}, {"time": 1130, "pitch": 82, "duration": 4, "velocity": 103}, {"time": 1133, "pitch": 80, "duration": 1, "velocity": 90}, {"time": 1136, "pitch": 80, "duration": 2, "velocity": 103}, {"time": 1139, "pitch": 77, "duration": 2, "velocity": 103}, {"time": 1142, "pitch": 75, "duration": 1, "velocity": 97}, {"time": 1144, "pitch": 77, "duration": 1, "velocity": 80}, {"time": 1145, "pitch": 75, "duration": 21, "velocity": 101}, {"time": 1166, "pitch": 75, "duration": 8, "velocity": 109}, {"time": 1175, "pitch": 73, "duration": 3, "velocity": 103}, {"time": 1178, "pitch": 75, "duration": 5, "velocity": 109}, {"time": 1184, "pitch": 80, "duration": 5, "velocity": 101}, {"time": 1190, "pitch": 77, "duration": 9, "velocity": 98}, {"time": 1199, "pitch": 75, "duration": 3, "velocity": 96}, {"time": 1202, "pitch": 73, "duration": 6, "velocity": 98}, {"time": 1214, "pitch": 75, "duration": 2, "velocity": 93}, {"time": 1217, "pitch": 75, "duration": 2, "velocity": 103}, {"time": 1220, "pitch": 75, "duration": 2, "velocity": 103}, {"time": 1223, "pitch": 80, "duration": 2, "velocity": 94}, {"time": 1226, "pitch": 75, "duration": 2, "velocity": 103}, {"time": 1229, "pitch": 80, "duration": 2, "velocity": 92}, {"time": 1232, "pitch": 82, "duration": 2, "velocity": 91}, {"time": 1235, "pitch": 85, "duration": 2, "velocity": 94}, {"time": 1238, "pitch": 80, "duration": 21, "velocity": 90}, {"time": 1259, "pitch": 80, "duration": 2, "velocity": 94}, {"time": 1262, "pitch": 77, "duration": 3, "velocity": 95}, {"time": 1265, "pitch": 75, "duration": 2, "velocity": 96}, {"time": 1268, "pitch": 73, "duration": 2, "velocity": 97}, {"time": 1271, "pitch": 70, "duration": 3, "velocity": 91}, {"time": 1274, "pitch": 68, "duration": 3, "velocity": 89}, {"time": 1277, "pitch": 65, "duration": 3, "velocity": 90}, {"time": 1280, "pitch": 63, "duration": 3, "velocity": 87}, {"time": 1283, "pitch": 61, "duration": 3, "velocity": 84}, {"time": 1286, "pitch": 56, "duration": 11, "velocity": 92}, {"time": 1463, "pitch": 70, "duration": 3, "velocity": 96}, {"time": 1466, "pitch": 68, "duration": 4, "velocity": 92}, {"time": 1469, "pitch": 70, "duration": 3, "velocity": 106}, {"time": 1472, "pitch": 73, "duration": 3, "velocity": 95}, {"time": 1475, "pitch": 75, "duration": 2, "velocity": 103}, {"time": 1478, "pitch": 77, "duration": 23, "velocity": 95}, {"time": 1511, "pitch": 68, "duration": 2, "velocity": 96}, {"time": 1514, "pitch": 82, "duration": 3, "velocity": 94}, {"time": 1517, "pitch": 80, "duration": 2, "velocity": 92}, {"time": 1520, "pitch": 77, "duration": 3, "velocity": 93}, {"time": 1523, "pitch": 75, "duration": 2, "velocity": 99}, {"time": 1526, "pitch": 73, "duration": 19, "velocity": 93}, {"time": 1559, "pitch": 82, "duration": 2, "velocity": 93}, {"time": 1562, "pitch": 80, "duration": 2, "velocity": 98}, {"time": 1565, "pitch": 77, "duration": 2, "velocity": 96}, {"time": 1568, "pitch": 75, "duration": 2, "velocity": 96}, {"time": 1571, "pitch": 73, "duration": 3, "velocity": 84}, {"time": 1574, "pitch": 75, "duration": 14, "velocity": 93}, {"time": 1607, "pitch": 68, "duration": 3, "velocity": 81}, {"time": 1610, "pitch": 70, "duration": 2, "velocity": 85}, {"time": 1613, "pitch": 73, "duration": 9, "velocity": 93}, {"time": 1658, "pitch": 68, "duration": 4, "velocity": 94}, {"time": 1661, "pitch": 70, "duration": 2, "velocity": 94}, {"time": 1664, "pitch": 73, "duration": 2, "velocity": 95}, {"time": 1667, "pitch": 75, "duration": 2, "velocity": 93}, {"time": 1670, "pitch": 80, "duration": 16, "velocity": 92}, {"time": 1688, "pitch": 75, "duration": 6, "velocity": 98}, {"time": 1694, "pitch": 73, "duration": 23, "velocity": 87}, {"time": 1718, "pitch": 82, "duration": 23, "velocity": 91}, {"time": 1742, "pitch": 84, "duration": 19, "velocity": 92}, {"time": 1766, "pitch": 75, "duration": 23, "velocity": 93}, {"time": 1790, "pitch": 77, "duration": 11, "velocity": 93}, {"time": 1802, "pitch": 82, "duration": 12, "velocity": 92}, {"time": 1814, "pitch": 75, "duration": 17, "velocity": 95}, {"time": 1832, "pitch": 77, "duration": 5, "velocity": 93}, {"time": 1838, "pitch": 80, "duration": 6, "velocity": 92}, {"time": 1844, "pitch": 75, "duration": 2, "velocity": 98}, {"time": 1847, "pitch": 77, "duration": 2, "velocity": 88}, {"time": 1850, "pitch": 80, "duration": 2, "velocity": 97}, {"time": 1853, "pitch": 82, "duration": 2, "velocity": 92}, {"time": 1856, "pitch": 80, "duration": 6, "velocity": 87}, {"time": 1862, "pitch": 80, "duration": 24, "velocity": 91}, {"time": 1886, "pitch": 77, "duration": 23, "velocity": 91}, {"time": 1910, "pitch": 82, "duration": 21, "velocity": 92}, {"time": 1934, "pitch": 80, "duration": 11, "velocity": 93}, {"time": 1946, "pitch": 80, "duration": 2, "velocity": 92}, {"time": 1949, "pitch": 77, "duration": 3, "velocity": 88}, {"time": 1952, "pitch": 75, "duration": 3, "velocity": 88}, {"time": 1955, "pitch": 73, "duration": 3, "velocity": 87}, {"time": 1958, "pitch": 75, "duration": 22, "velocity": 96}, {"time": 1982, "pitch": 77, "duration": 10, "velocity": 94}, {"time": 1994, "pitch": 82, "duration": 13, "velocity": 86}, {"time": 2018, "pitch": 75, "duration": 5, "velocity": 98}, {"time": 2024, "pitch": 77, "duration": 4, "velocity": 94}, {"time": 2030, "pitch": 80, "duration": 12, "velocity": 93}, {"time": 2042, "pitch": 68, "duration": 4, "velocity": 94}, {"time": 2045, "pitch": 70, "duration": 2, "velocity": 94}, {"time": 2048, "pitch": 73, "duration": 2, "velocity": 95}, {"time": 2051, "pitch": 75, "duration": 2, "velocity": 93}, {"time": 2054, "pitch": 80, "duration": 16, "velocity": 92}, {"time": 2072, "pitch": 75, "duration": 6, "velocity": 98}, {"time": 2078, "pitch": 73, "duration": 23, "velocity": 87}, {"time": 2102, "pitch": 82, "duration": 23, "velocity": 91}, {"time": 2126, "pitch": 84, "duration": 19, "velocity": 92}, {"time": 2150, "pitch": 75, "duration": 23, "velocity": 93}, {"time": 2174, "pitch": 77, "duration": 11, "velocity": 93}, {"time": 2186, "pitch": 82, "duration": 12, "velocity": 92}, {"time": 2198, "pitch": 75, "duration": 17, "velocity": 95}, {"time": 2216, "pitch": 77, "duration": 5, "velocity": 93}, {"time": 2222, "pitch": 80, "duration": 6, "velocity": 92}, {"time": 2228, "pitch": 75, "duration": 2, "velocity": 98}, {"time": 2231, "pitch": 77, "duration": 2, "velocity": 88}, {"time": 2234, "pitch": 80, "duration": 2, "velocity": 97}, {"time": 2237, "pitch": 82, "duration": 2, "velocity": 92}, {"time": 2240, "pitch": 80, "duration": 6, "velocity": 87}, {"time": 2246, "pitch": 80, "duration": 24, "velocity": 91}, {"time": 2270, "pitch": 77, "duration": 23, "velocity": 91}, {"time": 2294, "pitch": 82, "duration": 21, "velocity": 92}, {"time": 2318, "pitch": 80, "duration": 11, "velocity": 93}, {"time": 2330, "pitch": 80, "duration": 2, "velocity": 92}, {"time": 2333, "pitch": 77, "duration": 3, "velocity": 88}, {"time": 2336, "pitch": 75, "duration": 3, "velocity": 88}, {"time": 2339, "pitch": 73, "duration": 3, "velocity": 87}, {"time": 2342, "pitch": 75, "duration": 22, "velocity": 96}, {"time": 2366, "pitch": 77, "duration": 10, "velocity": 94}, {"time": 2378, "pitch": 82, "duration": 13, "velocity": 86}, {"time": 2402, "pitch": 75, "duration": 5, "velocity": 98}, {"time": 2408, "pitch": 77, "duration": 4, "velocity": 94}, {"time": 2414, "pitch": 80, "duration": 18, "velocity": 93}, {"time": 2432, "pitch": 82, "duration": 6, "velocity": 84}, {"time": 2438, "pitch": 80, "duration": 23, "velocity": 86}, {"time": 2462, "pitch": 80, "duration": 8, "velocity": 98}, {"time": 2471, "pitch": 82, "duration": 3, "velocity": 101}, {"time": 2474, "pitch": 80, "duration": 5, "velocity": 108}, {"time": 2480, "pitch": 75, "duration": 3, "velocity": 101}, {"time": 2483, "pitch": 77, "duration": 2, "velocity": 91}, {"time": 2485, "pitch": 75, "duration": 1, "velocity": 94}, {"time": 2486, "pitch": 73, "duration": 14, "velocity": 94}, {"time": 2510, "pitch": 82, "duration": 9, "velocity": 101}, {"time": 2519, "pitch": 85, "duration": 3, "velocity": 108}, {"time": 2522, "pitch": 82, "duration": 4, "velocity": 103}, {"time": 2525, "pitch": 80, "duration": 1, "velocity": 90}, {"time": 2528, "pitch": 80, "duration": 2, "velocity": 103}, {"time": 2531, "pitch": 77, "duration": 2, "velocity": 103}, {"time": 2534, "pitch": 75, "duration": 1, "velocity": 97}, {"time": 2536, "pitch": 77, "duration": 1, "velocity": 80}, {"time": 2537, "pitch": 75, "duration": 21, "velocity": 101}, {"time": 2558, "pitch": 75, "duration": 8, "velocity": 109}, {"time": 2567, "pitch": 73, "duration": 3, "velocity": 103}, {"time": 2570, "pitch": 75, "duration": 5, "velocity": 109}, {"time": 2576, "pitch": 80, "duration": 5, "velocity": 101}, {"time": 2582, "pitch": 77, "duration": 9, "velocity": 98}, {"time": 2591, "pitch": 75, "duration": 3, "velocity": 96}, {"time": 2594, "pitch": 73, "duration": 6, "velocity": 98}, {"time": 2606, "pitch": 75, "duration": 2, "velocity": 93}, {"time": 2609, "pitch": 75, "duration": 2, "velocity": 103}, {"time": 2612, "pitch": 75, "duration": 2, "velocity": 103}, {"time": 2615, "pitch": 80, "duration": 2, "velocity": 94}, {"time": 2618, "pitch": 75, "duration": 2, "velocity": 103}, {"time": 2621, "pitch": 80, "duration": 2, "velocity": 92}, {"time": 2624, "pitch": 82, "duration": 2, "velocity": 91}, {"time": 2627, "pitch": 85, "duration": 2, "velocity": 94}, {"time": 2630, "pitch": 80, "duration": 21, "velocity": 90}, {"time": 2651, "pitch": 80, "duration": 2, "velocity": 94}, {"time": 2654, "pitch": 77, "duration": 3, "velocity": 95}, {"time": 2657, "pitch": 75, "duration": 2, "velocity": 96}, {"time": 2660, "pitch": 73, "duration": 2, "velocity": 97}, {"time": 2663, "pitch": 70, "duration": 3, "velocity": 91}, {"time": 2666, "pitch": 68, "duration": 3, "velocity": 89}, {"time": 2669, "pitch": 65, "duration": 3, "velocity": 90}, {"time": 2672, "pitch": 63, "duration": 3, "velocity": 87}, {"time": 2675, "pitch": 65, "duration": 3, "velocity": 84}, {"time": 2678, "pitch": 61, "duration": 11, "velocity": 92}]}, {"program": 0, "is_drum": false, "name": "PIANO", "notes": [{"time": 62, "pitch": 49, "duration": 19, "velocity": 93}, {"time": 65, "pitch": 56, "duration": 7, "velocity": 81}, {"time": 68, "pitch": 63, "duration": 4, "velocity": 84}, {"time": 71, "pitch": 65, "duration": 7, "velocity": 95}, {"time": 74, "pitch": 56, "duration": 6, "velocity": 74}, {"time": 77, "pitch": 61, "duration": 2, "velocity": 78}, {"time": 80, "pitch": 68, "duration": 7, "velocity": 91}, {"time": 86, "pitch": 46, "duration": 20, "velocity": 91}, {"time": 89, "pitch": 53, "duration": 7, "velocity": 78}, {"time": 92, "pitch": 56, "duration": 4, "velocity": 82}, {"time": 95, "pitch": 61, "duration": 6, "velocity": 91}, {"time": 98, "pitch": 53, "duration": 7, "velocity": 79}, {"time": 101, "pitch": 63, "duration": 4, "velocity": 89}, {"time": 104, "pitch": 65, "duration": 14, "velocity": 94}, {"time": 110, "pitch": 42, "duration": 19, "velocity": 89}, {"time": 113, "pitch": 49, "duration": 8, "velocity": 77}, {"time": 116, "pitch": 54, "duration": 9, "velocity": 86}, {"time": 119, "pitch": 61, "duration": 10, "velocity": 93}, {"time": 122, "pitch": 49, "duration": 5, "velocity": 75}, {"time": 125, "pitch": 66, "duration": 11, "velocity": 91}, {"time": 128, "pitch": 54, "duration": 4, "velocity": 91}, {"time": 131, "pitch": 61, "duration": 4, "velocity": 85}, {"time": 134, "pitch": 44, "duration": 2, "velocity": 92}, {"time": 137, "pitch": 56, "duration": 14, "velocity": 71}, {"time": 140, "pitch": 63, "duration": 4, "velocity": 88}, {"time": 143, "pitch": 68, "duration": 7, "velocity": 91}, {"time": 146, "pitch": 63, "duration": 4, "velocity": 80}, {"time": 149, "pitch": 75, "duration": 4, "velocity": 93}, {"time": 152, "pitch": 68, "duration": 6, "velocity": 76}, {"time": 158, "pitch": 51, "duration": 21, "velocity": 92}, {"time": 161, "pitch": 58, "duration": 7, "velocity": 77}, {"time": 164, "pitch": 63, "duration": 5, "velocity": 82}, {"time": 167, "pitch": 66, "duration": 7, "velocity": 93}, {"time": 170, "pitch": 58, "duration": 7, "velocity": 75}, {"time": 173, "pitch": 63, "duration": 4, "velocity": 76}, {"time": 176, "pitch": 70, "duration": 6, "velocity": 92}, {"time": 179, "pitch": 63, "duration": 3, "velocity": 83}, {"time": 182, "pitch": 53, "duration": 6, "velocity": 94}, {"time": 185, "pitch": 60, "duration": 3, "velocity": 83}, {"time": 188, "pitch": 65, "duration": 4, "velocity": 97}, {"time": 191, "pitch": 68, "duration": 4, "velocity": 87}, {"time": 194, "pitch": 46, "duration": 9, "velocity": 92}, {"time": 197, "pitch": 53, "duration": 5, "velocity": 81}, {"time": 200, "pitch": 58, "duration": 4, "velocity": 93}, {"time": 203, "pitch": 61, "duration": 3, "velocity": 85}, {"time": 206, "pitch": 42, "duration": 20, "velocity": 88}, {"time": 209, "pitch": 49, "duration": 15, "velocity": 88}, {"time": 212, "pitch": 61, "duration": 8, "velocity": 92}, {"time": 215, "pitch": 66, "duration": 5, "velocity": 92}, {"time": 221, "pitch": 70, "duration": 6, "velocity": 92}, {"time": 224, "pitch": 61, "duration": 4, "velocity": 90}, {"time": 227, "pitch": 66, "duration": 3, "velocity": 87}, {"time": 230, "pitch": 44, "duration": 2, "velocity": 89}, {"time": 230, "pitch": 63, "duration": 6, "velocity": 84}, {"time": 230, "pitch": 68, "duration": 5, "velocity": 86}, {"time": 233, "pitch": 51, "duration": 18, "velocity": 76}, {"time": 236, "pitch": 60, "duration": 7, "velocity": 88}, {"time": 239, "pitch": 63, "duration": 4, "velocity": 92}, {"time": 242, "pitch": 68, "duration": 4, "velocity": 90}, {"time": 245, "pitch": 63, "duration": 3, "velocity": 86}, {"time": 248, "pitch": 70, "duration": 5, "velocity": 85}, {"time": 251, "pitch": 63, "duration": 2, "velocity": 84}, {"time": 254, "pitch": 56, "duration": 23, "velocity": 86}, {"time": 254, "pitch": 63, "duration": 24, "velocity": 88}, {"time": 254, "pitch": 68, "duration": 24, "velocity": 85}, {"time": 278, "pitch": 49, "duration": 20, "velocity": 93}, {"time": 281, "pitch": 56, "duration": 7, "velocity": 86}, {"time": 284, "pitch": 63, "duration": 4, "velocity": 90}, {"time": 287, "pitch": 65, "duration": 6, "velocity": 94}, {"time": 290, "pitch": 56, "duration": 8, "velocity": 76}, {"time": 296, "pitch": 61, "duration": 2, "velocity": 87}, {"time": 296, "pitch": 68, "duration": 13, "velocity": 92}, {"time": 299, "pitch": 61, "duration": 3, "velocity": 78}, {"time": 302, "pitch": 46, "duration": 22, "velocity": 84}, {"time": 305, "pitch": 53, "duration": 18, "velocity": 78}, {"time": 308, "pitch": 58, "duration": 9, "velocity": 82}, {"time": 311, "pitch": 61, "duration": 7, "velocity": 93}, {"time": 320, "pitch": 61, "duration": 7, "velocity": 88}, {"time": 320, "pitch": 65, "duration": 7, "velocity": 93}, {"time": 323, "pitch": 58, "duration": 2, "velocity": 77}, {"time": 326, "pitch": 49, "duration": 24, "velocity": 92}, {"time": 329, "pitch": 56, "duration": 7, "velocity": 90}, {"time": 332, "pitch": 61, "duration": 4, "velocity": 86}, {"time": 335, "pitch": 63, "duration": 6, "velocity": 86}, {"time": 341, "pitch": 65, "duration": 6, "velocity": 94}, {"time": 344, "pitch": 56, "duration": 9, "velocity": 81}, {"time": 350, "pitch": 44, "duration": 21, "velocity": 92}, {"time": 353, "pitch": 51, "duration": 10, "velocity": 81}, {"time": 356, "pitch": 63, "duration": 4, "velocity": 86}, {"time": 359, "pitch": 68, "duration": 15, "velocity": 92}, {"time": 362, "pitch": 56, "duration": 6, "velocity": 92}, {"time": 365, "pitch": 51, "duration": 5, "velocity": 85}, {"time": 368, "pitch": 63, "duration": 7, "velocity": 87}, {"time": 371, "pitch": 56, "duration": 5, "velocity": 72}, {"time": 374, "pitch": 41, "duration": 18, "velocity": 92}, {"time": 377, "pitch": 48, "duration": 14, "velocity": 83}, {"time": 380, "pitch": 56, "duration": 5, "velocity": 84}, {"time": 383, "pitch": 53, "duration": 3, "velocity": 74}, {"time": 386, "pitch": 60, "duration": 7, "velocity": 88}, {"time": 389, "pitch": 53, "duration": 4, "velocity": 83}, {"time": 392, "pitch": 56, "duration": 3, "velocity": 85}, {"time": 398, "pitch": 46, "duration": 21, "velocity": 93}, {"time": 401, "pitch": 53, "duration": 15, "velocity": 80}, {"time": 404, "pitch": 58, "duration": 4, "velocity": 80}, {"time": 407, "pitch": 61, "duration": 4, "velocity": 87}, {"time": 410, "pitch": 65, "duration": 4, "velocity": 95}, {"time": 413, "pitch": 61, "duration": 4, "velocity": 83}, {"time": 416, "pitch": 58, "duration": 7, "velocity": 79}, {"time": 422, "pitch": 42, "duration": 20, "velocity": 85}, {"time": 425, "pitch": 49, "duration": 14, "velocity": 80}, {"time": 428, "pitch": 54, "duration": 7, "velocity": 84}, {"time": 431, "pitch": 58, "duration": 4, "velocity": 87}, {"time": 434, "pitch": 61, "duration": 7, "velocity": 86}, {"time": 437, "pitch": 54, "duration": 6, "velocity": 82}, {"time": 440, "pitch": 58, "duration": 4, "velocity": 82}, {"time": 443, "pitch": 61, "duration": 10, "velocity": 83}, {"time": 446, "pitch": 44, "duration": 21, "velocity": 91}, {"time": 446, "pitch": 56, "duration": 13, "velocity": 78}, {"time": 452, "pitch": 51, "duration": 13, "velocity": 85}, {"time": 455, "pitch": 60, "duration": 4, "velocity": 84}, {"time": 458, "pitch": 68, "duration": 4, "velocity": 94}, {"time": 461, "pitch": 63, "duration": 8, "velocity": 92}, {"time": 464, "pitch": 60, "duration": 6, "velocity": 90}, {"time": 467, "pitch": 56, "duration": 3, "velocity": 91}, {"time": 470, "pitch": 49, "duration": 20, "velocity": 93}, {"time": 473, "pitch": 56, "duration": 7, "velocity": 86}, {"time": 476, "pitch": 63, "duration": 4, "velocity": 90}, {"time": 479, "pitch": 65, "duration": 6, "velocity": 94}, {"time": 482, "pitch": 56, "duration": 8, "velocity": 76}, {"time": 488, "pitch": 61, "duration": 2, "velocity": 87}, {"time": 488, "pitch": 68, "duration": 13, "velocity": 92}, {"time": 491, "pitch": 61, "duration": 3, "velocity": 78}, {"time": 494, "pitch": 46, "duration": 22, "velocity": 84}, {"time": 497, "pitch": 53, "duration": 18, "velocity": 78}, {"time": 500, "pitch": 58, "duration": 9, "velocity": 82}, {"time": 503, "pitch": 61, "duration": 7, "velocity": 93}, {"time": 512, "pitch": 61, "duration": 7, "velocity": 88}, {"time": 512, "pitch": 65, "duration": 7, "velocity": 93}, {"time": 515, "pitch": 58, "duration": 2, "velocity": 77}, {"time": 518, "pitch": 49, "duration": 24, "velocity": 92}, {"time": 521, "pitch": 56, "duration": 7, "velocity": 90}, {"time": 524, "pitch": 61, "duration": 4, "velocity": 86}, {"time": 527, "pitch": 63, "duration": 6, "velocity": 86}, {"time": 533, "pitch": 65, "duration": 6, "velocity": 94}, {"time": 536, "pitch": 56, "duration": 9, "velocity": 81}, {"time": 542, "pitch": 44, "duration": 21, "velocity": 92}, {"time": 545, "pitch": 51, "duration": 10, "velocity": 81}, {"time": 548, "pitch": 63, "duration": 4, "velocity": 86}, {"time": 551, "pitch": 68, "duration": 15, "velocity": 92}, {"time": 554, "pitch": 56, "duration": 6, "velocity": 92}, {"time": 557, "pitch": 51, "duration": 5, "velocity": 85}, {"time": 560, "pitch": 63, "duration": 7, "velocity": 87}, {"time": 563, "pitch": 56, "duration": 5, "velocity": 72}, {"time": 566, "pitch": 41, "duration": 18, "velocity": 92}, {"time": 569, "pitch": 48, "duration": 14, "velocity": 83}, {"time": 572, "pitch": 56, "duration": 5, "velocity": 84}, {"time": 575, "pitch": 53, "duration": 3, "velocity": 74}, {"time": 578, "pitch": 60, "duration": 7, "velocity": 88}, {"time": 581, "pitch": 53, "duration": 4, "velocity": 83}, {"time": 584, "pitch": 56, "duration": 3, "velocity": 85}, {"time": 590, "pitch": 46, "duration": 21, "velocity": 93}, {"time": 593, "pitch": 53, "duration": 15, "velocity": 80}, {"time": 596, "pitch": 58, "duration": 4, "velocity": 80}, {"time": 599, "pitch": 61, "duration": 4, "velocity": 87}, {"time": 602, "pitch": 65, "duration": 4, "velocity": 95}, {"time": 605, "pitch": 61, "duration": 4, "velocity": 83}, {"time": 608, "pitch": 58, "duration": 7, "velocity": 79}, {"time": 614, "pitch": 42, "duration": 20, "velocity": 85}, {"time": 617, "pitch": 49, "duration": 14, "velocity": 80}, {"time": 620, "pitch": 54, "duration": 7, "velocity": 84}, {"time": 623, "pitch": 58, "duration": 4, "velocity": 87}, {"time": 626, "pitch": 61, "duration": 7, "velocity": 86}, {"time": 629, "pitch": 54, "duration": 6, "velocity": 82}, {"time": 632, "pitch": 58, "duration": 4, "velocity": 82}, {"time": 635, "pitch": 61, "duration": 10, "velocity": 83}, {"time": 638, "pitch": 44, "duration": 21, "velocity": 91}, {"time": 638, "pitch": 56, "duration": 13, "velocity": 78}, {"time": 644, "pitch": 51, "duration": 13, "velocity": 85}, {"time": 647, "pitch": 60, "duration": 4, "velocity": 84}, {"time": 650, "pitch": 68, "duration": 4, "velocity": 94}, {"time": 653, "pitch": 63, "duration": 8, "velocity": 92}, {"time": 656, "pitch": 60, "duration": 6, "velocity": 90}, {"time": 659, "pitch": 56, "duration": 3, "velocity": 91}, {"time": 662, "pitch": 49, "duration": 21, "velocity": 93}, {"time": 662, "pitch": 61, "duration": 4, "velocity": 87}, {"time": 662, "pitch": 68, "duration": 4, "velocity": 87}, {"time": 665, "pitch": 56, "duration": 5, "velocity": 81}, {"time": 668, "pitch": 61, "duration": 5, "velocity": 82}, {"time": 671, "pitch": 65, "duration": 2, "velocity": 86}, {"time": 674, "pitch": 61, "duration": 3, "velocity": 88}, {"time": 674, "pitch": 68, "duration": 4, "velocity": 92}, {"time": 677, "pitch": 56, "duration": 5, "velocity": 81}, {"time": 680, "pitch": 61, "duration": 6, "velocity": 86}, {"time": 683, "pitch": 65, "duration": 4, "velocity": 87}, {"time": 686, "pitch": 46, "duration": 19, "velocity": 88}, {"time": 689, "pitch": 53, "duration": 5, "velocity": 77}, {"time": 692, "pitch": 58, "duration": 4, "velocity": 90}, {"time": 695, "pitch": 61, "duration": 2, "velocity": 93}, {"time": 698, "pitch": 58, "duration": 3, "velocity": 89}, {"time": 698, "pitch": 61, "duration": 4, "velocity": 101}, {"time": 698, "pitch": 65, "duration": 4, "velocity": 94}, {"time": 701, "pitch": 53, "duration": 4, "velocity": 82}, {"time": 704, "pitch": 58, "duration": 4, "velocity": 82}, {"time": 707, "pitch": 61, "duration": 2, "velocity": 80}, {"time": 710, "pitch": 42, "duration": 20, "velocity": 92}, {"time": 710, "pitch": 58, "duration": 3, "velocity": 87}, {"time": 710, "pitch": 61, "duration": 7, "velocity": 90}, {"time": 710, "pitch": 66, "duration": 5, "velocity": 93}, {"time": 713, "pitch": 49, "duration": 11, "velocity": 85}, {"time": 716, "pitch": 58, "duration": 4, "velocity": 79}, {"time": 719, "pitch": 61, "duration": 2, "velocity": 81}, {"time": 722, "pitch": 58, "duration": 2, "velocity": 92}, {"time": 722, "pitch": 66, "duration": 4, "velocity": 93}, {"time": 725, "pitch": 49, "duration": 5, "velocity": 76}, {"time": 728, "pitch": 61, "duration": 3, "velocity": 92}, {"time": 731, "pitch": 58, "duration": 2, "velocity": 84}, {"time": 734, "pitch": 44, "duration": 20, "velocity": 92}, {"time": 734, "pitch": 56, "duration": 7, "velocity": 89}, {"time": 734, "pitch": 60, "duration": 8, "velocity": 86}, {"time": 737, "pitch": 51, "duration": 17, "velocity": 75}, {"time": 740, "pitch": 63, "duration": 5, "velocity": 85}, {"time": 743, "pitch": 56, "duration": 2, "velocity": 85}, {"time": 746, "pitch": 56, "duration": 2, "velocity": 89}, {"time": 746, "pitch": 68, "duration": 5, "velocity": 93}, {"time": 749, "pitch": 56, "duration": 2, "velocity": 92}, {"time": 752, "pitch": 63, "duration": 4, "velocity": 88}, {"time": 755, "pitch": 56, "duration": 1, "velocity": 76}, {"time": 758, "pitch": 51, "duration": 17, "velocity": 89}, {"time": 758, "pitch": 58, "duration": 2, "velocity": 87}, {"time": 758, "pitch": 63, "duration": 4, "velocity": 93}, {"time": 761, "pitch": 58, "duration": 4, "velocity": 85}, {"time": 764, "pitch": 63, "duration": 4, "velocity": 84}, {"time": 767, "pitch": 58, "duration": 1, "velocity": 72}, {"time": 770, "pitch": 58, "duration": 2, "velocity": 93}, {"time": 770, "pitch": 66, "duration": 6, "velocity": 90}, {"time": 773, "pitch": 58, "duration": 3, "velocity": 86}, {"time": 776, "pitch": 63, "duration": 4, "velocity": 83}, {"time": 779, "pitch": 58, "duration": 2, "velocity": 81}, {"time": 782, "pitch": 53, "duration": 6, "velocity": 94}, {"time": 782, "pitch": 60, "duration": 2, "velocity": 89}, {"time": 782, "pitch": 65, "duration": 4, "velocity": 92}, {"time": 785, "pitch": 60, "duration": 2, "velocity": 87}, {"time": 788, "pitch": 65, "duration": 4, "velocity": 94}, {"time": 788, "pitch": 68, "duration": 3, "velocity": 87}, {"time": 791, "pitch": 60, "duration": 2, "velocity": 88}, {"time": 794, "pitch": 46, "duration": 10, "velocity": 93}, {"time": 794, "pitch": 58, "duration": 4, "velocity": 85}, {"time": 794, "pitch": 61, "duration": 5, "velocity": 91}, {"time": 797, "pitch": 53, "duration": 7, "velocity": 84}, {"time": 800, "pitch": 58, "duration": 1, "velocity": 86}, {"time": 800, "pitch": 61, "duration": 4, "velocity": 87}, {"time": 800, "pitch": 65, "duration": 4, "velocity": 93}, {"time": 803, "pitch": 58, "duration": 2, "velocity": 82}, {"time": 806, "pitch": 42, "duration": 21, "velocity": 92}, {"time": 806, "pitch": 61, "duration": 3, "velocity": 87}, {"time": 806, "pitch": 66, "duration": 4, "velocity": 86}, {"time": 809, "pitch": 61, "duration": 3, "velocity": 90}, {"time": 812, "pitch": 66, "duration": 4, "velocity": 86}, {"time": 815, "pitch": 61, "duration": 2, "velocity": 83}, {"time": 818, "pitch": 61, "duration": 2, "velocity": 86}, {"time": 818, "pitch": 70, "duration": 7, "velocity": 92}, {"time": 821, "pitch": 61, "duration": 4, "velocity": 92}, {"time": 824, "pitch": 66, "duration": 4, "velocity": 88}, {"time": 827, "pitch": 61, "duration": 2, "velocity": 89}, {"time": 830, "pitch": 44, "duration": 23, "velocity": 92}, {"time": 830, "pitch": 63, "duration": 3, "velocity": 88}, {"time": 830, "pitch": 68, "duration": 4, "velocity": 85}, {"time": 833, "pitch": 51, "duration": 17, "velocity": 81}, {"time": 836, "pitch": 63, "duration": 4, "velocity": 88}, {"time": 839, "pitch": 68, "duration": 2, "velocity": 83}, {"time": 842, "pitch": 63, "duration": 2, "velocity": 92}, {"time": 842, "pitch": 72, "duration": 4, "velocity": 93}, {"time": 845, "pitch": 68, "duration": 3, "velocity": 87}, {"time": 848, "pitch": 63, "duration": 4, "velocity": 87}, {"time": 851, "pitch": 68, "duration": 2, "velocity": 80}, {"time": 854, "pitch": 49, "duration": 21, "velocity": 93}, {"time": 854, "pitch": 61, "duration": 4, "velocity": 87}, {"time": 854, "pitch": 68, "duration": 4, "velocity": 87}, {"time": 857, "pitch": 56, "duration": 5, "velocity": 81}, {"time": 860, "pitch": 61, "duration": 5, "velocity": 82}, {"time": 863, "pitch": 65, "duration": 2, "velocity": 86}, {"time": 866, "pitch": 61, "duration": 3, "velocity": 88}, {"time": 866, "pitch": 68, "duration": 4, "velocity": 92}, {"time": 869, "pitch": 56, "duration": 5, "velocity": 81}, {"time": 872, "pitch": 61, "duration": 6, "velocity": 86}, {"time": 875, "pitch": 65, "duration": 4, "velocity": 87}, {"time": 878, "pitch": 46, "duration": 19, "velocity": 88}, {"time": 881, "pitch": 53, "duration": 5, "velocity": 77}, {"time": 884, "pitch": 58, "duration": 4, "velocity": 90}, {"time": 887, "pitch": 61, "duration": 2, "velocity": 93}, {"time": 890, "pitch": 58, "duration": 3, "velocity": 89}, {"time": 890, "pitch": 61, "duration": 4, "velocity": 101}, {"time": 890, "pitch": 65, "duration": 4, "velocity": 94}, {"time": 893, "pitch": 53, "duration": 4, "velocity": 82}, {"time": 896, "pitch": 58, "duration": 4, "velocity": 82}, {"time": 899, "pitch": 61, "duration": 2, "velocity": 80}, {"time": 902, "pitch": 42, "duration": 20, "velocity": 92}, {"time": 902, "pitch": 58, "duration": 3, "velocity": 87}, {"time": 902, "pitch": 61, "duration": 7, "velocity": 90}, {"time": 902, "pitch": 66, "duration": 5, "velocity": 93}, {"time": 905, "pitch": 49, "duration": 11, "velocity": 85}, {"time": 908, "pitch": 58, "duration": 4, "velocity": 79}, {"time": 911, "pitch": 61, "duration": 2, "velocity": 81}, {"time": 914, "pitch": 58, "duration": 2, "velocity": 92}, {"time": 914, "pitch": 66, "duration": 4, "velocity": 93}, {"time": 917, "pitch": 49, "duration": 5, "velocity": 76}, {"time": 920, "pitch": 61, "duration": 3, "velocity": 92}, {"time": 923, "pitch": 58, "duration": 2, "velocity": 84}, {"time": 926, "pitch": 44, "duration": 20, "velocity": 92}, {"time": 926, "pitch": 56, "duration": 7, "velocity": 89}, {"time": 926, "pitch": 60, "duration": 8, "velocity": 86}, {"time": 929, "pitch": 51, "duration": 17, "velocity": 75}, {"time": 932, "pitch": 63, "duration": 5, "velocity": 85}, {"time": 935, "pitch": 56, "duration": 2, "velocity": 85}, {"time": 938, "pitch": 56, "duration": 2, "velocity": 89}, {"time": 938, "pitch": 68, "duration": 5, "velocity": 93}, {"time": 941, "pitch": 56, "duration": 2, "velocity": 92}, {"time": 944, "pitch": 63, "duration": 4, "velocity": 88}, {"time": 947, "pitch": 56, "duration": 1, "velocity": 76}, {"time": 950, "pitch": 51, "duration": 17, "velocity": 89}, {"time": 950, "pitch": 58, "duration": 2, "velocity": 87}, {"time": 950, "pitch": 63, "duration": 4, "velocity": 93}, {"time": 953, "pitch": 58, "duration": 4, "velocity": 85}, {"time": 956, "pitch": 63, "duration": 4, "velocity": 84}, {"time": 959, "pitch": 58, "duration": 1, "velocity": 72}, {"time": 962, "pitch": 58, "duration": 2, "velocity": 93}, {"time": 962, "pitch": 66, "duration": 6, "velocity": 90}, {"time": 965, "pitch": 58, "duration": 3, "velocity": 86}, {"time": 968, "pitch": 63, "duration": 4, "velocity": 83}, {"time": 971, "pitch": 58, "duration": 2, "velocity": 81}, {"time": 974, "pitch": 53, "duration": 6, "velocity": 94}, {"time": 974, "pitch": 60, "duration": 2, "velocity": 89}, {"time": 974, "pitch": 65, "duration": 4, "velocity": 92}, {"time": 977, "pitch": 60, "duration": 2, "velocity": 87}, {"time": 980, "pitch": 65, "duration": 4, "velocity": 94}, {"time": 980, "pitch": 68, "duration": 3, "velocity": 87}, {"time": 983, "pitch": 60, "duration": 2, "velocity": 88}, {"time": 986, "pitch": 46, "duration": 10, "velocity": 93}, {"time": 986, "pitch": 58, "duration": 4, "velocity": 85}, {"time": 986, "pitch": 61, "duration": 5, "velocity": 91}, {"time": 989, "pitch": 53, "duration": 7, "velocity": 84}, {"time": 992, "pitch": 58, "duration": 1, "velocity": 86}, {"time": 992, "pitch": 61, "duration": 4, "velocity": 87}, {"time": 992, "pitch": 65, "duration": 4, "velocity": 93}, {"time": 995, "pitch": 58, "duration": 2, "velocity": 82}, {"time": 998, "pitch": 42, "duration": 21, "velocity": 92}, {"time": 998, "pitch": 61, "duration": 3, "velocity": 87}, {"time": 998, "pitch": 66, "duration": 4, "velocity": 86}, {"time": 1001, "pitch": 61, "duration": 3, "velocity": 90}, {"time": 1004, "pitch": 66, "duration": 4, "velocity": 86}, {"time": 1007, "pitch": 61, "duration": 2, "velocity": 83}, {"time": 1010, "pitch": 61, "duration": 2, "velocity": 86}, {"time": 1010, "pitch": 70, "duration": 7, "velocity": 92}, {"time": 1013, "pitch": 61, "duration": 4, "velocity": 92}, {"time": 1016, "pitch": 66, "duration": 4, "velocity": 88}, {"time": 1019, "pitch": 61, "duration": 2, "velocity": 89}, {"time": 1022, "pitch": 44, "duration": 23, "velocity": 92}, {"time": 1022, "pitch": 63, "duration": 3, "velocity": 88}, {"time": 1022, "pitch": 68, "duration": 4, "velocity": 85}, {"time": 1025, "pitch": 51, "duration": 17, "velocity": 81}, {"time": 1028, "pitch": 63, "duration": 4, "velocity": 88}, {"time": 1031, "pitch": 68, "duration": 2, "velocity": 83}, {"time": 1034, "pitch": 63, "duration": 2, "velocity": 92}, {"time": 1034, "pitch": 72, "duration": 4, "velocity": 93}, {"time": 1037, "pitch": 68, "duration": 3, "velocity": 87}, {"time": 1040, "pitch": 63, "duration": 4, "velocity": 87}, {"time": 1043, "pitch": 68, "duration": 2, "velocity": 80}, {"time": 1045, "pitch": 56, "duration": 24, "velocity": 81}, {"time": 1045, "pitch": 60, "duration": 24, "velocity": 88}, {"time": 1046, "pitch": 44, "duration": 19, "velocity": 92}, {"time": 1046, "pitch": 63, "duration": 24, "velocity": 83}, {"time": 1047, "pitch": 68, "duration": 23, "velocity": 84}, {"time": 1070, "pitch": 49, "duration": 19, "velocity": 93}, {"time": 1073, "pitch": 56, "duration": 7, "velocity": 81}, {"time": 1076, "pitch": 63, "duration": 4, "velocity": 84}, {"time": 1079, "pitch": 65, "duration": 7, "velocity": 95}, {"time": 1082, "pitch": 56, "duration": 6, "velocity": 74}, {"time": 1085, "pitch": 61, "duration": 2, "velocity": 78}, {"time": 1088, "pitch": 68, "duration": 7, "velocity": 91}, {"time": 1094, "pitch": 46, "duration": 20, "velocity": 91}, {"time": 1097, "pitch": 53, "duration": 7, "velocity": 78}, {"time": 1100, "pitch": 56, "duration": 4, "velocity": 82}, {"time": 1103, "pitch": 61, "duration": 6, "velocity": 91}, {"time": 1106, "pitch": 53, "duration": 7, "velocity": 79}, {"time": 1109, "pitch": 63, "duration": 4, "velocity": 89}, {"time": 1112, "pitch": 65, "duration": 14, "velocity": 94}, {"time": 1118, "pitch": 42, "duration": 19, "velocity": 89}, {"time": 1121, "pitch": 49, "duration": 8, "velocity": 77}, {"time": 1124, "pitch": 54, "duration": 9, "velocity": 86}, {"time": 1127, "pitch": 61, "duration": 10, "velocity": 93}, {"time": 1130, "pitch": 49, "duration": 5, "velocity": 75}, {"time": 1133, "pitch": 66, "duration": 11, "velocity": 91}, {"time": 1136, "pitch": 54, "duration": 4, "velocity": 91}, {"time": 1139, "pitch": 61, "duration": 4, "velocity": 85}, {"time": 1142, "pitch": 44, "duration": 2, "velocity": 92}, {"time": 1145, "pitch": 56, "duration": 14, "velocity": 71}, {"time": 1148, "pitch": 63, "duration": 4, "velocity": 88}, {"time": 1151, "pitch": 68, "duration": 7, "velocity": 91}, {"time": 1154, "pitch": 63, "duration": 4, "velocity": 80}, {"time": 1157, "pitch": 75, "duration": 4, "velocity": 93}, {"time": 1160, "pitch": 68, "duration": 6, "velocity": 76}, {"time": 1166, "pitch": 51, "duration": 21, "velocity": 92}, {"time": 1169, "pitch": 58, "duration": 7, "velocity": 77}, {"time": 1172, "pitch": 63, "duration": 5, "velocity": 82}, {"time": 1175, "pitch": 66, "duration": 7, "velocity": 93}, {"time": 1178, "pitch": 58, "duration": 7, "velocity": 75}, {"time": 1181, "pitch": 63, "duration": 4, "velocity": 76}, {"time": 1184, "pitch": 70, "duration": 6, "velocity": 92}, {"time": 1187, "pitch": 63, "duration": 3, "velocity": 83}, {"time": 1190, "pitch": 53, "duration": 6, "velocity": 94}, {"time": 1193, "pitch": 60, "duration": 3, "velocity": 83}, {"time": 1196, "pitch": 65, "duration": 4, "velocity": 97}, {"time": 1199, "pitch": 68, "duration": 4, "velocity": 87}, {"time": 1202, "pitch": 46, "duration": 9, "velocity": 92}, {"time": 1205, "pitch": 53, "duration": 5, "velocity": 81}, {"time": 1208, "pitch": 58, "duration": 4, "velocity": 93}, {"time": 1211, "pitch": 61, "duration": 3, "velocity": 85}, {"time": 1214, "pitch": 42, "duration": 20, "velocity": 88}, {"time": 1217, "pitch": 49, "duration": 15, "velocity": 88}, {"time": 1220, "pitch": 61, "duration": 8, "velocity": 92}, {"time": 1223, "pitch": 66, "duration": 5, "velocity": 92}, {"time": 1229, "pitch": 70, "duration": 6, "velocity": 92}, {"time": 1232, "pitch": 61, "duration": 4, "velocity": 90}, {"time": 1235, "pitch": 66, "duration": 3, "velocity": 87}, {"time": 1238, "pitch": 44, "duration": 2, "velocity": 89}, {"time": 1238, "pitch": 63, "duration": 6, "velocity": 84}, {"time": 1238, "pitch": 68, "duration": 5, "velocity": 86}, {"time": 1241, "pitch": 51, "duration": 18, "velocity": 76}, {"time": 1244, "pitch": 60, "duration": 7, "velocity": 88}, {"time": 1247, "pitch": 63, "duration": 4, "velocity": 92}, {"time": 1250, "pitch": 68, "duration": 4, "velocity": 90}, {"time": 1253, "pitch": 63, "duration": 3, "velocity": 86}, {"time": 1256, "pitch": 70, "duration": 5, "velocity": 85}, {"time": 1259, "pitch": 63, "duration": 2, "velocity": 84}, {"time": 1262, "pitch": 56, "duration": 23, "velocity": 86}, {"time": 1262, "pitch": 63, "duration": 24, "velocity": 88}, {"time": 1262, "pitch": 68, "duration": 24, "velocity": 85}, {"time": 1286, "pitch": 49, "duration": 20, "velocity": 93}, {"time": 1289, "pitch": 56, "duration": 7, "velocity": 86}, {"time": 1292, "pitch": 63, "duration": 4, "velocity": 90}, {"time": 1295, "pitch": 65, "duration": 6, "velocity": 94}, {"time": 1298, "pitch": 56, "duration": 8, "velocity": 76}, {"time": 1304, "pitch": 61, "duration": 2, "velocity": 87}, {"time": 1304, "pitch": 68, "duration": 13, "velocity": 92}, {"time": 1307, "pitch": 61, "duration": 3, "velocity": 78}, {"time": 1310, "pitch": 46, "duration": 22, "velocity": 84}, {"time": 1313, "pitch": 53, "duration": 18, "velocity": 78}, {"time": 1316, "pitch": 58, "duration": 9, "velocity": 82}, {"time": 1319, "pitch": 61, "duration": 7, "velocity": 93}, {"time": 1328, "pitch": 61, "duration": 7, "velocity": 88}, {"time": 1328, "pitch": 65, "duration": 7, "velocity": 93}, {"time": 1331, "pitch": 58, "duration": 2, "velocity": 77}, {"time": 1334, "pitch": 49, "duration": 24, "velocity": 92}, {"time": 1337, "pitch": 56, "duration": 7, "velocity": 90}, {"time": 1340, "pitch": 61, "duration": 4, "velocity": 86}, {"time": 1343, "pitch": 63, "duration": 6, "velocity": 86}, {"time": 1349, "pitch": 65, "duration": 6, "velocity": 94}, {"time": 1352, "pitch": 56, "duration": 9, "velocity": 81}, {"time": 1358, "pitch": 44, "duration": 21, "velocity": 92}, {"time": 1361, "pitch": 51, "duration": 10, "velocity": 81}, {"time": 1364, "pitch": 63, "duration": 4, "velocity": 86}, {"time": 1367, "pitch": 68, "duration": 15, "velocity": 92}, {"time": 1370, "pitch": 56, "duration": 6, "velocity": 92}, {"time": 1373, "pitch": 51, "duration": 5, "velocity": 85}, {"time": 1376, "pitch": 63, "duration": 7, "velocity": 87}, {"time": 1379, "pitch": 56, "duration": 5, "velocity": 72}, {"time": 1382, "pitch": 41, "duration": 18, "velocity": 92}, {"time": 1385, "pitch": 48, "duration": 14, "velocity": 83}, {"time": 1388, "pitch": 56, "duration": 5, "velocity": 84}, {"time": 1391, "pitch": 53, "duration": 3, "velocity": 74}, {"time": 1394, "pitch": 60, "duration": 7, "velocity": 88}, {"time": 1397, "pitch": 53, "duration": 4, "velocity": 83}, {"time": 1400, "pitch": 56, "duration": 3, "velocity": 85}, {"time": 1406, "pitch": 46, "duration": 21, "velocity": 93}, {"time": 1409, "pitch": 53, "duration": 15, "velocity": 80}, {"time": 1412, "pitch": 58, "duration": 4, "velocity": 80}, {"time": 1415, "pitch": 61, "duration": 4, "velocity": 87}, {"time": 1418, "pitch": 65, "duration": 4, "velocity": 95}, {"time": 1421, "pitch": 61, "duration": 4, "velocity": 83}, {"time": 1424, "pitch": 58, "duration": 7, "velocity": 79}, {"time": 1430, "pitch": 42, "duration": 20, "velocity": 85}, {"time": 1433, "pitch": 49, "duration": 14, "velocity": 80}, {"time": 1436, "pitch": 54, "duration": 7, "velocity": 84}, {"time": 1439, "pitch": 58, "duration": 4, "velocity": 87}, {"time": 1442, "pitch": 61, "duration": 7, "velocity": 86}, {"time": 1445, "pitch": 54, "duration": 6, "velocity": 82}, {"time": 1448, "pitch": 58, "duration": 4, "velocity": 82}, {"time": 1451, "pitch": 61, "duration": 10, "velocity": 83}, {"time": 1454, "pitch": 44, "duration": 21, "velocity": 91}, {"time": 1454, "pitch": 56, "duration": 13, "velocity": 78}, {"time": 1460, "pitch": 51, "duration": 13, "velocity": 85}, {"time": 1463, "pitch": 60, "duration": 4, "velocity": 84}, {"time": 1466, "pitch": 68, "duration": 4, "velocity": 94}, {"time": 1469, "pitch": 63, "duration": 8, "velocity": 92}, {"time": 1472, "pitch": 60, "duration": 6, "velocity": 90}, {"time": 1475, "pitch": 56, "duration": 3, "velocity": 91}, {"time": 1478, "pitch": 49, "duration": 20, "velocity": 93}, {"time": 1481, "pitch": 56, "duration": 7, "velocity": 86}, {"time": 1484, "pitch": 63, "duration": 4, "velocity": 90}, {"time": 1487, "pitch": 65, "duration": 6, "velocity": 94}, {"time": 1490, "pitch": 56, "duration": 8, "velocity": 76}, {"time": 1496, "pitch": 61, "duration": 2, "velocity": 87}, {"time": 1496, "pitch": 68, "duration": 13, "velocity": 92}, {"time": 1499, "pitch": 61, "duration": 3, "velocity": 78}, {"time": 1502, "pitch": 46, "duration": 22, "velocity": 84}, {"time": 1505, "pitch": 53, "duration": 18, "velocity": 78}, {"time": 1508, "pitch": 58, "duration": 9, "velocity": 82}, {"time": 1511, "pitch": 61, "duration": 7, "velocity": 93}, {"time": 1520, "pitch": 61, "duration": 7, "velocity": 88}, {"time": 1520, "pitch": 65, "duration": 7, "velocity": 93}, {"time": 1523, "pitch": 58, "duration": 2, "velocity": 77}, {"time": 1526, "pitch": 49, "duration": 24, "velocity": 92}, {"time": 1529, "pitch": 56, "duration": 7, "velocity": 90}, {"time": 1532, "pitch": 61, "duration": 4, "velocity": 86}, {"time": 1535, "pitch": 63, "duration": 6, "velocity": 86}, {"time": 1541, "pitch": 65, "duration": 6, "velocity": 94}, {"time": 1544, "pitch": 56, "duration": 9, "velocity": 81}, {"time": 1550, "pitch": 44, "duration": 21, "velocity": 92}, {"time": 1553, "pitch": 51, "duration": 10, "velocity": 81}, {"time": 1556, "pitch": 63, "duration": 4, "velocity": 86}, {"time": 1559, "pitch": 68, "duration": 15, "velocity": 92}, {"time": 1562, "pitch": 56, "duration": 6, "velocity": 92}, {"time": 1565, "pitch": 51, "duration": 5, "velocity": 85}, {"time": 1568, "pitch": 63, "duration": 7, "velocity": 87}, {"time": 1571, "pitch": 56, "duration": 5, "velocity": 72}, {"time": 1574, "pitch": 41, "duration": 18, "velocity": 92}, {"time": 1577, "pitch": 48, "duration": 14, "velocity": 83}, {"time": 1580, "pitch": 56, "duration": 5, "velocity": 84}, {"time": 1583, "pitch": 53, "duration": 3, "velocity": 74}, {"time": 1586, "pitch": 60, "duration": 7, "velocity": 88}, {"time": 1589, "pitch": 53, "duration": 4, "velocity": 83}, {"time": 1592, "pitch": 56, "duration": 3, "velocity": 85}, {"time": 1598, "pitch": 46, "duration": 21, "velocity": 93}, {"time": 1601, "pitch": 53, "duration": 15, "velocity": 80}, {"time": 1604, "pitch": 58, "duration": 4, "velocity": 80}, {"time": 1607, "pitch": 61, "duration": 4, "velocity": 87}, {"time": 1610, "pitch": 65, "duration": 4, "velocity": 95}, {"time": 1613, "pitch": 61, "duration": 4, "velocity": 83}, {"time": 1616, "pitch": 58, "duration": 7, "velocity": 79}, {"time": 1622, "pitch": 42, "duration": 20, "velocity": 85}, {"time": 1625, "pitch": 49, "duration": 14, "velocity": 80}, {"time": 1628, "pitch": 54, "duration": 7, "velocity": 84}, {"time": 1631, "pitch": 58, "duration": 4, "velocity": 87}, {"time": 1634, "pitch": 61, "duration": 7, "velocity": 86}, {"time": 1637, "pitch": 54, "duration": 6, "velocity": 82}, {"time": 1640, "pitch": 58, "duration": 4, "velocity": 82}, {"time": 1643, "pitch": 61, "duration": 10, "velocity": 83}, {"time": 1646, "pitch": 44, "duration": 21, "velocity": 91}, {"time": 1646, "pitch": 56, "duration": 13, "velocity": 78}, {"time": 1652, "pitch": 51, "duration": 13, "velocity": 85}, {"time": 1655, "pitch": 60, "duration": 4, "velocity": 84}, {"time": 1658, "pitch": 68, "duration": 4, "velocity": 94}, {"time": 1661, "pitch": 63, "duration": 8, "velocity": 92}, {"time": 1664, "pitch": 60, "duration": 6, "velocity": 90}, {"time": 1667, "pitch": 56, "duration": 3, "velocity": 91}, {"time": 1670, "pitch": 49, "duration": 21, "velocity": 93}, {"time": 1670, "pitch": 61, "duration": 4, "velocity": 87}, {"time": 1670, "pitch": 68, "duration": 4, "velocity": 87}, {"time": 1673, "pitch": 56, "duration": 5, "velocity": 81}, {"time": 1676, "pitch": 61, "duration": 5, "velocity": 82}, {"time": 1679, "pitch": 65, "duration": 2, "velocity": 86}, {"time": 1682, "pitch": 61, "duration": 3, "velocity": 88}, {"time": 1682, "pitch": 68, "duration": 4, "velocity": 92}, {"time": 1685, "pitch": 56, "duration": 5, "velocity": 81}, {"time": 1688, "pitch": 61, "duration": 6, "velocity": 86}, {"time": 1691, "pitch": 65, "duration": 4, "velocity": 87}, {"time": 1694, "pitch": 46, "duration": 19, "velocity": 88}, {"time": 1697, "pitch": 53, "duration": 5, "velocity": 77}, {"time": 1700, "pitch": 58, "duration": 4, "velocity": 90}, {"time": 1703, "pitch": 61, "duration": 2, "velocity": 93}, {"time": 1706, "pitch": 58, "duration": 3, "velocity": 89}, {"time": 1706, "pitch": 61, "duration": 4, "velocity": 101}, {"time": 1706, "pitch": 65, "duration": 4, "velocity": 94}, {"time": 1709, "pitch": 53, "duration": 4, "velocity": 82}, {"time": 1712, "pitch": 58, "duration": 4, "velocity": 82}, {"time": 1715, "pitch": 61, "duration": 2, "velocity": 80}, {"time": 1718, "pitch": 42, "duration": 20, "velocity": 92}, {"time": 1718, "pitch": 58, "duration": 3, "velocity": 87}, {"time": 1718, "pitch": 61, "duration": 7, "velocity": 90}, {"time": 1718, "pitch": 66, "duration": 5, "velocity": 93}, {"time": 1721, "pitch": 49, "duration": 11, "velocity": 85}, {"time": 1724, "pitch": 58, "duration": 4, "velocity": 79}, {"time": 1727, "pitch": 61, "duration": 2, "velocity": 81}, {"time": 1730, "pitch": 58, "duration": 2, "velocity": 92}, {"time": 1730, "pitch": 66, "duration": 4, "velocity": 93}, {"time": 1733, "pitch": 49, "duration": 5, "velocity": 76}, {"time": 1736, "pitch": 61, "duration": 3, "velocity": 92}, {"time": 1739, "pitch": 58, "duration": 2, "velocity": 84}, {"time": 1742, "pitch": 44, "duration": 20, "velocity": 92}, {"time": 1742, "pitch": 56, "duration": 7, "velocity": 89}, {"time": 1742, "pitch": 60, "duration": 8, "velocity": 86}, {"time": 1745, "pitch": 51, "duration": 17, "velocity": 75}, {"time": 1748, "pitch": 63, "duration": 5, "velocity": 85}, {"time": 1751, "pitch": 56, "duration": 2, "velocity": 85}, {"time": 1754, "pitch": 56, "duration": 2, "velocity": 89}, {"time": 1754, "pitch": 68, "duration": 5, "velocity": 93}, {"time": 1757, "pitch": 56, "duration": 2, "velocity": 92}, {"time": 1760, "pitch": 63, "duration": 4, "velocity": 88}, {"time": 1763, "pitch": 56, "duration": 1, "velocity": 76}, {"time": 1766, "pitch": 51, "duration": 17, "velocity": 89}, {"time": 1766, "pitch": 58, "duration": 2, "velocity": 87}, {"time": 1766, "pitch": 63, "duration": 4, "velocity": 93}, {"time": 1769, "pitch": 58, "duration": 4, "velocity": 85}, {"time": 1772, "pitch": 63, "duration": 4, "velocity": 84}, {"time": 1775, "pitch": 58, "duration": 1, "velocity": 72}, {"time": 1778, "pitch": 58, "duration": 2, "velocity": 93}, {"time": 1778, "pitch": 66, "duration": 6, "velocity": 90}, {"time": 1781, "pitch": 58, "duration": 3, "velocity": 86}, {"time": 1784, "pitch": 63, "duration": 4, "velocity": 83}, {"time": 1787, "pitch": 58, "duration": 2, "velocity": 81}, {"time": 1790, "pitch": 53, "duration": 6, "velocity": 94}, {"time": 1790, "pitch": 60, "duration": 2, "velocity": 89}, {"time": 1790, "pitch": 65, "duration": 4, "velocity": 92}, {"time": 1793, "pitch": 60, "duration": 2, "velocity": 87}, {"time": 1796, "pitch": 65, "duration": 4, "velocity": 94}, {"time": 1796, "pitch": 68, "duration": 3, "velocity": 87}, {"time": 1799, "pitch": 60, "duration": 2, "velocity": 88}, {"time": 1802, "pitch": 46, "duration": 10, "velocity": 93}, {"time": 1802, "pitch": 58, "duration": 4, "velocity": 85}, {"time": 1802, "pitch": 61, "duration": 5, "velocity": 91}, {"time": 1805, "pitch": 53, "duration": 7, "velocity": 84}, {"time": 1808, "pitch": 58, "duration": 1, "velocity": 86}, {"time": 1808, "pitch": 61, "duration": 4, "velocity": 87}, {"time": 1808, "pitch": 65, "duration": 4, "velocity": 93}, {"time": 1811, "pitch": 58, "duration": 2, "velocity": 82}, {"time": 1814, "pitch": 42, "duration": 21, "velocity": 92}, {"time": 1814, "pitch": 61, "duration": 3, "velocity": 87}, {"time": 1814, "pitch": 66, "duration": 4, "velocity": 86}, {"time": 1817, "pitch": 61, "duration": 3, "velocity": 90}, {"time": 1820, "pitch": 66, "duration": 4, "velocity": 86}, {"time": 1823, "pitch": 61, "duration": 2, "velocity": 83}, {"time": 1826, "pitch": 61, "duration": 2, "velocity": 86}, {"time": 1826, "pitch": 70, "duration": 7, "velocity": 92}, {"time": 1829, "pitch": 61, "duration": 4, "velocity": 92}, {"time": 1832, "pitch": 66, "duration": 4, "velocity": 88}, {"time": 1835, "pitch": 61, "duration": 2, "velocity": 89}, {"time": 1838, "pitch": 44, "duration": 23, "velocity": 92}, {"time": 1838, "pitch": 63, "duration": 3, "velocity": 88}, {"time": 1838, "pitch": 68, "duration": 4, "velocity": 85}, {"time": 1841, "pitch": 51, "duration": 17, "velocity": 81}, {"time": 1844, "pitch": 63, "duration": 4, "velocity": 88}, {"time": 1847, "pitch": 68, "duration": 2, "velocity": 83}, {"time": 1850, "pitch": 63, "duration": 2, "velocity": 92}, {"time": 1850, "pitch": 72, "duration": 4, "velocity": 93}, {"time": 1853, "pitch": 68, "duration": 3, "velocity": 87}, {"time": 1856, "pitch": 63, "duration": 4, "velocity": 87}, {"time": 1859, "pitch": 68, "duration": 2, "velocity": 80}, {"time": 1862, "pitch": 49, "duration": 21, "velocity": 93}, {"time": 1862, "pitch": 61, "duration": 4, "velocity": 87}, {"time": 1862, "pitch": 68, "duration": 4, "velocity": 87}, {"time": 1865, "pitch": 56, "duration": 5, "velocity": 81}, {"time": 1868, "pitch": 61, "duration": 5, "velocity": 82}, {"time": 1871, "pitch": 65, "duration": 2, "velocity": 86}, {"time": 1874, "pitch": 61, "duration": 3, "velocity": 88}, {"time": 1874, "pitch": 68, "duration": 4, "velocity": 92}, {"time": 1877, "pitch": 56, "duration": 5, "velocity": 81}, {"time": 1880, "pitch": 61, "duration": 6, "velocity": 86}, {"time": 1883, "pitch": 65, "duration": 4, "velocity": 87}, {"time": 1886, "pitch": 46, "duration": 19, "velocity": 88}, {"time": 1889, "pitch": 53, "duration": 5, "velocity": 77}, {"time": 1892, "pitch": 58, "duration": 4, "velocity": 90}, {"time": 1895, "pitch": 61, "duration": 2, "velocity": 93}, {"time": 1898, "pitch": 58, "duration": 3, "velocity": 89}, {"time": 1898, "pitch": 61, "duration": 4, "velocity": 101}, {"time": 1898, "pitch": 65, "duration": 4, "velocity": 94}, {"time": 1901, "pitch": 53, "duration": 4, "velocity": 82}, {"time": 1904, "pitch": 58, "duration": 4, "velocity": 82}, {"time": 1907, "pitch": 61, "duration": 2, "velocity": 80}, {"time": 1910, "pitch": 42, "duration": 20, "velocity": 92}, {"time": 1910, "pitch": 58, "duration": 3, "velocity": 87}, {"time": 1910, "pitch": 61, "duration": 7, "velocity": 90}, {"time": 1910, "pitch": 66, "duration": 5, "velocity": 93}, {"time": 1913, "pitch": 49, "duration": 11, "velocity": 85}, {"time": 1916, "pitch": 58, "duration": 4, "velocity": 79}, {"time": 1919, "pitch": 61, "duration": 2, "velocity": 81}, {"time": 1922, "pitch": 58, "duration": 2, "velocity": 92}, {"time": 1922, "pitch": 66, "duration": 4, "velocity": 93}, {"time": 1925, "pitch": 49, "duration": 5, "velocity": 76}, {"time": 1928, "pitch": 61, "duration": 3, "velocity": 92}, {"time": 1931, "pitch": 58, "duration": 2, "velocity": 84}, {"time": 1934, "pitch": 44, "duration": 20, "velocity": 92}, {"time": 1934, "pitch": 56, "duration": 7, "velocity": 89}, {"time": 1934, "pitch": 60, "duration": 8, "velocity": 86}, {"time": 1937, "pitch": 51, "duration": 17, "velocity": 75}, {"time": 1940, "pitch": 63, "duration": 5, "velocity": 85}, {"time": 1943, "pitch": 56, "duration": 2, "velocity": 85}, {"time": 1946, "pitch": 56, "duration": 2, "velocity": 89}, {"time": 1946, "pitch": 68, "duration": 5, "velocity": 93}, {"time": 1949, "pitch": 56, "duration": 2, "velocity": 92}, {"time": 1952, "pitch": 63, "duration": 4, "velocity": 88}, {"time": 1955, "pitch": 56, "duration": 1, "velocity": 76}, {"time": 1958, "pitch": 51, "duration": 17, "velocity": 89}, {"time": 1958, "pitch": 58, "duration": 2, "velocity": 87}, {"time": 1958, "pitch": 63, "duration": 4, "velocity": 93}, {"time": 1961, "pitch": 58, "duration": 4, "velocity": 85}, {"time": 1964, "pitch": 63, "duration": 4, "velocity": 84}, {"time": 1967, "pitch": 58, "duration": 1, "velocity": 72}, {"time": 1970, "pitch": 58, "duration": 2, "velocity": 93}, {"time": 1970, "pitch": 66, "duration": 6, "velocity": 90}, {"time": 1973, "pitch": 58, "duration": 3, "velocity": 86}, {"time": 1976, "pitch": 63, "duration": 4, "velocity": 83}, {"time": 1979, "pitch": 58, "duration": 2, "velocity": 81}, {"time": 1982, "pitch": 53, "duration": 6, "velocity": 94}, {"time": 1982, "pitch": 60, "duration": 2, "velocity": 89}, {"time": 1982, "pitch": 65, "duration": 4, "velocity": 92}, {"time": 1985, "pitch": 60, "duration": 2, "velocity": 87}, {"time": 1988, "pitch": 65, "duration": 4, "velocity": 94}, {"time": 1988, "pitch": 68, "duration": 3, "velocity": 87}, {"time": 1991, "pitch": 60, "duration": 2, "velocity": 88}, {"time": 1994, "pitch": 46, "duration": 10, "velocity": 93}, {"time": 1994, "pitch": 58, "duration": 4, "velocity": 85}, {"time": 1994, "pitch": 61, "duration": 5, "velocity": 91}, {"time": 1997, "pitch": 53, "duration": 7, "velocity": 84}, {"time": 2000, "pitch": 58, "duration": 1, "velocity": 86}, {"time": 2000, "pitch": 61, "duration": 4, "velocity": 87}, {"time": 2000, "pitch": 65, "duration": 4, "velocity": 93}, {"time": 2003, "pitch": 58, "duration": 2, "velocity": 82}, {"time": 2006, "pitch": 42, "duration": 21, "velocity": 92}, {"time": 2006, "pitch": 61, "duration": 3, "velocity": 87}, {"time": 2006, "pitch": 66, "duration": 4, "velocity": 86}, {"time": 2009, "pitch": 61, "duration": 3, "velocity": 90}, {"time": 2012, "pitch": 66, "duration": 4, "velocity": 86}, {"time": 2015, "pitch": 61, "duration": 2, "velocity": 83}, {"time": 2018, "pitch": 61, "duration": 2, "velocity": 86}, {"time": 2018, "pitch": 70, "duration": 7, "velocity": 92}, {"time": 2021, "pitch": 61, "duration": 4, "velocity": 92}, {"time": 2024, "pitch": 66, "duration": 4, "velocity": 88}, {"time": 2027, "pitch": 61, "duration": 2, "velocity": 89}, {"time": 2030, "pitch": 44, "duration": 23, "velocity": 92}, {"time": 2030, "pitch": 63, "duration": 3, "velocity": 88}, {"time": 2030, "pitch": 68, "duration": 4, "velocity": 85}, {"time": 2033, "pitch": 51, "duration": 17, "velocity": 81}, {"time": 2036, "pitch": 63, "duration": 4, "velocity": 88}, {"time": 2039, "pitch": 68, "duration": 2, "velocity": 83}, {"time": 2042, "pitch": 63, "duration": 2, "velocity": 92}, {"time": 2042, "pitch": 72, "duration": 4, "velocity": 93}, {"time": 2045, "pitch": 68, "duration": 3, "velocity": 87}, {"time": 2048, "pitch": 63, "duration": 4, "velocity": 87}, {"time": 2051, "pitch": 68, "duration": 2, "velocity": 80}, {"time": 2054, "pitch": 49, "duration": 21, "velocity": 93}, {"time": 2054, "pitch": 61, "duration": 4, "velocity": 87}, {"time": 2054, "pitch": 68, "duration": 4, "velocity": 87}, {"time": 2057, "pitch": 56, "duration": 5, "velocity": 81}, {"time": 2060, "pitch": 61, "duration": 5, "velocity": 82}, {"time": 2063, "pitch": 65, "duration": 2, "velocity": 86}, {"time": 2066, "pitch": 61, "duration": 3, "velocity": 88}, {"time": 2066, "pitch": 68, "duration": 4, "velocity": 92}, {"time": 2069, "pitch": 56, "duration": 5, "velocity": 81}, {"time": 2072, "pitch": 61, "duration": 6, "velocity": 86}, {"time": 2075, "pitch": 65, "duration": 4, "velocity": 87}, {"time": 2078, "pitch": 46, "duration": 19, "velocity": 88}, {"time": 2081, "pitch": 53, "duration": 5, "velocity": 77}, {"time": 2084, "pitch": 58, "duration": 4, "velocity": 90}, {"time": 2087, "pitch": 61, "duration": 2, "velocity": 93}, {"time": 2090, "pitch": 58, "duration": 3, "velocity": 89}, {"time": 2090, "pitch": 61, "duration": 4, "velocity": 101}, {"time": 2090, "pitch": 65, "duration": 4, "velocity": 94}, {"time": 2093, "pitch": 53, "duration": 4, "velocity": 82}, {"time": 2096, "pitch": 58, "duration": 4, "velocity": 82}, {"time": 2099, "pitch": 61, "duration": 2, "velocity": 80}, {"time": 2102, "pitch": 42, "duration": 20, "velocity": 92}, {"time": 2102, "pitch": 58, "duration": 3, "velocity": 87}, {"time": 2102, "pitch": 61, "duration": 7, "velocity": 90}, {"time": 2102, "pitch": 66, "duration": 5, "velocity": 93}, {"time": 2105, "pitch": 49, "duration": 11, "velocity": 85}, {"time": 2108, "pitch": 58, "duration": 4, "velocity": 79}, {"time": 2111, "pitch": 61, "duration": 2, "velocity": 81}, {"time": 2114, "pitch": 58, "duration": 2, "velocity": 92}, {"time": 2114, "pitch": 66, "duration": 4, "velocity": 93}, {"time": 2117, "pitch": 49, "duration": 5, "velocity": 76}, {"time": 2120, "pitch": 61, "duration": 3, "velocity": 92}, {"time": 2123, "pitch": 58, "duration": 2, "velocity": 84}, {"time": 2126, "pitch": 44, "duration": 20, "velocity": 92}, {"time": 2126, "pitch": 56, "duration": 7, "velocity": 89}, {"time": 2126, "pitch": 60, "duration": 8, "velocity": 86}, {"time": 2129, "pitch": 51, "duration": 17, "velocity": 75}, {"time": 2132, "pitch": 63, "duration": 5, "velocity": 85}, {"time": 2135, "pitch": 56, "duration": 2, "velocity": 85}, {"time": 2138, "pitch": 56, "duration": 2, "velocity": 89}, {"time": 2138, "pitch": 68, "duration": 5, "velocity": 93}, {"time": 2141, "pitch": 56, "duration": 2, "velocity": 92}, {"time": 2144, "pitch": 63, "duration": 4, "velocity": 88}, {"time": 2147, "pitch": 56, "duration": 1, "velocity": 76}, {"time": 2150, "pitch": 51, "duration": 17, "velocity": 89}, {"time": 2150, "pitch": 58, "duration": 2, "velocity": 87}, {"time": 2150, "pitch": 63, "duration": 4, "velocity": 93}, {"time": 2153, "pitch": 58, "duration": 4, "velocity": 85}, {"time": 2156, "pitch": 63, "duration": 4, "velocity": 84}, {"time": 2159, "pitch": 58, "duration": 1, "velocity": 72}, {"time": 2162, "pitch": 58, "duration": 2, "velocity": 93}, {"time": 2162, "pitch": 66, "duration": 6, "velocity": 90}, {"time": 2165, "pitch": 58, "duration": 3, "velocity": 86}, {"time": 2168, "pitch": 63, "duration": 4, "velocity": 83}, {"time": 2171, "pitch": 58, "duration": 2, "velocity": 81}, {"time": 2174, "pitch": 53, "duration": 6, "velocity": 94}, {"time": 2174, "pitch": 60, "duration": 2, "velocity": 89}, {"time": 2174, "pitch": 65, "duration": 4, "velocity": 92}, {"time": 2177, "pitch": 60, "duration": 2, "velocity": 87}, {"time": 2180, "pitch": 65, "duration": 4, "velocity": 94}, {"time": 2180, "pitch": 68, "duration": 3, "velocity": 87}, {"time": 2183, "pitch": 60, "duration": 2, "velocity": 88}, {"time": 2186, "pitch": 46, "duration": 10, "velocity": 93}, {"time": 2186, "pitch": 58, "duration": 4, "velocity": 85}, {"time": 2186, "pitch": 61, "duration": 5, "velocity": 91}, {"time": 2189, "pitch": 53, "duration": 7, "velocity": 84}, {"time": 2192, "pitch": 58, "duration": 1, "velocity": 86}, {"time": 2192, "pitch": 61, "duration": 4, "velocity": 87}, {"time": 2192, "pitch": 65, "duration": 4, "velocity": 93}, {"time": 2195, "pitch": 58, "duration": 2, "velocity": 82}, {"time": 2198, "pitch": 42, "duration": 21, "velocity": 92}, {"time": 2198, "pitch": 61, "duration": 3, "velocity": 87}, {"time": 2198, "pitch": 66, "duration": 4, "velocity": 86}, {"time": 2201, "pitch": 61, "duration": 3, "velocity": 90}, {"time": 2204, "pitch": 66, "duration": 4, "velocity": 86}, {"time": 2207, "pitch": 61, "duration": 2, "velocity": 83}, {"time": 2210, "pitch": 61, "duration": 2, "velocity": 86}, {"time": 2210, "pitch": 70, "duration": 7, "velocity": 92}, {"time": 2213, "pitch": 61, "duration": 4, "velocity": 92}, {"time": 2216, "pitch": 66, "duration": 4, "velocity": 88}, {"time": 2219, "pitch": 61, "duration": 2, "velocity": 89}, {"time": 2222, "pitch": 44, "duration": 23, "velocity": 92}, {"time": 2222, "pitch": 63, "duration": 3, "velocity": 88}, {"time": 2222, "pitch": 68, "duration": 4, "velocity": 85}, {"time": 2225, "pitch": 51, "duration": 17, "velocity": 81}, {"time": 2228, "pitch": 63, "duration": 4, "velocity": 88}, {"time": 2231, "pitch": 68, "duration": 2, "velocity": 83}, {"time": 2234, "pitch": 63, "duration": 2, "velocity": 92}, {"time": 2234, "pitch": 72, "duration": 4, "velocity": 93}, {"time": 2237, "pitch": 68, "duration": 3, "velocity": 87}, {"time": 2240, "pitch": 63, "duration": 4, "velocity": 87}, {"time": 2243, "pitch": 68, "duration": 2, "velocity": 80}, {"time": 2246, "pitch": 49, "duration": 21, "velocity": 93}, {"time": 2246, "pitch": 61, "duration": 4, "velocity": 87}, {"time": 2246, "pitch": 68, "duration": 4, "velocity": 87}, {"time": 2249, "pitch": 56, "duration": 5, "velocity": 81}, {"time": 2252, "pitch": 61, "duration": 5, "velocity": 82}, {"time": 2255, "pitch": 65, "duration": 2, "velocity": 86}, {"time": 2258, "pitch": 61, "duration": 3, "velocity": 88}, {"time": 2258, "pitch": 68, "duration": 4, "velocity": 92}, {"time": 2261, "pitch": 56, "duration": 5, "velocity": 81}, {"time": 2264, "pitch": 61, "duration": 6, "velocity": 86}, {"time": 2267, "pitch": 65, "duration": 4, "velocity": 87}, {"time": 2270, "pitch": 46, "duration": 19, "velocity": 88}, {"time": 2273, "pitch": 53, "duration": 5, "velocity": 77}, {"time": 2276, "pitch": 58, "duration": 4, "velocity": 90}, {"time": 2279, "pitch": 61, "duration": 2, "velocity": 93}, {"time": 2282, "pitch": 58, "duration": 3, "velocity": 89}, {"time": 2282, "pitch": 61, "duration": 4, "velocity": 101}, {"time": 2282, "pitch": 65, "duration": 4, "velocity": 94}, {"time": 2285, "pitch": 53, "duration": 4, "velocity": 82}, {"time": 2288, "pitch": 58, "duration": 4, "velocity": 82}, {"time": 2291, "pitch": 61, "duration": 2, "velocity": 80}, {"time": 2294, "pitch": 42, "duration": 20, "velocity": 92}, {"time": 2294, "pitch": 58, "duration": 3, "velocity": 87}, {"time": 2294, "pitch": 61, "duration": 7, "velocity": 90}, {"time": 2294, "pitch": 66, "duration": 5, "velocity": 93}, {"time": 2297, "pitch": 49, "duration": 11, "velocity": 85}, {"time": 2300, "pitch": 58, "duration": 4, "velocity": 79}, {"time": 2303, "pitch": 61, "duration": 2, "velocity": 81}, {"time": 2306, "pitch": 58, "duration": 2, "velocity": 92}, {"time": 2306, "pitch": 66, "duration": 4, "velocity": 93}, {"time": 2309, "pitch": 49, "duration": 5, "velocity": 76}, {"time": 2312, "pitch": 61, "duration": 3, "velocity": 92}, {"time": 2315, "pitch": 58, "duration": 2, "velocity": 84}, {"time": 2318, "pitch": 44, "duration": 20, "velocity": 92}, {"time": 2318, "pitch": 56, "duration": 7, "velocity": 89}, {"time": 2318, "pitch": 60, "duration": 8, "velocity": 86}, {"time": 2321, "pitch": 51, "duration": 17, "velocity": 75}, {"time": 2324, "pitch": 63, "duration": 5, "velocity": 85}, {"time": 2327, "pitch": 56, "duration": 2, "velocity": 85}, {"time": 2330, "pitch": 56, "duration": 2, "velocity": 89}, {"time": 2330, "pitch": 68, "duration": 5, "velocity": 93}, {"time": 2333, "pitch": 56, "duration": 2, "velocity": 92}, {"time": 2336, "pitch": 63, "duration": 4, "velocity": 88}, {"time": 2339, "pitch": 56, "duration": 1, "velocity": 76}, {"time": 2342, "pitch": 51, "duration": 17, "velocity": 89}, {"time": 2342, "pitch": 58, "duration": 2, "velocity": 87}, {"time": 2342, "pitch": 63, "duration": 4, "velocity": 93}, {"time": 2345, "pitch": 58, "duration": 4, "velocity": 85}, {"time": 2348, "pitch": 63, "duration": 4, "velocity": 84}, {"time": 2351, "pitch": 58, "duration": 1, "velocity": 72}, {"time": 2354, "pitch": 58, "duration": 2, "velocity": 93}, {"time": 2354, "pitch": 66, "duration": 6, "velocity": 90}, {"time": 2357, "pitch": 58, "duration": 3, "velocity": 86}, {"time": 2360, "pitch": 63, "duration": 4, "velocity": 83}, {"time": 2363, "pitch": 58, "duration": 2, "velocity": 81}, {"time": 2366, "pitch": 53, "duration": 6, "velocity": 94}, {"time": 2366, "pitch": 60, "duration": 2, "velocity": 89}, {"time": 2366, "pitch": 65, "duration": 4, "velocity": 92}, {"time": 2369, "pitch": 60, "duration": 2, "velocity": 87}, {"time": 2372, "pitch": 65, "duration": 4, "velocity": 94}, {"time": 2372, "pitch": 68, "duration": 3, "velocity": 87}, {"time": 2375, "pitch": 60, "duration": 2, "velocity": 88}, {"time": 2378, "pitch": 46, "duration": 10, "velocity": 93}, {"time": 2378, "pitch": 58, "duration": 4, "velocity": 85}, {"time": 2378, "pitch": 61, "duration": 5, "velocity": 91}, {"time": 2381, "pitch": 53, "duration": 7, "velocity": 84}, {"time": 2384, "pitch": 58, "duration": 1, "velocity": 86}, {"time": 2384, "pitch": 61, "duration": 4, "velocity": 87}, {"time": 2384, "pitch": 65, "duration": 4, "velocity": 93}, {"time": 2387, "pitch": 58, "duration": 2, "velocity": 82}, {"time": 2390, "pitch": 42, "duration": 21, "velocity": 92}, {"time": 2390, "pitch": 61, "duration": 3, "velocity": 87}, {"time": 2390, "pitch": 66, "duration": 4, "velocity": 86}, {"time": 2393, "pitch": 61, "duration": 3, "velocity": 90}, {"time": 2396, "pitch": 66, "duration": 4, "velocity": 86}, {"time": 2399, "pitch": 61, "duration": 2, "velocity": 83}, {"time": 2402, "pitch": 61, "duration": 2, "velocity": 86}, {"time": 2402, "pitch": 70, "duration": 7, "velocity": 92}, {"time": 2405, "pitch": 61, "duration": 4, "velocity": 92}, {"time": 2408, "pitch": 66, "duration": 4, "velocity": 88}, {"time": 2411, "pitch": 61, "duration": 2, "velocity": 89}, {"time": 2414, "pitch": 44, "duration": 23, "velocity": 92}, {"time": 2414, "pitch": 63, "duration": 3, "velocity": 88}, {"time": 2414, "pitch": 68, "duration": 4, "velocity": 85}, {"time": 2417, "pitch": 51, "duration": 17, "velocity": 81}, {"time": 2420, "pitch": 63, "duration": 4, "velocity": 88}, {"time": 2423, "pitch": 68, "duration": 2, "velocity": 83}, {"time": 2426, "pitch": 63, "duration": 2, "velocity": 92}, {"time": 2426, "pitch": 72, "duration": 4, "velocity": 93}, {"time": 2429, "pitch": 68, "duration": 3, "velocity": 87}, {"time": 2432, "pitch": 63, "duration": 4, "velocity": 87}, {"time": 2435, "pitch": 68, "duration": 2, "velocity": 80}, {"time": 2437, "pitch": 56, "duration": 24, "velocity": 81}, {"time": 2437, "pitch": 60, "duration": 24, "velocity": 88}, {"time": 2438, "pitch": 44, "duration": 19, "velocity": 92}, {"time": 2438, "pitch": 63, "duration": 24, "velocity": 83}, {"time": 2439, "pitch": 68, "duration": 23, "velocity": 84}, {"time": 2462, "pitch": 49, "duration": 19, "velocity": 93}, {"time": 2465, "pitch": 56, "duration": 7, "velocity": 81}, {"time": 2468, "pitch": 63, "duration": 4, "velocity": 84}, {"time": 2471, "pitch": 65, "duration": 7, "velocity": 95}, {"time": 2474, "pitch": 56, "duration": 6, "velocity": 74}, {"time": 2477, "pitch": 61, "duration": 2, "velocity": 78}, {"time": 2480, "pitch": 68, "duration": 7, "velocity": 91}, {"time": 2486, "pitch": 46, "duration": 20, "velocity": 91}, {"time": 2489, "pitch": 53, "duration": 7, "velocity": 78}, {"time": 2492, "pitch": 56, "duration": 4, "velocity": 82}, {"time": 2495, "pitch": 61, "duration": 6, "velocity": 91}, {"time": 2498, "pitch": 53, "duration": 7, "velocity": 79}, {"time": 2501, "pitch": 63, "duration": 4, "velocity": 89}, {"time": 2504, "pitch": 65, "duration": 14, "velocity": 94}, {"time": 2510, "pitch": 42, "duration": 19, "velocity": 89}, {"time": 2513, "pitch": 49, "duration": 8, "velocity": 77}, {"time": 2516, "pitch": 54, "duration": 9, "velocity": 86}, {"time": 2519, "pitch": 61, "duration": 10, "velocity": 93}, {"time": 2522, "pitch": 49, "duration": 5, "velocity": 75}, {"time": 2525, "pitch": 66, "duration": 11, "velocity": 91}, {"time": 2528, "pitch": 54, "duration": 4, "velocity": 91}, {"time": 2531, "pitch": 61, "duration": 4, "velocity": 85}, {"time": 2534, "pitch": 44, "duration": 2, "velocity": 92}, {"time": 2537, "pitch": 56, "duration": 14, "velocity": 71}, {"time": 2540, "pitch": 63, "duration": 4, "velocity": 88}, {"time": 2543, "pitch": 68, "duration": 7, "velocity": 91}, {"time": 2546, "pitch": 63, "duration": 4, "velocity": 80}, {"time": 2549, "pitch": 75, "duration": 4, "velocity": 93}, {"time": 2552, "pitch": 68, "duration": 6, "velocity": 76}, {"time": 2558, "pitch": 51, "duration": 21, "velocity": 92}, {"time": 2561, "pitch": 58, "duration": 7, "velocity": 77}, {"time": 2564, "pitch": 63, "duration": 5, "velocity": 82}, {"time": 2567, "pitch": 66, "duration": 7, "velocity": 93}, {"time": 2570, "pitch": 58, "duration": 7, "velocity": 75}, {"time": 2573, "pitch": 63, "duration": 4, "velocity": 76}, {"time": 2576, "pitch": 70, "duration": 6, "velocity": 92}, {"time": 2579, "pitch": 63, "duration": 3, "velocity": 83}, {"time": 2582, "pitch": 53, "duration": 6, "velocity": 94}, {"time": 2585, "pitch": 60, "duration": 3, "velocity": 83}, {"time": 2588, "pitch": 65, "duration": 4, "velocity": 97}, {"time": 2591, "pitch": 68, "duration": 4, "velocity": 87}, {"time": 2594, "pitch": 46, "duration": 9, "velocity": 92}, {"time": 2597, "pitch": 53, "duration": 5, "velocity": 81}, {"time": 2600, "pitch": 58, "duration": 4, "velocity": 93}, {"time": 2603, "pitch": 61, "duration": 3, "velocity": 85}, {"time": 2606, "pitch": 42, "duration": 20, "velocity": 88}, {"time": 2609, "pitch": 49, "duration": 15, "velocity": 88}, {"time": 2612, "pitch": 61, "duration": 8, "velocity": 92}, {"time": 2615, "pitch": 66, "duration": 5, "velocity": 92}, {"time": 2621, "pitch": 70, "duration": 6, "velocity": 92}, {"time": 2624, "pitch": 61, "duration": 4, "velocity": 90}, {"time": 2627, "pitch": 66, "duration": 3, "velocity": 87}, {"time": 2630, "pitch": 44, "duration": 2, "velocity": 89}, {"time": 2630, "pitch": 63, "duration": 6, "velocity": 84}, {"time": 2630, "pitch": 68, "duration": 5, "velocity": 86}, {"time": 2633, "pitch": 51, "duration": 18, "velocity": 76}, {"time": 2636, "pitch": 60, "duration": 7, "velocity": 88}, {"time": 2639, "pitch": 63, "duration": 4, "velocity": 92}, {"time": 2642, "pitch": 68, "duration": 4, "velocity": 90}, {"time": 2645, "pitch": 63, "duration": 3, "velocity": 86}, {"time": 2648, "pitch": 70, "duration": 5, "velocity": 85}, {"time": 2651, "pitch": 63, "duration": 2, "velocity": 84}, {"time": 2654, "pitch": 56, "duration": 23, "velocity": 86}, {"time": 2654, "pitch": 63, "duration": 24, "velocity": 88}, {"time": 2654, "pitch": 68, "duration": 24, "velocity": 85}, {"time": 2675, "pitch": 73, "duration": 4, "velocity": 85}, {"time": 2676, "pitch": 68, "duration": 2, "velocity": 82}, {"time": 2676, "pitch": 65, "duration": 4, "velocity": 81}, {"time": 2678, "pitch": 37, "duration": 1, "velocity": 88}, {"time": 2678, "pitch": 61, "duration": 5, "velocity": 85}, {"time": 2681, "pitch": 49, "duration": 58, "velocity": 92}, {"time": 2685, "pitch": 56, "duration": 51, "velocity": 75}, {"time": 2687, "pitch": 61, "duration": 4, "velocity": 72}, {"time": 2690, "pitch": 63, "duration": 4, "velocity": 82}, {"time": 2694, "pitch": 65, "duration": 10, "velocity": 81}, {"time": 2698, "pitch": 68, "duration": 7, "velocity": 79}, {"time": 2704, "pitch": 73, "duration": 3, "velocity": 76}, {"time": 2712, "pitch": 73, "duration": 23, "velocity": 70}, {"time": 2713, "pitch": 77, "duration": 21, "velocity": 74}, {"time": 2715, "pitch": 85, "duration": 22, "velocity": 80}], "annotations": [{"time": 64, "annotation": {"number": 64, "value": 127}, "group": "control_change"}, {"time": 88, "annotation": {"number": 64, "value": 0}, "group": "control_change"}, {"time": 91, "annotation": {"number": 64, "value": 127}, "group": "control_change"}, {"time": 109, "annotation": {"number": 64, "value": 0}, "group": "control_change"}, {"time": 112, "annotation": {"number": 64, "value": 127}, "group": "control_change"}, {"time": 133, "annotation": {"number": 64, "value": 0}, "group": "control_change"}, {"time": 134, "annotation": {"number": 64, "value": 127}, "group": "control_change"}, {"time": 158, "annotation": {"number": 64, "value": 0}, "group": "control_change"}, {"time": 161, "annotation": {"number": 64, "value": 127}, "group": "control_change"}, {"time": 181, "annotation": {"number": 64, "value": 0}, "group": "control_change"}, {"time": 182, "annotation": {"number": 64, "value": 127}, "group": "control_change"}, {"time": 193, "annotation": {"number": 64, "value": 0}, "group": "control_change"}, {"time": 196, "annotation": {"number": 64, "value": 127}, "group": "control_change"}, {"time": 206, "annotation": {"number": 64, "value": 0}, "group": "control_change"}, {"time": 208, "annotation": {"number": 64, "value": 127}, "group": "control_change"}, {"time": 228, "annotation": {"number": 64, "value": 0}, "group": "control_change"}, {"time": 230, "annotation": {"number": 64, "value": 127}, "group": "control_change"}, {"time": 255, "annotation": {"number": 64, "value": 0}, "group": "control_change"}, {"time": 279, "annotation": {"number": 64, "value": 127}, "group": "control_change"}, {"time": 302, "annotation": {"number": 64, "value": 0}, "group": "control_change"}, {"time": 306, "annotation": {"number": 64, "value": 127}, "group": "control_change"}, {"time": 327, "annotation": {"number": 64, "value": 0}, "group": "control_change"}, {"time": 330, "annotation": {"number": 64, "value": 127}, "group": "control_change"}, {"time": 351, "annotation": {"number": 64, "value": 0}, "group": "control_change"}, {"time": 354, "annotation": {"number": 64, "value": 127}, "group": "control_change"}, {"time": 373, "annotation": {"number": 64, "value": 0}, "group": "control_change"}, {"time": 376, "annotation": {"number": 64, "value": 127}, "group": "control_change"}, {"time": 398, "annotation": {"number": 64, "value": 0}, "group": "control_change"}, {"time": 400, "annotation": {"number": 64, "value": 127}, "group": "control_change"}, {"time": 422, "annotation": {"number": 64, "value": 0}, "group": "control_change"}, {"time": 424, "annotation": {"number": 64, "value": 127}, "group": "control_change"}, {"time": 445, "annotation": {"number": 64, "value": 0}, "group": "control_change"}, {"time": 450, "annotation": {"number": 64, "value": 127}, "group": "control_change"}, {"time": 468, "annotation": {"number": 64, "value": 0}, "group": "control_change"}, {"time": 471, "annotation": {"number": 64, "value": 127}, "group": "control_change"}, {"time": 494, "annotation": {"number": 64, "value": 0}, "group": "control_change"}, {"time": 498, "annotation": {"number": 64, "value": 127}, "group": "control_change"}, {"time": 519, "annotation": {"number": 64, "value": 0}, "group": "control_change"}, {"time": 522, "annotation": {"number": 64, "value": 127}, "group": "control_change"}, {"time": 543, "annotation": {"number": 64, "value": 0}, "group": "control_change"}, {"time": 546, "annotation": {"number": 64, "value": 127}, "group": "control_change"}, {"time": 565, "annotation": {"number": 64, "value": 0}, "group": "control_change"}, {"time": 568, "annotation": {"number": 64, "value": 127}, "group": "control_change"}, {"time": 590, "annotation": {"number": 64, "value": 0}, "group": "control_change"}, {"time": 592, "annotation": {"number": 64, "value": 127}, "group": "control_change"}, {"time": 614, "annotation": {"number": 64, "value": 0}, "group": "control_change"}, {"time": 616, "annotation": {"number": 64, "value": 127}, "group": "control_change"}, {"time": 637, "annotation": {"number": 64, "value": 0}, "group": "control_change"}, {"time": 642, "annotation": {"number": 64, "value": 127}, "group": "control_change"}, {"time": 660, "annotation": {"number": 64, "value": 0}, "group": "control_change"}, {"time": 663, "annotation": {"number": 64, "value": 127}, "group": "control_change"}, {"time": 686, "annotation": {"number": 64, "value": 0}, "group": "control_change"}, {"time": 687, "annotation": {"number": 64, "value": 127}, "group": "control_change"}, {"time": 709, "annotation": {"number": 64, "value": 0}, "group": "control_change"}, {"time": 710, "annotation": {"number": 64, "value": 127}, "group": "control_change"}, {"time": 732, "annotation": {"number": 64, "value": 0}, "group": "control_change"}, {"time": 739, "annotation": {"number": 64, "value": 127}, "group": "control_change"}, {"time": 758, "annotation": {"number": 64, "value": 0}, "group": "control_change"}, {"time": 763, "annotation": {"number": 64, "value": 127}, "group": "control_change"}, {"time": 782, "annotation": {"number": 64, "value": 0}, "group": "control_change"}, {"time": 783, "annotation": {"number": 64, "value": 127}, "group": "control_change"}, {"time": 794, "annotation": {"number": 64, "value": 0}, "group": "control_change"}, {"time": 798, "annotation": {"number": 64, "value": 127}, "group": "control_change"}, {"time": 800, "annotation": {"number": 64, "value": 127}, "group": "control_change"}, {"time": 804, "annotation": {"number": 64, "value": 0}, "group": "control_change"}, {"time": 806, "annotation": {"number": 64, "value": 127}, "group": "control_change"}, {"time": 829, "annotation": {"number": 64, "value": 0}, "group": "control_change"}, {"time": 832, "annotation": {"number": 64, "value": 127}, "group": "control_change"}, {"time": 849, "annotation": {"number": 64, "value": 127}, "group": "control_change"}, {"time": 851, "annotation": {"number": 64, "value": 0}, "group": "control_change"}, {"time": 853, "annotation": {"number": 64, "value": 0}, "group": "control_change"}, {"time": 855, "annotation": {"number": 64, "value": 127}, "group": "control_change"}, {"time": 878, "annotation": {"number": 64, "value": 0}, "group": "control_change"}, {"time": 879, "annotation": {"number": 64, "value": 127}, "group": "control_change"}, {"time": 901, "annotation": {"number": 64, "value": 0}, "group": "control_change"}, {"time": 902, "annotation": {"number": 64, "value": 127}, "group": "control_change"}, {"time": 924, "annotation": {"number": 64, "value": 0}, "group": "control_change"}, {"time": 931, "annotation": {"number": 64, "value": 127}, "group": "control_change"}, {"time": 950, "annotation": {"number": 64, "value": 0}, "group": "control_change"}, {"time": 955, "annotation": {"number": 64, "value": 127}, "group": "control_change"}, {"time": 974, "annotation": {"number": 64, "value": 0}, "group": "control_change"}, {"time": 975, "annotation": {"number": 64, "value": 127}, "group": "control_change"}, {"time": 986, "annotation": {"number": 64, "value": 0}, "group": "control_change"}, {"time": 990, "annotation": {"number": 64, "value": 127}, "group": "control_change"}, {"time": 992, "annotation": {"number": 64, "value": 127}, "group": "control_change"}, {"time": 996, "annotation": {"number": 64, "value": 0}, "group": "control_change"}, {"time": 998, "annotation": {"number": 64, "value": 127}, "group": "control_change"}, {"time": 1021, "annotation": {"number": 64, "value": 0}, "group": "control_change"}, {"time": 1024, "annotation": {"number": 64, "value": 127}, "group": "control_change"}, {"time": 1041, "annotation": {"number": 64, "value": 127}, "group": "control_change"}, {"time": 1043, "annotation": {"number": 64, "value": 0}, "group": "control_change"}, {"time": 1045, "annotation": {"number": 64, "value": 0}, "group": "control_change"}, {"time": 1047, "annotation": {"number": 64, "value": 127}, "group": "control_change"}, {"time": 1069, "annotation": {"number": 64, "value": 0}, "group": "control_change"}, {"time": 1072, "annotation": {"number": 64, "value": 127}, "group": "control_change"}, {"time": 1096, "annotation": {"number": 64, "value": 0}, "group": "control_change"}, {"time": 1099, "annotation": {"number": 64, "value": 127}, "group": "control_change"}, {"time": 1117, "annotation": {"number": 64, "value": 0}, "group": "control_change"}, {"time": 1120, "annotation": {"number": 64, "value": 127}, "group": "control_change"}, {"time": 1141, "annotation": {"number": 64, "value": 0}, "group": "control_change"}, {"time": 1142, "annotation": {"number": 64, "value": 127}, "group": "control_change"}, {"time": 1166, "annotation": {"number": 64, "value": 0}, "group": "control_change"}, {"time": 1169, "annotation": {"number": 64, "value": 127}, "group": "control_change"}, {"time": 1189, "annotation": {"number": 64, "value": 0}, "group": "control_change"}, {"time": 1190, "annotation": {"number": 64, "value": 127}, "group": "control_change"}, {"time": 1201, "annotation": {"number": 64, "value": 0}, "group": "control_change"}, {"time": 1204, "annotation": {"number": 64, "value": 127}, "group": "control_change"}, {"time": 1214, "annotation": {"number": 64, "value": 0}, "group": "control_change"}, {"time": 1216, "annotation": {"number": 64, "value": 127}, "group": "control_change"}, {"time": 1236, "annotation": {"number": 64, "value": 0}, "group": "control_change"}, {"time": 1238, "annotation": {"number": 64, "value": 127}, "group": "control_change"}, {"time": 1263, "annotation": {"number": 64, "value": 0}, "group": "control_change"}, {"time": 1287, "annotation": {"number": 64, "value": 127}, "group": "control_change"}, {"time": 1310, "annotation": {"number": 64, "value": 0}, "group": "control_change"}, {"time": 1314, "annotation": {"number": 64, "value": 127}, "group": "control_change"}, {"time": 1335, "annotation": {"number": 64, "value": 0}, "group": "control_change"}, {"time": 1338, "annotation": {"number": 64, "value": 127}, "group": "control_change"}, {"time": 1359, "annotation": {"number": 64, "value": 0}, "group": "control_change"}, {"time": 1362, "annotation": {"number": 64, "value": 127}, "group": "control_change"}, {"time": 1381, "annotation": {"number": 64, "value": 0}, "group": "control_change"}, {"time": 1384, "annotation": {"number": 64, "value": 127}, "group": "control_change"}, {"time": 1406, "annotation": {"number": 64, "value": 0}, "group": "control_change"}, {"time": 1408, "annotation": {"number": 64, "value": 127}, "group": "control_change"}, {"time": 1430, "annotation": {"number": 64, "value": 0}, "group": "control_change"}, {"time": 1432, "annotation": {"number": 64, "value": 127}, "group": "control_change"}, {"time": 1453, "annotation": {"number": 64, "value": 0}, "group": "control_change"}, {"time": 1458, "annotation": {"number": 64, "value": 127}, "group": "control_change"}, {"time": 1476, "annotation": {"number": 64, "value": 0}, "group": "control_change"}, {"time": 1479, "annotation": {"number": 64, "value": 127}, "group": "control_change"}, {"time": 1502, "annotation": {"number": 64, "value": 0}, "group": "control_change"}, {"time": 1506, "annotation": {"number": 64, "value": 127}, "group": "control_change"}, {"time": 1527, "annotation": {"number": 64, "value": 0}, "group": "control_change"}, {"time": 1530, "annotation": {"number": 64, "value": 127}, "group": "control_change"}, {"time": 1551, "annotation": {"number": 64, "value": 0}, "group": "control_change"}, {"time": 1554, "annotation": {"number": 64, "value": 127}, "group": "control_change"}, {"time": 1573, "annotation": {"number": 64, "value": 0}, "group": "control_change"}, {"time": 1576, "annotation": {"number": 64, "value": 127}, "group": "control_change"}, {"time": 1598, "annotation": {"number": 64, "value": 0}, "group": "control_change"}, {"time": 1600, "annotation": {"number": 64, "value": 127}, "group": "control_change"}, {"time": 1622, "annotation": {"number": 64, "value": 0}, "group": "control_change"}, {"time": 1624, "annotation": {"number": 64, "value": 127}, "group": "control_change"}, {"time": 1645, "annotation": {"number": 64, "value": 0}, "group": "control_change"}, {"time": 1650, "annotation": {"number": 64, "value": 127}, "group": "control_change"}, {"time": 1668, "annotation": {"number": 64, "value": 0}, "group": "control_change"}, {"time": 1671, "annotation": {"number": 64, "value": 127}, "group": "control_change"}, {"time": 1694, "annotation": {"number": 64, "value": 0}, "group": "control_change"}, {"time": 1695, "annotation": {"number": 64, "value": 127}, "group": "control_change"}, {"time": 1717, "annotation": {"number": 64, "value": 0}, "group": "control_change"}, {"time": 1718, "annotation": {"number": 64, "value": 127}, "group": "control_change"}, {"time": 1740, "annotation": {"number": 64, "value": 0}, "group": "control_change"}, {"time": 1747, "annotation": {"number": 64, "value": 127}, "group": "control_change"}, {"time": 1766, "annotation": {"number": 64, "value": 0}, "group": "control_change"}, {"time": 1771, "annotation": {"number": 64, "value": 127}, "group": "control_change"}, {"time": 1790, "annotation": {"number": 64, "value": 0}, "group": "control_change"}, {"time": 1791, "annotation": {"number": 64, "value": 127}, "group": "control_change"}, {"time": 1802, "annotation": {"number": 64, "value": 0}, "group": "control_change"}, {"time": 1806, "annotation": {"number": 64, "value": 127}, "group": "control_change"}, {"time": 1808, "annotation": {"number": 64, "value": 127}, "group": "control_change"}, {"time": 1812, "annotation": {"number": 64, "value": 0}, "group": "control_change"}, {"time": 1814, "annotation": {"number": 64, "value": 127}, "group": "control_change"}, {"time": 1837, "annotation": {"number": 64, "value": 0}, "group": "control_change"}, {"time": 1840, "annotation": {"number": 64, "value": 127}, "group": "control_change"}, {"time": 1857, "annotation": {"number": 64, "value": 127}, "group": "control_change"}, {"time": 1859, "annotation": {"number": 64, "value": 0}, "group": "control_change"}, {"time": 1861, "annotation": {"number": 64, "value": 0}, "group": "control_change"}, {"time": 1863, "annotation": {"number": 64, "value": 127}, "group": "control_change"}, {"time": 1886, "annotation": {"number": 64, "value": 0}, "group": "control_change"}, {"time": 1887, "annotation": {"number": 64, "value": 127}, "group": "control_change"}, {"time": 1909, "annotation": {"number": 64, "value": 0}, "group": "control_change"}, {"time": 1910, "annotation": {"number": 64, "value": 127}, "group": "control_change"}, {"time": 1932, "annotation": {"number": 64, "value": 0}, "group": "control_change"}, {"time": 1939, "annotation": {"number": 64, "value": 127}, "group": "control_change"}, {"time": 1958, "annotation": {"number": 64, "value": 0}, "group": "control_change"}, {"time": 1963, "annotation": {"number": 64, "value": 127}, "group": "control_change"}, {"time": 1982, "annotation": {"number": 64, "value": 0}, "group": "control_change"}, {"time": 1983, "annotation": {"number": 64, "value": 127}, "group": "control_change"}, {"time": 1994, "annotation": {"number": 64, "value": 0}, "group": "control_change"}, {"time": 1998, "annotation": {"number": 64, "value": 127}, "group": "control_change"}, {"time": 2000, "annotation": {"number": 64, "value": 127}, "group": "control_change"}, {"time": 2004, "annotation": {"number": 64, "value": 0}, "group": "control_change"}, {"time": 2006, "annotation": {"number": 64, "value": 127}, "group": "control_change"}, {"time": 2029, "annotation": {"number": 64, "value": 0}, "group": "control_change"}, {"time": 2032, "annotation": {"number": 64, "value": 127}, "group": "control_change"}, {"time": 2043, "annotation": {"number": 64, "value": 127}, "group": "control_change"}, {"time": 2049, "annotation": {"number": 64, "value": 127}, "group": "control_change"}, {"time": 2051, "annotation": {"number": 64, "value": 0}, "group": "control_change"}, {"time": 2053, "annotation": {"number": 64, "value": 0}, "group": "control_change"}, {"time": 2055, "annotation": {"number": 64, "value": 127}, "group": "control_change"}, {"time": 2078, "annotation": {"number": 64, "value": 0}, "group": "control_change"}, {"time": 2079, "annotation": {"number": 64, "value": 127}, "group": "control_change"}, {"time": 2101, "annotation": {"number": 64, "value": 0}, "group": "control_change"}, {"time": 2102, "annotation": {"number": 64, "value": 127}, "group": "control_change"}, {"time": 2124, "annotation": {"number": 64, "value": 0}, "group": "control_change"}, {"time": 2131, "annotation": {"number": 64, "value": 127}, "group": "control_change"}, {"time": 2150, "annotation": {"number": 64, "value": 0}, "group": "control_change"}, {"time": 2155, "annotation": {"number": 64, "value": 127}, "group": "control_change"}, {"time": 2174, "annotation": {"number": 64, "value": 0}, "group": "control_change"}, {"time": 2175, "annotation": {"number": 64, "value": 127}, "group": "control_change"}, {"time": 2186, "annotation": {"number": 64, "value": 0}, "group": "control_change"}, {"time": 2190, "annotation": {"number": 64, "value": 127}, "group": "control_change"}, {"time": 2192, "annotation": {"number": 64, "value": 127}, "group": "control_change"}, {"time": 2196, "annotation": {"number": 64, "value": 0}, "group": "control_change"}, {"time": 2198, "annotation": {"number": 64, "value": 127}, "group": "control_change"}, {"time": 2221, "annotation": {"number": 64, "value": 0}, "group": "control_change"}, {"time": 2224, "annotation": {"number": 64, "value": 127}, "group": "control_change"}, {"time": 2241, "annotation": {"number": 64, "value": 127}, "group": "control_change"}, {"time": 2243, "annotation": {"number": 64, "value": 0}, "group": "control_change"}, {"time": 2245, "annotation": {"number": 64, "value": 0}, "group": "control_change"}, {"time": 2247, "annotation": {"number": 64, "value": 127}, "group": "control_change"}, {"time": 2270, "annotation": {"number": 64, "value": 0}, "group": "control_change"}, {"time": 2271, "annotation": {"number": 64, "value": 127}, "group": "control_change"}, {"time": 2293, "annotation": {"number": 64, "value": 0}, "group": "control_change"}, {"time": 2294, "annotation": {"number": 64, "value": 127}, "group": "control_change"}, {"time": 2316, "annotation": {"number": 64, "value": 0}, "group": "control_change"}, {"time": 2323, "annotation": {"number": 64, "value": 127}, "group": "control_change"}, {"time": 2342, "annotation": {"number": 64, "value": 0}, "group": "control_change"}, {"time": 2347, "annotation": {"number": 64, "value": 127}, "group": "control_change"}, {"time": 2366, "annotation": {"number": 64, "value": 0}, "group": "control_change"}, {"time": 2367, "annotation": {"number": 64, "value": 127}, "group": "control_change"}, {"time": 2378, "annotation": {"number": 64, "value": 0}, "group": "control_change"}, {"time": 2382, "annotation": {"number": 64, "value": 127}, "group": "control_change"}, {"time": 2384, "annotation": {"number": 64, "value": 127}, "group": "control_change"}, {"time": 2388, "annotation": {"number": 64, "value": 0}, "group": "control_change"}, {"time": 2390, "annotation": {"number": 64, "value": 127}, "group": "control_change"}, {"time": 2413, "annotation": {"number": 64, "value": 0}, "group": "control_change"}, {"time": 2416, "annotation": {"number": 64, "value": 127}, "group": "control_change"}, {"time": 2433, "annotation": {"number": 64, "value": 127}, "group": "control_change"}, {"time": 2435, "annotation": {"number": 64, "value": 0}, "group": "control_change"}, {"time": 2437, "annotation": {"number": 64, "value": 0}, "group": "control_change"}, {"time": 2439, "annotation": {"number": 64, "value": 127}, "group": "control_change"}, {"time": 2461, "annotation": {"number": 64, "value": 0}, "group": "control_change"}, {"time": 2464, "annotation": {"number": 64, "value": 127}, "group": "control_change"}, {"time": 2488, "annotation": {"number": 64, "value": 0}, "group": "control_change"}, {"time": 2491, "annotation": {"number": 64, "value": 127}, "group": "control_change"}, {"time": 2509, "annotation": {"number": 64, "value": 0}, "group": "control_change"}, {"time": 2512, "annotation": {"number": 64, "value": 127}, "group": "control_change"}, {"time": 2533, "annotation": {"number": 64, "value": 0}, "group": "control_change"}, {"time": 2534, "annotation": {"number": 64, "value": 127}, "group": "control_change"}, {"time": 2558, "annotation": {"number": 64, "value": 0}, "group": "control_change"}, {"time": 2561, "annotation": {"number": 64, "value": 127}, "group": "control_change"}, {"time": 2581, "annotation": {"number": 64, "value": 0}, "group": "control_change"}, {"time": 2582, "annotation": {"number": 64, "value": 127}, "group": "control_change"}, {"time": 2593, "annotation": {"number": 64, "value": 0}, "group": "control_change"}, {"time": 2596, "annotation": {"number": 64, "value": 127}, "group": "control_change"}, {"time": 2606, "annotation": {"number": 64, "value": 0}, "group": "control_change"}, {"time": 2608, "annotation": {"number": 64, "value": 127}, "group": "control_change"}, {"time": 2628, "annotation": {"number": 64, "value": 0}, "group": "control_change"}, {"time": 2630, "annotation": {"number": 64, "value": 127}, "group": "control_change"}, {"time": 2655, "annotation": {"number": 64, "value": 0}, "group": "control_change"}, {"time": 2677, "annotation": {"number": 64, "value": 127}, "group": "control_change"}, {"time": 2775, "annotation": {"number": 64, "value": 0}, "group": "control_change"}]}]}