{"metadata": {"schema_version": "0.2", "title": "None", "source_filename": "404.mid", "source_format": "midi"}, "resolution": 12, "tempos": [{"time": 0, "qpm": 92.00012880018032}], "time_signatures": [{"time": 0, "numerator": 1, "denominator": 4}], "tracks": [{"program": 0, "is_drum": false, "name": "MELODY", "notes": [{"time": 449, "pitch": 63, "duration": 4, "velocity": 94}, {"time": 455, "pitch": 63, "duration": 3, "velocity": 93}, {"time": 461, "pitch": 63, "duration": 5, "velocity": 93}, {"time": 467, "pitch": 65, "duration": 5, "velocity": 94}, {"time": 473, "pitch": 68, "duration": 17, "velocity": 89}, {"time": 491, "pitch": 65, "duration": 5, "velocity": 94}, {"time": 497, "pitch": 63, "duration": 38, "velocity": 93}, {"time": 545, "pitch": 63, "duration": 4, "velocity": 94}, {"time": 551, "pitch": 63, "duration": 3, "velocity": 93}, {"time": 557, "pitch": 63, "duration": 4, "velocity": 94}, {"time": 563, "pitch": 65, "duration": 4, "velocity": 96}, {"time": 569, "pitch": 75, "duration": 7, "velocity": 96}, {"time": 578, "pitch": 72, "duration": 6, "velocity": 93}, {"time": 587, "pitch": 68, "duration": 5, "velocity": 92}, {"time": 593, "pitch": 70, "duration": 27, "velocity": 90}, {"time": 629, "pitch": 70, "duration": 4, "velocity": 90}, {"time": 635, "pitch": 72, "duration": 4, "velocity": 95}, {"time": 641, "pitch": 75, "duration": 15, "velocity": 99}, {"time": 659, "pitch": 77, "duration": 4, "velocity": 94}, {"time": 665, "pitch": 77, "duration": 4, "velocity": 98}, {"time": 671, "pitch": 75, "duration": 3, "velocity": 98}, {"time": 677, "pitch": 72, "duration": 4, "velocity": 98}, {"time": 683, "pitch": 75, "duration": 4, "velocity": 97}, {"time": 689, "pitch": 70, "duration": 15, "velocity": 96}, {"time": 707, "pitch": 68, "duration": 5, "velocity": 88}, {"time": 713, "pitch": 65, "duration": 14, "velocity": 98}, {"time": 737, "pitch": 70, "duration": 3, "velocity": 96}, {"time": 743, "pitch": 70, "duration": 3, "velocity": 93}, {"time": 749, "pitch": 70, "duration": 3, "velocity": 93}, {"time": 755, "pitch": 72, "duration": 4, "velocity": 94}, {"time": 761, "pitch": 70, "duration": 9, "velocity": 96}, {"time": 773, "pitch": 68, "duration": 4, "velocity": 92}, {"time": 779, "pitch": 65, "duration": 4, "velocity": 97}, {"time": 785, "pitch": 63, "duration": 38, "velocity": 96}, {"time": 833, "pitch": 63, "duration": 4, "velocity": 94}, {"time": 839, "pitch": 63, "duration": 3, "velocity": 93}, {"time": 845, "pitch": 63, "duration": 5, "velocity": 93}, {"time": 851, "pitch": 65, "duration": 5, "velocity": 94}, {"time": 857, "pitch": 68, "duration": 17, "velocity": 89}, {"time": 875, "pitch": 65, "duration": 5, "velocity": 94}, {"time": 881, "pitch": 63, "duration": 38, "velocity": 93}, {"time": 929, "pitch": 63, "duration": 4, "velocity": 94}, {"time": 935, "pitch": 63, "duration": 3, "velocity": 93}, {"time": 941, "pitch": 63, "duration": 4, "velocity": 94}, {"time": 947, "pitch": 65, "duration": 4, "velocity": 96}, {"time": 953, "pitch": 75, "duration": 7, "velocity": 96}, {"time": 962, "pitch": 72, "duration": 6, "velocity": 93}, {"time": 971, "pitch": 68, "duration": 5, "velocity": 92}, {"time": 977, "pitch": 70, "duration": 27, "velocity": 90}, {"time": 1013, "pitch": 70, "duration": 4, "velocity": 90}, {"time": 1019, "pitch": 72, "duration": 4, "velocity": 95}, {"time": 1025, "pitch": 75, "duration": 6, "velocity": 99}, {"time": 1031, "pitch": 75, "duration": 9, "velocity": 99}, {"time": 1043, "pitch": 77, "duration": 4, "velocity": 94}, {"time": 1049, "pitch": 77, "duration": 4, "velocity": 98}, {"time": 1055, "pitch": 75, "duration": 3, "velocity": 98}, {"time": 1061, "pitch": 72, "duration": 4, "velocity": 98}, {"time": 1067, "pitch": 75, "duration": 4, "velocity": 97}, {"time": 1073, "pitch": 70, "duration": 15, "velocity": 96}, {"time": 1091, "pitch": 68, "duration": 5, "velocity": 88}, {"time": 1097, "pitch": 65, "duration": 14, "velocity": 98}, {"time": 1121, "pitch": 70, "duration": 3, "velocity": 96}, {"time": 1127, "pitch": 70, "duration": 3, "velocity": 93}, {"time": 1133, "pitch": 70, "duration": 3, "velocity": 93}, {"time": 1139, "pitch": 72, "duration": 4, "velocity": 94}, {"time": 1145, "pitch": 70, "duration": 9, "velocity": 96}, {"time": 1157, "pitch": 68, "duration": 4, "velocity": 92}, {"time": 1163, "pitch": 65, "duration": 4, "velocity": 97}, {"time": 1169, "pitch": 68, "duration": 38, "velocity": 96}, {"time": 1217, "pitch": 75, "duration": 4, "velocity": 108}, {"time": 1223, "pitch": 75, "duration": 9, "velocity": 103}, {"time": 1235, "pitch": 77, "duration": 4, "velocity": 97}, {"time": 1241, "pitch": 80, "duration": 10, "velocity": 94}, {"time": 1253, "pitch": 77, "duration": 10, "velocity": 98}, {"time": 1265, "pitch": 75, "duration": 37, "velocity": 99}, {"time": 1313, "pitch": 77, "duration": 4, "velocity": 96}, {"time": 1319, "pitch": 77, "duration": 3, "velocity": 93}, {"time": 1325, "pitch": 77, "duration": 4, "velocity": 96}, {"time": 1331, "pitch": 75, "duration": 4, "velocity": 98}, {"time": 1337, "pitch": 72, "duration": 10, "velocity": 98}, {"time": 1349, "pitch": 65, "duration": 4, "velocity": 96}, {"time": 1355, "pitch": 68, "duration": 4, "velocity": 93}, {"time": 1361, "pitch": 70, "duration": 30, "velocity": 93}, {"time": 1397, "pitch": 70, "duration": 4, "velocity": 98}, {"time": 1403, "pitch": 72, "duration": 4, "velocity": 98}, {"time": 1409, "pitch": 75, "duration": 4, "velocity": 97}, {"time": 1415, "pitch": 75, "duration": 3, "velocity": 101}, {"time": 1421, "pitch": 75, "duration": 3, "velocity": 96}, {"time": 1427, "pitch": 72, "duration": 4, "velocity": 93}, {"time": 1433, "pitch": 70, "duration": 4, "velocity": 96}, {"time": 1439, "pitch": 72, "duration": 9, "velocity": 96}, {"time": 1451, "pitch": 67, "duration": 4, "velocity": 93}, {"time": 1457, "pitch": 65, "duration": 30, "velocity": 96}, {"time": 1493, "pitch": 65, "duration": 4, "velocity": 103}, {"time": 1499, "pitch": 68, "duration": 4, "velocity": 93}, {"time": 1505, "pitch": 70, "duration": 4, "velocity": 94}, {"time": 1511, "pitch": 70, "duration": 4, "velocity": 94}, {"time": 1517, "pitch": 70, "duration": 4, "velocity": 94}, {"time": 1523, "pitch": 72, "duration": 4, "velocity": 94}, {"time": 1529, "pitch": 70, "duration": 5, "velocity": 95}, {"time": 1535, "pitch": 80, "duration": 10, "velocity": 94}, {"time": 1547, "pitch": 77, "duration": 4, "velocity": 94}, {"time": 1553, "pitch": 75, "duration": 35, "velocity": 99}, {"time": 1601, "pitch": 75, "duration": 3, "velocity": 98}, {"time": 1607, "pitch": 75, "duration": 9, "velocity": 108}, {"time": 1619, "pitch": 77, "duration": 4, "velocity": 96}, {"time": 1625, "pitch": 80, "duration": 10, "velocity": 92}, {"time": 1637, "pitch": 77, "duration": 11, "velocity": 93}, {"time": 1649, "pitch": 75, "duration": 33, "velocity": 94}, {"time": 1697, "pitch": 77, "duration": 3, "velocity": 93}, {"time": 1703, "pitch": 77, "duration": 3, "velocity": 93}, {"time": 1709, "pitch": 77, "duration": 4, "velocity": 99}, {"time": 1715, "pitch": 75, "duration": 4, "velocity": 96}, {"time": 1721, "pitch": 72, "duration": 9, "velocity": 96}, {"time": 1733, "pitch": 65, "duration": 4, "velocity": 99}, {"time": 1739, "pitch": 68, "duration": 5, "velocity": 94}, {"time": 1745, "pitch": 70, "duration": 36, "velocity": 93}, {"time": 1781, "pitch": 70, "duration": 5, "velocity": 94}, {"time": 1787, "pitch": 72, "duration": 4, "velocity": 94}, {"time": 1793, "pitch": 75, "duration": 4, "velocity": 94}, {"time": 1799, "pitch": 75, "duration": 3, "velocity": 94}, {"time": 1805, "pitch": 75, "duration": 4, "velocity": 96}, {"time": 1811, "pitch": 72, "duration": 4, "velocity": 95}, {"time": 1817, "pitch": 70, "duration": 5, "velocity": 96}, {"time": 1823, "pitch": 72, "duration": 10, "velocity": 93}, {"time": 1835, "pitch": 67, "duration": 5, "velocity": 93}, {"time": 1841, "pitch": 65, "duration": 31, "velocity": 94}, {"time": 1877, "pitch": 65, "duration": 4, "velocity": 96}, {"time": 1883, "pitch": 68, "duration": 5, "velocity": 93}, {"time": 1889, "pitch": 70, "duration": 4, "velocity": 93}, {"time": 1895, "pitch": 70, "duration": 3, "velocity": 94}, {"time": 1901, "pitch": 70, "duration": 4, "velocity": 93}, {"time": 1907, "pitch": 68, "duration": 4, "velocity": 94}, {"time": 1913, "pitch": 70, "duration": 4, "velocity": 96}, {"time": 1919, "pitch": 80, "duration": 9, "velocity": 92}, {"time": 1931, "pitch": 77, "duration": 5, "velocity": 92}, {"time": 1937, "pitch": 75, "duration": 28, "velocity": 96}, {"time": 1973, "pitch": 65, "duration": 3, "velocity": 108}, {"time": 1979, "pitch": 68, "duration": 3, "velocity": 93}, {"time": 1985, "pitch": 70, "duration": 4, "velocity": 93}, {"time": 1991, "pitch": 70, "duration": 3, "velocity": 92}, {"time": 1997, "pitch": 70, "duration": 4, "velocity": 93}, {"time": 2003, "pitch": 72, "duration": 5, "velocity": 93}, {"time": 2009, "pitch": 75, "duration": 5, "velocity": 98}, {"time": 2015, "pitch": 72, "duration": 8, "velocity": 93}, {"time": 2027, "pitch": 70, "duration": 6, "velocity": 94}, {"time": 2033, "pitch": 68, "duration": 46, "velocity": 92}, {"time": 2465, "pitch": 63, "duration": 4, "velocity": 94}, {"time": 2471, "pitch": 63, "duration": 3, "velocity": 93}, {"time": 2477, "pitch": 63, "duration": 5, "velocity": 93}, {"time": 2483, "pitch": 65, "duration": 5, "velocity": 94}, {"time": 2489, "pitch": 68, "duration": 17, "velocity": 89}, {"time": 2507, "pitch": 65, "duration": 5, "velocity": 94}, {"time": 2513, "pitch": 63, "duration": 38, "velocity": 93}, {"time": 2561, "pitch": 63, "duration": 4, "velocity": 94}, {"time": 2567, "pitch": 63, "duration": 3, "velocity": 93}, {"time": 2573, "pitch": 63, "duration": 4, "velocity": 94}, {"time": 2579, "pitch": 65, "duration": 4, "velocity": 96}, {"time": 2585, "pitch": 75, "duration": 7, "velocity": 96}, {"time": 2594, "pitch": 72, "duration": 6, "velocity": 93}, {"time": 2603, "pitch": 68, "duration": 5, "velocity": 92}, {"time": 2609, "pitch": 70, "duration": 27, "velocity": 90}, {"time": 2645, "pitch": 70, "duration": 4, "velocity": 90}, {"time": 2651, "pitch": 72, "duration": 4, "velocity": 95}, {"time": 2657, "pitch": 75, "duration": 15, "velocity": 99}, {"time": 2675, "pitch": 77, "duration": 4, "velocity": 94}, {"time": 2681, "pitch": 77, "duration": 4, "velocity": 98}, {"time": 2687, "pitch": 75, "duration": 3, "velocity": 98}, {"time": 2693, "pitch": 72, "duration": 4, "velocity": 98}, {"time": 2699, "pitch": 75, "duration": 4, "velocity": 97}, {"time": 2705, "pitch": 70, "duration": 15, "velocity": 96}, {"time": 2723, "pitch": 68, "duration": 5, "velocity": 88}, {"time": 2729, "pitch": 65, "duration": 14, "velocity": 98}, {"time": 2753, "pitch": 70, "duration": 3, "velocity": 96}, {"time": 2759, "pitch": 70, "duration": 3, "velocity": 93}, {"time": 2765, "pitch": 70, "duration": 3, "velocity": 93}, {"time": 2771, "pitch": 72, "duration": 4, "velocity": 94}, {"time": 2777, "pitch": 70, "duration": 9, "velocity": 96}, {"time": 2789, "pitch": 68, "duration": 4, "velocity": 92}, {"time": 2795, "pitch": 65, "duration": 4, "velocity": 97}, {"time": 2801, "pitch": 63, "duration": 38, "velocity": 96}, {"time": 2849, "pitch": 63, "duration": 4, "velocity": 94}, {"time": 2855, "pitch": 63, "duration": 3, "velocity": 93}, {"time": 2861, "pitch": 63, "duration": 5, "velocity": 93}, {"time": 2867, "pitch": 65, "duration": 5, "velocity": 94}, {"time": 2873, "pitch": 68, "duration": 17, "velocity": 89}, {"time": 2891, "pitch": 65, "duration": 5, "velocity": 94}, {"time": 2897, "pitch": 63, "duration": 38, "velocity": 93}, {"time": 2945, "pitch": 63, "duration": 4, "velocity": 94}, {"time": 2951, "pitch": 63, "duration": 3, "velocity": 93}, {"time": 2957, "pitch": 63, "duration": 4, "velocity": 94}, {"time": 2963, "pitch": 65, "duration": 4, "velocity": 96}, {"time": 2969, "pitch": 75, "duration": 7, "velocity": 96}, {"time": 2978, "pitch": 72, "duration": 6, "velocity": 93}, {"time": 2987, "pitch": 68, "duration": 5, "velocity": 92}, {"time": 2993, "pitch": 70, "duration": 27, "velocity": 90}, {"time": 3029, "pitch": 70, "duration": 4, "velocity": 90}, {"time": 3035, "pitch": 72, "duration": 4, "velocity": 95}, {"time": 3041, "pitch": 75, "duration": 18, "velocity": 99}, {"time": 3059, "pitch": 77, "duration": 4, "velocity": 94}, {"time": 3065, "pitch": 77, "duration": 4, "velocity": 98}, {"time": 3071, "pitch": 75, "duration": 3, "velocity": 98}, {"time": 3077, "pitch": 72, "duration": 4, "velocity": 98}, {"time": 3083, "pitch": 75, "duration": 4, "velocity": 97}, {"time": 3089, "pitch": 70, "duration": 15, "velocity": 96}, {"time": 3107, "pitch": 68, "duration": 5, "velocity": 88}, {"time": 3113, "pitch": 65, "duration": 14, "velocity": 98}, {"time": 3137, "pitch": 70, "duration": 3, "velocity": 96}, {"time": 3143, "pitch": 70, "duration": 3, "velocity": 93}, {"time": 3149, "pitch": 70, "duration": 3, "velocity": 93}, {"time": 3155, "pitch": 72, "duration": 4, "velocity": 94}, {"time": 3161, "pitch": 70, "duration": 9, "velocity": 96}, {"time": 3173, "pitch": 68, "duration": 4, "velocity": 92}, {"time": 3179, "pitch": 65, "duration": 4, "velocity": 97}, {"time": 3185, "pitch": 68, "duration": 38, "velocity": 96}, {"time": 3233, "pitch": 75, "duration": 4, "velocity": 108}, {"time": 3239, "pitch": 75, "duration": 9, "velocity": 103}, {"time": 3251, "pitch": 77, "duration": 4, "velocity": 97}, {"time": 3257, "pitch": 80, "duration": 10, "velocity": 94}, {"time": 3269, "pitch": 77, "duration": 10, "velocity": 98}, {"time": 3281, "pitch": 75, "duration": 37, "velocity": 99}, {"time": 3329, "pitch": 77, "duration": 4, "velocity": 96}, {"time": 3335, "pitch": 77, "duration": 3, "velocity": 93}, {"time": 3341, "pitch": 77, "duration": 4, "velocity": 96}, {"time": 3347, "pitch": 75, "duration": 4, "velocity": 98}, {"time": 3353, "pitch": 72, "duration": 10, "velocity": 98}, {"time": 3365, "pitch": 65, "duration": 4, "velocity": 96}, {"time": 3371, "pitch": 68, "duration": 4, "velocity": 93}, {"time": 3377, "pitch": 70, "duration": 30, "velocity": 93}, {"time": 3413, "pitch": 70, "duration": 4, "velocity": 98}, {"time": 3419, "pitch": 72, "duration": 4, "velocity": 98}, {"time": 3425, "pitch": 75, "duration": 4, "velocity": 97}, {"time": 3431, "pitch": 75, "duration": 3, "velocity": 101}, {"time": 3437, "pitch": 75, "duration": 3, "velocity": 96}, {"time": 3443, "pitch": 72, "duration": 4, "velocity": 93}, {"time": 3449, "pitch": 70, "duration": 4, "velocity": 96}, {"time": 3455, "pitch": 72, "duration": 9, "velocity": 96}, {"time": 3467, "pitch": 67, "duration": 4, "velocity": 93}, {"time": 3473, "pitch": 65, "duration": 30, "velocity": 96}, {"time": 3509, "pitch": 65, "duration": 4, "velocity": 103}, {"time": 3515, "pitch": 68, "duration": 4, "velocity": 93}, {"time": 3521, "pitch": 70, "duration": 4, "velocity": 94}, {"time": 3527, "pitch": 70, "duration": 4, "velocity": 94}, {"time": 3533, "pitch": 70, "duration": 4, "velocity": 94}, {"time": 3539, "pitch": 72, "duration": 4, "velocity": 94}, {"time": 3545, "pitch": 70, "duration": 5, "velocity": 95}, {"time": 3551, "pitch": 80, "duration": 10, "velocity": 94}, {"time": 3563, "pitch": 77, "duration": 4, "velocity": 94}, {"time": 3569, "pitch": 75, "duration": 35, "velocity": 99}, {"time": 3617, "pitch": 75, "duration": 3, "velocity": 98}, {"time": 3623, "pitch": 75, "duration": 9, "velocity": 108}, {"time": 3635, "pitch": 77, "duration": 4, "velocity": 96}, {"time": 3641, "pitch": 80, "duration": 10, "velocity": 92}, {"time": 3653, "pitch": 77, "duration": 11, "velocity": 93}, {"time": 3665, "pitch": 75, "duration": 33, "velocity": 94}, {"time": 3713, "pitch": 77, "duration": 3, "velocity": 93}, {"time": 3719, "pitch": 77, "duration": 3, "velocity": 93}, {"time": 3725, "pitch": 77, "duration": 4, "velocity": 99}, {"time": 3731, "pitch": 75, "duration": 4, "velocity": 96}, {"time": 3737, "pitch": 72, "duration": 9, "velocity": 96}, {"time": 3749, "pitch": 65, "duration": 4, "velocity": 99}, {"time": 3755, "pitch": 68, "duration": 5, "velocity": 94}, {"time": 3761, "pitch": 70, "duration": 36, "velocity": 93}, {"time": 3797, "pitch": 70, "duration": 5, "velocity": 94}, {"time": 3803, "pitch": 72, "duration": 4, "velocity": 94}, {"time": 3809, "pitch": 75, "duration": 4, "velocity": 94}, {"time": 3815, "pitch": 75, "duration": 3, "velocity": 94}, {"time": 3821, "pitch": 75, "duration": 4, "velocity": 96}, {"time": 3827, "pitch": 72, "duration": 4, "velocity": 95}, {"time": 3833, "pitch": 70, "duration": 5, "velocity": 96}, {"time": 3839, "pitch": 72, "duration": 10, "velocity": 93}, {"time": 3851, "pitch": 67, "duration": 5, "velocity": 93}, {"time": 3857, "pitch": 65, "duration": 31, "velocity": 94}, {"time": 3893, "pitch": 65, "duration": 4, "velocity": 96}, {"time": 3899, "pitch": 68, "duration": 5, "velocity": 93}, {"time": 3905, "pitch": 70, "duration": 4, "velocity": 93}, {"time": 3911, "pitch": 70, "duration": 3, "velocity": 94}, {"time": 3917, "pitch": 70, "duration": 4, "velocity": 93}, {"time": 3923, "pitch": 68, "duration": 4, "velocity": 94}, {"time": 3929, "pitch": 70, "duration": 4, "velocity": 96}, {"time": 3935, "pitch": 80, "duration": 9, "velocity": 92}, {"time": 3947, "pitch": 77, "duration": 5, "velocity": 92}, {"time": 3953, "pitch": 75, "duration": 28, "velocity": 96}, {"time": 3989, "pitch": 65, "duration": 3, "velocity": 108}, {"time": 3995, "pitch": 68, "duration": 3, "velocity": 93}, {"time": 4001, "pitch": 70, "duration": 4, "velocity": 93}, {"time": 4007, "pitch": 70, "duration": 3, "velocity": 92}, {"time": 4013, "pitch": 70, "duration": 4, "velocity": 93}, {"time": 4019, "pitch": 72, "duration": 5, "velocity": 93}, {"time": 4025, "pitch": 75, "duration": 5, "velocity": 98}, {"time": 4031, "pitch": 72, "duration": 8, "velocity": 93}, {"time": 4043, "pitch": 70, "duration": 6, "velocity": 94}, {"time": 4049, "pitch": 68, "duration": 30, "velocity": 92}, {"time": 4087, "pitch": 65, "duration": 4, "velocity": 101}, {"time": 4092, "pitch": 68, "duration": 5, "velocity": 92}, {"time": 4099, "pitch": 70, "duration": 3, "velocity": 90}, {"time": 4104, "pitch": 70, "duration": 4, "velocity": 90}, {"time": 4110, "pitch": 70, "duration": 4, "velocity": 94}, {"time": 4117, "pitch": 72, "duration": 6, "velocity": 94}, {"time": 4125, "pitch": 75, "duration": 5, "velocity": 99}, {"time": 4132, "pitch": 72, "duration": 8, "velocity": 94}, {"time": 4143, "pitch": 70, "duration": 30, "velocity": 93}, {"time": 4186, "pitch": 65, "duration": 16, "velocity": 99}, {"time": 4202, "pitch": 68, "duration": 78, "velocity": 92}]}, {"program": 0, "is_drum": false, "name": "PIANO", "notes": [{"time": 65, "pitch": 44, "duration": 39, "velocity": 88}, {"time": 65, "pitch": 63, "duration": 7, "velocity": 85}, {"time": 65, "pitch": 68, "duration": 12, "velocity": 84}, {"time": 71, "pitch": 51, "duration": 31, "velocity": 80}, {"time": 77, "pitch": 63, "duration": 8, "velocity": 88}, {"time": 83, "pitch": 68, "duration": 3, "velocity": 74}, {"time": 89, "pitch": 63, "duration": 4, "velocity": 87}, {"time": 89, "pitch": 72, "duration": 4, "velocity": 90}, {"time": 101, "pitch": 63, "duration": 1, "velocity": 72}, {"time": 101, "pitch": 68, "duration": 9, "velocity": 81}, {"time": 107, "pitch": 63, "duration": 5, "velocity": 75}, {"time": 113, "pitch": 53, "duration": 40, "velocity": 94}, {"time": 113, "pitch": 68, "duration": 8, "velocity": 85}, {"time": 119, "pitch": 60, "duration": 7, "velocity": 81}, {"time": 125, "pitch": 65, "duration": 7, "velocity": 94}, {"time": 131, "pitch": 60, "duration": 8, "velocity": 81}, {"time": 137, "pitch": 65, "duration": 5, "velocity": 92}, {"time": 137, "pitch": 72, "duration": 5, "velocity": 89}, {"time": 143, "pitch": 60, "duration": 9, "velocity": 60}, {"time": 149, "pitch": 65, "duration": 2, "velocity": 88}, {"time": 149, "pitch": 68, "duration": 5, "velocity": 88}, {"time": 161, "pitch": 46, "duration": 36, "velocity": 93}, {"time": 161, "pitch": 58, "duration": 6, "velocity": 84}, {"time": 161, "pitch": 70, "duration": 7, "velocity": 90}, {"time": 167, "pitch": 53, "duration": 8, "velocity": 85}, {"time": 173, "pitch": 58, "duration": 7, "velocity": 81}, {"time": 173, "pitch": 65, "duration": 6, "velocity": 86}, {"time": 179, "pitch": 53, "duration": 9, "velocity": 71}, {"time": 185, "pitch": 58, "duration": 9, "velocity": 84}, {"time": 185, "pitch": 61, "duration": 7, "velocity": 79}, {"time": 191, "pitch": 53, "duration": 5, "velocity": 80}, {"time": 197, "pitch": 58, "duration": 2, "velocity": 90}, {"time": 197, "pitch": 65, "duration": 9, "velocity": 93}, {"time": 203, "pitch": 58, "duration": 5, "velocity": 85}, {"time": 209, "pitch": 51, "duration": 41, "velocity": 94}, {"time": 215, "pitch": 58, "duration": 19, "velocity": 81}, {"time": 221, "pitch": 63, "duration": 7, "velocity": 94}, {"time": 227, "pitch": 65, "duration": 3, "velocity": 96}, {"time": 233, "pitch": 63, "duration": 8, "velocity": 92}, {"time": 233, "pitch": 67, "duration": 5, "velocity": 93}, {"time": 239, "pitch": 58, "duration": 9, "velocity": 82}, {"time": 245, "pitch": 63, "duration": 3, "velocity": 89}, {"time": 245, "pitch": 67, "duration": 8, "velocity": 92}, {"time": 245, "pitch": 70, "duration": 11, "velocity": 92}, {"time": 251, "pitch": 63, "duration": 6, "velocity": 96}, {"time": 257, "pitch": 44, "duration": 38, "velocity": 88}, {"time": 257, "pitch": 63, "duration": 7, "velocity": 88}, {"time": 257, "pitch": 68, "duration": 10, "velocity": 85}, {"time": 263, "pitch": 51, "duration": 8, "velocity": 80}, {"time": 269, "pitch": 63, "duration": 8, "velocity": 103}, {"time": 275, "pitch": 51, "duration": 10, "velocity": 82}, {"time": 281, "pitch": 63, "duration": 1, "velocity": 78}, {"time": 281, "pitch": 68, "duration": 8, "velocity": 93}, {"time": 281, "pitch": 72, "duration": 8, "velocity": 93}, {"time": 287, "pitch": 63, "duration": 2, "velocity": 87}, {"time": 293, "pitch": 63, "duration": 3, "velocity": 88}, {"time": 293, "pitch": 68, "duration": 9, "velocity": 90}, {"time": 299, "pitch": 63, "duration": 2, "velocity": 80}, {"time": 305, "pitch": 53, "duration": 38, "velocity": 94}, {"time": 305, "pitch": 68, "duration": 13, "velocity": 87}, {"time": 311, "pitch": 60, "duration": 8, "velocity": 83}, {"time": 317, "pitch": 65, "duration": 9, "velocity": 98}, {"time": 323, "pitch": 60, "duration": 7, "velocity": 79}, {"time": 329, "pitch": 65, "duration": 4, "velocity": 96}, {"time": 329, "pitch": 72, "duration": 5, "velocity": 92}, {"time": 335, "pitch": 60, "duration": 7, "velocity": 77}, {"time": 341, "pitch": 65, "duration": 3, "velocity": 94}, {"time": 341, "pitch": 68, "duration": 5, "velocity": 94}, {"time": 347, "pitch": 65, "duration": 5, "velocity": 97}, {"time": 353, "pitch": 46, "duration": 15, "velocity": 92}, {"time": 353, "pitch": 65, "duration": 8, "velocity": 92}, {"time": 353, "pitch": 70, "duration": 8, "velocity": 88}, {"time": 359, "pitch": 53, "duration": 7, "velocity": 83}, {"time": 365, "pitch": 65, "duration": 2, "velocity": 97}, {"time": 365, "pitch": 73, "duration": 8, "velocity": 88}, {"time": 371, "pitch": 65, "duration": 4, "velocity": 89}, {"time": 377, "pitch": 51, "duration": 14, "velocity": 88}, {"time": 377, "pitch": 70, "duration": 9, "velocity": 92}, {"time": 383, "pitch": 58, "duration": 7, "velocity": 82}, {"time": 389, "pitch": 63, "duration": 4, "velocity": 95}, {"time": 395, "pitch": 65, "duration": 6, "velocity": 95}, {"time": 401, "pitch": 44, "duration": 45, "velocity": 92}, {"time": 401, "pitch": 68, "duration": 7, "velocity": 85}, {"time": 407, "pitch": 51, "duration": 38, "velocity": 78}, {"time": 413, "pitch": 56, "duration": 4, "velocity": 87}, {"time": 419, "pitch": 58, "duration": 2, "velocity": 93}, {"time": 425, "pitch": 60, "duration": 5, "velocity": 91}, {"time": 431, "pitch": 63, "duration": 8, "velocity": 95}, {"time": 437, "pitch": 68, "duration": 11, "velocity": 82}, {"time": 449, "pitch": 44, "duration": 44, "velocity": 91}, {"time": 455, "pitch": 51, "duration": 38, "velocity": 85}, {"time": 461, "pitch": 58, "duration": 4, "velocity": 86}, {"time": 467, "pitch": 60, "duration": 9, "velocity": 94}, {"time": 479, "pitch": 56, "duration": 4, "velocity": 86}, {"time": 479, "pitch": 63, "duration": 4, "velocity": 92}, {"time": 497, "pitch": 44, "duration": 47, "velocity": 91}, {"time": 503, "pitch": 51, "duration": 39, "velocity": 81}, {"time": 509, "pitch": 58, "duration": 5, "velocity": 83}, {"time": 515, "pitch": 56, "duration": 10, "velocity": 89}, {"time": 515, "pitch": 60, "duration": 10, "velocity": 88}, {"time": 527, "pitch": 56, "duration": 20, "velocity": 88}, {"time": 527, "pitch": 63, "duration": 22, "velocity": 92}, {"time": 545, "pitch": 44, "duration": 43, "velocity": 92}, {"time": 551, "pitch": 51, "duration": 37, "velocity": 83}, {"time": 557, "pitch": 58, "duration": 5, "velocity": 86}, {"time": 563, "pitch": 56, "duration": 10, "velocity": 88}, {"time": 563, "pitch": 60, "duration": 9, "velocity": 86}, {"time": 575, "pitch": 56, "duration": 5, "velocity": 88}, {"time": 575, "pitch": 60, "duration": 16, "velocity": 93}, {"time": 575, "pitch": 63, "duration": 18, "velocity": 92}, {"time": 593, "pitch": 51, "duration": 46, "velocity": 96}, {"time": 599, "pitch": 58, "duration": 15, "velocity": 78}, {"time": 605, "pitch": 63, "duration": 7, "velocity": 86}, {"time": 611, "pitch": 65, "duration": 10, "velocity": 95}, {"time": 617, "pitch": 58, "duration": 8, "velocity": 80}, {"time": 623, "pitch": 63, "duration": 7, "velocity": 92}, {"time": 623, "pitch": 67, "duration": 18, "velocity": 94}, {"time": 629, "pitch": 58, "duration": 10, "velocity": 85}, {"time": 635, "pitch": 63, "duration": 6, "velocity": 88}, {"time": 641, "pitch": 48, "duration": 39, "velocity": 92}, {"time": 647, "pitch": 60, "duration": 10, "velocity": 92}, {"time": 653, "pitch": 63, "duration": 7, "velocity": 93}, {"time": 659, "pitch": 67, "duration": 16, "velocity": 90}, {"time": 671, "pitch": 55, "duration": 8, "velocity": 57}, {"time": 677, "pitch": 60, "duration": 3, "velocity": 91}, {"time": 677, "pitch": 63, "duration": 9, "velocity": 94}, {"time": 683, "pitch": 60, "duration": 5, "velocity": 86}, {"time": 689, "pitch": 53, "duration": 22, "velocity": 95}, {"time": 689, "pitch": 65, "duration": 7, "velocity": 89}, {"time": 695, "pitch": 60, "duration": 12, "velocity": 82}, {"time": 701, "pitch": 65, "duration": 5, "velocity": 96}, {"time": 713, "pitch": 38, "duration": 20, "velocity": 83}, {"time": 713, "pitch": 62, "duration": 22, "velocity": 81}, {"time": 713, "pitch": 65, "duration": 22, "velocity": 91}, {"time": 713, "pitch": 68, "duration": 22, "velocity": 85}, {"time": 737, "pitch": 46, "duration": 44, "velocity": 92}, {"time": 737, "pitch": 58, "duration": 8, "velocity": 84}, {"time": 737, "pitch": 61, "duration": 13, "velocity": 85}, {"time": 743, "pitch": 53, "duration": 20, "velocity": 80}, {"time": 749, "pitch": 58, "duration": 5, "velocity": 92}, {"time": 755, "pitch": 58, "duration": 14, "velocity": 88}, {"time": 755, "pitch": 61, "duration": 14, "velocity": 92}, {"time": 767, "pitch": 53, "duration": 14, "velocity": 74}, {"time": 773, "pitch": 58, "duration": 4, "velocity": 91}, {"time": 773, "pitch": 61, "duration": 5, "velocity": 93}, {"time": 773, "pitch": 65, "duration": 6, "velocity": 96}, {"time": 785, "pitch": 51, "duration": 43, "velocity": 92}, {"time": 785, "pitch": 58, "duration": 4, "velocity": 86}, {"time": 785, "pitch": 63, "duration": 9, "velocity": 91}, {"time": 791, "pitch": 58, "duration": 12, "velocity": 77}, {"time": 797, "pitch": 63, "duration": 7, "velocity": 67}, {"time": 803, "pitch": 65, "duration": 3, "velocity": 94}, {"time": 809, "pitch": 67, "duration": 3, "velocity": 94}, {"time": 815, "pitch": 65, "duration": 5, "velocity": 94}, {"time": 821, "pitch": 63, "duration": 4, "velocity": 91}, {"time": 827, "pitch": 61, "duration": 3, "velocity": 86}, {"time": 833, "pitch": 44, "duration": 44, "velocity": 91}, {"time": 839, "pitch": 51, "duration": 38, "velocity": 85}, {"time": 845, "pitch": 58, "duration": 4, "velocity": 86}, {"time": 851, "pitch": 60, "duration": 9, "velocity": 94}, {"time": 863, "pitch": 56, "duration": 4, "velocity": 86}, {"time": 863, "pitch": 63, "duration": 4, "velocity": 92}, {"time": 881, "pitch": 44, "duration": 47, "velocity": 91}, {"time": 887, "pitch": 51, "duration": 39, "velocity": 81}, {"time": 893, "pitch": 58, "duration": 5, "velocity": 83}, {"time": 899, "pitch": 56, "duration": 10, "velocity": 89}, {"time": 899, "pitch": 60, "duration": 10, "velocity": 88}, {"time": 911, "pitch": 56, "duration": 20, "velocity": 88}, {"time": 911, "pitch": 63, "duration": 22, "velocity": 92}, {"time": 929, "pitch": 44, "duration": 43, "velocity": 92}, {"time": 935, "pitch": 51, "duration": 37, "velocity": 83}, {"time": 941, "pitch": 58, "duration": 5, "velocity": 86}, {"time": 947, "pitch": 56, "duration": 10, "velocity": 88}, {"time": 947, "pitch": 60, "duration": 9, "velocity": 86}, {"time": 959, "pitch": 56, "duration": 5, "velocity": 88}, {"time": 959, "pitch": 60, "duration": 16, "velocity": 93}, {"time": 959, "pitch": 63, "duration": 18, "velocity": 92}, {"time": 977, "pitch": 51, "duration": 46, "velocity": 96}, {"time": 983, "pitch": 58, "duration": 15, "velocity": 78}, {"time": 989, "pitch": 63, "duration": 7, "velocity": 86}, {"time": 995, "pitch": 65, "duration": 10, "velocity": 95}, {"time": 1001, "pitch": 58, "duration": 8, "velocity": 80}, {"time": 1007, "pitch": 63, "duration": 7, "velocity": 92}, {"time": 1007, "pitch": 67, "duration": 18, "velocity": 94}, {"time": 1013, "pitch": 58, "duration": 10, "velocity": 85}, {"time": 1019, "pitch": 63, "duration": 6, "velocity": 88}, {"time": 1025, "pitch": 48, "duration": 39, "velocity": 92}, {"time": 1031, "pitch": 60, "duration": 10, "velocity": 92}, {"time": 1037, "pitch": 63, "duration": 7, "velocity": 93}, {"time": 1043, "pitch": 67, "duration": 16, "velocity": 90}, {"time": 1055, "pitch": 55, "duration": 8, "velocity": 57}, {"time": 1061, "pitch": 60, "duration": 3, "velocity": 91}, {"time": 1061, "pitch": 63, "duration": 9, "velocity": 94}, {"time": 1067, "pitch": 60, "duration": 5, "velocity": 86}, {"time": 1073, "pitch": 53, "duration": 22, "velocity": 95}, {"time": 1073, "pitch": 65, "duration": 7, "velocity": 89}, {"time": 1079, "pitch": 60, "duration": 12, "velocity": 82}, {"time": 1085, "pitch": 65, "duration": 5, "velocity": 96}, {"time": 1097, "pitch": 38, "duration": 20, "velocity": 83}, {"time": 1097, "pitch": 62, "duration": 22, "velocity": 81}, {"time": 1097, "pitch": 65, "duration": 22, "velocity": 91}, {"time": 1097, "pitch": 68, "duration": 22, "velocity": 85}, {"time": 1121, "pitch": 46, "duration": 14, "velocity": 92}, {"time": 1121, "pitch": 58, "duration": 7, "velocity": 86}, {"time": 1121, "pitch": 61, "duration": 7, "velocity": 87}, {"time": 1127, "pitch": 53, "duration": 8, "velocity": 87}, {"time": 1133, "pitch": 58, "duration": 1, "velocity": 84}, {"time": 1133, "pitch": 61, "duration": 8, "velocity": 94}, {"time": 1139, "pitch": 58, "duration": 5, "velocity": 92}, {"time": 1145, "pitch": 51, "duration": 14, "velocity": 94}, {"time": 1145, "pitch": 63, "duration": 6, "velocity": 90}, {"time": 1151, "pitch": 58, "duration": 7, "velocity": 81}, {"time": 1157, "pitch": 63, "duration": 7, "velocity": 95}, {"time": 1163, "pitch": 65, "duration": 4, "velocity": 93}, {"time": 1169, "pitch": 44, "duration": 2, "velocity": 92}, {"time": 1169, "pitch": 63, "duration": 12, "velocity": 87}, {"time": 1169, "pitch": 68, "duration": 13, "velocity": 86}, {"time": 1175, "pitch": 51, "duration": 40, "velocity": 88}, {"time": 1181, "pitch": 60, "duration": 33, "velocity": 93}, {"time": 1187, "pitch": 63, "duration": 4, "velocity": 93}, {"time": 1193, "pitch": 63, "duration": 3, "velocity": 93}, {"time": 1193, "pitch": 72, "duration": 5, "velocity": 94}, {"time": 1199, "pitch": 63, "duration": 7, "velocity": 88}, {"time": 1199, "pitch": 70, "duration": 8, "velocity": 97}, {"time": 1205, "pitch": 68, "duration": 8, "velocity": 93}, {"time": 1211, "pitch": 63, "duration": 4, "velocity": 86}, {"time": 1217, "pitch": 44, "duration": 31, "velocity": 88}, {"time": 1217, "pitch": 63, "duration": 6, "velocity": 89}, {"time": 1217, "pitch": 68, "duration": 8, "velocity": 88}, {"time": 1223, "pitch": 51, "duration": 9, "velocity": 85}, {"time": 1229, "pitch": 63, "duration": 4, "velocity": 82}, {"time": 1229, "pitch": 68, "duration": 8, "velocity": 84}, {"time": 1235, "pitch": 51, "duration": 12, "velocity": 79}, {"time": 1235, "pitch": 63, "duration": 3, "velocity": 81}, {"time": 1241, "pitch": 63, "duration": 3, "velocity": 93}, {"time": 1241, "pitch": 68, "duration": 8, "velocity": 93}, {"time": 1241, "pitch": 72, "duration": 7, "velocity": 98}, {"time": 1247, "pitch": 63, "duration": 3, "velocity": 64}, {"time": 1253, "pitch": 63, "duration": 3, "velocity": 91}, {"time": 1253, "pitch": 68, "duration": 2, "velocity": 87}, {"time": 1265, "pitch": 48, "duration": 42, "velocity": 92}, {"time": 1265, "pitch": 60, "duration": 8, "velocity": 87}, {"time": 1265, "pitch": 63, "duration": 10, "velocity": 92}, {"time": 1271, "pitch": 55, "duration": 9, "velocity": 72}, {"time": 1277, "pitch": 60, "duration": 4, "velocity": 84}, {"time": 1277, "pitch": 63, "duration": 7, "velocity": 87}, {"time": 1283, "pitch": 55, "duration": 8, "velocity": 75}, {"time": 1289, "pitch": 60, "duration": 8, "velocity": 88}, {"time": 1289, "pitch": 63, "duration": 9, "velocity": 93}, {"time": 1289, "pitch": 67, "duration": 8, "velocity": 92}, {"time": 1295, "pitch": 55, "duration": 8, "velocity": 64}, {"time": 1301, "pitch": 60, "duration": 3, "velocity": 92}, {"time": 1301, "pitch": 63, "duration": 8, "velocity": 94}, {"time": 1301, "pitch": 67, "duration": 9, "velocity": 93}, {"time": 1307, "pitch": 60, "duration": 4, "velocity": 87}, {"time": 1313, "pitch": 41, "duration": 2, "velocity": 94}, {"time": 1313, "pitch": 65, "duration": 10, "velocity": 92}, {"time": 1313, "pitch": 68, "duration": 10, "velocity": 91}, {"time": 1319, "pitch": 53, "duration": 33, "velocity": 93}, {"time": 1325, "pitch": 65, "duration": 5, "velocity": 92}, {"time": 1325, "pitch": 68, "duration": 7, "velocity": 92}, {"time": 1331, "pitch": 60, "duration": 8, "velocity": 81}, {"time": 1337, "pitch": 65, "duration": 8, "velocity": 92}, {"time": 1337, "pitch": 68, "duration": 8, "velocity": 91}, {"time": 1337, "pitch": 72, "duration": 7, "velocity": 93}, {"time": 1343, "pitch": 60, "duration": 8, "velocity": 70}, {"time": 1349, "pitch": 65, "duration": 2, "velocity": 95}, {"time": 1349, "pitch": 68, "duration": 7, "velocity": 94}, {"time": 1355, "pitch": 65, "duration": 5, "velocity": 88}, {"time": 1361, "pitch": 51, "duration": 39, "velocity": 94}, {"time": 1361, "pitch": 63, "duration": 9, "velocity": 87}, {"time": 1361, "pitch": 67, "duration": 9, "velocity": 88}, {"time": 1361, "pitch": 70, "duration": 12, "velocity": 91}, {"time": 1367, "pitch": 58, "duration": 7, "velocity": 79}, {"time": 1373, "pitch": 63, "duration": 6, "velocity": 93}, {"time": 1379, "pitch": 58, "duration": 9, "velocity": 73}, {"time": 1385, "pitch": 63, "duration": 9, "velocity": 93}, {"time": 1385, "pitch": 67, "duration": 9, "velocity": 94}, {"time": 1385, "pitch": 70, "duration": 8, "velocity": 93}, {"time": 1391, "pitch": 58, "duration": 7, "velocity": 81}, {"time": 1397, "pitch": 63, "duration": 3, "velocity": 93}, {"time": 1397, "pitch": 67, "duration": 7, "velocity": 94}, {"time": 1397, "pitch": 75, "duration": 7, "velocity": 96}, {"time": 1403, "pitch": 63, "duration": 2, "velocity": 94}, {"time": 1409, "pitch": 48, "duration": 41, "velocity": 92}, {"time": 1409, "pitch": 60, "duration": 9, "velocity": 87}, {"time": 1409, "pitch": 63, "duration": 10, "velocity": 92}, {"time": 1415, "pitch": 55, "duration": 9, "velocity": 81}, {"time": 1421, "pitch": 60, "duration": 6, "velocity": 86}, {"time": 1421, "pitch": 63, "duration": 6, "velocity": 89}, {"time": 1427, "pitch": 55, "duration": 8, "velocity": 76}, {"time": 1433, "pitch": 60, "duration": 5, "velocity": 93}, {"time": 1433, "pitch": 67, "duration": 5, "velocity": 93}, {"time": 1439, "pitch": 55, "duration": 7, "velocity": 73}, {"time": 1445, "pitch": 60, "duration": 3, "velocity": 94}, {"time": 1445, "pitch": 63, "duration": 5, "velocity": 95}, {"time": 1451, "pitch": 60, "duration": 3, "velocity": 93}, {"time": 1457, "pitch": 53, "duration": 4, "velocity": 92}, {"time": 1457, "pitch": 60, "duration": 6, "velocity": 93}, {"time": 1457, "pitch": 65, "duration": 8, "velocity": 94}, {"time": 1463, "pitch": 53, "duration": 33, "velocity": 89}, {"time": 1469, "pitch": 65, "duration": 8, "velocity": 93}, {"time": 1469, "pitch": 68, "duration": 8, "velocity": 94}, {"time": 1475, "pitch": 60, "duration": 8, "velocity": 83}, {"time": 1481, "pitch": 65, "duration": 9, "velocity": 93}, {"time": 1481, "pitch": 68, "duration": 9, "velocity": 93}, {"time": 1481, "pitch": 72, "duration": 8, "velocity": 94}, {"time": 1487, "pitch": 60, "duration": 8, "velocity": 71}, {"time": 1493, "pitch": 65, "duration": 3, "velocity": 97}, {"time": 1493, "pitch": 68, "duration": 7, "velocity": 96}, {"time": 1499, "pitch": 65, "duration": 3, "velocity": 95}, {"time": 1505, "pitch": 46, "duration": 37, "velocity": 92}, {"time": 1505, "pitch": 58, "duration": 9, "velocity": 87}, {"time": 1505, "pitch": 61, "duration": 9, "velocity": 89}, {"time": 1511, "pitch": 53, "duration": 8, "velocity": 84}, {"time": 1517, "pitch": 58, "duration": 7, "velocity": 91}, {"time": 1517, "pitch": 61, "duration": 7, "velocity": 93}, {"time": 1523, "pitch": 53, "duration": 8, "velocity": 83}, {"time": 1529, "pitch": 58, "duration": 6, "velocity": 93}, {"time": 1529, "pitch": 65, "duration": 5, "velocity": 97}, {"time": 1535, "pitch": 53, "duration": 7, "velocity": 84}, {"time": 1541, "pitch": 58, "duration": 2, "velocity": 94}, {"time": 1541, "pitch": 61, "duration": 4, "velocity": 98}, {"time": 1547, "pitch": 58, "duration": 2, "velocity": 92}, {"time": 1553, "pitch": 51, "duration": 47, "velocity": 97}, {"time": 1553, "pitch": 63, "duration": 8, "velocity": 88}, {"time": 1553, "pitch": 67, "duration": 8, "velocity": 88}, {"time": 1559, "pitch": 58, "duration": 7, "velocity": 86}, {"time": 1565, "pitch": 63, "duration": 7, "velocity": 94}, {"time": 1565, "pitch": 67, "duration": 6, "velocity": 94}, {"time": 1565, "pitch": 70, "duration": 7, "velocity": 94}, {"time": 1571, "pitch": 58, "duration": 8, "velocity": 82}, {"time": 1577, "pitch": 63, "duration": 11, "velocity": 98}, {"time": 1577, "pitch": 75, "duration": 7, "velocity": 101}, {"time": 1583, "pitch": 58, "duration": 8, "velocity": 87}, {"time": 1589, "pitch": 63, "duration": 1, "velocity": 76}, {"time": 1589, "pitch": 73, "duration": 12, "velocity": 98}, {"time": 1595, "pitch": 58, "duration": 6, "velocity": 86}, {"time": 1601, "pitch": 44, "duration": 31, "velocity": 88}, {"time": 1601, "pitch": 63, "duration": 6, "velocity": 89}, {"time": 1601, "pitch": 68, "duration": 8, "velocity": 88}, {"time": 1607, "pitch": 51, "duration": 9, "velocity": 85}, {"time": 1613, "pitch": 63, "duration": 4, "velocity": 82}, {"time": 1613, "pitch": 68, "duration": 8, "velocity": 84}, {"time": 1619, "pitch": 51, "duration": 12, "velocity": 79}, {"time": 1619, "pitch": 63, "duration": 3, "velocity": 81}, {"time": 1625, "pitch": 63, "duration": 3, "velocity": 93}, {"time": 1625, "pitch": 68, "duration": 8, "velocity": 93}, {"time": 1625, "pitch": 72, "duration": 7, "velocity": 98}, {"time": 1631, "pitch": 63, "duration": 3, "velocity": 64}, {"time": 1637, "pitch": 63, "duration": 3, "velocity": 91}, {"time": 1637, "pitch": 68, "duration": 2, "velocity": 87}, {"time": 1649, "pitch": 48, "duration": 42, "velocity": 92}, {"time": 1649, "pitch": 60, "duration": 8, "velocity": 87}, {"time": 1649, "pitch": 63, "duration": 10, "velocity": 92}, {"time": 1655, "pitch": 55, "duration": 9, "velocity": 72}, {"time": 1661, "pitch": 60, "duration": 4, "velocity": 84}, {"time": 1661, "pitch": 63, "duration": 7, "velocity": 87}, {"time": 1667, "pitch": 55, "duration": 8, "velocity": 75}, {"time": 1673, "pitch": 60, "duration": 8, "velocity": 88}, {"time": 1673, "pitch": 63, "duration": 9, "velocity": 93}, {"time": 1673, "pitch": 67, "duration": 8, "velocity": 92}, {"time": 1679, "pitch": 55, "duration": 8, "velocity": 64}, {"time": 1685, "pitch": 60, "duration": 3, "velocity": 92}, {"time": 1685, "pitch": 63, "duration": 8, "velocity": 94}, {"time": 1685, "pitch": 67, "duration": 9, "velocity": 93}, {"time": 1691, "pitch": 60, "duration": 4, "velocity": 87}, {"time": 1697, "pitch": 41, "duration": 2, "velocity": 94}, {"time": 1697, "pitch": 65, "duration": 10, "velocity": 92}, {"time": 1697, "pitch": 68, "duration": 10, "velocity": 91}, {"time": 1703, "pitch": 53, "duration": 33, "velocity": 93}, {"time": 1709, "pitch": 65, "duration": 5, "velocity": 92}, {"time": 1709, "pitch": 68, "duration": 7, "velocity": 92}, {"time": 1715, "pitch": 60, "duration": 8, "velocity": 81}, {"time": 1721, "pitch": 65, "duration": 8, "velocity": 92}, {"time": 1721, "pitch": 68, "duration": 8, "velocity": 91}, {"time": 1721, "pitch": 72, "duration": 7, "velocity": 93}, {"time": 1727, "pitch": 60, "duration": 8, "velocity": 70}, {"time": 1733, "pitch": 65, "duration": 2, "velocity": 95}, {"time": 1733, "pitch": 68, "duration": 7, "velocity": 94}, {"time": 1739, "pitch": 65, "duration": 5, "velocity": 88}, {"time": 1745, "pitch": 51, "duration": 39, "velocity": 94}, {"time": 1745, "pitch": 63, "duration": 9, "velocity": 87}, {"time": 1745, "pitch": 67, "duration": 9, "velocity": 88}, {"time": 1745, "pitch": 70, "duration": 12, "velocity": 91}, {"time": 1751, "pitch": 58, "duration": 7, "velocity": 79}, {"time": 1757, "pitch": 63, "duration": 6, "velocity": 93}, {"time": 1763, "pitch": 58, "duration": 9, "velocity": 73}, {"time": 1769, "pitch": 63, "duration": 9, "velocity": 93}, {"time": 1769, "pitch": 67, "duration": 9, "velocity": 94}, {"time": 1769, "pitch": 70, "duration": 8, "velocity": 93}, {"time": 1775, "pitch": 58, "duration": 7, "velocity": 81}, {"time": 1781, "pitch": 63, "duration": 3, "velocity": 93}, {"time": 1781, "pitch": 67, "duration": 7, "velocity": 94}, {"time": 1781, "pitch": 75, "duration": 7, "velocity": 96}, {"time": 1787, "pitch": 63, "duration": 2, "velocity": 94}, {"time": 1793, "pitch": 48, "duration": 41, "velocity": 92}, {"time": 1793, "pitch": 60, "duration": 9, "velocity": 87}, {"time": 1793, "pitch": 63, "duration": 10, "velocity": 92}, {"time": 1799, "pitch": 55, "duration": 9, "velocity": 81}, {"time": 1805, "pitch": 60, "duration": 6, "velocity": 86}, {"time": 1805, "pitch": 63, "duration": 6, "velocity": 89}, {"time": 1811, "pitch": 55, "duration": 8, "velocity": 76}, {"time": 1817, "pitch": 60, "duration": 5, "velocity": 93}, {"time": 1817, "pitch": 67, "duration": 5, "velocity": 93}, {"time": 1823, "pitch": 55, "duration": 7, "velocity": 73}, {"time": 1829, "pitch": 60, "duration": 3, "velocity": 94}, {"time": 1829, "pitch": 63, "duration": 5, "velocity": 95}, {"time": 1835, "pitch": 60, "duration": 3, "velocity": 93}, {"time": 1841, "pitch": 53, "duration": 4, "velocity": 92}, {"time": 1841, "pitch": 60, "duration": 6, "velocity": 93}, {"time": 1841, "pitch": 65, "duration": 8, "velocity": 94}, {"time": 1847, "pitch": 53, "duration": 33, "velocity": 89}, {"time": 1853, "pitch": 65, "duration": 8, "velocity": 93}, {"time": 1853, "pitch": 68, "duration": 8, "velocity": 94}, {"time": 1859, "pitch": 60, "duration": 8, "velocity": 83}, {"time": 1865, "pitch": 65, "duration": 9, "velocity": 93}, {"time": 1865, "pitch": 68, "duration": 9, "velocity": 93}, {"time": 1865, "pitch": 72, "duration": 8, "velocity": 94}, {"time": 1871, "pitch": 60, "duration": 8, "velocity": 71}, {"time": 1877, "pitch": 65, "duration": 3, "velocity": 97}, {"time": 1877, "pitch": 68, "duration": 7, "velocity": 96}, {"time": 1883, "pitch": 65, "duration": 3, "velocity": 95}, {"time": 1889, "pitch": 46, "duration": 37, "velocity": 92}, {"time": 1889, "pitch": 58, "duration": 9, "velocity": 87}, {"time": 1889, "pitch": 61, "duration": 9, "velocity": 89}, {"time": 1895, "pitch": 53, "duration": 8, "velocity": 84}, {"time": 1901, "pitch": 58, "duration": 7, "velocity": 91}, {"time": 1901, "pitch": 61, "duration": 7, "velocity": 93}, {"time": 1907, "pitch": 53, "duration": 8, "velocity": 83}, {"time": 1913, "pitch": 58, "duration": 6, "velocity": 93}, {"time": 1913, "pitch": 65, "duration": 5, "velocity": 97}, {"time": 1919, "pitch": 53, "duration": 7, "velocity": 84}, {"time": 1925, "pitch": 58, "duration": 2, "velocity": 94}, {"time": 1925, "pitch": 61, "duration": 4, "velocity": 98}, {"time": 1931, "pitch": 58, "duration": 2, "velocity": 92}, {"time": 1937, "pitch": 51, "duration": 47, "velocity": 97}, {"time": 1937, "pitch": 63, "duration": 8, "velocity": 88}, {"time": 1937, "pitch": 67, "duration": 8, "velocity": 88}, {"time": 1943, "pitch": 58, "duration": 7, "velocity": 86}, {"time": 1949, "pitch": 63, "duration": 7, "velocity": 94}, {"time": 1949, "pitch": 67, "duration": 6, "velocity": 94}, {"time": 1949, "pitch": 70, "duration": 7, "velocity": 94}, {"time": 1955, "pitch": 58, "duration": 8, "velocity": 82}, {"time": 1961, "pitch": 63, "duration": 11, "velocity": 98}, {"time": 1961, "pitch": 75, "duration": 7, "velocity": 101}, {"time": 1967, "pitch": 58, "duration": 8, "velocity": 87}, {"time": 1973, "pitch": 63, "duration": 1, "velocity": 76}, {"time": 1973, "pitch": 73, "duration": 6, "velocity": 98}, {"time": 1979, "pitch": 58, "duration": 6, "velocity": 86}, {"time": 1979, "pitch": 72, "duration": 6, "velocity": 98}, {"time": 1985, "pitch": 46, "duration": 15, "velocity": 93}, {"time": 1985, "pitch": 58, "duration": 10, "velocity": 86}, {"time": 1985, "pitch": 61, "duration": 10, "velocity": 89}, {"time": 1991, "pitch": 53, "duration": 9, "velocity": 82}, {"time": 1997, "pitch": 58, "duration": 3, "velocity": 91}, {"time": 1997, "pitch": 61, "duration": 7, "velocity": 93}, {"time": 2003, "pitch": 58, "duration": 2, "velocity": 86}, {"time": 2009, "pitch": 51, "duration": 14, "velocity": 94}, {"time": 2009, "pitch": 63, "duration": 9, "velocity": 82}, {"time": 2009, "pitch": 67, "duration": 9, "velocity": 88}, {"time": 2015, "pitch": 58, "duration": 7, "velocity": 84}, {"time": 2021, "pitch": 63, "duration": 8, "velocity": 92}, {"time": 2027, "pitch": 67, "duration": 4, "velocity": 92}, {"time": 2033, "pitch": 44, "duration": 3, "velocity": 92}, {"time": 2033, "pitch": 68, "duration": 16, "velocity": 84}, {"time": 2039, "pitch": 51, "duration": 43, "velocity": 89}, {"time": 2045, "pitch": 60, "duration": 37, "velocity": 87}, {"time": 2051, "pitch": 63, "duration": 7, "velocity": 86}, {"time": 2057, "pitch": 72, "duration": 10, "velocity": 90}, {"time": 2063, "pitch": 63, "duration": 4, "velocity": 77}, {"time": 2069, "pitch": 63, "duration": 4, "velocity": 87}, {"time": 2069, "pitch": 68, "duration": 13, "velocity": 86}, {"time": 2075, "pitch": 63, "duration": 7, "velocity": 74}, {"time": 2081, "pitch": 44, "duration": 39, "velocity": 88}, {"time": 2081, "pitch": 63, "duration": 1, "velocity": 85}, {"time": 2081, "pitch": 68, "duration": 1, "velocity": 84}, {"time": 2087, "pitch": 51, "duration": 31, "velocity": 80}, {"time": 2093, "pitch": 63, "duration": 8, "velocity": 88}, {"time": 2099, "pitch": 68, "duration": 3, "velocity": 74}, {"time": 2105, "pitch": 63, "duration": 4, "velocity": 87}, {"time": 2105, "pitch": 72, "duration": 4, "velocity": 90}, {"time": 2117, "pitch": 63, "duration": 1, "velocity": 72}, {"time": 2117, "pitch": 68, "duration": 9, "velocity": 81}, {"time": 2123, "pitch": 63, "duration": 5, "velocity": 75}, {"time": 2129, "pitch": 53, "duration": 40, "velocity": 94}, {"time": 2129, "pitch": 68, "duration": 8, "velocity": 85}, {"time": 2135, "pitch": 60, "duration": 7, "velocity": 81}, {"time": 2141, "pitch": 65, "duration": 7, "velocity": 94}, {"time": 2147, "pitch": 60, "duration": 8, "velocity": 81}, {"time": 2153, "pitch": 65, "duration": 5, "velocity": 92}, {"time": 2153, "pitch": 72, "duration": 5, "velocity": 89}, {"time": 2159, "pitch": 60, "duration": 9, "velocity": 60}, {"time": 2165, "pitch": 65, "duration": 2, "velocity": 88}, {"time": 2165, "pitch": 68, "duration": 5, "velocity": 88}, {"time": 2177, "pitch": 46, "duration": 36, "velocity": 93}, {"time": 2177, "pitch": 58, "duration": 6, "velocity": 84}, {"time": 2177, "pitch": 70, "duration": 7, "velocity": 90}, {"time": 2183, "pitch": 53, "duration": 8, "velocity": 85}, {"time": 2189, "pitch": 58, "duration": 7, "velocity": 81}, {"time": 2189, "pitch": 65, "duration": 6, "velocity": 86}, {"time": 2195, "pitch": 53, "duration": 9, "velocity": 71}, {"time": 2201, "pitch": 58, "duration": 9, "velocity": 84}, {"time": 2201, "pitch": 61, "duration": 7, "velocity": 79}, {"time": 2207, "pitch": 53, "duration": 5, "velocity": 80}, {"time": 2213, "pitch": 58, "duration": 2, "velocity": 90}, {"time": 2213, "pitch": 65, "duration": 9, "velocity": 93}, {"time": 2219, "pitch": 58, "duration": 5, "velocity": 85}, {"time": 2225, "pitch": 51, "duration": 41, "velocity": 94}, {"time": 2231, "pitch": 58, "duration": 19, "velocity": 81}, {"time": 2237, "pitch": 63, "duration": 7, "velocity": 94}, {"time": 2243, "pitch": 65, "duration": 3, "velocity": 96}, {"time": 2249, "pitch": 63, "duration": 8, "velocity": 92}, {"time": 2249, "pitch": 67, "duration": 5, "velocity": 93}, {"time": 2255, "pitch": 58, "duration": 9, "velocity": 82}, {"time": 2261, "pitch": 63, "duration": 3, "velocity": 89}, {"time": 2261, "pitch": 67, "duration": 8, "velocity": 92}, {"time": 2261, "pitch": 70, "duration": 11, "velocity": 92}, {"time": 2267, "pitch": 63, "duration": 6, "velocity": 96}, {"time": 2273, "pitch": 44, "duration": 38, "velocity": 88}, {"time": 2273, "pitch": 63, "duration": 7, "velocity": 88}, {"time": 2273, "pitch": 68, "duration": 10, "velocity": 85}, {"time": 2279, "pitch": 51, "duration": 8, "velocity": 80}, {"time": 2285, "pitch": 63, "duration": 8, "velocity": 103}, {"time": 2291, "pitch": 51, "duration": 10, "velocity": 82}, {"time": 2297, "pitch": 63, "duration": 1, "velocity": 78}, {"time": 2297, "pitch": 68, "duration": 8, "velocity": 93}, {"time": 2297, "pitch": 72, "duration": 8, "velocity": 93}, {"time": 2303, "pitch": 63, "duration": 2, "velocity": 87}, {"time": 2309, "pitch": 63, "duration": 3, "velocity": 88}, {"time": 2309, "pitch": 68, "duration": 9, "velocity": 90}, {"time": 2315, "pitch": 63, "duration": 2, "velocity": 80}, {"time": 2321, "pitch": 53, "duration": 38, "velocity": 94}, {"time": 2321, "pitch": 68, "duration": 13, "velocity": 87}, {"time": 2327, "pitch": 60, "duration": 8, "velocity": 83}, {"time": 2333, "pitch": 65, "duration": 9, "velocity": 98}, {"time": 2339, "pitch": 60, "duration": 7, "velocity": 79}, {"time": 2345, "pitch": 65, "duration": 4, "velocity": 96}, {"time": 2345, "pitch": 72, "duration": 5, "velocity": 92}, {"time": 2351, "pitch": 60, "duration": 7, "velocity": 77}, {"time": 2357, "pitch": 65, "duration": 3, "velocity": 94}, {"time": 2357, "pitch": 68, "duration": 5, "velocity": 94}, {"time": 2363, "pitch": 65, "duration": 5, "velocity": 97}, {"time": 2369, "pitch": 46, "duration": 15, "velocity": 92}, {"time": 2369, "pitch": 65, "duration": 8, "velocity": 92}, {"time": 2369, "pitch": 70, "duration": 8, "velocity": 88}, {"time": 2375, "pitch": 53, "duration": 7, "velocity": 83}, {"time": 2381, "pitch": 65, "duration": 2, "velocity": 97}, {"time": 2381, "pitch": 73, "duration": 8, "velocity": 88}, {"time": 2387, "pitch": 65, "duration": 4, "velocity": 89}, {"time": 2393, "pitch": 51, "duration": 14, "velocity": 88}, {"time": 2393, "pitch": 70, "duration": 9, "velocity": 92}, {"time": 2399, "pitch": 58, "duration": 7, "velocity": 82}, {"time": 2405, "pitch": 63, "duration": 4, "velocity": 95}, {"time": 2411, "pitch": 65, "duration": 6, "velocity": 95}, {"time": 2417, "pitch": 44, "duration": 45, "velocity": 92}, {"time": 2417, "pitch": 68, "duration": 7, "velocity": 85}, {"time": 2423, "pitch": 51, "duration": 38, "velocity": 78}, {"time": 2429, "pitch": 56, "duration": 4, "velocity": 87}, {"time": 2435, "pitch": 58, "duration": 2, "velocity": 93}, {"time": 2441, "pitch": 60, "duration": 5, "velocity": 91}, {"time": 2447, "pitch": 63, "duration": 8, "velocity": 95}, {"time": 2453, "pitch": 68, "duration": 11, "velocity": 82}, {"time": 2465, "pitch": 44, "duration": 44, "velocity": 91}, {"time": 2471, "pitch": 51, "duration": 38, "velocity": 85}, {"time": 2477, "pitch": 58, "duration": 4, "velocity": 86}, {"time": 2483, "pitch": 60, "duration": 9, "velocity": 94}, {"time": 2495, "pitch": 56, "duration": 4, "velocity": 86}, {"time": 2495, "pitch": 63, "duration": 4, "velocity": 92}, {"time": 2513, "pitch": 44, "duration": 47, "velocity": 91}, {"time": 2519, "pitch": 51, "duration": 39, "velocity": 81}, {"time": 2525, "pitch": 58, "duration": 5, "velocity": 83}, {"time": 2531, "pitch": 56, "duration": 10, "velocity": 89}, {"time": 2531, "pitch": 60, "duration": 10, "velocity": 88}, {"time": 2543, "pitch": 56, "duration": 20, "velocity": 88}, {"time": 2543, "pitch": 63, "duration": 22, "velocity": 92}, {"time": 2561, "pitch": 44, "duration": 43, "velocity": 92}, {"time": 2567, "pitch": 51, "duration": 37, "velocity": 83}, {"time": 2573, "pitch": 58, "duration": 5, "velocity": 86}, {"time": 2579, "pitch": 56, "duration": 10, "velocity": 88}, {"time": 2579, "pitch": 60, "duration": 9, "velocity": 86}, {"time": 2591, "pitch": 56, "duration": 5, "velocity": 88}, {"time": 2591, "pitch": 60, "duration": 16, "velocity": 93}, {"time": 2591, "pitch": 63, "duration": 18, "velocity": 92}, {"time": 2609, "pitch": 51, "duration": 46, "velocity": 96}, {"time": 2615, "pitch": 58, "duration": 15, "velocity": 78}, {"time": 2621, "pitch": 63, "duration": 7, "velocity": 86}, {"time": 2627, "pitch": 65, "duration": 10, "velocity": 95}, {"time": 2633, "pitch": 58, "duration": 8, "velocity": 80}, {"time": 2639, "pitch": 63, "duration": 7, "velocity": 92}, {"time": 2639, "pitch": 67, "duration": 18, "velocity": 94}, {"time": 2645, "pitch": 58, "duration": 10, "velocity": 85}, {"time": 2651, "pitch": 63, "duration": 6, "velocity": 88}, {"time": 2657, "pitch": 48, "duration": 39, "velocity": 92}, {"time": 2663, "pitch": 60, "duration": 10, "velocity": 92}, {"time": 2669, "pitch": 63, "duration": 7, "velocity": 93}, {"time": 2675, "pitch": 67, "duration": 16, "velocity": 90}, {"time": 2687, "pitch": 55, "duration": 8, "velocity": 57}, {"time": 2693, "pitch": 60, "duration": 3, "velocity": 91}, {"time": 2693, "pitch": 63, "duration": 9, "velocity": 94}, {"time": 2699, "pitch": 60, "duration": 5, "velocity": 86}, {"time": 2705, "pitch": 53, "duration": 22, "velocity": 95}, {"time": 2705, "pitch": 65, "duration": 7, "velocity": 89}, {"time": 2711, "pitch": 60, "duration": 12, "velocity": 82}, {"time": 2717, "pitch": 65, "duration": 5, "velocity": 96}, {"time": 2729, "pitch": 38, "duration": 20, "velocity": 83}, {"time": 2729, "pitch": 62, "duration": 22, "velocity": 81}, {"time": 2729, "pitch": 65, "duration": 22, "velocity": 91}, {"time": 2729, "pitch": 68, "duration": 22, "velocity": 85}, {"time": 2753, "pitch": 46, "duration": 44, "velocity": 92}, {"time": 2753, "pitch": 58, "duration": 8, "velocity": 84}, {"time": 2753, "pitch": 61, "duration": 13, "velocity": 85}, {"time": 2759, "pitch": 53, "duration": 20, "velocity": 80}, {"time": 2765, "pitch": 58, "duration": 5, "velocity": 92}, {"time": 2771, "pitch": 58, "duration": 14, "velocity": 88}, {"time": 2771, "pitch": 61, "duration": 14, "velocity": 92}, {"time": 2783, "pitch": 53, "duration": 14, "velocity": 74}, {"time": 2789, "pitch": 58, "duration": 4, "velocity": 91}, {"time": 2789, "pitch": 61, "duration": 5, "velocity": 93}, {"time": 2789, "pitch": 65, "duration": 6, "velocity": 96}, {"time": 2801, "pitch": 51, "duration": 43, "velocity": 92}, {"time": 2801, "pitch": 58, "duration": 4, "velocity": 86}, {"time": 2801, "pitch": 63, "duration": 9, "velocity": 91}, {"time": 2807, "pitch": 58, "duration": 12, "velocity": 77}, {"time": 2813, "pitch": 63, "duration": 7, "velocity": 67}, {"time": 2819, "pitch": 65, "duration": 3, "velocity": 94}, {"time": 2825, "pitch": 67, "duration": 3, "velocity": 94}, {"time": 2831, "pitch": 65, "duration": 5, "velocity": 94}, {"time": 2837, "pitch": 63, "duration": 4, "velocity": 91}, {"time": 2843, "pitch": 61, "duration": 3, "velocity": 86}, {"time": 2849, "pitch": 44, "duration": 44, "velocity": 91}, {"time": 2855, "pitch": 51, "duration": 38, "velocity": 85}, {"time": 2861, "pitch": 58, "duration": 4, "velocity": 86}, {"time": 2867, "pitch": 60, "duration": 9, "velocity": 94}, {"time": 2879, "pitch": 56, "duration": 4, "velocity": 86}, {"time": 2879, "pitch": 63, "duration": 4, "velocity": 92}, {"time": 2897, "pitch": 44, "duration": 47, "velocity": 91}, {"time": 2903, "pitch": 51, "duration": 39, "velocity": 81}, {"time": 2909, "pitch": 58, "duration": 5, "velocity": 83}, {"time": 2915, "pitch": 56, "duration": 10, "velocity": 89}, {"time": 2915, "pitch": 60, "duration": 10, "velocity": 88}, {"time": 2927, "pitch": 56, "duration": 20, "velocity": 88}, {"time": 2927, "pitch": 63, "duration": 22, "velocity": 92}, {"time": 2945, "pitch": 44, "duration": 43, "velocity": 92}, {"time": 2951, "pitch": 51, "duration": 37, "velocity": 83}, {"time": 2957, "pitch": 58, "duration": 5, "velocity": 86}, {"time": 2963, "pitch": 56, "duration": 10, "velocity": 88}, {"time": 2963, "pitch": 60, "duration": 9, "velocity": 86}, {"time": 2975, "pitch": 56, "duration": 5, "velocity": 88}, {"time": 2975, "pitch": 60, "duration": 16, "velocity": 93}, {"time": 2975, "pitch": 63, "duration": 18, "velocity": 92}, {"time": 2993, "pitch": 51, "duration": 46, "velocity": 96}, {"time": 2999, "pitch": 58, "duration": 15, "velocity": 78}, {"time": 3005, "pitch": 63, "duration": 7, "velocity": 86}, {"time": 3011, "pitch": 65, "duration": 10, "velocity": 95}, {"time": 3017, "pitch": 58, "duration": 8, "velocity": 80}, {"time": 3023, "pitch": 63, "duration": 7, "velocity": 92}, {"time": 3023, "pitch": 67, "duration": 18, "velocity": 94}, {"time": 3029, "pitch": 58, "duration": 10, "velocity": 85}, {"time": 3035, "pitch": 63, "duration": 6, "velocity": 88}, {"time": 3041, "pitch": 48, "duration": 39, "velocity": 92}, {"time": 3047, "pitch": 60, "duration": 10, "velocity": 92}, {"time": 3053, "pitch": 63, "duration": 7, "velocity": 93}, {"time": 3059, "pitch": 67, "duration": 16, "velocity": 90}, {"time": 3071, "pitch": 55, "duration": 8, "velocity": 57}, {"time": 3077, "pitch": 60, "duration": 3, "velocity": 91}, {"time": 3077, "pitch": 63, "duration": 9, "velocity": 94}, {"time": 3083, "pitch": 60, "duration": 5, "velocity": 86}, {"time": 3089, "pitch": 53, "duration": 22, "velocity": 95}, {"time": 3089, "pitch": 65, "duration": 7, "velocity": 89}, {"time": 3095, "pitch": 60, "duration": 12, "velocity": 82}, {"time": 3101, "pitch": 65, "duration": 5, "velocity": 96}, {"time": 3113, "pitch": 38, "duration": 20, "velocity": 83}, {"time": 3113, "pitch": 62, "duration": 22, "velocity": 81}, {"time": 3113, "pitch": 65, "duration": 22, "velocity": 91}, {"time": 3113, "pitch": 68, "duration": 22, "velocity": 85}, {"time": 3137, "pitch": 46, "duration": 14, "velocity": 92}, {"time": 3137, "pitch": 58, "duration": 7, "velocity": 86}, {"time": 3137, "pitch": 61, "duration": 7, "velocity": 87}, {"time": 3143, "pitch": 53, "duration": 8, "velocity": 87}, {"time": 3149, "pitch": 58, "duration": 1, "velocity": 84}, {"time": 3149, "pitch": 61, "duration": 8, "velocity": 94}, {"time": 3155, "pitch": 58, "duration": 5, "velocity": 92}, {"time": 3161, "pitch": 51, "duration": 14, "velocity": 94}, {"time": 3161, "pitch": 63, "duration": 6, "velocity": 90}, {"time": 3167, "pitch": 58, "duration": 7, "velocity": 81}, {"time": 3173, "pitch": 63, "duration": 7, "velocity": 95}, {"time": 3179, "pitch": 65, "duration": 4, "velocity": 93}, {"time": 3185, "pitch": 44, "duration": 2, "velocity": 92}, {"time": 3185, "pitch": 63, "duration": 12, "velocity": 87}, {"time": 3185, "pitch": 68, "duration": 13, "velocity": 86}, {"time": 3191, "pitch": 51, "duration": 40, "velocity": 88}, {"time": 3197, "pitch": 60, "duration": 33, "velocity": 93}, {"time": 3203, "pitch": 63, "duration": 4, "velocity": 93}, {"time": 3209, "pitch": 63, "duration": 3, "velocity": 93}, {"time": 3209, "pitch": 72, "duration": 5, "velocity": 94}, {"time": 3215, "pitch": 63, "duration": 7, "velocity": 88}, {"time": 3215, "pitch": 70, "duration": 8, "velocity": 97}, {"time": 3221, "pitch": 68, "duration": 8, "velocity": 93}, {"time": 3227, "pitch": 63, "duration": 4, "velocity": 86}, {"time": 3233, "pitch": 44, "duration": 31, "velocity": 88}, {"time": 3233, "pitch": 63, "duration": 6, "velocity": 89}, {"time": 3233, "pitch": 68, "duration": 8, "velocity": 88}, {"time": 3239, "pitch": 51, "duration": 9, "velocity": 85}, {"time": 3245, "pitch": 63, "duration": 4, "velocity": 82}, {"time": 3245, "pitch": 68, "duration": 8, "velocity": 84}, {"time": 3251, "pitch": 51, "duration": 12, "velocity": 79}, {"time": 3251, "pitch": 63, "duration": 3, "velocity": 81}, {"time": 3257, "pitch": 63, "duration": 3, "velocity": 93}, {"time": 3257, "pitch": 68, "duration": 8, "velocity": 93}, {"time": 3257, "pitch": 72, "duration": 7, "velocity": 98}, {"time": 3263, "pitch": 63, "duration": 3, "velocity": 64}, {"time": 3269, "pitch": 63, "duration": 3, "velocity": 91}, {"time": 3269, "pitch": 68, "duration": 2, "velocity": 87}, {"time": 3281, "pitch": 48, "duration": 42, "velocity": 92}, {"time": 3281, "pitch": 60, "duration": 8, "velocity": 87}, {"time": 3281, "pitch": 63, "duration": 10, "velocity": 92}, {"time": 3287, "pitch": 55, "duration": 9, "velocity": 72}, {"time": 3293, "pitch": 60, "duration": 4, "velocity": 84}, {"time": 3293, "pitch": 63, "duration": 7, "velocity": 87}, {"time": 3299, "pitch": 55, "duration": 8, "velocity": 75}, {"time": 3305, "pitch": 60, "duration": 8, "velocity": 88}, {"time": 3305, "pitch": 63, "duration": 9, "velocity": 93}, {"time": 3305, "pitch": 67, "duration": 8, "velocity": 92}, {"time": 3311, "pitch": 55, "duration": 8, "velocity": 64}, {"time": 3317, "pitch": 60, "duration": 3, "velocity": 92}, {"time": 3317, "pitch": 63, "duration": 8, "velocity": 94}, {"time": 3317, "pitch": 67, "duration": 9, "velocity": 93}, {"time": 3323, "pitch": 60, "duration": 4, "velocity": 87}, {"time": 3329, "pitch": 41, "duration": 2, "velocity": 94}, {"time": 3329, "pitch": 65, "duration": 10, "velocity": 92}, {"time": 3329, "pitch": 68, "duration": 10, "velocity": 91}, {"time": 3335, "pitch": 53, "duration": 33, "velocity": 93}, {"time": 3341, "pitch": 65, "duration": 5, "velocity": 92}, {"time": 3341, "pitch": 68, "duration": 7, "velocity": 92}, {"time": 3347, "pitch": 60, "duration": 8, "velocity": 81}, {"time": 3353, "pitch": 65, "duration": 8, "velocity": 92}, {"time": 3353, "pitch": 68, "duration": 8, "velocity": 91}, {"time": 3353, "pitch": 72, "duration": 7, "velocity": 93}, {"time": 3359, "pitch": 60, "duration": 8, "velocity": 70}, {"time": 3365, "pitch": 65, "duration": 2, "velocity": 95}, {"time": 3365, "pitch": 68, "duration": 7, "velocity": 94}, {"time": 3371, "pitch": 65, "duration": 5, "velocity": 88}, {"time": 3377, "pitch": 51, "duration": 39, "velocity": 94}, {"time": 3377, "pitch": 63, "duration": 9, "velocity": 87}, {"time": 3377, "pitch": 67, "duration": 9, "velocity": 88}, {"time": 3377, "pitch": 70, "duration": 12, "velocity": 91}, {"time": 3383, "pitch": 58, "duration": 7, "velocity": 79}, {"time": 3389, "pitch": 63, "duration": 6, "velocity": 93}, {"time": 3395, "pitch": 58, "duration": 9, "velocity": 73}, {"time": 3401, "pitch": 63, "duration": 9, "velocity": 93}, {"time": 3401, "pitch": 67, "duration": 9, "velocity": 94}, {"time": 3401, "pitch": 70, "duration": 8, "velocity": 93}, {"time": 3407, "pitch": 58, "duration": 7, "velocity": 81}, {"time": 3413, "pitch": 63, "duration": 3, "velocity": 93}, {"time": 3413, "pitch": 67, "duration": 7, "velocity": 94}, {"time": 3413, "pitch": 75, "duration": 7, "velocity": 96}, {"time": 3419, "pitch": 63, "duration": 2, "velocity": 94}, {"time": 3425, "pitch": 48, "duration": 41, "velocity": 92}, {"time": 3425, "pitch": 60, "duration": 9, "velocity": 87}, {"time": 3425, "pitch": 63, "duration": 10, "velocity": 92}, {"time": 3431, "pitch": 55, "duration": 9, "velocity": 81}, {"time": 3437, "pitch": 60, "duration": 6, "velocity": 86}, {"time": 3437, "pitch": 63, "duration": 6, "velocity": 89}, {"time": 3443, "pitch": 55, "duration": 8, "velocity": 76}, {"time": 3449, "pitch": 60, "duration": 5, "velocity": 93}, {"time": 3449, "pitch": 67, "duration": 5, "velocity": 93}, {"time": 3455, "pitch": 55, "duration": 7, "velocity": 73}, {"time": 3461, "pitch": 60, "duration": 3, "velocity": 94}, {"time": 3461, "pitch": 63, "duration": 5, "velocity": 95}, {"time": 3467, "pitch": 60, "duration": 3, "velocity": 93}, {"time": 3473, "pitch": 53, "duration": 4, "velocity": 92}, {"time": 3473, "pitch": 60, "duration": 6, "velocity": 93}, {"time": 3473, "pitch": 65, "duration": 8, "velocity": 94}, {"time": 3479, "pitch": 53, "duration": 33, "velocity": 89}, {"time": 3485, "pitch": 65, "duration": 8, "velocity": 93}, {"time": 3485, "pitch": 68, "duration": 8, "velocity": 94}, {"time": 3491, "pitch": 60, "duration": 8, "velocity": 83}, {"time": 3497, "pitch": 65, "duration": 9, "velocity": 93}, {"time": 3497, "pitch": 68, "duration": 9, "velocity": 93}, {"time": 3497, "pitch": 72, "duration": 8, "velocity": 94}, {"time": 3503, "pitch": 60, "duration": 8, "velocity": 71}, {"time": 3509, "pitch": 65, "duration": 3, "velocity": 97}, {"time": 3509, "pitch": 68, "duration": 7, "velocity": 96}, {"time": 3515, "pitch": 65, "duration": 3, "velocity": 95}, {"time": 3521, "pitch": 46, "duration": 37, "velocity": 92}, {"time": 3521, "pitch": 58, "duration": 9, "velocity": 87}, {"time": 3521, "pitch": 61, "duration": 9, "velocity": 89}, {"time": 3527, "pitch": 53, "duration": 8, "velocity": 84}, {"time": 3533, "pitch": 58, "duration": 7, "velocity": 91}, {"time": 3533, "pitch": 61, "duration": 7, "velocity": 93}, {"time": 3539, "pitch": 53, "duration": 8, "velocity": 83}, {"time": 3545, "pitch": 58, "duration": 6, "velocity": 93}, {"time": 3545, "pitch": 65, "duration": 5, "velocity": 97}, {"time": 3551, "pitch": 53, "duration": 7, "velocity": 84}, {"time": 3557, "pitch": 58, "duration": 2, "velocity": 94}, {"time": 3557, "pitch": 61, "duration": 4, "velocity": 98}, {"time": 3563, "pitch": 58, "duration": 2, "velocity": 92}, {"time": 3569, "pitch": 51, "duration": 47, "velocity": 97}, {"time": 3569, "pitch": 63, "duration": 8, "velocity": 88}, {"time": 3569, "pitch": 67, "duration": 8, "velocity": 88}, {"time": 3575, "pitch": 58, "duration": 7, "velocity": 86}, {"time": 3581, "pitch": 63, "duration": 7, "velocity": 94}, {"time": 3581, "pitch": 67, "duration": 6, "velocity": 94}, {"time": 3581, "pitch": 70, "duration": 7, "velocity": 94}, {"time": 3587, "pitch": 58, "duration": 8, "velocity": 82}, {"time": 3593, "pitch": 63, "duration": 11, "velocity": 98}, {"time": 3593, "pitch": 75, "duration": 7, "velocity": 101}, {"time": 3599, "pitch": 58, "duration": 8, "velocity": 87}, {"time": 3605, "pitch": 63, "duration": 1, "velocity": 76}, {"time": 3605, "pitch": 73, "duration": 12, "velocity": 98}, {"time": 3611, "pitch": 58, "duration": 6, "velocity": 86}, {"time": 3617, "pitch": 44, "duration": 31, "velocity": 88}, {"time": 3617, "pitch": 63, "duration": 6, "velocity": 89}, {"time": 3617, "pitch": 68, "duration": 8, "velocity": 88}, {"time": 3623, "pitch": 51, "duration": 9, "velocity": 85}, {"time": 3629, "pitch": 63, "duration": 4, "velocity": 82}, {"time": 3629, "pitch": 68, "duration": 8, "velocity": 84}, {"time": 3635, "pitch": 51, "duration": 12, "velocity": 79}, {"time": 3635, "pitch": 63, "duration": 3, "velocity": 81}, {"time": 3641, "pitch": 63, "duration": 3, "velocity": 93}, {"time": 3641, "pitch": 68, "duration": 8, "velocity": 93}, {"time": 3641, "pitch": 72, "duration": 7, "velocity": 98}, {"time": 3647, "pitch": 63, "duration": 3, "velocity": 64}, {"time": 3653, "pitch": 63, "duration": 3, "velocity": 91}, {"time": 3653, "pitch": 68, "duration": 2, "velocity": 87}, {"time": 3665, "pitch": 48, "duration": 42, "velocity": 92}, {"time": 3665, "pitch": 60, "duration": 8, "velocity": 87}, {"time": 3665, "pitch": 63, "duration": 10, "velocity": 92}, {"time": 3671, "pitch": 55, "duration": 9, "velocity": 72}, {"time": 3677, "pitch": 60, "duration": 4, "velocity": 84}, {"time": 3677, "pitch": 63, "duration": 7, "velocity": 87}, {"time": 3683, "pitch": 55, "duration": 8, "velocity": 75}, {"time": 3689, "pitch": 60, "duration": 8, "velocity": 88}, {"time": 3689, "pitch": 63, "duration": 9, "velocity": 93}, {"time": 3689, "pitch": 67, "duration": 8, "velocity": 92}, {"time": 3695, "pitch": 55, "duration": 8, "velocity": 64}, {"time": 3701, "pitch": 60, "duration": 3, "velocity": 92}, {"time": 3701, "pitch": 63, "duration": 8, "velocity": 94}, {"time": 3701, "pitch": 67, "duration": 9, "velocity": 93}, {"time": 3707, "pitch": 60, "duration": 4, "velocity": 87}, {"time": 3713, "pitch": 41, "duration": 2, "velocity": 94}, {"time": 3713, "pitch": 65, "duration": 10, "velocity": 92}, {"time": 3713, "pitch": 68, "duration": 10, "velocity": 91}, {"time": 3719, "pitch": 53, "duration": 33, "velocity": 93}, {"time": 3725, "pitch": 65, "duration": 5, "velocity": 92}, {"time": 3725, "pitch": 68, "duration": 7, "velocity": 92}, {"time": 3731, "pitch": 60, "duration": 8, "velocity": 81}, {"time": 3737, "pitch": 65, "duration": 8, "velocity": 92}, {"time": 3737, "pitch": 68, "duration": 8, "velocity": 91}, {"time": 3737, "pitch": 72, "duration": 7, "velocity": 93}, {"time": 3743, "pitch": 60, "duration": 8, "velocity": 70}, {"time": 3749, "pitch": 65, "duration": 2, "velocity": 95}, {"time": 3749, "pitch": 68, "duration": 7, "velocity": 94}, {"time": 3755, "pitch": 65, "duration": 5, "velocity": 88}, {"time": 3761, "pitch": 51, "duration": 39, "velocity": 94}, {"time": 3761, "pitch": 63, "duration": 9, "velocity": 87}, {"time": 3761, "pitch": 67, "duration": 9, "velocity": 88}, {"time": 3761, "pitch": 70, "duration": 12, "velocity": 91}, {"time": 3767, "pitch": 58, "duration": 7, "velocity": 79}, {"time": 3773, "pitch": 63, "duration": 6, "velocity": 93}, {"time": 3779, "pitch": 58, "duration": 9, "velocity": 73}, {"time": 3785, "pitch": 63, "duration": 9, "velocity": 93}, {"time": 3785, "pitch": 67, "duration": 9, "velocity": 94}, {"time": 3785, "pitch": 70, "duration": 8, "velocity": 93}, {"time": 3791, "pitch": 58, "duration": 7, "velocity": 81}, {"time": 3797, "pitch": 63, "duration": 3, "velocity": 93}, {"time": 3797, "pitch": 67, "duration": 7, "velocity": 94}, {"time": 3797, "pitch": 75, "duration": 7, "velocity": 96}, {"time": 3803, "pitch": 63, "duration": 2, "velocity": 94}, {"time": 3809, "pitch": 48, "duration": 41, "velocity": 92}, {"time": 3809, "pitch": 60, "duration": 9, "velocity": 87}, {"time": 3809, "pitch": 63, "duration": 10, "velocity": 92}, {"time": 3815, "pitch": 55, "duration": 9, "velocity": 81}, {"time": 3821, "pitch": 60, "duration": 6, "velocity": 86}, {"time": 3821, "pitch": 63, "duration": 6, "velocity": 89}, {"time": 3827, "pitch": 55, "duration": 8, "velocity": 76}, {"time": 3833, "pitch": 60, "duration": 5, "velocity": 93}, {"time": 3833, "pitch": 67, "duration": 5, "velocity": 93}, {"time": 3839, "pitch": 55, "duration": 7, "velocity": 73}, {"time": 3845, "pitch": 60, "duration": 3, "velocity": 94}, {"time": 3845, "pitch": 63, "duration": 5, "velocity": 95}, {"time": 3851, "pitch": 60, "duration": 3, "velocity": 93}, {"time": 3857, "pitch": 53, "duration": 4, "velocity": 92}, {"time": 3857, "pitch": 60, "duration": 6, "velocity": 93}, {"time": 3857, "pitch": 65, "duration": 8, "velocity": 94}, {"time": 3863, "pitch": 53, "duration": 33, "velocity": 89}, {"time": 3869, "pitch": 65, "duration": 8, "velocity": 93}, {"time": 3869, "pitch": 68, "duration": 8, "velocity": 94}, {"time": 3875, "pitch": 60, "duration": 8, "velocity": 83}, {"time": 3881, "pitch": 65, "duration": 9, "velocity": 93}, {"time": 3881, "pitch": 68, "duration": 9, "velocity": 93}, {"time": 3881, "pitch": 72, "duration": 8, "velocity": 94}, {"time": 3887, "pitch": 60, "duration": 8, "velocity": 71}, {"time": 3893, "pitch": 65, "duration": 3, "velocity": 97}, {"time": 3893, "pitch": 68, "duration": 7, "velocity": 96}, {"time": 3899, "pitch": 65, "duration": 3, "velocity": 95}, {"time": 3905, "pitch": 46, "duration": 37, "velocity": 92}, {"time": 3905, "pitch": 58, "duration": 9, "velocity": 87}, {"time": 3905, "pitch": 61, "duration": 9, "velocity": 89}, {"time": 3911, "pitch": 53, "duration": 8, "velocity": 84}, {"time": 3917, "pitch": 58, "duration": 7, "velocity": 91}, {"time": 3917, "pitch": 61, "duration": 7, "velocity": 93}, {"time": 3923, "pitch": 53, "duration": 8, "velocity": 83}, {"time": 3929, "pitch": 58, "duration": 6, "velocity": 93}, {"time": 3929, "pitch": 65, "duration": 5, "velocity": 97}, {"time": 3935, "pitch": 53, "duration": 7, "velocity": 84}, {"time": 3941, "pitch": 58, "duration": 2, "velocity": 94}, {"time": 3941, "pitch": 61, "duration": 4, "velocity": 98}, {"time": 3947, "pitch": 58, "duration": 2, "velocity": 92}, {"time": 3953, "pitch": 51, "duration": 47, "velocity": 97}, {"time": 3953, "pitch": 63, "duration": 8, "velocity": 88}, {"time": 3953, "pitch": 67, "duration": 8, "velocity": 88}, {"time": 3959, "pitch": 58, "duration": 7, "velocity": 86}, {"time": 3965, "pitch": 63, "duration": 7, "velocity": 94}, {"time": 3965, "pitch": 67, "duration": 6, "velocity": 94}, {"time": 3965, "pitch": 70, "duration": 7, "velocity": 94}, {"time": 3971, "pitch": 58, "duration": 8, "velocity": 82}, {"time": 3977, "pitch": 63, "duration": 11, "velocity": 98}, {"time": 3977, "pitch": 75, "duration": 7, "velocity": 101}, {"time": 3983, "pitch": 58, "duration": 8, "velocity": 87}, {"time": 3989, "pitch": 63, "duration": 1, "velocity": 76}, {"time": 3989, "pitch": 73, "duration": 6, "velocity": 98}, {"time": 3995, "pitch": 58, "duration": 6, "velocity": 86}, {"time": 3995, "pitch": 72, "duration": 6, "velocity": 98}, {"time": 4001, "pitch": 46, "duration": 15, "velocity": 93}, {"time": 4001, "pitch": 58, "duration": 10, "velocity": 86}, {"time": 4001, "pitch": 61, "duration": 10, "velocity": 89}, {"time": 4007, "pitch": 53, "duration": 9, "velocity": 82}, {"time": 4013, "pitch": 58, "duration": 3, "velocity": 91}, {"time": 4013, "pitch": 61, "duration": 7, "velocity": 93}, {"time": 4019, "pitch": 58, "duration": 2, "velocity": 86}, {"time": 4025, "pitch": 51, "duration": 14, "velocity": 94}, {"time": 4025, "pitch": 63, "duration": 9, "velocity": 82}, {"time": 4025, "pitch": 67, "duration": 9, "velocity": 88}, {"time": 4031, "pitch": 58, "duration": 7, "velocity": 84}, {"time": 4037, "pitch": 63, "duration": 8, "velocity": 92}, {"time": 4043, "pitch": 67, "duration": 4, "velocity": 92}, {"time": 4049, "pitch": 44, "duration": 3, "velocity": 92}, {"time": 4049, "pitch": 68, "duration": 16, "velocity": 84}, {"time": 4055, "pitch": 51, "duration": 43, "velocity": 89}, {"time": 4061, "pitch": 60, "duration": 37, "velocity": 87}, {"time": 4067, "pitch": 63, "duration": 7, "velocity": 86}, {"time": 4073, "pitch": 72, "duration": 10, "velocity": 90}, {"time": 4079, "pitch": 63, "duration": 4, "velocity": 77}, {"time": 4085, "pitch": 63, "duration": 4, "velocity": 87}, {"time": 4085, "pitch": 68, "duration": 13, "velocity": 86}, {"time": 4091, "pitch": 63, "duration": 7, "velocity": 74}, {"time": 4094, "pitch": 65, "duration": 3, "velocity": 70}, {"time": 4095, "pitch": 70, "duration": 16, "velocity": 83}, {"time": 4096, "pitch": 46, "duration": 16, "velocity": 92}, {"time": 4096, "pitch": 73, "duration": 14, "velocity": 89}, {"time": 4103, "pitch": 53, "duration": 6, "velocity": 80}, {"time": 4109, "pitch": 65, "duration": 9, "velocity": 98}, {"time": 4116, "pitch": 73, "duration": 2, "velocity": 93}, {"time": 4124, "pitch": 63, "duration": 19, "velocity": 77}, {"time": 4125, "pitch": 39, "duration": 3, "velocity": 81}, {"time": 4125, "pitch": 67, "duration": 16, "velocity": 81}, {"time": 4127, "pitch": 70, "duration": 17, "velocity": 84}, {"time": 4133, "pitch": 51, "duration": 56, "velocity": 90}, {"time": 4141, "pitch": 58, "duration": 47, "velocity": 83}, {"time": 4149, "pitch": 70, "duration": 9, "velocity": 83}, {"time": 4157, "pitch": 63, "duration": 8, "velocity": 67}, {"time": 4159, "pitch": 75, "duration": 34, "velocity": 79}, {"time": 4160, "pitch": 70, "duration": 32, "velocity": 71}, {"time": 4187, "pitch": 56, "duration": 4, "velocity": 81}, {"time": 4188, "pitch": 60, "duration": 6, "velocity": 83}, {"time": 4189, "pitch": 44, "duration": 41, "velocity": 92}, {"time": 4189, "pitch": 63, "duration": 5, "velocity": 81}, {"time": 4190, "pitch": 68, "duration": 7, "velocity": 90}, {"time": 4196, "pitch": 51, "duration": 38, "velocity": 69}, {"time": 4202, "pitch": 68, "duration": 5, "velocity": 85}, {"time": 4208, "pitch": 70, "duration": 6, "velocity": 93}, {"time": 4214, "pitch": 72, "duration": 21, "velocity": 96}, {"time": 4238, "pitch": 65, "duration": 3, "velocity": 84}, {"time": 4239, "pitch": 68, "duration": 9, "velocity": 80}, {"time": 4240, "pitch": 41, "duration": 2, "velocity": 94}, {"time": 4240, "pitch": 72, "duration": 9, "velocity": 92}, {"time": 4246, "pitch": 53, "duration": 41, "velocity": 90}, {"time": 4253, "pitch": 65, "duration": 3, "velocity": 86}, {"time": 4253, "pitch": 72, "duration": 4, "velocity": 88}, {"time": 4259, "pitch": 70, "duration": 4, "velocity": 88}, {"time": 4259, "pitch": 65, "duration": 3, "velocity": 89}, {"time": 4265, "pitch": 68, "duration": 16, "velocity": 96}, {"time": 4265, "pitch": 65, "duration": 8, "velocity": 93}, {"time": 4271, "pitch": 60, "duration": 16, "velocity": 83}, {"time": 4277, "pitch": 65, "duration": 8, "velocity": 85}, {"time": 4288, "pitch": 65, "duration": 3, "velocity": 90}, {"time": 4290, "pitch": 70, "duration": 7, "velocity": 89}, {"time": 4290, "pitch": 46, "duration": 19, "velocity": 88}, {"time": 4295, "pitch": 53, "duration": 12, "velocity": 85}, {"time": 4301, "pitch": 70, "duration": 5, "velocity": 101}, {"time": 4301, "pitch": 65, "duration": 4, "velocity": 98}, {"time": 4308, "pitch": 68, "duration": 7, "velocity": 97}, {"time": 4315, "pitch": 65, "duration": 9, "velocity": 101}, {"time": 4315, "pitch": 39, "duration": 2, "velocity": 93}, {"time": 4321, "pitch": 51, "duration": 39, "velocity": 93}, {"time": 4329, "pitch": 63, "duration": 9, "velocity": 101}, {"time": 4336, "pitch": 65, "duration": 25, "velocity": 101}, {"time": 4360, "pitch": 63, "duration": 4, "velocity": 80}, {"time": 4362, "pitch": 44, "duration": 95, "velocity": 92}, {"time": 4363, "pitch": 68, "duration": 5, "velocity": 85}, {"time": 4369, "pitch": 51, "duration": 87, "velocity": 80}, {"time": 4373, "pitch": 56, "duration": 3, "velocity": 83}, {"time": 4376, "pitch": 58, "duration": 2, "velocity": 87}, {"time": 4379, "pitch": 60, "duration": 3, "velocity": 88}, {"time": 4382, "pitch": 63, "duration": 4, "velocity": 81}, {"time": 4386, "pitch": 68, "duration": 3, "velocity": 82}, {"time": 4389, "pitch": 70, "duration": 3, "velocity": 87}, {"time": 4394, "pitch": 72, "duration": 5, "velocity": 92}, {"time": 4398, "pitch": 75, "duration": 3, "velocity": 93}, {"time": 4402, "pitch": 77, "duration": 3, "velocity": 91}, {"time": 4407, "pitch": 80, "duration": 2, "velocity": 91}, {"time": 4412, "pitch": 82, "duration": 3, "velocity": 83}, {"time": 4417, "pitch": 84, "duration": 7, "velocity": 83}, {"time": 4422, "pitch": 87, "duration": 6, "velocity": 83}, {"time": 4428, "pitch": 89, "duration": 7, "velocity": 84}, {"time": 4434, "pitch": 92, "duration": 4, "velocity": 86}, {"time": 4443, "pitch": 96, "duration": 1, "velocity": 84}], "annotations": [{"time": 69, "annotation": {"number": 64, "value": 127}, "group": "control_change"}, {"time": 113, "annotation": {"number": 64, "value": 0}, "group": "control_change"}, {"time": 116, "annotation": {"number": 64, "value": 127}, "group": "control_change"}, {"time": 162, "annotation": {"number": 64, "value": 127}, "group": "control_change"}, {"time": 207, "annotation": {"number": 64, "value": 0}, "group": "control_change"}, {"time": 213, "annotation": {"number": 64, "value": 127}, "group": "control_change"}, {"time": 255, "annotation": {"number": 64, "value": 0}, "group": "control_change"}, {"time": 257, "annotation": {"number": 64, "value": 127}, "group": "control_change"}, {"time": 304, "annotation": {"number": 64, "value": 0}, "group": "control_change"}, {"time": 311, "annotation": {"number": 64, "value": 127}, "group": "control_change"}, {"time": 351, "annotation": {"number": 64, "value": 127}, "group": "control_change"}, {"time": 351, "annotation": {"number": 64, "value": 0}, "group": "control_change"}, {"time": 379, "annotation": {"number": 64, "value": 0}, "group": "control_change"}, {"time": 385, "annotation": {"number": 64, "value": 127}, "group": "control_change"}, {"time": 398, "annotation": {"number": 64, "value": 0}, "group": "control_change"}, {"time": 403, "annotation": {"number": 64, "value": 127}, "group": "control_change"}, {"time": 446, "annotation": {"number": 64, "value": 0}, "group": "control_change"}, {"time": 452, "annotation": {"number": 64, "value": 127}, "group": "control_change"}, {"time": 495, "annotation": {"number": 64, "value": 0}, "group": "control_change"}, {"time": 500, "annotation": {"number": 64, "value": 127}, "group": "control_change"}, {"time": 543, "annotation": {"number": 64, "value": 0}, "group": "control_change"}, {"time": 548, "annotation": {"number": 64, "value": 127}, "group": "control_change"}, {"time": 593, "annotation": {"number": 64, "value": 0}, "group": "control_change"}, {"time": 597, "annotation": {"number": 64, "value": 127}, "group": "control_change"}, {"time": 641, "annotation": {"number": 64, "value": 0}, "group": "control_change"}, {"time": 646, "annotation": {"number": 64, "value": 127}, "group": "control_change"}, {"time": 689, "annotation": {"number": 64, "value": 0}, "group": "control_change"}, {"time": 693, "annotation": {"number": 64, "value": 127}, "group": "control_change"}, {"time": 712, "annotation": {"number": 64, "value": 0}, "group": "control_change"}, {"time": 714, "annotation": {"number": 64, "value": 127}, "group": "control_change"}, {"time": 732, "annotation": {"number": 64, "value": 0}, "group": "control_change"}, {"time": 741, "annotation": {"number": 64, "value": 127}, "group": "control_change"}, {"time": 784, "annotation": {"number": 64, "value": 0}, "group": "control_change"}, {"time": 790, "annotation": {"number": 64, "value": 127}, "group": "control_change"}, {"time": 832, "annotation": {"number": 64, "value": 0}, "group": "control_change"}, {"time": 836, "annotation": {"number": 64, "value": 127}, "group": "control_change"}, {"time": 879, "annotation": {"number": 64, "value": 0}, "group": "control_change"}, {"time": 884, "annotation": {"number": 64, "value": 127}, "group": "control_change"}, {"time": 927, "annotation": {"number": 64, "value": 0}, "group": "control_change"}, {"time": 932, "annotation": {"number": 64, "value": 127}, "group": "control_change"}, {"time": 977, "annotation": {"number": 64, "value": 0}, "group": "control_change"}, {"time": 981, "annotation": {"number": 64, "value": 127}, "group": "control_change"}, {"time": 1025, "annotation": {"number": 64, "value": 0}, "group": "control_change"}, {"time": 1030, "annotation": {"number": 64, "value": 127}, "group": "control_change"}, {"time": 1073, "annotation": {"number": 64, "value": 0}, "group": "control_change"}, {"time": 1077, "annotation": {"number": 64, "value": 127}, "group": "control_change"}, {"time": 1096, "annotation": {"number": 64, "value": 0}, "group": "control_change"}, {"time": 1098, "annotation": {"number": 64, "value": 127}, "group": "control_change"}, {"time": 1116, "annotation": {"number": 64, "value": 0}, "group": "control_change"}, {"time": 1121, "annotation": {"number": 64, "value": 127}, "group": "control_change"}, {"time": 1144, "annotation": {"number": 64, "value": 0}, "group": "control_change"}, {"time": 1148, "annotation": {"number": 64, "value": 127}, "group": "control_change"}, {"time": 1165, "annotation": {"number": 64, "value": 0}, "group": "control_change"}, {"time": 1169, "annotation": {"number": 64, "value": 127}, "group": "control_change"}, {"time": 1214, "annotation": {"number": 64, "value": 0}, "group": "control_change"}, {"time": 1219, "annotation": {"number": 64, "value": 127}, "group": "control_change"}, {"time": 1264, "annotation": {"number": 64, "value": 0}, "group": "control_change"}, {"time": 1270, "annotation": {"number": 64, "value": 127}, "group": "control_change"}, {"time": 1301, "annotation": {"number": 64, "value": 127}, "group": "control_change"}, {"time": 1308, "annotation": {"number": 64, "value": 0}, "group": "control_change"}, {"time": 1313, "annotation": {"number": 64, "value": 0}, "group": "control_change"}, {"time": 1313, "annotation": {"number": 64, "value": 127}, "group": "control_change"}, {"time": 1364, "annotation": {"number": 64, "value": 127}, "group": "control_change"}, {"time": 1383, "annotation": {"number": 64, "value": 0}, "group": "control_change"}, {"time": 1386, "annotation": {"number": 64, "value": 127}, "group": "control_change"}, {"time": 1410, "annotation": {"number": 64, "value": 0}, "group": "control_change"}, {"time": 1416, "annotation": {"number": 64, "value": 127}, "group": "control_change"}, {"time": 1455, "annotation": {"number": 64, "value": 0}, "group": "control_change"}, {"time": 1457, "annotation": {"number": 64, "value": 127}, "group": "control_change"}, {"time": 1507, "annotation": {"number": 64, "value": 127}, "group": "control_change"}, {"time": 1552, "annotation": {"number": 64, "value": 0}, "group": "control_change"}, {"time": 1556, "annotation": {"number": 64, "value": 127}, "group": "control_change"}, {"time": 1599, "annotation": {"number": 64, "value": 0}, "group": "control_change"}, {"time": 1603, "annotation": {"number": 64, "value": 127}, "group": "control_change"}, {"time": 1648, "annotation": {"number": 64, "value": 0}, "group": "control_change"}, {"time": 1654, "annotation": {"number": 64, "value": 127}, "group": "control_change"}, {"time": 1685, "annotation": {"number": 64, "value": 127}, "group": "control_change"}, {"time": 1692, "annotation": {"number": 64, "value": 0}, "group": "control_change"}, {"time": 1697, "annotation": {"number": 64, "value": 0}, "group": "control_change"}, {"time": 1697, "annotation": {"number": 64, "value": 127}, "group": "control_change"}, {"time": 1748, "annotation": {"number": 64, "value": 127}, "group": "control_change"}, {"time": 1767, "annotation": {"number": 64, "value": 0}, "group": "control_change"}, {"time": 1770, "annotation": {"number": 64, "value": 127}, "group": "control_change"}, {"time": 1794, "annotation": {"number": 64, "value": 0}, "group": "control_change"}, {"time": 1800, "annotation": {"number": 64, "value": 127}, "group": "control_change"}, {"time": 1839, "annotation": {"number": 64, "value": 0}, "group": "control_change"}, {"time": 1841, "annotation": {"number": 64, "value": 127}, "group": "control_change"}, {"time": 1891, "annotation": {"number": 64, "value": 127}, "group": "control_change"}, {"time": 1936, "annotation": {"number": 64, "value": 0}, "group": "control_change"}, {"time": 1940, "annotation": {"number": 64, "value": 127}, "group": "control_change"}, {"time": 1977, "annotation": {"number": 11, "value": 22}, "group": "control_change"}, {"time": 1977, "annotation": {"number": 11, "value": 9}, "group": "control_change"}, {"time": 1977, "annotation": {"number": 11, "value": 3}, "group": "control_change"}, {"time": 1978, "annotation": {"number": 11, "value": 0}, "group": "control_change"}, {"time": 1983, "annotation": {"number": 64, "value": 0}, "group": "control_change"}, {"time": 1990, "annotation": {"number": 64, "value": 127}, "group": "control_change"}, {"time": 2010, "annotation": {"number": 64, "value": 0}, "group": "control_change"}, {"time": 2015, "annotation": {"number": 64, "value": 127}, "group": "control_change"}, {"time": 2030, "annotation": {"number": 64, "value": 0}, "group": "control_change"}, {"time": 2033, "annotation": {"number": 64, "value": 127}, "group": "control_change"}, {"time": 2085, "annotation": {"number": 64, "value": 127}, "group": "control_change"}, {"time": 2129, "annotation": {"number": 64, "value": 0}, "group": "control_change"}, {"time": 2132, "annotation": {"number": 64, "value": 127}, "group": "control_change"}, {"time": 2178, "annotation": {"number": 64, "value": 127}, "group": "control_change"}, {"time": 2223, "annotation": {"number": 64, "value": 0}, "group": "control_change"}, {"time": 2229, "annotation": {"number": 64, "value": 127}, "group": "control_change"}, {"time": 2271, "annotation": {"number": 64, "value": 0}, "group": "control_change"}, {"time": 2273, "annotation": {"number": 64, "value": 127}, "group": "control_change"}, {"time": 2320, "annotation": {"number": 64, "value": 0}, "group": "control_change"}, {"time": 2327, "annotation": {"number": 64, "value": 127}, "group": "control_change"}, {"time": 2367, "annotation": {"number": 64, "value": 127}, "group": "control_change"}, {"time": 2367, "annotation": {"number": 64, "value": 0}, "group": "control_change"}, {"time": 2395, "annotation": {"number": 64, "value": 0}, "group": "control_change"}, {"time": 2401, "annotation": {"number": 64, "value": 127}, "group": "control_change"}, {"time": 2414, "annotation": {"number": 64, "value": 0}, "group": "control_change"}, {"time": 2419, "annotation": {"number": 64, "value": 127}, "group": "control_change"}, {"time": 2462, "annotation": {"number": 64, "value": 0}, "group": "control_change"}, {"time": 2468, "annotation": {"number": 64, "value": 127}, "group": "control_change"}, {"time": 2511, "annotation": {"number": 64, "value": 0}, "group": "control_change"}, {"time": 2516, "annotation": {"number": 64, "value": 127}, "group": "control_change"}, {"time": 2559, "annotation": {"number": 64, "value": 0}, "group": "control_change"}, {"time": 2564, "annotation": {"number": 64, "value": 127}, "group": "control_change"}, {"time": 2609, "annotation": {"number": 64, "value": 0}, "group": "control_change"}, {"time": 2613, "annotation": {"number": 64, "value": 127}, "group": "control_change"}, {"time": 2657, "annotation": {"number": 64, "value": 0}, "group": "control_change"}, {"time": 2662, "annotation": {"number": 64, "value": 127}, "group": "control_change"}, {"time": 2705, "annotation": {"number": 64, "value": 0}, "group": "control_change"}, {"time": 2709, "annotation": {"number": 64, "value": 127}, "group": "control_change"}, {"time": 2728, "annotation": {"number": 64, "value": 0}, "group": "control_change"}, {"time": 2730, "annotation": {"number": 64, "value": 127}, "group": "control_change"}, {"time": 2748, "annotation": {"number": 64, "value": 0}, "group": "control_change"}, {"time": 2757, "annotation": {"number": 64, "value": 127}, "group": "control_change"}, {"time": 2800, "annotation": {"number": 64, "value": 0}, "group": "control_change"}, {"time": 2806, "annotation": {"number": 64, "value": 127}, "group": "control_change"}, {"time": 2848, "annotation": {"number": 64, "value": 0}, "group": "control_change"}, {"time": 2852, "annotation": {"number": 64, "value": 127}, "group": "control_change"}, {"time": 2895, "annotation": {"number": 64, "value": 0}, "group": "control_change"}, {"time": 2900, "annotation": {"number": 64, "value": 127}, "group": "control_change"}, {"time": 2943, "annotation": {"number": 64, "value": 0}, "group": "control_change"}, {"time": 2948, "annotation": {"number": 64, "value": 127}, "group": "control_change"}, {"time": 2993, "annotation": {"number": 64, "value": 0}, "group": "control_change"}, {"time": 2997, "annotation": {"number": 64, "value": 127}, "group": "control_change"}, {"time": 3041, "annotation": {"number": 64, "value": 0}, "group": "control_change"}, {"time": 3046, "annotation": {"number": 64, "value": 127}, "group": "control_change"}, {"time": 3089, "annotation": {"number": 64, "value": 0}, "group": "control_change"}, {"time": 3093, "annotation": {"number": 64, "value": 127}, "group": "control_change"}, {"time": 3112, "annotation": {"number": 64, "value": 0}, "group": "control_change"}, {"time": 3114, "annotation": {"number": 64, "value": 127}, "group": "control_change"}, {"time": 3132, "annotation": {"number": 64, "value": 0}, "group": "control_change"}, {"time": 3137, "annotation": {"number": 64, "value": 127}, "group": "control_change"}, {"time": 3160, "annotation": {"number": 64, "value": 0}, "group": "control_change"}, {"time": 3164, "annotation": {"number": 64, "value": 127}, "group": "control_change"}, {"time": 3181, "annotation": {"number": 64, "value": 0}, "group": "control_change"}, {"time": 3185, "annotation": {"number": 64, "value": 127}, "group": "control_change"}, {"time": 3230, "annotation": {"number": 64, "value": 0}, "group": "control_change"}, {"time": 3235, "annotation": {"number": 64, "value": 127}, "group": "control_change"}, {"time": 3280, "annotation": {"number": 64, "value": 0}, "group": "control_change"}, {"time": 3286, "annotation": {"number": 64, "value": 127}, "group": "control_change"}, {"time": 3317, "annotation": {"number": 64, "value": 127}, "group": "control_change"}, {"time": 3324, "annotation": {"number": 64, "value": 0}, "group": "control_change"}, {"time": 3329, "annotation": {"number": 64, "value": 0}, "group": "control_change"}, {"time": 3329, "annotation": {"number": 64, "value": 127}, "group": "control_change"}, {"time": 3380, "annotation": {"number": 64, "value": 127}, "group": "control_change"}, {"time": 3399, "annotation": {"number": 64, "value": 0}, "group": "control_change"}, {"time": 3402, "annotation": {"number": 64, "value": 127}, "group": "control_change"}, {"time": 3426, "annotation": {"number": 64, "value": 0}, "group": "control_change"}, {"time": 3432, "annotation": {"number": 64, "value": 127}, "group": "control_change"}, {"time": 3471, "annotation": {"number": 64, "value": 0}, "group": "control_change"}, {"time": 3473, "annotation": {"number": 64, "value": 127}, "group": "control_change"}, {"time": 3523, "annotation": {"number": 64, "value": 127}, "group": "control_change"}, {"time": 3568, "annotation": {"number": 64, "value": 0}, "group": "control_change"}, {"time": 3572, "annotation": {"number": 64, "value": 127}, "group": "control_change"}, {"time": 3615, "annotation": {"number": 64, "value": 0}, "group": "control_change"}, {"time": 3619, "annotation": {"number": 64, "value": 127}, "group": "control_change"}, {"time": 3664, "annotation": {"number": 64, "value": 0}, "group": "control_change"}, {"time": 3670, "annotation": {"number": 64, "value": 127}, "group": "control_change"}, {"time": 3701, "annotation": {"number": 64, "value": 127}, "group": "control_change"}, {"time": 3708, "annotation": {"number": 64, "value": 0}, "group": "control_change"}, {"time": 3713, "annotation": {"number": 64, "value": 0}, "group": "control_change"}, {"time": 3713, "annotation": {"number": 64, "value": 127}, "group": "control_change"}, {"time": 3764, "annotation": {"number": 64, "value": 127}, "group": "control_change"}, {"time": 3783, "annotation": {"number": 64, "value": 0}, "group": "control_change"}, {"time": 3786, "annotation": {"number": 64, "value": 127}, "group": "control_change"}, {"time": 3810, "annotation": {"number": 64, "value": 0}, "group": "control_change"}, {"time": 3816, "annotation": {"number": 64, "value": 127}, "group": "control_change"}, {"time": 3855, "annotation": {"number": 64, "value": 0}, "group": "control_change"}, {"time": 3857, "annotation": {"number": 64, "value": 127}, "group": "control_change"}, {"time": 3907, "annotation": {"number": 64, "value": 127}, "group": "control_change"}, {"time": 3952, "annotation": {"number": 64, "value": 0}, "group": "control_change"}, {"time": 3956, "annotation": {"number": 64, "value": 127}, "group": "control_change"}, {"time": 3993, "annotation": {"number": 11, "value": 22}, "group": "control_change"}, {"time": 3993, "annotation": {"number": 11, "value": 9}, "group": "control_change"}, {"time": 3993, "annotation": {"number": 11, "value": 3}, "group": "control_change"}, {"time": 3994, "annotation": {"number": 11, "value": 0}, "group": "control_change"}, {"time": 3999, "annotation": {"number": 64, "value": 0}, "group": "control_change"}, {"time": 4006, "annotation": {"number": 64, "value": 127}, "group": "control_change"}, {"time": 4026, "annotation": {"number": 64, "value": 0}, "group": "control_change"}, {"time": 4031, "annotation": {"number": 64, "value": 127}, "group": "control_change"}, {"time": 4046, "annotation": {"number": 64, "value": 0}, "group": "control_change"}, {"time": 4049, "annotation": {"number": 64, "value": 127}, "group": "control_change"}, {"time": 4097, "annotation": {"number": 64, "value": 127}, "group": "control_change"}, {"time": 4123, "annotation": {"number": 64, "value": 0}, "group": "control_change"}, {"time": 4125, "annotation": {"number": 64, "value": 127}, "group": "control_change"}, {"time": 4160, "annotation": {"number": 64, "value": 127}, "group": "control_change"}, {"time": 4190, "annotation": {"number": 64, "value": 127}, "group": "control_change"}, {"time": 4193, "annotation": {"number": 64, "value": 0}, "group": "control_change"}, {"time": 4196, "annotation": {"number": 64, "value": 127}, "group": "control_change"}, {"time": 4200, "annotation": {"number": 64, "value": 0}, "group": "control_change"}, {"time": 4234, "annotation": {"number": 64, "value": 0}, "group": "control_change"}, {"time": 4237, "annotation": {"number": 64, "value": 0}, "group": "control_change"}, {"time": 4237, "annotation": {"number": 64, "value": 127}, "group": "control_change"}, {"time": 4240, "annotation": {"number": 64, "value": 127}, "group": "control_change"}, {"time": 4284, "annotation": {"number": 64, "value": 0}, "group": "control_change"}, {"time": 4287, "annotation": {"number": 64, "value": 0}, "group": "control_change"}, {"time": 4289, "annotation": {"number": 64, "value": 127}, "group": "control_change"}, {"time": 4291, "annotation": {"number": 64, "value": 127}, "group": "control_change"}, {"time": 4311, "annotation": {"number": 64, "value": 0}, "group": "control_change"}, {"time": 4313, "annotation": {"number": 64, "value": 0}, "group": "control_change"}, {"time": 4314, "annotation": {"number": 64, "value": 127}, "group": "control_change"}, {"time": 4316, "annotation": {"number": 64, "value": 127}, "group": "control_change"}, {"time": 4337, "annotation": {"number": 64, "value": 0}, "group": "control_change"}, {"time": 4344, "annotation": {"number": 64, "value": 127}, "group": "control_change"}, {"time": 4360, "annotation": {"number": 64, "value": 0}, "group": "control_change"}, {"time": 4363, "annotation": {"number": 64, "value": 127}, "group": "control_change"}, {"time": 4480, "annotation": {"number": 64, "value": 0}, "group": "control_change"}]}]}