{"metadata": {"schema_version": "0.2", "title": "None", "source_filename": "405.mid", "source_format": "midi"}, "resolution": 12, "tempos": [{"time": 0, "qpm": 65.00013541694878}, {"time": 1621, "qpm": 64.79824526351827}, {"time": 1624, "qpm": 64.39481750508719}, {"time": 1627, "qpm": 63.99146780429276}, {"time": 1630, "qpm": 63.58808486465806}, {"time": 1633, "qpm": 63.18456527439477}, {"time": 1636, "qpm": 62.781141800625925}, {"time": 1639, "qpm": 62.289384020281425}, {"time": 1643, "qpm": 63.488234043025976}, {"time": 1644, "qpm": 65.00013541694878}], "time_signatures": [{"time": 0, "numerator": 1, "denominator": 4}], "tracks": [{"program": 0, "is_drum": false, "name": "MELODY", "notes": [{"time": 360, "pitch": 66, "duration": 6, "velocity": 92}, {"time": 366, "pitch": 68, "duration": 4, "velocity": 89}, {"time": 372, "pitch": 69, "duration": 6, "velocity": 87}, {"time": 378, "pitch": 68, "duration": 6, "velocity": 97}, {"time": 384, "pitch": 66, "duration": 11, "velocity": 91}, {"time": 396, "pitch": 64, "duration": 4, "velocity": 97}, {"time": 399, "pitch": 61, "duration": 5, "velocity": 97}, {"time": 405, "pitch": 64, "duration": 47, "velocity": 96}, {"time": 456, "pitch": 66, "duration": 6, "velocity": 95}, {"time": 462, "pitch": 68, "duration": 6, "velocity": 97}, {"time": 468, "pitch": 69, "duration": 6, "velocity": 92}, {"time": 474, "pitch": 68, "duration": 6, "velocity": 92}, {"time": 480, "pitch": 66, "duration": 6, "velocity": 87}, {"time": 486, "pitch": 64, "duration": 6, "velocity": 97}, {"time": 492, "pitch": 61, "duration": 6, "velocity": 97}, {"time": 498, "pitch": 64, "duration": 6, "velocity": 94}, {"time": 504, "pitch": 71, "duration": 6, "velocity": 94}, {"time": 510, "pitch": 73, "duration": 24, "velocity": 88}, {"time": 534, "pitch": 73, "duration": 1, "velocity": 96}, {"time": 540, "pitch": 73, "duration": 17, "velocity": 97}, {"time": 558, "pitch": 71, "duration": 6, "velocity": 97}, {"time": 564, "pitch": 74, "duration": 18, "velocity": 97}, {"time": 585, "pitch": 71, "duration": 3, "velocity": 96}, {"time": 588, "pitch": 71, "duration": 1, "velocity": 96}, {"time": 606, "pitch": 69, "duration": 7, "velocity": 89}, {"time": 612, "pitch": 73, "duration": 21, "velocity": 96}, {"time": 633, "pitch": 73, "duration": 1, "velocity": 87}, {"time": 636, "pitch": 73, "duration": 1, "velocity": 97}, {"time": 642, "pitch": 66, "duration": 6, "velocity": 97}, {"time": 648, "pitch": 69, "duration": 6, "velocity": 82}, {"time": 654, "pitch": 66, "duration": 18, "velocity": 94}, {"time": 672, "pitch": 69, "duration": 6, "velocity": 90}, {"time": 678, "pitch": 71, "duration": 3, "velocity": 96}, {"time": 684, "pitch": 66, "duration": 22, "velocity": 96}, {"time": 708, "pitch": 64, "duration": 36, "velocity": 96}, {"time": 744, "pitch": 66, "duration": 6, "velocity": 96}, {"time": 750, "pitch": 68, "duration": 6, "velocity": 97}, {"time": 756, "pitch": 69, "duration": 6, "velocity": 96}, {"time": 762, "pitch": 68, "duration": 6, "velocity": 97}, {"time": 768, "pitch": 66, "duration": 6, "velocity": 96}, {"time": 774, "pitch": 64, "duration": 6, "velocity": 105}, {"time": 780, "pitch": 61, "duration": 6, "velocity": 97}, {"time": 786, "pitch": 64, "duration": 54, "velocity": 98}, {"time": 840, "pitch": 66, "duration": 5, "velocity": 92}, {"time": 846, "pitch": 68, "duration": 6, "velocity": 91}, {"time": 849, "pitch": 69, "duration": 8, "velocity": 96}, {"time": 858, "pitch": 68, "duration": 6, "velocity": 95}, {"time": 864, "pitch": 66, "duration": 6, "velocity": 96}, {"time": 870, "pitch": 64, "duration": 6, "velocity": 98}, {"time": 876, "pitch": 61, "duration": 6, "velocity": 98}, {"time": 882, "pitch": 64, "duration": 6, "velocity": 96}, {"time": 888, "pitch": 71, "duration": 6, "velocity": 97}, {"time": 894, "pitch": 73, "duration": 24, "velocity": 96}, {"time": 918, "pitch": 73, "duration": 1, "velocity": 98}, {"time": 924, "pitch": 73, "duration": 1, "velocity": 98}, {"time": 942, "pitch": 71, "duration": 3, "velocity": 97}, {"time": 948, "pitch": 74, "duration": 21, "velocity": 98}, {"time": 969, "pitch": 71, "duration": 4, "velocity": 91}, {"time": 972, "pitch": 71, "duration": 1, "velocity": 94}, {"time": 990, "pitch": 69, "duration": 6, "velocity": 94}, {"time": 996, "pitch": 73, "duration": 21, "velocity": 97}, {"time": 1017, "pitch": 66, "duration": 4, "velocity": 105}, {"time": 1020, "pitch": 73, "duration": 5, "velocity": 103}, {"time": 1026, "pitch": 66, "duration": 3, "velocity": 92}, {"time": 1029, "pitch": 69, "duration": 6, "velocity": 96}, {"time": 1035, "pitch": 71, "duration": 9, "velocity": 96}, {"time": 1044, "pitch": 71, "duration": 1, "velocity": 96}, {"time": 1062, "pitch": 69, "duration": 6, "velocity": 98}, {"time": 1068, "pitch": 76, "duration": 6, "velocity": 98}, {"time": 1074, "pitch": 73, "duration": 6, "velocity": 93}, {"time": 1080, "pitch": 71, "duration": 6, "velocity": 98}, {"time": 1086, "pitch": 69, "duration": 3, "velocity": 96}, {"time": 1089, "pitch": 71, "duration": 15, "velocity": 96}, {"time": 1104, "pitch": 73, "duration": 6, "velocity": 97}, {"time": 1110, "pitch": 69, "duration": 6, "velocity": 96}, {"time": 1116, "pitch": 66, "duration": 6, "velocity": 97}, {"time": 1122, "pitch": 73, "duration": 3, "velocity": 98}, {"time": 1125, "pitch": 71, "duration": 15, "velocity": 95}, {"time": 1140, "pitch": 73, "duration": 6, "velocity": 97}, {"time": 1146, "pitch": 78, "duration": 6, "velocity": 100}, {"time": 1149, "pitch": 76, "duration": 6, "velocity": 103}, {"time": 1155, "pitch": 73, "duration": 3, "velocity": 97}, {"time": 1158, "pitch": 71, "duration": 3, "velocity": 96}, {"time": 1161, "pitch": 69, "duration": 4, "velocity": 91}, {"time": 1164, "pitch": 71, "duration": 12, "velocity": 97}, {"time": 1176, "pitch": 66, "duration": 6, "velocity": 98}, {"time": 1182, "pitch": 73, "duration": 24, "velocity": 97}, {"time": 1206, "pitch": 69, "duration": 3, "velocity": 98}, {"time": 1209, "pitch": 71, "duration": 3, "velocity": 97}, {"time": 1212, "pitch": 73, "duration": 6, "velocity": 99}, {"time": 1218, "pitch": 76, "duration": 3, "velocity": 99}, {"time": 1221, "pitch": 74, "duration": 8, "velocity": 100}, {"time": 1230, "pitch": 69, "duration": 3, "velocity": 97}, {"time": 1233, "pitch": 71, "duration": 4, "velocity": 96}, {"time": 1236, "pitch": 73, "duration": 6, "velocity": 96}, {"time": 1242, "pitch": 76, "duration": 3, "velocity": 99}, {"time": 1245, "pitch": 74, "duration": 9, "velocity": 100}, {"time": 1254, "pitch": 69, "duration": 3, "velocity": 88}, {"time": 1257, "pitch": 71, "duration": 3, "velocity": 97}, {"time": 1260, "pitch": 71, "duration": 1, "velocity": 96}, {"time": 1266, "pitch": 73, "duration": 12, "velocity": 98}, {"time": 1278, "pitch": 76, "duration": 12, "velocity": 98}, {"time": 1290, "pitch": 73, "duration": 6, "velocity": 98}, {"time": 1296, "pitch": 71, "duration": 6, "velocity": 97}, {"time": 1302, "pitch": 69, "duration": 6, "velocity": 97}, {"time": 1308, "pitch": 66, "duration": 6, "velocity": 100}, {"time": 1314, "pitch": 73, "duration": 3, "velocity": 99}, {"time": 1317, "pitch": 71, "duration": 15, "velocity": 94}, {"time": 1332, "pitch": 73, "duration": 6, "velocity": 102}, {"time": 1338, "pitch": 78, "duration": 6, "velocity": 98}, {"time": 1344, "pitch": 76, "duration": 3, "velocity": 99}, {"time": 1347, "pitch": 78, "duration": 3, "velocity": 102}, {"time": 1350, "pitch": 80, "duration": 3, "velocity": 96}, {"time": 1353, "pitch": 81, "duration": 3, "velocity": 91}, {"time": 1356, "pitch": 80, "duration": 6, "velocity": 107}, {"time": 1362, "pitch": 76, "duration": 3, "velocity": 101}, {"time": 1365, "pitch": 76, "duration": 1, "velocity": 101}, {"time": 1371, "pitch": 71, "duration": 6, "velocity": 100}, {"time": 1377, "pitch": 73, "duration": 21, "velocity": 94}, {"time": 1398, "pitch": 69, "duration": 3, "velocity": 96}, {"time": 1401, "pitch": 71, "duration": 3, "velocity": 96}, {"time": 1404, "pitch": 73, "duration": 7, "velocity": 98}, {"time": 1410, "pitch": 76, "duration": 3, "velocity": 96}, {"time": 1413, "pitch": 74, "duration": 8, "velocity": 96}, {"time": 1422, "pitch": 69, "duration": 6, "velocity": 97}, {"time": 1428, "pitch": 73, "duration": 12, "velocity": 98}, {"time": 1440, "pitch": 71, "duration": 13, "velocity": 98}, {"time": 1452, "pitch": 69, "duration": 31, "velocity": 94}, {"time": 1656, "pitch": 66, "duration": 6, "velocity": 92}, {"time": 1662, "pitch": 68, "duration": 4, "velocity": 89}, {"time": 1665, "pitch": 69, "duration": 8, "velocity": 87}, {"time": 1674, "pitch": 68, "duration": 5, "velocity": 97}, {"time": 1680, "pitch": 66, "duration": 7, "velocity": 91}, {"time": 1686, "pitch": 64, "duration": 6, "velocity": 97}, {"time": 1692, "pitch": 61, "duration": 6, "velocity": 97}, {"time": 1698, "pitch": 64, "duration": 54, "velocity": 96}, {"time": 1752, "pitch": 66, "duration": 6, "velocity": 95}, {"time": 1758, "pitch": 68, "duration": 6, "velocity": 97}, {"time": 1764, "pitch": 69, "duration": 6, "velocity": 92}, {"time": 1770, "pitch": 68, "duration": 6, "velocity": 92}, {"time": 1776, "pitch": 66, "duration": 6, "velocity": 87}, {"time": 1782, "pitch": 64, "duration": 6, "velocity": 97}, {"time": 1788, "pitch": 61, "duration": 6, "velocity": 97}, {"time": 1794, "pitch": 64, "duration": 6, "velocity": 94}, {"time": 1800, "pitch": 71, "duration": 6, "velocity": 94}, {"time": 1806, "pitch": 73, "duration": 24, "velocity": 88}, {"time": 1830, "pitch": 73, "duration": 1, "velocity": 96}, {"time": 1836, "pitch": 73, "duration": 17, "velocity": 97}, {"time": 1854, "pitch": 71, "duration": 6, "velocity": 97}, {"time": 1860, "pitch": 74, "duration": 18, "velocity": 97}, {"time": 1878, "pitch": 71, "duration": 6, "velocity": 96}, {"time": 1884, "pitch": 71, "duration": 18, "velocity": 96}, {"time": 1902, "pitch": 69, "duration": 7, "velocity": 89}, {"time": 1908, "pitch": 73, "duration": 21, "velocity": 96}, {"time": 1929, "pitch": 73, "duration": 1, "velocity": 87}, {"time": 1932, "pitch": 73, "duration": 1, "velocity": 97}, {"time": 1938, "pitch": 66, "duration": 6, "velocity": 97}, {"time": 1944, "pitch": 69, "duration": 6, "velocity": 82}, {"time": 1950, "pitch": 66, "duration": 18, "velocity": 94}, {"time": 1968, "pitch": 69, "duration": 6, "velocity": 90}, {"time": 1974, "pitch": 71, "duration": 6, "velocity": 96}, {"time": 1980, "pitch": 66, "duration": 24, "velocity": 96}, {"time": 2004, "pitch": 64, "duration": 36, "velocity": 96}, {"time": 2040, "pitch": 66, "duration": 6, "velocity": 96}, {"time": 2046, "pitch": 68, "duration": 6, "velocity": 97}, {"time": 2052, "pitch": 69, "duration": 5, "velocity": 96}, {"time": 2058, "pitch": 68, "duration": 6, "velocity": 97}, {"time": 2064, "pitch": 66, "duration": 6, "velocity": 96}, {"time": 2070, "pitch": 64, "duration": 6, "velocity": 105}, {"time": 2076, "pitch": 61, "duration": 6, "velocity": 97}, {"time": 2082, "pitch": 64, "duration": 54, "velocity": 98}, {"time": 2136, "pitch": 66, "duration": 5, "velocity": 92}, {"time": 2142, "pitch": 68, "duration": 6, "velocity": 91}, {"time": 2148, "pitch": 69, "duration": 6, "velocity": 96}, {"time": 2154, "pitch": 68, "duration": 6, "velocity": 95}, {"time": 2160, "pitch": 66, "duration": 6, "velocity": 96}, {"time": 2166, "pitch": 64, "duration": 6, "velocity": 98}, {"time": 2172, "pitch": 61, "duration": 6, "velocity": 98}, {"time": 2178, "pitch": 64, "duration": 6, "velocity": 96}, {"time": 2184, "pitch": 71, "duration": 6, "velocity": 97}, {"time": 2190, "pitch": 73, "duration": 24, "velocity": 96}, {"time": 2214, "pitch": 73, "duration": 1, "velocity": 98}, {"time": 2220, "pitch": 73, "duration": 1, "velocity": 98}, {"time": 2238, "pitch": 71, "duration": 3, "velocity": 97}, {"time": 2241, "pitch": 74, "duration": 23, "velocity": 98}, {"time": 2265, "pitch": 71, "duration": 4, "velocity": 91}, {"time": 2268, "pitch": 71, "duration": 1, "velocity": 94}, {"time": 2286, "pitch": 69, "duration": 6, "velocity": 94}, {"time": 2292, "pitch": 73, "duration": 21, "velocity": 97}, {"time": 2313, "pitch": 66, "duration": 4, "velocity": 105}, {"time": 2316, "pitch": 73, "duration": 5, "velocity": 103}, {"time": 2322, "pitch": 66, "duration": 3, "velocity": 92}, {"time": 2325, "pitch": 69, "duration": 6, "velocity": 96}, {"time": 2331, "pitch": 71, "duration": 9, "velocity": 96}, {"time": 2340, "pitch": 71, "duration": 1, "velocity": 96}, {"time": 2358, "pitch": 69, "duration": 6, "velocity": 98}, {"time": 2364, "pitch": 76, "duration": 6, "velocity": 98}, {"time": 2370, "pitch": 73, "duration": 6, "velocity": 93}, {"time": 2376, "pitch": 71, "duration": 6, "velocity": 98}, {"time": 2382, "pitch": 69, "duration": 3, "velocity": 96}, {"time": 2385, "pitch": 71, "duration": 15, "velocity": 96}, {"time": 2400, "pitch": 73, "duration": 6, "velocity": 97}, {"time": 2406, "pitch": 69, "duration": 6, "velocity": 96}, {"time": 2412, "pitch": 66, "duration": 6, "velocity": 97}, {"time": 2418, "pitch": 73, "duration": 3, "velocity": 98}, {"time": 2421, "pitch": 71, "duration": 15, "velocity": 95}, {"time": 2436, "pitch": 73, "duration": 6, "velocity": 97}, {"time": 2442, "pitch": 78, "duration": 6, "velocity": 100}, {"time": 2448, "pitch": 76, "duration": 3, "velocity": 103}, {"time": 2451, "pitch": 73, "duration": 3, "velocity": 97}, {"time": 2454, "pitch": 71, "duration": 3, "velocity": 96}, {"time": 2457, "pitch": 69, "duration": 3, "velocity": 91}, {"time": 2460, "pitch": 71, "duration": 12, "velocity": 97}, {"time": 2472, "pitch": 66, "duration": 6, "velocity": 98}, {"time": 2478, "pitch": 73, "duration": 24, "velocity": 97}, {"time": 2502, "pitch": 69, "duration": 3, "velocity": 98}, {"time": 2505, "pitch": 71, "duration": 3, "velocity": 97}, {"time": 2508, "pitch": 73, "duration": 6, "velocity": 99}, {"time": 2514, "pitch": 76, "duration": 3, "velocity": 99}, {"time": 2517, "pitch": 74, "duration": 9, "velocity": 100}, {"time": 2526, "pitch": 69, "duration": 3, "velocity": 97}, {"time": 2529, "pitch": 71, "duration": 3, "velocity": 96}, {"time": 2532, "pitch": 73, "duration": 6, "velocity": 96}, {"time": 2538, "pitch": 76, "duration": 3, "velocity": 99}, {"time": 2541, "pitch": 74, "duration": 9, "velocity": 100}, {"time": 2550, "pitch": 69, "duration": 3, "velocity": 88}, {"time": 2553, "pitch": 71, "duration": 3, "velocity": 97}, {"time": 2556, "pitch": 71, "duration": 6, "velocity": 96}, {"time": 2562, "pitch": 73, "duration": 12, "velocity": 98}, {"time": 2574, "pitch": 76, "duration": 12, "velocity": 98}, {"time": 2586, "pitch": 73, "duration": 6, "velocity": 98}, {"time": 2592, "pitch": 71, "duration": 6, "velocity": 97}, {"time": 2598, "pitch": 69, "duration": 6, "velocity": 97}, {"time": 2604, "pitch": 66, "duration": 6, "velocity": 100}, {"time": 2610, "pitch": 73, "duration": 3, "velocity": 99}, {"time": 2613, "pitch": 71, "duration": 15, "velocity": 94}, {"time": 2628, "pitch": 73, "duration": 6, "velocity": 102}, {"time": 2634, "pitch": 78, "duration": 6, "velocity": 98}, {"time": 2640, "pitch": 76, "duration": 3, "velocity": 99}, {"time": 2643, "pitch": 78, "duration": 3, "velocity": 102}, {"time": 2646, "pitch": 80, "duration": 3, "velocity": 96}, {"time": 2649, "pitch": 81, "duration": 3, "velocity": 91}, {"time": 2652, "pitch": 80, "duration": 6, "velocity": 107}, {"time": 2658, "pitch": 76, "duration": 3, "velocity": 101}, {"time": 2661, "pitch": 76, "duration": 1, "velocity": 101}, {"time": 2667, "pitch": 71, "duration": 6, "velocity": 100}, {"time": 2673, "pitch": 73, "duration": 21, "velocity": 94}, {"time": 2694, "pitch": 69, "duration": 3, "velocity": 96}, {"time": 2697, "pitch": 71, "duration": 3, "velocity": 96}, {"time": 2700, "pitch": 73, "duration": 6, "velocity": 98}, {"time": 2706, "pitch": 76, "duration": 3, "velocity": 96}, {"time": 2709, "pitch": 74, "duration": 9, "velocity": 96}, {"time": 2718, "pitch": 69, "duration": 6, "velocity": 97}, {"time": 2724, "pitch": 73, "duration": 12, "velocity": 98}, {"time": 2736, "pitch": 71, "duration": 12, "velocity": 98}, {"time": 2748, "pitch": 69, "duration": 36, "velocity": 94}, {"time": 2784, "pitch": 73, "duration": 6, "velocity": 97}, {"time": 2790, "pitch": 69, "duration": 6, "velocity": 96}, {"time": 2796, "pitch": 66, "duration": 6, "velocity": 97}, {"time": 2802, "pitch": 73, "duration": 3, "velocity": 98}, {"time": 2805, "pitch": 71, "duration": 15, "velocity": 95}, {"time": 2820, "pitch": 73, "duration": 6, "velocity": 97}, {"time": 2826, "pitch": 78, "duration": 6, "velocity": 100}, {"time": 2832, "pitch": 76, "duration": 3, "velocity": 103}, {"time": 2835, "pitch": 73, "duration": 3, "velocity": 97}, {"time": 2838, "pitch": 71, "duration": 3, "velocity": 96}, {"time": 2841, "pitch": 69, "duration": 3, "velocity": 91}, {"time": 2844, "pitch": 71, "duration": 12, "velocity": 97}, {"time": 2856, "pitch": 66, "duration": 6, "velocity": 98}, {"time": 2862, "pitch": 73, "duration": 24, "velocity": 97}, {"time": 2886, "pitch": 69, "duration": 3, "velocity": 98}, {"time": 2889, "pitch": 71, "duration": 3, "velocity": 97}, {"time": 2892, "pitch": 73, "duration": 6, "velocity": 99}, {"time": 2898, "pitch": 76, "duration": 3, "velocity": 99}, {"time": 2901, "pitch": 74, "duration": 9, "velocity": 100}, {"time": 2910, "pitch": 69, "duration": 3, "velocity": 97}, {"time": 2913, "pitch": 71, "duration": 3, "velocity": 96}, {"time": 2916, "pitch": 73, "duration": 6, "velocity": 96}, {"time": 2922, "pitch": 76, "duration": 3, "velocity": 99}, {"time": 2925, "pitch": 74, "duration": 9, "velocity": 100}, {"time": 2934, "pitch": 69, "duration": 3, "velocity": 88}, {"time": 2937, "pitch": 71, "duration": 3, "velocity": 97}, {"time": 2940, "pitch": 71, "duration": 6, "velocity": 96}, {"time": 2946, "pitch": 73, "duration": 12, "velocity": 98}, {"time": 2958, "pitch": 76, "duration": 12, "velocity": 98}, {"time": 2970, "pitch": 73, "duration": 6, "velocity": 98}, {"time": 2976, "pitch": 71, "duration": 6, "velocity": 97}, {"time": 2982, "pitch": 69, "duration": 6, "velocity": 97}, {"time": 2988, "pitch": 66, "duration": 6, "velocity": 100}, {"time": 2994, "pitch": 73, "duration": 3, "velocity": 99}, {"time": 2997, "pitch": 71, "duration": 15, "velocity": 94}, {"time": 3012, "pitch": 73, "duration": 6, "velocity": 102}, {"time": 3018, "pitch": 78, "duration": 6, "velocity": 98}, {"time": 3024, "pitch": 76, "duration": 3, "velocity": 99}, {"time": 3027, "pitch": 78, "duration": 3, "velocity": 102}, {"time": 3030, "pitch": 80, "duration": 3, "velocity": 96}, {"time": 3033, "pitch": 81, "duration": 3, "velocity": 91}, {"time": 3036, "pitch": 80, "duration": 6, "velocity": 107}, {"time": 3042, "pitch": 76, "duration": 3, "velocity": 101}, {"time": 3045, "pitch": 76, "duration": 1, "velocity": 101}, {"time": 3051, "pitch": 71, "duration": 6, "velocity": 100}, {"time": 3057, "pitch": 73, "duration": 21, "velocity": 94}, {"time": 3078, "pitch": 69, "duration": 3, "velocity": 96}, {"time": 3081, "pitch": 71, "duration": 3, "velocity": 96}, {"time": 3084, "pitch": 73, "duration": 6, "velocity": 98}, {"time": 3090, "pitch": 76, "duration": 3, "velocity": 96}, {"time": 3093, "pitch": 74, "duration": 9, "velocity": 96}, {"time": 3102, "pitch": 69, "duration": 6, "velocity": 97}, {"time": 3108, "pitch": 73, "duration": 12, "velocity": 98}, {"time": 3120, "pitch": 71, "duration": 12, "velocity": 98}, {"time": 3132, "pitch": 69, "duration": 42, "velocity": 94}, {"time": 3174, "pitch": 69, "duration": 1, "velocity": 97}, {"time": 3177, "pitch": 71, "duration": 4, "velocity": 97}, {"time": 3183, "pitch": 73, "duration": 7, "velocity": 102}, {"time": 3189, "pitch": 76, "duration": 4, "velocity": 97}, {"time": 3192, "pitch": 74, "duration": 10, "velocity": 97}, {"time": 3201, "pitch": 69, "duration": 7, "velocity": 94}, {"time": 3210, "pitch": 73, "duration": 18, "velocity": 96}, {"time": 3225, "pitch": 71, "duration": 9, "velocity": 96}, {"time": 3234, "pitch": 71, "duration": 1, "velocity": 95}, {"time": 3240, "pitch": 69, "duration": 36, "velocity": 84}]}, {"program": 0, "is_drum": false, "name": "PIANO", "notes": [{"time": 8, "pitch": 50, "duration": 35, "velocity": 98}, {"time": 8, "pitch": 66, "duration": 5, "velocity": 89}, {"time": 8, "pitch": 62, "duration": 5, "velocity": 90}, {"time": 14, "pitch": 73, "duration": 2, "velocity": 87}, {"time": 18, "pitch": 71, "duration": 2, "velocity": 96}, {"time": 55, "pitch": 56, "duration": 22, "velocity": 82}, {"time": 55, "pitch": 49, "duration": 22, "velocity": 79}, {"time": 55, "pitch": 61, "duration": 8, "velocity": 88}, {"time": 55, "pitch": 59, "duration": 8, "velocity": 87}, {"time": 61, "pitch": 73, "duration": 2, "velocity": 95}, {"time": 64, "pitch": 71, "duration": 22, "velocity": 92}, {"time": 107, "pitch": 68, "duration": 5, "velocity": 84}, {"time": 107, "pitch": 64, "duration": 5, "velocity": 87}, {"time": 107, "pitch": 40, "duration": 37, "velocity": 97}, {"time": 114, "pitch": 73, "duration": 2, "velocity": 88}, {"time": 117, "pitch": 71, "duration": 1, "velocity": 98}, {"time": 156, "pitch": 42, "duration": 47, "velocity": 86}, {"time": 156, "pitch": 61, "duration": 8, "velocity": 86}, {"time": 156, "pitch": 68, "duration": 7, "velocity": 90}, {"time": 162, "pitch": 49, "duration": 8, "velocity": 60}, {"time": 168, "pitch": 61, "duration": 7, "velocity": 87}, {"time": 168, "pitch": 68, "duration": 5, "velocity": 85}, {"time": 174, "pitch": 49, "duration": 8, "velocity": 59}, {"time": 180, "pitch": 61, "duration": 9, "velocity": 85}, {"time": 180, "pitch": 69, "duration": 6, "velocity": 92}, {"time": 186, "pitch": 49, "duration": 7, "velocity": 63}, {"time": 192, "pitch": 61, "duration": 10, "velocity": 92}, {"time": 192, "pitch": 68, "duration": 11, "velocity": 88}, {"time": 198, "pitch": 49, "duration": 6, "velocity": 93}, {"time": 204, "pitch": 47, "duration": 8, "velocity": 66}, {"time": 207, "pitch": 54, "duration": 5, "velocity": 66}, {"time": 210, "pitch": 59, "duration": 4, "velocity": 69}, {"time": 213, "pitch": 62, "duration": 4, "velocity": 69}, {"time": 216, "pitch": 49, "duration": 9, "velocity": 75}, {"time": 219, "pitch": 57, "duration": 7, "velocity": 77}, {"time": 222, "pitch": 61, "duration": 3, "velocity": 84}, {"time": 225, "pitch": 64, "duration": 4, "velocity": 93}, {"time": 228, "pitch": 38, "duration": 60, "velocity": 109}, {"time": 228, "pitch": 62, "duration": 6, "velocity": 86}, {"time": 228, "pitch": 66, "duration": 6, "velocity": 85}, {"time": 231, "pitch": 50, "duration": 60, "velocity": 81}, {"time": 234, "pitch": 57, "duration": 57, "velocity": 90}, {"time": 237, "pitch": 62, "duration": 62, "velocity": 91}, {"time": 347, "pitch": 57, "duration": 13, "velocity": 80}, {"time": 348, "pitch": 62, "duration": 12, "velocity": 87}, {"time": 348, "pitch": 47, "duration": 15, "velocity": 91}, {"time": 348, "pitch": 66, "duration": 13, "velocity": 82}, {"time": 372, "pitch": 64, "duration": 12, "velocity": 83}, {"time": 372, "pitch": 40, "duration": 4, "velocity": 85}, {"time": 372, "pitch": 68, "duration": 12, "velocity": 82}, {"time": 373, "pitch": 71, "duration": 12, "velocity": 75}, {"time": 396, "pitch": 45, "duration": 38, "velocity": 93}, {"time": 396, "pitch": 57, "duration": 10, "velocity": 82}, {"time": 396, "pitch": 61, "duration": 7, "velocity": 86}, {"time": 402, "pitch": 52, "duration": 20, "velocity": 80}, {"time": 408, "pitch": 59, "duration": 7, "velocity": 92}, {"time": 414, "pitch": 61, "duration": 4, "velocity": 101}, {"time": 420, "pitch": 57, "duration": 8, "velocity": 83}, {"time": 420, "pitch": 64, "duration": 9, "velocity": 96}, {"time": 432, "pitch": 57, "duration": 5, "velocity": 90}, {"time": 432, "pitch": 61, "duration": 5, "velocity": 91}, {"time": 444, "pitch": 47, "duration": 15, "velocity": 92}, {"time": 444, "pitch": 57, "duration": 9, "velocity": 78}, {"time": 444, "pitch": 62, "duration": 14, "velocity": 86}, {"time": 450, "pitch": 54, "duration": 7, "velocity": 55}, {"time": 456, "pitch": 57, "duration": 2, "velocity": 81}, {"time": 468, "pitch": 52, "duration": 12, "velocity": 98}, {"time": 468, "pitch": 64, "duration": 10, "velocity": 77}, {"time": 468, "pitch": 68, "duration": 13, "velocity": 86}, {"time": 468, "pitch": 71, "duration": 12, "velocity": 90}, {"time": 474, "pitch": 59, "duration": 6, "velocity": 82}, {"time": 480, "pitch": 64, "duration": 2, "velocity": 85}, {"time": 492, "pitch": 45, "duration": 38, "velocity": 94}, {"time": 492, "pitch": 57, "duration": 12, "velocity": 87}, {"time": 492, "pitch": 61, "duration": 4, "velocity": 77}, {"time": 492, "pitch": 64, "duration": 9, "velocity": 77}, {"time": 498, "pitch": 52, "duration": 21, "velocity": 85}, {"time": 504, "pitch": 59, "duration": 6, "velocity": 96}, {"time": 510, "pitch": 61, "duration": 3, "velocity": 98}, {"time": 516, "pitch": 57, "duration": 7, "velocity": 87}, {"time": 516, "pitch": 64, "duration": 6, "velocity": 97}, {"time": 522, "pitch": 52, "duration": 7, "velocity": 57}, {"time": 528, "pitch": 57, "duration": 2, "velocity": 95}, {"time": 528, "pitch": 61, "duration": 2, "velocity": 93}, {"time": 537, "pitch": 68, "duration": 3, "velocity": 81}, {"time": 540, "pitch": 44, "duration": 19, "velocity": 88}, {"time": 540, "pitch": 71, "duration": 7, "velocity": 94}, {"time": 540, "pitch": 74, "duration": 7, "velocity": 85}, {"time": 546, "pitch": 68, "duration": 7, "velocity": 74}, {"time": 552, "pitch": 74, "duration": 12, "velocity": 100}, {"time": 564, "pitch": 49, "duration": 15, "velocity": 88}, {"time": 570, "pitch": 56, "duration": 9, "velocity": 87}, {"time": 576, "pitch": 61, "duration": 6, "velocity": 88}, {"time": 576, "pitch": 68, "duration": 6, "velocity": 93}, {"time": 588, "pitch": 42, "duration": 18, "velocity": 91}, {"time": 588, "pitch": 54, "duration": 3, "velocity": 85}, {"time": 588, "pitch": 57, "duration": 3, "velocity": 97}, {"time": 594, "pitch": 54, "duration": 9, "velocity": 83}, {"time": 600, "pitch": 66, "duration": 10, "velocity": 91}, {"time": 600, "pitch": 73, "duration": 10, "velocity": 90}, {"time": 612, "pitch": 47, "duration": 24, "velocity": 89}, {"time": 612, "pitch": 59, "duration": 11, "velocity": 82}, {"time": 612, "pitch": 63, "duration": 9, "velocity": 83}, {"time": 612, "pitch": 68, "duration": 9, "velocity": 87}, {"time": 618, "pitch": 54, "duration": 17, "velocity": 55}, {"time": 624, "pitch": 59, "duration": 12, "velocity": 91}, {"time": 624, "pitch": 63, "duration": 12, "velocity": 84}, {"time": 624, "pitch": 68, "duration": 12, "velocity": 91}, {"time": 636, "pitch": 47, "duration": 1, "velocity": 89}, {"time": 636, "pitch": 57, "duration": 13, "velocity": 80}, {"time": 636, "pitch": 62, "duration": 9, "velocity": 85}, {"time": 642, "pitch": 54, "duration": 9, "velocity": 54}, {"time": 648, "pitch": 62, "duration": 8, "velocity": 95}, {"time": 654, "pitch": 54, "duration": 18, "velocity": 72}, {"time": 660, "pitch": 57, "duration": 9, "velocity": 86}, {"time": 660, "pitch": 66, "duration": 12, "velocity": 89}, {"time": 672, "pitch": 57, "duration": 3, "velocity": 87}, {"time": 672, "pitch": 62, "duration": 7, "velocity": 94}, {"time": 678, "pitch": 57, "duration": 2, "velocity": 87}, {"time": 684, "pitch": 40, "duration": 1, "velocity": 97}, {"time": 684, "pitch": 59, "duration": 4, "velocity": 91}, {"time": 684, "pitch": 64, "duration": 6, "velocity": 90}, {"time": 690, "pitch": 52, "duration": 38, "velocity": 79}, {"time": 696, "pitch": 59, "duration": 14, "velocity": 96}, {"time": 702, "pitch": 69, "duration": 5, "velocity": 89}, {"time": 708, "pitch": 64, "duration": 6, "velocity": 91}, {"time": 708, "pitch": 71, "duration": 6, "velocity": 92}, {"time": 714, "pitch": 59, "duration": 13, "velocity": 79}, {"time": 717, "pitch": 64, "duration": 3, "velocity": 80}, {"time": 720, "pitch": 68, "duration": 2, "velocity": 82}, {"time": 720, "pitch": 71, "duration": 7, "velocity": 93}, {"time": 720, "pitch": 76, "duration": 7, "velocity": 97}, {"time": 732, "pitch": 50, "duration": 15, "velocity": 96}, {"time": 732, "pitch": 62, "duration": 9, "velocity": 87}, {"time": 732, "pitch": 66, "duration": 8, "velocity": 84}, {"time": 732, "pitch": 69, "duration": 9, "velocity": 82}, {"time": 738, "pitch": 57, "duration": 8, "velocity": 78}, {"time": 744, "pitch": 62, "duration": 2, "velocity": 86}, {"time": 744, "pitch": 66, "duration": 5, "velocity": 88}, {"time": 744, "pitch": 69, "duration": 7, "velocity": 91}, {"time": 756, "pitch": 40, "duration": 3, "velocity": 91}, {"time": 756, "pitch": 64, "duration": 13, "velocity": 91}, {"time": 756, "pitch": 68, "duration": 16, "velocity": 89}, {"time": 762, "pitch": 52, "duration": 10, "velocity": 93}, {"time": 768, "pitch": 59, "duration": 4, "velocity": 96}, {"time": 774, "pitch": 64, "duration": 4, "velocity": 97}, {"time": 780, "pitch": 45, "duration": 37, "velocity": 88}, {"time": 780, "pitch": 64, "duration": 4, "velocity": 88}, {"time": 780, "pitch": 69, "duration": 5, "velocity": 84}, {"time": 786, "pitch": 52, "duration": 6, "velocity": 84}, {"time": 792, "pitch": 59, "duration": 10, "velocity": 91}, {"time": 798, "pitch": 52, "duration": 7, "velocity": 83}, {"time": 804, "pitch": 57, "duration": 8, "velocity": 89}, {"time": 804, "pitch": 64, "duration": 7, "velocity": 98}, {"time": 810, "pitch": 52, "duration": 8, "velocity": 84}, {"time": 816, "pitch": 57, "duration": 3, "velocity": 94}, {"time": 816, "pitch": 61, "duration": 3, "velocity": 96}, {"time": 828, "pitch": 47, "duration": 16, "velocity": 94}, {"time": 828, "pitch": 59, "duration": 9, "velocity": 88}, {"time": 828, "pitch": 62, "duration": 13, "velocity": 92}, {"time": 834, "pitch": 54, "duration": 7, "velocity": 80}, {"time": 840, "pitch": 59, "duration": 9, "velocity": 94}, {"time": 852, "pitch": 40, "duration": 2, "velocity": 95}, {"time": 852, "pitch": 59, "duration": 3, "velocity": 90}, {"time": 852, "pitch": 64, "duration": 4, "velocity": 95}, {"time": 858, "pitch": 52, "duration": 11, "velocity": 87}, {"time": 864, "pitch": 59, "duration": 5, "velocity": 97}, {"time": 870, "pitch": 68, "duration": 6, "velocity": 98}, {"time": 876, "pitch": 45, "duration": 40, "velocity": 96}, {"time": 876, "pitch": 64, "duration": 6, "velocity": 92}, {"time": 876, "pitch": 69, "duration": 6, "velocity": 93}, {"time": 882, "pitch": 52, "duration": 19, "velocity": 85}, {"time": 888, "pitch": 59, "duration": 6, "velocity": 90}, {"time": 894, "pitch": 61, "duration": 5, "velocity": 101}, {"time": 900, "pitch": 57, "duration": 9, "velocity": 89}, {"time": 900, "pitch": 61, "duration": 9, "velocity": 91}, {"time": 900, "pitch": 64, "duration": 9, "velocity": 97}, {"time": 906, "pitch": 52, "duration": 9, "velocity": 73}, {"time": 912, "pitch": 57, "duration": 1, "velocity": 91}, {"time": 912, "pitch": 61, "duration": 1, "velocity": 90}, {"time": 912, "pitch": 64, "duration": 2, "velocity": 97}, {"time": 924, "pitch": 44, "duration": 17, "velocity": 94}, {"time": 924, "pitch": 68, "duration": 4, "velocity": 89}, {"time": 924, "pitch": 71, "duration": 7, "velocity": 97}, {"time": 924, "pitch": 74, "duration": 7, "velocity": 97}, {"time": 936, "pitch": 68, "duration": 4, "velocity": 88}, {"time": 936, "pitch": 71, "duration": 3, "velocity": 95}, {"time": 936, "pitch": 74, "duration": 4, "velocity": 99}, {"time": 948, "pitch": 49, "duration": 15, "velocity": 86}, {"time": 948, "pitch": 61, "duration": 9, "velocity": 92}, {"time": 948, "pitch": 68, "duration": 8, "velocity": 90}, {"time": 954, "pitch": 56, "duration": 8, "velocity": 77}, {"time": 960, "pitch": 61, "duration": 8, "velocity": 98}, {"time": 960, "pitch": 68, "duration": 8, "velocity": 92}, {"time": 972, "pitch": 42, "duration": 13, "velocity": 97}, {"time": 978, "pitch": 54, "duration": 7, "velocity": 98}, {"time": 984, "pitch": 57, "duration": 6, "velocity": 94}, {"time": 984, "pitch": 61, "duration": 12, "velocity": 91}, {"time": 990, "pitch": 54, "duration": 5, "velocity": 75}, {"time": 996, "pitch": 51, "duration": 15, "velocity": 88}, {"time": 996, "pitch": 63, "duration": 3, "velocity": 87}, {"time": 996, "pitch": 66, "duration": 13, "velocity": 78}, {"time": 996, "pitch": 69, "duration": 10, "velocity": 86}, {"time": 1002, "pitch": 57, "duration": 9, "velocity": 74}, {"time": 1008, "pitch": 63, "duration": 7, "velocity": 92}, {"time": 1014, "pitch": 69, "duration": 7, "velocity": 92}, {"time": 1020, "pitch": 47, "duration": 39, "velocity": 88}, {"time": 1020, "pitch": 59, "duration": 8, "velocity": 89}, {"time": 1020, "pitch": 62, "duration": 12, "velocity": 92}, {"time": 1020, "pitch": 66, "duration": 13, "velocity": 89}, {"time": 1026, "pitch": 54, "duration": 8, "velocity": 80}, {"time": 1032, "pitch": 59, "duration": 10, "velocity": 97}, {"time": 1038, "pitch": 54, "duration": 8, "velocity": 81}, {"time": 1044, "pitch": 59, "duration": 8, "velocity": 91}, {"time": 1044, "pitch": 66, "duration": 8, "velocity": 87}, {"time": 1050, "pitch": 54, "duration": 8, "velocity": 65}, {"time": 1056, "pitch": 59, "duration": 2, "velocity": 96}, {"time": 1056, "pitch": 62, "duration": 2, "velocity": 86}, {"time": 1062, "pitch": 47, "duration": 2, "velocity": 96}, {"time": 1068, "pitch": 40, "duration": 2, "velocity": 96}, {"time": 1068, "pitch": 64, "duration": 12, "velocity": 88}, {"time": 1068, "pitch": 68, "duration": 14, "velocity": 90}, {"time": 1074, "pitch": 52, "duration": 17, "velocity": 88}, {"time": 1080, "pitch": 59, "duration": 11, "velocity": 100}, {"time": 1086, "pitch": 64, "duration": 9, "velocity": 110}, {"time": 1092, "pitch": 52, "duration": 16, "velocity": 101}, {"time": 1092, "pitch": 68, "duration": 7, "velocity": 83}, {"time": 1092, "pitch": 71, "duration": 5, "velocity": 92}, {"time": 1092, "pitch": 76, "duration": 5, "velocity": 97}, {"time": 1095, "pitch": 59, "duration": 8, "velocity": 91}, {"time": 1098, "pitch": 64, "duration": 4, "velocity": 98}, {"time": 1101, "pitch": 68, "duration": 10, "velocity": 103}, {"time": 1104, "pitch": 56, "duration": 4, "velocity": 98}, {"time": 1107, "pitch": 59, "duration": 3, "velocity": 96}, {"time": 1110, "pitch": 64, "duration": 2, "velocity": 98}, {"time": 1116, "pitch": 50, "duration": 18, "velocity": 99}, {"time": 1116, "pitch": 62, "duration": 12, "velocity": 93}, {"time": 1116, "pitch": 66, "duration": 9, "velocity": 91}, {"time": 1122, "pitch": 57, "duration": 12, "velocity": 80}, {"time": 1128, "pitch": 66, "duration": 7, "velocity": 96}, {"time": 1128, "pitch": 69, "duration": 8, "velocity": 93}, {"time": 1134, "pitch": 62, "duration": 2, "velocity": 96}, {"time": 1140, "pitch": 52, "duration": 14, "velocity": 98}, {"time": 1140, "pitch": 64, "duration": 9, "velocity": 92}, {"time": 1140, "pitch": 68, "duration": 9, "velocity": 91}, {"time": 1146, "pitch": 59, "duration": 8, "velocity": 83}, {"time": 1152, "pitch": 64, "duration": 2, "velocity": 98}, {"time": 1152, "pitch": 68, "duration": 2, "velocity": 92}, {"time": 1164, "pitch": 49, "duration": 12, "velocity": 97}, {"time": 1164, "pitch": 61, "duration": 13, "velocity": 89}, {"time": 1164, "pitch": 64, "duration": 8, "velocity": 98}, {"time": 1170, "pitch": 56, "duration": 6, "velocity": 78}, {"time": 1176, "pitch": 64, "duration": 4, "velocity": 101}, {"time": 1176, "pitch": 68, "duration": 5, "velocity": 98}, {"time": 1188, "pitch": 42, "duration": 15, "velocity": 96}, {"time": 1188, "pitch": 54, "duration": 9, "velocity": 88}, {"time": 1188, "pitch": 57, "duration": 7, "velocity": 92}, {"time": 1188, "pitch": 61, "duration": 7, "velocity": 89}, {"time": 1194, "pitch": 49, "duration": 9, "velocity": 84}, {"time": 1200, "pitch": 54, "duration": 4, "velocity": 96}, {"time": 1200, "pitch": 66, "duration": 6, "velocity": 91}, {"time": 1212, "pitch": 47, "duration": 14, "velocity": 97}, {"time": 1212, "pitch": 59, "duration": 9, "velocity": 91}, {"time": 1212, "pitch": 62, "duration": 9, "velocity": 96}, {"time": 1218, "pitch": 54, "duration": 6, "velocity": 80}, {"time": 1224, "pitch": 59, "duration": 7, "velocity": 98}, {"time": 1230, "pitch": 62, "duration": 2, "velocity": 97}, {"time": 1236, "pitch": 52, "duration": 16, "velocity": 100}, {"time": 1236, "pitch": 64, "duration": 8, "velocity": 96}, {"time": 1236, "pitch": 68, "duration": 9, "velocity": 91}, {"time": 1242, "pitch": 59, "duration": 8, "velocity": 90}, {"time": 1248, "pitch": 64, "duration": 7, "velocity": 96}, {"time": 1248, "pitch": 68, "duration": 6, "velocity": 93}, {"time": 1260, "pitch": 45, "duration": 22, "velocity": 96}, {"time": 1260, "pitch": 64, "duration": 6, "velocity": 92}, {"time": 1260, "pitch": 69, "duration": 6, "velocity": 91}, {"time": 1266, "pitch": 52, "duration": 8, "velocity": 90}, {"time": 1272, "pitch": 59, "duration": 11, "velocity": 95}, {"time": 1278, "pitch": 52, "duration": 5, "velocity": 96}, {"time": 1284, "pitch": 45, "duration": 15, "velocity": 98}, {"time": 1284, "pitch": 57, "duration": 10, "velocity": 92}, {"time": 1284, "pitch": 61, "duration": 7, "velocity": 92}, {"time": 1284, "pitch": 64, "duration": 8, "velocity": 99}, {"time": 1290, "pitch": 52, "duration": 8, "velocity": 96}, {"time": 1296, "pitch": 57, "duration": 9, "velocity": 97}, {"time": 1296, "pitch": 61, "duration": 6, "velocity": 98}, {"time": 1296, "pitch": 64, "duration": 8, "velocity": 99}, {"time": 1302, "pitch": 45, "duration": 5, "velocity": 96}, {"time": 1308, "pitch": 50, "duration": 16, "velocity": 96}, {"time": 1308, "pitch": 57, "duration": 3, "velocity": 92}, {"time": 1308, "pitch": 62, "duration": 9, "velocity": 96}, {"time": 1314, "pitch": 57, "duration": 4, "velocity": 84}, {"time": 1320, "pitch": 57, "duration": 3, "velocity": 95}, {"time": 1320, "pitch": 62, "duration": 4, "velocity": 98}, {"time": 1320, "pitch": 66, "duration": 5, "velocity": 92}, {"time": 1332, "pitch": 52, "duration": 13, "velocity": 99}, {"time": 1332, "pitch": 64, "duration": 9, "velocity": 98}, {"time": 1332, "pitch": 68, "duration": 8, "velocity": 96}, {"time": 1338, "pitch": 59, "duration": 6, "velocity": 89}, {"time": 1344, "pitch": 68, "duration": 5, "velocity": 96}, {"time": 1344, "pitch": 71, "duration": 6, "velocity": 96}, {"time": 1356, "pitch": 49, "duration": 14, "velocity": 96}, {"time": 1356, "pitch": 61, "duration": 10, "velocity": 86}, {"time": 1356, "pitch": 64, "duration": 9, "velocity": 97}, {"time": 1362, "pitch": 56, "duration": 8, "velocity": 80}, {"time": 1368, "pitch": 61, "duration": 2, "velocity": 97}, {"time": 1368, "pitch": 64, "duration": 4, "velocity": 101}, {"time": 1368, "pitch": 68, "duration": 5, "velocity": 91}, {"time": 1380, "pitch": 42, "duration": 14, "velocity": 97}, {"time": 1380, "pitch": 54, "duration": 9, "velocity": 90}, {"time": 1380, "pitch": 57, "duration": 7, "velocity": 97}, {"time": 1380, "pitch": 61, "duration": 7, "velocity": 91}, {"time": 1386, "pitch": 49, "duration": 8, "velocity": 77}, {"time": 1392, "pitch": 54, "duration": 4, "velocity": 89}, {"time": 1392, "pitch": 66, "duration": 5, "velocity": 95}, {"time": 1404, "pitch": 47, "duration": 15, "velocity": 96}, {"time": 1404, "pitch": 59, "duration": 9, "velocity": 87}, {"time": 1404, "pitch": 62, "duration": 9, "velocity": 95}, {"time": 1404, "pitch": 66, "duration": 9, "velocity": 89}, {"time": 1410, "pitch": 54, "duration": 7, "velocity": 82}, {"time": 1416, "pitch": 59, "duration": 3, "velocity": 94}, {"time": 1416, "pitch": 62, "duration": 3, "velocity": 97}, {"time": 1416, "pitch": 66, "duration": 4, "velocity": 94}, {"time": 1428, "pitch": 40, "duration": 3, "velocity": 84}, {"time": 1428, "pitch": 64, "duration": 14, "velocity": 92}, {"time": 1428, "pitch": 68, "duration": 13, "velocity": 89}, {"time": 1428, "pitch": 71, "duration": 19, "velocity": 91}, {"time": 1434, "pitch": 52, "duration": 12, "velocity": 96}, {"time": 1440, "pitch": 59, "duration": 6, "velocity": 99}, {"time": 1446, "pitch": 64, "duration": 8, "velocity": 101}, {"time": 1452, "pitch": 42, "duration": 13, "velocity": 90}, {"time": 1452, "pitch": 66, "duration": 8, "velocity": 88}, {"time": 1452, "pitch": 69, "duration": 12, "velocity": 96}, {"time": 1458, "pitch": 49, "duration": 7, "velocity": 80}, {"time": 1464, "pitch": 66, "duration": 5, "velocity": 91}, {"time": 1473, "pitch": 62, "duration": 8, "velocity": 81}, {"time": 1476, "pitch": 50, "duration": 16, "velocity": 97}, {"time": 1476, "pitch": 66, "duration": 7, "velocity": 83}, {"time": 1476, "pitch": 69, "duration": 6, "velocity": 84}, {"time": 1482, "pitch": 57, "duration": 9, "velocity": 83}, {"time": 1488, "pitch": 62, "duration": 10, "velocity": 96}, {"time": 1491, "pitch": 66, "duration": 7, "velocity": 98}, {"time": 1494, "pitch": 69, "duration": 7, "velocity": 95}, {"time": 1497, "pitch": 74, "duration": 4, "velocity": 95}, {"time": 1500, "pitch": 42, "duration": 14, "velocity": 96}, {"time": 1506, "pitch": 49, "duration": 7, "velocity": 84}, {"time": 1509, "pitch": 54, "duration": 2, "velocity": 84}, {"time": 1510, "pitch": 57, "duration": 2, "velocity": 79}, {"time": 1512, "pitch": 61, "duration": 2, "velocity": 92}, {"time": 1521, "pitch": 69, "duration": 5, "velocity": 79}, {"time": 1522, "pitch": 66, "duration": 4, "velocity": 84}, {"time": 1524, "pitch": 50, "duration": 15, "velocity": 101}, {"time": 1524, "pitch": 62, "duration": 7, "velocity": 84}, {"time": 1527, "pitch": 57, "duration": 7, "velocity": 90}, {"time": 1530, "pitch": 64, "duration": 3, "velocity": 97}, {"time": 1533, "pitch": 66, "duration": 4, "velocity": 105}, {"time": 1536, "pitch": 57, "duration": 4, "velocity": 96}, {"time": 1539, "pitch": 69, "duration": 3, "velocity": 99}, {"time": 1542, "pitch": 62, "duration": 1, "velocity": 81}, {"time": 1548, "pitch": 42, "duration": 11, "velocity": 96}, {"time": 1548, "pitch": 42, "duration": 11, "velocity": 98}, {"time": 1548, "pitch": 69, "duration": 5, "velocity": 96}, {"time": 1551, "pitch": 61, "duration": 4, "velocity": 96}, {"time": 1554, "pitch": 66, "duration": 4, "velocity": 90}, {"time": 1557, "pitch": 61, "duration": 2, "velocity": 92}, {"time": 1560, "pitch": 42, "duration": 2, "velocity": 81}, {"time": 1560, "pitch": 49, "duration": 3, "velocity": 87}, {"time": 1560, "pitch": 66, "duration": 4, "velocity": 96}, {"time": 1560, "pitch": 69, "duration": 4, "velocity": 92}, {"time": 1563, "pitch": 61, "duration": 4, "velocity": 96}, {"time": 1566, "pitch": 66, "duration": 4, "velocity": 86}, {"time": 1566, "pitch": 69, "duration": 4, "velocity": 91}, {"time": 1572, "pitch": 38, "duration": 18, "velocity": 96}, {"time": 1572, "pitch": 66, "duration": 3, "velocity": 88}, {"time": 1572, "pitch": 69, "duration": 4, "velocity": 96}, {"time": 1575, "pitch": 62, "duration": 4, "velocity": 83}, {"time": 1578, "pitch": 66, "duration": 3, "velocity": 89}, {"time": 1581, "pitch": 62, "duration": 2, "velocity": 85}, {"time": 1584, "pitch": 66, "duration": 3, "velocity": 99}, {"time": 1584, "pitch": 69, "duration": 4, "velocity": 96}, {"time": 1587, "pitch": 62, "duration": 3, "velocity": 88}, {"time": 1590, "pitch": 66, "duration": 3, "velocity": 94}, {"time": 1593, "pitch": 62, "duration": 2, "velocity": 87}, {"time": 1596, "pitch": 40, "duration": 23, "velocity": 98}, {"time": 1596, "pitch": 68, "duration": 7, "velocity": 94}, {"time": 1599, "pitch": 52, "duration": 18, "velocity": 96}, {"time": 1602, "pitch": 59, "duration": 15, "velocity": 88}, {"time": 1605, "pitch": 64, "duration": 3, "velocity": 99}, {"time": 1608, "pitch": 68, "duration": 2, "velocity": 98}, {"time": 1611, "pitch": 64, "duration": 2, "velocity": 98}, {"time": 1614, "pitch": 71, "duration": 5, "velocity": 92}, {"time": 1617, "pitch": 68, "duration": 2, "velocity": 97}, {"time": 1620, "pitch": 52, "duration": 14, "velocity": 100}, {"time": 1620, "pitch": 64, "duration": 8, "velocity": 87}, {"time": 1620, "pitch": 68, "duration": 8, "velocity": 89}, {"time": 1620, "pitch": 71, "duration": 8, "velocity": 87}, {"time": 1620, "pitch": 76, "duration": 7, "velocity": 95}, {"time": 1626, "pitch": 59, "duration": 8, "velocity": 85}, {"time": 1632, "pitch": 64, "duration": 10, "velocity": 96}, {"time": 1632, "pitch": 68, "duration": 10, "velocity": 96}, {"time": 1632, "pitch": 71, "duration": 10, "velocity": 94}, {"time": 1644, "pitch": 47, "duration": 18, "velocity": 95}, {"time": 1644, "pitch": 62, "duration": 10, "velocity": 92}, {"time": 1650, "pitch": 54, "duration": 5, "velocity": 79}, {"time": 1653, "pitch": 59, "duration": 7, "velocity": 95}, {"time": 1656, "pitch": 54, "duration": 5, "velocity": 76}, {"time": 1659, "pitch": 66, "duration": 3, "velocity": 97}, {"time": 1668, "pitch": 52, "duration": 20, "velocity": 98}, {"time": 1668, "pitch": 64, "duration": 8, "velocity": 90}, {"time": 1668, "pitch": 68, "duration": 11, "velocity": 43}, {"time": 1674, "pitch": 59, "duration": 13, "velocity": 85}, {"time": 1686, "pitch": 56, "duration": 2, "velocity": 90}, {"time": 1689, "pitch": 68, "duration": 5, "velocity": 86}, {"time": 1692, "pitch": 45, "duration": 22, "velocity": 94}, {"time": 1695, "pitch": 52, "duration": 6, "velocity": 88}, {"time": 1698, "pitch": 59, "duration": 4, "velocity": 96}, {"time": 1701, "pitch": 61, "duration": 15, "velocity": 101}, {"time": 1710, "pitch": 52, "duration": 4, "velocity": 78}, {"time": 1713, "pitch": 57, "duration": 14, "velocity": 83}, {"time": 1716, "pitch": 45, "duration": 17, "velocity": 92}, {"time": 1716, "pitch": 64, "duration": 8, "velocity": 97}, {"time": 1722, "pitch": 52, "duration": 9, "velocity": 77}, {"time": 1728, "pitch": 59, "duration": 3, "velocity": 96}, {"time": 1731, "pitch": 61, "duration": 4, "velocity": 97}, {"time": 1734, "pitch": 57, "duration": 2, "velocity": 84}, {"time": 1740, "pitch": 47, "duration": 16, "velocity": 96}, {"time": 1740, "pitch": 59, "duration": 7, "velocity": 89}, {"time": 1740, "pitch": 62, "duration": 10, "velocity": 88}, {"time": 1746, "pitch": 54, "duration": 9, "velocity": 84}, {"time": 1749, "pitch": 57, "duration": 7, "velocity": 90}, {"time": 1755, "pitch": 62, "duration": 4, "velocity": 92}, {"time": 1758, "pitch": 66, "duration": 2, "velocity": 87}, {"time": 1764, "pitch": 52, "duration": 18, "velocity": 97}, {"time": 1764, "pitch": 64, "duration": 13, "velocity": 88}, {"time": 1770, "pitch": 59, "duration": 12, "velocity": 90}, {"time": 1776, "pitch": 68, "duration": 5, "velocity": 96}, {"time": 1788, "pitch": 45, "duration": 22, "velocity": 95}, {"time": 1788, "pitch": 64, "duration": 5, "velocity": 88}, {"time": 1788, "pitch": 69, "duration": 4, "velocity": 88}, {"time": 1794, "pitch": 52, "duration": 4, "velocity": 85}, {"time": 1797, "pitch": 59, "duration": 7, "velocity": 92}, {"time": 1800, "pitch": 52, "duration": 8, "velocity": 83}, {"time": 1803, "pitch": 61, "duration": 5, "velocity": 102}, {"time": 1812, "pitch": 45, "duration": 16, "velocity": 94}, {"time": 1812, "pitch": 57, "duration": 9, "velocity": 85}, {"time": 1812, "pitch": 64, "duration": 8, "velocity": 97}, {"time": 1818, "pitch": 52, "duration": 10, "velocity": 77}, {"time": 1824, "pitch": 57, "duration": 3, "velocity": 91}, {"time": 1824, "pitch": 61, "duration": 2, "velocity": 90}, {"time": 1824, "pitch": 64, "duration": 2, "velocity": 98}, {"time": 1836, "pitch": 44, "duration": 14, "velocity": 86}, {"time": 1836, "pitch": 56, "duration": 9, "velocity": 84}, {"time": 1836, "pitch": 59, "duration": 9, "velocity": 90}, {"time": 1836, "pitch": 62, "duration": 8, "velocity": 89}, {"time": 1848, "pitch": 56, "duration": 1, "velocity": 90}, {"time": 1848, "pitch": 59, "duration": 1, "velocity": 97}, {"time": 1848, "pitch": 62, "duration": 2, "velocity": 97}, {"time": 1860, "pitch": 49, "duration": 15, "velocity": 93}, {"time": 1860, "pitch": 61, "duration": 9, "velocity": 87}, {"time": 1860, "pitch": 66, "duration": 6, "velocity": 90}, {"time": 1866, "pitch": 56, "duration": 8, "velocity": 77}, {"time": 1872, "pitch": 61, "duration": 4, "velocity": 90}, {"time": 1872, "pitch": 65, "duration": 4, "velocity": 95}, {"time": 1884, "pitch": 42, "duration": 20, "velocity": 92}, {"time": 1884, "pitch": 66, "duration": 9, "velocity": 87}, {"time": 1884, "pitch": 69, "duration": 7, "velocity": 96}, {"time": 1890, "pitch": 49, "duration": 14, "velocity": 70}, {"time": 1896, "pitch": 66, "duration": 11, "velocity": 94}, {"time": 1896, "pitch": 73, "duration": 11, "velocity": 92}, {"time": 1908, "pitch": 47, "duration": 17, "velocity": 92}, {"time": 1908, "pitch": 59, "duration": 13, "velocity": 86}, {"time": 1908, "pitch": 63, "duration": 8, "velocity": 87}, {"time": 1908, "pitch": 66, "duration": 7, "velocity": 87}, {"time": 1908, "pitch": 69, "duration": 8, "velocity": 87}, {"time": 1914, "pitch": 54, "duration": 8, "velocity": 75}, {"time": 1920, "pitch": 63, "duration": 7, "velocity": 87}, {"time": 1920, "pitch": 66, "duration": 8, "velocity": 84}, {"time": 1926, "pitch": 59, "duration": 2, "velocity": 89}, {"time": 1932, "pitch": 47, "duration": 39, "velocity": 95}, {"time": 1932, "pitch": 59, "duration": 13, "velocity": 90}, {"time": 1932, "pitch": 62, "duration": 10, "velocity": 90}, {"time": 1938, "pitch": 54, "duration": 8, "velocity": 73}, {"time": 1944, "pitch": 66, "duration": 7, "velocity": 97}, {"time": 1950, "pitch": 54, "duration": 8, "velocity": 75}, {"time": 1956, "pitch": 59, "duration": 9, "velocity": 85}, {"time": 1956, "pitch": 62, "duration": 9, "velocity": 88}, {"time": 1962, "pitch": 54, "duration": 6, "velocity": 58}, {"time": 1968, "pitch": 59, "duration": 3, "velocity": 96}, {"time": 1968, "pitch": 62, "duration": 3, "velocity": 96}, {"time": 1980, "pitch": 40, "duration": 14, "velocity": 94}, {"time": 1980, "pitch": 64, "duration": 13, "velocity": 91}, {"time": 1980, "pitch": 68, "duration": 14, "velocity": 89}, {"time": 1986, "pitch": 52, "duration": 17, "velocity": 77}, {"time": 1992, "pitch": 59, "duration": 10, "velocity": 100}, {"time": 1998, "pitch": 64, "duration": 12, "velocity": 107}, {"time": 2004, "pitch": 52, "duration": 19, "velocity": 101}, {"time": 2004, "pitch": 68, "duration": 7, "velocity": 85}, {"time": 2004, "pitch": 71, "duration": 10, "velocity": 95}, {"time": 2004, "pitch": 76, "duration": 6, "velocity": 96}, {"time": 2010, "pitch": 59, "duration": 5, "velocity": 86}, {"time": 2013, "pitch": 64, "duration": 2, "velocity": 92}, {"time": 2016, "pitch": 64, "duration": 4, "velocity": 102}, {"time": 2016, "pitch": 68, "duration": 6, "velocity": 97}, {"time": 2016, "pitch": 71, "duration": 12, "velocity": 98}, {"time": 2016, "pitch": 76, "duration": 6, "velocity": 98}, {"time": 2019, "pitch": 59, "duration": 9, "velocity": 93}, {"time": 2022, "pitch": 56, "duration": 6, "velocity": 99}, {"time": 2028, "pitch": 38, "duration": 15, "velocity": 88}, {"time": 2028, "pitch": 62, "duration": 13, "velocity": 86}, {"time": 2028, "pitch": 66, "duration": 15, "velocity": 88}, {"time": 2034, "pitch": 50, "duration": 13, "velocity": 72}, {"time": 2040, "pitch": 57, "duration": 7, "velocity": 98}, {"time": 2043, "pitch": 62, "duration": 5, "velocity": 96}, {"time": 2052, "pitch": 52, "duration": 13, "velocity": 96}, {"time": 2052, "pitch": 64, "duration": 8, "velocity": 93}, {"time": 2058, "pitch": 59, "duration": 6, "velocity": 88}, {"time": 2064, "pitch": 64, "duration": 12, "velocity": 101}, {"time": 2070, "pitch": 68, "duration": 7, "velocity": 97}, {"time": 2076, "pitch": 45, "duration": 22, "velocity": 92}, {"time": 2076, "pitch": 69, "duration": 5, "velocity": 92}, {"time": 2082, "pitch": 52, "duration": 15, "velocity": 81}, {"time": 2088, "pitch": 59, "duration": 4, "velocity": 95}, {"time": 2091, "pitch": 61, "duration": 3, "velocity": 102}, {"time": 2094, "pitch": 64, "duration": 4, "velocity": 99}, {"time": 2097, "pitch": 57, "duration": 12, "velocity": 87}, {"time": 2100, "pitch": 45, "duration": 15, "velocity": 96}, {"time": 2100, "pitch": 61, "duration": 9, "velocity": 89}, {"time": 2100, "pitch": 64, "duration": 9, "velocity": 96}, {"time": 2106, "pitch": 52, "duration": 9, "velocity": 82}, {"time": 2112, "pitch": 57, "duration": 4, "velocity": 92}, {"time": 2112, "pitch": 61, "duration": 4, "velocity": 96}, {"time": 2112, "pitch": 64, "duration": 7, "velocity": 99}, {"time": 2124, "pitch": 47, "duration": 17, "velocity": 91}, {"time": 2124, "pitch": 57, "duration": 13, "velocity": 91}, {"time": 2124, "pitch": 62, "duration": 9, "velocity": 90}, {"time": 2130, "pitch": 54, "duration": 7, "velocity": 76}, {"time": 2136, "pitch": 62, "duration": 6, "velocity": 96}, {"time": 2136, "pitch": 66, "duration": 7, "velocity": 93}, {"time": 2139, "pitch": 54, "duration": 2, "velocity": 87}, {"time": 2142, "pitch": 57, "duration": 4, "velocity": 90}, {"time": 2145, "pitch": 62, "duration": 4, "velocity": 96}, {"time": 2148, "pitch": 40, "duration": 14, "velocity": 96}, {"time": 2148, "pitch": 64, "duration": 21, "velocity": 98}, {"time": 2154, "pitch": 47, "duration": 8, "velocity": 85}, {"time": 2160, "pitch": 56, "duration": 7, "velocity": 98}, {"time": 2166, "pitch": 52, "duration": 2, "velocity": 94}, {"time": 2172, "pitch": 45, "duration": 21, "velocity": 96}, {"time": 2172, "pitch": 57, "duration": 12, "velocity": 87}, {"time": 2172, "pitch": 61, "duration": 8, "velocity": 90}, {"time": 2178, "pitch": 52, "duration": 14, "velocity": 91}, {"time": 2184, "pitch": 59, "duration": 4, "velocity": 97}, {"time": 2187, "pitch": 61, "duration": 3, "velocity": 103}, {"time": 2190, "pitch": 64, "duration": 2, "velocity": 98}, {"time": 2193, "pitch": 57, "duration": 12, "velocity": 85}, {"time": 2196, "pitch": 45, "duration": 16, "velocity": 96}, {"time": 2196, "pitch": 61, "duration": 8, "velocity": 87}, {"time": 2196, "pitch": 64, "duration": 8, "velocity": 94}, {"time": 2202, "pitch": 52, "duration": 10, "velocity": 88}, {"time": 2208, "pitch": 57, "duration": 1, "velocity": 97}, {"time": 2208, "pitch": 61, "duration": 1, "velocity": 98}, {"time": 2208, "pitch": 64, "duration": 2, "velocity": 102}, {"time": 2220, "pitch": 44, "duration": 16, "velocity": 90}, {"time": 2220, "pitch": 68, "duration": 4, "velocity": 87}, {"time": 2220, "pitch": 71, "duration": 9, "velocity": 97}, {"time": 2220, "pitch": 74, "duration": 8, "velocity": 98}, {"time": 2232, "pitch": 68, "duration": 2, "velocity": 88}, {"time": 2232, "pitch": 71, "duration": 1, "velocity": 96}, {"time": 2232, "pitch": 74, "duration": 2, "velocity": 97}, {"time": 2244, "pitch": 37, "duration": 11, "velocity": 100}, {"time": 2244, "pitch": 61, "duration": 5, "velocity": 96}, {"time": 2244, "pitch": 66, "duration": 6, "velocity": 98}, {"time": 2250, "pitch": 44, "duration": 5, "velocity": 77}, {"time": 2256, "pitch": 37, "duration": 6, "velocity": 87}, {"time": 2256, "pitch": 61, "duration": 4, "velocity": 91}, {"time": 2256, "pitch": 65, "duration": 6, "velocity": 98}, {"time": 2268, "pitch": 42, "duration": 14, "velocity": 91}, {"time": 2268, "pitch": 61, "duration": 9, "velocity": 72}, {"time": 2268, "pitch": 66, "duration": 8, "velocity": 89}, {"time": 2268, "pitch": 69, "duration": 9, "velocity": 91}, {"time": 2274, "pitch": 49, "duration": 8, "velocity": 76}, {"time": 2280, "pitch": 61, "duration": 3, "velocity": 95}, {"time": 2280, "pitch": 66, "duration": 7, "velocity": 95}, {"time": 2280, "pitch": 69, "duration": 9, "velocity": 97}, {"time": 2286, "pitch": 61, "duration": 2, "velocity": 84}, {"time": 2292, "pitch": 51, "duration": 13, "velocity": 86}, {"time": 2292, "pitch": 63, "duration": 9, "velocity": 62}, {"time": 2292, "pitch": 66, "duration": 8, "velocity": 87}, {"time": 2292, "pitch": 69, "duration": 7, "velocity": 91}, {"time": 2298, "pitch": 59, "duration": 6, "velocity": 54}, {"time": 2304, "pitch": 63, "duration": 3, "velocity": 92}, {"time": 2304, "pitch": 66, "duration": 3, "velocity": 92}, {"time": 2304, "pitch": 69, "duration": 5, "velocity": 98}, {"time": 2316, "pitch": 47, "duration": 23, "velocity": 96}, {"time": 2316, "pitch": 59, "duration": 9, "velocity": 89}, {"time": 2316, "pitch": 62, "duration": 8, "velocity": 90}, {"time": 2322, "pitch": 54, "duration": 8, "velocity": 80}, {"time": 2328, "pitch": 59, "duration": 8, "velocity": 98}, {"time": 2328, "pitch": 66, "duration": 4, "velocity": 94}, {"time": 2334, "pitch": 54, "duration": 6, "velocity": 75}, {"time": 2340, "pitch": 47, "duration": 14, "velocity": 95}, {"time": 2340, "pitch": 59, "duration": 7, "velocity": 91}, {"time": 2340, "pitch": 66, "duration": 7, "velocity": 88}, {"time": 2346, "pitch": 54, "duration": 7, "velocity": 84}, {"time": 2352, "pitch": 59, "duration": 2, "velocity": 97}, {"time": 2352, "pitch": 62, "duration": 9, "velocity": 98}, {"time": 2358, "pitch": 59, "duration": 7, "velocity": 93}, {"time": 2364, "pitch": 40, "duration": 12, "velocity": 98}, {"time": 2364, "pitch": 64, "duration": 6, "velocity": 97}, {"time": 2370, "pitch": 47, "duration": 6, "velocity": 105}, {"time": 2376, "pitch": 52, "duration": 4, "velocity": 101}, {"time": 2379, "pitch": 56, "duration": 3, "velocity": 103}, {"time": 2382, "pitch": 59, "duration": 2, "velocity": 96}, {"time": 2388, "pitch": 52, "duration": 16, "velocity": 100}, {"time": 2388, "pitch": 64, "duration": 3, "velocity": 97}, {"time": 2388, "pitch": 68, "duration": 4, "velocity": 91}, {"time": 2391, "pitch": 59, "duration": 9, "velocity": 98}, {"time": 2394, "pitch": 64, "duration": 4, "velocity": 110}, {"time": 2397, "pitch": 71, "duration": 2, "velocity": 97}, {"time": 2400, "pitch": 64, "duration": 4, "velocity": 103}, {"time": 2400, "pitch": 71, "duration": 6, "velocity": 96}, {"time": 2400, "pitch": 76, "duration": 6, "velocity": 98}, {"time": 2403, "pitch": 59, "duration": 2, "velocity": 96}, {"time": 2406, "pitch": 64, "duration": 2, "velocity": 101}, {"time": 2412, "pitch": 38, "duration": 16, "velocity": 96}, {"time": 2412, "pitch": 62, "duration": 8, "velocity": 92}, {"time": 2412, "pitch": 66, "duration": 9, "velocity": 92}, {"time": 2418, "pitch": 45, "duration": 9, "velocity": 92}, {"time": 2424, "pitch": 62, "duration": 2, "velocity": 96}, {"time": 2424, "pitch": 66, "duration": 6, "velocity": 99}, {"time": 2424, "pitch": 69, "duration": 7, "velocity": 98}, {"time": 2430, "pitch": 62, "duration": 1, "velocity": 97}, {"time": 2436, "pitch": 40, "duration": 15, "velocity": 99}, {"time": 2436, "pitch": 64, "duration": 3, "velocity": 101}, {"time": 2436, "pitch": 68, "duration": 6, "velocity": 96}, {"time": 2439, "pitch": 47, "duration": 10, "velocity": 87}, {"time": 2442, "pitch": 64, "duration": 4, "velocity": 98}, {"time": 2445, "pitch": 68, "duration": 1, "velocity": 100}, {"time": 2448, "pitch": 64, "duration": 3, "velocity": 102}, {"time": 2448, "pitch": 68, "duration": 3, "velocity": 102}, {"time": 2448, "pitch": 71, "duration": 3, "velocity": 97}, {"time": 2460, "pitch": 49, "duration": 16, "velocity": 102}, {"time": 2460, "pitch": 61, "duration": 4, "velocity": 96}, {"time": 2460, "pitch": 64, "duration": 6, "velocity": 101}, {"time": 2463, "pitch": 56, "duration": 7, "velocity": 81}, {"time": 2466, "pitch": 61, "duration": 7, "velocity": 91}, {"time": 2469, "pitch": 68, "duration": 7, "velocity": 88}, {"time": 2472, "pitch": 56, "duration": 4, "velocity": 96}, {"time": 2475, "pitch": 61, "duration": 4, "velocity": 96}, {"time": 2478, "pitch": 64, "duration": 1, "velocity": 91}, {"time": 2484, "pitch": 42, "duration": 13, "velocity": 97}, {"time": 2484, "pitch": 54, "duration": 4, "velocity": 93}, {"time": 2484, "pitch": 61, "duration": 6, "velocity": 95}, {"time": 2487, "pitch": 49, "duration": 7, "velocity": 86}, {"time": 2490, "pitch": 54, "duration": 7, "velocity": 86}, {"time": 2493, "pitch": 57, "duration": 4, "velocity": 90}, {"time": 2496, "pitch": 49, "duration": 3, "velocity": 88}, {"time": 2499, "pitch": 54, "duration": 2, "velocity": 96}, {"time": 2499, "pitch": 57, "duration": 1, "velocity": 97}, {"time": 2499, "pitch": 61, "duration": 3, "velocity": 97}, {"time": 2508, "pitch": 47, "duration": 18, "velocity": 98}, {"time": 2508, "pitch": 59, "duration": 4, "velocity": 87}, {"time": 2508, "pitch": 62, "duration": 6, "velocity": 92}, {"time": 2511, "pitch": 54, "duration": 7, "velocity": 81}, {"time": 2514, "pitch": 59, "duration": 6, "velocity": 95}, {"time": 2517, "pitch": 62, "duration": 6, "velocity": 97}, {"time": 2520, "pitch": 54, "duration": 4, "velocity": 92}, {"time": 2523, "pitch": 66, "duration": 6, "velocity": 98}, {"time": 2526, "pitch": 59, "duration": 4, "velocity": 96}, {"time": 2529, "pitch": 62, "duration": 2, "velocity": 89}, {"time": 2532, "pitch": 40, "duration": 19, "velocity": 98}, {"time": 2532, "pitch": 59, "duration": 2, "velocity": 94}, {"time": 2532, "pitch": 64, "duration": 3, "velocity": 96}, {"time": 2535, "pitch": 47, "duration": 10, "velocity": 91}, {"time": 2538, "pitch": 64, "duration": 4, "velocity": 96}, {"time": 2541, "pitch": 68, "duration": 2, "velocity": 98}, {"time": 2544, "pitch": 64, "duration": 3, "velocity": 101}, {"time": 2544, "pitch": 68, "duration": 4, "velocity": 100}, {"time": 2544, "pitch": 71, "duration": 5, "velocity": 101}, {"time": 2547, "pitch": 47, "duration": 4, "velocity": 97}, {"time": 2550, "pitch": 64, "duration": 2, "velocity": 98}, {"time": 2556, "pitch": 45, "duration": 22, "velocity": 97}, {"time": 2556, "pitch": 64, "duration": 3, "velocity": 98}, {"time": 2556, "pitch": 69, "duration": 3, "velocity": 96}, {"time": 2562, "pitch": 52, "duration": 7, "velocity": 87}, {"time": 2568, "pitch": 59, "duration": 3, "velocity": 102}, {"time": 2568, "pitch": 64, "duration": 3, "velocity": 101}, {"time": 2571, "pitch": 52, "duration": 4, "velocity": 95}, {"time": 2574, "pitch": 57, "duration": 1, "velocity": 98}, {"time": 2577, "pitch": 57, "duration": 1, "velocity": 97}, {"time": 2577, "pitch": 61, "duration": 2, "velocity": 97}, {"time": 2577, "pitch": 64, "duration": 2, "velocity": 101}, {"time": 2580, "pitch": 45, "duration": 16, "velocity": 98}, {"time": 2580, "pitch": 57, "duration": 3, "velocity": 97}, {"time": 2580, "pitch": 61, "duration": 4, "velocity": 97}, {"time": 2580, "pitch": 64, "duration": 5, "velocity": 102}, {"time": 2583, "pitch": 52, "duration": 9, "velocity": 92}, {"time": 2586, "pitch": 57, "duration": 2, "velocity": 93}, {"time": 2589, "pitch": 59, "duration": 2, "velocity": 100}, {"time": 2592, "pitch": 57, "duration": 3, "velocity": 93}, {"time": 2592, "pitch": 61, "duration": 3, "velocity": 117}, {"time": 2595, "pitch": 52, "duration": 2, "velocity": 102}, {"time": 2598, "pitch": 57, "duration": 5, "velocity": 103}, {"time": 2604, "pitch": 38, "duration": 1, "velocity": 99}, {"time": 2604, "pitch": 57, "duration": 4, "velocity": 91}, {"time": 2604, "pitch": 62, "duration": 1, "velocity": 92}, {"time": 2604, "pitch": 66, "duration": 5, "velocity": 96}, {"time": 2610, "pitch": 50, "duration": 11, "velocity": 96}, {"time": 2616, "pitch": 54, "duration": 4, "velocity": 105}, {"time": 2619, "pitch": 57, "duration": 3, "velocity": 98}, {"time": 2622, "pitch": 62, "duration": 4, "velocity": 100}, {"time": 2625, "pitch": 66, "duration": 4, "velocity": 94}, {"time": 2628, "pitch": 40, "duration": 16, "velocity": 97}, {"time": 2628, "pitch": 64, "duration": 3, "velocity": 97}, {"time": 2628, "pitch": 68, "duration": 4, "velocity": 97}, {"time": 2631, "pitch": 47, "duration": 10, "velocity": 92}, {"time": 2634, "pitch": 64, "duration": 4, "velocity": 96}, {"time": 2640, "pitch": 64, "duration": 4, "velocity": 103}, {"time": 2640, "pitch": 68, "duration": 3, "velocity": 102}, {"time": 2640, "pitch": 71, "duration": 3, "velocity": 98}, {"time": 2652, "pitch": 49, "duration": 16, "velocity": 100}, {"time": 2652, "pitch": 61, "duration": 7, "velocity": 96}, {"time": 2652, "pitch": 64, "duration": 7, "velocity": 100}, {"time": 2652, "pitch": 68, "duration": 10, "velocity": 97}, {"time": 2658, "pitch": 56, "duration": 7, "velocity": 89}, {"time": 2661, "pitch": 61, "duration": 3, "velocity": 98}, {"time": 2664, "pitch": 61, "duration": 2, "velocity": 89}, {"time": 2664, "pitch": 68, "duration": 3, "velocity": 102}, {"time": 2667, "pitch": 56, "duration": 3, "velocity": 91}, {"time": 2670, "pitch": 49, "duration": 1, "velocity": 97}, {"time": 2676, "pitch": 42, "duration": 14, "velocity": 98}, {"time": 2676, "pitch": 61, "duration": 10, "velocity": 91}, {"time": 2676, "pitch": 66, "duration": 10, "velocity": 90}, {"time": 2676, "pitch": 69, "duration": 9, "velocity": 90}, {"time": 2682, "pitch": 49, "duration": 9, "velocity": 87}, {"time": 2688, "pitch": 61, "duration": 3, "velocity": 96}, {"time": 2688, "pitch": 66, "duration": 3, "velocity": 96}, {"time": 2688, "pitch": 69, "duration": 5, "velocity": 99}, {"time": 2700, "pitch": 47, "duration": 15, "velocity": 97}, {"time": 2700, "pitch": 57, "duration": 10, "velocity": 90}, {"time": 2700, "pitch": 62, "duration": 10, "velocity": 96}, {"time": 2706, "pitch": 54, "duration": 8, "velocity": 84}, {"time": 2712, "pitch": 57, "duration": 3, "velocity": 96}, {"time": 2712, "pitch": 62, "duration": 3, "velocity": 96}, {"time": 2712, "pitch": 66, "duration": 4, "velocity": 93}, {"time": 2724, "pitch": 40, "duration": 18, "velocity": 97}, {"time": 2724, "pitch": 64, "duration": 5, "velocity": 92}, {"time": 2724, "pitch": 68, "duration": 4, "velocity": 87}, {"time": 2730, "pitch": 47, "duration": 12, "velocity": 84}, {"time": 2736, "pitch": 52, "duration": 6, "velocity": 97}, {"time": 2742, "pitch": 56, "duration": 2, "velocity": 103}, {"time": 2748, "pitch": 45, "duration": 20, "velocity": 98}, {"time": 2748, "pitch": 57, "duration": 10, "velocity": 98}, {"time": 2754, "pitch": 52, "duration": 8, "velocity": 86}, {"time": 2760, "pitch": 57, "duration": 5, "velocity": 98}, {"time": 2760, "pitch": 61, "duration": 4, "velocity": 100}, {"time": 2760, "pitch": 64, "duration": 5, "velocity": 100}, {"time": 2766, "pitch": 57, "duration": 4, "velocity": 97}, {"time": 2766, "pitch": 61, "duration": 3, "velocity": 97}, {"time": 2766, "pitch": 64, "duration": 3, "velocity": 98}, {"time": 2766, "pitch": 69, "duration": 4, "velocity": 94}, {"time": 2772, "pitch": 40, "duration": 1, "velocity": 98}, {"time": 2772, "pitch": 64, "duration": 9, "velocity": 98}, {"time": 2772, "pitch": 68, "duration": 8, "velocity": 97}, {"time": 2772, "pitch": 71, "duration": 9, "velocity": 97}, {"time": 2778, "pitch": 52, "duration": 10, "velocity": 97}, {"time": 2781, "pitch": 59, "duration": 4, "velocity": 97}, {"time": 2784, "pitch": 64, "duration": 5, "velocity": 103}, {"time": 2784, "pitch": 68, "duration": 5, "velocity": 98}, {"time": 2784, "pitch": 71, "duration": 11, "velocity": 98}, {"time": 2784, "pitch": 76, "duration": 6, "velocity": 97}, {"time": 2787, "pitch": 59, "duration": 2, "velocity": 89}, {"time": 2790, "pitch": 52, "duration": 6, "velocity": 100}, {"time": 2796, "pitch": 38, "duration": 1, "velocity": 99}, {"time": 2796, "pitch": 62, "duration": 9, "velocity": 93}, {"time": 2796, "pitch": 66, "duration": 9, "velocity": 94}, {"time": 2796, "pitch": 69, "duration": 10, "velocity": 94}, {"time": 2802, "pitch": 50, "duration": 11, "velocity": 96}, {"time": 2805, "pitch": 57, "duration": 7, "velocity": 96}, {"time": 2808, "pitch": 62, "duration": 1, "velocity": 101}, {"time": 2811, "pitch": 62, "duration": 3, "velocity": 101}, {"time": 2811, "pitch": 66, "duration": 3, "velocity": 101}, {"time": 2811, "pitch": 69, "duration": 4, "velocity": 101}, {"time": 2820, "pitch": 52, "duration": 16, "velocity": 100}, {"time": 2820, "pitch": 59, "duration": 11, "velocity": 97}, {"time": 2820, "pitch": 64, "duration": 5, "velocity": 101}, {"time": 2820, "pitch": 68, "duration": 7, "velocity": 98}, {"time": 2826, "pitch": 64, "duration": 1, "velocity": 84}, {"time": 2829, "pitch": 64, "duration": 3, "velocity": 107}, {"time": 2829, "pitch": 68, "duration": 3, "velocity": 105}, {"time": 2829, "pitch": 71, "duration": 3, "velocity": 101}, {"time": 2832, "pitch": 59, "duration": 2, "velocity": 90}, {"time": 2835, "pitch": 64, "duration": 1, "velocity": 105}, {"time": 2835, "pitch": 68, "duration": 4, "velocity": 107}, {"time": 2835, "pitch": 71, "duration": 3, "velocity": 105}, {"time": 2838, "pitch": 64, "duration": 1, "velocity": 96}, {"time": 2844, "pitch": 49, "duration": 15, "velocity": 105}, {"time": 2844, "pitch": 61, "duration": 7, "velocity": 98}, {"time": 2844, "pitch": 64, "duration": 9, "velocity": 102}, {"time": 2844, "pitch": 68, "duration": 9, "velocity": 97}, {"time": 2850, "pitch": 56, "duration": 7, "velocity": 71}, {"time": 2853, "pitch": 61, "duration": 1, "velocity": 82}, {"time": 2856, "pitch": 61, "duration": 3, "velocity": 100}, {"time": 2856, "pitch": 64, "duration": 2, "velocity": 105}, {"time": 2856, "pitch": 68, "duration": 3, "velocity": 99}, {"time": 2868, "pitch": 42, "duration": 14, "velocity": 98}, {"time": 2868, "pitch": 61, "duration": 6, "velocity": 97}, {"time": 2868, "pitch": 66, "duration": 6, "velocity": 96}, {"time": 2868, "pitch": 69, "duration": 6, "velocity": 99}, {"time": 2877, "pitch": 61, "duration": 4, "velocity": 100}, {"time": 2877, "pitch": 69, "duration": 4, "velocity": 101}, {"time": 2880, "pitch": 49, "duration": 2, "velocity": 91}, {"time": 2883, "pitch": 61, "duration": 2, "velocity": 103}, {"time": 2883, "pitch": 66, "duration": 3, "velocity": 107}, {"time": 2883, "pitch": 69, "duration": 5, "velocity": 105}, {"time": 2886, "pitch": 61, "duration": 1, "velocity": 84}, {"time": 2892, "pitch": 47, "duration": 17, "velocity": 97}, {"time": 2892, "pitch": 57, "duration": 6, "velocity": 98}, {"time": 2892, "pitch": 62, "duration": 9, "velocity": 97}, {"time": 2898, "pitch": 54, "duration": 5, "velocity": 81}, {"time": 2901, "pitch": 57, "duration": 4, "velocity": 97}, {"time": 2904, "pitch": 54, "duration": 3, "velocity": 85}, {"time": 2907, "pitch": 57, "duration": 2, "velocity": 96}, {"time": 2907, "pitch": 62, "duration": 4, "velocity": 98}, {"time": 2907, "pitch": 66, "duration": 5, "velocity": 93}, {"time": 2910, "pitch": 57, "duration": 1, "velocity": 85}, {"time": 2916, "pitch": 40, "duration": 1, "velocity": 103}, {"time": 2916, "pitch": 59, "duration": 4, "velocity": 92}, {"time": 2916, "pitch": 64, "duration": 5, "velocity": 97}, {"time": 2922, "pitch": 52, "duration": 7, "velocity": 94}, {"time": 2925, "pitch": 56, "duration": 4, "velocity": 97}, {"time": 2928, "pitch": 59, "duration": 3, "velocity": 98}, {"time": 2931, "pitch": 64, "duration": 4, "velocity": 110}, {"time": 2934, "pitch": 68, "duration": 4, "velocity": 103}, {"time": 2937, "pitch": 69, "duration": 2, "velocity": 90}, {"time": 2940, "pitch": 45, "duration": 18, "velocity": 99}, {"time": 2940, "pitch": 64, "duration": 3, "velocity": 97}, {"time": 2940, "pitch": 69, "duration": 3, "velocity": 96}, {"time": 2943, "pitch": 52, "duration": 6, "velocity": 92}, {"time": 2946, "pitch": 59, "duration": 3, "velocity": 97}, {"time": 2949, "pitch": 61, "duration": 2, "velocity": 107}, {"time": 2952, "pitch": 52, "duration": 3, "velocity": 96}, {"time": 2955, "pitch": 57, "duration": 2, "velocity": 97}, {"time": 2955, "pitch": 64, "duration": 2, "velocity": 103}, {"time": 2958, "pitch": 52, "duration": 1, "velocity": 88}, {"time": 2961, "pitch": 61, "duration": 2, "velocity": 85}, {"time": 2961, "pitch": 69, "duration": 2, "velocity": 96}, {"time": 2964, "pitch": 45, "duration": 10, "velocity": 98}, {"time": 2964, "pitch": 57, "duration": 3, "velocity": 98}, {"time": 2964, "pitch": 61, "duration": 4, "velocity": 100}, {"time": 2964, "pitch": 69, "duration": 4, "velocity": 98}, {"time": 2967, "pitch": 52, "duration": 6, "velocity": 92}, {"time": 2970, "pitch": 57, "duration": 1, "velocity": 92}, {"time": 2973, "pitch": 57, "duration": 4, "velocity": 98}, {"time": 2973, "pitch": 61, "duration": 4, "velocity": 105}, {"time": 2973, "pitch": 67, "duration": 3, "velocity": 96}, {"time": 2976, "pitch": 45, "duration": 4, "velocity": 96}, {"time": 2976, "pitch": 52, "duration": 4, "velocity": 97}, {"time": 2979, "pitch": 57, "duration": 3, "velocity": 97}, {"time": 2979, "pitch": 61, "duration": 4, "velocity": 97}, {"time": 2979, "pitch": 64, "duration": 4, "velocity": 97}, {"time": 2982, "pitch": 45, "duration": 2, "velocity": 96}, {"time": 2982, "pitch": 52, "duration": 1, "velocity": 97}, {"time": 2985, "pitch": 57, "duration": 2, "velocity": 98}, {"time": 2988, "pitch": 38, "duration": 1, "velocity": 105}, {"time": 2988, "pitch": 57, "duration": 4, "velocity": 97}, {"time": 2988, "pitch": 62, "duration": 5, "velocity": 96}, {"time": 2988, "pitch": 66, "duration": 5, "velocity": 90}, {"time": 2994, "pitch": 50, "duration": 9, "velocity": 95}, {"time": 2997, "pitch": 54, "duration": 4, "velocity": 100}, {"time": 3000, "pitch": 57, "duration": 3, "velocity": 97}, {"time": 3003, "pitch": 62, "duration": 2, "velocity": 112}, {"time": 3006, "pitch": 62, "duration": 2, "velocity": 83}, {"time": 3006, "pitch": 66, "duration": 2, "velocity": 98}, {"time": 3012, "pitch": 40, "duration": 15, "velocity": 101}, {"time": 3012, "pitch": 64, "duration": 7, "velocity": 102}, {"time": 3012, "pitch": 68, "duration": 7, "velocity": 94}, {"time": 3018, "pitch": 47, "duration": 4, "velocity": 88}, {"time": 3021, "pitch": 64, "duration": 3, "velocity": 96}, {"time": 3021, "pitch": 68, "duration": 4, "velocity": 87}, {"time": 3021, "pitch": 71, "duration": 7, "velocity": 94}, {"time": 3024, "pitch": 47, "duration": 4, "velocity": 91}, {"time": 3027, "pitch": 76, "duration": 3, "velocity": 97}, {"time": 3030, "pitch": 64, "duration": 1, "velocity": 96}, {"time": 3036, "pitch": 49, "duration": 14, "velocity": 89}, {"time": 3036, "pitch": 61, "duration": 7, "velocity": 92}, {"time": 3036, "pitch": 64, "duration": 10, "velocity": 99}, {"time": 3036, "pitch": 68, "duration": 10, "velocity": 92}, {"time": 3042, "pitch": 56, "duration": 7, "velocity": 81}, {"time": 3045, "pitch": 61, "duration": 5, "velocity": 88}, {"time": 3048, "pitch": 64, "duration": 2, "velocity": 99}, {"time": 3051, "pitch": 61, "duration": 1, "velocity": 79}, {"time": 3051, "pitch": 64, "duration": 3, "velocity": 96}, {"time": 3054, "pitch": 68, "duration": 3, "velocity": 101}, {"time": 3057, "pitch": 61, "duration": 2, "velocity": 83}, {"time": 3060, "pitch": 42, "duration": 4, "velocity": 98}, {"time": 3060, "pitch": 61, "duration": 10, "velocity": 92}, {"time": 3060, "pitch": 69, "duration": 9, "velocity": 97}, {"time": 3072, "pitch": 54, "duration": 4, "velocity": 97}, {"time": 3072, "pitch": 61, "duration": 3, "velocity": 96}, {"time": 3072, "pitch": 66, "duration": 6, "velocity": 93}, {"time": 3078, "pitch": 61, "duration": 1, "velocity": 98}, {"time": 3084, "pitch": 47, "duration": 15, "velocity": 97}, {"time": 3084, "pitch": 59, "duration": 10, "velocity": 90}, {"time": 3084, "pitch": 62, "duration": 9, "velocity": 92}, {"time": 3090, "pitch": 54, "duration": 7, "velocity": 82}, {"time": 3096, "pitch": 59, "duration": 3, "velocity": 96}, {"time": 3096, "pitch": 66, "duration": 6, "velocity": 88}, {"time": 3102, "pitch": 59, "duration": 4, "velocity": 85}, {"time": 3108, "pitch": 40, "duration": 8, "velocity": 97}, {"time": 3108, "pitch": 59, "duration": 4, "velocity": 92}, {"time": 3108, "pitch": 64, "duration": 5, "velocity": 96}, {"time": 3114, "pitch": 52, "duration": 14, "velocity": 90}, {"time": 3117, "pitch": 56, "duration": 4, "velocity": 92}, {"time": 3120, "pitch": 59, "duration": 7, "velocity": 99}, {"time": 3123, "pitch": 64, "duration": 4, "velocity": 105}, {"time": 3126, "pitch": 68, "duration": 3, "velocity": 99}, {"time": 3132, "pitch": 57, "duration": 39, "velocity": 93}, {"time": 3132, "pitch": 64, "duration": 3, "velocity": 93}, {"time": 3132, "pitch": 69, "duration": 9, "velocity": 94}, {"time": 3138, "pitch": 64, "duration": 4, "velocity": 84}, {"time": 3144, "pitch": 64, "duration": 4, "velocity": 98}, {"time": 3144, "pitch": 71, "duration": 6, "velocity": 96}, {"time": 3150, "pitch": 69, "duration": 3, "velocity": 86}, {"time": 3156, "pitch": 64, "duration": 3, "velocity": 96}, {"time": 3156, "pitch": 73, "duration": 6, "velocity": 96}, {"time": 3162, "pitch": 64, "duration": 4, "velocity": 84}, {"time": 3168, "pitch": 64, "duration": 4, "velocity": 90}, {"time": 3168, "pitch": 69, "duration": 5, "velocity": 88}, {"time": 3180, "pitch": 47, "duration": 17, "velocity": 97}, {"time": 3180, "pitch": 59, "duration": 8, "velocity": 88}, {"time": 3180, "pitch": 62, "duration": 9, "velocity": 90}, {"time": 3183, "pitch": 66, "duration": 13, "velocity": 90}, {"time": 3186, "pitch": 54, "duration": 9, "velocity": 71}, {"time": 3192, "pitch": 57, "duration": 5, "velocity": 96}, {"time": 3195, "pitch": 62, "duration": 4, "velocity": 96}, {"time": 3198, "pitch": 66, "duration": 2, "velocity": 98}, {"time": 3207, "pitch": 40, "duration": 1, "velocity": 97}, {"time": 3207, "pitch": 64, "duration": 7, "velocity": 85}, {"time": 3207, "pitch": 68, "duration": 6, "velocity": 82}, {"time": 3210, "pitch": 71, "duration": 12, "velocity": 89}, {"time": 3213, "pitch": 52, "duration": 11, "velocity": 92}, {"time": 3217, "pitch": 56, "duration": 4, "velocity": 85}, {"time": 3219, "pitch": 59, "duration": 5, "velocity": 81}, {"time": 3220, "pitch": 64, "duration": 3, "velocity": 80}, {"time": 3221, "pitch": 68, "duration": 2, "velocity": 80}, {"time": 3222, "pitch": 71, "duration": 2, "velocity": 83}, {"time": 3223, "pitch": 76, "duration": 2, "velocity": 96}, {"time": 3233, "pitch": 69, "duration": 9, "velocity": 90}, {"time": 3234, "pitch": 66, "duration": 5, "velocity": 73}, {"time": 3234, "pitch": 38, "duration": 15, "velocity": 97}, {"time": 3235, "pitch": 62, "duration": 8, "velocity": 84}, {"time": 3241, "pitch": 45, "duration": 7, "velocity": 64}, {"time": 3247, "pitch": 69, "duration": 4, "velocity": 86}, {"time": 3247, "pitch": 64, "duration": 2, "velocity": 93}, {"time": 3260, "pitch": 69, "duration": 15, "velocity": 88}, {"time": 3260, "pitch": 64, "duration": 13, "velocity": 87}, {"time": 3260, "pitch": 40, "duration": 20, "velocity": 87}, {"time": 3273, "pitch": 47, "duration": 6, "velocity": 70}, {"time": 3277, "pitch": 64, "duration": 7, "velocity": 90}, {"time": 3280, "pitch": 68, "duration": 4, "velocity": 82}, {"time": 3284, "pitch": 69, "duration": 9, "velocity": 87}, {"time": 3287, "pitch": 50, "duration": 18, "velocity": 97}, {"time": 3291, "pitch": 57, "duration": 7, "velocity": 80}, {"time": 3294, "pitch": 64, "duration": 4, "velocity": 86}, {"time": 3297, "pitch": 66, "duration": 8, "velocity": 102}, {"time": 3300, "pitch": 57, "duration": 4, "velocity": 83}, {"time": 3304, "pitch": 69, "duration": 8, "velocity": 93}, {"time": 3308, "pitch": 62, "duration": 3, "velocity": 43}, {"time": 3314, "pitch": 69, "duration": 8, "velocity": 87}, {"time": 3314, "pitch": 40, "duration": 2, "velocity": 87}, {"time": 3321, "pitch": 52, "duration": 10, "velocity": 86}, {"time": 3324, "pitch": 56, "duration": 6, "velocity": 81}, {"time": 3328, "pitch": 59, "duration": 3, "velocity": 93}, {"time": 3331, "pitch": 64, "duration": 4, "velocity": 91}, {"time": 3334, "pitch": 68, "duration": 1, "velocity": 76}, {"time": 3341, "pitch": 66, "duration": 13, "velocity": 82}, {"time": 3341, "pitch": 62, "duration": 13, "velocity": 73}, {"time": 3341, "pitch": 50, "duration": 17, "velocity": 94}, {"time": 3354, "pitch": 57, "duration": 4, "velocity": 84}, {"time": 3357, "pitch": 62, "duration": 7, "velocity": 87}, {"time": 3360, "pitch": 66, "duration": 8, "velocity": 88}, {"time": 3363, "pitch": 74, "duration": 5, "velocity": 97}, {"time": 3367, "pitch": 40, "duration": 21, "velocity": 95}, {"time": 3370, "pitch": 47, "duration": 16, "velocity": 83}, {"time": 3373, "pitch": 52, "duration": 3, "velocity": 92}, {"time": 3376, "pitch": 56, "duration": 2, "velocity": 94}, {"time": 3394, "pitch": 38, "duration": 3, "velocity": 97}, {"time": 3401, "pitch": 50, "duration": 36, "velocity": 86}, {"time": 3404, "pitch": 54, "duration": 5, "velocity": 72}, {"time": 3407, "pitch": 57, "duration": 28, "velocity": 91}, {"time": 3411, "pitch": 62, "duration": 4, "velocity": 91}, {"time": 3414, "pitch": 64, "duration": 4, "velocity": 94}, {"time": 3417, "pitch": 66, "duration": 3, "velocity": 83}, {"time": 3423, "pitch": 68, "duration": 5, "velocity": 64}, {"time": 3472, "pitch": 45, "duration": 100, "velocity": 93}, {"time": 3475, "pitch": 52, "duration": 60, "velocity": 81}, {"time": 3478, "pitch": 59, "duration": 3, "velocity": 84}, {"time": 3480, "pitch": 61, "duration": 3, "velocity": 83}, {"time": 3484, "pitch": 64, "duration": 4, "velocity": 92}, {"time": 3487, "pitch": 69, "duration": 4, "velocity": 81}, {"time": 3492, "pitch": 71, "duration": 4, "velocity": 84}, {"time": 3496, "pitch": 76, "duration": 3, "velocity": 95}, {"time": 3501, "pitch": 73, "duration": 6, "velocity": 79}, {"time": 3506, "pitch": 71, "duration": 5, "velocity": 80}, {"time": 3511, "pitch": 76, "duration": 2, "velocity": 89}, {"time": 3517, "pitch": 81, "duration": 3, "velocity": 85}, {"time": 3523, "pitch": 83, "duration": 4, "velocity": 83}, {"time": 3530, "pitch": 88, "duration": 1, "velocity": 91}, {"time": 3542, "pitch": 52, "duration": 28, "velocity": 72}, {"time": 3544, "pitch": 81, "duration": 27, "velocity": 59}], "annotations": [{"time": 9, "annotation": {"number": 64, "value": 127}, "group": "control_change"}, {"time": 55, "annotation": {"number": 64, "value": 0}, "group": "control_change"}, {"time": 57, "annotation": {"number": 64, "value": 127}, "group": "control_change"}, {"time": 107, "annotation": {"number": 64, "value": 0}, "group": "control_change"}, {"time": 108, "annotation": {"number": 64, "value": 127}, "group": "control_change"}, {"time": 156, "annotation": {"number": 64, "value": 0}, "group": "control_change"}, {"time": 156, "annotation": {"number": 64, "value": 127}, "group": "control_change"}, {"time": 203, "annotation": {"number": 64, "value": 0}, "group": "control_change"}, {"time": 205, "annotation": {"number": 64, "value": 127}, "group": "control_change"}, {"time": 215, "annotation": {"number": 64, "value": 0}, "group": "control_change"}, {"time": 218, "annotation": {"number": 64, "value": 127}, "group": "control_change"}, {"time": 227, "annotation": {"number": 64, "value": 0}, "group": "control_change"}, {"time": 229, "annotation": {"number": 64, "value": 127}, "group": "control_change"}, {"time": 348, "annotation": {"number": 64, "value": 127}, "group": "control_change"}, {"time": 371, "annotation": {"number": 64, "value": 0}, "group": "control_change"}, {"time": 374, "annotation": {"number": 64, "value": 127}, "group": "control_change"}, {"time": 397, "annotation": {"number": 64, "value": 0}, "group": "control_change"}, {"time": 403, "annotation": {"number": 64, "value": 127}, "group": "control_change"}, {"time": 443, "annotation": {"number": 64, "value": 0}, "group": "control_change"}, {"time": 446, "annotation": {"number": 64, "value": 127}, "group": "control_change"}, {"time": 468, "annotation": {"number": 64, "value": 0}, "group": "control_change"}, {"time": 473, "annotation": {"number": 64, "value": 127}, "group": "control_change"}, {"time": 493, "annotation": {"number": 64, "value": 0}, "group": "control_change"}, {"time": 498, "annotation": {"number": 64, "value": 127}, "group": "control_change"}, {"time": 540, "annotation": {"number": 64, "value": 127}, "group": "control_change"}, {"time": 563, "annotation": {"number": 64, "value": 0}, "group": "control_change"}, {"time": 565, "annotation": {"number": 64, "value": 127}, "group": "control_change"}, {"time": 588, "annotation": {"number": 64, "value": 0}, "group": "control_change"}, {"time": 588, "annotation": {"number": 64, "value": 127}, "group": "control_change"}, {"time": 612, "annotation": {"number": 64, "value": 0}, "group": "control_change"}, {"time": 613, "annotation": {"number": 64, "value": 127}, "group": "control_change"}, {"time": 634, "annotation": {"number": 64, "value": 0}, "group": "control_change"}, {"time": 637, "annotation": {"number": 64, "value": 127}, "group": "control_change"}, {"time": 683, "annotation": {"number": 64, "value": 0}, "group": "control_change"}, {"time": 685, "annotation": {"number": 64, "value": 127}, "group": "control_change"}, {"time": 732, "annotation": {"number": 64, "value": 127}, "group": "control_change"}, {"time": 754, "annotation": {"number": 64, "value": 0}, "group": "control_change"}, {"time": 756, "annotation": {"number": 64, "value": 127}, "group": "control_change"}, {"time": 779, "annotation": {"number": 64, "value": 0}, "group": "control_change"}, {"time": 781, "annotation": {"number": 64, "value": 127}, "group": "control_change"}, {"time": 826, "annotation": {"number": 64, "value": 0}, "group": "control_change"}, {"time": 833, "annotation": {"number": 64, "value": 127}, "group": "control_change"}, {"time": 850, "annotation": {"number": 64, "value": 0}, "group": "control_change"}, {"time": 852, "annotation": {"number": 64, "value": 127}, "group": "control_change"}, {"time": 875, "annotation": {"number": 64, "value": 0}, "group": "control_change"}, {"time": 880, "annotation": {"number": 64, "value": 127}, "group": "control_change"}, {"time": 923, "annotation": {"number": 64, "value": 0}, "group": "control_change"}, {"time": 925, "annotation": {"number": 64, "value": 127}, "group": "control_change"}, {"time": 949, "annotation": {"number": 64, "value": 0}, "group": "control_change"}, {"time": 954, "annotation": {"number": 64, "value": 127}, "group": "control_change"}, {"time": 973, "annotation": {"number": 64, "value": 0}, "group": "control_change"}, {"time": 975, "annotation": {"number": 64, "value": 127}, "group": "control_change"}, {"time": 998, "annotation": {"number": 64, "value": 127}, "group": "control_change"}, {"time": 1019, "annotation": {"number": 64, "value": 0}, "group": "control_change"}, {"time": 1021, "annotation": {"number": 64, "value": 127}, "group": "control_change"}, {"time": 1066, "annotation": {"number": 64, "value": 0}, "group": "control_change"}, {"time": 1068, "annotation": {"number": 64, "value": 127}, "group": "control_change"}, {"time": 1092, "annotation": {"number": 64, "value": 0}, "group": "control_change"}, {"time": 1092, "annotation": {"number": 64, "value": 127}, "group": "control_change"}, {"time": 1116, "annotation": {"number": 64, "value": 0}, "group": "control_change"}, {"time": 1124, "annotation": {"number": 64, "value": 127}, "group": "control_change"}, {"time": 1139, "annotation": {"number": 64, "value": 0}, "group": "control_change"}, {"time": 1144, "annotation": {"number": 64, "value": 127}, "group": "control_change"}, {"time": 1163, "annotation": {"number": 64, "value": 0}, "group": "control_change"}, {"time": 1168, "annotation": {"number": 64, "value": 127}, "group": "control_change"}, {"time": 1189, "annotation": {"number": 64, "value": 0}, "group": "control_change"}, {"time": 1194, "annotation": {"number": 64, "value": 127}, "group": "control_change"}, {"time": 1212, "annotation": {"number": 64, "value": 0}, "group": "control_change"}, {"time": 1217, "annotation": {"number": 64, "value": 127}, "group": "control_change"}, {"time": 1236, "annotation": {"number": 64, "value": 0}, "group": "control_change"}, {"time": 1242, "annotation": {"number": 64, "value": 127}, "group": "control_change"}, {"time": 1259, "annotation": {"number": 64, "value": 0}, "group": "control_change"}, {"time": 1262, "annotation": {"number": 64, "value": 127}, "group": "control_change"}, {"time": 1287, "annotation": {"number": 64, "value": 0}, "group": "control_change"}, {"time": 1288, "annotation": {"number": 64, "value": 127}, "group": "control_change"}, {"time": 1307, "annotation": {"number": 64, "value": 0}, "group": "control_change"}, {"time": 1312, "annotation": {"number": 64, "value": 127}, "group": "control_change"}, {"time": 1334, "annotation": {"number": 64, "value": 0}, "group": "control_change"}, {"time": 1338, "annotation": {"number": 64, "value": 127}, "group": "control_change"}, {"time": 1357, "annotation": {"number": 64, "value": 0}, "group": "control_change"}, {"time": 1362, "annotation": {"number": 64, "value": 127}, "group": "control_change"}, {"time": 1381, "annotation": {"number": 64, "value": 0}, "group": "control_change"}, {"time": 1386, "annotation": {"number": 64, "value": 127}, "group": "control_change"}, {"time": 1403, "annotation": {"number": 64, "value": 0}, "group": "control_change"}, {"time": 1409, "annotation": {"number": 64, "value": 127}, "group": "control_change"}, {"time": 1427, "annotation": {"number": 64, "value": 127}, "group": "control_change"}, {"time": 1452, "annotation": {"number": 64, "value": 127}, "group": "control_change"}, {"time": 1475, "annotation": {"number": 64, "value": 0}, "group": "control_change"}, {"time": 1481, "annotation": {"number": 64, "value": 127}, "group": "control_change"}, {"time": 1498, "annotation": {"number": 64, "value": 0}, "group": "control_change"}, {"time": 1501, "annotation": {"number": 64, "value": 127}, "group": "control_change"}, {"time": 1524, "annotation": {"number": 64, "value": 0}, "group": "control_change"}, {"time": 1528, "annotation": {"number": 64, "value": 127}, "group": "control_change"}, {"time": 1548, "annotation": {"number": 64, "value": 127}, "group": "control_change"}, {"time": 1571, "annotation": {"number": 64, "value": 0}, "group": "control_change"}, {"time": 1574, "annotation": {"number": 64, "value": 127}, "group": "control_change"}, {"time": 1595, "annotation": {"number": 64, "value": 0}, "group": "control_change"}, {"time": 1596, "annotation": {"number": 64, "value": 127}, "group": "control_change"}, {"time": 1620, "annotation": {"number": 64, "value": 0}, "group": "control_change"}, {"time": 1621, "annotation": {"number": 64, "value": 127}, "group": "control_change"}, {"time": 1646, "annotation": {"number": 64, "value": 127}, "group": "control_change"}, {"time": 1669, "annotation": {"number": 64, "value": 0}, "group": "control_change"}, {"time": 1675, "annotation": {"number": 64, "value": 127}, "group": "control_change"}, {"time": 1691, "annotation": {"number": 64, "value": 0}, "group": "control_change"}, {"time": 1693, "annotation": {"number": 64, "value": 127}, "group": "control_change"}, {"time": 1716, "annotation": {"number": 64, "value": 0}, "group": "control_change"}, {"time": 1718, "annotation": {"number": 64, "value": 127}, "group": "control_change"}, {"time": 1740, "annotation": {"number": 64, "value": 0}, "group": "control_change"}, {"time": 1743, "annotation": {"number": 64, "value": 127}, "group": "control_change"}, {"time": 1767, "annotation": {"number": 64, "value": 0}, "group": "control_change"}, {"time": 1771, "annotation": {"number": 64, "value": 127}, "group": "control_change"}, {"time": 1788, "annotation": {"number": 64, "value": 0}, "group": "control_change"}, {"time": 1790, "annotation": {"number": 64, "value": 127}, "group": "control_change"}, {"time": 1813, "annotation": {"number": 64, "value": 0}, "group": "control_change"}, {"time": 1814, "annotation": {"number": 64, "value": 127}, "group": "control_change"}, {"time": 1834, "annotation": {"number": 64, "value": 0}, "group": "control_change"}, {"time": 1836, "annotation": {"number": 64, "value": 127}, "group": "control_change"}, {"time": 1860, "annotation": {"number": 64, "value": 0}, "group": "control_change"}, {"time": 1861, "annotation": {"number": 64, "value": 127}, "group": "control_change"}, {"time": 1883, "annotation": {"number": 64, "value": 0}, "group": "control_change"}, {"time": 1884, "annotation": {"number": 64, "value": 127}, "group": "control_change"}, {"time": 1907, "annotation": {"number": 64, "value": 0}, "group": "control_change"}, {"time": 1908, "annotation": {"number": 64, "value": 127}, "group": "control_change"}, {"time": 1933, "annotation": {"number": 64, "value": 0}, "group": "control_change"}, {"time": 1938, "annotation": {"number": 64, "value": 127}, "group": "control_change"}, {"time": 1978, "annotation": {"number": 64, "value": 0}, "group": "control_change"}, {"time": 1979, "annotation": {"number": 64, "value": 127}, "group": "control_change"}, {"time": 2003, "annotation": {"number": 64, "value": 0}, "group": "control_change"}, {"time": 2004, "annotation": {"number": 64, "value": 127}, "group": "control_change"}, {"time": 2028, "annotation": {"number": 64, "value": 0}, "group": "control_change"}, {"time": 2052, "annotation": {"number": 64, "value": 0}, "group": "control_change"}, {"time": 2057, "annotation": {"number": 64, "value": 127}, "group": "control_change"}, {"time": 2074, "annotation": {"number": 64, "value": 0}, "group": "control_change"}, {"time": 2078, "annotation": {"number": 64, "value": 127}, "group": "control_change"}, {"time": 2102, "annotation": {"number": 64, "value": 0}, "group": "control_change"}, {"time": 2106, "annotation": {"number": 64, "value": 127}, "group": "control_change"}, {"time": 2124, "annotation": {"number": 64, "value": 0}, "group": "control_change"}, {"time": 2129, "annotation": {"number": 64, "value": 127}, "group": "control_change"}, {"time": 2147, "annotation": {"number": 64, "value": 0}, "group": "control_change"}, {"time": 2152, "annotation": {"number": 64, "value": 127}, "group": "control_change"}, {"time": 2173, "annotation": {"number": 64, "value": 0}, "group": "control_change"}, {"time": 2179, "annotation": {"number": 64, "value": 127}, "group": "control_change"}, {"time": 2197, "annotation": {"number": 64, "value": 0}, "group": "control_change"}, {"time": 2200, "annotation": {"number": 64, "value": 127}, "group": "control_change"}, {"time": 2220, "annotation": {"number": 64, "value": 0}, "group": "control_change"}, {"time": 2221, "annotation": {"number": 64, "value": 127}, "group": "control_change"}, {"time": 2244, "annotation": {"number": 64, "value": 0}, "group": "control_change"}, {"time": 2246, "annotation": {"number": 64, "value": 127}, "group": "control_change"}, {"time": 2268, "annotation": {"number": 64, "value": 0}, "group": "control_change"}, {"time": 2269, "annotation": {"number": 64, "value": 127}, "group": "control_change"}, {"time": 2291, "annotation": {"number": 64, "value": 0}, "group": "control_change"}, {"time": 2293, "annotation": {"number": 64, "value": 127}, "group": "control_change"}, {"time": 2314, "annotation": {"number": 64, "value": 0}, "group": "control_change"}, {"time": 2320, "annotation": {"number": 64, "value": 127}, "group": "control_change"}, {"time": 2339, "annotation": {"number": 64, "value": 0}, "group": "control_change"}, {"time": 2340, "annotation": {"number": 64, "value": 127}, "group": "control_change"}, {"time": 2361, "annotation": {"number": 64, "value": 0}, "group": "control_change"}, {"time": 2365, "annotation": {"number": 64, "value": 127}, "group": "control_change"}, {"time": 2388, "annotation": {"number": 64, "value": 0}, "group": "control_change"}, {"time": 2390, "annotation": {"number": 64, "value": 127}, "group": "control_change"}, {"time": 2411, "annotation": {"number": 64, "value": 0}, "group": "control_change"}, {"time": 2412, "annotation": {"number": 64, "value": 127}, "group": "control_change"}, {"time": 2436, "annotation": {"number": 64, "value": 0}, "group": "control_change"}, {"time": 2438, "annotation": {"number": 64, "value": 127}, "group": "control_change"}, {"time": 2459, "annotation": {"number": 64, "value": 0}, "group": "control_change"}, {"time": 2462, "annotation": {"number": 64, "value": 127}, "group": "control_change"}, {"time": 2485, "annotation": {"number": 64, "value": 0}, "group": "control_change"}, {"time": 2488, "annotation": {"number": 64, "value": 127}, "group": "control_change"}, {"time": 2509, "annotation": {"number": 64, "value": 0}, "group": "control_change"}, {"time": 2512, "annotation": {"number": 64, "value": 127}, "group": "control_change"}, {"time": 2531, "annotation": {"number": 64, "value": 0}, "group": "control_change"}, {"time": 2533, "annotation": {"number": 64, "value": 127}, "group": "control_change"}, {"time": 2555, "annotation": {"number": 64, "value": 0}, "group": "control_change"}, {"time": 2557, "annotation": {"number": 64, "value": 127}, "group": "control_change"}, {"time": 2580, "annotation": {"number": 64, "value": 0}, "group": "control_change"}, {"time": 2581, "annotation": {"number": 64, "value": 127}, "group": "control_change"}, {"time": 2601, "annotation": {"number": 64, "value": 0}, "group": "control_change"}, {"time": 2603, "annotation": {"number": 64, "value": 127}, "group": "control_change"}, {"time": 2627, "annotation": {"number": 64, "value": 0}, "group": "control_change"}, {"time": 2628, "annotation": {"number": 64, "value": 127}, "group": "control_change"}, {"time": 2654, "annotation": {"number": 64, "value": 0}, "group": "control_change"}, {"time": 2656, "annotation": {"number": 64, "value": 127}, "group": "control_change"}, {"time": 2676, "annotation": {"number": 64, "value": 0}, "group": "control_change"}, {"time": 2678, "annotation": {"number": 64, "value": 127}, "group": "control_change"}, {"time": 2701, "annotation": {"number": 64, "value": 0}, "group": "control_change"}, {"time": 2706, "annotation": {"number": 64, "value": 127}, "group": "control_change"}, {"time": 2724, "annotation": {"number": 64, "value": 0}, "group": "control_change"}, {"time": 2726, "annotation": {"number": 64, "value": 127}, "group": "control_change"}, {"time": 2748, "annotation": {"number": 64, "value": 0}, "group": "control_change"}, {"time": 2754, "annotation": {"number": 64, "value": 127}, "group": "control_change"}, {"time": 2772, "annotation": {"number": 64, "value": 127}, "group": "control_change"}, {"time": 2772, "annotation": {"number": 64, "value": 0}, "group": "control_change"}, {"time": 2794, "annotation": {"number": 64, "value": 0}, "group": "control_change"}, {"time": 2796, "annotation": {"number": 64, "value": 127}, "group": "control_change"}, {"time": 2820, "annotation": {"number": 64, "value": 0}, "group": "control_change"}, {"time": 2824, "annotation": {"number": 64, "value": 127}, "group": "control_change"}, {"time": 2844, "annotation": {"number": 64, "value": 0}, "group": "control_change"}, {"time": 2846, "annotation": {"number": 64, "value": 127}, "group": "control_change"}, {"time": 2867, "annotation": {"number": 64, "value": 0}, "group": "control_change"}, {"time": 2869, "annotation": {"number": 64, "value": 127}, "group": "control_change"}, {"time": 2892, "annotation": {"number": 64, "value": 0}, "group": "control_change"}, {"time": 2896, "annotation": {"number": 64, "value": 127}, "group": "control_change"}, {"time": 2915, "annotation": {"number": 64, "value": 0}, "group": "control_change"}, {"time": 2916, "annotation": {"number": 64, "value": 127}, "group": "control_change"}, {"time": 2939, "annotation": {"number": 64, "value": 0}, "group": "control_change"}, {"time": 2941, "annotation": {"number": 64, "value": 127}, "group": "control_change"}, {"time": 2964, "annotation": {"number": 64, "value": 0}, "group": "control_change"}, {"time": 2964, "annotation": {"number": 64, "value": 127}, "group": "control_change"}, {"time": 2986, "annotation": {"number": 64, "value": 0}, "group": "control_change"}, {"time": 2988, "annotation": {"number": 64, "value": 127}, "group": "control_change"}, {"time": 3010, "annotation": {"number": 64, "value": 0}, "group": "control_change"}, {"time": 3015, "annotation": {"number": 64, "value": 127}, "group": "control_change"}, {"time": 3036, "annotation": {"number": 64, "value": 0}, "group": "control_change"}, {"time": 3041, "annotation": {"number": 64, "value": 127}, "group": "control_change"}, {"time": 3059, "annotation": {"number": 64, "value": 0}, "group": "control_change"}, {"time": 3060, "annotation": {"number": 64, "value": 127}, "group": "control_change"}, {"time": 3084, "annotation": {"number": 64, "value": 0}, "group": "control_change"}, {"time": 3090, "annotation": {"number": 64, "value": 127}, "group": "control_change"}, {"time": 3106, "annotation": {"number": 64, "value": 0}, "group": "control_change"}, {"time": 3108, "annotation": {"number": 64, "value": 127}, "group": "control_change"}, {"time": 3132, "annotation": {"number": 64, "value": 0}, "group": "control_change"}, {"time": 3134, "annotation": {"number": 64, "value": 127}, "group": "control_change"}, {"time": 3180, "annotation": {"number": 64, "value": 0}, "group": "control_change"}, {"time": 3183, "annotation": {"number": 64, "value": 127}, "group": "control_change"}, {"time": 3206, "annotation": {"number": 64, "value": 0}, "group": "control_change"}, {"time": 3208, "annotation": {"number": 64, "value": 127}, "group": "control_change"}, {"time": 3234, "annotation": {"number": 64, "value": 0}, "group": "control_change"}, {"time": 3235, "annotation": {"number": 64, "value": 127}, "group": "control_change"}, {"time": 3260, "annotation": {"number": 64, "value": 0}, "group": "control_change"}, {"time": 3261, "annotation": {"number": 64, "value": 127}, "group": "control_change"}, {"time": 3286, "annotation": {"number": 64, "value": 0}, "group": "control_change"}, {"time": 3290, "annotation": {"number": 64, "value": 127}, "group": "control_change"}, {"time": 3314, "annotation": {"number": 64, "value": 0}, "group": "control_change"}, {"time": 3315, "annotation": {"number": 64, "value": 127}, "group": "control_change"}, {"time": 3341, "annotation": {"number": 64, "value": 0}, "group": "control_change"}, {"time": 3344, "annotation": {"number": 64, "value": 127}, "group": "control_change"}, {"time": 3366, "annotation": {"number": 64, "value": 0}, "group": "control_change"}, {"time": 3367, "annotation": {"number": 64, "value": 127}, "group": "control_change"}, {"time": 3394, "annotation": {"number": 64, "value": 0}, "group": "control_change"}, {"time": 3395, "annotation": {"number": 64, "value": 127}, "group": "control_change"}, {"time": 3472, "annotation": {"number": 64, "value": 0}, "group": "control_change"}, {"time": 3478, "annotation": {"number": 64, "value": 127}, "group": "control_change"}]}]}