{"metadata": {"schema_version": "0.2", "title": "None", "source_filename": "406.mid", "source_format": "midi"}, "resolution": 12, "tempos": [{"time": 0, "qpm": 86.00005160003096}, {"time": 2268, "qpm": 85.75005573753623}, {"time": 2457, "qpm": 86.00005160003096}], "time_signatures": [{"time": 0, "numerator": 1, "denominator": 4}], "tracks": [{"program": 0, "is_drum": false, "name": "MELODY", "notes": [{"time": 405, "pitch": 68, "duration": 16, "velocity": 89}, {"time": 423, "pitch": 67, "duration": 5, "velocity": 92}, {"time": 429, "pitch": 65, "duration": 8, "velocity": 93}, {"time": 438, "pitch": 67, "duration": 3, "velocity": 90}, {"time": 441, "pitch": 65, "duration": 4, "velocity": 92}, {"time": 447, "pitch": 60, "duration": 4, "velocity": 94}, {"time": 453, "pitch": 63, "duration": 43, "velocity": 94}, {"time": 501, "pitch": 72, "duration": 16, "velocity": 92}, {"time": 519, "pitch": 70, "duration": 4, "velocity": 90}, {"time": 525, "pitch": 68, "duration": 7, "velocity": 88}, {"time": 534, "pitch": 67, "duration": 2, "velocity": 89}, {"time": 537, "pitch": 65, "duration": 4, "velocity": 91}, {"time": 543, "pitch": 68, "duration": 4, "velocity": 89}, {"time": 549, "pitch": 70, "duration": 37, "velocity": 88}, {"time": 597, "pitch": 72, "duration": 5, "velocity": 93}, {"time": 603, "pitch": 75, "duration": 10, "velocity": 95}, {"time": 615, "pitch": 72, "duration": 4, "velocity": 94}, {"time": 621, "pitch": 77, "duration": 10, "velocity": 92}, {"time": 633, "pitch": 77, "duration": 4, "velocity": 93}, {"time": 639, "pitch": 77, "duration": 5, "velocity": 89}, {"time": 645, "pitch": 72, "duration": 7, "velocity": 90}, {"time": 654, "pitch": 75, "duration": 2, "velocity": 82}, {"time": 657, "pitch": 72, "duration": 5, "velocity": 92}, {"time": 663, "pitch": 70, "duration": 4, "velocity": 92}, {"time": 669, "pitch": 68, "duration": 19, "velocity": 84}, {"time": 693, "pitch": 65, "duration": 4, "velocity": 92}, {"time": 699, "pitch": 65, "duration": 4, "velocity": 95}, {"time": 705, "pitch": 65, "duration": 4, "velocity": 95}, {"time": 711, "pitch": 75, "duration": 4, "velocity": 95}, {"time": 717, "pitch": 72, "duration": 4, "velocity": 89}, {"time": 723, "pitch": 70, "duration": 2, "velocity": 92}, {"time": 726, "pitch": 72, "duration": 2, "velocity": 91}, {"time": 729, "pitch": 70, "duration": 5, "velocity": 92}, {"time": 735, "pitch": 65, "duration": 4, "velocity": 95}, {"time": 741, "pitch": 68, "duration": 44, "velocity": 87}, {"time": 789, "pitch": 68, "duration": 16, "velocity": 89}, {"time": 807, "pitch": 67, "duration": 5, "velocity": 92}, {"time": 813, "pitch": 65, "duration": 8, "velocity": 93}, {"time": 822, "pitch": 67, "duration": 3, "velocity": 90}, {"time": 825, "pitch": 65, "duration": 4, "velocity": 92}, {"time": 831, "pitch": 60, "duration": 4, "velocity": 94}, {"time": 837, "pitch": 63, "duration": 43, "velocity": 94}, {"time": 885, "pitch": 72, "duration": 8, "velocity": 89}, {"time": 894, "pitch": 75, "duration": 2, "velocity": 95}, {"time": 897, "pitch": 72, "duration": 5, "velocity": 90}, {"time": 903, "pitch": 75, "duration": 3, "velocity": 99}, {"time": 909, "pitch": 77, "duration": 7, "velocity": 93}, {"time": 915, "pitch": 75, "duration": 4, "velocity": 90}, {"time": 921, "pitch": 72, "duration": 4, "velocity": 94}, {"time": 927, "pitch": 70, "duration": 5, "velocity": 87}, {"time": 933, "pitch": 70, "duration": 41, "velocity": 90}, {"time": 981, "pitch": 68, "duration": 5, "velocity": 89}, {"time": 987, "pitch": 68, "duration": 4, "velocity": 88}, {"time": 993, "pitch": 68, "duration": 4, "velocity": 89}, {"time": 999, "pitch": 70, "duration": 5, "velocity": 89}, {"time": 1005, "pitch": 72, "duration": 8, "velocity": 89}, {"time": 1014, "pitch": 72, "duration": 2, "velocity": 88}, {"time": 1017, "pitch": 72, "duration": 4, "velocity": 92}, {"time": 1023, "pitch": 72, "duration": 4, "velocity": 92}, {"time": 1029, "pitch": 75, "duration": 4, "velocity": 90}, {"time": 1035, "pitch": 75, "duration": 4, "velocity": 94}, {"time": 1041, "pitch": 67, "duration": 4, "velocity": 95}, {"time": 1047, "pitch": 67, "duration": 5, "velocity": 90}, {"time": 1053, "pitch": 65, "duration": 6, "velocity": 90}, {"time": 1059, "pitch": 67, "duration": 3, "velocity": 81}, {"time": 1062, "pitch": 65, "duration": 3, "velocity": 89}, {"time": 1065, "pitch": 63, "duration": 9, "velocity": 94}, {"time": 1077, "pitch": 70, "duration": 4, "velocity": 79}, {"time": 1083, "pitch": 70, "duration": 4, "velocity": 89}, {"time": 1089, "pitch": 70, "duration": 5, "velocity": 89}, {"time": 1095, "pitch": 72, "duration": 4, "velocity": 88}, {"time": 1101, "pitch": 67, "duration": 6, "velocity": 89}, {"time": 1107, "pitch": 65, "duration": 5, "velocity": 90}, {"time": 1113, "pitch": 63, "duration": 11, "velocity": 89}, {"time": 1125, "pitch": 65, "duration": 43, "velocity": 91}, {"time": 1173, "pitch": 68, "duration": 16, "velocity": 89}, {"time": 1191, "pitch": 67, "duration": 5, "velocity": 92}, {"time": 1197, "pitch": 65, "duration": 8, "velocity": 93}, {"time": 1206, "pitch": 67, "duration": 3, "velocity": 90}, {"time": 1209, "pitch": 65, "duration": 4, "velocity": 92}, {"time": 1215, "pitch": 60, "duration": 4, "velocity": 94}, {"time": 1221, "pitch": 63, "duration": 43, "velocity": 94}, {"time": 1269, "pitch": 72, "duration": 8, "velocity": 89}, {"time": 1278, "pitch": 75, "duration": 2, "velocity": 95}, {"time": 1281, "pitch": 72, "duration": 5, "velocity": 90}, {"time": 1287, "pitch": 75, "duration": 3, "velocity": 99}, {"time": 1293, "pitch": 77, "duration": 7, "velocity": 93}, {"time": 1299, "pitch": 75, "duration": 4, "velocity": 90}, {"time": 1305, "pitch": 72, "duration": 4, "velocity": 94}, {"time": 1311, "pitch": 70, "duration": 5, "velocity": 87}, {"time": 1317, "pitch": 70, "duration": 41, "velocity": 90}, {"time": 1365, "pitch": 68, "duration": 5, "velocity": 89}, {"time": 1371, "pitch": 68, "duration": 4, "velocity": 88}, {"time": 1377, "pitch": 68, "duration": 4, "velocity": 89}, {"time": 1383, "pitch": 70, "duration": 5, "velocity": 89}, {"time": 1389, "pitch": 72, "duration": 8, "velocity": 89}, {"time": 1401, "pitch": 72, "duration": 4, "velocity": 92}, {"time": 1407, "pitch": 72, "duration": 4, "velocity": 92}, {"time": 1413, "pitch": 75, "duration": 4, "velocity": 90}, {"time": 1419, "pitch": 75, "duration": 4, "velocity": 94}, {"time": 1425, "pitch": 67, "duration": 6, "velocity": 95}, {"time": 1431, "pitch": 67, "duration": 5, "velocity": 90}, {"time": 1437, "pitch": 65, "duration": 6, "velocity": 90}, {"time": 1443, "pitch": 67, "duration": 3, "velocity": 81}, {"time": 1446, "pitch": 65, "duration": 3, "velocity": 89}, {"time": 1449, "pitch": 63, "duration": 9, "velocity": 94}, {"time": 1461, "pitch": 70, "duration": 4, "velocity": 79}, {"time": 1467, "pitch": 70, "duration": 4, "velocity": 89}, {"time": 1473, "pitch": 70, "duration": 5, "velocity": 89}, {"time": 1479, "pitch": 72, "duration": 4, "velocity": 88}, {"time": 1485, "pitch": 67, "duration": 6, "velocity": 89}, {"time": 1491, "pitch": 65, "duration": 5, "velocity": 90}, {"time": 1497, "pitch": 63, "duration": 11, "velocity": 89}, {"time": 1509, "pitch": 65, "duration": 43, "velocity": 91}, {"time": 1557, "pitch": 68, "duration": 6, "velocity": 89}, {"time": 1563, "pitch": 68, "duration": 10, "velocity": 89}, {"time": 1575, "pitch": 67, "duration": 5, "velocity": 92}, {"time": 1581, "pitch": 65, "duration": 8, "velocity": 93}, {"time": 1590, "pitch": 67, "duration": 3, "velocity": 90}, {"time": 1593, "pitch": 65, "duration": 4, "velocity": 92}, {"time": 1599, "pitch": 60, "duration": 4, "velocity": 94}, {"time": 1605, "pitch": 63, "duration": 36, "velocity": 94}, {"time": 1641, "pitch": 72, "duration": 6, "velocity": 89}, {"time": 1647, "pitch": 75, "duration": 5, "velocity": 91}, {"time": 1653, "pitch": 72, "duration": 8, "velocity": 89}, {"time": 1662, "pitch": 75, "duration": 2, "velocity": 95}, {"time": 1665, "pitch": 72, "duration": 5, "velocity": 90}, {"time": 1671, "pitch": 75, "duration": 3, "velocity": 99}, {"time": 1677, "pitch": 77, "duration": 7, "velocity": 93}, {"time": 1683, "pitch": 75, "duration": 4, "velocity": 90}, {"time": 1689, "pitch": 72, "duration": 4, "velocity": 94}, {"time": 1695, "pitch": 70, "duration": 5, "velocity": 87}, {"time": 1701, "pitch": 70, "duration": 41, "velocity": 90}, {"time": 1749, "pitch": 68, "duration": 5, "velocity": 89}, {"time": 1755, "pitch": 68, "duration": 9, "velocity": 88}, {"time": 1767, "pitch": 70, "duration": 5, "velocity": 89}, {"time": 1773, "pitch": 72, "duration": 8, "velocity": 89}, {"time": 1785, "pitch": 72, "duration": 4, "velocity": 92}, {"time": 1791, "pitch": 72, "duration": 4, "velocity": 92}, {"time": 1797, "pitch": 75, "duration": 4, "velocity": 90}, {"time": 1803, "pitch": 75, "duration": 4, "velocity": 94}, {"time": 1809, "pitch": 67, "duration": 4, "velocity": 95}, {"time": 1815, "pitch": 67, "duration": 5, "velocity": 90}, {"time": 1821, "pitch": 65, "duration": 6, "velocity": 90}, {"time": 1827, "pitch": 67, "duration": 3, "velocity": 81}, {"time": 1830, "pitch": 65, "duration": 3, "velocity": 89}, {"time": 1833, "pitch": 63, "duration": 9, "velocity": 94}, {"time": 1845, "pitch": 70, "duration": 4, "velocity": 79}, {"time": 1851, "pitch": 70, "duration": 4, "velocity": 89}, {"time": 1857, "pitch": 70, "duration": 5, "velocity": 89}, {"time": 1863, "pitch": 72, "duration": 4, "velocity": 88}, {"time": 1869, "pitch": 67, "duration": 6, "velocity": 89}, {"time": 1875, "pitch": 65, "duration": 5, "velocity": 90}, {"time": 1881, "pitch": 63, "duration": 11, "velocity": 89}, {"time": 1893, "pitch": 65, "duration": 43, "velocity": 91}, {"time": 1941, "pitch": 68, "duration": 6, "velocity": 89}, {"time": 1947, "pitch": 68, "duration": 10, "velocity": 89}, {"time": 1959, "pitch": 67, "duration": 5, "velocity": 92}, {"time": 1965, "pitch": 65, "duration": 8, "velocity": 93}, {"time": 1974, "pitch": 67, "duration": 3, "velocity": 90}, {"time": 1977, "pitch": 65, "duration": 4, "velocity": 92}, {"time": 1983, "pitch": 63, "duration": 5, "velocity": 89}, {"time": 1989, "pitch": 65, "duration": 7, "velocity": 89}, {"time": 1998, "pitch": 67, "duration": 3, "velocity": 86}, {"time": 2001, "pitch": 65, "duration": 4, "velocity": 86}, {"time": 2007, "pitch": 63, "duration": 5, "velocity": 88}, {"time": 2013, "pitch": 60, "duration": 19, "velocity": 90}, {"time": 2037, "pitch": 72, "duration": 4, "velocity": 89}, {"time": 2043, "pitch": 72, "duration": 4, "velocity": 90}, {"time": 2049, "pitch": 72, "duration": 4, "velocity": 90}, {"time": 2055, "pitch": 70, "duration": 5, "velocity": 89}, {"time": 2061, "pitch": 68, "duration": 4, "velocity": 88}, {"time": 2067, "pitch": 67, "duration": 5, "velocity": 90}, {"time": 2073, "pitch": 65, "duration": 5, "velocity": 92}, {"time": 2079, "pitch": 68, "duration": 4, "velocity": 88}, {"time": 2085, "pitch": 70, "duration": 37, "velocity": 88}, {"time": 2133, "pitch": 72, "duration": 5, "velocity": 91}, {"time": 2139, "pitch": 75, "duration": 10, "velocity": 104}, {"time": 2151, "pitch": 72, "duration": 4, "velocity": 91}, {"time": 2157, "pitch": 77, "duration": 10, "velocity": 89}, {"time": 2169, "pitch": 77, "duration": 9, "velocity": 92}, {"time": 2181, "pitch": 72, "duration": 5, "velocity": 94}, {"time": 2187, "pitch": 75, "duration": 4, "velocity": 95}, {"time": 2193, "pitch": 72, "duration": 5, "velocity": 89}, {"time": 2199, "pitch": 70, "duration": 4, "velocity": 88}, {"time": 2205, "pitch": 68, "duration": 20, "velocity": 89}, {"time": 2223, "pitch": 67, "duration": 5, "velocity": 89}, {"time": 2229, "pitch": 65, "duration": 4, "velocity": 93}, {"time": 2235, "pitch": 65, "duration": 4, "velocity": 94}, {"time": 2241, "pitch": 65, "duration": 4, "velocity": 95}, {"time": 2247, "pitch": 75, "duration": 4, "velocity": 95}, {"time": 2253, "pitch": 72, "duration": 4, "velocity": 89}, {"time": 2259, "pitch": 70, "duration": 4, "velocity": 90}, {"time": 2265, "pitch": 70, "duration": 4, "velocity": 90}, {"time": 2271, "pitch": 65, "duration": 4, "velocity": 94}, {"time": 2277, "pitch": 68, "duration": 43, "velocity": 89}, {"time": 2709, "pitch": 68, "duration": 16, "velocity": 89}, {"time": 2727, "pitch": 67, "duration": 5, "velocity": 92}, {"time": 2733, "pitch": 65, "duration": 8, "velocity": 93}, {"time": 2742, "pitch": 67, "duration": 3, "velocity": 90}, {"time": 2745, "pitch": 65, "duration": 4, "velocity": 92}, {"time": 2751, "pitch": 60, "duration": 4, "velocity": 94}, {"time": 2757, "pitch": 63, "duration": 43, "velocity": 94}, {"time": 2805, "pitch": 72, "duration": 16, "velocity": 92}, {"time": 2823, "pitch": 70, "duration": 4, "velocity": 90}, {"time": 2829, "pitch": 68, "duration": 7, "velocity": 88}, {"time": 2838, "pitch": 67, "duration": 2, "velocity": 89}, {"time": 2841, "pitch": 65, "duration": 4, "velocity": 91}, {"time": 2847, "pitch": 68, "duration": 4, "velocity": 89}, {"time": 2853, "pitch": 70, "duration": 37, "velocity": 88}, {"time": 2901, "pitch": 72, "duration": 5, "velocity": 93}, {"time": 2907, "pitch": 75, "duration": 10, "velocity": 95}, {"time": 2919, "pitch": 72, "duration": 4, "velocity": 94}, {"time": 2925, "pitch": 77, "duration": 10, "velocity": 92}, {"time": 2937, "pitch": 77, "duration": 4, "velocity": 93}, {"time": 2943, "pitch": 77, "duration": 5, "velocity": 89}, {"time": 2949, "pitch": 72, "duration": 7, "velocity": 90}, {"time": 2958, "pitch": 75, "duration": 2, "velocity": 82}, {"time": 2961, "pitch": 72, "duration": 5, "velocity": 92}, {"time": 2967, "pitch": 70, "duration": 4, "velocity": 92}, {"time": 2973, "pitch": 68, "duration": 19, "velocity": 84}, {"time": 2997, "pitch": 65, "duration": 4, "velocity": 92}, {"time": 3003, "pitch": 65, "duration": 4, "velocity": 95}, {"time": 3009, "pitch": 65, "duration": 4, "velocity": 95}, {"time": 3015, "pitch": 75, "duration": 4, "velocity": 95}, {"time": 3021, "pitch": 72, "duration": 4, "velocity": 89}, {"time": 3027, "pitch": 70, "duration": 2, "velocity": 92}, {"time": 3030, "pitch": 72, "duration": 2, "velocity": 91}, {"time": 3033, "pitch": 70, "duration": 5, "velocity": 92}, {"time": 3039, "pitch": 65, "duration": 4, "velocity": 95}, {"time": 3045, "pitch": 68, "duration": 44, "velocity": 87}, {"time": 3093, "pitch": 68, "duration": 6, "velocity": 89}, {"time": 3099, "pitch": 68, "duration": 10, "velocity": 89}, {"time": 3111, "pitch": 67, "duration": 5, "velocity": 92}, {"time": 3117, "pitch": 65, "duration": 8, "velocity": 93}, {"time": 3126, "pitch": 67, "duration": 3, "velocity": 90}, {"time": 3129, "pitch": 65, "duration": 4, "velocity": 92}, {"time": 3135, "pitch": 60, "duration": 4, "velocity": 94}, {"time": 3141, "pitch": 63, "duration": 43, "velocity": 94}, {"time": 3189, "pitch": 72, "duration": 8, "velocity": 89}, {"time": 3198, "pitch": 75, "duration": 2, "velocity": 95}, {"time": 3201, "pitch": 72, "duration": 5, "velocity": 90}, {"time": 3207, "pitch": 75, "duration": 3, "velocity": 99}, {"time": 3213, "pitch": 77, "duration": 7, "velocity": 93}, {"time": 3219, "pitch": 75, "duration": 4, "velocity": 90}, {"time": 3225, "pitch": 72, "duration": 4, "velocity": 94}, {"time": 3231, "pitch": 70, "duration": 5, "velocity": 87}, {"time": 3237, "pitch": 70, "duration": 41, "velocity": 90}, {"time": 3285, "pitch": 68, "duration": 5, "velocity": 89}, {"time": 3291, "pitch": 68, "duration": 4, "velocity": 88}, {"time": 3297, "pitch": 68, "duration": 4, "velocity": 89}, {"time": 3303, "pitch": 70, "duration": 5, "velocity": 89}, {"time": 3309, "pitch": 72, "duration": 8, "velocity": 89}, {"time": 3318, "pitch": 72, "duration": 2, "velocity": 88}, {"time": 3321, "pitch": 72, "duration": 4, "velocity": 92}, {"time": 3327, "pitch": 72, "duration": 4, "velocity": 92}, {"time": 3333, "pitch": 75, "duration": 4, "velocity": 90}, {"time": 3339, "pitch": 75, "duration": 4, "velocity": 94}, {"time": 3345, "pitch": 67, "duration": 9, "velocity": 95}, {"time": 3357, "pitch": 65, "duration": 6, "velocity": 90}, {"time": 3363, "pitch": 67, "duration": 3, "velocity": 81}, {"time": 3366, "pitch": 65, "duration": 3, "velocity": 89}, {"time": 3369, "pitch": 63, "duration": 9, "velocity": 94}, {"time": 3381, "pitch": 70, "duration": 4, "velocity": 79}, {"time": 3387, "pitch": 70, "duration": 4, "velocity": 89}, {"time": 3393, "pitch": 70, "duration": 5, "velocity": 89}, {"time": 3399, "pitch": 72, "duration": 4, "velocity": 88}, {"time": 3405, "pitch": 67, "duration": 6, "velocity": 89}, {"time": 3411, "pitch": 65, "duration": 5, "velocity": 90}, {"time": 3417, "pitch": 63, "duration": 11, "velocity": 89}, {"time": 3429, "pitch": 65, "duration": 43, "velocity": 91}, {"time": 3477, "pitch": 68, "duration": 6, "velocity": 89}, {"time": 3483, "pitch": 68, "duration": 10, "velocity": 89}, {"time": 3495, "pitch": 67, "duration": 5, "velocity": 92}, {"time": 3501, "pitch": 65, "duration": 8, "velocity": 93}, {"time": 3510, "pitch": 67, "duration": 3, "velocity": 90}, {"time": 3513, "pitch": 65, "duration": 4, "velocity": 92}, {"time": 3519, "pitch": 60, "duration": 4, "velocity": 94}, {"time": 3525, "pitch": 63, "duration": 43, "velocity": 94}, {"time": 3573, "pitch": 72, "duration": 8, "velocity": 89}, {"time": 3582, "pitch": 75, "duration": 2, "velocity": 95}, {"time": 3585, "pitch": 72, "duration": 5, "velocity": 90}, {"time": 3591, "pitch": 75, "duration": 3, "velocity": 99}, {"time": 3597, "pitch": 77, "duration": 7, "velocity": 93}, {"time": 3603, "pitch": 75, "duration": 4, "velocity": 90}, {"time": 3609, "pitch": 72, "duration": 4, "velocity": 94}, {"time": 3615, "pitch": 70, "duration": 5, "velocity": 87}, {"time": 3621, "pitch": 70, "duration": 41, "velocity": 90}, {"time": 3669, "pitch": 68, "duration": 5, "velocity": 89}, {"time": 3675, "pitch": 68, "duration": 4, "velocity": 88}, {"time": 3681, "pitch": 68, "duration": 4, "velocity": 89}, {"time": 3687, "pitch": 70, "duration": 5, "velocity": 89}, {"time": 3693, "pitch": 72, "duration": 8, "velocity": 89}, {"time": 3705, "pitch": 72, "duration": 4, "velocity": 92}, {"time": 3711, "pitch": 72, "duration": 4, "velocity": 92}, {"time": 3717, "pitch": 75, "duration": 4, "velocity": 90}, {"time": 3723, "pitch": 75, "duration": 4, "velocity": 94}, {"time": 3729, "pitch": 67, "duration": 12, "velocity": 95}, {"time": 3741, "pitch": 65, "duration": 6, "velocity": 90}, {"time": 3747, "pitch": 67, "duration": 3, "velocity": 81}, {"time": 3750, "pitch": 65, "duration": 3, "velocity": 89}, {"time": 3753, "pitch": 63, "duration": 9, "velocity": 94}, {"time": 3765, "pitch": 70, "duration": 4, "velocity": 79}, {"time": 3771, "pitch": 70, "duration": 4, "velocity": 89}, {"time": 3777, "pitch": 70, "duration": 5, "velocity": 89}, {"time": 3783, "pitch": 72, "duration": 4, "velocity": 88}, {"time": 3789, "pitch": 67, "duration": 6, "velocity": 89}, {"time": 3795, "pitch": 65, "duration": 5, "velocity": 90}, {"time": 3801, "pitch": 63, "duration": 11, "velocity": 89}, {"time": 3813, "pitch": 65, "duration": 43, "velocity": 91}, {"time": 3861, "pitch": 68, "duration": 6, "velocity": 89}, {"time": 3867, "pitch": 68, "duration": 10, "velocity": 89}, {"time": 3879, "pitch": 67, "duration": 5, "velocity": 92}, {"time": 3885, "pitch": 65, "duration": 8, "velocity": 93}, {"time": 3894, "pitch": 67, "duration": 3, "velocity": 90}, {"time": 3897, "pitch": 65, "duration": 4, "velocity": 92}, {"time": 3903, "pitch": 60, "duration": 4, "velocity": 94}, {"time": 3909, "pitch": 63, "duration": 36, "velocity": 94}, {"time": 3945, "pitch": 72, "duration": 6, "velocity": 89}, {"time": 3951, "pitch": 75, "duration": 5, "velocity": 91}, {"time": 3957, "pitch": 72, "duration": 8, "velocity": 89}, {"time": 3966, "pitch": 75, "duration": 2, "velocity": 95}, {"time": 3969, "pitch": 72, "duration": 5, "velocity": 90}, {"time": 3975, "pitch": 75, "duration": 3, "velocity": 99}, {"time": 3981, "pitch": 77, "duration": 7, "velocity": 93}, {"time": 3987, "pitch": 75, "duration": 4, "velocity": 90}, {"time": 3993, "pitch": 72, "duration": 4, "velocity": 94}, {"time": 3999, "pitch": 70, "duration": 5, "velocity": 87}, {"time": 4005, "pitch": 70, "duration": 41, "velocity": 90}, {"time": 4053, "pitch": 68, "duration": 5, "velocity": 89}, {"time": 4059, "pitch": 68, "duration": 9, "velocity": 88}, {"time": 4071, "pitch": 70, "duration": 5, "velocity": 89}, {"time": 4077, "pitch": 72, "duration": 8, "velocity": 89}, {"time": 4089, "pitch": 72, "duration": 4, "velocity": 92}, {"time": 4095, "pitch": 72, "duration": 4, "velocity": 92}, {"time": 4101, "pitch": 75, "duration": 4, "velocity": 90}, {"time": 4107, "pitch": 75, "duration": 4, "velocity": 94}, {"time": 4113, "pitch": 67, "duration": 4, "velocity": 95}, {"time": 4119, "pitch": 67, "duration": 5, "velocity": 90}, {"time": 4125, "pitch": 65, "duration": 6, "velocity": 90}, {"time": 4131, "pitch": 67, "duration": 3, "velocity": 81}, {"time": 4134, "pitch": 65, "duration": 3, "velocity": 89}, {"time": 4137, "pitch": 63, "duration": 9, "velocity": 94}, {"time": 4149, "pitch": 70, "duration": 4, "velocity": 79}, {"time": 4155, "pitch": 70, "duration": 4, "velocity": 89}, {"time": 4161, "pitch": 70, "duration": 5, "velocity": 89}, {"time": 4167, "pitch": 72, "duration": 4, "velocity": 88}, {"time": 4173, "pitch": 67, "duration": 6, "velocity": 89}, {"time": 4179, "pitch": 65, "duration": 5, "velocity": 90}, {"time": 4185, "pitch": 63, "duration": 11, "velocity": 89}, {"time": 4197, "pitch": 65, "duration": 43, "velocity": 91}]}, {"program": 0, "is_drum": false, "name": "PIANO", "notes": [{"time": 21, "pitch": 44, "duration": 21, "velocity": 88}, {"time": 27, "pitch": 56, "duration": 7, "velocity": 84}, {"time": 27, "pitch": 60, "duration": 6, "velocity": 83}, {"time": 27, "pitch": 63, "duration": 7, "velocity": 88}, {"time": 39, "pitch": 56, "duration": 6, "velocity": 83}, {"time": 39, "pitch": 60, "duration": 6, "velocity": 85}, {"time": 39, "pitch": 63, "duration": 21, "velocity": 87}, {"time": 45, "pitch": 41, "duration": 10, "velocity": 89}, {"time": 51, "pitch": 53, "duration": 9, "velocity": 80}, {"time": 51, "pitch": 56, "duration": 9, "velocity": 80}, {"time": 51, "pitch": 60, "duration": 9, "velocity": 77}, {"time": 57, "pitch": 48, "duration": 5, "velocity": 68}, {"time": 63, "pitch": 53, "duration": 4, "velocity": 84}, {"time": 63, "pitch": 56, "duration": 5, "velocity": 88}, {"time": 63, "pitch": 60, "duration": 5, "velocity": 82}, {"time": 63, "pitch": 63, "duration": 7, "velocity": 87}, {"time": 69, "pitch": 51, "duration": 19, "velocity": 90}, {"time": 75, "pitch": 63, "duration": 7, "velocity": 72}, {"time": 75, "pitch": 67, "duration": 8, "velocity": 77}, {"time": 87, "pitch": 63, "duration": 8, "velocity": 85}, {"time": 87, "pitch": 67, "duration": 8, "velocity": 84}, {"time": 87, "pitch": 70, "duration": 7, "velocity": 83}, {"time": 93, "pitch": 55, "duration": 2, "velocity": 63}, {"time": 93, "pitch": 58, "duration": 13, "velocity": 76}, {"time": 99, "pitch": 63, "duration": 9, "velocity": 80}, {"time": 99, "pitch": 67, "duration": 9, "velocity": 79}, {"time": 99, "pitch": 70, "duration": 9, "velocity": 86}, {"time": 99, "pitch": 75, "duration": 8, "velocity": 85}, {"time": 105, "pitch": 55, "duration": 3, "velocity": 87}, {"time": 111, "pitch": 63, "duration": 2, "velocity": 84}, {"time": 117, "pitch": 44, "duration": 20, "velocity": 88}, {"time": 117, "pitch": 56, "duration": 5, "velocity": 82}, {"time": 117, "pitch": 60, "duration": 4, "velocity": 80}, {"time": 123, "pitch": 56, "duration": 7, "velocity": 85}, {"time": 123, "pitch": 60, "duration": 8, "velocity": 86}, {"time": 123, "pitch": 63, "duration": 7, "velocity": 89}, {"time": 135, "pitch": 56, "duration": 6, "velocity": 83}, {"time": 135, "pitch": 60, "duration": 6, "velocity": 88}, {"time": 135, "pitch": 63, "duration": 5, "velocity": 85}, {"time": 141, "pitch": 41, "duration": 17, "velocity": 84}, {"time": 147, "pitch": 53, "duration": 9, "velocity": 87}, {"time": 147, "pitch": 56, "duration": 9, "velocity": 87}, {"time": 153, "pitch": 48, "duration": 6, "velocity": 75}, {"time": 159, "pitch": 53, "duration": 4, "velocity": 88}, {"time": 159, "pitch": 56, "duration": 4, "velocity": 85}, {"time": 165, "pitch": 46, "duration": 14, "velocity": 89}, {"time": 171, "pitch": 58, "duration": 9, "velocity": 85}, {"time": 171, "pitch": 61, "duration": 9, "velocity": 88}, {"time": 183, "pitch": 58, "duration": 9, "velocity": 88}, {"time": 183, "pitch": 61, "duration": 6, "velocity": 89}, {"time": 189, "pitch": 51, "duration": 10, "velocity": 88}, {"time": 195, "pitch": 58, "duration": 7, "velocity": 84}, {"time": 195, "pitch": 63, "duration": 9, "velocity": 89}, {"time": 195, "pitch": 67, "duration": 8, "velocity": 84}, {"time": 201, "pitch": 51, "duration": 7, "velocity": 83}, {"time": 207, "pitch": 58, "duration": 7, "velocity": 92}, {"time": 207, "pitch": 63, "duration": 1, "velocity": 63}, {"time": 213, "pitch": 44, "duration": 12, "velocity": 88}, {"time": 219, "pitch": 56, "duration": 9, "velocity": 86}, {"time": 219, "pitch": 60, "duration": 9, "velocity": 86}, {"time": 219, "pitch": 63, "duration": 8, "velocity": 87}, {"time": 231, "pitch": 56, "duration": 6, "velocity": 86}, {"time": 231, "pitch": 60, "duration": 5, "velocity": 89}, {"time": 231, "pitch": 63, "duration": 12, "velocity": 86}, {"time": 237, "pitch": 41, "duration": 9, "velocity": 90}, {"time": 243, "pitch": 53, "duration": 10, "velocity": 85}, {"time": 243, "pitch": 56, "duration": 10, "velocity": 85}, {"time": 243, "pitch": 60, "duration": 10, "velocity": 83}, {"time": 249, "pitch": 48, "duration": 7, "velocity": 84}, {"time": 255, "pitch": 53, "duration": 3, "velocity": 90}, {"time": 255, "pitch": 56, "duration": 3, "velocity": 88}, {"time": 255, "pitch": 60, "duration": 4, "velocity": 88}, {"time": 261, "pitch": 44, "duration": 12, "velocity": 89}, {"time": 267, "pitch": 56, "duration": 8, "velocity": 87}, {"time": 267, "pitch": 60, "duration": 7, "velocity": 88}, {"time": 267, "pitch": 63, "duration": 7, "velocity": 88}, {"time": 279, "pitch": 56, "duration": 7, "velocity": 89}, {"time": 279, "pitch": 60, "duration": 6, "velocity": 90}, {"time": 279, "pitch": 63, "duration": 20, "velocity": 89}, {"time": 285, "pitch": 41, "duration": 10, "velocity": 89}, {"time": 291, "pitch": 53, "duration": 10, "velocity": 88}, {"time": 291, "pitch": 56, "duration": 9, "velocity": 85}, {"time": 291, "pitch": 60, "duration": 10, "velocity": 87}, {"time": 297, "pitch": 48, "duration": 7, "velocity": 79}, {"time": 303, "pitch": 53, "duration": 5, "velocity": 89}, {"time": 303, "pitch": 56, "duration": 5, "velocity": 88}, {"time": 303, "pitch": 60, "duration": 5, "velocity": 88}, {"time": 309, "pitch": 49, "duration": 9, "velocity": 89}, {"time": 315, "pitch": 61, "duration": 8, "velocity": 84}, {"time": 315, "pitch": 65, "duration": 8, "velocity": 88}, {"time": 315, "pitch": 68, "duration": 8, "velocity": 83}, {"time": 327, "pitch": 61, "duration": 7, "velocity": 83}, {"time": 327, "pitch": 65, "duration": 6, "velocity": 84}, {"time": 327, "pitch": 68, "duration": 8, "velocity": 81}, {"time": 333, "pitch": 39, "duration": 9, "velocity": 88}, {"time": 339, "pitch": 63, "duration": 9, "velocity": 87}, {"time": 339, "pitch": 67, "duration": 8, "velocity": 90}, {"time": 345, "pitch": 46, "duration": 4, "velocity": 80}, {"time": 351, "pitch": 63, "duration": 8, "velocity": 81}, {"time": 351, "pitch": 70, "duration": 8, "velocity": 82}, {"time": 357, "pitch": 44, "duration": 21, "velocity": 84}, {"time": 363, "pitch": 63, "duration": 3, "velocity": 83}, {"time": 363, "pitch": 72, "duration": 6, "velocity": 87}, {"time": 369, "pitch": 70, "duration": 7, "velocity": 89}, {"time": 375, "pitch": 65, "duration": 5, "velocity": 84}, {"time": 381, "pitch": 44, "duration": 20, "velocity": 87}, {"time": 381, "pitch": 63, "duration": 2, "velocity": 77}, {"time": 381, "pitch": 68, "duration": 14, "velocity": 80}, {"time": 387, "pitch": 51, "duration": 14, "velocity": 82}, {"time": 393, "pitch": 63, "duration": 9, "velocity": 85}, {"time": 405, "pitch": 44, "duration": 21, "velocity": 88}, {"time": 411, "pitch": 56, "duration": 4, "velocity": 78}, {"time": 414, "pitch": 60, "duration": 2, "velocity": 80}, {"time": 417, "pitch": 56, "duration": 2, "velocity": 83}, {"time": 417, "pitch": 63, "duration": 3, "velocity": 88}, {"time": 423, "pitch": 56, "duration": 5, "velocity": 92}, {"time": 423, "pitch": 63, "duration": 10, "velocity": 88}, {"time": 429, "pitch": 41, "duration": 14, "velocity": 81}, {"time": 435, "pitch": 53, "duration": 8, "velocity": 89}, {"time": 435, "pitch": 56, "duration": 8, "velocity": 89}, {"time": 435, "pitch": 63, "duration": 3, "velocity": 68}, {"time": 441, "pitch": 48, "duration": 4, "velocity": 71}, {"time": 447, "pitch": 53, "duration": 3, "velocity": 88}, {"time": 447, "pitch": 56, "duration": 3, "velocity": 88}, {"time": 447, "pitch": 63, "duration": 5, "velocity": 87}, {"time": 453, "pitch": 51, "duration": 19, "velocity": 91}, {"time": 459, "pitch": 63, "duration": 5, "velocity": 75}, {"time": 462, "pitch": 67, "duration": 2, "velocity": 76}, {"time": 465, "pitch": 63, "duration": 2, "velocity": 77}, {"time": 465, "pitch": 67, "duration": 2, "velocity": 83}, {"time": 465, "pitch": 70, "duration": 3, "velocity": 88}, {"time": 471, "pitch": 63, "duration": 6, "velocity": 89}, {"time": 471, "pitch": 67, "duration": 6, "velocity": 89}, {"time": 471, "pitch": 70, "duration": 5, "velocity": 89}, {"time": 477, "pitch": 58, "duration": 15, "velocity": 77}, {"time": 483, "pitch": 63, "duration": 6, "velocity": 88}, {"time": 483, "pitch": 67, "duration": 5, "velocity": 87}, {"time": 483, "pitch": 75, "duration": 5, "velocity": 89}, {"time": 489, "pitch": 55, "duration": 3, "velocity": 76}, {"time": 495, "pitch": 63, "duration": 2, "velocity": 74}, {"time": 495, "pitch": 67, "duration": 1, "velocity": 73}, {"time": 495, "pitch": 70, "duration": 3, "velocity": 81}, {"time": 501, "pitch": 44, "duration": 20, "velocity": 89}, {"time": 501, "pitch": 63, "duration": 4, "velocity": 82}, {"time": 501, "pitch": 68, "duration": 4, "velocity": 82}, {"time": 507, "pitch": 51, "duration": 13, "velocity": 66}, {"time": 510, "pitch": 56, "duration": 4, "velocity": 89}, {"time": 513, "pitch": 60, "duration": 2, "velocity": 88}, {"time": 519, "pitch": 56, "duration": 5, "velocity": 89}, {"time": 519, "pitch": 60, "duration": 4, "velocity": 93}, {"time": 519, "pitch": 63, "duration": 4, "velocity": 93}, {"time": 525, "pitch": 41, "duration": 10, "velocity": 92}, {"time": 531, "pitch": 53, "duration": 9, "velocity": 85}, {"time": 531, "pitch": 56, "duration": 8, "velocity": 85}, {"time": 537, "pitch": 48, "duration": 3, "velocity": 79}, {"time": 543, "pitch": 53, "duration": 4, "velocity": 90}, {"time": 543, "pitch": 56, "duration": 4, "velocity": 88}, {"time": 549, "pitch": 46, "duration": 13, "velocity": 89}, {"time": 555, "pitch": 58, "duration": 5, "velocity": 77}, {"time": 558, "pitch": 61, "duration": 2, "velocity": 80}, {"time": 561, "pitch": 58, "duration": 1, "velocity": 81}, {"time": 561, "pitch": 65, "duration": 3, "velocity": 90}, {"time": 567, "pitch": 58, "duration": 5, "velocity": 88}, {"time": 567, "pitch": 65, "duration": 6, "velocity": 92}, {"time": 573, "pitch": 51, "duration": 8, "velocity": 90}, {"time": 579, "pitch": 63, "duration": 8, "velocity": 89}, {"time": 579, "pitch": 67, "duration": 8, "velocity": 84}, {"time": 585, "pitch": 58, "duration": 2, "velocity": 83}, {"time": 591, "pitch": 63, "duration": 5, "velocity": 87}, {"time": 591, "pitch": 70, "duration": 5, "velocity": 87}, {"time": 597, "pitch": 44, "duration": 16, "velocity": 88}, {"time": 603, "pitch": 56, "duration": 5, "velocity": 79}, {"time": 606, "pitch": 60, "duration": 5, "velocity": 77}, {"time": 609, "pitch": 63, "duration": 2, "velocity": 85}, {"time": 615, "pitch": 56, "duration": 4, "velocity": 90}, {"time": 615, "pitch": 60, "duration": 5, "velocity": 92}, {"time": 615, "pitch": 63, "duration": 5, "velocity": 92}, {"time": 621, "pitch": 53, "duration": 9, "velocity": 92}, {"time": 627, "pitch": 65, "duration": 9, "velocity": 88}, {"time": 627, "pitch": 68, "duration": 8, "velocity": 88}, {"time": 633, "pitch": 60, "duration": 2, "velocity": 86}, {"time": 639, "pitch": 65, "duration": 5, "velocity": 92}, {"time": 645, "pitch": 44, "duration": 18, "velocity": 90}, {"time": 651, "pitch": 56, "duration": 5, "velocity": 81}, {"time": 654, "pitch": 60, "duration": 5, "velocity": 79}, {"time": 657, "pitch": 56, "duration": 1, "velocity": 56}, {"time": 657, "pitch": 63, "duration": 2, "velocity": 81}, {"time": 663, "pitch": 56, "duration": 5, "velocity": 88}, {"time": 663, "pitch": 60, "duration": 5, "velocity": 89}, {"time": 663, "pitch": 63, "duration": 6, "velocity": 88}, {"time": 669, "pitch": 53, "duration": 19, "velocity": 90}, {"time": 675, "pitch": 65, "duration": 9, "velocity": 90}, {"time": 675, "pitch": 68, "duration": 9, "velocity": 89}, {"time": 681, "pitch": 60, "duration": 7, "velocity": 82}, {"time": 687, "pitch": 65, "duration": 5, "velocity": 89}, {"time": 687, "pitch": 68, "duration": 5, "velocity": 88}, {"time": 687, "pitch": 72, "duration": 5, "velocity": 88}, {"time": 693, "pitch": 41, "duration": 17, "velocity": 89}, {"time": 699, "pitch": 65, "duration": 4, "velocity": 84}, {"time": 702, "pitch": 68, "duration": 4, "velocity": 77}, {"time": 705, "pitch": 72, "duration": 3, "velocity": 88}, {"time": 711, "pitch": 65, "duration": 5, "velocity": 88}, {"time": 711, "pitch": 68, "duration": 4, "velocity": 88}, {"time": 711, "pitch": 72, "duration": 5, "velocity": 89}, {"time": 717, "pitch": 51, "duration": 8, "velocity": 90}, {"time": 723, "pitch": 63, "duration": 8, "velocity": 84}, {"time": 723, "pitch": 67, "duration": 9, "velocity": 88}, {"time": 723, "pitch": 70, "duration": 9, "velocity": 89}, {"time": 729, "pitch": 58, "duration": 2, "velocity": 87}, {"time": 735, "pitch": 63, "duration": 3, "velocity": 88}, {"time": 741, "pitch": 44, "duration": 2, "velocity": 87}, {"time": 741, "pitch": 63, "duration": 3, "velocity": 86}, {"time": 741, "pitch": 68, "duration": 6, "velocity": 83}, {"time": 747, "pitch": 63, "duration": 4, "velocity": 82}, {"time": 750, "pitch": 68, "duration": 1, "velocity": 73}, {"time": 753, "pitch": 68, "duration": 1, "velocity": 67}, {"time": 753, "pitch": 72, "duration": 3, "velocity": 83}, {"time": 759, "pitch": 63, "duration": 8, "velocity": 85}, {"time": 759, "pitch": 68, "duration": 9, "velocity": 87}, {"time": 759, "pitch": 72, "duration": 9, "velocity": 89}, {"time": 765, "pitch": 56, "duration": 8, "velocity": 74}, {"time": 765, "pitch": 60, "duration": 13, "velocity": 72}, {"time": 771, "pitch": 63, "duration": 7, "velocity": 89}, {"time": 777, "pitch": 56, "duration": 11, "velocity": 82}, {"time": 783, "pitch": 63, "duration": 5, "velocity": 88}, {"time": 789, "pitch": 44, "duration": 21, "velocity": 88}, {"time": 795, "pitch": 56, "duration": 4, "velocity": 78}, {"time": 798, "pitch": 60, "duration": 2, "velocity": 80}, {"time": 801, "pitch": 56, "duration": 2, "velocity": 83}, {"time": 801, "pitch": 63, "duration": 3, "velocity": 88}, {"time": 807, "pitch": 56, "duration": 5, "velocity": 92}, {"time": 807, "pitch": 63, "duration": 10, "velocity": 88}, {"time": 813, "pitch": 41, "duration": 14, "velocity": 81}, {"time": 819, "pitch": 53, "duration": 8, "velocity": 89}, {"time": 819, "pitch": 56, "duration": 8, "velocity": 89}, {"time": 819, "pitch": 63, "duration": 3, "velocity": 68}, {"time": 825, "pitch": 48, "duration": 4, "velocity": 71}, {"time": 831, "pitch": 53, "duration": 3, "velocity": 88}, {"time": 831, "pitch": 56, "duration": 3, "velocity": 88}, {"time": 831, "pitch": 63, "duration": 5, "velocity": 87}, {"time": 837, "pitch": 51, "duration": 19, "velocity": 91}, {"time": 843, "pitch": 63, "duration": 5, "velocity": 75}, {"time": 846, "pitch": 67, "duration": 2, "velocity": 76}, {"time": 849, "pitch": 63, "duration": 2, "velocity": 77}, {"time": 849, "pitch": 67, "duration": 2, "velocity": 83}, {"time": 849, "pitch": 70, "duration": 3, "velocity": 88}, {"time": 855, "pitch": 63, "duration": 6, "velocity": 89}, {"time": 855, "pitch": 67, "duration": 6, "velocity": 89}, {"time": 855, "pitch": 70, "duration": 5, "velocity": 89}, {"time": 861, "pitch": 58, "duration": 15, "velocity": 77}, {"time": 867, "pitch": 63, "duration": 6, "velocity": 88}, {"time": 867, "pitch": 67, "duration": 5, "velocity": 87}, {"time": 867, "pitch": 75, "duration": 5, "velocity": 89}, {"time": 873, "pitch": 55, "duration": 3, "velocity": 76}, {"time": 879, "pitch": 63, "duration": 2, "velocity": 74}, {"time": 879, "pitch": 67, "duration": 1, "velocity": 73}, {"time": 879, "pitch": 70, "duration": 3, "velocity": 81}, {"time": 885, "pitch": 44, "duration": 20, "velocity": 89}, {"time": 885, "pitch": 63, "duration": 4, "velocity": 82}, {"time": 885, "pitch": 68, "duration": 4, "velocity": 82}, {"time": 891, "pitch": 51, "duration": 13, "velocity": 66}, {"time": 894, "pitch": 56, "duration": 4, "velocity": 89}, {"time": 897, "pitch": 60, "duration": 2, "velocity": 88}, {"time": 903, "pitch": 56, "duration": 5, "velocity": 89}, {"time": 903, "pitch": 60, "duration": 4, "velocity": 93}, {"time": 903, "pitch": 63, "duration": 4, "velocity": 93}, {"time": 909, "pitch": 41, "duration": 10, "velocity": 92}, {"time": 915, "pitch": 53, "duration": 9, "velocity": 85}, {"time": 915, "pitch": 56, "duration": 8, "velocity": 85}, {"time": 921, "pitch": 48, "duration": 3, "velocity": 79}, {"time": 927, "pitch": 53, "duration": 4, "velocity": 90}, {"time": 927, "pitch": 56, "duration": 4, "velocity": 88}, {"time": 933, "pitch": 46, "duration": 13, "velocity": 89}, {"time": 939, "pitch": 58, "duration": 5, "velocity": 77}, {"time": 942, "pitch": 61, "duration": 2, "velocity": 80}, {"time": 945, "pitch": 58, "duration": 1, "velocity": 81}, {"time": 945, "pitch": 65, "duration": 3, "velocity": 90}, {"time": 951, "pitch": 58, "duration": 5, "velocity": 88}, {"time": 951, "pitch": 65, "duration": 6, "velocity": 92}, {"time": 957, "pitch": 51, "duration": 8, "velocity": 90}, {"time": 963, "pitch": 63, "duration": 8, "velocity": 89}, {"time": 963, "pitch": 67, "duration": 8, "velocity": 84}, {"time": 969, "pitch": 58, "duration": 2, "velocity": 83}, {"time": 975, "pitch": 63, "duration": 5, "velocity": 87}, {"time": 975, "pitch": 70, "duration": 5, "velocity": 87}, {"time": 981, "pitch": 44, "duration": 20, "velocity": 89}, {"time": 987, "pitch": 63, "duration": 5, "velocity": 82}, {"time": 990, "pitch": 68, "duration": 4, "velocity": 79}, {"time": 993, "pitch": 72, "duration": 2, "velocity": 86}, {"time": 999, "pitch": 63, "duration": 8, "velocity": 88}, {"time": 999, "pitch": 68, "duration": 5, "velocity": 89}, {"time": 999, "pitch": 72, "duration": 6, "velocity": 89}, {"time": 1005, "pitch": 44, "duration": 17, "velocity": 88}, {"time": 1011, "pitch": 63, "duration": 9, "velocity": 87}, {"time": 1011, "pitch": 68, "duration": 9, "velocity": 80}, {"time": 1017, "pitch": 51, "duration": 5, "velocity": 76}, {"time": 1023, "pitch": 63, "duration": 6, "velocity": 88}, {"time": 1023, "pitch": 68, "duration": 5, "velocity": 83}, {"time": 1029, "pitch": 51, "duration": 15, "velocity": 90}, {"time": 1035, "pitch": 63, "duration": 5, "velocity": 80}, {"time": 1038, "pitch": 67, "duration": 2, "velocity": 86}, {"time": 1041, "pitch": 63, "duration": 2, "velocity": 81}, {"time": 1041, "pitch": 67, "duration": 2, "velocity": 84}, {"time": 1041, "pitch": 70, "duration": 3, "velocity": 84}, {"time": 1047, "pitch": 63, "duration": 5, "velocity": 89}, {"time": 1047, "pitch": 67, "duration": 4, "velocity": 86}, {"time": 1047, "pitch": 70, "duration": 4, "velocity": 89}, {"time": 1053, "pitch": 49, "duration": 7, "velocity": 90}, {"time": 1059, "pitch": 61, "duration": 4, "velocity": 88}, {"time": 1059, "pitch": 65, "duration": 4, "velocity": 90}, {"time": 1059, "pitch": 68, "duration": 5, "velocity": 86}, {"time": 1065, "pitch": 51, "duration": 6, "velocity": 90}, {"time": 1071, "pitch": 63, "duration": 3, "velocity": 86}, {"time": 1071, "pitch": 67, "duration": 3, "velocity": 84}, {"time": 1077, "pitch": 46, "duration": 20, "velocity": 89}, {"time": 1083, "pitch": 58, "duration": 8, "velocity": 74}, {"time": 1086, "pitch": 61, "duration": 5, "velocity": 76}, {"time": 1089, "pitch": 65, "duration": 3, "velocity": 89}, {"time": 1095, "pitch": 58, "duration": 5, "velocity": 82}, {"time": 1095, "pitch": 61, "duration": 5, "velocity": 85}, {"time": 1095, "pitch": 65, "duration": 5, "velocity": 89}, {"time": 1101, "pitch": 48, "duration": 9, "velocity": 89}, {"time": 1107, "pitch": 60, "duration": 9, "velocity": 86}, {"time": 1107, "pitch": 63, "duration": 9, "velocity": 87}, {"time": 1107, "pitch": 67, "duration": 9, "velocity": 84}, {"time": 1113, "pitch": 55, "duration": 6, "velocity": 77}, {"time": 1119, "pitch": 58, "duration": 5, "velocity": 79}, {"time": 1119, "pitch": 63, "duration": 6, "velocity": 88}, {"time": 1125, "pitch": 53, "duration": 17, "velocity": 91}, {"time": 1131, "pitch": 65, "duration": 5, "velocity": 87}, {"time": 1134, "pitch": 68, "duration": 2, "velocity": 77}, {"time": 1137, "pitch": 68, "duration": 2, "velocity": 79}, {"time": 1137, "pitch": 72, "duration": 2, "velocity": 77}, {"time": 1143, "pitch": 65, "duration": 7, "velocity": 92}, {"time": 1143, "pitch": 68, "duration": 6, "velocity": 90}, {"time": 1143, "pitch": 72, "duration": 6, "velocity": 90}, {"time": 1149, "pitch": 41, "duration": 8, "velocity": 90}, {"time": 1155, "pitch": 53, "duration": 6, "velocity": 90}, {"time": 1155, "pitch": 56, "duration": 6, "velocity": 91}, {"time": 1155, "pitch": 60, "duration": 9, "velocity": 89}, {"time": 1161, "pitch": 39, "duration": 11, "velocity": 93}, {"time": 1167, "pitch": 51, "duration": 4, "velocity": 94}, {"time": 1167, "pitch": 60, "duration": 1, "velocity": 71}, {"time": 1173, "pitch": 44, "duration": 21, "velocity": 88}, {"time": 1179, "pitch": 56, "duration": 4, "velocity": 78}, {"time": 1182, "pitch": 60, "duration": 2, "velocity": 80}, {"time": 1185, "pitch": 56, "duration": 2, "velocity": 83}, {"time": 1185, "pitch": 63, "duration": 3, "velocity": 88}, {"time": 1191, "pitch": 56, "duration": 5, "velocity": 92}, {"time": 1191, "pitch": 63, "duration": 10, "velocity": 88}, {"time": 1197, "pitch": 41, "duration": 14, "velocity": 81}, {"time": 1203, "pitch": 53, "duration": 8, "velocity": 89}, {"time": 1203, "pitch": 56, "duration": 8, "velocity": 89}, {"time": 1203, "pitch": 63, "duration": 3, "velocity": 68}, {"time": 1209, "pitch": 48, "duration": 4, "velocity": 71}, {"time": 1215, "pitch": 53, "duration": 3, "velocity": 88}, {"time": 1215, "pitch": 56, "duration": 3, "velocity": 88}, {"time": 1215, "pitch": 63, "duration": 5, "velocity": 87}, {"time": 1221, "pitch": 51, "duration": 19, "velocity": 91}, {"time": 1227, "pitch": 63, "duration": 5, "velocity": 75}, {"time": 1230, "pitch": 67, "duration": 2, "velocity": 76}, {"time": 1233, "pitch": 63, "duration": 2, "velocity": 77}, {"time": 1233, "pitch": 67, "duration": 2, "velocity": 83}, {"time": 1233, "pitch": 70, "duration": 3, "velocity": 88}, {"time": 1239, "pitch": 63, "duration": 6, "velocity": 89}, {"time": 1239, "pitch": 67, "duration": 6, "velocity": 89}, {"time": 1239, "pitch": 70, "duration": 5, "velocity": 89}, {"time": 1245, "pitch": 58, "duration": 15, "velocity": 77}, {"time": 1251, "pitch": 63, "duration": 6, "velocity": 88}, {"time": 1251, "pitch": 67, "duration": 5, "velocity": 87}, {"time": 1251, "pitch": 75, "duration": 5, "velocity": 89}, {"time": 1257, "pitch": 55, "duration": 3, "velocity": 76}, {"time": 1263, "pitch": 63, "duration": 2, "velocity": 74}, {"time": 1263, "pitch": 67, "duration": 1, "velocity": 73}, {"time": 1263, "pitch": 70, "duration": 3, "velocity": 81}, {"time": 1269, "pitch": 44, "duration": 20, "velocity": 89}, {"time": 1269, "pitch": 63, "duration": 4, "velocity": 82}, {"time": 1269, "pitch": 68, "duration": 4, "velocity": 82}, {"time": 1275, "pitch": 51, "duration": 13, "velocity": 66}, {"time": 1278, "pitch": 56, "duration": 4, "velocity": 89}, {"time": 1281, "pitch": 60, "duration": 2, "velocity": 88}, {"time": 1287, "pitch": 56, "duration": 5, "velocity": 89}, {"time": 1287, "pitch": 60, "duration": 4, "velocity": 93}, {"time": 1287, "pitch": 63, "duration": 4, "velocity": 93}, {"time": 1293, "pitch": 41, "duration": 10, "velocity": 92}, {"time": 1299, "pitch": 53, "duration": 9, "velocity": 85}, {"time": 1299, "pitch": 56, "duration": 8, "velocity": 85}, {"time": 1305, "pitch": 48, "duration": 3, "velocity": 79}, {"time": 1311, "pitch": 53, "duration": 4, "velocity": 90}, {"time": 1311, "pitch": 56, "duration": 4, "velocity": 88}, {"time": 1317, "pitch": 46, "duration": 13, "velocity": 89}, {"time": 1323, "pitch": 58, "duration": 5, "velocity": 77}, {"time": 1326, "pitch": 61, "duration": 2, "velocity": 80}, {"time": 1329, "pitch": 58, "duration": 1, "velocity": 81}, {"time": 1329, "pitch": 65, "duration": 3, "velocity": 90}, {"time": 1335, "pitch": 58, "duration": 5, "velocity": 88}, {"time": 1335, "pitch": 65, "duration": 6, "velocity": 92}, {"time": 1341, "pitch": 51, "duration": 8, "velocity": 90}, {"time": 1347, "pitch": 63, "duration": 8, "velocity": 89}, {"time": 1347, "pitch": 67, "duration": 8, "velocity": 84}, {"time": 1353, "pitch": 58, "duration": 2, "velocity": 83}, {"time": 1359, "pitch": 63, "duration": 5, "velocity": 87}, {"time": 1359, "pitch": 70, "duration": 5, "velocity": 87}, {"time": 1365, "pitch": 44, "duration": 20, "velocity": 89}, {"time": 1371, "pitch": 63, "duration": 5, "velocity": 82}, {"time": 1374, "pitch": 68, "duration": 4, "velocity": 79}, {"time": 1377, "pitch": 72, "duration": 2, "velocity": 86}, {"time": 1383, "pitch": 63, "duration": 8, "velocity": 88}, {"time": 1383, "pitch": 68, "duration": 5, "velocity": 89}, {"time": 1383, "pitch": 72, "duration": 6, "velocity": 89}, {"time": 1389, "pitch": 44, "duration": 17, "velocity": 88}, {"time": 1395, "pitch": 63, "duration": 9, "velocity": 87}, {"time": 1395, "pitch": 68, "duration": 9, "velocity": 80}, {"time": 1401, "pitch": 51, "duration": 5, "velocity": 76}, {"time": 1407, "pitch": 63, "duration": 6, "velocity": 88}, {"time": 1407, "pitch": 68, "duration": 5, "velocity": 83}, {"time": 1413, "pitch": 51, "duration": 15, "velocity": 90}, {"time": 1419, "pitch": 63, "duration": 5, "velocity": 80}, {"time": 1422, "pitch": 67, "duration": 2, "velocity": 86}, {"time": 1425, "pitch": 63, "duration": 2, "velocity": 81}, {"time": 1425, "pitch": 67, "duration": 2, "velocity": 84}, {"time": 1425, "pitch": 70, "duration": 3, "velocity": 84}, {"time": 1431, "pitch": 63, "duration": 5, "velocity": 89}, {"time": 1431, "pitch": 67, "duration": 4, "velocity": 86}, {"time": 1431, "pitch": 70, "duration": 4, "velocity": 89}, {"time": 1437, "pitch": 49, "duration": 7, "velocity": 90}, {"time": 1443, "pitch": 61, "duration": 4, "velocity": 88}, {"time": 1443, "pitch": 65, "duration": 4, "velocity": 90}, {"time": 1443, "pitch": 68, "duration": 5, "velocity": 86}, {"time": 1449, "pitch": 51, "duration": 6, "velocity": 90}, {"time": 1455, "pitch": 63, "duration": 3, "velocity": 86}, {"time": 1455, "pitch": 67, "duration": 3, "velocity": 84}, {"time": 1461, "pitch": 46, "duration": 20, "velocity": 89}, {"time": 1467, "pitch": 58, "duration": 8, "velocity": 74}, {"time": 1470, "pitch": 61, "duration": 5, "velocity": 76}, {"time": 1473, "pitch": 65, "duration": 3, "velocity": 89}, {"time": 1479, "pitch": 58, "duration": 5, "velocity": 82}, {"time": 1479, "pitch": 61, "duration": 5, "velocity": 85}, {"time": 1479, "pitch": 65, "duration": 5, "velocity": 89}, {"time": 1485, "pitch": 48, "duration": 9, "velocity": 89}, {"time": 1491, "pitch": 60, "duration": 9, "velocity": 86}, {"time": 1491, "pitch": 63, "duration": 9, "velocity": 87}, {"time": 1491, "pitch": 67, "duration": 9, "velocity": 84}, {"time": 1497, "pitch": 55, "duration": 6, "velocity": 77}, {"time": 1503, "pitch": 58, "duration": 5, "velocity": 79}, {"time": 1503, "pitch": 63, "duration": 6, "velocity": 88}, {"time": 1509, "pitch": 41, "duration": 17, "velocity": 91}, {"time": 1509, "pitch": 53, "duration": 17, "velocity": 91}, {"time": 1515, "pitch": 65, "duration": 5, "velocity": 87}, {"time": 1518, "pitch": 68, "duration": 2, "velocity": 77}, {"time": 1521, "pitch": 68, "duration": 2, "velocity": 79}, {"time": 1521, "pitch": 72, "duration": 2, "velocity": 77}, {"time": 1527, "pitch": 65, "duration": 7, "velocity": 92}, {"time": 1527, "pitch": 68, "duration": 6, "velocity": 90}, {"time": 1527, "pitch": 72, "duration": 6, "velocity": 90}, {"time": 1533, "pitch": 41, "duration": 8, "velocity": 90}, {"time": 1539, "pitch": 53, "duration": 6, "velocity": 90}, {"time": 1539, "pitch": 56, "duration": 6, "velocity": 91}, {"time": 1539, "pitch": 60, "duration": 9, "velocity": 89}, {"time": 1545, "pitch": 39, "duration": 11, "velocity": 93}, {"time": 1551, "pitch": 51, "duration": 4, "velocity": 94}, {"time": 1551, "pitch": 60, "duration": 1, "velocity": 71}, {"time": 1557, "pitch": 44, "duration": 21, "velocity": 88}, {"time": 1563, "pitch": 56, "duration": 4, "velocity": 78}, {"time": 1566, "pitch": 60, "duration": 2, "velocity": 80}, {"time": 1569, "pitch": 56, "duration": 2, "velocity": 83}, {"time": 1569, "pitch": 63, "duration": 3, "velocity": 88}, {"time": 1575, "pitch": 56, "duration": 5, "velocity": 92}, {"time": 1575, "pitch": 63, "duration": 10, "velocity": 88}, {"time": 1581, "pitch": 41, "duration": 14, "velocity": 81}, {"time": 1587, "pitch": 53, "duration": 8, "velocity": 89}, {"time": 1587, "pitch": 56, "duration": 8, "velocity": 89}, {"time": 1587, "pitch": 63, "duration": 3, "velocity": 68}, {"time": 1593, "pitch": 48, "duration": 4, "velocity": 71}, {"time": 1599, "pitch": 53, "duration": 3, "velocity": 88}, {"time": 1599, "pitch": 56, "duration": 3, "velocity": 88}, {"time": 1599, "pitch": 63, "duration": 5, "velocity": 87}, {"time": 1605, "pitch": 51, "duration": 19, "velocity": 91}, {"time": 1611, "pitch": 63, "duration": 5, "velocity": 75}, {"time": 1614, "pitch": 67, "duration": 2, "velocity": 76}, {"time": 1617, "pitch": 63, "duration": 2, "velocity": 77}, {"time": 1617, "pitch": 67, "duration": 2, "velocity": 83}, {"time": 1617, "pitch": 70, "duration": 3, "velocity": 88}, {"time": 1623, "pitch": 63, "duration": 6, "velocity": 89}, {"time": 1623, "pitch": 67, "duration": 6, "velocity": 89}, {"time": 1623, "pitch": 70, "duration": 5, "velocity": 89}, {"time": 1629, "pitch": 58, "duration": 15, "velocity": 77}, {"time": 1635, "pitch": 63, "duration": 6, "velocity": 88}, {"time": 1635, "pitch": 67, "duration": 5, "velocity": 87}, {"time": 1635, "pitch": 75, "duration": 5, "velocity": 89}, {"time": 1641, "pitch": 55, "duration": 3, "velocity": 76}, {"time": 1647, "pitch": 63, "duration": 2, "velocity": 74}, {"time": 1647, "pitch": 67, "duration": 1, "velocity": 73}, {"time": 1647, "pitch": 70, "duration": 3, "velocity": 81}, {"time": 1653, "pitch": 44, "duration": 20, "velocity": 89}, {"time": 1653, "pitch": 63, "duration": 4, "velocity": 82}, {"time": 1653, "pitch": 68, "duration": 4, "velocity": 82}, {"time": 1659, "pitch": 51, "duration": 13, "velocity": 66}, {"time": 1662, "pitch": 56, "duration": 4, "velocity": 89}, {"time": 1665, "pitch": 60, "duration": 2, "velocity": 88}, {"time": 1671, "pitch": 56, "duration": 5, "velocity": 89}, {"time": 1671, "pitch": 60, "duration": 4, "velocity": 93}, {"time": 1671, "pitch": 63, "duration": 4, "velocity": 93}, {"time": 1677, "pitch": 41, "duration": 10, "velocity": 92}, {"time": 1683, "pitch": 53, "duration": 9, "velocity": 85}, {"time": 1683, "pitch": 56, "duration": 8, "velocity": 85}, {"time": 1689, "pitch": 48, "duration": 3, "velocity": 79}, {"time": 1695, "pitch": 53, "duration": 4, "velocity": 90}, {"time": 1695, "pitch": 56, "duration": 4, "velocity": 88}, {"time": 1701, "pitch": 46, "duration": 13, "velocity": 89}, {"time": 1707, "pitch": 58, "duration": 5, "velocity": 77}, {"time": 1710, "pitch": 61, "duration": 2, "velocity": 80}, {"time": 1713, "pitch": 58, "duration": 1, "velocity": 81}, {"time": 1713, "pitch": 65, "duration": 3, "velocity": 90}, {"time": 1719, "pitch": 58, "duration": 5, "velocity": 88}, {"time": 1719, "pitch": 65, "duration": 6, "velocity": 92}, {"time": 1725, "pitch": 51, "duration": 8, "velocity": 90}, {"time": 1731, "pitch": 63, "duration": 8, "velocity": 89}, {"time": 1731, "pitch": 67, "duration": 8, "velocity": 84}, {"time": 1737, "pitch": 58, "duration": 2, "velocity": 83}, {"time": 1743, "pitch": 63, "duration": 5, "velocity": 87}, {"time": 1743, "pitch": 70, "duration": 5, "velocity": 87}, {"time": 1749, "pitch": 44, "duration": 20, "velocity": 89}, {"time": 1755, "pitch": 63, "duration": 5, "velocity": 82}, {"time": 1758, "pitch": 68, "duration": 4, "velocity": 79}, {"time": 1761, "pitch": 72, "duration": 2, "velocity": 86}, {"time": 1767, "pitch": 63, "duration": 8, "velocity": 88}, {"time": 1767, "pitch": 68, "duration": 5, "velocity": 89}, {"time": 1767, "pitch": 72, "duration": 6, "velocity": 89}, {"time": 1773, "pitch": 44, "duration": 17, "velocity": 88}, {"time": 1779, "pitch": 63, "duration": 9, "velocity": 87}, {"time": 1779, "pitch": 68, "duration": 9, "velocity": 80}, {"time": 1785, "pitch": 51, "duration": 5, "velocity": 76}, {"time": 1791, "pitch": 63, "duration": 6, "velocity": 88}, {"time": 1791, "pitch": 68, "duration": 5, "velocity": 83}, {"time": 1797, "pitch": 51, "duration": 15, "velocity": 90}, {"time": 1803, "pitch": 63, "duration": 5, "velocity": 80}, {"time": 1806, "pitch": 67, "duration": 2, "velocity": 86}, {"time": 1809, "pitch": 63, "duration": 2, "velocity": 81}, {"time": 1809, "pitch": 67, "duration": 2, "velocity": 84}, {"time": 1809, "pitch": 70, "duration": 3, "velocity": 84}, {"time": 1815, "pitch": 63, "duration": 5, "velocity": 89}, {"time": 1815, "pitch": 67, "duration": 4, "velocity": 86}, {"time": 1815, "pitch": 70, "duration": 4, "velocity": 89}, {"time": 1821, "pitch": 49, "duration": 7, "velocity": 90}, {"time": 1827, "pitch": 61, "duration": 4, "velocity": 88}, {"time": 1827, "pitch": 65, "duration": 4, "velocity": 90}, {"time": 1827, "pitch": 68, "duration": 5, "velocity": 86}, {"time": 1833, "pitch": 51, "duration": 6, "velocity": 90}, {"time": 1839, "pitch": 63, "duration": 3, "velocity": 86}, {"time": 1839, "pitch": 67, "duration": 3, "velocity": 84}, {"time": 1845, "pitch": 46, "duration": 20, "velocity": 89}, {"time": 1851, "pitch": 58, "duration": 8, "velocity": 74}, {"time": 1854, "pitch": 61, "duration": 5, "velocity": 76}, {"time": 1857, "pitch": 65, "duration": 3, "velocity": 89}, {"time": 1863, "pitch": 58, "duration": 5, "velocity": 82}, {"time": 1863, "pitch": 61, "duration": 5, "velocity": 85}, {"time": 1863, "pitch": 65, "duration": 5, "velocity": 89}, {"time": 1869, "pitch": 48, "duration": 9, "velocity": 89}, {"time": 1875, "pitch": 60, "duration": 9, "velocity": 86}, {"time": 1875, "pitch": 63, "duration": 9, "velocity": 87}, {"time": 1875, "pitch": 67, "duration": 9, "velocity": 84}, {"time": 1881, "pitch": 55, "duration": 6, "velocity": 77}, {"time": 1887, "pitch": 58, "duration": 5, "velocity": 79}, {"time": 1887, "pitch": 63, "duration": 6, "velocity": 88}, {"time": 1893, "pitch": 41, "duration": 17, "velocity": 91}, {"time": 1893, "pitch": 53, "duration": 17, "velocity": 91}, {"time": 1899, "pitch": 65, "duration": 5, "velocity": 87}, {"time": 1902, "pitch": 68, "duration": 2, "velocity": 77}, {"time": 1905, "pitch": 68, "duration": 2, "velocity": 79}, {"time": 1905, "pitch": 72, "duration": 2, "velocity": 77}, {"time": 1911, "pitch": 65, "duration": 7, "velocity": 92}, {"time": 1911, "pitch": 68, "duration": 6, "velocity": 90}, {"time": 1911, "pitch": 72, "duration": 6, "velocity": 90}, {"time": 1917, "pitch": 41, "duration": 8, "velocity": 90}, {"time": 1923, "pitch": 53, "duration": 6, "velocity": 90}, {"time": 1923, "pitch": 56, "duration": 6, "velocity": 91}, {"time": 1923, "pitch": 60, "duration": 9, "velocity": 89}, {"time": 1929, "pitch": 39, "duration": 11, "velocity": 93}, {"time": 1935, "pitch": 51, "duration": 4, "velocity": 94}, {"time": 1935, "pitch": 60, "duration": 1, "velocity": 71}, {"time": 1941, "pitch": 44, "duration": 20, "velocity": 89}, {"time": 1947, "pitch": 56, "duration": 8, "velocity": 81}, {"time": 1950, "pitch": 60, "duration": 5, "velocity": 77}, {"time": 1953, "pitch": 63, "duration": 3, "velocity": 81}, {"time": 1959, "pitch": 56, "duration": 6, "velocity": 87}, {"time": 1959, "pitch": 60, "duration": 5, "velocity": 89}, {"time": 1959, "pitch": 63, "duration": 7, "velocity": 89}, {"time": 1965, "pitch": 41, "duration": 10, "velocity": 90}, {"time": 1971, "pitch": 53, "duration": 8, "velocity": 90}, {"time": 1971, "pitch": 56, "duration": 7, "velocity": 83}, {"time": 1971, "pitch": 60, "duration": 7, "velocity": 80}, {"time": 1977, "pitch": 48, "duration": 5, "velocity": 81}, {"time": 1983, "pitch": 53, "duration": 4, "velocity": 89}, {"time": 1983, "pitch": 56, "duration": 5, "velocity": 89}, {"time": 1983, "pitch": 60, "duration": 6, "velocity": 88}, {"time": 1989, "pitch": 53, "duration": 13, "velocity": 94}, {"time": 1995, "pitch": 60, "duration": 6, "velocity": 76}, {"time": 1998, "pitch": 65, "duration": 5, "velocity": 90}, {"time": 2001, "pitch": 68, "duration": 2, "velocity": 89}, {"time": 2007, "pitch": 65, "duration": 3, "velocity": 90}, {"time": 2007, "pitch": 68, "duration": 3, "velocity": 89}, {"time": 2013, "pitch": 48, "duration": 10, "velocity": 80}, {"time": 2019, "pitch": 60, "duration": 9, "velocity": 88}, {"time": 2019, "pitch": 67, "duration": 9, "velocity": 78}, {"time": 2025, "pitch": 55, "duration": 7, "velocity": 88}, {"time": 2031, "pitch": 60, "duration": 6, "velocity": 88}, {"time": 2031, "pitch": 63, "duration": 6, "velocity": 85}, {"time": 2037, "pitch": 44, "duration": 20, "velocity": 89}, {"time": 2037, "pitch": 63, "duration": 4, "velocity": 82}, {"time": 2037, "pitch": 68, "duration": 4, "velocity": 82}, {"time": 2043, "pitch": 51, "duration": 13, "velocity": 66}, {"time": 2046, "pitch": 56, "duration": 4, "velocity": 89}, {"time": 2049, "pitch": 60, "duration": 2, "velocity": 88}, {"time": 2055, "pitch": 56, "duration": 5, "velocity": 89}, {"time": 2055, "pitch": 60, "duration": 4, "velocity": 93}, {"time": 2055, "pitch": 63, "duration": 4, "velocity": 93}, {"time": 2061, "pitch": 41, "duration": 10, "velocity": 92}, {"time": 2067, "pitch": 53, "duration": 9, "velocity": 85}, {"time": 2067, "pitch": 56, "duration": 8, "velocity": 85}, {"time": 2073, "pitch": 48, "duration": 3, "velocity": 79}, {"time": 2079, "pitch": 53, "duration": 4, "velocity": 90}, {"time": 2079, "pitch": 56, "duration": 4, "velocity": 88}, {"time": 2085, "pitch": 46, "duration": 13, "velocity": 89}, {"time": 2091, "pitch": 58, "duration": 5, "velocity": 77}, {"time": 2094, "pitch": 61, "duration": 2, "velocity": 80}, {"time": 2097, "pitch": 58, "duration": 1, "velocity": 81}, {"time": 2097, "pitch": 65, "duration": 3, "velocity": 90}, {"time": 2103, "pitch": 58, "duration": 5, "velocity": 88}, {"time": 2103, "pitch": 65, "duration": 6, "velocity": 92}, {"time": 2109, "pitch": 51, "duration": 8, "velocity": 90}, {"time": 2115, "pitch": 63, "duration": 8, "velocity": 89}, {"time": 2115, "pitch": 67, "duration": 8, "velocity": 84}, {"time": 2121, "pitch": 58, "duration": 2, "velocity": 83}, {"time": 2127, "pitch": 63, "duration": 5, "velocity": 87}, {"time": 2127, "pitch": 70, "duration": 5, "velocity": 87}, {"time": 2133, "pitch": 44, "duration": 20, "velocity": 89}, {"time": 2139, "pitch": 63, "duration": 5, "velocity": 82}, {"time": 2142, "pitch": 68, "duration": 4, "velocity": 79}, {"time": 2145, "pitch": 72, "duration": 2, "velocity": 86}, {"time": 2151, "pitch": 63, "duration": 8, "velocity": 88}, {"time": 2151, "pitch": 68, "duration": 5, "velocity": 89}, {"time": 2151, "pitch": 72, "duration": 6, "velocity": 89}, {"time": 2157, "pitch": 53, "duration": 12, "velocity": 88}, {"time": 2163, "pitch": 65, "duration": 9, "velocity": 89}, {"time": 2163, "pitch": 68, "duration": 9, "velocity": 87}, {"time": 2169, "pitch": 60, "duration": 9, "velocity": 84}, {"time": 2175, "pitch": 65, "duration": 5, "velocity": 90}, {"time": 2175, "pitch": 68, "duration": 4, "velocity": 88}, {"time": 2181, "pitch": 44, "duration": 17, "velocity": 85}, {"time": 2187, "pitch": 63, "duration": 8, "velocity": 82}, {"time": 2187, "pitch": 68, "duration": 8, "velocity": 84}, {"time": 2199, "pitch": 63, "duration": 6, "velocity": 87}, {"time": 2199, "pitch": 68, "duration": 5, "velocity": 86}, {"time": 2199, "pitch": 72, "duration": 5, "velocity": 88}, {"time": 2205, "pitch": 53, "duration": 9, "velocity": 91}, {"time": 2211, "pitch": 65, "duration": 8, "velocity": 89}, {"time": 2211, "pitch": 68, "duration": 7, "velocity": 87}, {"time": 2211, "pitch": 72, "duration": 7, "velocity": 89}, {"time": 2217, "pitch": 60, "duration": 11, "velocity": 86}, {"time": 2223, "pitch": 65, "duration": 5, "velocity": 89}, {"time": 2223, "pitch": 68, "duration": 5, "velocity": 85}, {"time": 2229, "pitch": 49, "duration": 15, "velocity": 90}, {"time": 2229, "pitch": 61, "duration": 6, "velocity": 85}, {"time": 2229, "pitch": 65, "duration": 7, "velocity": 88}, {"time": 2235, "pitch": 56, "duration": 8, "velocity": 79}, {"time": 2238, "pitch": 61, "duration": 5, "velocity": 88}, {"time": 2241, "pitch": 68, "duration": 3, "velocity": 85}, {"time": 2247, "pitch": 61, "duration": 4, "velocity": 90}, {"time": 2247, "pitch": 68, "duration": 5, "velocity": 86}, {"time": 2253, "pitch": 51, "duration": 8, "velocity": 89}, {"time": 2259, "pitch": 63, "duration": 8, "velocity": 86}, {"time": 2259, "pitch": 67, "duration": 8, "velocity": 87}, {"time": 2259, "pitch": 70, "duration": 8, "velocity": 88}, {"time": 2265, "pitch": 58, "duration": 2, "velocity": 79}, {"time": 2271, "pitch": 63, "duration": 8, "velocity": 88}, {"time": 2277, "pitch": 44, "duration": 20, "velocity": 88}, {"time": 2283, "pitch": 63, "duration": 4, "velocity": 77}, {"time": 2286, "pitch": 68, "duration": 3, "velocity": 77}, {"time": 2289, "pitch": 72, "duration": 2, "velocity": 82}, {"time": 2295, "pitch": 63, "duration": 10, "velocity": 89}, {"time": 2295, "pitch": 68, "duration": 13, "velocity": 89}, {"time": 2295, "pitch": 72, "duration": 14, "velocity": 89}, {"time": 2301, "pitch": 44, "duration": 24, "velocity": 83}, {"time": 2307, "pitch": 63, "duration": 7, "velocity": 86}, {"time": 2313, "pitch": 51, "duration": 11, "velocity": 77}, {"time": 2319, "pitch": 63, "duration": 5, "velocity": 83}, {"time": 2325, "pitch": 44, "duration": 21, "velocity": 88}, {"time": 2331, "pitch": 56, "duration": 7, "velocity": 84}, {"time": 2331, "pitch": 60, "duration": 6, "velocity": 83}, {"time": 2331, "pitch": 63, "duration": 7, "velocity": 88}, {"time": 2343, "pitch": 56, "duration": 6, "velocity": 83}, {"time": 2343, "pitch": 60, "duration": 6, "velocity": 85}, {"time": 2343, "pitch": 63, "duration": 21, "velocity": 87}, {"time": 2349, "pitch": 41, "duration": 10, "velocity": 89}, {"time": 2355, "pitch": 53, "duration": 9, "velocity": 80}, {"time": 2355, "pitch": 56, "duration": 9, "velocity": 80}, {"time": 2355, "pitch": 60, "duration": 9, "velocity": 77}, {"time": 2361, "pitch": 48, "duration": 5, "velocity": 68}, {"time": 2367, "pitch": 53, "duration": 4, "velocity": 84}, {"time": 2367, "pitch": 56, "duration": 5, "velocity": 88}, {"time": 2367, "pitch": 60, "duration": 5, "velocity": 82}, {"time": 2367, "pitch": 63, "duration": 7, "velocity": 87}, {"time": 2373, "pitch": 51, "duration": 19, "velocity": 90}, {"time": 2379, "pitch": 63, "duration": 7, "velocity": 72}, {"time": 2379, "pitch": 67, "duration": 8, "velocity": 77}, {"time": 2391, "pitch": 63, "duration": 8, "velocity": 85}, {"time": 2391, "pitch": 67, "duration": 8, "velocity": 84}, {"time": 2391, "pitch": 70, "duration": 7, "velocity": 83}, {"time": 2397, "pitch": 55, "duration": 2, "velocity": 63}, {"time": 2397, "pitch": 58, "duration": 13, "velocity": 76}, {"time": 2403, "pitch": 63, "duration": 9, "velocity": 80}, {"time": 2403, "pitch": 67, "duration": 9, "velocity": 79}, {"time": 2403, "pitch": 70, "duration": 9, "velocity": 86}, {"time": 2403, "pitch": 75, "duration": 8, "velocity": 85}, {"time": 2409, "pitch": 55, "duration": 3, "velocity": 87}, {"time": 2415, "pitch": 63, "duration": 2, "velocity": 84}, {"time": 2421, "pitch": 44, "duration": 20, "velocity": 88}, {"time": 2421, "pitch": 56, "duration": 5, "velocity": 82}, {"time": 2421, "pitch": 60, "duration": 4, "velocity": 80}, {"time": 2427, "pitch": 56, "duration": 7, "velocity": 85}, {"time": 2427, "pitch": 60, "duration": 8, "velocity": 86}, {"time": 2427, "pitch": 63, "duration": 7, "velocity": 89}, {"time": 2439, "pitch": 56, "duration": 6, "velocity": 83}, {"time": 2439, "pitch": 60, "duration": 6, "velocity": 88}, {"time": 2439, "pitch": 63, "duration": 5, "velocity": 85}, {"time": 2445, "pitch": 41, "duration": 17, "velocity": 84}, {"time": 2451, "pitch": 53, "duration": 9, "velocity": 87}, {"time": 2451, "pitch": 56, "duration": 9, "velocity": 87}, {"time": 2457, "pitch": 48, "duration": 6, "velocity": 75}, {"time": 2463, "pitch": 53, "duration": 4, "velocity": 88}, {"time": 2463, "pitch": 56, "duration": 4, "velocity": 85}, {"time": 2469, "pitch": 46, "duration": 14, "velocity": 89}, {"time": 2475, "pitch": 58, "duration": 9, "velocity": 85}, {"time": 2475, "pitch": 61, "duration": 9, "velocity": 88}, {"time": 2487, "pitch": 58, "duration": 9, "velocity": 88}, {"time": 2487, "pitch": 61, "duration": 6, "velocity": 89}, {"time": 2493, "pitch": 51, "duration": 10, "velocity": 88}, {"time": 2499, "pitch": 58, "duration": 7, "velocity": 84}, {"time": 2499, "pitch": 63, "duration": 9, "velocity": 89}, {"time": 2499, "pitch": 67, "duration": 8, "velocity": 84}, {"time": 2505, "pitch": 51, "duration": 7, "velocity": 83}, {"time": 2511, "pitch": 58, "duration": 7, "velocity": 92}, {"time": 2511, "pitch": 63, "duration": 1, "velocity": 63}, {"time": 2517, "pitch": 44, "duration": 12, "velocity": 88}, {"time": 2523, "pitch": 56, "duration": 9, "velocity": 86}, {"time": 2523, "pitch": 60, "duration": 9, "velocity": 86}, {"time": 2523, "pitch": 63, "duration": 8, "velocity": 87}, {"time": 2535, "pitch": 56, "duration": 6, "velocity": 86}, {"time": 2535, "pitch": 60, "duration": 5, "velocity": 89}, {"time": 2535, "pitch": 63, "duration": 12, "velocity": 86}, {"time": 2541, "pitch": 41, "duration": 9, "velocity": 90}, {"time": 2547, "pitch": 53, "duration": 10, "velocity": 85}, {"time": 2547, "pitch": 56, "duration": 10, "velocity": 85}, {"time": 2547, "pitch": 60, "duration": 10, "velocity": 83}, {"time": 2553, "pitch": 48, "duration": 7, "velocity": 84}, {"time": 2559, "pitch": 53, "duration": 3, "velocity": 90}, {"time": 2559, "pitch": 56, "duration": 3, "velocity": 88}, {"time": 2559, "pitch": 60, "duration": 4, "velocity": 88}, {"time": 2565, "pitch": 44, "duration": 12, "velocity": 89}, {"time": 2571, "pitch": 56, "duration": 8, "velocity": 87}, {"time": 2571, "pitch": 60, "duration": 7, "velocity": 88}, {"time": 2571, "pitch": 63, "duration": 7, "velocity": 88}, {"time": 2583, "pitch": 56, "duration": 7, "velocity": 89}, {"time": 2583, "pitch": 60, "duration": 6, "velocity": 90}, {"time": 2583, "pitch": 63, "duration": 20, "velocity": 89}, {"time": 2589, "pitch": 41, "duration": 10, "velocity": 89}, {"time": 2595, "pitch": 53, "duration": 10, "velocity": 88}, {"time": 2595, "pitch": 56, "duration": 9, "velocity": 85}, {"time": 2595, "pitch": 60, "duration": 10, "velocity": 87}, {"time": 2601, "pitch": 48, "duration": 7, "velocity": 79}, {"time": 2607, "pitch": 53, "duration": 5, "velocity": 89}, {"time": 2607, "pitch": 56, "duration": 5, "velocity": 88}, {"time": 2607, "pitch": 60, "duration": 5, "velocity": 88}, {"time": 2613, "pitch": 49, "duration": 9, "velocity": 89}, {"time": 2619, "pitch": 61, "duration": 8, "velocity": 84}, {"time": 2619, "pitch": 65, "duration": 8, "velocity": 88}, {"time": 2619, "pitch": 68, "duration": 8, "velocity": 83}, {"time": 2631, "pitch": 61, "duration": 7, "velocity": 83}, {"time": 2631, "pitch": 65, "duration": 6, "velocity": 84}, {"time": 2631, "pitch": 68, "duration": 8, "velocity": 81}, {"time": 2637, "pitch": 39, "duration": 9, "velocity": 88}, {"time": 2643, "pitch": 63, "duration": 9, "velocity": 87}, {"time": 2643, "pitch": 67, "duration": 8, "velocity": 90}, {"time": 2649, "pitch": 46, "duration": 4, "velocity": 80}, {"time": 2655, "pitch": 63, "duration": 8, "velocity": 81}, {"time": 2655, "pitch": 70, "duration": 8, "velocity": 82}, {"time": 2661, "pitch": 44, "duration": 21, "velocity": 84}, {"time": 2667, "pitch": 63, "duration": 3, "velocity": 83}, {"time": 2667, "pitch": 72, "duration": 6, "velocity": 87}, {"time": 2673, "pitch": 70, "duration": 7, "velocity": 89}, {"time": 2679, "pitch": 65, "duration": 5, "velocity": 84}, {"time": 2685, "pitch": 44, "duration": 20, "velocity": 87}, {"time": 2685, "pitch": 63, "duration": 2, "velocity": 77}, {"time": 2685, "pitch": 68, "duration": 14, "velocity": 80}, {"time": 2691, "pitch": 51, "duration": 14, "velocity": 82}, {"time": 2697, "pitch": 63, "duration": 9, "velocity": 85}, {"time": 2709, "pitch": 44, "duration": 21, "velocity": 88}, {"time": 2715, "pitch": 56, "duration": 4, "velocity": 78}, {"time": 2718, "pitch": 60, "duration": 2, "velocity": 80}, {"time": 2721, "pitch": 56, "duration": 2, "velocity": 83}, {"time": 2721, "pitch": 63, "duration": 3, "velocity": 88}, {"time": 2727, "pitch": 56, "duration": 5, "velocity": 92}, {"time": 2727, "pitch": 63, "duration": 10, "velocity": 88}, {"time": 2733, "pitch": 41, "duration": 14, "velocity": 81}, {"time": 2739, "pitch": 53, "duration": 8, "velocity": 89}, {"time": 2739, "pitch": 56, "duration": 8, "velocity": 89}, {"time": 2739, "pitch": 63, "duration": 3, "velocity": 68}, {"time": 2745, "pitch": 48, "duration": 4, "velocity": 71}, {"time": 2751, "pitch": 53, "duration": 3, "velocity": 88}, {"time": 2751, "pitch": 56, "duration": 3, "velocity": 88}, {"time": 2751, "pitch": 63, "duration": 5, "velocity": 87}, {"time": 2757, "pitch": 51, "duration": 19, "velocity": 91}, {"time": 2763, "pitch": 63, "duration": 5, "velocity": 75}, {"time": 2766, "pitch": 67, "duration": 2, "velocity": 76}, {"time": 2769, "pitch": 63, "duration": 2, "velocity": 77}, {"time": 2769, "pitch": 67, "duration": 2, "velocity": 83}, {"time": 2769, "pitch": 70, "duration": 3, "velocity": 88}, {"time": 2775, "pitch": 63, "duration": 6, "velocity": 89}, {"time": 2775, "pitch": 67, "duration": 6, "velocity": 89}, {"time": 2775, "pitch": 70, "duration": 5, "velocity": 89}, {"time": 2781, "pitch": 58, "duration": 15, "velocity": 77}, {"time": 2787, "pitch": 63, "duration": 6, "velocity": 88}, {"time": 2787, "pitch": 67, "duration": 5, "velocity": 87}, {"time": 2787, "pitch": 75, "duration": 5, "velocity": 89}, {"time": 2793, "pitch": 55, "duration": 3, "velocity": 76}, {"time": 2799, "pitch": 63, "duration": 2, "velocity": 74}, {"time": 2799, "pitch": 67, "duration": 1, "velocity": 73}, {"time": 2799, "pitch": 70, "duration": 3, "velocity": 81}, {"time": 2805, "pitch": 44, "duration": 20, "velocity": 89}, {"time": 2805, "pitch": 63, "duration": 4, "velocity": 82}, {"time": 2805, "pitch": 68, "duration": 4, "velocity": 82}, {"time": 2811, "pitch": 51, "duration": 13, "velocity": 66}, {"time": 2814, "pitch": 56, "duration": 4, "velocity": 89}, {"time": 2817, "pitch": 60, "duration": 2, "velocity": 88}, {"time": 2823, "pitch": 56, "duration": 5, "velocity": 89}, {"time": 2823, "pitch": 60, "duration": 4, "velocity": 93}, {"time": 2823, "pitch": 63, "duration": 4, "velocity": 93}, {"time": 2829, "pitch": 41, "duration": 10, "velocity": 92}, {"time": 2835, "pitch": 53, "duration": 9, "velocity": 85}, {"time": 2835, "pitch": 56, "duration": 8, "velocity": 85}, {"time": 2841, "pitch": 48, "duration": 3, "velocity": 79}, {"time": 2847, "pitch": 53, "duration": 4, "velocity": 90}, {"time": 2847, "pitch": 56, "duration": 4, "velocity": 88}, {"time": 2853, "pitch": 46, "duration": 13, "velocity": 89}, {"time": 2859, "pitch": 58, "duration": 5, "velocity": 77}, {"time": 2862, "pitch": 61, "duration": 2, "velocity": 80}, {"time": 2865, "pitch": 58, "duration": 1, "velocity": 81}, {"time": 2865, "pitch": 65, "duration": 3, "velocity": 90}, {"time": 2871, "pitch": 58, "duration": 5, "velocity": 88}, {"time": 2871, "pitch": 65, "duration": 6, "velocity": 92}, {"time": 2877, "pitch": 51, "duration": 8, "velocity": 90}, {"time": 2883, "pitch": 63, "duration": 8, "velocity": 89}, {"time": 2883, "pitch": 67, "duration": 8, "velocity": 84}, {"time": 2889, "pitch": 58, "duration": 2, "velocity": 83}, {"time": 2895, "pitch": 63, "duration": 5, "velocity": 87}, {"time": 2895, "pitch": 70, "duration": 5, "velocity": 87}, {"time": 2901, "pitch": 44, "duration": 16, "velocity": 88}, {"time": 2907, "pitch": 56, "duration": 5, "velocity": 79}, {"time": 2910, "pitch": 60, "duration": 5, "velocity": 77}, {"time": 2913, "pitch": 63, "duration": 2, "velocity": 85}, {"time": 2919, "pitch": 56, "duration": 4, "velocity": 90}, {"time": 2919, "pitch": 60, "duration": 5, "velocity": 92}, {"time": 2919, "pitch": 63, "duration": 5, "velocity": 92}, {"time": 2925, "pitch": 53, "duration": 9, "velocity": 92}, {"time": 2931, "pitch": 65, "duration": 9, "velocity": 88}, {"time": 2931, "pitch": 68, "duration": 8, "velocity": 88}, {"time": 2937, "pitch": 60, "duration": 2, "velocity": 86}, {"time": 2943, "pitch": 65, "duration": 5, "velocity": 92}, {"time": 2949, "pitch": 44, "duration": 18, "velocity": 90}, {"time": 2955, "pitch": 56, "duration": 5, "velocity": 81}, {"time": 2958, "pitch": 60, "duration": 5, "velocity": 79}, {"time": 2961, "pitch": 56, "duration": 1, "velocity": 56}, {"time": 2961, "pitch": 63, "duration": 2, "velocity": 81}, {"time": 2967, "pitch": 56, "duration": 5, "velocity": 88}, {"time": 2967, "pitch": 60, "duration": 5, "velocity": 89}, {"time": 2967, "pitch": 63, "duration": 6, "velocity": 88}, {"time": 2973, "pitch": 53, "duration": 19, "velocity": 90}, {"time": 2979, "pitch": 65, "duration": 9, "velocity": 90}, {"time": 2979, "pitch": 68, "duration": 9, "velocity": 89}, {"time": 2985, "pitch": 60, "duration": 7, "velocity": 82}, {"time": 2991, "pitch": 65, "duration": 5, "velocity": 89}, {"time": 2991, "pitch": 68, "duration": 5, "velocity": 88}, {"time": 2991, "pitch": 72, "duration": 5, "velocity": 88}, {"time": 2997, "pitch": 41, "duration": 17, "velocity": 89}, {"time": 3003, "pitch": 65, "duration": 4, "velocity": 84}, {"time": 3006, "pitch": 68, "duration": 4, "velocity": 77}, {"time": 3009, "pitch": 72, "duration": 3, "velocity": 88}, {"time": 3015, "pitch": 65, "duration": 5, "velocity": 88}, {"time": 3015, "pitch": 68, "duration": 4, "velocity": 88}, {"time": 3015, "pitch": 72, "duration": 5, "velocity": 89}, {"time": 3021, "pitch": 51, "duration": 8, "velocity": 90}, {"time": 3027, "pitch": 63, "duration": 8, "velocity": 84}, {"time": 3027, "pitch": 67, "duration": 9, "velocity": 88}, {"time": 3027, "pitch": 70, "duration": 9, "velocity": 89}, {"time": 3033, "pitch": 58, "duration": 2, "velocity": 87}, {"time": 3039, "pitch": 63, "duration": 3, "velocity": 88}, {"time": 3045, "pitch": 44, "duration": 2, "velocity": 87}, {"time": 3045, "pitch": 63, "duration": 3, "velocity": 86}, {"time": 3045, "pitch": 68, "duration": 6, "velocity": 83}, {"time": 3051, "pitch": 63, "duration": 4, "velocity": 82}, {"time": 3054, "pitch": 68, "duration": 1, "velocity": 73}, {"time": 3057, "pitch": 68, "duration": 1, "velocity": 67}, {"time": 3057, "pitch": 72, "duration": 3, "velocity": 83}, {"time": 3063, "pitch": 63, "duration": 8, "velocity": 85}, {"time": 3063, "pitch": 68, "duration": 9, "velocity": 87}, {"time": 3063, "pitch": 72, "duration": 9, "velocity": 89}, {"time": 3069, "pitch": 56, "duration": 8, "velocity": 74}, {"time": 3069, "pitch": 60, "duration": 13, "velocity": 72}, {"time": 3075, "pitch": 63, "duration": 7, "velocity": 89}, {"time": 3081, "pitch": 56, "duration": 11, "velocity": 82}, {"time": 3087, "pitch": 63, "duration": 5, "velocity": 88}, {"time": 3093, "pitch": 44, "duration": 21, "velocity": 88}, {"time": 3099, "pitch": 56, "duration": 4, "velocity": 78}, {"time": 3102, "pitch": 60, "duration": 2, "velocity": 80}, {"time": 3105, "pitch": 56, "duration": 2, "velocity": 83}, {"time": 3105, "pitch": 63, "duration": 3, "velocity": 88}, {"time": 3111, "pitch": 56, "duration": 5, "velocity": 92}, {"time": 3111, "pitch": 63, "duration": 10, "velocity": 88}, {"time": 3117, "pitch": 41, "duration": 14, "velocity": 81}, {"time": 3123, "pitch": 53, "duration": 8, "velocity": 89}, {"time": 3123, "pitch": 56, "duration": 8, "velocity": 89}, {"time": 3123, "pitch": 63, "duration": 3, "velocity": 68}, {"time": 3129, "pitch": 48, "duration": 4, "velocity": 71}, {"time": 3135, "pitch": 53, "duration": 3, "velocity": 88}, {"time": 3135, "pitch": 56, "duration": 3, "velocity": 88}, {"time": 3135, "pitch": 63, "duration": 5, "velocity": 87}, {"time": 3141, "pitch": 51, "duration": 19, "velocity": 91}, {"time": 3147, "pitch": 63, "duration": 5, "velocity": 75}, {"time": 3150, "pitch": 67, "duration": 2, "velocity": 76}, {"time": 3153, "pitch": 63, "duration": 2, "velocity": 77}, {"time": 3153, "pitch": 67, "duration": 2, "velocity": 83}, {"time": 3153, "pitch": 70, "duration": 3, "velocity": 88}, {"time": 3159, "pitch": 63, "duration": 6, "velocity": 89}, {"time": 3159, "pitch": 67, "duration": 6, "velocity": 89}, {"time": 3159, "pitch": 70, "duration": 5, "velocity": 89}, {"time": 3165, "pitch": 58, "duration": 15, "velocity": 77}, {"time": 3171, "pitch": 63, "duration": 6, "velocity": 88}, {"time": 3171, "pitch": 67, "duration": 5, "velocity": 87}, {"time": 3171, "pitch": 75, "duration": 5, "velocity": 89}, {"time": 3177, "pitch": 55, "duration": 3, "velocity": 76}, {"time": 3183, "pitch": 63, "duration": 2, "velocity": 74}, {"time": 3183, "pitch": 67, "duration": 1, "velocity": 73}, {"time": 3183, "pitch": 70, "duration": 3, "velocity": 81}, {"time": 3189, "pitch": 44, "duration": 20, "velocity": 89}, {"time": 3189, "pitch": 63, "duration": 4, "velocity": 82}, {"time": 3189, "pitch": 68, "duration": 4, "velocity": 82}, {"time": 3195, "pitch": 51, "duration": 13, "velocity": 66}, {"time": 3198, "pitch": 56, "duration": 4, "velocity": 89}, {"time": 3201, "pitch": 60, "duration": 2, "velocity": 88}, {"time": 3207, "pitch": 56, "duration": 5, "velocity": 89}, {"time": 3207, "pitch": 60, "duration": 4, "velocity": 93}, {"time": 3207, "pitch": 63, "duration": 4, "velocity": 93}, {"time": 3213, "pitch": 41, "duration": 10, "velocity": 92}, {"time": 3219, "pitch": 53, "duration": 9, "velocity": 85}, {"time": 3219, "pitch": 56, "duration": 8, "velocity": 85}, {"time": 3225, "pitch": 48, "duration": 3, "velocity": 79}, {"time": 3231, "pitch": 53, "duration": 4, "velocity": 90}, {"time": 3231, "pitch": 56, "duration": 4, "velocity": 88}, {"time": 3237, "pitch": 46, "duration": 13, "velocity": 89}, {"time": 3243, "pitch": 58, "duration": 5, "velocity": 77}, {"time": 3246, "pitch": 61, "duration": 2, "velocity": 80}, {"time": 3249, "pitch": 58, "duration": 1, "velocity": 81}, {"time": 3249, "pitch": 65, "duration": 3, "velocity": 90}, {"time": 3255, "pitch": 58, "duration": 5, "velocity": 88}, {"time": 3255, "pitch": 65, "duration": 6, "velocity": 92}, {"time": 3261, "pitch": 51, "duration": 8, "velocity": 90}, {"time": 3267, "pitch": 63, "duration": 8, "velocity": 89}, {"time": 3267, "pitch": 67, "duration": 8, "velocity": 84}, {"time": 3273, "pitch": 58, "duration": 2, "velocity": 83}, {"time": 3279, "pitch": 63, "duration": 5, "velocity": 87}, {"time": 3279, "pitch": 70, "duration": 5, "velocity": 87}, {"time": 3285, "pitch": 44, "duration": 20, "velocity": 89}, {"time": 3291, "pitch": 63, "duration": 5, "velocity": 82}, {"time": 3294, "pitch": 68, "duration": 4, "velocity": 79}, {"time": 3297, "pitch": 72, "duration": 2, "velocity": 86}, {"time": 3303, "pitch": 63, "duration": 8, "velocity": 88}, {"time": 3303, "pitch": 68, "duration": 5, "velocity": 89}, {"time": 3303, "pitch": 72, "duration": 6, "velocity": 89}, {"time": 3309, "pitch": 44, "duration": 17, "velocity": 88}, {"time": 3315, "pitch": 63, "duration": 9, "velocity": 87}, {"time": 3315, "pitch": 68, "duration": 9, "velocity": 80}, {"time": 3321, "pitch": 51, "duration": 5, "velocity": 76}, {"time": 3327, "pitch": 63, "duration": 6, "velocity": 88}, {"time": 3327, "pitch": 68, "duration": 5, "velocity": 83}, {"time": 3333, "pitch": 51, "duration": 15, "velocity": 90}, {"time": 3339, "pitch": 63, "duration": 5, "velocity": 80}, {"time": 3342, "pitch": 67, "duration": 2, "velocity": 86}, {"time": 3345, "pitch": 63, "duration": 2, "velocity": 81}, {"time": 3345, "pitch": 67, "duration": 2, "velocity": 84}, {"time": 3345, "pitch": 70, "duration": 3, "velocity": 84}, {"time": 3351, "pitch": 63, "duration": 5, "velocity": 89}, {"time": 3351, "pitch": 67, "duration": 4, "velocity": 86}, {"time": 3351, "pitch": 70, "duration": 4, "velocity": 89}, {"time": 3357, "pitch": 49, "duration": 7, "velocity": 90}, {"time": 3363, "pitch": 61, "duration": 4, "velocity": 88}, {"time": 3363, "pitch": 65, "duration": 4, "velocity": 90}, {"time": 3363, "pitch": 68, "duration": 5, "velocity": 86}, {"time": 3369, "pitch": 51, "duration": 6, "velocity": 90}, {"time": 3375, "pitch": 63, "duration": 3, "velocity": 86}, {"time": 3375, "pitch": 67, "duration": 3, "velocity": 84}, {"time": 3381, "pitch": 46, "duration": 20, "velocity": 89}, {"time": 3387, "pitch": 58, "duration": 8, "velocity": 74}, {"time": 3390, "pitch": 61, "duration": 5, "velocity": 76}, {"time": 3393, "pitch": 65, "duration": 3, "velocity": 89}, {"time": 3399, "pitch": 58, "duration": 5, "velocity": 82}, {"time": 3399, "pitch": 61, "duration": 5, "velocity": 85}, {"time": 3399, "pitch": 65, "duration": 5, "velocity": 89}, {"time": 3405, "pitch": 48, "duration": 9, "velocity": 89}, {"time": 3411, "pitch": 60, "duration": 9, "velocity": 86}, {"time": 3411, "pitch": 63, "duration": 9, "velocity": 87}, {"time": 3411, "pitch": 67, "duration": 9, "velocity": 84}, {"time": 3417, "pitch": 55, "duration": 6, "velocity": 77}, {"time": 3423, "pitch": 58, "duration": 5, "velocity": 79}, {"time": 3423, "pitch": 63, "duration": 6, "velocity": 88}, {"time": 3429, "pitch": 53, "duration": 17, "velocity": 91}, {"time": 3435, "pitch": 65, "duration": 5, "velocity": 87}, {"time": 3438, "pitch": 68, "duration": 2, "velocity": 77}, {"time": 3441, "pitch": 68, "duration": 2, "velocity": 79}, {"time": 3441, "pitch": 72, "duration": 2, "velocity": 77}, {"time": 3447, "pitch": 65, "duration": 7, "velocity": 92}, {"time": 3447, "pitch": 68, "duration": 6, "velocity": 90}, {"time": 3447, "pitch": 72, "duration": 6, "velocity": 90}, {"time": 3453, "pitch": 41, "duration": 8, "velocity": 90}, {"time": 3459, "pitch": 53, "duration": 6, "velocity": 90}, {"time": 3459, "pitch": 56, "duration": 6, "velocity": 91}, {"time": 3459, "pitch": 60, "duration": 9, "velocity": 89}, {"time": 3465, "pitch": 39, "duration": 11, "velocity": 93}, {"time": 3471, "pitch": 51, "duration": 4, "velocity": 94}, {"time": 3471, "pitch": 60, "duration": 1, "velocity": 71}, {"time": 3477, "pitch": 44, "duration": 21, "velocity": 88}, {"time": 3483, "pitch": 56, "duration": 4, "velocity": 78}, {"time": 3486, "pitch": 60, "duration": 2, "velocity": 80}, {"time": 3489, "pitch": 56, "duration": 2, "velocity": 83}, {"time": 3489, "pitch": 63, "duration": 3, "velocity": 88}, {"time": 3495, "pitch": 56, "duration": 5, "velocity": 92}, {"time": 3495, "pitch": 63, "duration": 10, "velocity": 88}, {"time": 3501, "pitch": 41, "duration": 14, "velocity": 81}, {"time": 3507, "pitch": 53, "duration": 8, "velocity": 89}, {"time": 3507, "pitch": 56, "duration": 8, "velocity": 89}, {"time": 3507, "pitch": 63, "duration": 3, "velocity": 68}, {"time": 3513, "pitch": 48, "duration": 4, "velocity": 71}, {"time": 3519, "pitch": 53, "duration": 3, "velocity": 88}, {"time": 3519, "pitch": 56, "duration": 3, "velocity": 88}, {"time": 3519, "pitch": 63, "duration": 5, "velocity": 87}, {"time": 3525, "pitch": 51, "duration": 19, "velocity": 91}, {"time": 3531, "pitch": 63, "duration": 5, "velocity": 75}, {"time": 3534, "pitch": 67, "duration": 2, "velocity": 76}, {"time": 3537, "pitch": 63, "duration": 2, "velocity": 77}, {"time": 3537, "pitch": 67, "duration": 2, "velocity": 83}, {"time": 3537, "pitch": 70, "duration": 3, "velocity": 88}, {"time": 3543, "pitch": 63, "duration": 6, "velocity": 89}, {"time": 3543, "pitch": 67, "duration": 6, "velocity": 89}, {"time": 3543, "pitch": 70, "duration": 5, "velocity": 89}, {"time": 3549, "pitch": 58, "duration": 15, "velocity": 77}, {"time": 3555, "pitch": 63, "duration": 6, "velocity": 88}, {"time": 3555, "pitch": 67, "duration": 5, "velocity": 87}, {"time": 3555, "pitch": 75, "duration": 5, "velocity": 89}, {"time": 3561, "pitch": 55, "duration": 3, "velocity": 76}, {"time": 3567, "pitch": 63, "duration": 2, "velocity": 74}, {"time": 3567, "pitch": 67, "duration": 1, "velocity": 73}, {"time": 3567, "pitch": 70, "duration": 3, "velocity": 81}, {"time": 3573, "pitch": 44, "duration": 20, "velocity": 89}, {"time": 3573, "pitch": 63, "duration": 4, "velocity": 82}, {"time": 3573, "pitch": 68, "duration": 4, "velocity": 82}, {"time": 3579, "pitch": 51, "duration": 13, "velocity": 66}, {"time": 3582, "pitch": 56, "duration": 4, "velocity": 89}, {"time": 3585, "pitch": 60, "duration": 2, "velocity": 88}, {"time": 3591, "pitch": 56, "duration": 5, "velocity": 89}, {"time": 3591, "pitch": 60, "duration": 4, "velocity": 93}, {"time": 3591, "pitch": 63, "duration": 4, "velocity": 93}, {"time": 3597, "pitch": 41, "duration": 10, "velocity": 92}, {"time": 3603, "pitch": 53, "duration": 9, "velocity": 85}, {"time": 3603, "pitch": 56, "duration": 8, "velocity": 85}, {"time": 3609, "pitch": 48, "duration": 3, "velocity": 79}, {"time": 3615, "pitch": 53, "duration": 4, "velocity": 90}, {"time": 3615, "pitch": 56, "duration": 4, "velocity": 88}, {"time": 3621, "pitch": 46, "duration": 13, "velocity": 89}, {"time": 3627, "pitch": 58, "duration": 5, "velocity": 77}, {"time": 3630, "pitch": 61, "duration": 2, "velocity": 80}, {"time": 3633, "pitch": 58, "duration": 1, "velocity": 81}, {"time": 3633, "pitch": 65, "duration": 3, "velocity": 90}, {"time": 3639, "pitch": 58, "duration": 5, "velocity": 88}, {"time": 3639, "pitch": 65, "duration": 6, "velocity": 92}, {"time": 3645, "pitch": 51, "duration": 8, "velocity": 90}, {"time": 3651, "pitch": 63, "duration": 8, "velocity": 89}, {"time": 3651, "pitch": 67, "duration": 8, "velocity": 84}, {"time": 3657, "pitch": 58, "duration": 2, "velocity": 83}, {"time": 3663, "pitch": 63, "duration": 5, "velocity": 87}, {"time": 3663, "pitch": 70, "duration": 5, "velocity": 87}, {"time": 3669, "pitch": 44, "duration": 20, "velocity": 89}, {"time": 3675, "pitch": 63, "duration": 5, "velocity": 82}, {"time": 3678, "pitch": 68, "duration": 4, "velocity": 79}, {"time": 3681, "pitch": 72, "duration": 2, "velocity": 86}, {"time": 3687, "pitch": 63, "duration": 8, "velocity": 88}, {"time": 3687, "pitch": 68, "duration": 5, "velocity": 89}, {"time": 3687, "pitch": 72, "duration": 6, "velocity": 89}, {"time": 3693, "pitch": 44, "duration": 17, "velocity": 88}, {"time": 3699, "pitch": 63, "duration": 9, "velocity": 87}, {"time": 3699, "pitch": 68, "duration": 9, "velocity": 80}, {"time": 3705, "pitch": 51, "duration": 5, "velocity": 76}, {"time": 3711, "pitch": 63, "duration": 6, "velocity": 88}, {"time": 3711, "pitch": 68, "duration": 5, "velocity": 83}, {"time": 3717, "pitch": 51, "duration": 15, "velocity": 90}, {"time": 3723, "pitch": 63, "duration": 5, "velocity": 80}, {"time": 3726, "pitch": 67, "duration": 2, "velocity": 86}, {"time": 3729, "pitch": 63, "duration": 2, "velocity": 81}, {"time": 3729, "pitch": 67, "duration": 2, "velocity": 84}, {"time": 3729, "pitch": 70, "duration": 3, "velocity": 84}, {"time": 3735, "pitch": 63, "duration": 5, "velocity": 89}, {"time": 3735, "pitch": 67, "duration": 4, "velocity": 86}, {"time": 3735, "pitch": 70, "duration": 4, "velocity": 89}, {"time": 3741, "pitch": 49, "duration": 7, "velocity": 90}, {"time": 3747, "pitch": 61, "duration": 4, "velocity": 88}, {"time": 3747, "pitch": 65, "duration": 4, "velocity": 90}, {"time": 3747, "pitch": 68, "duration": 5, "velocity": 86}, {"time": 3753, "pitch": 51, "duration": 6, "velocity": 90}, {"time": 3759, "pitch": 63, "duration": 3, "velocity": 86}, {"time": 3759, "pitch": 67, "duration": 3, "velocity": 84}, {"time": 3765, "pitch": 46, "duration": 20, "velocity": 89}, {"time": 3771, "pitch": 58, "duration": 8, "velocity": 74}, {"time": 3774, "pitch": 61, "duration": 5, "velocity": 76}, {"time": 3777, "pitch": 65, "duration": 3, "velocity": 89}, {"time": 3783, "pitch": 58, "duration": 5, "velocity": 82}, {"time": 3783, "pitch": 61, "duration": 5, "velocity": 85}, {"time": 3783, "pitch": 65, "duration": 5, "velocity": 89}, {"time": 3789, "pitch": 48, "duration": 9, "velocity": 89}, {"time": 3795, "pitch": 60, "duration": 9, "velocity": 86}, {"time": 3795, "pitch": 63, "duration": 9, "velocity": 87}, {"time": 3795, "pitch": 67, "duration": 9, "velocity": 84}, {"time": 3801, "pitch": 55, "duration": 6, "velocity": 77}, {"time": 3807, "pitch": 58, "duration": 5, "velocity": 79}, {"time": 3807, "pitch": 63, "duration": 6, "velocity": 88}, {"time": 3813, "pitch": 41, "duration": 17, "velocity": 91}, {"time": 3813, "pitch": 53, "duration": 17, "velocity": 91}, {"time": 3819, "pitch": 65, "duration": 5, "velocity": 87}, {"time": 3822, "pitch": 68, "duration": 2, "velocity": 77}, {"time": 3825, "pitch": 68, "duration": 2, "velocity": 79}, {"time": 3825, "pitch": 72, "duration": 2, "velocity": 77}, {"time": 3831, "pitch": 65, "duration": 7, "velocity": 92}, {"time": 3831, "pitch": 68, "duration": 6, "velocity": 90}, {"time": 3831, "pitch": 72, "duration": 6, "velocity": 90}, {"time": 3837, "pitch": 41, "duration": 8, "velocity": 90}, {"time": 3843, "pitch": 53, "duration": 6, "velocity": 90}, {"time": 3843, "pitch": 56, "duration": 6, "velocity": 91}, {"time": 3843, "pitch": 60, "duration": 9, "velocity": 89}, {"time": 3849, "pitch": 39, "duration": 11, "velocity": 93}, {"time": 3855, "pitch": 51, "duration": 4, "velocity": 94}, {"time": 3855, "pitch": 60, "duration": 1, "velocity": 71}, {"time": 3861, "pitch": 44, "duration": 21, "velocity": 88}, {"time": 3867, "pitch": 56, "duration": 4, "velocity": 78}, {"time": 3870, "pitch": 60, "duration": 2, "velocity": 80}, {"time": 3873, "pitch": 56, "duration": 2, "velocity": 83}, {"time": 3873, "pitch": 63, "duration": 3, "velocity": 88}, {"time": 3879, "pitch": 56, "duration": 5, "velocity": 92}, {"time": 3879, "pitch": 63, "duration": 10, "velocity": 88}, {"time": 3885, "pitch": 41, "duration": 14, "velocity": 81}, {"time": 3891, "pitch": 53, "duration": 8, "velocity": 89}, {"time": 3891, "pitch": 56, "duration": 8, "velocity": 89}, {"time": 3891, "pitch": 63, "duration": 3, "velocity": 68}, {"time": 3897, "pitch": 48, "duration": 4, "velocity": 71}, {"time": 3903, "pitch": 53, "duration": 3, "velocity": 88}, {"time": 3903, "pitch": 56, "duration": 3, "velocity": 88}, {"time": 3903, "pitch": 63, "duration": 5, "velocity": 87}, {"time": 3909, "pitch": 51, "duration": 19, "velocity": 91}, {"time": 3915, "pitch": 63, "duration": 5, "velocity": 75}, {"time": 3918, "pitch": 67, "duration": 2, "velocity": 76}, {"time": 3921, "pitch": 63, "duration": 2, "velocity": 77}, {"time": 3921, "pitch": 67, "duration": 2, "velocity": 83}, {"time": 3921, "pitch": 70, "duration": 3, "velocity": 88}, {"time": 3927, "pitch": 63, "duration": 6, "velocity": 89}, {"time": 3927, "pitch": 67, "duration": 6, "velocity": 89}, {"time": 3927, "pitch": 70, "duration": 5, "velocity": 89}, {"time": 3933, "pitch": 58, "duration": 15, "velocity": 77}, {"time": 3939, "pitch": 63, "duration": 6, "velocity": 88}, {"time": 3939, "pitch": 67, "duration": 5, "velocity": 87}, {"time": 3939, "pitch": 75, "duration": 5, "velocity": 89}, {"time": 3945, "pitch": 55, "duration": 3, "velocity": 76}, {"time": 3951, "pitch": 63, "duration": 2, "velocity": 74}, {"time": 3951, "pitch": 67, "duration": 1, "velocity": 73}, {"time": 3951, "pitch": 70, "duration": 3, "velocity": 81}, {"time": 3957, "pitch": 44, "duration": 20, "velocity": 89}, {"time": 3957, "pitch": 63, "duration": 4, "velocity": 82}, {"time": 3957, "pitch": 68, "duration": 4, "velocity": 82}, {"time": 3963, "pitch": 51, "duration": 13, "velocity": 66}, {"time": 3966, "pitch": 56, "duration": 4, "velocity": 89}, {"time": 3969, "pitch": 60, "duration": 2, "velocity": 88}, {"time": 3975, "pitch": 56, "duration": 5, "velocity": 89}, {"time": 3975, "pitch": 60, "duration": 4, "velocity": 93}, {"time": 3975, "pitch": 63, "duration": 4, "velocity": 93}, {"time": 3981, "pitch": 41, "duration": 10, "velocity": 92}, {"time": 3987, "pitch": 53, "duration": 9, "velocity": 85}, {"time": 3987, "pitch": 56, "duration": 8, "velocity": 85}, {"time": 3993, "pitch": 48, "duration": 3, "velocity": 79}, {"time": 3999, "pitch": 53, "duration": 4, "velocity": 90}, {"time": 3999, "pitch": 56, "duration": 4, "velocity": 88}, {"time": 4005, "pitch": 46, "duration": 13, "velocity": 89}, {"time": 4011, "pitch": 58, "duration": 5, "velocity": 77}, {"time": 4014, "pitch": 61, "duration": 2, "velocity": 80}, {"time": 4017, "pitch": 58, "duration": 1, "velocity": 81}, {"time": 4017, "pitch": 65, "duration": 3, "velocity": 90}, {"time": 4023, "pitch": 58, "duration": 5, "velocity": 88}, {"time": 4023, "pitch": 65, "duration": 6, "velocity": 92}, {"time": 4029, "pitch": 51, "duration": 8, "velocity": 90}, {"time": 4035, "pitch": 63, "duration": 8, "velocity": 89}, {"time": 4035, "pitch": 67, "duration": 8, "velocity": 84}, {"time": 4041, "pitch": 58, "duration": 2, "velocity": 83}, {"time": 4047, "pitch": 63, "duration": 5, "velocity": 87}, {"time": 4047, "pitch": 70, "duration": 5, "velocity": 87}, {"time": 4053, "pitch": 44, "duration": 20, "velocity": 89}, {"time": 4059, "pitch": 63, "duration": 5, "velocity": 82}, {"time": 4062, "pitch": 68, "duration": 4, "velocity": 79}, {"time": 4065, "pitch": 72, "duration": 2, "velocity": 86}, {"time": 4071, "pitch": 63, "duration": 8, "velocity": 88}, {"time": 4071, "pitch": 68, "duration": 5, "velocity": 89}, {"time": 4071, "pitch": 72, "duration": 6, "velocity": 89}, {"time": 4077, "pitch": 44, "duration": 17, "velocity": 88}, {"time": 4083, "pitch": 63, "duration": 9, "velocity": 87}, {"time": 4083, "pitch": 68, "duration": 9, "velocity": 80}, {"time": 4089, "pitch": 51, "duration": 5, "velocity": 76}, {"time": 4095, "pitch": 63, "duration": 6, "velocity": 88}, {"time": 4095, "pitch": 68, "duration": 5, "velocity": 83}, {"time": 4101, "pitch": 51, "duration": 15, "velocity": 90}, {"time": 4107, "pitch": 63, "duration": 5, "velocity": 80}, {"time": 4110, "pitch": 67, "duration": 2, "velocity": 86}, {"time": 4113, "pitch": 63, "duration": 2, "velocity": 81}, {"time": 4113, "pitch": 67, "duration": 2, "velocity": 84}, {"time": 4113, "pitch": 70, "duration": 3, "velocity": 84}, {"time": 4119, "pitch": 63, "duration": 5, "velocity": 89}, {"time": 4119, "pitch": 67, "duration": 4, "velocity": 86}, {"time": 4119, "pitch": 70, "duration": 4, "velocity": 89}, {"time": 4125, "pitch": 49, "duration": 7, "velocity": 90}, {"time": 4131, "pitch": 61, "duration": 4, "velocity": 88}, {"time": 4131, "pitch": 65, "duration": 4, "velocity": 90}, {"time": 4131, "pitch": 68, "duration": 5, "velocity": 86}, {"time": 4137, "pitch": 51, "duration": 6, "velocity": 90}, {"time": 4143, "pitch": 63, "duration": 3, "velocity": 86}, {"time": 4143, "pitch": 67, "duration": 3, "velocity": 84}, {"time": 4149, "pitch": 46, "duration": 20, "velocity": 89}, {"time": 4155, "pitch": 58, "duration": 8, "velocity": 74}, {"time": 4158, "pitch": 61, "duration": 5, "velocity": 76}, {"time": 4161, "pitch": 65, "duration": 3, "velocity": 89}, {"time": 4167, "pitch": 58, "duration": 5, "velocity": 82}, {"time": 4167, "pitch": 61, "duration": 5, "velocity": 85}, {"time": 4167, "pitch": 65, "duration": 5, "velocity": 89}, {"time": 4173, "pitch": 48, "duration": 9, "velocity": 89}, {"time": 4179, "pitch": 60, "duration": 9, "velocity": 86}, {"time": 4179, "pitch": 63, "duration": 9, "velocity": 87}, {"time": 4179, "pitch": 67, "duration": 9, "velocity": 84}, {"time": 4185, "pitch": 55, "duration": 6, "velocity": 77}, {"time": 4191, "pitch": 58, "duration": 5, "velocity": 79}, {"time": 4191, "pitch": 63, "duration": 6, "velocity": 88}, {"time": 4197, "pitch": 41, "duration": 17, "velocity": 91}, {"time": 4197, "pitch": 53, "duration": 17, "velocity": 91}, {"time": 4203, "pitch": 65, "duration": 5, "velocity": 87}, {"time": 4206, "pitch": 68, "duration": 2, "velocity": 77}, {"time": 4209, "pitch": 68, "duration": 2, "velocity": 79}, {"time": 4209, "pitch": 72, "duration": 2, "velocity": 77}, {"time": 4215, "pitch": 65, "duration": 7, "velocity": 92}, {"time": 4215, "pitch": 68, "duration": 6, "velocity": 90}, {"time": 4215, "pitch": 72, "duration": 6, "velocity": 90}, {"time": 4219, "pitch": 65, "duration": 3, "velocity": 80}, {"time": 4220, "pitch": 41, "duration": 21, "velocity": 88}, {"time": 4220, "pitch": 68, "duration": 1, "velocity": 77}, {"time": 4222, "pitch": 72, "duration": 27, "velocity": 76}], "annotations": [{"time": 21, "annotation": {"number": 64, "value": 127}, "group": "control_change"}, {"time": 43, "annotation": {"number": 64, "value": 0}, "group": "control_change"}, {"time": 48, "annotation": {"number": 64, "value": 127}, "group": "control_change"}, {"time": 66, "annotation": {"number": 64, "value": 0}, "group": "control_change"}, {"time": 70, "annotation": {"number": 64, "value": 127}, "group": "control_change"}, {"time": 90, "annotation": {"number": 64, "value": 0}, "group": "control_change"}, {"time": 92, "annotation": {"number": 64, "value": 127}, "group": "control_change"}, {"time": 117, "annotation": {"number": 64, "value": 0}, "group": "control_change"}, {"time": 121, "annotation": {"number": 64, "value": 127}, "group": "control_change"}, {"time": 141, "annotation": {"number": 64, "value": 0}, "group": "control_change"}, {"time": 146, "annotation": {"number": 64, "value": 127}, "group": "control_change"}, {"time": 163, "annotation": {"number": 64, "value": 0}, "group": "control_change"}, {"time": 165, "annotation": {"number": 64, "value": 127}, "group": "control_change"}, {"time": 185, "annotation": {"number": 64, "value": 0}, "group": "control_change"}, {"time": 189, "annotation": {"number": 64, "value": 127}, "group": "control_change"}, {"time": 210, "annotation": {"number": 64, "value": 0}, "group": "control_change"}, {"time": 216, "annotation": {"number": 64, "value": 127}, "group": "control_change"}, {"time": 233, "annotation": {"number": 64, "value": 0}, "group": "control_change"}, {"time": 248, "annotation": {"number": 64, "value": 127}, "group": "control_change"}, {"time": 259, "annotation": {"number": 64, "value": 0}, "group": "control_change"}, {"time": 260, "annotation": {"number": 64, "value": 127}, "group": "control_change"}, {"time": 281, "annotation": {"number": 64, "value": 0}, "group": "control_change"}, {"time": 295, "annotation": {"number": 64, "value": 127}, "group": "control_change"}, {"time": 306, "annotation": {"number": 64, "value": 0}, "group": "control_change"}, {"time": 310, "annotation": {"number": 64, "value": 127}, "group": "control_change"}, {"time": 330, "annotation": {"number": 64, "value": 0}, "group": "control_change"}, {"time": 335, "annotation": {"number": 64, "value": 127}, "group": "control_change"}, {"time": 354, "annotation": {"number": 64, "value": 0}, "group": "control_change"}, {"time": 358, "annotation": {"number": 64, "value": 127}, "group": "control_change"}, {"time": 380, "annotation": {"number": 64, "value": 0}, "group": "control_change"}, {"time": 385, "annotation": {"number": 64, "value": 127}, "group": "control_change"}, {"time": 407, "annotation": {"number": 64, "value": 127}, "group": "control_change"}, {"time": 427, "annotation": {"number": 64, "value": 0}, "group": "control_change"}, {"time": 453, "annotation": {"number": 64, "value": 127}, "group": "control_change"}, {"time": 500, "annotation": {"number": 64, "value": 0}, "group": "control_change"}, {"time": 504, "annotation": {"number": 64, "value": 127}, "group": "control_change"}, {"time": 523, "annotation": {"number": 64, "value": 0}, "group": "control_change"}, {"time": 530, "annotation": {"number": 64, "value": 127}, "group": "control_change"}, {"time": 546, "annotation": {"number": 64, "value": 0}, "group": "control_change"}, {"time": 549, "annotation": {"number": 64, "value": 127}, "group": "control_change"}, {"time": 571, "annotation": {"number": 64, "value": 0}, "group": "control_change"}, {"time": 574, "annotation": {"number": 64, "value": 127}, "group": "control_change"}, {"time": 594, "annotation": {"number": 64, "value": 0}, "group": "control_change"}, {"time": 600, "annotation": {"number": 64, "value": 127}, "group": "control_change"}, {"time": 620, "annotation": {"number": 64, "value": 0}, "group": "control_change"}, {"time": 626, "annotation": {"number": 64, "value": 127}, "group": "control_change"}, {"time": 645, "annotation": {"number": 64, "value": 0}, "group": "control_change"}, {"time": 650, "annotation": {"number": 64, "value": 127}, "group": "control_change"}, {"time": 669, "annotation": {"number": 64, "value": 0}, "group": "control_change"}, {"time": 680, "annotation": {"number": 64, "value": 127}, "group": "control_change"}, {"time": 691, "annotation": {"number": 64, "value": 0}, "group": "control_change"}, {"time": 695, "annotation": {"number": 64, "value": 127}, "group": "control_change"}, {"time": 714, "annotation": {"number": 64, "value": 0}, "group": "control_change"}, {"time": 720, "annotation": {"number": 64, "value": 127}, "group": "control_change"}, {"time": 736, "annotation": {"number": 64, "value": 0}, "group": "control_change"}, {"time": 740, "annotation": {"number": 64, "value": 127}, "group": "control_change"}, {"time": 763, "annotation": {"number": 64, "value": 0}, "group": "control_change"}, {"time": 765, "annotation": {"number": 64, "value": 127}, "group": "control_change"}, {"time": 786, "annotation": {"number": 64, "value": 0}, "group": "control_change"}, {"time": 791, "annotation": {"number": 64, "value": 127}, "group": "control_change"}, {"time": 811, "annotation": {"number": 64, "value": 0}, "group": "control_change"}, {"time": 837, "annotation": {"number": 64, "value": 127}, "group": "control_change"}, {"time": 884, "annotation": {"number": 64, "value": 0}, "group": "control_change"}, {"time": 888, "annotation": {"number": 64, "value": 127}, "group": "control_change"}, {"time": 907, "annotation": {"number": 64, "value": 0}, "group": "control_change"}, {"time": 914, "annotation": {"number": 64, "value": 127}, "group": "control_change"}, {"time": 930, "annotation": {"number": 64, "value": 0}, "group": "control_change"}, {"time": 933, "annotation": {"number": 64, "value": 127}, "group": "control_change"}, {"time": 955, "annotation": {"number": 64, "value": 0}, "group": "control_change"}, {"time": 958, "annotation": {"number": 64, "value": 127}, "group": "control_change"}, {"time": 978, "annotation": {"number": 64, "value": 0}, "group": "control_change"}, {"time": 981, "annotation": {"number": 64, "value": 127}, "group": "control_change"}, {"time": 1002, "annotation": {"number": 64, "value": 0}, "group": "control_change"}, {"time": 1007, "annotation": {"number": 64, "value": 127}, "group": "control_change"}, {"time": 1027, "annotation": {"number": 64, "value": 0}, "group": "control_change"}, {"time": 1031, "annotation": {"number": 64, "value": 127}, "group": "control_change"}, {"time": 1053, "annotation": {"number": 64, "value": 127}, "group": "control_change"}, {"time": 1063, "annotation": {"number": 64, "value": 0}, "group": "control_change"}, {"time": 1065, "annotation": {"number": 64, "value": 127}, "group": "control_change"}, {"time": 1076, "annotation": {"number": 64, "value": 0}, "group": "control_change"}, {"time": 1080, "annotation": {"number": 64, "value": 127}, "group": "control_change"}, {"time": 1100, "annotation": {"number": 64, "value": 0}, "group": "control_change"}, {"time": 1102, "annotation": {"number": 64, "value": 127}, "group": "control_change"}, {"time": 1124, "annotation": {"number": 64, "value": 0}, "group": "control_change"}, {"time": 1127, "annotation": {"number": 64, "value": 127}, "group": "control_change"}, {"time": 1150, "annotation": {"number": 64, "value": 0}, "group": "control_change"}, {"time": 1151, "annotation": {"number": 64, "value": 127}, "group": "control_change"}, {"time": 1163, "annotation": {"number": 64, "value": 0}, "group": "control_change"}, {"time": 1175, "annotation": {"number": 64, "value": 127}, "group": "control_change"}, {"time": 1195, "annotation": {"number": 64, "value": 0}, "group": "control_change"}, {"time": 1221, "annotation": {"number": 64, "value": 127}, "group": "control_change"}, {"time": 1268, "annotation": {"number": 64, "value": 0}, "group": "control_change"}, {"time": 1272, "annotation": {"number": 64, "value": 127}, "group": "control_change"}, {"time": 1291, "annotation": {"number": 64, "value": 0}, "group": "control_change"}, {"time": 1298, "annotation": {"number": 64, "value": 127}, "group": "control_change"}, {"time": 1314, "annotation": {"number": 64, "value": 0}, "group": "control_change"}, {"time": 1317, "annotation": {"number": 64, "value": 127}, "group": "control_change"}, {"time": 1339, "annotation": {"number": 64, "value": 0}, "group": "control_change"}, {"time": 1342, "annotation": {"number": 64, "value": 127}, "group": "control_change"}, {"time": 1362, "annotation": {"number": 64, "value": 0}, "group": "control_change"}, {"time": 1365, "annotation": {"number": 64, "value": 127}, "group": "control_change"}, {"time": 1386, "annotation": {"number": 64, "value": 0}, "group": "control_change"}, {"time": 1391, "annotation": {"number": 64, "value": 127}, "group": "control_change"}, {"time": 1411, "annotation": {"number": 64, "value": 0}, "group": "control_change"}, {"time": 1415, "annotation": {"number": 64, "value": 127}, "group": "control_change"}, {"time": 1437, "annotation": {"number": 64, "value": 127}, "group": "control_change"}, {"time": 1447, "annotation": {"number": 64, "value": 0}, "group": "control_change"}, {"time": 1449, "annotation": {"number": 64, "value": 127}, "group": "control_change"}, {"time": 1460, "annotation": {"number": 64, "value": 0}, "group": "control_change"}, {"time": 1464, "annotation": {"number": 64, "value": 127}, "group": "control_change"}, {"time": 1484, "annotation": {"number": 64, "value": 0}, "group": "control_change"}, {"time": 1486, "annotation": {"number": 64, "value": 127}, "group": "control_change"}, {"time": 1508, "annotation": {"number": 64, "value": 0}, "group": "control_change"}, {"time": 1511, "annotation": {"number": 64, "value": 127}, "group": "control_change"}, {"time": 1534, "annotation": {"number": 64, "value": 0}, "group": "control_change"}, {"time": 1535, "annotation": {"number": 64, "value": 127}, "group": "control_change"}, {"time": 1547, "annotation": {"number": 64, "value": 0}, "group": "control_change"}, {"time": 1559, "annotation": {"number": 64, "value": 127}, "group": "control_change"}, {"time": 1579, "annotation": {"number": 64, "value": 0}, "group": "control_change"}, {"time": 1605, "annotation": {"number": 64, "value": 127}, "group": "control_change"}, {"time": 1652, "annotation": {"number": 64, "value": 0}, "group": "control_change"}, {"time": 1656, "annotation": {"number": 64, "value": 127}, "group": "control_change"}, {"time": 1675, "annotation": {"number": 64, "value": 0}, "group": "control_change"}, {"time": 1682, "annotation": {"number": 64, "value": 127}, "group": "control_change"}, {"time": 1698, "annotation": {"number": 64, "value": 0}, "group": "control_change"}, {"time": 1701, "annotation": {"number": 64, "value": 127}, "group": "control_change"}, {"time": 1723, "annotation": {"number": 64, "value": 0}, "group": "control_change"}, {"time": 1726, "annotation": {"number": 64, "value": 127}, "group": "control_change"}, {"time": 1746, "annotation": {"number": 64, "value": 0}, "group": "control_change"}, {"time": 1749, "annotation": {"number": 64, "value": 127}, "group": "control_change"}, {"time": 1770, "annotation": {"number": 64, "value": 0}, "group": "control_change"}, {"time": 1775, "annotation": {"number": 64, "value": 127}, "group": "control_change"}, {"time": 1795, "annotation": {"number": 64, "value": 0}, "group": "control_change"}, {"time": 1799, "annotation": {"number": 64, "value": 127}, "group": "control_change"}, {"time": 1821, "annotation": {"number": 64, "value": 127}, "group": "control_change"}, {"time": 1831, "annotation": {"number": 64, "value": 0}, "group": "control_change"}, {"time": 1833, "annotation": {"number": 64, "value": 127}, "group": "control_change"}, {"time": 1844, "annotation": {"number": 64, "value": 0}, "group": "control_change"}, {"time": 1848, "annotation": {"number": 64, "value": 127}, "group": "control_change"}, {"time": 1868, "annotation": {"number": 64, "value": 0}, "group": "control_change"}, {"time": 1870, "annotation": {"number": 64, "value": 127}, "group": "control_change"}, {"time": 1892, "annotation": {"number": 64, "value": 0}, "group": "control_change"}, {"time": 1895, "annotation": {"number": 64, "value": 127}, "group": "control_change"}, {"time": 1918, "annotation": {"number": 64, "value": 0}, "group": "control_change"}, {"time": 1919, "annotation": {"number": 64, "value": 127}, "group": "control_change"}, {"time": 1931, "annotation": {"number": 64, "value": 0}, "group": "control_change"}, {"time": 1944, "annotation": {"number": 64, "value": 127}, "group": "control_change"}, {"time": 1963, "annotation": {"number": 64, "value": 0}, "group": "control_change"}, {"time": 1969, "annotation": {"number": 64, "value": 127}, "group": "control_change"}, {"time": 1987, "annotation": {"number": 64, "value": 0}, "group": "control_change"}, {"time": 1990, "annotation": {"number": 64, "value": 127}, "group": "control_change"}, {"time": 2011, "annotation": {"number": 64, "value": 0}, "group": "control_change"}, {"time": 2015, "annotation": {"number": 64, "value": 127}, "group": "control_change"}, {"time": 2032, "annotation": {"number": 64, "value": 0}, "group": "control_change"}, {"time": 2040, "annotation": {"number": 64, "value": 127}, "group": "control_change"}, {"time": 2059, "annotation": {"number": 64, "value": 0}, "group": "control_change"}, {"time": 2066, "annotation": {"number": 64, "value": 127}, "group": "control_change"}, {"time": 2082, "annotation": {"number": 64, "value": 0}, "group": "control_change"}, {"time": 2085, "annotation": {"number": 64, "value": 127}, "group": "control_change"}, {"time": 2107, "annotation": {"number": 64, "value": 0}, "group": "control_change"}, {"time": 2110, "annotation": {"number": 64, "value": 127}, "group": "control_change"}, {"time": 2130, "annotation": {"number": 64, "value": 0}, "group": "control_change"}, {"time": 2133, "annotation": {"number": 64, "value": 127}, "group": "control_change"}, {"time": 2154, "annotation": {"number": 64, "value": 0}, "group": "control_change"}, {"time": 2158, "annotation": {"number": 64, "value": 127}, "group": "control_change"}, {"time": 2177, "annotation": {"number": 64, "value": 0}, "group": "control_change"}, {"time": 2183, "annotation": {"number": 64, "value": 127}, "group": "control_change"}, {"time": 2201, "annotation": {"number": 64, "value": 0}, "group": "control_change"}, {"time": 2211, "annotation": {"number": 64, "value": 127}, "group": "control_change"}, {"time": 2226, "annotation": {"number": 64, "value": 0}, "group": "control_change"}, {"time": 2230, "annotation": {"number": 64, "value": 127}, "group": "control_change"}, {"time": 2250, "annotation": {"number": 64, "value": 0}, "group": "control_change"}, {"time": 2255, "annotation": {"number": 64, "value": 127}, "group": "control_change"}, {"time": 2274, "annotation": {"number": 64, "value": 0}, "group": "control_change"}, {"time": 2279, "annotation": {"number": 64, "value": 127}, "group": "control_change"}, {"time": 2299, "annotation": {"number": 64, "value": 0}, "group": "control_change"}, {"time": 2302, "annotation": {"number": 64, "value": 127}, "group": "control_change"}, {"time": 2323, "annotation": {"number": 64, "value": 0}, "group": "control_change"}, {"time": 2347, "annotation": {"number": 64, "value": 0}, "group": "control_change"}, {"time": 2352, "annotation": {"number": 64, "value": 127}, "group": "control_change"}, {"time": 2370, "annotation": {"number": 64, "value": 0}, "group": "control_change"}, {"time": 2374, "annotation": {"number": 64, "value": 127}, "group": "control_change"}, {"time": 2394, "annotation": {"number": 64, "value": 0}, "group": "control_change"}, {"time": 2396, "annotation": {"number": 64, "value": 127}, "group": "control_change"}, {"time": 2421, "annotation": {"number": 64, "value": 0}, "group": "control_change"}, {"time": 2425, "annotation": {"number": 64, "value": 127}, "group": "control_change"}, {"time": 2445, "annotation": {"number": 64, "value": 0}, "group": "control_change"}, {"time": 2450, "annotation": {"number": 64, "value": 127}, "group": "control_change"}, {"time": 2467, "annotation": {"number": 64, "value": 0}, "group": "control_change"}, {"time": 2469, "annotation": {"number": 64, "value": 127}, "group": "control_change"}, {"time": 2489, "annotation": {"number": 64, "value": 0}, "group": "control_change"}, {"time": 2493, "annotation": {"number": 64, "value": 127}, "group": "control_change"}, {"time": 2514, "annotation": {"number": 64, "value": 0}, "group": "control_change"}, {"time": 2520, "annotation": {"number": 64, "value": 127}, "group": "control_change"}, {"time": 2537, "annotation": {"number": 64, "value": 0}, "group": "control_change"}, {"time": 2552, "annotation": {"number": 64, "value": 127}, "group": "control_change"}, {"time": 2563, "annotation": {"number": 64, "value": 0}, "group": "control_change"}, {"time": 2564, "annotation": {"number": 64, "value": 127}, "group": "control_change"}, {"time": 2585, "annotation": {"number": 64, "value": 0}, "group": "control_change"}, {"time": 2599, "annotation": {"number": 64, "value": 127}, "group": "control_change"}, {"time": 2610, "annotation": {"number": 64, "value": 0}, "group": "control_change"}, {"time": 2614, "annotation": {"number": 64, "value": 127}, "group": "control_change"}, {"time": 2634, "annotation": {"number": 64, "value": 0}, "group": "control_change"}, {"time": 2639, "annotation": {"number": 64, "value": 127}, "group": "control_change"}, {"time": 2658, "annotation": {"number": 64, "value": 0}, "group": "control_change"}, {"time": 2662, "annotation": {"number": 64, "value": 127}, "group": "control_change"}, {"time": 2684, "annotation": {"number": 64, "value": 0}, "group": "control_change"}, {"time": 2689, "annotation": {"number": 64, "value": 127}, "group": "control_change"}, {"time": 2711, "annotation": {"number": 64, "value": 127}, "group": "control_change"}, {"time": 2731, "annotation": {"number": 64, "value": 0}, "group": "control_change"}, {"time": 2757, "annotation": {"number": 64, "value": 127}, "group": "control_change"}, {"time": 2804, "annotation": {"number": 64, "value": 0}, "group": "control_change"}, {"time": 2808, "annotation": {"number": 64, "value": 127}, "group": "control_change"}, {"time": 2827, "annotation": {"number": 64, "value": 0}, "group": "control_change"}, {"time": 2834, "annotation": {"number": 64, "value": 127}, "group": "control_change"}, {"time": 2850, "annotation": {"number": 64, "value": 0}, "group": "control_change"}, {"time": 2853, "annotation": {"number": 64, "value": 127}, "group": "control_change"}, {"time": 2875, "annotation": {"number": 64, "value": 0}, "group": "control_change"}, {"time": 2878, "annotation": {"number": 64, "value": 127}, "group": "control_change"}, {"time": 2898, "annotation": {"number": 64, "value": 0}, "group": "control_change"}, {"time": 2904, "annotation": {"number": 64, "value": 127}, "group": "control_change"}, {"time": 2924, "annotation": {"number": 64, "value": 0}, "group": "control_change"}, {"time": 2930, "annotation": {"number": 64, "value": 127}, "group": "control_change"}, {"time": 2949, "annotation": {"number": 64, "value": 0}, "group": "control_change"}, {"time": 2954, "annotation": {"number": 64, "value": 127}, "group": "control_change"}, {"time": 2973, "annotation": {"number": 64, "value": 0}, "group": "control_change"}, {"time": 2984, "annotation": {"number": 64, "value": 127}, "group": "control_change"}, {"time": 2995, "annotation": {"number": 64, "value": 0}, "group": "control_change"}, {"time": 2999, "annotation": {"number": 64, "value": 127}, "group": "control_change"}, {"time": 3018, "annotation": {"number": 64, "value": 0}, "group": "control_change"}, {"time": 3024, "annotation": {"number": 64, "value": 127}, "group": "control_change"}, {"time": 3040, "annotation": {"number": 64, "value": 0}, "group": "control_change"}, {"time": 3044, "annotation": {"number": 64, "value": 127}, "group": "control_change"}, {"time": 3067, "annotation": {"number": 64, "value": 0}, "group": "control_change"}, {"time": 3069, "annotation": {"number": 64, "value": 127}, "group": "control_change"}, {"time": 3090, "annotation": {"number": 64, "value": 0}, "group": "control_change"}, {"time": 3095, "annotation": {"number": 64, "value": 127}, "group": "control_change"}, {"time": 3115, "annotation": {"number": 64, "value": 0}, "group": "control_change"}, {"time": 3141, "annotation": {"number": 64, "value": 127}, "group": "control_change"}, {"time": 3188, "annotation": {"number": 64, "value": 0}, "group": "control_change"}, {"time": 3192, "annotation": {"number": 64, "value": 127}, "group": "control_change"}, {"time": 3211, "annotation": {"number": 64, "value": 0}, "group": "control_change"}, {"time": 3218, "annotation": {"number": 64, "value": 127}, "group": "control_change"}, {"time": 3234, "annotation": {"number": 64, "value": 0}, "group": "control_change"}, {"time": 3237, "annotation": {"number": 64, "value": 127}, "group": "control_change"}, {"time": 3259, "annotation": {"number": 64, "value": 0}, "group": "control_change"}, {"time": 3262, "annotation": {"number": 64, "value": 127}, "group": "control_change"}, {"time": 3282, "annotation": {"number": 64, "value": 0}, "group": "control_change"}, {"time": 3285, "annotation": {"number": 64, "value": 127}, "group": "control_change"}, {"time": 3306, "annotation": {"number": 64, "value": 0}, "group": "control_change"}, {"time": 3311, "annotation": {"number": 64, "value": 127}, "group": "control_change"}, {"time": 3331, "annotation": {"number": 64, "value": 0}, "group": "control_change"}, {"time": 3335, "annotation": {"number": 64, "value": 127}, "group": "control_change"}, {"time": 3357, "annotation": {"number": 64, "value": 127}, "group": "control_change"}, {"time": 3367, "annotation": {"number": 64, "value": 0}, "group": "control_change"}, {"time": 3369, "annotation": {"number": 64, "value": 127}, "group": "control_change"}, {"time": 3380, "annotation": {"number": 64, "value": 0}, "group": "control_change"}, {"time": 3384, "annotation": {"number": 64, "value": 127}, "group": "control_change"}, {"time": 3404, "annotation": {"number": 64, "value": 0}, "group": "control_change"}, {"time": 3406, "annotation": {"number": 64, "value": 127}, "group": "control_change"}, {"time": 3428, "annotation": {"number": 64, "value": 0}, "group": "control_change"}, {"time": 3431, "annotation": {"number": 64, "value": 127}, "group": "control_change"}, {"time": 3454, "annotation": {"number": 64, "value": 0}, "group": "control_change"}, {"time": 3455, "annotation": {"number": 64, "value": 127}, "group": "control_change"}, {"time": 3467, "annotation": {"number": 64, "value": 0}, "group": "control_change"}, {"time": 3479, "annotation": {"number": 64, "value": 127}, "group": "control_change"}, {"time": 3499, "annotation": {"number": 64, "value": 0}, "group": "control_change"}, {"time": 3525, "annotation": {"number": 64, "value": 127}, "group": "control_change"}, {"time": 3572, "annotation": {"number": 64, "value": 0}, "group": "control_change"}, {"time": 3576, "annotation": {"number": 64, "value": 127}, "group": "control_change"}, {"time": 3595, "annotation": {"number": 64, "value": 0}, "group": "control_change"}, {"time": 3602, "annotation": {"number": 64, "value": 127}, "group": "control_change"}, {"time": 3618, "annotation": {"number": 64, "value": 0}, "group": "control_change"}, {"time": 3621, "annotation": {"number": 64, "value": 127}, "group": "control_change"}, {"time": 3643, "annotation": {"number": 64, "value": 0}, "group": "control_change"}, {"time": 3646, "annotation": {"number": 64, "value": 127}, "group": "control_change"}, {"time": 3666, "annotation": {"number": 64, "value": 0}, "group": "control_change"}, {"time": 3669, "annotation": {"number": 64, "value": 127}, "group": "control_change"}, {"time": 3690, "annotation": {"number": 64, "value": 0}, "group": "control_change"}, {"time": 3695, "annotation": {"number": 64, "value": 127}, "group": "control_change"}, {"time": 3715, "annotation": {"number": 64, "value": 0}, "group": "control_change"}, {"time": 3719, "annotation": {"number": 64, "value": 127}, "group": "control_change"}, {"time": 3741, "annotation": {"number": 64, "value": 127}, "group": "control_change"}, {"time": 3751, "annotation": {"number": 64, "value": 0}, "group": "control_change"}, {"time": 3753, "annotation": {"number": 64, "value": 127}, "group": "control_change"}, {"time": 3764, "annotation": {"number": 64, "value": 0}, "group": "control_change"}, {"time": 3768, "annotation": {"number": 64, "value": 127}, "group": "control_change"}, {"time": 3788, "annotation": {"number": 64, "value": 0}, "group": "control_change"}, {"time": 3790, "annotation": {"number": 64, "value": 127}, "group": "control_change"}, {"time": 3812, "annotation": {"number": 64, "value": 0}, "group": "control_change"}, {"time": 3815, "annotation": {"number": 64, "value": 127}, "group": "control_change"}, {"time": 3838, "annotation": {"number": 64, "value": 0}, "group": "control_change"}, {"time": 3839, "annotation": {"number": 64, "value": 127}, "group": "control_change"}, {"time": 3851, "annotation": {"number": 64, "value": 0}, "group": "control_change"}, {"time": 3863, "annotation": {"number": 64, "value": 127}, "group": "control_change"}, {"time": 3883, "annotation": {"number": 64, "value": 0}, "group": "control_change"}, {"time": 3909, "annotation": {"number": 64, "value": 127}, "group": "control_change"}, {"time": 3956, "annotation": {"number": 64, "value": 0}, "group": "control_change"}, {"time": 3960, "annotation": {"number": 64, "value": 127}, "group": "control_change"}, {"time": 3979, "annotation": {"number": 64, "value": 0}, "group": "control_change"}, {"time": 3986, "annotation": {"number": 64, "value": 127}, "group": "control_change"}, {"time": 4002, "annotation": {"number": 64, "value": 0}, "group": "control_change"}, {"time": 4005, "annotation": {"number": 64, "value": 127}, "group": "control_change"}, {"time": 4027, "annotation": {"number": 64, "value": 0}, "group": "control_change"}, {"time": 4030, "annotation": {"number": 64, "value": 127}, "group": "control_change"}, {"time": 4050, "annotation": {"number": 64, "value": 0}, "group": "control_change"}, {"time": 4053, "annotation": {"number": 64, "value": 127}, "group": "control_change"}, {"time": 4074, "annotation": {"number": 64, "value": 0}, "group": "control_change"}, {"time": 4079, "annotation": {"number": 64, "value": 127}, "group": "control_change"}, {"time": 4099, "annotation": {"number": 64, "value": 0}, "group": "control_change"}, {"time": 4103, "annotation": {"number": 64, "value": 127}, "group": "control_change"}, {"time": 4125, "annotation": {"number": 64, "value": 127}, "group": "control_change"}, {"time": 4135, "annotation": {"number": 64, "value": 0}, "group": "control_change"}, {"time": 4137, "annotation": {"number": 64, "value": 127}, "group": "control_change"}, {"time": 4148, "annotation": {"number": 64, "value": 0}, "group": "control_change"}, {"time": 4152, "annotation": {"number": 64, "value": 127}, "group": "control_change"}, {"time": 4172, "annotation": {"number": 64, "value": 0}, "group": "control_change"}, {"time": 4174, "annotation": {"number": 64, "value": 127}, "group": "control_change"}, {"time": 4196, "annotation": {"number": 64, "value": 0}, "group": "control_change"}, {"time": 4199, "annotation": {"number": 64, "value": 127}, "group": "control_change"}, {"time": 4221, "annotation": {"number": 64, "value": 127}, "group": "control_change"}]}]}