{"metadata": {"schema_version": "0.2", "title": "None", "source_filename": "407.mid", "source_format": "midi"}, "resolution": 12, "tempos": [{"time": 0, "qpm": 60.0}, {"time": 1032, "qpm": 60.49997176667984}, {"time": 1068, "qpm": 60.0}], "key_signatures": [{"time": 0, "root": 0, "mode": "major"}], "time_signatures": [{"time": 0, "numerator": 4, "denominator": 4}, {"time": 0, "numerator": 1, "denominator": 4}], "tracks": [{"program": 0, "is_drum": false, "name": "MELODY", "notes": [{"time": 204, "pitch": 65, "duration": 6, "velocity": 91}, {"time": 211, "pitch": 67, "duration": 4, "velocity": 85}, {"time": 217, "pitch": 69, "duration": 10, "velocity": 90}, {"time": 229, "pitch": 69, "duration": 4, "velocity": 90}, {"time": 234, "pitch": 70, "duration": 5, "velocity": 90}, {"time": 240, "pitch": 72, "duration": 12, "velocity": 91}, {"time": 262, "pitch": 60, "duration": 2, "velocity": 91}, {"time": 265, "pitch": 74, "duration": 4, "velocity": 100}, {"time": 271, "pitch": 74, "duration": 4, "velocity": 95}, {"time": 277, "pitch": 74, "duration": 3, "velocity": 93}, {"time": 281, "pitch": 72, "duration": 3, "velocity": 89}, {"time": 285, "pitch": 70, "duration": 3, "velocity": 88}, {"time": 289, "pitch": 72, "duration": 8, "velocity": 85}, {"time": 310, "pitch": 62, "duration": 2, "velocity": 91}, {"time": 313, "pitch": 74, "duration": 3, "velocity": 96}, {"time": 319, "pitch": 74, "duration": 1, "velocity": 91}, {"time": 322, "pitch": 74, "duration": 5, "velocity": 92}, {"time": 333, "pitch": 69, "duration": 2, "velocity": 89}, {"time": 336, "pitch": 72, "duration": 5, "velocity": 91}, {"time": 343, "pitch": 69, "duration": 1, "velocity": 84}, {"time": 346, "pitch": 69, "duration": 6, "velocity": 89}, {"time": 358, "pitch": 60, "duration": 1, "velocity": 91}, {"time": 361, "pitch": 70, "duration": 4, "velocity": 90}, {"time": 366, "pitch": 69, "duration": 4, "velocity": 91}, {"time": 372, "pitch": 65, "duration": 4, "velocity": 91}, {"time": 378, "pitch": 62, "duration": 2, "velocity": 89}, {"time": 381, "pitch": 67, "duration": 12, "velocity": 85}, {"time": 403, "pitch": 65, "duration": 2, "velocity": 91}, {"time": 406, "pitch": 67, "duration": 1, "velocity": 84}, {"time": 409, "pitch": 69, "duration": 4, "velocity": 91}, {"time": 415, "pitch": 69, "duration": 3, "velocity": 89}, {"time": 421, "pitch": 69, "duration": 4, "velocity": 92}, {"time": 427, "pitch": 70, "duration": 1, "velocity": 91}, {"time": 430, "pitch": 72, "duration": 13, "velocity": 91}, {"time": 454, "pitch": 65, "duration": 1, "velocity": 91}, {"time": 457, "pitch": 74, "duration": 3, "velocity": 92}, {"time": 463, "pitch": 74, "duration": 3, "velocity": 93}, {"time": 468, "pitch": 74, "duration": 5, "velocity": 93}, {"time": 474, "pitch": 72, "duration": 2, "velocity": 90}, {"time": 477, "pitch": 70, "duration": 2, "velocity": 90}, {"time": 480, "pitch": 72, "duration": 12, "velocity": 88}, {"time": 502, "pitch": 65, "duration": 1, "velocity": 90}, {"time": 505, "pitch": 74, "duration": 4, "velocity": 94}, {"time": 510, "pitch": 72, "duration": 2, "velocity": 87}, {"time": 514, "pitch": 74, "duration": 8, "velocity": 91}, {"time": 525, "pitch": 74, "duration": 2, "velocity": 95}, {"time": 529, "pitch": 72, "duration": 3, "velocity": 91}, {"time": 535, "pitch": 69, "duration": 1, "velocity": 89}, {"time": 538, "pitch": 77, "duration": 8, "velocity": 89}, {"time": 550, "pitch": 72, "duration": 2, "velocity": 84}, {"time": 553, "pitch": 74, "duration": 4, "velocity": 96}, {"time": 558, "pitch": 77, "duration": 2, "velocity": 89}, {"time": 561, "pitch": 77, "duration": 2, "velocity": 90}, {"time": 564, "pitch": 77, "duration": 2, "velocity": 91}, {"time": 567, "pitch": 79, "duration": 7, "velocity": 89}, {"time": 576, "pitch": 79, "duration": 26, "velocity": 89}, {"time": 631, "pitch": 72, "duration": 4, "velocity": 94}, {"time": 637, "pitch": 77, "duration": 5, "velocity": 94}, {"time": 643, "pitch": 79, "duration": 4, "velocity": 90}, {"time": 649, "pitch": 81, "duration": 10, "velocity": 90}, {"time": 661, "pitch": 79, "duration": 5, "velocity": 90}, {"time": 667, "pitch": 77, "duration": 2, "velocity": 87}, {"time": 670, "pitch": 79, "duration": 16, "velocity": 90}, {"time": 691, "pitch": 77, "duration": 2, "velocity": 91}, {"time": 694, "pitch": 76, "duration": 2, "velocity": 90}, {"time": 697, "pitch": 77, "duration": 4, "velocity": 90}, {"time": 703, "pitch": 76, "duration": 4, "velocity": 91}, {"time": 709, "pitch": 74, "duration": 2, "velocity": 94}, {"time": 712, "pitch": 76, "duration": 5, "velocity": 91}, {"time": 718, "pitch": 69, "duration": 12, "velocity": 91}, {"time": 742, "pitch": 72, "duration": 2, "velocity": 90}, {"time": 745, "pitch": 74, "duration": 5, "velocity": 93}, {"time": 751, "pitch": 72, "duration": 2, "velocity": 92}, {"time": 754, "pitch": 74, "duration": 8, "velocity": 93}, {"time": 766, "pitch": 74, "duration": 2, "velocity": 95}, {"time": 769, "pitch": 72, "duration": 3, "velocity": 91}, {"time": 775, "pitch": 69, "duration": 2, "velocity": 90}, {"time": 778, "pitch": 77, "duration": 9, "velocity": 90}, {"time": 790, "pitch": 72, "duration": 2, "velocity": 91}, {"time": 793, "pitch": 74, "duration": 5, "velocity": 96}, {"time": 799, "pitch": 77, "duration": 4, "velocity": 94}, {"time": 805, "pitch": 77, "duration": 2, "velocity": 94}, {"time": 808, "pitch": 79, "duration": 7, "velocity": 91}, {"time": 817, "pitch": 79, "duration": 6, "velocity": 91}, {"time": 823, "pitch": 72, "duration": 4, "velocity": 93}, {"time": 829, "pitch": 77, "duration": 4, "velocity": 94}, {"time": 835, "pitch": 79, "duration": 4, "velocity": 90}, {"time": 841, "pitch": 81, "duration": 9, "velocity": 87}, {"time": 853, "pitch": 79, "duration": 5, "velocity": 90}, {"time": 859, "pitch": 77, "duration": 2, "velocity": 89}, {"time": 862, "pitch": 79, "duration": 14, "velocity": 90}, {"time": 883, "pitch": 77, "duration": 2, "velocity": 90}, {"time": 886, "pitch": 76, "duration": 2, "velocity": 96}, {"time": 889, "pitch": 77, "duration": 5, "velocity": 90}, {"time": 895, "pitch": 76, "duration": 4, "velocity": 93}, {"time": 901, "pitch": 74, "duration": 2, "velocity": 90}, {"time": 904, "pitch": 76, "duration": 5, "velocity": 95}, {"time": 910, "pitch": 69, "duration": 14, "velocity": 90}, {"time": 931, "pitch": 72, "duration": 2, "velocity": 91}, {"time": 934, "pitch": 72, "duration": 2, "velocity": 89}, {"time": 937, "pitch": 74, "duration": 4, "velocity": 100}, {"time": 943, "pitch": 72, "duration": 2, "velocity": 93}, {"time": 946, "pitch": 74, "duration": 8, "velocity": 96}, {"time": 958, "pitch": 74, "duration": 2, "velocity": 91}, {"time": 961, "pitch": 72, "duration": 4, "velocity": 91}, {"time": 967, "pitch": 69, "duration": 2, "velocity": 91}, {"time": 970, "pitch": 77, "duration": 8, "velocity": 90}, {"time": 982, "pitch": 72, "duration": 2, "velocity": 89}, {"time": 985, "pitch": 82, "duration": 4, "velocity": 87}, {"time": 991, "pitch": 81, "duration": 4, "velocity": 90}, {"time": 997, "pitch": 77, "duration": 5, "velocity": 89}, {"time": 1003, "pitch": 76, "duration": 2, "velocity": 91}, {"time": 1006, "pitch": 77, "duration": 47, "velocity": 91}, {"time": 1236, "pitch": 65, "duration": 6, "velocity": 91}, {"time": 1243, "pitch": 67, "duration": 4, "velocity": 85}, {"time": 1249, "pitch": 69, "duration": 10, "velocity": 90}, {"time": 1261, "pitch": 69, "duration": 4, "velocity": 90}, {"time": 1266, "pitch": 70, "duration": 5, "velocity": 90}, {"time": 1272, "pitch": 72, "duration": 12, "velocity": 91}, {"time": 1294, "pitch": 60, "duration": 2, "velocity": 91}, {"time": 1297, "pitch": 74, "duration": 4, "velocity": 100}, {"time": 1303, "pitch": 74, "duration": 4, "velocity": 95}, {"time": 1309, "pitch": 74, "duration": 3, "velocity": 93}, {"time": 1313, "pitch": 72, "duration": 3, "velocity": 89}, {"time": 1317, "pitch": 70, "duration": 3, "velocity": 88}, {"time": 1321, "pitch": 72, "duration": 8, "velocity": 85}, {"time": 1342, "pitch": 62, "duration": 2, "velocity": 91}, {"time": 1345, "pitch": 74, "duration": 3, "velocity": 96}, {"time": 1351, "pitch": 74, "duration": 1, "velocity": 91}, {"time": 1354, "pitch": 74, "duration": 5, "velocity": 92}, {"time": 1365, "pitch": 69, "duration": 2, "velocity": 89}, {"time": 1368, "pitch": 72, "duration": 5, "velocity": 91}, {"time": 1375, "pitch": 69, "duration": 1, "velocity": 84}, {"time": 1378, "pitch": 69, "duration": 6, "velocity": 89}, {"time": 1390, "pitch": 60, "duration": 1, "velocity": 91}, {"time": 1393, "pitch": 70, "duration": 4, "velocity": 90}, {"time": 1398, "pitch": 69, "duration": 4, "velocity": 91}, {"time": 1404, "pitch": 65, "duration": 4, "velocity": 91}, {"time": 1410, "pitch": 62, "duration": 2, "velocity": 89}, {"time": 1413, "pitch": 67, "duration": 12, "velocity": 85}, {"time": 1435, "pitch": 65, "duration": 2, "velocity": 91}, {"time": 1438, "pitch": 67, "duration": 1, "velocity": 84}, {"time": 1441, "pitch": 69, "duration": 4, "velocity": 91}, {"time": 1447, "pitch": 69, "duration": 3, "velocity": 89}, {"time": 1453, "pitch": 69, "duration": 4, "velocity": 92}, {"time": 1459, "pitch": 70, "duration": 1, "velocity": 91}, {"time": 1462, "pitch": 72, "duration": 13, "velocity": 91}, {"time": 1486, "pitch": 65, "duration": 1, "velocity": 91}, {"time": 1489, "pitch": 74, "duration": 3, "velocity": 92}, {"time": 1495, "pitch": 74, "duration": 3, "velocity": 93}, {"time": 1500, "pitch": 74, "duration": 5, "velocity": 93}, {"time": 1506, "pitch": 72, "duration": 2, "velocity": 90}, {"time": 1509, "pitch": 70, "duration": 2, "velocity": 90}, {"time": 1512, "pitch": 72, "duration": 12, "velocity": 88}, {"time": 1534, "pitch": 65, "duration": 1, "velocity": 90}, {"time": 1537, "pitch": 74, "duration": 4, "velocity": 94}, {"time": 1542, "pitch": 72, "duration": 2, "velocity": 87}, {"time": 1546, "pitch": 74, "duration": 8, "velocity": 91}, {"time": 1557, "pitch": 74, "duration": 2, "velocity": 95}, {"time": 1561, "pitch": 72, "duration": 3, "velocity": 91}, {"time": 1567, "pitch": 69, "duration": 1, "velocity": 89}, {"time": 1570, "pitch": 77, "duration": 8, "velocity": 89}, {"time": 1582, "pitch": 72, "duration": 2, "velocity": 84}, {"time": 1585, "pitch": 74, "duration": 4, "velocity": 96}, {"time": 1590, "pitch": 77, "duration": 2, "velocity": 89}, {"time": 1593, "pitch": 77, "duration": 2, "velocity": 90}, {"time": 1596, "pitch": 77, "duration": 2, "velocity": 91}, {"time": 1599, "pitch": 79, "duration": 7, "velocity": 89}, {"time": 1608, "pitch": 79, "duration": 26, "velocity": 89}, {"time": 1663, "pitch": 72, "duration": 4, "velocity": 94}, {"time": 1669, "pitch": 77, "duration": 5, "velocity": 94}, {"time": 1675, "pitch": 79, "duration": 4, "velocity": 90}, {"time": 1681, "pitch": 81, "duration": 10, "velocity": 90}, {"time": 1693, "pitch": 79, "duration": 5, "velocity": 90}, {"time": 1699, "pitch": 77, "duration": 2, "velocity": 87}, {"time": 1702, "pitch": 79, "duration": 16, "velocity": 90}, {"time": 1723, "pitch": 77, "duration": 2, "velocity": 91}, {"time": 1726, "pitch": 76, "duration": 2, "velocity": 90}, {"time": 1729, "pitch": 77, "duration": 4, "velocity": 90}, {"time": 1735, "pitch": 76, "duration": 4, "velocity": 91}, {"time": 1741, "pitch": 74, "duration": 2, "velocity": 94}, {"time": 1744, "pitch": 76, "duration": 5, "velocity": 91}, {"time": 1750, "pitch": 69, "duration": 12, "velocity": 91}, {"time": 1774, "pitch": 72, "duration": 2, "velocity": 90}, {"time": 1777, "pitch": 74, "duration": 5, "velocity": 93}, {"time": 1783, "pitch": 72, "duration": 2, "velocity": 92}, {"time": 1786, "pitch": 74, "duration": 8, "velocity": 93}, {"time": 1798, "pitch": 74, "duration": 2, "velocity": 95}, {"time": 1801, "pitch": 72, "duration": 3, "velocity": 91}, {"time": 1807, "pitch": 69, "duration": 2, "velocity": 90}, {"time": 1810, "pitch": 77, "duration": 9, "velocity": 90}, {"time": 1822, "pitch": 72, "duration": 2, "velocity": 91}, {"time": 1825, "pitch": 74, "duration": 5, "velocity": 96}, {"time": 1831, "pitch": 77, "duration": 4, "velocity": 94}, {"time": 1837, "pitch": 77, "duration": 2, "velocity": 94}, {"time": 1840, "pitch": 79, "duration": 7, "velocity": 91}, {"time": 1849, "pitch": 79, "duration": 6, "velocity": 91}, {"time": 1855, "pitch": 72, "duration": 4, "velocity": 93}, {"time": 1861, "pitch": 77, "duration": 4, "velocity": 94}, {"time": 1867, "pitch": 79, "duration": 4, "velocity": 90}, {"time": 1873, "pitch": 81, "duration": 9, "velocity": 87}, {"time": 1885, "pitch": 79, "duration": 5, "velocity": 90}, {"time": 1891, "pitch": 77, "duration": 2, "velocity": 89}, {"time": 1894, "pitch": 79, "duration": 14, "velocity": 90}, {"time": 1915, "pitch": 77, "duration": 2, "velocity": 90}, {"time": 1918, "pitch": 76, "duration": 2, "velocity": 96}, {"time": 1921, "pitch": 77, "duration": 5, "velocity": 90}, {"time": 1927, "pitch": 76, "duration": 4, "velocity": 93}, {"time": 1933, "pitch": 74, "duration": 2, "velocity": 90}, {"time": 1936, "pitch": 76, "duration": 5, "velocity": 95}, {"time": 1942, "pitch": 69, "duration": 14, "velocity": 90}, {"time": 1963, "pitch": 72, "duration": 2, "velocity": 91}, {"time": 1966, "pitch": 72, "duration": 2, "velocity": 89}, {"time": 1969, "pitch": 74, "duration": 4, "velocity": 100}, {"time": 1975, "pitch": 72, "duration": 2, "velocity": 93}, {"time": 1978, "pitch": 74, "duration": 8, "velocity": 96}, {"time": 1990, "pitch": 74, "duration": 2, "velocity": 91}, {"time": 1993, "pitch": 72, "duration": 4, "velocity": 91}, {"time": 1999, "pitch": 69, "duration": 2, "velocity": 91}, {"time": 2002, "pitch": 77, "duration": 8, "velocity": 90}, {"time": 2014, "pitch": 72, "duration": 2, "velocity": 89}, {"time": 2017, "pitch": 82, "duration": 4, "velocity": 87}, {"time": 2023, "pitch": 81, "duration": 4, "velocity": 90}, {"time": 2029, "pitch": 77, "duration": 5, "velocity": 89}, {"time": 2035, "pitch": 76, "duration": 2, "velocity": 91}, {"time": 2038, "pitch": 77, "duration": 47, "velocity": 91}, {"time": 2095, "pitch": 74, "duration": 1, "velocity": 85}, {"time": 2098, "pitch": 74, "duration": 2, "velocity": 98}, {"time": 2101, "pitch": 74, "duration": 2, "velocity": 91}, {"time": 2104, "pitch": 74, "duration": 2, "velocity": 93}, {"time": 2107, "pitch": 74, "duration": 1, "velocity": 90}, {"time": 2110, "pitch": 74, "duration": 2, "velocity": 93}, {"time": 2113, "pitch": 76, "duration": 4, "velocity": 91}, {"time": 2119, "pitch": 74, "duration": 2, "velocity": 91}, {"time": 2122, "pitch": 76, "duration": 8, "velocity": 90}, {"time": 2143, "pitch": 76, "duration": 2, "velocity": 91}, {"time": 2146, "pitch": 76, "duration": 2, "velocity": 90}, {"time": 2149, "pitch": 76, "duration": 2, "velocity": 93}, {"time": 2152, "pitch": 76, "duration": 2, "velocity": 90}, {"time": 2155, "pitch": 76, "duration": 2, "velocity": 92}, {"time": 2158, "pitch": 69, "duration": 2, "velocity": 95}, {"time": 2161, "pitch": 79, "duration": 2, "velocity": 95}, {"time": 2164, "pitch": 77, "duration": 2, "velocity": 91}, {"time": 2167, "pitch": 76, "duration": 2, "velocity": 93}, {"time": 2170, "pitch": 77, "duration": 13, "velocity": 90}, {"time": 2191, "pitch": 74, "duration": 2, "velocity": 93}, {"time": 2194, "pitch": 74, "duration": 1, "velocity": 93}, {"time": 2197, "pitch": 74, "duration": 2, "velocity": 90}, {"time": 2200, "pitch": 74, "duration": 1, "velocity": 89}, {"time": 2203, "pitch": 74, "duration": 1, "velocity": 91}, {"time": 2206, "pitch": 74, "duration": 2, "velocity": 91}, {"time": 2209, "pitch": 76, "duration": 2, "velocity": 91}, {"time": 2212, "pitch": 76, "duration": 2, "velocity": 90}, {"time": 2215, "pitch": 74, "duration": 2, "velocity": 85}, {"time": 2218, "pitch": 76, "duration": 7, "velocity": 91}, {"time": 2227, "pitch": 74, "duration": 2, "velocity": 100}, {"time": 2230, "pitch": 76, "duration": 2, "velocity": 93}, {"time": 2233, "pitch": 77, "duration": 2, "velocity": 90}, {"time": 2236, "pitch": 77, "duration": 2, "velocity": 88}, {"time": 2239, "pitch": 77, "duration": 2, "velocity": 89}, {"time": 2242, "pitch": 77, "duration": 1, "velocity": 87}, {"time": 2245, "pitch": 77, "duration": 2, "velocity": 90}, {"time": 2248, "pitch": 77, "duration": 5, "velocity": 90}, {"time": 2254, "pitch": 79, "duration": 2, "velocity": 91}, {"time": 2257, "pitch": 79, "duration": 49, "velocity": 90}, {"time": 2311, "pitch": 72, "duration": 4, "velocity": 94}, {"time": 2317, "pitch": 77, "duration": 5, "velocity": 94}, {"time": 2323, "pitch": 79, "duration": 4, "velocity": 90}, {"time": 2329, "pitch": 81, "duration": 10, "velocity": 90}, {"time": 2341, "pitch": 79, "duration": 5, "velocity": 90}, {"time": 2347, "pitch": 77, "duration": 2, "velocity": 87}, {"time": 2350, "pitch": 79, "duration": 16, "velocity": 90}, {"time": 2371, "pitch": 77, "duration": 2, "velocity": 91}, {"time": 2374, "pitch": 76, "duration": 2, "velocity": 90}, {"time": 2377, "pitch": 77, "duration": 4, "velocity": 90}, {"time": 2383, "pitch": 76, "duration": 4, "velocity": 91}, {"time": 2389, "pitch": 74, "duration": 2, "velocity": 94}, {"time": 2392, "pitch": 76, "duration": 5, "velocity": 91}, {"time": 2398, "pitch": 69, "duration": 12, "velocity": 91}, {"time": 2422, "pitch": 72, "duration": 2, "velocity": 90}, {"time": 2425, "pitch": 74, "duration": 5, "velocity": 93}, {"time": 2431, "pitch": 72, "duration": 2, "velocity": 92}, {"time": 2434, "pitch": 74, "duration": 8, "velocity": 93}, {"time": 2446, "pitch": 74, "duration": 2, "velocity": 95}, {"time": 2449, "pitch": 72, "duration": 3, "velocity": 91}, {"time": 2455, "pitch": 69, "duration": 2, "velocity": 90}, {"time": 2458, "pitch": 77, "duration": 9, "velocity": 90}, {"time": 2470, "pitch": 72, "duration": 2, "velocity": 91}, {"time": 2473, "pitch": 74, "duration": 5, "velocity": 96}, {"time": 2479, "pitch": 77, "duration": 4, "velocity": 94}, {"time": 2485, "pitch": 77, "duration": 2, "velocity": 94}, {"time": 2488, "pitch": 79, "duration": 7, "velocity": 91}, {"time": 2497, "pitch": 79, "duration": 6, "velocity": 91}, {"time": 2503, "pitch": 72, "duration": 4, "velocity": 93}, {"time": 2509, "pitch": 77, "duration": 4, "velocity": 94}, {"time": 2515, "pitch": 79, "duration": 4, "velocity": 90}, {"time": 2521, "pitch": 81, "duration": 9, "velocity": 87}, {"time": 2533, "pitch": 79, "duration": 5, "velocity": 90}, {"time": 2539, "pitch": 77, "duration": 2, "velocity": 89}, {"time": 2542, "pitch": 79, "duration": 14, "velocity": 90}, {"time": 2563, "pitch": 77, "duration": 2, "velocity": 90}, {"time": 2566, "pitch": 76, "duration": 2, "velocity": 96}, {"time": 2569, "pitch": 77, "duration": 5, "velocity": 90}, {"time": 2575, "pitch": 76, "duration": 4, "velocity": 93}, {"time": 2581, "pitch": 74, "duration": 2, "velocity": 90}, {"time": 2584, "pitch": 76, "duration": 5, "velocity": 95}, {"time": 2590, "pitch": 69, "duration": 14, "velocity": 90}, {"time": 2611, "pitch": 72, "duration": 2, "velocity": 91}, {"time": 2614, "pitch": 72, "duration": 2, "velocity": 89}, {"time": 2617, "pitch": 74, "duration": 4, "velocity": 100}, {"time": 2623, "pitch": 72, "duration": 2, "velocity": 93}, {"time": 2626, "pitch": 74, "duration": 8, "velocity": 96}, {"time": 2638, "pitch": 74, "duration": 2, "velocity": 91}, {"time": 2641, "pitch": 72, "duration": 4, "velocity": 91}, {"time": 2647, "pitch": 69, "duration": 2, "velocity": 91}, {"time": 2650, "pitch": 77, "duration": 8, "velocity": 90}, {"time": 2662, "pitch": 72, "duration": 2, "velocity": 89}, {"time": 2665, "pitch": 82, "duration": 4, "velocity": 87}, {"time": 2671, "pitch": 81, "duration": 4, "velocity": 90}, {"time": 2677, "pitch": 77, "duration": 5, "velocity": 89}, {"time": 2683, "pitch": 76, "duration": 2, "velocity": 91}, {"time": 2686, "pitch": 77, "duration": 47, "velocity": 91}]}, {"program": 0, "is_drum": false, "name": "BRIDGE", "notes": [{"time": 13, "pitch": 77, "duration": 6, "velocity": 96}, {"time": 19, "pitch": 79, "duration": 4, "velocity": 96}, {"time": 25, "pitch": 81, "duration": 10, "velocity": 93}, {"time": 37, "pitch": 81, "duration": 5, "velocity": 94}, {"time": 43, "pitch": 82, "duration": 2, "velocity": 91}, {"time": 46, "pitch": 81, "duration": 2, "velocity": 92}, {"time": 49, "pitch": 79, "duration": 12, "velocity": 98}, {"time": 67, "pitch": 77, "duration": 2, "velocity": 91}, {"time": 70, "pitch": 76, "duration": 3, "velocity": 96}, {"time": 73, "pitch": 77, "duration": 18, "velocity": 96}, {"time": 97, "pitch": 77, "duration": 2, "velocity": 100}, {"time": 100, "pitch": 72, "duration": 2, "velocity": 93}, {"time": 103, "pitch": 74, "duration": 2, "velocity": 100}, {"time": 106, "pitch": 74, "duration": 1, "velocity": 65}, {"time": 106, "pitch": 76, "duration": 2, "velocity": 96}, {"time": 109, "pitch": 79, "duration": 2, "velocity": 91}, {"time": 112, "pitch": 77, "duration": 5, "velocity": 93}, {"time": 118, "pitch": 76, "duration": 2, "velocity": 96}, {"time": 121, "pitch": 77, "duration": 6, "velocity": 96}, {"time": 133, "pitch": 81, "duration": 8, "velocity": 92}, {"time": 142, "pitch": 81, "duration": 11, "velocity": 91}, {"time": 157, "pitch": 88, "duration": 4, "velocity": 103}, {"time": 163, "pitch": 81, "duration": 5, "velocity": 94}, {"time": 169, "pitch": 77, "duration": 13, "velocity": 94}, {"time": 187, "pitch": 81, "duration": 2, "velocity": 93}, {"time": 190, "pitch": 84, "duration": 2, "velocity": 100}, {"time": 193, "pitch": 89, "duration": 19, "velocity": 95}, {"time": 388, "pitch": 67, "duration": 4, "velocity": 82}, {"time": 391, "pitch": 72, "duration": 4, "velocity": 91}, {"time": 394, "pitch": 77, "duration": 1, "velocity": 78}, {"time": 394, "pitch": 77, "duration": 1, "velocity": 80}, {"time": 397, "pitch": 79, "duration": 4, "velocity": 90}, {"time": 400, "pitch": 76, "duration": 3, "velocity": 78}, {"time": 403, "pitch": 72, "duration": 6, "velocity": 96}, {"time": 436, "pitch": 67, "duration": 4, "velocity": 78}, {"time": 439, "pitch": 72, "duration": 3, "velocity": 84}, {"time": 439, "pitch": 76, "duration": 4, "velocity": 85}, {"time": 445, "pitch": 79, "duration": 7, "velocity": 84}, {"time": 451, "pitch": 76, "duration": 5, "velocity": 86}, {"time": 457, "pitch": 77, "duration": 18, "velocity": 80}, {"time": 493, "pitch": 77, "duration": 3, "velocity": 82}, {"time": 496, "pitch": 76, "duration": 3, "velocity": 78}, {"time": 499, "pitch": 72, "duration": 5, "velocity": 83}, {"time": 505, "pitch": 74, "duration": 22, "velocity": 89}, {"time": 529, "pitch": 72, "duration": 12, "velocity": 86}, {"time": 583, "pitch": 72, "duration": 7, "velocity": 84}, {"time": 589, "pitch": 77, "duration": 6, "velocity": 92}, {"time": 595, "pitch": 79, "duration": 4, "velocity": 93}, {"time": 601, "pitch": 84, "duration": 19, "velocity": 96}, {"time": 622, "pitch": 77, "duration": 3, "velocity": 80}, {"time": 623, "pitch": 79, "duration": 2, "velocity": 87}, {"time": 625, "pitch": 84, "duration": 20, "velocity": 94}, {"time": 649, "pitch": 77, "duration": 9, "velocity": 84}, {"time": 655, "pitch": 72, "duration": 8, "velocity": 77}, {"time": 661, "pitch": 77, "duration": 7, "velocity": 83}, {"time": 667, "pitch": 72, "duration": 7, "velocity": 79}, {"time": 673, "pitch": 76, "duration": 7, "velocity": 84}, {"time": 679, "pitch": 72, "duration": 7, "velocity": 80}, {"time": 685, "pitch": 76, "duration": 11, "velocity": 89}, {"time": 697, "pitch": 77, "duration": 7, "velocity": 84}, {"time": 703, "pitch": 74, "duration": 11, "velocity": 83}, {"time": 709, "pitch": 77, "duration": 7, "velocity": 81}, {"time": 715, "pitch": 74, "duration": 6, "velocity": 88}, {"time": 721, "pitch": 76, "duration": 10, "velocity": 90}, {"time": 727, "pitch": 69, "duration": 16, "velocity": 82}, {"time": 733, "pitch": 72, "duration": 9, "velocity": 85}, {"time": 745, "pitch": 74, "duration": 8, "velocity": 90}, {"time": 751, "pitch": 65, "duration": 15, "velocity": 86}, {"time": 757, "pitch": 74, "duration": 13, "velocity": 90}, {"time": 769, "pitch": 72, "duration": 7, "velocity": 85}, {"time": 775, "pitch": 69, "duration": 9, "velocity": 80}, {"time": 781, "pitch": 77, "duration": 14, "velocity": 88}, {"time": 793, "pitch": 74, "duration": 7, "velocity": 89}, {"time": 799, "pitch": 70, "duration": 7, "velocity": 80}, {"time": 805, "pitch": 74, "duration": 13, "velocity": 90}, {"time": 811, "pitch": 70, "duration": 6, "velocity": 77}, {"time": 817, "pitch": 72, "duration": 7, "velocity": 86}, {"time": 823, "pitch": 67, "duration": 5, "velocity": 79}, {"time": 829, "pitch": 67, "duration": 7, "velocity": 81}, {"time": 829, "pitch": 72, "duration": 7, "velocity": 83}, {"time": 835, "pitch": 70, "duration": 4, "velocity": 87}, {"time": 841, "pitch": 65, "duration": 4, "velocity": 80}, {"time": 841, "pitch": 69, "duration": 7, "velocity": 83}, {"time": 847, "pitch": 65, "duration": 16, "velocity": 82}, {"time": 853, "pitch": 72, "duration": 7, "velocity": 83}, {"time": 859, "pitch": 69, "duration": 7, "velocity": 82}, {"time": 865, "pitch": 72, "duration": 7, "velocity": 85}, {"time": 871, "pitch": 67, "duration": 7, "velocity": 80}, {"time": 877, "pitch": 72, "duration": 10, "velocity": 89}, {"time": 889, "pitch": 74, "duration": 6, "velocity": 88}, {"time": 895, "pitch": 69, "duration": 7, "velocity": 83}, {"time": 901, "pitch": 74, "duration": 11, "velocity": 90}, {"time": 907, "pitch": 69, "duration": 6, "velocity": 75}, {"time": 913, "pitch": 76, "duration": 12, "velocity": 89}, {"time": 919, "pitch": 69, "duration": 7, "velocity": 78}, {"time": 925, "pitch": 72, "duration": 7, "velocity": 84}, {"time": 931, "pitch": 69, "duration": 7, "velocity": 78}, {"time": 937, "pitch": 74, "duration": 8, "velocity": 89}, {"time": 943, "pitch": 65, "duration": 14, "velocity": 79}, {"time": 949, "pitch": 70, "duration": 8, "velocity": 73}, {"time": 949, "pitch": 74, "duration": 13, "velocity": 85}, {"time": 961, "pitch": 72, "duration": 6, "velocity": 83}, {"time": 967, "pitch": 69, "duration": 7, "velocity": 80}, {"time": 973, "pitch": 77, "duration": 13, "velocity": 85}, {"time": 979, "pitch": 72, "duration": 4, "velocity": 80}, {"time": 985, "pitch": 70, "duration": 6, "velocity": 82}, {"time": 991, "pitch": 67, "duration": 4, "velocity": 84}, {"time": 997, "pitch": 67, "duration": 6, "velocity": 86}, {"time": 997, "pitch": 72, "duration": 6, "velocity": 88}, {"time": 1003, "pitch": 70, "duration": 5, "velocity": 81}, {"time": 1009, "pitch": 69, "duration": 9, "velocity": 76}, {"time": 1015, "pitch": 65, "duration": 12, "velocity": 82}, {"time": 1021, "pitch": 72, "duration": 12, "velocity": 82}, {"time": 1027, "pitch": 69, "duration": 7, "velocity": 81}, {"time": 1033, "pitch": 77, "duration": 7, "velocity": 86}, {"time": 1048, "pitch": 69, "duration": 3, "velocity": 98}, {"time": 1051, "pitch": 70, "duration": 2, "velocity": 94}, {"time": 1054, "pitch": 74, "duration": 3, "velocity": 96}, {"time": 1057, "pitch": 77, "duration": 8, "velocity": 98}, {"time": 1066, "pitch": 76, "duration": 8, "velocity": 103}, {"time": 1075, "pitch": 76, "duration": 2, "velocity": 103}, {"time": 1077, "pitch": 74, "duration": 1, "velocity": 100}, {"time": 1078, "pitch": 72, "duration": 2, "velocity": 95}, {"time": 1081, "pitch": 77, "duration": 7, "velocity": 94}, {"time": 1090, "pitch": 76, "duration": 7, "velocity": 105}, {"time": 1098, "pitch": 76, "duration": 2, "velocity": 96}, {"time": 1100, "pitch": 74, "duration": 1, "velocity": 91}, {"time": 1101, "pitch": 72, "duration": 2, "velocity": 96}, {"time": 1105, "pitch": 69, "duration": 13, "velocity": 100}, {"time": 1123, "pitch": 67, "duration": 2, "velocity": 96}, {"time": 1126, "pitch": 69, "duration": 4, "velocity": 94}, {"time": 1129, "pitch": 70, "duration": 5, "velocity": 105}, {"time": 1132, "pitch": 69, "duration": 4, "velocity": 100}, {"time": 1138, "pitch": 67, "duration": 3, "velocity": 92}, {"time": 1141, "pitch": 69, "duration": 2, "velocity": 91}, {"time": 1144, "pitch": 69, "duration": 6, "velocity": 91}, {"time": 1150, "pitch": 67, "duration": 3, "velocity": 89}, {"time": 1153, "pitch": 65, "duration": 14, "velocity": 91}, {"time": 1173, "pitch": 64, "duration": 2, "velocity": 91}, {"time": 1175, "pitch": 65, "duration": 2, "velocity": 96}, {"time": 1177, "pitch": 67, "duration": 8, "velocity": 96}, {"time": 1186, "pitch": 69, "duration": 6, "velocity": 95}, {"time": 1192, "pitch": 69, "duration": 1, "velocity": 91}, {"time": 1195, "pitch": 70, "duration": 3, "velocity": 103}, {"time": 1198, "pitch": 69, "duration": 3, "velocity": 90}, {"time": 1201, "pitch": 77, "duration": 22, "velocity": 96}, {"time": 1225, "pitch": 76, "duration": 23, "velocity": 105}, {"time": 1252, "pitch": 69, "duration": 3, "velocity": 81}, {"time": 1255, "pitch": 65, "duration": 7, "velocity": 77}, {"time": 1258, "pitch": 72, "duration": 7, "velocity": 76}, {"time": 1261, "pitch": 77, "duration": 11, "velocity": 72}, {"time": 1276, "pitch": 72, "duration": 4, "velocity": 76}, {"time": 1279, "pitch": 67, "duration": 8, "velocity": 76}, {"time": 1282, "pitch": 72, "duration": 3, "velocity": 83}, {"time": 1285, "pitch": 76, "duration": 13, "velocity": 88}, {"time": 1300, "pitch": 74, "duration": 4, "velocity": 78}, {"time": 1303, "pitch": 69, "duration": 5, "velocity": 74}, {"time": 1306, "pitch": 74, "duration": 3, "velocity": 87}, {"time": 1309, "pitch": 77, "duration": 15, "velocity": 82}, {"time": 1324, "pitch": 72, "duration": 4, "velocity": 82}, {"time": 1327, "pitch": 69, "duration": 5, "velocity": 76}, {"time": 1330, "pitch": 72, "duration": 4, "velocity": 78}, {"time": 1333, "pitch": 76, "duration": 15, "velocity": 85}, {"time": 1348, "pitch": 70, "duration": 4, "velocity": 76}, {"time": 1351, "pitch": 65, "duration": 10, "velocity": 74}, {"time": 1354, "pitch": 70, "duration": 4, "velocity": 77}, {"time": 1357, "pitch": 74, "duration": 14, "velocity": 86}, {"time": 1372, "pitch": 72, "duration": 4, "velocity": 72}, {"time": 1375, "pitch": 69, "duration": 6, "velocity": 78}, {"time": 1378, "pitch": 72, "duration": 4, "velocity": 83}, {"time": 1381, "pitch": 77, "duration": 13, "velocity": 83}, {"time": 1396, "pitch": 74, "duration": 3, "velocity": 90}, {"time": 1399, "pitch": 70, "duration": 3, "velocity": 81}, {"time": 1402, "pitch": 74, "duration": 4, "velocity": 89}, {"time": 1405, "pitch": 79, "duration": 7, "velocity": 83}, {"time": 1420, "pitch": 72, "duration": 3, "velocity": 80}, {"time": 1423, "pitch": 67, "duration": 6, "velocity": 74}, {"time": 1426, "pitch": 72, "duration": 3, "velocity": 86}, {"time": 1429, "pitch": 74, "duration": 4, "velocity": 90}, {"time": 1432, "pitch": 72, "duration": 3, "velocity": 78}, {"time": 1435, "pitch": 70, "duration": 4, "velocity": 77}, {"time": 1441, "pitch": 65, "duration": 14, "velocity": 80}, {"time": 1441, "pitch": 69, "duration": 16, "velocity": 84}, {"time": 1468, "pitch": 72, "duration": 3, "velocity": 78}, {"time": 1471, "pitch": 67, "duration": 6, "velocity": 78}, {"time": 1474, "pitch": 72, "duration": 3, "velocity": 81}, {"time": 1477, "pitch": 74, "duration": 4, "velocity": 83}, {"time": 1480, "pitch": 72, "duration": 9, "velocity": 81}, {"time": 1483, "pitch": 67, "duration": 6, "velocity": 68}, {"time": 1495, "pitch": 74, "duration": 6, "velocity": 84}, {"time": 1498, "pitch": 69, "duration": 4, "velocity": 73}, {"time": 1501, "pitch": 77, "duration": 10, "velocity": 84}, {"time": 1516, "pitch": 72, "duration": 3, "velocity": 62}, {"time": 1519, "pitch": 69, "duration": 4, "velocity": 80}, {"time": 1522, "pitch": 72, "duration": 3, "velocity": 84}, {"time": 1525, "pitch": 76, "duration": 12, "velocity": 84}, {"time": 1531, "pitch": 72, "duration": 5, "velocity": 71}, {"time": 1540, "pitch": 70, "duration": 4, "velocity": 75}, {"time": 1543, "pitch": 65, "duration": 12, "velocity": 64}, {"time": 1546, "pitch": 70, "duration": 10, "velocity": 76}, {"time": 1549, "pitch": 74, "duration": 12, "velocity": 85}, {"time": 1564, "pitch": 72, "duration": 3, "velocity": 76}, {"time": 1567, "pitch": 69, "duration": 6, "velocity": 74}, {"time": 1570, "pitch": 72, "duration": 10, "velocity": 80}, {"time": 1573, "pitch": 77, "duration": 14, "velocity": 79}, {"time": 1588, "pitch": 70, "duration": 4, "velocity": 77}, {"time": 1591, "pitch": 67, "duration": 4, "velocity": 73}, {"time": 1594, "pitch": 74, "duration": 3, "velocity": 89}, {"time": 1597, "pitch": 79, "duration": 8, "velocity": 90}, {"time": 1612, "pitch": 72, "duration": 4, "velocity": 82}, {"time": 1615, "pitch": 67, "duration": 5, "velocity": 78}, {"time": 1618, "pitch": 72, "duration": 4, "velocity": 84}, {"time": 1621, "pitch": 74, "duration": 4, "velocity": 87}, {"time": 1624, "pitch": 72, "duration": 6, "velocity": 72}, {"time": 1627, "pitch": 67, "duration": 5, "velocity": 73}, {"time": 1633, "pitch": 67, "duration": 10, "velocity": 79}, {"time": 1633, "pitch": 72, "duration": 11, "velocity": 83}, {"time": 1633, "pitch": 76, "duration": 11, "velocity": 89}, {"time": 1645, "pitch": 72, "duration": 7, "velocity": 90}, {"time": 1651, "pitch": 67, "duration": 5, "velocity": 74}, {"time": 1657, "pitch": 67, "duration": 18, "velocity": 80}, {"time": 1657, "pitch": 72, "duration": 20, "velocity": 89}, {"time": 1681, "pitch": 77, "duration": 9, "velocity": 84}, {"time": 1687, "pitch": 72, "duration": 8, "velocity": 77}, {"time": 1693, "pitch": 77, "duration": 7, "velocity": 83}, {"time": 1699, "pitch": 72, "duration": 7, "velocity": 79}, {"time": 1705, "pitch": 76, "duration": 7, "velocity": 84}, {"time": 1711, "pitch": 72, "duration": 7, "velocity": 80}, {"time": 1717, "pitch": 76, "duration": 11, "velocity": 89}, {"time": 1729, "pitch": 77, "duration": 7, "velocity": 84}, {"time": 1735, "pitch": 74, "duration": 11, "velocity": 83}, {"time": 1741, "pitch": 77, "duration": 7, "velocity": 81}, {"time": 1747, "pitch": 74, "duration": 6, "velocity": 88}, {"time": 1753, "pitch": 76, "duration": 10, "velocity": 90}, {"time": 1759, "pitch": 69, "duration": 16, "velocity": 82}, {"time": 1765, "pitch": 72, "duration": 9, "velocity": 85}, {"time": 1777, "pitch": 74, "duration": 8, "velocity": 90}, {"time": 1783, "pitch": 65, "duration": 15, "velocity": 86}, {"time": 1789, "pitch": 74, "duration": 13, "velocity": 90}, {"time": 1801, "pitch": 72, "duration": 7, "velocity": 85}, {"time": 1807, "pitch": 69, "duration": 9, "velocity": 80}, {"time": 1813, "pitch": 77, "duration": 14, "velocity": 88}, {"time": 1825, "pitch": 74, "duration": 7, "velocity": 89}, {"time": 1831, "pitch": 70, "duration": 7, "velocity": 80}, {"time": 1837, "pitch": 74, "duration": 13, "velocity": 90}, {"time": 1843, "pitch": 70, "duration": 6, "velocity": 77}, {"time": 1849, "pitch": 72, "duration": 7, "velocity": 86}, {"time": 1855, "pitch": 67, "duration": 5, "velocity": 79}, {"time": 1861, "pitch": 67, "duration": 7, "velocity": 81}, {"time": 1861, "pitch": 72, "duration": 7, "velocity": 83}, {"time": 1867, "pitch": 70, "duration": 4, "velocity": 87}, {"time": 1873, "pitch": 65, "duration": 4, "velocity": 80}, {"time": 1873, "pitch": 69, "duration": 7, "velocity": 83}, {"time": 1879, "pitch": 65, "duration": 16, "velocity": 82}, {"time": 1885, "pitch": 72, "duration": 7, "velocity": 83}, {"time": 1891, "pitch": 69, "duration": 7, "velocity": 82}, {"time": 1897, "pitch": 72, "duration": 7, "velocity": 85}, {"time": 1903, "pitch": 67, "duration": 7, "velocity": 80}, {"time": 1909, "pitch": 72, "duration": 10, "velocity": 89}, {"time": 1921, "pitch": 74, "duration": 6, "velocity": 88}, {"time": 1927, "pitch": 69, "duration": 7, "velocity": 83}, {"time": 1933, "pitch": 74, "duration": 11, "velocity": 90}, {"time": 1939, "pitch": 69, "duration": 6, "velocity": 75}, {"time": 1945, "pitch": 76, "duration": 12, "velocity": 89}, {"time": 1951, "pitch": 69, "duration": 7, "velocity": 78}, {"time": 1957, "pitch": 72, "duration": 7, "velocity": 84}, {"time": 1963, "pitch": 69, "duration": 7, "velocity": 78}, {"time": 1969, "pitch": 74, "duration": 8, "velocity": 89}, {"time": 1975, "pitch": 65, "duration": 14, "velocity": 79}, {"time": 1981, "pitch": 70, "duration": 8, "velocity": 73}, {"time": 1981, "pitch": 74, "duration": 13, "velocity": 85}, {"time": 1993, "pitch": 72, "duration": 6, "velocity": 83}, {"time": 1999, "pitch": 69, "duration": 7, "velocity": 80}, {"time": 2005, "pitch": 77, "duration": 13, "velocity": 85}, {"time": 2011, "pitch": 72, "duration": 4, "velocity": 80}, {"time": 2017, "pitch": 70, "duration": 6, "velocity": 82}, {"time": 2023, "pitch": 67, "duration": 4, "velocity": 84}, {"time": 2029, "pitch": 67, "duration": 6, "velocity": 86}, {"time": 2029, "pitch": 72, "duration": 6, "velocity": 88}, {"time": 2035, "pitch": 70, "duration": 5, "velocity": 81}, {"time": 2041, "pitch": 69, "duration": 9, "velocity": 76}, {"time": 2047, "pitch": 65, "duration": 12, "velocity": 82}, {"time": 2053, "pitch": 72, "duration": 12, "velocity": 82}, {"time": 2059, "pitch": 69, "duration": 7, "velocity": 81}, {"time": 2065, "pitch": 77, "duration": 7, "velocity": 86}, {"time": 2089, "pitch": 74, "duration": 6, "velocity": 91}, {"time": 2095, "pitch": 70, "duration": 7, "velocity": 88}, {"time": 2101, "pitch": 77, "duration": 13, "velocity": 86}, {"time": 2107, "pitch": 70, "duration": 6, "velocity": 77}, {"time": 2113, "pitch": 76, "duration": 6, "velocity": 87}, {"time": 2119, "pitch": 67, "duration": 8, "velocity": 78}, {"time": 2125, "pitch": 76, "duration": 6, "velocity": 90}, {"time": 2131, "pitch": 74, "duration": 7, "velocity": 90}, {"time": 2137, "pitch": 76, "duration": 6, "velocity": 89}, {"time": 2143, "pitch": 69, "duration": 7, "velocity": 83}, {"time": 2149, "pitch": 76, "duration": 7, "velocity": 90}, {"time": 2155, "pitch": 69, "duration": 7, "velocity": 84}, {"time": 2161, "pitch": 77, "duration": 7, "velocity": 86}, {"time": 2167, "pitch": 70, "duration": 8, "velocity": 79}, {"time": 2173, "pitch": 77, "duration": 19, "velocity": 85}, {"time": 2179, "pitch": 70, "duration": 7, "velocity": 86}, {"time": 2191, "pitch": 67, "duration": 7, "velocity": 78}, {"time": 2197, "pitch": 77, "duration": 11, "velocity": 89}, {"time": 2203, "pitch": 67, "duration": 6, "velocity": 80}, {"time": 2209, "pitch": 76, "duration": 7, "velocity": 91}, {"time": 2215, "pitch": 67, "duration": 7, "velocity": 81}, {"time": 2221, "pitch": 76, "duration": 7, "velocity": 90}, {"time": 2227, "pitch": 72, "duration": 5, "velocity": 80}, {"time": 2233, "pitch": 74, "duration": 6, "velocity": 90}, {"time": 2239, "pitch": 70, "duration": 7, "velocity": 77}, {"time": 2245, "pitch": 77, "duration": 7, "velocity": 89}, {"time": 2251, "pitch": 74, "duration": 5, "velocity": 89}, {"time": 2257, "pitch": 72, "duration": 7, "velocity": 87}, {"time": 2263, "pitch": 67, "duration": 7, "velocity": 81}, {"time": 2269, "pitch": 76, "duration": 7, "velocity": 85}, {"time": 2275, "pitch": 67, "duration": 7, "velocity": 78}, {"time": 2281, "pitch": 76, "duration": 6, "velocity": 90}, {"time": 2284, "pitch": 67, "duration": 4, "velocity": 77}, {"time": 2287, "pitch": 74, "duration": 8, "velocity": 83}, {"time": 2290, "pitch": 67, "duration": 3, "velocity": 62}, {"time": 2293, "pitch": 72, "duration": 4, "velocity": 82}, {"time": 2296, "pitch": 67, "duration": 4, "velocity": 74}, {"time": 2299, "pitch": 72, "duration": 5, "velocity": 84}, {"time": 2302, "pitch": 67, "duration": 2, "velocity": 62}, {"time": 2305, "pitch": 67, "duration": 21, "velocity": 82}, {"time": 2305, "pitch": 72, "duration": 21, "velocity": 88}, {"time": 2329, "pitch": 77, "duration": 9, "velocity": 84}, {"time": 2335, "pitch": 72, "duration": 8, "velocity": 77}, {"time": 2341, "pitch": 77, "duration": 7, "velocity": 83}, {"time": 2347, "pitch": 72, "duration": 7, "velocity": 79}, {"time": 2353, "pitch": 76, "duration": 7, "velocity": 84}, {"time": 2359, "pitch": 72, "duration": 7, "velocity": 80}, {"time": 2365, "pitch": 76, "duration": 11, "velocity": 89}, {"time": 2377, "pitch": 77, "duration": 7, "velocity": 84}, {"time": 2383, "pitch": 74, "duration": 11, "velocity": 83}, {"time": 2389, "pitch": 77, "duration": 7, "velocity": 81}, {"time": 2395, "pitch": 74, "duration": 6, "velocity": 88}, {"time": 2401, "pitch": 76, "duration": 10, "velocity": 90}, {"time": 2407, "pitch": 69, "duration": 16, "velocity": 82}, {"time": 2413, "pitch": 72, "duration": 9, "velocity": 85}, {"time": 2425, "pitch": 74, "duration": 8, "velocity": 90}, {"time": 2431, "pitch": 65, "duration": 15, "velocity": 86}, {"time": 2437, "pitch": 74, "duration": 13, "velocity": 90}, {"time": 2449, "pitch": 72, "duration": 7, "velocity": 85}, {"time": 2455, "pitch": 69, "duration": 9, "velocity": 80}, {"time": 2461, "pitch": 77, "duration": 14, "velocity": 88}, {"time": 2473, "pitch": 74, "duration": 7, "velocity": 89}, {"time": 2479, "pitch": 70, "duration": 7, "velocity": 80}, {"time": 2485, "pitch": 74, "duration": 13, "velocity": 90}, {"time": 2491, "pitch": 70, "duration": 6, "velocity": 77}, {"time": 2497, "pitch": 72, "duration": 7, "velocity": 86}, {"time": 2503, "pitch": 67, "duration": 5, "velocity": 79}, {"time": 2509, "pitch": 67, "duration": 7, "velocity": 81}, {"time": 2509, "pitch": 72, "duration": 7, "velocity": 83}, {"time": 2515, "pitch": 70, "duration": 4, "velocity": 87}, {"time": 2521, "pitch": 65, "duration": 4, "velocity": 80}, {"time": 2521, "pitch": 69, "duration": 7, "velocity": 83}, {"time": 2527, "pitch": 65, "duration": 16, "velocity": 82}, {"time": 2533, "pitch": 72, "duration": 7, "velocity": 83}, {"time": 2539, "pitch": 69, "duration": 7, "velocity": 82}, {"time": 2545, "pitch": 72, "duration": 7, "velocity": 85}, {"time": 2551, "pitch": 67, "duration": 7, "velocity": 80}, {"time": 2557, "pitch": 72, "duration": 10, "velocity": 89}, {"time": 2569, "pitch": 74, "duration": 6, "velocity": 88}, {"time": 2575, "pitch": 69, "duration": 7, "velocity": 83}, {"time": 2581, "pitch": 74, "duration": 11, "velocity": 90}, {"time": 2587, "pitch": 69, "duration": 6, "velocity": 75}, {"time": 2593, "pitch": 76, "duration": 12, "velocity": 89}, {"time": 2599, "pitch": 69, "duration": 7, "velocity": 78}, {"time": 2605, "pitch": 72, "duration": 7, "velocity": 84}, {"time": 2611, "pitch": 69, "duration": 7, "velocity": 78}, {"time": 2617, "pitch": 74, "duration": 8, "velocity": 89}, {"time": 2623, "pitch": 65, "duration": 14, "velocity": 79}, {"time": 2629, "pitch": 70, "duration": 8, "velocity": 73}, {"time": 2629, "pitch": 74, "duration": 13, "velocity": 85}, {"time": 2641, "pitch": 72, "duration": 6, "velocity": 83}, {"time": 2647, "pitch": 69, "duration": 7, "velocity": 80}, {"time": 2653, "pitch": 77, "duration": 13, "velocity": 85}, {"time": 2659, "pitch": 72, "duration": 4, "velocity": 80}, {"time": 2665, "pitch": 70, "duration": 6, "velocity": 82}, {"time": 2671, "pitch": 67, "duration": 4, "velocity": 84}, {"time": 2677, "pitch": 67, "duration": 6, "velocity": 86}, {"time": 2677, "pitch": 72, "duration": 6, "velocity": 88}, {"time": 2683, "pitch": 70, "duration": 5, "velocity": 81}, {"time": 2689, "pitch": 69, "duration": 9, "velocity": 76}, {"time": 2695, "pitch": 65, "duration": 12, "velocity": 82}, {"time": 2701, "pitch": 72, "duration": 12, "velocity": 82}, {"time": 2707, "pitch": 69, "duration": 7, "velocity": 81}, {"time": 2713, "pitch": 77, "duration": 7, "velocity": 86}, {"time": 2728, "pitch": 69, "duration": 3, "velocity": 98}, {"time": 2731, "pitch": 70, "duration": 2, "velocity": 94}, {"time": 2734, "pitch": 74, "duration": 3, "velocity": 96}, {"time": 2737, "pitch": 77, "duration": 8, "velocity": 98}, {"time": 2746, "pitch": 76, "duration": 8, "velocity": 103}, {"time": 2755, "pitch": 76, "duration": 2, "velocity": 103}, {"time": 2757, "pitch": 74, "duration": 1, "velocity": 100}, {"time": 2758, "pitch": 72, "duration": 2, "velocity": 95}, {"time": 2761, "pitch": 77, "duration": 7, "velocity": 94}, {"time": 2770, "pitch": 76, "duration": 7, "velocity": 105}, {"time": 2778, "pitch": 76, "duration": 2, "velocity": 96}, {"time": 2780, "pitch": 74, "duration": 1, "velocity": 91}, {"time": 2781, "pitch": 72, "duration": 2, "velocity": 96}, {"time": 2785, "pitch": 69, "duration": 13, "velocity": 100}, {"time": 2803, "pitch": 67, "duration": 2, "velocity": 96}, {"time": 2806, "pitch": 69, "duration": 4, "velocity": 94}, {"time": 2809, "pitch": 70, "duration": 5, "velocity": 105}, {"time": 2812, "pitch": 69, "duration": 4, "velocity": 100}, {"time": 2818, "pitch": 67, "duration": 3, "velocity": 92}, {"time": 2821, "pitch": 69, "duration": 2, "velocity": 91}, {"time": 2824, "pitch": 69, "duration": 6, "velocity": 91}, {"time": 2830, "pitch": 67, "duration": 3, "velocity": 89}, {"time": 2833, "pitch": 65, "duration": 14, "velocity": 91}, {"time": 2853, "pitch": 64, "duration": 2, "velocity": 91}, {"time": 2855, "pitch": 65, "duration": 2, "velocity": 96}, {"time": 2857, "pitch": 67, "duration": 8, "velocity": 96}, {"time": 2866, "pitch": 69, "duration": 6, "velocity": 95}, {"time": 2872, "pitch": 69, "duration": 1, "velocity": 91}, {"time": 2875, "pitch": 70, "duration": 3, "velocity": 103}, {"time": 2878, "pitch": 69, "duration": 3, "velocity": 90}, {"time": 2881, "pitch": 77, "duration": 22, "velocity": 96}, {"time": 2905, "pitch": 76, "duration": 23, "velocity": 105}, {"time": 2929, "pitch": 77, "duration": 36, "velocity": 105}]}, {"program": 0, "is_drum": false, "name": "PIANO", "notes": [{"time": 25, "pitch": 53, "duration": 15, "velocity": 76}, {"time": 25, "pitch": 77, "duration": 3, "velocity": 81}, {"time": 25, "pitch": 84, "duration": 7, "velocity": 85}, {"time": 31, "pitch": 60, "duration": 8, "velocity": 64}, {"time": 31, "pitch": 77, "duration": 4, "velocity": 76}, {"time": 37, "pitch": 77, "duration": 3, "velocity": 89}, {"time": 37, "pitch": 84, "duration": 8, "velocity": 88}, {"time": 43, "pitch": 77, "duration": 3, "velocity": 72}, {"time": 49, "pitch": 60, "duration": 19, "velocity": 79}, {"time": 49, "pitch": 84, "duration": 7, "velocity": 85}, {"time": 55, "pitch": 76, "duration": 7, "velocity": 78}, {"time": 61, "pitch": 67, "duration": 6, "velocity": 71}, {"time": 61, "pitch": 79, "duration": 7, "velocity": 82}, {"time": 61, "pitch": 84, "duration": 10, "velocity": 88}, {"time": 67, "pitch": 76, "duration": 2, "velocity": 84}, {"time": 73, "pitch": 62, "duration": 13, "velocity": 85}, {"time": 73, "pitch": 74, "duration": 3, "velocity": 77}, {"time": 73, "pitch": 77, "duration": 7, "velocity": 81}, {"time": 79, "pitch": 74, "duration": 4, "velocity": 83}, {"time": 85, "pitch": 74, "duration": 2, "velocity": 90}, {"time": 85, "pitch": 77, "duration": 1, "velocity": 89}, {"time": 85, "pitch": 81, "duration": 1, "velocity": 88}, {"time": 94, "pitch": 69, "duration": 4, "velocity": 77}, {"time": 97, "pitch": 58, "duration": 11, "velocity": 91}, {"time": 97, "pitch": 70, "duration": 10, "velocity": 83}, {"time": 97, "pitch": 74, "duration": 10, "velocity": 90}, {"time": 109, "pitch": 60, "duration": 7, "velocity": 90}, {"time": 109, "pitch": 67, "duration": 4, "velocity": 84}, {"time": 109, "pitch": 72, "duration": 7, "velocity": 83}, {"time": 109, "pitch": 76, "duration": 7, "velocity": 90}, {"time": 115, "pitch": 67, "duration": 3, "velocity": 89}, {"time": 121, "pitch": 53, "duration": 17, "velocity": 87}, {"time": 121, "pitch": 65, "duration": 12, "velocity": 78}, {"time": 121, "pitch": 69, "duration": 6, "velocity": 79}, {"time": 127, "pitch": 60, "duration": 9, "velocity": 76}, {"time": 133, "pitch": 69, "duration": 3, "velocity": 90}, {"time": 133, "pitch": 72, "duration": 3, "velocity": 90}, {"time": 133, "pitch": 77, "duration": 8, "velocity": 89}, {"time": 139, "pitch": 65, "duration": 1, "velocity": 78}, {"time": 145, "pitch": 62, "duration": 15, "velocity": 89}, {"time": 145, "pitch": 74, "duration": 10, "velocity": 79}, {"time": 145, "pitch": 76, "duration": 3, "velocity": 80}, {"time": 145, "pitch": 77, "duration": 9, "velocity": 76}, {"time": 151, "pitch": 69, "duration": 7, "velocity": 72}, {"time": 157, "pitch": 74, "duration": 2, "velocity": 86}, {"time": 157, "pitch": 77, "duration": 5, "velocity": 91}, {"time": 157, "pitch": 81, "duration": 5, "velocity": 89}, {"time": 163, "pitch": 74, "duration": 1, "velocity": 82}, {"time": 169, "pitch": 58, "duration": 16, "velocity": 85}, {"time": 169, "pitch": 70, "duration": 10, "velocity": 78}, {"time": 169, "pitch": 74, "duration": 10, "velocity": 86}, {"time": 169, "pitch": 77, "duration": 9, "velocity": 79}, {"time": 175, "pitch": 65, "duration": 10, "velocity": 72}, {"time": 181, "pitch": 70, "duration": 3, "velocity": 81}, {"time": 181, "pitch": 74, "duration": 4, "velocity": 88}, {"time": 181, "pitch": 77, "duration": 7, "velocity": 85}, {"time": 187, "pitch": 70, "duration": 1, "velocity": 82}, {"time": 193, "pitch": 53, "duration": 1, "velocity": 88}, {"time": 193, "pitch": 65, "duration": 2, "velocity": 81}, {"time": 193, "pitch": 69, "duration": 3, "velocity": 84}, {"time": 199, "pitch": 65, "duration": 13, "velocity": 59}, {"time": 205, "pitch": 77, "duration": 6, "velocity": 83}, {"time": 205, "pitch": 84, "duration": 5, "velocity": 88}, {"time": 217, "pitch": 65, "duration": 22, "velocity": 84}, {"time": 217, "pitch": 77, "duration": 9, "velocity": 83}, {"time": 223, "pitch": 72, "duration": 4, "velocity": 74}, {"time": 226, "pitch": 81, "duration": 18, "velocity": 85}, {"time": 238, "pitch": 72, "duration": 6, "velocity": 82}, {"time": 241, "pitch": 60, "duration": 17, "velocity": 89}, {"time": 244, "pitch": 67, "duration": 7, "velocity": 75}, {"time": 247, "pitch": 72, "duration": 11, "velocity": 80}, {"time": 250, "pitch": 79, "duration": 9, "velocity": 84}, {"time": 265, "pitch": 62, "duration": 11, "velocity": 89}, {"time": 265, "pitch": 74, "duration": 4, "velocity": 80}, {"time": 265, "pitch": 77, "duration": 7, "velocity": 83}, {"time": 268, "pitch": 69, "duration": 7, "velocity": 76}, {"time": 271, "pitch": 74, "duration": 7, "velocity": 81}, {"time": 274, "pitch": 81, "duration": 5, "velocity": 84}, {"time": 289, "pitch": 57, "duration": 15, "velocity": 87}, {"time": 289, "pitch": 69, "duration": 4, "velocity": 79}, {"time": 289, "pitch": 72, "duration": 7, "velocity": 82}, {"time": 292, "pitch": 64, "duration": 7, "velocity": 77}, {"time": 295, "pitch": 69, "duration": 12, "velocity": 78}, {"time": 298, "pitch": 72, "duration": 8, "velocity": 89}, {"time": 298, "pitch": 76, "duration": 10, "velocity": 87}, {"time": 313, "pitch": 58, "duration": 14, "velocity": 83}, {"time": 313, "pitch": 70, "duration": 3, "velocity": 75}, {"time": 313, "pitch": 74, "duration": 15, "velocity": 84}, {"time": 316, "pitch": 65, "duration": 10, "velocity": 69}, {"time": 319, "pitch": 70, "duration": 9, "velocity": 80}, {"time": 322, "pitch": 77, "duration": 8, "velocity": 83}, {"time": 337, "pitch": 53, "duration": 13, "velocity": 85}, {"time": 337, "pitch": 69, "duration": 4, "velocity": 78}, {"time": 337, "pitch": 72, "duration": 7, "velocity": 84}, {"time": 340, "pitch": 60, "duration": 10, "velocity": 76}, {"time": 343, "pitch": 69, "duration": 9, "velocity": 79}, {"time": 346, "pitch": 72, "duration": 5, "velocity": 89}, {"time": 346, "pitch": 77, "duration": 8, "velocity": 89}, {"time": 361, "pitch": 55, "duration": 21, "velocity": 89}, {"time": 361, "pitch": 74, "duration": 12, "velocity": 86}, {"time": 364, "pitch": 62, "duration": 16, "velocity": 76}, {"time": 367, "pitch": 67, "duration": 9, "velocity": 82}, {"time": 370, "pitch": 79, "duration": 10, "velocity": 85}, {"time": 385, "pitch": 60, "duration": 18, "velocity": 82}, {"time": 385, "pitch": 67, "duration": 4, "velocity": 80}, {"time": 385, "pitch": 72, "duration": 7, "velocity": 85}, {"time": 388, "pitch": 64, "duration": 15, "velocity": 77}, {"time": 391, "pitch": 67, "duration": 12, "velocity": 83}, {"time": 394, "pitch": 74, "duration": 9, "velocity": 86}, {"time": 403, "pitch": 72, "duration": 1, "velocity": 84}, {"time": 409, "pitch": 53, "duration": 17, "velocity": 89}, {"time": 409, "pitch": 65, "duration": 8, "velocity": 79}, {"time": 409, "pitch": 69, "duration": 10, "velocity": 82}, {"time": 415, "pitch": 60, "duration": 9, "velocity": 79}, {"time": 418, "pitch": 72, "duration": 7, "velocity": 89}, {"time": 424, "pitch": 77, "duration": 8, "velocity": 90}, {"time": 427, "pitch": 65, "duration": 2, "velocity": 90}, {"time": 433, "pitch": 60, "duration": 17, "velocity": 90}, {"time": 433, "pitch": 67, "duration": 8, "velocity": 81}, {"time": 433, "pitch": 72, "duration": 10, "velocity": 84}, {"time": 439, "pitch": 64, "duration": 11, "velocity": 64}, {"time": 442, "pitch": 76, "duration": 6, "velocity": 90}, {"time": 448, "pitch": 72, "duration": 4, "velocity": 89}, {"time": 451, "pitch": 67, "duration": 2, "velocity": 79}, {"time": 457, "pitch": 62, "duration": 19, "velocity": 85}, {"time": 457, "pitch": 69, "duration": 9, "velocity": 82}, {"time": 457, "pitch": 74, "duration": 10, "velocity": 88}, {"time": 463, "pitch": 65, "duration": 12, "velocity": 51}, {"time": 466, "pitch": 77, "duration": 8, "velocity": 89}, {"time": 472, "pitch": 74, "duration": 8, "velocity": 83}, {"time": 475, "pitch": 69, "duration": 3, "velocity": 74}, {"time": 481, "pitch": 57, "duration": 17, "velocity": 87}, {"time": 481, "pitch": 69, "duration": 10, "velocity": 77}, {"time": 481, "pitch": 72, "duration": 9, "velocity": 82}, {"time": 487, "pitch": 64, "duration": 5, "velocity": 77}, {"time": 490, "pitch": 76, "duration": 6, "velocity": 89}, {"time": 493, "pitch": 64, "duration": 5, "velocity": 50}, {"time": 496, "pitch": 72, "duration": 4, "velocity": 85}, {"time": 499, "pitch": 69, "duration": 2, "velocity": 80}, {"time": 505, "pitch": 58, "duration": 19, "velocity": 86}, {"time": 505, "pitch": 70, "duration": 10, "velocity": 77}, {"time": 505, "pitch": 74, "duration": 10, "velocity": 83}, {"time": 511, "pitch": 65, "duration": 8, "velocity": 71}, {"time": 517, "pitch": 70, "duration": 5, "velocity": 86}, {"time": 517, "pitch": 74, "duration": 11, "velocity": 89}, {"time": 517, "pitch": 77, "duration": 12, "velocity": 89}, {"time": 523, "pitch": 65, "duration": 1, "velocity": 75}, {"time": 529, "pitch": 53, "duration": 15, "velocity": 88}, {"time": 529, "pitch": 69, "duration": 3, "velocity": 81}, {"time": 529, "pitch": 72, "duration": 6, "velocity": 84}, {"time": 532, "pitch": 60, "duration": 12, "velocity": 77}, {"time": 535, "pitch": 69, "duration": 8, "velocity": 80}, {"time": 538, "pitch": 72, "duration": 7, "velocity": 78}, {"time": 541, "pitch": 77, "duration": 9, "velocity": 89}, {"time": 553, "pitch": 55, "duration": 20, "velocity": 89}, {"time": 553, "pitch": 74, "duration": 7, "velocity": 85}, {"time": 556, "pitch": 62, "duration": 16, "velocity": 76}, {"time": 559, "pitch": 70, "duration": 4, "velocity": 79}, {"time": 562, "pitch": 74, "duration": 3, "velocity": 84}, {"time": 565, "pitch": 79, "duration": 11, "velocity": 90}, {"time": 571, "pitch": 67, "duration": 4, "velocity": 79}, {"time": 577, "pitch": 60, "duration": 22, "velocity": 86}, {"time": 577, "pitch": 67, "duration": 3, "velocity": 85}, {"time": 577, "pitch": 72, "duration": 7, "velocity": 86}, {"time": 580, "pitch": 64, "duration": 18, "velocity": 79}, {"time": 583, "pitch": 67, "duration": 4, "velocity": 83}, {"time": 586, "pitch": 74, "duration": 6, "velocity": 86}, {"time": 592, "pitch": 76, "duration": 4, "velocity": 88}, {"time": 595, "pitch": 74, "duration": 5, "velocity": 84}, {"time": 598, "pitch": 67, "duration": 2, "velocity": 72}, {"time": 601, "pitch": 60, "duration": 19, "velocity": 89}, {"time": 601, "pitch": 67, "duration": 9, "velocity": 89}, {"time": 601, "pitch": 72, "duration": 9, "velocity": 88}, {"time": 607, "pitch": 64, "duration": 10, "velocity": 78}, {"time": 613, "pitch": 67, "duration": 4, "velocity": 90}, {"time": 613, "pitch": 72, "duration": 8, "velocity": 90}, {"time": 613, "pitch": 76, "duration": 7, "velocity": 89}, {"time": 619, "pitch": 67, "duration": 5, "velocity": 84}, {"time": 625, "pitch": 60, "duration": 19, "velocity": 91}, {"time": 625, "pitch": 67, "duration": 16, "velocity": 89}, {"time": 625, "pitch": 72, "duration": 17, "velocity": 88}, {"time": 649, "pitch": 53, "duration": 17, "velocity": 89}, {"time": 649, "pitch": 72, "duration": 5, "velocity": 81}, {"time": 649, "pitch": 77, "duration": 7, "velocity": 85}, {"time": 649, "pitch": 81, "duration": 7, "velocity": 85}, {"time": 652, "pitch": 60, "duration": 11, "velocity": 71}, {"time": 655, "pitch": 72, "duration": 5, "velocity": 91}, {"time": 658, "pitch": 77, "duration": 2, "velocity": 83}, {"time": 661, "pitch": 72, "duration": 4, "velocity": 91}, {"time": 661, "pitch": 77, "duration": 7, "velocity": 90}, {"time": 661, "pitch": 81, "duration": 7, "velocity": 90}, {"time": 667, "pitch": 72, "duration": 3, "velocity": 83}, {"time": 673, "pitch": 60, "duration": 10, "velocity": 91}, {"time": 673, "pitch": 72, "duration": 3, "velocity": 82}, {"time": 673, "pitch": 76, "duration": 5, "velocity": 85}, {"time": 676, "pitch": 67, "duration": 7, "velocity": 85}, {"time": 679, "pitch": 72, "duration": 5, "velocity": 89}, {"time": 682, "pitch": 76, "duration": 2, "velocity": 89}, {"time": 685, "pitch": 60, "duration": 6, "velocity": 90}, {"time": 685, "pitch": 67, "duration": 6, "velocity": 89}, {"time": 685, "pitch": 72, "duration": 3, "velocity": 88}, {"time": 685, "pitch": 76, "duration": 7, "velocity": 91}, {"time": 685, "pitch": 79, "duration": 7, "velocity": 90}, {"time": 691, "pitch": 72, "duration": 2, "velocity": 86}, {"time": 697, "pitch": 50, "duration": 16, "velocity": 90}, {"time": 697, "pitch": 74, "duration": 2, "velocity": 83}, {"time": 697, "pitch": 77, "duration": 4, "velocity": 84}, {"time": 700, "pitch": 57, "duration": 12, "velocity": 78}, {"time": 700, "pitch": 74, "duration": 7, "velocity": 86}, {"time": 703, "pitch": 77, "duration": 4, "velocity": 90}, {"time": 706, "pitch": 81, "duration": 2, "velocity": 81}, {"time": 709, "pitch": 74, "duration": 3, "velocity": 91}, {"time": 709, "pitch": 77, "duration": 3, "velocity": 89}, {"time": 709, "pitch": 81, "duration": 3, "velocity": 89}, {"time": 709, "pitch": 86, "duration": 5, "velocity": 96}, {"time": 715, "pitch": 74, "duration": 2, "velocity": 89}, {"time": 721, "pitch": 57, "duration": 18, "velocity": 89}, {"time": 721, "pitch": 69, "duration": 3, "velocity": 80}, {"time": 721, "pitch": 72, "duration": 4, "velocity": 85}, {"time": 724, "pitch": 64, "duration": 14, "velocity": 83}, {"time": 727, "pitch": 69, "duration": 4, "velocity": 78}, {"time": 727, "pitch": 72, "duration": 4, "velocity": 78}, {"time": 730, "pitch": 76, "duration": 3, "velocity": 89}, {"time": 733, "pitch": 81, "duration": 6, "velocity": 91}, {"time": 736, "pitch": 76, "duration": 4, "velocity": 93}, {"time": 739, "pitch": 72, "duration": 3, "velocity": 93}, {"time": 742, "pitch": 69, "duration": 2, "velocity": 87}, {"time": 745, "pitch": 58, "duration": 15, "velocity": 87}, {"time": 745, "pitch": 70, "duration": 5, "velocity": 72}, {"time": 745, "pitch": 74, "duration": 10, "velocity": 81}, {"time": 751, "pitch": 65, "duration": 7, "velocity": 83}, {"time": 754, "pitch": 70, "duration": 2, "velocity": 73}, {"time": 757, "pitch": 70, "duration": 3, "velocity": 89}, {"time": 757, "pitch": 74, "duration": 6, "velocity": 90}, {"time": 757, "pitch": 77, "duration": 9, "velocity": 89}, {"time": 760, "pitch": 65, "duration": 2, "velocity": 82}, {"time": 763, "pitch": 70, "duration": 4, "velocity": 89}, {"time": 766, "pitch": 74, "duration": 2, "velocity": 82}, {"time": 769, "pitch": 53, "duration": 17, "velocity": 78}, {"time": 769, "pitch": 69, "duration": 2, "velocity": 81}, {"time": 769, "pitch": 72, "duration": 6, "velocity": 85}, {"time": 772, "pitch": 60, "duration": 11, "velocity": 85}, {"time": 775, "pitch": 69, "duration": 4, "velocity": 91}, {"time": 778, "pitch": 72, "duration": 2, "velocity": 89}, {"time": 781, "pitch": 69, "duration": 4, "velocity": 89}, {"time": 781, "pitch": 72, "duration": 6, "velocity": 94}, {"time": 781, "pitch": 77, "duration": 10, "velocity": 89}, {"time": 787, "pitch": 69, "duration": 4, "velocity": 86}, {"time": 790, "pitch": 74, "duration": 2, "velocity": 78}, {"time": 793, "pitch": 55, "duration": 17, "velocity": 89}, {"time": 793, "pitch": 69, "duration": 1, "velocity": 71}, {"time": 793, "pitch": 70, "duration": 3, "velocity": 78}, {"time": 796, "pitch": 62, "duration": 13, "velocity": 85}, {"time": 799, "pitch": 67, "duration": 4, "velocity": 90}, {"time": 802, "pitch": 74, "duration": 4, "velocity": 86}, {"time": 805, "pitch": 67, "duration": 1, "velocity": 82}, {"time": 805, "pitch": 79, "duration": 7, "velocity": 93}, {"time": 808, "pitch": 74, "duration": 4, "velocity": 90}, {"time": 811, "pitch": 70, "duration": 3, "velocity": 86}, {"time": 814, "pitch": 67, "duration": 1, "velocity": 85}, {"time": 817, "pitch": 60, "duration": 18, "velocity": 91}, {"time": 817, "pitch": 72, "duration": 3, "velocity": 85}, {"time": 817, "pitch": 76, "duration": 6, "velocity": 92}, {"time": 820, "pitch": 67, "duration": 11, "velocity": 80}, {"time": 823, "pitch": 72, "duration": 4, "velocity": 85}, {"time": 826, "pitch": 74, "duration": 2, "velocity": 90}, {"time": 829, "pitch": 76, "duration": 3, "velocity": 100}, {"time": 832, "pitch": 72, "duration": 3, "velocity": 94}, {"time": 835, "pitch": 67, "duration": 1, "velocity": 90}, {"time": 838, "pitch": 72, "duration": 2, "velocity": 90}, {"time": 841, "pitch": 53, "duration": 16, "velocity": 89}, {"time": 841, "pitch": 72, "duration": 2, "velocity": 86}, {"time": 841, "pitch": 77, "duration": 5, "velocity": 86}, {"time": 844, "pitch": 60, "duration": 11, "velocity": 85}, {"time": 847, "pitch": 72, "duration": 4, "velocity": 91}, {"time": 850, "pitch": 77, "duration": 1, "velocity": 85}, {"time": 853, "pitch": 72, "duration": 3, "velocity": 91}, {"time": 853, "pitch": 77, "duration": 6, "velocity": 94}, {"time": 853, "pitch": 81, "duration": 7, "velocity": 90}, {"time": 859, "pitch": 72, "duration": 2, "velocity": 83}, {"time": 865, "pitch": 60, "duration": 17, "velocity": 90}, {"time": 865, "pitch": 72, "duration": 3, "velocity": 85}, {"time": 865, "pitch": 76, "duration": 6, "velocity": 90}, {"time": 868, "pitch": 67, "duration": 13, "velocity": 79}, {"time": 871, "pitch": 72, "duration": 5, "velocity": 93}, {"time": 874, "pitch": 79, "duration": 4, "velocity": 87}, {"time": 877, "pitch": 72, "duration": 1, "velocity": 77}, {"time": 877, "pitch": 84, "duration": 6, "velocity": 95}, {"time": 880, "pitch": 79, "duration": 6, "velocity": 84}, {"time": 883, "pitch": 72, "duration": 3, "velocity": 83}, {"time": 889, "pitch": 62, "duration": 15, "velocity": 91}, {"time": 889, "pitch": 74, "duration": 3, "velocity": 84}, {"time": 889, "pitch": 77, "duration": 5, "velocity": 86}, {"time": 892, "pitch": 69, "duration": 11, "velocity": 79}, {"time": 895, "pitch": 74, "duration": 5, "velocity": 84}, {"time": 898, "pitch": 77, "duration": 5, "velocity": 89}, {"time": 901, "pitch": 74, "duration": 2, "velocity": 42}, {"time": 901, "pitch": 86, "duration": 6, "velocity": 100}, {"time": 904, "pitch": 81, "duration": 3, "velocity": 88}, {"time": 907, "pitch": 77, "duration": 3, "velocity": 88}, {"time": 910, "pitch": 74, "duration": 1, "velocity": 84}, {"time": 913, "pitch": 57, "duration": 11, "velocity": 84}, {"time": 913, "pitch": 69, "duration": 3, "velocity": 89}, {"time": 913, "pitch": 72, "duration": 6, "velocity": 90}, {"time": 916, "pitch": 64, "duration": 8, "velocity": 89}, {"time": 919, "pitch": 69, "duration": 4, "velocity": 89}, {"time": 922, "pitch": 72, "duration": 2, "velocity": 83}, {"time": 925, "pitch": 57, "duration": 7, "velocity": 89}, {"time": 925, "pitch": 69, "duration": 3, "velocity": 90}, {"time": 925, "pitch": 72, "duration": 7, "velocity": 89}, {"time": 925, "pitch": 76, "duration": 7, "velocity": 95}, {"time": 931, "pitch": 69, "duration": 2, "velocity": 89}, {"time": 937, "pitch": 58, "duration": 11, "velocity": 90}, {"time": 937, "pitch": 70, "duration": 2, "velocity": 84}, {"time": 937, "pitch": 74, "duration": 6, "velocity": 89}, {"time": 940, "pitch": 65, "duration": 7, "velocity": 79}, {"time": 943, "pitch": 70, "duration": 4, "velocity": 85}, {"time": 946, "pitch": 74, "duration": 2, "velocity": 83}, {"time": 949, "pitch": 65, "duration": 7, "velocity": 89}, {"time": 949, "pitch": 70, "duration": 3, "velocity": 80}, {"time": 949, "pitch": 74, "duration": 1, "velocity": 80}, {"time": 949, "pitch": 77, "duration": 10, "velocity": 90}, {"time": 955, "pitch": 74, "duration": 4, "velocity": 84}, {"time": 958, "pitch": 70, "duration": 2, "velocity": 78}, {"time": 961, "pitch": 53, "duration": 19, "velocity": 86}, {"time": 961, "pitch": 69, "duration": 2, "velocity": 78}, {"time": 961, "pitch": 72, "duration": 6, "velocity": 83}, {"time": 964, "pitch": 60, "duration": 16, "velocity": 77}, {"time": 967, "pitch": 69, "duration": 4, "velocity": 82}, {"time": 970, "pitch": 72, "duration": 2, "velocity": 89}, {"time": 973, "pitch": 69, "duration": 3, "velocity": 90}, {"time": 973, "pitch": 72, "duration": 4, "velocity": 98}, {"time": 973, "pitch": 77, "duration": 7, "velocity": 90}, {"time": 979, "pitch": 69, "duration": 2, "velocity": 84}, {"time": 985, "pitch": 55, "duration": 9, "velocity": 89}, {"time": 985, "pitch": 67, "duration": 1, "velocity": 71}, {"time": 985, "pitch": 70, "duration": 6, "velocity": 77}, {"time": 985, "pitch": 74, "duration": 10, "velocity": 85}, {"time": 988, "pitch": 62, "duration": 6, "velocity": 78}, {"time": 991, "pitch": 67, "duration": 4, "velocity": 89}, {"time": 994, "pitch": 70, "duration": 2, "velocity": 65}, {"time": 997, "pitch": 60, "duration": 7, "velocity": 90}, {"time": 997, "pitch": 67, "duration": 2, "velocity": 89}, {"time": 997, "pitch": 72, "duration": 4, "velocity": 90}, {"time": 1000, "pitch": 67, "duration": 4, "velocity": 84}, {"time": 1003, "pitch": 72, "duration": 3, "velocity": 83}, {"time": 1009, "pitch": 53, "duration": 22, "velocity": 89}, {"time": 1009, "pitch": 69, "duration": 2, "velocity": 85}, {"time": 1009, "pitch": 77, "duration": 7, "velocity": 88}, {"time": 1012, "pitch": 60, "duration": 16, "velocity": 82}, {"time": 1015, "pitch": 69, "duration": 4, "velocity": 85}, {"time": 1018, "pitch": 72, "duration": 3, "velocity": 84}, {"time": 1021, "pitch": 77, "duration": 7, "velocity": 92}, {"time": 1024, "pitch": 72, "duration": 3, "velocity": 90}, {"time": 1027, "pitch": 69, "duration": 5, "velocity": 82}, {"time": 1030, "pitch": 72, "duration": 2, "velocity": 73}, {"time": 1033, "pitch": 53, "duration": 1, "velocity": 90}, {"time": 1033, "pitch": 69, "duration": 3, "velocity": 81}, {"time": 1033, "pitch": 72, "duration": 5, "velocity": 87}, {"time": 1033, "pitch": 77, "duration": 6, "velocity": 82}, {"time": 1039, "pitch": 65, "duration": 10, "velocity": 86}, {"time": 1042, "pitch": 72, "duration": 4, "velocity": 89}, {"time": 1045, "pitch": 77, "duration": 4, "velocity": 90}, {"time": 1048, "pitch": 72, "duration": 2, "velocity": 94}, {"time": 1051, "pitch": 81, "duration": 3, "velocity": 93}, {"time": 1054, "pitch": 77, "duration": 1, "velocity": 88}, {"time": 1057, "pitch": 58, "duration": 15, "velocity": 87}, {"time": 1060, "pitch": 65, "duration": 12, "velocity": 82}, {"time": 1063, "pitch": 70, "duration": 4, "velocity": 85}, {"time": 1066, "pitch": 74, "duration": 2, "velocity": 83}, {"time": 1069, "pitch": 70, "duration": 6, "velocity": 91}, {"time": 1069, "pitch": 74, "duration": 12, "velocity": 91}, {"time": 1069, "pitch": 77, "duration": 13, "velocity": 91}, {"time": 1075, "pitch": 65, "duration": 4, "velocity": 85}, {"time": 1078, "pitch": 70, "duration": 2, "velocity": 82}, {"time": 1081, "pitch": 60, "duration": 17, "velocity": 94}, {"time": 1084, "pitch": 67, "duration": 10, "velocity": 79}, {"time": 1087, "pitch": 72, "duration": 4, "velocity": 90}, {"time": 1090, "pitch": 76, "duration": 1, "velocity": 90}, {"time": 1093, "pitch": 72, "duration": 4, "velocity": 91}, {"time": 1093, "pitch": 76, "duration": 4, "velocity": 92}, {"time": 1093, "pitch": 79, "duration": 7, "velocity": 91}, {"time": 1096, "pitch": 67, "duration": 2, "velocity": 85}, {"time": 1099, "pitch": 72, "duration": 4, "velocity": 90}, {"time": 1102, "pitch": 76, "duration": 1, "velocity": 88}, {"time": 1105, "pitch": 57, "duration": 19, "velocity": 89}, {"time": 1105, "pitch": 69, "duration": 4, "velocity": 90}, {"time": 1105, "pitch": 72, "duration": 6, "velocity": 95}, {"time": 1108, "pitch": 64, "duration": 10, "velocity": 83}, {"time": 1111, "pitch": 69, "duration": 4, "velocity": 84}, {"time": 1114, "pitch": 72, "duration": 1, "velocity": 83}, {"time": 1117, "pitch": 69, "duration": 3, "velocity": 90}, {"time": 1117, "pitch": 76, "duration": 7, "velocity": 95}, {"time": 1120, "pitch": 64, "duration": 4, "velocity": 85}, {"time": 1123, "pitch": 69, "duration": 4, "velocity": 86}, {"time": 1129, "pitch": 58, "duration": 17, "velocity": 91}, {"time": 1129, "pitch": 70, "duration": 3, "velocity": 82}, {"time": 1129, "pitch": 74, "duration": 5, "velocity": 87}, {"time": 1132, "pitch": 65, "duration": 13, "velocity": 74}, {"time": 1135, "pitch": 70, "duration": 4, "velocity": 75}, {"time": 1138, "pitch": 74, "duration": 4, "velocity": 88}, {"time": 1141, "pitch": 77, "duration": 6, "velocity": 95}, {"time": 1144, "pitch": 74, "duration": 3, "velocity": 93}, {"time": 1147, "pitch": 70, "duration": 4, "velocity": 91}, {"time": 1150, "pitch": 74, "duration": 1, "velocity": 82}, {"time": 1153, "pitch": 55, "duration": 17, "velocity": 89}, {"time": 1153, "pitch": 67, "duration": 10, "velocity": 89}, {"time": 1156, "pitch": 62, "duration": 14, "velocity": 76}, {"time": 1159, "pitch": 70, "duration": 4, "velocity": 90}, {"time": 1162, "pitch": 74, "duration": 4, "velocity": 82}, {"time": 1165, "pitch": 79, "duration": 11, "velocity": 94}, {"time": 1168, "pitch": 74, "duration": 4, "velocity": 87}, {"time": 1171, "pitch": 70, "duration": 4, "velocity": 81}, {"time": 1174, "pitch": 67, "duration": 2, "velocity": 84}, {"time": 1177, "pitch": 58, "duration": 17, "velocity": 93}, {"time": 1177, "pitch": 70, "duration": 3, "velocity": 85}, {"time": 1177, "pitch": 74, "duration": 7, "velocity": 87}, {"time": 1180, "pitch": 65, "duration": 14, "velocity": 76}, {"time": 1183, "pitch": 70, "duration": 5, "velocity": 79}, {"time": 1186, "pitch": 74, "duration": 4, "velocity": 82}, {"time": 1189, "pitch": 77, "duration": 9, "velocity": 91}, {"time": 1192, "pitch": 74, "duration": 4, "velocity": 89}, {"time": 1195, "pitch": 70, "duration": 3, "velocity": 89}, {"time": 1198, "pitch": 74, "duration": 2, "velocity": 84}, {"time": 1201, "pitch": 60, "duration": 21, "velocity": 90}, {"time": 1201, "pitch": 72, "duration": 7, "velocity": 87}, {"time": 1204, "pitch": 67, "duration": 8, "velocity": 80}, {"time": 1207, "pitch": 74, "duration": 4, "velocity": 89}, {"time": 1210, "pitch": 76, "duration": 4, "velocity": 90}, {"time": 1213, "pitch": 67, "duration": 4, "velocity": 83}, {"time": 1216, "pitch": 72, "duration": 2, "velocity": 84}, {"time": 1216, "pitch": 79, "duration": 3, "velocity": 89}, {"time": 1219, "pitch": 67, "duration": 3, "velocity": 83}, {"time": 1222, "pitch": 72, "duration": 1, "velocity": 82}, {"time": 1225, "pitch": 60, "duration": 13, "velocity": 92}, {"time": 1225, "pitch": 72, "duration": 5, "velocity": 90}, {"time": 1225, "pitch": 84, "duration": 7, "velocity": 89}, {"time": 1231, "pitch": 67, "duration": 7, "velocity": 77}, {"time": 1234, "pitch": 72, "duration": 2, "velocity": 80}, {"time": 1237, "pitch": 72, "duration": 2, "velocity": 85}, {"time": 1237, "pitch": 79, "duration": 2, "velocity": 84}, {"time": 1249, "pitch": 65, "duration": 22, "velocity": 84}, {"time": 1249, "pitch": 77, "duration": 9, "velocity": 83}, {"time": 1255, "pitch": 72, "duration": 4, "velocity": 74}, {"time": 1258, "pitch": 81, "duration": 18, "velocity": 85}, {"time": 1270, "pitch": 72, "duration": 6, "velocity": 82}, {"time": 1273, "pitch": 60, "duration": 17, "velocity": 89}, {"time": 1276, "pitch": 67, "duration": 7, "velocity": 75}, {"time": 1279, "pitch": 72, "duration": 11, "velocity": 80}, {"time": 1282, "pitch": 79, "duration": 9, "velocity": 84}, {"time": 1297, "pitch": 62, "duration": 11, "velocity": 89}, {"time": 1297, "pitch": 74, "duration": 4, "velocity": 80}, {"time": 1297, "pitch": 77, "duration": 7, "velocity": 83}, {"time": 1300, "pitch": 69, "duration": 7, "velocity": 76}, {"time": 1303, "pitch": 74, "duration": 7, "velocity": 81}, {"time": 1306, "pitch": 81, "duration": 5, "velocity": 84}, {"time": 1321, "pitch": 57, "duration": 15, "velocity": 87}, {"time": 1321, "pitch": 69, "duration": 4, "velocity": 79}, {"time": 1321, "pitch": 72, "duration": 7, "velocity": 82}, {"time": 1324, "pitch": 64, "duration": 7, "velocity": 77}, {"time": 1327, "pitch": 69, "duration": 12, "velocity": 78}, {"time": 1330, "pitch": 72, "duration": 8, "velocity": 89}, {"time": 1330, "pitch": 76, "duration": 10, "velocity": 87}, {"time": 1345, "pitch": 58, "duration": 14, "velocity": 83}, {"time": 1345, "pitch": 70, "duration": 3, "velocity": 75}, {"time": 1345, "pitch": 74, "duration": 15, "velocity": 84}, {"time": 1348, "pitch": 65, "duration": 10, "velocity": 69}, {"time": 1351, "pitch": 70, "duration": 9, "velocity": 80}, {"time": 1354, "pitch": 77, "duration": 8, "velocity": 83}, {"time": 1369, "pitch": 53, "duration": 13, "velocity": 85}, {"time": 1369, "pitch": 69, "duration": 4, "velocity": 78}, {"time": 1369, "pitch": 72, "duration": 7, "velocity": 84}, {"time": 1372, "pitch": 60, "duration": 10, "velocity": 76}, {"time": 1375, "pitch": 69, "duration": 9, "velocity": 79}, {"time": 1378, "pitch": 72, "duration": 5, "velocity": 89}, {"time": 1378, "pitch": 77, "duration": 8, "velocity": 89}, {"time": 1393, "pitch": 55, "duration": 21, "velocity": 89}, {"time": 1393, "pitch": 74, "duration": 12, "velocity": 86}, {"time": 1396, "pitch": 62, "duration": 16, "velocity": 76}, {"time": 1399, "pitch": 67, "duration": 9, "velocity": 82}, {"time": 1402, "pitch": 79, "duration": 10, "velocity": 85}, {"time": 1417, "pitch": 60, "duration": 18, "velocity": 82}, {"time": 1417, "pitch": 67, "duration": 4, "velocity": 80}, {"time": 1417, "pitch": 72, "duration": 7, "velocity": 85}, {"time": 1420, "pitch": 64, "duration": 15, "velocity": 77}, {"time": 1423, "pitch": 67, "duration": 12, "velocity": 83}, {"time": 1426, "pitch": 74, "duration": 9, "velocity": 86}, {"time": 1435, "pitch": 72, "duration": 1, "velocity": 84}, {"time": 1441, "pitch": 53, "duration": 17, "velocity": 89}, {"time": 1441, "pitch": 65, "duration": 8, "velocity": 79}, {"time": 1441, "pitch": 69, "duration": 10, "velocity": 82}, {"time": 1447, "pitch": 60, "duration": 9, "velocity": 79}, {"time": 1450, "pitch": 72, "duration": 7, "velocity": 89}, {"time": 1456, "pitch": 77, "duration": 8, "velocity": 90}, {"time": 1459, "pitch": 65, "duration": 2, "velocity": 90}, {"time": 1465, "pitch": 60, "duration": 17, "velocity": 90}, {"time": 1465, "pitch": 67, "duration": 8, "velocity": 81}, {"time": 1465, "pitch": 72, "duration": 10, "velocity": 84}, {"time": 1471, "pitch": 64, "duration": 11, "velocity": 64}, {"time": 1474, "pitch": 76, "duration": 6, "velocity": 90}, {"time": 1480, "pitch": 72, "duration": 4, "velocity": 89}, {"time": 1483, "pitch": 67, "duration": 2, "velocity": 79}, {"time": 1489, "pitch": 62, "duration": 19, "velocity": 85}, {"time": 1489, "pitch": 69, "duration": 9, "velocity": 82}, {"time": 1489, "pitch": 74, "duration": 10, "velocity": 88}, {"time": 1495, "pitch": 65, "duration": 12, "velocity": 51}, {"time": 1498, "pitch": 77, "duration": 8, "velocity": 89}, {"time": 1504, "pitch": 74, "duration": 8, "velocity": 83}, {"time": 1507, "pitch": 69, "duration": 3, "velocity": 74}, {"time": 1513, "pitch": 57, "duration": 17, "velocity": 87}, {"time": 1513, "pitch": 69, "duration": 10, "velocity": 77}, {"time": 1513, "pitch": 72, "duration": 9, "velocity": 82}, {"time": 1519, "pitch": 64, "duration": 5, "velocity": 77}, {"time": 1522, "pitch": 76, "duration": 6, "velocity": 89}, {"time": 1525, "pitch": 64, "duration": 5, "velocity": 50}, {"time": 1528, "pitch": 72, "duration": 4, "velocity": 85}, {"time": 1531, "pitch": 69, "duration": 2, "velocity": 80}, {"time": 1537, "pitch": 58, "duration": 19, "velocity": 86}, {"time": 1537, "pitch": 70, "duration": 10, "velocity": 77}, {"time": 1537, "pitch": 74, "duration": 10, "velocity": 83}, {"time": 1543, "pitch": 65, "duration": 8, "velocity": 71}, {"time": 1549, "pitch": 70, "duration": 5, "velocity": 86}, {"time": 1549, "pitch": 74, "duration": 11, "velocity": 89}, {"time": 1549, "pitch": 77, "duration": 12, "velocity": 89}, {"time": 1555, "pitch": 65, "duration": 1, "velocity": 75}, {"time": 1561, "pitch": 53, "duration": 15, "velocity": 88}, {"time": 1561, "pitch": 69, "duration": 3, "velocity": 81}, {"time": 1561, "pitch": 72, "duration": 6, "velocity": 84}, {"time": 1564, "pitch": 60, "duration": 12, "velocity": 77}, {"time": 1567, "pitch": 69, "duration": 8, "velocity": 80}, {"time": 1570, "pitch": 72, "duration": 7, "velocity": 78}, {"time": 1573, "pitch": 77, "duration": 9, "velocity": 89}, {"time": 1585, "pitch": 55, "duration": 20, "velocity": 89}, {"time": 1585, "pitch": 74, "duration": 7, "velocity": 85}, {"time": 1588, "pitch": 62, "duration": 16, "velocity": 76}, {"time": 1591, "pitch": 70, "duration": 4, "velocity": 79}, {"time": 1594, "pitch": 74, "duration": 3, "velocity": 84}, {"time": 1597, "pitch": 79, "duration": 11, "velocity": 90}, {"time": 1603, "pitch": 67, "duration": 4, "velocity": 79}, {"time": 1609, "pitch": 60, "duration": 22, "velocity": 86}, {"time": 1609, "pitch": 67, "duration": 3, "velocity": 85}, {"time": 1609, "pitch": 72, "duration": 7, "velocity": 86}, {"time": 1612, "pitch": 64, "duration": 18, "velocity": 79}, {"time": 1615, "pitch": 67, "duration": 4, "velocity": 83}, {"time": 1618, "pitch": 74, "duration": 6, "velocity": 86}, {"time": 1624, "pitch": 76, "duration": 4, "velocity": 88}, {"time": 1627, "pitch": 74, "duration": 5, "velocity": 84}, {"time": 1630, "pitch": 67, "duration": 2, "velocity": 72}, {"time": 1633, "pitch": 60, "duration": 19, "velocity": 89}, {"time": 1633, "pitch": 67, "duration": 9, "velocity": 89}, {"time": 1633, "pitch": 72, "duration": 9, "velocity": 88}, {"time": 1639, "pitch": 64, "duration": 10, "velocity": 78}, {"time": 1645, "pitch": 67, "duration": 4, "velocity": 90}, {"time": 1645, "pitch": 72, "duration": 8, "velocity": 90}, {"time": 1645, "pitch": 76, "duration": 7, "velocity": 89}, {"time": 1651, "pitch": 67, "duration": 5, "velocity": 84}, {"time": 1657, "pitch": 60, "duration": 19, "velocity": 91}, {"time": 1657, "pitch": 67, "duration": 16, "velocity": 89}, {"time": 1657, "pitch": 72, "duration": 17, "velocity": 88}, {"time": 1681, "pitch": 53, "duration": 17, "velocity": 89}, {"time": 1681, "pitch": 72, "duration": 5, "velocity": 81}, {"time": 1681, "pitch": 77, "duration": 7, "velocity": 85}, {"time": 1681, "pitch": 81, "duration": 7, "velocity": 85}, {"time": 1684, "pitch": 60, "duration": 11, "velocity": 71}, {"time": 1687, "pitch": 72, "duration": 5, "velocity": 91}, {"time": 1690, "pitch": 77, "duration": 2, "velocity": 83}, {"time": 1693, "pitch": 72, "duration": 4, "velocity": 91}, {"time": 1693, "pitch": 77, "duration": 7, "velocity": 90}, {"time": 1693, "pitch": 81, "duration": 7, "velocity": 90}, {"time": 1699, "pitch": 72, "duration": 3, "velocity": 83}, {"time": 1705, "pitch": 60, "duration": 10, "velocity": 91}, {"time": 1705, "pitch": 72, "duration": 3, "velocity": 82}, {"time": 1705, "pitch": 76, "duration": 5, "velocity": 85}, {"time": 1708, "pitch": 67, "duration": 7, "velocity": 85}, {"time": 1711, "pitch": 72, "duration": 5, "velocity": 89}, {"time": 1714, "pitch": 76, "duration": 2, "velocity": 89}, {"time": 1717, "pitch": 60, "duration": 6, "velocity": 90}, {"time": 1717, "pitch": 67, "duration": 6, "velocity": 89}, {"time": 1717, "pitch": 72, "duration": 3, "velocity": 88}, {"time": 1717, "pitch": 76, "duration": 7, "velocity": 91}, {"time": 1717, "pitch": 79, "duration": 7, "velocity": 90}, {"time": 1723, "pitch": 72, "duration": 2, "velocity": 86}, {"time": 1729, "pitch": 50, "duration": 16, "velocity": 90}, {"time": 1729, "pitch": 74, "duration": 2, "velocity": 83}, {"time": 1729, "pitch": 77, "duration": 4, "velocity": 84}, {"time": 1732, "pitch": 57, "duration": 12, "velocity": 78}, {"time": 1732, "pitch": 74, "duration": 7, "velocity": 86}, {"time": 1735, "pitch": 77, "duration": 4, "velocity": 90}, {"time": 1738, "pitch": 81, "duration": 2, "velocity": 81}, {"time": 1741, "pitch": 74, "duration": 3, "velocity": 91}, {"time": 1741, "pitch": 77, "duration": 3, "velocity": 89}, {"time": 1741, "pitch": 81, "duration": 3, "velocity": 89}, {"time": 1741, "pitch": 86, "duration": 5, "velocity": 96}, {"time": 1747, "pitch": 74, "duration": 2, "velocity": 89}, {"time": 1753, "pitch": 57, "duration": 18, "velocity": 89}, {"time": 1753, "pitch": 69, "duration": 3, "velocity": 80}, {"time": 1753, "pitch": 72, "duration": 4, "velocity": 85}, {"time": 1756, "pitch": 64, "duration": 14, "velocity": 83}, {"time": 1759, "pitch": 69, "duration": 4, "velocity": 78}, {"time": 1759, "pitch": 72, "duration": 4, "velocity": 78}, {"time": 1762, "pitch": 76, "duration": 3, "velocity": 89}, {"time": 1765, "pitch": 81, "duration": 6, "velocity": 91}, {"time": 1768, "pitch": 76, "duration": 4, "velocity": 93}, {"time": 1771, "pitch": 72, "duration": 3, "velocity": 93}, {"time": 1774, "pitch": 69, "duration": 2, "velocity": 87}, {"time": 1777, "pitch": 58, "duration": 15, "velocity": 87}, {"time": 1777, "pitch": 70, "duration": 5, "velocity": 72}, {"time": 1777, "pitch": 74, "duration": 10, "velocity": 81}, {"time": 1783, "pitch": 65, "duration": 7, "velocity": 83}, {"time": 1786, "pitch": 70, "duration": 2, "velocity": 73}, {"time": 1789, "pitch": 70, "duration": 3, "velocity": 89}, {"time": 1789, "pitch": 74, "duration": 6, "velocity": 90}, {"time": 1789, "pitch": 77, "duration": 9, "velocity": 89}, {"time": 1792, "pitch": 65, "duration": 2, "velocity": 82}, {"time": 1795, "pitch": 70, "duration": 4, "velocity": 89}, {"time": 1798, "pitch": 74, "duration": 2, "velocity": 82}, {"time": 1801, "pitch": 53, "duration": 17, "velocity": 78}, {"time": 1801, "pitch": 69, "duration": 2, "velocity": 81}, {"time": 1801, "pitch": 72, "duration": 6, "velocity": 85}, {"time": 1804, "pitch": 60, "duration": 11, "velocity": 85}, {"time": 1807, "pitch": 69, "duration": 4, "velocity": 91}, {"time": 1810, "pitch": 72, "duration": 2, "velocity": 89}, {"time": 1813, "pitch": 69, "duration": 4, "velocity": 89}, {"time": 1813, "pitch": 72, "duration": 6, "velocity": 94}, {"time": 1813, "pitch": 77, "duration": 10, "velocity": 89}, {"time": 1819, "pitch": 69, "duration": 4, "velocity": 86}, {"time": 1822, "pitch": 74, "duration": 2, "velocity": 78}, {"time": 1825, "pitch": 55, "duration": 17, "velocity": 89}, {"time": 1825, "pitch": 69, "duration": 1, "velocity": 71}, {"time": 1825, "pitch": 70, "duration": 3, "velocity": 78}, {"time": 1828, "pitch": 62, "duration": 13, "velocity": 85}, {"time": 1831, "pitch": 67, "duration": 4, "velocity": 90}, {"time": 1834, "pitch": 74, "duration": 4, "velocity": 86}, {"time": 1837, "pitch": 67, "duration": 1, "velocity": 82}, {"time": 1837, "pitch": 79, "duration": 7, "velocity": 93}, {"time": 1840, "pitch": 74, "duration": 4, "velocity": 90}, {"time": 1843, "pitch": 70, "duration": 3, "velocity": 86}, {"time": 1846, "pitch": 67, "duration": 1, "velocity": 85}, {"time": 1849, "pitch": 60, "duration": 18, "velocity": 91}, {"time": 1849, "pitch": 72, "duration": 3, "velocity": 85}, {"time": 1849, "pitch": 76, "duration": 6, "velocity": 92}, {"time": 1852, "pitch": 67, "duration": 11, "velocity": 80}, {"time": 1855, "pitch": 72, "duration": 4, "velocity": 85}, {"time": 1858, "pitch": 74, "duration": 2, "velocity": 90}, {"time": 1861, "pitch": 76, "duration": 3, "velocity": 100}, {"time": 1864, "pitch": 72, "duration": 3, "velocity": 94}, {"time": 1867, "pitch": 67, "duration": 1, "velocity": 90}, {"time": 1870, "pitch": 72, "duration": 2, "velocity": 90}, {"time": 1873, "pitch": 53, "duration": 16, "velocity": 89}, {"time": 1873, "pitch": 72, "duration": 2, "velocity": 86}, {"time": 1873, "pitch": 77, "duration": 5, "velocity": 86}, {"time": 1876, "pitch": 60, "duration": 11, "velocity": 85}, {"time": 1879, "pitch": 72, "duration": 4, "velocity": 91}, {"time": 1882, "pitch": 77, "duration": 1, "velocity": 85}, {"time": 1885, "pitch": 72, "duration": 3, "velocity": 91}, {"time": 1885, "pitch": 77, "duration": 6, "velocity": 94}, {"time": 1885, "pitch": 81, "duration": 7, "velocity": 90}, {"time": 1891, "pitch": 72, "duration": 2, "velocity": 83}, {"time": 1897, "pitch": 60, "duration": 17, "velocity": 90}, {"time": 1897, "pitch": 72, "duration": 3, "velocity": 85}, {"time": 1897, "pitch": 76, "duration": 6, "velocity": 90}, {"time": 1900, "pitch": 67, "duration": 13, "velocity": 79}, {"time": 1903, "pitch": 72, "duration": 5, "velocity": 93}, {"time": 1906, "pitch": 79, "duration": 4, "velocity": 87}, {"time": 1909, "pitch": 72, "duration": 1, "velocity": 77}, {"time": 1909, "pitch": 84, "duration": 6, "velocity": 95}, {"time": 1912, "pitch": 79, "duration": 6, "velocity": 84}, {"time": 1915, "pitch": 72, "duration": 3, "velocity": 83}, {"time": 1921, "pitch": 62, "duration": 15, "velocity": 91}, {"time": 1921, "pitch": 74, "duration": 3, "velocity": 84}, {"time": 1921, "pitch": 77, "duration": 5, "velocity": 86}, {"time": 1924, "pitch": 69, "duration": 11, "velocity": 79}, {"time": 1927, "pitch": 74, "duration": 5, "velocity": 84}, {"time": 1930, "pitch": 77, "duration": 5, "velocity": 89}, {"time": 1933, "pitch": 74, "duration": 2, "velocity": 42}, {"time": 1933, "pitch": 86, "duration": 6, "velocity": 100}, {"time": 1936, "pitch": 81, "duration": 3, "velocity": 88}, {"time": 1939, "pitch": 77, "duration": 3, "velocity": 88}, {"time": 1942, "pitch": 74, "duration": 1, "velocity": 84}, {"time": 1945, "pitch": 57, "duration": 11, "velocity": 84}, {"time": 1945, "pitch": 69, "duration": 3, "velocity": 89}, {"time": 1945, "pitch": 72, "duration": 6, "velocity": 90}, {"time": 1948, "pitch": 64, "duration": 8, "velocity": 89}, {"time": 1951, "pitch": 69, "duration": 4, "velocity": 89}, {"time": 1954, "pitch": 72, "duration": 2, "velocity": 83}, {"time": 1957, "pitch": 57, "duration": 7, "velocity": 89}, {"time": 1957, "pitch": 69, "duration": 3, "velocity": 90}, {"time": 1957, "pitch": 72, "duration": 7, "velocity": 89}, {"time": 1957, "pitch": 76, "duration": 7, "velocity": 95}, {"time": 1963, "pitch": 69, "duration": 2, "velocity": 89}, {"time": 1969, "pitch": 58, "duration": 11, "velocity": 90}, {"time": 1969, "pitch": 70, "duration": 2, "velocity": 84}, {"time": 1969, "pitch": 74, "duration": 6, "velocity": 89}, {"time": 1972, "pitch": 65, "duration": 7, "velocity": 79}, {"time": 1975, "pitch": 70, "duration": 4, "velocity": 85}, {"time": 1978, "pitch": 74, "duration": 2, "velocity": 83}, {"time": 1981, "pitch": 65, "duration": 7, "velocity": 89}, {"time": 1981, "pitch": 70, "duration": 3, "velocity": 80}, {"time": 1981, "pitch": 74, "duration": 1, "velocity": 80}, {"time": 1981, "pitch": 77, "duration": 10, "velocity": 90}, {"time": 1987, "pitch": 74, "duration": 4, "velocity": 84}, {"time": 1990, "pitch": 70, "duration": 2, "velocity": 78}, {"time": 1993, "pitch": 53, "duration": 19, "velocity": 86}, {"time": 1993, "pitch": 69, "duration": 2, "velocity": 78}, {"time": 1993, "pitch": 72, "duration": 6, "velocity": 83}, {"time": 1996, "pitch": 60, "duration": 16, "velocity": 77}, {"time": 1999, "pitch": 69, "duration": 4, "velocity": 82}, {"time": 2002, "pitch": 72, "duration": 2, "velocity": 89}, {"time": 2005, "pitch": 69, "duration": 3, "velocity": 90}, {"time": 2005, "pitch": 72, "duration": 4, "velocity": 98}, {"time": 2005, "pitch": 77, "duration": 7, "velocity": 90}, {"time": 2011, "pitch": 69, "duration": 2, "velocity": 84}, {"time": 2017, "pitch": 55, "duration": 9, "velocity": 89}, {"time": 2017, "pitch": 67, "duration": 1, "velocity": 71}, {"time": 2017, "pitch": 70, "duration": 6, "velocity": 77}, {"time": 2017, "pitch": 74, "duration": 10, "velocity": 85}, {"time": 2020, "pitch": 62, "duration": 6, "velocity": 78}, {"time": 2023, "pitch": 67, "duration": 4, "velocity": 89}, {"time": 2026, "pitch": 70, "duration": 2, "velocity": 65}, {"time": 2029, "pitch": 60, "duration": 7, "velocity": 90}, {"time": 2029, "pitch": 67, "duration": 2, "velocity": 89}, {"time": 2029, "pitch": 72, "duration": 4, "velocity": 90}, {"time": 2032, "pitch": 67, "duration": 4, "velocity": 84}, {"time": 2035, "pitch": 72, "duration": 3, "velocity": 83}, {"time": 2041, "pitch": 53, "duration": 22, "velocity": 89}, {"time": 2041, "pitch": 69, "duration": 2, "velocity": 85}, {"time": 2041, "pitch": 77, "duration": 7, "velocity": 88}, {"time": 2044, "pitch": 60, "duration": 16, "velocity": 82}, {"time": 2047, "pitch": 69, "duration": 4, "velocity": 85}, {"time": 2050, "pitch": 72, "duration": 3, "velocity": 84}, {"time": 2053, "pitch": 77, "duration": 7, "velocity": 92}, {"time": 2056, "pitch": 72, "duration": 3, "velocity": 90}, {"time": 2059, "pitch": 69, "duration": 5, "velocity": 82}, {"time": 2062, "pitch": 72, "duration": 2, "velocity": 73}, {"time": 2065, "pitch": 53, "duration": 1, "velocity": 90}, {"time": 2065, "pitch": 69, "duration": 3, "velocity": 81}, {"time": 2065, "pitch": 72, "duration": 5, "velocity": 87}, {"time": 2065, "pitch": 77, "duration": 6, "velocity": 82}, {"time": 2071, "pitch": 65, "duration": 10, "velocity": 86}, {"time": 2074, "pitch": 72, "duration": 4, "velocity": 89}, {"time": 2077, "pitch": 77, "duration": 4, "velocity": 90}, {"time": 2080, "pitch": 72, "duration": 2, "velocity": 94}, {"time": 2083, "pitch": 81, "duration": 3, "velocity": 93}, {"time": 2086, "pitch": 77, "duration": 1, "velocity": 88}, {"time": 2089, "pitch": 58, "duration": 15, "velocity": 87}, {"time": 2092, "pitch": 65, "duration": 12, "velocity": 82}, {"time": 2095, "pitch": 70, "duration": 4, "velocity": 85}, {"time": 2098, "pitch": 74, "duration": 2, "velocity": 83}, {"time": 2101, "pitch": 70, "duration": 6, "velocity": 91}, {"time": 2101, "pitch": 74, "duration": 12, "velocity": 91}, {"time": 2101, "pitch": 77, "duration": 13, "velocity": 91}, {"time": 2107, "pitch": 65, "duration": 4, "velocity": 85}, {"time": 2110, "pitch": 70, "duration": 2, "velocity": 82}, {"time": 2113, "pitch": 60, "duration": 17, "velocity": 94}, {"time": 2116, "pitch": 67, "duration": 10, "velocity": 79}, {"time": 2119, "pitch": 72, "duration": 4, "velocity": 90}, {"time": 2122, "pitch": 76, "duration": 1, "velocity": 90}, {"time": 2125, "pitch": 72, "duration": 4, "velocity": 91}, {"time": 2125, "pitch": 76, "duration": 4, "velocity": 92}, {"time": 2125, "pitch": 79, "duration": 7, "velocity": 91}, {"time": 2128, "pitch": 67, "duration": 2, "velocity": 85}, {"time": 2131, "pitch": 72, "duration": 4, "velocity": 90}, {"time": 2134, "pitch": 76, "duration": 1, "velocity": 88}, {"time": 2137, "pitch": 57, "duration": 19, "velocity": 89}, {"time": 2137, "pitch": 69, "duration": 4, "velocity": 90}, {"time": 2137, "pitch": 72, "duration": 6, "velocity": 95}, {"time": 2140, "pitch": 64, "duration": 10, "velocity": 83}, {"time": 2143, "pitch": 69, "duration": 4, "velocity": 84}, {"time": 2146, "pitch": 72, "duration": 1, "velocity": 83}, {"time": 2149, "pitch": 69, "duration": 3, "velocity": 90}, {"time": 2149, "pitch": 76, "duration": 7, "velocity": 95}, {"time": 2152, "pitch": 64, "duration": 4, "velocity": 85}, {"time": 2155, "pitch": 69, "duration": 4, "velocity": 86}, {"time": 2161, "pitch": 58, "duration": 17, "velocity": 91}, {"time": 2161, "pitch": 70, "duration": 3, "velocity": 82}, {"time": 2161, "pitch": 74, "duration": 5, "velocity": 87}, {"time": 2164, "pitch": 65, "duration": 13, "velocity": 74}, {"time": 2167, "pitch": 70, "duration": 4, "velocity": 75}, {"time": 2170, "pitch": 74, "duration": 4, "velocity": 88}, {"time": 2173, "pitch": 77, "duration": 6, "velocity": 95}, {"time": 2176, "pitch": 74, "duration": 3, "velocity": 93}, {"time": 2179, "pitch": 70, "duration": 4, "velocity": 91}, {"time": 2182, "pitch": 74, "duration": 1, "velocity": 82}, {"time": 2185, "pitch": 55, "duration": 17, "velocity": 89}, {"time": 2185, "pitch": 67, "duration": 10, "velocity": 89}, {"time": 2188, "pitch": 62, "duration": 14, "velocity": 76}, {"time": 2191, "pitch": 70, "duration": 4, "velocity": 90}, {"time": 2194, "pitch": 74, "duration": 4, "velocity": 82}, {"time": 2197, "pitch": 79, "duration": 11, "velocity": 94}, {"time": 2200, "pitch": 74, "duration": 4, "velocity": 87}, {"time": 2203, "pitch": 70, "duration": 4, "velocity": 81}, {"time": 2206, "pitch": 67, "duration": 2, "velocity": 84}, {"time": 2209, "pitch": 60, "duration": 16, "velocity": 91}, {"time": 2209, "pitch": 72, "duration": 4, "velocity": 84}, {"time": 2209, "pitch": 76, "duration": 4, "velocity": 90}, {"time": 2212, "pitch": 67, "duration": 13, "velocity": 80}, {"time": 2215, "pitch": 72, "duration": 5, "velocity": 93}, {"time": 2218, "pitch": 79, "duration": 3, "velocity": 84}, {"time": 2221, "pitch": 72, "duration": 1, "velocity": 78}, {"time": 2221, "pitch": 84, "duration": 4, "velocity": 96}, {"time": 2224, "pitch": 79, "duration": 4, "velocity": 88}, {"time": 2227, "pitch": 76, "duration": 3, "velocity": 90}, {"time": 2230, "pitch": 72, "duration": 1, "velocity": 90}, {"time": 2233, "pitch": 58, "duration": 16, "velocity": 85}, {"time": 2233, "pitch": 70, "duration": 3, "velocity": 89}, {"time": 2233, "pitch": 74, "duration": 6, "velocity": 89}, {"time": 2236, "pitch": 65, "duration": 13, "velocity": 85}, {"time": 2239, "pitch": 70, "duration": 4, "velocity": 90}, {"time": 2242, "pitch": 74, "duration": 3, "velocity": 85}, {"time": 2245, "pitch": 77, "duration": 7, "velocity": 95}, {"time": 2248, "pitch": 74, "duration": 4, "velocity": 91}, {"time": 2251, "pitch": 70, "duration": 3, "velocity": 90}, {"time": 2254, "pitch": 74, "duration": 2, "velocity": 80}, {"time": 2257, "pitch": 60, "duration": 22, "velocity": 89}, {"time": 2257, "pitch": 72, "duration": 4, "velocity": 88}, {"time": 2257, "pitch": 76, "duration": 6, "velocity": 94}, {"time": 2260, "pitch": 67, "duration": 19, "velocity": 84}, {"time": 2263, "pitch": 72, "duration": 8, "velocity": 86}, {"time": 2266, "pitch": 79, "duration": 4, "velocity": 86}, {"time": 2269, "pitch": 84, "duration": 4, "velocity": 98}, {"time": 2272, "pitch": 79, "duration": 4, "velocity": 88}, {"time": 2275, "pitch": 76, "duration": 4, "velocity": 89}, {"time": 2278, "pitch": 72, "duration": 2, "velocity": 87}, {"time": 2281, "pitch": 60, "duration": 22, "velocity": 94}, {"time": 2281, "pitch": 72, "duration": 3, "velocity": 90}, {"time": 2281, "pitch": 76, "duration": 5, "velocity": 91}, {"time": 2284, "pitch": 67, "duration": 7, "velocity": 84}, {"time": 2287, "pitch": 72, "duration": 8, "velocity": 86}, {"time": 2290, "pitch": 79, "duration": 6, "velocity": 89}, {"time": 2293, "pitch": 67, "duration": 5, "velocity": 85}, {"time": 2296, "pitch": 72, "duration": 1, "velocity": 80}, {"time": 2296, "pitch": 76, "duration": 5, "velocity": 92}, {"time": 2296, "pitch": 79, "duration": 1, "velocity": 71}, {"time": 2299, "pitch": 67, "duration": 4, "velocity": 82}, {"time": 2302, "pitch": 72, "duration": 2, "velocity": 84}, {"time": 2305, "pitch": 60, "duration": 4, "velocity": 100}, {"time": 2305, "pitch": 72, "duration": 5, "velocity": 86}, {"time": 2305, "pitch": 76, "duration": 4, "velocity": 93}, {"time": 2305, "pitch": 79, "duration": 4, "velocity": 88}, {"time": 2305, "pitch": 84, "duration": 4, "velocity": 89}, {"time": 2311, "pitch": 72, "duration": 5, "velocity": 86}, {"time": 2311, "pitch": 76, "duration": 5, "velocity": 91}, {"time": 2311, "pitch": 79, "duration": 5, "velocity": 87}, {"time": 2317, "pitch": 60, "duration": 8, "velocity": 94}, {"time": 2317, "pitch": 67, "duration": 8, "velocity": 90}, {"time": 2317, "pitch": 72, "duration": 4, "velocity": 87}, {"time": 2317, "pitch": 76, "duration": 4, "velocity": 96}, {"time": 2317, "pitch": 79, "duration": 4, "velocity": 91}, {"time": 2317, "pitch": 84, "duration": 4, "velocity": 90}, {"time": 2323, "pitch": 72, "duration": 4, "velocity": 84}, {"time": 2323, "pitch": 76, "duration": 4, "velocity": 89}, {"time": 2323, "pitch": 79, "duration": 4, "velocity": 84}, {"time": 2329, "pitch": 53, "duration": 17, "velocity": 89}, {"time": 2329, "pitch": 72, "duration": 5, "velocity": 81}, {"time": 2329, "pitch": 77, "duration": 7, "velocity": 85}, {"time": 2329, "pitch": 81, "duration": 7, "velocity": 85}, {"time": 2332, "pitch": 60, "duration": 11, "velocity": 71}, {"time": 2335, "pitch": 72, "duration": 5, "velocity": 91}, {"time": 2338, "pitch": 77, "duration": 2, "velocity": 83}, {"time": 2341, "pitch": 72, "duration": 4, "velocity": 91}, {"time": 2341, "pitch": 77, "duration": 7, "velocity": 90}, {"time": 2341, "pitch": 81, "duration": 7, "velocity": 90}, {"time": 2347, "pitch": 72, "duration": 3, "velocity": 83}, {"time": 2353, "pitch": 60, "duration": 10, "velocity": 91}, {"time": 2353, "pitch": 72, "duration": 3, "velocity": 82}, {"time": 2353, "pitch": 76, "duration": 5, "velocity": 85}, {"time": 2356, "pitch": 67, "duration": 7, "velocity": 85}, {"time": 2359, "pitch": 72, "duration": 5, "velocity": 89}, {"time": 2362, "pitch": 76, "duration": 2, "velocity": 89}, {"time": 2365, "pitch": 60, "duration": 6, "velocity": 90}, {"time": 2365, "pitch": 67, "duration": 6, "velocity": 89}, {"time": 2365, "pitch": 72, "duration": 3, "velocity": 88}, {"time": 2365, "pitch": 76, "duration": 7, "velocity": 91}, {"time": 2365, "pitch": 79, "duration": 7, "velocity": 90}, {"time": 2371, "pitch": 72, "duration": 2, "velocity": 86}, {"time": 2377, "pitch": 50, "duration": 16, "velocity": 90}, {"time": 2377, "pitch": 74, "duration": 2, "velocity": 83}, {"time": 2377, "pitch": 77, "duration": 4, "velocity": 84}, {"time": 2380, "pitch": 57, "duration": 12, "velocity": 78}, {"time": 2380, "pitch": 74, "duration": 7, "velocity": 86}, {"time": 2383, "pitch": 77, "duration": 4, "velocity": 90}, {"time": 2386, "pitch": 81, "duration": 2, "velocity": 81}, {"time": 2389, "pitch": 74, "duration": 3, "velocity": 91}, {"time": 2389, "pitch": 77, "duration": 3, "velocity": 89}, {"time": 2389, "pitch": 81, "duration": 3, "velocity": 89}, {"time": 2389, "pitch": 86, "duration": 5, "velocity": 96}, {"time": 2395, "pitch": 74, "duration": 2, "velocity": 89}, {"time": 2401, "pitch": 57, "duration": 18, "velocity": 89}, {"time": 2401, "pitch": 69, "duration": 3, "velocity": 80}, {"time": 2401, "pitch": 72, "duration": 4, "velocity": 85}, {"time": 2404, "pitch": 64, "duration": 14, "velocity": 83}, {"time": 2407, "pitch": 69, "duration": 4, "velocity": 78}, {"time": 2407, "pitch": 72, "duration": 4, "velocity": 78}, {"time": 2410, "pitch": 76, "duration": 3, "velocity": 89}, {"time": 2413, "pitch": 81, "duration": 6, "velocity": 91}, {"time": 2416, "pitch": 76, "duration": 4, "velocity": 93}, {"time": 2419, "pitch": 72, "duration": 3, "velocity": 93}, {"time": 2422, "pitch": 69, "duration": 2, "velocity": 87}, {"time": 2425, "pitch": 58, "duration": 15, "velocity": 87}, {"time": 2425, "pitch": 70, "duration": 5, "velocity": 72}, {"time": 2425, "pitch": 74, "duration": 10, "velocity": 81}, {"time": 2431, "pitch": 65, "duration": 7, "velocity": 83}, {"time": 2434, "pitch": 70, "duration": 2, "velocity": 73}, {"time": 2437, "pitch": 70, "duration": 3, "velocity": 89}, {"time": 2437, "pitch": 74, "duration": 6, "velocity": 90}, {"time": 2437, "pitch": 77, "duration": 9, "velocity": 89}, {"time": 2440, "pitch": 65, "duration": 2, "velocity": 82}, {"time": 2443, "pitch": 70, "duration": 4, "velocity": 89}, {"time": 2446, "pitch": 74, "duration": 2, "velocity": 82}, {"time": 2449, "pitch": 53, "duration": 17, "velocity": 78}, {"time": 2449, "pitch": 69, "duration": 2, "velocity": 81}, {"time": 2449, "pitch": 72, "duration": 6, "velocity": 85}, {"time": 2452, "pitch": 60, "duration": 11, "velocity": 85}, {"time": 2455, "pitch": 69, "duration": 4, "velocity": 91}, {"time": 2458, "pitch": 72, "duration": 2, "velocity": 89}, {"time": 2461, "pitch": 69, "duration": 4, "velocity": 89}, {"time": 2461, "pitch": 72, "duration": 6, "velocity": 94}, {"time": 2461, "pitch": 77, "duration": 10, "velocity": 89}, {"time": 2467, "pitch": 69, "duration": 4, "velocity": 86}, {"time": 2470, "pitch": 74, "duration": 2, "velocity": 78}, {"time": 2473, "pitch": 55, "duration": 17, "velocity": 89}, {"time": 2473, "pitch": 69, "duration": 1, "velocity": 71}, {"time": 2473, "pitch": 70, "duration": 3, "velocity": 78}, {"time": 2476, "pitch": 62, "duration": 13, "velocity": 85}, {"time": 2479, "pitch": 67, "duration": 4, "velocity": 90}, {"time": 2482, "pitch": 74, "duration": 4, "velocity": 86}, {"time": 2485, "pitch": 67, "duration": 1, "velocity": 82}, {"time": 2485, "pitch": 79, "duration": 7, "velocity": 93}, {"time": 2488, "pitch": 74, "duration": 4, "velocity": 90}, {"time": 2491, "pitch": 70, "duration": 3, "velocity": 86}, {"time": 2494, "pitch": 67, "duration": 1, "velocity": 85}, {"time": 2497, "pitch": 60, "duration": 18, "velocity": 91}, {"time": 2497, "pitch": 72, "duration": 3, "velocity": 85}, {"time": 2497, "pitch": 76, "duration": 6, "velocity": 92}, {"time": 2500, "pitch": 67, "duration": 11, "velocity": 80}, {"time": 2503, "pitch": 72, "duration": 4, "velocity": 85}, {"time": 2506, "pitch": 74, "duration": 2, "velocity": 90}, {"time": 2509, "pitch": 76, "duration": 3, "velocity": 100}, {"time": 2512, "pitch": 72, "duration": 3, "velocity": 94}, {"time": 2515, "pitch": 67, "duration": 1, "velocity": 90}, {"time": 2518, "pitch": 72, "duration": 2, "velocity": 90}, {"time": 2521, "pitch": 53, "duration": 16, "velocity": 89}, {"time": 2521, "pitch": 72, "duration": 2, "velocity": 86}, {"time": 2521, "pitch": 77, "duration": 5, "velocity": 86}, {"time": 2524, "pitch": 60, "duration": 11, "velocity": 85}, {"time": 2527, "pitch": 72, "duration": 4, "velocity": 91}, {"time": 2530, "pitch": 77, "duration": 1, "velocity": 85}, {"time": 2533, "pitch": 72, "duration": 3, "velocity": 91}, {"time": 2533, "pitch": 77, "duration": 6, "velocity": 94}, {"time": 2533, "pitch": 81, "duration": 7, "velocity": 90}, {"time": 2539, "pitch": 72, "duration": 2, "velocity": 83}, {"time": 2545, "pitch": 60, "duration": 17, "velocity": 90}, {"time": 2545, "pitch": 72, "duration": 3, "velocity": 85}, {"time": 2545, "pitch": 76, "duration": 6, "velocity": 90}, {"time": 2548, "pitch": 67, "duration": 13, "velocity": 79}, {"time": 2551, "pitch": 72, "duration": 5, "velocity": 93}, {"time": 2554, "pitch": 79, "duration": 4, "velocity": 87}, {"time": 2557, "pitch": 72, "duration": 1, "velocity": 77}, {"time": 2557, "pitch": 84, "duration": 6, "velocity": 95}, {"time": 2560, "pitch": 79, "duration": 6, "velocity": 84}, {"time": 2563, "pitch": 72, "duration": 3, "velocity": 83}, {"time": 2569, "pitch": 62, "duration": 15, "velocity": 91}, {"time": 2569, "pitch": 74, "duration": 3, "velocity": 84}, {"time": 2569, "pitch": 77, "duration": 5, "velocity": 86}, {"time": 2572, "pitch": 69, "duration": 11, "velocity": 79}, {"time": 2575, "pitch": 74, "duration": 5, "velocity": 84}, {"time": 2578, "pitch": 77, "duration": 5, "velocity": 89}, {"time": 2581, "pitch": 74, "duration": 2, "velocity": 42}, {"time": 2581, "pitch": 86, "duration": 6, "velocity": 100}, {"time": 2584, "pitch": 81, "duration": 3, "velocity": 88}, {"time": 2587, "pitch": 77, "duration": 3, "velocity": 88}, {"time": 2590, "pitch": 74, "duration": 1, "velocity": 84}, {"time": 2593, "pitch": 57, "duration": 11, "velocity": 84}, {"time": 2593, "pitch": 69, "duration": 3, "velocity": 89}, {"time": 2593, "pitch": 72, "duration": 6, "velocity": 90}, {"time": 2596, "pitch": 64, "duration": 8, "velocity": 89}, {"time": 2599, "pitch": 69, "duration": 4, "velocity": 89}, {"time": 2602, "pitch": 72, "duration": 2, "velocity": 83}, {"time": 2605, "pitch": 57, "duration": 7, "velocity": 89}, {"time": 2605, "pitch": 69, "duration": 3, "velocity": 90}, {"time": 2605, "pitch": 72, "duration": 7, "velocity": 89}, {"time": 2605, "pitch": 76, "duration": 7, "velocity": 95}, {"time": 2611, "pitch": 69, "duration": 2, "velocity": 89}, {"time": 2617, "pitch": 58, "duration": 11, "velocity": 90}, {"time": 2617, "pitch": 70, "duration": 2, "velocity": 84}, {"time": 2617, "pitch": 74, "duration": 6, "velocity": 89}, {"time": 2620, "pitch": 65, "duration": 7, "velocity": 79}, {"time": 2623, "pitch": 70, "duration": 4, "velocity": 85}, {"time": 2626, "pitch": 74, "duration": 2, "velocity": 83}, {"time": 2629, "pitch": 65, "duration": 7, "velocity": 89}, {"time": 2629, "pitch": 70, "duration": 3, "velocity": 80}, {"time": 2629, "pitch": 74, "duration": 1, "velocity": 80}, {"time": 2629, "pitch": 77, "duration": 10, "velocity": 90}, {"time": 2635, "pitch": 74, "duration": 4, "velocity": 84}, {"time": 2638, "pitch": 70, "duration": 2, "velocity": 78}, {"time": 2641, "pitch": 53, "duration": 19, "velocity": 86}, {"time": 2641, "pitch": 69, "duration": 2, "velocity": 78}, {"time": 2641, "pitch": 72, "duration": 6, "velocity": 83}, {"time": 2644, "pitch": 60, "duration": 16, "velocity": 77}, {"time": 2647, "pitch": 69, "duration": 4, "velocity": 82}, {"time": 2650, "pitch": 72, "duration": 2, "velocity": 89}, {"time": 2653, "pitch": 69, "duration": 3, "velocity": 90}, {"time": 2653, "pitch": 72, "duration": 4, "velocity": 98}, {"time": 2653, "pitch": 77, "duration": 7, "velocity": 90}, {"time": 2659, "pitch": 69, "duration": 2, "velocity": 84}, {"time": 2665, "pitch": 55, "duration": 9, "velocity": 89}, {"time": 2665, "pitch": 67, "duration": 1, "velocity": 71}, {"time": 2665, "pitch": 70, "duration": 6, "velocity": 77}, {"time": 2665, "pitch": 74, "duration": 10, "velocity": 85}, {"time": 2668, "pitch": 62, "duration": 6, "velocity": 78}, {"time": 2671, "pitch": 67, "duration": 4, "velocity": 89}, {"time": 2674, "pitch": 70, "duration": 2, "velocity": 65}, {"time": 2677, "pitch": 60, "duration": 7, "velocity": 90}, {"time": 2677, "pitch": 67, "duration": 2, "velocity": 89}, {"time": 2677, "pitch": 72, "duration": 4, "velocity": 90}, {"time": 2680, "pitch": 67, "duration": 4, "velocity": 84}, {"time": 2683, "pitch": 72, "duration": 3, "velocity": 83}, {"time": 2689, "pitch": 53, "duration": 22, "velocity": 89}, {"time": 2689, "pitch": 69, "duration": 2, "velocity": 85}, {"time": 2689, "pitch": 77, "duration": 7, "velocity": 88}, {"time": 2692, "pitch": 60, "duration": 16, "velocity": 82}, {"time": 2695, "pitch": 69, "duration": 4, "velocity": 85}, {"time": 2698, "pitch": 72, "duration": 3, "velocity": 84}, {"time": 2701, "pitch": 77, "duration": 7, "velocity": 92}, {"time": 2704, "pitch": 72, "duration": 3, "velocity": 90}, {"time": 2707, "pitch": 69, "duration": 5, "velocity": 82}, {"time": 2710, "pitch": 72, "duration": 2, "velocity": 73}, {"time": 2713, "pitch": 53, "duration": 1, "velocity": 90}, {"time": 2713, "pitch": 69, "duration": 3, "velocity": 81}, {"time": 2713, "pitch": 72, "duration": 5, "velocity": 87}, {"time": 2713, "pitch": 77, "duration": 6, "velocity": 82}, {"time": 2719, "pitch": 65, "duration": 10, "velocity": 86}, {"time": 2722, "pitch": 72, "duration": 4, "velocity": 89}, {"time": 2725, "pitch": 77, "duration": 4, "velocity": 90}, {"time": 2728, "pitch": 72, "duration": 2, "velocity": 94}, {"time": 2731, "pitch": 81, "duration": 3, "velocity": 93}, {"time": 2734, "pitch": 77, "duration": 1, "velocity": 88}, {"time": 2737, "pitch": 58, "duration": 15, "velocity": 87}, {"time": 2740, "pitch": 65, "duration": 12, "velocity": 82}, {"time": 2743, "pitch": 70, "duration": 4, "velocity": 85}, {"time": 2746, "pitch": 74, "duration": 2, "velocity": 83}, {"time": 2749, "pitch": 70, "duration": 6, "velocity": 91}, {"time": 2749, "pitch": 74, "duration": 12, "velocity": 91}, {"time": 2749, "pitch": 77, "duration": 13, "velocity": 91}, {"time": 2755, "pitch": 65, "duration": 4, "velocity": 85}, {"time": 2758, "pitch": 70, "duration": 2, "velocity": 82}, {"time": 2761, "pitch": 60, "duration": 17, "velocity": 94}, {"time": 2764, "pitch": 67, "duration": 10, "velocity": 79}, {"time": 2767, "pitch": 72, "duration": 4, "velocity": 90}, {"time": 2770, "pitch": 76, "duration": 1, "velocity": 90}, {"time": 2773, "pitch": 72, "duration": 4, "velocity": 91}, {"time": 2773, "pitch": 76, "duration": 4, "velocity": 92}, {"time": 2773, "pitch": 79, "duration": 7, "velocity": 91}, {"time": 2776, "pitch": 67, "duration": 2, "velocity": 85}, {"time": 2779, "pitch": 72, "duration": 4, "velocity": 90}, {"time": 2782, "pitch": 76, "duration": 1, "velocity": 88}, {"time": 2785, "pitch": 57, "duration": 19, "velocity": 89}, {"time": 2785, "pitch": 69, "duration": 4, "velocity": 90}, {"time": 2785, "pitch": 72, "duration": 6, "velocity": 95}, {"time": 2788, "pitch": 64, "duration": 10, "velocity": 83}, {"time": 2791, "pitch": 69, "duration": 4, "velocity": 84}, {"time": 2794, "pitch": 72, "duration": 1, "velocity": 83}, {"time": 2797, "pitch": 69, "duration": 3, "velocity": 90}, {"time": 2797, "pitch": 76, "duration": 7, "velocity": 95}, {"time": 2800, "pitch": 64, "duration": 4, "velocity": 85}, {"time": 2803, "pitch": 69, "duration": 4, "velocity": 86}, {"time": 2809, "pitch": 58, "duration": 17, "velocity": 91}, {"time": 2809, "pitch": 70, "duration": 3, "velocity": 82}, {"time": 2809, "pitch": 74, "duration": 5, "velocity": 87}, {"time": 2812, "pitch": 65, "duration": 13, "velocity": 74}, {"time": 2815, "pitch": 70, "duration": 4, "velocity": 75}, {"time": 2818, "pitch": 74, "duration": 4, "velocity": 88}, {"time": 2821, "pitch": 77, "duration": 6, "velocity": 95}, {"time": 2824, "pitch": 74, "duration": 3, "velocity": 93}, {"time": 2827, "pitch": 70, "duration": 4, "velocity": 91}, {"time": 2830, "pitch": 74, "duration": 1, "velocity": 82}, {"time": 2833, "pitch": 55, "duration": 17, "velocity": 89}, {"time": 2833, "pitch": 67, "duration": 10, "velocity": 89}, {"time": 2836, "pitch": 62, "duration": 14, "velocity": 76}, {"time": 2839, "pitch": 70, "duration": 4, "velocity": 90}, {"time": 2842, "pitch": 74, "duration": 4, "velocity": 82}, {"time": 2845, "pitch": 79, "duration": 11, "velocity": 94}, {"time": 2848, "pitch": 74, "duration": 4, "velocity": 87}, {"time": 2851, "pitch": 70, "duration": 4, "velocity": 81}, {"time": 2854, "pitch": 67, "duration": 2, "velocity": 84}, {"time": 2857, "pitch": 58, "duration": 17, "velocity": 93}, {"time": 2857, "pitch": 70, "duration": 3, "velocity": 85}, {"time": 2857, "pitch": 74, "duration": 7, "velocity": 87}, {"time": 2860, "pitch": 65, "duration": 14, "velocity": 76}, {"time": 2863, "pitch": 70, "duration": 5, "velocity": 79}, {"time": 2866, "pitch": 74, "duration": 4, "velocity": 82}, {"time": 2869, "pitch": 77, "duration": 9, "velocity": 91}, {"time": 2872, "pitch": 74, "duration": 4, "velocity": 89}, {"time": 2875, "pitch": 70, "duration": 3, "velocity": 89}, {"time": 2878, "pitch": 74, "duration": 2, "velocity": 84}, {"time": 2881, "pitch": 60, "duration": 21, "velocity": 90}, {"time": 2881, "pitch": 72, "duration": 7, "velocity": 87}, {"time": 2884, "pitch": 67, "duration": 8, "velocity": 80}, {"time": 2887, "pitch": 74, "duration": 4, "velocity": 89}, {"time": 2890, "pitch": 76, "duration": 4, "velocity": 90}, {"time": 2893, "pitch": 67, "duration": 4, "velocity": 83}, {"time": 2896, "pitch": 72, "duration": 2, "velocity": 84}, {"time": 2896, "pitch": 79, "duration": 3, "velocity": 89}, {"time": 2899, "pitch": 67, "duration": 3, "velocity": 83}, {"time": 2902, "pitch": 72, "duration": 1, "velocity": 82}, {"time": 2905, "pitch": 60, "duration": 13, "velocity": 92}, {"time": 2905, "pitch": 72, "duration": 5, "velocity": 90}, {"time": 2905, "pitch": 84, "duration": 7, "velocity": 89}, {"time": 2911, "pitch": 67, "duration": 7, "velocity": 77}, {"time": 2914, "pitch": 72, "duration": 2, "velocity": 80}, {"time": 2917, "pitch": 72, "duration": 2, "velocity": 85}, {"time": 2917, "pitch": 79, "duration": 2, "velocity": 84}, {"time": 2927, "pitch": 77, "duration": 6, "velocity": 72}, {"time": 2928, "pitch": 53, "duration": 2, "velocity": 89}, {"time": 2929, "pitch": 89, "duration": 6, "velocity": 82}, {"time": 2933, "pitch": 65, "duration": 23, "velocity": 85}, {"time": 2936, "pitch": 72, "duration": 20, "velocity": 78}, {"time": 2940, "pitch": 77, "duration": 6, "velocity": 78}, {"time": 2944, "pitch": 79, "duration": 6, "velocity": 81}, {"time": 2950, "pitch": 81, "duration": 4, "velocity": 78}, {"time": 2959, "pitch": 65, "duration": 12, "velocity": 60}, {"time": 2961, "pitch": 72, "duration": 10, "velocity": 71}, {"time": 2961, "pitch": 77, "duration": 11, "velocity": 64}, {"time": 2962, "pitch": 81, "duration": 9, "velocity": 77}, {"time": 2963, "pitch": 84, "duration": 8, "velocity": 80}], "annotations": [{"time": 25, "annotation": {"number": 64, "value": 127}, "group": "control_change"}, {"time": 49, "annotation": {"number": 64, "value": 0}, "group": "control_change"}, {"time": 52, "annotation": {"number": 64, "value": 127}, "group": "control_change"}, {"time": 75, "annotation": {"number": 64, "value": 127}, "group": "control_change"}, {"time": 96, "annotation": {"number": 64, "value": 0}, "group": "control_change"}, {"time": 102, "annotation": {"number": 64, "value": 127}, "group": "control_change"}, {"time": 108, "annotation": {"number": 64, "value": 0}, "group": "control_change"}, {"time": 113, "annotation": {"number": 64, "value": 127}, "group": "control_change"}, {"time": 121, "annotation": {"number": 64, "value": 0}, "group": "control_change"}, {"time": 126, "annotation": {"number": 64, "value": 127}, "group": "control_change"}, {"time": 145, "annotation": {"number": 64, "value": 0}, "group": "control_change"}, {"time": 150, "annotation": {"number": 64, "value": 127}, "group": "control_change"}, {"time": 163, "annotation": {"number": 64, "value": 127}, "group": "control_change"}, {"time": 164, "annotation": {"number": 64, "value": 127}, "group": "control_change"}, {"time": 166, "annotation": {"number": 64, "value": 0}, "group": "control_change"}, {"time": 168, "annotation": {"number": 64, "value": 0}, "group": "control_change"}, {"time": 175, "annotation": {"number": 64, "value": 127}, "group": "control_change"}, {"time": 191, "annotation": {"number": 64, "value": 0}, "group": "control_change"}, {"time": 193, "annotation": {"number": 64, "value": 127}, "group": "control_change"}, {"time": 216, "annotation": {"number": 64, "value": 0}, "group": "control_change"}, {"time": 218, "annotation": {"number": 64, "value": 127}, "group": "control_change"}, {"time": 241, "annotation": {"number": 64, "value": 0}, "group": "control_change"}, {"time": 246, "annotation": {"number": 64, "value": 127}, "group": "control_change"}, {"time": 264, "annotation": {"number": 64, "value": 0}, "group": "control_change"}, {"time": 269, "annotation": {"number": 64, "value": 127}, "group": "control_change"}, {"time": 289, "annotation": {"number": 64, "value": 0}, "group": "control_change"}, {"time": 293, "annotation": {"number": 64, "value": 127}, "group": "control_change"}, {"time": 312, "annotation": {"number": 64, "value": 0}, "group": "control_change"}, {"time": 317, "annotation": {"number": 64, "value": 127}, "group": "control_change"}, {"time": 336, "annotation": {"number": 64, "value": 0}, "group": "control_change"}, {"time": 340, "annotation": {"number": 64, "value": 127}, "group": "control_change"}, {"time": 360, "annotation": {"number": 64, "value": 0}, "group": "control_change"}, {"time": 365, "annotation": {"number": 64, "value": 127}, "group": "control_change"}, {"time": 385, "annotation": {"number": 64, "value": 0}, "group": "control_change"}, {"time": 390, "annotation": {"number": 64, "value": 127}, "group": "control_change"}, {"time": 410, "annotation": {"number": 64, "value": 0}, "group": "control_change"}, {"time": 415, "annotation": {"number": 64, "value": 127}, "group": "control_change"}, {"time": 432, "annotation": {"number": 64, "value": 0}, "group": "control_change"}, {"time": 437, "annotation": {"number": 64, "value": 127}, "group": "control_change"}, {"time": 456, "annotation": {"number": 64, "value": 0}, "group": "control_change"}, {"time": 461, "annotation": {"number": 64, "value": 127}, "group": "control_change"}, {"time": 481, "annotation": {"number": 64, "value": 0}, "group": "control_change"}, {"time": 486, "annotation": {"number": 64, "value": 127}, "group": "control_change"}, {"time": 505, "annotation": {"number": 64, "value": 0}, "group": "control_change"}, {"time": 510, "annotation": {"number": 64, "value": 127}, "group": "control_change"}, {"time": 528, "annotation": {"number": 64, "value": 0}, "group": "control_change"}, {"time": 532, "annotation": {"number": 64, "value": 127}, "group": "control_change"}, {"time": 551, "annotation": {"number": 64, "value": 0}, "group": "control_change"}, {"time": 556, "annotation": {"number": 64, "value": 127}, "group": "control_change"}, {"time": 576, "annotation": {"number": 64, "value": 0}, "group": "control_change"}, {"time": 581, "annotation": {"number": 64, "value": 127}, "group": "control_change"}, {"time": 600, "annotation": {"number": 64, "value": 0}, "group": "control_change"}, {"time": 605, "annotation": {"number": 64, "value": 127}, "group": "control_change"}, {"time": 625, "annotation": {"number": 64, "value": 0}, "group": "control_change"}, {"time": 626, "annotation": {"number": 64, "value": 127}, "group": "control_change"}, {"time": 646, "annotation": {"number": 64, "value": 0}, "group": "control_change"}, {"time": 673, "annotation": {"number": 64, "value": 0}, "group": "control_change"}, {"time": 677, "annotation": {"number": 64, "value": 127}, "group": "control_change"}, {"time": 696, "annotation": {"number": 64, "value": 0}, "group": "control_change"}, {"time": 698, "annotation": {"number": 64, "value": 127}, "group": "control_change"}, {"time": 721, "annotation": {"number": 64, "value": 0}, "group": "control_change"}, {"time": 724, "annotation": {"number": 64, "value": 127}, "group": "control_change"}, {"time": 744, "annotation": {"number": 64, "value": 0}, "group": "control_change"}, {"time": 746, "annotation": {"number": 64, "value": 127}, "group": "control_change"}, {"time": 768, "annotation": {"number": 64, "value": 0}, "group": "control_change"}, {"time": 770, "annotation": {"number": 64, "value": 127}, "group": "control_change"}, {"time": 793, "annotation": {"number": 64, "value": 0}, "group": "control_change"}, {"time": 794, "annotation": {"number": 64, "value": 127}, "group": "control_change"}, {"time": 816, "annotation": {"number": 64, "value": 0}, "group": "control_change"}, {"time": 818, "annotation": {"number": 64, "value": 127}, "group": "control_change"}, {"time": 839, "annotation": {"number": 64, "value": 0}, "group": "control_change"}, {"time": 841, "annotation": {"number": 64, "value": 127}, "group": "control_change"}, {"time": 864, "annotation": {"number": 64, "value": 0}, "group": "control_change"}, {"time": 868, "annotation": {"number": 64, "value": 127}, "group": "control_change"}, {"time": 888, "annotation": {"number": 64, "value": 0}, "group": "control_change"}, {"time": 890, "annotation": {"number": 64, "value": 127}, "group": "control_change"}, {"time": 913, "annotation": {"number": 64, "value": 0}, "group": "control_change"}, {"time": 915, "annotation": {"number": 64, "value": 127}, "group": "control_change"}, {"time": 936, "annotation": {"number": 64, "value": 0}, "group": "control_change"}, {"time": 938, "annotation": {"number": 64, "value": 127}, "group": "control_change"}, {"time": 960, "annotation": {"number": 64, "value": 0}, "group": "control_change"}, {"time": 962, "annotation": {"number": 64, "value": 127}, "group": "control_change"}, {"time": 984, "annotation": {"number": 64, "value": 0}, "group": "control_change"}, {"time": 986, "annotation": {"number": 64, "value": 127}, "group": "control_change"}, {"time": 995, "annotation": {"number": 64, "value": 0}, "group": "control_change"}, {"time": 997, "annotation": {"number": 64, "value": 127}, "group": "control_change"}, {"time": 1008, "annotation": {"number": 64, "value": 0}, "group": "control_change"}, {"time": 1009, "annotation": {"number": 64, "value": 127}, "group": "control_change"}, {"time": 1031, "annotation": {"number": 64, "value": 0}, "group": "control_change"}, {"time": 1032, "annotation": {"number": 64, "value": 127}, "group": "control_change"}, {"time": 1057, "annotation": {"number": 64, "value": 0}, "group": "control_change"}, {"time": 1058, "annotation": {"number": 64, "value": 127}, "group": "control_change"}, {"time": 1080, "annotation": {"number": 64, "value": 0}, "group": "control_change"}, {"time": 1081, "annotation": {"number": 64, "value": 127}, "group": "control_change"}, {"time": 1106, "annotation": {"number": 64, "value": 0}, "group": "control_change"}, {"time": 1110, "annotation": {"number": 64, "value": 127}, "group": "control_change"}, {"time": 1129, "annotation": {"number": 64, "value": 0}, "group": "control_change"}, {"time": 1131, "annotation": {"number": 64, "value": 127}, "group": "control_change"}, {"time": 1153, "annotation": {"number": 64, "value": 0}, "group": "control_change"}, {"time": 1155, "annotation": {"number": 64, "value": 127}, "group": "control_change"}, {"time": 1176, "annotation": {"number": 64, "value": 0}, "group": "control_change"}, {"time": 1180, "annotation": {"number": 64, "value": 127}, "group": "control_change"}, {"time": 1200, "annotation": {"number": 64, "value": 0}, "group": "control_change"}, {"time": 1202, "annotation": {"number": 64, "value": 127}, "group": "control_change"}, {"time": 1224, "annotation": {"number": 64, "value": 0}, "group": "control_change"}, {"time": 1225, "annotation": {"number": 64, "value": 127}, "group": "control_change"}, {"time": 1247, "annotation": {"number": 64, "value": 0}, "group": "control_change"}, {"time": 1250, "annotation": {"number": 64, "value": 127}, "group": "control_change"}, {"time": 1273, "annotation": {"number": 64, "value": 0}, "group": "control_change"}, {"time": 1278, "annotation": {"number": 64, "value": 127}, "group": "control_change"}, {"time": 1296, "annotation": {"number": 64, "value": 0}, "group": "control_change"}, {"time": 1301, "annotation": {"number": 64, "value": 127}, "group": "control_change"}, {"time": 1321, "annotation": {"number": 64, "value": 0}, "group": "control_change"}, {"time": 1325, "annotation": {"number": 64, "value": 127}, "group": "control_change"}, {"time": 1344, "annotation": {"number": 64, "value": 0}, "group": "control_change"}, {"time": 1349, "annotation": {"number": 64, "value": 127}, "group": "control_change"}, {"time": 1368, "annotation": {"number": 64, "value": 0}, "group": "control_change"}, {"time": 1372, "annotation": {"number": 64, "value": 127}, "group": "control_change"}, {"time": 1392, "annotation": {"number": 64, "value": 0}, "group": "control_change"}, {"time": 1397, "annotation": {"number": 64, "value": 127}, "group": "control_change"}, {"time": 1417, "annotation": {"number": 64, "value": 0}, "group": "control_change"}, {"time": 1422, "annotation": {"number": 64, "value": 127}, "group": "control_change"}, {"time": 1442, "annotation": {"number": 64, "value": 0}, "group": "control_change"}, {"time": 1447, "annotation": {"number": 64, "value": 127}, "group": "control_change"}, {"time": 1464, "annotation": {"number": 64, "value": 0}, "group": "control_change"}, {"time": 1469, "annotation": {"number": 64, "value": 127}, "group": "control_change"}, {"time": 1488, "annotation": {"number": 64, "value": 0}, "group": "control_change"}, {"time": 1493, "annotation": {"number": 64, "value": 127}, "group": "control_change"}, {"time": 1513, "annotation": {"number": 64, "value": 0}, "group": "control_change"}, {"time": 1518, "annotation": {"number": 64, "value": 127}, "group": "control_change"}, {"time": 1537, "annotation": {"number": 64, "value": 0}, "group": "control_change"}, {"time": 1542, "annotation": {"number": 64, "value": 127}, "group": "control_change"}, {"time": 1560, "annotation": {"number": 64, "value": 0}, "group": "control_change"}, {"time": 1564, "annotation": {"number": 64, "value": 127}, "group": "control_change"}, {"time": 1583, "annotation": {"number": 64, "value": 0}, "group": "control_change"}, {"time": 1588, "annotation": {"number": 64, "value": 127}, "group": "control_change"}, {"time": 1608, "annotation": {"number": 64, "value": 0}, "group": "control_change"}, {"time": 1613, "annotation": {"number": 64, "value": 127}, "group": "control_change"}, {"time": 1632, "annotation": {"number": 64, "value": 0}, "group": "control_change"}, {"time": 1637, "annotation": {"number": 64, "value": 127}, "group": "control_change"}, {"time": 1657, "annotation": {"number": 64, "value": 0}, "group": "control_change"}, {"time": 1658, "annotation": {"number": 64, "value": 127}, "group": "control_change"}, {"time": 1678, "annotation": {"number": 64, "value": 0}, "group": "control_change"}, {"time": 1705, "annotation": {"number": 64, "value": 0}, "group": "control_change"}, {"time": 1709, "annotation": {"number": 64, "value": 127}, "group": "control_change"}, {"time": 1728, "annotation": {"number": 64, "value": 0}, "group": "control_change"}, {"time": 1730, "annotation": {"number": 64, "value": 127}, "group": "control_change"}, {"time": 1753, "annotation": {"number": 64, "value": 0}, "group": "control_change"}, {"time": 1756, "annotation": {"number": 64, "value": 127}, "group": "control_change"}, {"time": 1776, "annotation": {"number": 64, "value": 0}, "group": "control_change"}, {"time": 1778, "annotation": {"number": 64, "value": 127}, "group": "control_change"}, {"time": 1800, "annotation": {"number": 64, "value": 0}, "group": "control_change"}, {"time": 1802, "annotation": {"number": 64, "value": 127}, "group": "control_change"}, {"time": 1825, "annotation": {"number": 64, "value": 0}, "group": "control_change"}, {"time": 1826, "annotation": {"number": 64, "value": 127}, "group": "control_change"}, {"time": 1848, "annotation": {"number": 64, "value": 0}, "group": "control_change"}, {"time": 1850, "annotation": {"number": 64, "value": 127}, "group": "control_change"}, {"time": 1871, "annotation": {"number": 64, "value": 0}, "group": "control_change"}, {"time": 1873, "annotation": {"number": 64, "value": 127}, "group": "control_change"}, {"time": 1896, "annotation": {"number": 64, "value": 0}, "group": "control_change"}, {"time": 1900, "annotation": {"number": 64, "value": 127}, "group": "control_change"}, {"time": 1920, "annotation": {"number": 64, "value": 0}, "group": "control_change"}, {"time": 1922, "annotation": {"number": 64, "value": 127}, "group": "control_change"}, {"time": 1945, "annotation": {"number": 64, "value": 0}, "group": "control_change"}, {"time": 1947, "annotation": {"number": 64, "value": 127}, "group": "control_change"}, {"time": 1968, "annotation": {"number": 64, "value": 0}, "group": "control_change"}, {"time": 1970, "annotation": {"number": 64, "value": 127}, "group": "control_change"}, {"time": 1992, "annotation": {"number": 64, "value": 0}, "group": "control_change"}, {"time": 1994, "annotation": {"number": 64, "value": 127}, "group": "control_change"}, {"time": 2016, "annotation": {"number": 64, "value": 0}, "group": "control_change"}, {"time": 2018, "annotation": {"number": 64, "value": 127}, "group": "control_change"}, {"time": 2027, "annotation": {"number": 64, "value": 0}, "group": "control_change"}, {"time": 2029, "annotation": {"number": 64, "value": 127}, "group": "control_change"}, {"time": 2040, "annotation": {"number": 64, "value": 0}, "group": "control_change"}, {"time": 2041, "annotation": {"number": 64, "value": 127}, "group": "control_change"}, {"time": 2063, "annotation": {"number": 64, "value": 0}, "group": "control_change"}, {"time": 2064, "annotation": {"number": 64, "value": 127}, "group": "control_change"}, {"time": 2089, "annotation": {"number": 64, "value": 0}, "group": "control_change"}, {"time": 2090, "annotation": {"number": 64, "value": 127}, "group": "control_change"}, {"time": 2112, "annotation": {"number": 64, "value": 0}, "group": "control_change"}, {"time": 2113, "annotation": {"number": 64, "value": 127}, "group": "control_change"}, {"time": 2138, "annotation": {"number": 64, "value": 0}, "group": "control_change"}, {"time": 2142, "annotation": {"number": 64, "value": 127}, "group": "control_change"}, {"time": 2161, "annotation": {"number": 64, "value": 0}, "group": "control_change"}, {"time": 2163, "annotation": {"number": 64, "value": 127}, "group": "control_change"}, {"time": 2185, "annotation": {"number": 64, "value": 0}, "group": "control_change"}, {"time": 2187, "annotation": {"number": 64, "value": 127}, "group": "control_change"}, {"time": 2208, "annotation": {"number": 64, "value": 0}, "group": "control_change"}, {"time": 2210, "annotation": {"number": 64, "value": 127}, "group": "control_change"}, {"time": 2232, "annotation": {"number": 64, "value": 0}, "group": "control_change"}, {"time": 2234, "annotation": {"number": 64, "value": 127}, "group": "control_change"}, {"time": 2255, "annotation": {"number": 64, "value": 0}, "group": "control_change"}, {"time": 2260, "annotation": {"number": 64, "value": 127}, "group": "control_change"}, {"time": 2279, "annotation": {"number": 64, "value": 0}, "group": "control_change"}, {"time": 2280, "annotation": {"number": 64, "value": 127}, "group": "control_change"}, {"time": 2316, "annotation": {"number": 64, "value": 0}, "group": "control_change"}, {"time": 2317, "annotation": {"number": 64, "value": 127}, "group": "control_change"}, {"time": 2327, "annotation": {"number": 64, "value": 0}, "group": "control_change"}, {"time": 2353, "annotation": {"number": 64, "value": 0}, "group": "control_change"}, {"time": 2357, "annotation": {"number": 64, "value": 127}, "group": "control_change"}, {"time": 2376, "annotation": {"number": 64, "value": 0}, "group": "control_change"}, {"time": 2378, "annotation": {"number": 64, "value": 127}, "group": "control_change"}, {"time": 2401, "annotation": {"number": 64, "value": 0}, "group": "control_change"}, {"time": 2404, "annotation": {"number": 64, "value": 127}, "group": "control_change"}, {"time": 2424, "annotation": {"number": 64, "value": 0}, "group": "control_change"}, {"time": 2426, "annotation": {"number": 64, "value": 127}, "group": "control_change"}, {"time": 2448, "annotation": {"number": 64, "value": 0}, "group": "control_change"}, {"time": 2450, "annotation": {"number": 64, "value": 127}, "group": "control_change"}, {"time": 2473, "annotation": {"number": 64, "value": 0}, "group": "control_change"}, {"time": 2474, "annotation": {"number": 64, "value": 127}, "group": "control_change"}, {"time": 2496, "annotation": {"number": 64, "value": 0}, "group": "control_change"}, {"time": 2498, "annotation": {"number": 64, "value": 127}, "group": "control_change"}, {"time": 2519, "annotation": {"number": 64, "value": 0}, "group": "control_change"}, {"time": 2521, "annotation": {"number": 64, "value": 127}, "group": "control_change"}, {"time": 2544, "annotation": {"number": 64, "value": 0}, "group": "control_change"}, {"time": 2548, "annotation": {"number": 64, "value": 127}, "group": "control_change"}, {"time": 2568, "annotation": {"number": 64, "value": 0}, "group": "control_change"}, {"time": 2570, "annotation": {"number": 64, "value": 127}, "group": "control_change"}, {"time": 2593, "annotation": {"number": 64, "value": 0}, "group": "control_change"}, {"time": 2595, "annotation": {"number": 64, "value": 127}, "group": "control_change"}, {"time": 2616, "annotation": {"number": 64, "value": 0}, "group": "control_change"}, {"time": 2618, "annotation": {"number": 64, "value": 127}, "group": "control_change"}, {"time": 2640, "annotation": {"number": 64, "value": 0}, "group": "control_change"}, {"time": 2642, "annotation": {"number": 64, "value": 127}, "group": "control_change"}, {"time": 2664, "annotation": {"number": 64, "value": 0}, "group": "control_change"}, {"time": 2666, "annotation": {"number": 64, "value": 127}, "group": "control_change"}, {"time": 2675, "annotation": {"number": 64, "value": 0}, "group": "control_change"}, {"time": 2677, "annotation": {"number": 64, "value": 127}, "group": "control_change"}, {"time": 2688, "annotation": {"number": 64, "value": 0}, "group": "control_change"}, {"time": 2689, "annotation": {"number": 64, "value": 127}, "group": "control_change"}, {"time": 2711, "annotation": {"number": 64, "value": 0}, "group": "control_change"}, {"time": 2712, "annotation": {"number": 64, "value": 127}, "group": "control_change"}, {"time": 2737, "annotation": {"number": 64, "value": 0}, "group": "control_change"}, {"time": 2738, "annotation": {"number": 64, "value": 127}, "group": "control_change"}, {"time": 2760, "annotation": {"number": 64, "value": 0}, "group": "control_change"}, {"time": 2761, "annotation": {"number": 64, "value": 127}, "group": "control_change"}, {"time": 2786, "annotation": {"number": 64, "value": 0}, "group": "control_change"}, {"time": 2790, "annotation": {"number": 64, "value": 127}, "group": "control_change"}, {"time": 2809, "annotation": {"number": 64, "value": 0}, "group": "control_change"}, {"time": 2811, "annotation": {"number": 64, "value": 127}, "group": "control_change"}, {"time": 2833, "annotation": {"number": 64, "value": 0}, "group": "control_change"}, {"time": 2835, "annotation": {"number": 64, "value": 127}, "group": "control_change"}, {"time": 2856, "annotation": {"number": 64, "value": 0}, "group": "control_change"}, {"time": 2860, "annotation": {"number": 64, "value": 127}, "group": "control_change"}, {"time": 2880, "annotation": {"number": 64, "value": 0}, "group": "control_change"}, {"time": 2882, "annotation": {"number": 64, "value": 127}, "group": "control_change"}, {"time": 2904, "annotation": {"number": 64, "value": 0}, "group": "control_change"}, {"time": 2905, "annotation": {"number": 64, "value": 127}, "group": "control_change"}, {"time": 2927, "annotation": {"number": 64, "value": 0}, "group": "control_change"}, {"time": 2929, "annotation": {"number": 64, "value": 127}, "group": "control_change"}]}]}