{"metadata": {"schema_version": "0.2", "title": "None", "source_filename": "408.mid", "source_format": "midi"}, "resolution": 12, "tempos": [{"time": 0, "qpm": 68.0000725334107}, {"time": 423, "qpm": 67.5000675000675}, {"time": 426, "qpm": 66.75003003751351}, {"time": 427, "qpm": 66.25002760417817}, {"time": 431, "qpm": 64.75006475006475}, {"time": 432, "qpm": 64.0}, {"time": 1297, "qpm": 65.00013541694878}, {"time": 1596, "qpm": 66.000066000066}, {"time": 1608, "qpm": 67.00002903334591}, {"time": 1704, "qpm": 69.00009660013524}, {"time": 1884, "qpm": 67.00002903334591}, {"time": 1920, "qpm": 65.00013541694878}, {"time": 2388, "qpm": 66.000066000066}, {"time": 2472, "qpm": 65.00013541694878}, {"time": 2520, "qpm": 64.0}, {"time": 2760, "qpm": 65.00013541694878}, {"time": 3024, "qpm": 64.0}, {"time": 3072, "qpm": 65.00013541694878}, {"time": 3552, "qpm": 67.00002903334591}, {"time": 3576, "qpm": 68.0000725334107}], "time_signatures": [{"time": 0, "numerator": 1, "denominator": 4}], "tracks": [{"program": 0, "is_drum": false, "name": "MELODY", "notes": [{"time": 448, "pitch": 65, "duration": 1, "velocity": 94}, {"time": 451, "pitch": 65, "duration": 13, "velocity": 96}, {"time": 466, "pitch": 67, "duration": 5, "velocity": 95}, {"time": 472, "pitch": 69, "duration": 5, "velocity": 95}, {"time": 478, "pitch": 72, "duration": 9, "velocity": 93}, {"time": 493, "pitch": 69, "duration": 2, "velocity": 93}, {"time": 496, "pitch": 77, "duration": 16, "velocity": 93}, {"time": 514, "pitch": 76, "duration": 4, "velocity": 94}, {"time": 520, "pitch": 74, "duration": 5, "velocity": 94}, {"time": 526, "pitch": 72, "duration": 13, "velocity": 93}, {"time": 550, "pitch": 74, "duration": 4, "velocity": 98}, {"time": 556, "pitch": 74, "duration": 4, "velocity": 99}, {"time": 562, "pitch": 72, "duration": 4, "velocity": 94}, {"time": 568, "pitch": 72, "duration": 8, "velocity": 94}, {"time": 580, "pitch": 65, "duration": 4, "velocity": 98}, {"time": 586, "pitch": 67, "duration": 2, "velocity": 94}, {"time": 589, "pitch": 69, "duration": 8, "velocity": 94}, {"time": 598, "pitch": 67, "duration": 2, "velocity": 90}, {"time": 601, "pitch": 67, "duration": 21, "velocity": 92}, {"time": 637, "pitch": 65, "duration": 1, "velocity": 92}, {"time": 640, "pitch": 65, "duration": 18, "velocity": 96}, {"time": 658, "pitch": 67, "duration": 5, "velocity": 94}, {"time": 664, "pitch": 69, "duration": 6, "velocity": 92}, {"time": 670, "pitch": 72, "duration": 13, "velocity": 98}, {"time": 685, "pitch": 69, "duration": 2, "velocity": 92}, {"time": 688, "pitch": 77, "duration": 16, "velocity": 93}, {"time": 706, "pitch": 79, "duration": 5, "velocity": 96}, {"time": 712, "pitch": 77, "duration": 5, "velocity": 93}, {"time": 718, "pitch": 72, "duration": 11, "velocity": 98}, {"time": 733, "pitch": 70, "duration": 3, "velocity": 88}, {"time": 736, "pitch": 67, "duration": 14, "velocity": 94}, {"time": 754, "pitch": 67, "duration": 2, "velocity": 94}, {"time": 757, "pitch": 74, "duration": 2, "velocity": 98}, {"time": 760, "pitch": 72, "duration": 11, "velocity": 93}, {"time": 778, "pitch": 67, "duration": 2, "velocity": 93}, {"time": 781, "pitch": 69, "duration": 8, "velocity": 93}, {"time": 790, "pitch": 65, "duration": 34, "velocity": 96}, {"time": 832, "pitch": 67, "duration": 4, "velocity": 93}, {"time": 838, "pitch": 67, "duration": 11, "velocity": 96}, {"time": 850, "pitch": 65, "duration": 5, "velocity": 93}, {"time": 856, "pitch": 67, "duration": 13, "velocity": 94}, {"time": 874, "pitch": 65, "duration": 1, "velocity": 94}, {"time": 877, "pitch": 67, "duration": 1, "velocity": 93}, {"time": 880, "pitch": 69, "duration": 16, "velocity": 94}, {"time": 898, "pitch": 69, "duration": 1, "velocity": 96}, {"time": 901, "pitch": 67, "duration": 1, "velocity": 92}, {"time": 904, "pitch": 69, "duration": 14, "velocity": 94}, {"time": 925, "pitch": 65, "duration": 2, "velocity": 94}, {"time": 928, "pitch": 67, "duration": 3, "velocity": 99}, {"time": 934, "pitch": 67, "duration": 4, "velocity": 92}, {"time": 940, "pitch": 67, "duration": 5, "velocity": 94}, {"time": 946, "pitch": 65, "duration": 2, "velocity": 94}, {"time": 949, "pitch": 67, "duration": 9, "velocity": 94}, {"time": 964, "pitch": 74, "duration": 9, "velocity": 97}, {"time": 976, "pitch": 72, "duration": 3, "velocity": 98}, {"time": 982, "pitch": 72, "duration": 5, "velocity": 93}, {"time": 988, "pitch": 69, "duration": 30, "velocity": 93}, {"time": 1024, "pitch": 69, "duration": 2, "velocity": 97}, {"time": 1027, "pitch": 72, "duration": 5, "velocity": 96}, {"time": 1033, "pitch": 72, "duration": 1, "velocity": 94}, {"time": 1036, "pitch": 72, "duration": 5, "velocity": 96}, {"time": 1042, "pitch": 69, "duration": 2, "velocity": 95}, {"time": 1045, "pitch": 72, "duration": 16, "velocity": 96}, {"time": 1072, "pitch": 69, "duration": 2, "velocity": 94}, {"time": 1075, "pitch": 77, "duration": 4, "velocity": 98}, {"time": 1081, "pitch": 77, "duration": 1, "velocity": 95}, {"time": 1084, "pitch": 77, "duration": 3, "velocity": 98}, {"time": 1090, "pitch": 69, "duration": 1, "velocity": 95}, {"time": 1093, "pitch": 74, "duration": 19, "velocity": 97}, {"time": 1120, "pitch": 74, "duration": 3, "velocity": 96}, {"time": 1126, "pitch": 74, "duration": 3, "velocity": 98}, {"time": 1132, "pitch": 74, "duration": 4, "velocity": 101}, {"time": 1138, "pitch": 72, "duration": 2, "velocity": 95}, {"time": 1141, "pitch": 74, "duration": 13, "velocity": 97}, {"time": 1156, "pitch": 74, "duration": 1, "velocity": 101}, {"time": 1159, "pitch": 77, "duration": 4, "velocity": 96}, {"time": 1165, "pitch": 74, "duration": 1, "velocity": 99}, {"time": 1168, "pitch": 79, "duration": 36, "velocity": 96}, {"time": 1216, "pitch": 72, "duration": 4, "velocity": 98}, {"time": 1222, "pitch": 81, "duration": 10, "velocity": 97}, {"time": 1234, "pitch": 79, "duration": 1, "velocity": 93}, {"time": 1237, "pitch": 81, "duration": 22, "velocity": 93}, {"time": 1264, "pitch": 69, "duration": 4, "velocity": 97}, {"time": 1270, "pitch": 77, "duration": 10, "velocity": 93}, {"time": 1282, "pitch": 76, "duration": 1, "velocity": 95}, {"time": 1285, "pitch": 74, "duration": 21, "velocity": 98}, {"time": 1312, "pitch": 74, "duration": 4, "velocity": 109}, {"time": 1318, "pitch": 79, "duration": 10, "velocity": 96}, {"time": 1330, "pitch": 77, "duration": 1, "velocity": 93}, {"time": 1333, "pitch": 79, "duration": 16, "velocity": 96}, {"time": 1354, "pitch": 74, "duration": 1, "velocity": 103}, {"time": 1357, "pitch": 77, "duration": 1, "velocity": 94}, {"time": 1360, "pitch": 79, "duration": 1, "velocity": 94}, {"time": 1363, "pitch": 79, "duration": 4, "velocity": 94}, {"time": 1369, "pitch": 79, "duration": 1, "velocity": 93}, {"time": 1372, "pitch": 79, "duration": 4, "velocity": 95}, {"time": 1378, "pitch": 77, "duration": 1, "velocity": 96}, {"time": 1381, "pitch": 81, "duration": 6, "velocity": 89}, {"time": 1387, "pitch": 79, "duration": 13, "velocity": 96}, {"time": 1408, "pitch": 72, "duration": 4, "velocity": 96}, {"time": 1414, "pitch": 81, "duration": 10, "velocity": 99}, {"time": 1426, "pitch": 79, "duration": 1, "velocity": 93}, {"time": 1429, "pitch": 81, "duration": 21, "velocity": 94}, {"time": 1456, "pitch": 69, "duration": 4, "velocity": 96}, {"time": 1462, "pitch": 77, "duration": 11, "velocity": 96}, {"time": 1474, "pitch": 76, "duration": 1, "velocity": 93}, {"time": 1477, "pitch": 74, "duration": 14, "velocity": 93}, {"time": 1501, "pitch": 72, "duration": 2, "velocity": 99}, {"time": 1504, "pitch": 74, "duration": 4, "velocity": 106}, {"time": 1510, "pitch": 77, "duration": 1, "velocity": 96}, {"time": 1513, "pitch": 77, "duration": 9, "velocity": 96}, {"time": 1525, "pitch": 79, "duration": 1, "velocity": 96}, {"time": 1528, "pitch": 81, "duration": 5, "velocity": 96}, {"time": 1534, "pitch": 79, "duration": 9, "velocity": 98}, {"time": 1549, "pitch": 77, "duration": 3, "velocity": 88}, {"time": 1552, "pitch": 76, "duration": 6, "velocity": 96}, {"time": 1558, "pitch": 77, "duration": 37, "velocity": 98}, {"time": 1912, "pitch": 65, "duration": 16, "velocity": 96}, {"time": 1930, "pitch": 67, "duration": 5, "velocity": 95}, {"time": 1936, "pitch": 69, "duration": 5, "velocity": 95}, {"time": 1942, "pitch": 72, "duration": 9, "velocity": 93}, {"time": 1957, "pitch": 69, "duration": 2, "velocity": 93}, {"time": 1960, "pitch": 77, "duration": 16, "velocity": 93}, {"time": 1978, "pitch": 76, "duration": 4, "velocity": 94}, {"time": 1984, "pitch": 74, "duration": 5, "velocity": 94}, {"time": 1990, "pitch": 72, "duration": 13, "velocity": 93}, {"time": 2014, "pitch": 74, "duration": 4, "velocity": 98}, {"time": 2020, "pitch": 74, "duration": 4, "velocity": 99}, {"time": 2026, "pitch": 72, "duration": 4, "velocity": 94}, {"time": 2032, "pitch": 72, "duration": 8, "velocity": 94}, {"time": 2044, "pitch": 65, "duration": 4, "velocity": 98}, {"time": 2050, "pitch": 67, "duration": 2, "velocity": 94}, {"time": 2053, "pitch": 69, "duration": 8, "velocity": 94}, {"time": 2062, "pitch": 67, "duration": 2, "velocity": 90}, {"time": 2065, "pitch": 67, "duration": 21, "velocity": 92}, {"time": 2101, "pitch": 65, "duration": 1, "velocity": 92}, {"time": 2104, "pitch": 65, "duration": 18, "velocity": 96}, {"time": 2122, "pitch": 67, "duration": 5, "velocity": 94}, {"time": 2128, "pitch": 69, "duration": 6, "velocity": 92}, {"time": 2134, "pitch": 72, "duration": 13, "velocity": 98}, {"time": 2149, "pitch": 69, "duration": 2, "velocity": 92}, {"time": 2152, "pitch": 77, "duration": 16, "velocity": 93}, {"time": 2170, "pitch": 79, "duration": 5, "velocity": 96}, {"time": 2176, "pitch": 77, "duration": 5, "velocity": 93}, {"time": 2182, "pitch": 72, "duration": 11, "velocity": 98}, {"time": 2197, "pitch": 70, "duration": 3, "velocity": 88}, {"time": 2200, "pitch": 67, "duration": 14, "velocity": 94}, {"time": 2218, "pitch": 67, "duration": 2, "velocity": 94}, {"time": 2221, "pitch": 74, "duration": 2, "velocity": 98}, {"time": 2224, "pitch": 72, "duration": 11, "velocity": 93}, {"time": 2242, "pitch": 67, "duration": 2, "velocity": 93}, {"time": 2245, "pitch": 69, "duration": 8, "velocity": 93}, {"time": 2254, "pitch": 65, "duration": 34, "velocity": 96}, {"time": 2296, "pitch": 67, "duration": 4, "velocity": 93}, {"time": 2302, "pitch": 67, "duration": 11, "velocity": 96}, {"time": 2314, "pitch": 65, "duration": 5, "velocity": 93}, {"time": 2320, "pitch": 67, "duration": 13, "velocity": 94}, {"time": 2338, "pitch": 65, "duration": 1, "velocity": 94}, {"time": 2341, "pitch": 67, "duration": 1, "velocity": 93}, {"time": 2344, "pitch": 69, "duration": 16, "velocity": 94}, {"time": 2362, "pitch": 69, "duration": 1, "velocity": 96}, {"time": 2365, "pitch": 67, "duration": 1, "velocity": 92}, {"time": 2368, "pitch": 69, "duration": 14, "velocity": 94}, {"time": 2389, "pitch": 65, "duration": 2, "velocity": 94}, {"time": 2392, "pitch": 67, "duration": 3, "velocity": 99}, {"time": 2398, "pitch": 67, "duration": 4, "velocity": 92}, {"time": 2404, "pitch": 67, "duration": 5, "velocity": 94}, {"time": 2410, "pitch": 65, "duration": 2, "velocity": 94}, {"time": 2413, "pitch": 67, "duration": 9, "velocity": 94}, {"time": 2428, "pitch": 74, "duration": 9, "velocity": 97}, {"time": 2440, "pitch": 72, "duration": 3, "velocity": 98}, {"time": 2446, "pitch": 72, "duration": 5, "velocity": 93}, {"time": 2452, "pitch": 69, "duration": 30, "velocity": 93}, {"time": 2488, "pitch": 69, "duration": 2, "velocity": 97}, {"time": 2491, "pitch": 72, "duration": 5, "velocity": 96}, {"time": 2497, "pitch": 72, "duration": 1, "velocity": 94}, {"time": 2500, "pitch": 72, "duration": 5, "velocity": 96}, {"time": 2506, "pitch": 69, "duration": 2, "velocity": 95}, {"time": 2509, "pitch": 72, "duration": 16, "velocity": 96}, {"time": 2536, "pitch": 69, "duration": 2, "velocity": 94}, {"time": 2539, "pitch": 77, "duration": 4, "velocity": 98}, {"time": 2545, "pitch": 77, "duration": 1, "velocity": 95}, {"time": 2548, "pitch": 77, "duration": 3, "velocity": 98}, {"time": 2554, "pitch": 69, "duration": 1, "velocity": 95}, {"time": 2557, "pitch": 74, "duration": 19, "velocity": 97}, {"time": 2584, "pitch": 74, "duration": 3, "velocity": 96}, {"time": 2590, "pitch": 74, "duration": 3, "velocity": 98}, {"time": 2596, "pitch": 74, "duration": 4, "velocity": 101}, {"time": 2602, "pitch": 72, "duration": 2, "velocity": 95}, {"time": 2605, "pitch": 74, "duration": 13, "velocity": 97}, {"time": 2620, "pitch": 74, "duration": 1, "velocity": 101}, {"time": 2623, "pitch": 77, "duration": 4, "velocity": 96}, {"time": 2629, "pitch": 74, "duration": 1, "velocity": 99}, {"time": 2632, "pitch": 79, "duration": 36, "velocity": 96}, {"time": 2680, "pitch": 72, "duration": 4, "velocity": 98}, {"time": 2686, "pitch": 81, "duration": 10, "velocity": 97}, {"time": 2698, "pitch": 79, "duration": 1, "velocity": 93}, {"time": 2701, "pitch": 81, "duration": 22, "velocity": 93}, {"time": 2728, "pitch": 69, "duration": 4, "velocity": 97}, {"time": 2734, "pitch": 77, "duration": 10, "velocity": 93}, {"time": 2746, "pitch": 76, "duration": 1, "velocity": 95}, {"time": 2749, "pitch": 74, "duration": 21, "velocity": 98}, {"time": 2776, "pitch": 74, "duration": 4, "velocity": 109}, {"time": 2782, "pitch": 79, "duration": 10, "velocity": 96}, {"time": 2794, "pitch": 77, "duration": 1, "velocity": 93}, {"time": 2797, "pitch": 79, "duration": 16, "velocity": 96}, {"time": 2818, "pitch": 74, "duration": 1, "velocity": 103}, {"time": 2821, "pitch": 77, "duration": 1, "velocity": 94}, {"time": 2824, "pitch": 79, "duration": 1, "velocity": 94}, {"time": 2827, "pitch": 79, "duration": 4, "velocity": 94}, {"time": 2833, "pitch": 79, "duration": 1, "velocity": 93}, {"time": 2836, "pitch": 79, "duration": 4, "velocity": 95}, {"time": 2842, "pitch": 77, "duration": 1, "velocity": 96}, {"time": 2845, "pitch": 81, "duration": 6, "velocity": 89}, {"time": 2851, "pitch": 79, "duration": 13, "velocity": 96}, {"time": 2872, "pitch": 72, "duration": 4, "velocity": 96}, {"time": 2878, "pitch": 81, "duration": 10, "velocity": 99}, {"time": 2890, "pitch": 79, "duration": 1, "velocity": 93}, {"time": 2893, "pitch": 81, "duration": 21, "velocity": 94}, {"time": 2920, "pitch": 69, "duration": 4, "velocity": 96}, {"time": 2926, "pitch": 77, "duration": 11, "velocity": 96}, {"time": 2938, "pitch": 76, "duration": 1, "velocity": 93}, {"time": 2941, "pitch": 74, "duration": 14, "velocity": 93}, {"time": 2965, "pitch": 72, "duration": 2, "velocity": 99}, {"time": 2968, "pitch": 74, "duration": 4, "velocity": 106}, {"time": 2974, "pitch": 77, "duration": 1, "velocity": 96}, {"time": 2977, "pitch": 77, "duration": 9, "velocity": 96}, {"time": 2989, "pitch": 79, "duration": 1, "velocity": 96}, {"time": 2992, "pitch": 81, "duration": 5, "velocity": 96}, {"time": 2998, "pitch": 79, "duration": 9, "velocity": 98}, {"time": 3013, "pitch": 77, "duration": 3, "velocity": 88}, {"time": 3016, "pitch": 76, "duration": 6, "velocity": 96}, {"time": 3022, "pitch": 77, "duration": 37, "velocity": 98}, {"time": 3064, "pitch": 72, "duration": 4, "velocity": 98}, {"time": 3070, "pitch": 81, "duration": 10, "velocity": 97}, {"time": 3082, "pitch": 79, "duration": 1, "velocity": 93}, {"time": 3085, "pitch": 81, "duration": 22, "velocity": 93}, {"time": 3112, "pitch": 69, "duration": 4, "velocity": 97}, {"time": 3118, "pitch": 77, "duration": 10, "velocity": 93}, {"time": 3130, "pitch": 76, "duration": 1, "velocity": 95}, {"time": 3133, "pitch": 74, "duration": 21, "velocity": 98}, {"time": 3160, "pitch": 74, "duration": 4, "velocity": 109}, {"time": 3166, "pitch": 79, "duration": 10, "velocity": 96}, {"time": 3178, "pitch": 77, "duration": 1, "velocity": 93}, {"time": 3181, "pitch": 79, "duration": 16, "velocity": 96}, {"time": 3202, "pitch": 74, "duration": 1, "velocity": 103}, {"time": 3205, "pitch": 77, "duration": 1, "velocity": 94}, {"time": 3208, "pitch": 79, "duration": 1, "velocity": 94}, {"time": 3211, "pitch": 79, "duration": 4, "velocity": 94}, {"time": 3217, "pitch": 79, "duration": 1, "velocity": 93}, {"time": 3220, "pitch": 79, "duration": 4, "velocity": 95}, {"time": 3226, "pitch": 77, "duration": 1, "velocity": 96}, {"time": 3229, "pitch": 81, "duration": 6, "velocity": 89}, {"time": 3235, "pitch": 79, "duration": 13, "velocity": 96}, {"time": 3256, "pitch": 72, "duration": 4, "velocity": 96}, {"time": 3262, "pitch": 81, "duration": 10, "velocity": 99}, {"time": 3274, "pitch": 79, "duration": 1, "velocity": 93}, {"time": 3277, "pitch": 81, "duration": 21, "velocity": 94}, {"time": 3304, "pitch": 69, "duration": 4, "velocity": 96}, {"time": 3310, "pitch": 77, "duration": 11, "velocity": 96}, {"time": 3322, "pitch": 76, "duration": 1, "velocity": 93}, {"time": 3325, "pitch": 74, "duration": 14, "velocity": 93}, {"time": 3349, "pitch": 72, "duration": 2, "velocity": 99}, {"time": 3352, "pitch": 74, "duration": 4, "velocity": 106}, {"time": 3358, "pitch": 77, "duration": 1, "velocity": 96}, {"time": 3361, "pitch": 77, "duration": 9, "velocity": 96}, {"time": 3373, "pitch": 79, "duration": 1, "velocity": 96}, {"time": 3376, "pitch": 81, "duration": 5, "velocity": 96}, {"time": 3382, "pitch": 79, "duration": 9, "velocity": 98}, {"time": 3397, "pitch": 77, "duration": 3, "velocity": 88}, {"time": 3400, "pitch": 76, "duration": 6, "velocity": 96}, {"time": 3406, "pitch": 77, "duration": 37, "velocity": 98}, {"time": 3445, "pitch": 72, "duration": 2, "velocity": 99}, {"time": 3448, "pitch": 74, "duration": 4, "velocity": 106}, {"time": 3454, "pitch": 77, "duration": 1, "velocity": 96}, {"time": 3457, "pitch": 77, "duration": 9, "velocity": 96}, {"time": 3469, "pitch": 79, "duration": 1, "velocity": 96}, {"time": 3472, "pitch": 81, "duration": 5, "velocity": 96}, {"time": 3478, "pitch": 79, "duration": 9, "velocity": 98}, {"time": 3493, "pitch": 77, "duration": 3, "velocity": 88}, {"time": 3496, "pitch": 76, "duration": 6, "velocity": 96}, {"time": 3502, "pitch": 77, "duration": 37, "velocity": 98}]}, {"program": 0, "is_drum": false, "name": "PIANO", "notes": [{"time": 16, "pitch": 53, "duration": 17, "velocity": 85}, {"time": 22, "pitch": 65, "duration": 7, "velocity": 84}, {"time": 28, "pitch": 69, "duration": 24, "velocity": 94}, {"time": 40, "pitch": 50, "duration": 13, "velocity": 92}, {"time": 46, "pitch": 57, "duration": 7, "velocity": 79}, {"time": 52, "pitch": 65, "duration": 6, "velocity": 93}, {"time": 58, "pitch": 62, "duration": 6, "velocity": 84}, {"time": 64, "pitch": 43, "duration": 15, "velocity": 87}, {"time": 64, "pitch": 67, "duration": 14, "velocity": 86}, {"time": 70, "pitch": 50, "duration": 7, "velocity": 73}, {"time": 76, "pitch": 55, "duration": 2, "velocity": 88}, {"time": 76, "pitch": 62, "duration": 2, "velocity": 89}, {"time": 82, "pitch": 48, "duration": 21, "velocity": 89}, {"time": 82, "pitch": 55, "duration": 9, "velocity": 92}, {"time": 82, "pitch": 60, "duration": 15, "velocity": 92}, {"time": 94, "pitch": 55, "duration": 6, "velocity": 88}, {"time": 100, "pitch": 64, "duration": 10, "velocity": 93}, {"time": 112, "pitch": 45, "duration": 20, "velocity": 88}, {"time": 112, "pitch": 57, "duration": 10, "velocity": 83}, {"time": 112, "pitch": 60, "duration": 9, "velocity": 86}, {"time": 118, "pitch": 52, "duration": 13, "velocity": 75}, {"time": 124, "pitch": 57, "duration": 3, "velocity": 89}, {"time": 124, "pitch": 60, "duration": 6, "velocity": 92}, {"time": 136, "pitch": 50, "duration": 18, "velocity": 92}, {"time": 136, "pitch": 57, "duration": 9, "velocity": 87}, {"time": 136, "pitch": 62, "duration": 10, "velocity": 90}, {"time": 148, "pitch": 65, "duration": 7, "velocity": 93}, {"time": 154, "pitch": 57, "duration": 2, "velocity": 87}, {"time": 160, "pitch": 43, "duration": 14, "velocity": 93}, {"time": 160, "pitch": 55, "duration": 5, "velocity": 86}, {"time": 160, "pitch": 62, "duration": 8, "velocity": 89}, {"time": 166, "pitch": 55, "duration": 3, "velocity": 80}, {"time": 172, "pitch": 55, "duration": 1, "velocity": 94}, {"time": 172, "pitch": 62, "duration": 1, "velocity": 92}, {"time": 178, "pitch": 48, "duration": 23, "velocity": 86}, {"time": 178, "pitch": 55, "duration": 19, "velocity": 92}, {"time": 178, "pitch": 60, "duration": 17, "velocity": 93}, {"time": 196, "pitch": 60, "duration": 5, "velocity": 92}, {"time": 196, "pitch": 64, "duration": 5, "velocity": 95}, {"time": 208, "pitch": 41, "duration": 14, "velocity": 91}, {"time": 211, "pitch": 48, "duration": 10, "velocity": 86}, {"time": 214, "pitch": 53, "duration": 7, "velocity": 91}, {"time": 217, "pitch": 60, "duration": 3, "velocity": 87}, {"time": 220, "pitch": 65, "duration": 4, "velocity": 92}, {"time": 223, "pitch": 60, "duration": 4, "velocity": 92}, {"time": 226, "pitch": 53, "duration": 4, "velocity": 93}, {"time": 229, "pitch": 60, "duration": 3, "velocity": 86}, {"time": 232, "pitch": 48, "duration": 17, "velocity": 94}, {"time": 235, "pitch": 55, "duration": 3, "velocity": 94}, {"time": 238, "pitch": 60, "duration": 3, "velocity": 87}, {"time": 241, "pitch": 55, "duration": 3, "velocity": 88}, {"time": 244, "pitch": 64, "duration": 6, "velocity": 98}, {"time": 247, "pitch": 55, "duration": 3, "velocity": 92}, {"time": 250, "pitch": 60, "duration": 6, "velocity": 92}, {"time": 253, "pitch": 55, "duration": 3, "velocity": 87}, {"time": 256, "pitch": 50, "duration": 15, "velocity": 92}, {"time": 259, "pitch": 57, "duration": 3, "velocity": 87}, {"time": 262, "pitch": 62, "duration": 6, "velocity": 86}, {"time": 265, "pitch": 57, "duration": 3, "velocity": 81}, {"time": 268, "pitch": 65, "duration": 6, "velocity": 92}, {"time": 271, "pitch": 57, "duration": 3, "velocity": 86}, {"time": 274, "pitch": 62, "duration": 4, "velocity": 87}, {"time": 277, "pitch": 57, "duration": 4, "velocity": 89}, {"time": 280, "pitch": 48, "duration": 9, "velocity": 98}, {"time": 283, "pitch": 55, "duration": 3, "velocity": 93}, {"time": 286, "pitch": 60, "duration": 3, "velocity": 92}, {"time": 289, "pitch": 55, "duration": 3, "velocity": 89}, {"time": 292, "pitch": 41, "duration": 8, "velocity": 88}, {"time": 295, "pitch": 48, "duration": 5, "velocity": 89}, {"time": 298, "pitch": 53, "duration": 4, "velocity": 93}, {"time": 301, "pitch": 57, "duration": 3, "velocity": 75}, {"time": 304, "pitch": 46, "duration": 15, "velocity": 93}, {"time": 307, "pitch": 50, "duration": 13, "velocity": 82}, {"time": 310, "pitch": 53, "duration": 5, "velocity": 94}, {"time": 313, "pitch": 58, "duration": 3, "velocity": 87}, {"time": 316, "pitch": 62, "duration": 9, "velocity": 95}, {"time": 319, "pitch": 58, "duration": 3, "velocity": 93}, {"time": 322, "pitch": 53, "duration": 4, "velocity": 93}, {"time": 325, "pitch": 58, "duration": 2, "velocity": 98}, {"time": 328, "pitch": 45, "duration": 20, "velocity": 93}, {"time": 331, "pitch": 52, "duration": 10, "velocity": 81}, {"time": 334, "pitch": 57, "duration": 6, "velocity": 85}, {"time": 337, "pitch": 60, "duration": 3, "velocity": 93}, {"time": 340, "pitch": 64, "duration": 6, "velocity": 99}, {"time": 343, "pitch": 52, "duration": 4, "velocity": 87}, {"time": 346, "pitch": 57, "duration": 4, "velocity": 93}, {"time": 349, "pitch": 64, "duration": 4, "velocity": 94}, {"time": 352, "pitch": 43, "duration": 23, "velocity": 92}, {"time": 355, "pitch": 50, "duration": 19, "velocity": 82}, {"time": 358, "pitch": 55, "duration": 4, "velocity": 96}, {"time": 361, "pitch": 62, "duration": 7, "velocity": 93}, {"time": 364, "pitch": 58, "duration": 3, "velocity": 101}, {"time": 367, "pitch": 67, "duration": 3, "velocity": 93}, {"time": 370, "pitch": 62, "duration": 4, "velocity": 92}, {"time": 373, "pitch": 55, "duration": 4, "velocity": 93}, {"time": 376, "pitch": 43, "duration": 20, "velocity": 90}, {"time": 376, "pitch": 62, "duration": 9, "velocity": 93}, {"time": 379, "pitch": 50, "duration": 9, "velocity": 88}, {"time": 382, "pitch": 55, "duration": 4, "velocity": 94}, {"time": 385, "pitch": 58, "duration": 1, "velocity": 95}, {"time": 388, "pitch": 55, "duration": 3, "velocity": 93}, {"time": 388, "pitch": 58, "duration": 3, "velocity": 98}, {"time": 388, "pitch": 62, "duration": 10, "velocity": 98}, {"time": 391, "pitch": 50, "duration": 5, "velocity": 92}, {"time": 394, "pitch": 55, "duration": 4, "velocity": 90}, {"time": 400, "pitch": 48, "duration": 18, "velocity": 95}, {"time": 400, "pitch": 55, "duration": 6, "velocity": 93}, {"time": 400, "pitch": 60, "duration": 9, "velocity": 95}, {"time": 406, "pitch": 52, "duration": 12, "velocity": 76}, {"time": 409, "pitch": 55, "duration": 6, "velocity": 86}, {"time": 412, "pitch": 60, "duration": 3, "velocity": 85}, {"time": 415, "pitch": 64, "duration": 9, "velocity": 89}, {"time": 424, "pitch": 48, "duration": 15, "velocity": 87}, {"time": 424, "pitch": 55, "duration": 12, "velocity": 84}, {"time": 424, "pitch": 60, "duration": 12, "velocity": 88}, {"time": 448, "pitch": 41, "duration": 17, "velocity": 92}, {"time": 448, "pitch": 53, "duration": 11, "velocity": 86}, {"time": 448, "pitch": 57, "duration": 6, "velocity": 86}, {"time": 454, "pitch": 48, "duration": 10, "velocity": 83}, {"time": 460, "pitch": 53, "duration": 3, "velocity": 92}, {"time": 460, "pitch": 60, "duration": 8, "velocity": 88}, {"time": 466, "pitch": 53, "duration": 2, "velocity": 92}, {"time": 472, "pitch": 45, "duration": 17, "velocity": 92}, {"time": 472, "pitch": 57, "duration": 10, "velocity": 84}, {"time": 472, "pitch": 60, "duration": 7, "velocity": 87}, {"time": 478, "pitch": 52, "duration": 11, "velocity": 82}, {"time": 484, "pitch": 57, "duration": 4, "velocity": 92}, {"time": 484, "pitch": 64, "duration": 6, "velocity": 94}, {"time": 490, "pitch": 60, "duration": 6, "velocity": 84}, {"time": 496, "pitch": 46, "duration": 16, "velocity": 81}, {"time": 496, "pitch": 62, "duration": 13, "velocity": 86}, {"time": 502, "pitch": 53, "duration": 9, "velocity": 79}, {"time": 508, "pitch": 65, "duration": 12, "velocity": 94}, {"time": 514, "pitch": 58, "duration": 2, "velocity": 91}, {"time": 514, "pitch": 62, "duration": 1, "velocity": 36}, {"time": 520, "pitch": 41, "duration": 16, "velocity": 81}, {"time": 520, "pitch": 60, "duration": 8, "velocity": 83}, {"time": 526, "pitch": 57, "duration": 7, "velocity": 80}, {"time": 532, "pitch": 60, "duration": 1, "velocity": 56}, {"time": 532, "pitch": 65, "duration": 12, "velocity": 93}, {"time": 544, "pitch": 46, "duration": 22, "velocity": 87}, {"time": 544, "pitch": 62, "duration": 19, "velocity": 91}, {"time": 550, "pitch": 58, "duration": 6, "velocity": 80}, {"time": 556, "pitch": 53, "duration": 11, "velocity": 77}, {"time": 556, "pitch": 65, "duration": 12, "velocity": 93}, {"time": 562, "pitch": 58, "duration": 2, "velocity": 94}, {"time": 568, "pitch": 45, "duration": 16, "velocity": 83}, {"time": 568, "pitch": 60, "duration": 12, "velocity": 92}, {"time": 574, "pitch": 57, "duration": 7, "velocity": 83}, {"time": 580, "pitch": 65, "duration": 12, "velocity": 94}, {"time": 586, "pitch": 57, "duration": 6, "velocity": 88}, {"time": 592, "pitch": 43, "duration": 20, "velocity": 85}, {"time": 592, "pitch": 62, "duration": 13, "velocity": 86}, {"time": 598, "pitch": 55, "duration": 6, "velocity": 89}, {"time": 604, "pitch": 67, "duration": 7, "velocity": 92}, {"time": 607, "pitch": 62, "duration": 5, "velocity": 46}, {"time": 610, "pitch": 55, "duration": 5, "velocity": 94}, {"time": 616, "pitch": 48, "duration": 18, "velocity": 91}, {"time": 616, "pitch": 55, "duration": 3, "velocity": 89}, {"time": 616, "pitch": 60, "duration": 10, "velocity": 92}, {"time": 622, "pitch": 55, "duration": 7, "velocity": 87}, {"time": 628, "pitch": 60, "duration": 1, "velocity": 74}, {"time": 628, "pitch": 64, "duration": 6, "velocity": 103}, {"time": 634, "pitch": 60, "duration": 1, "velocity": 83}, {"time": 640, "pitch": 41, "duration": 16, "velocity": 92}, {"time": 640, "pitch": 53, "duration": 2, "velocity": 80}, {"time": 640, "pitch": 57, "duration": 12, "velocity": 82}, {"time": 646, "pitch": 53, "duration": 8, "velocity": 81}, {"time": 652, "pitch": 60, "duration": 7, "velocity": 92}, {"time": 658, "pitch": 53, "duration": 2, "velocity": 93}, {"time": 664, "pitch": 45, "duration": 17, "velocity": 76}, {"time": 664, "pitch": 60, "duration": 5, "velocity": 90}, {"time": 670, "pitch": 57, "duration": 7, "velocity": 87}, {"time": 676, "pitch": 64, "duration": 7, "velocity": 95}, {"time": 682, "pitch": 57, "duration": 6, "velocity": 92}, {"time": 688, "pitch": 46, "duration": 16, "velocity": 87}, {"time": 688, "pitch": 62, "duration": 12, "velocity": 90}, {"time": 694, "pitch": 58, "duration": 6, "velocity": 81}, {"time": 700, "pitch": 53, "duration": 4, "velocity": 81}, {"time": 700, "pitch": 65, "duration": 8, "velocity": 88}, {"time": 703, "pitch": 62, "duration": 7, "velocity": 36}, {"time": 706, "pitch": 58, "duration": 2, "velocity": 89}, {"time": 712, "pitch": 41, "duration": 16, "velocity": 81}, {"time": 712, "pitch": 60, "duration": 8, "velocity": 87}, {"time": 718, "pitch": 57, "duration": 7, "velocity": 82}, {"time": 724, "pitch": 60, "duration": 6, "velocity": 92}, {"time": 724, "pitch": 65, "duration": 13, "velocity": 93}, {"time": 730, "pitch": 57, "duration": 5, "velocity": 92}, {"time": 736, "pitch": 43, "duration": 21, "velocity": 90}, {"time": 736, "pitch": 62, "duration": 7, "velocity": 86}, {"time": 742, "pitch": 55, "duration": 7, "velocity": 92}, {"time": 748, "pitch": 58, "duration": 6, "velocity": 94}, {"time": 754, "pitch": 55, "duration": 3, "velocity": 94}, {"time": 760, "pitch": 48, "duration": 16, "velocity": 90}, {"time": 760, "pitch": 60, "duration": 12, "velocity": 92}, {"time": 766, "pitch": 55, "duration": 6, "velocity": 93}, {"time": 772, "pitch": 64, "duration": 7, "velocity": 96}, {"time": 778, "pitch": 55, "duration": 3, "velocity": 86}, {"time": 784, "pitch": 41, "duration": 21, "velocity": 89}, {"time": 784, "pitch": 53, "duration": 3, "velocity": 79}, {"time": 784, "pitch": 57, "duration": 7, "velocity": 82}, {"time": 790, "pitch": 53, "duration": 13, "velocity": 93}, {"time": 796, "pitch": 60, "duration": 7, "velocity": 93}, {"time": 802, "pitch": 57, "duration": 2, "velocity": 87}, {"time": 808, "pitch": 41, "duration": 17, "velocity": 91}, {"time": 808, "pitch": 53, "duration": 9, "velocity": 92}, {"time": 808, "pitch": 65, "duration": 6, "velocity": 89}, {"time": 814, "pitch": 48, "duration": 8, "velocity": 78}, {"time": 820, "pitch": 53, "duration": 4, "velocity": 93}, {"time": 820, "pitch": 60, "duration": 5, "velocity": 92}, {"time": 832, "pitch": 43, "duration": 18, "velocity": 92}, {"time": 832, "pitch": 70, "duration": 7, "velocity": 86}, {"time": 838, "pitch": 50, "duration": 10, "velocity": 74}, {"time": 838, "pitch": 62, "duration": 4, "velocity": 87}, {"time": 844, "pitch": 62, "duration": 3, "velocity": 97}, {"time": 844, "pitch": 70, "duration": 7, "velocity": 96}, {"time": 850, "pitch": 62, "duration": 7, "velocity": 85}, {"time": 856, "pitch": 43, "duration": 8, "velocity": 85}, {"time": 856, "pitch": 70, "duration": 9, "velocity": 87}, {"time": 862, "pitch": 62, "duration": 4, "velocity": 90}, {"time": 868, "pitch": 67, "duration": 9, "velocity": 96}, {"time": 874, "pitch": 62, "duration": 3, "velocity": 86}, {"time": 880, "pitch": 45, "duration": 21, "velocity": 92}, {"time": 880, "pitch": 69, "duration": 6, "velocity": 89}, {"time": 886, "pitch": 64, "duration": 4, "velocity": 87}, {"time": 892, "pitch": 52, "duration": 8, "velocity": 84}, {"time": 892, "pitch": 64, "duration": 2, "velocity": 96}, {"time": 892, "pitch": 69, "duration": 7, "velocity": 93}, {"time": 898, "pitch": 64, "duration": 7, "velocity": 86}, {"time": 904, "pitch": 45, "duration": 16, "velocity": 88}, {"time": 904, "pitch": 69, "duration": 7, "velocity": 87}, {"time": 904, "pitch": 72, "duration": 5, "velocity": 92}, {"time": 910, "pitch": 64, "duration": 3, "velocity": 86}, {"time": 916, "pitch": 64, "duration": 2, "velocity": 98}, {"time": 916, "pitch": 69, "duration": 5, "velocity": 93}, {"time": 928, "pitch": 43, "duration": 21, "velocity": 92}, {"time": 928, "pitch": 70, "duration": 6, "velocity": 93}, {"time": 934, "pitch": 62, "duration": 4, "velocity": 93}, {"time": 940, "pitch": 50, "duration": 7, "velocity": 80}, {"time": 940, "pitch": 62, "duration": 2, "velocity": 90}, {"time": 940, "pitch": 70, "duration": 6, "velocity": 93}, {"time": 946, "pitch": 62, "duration": 6, "velocity": 93}, {"time": 952, "pitch": 43, "duration": 18, "velocity": 84}, {"time": 952, "pitch": 67, "duration": 6, "velocity": 89}, {"time": 952, "pitch": 70, "duration": 7, "velocity": 93}, {"time": 958, "pitch": 62, "duration": 1, "velocity": 74}, {"time": 964, "pitch": 62, "duration": 2, "velocity": 92}, {"time": 964, "pitch": 67, "duration": 5, "velocity": 94}, {"time": 964, "pitch": 70, "duration": 5, "velocity": 95}, {"time": 976, "pitch": 41, "duration": 21, "velocity": 91}, {"time": 976, "pitch": 60, "duration": 2, "velocity": 86}, {"time": 976, "pitch": 69, "duration": 7, "velocity": 90}, {"time": 982, "pitch": 60, "duration": 3, "velocity": 80}, {"time": 988, "pitch": 65, "duration": 6, "velocity": 92}, {"time": 988, "pitch": 69, "duration": 7, "velocity": 92}, {"time": 994, "pitch": 60, "duration": 6, "velocity": 86}, {"time": 1000, "pitch": 41, "duration": 13, "velocity": 78}, {"time": 1000, "pitch": 65, "duration": 7, "velocity": 86}, {"time": 1000, "pitch": 69, "duration": 7, "velocity": 90}, {"time": 1006, "pitch": 60, "duration": 2, "velocity": 87}, {"time": 1012, "pitch": 60, "duration": 2, "velocity": 94}, {"time": 1012, "pitch": 65, "duration": 3, "velocity": 93}, {"time": 1012, "pitch": 69, "duration": 6, "velocity": 94}, {"time": 1018, "pitch": 67, "duration": 3, "velocity": 92}, {"time": 1024, "pitch": 45, "duration": 18, "velocity": 92}, {"time": 1024, "pitch": 69, "duration": 7, "velocity": 92}, {"time": 1030, "pitch": 52, "duration": 10, "velocity": 81}, {"time": 1030, "pitch": 57, "duration": 2, "velocity": 61}, {"time": 1036, "pitch": 57, "duration": 3, "velocity": 93}, {"time": 1036, "pitch": 60, "duration": 6, "velocity": 97}, {"time": 1042, "pitch": 57, "duration": 10, "velocity": 92}, {"time": 1048, "pitch": 45, "duration": 16, "velocity": 80}, {"time": 1048, "pitch": 60, "duration": 5, "velocity": 81}, {"time": 1048, "pitch": 64, "duration": 6, "velocity": 92}, {"time": 1054, "pitch": 52, "duration": 8, "velocity": 70}, {"time": 1060, "pitch": 57, "duration": 2, "velocity": 95}, {"time": 1060, "pitch": 60, "duration": 5, "velocity": 99}, {"time": 1066, "pitch": 57, "duration": 7, "velocity": 95}, {"time": 1072, "pitch": 50, "duration": 15, "velocity": 92}, {"time": 1072, "pitch": 65, "duration": 7, "velocity": 95}, {"time": 1078, "pitch": 57, "duration": 7, "velocity": 82}, {"time": 1084, "pitch": 62, "duration": 4, "velocity": 94}, {"time": 1084, "pitch": 65, "duration": 7, "velocity": 96}, {"time": 1090, "pitch": 57, "duration": 6, "velocity": 84}, {"time": 1096, "pitch": 50, "duration": 5, "velocity": 87}, {"time": 1096, "pitch": 62, "duration": 6, "velocity": 92}, {"time": 1096, "pitch": 65, "duration": 12, "velocity": 92}, {"time": 1102, "pitch": 57, "duration": 5, "velocity": 90}, {"time": 1108, "pitch": 48, "duration": 3, "velocity": 93}, {"time": 1108, "pitch": 60, "duration": 3, "velocity": 92}, {"time": 1108, "pitch": 64, "duration": 7, "velocity": 94}, {"time": 1120, "pitch": 46, "duration": 14, "velocity": 92}, {"time": 1120, "pitch": 58, "duration": 5, "velocity": 89}, {"time": 1120, "pitch": 62, "duration": 9, "velocity": 92}, {"time": 1126, "pitch": 53, "duration": 8, "velocity": 81}, {"time": 1132, "pitch": 58, "duration": 2, "velocity": 92}, {"time": 1132, "pitch": 62, "duration": 6, "velocity": 93}, {"time": 1132, "pitch": 65, "duration": 6, "velocity": 92}, {"time": 1138, "pitch": 58, "duration": 5, "velocity": 92}, {"time": 1144, "pitch": 46, "duration": 14, "velocity": 83}, {"time": 1144, "pitch": 58, "duration": 9, "velocity": 84}, {"time": 1144, "pitch": 62, "duration": 10, "velocity": 92}, {"time": 1150, "pitch": 53, "duration": 9, "velocity": 78}, {"time": 1156, "pitch": 58, "duration": 3, "velocity": 94}, {"time": 1156, "pitch": 62, "duration": 4, "velocity": 94}, {"time": 1156, "pitch": 65, "duration": 5, "velocity": 93}, {"time": 1162, "pitch": 46, "duration": 1, "velocity": 86}, {"time": 1168, "pitch": 36, "duration": 1, "velocity": 92}, {"time": 1168, "pitch": 60, "duration": 11, "velocity": 88}, {"time": 1168, "pitch": 64, "duration": 11, "velocity": 94}, {"time": 1174, "pitch": 48, "duration": 16, "velocity": 90}, {"time": 1180, "pitch": 55, "duration": 10, "velocity": 96}, {"time": 1183, "pitch": 60, "duration": 3, "velocity": 103}, {"time": 1186, "pitch": 62, "duration": 4, "velocity": 97}, {"time": 1189, "pitch": 64, "duration": 1, "velocity": 95}, {"time": 1192, "pitch": 48, "duration": 16, "velocity": 98}, {"time": 1192, "pitch": 60, "duration": 5, "velocity": 91}, {"time": 1192, "pitch": 64, "duration": 5, "velocity": 97}, {"time": 1192, "pitch": 67, "duration": 6, "velocity": 95}, {"time": 1198, "pitch": 55, "duration": 7, "velocity": 85}, {"time": 1201, "pitch": 60, "duration": 1, "velocity": 89}, {"time": 1204, "pitch": 60, "duration": 4, "velocity": 95}, {"time": 1204, "pitch": 64, "duration": 4, "velocity": 118}, {"time": 1204, "pitch": 67, "duration": 5, "velocity": 99}, {"time": 1204, "pitch": 72, "duration": 4, "velocity": 96}, {"time": 1207, "pitch": 55, "duration": 1, "velocity": 88}, {"time": 1210, "pitch": 60, "duration": 4, "velocity": 99}, {"time": 1216, "pitch": 41, "duration": 16, "velocity": 93}, {"time": 1216, "pitch": 65, "duration": 5, "velocity": 92}, {"time": 1216, "pitch": 69, "duration": 7, "velocity": 92}, {"time": 1219, "pitch": 48, "duration": 10, "velocity": 82}, {"time": 1222, "pitch": 60, "duration": 4, "velocity": 94}, {"time": 1225, "pitch": 65, "duration": 1, "velocity": 93}, {"time": 1228, "pitch": 60, "duration": 3, "velocity": 101}, {"time": 1228, "pitch": 65, "duration": 6, "velocity": 101}, {"time": 1228, "pitch": 69, "duration": 8, "velocity": 106}, {"time": 1231, "pitch": 48, "duration": 1, "velocity": 91}, {"time": 1234, "pitch": 60, "duration": 4, "velocity": 93}, {"time": 1237, "pitch": 65, "duration": 1, "velocity": 86}, {"time": 1240, "pitch": 45, "duration": 21, "velocity": 93}, {"time": 1240, "pitch": 57, "duration": 3, "velocity": 95}, {"time": 1240, "pitch": 64, "duration": 3, "velocity": 101}, {"time": 1243, "pitch": 52, "duration": 9, "velocity": 92}, {"time": 1246, "pitch": 57, "duration": 4, "velocity": 93}, {"time": 1249, "pitch": 61, "duration": 1, "velocity": 94}, {"time": 1252, "pitch": 57, "duration": 3, "velocity": 94}, {"time": 1252, "pitch": 61, "duration": 3, "velocity": 99}, {"time": 1252, "pitch": 69, "duration": 7, "velocity": 93}, {"time": 1255, "pitch": 52, "duration": 6, "velocity": 90}, {"time": 1258, "pitch": 57, "duration": 2, "velocity": 91}, {"time": 1264, "pitch": 50, "duration": 20, "velocity": 93}, {"time": 1264, "pitch": 65, "duration": 6, "velocity": 86}, {"time": 1267, "pitch": 53, "duration": 10, "velocity": 74}, {"time": 1270, "pitch": 57, "duration": 4, "velocity": 96}, {"time": 1273, "pitch": 62, "duration": 1, "velocity": 91}, {"time": 1276, "pitch": 57, "duration": 2, "velocity": 97}, {"time": 1276, "pitch": 62, "duration": 4, "velocity": 95}, {"time": 1276, "pitch": 65, "duration": 4, "velocity": 98}, {"time": 1279, "pitch": 53, "duration": 6, "velocity": 85}, {"time": 1282, "pitch": 57, "duration": 4, "velocity": 95}, {"time": 1282, "pitch": 62, "duration": 1, "velocity": 58}, {"time": 1282, "pitch": 65, "duration": 1, "velocity": 50}, {"time": 1285, "pitch": 62, "duration": 1, "velocity": 90}, {"time": 1288, "pitch": 50, "duration": 7, "velocity": 99}, {"time": 1288, "pitch": 57, "duration": 2, "velocity": 92}, {"time": 1288, "pitch": 62, "duration": 3, "velocity": 97}, {"time": 1288, "pitch": 65, "duration": 7, "velocity": 94}, {"time": 1291, "pitch": 53, "duration": 5, "velocity": 75}, {"time": 1294, "pitch": 57, "duration": 3, "velocity": 95}, {"time": 1294, "pitch": 62, "duration": 1, "velocity": 61}, {"time": 1297, "pitch": 65, "duration": 2, "velocity": 92}, {"time": 1300, "pitch": 48, "duration": 5, "velocity": 96}, {"time": 1300, "pitch": 60, "duration": 3, "velocity": 90}, {"time": 1300, "pitch": 64, "duration": 5, "velocity": 93}, {"time": 1303, "pitch": 55, "duration": 2, "velocity": 87}, {"time": 1306, "pitch": 60, "duration": 1, "velocity": 98}, {"time": 1312, "pitch": 46, "duration": 15, "velocity": 93}, {"time": 1312, "pitch": 58, "duration": 3, "velocity": 89}, {"time": 1312, "pitch": 62, "duration": 6, "velocity": 93}, {"time": 1315, "pitch": 53, "duration": 10, "velocity": 86}, {"time": 1318, "pitch": 58, "duration": 3, "velocity": 92}, {"time": 1321, "pitch": 62, "duration": 2, "velocity": 84}, {"time": 1324, "pitch": 58, "duration": 2, "velocity": 92}, {"time": 1324, "pitch": 62, "duration": 3, "velocity": 93}, {"time": 1324, "pitch": 65, "duration": 10, "velocity": 96}, {"time": 1327, "pitch": 53, "duration": 2, "velocity": 85}, {"time": 1330, "pitch": 58, "duration": 3, "velocity": 97}, {"time": 1330, "pitch": 62, "duration": 1, "velocity": 62}, {"time": 1333, "pitch": 62, "duration": 1, "velocity": 85}, {"time": 1336, "pitch": 43, "duration": 20, "velocity": 93}, {"time": 1336, "pitch": 55, "duration": 4, "velocity": 82}, {"time": 1336, "pitch": 62, "duration": 7, "velocity": 92}, {"time": 1339, "pitch": 50, "duration": 10, "velocity": 88}, {"time": 1342, "pitch": 55, "duration": 4, "velocity": 92}, {"time": 1345, "pitch": 62, "duration": 2, "velocity": 91}, {"time": 1348, "pitch": 55, "duration": 3, "velocity": 97}, {"time": 1348, "pitch": 62, "duration": 3, "velocity": 93}, {"time": 1348, "pitch": 67, "duration": 10, "velocity": 91}, {"time": 1351, "pitch": 50, "duration": 4, "velocity": 93}, {"time": 1354, "pitch": 55, "duration": 4, "velocity": 93}, {"time": 1357, "pitch": 62, "duration": 2, "velocity": 87}, {"time": 1360, "pitch": 48, "duration": 16, "velocity": 98}, {"time": 1360, "pitch": 55, "duration": 3, "velocity": 93}, {"time": 1360, "pitch": 60, "duration": 6, "velocity": 94}, {"time": 1363, "pitch": 52, "duration": 13, "velocity": 79}, {"time": 1366, "pitch": 55, "duration": 4, "velocity": 93}, {"time": 1369, "pitch": 60, "duration": 1, "velocity": 92}, {"time": 1372, "pitch": 55, "duration": 3, "velocity": 94}, {"time": 1372, "pitch": 62, "duration": 3, "velocity": 101}, {"time": 1375, "pitch": 60, "duration": 3, "velocity": 93}, {"time": 1378, "pitch": 55, "duration": 4, "velocity": 94}, {"time": 1381, "pitch": 60, "duration": 1, "velocity": 92}, {"time": 1384, "pitch": 48, "duration": 13, "velocity": 103}, {"time": 1384, "pitch": 55, "duration": 2, "velocity": 94}, {"time": 1384, "pitch": 64, "duration": 6, "velocity": 96}, {"time": 1387, "pitch": 55, "duration": 3, "velocity": 90}, {"time": 1390, "pitch": 60, "duration": 1, "velocity": 91}, {"time": 1393, "pitch": 55, "duration": 1, "velocity": 95}, {"time": 1393, "pitch": 60, "duration": 2, "velocity": 95}, {"time": 1396, "pitch": 55, "duration": 2, "velocity": 106}, {"time": 1396, "pitch": 60, "duration": 2, "velocity": 103}, {"time": 1399, "pitch": 48, "duration": 1, "velocity": 93}, {"time": 1402, "pitch": 55, "duration": 2, "velocity": 93}, {"time": 1402, "pitch": 58, "duration": 2, "velocity": 97}, {"time": 1408, "pitch": 41, "duration": 20, "velocity": 93}, {"time": 1408, "pitch": 53, "duration": 7, "velocity": 93}, {"time": 1408, "pitch": 57, "duration": 6, "velocity": 92}, {"time": 1411, "pitch": 48, "duration": 16, "velocity": 93}, {"time": 1414, "pitch": 60, "duration": 6, "velocity": 92}, {"time": 1417, "pitch": 57, "duration": 1, "velocity": 70}, {"time": 1420, "pitch": 65, "duration": 13, "velocity": 97}, {"time": 1423, "pitch": 60, "duration": 8, "velocity": 93}, {"time": 1426, "pitch": 57, "duration": 4, "velocity": 92}, {"time": 1429, "pitch": 53, "duration": 2, "velocity": 93}, {"time": 1432, "pitch": 45, "duration": 19, "velocity": 88}, {"time": 1435, "pitch": 52, "duration": 10, "velocity": 88}, {"time": 1438, "pitch": 57, "duration": 4, "velocity": 96}, {"time": 1441, "pitch": 61, "duration": 1, "velocity": 96}, {"time": 1444, "pitch": 57, "duration": 3, "velocity": 99}, {"time": 1444, "pitch": 61, "duration": 1, "velocity": 93}, {"time": 1444, "pitch": 64, "duration": 6, "velocity": 106}, {"time": 1444, "pitch": 69, "duration": 8, "velocity": 93}, {"time": 1447, "pitch": 52, "duration": 4, "velocity": 92}, {"time": 1450, "pitch": 61, "duration": 3, "velocity": 93}, {"time": 1453, "pitch": 57, "duration": 1, "velocity": 93}, {"time": 1456, "pitch": 50, "duration": 22, "velocity": 95}, {"time": 1456, "pitch": 57, "duration": 2, "velocity": 94}, {"time": 1456, "pitch": 62, "duration": 6, "velocity": 94}, {"time": 1459, "pitch": 53, "duration": 19, "velocity": 77}, {"time": 1462, "pitch": 57, "duration": 4, "velocity": 93}, {"time": 1465, "pitch": 62, "duration": 1, "velocity": 86}, {"time": 1468, "pitch": 65, "duration": 4, "velocity": 99}, {"time": 1471, "pitch": 62, "duration": 3, "velocity": 91}, {"time": 1474, "pitch": 57, "duration": 4, "velocity": 88}, {"time": 1477, "pitch": 62, "duration": 1, "velocity": 86}, {"time": 1480, "pitch": 50, "duration": 10, "velocity": 96}, {"time": 1480, "pitch": 57, "duration": 3, "velocity": 93}, {"time": 1480, "pitch": 65, "duration": 6, "velocity": 93}, {"time": 1483, "pitch": 53, "duration": 6, "velocity": 87}, {"time": 1486, "pitch": 57, "duration": 4, "velocity": 94}, {"time": 1489, "pitch": 65, "duration": 1, "velocity": 95}, {"time": 1492, "pitch": 48, "duration": 6, "velocity": 94}, {"time": 1492, "pitch": 64, "duration": 9, "velocity": 95}, {"time": 1504, "pitch": 46, "duration": 18, "velocity": 97}, {"time": 1504, "pitch": 58, "duration": 2, "velocity": 92}, {"time": 1504, "pitch": 62, "duration": 6, "velocity": 93}, {"time": 1507, "pitch": 53, "duration": 10, "velocity": 79}, {"time": 1510, "pitch": 58, "duration": 4, "velocity": 85}, {"time": 1513, "pitch": 62, "duration": 2, "velocity": 86}, {"time": 1516, "pitch": 65, "duration": 9, "velocity": 94}, {"time": 1519, "pitch": 53, "duration": 6, "velocity": 92}, {"time": 1522, "pitch": 58, "duration": 4, "velocity": 91}, {"time": 1525, "pitch": 62, "duration": 3, "velocity": 85}, {"time": 1528, "pitch": 48, "duration": 18, "velocity": 91}, {"time": 1531, "pitch": 55, "duration": 3, "velocity": 89}, {"time": 1531, "pitch": 57, "duration": 2, "velocity": 87}, {"time": 1534, "pitch": 60, "duration": 3, "velocity": 94}, {"time": 1537, "pitch": 55, "duration": 3, "velocity": 95}, {"time": 1540, "pitch": 64, "duration": 5, "velocity": 106}, {"time": 1543, "pitch": 55, "duration": 3, "velocity": 94}, {"time": 1546, "pitch": 60, "duration": 3, "velocity": 90}, {"time": 1549, "pitch": 55, "duration": 1, "velocity": 87}, {"time": 1552, "pitch": 41, "duration": 21, "velocity": 93}, {"time": 1552, "pitch": 53, "duration": 3, "velocity": 87}, {"time": 1552, "pitch": 57, "duration": 4, "velocity": 92}, {"time": 1555, "pitch": 48, "duration": 18, "velocity": 85}, {"time": 1558, "pitch": 53, "duration": 5, "velocity": 88}, {"time": 1561, "pitch": 60, "duration": 3, "velocity": 87}, {"time": 1564, "pitch": 65, "duration": 10, "velocity": 96}, {"time": 1567, "pitch": 60, "duration": 5, "velocity": 92}, {"time": 1570, "pitch": 57, "duration": 3, "velocity": 75}, {"time": 1573, "pitch": 53, "duration": 13, "velocity": 83}, {"time": 1576, "pitch": 41, "duration": 22, "velocity": 89}, {"time": 1576, "pitch": 57, "duration": 8, "velocity": 87}, {"time": 1576, "pitch": 60, "duration": 8, "velocity": 87}, {"time": 1588, "pitch": 60, "duration": 3, "velocity": 94}, {"time": 1588, "pitch": 65, "duration": 10, "velocity": 93}, {"time": 1591, "pitch": 48, "duration": 7, "velocity": 91}, {"time": 1594, "pitch": 53, "duration": 4, "velocity": 88}, {"time": 1594, "pitch": 60, "duration": 3, "velocity": 65}, {"time": 1597, "pitch": 57, "duration": 2, "velocity": 81}, {"time": 1600, "pitch": 41, "duration": 16, "velocity": 93}, {"time": 1606, "pitch": 53, "duration": 5, "velocity": 101}, {"time": 1612, "pitch": 53, "duration": 4, "velocity": 80}, {"time": 1612, "pitch": 57, "duration": 5, "velocity": 82}, {"time": 1612, "pitch": 60, "duration": 6, "velocity": 92}, {"time": 1624, "pitch": 43, "duration": 17, "velocity": 92}, {"time": 1624, "pitch": 55, "duration": 9, "velocity": 89}, {"time": 1624, "pitch": 58, "duration": 7, "velocity": 87}, {"time": 1630, "pitch": 50, "duration": 12, "velocity": 77}, {"time": 1636, "pitch": 55, "duration": 5, "velocity": 94}, {"time": 1636, "pitch": 67, "duration": 7, "velocity": 92}, {"time": 1648, "pitch": 45, "duration": 18, "velocity": 92}, {"time": 1648, "pitch": 57, "duration": 8, "velocity": 86}, {"time": 1648, "pitch": 60, "duration": 7, "velocity": 87}, {"time": 1654, "pitch": 52, "duration": 6, "velocity": 86}, {"time": 1660, "pitch": 57, "duration": 3, "velocity": 94}, {"time": 1660, "pitch": 64, "duration": 7, "velocity": 96}, {"time": 1663, "pitch": 52, "duration": 4, "velocity": 90}, {"time": 1666, "pitch": 57, "duration": 3, "velocity": 85}, {"time": 1672, "pitch": 46, "duration": 22, "velocity": 94}, {"time": 1672, "pitch": 58, "duration": 9, "velocity": 83}, {"time": 1672, "pitch": 62, "duration": 9, "velocity": 83}, {"time": 1678, "pitch": 53, "duration": 17, "velocity": 81}, {"time": 1684, "pitch": 65, "duration": 10, "velocity": 94}, {"time": 1690, "pitch": 58, "duration": 4, "velocity": 88}, {"time": 1696, "pitch": 58, "duration": 22, "velocity": 88}, {"time": 1696, "pitch": 62, "duration": 23, "velocity": 92}, {"time": 1720, "pitch": 37, "duration": 20, "velocity": 93}, {"time": 1720, "pitch": 61, "duration": 3, "velocity": 87}, {"time": 1720, "pitch": 65, "duration": 4, "velocity": 88}, {"time": 1723, "pitch": 44, "duration": 17, "velocity": 88}, {"time": 1726, "pitch": 61, "duration": 7, "velocity": 95}, {"time": 1729, "pitch": 65, "duration": 4, "velocity": 88}, {"time": 1732, "pitch": 68, "duration": 7, "velocity": 93}, {"time": 1735, "pitch": 65, "duration": 3, "velocity": 88}, {"time": 1738, "pitch": 61, "duration": 4, "velocity": 97}, {"time": 1741, "pitch": 65, "duration": 3, "velocity": 92}, {"time": 1741, "pitch": 68, "duration": 1, "velocity": 46}, {"time": 1744, "pitch": 39, "duration": 16, "velocity": 94}, {"time": 1747, "pitch": 46, "duration": 15, "velocity": 89}, {"time": 1750, "pitch": 51, "duration": 5, "velocity": 98}, {"time": 1753, "pitch": 55, "duration": 3, "velocity": 89}, {"time": 1756, "pitch": 58, "duration": 3, "velocity": 90}, {"time": 1759, "pitch": 63, "duration": 9, "velocity": 103}, {"time": 1762, "pitch": 58, "duration": 4, "velocity": 94}, {"time": 1765, "pitch": 51, "duration": 3, "velocity": 98}, {"time": 1768, "pitch": 36, "duration": 15, "velocity": 93}, {"time": 1771, "pitch": 43, "duration": 12, "velocity": 85}, {"time": 1774, "pitch": 48, "duration": 6, "velocity": 106}, {"time": 1777, "pitch": 51, "duration": 2, "velocity": 101}, {"time": 1780, "pitch": 60, "duration": 8, "velocity": 108}, {"time": 1783, "pitch": 55, "duration": 4, "velocity": 94}, {"time": 1786, "pitch": 51, "duration": 4, "velocity": 92}, {"time": 1789, "pitch": 48, "duration": 2, "velocity": 98}, {"time": 1792, "pitch": 41, "duration": 6, "velocity": 94}, {"time": 1792, "pitch": 65, "duration": 2, "velocity": 81}, {"time": 1792, "pitch": 68, "duration": 6, "velocity": 94}, {"time": 1792, "pitch": 77, "duration": 7, "velocity": 93}, {"time": 1795, "pitch": 48, "duration": 3, "velocity": 82}, {"time": 1798, "pitch": 65, "duration": 4, "velocity": 95}, {"time": 1801, "pitch": 68, "duration": 1, "velocity": 96}, {"time": 1804, "pitch": 39, "duration": 8, "velocity": 97}, {"time": 1804, "pitch": 63, "duration": 3, "velocity": 106}, {"time": 1804, "pitch": 75, "duration": 6, "velocity": 97}, {"time": 1807, "pitch": 46, "duration": 6, "velocity": 93}, {"time": 1810, "pitch": 63, "duration": 3, "velocity": 96}, {"time": 1813, "pitch": 67, "duration": 2, "velocity": 92}, {"time": 1816, "pitch": 38, "duration": 23, "velocity": 95}, {"time": 1816, "pitch": 62, "duration": 3, "velocity": 96}, {"time": 1816, "pitch": 65, "duration": 5, "velocity": 93}, {"time": 1819, "pitch": 45, "duration": 20, "velocity": 86}, {"time": 1822, "pitch": 62, "duration": 9, "velocity": 96}, {"time": 1825, "pitch": 65, "duration": 4, "velocity": 94}, {"time": 1828, "pitch": 74, "duration": 6, "velocity": 106}, {"time": 1831, "pitch": 69, "duration": 4, "velocity": 95}, {"time": 1834, "pitch": 65, "duration": 4, "velocity": 95}, {"time": 1837, "pitch": 62, "duration": 3, "velocity": 98}, {"time": 1840, "pitch": 43, "duration": 17, "velocity": 92}, {"time": 1840, "pitch": 62, "duration": 1, "velocity": 94}, {"time": 1840, "pitch": 71, "duration": 6, "velocity": 93}, {"time": 1843, "pitch": 50, "duration": 11, "velocity": 91}, {"time": 1846, "pitch": 62, "duration": 4, "velocity": 94}, {"time": 1849, "pitch": 67, "duration": 1, "velocity": 94}, {"time": 1852, "pitch": 71, "duration": 4, "velocity": 108}, {"time": 1855, "pitch": 67, "duration": 3, "velocity": 93}, {"time": 1858, "pitch": 62, "duration": 2, "velocity": 93}, {"time": 1864, "pitch": 48, "duration": 10, "velocity": 96}, {"time": 1864, "pitch": 60, "duration": 3, "velocity": 92}, {"time": 1864, "pitch": 65, "duration": 4, "velocity": 93}, {"time": 1867, "pitch": 55, "duration": 6, "velocity": 82}, {"time": 1870, "pitch": 60, "duration": 1, "velocity": 101}, {"time": 1873, "pitch": 60, "duration": 6, "velocity": 95}, {"time": 1873, "pitch": 65, "duration": 8, "velocity": 103}, {"time": 1886, "pitch": 60, "duration": 9, "velocity": 87}, {"time": 1887, "pitch": 48, "duration": 17, "velocity": 94}, {"time": 1887, "pitch": 64, "duration": 7, "velocity": 90}, {"time": 1893, "pitch": 55, "duration": 11, "velocity": 71}, {"time": 1897, "pitch": 60, "duration": 2, "velocity": 83}, {"time": 1899, "pitch": 64, "duration": 1, "velocity": 79}, {"time": 1899, "pitch": 67, "duration": 1, "velocity": 82}, {"time": 1900, "pitch": 72, "duration": 1, "velocity": 93}, {"time": 1912, "pitch": 41, "duration": 17, "velocity": 92}, {"time": 1912, "pitch": 53, "duration": 11, "velocity": 86}, {"time": 1912, "pitch": 57, "duration": 6, "velocity": 86}, {"time": 1918, "pitch": 48, "duration": 10, "velocity": 83}, {"time": 1924, "pitch": 53, "duration": 3, "velocity": 92}, {"time": 1924, "pitch": 60, "duration": 8, "velocity": 88}, {"time": 1930, "pitch": 53, "duration": 2, "velocity": 92}, {"time": 1936, "pitch": 45, "duration": 17, "velocity": 92}, {"time": 1936, "pitch": 57, "duration": 10, "velocity": 84}, {"time": 1936, "pitch": 60, "duration": 7, "velocity": 87}, {"time": 1942, "pitch": 52, "duration": 11, "velocity": 82}, {"time": 1948, "pitch": 57, "duration": 4, "velocity": 92}, {"time": 1948, "pitch": 64, "duration": 6, "velocity": 94}, {"time": 1954, "pitch": 60, "duration": 6, "velocity": 84}, {"time": 1960, "pitch": 46, "duration": 16, "velocity": 81}, {"time": 1960, "pitch": 62, "duration": 13, "velocity": 86}, {"time": 1966, "pitch": 53, "duration": 9, "velocity": 79}, {"time": 1972, "pitch": 65, "duration": 12, "velocity": 94}, {"time": 1978, "pitch": 58, "duration": 2, "velocity": 91}, {"time": 1978, "pitch": 62, "duration": 1, "velocity": 36}, {"time": 1984, "pitch": 41, "duration": 16, "velocity": 81}, {"time": 1984, "pitch": 60, "duration": 8, "velocity": 83}, {"time": 1990, "pitch": 57, "duration": 7, "velocity": 80}, {"time": 1996, "pitch": 60, "duration": 1, "velocity": 56}, {"time": 1996, "pitch": 65, "duration": 12, "velocity": 93}, {"time": 2008, "pitch": 46, "duration": 22, "velocity": 87}, {"time": 2008, "pitch": 62, "duration": 19, "velocity": 91}, {"time": 2014, "pitch": 58, "duration": 6, "velocity": 80}, {"time": 2020, "pitch": 53, "duration": 11, "velocity": 77}, {"time": 2020, "pitch": 65, "duration": 12, "velocity": 93}, {"time": 2026, "pitch": 58, "duration": 2, "velocity": 94}, {"time": 2032, "pitch": 45, "duration": 16, "velocity": 83}, {"time": 2032, "pitch": 60, "duration": 12, "velocity": 92}, {"time": 2038, "pitch": 57, "duration": 7, "velocity": 83}, {"time": 2044, "pitch": 65, "duration": 12, "velocity": 94}, {"time": 2050, "pitch": 57, "duration": 6, "velocity": 88}, {"time": 2056, "pitch": 43, "duration": 20, "velocity": 85}, {"time": 2056, "pitch": 62, "duration": 13, "velocity": 86}, {"time": 2062, "pitch": 55, "duration": 6, "velocity": 89}, {"time": 2068, "pitch": 67, "duration": 7, "velocity": 92}, {"time": 2071, "pitch": 62, "duration": 5, "velocity": 46}, {"time": 2074, "pitch": 55, "duration": 5, "velocity": 94}, {"time": 2080, "pitch": 48, "duration": 18, "velocity": 91}, {"time": 2080, "pitch": 55, "duration": 3, "velocity": 89}, {"time": 2080, "pitch": 60, "duration": 10, "velocity": 92}, {"time": 2086, "pitch": 55, "duration": 7, "velocity": 87}, {"time": 2092, "pitch": 60, "duration": 1, "velocity": 74}, {"time": 2092, "pitch": 64, "duration": 6, "velocity": 103}, {"time": 2098, "pitch": 60, "duration": 1, "velocity": 83}, {"time": 2104, "pitch": 41, "duration": 16, "velocity": 92}, {"time": 2104, "pitch": 53, "duration": 2, "velocity": 80}, {"time": 2104, "pitch": 57, "duration": 12, "velocity": 82}, {"time": 2110, "pitch": 53, "duration": 8, "velocity": 81}, {"time": 2116, "pitch": 60, "duration": 7, "velocity": 92}, {"time": 2122, "pitch": 53, "duration": 2, "velocity": 93}, {"time": 2128, "pitch": 45, "duration": 17, "velocity": 76}, {"time": 2128, "pitch": 60, "duration": 5, "velocity": 90}, {"time": 2134, "pitch": 57, "duration": 7, "velocity": 87}, {"time": 2140, "pitch": 64, "duration": 7, "velocity": 95}, {"time": 2146, "pitch": 57, "duration": 6, "velocity": 92}, {"time": 2152, "pitch": 46, "duration": 16, "velocity": 87}, {"time": 2152, "pitch": 62, "duration": 12, "velocity": 90}, {"time": 2158, "pitch": 58, "duration": 6, "velocity": 81}, {"time": 2164, "pitch": 53, "duration": 4, "velocity": 81}, {"time": 2164, "pitch": 65, "duration": 8, "velocity": 88}, {"time": 2167, "pitch": 62, "duration": 7, "velocity": 36}, {"time": 2170, "pitch": 58, "duration": 2, "velocity": 89}, {"time": 2176, "pitch": 41, "duration": 16, "velocity": 81}, {"time": 2176, "pitch": 60, "duration": 8, "velocity": 87}, {"time": 2182, "pitch": 57, "duration": 7, "velocity": 82}, {"time": 2188, "pitch": 60, "duration": 6, "velocity": 92}, {"time": 2188, "pitch": 65, "duration": 13, "velocity": 93}, {"time": 2194, "pitch": 57, "duration": 5, "velocity": 92}, {"time": 2200, "pitch": 43, "duration": 21, "velocity": 90}, {"time": 2200, "pitch": 62, "duration": 7, "velocity": 86}, {"time": 2206, "pitch": 55, "duration": 7, "velocity": 92}, {"time": 2212, "pitch": 58, "duration": 6, "velocity": 94}, {"time": 2218, "pitch": 55, "duration": 3, "velocity": 94}, {"time": 2224, "pitch": 48, "duration": 16, "velocity": 90}, {"time": 2224, "pitch": 60, "duration": 12, "velocity": 92}, {"time": 2230, "pitch": 55, "duration": 6, "velocity": 93}, {"time": 2236, "pitch": 64, "duration": 7, "velocity": 96}, {"time": 2242, "pitch": 55, "duration": 3, "velocity": 86}, {"time": 2248, "pitch": 41, "duration": 21, "velocity": 89}, {"time": 2248, "pitch": 53, "duration": 3, "velocity": 79}, {"time": 2248, "pitch": 57, "duration": 7, "velocity": 82}, {"time": 2254, "pitch": 53, "duration": 13, "velocity": 93}, {"time": 2260, "pitch": 60, "duration": 7, "velocity": 93}, {"time": 2266, "pitch": 57, "duration": 2, "velocity": 87}, {"time": 2272, "pitch": 41, "duration": 17, "velocity": 91}, {"time": 2272, "pitch": 53, "duration": 9, "velocity": 92}, {"time": 2272, "pitch": 65, "duration": 6, "velocity": 89}, {"time": 2278, "pitch": 48, "duration": 8, "velocity": 78}, {"time": 2284, "pitch": 53, "duration": 4, "velocity": 93}, {"time": 2284, "pitch": 60, "duration": 5, "velocity": 92}, {"time": 2296, "pitch": 43, "duration": 18, "velocity": 92}, {"time": 2296, "pitch": 70, "duration": 7, "velocity": 86}, {"time": 2302, "pitch": 50, "duration": 10, "velocity": 74}, {"time": 2302, "pitch": 62, "duration": 4, "velocity": 87}, {"time": 2308, "pitch": 62, "duration": 3, "velocity": 97}, {"time": 2308, "pitch": 70, "duration": 7, "velocity": 96}, {"time": 2314, "pitch": 62, "duration": 7, "velocity": 85}, {"time": 2320, "pitch": 43, "duration": 8, "velocity": 85}, {"time": 2320, "pitch": 70, "duration": 9, "velocity": 87}, {"time": 2326, "pitch": 62, "duration": 4, "velocity": 90}, {"time": 2332, "pitch": 67, "duration": 9, "velocity": 96}, {"time": 2338, "pitch": 62, "duration": 3, "velocity": 86}, {"time": 2344, "pitch": 45, "duration": 21, "velocity": 92}, {"time": 2344, "pitch": 69, "duration": 6, "velocity": 89}, {"time": 2350, "pitch": 64, "duration": 4, "velocity": 87}, {"time": 2356, "pitch": 52, "duration": 8, "velocity": 84}, {"time": 2356, "pitch": 64, "duration": 2, "velocity": 96}, {"time": 2356, "pitch": 69, "duration": 7, "velocity": 93}, {"time": 2362, "pitch": 64, "duration": 7, "velocity": 86}, {"time": 2368, "pitch": 45, "duration": 16, "velocity": 88}, {"time": 2368, "pitch": 69, "duration": 7, "velocity": 87}, {"time": 2368, "pitch": 72, "duration": 5, "velocity": 92}, {"time": 2374, "pitch": 64, "duration": 3, "velocity": 86}, {"time": 2380, "pitch": 64, "duration": 2, "velocity": 98}, {"time": 2380, "pitch": 69, "duration": 5, "velocity": 93}, {"time": 2392, "pitch": 43, "duration": 21, "velocity": 92}, {"time": 2392, "pitch": 70, "duration": 6, "velocity": 93}, {"time": 2398, "pitch": 62, "duration": 4, "velocity": 93}, {"time": 2404, "pitch": 50, "duration": 7, "velocity": 80}, {"time": 2404, "pitch": 62, "duration": 2, "velocity": 90}, {"time": 2404, "pitch": 70, "duration": 6, "velocity": 93}, {"time": 2410, "pitch": 62, "duration": 6, "velocity": 93}, {"time": 2416, "pitch": 43, "duration": 18, "velocity": 84}, {"time": 2416, "pitch": 67, "duration": 6, "velocity": 89}, {"time": 2416, "pitch": 70, "duration": 7, "velocity": 93}, {"time": 2422, "pitch": 62, "duration": 1, "velocity": 74}, {"time": 2428, "pitch": 62, "duration": 2, "velocity": 92}, {"time": 2428, "pitch": 67, "duration": 5, "velocity": 94}, {"time": 2428, "pitch": 70, "duration": 5, "velocity": 95}, {"time": 2440, "pitch": 41, "duration": 21, "velocity": 91}, {"time": 2440, "pitch": 60, "duration": 2, "velocity": 86}, {"time": 2440, "pitch": 69, "duration": 7, "velocity": 90}, {"time": 2446, "pitch": 60, "duration": 3, "velocity": 80}, {"time": 2452, "pitch": 65, "duration": 6, "velocity": 92}, {"time": 2452, "pitch": 69, "duration": 7, "velocity": 92}, {"time": 2458, "pitch": 60, "duration": 6, "velocity": 86}, {"time": 2464, "pitch": 41, "duration": 13, "velocity": 78}, {"time": 2464, "pitch": 65, "duration": 7, "velocity": 86}, {"time": 2464, "pitch": 69, "duration": 7, "velocity": 90}, {"time": 2470, "pitch": 60, "duration": 2, "velocity": 87}, {"time": 2476, "pitch": 60, "duration": 2, "velocity": 94}, {"time": 2476, "pitch": 65, "duration": 3, "velocity": 93}, {"time": 2476, "pitch": 69, "duration": 6, "velocity": 94}, {"time": 2482, "pitch": 67, "duration": 3, "velocity": 92}, {"time": 2488, "pitch": 45, "duration": 18, "velocity": 92}, {"time": 2488, "pitch": 69, "duration": 7, "velocity": 92}, {"time": 2494, "pitch": 52, "duration": 10, "velocity": 81}, {"time": 2494, "pitch": 57, "duration": 2, "velocity": 61}, {"time": 2500, "pitch": 57, "duration": 3, "velocity": 93}, {"time": 2500, "pitch": 60, "duration": 6, "velocity": 97}, {"time": 2506, "pitch": 57, "duration": 10, "velocity": 92}, {"time": 2512, "pitch": 45, "duration": 16, "velocity": 80}, {"time": 2512, "pitch": 60, "duration": 5, "velocity": 81}, {"time": 2512, "pitch": 64, "duration": 6, "velocity": 92}, {"time": 2518, "pitch": 52, "duration": 8, "velocity": 70}, {"time": 2524, "pitch": 57, "duration": 2, "velocity": 95}, {"time": 2524, "pitch": 60, "duration": 5, "velocity": 99}, {"time": 2530, "pitch": 57, "duration": 7, "velocity": 95}, {"time": 2536, "pitch": 50, "duration": 15, "velocity": 92}, {"time": 2536, "pitch": 65, "duration": 7, "velocity": 95}, {"time": 2542, "pitch": 57, "duration": 7, "velocity": 82}, {"time": 2548, "pitch": 62, "duration": 4, "velocity": 94}, {"time": 2548, "pitch": 65, "duration": 7, "velocity": 96}, {"time": 2554, "pitch": 57, "duration": 6, "velocity": 84}, {"time": 2560, "pitch": 50, "duration": 5, "velocity": 87}, {"time": 2560, "pitch": 62, "duration": 6, "velocity": 92}, {"time": 2560, "pitch": 65, "duration": 12, "velocity": 92}, {"time": 2566, "pitch": 57, "duration": 5, "velocity": 90}, {"time": 2572, "pitch": 48, "duration": 3, "velocity": 93}, {"time": 2572, "pitch": 60, "duration": 3, "velocity": 92}, {"time": 2572, "pitch": 64, "duration": 7, "velocity": 94}, {"time": 2584, "pitch": 46, "duration": 14, "velocity": 92}, {"time": 2584, "pitch": 58, "duration": 5, "velocity": 89}, {"time": 2584, "pitch": 62, "duration": 9, "velocity": 92}, {"time": 2590, "pitch": 53, "duration": 8, "velocity": 81}, {"time": 2596, "pitch": 58, "duration": 2, "velocity": 92}, {"time": 2596, "pitch": 62, "duration": 6, "velocity": 93}, {"time": 2596, "pitch": 65, "duration": 6, "velocity": 92}, {"time": 2602, "pitch": 58, "duration": 5, "velocity": 92}, {"time": 2608, "pitch": 46, "duration": 14, "velocity": 83}, {"time": 2608, "pitch": 58, "duration": 9, "velocity": 84}, {"time": 2608, "pitch": 62, "duration": 10, "velocity": 92}, {"time": 2614, "pitch": 53, "duration": 9, "velocity": 78}, {"time": 2620, "pitch": 58, "duration": 3, "velocity": 94}, {"time": 2620, "pitch": 62, "duration": 4, "velocity": 94}, {"time": 2620, "pitch": 65, "duration": 5, "velocity": 93}, {"time": 2626, "pitch": 46, "duration": 1, "velocity": 86}, {"time": 2632, "pitch": 36, "duration": 1, "velocity": 92}, {"time": 2632, "pitch": 60, "duration": 11, "velocity": 88}, {"time": 2632, "pitch": 64, "duration": 11, "velocity": 94}, {"time": 2638, "pitch": 48, "duration": 16, "velocity": 90}, {"time": 2644, "pitch": 55, "duration": 10, "velocity": 96}, {"time": 2647, "pitch": 60, "duration": 3, "velocity": 103}, {"time": 2650, "pitch": 62, "duration": 4, "velocity": 97}, {"time": 2653, "pitch": 64, "duration": 1, "velocity": 95}, {"time": 2656, "pitch": 48, "duration": 16, "velocity": 98}, {"time": 2656, "pitch": 60, "duration": 5, "velocity": 91}, {"time": 2656, "pitch": 64, "duration": 5, "velocity": 97}, {"time": 2656, "pitch": 67, "duration": 6, "velocity": 95}, {"time": 2662, "pitch": 55, "duration": 7, "velocity": 85}, {"time": 2665, "pitch": 60, "duration": 1, "velocity": 89}, {"time": 2668, "pitch": 60, "duration": 4, "velocity": 95}, {"time": 2668, "pitch": 64, "duration": 4, "velocity": 118}, {"time": 2668, "pitch": 67, "duration": 5, "velocity": 99}, {"time": 2668, "pitch": 72, "duration": 4, "velocity": 96}, {"time": 2671, "pitch": 55, "duration": 1, "velocity": 88}, {"time": 2674, "pitch": 60, "duration": 4, "velocity": 99}, {"time": 2680, "pitch": 41, "duration": 16, "velocity": 93}, {"time": 2680, "pitch": 65, "duration": 5, "velocity": 92}, {"time": 2680, "pitch": 69, "duration": 7, "velocity": 92}, {"time": 2683, "pitch": 48, "duration": 10, "velocity": 82}, {"time": 2686, "pitch": 60, "duration": 4, "velocity": 94}, {"time": 2689, "pitch": 65, "duration": 1, "velocity": 93}, {"time": 2692, "pitch": 60, "duration": 3, "velocity": 101}, {"time": 2692, "pitch": 65, "duration": 6, "velocity": 101}, {"time": 2692, "pitch": 69, "duration": 8, "velocity": 106}, {"time": 2695, "pitch": 48, "duration": 1, "velocity": 91}, {"time": 2698, "pitch": 60, "duration": 4, "velocity": 93}, {"time": 2701, "pitch": 65, "duration": 1, "velocity": 86}, {"time": 2704, "pitch": 45, "duration": 21, "velocity": 93}, {"time": 2704, "pitch": 57, "duration": 3, "velocity": 95}, {"time": 2704, "pitch": 64, "duration": 3, "velocity": 101}, {"time": 2707, "pitch": 52, "duration": 9, "velocity": 92}, {"time": 2710, "pitch": 57, "duration": 4, "velocity": 93}, {"time": 2713, "pitch": 61, "duration": 1, "velocity": 94}, {"time": 2716, "pitch": 57, "duration": 3, "velocity": 94}, {"time": 2716, "pitch": 61, "duration": 3, "velocity": 99}, {"time": 2716, "pitch": 69, "duration": 7, "velocity": 93}, {"time": 2719, "pitch": 52, "duration": 6, "velocity": 90}, {"time": 2722, "pitch": 57, "duration": 2, "velocity": 91}, {"time": 2728, "pitch": 50, "duration": 20, "velocity": 93}, {"time": 2728, "pitch": 65, "duration": 6, "velocity": 86}, {"time": 2731, "pitch": 53, "duration": 10, "velocity": 74}, {"time": 2734, "pitch": 57, "duration": 4, "velocity": 96}, {"time": 2737, "pitch": 62, "duration": 1, "velocity": 91}, {"time": 2740, "pitch": 57, "duration": 2, "velocity": 97}, {"time": 2740, "pitch": 62, "duration": 4, "velocity": 95}, {"time": 2740, "pitch": 65, "duration": 4, "velocity": 98}, {"time": 2743, "pitch": 53, "duration": 6, "velocity": 85}, {"time": 2746, "pitch": 57, "duration": 4, "velocity": 95}, {"time": 2746, "pitch": 62, "duration": 1, "velocity": 58}, {"time": 2746, "pitch": 65, "duration": 1, "velocity": 50}, {"time": 2749, "pitch": 62, "duration": 1, "velocity": 90}, {"time": 2752, "pitch": 50, "duration": 7, "velocity": 99}, {"time": 2752, "pitch": 57, "duration": 2, "velocity": 92}, {"time": 2752, "pitch": 62, "duration": 3, "velocity": 97}, {"time": 2752, "pitch": 65, "duration": 7, "velocity": 94}, {"time": 2755, "pitch": 53, "duration": 5, "velocity": 75}, {"time": 2758, "pitch": 57, "duration": 3, "velocity": 95}, {"time": 2758, "pitch": 62, "duration": 1, "velocity": 61}, {"time": 2761, "pitch": 65, "duration": 2, "velocity": 92}, {"time": 2764, "pitch": 48, "duration": 5, "velocity": 96}, {"time": 2764, "pitch": 60, "duration": 3, "velocity": 90}, {"time": 2764, "pitch": 64, "duration": 5, "velocity": 93}, {"time": 2767, "pitch": 55, "duration": 2, "velocity": 87}, {"time": 2770, "pitch": 60, "duration": 1, "velocity": 98}, {"time": 2776, "pitch": 46, "duration": 15, "velocity": 93}, {"time": 2776, "pitch": 58, "duration": 3, "velocity": 89}, {"time": 2776, "pitch": 62, "duration": 6, "velocity": 93}, {"time": 2779, "pitch": 53, "duration": 10, "velocity": 86}, {"time": 2782, "pitch": 58, "duration": 3, "velocity": 92}, {"time": 2785, "pitch": 62, "duration": 2, "velocity": 84}, {"time": 2788, "pitch": 58, "duration": 2, "velocity": 92}, {"time": 2788, "pitch": 62, "duration": 3, "velocity": 93}, {"time": 2788, "pitch": 65, "duration": 10, "velocity": 96}, {"time": 2791, "pitch": 53, "duration": 2, "velocity": 85}, {"time": 2794, "pitch": 58, "duration": 3, "velocity": 97}, {"time": 2794, "pitch": 62, "duration": 1, "velocity": 62}, {"time": 2797, "pitch": 62, "duration": 1, "velocity": 85}, {"time": 2800, "pitch": 43, "duration": 20, "velocity": 93}, {"time": 2800, "pitch": 55, "duration": 4, "velocity": 82}, {"time": 2800, "pitch": 62, "duration": 7, "velocity": 92}, {"time": 2803, "pitch": 50, "duration": 10, "velocity": 88}, {"time": 2806, "pitch": 55, "duration": 4, "velocity": 92}, {"time": 2809, "pitch": 62, "duration": 2, "velocity": 91}, {"time": 2812, "pitch": 55, "duration": 3, "velocity": 97}, {"time": 2812, "pitch": 62, "duration": 3, "velocity": 93}, {"time": 2812, "pitch": 67, "duration": 10, "velocity": 91}, {"time": 2815, "pitch": 50, "duration": 4, "velocity": 93}, {"time": 2818, "pitch": 55, "duration": 4, "velocity": 93}, {"time": 2821, "pitch": 62, "duration": 2, "velocity": 87}, {"time": 2824, "pitch": 48, "duration": 16, "velocity": 98}, {"time": 2824, "pitch": 55, "duration": 3, "velocity": 93}, {"time": 2824, "pitch": 60, "duration": 6, "velocity": 94}, {"time": 2827, "pitch": 52, "duration": 13, "velocity": 79}, {"time": 2830, "pitch": 55, "duration": 4, "velocity": 93}, {"time": 2833, "pitch": 60, "duration": 1, "velocity": 92}, {"time": 2836, "pitch": 55, "duration": 3, "velocity": 94}, {"time": 2836, "pitch": 62, "duration": 3, "velocity": 101}, {"time": 2839, "pitch": 60, "duration": 3, "velocity": 93}, {"time": 2842, "pitch": 55, "duration": 4, "velocity": 94}, {"time": 2845, "pitch": 60, "duration": 1, "velocity": 92}, {"time": 2848, "pitch": 48, "duration": 13, "velocity": 103}, {"time": 2848, "pitch": 55, "duration": 2, "velocity": 94}, {"time": 2848, "pitch": 64, "duration": 6, "velocity": 96}, {"time": 2851, "pitch": 55, "duration": 3, "velocity": 90}, {"time": 2854, "pitch": 60, "duration": 1, "velocity": 91}, {"time": 2857, "pitch": 55, "duration": 1, "velocity": 95}, {"time": 2857, "pitch": 60, "duration": 2, "velocity": 95}, {"time": 2860, "pitch": 55, "duration": 2, "velocity": 106}, {"time": 2860, "pitch": 60, "duration": 2, "velocity": 103}, {"time": 2863, "pitch": 48, "duration": 1, "velocity": 93}, {"time": 2866, "pitch": 55, "duration": 2, "velocity": 93}, {"time": 2866, "pitch": 58, "duration": 2, "velocity": 97}, {"time": 2872, "pitch": 41, "duration": 20, "velocity": 93}, {"time": 2872, "pitch": 53, "duration": 7, "velocity": 93}, {"time": 2872, "pitch": 57, "duration": 6, "velocity": 92}, {"time": 2875, "pitch": 48, "duration": 16, "velocity": 93}, {"time": 2878, "pitch": 60, "duration": 6, "velocity": 92}, {"time": 2881, "pitch": 57, "duration": 1, "velocity": 70}, {"time": 2884, "pitch": 65, "duration": 13, "velocity": 97}, {"time": 2887, "pitch": 60, "duration": 8, "velocity": 93}, {"time": 2890, "pitch": 57, "duration": 4, "velocity": 92}, {"time": 2893, "pitch": 53, "duration": 2, "velocity": 93}, {"time": 2896, "pitch": 45, "duration": 19, "velocity": 88}, {"time": 2899, "pitch": 52, "duration": 10, "velocity": 88}, {"time": 2902, "pitch": 57, "duration": 4, "velocity": 96}, {"time": 2905, "pitch": 61, "duration": 1, "velocity": 96}, {"time": 2908, "pitch": 57, "duration": 3, "velocity": 99}, {"time": 2908, "pitch": 61, "duration": 1, "velocity": 93}, {"time": 2908, "pitch": 64, "duration": 6, "velocity": 106}, {"time": 2908, "pitch": 69, "duration": 8, "velocity": 93}, {"time": 2911, "pitch": 52, "duration": 4, "velocity": 92}, {"time": 2914, "pitch": 61, "duration": 3, "velocity": 93}, {"time": 2917, "pitch": 57, "duration": 1, "velocity": 93}, {"time": 2920, "pitch": 50, "duration": 22, "velocity": 95}, {"time": 2920, "pitch": 57, "duration": 2, "velocity": 94}, {"time": 2920, "pitch": 62, "duration": 6, "velocity": 94}, {"time": 2923, "pitch": 53, "duration": 19, "velocity": 77}, {"time": 2926, "pitch": 57, "duration": 4, "velocity": 93}, {"time": 2929, "pitch": 62, "duration": 1, "velocity": 86}, {"time": 2932, "pitch": 65, "duration": 4, "velocity": 99}, {"time": 2935, "pitch": 62, "duration": 3, "velocity": 91}, {"time": 2938, "pitch": 57, "duration": 4, "velocity": 88}, {"time": 2941, "pitch": 62, "duration": 1, "velocity": 86}, {"time": 2944, "pitch": 50, "duration": 10, "velocity": 96}, {"time": 2944, "pitch": 57, "duration": 3, "velocity": 93}, {"time": 2944, "pitch": 65, "duration": 6, "velocity": 93}, {"time": 2947, "pitch": 53, "duration": 6, "velocity": 87}, {"time": 2950, "pitch": 57, "duration": 4, "velocity": 94}, {"time": 2953, "pitch": 65, "duration": 1, "velocity": 95}, {"time": 2956, "pitch": 48, "duration": 6, "velocity": 94}, {"time": 2956, "pitch": 64, "duration": 9, "velocity": 95}, {"time": 2968, "pitch": 46, "duration": 18, "velocity": 97}, {"time": 2968, "pitch": 58, "duration": 2, "velocity": 92}, {"time": 2968, "pitch": 62, "duration": 6, "velocity": 93}, {"time": 2971, "pitch": 53, "duration": 10, "velocity": 79}, {"time": 2974, "pitch": 58, "duration": 4, "velocity": 85}, {"time": 2977, "pitch": 62, "duration": 2, "velocity": 86}, {"time": 2980, "pitch": 65, "duration": 9, "velocity": 94}, {"time": 2983, "pitch": 53, "duration": 6, "velocity": 92}, {"time": 2986, "pitch": 58, "duration": 4, "velocity": 91}, {"time": 2989, "pitch": 62, "duration": 3, "velocity": 85}, {"time": 2992, "pitch": 48, "duration": 18, "velocity": 91}, {"time": 2995, "pitch": 55, "duration": 3, "velocity": 89}, {"time": 2995, "pitch": 57, "duration": 2, "velocity": 87}, {"time": 2998, "pitch": 60, "duration": 3, "velocity": 94}, {"time": 3001, "pitch": 55, "duration": 3, "velocity": 95}, {"time": 3004, "pitch": 64, "duration": 5, "velocity": 106}, {"time": 3007, "pitch": 55, "duration": 3, "velocity": 94}, {"time": 3010, "pitch": 60, "duration": 3, "velocity": 90}, {"time": 3013, "pitch": 55, "duration": 1, "velocity": 87}, {"time": 3016, "pitch": 41, "duration": 21, "velocity": 93}, {"time": 3016, "pitch": 53, "duration": 3, "velocity": 87}, {"time": 3016, "pitch": 57, "duration": 4, "velocity": 92}, {"time": 3019, "pitch": 48, "duration": 18, "velocity": 85}, {"time": 3022, "pitch": 53, "duration": 5, "velocity": 88}, {"time": 3025, "pitch": 60, "duration": 3, "velocity": 87}, {"time": 3028, "pitch": 65, "duration": 10, "velocity": 96}, {"time": 3031, "pitch": 60, "duration": 5, "velocity": 92}, {"time": 3034, "pitch": 57, "duration": 3, "velocity": 75}, {"time": 3037, "pitch": 53, "duration": 13, "velocity": 83}, {"time": 3040, "pitch": 41, "duration": 22, "velocity": 89}, {"time": 3040, "pitch": 57, "duration": 8, "velocity": 87}, {"time": 3040, "pitch": 60, "duration": 8, "velocity": 87}, {"time": 3052, "pitch": 60, "duration": 3, "velocity": 94}, {"time": 3052, "pitch": 65, "duration": 10, "velocity": 93}, {"time": 3055, "pitch": 48, "duration": 7, "velocity": 91}, {"time": 3058, "pitch": 53, "duration": 4, "velocity": 88}, {"time": 3058, "pitch": 60, "duration": 3, "velocity": 65}, {"time": 3061, "pitch": 57, "duration": 2, "velocity": 81}, {"time": 3064, "pitch": 41, "duration": 16, "velocity": 93}, {"time": 3064, "pitch": 65, "duration": 5, "velocity": 92}, {"time": 3064, "pitch": 69, "duration": 7, "velocity": 92}, {"time": 3067, "pitch": 48, "duration": 10, "velocity": 82}, {"time": 3070, "pitch": 60, "duration": 4, "velocity": 94}, {"time": 3073, "pitch": 65, "duration": 1, "velocity": 93}, {"time": 3076, "pitch": 60, "duration": 3, "velocity": 101}, {"time": 3076, "pitch": 65, "duration": 6, "velocity": 101}, {"time": 3076, "pitch": 69, "duration": 8, "velocity": 106}, {"time": 3079, "pitch": 48, "duration": 1, "velocity": 91}, {"time": 3082, "pitch": 60, "duration": 4, "velocity": 93}, {"time": 3085, "pitch": 65, "duration": 1, "velocity": 86}, {"time": 3088, "pitch": 45, "duration": 21, "velocity": 93}, {"time": 3088, "pitch": 57, "duration": 3, "velocity": 95}, {"time": 3088, "pitch": 64, "duration": 3, "velocity": 101}, {"time": 3091, "pitch": 52, "duration": 9, "velocity": 92}, {"time": 3094, "pitch": 57, "duration": 4, "velocity": 93}, {"time": 3097, "pitch": 61, "duration": 1, "velocity": 94}, {"time": 3100, "pitch": 57, "duration": 3, "velocity": 94}, {"time": 3100, "pitch": 61, "duration": 3, "velocity": 99}, {"time": 3100, "pitch": 69, "duration": 7, "velocity": 93}, {"time": 3103, "pitch": 52, "duration": 6, "velocity": 90}, {"time": 3106, "pitch": 57, "duration": 2, "velocity": 91}, {"time": 3112, "pitch": 50, "duration": 20, "velocity": 93}, {"time": 3112, "pitch": 65, "duration": 6, "velocity": 86}, {"time": 3115, "pitch": 53, "duration": 10, "velocity": 74}, {"time": 3118, "pitch": 57, "duration": 4, "velocity": 96}, {"time": 3121, "pitch": 62, "duration": 1, "velocity": 91}, {"time": 3124, "pitch": 57, "duration": 2, "velocity": 97}, {"time": 3124, "pitch": 62, "duration": 4, "velocity": 95}, {"time": 3124, "pitch": 65, "duration": 4, "velocity": 98}, {"time": 3127, "pitch": 53, "duration": 6, "velocity": 85}, {"time": 3130, "pitch": 57, "duration": 4, "velocity": 95}, {"time": 3130, "pitch": 62, "duration": 1, "velocity": 58}, {"time": 3130, "pitch": 65, "duration": 1, "velocity": 50}, {"time": 3133, "pitch": 62, "duration": 1, "velocity": 90}, {"time": 3136, "pitch": 50, "duration": 7, "velocity": 99}, {"time": 3136, "pitch": 57, "duration": 2, "velocity": 92}, {"time": 3136, "pitch": 62, "duration": 3, "velocity": 97}, {"time": 3136, "pitch": 65, "duration": 7, "velocity": 94}, {"time": 3139, "pitch": 53, "duration": 5, "velocity": 75}, {"time": 3142, "pitch": 57, "duration": 3, "velocity": 95}, {"time": 3142, "pitch": 62, "duration": 1, "velocity": 61}, {"time": 3145, "pitch": 65, "duration": 2, "velocity": 92}, {"time": 3148, "pitch": 48, "duration": 5, "velocity": 96}, {"time": 3148, "pitch": 60, "duration": 3, "velocity": 90}, {"time": 3148, "pitch": 64, "duration": 5, "velocity": 93}, {"time": 3151, "pitch": 55, "duration": 2, "velocity": 87}, {"time": 3154, "pitch": 60, "duration": 1, "velocity": 98}, {"time": 3160, "pitch": 46, "duration": 15, "velocity": 93}, {"time": 3160, "pitch": 58, "duration": 3, "velocity": 89}, {"time": 3160, "pitch": 62, "duration": 6, "velocity": 93}, {"time": 3163, "pitch": 53, "duration": 10, "velocity": 86}, {"time": 3166, "pitch": 58, "duration": 3, "velocity": 92}, {"time": 3169, "pitch": 62, "duration": 2, "velocity": 84}, {"time": 3172, "pitch": 58, "duration": 2, "velocity": 92}, {"time": 3172, "pitch": 62, "duration": 3, "velocity": 93}, {"time": 3172, "pitch": 65, "duration": 10, "velocity": 96}, {"time": 3175, "pitch": 53, "duration": 2, "velocity": 85}, {"time": 3178, "pitch": 58, "duration": 3, "velocity": 97}, {"time": 3178, "pitch": 62, "duration": 1, "velocity": 62}, {"time": 3181, "pitch": 62, "duration": 1, "velocity": 85}, {"time": 3184, "pitch": 43, "duration": 20, "velocity": 93}, {"time": 3184, "pitch": 55, "duration": 4, "velocity": 82}, {"time": 3184, "pitch": 62, "duration": 7, "velocity": 92}, {"time": 3187, "pitch": 50, "duration": 10, "velocity": 88}, {"time": 3190, "pitch": 55, "duration": 4, "velocity": 92}, {"time": 3193, "pitch": 62, "duration": 2, "velocity": 91}, {"time": 3196, "pitch": 55, "duration": 3, "velocity": 97}, {"time": 3196, "pitch": 62, "duration": 3, "velocity": 93}, {"time": 3196, "pitch": 67, "duration": 10, "velocity": 91}, {"time": 3199, "pitch": 50, "duration": 4, "velocity": 93}, {"time": 3202, "pitch": 55, "duration": 4, "velocity": 93}, {"time": 3205, "pitch": 62, "duration": 2, "velocity": 87}, {"time": 3208, "pitch": 48, "duration": 16, "velocity": 98}, {"time": 3208, "pitch": 55, "duration": 3, "velocity": 93}, {"time": 3208, "pitch": 60, "duration": 6, "velocity": 94}, {"time": 3211, "pitch": 52, "duration": 13, "velocity": 79}, {"time": 3214, "pitch": 55, "duration": 4, "velocity": 93}, {"time": 3217, "pitch": 60, "duration": 1, "velocity": 92}, {"time": 3220, "pitch": 55, "duration": 3, "velocity": 94}, {"time": 3220, "pitch": 62, "duration": 3, "velocity": 101}, {"time": 3223, "pitch": 60, "duration": 3, "velocity": 93}, {"time": 3226, "pitch": 55, "duration": 4, "velocity": 94}, {"time": 3229, "pitch": 60, "duration": 1, "velocity": 92}, {"time": 3232, "pitch": 48, "duration": 13, "velocity": 103}, {"time": 3232, "pitch": 55, "duration": 2, "velocity": 94}, {"time": 3232, "pitch": 64, "duration": 6, "velocity": 96}, {"time": 3235, "pitch": 55, "duration": 3, "velocity": 90}, {"time": 3238, "pitch": 60, "duration": 1, "velocity": 91}, {"time": 3241, "pitch": 55, "duration": 1, "velocity": 95}, {"time": 3241, "pitch": 60, "duration": 2, "velocity": 95}, {"time": 3244, "pitch": 55, "duration": 2, "velocity": 106}, {"time": 3244, "pitch": 60, "duration": 2, "velocity": 103}, {"time": 3247, "pitch": 48, "duration": 1, "velocity": 93}, {"time": 3250, "pitch": 55, "duration": 2, "velocity": 93}, {"time": 3250, "pitch": 58, "duration": 2, "velocity": 97}, {"time": 3256, "pitch": 41, "duration": 20, "velocity": 93}, {"time": 3256, "pitch": 53, "duration": 7, "velocity": 93}, {"time": 3256, "pitch": 57, "duration": 6, "velocity": 92}, {"time": 3259, "pitch": 48, "duration": 16, "velocity": 93}, {"time": 3262, "pitch": 60, "duration": 6, "velocity": 92}, {"time": 3265, "pitch": 57, "duration": 1, "velocity": 70}, {"time": 3268, "pitch": 65, "duration": 13, "velocity": 97}, {"time": 3271, "pitch": 60, "duration": 8, "velocity": 93}, {"time": 3274, "pitch": 57, "duration": 4, "velocity": 92}, {"time": 3277, "pitch": 53, "duration": 2, "velocity": 93}, {"time": 3280, "pitch": 45, "duration": 19, "velocity": 88}, {"time": 3283, "pitch": 52, "duration": 10, "velocity": 88}, {"time": 3286, "pitch": 57, "duration": 4, "velocity": 96}, {"time": 3289, "pitch": 61, "duration": 1, "velocity": 96}, {"time": 3292, "pitch": 57, "duration": 3, "velocity": 99}, {"time": 3292, "pitch": 61, "duration": 1, "velocity": 93}, {"time": 3292, "pitch": 64, "duration": 6, "velocity": 106}, {"time": 3292, "pitch": 69, "duration": 8, "velocity": 93}, {"time": 3295, "pitch": 52, "duration": 4, "velocity": 92}, {"time": 3298, "pitch": 61, "duration": 3, "velocity": 93}, {"time": 3301, "pitch": 57, "duration": 1, "velocity": 93}, {"time": 3304, "pitch": 50, "duration": 22, "velocity": 95}, {"time": 3304, "pitch": 57, "duration": 2, "velocity": 94}, {"time": 3304, "pitch": 62, "duration": 6, "velocity": 94}, {"time": 3307, "pitch": 53, "duration": 19, "velocity": 77}, {"time": 3310, "pitch": 57, "duration": 4, "velocity": 93}, {"time": 3313, "pitch": 62, "duration": 1, "velocity": 86}, {"time": 3316, "pitch": 65, "duration": 4, "velocity": 99}, {"time": 3319, "pitch": 62, "duration": 3, "velocity": 91}, {"time": 3322, "pitch": 57, "duration": 4, "velocity": 88}, {"time": 3325, "pitch": 62, "duration": 1, "velocity": 86}, {"time": 3328, "pitch": 50, "duration": 10, "velocity": 96}, {"time": 3328, "pitch": 57, "duration": 3, "velocity": 93}, {"time": 3328, "pitch": 65, "duration": 6, "velocity": 93}, {"time": 3331, "pitch": 53, "duration": 6, "velocity": 87}, {"time": 3334, "pitch": 57, "duration": 4, "velocity": 94}, {"time": 3337, "pitch": 65, "duration": 1, "velocity": 95}, {"time": 3340, "pitch": 48, "duration": 6, "velocity": 94}, {"time": 3340, "pitch": 64, "duration": 9, "velocity": 95}, {"time": 3352, "pitch": 46, "duration": 18, "velocity": 97}, {"time": 3352, "pitch": 58, "duration": 2, "velocity": 92}, {"time": 3352, "pitch": 62, "duration": 6, "velocity": 93}, {"time": 3355, "pitch": 53, "duration": 10, "velocity": 79}, {"time": 3358, "pitch": 58, "duration": 4, "velocity": 85}, {"time": 3361, "pitch": 62, "duration": 2, "velocity": 86}, {"time": 3364, "pitch": 65, "duration": 9, "velocity": 94}, {"time": 3367, "pitch": 53, "duration": 6, "velocity": 92}, {"time": 3370, "pitch": 58, "duration": 4, "velocity": 91}, {"time": 3373, "pitch": 62, "duration": 3, "velocity": 85}, {"time": 3376, "pitch": 48, "duration": 18, "velocity": 91}, {"time": 3379, "pitch": 55, "duration": 3, "velocity": 89}, {"time": 3379, "pitch": 57, "duration": 2, "velocity": 87}, {"time": 3382, "pitch": 60, "duration": 3, "velocity": 94}, {"time": 3385, "pitch": 55, "duration": 3, "velocity": 95}, {"time": 3388, "pitch": 64, "duration": 5, "velocity": 106}, {"time": 3391, "pitch": 55, "duration": 3, "velocity": 94}, {"time": 3394, "pitch": 60, "duration": 3, "velocity": 90}, {"time": 3397, "pitch": 55, "duration": 1, "velocity": 87}, {"time": 3400, "pitch": 41, "duration": 21, "velocity": 93}, {"time": 3400, "pitch": 53, "duration": 3, "velocity": 87}, {"time": 3400, "pitch": 57, "duration": 4, "velocity": 92}, {"time": 3403, "pitch": 48, "duration": 18, "velocity": 85}, {"time": 3406, "pitch": 53, "duration": 5, "velocity": 88}, {"time": 3409, "pitch": 60, "duration": 3, "velocity": 87}, {"time": 3412, "pitch": 65, "duration": 10, "velocity": 96}, {"time": 3415, "pitch": 60, "duration": 5, "velocity": 92}, {"time": 3418, "pitch": 57, "duration": 3, "velocity": 75}, {"time": 3421, "pitch": 53, "duration": 13, "velocity": 83}, {"time": 3424, "pitch": 41, "duration": 22, "velocity": 89}, {"time": 3424, "pitch": 57, "duration": 8, "velocity": 87}, {"time": 3424, "pitch": 60, "duration": 8, "velocity": 87}, {"time": 3436, "pitch": 60, "duration": 3, "velocity": 94}, {"time": 3436, "pitch": 65, "duration": 10, "velocity": 93}, {"time": 3439, "pitch": 48, "duration": 7, "velocity": 91}, {"time": 3442, "pitch": 53, "duration": 4, "velocity": 88}, {"time": 3442, "pitch": 60, "duration": 3, "velocity": 65}, {"time": 3445, "pitch": 57, "duration": 2, "velocity": 81}, {"time": 3448, "pitch": 46, "duration": 17, "velocity": 88}, {"time": 3448, "pitch": 65, "duration": 6, "velocity": 94}, {"time": 3451, "pitch": 53, "duration": 15, "velocity": 86}, {"time": 3454, "pitch": 58, "duration": 9, "velocity": 88}, {"time": 3457, "pitch": 62, "duration": 6, "velocity": 92}, {"time": 3463, "pitch": 65, "duration": 7, "velocity": 95}, {"time": 3466, "pitch": 58, "duration": 2, "velocity": 93}, {"time": 3472, "pitch": 48, "duration": 18, "velocity": 94}, {"time": 3472, "pitch": 60, "duration": 3, "velocity": 85}, {"time": 3472, "pitch": 64, "duration": 5, "velocity": 92}, {"time": 3475, "pitch": 55, "duration": 7, "velocity": 86}, {"time": 3478, "pitch": 60, "duration": 4, "velocity": 93}, {"time": 3481, "pitch": 67, "duration": 9, "velocity": 93}, {"time": 3484, "pitch": 55, "duration": 6, "velocity": 84}, {"time": 3490, "pitch": 72, "duration": 2, "velocity": 98}, {"time": 3496, "pitch": 41, "duration": 22, "velocity": 92}, {"time": 3499, "pitch": 48, "duration": 19, "velocity": 83}, {"time": 3502, "pitch": 53, "duration": 3, "velocity": 83}, {"time": 3505, "pitch": 55, "duration": 2, "velocity": 91}, {"time": 3508, "pitch": 57, "duration": 4, "velocity": 88}, {"time": 3511, "pitch": 60, "duration": 3, "velocity": 93}, {"time": 3514, "pitch": 65, "duration": 4, "velocity": 92}, {"time": 3517, "pitch": 57, "duration": 7, "velocity": 86}, {"time": 3520, "pitch": 41, "duration": 18, "velocity": 87}, {"time": 3520, "pitch": 60, "duration": 7, "velocity": 82}, {"time": 3520, "pitch": 65, "duration": 6, "velocity": 88}, {"time": 3526, "pitch": 48, "duration": 8, "velocity": 74}, {"time": 3532, "pitch": 57, "duration": 11, "velocity": 93}, {"time": 3532, "pitch": 60, "duration": 12, "velocity": 99}, {"time": 3532, "pitch": 65, "duration": 12, "velocity": 94}, {"time": 3538, "pitch": 48, "duration": 6, "velocity": 92}, {"time": 3544, "pitch": 53, "duration": 17, "velocity": 85}, {"time": 3550, "pitch": 65, "duration": 7, "velocity": 84}, {"time": 3556, "pitch": 69, "duration": 24, "velocity": 94}, {"time": 3568, "pitch": 50, "duration": 13, "velocity": 92}, {"time": 3574, "pitch": 57, "duration": 7, "velocity": 79}, {"time": 3580, "pitch": 65, "duration": 6, "velocity": 93}, {"time": 3586, "pitch": 62, "duration": 6, "velocity": 84}, {"time": 3592, "pitch": 43, "duration": 15, "velocity": 87}, {"time": 3592, "pitch": 67, "duration": 14, "velocity": 86}, {"time": 3598, "pitch": 50, "duration": 7, "velocity": 73}, {"time": 3604, "pitch": 55, "duration": 2, "velocity": 88}, {"time": 3604, "pitch": 62, "duration": 2, "velocity": 89}, {"time": 3610, "pitch": 48, "duration": 21, "velocity": 89}, {"time": 3610, "pitch": 55, "duration": 9, "velocity": 92}, {"time": 3610, "pitch": 60, "duration": 15, "velocity": 92}, {"time": 3622, "pitch": 55, "duration": 6, "velocity": 88}, {"time": 3628, "pitch": 64, "duration": 10, "velocity": 93}, {"time": 3640, "pitch": 45, "duration": 20, "velocity": 88}, {"time": 3640, "pitch": 57, "duration": 10, "velocity": 83}, {"time": 3640, "pitch": 60, "duration": 9, "velocity": 86}, {"time": 3646, "pitch": 52, "duration": 13, "velocity": 75}, {"time": 3652, "pitch": 57, "duration": 3, "velocity": 89}, {"time": 3652, "pitch": 60, "duration": 6, "velocity": 92}, {"time": 3664, "pitch": 50, "duration": 18, "velocity": 92}, {"time": 3664, "pitch": 57, "duration": 9, "velocity": 87}, {"time": 3664, "pitch": 62, "duration": 10, "velocity": 90}, {"time": 3676, "pitch": 65, "duration": 7, "velocity": 93}, {"time": 3682, "pitch": 57, "duration": 2, "velocity": 87}, {"time": 3688, "pitch": 43, "duration": 14, "velocity": 93}, {"time": 3688, "pitch": 55, "duration": 5, "velocity": 86}, {"time": 3688, "pitch": 62, "duration": 8, "velocity": 89}, {"time": 3694, "pitch": 55, "duration": 3, "velocity": 80}, {"time": 3700, "pitch": 55, "duration": 1, "velocity": 94}, {"time": 3700, "pitch": 62, "duration": 1, "velocity": 92}, {"time": 3706, "pitch": 48, "duration": 23, "velocity": 86}, {"time": 3706, "pitch": 55, "duration": 19, "velocity": 92}, {"time": 3706, "pitch": 60, "duration": 17, "velocity": 93}, {"time": 3724, "pitch": 60, "duration": 5, "velocity": 92}, {"time": 3724, "pitch": 64, "duration": 5, "velocity": 95}, {"time": 3736, "pitch": 41, "duration": 7, "velocity": 91}, {"time": 3738, "pitch": 48, "duration": 4, "velocity": 87}, {"time": 3741, "pitch": 53, "duration": 3, "velocity": 82}, {"time": 3742, "pitch": 57, "duration": 4, "velocity": 83}, {"time": 3744, "pitch": 60, "duration": 2, "velocity": 79}, {"time": 3746, "pitch": 65, "duration": 2, "velocity": 91}, {"time": 3758, "pitch": 77, "duration": 1, "velocity": 51}, {"time": 3759, "pitch": 81, "duration": 1, "velocity": 69}, {"time": 3760, "pitch": 89, "duration": 2, "velocity": 93}], "annotations": [{"time": 16, "annotation": {"number": 64, "value": 127}, "group": "control_change"}, {"time": 40, "annotation": {"number": 64, "value": 0}, "group": "control_change"}, {"time": 46, "annotation": {"number": 64, "value": 127}, "group": "control_change"}, {"time": 63, "annotation": {"number": 64, "value": 0}, "group": "control_change"}, {"time": 68, "annotation": {"number": 64, "value": 127}, "group": "control_change"}, {"time": 81, "annotation": {"number": 64, "value": 0}, "group": "control_change"}, {"time": 89, "annotation": {"number": 64, "value": 127}, "group": "control_change"}, {"time": 110, "annotation": {"number": 64, "value": 0}, "group": "control_change"}, {"time": 115, "annotation": {"number": 64, "value": 127}, "group": "control_change"}, {"time": 136, "annotation": {"number": 64, "value": 0}, "group": "control_change"}, {"time": 140, "annotation": {"number": 64, "value": 127}, "group": "control_change"}, {"time": 159, "annotation": {"number": 64, "value": 0}, "group": "control_change"}, {"time": 161, "annotation": {"number": 64, "value": 127}, "group": "control_change"}, {"time": 174, "annotation": {"number": 64, "value": 0}, "group": "control_change"}, {"time": 179, "annotation": {"number": 64, "value": 127}, "group": "control_change"}, {"time": 181, "annotation": {"number": 64, "value": 0}, "group": "control_change"}, {"time": 193, "annotation": {"number": 64, "value": 127}, "group": "control_change"}, {"time": 207, "annotation": {"number": 64, "value": 0}, "group": "control_change"}, {"time": 208, "annotation": {"number": 64, "value": 127}, "group": "control_change"}, {"time": 232, "annotation": {"number": 64, "value": 0}, "group": "control_change"}, {"time": 233, "annotation": {"number": 64, "value": 127}, "group": "control_change"}, {"time": 254, "annotation": {"number": 64, "value": 0}, "group": "control_change"}, {"time": 256, "annotation": {"number": 64, "value": 127}, "group": "control_change"}, {"time": 280, "annotation": {"number": 64, "value": 127}, "group": "control_change"}, {"time": 285, "annotation": {"number": 64, "value": 0}, "group": "control_change"}, {"time": 291, "annotation": {"number": 64, "value": 0}, "group": "control_change"}, {"time": 294, "annotation": {"number": 64, "value": 127}, "group": "control_change"}, {"time": 302, "annotation": {"number": 64, "value": 0}, "group": "control_change"}, {"time": 304, "annotation": {"number": 64, "value": 127}, "group": "control_change"}, {"time": 325, "annotation": {"number": 64, "value": 0}, "group": "control_change"}, {"time": 328, "annotation": {"number": 64, "value": 127}, "group": "control_change"}, {"time": 350, "annotation": {"number": 64, "value": 0}, "group": "control_change"}, {"time": 352, "annotation": {"number": 64, "value": 127}, "group": "control_change"}, {"time": 375, "annotation": {"number": 64, "value": 0}, "group": "control_change"}, {"time": 377, "annotation": {"number": 64, "value": 127}, "group": "control_change"}, {"time": 398, "annotation": {"number": 64, "value": 0}, "group": "control_change"}, {"time": 401, "annotation": {"number": 64, "value": 127}, "group": "control_change"}, {"time": 444, "annotation": {"number": 64, "value": 0}, "group": "control_change"}, {"time": 449, "annotation": {"number": 64, "value": 127}, "group": "control_change"}, {"time": 472, "annotation": {"number": 64, "value": 0}, "group": "control_change"}, {"time": 477, "annotation": {"number": 64, "value": 127}, "group": "control_change"}, {"time": 495, "annotation": {"number": 64, "value": 0}, "group": "control_change"}, {"time": 500, "annotation": {"number": 64, "value": 127}, "group": "control_change"}, {"time": 520, "annotation": {"number": 64, "value": 0}, "group": "control_change"}, {"time": 524, "annotation": {"number": 64, "value": 127}, "group": "control_change"}, {"time": 542, "annotation": {"number": 64, "value": 0}, "group": "control_change"}, {"time": 545, "annotation": {"number": 64, "value": 127}, "group": "control_change"}, {"time": 567, "annotation": {"number": 64, "value": 0}, "group": "control_change"}, {"time": 573, "annotation": {"number": 64, "value": 127}, "group": "control_change"}, {"time": 591, "annotation": {"number": 64, "value": 0}, "group": "control_change"}, {"time": 596, "annotation": {"number": 64, "value": 127}, "group": "control_change"}, {"time": 614, "annotation": {"number": 64, "value": 0}, "group": "control_change"}, {"time": 616, "annotation": {"number": 64, "value": 127}, "group": "control_change"}, {"time": 641, "annotation": {"number": 64, "value": 0}, "group": "control_change"}, {"time": 646, "annotation": {"number": 64, "value": 127}, "group": "control_change"}, {"time": 663, "annotation": {"number": 64, "value": 0}, "group": "control_change"}, {"time": 668, "annotation": {"number": 64, "value": 127}, "group": "control_change"}, {"time": 686, "annotation": {"number": 64, "value": 0}, "group": "control_change"}, {"time": 692, "annotation": {"number": 64, "value": 127}, "group": "control_change"}, {"time": 712, "annotation": {"number": 64, "value": 0}, "group": "control_change"}, {"time": 717, "annotation": {"number": 64, "value": 127}, "group": "control_change"}, {"time": 735, "annotation": {"number": 64, "value": 0}, "group": "control_change"}, {"time": 741, "annotation": {"number": 64, "value": 127}, "group": "control_change"}, {"time": 759, "annotation": {"number": 64, "value": 0}, "group": "control_change"}, {"time": 765, "annotation": {"number": 64, "value": 127}, "group": "control_change"}, {"time": 782, "annotation": {"number": 64, "value": 0}, "group": "control_change"}, {"time": 786, "annotation": {"number": 64, "value": 127}, "group": "control_change"}, {"time": 806, "annotation": {"number": 64, "value": 0}, "group": "control_change"}, {"time": 807, "annotation": {"number": 64, "value": 127}, "group": "control_change"}, {"time": 829, "annotation": {"number": 64, "value": 0}, "group": "control_change"}, {"time": 832, "annotation": {"number": 64, "value": 127}, "group": "control_change"}, {"time": 855, "annotation": {"number": 64, "value": 0}, "group": "control_change"}, {"time": 857, "annotation": {"number": 64, "value": 127}, "group": "control_change"}, {"time": 878, "annotation": {"number": 64, "value": 0}, "group": "control_change"}, {"time": 880, "annotation": {"number": 64, "value": 127}, "group": "control_change"}, {"time": 902, "annotation": {"number": 64, "value": 0}, "group": "control_change"}, {"time": 904, "annotation": {"number": 64, "value": 127}, "group": "control_change"}, {"time": 927, "annotation": {"number": 64, "value": 0}, "group": "control_change"}, {"time": 929, "annotation": {"number": 64, "value": 127}, "group": "control_change"}, {"time": 951, "annotation": {"number": 64, "value": 0}, "group": "control_change"}, {"time": 953, "annotation": {"number": 64, "value": 127}, "group": "control_change"}, {"time": 974, "annotation": {"number": 64, "value": 0}, "group": "control_change"}, {"time": 976, "annotation": {"number": 64, "value": 127}, "group": "control_change"}, {"time": 1023, "annotation": {"number": 64, "value": 0}, "group": "control_change"}, {"time": 1025, "annotation": {"number": 64, "value": 127}, "group": "control_change"}, {"time": 1047, "annotation": {"number": 64, "value": 0}, "group": "control_change"}, {"time": 1049, "annotation": {"number": 64, "value": 127}, "group": "control_change"}, {"time": 1070, "annotation": {"number": 64, "value": 0}, "group": "control_change"}, {"time": 1072, "annotation": {"number": 64, "value": 127}, "group": "control_change"}, {"time": 1093, "annotation": {"number": 64, "value": 0}, "group": "control_change"}, {"time": 1095, "annotation": {"number": 64, "value": 127}, "group": "control_change"}, {"time": 1107, "annotation": {"number": 64, "value": 0}, "group": "control_change"}, {"time": 1108, "annotation": {"number": 64, "value": 127}, "group": "control_change"}, {"time": 1119, "annotation": {"number": 64, "value": 0}, "group": "control_change"}, {"time": 1120, "annotation": {"number": 64, "value": 127}, "group": "control_change"}, {"time": 1143, "annotation": {"number": 64, "value": 0}, "group": "control_change"}, {"time": 1149, "annotation": {"number": 64, "value": 127}, "group": "control_change"}, {"time": 1166, "annotation": {"number": 64, "value": 0}, "group": "control_change"}, {"time": 1168, "annotation": {"number": 64, "value": 127}, "group": "control_change"}, {"time": 1190, "annotation": {"number": 64, "value": 0}, "group": "control_change"}, {"time": 1192, "annotation": {"number": 64, "value": 127}, "group": "control_change"}, {"time": 1214, "annotation": {"number": 64, "value": 0}, "group": "control_change"}, {"time": 1216, "annotation": {"number": 64, "value": 127}, "group": "control_change"}, {"time": 1240, "annotation": {"number": 64, "value": 0}, "group": "control_change"}, {"time": 1241, "annotation": {"number": 64, "value": 127}, "group": "control_change"}, {"time": 1262, "annotation": {"number": 64, "value": 0}, "group": "control_change"}, {"time": 1264, "annotation": {"number": 64, "value": 127}, "group": "control_change"}, {"time": 1286, "annotation": {"number": 64, "value": 0}, "group": "control_change"}, {"time": 1288, "annotation": {"number": 64, "value": 127}, "group": "control_change"}, {"time": 1299, "annotation": {"number": 64, "value": 0}, "group": "control_change"}, {"time": 1300, "annotation": {"number": 64, "value": 127}, "group": "control_change"}, {"time": 1311, "annotation": {"number": 64, "value": 0}, "group": "control_change"}, {"time": 1313, "annotation": {"number": 64, "value": 127}, "group": "control_change"}, {"time": 1335, "annotation": {"number": 64, "value": 0}, "group": "control_change"}, {"time": 1337, "annotation": {"number": 64, "value": 127}, "group": "control_change"}, {"time": 1359, "annotation": {"number": 64, "value": 0}, "group": "control_change"}, {"time": 1361, "annotation": {"number": 64, "value": 127}, "group": "control_change"}, {"time": 1382, "annotation": {"number": 64, "value": 0}, "group": "control_change"}, {"time": 1385, "annotation": {"number": 64, "value": 127}, "group": "control_change"}, {"time": 1406, "annotation": {"number": 64, "value": 0}, "group": "control_change"}, {"time": 1408, "annotation": {"number": 64, "value": 127}, "group": "control_change"}, {"time": 1431, "annotation": {"number": 64, "value": 0}, "group": "control_change"}, {"time": 1433, "annotation": {"number": 64, "value": 127}, "group": "control_change"}, {"time": 1454, "annotation": {"number": 64, "value": 0}, "group": "control_change"}, {"time": 1456, "annotation": {"number": 64, "value": 127}, "group": "control_change"}, {"time": 1478, "annotation": {"number": 64, "value": 0}, "group": "control_change"}, {"time": 1480, "annotation": {"number": 64, "value": 127}, "group": "control_change"}, {"time": 1491, "annotation": {"number": 64, "value": 0}, "group": "control_change"}, {"time": 1492, "annotation": {"number": 64, "value": 127}, "group": "control_change"}, {"time": 1502, "annotation": {"number": 64, "value": 0}, "group": "control_change"}, {"time": 1504, "annotation": {"number": 64, "value": 127}, "group": "control_change"}, {"time": 1527, "annotation": {"number": 64, "value": 0}, "group": "control_change"}, {"time": 1529, "annotation": {"number": 64, "value": 127}, "group": "control_change"}, {"time": 1551, "annotation": {"number": 64, "value": 0}, "group": "control_change"}, {"time": 1553, "annotation": {"number": 64, "value": 127}, "group": "control_change"}, {"time": 1575, "annotation": {"number": 64, "value": 0}, "group": "control_change"}, {"time": 1581, "annotation": {"number": 64, "value": 127}, "group": "control_change"}, {"time": 1598, "annotation": {"number": 64, "value": 0}, "group": "control_change"}, {"time": 1600, "annotation": {"number": 64, "value": 127}, "group": "control_change"}, {"time": 1623, "annotation": {"number": 64, "value": 0}, "group": "control_change"}, {"time": 1626, "annotation": {"number": 64, "value": 127}, "group": "control_change"}, {"time": 1646, "annotation": {"number": 64, "value": 0}, "group": "control_change"}, {"time": 1651, "annotation": {"number": 64, "value": 127}, "group": "control_change"}, {"time": 1671, "annotation": {"number": 64, "value": 0}, "group": "control_change"}, {"time": 1674, "annotation": {"number": 64, "value": 127}, "group": "control_change"}, {"time": 1717, "annotation": {"number": 64, "value": 0}, "group": "control_change"}, {"time": 1721, "annotation": {"number": 64, "value": 127}, "group": "control_change"}, {"time": 1744, "annotation": {"number": 64, "value": 0}, "group": "control_change"}, {"time": 1745, "annotation": {"number": 64, "value": 127}, "group": "control_change"}, {"time": 1767, "annotation": {"number": 64, "value": 0}, "group": "control_change"}, {"time": 1771, "annotation": {"number": 64, "value": 127}, "group": "control_change"}, {"time": 1791, "annotation": {"number": 64, "value": 0}, "group": "control_change"}, {"time": 1792, "annotation": {"number": 64, "value": 127}, "group": "control_change"}, {"time": 1804, "annotation": {"number": 64, "value": 0}, "group": "control_change"}, {"time": 1805, "annotation": {"number": 64, "value": 127}, "group": "control_change"}, {"time": 1814, "annotation": {"number": 64, "value": 0}, "group": "control_change"}, {"time": 1817, "annotation": {"number": 64, "value": 127}, "group": "control_change"}, {"time": 1838, "annotation": {"number": 64, "value": 0}, "group": "control_change"}, {"time": 1841, "annotation": {"number": 64, "value": 127}, "group": "control_change"}, {"time": 1863, "annotation": {"number": 64, "value": 0}, "group": "control_change"}, {"time": 1865, "annotation": {"number": 64, "value": 127}, "group": "control_change"}, {"time": 1887, "annotation": {"number": 64, "value": 0}, "group": "control_change"}, {"time": 1889, "annotation": {"number": 64, "value": 127}, "group": "control_change"}, {"time": 1911, "annotation": {"number": 64, "value": 0}, "group": "control_change"}, {"time": 1913, "annotation": {"number": 64, "value": 127}, "group": "control_change"}, {"time": 1936, "annotation": {"number": 64, "value": 0}, "group": "control_change"}, {"time": 1941, "annotation": {"number": 64, "value": 127}, "group": "control_change"}, {"time": 1959, "annotation": {"number": 64, "value": 0}, "group": "control_change"}, {"time": 1964, "annotation": {"number": 64, "value": 127}, "group": "control_change"}, {"time": 1984, "annotation": {"number": 64, "value": 0}, "group": "control_change"}, {"time": 1988, "annotation": {"number": 64, "value": 127}, "group": "control_change"}, {"time": 2006, "annotation": {"number": 64, "value": 0}, "group": "control_change"}, {"time": 2009, "annotation": {"number": 64, "value": 127}, "group": "control_change"}, {"time": 2031, "annotation": {"number": 64, "value": 0}, "group": "control_change"}, {"time": 2037, "annotation": {"number": 64, "value": 127}, "group": "control_change"}, {"time": 2055, "annotation": {"number": 64, "value": 0}, "group": "control_change"}, {"time": 2060, "annotation": {"number": 64, "value": 127}, "group": "control_change"}, {"time": 2078, "annotation": {"number": 64, "value": 0}, "group": "control_change"}, {"time": 2080, "annotation": {"number": 64, "value": 127}, "group": "control_change"}, {"time": 2105, "annotation": {"number": 64, "value": 0}, "group": "control_change"}, {"time": 2110, "annotation": {"number": 64, "value": 127}, "group": "control_change"}, {"time": 2127, "annotation": {"number": 64, "value": 0}, "group": "control_change"}, {"time": 2132, "annotation": {"number": 64, "value": 127}, "group": "control_change"}, {"time": 2150, "annotation": {"number": 64, "value": 0}, "group": "control_change"}, {"time": 2156, "annotation": {"number": 64, "value": 127}, "group": "control_change"}, {"time": 2176, "annotation": {"number": 64, "value": 0}, "group": "control_change"}, {"time": 2181, "annotation": {"number": 64, "value": 127}, "group": "control_change"}, {"time": 2199, "annotation": {"number": 64, "value": 0}, "group": "control_change"}, {"time": 2205, "annotation": {"number": 64, "value": 127}, "group": "control_change"}, {"time": 2223, "annotation": {"number": 64, "value": 0}, "group": "control_change"}, {"time": 2229, "annotation": {"number": 64, "value": 127}, "group": "control_change"}, {"time": 2246, "annotation": {"number": 64, "value": 0}, "group": "control_change"}, {"time": 2250, "annotation": {"number": 64, "value": 127}, "group": "control_change"}, {"time": 2270, "annotation": {"number": 64, "value": 0}, "group": "control_change"}, {"time": 2271, "annotation": {"number": 64, "value": 127}, "group": "control_change"}, {"time": 2293, "annotation": {"number": 64, "value": 0}, "group": "control_change"}, {"time": 2296, "annotation": {"number": 64, "value": 127}, "group": "control_change"}, {"time": 2319, "annotation": {"number": 64, "value": 0}, "group": "control_change"}, {"time": 2321, "annotation": {"number": 64, "value": 127}, "group": "control_change"}, {"time": 2342, "annotation": {"number": 64, "value": 0}, "group": "control_change"}, {"time": 2344, "annotation": {"number": 64, "value": 127}, "group": "control_change"}, {"time": 2366, "annotation": {"number": 64, "value": 0}, "group": "control_change"}, {"time": 2368, "annotation": {"number": 64, "value": 127}, "group": "control_change"}, {"time": 2391, "annotation": {"number": 64, "value": 0}, "group": "control_change"}, {"time": 2393, "annotation": {"number": 64, "value": 127}, "group": "control_change"}, {"time": 2415, "annotation": {"number": 64, "value": 0}, "group": "control_change"}, {"time": 2417, "annotation": {"number": 64, "value": 127}, "group": "control_change"}, {"time": 2438, "annotation": {"number": 64, "value": 0}, "group": "control_change"}, {"time": 2440, "annotation": {"number": 64, "value": 127}, "group": "control_change"}, {"time": 2487, "annotation": {"number": 64, "value": 0}, "group": "control_change"}, {"time": 2489, "annotation": {"number": 64, "value": 127}, "group": "control_change"}, {"time": 2511, "annotation": {"number": 64, "value": 0}, "group": "control_change"}, {"time": 2513, "annotation": {"number": 64, "value": 127}, "group": "control_change"}, {"time": 2534, "annotation": {"number": 64, "value": 0}, "group": "control_change"}, {"time": 2536, "annotation": {"number": 64, "value": 127}, "group": "control_change"}, {"time": 2557, "annotation": {"number": 64, "value": 0}, "group": "control_change"}, {"time": 2559, "annotation": {"number": 64, "value": 127}, "group": "control_change"}, {"time": 2571, "annotation": {"number": 64, "value": 0}, "group": "control_change"}, {"time": 2572, "annotation": {"number": 64, "value": 127}, "group": "control_change"}, {"time": 2583, "annotation": {"number": 64, "value": 0}, "group": "control_change"}, {"time": 2584, "annotation": {"number": 64, "value": 127}, "group": "control_change"}, {"time": 2607, "annotation": {"number": 64, "value": 0}, "group": "control_change"}, {"time": 2613, "annotation": {"number": 64, "value": 127}, "group": "control_change"}, {"time": 2630, "annotation": {"number": 64, "value": 0}, "group": "control_change"}, {"time": 2632, "annotation": {"number": 64, "value": 127}, "group": "control_change"}, {"time": 2654, "annotation": {"number": 64, "value": 0}, "group": "control_change"}, {"time": 2656, "annotation": {"number": 64, "value": 127}, "group": "control_change"}, {"time": 2678, "annotation": {"number": 64, "value": 0}, "group": "control_change"}, {"time": 2680, "annotation": {"number": 64, "value": 127}, "group": "control_change"}, {"time": 2704, "annotation": {"number": 64, "value": 0}, "group": "control_change"}, {"time": 2705, "annotation": {"number": 64, "value": 127}, "group": "control_change"}, {"time": 2726, "annotation": {"number": 64, "value": 0}, "group": "control_change"}, {"time": 2728, "annotation": {"number": 64, "value": 127}, "group": "control_change"}, {"time": 2750, "annotation": {"number": 64, "value": 0}, "group": "control_change"}, {"time": 2752, "annotation": {"number": 64, "value": 127}, "group": "control_change"}, {"time": 2763, "annotation": {"number": 64, "value": 0}, "group": "control_change"}, {"time": 2764, "annotation": {"number": 64, "value": 127}, "group": "control_change"}, {"time": 2775, "annotation": {"number": 64, "value": 0}, "group": "control_change"}, {"time": 2777, "annotation": {"number": 64, "value": 127}, "group": "control_change"}, {"time": 2799, "annotation": {"number": 64, "value": 0}, "group": "control_change"}, {"time": 2801, "annotation": {"number": 64, "value": 127}, "group": "control_change"}, {"time": 2823, "annotation": {"number": 64, "value": 0}, "group": "control_change"}, {"time": 2825, "annotation": {"number": 64, "value": 127}, "group": "control_change"}, {"time": 2846, "annotation": {"number": 64, "value": 0}, "group": "control_change"}, {"time": 2849, "annotation": {"number": 64, "value": 127}, "group": "control_change"}, {"time": 2870, "annotation": {"number": 64, "value": 0}, "group": "control_change"}, {"time": 2872, "annotation": {"number": 64, "value": 127}, "group": "control_change"}, {"time": 2895, "annotation": {"number": 64, "value": 0}, "group": "control_change"}, {"time": 2897, "annotation": {"number": 64, "value": 127}, "group": "control_change"}, {"time": 2918, "annotation": {"number": 64, "value": 0}, "group": "control_change"}, {"time": 2920, "annotation": {"number": 64, "value": 127}, "group": "control_change"}, {"time": 2942, "annotation": {"number": 64, "value": 0}, "group": "control_change"}, {"time": 2944, "annotation": {"number": 64, "value": 127}, "group": "control_change"}, {"time": 2955, "annotation": {"number": 64, "value": 0}, "group": "control_change"}, {"time": 2956, "annotation": {"number": 64, "value": 127}, "group": "control_change"}, {"time": 2966, "annotation": {"number": 64, "value": 0}, "group": "control_change"}, {"time": 2968, "annotation": {"number": 64, "value": 127}, "group": "control_change"}, {"time": 2991, "annotation": {"number": 64, "value": 0}, "group": "control_change"}, {"time": 2993, "annotation": {"number": 64, "value": 127}, "group": "control_change"}, {"time": 3015, "annotation": {"number": 64, "value": 0}, "group": "control_change"}, {"time": 3017, "annotation": {"number": 64, "value": 127}, "group": "control_change"}, {"time": 3039, "annotation": {"number": 64, "value": 0}, "group": "control_change"}, {"time": 3045, "annotation": {"number": 64, "value": 127}, "group": "control_change"}, {"time": 3062, "annotation": {"number": 64, "value": 0}, "group": "control_change"}, {"time": 3064, "annotation": {"number": 64, "value": 127}, "group": "control_change"}, {"time": 3088, "annotation": {"number": 64, "value": 0}, "group": "control_change"}, {"time": 3089, "annotation": {"number": 64, "value": 127}, "group": "control_change"}, {"time": 3110, "annotation": {"number": 64, "value": 0}, "group": "control_change"}, {"time": 3112, "annotation": {"number": 64, "value": 127}, "group": "control_change"}, {"time": 3134, "annotation": {"number": 64, "value": 0}, "group": "control_change"}, {"time": 3136, "annotation": {"number": 64, "value": 127}, "group": "control_change"}, {"time": 3147, "annotation": {"number": 64, "value": 0}, "group": "control_change"}, {"time": 3148, "annotation": {"number": 64, "value": 127}, "group": "control_change"}, {"time": 3159, "annotation": {"number": 64, "value": 0}, "group": "control_change"}, {"time": 3161, "annotation": {"number": 64, "value": 127}, "group": "control_change"}, {"time": 3183, "annotation": {"number": 64, "value": 0}, "group": "control_change"}, {"time": 3185, "annotation": {"number": 64, "value": 127}, "group": "control_change"}, {"time": 3207, "annotation": {"number": 64, "value": 0}, "group": "control_change"}, {"time": 3209, "annotation": {"number": 64, "value": 127}, "group": "control_change"}, {"time": 3230, "annotation": {"number": 64, "value": 0}, "group": "control_change"}, {"time": 3233, "annotation": {"number": 64, "value": 127}, "group": "control_change"}, {"time": 3254, "annotation": {"number": 64, "value": 0}, "group": "control_change"}, {"time": 3256, "annotation": {"number": 64, "value": 127}, "group": "control_change"}, {"time": 3279, "annotation": {"number": 64, "value": 0}, "group": "control_change"}, {"time": 3281, "annotation": {"number": 64, "value": 127}, "group": "control_change"}, {"time": 3302, "annotation": {"number": 64, "value": 0}, "group": "control_change"}, {"time": 3304, "annotation": {"number": 64, "value": 127}, "group": "control_change"}, {"time": 3326, "annotation": {"number": 64, "value": 0}, "group": "control_change"}, {"time": 3328, "annotation": {"number": 64, "value": 127}, "group": "control_change"}, {"time": 3339, "annotation": {"number": 64, "value": 0}, "group": "control_change"}, {"time": 3340, "annotation": {"number": 64, "value": 127}, "group": "control_change"}, {"time": 3350, "annotation": {"number": 64, "value": 0}, "group": "control_change"}, {"time": 3352, "annotation": {"number": 64, "value": 127}, "group": "control_change"}, {"time": 3375, "annotation": {"number": 64, "value": 0}, "group": "control_change"}, {"time": 3377, "annotation": {"number": 64, "value": 127}, "group": "control_change"}, {"time": 3399, "annotation": {"number": 64, "value": 0}, "group": "control_change"}, {"time": 3401, "annotation": {"number": 64, "value": 127}, "group": "control_change"}, {"time": 3423, "annotation": {"number": 64, "value": 0}, "group": "control_change"}, {"time": 3429, "annotation": {"number": 64, "value": 127}, "group": "control_change"}, {"time": 3446, "annotation": {"number": 64, "value": 0}, "group": "control_change"}, {"time": 3449, "annotation": {"number": 64, "value": 127}, "group": "control_change"}, {"time": 3472, "annotation": {"number": 64, "value": 0}, "group": "control_change"}, {"time": 3476, "annotation": {"number": 64, "value": 127}, "group": "control_change"}, {"time": 3496, "annotation": {"number": 64, "value": 0}, "group": "control_change"}, {"time": 3497, "annotation": {"number": 64, "value": 127}, "group": "control_change"}, {"time": 3518, "annotation": {"number": 64, "value": 0}, "group": "control_change"}, {"time": 3519, "annotation": {"number": 64, "value": 127}, "group": "control_change"}, {"time": 3542, "annotation": {"number": 64, "value": 0}, "group": "control_change"}, {"time": 3544, "annotation": {"number": 64, "value": 127}, "group": "control_change"}, {"time": 3568, "annotation": {"number": 64, "value": 0}, "group": "control_change"}, {"time": 3574, "annotation": {"number": 64, "value": 127}, "group": "control_change"}, {"time": 3591, "annotation": {"number": 64, "value": 0}, "group": "control_change"}, {"time": 3596, "annotation": {"number": 64, "value": 127}, "group": "control_change"}, {"time": 3609, "annotation": {"number": 64, "value": 0}, "group": "control_change"}, {"time": 3617, "annotation": {"number": 64, "value": 127}, "group": "control_change"}, {"time": 3638, "annotation": {"number": 64, "value": 0}, "group": "control_change"}, {"time": 3643, "annotation": {"number": 64, "value": 127}, "group": "control_change"}, {"time": 3664, "annotation": {"number": 64, "value": 0}, "group": "control_change"}, {"time": 3668, "annotation": {"number": 64, "value": 127}, "group": "control_change"}, {"time": 3687, "annotation": {"number": 64, "value": 0}, "group": "control_change"}, {"time": 3689, "annotation": {"number": 64, "value": 127}, "group": "control_change"}, {"time": 3702, "annotation": {"number": 64, "value": 0}, "group": "control_change"}, {"time": 3707, "annotation": {"number": 64, "value": 127}, "group": "control_change"}, {"time": 3709, "annotation": {"number": 64, "value": 0}, "group": "control_change"}, {"time": 3721, "annotation": {"number": 64, "value": 127}, "group": "control_change"}, {"time": 3735, "annotation": {"number": 64, "value": 0}, "group": "control_change"}, {"time": 3736, "annotation": {"number": 64, "value": 127}, "group": "control_change"}, {"time": 3839, "annotation": {"number": 64, "value": 0}, "group": "control_change"}]}]}