{"metadata": {"schema_version": "0.2", "title": "None", "source_filename": "409.mid", "source_format": "midi"}, "resolution": 12, "tempos": [{"time": 0, "qpm": 78.00017940041262}], "time_signatures": [{"time": 0, "numerator": 1, "denominator": 4}], "tracks": [{"program": 0, "is_drum": false, "name": "MELODY", "notes": [{"time": 147, "pitch": 66, "duration": 6, "velocity": 91}, {"time": 153, "pitch": 69, "duration": 6, "velocity": 89}, {"time": 159, "pitch": 66, "duration": 6, "velocity": 89}, {"time": 165, "pitch": 64, "duration": 6, "velocity": 94}, {"time": 171, "pitch": 66, "duration": 12, "velocity": 89}, {"time": 183, "pitch": 69, "duration": 6, "velocity": 89}, {"time": 189, "pitch": 71, "duration": 6, "velocity": 91}, {"time": 195, "pitch": 73, "duration": 12, "velocity": 91}, {"time": 207, "pitch": 73, "duration": 12, "velocity": 93}, {"time": 219, "pitch": 73, "duration": 6, "velocity": 94}, {"time": 225, "pitch": 76, "duration": 3, "velocity": 91}, {"time": 228, "pitch": 73, "duration": 3, "velocity": 91}, {"time": 231, "pitch": 71, "duration": 6, "velocity": 98}, {"time": 237, "pitch": 69, "duration": 6, "velocity": 89}, {"time": 243, "pitch": 71, "duration": 6, "velocity": 92}, {"time": 249, "pitch": 71, "duration": 12, "velocity": 94}, {"time": 261, "pitch": 69, "duration": 6, "velocity": 91}, {"time": 267, "pitch": 71, "duration": 12, "velocity": 96}, {"time": 279, "pitch": 73, "duration": 12, "velocity": 88}, {"time": 291, "pitch": 71, "duration": 6, "velocity": 94}, {"time": 297, "pitch": 73, "duration": 3, "velocity": 88}, {"time": 300, "pitch": 71, "duration": 3, "velocity": 91}, {"time": 303, "pitch": 69, "duration": 6, "velocity": 94}, {"time": 309, "pitch": 71, "duration": 6, "velocity": 91}, {"time": 315, "pitch": 66, "duration": 24, "velocity": 93}, {"time": 339, "pitch": 66, "duration": 6, "velocity": 91}, {"time": 345, "pitch": 69, "duration": 6, "velocity": 89}, {"time": 351, "pitch": 66, "duration": 6, "velocity": 89}, {"time": 357, "pitch": 64, "duration": 6, "velocity": 94}, {"time": 363, "pitch": 66, "duration": 12, "velocity": 89}, {"time": 375, "pitch": 69, "duration": 6, "velocity": 89}, {"time": 381, "pitch": 73, "duration": 6, "velocity": 91}, {"time": 387, "pitch": 71, "duration": 12, "velocity": 91}, {"time": 399, "pitch": 71, "duration": 12, "velocity": 93}, {"time": 411, "pitch": 71, "duration": 6, "velocity": 94}, {"time": 417, "pitch": 73, "duration": 3, "velocity": 91}, {"time": 420, "pitch": 71, "duration": 3, "velocity": 91}, {"time": 423, "pitch": 69, "duration": 6, "velocity": 98}, {"time": 429, "pitch": 71, "duration": 12, "velocity": 89}, {"time": 441, "pitch": 73, "duration": 6, "velocity": 93}, {"time": 447, "pitch": 71, "duration": 6, "velocity": 94}, {"time": 453, "pitch": 73, "duration": 6, "velocity": 92}, {"time": 459, "pitch": 76, "duration": 9, "velocity": 94}, {"time": 468, "pitch": 71, "duration": 9, "velocity": 93}, {"time": 477, "pitch": 73, "duration": 7, "velocity": 93}, {"time": 483, "pitch": 64, "duration": 9, "velocity": 94}, {"time": 492, "pitch": 66, "duration": 87, "velocity": 88}, {"time": 579, "pitch": 61, "duration": 6, "velocity": 88}, {"time": 585, "pitch": 69, "duration": 6, "velocity": 88}, {"time": 591, "pitch": 66, "duration": 6, "velocity": 85}, {"time": 597, "pitch": 64, "duration": 6, "velocity": 91}, {"time": 603, "pitch": 61, "duration": 12, "velocity": 92}, {"time": 615, "pitch": 61, "duration": 6, "velocity": 90}, {"time": 621, "pitch": 64, "duration": 6, "velocity": 91}, {"time": 627, "pitch": 66, "duration": 6, "velocity": 87}, {"time": 633, "pitch": 69, "duration": 6, "velocity": 91}, {"time": 639, "pitch": 66, "duration": 7, "velocity": 88}, {"time": 645, "pitch": 64, "duration": 6, "velocity": 89}, {"time": 651, "pitch": 66, "duration": 24, "velocity": 91}, {"time": 675, "pitch": 66, "duration": 6, "velocity": 93}, {"time": 681, "pitch": 71, "duration": 6, "velocity": 89}, {"time": 687, "pitch": 71, "duration": 6, "velocity": 89}, {"time": 693, "pitch": 73, "duration": 6, "velocity": 91}, {"time": 699, "pitch": 71, "duration": 12, "velocity": 88}, {"time": 711, "pitch": 69, "duration": 6, "velocity": 93}, {"time": 717, "pitch": 66, "duration": 6, "velocity": 91}, {"time": 723, "pitch": 64, "duration": 6, "velocity": 94}, {"time": 729, "pitch": 66, "duration": 6, "velocity": 89}, {"time": 735, "pitch": 66, "duration": 6, "velocity": 90}, {"time": 741, "pitch": 64, "duration": 6, "velocity": 88}, {"time": 747, "pitch": 61, "duration": 24, "velocity": 87}, {"time": 771, "pitch": 61, "duration": 6, "velocity": 91}, {"time": 777, "pitch": 69, "duration": 6, "velocity": 89}, {"time": 783, "pitch": 66, "duration": 6, "velocity": 87}, {"time": 789, "pitch": 64, "duration": 6, "velocity": 88}, {"time": 795, "pitch": 61, "duration": 12, "velocity": 88}, {"time": 807, "pitch": 64, "duration": 6, "velocity": 98}, {"time": 813, "pitch": 66, "duration": 6, "velocity": 93}, {"time": 819, "pitch": 71, "duration": 12, "velocity": 92}, {"time": 831, "pitch": 71, "duration": 12, "velocity": 88}, {"time": 843, "pitch": 71, "duration": 24, "velocity": 88}, {"time": 867, "pitch": 66, "duration": 6, "velocity": 85}, {"time": 873, "pitch": 71, "duration": 6, "velocity": 88}, {"time": 879, "pitch": 71, "duration": 6, "velocity": 83}, {"time": 885, "pitch": 73, "duration": 6, "velocity": 91}, {"time": 891, "pitch": 71, "duration": 12, "velocity": 88}, {"time": 903, "pitch": 71, "duration": 6, "velocity": 91}, {"time": 909, "pitch": 73, "duration": 6, "velocity": 87}, {"time": 915, "pitch": 64, "duration": 12, "velocity": 93}, {"time": 927, "pitch": 69, "duration": 12, "velocity": 87}, {"time": 939, "pitch": 66, "duration": 72, "velocity": 88}, {"time": 1011, "pitch": 66, "duration": 6, "velocity": 91}, {"time": 1017, "pitch": 69, "duration": 6, "velocity": 89}, {"time": 1023, "pitch": 66, "duration": 6, "velocity": 89}, {"time": 1029, "pitch": 64, "duration": 6, "velocity": 94}, {"time": 1035, "pitch": 66, "duration": 12, "velocity": 89}, {"time": 1047, "pitch": 69, "duration": 6, "velocity": 89}, {"time": 1053, "pitch": 71, "duration": 6, "velocity": 91}, {"time": 1059, "pitch": 73, "duration": 12, "velocity": 91}, {"time": 1071, "pitch": 73, "duration": 12, "velocity": 93}, {"time": 1083, "pitch": 73, "duration": 6, "velocity": 94}, {"time": 1089, "pitch": 76, "duration": 3, "velocity": 91}, {"time": 1092, "pitch": 73, "duration": 3, "velocity": 91}, {"time": 1095, "pitch": 71, "duration": 6, "velocity": 98}, {"time": 1101, "pitch": 69, "duration": 6, "velocity": 89}, {"time": 1107, "pitch": 71, "duration": 6, "velocity": 92}, {"time": 1113, "pitch": 71, "duration": 12, "velocity": 94}, {"time": 1125, "pitch": 69, "duration": 6, "velocity": 91}, {"time": 1131, "pitch": 71, "duration": 12, "velocity": 96}, {"time": 1143, "pitch": 73, "duration": 12, "velocity": 88}, {"time": 1155, "pitch": 71, "duration": 6, "velocity": 94}, {"time": 1161, "pitch": 73, "duration": 3, "velocity": 88}, {"time": 1164, "pitch": 71, "duration": 3, "velocity": 91}, {"time": 1167, "pitch": 69, "duration": 6, "velocity": 94}, {"time": 1173, "pitch": 71, "duration": 6, "velocity": 91}, {"time": 1179, "pitch": 66, "duration": 24, "velocity": 93}, {"time": 1203, "pitch": 66, "duration": 6, "velocity": 91}, {"time": 1209, "pitch": 69, "duration": 6, "velocity": 89}, {"time": 1215, "pitch": 66, "duration": 6, "velocity": 89}, {"time": 1221, "pitch": 64, "duration": 6, "velocity": 94}, {"time": 1227, "pitch": 66, "duration": 12, "velocity": 89}, {"time": 1239, "pitch": 69, "duration": 6, "velocity": 89}, {"time": 1245, "pitch": 73, "duration": 6, "velocity": 91}, {"time": 1251, "pitch": 71, "duration": 12, "velocity": 91}, {"time": 1263, "pitch": 71, "duration": 12, "velocity": 93}, {"time": 1275, "pitch": 71, "duration": 6, "velocity": 94}, {"time": 1281, "pitch": 73, "duration": 3, "velocity": 91}, {"time": 1284, "pitch": 71, "duration": 3, "velocity": 91}, {"time": 1287, "pitch": 69, "duration": 6, "velocity": 98}, {"time": 1293, "pitch": 71, "duration": 12, "velocity": 89}, {"time": 1305, "pitch": 73, "duration": 6, "velocity": 93}, {"time": 1311, "pitch": 73, "duration": 6, "velocity": 94}, {"time": 1317, "pitch": 73, "duration": 6, "velocity": 92}, {"time": 1323, "pitch": 71, "duration": 6, "velocity": 94}, {"time": 1329, "pitch": 73, "duration": 6, "velocity": 93}, {"time": 1335, "pitch": 76, "duration": 7, "velocity": 93}, {"time": 1341, "pitch": 71, "duration": 6, "velocity": 94}, {"time": 1347, "pitch": 73, "duration": 48, "velocity": 94}, {"time": 1395, "pitch": 66, "duration": 6, "velocity": 91}, {"time": 1401, "pitch": 69, "duration": 6, "velocity": 89}, {"time": 1407, "pitch": 66, "duration": 6, "velocity": 89}, {"time": 1413, "pitch": 64, "duration": 6, "velocity": 94}, {"time": 1419, "pitch": 66, "duration": 12, "velocity": 89}, {"time": 1431, "pitch": 69, "duration": 6, "velocity": 89}, {"time": 1437, "pitch": 71, "duration": 6, "velocity": 91}, {"time": 1443, "pitch": 73, "duration": 12, "velocity": 91}, {"time": 1455, "pitch": 73, "duration": 12, "velocity": 93}, {"time": 1467, "pitch": 73, "duration": 6, "velocity": 94}, {"time": 1473, "pitch": 76, "duration": 3, "velocity": 91}, {"time": 1476, "pitch": 73, "duration": 3, "velocity": 91}, {"time": 1479, "pitch": 71, "duration": 6, "velocity": 98}, {"time": 1485, "pitch": 69, "duration": 6, "velocity": 89}, {"time": 1491, "pitch": 71, "duration": 6, "velocity": 92}, {"time": 1497, "pitch": 71, "duration": 12, "velocity": 94}, {"time": 1509, "pitch": 69, "duration": 6, "velocity": 91}, {"time": 1515, "pitch": 71, "duration": 12, "velocity": 96}, {"time": 1527, "pitch": 73, "duration": 12, "velocity": 88}, {"time": 1539, "pitch": 71, "duration": 6, "velocity": 94}, {"time": 1545, "pitch": 73, "duration": 3, "velocity": 88}, {"time": 1548, "pitch": 71, "duration": 3, "velocity": 91}, {"time": 1551, "pitch": 69, "duration": 6, "velocity": 94}, {"time": 1557, "pitch": 71, "duration": 6, "velocity": 91}, {"time": 1563, "pitch": 66, "duration": 24, "velocity": 93}, {"time": 1587, "pitch": 66, "duration": 6, "velocity": 91}, {"time": 1593, "pitch": 69, "duration": 6, "velocity": 89}, {"time": 1599, "pitch": 66, "duration": 6, "velocity": 89}, {"time": 1605, "pitch": 64, "duration": 6, "velocity": 94}, {"time": 1611, "pitch": 66, "duration": 12, "velocity": 89}, {"time": 1623, "pitch": 69, "duration": 6, "velocity": 89}, {"time": 1629, "pitch": 73, "duration": 6, "velocity": 91}, {"time": 1635, "pitch": 71, "duration": 12, "velocity": 91}, {"time": 1647, "pitch": 71, "duration": 12, "velocity": 93}, {"time": 1659, "pitch": 71, "duration": 6, "velocity": 94}, {"time": 1665, "pitch": 73, "duration": 3, "velocity": 91}, {"time": 1668, "pitch": 71, "duration": 3, "velocity": 91}, {"time": 1671, "pitch": 69, "duration": 6, "velocity": 98}, {"time": 1677, "pitch": 71, "duration": 12, "velocity": 89}, {"time": 1689, "pitch": 73, "duration": 6, "velocity": 93}, {"time": 1695, "pitch": 71, "duration": 6, "velocity": 94}, {"time": 1701, "pitch": 73, "duration": 6, "velocity": 92}, {"time": 1707, "pitch": 76, "duration": 9, "velocity": 94}, {"time": 1716, "pitch": 71, "duration": 9, "velocity": 93}, {"time": 1725, "pitch": 73, "duration": 7, "velocity": 93}, {"time": 1731, "pitch": 64, "duration": 9, "velocity": 94}, {"time": 1740, "pitch": 66, "duration": 40, "velocity": 88}, {"time": 1959, "pitch": 69, "duration": 7, "velocity": 91}, {"time": 1966, "pitch": 68, "duration": 6, "velocity": 91}, {"time": 1971, "pitch": 66, "duration": 17, "velocity": 87}, {"time": 2007, "pitch": 73, "duration": 12, "velocity": 72}, {"time": 2019, "pitch": 71, "duration": 24, "velocity": 68}, {"time": 2056, "pitch": 71, "duration": 8, "velocity": 68}, {"time": 2064, "pitch": 69, "duration": 4, "velocity": 68}, {"time": 2068, "pitch": 68, "duration": 20, "velocity": 68}, {"time": 2103, "pitch": 73, "duration": 7, "velocity": 68}, {"time": 2110, "pitch": 71, "duration": 6, "velocity": 68}, {"time": 2121, "pitch": 66, "duration": 25, "velocity": 68}, {"time": 2163, "pitch": 61, "duration": 6, "velocity": 88}, {"time": 2169, "pitch": 69, "duration": 6, "velocity": 88}, {"time": 2175, "pitch": 66, "duration": 6, "velocity": 85}, {"time": 2181, "pitch": 64, "duration": 6, "velocity": 91}, {"time": 2187, "pitch": 61, "duration": 12, "velocity": 92}, {"time": 2199, "pitch": 61, "duration": 6, "velocity": 90}, {"time": 2205, "pitch": 64, "duration": 6, "velocity": 91}, {"time": 2211, "pitch": 66, "duration": 6, "velocity": 87}, {"time": 2217, "pitch": 69, "duration": 6, "velocity": 91}, {"time": 2223, "pitch": 66, "duration": 7, "velocity": 88}, {"time": 2229, "pitch": 64, "duration": 6, "velocity": 89}, {"time": 2235, "pitch": 66, "duration": 24, "velocity": 91}, {"time": 2259, "pitch": 66, "duration": 6, "velocity": 93}, {"time": 2265, "pitch": 71, "duration": 6, "velocity": 89}, {"time": 2271, "pitch": 71, "duration": 6, "velocity": 89}, {"time": 2277, "pitch": 73, "duration": 6, "velocity": 91}, {"time": 2283, "pitch": 71, "duration": 12, "velocity": 88}, {"time": 2295, "pitch": 69, "duration": 6, "velocity": 93}, {"time": 2301, "pitch": 66, "duration": 6, "velocity": 91}, {"time": 2307, "pitch": 64, "duration": 6, "velocity": 94}, {"time": 2313, "pitch": 66, "duration": 6, "velocity": 89}, {"time": 2319, "pitch": 66, "duration": 6, "velocity": 90}, {"time": 2325, "pitch": 64, "duration": 6, "velocity": 88}, {"time": 2331, "pitch": 61, "duration": 24, "velocity": 87}, {"time": 2355, "pitch": 61, "duration": 6, "velocity": 91}, {"time": 2361, "pitch": 69, "duration": 6, "velocity": 89}, {"time": 2367, "pitch": 66, "duration": 6, "velocity": 87}, {"time": 2373, "pitch": 64, "duration": 6, "velocity": 88}, {"time": 2379, "pitch": 61, "duration": 12, "velocity": 88}, {"time": 2391, "pitch": 64, "duration": 6, "velocity": 98}, {"time": 2397, "pitch": 66, "duration": 6, "velocity": 93}, {"time": 2403, "pitch": 71, "duration": 12, "velocity": 92}, {"time": 2415, "pitch": 71, "duration": 12, "velocity": 88}, {"time": 2427, "pitch": 71, "duration": 24, "velocity": 88}, {"time": 2451, "pitch": 66, "duration": 6, "velocity": 85}, {"time": 2457, "pitch": 71, "duration": 6, "velocity": 88}, {"time": 2463, "pitch": 71, "duration": 6, "velocity": 83}, {"time": 2469, "pitch": 73, "duration": 6, "velocity": 91}, {"time": 2475, "pitch": 71, "duration": 12, "velocity": 88}, {"time": 2487, "pitch": 71, "duration": 6, "velocity": 91}, {"time": 2493, "pitch": 73, "duration": 6, "velocity": 87}, {"time": 2499, "pitch": 64, "duration": 12, "velocity": 93}, {"time": 2511, "pitch": 69, "duration": 12, "velocity": 87}, {"time": 2523, "pitch": 66, "duration": 72, "velocity": 88}, {"time": 2595, "pitch": 66, "duration": 6, "velocity": 91}, {"time": 2601, "pitch": 69, "duration": 6, "velocity": 89}, {"time": 2607, "pitch": 66, "duration": 6, "velocity": 89}, {"time": 2613, "pitch": 64, "duration": 6, "velocity": 94}, {"time": 2619, "pitch": 66, "duration": 12, "velocity": 89}, {"time": 2631, "pitch": 69, "duration": 6, "velocity": 89}, {"time": 2637, "pitch": 71, "duration": 6, "velocity": 91}, {"time": 2643, "pitch": 73, "duration": 12, "velocity": 91}, {"time": 2655, "pitch": 73, "duration": 12, "velocity": 93}, {"time": 2667, "pitch": 73, "duration": 6, "velocity": 94}, {"time": 2673, "pitch": 76, "duration": 3, "velocity": 91}, {"time": 2676, "pitch": 73, "duration": 3, "velocity": 91}, {"time": 2679, "pitch": 71, "duration": 6, "velocity": 98}, {"time": 2685, "pitch": 69, "duration": 6, "velocity": 89}, {"time": 2691, "pitch": 71, "duration": 6, "velocity": 92}, {"time": 2697, "pitch": 71, "duration": 12, "velocity": 94}, {"time": 2709, "pitch": 69, "duration": 6, "velocity": 91}, {"time": 2715, "pitch": 71, "duration": 12, "velocity": 96}, {"time": 2727, "pitch": 73, "duration": 12, "velocity": 88}, {"time": 2739, "pitch": 71, "duration": 6, "velocity": 94}, {"time": 2745, "pitch": 73, "duration": 3, "velocity": 88}, {"time": 2748, "pitch": 71, "duration": 3, "velocity": 91}, {"time": 2751, "pitch": 69, "duration": 6, "velocity": 94}, {"time": 2757, "pitch": 71, "duration": 6, "velocity": 91}, {"time": 2763, "pitch": 66, "duration": 24, "velocity": 93}, {"time": 2787, "pitch": 66, "duration": 6, "velocity": 91}, {"time": 2793, "pitch": 69, "duration": 6, "velocity": 89}, {"time": 2799, "pitch": 66, "duration": 6, "velocity": 89}, {"time": 2805, "pitch": 64, "duration": 6, "velocity": 94}, {"time": 2811, "pitch": 66, "duration": 12, "velocity": 89}, {"time": 2823, "pitch": 69, "duration": 6, "velocity": 89}, {"time": 2829, "pitch": 73, "duration": 6, "velocity": 91}, {"time": 2835, "pitch": 71, "duration": 12, "velocity": 91}, {"time": 2847, "pitch": 71, "duration": 12, "velocity": 93}, {"time": 2859, "pitch": 71, "duration": 6, "velocity": 94}, {"time": 2865, "pitch": 73, "duration": 3, "velocity": 91}, {"time": 2868, "pitch": 71, "duration": 3, "velocity": 91}, {"time": 2871, "pitch": 69, "duration": 6, "velocity": 98}, {"time": 2877, "pitch": 71, "duration": 12, "velocity": 89}, {"time": 2889, "pitch": 73, "duration": 6, "velocity": 93}, {"time": 2895, "pitch": 73, "duration": 6, "velocity": 94}, {"time": 2901, "pitch": 73, "duration": 6, "velocity": 92}, {"time": 2907, "pitch": 71, "duration": 6, "velocity": 94}, {"time": 2913, "pitch": 73, "duration": 6, "velocity": 93}, {"time": 2919, "pitch": 76, "duration": 7, "velocity": 93}, {"time": 2925, "pitch": 71, "duration": 6, "velocity": 94}, {"time": 2931, "pitch": 73, "duration": 48, "velocity": 94}, {"time": 2979, "pitch": 66, "duration": 6, "velocity": 91}, {"time": 2985, "pitch": 69, "duration": 6, "velocity": 89}, {"time": 2991, "pitch": 66, "duration": 6, "velocity": 89}, {"time": 2997, "pitch": 64, "duration": 6, "velocity": 94}, {"time": 3003, "pitch": 66, "duration": 12, "velocity": 89}, {"time": 3015, "pitch": 69, "duration": 6, "velocity": 89}, {"time": 3021, "pitch": 71, "duration": 6, "velocity": 91}, {"time": 3027, "pitch": 73, "duration": 12, "velocity": 91}, {"time": 3039, "pitch": 73, "duration": 12, "velocity": 93}, {"time": 3051, "pitch": 73, "duration": 6, "velocity": 94}, {"time": 3057, "pitch": 76, "duration": 3, "velocity": 91}, {"time": 3060, "pitch": 73, "duration": 3, "velocity": 91}, {"time": 3063, "pitch": 71, "duration": 6, "velocity": 98}, {"time": 3069, "pitch": 69, "duration": 6, "velocity": 89}, {"time": 3075, "pitch": 71, "duration": 6, "velocity": 92}, {"time": 3081, "pitch": 71, "duration": 12, "velocity": 94}, {"time": 3093, "pitch": 69, "duration": 6, "velocity": 91}, {"time": 3099, "pitch": 71, "duration": 12, "velocity": 96}, {"time": 3111, "pitch": 73, "duration": 12, "velocity": 88}, {"time": 3123, "pitch": 71, "duration": 6, "velocity": 94}, {"time": 3129, "pitch": 73, "duration": 3, "velocity": 88}, {"time": 3132, "pitch": 71, "duration": 3, "velocity": 91}, {"time": 3135, "pitch": 69, "duration": 6, "velocity": 94}, {"time": 3141, "pitch": 71, "duration": 6, "velocity": 91}, {"time": 3147, "pitch": 66, "duration": 24, "velocity": 93}, {"time": 3171, "pitch": 66, "duration": 6, "velocity": 91}, {"time": 3177, "pitch": 69, "duration": 6, "velocity": 89}, {"time": 3183, "pitch": 66, "duration": 6, "velocity": 89}, {"time": 3189, "pitch": 64, "duration": 6, "velocity": 94}, {"time": 3195, "pitch": 66, "duration": 12, "velocity": 89}, {"time": 3207, "pitch": 69, "duration": 6, "velocity": 89}, {"time": 3213, "pitch": 73, "duration": 6, "velocity": 91}, {"time": 3219, "pitch": 71, "duration": 12, "velocity": 91}, {"time": 3231, "pitch": 71, "duration": 12, "velocity": 93}, {"time": 3243, "pitch": 71, "duration": 6, "velocity": 94}, {"time": 3249, "pitch": 73, "duration": 3, "velocity": 91}, {"time": 3252, "pitch": 71, "duration": 3, "velocity": 91}, {"time": 3255, "pitch": 69, "duration": 6, "velocity": 98}, {"time": 3261, "pitch": 71, "duration": 12, "velocity": 89}, {"time": 3273, "pitch": 73, "duration": 6, "velocity": 93}, {"time": 3279, "pitch": 71, "duration": 6, "velocity": 94}, {"time": 3285, "pitch": 73, "duration": 6, "velocity": 92}, {"time": 3291, "pitch": 76, "duration": 9, "velocity": 94}, {"time": 3300, "pitch": 71, "duration": 9, "velocity": 93}, {"time": 3309, "pitch": 73, "duration": 7, "velocity": 93}, {"time": 3315, "pitch": 64, "duration": 9, "velocity": 94}, {"time": 3324, "pitch": 66, "duration": 39, "velocity": 88}, {"time": 3363, "pitch": 66, "duration": 6, "velocity": 91}, {"time": 3369, "pitch": 69, "duration": 6, "velocity": 89}, {"time": 3375, "pitch": 66, "duration": 6, "velocity": 89}, {"time": 3381, "pitch": 64, "duration": 6, "velocity": 94}, {"time": 3387, "pitch": 66, "duration": 12, "velocity": 89}, {"time": 3399, "pitch": 69, "duration": 6, "velocity": 89}, {"time": 3405, "pitch": 71, "duration": 6, "velocity": 91}, {"time": 3411, "pitch": 73, "duration": 12, "velocity": 91}, {"time": 3423, "pitch": 73, "duration": 12, "velocity": 93}, {"time": 3435, "pitch": 73, "duration": 6, "velocity": 94}, {"time": 3441, "pitch": 76, "duration": 3, "velocity": 91}, {"time": 3444, "pitch": 73, "duration": 3, "velocity": 91}, {"time": 3447, "pitch": 71, "duration": 6, "velocity": 98}, {"time": 3453, "pitch": 69, "duration": 6, "velocity": 89}, {"time": 3459, "pitch": 71, "duration": 6, "velocity": 92}, {"time": 3465, "pitch": 71, "duration": 12, "velocity": 94}, {"time": 3477, "pitch": 69, "duration": 6, "velocity": 91}, {"time": 3483, "pitch": 71, "duration": 12, "velocity": 96}, {"time": 3495, "pitch": 73, "duration": 12, "velocity": 88}, {"time": 3507, "pitch": 71, "duration": 6, "velocity": 94}, {"time": 3513, "pitch": 73, "duration": 3, "velocity": 88}, {"time": 3516, "pitch": 71, "duration": 3, "velocity": 91}, {"time": 3519, "pitch": 69, "duration": 6, "velocity": 94}, {"time": 3525, "pitch": 71, "duration": 6, "velocity": 91}, {"time": 3531, "pitch": 66, "duration": 24, "velocity": 93}, {"time": 3555, "pitch": 66, "duration": 6, "velocity": 91}, {"time": 3561, "pitch": 69, "duration": 6, "velocity": 89}, {"time": 3567, "pitch": 66, "duration": 6, "velocity": 89}, {"time": 3573, "pitch": 64, "duration": 6, "velocity": 94}, {"time": 3579, "pitch": 66, "duration": 12, "velocity": 89}, {"time": 3591, "pitch": 69, "duration": 6, "velocity": 89}, {"time": 3597, "pitch": 73, "duration": 6, "velocity": 91}, {"time": 3603, "pitch": 71, "duration": 12, "velocity": 91}, {"time": 3615, "pitch": 71, "duration": 12, "velocity": 93}, {"time": 3627, "pitch": 71, "duration": 6, "velocity": 94}, {"time": 3633, "pitch": 73, "duration": 3, "velocity": 91}, {"time": 3636, "pitch": 71, "duration": 3, "velocity": 91}, {"time": 3639, "pitch": 69, "duration": 6, "velocity": 98}, {"time": 3645, "pitch": 71, "duration": 12, "velocity": 89}, {"time": 3657, "pitch": 73, "duration": 6, "velocity": 93}, {"time": 3663, "pitch": 71, "duration": 6, "velocity": 94}, {"time": 3669, "pitch": 73, "duration": 6, "velocity": 92}, {"time": 3675, "pitch": 71, "duration": 6, "velocity": 94}, {"time": 3681, "pitch": 73, "duration": 6, "velocity": 93}, {"time": 3687, "pitch": 76, "duration": 7, "velocity": 93}, {"time": 3693, "pitch": 71, "duration": 6, "velocity": 94}, {"time": 3699, "pitch": 73, "duration": 42, "velocity": 88}]}, {"program": 0, "is_drum": false, "name": "BRIDGE", "notes": [{"time": 48, "pitch": 73, "duration": 3, "velocity": 85}, {"time": 50, "pitch": 76, "duration": 2, "velocity": 95}, {"time": 51, "pitch": 78, "duration": 30, "velocity": 100}, {"time": 96, "pitch": 66, "duration": 3, "velocity": 82}, {"time": 98, "pitch": 69, "duration": 2, "velocity": 81}, {"time": 99, "pitch": 73, "duration": 30, "velocity": 101}, {"time": 129, "pitch": 64, "duration": 4, "velocity": 93}, {"time": 132, "pitch": 66, "duration": 2, "velocity": 91}, {"time": 135, "pitch": 69, "duration": 3, "velocity": 89}, {"time": 138, "pitch": 71, "duration": 3, "velocity": 87}, {"time": 141, "pitch": 73, "duration": 6, "velocity": 91}, {"time": 147, "pitch": 78, "duration": 15, "velocity": 81}, {"time": 153, "pitch": 69, "duration": 9, "velocity": 76}, {"time": 159, "pitch": 73, "duration": 14, "velocity": 74}, {"time": 171, "pitch": 78, "duration": 22, "velocity": 78}, {"time": 177, "pitch": 69, "duration": 8, "velocity": 76}, {"time": 183, "pitch": 73, "duration": 11, "velocity": 84}, {"time": 189, "pitch": 69, "duration": 8, "velocity": 76}, {"time": 195, "pitch": 78, "duration": 14, "velocity": 80}, {"time": 201, "pitch": 69, "duration": 22, "velocity": 74}, {"time": 207, "pitch": 73, "duration": 26, "velocity": 79}, {"time": 225, "pitch": 69, "duration": 8, "velocity": 75}, {"time": 231, "pitch": 78, "duration": 13, "velocity": 91}, {"time": 237, "pitch": 69, "duration": 6, "velocity": 81}, {"time": 243, "pitch": 74, "duration": 13, "velocity": 88}, {"time": 249, "pitch": 71, "duration": 24, "velocity": 72}, {"time": 255, "pitch": 78, "duration": 23, "velocity": 78}, {"time": 273, "pitch": 74, "duration": 11, "velocity": 86}, {"time": 279, "pitch": 71, "duration": 13, "velocity": 79}, {"time": 285, "pitch": 78, "duration": 12, "velocity": 71}, {"time": 297, "pitch": 73, "duration": 9, "velocity": 67}, {"time": 303, "pitch": 69, "duration": 13, "velocity": 75}, {"time": 309, "pitch": 73, "duration": 8, "velocity": 71}, {"time": 327, "pitch": 73, "duration": 14, "velocity": 77}, {"time": 333, "pitch": 69, "duration": 7, "velocity": 69}, {"time": 339, "pitch": 78, "duration": 18, "velocity": 75}, {"time": 345, "pitch": 73, "duration": 22, "velocity": 72}, {"time": 351, "pitch": 69, "duration": 19, "velocity": 71}, {"time": 369, "pitch": 73, "duration": 17, "velocity": 76}, {"time": 375, "pitch": 69, "duration": 13, "velocity": 79}, {"time": 381, "pitch": 78, "duration": 12, "velocity": 87}, {"time": 393, "pitch": 74, "duration": 17, "velocity": 86}, {"time": 399, "pitch": 71, "duration": 31, "velocity": 78}, {"time": 411, "pitch": 78, "duration": 32, "velocity": 78}, {"time": 435, "pitch": 76, "duration": 18, "velocity": 88}, {"time": 441, "pitch": 73, "duration": 9, "velocity": 76}, {"time": 447, "pitch": 68, "duration": 25, "velocity": 73}, {"time": 453, "pitch": 73, "duration": 20, "velocity": 78}, {"time": 459, "pitch": 76, "duration": 19, "velocity": 88}, {"time": 483, "pitch": 78, "duration": 9, "velocity": 79}, {"time": 489, "pitch": 73, "duration": 8, "velocity": 76}, {"time": 495, "pitch": 69, "duration": 15, "velocity": 78}, {"time": 507, "pitch": 78, "duration": 13, "velocity": 76}, {"time": 513, "pitch": 69, "duration": 13, "velocity": 80}, {"time": 519, "pitch": 73, "duration": 8, "velocity": 80}, {"time": 527, "pitch": 73, "duration": 2, "velocity": 84}, {"time": 529, "pitch": 76, "duration": 2, "velocity": 87}, {"time": 530, "pitch": 78, "duration": 44, "velocity": 98}, {"time": 579, "pitch": 66, "duration": 13, "velocity": 79}, {"time": 585, "pitch": 69, "duration": 7, "velocity": 83}, {"time": 591, "pitch": 73, "duration": 11, "velocity": 79}, {"time": 603, "pitch": 78, "duration": 12, "velocity": 81}, {"time": 627, "pitch": 66, "duration": 14, "velocity": 74}, {"time": 633, "pitch": 69, "duration": 6, "velocity": 72}, {"time": 639, "pitch": 73, "duration": 14, "velocity": 73}, {"time": 645, "pitch": 69, "duration": 7, "velocity": 71}, {"time": 651, "pitch": 78, "duration": 8, "velocity": 84}, {"time": 657, "pitch": 69, "duration": 14, "velocity": 77}, {"time": 663, "pitch": 73, "duration": 9, "velocity": 77}, {"time": 675, "pitch": 71, "duration": 14, "velocity": 81}, {"time": 681, "pitch": 74, "duration": 7, "velocity": 87}, {"time": 687, "pitch": 78, "duration": 11, "velocity": 79}, {"time": 693, "pitch": 71, "duration": 7, "velocity": 70}, {"time": 699, "pitch": 78, "duration": 24, "velocity": 86}, {"time": 723, "pitch": 76, "duration": 7, "velocity": 86}, {"time": 729, "pitch": 68, "duration": 9, "velocity": 75}, {"time": 735, "pitch": 76, "duration": 11, "velocity": 87}, {"time": 759, "pitch": 76, "duration": 7, "velocity": 88}, {"time": 765, "pitch": 73, "duration": 7, "velocity": 78}, {"time": 771, "pitch": 78, "duration": 10, "velocity": 72}, {"time": 783, "pitch": 78, "duration": 8, "velocity": 77}, {"time": 789, "pitch": 69, "duration": 8, "velocity": 75}, {"time": 795, "pitch": 73, "duration": 14, "velocity": 77}, {"time": 801, "pitch": 69, "duration": 13, "velocity": 74}, {"time": 807, "pitch": 78, "duration": 18, "velocity": 80}, {"time": 825, "pitch": 71, "duration": 19, "velocity": 79}, {"time": 831, "pitch": 78, "duration": 7, "velocity": 72}, {"time": 837, "pitch": 74, "duration": 7, "velocity": 85}, {"time": 843, "pitch": 78, "duration": 18, "velocity": 80}, {"time": 855, "pitch": 74, "duration": 9, "velocity": 83}, {"time": 861, "pitch": 71, "duration": 8, "velocity": 77}, {"time": 891, "pitch": 76, "duration": 7, "velocity": 83}, {"time": 897, "pitch": 71, "duration": 8, "velocity": 78}, {"time": 903, "pitch": 76, "duration": 7, "velocity": 82}, {"time": 915, "pitch": 78, "duration": 7, "velocity": 81}, {"time": 921, "pitch": 73, "duration": 8, "velocity": 74}, {"time": 927, "pitch": 78, "duration": 13, "velocity": 72}, {"time": 933, "pitch": 73, "duration": 6, "velocity": 74}, {"time": 939, "pitch": 81, "duration": 7, "velocity": 82}, {"time": 945, "pitch": 73, "duration": 7, "velocity": 78}, {"time": 951, "pitch": 78, "duration": 7, "velocity": 82}, {"time": 957, "pitch": 73, "duration": 8, "velocity": 76}, {"time": 963, "pitch": 78, "duration": 8, "velocity": 78}, {"time": 969, "pitch": 73, "duration": 8, "velocity": 76}, {"time": 975, "pitch": 78, "duration": 27, "velocity": 76}, {"time": 981, "pitch": 73, "duration": 18, "velocity": 70}, {"time": 993, "pitch": 64, "duration": 4, "velocity": 91}, {"time": 996, "pitch": 66, "duration": 4, "velocity": 89}, {"time": 999, "pitch": 69, "duration": 7, "velocity": 87}, {"time": 1005, "pitch": 71, "duration": 7, "velocity": 88}, {"time": 1011, "pitch": 69, "duration": 13, "velocity": 80}, {"time": 1011, "pitch": 78, "duration": 14, "velocity": 83}, {"time": 1017, "pitch": 69, "duration": 7, "velocity": 76}, {"time": 1023, "pitch": 73, "duration": 13, "velocity": 80}, {"time": 1035, "pitch": 78, "duration": 11, "velocity": 87}, {"time": 1041, "pitch": 69, "duration": 9, "velocity": 76}, {"time": 1047, "pitch": 73, "duration": 13, "velocity": 80}, {"time": 1053, "pitch": 69, "duration": 7, "velocity": 78}, {"time": 1059, "pitch": 78, "duration": 15, "velocity": 85}, {"time": 1065, "pitch": 69, "duration": 15, "velocity": 77}, {"time": 1071, "pitch": 73, "duration": 12, "velocity": 74}, {"time": 1083, "pitch": 78, "duration": 8, "velocity": 89}, {"time": 1089, "pitch": 73, "duration": 7, "velocity": 78}, {"time": 1095, "pitch": 71, "duration": 8, "velocity": 88}, {"time": 1107, "pitch": 74, "duration": 14, "velocity": 93}, {"time": 1113, "pitch": 71, "duration": 8, "velocity": 76}, {"time": 1119, "pitch": 83, "duration": 9, "velocity": 87}, {"time": 1125, "pitch": 69, "duration": 8, "velocity": 87}, {"time": 1131, "pitch": 78, "duration": 14, "velocity": 80}, {"time": 1137, "pitch": 71, "duration": 6, "velocity": 71}, {"time": 1144, "pitch": 73, "duration": 6, "velocity": 91}, {"time": 1155, "pitch": 76, "duration": 7, "velocity": 87}, {"time": 1161, "pitch": 73, "duration": 8, "velocity": 75}, {"time": 1167, "pitch": 76, "duration": 6, "velocity": 83}, {"time": 1179, "pitch": 78, "duration": 7, "velocity": 80}, {"time": 1185, "pitch": 73, "duration": 7, "velocity": 77}, {"time": 1191, "pitch": 78, "duration": 5, "velocity": 76}, {"time": 1203, "pitch": 81, "duration": 7, "velocity": 84}, {"time": 1209, "pitch": 73, "duration": 7, "velocity": 77}, {"time": 1215, "pitch": 78, "duration": 13, "velocity": 83}, {"time": 1221, "pitch": 73, "duration": 7, "velocity": 76}, {"time": 1227, "pitch": 81, "duration": 18, "velocity": 85}, {"time": 1239, "pitch": 78, "duration": 7, "velocity": 81}, {"time": 1245, "pitch": 73, "duration": 5, "velocity": 82}, {"time": 1251, "pitch": 78, "duration": 7, "velocity": 87}, {"time": 1257, "pitch": 71, "duration": 8, "velocity": 83}, {"time": 1263, "pitch": 74, "duration": 12, "velocity": 88}, {"time": 1275, "pitch": 78, "duration": 9, "velocity": 82}, {"time": 1281, "pitch": 71, "duration": 6, "velocity": 82}, {"time": 1287, "pitch": 71, "duration": 3, "velocity": 79}, {"time": 1287, "pitch": 74, "duration": 9, "velocity": 91}, {"time": 1299, "pitch": 76, "duration": 5, "velocity": 87}, {"time": 1305, "pitch": 68, "duration": 7, "velocity": 80}, {"time": 1305, "pitch": 76, "duration": 8, "velocity": 64}, {"time": 1311, "pitch": 73, "duration": 13, "velocity": 78}, {"time": 1317, "pitch": 68, "duration": 7, "velocity": 73}, {"time": 1323, "pitch": 76, "duration": 13, "velocity": 88}, {"time": 1329, "pitch": 68, "duration": 7, "velocity": 75}, {"time": 1335, "pitch": 73, "duration": 8, "velocity": 81}, {"time": 1341, "pitch": 68, "duration": 5, "velocity": 72}, {"time": 1347, "pitch": 68, "duration": 13, "velocity": 86}, {"time": 1347, "pitch": 76, "duration": 17, "velocity": 89}, {"time": 1359, "pitch": 73, "duration": 9, "velocity": 78}, {"time": 1365, "pitch": 68, "duration": 5, "velocity": 69}, {"time": 1371, "pitch": 73, "duration": 11, "velocity": 85}, {"time": 1383, "pitch": 68, "duration": 11, "velocity": 81}, {"time": 1383, "pitch": 73, "duration": 12, "velocity": 81}, {"time": 1395, "pitch": 78, "duration": 14, "velocity": 83}, {"time": 1401, "pitch": 69, "duration": 8, "velocity": 76}, {"time": 1407, "pitch": 73, "duration": 13, "velocity": 80}, {"time": 1419, "pitch": 78, "duration": 11, "velocity": 87}, {"time": 1425, "pitch": 69, "duration": 9, "velocity": 76}, {"time": 1431, "pitch": 73, "duration": 13, "velocity": 80}, {"time": 1437, "pitch": 69, "duration": 7, "velocity": 78}, {"time": 1443, "pitch": 78, "duration": 15, "velocity": 85}, {"time": 1449, "pitch": 69, "duration": 15, "velocity": 77}, {"time": 1455, "pitch": 73, "duration": 12, "velocity": 74}, {"time": 1467, "pitch": 78, "duration": 8, "velocity": 89}, {"time": 1473, "pitch": 73, "duration": 7, "velocity": 78}, {"time": 1479, "pitch": 69, "duration": 8, "velocity": 88}, {"time": 1491, "pitch": 74, "duration": 14, "velocity": 93}, {"time": 1497, "pitch": 71, "duration": 8, "velocity": 76}, {"time": 1503, "pitch": 83, "duration": 9, "velocity": 87}, {"time": 1509, "pitch": 71, "duration": 8, "velocity": 87}, {"time": 1515, "pitch": 78, "duration": 14, "velocity": 80}, {"time": 1521, "pitch": 71, "duration": 6, "velocity": 71}, {"time": 1527, "pitch": 74, "duration": 7, "velocity": 91}, {"time": 1539, "pitch": 76, "duration": 7, "velocity": 87}, {"time": 1545, "pitch": 73, "duration": 8, "velocity": 75}, {"time": 1551, "pitch": 76, "duration": 6, "velocity": 83}, {"time": 1563, "pitch": 78, "duration": 7, "velocity": 80}, {"time": 1569, "pitch": 73, "duration": 7, "velocity": 77}, {"time": 1575, "pitch": 78, "duration": 5, "velocity": 76}, {"time": 1587, "pitch": 81, "duration": 7, "velocity": 84}, {"time": 1593, "pitch": 73, "duration": 7, "velocity": 77}, {"time": 1599, "pitch": 78, "duration": 13, "velocity": 83}, {"time": 1605, "pitch": 73, "duration": 7, "velocity": 76}, {"time": 1611, "pitch": 81, "duration": 18, "velocity": 85}, {"time": 1623, "pitch": 78, "duration": 7, "velocity": 81}, {"time": 1629, "pitch": 73, "duration": 5, "velocity": 82}, {"time": 1635, "pitch": 78, "duration": 7, "velocity": 87}, {"time": 1641, "pitch": 71, "duration": 8, "velocity": 83}, {"time": 1647, "pitch": 74, "duration": 12, "velocity": 88}, {"time": 1659, "pitch": 78, "duration": 9, "velocity": 82}, {"time": 1665, "pitch": 71, "duration": 6, "velocity": 82}, {"time": 1671, "pitch": 71, "duration": 3, "velocity": 79}, {"time": 1671, "pitch": 74, "duration": 9, "velocity": 91}, {"time": 1683, "pitch": 76, "duration": 5, "velocity": 87}, {"time": 1689, "pitch": 68, "duration": 7, "velocity": 80}, {"time": 1689, "pitch": 76, "duration": 8, "velocity": 64}, {"time": 1695, "pitch": 73, "duration": 13, "velocity": 78}, {"time": 1701, "pitch": 68, "duration": 7, "velocity": 73}, {"time": 1707, "pitch": 76, "duration": 13, "velocity": 88}, {"time": 1713, "pitch": 68, "duration": 7, "velocity": 75}, {"time": 1719, "pitch": 73, "duration": 8, "velocity": 81}, {"time": 1725, "pitch": 68, "duration": 5, "velocity": 72}, {"time": 1731, "pitch": 78, "duration": 10, "velocity": 87}, {"time": 1743, "pitch": 78, "duration": 8, "velocity": 83}, {"time": 1749, "pitch": 69, "duration": 8, "velocity": 87}, {"time": 1755, "pitch": 73, "duration": 9, "velocity": 87}, {"time": 1761, "pitch": 69, "duration": 14, "velocity": 75}, {"time": 1767, "pitch": 71, "duration": 11, "velocity": 101}, {"time": 1767, "pitch": 78, "duration": 8, "velocity": 86}, {"time": 1779, "pitch": 73, "duration": 36, "velocity": 96}, {"time": 1815, "pitch": 71, "duration": 12, "velocity": 101}, {"time": 1827, "pitch": 73, "duration": 33, "velocity": 98}, {"time": 1863, "pitch": 66, "duration": 6, "velocity": 98}, {"time": 1869, "pitch": 69, "duration": 5, "velocity": 98}, {"time": 1875, "pitch": 71, "duration": 36, "velocity": 94}, {"time": 1911, "pitch": 69, "duration": 5, "velocity": 98}, {"time": 1917, "pitch": 71, "duration": 6, "velocity": 94}, {"time": 1923, "pitch": 73, "duration": 30, "velocity": 103}, {"time": 1953, "pitch": 71, "duration": 5, "velocity": 104}, {"time": 1959, "pitch": 73, "duration": 5, "velocity": 98}, {"time": 1965, "pitch": 76, "duration": 5, "velocity": 101}, {"time": 1971, "pitch": 78, "duration": 33, "velocity": 94}, {"time": 2007, "pitch": 76, "duration": 11, "velocity": 103}, {"time": 2019, "pitch": 74, "duration": 30, "velocity": 104}, {"time": 2049, "pitch": 78, "duration": 5, "velocity": 103}, {"time": 2055, "pitch": 80, "duration": 5, "velocity": 94}, {"time": 2061, "pitch": 81, "duration": 5, "velocity": 89}, {"time": 2067, "pitch": 80, "duration": 34, "velocity": 98}, {"time": 2103, "pitch": 76, "duration": 10, "velocity": 98}, {"time": 2115, "pitch": 78, "duration": 47, "velocity": 94}, {"time": 2163, "pitch": 66, "duration": 13, "velocity": 79}, {"time": 2169, "pitch": 69, "duration": 7, "velocity": 83}, {"time": 2175, "pitch": 73, "duration": 11, "velocity": 79}, {"time": 2187, "pitch": 78, "duration": 12, "velocity": 81}, {"time": 2211, "pitch": 66, "duration": 14, "velocity": 74}, {"time": 2217, "pitch": 69, "duration": 6, "velocity": 72}, {"time": 2223, "pitch": 73, "duration": 14, "velocity": 73}, {"time": 2229, "pitch": 69, "duration": 7, "velocity": 71}, {"time": 2235, "pitch": 78, "duration": 8, "velocity": 84}, {"time": 2241, "pitch": 69, "duration": 14, "velocity": 77}, {"time": 2247, "pitch": 73, "duration": 9, "velocity": 77}, {"time": 2259, "pitch": 71, "duration": 14, "velocity": 81}, {"time": 2265, "pitch": 74, "duration": 7, "velocity": 87}, {"time": 2271, "pitch": 78, "duration": 11, "velocity": 79}, {"time": 2277, "pitch": 71, "duration": 7, "velocity": 70}, {"time": 2283, "pitch": 78, "duration": 24, "velocity": 86}, {"time": 2307, "pitch": 76, "duration": 7, "velocity": 86}, {"time": 2313, "pitch": 68, "duration": 9, "velocity": 75}, {"time": 2319, "pitch": 76, "duration": 11, "velocity": 87}, {"time": 2343, "pitch": 76, "duration": 7, "velocity": 88}, {"time": 2349, "pitch": 73, "duration": 7, "velocity": 78}, {"time": 2355, "pitch": 78, "duration": 10, "velocity": 72}, {"time": 2367, "pitch": 78, "duration": 8, "velocity": 77}, {"time": 2373, "pitch": 69, "duration": 8, "velocity": 75}, {"time": 2379, "pitch": 73, "duration": 14, "velocity": 77}, {"time": 2385, "pitch": 69, "duration": 13, "velocity": 74}, {"time": 2391, "pitch": 78, "duration": 18, "velocity": 80}, {"time": 2409, "pitch": 71, "duration": 19, "velocity": 79}, {"time": 2415, "pitch": 78, "duration": 7, "velocity": 72}, {"time": 2421, "pitch": 74, "duration": 7, "velocity": 85}, {"time": 2427, "pitch": 78, "duration": 18, "velocity": 80}, {"time": 2439, "pitch": 74, "duration": 9, "velocity": 83}, {"time": 2445, "pitch": 71, "duration": 8, "velocity": 77}, {"time": 2475, "pitch": 76, "duration": 7, "velocity": 83}, {"time": 2481, "pitch": 71, "duration": 8, "velocity": 78}, {"time": 2487, "pitch": 76, "duration": 7, "velocity": 82}, {"time": 2499, "pitch": 78, "duration": 7, "velocity": 81}, {"time": 2505, "pitch": 73, "duration": 8, "velocity": 74}, {"time": 2511, "pitch": 78, "duration": 13, "velocity": 72}, {"time": 2517, "pitch": 73, "duration": 6, "velocity": 74}, {"time": 2523, "pitch": 81, "duration": 7, "velocity": 82}, {"time": 2529, "pitch": 73, "duration": 7, "velocity": 78}, {"time": 2535, "pitch": 78, "duration": 7, "velocity": 82}, {"time": 2541, "pitch": 73, "duration": 8, "velocity": 76}, {"time": 2547, "pitch": 78, "duration": 8, "velocity": 78}, {"time": 2553, "pitch": 73, "duration": 8, "velocity": 76}, {"time": 2559, "pitch": 78, "duration": 27, "velocity": 76}, {"time": 2565, "pitch": 73, "duration": 18, "velocity": 70}, {"time": 2577, "pitch": 64, "duration": 4, "velocity": 91}, {"time": 2580, "pitch": 66, "duration": 4, "velocity": 89}, {"time": 2583, "pitch": 69, "duration": 7, "velocity": 87}, {"time": 2589, "pitch": 71, "duration": 7, "velocity": 88}, {"time": 2595, "pitch": 69, "duration": 13, "velocity": 80}, {"time": 2595, "pitch": 78, "duration": 14, "velocity": 83}, {"time": 2601, "pitch": 69, "duration": 7, "velocity": 76}, {"time": 2607, "pitch": 73, "duration": 13, "velocity": 80}, {"time": 2619, "pitch": 78, "duration": 11, "velocity": 87}, {"time": 2625, "pitch": 69, "duration": 9, "velocity": 76}, {"time": 2631, "pitch": 73, "duration": 13, "velocity": 80}, {"time": 2637, "pitch": 69, "duration": 7, "velocity": 78}, {"time": 2643, "pitch": 78, "duration": 15, "velocity": 85}, {"time": 2649, "pitch": 69, "duration": 15, "velocity": 77}, {"time": 2655, "pitch": 73, "duration": 12, "velocity": 74}, {"time": 2667, "pitch": 78, "duration": 8, "velocity": 89}, {"time": 2673, "pitch": 73, "duration": 7, "velocity": 78}, {"time": 2680, "pitch": 71, "duration": 7, "velocity": 88}, {"time": 2691, "pitch": 74, "duration": 14, "velocity": 93}, {"time": 2697, "pitch": 71, "duration": 8, "velocity": 76}, {"time": 2703, "pitch": 83, "duration": 9, "velocity": 87}, {"time": 2710, "pitch": 69, "duration": 7, "velocity": 87}, {"time": 2715, "pitch": 78, "duration": 14, "velocity": 80}, {"time": 2721, "pitch": 71, "duration": 6, "velocity": 71}, {"time": 2727, "pitch": 73, "duration": 7, "velocity": 91}, {"time": 2739, "pitch": 76, "duration": 7, "velocity": 87}, {"time": 2745, "pitch": 73, "duration": 8, "velocity": 75}, {"time": 2751, "pitch": 76, "duration": 6, "velocity": 83}, {"time": 2763, "pitch": 78, "duration": 7, "velocity": 80}, {"time": 2769, "pitch": 73, "duration": 7, "velocity": 77}, {"time": 2775, "pitch": 78, "duration": 5, "velocity": 76}, {"time": 2787, "pitch": 81, "duration": 7, "velocity": 84}, {"time": 2793, "pitch": 73, "duration": 7, "velocity": 77}, {"time": 2799, "pitch": 78, "duration": 13, "velocity": 83}, {"time": 2805, "pitch": 73, "duration": 7, "velocity": 76}, {"time": 2811, "pitch": 81, "duration": 18, "velocity": 85}, {"time": 2823, "pitch": 78, "duration": 7, "velocity": 81}, {"time": 2829, "pitch": 73, "duration": 5, "velocity": 82}, {"time": 2835, "pitch": 78, "duration": 7, "velocity": 87}, {"time": 2841, "pitch": 71, "duration": 8, "velocity": 83}, {"time": 2847, "pitch": 74, "duration": 12, "velocity": 88}, {"time": 2859, "pitch": 78, "duration": 9, "velocity": 82}, {"time": 2865, "pitch": 71, "duration": 6, "velocity": 82}, {"time": 2871, "pitch": 71, "duration": 3, "velocity": 79}, {"time": 2871, "pitch": 74, "duration": 9, "velocity": 91}, {"time": 2883, "pitch": 76, "duration": 5, "velocity": 87}, {"time": 2889, "pitch": 68, "duration": 7, "velocity": 80}, {"time": 2889, "pitch": 76, "duration": 8, "velocity": 64}, {"time": 2895, "pitch": 73, "duration": 13, "velocity": 78}, {"time": 2901, "pitch": 68, "duration": 7, "velocity": 73}, {"time": 2907, "pitch": 76, "duration": 13, "velocity": 88}, {"time": 2913, "pitch": 68, "duration": 7, "velocity": 75}, {"time": 2919, "pitch": 73, "duration": 8, "velocity": 81}, {"time": 2925, "pitch": 68, "duration": 5, "velocity": 72}, {"time": 2931, "pitch": 68, "duration": 13, "velocity": 86}, {"time": 2931, "pitch": 76, "duration": 17, "velocity": 89}, {"time": 2943, "pitch": 73, "duration": 9, "velocity": 78}, {"time": 2949, "pitch": 68, "duration": 5, "velocity": 69}, {"time": 2955, "pitch": 73, "duration": 11, "velocity": 85}, {"time": 2967, "pitch": 68, "duration": 11, "velocity": 81}, {"time": 2967, "pitch": 73, "duration": 12, "velocity": 81}, {"time": 2979, "pitch": 78, "duration": 14, "velocity": 83}, {"time": 2985, "pitch": 69, "duration": 8, "velocity": 76}, {"time": 2991, "pitch": 73, "duration": 13, "velocity": 80}, {"time": 3003, "pitch": 78, "duration": 11, "velocity": 87}, {"time": 3009, "pitch": 69, "duration": 9, "velocity": 76}, {"time": 3015, "pitch": 73, "duration": 13, "velocity": 80}, {"time": 3021, "pitch": 69, "duration": 7, "velocity": 78}, {"time": 3027, "pitch": 78, "duration": 15, "velocity": 85}, {"time": 3033, "pitch": 69, "duration": 15, "velocity": 77}, {"time": 3039, "pitch": 73, "duration": 12, "velocity": 74}, {"time": 3051, "pitch": 78, "duration": 8, "velocity": 89}, {"time": 3057, "pitch": 73, "duration": 7, "velocity": 78}, {"time": 3063, "pitch": 69, "duration": 8, "velocity": 88}, {"time": 3075, "pitch": 74, "duration": 14, "velocity": 93}, {"time": 3081, "pitch": 71, "duration": 8, "velocity": 76}, {"time": 3087, "pitch": 83, "duration": 9, "velocity": 87}, {"time": 3093, "pitch": 71, "duration": 8, "velocity": 87}, {"time": 3099, "pitch": 78, "duration": 14, "velocity": 80}, {"time": 3105, "pitch": 71, "duration": 6, "velocity": 71}, {"time": 3111, "pitch": 74, "duration": 7, "velocity": 91}, {"time": 3123, "pitch": 76, "duration": 7, "velocity": 87}, {"time": 3129, "pitch": 73, "duration": 8, "velocity": 75}, {"time": 3135, "pitch": 76, "duration": 6, "velocity": 83}, {"time": 3147, "pitch": 78, "duration": 7, "velocity": 80}, {"time": 3153, "pitch": 73, "duration": 7, "velocity": 77}, {"time": 3159, "pitch": 78, "duration": 5, "velocity": 76}, {"time": 3171, "pitch": 81, "duration": 7, "velocity": 84}, {"time": 3177, "pitch": 73, "duration": 7, "velocity": 77}, {"time": 3183, "pitch": 78, "duration": 13, "velocity": 83}, {"time": 3189, "pitch": 73, "duration": 7, "velocity": 76}, {"time": 3195, "pitch": 81, "duration": 18, "velocity": 85}, {"time": 3207, "pitch": 78, "duration": 7, "velocity": 81}, {"time": 3213, "pitch": 73, "duration": 5, "velocity": 82}, {"time": 3219, "pitch": 78, "duration": 7, "velocity": 87}, {"time": 3225, "pitch": 71, "duration": 8, "velocity": 83}, {"time": 3231, "pitch": 74, "duration": 12, "velocity": 88}, {"time": 3243, "pitch": 78, "duration": 9, "velocity": 82}, {"time": 3249, "pitch": 71, "duration": 6, "velocity": 82}, {"time": 3255, "pitch": 71, "duration": 3, "velocity": 79}, {"time": 3255, "pitch": 74, "duration": 9, "velocity": 91}, {"time": 3267, "pitch": 76, "duration": 5, "velocity": 87}, {"time": 3273, "pitch": 68, "duration": 7, "velocity": 80}, {"time": 3273, "pitch": 76, "duration": 8, "velocity": 64}, {"time": 3279, "pitch": 73, "duration": 13, "velocity": 78}, {"time": 3285, "pitch": 68, "duration": 7, "velocity": 73}, {"time": 3291, "pitch": 76, "duration": 13, "velocity": 88}, {"time": 3297, "pitch": 68, "duration": 7, "velocity": 75}, {"time": 3303, "pitch": 73, "duration": 8, "velocity": 81}, {"time": 3309, "pitch": 68, "duration": 5, "velocity": 72}, {"time": 3315, "pitch": 78, "duration": 10, "velocity": 87}, {"time": 3327, "pitch": 78, "duration": 8, "velocity": 83}, {"time": 3333, "pitch": 69, "duration": 8, "velocity": 87}, {"time": 3339, "pitch": 73, "duration": 9, "velocity": 87}, {"time": 3345, "pitch": 69, "duration": 14, "velocity": 75}, {"time": 3351, "pitch": 71, "duration": 11, "velocity": 101}, {"time": 3351, "pitch": 78, "duration": 8, "velocity": 86}, {"time": 3363, "pitch": 73, "duration": 36, "velocity": 96}, {"time": 3399, "pitch": 71, "duration": 12, "velocity": 101}, {"time": 3411, "pitch": 73, "duration": 33, "velocity": 98}, {"time": 3447, "pitch": 66, "duration": 6, "velocity": 98}, {"time": 3453, "pitch": 69, "duration": 5, "velocity": 98}, {"time": 3459, "pitch": 71, "duration": 36, "velocity": 94}, {"time": 3495, "pitch": 69, "duration": 5, "velocity": 98}, {"time": 3501, "pitch": 71, "duration": 6, "velocity": 94}, {"time": 3507, "pitch": 73, "duration": 30, "velocity": 103}, {"time": 3537, "pitch": 71, "duration": 5, "velocity": 104}, {"time": 3543, "pitch": 73, "duration": 5, "velocity": 98}, {"time": 3549, "pitch": 76, "duration": 5, "velocity": 101}, {"time": 3555, "pitch": 78, "duration": 33, "velocity": 94}, {"time": 3591, "pitch": 76, "duration": 11, "velocity": 103}, {"time": 3603, "pitch": 74, "duration": 30, "velocity": 104}, {"time": 3633, "pitch": 78, "duration": 5, "velocity": 103}, {"time": 3639, "pitch": 80, "duration": 5, "velocity": 94}, {"time": 3645, "pitch": 81, "duration": 5, "velocity": 89}, {"time": 3651, "pitch": 80, "duration": 34, "velocity": 98}, {"time": 3687, "pitch": 76, "duration": 10, "velocity": 98}, {"time": 3699, "pitch": 78, "duration": 47, "velocity": 94}]}, {"program": 0, "is_drum": false, "name": "PIANO", "notes": [{"time": 48, "pitch": 61, "duration": 7, "velocity": 70}, {"time": 49, "pitch": 66, "duration": 8, "velocity": 78}, {"time": 50, "pitch": 42, "duration": 44, "velocity": 88}, {"time": 50, "pitch": 69, "duration": 6, "velocity": 83}, {"time": 56, "pitch": 49, "duration": 33, "velocity": 60}, {"time": 60, "pitch": 61, "duration": 7, "velocity": 73}, {"time": 66, "pitch": 69, "duration": 4, "velocity": 74}, {"time": 81, "pitch": 61, "duration": 4, "velocity": 60}, {"time": 84, "pitch": 66, "duration": 2, "velocity": 76}, {"time": 87, "pitch": 69, "duration": 2, "velocity": 83}, {"time": 90, "pitch": 49, "duration": 5, "velocity": 76}, {"time": 93, "pitch": 61, "duration": 3, "velocity": 78}, {"time": 99, "pitch": 66, "duration": 6, "velocity": 81}, {"time": 99, "pitch": 61, "duration": 4, "velocity": 76}, {"time": 99, "pitch": 69, "duration": 7, "velocity": 82}, {"time": 99, "pitch": 42, "duration": 46, "velocity": 85}, {"time": 105, "pitch": 49, "duration": 35, "velocity": 55}, {"time": 108, "pitch": 61, "duration": 5, "velocity": 74}, {"time": 114, "pitch": 66, "duration": 4, "velocity": 74}, {"time": 123, "pitch": 69, "duration": 4, "velocity": 81}, {"time": 124, "pitch": 61, "duration": 2, "velocity": 68}, {"time": 132, "pitch": 66, "duration": 3, "velocity": 73}, {"time": 133, "pitch": 61, "duration": 2, "velocity": 63}, {"time": 138, "pitch": 61, "duration": 2, "velocity": 70}, {"time": 141, "pitch": 69, "duration": 3, "velocity": 86}, {"time": 145, "pitch": 61, "duration": 10, "velocity": 73}, {"time": 146, "pitch": 66, "duration": 9, "velocity": 78}, {"time": 147, "pitch": 42, "duration": 45, "velocity": 89}, {"time": 147, "pitch": 69, "duration": 8, "velocity": 84}, {"time": 153, "pitch": 49, "duration": 10, "velocity": 61}, {"time": 159, "pitch": 69, "duration": 6, "velocity": 83}, {"time": 159, "pitch": 66, "duration": 7, "velocity": 75}, {"time": 160, "pitch": 61, "duration": 4, "velocity": 63}, {"time": 165, "pitch": 49, "duration": 24, "velocity": 51}, {"time": 168, "pitch": 61, "duration": 7, "velocity": 75}, {"time": 174, "pitch": 66, "duration": 4, "velocity": 74}, {"time": 177, "pitch": 61, "duration": 5, "velocity": 74}, {"time": 181, "pitch": 66, "duration": 3, "velocity": 73}, {"time": 183, "pitch": 69, "duration": 5, "velocity": 87}, {"time": 186, "pitch": 61, "duration": 6, "velocity": 77}, {"time": 189, "pitch": 66, "duration": 3, "velocity": 75}, {"time": 195, "pitch": 69, "duration": 9, "velocity": 83}, {"time": 195, "pitch": 42, "duration": 34, "velocity": 82}, {"time": 195, "pitch": 61, "duration": 5, "velocity": 75}, {"time": 201, "pitch": 49, "duration": 27, "velocity": 62}, {"time": 204, "pitch": 66, "duration": 6, "velocity": 80}, {"time": 210, "pitch": 61, "duration": 8, "velocity": 71}, {"time": 214, "pitch": 66, "duration": 6, "velocity": 75}, {"time": 219, "pitch": 69, "duration": 8, "velocity": 87}, {"time": 225, "pitch": 61, "duration": 8, "velocity": 72}, {"time": 229, "pitch": 66, "duration": 6, "velocity": 81}, {"time": 235, "pitch": 69, "duration": 4, "velocity": 87}, {"time": 243, "pitch": 47, "duration": 44, "velocity": 87}, {"time": 243, "pitch": 59, "duration": 6, "velocity": 83}, {"time": 243, "pitch": 62, "duration": 6, "velocity": 85}, {"time": 249, "pitch": 54, "duration": 21, "velocity": 66}, {"time": 253, "pitch": 66, "duration": 6, "velocity": 81}, {"time": 258, "pitch": 59, "duration": 8, "velocity": 77}, {"time": 262, "pitch": 62, "duration": 4, "velocity": 82}, {"time": 268, "pitch": 66, "duration": 6, "velocity": 76}, {"time": 268, "pitch": 62, "duration": 5, "velocity": 80}, {"time": 268, "pitch": 59, "duration": 4, "velocity": 78}, {"time": 273, "pitch": 54, "duration": 5, "velocity": 58}, {"time": 276, "pitch": 59, "duration": 7, "velocity": 84}, {"time": 280, "pitch": 54, "duration": 3, "velocity": 58}, {"time": 283, "pitch": 62, "duration": 6, "velocity": 84}, {"time": 285, "pitch": 59, "duration": 6, "velocity": 81}, {"time": 290, "pitch": 61, "duration": 3, "velocity": 68}, {"time": 291, "pitch": 64, "duration": 10, "velocity": 83}, {"time": 291, "pitch": 37, "duration": 2, "velocity": 81}, {"time": 291, "pitch": 68, "duration": 11, "velocity": 77}, {"time": 297, "pitch": 49, "duration": 8, "velocity": 91}, {"time": 300, "pitch": 56, "duration": 8, "velocity": 62}, {"time": 306, "pitch": 61, "duration": 4, "velocity": 82}, {"time": 309, "pitch": 68, "duration": 9, "velocity": 78}, {"time": 315, "pitch": 42, "duration": 19, "velocity": 76}, {"time": 321, "pitch": 49, "duration": 10, "velocity": 74}, {"time": 324, "pitch": 54, "duration": 6, "velocity": 83}, {"time": 330, "pitch": 61, "duration": 3, "velocity": 82}, {"time": 333, "pitch": 49, "duration": 3, "velocity": 76}, {"time": 337, "pitch": 61, "duration": 5, "velocity": 72}, {"time": 338, "pitch": 66, "duration": 9, "velocity": 78}, {"time": 339, "pitch": 42, "duration": 35, "velocity": 87}, {"time": 339, "pitch": 69, "duration": 8, "velocity": 86}, {"time": 345, "pitch": 49, "duration": 22, "velocity": 66}, {"time": 348, "pitch": 61, "duration": 7, "velocity": 75}, {"time": 354, "pitch": 66, "duration": 4, "velocity": 82}, {"time": 357, "pitch": 61, "duration": 5, "velocity": 76}, {"time": 363, "pitch": 69, "duration": 8, "velocity": 87}, {"time": 363, "pitch": 61, "duration": 4, "velocity": 82}, {"time": 369, "pitch": 49, "duration": 5, "velocity": 70}, {"time": 372, "pitch": 66, "duration": 6, "velocity": 80}, {"time": 372, "pitch": 61, "duration": 4, "velocity": 82}, {"time": 373, "pitch": 69, "duration": 9, "velocity": 82}, {"time": 378, "pitch": 61, "duration": 4, "velocity": 77}, {"time": 387, "pitch": 47, "duration": 23, "velocity": 86}, {"time": 387, "pitch": 62, "duration": 7, "velocity": 83}, {"time": 387, "pitch": 59, "duration": 7, "velocity": 87}, {"time": 393, "pitch": 54, "duration": 7, "velocity": 74}, {"time": 396, "pitch": 66, "duration": 6, "velocity": 81}, {"time": 402, "pitch": 54, "duration": 8, "velocity": 75}, {"time": 405, "pitch": 59, "duration": 9, "velocity": 81}, {"time": 409, "pitch": 62, "duration": 5, "velocity": 81}, {"time": 411, "pitch": 47, "duration": 20, "velocity": 87}, {"time": 417, "pitch": 54, "duration": 6, "velocity": 73}, {"time": 420, "pitch": 59, "duration": 8, "velocity": 85}, {"time": 425, "pitch": 54, "duration": 5, "velocity": 79}, {"time": 428, "pitch": 62, "duration": 7, "velocity": 82}, {"time": 431, "pitch": 59, "duration": 4, "velocity": 82}, {"time": 435, "pitch": 49, "duration": 21, "velocity": 83}, {"time": 441, "pitch": 56, "duration": 16, "velocity": 75}, {"time": 444, "pitch": 61, "duration": 6, "velocity": 77}, {"time": 449, "pitch": 64, "duration": 4, "velocity": 81}, {"time": 452, "pitch": 61, "duration": 5, "velocity": 79}, {"time": 458, "pitch": 68, "duration": 11, "velocity": 85}, {"time": 458, "pitch": 61, "duration": 7, "velocity": 81}, {"time": 458, "pitch": 49, "duration": 14, "velocity": 85}, {"time": 458, "pitch": 64, "duration": 8, "velocity": 85}, {"time": 465, "pitch": 56, "duration": 7, "velocity": 73}, {"time": 468, "pitch": 61, "duration": 7, "velocity": 83}, {"time": 474, "pitch": 64, "duration": 3, "velocity": 83}, {"time": 476, "pitch": 61, "duration": 3, "velocity": 79}, {"time": 483, "pitch": 42, "duration": 22, "velocity": 82}, {"time": 483, "pitch": 69, "duration": 9, "velocity": 87}, {"time": 483, "pitch": 61, "duration": 6, "velocity": 78}, {"time": 483, "pitch": 66, "duration": 10, "velocity": 77}, {"time": 489, "pitch": 49, "duration": 16, "velocity": 67}, {"time": 492, "pitch": 61, "duration": 7, "velocity": 85}, {"time": 498, "pitch": 66, "duration": 5, "velocity": 77}, {"time": 501, "pitch": 61, "duration": 4, "velocity": 72}, {"time": 507, "pitch": 42, "duration": 21, "velocity": 75}, {"time": 507, "pitch": 69, "duration": 10, "velocity": 82}, {"time": 507, "pitch": 66, "duration": 9, "velocity": 77}, {"time": 507, "pitch": 61, "duration": 7, "velocity": 75}, {"time": 513, "pitch": 49, "duration": 14, "velocity": 67}, {"time": 516, "pitch": 61, "duration": 4, "velocity": 75}, {"time": 519, "pitch": 66, "duration": 5, "velocity": 81}, {"time": 529, "pitch": 61, "duration": 8, "velocity": 75}, {"time": 530, "pitch": 66, "duration": 9, "velocity": 80}, {"time": 531, "pitch": 42, "duration": 49, "velocity": 88}, {"time": 531, "pitch": 69, "duration": 8, "velocity": 88}, {"time": 537, "pitch": 49, "duration": 43, "velocity": 67}, {"time": 540, "pitch": 61, "duration": 7, "velocity": 75}, {"time": 546, "pitch": 66, "duration": 4, "velocity": 77}, {"time": 549, "pitch": 61, "duration": 4, "velocity": 75}, {"time": 555, "pitch": 61, "duration": 3, "velocity": 80}, {"time": 555, "pitch": 69, "duration": 7, "velocity": 83}, {"time": 561, "pitch": 61, "duration": 1, "velocity": 66}, {"time": 564, "pitch": 66, "duration": 6, "velocity": 78}, {"time": 564, "pitch": 61, "duration": 3, "velocity": 77}, {"time": 570, "pitch": 61, "duration": 4, "velocity": 72}, {"time": 573, "pitch": 66, "duration": 6, "velocity": 81}, {"time": 579, "pitch": 42, "duration": 1, "velocity": 75}, {"time": 579, "pitch": 54, "duration": 13, "velocity": 75}, {"time": 579, "pitch": 61, "duration": 9, "velocity": 81}, {"time": 585, "pitch": 49, "duration": 8, "velocity": 61}, {"time": 591, "pitch": 57, "duration": 13, "velocity": 83}, {"time": 597, "pitch": 49, "duration": 8, "velocity": 67}, {"time": 603, "pitch": 61, "duration": 5, "velocity": 83}, {"time": 609, "pitch": 49, "duration": 14, "velocity": 40}, {"time": 615, "pitch": 54, "duration": 8, "velocity": 82}, {"time": 615, "pitch": 61, "duration": 5, "velocity": 83}, {"time": 627, "pitch": 42, "duration": 42, "velocity": 76}, {"time": 627, "pitch": 54, "duration": 11, "velocity": 67}, {"time": 627, "pitch": 66, "duration": 6, "velocity": 81}, {"time": 633, "pitch": 49, "duration": 20, "velocity": 63}, {"time": 639, "pitch": 61, "duration": 7, "velocity": 82}, {"time": 645, "pitch": 57, "duration": 4, "velocity": 77}, {"time": 651, "pitch": 61, "duration": 9, "velocity": 77}, {"time": 657, "pitch": 49, "duration": 10, "velocity": 47}, {"time": 663, "pitch": 54, "duration": 6, "velocity": 69}, {"time": 663, "pitch": 57, "duration": 5, "velocity": 74}, {"time": 663, "pitch": 61, "duration": 5, "velocity": 79}, {"time": 675, "pitch": 47, "duration": 38, "velocity": 87}, {"time": 681, "pitch": 54, "duration": 8, "velocity": 73}, {"time": 687, "pitch": 59, "duration": 13, "velocity": 80}, {"time": 687, "pitch": 62, "duration": 12, "velocity": 84}, {"time": 693, "pitch": 54, "duration": 10, "velocity": 67}, {"time": 699, "pitch": 66, "duration": 15, "velocity": 79}, {"time": 705, "pitch": 54, "duration": 8, "velocity": 61}, {"time": 711, "pitch": 62, "duration": 5, "velocity": 82}, {"time": 723, "pitch": 52, "duration": 13, "velocity": 87}, {"time": 723, "pitch": 64, "duration": 8, "velocity": 81}, {"time": 723, "pitch": 68, "duration": 10, "velocity": 76}, {"time": 729, "pitch": 59, "duration": 7, "velocity": 77}, {"time": 735, "pitch": 64, "duration": 3, "velocity": 89}, {"time": 747, "pitch": 49, "duration": 14, "velocity": 78}, {"time": 747, "pitch": 61, "duration": 13, "velocity": 77}, {"time": 747, "pitch": 68, "duration": 12, "velocity": 74}, {"time": 753, "pitch": 56, "duration": 7, "velocity": 81}, {"time": 759, "pitch": 64, "duration": 7, "velocity": 88}, {"time": 765, "pitch": 61, "duration": 2, "velocity": 85}, {"time": 771, "pitch": 42, "duration": 42, "velocity": 87}, {"time": 777, "pitch": 49, "duration": 20, "velocity": 79}, {"time": 783, "pitch": 57, "duration": 7, "velocity": 86}, {"time": 789, "pitch": 54, "duration": 4, "velocity": 71}, {"time": 795, "pitch": 61, "duration": 6, "velocity": 79}, {"time": 801, "pitch": 49, "duration": 12, "velocity": 56}, {"time": 807, "pitch": 66, "duration": 5, "velocity": 84}, {"time": 819, "pitch": 47, "duration": 39, "velocity": 85}, {"time": 825, "pitch": 59, "duration": 1, "velocity": 81}, {"time": 831, "pitch": 54, "duration": 15, "velocity": 80}, {"time": 837, "pitch": 62, "duration": 7, "velocity": 81}, {"time": 843, "pitch": 66, "duration": 12, "velocity": 80}, {"time": 849, "pitch": 54, "duration": 8, "velocity": 68}, {"time": 855, "pitch": 59, "duration": 3, "velocity": 80}, {"time": 855, "pitch": 62, "duration": 4, "velocity": 83}, {"time": 867, "pitch": 52, "duration": 38, "velocity": 89}, {"time": 867, "pitch": 64, "duration": 8, "velocity": 83}, {"time": 867, "pitch": 68, "duration": 9, "velocity": 80}, {"time": 873, "pitch": 59, "duration": 31, "velocity": 78}, {"time": 879, "pitch": 68, "duration": 10, "velocity": 76}, {"time": 885, "pitch": 56, "duration": 17, "velocity": 69}, {"time": 891, "pitch": 64, "duration": 10, "velocity": 79}, {"time": 891, "pitch": 71, "duration": 10, "velocity": 83}, {"time": 903, "pitch": 68, "duration": 6, "velocity": 82}, {"time": 915, "pitch": 42, "duration": 49, "velocity": 81}, {"time": 921, "pitch": 49, "duration": 22, "velocity": 73}, {"time": 927, "pitch": 57, "duration": 8, "velocity": 86}, {"time": 933, "pitch": 61, "duration": 7, "velocity": 73}, {"time": 939, "pitch": 66, "duration": 7, "velocity": 87}, {"time": 945, "pitch": 49, "duration": 8, "velocity": 64}, {"time": 951, "pitch": 54, "duration": 13, "velocity": 80}, {"time": 951, "pitch": 61, "duration": 13, "velocity": 79}, {"time": 957, "pitch": 49, "duration": 7, "velocity": 76}, {"time": 961, "pitch": 54, "duration": 3, "velocity": 75}, {"time": 962, "pitch": 57, "duration": 2, "velocity": 84}, {"time": 963, "pitch": 42, "duration": 1, "velocity": 87}, {"time": 963, "pitch": 61, "duration": 1, "velocity": 80}, {"time": 964, "pitch": 66, "duration": 5, "velocity": 82}, {"time": 970, "pitch": 54, "duration": 36, "velocity": 88}, {"time": 976, "pitch": 61, "duration": 14, "velocity": 78}, {"time": 981, "pitch": 66, "duration": 4, "velocity": 77}, {"time": 987, "pitch": 66, "duration": 10, "velocity": 80}, {"time": 987, "pitch": 73, "duration": 11, "velocity": 73}, {"time": 993, "pitch": 61, "duration": 8, "velocity": 61}, {"time": 999, "pitch": 66, "duration": 11, "velocity": 83}, {"time": 999, "pitch": 69, "duration": 11, "velocity": 89}, {"time": 1005, "pitch": 61, "duration": 4, "velocity": 75}, {"time": 1011, "pitch": 42, "duration": 45, "velocity": 88}, {"time": 1017, "pitch": 49, "duration": 10, "velocity": 73}, {"time": 1023, "pitch": 57, "duration": 13, "velocity": 83}, {"time": 1029, "pitch": 49, "duration": 9, "velocity": 69}, {"time": 1035, "pitch": 61, "duration": 3, "velocity": 87}, {"time": 1041, "pitch": 49, "duration": 16, "velocity": 64}, {"time": 1047, "pitch": 54, "duration": 5, "velocity": 92}, {"time": 1047, "pitch": 66, "duration": 5, "velocity": 81}, {"time": 1059, "pitch": 42, "duration": 37, "velocity": 82}, {"time": 1065, "pitch": 49, "duration": 21, "velocity": 76}, {"time": 1071, "pitch": 57, "duration": 7, "velocity": 87}, {"time": 1077, "pitch": 54, "duration": 7, "velocity": 88}, {"time": 1083, "pitch": 66, "duration": 7, "velocity": 84}, {"time": 1089, "pitch": 49, "duration": 7, "velocity": 71}, {"time": 1095, "pitch": 54, "duration": 3, "velocity": 87}, {"time": 1095, "pitch": 57, "duration": 6, "velocity": 88}, {"time": 1101, "pitch": 54, "duration": 2, "velocity": 88}, {"time": 1107, "pitch": 47, "duration": 39, "velocity": 87}, {"time": 1107, "pitch": 59, "duration": 14, "velocity": 87}, {"time": 1113, "pitch": 54, "duration": 9, "velocity": 74}, {"time": 1119, "pitch": 62, "duration": 13, "velocity": 84}, {"time": 1125, "pitch": 54, "duration": 8, "velocity": 70}, {"time": 1131, "pitch": 66, "duration": 6, "velocity": 88}, {"time": 1137, "pitch": 54, "duration": 7, "velocity": 63}, {"time": 1143, "pitch": 59, "duration": 3, "velocity": 86}, {"time": 1143, "pitch": 62, "duration": 4, "velocity": 88}, {"time": 1143, "pitch": 66, "duration": 6, "velocity": 87}, {"time": 1149, "pitch": 59, "duration": 4, "velocity": 84}, {"time": 1155, "pitch": 49, "duration": 13, "velocity": 89}, {"time": 1155, "pitch": 61, "duration": 4, "velocity": 78}, {"time": 1155, "pitch": 64, "duration": 5, "velocity": 87}, {"time": 1161, "pitch": 56, "duration": 7, "velocity": 72}, {"time": 1167, "pitch": 61, "duration": 7, "velocity": 85}, {"time": 1173, "pitch": 49, "duration": 3, "velocity": 75}, {"time": 1179, "pitch": 42, "duration": 17, "velocity": 86}, {"time": 1185, "pitch": 49, "duration": 12, "velocity": 81}, {"time": 1191, "pitch": 54, "duration": 8, "velocity": 83}, {"time": 1191, "pitch": 57, "duration": 7, "velocity": 82}, {"time": 1191, "pitch": 61, "duration": 9, "velocity": 82}, {"time": 1203, "pitch": 42, "duration": 29, "velocity": 84}, {"time": 1203, "pitch": 54, "duration": 11, "velocity": 82}, {"time": 1203, "pitch": 66, "duration": 7, "velocity": 80}, {"time": 1209, "pitch": 49, "duration": 9, "velocity": 75}, {"time": 1215, "pitch": 57, "duration": 8, "velocity": 81}, {"time": 1221, "pitch": 54, "duration": 15, "velocity": 90}, {"time": 1227, "pitch": 61, "duration": 9, "velocity": 88}, {"time": 1233, "pitch": 57, "duration": 3, "velocity": 81}, {"time": 1239, "pitch": 54, "duration": 4, "velocity": 87}, {"time": 1239, "pitch": 57, "duration": 3, "velocity": 88}, {"time": 1239, "pitch": 61, "duration": 4, "velocity": 81}, {"time": 1239, "pitch": 66, "duration": 7, "velocity": 84}, {"time": 1251, "pitch": 47, "duration": 40, "velocity": 87}, {"time": 1251, "pitch": 59, "duration": 27, "velocity": 80}, {"time": 1251, "pitch": 62, "duration": 13, "velocity": 83}, {"time": 1257, "pitch": 54, "duration": 9, "velocity": 73}, {"time": 1263, "pitch": 66, "duration": 13, "velocity": 83}, {"time": 1269, "pitch": 54, "duration": 10, "velocity": 70}, {"time": 1275, "pitch": 62, "duration": 4, "velocity": 44}, {"time": 1275, "pitch": 71, "duration": 9, "velocity": 88}, {"time": 1281, "pitch": 59, "duration": 5, "velocity": 84}, {"time": 1287, "pitch": 59, "duration": 1, "velocity": 78}, {"time": 1287, "pitch": 62, "duration": 6, "velocity": 90}, {"time": 1287, "pitch": 66, "duration": 7, "velocity": 80}, {"time": 1293, "pitch": 59, "duration": 2, "velocity": 88}, {"time": 1299, "pitch": 37, "duration": 2, "velocity": 83}, {"time": 1299, "pitch": 61, "duration": 16, "velocity": 85}, {"time": 1299, "pitch": 64, "duration": 20, "velocity": 88}, {"time": 1305, "pitch": 49, "duration": 38, "velocity": 84}, {"time": 1311, "pitch": 56, "duration": 15, "velocity": 86}, {"time": 1317, "pitch": 61, "duration": 8, "velocity": 88}, {"time": 1323, "pitch": 64, "duration": 7, "velocity": 88}, {"time": 1323, "pitch": 68, "duration": 7, "velocity": 87}, {"time": 1326, "pitch": 61, "duration": 10, "velocity": 47}, {"time": 1329, "pitch": 56, "duration": 13, "velocity": 70}, {"time": 1335, "pitch": 64, "duration": 3, "velocity": 89}, {"time": 1335, "pitch": 68, "duration": 8, "velocity": 90}, {"time": 1341, "pitch": 61, "duration": 5, "velocity": 80}, {"time": 1347, "pitch": 49, "duration": 15, "velocity": 90}, {"time": 1347, "pitch": 61, "duration": 8, "velocity": 88}, {"time": 1353, "pitch": 56, "duration": 10, "velocity": 75}, {"time": 1359, "pitch": 61, "duration": 4, "velocity": 89}, {"time": 1359, "pitch": 68, "duration": 10, "velocity": 86}, {"time": 1365, "pitch": 61, "duration": 5, "velocity": 77}, {"time": 1371, "pitch": 61, "duration": 7, "velocity": 89}, {"time": 1371, "pitch": 68, "duration": 7, "velocity": 83}, {"time": 1377, "pitch": 49, "duration": 8, "velocity": 74}, {"time": 1377, "pitch": 56, "duration": 8, "velocity": 75}, {"time": 1383, "pitch": 61, "duration": 12, "velocity": 96}, {"time": 1383, "pitch": 73, "duration": 13, "velocity": 87}, {"time": 1389, "pitch": 49, "duration": 6, "velocity": 85}, {"time": 1389, "pitch": 56, "duration": 6, "velocity": 87}, {"time": 1395, "pitch": 42, "duration": 45, "velocity": 88}, {"time": 1401, "pitch": 49, "duration": 10, "velocity": 73}, {"time": 1407, "pitch": 57, "duration": 13, "velocity": 83}, {"time": 1413, "pitch": 49, "duration": 9, "velocity": 69}, {"time": 1419, "pitch": 61, "duration": 3, "velocity": 87}, {"time": 1425, "pitch": 49, "duration": 16, "velocity": 64}, {"time": 1431, "pitch": 54, "duration": 5, "velocity": 92}, {"time": 1431, "pitch": 66, "duration": 5, "velocity": 81}, {"time": 1443, "pitch": 42, "duration": 37, "velocity": 82}, {"time": 1449, "pitch": 49, "duration": 21, "velocity": 76}, {"time": 1455, "pitch": 57, "duration": 7, "velocity": 87}, {"time": 1461, "pitch": 54, "duration": 7, "velocity": 88}, {"time": 1467, "pitch": 66, "duration": 7, "velocity": 84}, {"time": 1473, "pitch": 49, "duration": 7, "velocity": 71}, {"time": 1479, "pitch": 54, "duration": 3, "velocity": 87}, {"time": 1479, "pitch": 57, "duration": 6, "velocity": 88}, {"time": 1485, "pitch": 54, "duration": 2, "velocity": 88}, {"time": 1491, "pitch": 47, "duration": 39, "velocity": 87}, {"time": 1491, "pitch": 59, "duration": 14, "velocity": 87}, {"time": 1497, "pitch": 54, "duration": 9, "velocity": 74}, {"time": 1503, "pitch": 62, "duration": 13, "velocity": 84}, {"time": 1509, "pitch": 54, "duration": 8, "velocity": 70}, {"time": 1515, "pitch": 66, "duration": 6, "velocity": 88}, {"time": 1521, "pitch": 54, "duration": 7, "velocity": 63}, {"time": 1527, "pitch": 59, "duration": 3, "velocity": 86}, {"time": 1527, "pitch": 62, "duration": 4, "velocity": 88}, {"time": 1527, "pitch": 66, "duration": 6, "velocity": 87}, {"time": 1533, "pitch": 59, "duration": 4, "velocity": 84}, {"time": 1539, "pitch": 49, "duration": 13, "velocity": 89}, {"time": 1539, "pitch": 61, "duration": 4, "velocity": 78}, {"time": 1539, "pitch": 64, "duration": 5, "velocity": 87}, {"time": 1545, "pitch": 56, "duration": 7, "velocity": 72}, {"time": 1551, "pitch": 61, "duration": 7, "velocity": 85}, {"time": 1551, "pitch": 68, "duration": 7, "velocity": 80}, {"time": 1557, "pitch": 49, "duration": 3, "velocity": 75}, {"time": 1563, "pitch": 42, "duration": 17, "velocity": 86}, {"time": 1569, "pitch": 49, "duration": 12, "velocity": 81}, {"time": 1575, "pitch": 54, "duration": 8, "velocity": 83}, {"time": 1575, "pitch": 57, "duration": 7, "velocity": 82}, {"time": 1575, "pitch": 61, "duration": 9, "velocity": 82}, {"time": 1587, "pitch": 42, "duration": 29, "velocity": 84}, {"time": 1587, "pitch": 54, "duration": 11, "velocity": 82}, {"time": 1587, "pitch": 66, "duration": 7, "velocity": 80}, {"time": 1593, "pitch": 49, "duration": 9, "velocity": 75}, {"time": 1599, "pitch": 57, "duration": 8, "velocity": 81}, {"time": 1605, "pitch": 54, "duration": 15, "velocity": 90}, {"time": 1611, "pitch": 61, "duration": 9, "velocity": 88}, {"time": 1617, "pitch": 57, "duration": 3, "velocity": 81}, {"time": 1623, "pitch": 54, "duration": 4, "velocity": 87}, {"time": 1623, "pitch": 57, "duration": 3, "velocity": 88}, {"time": 1623, "pitch": 61, "duration": 4, "velocity": 81}, {"time": 1623, "pitch": 66, "duration": 7, "velocity": 84}, {"time": 1635, "pitch": 47, "duration": 40, "velocity": 87}, {"time": 1635, "pitch": 59, "duration": 27, "velocity": 80}, {"time": 1635, "pitch": 62, "duration": 13, "velocity": 83}, {"time": 1641, "pitch": 54, "duration": 9, "velocity": 73}, {"time": 1647, "pitch": 66, "duration": 13, "velocity": 83}, {"time": 1653, "pitch": 54, "duration": 10, "velocity": 70}, {"time": 1659, "pitch": 62, "duration": 4, "velocity": 44}, {"time": 1659, "pitch": 71, "duration": 9, "velocity": 88}, {"time": 1665, "pitch": 59, "duration": 5, "velocity": 84}, {"time": 1671, "pitch": 59, "duration": 1, "velocity": 78}, {"time": 1671, "pitch": 62, "duration": 6, "velocity": 90}, {"time": 1671, "pitch": 66, "duration": 7, "velocity": 80}, {"time": 1677, "pitch": 59, "duration": 2, "velocity": 88}, {"time": 1683, "pitch": 37, "duration": 2, "velocity": 83}, {"time": 1683, "pitch": 61, "duration": 16, "velocity": 85}, {"time": 1683, "pitch": 64, "duration": 20, "velocity": 88}, {"time": 1689, "pitch": 49, "duration": 38, "velocity": 84}, {"time": 1695, "pitch": 56, "duration": 15, "velocity": 86}, {"time": 1701, "pitch": 61, "duration": 8, "velocity": 88}, {"time": 1707, "pitch": 64, "duration": 7, "velocity": 88}, {"time": 1707, "pitch": 68, "duration": 7, "velocity": 87}, {"time": 1710, "pitch": 61, "duration": 10, "velocity": 47}, {"time": 1713, "pitch": 56, "duration": 13, "velocity": 70}, {"time": 1719, "pitch": 64, "duration": 3, "velocity": 89}, {"time": 1719, "pitch": 68, "duration": 8, "velocity": 90}, {"time": 1725, "pitch": 61, "duration": 5, "velocity": 80}, {"time": 1731, "pitch": 42, "duration": 48, "velocity": 88}, {"time": 1731, "pitch": 61, "duration": 11, "velocity": 80}, {"time": 1731, "pitch": 66, "duration": 11, "velocity": 82}, {"time": 1737, "pitch": 49, "duration": 20, "velocity": 80}, {"time": 1743, "pitch": 61, "duration": 3, "velocity": 79}, {"time": 1743, "pitch": 69, "duration": 7, "velocity": 87}, {"time": 1749, "pitch": 61, "duration": 3, "velocity": 71}, {"time": 1749, "pitch": 66, "duration": 3, "velocity": 75}, {"time": 1755, "pitch": 73, "duration": 6, "velocity": 89}, {"time": 1761, "pitch": 61, "duration": 4, "velocity": 78}, {"time": 1767, "pitch": 61, "duration": 12, "velocity": 79}, {"time": 1767, "pitch": 66, "duration": 12, "velocity": 84}, {"time": 1767, "pitch": 69, "duration": 12, "velocity": 77}, {"time": 1773, "pitch": 49, "duration": 6, "velocity": 76}, {"time": 1779, "pitch": 42, "duration": 23, "velocity": 85}, {"time": 1782, "pitch": 49, "duration": 8, "velocity": 75}, {"time": 1785, "pitch": 54, "duration": 5, "velocity": 82}, {"time": 1788, "pitch": 61, "duration": 9, "velocity": 87}, {"time": 1794, "pitch": 57, "duration": 4, "velocity": 77}, {"time": 1797, "pitch": 54, "duration": 5, "velocity": 80}, {"time": 1800, "pitch": 61, "duration": 6, "velocity": 85}, {"time": 1803, "pitch": 42, "duration": 19, "velocity": 81}, {"time": 1806, "pitch": 49, "duration": 7, "velocity": 69}, {"time": 1809, "pitch": 54, "duration": 5, "velocity": 83}, {"time": 1812, "pitch": 66, "duration": 8, "velocity": 91}, {"time": 1815, "pitch": 49, "duration": 5, "velocity": 69}, {"time": 1818, "pitch": 61, "duration": 5, "velocity": 83}, {"time": 1821, "pitch": 54, "duration": 6, "velocity": 89}, {"time": 1824, "pitch": 57, "duration": 5, "velocity": 75}, {"time": 1827, "pitch": 42, "duration": 39, "velocity": 88}, {"time": 1830, "pitch": 49, "duration": 20, "velocity": 75}, {"time": 1833, "pitch": 54, "duration": 7, "velocity": 76}, {"time": 1836, "pitch": 57, "duration": 6, "velocity": 86}, {"time": 1842, "pitch": 61, "duration": 8, "velocity": 79}, {"time": 1845, "pitch": 57, "duration": 5, "velocity": 79}, {"time": 1848, "pitch": 54, "duration": 4, "velocity": 77}, {"time": 1851, "pitch": 61, "duration": 1, "velocity": 61}, {"time": 1851, "pitch": 66, "duration": 17, "velocity": 87}, {"time": 1857, "pitch": 49, "duration": 5, "velocity": 71}, {"time": 1860, "pitch": 61, "duration": 8, "velocity": 84}, {"time": 1863, "pitch": 49, "duration": 3, "velocity": 73}, {"time": 1866, "pitch": 57, "duration": 4, "velocity": 83}, {"time": 1869, "pitch": 54, "duration": 4, "velocity": 87}, {"time": 1872, "pitch": 57, "duration": 3, "velocity": 84}, {"time": 1875, "pitch": 47, "duration": 23, "velocity": 88}, {"time": 1881, "pitch": 54, "duration": 8, "velocity": 79}, {"time": 1884, "pitch": 62, "duration": 10, "velocity": 90}, {"time": 1890, "pitch": 54, "duration": 8, "velocity": 75}, {"time": 1893, "pitch": 59, "duration": 7, "velocity": 83}, {"time": 1896, "pitch": 62, "duration": 7, "velocity": 81}, {"time": 1899, "pitch": 47, "duration": 20, "velocity": 89}, {"time": 1902, "pitch": 54, "duration": 7, "velocity": 75}, {"time": 1905, "pitch": 59, "duration": 5, "velocity": 85}, {"time": 1908, "pitch": 66, "duration": 8, "velocity": 91}, {"time": 1911, "pitch": 54, "duration": 5, "velocity": 79}, {"time": 1914, "pitch": 62, "duration": 4, "velocity": 88}, {"time": 1917, "pitch": 59, "duration": 5, "velocity": 83}, {"time": 1920, "pitch": 62, "duration": 3, "velocity": 83}, {"time": 1923, "pitch": 49, "duration": 20, "velocity": 89}, {"time": 1926, "pitch": 56, "duration": 8, "velocity": 75}, {"time": 1929, "pitch": 61, "duration": 4, "velocity": 88}, {"time": 1932, "pitch": 68, "duration": 9, "velocity": 89}, {"time": 1938, "pitch": 56, "duration": 5, "velocity": 87}, {"time": 1941, "pitch": 61, "duration": 5, "velocity": 89}, {"time": 1944, "pitch": 68, "duration": 4, "velocity": 79}, {"time": 1947, "pitch": 42, "duration": 19, "velocity": 91}, {"time": 1950, "pitch": 49, "duration": 7, "velocity": 69}, {"time": 1953, "pitch": 54, "duration": 5, "velocity": 82}, {"time": 1956, "pitch": 66, "duration": 5, "velocity": 92}, {"time": 1959, "pitch": 49, "duration": 5, "velocity": 81}, {"time": 1962, "pitch": 61, "duration": 4, "velocity": 82}, {"time": 1965, "pitch": 54, "duration": 7, "velocity": 88}, {"time": 1971, "pitch": 42, "duration": 22, "velocity": 91}, {"time": 1974, "pitch": 49, "duration": 9, "velocity": 74}, {"time": 1977, "pitch": 54, "duration": 5, "velocity": 89}, {"time": 1980, "pitch": 66, "duration": 7, "velocity": 89}, {"time": 1986, "pitch": 61, "duration": 4, "velocity": 83}, {"time": 1989, "pitch": 54, "duration": 6, "velocity": 88}, {"time": 1992, "pitch": 66, "duration": 14, "velocity": 86}, {"time": 1995, "pitch": 42, "duration": 18, "velocity": 88}, {"time": 1998, "pitch": 49, "duration": 8, "velocity": 74}, {"time": 2001, "pitch": 54, "duration": 5, "velocity": 82}, {"time": 2004, "pitch": 61, "duration": 10, "velocity": 87}, {"time": 2010, "pitch": 49, "duration": 4, "velocity": 86}, {"time": 2013, "pitch": 54, "duration": 4, "velocity": 89}, {"time": 2016, "pitch": 66, "duration": 5, "velocity": 80}, {"time": 2019, "pitch": 47, "duration": 23, "velocity": 87}, {"time": 2022, "pitch": 54, "duration": 6, "velocity": 67}, {"time": 2025, "pitch": 59, "duration": 5, "velocity": 83}, {"time": 2028, "pitch": 62, "duration": 6, "velocity": 89}, {"time": 2031, "pitch": 54, "duration": 11, "velocity": 82}, {"time": 2034, "pitch": 59, "duration": 5, "velocity": 88}, {"time": 2037, "pitch": 66, "duration": 16, "velocity": 86}, {"time": 2040, "pitch": 62, "duration": 7, "velocity": 81}, {"time": 2043, "pitch": 47, "duration": 21, "velocity": 89}, {"time": 2046, "pitch": 54, "duration": 8, "velocity": 82}, {"time": 2049, "pitch": 59, "duration": 6, "velocity": 88}, {"time": 2052, "pitch": 71, "duration": 14, "velocity": 90}, {"time": 2058, "pitch": 54, "duration": 5, "velocity": 88}, {"time": 2061, "pitch": 66, "duration": 6, "velocity": 89}, {"time": 2064, "pitch": 59, "duration": 3, "velocity": 88}, {"time": 2067, "pitch": 49, "duration": 22, "velocity": 88}, {"time": 2070, "pitch": 56, "duration": 8, "velocity": 71}, {"time": 2073, "pitch": 61, "duration": 5, "velocity": 80}, {"time": 2076, "pitch": 68, "duration": 7, "velocity": 91}, {"time": 2082, "pitch": 56, "duration": 7, "velocity": 87}, {"time": 2085, "pitch": 61, "duration": 7, "velocity": 89}, {"time": 2088, "pitch": 68, "duration": 11, "velocity": 87}, {"time": 2091, "pitch": 49, "duration": 20, "velocity": 89}, {"time": 2094, "pitch": 56, "duration": 8, "velocity": 72}, {"time": 2097, "pitch": 61, "duration": 5, "velocity": 89}, {"time": 2100, "pitch": 73, "duration": 8, "velocity": 90}, {"time": 2103, "pitch": 56, "duration": 7, "velocity": 77}, {"time": 2106, "pitch": 68, "duration": 4, "velocity": 84}, {"time": 2109, "pitch": 61, "duration": 4, "velocity": 88}, {"time": 2115, "pitch": 42, "duration": 22, "velocity": 87}, {"time": 2115, "pitch": 61, "duration": 4, "velocity": 78}, {"time": 2115, "pitch": 66, "duration": 7, "velocity": 80}, {"time": 2118, "pitch": 49, "duration": 19, "velocity": 77}, {"time": 2121, "pitch": 61, "duration": 4, "velocity": 86}, {"time": 2124, "pitch": 69, "duration": 6, "velocity": 88}, {"time": 2130, "pitch": 66, "duration": 4, "velocity": 83}, {"time": 2133, "pitch": 61, "duration": 9, "velocity": 87}, {"time": 2136, "pitch": 69, "duration": 12, "velocity": 91}, {"time": 2139, "pitch": 42, "duration": 25, "velocity": 83}, {"time": 2142, "pitch": 49, "duration": 9, "velocity": 75}, {"time": 2145, "pitch": 61, "duration": 8, "velocity": 83}, {"time": 2148, "pitch": 66, "duration": 5, "velocity": 80}, {"time": 2154, "pitch": 61, "duration": 2, "velocity": 77}, {"time": 2157, "pitch": 66, "duration": 5, "velocity": 77}, {"time": 2160, "pitch": 61, "duration": 3, "velocity": 77}, {"time": 2163, "pitch": 42, "duration": 1, "velocity": 75}, {"time": 2163, "pitch": 54, "duration": 13, "velocity": 75}, {"time": 2163, "pitch": 61, "duration": 9, "velocity": 81}, {"time": 2169, "pitch": 49, "duration": 8, "velocity": 61}, {"time": 2175, "pitch": 57, "duration": 13, "velocity": 83}, {"time": 2181, "pitch": 49, "duration": 8, "velocity": 67}, {"time": 2187, "pitch": 61, "duration": 5, "velocity": 83}, {"time": 2193, "pitch": 49, "duration": 14, "velocity": 40}, {"time": 2199, "pitch": 54, "duration": 8, "velocity": 82}, {"time": 2199, "pitch": 61, "duration": 5, "velocity": 83}, {"time": 2211, "pitch": 42, "duration": 42, "velocity": 76}, {"time": 2211, "pitch": 54, "duration": 11, "velocity": 67}, {"time": 2211, "pitch": 66, "duration": 6, "velocity": 81}, {"time": 2217, "pitch": 49, "duration": 20, "velocity": 63}, {"time": 2223, "pitch": 61, "duration": 7, "velocity": 82}, {"time": 2229, "pitch": 57, "duration": 4, "velocity": 77}, {"time": 2235, "pitch": 61, "duration": 9, "velocity": 77}, {"time": 2241, "pitch": 49, "duration": 10, "velocity": 47}, {"time": 2247, "pitch": 54, "duration": 6, "velocity": 69}, {"time": 2247, "pitch": 57, "duration": 5, "velocity": 74}, {"time": 2247, "pitch": 61, "duration": 5, "velocity": 79}, {"time": 2259, "pitch": 47, "duration": 38, "velocity": 87}, {"time": 2265, "pitch": 54, "duration": 8, "velocity": 73}, {"time": 2271, "pitch": 59, "duration": 13, "velocity": 80}, {"time": 2271, "pitch": 62, "duration": 12, "velocity": 84}, {"time": 2277, "pitch": 54, "duration": 10, "velocity": 67}, {"time": 2283, "pitch": 66, "duration": 15, "velocity": 79}, {"time": 2289, "pitch": 54, "duration": 8, "velocity": 61}, {"time": 2295, "pitch": 62, "duration": 5, "velocity": 82}, {"time": 2307, "pitch": 52, "duration": 13, "velocity": 87}, {"time": 2307, "pitch": 64, "duration": 8, "velocity": 81}, {"time": 2307, "pitch": 68, "duration": 10, "velocity": 76}, {"time": 2313, "pitch": 59, "duration": 7, "velocity": 77}, {"time": 2319, "pitch": 64, "duration": 3, "velocity": 89}, {"time": 2331, "pitch": 49, "duration": 14, "velocity": 78}, {"time": 2331, "pitch": 61, "duration": 13, "velocity": 77}, {"time": 2331, "pitch": 68, "duration": 12, "velocity": 74}, {"time": 2337, "pitch": 56, "duration": 7, "velocity": 81}, {"time": 2343, "pitch": 64, "duration": 7, "velocity": 88}, {"time": 2349, "pitch": 61, "duration": 2, "velocity": 85}, {"time": 2355, "pitch": 42, "duration": 42, "velocity": 87}, {"time": 2361, "pitch": 49, "duration": 20, "velocity": 79}, {"time": 2367, "pitch": 57, "duration": 7, "velocity": 86}, {"time": 2373, "pitch": 54, "duration": 4, "velocity": 71}, {"time": 2379, "pitch": 61, "duration": 6, "velocity": 79}, {"time": 2385, "pitch": 49, "duration": 12, "velocity": 56}, {"time": 2391, "pitch": 66, "duration": 5, "velocity": 84}, {"time": 2403, "pitch": 47, "duration": 39, "velocity": 85}, {"time": 2409, "pitch": 59, "duration": 1, "velocity": 81}, {"time": 2415, "pitch": 54, "duration": 15, "velocity": 80}, {"time": 2421, "pitch": 62, "duration": 7, "velocity": 81}, {"time": 2427, "pitch": 66, "duration": 12, "velocity": 80}, {"time": 2433, "pitch": 54, "duration": 8, "velocity": 68}, {"time": 2439, "pitch": 59, "duration": 3, "velocity": 80}, {"time": 2439, "pitch": 62, "duration": 4, "velocity": 83}, {"time": 2451, "pitch": 52, "duration": 38, "velocity": 89}, {"time": 2451, "pitch": 64, "duration": 8, "velocity": 83}, {"time": 2451, "pitch": 68, "duration": 9, "velocity": 80}, {"time": 2457, "pitch": 59, "duration": 31, "velocity": 78}, {"time": 2463, "pitch": 68, "duration": 10, "velocity": 76}, {"time": 2469, "pitch": 56, "duration": 17, "velocity": 69}, {"time": 2475, "pitch": 64, "duration": 10, "velocity": 79}, {"time": 2475, "pitch": 71, "duration": 10, "velocity": 83}, {"time": 2487, "pitch": 68, "duration": 6, "velocity": 82}, {"time": 2499, "pitch": 42, "duration": 49, "velocity": 81}, {"time": 2505, "pitch": 49, "duration": 22, "velocity": 73}, {"time": 2511, "pitch": 57, "duration": 8, "velocity": 86}, {"time": 2517, "pitch": 61, "duration": 7, "velocity": 73}, {"time": 2523, "pitch": 66, "duration": 7, "velocity": 87}, {"time": 2529, "pitch": 49, "duration": 8, "velocity": 64}, {"time": 2535, "pitch": 54, "duration": 13, "velocity": 80}, {"time": 2535, "pitch": 61, "duration": 13, "velocity": 79}, {"time": 2541, "pitch": 49, "duration": 7, "velocity": 76}, {"time": 2545, "pitch": 54, "duration": 3, "velocity": 75}, {"time": 2546, "pitch": 57, "duration": 2, "velocity": 84}, {"time": 2547, "pitch": 42, "duration": 1, "velocity": 87}, {"time": 2547, "pitch": 61, "duration": 1, "velocity": 80}, {"time": 2548, "pitch": 66, "duration": 5, "velocity": 82}, {"time": 2554, "pitch": 54, "duration": 36, "velocity": 88}, {"time": 2560, "pitch": 61, "duration": 14, "velocity": 78}, {"time": 2565, "pitch": 66, "duration": 4, "velocity": 77}, {"time": 2571, "pitch": 66, "duration": 10, "velocity": 80}, {"time": 2571, "pitch": 73, "duration": 11, "velocity": 73}, {"time": 2577, "pitch": 61, "duration": 8, "velocity": 61}, {"time": 2583, "pitch": 66, "duration": 11, "velocity": 83}, {"time": 2583, "pitch": 69, "duration": 11, "velocity": 89}, {"time": 2589, "pitch": 61, "duration": 4, "velocity": 75}, {"time": 2595, "pitch": 42, "duration": 45, "velocity": 88}, {"time": 2601, "pitch": 49, "duration": 10, "velocity": 73}, {"time": 2607, "pitch": 57, "duration": 13, "velocity": 83}, {"time": 2613, "pitch": 49, "duration": 9, "velocity": 69}, {"time": 2619, "pitch": 61, "duration": 3, "velocity": 87}, {"time": 2625, "pitch": 49, "duration": 16, "velocity": 64}, {"time": 2631, "pitch": 54, "duration": 5, "velocity": 92}, {"time": 2631, "pitch": 66, "duration": 5, "velocity": 81}, {"time": 2643, "pitch": 42, "duration": 37, "velocity": 82}, {"time": 2649, "pitch": 49, "duration": 21, "velocity": 76}, {"time": 2655, "pitch": 57, "duration": 7, "velocity": 87}, {"time": 2661, "pitch": 54, "duration": 7, "velocity": 88}, {"time": 2667, "pitch": 66, "duration": 7, "velocity": 84}, {"time": 2673, "pitch": 49, "duration": 7, "velocity": 71}, {"time": 2679, "pitch": 54, "duration": 3, "velocity": 87}, {"time": 2679, "pitch": 57, "duration": 6, "velocity": 88}, {"time": 2685, "pitch": 54, "duration": 2, "velocity": 88}, {"time": 2691, "pitch": 47, "duration": 39, "velocity": 87}, {"time": 2691, "pitch": 59, "duration": 14, "velocity": 87}, {"time": 2697, "pitch": 54, "duration": 9, "velocity": 74}, {"time": 2703, "pitch": 62, "duration": 13, "velocity": 84}, {"time": 2709, "pitch": 54, "duration": 8, "velocity": 70}, {"time": 2715, "pitch": 66, "duration": 6, "velocity": 88}, {"time": 2721, "pitch": 54, "duration": 7, "velocity": 63}, {"time": 2727, "pitch": 59, "duration": 3, "velocity": 86}, {"time": 2727, "pitch": 62, "duration": 4, "velocity": 88}, {"time": 2727, "pitch": 66, "duration": 6, "velocity": 87}, {"time": 2733, "pitch": 59, "duration": 4, "velocity": 84}, {"time": 2739, "pitch": 49, "duration": 13, "velocity": 89}, {"time": 2739, "pitch": 61, "duration": 4, "velocity": 78}, {"time": 2739, "pitch": 64, "duration": 5, "velocity": 87}, {"time": 2745, "pitch": 56, "duration": 7, "velocity": 72}, {"time": 2751, "pitch": 61, "duration": 7, "velocity": 85}, {"time": 2757, "pitch": 49, "duration": 3, "velocity": 75}, {"time": 2763, "pitch": 42, "duration": 17, "velocity": 86}, {"time": 2769, "pitch": 49, "duration": 12, "velocity": 81}, {"time": 2775, "pitch": 54, "duration": 8, "velocity": 83}, {"time": 2775, "pitch": 57, "duration": 7, "velocity": 82}, {"time": 2775, "pitch": 61, "duration": 9, "velocity": 82}, {"time": 2787, "pitch": 42, "duration": 29, "velocity": 84}, {"time": 2787, "pitch": 54, "duration": 11, "velocity": 82}, {"time": 2787, "pitch": 66, "duration": 7, "velocity": 80}, {"time": 2793, "pitch": 49, "duration": 9, "velocity": 75}, {"time": 2799, "pitch": 57, "duration": 8, "velocity": 81}, {"time": 2805, "pitch": 54, "duration": 15, "velocity": 90}, {"time": 2811, "pitch": 61, "duration": 9, "velocity": 88}, {"time": 2817, "pitch": 57, "duration": 3, "velocity": 81}, {"time": 2823, "pitch": 54, "duration": 4, "velocity": 87}, {"time": 2823, "pitch": 57, "duration": 3, "velocity": 88}, {"time": 2823, "pitch": 61, "duration": 4, "velocity": 81}, {"time": 2823, "pitch": 66, "duration": 7, "velocity": 84}, {"time": 2835, "pitch": 47, "duration": 40, "velocity": 87}, {"time": 2835, "pitch": 59, "duration": 27, "velocity": 80}, {"time": 2835, "pitch": 62, "duration": 13, "velocity": 83}, {"time": 2841, "pitch": 54, "duration": 9, "velocity": 73}, {"time": 2847, "pitch": 66, "duration": 13, "velocity": 83}, {"time": 2853, "pitch": 54, "duration": 10, "velocity": 70}, {"time": 2859, "pitch": 62, "duration": 4, "velocity": 44}, {"time": 2859, "pitch": 71, "duration": 9, "velocity": 88}, {"time": 2865, "pitch": 59, "duration": 5, "velocity": 84}, {"time": 2871, "pitch": 59, "duration": 1, "velocity": 78}, {"time": 2871, "pitch": 62, "duration": 6, "velocity": 90}, {"time": 2871, "pitch": 66, "duration": 7, "velocity": 80}, {"time": 2877, "pitch": 59, "duration": 2, "velocity": 88}, {"time": 2883, "pitch": 37, "duration": 2, "velocity": 83}, {"time": 2883, "pitch": 61, "duration": 16, "velocity": 85}, {"time": 2883, "pitch": 64, "duration": 20, "velocity": 88}, {"time": 2889, "pitch": 49, "duration": 38, "velocity": 84}, {"time": 2895, "pitch": 56, "duration": 15, "velocity": 86}, {"time": 2901, "pitch": 61, "duration": 8, "velocity": 88}, {"time": 2907, "pitch": 64, "duration": 7, "velocity": 88}, {"time": 2907, "pitch": 68, "duration": 7, "velocity": 87}, {"time": 2910, "pitch": 61, "duration": 10, "velocity": 47}, {"time": 2913, "pitch": 56, "duration": 13, "velocity": 70}, {"time": 2919, "pitch": 64, "duration": 3, "velocity": 89}, {"time": 2919, "pitch": 68, "duration": 8, "velocity": 90}, {"time": 2925, "pitch": 61, "duration": 5, "velocity": 80}, {"time": 2931, "pitch": 49, "duration": 15, "velocity": 90}, {"time": 2931, "pitch": 61, "duration": 8, "velocity": 88}, {"time": 2937, "pitch": 56, "duration": 10, "velocity": 75}, {"time": 2943, "pitch": 61, "duration": 4, "velocity": 89}, {"time": 2943, "pitch": 68, "duration": 10, "velocity": 86}, {"time": 2949, "pitch": 61, "duration": 5, "velocity": 77}, {"time": 2955, "pitch": 61, "duration": 7, "velocity": 89}, {"time": 2955, "pitch": 68, "duration": 7, "velocity": 83}, {"time": 2961, "pitch": 49, "duration": 8, "velocity": 74}, {"time": 2961, "pitch": 56, "duration": 8, "velocity": 75}, {"time": 2967, "pitch": 61, "duration": 12, "velocity": 96}, {"time": 2967, "pitch": 73, "duration": 13, "velocity": 87}, {"time": 2973, "pitch": 49, "duration": 6, "velocity": 85}, {"time": 2973, "pitch": 56, "duration": 6, "velocity": 87}, {"time": 2979, "pitch": 42, "duration": 45, "velocity": 88}, {"time": 2985, "pitch": 49, "duration": 10, "velocity": 73}, {"time": 2991, "pitch": 57, "duration": 13, "velocity": 83}, {"time": 2997, "pitch": 49, "duration": 9, "velocity": 69}, {"time": 3003, "pitch": 61, "duration": 3, "velocity": 87}, {"time": 3009, "pitch": 49, "duration": 16, "velocity": 64}, {"time": 3015, "pitch": 54, "duration": 5, "velocity": 92}, {"time": 3015, "pitch": 66, "duration": 5, "velocity": 81}, {"time": 3027, "pitch": 42, "duration": 37, "velocity": 82}, {"time": 3033, "pitch": 49, "duration": 21, "velocity": 76}, {"time": 3039, "pitch": 57, "duration": 7, "velocity": 87}, {"time": 3045, "pitch": 54, "duration": 7, "velocity": 88}, {"time": 3051, "pitch": 66, "duration": 7, "velocity": 84}, {"time": 3057, "pitch": 49, "duration": 7, "velocity": 71}, {"time": 3063, "pitch": 54, "duration": 3, "velocity": 87}, {"time": 3063, "pitch": 57, "duration": 6, "velocity": 88}, {"time": 3069, "pitch": 54, "duration": 2, "velocity": 88}, {"time": 3075, "pitch": 47, "duration": 39, "velocity": 87}, {"time": 3075, "pitch": 59, "duration": 14, "velocity": 87}, {"time": 3081, "pitch": 54, "duration": 9, "velocity": 74}, {"time": 3087, "pitch": 62, "duration": 13, "velocity": 84}, {"time": 3093, "pitch": 54, "duration": 8, "velocity": 70}, {"time": 3099, "pitch": 66, "duration": 6, "velocity": 88}, {"time": 3105, "pitch": 54, "duration": 7, "velocity": 63}, {"time": 3111, "pitch": 59, "duration": 3, "velocity": 86}, {"time": 3111, "pitch": 62, "duration": 4, "velocity": 88}, {"time": 3111, "pitch": 66, "duration": 6, "velocity": 87}, {"time": 3117, "pitch": 59, "duration": 4, "velocity": 84}, {"time": 3123, "pitch": 49, "duration": 13, "velocity": 89}, {"time": 3123, "pitch": 61, "duration": 4, "velocity": 78}, {"time": 3123, "pitch": 64, "duration": 5, "velocity": 87}, {"time": 3129, "pitch": 56, "duration": 7, "velocity": 72}, {"time": 3135, "pitch": 61, "duration": 7, "velocity": 85}, {"time": 3135, "pitch": 68, "duration": 7, "velocity": 80}, {"time": 3141, "pitch": 49, "duration": 3, "velocity": 75}, {"time": 3147, "pitch": 42, "duration": 17, "velocity": 86}, {"time": 3153, "pitch": 49, "duration": 12, "velocity": 81}, {"time": 3159, "pitch": 54, "duration": 8, "velocity": 83}, {"time": 3159, "pitch": 57, "duration": 7, "velocity": 82}, {"time": 3159, "pitch": 61, "duration": 9, "velocity": 82}, {"time": 3171, "pitch": 42, "duration": 29, "velocity": 84}, {"time": 3171, "pitch": 54, "duration": 11, "velocity": 82}, {"time": 3171, "pitch": 66, "duration": 7, "velocity": 80}, {"time": 3177, "pitch": 49, "duration": 9, "velocity": 75}, {"time": 3183, "pitch": 57, "duration": 8, "velocity": 81}, {"time": 3189, "pitch": 54, "duration": 15, "velocity": 90}, {"time": 3195, "pitch": 61, "duration": 9, "velocity": 88}, {"time": 3201, "pitch": 57, "duration": 3, "velocity": 81}, {"time": 3207, "pitch": 54, "duration": 4, "velocity": 87}, {"time": 3207, "pitch": 57, "duration": 3, "velocity": 88}, {"time": 3207, "pitch": 61, "duration": 4, "velocity": 81}, {"time": 3207, "pitch": 66, "duration": 7, "velocity": 84}, {"time": 3219, "pitch": 47, "duration": 40, "velocity": 87}, {"time": 3219, "pitch": 59, "duration": 27, "velocity": 80}, {"time": 3219, "pitch": 62, "duration": 13, "velocity": 83}, {"time": 3225, "pitch": 54, "duration": 9, "velocity": 73}, {"time": 3231, "pitch": 66, "duration": 13, "velocity": 83}, {"time": 3237, "pitch": 54, "duration": 10, "velocity": 70}, {"time": 3243, "pitch": 62, "duration": 4, "velocity": 44}, {"time": 3243, "pitch": 71, "duration": 9, "velocity": 88}, {"time": 3249, "pitch": 59, "duration": 5, "velocity": 84}, {"time": 3255, "pitch": 59, "duration": 1, "velocity": 78}, {"time": 3255, "pitch": 62, "duration": 6, "velocity": 90}, {"time": 3255, "pitch": 66, "duration": 7, "velocity": 80}, {"time": 3261, "pitch": 59, "duration": 2, "velocity": 88}, {"time": 3267, "pitch": 37, "duration": 2, "velocity": 83}, {"time": 3267, "pitch": 61, "duration": 16, "velocity": 85}, {"time": 3267, "pitch": 64, "duration": 20, "velocity": 88}, {"time": 3273, "pitch": 49, "duration": 38, "velocity": 84}, {"time": 3279, "pitch": 56, "duration": 15, "velocity": 86}, {"time": 3285, "pitch": 61, "duration": 8, "velocity": 88}, {"time": 3291, "pitch": 64, "duration": 7, "velocity": 88}, {"time": 3291, "pitch": 68, "duration": 7, "velocity": 87}, {"time": 3294, "pitch": 61, "duration": 10, "velocity": 47}, {"time": 3297, "pitch": 56, "duration": 13, "velocity": 70}, {"time": 3303, "pitch": 64, "duration": 3, "velocity": 89}, {"time": 3303, "pitch": 68, "duration": 8, "velocity": 90}, {"time": 3309, "pitch": 61, "duration": 5, "velocity": 80}, {"time": 3315, "pitch": 42, "duration": 48, "velocity": 88}, {"time": 3315, "pitch": 61, "duration": 11, "velocity": 80}, {"time": 3315, "pitch": 66, "duration": 11, "velocity": 82}, {"time": 3321, "pitch": 49, "duration": 20, "velocity": 80}, {"time": 3327, "pitch": 61, "duration": 3, "velocity": 79}, {"time": 3327, "pitch": 69, "duration": 7, "velocity": 87}, {"time": 3333, "pitch": 61, "duration": 3, "velocity": 71}, {"time": 3333, "pitch": 66, "duration": 3, "velocity": 75}, {"time": 3339, "pitch": 73, "duration": 6, "velocity": 89}, {"time": 3345, "pitch": 61, "duration": 4, "velocity": 78}, {"time": 3351, "pitch": 61, "duration": 12, "velocity": 79}, {"time": 3351, "pitch": 66, "duration": 12, "velocity": 84}, {"time": 3351, "pitch": 69, "duration": 12, "velocity": 77}, {"time": 3357, "pitch": 49, "duration": 6, "velocity": 76}, {"time": 3363, "pitch": 42, "duration": 23, "velocity": 85}, {"time": 3366, "pitch": 49, "duration": 8, "velocity": 75}, {"time": 3369, "pitch": 54, "duration": 5, "velocity": 82}, {"time": 3372, "pitch": 61, "duration": 9, "velocity": 87}, {"time": 3378, "pitch": 57, "duration": 4, "velocity": 77}, {"time": 3381, "pitch": 54, "duration": 5, "velocity": 80}, {"time": 3384, "pitch": 61, "duration": 6, "velocity": 85}, {"time": 3387, "pitch": 42, "duration": 19, "velocity": 81}, {"time": 3390, "pitch": 49, "duration": 7, "velocity": 69}, {"time": 3393, "pitch": 54, "duration": 5, "velocity": 83}, {"time": 3396, "pitch": 66, "duration": 8, "velocity": 91}, {"time": 3399, "pitch": 49, "duration": 5, "velocity": 69}, {"time": 3402, "pitch": 61, "duration": 5, "velocity": 83}, {"time": 3405, "pitch": 54, "duration": 6, "velocity": 89}, {"time": 3408, "pitch": 57, "duration": 5, "velocity": 75}, {"time": 3411, "pitch": 42, "duration": 39, "velocity": 88}, {"time": 3414, "pitch": 49, "duration": 20, "velocity": 75}, {"time": 3417, "pitch": 54, "duration": 7, "velocity": 76}, {"time": 3420, "pitch": 57, "duration": 6, "velocity": 86}, {"time": 3426, "pitch": 61, "duration": 8, "velocity": 79}, {"time": 3429, "pitch": 57, "duration": 5, "velocity": 79}, {"time": 3432, "pitch": 54, "duration": 4, "velocity": 77}, {"time": 3435, "pitch": 61, "duration": 1, "velocity": 61}, {"time": 3435, "pitch": 66, "duration": 17, "velocity": 87}, {"time": 3441, "pitch": 49, "duration": 5, "velocity": 71}, {"time": 3444, "pitch": 61, "duration": 8, "velocity": 84}, {"time": 3447, "pitch": 49, "duration": 3, "velocity": 73}, {"time": 3450, "pitch": 57, "duration": 4, "velocity": 83}, {"time": 3453, "pitch": 54, "duration": 4, "velocity": 87}, {"time": 3456, "pitch": 57, "duration": 3, "velocity": 84}, {"time": 3459, "pitch": 47, "duration": 23, "velocity": 88}, {"time": 3465, "pitch": 54, "duration": 8, "velocity": 79}, {"time": 3468, "pitch": 62, "duration": 10, "velocity": 90}, {"time": 3474, "pitch": 54, "duration": 8, "velocity": 75}, {"time": 3477, "pitch": 59, "duration": 7, "velocity": 83}, {"time": 3480, "pitch": 62, "duration": 7, "velocity": 81}, {"time": 3483, "pitch": 47, "duration": 20, "velocity": 89}, {"time": 3486, "pitch": 54, "duration": 7, "velocity": 75}, {"time": 3489, "pitch": 59, "duration": 5, "velocity": 85}, {"time": 3492, "pitch": 66, "duration": 8, "velocity": 91}, {"time": 3495, "pitch": 54, "duration": 5, "velocity": 79}, {"time": 3498, "pitch": 62, "duration": 4, "velocity": 88}, {"time": 3501, "pitch": 59, "duration": 5, "velocity": 83}, {"time": 3504, "pitch": 62, "duration": 3, "velocity": 83}, {"time": 3507, "pitch": 49, "duration": 20, "velocity": 89}, {"time": 3510, "pitch": 56, "duration": 8, "velocity": 75}, {"time": 3513, "pitch": 61, "duration": 4, "velocity": 88}, {"time": 3516, "pitch": 68, "duration": 9, "velocity": 89}, {"time": 3522, "pitch": 56, "duration": 5, "velocity": 87}, {"time": 3525, "pitch": 61, "duration": 5, "velocity": 89}, {"time": 3528, "pitch": 68, "duration": 4, "velocity": 79}, {"time": 3531, "pitch": 42, "duration": 19, "velocity": 91}, {"time": 3534, "pitch": 49, "duration": 7, "velocity": 69}, {"time": 3537, "pitch": 54, "duration": 5, "velocity": 82}, {"time": 3540, "pitch": 66, "duration": 5, "velocity": 92}, {"time": 3543, "pitch": 49, "duration": 5, "velocity": 81}, {"time": 3546, "pitch": 61, "duration": 4, "velocity": 82}, {"time": 3549, "pitch": 54, "duration": 7, "velocity": 88}, {"time": 3555, "pitch": 42, "duration": 22, "velocity": 91}, {"time": 3558, "pitch": 49, "duration": 9, "velocity": 74}, {"time": 3561, "pitch": 54, "duration": 5, "velocity": 89}, {"time": 3564, "pitch": 66, "duration": 7, "velocity": 89}, {"time": 3570, "pitch": 61, "duration": 4, "velocity": 83}, {"time": 3573, "pitch": 54, "duration": 6, "velocity": 88}, {"time": 3576, "pitch": 66, "duration": 14, "velocity": 86}, {"time": 3579, "pitch": 42, "duration": 18, "velocity": 88}, {"time": 3582, "pitch": 49, "duration": 8, "velocity": 74}, {"time": 3585, "pitch": 54, "duration": 5, "velocity": 82}, {"time": 3588, "pitch": 61, "duration": 10, "velocity": 87}, {"time": 3594, "pitch": 49, "duration": 4, "velocity": 86}, {"time": 3597, "pitch": 54, "duration": 4, "velocity": 89}, {"time": 3600, "pitch": 66, "duration": 5, "velocity": 80}, {"time": 3603, "pitch": 47, "duration": 23, "velocity": 87}, {"time": 3606, "pitch": 54, "duration": 6, "velocity": 67}, {"time": 3609, "pitch": 59, "duration": 5, "velocity": 83}, {"time": 3612, "pitch": 62, "duration": 6, "velocity": 89}, {"time": 3615, "pitch": 54, "duration": 11, "velocity": 82}, {"time": 3618, "pitch": 59, "duration": 5, "velocity": 88}, {"time": 3621, "pitch": 66, "duration": 16, "velocity": 86}, {"time": 3624, "pitch": 62, "duration": 7, "velocity": 81}, {"time": 3627, "pitch": 47, "duration": 21, "velocity": 89}, {"time": 3630, "pitch": 54, "duration": 8, "velocity": 82}, {"time": 3633, "pitch": 59, "duration": 6, "velocity": 88}, {"time": 3636, "pitch": 71, "duration": 14, "velocity": 90}, {"time": 3642, "pitch": 54, "duration": 5, "velocity": 88}, {"time": 3645, "pitch": 66, "duration": 6, "velocity": 89}, {"time": 3648, "pitch": 59, "duration": 3, "velocity": 88}, {"time": 3651, "pitch": 49, "duration": 22, "velocity": 88}, {"time": 3654, "pitch": 56, "duration": 8, "velocity": 71}, {"time": 3657, "pitch": 61, "duration": 5, "velocity": 80}, {"time": 3660, "pitch": 68, "duration": 7, "velocity": 91}, {"time": 3666, "pitch": 56, "duration": 7, "velocity": 87}, {"time": 3669, "pitch": 61, "duration": 7, "velocity": 89}, {"time": 3672, "pitch": 68, "duration": 11, "velocity": 87}, {"time": 3675, "pitch": 49, "duration": 20, "velocity": 89}, {"time": 3678, "pitch": 56, "duration": 8, "velocity": 72}, {"time": 3681, "pitch": 61, "duration": 5, "velocity": 89}, {"time": 3684, "pitch": 73, "duration": 8, "velocity": 90}, {"time": 3687, "pitch": 56, "duration": 7, "velocity": 77}, {"time": 3690, "pitch": 68, "duration": 4, "velocity": 84}, {"time": 3693, "pitch": 61, "duration": 4, "velocity": 88}, {"time": 3699, "pitch": 42, "duration": 22, "velocity": 87}, {"time": 3699, "pitch": 61, "duration": 4, "velocity": 78}, {"time": 3699, "pitch": 66, "duration": 7, "velocity": 80}, {"time": 3702, "pitch": 49, "duration": 19, "velocity": 77}, {"time": 3705, "pitch": 61, "duration": 4, "velocity": 86}, {"time": 3708, "pitch": 69, "duration": 6, "velocity": 88}, {"time": 3714, "pitch": 66, "duration": 4, "velocity": 83}, {"time": 3717, "pitch": 61, "duration": 9, "velocity": 87}, {"time": 3720, "pitch": 69, "duration": 12, "velocity": 91}, {"time": 3723, "pitch": 42, "duration": 25, "velocity": 83}, {"time": 3726, "pitch": 49, "duration": 9, "velocity": 75}, {"time": 3729, "pitch": 61, "duration": 8, "velocity": 83}, {"time": 3732, "pitch": 66, "duration": 5, "velocity": 80}, {"time": 3738, "pitch": 61, "duration": 2, "velocity": 77}, {"time": 3741, "pitch": 66, "duration": 5, "velocity": 77}, {"time": 3744, "pitch": 61, "duration": 3, "velocity": 77}, {"time": 3746, "pitch": 61, "duration": 1, "velocity": 73}, {"time": 3747, "pitch": 42, "duration": 1, "velocity": 81}, {"time": 3747, "pitch": 66, "duration": 25, "velocity": 79}, {"time": 3749, "pitch": 69, "duration": 23, "velocity": 71}], "annotations": [{"time": 50, "annotation": {"number": 64, "value": 127}, "group": "control_change"}, {"time": 98, "annotation": {"number": 64, "value": 0}, "group": "control_change"}, {"time": 100, "annotation": {"number": 64, "value": 127}, "group": "control_change"}, {"time": 147, "annotation": {"number": 64, "value": 0}, "group": "control_change"}, {"time": 148, "annotation": {"number": 64, "value": 127}, "group": "control_change"}, {"time": 195, "annotation": {"number": 64, "value": 0}, "group": "control_change"}, {"time": 197, "annotation": {"number": 64, "value": 127}, "group": "control_change"}, {"time": 243, "annotation": {"number": 64, "value": 0}, "group": "control_change"}, {"time": 245, "annotation": {"number": 64, "value": 127}, "group": "control_change"}, {"time": 290, "annotation": {"number": 64, "value": 0}, "group": "control_change"}, {"time": 292, "annotation": {"number": 64, "value": 127}, "group": "control_change"}, {"time": 315, "annotation": {"number": 64, "value": 0}, "group": "control_change"}, {"time": 318, "annotation": {"number": 64, "value": 127}, "group": "control_change"}, {"time": 339, "annotation": {"number": 64, "value": 127}, "group": "control_change"}, {"time": 387, "annotation": {"number": 64, "value": 0}, "group": "control_change"}, {"time": 390, "annotation": {"number": 64, "value": 127}, "group": "control_change"}, {"time": 435, "annotation": {"number": 64, "value": 0}, "group": "control_change"}, {"time": 437, "annotation": {"number": 64, "value": 127}, "group": "control_change"}, {"time": 483, "annotation": {"number": 64, "value": 0}, "group": "control_change"}, {"time": 485, "annotation": {"number": 64, "value": 127}, "group": "control_change"}, {"time": 530, "annotation": {"number": 64, "value": 0}, "group": "control_change"}, {"time": 532, "annotation": {"number": 64, "value": 127}, "group": "control_change"}, {"time": 580, "annotation": {"number": 64, "value": 127}, "group": "control_change"}, {"time": 676, "annotation": {"number": 64, "value": 0}, "group": "control_change"}, {"time": 679, "annotation": {"number": 64, "value": 127}, "group": "control_change"}, {"time": 725, "annotation": {"number": 64, "value": 127}, "group": "control_change"}, {"time": 748, "annotation": {"number": 64, "value": 0}, "group": "control_change"}, {"time": 754, "annotation": {"number": 64, "value": 127}, "group": "control_change"}, {"time": 772, "annotation": {"number": 64, "value": 0}, "group": "control_change"}, {"time": 775, "annotation": {"number": 64, "value": 127}, "group": "control_change"}, {"time": 819, "annotation": {"number": 64, "value": 0}, "group": "control_change"}, {"time": 823, "annotation": {"number": 64, "value": 127}, "group": "control_change"}, {"time": 867, "annotation": {"number": 64, "value": 0}, "group": "control_change"}, {"time": 870, "annotation": {"number": 64, "value": 127}, "group": "control_change"}, {"time": 917, "annotation": {"number": 64, "value": 0}, "group": "control_change"}, {"time": 920, "annotation": {"number": 64, "value": 127}, "group": "control_change"}, {"time": 961, "annotation": {"number": 64, "value": 0}, "group": "control_change"}, {"time": 963, "annotation": {"number": 64, "value": 127}, "group": "control_change"}, {"time": 1010, "annotation": {"number": 64, "value": 0}, "group": "control_change"}, {"time": 1012, "annotation": {"number": 64, "value": 127}, "group": "control_change"}, {"time": 1061, "annotation": {"number": 64, "value": 0}, "group": "control_change"}, {"time": 1064, "annotation": {"number": 64, "value": 127}, "group": "control_change"}, {"time": 1107, "annotation": {"number": 64, "value": 0}, "group": "control_change"}, {"time": 1114, "annotation": {"number": 64, "value": 127}, "group": "control_change"}, {"time": 1154, "annotation": {"number": 64, "value": 0}, "group": "control_change"}, {"time": 1156, "annotation": {"number": 64, "value": 127}, "group": "control_change"}, {"time": 1180, "annotation": {"number": 64, "value": 0}, "group": "control_change"}, {"time": 1183, "annotation": {"number": 64, "value": 127}, "group": "control_change"}, {"time": 1203, "annotation": {"number": 64, "value": 0}, "group": "control_change"}, {"time": 1206, "annotation": {"number": 64, "value": 127}, "group": "control_change"}, {"time": 1251, "annotation": {"number": 64, "value": 0}, "group": "control_change"}, {"time": 1257, "annotation": {"number": 64, "value": 127}, "group": "control_change"}, {"time": 1288, "annotation": {"number": 64, "value": 127}, "group": "control_change"}, {"time": 1296, "annotation": {"number": 64, "value": 0}, "group": "control_change"}, {"time": 1299, "annotation": {"number": 64, "value": 127}, "group": "control_change"}, {"time": 1312, "annotation": {"number": 64, "value": 0}, "group": "control_change"}, {"time": 1318, "annotation": {"number": 64, "value": 127}, "group": "control_change"}, {"time": 1347, "annotation": {"number": 64, "value": 0}, "group": "control_change"}, {"time": 1348, "annotation": {"number": 64, "value": 127}, "group": "control_change"}, {"time": 1393, "annotation": {"number": 64, "value": 0}, "group": "control_change"}, {"time": 1396, "annotation": {"number": 64, "value": 127}, "group": "control_change"}, {"time": 1445, "annotation": {"number": 64, "value": 0}, "group": "control_change"}, {"time": 1448, "annotation": {"number": 64, "value": 127}, "group": "control_change"}, {"time": 1491, "annotation": {"number": 64, "value": 0}, "group": "control_change"}, {"time": 1498, "annotation": {"number": 64, "value": 127}, "group": "control_change"}, {"time": 1538, "annotation": {"number": 64, "value": 0}, "group": "control_change"}, {"time": 1540, "annotation": {"number": 64, "value": 127}, "group": "control_change"}, {"time": 1564, "annotation": {"number": 64, "value": 0}, "group": "control_change"}, {"time": 1567, "annotation": {"number": 64, "value": 127}, "group": "control_change"}, {"time": 1587, "annotation": {"number": 64, "value": 0}, "group": "control_change"}, {"time": 1590, "annotation": {"number": 64, "value": 127}, "group": "control_change"}, {"time": 1635, "annotation": {"number": 64, "value": 0}, "group": "control_change"}, {"time": 1641, "annotation": {"number": 64, "value": 127}, "group": "control_change"}, {"time": 1672, "annotation": {"number": 64, "value": 127}, "group": "control_change"}, {"time": 1680, "annotation": {"number": 64, "value": 0}, "group": "control_change"}, {"time": 1683, "annotation": {"number": 64, "value": 127}, "group": "control_change"}, {"time": 1696, "annotation": {"number": 64, "value": 0}, "group": "control_change"}, {"time": 1702, "annotation": {"number": 64, "value": 127}, "group": "control_change"}, {"time": 1732, "annotation": {"number": 64, "value": 127}, "group": "control_change"}, {"time": 1778, "annotation": {"number": 64, "value": 0}, "group": "control_change"}, {"time": 1784, "annotation": {"number": 64, "value": 127}, "group": "control_change"}, {"time": 1803, "annotation": {"number": 64, "value": 0}, "group": "control_change"}, {"time": 1805, "annotation": {"number": 64, "value": 127}, "group": "control_change"}, {"time": 1827, "annotation": {"number": 64, "value": 0}, "group": "control_change"}, {"time": 1829, "annotation": {"number": 64, "value": 127}, "group": "control_change"}, {"time": 1874, "annotation": {"number": 64, "value": 0}, "group": "control_change"}, {"time": 1876, "annotation": {"number": 64, "value": 127}, "group": "control_change"}, {"time": 1922, "annotation": {"number": 64, "value": 0}, "group": "control_change"}, {"time": 1924, "annotation": {"number": 64, "value": 127}, "group": "control_change"}, {"time": 1946, "annotation": {"number": 64, "value": 0}, "group": "control_change"}, {"time": 1947, "annotation": {"number": 64, "value": 127}, "group": "control_change"}, {"time": 1972, "annotation": {"number": 64, "value": 0}, "group": "control_change"}, {"time": 1973, "annotation": {"number": 64, "value": 127}, "group": "control_change"}, {"time": 1995, "annotation": {"number": 64, "value": 0}, "group": "control_change"}, {"time": 1996, "annotation": {"number": 64, "value": 127}, "group": "control_change"}, {"time": 2017, "annotation": {"number": 64, "value": 0}, "group": "control_change"}, {"time": 2018, "annotation": {"number": 64, "value": 127}, "group": "control_change"}, {"time": 2043, "annotation": {"number": 64, "value": 0}, "group": "control_change"}, {"time": 2044, "annotation": {"number": 64, "value": 127}, "group": "control_change"}, {"time": 2066, "annotation": {"number": 64, "value": 0}, "group": "control_change"}, {"time": 2068, "annotation": {"number": 64, "value": 127}, "group": "control_change"}, {"time": 2090, "annotation": {"number": 64, "value": 0}, "group": "control_change"}, {"time": 2091, "annotation": {"number": 64, "value": 127}, "group": "control_change"}, {"time": 2116, "annotation": {"number": 64, "value": 127}, "group": "control_change"}, {"time": 2138, "annotation": {"number": 64, "value": 0}, "group": "control_change"}, {"time": 2142, "annotation": {"number": 64, "value": 127}, "group": "control_change"}, {"time": 2163, "annotation": {"number": 64, "value": 0}, "group": "control_change"}, {"time": 2164, "annotation": {"number": 64, "value": 127}, "group": "control_change"}, {"time": 2260, "annotation": {"number": 64, "value": 0}, "group": "control_change"}, {"time": 2263, "annotation": {"number": 64, "value": 127}, "group": "control_change"}, {"time": 2309, "annotation": {"number": 64, "value": 127}, "group": "control_change"}, {"time": 2332, "annotation": {"number": 64, "value": 0}, "group": "control_change"}, {"time": 2338, "annotation": {"number": 64, "value": 127}, "group": "control_change"}, {"time": 2356, "annotation": {"number": 64, "value": 0}, "group": "control_change"}, {"time": 2359, "annotation": {"number": 64, "value": 127}, "group": "control_change"}, {"time": 2403, "annotation": {"number": 64, "value": 0}, "group": "control_change"}, {"time": 2407, "annotation": {"number": 64, "value": 127}, "group": "control_change"}, {"time": 2451, "annotation": {"number": 64, "value": 0}, "group": "control_change"}, {"time": 2454, "annotation": {"number": 64, "value": 127}, "group": "control_change"}, {"time": 2501, "annotation": {"number": 64, "value": 0}, "group": "control_change"}, {"time": 2504, "annotation": {"number": 64, "value": 127}, "group": "control_change"}, {"time": 2545, "annotation": {"number": 64, "value": 0}, "group": "control_change"}, {"time": 2547, "annotation": {"number": 64, "value": 127}, "group": "control_change"}, {"time": 2594, "annotation": {"number": 64, "value": 0}, "group": "control_change"}, {"time": 2596, "annotation": {"number": 64, "value": 127}, "group": "control_change"}, {"time": 2645, "annotation": {"number": 64, "value": 0}, "group": "control_change"}, {"time": 2648, "annotation": {"number": 64, "value": 127}, "group": "control_change"}, {"time": 2691, "annotation": {"number": 64, "value": 0}, "group": "control_change"}, {"time": 2698, "annotation": {"number": 64, "value": 127}, "group": "control_change"}, {"time": 2738, "annotation": {"number": 64, "value": 0}, "group": "control_change"}, {"time": 2740, "annotation": {"number": 64, "value": 127}, "group": "control_change"}, {"time": 2764, "annotation": {"number": 64, "value": 0}, "group": "control_change"}, {"time": 2767, "annotation": {"number": 64, "value": 127}, "group": "control_change"}, {"time": 2787, "annotation": {"number": 64, "value": 0}, "group": "control_change"}, {"time": 2790, "annotation": {"number": 64, "value": 127}, "group": "control_change"}, {"time": 2835, "annotation": {"number": 64, "value": 0}, "group": "control_change"}, {"time": 2841, "annotation": {"number": 64, "value": 127}, "group": "control_change"}, {"time": 2872, "annotation": {"number": 64, "value": 127}, "group": "control_change"}, {"time": 2880, "annotation": {"number": 64, "value": 0}, "group": "control_change"}, {"time": 2883, "annotation": {"number": 64, "value": 127}, "group": "control_change"}, {"time": 2896, "annotation": {"number": 64, "value": 0}, "group": "control_change"}, {"time": 2902, "annotation": {"number": 64, "value": 127}, "group": "control_change"}, {"time": 2931, "annotation": {"number": 64, "value": 0}, "group": "control_change"}, {"time": 2932, "annotation": {"number": 64, "value": 127}, "group": "control_change"}, {"time": 2977, "annotation": {"number": 64, "value": 0}, "group": "control_change"}, {"time": 2980, "annotation": {"number": 64, "value": 127}, "group": "control_change"}, {"time": 3029, "annotation": {"number": 64, "value": 0}, "group": "control_change"}, {"time": 3032, "annotation": {"number": 64, "value": 127}, "group": "control_change"}, {"time": 3075, "annotation": {"number": 64, "value": 0}, "group": "control_change"}, {"time": 3082, "annotation": {"number": 64, "value": 127}, "group": "control_change"}, {"time": 3122, "annotation": {"number": 64, "value": 0}, "group": "control_change"}, {"time": 3124, "annotation": {"number": 64, "value": 127}, "group": "control_change"}, {"time": 3148, "annotation": {"number": 64, "value": 0}, "group": "control_change"}, {"time": 3151, "annotation": {"number": 64, "value": 127}, "group": "control_change"}, {"time": 3171, "annotation": {"number": 64, "value": 0}, "group": "control_change"}, {"time": 3174, "annotation": {"number": 64, "value": 127}, "group": "control_change"}, {"time": 3219, "annotation": {"number": 64, "value": 0}, "group": "control_change"}, {"time": 3225, "annotation": {"number": 64, "value": 127}, "group": "control_change"}, {"time": 3256, "annotation": {"number": 64, "value": 127}, "group": "control_change"}, {"time": 3264, "annotation": {"number": 64, "value": 0}, "group": "control_change"}, {"time": 3267, "annotation": {"number": 64, "value": 127}, "group": "control_change"}, {"time": 3280, "annotation": {"number": 64, "value": 0}, "group": "control_change"}, {"time": 3286, "annotation": {"number": 64, "value": 127}, "group": "control_change"}, {"time": 3316, "annotation": {"number": 64, "value": 127}, "group": "control_change"}, {"time": 3362, "annotation": {"number": 64, "value": 0}, "group": "control_change"}, {"time": 3368, "annotation": {"number": 64, "value": 127}, "group": "control_change"}, {"time": 3387, "annotation": {"number": 64, "value": 0}, "group": "control_change"}, {"time": 3389, "annotation": {"number": 64, "value": 127}, "group": "control_change"}, {"time": 3411, "annotation": {"number": 64, "value": 0}, "group": "control_change"}, {"time": 3413, "annotation": {"number": 64, "value": 127}, "group": "control_change"}, {"time": 3458, "annotation": {"number": 64, "value": 0}, "group": "control_change"}, {"time": 3460, "annotation": {"number": 64, "value": 127}, "group": "control_change"}, {"time": 3506, "annotation": {"number": 64, "value": 0}, "group": "control_change"}, {"time": 3508, "annotation": {"number": 64, "value": 127}, "group": "control_change"}, {"time": 3530, "annotation": {"number": 64, "value": 0}, "group": "control_change"}, {"time": 3531, "annotation": {"number": 64, "value": 127}, "group": "control_change"}, {"time": 3556, "annotation": {"number": 64, "value": 0}, "group": "control_change"}, {"time": 3557, "annotation": {"number": 64, "value": 127}, "group": "control_change"}, {"time": 3579, "annotation": {"number": 64, "value": 0}, "group": "control_change"}, {"time": 3580, "annotation": {"number": 64, "value": 127}, "group": "control_change"}, {"time": 3601, "annotation": {"number": 64, "value": 0}, "group": "control_change"}, {"time": 3602, "annotation": {"number": 64, "value": 127}, "group": "control_change"}, {"time": 3627, "annotation": {"number": 64, "value": 0}, "group": "control_change"}, {"time": 3628, "annotation": {"number": 64, "value": 127}, "group": "control_change"}, {"time": 3650, "annotation": {"number": 64, "value": 0}, "group": "control_change"}, {"time": 3652, "annotation": {"number": 64, "value": 127}, "group": "control_change"}, {"time": 3674, "annotation": {"number": 64, "value": 0}, "group": "control_change"}, {"time": 3675, "annotation": {"number": 64, "value": 127}, "group": "control_change"}, {"time": 3700, "annotation": {"number": 64, "value": 127}, "group": "control_change"}, {"time": 3722, "annotation": {"number": 64, "value": 0}, "group": "control_change"}, {"time": 3726, "annotation": {"number": 64, "value": 127}, "group": "control_change"}, {"time": 3747, "annotation": {"number": 64, "value": 0}, "group": "control_change"}, {"time": 3747, "annotation": {"number": 64, "value": 127}, "group": "control_change"}]}]}