{"metadata": {"schema_version": "0.2", "title": "None", "source_filename": "410.mid", "source_format": "midi"}, "resolution": 12, "tempos": [{"time": 0, "qpm": 95.00014250021376}], "time_signatures": [{"time": 0, "numerator": 1, "denominator": 4}], "tracks": [{"program": 4, "is_drum": false, "name": "MELODY", "notes": [{"time": 464, "pitch": 69, "duration": 3, "velocity": 92}, {"time": 470, "pitch": 69, "duration": 4, "velocity": 93}, {"time": 476, "pitch": 71, "duration": 4, "velocity": 94}, {"time": 482, "pitch": 73, "duration": 4, "velocity": 93}, {"time": 488, "pitch": 73, "duration": 3, "velocity": 88}, {"time": 494, "pitch": 73, "duration": 3, "velocity": 87}, {"time": 500, "pitch": 73, "duration": 4, "velocity": 96}, {"time": 506, "pitch": 73, "duration": 4, "velocity": 95}, {"time": 512, "pitch": 71, "duration": 4, "velocity": 98}, {"time": 518, "pitch": 73, "duration": 4, "velocity": 96}, {"time": 524, "pitch": 76, "duration": 3, "velocity": 96}, {"time": 530, "pitch": 76, "duration": 8, "velocity": 94}, {"time": 542, "pitch": 76, "duration": 4, "velocity": 93}, {"time": 548, "pitch": 71, "duration": 8, "velocity": 96}, {"time": 560, "pitch": 76, "duration": 4, "velocity": 97}, {"time": 566, "pitch": 78, "duration": 4, "velocity": 94}, {"time": 572, "pitch": 80, "duration": 4, "velocity": 96}, {"time": 578, "pitch": 80, "duration": 4, "velocity": 96}, {"time": 584, "pitch": 81, "duration": 3, "velocity": 92}, {"time": 590, "pitch": 81, "duration": 3, "velocity": 94}, {"time": 596, "pitch": 81, "duration": 3, "velocity": 92}, {"time": 602, "pitch": 81, "duration": 4, "velocity": 96}, {"time": 608, "pitch": 73, "duration": 3, "velocity": 93}, {"time": 614, "pitch": 73, "duration": 4, "velocity": 94}, {"time": 620, "pitch": 81, "duration": 4, "velocity": 93}, {"time": 626, "pitch": 80, "duration": 6, "velocity": 94}, {"time": 638, "pitch": 78, "duration": 5, "velocity": 96}, {"time": 644, "pitch": 76, "duration": 7, "velocity": 97}, {"time": 656, "pitch": 76, "duration": 4, "velocity": 96}, {"time": 662, "pitch": 76, "duration": 3, "velocity": 101}, {"time": 668, "pitch": 76, "duration": 4, "velocity": 99}, {"time": 674, "pitch": 78, "duration": 10, "velocity": 94}, {"time": 686, "pitch": 81, "duration": 5, "velocity": 93}, {"time": 692, "pitch": 81, "duration": 7, "velocity": 94}, {"time": 704, "pitch": 69, "duration": 3, "velocity": 96}, {"time": 710, "pitch": 69, "duration": 4, "velocity": 94}, {"time": 716, "pitch": 78, "duration": 5, "velocity": 92}, {"time": 722, "pitch": 76, "duration": 9, "velocity": 94}, {"time": 734, "pitch": 78, "duration": 5, "velocity": 96}, {"time": 740, "pitch": 73, "duration": 8, "velocity": 93}, {"time": 752, "pitch": 69, "duration": 4, "velocity": 98}, {"time": 758, "pitch": 71, "duration": 4, "velocity": 94}, {"time": 764, "pitch": 73, "duration": 4, "velocity": 94}, {"time": 770, "pitch": 74, "duration": 3, "velocity": 93}, {"time": 776, "pitch": 74, "duration": 4, "velocity": 96}, {"time": 782, "pitch": 74, "duration": 4, "velocity": 103}, {"time": 788, "pitch": 73, "duration": 4, "velocity": 97}, {"time": 794, "pitch": 74, "duration": 5, "velocity": 98}, {"time": 800, "pitch": 81, "duration": 3, "velocity": 92}, {"time": 806, "pitch": 80, "duration": 4, "velocity": 97}, {"time": 812, "pitch": 81, "duration": 4, "velocity": 93}, {"time": 818, "pitch": 80, "duration": 9, "velocity": 98}, {"time": 830, "pitch": 78, "duration": 5, "velocity": 94}, {"time": 836, "pitch": 76, "duration": 8, "velocity": 99}, {"time": 848, "pitch": 69, "duration": 3, "velocity": 88}, {"time": 854, "pitch": 69, "duration": 3, "velocity": 95}, {"time": 860, "pitch": 71, "duration": 4, "velocity": 93}, {"time": 866, "pitch": 73, "duration": 4, "velocity": 94}, {"time": 872, "pitch": 73, "duration": 4, "velocity": 94}, {"time": 878, "pitch": 73, "duration": 3, "velocity": 93}, {"time": 884, "pitch": 73, "duration": 4, "velocity": 97}, {"time": 890, "pitch": 73, "duration": 4, "velocity": 97}, {"time": 896, "pitch": 71, "duration": 3, "velocity": 98}, {"time": 902, "pitch": 73, "duration": 4, "velocity": 96}, {"time": 908, "pitch": 76, "duration": 4, "velocity": 96}, {"time": 914, "pitch": 78, "duration": 8, "velocity": 94}, {"time": 926, "pitch": 76, "duration": 5, "velocity": 93}, {"time": 932, "pitch": 71, "duration": 8, "velocity": 96}, {"time": 944, "pitch": 76, "duration": 4, "velocity": 98}, {"time": 950, "pitch": 78, "duration": 4, "velocity": 98}, {"time": 956, "pitch": 80, "duration": 4, "velocity": 94}, {"time": 962, "pitch": 80, "duration": 3, "velocity": 98}, {"time": 968, "pitch": 81, "duration": 3, "velocity": 92}, {"time": 974, "pitch": 81, "duration": 3, "velocity": 96}, {"time": 980, "pitch": 81, "duration": 4, "velocity": 92}, {"time": 986, "pitch": 81, "duration": 4, "velocity": 94}, {"time": 992, "pitch": 73, "duration": 4, "velocity": 93}, {"time": 998, "pitch": 73, "duration": 4, "velocity": 98}, {"time": 1004, "pitch": 81, "duration": 4, "velocity": 93}, {"time": 1010, "pitch": 80, "duration": 8, "velocity": 99}, {"time": 1022, "pitch": 78, "duration": 4, "velocity": 92}, {"time": 1028, "pitch": 76, "duration": 6, "velocity": 94}, {"time": 1040, "pitch": 76, "duration": 3, "velocity": 98}, {"time": 1046, "pitch": 76, "duration": 3, "velocity": 99}, {"time": 1052, "pitch": 76, "duration": 4, "velocity": 97}, {"time": 1058, "pitch": 78, "duration": 9, "velocity": 94}, {"time": 1070, "pitch": 81, "duration": 4, "velocity": 93}, {"time": 1076, "pitch": 81, "duration": 6, "velocity": 93}, {"time": 1088, "pitch": 69, "duration": 4, "velocity": 92}, {"time": 1094, "pitch": 69, "duration": 4, "velocity": 94}, {"time": 1100, "pitch": 78, "duration": 5, "velocity": 96}, {"time": 1106, "pitch": 76, "duration": 9, "velocity": 94}, {"time": 1118, "pitch": 78, "duration": 4, "velocity": 98}, {"time": 1124, "pitch": 73, "duration": 8, "velocity": 95}, {"time": 1136, "pitch": 69, "duration": 5, "velocity": 86}, {"time": 1142, "pitch": 71, "duration": 4, "velocity": 93}, {"time": 1148, "pitch": 73, "duration": 4, "velocity": 94}, {"time": 1154, "pitch": 74, "duration": 3, "velocity": 97}, {"time": 1160, "pitch": 74, "duration": 4, "velocity": 95}, {"time": 1166, "pitch": 74, "duration": 4, "velocity": 98}, {"time": 1172, "pitch": 73, "duration": 4, "velocity": 92}, {"time": 1178, "pitch": 74, "duration": 3, "velocity": 99}, {"time": 1184, "pitch": 81, "duration": 4, "velocity": 94}, {"time": 1190, "pitch": 80, "duration": 4, "velocity": 99}, {"time": 1196, "pitch": 81, "duration": 4, "velocity": 96}, {"time": 1202, "pitch": 80, "duration": 7, "velocity": 98}, {"time": 1214, "pitch": 78, "duration": 4, "velocity": 95}, {"time": 1220, "pitch": 76, "duration": 33, "velocity": 96}, {"time": 1268, "pitch": 76, "duration": 3, "velocity": 94}, {"time": 1274, "pitch": 76, "duration": 4, "velocity": 99}, {"time": 1280, "pitch": 86, "duration": 4, "velocity": 99}, {"time": 1286, "pitch": 85, "duration": 5, "velocity": 97}, {"time": 1292, "pitch": 83, "duration": 4, "velocity": 92}, {"time": 1298, "pitch": 85, "duration": 15, "velocity": 99}, {"time": 1316, "pitch": 85, "duration": 6, "velocity": 103}, {"time": 1328, "pitch": 83, "duration": 4, "velocity": 93}, {"time": 1334, "pitch": 85, "duration": 4, "velocity": 98}, {"time": 1340, "pitch": 88, "duration": 3, "velocity": 96}, {"time": 1346, "pitch": 88, "duration": 9, "velocity": 94}, {"time": 1364, "pitch": 88, "duration": 4, "velocity": 97}, {"time": 1370, "pitch": 88, "duration": 4, "velocity": 98}, {"time": 1376, "pitch": 86, "duration": 4, "velocity": 93}, {"time": 1382, "pitch": 85, "duration": 4, "velocity": 93}, {"time": 1388, "pitch": 83, "duration": 4, "velocity": 98}, {"time": 1394, "pitch": 81, "duration": 9, "velocity": 96}, {"time": 1406, "pitch": 81, "duration": 4, "velocity": 87}, {"time": 1412, "pitch": 81, "duration": 4, "velocity": 94}, {"time": 1418, "pitch": 81, "duration": 4, "velocity": 92}, {"time": 1424, "pitch": 80, "duration": 4, "velocity": 99}, {"time": 1430, "pitch": 81, "duration": 4, "velocity": 93}, {"time": 1436, "pitch": 83, "duration": 5, "velocity": 92}, {"time": 1442, "pitch": 85, "duration": 10, "velocity": 97}, {"time": 1460, "pitch": 81, "duration": 5, "velocity": 93}, {"time": 1466, "pitch": 80, "duration": 4, "velocity": 96}, {"time": 1472, "pitch": 81, "duration": 3, "velocity": 92}, {"time": 1478, "pitch": 80, "duration": 4, "velocity": 99}, {"time": 1484, "pitch": 76, "duration": 4, "velocity": 99}, {"time": 1490, "pitch": 78, "duration": 14, "velocity": 92}, {"time": 1508, "pitch": 78, "duration": 5, "velocity": 95}, {"time": 1514, "pitch": 90, "duration": 5, "velocity": 96}, {"time": 1520, "pitch": 88, "duration": 3, "velocity": 98}, {"time": 1526, "pitch": 88, "duration": 4, "velocity": 98}, {"time": 1532, "pitch": 86, "duration": 8, "velocity": 99}, {"time": 1544, "pitch": 85, "duration": 12, "velocity": 87}, {"time": 1568, "pitch": 81, "duration": 4, "velocity": 92}, {"time": 1574, "pitch": 83, "duration": 4, "velocity": 94}, {"time": 1580, "pitch": 85, "duration": 4, "velocity": 99}, {"time": 1586, "pitch": 86, "duration": 3, "velocity": 95}, {"time": 1592, "pitch": 85, "duration": 4, "velocity": 96}, {"time": 1598, "pitch": 86, "duration": 3, "velocity": 96}, {"time": 1604, "pitch": 85, "duration": 4, "velocity": 98}, {"time": 1610, "pitch": 86, "duration": 5, "velocity": 96}, {"time": 1616, "pitch": 88, "duration": 3, "velocity": 95}, {"time": 1622, "pitch": 85, "duration": 4, "velocity": 97}, {"time": 1628, "pitch": 81, "duration": 4, "velocity": 93}, {"time": 1634, "pitch": 83, "duration": 14, "velocity": 94}, {"time": 1652, "pitch": 76, "duration": 4, "velocity": 99}, {"time": 1658, "pitch": 76, "duration": 4, "velocity": 98}, {"time": 1664, "pitch": 86, "duration": 4, "velocity": 97}, {"time": 1670, "pitch": 85, "duration": 4, "velocity": 98}, {"time": 1676, "pitch": 83, "duration": 4, "velocity": 93}, {"time": 1682, "pitch": 85, "duration": 13, "velocity": 99}, {"time": 1700, "pitch": 85, "duration": 10, "velocity": 101}, {"time": 1712, "pitch": 83, "duration": 4, "velocity": 96}, {"time": 1718, "pitch": 85, "duration": 4, "velocity": 94}, {"time": 1724, "pitch": 90, "duration": 9, "velocity": 99}, {"time": 1736, "pitch": 88, "duration": 9, "velocity": 97}, {"time": 1748, "pitch": 88, "duration": 4, "velocity": 99}, {"time": 1754, "pitch": 88, "duration": 4, "velocity": 96}, {"time": 1760, "pitch": 86, "duration": 3, "velocity": 92}, {"time": 1766, "pitch": 85, "duration": 5, "velocity": 99}, {"time": 1772, "pitch": 83, "duration": 4, "velocity": 96}, {"time": 1778, "pitch": 81, "duration": 11, "velocity": 94}, {"time": 1790, "pitch": 81, "duration": 4, "velocity": 92}, {"time": 1796, "pitch": 81, "duration": 4, "velocity": 94}, {"time": 1802, "pitch": 81, "duration": 6, "velocity": 96}, {"time": 1808, "pitch": 80, "duration": 4, "velocity": 99}, {"time": 1814, "pitch": 81, "duration": 3, "velocity": 88}, {"time": 1820, "pitch": 83, "duration": 5, "velocity": 92}, {"time": 1826, "pitch": 85, "duration": 12, "velocity": 96}, {"time": 1844, "pitch": 81, "duration": 5, "velocity": 93}, {"time": 1850, "pitch": 80, "duration": 4, "velocity": 98}, {"time": 1856, "pitch": 81, "duration": 3, "velocity": 94}, {"time": 1862, "pitch": 80, "duration": 4, "velocity": 96}, {"time": 1868, "pitch": 76, "duration": 4, "velocity": 98}, {"time": 1874, "pitch": 78, "duration": 14, "velocity": 93}, {"time": 1892, "pitch": 78, "duration": 4, "velocity": 103}, {"time": 1898, "pitch": 90, "duration": 5, "velocity": 109}, {"time": 1904, "pitch": 88, "duration": 4, "velocity": 93}, {"time": 1910, "pitch": 88, "duration": 4, "velocity": 101}, {"time": 1916, "pitch": 86, "duration": 9, "velocity": 93}, {"time": 1928, "pitch": 85, "duration": 18, "velocity": 101}, {"time": 1952, "pitch": 81, "duration": 5, "velocity": 92}, {"time": 1958, "pitch": 83, "duration": 4, "velocity": 93}, {"time": 1964, "pitch": 85, "duration": 4, "velocity": 99}, {"time": 1970, "pitch": 86, "duration": 4, "velocity": 91}, {"time": 1976, "pitch": 85, "duration": 4, "velocity": 94}, {"time": 1982, "pitch": 86, "duration": 4, "velocity": 93}, {"time": 1988, "pitch": 85, "duration": 4, "velocity": 93}, {"time": 1994, "pitch": 86, "duration": 5, "velocity": 86}, {"time": 2000, "pitch": 88, "duration": 3, "velocity": 96}, {"time": 2006, "pitch": 85, "duration": 5, "velocity": 94}, {"time": 2012, "pitch": 81, "duration": 4, "velocity": 93}, {"time": 2018, "pitch": 83, "duration": 12, "velocity": 93}, {"time": 2036, "pitch": 76, "duration": 4, "velocity": 93}, {"time": 2042, "pitch": 86, "duration": 8, "velocity": 94}, {"time": 2054, "pitch": 85, "duration": 5, "velocity": 96}, {"time": 2060, "pitch": 83, "duration": 10, "velocity": 92}, {"time": 2072, "pitch": 81, "duration": 49, "velocity": 84}, {"time": 2432, "pitch": 69, "duration": 3, "velocity": 92}, {"time": 2438, "pitch": 69, "duration": 4, "velocity": 93}, {"time": 2444, "pitch": 71, "duration": 4, "velocity": 94}, {"time": 2450, "pitch": 73, "duration": 4, "velocity": 93}, {"time": 2456, "pitch": 73, "duration": 3, "velocity": 88}, {"time": 2462, "pitch": 73, "duration": 3, "velocity": 87}, {"time": 2468, "pitch": 73, "duration": 4, "velocity": 96}, {"time": 2474, "pitch": 73, "duration": 4, "velocity": 95}, {"time": 2480, "pitch": 71, "duration": 4, "velocity": 98}, {"time": 2486, "pitch": 73, "duration": 4, "velocity": 96}, {"time": 2492, "pitch": 76, "duration": 3, "velocity": 96}, {"time": 2498, "pitch": 76, "duration": 8, "velocity": 94}, {"time": 2510, "pitch": 76, "duration": 4, "velocity": 93}, {"time": 2516, "pitch": 71, "duration": 8, "velocity": 96}, {"time": 2528, "pitch": 76, "duration": 4, "velocity": 97}, {"time": 2534, "pitch": 78, "duration": 4, "velocity": 94}, {"time": 2540, "pitch": 80, "duration": 4, "velocity": 96}, {"time": 2546, "pitch": 80, "duration": 4, "velocity": 96}, {"time": 2552, "pitch": 81, "duration": 3, "velocity": 92}, {"time": 2558, "pitch": 81, "duration": 3, "velocity": 94}, {"time": 2564, "pitch": 81, "duration": 3, "velocity": 92}, {"time": 2570, "pitch": 81, "duration": 4, "velocity": 96}, {"time": 2576, "pitch": 73, "duration": 3, "velocity": 93}, {"time": 2582, "pitch": 73, "duration": 4, "velocity": 94}, {"time": 2588, "pitch": 81, "duration": 4, "velocity": 93}, {"time": 2594, "pitch": 80, "duration": 6, "velocity": 94}, {"time": 2606, "pitch": 78, "duration": 5, "velocity": 96}, {"time": 2612, "pitch": 76, "duration": 7, "velocity": 97}, {"time": 2624, "pitch": 76, "duration": 4, "velocity": 96}, {"time": 2630, "pitch": 76, "duration": 3, "velocity": 101}, {"time": 2636, "pitch": 76, "duration": 4, "velocity": 99}, {"time": 2642, "pitch": 78, "duration": 10, "velocity": 94}, {"time": 2654, "pitch": 81, "duration": 5, "velocity": 93}, {"time": 2660, "pitch": 81, "duration": 7, "velocity": 94}, {"time": 2672, "pitch": 69, "duration": 3, "velocity": 96}, {"time": 2678, "pitch": 69, "duration": 4, "velocity": 94}, {"time": 2684, "pitch": 78, "duration": 5, "velocity": 92}, {"time": 2690, "pitch": 76, "duration": 9, "velocity": 94}, {"time": 2702, "pitch": 78, "duration": 5, "velocity": 96}, {"time": 2708, "pitch": 73, "duration": 8, "velocity": 93}, {"time": 2720, "pitch": 69, "duration": 4, "velocity": 98}, {"time": 2726, "pitch": 71, "duration": 4, "velocity": 94}, {"time": 2732, "pitch": 73, "duration": 4, "velocity": 94}, {"time": 2738, "pitch": 74, "duration": 3, "velocity": 93}, {"time": 2744, "pitch": 74, "duration": 4, "velocity": 96}, {"time": 2750, "pitch": 74, "duration": 4, "velocity": 103}, {"time": 2756, "pitch": 73, "duration": 4, "velocity": 97}, {"time": 2762, "pitch": 74, "duration": 5, "velocity": 98}, {"time": 2768, "pitch": 81, "duration": 3, "velocity": 92}, {"time": 2774, "pitch": 80, "duration": 4, "velocity": 97}, {"time": 2780, "pitch": 81, "duration": 4, "velocity": 93}, {"time": 2786, "pitch": 80, "duration": 9, "velocity": 98}, {"time": 2798, "pitch": 78, "duration": 5, "velocity": 94}, {"time": 2804, "pitch": 76, "duration": 8, "velocity": 99}, {"time": 2816, "pitch": 69, "duration": 3, "velocity": 88}, {"time": 2822, "pitch": 69, "duration": 3, "velocity": 95}, {"time": 2828, "pitch": 71, "duration": 4, "velocity": 93}, {"time": 2834, "pitch": 73, "duration": 4, "velocity": 94}, {"time": 2840, "pitch": 73, "duration": 4, "velocity": 94}, {"time": 2846, "pitch": 73, "duration": 3, "velocity": 93}, {"time": 2852, "pitch": 73, "duration": 4, "velocity": 97}, {"time": 2858, "pitch": 73, "duration": 4, "velocity": 97}, {"time": 2864, "pitch": 71, "duration": 3, "velocity": 98}, {"time": 2870, "pitch": 73, "duration": 4, "velocity": 96}, {"time": 2876, "pitch": 76, "duration": 4, "velocity": 96}, {"time": 2882, "pitch": 78, "duration": 8, "velocity": 94}, {"time": 2894, "pitch": 76, "duration": 5, "velocity": 93}, {"time": 2900, "pitch": 71, "duration": 8, "velocity": 96}, {"time": 2912, "pitch": 76, "duration": 4, "velocity": 98}, {"time": 2918, "pitch": 78, "duration": 4, "velocity": 98}, {"time": 2924, "pitch": 80, "duration": 4, "velocity": 94}, {"time": 2930, "pitch": 80, "duration": 3, "velocity": 98}, {"time": 2936, "pitch": 81, "duration": 3, "velocity": 92}, {"time": 2942, "pitch": 81, "duration": 3, "velocity": 96}, {"time": 2948, "pitch": 81, "duration": 4, "velocity": 92}, {"time": 2954, "pitch": 81, "duration": 4, "velocity": 94}, {"time": 2960, "pitch": 73, "duration": 4, "velocity": 93}, {"time": 2966, "pitch": 73, "duration": 4, "velocity": 98}, {"time": 2972, "pitch": 81, "duration": 4, "velocity": 93}, {"time": 2978, "pitch": 80, "duration": 8, "velocity": 99}, {"time": 2990, "pitch": 78, "duration": 4, "velocity": 92}, {"time": 2996, "pitch": 76, "duration": 6, "velocity": 94}, {"time": 3008, "pitch": 76, "duration": 3, "velocity": 98}, {"time": 3014, "pitch": 76, "duration": 3, "velocity": 99}, {"time": 3020, "pitch": 76, "duration": 4, "velocity": 97}, {"time": 3026, "pitch": 78, "duration": 9, "velocity": 94}, {"time": 3038, "pitch": 81, "duration": 4, "velocity": 93}, {"time": 3044, "pitch": 81, "duration": 6, "velocity": 93}, {"time": 3056, "pitch": 69, "duration": 4, "velocity": 92}, {"time": 3062, "pitch": 69, "duration": 4, "velocity": 94}, {"time": 3068, "pitch": 78, "duration": 5, "velocity": 96}, {"time": 3074, "pitch": 76, "duration": 9, "velocity": 94}, {"time": 3086, "pitch": 78, "duration": 4, "velocity": 98}, {"time": 3092, "pitch": 73, "duration": 8, "velocity": 95}, {"time": 3104, "pitch": 69, "duration": 5, "velocity": 86}, {"time": 3110, "pitch": 71, "duration": 4, "velocity": 93}, {"time": 3116, "pitch": 73, "duration": 4, "velocity": 94}, {"time": 3122, "pitch": 74, "duration": 3, "velocity": 97}, {"time": 3128, "pitch": 74, "duration": 4, "velocity": 95}, {"time": 3134, "pitch": 74, "duration": 4, "velocity": 98}, {"time": 3140, "pitch": 73, "duration": 4, "velocity": 92}, {"time": 3146, "pitch": 74, "duration": 3, "velocity": 99}, {"time": 3152, "pitch": 81, "duration": 4, "velocity": 94}, {"time": 3158, "pitch": 80, "duration": 4, "velocity": 99}, {"time": 3164, "pitch": 81, "duration": 4, "velocity": 96}, {"time": 3170, "pitch": 80, "duration": 7, "velocity": 98}, {"time": 3182, "pitch": 78, "duration": 4, "velocity": 95}, {"time": 3188, "pitch": 76, "duration": 33, "velocity": 96}, {"time": 3236, "pitch": 76, "duration": 3, "velocity": 94}, {"time": 3242, "pitch": 76, "duration": 4, "velocity": 99}, {"time": 3248, "pitch": 86, "duration": 4, "velocity": 99}, {"time": 3254, "pitch": 85, "duration": 5, "velocity": 97}, {"time": 3260, "pitch": 83, "duration": 4, "velocity": 92}, {"time": 3266, "pitch": 85, "duration": 15, "velocity": 99}, {"time": 3284, "pitch": 85, "duration": 6, "velocity": 103}, {"time": 3296, "pitch": 83, "duration": 4, "velocity": 93}, {"time": 3302, "pitch": 85, "duration": 4, "velocity": 98}, {"time": 3308, "pitch": 88, "duration": 3, "velocity": 96}, {"time": 3314, "pitch": 88, "duration": 9, "velocity": 94}, {"time": 3332, "pitch": 88, "duration": 4, "velocity": 97}, {"time": 3338, "pitch": 88, "duration": 4, "velocity": 98}, {"time": 3344, "pitch": 86, "duration": 4, "velocity": 93}, {"time": 3350, "pitch": 85, "duration": 4, "velocity": 93}, {"time": 3356, "pitch": 83, "duration": 4, "velocity": 98}, {"time": 3362, "pitch": 81, "duration": 9, "velocity": 96}, {"time": 3374, "pitch": 81, "duration": 4, "velocity": 87}, {"time": 3380, "pitch": 81, "duration": 4, "velocity": 94}, {"time": 3386, "pitch": 81, "duration": 4, "velocity": 92}, {"time": 3392, "pitch": 80, "duration": 4, "velocity": 99}, {"time": 3398, "pitch": 81, "duration": 4, "velocity": 93}, {"time": 3404, "pitch": 83, "duration": 5, "velocity": 92}, {"time": 3410, "pitch": 85, "duration": 10, "velocity": 97}, {"time": 3428, "pitch": 81, "duration": 5, "velocity": 93}, {"time": 3434, "pitch": 80, "duration": 4, "velocity": 96}, {"time": 3440, "pitch": 81, "duration": 3, "velocity": 92}, {"time": 3446, "pitch": 80, "duration": 4, "velocity": 99}, {"time": 3452, "pitch": 76, "duration": 4, "velocity": 99}, {"time": 3458, "pitch": 78, "duration": 14, "velocity": 92}, {"time": 3476, "pitch": 78, "duration": 5, "velocity": 95}, {"time": 3482, "pitch": 90, "duration": 5, "velocity": 96}, {"time": 3488, "pitch": 88, "duration": 3, "velocity": 98}, {"time": 3494, "pitch": 88, "duration": 4, "velocity": 98}, {"time": 3500, "pitch": 86, "duration": 8, "velocity": 99}, {"time": 3512, "pitch": 85, "duration": 12, "velocity": 87}, {"time": 3536, "pitch": 81, "duration": 4, "velocity": 92}, {"time": 3542, "pitch": 83, "duration": 4, "velocity": 94}, {"time": 3548, "pitch": 85, "duration": 4, "velocity": 99}, {"time": 3554, "pitch": 86, "duration": 3, "velocity": 95}, {"time": 3560, "pitch": 85, "duration": 4, "velocity": 96}, {"time": 3566, "pitch": 86, "duration": 3, "velocity": 96}, {"time": 3572, "pitch": 85, "duration": 4, "velocity": 98}, {"time": 3578, "pitch": 86, "duration": 5, "velocity": 96}, {"time": 3584, "pitch": 88, "duration": 3, "velocity": 95}, {"time": 3590, "pitch": 85, "duration": 4, "velocity": 97}, {"time": 3596, "pitch": 81, "duration": 4, "velocity": 93}, {"time": 3602, "pitch": 83, "duration": 14, "velocity": 94}, {"time": 3620, "pitch": 76, "duration": 4, "velocity": 99}, {"time": 3626, "pitch": 76, "duration": 4, "velocity": 98}, {"time": 3632, "pitch": 86, "duration": 4, "velocity": 97}, {"time": 3638, "pitch": 85, "duration": 4, "velocity": 98}, {"time": 3644, "pitch": 83, "duration": 4, "velocity": 93}, {"time": 3650, "pitch": 85, "duration": 13, "velocity": 99}, {"time": 3668, "pitch": 85, "duration": 10, "velocity": 101}, {"time": 3680, "pitch": 83, "duration": 4, "velocity": 96}, {"time": 3686, "pitch": 85, "duration": 4, "velocity": 94}, {"time": 3692, "pitch": 90, "duration": 9, "velocity": 99}, {"time": 3704, "pitch": 88, "duration": 9, "velocity": 97}, {"time": 3716, "pitch": 88, "duration": 4, "velocity": 99}, {"time": 3722, "pitch": 88, "duration": 4, "velocity": 96}, {"time": 3728, "pitch": 86, "duration": 3, "velocity": 92}, {"time": 3734, "pitch": 85, "duration": 5, "velocity": 99}, {"time": 3740, "pitch": 83, "duration": 4, "velocity": 96}, {"time": 3746, "pitch": 81, "duration": 11, "velocity": 94}, {"time": 3758, "pitch": 81, "duration": 4, "velocity": 92}, {"time": 3764, "pitch": 81, "duration": 4, "velocity": 94}, {"time": 3770, "pitch": 81, "duration": 6, "velocity": 96}, {"time": 3776, "pitch": 80, "duration": 4, "velocity": 99}, {"time": 3782, "pitch": 81, "duration": 3, "velocity": 88}, {"time": 3788, "pitch": 83, "duration": 5, "velocity": 92}, {"time": 3794, "pitch": 85, "duration": 12, "velocity": 96}, {"time": 3812, "pitch": 81, "duration": 5, "velocity": 93}, {"time": 3818, "pitch": 80, "duration": 4, "velocity": 98}, {"time": 3824, "pitch": 81, "duration": 3, "velocity": 94}, {"time": 3830, "pitch": 80, "duration": 4, "velocity": 96}, {"time": 3836, "pitch": 76, "duration": 4, "velocity": 98}, {"time": 3842, "pitch": 78, "duration": 14, "velocity": 93}, {"time": 3860, "pitch": 78, "duration": 4, "velocity": 103}, {"time": 3866, "pitch": 90, "duration": 5, "velocity": 109}, {"time": 3872, "pitch": 88, "duration": 4, "velocity": 93}, {"time": 3878, "pitch": 88, "duration": 4, "velocity": 101}, {"time": 3884, "pitch": 86, "duration": 9, "velocity": 93}, {"time": 3896, "pitch": 85, "duration": 18, "velocity": 101}, {"time": 3920, "pitch": 81, "duration": 5, "velocity": 92}, {"time": 3926, "pitch": 83, "duration": 4, "velocity": 93}, {"time": 3932, "pitch": 85, "duration": 4, "velocity": 99}, {"time": 3938, "pitch": 86, "duration": 4, "velocity": 91}, {"time": 3944, "pitch": 85, "duration": 4, "velocity": 94}, {"time": 3950, "pitch": 86, "duration": 4, "velocity": 93}, {"time": 3956, "pitch": 85, "duration": 4, "velocity": 93}, {"time": 3962, "pitch": 86, "duration": 5, "velocity": 86}, {"time": 3968, "pitch": 88, "duration": 3, "velocity": 96}, {"time": 3974, "pitch": 85, "duration": 5, "velocity": 94}, {"time": 3980, "pitch": 81, "duration": 4, "velocity": 93}, {"time": 3986, "pitch": 83, "duration": 12, "velocity": 93}, {"time": 4004, "pitch": 76, "duration": 3, "velocity": 94}, {"time": 4010, "pitch": 76, "duration": 4, "velocity": 99}, {"time": 4016, "pitch": 86, "duration": 4, "velocity": 99}, {"time": 4022, "pitch": 85, "duration": 5, "velocity": 97}, {"time": 4028, "pitch": 83, "duration": 4, "velocity": 92}, {"time": 4034, "pitch": 85, "duration": 15, "velocity": 99}, {"time": 4052, "pitch": 85, "duration": 6, "velocity": 103}, {"time": 4064, "pitch": 83, "duration": 4, "velocity": 93}, {"time": 4070, "pitch": 85, "duration": 4, "velocity": 98}, {"time": 4076, "pitch": 88, "duration": 3, "velocity": 96}, {"time": 4082, "pitch": 88, "duration": 9, "velocity": 94}, {"time": 4100, "pitch": 88, "duration": 4, "velocity": 97}, {"time": 4106, "pitch": 88, "duration": 4, "velocity": 98}, {"time": 4112, "pitch": 86, "duration": 4, "velocity": 93}, {"time": 4118, "pitch": 85, "duration": 4, "velocity": 93}, {"time": 4124, "pitch": 83, "duration": 4, "velocity": 98}, {"time": 4130, "pitch": 81, "duration": 9, "velocity": 96}, {"time": 4142, "pitch": 81, "duration": 4, "velocity": 87}, {"time": 4148, "pitch": 81, "duration": 4, "velocity": 94}, {"time": 4154, "pitch": 81, "duration": 4, "velocity": 92}, {"time": 4160, "pitch": 80, "duration": 4, "velocity": 99}, {"time": 4166, "pitch": 81, "duration": 4, "velocity": 93}, {"time": 4172, "pitch": 83, "duration": 5, "velocity": 92}, {"time": 4178, "pitch": 85, "duration": 10, "velocity": 97}, {"time": 4196, "pitch": 81, "duration": 5, "velocity": 93}, {"time": 4202, "pitch": 80, "duration": 4, "velocity": 96}, {"time": 4208, "pitch": 81, "duration": 3, "velocity": 92}, {"time": 4214, "pitch": 80, "duration": 4, "velocity": 99}, {"time": 4220, "pitch": 76, "duration": 4, "velocity": 99}, {"time": 4226, "pitch": 78, "duration": 14, "velocity": 92}, {"time": 4244, "pitch": 78, "duration": 5, "velocity": 95}, {"time": 4250, "pitch": 90, "duration": 5, "velocity": 96}, {"time": 4256, "pitch": 88, "duration": 3, "velocity": 98}, {"time": 4262, "pitch": 88, "duration": 4, "velocity": 98}, {"time": 4268, "pitch": 86, "duration": 8, "velocity": 99}, {"time": 4280, "pitch": 85, "duration": 12, "velocity": 87}, {"time": 4304, "pitch": 81, "duration": 4, "velocity": 92}, {"time": 4310, "pitch": 83, "duration": 4, "velocity": 94}, {"time": 4316, "pitch": 85, "duration": 4, "velocity": 99}, {"time": 4322, "pitch": 86, "duration": 3, "velocity": 95}, {"time": 4328, "pitch": 85, "duration": 4, "velocity": 96}, {"time": 4334, "pitch": 86, "duration": 3, "velocity": 96}, {"time": 4340, "pitch": 85, "duration": 4, "velocity": 98}, {"time": 4346, "pitch": 86, "duration": 5, "velocity": 96}, {"time": 4352, "pitch": 88, "duration": 3, "velocity": 95}, {"time": 4358, "pitch": 85, "duration": 4, "velocity": 97}, {"time": 4364, "pitch": 81, "duration": 4, "velocity": 93}, {"time": 4370, "pitch": 83, "duration": 14, "velocity": 94}, {"time": 4388, "pitch": 76, "duration": 4, "velocity": 99}, {"time": 4394, "pitch": 76, "duration": 4, "velocity": 98}, {"time": 4400, "pitch": 86, "duration": 4, "velocity": 97}, {"time": 4406, "pitch": 85, "duration": 4, "velocity": 98}, {"time": 4412, "pitch": 83, "duration": 4, "velocity": 93}, {"time": 4418, "pitch": 85, "duration": 13, "velocity": 99}, {"time": 4436, "pitch": 85, "duration": 10, "velocity": 101}, {"time": 4448, "pitch": 83, "duration": 4, "velocity": 96}, {"time": 4454, "pitch": 85, "duration": 4, "velocity": 94}, {"time": 4460, "pitch": 90, "duration": 9, "velocity": 99}, {"time": 4472, "pitch": 88, "duration": 9, "velocity": 97}, {"time": 4484, "pitch": 88, "duration": 4, "velocity": 99}, {"time": 4490, "pitch": 88, "duration": 4, "velocity": 96}, {"time": 4496, "pitch": 86, "duration": 3, "velocity": 92}, {"time": 4502, "pitch": 85, "duration": 5, "velocity": 99}, {"time": 4508, "pitch": 83, "duration": 4, "velocity": 96}, {"time": 4514, "pitch": 81, "duration": 11, "velocity": 94}, {"time": 4526, "pitch": 81, "duration": 4, "velocity": 92}, {"time": 4532, "pitch": 81, "duration": 4, "velocity": 94}, {"time": 4538, "pitch": 81, "duration": 6, "velocity": 96}, {"time": 4544, "pitch": 80, "duration": 4, "velocity": 99}, {"time": 4550, "pitch": 81, "duration": 3, "velocity": 88}, {"time": 4556, "pitch": 83, "duration": 5, "velocity": 92}, {"time": 4562, "pitch": 85, "duration": 12, "velocity": 96}, {"time": 4580, "pitch": 81, "duration": 5, "velocity": 93}, {"time": 4586, "pitch": 80, "duration": 4, "velocity": 98}, {"time": 4592, "pitch": 81, "duration": 3, "velocity": 94}, {"time": 4598, "pitch": 80, "duration": 4, "velocity": 96}, {"time": 4604, "pitch": 76, "duration": 4, "velocity": 98}, {"time": 4610, "pitch": 78, "duration": 14, "velocity": 93}, {"time": 4628, "pitch": 78, "duration": 4, "velocity": 103}, {"time": 4634, "pitch": 90, "duration": 5, "velocity": 109}, {"time": 4640, "pitch": 88, "duration": 4, "velocity": 93}, {"time": 4646, "pitch": 88, "duration": 4, "velocity": 101}, {"time": 4652, "pitch": 86, "duration": 9, "velocity": 93}, {"time": 4664, "pitch": 85, "duration": 18, "velocity": 101}, {"time": 4688, "pitch": 81, "duration": 5, "velocity": 92}, {"time": 4694, "pitch": 83, "duration": 4, "velocity": 93}, {"time": 4700, "pitch": 85, "duration": 4, "velocity": 99}, {"time": 4706, "pitch": 86, "duration": 4, "velocity": 91}, {"time": 4712, "pitch": 85, "duration": 4, "velocity": 94}, {"time": 4718, "pitch": 86, "duration": 4, "velocity": 93}, {"time": 4724, "pitch": 85, "duration": 4, "velocity": 93}, {"time": 4730, "pitch": 86, "duration": 5, "velocity": 86}, {"time": 4736, "pitch": 88, "duration": 3, "velocity": 96}, {"time": 4742, "pitch": 85, "duration": 5, "velocity": 94}, {"time": 4748, "pitch": 81, "duration": 4, "velocity": 93}, {"time": 4754, "pitch": 83, "duration": 12, "velocity": 93}, {"time": 4772, "pitch": 76, "duration": 4, "velocity": 93}, {"time": 4778, "pitch": 86, "duration": 8, "velocity": 94}, {"time": 4790, "pitch": 85, "duration": 5, "velocity": 96}, {"time": 4796, "pitch": 83, "duration": 10, "velocity": 92}, {"time": 4808, "pitch": 81, "duration": 49, "velocity": 84}]}, {"program": 0, "is_drum": false, "name": "PIANO", "notes": [{"time": 50, "pitch": 45, "duration": 28, "velocity": 93}, {"time": 50, "pitch": 64, "duration": 8, "velocity": 96}, {"time": 56, "pitch": 57, "duration": 4, "velocity": 80}, {"time": 62, "pitch": 52, "duration": 8, "velocity": 98}, {"time": 62, "pitch": 64, "duration": 1, "velocity": 57}, {"time": 68, "pitch": 64, "duration": 13, "velocity": 96}, {"time": 80, "pitch": 57, "duration": 7, "velocity": 94}, {"time": 86, "pitch": 52, "duration": 13, "velocity": 94}, {"time": 98, "pitch": 44, "duration": 37, "velocity": 87}, {"time": 98, "pitch": 64, "duration": 9, "velocity": 97}, {"time": 104, "pitch": 59, "duration": 8, "velocity": 85}, {"time": 110, "pitch": 52, "duration": 7, "velocity": 101}, {"time": 116, "pitch": 64, "duration": 13, "velocity": 95}, {"time": 128, "pitch": 59, "duration": 7, "velocity": 92}, {"time": 134, "pitch": 52, "duration": 14, "velocity": 98}, {"time": 146, "pitch": 42, "duration": 33, "velocity": 86}, {"time": 146, "pitch": 64, "duration": 13, "velocity": 93}, {"time": 152, "pitch": 57, "duration": 7, "velocity": 83}, {"time": 158, "pitch": 52, "duration": 19, "velocity": 94}, {"time": 164, "pitch": 64, "duration": 18, "velocity": 96}, {"time": 176, "pitch": 57, "duration": 7, "velocity": 90}, {"time": 182, "pitch": 52, "duration": 12, "velocity": 93}, {"time": 194, "pitch": 40, "duration": 38, "velocity": 97}, {"time": 194, "pitch": 64, "duration": 11, "velocity": 96}, {"time": 200, "pitch": 57, "duration": 7, "velocity": 87}, {"time": 206, "pitch": 52, "duration": 9, "velocity": 96}, {"time": 212, "pitch": 64, "duration": 14, "velocity": 98}, {"time": 224, "pitch": 57, "duration": 8, "velocity": 90}, {"time": 230, "pitch": 52, "duration": 14, "velocity": 94}, {"time": 242, "pitch": 38, "duration": 40, "velocity": 92}, {"time": 242, "pitch": 64, "duration": 13, "velocity": 95}, {"time": 248, "pitch": 57, "duration": 8, "velocity": 88}, {"time": 254, "pitch": 52, "duration": 19, "velocity": 103}, {"time": 260, "pitch": 64, "duration": 18, "velocity": 98}, {"time": 272, "pitch": 57, "duration": 8, "velocity": 88}, {"time": 278, "pitch": 52, "duration": 11, "velocity": 86}, {"time": 290, "pitch": 37, "duration": 36, "velocity": 80}, {"time": 290, "pitch": 64, "duration": 7, "velocity": 94}, {"time": 296, "pitch": 61, "duration": 8, "velocity": 84}, {"time": 302, "pitch": 57, "duration": 4, "velocity": 81}, {"time": 308, "pitch": 64, "duration": 9, "velocity": 101}, {"time": 320, "pitch": 61, "duration": 7, "velocity": 94}, {"time": 326, "pitch": 57, "duration": 7, "velocity": 92}, {"time": 338, "pitch": 47, "duration": 37, "velocity": 93}, {"time": 338, "pitch": 64, "duration": 8, "velocity": 94}, {"time": 344, "pitch": 62, "duration": 9, "velocity": 88}, {"time": 350, "pitch": 54, "duration": 10, "velocity": 72}, {"time": 356, "pitch": 57, "duration": 15, "velocity": 88}, {"time": 356, "pitch": 62, "duration": 19, "velocity": 93}, {"time": 368, "pitch": 54, "duration": 5, "velocity": 83}, {"time": 374, "pitch": 57, "duration": 7, "velocity": 93}, {"time": 380, "pitch": 62, "duration": 7, "velocity": 94}, {"time": 386, "pitch": 40, "duration": 46, "velocity": 96}, {"time": 386, "pitch": 64, "duration": 14, "velocity": 94}, {"time": 392, "pitch": 47, "duration": 38, "velocity": 81}, {"time": 398, "pitch": 52, "duration": 19, "velocity": 96}, {"time": 404, "pitch": 64, "duration": 18, "velocity": 99}, {"time": 416, "pitch": 59, "duration": 8, "velocity": 87}, {"time": 422, "pitch": 52, "duration": 58, "velocity": 95}, {"time": 428, "pitch": 59, "duration": 53, "velocity": 86}, {"time": 434, "pitch": 40, "duration": 30, "velocity": 93}, {"time": 434, "pitch": 64, "duration": 47, "velocity": 92}, {"time": 482, "pitch": 45, "duration": 33, "velocity": 93}, {"time": 482, "pitch": 64, "duration": 14, "velocity": 98}, {"time": 488, "pitch": 57, "duration": 8, "velocity": 86}, {"time": 494, "pitch": 52, "duration": 17, "velocity": 92}, {"time": 500, "pitch": 64, "duration": 14, "velocity": 101}, {"time": 512, "pitch": 57, "duration": 8, "velocity": 92}, {"time": 518, "pitch": 52, "duration": 14, "velocity": 93}, {"time": 530, "pitch": 44, "duration": 43, "velocity": 88}, {"time": 530, "pitch": 64, "duration": 13, "velocity": 98}, {"time": 536, "pitch": 59, "duration": 8, "velocity": 88}, {"time": 542, "pitch": 52, "duration": 20, "velocity": 95}, {"time": 548, "pitch": 64, "duration": 17, "velocity": 96}, {"time": 560, "pitch": 59, "duration": 14, "velocity": 88}, {"time": 566, "pitch": 52, "duration": 12, "velocity": 98}, {"time": 578, "pitch": 42, "duration": 45, "velocity": 87}, {"time": 578, "pitch": 64, "duration": 13, "velocity": 94}, {"time": 584, "pitch": 57, "duration": 13, "velocity": 87}, {"time": 590, "pitch": 54, "duration": 19, "velocity": 94}, {"time": 596, "pitch": 64, "duration": 21, "velocity": 97}, {"time": 608, "pitch": 57, "duration": 15, "velocity": 89}, {"time": 614, "pitch": 54, "duration": 10, "velocity": 94}, {"time": 626, "pitch": 40, "duration": 36, "velocity": 93}, {"time": 626, "pitch": 64, "duration": 12, "velocity": 94}, {"time": 632, "pitch": 56, "duration": 8, "velocity": 92}, {"time": 638, "pitch": 52, "duration": 19, "velocity": 97}, {"time": 644, "pitch": 64, "duration": 21, "velocity": 96}, {"time": 656, "pitch": 56, "duration": 7, "velocity": 97}, {"time": 662, "pitch": 52, "duration": 6, "velocity": 95}, {"time": 674, "pitch": 38, "duration": 33, "velocity": 95}, {"time": 674, "pitch": 61, "duration": 7, "velocity": 97}, {"time": 680, "pitch": 57, "duration": 8, "velocity": 93}, {"time": 686, "pitch": 45, "duration": 22, "velocity": 73}, {"time": 686, "pitch": 61, "duration": 4, "velocity": 93}, {"time": 692, "pitch": 66, "duration": 13, "velocity": 98}, {"time": 704, "pitch": 61, "duration": 6, "velocity": 101}, {"time": 710, "pitch": 57, "duration": 11, "velocity": 96}, {"time": 722, "pitch": 49, "duration": 9, "velocity": 95}, {"time": 722, "pitch": 64, "duration": 13, "velocity": 99}, {"time": 728, "pitch": 56, "duration": 12, "velocity": 83}, {"time": 734, "pitch": 61, "duration": 7, "velocity": 90}, {"time": 740, "pitch": 64, "duration": 19, "velocity": 101}, {"time": 746, "pitch": 42, "duration": 15, "velocity": 96}, {"time": 752, "pitch": 49, "duration": 9, "velocity": 86}, {"time": 758, "pitch": 61, "duration": 8, "velocity": 109}, {"time": 764, "pitch": 57, "duration": 6, "velocity": 92}, {"time": 770, "pitch": 47, "duration": 36, "velocity": 93}, {"time": 770, "pitch": 62, "duration": 13, "velocity": 93}, {"time": 776, "pitch": 54, "duration": 17, "velocity": 92}, {"time": 782, "pitch": 57, "duration": 4, "velocity": 93}, {"time": 788, "pitch": 57, "duration": 14, "velocity": 95}, {"time": 788, "pitch": 62, "duration": 19, "velocity": 94}, {"time": 800, "pitch": 54, "duration": 5, "velocity": 79}, {"time": 806, "pitch": 57, "duration": 8, "velocity": 92}, {"time": 812, "pitch": 62, "duration": 8, "velocity": 87}, {"time": 818, "pitch": 40, "duration": 37, "velocity": 93}, {"time": 818, "pitch": 64, "duration": 14, "velocity": 94}, {"time": 824, "pitch": 47, "duration": 20, "velocity": 86}, {"time": 830, "pitch": 52, "duration": 13, "velocity": 108}, {"time": 842, "pitch": 54, "duration": 10, "velocity": 103}, {"time": 848, "pitch": 47, "duration": 6, "velocity": 92}, {"time": 854, "pitch": 56, "duration": 7, "velocity": 108}, {"time": 866, "pitch": 45, "duration": 33, "velocity": 93}, {"time": 866, "pitch": 64, "duration": 14, "velocity": 98}, {"time": 872, "pitch": 57, "duration": 8, "velocity": 86}, {"time": 878, "pitch": 52, "duration": 17, "velocity": 92}, {"time": 884, "pitch": 64, "duration": 14, "velocity": 101}, {"time": 896, "pitch": 57, "duration": 8, "velocity": 92}, {"time": 902, "pitch": 52, "duration": 14, "velocity": 93}, {"time": 914, "pitch": 44, "duration": 43, "velocity": 88}, {"time": 914, "pitch": 64, "duration": 13, "velocity": 98}, {"time": 920, "pitch": 59, "duration": 8, "velocity": 88}, {"time": 926, "pitch": 52, "duration": 20, "velocity": 95}, {"time": 932, "pitch": 64, "duration": 17, "velocity": 96}, {"time": 944, "pitch": 59, "duration": 14, "velocity": 88}, {"time": 950, "pitch": 52, "duration": 12, "velocity": 98}, {"time": 962, "pitch": 42, "duration": 45, "velocity": 87}, {"time": 962, "pitch": 64, "duration": 13, "velocity": 94}, {"time": 968, "pitch": 57, "duration": 13, "velocity": 87}, {"time": 974, "pitch": 54, "duration": 19, "velocity": 94}, {"time": 980, "pitch": 64, "duration": 21, "velocity": 97}, {"time": 992, "pitch": 57, "duration": 15, "velocity": 89}, {"time": 998, "pitch": 54, "duration": 10, "velocity": 94}, {"time": 1010, "pitch": 40, "duration": 36, "velocity": 93}, {"time": 1010, "pitch": 64, "duration": 12, "velocity": 94}, {"time": 1016, "pitch": 56, "duration": 8, "velocity": 92}, {"time": 1022, "pitch": 52, "duration": 19, "velocity": 97}, {"time": 1028, "pitch": 64, "duration": 21, "velocity": 96}, {"time": 1040, "pitch": 56, "duration": 7, "velocity": 97}, {"time": 1046, "pitch": 52, "duration": 6, "velocity": 95}, {"time": 1058, "pitch": 38, "duration": 33, "velocity": 95}, {"time": 1058, "pitch": 61, "duration": 7, "velocity": 97}, {"time": 1064, "pitch": 57, "duration": 8, "velocity": 93}, {"time": 1070, "pitch": 45, "duration": 22, "velocity": 73}, {"time": 1070, "pitch": 61, "duration": 4, "velocity": 93}, {"time": 1076, "pitch": 66, "duration": 13, "velocity": 98}, {"time": 1088, "pitch": 61, "duration": 6, "velocity": 101}, {"time": 1094, "pitch": 57, "duration": 11, "velocity": 96}, {"time": 1106, "pitch": 49, "duration": 9, "velocity": 95}, {"time": 1106, "pitch": 64, "duration": 13, "velocity": 99}, {"time": 1112, "pitch": 56, "duration": 12, "velocity": 83}, {"time": 1118, "pitch": 61, "duration": 7, "velocity": 90}, {"time": 1124, "pitch": 64, "duration": 19, "velocity": 101}, {"time": 1130, "pitch": 42, "duration": 15, "velocity": 96}, {"time": 1136, "pitch": 49, "duration": 9, "velocity": 86}, {"time": 1142, "pitch": 61, "duration": 8, "velocity": 109}, {"time": 1148, "pitch": 57, "duration": 6, "velocity": 92}, {"time": 1154, "pitch": 47, "duration": 36, "velocity": 93}, {"time": 1154, "pitch": 62, "duration": 13, "velocity": 93}, {"time": 1160, "pitch": 54, "duration": 17, "velocity": 92}, {"time": 1166, "pitch": 57, "duration": 4, "velocity": 93}, {"time": 1172, "pitch": 57, "duration": 14, "velocity": 95}, {"time": 1172, "pitch": 62, "duration": 19, "velocity": 94}, {"time": 1184, "pitch": 54, "duration": 5, "velocity": 79}, {"time": 1190, "pitch": 57, "duration": 8, "velocity": 92}, {"time": 1196, "pitch": 62, "duration": 8, "velocity": 87}, {"time": 1202, "pitch": 40, "duration": 37, "velocity": 93}, {"time": 1202, "pitch": 64, "duration": 14, "velocity": 94}, {"time": 1208, "pitch": 47, "duration": 20, "velocity": 86}, {"time": 1214, "pitch": 52, "duration": 13, "velocity": 108}, {"time": 1226, "pitch": 54, "duration": 10, "velocity": 103}, {"time": 1232, "pitch": 47, "duration": 6, "velocity": 92}, {"time": 1238, "pitch": 56, "duration": 7, "velocity": 108}, {"time": 1250, "pitch": 40, "duration": 37, "velocity": 92}, {"time": 1250, "pitch": 41, "duration": 2, "velocity": 90}, {"time": 1250, "pitch": 64, "duration": 8, "velocity": 97}, {"time": 1250, "pitch": 68, "duration": 14, "velocity": 95}, {"time": 1256, "pitch": 47, "duration": 30, "velocity": 88}, {"time": 1262, "pitch": 64, "duration": 3, "velocity": 94}, {"time": 1268, "pitch": 64, "duration": 16, "velocity": 98}, {"time": 1268, "pitch": 68, "duration": 16, "velocity": 93}, {"time": 1268, "pitch": 76, "duration": 11, "velocity": 97}, {"time": 1286, "pitch": 64, "duration": 4, "velocity": 98}, {"time": 1286, "pitch": 68, "duration": 5, "velocity": 93}, {"time": 1298, "pitch": 45, "duration": 34, "velocity": 94}, {"time": 1298, "pitch": 64, "duration": 6, "velocity": 99}, {"time": 1298, "pitch": 69, "duration": 9, "velocity": 93}, {"time": 1304, "pitch": 52, "duration": 26, "velocity": 87}, {"time": 1310, "pitch": 64, "duration": 3, "velocity": 96}, {"time": 1316, "pitch": 64, "duration": 7, "velocity": 106}, {"time": 1316, "pitch": 71, "duration": 9, "velocity": 95}, {"time": 1328, "pitch": 64, "duration": 4, "velocity": 94}, {"time": 1328, "pitch": 69, "duration": 5, "velocity": 92}, {"time": 1346, "pitch": 40, "duration": 32, "velocity": 95}, {"time": 1346, "pitch": 64, "duration": 14, "velocity": 94}, {"time": 1346, "pitch": 68, "duration": 13, "velocity": 92}, {"time": 1352, "pitch": 47, "duration": 26, "velocity": 86}, {"time": 1358, "pitch": 71, "duration": 5, "velocity": 92}, {"time": 1364, "pitch": 64, "duration": 8, "velocity": 93}, {"time": 1364, "pitch": 76, "duration": 13, "velocity": 96}, {"time": 1376, "pitch": 64, "duration": 3, "velocity": 98}, {"time": 1376, "pitch": 68, "duration": 7, "velocity": 98}, {"time": 1376, "pitch": 71, "duration": 9, "velocity": 96}, {"time": 1382, "pitch": 64, "duration": 2, "velocity": 93}, {"time": 1394, "pitch": 42, "duration": 37, "velocity": 94}, {"time": 1394, "pitch": 66, "duration": 7, "velocity": 87}, {"time": 1394, "pitch": 69, "duration": 9, "velocity": 92}, {"time": 1400, "pitch": 49, "duration": 31, "velocity": 80}, {"time": 1406, "pitch": 61, "duration": 4, "velocity": 93}, {"time": 1412, "pitch": 61, "duration": 11, "velocity": 103}, {"time": 1412, "pitch": 66, "duration": 8, "velocity": 94}, {"time": 1424, "pitch": 61, "duration": 2, "velocity": 80}, {"time": 1424, "pitch": 66, "duration": 6, "velocity": 67}, {"time": 1424, "pitch": 69, "duration": 10, "velocity": 94}, {"time": 1430, "pitch": 61, "duration": 3, "velocity": 95}, {"time": 1442, "pitch": 40, "duration": 31, "velocity": 94}, {"time": 1442, "pitch": 64, "duration": 7, "velocity": 92}, {"time": 1442, "pitch": 68, "duration": 13, "velocity": 87}, {"time": 1448, "pitch": 47, "duration": 24, "velocity": 87}, {"time": 1454, "pitch": 64, "duration": 3, "velocity": 95}, {"time": 1460, "pitch": 64, "duration": 14, "velocity": 101}, {"time": 1460, "pitch": 71, "duration": 9, "velocity": 95}, {"time": 1472, "pitch": 68, "duration": 7, "velocity": 98}, {"time": 1478, "pitch": 64, "duration": 2, "velocity": 98}, {"time": 1490, "pitch": 50, "duration": 38, "velocity": 93}, {"time": 1490, "pitch": 62, "duration": 7, "velocity": 86}, {"time": 1490, "pitch": 69, "duration": 11, "velocity": 92}, {"time": 1496, "pitch": 57, "duration": 13, "velocity": 91}, {"time": 1502, "pitch": 62, "duration": 6, "velocity": 95}, {"time": 1508, "pitch": 64, "duration": 9, "velocity": 103}, {"time": 1514, "pitch": 57, "duration": 7, "velocity": 83}, {"time": 1520, "pitch": 62, "duration": 3, "velocity": 88}, {"time": 1520, "pitch": 69, "duration": 7, "velocity": 94}, {"time": 1526, "pitch": 57, "duration": 3, "velocity": 79}, {"time": 1538, "pitch": 49, "duration": 34, "velocity": 94}, {"time": 1538, "pitch": 61, "duration": 12, "velocity": 92}, {"time": 1538, "pitch": 68, "duration": 12, "velocity": 91}, {"time": 1544, "pitch": 56, "duration": 15, "velocity": 79}, {"time": 1550, "pitch": 64, "duration": 7, "velocity": 92}, {"time": 1556, "pitch": 61, "duration": 9, "velocity": 98}, {"time": 1562, "pitch": 56, "duration": 8, "velocity": 80}, {"time": 1568, "pitch": 61, "duration": 7, "velocity": 98}, {"time": 1568, "pitch": 68, "duration": 7, "velocity": 93}, {"time": 1574, "pitch": 56, "duration": 2, "velocity": 79}, {"time": 1586, "pitch": 47, "duration": 37, "velocity": 97}, {"time": 1586, "pitch": 57, "duration": 8, "velocity": 94}, {"time": 1586, "pitch": 62, "duration": 13, "velocity": 93}, {"time": 1592, "pitch": 54, "duration": 14, "velocity": 89}, {"time": 1598, "pitch": 57, "duration": 4, "velocity": 93}, {"time": 1604, "pitch": 57, "duration": 9, "velocity": 94}, {"time": 1604, "pitch": 66, "duration": 11, "velocity": 93}, {"time": 1610, "pitch": 54, "duration": 8, "velocity": 84}, {"time": 1616, "pitch": 57, "duration": 4, "velocity": 95}, {"time": 1616, "pitch": 62, "duration": 5, "velocity": 93}, {"time": 1622, "pitch": 54, "duration": 2, "velocity": 76}, {"time": 1634, "pitch": 40, "duration": 38, "velocity": 96}, {"time": 1634, "pitch": 64, "duration": 5, "velocity": 93}, {"time": 1634, "pitch": 68, "duration": 4, "velocity": 94}, {"time": 1634, "pitch": 76, "duration": 4, "velocity": 93}, {"time": 1640, "pitch": 47, "duration": 7, "velocity": 81}, {"time": 1646, "pitch": 52, "duration": 2, "velocity": 103}, {"time": 1646, "pitch": 64, "duration": 3, "velocity": 96}, {"time": 1652, "pitch": 47, "duration": 8, "velocity": 88}, {"time": 1658, "pitch": 54, "duration": 7, "velocity": 106}, {"time": 1658, "pitch": 66, "duration": 8, "velocity": 96}, {"time": 1664, "pitch": 47, "duration": 7, "velocity": 90}, {"time": 1670, "pitch": 56, "duration": 2, "velocity": 98}, {"time": 1670, "pitch": 68, "duration": 2, "velocity": 93}, {"time": 1682, "pitch": 45, "duration": 34, "velocity": 94}, {"time": 1682, "pitch": 64, "duration": 6, "velocity": 99}, {"time": 1682, "pitch": 69, "duration": 9, "velocity": 93}, {"time": 1688, "pitch": 52, "duration": 26, "velocity": 87}, {"time": 1694, "pitch": 64, "duration": 3, "velocity": 96}, {"time": 1700, "pitch": 64, "duration": 7, "velocity": 106}, {"time": 1700, "pitch": 71, "duration": 9, "velocity": 95}, {"time": 1712, "pitch": 64, "duration": 4, "velocity": 94}, {"time": 1712, "pitch": 69, "duration": 5, "velocity": 92}, {"time": 1730, "pitch": 40, "duration": 32, "velocity": 95}, {"time": 1730, "pitch": 64, "duration": 14, "velocity": 94}, {"time": 1730, "pitch": 68, "duration": 13, "velocity": 92}, {"time": 1736, "pitch": 47, "duration": 26, "velocity": 86}, {"time": 1742, "pitch": 71, "duration": 5, "velocity": 92}, {"time": 1748, "pitch": 64, "duration": 8, "velocity": 93}, {"time": 1748, "pitch": 76, "duration": 13, "velocity": 96}, {"time": 1760, "pitch": 64, "duration": 3, "velocity": 98}, {"time": 1760, "pitch": 68, "duration": 7, "velocity": 98}, {"time": 1760, "pitch": 71, "duration": 9, "velocity": 96}, {"time": 1766, "pitch": 64, "duration": 2, "velocity": 93}, {"time": 1778, "pitch": 42, "duration": 37, "velocity": 94}, {"time": 1778, "pitch": 66, "duration": 7, "velocity": 87}, {"time": 1778, "pitch": 69, "duration": 9, "velocity": 92}, {"time": 1784, "pitch": 49, "duration": 31, "velocity": 80}, {"time": 1790, "pitch": 61, "duration": 4, "velocity": 93}, {"time": 1796, "pitch": 61, "duration": 11, "velocity": 103}, {"time": 1796, "pitch": 66, "duration": 8, "velocity": 94}, {"time": 1808, "pitch": 61, "duration": 2, "velocity": 80}, {"time": 1808, "pitch": 66, "duration": 6, "velocity": 67}, {"time": 1808, "pitch": 69, "duration": 10, "velocity": 94}, {"time": 1814, "pitch": 61, "duration": 3, "velocity": 95}, {"time": 1826, "pitch": 40, "duration": 31, "velocity": 94}, {"time": 1826, "pitch": 64, "duration": 7, "velocity": 92}, {"time": 1826, "pitch": 68, "duration": 13, "velocity": 87}, {"time": 1832, "pitch": 47, "duration": 24, "velocity": 87}, {"time": 1838, "pitch": 64, "duration": 3, "velocity": 95}, {"time": 1844, "pitch": 64, "duration": 14, "velocity": 101}, {"time": 1844, "pitch": 71, "duration": 9, "velocity": 95}, {"time": 1856, "pitch": 68, "duration": 7, "velocity": 98}, {"time": 1862, "pitch": 64, "duration": 2, "velocity": 98}, {"time": 1874, "pitch": 50, "duration": 38, "velocity": 93}, {"time": 1874, "pitch": 62, "duration": 7, "velocity": 86}, {"time": 1874, "pitch": 69, "duration": 11, "velocity": 92}, {"time": 1880, "pitch": 57, "duration": 13, "velocity": 91}, {"time": 1886, "pitch": 62, "duration": 6, "velocity": 95}, {"time": 1892, "pitch": 64, "duration": 9, "velocity": 103}, {"time": 1898, "pitch": 57, "duration": 7, "velocity": 83}, {"time": 1904, "pitch": 62, "duration": 3, "velocity": 88}, {"time": 1904, "pitch": 69, "duration": 7, "velocity": 94}, {"time": 1910, "pitch": 57, "duration": 3, "velocity": 79}, {"time": 1922, "pitch": 49, "duration": 34, "velocity": 94}, {"time": 1922, "pitch": 61, "duration": 12, "velocity": 92}, {"time": 1922, "pitch": 68, "duration": 12, "velocity": 91}, {"time": 1928, "pitch": 56, "duration": 15, "velocity": 79}, {"time": 1934, "pitch": 64, "duration": 7, "velocity": 92}, {"time": 1940, "pitch": 61, "duration": 9, "velocity": 98}, {"time": 1946, "pitch": 56, "duration": 8, "velocity": 80}, {"time": 1952, "pitch": 61, "duration": 7, "velocity": 98}, {"time": 1952, "pitch": 68, "duration": 7, "velocity": 93}, {"time": 1958, "pitch": 56, "duration": 2, "velocity": 79}, {"time": 1970, "pitch": 47, "duration": 37, "velocity": 97}, {"time": 1970, "pitch": 57, "duration": 8, "velocity": 94}, {"time": 1970, "pitch": 62, "duration": 13, "velocity": 93}, {"time": 1976, "pitch": 54, "duration": 14, "velocity": 89}, {"time": 1982, "pitch": 57, "duration": 4, "velocity": 93}, {"time": 1988, "pitch": 57, "duration": 9, "velocity": 94}, {"time": 1988, "pitch": 66, "duration": 11, "velocity": 93}, {"time": 1994, "pitch": 54, "duration": 8, "velocity": 84}, {"time": 2000, "pitch": 57, "duration": 4, "velocity": 95}, {"time": 2000, "pitch": 62, "duration": 5, "velocity": 93}, {"time": 2006, "pitch": 54, "duration": 2, "velocity": 76}, {"time": 2018, "pitch": 40, "duration": 38, "velocity": 96}, {"time": 2018, "pitch": 64, "duration": 5, "velocity": 93}, {"time": 2018, "pitch": 68, "duration": 4, "velocity": 94}, {"time": 2018, "pitch": 76, "duration": 4, "velocity": 93}, {"time": 2024, "pitch": 47, "duration": 7, "velocity": 81}, {"time": 2030, "pitch": 52, "duration": 2, "velocity": 103}, {"time": 2030, "pitch": 64, "duration": 3, "velocity": 96}, {"time": 2036, "pitch": 47, "duration": 8, "velocity": 88}, {"time": 2042, "pitch": 54, "duration": 7, "velocity": 106}, {"time": 2042, "pitch": 66, "duration": 8, "velocity": 96}, {"time": 2048, "pitch": 47, "duration": 7, "velocity": 90}, {"time": 2054, "pitch": 56, "duration": 2, "velocity": 98}, {"time": 2054, "pitch": 68, "duration": 2, "velocity": 93}, {"time": 2063, "pitch": 62, "duration": 4, "velocity": 86}, {"time": 2065, "pitch": 69, "duration": 3, "velocity": 84}, {"time": 2066, "pitch": 38, "duration": 2, "velocity": 95}, {"time": 2066, "pitch": 74, "duration": 13, "velocity": 98}, {"time": 2072, "pitch": 50, "duration": 38, "velocity": 92}, {"time": 2078, "pitch": 57, "duration": 20, "velocity": 93}, {"time": 2083, "pitch": 62, "duration": 14, "velocity": 93}, {"time": 2095, "pitch": 69, "duration": 11, "velocity": 86}, {"time": 2111, "pitch": 62, "duration": 5, "velocity": 82}, {"time": 2112, "pitch": 69, "duration": 15, "velocity": 84}, {"time": 2114, "pitch": 74, "duration": 14, "velocity": 95}, {"time": 2114, "pitch": 50, "duration": 32, "velocity": 96}, {"time": 2119, "pitch": 57, "duration": 25, "velocity": 83}, {"time": 2125, "pitch": 62, "duration": 18, "velocity": 89}, {"time": 2131, "pitch": 74, "duration": 5, "velocity": 99}, {"time": 2143, "pitch": 69, "duration": 6, "velocity": 88}, {"time": 2149, "pitch": 62, "duration": 2, "velocity": 81}, {"time": 2159, "pitch": 57, "duration": 5, "velocity": 80}, {"time": 2162, "pitch": 64, "duration": 6, "velocity": 91}, {"time": 2162, "pitch": 45, "duration": 45, "velocity": 92}, {"time": 2168, "pitch": 52, "duration": 26, "velocity": 90}, {"time": 2174, "pitch": 59, "duration": 6, "velocity": 92}, {"time": 2180, "pitch": 61, "duration": 9, "velocity": 103}, {"time": 2192, "pitch": 64, "duration": 4, "velocity": 93}, {"time": 2192, "pitch": 57, "duration": 4, "velocity": 85}, {"time": 2205, "pitch": 69, "duration": 17, "velocity": 87}, {"time": 2206, "pitch": 64, "duration": 16, "velocity": 91}, {"time": 2207, "pitch": 61, "duration": 15, "velocity": 73}, {"time": 2209, "pitch": 57, "duration": 11, "velocity": 84}, {"time": 2210, "pitch": 45, "duration": 40, "velocity": 92}, {"time": 2222, "pitch": 52, "duration": 7, "velocity": 78}, {"time": 2228, "pitch": 59, "duration": 11, "velocity": 92}, {"time": 2240, "pitch": 61, "duration": 10, "velocity": 93}, {"time": 2240, "pitch": 57, "duration": 7, "velocity": 92}, {"time": 2245, "pitch": 52, "duration": 5, "velocity": 86}, {"time": 2251, "pitch": 57, "duration": 1, "velocity": 87}, {"time": 2258, "pitch": 62, "duration": 7, "velocity": 81}, {"time": 2258, "pitch": 50, "duration": 45, "velocity": 95}, {"time": 2259, "pitch": 65, "duration": 12, "velocity": 85}, {"time": 2264, "pitch": 57, "duration": 40, "velocity": 86}, {"time": 2269, "pitch": 69, "duration": 5, "velocity": 85}, {"time": 2276, "pitch": 74, "duration": 5, "velocity": 99}, {"time": 2276, "pitch": 62, "duration": 6, "velocity": 89}, {"time": 2302, "pitch": 69, "duration": 14, "velocity": 83}, {"time": 2303, "pitch": 65, "duration": 15, "velocity": 77}, {"time": 2306, "pitch": 62, "duration": 6, "velocity": 82}, {"time": 2306, "pitch": 50, "duration": 37, "velocity": 95}, {"time": 2311, "pitch": 57, "duration": 18, "velocity": 84}, {"time": 2317, "pitch": 62, "duration": 3, "velocity": 84}, {"time": 2323, "pitch": 65, "duration": 20, "velocity": 94}, {"time": 2323, "pitch": 62, "duration": 20, "velocity": 94}, {"time": 2341, "pitch": 57, "duration": 2, "velocity": 83}, {"time": 2353, "pitch": 40, "duration": 43, "velocity": 93}, {"time": 2359, "pitch": 47, "duration": 35, "velocity": 92}, {"time": 2365, "pitch": 52, "duration": 4, "velocity": 92}, {"time": 2370, "pitch": 57, "duration": 3, "velocity": 93}, {"time": 2377, "pitch": 59, "duration": 7, "velocity": 91}, {"time": 2383, "pitch": 62, "duration": 4, "velocity": 93}, {"time": 2389, "pitch": 64, "duration": 4, "velocity": 99}, {"time": 2400, "pitch": 64, "duration": 9, "velocity": 85}, {"time": 2401, "pitch": 68, "duration": 9, "velocity": 75}, {"time": 2402, "pitch": 71, "duration": 13, "velocity": 82}, {"time": 2402, "pitch": 40, "duration": 38, "velocity": 95}, {"time": 2408, "pitch": 47, "duration": 31, "velocity": 80}, {"time": 2413, "pitch": 64, "duration": 8, "velocity": 83}, {"time": 2419, "pitch": 68, "duration": 28, "velocity": 82}, {"time": 2419, "pitch": 76, "duration": 29, "velocity": 96}, {"time": 2450, "pitch": 45, "duration": 33, "velocity": 93}, {"time": 2450, "pitch": 64, "duration": 14, "velocity": 98}, {"time": 2456, "pitch": 57, "duration": 8, "velocity": 86}, {"time": 2462, "pitch": 52, "duration": 17, "velocity": 92}, {"time": 2468, "pitch": 64, "duration": 14, "velocity": 101}, {"time": 2480, "pitch": 57, "duration": 8, "velocity": 92}, {"time": 2486, "pitch": 52, "duration": 14, "velocity": 93}, {"time": 2498, "pitch": 44, "duration": 43, "velocity": 88}, {"time": 2498, "pitch": 64, "duration": 13, "velocity": 98}, {"time": 2504, "pitch": 59, "duration": 8, "velocity": 88}, {"time": 2510, "pitch": 52, "duration": 20, "velocity": 95}, {"time": 2516, "pitch": 64, "duration": 17, "velocity": 96}, {"time": 2528, "pitch": 59, "duration": 14, "velocity": 88}, {"time": 2534, "pitch": 52, "duration": 12, "velocity": 98}, {"time": 2546, "pitch": 42, "duration": 45, "velocity": 87}, {"time": 2546, "pitch": 64, "duration": 13, "velocity": 94}, {"time": 2552, "pitch": 57, "duration": 13, "velocity": 87}, {"time": 2558, "pitch": 54, "duration": 19, "velocity": 94}, {"time": 2564, "pitch": 64, "duration": 21, "velocity": 97}, {"time": 2576, "pitch": 57, "duration": 15, "velocity": 89}, {"time": 2582, "pitch": 54, "duration": 10, "velocity": 94}, {"time": 2594, "pitch": 40, "duration": 36, "velocity": 93}, {"time": 2594, "pitch": 64, "duration": 12, "velocity": 94}, {"time": 2600, "pitch": 56, "duration": 8, "velocity": 92}, {"time": 2606, "pitch": 52, "duration": 19, "velocity": 97}, {"time": 2612, "pitch": 64, "duration": 21, "velocity": 96}, {"time": 2624, "pitch": 56, "duration": 7, "velocity": 97}, {"time": 2630, "pitch": 52, "duration": 6, "velocity": 95}, {"time": 2642, "pitch": 38, "duration": 33, "velocity": 95}, {"time": 2642, "pitch": 61, "duration": 7, "velocity": 97}, {"time": 2648, "pitch": 57, "duration": 8, "velocity": 93}, {"time": 2654, "pitch": 45, "duration": 22, "velocity": 73}, {"time": 2654, "pitch": 61, "duration": 4, "velocity": 93}, {"time": 2660, "pitch": 66, "duration": 13, "velocity": 98}, {"time": 2672, "pitch": 61, "duration": 6, "velocity": 101}, {"time": 2678, "pitch": 57, "duration": 11, "velocity": 96}, {"time": 2690, "pitch": 49, "duration": 9, "velocity": 95}, {"time": 2690, "pitch": 64, "duration": 13, "velocity": 99}, {"time": 2696, "pitch": 56, "duration": 12, "velocity": 83}, {"time": 2702, "pitch": 61, "duration": 7, "velocity": 90}, {"time": 2708, "pitch": 64, "duration": 19, "velocity": 101}, {"time": 2714, "pitch": 42, "duration": 15, "velocity": 96}, {"time": 2720, "pitch": 49, "duration": 9, "velocity": 86}, {"time": 2726, "pitch": 61, "duration": 8, "velocity": 109}, {"time": 2732, "pitch": 57, "duration": 6, "velocity": 92}, {"time": 2738, "pitch": 47, "duration": 36, "velocity": 93}, {"time": 2738, "pitch": 62, "duration": 13, "velocity": 93}, {"time": 2744, "pitch": 54, "duration": 17, "velocity": 92}, {"time": 2750, "pitch": 57, "duration": 4, "velocity": 93}, {"time": 2756, "pitch": 57, "duration": 14, "velocity": 95}, {"time": 2756, "pitch": 62, "duration": 19, "velocity": 94}, {"time": 2768, "pitch": 54, "duration": 5, "velocity": 79}, {"time": 2774, "pitch": 57, "duration": 8, "velocity": 92}, {"time": 2780, "pitch": 62, "duration": 8, "velocity": 87}, {"time": 2786, "pitch": 40, "duration": 37, "velocity": 93}, {"time": 2786, "pitch": 64, "duration": 14, "velocity": 94}, {"time": 2792, "pitch": 47, "duration": 20, "velocity": 86}, {"time": 2798, "pitch": 52, "duration": 13, "velocity": 108}, {"time": 2810, "pitch": 54, "duration": 10, "velocity": 103}, {"time": 2816, "pitch": 47, "duration": 6, "velocity": 92}, {"time": 2822, "pitch": 56, "duration": 7, "velocity": 108}, {"time": 2834, "pitch": 45, "duration": 33, "velocity": 93}, {"time": 2834, "pitch": 64, "duration": 14, "velocity": 98}, {"time": 2840, "pitch": 57, "duration": 8, "velocity": 86}, {"time": 2846, "pitch": 52, "duration": 17, "velocity": 92}, {"time": 2852, "pitch": 64, "duration": 14, "velocity": 101}, {"time": 2864, "pitch": 57, "duration": 8, "velocity": 92}, {"time": 2870, "pitch": 52, "duration": 14, "velocity": 93}, {"time": 2882, "pitch": 44, "duration": 43, "velocity": 88}, {"time": 2882, "pitch": 64, "duration": 13, "velocity": 98}, {"time": 2888, "pitch": 59, "duration": 8, "velocity": 88}, {"time": 2894, "pitch": 52, "duration": 20, "velocity": 95}, {"time": 2900, "pitch": 64, "duration": 17, "velocity": 96}, {"time": 2912, "pitch": 59, "duration": 14, "velocity": 88}, {"time": 2918, "pitch": 52, "duration": 12, "velocity": 98}, {"time": 2930, "pitch": 42, "duration": 45, "velocity": 87}, {"time": 2930, "pitch": 64, "duration": 13, "velocity": 94}, {"time": 2936, "pitch": 57, "duration": 13, "velocity": 87}, {"time": 2942, "pitch": 54, "duration": 19, "velocity": 94}, {"time": 2948, "pitch": 64, "duration": 21, "velocity": 97}, {"time": 2960, "pitch": 57, "duration": 15, "velocity": 89}, {"time": 2966, "pitch": 54, "duration": 10, "velocity": 94}, {"time": 2978, "pitch": 40, "duration": 36, "velocity": 93}, {"time": 2978, "pitch": 64, "duration": 12, "velocity": 94}, {"time": 2984, "pitch": 56, "duration": 8, "velocity": 92}, {"time": 2990, "pitch": 52, "duration": 19, "velocity": 97}, {"time": 2996, "pitch": 64, "duration": 21, "velocity": 96}, {"time": 3008, "pitch": 56, "duration": 7, "velocity": 97}, {"time": 3014, "pitch": 52, "duration": 6, "velocity": 95}, {"time": 3026, "pitch": 38, "duration": 33, "velocity": 95}, {"time": 3026, "pitch": 61, "duration": 7, "velocity": 97}, {"time": 3032, "pitch": 57, "duration": 8, "velocity": 93}, {"time": 3038, "pitch": 45, "duration": 22, "velocity": 73}, {"time": 3038, "pitch": 61, "duration": 4, "velocity": 93}, {"time": 3044, "pitch": 66, "duration": 13, "velocity": 98}, {"time": 3056, "pitch": 61, "duration": 6, "velocity": 101}, {"time": 3062, "pitch": 57, "duration": 11, "velocity": 96}, {"time": 3074, "pitch": 49, "duration": 9, "velocity": 95}, {"time": 3074, "pitch": 64, "duration": 13, "velocity": 99}, {"time": 3080, "pitch": 56, "duration": 12, "velocity": 83}, {"time": 3086, "pitch": 61, "duration": 7, "velocity": 90}, {"time": 3092, "pitch": 64, "duration": 19, "velocity": 101}, {"time": 3098, "pitch": 42, "duration": 15, "velocity": 96}, {"time": 3104, "pitch": 49, "duration": 9, "velocity": 86}, {"time": 3110, "pitch": 61, "duration": 8, "velocity": 109}, {"time": 3116, "pitch": 57, "duration": 6, "velocity": 92}, {"time": 3122, "pitch": 47, "duration": 36, "velocity": 93}, {"time": 3122, "pitch": 62, "duration": 13, "velocity": 93}, {"time": 3128, "pitch": 54, "duration": 17, "velocity": 92}, {"time": 3134, "pitch": 57, "duration": 4, "velocity": 93}, {"time": 3140, "pitch": 57, "duration": 14, "velocity": 95}, {"time": 3140, "pitch": 62, "duration": 19, "velocity": 94}, {"time": 3152, "pitch": 54, "duration": 5, "velocity": 79}, {"time": 3158, "pitch": 57, "duration": 8, "velocity": 92}, {"time": 3164, "pitch": 62, "duration": 8, "velocity": 87}, {"time": 3170, "pitch": 40, "duration": 37, "velocity": 93}, {"time": 3170, "pitch": 64, "duration": 14, "velocity": 94}, {"time": 3176, "pitch": 47, "duration": 20, "velocity": 86}, {"time": 3182, "pitch": 52, "duration": 13, "velocity": 108}, {"time": 3194, "pitch": 54, "duration": 10, "velocity": 103}, {"time": 3200, "pitch": 47, "duration": 6, "velocity": 92}, {"time": 3206, "pitch": 56, "duration": 7, "velocity": 108}, {"time": 3218, "pitch": 40, "duration": 37, "velocity": 92}, {"time": 3218, "pitch": 41, "duration": 2, "velocity": 90}, {"time": 3218, "pitch": 64, "duration": 8, "velocity": 97}, {"time": 3218, "pitch": 68, "duration": 14, "velocity": 95}, {"time": 3224, "pitch": 47, "duration": 30, "velocity": 88}, {"time": 3230, "pitch": 64, "duration": 3, "velocity": 94}, {"time": 3236, "pitch": 64, "duration": 16, "velocity": 98}, {"time": 3236, "pitch": 68, "duration": 16, "velocity": 93}, {"time": 3236, "pitch": 76, "duration": 11, "velocity": 97}, {"time": 3254, "pitch": 64, "duration": 4, "velocity": 98}, {"time": 3254, "pitch": 68, "duration": 5, "velocity": 93}, {"time": 3266, "pitch": 45, "duration": 34, "velocity": 94}, {"time": 3266, "pitch": 64, "duration": 6, "velocity": 99}, {"time": 3266, "pitch": 69, "duration": 9, "velocity": 93}, {"time": 3272, "pitch": 52, "duration": 26, "velocity": 87}, {"time": 3278, "pitch": 64, "duration": 3, "velocity": 96}, {"time": 3284, "pitch": 64, "duration": 7, "velocity": 106}, {"time": 3284, "pitch": 71, "duration": 9, "velocity": 95}, {"time": 3296, "pitch": 64, "duration": 4, "velocity": 94}, {"time": 3296, "pitch": 69, "duration": 5, "velocity": 92}, {"time": 3314, "pitch": 40, "duration": 32, "velocity": 95}, {"time": 3314, "pitch": 64, "duration": 14, "velocity": 94}, {"time": 3314, "pitch": 68, "duration": 13, "velocity": 92}, {"time": 3320, "pitch": 47, "duration": 26, "velocity": 86}, {"time": 3326, "pitch": 71, "duration": 5, "velocity": 92}, {"time": 3332, "pitch": 64, "duration": 8, "velocity": 93}, {"time": 3332, "pitch": 76, "duration": 13, "velocity": 96}, {"time": 3344, "pitch": 64, "duration": 3, "velocity": 98}, {"time": 3344, "pitch": 68, "duration": 7, "velocity": 98}, {"time": 3344, "pitch": 71, "duration": 9, "velocity": 96}, {"time": 3350, "pitch": 64, "duration": 2, "velocity": 93}, {"time": 3362, "pitch": 42, "duration": 37, "velocity": 94}, {"time": 3362, "pitch": 66, "duration": 7, "velocity": 87}, {"time": 3362, "pitch": 69, "duration": 9, "velocity": 92}, {"time": 3368, "pitch": 49, "duration": 31, "velocity": 80}, {"time": 3374, "pitch": 61, "duration": 4, "velocity": 93}, {"time": 3380, "pitch": 61, "duration": 11, "velocity": 103}, {"time": 3380, "pitch": 66, "duration": 8, "velocity": 94}, {"time": 3392, "pitch": 61, "duration": 2, "velocity": 80}, {"time": 3392, "pitch": 66, "duration": 6, "velocity": 67}, {"time": 3392, "pitch": 69, "duration": 10, "velocity": 94}, {"time": 3398, "pitch": 61, "duration": 3, "velocity": 95}, {"time": 3410, "pitch": 40, "duration": 31, "velocity": 94}, {"time": 3410, "pitch": 64, "duration": 7, "velocity": 92}, {"time": 3410, "pitch": 68, "duration": 13, "velocity": 87}, {"time": 3416, "pitch": 47, "duration": 24, "velocity": 87}, {"time": 3422, "pitch": 64, "duration": 3, "velocity": 95}, {"time": 3428, "pitch": 64, "duration": 14, "velocity": 101}, {"time": 3428, "pitch": 71, "duration": 9, "velocity": 95}, {"time": 3440, "pitch": 68, "duration": 7, "velocity": 98}, {"time": 3446, "pitch": 64, "duration": 2, "velocity": 98}, {"time": 3458, "pitch": 50, "duration": 38, "velocity": 93}, {"time": 3458, "pitch": 62, "duration": 7, "velocity": 86}, {"time": 3458, "pitch": 69, "duration": 11, "velocity": 92}, {"time": 3464, "pitch": 57, "duration": 13, "velocity": 91}, {"time": 3470, "pitch": 62, "duration": 6, "velocity": 95}, {"time": 3476, "pitch": 64, "duration": 9, "velocity": 103}, {"time": 3482, "pitch": 57, "duration": 7, "velocity": 83}, {"time": 3488, "pitch": 62, "duration": 3, "velocity": 88}, {"time": 3488, "pitch": 69, "duration": 7, "velocity": 94}, {"time": 3494, "pitch": 57, "duration": 3, "velocity": 79}, {"time": 3506, "pitch": 49, "duration": 34, "velocity": 94}, {"time": 3506, "pitch": 61, "duration": 12, "velocity": 92}, {"time": 3506, "pitch": 68, "duration": 12, "velocity": 91}, {"time": 3512, "pitch": 56, "duration": 15, "velocity": 79}, {"time": 3518, "pitch": 64, "duration": 7, "velocity": 92}, {"time": 3524, "pitch": 61, "duration": 9, "velocity": 98}, {"time": 3530, "pitch": 56, "duration": 8, "velocity": 80}, {"time": 3536, "pitch": 61, "duration": 7, "velocity": 98}, {"time": 3536, "pitch": 68, "duration": 7, "velocity": 93}, {"time": 3542, "pitch": 56, "duration": 2, "velocity": 79}, {"time": 3554, "pitch": 47, "duration": 37, "velocity": 97}, {"time": 3554, "pitch": 57, "duration": 8, "velocity": 94}, {"time": 3554, "pitch": 62, "duration": 13, "velocity": 93}, {"time": 3560, "pitch": 54, "duration": 14, "velocity": 89}, {"time": 3566, "pitch": 57, "duration": 4, "velocity": 93}, {"time": 3572, "pitch": 57, "duration": 9, "velocity": 94}, {"time": 3572, "pitch": 66, "duration": 11, "velocity": 93}, {"time": 3578, "pitch": 54, "duration": 8, "velocity": 84}, {"time": 3584, "pitch": 57, "duration": 4, "velocity": 95}, {"time": 3584, "pitch": 62, "duration": 5, "velocity": 93}, {"time": 3590, "pitch": 54, "duration": 2, "velocity": 76}, {"time": 3602, "pitch": 40, "duration": 38, "velocity": 96}, {"time": 3602, "pitch": 64, "duration": 5, "velocity": 93}, {"time": 3602, "pitch": 68, "duration": 4, "velocity": 94}, {"time": 3602, "pitch": 76, "duration": 4, "velocity": 93}, {"time": 3608, "pitch": 47, "duration": 7, "velocity": 81}, {"time": 3614, "pitch": 52, "duration": 2, "velocity": 103}, {"time": 3614, "pitch": 64, "duration": 3, "velocity": 96}, {"time": 3620, "pitch": 47, "duration": 8, "velocity": 88}, {"time": 3626, "pitch": 54, "duration": 7, "velocity": 106}, {"time": 3626, "pitch": 66, "duration": 8, "velocity": 96}, {"time": 3632, "pitch": 47, "duration": 7, "velocity": 90}, {"time": 3638, "pitch": 56, "duration": 2, "velocity": 98}, {"time": 3638, "pitch": 68, "duration": 2, "velocity": 93}, {"time": 3650, "pitch": 45, "duration": 34, "velocity": 94}, {"time": 3650, "pitch": 64, "duration": 6, "velocity": 99}, {"time": 3650, "pitch": 69, "duration": 9, "velocity": 93}, {"time": 3656, "pitch": 52, "duration": 26, "velocity": 87}, {"time": 3662, "pitch": 64, "duration": 3, "velocity": 96}, {"time": 3668, "pitch": 64, "duration": 7, "velocity": 106}, {"time": 3668, "pitch": 71, "duration": 9, "velocity": 95}, {"time": 3680, "pitch": 64, "duration": 4, "velocity": 94}, {"time": 3680, "pitch": 69, "duration": 5, "velocity": 92}, {"time": 3698, "pitch": 40, "duration": 32, "velocity": 95}, {"time": 3698, "pitch": 64, "duration": 14, "velocity": 94}, {"time": 3698, "pitch": 68, "duration": 13, "velocity": 92}, {"time": 3704, "pitch": 47, "duration": 26, "velocity": 86}, {"time": 3710, "pitch": 71, "duration": 5, "velocity": 92}, {"time": 3716, "pitch": 64, "duration": 8, "velocity": 93}, {"time": 3716, "pitch": 76, "duration": 13, "velocity": 96}, {"time": 3728, "pitch": 64, "duration": 3, "velocity": 98}, {"time": 3728, "pitch": 68, "duration": 7, "velocity": 98}, {"time": 3728, "pitch": 71, "duration": 9, "velocity": 96}, {"time": 3734, "pitch": 64, "duration": 2, "velocity": 93}, {"time": 3746, "pitch": 42, "duration": 37, "velocity": 94}, {"time": 3746, "pitch": 66, "duration": 7, "velocity": 87}, {"time": 3746, "pitch": 69, "duration": 9, "velocity": 92}, {"time": 3752, "pitch": 49, "duration": 31, "velocity": 80}, {"time": 3758, "pitch": 61, "duration": 4, "velocity": 93}, {"time": 3764, "pitch": 61, "duration": 11, "velocity": 103}, {"time": 3764, "pitch": 66, "duration": 8, "velocity": 94}, {"time": 3776, "pitch": 61, "duration": 2, "velocity": 80}, {"time": 3776, "pitch": 66, "duration": 6, "velocity": 67}, {"time": 3776, "pitch": 69, "duration": 10, "velocity": 94}, {"time": 3782, "pitch": 61, "duration": 3, "velocity": 95}, {"time": 3794, "pitch": 40, "duration": 31, "velocity": 94}, {"time": 3794, "pitch": 64, "duration": 7, "velocity": 92}, {"time": 3794, "pitch": 68, "duration": 13, "velocity": 87}, {"time": 3800, "pitch": 47, "duration": 24, "velocity": 87}, {"time": 3806, "pitch": 64, "duration": 3, "velocity": 95}, {"time": 3812, "pitch": 64, "duration": 14, "velocity": 101}, {"time": 3812, "pitch": 71, "duration": 9, "velocity": 95}, {"time": 3824, "pitch": 68, "duration": 7, "velocity": 98}, {"time": 3830, "pitch": 64, "duration": 2, "velocity": 98}, {"time": 3842, "pitch": 50, "duration": 38, "velocity": 93}, {"time": 3842, "pitch": 62, "duration": 7, "velocity": 86}, {"time": 3842, "pitch": 69, "duration": 11, "velocity": 92}, {"time": 3848, "pitch": 57, "duration": 13, "velocity": 91}, {"time": 3854, "pitch": 62, "duration": 6, "velocity": 95}, {"time": 3860, "pitch": 64, "duration": 9, "velocity": 103}, {"time": 3866, "pitch": 57, "duration": 7, "velocity": 83}, {"time": 3872, "pitch": 62, "duration": 3, "velocity": 88}, {"time": 3872, "pitch": 69, "duration": 7, "velocity": 94}, {"time": 3878, "pitch": 57, "duration": 3, "velocity": 79}, {"time": 3890, "pitch": 49, "duration": 34, "velocity": 94}, {"time": 3890, "pitch": 61, "duration": 12, "velocity": 92}, {"time": 3890, "pitch": 68, "duration": 12, "velocity": 91}, {"time": 3896, "pitch": 56, "duration": 15, "velocity": 79}, {"time": 3902, "pitch": 64, "duration": 7, "velocity": 92}, {"time": 3908, "pitch": 61, "duration": 9, "velocity": 98}, {"time": 3914, "pitch": 56, "duration": 8, "velocity": 80}, {"time": 3920, "pitch": 61, "duration": 7, "velocity": 98}, {"time": 3920, "pitch": 68, "duration": 7, "velocity": 93}, {"time": 3926, "pitch": 56, "duration": 2, "velocity": 79}, {"time": 3938, "pitch": 47, "duration": 37, "velocity": 97}, {"time": 3938, "pitch": 57, "duration": 8, "velocity": 94}, {"time": 3938, "pitch": 62, "duration": 13, "velocity": 93}, {"time": 3944, "pitch": 54, "duration": 14, "velocity": 89}, {"time": 3950, "pitch": 57, "duration": 4, "velocity": 93}, {"time": 3956, "pitch": 57, "duration": 9, "velocity": 94}, {"time": 3956, "pitch": 66, "duration": 11, "velocity": 93}, {"time": 3962, "pitch": 54, "duration": 8, "velocity": 84}, {"time": 3968, "pitch": 57, "duration": 4, "velocity": 95}, {"time": 3968, "pitch": 62, "duration": 5, "velocity": 93}, {"time": 3974, "pitch": 54, "duration": 2, "velocity": 76}, {"time": 3986, "pitch": 40, "duration": 38, "velocity": 96}, {"time": 3986, "pitch": 64, "duration": 5, "velocity": 93}, {"time": 3986, "pitch": 68, "duration": 4, "velocity": 94}, {"time": 3986, "pitch": 76, "duration": 4, "velocity": 93}, {"time": 3992, "pitch": 47, "duration": 7, "velocity": 81}, {"time": 3998, "pitch": 52, "duration": 2, "velocity": 103}, {"time": 3998, "pitch": 64, "duration": 3, "velocity": 96}, {"time": 4004, "pitch": 47, "duration": 8, "velocity": 88}, {"time": 4010, "pitch": 54, "duration": 7, "velocity": 106}, {"time": 4010, "pitch": 66, "duration": 8, "velocity": 96}, {"time": 4016, "pitch": 47, "duration": 7, "velocity": 90}, {"time": 4022, "pitch": 56, "duration": 2, "velocity": 98}, {"time": 4022, "pitch": 68, "duration": 2, "velocity": 93}, {"time": 4034, "pitch": 45, "duration": 34, "velocity": 94}, {"time": 4034, "pitch": 64, "duration": 6, "velocity": 99}, {"time": 4034, "pitch": 69, "duration": 9, "velocity": 93}, {"time": 4040, "pitch": 52, "duration": 26, "velocity": 87}, {"time": 4046, "pitch": 64, "duration": 3, "velocity": 96}, {"time": 4052, "pitch": 64, "duration": 7, "velocity": 106}, {"time": 4052, "pitch": 71, "duration": 9, "velocity": 95}, {"time": 4064, "pitch": 64, "duration": 4, "velocity": 94}, {"time": 4064, "pitch": 69, "duration": 5, "velocity": 92}, {"time": 4082, "pitch": 40, "duration": 32, "velocity": 95}, {"time": 4082, "pitch": 64, "duration": 14, "velocity": 94}, {"time": 4082, "pitch": 68, "duration": 13, "velocity": 92}, {"time": 4088, "pitch": 47, "duration": 26, "velocity": 86}, {"time": 4094, "pitch": 71, "duration": 5, "velocity": 92}, {"time": 4100, "pitch": 64, "duration": 8, "velocity": 93}, {"time": 4100, "pitch": 76, "duration": 13, "velocity": 96}, {"time": 4112, "pitch": 64, "duration": 3, "velocity": 98}, {"time": 4112, "pitch": 68, "duration": 7, "velocity": 98}, {"time": 4112, "pitch": 71, "duration": 9, "velocity": 96}, {"time": 4118, "pitch": 64, "duration": 2, "velocity": 93}, {"time": 4130, "pitch": 42, "duration": 37, "velocity": 94}, {"time": 4130, "pitch": 66, "duration": 7, "velocity": 87}, {"time": 4130, "pitch": 69, "duration": 9, "velocity": 92}, {"time": 4136, "pitch": 49, "duration": 31, "velocity": 80}, {"time": 4142, "pitch": 61, "duration": 4, "velocity": 93}, {"time": 4148, "pitch": 61, "duration": 11, "velocity": 103}, {"time": 4148, "pitch": 66, "duration": 8, "velocity": 94}, {"time": 4160, "pitch": 61, "duration": 2, "velocity": 80}, {"time": 4160, "pitch": 66, "duration": 6, "velocity": 67}, {"time": 4160, "pitch": 69, "duration": 10, "velocity": 94}, {"time": 4166, "pitch": 61, "duration": 3, "velocity": 95}, {"time": 4178, "pitch": 40, "duration": 31, "velocity": 94}, {"time": 4178, "pitch": 64, "duration": 7, "velocity": 92}, {"time": 4178, "pitch": 68, "duration": 13, "velocity": 87}, {"time": 4184, "pitch": 47, "duration": 24, "velocity": 87}, {"time": 4190, "pitch": 64, "duration": 3, "velocity": 95}, {"time": 4196, "pitch": 64, "duration": 14, "velocity": 101}, {"time": 4196, "pitch": 71, "duration": 9, "velocity": 95}, {"time": 4208, "pitch": 68, "duration": 7, "velocity": 98}, {"time": 4214, "pitch": 64, "duration": 2, "velocity": 98}, {"time": 4226, "pitch": 50, "duration": 38, "velocity": 93}, {"time": 4226, "pitch": 62, "duration": 7, "velocity": 86}, {"time": 4226, "pitch": 69, "duration": 11, "velocity": 92}, {"time": 4232, "pitch": 57, "duration": 13, "velocity": 91}, {"time": 4238, "pitch": 62, "duration": 6, "velocity": 95}, {"time": 4244, "pitch": 64, "duration": 9, "velocity": 103}, {"time": 4250, "pitch": 57, "duration": 7, "velocity": 83}, {"time": 4256, "pitch": 62, "duration": 3, "velocity": 88}, {"time": 4256, "pitch": 69, "duration": 7, "velocity": 94}, {"time": 4262, "pitch": 57, "duration": 3, "velocity": 79}, {"time": 4274, "pitch": 49, "duration": 34, "velocity": 94}, {"time": 4274, "pitch": 61, "duration": 12, "velocity": 92}, {"time": 4274, "pitch": 68, "duration": 12, "velocity": 91}, {"time": 4280, "pitch": 56, "duration": 15, "velocity": 79}, {"time": 4286, "pitch": 64, "duration": 7, "velocity": 92}, {"time": 4292, "pitch": 61, "duration": 9, "velocity": 98}, {"time": 4298, "pitch": 56, "duration": 8, "velocity": 80}, {"time": 4304, "pitch": 61, "duration": 7, "velocity": 98}, {"time": 4304, "pitch": 68, "duration": 7, "velocity": 93}, {"time": 4310, "pitch": 56, "duration": 2, "velocity": 79}, {"time": 4322, "pitch": 47, "duration": 37, "velocity": 97}, {"time": 4322, "pitch": 57, "duration": 8, "velocity": 94}, {"time": 4322, "pitch": 62, "duration": 13, "velocity": 93}, {"time": 4328, "pitch": 54, "duration": 14, "velocity": 89}, {"time": 4334, "pitch": 57, "duration": 4, "velocity": 93}, {"time": 4340, "pitch": 57, "duration": 9, "velocity": 94}, {"time": 4340, "pitch": 66, "duration": 11, "velocity": 93}, {"time": 4346, "pitch": 54, "duration": 8, "velocity": 84}, {"time": 4352, "pitch": 57, "duration": 4, "velocity": 95}, {"time": 4352, "pitch": 62, "duration": 5, "velocity": 93}, {"time": 4358, "pitch": 54, "duration": 2, "velocity": 76}, {"time": 4370, "pitch": 40, "duration": 38, "velocity": 96}, {"time": 4370, "pitch": 64, "duration": 5, "velocity": 93}, {"time": 4370, "pitch": 68, "duration": 4, "velocity": 94}, {"time": 4370, "pitch": 76, "duration": 4, "velocity": 93}, {"time": 4376, "pitch": 47, "duration": 7, "velocity": 81}, {"time": 4382, "pitch": 52, "duration": 2, "velocity": 103}, {"time": 4382, "pitch": 64, "duration": 3, "velocity": 96}, {"time": 4388, "pitch": 47, "duration": 8, "velocity": 88}, {"time": 4394, "pitch": 54, "duration": 7, "velocity": 106}, {"time": 4394, "pitch": 66, "duration": 8, "velocity": 96}, {"time": 4400, "pitch": 47, "duration": 7, "velocity": 90}, {"time": 4406, "pitch": 56, "duration": 2, "velocity": 98}, {"time": 4406, "pitch": 68, "duration": 2, "velocity": 93}, {"time": 4418, "pitch": 45, "duration": 34, "velocity": 94}, {"time": 4418, "pitch": 64, "duration": 6, "velocity": 99}, {"time": 4418, "pitch": 69, "duration": 9, "velocity": 93}, {"time": 4424, "pitch": 52, "duration": 26, "velocity": 87}, {"time": 4430, "pitch": 64, "duration": 3, "velocity": 96}, {"time": 4436, "pitch": 64, "duration": 7, "velocity": 106}, {"time": 4436, "pitch": 71, "duration": 9, "velocity": 95}, {"time": 4448, "pitch": 64, "duration": 4, "velocity": 94}, {"time": 4448, "pitch": 69, "duration": 5, "velocity": 92}, {"time": 4466, "pitch": 40, "duration": 32, "velocity": 95}, {"time": 4466, "pitch": 64, "duration": 14, "velocity": 94}, {"time": 4466, "pitch": 68, "duration": 13, "velocity": 92}, {"time": 4472, "pitch": 47, "duration": 26, "velocity": 86}, {"time": 4478, "pitch": 71, "duration": 5, "velocity": 92}, {"time": 4484, "pitch": 64, "duration": 8, "velocity": 93}, {"time": 4484, "pitch": 76, "duration": 13, "velocity": 96}, {"time": 4496, "pitch": 64, "duration": 3, "velocity": 98}, {"time": 4496, "pitch": 68, "duration": 7, "velocity": 98}, {"time": 4496, "pitch": 71, "duration": 9, "velocity": 96}, {"time": 4502, "pitch": 64, "duration": 2, "velocity": 93}, {"time": 4514, "pitch": 42, "duration": 37, "velocity": 94}, {"time": 4514, "pitch": 66, "duration": 7, "velocity": 87}, {"time": 4514, "pitch": 69, "duration": 9, "velocity": 92}, {"time": 4520, "pitch": 49, "duration": 31, "velocity": 80}, {"time": 4526, "pitch": 61, "duration": 4, "velocity": 93}, {"time": 4532, "pitch": 61, "duration": 11, "velocity": 103}, {"time": 4532, "pitch": 66, "duration": 8, "velocity": 94}, {"time": 4544, "pitch": 61, "duration": 2, "velocity": 80}, {"time": 4544, "pitch": 66, "duration": 6, "velocity": 67}, {"time": 4544, "pitch": 69, "duration": 10, "velocity": 94}, {"time": 4550, "pitch": 61, "duration": 3, "velocity": 95}, {"time": 4562, "pitch": 40, "duration": 31, "velocity": 94}, {"time": 4562, "pitch": 64, "duration": 7, "velocity": 92}, {"time": 4562, "pitch": 68, "duration": 13, "velocity": 87}, {"time": 4568, "pitch": 47, "duration": 24, "velocity": 87}, {"time": 4574, "pitch": 64, "duration": 3, "velocity": 95}, {"time": 4580, "pitch": 64, "duration": 14, "velocity": 101}, {"time": 4580, "pitch": 71, "duration": 9, "velocity": 95}, {"time": 4592, "pitch": 68, "duration": 7, "velocity": 98}, {"time": 4598, "pitch": 64, "duration": 2, "velocity": 98}, {"time": 4610, "pitch": 50, "duration": 38, "velocity": 93}, {"time": 4610, "pitch": 62, "duration": 7, "velocity": 86}, {"time": 4610, "pitch": 69, "duration": 11, "velocity": 92}, {"time": 4616, "pitch": 57, "duration": 13, "velocity": 91}, {"time": 4622, "pitch": 62, "duration": 6, "velocity": 95}, {"time": 4628, "pitch": 64, "duration": 9, "velocity": 103}, {"time": 4634, "pitch": 57, "duration": 7, "velocity": 83}, {"time": 4640, "pitch": 62, "duration": 3, "velocity": 88}, {"time": 4640, "pitch": 69, "duration": 7, "velocity": 94}, {"time": 4646, "pitch": 57, "duration": 3, "velocity": 79}, {"time": 4658, "pitch": 49, "duration": 34, "velocity": 94}, {"time": 4658, "pitch": 61, "duration": 12, "velocity": 92}, {"time": 4658, "pitch": 68, "duration": 12, "velocity": 91}, {"time": 4664, "pitch": 56, "duration": 15, "velocity": 79}, {"time": 4670, "pitch": 64, "duration": 7, "velocity": 92}, {"time": 4676, "pitch": 61, "duration": 9, "velocity": 98}, {"time": 4682, "pitch": 56, "duration": 8, "velocity": 80}, {"time": 4688, "pitch": 61, "duration": 7, "velocity": 98}, {"time": 4688, "pitch": 68, "duration": 7, "velocity": 93}, {"time": 4694, "pitch": 56, "duration": 2, "velocity": 79}, {"time": 4706, "pitch": 47, "duration": 37, "velocity": 97}, {"time": 4706, "pitch": 57, "duration": 8, "velocity": 94}, {"time": 4706, "pitch": 62, "duration": 13, "velocity": 93}, {"time": 4712, "pitch": 54, "duration": 14, "velocity": 89}, {"time": 4718, "pitch": 57, "duration": 4, "velocity": 93}, {"time": 4724, "pitch": 57, "duration": 9, "velocity": 94}, {"time": 4724, "pitch": 66, "duration": 11, "velocity": 93}, {"time": 4730, "pitch": 54, "duration": 8, "velocity": 84}, {"time": 4736, "pitch": 57, "duration": 4, "velocity": 95}, {"time": 4736, "pitch": 62, "duration": 5, "velocity": 93}, {"time": 4742, "pitch": 54, "duration": 2, "velocity": 76}, {"time": 4754, "pitch": 40, "duration": 38, "velocity": 96}, {"time": 4754, "pitch": 64, "duration": 5, "velocity": 93}, {"time": 4754, "pitch": 68, "duration": 4, "velocity": 94}, {"time": 4754, "pitch": 76, "duration": 4, "velocity": 93}, {"time": 4760, "pitch": 47, "duration": 7, "velocity": 81}, {"time": 4766, "pitch": 52, "duration": 2, "velocity": 103}, {"time": 4766, "pitch": 64, "duration": 3, "velocity": 96}, {"time": 4772, "pitch": 47, "duration": 8, "velocity": 88}, {"time": 4778, "pitch": 54, "duration": 7, "velocity": 106}, {"time": 4778, "pitch": 66, "duration": 8, "velocity": 96}, {"time": 4784, "pitch": 47, "duration": 7, "velocity": 90}, {"time": 4790, "pitch": 56, "duration": 2, "velocity": 98}, {"time": 4790, "pitch": 68, "duration": 2, "velocity": 93}, {"time": 4802, "pitch": 45, "duration": 28, "velocity": 93}, {"time": 4802, "pitch": 64, "duration": 8, "velocity": 96}, {"time": 4808, "pitch": 57, "duration": 4, "velocity": 80}, {"time": 4814, "pitch": 52, "duration": 8, "velocity": 98}, {"time": 4814, "pitch": 64, "duration": 1, "velocity": 57}, {"time": 4820, "pitch": 64, "duration": 13, "velocity": 96}, {"time": 4832, "pitch": 57, "duration": 7, "velocity": 94}, {"time": 4838, "pitch": 52, "duration": 13, "velocity": 94}, {"time": 4850, "pitch": 44, "duration": 37, "velocity": 87}, {"time": 4850, "pitch": 64, "duration": 9, "velocity": 97}, {"time": 4856, "pitch": 59, "duration": 8, "velocity": 85}, {"time": 4862, "pitch": 52, "duration": 7, "velocity": 101}, {"time": 4868, "pitch": 64, "duration": 13, "velocity": 95}, {"time": 4880, "pitch": 59, "duration": 7, "velocity": 92}, {"time": 4886, "pitch": 52, "duration": 14, "velocity": 98}, {"time": 4898, "pitch": 42, "duration": 33, "velocity": 86}, {"time": 4898, "pitch": 64, "duration": 13, "velocity": 93}, {"time": 4904, "pitch": 57, "duration": 7, "velocity": 83}, {"time": 4910, "pitch": 52, "duration": 19, "velocity": 94}, {"time": 4916, "pitch": 64, "duration": 18, "velocity": 96}, {"time": 4928, "pitch": 57, "duration": 7, "velocity": 90}, {"time": 4934, "pitch": 52, "duration": 12, "velocity": 93}, {"time": 4946, "pitch": 40, "duration": 38, "velocity": 97}, {"time": 4946, "pitch": 64, "duration": 11, "velocity": 96}, {"time": 4952, "pitch": 57, "duration": 7, "velocity": 87}, {"time": 4958, "pitch": 52, "duration": 9, "velocity": 96}, {"time": 4964, "pitch": 64, "duration": 14, "velocity": 98}, {"time": 4976, "pitch": 57, "duration": 8, "velocity": 90}, {"time": 4982, "pitch": 52, "duration": 14, "velocity": 94}, {"time": 4994, "pitch": 38, "duration": 40, "velocity": 92}, {"time": 4994, "pitch": 64, "duration": 13, "velocity": 95}, {"time": 5000, "pitch": 57, "duration": 8, "velocity": 88}, {"time": 5006, "pitch": 52, "duration": 19, "velocity": 103}, {"time": 5012, "pitch": 64, "duration": 18, "velocity": 98}, {"time": 5024, "pitch": 57, "duration": 8, "velocity": 88}, {"time": 5030, "pitch": 52, "duration": 11, "velocity": 86}, {"time": 5042, "pitch": 37, "duration": 36, "velocity": 80}, {"time": 5042, "pitch": 64, "duration": 7, "velocity": 94}, {"time": 5048, "pitch": 61, "duration": 8, "velocity": 84}, {"time": 5054, "pitch": 57, "duration": 4, "velocity": 81}, {"time": 5060, "pitch": 64, "duration": 9, "velocity": 101}, {"time": 5072, "pitch": 61, "duration": 7, "velocity": 94}, {"time": 5078, "pitch": 57, "duration": 7, "velocity": 92}, {"time": 5090, "pitch": 47, "duration": 37, "velocity": 93}, {"time": 5090, "pitch": 64, "duration": 8, "velocity": 94}, {"time": 5096, "pitch": 62, "duration": 9, "velocity": 88}, {"time": 5102, "pitch": 54, "duration": 10, "velocity": 72}, {"time": 5108, "pitch": 57, "duration": 15, "velocity": 88}, {"time": 5108, "pitch": 62, "duration": 19, "velocity": 93}, {"time": 5120, "pitch": 54, "duration": 5, "velocity": 83}, {"time": 5126, "pitch": 57, "duration": 7, "velocity": 93}, {"time": 5132, "pitch": 62, "duration": 7, "velocity": 94}, {"time": 5138, "pitch": 40, "duration": 18, "velocity": 93}, {"time": 5138, "pitch": 59, "duration": 12, "velocity": 92}, {"time": 5144, "pitch": 47, "duration": 12, "velocity": 83}, {"time": 5149, "pitch": 52, "duration": 8, "velocity": 94}, {"time": 5156, "pitch": 59, "duration": 5, "velocity": 97}, {"time": 5162, "pitch": 64, "duration": 3, "velocity": 101}, {"time": 5166, "pitch": 52, "duration": 11, "velocity": 88}, {"time": 5175, "pitch": 59, "duration": 3, "velocity": 92}, {"time": 5182, "pitch": 64, "duration": 6, "velocity": 93}, {"time": 5189, "pitch": 45, "duration": 60, "velocity": 91}, {"time": 5194, "pitch": 52, "duration": 54, "velocity": 90}, {"time": 5198, "pitch": 57, "duration": 4, "velocity": 84}, {"time": 5201, "pitch": 59, "duration": 7, "velocity": 87}, {"time": 5204, "pitch": 61, "duration": 22, "velocity": 90}, {"time": 5207, "pitch": 64, "duration": 21, "velocity": 87}], "annotations": [{"time": 50, "annotation": {"number": 64, "value": 127}, "group": "control_change"}, {"time": 96, "annotation": {"number": 64, "value": 0}, "group": "control_change"}, {"time": 101, "annotation": {"number": 64, "value": 127}, "group": "control_change"}, {"time": 143, "annotation": {"number": 64, "value": 0}, "group": "control_change"}, {"time": 149, "annotation": {"number": 64, "value": 127}, "group": "control_change"}, {"time": 191, "annotation": {"number": 64, "value": 0}, "group": "control_change"}, {"time": 196, "annotation": {"number": 64, "value": 127}, "group": "control_change"}, {"time": 239, "annotation": {"number": 64, "value": 0}, "group": "control_change"}, {"time": 251, "annotation": {"number": 64, "value": 127}, "group": "control_change"}, {"time": 290, "annotation": {"number": 64, "value": 0}, "group": "control_change"}, {"time": 292, "annotation": {"number": 64, "value": 127}, "group": "control_change"}, {"time": 337, "annotation": {"number": 64, "value": 0}, "group": "control_change"}, {"time": 345, "annotation": {"number": 64, "value": 127}, "group": "control_change"}, {"time": 383, "annotation": {"number": 64, "value": 0}, "group": "control_change"}, {"time": 388, "annotation": {"number": 64, "value": 127}, "group": "control_change"}, {"time": 433, "annotation": {"number": 64, "value": 0}, "group": "control_change"}, {"time": 436, "annotation": {"number": 64, "value": 127}, "group": "control_change"}, {"time": 478, "annotation": {"number": 64, "value": 0}, "group": "control_change"}, {"time": 486, "annotation": {"number": 64, "value": 127}, "group": "control_change"}, {"time": 528, "annotation": {"number": 64, "value": 0}, "group": "control_change"}, {"time": 535, "annotation": {"number": 64, "value": 127}, "group": "control_change"}, {"time": 576, "annotation": {"number": 64, "value": 0}, "group": "control_change"}, {"time": 617, "annotation": {"number": 64, "value": 127}, "group": "control_change"}, {"time": 624, "annotation": {"number": 64, "value": 0}, "group": "control_change"}, {"time": 642, "annotation": {"number": 64, "value": 127}, "group": "control_change"}, {"time": 672, "annotation": {"number": 64, "value": 0}, "group": "control_change"}, {"time": 676, "annotation": {"number": 64, "value": 127}, "group": "control_change"}, {"time": 719, "annotation": {"number": 64, "value": 0}, "group": "control_change"}, {"time": 723, "annotation": {"number": 64, "value": 127}, "group": "control_change"}, {"time": 744, "annotation": {"number": 64, "value": 0}, "group": "control_change"}, {"time": 750, "annotation": {"number": 64, "value": 127}, "group": "control_change"}, {"time": 768, "annotation": {"number": 64, "value": 0}, "group": "control_change"}, {"time": 773, "annotation": {"number": 64, "value": 127}, "group": "control_change"}, {"time": 815, "annotation": {"number": 64, "value": 0}, "group": "control_change"}, {"time": 822, "annotation": {"number": 64, "value": 127}, "group": "control_change"}, {"time": 865, "annotation": {"number": 64, "value": 0}, "group": "control_change"}, {"time": 870, "annotation": {"number": 64, "value": 127}, "group": "control_change"}, {"time": 912, "annotation": {"number": 64, "value": 0}, "group": "control_change"}, {"time": 919, "annotation": {"number": 64, "value": 127}, "group": "control_change"}, {"time": 960, "annotation": {"number": 64, "value": 0}, "group": "control_change"}, {"time": 1001, "annotation": {"number": 64, "value": 127}, "group": "control_change"}, {"time": 1008, "annotation": {"number": 64, "value": 0}, "group": "control_change"}, {"time": 1026, "annotation": {"number": 64, "value": 127}, "group": "control_change"}, {"time": 1056, "annotation": {"number": 64, "value": 0}, "group": "control_change"}, {"time": 1060, "annotation": {"number": 64, "value": 127}, "group": "control_change"}, {"time": 1103, "annotation": {"number": 64, "value": 0}, "group": "control_change"}, {"time": 1107, "annotation": {"number": 64, "value": 127}, "group": "control_change"}, {"time": 1128, "annotation": {"number": 64, "value": 0}, "group": "control_change"}, {"time": 1134, "annotation": {"number": 64, "value": 127}, "group": "control_change"}, {"time": 1152, "annotation": {"number": 64, "value": 0}, "group": "control_change"}, {"time": 1157, "annotation": {"number": 64, "value": 127}, "group": "control_change"}, {"time": 1199, "annotation": {"number": 64, "value": 0}, "group": "control_change"}, {"time": 1206, "annotation": {"number": 64, "value": 127}, "group": "control_change"}, {"time": 1249, "annotation": {"number": 64, "value": 0}, "group": "control_change"}, {"time": 1253, "annotation": {"number": 64, "value": 127}, "group": "control_change"}, {"time": 1296, "annotation": {"number": 64, "value": 0}, "group": "control_change"}, {"time": 1300, "annotation": {"number": 64, "value": 127}, "group": "control_change"}, {"time": 1345, "annotation": {"number": 64, "value": 0}, "group": "control_change"}, {"time": 1349, "annotation": {"number": 64, "value": 127}, "group": "control_change"}, {"time": 1394, "annotation": {"number": 64, "value": 0}, "group": "control_change"}, {"time": 1396, "annotation": {"number": 64, "value": 127}, "group": "control_change"}, {"time": 1442, "annotation": {"number": 64, "value": 0}, "group": "control_change"}, {"time": 1446, "annotation": {"number": 64, "value": 127}, "group": "control_change"}, {"time": 1490, "annotation": {"number": 64, "value": 0}, "group": "control_change"}, {"time": 1495, "annotation": {"number": 64, "value": 127}, "group": "control_change"}, {"time": 1537, "annotation": {"number": 64, "value": 0}, "group": "control_change"}, {"time": 1541, "annotation": {"number": 64, "value": 127}, "group": "control_change"}, {"time": 1585, "annotation": {"number": 64, "value": 0}, "group": "control_change"}, {"time": 1594, "annotation": {"number": 64, "value": 127}, "group": "control_change"}, {"time": 1632, "annotation": {"number": 64, "value": 0}, "group": "control_change"}, {"time": 1633, "annotation": {"number": 64, "value": 127}, "group": "control_change"}, {"time": 1682, "annotation": {"number": 64, "value": 0}, "group": "control_change"}, {"time": 1684, "annotation": {"number": 64, "value": 127}, "group": "control_change"}, {"time": 1729, "annotation": {"number": 64, "value": 0}, "group": "control_change"}, {"time": 1733, "annotation": {"number": 64, "value": 127}, "group": "control_change"}, {"time": 1778, "annotation": {"number": 64, "value": 0}, "group": "control_change"}, {"time": 1780, "annotation": {"number": 64, "value": 127}, "group": "control_change"}, {"time": 1826, "annotation": {"number": 64, "value": 0}, "group": "control_change"}, {"time": 1830, "annotation": {"number": 64, "value": 127}, "group": "control_change"}, {"time": 1874, "annotation": {"number": 64, "value": 0}, "group": "control_change"}, {"time": 1879, "annotation": {"number": 64, "value": 127}, "group": "control_change"}, {"time": 1921, "annotation": {"number": 64, "value": 0}, "group": "control_change"}, {"time": 1925, "annotation": {"number": 64, "value": 127}, "group": "control_change"}, {"time": 1969, "annotation": {"number": 64, "value": 0}, "group": "control_change"}, {"time": 1978, "annotation": {"number": 64, "value": 127}, "group": "control_change"}, {"time": 2016, "annotation": {"number": 64, "value": 0}, "group": "control_change"}, {"time": 2017, "annotation": {"number": 64, "value": 127}, "group": "control_change"}, {"time": 2066, "annotation": {"number": 64, "value": 127}, "group": "control_change"}, {"time": 2066, "annotation": {"number": 64, "value": 0}, "group": "control_change"}, {"time": 2112, "annotation": {"number": 64, "value": 0}, "group": "control_change"}, {"time": 2121, "annotation": {"number": 64, "value": 127}, "group": "control_change"}, {"time": 2160, "annotation": {"number": 64, "value": 0}, "group": "control_change"}, {"time": 2164, "annotation": {"number": 64, "value": 127}, "group": "control_change"}, {"time": 2208, "annotation": {"number": 64, "value": 0}, "group": "control_change"}, {"time": 2212, "annotation": {"number": 64, "value": 127}, "group": "control_change"}, {"time": 2259, "annotation": {"number": 64, "value": 0}, "group": "control_change"}, {"time": 2264, "annotation": {"number": 64, "value": 127}, "group": "control_change"}, {"time": 2304, "annotation": {"number": 64, "value": 0}, "group": "control_change"}, {"time": 2311, "annotation": {"number": 64, "value": 127}, "group": "control_change"}, {"time": 2352, "annotation": {"number": 64, "value": 0}, "group": "control_change"}, {"time": 2354, "annotation": {"number": 64, "value": 127}, "group": "control_change"}, {"time": 2401, "annotation": {"number": 64, "value": 0}, "group": "control_change"}, {"time": 2403, "annotation": {"number": 64, "value": 127}, "group": "control_change"}, {"time": 2447, "annotation": {"number": 64, "value": 0}, "group": "control_change"}, {"time": 2454, "annotation": {"number": 64, "value": 127}, "group": "control_change"}, {"time": 2496, "annotation": {"number": 64, "value": 0}, "group": "control_change"}, {"time": 2503, "annotation": {"number": 64, "value": 127}, "group": "control_change"}, {"time": 2544, "annotation": {"number": 64, "value": 0}, "group": "control_change"}, {"time": 2585, "annotation": {"number": 64, "value": 127}, "group": "control_change"}, {"time": 2592, "annotation": {"number": 64, "value": 0}, "group": "control_change"}, {"time": 2610, "annotation": {"number": 64, "value": 127}, "group": "control_change"}, {"time": 2640, "annotation": {"number": 64, "value": 0}, "group": "control_change"}, {"time": 2644, "annotation": {"number": 64, "value": 127}, "group": "control_change"}, {"time": 2687, "annotation": {"number": 64, "value": 0}, "group": "control_change"}, {"time": 2691, "annotation": {"number": 64, "value": 127}, "group": "control_change"}, {"time": 2712, "annotation": {"number": 64, "value": 0}, "group": "control_change"}, {"time": 2718, "annotation": {"number": 64, "value": 127}, "group": "control_change"}, {"time": 2736, "annotation": {"number": 64, "value": 0}, "group": "control_change"}, {"time": 2741, "annotation": {"number": 64, "value": 127}, "group": "control_change"}, {"time": 2783, "annotation": {"number": 64, "value": 0}, "group": "control_change"}, {"time": 2790, "annotation": {"number": 64, "value": 127}, "group": "control_change"}, {"time": 2833, "annotation": {"number": 64, "value": 0}, "group": "control_change"}, {"time": 2838, "annotation": {"number": 64, "value": 127}, "group": "control_change"}, {"time": 2880, "annotation": {"number": 64, "value": 0}, "group": "control_change"}, {"time": 2887, "annotation": {"number": 64, "value": 127}, "group": "control_change"}, {"time": 2928, "annotation": {"number": 64, "value": 0}, "group": "control_change"}, {"time": 2969, "annotation": {"number": 64, "value": 127}, "group": "control_change"}, {"time": 2976, "annotation": {"number": 64, "value": 0}, "group": "control_change"}, {"time": 2994, "annotation": {"number": 64, "value": 127}, "group": "control_change"}, {"time": 3024, "annotation": {"number": 64, "value": 0}, "group": "control_change"}, {"time": 3028, "annotation": {"number": 64, "value": 127}, "group": "control_change"}, {"time": 3071, "annotation": {"number": 64, "value": 0}, "group": "control_change"}, {"time": 3075, "annotation": {"number": 64, "value": 127}, "group": "control_change"}, {"time": 3096, "annotation": {"number": 64, "value": 0}, "group": "control_change"}, {"time": 3102, "annotation": {"number": 64, "value": 127}, "group": "control_change"}, {"time": 3120, "annotation": {"number": 64, "value": 0}, "group": "control_change"}, {"time": 3125, "annotation": {"number": 64, "value": 127}, "group": "control_change"}, {"time": 3167, "annotation": {"number": 64, "value": 0}, "group": "control_change"}, {"time": 3174, "annotation": {"number": 64, "value": 127}, "group": "control_change"}, {"time": 3217, "annotation": {"number": 64, "value": 0}, "group": "control_change"}, {"time": 3221, "annotation": {"number": 64, "value": 127}, "group": "control_change"}, {"time": 3264, "annotation": {"number": 64, "value": 0}, "group": "control_change"}, {"time": 3268, "annotation": {"number": 64, "value": 127}, "group": "control_change"}, {"time": 3313, "annotation": {"number": 64, "value": 0}, "group": "control_change"}, {"time": 3317, "annotation": {"number": 64, "value": 127}, "group": "control_change"}, {"time": 3362, "annotation": {"number": 64, "value": 0}, "group": "control_change"}, {"time": 3364, "annotation": {"number": 64, "value": 127}, "group": "control_change"}, {"time": 3410, "annotation": {"number": 64, "value": 0}, "group": "control_change"}, {"time": 3414, "annotation": {"number": 64, "value": 127}, "group": "control_change"}, {"time": 3458, "annotation": {"number": 64, "value": 0}, "group": "control_change"}, {"time": 3463, "annotation": {"number": 64, "value": 127}, "group": "control_change"}, {"time": 3505, "annotation": {"number": 64, "value": 0}, "group": "control_change"}, {"time": 3509, "annotation": {"number": 64, "value": 127}, "group": "control_change"}, {"time": 3553, "annotation": {"number": 64, "value": 0}, "group": "control_change"}, {"time": 3562, "annotation": {"number": 64, "value": 127}, "group": "control_change"}, {"time": 3600, "annotation": {"number": 64, "value": 0}, "group": "control_change"}, {"time": 3601, "annotation": {"number": 64, "value": 127}, "group": "control_change"}, {"time": 3650, "annotation": {"number": 64, "value": 0}, "group": "control_change"}, {"time": 3652, "annotation": {"number": 64, "value": 127}, "group": "control_change"}, {"time": 3697, "annotation": {"number": 64, "value": 0}, "group": "control_change"}, {"time": 3701, "annotation": {"number": 64, "value": 127}, "group": "control_change"}, {"time": 3746, "annotation": {"number": 64, "value": 0}, "group": "control_change"}, {"time": 3748, "annotation": {"number": 64, "value": 127}, "group": "control_change"}, {"time": 3794, "annotation": {"number": 64, "value": 0}, "group": "control_change"}, {"time": 3798, "annotation": {"number": 64, "value": 127}, "group": "control_change"}, {"time": 3842, "annotation": {"number": 64, "value": 0}, "group": "control_change"}, {"time": 3847, "annotation": {"number": 64, "value": 127}, "group": "control_change"}, {"time": 3889, "annotation": {"number": 64, "value": 0}, "group": "control_change"}, {"time": 3893, "annotation": {"number": 64, "value": 127}, "group": "control_change"}, {"time": 3937, "annotation": {"number": 64, "value": 0}, "group": "control_change"}, {"time": 3946, "annotation": {"number": 64, "value": 127}, "group": "control_change"}, {"time": 3984, "annotation": {"number": 64, "value": 0}, "group": "control_change"}, {"time": 3985, "annotation": {"number": 64, "value": 127}, "group": "control_change"}, {"time": 4034, "annotation": {"number": 64, "value": 0}, "group": "control_change"}, {"time": 4036, "annotation": {"number": 64, "value": 127}, "group": "control_change"}, {"time": 4081, "annotation": {"number": 64, "value": 0}, "group": "control_change"}, {"time": 4085, "annotation": {"number": 64, "value": 127}, "group": "control_change"}, {"time": 4130, "annotation": {"number": 64, "value": 0}, "group": "control_change"}, {"time": 4132, "annotation": {"number": 64, "value": 127}, "group": "control_change"}, {"time": 4178, "annotation": {"number": 64, "value": 0}, "group": "control_change"}, {"time": 4182, "annotation": {"number": 64, "value": 127}, "group": "control_change"}, {"time": 4226, "annotation": {"number": 64, "value": 0}, "group": "control_change"}, {"time": 4231, "annotation": {"number": 64, "value": 127}, "group": "control_change"}, {"time": 4273, "annotation": {"number": 64, "value": 0}, "group": "control_change"}, {"time": 4277, "annotation": {"number": 64, "value": 127}, "group": "control_change"}, {"time": 4321, "annotation": {"number": 64, "value": 0}, "group": "control_change"}, {"time": 4330, "annotation": {"number": 64, "value": 127}, "group": "control_change"}, {"time": 4368, "annotation": {"number": 64, "value": 0}, "group": "control_change"}, {"time": 4369, "annotation": {"number": 64, "value": 127}, "group": "control_change"}, {"time": 4418, "annotation": {"number": 64, "value": 0}, "group": "control_change"}, {"time": 4420, "annotation": {"number": 64, "value": 127}, "group": "control_change"}, {"time": 4465, "annotation": {"number": 64, "value": 0}, "group": "control_change"}, {"time": 4469, "annotation": {"number": 64, "value": 127}, "group": "control_change"}, {"time": 4514, "annotation": {"number": 64, "value": 0}, "group": "control_change"}, {"time": 4516, "annotation": {"number": 64, "value": 127}, "group": "control_change"}, {"time": 4562, "annotation": {"number": 64, "value": 0}, "group": "control_change"}, {"time": 4566, "annotation": {"number": 64, "value": 127}, "group": "control_change"}, {"time": 4610, "annotation": {"number": 64, "value": 0}, "group": "control_change"}, {"time": 4615, "annotation": {"number": 64, "value": 127}, "group": "control_change"}, {"time": 4657, "annotation": {"number": 64, "value": 0}, "group": "control_change"}, {"time": 4661, "annotation": {"number": 64, "value": 127}, "group": "control_change"}, {"time": 4705, "annotation": {"number": 64, "value": 0}, "group": "control_change"}, {"time": 4714, "annotation": {"number": 64, "value": 127}, "group": "control_change"}, {"time": 4752, "annotation": {"number": 64, "value": 0}, "group": "control_change"}, {"time": 4753, "annotation": {"number": 64, "value": 127}, "group": "control_change"}, {"time": 4802, "annotation": {"number": 64, "value": 0}, "group": "control_change"}, {"time": 4802, "annotation": {"number": 64, "value": 127}, "group": "control_change"}, {"time": 4848, "annotation": {"number": 64, "value": 0}, "group": "control_change"}, {"time": 4853, "annotation": {"number": 64, "value": 127}, "group": "control_change"}, {"time": 4895, "annotation": {"number": 64, "value": 0}, "group": "control_change"}, {"time": 4901, "annotation": {"number": 64, "value": 127}, "group": "control_change"}, {"time": 4943, "annotation": {"number": 64, "value": 0}, "group": "control_change"}, {"time": 4948, "annotation": {"number": 64, "value": 127}, "group": "control_change"}, {"time": 4991, "annotation": {"number": 64, "value": 0}, "group": "control_change"}, {"time": 5003, "annotation": {"number": 64, "value": 127}, "group": "control_change"}, {"time": 5042, "annotation": {"number": 64, "value": 0}, "group": "control_change"}, {"time": 5044, "annotation": {"number": 64, "value": 127}, "group": "control_change"}, {"time": 5089, "annotation": {"number": 64, "value": 0}, "group": "control_change"}, {"time": 5097, "annotation": {"number": 64, "value": 127}, "group": "control_change"}, {"time": 5135, "annotation": {"number": 64, "value": 0}, "group": "control_change"}, {"time": 5138, "annotation": {"number": 64, "value": 127}, "group": "control_change"}, {"time": 5193, "annotation": {"number": 64, "value": 0}, "group": "control_change"}, {"time": 5196, "annotation": {"number": 64, "value": 127}, "group": "control_change"}, {"time": 5293, "annotation": {"number": 64, "value": 0}, "group": "control_change"}]}]}