{"metadata": {"schema_version": "0.2", "title": "None", "source_filename": "411.mid", "source_format": "midi"}, "resolution": 12, "tempos": [{"time": 0, "qpm": 84.000084000084}], "key_signatures": [{"time": 0, "root": 0, "mode": "major"}], "time_signatures": [{"time": 0, "numerator": 4, "denominator": 4}, {"time": 0, "numerator": 1, "denominator": 4}], "tracks": [{"program": 0, "is_drum": false, "name": "MELODY", "notes": [{"time": 206, "pitch": 75, "duration": 3, "velocity": 90}, {"time": 209, "pitch": 73, "duration": 2, "velocity": 96}, {"time": 212, "pitch": 75, "duration": 5, "velocity": 92}, {"time": 218, "pitch": 73, "duration": 2, "velocity": 96}, {"time": 221, "pitch": 75, "duration": 10, "velocity": 92}, {"time": 236, "pitch": 73, "duration": 5, "velocity": 91}, {"time": 242, "pitch": 71, "duration": 4, "velocity": 86}, {"time": 248, "pitch": 73, "duration": 5, "velocity": 92}, {"time": 254, "pitch": 71, "duration": 13, "velocity": 88}, {"time": 290, "pitch": 73, "duration": 3, "velocity": 96}, {"time": 296, "pitch": 75, "duration": 3, "velocity": 89}, {"time": 299, "pitch": 73, "duration": 2, "velocity": 92}, {"time": 302, "pitch": 75, "duration": 2, "velocity": 89}, {"time": 305, "pitch": 73, "duration": 2, "velocity": 86}, {"time": 308, "pitch": 75, "duration": 4, "velocity": 92}, {"time": 314, "pitch": 78, "duration": 4, "velocity": 86}, {"time": 326, "pitch": 76, "duration": 5, "velocity": 86}, {"time": 332, "pitch": 75, "duration": 4, "velocity": 92}, {"time": 338, "pitch": 73, "duration": 2, "velocity": 92}, {"time": 341, "pitch": 76, "duration": 8, "velocity": 90}, {"time": 350, "pitch": 75, "duration": 19, "velocity": 88}, {"time": 398, "pitch": 78, "duration": 2, "velocity": 87}, {"time": 401, "pitch": 80, "duration": 2, "velocity": 87}, {"time": 404, "pitch": 80, "duration": 4, "velocity": 88}, {"time": 410, "pitch": 80, "duration": 2, "velocity": 91}, {"time": 413, "pitch": 78, "duration": 8, "velocity": 92}, {"time": 422, "pitch": 71, "duration": 8, "velocity": 91}, {"time": 452, "pitch": 73, "duration": 8, "velocity": 91}, {"time": 461, "pitch": 75, "duration": 2, "velocity": 86}, {"time": 464, "pitch": 73, "duration": 5, "velocity": 92}, {"time": 470, "pitch": 71, "duration": 6, "velocity": 87}, {"time": 479, "pitch": 73, "duration": 2, "velocity": 96}, {"time": 482, "pitch": 73, "duration": 2, "velocity": 99}, {"time": 485, "pitch": 75, "duration": 2, "velocity": 89}, {"time": 488, "pitch": 76, "duration": 4, "velocity": 88}, {"time": 494, "pitch": 78, "duration": 4, "velocity": 89}, {"time": 500, "pitch": 76, "duration": 5, "velocity": 87}, {"time": 506, "pitch": 75, "duration": 5, "velocity": 94}, {"time": 512, "pitch": 75, "duration": 7, "velocity": 91}, {"time": 521, "pitch": 71, "duration": 5, "velocity": 86}, {"time": 530, "pitch": 71, "duration": 10, "velocity": 92}, {"time": 542, "pitch": 73, "duration": 14, "velocity": 91}, {"time": 590, "pitch": 75, "duration": 3, "velocity": 90}, {"time": 593, "pitch": 73, "duration": 2, "velocity": 96}, {"time": 596, "pitch": 75, "duration": 5, "velocity": 92}, {"time": 602, "pitch": 73, "duration": 2, "velocity": 96}, {"time": 605, "pitch": 75, "duration": 10, "velocity": 92}, {"time": 620, "pitch": 73, "duration": 3, "velocity": 91}, {"time": 626, "pitch": 73, "duration": 3, "velocity": 91}, {"time": 629, "pitch": 71, "duration": 3, "velocity": 86}, {"time": 632, "pitch": 73, "duration": 5, "velocity": 92}, {"time": 638, "pitch": 71, "duration": 13, "velocity": 88}, {"time": 674, "pitch": 73, "duration": 3, "velocity": 96}, {"time": 680, "pitch": 75, "duration": 3, "velocity": 89}, {"time": 683, "pitch": 73, "duration": 2, "velocity": 92}, {"time": 686, "pitch": 75, "duration": 2, "velocity": 89}, {"time": 689, "pitch": 73, "duration": 2, "velocity": 86}, {"time": 692, "pitch": 75, "duration": 4, "velocity": 92}, {"time": 698, "pitch": 78, "duration": 4, "velocity": 86}, {"time": 710, "pitch": 76, "duration": 5, "velocity": 86}, {"time": 716, "pitch": 75, "duration": 4, "velocity": 92}, {"time": 722, "pitch": 73, "duration": 2, "velocity": 92}, {"time": 725, "pitch": 76, "duration": 8, "velocity": 90}, {"time": 734, "pitch": 75, "duration": 19, "velocity": 88}, {"time": 782, "pitch": 78, "duration": 2, "velocity": 87}, {"time": 785, "pitch": 80, "duration": 2, "velocity": 87}, {"time": 788, "pitch": 80, "duration": 4, "velocity": 88}, {"time": 794, "pitch": 80, "duration": 2, "velocity": 91}, {"time": 797, "pitch": 78, "duration": 8, "velocity": 92}, {"time": 806, "pitch": 71, "duration": 8, "velocity": 91}, {"time": 836, "pitch": 73, "duration": 8, "velocity": 91}, {"time": 845, "pitch": 75, "duration": 2, "velocity": 86}, {"time": 848, "pitch": 73, "duration": 5, "velocity": 92}, {"time": 854, "pitch": 71, "duration": 6, "velocity": 87}, {"time": 863, "pitch": 73, "duration": 2, "velocity": 96}, {"time": 866, "pitch": 75, "duration": 2, "velocity": 99}, {"time": 869, "pitch": 76, "duration": 2, "velocity": 89}, {"time": 872, "pitch": 78, "duration": 4, "velocity": 88}, {"time": 878, "pitch": 83, "duration": 3, "velocity": 89}, {"time": 881, "pitch": 83, "duration": 6, "velocity": 89}, {"time": 890, "pitch": 78, "duration": 3, "velocity": 87}, {"time": 893, "pitch": 78, "duration": 3, "velocity": 94}, {"time": 896, "pitch": 80, "duration": 3, "velocity": 91}, {"time": 899, "pitch": 78, "duration": 3, "velocity": 91}, {"time": 902, "pitch": 78, "duration": 6, "velocity": 91}, {"time": 908, "pitch": 75, "duration": 5, "velocity": 92}, {"time": 914, "pitch": 73, "duration": 4, "velocity": 91}, {"time": 920, "pitch": 73, "duration": 5, "velocity": 99}, {"time": 926, "pitch": 71, "duration": 25, "velocity": 87}, {"time": 986, "pitch": 75, "duration": 5, "velocity": 96}, {"time": 992, "pitch": 75, "duration": 5, "velocity": 96}, {"time": 998, "pitch": 76, "duration": 5, "velocity": 89}, {"time": 1004, "pitch": 78, "duration": 4, "velocity": 91}, {"time": 1010, "pitch": 80, "duration": 4, "velocity": 87}, {"time": 1016, "pitch": 78, "duration": 9, "velocity": 89}, {"time": 1028, "pitch": 83, "duration": 4, "velocity": 89}, {"time": 1034, "pitch": 78, "duration": 7, "velocity": 89}, {"time": 1046, "pitch": 76, "duration": 5, "velocity": 91}, {"time": 1052, "pitch": 73, "duration": 5, "velocity": 96}, {"time": 1058, "pitch": 76, "duration": 5, "velocity": 91}, {"time": 1064, "pitch": 75, "duration": 14, "velocity": 90}, {"time": 1082, "pitch": 71, "duration": 5, "velocity": 89}, {"time": 1088, "pitch": 71, "duration": 5, "velocity": 92}, {"time": 1094, "pitch": 73, "duration": 4, "velocity": 96}, {"time": 1100, "pitch": 75, "duration": 4, "velocity": 90}, {"time": 1106, "pitch": 76, "duration": 5, "velocity": 89}, {"time": 1112, "pitch": 78, "duration": 9, "velocity": 87}, {"time": 1124, "pitch": 73, "duration": 10, "velocity": 99}, {"time": 1136, "pitch": 76, "duration": 5, "velocity": 87}, {"time": 1142, "pitch": 75, "duration": 5, "velocity": 90}, {"time": 1148, "pitch": 73, "duration": 5, "velocity": 101}, {"time": 1154, "pitch": 75, "duration": 18, "velocity": 89}, {"time": 1178, "pitch": 75, "duration": 4, "velocity": 96}, {"time": 1184, "pitch": 75, "duration": 5, "velocity": 96}, {"time": 1190, "pitch": 76, "duration": 4, "velocity": 89}, {"time": 1196, "pitch": 78, "duration": 4, "velocity": 87}, {"time": 1202, "pitch": 80, "duration": 4, "velocity": 87}, {"time": 1208, "pitch": 82, "duration": 8, "velocity": 88}, {"time": 1220, "pitch": 75, "duration": 8, "velocity": 94}, {"time": 1232, "pitch": 75, "duration": 4, "velocity": 94}, {"time": 1238, "pitch": 73, "duration": 11, "velocity": 101}, {"time": 1250, "pitch": 71, "duration": 17, "velocity": 92}, {"time": 1274, "pitch": 71, "duration": 5, "velocity": 91}, {"time": 1280, "pitch": 80, "duration": 4, "velocity": 87}, {"time": 1286, "pitch": 82, "duration": 4, "velocity": 89}, {"time": 1292, "pitch": 83, "duration": 4, "velocity": 87}, {"time": 1298, "pitch": 82, "duration": 4, "velocity": 87}, {"time": 1304, "pitch": 80, "duration": 9, "velocity": 88}, {"time": 1322, "pitch": 78, "duration": 15, "velocity": 91}, {"time": 1340, "pitch": 80, "duration": 4, "velocity": 87}, {"time": 1346, "pitch": 78, "duration": 20, "velocity": 88}, {"time": 1370, "pitch": 75, "duration": 5, "velocity": 96}, {"time": 1376, "pitch": 75, "duration": 5, "velocity": 96}, {"time": 1382, "pitch": 76, "duration": 5, "velocity": 89}, {"time": 1388, "pitch": 78, "duration": 4, "velocity": 91}, {"time": 1394, "pitch": 80, "duration": 4, "velocity": 87}, {"time": 1400, "pitch": 78, "duration": 9, "velocity": 89}, {"time": 1412, "pitch": 83, "duration": 4, "velocity": 89}, {"time": 1418, "pitch": 78, "duration": 7, "velocity": 89}, {"time": 1430, "pitch": 76, "duration": 5, "velocity": 91}, {"time": 1436, "pitch": 73, "duration": 5, "velocity": 96}, {"time": 1442, "pitch": 76, "duration": 5, "velocity": 91}, {"time": 1448, "pitch": 75, "duration": 14, "velocity": 90}, {"time": 1466, "pitch": 71, "duration": 5, "velocity": 89}, {"time": 1472, "pitch": 71, "duration": 5, "velocity": 92}, {"time": 1478, "pitch": 73, "duration": 4, "velocity": 96}, {"time": 1484, "pitch": 75, "duration": 4, "velocity": 90}, {"time": 1490, "pitch": 76, "duration": 5, "velocity": 89}, {"time": 1496, "pitch": 78, "duration": 9, "velocity": 87}, {"time": 1508, "pitch": 73, "duration": 10, "velocity": 99}, {"time": 1520, "pitch": 76, "duration": 5, "velocity": 87}, {"time": 1526, "pitch": 75, "duration": 5, "velocity": 90}, {"time": 1532, "pitch": 73, "duration": 5, "velocity": 101}, {"time": 1538, "pitch": 75, "duration": 18, "velocity": 89}, {"time": 1562, "pitch": 75, "duration": 4, "velocity": 96}, {"time": 1568, "pitch": 75, "duration": 5, "velocity": 96}, {"time": 1574, "pitch": 76, "duration": 4, "velocity": 89}, {"time": 1580, "pitch": 78, "duration": 4, "velocity": 87}, {"time": 1586, "pitch": 80, "duration": 4, "velocity": 87}, {"time": 1592, "pitch": 82, "duration": 8, "velocity": 88}, {"time": 1604, "pitch": 75, "duration": 8, "velocity": 94}, {"time": 1616, "pitch": 75, "duration": 4, "velocity": 94}, {"time": 1622, "pitch": 82, "duration": 11, "velocity": 101}, {"time": 1634, "pitch": 83, "duration": 17, "velocity": 92}, {"time": 1658, "pitch": 80, "duration": 6, "velocity": 89}, {"time": 1664, "pitch": 78, "duration": 5, "velocity": 86}, {"time": 1670, "pitch": 80, "duration": 5, "velocity": 86}, {"time": 1676, "pitch": 78, "duration": 4, "velocity": 91}, {"time": 1682, "pitch": 80, "duration": 4, "velocity": 87}, {"time": 1688, "pitch": 78, "duration": 17, "velocity": 94}, {"time": 1706, "pitch": 73, "duration": 36, "velocity": 101}, {"time": 1772, "pitch": 73, "duration": 11, "velocity": 99}, {"time": 1784, "pitch": 71, "duration": 10, "velocity": 88}, {"time": 1982, "pitch": 75, "duration": 3, "velocity": 90}, {"time": 1985, "pitch": 73, "duration": 2, "velocity": 96}, {"time": 1988, "pitch": 75, "duration": 5, "velocity": 92}, {"time": 1994, "pitch": 73, "duration": 2, "velocity": 96}, {"time": 1997, "pitch": 75, "duration": 10, "velocity": 92}, {"time": 2012, "pitch": 73, "duration": 3, "velocity": 91}, {"time": 2018, "pitch": 73, "duration": 3, "velocity": 91}, {"time": 2021, "pitch": 71, "duration": 3, "velocity": 86}, {"time": 2024, "pitch": 73, "duration": 5, "velocity": 92}, {"time": 2030, "pitch": 71, "duration": 13, "velocity": 88}, {"time": 2066, "pitch": 73, "duration": 3, "velocity": 96}, {"time": 2072, "pitch": 75, "duration": 3, "velocity": 89}, {"time": 2075, "pitch": 73, "duration": 2, "velocity": 92}, {"time": 2078, "pitch": 75, "duration": 2, "velocity": 89}, {"time": 2081, "pitch": 73, "duration": 2, "velocity": 86}, {"time": 2084, "pitch": 75, "duration": 4, "velocity": 92}, {"time": 2090, "pitch": 78, "duration": 4, "velocity": 86}, {"time": 2102, "pitch": 76, "duration": 5, "velocity": 86}, {"time": 2108, "pitch": 75, "duration": 4, "velocity": 92}, {"time": 2114, "pitch": 73, "duration": 2, "velocity": 92}, {"time": 2117, "pitch": 76, "duration": 8, "velocity": 90}, {"time": 2126, "pitch": 75, "duration": 19, "velocity": 88}, {"time": 2174, "pitch": 78, "duration": 2, "velocity": 87}, {"time": 2177, "pitch": 80, "duration": 2, "velocity": 87}, {"time": 2180, "pitch": 80, "duration": 4, "velocity": 88}, {"time": 2186, "pitch": 80, "duration": 2, "velocity": 91}, {"time": 2189, "pitch": 78, "duration": 8, "velocity": 92}, {"time": 2198, "pitch": 71, "duration": 8, "velocity": 91}, {"time": 2228, "pitch": 73, "duration": 8, "velocity": 91}, {"time": 2237, "pitch": 75, "duration": 2, "velocity": 86}, {"time": 2240, "pitch": 73, "duration": 5, "velocity": 92}, {"time": 2246, "pitch": 71, "duration": 6, "velocity": 87}, {"time": 2255, "pitch": 73, "duration": 2, "velocity": 96}, {"time": 2258, "pitch": 75, "duration": 2, "velocity": 99}, {"time": 2261, "pitch": 76, "duration": 2, "velocity": 89}, {"time": 2264, "pitch": 78, "duration": 4, "velocity": 88}, {"time": 2270, "pitch": 83, "duration": 3, "velocity": 89}, {"time": 2273, "pitch": 83, "duration": 6, "velocity": 89}, {"time": 2282, "pitch": 78, "duration": 3, "velocity": 87}, {"time": 2285, "pitch": 78, "duration": 3, "velocity": 94}, {"time": 2288, "pitch": 80, "duration": 3, "velocity": 91}, {"time": 2291, "pitch": 78, "duration": 3, "velocity": 91}, {"time": 2294, "pitch": 78, "duration": 6, "velocity": 91}, {"time": 2300, "pitch": 75, "duration": 5, "velocity": 92}, {"time": 2306, "pitch": 73, "duration": 4, "velocity": 91}, {"time": 2312, "pitch": 73, "duration": 5, "velocity": 99}, {"time": 2318, "pitch": 71, "duration": 25, "velocity": 87}, {"time": 2378, "pitch": 75, "duration": 5, "velocity": 96}, {"time": 2384, "pitch": 75, "duration": 5, "velocity": 96}, {"time": 2390, "pitch": 76, "duration": 5, "velocity": 89}, {"time": 2396, "pitch": 78, "duration": 4, "velocity": 91}, {"time": 2402, "pitch": 80, "duration": 4, "velocity": 87}, {"time": 2408, "pitch": 78, "duration": 9, "velocity": 89}, {"time": 2420, "pitch": 83, "duration": 4, "velocity": 89}, {"time": 2426, "pitch": 78, "duration": 7, "velocity": 89}, {"time": 2438, "pitch": 76, "duration": 5, "velocity": 91}, {"time": 2444, "pitch": 73, "duration": 5, "velocity": 96}, {"time": 2450, "pitch": 76, "duration": 5, "velocity": 91}, {"time": 2456, "pitch": 75, "duration": 14, "velocity": 90}, {"time": 2474, "pitch": 71, "duration": 5, "velocity": 89}, {"time": 2480, "pitch": 71, "duration": 5, "velocity": 92}, {"time": 2486, "pitch": 73, "duration": 4, "velocity": 96}, {"time": 2492, "pitch": 75, "duration": 4, "velocity": 90}, {"time": 2498, "pitch": 76, "duration": 5, "velocity": 89}, {"time": 2504, "pitch": 78, "duration": 9, "velocity": 87}, {"time": 2516, "pitch": 73, "duration": 10, "velocity": 99}, {"time": 2528, "pitch": 76, "duration": 5, "velocity": 87}, {"time": 2534, "pitch": 75, "duration": 5, "velocity": 90}, {"time": 2540, "pitch": 73, "duration": 5, "velocity": 101}, {"time": 2546, "pitch": 75, "duration": 18, "velocity": 89}, {"time": 2570, "pitch": 75, "duration": 4, "velocity": 96}, {"time": 2576, "pitch": 75, "duration": 5, "velocity": 96}, {"time": 2582, "pitch": 76, "duration": 4, "velocity": 89}, {"time": 2588, "pitch": 78, "duration": 4, "velocity": 87}, {"time": 2594, "pitch": 80, "duration": 4, "velocity": 87}, {"time": 2600, "pitch": 82, "duration": 8, "velocity": 88}, {"time": 2612, "pitch": 75, "duration": 8, "velocity": 94}, {"time": 2624, "pitch": 75, "duration": 4, "velocity": 94}, {"time": 2630, "pitch": 73, "duration": 11, "velocity": 101}, {"time": 2642, "pitch": 71, "duration": 17, "velocity": 92}, {"time": 2666, "pitch": 71, "duration": 5, "velocity": 91}, {"time": 2672, "pitch": 80, "duration": 4, "velocity": 87}, {"time": 2678, "pitch": 82, "duration": 4, "velocity": 89}, {"time": 2684, "pitch": 83, "duration": 4, "velocity": 87}, {"time": 2690, "pitch": 82, "duration": 4, "velocity": 87}, {"time": 2696, "pitch": 80, "duration": 9, "velocity": 88}, {"time": 2714, "pitch": 78, "duration": 15, "velocity": 91}, {"time": 2732, "pitch": 80, "duration": 4, "velocity": 87}, {"time": 2738, "pitch": 78, "duration": 20, "velocity": 88}, {"time": 2762, "pitch": 75, "duration": 5, "velocity": 96}, {"time": 2768, "pitch": 75, "duration": 5, "velocity": 96}, {"time": 2774, "pitch": 76, "duration": 5, "velocity": 89}, {"time": 2780, "pitch": 78, "duration": 4, "velocity": 91}, {"time": 2786, "pitch": 80, "duration": 4, "velocity": 87}, {"time": 2792, "pitch": 78, "duration": 9, "velocity": 89}, {"time": 2804, "pitch": 83, "duration": 4, "velocity": 89}, {"time": 2810, "pitch": 78, "duration": 7, "velocity": 89}, {"time": 2822, "pitch": 76, "duration": 5, "velocity": 91}, {"time": 2828, "pitch": 73, "duration": 5, "velocity": 96}, {"time": 2834, "pitch": 76, "duration": 5, "velocity": 91}, {"time": 2840, "pitch": 75, "duration": 14, "velocity": 90}, {"time": 2858, "pitch": 71, "duration": 5, "velocity": 89}, {"time": 2864, "pitch": 71, "duration": 5, "velocity": 92}, {"time": 2870, "pitch": 73, "duration": 4, "velocity": 96}, {"time": 2876, "pitch": 75, "duration": 4, "velocity": 90}, {"time": 2882, "pitch": 76, "duration": 5, "velocity": 89}, {"time": 2888, "pitch": 78, "duration": 9, "velocity": 87}, {"time": 2900, "pitch": 73, "duration": 10, "velocity": 99}, {"time": 2912, "pitch": 76, "duration": 5, "velocity": 87}, {"time": 2918, "pitch": 75, "duration": 5, "velocity": 90}, {"time": 2924, "pitch": 73, "duration": 5, "velocity": 101}, {"time": 2930, "pitch": 75, "duration": 18, "velocity": 89}, {"time": 2954, "pitch": 75, "duration": 4, "velocity": 96}, {"time": 2960, "pitch": 75, "duration": 5, "velocity": 96}, {"time": 2966, "pitch": 76, "duration": 4, "velocity": 89}, {"time": 2972, "pitch": 78, "duration": 4, "velocity": 87}, {"time": 2978, "pitch": 80, "duration": 4, "velocity": 87}, {"time": 2984, "pitch": 82, "duration": 8, "velocity": 88}, {"time": 2996, "pitch": 75, "duration": 8, "velocity": 94}, {"time": 3008, "pitch": 75, "duration": 4, "velocity": 94}, {"time": 3014, "pitch": 82, "duration": 11, "velocity": 101}, {"time": 3026, "pitch": 83, "duration": 17, "velocity": 92}, {"time": 3050, "pitch": 80, "duration": 6, "velocity": 89}, {"time": 3056, "pitch": 78, "duration": 5, "velocity": 86}, {"time": 3062, "pitch": 80, "duration": 5, "velocity": 86}, {"time": 3068, "pitch": 78, "duration": 4, "velocity": 91}, {"time": 3074, "pitch": 80, "duration": 4, "velocity": 87}, {"time": 3080, "pitch": 78, "duration": 17, "velocity": 94}, {"time": 3098, "pitch": 73, "duration": 24, "velocity": 101}, {"time": 3122, "pitch": 75, "duration": 10, "velocity": 99}, {"time": 3134, "pitch": 83, "duration": 24, "velocity": 92}, {"time": 3530, "pitch": 75, "duration": 5, "velocity": 96}, {"time": 3536, "pitch": 75, "duration": 5, "velocity": 96}, {"time": 3542, "pitch": 76, "duration": 5, "velocity": 89}, {"time": 3548, "pitch": 78, "duration": 4, "velocity": 91}, {"time": 3554, "pitch": 80, "duration": 4, "velocity": 87}, {"time": 3560, "pitch": 78, "duration": 9, "velocity": 89}, {"time": 3572, "pitch": 83, "duration": 4, "velocity": 89}, {"time": 3578, "pitch": 78, "duration": 7, "velocity": 89}, {"time": 3590, "pitch": 76, "duration": 5, "velocity": 91}, {"time": 3596, "pitch": 73, "duration": 5, "velocity": 96}, {"time": 3602, "pitch": 76, "duration": 5, "velocity": 91}, {"time": 3608, "pitch": 75, "duration": 14, "velocity": 90}, {"time": 3626, "pitch": 71, "duration": 5, "velocity": 89}, {"time": 3632, "pitch": 71, "duration": 5, "velocity": 92}, {"time": 3638, "pitch": 73, "duration": 4, "velocity": 96}, {"time": 3644, "pitch": 75, "duration": 4, "velocity": 90}, {"time": 3650, "pitch": 76, "duration": 5, "velocity": 89}, {"time": 3656, "pitch": 78, "duration": 9, "velocity": 87}, {"time": 3668, "pitch": 73, "duration": 10, "velocity": 99}, {"time": 3680, "pitch": 76, "duration": 5, "velocity": 87}, {"time": 3686, "pitch": 75, "duration": 5, "velocity": 90}, {"time": 3692, "pitch": 73, "duration": 5, "velocity": 101}, {"time": 3698, "pitch": 75, "duration": 18, "velocity": 89}, {"time": 3722, "pitch": 75, "duration": 4, "velocity": 96}, {"time": 3728, "pitch": 75, "duration": 5, "velocity": 96}, {"time": 3734, "pitch": 76, "duration": 4, "velocity": 89}, {"time": 3740, "pitch": 78, "duration": 4, "velocity": 87}, {"time": 3746, "pitch": 80, "duration": 4, "velocity": 87}, {"time": 3752, "pitch": 82, "duration": 8, "velocity": 88}, {"time": 3764, "pitch": 75, "duration": 8, "velocity": 94}, {"time": 3776, "pitch": 75, "duration": 4, "velocity": 94}, {"time": 3782, "pitch": 73, "duration": 11, "velocity": 101}, {"time": 3794, "pitch": 71, "duration": 17, "velocity": 92}, {"time": 3818, "pitch": 71, "duration": 5, "velocity": 91}, {"time": 3824, "pitch": 80, "duration": 4, "velocity": 87}, {"time": 3830, "pitch": 82, "duration": 4, "velocity": 89}, {"time": 3836, "pitch": 83, "duration": 4, "velocity": 87}, {"time": 3842, "pitch": 82, "duration": 4, "velocity": 87}, {"time": 3848, "pitch": 80, "duration": 9, "velocity": 88}, {"time": 3866, "pitch": 78, "duration": 15, "velocity": 91}, {"time": 3884, "pitch": 80, "duration": 4, "velocity": 87}, {"time": 3890, "pitch": 78, "duration": 20, "velocity": 88}, {"time": 3914, "pitch": 75, "duration": 5, "velocity": 96}, {"time": 3920, "pitch": 75, "duration": 5, "velocity": 96}, {"time": 3926, "pitch": 76, "duration": 5, "velocity": 89}, {"time": 3932, "pitch": 78, "duration": 4, "velocity": 91}, {"time": 3938, "pitch": 80, "duration": 4, "velocity": 87}, {"time": 3944, "pitch": 78, "duration": 9, "velocity": 89}, {"time": 3956, "pitch": 83, "duration": 4, "velocity": 89}, {"time": 3962, "pitch": 78, "duration": 7, "velocity": 89}, {"time": 3974, "pitch": 76, "duration": 5, "velocity": 91}, {"time": 3980, "pitch": 73, "duration": 5, "velocity": 96}, {"time": 3986, "pitch": 76, "duration": 5, "velocity": 91}, {"time": 3992, "pitch": 75, "duration": 14, "velocity": 90}, {"time": 4010, "pitch": 71, "duration": 5, "velocity": 89}, {"time": 4016, "pitch": 71, "duration": 5, "velocity": 92}, {"time": 4022, "pitch": 73, "duration": 4, "velocity": 96}, {"time": 4028, "pitch": 75, "duration": 4, "velocity": 90}, {"time": 4034, "pitch": 76, "duration": 5, "velocity": 89}, {"time": 4040, "pitch": 78, "duration": 9, "velocity": 87}, {"time": 4052, "pitch": 73, "duration": 10, "velocity": 99}, {"time": 4064, "pitch": 76, "duration": 5, "velocity": 87}, {"time": 4070, "pitch": 75, "duration": 5, "velocity": 90}, {"time": 4076, "pitch": 73, "duration": 5, "velocity": 101}, {"time": 4082, "pitch": 75, "duration": 18, "velocity": 89}, {"time": 4106, "pitch": 75, "duration": 4, "velocity": 96}, {"time": 4112, "pitch": 75, "duration": 5, "velocity": 96}, {"time": 4118, "pitch": 76, "duration": 4, "velocity": 89}, {"time": 4124, "pitch": 78, "duration": 4, "velocity": 87}, {"time": 4130, "pitch": 80, "duration": 4, "velocity": 87}, {"time": 4136, "pitch": 82, "duration": 8, "velocity": 88}, {"time": 4148, "pitch": 75, "duration": 8, "velocity": 94}, {"time": 4160, "pitch": 75, "duration": 4, "velocity": 94}, {"time": 4166, "pitch": 82, "duration": 11, "velocity": 101}, {"time": 4178, "pitch": 83, "duration": 17, "velocity": 92}, {"time": 4202, "pitch": 80, "duration": 6, "velocity": 89}, {"time": 4208, "pitch": 78, "duration": 5, "velocity": 86}, {"time": 4214, "pitch": 80, "duration": 5, "velocity": 86}, {"time": 4220, "pitch": 78, "duration": 4, "velocity": 91}, {"time": 4226, "pitch": 80, "duration": 4, "velocity": 87}, {"time": 4232, "pitch": 78, "duration": 17, "velocity": 94}, {"time": 4250, "pitch": 73, "duration": 24, "velocity": 101}, {"time": 4316, "pitch": 73, "duration": 14, "velocity": 96}, {"time": 4334, "pitch": 71, "duration": 17, "velocity": 87}]}, {"program": 0, "is_drum": false, "name": "PIANO", "notes": [{"time": 8, "pitch": 59, "duration": 15, "velocity": 85}, {"time": 8, "pitch": 71, "duration": 9, "velocity": 78}, {"time": 8, "pitch": 75, "duration": 9, "velocity": 86}, {"time": 14, "pitch": 66, "duration": 18, "velocity": 80}, {"time": 20, "pitch": 71, "duration": 3, "velocity": 87}, {"time": 20, "pitch": 75, "duration": 3, "velocity": 87}, {"time": 26, "pitch": 58, "duration": 21, "velocity": 85}, {"time": 26, "pitch": 70, "duration": 16, "velocity": 85}, {"time": 26, "pitch": 73, "duration": 16, "velocity": 85}, {"time": 38, "pitch": 66, "duration": 8, "velocity": 69}, {"time": 44, "pitch": 70, "duration": 3, "velocity": 81}, {"time": 44, "pitch": 73, "duration": 3, "velocity": 80}, {"time": 44, "pitch": 78, "duration": 3, "velocity": 78}, {"time": 50, "pitch": 56, "duration": 49, "velocity": 85}, {"time": 50, "pitch": 68, "duration": 17, "velocity": 85}, {"time": 50, "pitch": 71, "duration": 15, "velocity": 86}, {"time": 62, "pitch": 63, "duration": 15, "velocity": 71}, {"time": 68, "pitch": 71, "duration": 5, "velocity": 83}, {"time": 68, "pitch": 75, "duration": 5, "velocity": 87}, {"time": 74, "pitch": 68, "duration": 19, "velocity": 72}, {"time": 86, "pitch": 63, "duration": 9, "velocity": 69}, {"time": 92, "pitch": 71, "duration": 7, "velocity": 85}, {"time": 92, "pitch": 75, "duration": 7, "velocity": 85}, {"time": 92, "pitch": 80, "duration": 6, "velocity": 85}, {"time": 98, "pitch": 68, "duration": 3, "velocity": 78}, {"time": 104, "pitch": 59, "duration": 19, "velocity": 87}, {"time": 104, "pitch": 71, "duration": 6, "velocity": 79}, {"time": 110, "pitch": 66, "duration": 20, "velocity": 76}, {"time": 116, "pitch": 71, "duration": 3, "velocity": 85}, {"time": 116, "pitch": 75, "duration": 8, "velocity": 86}, {"time": 122, "pitch": 71, "duration": 4, "velocity": 85}, {"time": 128, "pitch": 58, "duration": 15, "velocity": 85}, {"time": 128, "pitch": 70, "duration": 12, "velocity": 88}, {"time": 134, "pitch": 73, "duration": 8, "velocity": 85}, {"time": 140, "pitch": 78, "duration": 4, "velocity": 86}, {"time": 146, "pitch": 56, "duration": 54, "velocity": 81}, {"time": 146, "pitch": 68, "duration": 54, "velocity": 89}, {"time": 146, "pitch": 71, "duration": 53, "velocity": 79}, {"time": 196, "pitch": 71, "duration": 3, "velocity": 74}, {"time": 197, "pitch": 75, "duration": 37, "velocity": 85}, {"time": 198, "pitch": 59, "duration": 41, "velocity": 86}, {"time": 199, "pitch": 78, "duration": 36, "velocity": 74}, {"time": 247, "pitch": 68, "duration": 11, "velocity": 70}, {"time": 248, "pitch": 71, "duration": 14, "velocity": 80}, {"time": 249, "pitch": 56, "duration": 38, "velocity": 85}, {"time": 249, "pitch": 75, "duration": 16, "velocity": 76}, {"time": 255, "pitch": 63, "duration": 30, "velocity": 72}, {"time": 261, "pitch": 68, "duration": 5, "velocity": 72}, {"time": 267, "pitch": 71, "duration": 15, "velocity": 81}, {"time": 267, "pitch": 68, "duration": 16, "velocity": 72}, {"time": 294, "pitch": 71, "duration": 10, "velocity": 70}, {"time": 296, "pitch": 75, "duration": 14, "velocity": 84}, {"time": 296, "pitch": 59, "duration": 23, "velocity": 88}, {"time": 297, "pitch": 78, "duration": 13, "velocity": 72}, {"time": 302, "pitch": 66, "duration": 15, "velocity": 73}, {"time": 308, "pitch": 71, "duration": 7, "velocity": 69}, {"time": 342, "pitch": 75, "duration": 16, "velocity": 80}, {"time": 343, "pitch": 71, "duration": 15, "velocity": 70}, {"time": 344, "pitch": 56, "duration": 34, "velocity": 85}, {"time": 344, "pitch": 68, "duration": 9, "velocity": 74}, {"time": 350, "pitch": 63, "duration": 25, "velocity": 70}, {"time": 356, "pitch": 68, "duration": 19, "velocity": 80}, {"time": 362, "pitch": 71, "duration": 13, "velocity": 79}, {"time": 362, "pitch": 75, "duration": 12, "velocity": 80}, {"time": 362, "pitch": 80, "duration": 12, "velocity": 80}, {"time": 388, "pitch": 71, "duration": 12, "velocity": 72}, {"time": 389, "pitch": 68, "duration": 11, "velocity": 77}, {"time": 391, "pitch": 64, "duration": 8, "velocity": 78}, {"time": 392, "pitch": 52, "duration": 18, "velocity": 85}, {"time": 398, "pitch": 59, "duration": 13, "velocity": 74}, {"time": 404, "pitch": 64, "duration": 5, "velocity": 94}, {"time": 416, "pitch": 66, "duration": 9, "velocity": 81}, {"time": 417, "pitch": 70, "duration": 9, "velocity": 83}, {"time": 417, "pitch": 54, "duration": 18, "velocity": 86}, {"time": 422, "pitch": 61, "duration": 11, "velocity": 75}, {"time": 429, "pitch": 66, "duration": 7, "velocity": 99}, {"time": 439, "pitch": 70, "duration": 14, "velocity": 74}, {"time": 439, "pitch": 73, "duration": 13, "velocity": 82}, {"time": 440, "pitch": 58, "duration": 13, "velocity": 85}, {"time": 440, "pitch": 78, "duration": 14, "velocity": 81}, {"time": 462, "pitch": 68, "duration": 8, "velocity": 74}, {"time": 463, "pitch": 71, "duration": 7, "velocity": 77}, {"time": 464, "pitch": 56, "duration": 9, "velocity": 85}, {"time": 464, "pitch": 75, "duration": 11, "velocity": 85}, {"time": 476, "pitch": 66, "duration": 6, "velocity": 80}, {"time": 476, "pitch": 70, "duration": 6, "velocity": 80}, {"time": 476, "pitch": 54, "duration": 7, "velocity": 82}, {"time": 488, "pitch": 64, "duration": 12, "velocity": 76}, {"time": 488, "pitch": 68, "duration": 8, "velocity": 80}, {"time": 488, "pitch": 52, "duration": 19, "velocity": 86}, {"time": 494, "pitch": 59, "duration": 12, "velocity": 72}, {"time": 500, "pitch": 71, "duration": 7, "velocity": 85}, {"time": 500, "pitch": 68, "duration": 6, "velocity": 84}, {"time": 512, "pitch": 70, "duration": 10, "velocity": 81}, {"time": 512, "pitch": 66, "duration": 8, "velocity": 80}, {"time": 512, "pitch": 54, "duration": 17, "velocity": 86}, {"time": 518, "pitch": 61, "duration": 10, "velocity": 78}, {"time": 524, "pitch": 66, "duration": 7, "velocity": 87}, {"time": 530, "pitch": 70, "duration": 6, "velocity": 89}, {"time": 536, "pitch": 73, "duration": 14, "velocity": 81}, {"time": 536, "pitch": 61, "duration": 45, "velocity": 86}, {"time": 542, "pitch": 64, "duration": 38, "velocity": 71}, {"time": 548, "pitch": 68, "duration": 17, "velocity": 81}, {"time": 554, "pitch": 76, "duration": 16, "velocity": 86}, {"time": 571, "pitch": 68, "duration": 4, "velocity": 85}, {"time": 572, "pitch": 73, "duration": 11, "velocity": 85}, {"time": 578, "pitch": 68, "duration": 5, "velocity": 85}, {"time": 584, "pitch": 59, "duration": 41, "velocity": 88}, {"time": 584, "pitch": 71, "duration": 14, "velocity": 82}, {"time": 584, "pitch": 75, "duration": 9, "velocity": 87}, {"time": 590, "pitch": 66, "duration": 21, "velocity": 75}, {"time": 596, "pitch": 75, "duration": 10, "velocity": 88}, {"time": 596, "pitch": 78, "duration": 10, "velocity": 88}, {"time": 602, "pitch": 71, "duration": 2, "velocity": 62}, {"time": 608, "pitch": 75, "duration": 8, "velocity": 88}, {"time": 620, "pitch": 71, "duration": 3, "velocity": 89}, {"time": 620, "pitch": 78, "duration": 6, "velocity": 88}, {"time": 626, "pitch": 71, "duration": 3, "velocity": 89}, {"time": 632, "pitch": 56, "duration": 44, "velocity": 86}, {"time": 632, "pitch": 68, "duration": 10, "velocity": 80}, {"time": 632, "pitch": 71, "duration": 9, "velocity": 82}, {"time": 638, "pitch": 63, "duration": 36, "velocity": 72}, {"time": 644, "pitch": 68, "duration": 4, "velocity": 83}, {"time": 644, "pitch": 71, "duration": 5, "velocity": 81}, {"time": 656, "pitch": 71, "duration": 4, "velocity": 74}, {"time": 656, "pitch": 75, "duration": 3, "velocity": 81}, {"time": 668, "pitch": 68, "duration": 3, "velocity": 85}, {"time": 668, "pitch": 71, "duration": 7, "velocity": 90}, {"time": 668, "pitch": 75, "duration": 7, "velocity": 91}, {"time": 680, "pitch": 59, "duration": 39, "velocity": 86}, {"time": 680, "pitch": 66, "duration": 5, "velocity": 85}, {"time": 680, "pitch": 71, "duration": 9, "velocity": 84}, {"time": 686, "pitch": 66, "duration": 5, "velocity": 79}, {"time": 692, "pitch": 66, "duration": 1, "velocity": 59}, {"time": 692, "pitch": 71, "duration": 5, "velocity": 92}, {"time": 692, "pitch": 75, "duration": 5, "velocity": 90}, {"time": 710, "pitch": 66, "duration": 3, "velocity": 85}, {"time": 716, "pitch": 66, "duration": 3, "velocity": 86}, {"time": 716, "pitch": 71, "duration": 9, "velocity": 88}, {"time": 716, "pitch": 75, "duration": 9, "velocity": 90}, {"time": 722, "pitch": 66, "duration": 3, "velocity": 85}, {"time": 728, "pitch": 56, "duration": 41, "velocity": 86}, {"time": 728, "pitch": 68, "duration": 9, "velocity": 84}, {"time": 728, "pitch": 71, "duration": 6, "velocity": 85}, {"time": 734, "pitch": 63, "duration": 9, "velocity": 69}, {"time": 740, "pitch": 71, "duration": 4, "velocity": 87}, {"time": 740, "pitch": 75, "duration": 5, "velocity": 86}, {"time": 746, "pitch": 63, "duration": 9, "velocity": 65}, {"time": 752, "pitch": 68, "duration": 4, "velocity": 60}, {"time": 752, "pitch": 71, "duration": 8, "velocity": 79}, {"time": 758, "pitch": 63, "duration": 9, "velocity": 69}, {"time": 764, "pitch": 68, "duration": 3, "velocity": 87}, {"time": 764, "pitch": 71, "duration": 3, "velocity": 89}, {"time": 770, "pitch": 66, "duration": 3, "velocity": 91}, {"time": 776, "pitch": 52, "duration": 17, "velocity": 85}, {"time": 776, "pitch": 68, "duration": 10, "velocity": 81}, {"time": 776, "pitch": 71, "duration": 9, "velocity": 86}, {"time": 782, "pitch": 59, "duration": 11, "velocity": 72}, {"time": 788, "pitch": 71, "duration": 8, "velocity": 87}, {"time": 788, "pitch": 76, "duration": 8, "velocity": 86}, {"time": 794, "pitch": 68, "duration": 5, "velocity": 86}, {"time": 800, "pitch": 56, "duration": 19, "velocity": 86}, {"time": 800, "pitch": 68, "duration": 9, "velocity": 85}, {"time": 800, "pitch": 71, "duration": 8, "velocity": 85}, {"time": 806, "pitch": 63, "duration": 13, "velocity": 77}, {"time": 812, "pitch": 68, "duration": 4, "velocity": 86}, {"time": 812, "pitch": 71, "duration": 7, "velocity": 88}, {"time": 812, "pitch": 75, "duration": 9, "velocity": 90}, {"time": 824, "pitch": 54, "duration": 22, "velocity": 85}, {"time": 824, "pitch": 66, "duration": 10, "velocity": 81}, {"time": 824, "pitch": 70, "duration": 9, "velocity": 85}, {"time": 830, "pitch": 61, "duration": 14, "velocity": 76}, {"time": 836, "pitch": 66, "duration": 4, "velocity": 87}, {"time": 836, "pitch": 70, "duration": 7, "velocity": 90}, {"time": 836, "pitch": 73, "duration": 7, "velocity": 86}, {"time": 848, "pitch": 59, "duration": 6, "velocity": 87}, {"time": 848, "pitch": 71, "duration": 4, "velocity": 86}, {"time": 848, "pitch": 75, "duration": 5, "velocity": 94}, {"time": 860, "pitch": 54, "duration": 9, "velocity": 85}, {"time": 860, "pitch": 70, "duration": 8, "velocity": 86}, {"time": 860, "pitch": 73, "duration": 7, "velocity": 84}, {"time": 860, "pitch": 78, "duration": 9, "velocity": 83}, {"time": 872, "pitch": 52, "duration": 21, "velocity": 86}, {"time": 872, "pitch": 64, "duration": 9, "velocity": 81}, {"time": 872, "pitch": 68, "duration": 7, "velocity": 80}, {"time": 878, "pitch": 59, "duration": 16, "velocity": 79}, {"time": 884, "pitch": 64, "duration": 9, "velocity": 81}, {"time": 884, "pitch": 68, "duration": 9, "velocity": 86}, {"time": 884, "pitch": 71, "duration": 10, "velocity": 81}, {"time": 896, "pitch": 54, "duration": 15, "velocity": 85}, {"time": 896, "pitch": 66, "duration": 11, "velocity": 86}, {"time": 896, "pitch": 70, "duration": 8, "velocity": 85}, {"time": 902, "pitch": 61, "duration": 8, "velocity": 71}, {"time": 908, "pitch": 70, "duration": 3, "velocity": 89}, {"time": 908, "pitch": 73, "duration": 4, "velocity": 86}, {"time": 920, "pitch": 59, "duration": 44, "velocity": 87}, {"time": 920, "pitch": 71, "duration": 9, "velocity": 83}, {"time": 920, "pitch": 75, "duration": 8, "velocity": 87}, {"time": 926, "pitch": 66, "duration": 9, "velocity": 74}, {"time": 932, "pitch": 71, "duration": 13, "velocity": 89}, {"time": 932, "pitch": 78, "duration": 9, "velocity": 86}, {"time": 938, "pitch": 66, "duration": 20, "velocity": 76}, {"time": 944, "pitch": 75, "duration": 7, "velocity": 87}, {"time": 944, "pitch": 78, "duration": 7, "velocity": 85}, {"time": 944, "pitch": 83, "duration": 7, "velocity": 85}, {"time": 950, "pitch": 71, "duration": 4, "velocity": 86}, {"time": 956, "pitch": 71, "duration": 12, "velocity": 88}, {"time": 956, "pitch": 75, "duration": 12, "velocity": 99}, {"time": 956, "pitch": 78, "duration": 12, "velocity": 89}, {"time": 962, "pitch": 66, "duration": 7, "velocity": 85}, {"time": 968, "pitch": 54, "duration": 2, "velocity": 86}, {"time": 968, "pitch": 66, "duration": 1, "velocity": 85}, {"time": 968, "pitch": 73, "duration": 5, "velocity": 81}, {"time": 974, "pitch": 66, "duration": 33, "velocity": 83}, {"time": 980, "pitch": 73, "duration": 26, "velocity": 82}, {"time": 986, "pitch": 78, "duration": 4, "velocity": 81}, {"time": 986, "pitch": 85, "duration": 4, "velocity": 86}, {"time": 992, "pitch": 78, "duration": 2, "velocity": 85}, {"time": 992, "pitch": 90, "duration": 2, "velocity": 78}, {"time": 1016, "pitch": 59, "duration": 22, "velocity": 87}, {"time": 1016, "pitch": 71, "duration": 11, "velocity": 87}, {"time": 1016, "pitch": 78, "duration": 6, "velocity": 82}, {"time": 1022, "pitch": 66, "duration": 17, "velocity": 77}, {"time": 1028, "pitch": 71, "duration": 1, "velocity": 69}, {"time": 1028, "pitch": 75, "duration": 4, "velocity": 90}, {"time": 1028, "pitch": 78, "duration": 3, "velocity": 86}, {"time": 1028, "pitch": 83, "duration": 8, "velocity": 86}, {"time": 1034, "pitch": 78, "duration": 4, "velocity": 83}, {"time": 1037, "pitch": 71, "duration": 2, "velocity": 87}, {"time": 1040, "pitch": 58, "duration": 17, "velocity": 87}, {"time": 1040, "pitch": 70, "duration": 9, "velocity": 94}, {"time": 1040, "pitch": 73, "duration": 10, "velocity": 87}, {"time": 1046, "pitch": 66, "duration": 11, "velocity": 81}, {"time": 1052, "pitch": 70, "duration": 3, "velocity": 79}, {"time": 1052, "pitch": 73, "duration": 6, "velocity": 83}, {"time": 1052, "pitch": 78, "duration": 8, "velocity": 88}, {"time": 1058, "pitch": 70, "duration": 3, "velocity": 85}, {"time": 1064, "pitch": 56, "duration": 19, "velocity": 86}, {"time": 1064, "pitch": 68, "duration": 10, "velocity": 82}, {"time": 1064, "pitch": 71, "duration": 9, "velocity": 81}, {"time": 1070, "pitch": 63, "duration": 12, "velocity": 79}, {"time": 1076, "pitch": 71, "duration": 2, "velocity": 96}, {"time": 1076, "pitch": 75, "duration": 4, "velocity": 96}, {"time": 1079, "pitch": 71, "duration": 4, "velocity": 85}, {"time": 1082, "pitch": 68, "duration": 3, "velocity": 87}, {"time": 1088, "pitch": 52, "duration": 16, "velocity": 85}, {"time": 1088, "pitch": 64, "duration": 11, "velocity": 82}, {"time": 1088, "pitch": 68, "duration": 9, "velocity": 86}, {"time": 1094, "pitch": 59, "duration": 10, "velocity": 80}, {"time": 1100, "pitch": 64, "duration": 3, "velocity": 83}, {"time": 1100, "pitch": 68, "duration": 7, "velocity": 90}, {"time": 1100, "pitch": 71, "duration": 7, "velocity": 87}, {"time": 1106, "pitch": 64, "duration": 2, "velocity": 89}, {"time": 1112, "pitch": 61, "duration": 18, "velocity": 94}, {"time": 1112, "pitch": 68, "duration": 4, "velocity": 86}, {"time": 1112, "pitch": 73, "duration": 8, "velocity": 86}, {"time": 1118, "pitch": 68, "duration": 8, "velocity": 86}, {"time": 1124, "pitch": 76, "duration": 7, "velocity": 94}, {"time": 1130, "pitch": 73, "duration": 3, "velocity": 91}, {"time": 1133, "pitch": 68, "duration": 2, "velocity": 86}, {"time": 1136, "pitch": 54, "duration": 19, "velocity": 86}, {"time": 1136, "pitch": 66, "duration": 10, "velocity": 90}, {"time": 1136, "pitch": 70, "duration": 8, "velocity": 86}, {"time": 1142, "pitch": 61, "duration": 13, "velocity": 81}, {"time": 1148, "pitch": 66, "duration": 2, "velocity": 80}, {"time": 1148, "pitch": 70, "duration": 5, "velocity": 92}, {"time": 1148, "pitch": 73, "duration": 8, "velocity": 88}, {"time": 1154, "pitch": 66, "duration": 3, "velocity": 90}, {"time": 1160, "pitch": 59, "duration": 23, "velocity": 86}, {"time": 1160, "pitch": 66, "duration": 4, "velocity": 89}, {"time": 1160, "pitch": 71, "duration": 7, "velocity": 86}, {"time": 1166, "pitch": 66, "duration": 4, "velocity": 88}, {"time": 1172, "pitch": 66, "duration": 4, "velocity": 94}, {"time": 1172, "pitch": 75, "duration": 5, "velocity": 91}, {"time": 1178, "pitch": 71, "duration": 3, "velocity": 88}, {"time": 1181, "pitch": 66, "duration": 2, "velocity": 90}, {"time": 1184, "pitch": 59, "duration": 16, "velocity": 89}, {"time": 1184, "pitch": 66, "duration": 4, "velocity": 92}, {"time": 1184, "pitch": 71, "duration": 7, "velocity": 86}, {"time": 1190, "pitch": 66, "duration": 4, "velocity": 88}, {"time": 1196, "pitch": 66, "duration": 3, "velocity": 94}, {"time": 1196, "pitch": 75, "duration": 4, "velocity": 90}, {"time": 1199, "pitch": 71, "duration": 4, "velocity": 86}, {"time": 1202, "pitch": 66, "duration": 3, "velocity": 92}, {"time": 1208, "pitch": 51, "duration": 23, "velocity": 86}, {"time": 1208, "pitch": 63, "duration": 8, "velocity": 86}, {"time": 1208, "pitch": 67, "duration": 7, "velocity": 86}, {"time": 1214, "pitch": 58, "duration": 9, "velocity": 83}, {"time": 1220, "pitch": 63, "duration": 5, "velocity": 99}, {"time": 1220, "pitch": 75, "duration": 7, "velocity": 96}, {"time": 1226, "pitch": 58, "duration": 5, "velocity": 87}, {"time": 1229, "pitch": 63, "duration": 2, "velocity": 99}, {"time": 1229, "pitch": 75, "duration": 1, "velocity": 77}, {"time": 1232, "pitch": 51, "duration": 14, "velocity": 89}, {"time": 1232, "pitch": 63, "duration": 7, "velocity": 106}, {"time": 1232, "pitch": 70, "duration": 7, "velocity": 86}, {"time": 1238, "pitch": 58, "duration": 7, "velocity": 86}, {"time": 1244, "pitch": 63, "duration": 3, "velocity": 94}, {"time": 1244, "pitch": 67, "duration": 4, "velocity": 90}, {"time": 1250, "pitch": 63, "duration": 3, "velocity": 102}, {"time": 1256, "pitch": 56, "duration": 22, "velocity": 85}, {"time": 1256, "pitch": 68, "duration": 9, "velocity": 81}, {"time": 1256, "pitch": 71, "duration": 9, "velocity": 82}, {"time": 1262, "pitch": 63, "duration": 16, "velocity": 89}, {"time": 1268, "pitch": 68, "duration": 4, "velocity": 89}, {"time": 1268, "pitch": 80, "duration": 5, "velocity": 86}, {"time": 1274, "pitch": 75, "duration": 4, "velocity": 86}, {"time": 1277, "pitch": 68, "duration": 2, "velocity": 83}, {"time": 1280, "pitch": 56, "duration": 15, "velocity": 86}, {"time": 1280, "pitch": 68, "duration": 8, "velocity": 85}, {"time": 1280, "pitch": 71, "duration": 8, "velocity": 86}, {"time": 1286, "pitch": 63, "duration": 9, "velocity": 86}, {"time": 1292, "pitch": 68, "duration": 3, "velocity": 91}, {"time": 1292, "pitch": 71, "duration": 4, "velocity": 99}, {"time": 1298, "pitch": 68, "duration": 3, "velocity": 91}, {"time": 1304, "pitch": 49, "duration": 2, "velocity": 89}, {"time": 1304, "pitch": 68, "duration": 5, "velocity": 88}, {"time": 1304, "pitch": 73, "duration": 6, "velocity": 86}, {"time": 1310, "pitch": 61, "duration": 17, "velocity": 85}, {"time": 1316, "pitch": 73, "duration": 6, "velocity": 90}, {"time": 1316, "pitch": 85, "duration": 9, "velocity": 91}, {"time": 1322, "pitch": 68, "duration": 5, "velocity": 85}, {"time": 1325, "pitch": 73, "duration": 6, "velocity": 90}, {"time": 1328, "pitch": 61, "duration": 15, "velocity": 91}, {"time": 1331, "pitch": 68, "duration": 9, "velocity": 88}, {"time": 1334, "pitch": 73, "duration": 4, "velocity": 94}, {"time": 1337, "pitch": 80, "duration": 2, "velocity": 87}, {"time": 1340, "pitch": 73, "duration": 7, "velocity": 102}, {"time": 1346, "pitch": 68, "duration": 2, "velocity": 85}, {"time": 1352, "pitch": 54, "duration": 23, "velocity": 87}, {"time": 1352, "pitch": 73, "duration": 5, "velocity": 86}, {"time": 1352, "pitch": 78, "duration": 4, "velocity": 80}, {"time": 1358, "pitch": 61, "duration": 8, "velocity": 89}, {"time": 1364, "pitch": 66, "duration": 8, "velocity": 90}, {"time": 1364, "pitch": 73, "duration": 7, "velocity": 89}, {"time": 1370, "pitch": 61, "duration": 5, "velocity": 85}, {"time": 1373, "pitch": 66, "duration": 2, "velocity": 68}, {"time": 1373, "pitch": 70, "duration": 2, "velocity": 86}, {"time": 1376, "pitch": 54, "duration": 19, "velocity": 86}, {"time": 1376, "pitch": 66, "duration": 7, "velocity": 86}, {"time": 1376, "pitch": 78, "duration": 8, "velocity": 86}, {"time": 1382, "pitch": 61, "duration": 10, "velocity": 87}, {"time": 1385, "pitch": 66, "duration": 4, "velocity": 85}, {"time": 1388, "pitch": 73, "duration": 4, "velocity": 88}, {"time": 1391, "pitch": 70, "duration": 3, "velocity": 96}, {"time": 1394, "pitch": 66, "duration": 5, "velocity": 90}, {"time": 1397, "pitch": 61, "duration": 4, "velocity": 96}, {"time": 1400, "pitch": 59, "duration": 22, "velocity": 87}, {"time": 1400, "pitch": 71, "duration": 11, "velocity": 87}, {"time": 1400, "pitch": 78, "duration": 6, "velocity": 82}, {"time": 1406, "pitch": 66, "duration": 17, "velocity": 77}, {"time": 1412, "pitch": 71, "duration": 1, "velocity": 69}, {"time": 1412, "pitch": 75, "duration": 4, "velocity": 90}, {"time": 1412, "pitch": 78, "duration": 3, "velocity": 86}, {"time": 1412, "pitch": 83, "duration": 8, "velocity": 86}, {"time": 1418, "pitch": 78, "duration": 4, "velocity": 83}, {"time": 1421, "pitch": 71, "duration": 2, "velocity": 87}, {"time": 1424, "pitch": 58, "duration": 17, "velocity": 87}, {"time": 1424, "pitch": 70, "duration": 9, "velocity": 94}, {"time": 1424, "pitch": 73, "duration": 10, "velocity": 87}, {"time": 1430, "pitch": 66, "duration": 11, "velocity": 81}, {"time": 1436, "pitch": 70, "duration": 3, "velocity": 79}, {"time": 1436, "pitch": 73, "duration": 6, "velocity": 83}, {"time": 1436, "pitch": 78, "duration": 8, "velocity": 88}, {"time": 1442, "pitch": 70, "duration": 3, "velocity": 85}, {"time": 1448, "pitch": 56, "duration": 19, "velocity": 86}, {"time": 1448, "pitch": 68, "duration": 10, "velocity": 82}, {"time": 1448, "pitch": 71, "duration": 9, "velocity": 81}, {"time": 1454, "pitch": 63, "duration": 12, "velocity": 79}, {"time": 1460, "pitch": 71, "duration": 2, "velocity": 96}, {"time": 1460, "pitch": 75, "duration": 4, "velocity": 96}, {"time": 1463, "pitch": 71, "duration": 4, "velocity": 85}, {"time": 1466, "pitch": 68, "duration": 3, "velocity": 87}, {"time": 1472, "pitch": 52, "duration": 16, "velocity": 85}, {"time": 1472, "pitch": 64, "duration": 11, "velocity": 82}, {"time": 1472, "pitch": 68, "duration": 9, "velocity": 86}, {"time": 1478, "pitch": 59, "duration": 10, "velocity": 80}, {"time": 1484, "pitch": 64, "duration": 3, "velocity": 83}, {"time": 1484, "pitch": 68, "duration": 7, "velocity": 90}, {"time": 1484, "pitch": 71, "duration": 7, "velocity": 87}, {"time": 1490, "pitch": 64, "duration": 2, "velocity": 89}, {"time": 1496, "pitch": 61, "duration": 18, "velocity": 94}, {"time": 1496, "pitch": 68, "duration": 4, "velocity": 86}, {"time": 1496, "pitch": 73, "duration": 8, "velocity": 86}, {"time": 1502, "pitch": 68, "duration": 8, "velocity": 86}, {"time": 1508, "pitch": 76, "duration": 7, "velocity": 94}, {"time": 1514, "pitch": 73, "duration": 3, "velocity": 91}, {"time": 1517, "pitch": 68, "duration": 2, "velocity": 86}, {"time": 1520, "pitch": 54, "duration": 19, "velocity": 86}, {"time": 1520, "pitch": 66, "duration": 10, "velocity": 90}, {"time": 1520, "pitch": 70, "duration": 8, "velocity": 86}, {"time": 1526, "pitch": 61, "duration": 13, "velocity": 81}, {"time": 1532, "pitch": 66, "duration": 2, "velocity": 80}, {"time": 1532, "pitch": 70, "duration": 5, "velocity": 92}, {"time": 1532, "pitch": 73, "duration": 8, "velocity": 88}, {"time": 1538, "pitch": 66, "duration": 3, "velocity": 90}, {"time": 1544, "pitch": 59, "duration": 23, "velocity": 86}, {"time": 1544, "pitch": 66, "duration": 4, "velocity": 89}, {"time": 1544, "pitch": 71, "duration": 7, "velocity": 86}, {"time": 1550, "pitch": 66, "duration": 4, "velocity": 88}, {"time": 1556, "pitch": 66, "duration": 4, "velocity": 94}, {"time": 1556, "pitch": 75, "duration": 5, "velocity": 91}, {"time": 1562, "pitch": 71, "duration": 3, "velocity": 88}, {"time": 1565, "pitch": 66, "duration": 2, "velocity": 90}, {"time": 1568, "pitch": 59, "duration": 16, "velocity": 89}, {"time": 1568, "pitch": 66, "duration": 4, "velocity": 92}, {"time": 1568, "pitch": 71, "duration": 7, "velocity": 86}, {"time": 1574, "pitch": 66, "duration": 4, "velocity": 88}, {"time": 1580, "pitch": 66, "duration": 3, "velocity": 94}, {"time": 1580, "pitch": 75, "duration": 4, "velocity": 90}, {"time": 1583, "pitch": 71, "duration": 4, "velocity": 86}, {"time": 1586, "pitch": 66, "duration": 3, "velocity": 92}, {"time": 1592, "pitch": 51, "duration": 23, "velocity": 86}, {"time": 1592, "pitch": 63, "duration": 8, "velocity": 86}, {"time": 1592, "pitch": 67, "duration": 7, "velocity": 86}, {"time": 1598, "pitch": 58, "duration": 9, "velocity": 83}, {"time": 1604, "pitch": 63, "duration": 5, "velocity": 99}, {"time": 1604, "pitch": 75, "duration": 7, "velocity": 96}, {"time": 1610, "pitch": 58, "duration": 5, "velocity": 87}, {"time": 1613, "pitch": 63, "duration": 2, "velocity": 99}, {"time": 1613, "pitch": 75, "duration": 1, "velocity": 77}, {"time": 1616, "pitch": 51, "duration": 14, "velocity": 89}, {"time": 1616, "pitch": 63, "duration": 7, "velocity": 106}, {"time": 1616, "pitch": 70, "duration": 7, "velocity": 86}, {"time": 1622, "pitch": 58, "duration": 7, "velocity": 86}, {"time": 1628, "pitch": 63, "duration": 3, "velocity": 94}, {"time": 1628, "pitch": 67, "duration": 4, "velocity": 90}, {"time": 1634, "pitch": 63, "duration": 3, "velocity": 102}, {"time": 1640, "pitch": 56, "duration": 22, "velocity": 85}, {"time": 1640, "pitch": 68, "duration": 9, "velocity": 81}, {"time": 1640, "pitch": 71, "duration": 9, "velocity": 82}, {"time": 1646, "pitch": 63, "duration": 16, "velocity": 89}, {"time": 1652, "pitch": 68, "duration": 4, "velocity": 89}, {"time": 1652, "pitch": 80, "duration": 5, "velocity": 86}, {"time": 1658, "pitch": 75, "duration": 4, "velocity": 86}, {"time": 1661, "pitch": 68, "duration": 2, "velocity": 83}, {"time": 1664, "pitch": 56, "duration": 15, "velocity": 86}, {"time": 1664, "pitch": 68, "duration": 8, "velocity": 85}, {"time": 1664, "pitch": 71, "duration": 8, "velocity": 86}, {"time": 1670, "pitch": 63, "duration": 9, "velocity": 86}, {"time": 1676, "pitch": 68, "duration": 3, "velocity": 91}, {"time": 1676, "pitch": 71, "duration": 4, "velocity": 99}, {"time": 1682, "pitch": 68, "duration": 3, "velocity": 91}, {"time": 1688, "pitch": 54, "duration": 2, "velocity": 86}, {"time": 1688, "pitch": 66, "duration": 4, "velocity": 86}, {"time": 1688, "pitch": 73, "duration": 4, "velocity": 84}, {"time": 1694, "pitch": 66, "duration": 37, "velocity": 85}, {"time": 1700, "pitch": 73, "duration": 17, "velocity": 96}, {"time": 1703, "pitch": 78, "duration": 4, "velocity": 90}, {"time": 1706, "pitch": 85, "duration": 3, "velocity": 99}, {"time": 1709, "pitch": 78, "duration": 3, "velocity": 87}, {"time": 1712, "pitch": 90, "duration": 5, "velocity": 88}, {"time": 1715, "pitch": 78, "duration": 3, "velocity": 76}, {"time": 1718, "pitch": 73, "duration": 10, "velocity": 79}, {"time": 1724, "pitch": 90, "duration": 3, "velocity": 86}, {"time": 1724, "pitch": 94, "duration": 4, "velocity": 87}, {"time": 1736, "pitch": 66, "duration": 20, "velocity": 87}, {"time": 1736, "pitch": 73, "duration": 21, "velocity": 85}, {"time": 1736, "pitch": 90, "duration": 5, "velocity": 84}, {"time": 1736, "pitch": 97, "duration": 5, "velocity": 83}, {"time": 1784, "pitch": 59, "duration": 12, "velocity": 88}, {"time": 1784, "pitch": 71, "duration": 8, "velocity": 86}, {"time": 1784, "pitch": 74, "duration": 8, "velocity": 90}, {"time": 1790, "pitch": 66, "duration": 6, "velocity": 71}, {"time": 1796, "pitch": 71, "duration": 3, "velocity": 87}, {"time": 1796, "pitch": 74, "duration": 3, "velocity": 99}, {"time": 1796, "pitch": 78, "duration": 3, "velocity": 86}, {"time": 1802, "pitch": 50, "duration": 19, "velocity": 88}, {"time": 1802, "pitch": 74, "duration": 8, "velocity": 80}, {"time": 1802, "pitch": 78, "duration": 8, "velocity": 61}, {"time": 1814, "pitch": 57, "duration": 7, "velocity": 58}, {"time": 1820, "pitch": 74, "duration": 3, "velocity": 94}, {"time": 1820, "pitch": 78, "duration": 5, "velocity": 90}, {"time": 1820, "pitch": 81, "duration": 6, "velocity": 87}, {"time": 1832, "pitch": 52, "duration": 16, "velocity": 87}, {"time": 1832, "pitch": 76, "duration": 7, "velocity": 86}, {"time": 1832, "pitch": 80, "duration": 6, "velocity": 83}, {"time": 1838, "pitch": 59, "duration": 10, "velocity": 67}, {"time": 1841, "pitch": 76, "duration": 2, "velocity": 89}, {"time": 1841, "pitch": 88, "duration": 3, "velocity": 86}, {"time": 1850, "pitch": 52, "duration": 21, "velocity": 85}, {"time": 1850, "pitch": 76, "duration": 8, "velocity": 80}, {"time": 1850, "pitch": 80, "duration": 7, "velocity": 86}, {"time": 1850, "pitch": 83, "duration": 6, "velocity": 85}, {"time": 1856, "pitch": 59, "duration": 7, "velocity": 64}, {"time": 1862, "pitch": 76, "duration": 7, "velocity": 99}, {"time": 1862, "pitch": 80, "duration": 7, "velocity": 99}, {"time": 1868, "pitch": 59, "duration": 3, "velocity": 79}, {"time": 1871, "pitch": 76, "duration": 2, "velocity": 91}, {"time": 1880, "pitch": 47, "duration": 12, "velocity": 85}, {"time": 1880, "pitch": 71, "duration": 6, "velocity": 85}, {"time": 1880, "pitch": 74, "duration": 6, "velocity": 94}, {"time": 1880, "pitch": 78, "duration": 7, "velocity": 85}, {"time": 1886, "pitch": 54, "duration": 7, "velocity": 73}, {"time": 1889, "pitch": 71, "duration": 3, "velocity": 87}, {"time": 1892, "pitch": 74, "duration": 2, "velocity": 87}, {"time": 1892, "pitch": 78, "duration": 2, "velocity": 86}, {"time": 1898, "pitch": 50, "duration": 12, "velocity": 94}, {"time": 1898, "pitch": 74, "duration": 5, "velocity": 86}, {"time": 1898, "pitch": 78, "duration": 6, "velocity": 89}, {"time": 1904, "pitch": 57, "duration": 6, "velocity": 76}, {"time": 1910, "pitch": 74, "duration": 4, "velocity": 76}, {"time": 1916, "pitch": 74, "duration": 2, "velocity": 90}, {"time": 1916, "pitch": 78, "duration": 2, "velocity": 87}, {"time": 1916, "pitch": 81, "duration": 3, "velocity": 89}, {"time": 1922, "pitch": 52, "duration": 8, "velocity": 89}, {"time": 1922, "pitch": 76, "duration": 8, "velocity": 86}, {"time": 1922, "pitch": 80, "duration": 9, "velocity": 89}, {"time": 1934, "pitch": 54, "duration": 40, "velocity": 88}, {"time": 1934, "pitch": 78, "duration": 39, "velocity": 87}, {"time": 1934, "pitch": 82, "duration": 39, "velocity": 92}, {"time": 1976, "pitch": 59, "duration": 41, "velocity": 88}, {"time": 1976, "pitch": 71, "duration": 14, "velocity": 82}, {"time": 1976, "pitch": 75, "duration": 9, "velocity": 87}, {"time": 1982, "pitch": 66, "duration": 21, "velocity": 75}, {"time": 1988, "pitch": 75, "duration": 10, "velocity": 88}, {"time": 1988, "pitch": 78, "duration": 10, "velocity": 88}, {"time": 1994, "pitch": 71, "duration": 2, "velocity": 62}, {"time": 2000, "pitch": 75, "duration": 8, "velocity": 88}, {"time": 2012, "pitch": 71, "duration": 3, "velocity": 89}, {"time": 2012, "pitch": 78, "duration": 6, "velocity": 88}, {"time": 2018, "pitch": 71, "duration": 3, "velocity": 89}, {"time": 2024, "pitch": 56, "duration": 44, "velocity": 86}, {"time": 2024, "pitch": 68, "duration": 10, "velocity": 80}, {"time": 2024, "pitch": 71, "duration": 9, "velocity": 82}, {"time": 2030, "pitch": 63, "duration": 36, "velocity": 72}, {"time": 2036, "pitch": 68, "duration": 4, "velocity": 83}, {"time": 2036, "pitch": 71, "duration": 5, "velocity": 81}, {"time": 2048, "pitch": 71, "duration": 4, "velocity": 74}, {"time": 2048, "pitch": 75, "duration": 3, "velocity": 81}, {"time": 2060, "pitch": 68, "duration": 3, "velocity": 85}, {"time": 2060, "pitch": 71, "duration": 7, "velocity": 90}, {"time": 2060, "pitch": 75, "duration": 7, "velocity": 91}, {"time": 2072, "pitch": 59, "duration": 39, "velocity": 86}, {"time": 2072, "pitch": 66, "duration": 5, "velocity": 85}, {"time": 2072, "pitch": 71, "duration": 9, "velocity": 84}, {"time": 2078, "pitch": 66, "duration": 5, "velocity": 79}, {"time": 2084, "pitch": 66, "duration": 1, "velocity": 59}, {"time": 2084, "pitch": 71, "duration": 5, "velocity": 92}, {"time": 2084, "pitch": 75, "duration": 5, "velocity": 90}, {"time": 2102, "pitch": 66, "duration": 3, "velocity": 85}, {"time": 2108, "pitch": 66, "duration": 3, "velocity": 86}, {"time": 2108, "pitch": 71, "duration": 9, "velocity": 88}, {"time": 2108, "pitch": 75, "duration": 9, "velocity": 90}, {"time": 2114, "pitch": 66, "duration": 3, "velocity": 85}, {"time": 2120, "pitch": 56, "duration": 41, "velocity": 86}, {"time": 2120, "pitch": 68, "duration": 9, "velocity": 84}, {"time": 2120, "pitch": 71, "duration": 6, "velocity": 85}, {"time": 2126, "pitch": 63, "duration": 9, "velocity": 69}, {"time": 2132, "pitch": 71, "duration": 4, "velocity": 87}, {"time": 2132, "pitch": 75, "duration": 5, "velocity": 86}, {"time": 2138, "pitch": 63, "duration": 9, "velocity": 65}, {"time": 2144, "pitch": 68, "duration": 4, "velocity": 60}, {"time": 2144, "pitch": 71, "duration": 8, "velocity": 79}, {"time": 2150, "pitch": 63, "duration": 9, "velocity": 69}, {"time": 2156, "pitch": 68, "duration": 3, "velocity": 87}, {"time": 2156, "pitch": 71, "duration": 3, "velocity": 89}, {"time": 2162, "pitch": 66, "duration": 3, "velocity": 91}, {"time": 2168, "pitch": 52, "duration": 17, "velocity": 85}, {"time": 2168, "pitch": 68, "duration": 10, "velocity": 81}, {"time": 2168, "pitch": 71, "duration": 9, "velocity": 86}, {"time": 2174, "pitch": 59, "duration": 11, "velocity": 72}, {"time": 2180, "pitch": 71, "duration": 8, "velocity": 87}, {"time": 2180, "pitch": 76, "duration": 8, "velocity": 86}, {"time": 2186, "pitch": 68, "duration": 5, "velocity": 86}, {"time": 2192, "pitch": 56, "duration": 19, "velocity": 86}, {"time": 2192, "pitch": 68, "duration": 9, "velocity": 85}, {"time": 2192, "pitch": 71, "duration": 8, "velocity": 85}, {"time": 2198, "pitch": 63, "duration": 13, "velocity": 77}, {"time": 2204, "pitch": 68, "duration": 4, "velocity": 86}, {"time": 2204, "pitch": 71, "duration": 7, "velocity": 88}, {"time": 2204, "pitch": 75, "duration": 9, "velocity": 90}, {"time": 2216, "pitch": 54, "duration": 22, "velocity": 85}, {"time": 2216, "pitch": 66, "duration": 10, "velocity": 81}, {"time": 2216, "pitch": 70, "duration": 9, "velocity": 85}, {"time": 2222, "pitch": 61, "duration": 14, "velocity": 76}, {"time": 2228, "pitch": 66, "duration": 4, "velocity": 87}, {"time": 2228, "pitch": 70, "duration": 7, "velocity": 90}, {"time": 2228, "pitch": 73, "duration": 7, "velocity": 86}, {"time": 2240, "pitch": 59, "duration": 6, "velocity": 87}, {"time": 2240, "pitch": 71, "duration": 4, "velocity": 86}, {"time": 2240, "pitch": 75, "duration": 5, "velocity": 94}, {"time": 2252, "pitch": 54, "duration": 9, "velocity": 85}, {"time": 2252, "pitch": 70, "duration": 8, "velocity": 86}, {"time": 2252, "pitch": 73, "duration": 7, "velocity": 84}, {"time": 2252, "pitch": 78, "duration": 9, "velocity": 83}, {"time": 2264, "pitch": 52, "duration": 21, "velocity": 86}, {"time": 2264, "pitch": 64, "duration": 9, "velocity": 81}, {"time": 2264, "pitch": 68, "duration": 7, "velocity": 80}, {"time": 2270, "pitch": 59, "duration": 16, "velocity": 79}, {"time": 2276, "pitch": 64, "duration": 9, "velocity": 81}, {"time": 2276, "pitch": 68, "duration": 9, "velocity": 86}, {"time": 2276, "pitch": 71, "duration": 10, "velocity": 81}, {"time": 2288, "pitch": 54, "duration": 15, "velocity": 85}, {"time": 2288, "pitch": 66, "duration": 11, "velocity": 86}, {"time": 2288, "pitch": 70, "duration": 8, "velocity": 85}, {"time": 2294, "pitch": 61, "duration": 8, "velocity": 71}, {"time": 2300, "pitch": 70, "duration": 3, "velocity": 89}, {"time": 2300, "pitch": 73, "duration": 4, "velocity": 86}, {"time": 2312, "pitch": 59, "duration": 44, "velocity": 87}, {"time": 2312, "pitch": 71, "duration": 9, "velocity": 83}, {"time": 2312, "pitch": 75, "duration": 8, "velocity": 87}, {"time": 2318, "pitch": 66, "duration": 9, "velocity": 74}, {"time": 2324, "pitch": 71, "duration": 13, "velocity": 89}, {"time": 2324, "pitch": 78, "duration": 9, "velocity": 86}, {"time": 2330, "pitch": 66, "duration": 20, "velocity": 76}, {"time": 2336, "pitch": 75, "duration": 7, "velocity": 87}, {"time": 2336, "pitch": 78, "duration": 7, "velocity": 85}, {"time": 2336, "pitch": 83, "duration": 7, "velocity": 85}, {"time": 2342, "pitch": 71, "duration": 4, "velocity": 86}, {"time": 2348, "pitch": 71, "duration": 12, "velocity": 88}, {"time": 2348, "pitch": 75, "duration": 12, "velocity": 99}, {"time": 2348, "pitch": 78, "duration": 12, "velocity": 89}, {"time": 2354, "pitch": 66, "duration": 7, "velocity": 85}, {"time": 2360, "pitch": 54, "duration": 2, "velocity": 86}, {"time": 2360, "pitch": 66, "duration": 1, "velocity": 85}, {"time": 2360, "pitch": 73, "duration": 5, "velocity": 81}, {"time": 2366, "pitch": 66, "duration": 33, "velocity": 83}, {"time": 2372, "pitch": 73, "duration": 26, "velocity": 82}, {"time": 2378, "pitch": 78, "duration": 4, "velocity": 81}, {"time": 2378, "pitch": 85, "duration": 4, "velocity": 86}, {"time": 2384, "pitch": 78, "duration": 2, "velocity": 85}, {"time": 2384, "pitch": 90, "duration": 2, "velocity": 78}, {"time": 2408, "pitch": 59, "duration": 22, "velocity": 87}, {"time": 2408, "pitch": 71, "duration": 11, "velocity": 87}, {"time": 2408, "pitch": 78, "duration": 6, "velocity": 82}, {"time": 2414, "pitch": 66, "duration": 17, "velocity": 77}, {"time": 2420, "pitch": 71, "duration": 1, "velocity": 69}, {"time": 2420, "pitch": 75, "duration": 4, "velocity": 90}, {"time": 2420, "pitch": 78, "duration": 3, "velocity": 86}, {"time": 2420, "pitch": 83, "duration": 8, "velocity": 86}, {"time": 2426, "pitch": 78, "duration": 4, "velocity": 83}, {"time": 2429, "pitch": 71, "duration": 2, "velocity": 87}, {"time": 2432, "pitch": 58, "duration": 17, "velocity": 87}, {"time": 2432, "pitch": 70, "duration": 9, "velocity": 94}, {"time": 2432, "pitch": 73, "duration": 10, "velocity": 87}, {"time": 2438, "pitch": 66, "duration": 11, "velocity": 81}, {"time": 2444, "pitch": 70, "duration": 3, "velocity": 79}, {"time": 2444, "pitch": 73, "duration": 6, "velocity": 83}, {"time": 2444, "pitch": 78, "duration": 8, "velocity": 88}, {"time": 2450, "pitch": 70, "duration": 3, "velocity": 85}, {"time": 2456, "pitch": 56, "duration": 19, "velocity": 86}, {"time": 2456, "pitch": 68, "duration": 10, "velocity": 82}, {"time": 2456, "pitch": 71, "duration": 9, "velocity": 81}, {"time": 2462, "pitch": 63, "duration": 12, "velocity": 79}, {"time": 2468, "pitch": 71, "duration": 2, "velocity": 96}, {"time": 2468, "pitch": 75, "duration": 4, "velocity": 96}, {"time": 2471, "pitch": 71, "duration": 4, "velocity": 85}, {"time": 2474, "pitch": 68, "duration": 3, "velocity": 87}, {"time": 2480, "pitch": 52, "duration": 16, "velocity": 85}, {"time": 2480, "pitch": 64, "duration": 11, "velocity": 82}, {"time": 2480, "pitch": 68, "duration": 9, "velocity": 86}, {"time": 2486, "pitch": 59, "duration": 10, "velocity": 80}, {"time": 2492, "pitch": 64, "duration": 3, "velocity": 83}, {"time": 2492, "pitch": 68, "duration": 7, "velocity": 90}, {"time": 2492, "pitch": 71, "duration": 7, "velocity": 87}, {"time": 2498, "pitch": 64, "duration": 2, "velocity": 89}, {"time": 2504, "pitch": 61, "duration": 18, "velocity": 94}, {"time": 2504, "pitch": 68, "duration": 4, "velocity": 86}, {"time": 2504, "pitch": 73, "duration": 8, "velocity": 86}, {"time": 2510, "pitch": 68, "duration": 8, "velocity": 86}, {"time": 2516, "pitch": 76, "duration": 7, "velocity": 94}, {"time": 2522, "pitch": 73, "duration": 3, "velocity": 91}, {"time": 2525, "pitch": 68, "duration": 2, "velocity": 86}, {"time": 2528, "pitch": 54, "duration": 19, "velocity": 86}, {"time": 2528, "pitch": 66, "duration": 10, "velocity": 90}, {"time": 2528, "pitch": 70, "duration": 8, "velocity": 86}, {"time": 2534, "pitch": 61, "duration": 13, "velocity": 81}, {"time": 2540, "pitch": 66, "duration": 2, "velocity": 80}, {"time": 2540, "pitch": 70, "duration": 5, "velocity": 92}, {"time": 2540, "pitch": 73, "duration": 8, "velocity": 88}, {"time": 2546, "pitch": 66, "duration": 3, "velocity": 90}, {"time": 2552, "pitch": 59, "duration": 23, "velocity": 86}, {"time": 2552, "pitch": 66, "duration": 4, "velocity": 89}, {"time": 2552, "pitch": 71, "duration": 7, "velocity": 86}, {"time": 2558, "pitch": 66, "duration": 4, "velocity": 88}, {"time": 2564, "pitch": 66, "duration": 4, "velocity": 94}, {"time": 2564, "pitch": 75, "duration": 5, "velocity": 91}, {"time": 2570, "pitch": 71, "duration": 3, "velocity": 88}, {"time": 2573, "pitch": 66, "duration": 2, "velocity": 90}, {"time": 2576, "pitch": 59, "duration": 16, "velocity": 89}, {"time": 2576, "pitch": 66, "duration": 4, "velocity": 92}, {"time": 2576, "pitch": 71, "duration": 7, "velocity": 86}, {"time": 2582, "pitch": 66, "duration": 4, "velocity": 88}, {"time": 2588, "pitch": 66, "duration": 3, "velocity": 94}, {"time": 2588, "pitch": 75, "duration": 4, "velocity": 90}, {"time": 2591, "pitch": 71, "duration": 4, "velocity": 86}, {"time": 2594, "pitch": 66, "duration": 3, "velocity": 92}, {"time": 2600, "pitch": 51, "duration": 23, "velocity": 86}, {"time": 2600, "pitch": 63, "duration": 8, "velocity": 86}, {"time": 2600, "pitch": 67, "duration": 7, "velocity": 86}, {"time": 2606, "pitch": 58, "duration": 9, "velocity": 83}, {"time": 2612, "pitch": 63, "duration": 5, "velocity": 99}, {"time": 2612, "pitch": 75, "duration": 7, "velocity": 96}, {"time": 2618, "pitch": 58, "duration": 5, "velocity": 87}, {"time": 2621, "pitch": 63, "duration": 2, "velocity": 99}, {"time": 2621, "pitch": 75, "duration": 1, "velocity": 77}, {"time": 2624, "pitch": 51, "duration": 14, "velocity": 89}, {"time": 2624, "pitch": 63, "duration": 7, "velocity": 106}, {"time": 2624, "pitch": 70, "duration": 7, "velocity": 86}, {"time": 2630, "pitch": 58, "duration": 7, "velocity": 86}, {"time": 2636, "pitch": 63, "duration": 3, "velocity": 94}, {"time": 2636, "pitch": 67, "duration": 4, "velocity": 90}, {"time": 2642, "pitch": 63, "duration": 3, "velocity": 102}, {"time": 2648, "pitch": 56, "duration": 22, "velocity": 85}, {"time": 2648, "pitch": 68, "duration": 9, "velocity": 81}, {"time": 2648, "pitch": 71, "duration": 9, "velocity": 82}, {"time": 2654, "pitch": 63, "duration": 16, "velocity": 89}, {"time": 2660, "pitch": 68, "duration": 4, "velocity": 89}, {"time": 2660, "pitch": 80, "duration": 5, "velocity": 86}, {"time": 2666, "pitch": 75, "duration": 4, "velocity": 86}, {"time": 2669, "pitch": 68, "duration": 2, "velocity": 83}, {"time": 2672, "pitch": 56, "duration": 15, "velocity": 86}, {"time": 2672, "pitch": 68, "duration": 8, "velocity": 85}, {"time": 2672, "pitch": 71, "duration": 8, "velocity": 86}, {"time": 2678, "pitch": 63, "duration": 9, "velocity": 86}, {"time": 2684, "pitch": 68, "duration": 3, "velocity": 91}, {"time": 2684, "pitch": 71, "duration": 4, "velocity": 99}, {"time": 2690, "pitch": 68, "duration": 3, "velocity": 91}, {"time": 2696, "pitch": 49, "duration": 2, "velocity": 89}, {"time": 2696, "pitch": 68, "duration": 5, "velocity": 88}, {"time": 2696, "pitch": 73, "duration": 6, "velocity": 86}, {"time": 2702, "pitch": 61, "duration": 17, "velocity": 85}, {"time": 2708, "pitch": 73, "duration": 6, "velocity": 90}, {"time": 2708, "pitch": 85, "duration": 9, "velocity": 91}, {"time": 2714, "pitch": 68, "duration": 5, "velocity": 85}, {"time": 2717, "pitch": 73, "duration": 6, "velocity": 90}, {"time": 2720, "pitch": 61, "duration": 15, "velocity": 91}, {"time": 2723, "pitch": 68, "duration": 9, "velocity": 88}, {"time": 2726, "pitch": 73, "duration": 4, "velocity": 94}, {"time": 2729, "pitch": 80, "duration": 2, "velocity": 87}, {"time": 2732, "pitch": 73, "duration": 7, "velocity": 102}, {"time": 2738, "pitch": 68, "duration": 2, "velocity": 85}, {"time": 2744, "pitch": 54, "duration": 23, "velocity": 87}, {"time": 2744, "pitch": 73, "duration": 5, "velocity": 86}, {"time": 2744, "pitch": 78, "duration": 4, "velocity": 80}, {"time": 2750, "pitch": 61, "duration": 8, "velocity": 89}, {"time": 2756, "pitch": 66, "duration": 8, "velocity": 90}, {"time": 2756, "pitch": 73, "duration": 7, "velocity": 89}, {"time": 2762, "pitch": 61, "duration": 5, "velocity": 85}, {"time": 2765, "pitch": 66, "duration": 2, "velocity": 68}, {"time": 2765, "pitch": 70, "duration": 2, "velocity": 86}, {"time": 2768, "pitch": 54, "duration": 19, "velocity": 86}, {"time": 2768, "pitch": 66, "duration": 7, "velocity": 86}, {"time": 2768, "pitch": 78, "duration": 8, "velocity": 86}, {"time": 2774, "pitch": 61, "duration": 10, "velocity": 87}, {"time": 2777, "pitch": 66, "duration": 4, "velocity": 85}, {"time": 2780, "pitch": 73, "duration": 4, "velocity": 88}, {"time": 2783, "pitch": 70, "duration": 3, "velocity": 96}, {"time": 2786, "pitch": 66, "duration": 5, "velocity": 90}, {"time": 2789, "pitch": 61, "duration": 4, "velocity": 96}, {"time": 2792, "pitch": 59, "duration": 22, "velocity": 87}, {"time": 2792, "pitch": 71, "duration": 11, "velocity": 87}, {"time": 2792, "pitch": 78, "duration": 6, "velocity": 82}, {"time": 2798, "pitch": 66, "duration": 17, "velocity": 77}, {"time": 2804, "pitch": 71, "duration": 1, "velocity": 69}, {"time": 2804, "pitch": 75, "duration": 4, "velocity": 90}, {"time": 2804, "pitch": 78, "duration": 3, "velocity": 86}, {"time": 2804, "pitch": 83, "duration": 8, "velocity": 86}, {"time": 2810, "pitch": 78, "duration": 4, "velocity": 83}, {"time": 2813, "pitch": 71, "duration": 2, "velocity": 87}, {"time": 2816, "pitch": 58, "duration": 17, "velocity": 87}, {"time": 2816, "pitch": 70, "duration": 9, "velocity": 94}, {"time": 2816, "pitch": 73, "duration": 10, "velocity": 87}, {"time": 2822, "pitch": 66, "duration": 11, "velocity": 81}, {"time": 2828, "pitch": 70, "duration": 3, "velocity": 79}, {"time": 2828, "pitch": 73, "duration": 6, "velocity": 83}, {"time": 2828, "pitch": 78, "duration": 8, "velocity": 88}, {"time": 2834, "pitch": 70, "duration": 3, "velocity": 85}, {"time": 2840, "pitch": 56, "duration": 19, "velocity": 86}, {"time": 2840, "pitch": 68, "duration": 10, "velocity": 82}, {"time": 2840, "pitch": 71, "duration": 9, "velocity": 81}, {"time": 2846, "pitch": 63, "duration": 12, "velocity": 79}, {"time": 2852, "pitch": 71, "duration": 2, "velocity": 96}, {"time": 2852, "pitch": 75, "duration": 4, "velocity": 96}, {"time": 2855, "pitch": 71, "duration": 4, "velocity": 85}, {"time": 2858, "pitch": 68, "duration": 3, "velocity": 87}, {"time": 2864, "pitch": 52, "duration": 16, "velocity": 85}, {"time": 2864, "pitch": 64, "duration": 11, "velocity": 82}, {"time": 2864, "pitch": 68, "duration": 9, "velocity": 86}, {"time": 2870, "pitch": 59, "duration": 10, "velocity": 80}, {"time": 2876, "pitch": 64, "duration": 3, "velocity": 83}, {"time": 2876, "pitch": 68, "duration": 7, "velocity": 90}, {"time": 2876, "pitch": 71, "duration": 7, "velocity": 87}, {"time": 2882, "pitch": 64, "duration": 2, "velocity": 89}, {"time": 2888, "pitch": 61, "duration": 18, "velocity": 94}, {"time": 2888, "pitch": 68, "duration": 4, "velocity": 86}, {"time": 2888, "pitch": 73, "duration": 8, "velocity": 86}, {"time": 2894, "pitch": 68, "duration": 8, "velocity": 86}, {"time": 2900, "pitch": 76, "duration": 7, "velocity": 94}, {"time": 2906, "pitch": 73, "duration": 3, "velocity": 91}, {"time": 2909, "pitch": 68, "duration": 2, "velocity": 86}, {"time": 2912, "pitch": 54, "duration": 19, "velocity": 86}, {"time": 2912, "pitch": 66, "duration": 10, "velocity": 90}, {"time": 2912, "pitch": 70, "duration": 8, "velocity": 86}, {"time": 2918, "pitch": 61, "duration": 13, "velocity": 81}, {"time": 2924, "pitch": 66, "duration": 2, "velocity": 80}, {"time": 2924, "pitch": 70, "duration": 5, "velocity": 92}, {"time": 2924, "pitch": 73, "duration": 8, "velocity": 88}, {"time": 2930, "pitch": 66, "duration": 3, "velocity": 90}, {"time": 2936, "pitch": 59, "duration": 23, "velocity": 86}, {"time": 2936, "pitch": 66, "duration": 4, "velocity": 89}, {"time": 2936, "pitch": 71, "duration": 7, "velocity": 86}, {"time": 2942, "pitch": 66, "duration": 4, "velocity": 88}, {"time": 2948, "pitch": 66, "duration": 4, "velocity": 94}, {"time": 2948, "pitch": 75, "duration": 5, "velocity": 91}, {"time": 2954, "pitch": 71, "duration": 3, "velocity": 88}, {"time": 2957, "pitch": 66, "duration": 2, "velocity": 90}, {"time": 2960, "pitch": 59, "duration": 16, "velocity": 89}, {"time": 2960, "pitch": 66, "duration": 4, "velocity": 92}, {"time": 2960, "pitch": 71, "duration": 7, "velocity": 86}, {"time": 2966, "pitch": 66, "duration": 4, "velocity": 88}, {"time": 2972, "pitch": 66, "duration": 3, "velocity": 94}, {"time": 2972, "pitch": 75, "duration": 4, "velocity": 90}, {"time": 2975, "pitch": 71, "duration": 4, "velocity": 86}, {"time": 2978, "pitch": 66, "duration": 3, "velocity": 92}, {"time": 2984, "pitch": 51, "duration": 23, "velocity": 86}, {"time": 2984, "pitch": 63, "duration": 8, "velocity": 86}, {"time": 2984, "pitch": 67, "duration": 7, "velocity": 86}, {"time": 2990, "pitch": 58, "duration": 9, "velocity": 83}, {"time": 2996, "pitch": 63, "duration": 5, "velocity": 99}, {"time": 2996, "pitch": 75, "duration": 7, "velocity": 96}, {"time": 3002, "pitch": 58, "duration": 5, "velocity": 87}, {"time": 3005, "pitch": 63, "duration": 2, "velocity": 99}, {"time": 3005, "pitch": 75, "duration": 1, "velocity": 77}, {"time": 3008, "pitch": 51, "duration": 14, "velocity": 89}, {"time": 3008, "pitch": 63, "duration": 7, "velocity": 106}, {"time": 3008, "pitch": 70, "duration": 7, "velocity": 86}, {"time": 3014, "pitch": 58, "duration": 7, "velocity": 86}, {"time": 3020, "pitch": 63, "duration": 3, "velocity": 94}, {"time": 3020, "pitch": 67, "duration": 4, "velocity": 90}, {"time": 3026, "pitch": 63, "duration": 3, "velocity": 102}, {"time": 3032, "pitch": 56, "duration": 22, "velocity": 85}, {"time": 3032, "pitch": 68, "duration": 9, "velocity": 81}, {"time": 3032, "pitch": 71, "duration": 9, "velocity": 82}, {"time": 3038, "pitch": 63, "duration": 16, "velocity": 89}, {"time": 3044, "pitch": 68, "duration": 4, "velocity": 89}, {"time": 3044, "pitch": 80, "duration": 5, "velocity": 86}, {"time": 3050, "pitch": 75, "duration": 4, "velocity": 86}, {"time": 3053, "pitch": 68, "duration": 2, "velocity": 83}, {"time": 3056, "pitch": 56, "duration": 15, "velocity": 86}, {"time": 3056, "pitch": 68, "duration": 8, "velocity": 85}, {"time": 3056, "pitch": 71, "duration": 8, "velocity": 86}, {"time": 3062, "pitch": 63, "duration": 9, "velocity": 86}, {"time": 3068, "pitch": 68, "duration": 3, "velocity": 91}, {"time": 3068, "pitch": 71, "duration": 4, "velocity": 99}, {"time": 3074, "pitch": 68, "duration": 3, "velocity": 91}, {"time": 3080, "pitch": 54, "duration": 2, "velocity": 86}, {"time": 3080, "pitch": 66, "duration": 4, "velocity": 86}, {"time": 3080, "pitch": 73, "duration": 4, "velocity": 84}, {"time": 3086, "pitch": 66, "duration": 37, "velocity": 85}, {"time": 3092, "pitch": 73, "duration": 17, "velocity": 96}, {"time": 3095, "pitch": 78, "duration": 4, "velocity": 90}, {"time": 3098, "pitch": 85, "duration": 3, "velocity": 99}, {"time": 3101, "pitch": 78, "duration": 3, "velocity": 87}, {"time": 3104, "pitch": 90, "duration": 5, "velocity": 88}, {"time": 3107, "pitch": 78, "duration": 3, "velocity": 76}, {"time": 3110, "pitch": 73, "duration": 10, "velocity": 79}, {"time": 3116, "pitch": 90, "duration": 3, "velocity": 86}, {"time": 3116, "pitch": 94, "duration": 4, "velocity": 87}, {"time": 3128, "pitch": 56, "duration": 16, "velocity": 87}, {"time": 3128, "pitch": 68, "duration": 6, "velocity": 88}, {"time": 3128, "pitch": 71, "duration": 6, "velocity": 92}, {"time": 3134, "pitch": 63, "duration": 10, "velocity": 74}, {"time": 3137, "pitch": 68, "duration": 2, "velocity": 86}, {"time": 3140, "pitch": 71, "duration": 3, "velocity": 89}, {"time": 3146, "pitch": 54, "duration": 21, "velocity": 86}, {"time": 3146, "pitch": 66, "duration": 10, "velocity": 89}, {"time": 3146, "pitch": 70, "duration": 14, "velocity": 91}, {"time": 3158, "pitch": 66, "duration": 4, "velocity": 76}, {"time": 3164, "pitch": 66, "duration": 3, "velocity": 92}, {"time": 3164, "pitch": 70, "duration": 2, "velocity": 90}, {"time": 3164, "pitch": 73, "duration": 3, "velocity": 89}, {"time": 3170, "pitch": 52, "duration": 28, "velocity": 87}, {"time": 3170, "pitch": 64, "duration": 14, "velocity": 87}, {"time": 3170, "pitch": 68, "duration": 13, "velocity": 91}, {"time": 3182, "pitch": 59, "duration": 8, "velocity": 77}, {"time": 3188, "pitch": 64, "duration": 3, "velocity": 96}, {"time": 3188, "pitch": 76, "duration": 3, "velocity": 87}, {"time": 3197, "pitch": 64, "duration": 4, "velocity": 81}, {"time": 3197, "pitch": 68, "duration": 5, "velocity": 87}, {"time": 3197, "pitch": 71, "duration": 5, "velocity": 85}, {"time": 3200, "pitch": 52, "duration": 14, "velocity": 85}, {"time": 3203, "pitch": 59, "duration": 10, "velocity": 78}, {"time": 3206, "pitch": 64, "duration": 4, "velocity": 89}, {"time": 3212, "pitch": 64, "duration": 4, "velocity": 99}, {"time": 3212, "pitch": 68, "duration": 4, "velocity": 94}, {"time": 3212, "pitch": 71, "duration": 5, "velocity": 90}, {"time": 3218, "pitch": 52, "duration": 2, "velocity": 86}, {"time": 3224, "pitch": 56, "duration": 19, "velocity": 87}, {"time": 3224, "pitch": 68, "duration": 7, "velocity": 85}, {"time": 3224, "pitch": 71, "duration": 7, "velocity": 85}, {"time": 3230, "pitch": 63, "duration": 12, "velocity": 78}, {"time": 3236, "pitch": 68, "duration": 3, "velocity": 92}, {"time": 3236, "pitch": 71, "duration": 3, "velocity": 101}, {"time": 3236, "pitch": 75, "duration": 4, "velocity": 99}, {"time": 3242, "pitch": 68, "duration": 3, "velocity": 87}, {"time": 3248, "pitch": 54, "duration": 14, "velocity": 87}, {"time": 3248, "pitch": 66, "duration": 7, "velocity": 90}, {"time": 3248, "pitch": 70, "duration": 7, "velocity": 87}, {"time": 3254, "pitch": 61, "duration": 8, "velocity": 81}, {"time": 3257, "pitch": 66, "duration": 3, "velocity": 86}, {"time": 3260, "pitch": 66, "duration": 2, "velocity": 74}, {"time": 3260, "pitch": 70, "duration": 2, "velocity": 92}, {"time": 3260, "pitch": 73, "duration": 2, "velocity": 87}, {"time": 3266, "pitch": 52, "duration": 21, "velocity": 86}, {"time": 3266, "pitch": 64, "duration": 14, "velocity": 86}, {"time": 3266, "pitch": 68, "duration": 13, "velocity": 86}, {"time": 3278, "pitch": 71, "duration": 2, "velocity": 80}, {"time": 3284, "pitch": 64, "duration": 2, "velocity": 96}, {"time": 3284, "pitch": 76, "duration": 2, "velocity": 88}, {"time": 3290, "pitch": 52, "duration": 23, "velocity": 55}, {"time": 3290, "pitch": 59, "duration": 8, "velocity": 70}, {"time": 3293, "pitch": 76, "duration": 2, "velocity": 73}, {"time": 3293, "pitch": 80, "duration": 2, "velocity": 86}, {"time": 3296, "pitch": 76, "duration": 7, "velocity": 91}, {"time": 3296, "pitch": 80, "duration": 6, "velocity": 96}, {"time": 3302, "pitch": 59, "duration": 8, "velocity": 75}, {"time": 3305, "pitch": 76, "duration": 2, "velocity": 85}, {"time": 3305, "pitch": 83, "duration": 2, "velocity": 85}, {"time": 3308, "pitch": 76, "duration": 4, "velocity": 90}, {"time": 3308, "pitch": 83, "duration": 4, "velocity": 101}, {"time": 3320, "pitch": 56, "duration": 19, "velocity": 87}, {"time": 3320, "pitch": 68, "duration": 8, "velocity": 86}, {"time": 3320, "pitch": 71, "duration": 8, "velocity": 88}, {"time": 3326, "pitch": 63, "duration": 14, "velocity": 72}, {"time": 3332, "pitch": 68, "duration": 2, "velocity": 86}, {"time": 3332, "pitch": 71, "duration": 3, "velocity": 89}, {"time": 3332, "pitch": 75, "duration": 3, "velocity": 87}, {"time": 3338, "pitch": 68, "duration": 3, "velocity": 80}, {"time": 3344, "pitch": 54, "duration": 14, "velocity": 87}, {"time": 3344, "pitch": 66, "duration": 7, "velocity": 86}, {"time": 3344, "pitch": 70, "duration": 7, "velocity": 87}, {"time": 3350, "pitch": 61, "duration": 8, "velocity": 76}, {"time": 3356, "pitch": 66, "duration": 2, "velocity": 94}, {"time": 3356, "pitch": 70, "duration": 2, "velocity": 99}, {"time": 3356, "pitch": 73, "duration": 2, "velocity": 94}, {"time": 3362, "pitch": 52, "duration": 2, "velocity": 90}, {"time": 3362, "pitch": 64, "duration": 5, "velocity": 92}, {"time": 3362, "pitch": 68, "duration": 6, "velocity": 90}, {"time": 3374, "pitch": 64, "duration": 21, "velocity": 85}, {"time": 3377, "pitch": 71, "duration": 12, "velocity": 90}, {"time": 3380, "pitch": 76, "duration": 4, "velocity": 101}, {"time": 3383, "pitch": 83, "duration": 4, "velocity": 96}, {"time": 3386, "pitch": 76, "duration": 2, "velocity": 91}, {"time": 3389, "pitch": 76, "duration": 1, "velocity": 77}, {"time": 3389, "pitch": 88, "duration": 2, "velocity": 87}, {"time": 3392, "pitch": 76, "duration": 5, "velocity": 92}, {"time": 3392, "pitch": 88, "duration": 5, "velocity": 86}, {"time": 3395, "pitch": 64, "duration": 7, "velocity": 63}, {"time": 3395, "pitch": 71, "duration": 6, "velocity": 85}, {"time": 3398, "pitch": 76, "duration": 2, "velocity": 89}, {"time": 3401, "pitch": 76, "duration": 5, "velocity": 87}, {"time": 3401, "pitch": 82, "duration": 3, "velocity": 86}, {"time": 3401, "pitch": 83, "duration": 3, "velocity": 85}, {"time": 3404, "pitch": 64, "duration": 5, "velocity": 87}, {"time": 3407, "pitch": 71, "duration": 3, "velocity": 91}, {"time": 3410, "pitch": 76, "duration": 5, "velocity": 92}, {"time": 3416, "pitch": 56, "duration": 19, "velocity": 87}, {"time": 3416, "pitch": 68, "duration": 8, "velocity": 86}, {"time": 3416, "pitch": 71, "duration": 8, "velocity": 88}, {"time": 3422, "pitch": 63, "duration": 14, "velocity": 72}, {"time": 3428, "pitch": 68, "duration": 2, "velocity": 86}, {"time": 3428, "pitch": 71, "duration": 3, "velocity": 89}, {"time": 3428, "pitch": 75, "duration": 3, "velocity": 87}, {"time": 3434, "pitch": 68, "duration": 3, "velocity": 80}, {"time": 3440, "pitch": 54, "duration": 14, "velocity": 87}, {"time": 3440, "pitch": 66, "duration": 7, "velocity": 86}, {"time": 3440, "pitch": 70, "duration": 7, "velocity": 87}, {"time": 3446, "pitch": 61, "duration": 8, "velocity": 76}, {"time": 3452, "pitch": 66, "duration": 2, "velocity": 94}, {"time": 3452, "pitch": 70, "duration": 2, "velocity": 99}, {"time": 3452, "pitch": 73, "duration": 2, "velocity": 94}, {"time": 3458, "pitch": 52, "duration": 2, "velocity": 90}, {"time": 3458, "pitch": 64, "duration": 5, "velocity": 92}, {"time": 3458, "pitch": 68, "duration": 6, "velocity": 90}, {"time": 3470, "pitch": 64, "duration": 21, "velocity": 85}, {"time": 3473, "pitch": 71, "duration": 12, "velocity": 90}, {"time": 3476, "pitch": 76, "duration": 4, "velocity": 101}, {"time": 3479, "pitch": 83, "duration": 4, "velocity": 96}, {"time": 3482, "pitch": 76, "duration": 2, "velocity": 91}, {"time": 3485, "pitch": 76, "duration": 1, "velocity": 77}, {"time": 3485, "pitch": 88, "duration": 2, "velocity": 87}, {"time": 3488, "pitch": 76, "duration": 5, "velocity": 92}, {"time": 3488, "pitch": 88, "duration": 5, "velocity": 86}, {"time": 3491, "pitch": 64, "duration": 7, "velocity": 63}, {"time": 3491, "pitch": 71, "duration": 6, "velocity": 85}, {"time": 3494, "pitch": 76, "duration": 2, "velocity": 89}, {"time": 3497, "pitch": 76, "duration": 5, "velocity": 87}, {"time": 3497, "pitch": 82, "duration": 3, "velocity": 86}, {"time": 3497, "pitch": 83, "duration": 3, "velocity": 85}, {"time": 3500, "pitch": 64, "duration": 5, "velocity": 87}, {"time": 3503, "pitch": 80, "duration": 3, "velocity": 91}, {"time": 3506, "pitch": 76, "duration": 5, "velocity": 92}, {"time": 3512, "pitch": 54, "duration": 2, "velocity": 87}, {"time": 3512, "pitch": 73, "duration": 8, "velocity": 87}, {"time": 3512, "pitch": 82, "duration": 9, "velocity": 87}, {"time": 3518, "pitch": 61, "duration": 16, "velocity": 79}, {"time": 3521, "pitch": 70, "duration": 10, "velocity": 86}, {"time": 3524, "pitch": 73, "duration": 4, "velocity": 101}, {"time": 3527, "pitch": 80, "duration": 3, "velocity": 87}, {"time": 3536, "pitch": 66, "duration": 15, "velocity": 86}, {"time": 3536, "pitch": 73, "duration": 8, "velocity": 90}, {"time": 3536, "pitch": 78, "duration": 8, "velocity": 88}, {"time": 3542, "pitch": 70, "duration": 8, "velocity": 83}, {"time": 3548, "pitch": 73, "duration": 11, "velocity": 96}, {"time": 3548, "pitch": 78, "duration": 11, "velocity": 92}, {"time": 3548, "pitch": 82, "duration": 11, "velocity": 101}, {"time": 3554, "pitch": 70, "duration": 7, "velocity": 87}, {"time": 3560, "pitch": 59, "duration": 21, "velocity": 86}, {"time": 3560, "pitch": 78, "duration": 8, "velocity": 84}, {"time": 3566, "pitch": 71, "duration": 7, "velocity": 78}, {"time": 3572, "pitch": 78, "duration": 7, "velocity": 86}, {"time": 3578, "pitch": 71, "duration": 7, "velocity": 84}, {"time": 3584, "pitch": 58, "duration": 15, "velocity": 86}, {"time": 3584, "pitch": 78, "duration": 8, "velocity": 85}, {"time": 3590, "pitch": 70, "duration": 8, "velocity": 86}, {"time": 3596, "pitch": 73, "duration": 5, "velocity": 86}, {"time": 3596, "pitch": 78, "duration": 10, "velocity": 85}, {"time": 3602, "pitch": 70, "duration": 4, "velocity": 84}, {"time": 3608, "pitch": 56, "duration": 23, "velocity": 85}, {"time": 3608, "pitch": 71, "duration": 7, "velocity": 77}, {"time": 3608, "pitch": 78, "duration": 8, "velocity": 86}, {"time": 3614, "pitch": 68, "duration": 4, "velocity": 71}, {"time": 3620, "pitch": 68, "duration": 3, "velocity": 86}, {"time": 3620, "pitch": 71, "duration": 7, "velocity": 85}, {"time": 3626, "pitch": 68, "duration": 7, "velocity": 77}, {"time": 3632, "pitch": 52, "duration": 14, "velocity": 81}, {"time": 3632, "pitch": 76, "duration": 7, "velocity": 86}, {"time": 3638, "pitch": 68, "duration": 7, "velocity": 80}, {"time": 3644, "pitch": 71, "duration": 7, "velocity": 85}, {"time": 3650, "pitch": 68, "duration": 6, "velocity": 89}, {"time": 3656, "pitch": 61, "duration": 24, "velocity": 82}, {"time": 3656, "pitch": 76, "duration": 7, "velocity": 86}, {"time": 3662, "pitch": 68, "duration": 7, "velocity": 84}, {"time": 3668, "pitch": 73, "duration": 7, "velocity": 87}, {"time": 3674, "pitch": 68, "duration": 5, "velocity": 87}, {"time": 3680, "pitch": 54, "duration": 14, "velocity": 85}, {"time": 3680, "pitch": 73, "duration": 6, "velocity": 85}, {"time": 3686, "pitch": 66, "duration": 7, "velocity": 85}, {"time": 3692, "pitch": 73, "duration": 8, "velocity": 88}, {"time": 3698, "pitch": 66, "duration": 7, "velocity": 87}, {"time": 3704, "pitch": 59, "duration": 40, "velocity": 86}, {"time": 3704, "pitch": 75, "duration": 8, "velocity": 87}, {"time": 3710, "pitch": 66, "duration": 7, "velocity": 81}, {"time": 3716, "pitch": 71, "duration": 7, "velocity": 90}, {"time": 3722, "pitch": 66, "duration": 8, "velocity": 90}, {"time": 3728, "pitch": 75, "duration": 8, "velocity": 91}, {"time": 3734, "pitch": 66, "duration": 7, "velocity": 89}, {"time": 3740, "pitch": 71, "duration": 7, "velocity": 94}, {"time": 3746, "pitch": 66, "duration": 5, "velocity": 92}, {"time": 3752, "pitch": 51, "duration": 43, "velocity": 88}, {"time": 3752, "pitch": 75, "duration": 14, "velocity": 87}, {"time": 3758, "pitch": 63, "duration": 5, "velocity": 86}, {"time": 3764, "pitch": 70, "duration": 7, "velocity": 85}, {"time": 3770, "pitch": 63, "duration": 4, "velocity": 89}, {"time": 3776, "pitch": 63, "duration": 4, "velocity": 96}, {"time": 3776, "pitch": 75, "duration": 22, "velocity": 88}, {"time": 3782, "pitch": 63, "duration": 6, "velocity": 94}, {"time": 3788, "pitch": 67, "duration": 7, "velocity": 88}, {"time": 3794, "pitch": 63, "duration": 2, "velocity": 92}, {"time": 3800, "pitch": 56, "duration": 43, "velocity": 85}, {"time": 3800, "pitch": 68, "duration": 10, "velocity": 79}, {"time": 3800, "pitch": 71, "duration": 8, "velocity": 82}, {"time": 3806, "pitch": 63, "duration": 32, "velocity": 75}, {"time": 3812, "pitch": 75, "duration": 8, "velocity": 92}, {"time": 3818, "pitch": 68, "duration": 5, "velocity": 85}, {"time": 3824, "pitch": 68, "duration": 3, "velocity": 85}, {"time": 3824, "pitch": 71, "duration": 8, "velocity": 82}, {"time": 3830, "pitch": 68, "duration": 6, "velocity": 80}, {"time": 3836, "pitch": 71, "duration": 6, "velocity": 90}, {"time": 3836, "pitch": 75, "duration": 6, "velocity": 92}, {"time": 3848, "pitch": 61, "duration": 40, "velocity": 86}, {"time": 3848, "pitch": 76, "duration": 7, "velocity": 91}, {"time": 3854, "pitch": 68, "duration": 7, "velocity": 79}, {"time": 3860, "pitch": 76, "duration": 5, "velocity": 94}, {"time": 3866, "pitch": 68, "duration": 8, "velocity": 89}, {"time": 3872, "pitch": 80, "duration": 8, "velocity": 88}, {"time": 3878, "pitch": 68, "duration": 4, "velocity": 86}, {"time": 3884, "pitch": 68, "duration": 3, "velocity": 86}, {"time": 3884, "pitch": 76, "duration": 7, "velocity": 85}, {"time": 3890, "pitch": 68, "duration": 3, "velocity": 86}, {"time": 3896, "pitch": 54, "duration": 21, "velocity": 86}, {"time": 3896, "pitch": 66, "duration": 7, "velocity": 85}, {"time": 3896, "pitch": 73, "duration": 7, "velocity": 85}, {"time": 3902, "pitch": 61, "duration": 15, "velocity": 83}, {"time": 3908, "pitch": 66, "duration": 3, "velocity": 86}, {"time": 3908, "pitch": 70, "duration": 4, "velocity": 89}, {"time": 3914, "pitch": 66, "duration": 4, "velocity": 91}, {"time": 3920, "pitch": 54, "duration": 16, "velocity": 90}, {"time": 3920, "pitch": 66, "duration": 7, "velocity": 88}, {"time": 3920, "pitch": 70, "duration": 7, "velocity": 92}, {"time": 3920, "pitch": 73, "duration": 7, "velocity": 87}, {"time": 3926, "pitch": 61, "duration": 10, "velocity": 80}, {"time": 3932, "pitch": 66, "duration": 11, "velocity": 99}, {"time": 3932, "pitch": 70, "duration": 11, "velocity": 111}, {"time": 3938, "pitch": 54, "duration": 5, "velocity": 92}, {"time": 3944, "pitch": 59, "duration": 22, "velocity": 87}, {"time": 3944, "pitch": 71, "duration": 11, "velocity": 87}, {"time": 3944, "pitch": 78, "duration": 6, "velocity": 82}, {"time": 3950, "pitch": 66, "duration": 17, "velocity": 77}, {"time": 3956, "pitch": 71, "duration": 1, "velocity": 69}, {"time": 3956, "pitch": 75, "duration": 4, "velocity": 90}, {"time": 3956, "pitch": 78, "duration": 3, "velocity": 86}, {"time": 3956, "pitch": 83, "duration": 8, "velocity": 86}, {"time": 3962, "pitch": 78, "duration": 4, "velocity": 83}, {"time": 3965, "pitch": 71, "duration": 2, "velocity": 87}, {"time": 3968, "pitch": 58, "duration": 17, "velocity": 87}, {"time": 3968, "pitch": 70, "duration": 9, "velocity": 94}, {"time": 3968, "pitch": 73, "duration": 10, "velocity": 87}, {"time": 3974, "pitch": 66, "duration": 11, "velocity": 81}, {"time": 3980, "pitch": 70, "duration": 3, "velocity": 79}, {"time": 3980, "pitch": 73, "duration": 6, "velocity": 83}, {"time": 3980, "pitch": 78, "duration": 8, "velocity": 88}, {"time": 3986, "pitch": 70, "duration": 3, "velocity": 85}, {"time": 3992, "pitch": 56, "duration": 19, "velocity": 86}, {"time": 3992, "pitch": 68, "duration": 10, "velocity": 82}, {"time": 3992, "pitch": 71, "duration": 9, "velocity": 81}, {"time": 3998, "pitch": 63, "duration": 12, "velocity": 79}, {"time": 4004, "pitch": 71, "duration": 2, "velocity": 96}, {"time": 4004, "pitch": 75, "duration": 4, "velocity": 96}, {"time": 4007, "pitch": 71, "duration": 4, "velocity": 85}, {"time": 4010, "pitch": 68, "duration": 3, "velocity": 87}, {"time": 4016, "pitch": 52, "duration": 16, "velocity": 85}, {"time": 4016, "pitch": 64, "duration": 11, "velocity": 82}, {"time": 4016, "pitch": 68, "duration": 9, "velocity": 86}, {"time": 4022, "pitch": 59, "duration": 10, "velocity": 80}, {"time": 4028, "pitch": 64, "duration": 3, "velocity": 83}, {"time": 4028, "pitch": 68, "duration": 7, "velocity": 90}, {"time": 4028, "pitch": 71, "duration": 7, "velocity": 87}, {"time": 4034, "pitch": 64, "duration": 2, "velocity": 89}, {"time": 4040, "pitch": 61, "duration": 18, "velocity": 94}, {"time": 4040, "pitch": 68, "duration": 4, "velocity": 86}, {"time": 4040, "pitch": 73, "duration": 8, "velocity": 86}, {"time": 4046, "pitch": 68, "duration": 8, "velocity": 86}, {"time": 4052, "pitch": 76, "duration": 7, "velocity": 94}, {"time": 4058, "pitch": 73, "duration": 3, "velocity": 91}, {"time": 4061, "pitch": 68, "duration": 2, "velocity": 86}, {"time": 4064, "pitch": 54, "duration": 19, "velocity": 86}, {"time": 4064, "pitch": 66, "duration": 10, "velocity": 90}, {"time": 4064, "pitch": 70, "duration": 8, "velocity": 86}, {"time": 4070, "pitch": 61, "duration": 13, "velocity": 81}, {"time": 4076, "pitch": 66, "duration": 2, "velocity": 80}, {"time": 4076, "pitch": 70, "duration": 5, "velocity": 92}, {"time": 4076, "pitch": 73, "duration": 8, "velocity": 88}, {"time": 4082, "pitch": 66, "duration": 3, "velocity": 90}, {"time": 4088, "pitch": 59, "duration": 23, "velocity": 86}, {"time": 4088, "pitch": 66, "duration": 4, "velocity": 89}, {"time": 4088, "pitch": 71, "duration": 7, "velocity": 86}, {"time": 4094, "pitch": 66, "duration": 4, "velocity": 88}, {"time": 4100, "pitch": 66, "duration": 4, "velocity": 94}, {"time": 4100, "pitch": 75, "duration": 5, "velocity": 91}, {"time": 4106, "pitch": 71, "duration": 3, "velocity": 88}, {"time": 4109, "pitch": 66, "duration": 2, "velocity": 90}, {"time": 4112, "pitch": 59, "duration": 16, "velocity": 89}, {"time": 4112, "pitch": 66, "duration": 4, "velocity": 92}, {"time": 4112, "pitch": 71, "duration": 7, "velocity": 86}, {"time": 4118, "pitch": 66, "duration": 4, "velocity": 88}, {"time": 4124, "pitch": 66, "duration": 3, "velocity": 94}, {"time": 4124, "pitch": 75, "duration": 4, "velocity": 90}, {"time": 4127, "pitch": 71, "duration": 4, "velocity": 86}, {"time": 4130, "pitch": 66, "duration": 3, "velocity": 92}, {"time": 4136, "pitch": 51, "duration": 23, "velocity": 86}, {"time": 4136, "pitch": 63, "duration": 8, "velocity": 86}, {"time": 4136, "pitch": 67, "duration": 7, "velocity": 86}, {"time": 4142, "pitch": 58, "duration": 9, "velocity": 83}, {"time": 4148, "pitch": 63, "duration": 5, "velocity": 99}, {"time": 4148, "pitch": 75, "duration": 7, "velocity": 96}, {"time": 4154, "pitch": 58, "duration": 5, "velocity": 87}, {"time": 4157, "pitch": 63, "duration": 2, "velocity": 99}, {"time": 4157, "pitch": 75, "duration": 1, "velocity": 77}, {"time": 4160, "pitch": 51, "duration": 14, "velocity": 89}, {"time": 4160, "pitch": 63, "duration": 7, "velocity": 106}, {"time": 4160, "pitch": 70, "duration": 7, "velocity": 86}, {"time": 4166, "pitch": 58, "duration": 7, "velocity": 86}, {"time": 4172, "pitch": 63, "duration": 3, "velocity": 94}, {"time": 4172, "pitch": 67, "duration": 4, "velocity": 90}, {"time": 4178, "pitch": 63, "duration": 3, "velocity": 102}, {"time": 4184, "pitch": 56, "duration": 22, "velocity": 85}, {"time": 4184, "pitch": 68, "duration": 9, "velocity": 81}, {"time": 4184, "pitch": 71, "duration": 9, "velocity": 82}, {"time": 4190, "pitch": 63, "duration": 16, "velocity": 89}, {"time": 4196, "pitch": 68, "duration": 4, "velocity": 89}, {"time": 4196, "pitch": 80, "duration": 5, "velocity": 86}, {"time": 4202, "pitch": 75, "duration": 4, "velocity": 86}, {"time": 4205, "pitch": 68, "duration": 2, "velocity": 83}, {"time": 4208, "pitch": 56, "duration": 15, "velocity": 86}, {"time": 4208, "pitch": 68, "duration": 8, "velocity": 85}, {"time": 4208, "pitch": 71, "duration": 8, "velocity": 86}, {"time": 4214, "pitch": 63, "duration": 9, "velocity": 86}, {"time": 4220, "pitch": 68, "duration": 3, "velocity": 91}, {"time": 4220, "pitch": 71, "duration": 4, "velocity": 99}, {"time": 4226, "pitch": 68, "duration": 3, "velocity": 91}, {"time": 4232, "pitch": 54, "duration": 2, "velocity": 86}, {"time": 4232, "pitch": 66, "duration": 4, "velocity": 86}, {"time": 4232, "pitch": 73, "duration": 4, "velocity": 84}, {"time": 4238, "pitch": 66, "duration": 37, "velocity": 85}, {"time": 4244, "pitch": 73, "duration": 17, "velocity": 96}, {"time": 4247, "pitch": 78, "duration": 4, "velocity": 90}, {"time": 4250, "pitch": 85, "duration": 3, "velocity": 99}, {"time": 4253, "pitch": 78, "duration": 3, "velocity": 87}, {"time": 4256, "pitch": 90, "duration": 5, "velocity": 88}, {"time": 4259, "pitch": 78, "duration": 3, "velocity": 76}, {"time": 4262, "pitch": 73, "duration": 10, "velocity": 79}, {"time": 4268, "pitch": 90, "duration": 3, "velocity": 86}, {"time": 4268, "pitch": 94, "duration": 4, "velocity": 87}, {"time": 4278, "pitch": 73, "duration": 32, "velocity": 84}, {"time": 4280, "pitch": 54, "duration": 28, "velocity": 81}, {"time": 4280, "pitch": 78, "duration": 30, "velocity": 86}, {"time": 4281, "pitch": 82, "duration": 29, "velocity": 86}, {"time": 4328, "pitch": 59, "duration": 15, "velocity": 85}, {"time": 4328, "pitch": 71, "duration": 9, "velocity": 78}, {"time": 4328, "pitch": 75, "duration": 9, "velocity": 86}, {"time": 4334, "pitch": 66, "duration": 18, "velocity": 80}, {"time": 4340, "pitch": 71, "duration": 3, "velocity": 87}, {"time": 4340, "pitch": 75, "duration": 3, "velocity": 87}, {"time": 4346, "pitch": 58, "duration": 21, "velocity": 85}, {"time": 4346, "pitch": 70, "duration": 16, "velocity": 85}, {"time": 4346, "pitch": 73, "duration": 16, "velocity": 85}, {"time": 4358, "pitch": 66, "duration": 8, "velocity": 69}, {"time": 4364, "pitch": 70, "duration": 3, "velocity": 81}, {"time": 4364, "pitch": 73, "duration": 3, "velocity": 80}, {"time": 4364, "pitch": 78, "duration": 3, "velocity": 78}, {"time": 4370, "pitch": 56, "duration": 49, "velocity": 85}, {"time": 4370, "pitch": 68, "duration": 17, "velocity": 85}, {"time": 4370, "pitch": 71, "duration": 15, "velocity": 86}, {"time": 4382, "pitch": 63, "duration": 15, "velocity": 71}, {"time": 4388, "pitch": 71, "duration": 5, "velocity": 83}, {"time": 4388, "pitch": 75, "duration": 5, "velocity": 87}, {"time": 4394, "pitch": 68, "duration": 19, "velocity": 72}, {"time": 4406, "pitch": 63, "duration": 9, "velocity": 69}, {"time": 4412, "pitch": 71, "duration": 7, "velocity": 85}, {"time": 4412, "pitch": 75, "duration": 7, "velocity": 85}, {"time": 4412, "pitch": 80, "duration": 6, "velocity": 85}, {"time": 4418, "pitch": 68, "duration": 3, "velocity": 78}, {"time": 4424, "pitch": 59, "duration": 19, "velocity": 87}, {"time": 4424, "pitch": 71, "duration": 6, "velocity": 79}, {"time": 4430, "pitch": 66, "duration": 20, "velocity": 76}, {"time": 4436, "pitch": 71, "duration": 3, "velocity": 85}, {"time": 4436, "pitch": 75, "duration": 8, "velocity": 86}, {"time": 4442, "pitch": 71, "duration": 4, "velocity": 85}, {"time": 4448, "pitch": 58, "duration": 15, "velocity": 85}, {"time": 4448, "pitch": 70, "duration": 12, "velocity": 88}, {"time": 4454, "pitch": 73, "duration": 8, "velocity": 85}, {"time": 4460, "pitch": 78, "duration": 4, "velocity": 86}, {"time": 4466, "pitch": 56, "duration": 54, "velocity": 81}, {"time": 4466, "pitch": 68, "duration": 54, "velocity": 89}, {"time": 4466, "pitch": 71, "duration": 53, "velocity": 79}], "annotations": [{"time": 12, "annotation": {"number": 64, "value": 127}, "group": "control_change"}, {"time": 25, "annotation": {"number": 64, "value": 0}, "group": "control_change"}, {"time": 37, "annotation": {"number": 64, "value": 127}, "group": "control_change"}, {"time": 49, "annotation": {"number": 64, "value": 0}, "group": "control_change"}, {"time": 62, "annotation": {"number": 64, "value": 127}, "group": "control_change"}, {"time": 104, "annotation": {"number": 64, "value": 127}, "group": "control_change"}, {"time": 104, "annotation": {"number": 64, "value": 0}, "group": "control_change"}, {"time": 127, "annotation": {"number": 64, "value": 0}, "group": "control_change"}, {"time": 130, "annotation": {"number": 64, "value": 127}, "group": "control_change"}, {"time": 146, "annotation": {"number": 64, "value": 0}, "group": "control_change"}, {"time": 199, "annotation": {"number": 64, "value": 127}, "group": "control_change"}, {"time": 248, "annotation": {"number": 64, "value": 0}, "group": "control_change"}, {"time": 255, "annotation": {"number": 64, "value": 127}, "group": "control_change"}, {"time": 295, "annotation": {"number": 64, "value": 0}, "group": "control_change"}, {"time": 298, "annotation": {"number": 64, "value": 127}, "group": "control_change"}, {"time": 342, "annotation": {"number": 64, "value": 0}, "group": "control_change"}, {"time": 350, "annotation": {"number": 64, "value": 127}, "group": "control_change"}, {"time": 389, "annotation": {"number": 64, "value": 0}, "group": "control_change"}, {"time": 393, "annotation": {"number": 64, "value": 127}, "group": "control_change"}, {"time": 416, "annotation": {"number": 64, "value": 0}, "group": "control_change"}, {"time": 422, "annotation": {"number": 64, "value": 127}, "group": "control_change"}, {"time": 440, "annotation": {"number": 64, "value": 0}, "group": "control_change"}, {"time": 442, "annotation": {"number": 64, "value": 127}, "group": "control_change"}, {"time": 461, "annotation": {"number": 64, "value": 0}, "group": "control_change"}, {"time": 466, "annotation": {"number": 64, "value": 127}, "group": "control_change"}, {"time": 474, "annotation": {"number": 64, "value": 0}, "group": "control_change"}, {"time": 477, "annotation": {"number": 64, "value": 127}, "group": "control_change"}, {"time": 487, "annotation": {"number": 64, "value": 0}, "group": "control_change"}, {"time": 493, "annotation": {"number": 64, "value": 127}, "group": "control_change"}, {"time": 511, "annotation": {"number": 64, "value": 0}, "group": "control_change"}, {"time": 518, "annotation": {"number": 64, "value": 127}, "group": "control_change"}, {"time": 535, "annotation": {"number": 64, "value": 0}, "group": "control_change"}, {"time": 541, "annotation": {"number": 64, "value": 127}, "group": "control_change"}, {"time": 583, "annotation": {"number": 64, "value": 0}, "group": "control_change"}, {"time": 586, "annotation": {"number": 64, "value": 127}, "group": "control_change"}, {"time": 634, "annotation": {"number": 64, "value": 0}, "group": "control_change"}, {"time": 638, "annotation": {"number": 64, "value": 127}, "group": "control_change"}, {"time": 681, "annotation": {"number": 64, "value": 0}, "group": "control_change"}, {"time": 686, "annotation": {"number": 64, "value": 127}, "group": "control_change"}, {"time": 726, "annotation": {"number": 64, "value": 0}, "group": "control_change"}, {"time": 731, "annotation": {"number": 64, "value": 127}, "group": "control_change"}, {"time": 774, "annotation": {"number": 64, "value": 0}, "group": "control_change"}, {"time": 779, "annotation": {"number": 64, "value": 127}, "group": "control_change"}, {"time": 800, "annotation": {"number": 64, "value": 0}, "group": "control_change"}, {"time": 806, "annotation": {"number": 64, "value": 127}, "group": "control_change"}, {"time": 825, "annotation": {"number": 64, "value": 0}, "group": "control_change"}, {"time": 830, "annotation": {"number": 64, "value": 127}, "group": "control_change"}, {"time": 848, "annotation": {"number": 64, "value": 0}, "group": "control_change"}, {"time": 849, "annotation": {"number": 64, "value": 127}, "group": "control_change"}, {"time": 859, "annotation": {"number": 64, "value": 0}, "group": "control_change"}, {"time": 861, "annotation": {"number": 64, "value": 127}, "group": "control_change"}, {"time": 873, "annotation": {"number": 64, "value": 0}, "group": "control_change"}, {"time": 874, "annotation": {"number": 64, "value": 127}, "group": "control_change"}, {"time": 882, "annotation": {"number": 64, "value": 0}, "group": "control_change"}, {"time": 889, "annotation": {"number": 64, "value": 127}, "group": "control_change"}, {"time": 897, "annotation": {"number": 64, "value": 0}, "group": "control_change"}, {"time": 902, "annotation": {"number": 64, "value": 127}, "group": "control_change"}, {"time": 918, "annotation": {"number": 64, "value": 0}, "group": "control_change"}, {"time": 924, "annotation": {"number": 64, "value": 127}, "group": "control_change"}, {"time": 965, "annotation": {"number": 64, "value": 0}, "group": "control_change"}, {"time": 968, "annotation": {"number": 64, "value": 127}, "group": "control_change"}, {"time": 1014, "annotation": {"number": 64, "value": 0}, "group": "control_change"}, {"time": 1017, "annotation": {"number": 64, "value": 127}, "group": "control_change"}, {"time": 1040, "annotation": {"number": 64, "value": 0}, "group": "control_change"}, {"time": 1044, "annotation": {"number": 64, "value": 127}, "group": "control_change"}, {"time": 1063, "annotation": {"number": 64, "value": 0}, "group": "control_change"}, {"time": 1068, "annotation": {"number": 64, "value": 127}, "group": "control_change"}, {"time": 1089, "annotation": {"number": 64, "value": 0}, "group": "control_change"}, {"time": 1093, "annotation": {"number": 64, "value": 127}, "group": "control_change"}, {"time": 1100, "annotation": {"number": 64, "value": 127}, "group": "control_change"}, {"time": 1110, "annotation": {"number": 64, "value": 0}, "group": "control_change"}, {"time": 1118, "annotation": {"number": 64, "value": 127}, "group": "control_change"}, {"time": 1136, "annotation": {"number": 64, "value": 0}, "group": "control_change"}, {"time": 1141, "annotation": {"number": 64, "value": 127}, "group": "control_change"}, {"time": 1160, "annotation": {"number": 64, "value": 0}, "group": "control_change"}, {"time": 1165, "annotation": {"number": 64, "value": 127}, "group": "control_change"}, {"time": 1184, "annotation": {"number": 64, "value": 0}, "group": "control_change"}, {"time": 1186, "annotation": {"number": 64, "value": 127}, "group": "control_change"}, {"time": 1208, "annotation": {"number": 64, "value": 0}, "group": "control_change"}, {"time": 1211, "annotation": {"number": 64, "value": 127}, "group": "control_change"}, {"time": 1232, "annotation": {"number": 64, "value": 0}, "group": "control_change"}, {"time": 1234, "annotation": {"number": 64, "value": 127}, "group": "control_change"}, {"time": 1257, "annotation": {"number": 64, "value": 0}, "group": "control_change"}, {"time": 1262, "annotation": {"number": 64, "value": 127}, "group": "control_change"}, {"time": 1280, "annotation": {"number": 64, "value": 0}, "group": "control_change"}, {"time": 1283, "annotation": {"number": 64, "value": 127}, "group": "control_change"}, {"time": 1302, "annotation": {"number": 64, "value": 0}, "group": "control_change"}, {"time": 1304, "annotation": {"number": 64, "value": 127}, "group": "control_change"}, {"time": 1351, "annotation": {"number": 64, "value": 0}, "group": "control_change"}, {"time": 1353, "annotation": {"number": 64, "value": 127}, "group": "control_change"}, {"time": 1376, "annotation": {"number": 64, "value": 0}, "group": "control_change"}, {"time": 1377, "annotation": {"number": 64, "value": 127}, "group": "control_change"}, {"time": 1398, "annotation": {"number": 64, "value": 0}, "group": "control_change"}, {"time": 1401, "annotation": {"number": 64, "value": 127}, "group": "control_change"}, {"time": 1424, "annotation": {"number": 64, "value": 0}, "group": "control_change"}, {"time": 1428, "annotation": {"number": 64, "value": 127}, "group": "control_change"}, {"time": 1447, "annotation": {"number": 64, "value": 0}, "group": "control_change"}, {"time": 1452, "annotation": {"number": 64, "value": 127}, "group": "control_change"}, {"time": 1473, "annotation": {"number": 64, "value": 0}, "group": "control_change"}, {"time": 1477, "annotation": {"number": 64, "value": 127}, "group": "control_change"}, {"time": 1484, "annotation": {"number": 64, "value": 127}, "group": "control_change"}, {"time": 1494, "annotation": {"number": 64, "value": 0}, "group": "control_change"}, {"time": 1502, "annotation": {"number": 64, "value": 127}, "group": "control_change"}, {"time": 1520, "annotation": {"number": 64, "value": 0}, "group": "control_change"}, {"time": 1525, "annotation": {"number": 64, "value": 127}, "group": "control_change"}, {"time": 1544, "annotation": {"number": 64, "value": 0}, "group": "control_change"}, {"time": 1549, "annotation": {"number": 64, "value": 127}, "group": "control_change"}, {"time": 1568, "annotation": {"number": 64, "value": 0}, "group": "control_change"}, {"time": 1570, "annotation": {"number": 64, "value": 127}, "group": "control_change"}, {"time": 1592, "annotation": {"number": 64, "value": 0}, "group": "control_change"}, {"time": 1595, "annotation": {"number": 64, "value": 127}, "group": "control_change"}, {"time": 1616, "annotation": {"number": 64, "value": 0}, "group": "control_change"}, {"time": 1618, "annotation": {"number": 64, "value": 127}, "group": "control_change"}, {"time": 1641, "annotation": {"number": 64, "value": 0}, "group": "control_change"}, {"time": 1646, "annotation": {"number": 64, "value": 127}, "group": "control_change"}, {"time": 1664, "annotation": {"number": 64, "value": 0}, "group": "control_change"}, {"time": 1667, "annotation": {"number": 64, "value": 127}, "group": "control_change"}, {"time": 1686, "annotation": {"number": 64, "value": 127}, "group": "control_change"}, {"time": 1686, "annotation": {"number": 64, "value": 0}, "group": "control_change"}, {"time": 1688, "annotation": {"number": 64, "value": 127}, "group": "control_change"}, {"time": 1735, "annotation": {"number": 64, "value": 0}, "group": "control_change"}, {"time": 1737, "annotation": {"number": 64, "value": 127}, "group": "control_change"}, {"time": 1782, "annotation": {"number": 64, "value": 0}, "group": "control_change"}, {"time": 1801, "annotation": {"number": 64, "value": 0}, "group": "control_change"}, {"time": 1804, "annotation": {"number": 64, "value": 127}, "group": "control_change"}, {"time": 1831, "annotation": {"number": 64, "value": 0}, "group": "control_change"}, {"time": 1834, "annotation": {"number": 64, "value": 127}, "group": "control_change"}, {"time": 1848, "annotation": {"number": 64, "value": 0}, "group": "control_change"}, {"time": 1849, "annotation": {"number": 64, "value": 127}, "group": "control_change"}, {"time": 1879, "annotation": {"number": 64, "value": 0}, "group": "control_change"}, {"time": 1880, "annotation": {"number": 64, "value": 127}, "group": "control_change"}, {"time": 1896, "annotation": {"number": 64, "value": 0}, "group": "control_change"}, {"time": 1901, "annotation": {"number": 64, "value": 127}, "group": "control_change"}, {"time": 1920, "annotation": {"number": 64, "value": 0}, "group": "control_change"}, {"time": 1922, "annotation": {"number": 64, "value": 127}, "group": "control_change"}, {"time": 1934, "annotation": {"number": 64, "value": 0}, "group": "control_change"}, {"time": 1978, "annotation": {"number": 64, "value": 127}, "group": "control_change"}, {"time": 2026, "annotation": {"number": 64, "value": 0}, "group": "control_change"}, {"time": 2030, "annotation": {"number": 64, "value": 127}, "group": "control_change"}, {"time": 2073, "annotation": {"number": 64, "value": 0}, "group": "control_change"}, {"time": 2078, "annotation": {"number": 64, "value": 127}, "group": "control_change"}, {"time": 2118, "annotation": {"number": 64, "value": 0}, "group": "control_change"}, {"time": 2123, "annotation": {"number": 64, "value": 127}, "group": "control_change"}, {"time": 2166, "annotation": {"number": 64, "value": 0}, "group": "control_change"}, {"time": 2171, "annotation": {"number": 64, "value": 127}, "group": "control_change"}, {"time": 2192, "annotation": {"number": 64, "value": 0}, "group": "control_change"}, {"time": 2198, "annotation": {"number": 64, "value": 127}, "group": "control_change"}, {"time": 2217, "annotation": {"number": 64, "value": 0}, "group": "control_change"}, {"time": 2222, "annotation": {"number": 64, "value": 127}, "group": "control_change"}, {"time": 2240, "annotation": {"number": 64, "value": 0}, "group": "control_change"}, {"time": 2241, "annotation": {"number": 64, "value": 127}, "group": "control_change"}, {"time": 2251, "annotation": {"number": 64, "value": 0}, "group": "control_change"}, {"time": 2253, "annotation": {"number": 64, "value": 127}, "group": "control_change"}, {"time": 2265, "annotation": {"number": 64, "value": 0}, "group": "control_change"}, {"time": 2266, "annotation": {"number": 64, "value": 127}, "group": "control_change"}, {"time": 2274, "annotation": {"number": 64, "value": 0}, "group": "control_change"}, {"time": 2281, "annotation": {"number": 64, "value": 127}, "group": "control_change"}, {"time": 2289, "annotation": {"number": 64, "value": 0}, "group": "control_change"}, {"time": 2294, "annotation": {"number": 64, "value": 127}, "group": "control_change"}, {"time": 2310, "annotation": {"number": 64, "value": 0}, "group": "control_change"}, {"time": 2316, "annotation": {"number": 64, "value": 127}, "group": "control_change"}, {"time": 2357, "annotation": {"number": 64, "value": 0}, "group": "control_change"}, {"time": 2360, "annotation": {"number": 64, "value": 127}, "group": "control_change"}, {"time": 2406, "annotation": {"number": 64, "value": 0}, "group": "control_change"}, {"time": 2409, "annotation": {"number": 64, "value": 127}, "group": "control_change"}, {"time": 2432, "annotation": {"number": 64, "value": 0}, "group": "control_change"}, {"time": 2436, "annotation": {"number": 64, "value": 127}, "group": "control_change"}, {"time": 2455, "annotation": {"number": 64, "value": 0}, "group": "control_change"}, {"time": 2460, "annotation": {"number": 64, "value": 127}, "group": "control_change"}, {"time": 2481, "annotation": {"number": 64, "value": 0}, "group": "control_change"}, {"time": 2485, "annotation": {"number": 64, "value": 127}, "group": "control_change"}, {"time": 2492, "annotation": {"number": 64, "value": 127}, "group": "control_change"}, {"time": 2502, "annotation": {"number": 64, "value": 0}, "group": "control_change"}, {"time": 2510, "annotation": {"number": 64, "value": 127}, "group": "control_change"}, {"time": 2528, "annotation": {"number": 64, "value": 0}, "group": "control_change"}, {"time": 2533, "annotation": {"number": 64, "value": 127}, "group": "control_change"}, {"time": 2552, "annotation": {"number": 64, "value": 0}, "group": "control_change"}, {"time": 2557, "annotation": {"number": 64, "value": 127}, "group": "control_change"}, {"time": 2576, "annotation": {"number": 64, "value": 0}, "group": "control_change"}, {"time": 2578, "annotation": {"number": 64, "value": 127}, "group": "control_change"}, {"time": 2600, "annotation": {"number": 64, "value": 0}, "group": "control_change"}, {"time": 2603, "annotation": {"number": 64, "value": 127}, "group": "control_change"}, {"time": 2624, "annotation": {"number": 64, "value": 0}, "group": "control_change"}, {"time": 2626, "annotation": {"number": 64, "value": 127}, "group": "control_change"}, {"time": 2649, "annotation": {"number": 64, "value": 0}, "group": "control_change"}, {"time": 2654, "annotation": {"number": 64, "value": 127}, "group": "control_change"}, {"time": 2672, "annotation": {"number": 64, "value": 0}, "group": "control_change"}, {"time": 2675, "annotation": {"number": 64, "value": 127}, "group": "control_change"}, {"time": 2694, "annotation": {"number": 64, "value": 0}, "group": "control_change"}, {"time": 2696, "annotation": {"number": 64, "value": 127}, "group": "control_change"}, {"time": 2743, "annotation": {"number": 64, "value": 0}, "group": "control_change"}, {"time": 2745, "annotation": {"number": 64, "value": 127}, "group": "control_change"}, {"time": 2768, "annotation": {"number": 64, "value": 0}, "group": "control_change"}, {"time": 2769, "annotation": {"number": 64, "value": 127}, "group": "control_change"}, {"time": 2790, "annotation": {"number": 64, "value": 0}, "group": "control_change"}, {"time": 2793, "annotation": {"number": 64, "value": 127}, "group": "control_change"}, {"time": 2816, "annotation": {"number": 64, "value": 0}, "group": "control_change"}, {"time": 2820, "annotation": {"number": 64, "value": 127}, "group": "control_change"}, {"time": 2839, "annotation": {"number": 64, "value": 0}, "group": "control_change"}, {"time": 2844, "annotation": {"number": 64, "value": 127}, "group": "control_change"}, {"time": 2865, "annotation": {"number": 64, "value": 0}, "group": "control_change"}, {"time": 2869, "annotation": {"number": 64, "value": 127}, "group": "control_change"}, {"time": 2876, "annotation": {"number": 64, "value": 127}, "group": "control_change"}, {"time": 2886, "annotation": {"number": 64, "value": 0}, "group": "control_change"}, {"time": 2894, "annotation": {"number": 64, "value": 127}, "group": "control_change"}, {"time": 2912, "annotation": {"number": 64, "value": 0}, "group": "control_change"}, {"time": 2917, "annotation": {"number": 64, "value": 127}, "group": "control_change"}, {"time": 2936, "annotation": {"number": 64, "value": 0}, "group": "control_change"}, {"time": 2941, "annotation": {"number": 64, "value": 127}, "group": "control_change"}, {"time": 2960, "annotation": {"number": 64, "value": 0}, "group": "control_change"}, {"time": 2962, "annotation": {"number": 64, "value": 127}, "group": "control_change"}, {"time": 2984, "annotation": {"number": 64, "value": 0}, "group": "control_change"}, {"time": 2987, "annotation": {"number": 64, "value": 127}, "group": "control_change"}, {"time": 3008, "annotation": {"number": 64, "value": 0}, "group": "control_change"}, {"time": 3010, "annotation": {"number": 64, "value": 127}, "group": "control_change"}, {"time": 3033, "annotation": {"number": 64, "value": 0}, "group": "control_change"}, {"time": 3038, "annotation": {"number": 64, "value": 127}, "group": "control_change"}, {"time": 3056, "annotation": {"number": 64, "value": 0}, "group": "control_change"}, {"time": 3059, "annotation": {"number": 64, "value": 127}, "group": "control_change"}, {"time": 3078, "annotation": {"number": 64, "value": 127}, "group": "control_change"}, {"time": 3078, "annotation": {"number": 64, "value": 0}, "group": "control_change"}, {"time": 3080, "annotation": {"number": 64, "value": 127}, "group": "control_change"}, {"time": 3127, "annotation": {"number": 64, "value": 0}, "group": "control_change"}, {"time": 3129, "annotation": {"number": 64, "value": 127}, "group": "control_change"}, {"time": 3147, "annotation": {"number": 64, "value": 0}, "group": "control_change"}, {"time": 3152, "annotation": {"number": 64, "value": 127}, "group": "control_change"}, {"time": 3169, "annotation": {"number": 64, "value": 0}, "group": "control_change"}, {"time": 3174, "annotation": {"number": 64, "value": 127}, "group": "control_change"}, {"time": 3200, "annotation": {"number": 64, "value": 0}, "group": "control_change"}, {"time": 3200, "annotation": {"number": 64, "value": 127}, "group": "control_change"}, {"time": 3222, "annotation": {"number": 64, "value": 0}, "group": "control_change"}, {"time": 3224, "annotation": {"number": 64, "value": 127}, "group": "control_change"}, {"time": 3246, "annotation": {"number": 64, "value": 0}, "group": "control_change"}, {"time": 3248, "annotation": {"number": 64, "value": 127}, "group": "control_change"}, {"time": 3264, "annotation": {"number": 64, "value": 0}, "group": "control_change"}, {"time": 3268, "annotation": {"number": 64, "value": 127}, "group": "control_change"}, {"time": 3320, "annotation": {"number": 64, "value": 0}, "group": "control_change"}, {"time": 3323, "annotation": {"number": 64, "value": 127}, "group": "control_change"}, {"time": 3342, "annotation": {"number": 64, "value": 0}, "group": "control_change"}, {"time": 3346, "annotation": {"number": 64, "value": 127}, "group": "control_change"}, {"time": 3360, "annotation": {"number": 64, "value": 0}, "group": "control_change"}, {"time": 3362, "annotation": {"number": 64, "value": 127}, "group": "control_change"}, {"time": 3415, "annotation": {"number": 64, "value": 0}, "group": "control_change"}, {"time": 3419, "annotation": {"number": 64, "value": 127}, "group": "control_change"}, {"time": 3438, "annotation": {"number": 64, "value": 0}, "group": "control_change"}, {"time": 3442, "annotation": {"number": 64, "value": 127}, "group": "control_change"}, {"time": 3456, "annotation": {"number": 64, "value": 0}, "group": "control_change"}, {"time": 3458, "annotation": {"number": 64, "value": 127}, "group": "control_change"}, {"time": 3511, "annotation": {"number": 64, "value": 0}, "group": "control_change"}, {"time": 3512, "annotation": {"number": 64, "value": 127}, "group": "control_change"}, {"time": 3557, "annotation": {"number": 64, "value": 0}, "group": "control_change"}, {"time": 3561, "annotation": {"number": 64, "value": 127}, "group": "control_change"}, {"time": 3582, "annotation": {"number": 64, "value": 0}, "group": "control_change"}, {"time": 3584, "annotation": {"number": 64, "value": 127}, "group": "control_change"}, {"time": 3607, "annotation": {"number": 64, "value": 0}, "group": "control_change"}, {"time": 3610, "annotation": {"number": 64, "value": 127}, "group": "control_change"}, {"time": 3632, "annotation": {"number": 64, "value": 0}, "group": "control_change"}, {"time": 3634, "annotation": {"number": 64, "value": 127}, "group": "control_change"}, {"time": 3655, "annotation": {"number": 64, "value": 0}, "group": "control_change"}, {"time": 3662, "annotation": {"number": 64, "value": 127}, "group": "control_change"}, {"time": 3678, "annotation": {"number": 64, "value": 0}, "group": "control_change"}, {"time": 3685, "annotation": {"number": 64, "value": 127}, "group": "control_change"}, {"time": 3705, "annotation": {"number": 64, "value": 0}, "group": "control_change"}, {"time": 3710, "annotation": {"number": 64, "value": 127}, "group": "control_change"}, {"time": 3750, "annotation": {"number": 64, "value": 0}, "group": "control_change"}, {"time": 3756, "annotation": {"number": 64, "value": 127}, "group": "control_change"}, {"time": 3788, "annotation": {"number": 64, "value": 0}, "group": "control_change"}, {"time": 3789, "annotation": {"number": 64, "value": 127}, "group": "control_change"}, {"time": 3799, "annotation": {"number": 64, "value": 0}, "group": "control_change"}, {"time": 3804, "annotation": {"number": 64, "value": 127}, "group": "control_change"}, {"time": 3825, "annotation": {"number": 64, "value": 0}, "group": "control_change"}, {"time": 3826, "annotation": {"number": 64, "value": 127}, "group": "control_change"}, {"time": 3847, "annotation": {"number": 64, "value": 0}, "group": "control_change"}, {"time": 3854, "annotation": {"number": 64, "value": 127}, "group": "control_change"}, {"time": 3897, "annotation": {"number": 64, "value": 0}, "group": "control_change"}, {"time": 3901, "annotation": {"number": 64, "value": 127}, "group": "control_change"}, {"time": 3919, "annotation": {"number": 64, "value": 0}, "group": "control_change"}, {"time": 3920, "annotation": {"number": 64, "value": 127}, "group": "control_change"}, {"time": 3940, "annotation": {"number": 64, "value": 0}, "group": "control_change"}, {"time": 3945, "annotation": {"number": 64, "value": 127}, "group": "control_change"}, {"time": 3968, "annotation": {"number": 64, "value": 0}, "group": "control_change"}, {"time": 3972, "annotation": {"number": 64, "value": 127}, "group": "control_change"}, {"time": 3991, "annotation": {"number": 64, "value": 0}, "group": "control_change"}, {"time": 3996, "annotation": {"number": 64, "value": 127}, "group": "control_change"}, {"time": 4017, "annotation": {"number": 64, "value": 0}, "group": "control_change"}, {"time": 4021, "annotation": {"number": 64, "value": 127}, "group": "control_change"}, {"time": 4028, "annotation": {"number": 64, "value": 127}, "group": "control_change"}, {"time": 4038, "annotation": {"number": 64, "value": 0}, "group": "control_change"}, {"time": 4046, "annotation": {"number": 64, "value": 127}, "group": "control_change"}, {"time": 4064, "annotation": {"number": 64, "value": 0}, "group": "control_change"}, {"time": 4069, "annotation": {"number": 64, "value": 127}, "group": "control_change"}, {"time": 4088, "annotation": {"number": 64, "value": 0}, "group": "control_change"}, {"time": 4093, "annotation": {"number": 64, "value": 127}, "group": "control_change"}, {"time": 4112, "annotation": {"number": 64, "value": 0}, "group": "control_change"}, {"time": 4114, "annotation": {"number": 64, "value": 127}, "group": "control_change"}, {"time": 4136, "annotation": {"number": 64, "value": 0}, "group": "control_change"}, {"time": 4139, "annotation": {"number": 64, "value": 127}, "group": "control_change"}, {"time": 4160, "annotation": {"number": 64, "value": 0}, "group": "control_change"}, {"time": 4162, "annotation": {"number": 64, "value": 127}, "group": "control_change"}, {"time": 4185, "annotation": {"number": 64, "value": 0}, "group": "control_change"}, {"time": 4190, "annotation": {"number": 64, "value": 127}, "group": "control_change"}, {"time": 4208, "annotation": {"number": 64, "value": 0}, "group": "control_change"}, {"time": 4211, "annotation": {"number": 64, "value": 127}, "group": "control_change"}, {"time": 4230, "annotation": {"number": 64, "value": 127}, "group": "control_change"}, {"time": 4230, "annotation": {"number": 64, "value": 0}, "group": "control_change"}, {"time": 4232, "annotation": {"number": 64, "value": 127}, "group": "control_change"}, {"time": 4279, "annotation": {"number": 64, "value": 0}, "group": "control_change"}, {"time": 4280, "annotation": {"number": 64, "value": 127}, "group": "control_change"}, {"time": 4326, "annotation": {"number": 64, "value": 0}, "group": "control_change"}, {"time": 4332, "annotation": {"number": 64, "value": 127}, "group": "control_change"}, {"time": 4345, "annotation": {"number": 64, "value": 0}, "group": "control_change"}, {"time": 4357, "annotation": {"number": 64, "value": 127}, "group": "control_change"}, {"time": 4369, "annotation": {"number": 64, "value": 0}, "group": "control_change"}, {"time": 4382, "annotation": {"number": 64, "value": 127}, "group": "control_change"}, {"time": 4424, "annotation": {"number": 64, "value": 127}, "group": "control_change"}, {"time": 4424, "annotation": {"number": 64, "value": 0}, "group": "control_change"}, {"time": 4447, "annotation": {"number": 64, "value": 0}, "group": "control_change"}, {"time": 4450, "annotation": {"number": 64, "value": 127}, "group": "control_change"}, {"time": 4466, "annotation": {"number": 64, "value": 0}, "group": "control_change"}]}]}