{"metadata": {"schema_version": "0.2", "title": "None", "source_filename": "412.mid", "source_format": "midi"}, "resolution": 12, "tempos": [{"time": 0, "qpm": 61.500047662536936}, {"time": 386, "qpm": 61.00003456668625}, {"time": 396, "qpm": 60.0}, {"time": 420, "qpm": 61.00003456668625}, {"time": 528, "qpm": 61.500047662536936}, {"time": 900, "qpm": 61.00003456668625}, {"time": 1109, "qpm": 61.500047662536936}, {"time": 1572, "qpm": 61.00003456668625}, {"time": 1788, "qpm": 62.00005993339127}, {"time": 1884, "qpm": 61.250114843965335}, {"time": 2304, "qpm": 61.75005840526357}, {"time": 2383, "qpm": 61.250114843965335}, {"time": 2976, "qpm": 62.00005993339127}, {"time": 3037, "qpm": 61.250114843965335}, {"time": 3492, "qpm": 61.00003456668625}, {"time": 3528, "qpm": 61.500047662536936}], "time_signatures": [{"time": 0, "numerator": 1, "denominator": 4}], "tracks": [{"program": 4, "is_drum": false, "name": "MELODY", "notes": [{"time": 410, "pitch": 70, "duration": 3, "velocity": 57}, {"time": 414, "pitch": 75, "duration": 6, "velocity": 65}, {"time": 426, "pitch": 77, "duration": 7, "velocity": 51}, {"time": 434, "pitch": 79, "duration": 2, "velocity": 62}, {"time": 438, "pitch": 82, "duration": 2, "velocity": 59}, {"time": 442, "pitch": 79, "duration": 2, "velocity": 59}, {"time": 446, "pitch": 79, "duration": 4, "velocity": 60}, {"time": 458, "pitch": 72, "duration": 3, "velocity": 58}, {"time": 462, "pitch": 75, "duration": 5, "velocity": 60}, {"time": 474, "pitch": 77, "duration": 3, "velocity": 58}, {"time": 478, "pitch": 75, "duration": 2, "velocity": 62}, {"time": 482, "pitch": 72, "duration": 3, "velocity": 61}, {"time": 486, "pitch": 70, "duration": 5, "velocity": 61}, {"time": 506, "pitch": 70, "duration": 3, "velocity": 59}, {"time": 510, "pitch": 75, "duration": 4, "velocity": 61}, {"time": 522, "pitch": 77, "duration": 5, "velocity": 60}, {"time": 530, "pitch": 79, "duration": 2, "velocity": 60}, {"time": 534, "pitch": 84, "duration": 2, "velocity": 60}, {"time": 538, "pitch": 79, "duration": 2, "velocity": 58}, {"time": 542, "pitch": 82, "duration": 2, "velocity": 58}, {"time": 550, "pitch": 79, "duration": 2, "velocity": 57}, {"time": 554, "pitch": 77, "duration": 2, "velocity": 58}, {"time": 558, "pitch": 75, "duration": 7, "velocity": 62}, {"time": 566, "pitch": 75, "duration": 3, "velocity": 60}, {"time": 570, "pitch": 77, "duration": 6, "velocity": 59}, {"time": 578, "pitch": 82, "duration": 3, "velocity": 51}, {"time": 582, "pitch": 79, "duration": 3, "velocity": 60}, {"time": 586, "pitch": 77, "duration": 9, "velocity": 60}, {"time": 602, "pitch": 79, "duration": 3, "velocity": 54}, {"time": 606, "pitch": 82, "duration": 9, "velocity": 53}, {"time": 618, "pitch": 82, "duration": 4, "velocity": 58}, {"time": 622, "pitch": 79, "duration": 3, "velocity": 60}, {"time": 626, "pitch": 82, "duration": 2, "velocity": 58}, {"time": 630, "pitch": 84, "duration": 2, "velocity": 59}, {"time": 634, "pitch": 87, "duration": 3, "velocity": 60}, {"time": 638, "pitch": 84, "duration": 6, "velocity": 55}, {"time": 650, "pitch": 79, "duration": 3, "velocity": 60}, {"time": 654, "pitch": 77, "duration": 4, "velocity": 62}, {"time": 658, "pitch": 75, "duration": 2, "velocity": 57}, {"time": 662, "pitch": 75, "duration": 3, "velocity": 59}, {"time": 666, "pitch": 77, "duration": 6, "velocity": 61}, {"time": 674, "pitch": 79, "duration": 3, "velocity": 60}, {"time": 678, "pitch": 79, "duration": 12, "velocity": 59}, {"time": 698, "pitch": 79, "duration": 3, "velocity": 56}, {"time": 702, "pitch": 82, "duration": 7, "velocity": 58}, {"time": 718, "pitch": 79, "duration": 3, "velocity": 58}, {"time": 722, "pitch": 79, "duration": 3, "velocity": 62}, {"time": 726, "pitch": 77, "duration": 3, "velocity": 59}, {"time": 730, "pitch": 75, "duration": 2, "velocity": 60}, {"time": 734, "pitch": 75, "duration": 5, "velocity": 62}, {"time": 746, "pitch": 70, "duration": 3, "velocity": 58}, {"time": 750, "pitch": 77, "duration": 6, "velocity": 57}, {"time": 758, "pitch": 75, "duration": 3, "velocity": 60}, {"time": 762, "pitch": 79, "duration": 4, "velocity": 59}, {"time": 770, "pitch": 77, "duration": 3, "velocity": 59}, {"time": 774, "pitch": 75, "duration": 14, "velocity": 62}, {"time": 818, "pitch": 70, "duration": 3, "velocity": 57}, {"time": 822, "pitch": 75, "duration": 6, "velocity": 65}, {"time": 834, "pitch": 77, "duration": 7, "velocity": 51}, {"time": 842, "pitch": 79, "duration": 2, "velocity": 62}, {"time": 846, "pitch": 82, "duration": 2, "velocity": 59}, {"time": 850, "pitch": 79, "duration": 2, "velocity": 59}, {"time": 854, "pitch": 79, "duration": 4, "velocity": 60}, {"time": 866, "pitch": 72, "duration": 3, "velocity": 58}, {"time": 870, "pitch": 75, "duration": 5, "velocity": 60}, {"time": 878, "pitch": 75, "duration": 4, "velocity": 60}, {"time": 882, "pitch": 77, "duration": 3, "velocity": 58}, {"time": 886, "pitch": 75, "duration": 2, "velocity": 62}, {"time": 890, "pitch": 72, "duration": 3, "velocity": 61}, {"time": 894, "pitch": 70, "duration": 12, "velocity": 61}, {"time": 914, "pitch": 70, "duration": 3, "velocity": 59}, {"time": 918, "pitch": 75, "duration": 4, "velocity": 61}, {"time": 930, "pitch": 77, "duration": 5, "velocity": 60}, {"time": 938, "pitch": 79, "duration": 2, "velocity": 60}, {"time": 942, "pitch": 84, "duration": 2, "velocity": 60}, {"time": 946, "pitch": 79, "duration": 2, "velocity": 58}, {"time": 950, "pitch": 82, "duration": 8, "velocity": 58}, {"time": 962, "pitch": 79, "duration": 2, "velocity": 58}, {"time": 966, "pitch": 75, "duration": 7, "velocity": 62}, {"time": 974, "pitch": 75, "duration": 3, "velocity": 60}, {"time": 978, "pitch": 77, "duration": 6, "velocity": 59}, {"time": 986, "pitch": 82, "duration": 3, "velocity": 51}, {"time": 990, "pitch": 79, "duration": 3, "velocity": 60}, {"time": 994, "pitch": 77, "duration": 9, "velocity": 60}, {"time": 1010, "pitch": 79, "duration": 3, "velocity": 54}, {"time": 1014, "pitch": 82, "duration": 8, "velocity": 53}, {"time": 1022, "pitch": 82, "duration": 4, "velocity": 58}, {"time": 1026, "pitch": 82, "duration": 4, "velocity": 58}, {"time": 1030, "pitch": 79, "duration": 3, "velocity": 60}, {"time": 1034, "pitch": 82, "duration": 2, "velocity": 58}, {"time": 1038, "pitch": 84, "duration": 2, "velocity": 59}, {"time": 1042, "pitch": 87, "duration": 3, "velocity": 60}, {"time": 1046, "pitch": 84, "duration": 6, "velocity": 55}, {"time": 1058, "pitch": 79, "duration": 3, "velocity": 60}, {"time": 1062, "pitch": 77, "duration": 4, "velocity": 62}, {"time": 1066, "pitch": 75, "duration": 2, "velocity": 57}, {"time": 1070, "pitch": 75, "duration": 3, "velocity": 59}, {"time": 1074, "pitch": 77, "duration": 6, "velocity": 61}, {"time": 1082, "pitch": 82, "duration": 3, "velocity": 60}, {"time": 1086, "pitch": 79, "duration": 12, "velocity": 59}, {"time": 1106, "pitch": 79, "duration": 3, "velocity": 56}, {"time": 1110, "pitch": 82, "duration": 7, "velocity": 58}, {"time": 1126, "pitch": 79, "duration": 3, "velocity": 58}, {"time": 1130, "pitch": 77, "duration": 3, "velocity": 62}, {"time": 1134, "pitch": 72, "duration": 3, "velocity": 59}, {"time": 1138, "pitch": 75, "duration": 2, "velocity": 60}, {"time": 1142, "pitch": 70, "duration": 5, "velocity": 62}, {"time": 1146, "pitch": 75, "duration": 5, "velocity": 62}, {"time": 1154, "pitch": 77, "duration": 3, "velocity": 58}, {"time": 1158, "pitch": 77, "duration": 4, "velocity": 57}, {"time": 1162, "pitch": 75, "duration": 32, "velocity": 60}, {"time": 1202, "pitch": 79, "duration": 3, "velocity": 62}, {"time": 1206, "pitch": 82, "duration": 5, "velocity": 58}, {"time": 1214, "pitch": 82, "duration": 2, "velocity": 54}, {"time": 1218, "pitch": 82, "duration": 2, "velocity": 59}, {"time": 1222, "pitch": 79, "duration": 3, "velocity": 61}, {"time": 1226, "pitch": 82, "duration": 3, "velocity": 62}, {"time": 1230, "pitch": 84, "duration": 6, "velocity": 60}, {"time": 1238, "pitch": 84, "duration": 2, "velocity": 60}, {"time": 1242, "pitch": 79, "duration": 7, "velocity": 64}, {"time": 1250, "pitch": 77, "duration": 3, "velocity": 58}, {"time": 1254, "pitch": 75, "duration": 5, "velocity": 60}, {"time": 1262, "pitch": 75, "duration": 3, "velocity": 63}, {"time": 1266, "pitch": 77, "duration": 7, "velocity": 60}, {"time": 1274, "pitch": 82, "duration": 3, "velocity": 56}, {"time": 1278, "pitch": 79, "duration": 14, "velocity": 54}, {"time": 1298, "pitch": 79, "duration": 3, "velocity": 62}, {"time": 1302, "pitch": 82, "duration": 6, "velocity": 58}, {"time": 1314, "pitch": 82, "duration": 3, "velocity": 59}, {"time": 1318, "pitch": 79, "duration": 3, "velocity": 60}, {"time": 1322, "pitch": 82, "duration": 3, "velocity": 60}, {"time": 1326, "pitch": 84, "duration": 7, "velocity": 59}, {"time": 1334, "pitch": 84, "duration": 3, "velocity": 58}, {"time": 1338, "pitch": 79, "duration": 6, "velocity": 58}, {"time": 1346, "pitch": 77, "duration": 4, "velocity": 53}, {"time": 1350, "pitch": 75, "duration": 6, "velocity": 63}, {"time": 1358, "pitch": 70, "duration": 2, "velocity": 60}, {"time": 1362, "pitch": 77, "duration": 7, "velocity": 58}, {"time": 1370, "pitch": 79, "duration": 3, "velocity": 59}, {"time": 1374, "pitch": 77, "duration": 5, "velocity": 62}, {"time": 1378, "pitch": 75, "duration": 15, "velocity": 62}, {"time": 1394, "pitch": 72, "duration": 1, "velocity": 59}, {"time": 1396, "pitch": 72, "duration": 2, "velocity": 58}, {"time": 1398, "pitch": 75, "duration": 6, "velocity": 65}, {"time": 1406, "pitch": 75, "duration": 3, "velocity": 62}, {"time": 1410, "pitch": 77, "duration": 4, "velocity": 59}, {"time": 1414, "pitch": 77, "duration": 4, "velocity": 59}, {"time": 1418, "pitch": 82, "duration": 3, "velocity": 59}, {"time": 1422, "pitch": 79, "duration": 11, "velocity": 58}, {"time": 1442, "pitch": 79, "duration": 2, "velocity": 67}, {"time": 1444, "pitch": 82, "duration": 1, "velocity": 59}, {"time": 1446, "pitch": 84, "duration": 6, "velocity": 57}, {"time": 1454, "pitch": 82, "duration": 3, "velocity": 58}, {"time": 1458, "pitch": 84, "duration": 3, "velocity": 57}, {"time": 1462, "pitch": 82, "duration": 2, "velocity": 59}, {"time": 1464, "pitch": 79, "duration": 2, "velocity": 59}, {"time": 1466, "pitch": 77, "duration": 3, "velocity": 58}, {"time": 1470, "pitch": 79, "duration": 11, "velocity": 59}, {"time": 1490, "pitch": 75, "duration": 4, "velocity": 67}, {"time": 1494, "pitch": 77, "duration": 4, "velocity": 62}, {"time": 1502, "pitch": 75, "duration": 3, "velocity": 67}, {"time": 1506, "pitch": 77, "duration": 3, "velocity": 64}, {"time": 1510, "pitch": 75, "duration": 3, "velocity": 63}, {"time": 1514, "pitch": 72, "duration": 3, "velocity": 60}, {"time": 1518, "pitch": 77, "duration": 7, "velocity": 59}, {"time": 1526, "pitch": 79, "duration": 4, "velocity": 58}, {"time": 1530, "pitch": 77, "duration": 5, "velocity": 58}, {"time": 1538, "pitch": 75, "duration": 3, "velocity": 69}, {"time": 1542, "pitch": 77, "duration": 3, "velocity": 60}, {"time": 1546, "pitch": 77, "duration": 2, "velocity": 58}, {"time": 1550, "pitch": 77, "duration": 2, "velocity": 59}, {"time": 1554, "pitch": 77, "duration": 3, "velocity": 65}, {"time": 1558, "pitch": 79, "duration": 3, "velocity": 61}, {"time": 1562, "pitch": 84, "duration": 3, "velocity": 59}, {"time": 1566, "pitch": 82, "duration": 28, "velocity": 58}, {"time": 2018, "pitch": 70, "duration": 3, "velocity": 57}, {"time": 2022, "pitch": 75, "duration": 6, "velocity": 65}, {"time": 2034, "pitch": 77, "duration": 7, "velocity": 51}, {"time": 2042, "pitch": 79, "duration": 2, "velocity": 62}, {"time": 2046, "pitch": 82, "duration": 2, "velocity": 59}, {"time": 2050, "pitch": 79, "duration": 2, "velocity": 59}, {"time": 2054, "pitch": 79, "duration": 4, "velocity": 60}, {"time": 2066, "pitch": 72, "duration": 3, "velocity": 58}, {"time": 2070, "pitch": 75, "duration": 5, "velocity": 60}, {"time": 2078, "pitch": 75, "duration": 4, "velocity": 60}, {"time": 2082, "pitch": 77, "duration": 3, "velocity": 58}, {"time": 2086, "pitch": 75, "duration": 2, "velocity": 62}, {"time": 2090, "pitch": 72, "duration": 3, "velocity": 61}, {"time": 2094, "pitch": 70, "duration": 12, "velocity": 61}, {"time": 2114, "pitch": 70, "duration": 3, "velocity": 59}, {"time": 2118, "pitch": 75, "duration": 4, "velocity": 61}, {"time": 2130, "pitch": 77, "duration": 5, "velocity": 60}, {"time": 2138, "pitch": 79, "duration": 2, "velocity": 60}, {"time": 2142, "pitch": 84, "duration": 2, "velocity": 60}, {"time": 2146, "pitch": 79, "duration": 2, "velocity": 58}, {"time": 2150, "pitch": 82, "duration": 8, "velocity": 58}, {"time": 2162, "pitch": 79, "duration": 2, "velocity": 58}, {"time": 2166, "pitch": 75, "duration": 7, "velocity": 62}, {"time": 2174, "pitch": 75, "duration": 3, "velocity": 60}, {"time": 2178, "pitch": 77, "duration": 6, "velocity": 59}, {"time": 2186, "pitch": 82, "duration": 3, "velocity": 51}, {"time": 2190, "pitch": 79, "duration": 3, "velocity": 60}, {"time": 2194, "pitch": 77, "duration": 9, "velocity": 60}, {"time": 2210, "pitch": 79, "duration": 3, "velocity": 54}, {"time": 2214, "pitch": 82, "duration": 8, "velocity": 53}, {"time": 2222, "pitch": 82, "duration": 4, "velocity": 58}, {"time": 2226, "pitch": 82, "duration": 4, "velocity": 58}, {"time": 2230, "pitch": 79, "duration": 3, "velocity": 60}, {"time": 2234, "pitch": 82, "duration": 2, "velocity": 58}, {"time": 2238, "pitch": 84, "duration": 2, "velocity": 59}, {"time": 2242, "pitch": 87, "duration": 3, "velocity": 60}, {"time": 2246, "pitch": 84, "duration": 6, "velocity": 55}, {"time": 2258, "pitch": 79, "duration": 3, "velocity": 60}, {"time": 2262, "pitch": 77, "duration": 4, "velocity": 62}, {"time": 2266, "pitch": 75, "duration": 2, "velocity": 57}, {"time": 2270, "pitch": 75, "duration": 3, "velocity": 59}, {"time": 2274, "pitch": 77, "duration": 6, "velocity": 61}, {"time": 2282, "pitch": 82, "duration": 3, "velocity": 60}, {"time": 2286, "pitch": 79, "duration": 12, "velocity": 59}, {"time": 2306, "pitch": 79, "duration": 3, "velocity": 56}, {"time": 2310, "pitch": 82, "duration": 7, "velocity": 58}, {"time": 2326, "pitch": 79, "duration": 3, "velocity": 58}, {"time": 2330, "pitch": 77, "duration": 3, "velocity": 62}, {"time": 2334, "pitch": 72, "duration": 3, "velocity": 59}, {"time": 2338, "pitch": 75, "duration": 2, "velocity": 60}, {"time": 2342, "pitch": 70, "duration": 5, "velocity": 62}, {"time": 2346, "pitch": 75, "duration": 5, "velocity": 62}, {"time": 2354, "pitch": 77, "duration": 3, "velocity": 58}, {"time": 2358, "pitch": 77, "duration": 4, "velocity": 57}, {"time": 2362, "pitch": 75, "duration": 32, "velocity": 60}, {"time": 2402, "pitch": 79, "duration": 3, "velocity": 62}, {"time": 2406, "pitch": 82, "duration": 5, "velocity": 58}, {"time": 2414, "pitch": 82, "duration": 2, "velocity": 54}, {"time": 2418, "pitch": 82, "duration": 2, "velocity": 59}, {"time": 2422, "pitch": 79, "duration": 3, "velocity": 61}, {"time": 2426, "pitch": 82, "duration": 3, "velocity": 62}, {"time": 2430, "pitch": 84, "duration": 6, "velocity": 60}, {"time": 2438, "pitch": 84, "duration": 2, "velocity": 60}, {"time": 2442, "pitch": 79, "duration": 7, "velocity": 64}, {"time": 2450, "pitch": 77, "duration": 3, "velocity": 58}, {"time": 2454, "pitch": 75, "duration": 5, "velocity": 60}, {"time": 2462, "pitch": 75, "duration": 3, "velocity": 63}, {"time": 2466, "pitch": 77, "duration": 7, "velocity": 60}, {"time": 2474, "pitch": 82, "duration": 3, "velocity": 56}, {"time": 2478, "pitch": 79, "duration": 14, "velocity": 54}, {"time": 2498, "pitch": 79, "duration": 3, "velocity": 62}, {"time": 2502, "pitch": 82, "duration": 6, "velocity": 58}, {"time": 2514, "pitch": 82, "duration": 3, "velocity": 59}, {"time": 2518, "pitch": 79, "duration": 3, "velocity": 60}, {"time": 2522, "pitch": 82, "duration": 3, "velocity": 60}, {"time": 2526, "pitch": 84, "duration": 7, "velocity": 59}, {"time": 2534, "pitch": 84, "duration": 3, "velocity": 58}, {"time": 2538, "pitch": 79, "duration": 6, "velocity": 58}, {"time": 2546, "pitch": 77, "duration": 4, "velocity": 53}, {"time": 2550, "pitch": 75, "duration": 6, "velocity": 63}, {"time": 2558, "pitch": 70, "duration": 2, "velocity": 60}, {"time": 2562, "pitch": 77, "duration": 7, "velocity": 58}, {"time": 2570, "pitch": 79, "duration": 3, "velocity": 59}, {"time": 2574, "pitch": 77, "duration": 5, "velocity": 62}, {"time": 2578, "pitch": 75, "duration": 15, "velocity": 62}, {"time": 2594, "pitch": 72, "duration": 1, "velocity": 59}, {"time": 2596, "pitch": 72, "duration": 2, "velocity": 58}, {"time": 2598, "pitch": 75, "duration": 6, "velocity": 65}, {"time": 2606, "pitch": 75, "duration": 3, "velocity": 62}, {"time": 2610, "pitch": 77, "duration": 4, "velocity": 59}, {"time": 2614, "pitch": 77, "duration": 4, "velocity": 59}, {"time": 2618, "pitch": 82, "duration": 3, "velocity": 59}, {"time": 2622, "pitch": 79, "duration": 11, "velocity": 58}, {"time": 2642, "pitch": 79, "duration": 2, "velocity": 67}, {"time": 2644, "pitch": 82, "duration": 1, "velocity": 59}, {"time": 2646, "pitch": 84, "duration": 6, "velocity": 57}, {"time": 2654, "pitch": 82, "duration": 3, "velocity": 58}, {"time": 2658, "pitch": 84, "duration": 3, "velocity": 57}, {"time": 2662, "pitch": 82, "duration": 2, "velocity": 59}, {"time": 2664, "pitch": 79, "duration": 2, "velocity": 59}, {"time": 2666, "pitch": 77, "duration": 3, "velocity": 58}, {"time": 2670, "pitch": 79, "duration": 11, "velocity": 59}, {"time": 2690, "pitch": 75, "duration": 4, "velocity": 67}, {"time": 2694, "pitch": 77, "duration": 4, "velocity": 62}, {"time": 2702, "pitch": 75, "duration": 3, "velocity": 67}, {"time": 2706, "pitch": 77, "duration": 3, "velocity": 64}, {"time": 2710, "pitch": 75, "duration": 3, "velocity": 63}, {"time": 2714, "pitch": 72, "duration": 3, "velocity": 60}, {"time": 2718, "pitch": 77, "duration": 7, "velocity": 59}, {"time": 2726, "pitch": 79, "duration": 4, "velocity": 58}, {"time": 2730, "pitch": 77, "duration": 5, "velocity": 58}, {"time": 2738, "pitch": 75, "duration": 3, "velocity": 69}, {"time": 2742, "pitch": 77, "duration": 3, "velocity": 60}, {"time": 2746, "pitch": 77, "duration": 2, "velocity": 58}, {"time": 2750, "pitch": 77, "duration": 2, "velocity": 59}, {"time": 2754, "pitch": 77, "duration": 3, "velocity": 65}, {"time": 2758, "pitch": 79, "duration": 3, "velocity": 61}, {"time": 2762, "pitch": 84, "duration": 3, "velocity": 59}, {"time": 2766, "pitch": 82, "duration": 28, "velocity": 58}, {"time": 3026, "pitch": 79, "duration": 3, "velocity": 62}, {"time": 3030, "pitch": 82, "duration": 5, "velocity": 58}, {"time": 3038, "pitch": 82, "duration": 2, "velocity": 54}, {"time": 3042, "pitch": 82, "duration": 2, "velocity": 59}, {"time": 3046, "pitch": 79, "duration": 3, "velocity": 61}, {"time": 3050, "pitch": 82, "duration": 3, "velocity": 62}, {"time": 3054, "pitch": 84, "duration": 6, "velocity": 60}, {"time": 3062, "pitch": 84, "duration": 2, "velocity": 60}, {"time": 3066, "pitch": 79, "duration": 7, "velocity": 64}, {"time": 3074, "pitch": 77, "duration": 3, "velocity": 58}, {"time": 3078, "pitch": 75, "duration": 5, "velocity": 60}, {"time": 3086, "pitch": 75, "duration": 3, "velocity": 63}, {"time": 3090, "pitch": 77, "duration": 7, "velocity": 60}, {"time": 3098, "pitch": 82, "duration": 3, "velocity": 56}, {"time": 3102, "pitch": 79, "duration": 14, "velocity": 54}, {"time": 3122, "pitch": 79, "duration": 3, "velocity": 62}, {"time": 3126, "pitch": 82, "duration": 6, "velocity": 58}, {"time": 3138, "pitch": 82, "duration": 3, "velocity": 59}, {"time": 3142, "pitch": 79, "duration": 3, "velocity": 60}, {"time": 3146, "pitch": 82, "duration": 3, "velocity": 60}, {"time": 3150, "pitch": 84, "duration": 7, "velocity": 59}, {"time": 3158, "pitch": 84, "duration": 3, "velocity": 58}, {"time": 3162, "pitch": 79, "duration": 6, "velocity": 58}, {"time": 3170, "pitch": 77, "duration": 4, "velocity": 53}, {"time": 3174, "pitch": 75, "duration": 6, "velocity": 63}, {"time": 3182, "pitch": 70, "duration": 2, "velocity": 60}, {"time": 3186, "pitch": 77, "duration": 7, "velocity": 58}, {"time": 3194, "pitch": 79, "duration": 3, "velocity": 59}, {"time": 3198, "pitch": 77, "duration": 5, "velocity": 62}, {"time": 3202, "pitch": 75, "duration": 15, "velocity": 62}, {"time": 3218, "pitch": 72, "duration": 1, "velocity": 59}, {"time": 3220, "pitch": 72, "duration": 2, "velocity": 58}, {"time": 3222, "pitch": 75, "duration": 6, "velocity": 65}, {"time": 3230, "pitch": 75, "duration": 3, "velocity": 62}, {"time": 3234, "pitch": 77, "duration": 4, "velocity": 59}, {"time": 3238, "pitch": 77, "duration": 4, "velocity": 59}, {"time": 3242, "pitch": 82, "duration": 3, "velocity": 59}, {"time": 3246, "pitch": 79, "duration": 11, "velocity": 58}, {"time": 3266, "pitch": 79, "duration": 2, "velocity": 67}, {"time": 3268, "pitch": 82, "duration": 1, "velocity": 59}, {"time": 3270, "pitch": 84, "duration": 6, "velocity": 57}, {"time": 3278, "pitch": 82, "duration": 3, "velocity": 58}, {"time": 3282, "pitch": 84, "duration": 3, "velocity": 57}, {"time": 3286, "pitch": 82, "duration": 2, "velocity": 59}, {"time": 3288, "pitch": 79, "duration": 2, "velocity": 59}, {"time": 3290, "pitch": 77, "duration": 3, "velocity": 58}, {"time": 3294, "pitch": 79, "duration": 11, "velocity": 59}, {"time": 3314, "pitch": 75, "duration": 4, "velocity": 67}, {"time": 3318, "pitch": 77, "duration": 4, "velocity": 62}, {"time": 3326, "pitch": 75, "duration": 3, "velocity": 67}, {"time": 3330, "pitch": 77, "duration": 3, "velocity": 64}, {"time": 3334, "pitch": 75, "duration": 3, "velocity": 63}, {"time": 3338, "pitch": 72, "duration": 3, "velocity": 60}, {"time": 3342, "pitch": 77, "duration": 7, "velocity": 59}, {"time": 3350, "pitch": 79, "duration": 4, "velocity": 58}, {"time": 3354, "pitch": 77, "duration": 5, "velocity": 58}, {"time": 3362, "pitch": 75, "duration": 3, "velocity": 69}, {"time": 3366, "pitch": 77, "duration": 3, "velocity": 60}, {"time": 3370, "pitch": 77, "duration": 2, "velocity": 58}, {"time": 3374, "pitch": 77, "duration": 2, "velocity": 59}, {"time": 3378, "pitch": 77, "duration": 3, "velocity": 65}, {"time": 3382, "pitch": 79, "duration": 3, "velocity": 61}, {"time": 3386, "pitch": 84, "duration": 3, "velocity": 59}, {"time": 3390, "pitch": 82, "duration": 28, "velocity": 58}, {"time": 3530, "pitch": 79, "duration": 3, "velocity": 62}, {"time": 3534, "pitch": 82, "duration": 5, "velocity": 58}, {"time": 3542, "pitch": 82, "duration": 2, "velocity": 54}, {"time": 3546, "pitch": 82, "duration": 2, "velocity": 59}, {"time": 3550, "pitch": 79, "duration": 3, "velocity": 61}, {"time": 3554, "pitch": 82, "duration": 3, "velocity": 62}, {"time": 3558, "pitch": 84, "duration": 6, "velocity": 60}, {"time": 3566, "pitch": 84, "duration": 2, "velocity": 60}, {"time": 3570, "pitch": 79, "duration": 7, "velocity": 64}, {"time": 3578, "pitch": 77, "duration": 3, "velocity": 58}, {"time": 3582, "pitch": 75, "duration": 5, "velocity": 60}, {"time": 3590, "pitch": 75, "duration": 3, "velocity": 63}, {"time": 3594, "pitch": 77, "duration": 7, "velocity": 60}, {"time": 3602, "pitch": 82, "duration": 3, "velocity": 56}, {"time": 3606, "pitch": 79, "duration": 14, "velocity": 54}, {"time": 3626, "pitch": 79, "duration": 3, "velocity": 62}, {"time": 3630, "pitch": 82, "duration": 6, "velocity": 58}, {"time": 3642, "pitch": 82, "duration": 3, "velocity": 59}, {"time": 3646, "pitch": 79, "duration": 3, "velocity": 60}, {"time": 3650, "pitch": 82, "duration": 3, "velocity": 60}, {"time": 3654, "pitch": 84, "duration": 7, "velocity": 59}, {"time": 3662, "pitch": 84, "duration": 3, "velocity": 58}, {"time": 3666, "pitch": 79, "duration": 6, "velocity": 58}, {"time": 3674, "pitch": 77, "duration": 4, "velocity": 53}, {"time": 3678, "pitch": 75, "duration": 6, "velocity": 63}, {"time": 3686, "pitch": 70, "duration": 2, "velocity": 60}, {"time": 3690, "pitch": 77, "duration": 7, "velocity": 58}, {"time": 3698, "pitch": 79, "duration": 3, "velocity": 59}, {"time": 3702, "pitch": 77, "duration": 5, "velocity": 62}, {"time": 3706, "pitch": 75, "duration": 15, "velocity": 62}]}, {"program": 0, "is_drum": false, "name": "PIANO", "notes": [{"time": 6, "pitch": 51, "duration": 17, "velocity": 55}, {"time": 10, "pitch": 58, "duration": 13, "velocity": 47}, {"time": 14, "pitch": 63, "duration": 11, "velocity": 51}, {"time": 18, "pitch": 67, "duration": 20, "velocity": 58}, {"time": 30, "pitch": 48, "duration": 16, "velocity": 51}, {"time": 34, "pitch": 55, "duration": 10, "velocity": 39}, {"time": 38, "pitch": 60, "duration": 10, "velocity": 52}, {"time": 42, "pitch": 63, "duration": 5, "velocity": 49}, {"time": 42, "pitch": 67, "duration": 5, "velocity": 53}, {"time": 54, "pitch": 44, "duration": 20, "velocity": 50}, {"time": 54, "pitch": 60, "duration": 9, "velocity": 52}, {"time": 58, "pitch": 51, "duration": 15, "velocity": 33}, {"time": 62, "pitch": 56, "duration": 6, "velocity": 50}, {"time": 66, "pitch": 60, "duration": 7, "velocity": 55}, {"time": 66, "pitch": 63, "duration": 8, "velocity": 50}, {"time": 78, "pitch": 39, "duration": 15, "velocity": 46}, {"time": 78, "pitch": 63, "duration": 10, "velocity": 49}, {"time": 82, "pitch": 46, "duration": 11, "velocity": 42}, {"time": 86, "pitch": 58, "duration": 8, "velocity": 59}, {"time": 90, "pitch": 67, "duration": 6, "velocity": 67}, {"time": 94, "pitch": 63, "duration": 5, "velocity": 47}, {"time": 102, "pitch": 51, "duration": 17, "velocity": 57}, {"time": 102, "pitch": 58, "duration": 3, "velocity": 48}, {"time": 102, "pitch": 63, "duration": 6, "velocity": 54}, {"time": 106, "pitch": 58, "duration": 5, "velocity": 46}, {"time": 110, "pitch": 63, "duration": 2, "velocity": 53}, {"time": 114, "pitch": 58, "duration": 5, "velocity": 47}, {"time": 114, "pitch": 63, "duration": 5, "velocity": 54}, {"time": 114, "pitch": 67, "duration": 6, "velocity": 49}, {"time": 126, "pitch": 48, "duration": 20, "velocity": 53}, {"time": 126, "pitch": 60, "duration": 16, "velocity": 53}, {"time": 126, "pitch": 63, "duration": 24, "velocity": 54}, {"time": 130, "pitch": 55, "duration": 14, "velocity": 44}, {"time": 134, "pitch": 67, "duration": 16, "velocity": 52}, {"time": 150, "pitch": 44, "duration": 9, "velocity": 54}, {"time": 154, "pitch": 51, "duration": 5, "velocity": 53}, {"time": 158, "pitch": 56, "duration": 2, "velocity": 61}, {"time": 162, "pitch": 46, "duration": 12, "velocity": 57}, {"time": 162, "pitch": 58, "duration": 11, "velocity": 47}, {"time": 162, "pitch": 62, "duration": 9, "velocity": 49}, {"time": 174, "pitch": 51, "duration": 20, "velocity": 57}, {"time": 174, "pitch": 58, "duration": 2, "velocity": 47}, {"time": 174, "pitch": 63, "duration": 6, "velocity": 52}, {"time": 178, "pitch": 58, "duration": 10, "velocity": 45}, {"time": 182, "pitch": 63, "duration": 6, "velocity": 52}, {"time": 186, "pitch": 67, "duration": 6, "velocity": 42}, {"time": 198, "pitch": 51, "duration": 18, "velocity": 53}, {"time": 198, "pitch": 58, "duration": 10, "velocity": 46}, {"time": 198, "pitch": 63, "duration": 9, "velocity": 46}, {"time": 210, "pitch": 67, "duration": 6, "velocity": 63}, {"time": 214, "pitch": 63, "duration": 5, "velocity": 54}, {"time": 218, "pitch": 58, "duration": 3, "velocity": 54}, {"time": 222, "pitch": 48, "duration": 17, "velocity": 54}, {"time": 222, "pitch": 58, "duration": 8, "velocity": 23}, {"time": 222, "pitch": 63, "duration": 9, "velocity": 52}, {"time": 230, "pitch": 55, "duration": 8, "velocity": 42}, {"time": 234, "pitch": 60, "duration": 4, "velocity": 51}, {"time": 234, "pitch": 67, "duration": 4, "velocity": 48}, {"time": 246, "pitch": 44, "duration": 19, "velocity": 57}, {"time": 246, "pitch": 56, "duration": 6, "velocity": 49}, {"time": 246, "pitch": 60, "duration": 9, "velocity": 52}, {"time": 250, "pitch": 51, "duration": 14, "velocity": 45}, {"time": 254, "pitch": 56, "duration": 2, "velocity": 53}, {"time": 258, "pitch": 56, "duration": 6, "velocity": 55}, {"time": 258, "pitch": 60, "duration": 6, "velocity": 47}, {"time": 270, "pitch": 51, "duration": 21, "velocity": 53}, {"time": 270, "pitch": 58, "duration": 3, "velocity": 48}, {"time": 270, "pitch": 63, "duration": 5, "velocity": 49}, {"time": 274, "pitch": 58, "duration": 7, "velocity": 48}, {"time": 278, "pitch": 63, "duration": 3, "velocity": 52}, {"time": 282, "pitch": 65, "duration": 4, "velocity": 64}, {"time": 286, "pitch": 63, "duration": 4, "velocity": 50}, {"time": 290, "pitch": 58, "duration": 2, "velocity": 45}, {"time": 294, "pitch": 51, "duration": 21, "velocity": 54}, {"time": 294, "pitch": 58, "duration": 7, "velocity": 51}, {"time": 294, "pitch": 67, "duration": 11, "velocity": 48}, {"time": 302, "pitch": 58, "duration": 2, "velocity": 44}, {"time": 306, "pitch": 58, "duration": 7, "velocity": 52}, {"time": 306, "pitch": 63, "duration": 8, "velocity": 59}, {"time": 318, "pitch": 48, "duration": 16, "velocity": 54}, {"time": 318, "pitch": 60, "duration": 6, "velocity": 48}, {"time": 318, "pitch": 63, "duration": 9, "velocity": 53}, {"time": 322, "pitch": 55, "duration": 10, "velocity": 43}, {"time": 326, "pitch": 60, "duration": 2, "velocity": 58}, {"time": 330, "pitch": 60, "duration": 4, "velocity": 58}, {"time": 330, "pitch": 67, "duration": 4, "velocity": 52}, {"time": 342, "pitch": 44, "duration": 9, "velocity": 57}, {"time": 342, "pitch": 56, "duration": 6, "velocity": 49}, {"time": 342, "pitch": 60, "duration": 6, "velocity": 50}, {"time": 342, "pitch": 63, "duration": 7, "velocity": 52}, {"time": 354, "pitch": 46, "duration": 10, "velocity": 58}, {"time": 354, "pitch": 58, "duration": 5, "velocity": 48}, {"time": 354, "pitch": 62, "duration": 9, "velocity": 48}, {"time": 358, "pitch": 53, "duration": 6, "velocity": 42}, {"time": 362, "pitch": 58, "duration": 3, "velocity": 54}, {"time": 366, "pitch": 51, "duration": 22, "velocity": 57}, {"time": 366, "pitch": 63, "duration": 6, "velocity": 53}, {"time": 370, "pitch": 58, "duration": 5, "velocity": 48}, {"time": 374, "pitch": 63, "duration": 5, "velocity": 53}, {"time": 378, "pitch": 65, "duration": 3, "velocity": 57}, {"time": 382, "pitch": 67, "duration": 5, "velocity": 49}, {"time": 386, "pitch": 65, "duration": 3, "velocity": 51}, {"time": 390, "pitch": 51, "duration": 19, "velocity": 58}, {"time": 390, "pitch": 58, "duration": 18, "velocity": 45}, {"time": 390, "pitch": 63, "duration": 19, "velocity": 51}, {"time": 414, "pitch": 51, "duration": 14, "velocity": 60}, {"time": 418, "pitch": 58, "duration": 10, "velocity": 43}, {"time": 422, "pitch": 63, "duration": 5, "velocity": 59}, {"time": 426, "pitch": 67, "duration": 4, "velocity": 56}, {"time": 438, "pitch": 43, "duration": 12, "velocity": 43}, {"time": 438, "pitch": 70, "duration": 8, "velocity": 56}, {"time": 442, "pitch": 50, "duration": 8, "velocity": 40}, {"time": 446, "pitch": 62, "duration": 6, "velocity": 58}, {"time": 450, "pitch": 67, "duration": 2, "velocity": 52}, {"time": 462, "pitch": 44, "duration": 15, "velocity": 56}, {"time": 462, "pitch": 63, "duration": 5, "velocity": 51}, {"time": 462, "pitch": 68, "duration": 8, "velocity": 50}, {"time": 466, "pitch": 51, "duration": 11, "velocity": 41}, {"time": 470, "pitch": 63, "duration": 6, "velocity": 51}, {"time": 474, "pitch": 68, "duration": 3, "velocity": 54}, {"time": 486, "pitch": 46, "duration": 21, "velocity": 57}, {"time": 486, "pitch": 70, "duration": 11, "velocity": 54}, {"time": 490, "pitch": 53, "duration": 16, "velocity": 46}, {"time": 494, "pitch": 58, "duration": 5, "velocity": 57}, {"time": 498, "pitch": 65, "duration": 4, "velocity": 59}, {"time": 502, "pitch": 63, "duration": 4, "velocity": 50}, {"time": 506, "pitch": 60, "duration": 3, "velocity": 47}, {"time": 510, "pitch": 51, "duration": 15, "velocity": 49}, {"time": 510, "pitch": 58, "duration": 6, "velocity": 54}, {"time": 510, "pitch": 63, "duration": 6, "velocity": 51}, {"time": 514, "pitch": 58, "duration": 2, "velocity": 45}, {"time": 518, "pitch": 63, "duration": 5, "velocity": 54}, {"time": 522, "pitch": 67, "duration": 5, "velocity": 61}, {"time": 534, "pitch": 43, "duration": 17, "velocity": 53}, {"time": 534, "pitch": 70, "duration": 13, "velocity": 55}, {"time": 538, "pitch": 50, "duration": 7, "velocity": 44}, {"time": 542, "pitch": 67, "duration": 11, "velocity": 48}, {"time": 546, "pitch": 50, "duration": 6, "velocity": 46}, {"time": 558, "pitch": 44, "duration": 18, "velocity": 54}, {"time": 562, "pitch": 51, "duration": 14, "velocity": 49}, {"time": 566, "pitch": 56, "duration": 6, "velocity": 58}, {"time": 570, "pitch": 60, "duration": 5, "velocity": 59}, {"time": 582, "pitch": 46, "duration": 21, "velocity": 58}, {"time": 586, "pitch": 53, "duration": 16, "velocity": 49}, {"time": 590, "pitch": 58, "duration": 8, "velocity": 57}, {"time": 594, "pitch": 70, "duration": 8, "velocity": 59}, {"time": 598, "pitch": 65, "duration": 5, "velocity": 54}, {"time": 602, "pitch": 58, "duration": 6, "velocity": 54}, {"time": 606, "pitch": 43, "duration": 13, "velocity": 57}, {"time": 606, "pitch": 62, "duration": 9, "velocity": 51}, {"time": 610, "pitch": 50, "duration": 9, "velocity": 43}, {"time": 614, "pitch": 58, "duration": 6, "velocity": 59}, {"time": 618, "pitch": 62, "duration": 4, "velocity": 64}, {"time": 618, "pitch": 67, "duration": 7, "velocity": 54}, {"time": 630, "pitch": 48, "duration": 15, "velocity": 53}, {"time": 630, "pitch": 60, "duration": 5, "velocity": 51}, {"time": 630, "pitch": 63, "duration": 9, "velocity": 54}, {"time": 634, "pitch": 55, "duration": 9, "velocity": 45}, {"time": 638, "pitch": 60, "duration": 5, "velocity": 54}, {"time": 642, "pitch": 67, "duration": 5, "velocity": 60}, {"time": 654, "pitch": 44, "duration": 19, "velocity": 58}, {"time": 654, "pitch": 56, "duration": 5, "velocity": 52}, {"time": 654, "pitch": 63, "duration": 10, "velocity": 54}, {"time": 658, "pitch": 51, "duration": 15, "velocity": 49}, {"time": 662, "pitch": 56, "duration": 3, "velocity": 59}, {"time": 666, "pitch": 56, "duration": 4, "velocity": 58}, {"time": 666, "pitch": 60, "duration": 4, "velocity": 54}, {"time": 678, "pitch": 51, "duration": 18, "velocity": 60}, {"time": 678, "pitch": 58, "duration": 3, "velocity": 47}, {"time": 678, "pitch": 63, "duration": 6, "velocity": 56}, {"time": 682, "pitch": 58, "duration": 9, "velocity": 56}, {"time": 686, "pitch": 63, "duration": 5, "velocity": 53}, {"time": 690, "pitch": 65, "duration": 4, "velocity": 59}, {"time": 694, "pitch": 63, "duration": 4, "velocity": 54}, {"time": 698, "pitch": 58, "duration": 5, "velocity": 53}, {"time": 702, "pitch": 43, "duration": 14, "velocity": 47}, {"time": 702, "pitch": 62, "duration": 9, "velocity": 50}, {"time": 706, "pitch": 50, "duration": 11, "velocity": 42}, {"time": 710, "pitch": 58, "duration": 8, "velocity": 58}, {"time": 714, "pitch": 62, "duration": 6, "velocity": 61}, {"time": 714, "pitch": 67, "duration": 6, "velocity": 58}, {"time": 726, "pitch": 44, "duration": 21, "velocity": 58}, {"time": 726, "pitch": 56, "duration": 12, "velocity": 47}, {"time": 726, "pitch": 60, "duration": 9, "velocity": 50}, {"time": 730, "pitch": 51, "duration": 17, "velocity": 48}, {"time": 734, "pitch": 63, "duration": 5, "velocity": 52}, {"time": 738, "pitch": 68, "duration": 11, "velocity": 59}, {"time": 742, "pitch": 63, "duration": 5, "velocity": 54}, {"time": 746, "pitch": 56, "duration": 3, "velocity": 59}, {"time": 750, "pitch": 46, "duration": 18, "velocity": 59}, {"time": 754, "pitch": 53, "duration": 13, "velocity": 47}, {"time": 758, "pitch": 58, "duration": 3, "velocity": 51}, {"time": 762, "pitch": 58, "duration": 4, "velocity": 56}, {"time": 762, "pitch": 62, "duration": 3, "velocity": 58}, {"time": 774, "pitch": 51, "duration": 19, "velocity": 55}, {"time": 774, "pitch": 58, "duration": 2, "velocity": 50}, {"time": 774, "pitch": 63, "duration": 5, "velocity": 54}, {"time": 778, "pitch": 58, "duration": 7, "velocity": 51}, {"time": 782, "pitch": 63, "duration": 4, "velocity": 51}, {"time": 786, "pitch": 65, "duration": 4, "velocity": 59}, {"time": 790, "pitch": 63, "duration": 6, "velocity": 51}, {"time": 794, "pitch": 58, "duration": 3, "velocity": 49}, {"time": 798, "pitch": 51, "duration": 22, "velocity": 56}, {"time": 798, "pitch": 58, "duration": 21, "velocity": 47}, {"time": 798, "pitch": 63, "duration": 21, "velocity": 51}, {"time": 822, "pitch": 51, "duration": 14, "velocity": 60}, {"time": 826, "pitch": 58, "duration": 10, "velocity": 43}, {"time": 830, "pitch": 63, "duration": 5, "velocity": 59}, {"time": 834, "pitch": 67, "duration": 4, "velocity": 56}, {"time": 846, "pitch": 43, "duration": 12, "velocity": 43}, {"time": 846, "pitch": 70, "duration": 8, "velocity": 56}, {"time": 850, "pitch": 50, "duration": 8, "velocity": 40}, {"time": 854, "pitch": 62, "duration": 6, "velocity": 58}, {"time": 858, "pitch": 67, "duration": 2, "velocity": 52}, {"time": 870, "pitch": 44, "duration": 15, "velocity": 56}, {"time": 870, "pitch": 63, "duration": 5, "velocity": 51}, {"time": 870, "pitch": 68, "duration": 8, "velocity": 50}, {"time": 874, "pitch": 51, "duration": 11, "velocity": 41}, {"time": 878, "pitch": 63, "duration": 6, "velocity": 51}, {"time": 882, "pitch": 68, "duration": 3, "velocity": 54}, {"time": 894, "pitch": 46, "duration": 21, "velocity": 57}, {"time": 894, "pitch": 70, "duration": 11, "velocity": 54}, {"time": 898, "pitch": 53, "duration": 16, "velocity": 46}, {"time": 902, "pitch": 58, "duration": 5, "velocity": 57}, {"time": 906, "pitch": 65, "duration": 4, "velocity": 59}, {"time": 910, "pitch": 63, "duration": 4, "velocity": 50}, {"time": 914, "pitch": 60, "duration": 3, "velocity": 47}, {"time": 918, "pitch": 51, "duration": 15, "velocity": 49}, {"time": 918, "pitch": 58, "duration": 6, "velocity": 54}, {"time": 918, "pitch": 63, "duration": 6, "velocity": 51}, {"time": 922, "pitch": 58, "duration": 2, "velocity": 45}, {"time": 926, "pitch": 63, "duration": 5, "velocity": 54}, {"time": 930, "pitch": 67, "duration": 5, "velocity": 61}, {"time": 942, "pitch": 43, "duration": 17, "velocity": 53}, {"time": 942, "pitch": 70, "duration": 13, "velocity": 55}, {"time": 946, "pitch": 50, "duration": 7, "velocity": 44}, {"time": 950, "pitch": 67, "duration": 11, "velocity": 48}, {"time": 954, "pitch": 50, "duration": 6, "velocity": 46}, {"time": 966, "pitch": 44, "duration": 18, "velocity": 54}, {"time": 970, "pitch": 51, "duration": 14, "velocity": 49}, {"time": 974, "pitch": 56, "duration": 6, "velocity": 58}, {"time": 978, "pitch": 60, "duration": 5, "velocity": 59}, {"time": 990, "pitch": 46, "duration": 21, "velocity": 58}, {"time": 994, "pitch": 53, "duration": 16, "velocity": 49}, {"time": 998, "pitch": 58, "duration": 8, "velocity": 57}, {"time": 1002, "pitch": 70, "duration": 8, "velocity": 59}, {"time": 1006, "pitch": 65, "duration": 5, "velocity": 54}, {"time": 1010, "pitch": 58, "duration": 6, "velocity": 54}, {"time": 1014, "pitch": 43, "duration": 13, "velocity": 57}, {"time": 1014, "pitch": 62, "duration": 9, "velocity": 51}, {"time": 1018, "pitch": 50, "duration": 9, "velocity": 43}, {"time": 1022, "pitch": 58, "duration": 6, "velocity": 59}, {"time": 1026, "pitch": 62, "duration": 4, "velocity": 64}, {"time": 1026, "pitch": 67, "duration": 7, "velocity": 54}, {"time": 1038, "pitch": 48, "duration": 15, "velocity": 53}, {"time": 1038, "pitch": 60, "duration": 5, "velocity": 51}, {"time": 1038, "pitch": 63, "duration": 9, "velocity": 54}, {"time": 1042, "pitch": 55, "duration": 9, "velocity": 45}, {"time": 1046, "pitch": 60, "duration": 5, "velocity": 54}, {"time": 1050, "pitch": 67, "duration": 5, "velocity": 60}, {"time": 1062, "pitch": 44, "duration": 19, "velocity": 58}, {"time": 1062, "pitch": 56, "duration": 5, "velocity": 52}, {"time": 1062, "pitch": 63, "duration": 10, "velocity": 54}, {"time": 1066, "pitch": 51, "duration": 15, "velocity": 49}, {"time": 1070, "pitch": 56, "duration": 3, "velocity": 59}, {"time": 1074, "pitch": 56, "duration": 4, "velocity": 58}, {"time": 1074, "pitch": 60, "duration": 4, "velocity": 54}, {"time": 1086, "pitch": 51, "duration": 18, "velocity": 60}, {"time": 1086, "pitch": 58, "duration": 3, "velocity": 47}, {"time": 1086, "pitch": 63, "duration": 6, "velocity": 56}, {"time": 1090, "pitch": 58, "duration": 9, "velocity": 56}, {"time": 1094, "pitch": 63, "duration": 5, "velocity": 53}, {"time": 1098, "pitch": 65, "duration": 4, "velocity": 59}, {"time": 1102, "pitch": 63, "duration": 4, "velocity": 54}, {"time": 1106, "pitch": 58, "duration": 5, "velocity": 53}, {"time": 1110, "pitch": 43, "duration": 14, "velocity": 47}, {"time": 1110, "pitch": 62, "duration": 9, "velocity": 50}, {"time": 1114, "pitch": 50, "duration": 11, "velocity": 42}, {"time": 1118, "pitch": 58, "duration": 8, "velocity": 58}, {"time": 1122, "pitch": 62, "duration": 6, "velocity": 61}, {"time": 1122, "pitch": 67, "duration": 6, "velocity": 58}, {"time": 1134, "pitch": 44, "duration": 21, "velocity": 58}, {"time": 1134, "pitch": 56, "duration": 12, "velocity": 47}, {"time": 1134, "pitch": 60, "duration": 9, "velocity": 50}, {"time": 1138, "pitch": 51, "duration": 17, "velocity": 48}, {"time": 1142, "pitch": 63, "duration": 5, "velocity": 52}, {"time": 1146, "pitch": 68, "duration": 11, "velocity": 59}, {"time": 1150, "pitch": 63, "duration": 5, "velocity": 54}, {"time": 1154, "pitch": 56, "duration": 3, "velocity": 59}, {"time": 1158, "pitch": 46, "duration": 18, "velocity": 59}, {"time": 1162, "pitch": 53, "duration": 13, "velocity": 47}, {"time": 1166, "pitch": 58, "duration": 3, "velocity": 51}, {"time": 1170, "pitch": 58, "duration": 4, "velocity": 56}, {"time": 1170, "pitch": 62, "duration": 3, "velocity": 58}, {"time": 1182, "pitch": 51, "duration": 19, "velocity": 55}, {"time": 1182, "pitch": 58, "duration": 2, "velocity": 50}, {"time": 1182, "pitch": 63, "duration": 5, "velocity": 54}, {"time": 1186, "pitch": 58, "duration": 7, "velocity": 51}, {"time": 1190, "pitch": 63, "duration": 4, "velocity": 51}, {"time": 1194, "pitch": 65, "duration": 4, "velocity": 59}, {"time": 1198, "pitch": 63, "duration": 6, "velocity": 51}, {"time": 1202, "pitch": 58, "duration": 3, "velocity": 49}, {"time": 1206, "pitch": 51, "duration": 14, "velocity": 59}, {"time": 1206, "pitch": 63, "duration": 5, "velocity": 56}, {"time": 1206, "pitch": 67, "duration": 4, "velocity": 52}, {"time": 1210, "pitch": 58, "duration": 9, "velocity": 46}, {"time": 1214, "pitch": 63, "duration": 6, "velocity": 52}, {"time": 1218, "pitch": 67, "duration": 6, "velocity": 58}, {"time": 1218, "pitch": 70, "duration": 8, "velocity": 58}, {"time": 1226, "pitch": 63, "duration": 2, "velocity": 58}, {"time": 1230, "pitch": 48, "duration": 18, "velocity": 50}, {"time": 1230, "pitch": 60, "duration": 5, "velocity": 59}, {"time": 1230, "pitch": 63, "duration": 8, "velocity": 57}, {"time": 1234, "pitch": 55, "duration": 10, "velocity": 45}, {"time": 1238, "pitch": 60, "duration": 3, "velocity": 46}, {"time": 1242, "pitch": 60, "duration": 4, "velocity": 57}, {"time": 1242, "pitch": 63, "duration": 5, "velocity": 58}, {"time": 1242, "pitch": 67, "duration": 6, "velocity": 56}, {"time": 1246, "pitch": 55, "duration": 3, "velocity": 51}, {"time": 1250, "pitch": 60, "duration": 2, "velocity": 63}, {"time": 1254, "pitch": 44, "duration": 8, "velocity": 55}, {"time": 1254, "pitch": 56, "duration": 5, "velocity": 54}, {"time": 1254, "pitch": 60, "duration": 9, "velocity": 52}, {"time": 1258, "pitch": 51, "duration": 5, "velocity": 39}, {"time": 1262, "pitch": 56, "duration": 3, "velocity": 53}, {"time": 1266, "pitch": 46, "duration": 11, "velocity": 59}, {"time": 1266, "pitch": 58, "duration": 6, "velocity": 51}, {"time": 1266, "pitch": 62, "duration": 9, "velocity": 53}, {"time": 1270, "pitch": 53, "duration": 6, "velocity": 42}, {"time": 1274, "pitch": 58, "duration": 3, "velocity": 58}, {"time": 1278, "pitch": 51, "duration": 19, "velocity": 53}, {"time": 1278, "pitch": 58, "duration": 3, "velocity": 52}, {"time": 1278, "pitch": 63, "duration": 5, "velocity": 56}, {"time": 1282, "pitch": 58, "duration": 6, "velocity": 53}, {"time": 1286, "pitch": 63, "duration": 3, "velocity": 55}, {"time": 1290, "pitch": 65, "duration": 8, "velocity": 64}, {"time": 1298, "pitch": 63, "duration": 3, "velocity": 45}, {"time": 1302, "pitch": 51, "duration": 14, "velocity": 63}, {"time": 1302, "pitch": 58, "duration": 3, "velocity": 49}, {"time": 1302, "pitch": 67, "duration": 4, "velocity": 53}, {"time": 1306, "pitch": 58, "duration": 9, "velocity": 51}, {"time": 1310, "pitch": 63, "duration": 3, "velocity": 52}, {"time": 1314, "pitch": 63, "duration": 3, "velocity": 52}, {"time": 1314, "pitch": 67, "duration": 4, "velocity": 54}, {"time": 1314, "pitch": 70, "duration": 5, "velocity": 58}, {"time": 1326, "pitch": 48, "duration": 15, "velocity": 58}, {"time": 1326, "pitch": 60, "duration": 5, "velocity": 46}, {"time": 1326, "pitch": 63, "duration": 8, "velocity": 52}, {"time": 1330, "pitch": 55, "duration": 10, "velocity": 44}, {"time": 1334, "pitch": 60, "duration": 2, "velocity": 42}, {"time": 1338, "pitch": 60, "duration": 6, "velocity": 58}, {"time": 1338, "pitch": 63, "duration": 6, "velocity": 58}, {"time": 1338, "pitch": 67, "duration": 6, "velocity": 48}, {"time": 1350, "pitch": 44, "duration": 8, "velocity": 58}, {"time": 1350, "pitch": 56, "duration": 5, "velocity": 50}, {"time": 1350, "pitch": 60, "duration": 9, "velocity": 53}, {"time": 1354, "pitch": 51, "duration": 6, "velocity": 46}, {"time": 1358, "pitch": 56, "duration": 3, "velocity": 50}, {"time": 1362, "pitch": 46, "duration": 9, "velocity": 58}, {"time": 1362, "pitch": 58, "duration": 5, "velocity": 54}, {"time": 1362, "pitch": 62, "duration": 6, "velocity": 58}, {"time": 1366, "pitch": 53, "duration": 6, "velocity": 45}, {"time": 1370, "pitch": 58, "duration": 3, "velocity": 54}, {"time": 1374, "pitch": 51, "duration": 20, "velocity": 58}, {"time": 1374, "pitch": 58, "duration": 2, "velocity": 47}, {"time": 1374, "pitch": 63, "duration": 5, "velocity": 54}, {"time": 1378, "pitch": 58, "duration": 6, "velocity": 44}, {"time": 1382, "pitch": 63, "duration": 2, "velocity": 52}, {"time": 1386, "pitch": 58, "duration": 5, "velocity": 58}, {"time": 1386, "pitch": 65, "duration": 6, "velocity": 62}, {"time": 1390, "pitch": 63, "duration": 4, "velocity": 46}, {"time": 1394, "pitch": 58, "duration": 2, "velocity": 48}, {"time": 1398, "pitch": 44, "duration": 9, "velocity": 60}, {"time": 1398, "pitch": 56, "duration": 5, "velocity": 56}, {"time": 1398, "pitch": 60, "duration": 9, "velocity": 53}, {"time": 1402, "pitch": 51, "duration": 7, "velocity": 48}, {"time": 1406, "pitch": 56, "duration": 2, "velocity": 55}, {"time": 1410, "pitch": 46, "duration": 10, "velocity": 59}, {"time": 1410, "pitch": 58, "duration": 5, "velocity": 54}, {"time": 1410, "pitch": 62, "duration": 6, "velocity": 59}, {"time": 1414, "pitch": 53, "duration": 6, "velocity": 50}, {"time": 1418, "pitch": 58, "duration": 3, "velocity": 61}, {"time": 1422, "pitch": 51, "duration": 23, "velocity": 58}, {"time": 1422, "pitch": 58, "duration": 3, "velocity": 57}, {"time": 1422, "pitch": 63, "duration": 6, "velocity": 57}, {"time": 1426, "pitch": 58, "duration": 6, "velocity": 46}, {"time": 1430, "pitch": 63, "duration": 2, "velocity": 51}, {"time": 1434, "pitch": 65, "duration": 5, "velocity": 63}, {"time": 1438, "pitch": 63, "duration": 6, "velocity": 50}, {"time": 1442, "pitch": 58, "duration": 3, "velocity": 48}, {"time": 1446, "pitch": 44, "duration": 8, "velocity": 58}, {"time": 1446, "pitch": 56, "duration": 5, "velocity": 56}, {"time": 1446, "pitch": 63, "duration": 5, "velocity": 58}, {"time": 1450, "pitch": 51, "duration": 5, "velocity": 49}, {"time": 1454, "pitch": 56, "duration": 2, "velocity": 60}, {"time": 1458, "pitch": 46, "duration": 10, "velocity": 58}, {"time": 1458, "pitch": 58, "duration": 5, "velocity": 58}, {"time": 1458, "pitch": 62, "duration": 6, "velocity": 53}, {"time": 1462, "pitch": 53, "duration": 6, "velocity": 51}, {"time": 1466, "pitch": 58, "duration": 2, "velocity": 59}, {"time": 1470, "pitch": 51, "duration": 18, "velocity": 56}, {"time": 1470, "pitch": 58, "duration": 3, "velocity": 50}, {"time": 1470, "pitch": 63, "duration": 6, "velocity": 55}, {"time": 1474, "pitch": 58, "duration": 5, "velocity": 56}, {"time": 1478, "pitch": 63, "duration": 2, "velocity": 52}, {"time": 1482, "pitch": 58, "duration": 5, "velocity": 58}, {"time": 1482, "pitch": 65, "duration": 7, "velocity": 60}, {"time": 1486, "pitch": 63, "duration": 5, "velocity": 50}, {"time": 1490, "pitch": 58, "duration": 2, "velocity": 42}, {"time": 1494, "pitch": 41, "duration": 17, "velocity": 60}, {"time": 1494, "pitch": 60, "duration": 4, "velocity": 54}, {"time": 1494, "pitch": 65, "duration": 9, "velocity": 58}, {"time": 1502, "pitch": 60, "duration": 3, "velocity": 52}, {"time": 1506, "pitch": 60, "duration": 2, "velocity": 59}, {"time": 1506, "pitch": 68, "duration": 4, "velocity": 55}, {"time": 1510, "pitch": 65, "duration": 5, "velocity": 59}, {"time": 1514, "pitch": 60, "duration": 3, "velocity": 58}, {"time": 1518, "pitch": 60, "duration": 3, "velocity": 60}, {"time": 1518, "pitch": 65, "duration": 10, "velocity": 61}, {"time": 1526, "pitch": 60, "duration": 3, "velocity": 41}, {"time": 1530, "pitch": 53, "duration": 4, "velocity": 59}, {"time": 1530, "pitch": 60, "duration": 2, "velocity": 56}, {"time": 1530, "pitch": 65, "duration": 5, "velocity": 62}, {"time": 1530, "pitch": 68, "duration": 5, "velocity": 59}, {"time": 1534, "pitch": 60, "duration": 2, "velocity": 53}, {"time": 1538, "pitch": 60, "duration": 2, "velocity": 53}, {"time": 1538, "pitch": 65, "duration": 2, "velocity": 49}, {"time": 1542, "pitch": 44, "duration": 20, "velocity": 59}, {"time": 1542, "pitch": 56, "duration": 4, "velocity": 53}, {"time": 1542, "pitch": 60, "duration": 8, "velocity": 54}, {"time": 1546, "pitch": 51, "duration": 10, "velocity": 53}, {"time": 1550, "pitch": 56, "duration": 2, "velocity": 54}, {"time": 1554, "pitch": 56, "duration": 4, "velocity": 61}, {"time": 1554, "pitch": 63, "duration": 5, "velocity": 59}, {"time": 1558, "pitch": 51, "duration": 5, "velocity": 55}, {"time": 1562, "pitch": 56, "duration": 2, "velocity": 58}, {"time": 1566, "pitch": 46, "duration": 5, "velocity": 59}, {"time": 1566, "pitch": 58, "duration": 4, "velocity": 54}, {"time": 1566, "pitch": 62, "duration": 4, "velocity": 51}, {"time": 1570, "pitch": 53, "duration": 2, "velocity": 56}, {"time": 1574, "pitch": 58, "duration": 14, "velocity": 63}, {"time": 1578, "pitch": 65, "duration": 10, "velocity": 63}, {"time": 1582, "pitch": 70, "duration": 4, "velocity": 74}, {"time": 1586, "pitch": 77, "duration": 3, "velocity": 58}, {"time": 1590, "pitch": 58, "duration": 14, "velocity": 60}, {"time": 1590, "pitch": 70, "duration": 5, "velocity": 59}, {"time": 1590, "pitch": 82, "duration": 9, "velocity": 57}, {"time": 1594, "pitch": 65, "duration": 10, "velocity": 49}, {"time": 1598, "pitch": 70, "duration": 2, "velocity": 45}, {"time": 1602, "pitch": 70, "duration": 11, "velocity": 48}, {"time": 1602, "pitch": 74, "duration": 10, "velocity": 45}, {"time": 1614, "pitch": 51, "duration": 14, "velocity": 59}, {"time": 1614, "pitch": 63, "duration": 5, "velocity": 56}, {"time": 1614, "pitch": 67, "duration": 4, "velocity": 52}, {"time": 1618, "pitch": 58, "duration": 9, "velocity": 46}, {"time": 1622, "pitch": 63, "duration": 6, "velocity": 52}, {"time": 1626, "pitch": 67, "duration": 6, "velocity": 58}, {"time": 1626, "pitch": 70, "duration": 8, "velocity": 58}, {"time": 1634, "pitch": 63, "duration": 2, "velocity": 58}, {"time": 1638, "pitch": 48, "duration": 18, "velocity": 50}, {"time": 1638, "pitch": 60, "duration": 5, "velocity": 59}, {"time": 1638, "pitch": 63, "duration": 8, "velocity": 57}, {"time": 1642, "pitch": 55, "duration": 10, "velocity": 45}, {"time": 1646, "pitch": 60, "duration": 3, "velocity": 46}, {"time": 1650, "pitch": 60, "duration": 4, "velocity": 57}, {"time": 1650, "pitch": 63, "duration": 5, "velocity": 58}, {"time": 1650, "pitch": 67, "duration": 6, "velocity": 56}, {"time": 1654, "pitch": 55, "duration": 3, "velocity": 51}, {"time": 1658, "pitch": 60, "duration": 2, "velocity": 63}, {"time": 1662, "pitch": 44, "duration": 8, "velocity": 55}, {"time": 1662, "pitch": 56, "duration": 5, "velocity": 54}, {"time": 1662, "pitch": 60, "duration": 9, "velocity": 52}, {"time": 1666, "pitch": 51, "duration": 5, "velocity": 39}, {"time": 1670, "pitch": 56, "duration": 3, "velocity": 53}, {"time": 1674, "pitch": 46, "duration": 11, "velocity": 59}, {"time": 1674, "pitch": 58, "duration": 6, "velocity": 51}, {"time": 1674, "pitch": 62, "duration": 9, "velocity": 53}, {"time": 1678, "pitch": 53, "duration": 6, "velocity": 42}, {"time": 1682, "pitch": 58, "duration": 3, "velocity": 58}, {"time": 1686, "pitch": 51, "duration": 19, "velocity": 53}, {"time": 1686, "pitch": 58, "duration": 3, "velocity": 52}, {"time": 1686, "pitch": 63, "duration": 5, "velocity": 56}, {"time": 1690, "pitch": 58, "duration": 6, "velocity": 53}, {"time": 1694, "pitch": 63, "duration": 3, "velocity": 55}, {"time": 1698, "pitch": 65, "duration": 8, "velocity": 64}, {"time": 1706, "pitch": 63, "duration": 3, "velocity": 45}, {"time": 1710, "pitch": 51, "duration": 14, "velocity": 63}, {"time": 1710, "pitch": 58, "duration": 3, "velocity": 49}, {"time": 1710, "pitch": 67, "duration": 4, "velocity": 53}, {"time": 1714, "pitch": 58, "duration": 9, "velocity": 51}, {"time": 1718, "pitch": 63, "duration": 3, "velocity": 52}, {"time": 1722, "pitch": 63, "duration": 3, "velocity": 52}, {"time": 1722, "pitch": 67, "duration": 4, "velocity": 54}, {"time": 1722, "pitch": 70, "duration": 5, "velocity": 58}, {"time": 1734, "pitch": 48, "duration": 15, "velocity": 58}, {"time": 1734, "pitch": 60, "duration": 5, "velocity": 46}, {"time": 1734, "pitch": 63, "duration": 8, "velocity": 52}, {"time": 1738, "pitch": 55, "duration": 10, "velocity": 44}, {"time": 1742, "pitch": 60, "duration": 2, "velocity": 42}, {"time": 1746, "pitch": 60, "duration": 6, "velocity": 58}, {"time": 1746, "pitch": 63, "duration": 6, "velocity": 58}, {"time": 1746, "pitch": 67, "duration": 6, "velocity": 48}, {"time": 1758, "pitch": 44, "duration": 8, "velocity": 58}, {"time": 1758, "pitch": 56, "duration": 5, "velocity": 50}, {"time": 1758, "pitch": 60, "duration": 9, "velocity": 53}, {"time": 1762, "pitch": 51, "duration": 6, "velocity": 46}, {"time": 1766, "pitch": 56, "duration": 3, "velocity": 50}, {"time": 1770, "pitch": 46, "duration": 9, "velocity": 58}, {"time": 1770, "pitch": 58, "duration": 5, "velocity": 54}, {"time": 1770, "pitch": 62, "duration": 6, "velocity": 58}, {"time": 1774, "pitch": 53, "duration": 6, "velocity": 45}, {"time": 1778, "pitch": 58, "duration": 3, "velocity": 54}, {"time": 1782, "pitch": 51, "duration": 20, "velocity": 58}, {"time": 1782, "pitch": 58, "duration": 2, "velocity": 47}, {"time": 1782, "pitch": 63, "duration": 5, "velocity": 54}, {"time": 1786, "pitch": 58, "duration": 6, "velocity": 44}, {"time": 1790, "pitch": 63, "duration": 2, "velocity": 52}, {"time": 1794, "pitch": 58, "duration": 5, "velocity": 58}, {"time": 1794, "pitch": 65, "duration": 6, "velocity": 62}, {"time": 1798, "pitch": 63, "duration": 4, "velocity": 46}, {"time": 1802, "pitch": 58, "duration": 2, "velocity": 48}, {"time": 1806, "pitch": 44, "duration": 9, "velocity": 60}, {"time": 1806, "pitch": 56, "duration": 5, "velocity": 56}, {"time": 1806, "pitch": 60, "duration": 9, "velocity": 53}, {"time": 1810, "pitch": 51, "duration": 7, "velocity": 48}, {"time": 1814, "pitch": 56, "duration": 2, "velocity": 55}, {"time": 1818, "pitch": 46, "duration": 10, "velocity": 59}, {"time": 1818, "pitch": 58, "duration": 5, "velocity": 54}, {"time": 1818, "pitch": 62, "duration": 6, "velocity": 59}, {"time": 1822, "pitch": 53, "duration": 6, "velocity": 50}, {"time": 1826, "pitch": 58, "duration": 3, "velocity": 61}, {"time": 1830, "pitch": 51, "duration": 23, "velocity": 58}, {"time": 1830, "pitch": 58, "duration": 3, "velocity": 57}, {"time": 1830, "pitch": 63, "duration": 6, "velocity": 57}, {"time": 1834, "pitch": 58, "duration": 6, "velocity": 46}, {"time": 1838, "pitch": 63, "duration": 2, "velocity": 51}, {"time": 1842, "pitch": 65, "duration": 5, "velocity": 63}, {"time": 1846, "pitch": 63, "duration": 6, "velocity": 50}, {"time": 1850, "pitch": 58, "duration": 3, "velocity": 48}, {"time": 1854, "pitch": 44, "duration": 8, "velocity": 58}, {"time": 1854, "pitch": 56, "duration": 5, "velocity": 56}, {"time": 1854, "pitch": 63, "duration": 5, "velocity": 58}, {"time": 1858, "pitch": 51, "duration": 5, "velocity": 49}, {"time": 1862, "pitch": 56, "duration": 2, "velocity": 60}, {"time": 1866, "pitch": 46, "duration": 10, "velocity": 58}, {"time": 1866, "pitch": 58, "duration": 5, "velocity": 58}, {"time": 1866, "pitch": 62, "duration": 6, "velocity": 53}, {"time": 1870, "pitch": 53, "duration": 6, "velocity": 51}, {"time": 1874, "pitch": 58, "duration": 2, "velocity": 59}, {"time": 1878, "pitch": 51, "duration": 18, "velocity": 56}, {"time": 1878, "pitch": 58, "duration": 3, "velocity": 50}, {"time": 1878, "pitch": 63, "duration": 6, "velocity": 55}, {"time": 1882, "pitch": 58, "duration": 5, "velocity": 56}, {"time": 1886, "pitch": 63, "duration": 2, "velocity": 52}, {"time": 1890, "pitch": 58, "duration": 5, "velocity": 58}, {"time": 1890, "pitch": 65, "duration": 7, "velocity": 60}, {"time": 1894, "pitch": 63, "duration": 5, "velocity": 50}, {"time": 1898, "pitch": 58, "duration": 2, "velocity": 42}, {"time": 1902, "pitch": 41, "duration": 17, "velocity": 60}, {"time": 1902, "pitch": 60, "duration": 4, "velocity": 54}, {"time": 1902, "pitch": 65, "duration": 9, "velocity": 58}, {"time": 1910, "pitch": 60, "duration": 3, "velocity": 52}, {"time": 1914, "pitch": 60, "duration": 2, "velocity": 59}, {"time": 1914, "pitch": 68, "duration": 4, "velocity": 55}, {"time": 1918, "pitch": 65, "duration": 5, "velocity": 59}, {"time": 1922, "pitch": 60, "duration": 3, "velocity": 58}, {"time": 1926, "pitch": 60, "duration": 3, "velocity": 60}, {"time": 1926, "pitch": 65, "duration": 10, "velocity": 61}, {"time": 1934, "pitch": 60, "duration": 3, "velocity": 41}, {"time": 1938, "pitch": 53, "duration": 4, "velocity": 59}, {"time": 1938, "pitch": 60, "duration": 2, "velocity": 56}, {"time": 1938, "pitch": 65, "duration": 5, "velocity": 62}, {"time": 1938, "pitch": 68, "duration": 5, "velocity": 59}, {"time": 1942, "pitch": 60, "duration": 2, "velocity": 53}, {"time": 1946, "pitch": 60, "duration": 2, "velocity": 53}, {"time": 1946, "pitch": 65, "duration": 2, "velocity": 49}, {"time": 1950, "pitch": 44, "duration": 20, "velocity": 59}, {"time": 1950, "pitch": 56, "duration": 4, "velocity": 53}, {"time": 1950, "pitch": 60, "duration": 8, "velocity": 54}, {"time": 1954, "pitch": 51, "duration": 10, "velocity": 53}, {"time": 1958, "pitch": 56, "duration": 2, "velocity": 54}, {"time": 1962, "pitch": 56, "duration": 4, "velocity": 61}, {"time": 1962, "pitch": 63, "duration": 5, "velocity": 59}, {"time": 1966, "pitch": 51, "duration": 5, "velocity": 55}, {"time": 1970, "pitch": 56, "duration": 2, "velocity": 58}, {"time": 1974, "pitch": 46, "duration": 5, "velocity": 59}, {"time": 1974, "pitch": 58, "duration": 4, "velocity": 54}, {"time": 1974, "pitch": 62, "duration": 4, "velocity": 51}, {"time": 1978, "pitch": 53, "duration": 2, "velocity": 56}, {"time": 1982, "pitch": 58, "duration": 14, "velocity": 63}, {"time": 1986, "pitch": 65, "duration": 10, "velocity": 63}, {"time": 1990, "pitch": 70, "duration": 4, "velocity": 74}, {"time": 1994, "pitch": 77, "duration": 3, "velocity": 58}, {"time": 1998, "pitch": 58, "duration": 14, "velocity": 60}, {"time": 1998, "pitch": 70, "duration": 5, "velocity": 59}, {"time": 1998, "pitch": 82, "duration": 9, "velocity": 57}, {"time": 2002, "pitch": 65, "duration": 10, "velocity": 49}, {"time": 2006, "pitch": 70, "duration": 2, "velocity": 45}, {"time": 2010, "pitch": 70, "duration": 11, "velocity": 48}, {"time": 2010, "pitch": 74, "duration": 10, "velocity": 45}, {"time": 2022, "pitch": 51, "duration": 14, "velocity": 61}, {"time": 2022, "pitch": 63, "duration": 5, "velocity": 55}, {"time": 2022, "pitch": 67, "duration": 9, "velocity": 51}, {"time": 2022, "pitch": 70, "duration": 9, "velocity": 54}, {"time": 2026, "pitch": 58, "duration": 10, "velocity": 41}, {"time": 2030, "pitch": 63, "duration": 3, "velocity": 46}, {"time": 2034, "pitch": 67, "duration": 4, "velocity": 59}, {"time": 2034, "pitch": 70, "duration": 8, "velocity": 59}, {"time": 2046, "pitch": 43, "duration": 13, "velocity": 58}, {"time": 2046, "pitch": 67, "duration": 8, "velocity": 48}, {"time": 2046, "pitch": 70, "duration": 6, "velocity": 58}, {"time": 2050, "pitch": 50, "duration": 10, "velocity": 45}, {"time": 2054, "pitch": 62, "duration": 2, "velocity": 48}, {"time": 2058, "pitch": 62, "duration": 2, "velocity": 59}, {"time": 2058, "pitch": 67, "duration": 2, "velocity": 58}, {"time": 2058, "pitch": 70, "duration": 2, "velocity": 59}, {"time": 2070, "pitch": 44, "duration": 12, "velocity": 58}, {"time": 2070, "pitch": 56, "duration": 4, "velocity": 48}, {"time": 2070, "pitch": 60, "duration": 9, "velocity": 49}, {"time": 2074, "pitch": 51, "duration": 7, "velocity": 40}, {"time": 2078, "pitch": 56, "duration": 3, "velocity": 54}, {"time": 2082, "pitch": 56, "duration": 4, "velocity": 58}, {"time": 2082, "pitch": 60, "duration": 4, "velocity": 59}, {"time": 2094, "pitch": 46, "duration": 15, "velocity": 58}, {"time": 2094, "pitch": 62, "duration": 9, "velocity": 45}, {"time": 2094, "pitch": 65, "duration": 10, "velocity": 56}, {"time": 2098, "pitch": 53, "duration": 10, "velocity": 50}, {"time": 2102, "pitch": 58, "duration": 3, "velocity": 58}, {"time": 2106, "pitch": 58, "duration": 4, "velocity": 59}, {"time": 2106, "pitch": 62, "duration": 4, "velocity": 63}, {"time": 2106, "pitch": 65, "duration": 4, "velocity": 63}, {"time": 2106, "pitch": 70, "duration": 5, "velocity": 58}, {"time": 2118, "pitch": 39, "duration": 1, "velocity": 59}, {"time": 2118, "pitch": 63, "duration": 4, "velocity": 55}, {"time": 2118, "pitch": 67, "duration": 4, "velocity": 50}, {"time": 2126, "pitch": 51, "duration": 6, "velocity": 2}, {"time": 2126, "pitch": 58, "duration": 6, "velocity": 46}, {"time": 2130, "pitch": 63, "duration": 2, "velocity": 58}, {"time": 2130, "pitch": 67, "duration": 2, "velocity": 59}, {"time": 2130, "pitch": 70, "duration": 2, "velocity": 57}, {"time": 2142, "pitch": 43, "duration": 13, "velocity": 64}, {"time": 2146, "pitch": 50, "duration": 9, "velocity": 48}, {"time": 2150, "pitch": 58, "duration": 3, "velocity": 58}, {"time": 2154, "pitch": 58, "duration": 4, "velocity": 60}, {"time": 2154, "pitch": 62, "duration": 3, "velocity": 60}, {"time": 2154, "pitch": 67, "duration": 3, "velocity": 58}, {"time": 2166, "pitch": 44, "duration": 15, "velocity": 59}, {"time": 2166, "pitch": 56, "duration": 5, "velocity": 52}, {"time": 2166, "pitch": 63, "duration": 10, "velocity": 58}, {"time": 2170, "pitch": 51, "duration": 10, "velocity": 48}, {"time": 2174, "pitch": 56, "duration": 3, "velocity": 54}, {"time": 2178, "pitch": 56, "duration": 3, "velocity": 58}, {"time": 2178, "pitch": 63, "duration": 3, "velocity": 58}, {"time": 2178, "pitch": 68, "duration": 5, "velocity": 58}, {"time": 2190, "pitch": 46, "duration": 19, "velocity": 58}, {"time": 2190, "pitch": 58, "duration": 9, "velocity": 59}, {"time": 2190, "pitch": 65, "duration": 8, "velocity": 60}, {"time": 2194, "pitch": 53, "duration": 10, "velocity": 57}, {"time": 2198, "pitch": 62, "duration": 2, "velocity": 74}, {"time": 2202, "pitch": 58, "duration": 2, "velocity": 60}, {"time": 2202, "pitch": 70, "duration": 3, "velocity": 59}, {"time": 2206, "pitch": 58, "duration": 2, "velocity": 63}, {"time": 2206, "pitch": 65, "duration": 5, "velocity": 61}, {"time": 2206, "pitch": 70, "duration": 1, "velocity": 43}, {"time": 2210, "pitch": 58, "duration": 2, "velocity": 51}, {"time": 2214, "pitch": 43, "duration": 14, "velocity": 62}, {"time": 2214, "pitch": 62, "duration": 7, "velocity": 57}, {"time": 2214, "pitch": 67, "duration": 7, "velocity": 58}, {"time": 2218, "pitch": 50, "duration": 10, "velocity": 46}, {"time": 2222, "pitch": 58, "duration": 3, "velocity": 53}, {"time": 2226, "pitch": 58, "duration": 9, "velocity": 64}, {"time": 2226, "pitch": 67, "duration": 12, "velocity": 52}, {"time": 2238, "pitch": 48, "duration": 14, "velocity": 59}, {"time": 2238, "pitch": 60, "duration": 5, "velocity": 59}, {"time": 2238, "pitch": 63, "duration": 8, "velocity": 59}, {"time": 2242, "pitch": 55, "duration": 10, "velocity": 53}, {"time": 2246, "pitch": 60, "duration": 2, "velocity": 52}, {"time": 2250, "pitch": 60, "duration": 4, "velocity": 61}, {"time": 2250, "pitch": 63, "duration": 3, "velocity": 59}, {"time": 2250, "pitch": 67, "duration": 3, "velocity": 60}, {"time": 2262, "pitch": 44, "duration": 8, "velocity": 58}, {"time": 2262, "pitch": 56, "duration": 4, "velocity": 54}, {"time": 2262, "pitch": 60, "duration": 5, "velocity": 53}, {"time": 2262, "pitch": 63, "duration": 5, "velocity": 58}, {"time": 2266, "pitch": 51, "duration": 5, "velocity": 51}, {"time": 2270, "pitch": 56, "duration": 2, "velocity": 59}, {"time": 2274, "pitch": 46, "duration": 10, "velocity": 59}, {"time": 2274, "pitch": 58, "duration": 5, "velocity": 54}, {"time": 2274, "pitch": 62, "duration": 9, "velocity": 51}, {"time": 2278, "pitch": 53, "duration": 6, "velocity": 42}, {"time": 2282, "pitch": 58, "duration": 2, "velocity": 52}, {"time": 2286, "pitch": 51, "duration": 17, "velocity": 59}, {"time": 2286, "pitch": 58, "duration": 5, "velocity": 59}, {"time": 2286, "pitch": 63, "duration": 10, "velocity": 58}, {"time": 2294, "pitch": 58, "duration": 3, "velocity": 51}, {"time": 2298, "pitch": 58, "duration": 4, "velocity": 60}, {"time": 2298, "pitch": 63, "duration": 5, "velocity": 62}, {"time": 2298, "pitch": 67, "duration": 4, "velocity": 60}, {"time": 2310, "pitch": 43, "duration": 12, "velocity": 63}, {"time": 2310, "pitch": 58, "duration": 1, "velocity": 41}, {"time": 2314, "pitch": 50, "duration": 9, "velocity": 49}, {"time": 2318, "pitch": 58, "duration": 4, "velocity": 62}, {"time": 2322, "pitch": 58, "duration": 1, "velocity": 40}, {"time": 2322, "pitch": 62, "duration": 5, "velocity": 69}, {"time": 2322, "pitch": 67, "duration": 5, "velocity": 59}, {"time": 2334, "pitch": 44, "duration": 8, "velocity": 60}, {"time": 2334, "pitch": 56, "duration": 5, "velocity": 55}, {"time": 2334, "pitch": 60, "duration": 5, "velocity": 50}, {"time": 2334, "pitch": 63, "duration": 6, "velocity": 58}, {"time": 2338, "pitch": 51, "duration": 5, "velocity": 51}, {"time": 2342, "pitch": 56, "duration": 2, "velocity": 64}, {"time": 2346, "pitch": 46, "duration": 10, "velocity": 60}, {"time": 2346, "pitch": 58, "duration": 5, "velocity": 59}, {"time": 2346, "pitch": 62, "duration": 6, "velocity": 59}, {"time": 2350, "pitch": 53, "duration": 6, "velocity": 52}, {"time": 2354, "pitch": 58, "duration": 2, "velocity": 60}, {"time": 2358, "pitch": 51, "duration": 22, "velocity": 61}, {"time": 2358, "pitch": 58, "duration": 3, "velocity": 58}, {"time": 2358, "pitch": 63, "duration": 6, "velocity": 58}, {"time": 2362, "pitch": 58, "duration": 5, "velocity": 53}, {"time": 2366, "pitch": 63, "duration": 2, "velocity": 52}, {"time": 2370, "pitch": 58, "duration": 4, "velocity": 61}, {"time": 2370, "pitch": 65, "duration": 4, "velocity": 64}, {"time": 2374, "pitch": 63, "duration": 5, "velocity": 57}, {"time": 2378, "pitch": 58, "duration": 3, "velocity": 53}, {"time": 2382, "pitch": 51, "duration": 14, "velocity": 67}, {"time": 2382, "pitch": 58, "duration": 5, "velocity": 58}, {"time": 2382, "pitch": 63, "duration": 10, "velocity": 60}, {"time": 2382, "pitch": 67, "duration": 9, "velocity": 59}, {"time": 2394, "pitch": 58, "duration": 5, "velocity": 64}, {"time": 2394, "pitch": 63, "duration": 6, "velocity": 69}, {"time": 2398, "pitch": 51, "duration": 8, "velocity": 62}, {"time": 2402, "pitch": 58, "duration": 4, "velocity": 67}, {"time": 2402, "pitch": 63, "duration": 2, "velocity": 39}, {"time": 2406, "pitch": 51, "duration": 6, "velocity": 61}, {"time": 2406, "pitch": 63, "duration": 4, "velocity": 61}, {"time": 2406, "pitch": 70, "duration": 4, "velocity": 59}, {"time": 2410, "pitch": 58, "duration": 2, "velocity": 47}, {"time": 2414, "pitch": 63, "duration": 2, "velocity": 60}, {"time": 2418, "pitch": 63, "duration": 3, "velocity": 62}, {"time": 2418, "pitch": 67, "duration": 4, "velocity": 67}, {"time": 2418, "pitch": 70, "duration": 7, "velocity": 63}, {"time": 2426, "pitch": 63, "duration": 2, "velocity": 64}, {"time": 2426, "pitch": 70, "duration": 2, "velocity": 16}, {"time": 2430, "pitch": 48, "duration": 19, "velocity": 59}, {"time": 2430, "pitch": 60, "duration": 5, "velocity": 64}, {"time": 2430, "pitch": 63, "duration": 5, "velocity": 59}, {"time": 2434, "pitch": 55, "duration": 10, "velocity": 51}, {"time": 2438, "pitch": 60, "duration": 2, "velocity": 58}, {"time": 2442, "pitch": 60, "duration": 3, "velocity": 61}, {"time": 2442, "pitch": 63, "duration": 4, "velocity": 62}, {"time": 2442, "pitch": 67, "duration": 8, "velocity": 59}, {"time": 2446, "pitch": 55, "duration": 4, "velocity": 56}, {"time": 2450, "pitch": 60, "duration": 2, "velocity": 72}, {"time": 2454, "pitch": 44, "duration": 10, "velocity": 59}, {"time": 2454, "pitch": 56, "duration": 4, "velocity": 59}, {"time": 2454, "pitch": 60, "duration": 6, "velocity": 60}, {"time": 2458, "pitch": 51, "duration": 6, "velocity": 54}, {"time": 2462, "pitch": 56, "duration": 2, "velocity": 62}, {"time": 2462, "pitch": 60, "duration": 1, "velocity": 36}, {"time": 2466, "pitch": 46, "duration": 7, "velocity": 61}, {"time": 2466, "pitch": 58, "duration": 5, "velocity": 60}, {"time": 2466, "pitch": 62, "duration": 5, "velocity": 59}, {"time": 2470, "pitch": 53, "duration": 2, "velocity": 48}, {"time": 2474, "pitch": 58, "duration": 2, "velocity": 61}, {"time": 2474, "pitch": 62, "duration": 3, "velocity": 57}, {"time": 2478, "pitch": 39, "duration": 21, "velocity": 61}, {"time": 2478, "pitch": 58, "duration": 3, "velocity": 59}, {"time": 2478, "pitch": 63, "duration": 5, "velocity": 61}, {"time": 2482, "pitch": 58, "duration": 1, "velocity": 46}, {"time": 2486, "pitch": 58, "duration": 2, "velocity": 59}, {"time": 2486, "pitch": 67, "duration": 2, "velocity": 59}, {"time": 2490, "pitch": 58, "duration": 3, "velocity": 67}, {"time": 2490, "pitch": 67, "duration": 4, "velocity": 69}, {"time": 2494, "pitch": 65, "duration": 5, "velocity": 60}, {"time": 2498, "pitch": 58, "duration": 3, "velocity": 59}, {"time": 2502, "pitch": 39, "duration": 16, "velocity": 64}, {"time": 2502, "pitch": 58, "duration": 2, "velocity": 56}, {"time": 2502, "pitch": 63, "duration": 5, "velocity": 56}, {"time": 2506, "pitch": 58, "duration": 5, "velocity": 47}, {"time": 2510, "pitch": 63, "duration": 2, "velocity": 53}, {"time": 2514, "pitch": 58, "duration": 3, "velocity": 60}, {"time": 2514, "pitch": 65, "duration": 4, "velocity": 72}, {"time": 2518, "pitch": 63, "duration": 5, "velocity": 60}, {"time": 2522, "pitch": 58, "duration": 2, "velocity": 60}, {"time": 2526, "pitch": 48, "duration": 14, "velocity": 61}, {"time": 2526, "pitch": 60, "duration": 5, "velocity": 61}, {"time": 2526, "pitch": 63, "duration": 6, "velocity": 63}, {"time": 2534, "pitch": 60, "duration": 2, "velocity": 58}, {"time": 2538, "pitch": 60, "duration": 3, "velocity": 64}, {"time": 2538, "pitch": 63, "duration": 5, "velocity": 63}, {"time": 2538, "pitch": 67, "duration": 5, "velocity": 64}, {"time": 2542, "pitch": 60, "duration": 1, "velocity": 54}, {"time": 2546, "pitch": 63, "duration": 2, "velocity": 67}, {"time": 2550, "pitch": 44, "duration": 9, "velocity": 59}, {"time": 2550, "pitch": 56, "duration": 4, "velocity": 59}, {"time": 2550, "pitch": 63, "duration": 4, "velocity": 59}, {"time": 2554, "pitch": 51, "duration": 5, "velocity": 53}, {"time": 2558, "pitch": 56, "duration": 2, "velocity": 61}, {"time": 2558, "pitch": 63, "duration": 2, "velocity": 59}, {"time": 2562, "pitch": 46, "duration": 10, "velocity": 62}, {"time": 2562, "pitch": 58, "duration": 5, "velocity": 58}, {"time": 2562, "pitch": 62, "duration": 5, "velocity": 58}, {"time": 2566, "pitch": 53, "duration": 6, "velocity": 50}, {"time": 2570, "pitch": 58, "duration": 2, "velocity": 54}, {"time": 2570, "pitch": 62, "duration": 2, "velocity": 60}, {"time": 2574, "pitch": 51, "duration": 20, "velocity": 63}, {"time": 2574, "pitch": 58, "duration": 2, "velocity": 58}, {"time": 2574, "pitch": 63, "duration": 5, "velocity": 61}, {"time": 2578, "pitch": 58, "duration": 1, "velocity": 30}, {"time": 2582, "pitch": 58, "duration": 2, "velocity": 47}, {"time": 2582, "pitch": 67, "duration": 2, "velocity": 38}, {"time": 2586, "pitch": 58, "duration": 3, "velocity": 65}, {"time": 2586, "pitch": 67, "duration": 4, "velocity": 67}, {"time": 2590, "pitch": 65, "duration": 3, "velocity": 60}, {"time": 2594, "pitch": 58, "duration": 3, "velocity": 48}, {"time": 2598, "pitch": 44, "duration": 10, "velocity": 59}, {"time": 2598, "pitch": 56, "duration": 5, "velocity": 58}, {"time": 2598, "pitch": 63, "duration": 5, "velocity": 59}, {"time": 2602, "pitch": 51, "duration": 7, "velocity": 53}, {"time": 2606, "pitch": 56, "duration": 2, "velocity": 60}, {"time": 2606, "pitch": 63, "duration": 2, "velocity": 58}, {"time": 2610, "pitch": 46, "duration": 9, "velocity": 61}, {"time": 2610, "pitch": 58, "duration": 4, "velocity": 59}, {"time": 2610, "pitch": 62, "duration": 5, "velocity": 61}, {"time": 2614, "pitch": 53, "duration": 6, "velocity": 55}, {"time": 2618, "pitch": 58, "duration": 2, "velocity": 52}, {"time": 2618, "pitch": 62, "duration": 2, "velocity": 54}, {"time": 2622, "pitch": 51, "duration": 19, "velocity": 64}, {"time": 2622, "pitch": 58, "duration": 2, "velocity": 54}, {"time": 2622, "pitch": 63, "duration": 5, "velocity": 60}, {"time": 2626, "pitch": 58, "duration": 2, "velocity": 44}, {"time": 2630, "pitch": 58, "duration": 2, "velocity": 45}, {"time": 2634, "pitch": 58, "duration": 2, "velocity": 67}, {"time": 2634, "pitch": 67, "duration": 3, "velocity": 65}, {"time": 2638, "pitch": 65, "duration": 4, "velocity": 62}, {"time": 2642, "pitch": 58, "duration": 3, "velocity": 54}, {"time": 2646, "pitch": 44, "duration": 9, "velocity": 59}, {"time": 2646, "pitch": 56, "duration": 4, "velocity": 54}, {"time": 2646, "pitch": 60, "duration": 5, "velocity": 59}, {"time": 2654, "pitch": 56, "duration": 2, "velocity": 62}, {"time": 2654, "pitch": 60, "duration": 3, "velocity": 61}, {"time": 2658, "pitch": 46, "duration": 10, "velocity": 60}, {"time": 2658, "pitch": 58, "duration": 5, "velocity": 59}, {"time": 2658, "pitch": 62, "duration": 5, "velocity": 62}, {"time": 2662, "pitch": 53, "duration": 6, "velocity": 48}, {"time": 2666, "pitch": 58, "duration": 2, "velocity": 56}, {"time": 2666, "pitch": 62, "duration": 2, "velocity": 55}, {"time": 2670, "pitch": 51, "duration": 23, "velocity": 64}, {"time": 2670, "pitch": 58, "duration": 3, "velocity": 59}, {"time": 2670, "pitch": 63, "duration": 6, "velocity": 59}, {"time": 2678, "pitch": 58, "duration": 2, "velocity": 46}, {"time": 2682, "pitch": 58, "duration": 3, "velocity": 61}, {"time": 2682, "pitch": 67, "duration": 4, "velocity": 62}, {"time": 2686, "pitch": 58, "duration": 1, "velocity": 35}, {"time": 2686, "pitch": 63, "duration": 6, "velocity": 49}, {"time": 2690, "pitch": 58, "duration": 3, "velocity": 50}, {"time": 2694, "pitch": 41, "duration": 14, "velocity": 60}, {"time": 2694, "pitch": 60, "duration": 5, "velocity": 59}, {"time": 2694, "pitch": 68, "duration": 6, "velocity": 59}, {"time": 2698, "pitch": 48, "duration": 9, "velocity": 41}, {"time": 2702, "pitch": 60, "duration": 2, "velocity": 59}, {"time": 2706, "pitch": 60, "duration": 4, "velocity": 67}, {"time": 2706, "pitch": 65, "duration": 5, "velocity": 64}, {"time": 2706, "pitch": 70, "duration": 1, "velocity": 47}, {"time": 2714, "pitch": 60, "duration": 2, "velocity": 44}, {"time": 2718, "pitch": 53, "duration": 18, "velocity": 62}, {"time": 2718, "pitch": 60, "duration": 3, "velocity": 59}, {"time": 2718, "pitch": 65, "duration": 5, "velocity": 59}, {"time": 2726, "pitch": 60, "duration": 2, "velocity": 53}, {"time": 2726, "pitch": 68, "duration": 2, "velocity": 53}, {"time": 2730, "pitch": 60, "duration": 2, "velocity": 72}, {"time": 2730, "pitch": 68, "duration": 3, "velocity": 64}, {"time": 2734, "pitch": 65, "duration": 2, "velocity": 65}, {"time": 2738, "pitch": 60, "duration": 1, "velocity": 46}, {"time": 2742, "pitch": 44, "duration": 16, "velocity": 61}, {"time": 2742, "pitch": 56, "duration": 4, "velocity": 59}, {"time": 2742, "pitch": 60, "duration": 4, "velocity": 59}, {"time": 2746, "pitch": 51, "duration": 10, "velocity": 52}, {"time": 2750, "pitch": 56, "duration": 2, "velocity": 57}, {"time": 2754, "pitch": 56, "duration": 4, "velocity": 69}, {"time": 2754, "pitch": 63, "duration": 4, "velocity": 69}, {"time": 2758, "pitch": 60, "duration": 2, "velocity": 60}, {"time": 2762, "pitch": 56, "duration": 1, "velocity": 59}, {"time": 2766, "pitch": 46, "duration": 17, "velocity": 60}, {"time": 2766, "pitch": 58, "duration": 2, "velocity": 59}, {"time": 2766, "pitch": 62, "duration": 2, "velocity": 54}, {"time": 2770, "pitch": 58, "duration": 2, "velocity": 48}, {"time": 2770, "pitch": 65, "duration": 2, "velocity": 58}, {"time": 2774, "pitch": 58, "duration": 2, "velocity": 52}, {"time": 2774, "pitch": 70, "duration": 2, "velocity": 60}, {"time": 2778, "pitch": 58, "duration": 3, "velocity": 67}, {"time": 2778, "pitch": 65, "duration": 4, "velocity": 72}, {"time": 2782, "pitch": 62, "duration": 4, "velocity": 54}, {"time": 2786, "pitch": 58, "duration": 3, "velocity": 58}, {"time": 2790, "pitch": 46, "duration": 15, "velocity": 64}, {"time": 2790, "pitch": 53, "duration": 14, "velocity": 64}, {"time": 2790, "pitch": 58, "duration": 11, "velocity": 55}, {"time": 2790, "pitch": 62, "duration": 8, "velocity": 59}, {"time": 2790, "pitch": 70, "duration": 7, "velocity": 60}, {"time": 2802, "pitch": 58, "duration": 5, "velocity": 65}, {"time": 2802, "pitch": 62, "duration": 6, "velocity": 79}, {"time": 2802, "pitch": 65, "duration": 10, "velocity": 74}, {"time": 2806, "pitch": 53, "duration": 8, "velocity": 58}, {"time": 2810, "pitch": 58, "duration": 3, "velocity": 58}, {"time": 2812, "pitch": 58, "duration": 1, "velocity": 56}, {"time": 2813, "pitch": 46, "duration": 24, "velocity": 58}, {"time": 2813, "pitch": 62, "duration": 24, "velocity": 58}, {"time": 2814, "pitch": 65, "duration": 23, "velocity": 59}, {"time": 2815, "pitch": 70, "duration": 22, "velocity": 51}, {"time": 2838, "pitch": 51, "duration": 21, "velocity": 59}, {"time": 2842, "pitch": 58, "duration": 18, "velocity": 45}, {"time": 2846, "pitch": 65, "duration": 5, "velocity": 52}, {"time": 2850, "pitch": 67, "duration": 22, "velocity": 55}, {"time": 2862, "pitch": 48, "duration": 21, "velocity": 51}, {"time": 2866, "pitch": 55, "duration": 15, "velocity": 48}, {"time": 2870, "pitch": 58, "duration": 17, "velocity": 44}, {"time": 2874, "pitch": 67, "duration": 12, "velocity": 49}, {"time": 2886, "pitch": 44, "duration": 11, "velocity": 55}, {"time": 2890, "pitch": 51, "duration": 8, "velocity": 48}, {"time": 2894, "pitch": 56, "duration": 3, "velocity": 55}, {"time": 2898, "pitch": 46, "duration": 11, "velocity": 54}, {"time": 2898, "pitch": 58, "duration": 11, "velocity": 56}, {"time": 2898, "pitch": 62, "duration": 8, "velocity": 51}, {"time": 2910, "pitch": 51, "duration": 23, "velocity": 57}, {"time": 2914, "pitch": 58, "duration": 19, "velocity": 57}, {"time": 2918, "pitch": 63, "duration": 14, "velocity": 57}, {"time": 2922, "pitch": 67, "duration": 11, "velocity": 55}, {"time": 2934, "pitch": 51, "duration": 23, "velocity": 55}, {"time": 2934, "pitch": 58, "duration": 17, "velocity": 46}, {"time": 2934, "pitch": 63, "duration": 22, "velocity": 52}, {"time": 2954, "pitch": 58, "duration": 5, "velocity": 59}, {"time": 2958, "pitch": 48, "duration": 21, "velocity": 59}, {"time": 2962, "pitch": 55, "duration": 15, "velocity": 45}, {"time": 2966, "pitch": 58, "duration": 13, "velocity": 59}, {"time": 2970, "pitch": 63, "duration": 8, "velocity": 56}, {"time": 2982, "pitch": 44, "duration": 7, "velocity": 58}, {"time": 2982, "pitch": 56, "duration": 6, "velocity": 53}, {"time": 2982, "pitch": 60, "duration": 7, "velocity": 52}, {"time": 2994, "pitch": 44, "duration": 2, "velocity": 52}, {"time": 2994, "pitch": 46, "duration": 12, "velocity": 51}, {"time": 2994, "pitch": 58, "duration": 11, "velocity": 52}, {"time": 2994, "pitch": 62, "duration": 11, "velocity": 48}, {"time": 3006, "pitch": 39, "duration": 21, "velocity": 52}, {"time": 3006, "pitch": 51, "duration": 21, "velocity": 52}, {"time": 3006, "pitch": 58, "duration": 1, "velocity": 36}, {"time": 3006, "pitch": 63, "duration": 5, "velocity": 58}, {"time": 3010, "pitch": 58, "duration": 6, "velocity": 53}, {"time": 3014, "pitch": 63, "duration": 2, "velocity": 59}, {"time": 3018, "pitch": 58, "duration": 2, "velocity": 61}, {"time": 3018, "pitch": 67, "duration": 3, "velocity": 67}, {"time": 3022, "pitch": 65, "duration": 5, "velocity": 69}, {"time": 3026, "pitch": 58, "duration": 4, "velocity": 58}, {"time": 3030, "pitch": 51, "duration": 6, "velocity": 61}, {"time": 3030, "pitch": 63, "duration": 4, "velocity": 61}, {"time": 3030, "pitch": 70, "duration": 4, "velocity": 59}, {"time": 3034, "pitch": 58, "duration": 2, "velocity": 47}, {"time": 3038, "pitch": 63, "duration": 2, "velocity": 60}, {"time": 3042, "pitch": 63, "duration": 3, "velocity": 62}, {"time": 3042, "pitch": 67, "duration": 4, "velocity": 67}, {"time": 3042, "pitch": 70, "duration": 7, "velocity": 63}, {"time": 3050, "pitch": 63, "duration": 2, "velocity": 64}, {"time": 3050, "pitch": 70, "duration": 2, "velocity": 16}, {"time": 3054, "pitch": 48, "duration": 19, "velocity": 59}, {"time": 3054, "pitch": 60, "duration": 5, "velocity": 64}, {"time": 3054, "pitch": 63, "duration": 5, "velocity": 59}, {"time": 3058, "pitch": 55, "duration": 10, "velocity": 51}, {"time": 3062, "pitch": 60, "duration": 2, "velocity": 58}, {"time": 3066, "pitch": 60, "duration": 3, "velocity": 61}, {"time": 3066, "pitch": 63, "duration": 4, "velocity": 62}, {"time": 3066, "pitch": 67, "duration": 8, "velocity": 59}, {"time": 3070, "pitch": 55, "duration": 4, "velocity": 56}, {"time": 3074, "pitch": 60, "duration": 2, "velocity": 72}, {"time": 3078, "pitch": 44, "duration": 10, "velocity": 59}, {"time": 3078, "pitch": 56, "duration": 4, "velocity": 59}, {"time": 3078, "pitch": 60, "duration": 6, "velocity": 60}, {"time": 3082, "pitch": 51, "duration": 6, "velocity": 54}, {"time": 3086, "pitch": 56, "duration": 2, "velocity": 62}, {"time": 3086, "pitch": 60, "duration": 1, "velocity": 36}, {"time": 3090, "pitch": 46, "duration": 7, "velocity": 61}, {"time": 3090, "pitch": 58, "duration": 5, "velocity": 60}, {"time": 3090, "pitch": 62, "duration": 5, "velocity": 59}, {"time": 3094, "pitch": 53, "duration": 2, "velocity": 48}, {"time": 3098, "pitch": 58, "duration": 2, "velocity": 61}, {"time": 3098, "pitch": 62, "duration": 3, "velocity": 57}, {"time": 3102, "pitch": 39, "duration": 21, "velocity": 61}, {"time": 3102, "pitch": 58, "duration": 3, "velocity": 59}, {"time": 3102, "pitch": 63, "duration": 5, "velocity": 61}, {"time": 3106, "pitch": 58, "duration": 1, "velocity": 46}, {"time": 3110, "pitch": 58, "duration": 2, "velocity": 59}, {"time": 3110, "pitch": 67, "duration": 2, "velocity": 59}, {"time": 3114, "pitch": 58, "duration": 3, "velocity": 67}, {"time": 3114, "pitch": 67, "duration": 4, "velocity": 69}, {"time": 3118, "pitch": 65, "duration": 5, "velocity": 60}, {"time": 3122, "pitch": 58, "duration": 3, "velocity": 59}, {"time": 3126, "pitch": 39, "duration": 16, "velocity": 64}, {"time": 3126, "pitch": 58, "duration": 2, "velocity": 56}, {"time": 3126, "pitch": 63, "duration": 5, "velocity": 56}, {"time": 3130, "pitch": 58, "duration": 5, "velocity": 47}, {"time": 3134, "pitch": 63, "duration": 2, "velocity": 53}, {"time": 3138, "pitch": 58, "duration": 3, "velocity": 60}, {"time": 3138, "pitch": 65, "duration": 4, "velocity": 72}, {"time": 3142, "pitch": 63, "duration": 5, "velocity": 60}, {"time": 3146, "pitch": 58, "duration": 2, "velocity": 60}, {"time": 3150, "pitch": 48, "duration": 14, "velocity": 61}, {"time": 3150, "pitch": 60, "duration": 5, "velocity": 61}, {"time": 3150, "pitch": 63, "duration": 6, "velocity": 63}, {"time": 3158, "pitch": 60, "duration": 2, "velocity": 58}, {"time": 3162, "pitch": 60, "duration": 3, "velocity": 64}, {"time": 3162, "pitch": 63, "duration": 5, "velocity": 63}, {"time": 3162, "pitch": 67, "duration": 5, "velocity": 64}, {"time": 3166, "pitch": 60, "duration": 1, "velocity": 54}, {"time": 3170, "pitch": 63, "duration": 2, "velocity": 67}, {"time": 3174, "pitch": 44, "duration": 9, "velocity": 59}, {"time": 3174, "pitch": 56, "duration": 4, "velocity": 59}, {"time": 3174, "pitch": 63, "duration": 4, "velocity": 59}, {"time": 3178, "pitch": 51, "duration": 5, "velocity": 53}, {"time": 3182, "pitch": 56, "duration": 2, "velocity": 61}, {"time": 3182, "pitch": 63, "duration": 2, "velocity": 59}, {"time": 3186, "pitch": 46, "duration": 10, "velocity": 62}, {"time": 3186, "pitch": 58, "duration": 5, "velocity": 58}, {"time": 3186, "pitch": 62, "duration": 5, "velocity": 58}, {"time": 3190, "pitch": 53, "duration": 6, "velocity": 50}, {"time": 3194, "pitch": 58, "duration": 2, "velocity": 54}, {"time": 3194, "pitch": 62, "duration": 2, "velocity": 60}, {"time": 3198, "pitch": 51, "duration": 20, "velocity": 63}, {"time": 3198, "pitch": 58, "duration": 2, "velocity": 58}, {"time": 3198, "pitch": 63, "duration": 5, "velocity": 61}, {"time": 3202, "pitch": 58, "duration": 1, "velocity": 30}, {"time": 3206, "pitch": 58, "duration": 2, "velocity": 47}, {"time": 3206, "pitch": 67, "duration": 2, "velocity": 38}, {"time": 3210, "pitch": 58, "duration": 3, "velocity": 65}, {"time": 3210, "pitch": 67, "duration": 4, "velocity": 67}, {"time": 3214, "pitch": 65, "duration": 3, "velocity": 60}, {"time": 3218, "pitch": 58, "duration": 3, "velocity": 48}, {"time": 3222, "pitch": 44, "duration": 10, "velocity": 59}, {"time": 3222, "pitch": 56, "duration": 5, "velocity": 58}, {"time": 3222, "pitch": 63, "duration": 5, "velocity": 59}, {"time": 3226, "pitch": 51, "duration": 7, "velocity": 53}, {"time": 3230, "pitch": 56, "duration": 2, "velocity": 60}, {"time": 3230, "pitch": 63, "duration": 2, "velocity": 58}, {"time": 3234, "pitch": 46, "duration": 9, "velocity": 61}, {"time": 3234, "pitch": 58, "duration": 4, "velocity": 59}, {"time": 3234, "pitch": 62, "duration": 5, "velocity": 61}, {"time": 3238, "pitch": 53, "duration": 6, "velocity": 55}, {"time": 3242, "pitch": 58, "duration": 2, "velocity": 52}, {"time": 3242, "pitch": 62, "duration": 2, "velocity": 54}, {"time": 3246, "pitch": 51, "duration": 19, "velocity": 64}, {"time": 3246, "pitch": 58, "duration": 2, "velocity": 54}, {"time": 3246, "pitch": 63, "duration": 5, "velocity": 60}, {"time": 3250, "pitch": 58, "duration": 2, "velocity": 44}, {"time": 3254, "pitch": 58, "duration": 2, "velocity": 45}, {"time": 3258, "pitch": 58, "duration": 2, "velocity": 67}, {"time": 3258, "pitch": 67, "duration": 3, "velocity": 65}, {"time": 3262, "pitch": 65, "duration": 4, "velocity": 62}, {"time": 3266, "pitch": 58, "duration": 3, "velocity": 54}, {"time": 3270, "pitch": 44, "duration": 9, "velocity": 59}, {"time": 3270, "pitch": 56, "duration": 4, "velocity": 54}, {"time": 3270, "pitch": 60, "duration": 5, "velocity": 59}, {"time": 3278, "pitch": 56, "duration": 2, "velocity": 62}, {"time": 3278, "pitch": 60, "duration": 3, "velocity": 61}, {"time": 3282, "pitch": 46, "duration": 10, "velocity": 60}, {"time": 3282, "pitch": 58, "duration": 5, "velocity": 59}, {"time": 3282, "pitch": 62, "duration": 5, "velocity": 62}, {"time": 3286, "pitch": 53, "duration": 6, "velocity": 48}, {"time": 3290, "pitch": 58, "duration": 2, "velocity": 56}, {"time": 3290, "pitch": 62, "duration": 2, "velocity": 55}, {"time": 3294, "pitch": 51, "duration": 23, "velocity": 64}, {"time": 3294, "pitch": 58, "duration": 3, "velocity": 59}, {"time": 3294, "pitch": 63, "duration": 6, "velocity": 59}, {"time": 3302, "pitch": 58, "duration": 2, "velocity": 46}, {"time": 3306, "pitch": 58, "duration": 3, "velocity": 61}, {"time": 3306, "pitch": 67, "duration": 4, "velocity": 62}, {"time": 3310, "pitch": 58, "duration": 1, "velocity": 35}, {"time": 3310, "pitch": 63, "duration": 6, "velocity": 49}, {"time": 3314, "pitch": 58, "duration": 3, "velocity": 50}, {"time": 3318, "pitch": 41, "duration": 14, "velocity": 60}, {"time": 3318, "pitch": 60, "duration": 5, "velocity": 59}, {"time": 3318, "pitch": 68, "duration": 6, "velocity": 59}, {"time": 3322, "pitch": 48, "duration": 9, "velocity": 41}, {"time": 3326, "pitch": 60, "duration": 2, "velocity": 59}, {"time": 3330, "pitch": 60, "duration": 4, "velocity": 67}, {"time": 3330, "pitch": 65, "duration": 5, "velocity": 64}, {"time": 3330, "pitch": 70, "duration": 1, "velocity": 47}, {"time": 3338, "pitch": 60, "duration": 2, "velocity": 44}, {"time": 3342, "pitch": 53, "duration": 18, "velocity": 62}, {"time": 3342, "pitch": 60, "duration": 3, "velocity": 59}, {"time": 3342, "pitch": 65, "duration": 5, "velocity": 59}, {"time": 3350, "pitch": 60, "duration": 2, "velocity": 53}, {"time": 3350, "pitch": 68, "duration": 2, "velocity": 53}, {"time": 3354, "pitch": 60, "duration": 2, "velocity": 72}, {"time": 3354, "pitch": 68, "duration": 3, "velocity": 64}, {"time": 3358, "pitch": 65, "duration": 2, "velocity": 65}, {"time": 3362, "pitch": 60, "duration": 1, "velocity": 46}, {"time": 3366, "pitch": 44, "duration": 16, "velocity": 61}, {"time": 3366, "pitch": 56, "duration": 4, "velocity": 59}, {"time": 3366, "pitch": 60, "duration": 4, "velocity": 59}, {"time": 3370, "pitch": 51, "duration": 10, "velocity": 52}, {"time": 3374, "pitch": 56, "duration": 2, "velocity": 57}, {"time": 3378, "pitch": 56, "duration": 4, "velocity": 69}, {"time": 3378, "pitch": 63, "duration": 4, "velocity": 69}, {"time": 3382, "pitch": 60, "duration": 2, "velocity": 60}, {"time": 3386, "pitch": 56, "duration": 1, "velocity": 59}, {"time": 3390, "pitch": 46, "duration": 17, "velocity": 60}, {"time": 3390, "pitch": 58, "duration": 2, "velocity": 59}, {"time": 3390, "pitch": 62, "duration": 2, "velocity": 54}, {"time": 3394, "pitch": 58, "duration": 2, "velocity": 48}, {"time": 3394, "pitch": 65, "duration": 2, "velocity": 58}, {"time": 3398, "pitch": 58, "duration": 2, "velocity": 52}, {"time": 3398, "pitch": 70, "duration": 2, "velocity": 60}, {"time": 3402, "pitch": 58, "duration": 3, "velocity": 67}, {"time": 3402, "pitch": 65, "duration": 4, "velocity": 72}, {"time": 3406, "pitch": 62, "duration": 4, "velocity": 54}, {"time": 3410, "pitch": 58, "duration": 3, "velocity": 58}, {"time": 3414, "pitch": 46, "duration": 15, "velocity": 64}, {"time": 3414, "pitch": 53, "duration": 14, "velocity": 64}, {"time": 3414, "pitch": 58, "duration": 11, "velocity": 55}, {"time": 3414, "pitch": 62, "duration": 8, "velocity": 59}, {"time": 3414, "pitch": 70, "duration": 7, "velocity": 60}, {"time": 3426, "pitch": 58, "duration": 5, "velocity": 65}, {"time": 3426, "pitch": 62, "duration": 6, "velocity": 79}, {"time": 3426, "pitch": 65, "duration": 10, "velocity": 74}, {"time": 3430, "pitch": 53, "duration": 8, "velocity": 58}, {"time": 3434, "pitch": 58, "duration": 3, "velocity": 58}, {"time": 3436, "pitch": 58, "duration": 1, "velocity": 56}, {"time": 3437, "pitch": 46, "duration": 80, "velocity": 58}, {"time": 3437, "pitch": 62, "duration": 80, "velocity": 58}, {"time": 3438, "pitch": 65, "duration": 78, "velocity": 59}, {"time": 3439, "pitch": 70, "duration": 78, "velocity": 51}, {"time": 3534, "pitch": 51, "duration": 21, "velocity": 59}, {"time": 3538, "pitch": 58, "duration": 18, "velocity": 45}, {"time": 3542, "pitch": 65, "duration": 5, "velocity": 52}, {"time": 3546, "pitch": 67, "duration": 22, "velocity": 55}, {"time": 3558, "pitch": 48, "duration": 21, "velocity": 51}, {"time": 3562, "pitch": 55, "duration": 15, "velocity": 48}, {"time": 3566, "pitch": 58, "duration": 17, "velocity": 44}, {"time": 3570, "pitch": 67, "duration": 12, "velocity": 49}, {"time": 3582, "pitch": 44, "duration": 11, "velocity": 55}, {"time": 3586, "pitch": 51, "duration": 8, "velocity": 48}, {"time": 3590, "pitch": 56, "duration": 3, "velocity": 55}, {"time": 3594, "pitch": 46, "duration": 11, "velocity": 54}, {"time": 3594, "pitch": 58, "duration": 11, "velocity": 56}, {"time": 3594, "pitch": 62, "duration": 8, "velocity": 51}, {"time": 3606, "pitch": 51, "duration": 23, "velocity": 57}, {"time": 3610, "pitch": 58, "duration": 19, "velocity": 57}, {"time": 3614, "pitch": 63, "duration": 14, "velocity": 57}, {"time": 3618, "pitch": 67, "duration": 11, "velocity": 55}, {"time": 3630, "pitch": 51, "duration": 23, "velocity": 55}, {"time": 3630, "pitch": 58, "duration": 17, "velocity": 46}, {"time": 3630, "pitch": 63, "duration": 22, "velocity": 52}, {"time": 3650, "pitch": 58, "duration": 5, "velocity": 59}, {"time": 3654, "pitch": 48, "duration": 21, "velocity": 59}, {"time": 3658, "pitch": 55, "duration": 15, "velocity": 45}, {"time": 3662, "pitch": 58, "duration": 13, "velocity": 59}, {"time": 3666, "pitch": 63, "duration": 8, "velocity": 56}, {"time": 3678, "pitch": 44, "duration": 7, "velocity": 58}, {"time": 3678, "pitch": 56, "duration": 6, "velocity": 53}, {"time": 3678, "pitch": 60, "duration": 7, "velocity": 52}, {"time": 3690, "pitch": 46, "duration": 12, "velocity": 51}, {"time": 3690, "pitch": 58, "duration": 11, "velocity": 52}, {"time": 3690, "pitch": 62, "duration": 11, "velocity": 48}, {"time": 3702, "pitch": 39, "duration": 21, "velocity": 52}, {"time": 3702, "pitch": 51, "duration": 21, "velocity": 52}, {"time": 3702, "pitch": 58, "duration": 1, "velocity": 36}, {"time": 3702, "pitch": 63, "duration": 5, "velocity": 58}, {"time": 3706, "pitch": 58, "duration": 6, "velocity": 53}, {"time": 3710, "pitch": 63, "duration": 2, "velocity": 59}, {"time": 3714, "pitch": 58, "duration": 2, "velocity": 61}, {"time": 3714, "pitch": 67, "duration": 3, "velocity": 67}, {"time": 3718, "pitch": 65, "duration": 5, "velocity": 69}, {"time": 3722, "pitch": 58, "duration": 4, "velocity": 58}, {"time": 3726, "pitch": 51, "duration": 18, "velocity": 53}, {"time": 3726, "pitch": 58, "duration": 10, "velocity": 46}, {"time": 3726, "pitch": 63, "duration": 9, "velocity": 46}, {"time": 3738, "pitch": 67, "duration": 6, "velocity": 63}, {"time": 3742, "pitch": 63, "duration": 5, "velocity": 54}, {"time": 3746, "pitch": 58, "duration": 3, "velocity": 54}, {"time": 3750, "pitch": 48, "duration": 17, "velocity": 54}, {"time": 3750, "pitch": 58, "duration": 8, "velocity": 23}, {"time": 3750, "pitch": 63, "duration": 9, "velocity": 52}, {"time": 3758, "pitch": 55, "duration": 8, "velocity": 42}, {"time": 3762, "pitch": 60, "duration": 4, "velocity": 51}, {"time": 3762, "pitch": 67, "duration": 4, "velocity": 48}, {"time": 3774, "pitch": 44, "duration": 19, "velocity": 57}, {"time": 3774, "pitch": 56, "duration": 6, "velocity": 49}, {"time": 3774, "pitch": 60, "duration": 9, "velocity": 52}, {"time": 3778, "pitch": 51, "duration": 14, "velocity": 45}, {"time": 3782, "pitch": 56, "duration": 2, "velocity": 53}, {"time": 3786, "pitch": 56, "duration": 6, "velocity": 55}, {"time": 3786, "pitch": 60, "duration": 6, "velocity": 47}, {"time": 3798, "pitch": 51, "duration": 21, "velocity": 53}, {"time": 3798, "pitch": 58, "duration": 3, "velocity": 48}, {"time": 3798, "pitch": 63, "duration": 5, "velocity": 49}, {"time": 3802, "pitch": 58, "duration": 7, "velocity": 48}, {"time": 3806, "pitch": 63, "duration": 3, "velocity": 52}, {"time": 3810, "pitch": 65, "duration": 4, "velocity": 64}, {"time": 3814, "pitch": 63, "duration": 4, "velocity": 50}, {"time": 3818, "pitch": 58, "duration": 2, "velocity": 45}, {"time": 3822, "pitch": 51, "duration": 21, "velocity": 54}, {"time": 3822, "pitch": 58, "duration": 7, "velocity": 51}, {"time": 3822, "pitch": 67, "duration": 11, "velocity": 48}, {"time": 3830, "pitch": 58, "duration": 2, "velocity": 44}, {"time": 3834, "pitch": 58, "duration": 7, "velocity": 52}, {"time": 3834, "pitch": 63, "duration": 8, "velocity": 59}, {"time": 3846, "pitch": 48, "duration": 16, "velocity": 54}, {"time": 3846, "pitch": 60, "duration": 6, "velocity": 48}, {"time": 3846, "pitch": 63, "duration": 9, "velocity": 53}, {"time": 3850, "pitch": 55, "duration": 10, "velocity": 43}, {"time": 3854, "pitch": 60, "duration": 2, "velocity": 58}, {"time": 3858, "pitch": 60, "duration": 4, "velocity": 58}, {"time": 3858, "pitch": 67, "duration": 4, "velocity": 52}, {"time": 3868, "pitch": 56, "duration": 3, "velocity": 43}, {"time": 3869, "pitch": 60, "duration": 2, "velocity": 47}, {"time": 3870, "pitch": 44, "duration": 11, "velocity": 58}, {"time": 3870, "pitch": 63, "duration": 9, "velocity": 56}, {"time": 3874, "pitch": 51, "duration": 8, "velocity": 47}, {"time": 3879, "pitch": 56, "duration": 2, "velocity": 64}, {"time": 3884, "pitch": 58, "duration": 7, "velocity": 49}, {"time": 3884, "pitch": 62, "duration": 7, "velocity": 47}, {"time": 3884, "pitch": 46, "duration": 14, "velocity": 58}, {"time": 3890, "pitch": 53, "duration": 7, "velocity": 45}, {"time": 3896, "pitch": 58, "duration": 43, "velocity": 57}, {"time": 3938, "pitch": 39, "duration": 2, "velocity": 62}, {"time": 3943, "pitch": 51, "duration": 40, "velocity": 58}, {"time": 3947, "pitch": 58, "duration": 35, "velocity": 48}, {"time": 3949, "pitch": 63, "duration": 3, "velocity": 49}, {"time": 3951, "pitch": 65, "duration": 3, "velocity": 54}, {"time": 3954, "pitch": 67, "duration": 1, "velocity": 54}, {"time": 3957, "pitch": 70, "duration": 2, "velocity": 49}, {"time": 3960, "pitch": 75, "duration": 3, "velocity": 58}, {"time": 3964, "pitch": 77, "duration": 2, "velocity": 54}, {"time": 3969, "pitch": 82, "duration": 3, "velocity": 58}, {"time": 3974, "pitch": 79, "duration": 6, "velocity": 42}, {"time": 3980, "pitch": 77, "duration": 3, "velocity": 47}, {"time": 3988, "pitch": 51, "duration": 12, "velocity": 21}, {"time": 3989, "pitch": 58, "duration": 11, "velocity": 28}, {"time": 3990, "pitch": 70, "duration": 12, "velocity": 45}, {"time": 3992, "pitch": 75, "duration": 10, "velocity": 48}, {"time": 3993, "pitch": 79, "duration": 9, "velocity": 42}], "annotations": [{"time": 11, "annotation": {"number": 64, "value": 127}, "group": "control_change"}, {"time": 30, "annotation": {"number": 64, "value": 0}, "group": "control_change"}, {"time": 32, "annotation": {"number": 64, "value": 127}, "group": "control_change"}, {"time": 54, "annotation": {"number": 64, "value": 0}, "group": "control_change"}, {"time": 59, "annotation": {"number": 64, "value": 127}, "group": "control_change"}, {"time": 77, "annotation": {"number": 64, "value": 0}, "group": "control_change"}, {"time": 80, "annotation": {"number": 64, "value": 127}, "group": "control_change"}, {"time": 102, "annotation": {"number": 64, "value": 0}, "group": "control_change"}, {"time": 105, "annotation": {"number": 64, "value": 127}, "group": "control_change"}, {"time": 125, "annotation": {"number": 64, "value": 0}, "group": "control_change"}, {"time": 130, "annotation": {"number": 64, "value": 127}, "group": "control_change"}, {"time": 150, "annotation": {"number": 64, "value": 0}, "group": "control_change"}, {"time": 152, "annotation": {"number": 64, "value": 127}, "group": "control_change"}, {"time": 161, "annotation": {"number": 64, "value": 0}, "group": "control_change"}, {"time": 163, "annotation": {"number": 64, "value": 127}, "group": "control_change"}, {"time": 172, "annotation": {"number": 64, "value": 0}, "group": "control_change"}, {"time": 181, "annotation": {"number": 64, "value": 127}, "group": "control_change"}, {"time": 197, "annotation": {"number": 64, "value": 0}, "group": "control_change"}, {"time": 199, "annotation": {"number": 64, "value": 127}, "group": "control_change"}, {"time": 222, "annotation": {"number": 64, "value": 0}, "group": "control_change"}, {"time": 225, "annotation": {"number": 64, "value": 127}, "group": "control_change"}, {"time": 246, "annotation": {"number": 64, "value": 0}, "group": "control_change"}, {"time": 251, "annotation": {"number": 64, "value": 127}, "group": "control_change"}, {"time": 271, "annotation": {"number": 64, "value": 0}, "group": "control_change"}, {"time": 273, "annotation": {"number": 64, "value": 127}, "group": "control_change"}, {"time": 293, "annotation": {"number": 64, "value": 0}, "group": "control_change"}, {"time": 295, "annotation": {"number": 64, "value": 127}, "group": "control_change"}, {"time": 317, "annotation": {"number": 64, "value": 0}, "group": "control_change"}, {"time": 324, "annotation": {"number": 64, "value": 127}, "group": "control_change"}, {"time": 341, "annotation": {"number": 64, "value": 0}, "group": "control_change"}, {"time": 343, "annotation": {"number": 64, "value": 127}, "group": "control_change"}, {"time": 354, "annotation": {"number": 64, "value": 0}, "group": "control_change"}, {"time": 356, "annotation": {"number": 64, "value": 127}, "group": "control_change"}, {"time": 365, "annotation": {"number": 64, "value": 0}, "group": "control_change"}, {"time": 369, "annotation": {"number": 64, "value": 127}, "group": "control_change"}, {"time": 390, "annotation": {"number": 64, "value": 0}, "group": "control_change"}, {"time": 415, "annotation": {"number": 64, "value": 127}, "group": "control_change"}, {"time": 437, "annotation": {"number": 64, "value": 0}, "group": "control_change"}, {"time": 440, "annotation": {"number": 64, "value": 127}, "group": "control_change"}, {"time": 461, "annotation": {"number": 64, "value": 0}, "group": "control_change"}, {"time": 463, "annotation": {"number": 64, "value": 127}, "group": "control_change"}, {"time": 485, "annotation": {"number": 64, "value": 0}, "group": "control_change"}, {"time": 488, "annotation": {"number": 64, "value": 127}, "group": "control_change"}, {"time": 511, "annotation": {"number": 64, "value": 0}, "group": "control_change"}, {"time": 514, "annotation": {"number": 64, "value": 127}, "group": "control_change"}, {"time": 533, "annotation": {"number": 64, "value": 0}, "group": "control_change"}, {"time": 538, "annotation": {"number": 64, "value": 127}, "group": "control_change"}, {"time": 559, "annotation": {"number": 64, "value": 0}, "group": "control_change"}, {"time": 562, "annotation": {"number": 64, "value": 127}, "group": "control_change"}, {"time": 579, "annotation": {"number": 64, "value": 0}, "group": "control_change"}, {"time": 586, "annotation": {"number": 64, "value": 127}, "group": "control_change"}, {"time": 606, "annotation": {"number": 64, "value": 0}, "group": "control_change"}, {"time": 610, "annotation": {"number": 64, "value": 127}, "group": "control_change"}, {"time": 630, "annotation": {"number": 64, "value": 0}, "group": "control_change"}, {"time": 635, "annotation": {"number": 64, "value": 127}, "group": "control_change"}, {"time": 654, "annotation": {"number": 64, "value": 0}, "group": "control_change"}, {"time": 660, "annotation": {"number": 64, "value": 127}, "group": "control_change"}, {"time": 676, "annotation": {"number": 64, "value": 0}, "group": "control_change"}, {"time": 685, "annotation": {"number": 64, "value": 127}, "group": "control_change"}, {"time": 701, "annotation": {"number": 64, "value": 0}, "group": "control_change"}, {"time": 706, "annotation": {"number": 64, "value": 127}, "group": "control_change"}, {"time": 725, "annotation": {"number": 64, "value": 0}, "group": "control_change"}, {"time": 731, "annotation": {"number": 64, "value": 127}, "group": "control_change"}, {"time": 750, "annotation": {"number": 64, "value": 0}, "group": "control_change"}, {"time": 753, "annotation": {"number": 64, "value": 127}, "group": "control_change"}, {"time": 773, "annotation": {"number": 64, "value": 0}, "group": "control_change"}, {"time": 778, "annotation": {"number": 64, "value": 127}, "group": "control_change"}, {"time": 797, "annotation": {"number": 64, "value": 0}, "group": "control_change"}, {"time": 823, "annotation": {"number": 64, "value": 127}, "group": "control_change"}, {"time": 845, "annotation": {"number": 64, "value": 0}, "group": "control_change"}, {"time": 848, "annotation": {"number": 64, "value": 127}, "group": "control_change"}, {"time": 869, "annotation": {"number": 64, "value": 0}, "group": "control_change"}, {"time": 871, "annotation": {"number": 64, "value": 127}, "group": "control_change"}, {"time": 893, "annotation": {"number": 64, "value": 0}, "group": "control_change"}, {"time": 896, "annotation": {"number": 64, "value": 127}, "group": "control_change"}, {"time": 919, "annotation": {"number": 64, "value": 0}, "group": "control_change"}, {"time": 922, "annotation": {"number": 64, "value": 127}, "group": "control_change"}, {"time": 941, "annotation": {"number": 64, "value": 0}, "group": "control_change"}, {"time": 946, "annotation": {"number": 64, "value": 127}, "group": "control_change"}, {"time": 967, "annotation": {"number": 64, "value": 0}, "group": "control_change"}, {"time": 970, "annotation": {"number": 64, "value": 127}, "group": "control_change"}, {"time": 987, "annotation": {"number": 64, "value": 0}, "group": "control_change"}, {"time": 994, "annotation": {"number": 64, "value": 127}, "group": "control_change"}, {"time": 1014, "annotation": {"number": 64, "value": 0}, "group": "control_change"}, {"time": 1018, "annotation": {"number": 64, "value": 127}, "group": "control_change"}, {"time": 1038, "annotation": {"number": 64, "value": 0}, "group": "control_change"}, {"time": 1043, "annotation": {"number": 64, "value": 127}, "group": "control_change"}, {"time": 1062, "annotation": {"number": 64, "value": 0}, "group": "control_change"}, {"time": 1068, "annotation": {"number": 64, "value": 127}, "group": "control_change"}, {"time": 1084, "annotation": {"number": 64, "value": 0}, "group": "control_change"}, {"time": 1093, "annotation": {"number": 64, "value": 127}, "group": "control_change"}, {"time": 1109, "annotation": {"number": 64, "value": 0}, "group": "control_change"}, {"time": 1114, "annotation": {"number": 64, "value": 127}, "group": "control_change"}, {"time": 1133, "annotation": {"number": 64, "value": 0}, "group": "control_change"}, {"time": 1139, "annotation": {"number": 64, "value": 127}, "group": "control_change"}, {"time": 1158, "annotation": {"number": 64, "value": 0}, "group": "control_change"}, {"time": 1161, "annotation": {"number": 64, "value": 127}, "group": "control_change"}, {"time": 1181, "annotation": {"number": 64, "value": 0}, "group": "control_change"}, {"time": 1186, "annotation": {"number": 64, "value": 127}, "group": "control_change"}, {"time": 1205, "annotation": {"number": 64, "value": 0}, "group": "control_change"}, {"time": 1207, "annotation": {"number": 64, "value": 127}, "group": "control_change"}, {"time": 1230, "annotation": {"number": 64, "value": 0}, "group": "control_change"}, {"time": 1233, "annotation": {"number": 64, "value": 127}, "group": "control_change"}, {"time": 1254, "annotation": {"number": 64, "value": 0}, "group": "control_change"}, {"time": 1256, "annotation": {"number": 64, "value": 127}, "group": "control_change"}, {"time": 1264, "annotation": {"number": 64, "value": 0}, "group": "control_change"}, {"time": 1270, "annotation": {"number": 64, "value": 127}, "group": "control_change"}, {"time": 1278, "annotation": {"number": 64, "value": 0}, "group": "control_change"}, {"time": 1282, "annotation": {"number": 64, "value": 127}, "group": "control_change"}, {"time": 1301, "annotation": {"number": 64, "value": 0}, "group": "control_change"}, {"time": 1303, "annotation": {"number": 64, "value": 127}, "group": "control_change"}, {"time": 1326, "annotation": {"number": 64, "value": 0}, "group": "control_change"}, {"time": 1329, "annotation": {"number": 64, "value": 127}, "group": "control_change"}, {"time": 1350, "annotation": {"number": 64, "value": 0}, "group": "control_change"}, {"time": 1352, "annotation": {"number": 64, "value": 127}, "group": "control_change"}, {"time": 1361, "annotation": {"number": 64, "value": 0}, "group": "control_change"}, {"time": 1363, "annotation": {"number": 64, "value": 127}, "group": "control_change"}, {"time": 1373, "annotation": {"number": 64, "value": 0}, "group": "control_change"}, {"time": 1375, "annotation": {"number": 64, "value": 127}, "group": "control_change"}, {"time": 1398, "annotation": {"number": 64, "value": 0}, "group": "control_change"}, {"time": 1401, "annotation": {"number": 64, "value": 127}, "group": "control_change"}, {"time": 1409, "annotation": {"number": 64, "value": 0}, "group": "control_change"}, {"time": 1412, "annotation": {"number": 64, "value": 127}, "group": "control_change"}, {"time": 1421, "annotation": {"number": 64, "value": 0}, "group": "control_change"}, {"time": 1424, "annotation": {"number": 64, "value": 127}, "group": "control_change"}, {"time": 1447, "annotation": {"number": 64, "value": 127}, "group": "control_change"}, {"time": 1457, "annotation": {"number": 64, "value": 0}, "group": "control_change"}, {"time": 1461, "annotation": {"number": 64, "value": 127}, "group": "control_change"}, {"time": 1469, "annotation": {"number": 64, "value": 0}, "group": "control_change"}, {"time": 1473, "annotation": {"number": 64, "value": 127}, "group": "control_change"}, {"time": 1493, "annotation": {"number": 64, "value": 0}, "group": "control_change"}, {"time": 1495, "annotation": {"number": 64, "value": 127}, "group": "control_change"}, {"time": 1530, "annotation": {"number": 64, "value": 0}, "group": "control_change"}, {"time": 1530, "annotation": {"number": 64, "value": 127}, "group": "control_change"}, {"time": 1542, "annotation": {"number": 64, "value": 0}, "group": "control_change"}, {"time": 1545, "annotation": {"number": 64, "value": 127}, "group": "control_change"}, {"time": 1565, "annotation": {"number": 64, "value": 0}, "group": "control_change"}, {"time": 1567, "annotation": {"number": 64, "value": 127}, "group": "control_change"}, {"time": 1589, "annotation": {"number": 64, "value": 0}, "group": "control_change"}, {"time": 1590, "annotation": {"number": 64, "value": 127}, "group": "control_change"}, {"time": 1612, "annotation": {"number": 64, "value": 0}, "group": "control_change"}, {"time": 1615, "annotation": {"number": 64, "value": 127}, "group": "control_change"}, {"time": 1638, "annotation": {"number": 64, "value": 0}, "group": "control_change"}, {"time": 1641, "annotation": {"number": 64, "value": 127}, "group": "control_change"}, {"time": 1662, "annotation": {"number": 64, "value": 0}, "group": "control_change"}, {"time": 1664, "annotation": {"number": 64, "value": 127}, "group": "control_change"}, {"time": 1672, "annotation": {"number": 64, "value": 0}, "group": "control_change"}, {"time": 1678, "annotation": {"number": 64, "value": 127}, "group": "control_change"}, {"time": 1686, "annotation": {"number": 64, "value": 0}, "group": "control_change"}, {"time": 1690, "annotation": {"number": 64, "value": 127}, "group": "control_change"}, {"time": 1709, "annotation": {"number": 64, "value": 0}, "group": "control_change"}, {"time": 1711, "annotation": {"number": 64, "value": 127}, "group": "control_change"}, {"time": 1734, "annotation": {"number": 64, "value": 0}, "group": "control_change"}, {"time": 1737, "annotation": {"number": 64, "value": 127}, "group": "control_change"}, {"time": 1758, "annotation": {"number": 64, "value": 0}, "group": "control_change"}, {"time": 1760, "annotation": {"number": 64, "value": 127}, "group": "control_change"}, {"time": 1769, "annotation": {"number": 64, "value": 0}, "group": "control_change"}, {"time": 1771, "annotation": {"number": 64, "value": 127}, "group": "control_change"}, {"time": 1781, "annotation": {"number": 64, "value": 0}, "group": "control_change"}, {"time": 1783, "annotation": {"number": 64, "value": 127}, "group": "control_change"}, {"time": 1806, "annotation": {"number": 64, "value": 0}, "group": "control_change"}, {"time": 1809, "annotation": {"number": 64, "value": 127}, "group": "control_change"}, {"time": 1817, "annotation": {"number": 64, "value": 0}, "group": "control_change"}, {"time": 1820, "annotation": {"number": 64, "value": 127}, "group": "control_change"}, {"time": 1829, "annotation": {"number": 64, "value": 0}, "group": "control_change"}, {"time": 1832, "annotation": {"number": 64, "value": 127}, "group": "control_change"}, {"time": 1855, "annotation": {"number": 64, "value": 127}, "group": "control_change"}, {"time": 1865, "annotation": {"number": 64, "value": 0}, "group": "control_change"}, {"time": 1869, "annotation": {"number": 64, "value": 127}, "group": "control_change"}, {"time": 1877, "annotation": {"number": 64, "value": 0}, "group": "control_change"}, {"time": 1881, "annotation": {"number": 64, "value": 127}, "group": "control_change"}, {"time": 1901, "annotation": {"number": 64, "value": 0}, "group": "control_change"}, {"time": 1903, "annotation": {"number": 64, "value": 127}, "group": "control_change"}, {"time": 1938, "annotation": {"number": 64, "value": 0}, "group": "control_change"}, {"time": 1938, "annotation": {"number": 64, "value": 127}, "group": "control_change"}, {"time": 1950, "annotation": {"number": 64, "value": 0}, "group": "control_change"}, {"time": 1953, "annotation": {"number": 64, "value": 127}, "group": "control_change"}, {"time": 1973, "annotation": {"number": 64, "value": 0}, "group": "control_change"}, {"time": 1975, "annotation": {"number": 64, "value": 127}, "group": "control_change"}, {"time": 1997, "annotation": {"number": 64, "value": 0}, "group": "control_change"}, {"time": 1998, "annotation": {"number": 64, "value": 127}, "group": "control_change"}, {"time": 2020, "annotation": {"number": 64, "value": 0}, "group": "control_change"}, {"time": 2024, "annotation": {"number": 64, "value": 127}, "group": "control_change"}, {"time": 2046, "annotation": {"number": 64, "value": 0}, "group": "control_change"}, {"time": 2048, "annotation": {"number": 64, "value": 127}, "group": "control_change"}, {"time": 2069, "annotation": {"number": 64, "value": 0}, "group": "control_change"}, {"time": 2072, "annotation": {"number": 64, "value": 127}, "group": "control_change"}, {"time": 2094, "annotation": {"number": 64, "value": 0}, "group": "control_change"}, {"time": 2098, "annotation": {"number": 64, "value": 127}, "group": "control_change"}, {"time": 2115, "annotation": {"number": 64, "value": 0}, "group": "control_change"}, {"time": 2118, "annotation": {"number": 64, "value": 127}, "group": "control_change"}, {"time": 2131, "annotation": {"number": 64, "value": 0}, "group": "control_change"}, {"time": 2137, "annotation": {"number": 64, "value": 127}, "group": "control_change"}, {"time": 2141, "annotation": {"number": 64, "value": 0}, "group": "control_change"}, {"time": 2142, "annotation": {"number": 64, "value": 127}, "group": "control_change"}, {"time": 2165, "annotation": {"number": 64, "value": 0}, "group": "control_change"}, {"time": 2166, "annotation": {"number": 64, "value": 127}, "group": "control_change"}, {"time": 2189, "annotation": {"number": 64, "value": 0}, "group": "control_change"}, {"time": 2194, "annotation": {"number": 64, "value": 127}, "group": "control_change"}, {"time": 2213, "annotation": {"number": 64, "value": 0}, "group": "control_change"}, {"time": 2215, "annotation": {"number": 64, "value": 127}, "group": "control_change"}, {"time": 2237, "annotation": {"number": 64, "value": 0}, "group": "control_change"}, {"time": 2241, "annotation": {"number": 64, "value": 127}, "group": "control_change"}, {"time": 2262, "annotation": {"number": 64, "value": 0}, "group": "control_change"}, {"time": 2262, "annotation": {"number": 64, "value": 127}, "group": "control_change"}, {"time": 2273, "annotation": {"number": 64, "value": 0}, "group": "control_change"}, {"time": 2278, "annotation": {"number": 64, "value": 127}, "group": "control_change"}, {"time": 2285, "annotation": {"number": 64, "value": 0}, "group": "control_change"}, {"time": 2291, "annotation": {"number": 64, "value": 127}, "group": "control_change"}, {"time": 2311, "annotation": {"number": 64, "value": 0}, "group": "control_change"}, {"time": 2314, "annotation": {"number": 64, "value": 127}, "group": "control_change"}, {"time": 2334, "annotation": {"number": 64, "value": 0}, "group": "control_change"}, {"time": 2336, "annotation": {"number": 64, "value": 127}, "group": "control_change"}, {"time": 2345, "annotation": {"number": 64, "value": 0}, "group": "control_change"}, {"time": 2350, "annotation": {"number": 64, "value": 127}, "group": "control_change"}, {"time": 2357, "annotation": {"number": 64, "value": 0}, "group": "control_change"}, {"time": 2361, "annotation": {"number": 64, "value": 127}, "group": "control_change"}, {"time": 2381, "annotation": {"number": 64, "value": 0}, "group": "control_change"}, {"time": 2383, "annotation": {"number": 64, "value": 127}, "group": "control_change"}, {"time": 2404, "annotation": {"number": 64, "value": 0}, "group": "control_change"}, {"time": 2407, "annotation": {"number": 64, "value": 127}, "group": "control_change"}, {"time": 2429, "annotation": {"number": 64, "value": 0}, "group": "control_change"}, {"time": 2431, "annotation": {"number": 64, "value": 127}, "group": "control_change"}, {"time": 2454, "annotation": {"number": 64, "value": 0}, "group": "control_change"}, {"time": 2456, "annotation": {"number": 64, "value": 127}, "group": "control_change"}, {"time": 2463, "annotation": {"number": 64, "value": 0}, "group": "control_change"}, {"time": 2468, "annotation": {"number": 64, "value": 127}, "group": "control_change"}, {"time": 2476, "annotation": {"number": 64, "value": 0}, "group": "control_change"}, {"time": 2478, "annotation": {"number": 64, "value": 127}, "group": "control_change"}, {"time": 2500, "annotation": {"number": 64, "value": 0}, "group": "control_change"}, {"time": 2502, "annotation": {"number": 64, "value": 127}, "group": "control_change"}, {"time": 2525, "annotation": {"number": 64, "value": 0}, "group": "control_change"}, {"time": 2527, "annotation": {"number": 64, "value": 127}, "group": "control_change"}, {"time": 2550, "annotation": {"number": 64, "value": 127}, "group": "control_change"}, {"time": 2560, "annotation": {"number": 64, "value": 0}, "group": "control_change"}, {"time": 2564, "annotation": {"number": 64, "value": 127}, "group": "control_change"}, {"time": 2572, "annotation": {"number": 64, "value": 0}, "group": "control_change"}, {"time": 2574, "annotation": {"number": 64, "value": 127}, "group": "control_change"}, {"time": 2598, "annotation": {"number": 64, "value": 0}, "group": "control_change"}, {"time": 2601, "annotation": {"number": 64, "value": 127}, "group": "control_change"}, {"time": 2609, "annotation": {"number": 64, "value": 0}, "group": "control_change"}, {"time": 2612, "annotation": {"number": 64, "value": 127}, "group": "control_change"}, {"time": 2620, "annotation": {"number": 64, "value": 0}, "group": "control_change"}, {"time": 2624, "annotation": {"number": 64, "value": 127}, "group": "control_change"}, {"time": 2646, "annotation": {"number": 64, "value": 0}, "group": "control_change"}, {"time": 2648, "annotation": {"number": 64, "value": 127}, "group": "control_change"}, {"time": 2657, "annotation": {"number": 64, "value": 0}, "group": "control_change"}, {"time": 2660, "annotation": {"number": 64, "value": 127}, "group": "control_change"}, {"time": 2669, "annotation": {"number": 64, "value": 0}, "group": "control_change"}, {"time": 2673, "annotation": {"number": 64, "value": 127}, "group": "control_change"}, {"time": 2694, "annotation": {"number": 64, "value": 0}, "group": "control_change"}, {"time": 2695, "annotation": {"number": 64, "value": 127}, "group": "control_change"}, {"time": 2717, "annotation": {"number": 64, "value": 0}, "group": "control_change"}, {"time": 2719, "annotation": {"number": 64, "value": 127}, "group": "control_change"}, {"time": 2742, "annotation": {"number": 64, "value": 0}, "group": "control_change"}, {"time": 2745, "annotation": {"number": 64, "value": 127}, "group": "control_change"}, {"time": 2764, "annotation": {"number": 64, "value": 0}, "group": "control_change"}, {"time": 2767, "annotation": {"number": 64, "value": 127}, "group": "control_change"}, {"time": 2789, "annotation": {"number": 64, "value": 0}, "group": "control_change"}, {"time": 2790, "annotation": {"number": 64, "value": 127}, "group": "control_change"}, {"time": 2812, "annotation": {"number": 64, "value": 0}, "group": "control_change"}, {"time": 2974, "annotation": {"number": 64, "value": 127}, "group": "control_change"}, {"time": 2982, "annotation": {"number": 64, "value": 0}, "group": "control_change"}, {"time": 2984, "annotation": {"number": 64, "value": 127}, "group": "control_change"}, {"time": 2993, "annotation": {"number": 64, "value": 0}, "group": "control_change"}, {"time": 3012, "annotation": {"number": 64, "value": 127}, "group": "control_change"}, {"time": 3030, "annotation": {"number": 64, "value": 0}, "group": "control_change"}, {"time": 3031, "annotation": {"number": 64, "value": 127}, "group": "control_change"}, {"time": 3053, "annotation": {"number": 64, "value": 0}, "group": "control_change"}, {"time": 3055, "annotation": {"number": 64, "value": 127}, "group": "control_change"}, {"time": 3078, "annotation": {"number": 64, "value": 0}, "group": "control_change"}, {"time": 3080, "annotation": {"number": 64, "value": 127}, "group": "control_change"}, {"time": 3087, "annotation": {"number": 64, "value": 0}, "group": "control_change"}, {"time": 3092, "annotation": {"number": 64, "value": 127}, "group": "control_change"}, {"time": 3100, "annotation": {"number": 64, "value": 0}, "group": "control_change"}, {"time": 3102, "annotation": {"number": 64, "value": 127}, "group": "control_change"}, {"time": 3124, "annotation": {"number": 64, "value": 0}, "group": "control_change"}, {"time": 3126, "annotation": {"number": 64, "value": 127}, "group": "control_change"}, {"time": 3149, "annotation": {"number": 64, "value": 0}, "group": "control_change"}, {"time": 3151, "annotation": {"number": 64, "value": 127}, "group": "control_change"}, {"time": 3174, "annotation": {"number": 64, "value": 127}, "group": "control_change"}, {"time": 3184, "annotation": {"number": 64, "value": 0}, "group": "control_change"}, {"time": 3188, "annotation": {"number": 64, "value": 127}, "group": "control_change"}, {"time": 3196, "annotation": {"number": 64, "value": 0}, "group": "control_change"}, {"time": 3198, "annotation": {"number": 64, "value": 127}, "group": "control_change"}, {"time": 3222, "annotation": {"number": 64, "value": 0}, "group": "control_change"}, {"time": 3225, "annotation": {"number": 64, "value": 127}, "group": "control_change"}, {"time": 3233, "annotation": {"number": 64, "value": 0}, "group": "control_change"}, {"time": 3236, "annotation": {"number": 64, "value": 127}, "group": "control_change"}, {"time": 3244, "annotation": {"number": 64, "value": 0}, "group": "control_change"}, {"time": 3248, "annotation": {"number": 64, "value": 127}, "group": "control_change"}, {"time": 3270, "annotation": {"number": 64, "value": 0}, "group": "control_change"}, {"time": 3272, "annotation": {"number": 64, "value": 127}, "group": "control_change"}, {"time": 3281, "annotation": {"number": 64, "value": 0}, "group": "control_change"}, {"time": 3284, "annotation": {"number": 64, "value": 127}, "group": "control_change"}, {"time": 3293, "annotation": {"number": 64, "value": 0}, "group": "control_change"}, {"time": 3297, "annotation": {"number": 64, "value": 127}, "group": "control_change"}, {"time": 3318, "annotation": {"number": 64, "value": 0}, "group": "control_change"}, {"time": 3319, "annotation": {"number": 64, "value": 127}, "group": "control_change"}, {"time": 3341, "annotation": {"number": 64, "value": 0}, "group": "control_change"}, {"time": 3343, "annotation": {"number": 64, "value": 127}, "group": "control_change"}, {"time": 3366, "annotation": {"number": 64, "value": 0}, "group": "control_change"}, {"time": 3369, "annotation": {"number": 64, "value": 127}, "group": "control_change"}, {"time": 3388, "annotation": {"number": 64, "value": 0}, "group": "control_change"}, {"time": 3391, "annotation": {"number": 64, "value": 127}, "group": "control_change"}, {"time": 3413, "annotation": {"number": 64, "value": 0}, "group": "control_change"}, {"time": 3414, "annotation": {"number": 64, "value": 127}, "group": "control_change"}, {"time": 3436, "annotation": {"number": 64, "value": 0}, "group": "control_change"}, {"time": 3670, "annotation": {"number": 64, "value": 127}, "group": "control_change"}, {"time": 3678, "annotation": {"number": 64, "value": 0}, "group": "control_change"}, {"time": 3680, "annotation": {"number": 64, "value": 127}, "group": "control_change"}, {"time": 3689, "annotation": {"number": 64, "value": 0}, "group": "control_change"}, {"time": 3708, "annotation": {"number": 64, "value": 127}, "group": "control_change"}, {"time": 3726, "annotation": {"number": 64, "value": 0}, "group": "control_change"}, {"time": 3727, "annotation": {"number": 64, "value": 127}, "group": "control_change"}, {"time": 3750, "annotation": {"number": 64, "value": 0}, "group": "control_change"}, {"time": 3753, "annotation": {"number": 64, "value": 127}, "group": "control_change"}, {"time": 3774, "annotation": {"number": 64, "value": 0}, "group": "control_change"}, {"time": 3779, "annotation": {"number": 64, "value": 127}, "group": "control_change"}, {"time": 3799, "annotation": {"number": 64, "value": 0}, "group": "control_change"}, {"time": 3801, "annotation": {"number": 64, "value": 127}, "group": "control_change"}, {"time": 3821, "annotation": {"number": 64, "value": 0}, "group": "control_change"}, {"time": 3823, "annotation": {"number": 64, "value": 127}, "group": "control_change"}, {"time": 3845, "annotation": {"number": 64, "value": 0}, "group": "control_change"}, {"time": 3852, "annotation": {"number": 64, "value": 127}, "group": "control_change"}, {"time": 3869, "annotation": {"number": 64, "value": 0}, "group": "control_change"}, {"time": 3870, "annotation": {"number": 64, "value": 127}, "group": "control_change"}, {"time": 3885, "annotation": {"number": 64, "value": 0}, "group": "control_change"}, {"time": 3887, "annotation": {"number": 64, "value": 127}, "group": "control_change"}, {"time": 3936, "annotation": {"number": 64, "value": 0}, "group": "control_change"}, {"time": 3938, "annotation": {"number": 64, "value": 127}, "group": "control_change"}]}]}