{"metadata": {"schema_version": "0.2", "title": "None", "source_filename": "413.mid", "source_format": "midi"}, "resolution": 12, "tempos": [{"time": 0, "qpm": 56.000029866682596}, {"time": 2722, "qpm": 47.75001910000764}, {"time": 2731, "qpm": 44.000011733336464}, {"time": 2739, "qpm": 41.25001289062903}, {"time": 2747, "qpm": 56.000029866682596}], "time_signatures": [{"time": 0, "numerator": 1, "denominator": 4}], "tracks": [{"program": 0, "is_drum": false, "name": "MELODY", "notes": [{"time": 189, "pitch": 80, "duration": 3, "velocity": 92}, {"time": 192, "pitch": 78, "duration": 3, "velocity": 89}, {"time": 195, "pitch": 77, "duration": 3, "velocity": 92}, {"time": 198, "pitch": 73, "duration": 2, "velocity": 92}, {"time": 201, "pitch": 75, "duration": 5, "velocity": 99}, {"time": 207, "pitch": 77, "duration": 2, "velocity": 90}, {"time": 210, "pitch": 73, "duration": 14, "velocity": 90}, {"time": 237, "pitch": 80, "duration": 2, "velocity": 89}, {"time": 240, "pitch": 78, "duration": 3, "velocity": 82}, {"time": 243, "pitch": 77, "duration": 3, "velocity": 91}, {"time": 246, "pitch": 73, "duration": 3, "velocity": 90}, {"time": 249, "pitch": 75, "duration": 5, "velocity": 94}, {"time": 255, "pitch": 77, "duration": 2, "velocity": 89}, {"time": 258, "pitch": 77, "duration": 18, "velocity": 89}, {"time": 285, "pitch": 80, "duration": 2, "velocity": 89}, {"time": 288, "pitch": 78, "duration": 3, "velocity": 86}, {"time": 291, "pitch": 77, "duration": 3, "velocity": 92}, {"time": 294, "pitch": 73, "duration": 2, "velocity": 89}, {"time": 297, "pitch": 75, "duration": 5, "velocity": 94}, {"time": 303, "pitch": 77, "duration": 2, "velocity": 88}, {"time": 306, "pitch": 73, "duration": 10, "velocity": 90}, {"time": 321, "pitch": 75, "duration": 5, "velocity": 91}, {"time": 327, "pitch": 77, "duration": 2, "velocity": 89}, {"time": 330, "pitch": 73, "duration": 8, "velocity": 89}, {"time": 339, "pitch": 68, "duration": 5, "velocity": 91}, {"time": 345, "pitch": 75, "duration": 5, "velocity": 92}, {"time": 351, "pitch": 77, "duration": 2, "velocity": 88}, {"time": 354, "pitch": 77, "duration": 21, "velocity": 88}, {"time": 381, "pitch": 80, "duration": 3, "velocity": 90}, {"time": 384, "pitch": 78, "duration": 3, "velocity": 84}, {"time": 387, "pitch": 77, "duration": 3, "velocity": 93}, {"time": 390, "pitch": 73, "duration": 3, "velocity": 90}, {"time": 393, "pitch": 75, "duration": 5, "velocity": 91}, {"time": 399, "pitch": 77, "duration": 2, "velocity": 89}, {"time": 402, "pitch": 73, "duration": 14, "velocity": 85}, {"time": 429, "pitch": 80, "duration": 3, "velocity": 89}, {"time": 432, "pitch": 78, "duration": 3, "velocity": 86}, {"time": 435, "pitch": 77, "duration": 3, "velocity": 92}, {"time": 438, "pitch": 73, "duration": 2, "velocity": 90}, {"time": 441, "pitch": 75, "duration": 5, "velocity": 94}, {"time": 447, "pitch": 77, "duration": 2, "velocity": 90}, {"time": 450, "pitch": 77, "duration": 20, "velocity": 87}, {"time": 477, "pitch": 80, "duration": 2, "velocity": 90}, {"time": 480, "pitch": 78, "duration": 3, "velocity": 84}, {"time": 483, "pitch": 77, "duration": 3, "velocity": 92}, {"time": 486, "pitch": 73, "duration": 2, "velocity": 87}, {"time": 489, "pitch": 75, "duration": 5, "velocity": 95}, {"time": 495, "pitch": 77, "duration": 2, "velocity": 90}, {"time": 498, "pitch": 73, "duration": 9, "velocity": 87}, {"time": 513, "pitch": 75, "duration": 5, "velocity": 92}, {"time": 519, "pitch": 77, "duration": 2, "velocity": 94}, {"time": 522, "pitch": 73, "duration": 9, "velocity": 89}, {"time": 531, "pitch": 70, "duration": 3, "velocity": 89}, {"time": 534, "pitch": 73, "duration": 20, "velocity": 91}, {"time": 576, "pitch": 70, "duration": 5, "velocity": 91}, {"time": 582, "pitch": 72, "duration": 3, "velocity": 90}, {"time": 585, "pitch": 73, "duration": 11, "velocity": 90}, {"time": 597, "pitch": 73, "duration": 5, "velocity": 91}, {"time": 603, "pitch": 72, "duration": 2, "velocity": 88}, {"time": 606, "pitch": 73, "duration": 18, "velocity": 89}, {"time": 624, "pitch": 70, "duration": 5, "velocity": 93}, {"time": 630, "pitch": 72, "duration": 2, "velocity": 89}, {"time": 633, "pitch": 73, "duration": 10, "velocity": 90}, {"time": 645, "pitch": 73, "duration": 6, "velocity": 91}, {"time": 651, "pitch": 72, "duration": 2, "velocity": 88}, {"time": 654, "pitch": 73, "duration": 17, "velocity": 91}, {"time": 681, "pitch": 78, "duration": 5, "velocity": 89}, {"time": 687, "pitch": 77, "duration": 5, "velocity": 89}, {"time": 693, "pitch": 75, "duration": 5, "velocity": 92}, {"time": 699, "pitch": 73, "duration": 3, "velocity": 90}, {"time": 702, "pitch": 80, "duration": 9, "velocity": 92}, {"time": 711, "pitch": 77, "duration": 5, "velocity": 89}, {"time": 717, "pitch": 77, "duration": 3, "velocity": 90}, {"time": 720, "pitch": 82, "duration": 6, "velocity": 90}, {"time": 726, "pitch": 75, "duration": 23, "velocity": 90}, {"time": 771, "pitch": 77, "duration": 3, "velocity": 92}, {"time": 774, "pitch": 78, "duration": 2, "velocity": 88}, {"time": 777, "pitch": 80, "duration": 5, "velocity": 90}, {"time": 783, "pitch": 80, "duration": 2, "velocity": 88}, {"time": 786, "pitch": 80, "duration": 5, "velocity": 88}, {"time": 792, "pitch": 80, "duration": 5, "velocity": 90}, {"time": 798, "pitch": 80, "duration": 4, "velocity": 89}, {"time": 804, "pitch": 80, "duration": 4, "velocity": 89}, {"time": 810, "pitch": 80, "duration": 5, "velocity": 90}, {"time": 816, "pitch": 80, "duration": 5, "velocity": 89}, {"time": 822, "pitch": 80, "duration": 5, "velocity": 88}, {"time": 828, "pitch": 82, "duration": 5, "velocity": 92}, {"time": 834, "pitch": 78, "duration": 4, "velocity": 89}, {"time": 840, "pitch": 77, "duration": 6, "velocity": 90}, {"time": 846, "pitch": 78, "duration": 12, "velocity": 90}, {"time": 867, "pitch": 73, "duration": 2, "velocity": 90}, {"time": 870, "pitch": 75, "duration": 3, "velocity": 95}, {"time": 873, "pitch": 77, "duration": 2, "velocity": 93}, {"time": 876, "pitch": 77, "duration": 5, "velocity": 89}, {"time": 882, "pitch": 77, "duration": 5, "velocity": 94}, {"time": 888, "pitch": 77, "duration": 5, "velocity": 92}, {"time": 894, "pitch": 77, "duration": 4, "velocity": 92}, {"time": 900, "pitch": 77, "duration": 5, "velocity": 91}, {"time": 906, "pitch": 77, "duration": 5, "velocity": 91}, {"time": 912, "pitch": 77, "duration": 4, "velocity": 94}, {"time": 918, "pitch": 77, "duration": 6, "velocity": 95}, {"time": 924, "pitch": 82, "duration": 5, "velocity": 91}, {"time": 930, "pitch": 75, "duration": 6, "velocity": 94}, {"time": 936, "pitch": 73, "duration": 6, "velocity": 92}, {"time": 942, "pitch": 77, "duration": 3, "velocity": 91}, {"time": 945, "pitch": 73, "duration": 3, "velocity": 86}, {"time": 948, "pitch": 75, "duration": 10, "velocity": 90}, {"time": 963, "pitch": 77, "duration": 3, "velocity": 92}, {"time": 966, "pitch": 78, "duration": 2, "velocity": 85}, {"time": 969, "pitch": 80, "duration": 5, "velocity": 90}, {"time": 975, "pitch": 80, "duration": 2, "velocity": 89}, {"time": 978, "pitch": 73, "duration": 5, "velocity": 90}, {"time": 984, "pitch": 70, "duration": 4, "velocity": 94}, {"time": 993, "pitch": 80, "duration": 5, "velocity": 90}, {"time": 999, "pitch": 80, "duration": 3, "velocity": 92}, {"time": 1002, "pitch": 73, "duration": 6, "velocity": 92}, {"time": 1008, "pitch": 70, "duration": 7, "velocity": 92}, {"time": 1017, "pitch": 75, "duration": 5, "velocity": 102}, {"time": 1023, "pitch": 75, "duration": 3, "velocity": 95}, {"time": 1026, "pitch": 77, "duration": 6, "velocity": 92}, {"time": 1032, "pitch": 70, "duration": 5, "velocity": 93}, {"time": 1038, "pitch": 73, "duration": 10, "velocity": 99}, {"time": 1053, "pitch": 75, "duration": 4, "velocity": 95}, {"time": 1059, "pitch": 77, "duration": 3, "velocity": 93}, {"time": 1062, "pitch": 73, "duration": 13, "velocity": 94}, {"time": 1077, "pitch": 75, "duration": 3, "velocity": 95}, {"time": 1083, "pitch": 77, "duration": 3, "velocity": 92}, {"time": 1086, "pitch": 75, "duration": 11, "velocity": 95}, {"time": 1098, "pitch": 68, "duration": 3, "velocity": 90}, {"time": 1101, "pitch": 80, "duration": 4, "velocity": 84}, {"time": 1107, "pitch": 77, "duration": 5, "velocity": 90}, {"time": 1113, "pitch": 77, "duration": 3, "velocity": 90}, {"time": 1116, "pitch": 73, "duration": 20, "velocity": 86}, {"time": 1197, "pitch": 80, "duration": 3, "velocity": 90}, {"time": 1200, "pitch": 78, "duration": 3, "velocity": 84}, {"time": 1203, "pitch": 77, "duration": 3, "velocity": 93}, {"time": 1206, "pitch": 73, "duration": 3, "velocity": 90}, {"time": 1209, "pitch": 75, "duration": 5, "velocity": 91}, {"time": 1215, "pitch": 77, "duration": 2, "velocity": 89}, {"time": 1218, "pitch": 73, "duration": 14, "velocity": 85}, {"time": 1245, "pitch": 80, "duration": 3, "velocity": 89}, {"time": 1248, "pitch": 78, "duration": 3, "velocity": 86}, {"time": 1251, "pitch": 77, "duration": 3, "velocity": 92}, {"time": 1254, "pitch": 73, "duration": 2, "velocity": 90}, {"time": 1257, "pitch": 75, "duration": 5, "velocity": 94}, {"time": 1263, "pitch": 77, "duration": 2, "velocity": 90}, {"time": 1266, "pitch": 77, "duration": 20, "velocity": 87}, {"time": 1293, "pitch": 80, "duration": 2, "velocity": 90}, {"time": 1296, "pitch": 78, "duration": 3, "velocity": 84}, {"time": 1299, "pitch": 77, "duration": 3, "velocity": 92}, {"time": 1302, "pitch": 73, "duration": 2, "velocity": 87}, {"time": 1305, "pitch": 75, "duration": 5, "velocity": 95}, {"time": 1311, "pitch": 77, "duration": 2, "velocity": 90}, {"time": 1314, "pitch": 73, "duration": 9, "velocity": 87}, {"time": 1329, "pitch": 75, "duration": 5, "velocity": 92}, {"time": 1335, "pitch": 77, "duration": 2, "velocity": 94}, {"time": 1338, "pitch": 73, "duration": 9, "velocity": 89}, {"time": 1347, "pitch": 70, "duration": 3, "velocity": 89}, {"time": 1350, "pitch": 73, "duration": 20, "velocity": 91}, {"time": 1392, "pitch": 70, "duration": 5, "velocity": 91}, {"time": 1398, "pitch": 72, "duration": 3, "velocity": 90}, {"time": 1401, "pitch": 73, "duration": 11, "velocity": 90}, {"time": 1413, "pitch": 73, "duration": 5, "velocity": 91}, {"time": 1419, "pitch": 72, "duration": 2, "velocity": 88}, {"time": 1422, "pitch": 73, "duration": 18, "velocity": 89}, {"time": 1440, "pitch": 70, "duration": 5, "velocity": 93}, {"time": 1446, "pitch": 72, "duration": 2, "velocity": 89}, {"time": 1449, "pitch": 73, "duration": 10, "velocity": 90}, {"time": 1461, "pitch": 73, "duration": 6, "velocity": 91}, {"time": 1467, "pitch": 72, "duration": 2, "velocity": 88}, {"time": 1470, "pitch": 73, "duration": 17, "velocity": 91}, {"time": 1497, "pitch": 78, "duration": 5, "velocity": 89}, {"time": 1503, "pitch": 77, "duration": 5, "velocity": 89}, {"time": 1509, "pitch": 75, "duration": 5, "velocity": 92}, {"time": 1515, "pitch": 73, "duration": 3, "velocity": 90}, {"time": 1518, "pitch": 80, "duration": 9, "velocity": 92}, {"time": 1527, "pitch": 77, "duration": 5, "velocity": 89}, {"time": 1533, "pitch": 77, "duration": 3, "velocity": 90}, {"time": 1536, "pitch": 82, "duration": 6, "velocity": 90}, {"time": 1542, "pitch": 75, "duration": 23, "velocity": 90}, {"time": 1587, "pitch": 77, "duration": 3, "velocity": 92}, {"time": 1590, "pitch": 78, "duration": 2, "velocity": 88}, {"time": 1593, "pitch": 80, "duration": 5, "velocity": 90}, {"time": 1599, "pitch": 80, "duration": 2, "velocity": 88}, {"time": 1602, "pitch": 80, "duration": 5, "velocity": 88}, {"time": 1608, "pitch": 80, "duration": 5, "velocity": 90}, {"time": 1614, "pitch": 80, "duration": 4, "velocity": 89}, {"time": 1620, "pitch": 80, "duration": 4, "velocity": 89}, {"time": 1626, "pitch": 80, "duration": 5, "velocity": 90}, {"time": 1632, "pitch": 80, "duration": 5, "velocity": 89}, {"time": 1638, "pitch": 80, "duration": 5, "velocity": 88}, {"time": 1644, "pitch": 82, "duration": 5, "velocity": 92}, {"time": 1650, "pitch": 78, "duration": 4, "velocity": 89}, {"time": 1656, "pitch": 77, "duration": 6, "velocity": 90}, {"time": 1662, "pitch": 78, "duration": 12, "velocity": 90}, {"time": 1683, "pitch": 73, "duration": 2, "velocity": 90}, {"time": 1686, "pitch": 75, "duration": 3, "velocity": 95}, {"time": 1689, "pitch": 77, "duration": 2, "velocity": 93}, {"time": 1692, "pitch": 77, "duration": 5, "velocity": 89}, {"time": 1698, "pitch": 77, "duration": 5, "velocity": 94}, {"time": 1704, "pitch": 77, "duration": 5, "velocity": 92}, {"time": 1710, "pitch": 77, "duration": 4, "velocity": 92}, {"time": 1716, "pitch": 77, "duration": 5, "velocity": 91}, {"time": 1722, "pitch": 77, "duration": 5, "velocity": 91}, {"time": 1728, "pitch": 77, "duration": 4, "velocity": 94}, {"time": 1734, "pitch": 77, "duration": 6, "velocity": 95}, {"time": 1740, "pitch": 82, "duration": 5, "velocity": 91}, {"time": 1746, "pitch": 75, "duration": 6, "velocity": 94}, {"time": 1752, "pitch": 73, "duration": 6, "velocity": 92}, {"time": 1758, "pitch": 77, "duration": 3, "velocity": 91}, {"time": 1761, "pitch": 73, "duration": 3, "velocity": 86}, {"time": 1764, "pitch": 75, "duration": 10, "velocity": 90}, {"time": 1779, "pitch": 77, "duration": 3, "velocity": 92}, {"time": 1782, "pitch": 78, "duration": 2, "velocity": 85}, {"time": 1785, "pitch": 80, "duration": 5, "velocity": 90}, {"time": 1791, "pitch": 80, "duration": 2, "velocity": 89}, {"time": 1794, "pitch": 73, "duration": 5, "velocity": 90}, {"time": 1800, "pitch": 70, "duration": 4, "velocity": 94}, {"time": 1809, "pitch": 80, "duration": 5, "velocity": 90}, {"time": 1815, "pitch": 80, "duration": 3, "velocity": 92}, {"time": 1818, "pitch": 73, "duration": 6, "velocity": 92}, {"time": 1824, "pitch": 70, "duration": 7, "velocity": 92}, {"time": 1833, "pitch": 75, "duration": 5, "velocity": 102}, {"time": 1839, "pitch": 75, "duration": 3, "velocity": 95}, {"time": 1842, "pitch": 77, "duration": 6, "velocity": 92}, {"time": 1848, "pitch": 70, "duration": 5, "velocity": 93}, {"time": 1854, "pitch": 73, "duration": 10, "velocity": 99}, {"time": 1869, "pitch": 75, "duration": 4, "velocity": 95}, {"time": 1875, "pitch": 77, "duration": 3, "velocity": 93}, {"time": 1878, "pitch": 73, "duration": 13, "velocity": 94}, {"time": 1893, "pitch": 75, "duration": 3, "velocity": 95}, {"time": 1899, "pitch": 77, "duration": 3, "velocity": 92}, {"time": 1902, "pitch": 75, "duration": 11, "velocity": 95}, {"time": 1914, "pitch": 68, "duration": 3, "velocity": 90}, {"time": 1917, "pitch": 80, "duration": 4, "velocity": 84}, {"time": 1923, "pitch": 77, "duration": 5, "velocity": 90}, {"time": 1929, "pitch": 77, "duration": 3, "velocity": 90}, {"time": 1932, "pitch": 73, "duration": 20, "velocity": 86}, {"time": 2115, "pitch": 77, "duration": 3, "velocity": 92}, {"time": 2118, "pitch": 78, "duration": 2, "velocity": 88}, {"time": 2121, "pitch": 80, "duration": 5, "velocity": 90}, {"time": 2127, "pitch": 80, "duration": 2, "velocity": 88}, {"time": 2130, "pitch": 80, "duration": 5, "velocity": 88}, {"time": 2136, "pitch": 80, "duration": 5, "velocity": 90}, {"time": 2142, "pitch": 80, "duration": 4, "velocity": 89}, {"time": 2148, "pitch": 80, "duration": 4, "velocity": 89}, {"time": 2154, "pitch": 80, "duration": 5, "velocity": 90}, {"time": 2160, "pitch": 80, "duration": 5, "velocity": 89}, {"time": 2166, "pitch": 80, "duration": 5, "velocity": 88}, {"time": 2172, "pitch": 82, "duration": 5, "velocity": 92}, {"time": 2178, "pitch": 78, "duration": 4, "velocity": 89}, {"time": 2184, "pitch": 77, "duration": 6, "velocity": 90}, {"time": 2190, "pitch": 78, "duration": 12, "velocity": 90}, {"time": 2211, "pitch": 73, "duration": 2, "velocity": 90}, {"time": 2214, "pitch": 75, "duration": 3, "velocity": 95}, {"time": 2217, "pitch": 77, "duration": 2, "velocity": 93}, {"time": 2220, "pitch": 77, "duration": 5, "velocity": 89}, {"time": 2226, "pitch": 77, "duration": 5, "velocity": 94}, {"time": 2232, "pitch": 77, "duration": 5, "velocity": 92}, {"time": 2238, "pitch": 77, "duration": 4, "velocity": 92}, {"time": 2244, "pitch": 77, "duration": 5, "velocity": 91}, {"time": 2250, "pitch": 77, "duration": 5, "velocity": 91}, {"time": 2256, "pitch": 77, "duration": 4, "velocity": 94}, {"time": 2262, "pitch": 77, "duration": 6, "velocity": 95}, {"time": 2268, "pitch": 82, "duration": 5, "velocity": 91}, {"time": 2274, "pitch": 75, "duration": 6, "velocity": 94}, {"time": 2280, "pitch": 73, "duration": 6, "velocity": 92}, {"time": 2286, "pitch": 77, "duration": 3, "velocity": 91}, {"time": 2289, "pitch": 73, "duration": 3, "velocity": 86}, {"time": 2292, "pitch": 75, "duration": 10, "velocity": 90}, {"time": 2307, "pitch": 77, "duration": 3, "velocity": 92}, {"time": 2310, "pitch": 78, "duration": 2, "velocity": 85}, {"time": 2313, "pitch": 80, "duration": 5, "velocity": 90}, {"time": 2319, "pitch": 80, "duration": 2, "velocity": 89}, {"time": 2322, "pitch": 73, "duration": 5, "velocity": 90}, {"time": 2328, "pitch": 70, "duration": 4, "velocity": 94}, {"time": 2337, "pitch": 80, "duration": 5, "velocity": 90}, {"time": 2343, "pitch": 80, "duration": 3, "velocity": 92}, {"time": 2346, "pitch": 73, "duration": 6, "velocity": 92}, {"time": 2352, "pitch": 70, "duration": 7, "velocity": 92}, {"time": 2361, "pitch": 75, "duration": 5, "velocity": 102}, {"time": 2367, "pitch": 75, "duration": 3, "velocity": 95}, {"time": 2370, "pitch": 77, "duration": 6, "velocity": 92}, {"time": 2376, "pitch": 70, "duration": 5, "velocity": 93}, {"time": 2382, "pitch": 73, "duration": 10, "velocity": 99}, {"time": 2397, "pitch": 75, "duration": 4, "velocity": 95}, {"time": 2403, "pitch": 77, "duration": 3, "velocity": 93}, {"time": 2406, "pitch": 73, "duration": 13, "velocity": 94}, {"time": 2421, "pitch": 75, "duration": 3, "velocity": 95}, {"time": 2427, "pitch": 77, "duration": 3, "velocity": 92}, {"time": 2430, "pitch": 75, "duration": 11, "velocity": 95}, {"time": 2442, "pitch": 68, "duration": 3, "velocity": 90}, {"time": 2445, "pitch": 80, "duration": 4, "velocity": 84}, {"time": 2451, "pitch": 77, "duration": 5, "velocity": 90}, {"time": 2457, "pitch": 77, "duration": 3, "velocity": 90}, {"time": 2460, "pitch": 73, "duration": 20, "velocity": 86}, {"time": 2490, "pitch": 75, "duration": 4, "velocity": 95}, {"time": 2496, "pitch": 77, "duration": 5, "velocity": 89}, {"time": 2502, "pitch": 73, "duration": 11, "velocity": 90}, {"time": 2514, "pitch": 75, "duration": 4, "velocity": 99}, {"time": 2520, "pitch": 77, "duration": 6, "velocity": 90}, {"time": 2526, "pitch": 75, "duration": 9, "velocity": 90}, {"time": 2535, "pitch": 68, "duration": 4, "velocity": 95}, {"time": 2541, "pitch": 80, "duration": 13, "velocity": 92}, {"time": 2559, "pitch": 77, "duration": 7, "velocity": 89}, {"time": 2568, "pitch": 77, "duration": 2, "velocity": 94}, {"time": 2570, "pitch": 75, "duration": 1, "velocity": 84}, {"time": 2572, "pitch": 73, "duration": 28, "velocity": 89}]}, {"program": 0, "is_drum": false, "name": "PIANO", "notes": [{"time": 8, "pitch": 58, "duration": 24, "velocity": 69}, {"time": 9, "pitch": 61, "duration": 23, "velocity": 69}, {"time": 9, "pitch": 46, "duration": 24, "velocity": 77}, {"time": 9, "pitch": 65, "duration": 23, "velocity": 80}, {"time": 32, "pitch": 56, "duration": 21, "velocity": 77}, {"time": 32, "pitch": 60, "duration": 21, "velocity": 68}, {"time": 32, "pitch": 44, "duration": 24, "velocity": 78}, {"time": 33, "pitch": 63, "duration": 24, "velocity": 66}, {"time": 57, "pitch": 54, "duration": 7, "velocity": 75}, {"time": 57, "pitch": 58, "duration": 9, "velocity": 74}, {"time": 57, "pitch": 42, "duration": 9, "velocity": 82}, {"time": 66, "pitch": 49, "duration": 15, "velocity": 83}, {"time": 66, "pitch": 61, "duration": 9, "velocity": 77}, {"time": 66, "pitch": 56, "duration": 13, "velocity": 76}, {"time": 81, "pitch": 54, "duration": 14, "velocity": 75}, {"time": 81, "pitch": 61, "duration": 19, "velocity": 76}, {"time": 81, "pitch": 42, "duration": 45, "velocity": 82}, {"time": 93, "pitch": 49, "duration": 33, "velocity": 76}, {"time": 98, "pitch": 54, "duration": 27, "velocity": 75}, {"time": 105, "pitch": 61, "duration": 22, "velocity": 74}, {"time": 105, "pitch": 66, "duration": 21, "velocity": 72}, {"time": 129, "pitch": 54, "duration": 7, "velocity": 74}, {"time": 129, "pitch": 58, "duration": 9, "velocity": 76}, {"time": 129, "pitch": 42, "duration": 8, "velocity": 87}, {"time": 138, "pitch": 56, "duration": 10, "velocity": 77}, {"time": 138, "pitch": 60, "duration": 11, "velocity": 76}, {"time": 138, "pitch": 44, "duration": 11, "velocity": 74}, {"time": 150, "pitch": 58, "duration": 10, "velocity": 77}, {"time": 150, "pitch": 61, "duration": 15, "velocity": 80}, {"time": 150, "pitch": 46, "duration": 13, "velocity": 84}, {"time": 159, "pitch": 53, "duration": 5, "velocity": 77}, {"time": 162, "pitch": 58, "duration": 2, "velocity": 77}, {"time": 165, "pitch": 56, "duration": 11, "velocity": 80}, {"time": 165, "pitch": 60, "duration": 11, "velocity": 77}, {"time": 165, "pitch": 44, "duration": 11, "velocity": 81}, {"time": 175, "pitch": 61, "duration": 15, "velocity": 73}, {"time": 176, "pitch": 65, "duration": 11, "velocity": 76}, {"time": 176, "pitch": 37, "duration": 24, "velocity": 79}, {"time": 177, "pitch": 68, "duration": 10, "velocity": 70}, {"time": 189, "pitch": 68, "duration": 11, "velocity": 77}, {"time": 189, "pitch": 65, "duration": 10, "velocity": 83}, {"time": 201, "pitch": 42, "duration": 22, "velocity": 84}, {"time": 204, "pitch": 49, "duration": 17, "velocity": 76}, {"time": 207, "pitch": 54, "duration": 10, "velocity": 80}, {"time": 210, "pitch": 66, "duration": 16, "velocity": 87}, {"time": 216, "pitch": 61, "duration": 5, "velocity": 83}, {"time": 219, "pitch": 54, "duration": 5, "velocity": 78}, {"time": 222, "pitch": 61, "duration": 3, "velocity": 82}, {"time": 225, "pitch": 42, "duration": 16, "velocity": 85}, {"time": 228, "pitch": 49, "duration": 12, "velocity": 76}, {"time": 231, "pitch": 61, "duration": 7, "velocity": 81}, {"time": 234, "pitch": 70, "duration": 6, "velocity": 78}, {"time": 240, "pitch": 66, "duration": 4, "velocity": 82}, {"time": 243, "pitch": 61, "duration": 8, "velocity": 76}, {"time": 249, "pitch": 49, "duration": 22, "velocity": 88}, {"time": 252, "pitch": 56, "duration": 10, "velocity": 75}, {"time": 255, "pitch": 63, "duration": 3, "velocity": 81}, {"time": 258, "pitch": 68, "duration": 10, "velocity": 84}, {"time": 264, "pitch": 56, "duration": 7, "velocity": 78}, {"time": 267, "pitch": 61, "duration": 4, "velocity": 78}, {"time": 270, "pitch": 63, "duration": 8, "velocity": 82}, {"time": 273, "pitch": 49, "duration": 19, "velocity": 89}, {"time": 276, "pitch": 56, "duration": 8, "velocity": 75}, {"time": 279, "pitch": 61, "duration": 2, "velocity": 82}, {"time": 282, "pitch": 61, "duration": 6, "velocity": 86}, {"time": 282, "pitch": 65, "duration": 9, "velocity": 92}, {"time": 285, "pitch": 56, "duration": 6, "velocity": 79}, {"time": 291, "pitch": 61, "duration": 5, "velocity": 77}, {"time": 294, "pitch": 65, "duration": 3, "velocity": 83}, {"time": 297, "pitch": 42, "duration": 20, "velocity": 88}, {"time": 300, "pitch": 54, "duration": 12, "velocity": 79}, {"time": 303, "pitch": 61, "duration": 7, "velocity": 83}, {"time": 306, "pitch": 66, "duration": 16, "velocity": 83}, {"time": 312, "pitch": 61, "duration": 4, "velocity": 82}, {"time": 315, "pitch": 54, "duration": 4, "velocity": 81}, {"time": 318, "pitch": 61, "duration": 3, "velocity": 82}, {"time": 321, "pitch": 47, "duration": 18, "velocity": 82}, {"time": 324, "pitch": 54, "duration": 15, "velocity": 72}, {"time": 327, "pitch": 59, "duration": 7, "velocity": 78}, {"time": 330, "pitch": 66, "duration": 10, "velocity": 89}, {"time": 336, "pitch": 63, "duration": 8, "velocity": 82}, {"time": 339, "pitch": 59, "duration": 5, "velocity": 80}, {"time": 345, "pitch": 49, "duration": 22, "velocity": 89}, {"time": 348, "pitch": 56, "duration": 8, "velocity": 77}, {"time": 351, "pitch": 63, "duration": 4, "velocity": 79}, {"time": 354, "pitch": 65, "duration": 11, "velocity": 89}, {"time": 360, "pitch": 56, "duration": 10, "velocity": 77}, {"time": 363, "pitch": 61, "duration": 11, "velocity": 83}, {"time": 366, "pitch": 68, "duration": 10, "velocity": 84}, {"time": 369, "pitch": 49, "duration": 18, "velocity": 88}, {"time": 372, "pitch": 56, "duration": 8, "velocity": 75}, {"time": 375, "pitch": 63, "duration": 4, "velocity": 80}, {"time": 378, "pitch": 65, "duration": 13, "velocity": 89}, {"time": 384, "pitch": 56, "duration": 3, "velocity": 75}, {"time": 387, "pitch": 61, "duration": 9, "velocity": 79}, {"time": 393, "pitch": 42, "duration": 22, "velocity": 87}, {"time": 396, "pitch": 49, "duration": 19, "velocity": 78}, {"time": 399, "pitch": 54, "duration": 13, "velocity": 76}, {"time": 402, "pitch": 66, "duration": 22, "velocity": 88}, {"time": 411, "pitch": 61, "duration": 9, "velocity": 83}, {"time": 414, "pitch": 54, "duration": 19, "velocity": 88}, {"time": 417, "pitch": 42, "duration": 20, "velocity": 88}, {"time": 420, "pitch": 49, "duration": 16, "velocity": 75}, {"time": 423, "pitch": 61, "duration": 4, "velocity": 82}, {"time": 426, "pitch": 66, "duration": 19, "velocity": 89}, {"time": 432, "pitch": 61, "duration": 4, "velocity": 84}, {"time": 435, "pitch": 54, "duration": 4, "velocity": 85}, {"time": 438, "pitch": 61, "duration": 5, "velocity": 82}, {"time": 441, "pitch": 49, "duration": 21, "velocity": 88}, {"time": 444, "pitch": 56, "duration": 8, "velocity": 79}, {"time": 447, "pitch": 63, "duration": 5, "velocity": 77}, {"time": 450, "pitch": 65, "duration": 7, "velocity": 89}, {"time": 456, "pitch": 61, "duration": 4, "velocity": 81}, {"time": 459, "pitch": 56, "duration": 7, "velocity": 84}, {"time": 462, "pitch": 61, "duration": 7, "velocity": 87}, {"time": 465, "pitch": 49, "duration": 20, "velocity": 89}, {"time": 468, "pitch": 56, "duration": 13, "velocity": 89}, {"time": 471, "pitch": 61, "duration": 4, "velocity": 84}, {"time": 474, "pitch": 63, "duration": 6, "velocity": 83}, {"time": 480, "pitch": 65, "duration": 8, "velocity": 88}, {"time": 483, "pitch": 56, "duration": 5, "velocity": 83}, {"time": 486, "pitch": 61, "duration": 6, "velocity": 82}, {"time": 489, "pitch": 42, "duration": 22, "velocity": 88}, {"time": 492, "pitch": 58, "duration": 11, "velocity": 74}, {"time": 495, "pitch": 61, "duration": 10, "velocity": 82}, {"time": 498, "pitch": 66, "duration": 10, "velocity": 88}, {"time": 504, "pitch": 49, "duration": 7, "velocity": 78}, {"time": 507, "pitch": 58, "duration": 5, "velocity": 84}, {"time": 510, "pitch": 66, "duration": 13, "velocity": 85}, {"time": 513, "pitch": 44, "duration": 21, "velocity": 87}, {"time": 516, "pitch": 51, "duration": 9, "velocity": 76}, {"time": 519, "pitch": 56, "duration": 10, "velocity": 80}, {"time": 522, "pitch": 63, "duration": 10, "velocity": 85}, {"time": 528, "pitch": 51, "duration": 6, "velocity": 82}, {"time": 531, "pitch": 56, "duration": 7, "velocity": 86}, {"time": 534, "pitch": 63, "duration": 7, "velocity": 84}, {"time": 537, "pitch": 49, "duration": 21, "velocity": 88}, {"time": 540, "pitch": 61, "duration": 4, "velocity": 84}, {"time": 543, "pitch": 56, "duration": 10, "velocity": 87}, {"time": 546, "pitch": 65, "duration": 13, "velocity": 90}, {"time": 552, "pitch": 61, "duration": 4, "velocity": 79}, {"time": 555, "pitch": 56, "duration": 7, "velocity": 73}, {"time": 558, "pitch": 61, "duration": 7, "velocity": 81}, {"time": 561, "pitch": 49, "duration": 10, "velocity": 91}, {"time": 564, "pitch": 56, "duration": 6, "velocity": 86}, {"time": 567, "pitch": 61, "duration": 4, "velocity": 86}, {"time": 570, "pitch": 65, "duration": 3, "velocity": 83}, {"time": 573, "pitch": 48, "duration": 10, "velocity": 92}, {"time": 573, "pitch": 60, "duration": 12, "velocity": 78}, {"time": 573, "pitch": 63, "duration": 11, "velocity": 88}, {"time": 585, "pitch": 46, "duration": 22, "velocity": 88}, {"time": 588, "pitch": 53, "duration": 11, "velocity": 82}, {"time": 591, "pitch": 58, "duration": 3, "velocity": 66}, {"time": 591, "pitch": 61, "duration": 2, "velocity": 82}, {"time": 594, "pitch": 65, "duration": 10, "velocity": 94}, {"time": 600, "pitch": 53, "duration": 10, "velocity": 76}, {"time": 603, "pitch": 58, "duration": 4, "velocity": 89}, {"time": 606, "pitch": 61, "duration": 8, "velocity": 83}, {"time": 609, "pitch": 44, "duration": 21, "velocity": 88}, {"time": 612, "pitch": 56, "duration": 7, "velocity": 84}, {"time": 615, "pitch": 61, "duration": 8, "velocity": 84}, {"time": 618, "pitch": 65, "duration": 17, "velocity": 90}, {"time": 627, "pitch": 56, "duration": 5, "velocity": 90}, {"time": 630, "pitch": 61, "duration": 7, "velocity": 84}, {"time": 633, "pitch": 43, "duration": 19, "velocity": 83}, {"time": 636, "pitch": 58, "duration": 8, "velocity": 83}, {"time": 639, "pitch": 61, "duration": 4, "velocity": 82}, {"time": 642, "pitch": 67, "duration": 7, "velocity": 84}, {"time": 645, "pitch": 58, "duration": 2, "velocity": 45}, {"time": 645, "pitch": 61, "duration": 2, "velocity": 57}, {"time": 648, "pitch": 61, "duration": 4, "velocity": 84}, {"time": 651, "pitch": 58, "duration": 6, "velocity": 73}, {"time": 654, "pitch": 61, "duration": 3, "velocity": 81}, {"time": 657, "pitch": 42, "duration": 20, "velocity": 88}, {"time": 660, "pitch": 58, "duration": 4, "velocity": 80}, {"time": 663, "pitch": 54, "duration": 10, "velocity": 85}, {"time": 666, "pitch": 61, "duration": 7, "velocity": 88}, {"time": 669, "pitch": 58, "duration": 4, "velocity": 81}, {"time": 672, "pitch": 66, "duration": 12, "velocity": 89}, {"time": 675, "pitch": 54, "duration": 5, "velocity": 85}, {"time": 681, "pitch": 51, "duration": 22, "velocity": 87}, {"time": 684, "pitch": 63, "duration": 4, "velocity": 81}, {"time": 687, "pitch": 58, "duration": 10, "velocity": 79}, {"time": 690, "pitch": 66, "duration": 7, "velocity": 89}, {"time": 696, "pitch": 63, "duration": 4, "velocity": 83}, {"time": 699, "pitch": 58, "duration": 9, "velocity": 78}, {"time": 705, "pitch": 51, "duration": 22, "velocity": 89}, {"time": 708, "pitch": 63, "duration": 5, "velocity": 78}, {"time": 711, "pitch": 58, "duration": 5, "velocity": 80}, {"time": 714, "pitch": 66, "duration": 10, "velocity": 81}, {"time": 720, "pitch": 61, "duration": 4, "velocity": 83}, {"time": 723, "pitch": 58, "duration": 6, "velocity": 80}, {"time": 726, "pitch": 61, "duration": 5, "velocity": 81}, {"time": 729, "pitch": 44, "duration": 23, "velocity": 88}, {"time": 732, "pitch": 63, "duration": 7, "velocity": 80}, {"time": 735, "pitch": 56, "duration": 9, "velocity": 76}, {"time": 738, "pitch": 68, "duration": 25, "velocity": 88}, {"time": 744, "pitch": 63, "duration": 4, "velocity": 77}, {"time": 747, "pitch": 56, "duration": 10, "velocity": 88}, {"time": 750, "pitch": 63, "duration": 10, "velocity": 87}, {"time": 753, "pitch": 44, "duration": 24, "velocity": 90}, {"time": 756, "pitch": 51, "duration": 8, "velocity": 80}, {"time": 759, "pitch": 56, "duration": 9, "velocity": 89}, {"time": 762, "pitch": 63, "duration": 8, "velocity": 86}, {"time": 765, "pitch": 51, "duration": 12, "velocity": 76}, {"time": 768, "pitch": 68, "duration": 9, "velocity": 87}, {"time": 771, "pitch": 56, "duration": 5, "velocity": 78}, {"time": 774, "pitch": 63, "duration": 3, "velocity": 79}, {"time": 777, "pitch": 49, "duration": 22, "velocity": 89}, {"time": 780, "pitch": 56, "duration": 14, "velocity": 76}, {"time": 783, "pitch": 61, "duration": 8, "velocity": 92}, {"time": 786, "pitch": 65, "duration": 5, "velocity": 104}, {"time": 792, "pitch": 61, "duration": 4, "velocity": 87}, {"time": 792, "pitch": 68, "duration": 16, "velocity": 89}, {"time": 795, "pitch": 56, "duration": 6, "velocity": 81}, {"time": 798, "pitch": 61, "duration": 4, "velocity": 80}, {"time": 801, "pitch": 50, "duration": 17, "velocity": 82}, {"time": 804, "pitch": 56, "duration": 14, "velocity": 76}, {"time": 807, "pitch": 62, "duration": 2, "velocity": 91}, {"time": 810, "pitch": 62, "duration": 8, "velocity": 89}, {"time": 810, "pitch": 68, "duration": 10, "velocity": 87}, {"time": 825, "pitch": 51, "duration": 17, "velocity": 89}, {"time": 825, "pitch": 61, "duration": 4, "velocity": 80}, {"time": 825, "pitch": 66, "duration": 8, "velocity": 79}, {"time": 828, "pitch": 58, "duration": 13, "velocity": 78}, {"time": 831, "pitch": 61, "duration": 10, "velocity": 89}, {"time": 834, "pitch": 70, "duration": 7, "velocity": 89}, {"time": 840, "pitch": 66, "duration": 5, "velocity": 86}, {"time": 843, "pitch": 61, "duration": 2, "velocity": 83}, {"time": 849, "pitch": 42, "duration": 18, "velocity": 88}, {"time": 849, "pitch": 66, "duration": 4, "velocity": 82}, {"time": 849, "pitch": 69, "duration": 8, "velocity": 91}, {"time": 852, "pitch": 49, "duration": 14, "velocity": 80}, {"time": 855, "pitch": 66, "duration": 6, "velocity": 78}, {"time": 858, "pitch": 73, "duration": 9, "velocity": 89}, {"time": 867, "pitch": 69, "duration": 3, "velocity": 93}, {"time": 870, "pitch": 66, "duration": 1, "velocity": 74}, {"time": 873, "pitch": 46, "duration": 22, "velocity": 88}, {"time": 873, "pitch": 58, "duration": 4, "velocity": 86}, {"time": 873, "pitch": 61, "duration": 7, "velocity": 85}, {"time": 876, "pitch": 53, "duration": 23, "velocity": 81}, {"time": 879, "pitch": 58, "duration": 10, "velocity": 83}, {"time": 882, "pitch": 65, "duration": 10, "velocity": 89}, {"time": 888, "pitch": 61, "duration": 5, "velocity": 79}, {"time": 891, "pitch": 58, "duration": 3, "velocity": 77}, {"time": 897, "pitch": 44, "duration": 18, "velocity": 83}, {"time": 897, "pitch": 56, "duration": 4, "velocity": 84}, {"time": 897, "pitch": 65, "duration": 8, "velocity": 79}, {"time": 900, "pitch": 53, "duration": 20, "velocity": 83}, {"time": 903, "pitch": 56, "duration": 10, "velocity": 89}, {"time": 906, "pitch": 61, "duration": 8, "velocity": 89}, {"time": 912, "pitch": 65, "duration": 5, "velocity": 89}, {"time": 921, "pitch": 43, "duration": 19, "velocity": 78}, {"time": 921, "pitch": 65, "duration": 7, "velocity": 89}, {"time": 924, "pitch": 53, "duration": 19, "velocity": 84}, {"time": 927, "pitch": 55, "duration": 4, "velocity": 81}, {"time": 930, "pitch": 65, "duration": 8, "velocity": 94}, {"time": 936, "pitch": 55, "duration": 4, "velocity": 84}, {"time": 939, "pitch": 65, "duration": 6, "velocity": 88}, {"time": 945, "pitch": 44, "duration": 19, "velocity": 89}, {"time": 948, "pitch": 51, "duration": 8, "velocity": 83}, {"time": 951, "pitch": 56, "duration": 6, "velocity": 90}, {"time": 954, "pitch": 63, "duration": 7, "velocity": 88}, {"time": 957, "pitch": 51, "duration": 7, "velocity": 88}, {"time": 960, "pitch": 56, "duration": 2, "velocity": 89}, {"time": 963, "pitch": 56, "duration": 2, "velocity": 93}, {"time": 963, "pitch": 60, "duration": 4, "velocity": 89}, {"time": 966, "pitch": 56, "duration": 2, "velocity": 84}, {"time": 969, "pitch": 46, "duration": 22, "velocity": 88}, {"time": 969, "pitch": 58, "duration": 13, "velocity": 89}, {"time": 969, "pitch": 61, "duration": 8, "velocity": 88}, {"time": 972, "pitch": 53, "duration": 20, "velocity": 83}, {"time": 975, "pitch": 65, "duration": 4, "velocity": 89}, {"time": 978, "pitch": 70, "duration": 7, "velocity": 91}, {"time": 984, "pitch": 65, "duration": 4, "velocity": 92}, {"time": 987, "pitch": 58, "duration": 4, "velocity": 88}, {"time": 993, "pitch": 44, "duration": 20, "velocity": 89}, {"time": 996, "pitch": 51, "duration": 20, "velocity": 78}, {"time": 999, "pitch": 56, "duration": 3, "velocity": 79}, {"time": 1002, "pitch": 56, "duration": 6, "velocity": 84}, {"time": 1002, "pitch": 63, "duration": 10, "velocity": 87}, {"time": 1008, "pitch": 60, "duration": 4, "velocity": 82}, {"time": 1011, "pitch": 56, "duration": 3, "velocity": 81}, {"time": 1017, "pitch": 43, "duration": 21, "velocity": 88}, {"time": 1020, "pitch": 51, "duration": 14, "velocity": 75}, {"time": 1023, "pitch": 55, "duration": 14, "velocity": 81}, {"time": 1026, "pitch": 65, "duration": 22, "velocity": 91}, {"time": 1035, "pitch": 51, "duration": 6, "velocity": 84}, {"time": 1038, "pitch": 55, "duration": 3, "velocity": 82}, {"time": 1041, "pitch": 42, "duration": 19, "velocity": 89}, {"time": 1044, "pitch": 49, "duration": 16, "velocity": 87}, {"time": 1047, "pitch": 58, "duration": 5, "velocity": 82}, {"time": 1050, "pitch": 54, "duration": 4, "velocity": 77}, {"time": 1053, "pitch": 61, "duration": 7, "velocity": 88}, {"time": 1056, "pitch": 54, "duration": 4, "velocity": 84}, {"time": 1059, "pitch": 66, "duration": 9, "velocity": 60}, {"time": 1065, "pitch": 51, "duration": 20, "velocity": 89}, {"time": 1068, "pitch": 58, "duration": 11, "velocity": 74}, {"time": 1071, "pitch": 63, "duration": 14, "velocity": 72}, {"time": 1074, "pitch": 66, "duration": 16, "velocity": 90}, {"time": 1083, "pitch": 58, "duration": 3, "velocity": 74}, {"time": 1086, "pitch": 63, "duration": 5, "velocity": 83}, {"time": 1089, "pitch": 44, "duration": 23, "velocity": 88}, {"time": 1092, "pitch": 51, "duration": 18, "velocity": 78}, {"time": 1095, "pitch": 56, "duration": 7, "velocity": 89}, {"time": 1098, "pitch": 63, "duration": 15, "velocity": 88}, {"time": 1104, "pitch": 68, "duration": 10, "velocity": 85}, {"time": 1107, "pitch": 56, "duration": 6, "velocity": 82}, {"time": 1113, "pitch": 49, "duration": 22, "velocity": 89}, {"time": 1116, "pitch": 56, "duration": 11, "velocity": 82}, {"time": 1119, "pitch": 61, "duration": 3, "velocity": 90}, {"time": 1122, "pitch": 61, "duration": 10, "velocity": 89}, {"time": 1122, "pitch": 68, "duration": 24, "velocity": 84}, {"time": 1131, "pitch": 56, "duration": 8, "velocity": 75}, {"time": 1134, "pitch": 61, "duration": 4, "velocity": 89}, {"time": 1137, "pitch": 46, "duration": 22, "velocity": 88}, {"time": 1140, "pitch": 56, "duration": 19, "velocity": 81}, {"time": 1143, "pitch": 61, "duration": 5, "velocity": 87}, {"time": 1146, "pitch": 58, "duration": 7, "velocity": 82}, {"time": 1152, "pitch": 61, "duration": 4, "velocity": 88}, {"time": 1152, "pitch": 68, "duration": 17, "velocity": 85}, {"time": 1155, "pitch": 58, "duration": 6, "velocity": 81}, {"time": 1161, "pitch": 49, "duration": 22, "velocity": 89}, {"time": 1164, "pitch": 56, "duration": 8, "velocity": 83}, {"time": 1167, "pitch": 61, "duration": 4, "velocity": 83}, {"time": 1170, "pitch": 63, "duration": 6, "velocity": 89}, {"time": 1176, "pitch": 65, "duration": 9, "velocity": 86}, {"time": 1179, "pitch": 56, "duration": 7, "velocity": 77}, {"time": 1182, "pitch": 61, "duration": 7, "velocity": 82}, {"time": 1185, "pitch": 49, "duration": 25, "velocity": 88}, {"time": 1188, "pitch": 56, "duration": 5, "velocity": 79}, {"time": 1191, "pitch": 61, "duration": 2, "velocity": 78}, {"time": 1194, "pitch": 63, "duration": 2, "velocity": 89}, {"time": 1197, "pitch": 65, "duration": 7, "velocity": 92}, {"time": 1200, "pitch": 56, "duration": 3, "velocity": 78}, {"time": 1203, "pitch": 61, "duration": 7, "velocity": 84}, {"time": 1206, "pitch": 56, "duration": 4, "velocity": 85}, {"time": 1209, "pitch": 42, "duration": 22, "velocity": 87}, {"time": 1212, "pitch": 49, "duration": 19, "velocity": 78}, {"time": 1215, "pitch": 54, "duration": 13, "velocity": 76}, {"time": 1218, "pitch": 66, "duration": 22, "velocity": 88}, {"time": 1227, "pitch": 61, "duration": 9, "velocity": 83}, {"time": 1230, "pitch": 54, "duration": 19, "velocity": 88}, {"time": 1233, "pitch": 42, "duration": 20, "velocity": 88}, {"time": 1236, "pitch": 49, "duration": 16, "velocity": 75}, {"time": 1239, "pitch": 61, "duration": 4, "velocity": 82}, {"time": 1242, "pitch": 66, "duration": 19, "velocity": 89}, {"time": 1248, "pitch": 61, "duration": 4, "velocity": 84}, {"time": 1251, "pitch": 54, "duration": 4, "velocity": 85}, {"time": 1254, "pitch": 61, "duration": 5, "velocity": 82}, {"time": 1257, "pitch": 49, "duration": 21, "velocity": 88}, {"time": 1260, "pitch": 56, "duration": 8, "velocity": 79}, {"time": 1263, "pitch": 63, "duration": 5, "velocity": 77}, {"time": 1266, "pitch": 65, "duration": 7, "velocity": 89}, {"time": 1272, "pitch": 61, "duration": 4, "velocity": 81}, {"time": 1275, "pitch": 56, "duration": 7, "velocity": 84}, {"time": 1278, "pitch": 61, "duration": 7, "velocity": 87}, {"time": 1281, "pitch": 49, "duration": 20, "velocity": 89}, {"time": 1284, "pitch": 56, "duration": 13, "velocity": 89}, {"time": 1287, "pitch": 61, "duration": 4, "velocity": 84}, {"time": 1290, "pitch": 63, "duration": 6, "velocity": 83}, {"time": 1296, "pitch": 65, "duration": 8, "velocity": 88}, {"time": 1299, "pitch": 56, "duration": 5, "velocity": 83}, {"time": 1302, "pitch": 61, "duration": 6, "velocity": 82}, {"time": 1305, "pitch": 42, "duration": 22, "velocity": 88}, {"time": 1308, "pitch": 58, "duration": 11, "velocity": 74}, {"time": 1311, "pitch": 61, "duration": 10, "velocity": 82}, {"time": 1314, "pitch": 66, "duration": 10, "velocity": 88}, {"time": 1320, "pitch": 49, "duration": 7, "velocity": 78}, {"time": 1323, "pitch": 58, "duration": 5, "velocity": 84}, {"time": 1326, "pitch": 66, "duration": 13, "velocity": 85}, {"time": 1329, "pitch": 44, "duration": 21, "velocity": 87}, {"time": 1332, "pitch": 51, "duration": 9, "velocity": 76}, {"time": 1335, "pitch": 56, "duration": 10, "velocity": 80}, {"time": 1338, "pitch": 63, "duration": 10, "velocity": 85}, {"time": 1344, "pitch": 51, "duration": 6, "velocity": 82}, {"time": 1347, "pitch": 56, "duration": 7, "velocity": 86}, {"time": 1350, "pitch": 63, "duration": 7, "velocity": 84}, {"time": 1353, "pitch": 49, "duration": 21, "velocity": 88}, {"time": 1356, "pitch": 61, "duration": 4, "velocity": 84}, {"time": 1359, "pitch": 56, "duration": 10, "velocity": 87}, {"time": 1362, "pitch": 65, "duration": 13, "velocity": 90}, {"time": 1368, "pitch": 61, "duration": 4, "velocity": 79}, {"time": 1371, "pitch": 56, "duration": 7, "velocity": 73}, {"time": 1374, "pitch": 61, "duration": 7, "velocity": 81}, {"time": 1377, "pitch": 49, "duration": 10, "velocity": 91}, {"time": 1380, "pitch": 56, "duration": 6, "velocity": 86}, {"time": 1383, "pitch": 61, "duration": 4, "velocity": 86}, {"time": 1386, "pitch": 65, "duration": 3, "velocity": 83}, {"time": 1389, "pitch": 48, "duration": 10, "velocity": 92}, {"time": 1389, "pitch": 60, "duration": 12, "velocity": 78}, {"time": 1389, "pitch": 63, "duration": 11, "velocity": 88}, {"time": 1401, "pitch": 46, "duration": 23, "velocity": 88}, {"time": 1401, "pitch": 58, "duration": 4, "velocity": 83}, {"time": 1401, "pitch": 61, "duration": 7, "velocity": 86}, {"time": 1404, "pitch": 53, "duration": 5, "velocity": 83}, {"time": 1407, "pitch": 58, "duration": 4, "velocity": 97}, {"time": 1410, "pitch": 53, "duration": 6, "velocity": 82}, {"time": 1413, "pitch": 58, "duration": 8, "velocity": 91}, {"time": 1413, "pitch": 61, "duration": 15, "velocity": 91}, {"time": 1413, "pitch": 65, "duration": 15, "velocity": 92}, {"time": 1419, "pitch": 53, "duration": 7, "velocity": 83}, {"time": 1422, "pitch": 58, "duration": 5, "velocity": 80}, {"time": 1425, "pitch": 44, "duration": 19, "velocity": 89}, {"time": 1428, "pitch": 53, "duration": 5, "velocity": 88}, {"time": 1431, "pitch": 56, "duration": 5, "velocity": 102}, {"time": 1434, "pitch": 53, "duration": 6, "velocity": 82}, {"time": 1437, "pitch": 56, "duration": 6, "velocity": 92}, {"time": 1437, "pitch": 61, "duration": 8, "velocity": 90}, {"time": 1437, "pitch": 65, "duration": 10, "velocity": 92}, {"time": 1443, "pitch": 53, "duration": 3, "velocity": 84}, {"time": 1449, "pitch": 43, "duration": 16, "velocity": 90}, {"time": 1449, "pitch": 61, "duration": 7, "velocity": 89}, {"time": 1449, "pitch": 65, "duration": 10, "velocity": 90}, {"time": 1452, "pitch": 53, "duration": 12, "velocity": 36}, {"time": 1455, "pitch": 55, "duration": 5, "velocity": 89}, {"time": 1458, "pitch": 61, "duration": 3, "velocity": 90}, {"time": 1461, "pitch": 55, "duration": 6, "velocity": 88}, {"time": 1461, "pitch": 61, "duration": 6, "velocity": 93}, {"time": 1461, "pitch": 65, "duration": 12, "velocity": 89}, {"time": 1467, "pitch": 43, "duration": 5, "velocity": 82}, {"time": 1473, "pitch": 42, "duration": 19, "velocity": 83}, {"time": 1473, "pitch": 54, "duration": 4, "velocity": 84}, {"time": 1473, "pitch": 58, "duration": 6, "velocity": 80}, {"time": 1476, "pitch": 49, "duration": 12, "velocity": 81}, {"time": 1479, "pitch": 54, "duration": 4, "velocity": 93}, {"time": 1482, "pitch": 61, "duration": 2, "velocity": 84}, {"time": 1485, "pitch": 54, "duration": 11, "velocity": 90}, {"time": 1485, "pitch": 61, "duration": 11, "velocity": 89}, {"time": 1485, "pitch": 66, "duration": 12, "velocity": 89}, {"time": 1491, "pitch": 49, "duration": 5, "velocity": 89}, {"time": 1497, "pitch": 39, "duration": 1, "velocity": 90}, {"time": 1497, "pitch": 63, "duration": 8, "velocity": 88}, {"time": 1497, "pitch": 66, "duration": 8, "velocity": 91}, {"time": 1503, "pitch": 51, "duration": 10, "velocity": 79}, {"time": 1506, "pitch": 58, "duration": 4, "velocity": 90}, {"time": 1509, "pitch": 63, "duration": 3, "velocity": 104}, {"time": 1512, "pitch": 58, "duration": 2, "velocity": 88}, {"time": 1515, "pitch": 66, "duration": 4, "velocity": 90}, {"time": 1518, "pitch": 63, "duration": 2, "velocity": 80}, {"time": 1521, "pitch": 39, "duration": 1, "velocity": 90}, {"time": 1521, "pitch": 63, "duration": 4, "velocity": 90}, {"time": 1521, "pitch": 66, "duration": 9, "velocity": 90}, {"time": 1524, "pitch": 51, "duration": 16, "velocity": 85}, {"time": 1527, "pitch": 58, "duration": 4, "velocity": 90}, {"time": 1530, "pitch": 61, "duration": 3, "velocity": 97}, {"time": 1533, "pitch": 58, "duration": 7, "velocity": 83}, {"time": 1539, "pitch": 61, "duration": 1, "velocity": 74}, {"time": 1539, "pitch": 66, "duration": 6, "velocity": 92}, {"time": 1542, "pitch": 61, "duration": 4, "velocity": 87}, {"time": 1545, "pitch": 44, "duration": 22, "velocity": 90}, {"time": 1548, "pitch": 51, "duration": 8, "velocity": 88}, {"time": 1551, "pitch": 56, "duration": 10, "velocity": 91}, {"time": 1554, "pitch": 63, "duration": 7, "velocity": 93}, {"time": 1557, "pitch": 51, "duration": 5, "velocity": 81}, {"time": 1560, "pitch": 68, "duration": 7, "velocity": 89}, {"time": 1563, "pitch": 56, "duration": 5, "velocity": 84}, {"time": 1566, "pitch": 63, "duration": 3, "velocity": 85}, {"time": 1569, "pitch": 44, "duration": 16, "velocity": 91}, {"time": 1569, "pitch": 56, "duration": 7, "velocity": 89}, {"time": 1569, "pitch": 63, "duration": 8, "velocity": 90}, {"time": 1569, "pitch": 68, "duration": 9, "velocity": 89}, {"time": 1575, "pitch": 51, "duration": 8, "velocity": 75}, {"time": 1578, "pitch": 56, "duration": 2, "velocity": 87}, {"time": 1578, "pitch": 63, "duration": 1, "velocity": 34}, {"time": 1581, "pitch": 56, "duration": 8, "velocity": 102}, {"time": 1581, "pitch": 63, "duration": 10, "velocity": 97}, {"time": 1587, "pitch": 44, "duration": 3, "velocity": 89}, {"time": 1593, "pitch": 49, "duration": 18, "velocity": 93}, {"time": 1593, "pitch": 61, "duration": 9, "velocity": 82}, {"time": 1593, "pitch": 65, "duration": 8, "velocity": 90}, {"time": 1599, "pitch": 56, "duration": 8, "velocity": 89}, {"time": 1605, "pitch": 61, "duration": 4, "velocity": 94}, {"time": 1605, "pitch": 65, "duration": 5, "velocity": 102}, {"time": 1605, "pitch": 68, "duration": 9, "velocity": 90}, {"time": 1608, "pitch": 56, "duration": 8, "velocity": 86}, {"time": 1611, "pitch": 61, "duration": 2, "velocity": 93}, {"time": 1611, "pitch": 65, "duration": 1, "velocity": 48}, {"time": 1617, "pitch": 50, "duration": 14, "velocity": 91}, {"time": 1617, "pitch": 62, "duration": 7, "velocity": 83}, {"time": 1617, "pitch": 65, "duration": 7, "velocity": 90}, {"time": 1617, "pitch": 68, "duration": 9, "velocity": 80}, {"time": 1623, "pitch": 56, "duration": 8, "velocity": 56}, {"time": 1629, "pitch": 62, "duration": 5, "velocity": 90}, {"time": 1629, "pitch": 65, "duration": 5, "velocity": 97}, {"time": 1629, "pitch": 68, "duration": 6, "velocity": 89}, {"time": 1635, "pitch": 50, "duration": 2, "velocity": 88}, {"time": 1641, "pitch": 39, "duration": 2, "velocity": 93}, {"time": 1641, "pitch": 63, "duration": 11, "velocity": 89}, {"time": 1641, "pitch": 66, "duration": 10, "velocity": 91}, {"time": 1647, "pitch": 51, "duration": 11, "velocity": 78}, {"time": 1650, "pitch": 58, "duration": 5, "velocity": 90}, {"time": 1653, "pitch": 63, "duration": 4, "velocity": 93}, {"time": 1653, "pitch": 66, "duration": 7, "velocity": 99}, {"time": 1653, "pitch": 70, "duration": 8, "velocity": 93}, {"time": 1656, "pitch": 58, "duration": 3, "velocity": 82}, {"time": 1659, "pitch": 63, "duration": 6, "velocity": 92}, {"time": 1662, "pitch": 66, "duration": 3, "velocity": 82}, {"time": 1665, "pitch": 42, "duration": 17, "velocity": 89}, {"time": 1668, "pitch": 49, "duration": 13, "velocity": 88}, {"time": 1671, "pitch": 61, "duration": 4, "velocity": 92}, {"time": 1674, "pitch": 66, "duration": 2, "velocity": 89}, {"time": 1677, "pitch": 61, "duration": 7, "velocity": 92}, {"time": 1677, "pitch": 66, "duration": 7, "velocity": 95}, {"time": 1677, "pitch": 69, "duration": 7, "velocity": 102}, {"time": 1689, "pitch": 46, "duration": 21, "velocity": 89}, {"time": 1689, "pitch": 58, "duration": 4, "velocity": 79}, {"time": 1689, "pitch": 61, "duration": 7, "velocity": 86}, {"time": 1692, "pitch": 53, "duration": 13, "velocity": 88}, {"time": 1695, "pitch": 58, "duration": 7, "velocity": 92}, {"time": 1701, "pitch": 61, "duration": 7, "velocity": 94}, {"time": 1701, "pitch": 65, "duration": 10, "velocity": 93}, {"time": 1707, "pitch": 53, "duration": 10, "velocity": 87}, {"time": 1713, "pitch": 44, "duration": 16, "velocity": 88}, {"time": 1713, "pitch": 56, "duration": 9, "velocity": 86}, {"time": 1713, "pitch": 61, "duration": 8, "velocity": 91}, {"time": 1713, "pitch": 65, "duration": 9, "velocity": 93}, {"time": 1719, "pitch": 53, "duration": 10, "velocity": 83}, {"time": 1725, "pitch": 56, "duration": 4, "velocity": 93}, {"time": 1725, "pitch": 61, "duration": 7, "velocity": 95}, {"time": 1725, "pitch": 65, "duration": 8, "velocity": 97}, {"time": 1731, "pitch": 44, "duration": 3, "velocity": 88}, {"time": 1737, "pitch": 43, "duration": 15, "velocity": 89}, {"time": 1737, "pitch": 61, "duration": 7, "velocity": 92}, {"time": 1737, "pitch": 65, "duration": 9, "velocity": 92}, {"time": 1743, "pitch": 55, "duration": 6, "velocity": 84}, {"time": 1749, "pitch": 55, "duration": 4, "velocity": 97}, {"time": 1749, "pitch": 61, "duration": 4, "velocity": 94}, {"time": 1749, "pitch": 65, "duration": 5, "velocity": 94}, {"time": 1755, "pitch": 43, "duration": 4, "velocity": 90}, {"time": 1761, "pitch": 44, "duration": 20, "velocity": 89}, {"time": 1761, "pitch": 56, "duration": 4, "velocity": 89}, {"time": 1761, "pitch": 63, "duration": 7, "velocity": 88}, {"time": 1764, "pitch": 51, "duration": 8, "velocity": 88}, {"time": 1767, "pitch": 56, "duration": 3, "velocity": 90}, {"time": 1770, "pitch": 56, "duration": 5, "velocity": 81}, {"time": 1770, "pitch": 63, "duration": 5, "velocity": 92}, {"time": 1770, "pitch": 68, "duration": 5, "velocity": 90}, {"time": 1773, "pitch": 51, "duration": 5, "velocity": 89}, {"time": 1776, "pitch": 56, "duration": 4, "velocity": 102}, {"time": 1776, "pitch": 63, "duration": 8, "velocity": 95}, {"time": 1779, "pitch": 51, "duration": 2, "velocity": 92}, {"time": 1782, "pitch": 56, "duration": 2, "velocity": 93}, {"time": 1785, "pitch": 46, "duration": 21, "velocity": 89}, {"time": 1785, "pitch": 58, "duration": 7, "velocity": 94}, {"time": 1785, "pitch": 61, "duration": 6, "velocity": 93}, {"time": 1791, "pitch": 53, "duration": 8, "velocity": 90}, {"time": 1794, "pitch": 58, "duration": 2, "velocity": 89}, {"time": 1797, "pitch": 58, "duration": 5, "velocity": 87}, {"time": 1797, "pitch": 61, "duration": 7, "velocity": 97}, {"time": 1797, "pitch": 65, "duration": 10, "velocity": 94}, {"time": 1803, "pitch": 53, "duration": 5, "velocity": 88}, {"time": 1806, "pitch": 58, "duration": 2, "velocity": 84}, {"time": 1809, "pitch": 44, "duration": 16, "velocity": 88}, {"time": 1809, "pitch": 56, "duration": 10, "velocity": 89}, {"time": 1809, "pitch": 60, "duration": 7, "velocity": 89}, {"time": 1815, "pitch": 51, "duration": 8, "velocity": 81}, {"time": 1821, "pitch": 56, "duration": 5, "velocity": 94}, {"time": 1821, "pitch": 60, "duration": 5, "velocity": 97}, {"time": 1821, "pitch": 63, "duration": 5, "velocity": 91}, {"time": 1827, "pitch": 44, "duration": 2, "velocity": 58}, {"time": 1827, "pitch": 51, "duration": 4, "velocity": 83}, {"time": 1833, "pitch": 43, "duration": 14, "velocity": 88}, {"time": 1833, "pitch": 55, "duration": 3, "velocity": 84}, {"time": 1833, "pitch": 58, "duration": 10, "velocity": 90}, {"time": 1833, "pitch": 65, "duration": 10, "velocity": 94}, {"time": 1839, "pitch": 55, "duration": 5, "velocity": 76}, {"time": 1845, "pitch": 55, "duration": 4, "velocity": 92}, {"time": 1845, "pitch": 58, "duration": 5, "velocity": 90}, {"time": 1845, "pitch": 65, "duration": 10, "velocity": 94}, {"time": 1848, "pitch": 43, "duration": 3, "velocity": 77}, {"time": 1851, "pitch": 55, "duration": 4, "velocity": 93}, {"time": 1854, "pitch": 58, "duration": 2, "velocity": 82}, {"time": 1857, "pitch": 42, "duration": 18, "velocity": 89}, {"time": 1857, "pitch": 54, "duration": 4, "velocity": 88}, {"time": 1857, "pitch": 58, "duration": 7, "velocity": 86}, {"time": 1860, "pitch": 49, "duration": 9, "velocity": 75}, {"time": 1863, "pitch": 54, "duration": 12, "velocity": 88}, {"time": 1866, "pitch": 61, "duration": 10, "velocity": 89}, {"time": 1869, "pitch": 49, "duration": 6, "velocity": 88}, {"time": 1872, "pitch": 58, "duration": 4, "velocity": 86}, {"time": 1875, "pitch": 66, "duration": 3, "velocity": 89}, {"time": 1881, "pitch": 51, "duration": 19, "velocity": 88}, {"time": 1881, "pitch": 58, "duration": 3, "velocity": 84}, {"time": 1881, "pitch": 63, "duration": 9, "velocity": 88}, {"time": 1887, "pitch": 58, "duration": 5, "velocity": 80}, {"time": 1893, "pitch": 58, "duration": 4, "velocity": 93}, {"time": 1893, "pitch": 66, "duration": 5, "velocity": 87}, {"time": 1896, "pitch": 63, "duration": 4, "velocity": 84}, {"time": 1899, "pitch": 58, "duration": 2, "velocity": 89}, {"time": 1905, "pitch": 44, "duration": 23, "velocity": 89}, {"time": 1905, "pitch": 56, "duration": 11, "velocity": 89}, {"time": 1905, "pitch": 60, "duration": 7, "velocity": 89}, {"time": 1908, "pitch": 51, "duration": 14, "velocity": 82}, {"time": 1911, "pitch": 63, "duration": 5, "velocity": 84}, {"time": 1914, "pitch": 68, "duration": 14, "velocity": 83}, {"time": 1917, "pitch": 63, "duration": 11, "velocity": 89}, {"time": 1923, "pitch": 51, "duration": 6, "velocity": 88}, {"time": 1926, "pitch": 56, "duration": 3, "velocity": 84}, {"time": 1929, "pitch": 47, "duration": 18, "velocity": 90}, {"time": 1929, "pitch": 59, "duration": 4, "velocity": 81}, {"time": 1929, "pitch": 63, "duration": 5, "velocity": 88}, {"time": 1929, "pitch": 66, "duration": 6, "velocity": 90}, {"time": 1932, "pitch": 54, "duration": 14, "velocity": 77}, {"time": 1935, "pitch": 59, "duration": 2, "velocity": 93}, {"time": 1938, "pitch": 59, "duration": 5, "velocity": 89}, {"time": 1938, "pitch": 66, "duration": 4, "velocity": 90}, {"time": 1944, "pitch": 59, "duration": 3, "velocity": 84}, {"time": 1944, "pitch": 63, "duration": 4, "velocity": 90}, {"time": 1944, "pitch": 66, "duration": 5, "velocity": 89}, {"time": 1950, "pitch": 59, "duration": 3, "velocity": 80}, {"time": 1953, "pitch": 47, "duration": 18, "velocity": 87}, {"time": 1953, "pitch": 59, "duration": 4, "velocity": 90}, {"time": 1953, "pitch": 63, "duration": 7, "velocity": 90}, {"time": 1956, "pitch": 54, "duration": 9, "velocity": 82}, {"time": 1959, "pitch": 59, "duration": 2, "velocity": 88}, {"time": 1962, "pitch": 59, "duration": 7, "velocity": 89}, {"time": 1962, "pitch": 63, "duration": 10, "velocity": 94}, {"time": 1962, "pitch": 66, "duration": 9, "velocity": 89}, {"time": 1968, "pitch": 54, "duration": 4, "velocity": 84}, {"time": 1971, "pitch": 59, "duration": 2, "velocity": 91}, {"time": 1977, "pitch": 46, "duration": 23, "velocity": 90}, {"time": 1977, "pitch": 56, "duration": 4, "velocity": 90}, {"time": 1977, "pitch": 61, "duration": 7, "velocity": 89}, {"time": 1980, "pitch": 53, "duration": 20, "velocity": 82}, {"time": 1983, "pitch": 56, "duration": 2, "velocity": 78}, {"time": 1986, "pitch": 58, "duration": 4, "velocity": 88}, {"time": 1986, "pitch": 65, "duration": 4, "velocity": 90}, {"time": 1992, "pitch": 58, "duration": 2, "velocity": 90}, {"time": 1992, "pitch": 61, "duration": 2, "velocity": 93}, {"time": 2001, "pitch": 46, "duration": 19, "velocity": 89}, {"time": 2001, "pitch": 58, "duration": 4, "velocity": 84}, {"time": 2001, "pitch": 65, "duration": 7, "velocity": 89}, {"time": 2004, "pitch": 53, "duration": 8, "velocity": 84}, {"time": 2007, "pitch": 61, "duration": 1, "velocity": 86}, {"time": 2010, "pitch": 58, "duration": 5, "velocity": 89}, {"time": 2010, "pitch": 70, "duration": 5, "velocity": 89}, {"time": 2013, "pitch": 53, "duration": 5, "velocity": 87}, {"time": 2016, "pitch": 58, "duration": 3, "velocity": 91}, {"time": 2016, "pitch": 65, "duration": 3, "velocity": 91}, {"time": 2019, "pitch": 53, "duration": 3, "velocity": 90}, {"time": 2025, "pitch": 46, "duration": 23, "velocity": 90}, {"time": 2025, "pitch": 58, "duration": 4, "velocity": 88}, {"time": 2025, "pitch": 70, "duration": 8, "velocity": 88}, {"time": 2028, "pitch": 53, "duration": 20, "velocity": 80}, {"time": 2031, "pitch": 58, "duration": 2, "velocity": 83}, {"time": 2034, "pitch": 58, "duration": 5, "velocity": 90}, {"time": 2034, "pitch": 65, "duration": 4, "velocity": 90}, {"time": 2040, "pitch": 58, "duration": 4, "velocity": 94}, {"time": 2040, "pitch": 62, "duration": 4, "velocity": 94}, {"time": 2040, "pitch": 65, "duration": 4, "velocity": 95}, {"time": 2049, "pitch": 46, "duration": 17, "velocity": 91}, {"time": 2049, "pitch": 58, "duration": 4, "velocity": 88}, {"time": 2049, "pitch": 65, "duration": 6, "velocity": 89}, {"time": 2052, "pitch": 53, "duration": 7, "velocity": 79}, {"time": 2055, "pitch": 58, "duration": 1, "velocity": 81}, {"time": 2058, "pitch": 58, "duration": 4, "velocity": 99}, {"time": 2058, "pitch": 70, "duration": 4, "velocity": 90}, {"time": 2061, "pitch": 53, "duration": 5, "velocity": 86}, {"time": 2064, "pitch": 58, "duration": 4, "velocity": 92}, {"time": 2064, "pitch": 65, "duration": 8, "velocity": 94}, {"time": 2067, "pitch": 46, "duration": 4, "velocity": 90}, {"time": 2070, "pitch": 58, "duration": 2, "velocity": 91}, {"time": 2073, "pitch": 51, "duration": 19, "velocity": 99}, {"time": 2073, "pitch": 58, "duration": 3, "velocity": 91}, {"time": 2073, "pitch": 63, "duration": 8, "velocity": 92}, {"time": 2079, "pitch": 58, "duration": 2, "velocity": 81}, {"time": 2082, "pitch": 58, "duration": 7, "velocity": 90}, {"time": 2082, "pitch": 66, "duration": 7, "velocity": 88}, {"time": 2088, "pitch": 63, "duration": 3, "velocity": 94}, {"time": 2091, "pitch": 58, "duration": 4, "velocity": 89}, {"time": 2094, "pitch": 63, "duration": 2, "velocity": 85}, {"time": 2097, "pitch": 44, "duration": 23, "velocity": 89}, {"time": 2097, "pitch": 56, "duration": 4, "velocity": 89}, {"time": 2097, "pitch": 60, "duration": 8, "velocity": 89}, {"time": 2100, "pitch": 51, "duration": 19, "velocity": 77}, {"time": 2103, "pitch": 56, "duration": 4, "velocity": 83}, {"time": 2106, "pitch": 63, "duration": 7, "velocity": 88}, {"time": 2109, "pitch": 56, "duration": 3, "velocity": 65}, {"time": 2112, "pitch": 68, "duration": 2, "velocity": 90}, {"time": 2115, "pitch": 63, "duration": 4, "velocity": 89}, {"time": 2121, "pitch": 49, "duration": 22, "velocity": 89}, {"time": 2124, "pitch": 56, "duration": 14, "velocity": 76}, {"time": 2127, "pitch": 61, "duration": 8, "velocity": 92}, {"time": 2130, "pitch": 65, "duration": 5, "velocity": 104}, {"time": 2136, "pitch": 61, "duration": 4, "velocity": 87}, {"time": 2136, "pitch": 68, "duration": 16, "velocity": 89}, {"time": 2139, "pitch": 56, "duration": 6, "velocity": 81}, {"time": 2142, "pitch": 61, "duration": 4, "velocity": 80}, {"time": 2145, "pitch": 50, "duration": 17, "velocity": 82}, {"time": 2148, "pitch": 56, "duration": 14, "velocity": 76}, {"time": 2151, "pitch": 62, "duration": 2, "velocity": 91}, {"time": 2154, "pitch": 62, "duration": 8, "velocity": 89}, {"time": 2154, "pitch": 68, "duration": 10, "velocity": 87}, {"time": 2169, "pitch": 51, "duration": 17, "velocity": 89}, {"time": 2169, "pitch": 61, "duration": 4, "velocity": 80}, {"time": 2169, "pitch": 66, "duration": 8, "velocity": 79}, {"time": 2172, "pitch": 58, "duration": 13, "velocity": 78}, {"time": 2175, "pitch": 61, "duration": 10, "velocity": 89}, {"time": 2178, "pitch": 70, "duration": 7, "velocity": 89}, {"time": 2184, "pitch": 66, "duration": 5, "velocity": 86}, {"time": 2187, "pitch": 61, "duration": 2, "velocity": 83}, {"time": 2193, "pitch": 42, "duration": 18, "velocity": 88}, {"time": 2193, "pitch": 66, "duration": 4, "velocity": 82}, {"time": 2193, "pitch": 69, "duration": 8, "velocity": 91}, {"time": 2196, "pitch": 49, "duration": 14, "velocity": 80}, {"time": 2199, "pitch": 66, "duration": 6, "velocity": 78}, {"time": 2202, "pitch": 73, "duration": 9, "velocity": 89}, {"time": 2211, "pitch": 69, "duration": 3, "velocity": 93}, {"time": 2214, "pitch": 66, "duration": 1, "velocity": 74}, {"time": 2217, "pitch": 46, "duration": 22, "velocity": 88}, {"time": 2217, "pitch": 58, "duration": 4, "velocity": 86}, {"time": 2217, "pitch": 61, "duration": 7, "velocity": 85}, {"time": 2220, "pitch": 53, "duration": 23, "velocity": 81}, {"time": 2223, "pitch": 58, "duration": 10, "velocity": 83}, {"time": 2226, "pitch": 65, "duration": 10, "velocity": 89}, {"time": 2232, "pitch": 61, "duration": 5, "velocity": 79}, {"time": 2235, "pitch": 58, "duration": 3, "velocity": 77}, {"time": 2241, "pitch": 44, "duration": 18, "velocity": 83}, {"time": 2241, "pitch": 56, "duration": 4, "velocity": 84}, {"time": 2241, "pitch": 65, "duration": 8, "velocity": 79}, {"time": 2244, "pitch": 53, "duration": 20, "velocity": 83}, {"time": 2247, "pitch": 56, "duration": 10, "velocity": 89}, {"time": 2250, "pitch": 61, "duration": 8, "velocity": 89}, {"time": 2256, "pitch": 65, "duration": 5, "velocity": 89}, {"time": 2265, "pitch": 43, "duration": 19, "velocity": 78}, {"time": 2265, "pitch": 65, "duration": 7, "velocity": 89}, {"time": 2268, "pitch": 53, "duration": 19, "velocity": 84}, {"time": 2271, "pitch": 55, "duration": 4, "velocity": 81}, {"time": 2274, "pitch": 65, "duration": 8, "velocity": 94}, {"time": 2280, "pitch": 55, "duration": 4, "velocity": 84}, {"time": 2283, "pitch": 65, "duration": 6, "velocity": 88}, {"time": 2289, "pitch": 44, "duration": 20, "velocity": 89}, {"time": 2289, "pitch": 56, "duration": 4, "velocity": 89}, {"time": 2289, "pitch": 63, "duration": 7, "velocity": 88}, {"time": 2292, "pitch": 51, "duration": 8, "velocity": 88}, {"time": 2295, "pitch": 56, "duration": 3, "velocity": 90}, {"time": 2298, "pitch": 56, "duration": 5, "velocity": 81}, {"time": 2298, "pitch": 63, "duration": 5, "velocity": 92}, {"time": 2298, "pitch": 68, "duration": 5, "velocity": 90}, {"time": 2301, "pitch": 51, "duration": 5, "velocity": 89}, {"time": 2304, "pitch": 56, "duration": 4, "velocity": 102}, {"time": 2304, "pitch": 63, "duration": 8, "velocity": 95}, {"time": 2307, "pitch": 51, "duration": 2, "velocity": 92}, {"time": 2310, "pitch": 56, "duration": 2, "velocity": 93}, {"time": 2313, "pitch": 46, "duration": 21, "velocity": 89}, {"time": 2313, "pitch": 58, "duration": 7, "velocity": 94}, {"time": 2313, "pitch": 61, "duration": 6, "velocity": 93}, {"time": 2319, "pitch": 53, "duration": 8, "velocity": 90}, {"time": 2322, "pitch": 58, "duration": 2, "velocity": 89}, {"time": 2325, "pitch": 58, "duration": 5, "velocity": 87}, {"time": 2325, "pitch": 61, "duration": 7, "velocity": 97}, {"time": 2325, "pitch": 65, "duration": 10, "velocity": 94}, {"time": 2331, "pitch": 53, "duration": 5, "velocity": 88}, {"time": 2334, "pitch": 58, "duration": 2, "velocity": 84}, {"time": 2337, "pitch": 44, "duration": 16, "velocity": 88}, {"time": 2337, "pitch": 56, "duration": 10, "velocity": 89}, {"time": 2337, "pitch": 60, "duration": 7, "velocity": 89}, {"time": 2343, "pitch": 51, "duration": 8, "velocity": 81}, {"time": 2349, "pitch": 56, "duration": 5, "velocity": 94}, {"time": 2349, "pitch": 60, "duration": 5, "velocity": 97}, {"time": 2349, "pitch": 63, "duration": 5, "velocity": 91}, {"time": 2355, "pitch": 44, "duration": 2, "velocity": 58}, {"time": 2355, "pitch": 51, "duration": 4, "velocity": 83}, {"time": 2361, "pitch": 43, "duration": 14, "velocity": 88}, {"time": 2361, "pitch": 55, "duration": 3, "velocity": 84}, {"time": 2361, "pitch": 58, "duration": 10, "velocity": 90}, {"time": 2361, "pitch": 65, "duration": 10, "velocity": 94}, {"time": 2367, "pitch": 55, "duration": 5, "velocity": 76}, {"time": 2373, "pitch": 55, "duration": 4, "velocity": 92}, {"time": 2373, "pitch": 58, "duration": 5, "velocity": 90}, {"time": 2373, "pitch": 65, "duration": 10, "velocity": 94}, {"time": 2376, "pitch": 43, "duration": 3, "velocity": 77}, {"time": 2379, "pitch": 55, "duration": 4, "velocity": 93}, {"time": 2382, "pitch": 58, "duration": 2, "velocity": 82}, {"time": 2385, "pitch": 42, "duration": 18, "velocity": 89}, {"time": 2385, "pitch": 54, "duration": 4, "velocity": 88}, {"time": 2385, "pitch": 58, "duration": 7, "velocity": 86}, {"time": 2388, "pitch": 49, "duration": 9, "velocity": 75}, {"time": 2391, "pitch": 54, "duration": 12, "velocity": 88}, {"time": 2394, "pitch": 61, "duration": 10, "velocity": 89}, {"time": 2397, "pitch": 49, "duration": 6, "velocity": 88}, {"time": 2400, "pitch": 58, "duration": 4, "velocity": 86}, {"time": 2403, "pitch": 66, "duration": 3, "velocity": 89}, {"time": 2409, "pitch": 51, "duration": 19, "velocity": 88}, {"time": 2409, "pitch": 58, "duration": 3, "velocity": 84}, {"time": 2409, "pitch": 63, "duration": 9, "velocity": 88}, {"time": 2415, "pitch": 58, "duration": 5, "velocity": 80}, {"time": 2421, "pitch": 58, "duration": 4, "velocity": 93}, {"time": 2421, "pitch": 66, "duration": 5, "velocity": 87}, {"time": 2424, "pitch": 63, "duration": 4, "velocity": 84}, {"time": 2427, "pitch": 58, "duration": 2, "velocity": 89}, {"time": 2433, "pitch": 44, "duration": 23, "velocity": 89}, {"time": 2433, "pitch": 56, "duration": 11, "velocity": 89}, {"time": 2433, "pitch": 60, "duration": 7, "velocity": 89}, {"time": 2436, "pitch": 51, "duration": 14, "velocity": 82}, {"time": 2439, "pitch": 63, "duration": 5, "velocity": 84}, {"time": 2442, "pitch": 68, "duration": 14, "velocity": 83}, {"time": 2445, "pitch": 63, "duration": 11, "velocity": 89}, {"time": 2451, "pitch": 51, "duration": 6, "velocity": 88}, {"time": 2454, "pitch": 56, "duration": 3, "velocity": 84}, {"time": 2457, "pitch": 42, "duration": 2, "velocity": 85}, {"time": 2457, "pitch": 73, "duration": 11, "velocity": 88}, {"time": 2460, "pitch": 49, "duration": 15, "velocity": 81}, {"time": 2463, "pitch": 58, "duration": 11, "velocity": 67}, {"time": 2466, "pitch": 66, "duration": 7, "velocity": 90}, {"time": 2469, "pitch": 54, "duration": 5, "velocity": 73}, {"time": 2472, "pitch": 70, "duration": 3, "velocity": 92}, {"time": 2481, "pitch": 53, "duration": 14, "velocity": 90}, {"time": 2481, "pitch": 65, "duration": 4, "velocity": 88}, {"time": 2481, "pitch": 68, "duration": 7, "velocity": 83}, {"time": 2484, "pitch": 60, "duration": 8, "velocity": 75}, {"time": 2487, "pitch": 65, "duration": 2, "velocity": 88}, {"time": 2490, "pitch": 65, "duration": 11, "velocity": 90}, {"time": 2490, "pitch": 68, "duration": 10, "velocity": 89}, {"time": 2505, "pitch": 51, "duration": 18, "velocity": 90}, {"time": 2505, "pitch": 63, "duration": 4, "velocity": 85}, {"time": 2505, "pitch": 66, "duration": 7, "velocity": 86}, {"time": 2508, "pitch": 58, "duration": 8, "velocity": 77}, {"time": 2511, "pitch": 61, "duration": 10, "velocity": 90}, {"time": 2514, "pitch": 66, "duration": 10, "velocity": 93}, {"time": 2520, "pitch": 58, "duration": 4, "velocity": 81}, {"time": 2523, "pitch": 61, "duration": 7, "velocity": 88}, {"time": 2526, "pitch": 66, "duration": 4, "velocity": 83}, {"time": 2529, "pitch": 44, "duration": 20, "velocity": 88}, {"time": 2532, "pitch": 51, "duration": 16, "velocity": 82}, {"time": 2535, "pitch": 56, "duration": 10, "velocity": 82}, {"time": 2538, "pitch": 63, "duration": 15, "velocity": 83}, {"time": 2544, "pitch": 68, "duration": 13, "velocity": 85}, {"time": 2547, "pitch": 56, "duration": 6, "velocity": 71}, {"time": 2553, "pitch": 42, "duration": 2, "velocity": 88}, {"time": 2556, "pitch": 54, "duration": 20, "velocity": 69}, {"time": 2559, "pitch": 61, "duration": 17, "velocity": 85}, {"time": 2562, "pitch": 66, "duration": 4, "velocity": 84}, {"time": 2565, "pitch": 68, "duration": 4, "velocity": 83}, {"time": 2568, "pitch": 70, "duration": 5, "velocity": 77}, {"time": 2574, "pitch": 73, "duration": 14, "velocity": 84}, {"time": 2580, "pitch": 54, "duration": 14, "velocity": 35}, {"time": 2583, "pitch": 61, "duration": 11, "velocity": 79}, {"time": 2586, "pitch": 66, "duration": 4, "velocity": 88}, {"time": 2589, "pitch": 68, "duration": 4, "velocity": 94}, {"time": 2592, "pitch": 70, "duration": 4, "velocity": 93}, {"time": 2595, "pitch": 73, "duration": 7, "velocity": 90}, {"time": 2598, "pitch": 66, "duration": 4, "velocity": 80}, {"time": 2601, "pitch": 49, "duration": 23, "velocity": 89}, {"time": 2604, "pitch": 56, "duration": 8, "velocity": 75}, {"time": 2607, "pitch": 63, "duration": 4, "velocity": 77}, {"time": 2610, "pitch": 65, "duration": 7, "velocity": 94}, {"time": 2616, "pitch": 68, "duration": 2, "velocity": 89}, {"time": 2622, "pitch": 61, "duration": 14, "velocity": 78}, {"time": 2625, "pitch": 49, "duration": 20, "velocity": 88}, {"time": 2628, "pitch": 56, "duration": 13, "velocity": 76}, {"time": 2631, "pitch": 68, "duration": 4, "velocity": 79}, {"time": 2634, "pitch": 73, "duration": 31, "velocity": 89}, {"time": 2640, "pitch": 68, "duration": 6, "velocity": 81}, {"time": 2643, "pitch": 61, "duration": 21, "velocity": 78}, {"time": 2649, "pitch": 68, "duration": 18, "velocity": 55}, {"time": 2667, "pitch": 37, "duration": 2, "velocity": 83}, {"time": 2672, "pitch": 49, "duration": 34, "velocity": 84}, {"time": 2674, "pitch": 56, "duration": 31, "velocity": 76}, {"time": 2676, "pitch": 61, "duration": 2, "velocity": 79}, {"time": 2678, "pitch": 63, "duration": 1, "velocity": 80}, {"time": 2680, "pitch": 65, "duration": 2, "velocity": 87}, {"time": 2682, "pitch": 68, "duration": 2, "velocity": 78}, {"time": 2684, "pitch": 73, "duration": 2, "velocity": 79}, {"time": 2686, "pitch": 75, "duration": 2, "velocity": 78}, {"time": 2689, "pitch": 77, "duration": 5, "velocity": 66}, {"time": 2693, "pitch": 80, "duration": 4, "velocity": 53}, {"time": 2745, "pitch": 42, "duration": 21, "velocity": 88}, {"time": 2748, "pitch": 49, "duration": 17, "velocity": 80}, {"time": 2751, "pitch": 61, "duration": 5, "velocity": 82}, {"time": 2754, "pitch": 68, "duration": 18, "velocity": 86}, {"time": 2763, "pitch": 61, "duration": 10, "velocity": 82}, {"time": 2766, "pitch": 56, "duration": 10, "velocity": 81}, {"time": 2769, "pitch": 42, "duration": 24, "velocity": 89}, {"time": 2772, "pitch": 49, "duration": 21, "velocity": 75}, {"time": 2775, "pitch": 61, "duration": 7, "velocity": 82}, {"time": 2778, "pitch": 68, "duration": 15, "velocity": 87}, {"time": 2787, "pitch": 61, "duration": 6, "velocity": 83}, {"time": 2790, "pitch": 56, "duration": 3, "velocity": 84}, {"time": 2793, "pitch": 37, "duration": 23, "velocity": 86}, {"time": 2796, "pitch": 53, "duration": 4, "velocity": 89}, {"time": 2799, "pitch": 56, "duration": 4, "velocity": 86}, {"time": 2802, "pitch": 61, "duration": 10, "velocity": 89}, {"time": 2811, "pitch": 56, "duration": 6, "velocity": 89}, {"time": 2814, "pitch": 53, "duration": 10, "velocity": 88}, {"time": 2817, "pitch": 37, "duration": 25, "velocity": 87}, {"time": 2823, "pitch": 56, "duration": 4, "velocity": 84}, {"time": 2826, "pitch": 61, "duration": 7, "velocity": 91}, {"time": 2832, "pitch": 56, "duration": 4, "velocity": 88}, {"time": 2835, "pitch": 53, "duration": 4, "velocity": 89}, {"time": 2838, "pitch": 61, "duration": 4, "velocity": 88}, {"time": 2841, "pitch": 42, "duration": 21, "velocity": 88}, {"time": 2844, "pitch": 49, "duration": 17, "velocity": 80}, {"time": 2847, "pitch": 61, "duration": 5, "velocity": 82}, {"time": 2850, "pitch": 68, "duration": 18, "velocity": 86}, {"time": 2859, "pitch": 61, "duration": 10, "velocity": 82}, {"time": 2862, "pitch": 56, "duration": 10, "velocity": 81}, {"time": 2865, "pitch": 42, "duration": 24, "velocity": 89}, {"time": 2868, "pitch": 49, "duration": 21, "velocity": 75}, {"time": 2871, "pitch": 61, "duration": 7, "velocity": 82}, {"time": 2874, "pitch": 68, "duration": 15, "velocity": 87}, {"time": 2883, "pitch": 61, "duration": 6, "velocity": 83}, {"time": 2886, "pitch": 56, "duration": 3, "velocity": 84}, {"time": 2889, "pitch": 37, "duration": 23, "velocity": 86}, {"time": 2892, "pitch": 53, "duration": 4, "velocity": 89}, {"time": 2895, "pitch": 56, "duration": 4, "velocity": 86}, {"time": 2898, "pitch": 61, "duration": 10, "velocity": 89}, {"time": 2907, "pitch": 56, "duration": 6, "velocity": 89}, {"time": 2910, "pitch": 53, "duration": 10, "velocity": 88}, {"time": 2913, "pitch": 37, "duration": 25, "velocity": 87}, {"time": 2919, "pitch": 56, "duration": 4, "velocity": 84}, {"time": 2922, "pitch": 61, "duration": 7, "velocity": 91}, {"time": 2928, "pitch": 56, "duration": 4, "velocity": 88}, {"time": 2931, "pitch": 53, "duration": 4, "velocity": 89}, {"time": 2934, "pitch": 61, "duration": 4, "velocity": 88}, {"time": 2937, "pitch": 42, "duration": 21, "velocity": 88}, {"time": 2940, "pitch": 49, "duration": 17, "velocity": 80}, {"time": 2943, "pitch": 61, "duration": 5, "velocity": 82}, {"time": 2946, "pitch": 68, "duration": 18, "velocity": 86}, {"time": 2955, "pitch": 61, "duration": 10, "velocity": 82}, {"time": 2958, "pitch": 56, "duration": 10, "velocity": 81}, {"time": 2961, "pitch": 42, "duration": 24, "velocity": 89}, {"time": 2964, "pitch": 49, "duration": 21, "velocity": 75}, {"time": 2967, "pitch": 61, "duration": 7, "velocity": 82}, {"time": 2970, "pitch": 68, "duration": 15, "velocity": 87}, {"time": 2979, "pitch": 61, "duration": 6, "velocity": 83}, {"time": 2982, "pitch": 56, "duration": 3, "velocity": 84}, {"time": 2985, "pitch": 37, "duration": 23, "velocity": 86}, {"time": 2988, "pitch": 53, "duration": 4, "velocity": 89}, {"time": 2991, "pitch": 56, "duration": 4, "velocity": 86}, {"time": 2994, "pitch": 61, "duration": 10, "velocity": 89}, {"time": 3003, "pitch": 56, "duration": 6, "velocity": 89}, {"time": 3006, "pitch": 53, "duration": 10, "velocity": 88}, {"time": 3009, "pitch": 37, "duration": 25, "velocity": 87}, {"time": 3015, "pitch": 56, "duration": 4, "velocity": 84}, {"time": 3018, "pitch": 61, "duration": 7, "velocity": 91}, {"time": 3024, "pitch": 56, "duration": 4, "velocity": 88}, {"time": 3027, "pitch": 53, "duration": 4, "velocity": 89}, {"time": 3030, "pitch": 61, "duration": 4, "velocity": 88}, {"time": 3033, "pitch": 42, "duration": 10, "velocity": 81}, {"time": 3036, "pitch": 49, "duration": 7, "velocity": 80}, {"time": 3039, "pitch": 61, "duration": 4, "velocity": 82}, {"time": 3042, "pitch": 66, "duration": 19, "velocity": 89}, {"time": 3048, "pitch": 61, "duration": 8, "velocity": 78}, {"time": 3051, "pitch": 54, "duration": 4, "velocity": 73}, {"time": 3057, "pitch": 49, "duration": 14, "velocity": 88}, {"time": 3061, "pitch": 56, "duration": 9, "velocity": 69}, {"time": 3064, "pitch": 63, "duration": 4, "velocity": 80}, {"time": 3067, "pitch": 65, "duration": 6, "velocity": 81}], "annotations": [{"time": 185, "annotation": {"number": 64, "value": 127}, "group": "control_change"}, {"time": 200, "annotation": {"number": 64, "value": 0}, "group": "control_change"}, {"time": 201, "annotation": {"number": 64, "value": 127}, "group": "control_change"}, {"time": 224, "annotation": {"number": 64, "value": 0}, "group": "control_change"}, {"time": 225, "annotation": {"number": 64, "value": 127}, "group": "control_change"}, {"time": 248, "annotation": {"number": 64, "value": 0}, "group": "control_change"}, {"time": 250, "annotation": {"number": 64, "value": 127}, "group": "control_change"}, {"time": 272, "annotation": {"number": 64, "value": 0}, "group": "control_change"}, {"time": 275, "annotation": {"number": 64, "value": 127}, "group": "control_change"}, {"time": 295, "annotation": {"number": 64, "value": 0}, "group": "control_change"}, {"time": 298, "annotation": {"number": 64, "value": 127}, "group": "control_change"}, {"time": 320, "annotation": {"number": 64, "value": 0}, "group": "control_change"}, {"time": 323, "annotation": {"number": 64, "value": 127}, "group": "control_change"}, {"time": 344, "annotation": {"number": 64, "value": 0}, "group": "control_change"}, {"time": 347, "annotation": {"number": 64, "value": 127}, "group": "control_change"}, {"time": 368, "annotation": {"number": 64, "value": 0}, "group": "control_change"}, {"time": 373, "annotation": {"number": 64, "value": 127}, "group": "control_change"}, {"time": 392, "annotation": {"number": 64, "value": 0}, "group": "control_change"}, {"time": 395, "annotation": {"number": 64, "value": 127}, "group": "control_change"}, {"time": 416, "annotation": {"number": 64, "value": 0}, "group": "control_change"}, {"time": 419, "annotation": {"number": 64, "value": 127}, "group": "control_change"}, {"time": 440, "annotation": {"number": 64, "value": 0}, "group": "control_change"}, {"time": 442, "annotation": {"number": 64, "value": 127}, "group": "control_change"}, {"time": 464, "annotation": {"number": 64, "value": 0}, "group": "control_change"}, {"time": 471, "annotation": {"number": 64, "value": 127}, "group": "control_change"}, {"time": 488, "annotation": {"number": 64, "value": 0}, "group": "control_change"}, {"time": 491, "annotation": {"number": 64, "value": 127}, "group": "control_change"}, {"time": 512, "annotation": {"number": 64, "value": 0}, "group": "control_change"}, {"time": 514, "annotation": {"number": 64, "value": 127}, "group": "control_change"}, {"time": 536, "annotation": {"number": 64, "value": 0}, "group": "control_change"}, {"time": 538, "annotation": {"number": 64, "value": 127}, "group": "control_change"}, {"time": 560, "annotation": {"number": 64, "value": 0}, "group": "control_change"}, {"time": 561, "annotation": {"number": 64, "value": 127}, "group": "control_change"}, {"time": 573, "annotation": {"number": 64, "value": 0}, "group": "control_change"}, {"time": 574, "annotation": {"number": 64, "value": 127}, "group": "control_change"}, {"time": 582, "annotation": {"number": 64, "value": 0}, "group": "control_change"}, {"time": 609, "annotation": {"number": 64, "value": 0}, "group": "control_change"}, {"time": 611, "annotation": {"number": 64, "value": 127}, "group": "control_change"}, {"time": 632, "annotation": {"number": 64, "value": 0}, "group": "control_change"}, {"time": 635, "annotation": {"number": 64, "value": 127}, "group": "control_change"}, {"time": 657, "annotation": {"number": 64, "value": 0}, "group": "control_change"}, {"time": 659, "annotation": {"number": 64, "value": 127}, "group": "control_change"}, {"time": 682, "annotation": {"number": 64, "value": 0}, "group": "control_change"}, {"time": 683, "annotation": {"number": 64, "value": 127}, "group": "control_change"}, {"time": 704, "annotation": {"number": 64, "value": 0}, "group": "control_change"}, {"time": 706, "annotation": {"number": 64, "value": 127}, "group": "control_change"}, {"time": 727, "annotation": {"number": 64, "value": 0}, "group": "control_change"}, {"time": 730, "annotation": {"number": 64, "value": 127}, "group": "control_change"}, {"time": 751, "annotation": {"number": 64, "value": 0}, "group": "control_change"}, {"time": 757, "annotation": {"number": 64, "value": 127}, "group": "control_change"}, {"time": 775, "annotation": {"number": 64, "value": 0}, "group": "control_change"}, {"time": 778, "annotation": {"number": 64, "value": 127}, "group": "control_change"}, {"time": 801, "annotation": {"number": 64, "value": 0}, "group": "control_change"}, {"time": 803, "annotation": {"number": 64, "value": 127}, "group": "control_change"}, {"time": 825, "annotation": {"number": 64, "value": 0}, "group": "control_change"}, {"time": 827, "annotation": {"number": 64, "value": 127}, "group": "control_change"}, {"time": 850, "annotation": {"number": 64, "value": 0}, "group": "control_change"}, {"time": 852, "annotation": {"number": 64, "value": 127}, "group": "control_change"}, {"time": 874, "annotation": {"number": 64, "value": 0}, "group": "control_change"}, {"time": 878, "annotation": {"number": 64, "value": 127}, "group": "control_change"}, {"time": 897, "annotation": {"number": 64, "value": 0}, "group": "control_change"}, {"time": 899, "annotation": {"number": 64, "value": 127}, "group": "control_change"}, {"time": 921, "annotation": {"number": 64, "value": 0}, "group": "control_change"}, {"time": 923, "annotation": {"number": 64, "value": 127}, "group": "control_change"}, {"time": 944, "annotation": {"number": 64, "value": 0}, "group": "control_change"}, {"time": 949, "annotation": {"number": 64, "value": 127}, "group": "control_change"}, {"time": 969, "annotation": {"number": 64, "value": 0}, "group": "control_change"}, {"time": 973, "annotation": {"number": 64, "value": 127}, "group": "control_change"}, {"time": 993, "annotation": {"number": 64, "value": 0}, "group": "control_change"}, {"time": 995, "annotation": {"number": 64, "value": 127}, "group": "control_change"}, {"time": 1017, "annotation": {"number": 64, "value": 0}, "group": "control_change"}, {"time": 1019, "annotation": {"number": 64, "value": 127}, "group": "control_change"}, {"time": 1041, "annotation": {"number": 64, "value": 0}, "group": "control_change"}, {"time": 1043, "annotation": {"number": 64, "value": 127}, "group": "control_change"}, {"time": 1065, "annotation": {"number": 64, "value": 0}, "group": "control_change"}, {"time": 1068, "annotation": {"number": 64, "value": 127}, "group": "control_change"}, {"time": 1089, "annotation": {"number": 64, "value": 0}, "group": "control_change"}, {"time": 1091, "annotation": {"number": 64, "value": 127}, "group": "control_change"}, {"time": 1112, "annotation": {"number": 64, "value": 0}, "group": "control_change"}, {"time": 1114, "annotation": {"number": 64, "value": 127}, "group": "control_change"}, {"time": 1137, "annotation": {"number": 64, "value": 0}, "group": "control_change"}, {"time": 1138, "annotation": {"number": 64, "value": 127}, "group": "control_change"}, {"time": 1162, "annotation": {"number": 64, "value": 0}, "group": "control_change"}, {"time": 1164, "annotation": {"number": 64, "value": 127}, "group": "control_change"}, {"time": 1185, "annotation": {"number": 64, "value": 0}, "group": "control_change"}, {"time": 1186, "annotation": {"number": 64, "value": 127}, "group": "control_change"}, {"time": 1207, "annotation": {"number": 64, "value": 0}, "group": "control_change"}, {"time": 1211, "annotation": {"number": 64, "value": 127}, "group": "control_change"}, {"time": 1232, "annotation": {"number": 64, "value": 0}, "group": "control_change"}, {"time": 1235, "annotation": {"number": 64, "value": 127}, "group": "control_change"}, {"time": 1256, "annotation": {"number": 64, "value": 0}, "group": "control_change"}, {"time": 1258, "annotation": {"number": 64, "value": 127}, "group": "control_change"}, {"time": 1280, "annotation": {"number": 64, "value": 0}, "group": "control_change"}, {"time": 1287, "annotation": {"number": 64, "value": 127}, "group": "control_change"}, {"time": 1304, "annotation": {"number": 64, "value": 0}, "group": "control_change"}, {"time": 1307, "annotation": {"number": 64, "value": 127}, "group": "control_change"}, {"time": 1328, "annotation": {"number": 64, "value": 0}, "group": "control_change"}, {"time": 1330, "annotation": {"number": 64, "value": 127}, "group": "control_change"}, {"time": 1352, "annotation": {"number": 64, "value": 0}, "group": "control_change"}, {"time": 1354, "annotation": {"number": 64, "value": 127}, "group": "control_change"}, {"time": 1376, "annotation": {"number": 64, "value": 0}, "group": "control_change"}, {"time": 1377, "annotation": {"number": 64, "value": 127}, "group": "control_change"}, {"time": 1389, "annotation": {"number": 64, "value": 0}, "group": "control_change"}, {"time": 1390, "annotation": {"number": 64, "value": 127}, "group": "control_change"}, {"time": 1398, "annotation": {"number": 64, "value": 0}, "group": "control_change"}, {"time": 1402, "annotation": {"number": 64, "value": 127}, "group": "control_change"}, {"time": 1425, "annotation": {"number": 64, "value": 0}, "group": "control_change"}, {"time": 1426, "annotation": {"number": 64, "value": 127}, "group": "control_change"}, {"time": 1449, "annotation": {"number": 64, "value": 0}, "group": "control_change"}, {"time": 1450, "annotation": {"number": 64, "value": 127}, "group": "control_change"}, {"time": 1473, "annotation": {"number": 64, "value": 0}, "group": "control_change"}, {"time": 1475, "annotation": {"number": 64, "value": 127}, "group": "control_change"}, {"time": 1495, "annotation": {"number": 64, "value": 0}, "group": "control_change"}, {"time": 1520, "annotation": {"number": 64, "value": 0}, "group": "control_change"}, {"time": 1521, "annotation": {"number": 64, "value": 127}, "group": "control_change"}, {"time": 1544, "annotation": {"number": 64, "value": 0}, "group": "control_change"}, {"time": 1546, "annotation": {"number": 64, "value": 127}, "group": "control_change"}, {"time": 1568, "annotation": {"number": 64, "value": 0}, "group": "control_change"}, {"time": 1569, "annotation": {"number": 64, "value": 127}, "group": "control_change"}, {"time": 1592, "annotation": {"number": 64, "value": 0}, "group": "control_change"}, {"time": 1598, "annotation": {"number": 64, "value": 127}, "group": "control_change"}, {"time": 1617, "annotation": {"number": 64, "value": 0}, "group": "control_change"}, {"time": 1619, "annotation": {"number": 64, "value": 127}, "group": "control_change"}, {"time": 1640, "annotation": {"number": 64, "value": 0}, "group": "control_change"}, {"time": 1641, "annotation": {"number": 64, "value": 127}, "group": "control_change"}, {"time": 1665, "annotation": {"number": 64, "value": 0}, "group": "control_change"}, {"time": 1666, "annotation": {"number": 64, "value": 127}, "group": "control_change"}, {"time": 1689, "annotation": {"number": 64, "value": 0}, "group": "control_change"}, {"time": 1693, "annotation": {"number": 64, "value": 127}, "group": "control_change"}, {"time": 1713, "annotation": {"number": 64, "value": 0}, "group": "control_change"}, {"time": 1717, "annotation": {"number": 64, "value": 127}, "group": "control_change"}, {"time": 1737, "annotation": {"number": 64, "value": 0}, "group": "control_change"}, {"time": 1738, "annotation": {"number": 64, "value": 127}, "group": "control_change"}, {"time": 1760, "annotation": {"number": 64, "value": 0}, "group": "control_change"}, {"time": 1762, "annotation": {"number": 64, "value": 127}, "group": "control_change"}, {"time": 1784, "annotation": {"number": 64, "value": 0}, "group": "control_change"}, {"time": 1789, "annotation": {"number": 64, "value": 127}, "group": "control_change"}, {"time": 1809, "annotation": {"number": 64, "value": 0}, "group": "control_change"}, {"time": 1810, "annotation": {"number": 64, "value": 127}, "group": "control_change"}, {"time": 1833, "annotation": {"number": 64, "value": 0}, "group": "control_change"}, {"time": 1834, "annotation": {"number": 64, "value": 127}, "group": "control_change"}, {"time": 1857, "annotation": {"number": 64, "value": 0}, "group": "control_change"}, {"time": 1859, "annotation": {"number": 64, "value": 127}, "group": "control_change"}, {"time": 1882, "annotation": {"number": 64, "value": 0}, "group": "control_change"}, {"time": 1886, "annotation": {"number": 64, "value": 127}, "group": "control_change"}, {"time": 1905, "annotation": {"number": 64, "value": 0}, "group": "control_change"}, {"time": 1909, "annotation": {"number": 64, "value": 127}, "group": "control_change"}, {"time": 1927, "annotation": {"number": 64, "value": 0}, "group": "control_change"}, {"time": 1931, "annotation": {"number": 64, "value": 127}, "group": "control_change"}, {"time": 1953, "annotation": {"number": 64, "value": 0}, "group": "control_change"}, {"time": 1957, "annotation": {"number": 64, "value": 127}, "group": "control_change"}, {"time": 1978, "annotation": {"number": 64, "value": 0}, "group": "control_change"}, {"time": 1980, "annotation": {"number": 64, "value": 127}, "group": "control_change"}, {"time": 2002, "annotation": {"number": 64, "value": 0}, "group": "control_change"}, {"time": 2003, "annotation": {"number": 64, "value": 127}, "group": "control_change"}, {"time": 2026, "annotation": {"number": 64, "value": 127}, "group": "control_change"}, {"time": 2050, "annotation": {"number": 64, "value": 0}, "group": "control_change"}, {"time": 2051, "annotation": {"number": 64, "value": 127}, "group": "control_change"}, {"time": 2074, "annotation": {"number": 64, "value": 0}, "group": "control_change"}, {"time": 2077, "annotation": {"number": 64, "value": 127}, "group": "control_change"}, {"time": 2098, "annotation": {"number": 64, "value": 0}, "group": "control_change"}, {"time": 2101, "annotation": {"number": 64, "value": 127}, "group": "control_change"}, {"time": 2121, "annotation": {"number": 64, "value": 0}, "group": "control_change"}, {"time": 2122, "annotation": {"number": 64, "value": 127}, "group": "control_change"}, {"time": 2145, "annotation": {"number": 64, "value": 0}, "group": "control_change"}, {"time": 2147, "annotation": {"number": 64, "value": 127}, "group": "control_change"}, {"time": 2169, "annotation": {"number": 64, "value": 0}, "group": "control_change"}, {"time": 2171, "annotation": {"number": 64, "value": 127}, "group": "control_change"}, {"time": 2194, "annotation": {"number": 64, "value": 0}, "group": "control_change"}, {"time": 2196, "annotation": {"number": 64, "value": 127}, "group": "control_change"}, {"time": 2218, "annotation": {"number": 64, "value": 0}, "group": "control_change"}, {"time": 2222, "annotation": {"number": 64, "value": 127}, "group": "control_change"}, {"time": 2241, "annotation": {"number": 64, "value": 0}, "group": "control_change"}, {"time": 2243, "annotation": {"number": 64, "value": 127}, "group": "control_change"}, {"time": 2265, "annotation": {"number": 64, "value": 0}, "group": "control_change"}, {"time": 2267, "annotation": {"number": 64, "value": 127}, "group": "control_change"}, {"time": 2288, "annotation": {"number": 64, "value": 0}, "group": "control_change"}, {"time": 2290, "annotation": {"number": 64, "value": 127}, "group": "control_change"}, {"time": 2312, "annotation": {"number": 64, "value": 0}, "group": "control_change"}, {"time": 2317, "annotation": {"number": 64, "value": 127}, "group": "control_change"}, {"time": 2337, "annotation": {"number": 64, "value": 0}, "group": "control_change"}, {"time": 2338, "annotation": {"number": 64, "value": 127}, "group": "control_change"}, {"time": 2361, "annotation": {"number": 64, "value": 0}, "group": "control_change"}, {"time": 2362, "annotation": {"number": 64, "value": 127}, "group": "control_change"}, {"time": 2385, "annotation": {"number": 64, "value": 0}, "group": "control_change"}, {"time": 2387, "annotation": {"number": 64, "value": 127}, "group": "control_change"}, {"time": 2410, "annotation": {"number": 64, "value": 0}, "group": "control_change"}, {"time": 2414, "annotation": {"number": 64, "value": 127}, "group": "control_change"}, {"time": 2433, "annotation": {"number": 64, "value": 0}, "group": "control_change"}, {"time": 2437, "annotation": {"number": 64, "value": 127}, "group": "control_change"}, {"time": 2455, "annotation": {"number": 64, "value": 0}, "group": "control_change"}, {"time": 2481, "annotation": {"number": 64, "value": 0}, "group": "control_change"}, {"time": 2484, "annotation": {"number": 64, "value": 127}, "group": "control_change"}, {"time": 2507, "annotation": {"number": 64, "value": 0}, "group": "control_change"}, {"time": 2510, "annotation": {"number": 64, "value": 127}, "group": "control_change"}, {"time": 2529, "annotation": {"number": 64, "value": 0}, "group": "control_change"}, {"time": 2530, "annotation": {"number": 64, "value": 127}, "group": "control_change"}, {"time": 2551, "annotation": {"number": 64, "value": 0}, "group": "control_change"}, {"time": 2552, "annotation": {"number": 64, "value": 127}, "group": "control_change"}, {"time": 2600, "annotation": {"number": 64, "value": 0}, "group": "control_change"}, {"time": 2602, "annotation": {"number": 64, "value": 127}, "group": "control_change"}, {"time": 2625, "annotation": {"number": 64, "value": 0}, "group": "control_change"}, {"time": 2626, "annotation": {"number": 64, "value": 127}, "group": "control_change"}, {"time": 2754, "annotation": {"number": 64, "value": 127}, "group": "control_change"}, {"time": 2769, "annotation": {"number": 64, "value": 0}, "group": "control_change"}, {"time": 2794, "annotation": {"number": 64, "value": 127}, "group": "control_change"}, {"time": 2817, "annotation": {"number": 64, "value": 0}, "group": "control_change"}, {"time": 2820, "annotation": {"number": 64, "value": 127}, "group": "control_change"}, {"time": 2839, "annotation": {"number": 64, "value": 0}, "group": "control_change"}, {"time": 2850, "annotation": {"number": 64, "value": 127}, "group": "control_change"}, {"time": 2865, "annotation": {"number": 64, "value": 0}, "group": "control_change"}, {"time": 2890, "annotation": {"number": 64, "value": 127}, "group": "control_change"}, {"time": 2913, "annotation": {"number": 64, "value": 0}, "group": "control_change"}, {"time": 2916, "annotation": {"number": 64, "value": 127}, "group": "control_change"}, {"time": 2935, "annotation": {"number": 64, "value": 0}, "group": "control_change"}, {"time": 2946, "annotation": {"number": 64, "value": 127}, "group": "control_change"}, {"time": 2961, "annotation": {"number": 64, "value": 0}, "group": "control_change"}, {"time": 2986, "annotation": {"number": 64, "value": 127}, "group": "control_change"}, {"time": 3009, "annotation": {"number": 64, "value": 0}, "group": "control_change"}, {"time": 3012, "annotation": {"number": 64, "value": 127}, "group": "control_change"}, {"time": 3031, "annotation": {"number": 64, "value": 0}, "group": "control_change"}, {"time": 3034, "annotation": {"number": 64, "value": 127}, "group": "control_change"}, {"time": 3057, "annotation": {"number": 64, "value": 0}, "group": "control_change"}, {"time": 3059, "annotation": {"number": 64, "value": 127}, "group": "control_change"}, {"time": 3075, "annotation": {"number": 64, "value": 0}, "group": "control_change"}]}]}