{"metadata": {"schema_version": "0.2", "title": "None", "source_filename": "414.mid", "source_format": "midi"}, "resolution": 12, "tempos": [{"time": 0, "qpm": 61.00003456668625}], "time_signatures": [{"time": 0, "numerator": 1, "denominator": 4}], "tracks": [{"program": 0, "is_drum": false, "name": "MELODY", "notes": [{"time": 237, "pitch": 68, "duration": 2, "velocity": 92}, {"time": 240, "pitch": 67, "duration": 3, "velocity": 94}, {"time": 243, "pitch": 65, "duration": 4, "velocity": 98}, {"time": 249, "pitch": 65, "duration": 2, "velocity": 95}, {"time": 252, "pitch": 63, "duration": 2, "velocity": 92}, {"time": 255, "pitch": 65, "duration": 5, "velocity": 97}, {"time": 261, "pitch": 63, "duration": 4, "velocity": 95}, {"time": 267, "pitch": 65, "duration": 5, "velocity": 95}, {"time": 273, "pitch": 67, "duration": 2, "velocity": 91}, {"time": 276, "pitch": 68, "duration": 5, "velocity": 91}, {"time": 282, "pitch": 68, "duration": 2, "velocity": 89}, {"time": 285, "pitch": 68, "duration": 2, "velocity": 91}, {"time": 288, "pitch": 70, "duration": 2, "velocity": 94}, {"time": 291, "pitch": 72, "duration": 6, "velocity": 92}, {"time": 297, "pitch": 70, "duration": 4, "velocity": 92}, {"time": 303, "pitch": 72, "duration": 5, "velocity": 93}, {"time": 309, "pitch": 75, "duration": 2, "velocity": 97}, {"time": 312, "pitch": 72, "duration": 12, "velocity": 91}, {"time": 333, "pitch": 72, "duration": 2, "velocity": 93}, {"time": 336, "pitch": 70, "duration": 2, "velocity": 92}, {"time": 339, "pitch": 70, "duration": 5, "velocity": 94}, {"time": 345, "pitch": 70, "duration": 2, "velocity": 91}, {"time": 348, "pitch": 68, "duration": 2, "velocity": 78}, {"time": 351, "pitch": 70, "duration": 4, "velocity": 92}, {"time": 357, "pitch": 70, "duration": 2, "velocity": 91}, {"time": 360, "pitch": 72, "duration": 2, "velocity": 90}, {"time": 363, "pitch": 70, "duration": 5, "velocity": 92}, {"time": 369, "pitch": 68, "duration": 2, "velocity": 91}, {"time": 372, "pitch": 65, "duration": 6, "velocity": 93}, {"time": 381, "pitch": 65, "duration": 2, "velocity": 92}, {"time": 384, "pitch": 67, "duration": 2, "velocity": 95}, {"time": 387, "pitch": 68, "duration": 7, "velocity": 91}, {"time": 396, "pitch": 68, "duration": 2, "velocity": 90}, {"time": 399, "pitch": 68, "duration": 6, "velocity": 92}, {"time": 408, "pitch": 65, "duration": 3, "velocity": 96}, {"time": 411, "pitch": 63, "duration": 18, "velocity": 94}, {"time": 429, "pitch": 68, "duration": 2, "velocity": 92}, {"time": 432, "pitch": 67, "duration": 3, "velocity": 94}, {"time": 435, "pitch": 65, "duration": 4, "velocity": 98}, {"time": 441, "pitch": 65, "duration": 2, "velocity": 95}, {"time": 444, "pitch": 63, "duration": 2, "velocity": 92}, {"time": 447, "pitch": 65, "duration": 5, "velocity": 97}, {"time": 453, "pitch": 63, "duration": 4, "velocity": 95}, {"time": 459, "pitch": 65, "duration": 5, "velocity": 95}, {"time": 465, "pitch": 67, "duration": 2, "velocity": 91}, {"time": 468, "pitch": 68, "duration": 5, "velocity": 91}, {"time": 474, "pitch": 68, "duration": 2, "velocity": 89}, {"time": 477, "pitch": 68, "duration": 2, "velocity": 91}, {"time": 480, "pitch": 70, "duration": 2, "velocity": 94}, {"time": 483, "pitch": 72, "duration": 6, "velocity": 92}, {"time": 489, "pitch": 70, "duration": 4, "velocity": 92}, {"time": 495, "pitch": 72, "duration": 5, "velocity": 93}, {"time": 501, "pitch": 75, "duration": 2, "velocity": 97}, {"time": 504, "pitch": 72, "duration": 12, "velocity": 91}, {"time": 525, "pitch": 72, "duration": 2, "velocity": 93}, {"time": 528, "pitch": 75, "duration": 2, "velocity": 92}, {"time": 531, "pitch": 70, "duration": 5, "velocity": 94}, {"time": 537, "pitch": 70, "duration": 2, "velocity": 91}, {"time": 540, "pitch": 68, "duration": 2, "velocity": 78}, {"time": 543, "pitch": 70, "duration": 4, "velocity": 92}, {"time": 549, "pitch": 70, "duration": 2, "velocity": 91}, {"time": 552, "pitch": 72, "duration": 2, "velocity": 90}, {"time": 555, "pitch": 70, "duration": 5, "velocity": 92}, {"time": 561, "pitch": 68, "duration": 2, "velocity": 91}, {"time": 564, "pitch": 65, "duration": 6, "velocity": 93}, {"time": 573, "pitch": 65, "duration": 2, "velocity": 92}, {"time": 576, "pitch": 67, "duration": 2, "velocity": 95}, {"time": 579, "pitch": 68, "duration": 7, "velocity": 91}, {"time": 588, "pitch": 67, "duration": 2, "velocity": 90}, {"time": 591, "pitch": 65, "duration": 6, "velocity": 92}, {"time": 597, "pitch": 63, "duration": 6, "velocity": 96}, {"time": 603, "pitch": 65, "duration": 18, "velocity": 94}, {"time": 621, "pitch": 68, "duration": 2, "velocity": 93}, {"time": 624, "pitch": 70, "duration": 2, "velocity": 91}, {"time": 627, "pitch": 72, "duration": 9, "velocity": 95}, {"time": 636, "pitch": 70, "duration": 2, "velocity": 97}, {"time": 639, "pitch": 72, "duration": 5, "velocity": 100}, {"time": 645, "pitch": 77, "duration": 5, "velocity": 96}, {"time": 651, "pitch": 75, "duration": 15, "velocity": 98}, {"time": 669, "pitch": 72, "duration": 2, "velocity": 98}, {"time": 672, "pitch": 75, "duration": 2, "velocity": 102}, {"time": 675, "pitch": 77, "duration": 5, "velocity": 97}, {"time": 681, "pitch": 77, "duration": 2, "velocity": 95}, {"time": 684, "pitch": 75, "duration": 2, "velocity": 107}, {"time": 687, "pitch": 77, "duration": 7, "velocity": 98}, {"time": 696, "pitch": 75, "duration": 6, "velocity": 98}, {"time": 702, "pitch": 72, "duration": 12, "velocity": 92}, {"time": 717, "pitch": 72, "duration": 2, "velocity": 98}, {"time": 720, "pitch": 75, "duration": 2, "velocity": 100}, {"time": 723, "pitch": 77, "duration": 4, "velocity": 96}, {"time": 729, "pitch": 77, "duration": 2, "velocity": 95}, {"time": 732, "pitch": 75, "duration": 2, "velocity": 98}, {"time": 735, "pitch": 77, "duration": 5, "velocity": 98}, {"time": 741, "pitch": 75, "duration": 5, "velocity": 102}, {"time": 747, "pitch": 72, "duration": 4, "velocity": 93}, {"time": 753, "pitch": 72, "duration": 2, "velocity": 96}, {"time": 756, "pitch": 70, "duration": 2, "velocity": 93}, {"time": 759, "pitch": 72, "duration": 5, "velocity": 93}, {"time": 765, "pitch": 72, "duration": 3, "velocity": 97}, {"time": 768, "pitch": 75, "duration": 2, "velocity": 98}, {"time": 771, "pitch": 77, "duration": 5, "velocity": 97}, {"time": 777, "pitch": 77, "duration": 3, "velocity": 95}, {"time": 780, "pitch": 75, "duration": 2, "velocity": 105}, {"time": 783, "pitch": 77, "duration": 5, "velocity": 97}, {"time": 789, "pitch": 80, "duration": 5, "velocity": 95}, {"time": 795, "pitch": 79, "duration": 14, "velocity": 95}, {"time": 810, "pitch": 72, "duration": 3, "velocity": 97}, {"time": 813, "pitch": 80, "duration": 2, "velocity": 91}, {"time": 816, "pitch": 79, "duration": 2, "velocity": 95}, {"time": 819, "pitch": 77, "duration": 5, "velocity": 98}, {"time": 825, "pitch": 75, "duration": 4, "velocity": 107}, {"time": 831, "pitch": 72, "duration": 4, "velocity": 102}, {"time": 837, "pitch": 70, "duration": 3, "velocity": 91}, {"time": 840, "pitch": 72, "duration": 13, "velocity": 95}, {"time": 858, "pitch": 72, "duration": 2, "velocity": 102}, {"time": 861, "pitch": 80, "duration": 2, "velocity": 93}, {"time": 864, "pitch": 79, "duration": 2, "velocity": 97}, {"time": 867, "pitch": 77, "duration": 5, "velocity": 102}, {"time": 873, "pitch": 75, "duration": 4, "velocity": 102}, {"time": 879, "pitch": 72, "duration": 4, "velocity": 102}, {"time": 885, "pitch": 70, "duration": 2, "velocity": 95}, {"time": 888, "pitch": 72, "duration": 16, "velocity": 98}, {"time": 909, "pitch": 72, "duration": 2, "velocity": 93}, {"time": 912, "pitch": 75, "duration": 2, "velocity": 97}, {"time": 915, "pitch": 70, "duration": 5, "velocity": 93}, {"time": 921, "pitch": 72, "duration": 2, "velocity": 92}, {"time": 924, "pitch": 70, "duration": 6, "velocity": 95}, {"time": 933, "pitch": 68, "duration": 2, "velocity": 96}, {"time": 936, "pitch": 70, "duration": 2, "velocity": 98}, {"time": 939, "pitch": 72, "duration": 5, "velocity": 93}, {"time": 945, "pitch": 75, "duration": 2, "velocity": 97}, {"time": 948, "pitch": 72, "duration": 7, "velocity": 95}, {"time": 957, "pitch": 72, "duration": 3, "velocity": 95}, {"time": 960, "pitch": 75, "duration": 2, "velocity": 100}, {"time": 963, "pitch": 77, "duration": 3, "velocity": 93}, {"time": 966, "pitch": 77, "duration": 5, "velocity": 93}, {"time": 972, "pitch": 75, "duration": 2, "velocity": 102}, {"time": 975, "pitch": 77, "duration": 5, "velocity": 98}, {"time": 981, "pitch": 80, "duration": 2, "velocity": 96}, {"time": 984, "pitch": 79, "duration": 17, "velocity": 97}, {"time": 1002, "pitch": 72, "duration": 3, "velocity": 97}, {"time": 1005, "pitch": 80, "duration": 2, "velocity": 91}, {"time": 1008, "pitch": 79, "duration": 2, "velocity": 95}, {"time": 1011, "pitch": 77, "duration": 5, "velocity": 98}, {"time": 1017, "pitch": 75, "duration": 4, "velocity": 107}, {"time": 1023, "pitch": 72, "duration": 4, "velocity": 102}, {"time": 1029, "pitch": 70, "duration": 3, "velocity": 91}, {"time": 1032, "pitch": 72, "duration": 13, "velocity": 95}, {"time": 1050, "pitch": 72, "duration": 2, "velocity": 102}, {"time": 1053, "pitch": 80, "duration": 2, "velocity": 93}, {"time": 1056, "pitch": 79, "duration": 2, "velocity": 97}, {"time": 1059, "pitch": 77, "duration": 5, "velocity": 102}, {"time": 1065, "pitch": 75, "duration": 4, "velocity": 102}, {"time": 1071, "pitch": 72, "duration": 4, "velocity": 102}, {"time": 1077, "pitch": 75, "duration": 2, "velocity": 95}, {"time": 1080, "pitch": 72, "duration": 16, "velocity": 98}, {"time": 1101, "pitch": 72, "duration": 2, "velocity": 93}, {"time": 1104, "pitch": 75, "duration": 2, "velocity": 97}, {"time": 1107, "pitch": 70, "duration": 5, "velocity": 93}, {"time": 1113, "pitch": 72, "duration": 2, "velocity": 92}, {"time": 1116, "pitch": 70, "duration": 6, "velocity": 95}, {"time": 1125, "pitch": 68, "duration": 2, "velocity": 96}, {"time": 1128, "pitch": 70, "duration": 2, "velocity": 98}, {"time": 1131, "pitch": 72, "duration": 5, "velocity": 93}, {"time": 1137, "pitch": 75, "duration": 2, "velocity": 97}, {"time": 1140, "pitch": 72, "duration": 7, "velocity": 95}, {"time": 1149, "pitch": 72, "duration": 3, "velocity": 95}, {"time": 1152, "pitch": 75, "duration": 2, "velocity": 100}, {"time": 1155, "pitch": 77, "duration": 3, "velocity": 93}, {"time": 1158, "pitch": 77, "duration": 5, "velocity": 93}, {"time": 1164, "pitch": 75, "duration": 2, "velocity": 102}, {"time": 1167, "pitch": 77, "duration": 5, "velocity": 98}, {"time": 1173, "pitch": 80, "duration": 2, "velocity": 96}, {"time": 1176, "pitch": 79, "duration": 15, "velocity": 97}, {"time": 1191, "pitch": 80, "duration": 9, "velocity": 93}, {"time": 1200, "pitch": 79, "duration": 9, "velocity": 91}, {"time": 1209, "pitch": 77, "duration": 41, "velocity": 94}, {"time": 1629, "pitch": 68, "duration": 2, "velocity": 92}, {"time": 1632, "pitch": 67, "duration": 3, "velocity": 94}, {"time": 1635, "pitch": 65, "duration": 4, "velocity": 98}, {"time": 1641, "pitch": 65, "duration": 2, "velocity": 95}, {"time": 1644, "pitch": 63, "duration": 2, "velocity": 92}, {"time": 1647, "pitch": 65, "duration": 5, "velocity": 97}, {"time": 1653, "pitch": 63, "duration": 4, "velocity": 95}, {"time": 1659, "pitch": 65, "duration": 5, "velocity": 95}, {"time": 1665, "pitch": 67, "duration": 2, "velocity": 91}, {"time": 1668, "pitch": 68, "duration": 5, "velocity": 91}, {"time": 1674, "pitch": 68, "duration": 2, "velocity": 89}, {"time": 1677, "pitch": 68, "duration": 2, "velocity": 91}, {"time": 1680, "pitch": 70, "duration": 2, "velocity": 94}, {"time": 1683, "pitch": 72, "duration": 6, "velocity": 92}, {"time": 1689, "pitch": 70, "duration": 4, "velocity": 92}, {"time": 1695, "pitch": 72, "duration": 5, "velocity": 93}, {"time": 1701, "pitch": 75, "duration": 2, "velocity": 97}, {"time": 1704, "pitch": 72, "duration": 12, "velocity": 91}, {"time": 1725, "pitch": 72, "duration": 2, "velocity": 93}, {"time": 1728, "pitch": 75, "duration": 2, "velocity": 92}, {"time": 1731, "pitch": 70, "duration": 5, "velocity": 94}, {"time": 1737, "pitch": 70, "duration": 2, "velocity": 91}, {"time": 1740, "pitch": 68, "duration": 2, "velocity": 78}, {"time": 1743, "pitch": 70, "duration": 4, "velocity": 92}, {"time": 1749, "pitch": 70, "duration": 2, "velocity": 91}, {"time": 1752, "pitch": 72, "duration": 2, "velocity": 90}, {"time": 1755, "pitch": 70, "duration": 5, "velocity": 92}, {"time": 1761, "pitch": 68, "duration": 2, "velocity": 91}, {"time": 1764, "pitch": 65, "duration": 6, "velocity": 93}, {"time": 1773, "pitch": 65, "duration": 2, "velocity": 92}, {"time": 1776, "pitch": 67, "duration": 2, "velocity": 95}, {"time": 1779, "pitch": 68, "duration": 7, "velocity": 91}, {"time": 1788, "pitch": 67, "duration": 2, "velocity": 90}, {"time": 1791, "pitch": 65, "duration": 6, "velocity": 92}, {"time": 1797, "pitch": 63, "duration": 6, "velocity": 96}, {"time": 1803, "pitch": 65, "duration": 18, "velocity": 94}, {"time": 1821, "pitch": 68, "duration": 2, "velocity": 93}, {"time": 1824, "pitch": 70, "duration": 2, "velocity": 91}, {"time": 1827, "pitch": 72, "duration": 9, "velocity": 95}, {"time": 1836, "pitch": 70, "duration": 2, "velocity": 97}, {"time": 1839, "pitch": 72, "duration": 5, "velocity": 100}, {"time": 1845, "pitch": 77, "duration": 5, "velocity": 96}, {"time": 1851, "pitch": 75, "duration": 15, "velocity": 98}, {"time": 1869, "pitch": 72, "duration": 2, "velocity": 98}, {"time": 1872, "pitch": 75, "duration": 2, "velocity": 102}, {"time": 1875, "pitch": 77, "duration": 5, "velocity": 97}, {"time": 1881, "pitch": 77, "duration": 2, "velocity": 95}, {"time": 1884, "pitch": 75, "duration": 2, "velocity": 107}, {"time": 1887, "pitch": 77, "duration": 7, "velocity": 98}, {"time": 1896, "pitch": 75, "duration": 6, "velocity": 98}, {"time": 1902, "pitch": 72, "duration": 12, "velocity": 92}, {"time": 1917, "pitch": 72, "duration": 2, "velocity": 98}, {"time": 1920, "pitch": 75, "duration": 2, "velocity": 100}, {"time": 1923, "pitch": 77, "duration": 4, "velocity": 96}, {"time": 1929, "pitch": 77, "duration": 2, "velocity": 95}, {"time": 1932, "pitch": 75, "duration": 2, "velocity": 98}, {"time": 1935, "pitch": 77, "duration": 5, "velocity": 98}, {"time": 1941, "pitch": 75, "duration": 5, "velocity": 102}, {"time": 1947, "pitch": 72, "duration": 4, "velocity": 93}, {"time": 1953, "pitch": 72, "duration": 2, "velocity": 96}, {"time": 1956, "pitch": 70, "duration": 2, "velocity": 93}, {"time": 1959, "pitch": 72, "duration": 5, "velocity": 93}, {"time": 1965, "pitch": 72, "duration": 3, "velocity": 97}, {"time": 1968, "pitch": 75, "duration": 2, "velocity": 98}, {"time": 1971, "pitch": 77, "duration": 5, "velocity": 97}, {"time": 1977, "pitch": 77, "duration": 3, "velocity": 95}, {"time": 1980, "pitch": 75, "duration": 2, "velocity": 105}, {"time": 1983, "pitch": 77, "duration": 5, "velocity": 97}, {"time": 1989, "pitch": 80, "duration": 5, "velocity": 95}, {"time": 1995, "pitch": 79, "duration": 14, "velocity": 95}, {"time": 2010, "pitch": 72, "duration": 3, "velocity": 97}, {"time": 2013, "pitch": 80, "duration": 2, "velocity": 91}, {"time": 2016, "pitch": 79, "duration": 2, "velocity": 95}, {"time": 2019, "pitch": 77, "duration": 5, "velocity": 98}, {"time": 2025, "pitch": 75, "duration": 4, "velocity": 107}, {"time": 2031, "pitch": 72, "duration": 4, "velocity": 102}, {"time": 2037, "pitch": 70, "duration": 3, "velocity": 91}, {"time": 2040, "pitch": 72, "duration": 13, "velocity": 95}, {"time": 2058, "pitch": 72, "duration": 2, "velocity": 102}, {"time": 2061, "pitch": 80, "duration": 2, "velocity": 93}, {"time": 2064, "pitch": 79, "duration": 2, "velocity": 97}, {"time": 2067, "pitch": 77, "duration": 5, "velocity": 102}, {"time": 2073, "pitch": 75, "duration": 4, "velocity": 102}, {"time": 2079, "pitch": 72, "duration": 4, "velocity": 102}, {"time": 2085, "pitch": 70, "duration": 2, "velocity": 95}, {"time": 2088, "pitch": 72, "duration": 16, "velocity": 98}, {"time": 2109, "pitch": 72, "duration": 2, "velocity": 93}, {"time": 2112, "pitch": 75, "duration": 2, "velocity": 97}, {"time": 2115, "pitch": 70, "duration": 5, "velocity": 93}, {"time": 2121, "pitch": 72, "duration": 2, "velocity": 92}, {"time": 2124, "pitch": 70, "duration": 6, "velocity": 95}, {"time": 2133, "pitch": 68, "duration": 2, "velocity": 96}, {"time": 2136, "pitch": 70, "duration": 2, "velocity": 98}, {"time": 2139, "pitch": 72, "duration": 5, "velocity": 93}, {"time": 2145, "pitch": 75, "duration": 2, "velocity": 97}, {"time": 2148, "pitch": 72, "duration": 7, "velocity": 95}, {"time": 2157, "pitch": 72, "duration": 3, "velocity": 95}, {"time": 2160, "pitch": 75, "duration": 2, "velocity": 100}, {"time": 2163, "pitch": 77, "duration": 3, "velocity": 93}, {"time": 2166, "pitch": 77, "duration": 5, "velocity": 93}, {"time": 2172, "pitch": 75, "duration": 2, "velocity": 102}, {"time": 2175, "pitch": 77, "duration": 5, "velocity": 98}, {"time": 2181, "pitch": 80, "duration": 2, "velocity": 96}, {"time": 2184, "pitch": 79, "duration": 17, "velocity": 97}, {"time": 2202, "pitch": 72, "duration": 3, "velocity": 97}, {"time": 2205, "pitch": 80, "duration": 2, "velocity": 91}, {"time": 2208, "pitch": 79, "duration": 2, "velocity": 95}, {"time": 2211, "pitch": 77, "duration": 5, "velocity": 98}, {"time": 2217, "pitch": 75, "duration": 4, "velocity": 107}, {"time": 2223, "pitch": 72, "duration": 4, "velocity": 102}, {"time": 2229, "pitch": 70, "duration": 3, "velocity": 91}, {"time": 2232, "pitch": 72, "duration": 13, "velocity": 95}, {"time": 2250, "pitch": 72, "duration": 2, "velocity": 102}, {"time": 2253, "pitch": 80, "duration": 2, "velocity": 93}, {"time": 2256, "pitch": 79, "duration": 2, "velocity": 97}, {"time": 2259, "pitch": 77, "duration": 5, "velocity": 102}, {"time": 2265, "pitch": 75, "duration": 4, "velocity": 102}, {"time": 2271, "pitch": 72, "duration": 4, "velocity": 102}, {"time": 2277, "pitch": 75, "duration": 2, "velocity": 95}, {"time": 2280, "pitch": 72, "duration": 16, "velocity": 98}, {"time": 2301, "pitch": 72, "duration": 2, "velocity": 93}, {"time": 2304, "pitch": 75, "duration": 2, "velocity": 97}, {"time": 2307, "pitch": 70, "duration": 5, "velocity": 93}, {"time": 2313, "pitch": 72, "duration": 2, "velocity": 92}, {"time": 2316, "pitch": 70, "duration": 6, "velocity": 95}, {"time": 2325, "pitch": 68, "duration": 2, "velocity": 96}, {"time": 2328, "pitch": 70, "duration": 2, "velocity": 98}, {"time": 2331, "pitch": 72, "duration": 5, "velocity": 93}, {"time": 2337, "pitch": 75, "duration": 2, "velocity": 97}, {"time": 2340, "pitch": 72, "duration": 7, "velocity": 95}, {"time": 2349, "pitch": 72, "duration": 3, "velocity": 95}, {"time": 2352, "pitch": 75, "duration": 2, "velocity": 100}, {"time": 2355, "pitch": 77, "duration": 3, "velocity": 93}, {"time": 2358, "pitch": 77, "duration": 5, "velocity": 93}, {"time": 2364, "pitch": 75, "duration": 2, "velocity": 102}, {"time": 2367, "pitch": 77, "duration": 5, "velocity": 98}, {"time": 2373, "pitch": 80, "duration": 2, "velocity": 96}, {"time": 2376, "pitch": 79, "duration": 15, "velocity": 97}, {"time": 2391, "pitch": 80, "duration": 9, "velocity": 93}, {"time": 2400, "pitch": 79, "duration": 9, "velocity": 91}, {"time": 2409, "pitch": 77, "duration": 30, "velocity": 94}, {"time": 2442, "pitch": 72, "duration": 3, "velocity": 97}, {"time": 2445, "pitch": 80, "duration": 2, "velocity": 91}, {"time": 2448, "pitch": 79, "duration": 2, "velocity": 95}, {"time": 2451, "pitch": 77, "duration": 5, "velocity": 98}, {"time": 2457, "pitch": 75, "duration": 4, "velocity": 107}, {"time": 2463, "pitch": 72, "duration": 4, "velocity": 102}, {"time": 2469, "pitch": 70, "duration": 3, "velocity": 91}, {"time": 2472, "pitch": 72, "duration": 13, "velocity": 95}, {"time": 2490, "pitch": 72, "duration": 2, "velocity": 102}, {"time": 2493, "pitch": 80, "duration": 2, "velocity": 93}, {"time": 2496, "pitch": 79, "duration": 2, "velocity": 97}, {"time": 2499, "pitch": 77, "duration": 5, "velocity": 102}, {"time": 2505, "pitch": 75, "duration": 4, "velocity": 102}, {"time": 2511, "pitch": 72, "duration": 4, "velocity": 102}, {"time": 2517, "pitch": 70, "duration": 2, "velocity": 95}, {"time": 2520, "pitch": 72, "duration": 16, "velocity": 98}, {"time": 2541, "pitch": 72, "duration": 2, "velocity": 93}, {"time": 2544, "pitch": 75, "duration": 2, "velocity": 97}, {"time": 2547, "pitch": 70, "duration": 5, "velocity": 93}, {"time": 2553, "pitch": 72, "duration": 2, "velocity": 92}, {"time": 2556, "pitch": 70, "duration": 6, "velocity": 95}, {"time": 2565, "pitch": 68, "duration": 2, "velocity": 96}, {"time": 2568, "pitch": 70, "duration": 2, "velocity": 98}, {"time": 2571, "pitch": 72, "duration": 5, "velocity": 93}, {"time": 2577, "pitch": 75, "duration": 2, "velocity": 97}, {"time": 2580, "pitch": 72, "duration": 7, "velocity": 95}, {"time": 2589, "pitch": 72, "duration": 3, "velocity": 95}, {"time": 2592, "pitch": 75, "duration": 2, "velocity": 100}, {"time": 2595, "pitch": 77, "duration": 3, "velocity": 93}, {"time": 2598, "pitch": 77, "duration": 5, "velocity": 93}, {"time": 2604, "pitch": 75, "duration": 2, "velocity": 102}, {"time": 2607, "pitch": 77, "duration": 5, "velocity": 98}, {"time": 2613, "pitch": 80, "duration": 2, "velocity": 96}, {"time": 2616, "pitch": 79, "duration": 17, "velocity": 97}, {"time": 2634, "pitch": 72, "duration": 3, "velocity": 97}, {"time": 2637, "pitch": 80, "duration": 2, "velocity": 91}, {"time": 2640, "pitch": 79, "duration": 2, "velocity": 95}, {"time": 2643, "pitch": 77, "duration": 5, "velocity": 98}, {"time": 2649, "pitch": 75, "duration": 4, "velocity": 107}, {"time": 2655, "pitch": 72, "duration": 4, "velocity": 102}, {"time": 2661, "pitch": 70, "duration": 3, "velocity": 91}, {"time": 2664, "pitch": 72, "duration": 13, "velocity": 95}, {"time": 2682, "pitch": 72, "duration": 2, "velocity": 102}, {"time": 2685, "pitch": 80, "duration": 2, "velocity": 93}, {"time": 2688, "pitch": 79, "duration": 2, "velocity": 97}, {"time": 2691, "pitch": 77, "duration": 5, "velocity": 102}, {"time": 2697, "pitch": 75, "duration": 4, "velocity": 102}, {"time": 2703, "pitch": 72, "duration": 4, "velocity": 102}, {"time": 2709, "pitch": 75, "duration": 2, "velocity": 95}, {"time": 2712, "pitch": 72, "duration": 16, "velocity": 98}, {"time": 2733, "pitch": 72, "duration": 2, "velocity": 93}, {"time": 2736, "pitch": 75, "duration": 2, "velocity": 97}, {"time": 2739, "pitch": 70, "duration": 5, "velocity": 93}, {"time": 2745, "pitch": 72, "duration": 2, "velocity": 92}, {"time": 2748, "pitch": 70, "duration": 6, "velocity": 95}, {"time": 2757, "pitch": 68, "duration": 2, "velocity": 96}, {"time": 2760, "pitch": 70, "duration": 2, "velocity": 98}, {"time": 2763, "pitch": 72, "duration": 5, "velocity": 93}, {"time": 2769, "pitch": 75, "duration": 2, "velocity": 97}, {"time": 2772, "pitch": 72, "duration": 7, "velocity": 95}, {"time": 2781, "pitch": 72, "duration": 3, "velocity": 95}, {"time": 2784, "pitch": 75, "duration": 2, "velocity": 100}, {"time": 2787, "pitch": 77, "duration": 3, "velocity": 93}, {"time": 2790, "pitch": 77, "duration": 5, "velocity": 93}, {"time": 2796, "pitch": 75, "duration": 2, "velocity": 102}, {"time": 2799, "pitch": 77, "duration": 5, "velocity": 98}, {"time": 2805, "pitch": 80, "duration": 2, "velocity": 96}, {"time": 2808, "pitch": 79, "duration": 15, "velocity": 97}, {"time": 2823, "pitch": 80, "duration": 9, "velocity": 93}, {"time": 2832, "pitch": 79, "duration": 9, "velocity": 91}, {"time": 2841, "pitch": 77, "duration": 30, "velocity": 94}]}, {"program": 0, "is_drum": false, "name": "PIANO", "notes": [{"time": 51, "pitch": 53, "duration": 18, "velocity": 100}, {"time": 51, "pitch": 60, "duration": 3, "velocity": 92}, {"time": 51, "pitch": 65, "duration": 8, "velocity": 92}, {"time": 57, "pitch": 60, "duration": 4, "velocity": 81}, {"time": 63, "pitch": 60, "duration": 3, "velocity": 93}, {"time": 63, "pitch": 65, "duration": 4, "velocity": 100}, {"time": 63, "pitch": 68, "duration": 4, "velocity": 93}, {"time": 66, "pitch": 60, "duration": 2, "velocity": 80}, {"time": 69, "pitch": 60, "duration": 1, "velocity": 76}, {"time": 69, "pitch": 65, "duration": 3, "velocity": 98}, {"time": 72, "pitch": 68, "duration": 3, "velocity": 82}, {"time": 75, "pitch": 39, "duration": 20, "velocity": 94}, {"time": 75, "pitch": 63, "duration": 5, "velocity": 79}, {"time": 75, "pitch": 67, "duration": 5, "velocity": 84}, {"time": 81, "pitch": 46, "duration": 8, "velocity": 70}, {"time": 87, "pitch": 63, "duration": 4, "velocity": 94}, {"time": 87, "pitch": 70, "duration": 4, "velocity": 93}, {"time": 90, "pitch": 67, "duration": 4, "velocity": 81}, {"time": 93, "pitch": 63, "duration": 5, "velocity": 88}, {"time": 96, "pitch": 67, "duration": 2, "velocity": 77}, {"time": 99, "pitch": 37, "duration": 1, "velocity": 91}, {"time": 99, "pitch": 61, "duration": 3, "velocity": 89}, {"time": 99, "pitch": 65, "duration": 3, "velocity": 86}, {"time": 99, "pitch": 68, "duration": 3, "velocity": 84}, {"time": 102, "pitch": 61, "duration": 4, "velocity": 86}, {"time": 105, "pitch": 65, "duration": 4, "velocity": 91}, {"time": 108, "pitch": 68, "duration": 9, "velocity": 87}, {"time": 111, "pitch": 56, "duration": 9, "velocity": 87}, {"time": 114, "pitch": 61, "duration": 5, "velocity": 89}, {"time": 117, "pitch": 65, "duration": 4, "velocity": 90}, {"time": 120, "pitch": 68, "duration": 2, "velocity": 85}, {"time": 123, "pitch": 44, "duration": 18, "velocity": 91}, {"time": 123, "pitch": 63, "duration": 4, "velocity": 86}, {"time": 123, "pitch": 68, "duration": 6, "velocity": 85}, {"time": 126, "pitch": 51, "duration": 11, "velocity": 82}, {"time": 129, "pitch": 63, "duration": 4, "velocity": 88}, {"time": 132, "pitch": 68, "duration": 2, "velocity": 81}, {"time": 135, "pitch": 63, "duration": 4, "velocity": 96}, {"time": 135, "pitch": 72, "duration": 4, "velocity": 93}, {"time": 138, "pitch": 68, "duration": 3, "velocity": 86}, {"time": 141, "pitch": 63, "duration": 4, "velocity": 88}, {"time": 144, "pitch": 68, "duration": 2, "velocity": 83}, {"time": 147, "pitch": 46, "duration": 22, "velocity": 90}, {"time": 147, "pitch": 65, "duration": 6, "velocity": 92}, {"time": 147, "pitch": 70, "duration": 10, "velocity": 93}, {"time": 153, "pitch": 53, "duration": 8, "velocity": 85}, {"time": 156, "pitch": 65, "duration": 2, "velocity": 85}, {"time": 159, "pitch": 65, "duration": 4, "velocity": 98}, {"time": 159, "pitch": 73, "duration": 3, "velocity": 93}, {"time": 162, "pitch": 70, "duration": 4, "velocity": 88}, {"time": 165, "pitch": 65, "duration": 4, "velocity": 93}, {"time": 168, "pitch": 70, "duration": 4, "velocity": 92}, {"time": 171, "pitch": 46, "duration": 5, "velocity": 93}, {"time": 171, "pitch": 58, "duration": 5, "velocity": 90}, {"time": 171, "pitch": 70, "duration": 1, "velocity": 91}, {"time": 177, "pitch": 48, "duration": 6, "velocity": 91}, {"time": 177, "pitch": 60, "duration": 7, "velocity": 93}, {"time": 177, "pitch": 72, "duration": 3, "velocity": 93}, {"time": 183, "pitch": 51, "duration": 7, "velocity": 105}, {"time": 183, "pitch": 63, "duration": 7, "velocity": 95}, {"time": 189, "pitch": 48, "duration": 5, "velocity": 97}, {"time": 189, "pitch": 60, "duration": 4, "velocity": 96}, {"time": 195, "pitch": 49, "duration": 15, "velocity": 100}, {"time": 195, "pitch": 61, "duration": 7, "velocity": 97}, {"time": 195, "pitch": 65, "duration": 8, "velocity": 100}, {"time": 201, "pitch": 56, "duration": 8, "velocity": 82}, {"time": 204, "pitch": 61, "duration": 7, "velocity": 105}, {"time": 210, "pitch": 68, "duration": 4, "velocity": 93}, {"time": 213, "pitch": 61, "duration": 1, "velocity": 82}, {"time": 219, "pitch": 39, "duration": 23, "velocity": 94}, {"time": 219, "pitch": 63, "duration": 23, "velocity": 79}, {"time": 219, "pitch": 67, "duration": 23, "velocity": 82}, {"time": 243, "pitch": 41, "duration": 3, "velocity": 91}, {"time": 243, "pitch": 65, "duration": 6, "velocity": 91}, {"time": 243, "pitch": 68, "duration": 6, "velocity": 86}, {"time": 255, "pitch": 65, "duration": 3, "velocity": 92}, {"time": 255, "pitch": 68, "duration": 4, "velocity": 90}, {"time": 255, "pitch": 72, "duration": 4, "velocity": 92}, {"time": 261, "pitch": 65, "duration": 4, "velocity": 77}, {"time": 267, "pitch": 53, "duration": 3, "velocity": 86}, {"time": 267, "pitch": 65, "duration": 4, "velocity": 92}, {"time": 267, "pitch": 68, "duration": 3, "velocity": 88}, {"time": 267, "pitch": 72, "duration": 4, "velocity": 91}, {"time": 279, "pitch": 39, "duration": 3, "velocity": 81}, {"time": 279, "pitch": 63, "duration": 5, "velocity": 91}, {"time": 279, "pitch": 67, "duration": 4, "velocity": 82}, {"time": 279, "pitch": 70, "duration": 6, "velocity": 88}, {"time": 291, "pitch": 44, "duration": 39, "velocity": 91}, {"time": 291, "pitch": 68, "duration": 4, "velocity": 81}, {"time": 291, "pitch": 72, "duration": 3, "velocity": 90}, {"time": 303, "pitch": 63, "duration": 3, "velocity": 91}, {"time": 303, "pitch": 68, "duration": 3, "velocity": 91}, {"time": 303, "pitch": 72, "duration": 3, "velocity": 90}, {"time": 315, "pitch": 63, "duration": 2, "velocity": 92}, {"time": 315, "pitch": 72, "duration": 8, "velocity": 91}, {"time": 321, "pitch": 63, "duration": 3, "velocity": 88}, {"time": 327, "pitch": 63, "duration": 4, "velocity": 93}, {"time": 327, "pitch": 68, "duration": 4, "velocity": 90}, {"time": 339, "pitch": 46, "duration": 21, "velocity": 91}, {"time": 339, "pitch": 65, "duration": 8, "velocity": 92}, {"time": 339, "pitch": 70, "duration": 7, "velocity": 90}, {"time": 345, "pitch": 53, "duration": 14, "velocity": 66}, {"time": 351, "pitch": 65, "duration": 4, "velocity": 93}, {"time": 351, "pitch": 70, "duration": 6, "velocity": 94}, {"time": 351, "pitch": 73, "duration": 7, "velocity": 91}, {"time": 363, "pitch": 41, "duration": 16, "velocity": 92}, {"time": 363, "pitch": 65, "duration": 10, "velocity": 87}, {"time": 363, "pitch": 68, "duration": 10, "velocity": 76}, {"time": 375, "pitch": 65, "duration": 3, "velocity": 92}, {"time": 375, "pitch": 68, "duration": 6, "velocity": 93}, {"time": 375, "pitch": 72, "duration": 7, "velocity": 95}, {"time": 381, "pitch": 65, "duration": 2, "velocity": 93}, {"time": 387, "pitch": 49, "duration": 15, "velocity": 92}, {"time": 387, "pitch": 61, "duration": 9, "velocity": 86}, {"time": 387, "pitch": 65, "duration": 7, "velocity": 90}, {"time": 393, "pitch": 56, "duration": 8, "velocity": 78}, {"time": 399, "pitch": 61, "duration": 4, "velocity": 93}, {"time": 399, "pitch": 65, "duration": 4, "velocity": 97}, {"time": 399, "pitch": 68, "duration": 4, "velocity": 92}, {"time": 405, "pitch": 49, "duration": 2, "velocity": 92}, {"time": 411, "pitch": 39, "duration": 2, "velocity": 92}, {"time": 411, "pitch": 63, "duration": 9, "velocity": 90}, {"time": 411, "pitch": 67, "duration": 9, "velocity": 85}, {"time": 417, "pitch": 51, "duration": 17, "velocity": 86}, {"time": 420, "pitch": 58, "duration": 4, "velocity": 88}, {"time": 423, "pitch": 63, "duration": 3, "velocity": 95}, {"time": 423, "pitch": 75, "duration": 3, "velocity": 100}, {"time": 426, "pitch": 58, "duration": 8, "velocity": 81}, {"time": 429, "pitch": 63, "duration": 2, "velocity": 82}, {"time": 429, "pitch": 67, "duration": 5, "velocity": 80}, {"time": 429, "pitch": 70, "duration": 6, "velocity": 83}, {"time": 432, "pitch": 63, "duration": 3, "velocity": 93}, {"time": 435, "pitch": 41, "duration": 2, "velocity": 93}, {"time": 435, "pitch": 65, "duration": 10, "velocity": 92}, {"time": 435, "pitch": 68, "duration": 9, "velocity": 91}, {"time": 441, "pitch": 53, "duration": 17, "velocity": 92}, {"time": 444, "pitch": 60, "duration": 5, "velocity": 85}, {"time": 447, "pitch": 65, "duration": 3, "velocity": 100}, {"time": 447, "pitch": 72, "duration": 3, "velocity": 95}, {"time": 450, "pitch": 60, "duration": 7, "velocity": 82}, {"time": 453, "pitch": 65, "duration": 4, "velocity": 91}, {"time": 459, "pitch": 53, "duration": 8, "velocity": 93}, {"time": 459, "pitch": 65, "duration": 4, "velocity": 91}, {"time": 459, "pitch": 68, "duration": 6, "velocity": 87}, {"time": 462, "pitch": 60, "duration": 5, "velocity": 76}, {"time": 465, "pitch": 65, "duration": 2, "velocity": 93}, {"time": 471, "pitch": 51, "duration": 7, "velocity": 96}, {"time": 471, "pitch": 63, "duration": 4, "velocity": 92}, {"time": 471, "pitch": 67, "duration": 5, "velocity": 92}, {"time": 474, "pitch": 58, "duration": 3, "velocity": 78}, {"time": 477, "pitch": 63, "duration": 5, "velocity": 95}, {"time": 480, "pitch": 67, "duration": 2, "velocity": 93}, {"time": 483, "pitch": 44, "duration": 22, "velocity": 92}, {"time": 483, "pitch": 63, "duration": 7, "velocity": 92}, {"time": 483, "pitch": 68, "duration": 8, "velocity": 91}, {"time": 489, "pitch": 51, "duration": 8, "velocity": 76}, {"time": 492, "pitch": 63, "duration": 1, "velocity": 83}, {"time": 495, "pitch": 63, "duration": 2, "velocity": 96}, {"time": 495, "pitch": 72, "duration": 3, "velocity": 95}, {"time": 501, "pitch": 51, "duration": 4, "velocity": 84}, {"time": 504, "pitch": 63, "duration": 2, "velocity": 93}, {"time": 507, "pitch": 44, "duration": 20, "velocity": 91}, {"time": 507, "pitch": 63, "duration": 7, "velocity": 91}, {"time": 507, "pitch": 68, "duration": 7, "velocity": 85}, {"time": 513, "pitch": 51, "duration": 10, "velocity": 70}, {"time": 519, "pitch": 63, "duration": 3, "velocity": 96}, {"time": 519, "pitch": 72, "duration": 3, "velocity": 95}, {"time": 522, "pitch": 68, "duration": 4, "velocity": 91}, {"time": 525, "pitch": 63, "duration": 4, "velocity": 92}, {"time": 528, "pitch": 68, "duration": 3, "velocity": 78}, {"time": 531, "pitch": 46, "duration": 17, "velocity": 92}, {"time": 531, "pitch": 65, "duration": 5, "velocity": 87}, {"time": 531, "pitch": 70, "duration": 6, "velocity": 86}, {"time": 537, "pitch": 53, "duration": 10, "velocity": 85}, {"time": 543, "pitch": 65, "duration": 3, "velocity": 98}, {"time": 543, "pitch": 73, "duration": 6, "velocity": 93}, {"time": 549, "pitch": 65, "duration": 4, "velocity": 91}, {"time": 549, "pitch": 70, "duration": 5, "velocity": 87}, {"time": 555, "pitch": 41, "duration": 2, "velocity": 92}, {"time": 555, "pitch": 65, "duration": 11, "velocity": 92}, {"time": 555, "pitch": 68, "duration": 11, "velocity": 87}, {"time": 561, "pitch": 53, "duration": 12, "velocity": 81}, {"time": 564, "pitch": 60, "duration": 5, "velocity": 85}, {"time": 567, "pitch": 65, "duration": 3, "velocity": 96}, {"time": 567, "pitch": 68, "duration": 4, "velocity": 94}, {"time": 567, "pitch": 72, "duration": 5, "velocity": 94}, {"time": 570, "pitch": 60, "duration": 4, "velocity": 85}, {"time": 573, "pitch": 65, "duration": 2, "velocity": 100}, {"time": 579, "pitch": 49, "duration": 6, "velocity": 94}, {"time": 579, "pitch": 61, "duration": 4, "velocity": 87}, {"time": 579, "pitch": 65, "duration": 4, "velocity": 93}, {"time": 582, "pitch": 56, "duration": 3, "velocity": 79}, {"time": 585, "pitch": 61, "duration": 4, "velocity": 97}, {"time": 588, "pitch": 65, "duration": 3, "velocity": 92}, {"time": 591, "pitch": 39, "duration": 10, "velocity": 94}, {"time": 591, "pitch": 63, "duration": 6, "velocity": 91}, {"time": 591, "pitch": 67, "duration": 9, "velocity": 94}, {"time": 597, "pitch": 46, "duration": 4, "velocity": 87}, {"time": 600, "pitch": 63, "duration": 2, "velocity": 88}, {"time": 603, "pitch": 41, "duration": 8, "velocity": 95}, {"time": 603, "pitch": 65, "duration": 4, "velocity": 88}, {"time": 603, "pitch": 68, "duration": 5, "velocity": 90}, {"time": 609, "pitch": 65, "duration": 3, "velocity": 100}, {"time": 609, "pitch": 68, "duration": 3, "velocity": 98}, {"time": 615, "pitch": 39, "duration": 7, "velocity": 102}, {"time": 615, "pitch": 63, "duration": 4, "velocity": 85}, {"time": 615, "pitch": 67, "duration": 12, "velocity": 91}, {"time": 615, "pitch": 75, "duration": 12, "velocity": 97}, {"time": 621, "pitch": 63, "duration": 7, "velocity": 94}, {"time": 627, "pitch": 44, "duration": 17, "velocity": 92}, {"time": 627, "pitch": 56, "duration": 10, "velocity": 93}, {"time": 627, "pitch": 63, "duration": 1, "velocity": 92}, {"time": 633, "pitch": 51, "duration": 7, "velocity": 81}, {"time": 639, "pitch": 56, "duration": 2, "velocity": 86}, {"time": 639, "pitch": 60, "duration": 7, "velocity": 102}, {"time": 639, "pitch": 63, "duration": 7, "velocity": 94}, {"time": 639, "pitch": 68, "duration": 7, "velocity": 90}, {"time": 642, "pitch": 51, "duration": 3, "velocity": 85}, {"time": 645, "pitch": 56, "duration": 2, "velocity": 97}, {"time": 651, "pitch": 48, "duration": 17, "velocity": 92}, {"time": 651, "pitch": 60, "duration": 9, "velocity": 93}, {"time": 651, "pitch": 63, "duration": 9, "velocity": 92}, {"time": 657, "pitch": 55, "duration": 7, "velocity": 83}, {"time": 663, "pitch": 60, "duration": 7, "velocity": 96}, {"time": 663, "pitch": 67, "duration": 7, "velocity": 96}, {"time": 666, "pitch": 55, "duration": 2, "velocity": 91}, {"time": 669, "pitch": 63, "duration": 4, "velocity": 93}, {"time": 672, "pitch": 60, "duration": 3, "velocity": 91}, {"time": 675, "pitch": 53, "duration": 19, "velocity": 93}, {"time": 675, "pitch": 60, "duration": 3, "velocity": 94}, {"time": 675, "pitch": 65, "duration": 8, "velocity": 93}, {"time": 681, "pitch": 60, "duration": 4, "velocity": 78}, {"time": 687, "pitch": 60, "duration": 4, "velocity": 95}, {"time": 687, "pitch": 68, "duration": 7, "velocity": 91}, {"time": 693, "pitch": 60, "duration": 5, "velocity": 93}, {"time": 699, "pitch": 48, "duration": 19, "velocity": 93}, {"time": 699, "pitch": 60, "duration": 7, "velocity": 93}, {"time": 699, "pitch": 63, "duration": 7, "velocity": 93}, {"time": 705, "pitch": 55, "duration": 8, "velocity": 91}, {"time": 708, "pitch": 60, "duration": 2, "velocity": 92}, {"time": 711, "pitch": 67, "duration": 7, "velocity": 100}, {"time": 714, "pitch": 55, "duration": 3, "velocity": 87}, {"time": 717, "pitch": 63, "duration": 4, "velocity": 87}, {"time": 720, "pitch": 60, "duration": 2, "velocity": 85}, {"time": 723, "pitch": 37, "duration": 7, "velocity": 79}, {"time": 723, "pitch": 61, "duration": 4, "velocity": 91}, {"time": 723, "pitch": 65, "duration": 7, "velocity": 91}, {"time": 729, "pitch": 61, "duration": 5, "velocity": 91}, {"time": 735, "pitch": 61, "duration": 3, "velocity": 92}, {"time": 735, "pitch": 65, "duration": 7, "velocity": 98}, {"time": 735, "pitch": 68, "duration": 8, "velocity": 88}, {"time": 741, "pitch": 61, "duration": 2, "velocity": 91}, {"time": 747, "pitch": 44, "duration": 18, "velocity": 92}, {"time": 747, "pitch": 60, "duration": 5, "velocity": 87}, {"time": 747, "pitch": 63, "duration": 7, "velocity": 90}, {"time": 753, "pitch": 51, "duration": 9, "velocity": 75}, {"time": 759, "pitch": 60, "duration": 6, "velocity": 96}, {"time": 759, "pitch": 63, "duration": 7, "velocity": 94}, {"time": 765, "pitch": 56, "duration": 2, "velocity": 93}, {"time": 771, "pitch": 46, "duration": 15, "velocity": 92}, {"time": 771, "pitch": 58, "duration": 9, "velocity": 86}, {"time": 771, "pitch": 61, "duration": 7, "velocity": 89}, {"time": 777, "pitch": 53, "duration": 8, "velocity": 82}, {"time": 783, "pitch": 58, "duration": 4, "velocity": 92}, {"time": 783, "pitch": 61, "duration": 4, "velocity": 97}, {"time": 783, "pitch": 65, "duration": 5, "velocity": 97}, {"time": 789, "pitch": 46, "duration": 2, "velocity": 91}, {"time": 795, "pitch": 48, "duration": 24, "velocity": 97}, {"time": 795, "pitch": 60, "duration": 5, "velocity": 89}, {"time": 795, "pitch": 64, "duration": 8, "velocity": 89}, {"time": 795, "pitch": 67, "duration": 4, "velocity": 89}, {"time": 801, "pitch": 55, "duration": 7, "velocity": 90}, {"time": 804, "pitch": 60, "duration": 2, "velocity": 91}, {"time": 807, "pitch": 60, "duration": 4, "velocity": 102}, {"time": 807, "pitch": 64, "duration": 4, "velocity": 102}, {"time": 807, "pitch": 67, "duration": 4, "velocity": 96}, {"time": 807, "pitch": 72, "duration": 5, "velocity": 92}, {"time": 810, "pitch": 55, "duration": 9, "velocity": 94}, {"time": 813, "pitch": 60, "duration": 5, "velocity": 107}, {"time": 816, "pitch": 64, "duration": 2, "velocity": 97}, {"time": 819, "pitch": 41, "duration": 17, "velocity": 96}, {"time": 819, "pitch": 65, "duration": 7, "velocity": 94}, {"time": 819, "pitch": 68, "duration": 7, "velocity": 91}, {"time": 825, "pitch": 48, "duration": 7, "velocity": 76}, {"time": 831, "pitch": 65, "duration": 4, "velocity": 100}, {"time": 831, "pitch": 68, "duration": 4, "velocity": 105}, {"time": 831, "pitch": 72, "duration": 4, "velocity": 98}, {"time": 834, "pitch": 48, "duration": 2, "velocity": 83}, {"time": 837, "pitch": 65, "duration": 2, "velocity": 98}, {"time": 843, "pitch": 51, "duration": 16, "velocity": 96}, {"time": 843, "pitch": 63, "duration": 8, "velocity": 93}, {"time": 843, "pitch": 67, "duration": 8, "velocity": 92}, {"time": 849, "pitch": 58, "duration": 7, "velocity": 80}, {"time": 855, "pitch": 63, "duration": 4, "velocity": 95}, {"time": 855, "pitch": 67, "duration": 6, "velocity": 105}, {"time": 855, "pitch": 70, "duration": 7, "velocity": 95}, {"time": 858, "pitch": 58, "duration": 3, "velocity": 87}, {"time": 861, "pitch": 51, "duration": 2, "velocity": 95}, {"time": 867, "pitch": 49, "duration": 9, "velocity": 95}, {"time": 867, "pitch": 61, "duration": 6, "velocity": 92}, {"time": 867, "pitch": 65, "duration": 7, "velocity": 94}, {"time": 873, "pitch": 56, "duration": 4, "velocity": 87}, {"time": 879, "pitch": 51, "duration": 6, "velocity": 102}, {"time": 879, "pitch": 63, "duration": 4, "velocity": 92}, {"time": 879, "pitch": 67, "duration": 6, "velocity": 93}, {"time": 885, "pitch": 63, "duration": 5, "velocity": 95}, {"time": 891, "pitch": 44, "duration": 15, "velocity": 93}, {"time": 891, "pitch": 63, "duration": 7, "velocity": 94}, {"time": 891, "pitch": 68, "duration": 7, "velocity": 91}, {"time": 897, "pitch": 51, "duration": 8, "velocity": 87}, {"time": 903, "pitch": 63, "duration": 9, "velocity": 97}, {"time": 903, "pitch": 68, "duration": 9, "velocity": 100}, {"time": 903, "pitch": 72, "duration": 9, "velocity": 98}, {"time": 909, "pitch": 44, "duration": 5, "velocity": 92}, {"time": 915, "pitch": 46, "duration": 14, "velocity": 95}, {"time": 915, "pitch": 58, "duration": 9, "velocity": 93}, {"time": 915, "pitch": 61, "duration": 8, "velocity": 92}, {"time": 921, "pitch": 53, "duration": 8, "velocity": 87}, {"time": 927, "pitch": 58, "duration": 4, "velocity": 93}, {"time": 927, "pitch": 61, "duration": 5, "velocity": 96}, {"time": 927, "pitch": 65, "duration": 5, "velocity": 97}, {"time": 933, "pitch": 46, "duration": 2, "velocity": 93}, {"time": 939, "pitch": 48, "duration": 17, "velocity": 96}, {"time": 939, "pitch": 60, "duration": 8, "velocity": 91}, {"time": 939, "pitch": 63, "duration": 8, "velocity": 91}, {"time": 939, "pitch": 67, "duration": 7, "velocity": 89}, {"time": 945, "pitch": 55, "duration": 8, "velocity": 78}, {"time": 951, "pitch": 60, "duration": 5, "velocity": 98}, {"time": 951, "pitch": 63, "duration": 6, "velocity": 107}, {"time": 951, "pitch": 67, "duration": 9, "velocity": 97}, {"time": 954, "pitch": 55, "duration": 2, "velocity": 93}, {"time": 957, "pitch": 48, "duration": 4, "velocity": 95}, {"time": 963, "pitch": 49, "duration": 16, "velocity": 97}, {"time": 963, "pitch": 61, "duration": 10, "velocity": 91}, {"time": 963, "pitch": 65, "duration": 10, "velocity": 90}, {"time": 969, "pitch": 56, "duration": 7, "velocity": 96}, {"time": 975, "pitch": 61, "duration": 4, "velocity": 94}, {"time": 975, "pitch": 65, "duration": 4, "velocity": 105}, {"time": 975, "pitch": 68, "duration": 4, "velocity": 94}, {"time": 978, "pitch": 56, "duration": 2, "velocity": 91}, {"time": 981, "pitch": 49, "duration": 2, "velocity": 97}, {"time": 987, "pitch": 48, "duration": 13, "velocity": 97}, {"time": 987, "pitch": 60, "duration": 3, "velocity": 92}, {"time": 987, "pitch": 64, "duration": 4, "velocity": 91}, {"time": 987, "pitch": 67, "duration": 5, "velocity": 91}, {"time": 993, "pitch": 60, "duration": 5, "velocity": 96}, {"time": 996, "pitch": 64, "duration": 2, "velocity": 93}, {"time": 999, "pitch": 60, "duration": 4, "velocity": 102}, {"time": 999, "pitch": 64, "duration": 5, "velocity": 112}, {"time": 999, "pitch": 67, "duration": 5, "velocity": 102}, {"time": 999, "pitch": 72, "duration": 8, "velocity": 96}, {"time": 1002, "pitch": 55, "duration": 2, "velocity": 96}, {"time": 1005, "pitch": 60, "duration": 2, "velocity": 102}, {"time": 1011, "pitch": 41, "duration": 3, "velocity": 100}, {"time": 1011, "pitch": 60, "duration": 4, "velocity": 95}, {"time": 1011, "pitch": 65, "duration": 5, "velocity": 95}, {"time": 1017, "pitch": 53, "duration": 6, "velocity": 91}, {"time": 1023, "pitch": 65, "duration": 8, "velocity": 98}, {"time": 1023, "pitch": 68, "duration": 8, "velocity": 100}, {"time": 1023, "pitch": 72, "duration": 8, "velocity": 96}, {"time": 1029, "pitch": 43, "duration": 2, "velocity": 92}, {"time": 1035, "pitch": 44, "duration": 16, "velocity": 92}, {"time": 1035, "pitch": 56, "duration": 10, "velocity": 92}, {"time": 1035, "pitch": 60, "duration": 7, "velocity": 95}, {"time": 1041, "pitch": 51, "duration": 8, "velocity": 87}, {"time": 1047, "pitch": 56, "duration": 6, "velocity": 95}, {"time": 1047, "pitch": 60, "duration": 6, "velocity": 107}, {"time": 1047, "pitch": 63, "duration": 7, "velocity": 98}, {"time": 1047, "pitch": 68, "duration": 7, "velocity": 91}, {"time": 1053, "pitch": 44, "duration": 3, "velocity": 94}, {"time": 1059, "pitch": 49, "duration": 9, "velocity": 97}, {"time": 1059, "pitch": 61, "duration": 5, "velocity": 92}, {"time": 1059, "pitch": 65, "duration": 7, "velocity": 102}, {"time": 1065, "pitch": 56, "duration": 4, "velocity": 88}, {"time": 1068, "pitch": 61, "duration": 2, "velocity": 93}, {"time": 1071, "pitch": 49, "duration": 1, "velocity": 91}, {"time": 1071, "pitch": 51, "duration": 8, "velocity": 95}, {"time": 1071, "pitch": 63, "duration": 5, "velocity": 93}, {"time": 1071, "pitch": 67, "duration": 7, "velocity": 95}, {"time": 1074, "pitch": 58, "duration": 4, "velocity": 86}, {"time": 1077, "pitch": 63, "duration": 5, "velocity": 93}, {"time": 1080, "pitch": 67, "duration": 2, "velocity": 94}, {"time": 1083, "pitch": 44, "duration": 15, "velocity": 93}, {"time": 1083, "pitch": 63, "duration": 6, "velocity": 91}, {"time": 1083, "pitch": 68, "duration": 5, "velocity": 92}, {"time": 1089, "pitch": 51, "duration": 8, "velocity": 87}, {"time": 1095, "pitch": 63, "duration": 6, "velocity": 96}, {"time": 1095, "pitch": 68, "duration": 11, "velocity": 96}, {"time": 1095, "pitch": 72, "duration": 12, "velocity": 98}, {"time": 1101, "pitch": 44, "duration": 3, "velocity": 92}, {"time": 1107, "pitch": 46, "duration": 15, "velocity": 93}, {"time": 1107, "pitch": 65, "duration": 4, "velocity": 92}, {"time": 1107, "pitch": 70, "duration": 6, "velocity": 85}, {"time": 1113, "pitch": 53, "duration": 7, "velocity": 85}, {"time": 1119, "pitch": 58, "duration": 5, "velocity": 91}, {"time": 1119, "pitch": 61, "duration": 5, "velocity": 95}, {"time": 1119, "pitch": 65, "duration": 6, "velocity": 97}, {"time": 1125, "pitch": 46, "duration": 3, "velocity": 92}, {"time": 1131, "pitch": 48, "duration": 16, "velocity": 93}, {"time": 1131, "pitch": 60, "duration": 6, "velocity": 92}, {"time": 1131, "pitch": 63, "duration": 7, "velocity": 91}, {"time": 1131, "pitch": 67, "duration": 6, "velocity": 92}, {"time": 1137, "pitch": 55, "duration": 8, "velocity": 91}, {"time": 1143, "pitch": 60, "duration": 9, "velocity": 94}, {"time": 1143, "pitch": 63, "duration": 9, "velocity": 98}, {"time": 1143, "pitch": 67, "duration": 10, "velocity": 93}, {"time": 1143, "pitch": 72, "duration": 12, "velocity": 91}, {"time": 1149, "pitch": 48, "duration": 5, "velocity": 97}, {"time": 1155, "pitch": 49, "duration": 16, "velocity": 95}, {"time": 1155, "pitch": 61, "duration": 8, "velocity": 92}, {"time": 1155, "pitch": 65, "duration": 10, "velocity": 97}, {"time": 1161, "pitch": 56, "duration": 7, "velocity": 89}, {"time": 1164, "pitch": 61, "duration": 2, "velocity": 87}, {"time": 1167, "pitch": 61, "duration": 5, "velocity": 97}, {"time": 1167, "pitch": 65, "duration": 5, "velocity": 105}, {"time": 1167, "pitch": 68, "duration": 5, "velocity": 95}, {"time": 1170, "pitch": 56, "duration": 3, "velocity": 85}, {"time": 1173, "pitch": 49, "duration": 3, "velocity": 97}, {"time": 1179, "pitch": 48, "duration": 16, "velocity": 97}, {"time": 1179, "pitch": 60, "duration": 7, "velocity": 93}, {"time": 1179, "pitch": 64, "duration": 10, "velocity": 92}, {"time": 1179, "pitch": 67, "duration": 10, "velocity": 87}, {"time": 1185, "pitch": 55, "duration": 7, "velocity": 85}, {"time": 1188, "pitch": 60, "duration": 2, "velocity": 91}, {"time": 1191, "pitch": 60, "duration": 4, "velocity": 96}, {"time": 1191, "pitch": 64, "duration": 4, "velocity": 100}, {"time": 1191, "pitch": 67, "duration": 4, "velocity": 94}, {"time": 1191, "pitch": 72, "duration": 5, "velocity": 93}, {"time": 1194, "pitch": 55, "duration": 2, "velocity": 87}, {"time": 1197, "pitch": 48, "duration": 2, "velocity": 92}, {"time": 1203, "pitch": 41, "duration": 2, "velocity": 96}, {"time": 1203, "pitch": 60, "duration": 5, "velocity": 92}, {"time": 1203, "pitch": 65, "duration": 7, "velocity": 92}, {"time": 1209, "pitch": 53, "duration": 16, "velocity": 92}, {"time": 1215, "pitch": 60, "duration": 4, "velocity": 100}, {"time": 1218, "pitch": 65, "duration": 4, "velocity": 100}, {"time": 1218, "pitch": 68, "duration": 4, "velocity": 95}, {"time": 1221, "pitch": 60, "duration": 4, "velocity": 92}, {"time": 1224, "pitch": 65, "duration": 5, "velocity": 92}, {"time": 1224, "pitch": 67, "duration": 5, "velocity": 92}, {"time": 1227, "pitch": 53, "duration": 17, "velocity": 97}, {"time": 1230, "pitch": 60, "duration": 10, "velocity": 81}, {"time": 1233, "pitch": 65, "duration": 4, "velocity": 91}, {"time": 1239, "pitch": 65, "duration": 5, "velocity": 97}, {"time": 1239, "pitch": 68, "duration": 9, "velocity": 95}, {"time": 1239, "pitch": 72, "duration": 10, "velocity": 97}, {"time": 1242, "pitch": 60, "duration": 3, "velocity": 91}, {"time": 1245, "pitch": 53, "duration": 6, "velocity": 93}, {"time": 1251, "pitch": 44, "duration": 19, "velocity": 91}, {"time": 1251, "pitch": 63, "duration": 4, "velocity": 94}, {"time": 1251, "pitch": 72, "duration": 7, "velocity": 91}, {"time": 1254, "pitch": 51, "duration": 15, "velocity": 79}, {"time": 1257, "pitch": 63, "duration": 4, "velocity": 92}, {"time": 1260, "pitch": 68, "duration": 2, "velocity": 92}, {"time": 1263, "pitch": 63, "duration": 4, "velocity": 96}, {"time": 1263, "pitch": 72, "duration": 4, "velocity": 97}, {"time": 1266, "pitch": 68, "duration": 3, "velocity": 91}, {"time": 1269, "pitch": 63, "duration": 5, "velocity": 90}, {"time": 1272, "pitch": 68, "duration": 2, "velocity": 89}, {"time": 1275, "pitch": 39, "duration": 2, "velocity": 93}, {"time": 1275, "pitch": 70, "duration": 5, "velocity": 92}, {"time": 1278, "pitch": 63, "duration": 6, "velocity": 87}, {"time": 1281, "pitch": 51, "duration": 11, "velocity": 84}, {"time": 1281, "pitch": 67, "duration": 4, "velocity": 89}, {"time": 1284, "pitch": 70, "duration": 7, "velocity": 91}, {"time": 1287, "pitch": 58, "duration": 4, "velocity": 94}, {"time": 1290, "pitch": 63, "duration": 7, "velocity": 90}, {"time": 1293, "pitch": 67, "duration": 3, "velocity": 95}, {"time": 1296, "pitch": 70, "duration": 2, "velocity": 81}, {"time": 1299, "pitch": 46, "duration": 18, "velocity": 91}, {"time": 1299, "pitch": 65, "duration": 3, "velocity": 76}, {"time": 1299, "pitch": 70, "duration": 4, "velocity": 77}, {"time": 1302, "pitch": 53, "duration": 14, "velocity": 92}, {"time": 1305, "pitch": 65, "duration": 4, "velocity": 102}, {"time": 1308, "pitch": 70, "duration": 2, "velocity": 93}, {"time": 1311, "pitch": 73, "duration": 4, "velocity": 107}, {"time": 1314, "pitch": 70, "duration": 4, "velocity": 96}, {"time": 1317, "pitch": 65, "duration": 6, "velocity": 93}, {"time": 1320, "pitch": 70, "duration": 2, "velocity": 86}, {"time": 1323, "pitch": 41, "duration": 17, "velocity": 92}, {"time": 1323, "pitch": 68, "duration": 5, "velocity": 73}, {"time": 1326, "pitch": 48, "duration": 14, "velocity": 86}, {"time": 1329, "pitch": 65, "duration": 4, "velocity": 96}, {"time": 1332, "pitch": 68, "duration": 2, "velocity": 91}, {"time": 1335, "pitch": 65, "duration": 3, "velocity": 97}, {"time": 1335, "pitch": 72, "duration": 4, "velocity": 97}, {"time": 1338, "pitch": 68, "duration": 2, "velocity": 91}, {"time": 1341, "pitch": 65, "duration": 3, "velocity": 97}, {"time": 1344, "pitch": 65, "duration": 1, "velocity": 59}, {"time": 1344, "pitch": 68, "duration": 2, "velocity": 90}, {"time": 1347, "pitch": 49, "duration": 14, "velocity": 96}, {"time": 1347, "pitch": 61, "duration": 4, "velocity": 91}, {"time": 1347, "pitch": 65, "duration": 7, "velocity": 94}, {"time": 1350, "pitch": 56, "duration": 10, "velocity": 86}, {"time": 1353, "pitch": 61, "duration": 4, "velocity": 92}, {"time": 1356, "pitch": 65, "duration": 1, "velocity": 94}, {"time": 1359, "pitch": 61, "duration": 4, "velocity": 95}, {"time": 1359, "pitch": 68, "duration": 4, "velocity": 93}, {"time": 1362, "pitch": 56, "duration": 2, "velocity": 95}, {"time": 1365, "pitch": 65, "duration": 4, "velocity": 95}, {"time": 1368, "pitch": 61, "duration": 2, "velocity": 86}, {"time": 1371, "pitch": 44, "duration": 10, "velocity": 92}, {"time": 1371, "pitch": 63, "duration": 3, "velocity": 88}, {"time": 1371, "pitch": 68, "duration": 4, "velocity": 86}, {"time": 1374, "pitch": 51, "duration": 6, "velocity": 88}, {"time": 1377, "pitch": 63, "duration": 4, "velocity": 100}, {"time": 1380, "pitch": 68, "duration": 2, "velocity": 86}, {"time": 1383, "pitch": 44, "duration": 6, "velocity": 90}, {"time": 1383, "pitch": 63, "duration": 2, "velocity": 92}, {"time": 1383, "pitch": 72, "duration": 3, "velocity": 93}, {"time": 1386, "pitch": 68, "duration": 3, "velocity": 79}, {"time": 1389, "pitch": 63, "duration": 3, "velocity": 92}, {"time": 1395, "pitch": 46, "duration": 18, "velocity": 92}, {"time": 1395, "pitch": 58, "duration": 4, "velocity": 76}, {"time": 1395, "pitch": 61, "duration": 6, "velocity": 80}, {"time": 1395, "pitch": 65, "duration": 2, "velocity": 79}, {"time": 1398, "pitch": 53, "duration": 12, "velocity": 93}, {"time": 1401, "pitch": 58, "duration": 4, "velocity": 91}, {"time": 1404, "pitch": 61, "duration": 2, "velocity": 90}, {"time": 1407, "pitch": 58, "duration": 4, "velocity": 92}, {"time": 1407, "pitch": 70, "duration": 4, "velocity": 93}, {"time": 1410, "pitch": 65, "duration": 4, "velocity": 93}, {"time": 1413, "pitch": 61, "duration": 4, "velocity": 94}, {"time": 1416, "pitch": 58, "duration": 2, "velocity": 94}, {"time": 1419, "pitch": 48, "duration": 16, "velocity": 93}, {"time": 1419, "pitch": 60, "duration": 4, "velocity": 93}, {"time": 1419, "pitch": 64, "duration": 7, "velocity": 92}, {"time": 1422, "pitch": 52, "duration": 2, "velocity": 91}, {"time": 1425, "pitch": 55, "duration": 7, "velocity": 91}, {"time": 1428, "pitch": 60, "duration": 2, "velocity": 88}, {"time": 1431, "pitch": 60, "duration": 4, "velocity": 97}, {"time": 1431, "pitch": 64, "duration": 5, "velocity": 102}, {"time": 1431, "pitch": 67, "duration": 6, "velocity": 95}, {"time": 1431, "pitch": 72, "duration": 6, "velocity": 94}, {"time": 1434, "pitch": 55, "duration": 2, "velocity": 98}, {"time": 1437, "pitch": 48, "duration": 2, "velocity": 93}, {"time": 1437, "pitch": 60, "duration": 3, "velocity": 93}, {"time": 1443, "pitch": 41, "duration": 15, "velocity": 92}, {"time": 1443, "pitch": 65, "duration": 4, "velocity": 95}, {"time": 1443, "pitch": 68, "duration": 4, "velocity": 96}, {"time": 1446, "pitch": 48, "duration": 11, "velocity": 92}, {"time": 1449, "pitch": 65, "duration": 4, "velocity": 91}, {"time": 1452, "pitch": 68, "duration": 2, "velocity": 92}, {"time": 1455, "pitch": 65, "duration": 3, "velocity": 100}, {"time": 1455, "pitch": 72, "duration": 4, "velocity": 100}, {"time": 1461, "pitch": 68, "duration": 3, "velocity": 105}, {"time": 1464, "pitch": 65, "duration": 1, "velocity": 94}, {"time": 1467, "pitch": 48, "duration": 18, "velocity": 93}, {"time": 1467, "pitch": 60, "duration": 4, "velocity": 92}, {"time": 1467, "pitch": 63, "duration": 6, "velocity": 92}, {"time": 1470, "pitch": 55, "duration": 10, "velocity": 79}, {"time": 1473, "pitch": 60, "duration": 5, "velocity": 92}, {"time": 1476, "pitch": 67, "duration": 6, "velocity": 82}, {"time": 1479, "pitch": 63, "duration": 4, "velocity": 100}, {"time": 1482, "pitch": 60, "duration": 4, "velocity": 97}, {"time": 1485, "pitch": 55, "duration": 2, "velocity": 95}, {"time": 1488, "pitch": 60, "duration": 2, "velocity": 97}, {"time": 1491, "pitch": 49, "duration": 16, "velocity": 93}, {"time": 1491, "pitch": 61, "duration": 4, "velocity": 93}, {"time": 1491, "pitch": 65, "duration": 7, "velocity": 92}, {"time": 1494, "pitch": 56, "duration": 10, "velocity": 90}, {"time": 1497, "pitch": 61, "duration": 4, "velocity": 93}, {"time": 1500, "pitch": 65, "duration": 2, "velocity": 91}, {"time": 1503, "pitch": 61, "duration": 3, "velocity": 97}, {"time": 1503, "pitch": 68, "duration": 4, "velocity": 97}, {"time": 1506, "pitch": 56, "duration": 2, "velocity": 97}, {"time": 1509, "pitch": 65, "duration": 4, "velocity": 96}, {"time": 1512, "pitch": 61, "duration": 2, "velocity": 84}, {"time": 1515, "pitch": 44, "duration": 18, "velocity": 90}, {"time": 1515, "pitch": 60, "duration": 3, "velocity": 90}, {"time": 1515, "pitch": 63, "duration": 7, "velocity": 86}, {"time": 1518, "pitch": 51, "duration": 10, "velocity": 88}, {"time": 1521, "pitch": 60, "duration": 5, "velocity": 92}, {"time": 1524, "pitch": 63, "duration": 2, "velocity": 92}, {"time": 1527, "pitch": 60, "duration": 3, "velocity": 97}, {"time": 1527, "pitch": 68, "duration": 4, "velocity": 93}, {"time": 1530, "pitch": 51, "duration": 4, "velocity": 93}, {"time": 1533, "pitch": 63, "duration": 3, "velocity": 92}, {"time": 1536, "pitch": 60, "duration": 2, "velocity": 87}, {"time": 1539, "pitch": 46, "duration": 22, "velocity": 87}, {"time": 1539, "pitch": 58, "duration": 11, "velocity": 93}, {"time": 1539, "pitch": 61, "duration": 11, "velocity": 94}, {"time": 1542, "pitch": 53, "duration": 10, "velocity": 87}, {"time": 1545, "pitch": 65, "duration": 5, "velocity": 84}, {"time": 1551, "pitch": 58, "duration": 4, "velocity": 94}, {"time": 1551, "pitch": 61, "duration": 7, "velocity": 92}, {"time": 1551, "pitch": 65, "duration": 7, "velocity": 95}, {"time": 1551, "pitch": 70, "duration": 10, "velocity": 94}, {"time": 1554, "pitch": 53, "duration": 7, "velocity": 92}, {"time": 1557, "pitch": 58, "duration": 5, "velocity": 94}, {"time": 1560, "pitch": 61, "duration": 2, "velocity": 89}, {"time": 1560, "pitch": 65, "duration": 1, "velocity": 58}, {"time": 1563, "pitch": 46, "duration": 5, "velocity": 95}, {"time": 1563, "pitch": 58, "duration": 5, "velocity": 93}, {"time": 1563, "pitch": 70, "duration": 5, "velocity": 93}, {"time": 1569, "pitch": 48, "duration": 6, "velocity": 100}, {"time": 1569, "pitch": 60, "duration": 7, "velocity": 96}, {"time": 1575, "pitch": 51, "duration": 5, "velocity": 107}, {"time": 1575, "pitch": 63, "duration": 7, "velocity": 102}, {"time": 1581, "pitch": 48, "duration": 2, "velocity": 96}, {"time": 1581, "pitch": 60, "duration": 2, "velocity": 97}, {"time": 1584, "pitch": 53, "duration": 8, "velocity": 112}, {"time": 1584, "pitch": 60, "duration": 8, "velocity": 102}, {"time": 1584, "pitch": 65, "duration": 8, "velocity": 102}, {"time": 1621, "pitch": 63, "duration": 13, "velocity": 82}, {"time": 1622, "pitch": 67, "duration": 12, "velocity": 85}, {"time": 1623, "pitch": 70, "duration": 11, "velocity": 86}, {"time": 1623, "pitch": 39, "duration": 12, "velocity": 97}, {"time": 1623, "pitch": 75, "duration": 11, "velocity": 91}, {"time": 1635, "pitch": 41, "duration": 2, "velocity": 93}, {"time": 1635, "pitch": 65, "duration": 10, "velocity": 92}, {"time": 1635, "pitch": 68, "duration": 9, "velocity": 91}, {"time": 1641, "pitch": 53, "duration": 17, "velocity": 92}, {"time": 1644, "pitch": 60, "duration": 5, "velocity": 85}, {"time": 1647, "pitch": 65, "duration": 3, "velocity": 100}, {"time": 1647, "pitch": 72, "duration": 3, "velocity": 95}, {"time": 1650, "pitch": 60, "duration": 7, "velocity": 82}, {"time": 1653, "pitch": 65, "duration": 4, "velocity": 91}, {"time": 1659, "pitch": 53, "duration": 8, "velocity": 93}, {"time": 1659, "pitch": 65, "duration": 4, "velocity": 91}, {"time": 1659, "pitch": 68, "duration": 6, "velocity": 87}, {"time": 1662, "pitch": 60, "duration": 5, "velocity": 76}, {"time": 1665, "pitch": 65, "duration": 2, "velocity": 93}, {"time": 1671, "pitch": 51, "duration": 7, "velocity": 96}, {"time": 1671, "pitch": 63, "duration": 4, "velocity": 92}, {"time": 1671, "pitch": 67, "duration": 5, "velocity": 92}, {"time": 1674, "pitch": 58, "duration": 3, "velocity": 78}, {"time": 1677, "pitch": 63, "duration": 5, "velocity": 95}, {"time": 1680, "pitch": 67, "duration": 2, "velocity": 93}, {"time": 1683, "pitch": 44, "duration": 22, "velocity": 92}, {"time": 1683, "pitch": 63, "duration": 7, "velocity": 92}, {"time": 1683, "pitch": 68, "duration": 8, "velocity": 91}, {"time": 1689, "pitch": 51, "duration": 8, "velocity": 76}, {"time": 1692, "pitch": 63, "duration": 1, "velocity": 83}, {"time": 1695, "pitch": 63, "duration": 2, "velocity": 96}, {"time": 1695, "pitch": 72, "duration": 3, "velocity": 95}, {"time": 1701, "pitch": 51, "duration": 4, "velocity": 84}, {"time": 1704, "pitch": 63, "duration": 2, "velocity": 93}, {"time": 1707, "pitch": 44, "duration": 20, "velocity": 91}, {"time": 1707, "pitch": 63, "duration": 7, "velocity": 91}, {"time": 1707, "pitch": 68, "duration": 7, "velocity": 85}, {"time": 1713, "pitch": 51, "duration": 10, "velocity": 70}, {"time": 1719, "pitch": 63, "duration": 3, "velocity": 96}, {"time": 1719, "pitch": 72, "duration": 3, "velocity": 95}, {"time": 1722, "pitch": 68, "duration": 4, "velocity": 91}, {"time": 1725, "pitch": 63, "duration": 4, "velocity": 92}, {"time": 1728, "pitch": 68, "duration": 3, "velocity": 78}, {"time": 1731, "pitch": 46, "duration": 17, "velocity": 92}, {"time": 1731, "pitch": 65, "duration": 5, "velocity": 87}, {"time": 1731, "pitch": 70, "duration": 6, "velocity": 86}, {"time": 1737, "pitch": 53, "duration": 10, "velocity": 85}, {"time": 1743, "pitch": 65, "duration": 3, "velocity": 98}, {"time": 1743, "pitch": 73, "duration": 6, "velocity": 93}, {"time": 1749, "pitch": 65, "duration": 4, "velocity": 91}, {"time": 1749, "pitch": 70, "duration": 5, "velocity": 87}, {"time": 1755, "pitch": 41, "duration": 2, "velocity": 92}, {"time": 1755, "pitch": 65, "duration": 11, "velocity": 92}, {"time": 1755, "pitch": 68, "duration": 11, "velocity": 87}, {"time": 1761, "pitch": 53, "duration": 12, "velocity": 81}, {"time": 1764, "pitch": 60, "duration": 5, "velocity": 85}, {"time": 1767, "pitch": 65, "duration": 3, "velocity": 96}, {"time": 1767, "pitch": 68, "duration": 4, "velocity": 94}, {"time": 1767, "pitch": 72, "duration": 5, "velocity": 94}, {"time": 1770, "pitch": 60, "duration": 4, "velocity": 85}, {"time": 1773, "pitch": 65, "duration": 2, "velocity": 100}, {"time": 1779, "pitch": 49, "duration": 6, "velocity": 94}, {"time": 1779, "pitch": 61, "duration": 4, "velocity": 87}, {"time": 1779, "pitch": 65, "duration": 4, "velocity": 93}, {"time": 1782, "pitch": 56, "duration": 3, "velocity": 79}, {"time": 1785, "pitch": 61, "duration": 4, "velocity": 97}, {"time": 1788, "pitch": 65, "duration": 3, "velocity": 92}, {"time": 1791, "pitch": 39, "duration": 10, "velocity": 94}, {"time": 1791, "pitch": 63, "duration": 6, "velocity": 91}, {"time": 1791, "pitch": 67, "duration": 9, "velocity": 94}, {"time": 1797, "pitch": 46, "duration": 4, "velocity": 87}, {"time": 1800, "pitch": 63, "duration": 2, "velocity": 88}, {"time": 1803, "pitch": 41, "duration": 8, "velocity": 95}, {"time": 1803, "pitch": 65, "duration": 4, "velocity": 88}, {"time": 1803, "pitch": 68, "duration": 5, "velocity": 90}, {"time": 1809, "pitch": 65, "duration": 3, "velocity": 100}, {"time": 1809, "pitch": 68, "duration": 3, "velocity": 98}, {"time": 1815, "pitch": 39, "duration": 7, "velocity": 102}, {"time": 1815, "pitch": 63, "duration": 4, "velocity": 85}, {"time": 1815, "pitch": 67, "duration": 12, "velocity": 91}, {"time": 1815, "pitch": 75, "duration": 12, "velocity": 97}, {"time": 1821, "pitch": 63, "duration": 7, "velocity": 94}, {"time": 1827, "pitch": 44, "duration": 17, "velocity": 92}, {"time": 1827, "pitch": 56, "duration": 10, "velocity": 93}, {"time": 1827, "pitch": 63, "duration": 1, "velocity": 92}, {"time": 1833, "pitch": 51, "duration": 7, "velocity": 81}, {"time": 1839, "pitch": 56, "duration": 2, "velocity": 86}, {"time": 1839, "pitch": 60, "duration": 7, "velocity": 102}, {"time": 1839, "pitch": 63, "duration": 7, "velocity": 94}, {"time": 1839, "pitch": 68, "duration": 7, "velocity": 90}, {"time": 1842, "pitch": 51, "duration": 3, "velocity": 85}, {"time": 1845, "pitch": 56, "duration": 2, "velocity": 97}, {"time": 1851, "pitch": 48, "duration": 17, "velocity": 92}, {"time": 1851, "pitch": 60, "duration": 9, "velocity": 93}, {"time": 1851, "pitch": 63, "duration": 9, "velocity": 92}, {"time": 1857, "pitch": 55, "duration": 7, "velocity": 83}, {"time": 1863, "pitch": 60, "duration": 7, "velocity": 96}, {"time": 1863, "pitch": 67, "duration": 7, "velocity": 96}, {"time": 1866, "pitch": 55, "duration": 2, "velocity": 91}, {"time": 1869, "pitch": 63, "duration": 4, "velocity": 93}, {"time": 1872, "pitch": 60, "duration": 3, "velocity": 91}, {"time": 1875, "pitch": 53, "duration": 19, "velocity": 93}, {"time": 1875, "pitch": 60, "duration": 3, "velocity": 94}, {"time": 1875, "pitch": 65, "duration": 8, "velocity": 93}, {"time": 1881, "pitch": 60, "duration": 4, "velocity": 78}, {"time": 1887, "pitch": 60, "duration": 4, "velocity": 95}, {"time": 1887, "pitch": 68, "duration": 7, "velocity": 91}, {"time": 1893, "pitch": 60, "duration": 5, "velocity": 93}, {"time": 1899, "pitch": 48, "duration": 19, "velocity": 93}, {"time": 1899, "pitch": 60, "duration": 7, "velocity": 93}, {"time": 1899, "pitch": 63, "duration": 7, "velocity": 93}, {"time": 1905, "pitch": 55, "duration": 8, "velocity": 91}, {"time": 1908, "pitch": 60, "duration": 2, "velocity": 92}, {"time": 1911, "pitch": 67, "duration": 7, "velocity": 100}, {"time": 1914, "pitch": 55, "duration": 3, "velocity": 87}, {"time": 1917, "pitch": 63, "duration": 4, "velocity": 87}, {"time": 1920, "pitch": 60, "duration": 2, "velocity": 85}, {"time": 1923, "pitch": 37, "duration": 7, "velocity": 79}, {"time": 1923, "pitch": 61, "duration": 4, "velocity": 91}, {"time": 1923, "pitch": 65, "duration": 7, "velocity": 91}, {"time": 1929, "pitch": 61, "duration": 5, "velocity": 91}, {"time": 1935, "pitch": 61, "duration": 3, "velocity": 92}, {"time": 1935, "pitch": 65, "duration": 7, "velocity": 98}, {"time": 1935, "pitch": 68, "duration": 8, "velocity": 88}, {"time": 1941, "pitch": 61, "duration": 2, "velocity": 91}, {"time": 1947, "pitch": 44, "duration": 18, "velocity": 92}, {"time": 1947, "pitch": 60, "duration": 5, "velocity": 87}, {"time": 1947, "pitch": 63, "duration": 7, "velocity": 90}, {"time": 1953, "pitch": 51, "duration": 9, "velocity": 75}, {"time": 1959, "pitch": 60, "duration": 6, "velocity": 96}, {"time": 1959, "pitch": 63, "duration": 7, "velocity": 94}, {"time": 1965, "pitch": 56, "duration": 2, "velocity": 93}, {"time": 1971, "pitch": 46, "duration": 15, "velocity": 92}, {"time": 1971, "pitch": 58, "duration": 9, "velocity": 86}, {"time": 1971, "pitch": 61, "duration": 7, "velocity": 89}, {"time": 1977, "pitch": 53, "duration": 8, "velocity": 82}, {"time": 1983, "pitch": 58, "duration": 4, "velocity": 92}, {"time": 1983, "pitch": 61, "duration": 4, "velocity": 97}, {"time": 1983, "pitch": 65, "duration": 5, "velocity": 97}, {"time": 1989, "pitch": 46, "duration": 2, "velocity": 91}, {"time": 1995, "pitch": 48, "duration": 24, "velocity": 97}, {"time": 1995, "pitch": 60, "duration": 5, "velocity": 89}, {"time": 1995, "pitch": 64, "duration": 8, "velocity": 89}, {"time": 1995, "pitch": 67, "duration": 4, "velocity": 89}, {"time": 2001, "pitch": 55, "duration": 7, "velocity": 90}, {"time": 2004, "pitch": 60, "duration": 2, "velocity": 91}, {"time": 2007, "pitch": 60, "duration": 4, "velocity": 102}, {"time": 2007, "pitch": 64, "duration": 4, "velocity": 102}, {"time": 2007, "pitch": 67, "duration": 4, "velocity": 96}, {"time": 2007, "pitch": 72, "duration": 5, "velocity": 92}, {"time": 2010, "pitch": 55, "duration": 9, "velocity": 94}, {"time": 2013, "pitch": 60, "duration": 5, "velocity": 107}, {"time": 2016, "pitch": 64, "duration": 2, "velocity": 97}, {"time": 2019, "pitch": 41, "duration": 17, "velocity": 96}, {"time": 2019, "pitch": 65, "duration": 7, "velocity": 94}, {"time": 2019, "pitch": 68, "duration": 7, "velocity": 91}, {"time": 2025, "pitch": 48, "duration": 7, "velocity": 76}, {"time": 2031, "pitch": 65, "duration": 4, "velocity": 100}, {"time": 2031, "pitch": 68, "duration": 4, "velocity": 105}, {"time": 2031, "pitch": 72, "duration": 4, "velocity": 98}, {"time": 2034, "pitch": 48, "duration": 2, "velocity": 83}, {"time": 2037, "pitch": 65, "duration": 2, "velocity": 98}, {"time": 2043, "pitch": 51, "duration": 16, "velocity": 96}, {"time": 2043, "pitch": 63, "duration": 8, "velocity": 93}, {"time": 2043, "pitch": 67, "duration": 8, "velocity": 92}, {"time": 2049, "pitch": 58, "duration": 7, "velocity": 80}, {"time": 2055, "pitch": 63, "duration": 4, "velocity": 95}, {"time": 2055, "pitch": 67, "duration": 6, "velocity": 105}, {"time": 2055, "pitch": 70, "duration": 7, "velocity": 95}, {"time": 2058, "pitch": 58, "duration": 3, "velocity": 87}, {"time": 2061, "pitch": 51, "duration": 2, "velocity": 95}, {"time": 2067, "pitch": 49, "duration": 9, "velocity": 95}, {"time": 2067, "pitch": 61, "duration": 6, "velocity": 92}, {"time": 2067, "pitch": 65, "duration": 7, "velocity": 94}, {"time": 2073, "pitch": 56, "duration": 4, "velocity": 87}, {"time": 2079, "pitch": 51, "duration": 6, "velocity": 102}, {"time": 2079, "pitch": 63, "duration": 4, "velocity": 92}, {"time": 2079, "pitch": 67, "duration": 6, "velocity": 93}, {"time": 2085, "pitch": 63, "duration": 5, "velocity": 95}, {"time": 2091, "pitch": 44, "duration": 15, "velocity": 93}, {"time": 2091, "pitch": 63, "duration": 7, "velocity": 94}, {"time": 2091, "pitch": 68, "duration": 7, "velocity": 91}, {"time": 2097, "pitch": 51, "duration": 8, "velocity": 87}, {"time": 2103, "pitch": 63, "duration": 9, "velocity": 97}, {"time": 2103, "pitch": 68, "duration": 9, "velocity": 100}, {"time": 2103, "pitch": 72, "duration": 9, "velocity": 98}, {"time": 2109, "pitch": 44, "duration": 5, "velocity": 92}, {"time": 2115, "pitch": 46, "duration": 14, "velocity": 95}, {"time": 2115, "pitch": 58, "duration": 9, "velocity": 93}, {"time": 2115, "pitch": 61, "duration": 8, "velocity": 92}, {"time": 2121, "pitch": 53, "duration": 8, "velocity": 87}, {"time": 2127, "pitch": 58, "duration": 4, "velocity": 93}, {"time": 2127, "pitch": 61, "duration": 5, "velocity": 96}, {"time": 2127, "pitch": 65, "duration": 5, "velocity": 97}, {"time": 2133, "pitch": 46, "duration": 2, "velocity": 93}, {"time": 2139, "pitch": 48, "duration": 17, "velocity": 96}, {"time": 2139, "pitch": 60, "duration": 8, "velocity": 91}, {"time": 2139, "pitch": 63, "duration": 8, "velocity": 91}, {"time": 2139, "pitch": 67, "duration": 7, "velocity": 89}, {"time": 2145, "pitch": 55, "duration": 8, "velocity": 78}, {"time": 2151, "pitch": 60, "duration": 5, "velocity": 98}, {"time": 2151, "pitch": 63, "duration": 6, "velocity": 107}, {"time": 2151, "pitch": 67, "duration": 9, "velocity": 97}, {"time": 2154, "pitch": 55, "duration": 2, "velocity": 93}, {"time": 2157, "pitch": 48, "duration": 4, "velocity": 95}, {"time": 2163, "pitch": 49, "duration": 16, "velocity": 97}, {"time": 2163, "pitch": 61, "duration": 10, "velocity": 91}, {"time": 2163, "pitch": 65, "duration": 10, "velocity": 90}, {"time": 2169, "pitch": 56, "duration": 7, "velocity": 96}, {"time": 2175, "pitch": 61, "duration": 4, "velocity": 94}, {"time": 2175, "pitch": 65, "duration": 4, "velocity": 105}, {"time": 2175, "pitch": 68, "duration": 4, "velocity": 94}, {"time": 2178, "pitch": 56, "duration": 2, "velocity": 91}, {"time": 2181, "pitch": 49, "duration": 2, "velocity": 97}, {"time": 2187, "pitch": 48, "duration": 13, "velocity": 97}, {"time": 2187, "pitch": 60, "duration": 3, "velocity": 92}, {"time": 2187, "pitch": 64, "duration": 4, "velocity": 91}, {"time": 2187, "pitch": 67, "duration": 5, "velocity": 91}, {"time": 2193, "pitch": 60, "duration": 5, "velocity": 96}, {"time": 2196, "pitch": 64, "duration": 2, "velocity": 93}, {"time": 2199, "pitch": 60, "duration": 4, "velocity": 102}, {"time": 2199, "pitch": 64, "duration": 5, "velocity": 112}, {"time": 2199, "pitch": 67, "duration": 5, "velocity": 102}, {"time": 2199, "pitch": 72, "duration": 8, "velocity": 96}, {"time": 2202, "pitch": 55, "duration": 2, "velocity": 96}, {"time": 2205, "pitch": 60, "duration": 2, "velocity": 102}, {"time": 2211, "pitch": 41, "duration": 3, "velocity": 100}, {"time": 2211, "pitch": 60, "duration": 4, "velocity": 95}, {"time": 2211, "pitch": 65, "duration": 5, "velocity": 95}, {"time": 2217, "pitch": 53, "duration": 6, "velocity": 91}, {"time": 2223, "pitch": 65, "duration": 8, "velocity": 98}, {"time": 2223, "pitch": 68, "duration": 8, "velocity": 100}, {"time": 2223, "pitch": 72, "duration": 8, "velocity": 96}, {"time": 2229, "pitch": 43, "duration": 2, "velocity": 92}, {"time": 2235, "pitch": 44, "duration": 16, "velocity": 92}, {"time": 2235, "pitch": 56, "duration": 10, "velocity": 92}, {"time": 2235, "pitch": 60, "duration": 7, "velocity": 95}, {"time": 2241, "pitch": 51, "duration": 8, "velocity": 87}, {"time": 2247, "pitch": 56, "duration": 6, "velocity": 95}, {"time": 2247, "pitch": 60, "duration": 6, "velocity": 107}, {"time": 2247, "pitch": 63, "duration": 7, "velocity": 98}, {"time": 2247, "pitch": 68, "duration": 7, "velocity": 91}, {"time": 2253, "pitch": 44, "duration": 3, "velocity": 94}, {"time": 2259, "pitch": 49, "duration": 9, "velocity": 97}, {"time": 2259, "pitch": 61, "duration": 5, "velocity": 92}, {"time": 2259, "pitch": 65, "duration": 7, "velocity": 102}, {"time": 2265, "pitch": 56, "duration": 4, "velocity": 88}, {"time": 2268, "pitch": 61, "duration": 2, "velocity": 93}, {"time": 2271, "pitch": 49, "duration": 1, "velocity": 91}, {"time": 2271, "pitch": 51, "duration": 8, "velocity": 95}, {"time": 2271, "pitch": 63, "duration": 5, "velocity": 93}, {"time": 2271, "pitch": 67, "duration": 7, "velocity": 95}, {"time": 2274, "pitch": 58, "duration": 4, "velocity": 86}, {"time": 2277, "pitch": 63, "duration": 5, "velocity": 93}, {"time": 2280, "pitch": 67, "duration": 2, "velocity": 94}, {"time": 2283, "pitch": 44, "duration": 15, "velocity": 93}, {"time": 2283, "pitch": 63, "duration": 6, "velocity": 91}, {"time": 2283, "pitch": 68, "duration": 5, "velocity": 92}, {"time": 2289, "pitch": 51, "duration": 8, "velocity": 87}, {"time": 2295, "pitch": 63, "duration": 6, "velocity": 96}, {"time": 2295, "pitch": 68, "duration": 11, "velocity": 96}, {"time": 2295, "pitch": 72, "duration": 12, "velocity": 98}, {"time": 2301, "pitch": 44, "duration": 3, "velocity": 92}, {"time": 2307, "pitch": 46, "duration": 15, "velocity": 93}, {"time": 2307, "pitch": 65, "duration": 4, "velocity": 92}, {"time": 2307, "pitch": 70, "duration": 6, "velocity": 85}, {"time": 2313, "pitch": 53, "duration": 7, "velocity": 85}, {"time": 2319, "pitch": 58, "duration": 5, "velocity": 91}, {"time": 2319, "pitch": 61, "duration": 5, "velocity": 95}, {"time": 2319, "pitch": 65, "duration": 6, "velocity": 97}, {"time": 2325, "pitch": 46, "duration": 3, "velocity": 92}, {"time": 2331, "pitch": 48, "duration": 16, "velocity": 93}, {"time": 2331, "pitch": 60, "duration": 6, "velocity": 92}, {"time": 2331, "pitch": 63, "duration": 7, "velocity": 91}, {"time": 2331, "pitch": 67, "duration": 6, "velocity": 92}, {"time": 2337, "pitch": 55, "duration": 8, "velocity": 91}, {"time": 2343, "pitch": 60, "duration": 9, "velocity": 94}, {"time": 2343, "pitch": 63, "duration": 9, "velocity": 98}, {"time": 2343, "pitch": 67, "duration": 10, "velocity": 93}, {"time": 2343, "pitch": 72, "duration": 12, "velocity": 91}, {"time": 2349, "pitch": 48, "duration": 5, "velocity": 97}, {"time": 2355, "pitch": 49, "duration": 16, "velocity": 95}, {"time": 2355, "pitch": 61, "duration": 8, "velocity": 92}, {"time": 2355, "pitch": 65, "duration": 10, "velocity": 97}, {"time": 2361, "pitch": 56, "duration": 7, "velocity": 89}, {"time": 2364, "pitch": 61, "duration": 2, "velocity": 87}, {"time": 2367, "pitch": 61, "duration": 5, "velocity": 97}, {"time": 2367, "pitch": 65, "duration": 5, "velocity": 105}, {"time": 2367, "pitch": 68, "duration": 5, "velocity": 95}, {"time": 2370, "pitch": 56, "duration": 3, "velocity": 85}, {"time": 2373, "pitch": 49, "duration": 3, "velocity": 97}, {"time": 2379, "pitch": 48, "duration": 16, "velocity": 97}, {"time": 2379, "pitch": 60, "duration": 7, "velocity": 93}, {"time": 2379, "pitch": 64, "duration": 10, "velocity": 92}, {"time": 2379, "pitch": 67, "duration": 10, "velocity": 87}, {"time": 2385, "pitch": 55, "duration": 7, "velocity": 85}, {"time": 2388, "pitch": 60, "duration": 2, "velocity": 91}, {"time": 2391, "pitch": 60, "duration": 4, "velocity": 96}, {"time": 2391, "pitch": 64, "duration": 4, "velocity": 100}, {"time": 2391, "pitch": 67, "duration": 4, "velocity": 94}, {"time": 2391, "pitch": 72, "duration": 5, "velocity": 93}, {"time": 2394, "pitch": 55, "duration": 2, "velocity": 87}, {"time": 2397, "pitch": 48, "duration": 2, "velocity": 92}, {"time": 2403, "pitch": 41, "duration": 2, "velocity": 96}, {"time": 2403, "pitch": 60, "duration": 5, "velocity": 92}, {"time": 2403, "pitch": 65, "duration": 7, "velocity": 92}, {"time": 2409, "pitch": 53, "duration": 16, "velocity": 92}, {"time": 2415, "pitch": 60, "duration": 4, "velocity": 100}, {"time": 2418, "pitch": 65, "duration": 4, "velocity": 100}, {"time": 2418, "pitch": 68, "duration": 4, "velocity": 95}, {"time": 2421, "pitch": 60, "duration": 4, "velocity": 92}, {"time": 2424, "pitch": 65, "duration": 5, "velocity": 92}, {"time": 2424, "pitch": 67, "duration": 5, "velocity": 92}, {"time": 2427, "pitch": 53, "duration": 17, "velocity": 97}, {"time": 2430, "pitch": 60, "duration": 10, "velocity": 81}, {"time": 2433, "pitch": 65, "duration": 4, "velocity": 91}, {"time": 2439, "pitch": 65, "duration": 5, "velocity": 97}, {"time": 2439, "pitch": 68, "duration": 9, "velocity": 95}, {"time": 2439, "pitch": 72, "duration": 10, "velocity": 97}, {"time": 2442, "pitch": 60, "duration": 3, "velocity": 91}, {"time": 2445, "pitch": 53, "duration": 6, "velocity": 93}, {"time": 2451, "pitch": 41, "duration": 17, "velocity": 96}, {"time": 2451, "pitch": 65, "duration": 7, "velocity": 94}, {"time": 2451, "pitch": 68, "duration": 7, "velocity": 91}, {"time": 2457, "pitch": 48, "duration": 7, "velocity": 76}, {"time": 2463, "pitch": 65, "duration": 4, "velocity": 100}, {"time": 2463, "pitch": 68, "duration": 4, "velocity": 105}, {"time": 2463, "pitch": 72, "duration": 4, "velocity": 98}, {"time": 2466, "pitch": 48, "duration": 2, "velocity": 83}, {"time": 2469, "pitch": 65, "duration": 2, "velocity": 98}, {"time": 2475, "pitch": 51, "duration": 16, "velocity": 96}, {"time": 2475, "pitch": 63, "duration": 8, "velocity": 93}, {"time": 2475, "pitch": 67, "duration": 8, "velocity": 92}, {"time": 2481, "pitch": 58, "duration": 7, "velocity": 80}, {"time": 2487, "pitch": 63, "duration": 4, "velocity": 95}, {"time": 2487, "pitch": 67, "duration": 6, "velocity": 105}, {"time": 2487, "pitch": 70, "duration": 7, "velocity": 95}, {"time": 2490, "pitch": 58, "duration": 3, "velocity": 87}, {"time": 2493, "pitch": 51, "duration": 2, "velocity": 95}, {"time": 2499, "pitch": 49, "duration": 9, "velocity": 95}, {"time": 2499, "pitch": 61, "duration": 6, "velocity": 92}, {"time": 2499, "pitch": 65, "duration": 7, "velocity": 94}, {"time": 2505, "pitch": 56, "duration": 4, "velocity": 87}, {"time": 2511, "pitch": 51, "duration": 6, "velocity": 102}, {"time": 2511, "pitch": 63, "duration": 4, "velocity": 92}, {"time": 2511, "pitch": 67, "duration": 6, "velocity": 93}, {"time": 2517, "pitch": 63, "duration": 5, "velocity": 95}, {"time": 2523, "pitch": 44, "duration": 15, "velocity": 93}, {"time": 2523, "pitch": 63, "duration": 7, "velocity": 94}, {"time": 2523, "pitch": 68, "duration": 7, "velocity": 91}, {"time": 2529, "pitch": 51, "duration": 8, "velocity": 87}, {"time": 2535, "pitch": 63, "duration": 9, "velocity": 97}, {"time": 2535, "pitch": 68, "duration": 9, "velocity": 100}, {"time": 2535, "pitch": 72, "duration": 9, "velocity": 98}, {"time": 2541, "pitch": 44, "duration": 5, "velocity": 92}, {"time": 2547, "pitch": 46, "duration": 14, "velocity": 95}, {"time": 2547, "pitch": 58, "duration": 9, "velocity": 93}, {"time": 2547, "pitch": 61, "duration": 8, "velocity": 92}, {"time": 2553, "pitch": 53, "duration": 8, "velocity": 87}, {"time": 2559, "pitch": 58, "duration": 4, "velocity": 93}, {"time": 2559, "pitch": 61, "duration": 5, "velocity": 96}, {"time": 2559, "pitch": 65, "duration": 5, "velocity": 97}, {"time": 2565, "pitch": 46, "duration": 2, "velocity": 93}, {"time": 2571, "pitch": 48, "duration": 17, "velocity": 96}, {"time": 2571, "pitch": 60, "duration": 8, "velocity": 91}, {"time": 2571, "pitch": 63, "duration": 8, "velocity": 91}, {"time": 2571, "pitch": 67, "duration": 7, "velocity": 89}, {"time": 2577, "pitch": 55, "duration": 8, "velocity": 78}, {"time": 2583, "pitch": 60, "duration": 5, "velocity": 98}, {"time": 2583, "pitch": 63, "duration": 6, "velocity": 107}, {"time": 2583, "pitch": 67, "duration": 9, "velocity": 97}, {"time": 2586, "pitch": 55, "duration": 2, "velocity": 93}, {"time": 2589, "pitch": 48, "duration": 4, "velocity": 95}, {"time": 2595, "pitch": 49, "duration": 16, "velocity": 97}, {"time": 2595, "pitch": 61, "duration": 10, "velocity": 91}, {"time": 2595, "pitch": 65, "duration": 10, "velocity": 90}, {"time": 2601, "pitch": 56, "duration": 7, "velocity": 96}, {"time": 2607, "pitch": 61, "duration": 4, "velocity": 94}, {"time": 2607, "pitch": 65, "duration": 4, "velocity": 105}, {"time": 2607, "pitch": 68, "duration": 4, "velocity": 94}, {"time": 2610, "pitch": 56, "duration": 2, "velocity": 91}, {"time": 2613, "pitch": 49, "duration": 2, "velocity": 97}, {"time": 2619, "pitch": 48, "duration": 13, "velocity": 97}, {"time": 2619, "pitch": 60, "duration": 3, "velocity": 92}, {"time": 2619, "pitch": 64, "duration": 4, "velocity": 91}, {"time": 2619, "pitch": 67, "duration": 5, "velocity": 91}, {"time": 2625, "pitch": 60, "duration": 5, "velocity": 96}, {"time": 2628, "pitch": 64, "duration": 2, "velocity": 93}, {"time": 2631, "pitch": 60, "duration": 4, "velocity": 102}, {"time": 2631, "pitch": 64, "duration": 5, "velocity": 112}, {"time": 2631, "pitch": 67, "duration": 5, "velocity": 102}, {"time": 2631, "pitch": 72, "duration": 8, "velocity": 96}, {"time": 2634, "pitch": 55, "duration": 2, "velocity": 96}, {"time": 2637, "pitch": 60, "duration": 2, "velocity": 102}, {"time": 2643, "pitch": 41, "duration": 3, "velocity": 100}, {"time": 2643, "pitch": 60, "duration": 4, "velocity": 95}, {"time": 2643, "pitch": 65, "duration": 5, "velocity": 95}, {"time": 2649, "pitch": 53, "duration": 6, "velocity": 91}, {"time": 2655, "pitch": 65, "duration": 8, "velocity": 98}, {"time": 2655, "pitch": 68, "duration": 8, "velocity": 100}, {"time": 2655, "pitch": 72, "duration": 8, "velocity": 96}, {"time": 2661, "pitch": 43, "duration": 2, "velocity": 92}, {"time": 2667, "pitch": 44, "duration": 16, "velocity": 92}, {"time": 2667, "pitch": 56, "duration": 10, "velocity": 92}, {"time": 2667, "pitch": 60, "duration": 7, "velocity": 95}, {"time": 2673, "pitch": 51, "duration": 8, "velocity": 87}, {"time": 2679, "pitch": 56, "duration": 6, "velocity": 95}, {"time": 2679, "pitch": 60, "duration": 6, "velocity": 107}, {"time": 2679, "pitch": 63, "duration": 7, "velocity": 98}, {"time": 2679, "pitch": 68, "duration": 7, "velocity": 91}, {"time": 2685, "pitch": 44, "duration": 3, "velocity": 94}, {"time": 2691, "pitch": 49, "duration": 9, "velocity": 97}, {"time": 2691, "pitch": 61, "duration": 5, "velocity": 92}, {"time": 2691, "pitch": 65, "duration": 7, "velocity": 102}, {"time": 2697, "pitch": 56, "duration": 4, "velocity": 88}, {"time": 2700, "pitch": 61, "duration": 2, "velocity": 93}, {"time": 2703, "pitch": 49, "duration": 1, "velocity": 91}, {"time": 2703, "pitch": 51, "duration": 8, "velocity": 95}, {"time": 2703, "pitch": 63, "duration": 5, "velocity": 93}, {"time": 2703, "pitch": 67, "duration": 7, "velocity": 95}, {"time": 2706, "pitch": 58, "duration": 4, "velocity": 86}, {"time": 2709, "pitch": 63, "duration": 5, "velocity": 93}, {"time": 2712, "pitch": 67, "duration": 2, "velocity": 94}, {"time": 2715, "pitch": 44, "duration": 15, "velocity": 93}, {"time": 2715, "pitch": 63, "duration": 6, "velocity": 91}, {"time": 2715, "pitch": 68, "duration": 5, "velocity": 92}, {"time": 2721, "pitch": 51, "duration": 8, "velocity": 87}, {"time": 2727, "pitch": 63, "duration": 6, "velocity": 96}, {"time": 2727, "pitch": 68, "duration": 11, "velocity": 96}, {"time": 2727, "pitch": 72, "duration": 12, "velocity": 98}, {"time": 2733, "pitch": 44, "duration": 3, "velocity": 92}, {"time": 2739, "pitch": 46, "duration": 15, "velocity": 93}, {"time": 2739, "pitch": 65, "duration": 4, "velocity": 92}, {"time": 2739, "pitch": 70, "duration": 6, "velocity": 85}, {"time": 2745, "pitch": 53, "duration": 7, "velocity": 85}, {"time": 2751, "pitch": 58, "duration": 5, "velocity": 91}, {"time": 2751, "pitch": 61, "duration": 5, "velocity": 95}, {"time": 2751, "pitch": 65, "duration": 6, "velocity": 97}, {"time": 2757, "pitch": 46, "duration": 3, "velocity": 92}, {"time": 2763, "pitch": 48, "duration": 16, "velocity": 93}, {"time": 2763, "pitch": 60, "duration": 6, "velocity": 92}, {"time": 2763, "pitch": 63, "duration": 7, "velocity": 91}, {"time": 2763, "pitch": 67, "duration": 6, "velocity": 92}, {"time": 2769, "pitch": 55, "duration": 8, "velocity": 91}, {"time": 2775, "pitch": 60, "duration": 9, "velocity": 94}, {"time": 2775, "pitch": 63, "duration": 9, "velocity": 98}, {"time": 2775, "pitch": 67, "duration": 10, "velocity": 93}, {"time": 2775, "pitch": 72, "duration": 12, "velocity": 91}, {"time": 2781, "pitch": 48, "duration": 5, "velocity": 97}, {"time": 2787, "pitch": 49, "duration": 16, "velocity": 95}, {"time": 2787, "pitch": 61, "duration": 8, "velocity": 92}, {"time": 2787, "pitch": 65, "duration": 10, "velocity": 97}, {"time": 2793, "pitch": 56, "duration": 7, "velocity": 89}, {"time": 2796, "pitch": 61, "duration": 2, "velocity": 87}, {"time": 2799, "pitch": 61, "duration": 5, "velocity": 97}, {"time": 2799, "pitch": 65, "duration": 5, "velocity": 105}, {"time": 2799, "pitch": 68, "duration": 5, "velocity": 95}, {"time": 2802, "pitch": 56, "duration": 3, "velocity": 85}, {"time": 2805, "pitch": 49, "duration": 3, "velocity": 97}, {"time": 2811, "pitch": 48, "duration": 16, "velocity": 97}, {"time": 2811, "pitch": 60, "duration": 7, "velocity": 93}, {"time": 2811, "pitch": 64, "duration": 10, "velocity": 92}, {"time": 2811, "pitch": 67, "duration": 10, "velocity": 87}, {"time": 2817, "pitch": 55, "duration": 7, "velocity": 85}, {"time": 2820, "pitch": 60, "duration": 2, "velocity": 91}, {"time": 2823, "pitch": 60, "duration": 4, "velocity": 96}, {"time": 2823, "pitch": 64, "duration": 4, "velocity": 100}, {"time": 2823, "pitch": 67, "duration": 4, "velocity": 94}, {"time": 2823, "pitch": 72, "duration": 5, "velocity": 93}, {"time": 2826, "pitch": 55, "duration": 2, "velocity": 87}, {"time": 2829, "pitch": 48, "duration": 2, "velocity": 92}, {"time": 2835, "pitch": 41, "duration": 2, "velocity": 96}, {"time": 2835, "pitch": 60, "duration": 5, "velocity": 92}, {"time": 2835, "pitch": 65, "duration": 7, "velocity": 92}, {"time": 2841, "pitch": 53, "duration": 16, "velocity": 92}, {"time": 2847, "pitch": 60, "duration": 4, "velocity": 100}, {"time": 2850, "pitch": 65, "duration": 4, "velocity": 100}, {"time": 2850, "pitch": 68, "duration": 4, "velocity": 95}, {"time": 2853, "pitch": 60, "duration": 4, "velocity": 92}, {"time": 2856, "pitch": 65, "duration": 5, "velocity": 92}, {"time": 2856, "pitch": 67, "duration": 5, "velocity": 92}, {"time": 2858, "pitch": 65, "duration": 3, "velocity": 85}, {"time": 2859, "pitch": 68, "duration": 23, "velocity": 83}, {"time": 2859, "pitch": 41, "duration": 15, "velocity": 94}, {"time": 2860, "pitch": 72, "duration": 22, "velocity": 84}, {"time": 2860, "pitch": 77, "duration": 22, "velocity": 91}, {"time": 2885, "pitch": 61, "duration": 7, "velocity": 81}, {"time": 2885, "pitch": 65, "duration": 9, "velocity": 92}, {"time": 2885, "pitch": 49, "duration": 13, "velocity": 95}, {"time": 2891, "pitch": 56, "duration": 7, "velocity": 80}, {"time": 2894, "pitch": 61, "duration": 3, "velocity": 86}, {"time": 2897, "pitch": 65, "duration": 2, "velocity": 100}, {"time": 2903, "pitch": 63, "duration": 9, "velocity": 85}, {"time": 2903, "pitch": 67, "duration": 15, "velocity": 84}, {"time": 2903, "pitch": 51, "duration": 34, "velocity": 93}, {"time": 2911, "pitch": 58, "duration": 19, "velocity": 88}, {"time": 2917, "pitch": 63, "duration": 7, "velocity": 90}, {"time": 2926, "pitch": 65, "duration": 4, "velocity": 92}, {"time": 2930, "pitch": 63, "duration": 4, "velocity": 92}, {"time": 2934, "pitch": 58, "duration": 9, "velocity": 78}, {"time": 2954, "pitch": 41, "duration": 38, "velocity": 93}, {"time": 2957, "pitch": 48, "duration": 34, "velocity": 69}, {"time": 2959, "pitch": 53, "duration": 2, "velocity": 84}, {"time": 2961, "pitch": 55, "duration": 1, "velocity": 77}, {"time": 2963, "pitch": 56, "duration": 3, "velocity": 79}, {"time": 2965, "pitch": 60, "duration": 3, "velocity": 83}, {"time": 2967, "pitch": 65, "duration": 2, "velocity": 85}, {"time": 2970, "pitch": 67, "duration": 2, "velocity": 87}, {"time": 2974, "pitch": 68, "duration": 4, "velocity": 82}, {"time": 2979, "pitch": 72, "duration": 2, "velocity": 84}], "annotations": [{"time": 52, "annotation": {"number": 64, "value": 127}, "group": "control_change"}, {"time": 75, "annotation": {"number": 64, "value": 0}, "group": "control_change"}, {"time": 76, "annotation": {"number": 64, "value": 127}, "group": "control_change"}, {"time": 111, "annotation": {"number": 64, "value": 0}, "group": "control_change"}, {"time": 112, "annotation": {"number": 64, "value": 127}, "group": "control_change"}, {"time": 123, "annotation": {"number": 64, "value": 0}, "group": "control_change"}, {"time": 124, "annotation": {"number": 64, "value": 127}, "group": "control_change"}, {"time": 147, "annotation": {"number": 64, "value": 0}, "group": "control_change"}, {"time": 148, "annotation": {"number": 64, "value": 127}, "group": "control_change"}, {"time": 171, "annotation": {"number": 64, "value": 127}, "group": "control_change"}, {"time": 171, "annotation": {"number": 64, "value": 0}, "group": "control_change"}, {"time": 183, "annotation": {"number": 64, "value": 0}, "group": "control_change"}, {"time": 201, "annotation": {"number": 64, "value": 127}, "group": "control_change"}, {"time": 219, "annotation": {"number": 64, "value": 0}, "group": "control_change"}, {"time": 243, "annotation": {"number": 64, "value": 127}, "group": "control_change"}, {"time": 278, "annotation": {"number": 64, "value": 0}, "group": "control_change"}, {"time": 279, "annotation": {"number": 64, "value": 127}, "group": "control_change"}, {"time": 290, "annotation": {"number": 64, "value": 0}, "group": "control_change"}, {"time": 292, "annotation": {"number": 64, "value": 127}, "group": "control_change"}, {"time": 338, "annotation": {"number": 64, "value": 0}, "group": "control_change"}, {"time": 344, "annotation": {"number": 64, "value": 127}, "group": "control_change"}, {"time": 363, "annotation": {"number": 64, "value": 0}, "group": "control_change"}, {"time": 368, "annotation": {"number": 64, "value": 127}, "group": "control_change"}, {"time": 387, "annotation": {"number": 64, "value": 0}, "group": "control_change"}, {"time": 393, "annotation": {"number": 64, "value": 127}, "group": "control_change"}, {"time": 410, "annotation": {"number": 64, "value": 0}, "group": "control_change"}, {"time": 411, "annotation": {"number": 64, "value": 127}, "group": "control_change"}, {"time": 434, "annotation": {"number": 64, "value": 0}, "group": "control_change"}, {"time": 459, "annotation": {"number": 64, "value": 0}, "group": "control_change"}, {"time": 460, "annotation": {"number": 64, "value": 127}, "group": "control_change"}, {"time": 470, "annotation": {"number": 64, "value": 0}, "group": "control_change"}, {"time": 472, "annotation": {"number": 64, "value": 127}, "group": "control_change"}, {"time": 482, "annotation": {"number": 64, "value": 0}, "group": "control_change"}, {"time": 484, "annotation": {"number": 64, "value": 127}, "group": "control_change"}, {"time": 506, "annotation": {"number": 64, "value": 0}, "group": "control_change"}, {"time": 507, "annotation": {"number": 64, "value": 127}, "group": "control_change"}, {"time": 530, "annotation": {"number": 64, "value": 0}, "group": "control_change"}, {"time": 532, "annotation": {"number": 64, "value": 127}, "group": "control_change"}, {"time": 554, "annotation": {"number": 64, "value": 0}, "group": "control_change"}, {"time": 555, "annotation": {"number": 64, "value": 127}, "group": "control_change"}, {"time": 580, "annotation": {"number": 64, "value": 127}, "group": "control_change"}, {"time": 590, "annotation": {"number": 64, "value": 0}, "group": "control_change"}, {"time": 591, "annotation": {"number": 64, "value": 127}, "group": "control_change"}, {"time": 602, "annotation": {"number": 64, "value": 0}, "group": "control_change"}, {"time": 604, "annotation": {"number": 64, "value": 127}, "group": "control_change"}, {"time": 613, "annotation": {"number": 64, "value": 0}, "group": "control_change"}, {"time": 614, "annotation": {"number": 64, "value": 127}, "group": "control_change"}, {"time": 627, "annotation": {"number": 64, "value": 0}, "group": "control_change"}, {"time": 627, "annotation": {"number": 64, "value": 127}, "group": "control_change"}, {"time": 651, "annotation": {"number": 64, "value": 0}, "group": "control_change"}, {"time": 656, "annotation": {"number": 64, "value": 127}, "group": "control_change"}, {"time": 674, "annotation": {"number": 64, "value": 0}, "group": "control_change"}, {"time": 678, "annotation": {"number": 64, "value": 127}, "group": "control_change"}, {"time": 698, "annotation": {"number": 64, "value": 0}, "group": "control_change"}, {"time": 701, "annotation": {"number": 64, "value": 127}, "group": "control_change"}, {"time": 722, "annotation": {"number": 64, "value": 0}, "group": "control_change"}, {"time": 724, "annotation": {"number": 64, "value": 127}, "group": "control_change"}, {"time": 748, "annotation": {"number": 64, "value": 0}, "group": "control_change"}, {"time": 750, "annotation": {"number": 64, "value": 127}, "group": "control_change"}, {"time": 771, "annotation": {"number": 64, "value": 0}, "group": "control_change"}, {"time": 776, "annotation": {"number": 64, "value": 127}, "group": "control_change"}, {"time": 794, "annotation": {"number": 64, "value": 0}, "group": "control_change"}, {"time": 796, "annotation": {"number": 64, "value": 127}, "group": "control_change"}, {"time": 818, "annotation": {"number": 64, "value": 0}, "group": "control_change"}, {"time": 820, "annotation": {"number": 64, "value": 127}, "group": "control_change"}, {"time": 843, "annotation": {"number": 64, "value": 0}, "group": "control_change"}, {"time": 846, "annotation": {"number": 64, "value": 127}, "group": "control_change"}, {"time": 866, "annotation": {"number": 64, "value": 0}, "group": "control_change"}, {"time": 868, "annotation": {"number": 64, "value": 127}, "group": "control_change"}, {"time": 879, "annotation": {"number": 64, "value": 0}, "group": "control_change"}, {"time": 880, "annotation": {"number": 64, "value": 127}, "group": "control_change"}, {"time": 890, "annotation": {"number": 64, "value": 0}, "group": "control_change"}, {"time": 892, "annotation": {"number": 64, "value": 127}, "group": "control_change"}, {"time": 916, "annotation": {"number": 64, "value": 0}, "group": "control_change"}, {"time": 921, "annotation": {"number": 64, "value": 127}, "group": "control_change"}, {"time": 938, "annotation": {"number": 64, "value": 0}, "group": "control_change"}, {"time": 940, "annotation": {"number": 64, "value": 127}, "group": "control_change"}, {"time": 963, "annotation": {"number": 64, "value": 0}, "group": "control_change"}, {"time": 968, "annotation": {"number": 64, "value": 127}, "group": "control_change"}, {"time": 985, "annotation": {"number": 64, "value": 0}, "group": "control_change"}, {"time": 987, "annotation": {"number": 64, "value": 127}, "group": "control_change"}, {"time": 1010, "annotation": {"number": 64, "value": 0}, "group": "control_change"}, {"time": 1012, "annotation": {"number": 64, "value": 127}, "group": "control_change"}, {"time": 1034, "annotation": {"number": 64, "value": 0}, "group": "control_change"}, {"time": 1040, "annotation": {"number": 64, "value": 127}, "group": "control_change"}, {"time": 1059, "annotation": {"number": 64, "value": 0}, "group": "control_change"}, {"time": 1061, "annotation": {"number": 64, "value": 127}, "group": "control_change"}, {"time": 1070, "annotation": {"number": 64, "value": 0}, "group": "control_change"}, {"time": 1072, "annotation": {"number": 64, "value": 127}, "group": "control_change"}, {"time": 1082, "annotation": {"number": 64, "value": 0}, "group": "control_change"}, {"time": 1084, "annotation": {"number": 64, "value": 127}, "group": "control_change"}, {"time": 1105, "annotation": {"number": 64, "value": 0}, "group": "control_change"}, {"time": 1107, "annotation": {"number": 64, "value": 127}, "group": "control_change"}, {"time": 1130, "annotation": {"number": 64, "value": 0}, "group": "control_change"}, {"time": 1132, "annotation": {"number": 64, "value": 127}, "group": "control_change"}, {"time": 1154, "annotation": {"number": 64, "value": 0}, "group": "control_change"}, {"time": 1161, "annotation": {"number": 64, "value": 127}, "group": "control_change"}, {"time": 1178, "annotation": {"number": 64, "value": 0}, "group": "control_change"}, {"time": 1183, "annotation": {"number": 64, "value": 127}, "group": "control_change"}, {"time": 1202, "annotation": {"number": 64, "value": 0}, "group": "control_change"}, {"time": 1204, "annotation": {"number": 64, "value": 127}, "group": "control_change"}, {"time": 1251, "annotation": {"number": 64, "value": 0}, "group": "control_change"}, {"time": 1252, "annotation": {"number": 64, "value": 127}, "group": "control_change"}, {"time": 1274, "annotation": {"number": 64, "value": 0}, "group": "control_change"}, {"time": 1275, "annotation": {"number": 64, "value": 127}, "group": "control_change"}, {"time": 1299, "annotation": {"number": 64, "value": 0}, "group": "control_change"}, {"time": 1301, "annotation": {"number": 64, "value": 127}, "group": "control_change"}, {"time": 1323, "annotation": {"number": 64, "value": 0}, "group": "control_change"}, {"time": 1324, "annotation": {"number": 64, "value": 127}, "group": "control_change"}, {"time": 1347, "annotation": {"number": 64, "value": 0}, "group": "control_change"}, {"time": 1351, "annotation": {"number": 64, "value": 127}, "group": "control_change"}, {"time": 1371, "annotation": {"number": 64, "value": 0}, "group": "control_change"}, {"time": 1372, "annotation": {"number": 64, "value": 127}, "group": "control_change"}, {"time": 1396, "annotation": {"number": 64, "value": 0}, "group": "control_change"}, {"time": 1399, "annotation": {"number": 64, "value": 127}, "group": "control_change"}, {"time": 1418, "annotation": {"number": 64, "value": 0}, "group": "control_change"}, {"time": 1421, "annotation": {"number": 64, "value": 127}, "group": "control_change"}, {"time": 1443, "annotation": {"number": 64, "value": 0}, "group": "control_change"}, {"time": 1444, "annotation": {"number": 64, "value": 127}, "group": "control_change"}, {"time": 1468, "annotation": {"number": 64, "value": 0}, "group": "control_change"}, {"time": 1472, "annotation": {"number": 64, "value": 127}, "group": "control_change"}, {"time": 1490, "annotation": {"number": 64, "value": 0}, "group": "control_change"}, {"time": 1493, "annotation": {"number": 64, "value": 127}, "group": "control_change"}, {"time": 1516, "annotation": {"number": 64, "value": 0}, "group": "control_change"}, {"time": 1517, "annotation": {"number": 64, "value": 127}, "group": "control_change"}, {"time": 1539, "annotation": {"number": 64, "value": 0}, "group": "control_change"}, {"time": 1543, "annotation": {"number": 64, "value": 127}, "group": "control_change"}, {"time": 1563, "annotation": {"number": 64, "value": 0}, "group": "control_change"}, {"time": 1563, "annotation": {"number": 64, "value": 127}, "group": "control_change"}, {"time": 1569, "annotation": {"number": 64, "value": 0}, "group": "control_change"}, {"time": 1585, "annotation": {"number": 64, "value": 127}, "group": "control_change"}, {"time": 1623, "annotation": {"number": 64, "value": 127}, "group": "control_change"}, {"time": 1633, "annotation": {"number": 64, "value": 0}, "group": "control_change"}, {"time": 1659, "annotation": {"number": 64, "value": 0}, "group": "control_change"}, {"time": 1660, "annotation": {"number": 64, "value": 127}, "group": "control_change"}, {"time": 1670, "annotation": {"number": 64, "value": 0}, "group": "control_change"}, {"time": 1672, "annotation": {"number": 64, "value": 127}, "group": "control_change"}, {"time": 1682, "annotation": {"number": 64, "value": 0}, "group": "control_change"}, {"time": 1684, "annotation": {"number": 64, "value": 127}, "group": "control_change"}, {"time": 1706, "annotation": {"number": 64, "value": 0}, "group": "control_change"}, {"time": 1707, "annotation": {"number": 64, "value": 127}, "group": "control_change"}, {"time": 1730, "annotation": {"number": 64, "value": 0}, "group": "control_change"}, {"time": 1732, "annotation": {"number": 64, "value": 127}, "group": "control_change"}, {"time": 1754, "annotation": {"number": 64, "value": 0}, "group": "control_change"}, {"time": 1755, "annotation": {"number": 64, "value": 127}, "group": "control_change"}, {"time": 1780, "annotation": {"number": 64, "value": 127}, "group": "control_change"}, {"time": 1790, "annotation": {"number": 64, "value": 0}, "group": "control_change"}, {"time": 1791, "annotation": {"number": 64, "value": 127}, "group": "control_change"}, {"time": 1802, "annotation": {"number": 64, "value": 0}, "group": "control_change"}, {"time": 1804, "annotation": {"number": 64, "value": 127}, "group": "control_change"}, {"time": 1813, "annotation": {"number": 64, "value": 0}, "group": "control_change"}, {"time": 1814, "annotation": {"number": 64, "value": 127}, "group": "control_change"}, {"time": 1827, "annotation": {"number": 64, "value": 0}, "group": "control_change"}, {"time": 1827, "annotation": {"number": 64, "value": 127}, "group": "control_change"}, {"time": 1851, "annotation": {"number": 64, "value": 0}, "group": "control_change"}, {"time": 1856, "annotation": {"number": 64, "value": 127}, "group": "control_change"}, {"time": 1874, "annotation": {"number": 64, "value": 0}, "group": "control_change"}, {"time": 1878, "annotation": {"number": 64, "value": 127}, "group": "control_change"}, {"time": 1898, "annotation": {"number": 64, "value": 0}, "group": "control_change"}, {"time": 1901, "annotation": {"number": 64, "value": 127}, "group": "control_change"}, {"time": 1922, "annotation": {"number": 64, "value": 0}, "group": "control_change"}, {"time": 1924, "annotation": {"number": 64, "value": 127}, "group": "control_change"}, {"time": 1948, "annotation": {"number": 64, "value": 0}, "group": "control_change"}, {"time": 1950, "annotation": {"number": 64, "value": 127}, "group": "control_change"}, {"time": 1971, "annotation": {"number": 64, "value": 0}, "group": "control_change"}, {"time": 1976, "annotation": {"number": 64, "value": 127}, "group": "control_change"}, {"time": 1994, "annotation": {"number": 64, "value": 0}, "group": "control_change"}, {"time": 1996, "annotation": {"number": 64, "value": 127}, "group": "control_change"}, {"time": 2018, "annotation": {"number": 64, "value": 0}, "group": "control_change"}, {"time": 2020, "annotation": {"number": 64, "value": 127}, "group": "control_change"}, {"time": 2043, "annotation": {"number": 64, "value": 0}, "group": "control_change"}, {"time": 2046, "annotation": {"number": 64, "value": 127}, "group": "control_change"}, {"time": 2066, "annotation": {"number": 64, "value": 0}, "group": "control_change"}, {"time": 2068, "annotation": {"number": 64, "value": 127}, "group": "control_change"}, {"time": 2079, "annotation": {"number": 64, "value": 0}, "group": "control_change"}, {"time": 2080, "annotation": {"number": 64, "value": 127}, "group": "control_change"}, {"time": 2090, "annotation": {"number": 64, "value": 0}, "group": "control_change"}, {"time": 2092, "annotation": {"number": 64, "value": 127}, "group": "control_change"}, {"time": 2116, "annotation": {"number": 64, "value": 0}, "group": "control_change"}, {"time": 2121, "annotation": {"number": 64, "value": 127}, "group": "control_change"}, {"time": 2138, "annotation": {"number": 64, "value": 0}, "group": "control_change"}, {"time": 2140, "annotation": {"number": 64, "value": 127}, "group": "control_change"}, {"time": 2163, "annotation": {"number": 64, "value": 0}, "group": "control_change"}, {"time": 2168, "annotation": {"number": 64, "value": 127}, "group": "control_change"}, {"time": 2185, "annotation": {"number": 64, "value": 0}, "group": "control_change"}, {"time": 2187, "annotation": {"number": 64, "value": 127}, "group": "control_change"}, {"time": 2210, "annotation": {"number": 64, "value": 0}, "group": "control_change"}, {"time": 2212, "annotation": {"number": 64, "value": 127}, "group": "control_change"}, {"time": 2234, "annotation": {"number": 64, "value": 0}, "group": "control_change"}, {"time": 2240, "annotation": {"number": 64, "value": 127}, "group": "control_change"}, {"time": 2259, "annotation": {"number": 64, "value": 0}, "group": "control_change"}, {"time": 2261, "annotation": {"number": 64, "value": 127}, "group": "control_change"}, {"time": 2270, "annotation": {"number": 64, "value": 0}, "group": "control_change"}, {"time": 2272, "annotation": {"number": 64, "value": 127}, "group": "control_change"}, {"time": 2282, "annotation": {"number": 64, "value": 0}, "group": "control_change"}, {"time": 2284, "annotation": {"number": 64, "value": 127}, "group": "control_change"}, {"time": 2305, "annotation": {"number": 64, "value": 0}, "group": "control_change"}, {"time": 2307, "annotation": {"number": 64, "value": 127}, "group": "control_change"}, {"time": 2330, "annotation": {"number": 64, "value": 0}, "group": "control_change"}, {"time": 2332, "annotation": {"number": 64, "value": 127}, "group": "control_change"}, {"time": 2354, "annotation": {"number": 64, "value": 0}, "group": "control_change"}, {"time": 2361, "annotation": {"number": 64, "value": 127}, "group": "control_change"}, {"time": 2378, "annotation": {"number": 64, "value": 0}, "group": "control_change"}, {"time": 2383, "annotation": {"number": 64, "value": 127}, "group": "control_change"}, {"time": 2402, "annotation": {"number": 64, "value": 0}, "group": "control_change"}, {"time": 2404, "annotation": {"number": 64, "value": 127}, "group": "control_change"}, {"time": 2451, "annotation": {"number": 64, "value": 0}, "group": "control_change"}, {"time": 2452, "annotation": {"number": 64, "value": 127}, "group": "control_change"}, {"time": 2475, "annotation": {"number": 64, "value": 0}, "group": "control_change"}, {"time": 2478, "annotation": {"number": 64, "value": 127}, "group": "control_change"}, {"time": 2498, "annotation": {"number": 64, "value": 0}, "group": "control_change"}, {"time": 2500, "annotation": {"number": 64, "value": 127}, "group": "control_change"}, {"time": 2511, "annotation": {"number": 64, "value": 0}, "group": "control_change"}, {"time": 2512, "annotation": {"number": 64, "value": 127}, "group": "control_change"}, {"time": 2522, "annotation": {"number": 64, "value": 0}, "group": "control_change"}, {"time": 2524, "annotation": {"number": 64, "value": 127}, "group": "control_change"}, {"time": 2548, "annotation": {"number": 64, "value": 0}, "group": "control_change"}, {"time": 2553, "annotation": {"number": 64, "value": 127}, "group": "control_change"}, {"time": 2570, "annotation": {"number": 64, "value": 0}, "group": "control_change"}, {"time": 2572, "annotation": {"number": 64, "value": 127}, "group": "control_change"}, {"time": 2595, "annotation": {"number": 64, "value": 0}, "group": "control_change"}, {"time": 2600, "annotation": {"number": 64, "value": 127}, "group": "control_change"}, {"time": 2617, "annotation": {"number": 64, "value": 0}, "group": "control_change"}, {"time": 2619, "annotation": {"number": 64, "value": 127}, "group": "control_change"}, {"time": 2642, "annotation": {"number": 64, "value": 0}, "group": "control_change"}, {"time": 2644, "annotation": {"number": 64, "value": 127}, "group": "control_change"}, {"time": 2666, "annotation": {"number": 64, "value": 0}, "group": "control_change"}, {"time": 2672, "annotation": {"number": 64, "value": 127}, "group": "control_change"}, {"time": 2691, "annotation": {"number": 64, "value": 0}, "group": "control_change"}, {"time": 2693, "annotation": {"number": 64, "value": 127}, "group": "control_change"}, {"time": 2702, "annotation": {"number": 64, "value": 0}, "group": "control_change"}, {"time": 2704, "annotation": {"number": 64, "value": 127}, "group": "control_change"}, {"time": 2714, "annotation": {"number": 64, "value": 0}, "group": "control_change"}, {"time": 2716, "annotation": {"number": 64, "value": 127}, "group": "control_change"}, {"time": 2737, "annotation": {"number": 64, "value": 0}, "group": "control_change"}, {"time": 2739, "annotation": {"number": 64, "value": 127}, "group": "control_change"}, {"time": 2762, "annotation": {"number": 64, "value": 0}, "group": "control_change"}, {"time": 2764, "annotation": {"number": 64, "value": 127}, "group": "control_change"}, {"time": 2786, "annotation": {"number": 64, "value": 0}, "group": "control_change"}, {"time": 2793, "annotation": {"number": 64, "value": 127}, "group": "control_change"}, {"time": 2810, "annotation": {"number": 64, "value": 0}, "group": "control_change"}, {"time": 2815, "annotation": {"number": 64, "value": 127}, "group": "control_change"}, {"time": 2834, "annotation": {"number": 64, "value": 0}, "group": "control_change"}, {"time": 2836, "annotation": {"number": 64, "value": 127}, "group": "control_change"}, {"time": 2860, "annotation": {"number": 64, "value": 127}, "group": "control_change"}, {"time": 2882, "annotation": {"number": 64, "value": 0}, "group": "control_change"}, {"time": 2886, "annotation": {"number": 64, "value": 127}, "group": "control_change"}, {"time": 2903, "annotation": {"number": 64, "value": 0}, "group": "control_change"}, {"time": 2910, "annotation": {"number": 64, "value": 127}, "group": "control_change"}, {"time": 2931, "annotation": {"number": 64, "value": 0}, "group": "control_change"}, {"time": 2933, "annotation": {"number": 64, "value": 127}, "group": "control_change"}, {"time": 2955, "annotation": {"number": 64, "value": 0}, "group": "control_change"}, {"time": 2958, "annotation": {"number": 64, "value": 127}, "group": "control_change"}]}]}