{"metadata": {"schema_version": "0.2", "title": "None", "source_filename": "415.mid", "source_format": "midi"}, "resolution": 12, "tempos": [{"time": 0, "qpm": 66.000066000066}], "time_signatures": [{"time": 0, "numerator": 1, "denominator": 4}], "tracks": [{"program": 0, "is_drum": false, "name": "MELODY", "notes": [{"time": 422, "pitch": 71, "duration": 2, "velocity": 92}, {"time": 425, "pitch": 71, "duration": 4, "velocity": 88}, {"time": 431, "pitch": 71, "duration": 2, "velocity": 88}, {"time": 434, "pitch": 71, "duration": 3, "velocity": 89}, {"time": 440, "pitch": 70, "duration": 2, "velocity": 89}, {"time": 443, "pitch": 68, "duration": 14, "velocity": 90}, {"time": 464, "pitch": 63, "duration": 2, "velocity": 92}, {"time": 467, "pitch": 68, "duration": 2, "velocity": 79}, {"time": 470, "pitch": 66, "duration": 13, "velocity": 87}, {"time": 488, "pitch": 64, "duration": 4, "velocity": 85}, {"time": 494, "pitch": 63, "duration": 18, "velocity": 88}, {"time": 518, "pitch": 71, "duration": 2, "velocity": 88}, {"time": 521, "pitch": 71, "duration": 2, "velocity": 84}, {"time": 524, "pitch": 71, "duration": 2, "velocity": 87}, {"time": 527, "pitch": 71, "duration": 2, "velocity": 87}, {"time": 530, "pitch": 71, "duration": 4, "velocity": 94}, {"time": 536, "pitch": 73, "duration": 5, "velocity": 92}, {"time": 542, "pitch": 68, "duration": 13, "velocity": 85}, {"time": 566, "pitch": 73, "duration": 2, "velocity": 94}, {"time": 569, "pitch": 73, "duration": 2, "velocity": 87}, {"time": 572, "pitch": 73, "duration": 2, "velocity": 87}, {"time": 575, "pitch": 73, "duration": 2, "velocity": 88}, {"time": 578, "pitch": 73, "duration": 5, "velocity": 92}, {"time": 584, "pitch": 71, "duration": 6, "velocity": 87}, {"time": 590, "pitch": 68, "duration": 5, "velocity": 84}, {"time": 596, "pitch": 70, "duration": 14, "velocity": 83}, {"time": 611, "pitch": 63, "duration": 2, "velocity": 88}, {"time": 614, "pitch": 75, "duration": 2, "velocity": 86}, {"time": 617, "pitch": 75, "duration": 2, "velocity": 94}, {"time": 620, "pitch": 75, "duration": 2, "velocity": 87}, {"time": 623, "pitch": 75, "duration": 2, "velocity": 86}, {"time": 626, "pitch": 75, "duration": 2, "velocity": 88}, {"time": 629, "pitch": 71, "duration": 2, "velocity": 84}, {"time": 632, "pitch": 70, "duration": 2, "velocity": 82}, {"time": 635, "pitch": 68, "duration": 2, "velocity": 88}, {"time": 638, "pitch": 75, "duration": 12, "velocity": 90}, {"time": 656, "pitch": 71, "duration": 2, "velocity": 87}, {"time": 659, "pitch": 73, "duration": 2, "velocity": 94}, {"time": 662, "pitch": 75, "duration": 4, "velocity": 89}, {"time": 668, "pitch": 78, "duration": 2, "velocity": 85}, {"time": 671, "pitch": 78, "duration": 7, "velocity": 87}, {"time": 680, "pitch": 75, "duration": 4, "velocity": 87}, {"time": 686, "pitch": 71, "duration": 13, "velocity": 86}, {"time": 704, "pitch": 68, "duration": 2, "velocity": 85}, {"time": 707, "pitch": 70, "duration": 2, "velocity": 85}, {"time": 710, "pitch": 71, "duration": 16, "velocity": 85}, {"time": 728, "pitch": 71, "duration": 2, "velocity": 87}, {"time": 731, "pitch": 75, "duration": 5, "velocity": 87}, {"time": 737, "pitch": 73, "duration": 11, "velocity": 90}, {"time": 758, "pitch": 73, "duration": 2, "velocity": 99}, {"time": 761, "pitch": 75, "duration": 2, "velocity": 84}, {"time": 764, "pitch": 73, "duration": 2, "velocity": 87}, {"time": 767, "pitch": 71, "duration": 2, "velocity": 88}, {"time": 770, "pitch": 68, "duration": 2, "velocity": 88}, {"time": 773, "pitch": 76, "duration": 9, "velocity": 85}, {"time": 782, "pitch": 75, "duration": 14, "velocity": 90}, {"time": 806, "pitch": 71, "duration": 2, "velocity": 92}, {"time": 809, "pitch": 71, "duration": 4, "velocity": 88}, {"time": 815, "pitch": 71, "duration": 2, "velocity": 88}, {"time": 818, "pitch": 71, "duration": 3, "velocity": 89}, {"time": 824, "pitch": 70, "duration": 2, "velocity": 89}, {"time": 827, "pitch": 68, "duration": 14, "velocity": 90}, {"time": 848, "pitch": 63, "duration": 2, "velocity": 92}, {"time": 851, "pitch": 68, "duration": 2, "velocity": 79}, {"time": 854, "pitch": 66, "duration": 13, "velocity": 87}, {"time": 872, "pitch": 64, "duration": 4, "velocity": 85}, {"time": 878, "pitch": 63, "duration": 18, "velocity": 88}, {"time": 902, "pitch": 71, "duration": 2, "velocity": 88}, {"time": 905, "pitch": 71, "duration": 2, "velocity": 84}, {"time": 908, "pitch": 71, "duration": 2, "velocity": 87}, {"time": 911, "pitch": 71, "duration": 2, "velocity": 87}, {"time": 914, "pitch": 71, "duration": 4, "velocity": 94}, {"time": 920, "pitch": 73, "duration": 5, "velocity": 92}, {"time": 926, "pitch": 68, "duration": 13, "velocity": 85}, {"time": 950, "pitch": 73, "duration": 2, "velocity": 94}, {"time": 953, "pitch": 73, "duration": 2, "velocity": 87}, {"time": 956, "pitch": 73, "duration": 2, "velocity": 87}, {"time": 959, "pitch": 73, "duration": 2, "velocity": 88}, {"time": 962, "pitch": 73, "duration": 5, "velocity": 92}, {"time": 968, "pitch": 71, "duration": 6, "velocity": 87}, {"time": 974, "pitch": 68, "duration": 5, "velocity": 84}, {"time": 980, "pitch": 70, "duration": 14, "velocity": 83}, {"time": 995, "pitch": 63, "duration": 2, "velocity": 88}, {"time": 998, "pitch": 75, "duration": 2, "velocity": 86}, {"time": 1001, "pitch": 75, "duration": 2, "velocity": 94}, {"time": 1004, "pitch": 75, "duration": 2, "velocity": 87}, {"time": 1007, "pitch": 75, "duration": 2, "velocity": 86}, {"time": 1010, "pitch": 75, "duration": 2, "velocity": 88}, {"time": 1013, "pitch": 71, "duration": 2, "velocity": 84}, {"time": 1016, "pitch": 70, "duration": 2, "velocity": 82}, {"time": 1019, "pitch": 68, "duration": 2, "velocity": 88}, {"time": 1022, "pitch": 75, "duration": 12, "velocity": 90}, {"time": 1040, "pitch": 71, "duration": 2, "velocity": 87}, {"time": 1043, "pitch": 73, "duration": 2, "velocity": 94}, {"time": 1046, "pitch": 75, "duration": 4, "velocity": 89}, {"time": 1052, "pitch": 78, "duration": 2, "velocity": 85}, {"time": 1055, "pitch": 78, "duration": 7, "velocity": 87}, {"time": 1064, "pitch": 75, "duration": 4, "velocity": 87}, {"time": 1070, "pitch": 71, "duration": 13, "velocity": 86}, {"time": 1088, "pitch": 68, "duration": 2, "velocity": 85}, {"time": 1091, "pitch": 70, "duration": 2, "velocity": 85}, {"time": 1094, "pitch": 71, "duration": 16, "velocity": 85}, {"time": 1112, "pitch": 71, "duration": 2, "velocity": 87}, {"time": 1115, "pitch": 75, "duration": 5, "velocity": 87}, {"time": 1121, "pitch": 73, "duration": 11, "velocity": 90}, {"time": 1142, "pitch": 73, "duration": 2, "velocity": 99}, {"time": 1145, "pitch": 75, "duration": 2, "velocity": 84}, {"time": 1148, "pitch": 73, "duration": 2, "velocity": 87}, {"time": 1151, "pitch": 71, "duration": 2, "velocity": 88}, {"time": 1154, "pitch": 70, "duration": 2, "velocity": 88}, {"time": 1157, "pitch": 71, "duration": 9, "velocity": 85}, {"time": 1166, "pitch": 68, "duration": 24, "velocity": 90}, {"time": 1211, "pitch": 75, "duration": 2, "velocity": 94}, {"time": 1214, "pitch": 80, "duration": 2, "velocity": 90}, {"time": 1217, "pitch": 80, "duration": 8, "velocity": 85}, {"time": 1226, "pitch": 80, "duration": 5, "velocity": 87}, {"time": 1232, "pitch": 75, "duration": 2, "velocity": 90}, {"time": 1235, "pitch": 75, "duration": 5, "velocity": 99}, {"time": 1241, "pitch": 73, "duration": 11, "velocity": 92}, {"time": 1253, "pitch": 71, "duration": 2, "velocity": 88}, {"time": 1256, "pitch": 71, "duration": 2, "velocity": 90}, {"time": 1259, "pitch": 73, "duration": 2, "velocity": 100}, {"time": 1262, "pitch": 75, "duration": 8, "velocity": 92}, {"time": 1271, "pitch": 76, "duration": 2, "velocity": 90}, {"time": 1274, "pitch": 75, "duration": 5, "velocity": 87}, {"time": 1280, "pitch": 73, "duration": 6, "velocity": 92}, {"time": 1286, "pitch": 71, "duration": 16, "velocity": 89}, {"time": 1304, "pitch": 68, "duration": 2, "velocity": 90}, {"time": 1307, "pitch": 70, "duration": 2, "velocity": 85}, {"time": 1310, "pitch": 71, "duration": 2, "velocity": 87}, {"time": 1313, "pitch": 71, "duration": 5, "velocity": 86}, {"time": 1319, "pitch": 71, "duration": 2, "velocity": 85}, {"time": 1322, "pitch": 71, "duration": 4, "velocity": 87}, {"time": 1328, "pitch": 73, "duration": 2, "velocity": 94}, {"time": 1331, "pitch": 73, "duration": 5, "velocity": 92}, {"time": 1337, "pitch": 68, "duration": 11, "velocity": 87}, {"time": 1352, "pitch": 68, "duration": 2, "velocity": 94}, {"time": 1355, "pitch": 70, "duration": 2, "velocity": 89}, {"time": 1358, "pitch": 71, "duration": 2, "velocity": 86}, {"time": 1361, "pitch": 71, "duration": 4, "velocity": 85}, {"time": 1367, "pitch": 71, "duration": 2, "velocity": 89}, {"time": 1370, "pitch": 71, "duration": 4, "velocity": 89}, {"time": 1376, "pitch": 76, "duration": 5, "velocity": 88}, {"time": 1382, "pitch": 75, "duration": 15, "velocity": 88}, {"time": 1403, "pitch": 75, "duration": 2, "velocity": 86}, {"time": 1406, "pitch": 80, "duration": 2, "velocity": 87}, {"time": 1409, "pitch": 80, "duration": 7, "velocity": 84}, {"time": 1418, "pitch": 80, "duration": 5, "velocity": 87}, {"time": 1424, "pitch": 75, "duration": 2, "velocity": 87}, {"time": 1427, "pitch": 75, "duration": 5, "velocity": 88}, {"time": 1433, "pitch": 73, "duration": 11, "velocity": 88}, {"time": 1445, "pitch": 71, "duration": 1, "velocity": 94}, {"time": 1448, "pitch": 71, "duration": 2, "velocity": 94}, {"time": 1451, "pitch": 73, "duration": 2, "velocity": 90}, {"time": 1454, "pitch": 75, "duration": 8, "velocity": 87}, {"time": 1463, "pitch": 76, "duration": 2, "velocity": 85}, {"time": 1466, "pitch": 75, "duration": 5, "velocity": 92}, {"time": 1472, "pitch": 73, "duration": 5, "velocity": 87}, {"time": 1478, "pitch": 71, "duration": 14, "velocity": 86}, {"time": 1496, "pitch": 68, "duration": 2, "velocity": 88}, {"time": 1499, "pitch": 70, "duration": 2, "velocity": 85}, {"time": 1502, "pitch": 71, "duration": 2, "velocity": 85}, {"time": 1505, "pitch": 71, "duration": 5, "velocity": 84}, {"time": 1511, "pitch": 71, "duration": 2, "velocity": 85}, {"time": 1514, "pitch": 71, "duration": 4, "velocity": 88}, {"time": 1520, "pitch": 73, "duration": 2, "velocity": 89}, {"time": 1523, "pitch": 73, "duration": 5, "velocity": 90}, {"time": 1529, "pitch": 68, "duration": 10, "velocity": 89}, {"time": 1544, "pitch": 68, "duration": 2, "velocity": 90}, {"time": 1547, "pitch": 70, "duration": 2, "velocity": 87}, {"time": 1550, "pitch": 71, "duration": 2, "velocity": 87}, {"time": 1553, "pitch": 71, "duration": 4, "velocity": 89}, {"time": 1559, "pitch": 71, "duration": 2, "velocity": 86}, {"time": 1562, "pitch": 71, "duration": 5, "velocity": 92}, {"time": 1568, "pitch": 76, "duration": 4, "velocity": 85}, {"time": 1574, "pitch": 75, "duration": 16, "velocity": 88}, {"time": 1592, "pitch": 71, "duration": 6, "velocity": 89}, {"time": 1598, "pitch": 68, "duration": 36, "velocity": 90}, {"time": 1838, "pitch": 71, "duration": 2, "velocity": 92}, {"time": 1841, "pitch": 71, "duration": 4, "velocity": 88}, {"time": 1847, "pitch": 71, "duration": 2, "velocity": 88}, {"time": 1850, "pitch": 71, "duration": 3, "velocity": 89}, {"time": 1856, "pitch": 70, "duration": 2, "velocity": 89}, {"time": 1859, "pitch": 68, "duration": 14, "velocity": 90}, {"time": 1880, "pitch": 63, "duration": 2, "velocity": 92}, {"time": 1883, "pitch": 68, "duration": 2, "velocity": 79}, {"time": 1886, "pitch": 66, "duration": 13, "velocity": 87}, {"time": 1904, "pitch": 64, "duration": 4, "velocity": 85}, {"time": 1910, "pitch": 63, "duration": 18, "velocity": 88}, {"time": 1934, "pitch": 71, "duration": 2, "velocity": 88}, {"time": 1937, "pitch": 71, "duration": 2, "velocity": 84}, {"time": 1940, "pitch": 71, "duration": 2, "velocity": 87}, {"time": 1943, "pitch": 71, "duration": 2, "velocity": 87}, {"time": 1946, "pitch": 71, "duration": 4, "velocity": 94}, {"time": 1952, "pitch": 73, "duration": 5, "velocity": 92}, {"time": 1958, "pitch": 68, "duration": 13, "velocity": 85}, {"time": 1982, "pitch": 73, "duration": 2, "velocity": 94}, {"time": 1985, "pitch": 73, "duration": 2, "velocity": 87}, {"time": 1988, "pitch": 73, "duration": 2, "velocity": 87}, {"time": 1991, "pitch": 73, "duration": 2, "velocity": 88}, {"time": 1994, "pitch": 73, "duration": 5, "velocity": 92}, {"time": 2000, "pitch": 71, "duration": 6, "velocity": 87}, {"time": 2006, "pitch": 68, "duration": 5, "velocity": 84}, {"time": 2012, "pitch": 70, "duration": 14, "velocity": 83}, {"time": 2027, "pitch": 63, "duration": 2, "velocity": 88}, {"time": 2030, "pitch": 75, "duration": 2, "velocity": 86}, {"time": 2033, "pitch": 75, "duration": 2, "velocity": 94}, {"time": 2036, "pitch": 75, "duration": 2, "velocity": 87}, {"time": 2039, "pitch": 75, "duration": 2, "velocity": 86}, {"time": 2042, "pitch": 75, "duration": 2, "velocity": 88}, {"time": 2045, "pitch": 71, "duration": 2, "velocity": 84}, {"time": 2048, "pitch": 70, "duration": 2, "velocity": 82}, {"time": 2051, "pitch": 68, "duration": 2, "velocity": 88}, {"time": 2054, "pitch": 75, "duration": 12, "velocity": 90}, {"time": 2072, "pitch": 71, "duration": 2, "velocity": 87}, {"time": 2075, "pitch": 73, "duration": 2, "velocity": 94}, {"time": 2078, "pitch": 75, "duration": 4, "velocity": 89}, {"time": 2084, "pitch": 78, "duration": 2, "velocity": 85}, {"time": 2087, "pitch": 78, "duration": 7, "velocity": 87}, {"time": 2096, "pitch": 75, "duration": 4, "velocity": 87}, {"time": 2102, "pitch": 71, "duration": 13, "velocity": 86}, {"time": 2120, "pitch": 68, "duration": 2, "velocity": 85}, {"time": 2123, "pitch": 70, "duration": 2, "velocity": 85}, {"time": 2126, "pitch": 71, "duration": 16, "velocity": 85}, {"time": 2144, "pitch": 71, "duration": 2, "velocity": 87}, {"time": 2147, "pitch": 75, "duration": 5, "velocity": 87}, {"time": 2153, "pitch": 73, "duration": 11, "velocity": 90}, {"time": 2174, "pitch": 73, "duration": 2, "velocity": 99}, {"time": 2177, "pitch": 75, "duration": 2, "velocity": 84}, {"time": 2180, "pitch": 73, "duration": 2, "velocity": 87}, {"time": 2183, "pitch": 71, "duration": 2, "velocity": 88}, {"time": 2186, "pitch": 70, "duration": 2, "velocity": 88}, {"time": 2189, "pitch": 71, "duration": 9, "velocity": 85}, {"time": 2198, "pitch": 68, "duration": 24, "velocity": 90}, {"time": 2243, "pitch": 75, "duration": 2, "velocity": 94}, {"time": 2246, "pitch": 80, "duration": 2, "velocity": 90}, {"time": 2249, "pitch": 80, "duration": 8, "velocity": 85}, {"time": 2258, "pitch": 80, "duration": 5, "velocity": 87}, {"time": 2264, "pitch": 75, "duration": 2, "velocity": 90}, {"time": 2267, "pitch": 75, "duration": 5, "velocity": 99}, {"time": 2273, "pitch": 73, "duration": 11, "velocity": 92}, {"time": 2285, "pitch": 71, "duration": 2, "velocity": 88}, {"time": 2288, "pitch": 71, "duration": 2, "velocity": 90}, {"time": 2291, "pitch": 73, "duration": 2, "velocity": 100}, {"time": 2294, "pitch": 75, "duration": 8, "velocity": 92}, {"time": 2303, "pitch": 76, "duration": 2, "velocity": 90}, {"time": 2306, "pitch": 75, "duration": 5, "velocity": 87}, {"time": 2312, "pitch": 73, "duration": 6, "velocity": 92}, {"time": 2318, "pitch": 71, "duration": 16, "velocity": 89}, {"time": 2336, "pitch": 68, "duration": 2, "velocity": 90}, {"time": 2339, "pitch": 70, "duration": 2, "velocity": 85}, {"time": 2342, "pitch": 71, "duration": 2, "velocity": 87}, {"time": 2345, "pitch": 71, "duration": 5, "velocity": 86}, {"time": 2351, "pitch": 71, "duration": 2, "velocity": 85}, {"time": 2354, "pitch": 71, "duration": 4, "velocity": 87}, {"time": 2360, "pitch": 73, "duration": 2, "velocity": 94}, {"time": 2363, "pitch": 73, "duration": 5, "velocity": 92}, {"time": 2369, "pitch": 68, "duration": 11, "velocity": 87}, {"time": 2384, "pitch": 68, "duration": 2, "velocity": 94}, {"time": 2387, "pitch": 70, "duration": 2, "velocity": 89}, {"time": 2390, "pitch": 71, "duration": 2, "velocity": 86}, {"time": 2393, "pitch": 71, "duration": 4, "velocity": 85}, {"time": 2399, "pitch": 71, "duration": 2, "velocity": 89}, {"time": 2402, "pitch": 71, "duration": 4, "velocity": 89}, {"time": 2408, "pitch": 76, "duration": 5, "velocity": 88}, {"time": 2414, "pitch": 75, "duration": 15, "velocity": 88}, {"time": 2435, "pitch": 75, "duration": 2, "velocity": 86}, {"time": 2438, "pitch": 80, "duration": 2, "velocity": 87}, {"time": 2441, "pitch": 80, "duration": 7, "velocity": 84}, {"time": 2450, "pitch": 80, "duration": 5, "velocity": 87}, {"time": 2456, "pitch": 75, "duration": 2, "velocity": 87}, {"time": 2459, "pitch": 75, "duration": 5, "velocity": 88}, {"time": 2465, "pitch": 73, "duration": 11, "velocity": 88}, {"time": 2477, "pitch": 71, "duration": 1, "velocity": 94}, {"time": 2480, "pitch": 71, "duration": 2, "velocity": 94}, {"time": 2483, "pitch": 73, "duration": 2, "velocity": 90}, {"time": 2486, "pitch": 75, "duration": 8, "velocity": 87}, {"time": 2495, "pitch": 76, "duration": 2, "velocity": 85}, {"time": 2498, "pitch": 75, "duration": 5, "velocity": 92}, {"time": 2504, "pitch": 73, "duration": 5, "velocity": 87}, {"time": 2510, "pitch": 71, "duration": 14, "velocity": 86}, {"time": 2528, "pitch": 68, "duration": 2, "velocity": 88}, {"time": 2531, "pitch": 70, "duration": 2, "velocity": 85}, {"time": 2534, "pitch": 71, "duration": 2, "velocity": 85}, {"time": 2537, "pitch": 71, "duration": 5, "velocity": 84}, {"time": 2543, "pitch": 71, "duration": 2, "velocity": 85}, {"time": 2546, "pitch": 71, "duration": 4, "velocity": 88}, {"time": 2552, "pitch": 73, "duration": 2, "velocity": 89}, {"time": 2555, "pitch": 73, "duration": 5, "velocity": 90}, {"time": 2561, "pitch": 68, "duration": 10, "velocity": 89}, {"time": 2576, "pitch": 68, "duration": 2, "velocity": 90}, {"time": 2579, "pitch": 70, "duration": 2, "velocity": 87}, {"time": 2582, "pitch": 71, "duration": 2, "velocity": 87}, {"time": 2585, "pitch": 71, "duration": 4, "velocity": 89}, {"time": 2591, "pitch": 71, "duration": 2, "velocity": 86}, {"time": 2594, "pitch": 71, "duration": 5, "velocity": 92}, {"time": 2600, "pitch": 76, "duration": 4, "velocity": 85}, {"time": 2606, "pitch": 75, "duration": 16, "velocity": 88}, {"time": 2624, "pitch": 71, "duration": 6, "velocity": 89}, {"time": 2630, "pitch": 68, "duration": 36, "velocity": 90}, {"time": 2915, "pitch": 76, "duration": 2, "velocity": 94}, {"time": 2918, "pitch": 81, "duration": 2, "velocity": 90}, {"time": 2921, "pitch": 81, "duration": 8, "velocity": 85}, {"time": 2930, "pitch": 81, "duration": 5, "velocity": 87}, {"time": 2936, "pitch": 76, "duration": 2, "velocity": 90}, {"time": 2939, "pitch": 76, "duration": 5, "velocity": 99}, {"time": 2945, "pitch": 74, "duration": 11, "velocity": 92}, {"time": 2957, "pitch": 72, "duration": 2, "velocity": 88}, {"time": 2960, "pitch": 72, "duration": 2, "velocity": 90}, {"time": 2963, "pitch": 74, "duration": 2, "velocity": 100}, {"time": 2966, "pitch": 76, "duration": 8, "velocity": 92}, {"time": 2975, "pitch": 77, "duration": 2, "velocity": 90}, {"time": 2978, "pitch": 76, "duration": 5, "velocity": 87}, {"time": 2984, "pitch": 74, "duration": 6, "velocity": 92}, {"time": 2990, "pitch": 72, "duration": 16, "velocity": 89}, {"time": 3008, "pitch": 69, "duration": 2, "velocity": 90}, {"time": 3011, "pitch": 71, "duration": 2, "velocity": 85}, {"time": 3014, "pitch": 72, "duration": 2, "velocity": 87}, {"time": 3017, "pitch": 72, "duration": 5, "velocity": 86}, {"time": 3023, "pitch": 72, "duration": 2, "velocity": 85}, {"time": 3026, "pitch": 72, "duration": 4, "velocity": 87}, {"time": 3032, "pitch": 74, "duration": 2, "velocity": 94}, {"time": 3035, "pitch": 74, "duration": 5, "velocity": 92}, {"time": 3041, "pitch": 69, "duration": 11, "velocity": 87}, {"time": 3056, "pitch": 69, "duration": 2, "velocity": 94}, {"time": 3059, "pitch": 71, "duration": 2, "velocity": 89}, {"time": 3062, "pitch": 72, "duration": 2, "velocity": 86}, {"time": 3065, "pitch": 72, "duration": 4, "velocity": 85}, {"time": 3071, "pitch": 72, "duration": 2, "velocity": 89}, {"time": 3074, "pitch": 72, "duration": 4, "velocity": 89}, {"time": 3080, "pitch": 77, "duration": 5, "velocity": 88}, {"time": 3086, "pitch": 76, "duration": 15, "velocity": 88}, {"time": 3107, "pitch": 76, "duration": 2, "velocity": 86}, {"time": 3110, "pitch": 81, "duration": 2, "velocity": 87}, {"time": 3113, "pitch": 81, "duration": 7, "velocity": 84}, {"time": 3122, "pitch": 81, "duration": 5, "velocity": 87}, {"time": 3128, "pitch": 76, "duration": 2, "velocity": 87}, {"time": 3131, "pitch": 76, "duration": 5, "velocity": 88}, {"time": 3137, "pitch": 74, "duration": 11, "velocity": 88}, {"time": 3149, "pitch": 72, "duration": 1, "velocity": 94}, {"time": 3152, "pitch": 72, "duration": 2, "velocity": 94}, {"time": 3155, "pitch": 74, "duration": 2, "velocity": 90}, {"time": 3158, "pitch": 76, "duration": 8, "velocity": 87}, {"time": 3167, "pitch": 77, "duration": 2, "velocity": 85}, {"time": 3170, "pitch": 76, "duration": 5, "velocity": 92}, {"time": 3176, "pitch": 74, "duration": 5, "velocity": 87}, {"time": 3182, "pitch": 72, "duration": 14, "velocity": 86}, {"time": 3200, "pitch": 69, "duration": 2, "velocity": 88}, {"time": 3203, "pitch": 71, "duration": 2, "velocity": 85}, {"time": 3206, "pitch": 72, "duration": 2, "velocity": 85}, {"time": 3209, "pitch": 72, "duration": 5, "velocity": 84}, {"time": 3215, "pitch": 72, "duration": 2, "velocity": 85}, {"time": 3218, "pitch": 72, "duration": 4, "velocity": 88}, {"time": 3224, "pitch": 74, "duration": 2, "velocity": 89}, {"time": 3227, "pitch": 74, "duration": 5, "velocity": 90}, {"time": 3233, "pitch": 69, "duration": 10, "velocity": 89}, {"time": 3248, "pitch": 69, "duration": 2, "velocity": 90}, {"time": 3251, "pitch": 71, "duration": 2, "velocity": 87}, {"time": 3254, "pitch": 72, "duration": 2, "velocity": 87}, {"time": 3257, "pitch": 72, "duration": 4, "velocity": 89}, {"time": 3263, "pitch": 72, "duration": 2, "velocity": 86}, {"time": 3266, "pitch": 72, "duration": 5, "velocity": 92}, {"time": 3272, "pitch": 77, "duration": 4, "velocity": 85}, {"time": 3278, "pitch": 76, "duration": 16, "velocity": 88}, {"time": 3296, "pitch": 72, "duration": 6, "velocity": 89}, {"time": 3302, "pitch": 69, "duration": 36, "velocity": 90}, {"time": 3344, "pitch": 69, "duration": 3, "velocity": 88}, {"time": 3348, "pitch": 71, "duration": 2, "velocity": 85}, {"time": 3351, "pitch": 72, "duration": 3, "velocity": 83}, {"time": 3355, "pitch": 72, "duration": 4, "velocity": 87}, {"time": 3361, "pitch": 72, "duration": 2, "velocity": 86}, {"time": 3365, "pitch": 72, "duration": 4, "velocity": 90}, {"time": 3371, "pitch": 74, "duration": 5, "velocity": 83}, {"time": 3378, "pitch": 71, "duration": 19, "velocity": 84}, {"time": 3405, "pitch": 71, "duration": 5, "velocity": 84}, {"time": 3412, "pitch": 71, "duration": 13, "velocity": 87}, {"time": 3432, "pitch": 72, "duration": 13, "velocity": 83}, {"time": 3447, "pitch": 69, "duration": 50, "velocity": 83}]}, {"program": 0, "is_drum": false, "name": "PIANO", "notes": [{"time": 38, "pitch": 44, "duration": 44, "velocity": 82}, {"time": 38, "pitch": 68, "duration": 7, "velocity": 81}, {"time": 41, "pitch": 63, "duration": 4, "velocity": 77}, {"time": 44, "pitch": 56, "duration": 4, "velocity": 70}, {"time": 47, "pitch": 63, "duration": 3, "velocity": 75}, {"time": 50, "pitch": 68, "duration": 6, "velocity": 84}, {"time": 53, "pitch": 63, "duration": 4, "velocity": 76}, {"time": 56, "pitch": 56, "duration": 5, "velocity": 73}, {"time": 59, "pitch": 63, "duration": 3, "velocity": 72}, {"time": 62, "pitch": 68, "duration": 5, "velocity": 81}, {"time": 65, "pitch": 63, "duration": 4, "velocity": 73}, {"time": 68, "pitch": 56, "duration": 3, "velocity": 64}, {"time": 71, "pitch": 63, "duration": 3, "velocity": 75}, {"time": 74, "pitch": 68, "duration": 5, "velocity": 82}, {"time": 77, "pitch": 63, "duration": 4, "velocity": 77}, {"time": 80, "pitch": 56, "duration": 4, "velocity": 77}, {"time": 83, "pitch": 63, "duration": 4, "velocity": 79}, {"time": 86, "pitch": 44, "duration": 45, "velocity": 78}, {"time": 86, "pitch": 68, "duration": 7, "velocity": 81}, {"time": 89, "pitch": 63, "duration": 4, "velocity": 75}, {"time": 92, "pitch": 56, "duration": 6, "velocity": 72}, {"time": 95, "pitch": 63, "duration": 3, "velocity": 75}, {"time": 98, "pitch": 68, "duration": 5, "velocity": 83}, {"time": 101, "pitch": 63, "duration": 3, "velocity": 70}, {"time": 104, "pitch": 56, "duration": 4, "velocity": 68}, {"time": 107, "pitch": 63, "duration": 3, "velocity": 69}, {"time": 110, "pitch": 68, "duration": 4, "velocity": 75}, {"time": 113, "pitch": 63, "duration": 3, "velocity": 68}, {"time": 116, "pitch": 56, "duration": 4, "velocity": 56}, {"time": 119, "pitch": 63, "duration": 3, "velocity": 70}, {"time": 122, "pitch": 68, "duration": 3, "velocity": 80}, {"time": 125, "pitch": 63, "duration": 3, "velocity": 72}, {"time": 128, "pitch": 56, "duration": 4, "velocity": 67}, {"time": 131, "pitch": 63, "duration": 4, "velocity": 74}, {"time": 134, "pitch": 44, "duration": 40, "velocity": 80}, {"time": 134, "pitch": 68, "duration": 5, "velocity": 80}, {"time": 137, "pitch": 63, "duration": 3, "velocity": 73}, {"time": 140, "pitch": 56, "duration": 4, "velocity": 69}, {"time": 143, "pitch": 63, "duration": 3, "velocity": 74}, {"time": 146, "pitch": 68, "duration": 4, "velocity": 79}, {"time": 149, "pitch": 63, "duration": 3, "velocity": 76}, {"time": 152, "pitch": 56, "duration": 4, "velocity": 78}, {"time": 155, "pitch": 63, "duration": 3, "velocity": 76}, {"time": 158, "pitch": 68, "duration": 4, "velocity": 78}, {"time": 161, "pitch": 63, "duration": 3, "velocity": 75}, {"time": 164, "pitch": 56, "duration": 4, "velocity": 75}, {"time": 167, "pitch": 63, "duration": 3, "velocity": 75}, {"time": 170, "pitch": 68, "duration": 7, "velocity": 83}, {"time": 173, "pitch": 63, "duration": 4, "velocity": 78}, {"time": 176, "pitch": 56, "duration": 5, "velocity": 77}, {"time": 179, "pitch": 63, "duration": 3, "velocity": 71}, {"time": 182, "pitch": 44, "duration": 47, "velocity": 84}, {"time": 182, "pitch": 68, "duration": 6, "velocity": 80}, {"time": 185, "pitch": 63, "duration": 4, "velocity": 76}, {"time": 188, "pitch": 56, "duration": 4, "velocity": 72}, {"time": 191, "pitch": 63, "duration": 4, "velocity": 78}, {"time": 194, "pitch": 68, "duration": 7, "velocity": 83}, {"time": 197, "pitch": 63, "duration": 3, "velocity": 75}, {"time": 200, "pitch": 56, "duration": 4, "velocity": 71}, {"time": 203, "pitch": 63, "duration": 3, "velocity": 73}, {"time": 206, "pitch": 68, "duration": 5, "velocity": 77}, {"time": 209, "pitch": 63, "duration": 4, "velocity": 76}, {"time": 212, "pitch": 56, "duration": 4, "velocity": 79}, {"time": 212, "pitch": 68, "duration": 3, "velocity": 30}, {"time": 215, "pitch": 63, "duration": 5, "velocity": 79}, {"time": 218, "pitch": 51, "duration": 11, "velocity": 83}, {"time": 221, "pitch": 56, "duration": 4, "velocity": 85}, {"time": 224, "pitch": 63, "duration": 4, "velocity": 84}, {"time": 227, "pitch": 68, "duration": 2, "velocity": 84}, {"time": 230, "pitch": 44, "duration": 23, "velocity": 84}, {"time": 230, "pitch": 56, "duration": 10, "velocity": 84}, {"time": 230, "pitch": 63, "duration": 7, "velocity": 84}, {"time": 233, "pitch": 51, "duration": 11, "velocity": 84}, {"time": 236, "pitch": 59, "duration": 4, "velocity": 82}, {"time": 239, "pitch": 63, "duration": 1, "velocity": 75}, {"time": 242, "pitch": 56, "duration": 4, "velocity": 90}, {"time": 242, "pitch": 68, "duration": 4, "velocity": 87}, {"time": 245, "pitch": 51, "duration": 7, "velocity": 84}, {"time": 248, "pitch": 63, "duration": 4, "velocity": 85}, {"time": 251, "pitch": 56, "duration": 2, "velocity": 78}, {"time": 254, "pitch": 49, "duration": 18, "velocity": 84}, {"time": 254, "pitch": 56, "duration": 3, "velocity": 84}, {"time": 254, "pitch": 61, "duration": 6, "velocity": 86}, {"time": 257, "pitch": 52, "duration": 11, "velocity": 72}, {"time": 260, "pitch": 56, "duration": 4, "velocity": 83}, {"time": 263, "pitch": 61, "duration": 1, "velocity": 73}, {"time": 266, "pitch": 56, "duration": 4, "velocity": 92}, {"time": 266, "pitch": 64, "duration": 5, "velocity": 89}, {"time": 269, "pitch": 52, "duration": 4, "velocity": 76}, {"time": 272, "pitch": 56, "duration": 2, "velocity": 84}, {"time": 278, "pitch": 42, "duration": 20, "velocity": 85}, {"time": 278, "pitch": 54, "duration": 6, "velocity": 83}, {"time": 278, "pitch": 58, "duration": 7, "velocity": 81}, {"time": 281, "pitch": 49, "duration": 16, "velocity": 80}, {"time": 284, "pitch": 61, "duration": 4, "velocity": 79}, {"time": 287, "pitch": 58, "duration": 2, "velocity": 83}, {"time": 290, "pitch": 66, "duration": 7, "velocity": 86}, {"time": 293, "pitch": 61, "duration": 4, "velocity": 82}, {"time": 296, "pitch": 58, "duration": 4, "velocity": 84}, {"time": 299, "pitch": 54, "duration": 2, "velocity": 87}, {"time": 302, "pitch": 44, "duration": 20, "velocity": 85}, {"time": 302, "pitch": 56, "duration": 4, "velocity": 84}, {"time": 302, "pitch": 59, "duration": 6, "velocity": 86}, {"time": 305, "pitch": 51, "duration": 16, "velocity": 80}, {"time": 308, "pitch": 63, "duration": 4, "velocity": 83}, {"time": 311, "pitch": 59, "duration": 2, "velocity": 82}, {"time": 314, "pitch": 68, "duration": 4, "velocity": 90}, {"time": 317, "pitch": 63, "duration": 4, "velocity": 84}, {"time": 320, "pitch": 59, "duration": 3, "velocity": 84}, {"time": 323, "pitch": 56, "duration": 1, "velocity": 84}, {"time": 326, "pitch": 49, "duration": 20, "velocity": 85}, {"time": 326, "pitch": 56, "duration": 3, "velocity": 84}, {"time": 326, "pitch": 61, "duration": 7, "velocity": 84}, {"time": 329, "pitch": 52, "duration": 17, "velocity": 71}, {"time": 332, "pitch": 56, "duration": 4, "velocity": 83}, {"time": 335, "pitch": 61, "duration": 1, "velocity": 76}, {"time": 338, "pitch": 56, "duration": 4, "velocity": 88}, {"time": 338, "pitch": 64, "duration": 4, "velocity": 86}, {"time": 344, "pitch": 61, "duration": 3, "velocity": 88}, {"time": 347, "pitch": 56, "duration": 1, "velocity": 85}, {"time": 350, "pitch": 42, "duration": 18, "velocity": 84}, {"time": 350, "pitch": 54, "duration": 5, "velocity": 84}, {"time": 350, "pitch": 58, "duration": 7, "velocity": 87}, {"time": 353, "pitch": 49, "duration": 14, "velocity": 79}, {"time": 356, "pitch": 61, "duration": 4, "velocity": 83}, {"time": 359, "pitch": 58, "duration": 2, "velocity": 84}, {"time": 362, "pitch": 58, "duration": 1, "velocity": 59}, {"time": 362, "pitch": 66, "duration": 7, "velocity": 85}, {"time": 365, "pitch": 61, "duration": 4, "velocity": 80}, {"time": 368, "pitch": 58, "duration": 4, "velocity": 79}, {"time": 371, "pitch": 54, "duration": 2, "velocity": 84}, {"time": 374, "pitch": 44, "duration": 42, "velocity": 84}, {"time": 374, "pitch": 56, "duration": 9, "velocity": 83}, {"time": 374, "pitch": 59, "duration": 8, "velocity": 83}, {"time": 380, "pitch": 51, "duration": 34, "velocity": 70}, {"time": 386, "pitch": 56, "duration": 7, "velocity": 83}, {"time": 386, "pitch": 63, "duration": 6, "velocity": 83}, {"time": 392, "pitch": 59, "duration": 2, "velocity": 77}, {"time": 398, "pitch": 56, "duration": 4, "velocity": 71}, {"time": 398, "pitch": 68, "duration": 3, "velocity": 76}, {"time": 410, "pitch": 59, "duration": 11, "velocity": 77}, {"time": 410, "pitch": 63, "duration": 11, "velocity": 78}, {"time": 416, "pitch": 56, "duration": 5, "velocity": 73}, {"time": 422, "pitch": 44, "duration": 22, "velocity": 83}, {"time": 428, "pitch": 51, "duration": 10, "velocity": 71}, {"time": 431, "pitch": 59, "duration": 7, "velocity": 78}, {"time": 437, "pitch": 56, "duration": 5, "velocity": 71}, {"time": 446, "pitch": 44, "duration": 19, "velocity": 76}, {"time": 446, "pitch": 63, "duration": 4, "velocity": 75}, {"time": 449, "pitch": 51, "duration": 13, "velocity": 79}, {"time": 452, "pitch": 56, "duration": 4, "velocity": 76}, {"time": 455, "pitch": 63, "duration": 7, "velocity": 83}, {"time": 470, "pitch": 42, "duration": 22, "velocity": 78}, {"time": 473, "pitch": 49, "duration": 17, "velocity": 75}, {"time": 476, "pitch": 61, "duration": 9, "velocity": 77}, {"time": 479, "pitch": 58, "duration": 7, "velocity": 78}, {"time": 485, "pitch": 66, "duration": 11, "velocity": 83}, {"time": 494, "pitch": 47, "duration": 18, "velocity": 79}, {"time": 497, "pitch": 51, "duration": 15, "velocity": 65}, {"time": 500, "pitch": 54, "duration": 7, "velocity": 77}, {"time": 503, "pitch": 61, "duration": 4, "velocity": 83}, {"time": 509, "pitch": 63, "duration": 6, "velocity": 84}, {"time": 512, "pitch": 54, "duration": 3, "velocity": 78}, {"time": 518, "pitch": 44, "duration": 22, "velocity": 81}, {"time": 518, "pitch": 56, "duration": 4, "velocity": 75}, {"time": 518, "pitch": 59, "duration": 5, "velocity": 78}, {"time": 521, "pitch": 51, "duration": 19, "velocity": 76}, {"time": 524, "pitch": 56, "duration": 2, "velocity": 81}, {"time": 527, "pitch": 63, "duration": 8, "velocity": 85}, {"time": 542, "pitch": 44, "duration": 19, "velocity": 83}, {"time": 542, "pitch": 59, "duration": 10, "velocity": 76}, {"time": 548, "pitch": 51, "duration": 4, "velocity": 69}, {"time": 551, "pitch": 56, "duration": 7, "velocity": 79}, {"time": 554, "pitch": 51, "duration": 6, "velocity": 78}, {"time": 557, "pitch": 59, "duration": 3, "velocity": 88}, {"time": 566, "pitch": 49, "duration": 18, "velocity": 83}, {"time": 566, "pitch": 56, "duration": 6, "velocity": 76}, {"time": 566, "pitch": 64, "duration": 15, "velocity": 78}, {"time": 572, "pitch": 52, "duration": 9, "velocity": 66}, {"time": 575, "pitch": 56, "duration": 7, "velocity": 80}, {"time": 581, "pitch": 61, "duration": 4, "velocity": 83}, {"time": 584, "pitch": 56, "duration": 2, "velocity": 73}, {"time": 590, "pitch": 51, "duration": 17, "velocity": 84}, {"time": 590, "pitch": 58, "duration": 3, "velocity": 77}, {"time": 590, "pitch": 63, "duration": 13, "velocity": 84}, {"time": 596, "pitch": 58, "duration": 8, "velocity": 77}, {"time": 602, "pitch": 67, "duration": 5, "velocity": 84}, {"time": 605, "pitch": 63, "duration": 3, "velocity": 83}, {"time": 608, "pitch": 58, "duration": 1, "velocity": 84}, {"time": 614, "pitch": 44, "duration": 22, "velocity": 84}, {"time": 614, "pitch": 56, "duration": 7, "velocity": 76}, {"time": 614, "pitch": 59, "duration": 7, "velocity": 78}, {"time": 617, "pitch": 51, "duration": 19, "velocity": 75}, {"time": 620, "pitch": 63, "duration": 3, "velocity": 83}, {"time": 623, "pitch": 68, "duration": 3, "velocity": 84}, {"time": 629, "pitch": 63, "duration": 1, "velocity": 88}, {"time": 638, "pitch": 44, "duration": 17, "velocity": 83}, {"time": 641, "pitch": 51, "duration": 13, "velocity": 78}, {"time": 644, "pitch": 56, "duration": 4, "velocity": 84}, {"time": 647, "pitch": 59, "duration": 2, "velocity": 89}, {"time": 653, "pitch": 56, "duration": 3, "velocity": 81}, {"time": 653, "pitch": 63, "duration": 4, "velocity": 87}, {"time": 656, "pitch": 44, "duration": 2, "velocity": 76}, {"time": 662, "pitch": 47, "duration": 19, "velocity": 89}, {"time": 662, "pitch": 54, "duration": 3, "velocity": 84}, {"time": 662, "pitch": 59, "duration": 7, "velocity": 84}, {"time": 668, "pitch": 54, "duration": 3, "velocity": 75}, {"time": 671, "pitch": 63, "duration": 18, "velocity": 84}, {"time": 686, "pitch": 47, "duration": 19, "velocity": 79}, {"time": 689, "pitch": 59, "duration": 4, "velocity": 77}, {"time": 692, "pitch": 54, "duration": 4, "velocity": 83}, {"time": 695, "pitch": 66, "duration": 7, "velocity": 82}, {"time": 701, "pitch": 63, "duration": 4, "velocity": 85}, {"time": 704, "pitch": 59, "duration": 4, "velocity": 80}, {"time": 707, "pitch": 54, "duration": 5, "velocity": 77}, {"time": 710, "pitch": 40, "duration": 16, "velocity": 84}, {"time": 713, "pitch": 47, "duration": 14, "velocity": 76}, {"time": 716, "pitch": 52, "duration": 5, "velocity": 74}, {"time": 719, "pitch": 59, "duration": 8, "velocity": 84}, {"time": 734, "pitch": 42, "duration": 18, "velocity": 83}, {"time": 734, "pitch": 54, "duration": 7, "velocity": 76}, {"time": 734, "pitch": 58, "duration": 7, "velocity": 76}, {"time": 737, "pitch": 49, "duration": 15, "velocity": 77}, {"time": 740, "pitch": 61, "duration": 4, "velocity": 80}, {"time": 743, "pitch": 66, "duration": 7, "velocity": 87}, {"time": 749, "pitch": 61, "duration": 2, "velocity": 89}, {"time": 752, "pitch": 54, "duration": 1, "velocity": 82}, {"time": 758, "pitch": 49, "duration": 15, "velocity": 84}, {"time": 758, "pitch": 56, "duration": 3, "velocity": 76}, {"time": 758, "pitch": 61, "duration": 9, "velocity": 84}, {"time": 764, "pitch": 56, "duration": 4, "velocity": 75}, {"time": 767, "pitch": 64, "duration": 6, "velocity": 85}, {"time": 773, "pitch": 61, "duration": 4, "velocity": 84}, {"time": 782, "pitch": 39, "duration": 17, "velocity": 85}, {"time": 782, "pitch": 58, "duration": 3, "velocity": 78}, {"time": 782, "pitch": 63, "duration": 4, "velocity": 83}, {"time": 785, "pitch": 46, "duration": 14, "velocity": 78}, {"time": 788, "pitch": 58, "duration": 2, "velocity": 85}, {"time": 791, "pitch": 67, "duration": 2, "velocity": 100}, {"time": 797, "pitch": 63, "duration": 3, "velocity": 86}, {"time": 800, "pitch": 58, "duration": 4, "velocity": 85}, {"time": 803, "pitch": 63, "duration": 3, "velocity": 85}, {"time": 806, "pitch": 44, "duration": 22, "velocity": 83}, {"time": 812, "pitch": 51, "duration": 10, "velocity": 71}, {"time": 815, "pitch": 59, "duration": 7, "velocity": 78}, {"time": 821, "pitch": 56, "duration": 5, "velocity": 71}, {"time": 830, "pitch": 44, "duration": 19, "velocity": 76}, {"time": 830, "pitch": 63, "duration": 4, "velocity": 75}, {"time": 833, "pitch": 51, "duration": 13, "velocity": 79}, {"time": 836, "pitch": 56, "duration": 4, "velocity": 76}, {"time": 839, "pitch": 63, "duration": 7, "velocity": 83}, {"time": 854, "pitch": 42, "duration": 22, "velocity": 78}, {"time": 857, "pitch": 49, "duration": 17, "velocity": 75}, {"time": 860, "pitch": 61, "duration": 9, "velocity": 77}, {"time": 863, "pitch": 58, "duration": 7, "velocity": 78}, {"time": 869, "pitch": 66, "duration": 11, "velocity": 83}, {"time": 878, "pitch": 47, "duration": 18, "velocity": 79}, {"time": 881, "pitch": 51, "duration": 15, "velocity": 65}, {"time": 884, "pitch": 54, "duration": 7, "velocity": 77}, {"time": 887, "pitch": 61, "duration": 4, "velocity": 83}, {"time": 893, "pitch": 63, "duration": 6, "velocity": 84}, {"time": 896, "pitch": 54, "duration": 3, "velocity": 78}, {"time": 902, "pitch": 44, "duration": 22, "velocity": 81}, {"time": 902, "pitch": 56, "duration": 4, "velocity": 75}, {"time": 902, "pitch": 59, "duration": 5, "velocity": 78}, {"time": 905, "pitch": 51, "duration": 19, "velocity": 76}, {"time": 908, "pitch": 56, "duration": 2, "velocity": 81}, {"time": 911, "pitch": 63, "duration": 8, "velocity": 85}, {"time": 926, "pitch": 44, "duration": 19, "velocity": 83}, {"time": 926, "pitch": 59, "duration": 10, "velocity": 76}, {"time": 932, "pitch": 51, "duration": 4, "velocity": 69}, {"time": 935, "pitch": 56, "duration": 7, "velocity": 79}, {"time": 938, "pitch": 51, "duration": 6, "velocity": 78}, {"time": 941, "pitch": 59, "duration": 3, "velocity": 88}, {"time": 950, "pitch": 49, "duration": 18, "velocity": 83}, {"time": 950, "pitch": 56, "duration": 6, "velocity": 76}, {"time": 950, "pitch": 64, "duration": 15, "velocity": 78}, {"time": 956, "pitch": 52, "duration": 9, "velocity": 66}, {"time": 959, "pitch": 56, "duration": 7, "velocity": 80}, {"time": 965, "pitch": 61, "duration": 4, "velocity": 83}, {"time": 968, "pitch": 56, "duration": 2, "velocity": 73}, {"time": 974, "pitch": 51, "duration": 17, "velocity": 84}, {"time": 974, "pitch": 58, "duration": 3, "velocity": 77}, {"time": 974, "pitch": 63, "duration": 13, "velocity": 84}, {"time": 980, "pitch": 58, "duration": 8, "velocity": 77}, {"time": 986, "pitch": 67, "duration": 5, "velocity": 84}, {"time": 989, "pitch": 63, "duration": 3, "velocity": 83}, {"time": 992, "pitch": 58, "duration": 1, "velocity": 84}, {"time": 998, "pitch": 44, "duration": 22, "velocity": 84}, {"time": 998, "pitch": 56, "duration": 7, "velocity": 76}, {"time": 998, "pitch": 59, "duration": 7, "velocity": 78}, {"time": 1001, "pitch": 51, "duration": 19, "velocity": 75}, {"time": 1004, "pitch": 63, "duration": 3, "velocity": 83}, {"time": 1007, "pitch": 68, "duration": 3, "velocity": 84}, {"time": 1013, "pitch": 63, "duration": 1, "velocity": 88}, {"time": 1022, "pitch": 44, "duration": 17, "velocity": 83}, {"time": 1025, "pitch": 51, "duration": 13, "velocity": 78}, {"time": 1028, "pitch": 56, "duration": 4, "velocity": 84}, {"time": 1031, "pitch": 59, "duration": 2, "velocity": 89}, {"time": 1037, "pitch": 56, "duration": 3, "velocity": 81}, {"time": 1037, "pitch": 63, "duration": 4, "velocity": 87}, {"time": 1040, "pitch": 44, "duration": 2, "velocity": 76}, {"time": 1046, "pitch": 47, "duration": 19, "velocity": 89}, {"time": 1046, "pitch": 54, "duration": 3, "velocity": 84}, {"time": 1046, "pitch": 59, "duration": 7, "velocity": 84}, {"time": 1052, "pitch": 54, "duration": 3, "velocity": 75}, {"time": 1055, "pitch": 63, "duration": 18, "velocity": 84}, {"time": 1070, "pitch": 47, "duration": 19, "velocity": 79}, {"time": 1073, "pitch": 59, "duration": 4, "velocity": 77}, {"time": 1076, "pitch": 54, "duration": 4, "velocity": 83}, {"time": 1079, "pitch": 66, "duration": 7, "velocity": 82}, {"time": 1085, "pitch": 63, "duration": 4, "velocity": 85}, {"time": 1088, "pitch": 59, "duration": 4, "velocity": 80}, {"time": 1091, "pitch": 54, "duration": 5, "velocity": 77}, {"time": 1094, "pitch": 40, "duration": 16, "velocity": 84}, {"time": 1097, "pitch": 47, "duration": 14, "velocity": 76}, {"time": 1100, "pitch": 52, "duration": 5, "velocity": 74}, {"time": 1103, "pitch": 59, "duration": 8, "velocity": 84}, {"time": 1118, "pitch": 42, "duration": 18, "velocity": 83}, {"time": 1118, "pitch": 54, "duration": 7, "velocity": 76}, {"time": 1118, "pitch": 58, "duration": 7, "velocity": 76}, {"time": 1121, "pitch": 49, "duration": 15, "velocity": 77}, {"time": 1124, "pitch": 61, "duration": 4, "velocity": 80}, {"time": 1127, "pitch": 66, "duration": 7, "velocity": 87}, {"time": 1133, "pitch": 61, "duration": 2, "velocity": 89}, {"time": 1136, "pitch": 54, "duration": 1, "velocity": 82}, {"time": 1142, "pitch": 49, "duration": 5, "velocity": 86}, {"time": 1142, "pitch": 61, "duration": 4, "velocity": 81}, {"time": 1142, "pitch": 68, "duration": 8, "velocity": 79}, {"time": 1145, "pitch": 56, "duration": 2, "velocity": 77}, {"time": 1148, "pitch": 61, "duration": 4, "velocity": 84}, {"time": 1151, "pitch": 64, "duration": 2, "velocity": 83}, {"time": 1154, "pitch": 39, "duration": 8, "velocity": 86}, {"time": 1154, "pitch": 67, "duration": 6, "velocity": 85}, {"time": 1157, "pitch": 46, "duration": 5, "velocity": 81}, {"time": 1160, "pitch": 63, "duration": 3, "velocity": 89}, {"time": 1163, "pitch": 67, "duration": 2, "velocity": 89}, {"time": 1166, "pitch": 44, "duration": 21, "velocity": 84}, {"time": 1166, "pitch": 63, "duration": 3, "velocity": 84}, {"time": 1166, "pitch": 68, "duration": 4, "velocity": 84}, {"time": 1169, "pitch": 51, "duration": 8, "velocity": 78}, {"time": 1172, "pitch": 63, "duration": 2, "velocity": 83}, {"time": 1175, "pitch": 63, "duration": 3, "velocity": 83}, {"time": 1175, "pitch": 71, "duration": 4, "velocity": 86}, {"time": 1178, "pitch": 51, "duration": 6, "velocity": 76}, {"time": 1181, "pitch": 63, "duration": 3, "velocity": 90}, {"time": 1181, "pitch": 70, "duration": 3, "velocity": 87}, {"time": 1190, "pitch": 39, "duration": 20, "velocity": 87}, {"time": 1190, "pitch": 63, "duration": 5, "velocity": 85}, {"time": 1190, "pitch": 67, "duration": 7, "velocity": 79}, {"time": 1196, "pitch": 46, "duration": 10, "velocity": 74}, {"time": 1199, "pitch": 63, "duration": 4, "velocity": 90}, {"time": 1199, "pitch": 75, "duration": 3, "velocity": 90}, {"time": 1205, "pitch": 63, "duration": 4, "velocity": 92}, {"time": 1205, "pitch": 67, "duration": 5, "velocity": 97}, {"time": 1205, "pitch": 70, "duration": 8, "velocity": 88}, {"time": 1208, "pitch": 46, "duration": 5, "velocity": 87}, {"time": 1211, "pitch": 63, "duration": 3, "velocity": 94}, {"time": 1214, "pitch": 44, "duration": 22, "velocity": 85}, {"time": 1214, "pitch": 59, "duration": 3, "velocity": 84}, {"time": 1214, "pitch": 63, "duration": 6, "velocity": 87}, {"time": 1217, "pitch": 51, "duration": 7, "velocity": 83}, {"time": 1220, "pitch": 59, "duration": 2, "velocity": 86}, {"time": 1223, "pitch": 59, "duration": 10, "velocity": 84}, {"time": 1223, "pitch": 63, "duration": 13, "velocity": 90}, {"time": 1223, "pitch": 68, "duration": 15, "velocity": 85}, {"time": 1232, "pitch": 51, "duration": 4, "velocity": 76}, {"time": 1235, "pitch": 59, "duration": 4, "velocity": 85}, {"time": 1238, "pitch": 49, "duration": 11, "velocity": 94}, {"time": 1241, "pitch": 52, "duration": 7, "velocity": 81}, {"time": 1244, "pitch": 56, "duration": 2, "velocity": 84}, {"time": 1247, "pitch": 56, "duration": 4, "velocity": 94}, {"time": 1247, "pitch": 64, "duration": 4, "velocity": 87}, {"time": 1250, "pitch": 49, "duration": 1, "velocity": 62}, {"time": 1250, "pitch": 52, "duration": 4, "velocity": 79}, {"time": 1253, "pitch": 56, "duration": 3, "velocity": 87}, {"time": 1253, "pitch": 61, "duration": 3, "velocity": 86}, {"time": 1262, "pitch": 47, "duration": 20, "velocity": 86}, {"time": 1262, "pitch": 54, "duration": 6, "velocity": 83}, {"time": 1262, "pitch": 59, "duration": 7, "velocity": 84}, {"time": 1268, "pitch": 51, "duration": 5, "velocity": 68}, {"time": 1271, "pitch": 54, "duration": 4, "velocity": 88}, {"time": 1271, "pitch": 63, "duration": 4, "velocity": 89}, {"time": 1274, "pitch": 51, "duration": 10, "velocity": 73}, {"time": 1277, "pitch": 54, "duration": 3, "velocity": 87}, {"time": 1277, "pitch": 59, "duration": 8, "velocity": 92}, {"time": 1283, "pitch": 54, "duration": 2, "velocity": 78}, {"time": 1286, "pitch": 44, "duration": 16, "velocity": 84}, {"time": 1286, "pitch": 56, "duration": 3, "velocity": 82}, {"time": 1286, "pitch": 59, "duration": 4, "velocity": 82}, {"time": 1289, "pitch": 51, "duration": 7, "velocity": 78}, {"time": 1292, "pitch": 56, "duration": 2, "velocity": 85}, {"time": 1295, "pitch": 56, "duration": 4, "velocity": 88}, {"time": 1295, "pitch": 63, "duration": 4, "velocity": 87}, {"time": 1298, "pitch": 51, "duration": 5, "velocity": 85}, {"time": 1301, "pitch": 56, "duration": 3, "velocity": 86}, {"time": 1301, "pitch": 59, "duration": 3, "velocity": 89}, {"time": 1310, "pitch": 40, "duration": 20, "velocity": 84}, {"time": 1310, "pitch": 56, "duration": 4, "velocity": 80}, {"time": 1310, "pitch": 59, "duration": 7, "velocity": 84}, {"time": 1310, "pitch": 64, "duration": 8, "velocity": 79}, {"time": 1313, "pitch": 47, "duration": 14, "velocity": 76}, {"time": 1316, "pitch": 56, "duration": 4, "velocity": 77}, {"time": 1319, "pitch": 59, "duration": 4, "velocity": 89}, {"time": 1325, "pitch": 56, "duration": 2, "velocity": 84}, {"time": 1325, "pitch": 64, "duration": 5, "velocity": 83}, {"time": 1328, "pitch": 47, "duration": 3, "velocity": 86}, {"time": 1331, "pitch": 56, "duration": 2, "velocity": 83}, {"time": 1331, "pitch": 64, "duration": 1, "velocity": 53}, {"time": 1334, "pitch": 44, "duration": 19, "velocity": 87}, {"time": 1334, "pitch": 56, "duration": 3, "velocity": 84}, {"time": 1334, "pitch": 59, "duration": 5, "velocity": 85}, {"time": 1337, "pitch": 51, "duration": 8, "velocity": 78}, {"time": 1340, "pitch": 56, "duration": 2, "velocity": 87}, {"time": 1343, "pitch": 56, "duration": 4, "velocity": 90}, {"time": 1343, "pitch": 63, "duration": 4, "velocity": 89}, {"time": 1346, "pitch": 51, "duration": 4, "velocity": 83}, {"time": 1349, "pitch": 56, "duration": 3, "velocity": 86}, {"time": 1349, "pitch": 59, "duration": 4, "velocity": 89}, {"time": 1349, "pitch": 63, "duration": 4, "velocity": 90}, {"time": 1352, "pitch": 51, "duration": 2, "velocity": 76}, {"time": 1358, "pitch": 47, "duration": 20, "velocity": 89}, {"time": 1358, "pitch": 54, "duration": 3, "velocity": 84}, {"time": 1358, "pitch": 59, "duration": 7, "velocity": 85}, {"time": 1364, "pitch": 54, "duration": 2, "velocity": 83}, {"time": 1367, "pitch": 54, "duration": 4, "velocity": 94}, {"time": 1367, "pitch": 63, "duration": 7, "velocity": 89}, {"time": 1373, "pitch": 54, "duration": 4, "velocity": 80}, {"time": 1376, "pitch": 61, "duration": 5, "velocity": 86}, {"time": 1382, "pitch": 39, "duration": 1, "velocity": 87}, {"time": 1382, "pitch": 63, "duration": 4, "velocity": 86}, {"time": 1385, "pitch": 51, "duration": 13, "velocity": 71}, {"time": 1388, "pitch": 58, "duration": 5, "velocity": 89}, {"time": 1391, "pitch": 61, "duration": 3, "velocity": 89}, {"time": 1394, "pitch": 55, "duration": 5, "velocity": 84}, {"time": 1397, "pitch": 61, "duration": 4, "velocity": 97}, {"time": 1397, "pitch": 67, "duration": 7, "velocity": 94}, {"time": 1397, "pitch": 71, "duration": 1, "velocity": 79}, {"time": 1400, "pitch": 58, "duration": 2, "velocity": 85}, {"time": 1403, "pitch": 61, "duration": 1, "velocity": 85}, {"time": 1406, "pitch": 44, "duration": 22, "velocity": 85}, {"time": 1406, "pitch": 59, "duration": 3, "velocity": 84}, {"time": 1406, "pitch": 63, "duration": 6, "velocity": 87}, {"time": 1409, "pitch": 51, "duration": 7, "velocity": 83}, {"time": 1412, "pitch": 59, "duration": 2, "velocity": 86}, {"time": 1415, "pitch": 59, "duration": 10, "velocity": 84}, {"time": 1415, "pitch": 63, "duration": 13, "velocity": 90}, {"time": 1415, "pitch": 68, "duration": 15, "velocity": 85}, {"time": 1424, "pitch": 51, "duration": 4, "velocity": 76}, {"time": 1427, "pitch": 59, "duration": 4, "velocity": 85}, {"time": 1430, "pitch": 49, "duration": 11, "velocity": 94}, {"time": 1433, "pitch": 52, "duration": 7, "velocity": 81}, {"time": 1436, "pitch": 56, "duration": 2, "velocity": 84}, {"time": 1439, "pitch": 56, "duration": 4, "velocity": 94}, {"time": 1439, "pitch": 64, "duration": 4, "velocity": 87}, {"time": 1442, "pitch": 49, "duration": 1, "velocity": 62}, {"time": 1442, "pitch": 52, "duration": 4, "velocity": 79}, {"time": 1445, "pitch": 56, "duration": 3, "velocity": 87}, {"time": 1445, "pitch": 61, "duration": 3, "velocity": 86}, {"time": 1454, "pitch": 47, "duration": 20, "velocity": 86}, {"time": 1454, "pitch": 54, "duration": 6, "velocity": 83}, {"time": 1454, "pitch": 59, "duration": 7, "velocity": 84}, {"time": 1460, "pitch": 51, "duration": 5, "velocity": 68}, {"time": 1463, "pitch": 54, "duration": 4, "velocity": 88}, {"time": 1463, "pitch": 63, "duration": 4, "velocity": 89}, {"time": 1466, "pitch": 51, "duration": 10, "velocity": 73}, {"time": 1469, "pitch": 54, "duration": 3, "velocity": 87}, {"time": 1469, "pitch": 59, "duration": 8, "velocity": 92}, {"time": 1475, "pitch": 54, "duration": 2, "velocity": 78}, {"time": 1478, "pitch": 44, "duration": 16, "velocity": 84}, {"time": 1478, "pitch": 56, "duration": 3, "velocity": 82}, {"time": 1478, "pitch": 59, "duration": 4, "velocity": 82}, {"time": 1481, "pitch": 51, "duration": 7, "velocity": 78}, {"time": 1484, "pitch": 56, "duration": 2, "velocity": 85}, {"time": 1487, "pitch": 56, "duration": 4, "velocity": 88}, {"time": 1487, "pitch": 63, "duration": 4, "velocity": 87}, {"time": 1490, "pitch": 51, "duration": 5, "velocity": 85}, {"time": 1493, "pitch": 56, "duration": 3, "velocity": 86}, {"time": 1493, "pitch": 59, "duration": 3, "velocity": 89}, {"time": 1502, "pitch": 40, "duration": 20, "velocity": 84}, {"time": 1502, "pitch": 56, "duration": 4, "velocity": 80}, {"time": 1502, "pitch": 59, "duration": 7, "velocity": 84}, {"time": 1502, "pitch": 64, "duration": 8, "velocity": 79}, {"time": 1505, "pitch": 47, "duration": 14, "velocity": 76}, {"time": 1508, "pitch": 56, "duration": 4, "velocity": 77}, {"time": 1511, "pitch": 59, "duration": 4, "velocity": 89}, {"time": 1517, "pitch": 56, "duration": 2, "velocity": 84}, {"time": 1517, "pitch": 64, "duration": 5, "velocity": 83}, {"time": 1520, "pitch": 47, "duration": 3, "velocity": 86}, {"time": 1523, "pitch": 56, "duration": 2, "velocity": 83}, {"time": 1523, "pitch": 64, "duration": 1, "velocity": 53}, {"time": 1526, "pitch": 44, "duration": 19, "velocity": 87}, {"time": 1526, "pitch": 56, "duration": 3, "velocity": 84}, {"time": 1526, "pitch": 59, "duration": 5, "velocity": 85}, {"time": 1529, "pitch": 51, "duration": 8, "velocity": 78}, {"time": 1532, "pitch": 56, "duration": 2, "velocity": 87}, {"time": 1535, "pitch": 56, "duration": 4, "velocity": 90}, {"time": 1535, "pitch": 63, "duration": 4, "velocity": 89}, {"time": 1538, "pitch": 51, "duration": 4, "velocity": 83}, {"time": 1541, "pitch": 56, "duration": 3, "velocity": 86}, {"time": 1541, "pitch": 59, "duration": 4, "velocity": 89}, {"time": 1541, "pitch": 63, "duration": 4, "velocity": 90}, {"time": 1544, "pitch": 51, "duration": 2, "velocity": 76}, {"time": 1550, "pitch": 47, "duration": 20, "velocity": 89}, {"time": 1550, "pitch": 54, "duration": 3, "velocity": 84}, {"time": 1550, "pitch": 59, "duration": 7, "velocity": 85}, {"time": 1556, "pitch": 54, "duration": 2, "velocity": 83}, {"time": 1559, "pitch": 54, "duration": 4, "velocity": 94}, {"time": 1559, "pitch": 63, "duration": 7, "velocity": 89}, {"time": 1565, "pitch": 54, "duration": 4, "velocity": 80}, {"time": 1568, "pitch": 61, "duration": 5, "velocity": 86}, {"time": 1574, "pitch": 39, "duration": 1, "velocity": 87}, {"time": 1574, "pitch": 63, "duration": 4, "velocity": 86}, {"time": 1577, "pitch": 51, "duration": 13, "velocity": 71}, {"time": 1580, "pitch": 58, "duration": 5, "velocity": 89}, {"time": 1583, "pitch": 61, "duration": 3, "velocity": 89}, {"time": 1586, "pitch": 55, "duration": 5, "velocity": 84}, {"time": 1589, "pitch": 61, "duration": 4, "velocity": 97}, {"time": 1589, "pitch": 67, "duration": 7, "velocity": 94}, {"time": 1589, "pitch": 71, "duration": 1, "velocity": 79}, {"time": 1592, "pitch": 58, "duration": 2, "velocity": 85}, {"time": 1595, "pitch": 61, "duration": 1, "velocity": 85}, {"time": 1598, "pitch": 44, "duration": 21, "velocity": 85}, {"time": 1598, "pitch": 56, "duration": 4, "velocity": 77}, {"time": 1598, "pitch": 68, "duration": 10, "velocity": 84}, {"time": 1601, "pitch": 51, "duration": 15, "velocity": 73}, {"time": 1604, "pitch": 56, "duration": 1, "velocity": 87}, {"time": 1607, "pitch": 56, "duration": 4, "velocity": 90}, {"time": 1607, "pitch": 63, "duration": 4, "velocity": 85}, {"time": 1613, "pitch": 56, "duration": 7, "velocity": 83}, {"time": 1613, "pitch": 59, "duration": 7, "velocity": 79}, {"time": 1622, "pitch": 44, "duration": 20, "velocity": 83}, {"time": 1622, "pitch": 56, "duration": 19, "velocity": 80}, {"time": 1622, "pitch": 59, "duration": 19, "velocity": 82}, {"time": 1646, "pitch": 40, "duration": 40, "velocity": 83}, {"time": 1646, "pitch": 56, "duration": 7, "velocity": 78}, {"time": 1649, "pitch": 47, "duration": 28, "velocity": 78}, {"time": 1652, "pitch": 52, "duration": 8, "velocity": 84}, {"time": 1655, "pitch": 59, "duration": 7, "velocity": 82}, {"time": 1661, "pitch": 56, "duration": 7, "velocity": 78}, {"time": 1667, "pitch": 64, "duration": 12, "velocity": 84}, {"time": 1673, "pitch": 59, "duration": 6, "velocity": 74}, {"time": 1676, "pitch": 52, "duration": 4, "velocity": 79}, {"time": 1679, "pitch": 47, "duration": 4, "velocity": 84}, {"time": 1682, "pitch": 52, "duration": 3, "velocity": 83}, {"time": 1682, "pitch": 56, "duration": 4, "velocity": 87}, {"time": 1682, "pitch": 59, "duration": 4, "velocity": 84}, {"time": 1685, "pitch": 47, "duration": 2, "velocity": 85}, {"time": 1688, "pitch": 52, "duration": 4, "velocity": 87}, {"time": 1691, "pitch": 56, "duration": 3, "velocity": 79}, {"time": 1694, "pitch": 44, "duration": 43, "velocity": 85}, {"time": 1697, "pitch": 51, "duration": 34, "velocity": 68}, {"time": 1700, "pitch": 59, "duration": 3, "velocity": 76}, {"time": 1703, "pitch": 56, "duration": 5, "velocity": 84}, {"time": 1709, "pitch": 63, "duration": 2, "velocity": 83}, {"time": 1712, "pitch": 56, "duration": 1, "velocity": 55}, {"time": 1715, "pitch": 59, "duration": 2, "velocity": 83}, {"time": 1721, "pitch": 56, "duration": 2, "velocity": 79}, {"time": 1727, "pitch": 56, "duration": 2, "velocity": 84}, {"time": 1730, "pitch": 56, "duration": 1, "velocity": 78}, {"time": 1730, "pitch": 59, "duration": 3, "velocity": 89}, {"time": 1730, "pitch": 63, "duration": 4, "velocity": 90}, {"time": 1733, "pitch": 51, "duration": 3, "velocity": 89}, {"time": 1736, "pitch": 56, "duration": 2, "velocity": 83}, {"time": 1742, "pitch": 40, "duration": 22, "velocity": 85}, {"time": 1742, "pitch": 56, "duration": 4, "velocity": 76}, {"time": 1742, "pitch": 59, "duration": 7, "velocity": 78}, {"time": 1745, "pitch": 47, "duration": 19, "velocity": 84}, {"time": 1748, "pitch": 56, "duration": 6, "velocity": 82}, {"time": 1751, "pitch": 64, "duration": 3, "velocity": 86}, {"time": 1757, "pitch": 56, "duration": 2, "velocity": 84}, {"time": 1757, "pitch": 59, "duration": 3, "velocity": 87}, {"time": 1763, "pitch": 56, "duration": 7, "velocity": 79}, {"time": 1766, "pitch": 40, "duration": 17, "velocity": 79}, {"time": 1769, "pitch": 47, "duration": 8, "velocity": 83}, {"time": 1772, "pitch": 56, "duration": 2, "velocity": 84}, {"time": 1775, "pitch": 56, "duration": 4, "velocity": 92}, {"time": 1775, "pitch": 59, "duration": 4, "velocity": 92}, {"time": 1778, "pitch": 47, "duration": 4, "velocity": 83}, {"time": 1781, "pitch": 56, "duration": 3, "velocity": 86}, {"time": 1781, "pitch": 64, "duration": 4, "velocity": 84}, {"time": 1784, "pitch": 40, "duration": 2, "velocity": 78}, {"time": 1790, "pitch": 39, "duration": 1, "velocity": 85}, {"time": 1790, "pitch": 58, "duration": 3, "velocity": 83}, {"time": 1790, "pitch": 63, "duration": 4, "velocity": 84}, {"time": 1793, "pitch": 51, "duration": 1, "velocity": 70}, {"time": 1796, "pitch": 51, "duration": 16, "velocity": 55}, {"time": 1796, "pitch": 58, "duration": 5, "velocity": 87}, {"time": 1799, "pitch": 61, "duration": 3, "velocity": 92}, {"time": 1802, "pitch": 55, "duration": 6, "velocity": 81}, {"time": 1805, "pitch": 63, "duration": 3, "velocity": 87}, {"time": 1805, "pitch": 67, "duration": 4, "velocity": 85}, {"time": 1808, "pitch": 58, "duration": 4, "velocity": 81}, {"time": 1811, "pitch": 63, "duration": 7, "velocity": 92}, {"time": 1811, "pitch": 71, "duration": 1, "velocity": 78}, {"time": 1814, "pitch": 51, "duration": 20, "velocity": 88}, {"time": 1817, "pitch": 58, "duration": 7, "velocity": 89}, {"time": 1820, "pitch": 63, "duration": 2, "velocity": 85}, {"time": 1823, "pitch": 63, "duration": 4, "velocity": 97}, {"time": 1823, "pitch": 75, "duration": 5, "velocity": 84}, {"time": 1826, "pitch": 58, "duration": 5, "velocity": 87}, {"time": 1829, "pitch": 63, "duration": 5, "velocity": 88}, {"time": 1829, "pitch": 67, "duration": 9, "velocity": 87}, {"time": 1829, "pitch": 70, "duration": 9, "velocity": 84}, {"time": 1832, "pitch": 55, "duration": 4, "velocity": 75}, {"time": 1835, "pitch": 58, "duration": 3, "velocity": 87}, {"time": 1838, "pitch": 44, "duration": 22, "velocity": 83}, {"time": 1844, "pitch": 51, "duration": 10, "velocity": 71}, {"time": 1847, "pitch": 59, "duration": 7, "velocity": 78}, {"time": 1853, "pitch": 56, "duration": 5, "velocity": 71}, {"time": 1862, "pitch": 44, "duration": 19, "velocity": 76}, {"time": 1862, "pitch": 63, "duration": 4, "velocity": 75}, {"time": 1865, "pitch": 51, "duration": 13, "velocity": 79}, {"time": 1868, "pitch": 56, "duration": 4, "velocity": 76}, {"time": 1871, "pitch": 63, "duration": 7, "velocity": 83}, {"time": 1886, "pitch": 42, "duration": 22, "velocity": 78}, {"time": 1889, "pitch": 49, "duration": 17, "velocity": 75}, {"time": 1892, "pitch": 61, "duration": 9, "velocity": 77}, {"time": 1895, "pitch": 58, "duration": 7, "velocity": 78}, {"time": 1901, "pitch": 66, "duration": 11, "velocity": 83}, {"time": 1910, "pitch": 47, "duration": 18, "velocity": 79}, {"time": 1913, "pitch": 51, "duration": 15, "velocity": 65}, {"time": 1916, "pitch": 54, "duration": 7, "velocity": 77}, {"time": 1919, "pitch": 61, "duration": 4, "velocity": 83}, {"time": 1925, "pitch": 63, "duration": 6, "velocity": 84}, {"time": 1928, "pitch": 54, "duration": 3, "velocity": 78}, {"time": 1934, "pitch": 44, "duration": 22, "velocity": 81}, {"time": 1934, "pitch": 56, "duration": 4, "velocity": 75}, {"time": 1934, "pitch": 59, "duration": 5, "velocity": 78}, {"time": 1937, "pitch": 51, "duration": 19, "velocity": 76}, {"time": 1940, "pitch": 56, "duration": 2, "velocity": 81}, {"time": 1943, "pitch": 63, "duration": 8, "velocity": 85}, {"time": 1958, "pitch": 44, "duration": 19, "velocity": 83}, {"time": 1958, "pitch": 59, "duration": 10, "velocity": 76}, {"time": 1964, "pitch": 51, "duration": 4, "velocity": 69}, {"time": 1967, "pitch": 56, "duration": 7, "velocity": 79}, {"time": 1970, "pitch": 51, "duration": 6, "velocity": 78}, {"time": 1973, "pitch": 59, "duration": 3, "velocity": 88}, {"time": 1982, "pitch": 49, "duration": 18, "velocity": 83}, {"time": 1982, "pitch": 56, "duration": 6, "velocity": 76}, {"time": 1982, "pitch": 64, "duration": 15, "velocity": 78}, {"time": 1988, "pitch": 52, "duration": 9, "velocity": 66}, {"time": 1991, "pitch": 56, "duration": 7, "velocity": 80}, {"time": 1997, "pitch": 61, "duration": 4, "velocity": 83}, {"time": 2000, "pitch": 56, "duration": 2, "velocity": 73}, {"time": 2006, "pitch": 51, "duration": 17, "velocity": 84}, {"time": 2006, "pitch": 58, "duration": 3, "velocity": 77}, {"time": 2006, "pitch": 63, "duration": 13, "velocity": 84}, {"time": 2012, "pitch": 58, "duration": 8, "velocity": 77}, {"time": 2018, "pitch": 67, "duration": 5, "velocity": 84}, {"time": 2021, "pitch": 63, "duration": 3, "velocity": 83}, {"time": 2024, "pitch": 58, "duration": 1, "velocity": 84}, {"time": 2030, "pitch": 44, "duration": 22, "velocity": 84}, {"time": 2030, "pitch": 56, "duration": 7, "velocity": 76}, {"time": 2030, "pitch": 59, "duration": 7, "velocity": 78}, {"time": 2033, "pitch": 51, "duration": 19, "velocity": 75}, {"time": 2036, "pitch": 63, "duration": 3, "velocity": 83}, {"time": 2039, "pitch": 68, "duration": 3, "velocity": 84}, {"time": 2045, "pitch": 63, "duration": 1, "velocity": 88}, {"time": 2054, "pitch": 44, "duration": 17, "velocity": 83}, {"time": 2057, "pitch": 51, "duration": 13, "velocity": 78}, {"time": 2060, "pitch": 56, "duration": 4, "velocity": 84}, {"time": 2063, "pitch": 59, "duration": 2, "velocity": 89}, {"time": 2069, "pitch": 56, "duration": 3, "velocity": 81}, {"time": 2069, "pitch": 63, "duration": 4, "velocity": 87}, {"time": 2072, "pitch": 44, "duration": 2, "velocity": 76}, {"time": 2078, "pitch": 47, "duration": 19, "velocity": 89}, {"time": 2078, "pitch": 54, "duration": 3, "velocity": 84}, {"time": 2078, "pitch": 59, "duration": 7, "velocity": 84}, {"time": 2084, "pitch": 54, "duration": 3, "velocity": 75}, {"time": 2087, "pitch": 63, "duration": 18, "velocity": 84}, {"time": 2102, "pitch": 47, "duration": 19, "velocity": 79}, {"time": 2105, "pitch": 59, "duration": 4, "velocity": 77}, {"time": 2108, "pitch": 54, "duration": 4, "velocity": 83}, {"time": 2111, "pitch": 66, "duration": 7, "velocity": 82}, {"time": 2117, "pitch": 63, "duration": 4, "velocity": 85}, {"time": 2120, "pitch": 59, "duration": 4, "velocity": 80}, {"time": 2123, "pitch": 54, "duration": 5, "velocity": 77}, {"time": 2126, "pitch": 40, "duration": 16, "velocity": 84}, {"time": 2129, "pitch": 47, "duration": 14, "velocity": 76}, {"time": 2132, "pitch": 52, "duration": 5, "velocity": 74}, {"time": 2135, "pitch": 59, "duration": 8, "velocity": 84}, {"time": 2150, "pitch": 42, "duration": 18, "velocity": 83}, {"time": 2150, "pitch": 54, "duration": 7, "velocity": 76}, {"time": 2150, "pitch": 58, "duration": 7, "velocity": 76}, {"time": 2153, "pitch": 49, "duration": 15, "velocity": 77}, {"time": 2156, "pitch": 61, "duration": 4, "velocity": 80}, {"time": 2159, "pitch": 66, "duration": 7, "velocity": 87}, {"time": 2165, "pitch": 61, "duration": 2, "velocity": 89}, {"time": 2168, "pitch": 54, "duration": 1, "velocity": 82}, {"time": 2174, "pitch": 49, "duration": 5, "velocity": 86}, {"time": 2174, "pitch": 61, "duration": 4, "velocity": 81}, {"time": 2174, "pitch": 68, "duration": 8, "velocity": 79}, {"time": 2177, "pitch": 56, "duration": 2, "velocity": 77}, {"time": 2180, "pitch": 61, "duration": 4, "velocity": 84}, {"time": 2183, "pitch": 64, "duration": 2, "velocity": 83}, {"time": 2186, "pitch": 39, "duration": 8, "velocity": 86}, {"time": 2186, "pitch": 67, "duration": 6, "velocity": 85}, {"time": 2189, "pitch": 46, "duration": 5, "velocity": 81}, {"time": 2192, "pitch": 63, "duration": 3, "velocity": 89}, {"time": 2195, "pitch": 67, "duration": 2, "velocity": 89}, {"time": 2198, "pitch": 44, "duration": 21, "velocity": 84}, {"time": 2198, "pitch": 63, "duration": 3, "velocity": 84}, {"time": 2198, "pitch": 68, "duration": 4, "velocity": 84}, {"time": 2201, "pitch": 51, "duration": 8, "velocity": 78}, {"time": 2204, "pitch": 63, "duration": 2, "velocity": 83}, {"time": 2207, "pitch": 63, "duration": 3, "velocity": 83}, {"time": 2207, "pitch": 71, "duration": 4, "velocity": 86}, {"time": 2210, "pitch": 51, "duration": 6, "velocity": 76}, {"time": 2213, "pitch": 63, "duration": 3, "velocity": 90}, {"time": 2213, "pitch": 70, "duration": 3, "velocity": 87}, {"time": 2222, "pitch": 39, "duration": 20, "velocity": 87}, {"time": 2222, "pitch": 63, "duration": 5, "velocity": 85}, {"time": 2222, "pitch": 67, "duration": 7, "velocity": 79}, {"time": 2228, "pitch": 46, "duration": 10, "velocity": 74}, {"time": 2231, "pitch": 63, "duration": 4, "velocity": 90}, {"time": 2231, "pitch": 75, "duration": 3, "velocity": 90}, {"time": 2237, "pitch": 63, "duration": 4, "velocity": 92}, {"time": 2237, "pitch": 67, "duration": 5, "velocity": 97}, {"time": 2237, "pitch": 70, "duration": 8, "velocity": 88}, {"time": 2240, "pitch": 46, "duration": 5, "velocity": 87}, {"time": 2243, "pitch": 63, "duration": 3, "velocity": 94}, {"time": 2246, "pitch": 44, "duration": 22, "velocity": 85}, {"time": 2246, "pitch": 59, "duration": 3, "velocity": 84}, {"time": 2246, "pitch": 63, "duration": 6, "velocity": 87}, {"time": 2249, "pitch": 51, "duration": 7, "velocity": 83}, {"time": 2252, "pitch": 59, "duration": 2, "velocity": 86}, {"time": 2255, "pitch": 59, "duration": 10, "velocity": 84}, {"time": 2255, "pitch": 63, "duration": 13, "velocity": 90}, {"time": 2255, "pitch": 68, "duration": 15, "velocity": 85}, {"time": 2264, "pitch": 51, "duration": 4, "velocity": 76}, {"time": 2267, "pitch": 59, "duration": 4, "velocity": 85}, {"time": 2270, "pitch": 49, "duration": 11, "velocity": 94}, {"time": 2273, "pitch": 52, "duration": 7, "velocity": 81}, {"time": 2276, "pitch": 56, "duration": 2, "velocity": 84}, {"time": 2279, "pitch": 56, "duration": 4, "velocity": 94}, {"time": 2279, "pitch": 64, "duration": 4, "velocity": 87}, {"time": 2282, "pitch": 49, "duration": 1, "velocity": 62}, {"time": 2282, "pitch": 52, "duration": 4, "velocity": 79}, {"time": 2285, "pitch": 56, "duration": 3, "velocity": 87}, {"time": 2285, "pitch": 61, "duration": 3, "velocity": 86}, {"time": 2294, "pitch": 47, "duration": 20, "velocity": 86}, {"time": 2294, "pitch": 54, "duration": 6, "velocity": 83}, {"time": 2294, "pitch": 59, "duration": 7, "velocity": 84}, {"time": 2300, "pitch": 51, "duration": 5, "velocity": 68}, {"time": 2303, "pitch": 54, "duration": 4, "velocity": 88}, {"time": 2303, "pitch": 63, "duration": 4, "velocity": 89}, {"time": 2306, "pitch": 51, "duration": 10, "velocity": 73}, {"time": 2309, "pitch": 54, "duration": 3, "velocity": 87}, {"time": 2309, "pitch": 59, "duration": 8, "velocity": 92}, {"time": 2315, "pitch": 54, "duration": 2, "velocity": 78}, {"time": 2318, "pitch": 44, "duration": 16, "velocity": 84}, {"time": 2318, "pitch": 56, "duration": 3, "velocity": 82}, {"time": 2318, "pitch": 59, "duration": 4, "velocity": 82}, {"time": 2321, "pitch": 51, "duration": 7, "velocity": 78}, {"time": 2324, "pitch": 56, "duration": 2, "velocity": 85}, {"time": 2327, "pitch": 56, "duration": 4, "velocity": 88}, {"time": 2327, "pitch": 63, "duration": 4, "velocity": 87}, {"time": 2330, "pitch": 51, "duration": 5, "velocity": 85}, {"time": 2333, "pitch": 56, "duration": 3, "velocity": 86}, {"time": 2333, "pitch": 59, "duration": 3, "velocity": 89}, {"time": 2342, "pitch": 40, "duration": 20, "velocity": 84}, {"time": 2342, "pitch": 56, "duration": 4, "velocity": 80}, {"time": 2342, "pitch": 59, "duration": 7, "velocity": 84}, {"time": 2342, "pitch": 64, "duration": 8, "velocity": 79}, {"time": 2345, "pitch": 47, "duration": 14, "velocity": 76}, {"time": 2348, "pitch": 56, "duration": 4, "velocity": 77}, {"time": 2351, "pitch": 59, "duration": 4, "velocity": 89}, {"time": 2357, "pitch": 56, "duration": 2, "velocity": 84}, {"time": 2357, "pitch": 64, "duration": 5, "velocity": 83}, {"time": 2360, "pitch": 47, "duration": 3, "velocity": 86}, {"time": 2363, "pitch": 56, "duration": 2, "velocity": 83}, {"time": 2363, "pitch": 64, "duration": 1, "velocity": 53}, {"time": 2366, "pitch": 44, "duration": 19, "velocity": 87}, {"time": 2366, "pitch": 56, "duration": 3, "velocity": 84}, {"time": 2366, "pitch": 59, "duration": 5, "velocity": 85}, {"time": 2369, "pitch": 51, "duration": 8, "velocity": 78}, {"time": 2372, "pitch": 56, "duration": 2, "velocity": 87}, {"time": 2375, "pitch": 56, "duration": 4, "velocity": 90}, {"time": 2375, "pitch": 63, "duration": 4, "velocity": 89}, {"time": 2378, "pitch": 51, "duration": 4, "velocity": 83}, {"time": 2381, "pitch": 56, "duration": 3, "velocity": 86}, {"time": 2381, "pitch": 59, "duration": 4, "velocity": 89}, {"time": 2381, "pitch": 63, "duration": 4, "velocity": 90}, {"time": 2384, "pitch": 51, "duration": 2, "velocity": 76}, {"time": 2390, "pitch": 47, "duration": 20, "velocity": 89}, {"time": 2390, "pitch": 54, "duration": 3, "velocity": 84}, {"time": 2390, "pitch": 59, "duration": 7, "velocity": 85}, {"time": 2396, "pitch": 54, "duration": 2, "velocity": 83}, {"time": 2399, "pitch": 54, "duration": 4, "velocity": 94}, {"time": 2399, "pitch": 63, "duration": 7, "velocity": 89}, {"time": 2405, "pitch": 54, "duration": 4, "velocity": 80}, {"time": 2408, "pitch": 61, "duration": 5, "velocity": 86}, {"time": 2414, "pitch": 39, "duration": 1, "velocity": 87}, {"time": 2414, "pitch": 63, "duration": 4, "velocity": 86}, {"time": 2417, "pitch": 51, "duration": 13, "velocity": 71}, {"time": 2420, "pitch": 58, "duration": 5, "velocity": 89}, {"time": 2423, "pitch": 61, "duration": 3, "velocity": 89}, {"time": 2426, "pitch": 55, "duration": 5, "velocity": 84}, {"time": 2429, "pitch": 61, "duration": 4, "velocity": 97}, {"time": 2429, "pitch": 67, "duration": 7, "velocity": 94}, {"time": 2429, "pitch": 71, "duration": 1, "velocity": 79}, {"time": 2432, "pitch": 58, "duration": 2, "velocity": 85}, {"time": 2435, "pitch": 61, "duration": 1, "velocity": 85}, {"time": 2438, "pitch": 44, "duration": 22, "velocity": 85}, {"time": 2438, "pitch": 59, "duration": 3, "velocity": 84}, {"time": 2438, "pitch": 63, "duration": 6, "velocity": 87}, {"time": 2441, "pitch": 51, "duration": 7, "velocity": 83}, {"time": 2444, "pitch": 59, "duration": 2, "velocity": 86}, {"time": 2447, "pitch": 59, "duration": 10, "velocity": 84}, {"time": 2447, "pitch": 63, "duration": 13, "velocity": 90}, {"time": 2447, "pitch": 68, "duration": 15, "velocity": 85}, {"time": 2456, "pitch": 51, "duration": 4, "velocity": 76}, {"time": 2459, "pitch": 59, "duration": 4, "velocity": 85}, {"time": 2462, "pitch": 49, "duration": 11, "velocity": 94}, {"time": 2465, "pitch": 52, "duration": 7, "velocity": 81}, {"time": 2468, "pitch": 56, "duration": 2, "velocity": 84}, {"time": 2471, "pitch": 56, "duration": 4, "velocity": 94}, {"time": 2471, "pitch": 64, "duration": 4, "velocity": 87}, {"time": 2474, "pitch": 49, "duration": 1, "velocity": 62}, {"time": 2474, "pitch": 52, "duration": 4, "velocity": 79}, {"time": 2477, "pitch": 56, "duration": 3, "velocity": 87}, {"time": 2477, "pitch": 61, "duration": 3, "velocity": 86}, {"time": 2486, "pitch": 47, "duration": 20, "velocity": 86}, {"time": 2486, "pitch": 54, "duration": 6, "velocity": 83}, {"time": 2486, "pitch": 59, "duration": 7, "velocity": 84}, {"time": 2492, "pitch": 51, "duration": 5, "velocity": 68}, {"time": 2495, "pitch": 54, "duration": 4, "velocity": 88}, {"time": 2495, "pitch": 63, "duration": 4, "velocity": 89}, {"time": 2498, "pitch": 51, "duration": 10, "velocity": 73}, {"time": 2501, "pitch": 54, "duration": 3, "velocity": 87}, {"time": 2501, "pitch": 59, "duration": 8, "velocity": 92}, {"time": 2507, "pitch": 54, "duration": 2, "velocity": 78}, {"time": 2510, "pitch": 44, "duration": 16, "velocity": 84}, {"time": 2510, "pitch": 56, "duration": 3, "velocity": 82}, {"time": 2510, "pitch": 59, "duration": 4, "velocity": 82}, {"time": 2513, "pitch": 51, "duration": 7, "velocity": 78}, {"time": 2516, "pitch": 56, "duration": 2, "velocity": 85}, {"time": 2519, "pitch": 56, "duration": 4, "velocity": 88}, {"time": 2519, "pitch": 63, "duration": 4, "velocity": 87}, {"time": 2522, "pitch": 51, "duration": 5, "velocity": 85}, {"time": 2525, "pitch": 56, "duration": 3, "velocity": 86}, {"time": 2525, "pitch": 59, "duration": 3, "velocity": 89}, {"time": 2534, "pitch": 40, "duration": 20, "velocity": 84}, {"time": 2534, "pitch": 56, "duration": 4, "velocity": 80}, {"time": 2534, "pitch": 59, "duration": 7, "velocity": 84}, {"time": 2534, "pitch": 64, "duration": 8, "velocity": 79}, {"time": 2537, "pitch": 47, "duration": 14, "velocity": 76}, {"time": 2540, "pitch": 56, "duration": 4, "velocity": 77}, {"time": 2543, "pitch": 59, "duration": 4, "velocity": 89}, {"time": 2549, "pitch": 56, "duration": 2, "velocity": 84}, {"time": 2549, "pitch": 64, "duration": 5, "velocity": 83}, {"time": 2552, "pitch": 47, "duration": 3, "velocity": 86}, {"time": 2555, "pitch": 56, "duration": 2, "velocity": 83}, {"time": 2555, "pitch": 64, "duration": 1, "velocity": 53}, {"time": 2558, "pitch": 44, "duration": 19, "velocity": 87}, {"time": 2558, "pitch": 56, "duration": 3, "velocity": 84}, {"time": 2558, "pitch": 59, "duration": 5, "velocity": 85}, {"time": 2561, "pitch": 51, "duration": 8, "velocity": 78}, {"time": 2564, "pitch": 56, "duration": 2, "velocity": 87}, {"time": 2567, "pitch": 56, "duration": 4, "velocity": 90}, {"time": 2567, "pitch": 63, "duration": 4, "velocity": 89}, {"time": 2570, "pitch": 51, "duration": 4, "velocity": 83}, {"time": 2573, "pitch": 56, "duration": 3, "velocity": 86}, {"time": 2573, "pitch": 59, "duration": 4, "velocity": 89}, {"time": 2573, "pitch": 63, "duration": 4, "velocity": 90}, {"time": 2576, "pitch": 51, "duration": 2, "velocity": 76}, {"time": 2582, "pitch": 47, "duration": 20, "velocity": 89}, {"time": 2582, "pitch": 54, "duration": 3, "velocity": 84}, {"time": 2582, "pitch": 59, "duration": 7, "velocity": 85}, {"time": 2588, "pitch": 54, "duration": 2, "velocity": 83}, {"time": 2591, "pitch": 54, "duration": 4, "velocity": 94}, {"time": 2591, "pitch": 63, "duration": 7, "velocity": 89}, {"time": 2597, "pitch": 54, "duration": 4, "velocity": 80}, {"time": 2600, "pitch": 61, "duration": 5, "velocity": 86}, {"time": 2606, "pitch": 39, "duration": 1, "velocity": 87}, {"time": 2606, "pitch": 63, "duration": 4, "velocity": 86}, {"time": 2609, "pitch": 51, "duration": 13, "velocity": 71}, {"time": 2612, "pitch": 58, "duration": 5, "velocity": 89}, {"time": 2615, "pitch": 61, "duration": 3, "velocity": 89}, {"time": 2618, "pitch": 55, "duration": 5, "velocity": 84}, {"time": 2621, "pitch": 61, "duration": 4, "velocity": 97}, {"time": 2621, "pitch": 67, "duration": 7, "velocity": 94}, {"time": 2621, "pitch": 71, "duration": 1, "velocity": 79}, {"time": 2624, "pitch": 58, "duration": 2, "velocity": 85}, {"time": 2627, "pitch": 61, "duration": 1, "velocity": 85}, {"time": 2630, "pitch": 44, "duration": 21, "velocity": 85}, {"time": 2630, "pitch": 56, "duration": 4, "velocity": 77}, {"time": 2630, "pitch": 68, "duration": 10, "velocity": 84}, {"time": 2633, "pitch": 51, "duration": 15, "velocity": 73}, {"time": 2636, "pitch": 56, "duration": 1, "velocity": 87}, {"time": 2639, "pitch": 56, "duration": 4, "velocity": 90}, {"time": 2639, "pitch": 63, "duration": 4, "velocity": 85}, {"time": 2645, "pitch": 56, "duration": 7, "velocity": 83}, {"time": 2645, "pitch": 59, "duration": 7, "velocity": 79}, {"time": 2654, "pitch": 44, "duration": 11, "velocity": 85}, {"time": 2654, "pitch": 56, "duration": 4, "velocity": 82}, {"time": 2654, "pitch": 63, "duration": 4, "velocity": 84}, {"time": 2657, "pitch": 51, "duration": 8, "velocity": 84}, {"time": 2660, "pitch": 56, "duration": 2, "velocity": 79}, {"time": 2660, "pitch": 59, "duration": 1, "velocity": 81}, {"time": 2660, "pitch": 63, "duration": 1, "velocity": 84}, {"time": 2663, "pitch": 56, "duration": 2, "velocity": 80}, {"time": 2663, "pitch": 59, "duration": 2, "velocity": 83}, {"time": 2663, "pitch": 63, "duration": 2, "velocity": 85}, {"time": 2666, "pitch": 44, "duration": 2, "velocity": 85}, {"time": 2666, "pitch": 51, "duration": 1, "velocity": 90}, {"time": 2666, "pitch": 56, "duration": 2, "velocity": 89}, {"time": 2666, "pitch": 59, "duration": 2, "velocity": 97}, {"time": 2666, "pitch": 63, "duration": 2, "velocity": 94}, {"time": 2669, "pitch": 44, "duration": 2, "velocity": 89}, {"time": 2669, "pitch": 51, "duration": 2, "velocity": 94}, {"time": 2669, "pitch": 56, "duration": 2, "velocity": 90}, {"time": 2669, "pitch": 59, "duration": 2, "velocity": 97}, {"time": 2669, "pitch": 63, "duration": 2, "velocity": 92}, {"time": 2672, "pitch": 44, "duration": 2, "velocity": 92}, {"time": 2672, "pitch": 51, "duration": 2, "velocity": 94}, {"time": 2672, "pitch": 56, "duration": 2, "velocity": 92}, {"time": 2672, "pitch": 59, "duration": 2, "velocity": 92}, {"time": 2672, "pitch": 63, "duration": 2, "velocity": 94}, {"time": 2672, "pitch": 68, "duration": 1, "velocity": 84}, {"time": 2675, "pitch": 44, "duration": 2, "velocity": 85}, {"time": 2675, "pitch": 51, "duration": 2, "velocity": 92}, {"time": 2675, "pitch": 56, "duration": 2, "velocity": 85}, {"time": 2675, "pitch": 59, "duration": 2, "velocity": 88}, {"time": 2675, "pitch": 63, "duration": 2, "velocity": 89}, {"time": 2678, "pitch": 49, "duration": 11, "velocity": 90}, {"time": 2678, "pitch": 56, "duration": 3, "velocity": 85}, {"time": 2678, "pitch": 64, "duration": 7, "velocity": 84}, {"time": 2684, "pitch": 56, "duration": 2, "velocity": 89}, {"time": 2687, "pitch": 56, "duration": 3, "velocity": 100}, {"time": 2687, "pitch": 64, "duration": 3, "velocity": 97}, {"time": 2690, "pitch": 49, "duration": 5, "velocity": 85}, {"time": 2693, "pitch": 56, "duration": 2, "velocity": 88}, {"time": 2693, "pitch": 61, "duration": 5, "velocity": 90}, {"time": 2699, "pitch": 56, "duration": 1, "velocity": 87}, {"time": 2702, "pitch": 51, "duration": 17, "velocity": 97}, {"time": 2702, "pitch": 58, "duration": 2, "velocity": 84}, {"time": 2702, "pitch": 63, "duration": 4, "velocity": 88}, {"time": 2705, "pitch": 58, "duration": 4, "velocity": 85}, {"time": 2708, "pitch": 63, "duration": 2, "velocity": 83}, {"time": 2711, "pitch": 58, "duration": 4, "velocity": 79}, {"time": 2711, "pitch": 63, "duration": 3, "velocity": 86}, {"time": 2711, "pitch": 67, "duration": 4, "velocity": 83}, {"time": 2717, "pitch": 58, "duration": 2, "velocity": 90}, {"time": 2717, "pitch": 63, "duration": 3, "velocity": 104}, {"time": 2717, "pitch": 67, "duration": 6, "velocity": 92}, {"time": 2720, "pitch": 58, "duration": 4, "velocity": 83}, {"time": 2723, "pitch": 63, "duration": 2, "velocity": 82}, {"time": 2726, "pitch": 49, "duration": 10, "velocity": 90}, {"time": 2726, "pitch": 56, "duration": 2, "velocity": 86}, {"time": 2726, "pitch": 59, "duration": 1, "velocity": 84}, {"time": 2726, "pitch": 61, "duration": 4, "velocity": 83}, {"time": 2729, "pitch": 56, "duration": 4, "velocity": 83}, {"time": 2732, "pitch": 61, "duration": 2, "velocity": 83}, {"time": 2735, "pitch": 56, "duration": 4, "velocity": 92}, {"time": 2735, "pitch": 61, "duration": 3, "velocity": 89}, {"time": 2735, "pitch": 64, "duration": 3, "velocity": 97}, {"time": 2738, "pitch": 49, "duration": 2, "velocity": 79}, {"time": 2741, "pitch": 56, "duration": 3, "velocity": 99}, {"time": 2741, "pitch": 61, "duration": 5, "velocity": 99}, {"time": 2741, "pitch": 64, "duration": 4, "velocity": 99}, {"time": 2747, "pitch": 56, "duration": 1, "velocity": 79}, {"time": 2750, "pitch": 51, "duration": 10, "velocity": 90}, {"time": 2750, "pitch": 58, "duration": 2, "velocity": 87}, {"time": 2750, "pitch": 63, "duration": 4, "velocity": 90}, {"time": 2753, "pitch": 58, "duration": 4, "velocity": 84}, {"time": 2756, "pitch": 63, "duration": 2, "velocity": 79}, {"time": 2759, "pitch": 58, "duration": 4, "velocity": 90}, {"time": 2759, "pitch": 63, "duration": 4, "velocity": 100}, {"time": 2759, "pitch": 67, "duration": 4, "velocity": 92}, {"time": 2762, "pitch": 51, "duration": 2, "velocity": 71}, {"time": 2765, "pitch": 58, "duration": 2, "velocity": 89}, {"time": 2765, "pitch": 63, "duration": 3, "velocity": 97}, {"time": 2765, "pitch": 67, "duration": 4, "velocity": 92}, {"time": 2774, "pitch": 40, "duration": 20, "velocity": 87}, {"time": 2774, "pitch": 52, "duration": 4, "velocity": 86}, {"time": 2774, "pitch": 56, "duration": 4, "velocity": 89}, {"time": 2777, "pitch": 47, "duration": 8, "velocity": 77}, {"time": 2780, "pitch": 59, "duration": 1, "velocity": 78}, {"time": 2783, "pitch": 52, "duration": 3, "velocity": 90}, {"time": 2783, "pitch": 64, "duration": 3, "velocity": 88}, {"time": 2786, "pitch": 47, "duration": 4, "velocity": 83}, {"time": 2789, "pitch": 52, "duration": 3, "velocity": 85}, {"time": 2789, "pitch": 56, "duration": 3, "velocity": 89}, {"time": 2789, "pitch": 59, "duration": 4, "velocity": 89}, {"time": 2792, "pitch": 47, "duration": 3, "velocity": 81}, {"time": 2795, "pitch": 52, "duration": 2, "velocity": 89}, {"time": 2798, "pitch": 40, "duration": 19, "velocity": 86}, {"time": 2798, "pitch": 52, "duration": 3, "velocity": 84}, {"time": 2798, "pitch": 56, "duration": 4, "velocity": 97}, {"time": 2798, "pitch": 59, "duration": 5, "velocity": 92}, {"time": 2801, "pitch": 47, "duration": 9, "velocity": 83}, {"time": 2804, "pitch": 52, "duration": 1, "velocity": 84}, {"time": 2807, "pitch": 52, "duration": 2, "velocity": 86}, {"time": 2807, "pitch": 64, "duration": 2, "velocity": 82}, {"time": 2810, "pitch": 52, "duration": 1, "velocity": 94}, {"time": 2810, "pitch": 64, "duration": 3, "velocity": 86}, {"time": 2813, "pitch": 47, "duration": 4, "velocity": 92}, {"time": 2816, "pitch": 64, "duration": 2, "velocity": 84}, {"time": 2816, "pitch": 68, "duration": 4, "velocity": 84}, {"time": 2819, "pitch": 40, "duration": 1, "velocity": 74}, {"time": 2819, "pitch": 47, "duration": 2, "velocity": 88}, {"time": 2819, "pitch": 64, "duration": 2, "velocity": 83}, {"time": 2822, "pitch": 42, "duration": 19, "velocity": 88}, {"time": 2822, "pitch": 66, "duration": 4, "velocity": 84}, {"time": 2822, "pitch": 70, "duration": 5, "velocity": 89}, {"time": 2825, "pitch": 49, "duration": 13, "velocity": 86}, {"time": 2828, "pitch": 66, "duration": 1, "velocity": 72}, {"time": 2831, "pitch": 66, "duration": 2, "velocity": 86}, {"time": 2831, "pitch": 70, "duration": 2, "velocity": 92}, {"time": 2837, "pitch": 66, "duration": 2, "velocity": 85}, {"time": 2837, "pitch": 70, "duration": 3, "velocity": 89}, {"time": 2840, "pitch": 49, "duration": 2, "velocity": 81}, {"time": 2843, "pitch": 61, "duration": 2, "velocity": 84}, {"time": 2846, "pitch": 42, "duration": 16, "velocity": 86}, {"time": 2846, "pitch": 61, "duration": 3, "velocity": 90}, {"time": 2846, "pitch": 66, "duration": 4, "velocity": 84}, {"time": 2849, "pitch": 49, "duration": 7, "velocity": 82}, {"time": 2852, "pitch": 61, "duration": 1, "velocity": 84}, {"time": 2855, "pitch": 61, "duration": 4, "velocity": 89}, {"time": 2855, "pitch": 66, "duration": 4, "velocity": 94}, {"time": 2855, "pitch": 70, "duration": 4, "velocity": 89}, {"time": 2858, "pitch": 49, "duration": 4, "velocity": 84}, {"time": 2861, "pitch": 61, "duration": 2, "velocity": 92}, {"time": 2861, "pitch": 66, "duration": 2, "velocity": 90}, {"time": 2861, "pitch": 70, "duration": 2, "velocity": 94}, {"time": 2864, "pitch": 42, "duration": 1, "velocity": 85}, {"time": 2870, "pitch": 43, "duration": 4, "velocity": 97}, {"time": 2870, "pitch": 50, "duration": 3, "velocity": 83}, {"time": 2870, "pitch": 67, "duration": 5, "velocity": 83}, {"time": 2870, "pitch": 79, "duration": 4, "velocity": 79}, {"time": 2876, "pitch": 43, "duration": 2, "velocity": 97}, {"time": 2876, "pitch": 50, "duration": 2, "velocity": 88}, {"time": 2876, "pitch": 67, "duration": 1, "velocity": 87}, {"time": 2876, "pitch": 79, "duration": 1, "velocity": 83}, {"time": 2882, "pitch": 43, "duration": 1, "velocity": 90}, {"time": 2882, "pitch": 50, "duration": 1, "velocity": 85}, {"time": 2882, "pitch": 55, "duration": 1, "velocity": 85}, {"time": 2882, "pitch": 67, "duration": 1, "velocity": 67}, {"time": 2882, "pitch": 69, "duration": 1, "velocity": 72}, {"time": 2885, "pitch": 43, "duration": 1, "velocity": 83}, {"time": 2885, "pitch": 50, "duration": 1, "velocity": 81}, {"time": 2885, "pitch": 55, "duration": 1, "velocity": 89}, {"time": 2885, "pitch": 67, "duration": 2, "velocity": 75}, {"time": 2888, "pitch": 43, "duration": 1, "velocity": 79}, {"time": 2888, "pitch": 50, "duration": 1, "velocity": 74}, {"time": 2888, "pitch": 55, "duration": 1, "velocity": 71}, {"time": 2891, "pitch": 43, "duration": 1, "velocity": 84}, {"time": 2891, "pitch": 50, "duration": 1, "velocity": 83}, {"time": 2891, "pitch": 55, "duration": 2, "velocity": 85}, {"time": 2891, "pitch": 67, "duration": 1, "velocity": 76}, {"time": 2894, "pitch": 43, "duration": 10, "velocity": 109}, {"time": 2894, "pitch": 50, "duration": 10, "velocity": 99}, {"time": 2894, "pitch": 55, "duration": 10, "velocity": 97}, {"time": 2894, "pitch": 65, "duration": 5, "velocity": 68}, {"time": 2894, "pitch": 67, "duration": 9, "velocity": 85}, {"time": 2906, "pitch": 43, "duration": 10, "velocity": 119}, {"time": 2906, "pitch": 50, "duration": 10, "velocity": 94}, {"time": 2906, "pitch": 55, "duration": 11, "velocity": 94}, {"time": 2906, "pitch": 59, "duration": 10, "velocity": 97}, {"time": 2906, "pitch": 62, "duration": 11, "velocity": 97}, {"time": 2906, "pitch": 67, "duration": 11, "velocity": 86}, {"time": 2918, "pitch": 45, "duration": 22, "velocity": 85}, {"time": 2918, "pitch": 60, "duration": 3, "velocity": 84}, {"time": 2918, "pitch": 64, "duration": 6, "velocity": 87}, {"time": 2921, "pitch": 52, "duration": 7, "velocity": 83}, {"time": 2924, "pitch": 60, "duration": 2, "velocity": 86}, {"time": 2927, "pitch": 60, "duration": 10, "velocity": 84}, {"time": 2927, "pitch": 64, "duration": 13, "velocity": 90}, {"time": 2927, "pitch": 69, "duration": 15, "velocity": 85}, {"time": 2936, "pitch": 52, "duration": 4, "velocity": 76}, {"time": 2939, "pitch": 60, "duration": 4, "velocity": 85}, {"time": 2942, "pitch": 50, "duration": 11, "velocity": 94}, {"time": 2945, "pitch": 53, "duration": 7, "velocity": 81}, {"time": 2948, "pitch": 57, "duration": 2, "velocity": 84}, {"time": 2951, "pitch": 57, "duration": 4, "velocity": 94}, {"time": 2951, "pitch": 65, "duration": 4, "velocity": 87}, {"time": 2954, "pitch": 50, "duration": 1, "velocity": 62}, {"time": 2954, "pitch": 53, "duration": 4, "velocity": 79}, {"time": 2957, "pitch": 57, "duration": 3, "velocity": 87}, {"time": 2957, "pitch": 62, "duration": 3, "velocity": 86}, {"time": 2966, "pitch": 48, "duration": 20, "velocity": 86}, {"time": 2966, "pitch": 55, "duration": 6, "velocity": 83}, {"time": 2966, "pitch": 60, "duration": 7, "velocity": 84}, {"time": 2972, "pitch": 52, "duration": 5, "velocity": 68}, {"time": 2975, "pitch": 55, "duration": 4, "velocity": 88}, {"time": 2975, "pitch": 64, "duration": 4, "velocity": 89}, {"time": 2978, "pitch": 52, "duration": 10, "velocity": 73}, {"time": 2981, "pitch": 55, "duration": 3, "velocity": 87}, {"time": 2981, "pitch": 60, "duration": 8, "velocity": 92}, {"time": 2987, "pitch": 55, "duration": 2, "velocity": 78}, {"time": 2990, "pitch": 45, "duration": 16, "velocity": 84}, {"time": 2990, "pitch": 57, "duration": 3, "velocity": 82}, {"time": 2990, "pitch": 60, "duration": 4, "velocity": 82}, {"time": 2993, "pitch": 52, "duration": 7, "velocity": 78}, {"time": 2996, "pitch": 57, "duration": 2, "velocity": 85}, {"time": 2999, "pitch": 57, "duration": 4, "velocity": 88}, {"time": 2999, "pitch": 64, "duration": 4, "velocity": 87}, {"time": 3002, "pitch": 52, "duration": 5, "velocity": 85}, {"time": 3005, "pitch": 57, "duration": 3, "velocity": 86}, {"time": 3005, "pitch": 60, "duration": 3, "velocity": 89}, {"time": 3014, "pitch": 41, "duration": 20, "velocity": 84}, {"time": 3014, "pitch": 57, "duration": 4, "velocity": 80}, {"time": 3014, "pitch": 60, "duration": 7, "velocity": 84}, {"time": 3014, "pitch": 65, "duration": 8, "velocity": 79}, {"time": 3017, "pitch": 48, "duration": 14, "velocity": 76}, {"time": 3020, "pitch": 57, "duration": 4, "velocity": 77}, {"time": 3023, "pitch": 60, "duration": 4, "velocity": 89}, {"time": 3029, "pitch": 57, "duration": 2, "velocity": 84}, {"time": 3029, "pitch": 65, "duration": 5, "velocity": 83}, {"time": 3032, "pitch": 48, "duration": 3, "velocity": 86}, {"time": 3035, "pitch": 57, "duration": 2, "velocity": 83}, {"time": 3035, "pitch": 65, "duration": 1, "velocity": 53}, {"time": 3038, "pitch": 45, "duration": 19, "velocity": 87}, {"time": 3038, "pitch": 57, "duration": 3, "velocity": 84}, {"time": 3038, "pitch": 60, "duration": 5, "velocity": 85}, {"time": 3041, "pitch": 52, "duration": 8, "velocity": 78}, {"time": 3044, "pitch": 57, "duration": 2, "velocity": 87}, {"time": 3047, "pitch": 57, "duration": 4, "velocity": 90}, {"time": 3047, "pitch": 64, "duration": 4, "velocity": 89}, {"time": 3050, "pitch": 52, "duration": 4, "velocity": 83}, {"time": 3053, "pitch": 57, "duration": 3, "velocity": 86}, {"time": 3053, "pitch": 60, "duration": 4, "velocity": 89}, {"time": 3053, "pitch": 64, "duration": 4, "velocity": 90}, {"time": 3056, "pitch": 52, "duration": 2, "velocity": 76}, {"time": 3062, "pitch": 48, "duration": 20, "velocity": 89}, {"time": 3062, "pitch": 55, "duration": 3, "velocity": 84}, {"time": 3062, "pitch": 60, "duration": 7, "velocity": 85}, {"time": 3068, "pitch": 55, "duration": 2, "velocity": 83}, {"time": 3071, "pitch": 55, "duration": 4, "velocity": 94}, {"time": 3071, "pitch": 64, "duration": 7, "velocity": 89}, {"time": 3077, "pitch": 55, "duration": 4, "velocity": 80}, {"time": 3080, "pitch": 62, "duration": 5, "velocity": 86}, {"time": 3086, "pitch": 40, "duration": 1, "velocity": 87}, {"time": 3086, "pitch": 64, "duration": 4, "velocity": 86}, {"time": 3089, "pitch": 52, "duration": 13, "velocity": 71}, {"time": 3092, "pitch": 59, "duration": 5, "velocity": 89}, {"time": 3095, "pitch": 62, "duration": 3, "velocity": 89}, {"time": 3098, "pitch": 56, "duration": 5, "velocity": 84}, {"time": 3101, "pitch": 62, "duration": 4, "velocity": 97}, {"time": 3101, "pitch": 68, "duration": 7, "velocity": 94}, {"time": 3101, "pitch": 72, "duration": 1, "velocity": 79}, {"time": 3104, "pitch": 59, "duration": 2, "velocity": 85}, {"time": 3107, "pitch": 62, "duration": 1, "velocity": 85}, {"time": 3110, "pitch": 45, "duration": 22, "velocity": 85}, {"time": 3110, "pitch": 60, "duration": 3, "velocity": 84}, {"time": 3110, "pitch": 64, "duration": 6, "velocity": 87}, {"time": 3113, "pitch": 52, "duration": 7, "velocity": 83}, {"time": 3116, "pitch": 60, "duration": 2, "velocity": 86}, {"time": 3119, "pitch": 60, "duration": 10, "velocity": 84}, {"time": 3119, "pitch": 64, "duration": 13, "velocity": 90}, {"time": 3119, "pitch": 69, "duration": 15, "velocity": 85}, {"time": 3128, "pitch": 52, "duration": 4, "velocity": 76}, {"time": 3131, "pitch": 60, "duration": 4, "velocity": 85}, {"time": 3134, "pitch": 50, "duration": 11, "velocity": 94}, {"time": 3137, "pitch": 53, "duration": 7, "velocity": 81}, {"time": 3140, "pitch": 57, "duration": 2, "velocity": 84}, {"time": 3143, "pitch": 57, "duration": 4, "velocity": 94}, {"time": 3143, "pitch": 65, "duration": 4, "velocity": 87}, {"time": 3146, "pitch": 50, "duration": 1, "velocity": 62}, {"time": 3146, "pitch": 53, "duration": 4, "velocity": 79}, {"time": 3149, "pitch": 57, "duration": 3, "velocity": 87}, {"time": 3149, "pitch": 62, "duration": 3, "velocity": 86}, {"time": 3158, "pitch": 48, "duration": 20, "velocity": 86}, {"time": 3158, "pitch": 55, "duration": 6, "velocity": 83}, {"time": 3158, "pitch": 60, "duration": 7, "velocity": 84}, {"time": 3164, "pitch": 52, "duration": 5, "velocity": 68}, {"time": 3167, "pitch": 55, "duration": 4, "velocity": 88}, {"time": 3167, "pitch": 64, "duration": 4, "velocity": 89}, {"time": 3170, "pitch": 52, "duration": 10, "velocity": 73}, {"time": 3173, "pitch": 55, "duration": 3, "velocity": 87}, {"time": 3173, "pitch": 60, "duration": 8, "velocity": 92}, {"time": 3179, "pitch": 55, "duration": 2, "velocity": 78}, {"time": 3182, "pitch": 45, "duration": 16, "velocity": 84}, {"time": 3182, "pitch": 57, "duration": 3, "velocity": 82}, {"time": 3182, "pitch": 60, "duration": 4, "velocity": 82}, {"time": 3185, "pitch": 52, "duration": 7, "velocity": 78}, {"time": 3188, "pitch": 57, "duration": 2, "velocity": 85}, {"time": 3191, "pitch": 57, "duration": 4, "velocity": 88}, {"time": 3191, "pitch": 64, "duration": 4, "velocity": 87}, {"time": 3194, "pitch": 52, "duration": 5, "velocity": 85}, {"time": 3197, "pitch": 57, "duration": 3, "velocity": 86}, {"time": 3197, "pitch": 60, "duration": 3, "velocity": 89}, {"time": 3206, "pitch": 41, "duration": 20, "velocity": 84}, {"time": 3206, "pitch": 57, "duration": 4, "velocity": 80}, {"time": 3206, "pitch": 60, "duration": 7, "velocity": 84}, {"time": 3206, "pitch": 65, "duration": 8, "velocity": 79}, {"time": 3209, "pitch": 48, "duration": 14, "velocity": 76}, {"time": 3212, "pitch": 57, "duration": 4, "velocity": 77}, {"time": 3215, "pitch": 60, "duration": 4, "velocity": 89}, {"time": 3221, "pitch": 57, "duration": 2, "velocity": 84}, {"time": 3221, "pitch": 65, "duration": 5, "velocity": 83}, {"time": 3224, "pitch": 48, "duration": 3, "velocity": 86}, {"time": 3227, "pitch": 57, "duration": 2, "velocity": 83}, {"time": 3227, "pitch": 65, "duration": 1, "velocity": 53}, {"time": 3230, "pitch": 45, "duration": 19, "velocity": 87}, {"time": 3230, "pitch": 57, "duration": 3, "velocity": 84}, {"time": 3230, "pitch": 60, "duration": 5, "velocity": 85}, {"time": 3233, "pitch": 52, "duration": 8, "velocity": 78}, {"time": 3236, "pitch": 57, "duration": 2, "velocity": 87}, {"time": 3239, "pitch": 57, "duration": 4, "velocity": 90}, {"time": 3239, "pitch": 64, "duration": 4, "velocity": 89}, {"time": 3242, "pitch": 52, "duration": 4, "velocity": 83}, {"time": 3245, "pitch": 57, "duration": 3, "velocity": 86}, {"time": 3245, "pitch": 60, "duration": 4, "velocity": 89}, {"time": 3245, "pitch": 64, "duration": 4, "velocity": 90}, {"time": 3248, "pitch": 52, "duration": 2, "velocity": 76}, {"time": 3254, "pitch": 48, "duration": 20, "velocity": 89}, {"time": 3254, "pitch": 55, "duration": 3, "velocity": 84}, {"time": 3254, "pitch": 60, "duration": 7, "velocity": 85}, {"time": 3260, "pitch": 55, "duration": 2, "velocity": 83}, {"time": 3263, "pitch": 55, "duration": 4, "velocity": 94}, {"time": 3263, "pitch": 64, "duration": 7, "velocity": 89}, {"time": 3269, "pitch": 55, "duration": 4, "velocity": 80}, {"time": 3272, "pitch": 62, "duration": 5, "velocity": 86}, {"time": 3278, "pitch": 40, "duration": 1, "velocity": 87}, {"time": 3278, "pitch": 64, "duration": 4, "velocity": 86}, {"time": 3281, "pitch": 52, "duration": 13, "velocity": 71}, {"time": 3284, "pitch": 59, "duration": 5, "velocity": 89}, {"time": 3287, "pitch": 62, "duration": 3, "velocity": 89}, {"time": 3290, "pitch": 56, "duration": 5, "velocity": 84}, {"time": 3293, "pitch": 62, "duration": 4, "velocity": 97}, {"time": 3293, "pitch": 68, "duration": 7, "velocity": 94}, {"time": 3293, "pitch": 72, "duration": 1, "velocity": 79}, {"time": 3296, "pitch": 59, "duration": 2, "velocity": 85}, {"time": 3299, "pitch": 62, "duration": 1, "velocity": 85}, {"time": 3302, "pitch": 45, "duration": 21, "velocity": 85}, {"time": 3302, "pitch": 57, "duration": 4, "velocity": 77}, {"time": 3302, "pitch": 69, "duration": 10, "velocity": 84}, {"time": 3305, "pitch": 52, "duration": 15, "velocity": 73}, {"time": 3308, "pitch": 57, "duration": 1, "velocity": 87}, {"time": 3311, "pitch": 57, "duration": 4, "velocity": 90}, {"time": 3311, "pitch": 64, "duration": 4, "velocity": 85}, {"time": 3317, "pitch": 57, "duration": 7, "velocity": 83}, {"time": 3317, "pitch": 60, "duration": 7, "velocity": 79}, {"time": 3326, "pitch": 45, "duration": 16, "velocity": 76}, {"time": 3326, "pitch": 57, "duration": 10, "velocity": 73}, {"time": 3326, "pitch": 60, "duration": 10, "velocity": 74}, {"time": 3338, "pitch": 57, "duration": 10, "velocity": 70}, {"time": 3338, "pitch": 60, "duration": 10, "velocity": 79}, {"time": 3338, "pitch": 64, "duration": 11, "velocity": 80}, {"time": 3351, "pitch": 53, "duration": 30, "velocity": 76}, {"time": 3352, "pitch": 41, "duration": 16, "velocity": 88}, {"time": 3352, "pitch": 57, "duration": 29, "velocity": 72}, {"time": 3353, "pitch": 60, "duration": 29, "velocity": 77}, {"time": 3354, "pitch": 65, "duration": 28, "velocity": 77}, {"time": 3380, "pitch": 40, "duration": 45, "velocity": 80}, {"time": 3384, "pitch": 47, "duration": 40, "velocity": 82}, {"time": 3387, "pitch": 52, "duration": 5, "velocity": 71}, {"time": 3389, "pitch": 56, "duration": 4, "velocity": 78}, {"time": 3391, "pitch": 59, "duration": 3, "velocity": 77}, {"time": 3393, "pitch": 64, "duration": 2, "velocity": 73}, {"time": 3470, "pitch": 45, "duration": 44, "velocity": 82}, {"time": 3470, "pitch": 69, "duration": 7, "velocity": 81}, {"time": 3473, "pitch": 64, "duration": 4, "velocity": 77}, {"time": 3476, "pitch": 57, "duration": 4, "velocity": 70}, {"time": 3479, "pitch": 64, "duration": 3, "velocity": 75}, {"time": 3482, "pitch": 69, "duration": 6, "velocity": 84}, {"time": 3485, "pitch": 64, "duration": 4, "velocity": 76}, {"time": 3488, "pitch": 57, "duration": 5, "velocity": 73}, {"time": 3491, "pitch": 64, "duration": 3, "velocity": 72}, {"time": 3494, "pitch": 69, "duration": 5, "velocity": 81}, {"time": 3497, "pitch": 64, "duration": 4, "velocity": 73}, {"time": 3500, "pitch": 57, "duration": 3, "velocity": 64}, {"time": 3503, "pitch": 64, "duration": 3, "velocity": 75}, {"time": 3506, "pitch": 69, "duration": 5, "velocity": 82}, {"time": 3509, "pitch": 64, "duration": 4, "velocity": 77}, {"time": 3512, "pitch": 57, "duration": 4, "velocity": 77}, {"time": 3515, "pitch": 64, "duration": 4, "velocity": 79}, {"time": 3518, "pitch": 45, "duration": 45, "velocity": 78}, {"time": 3518, "pitch": 69, "duration": 7, "velocity": 81}, {"time": 3521, "pitch": 64, "duration": 4, "velocity": 75}, {"time": 3524, "pitch": 57, "duration": 6, "velocity": 72}, {"time": 3527, "pitch": 64, "duration": 3, "velocity": 75}, {"time": 3530, "pitch": 69, "duration": 5, "velocity": 83}, {"time": 3533, "pitch": 64, "duration": 3, "velocity": 70}, {"time": 3536, "pitch": 57, "duration": 4, "velocity": 68}, {"time": 3539, "pitch": 64, "duration": 3, "velocity": 69}, {"time": 3542, "pitch": 69, "duration": 4, "velocity": 75}, {"time": 3545, "pitch": 64, "duration": 3, "velocity": 68}, {"time": 3548, "pitch": 57, "duration": 4, "velocity": 56}, {"time": 3551, "pitch": 64, "duration": 3, "velocity": 70}, {"time": 3554, "pitch": 69, "duration": 3, "velocity": 80}, {"time": 3557, "pitch": 64, "duration": 3, "velocity": 72}, {"time": 3560, "pitch": 57, "duration": 4, "velocity": 67}, {"time": 3563, "pitch": 64, "duration": 4, "velocity": 74}, {"time": 3566, "pitch": 45, "duration": 40, "velocity": 80}, {"time": 3566, "pitch": 69, "duration": 5, "velocity": 80}, {"time": 3569, "pitch": 64, "duration": 3, "velocity": 73}, {"time": 3572, "pitch": 57, "duration": 4, "velocity": 69}, {"time": 3575, "pitch": 64, "duration": 3, "velocity": 74}, {"time": 3578, "pitch": 69, "duration": 4, "velocity": 79}, {"time": 3581, "pitch": 64, "duration": 3, "velocity": 76}, {"time": 3584, "pitch": 57, "duration": 4, "velocity": 78}, {"time": 3587, "pitch": 64, "duration": 3, "velocity": 76}, {"time": 3590, "pitch": 69, "duration": 4, "velocity": 78}, {"time": 3593, "pitch": 64, "duration": 3, "velocity": 75}, {"time": 3596, "pitch": 57, "duration": 4, "velocity": 75}, {"time": 3599, "pitch": 64, "duration": 3, "velocity": 75}, {"time": 3602, "pitch": 69, "duration": 7, "velocity": 83}, {"time": 3605, "pitch": 64, "duration": 4, "velocity": 78}, {"time": 3608, "pitch": 57, "duration": 5, "velocity": 77}, {"time": 3611, "pitch": 64, "duration": 3, "velocity": 71}, {"time": 3614, "pitch": 45, "duration": 47, "velocity": 84}, {"time": 3614, "pitch": 69, "duration": 6, "velocity": 80}, {"time": 3617, "pitch": 64, "duration": 4, "velocity": 76}, {"time": 3620, "pitch": 57, "duration": 4, "velocity": 72}, {"time": 3623, "pitch": 64, "duration": 4, "velocity": 78}, {"time": 3626, "pitch": 69, "duration": 7, "velocity": 83}, {"time": 3629, "pitch": 64, "duration": 3, "velocity": 75}, {"time": 3632, "pitch": 57, "duration": 4, "velocity": 71}, {"time": 3635, "pitch": 64, "duration": 3, "velocity": 73}, {"time": 3638, "pitch": 69, "duration": 5, "velocity": 77}, {"time": 3641, "pitch": 64, "duration": 4, "velocity": 76}, {"time": 3644, "pitch": 57, "duration": 4, "velocity": 79}, {"time": 3644, "pitch": 69, "duration": 3, "velocity": 30}, {"time": 3647, "pitch": 64, "duration": 5, "velocity": 79}, {"time": 3650, "pitch": 52, "duration": 11, "velocity": 83}, {"time": 3653, "pitch": 57, "duration": 4, "velocity": 85}, {"time": 3656, "pitch": 64, "duration": 4, "velocity": 84}, {"time": 3659, "pitch": 69, "duration": 2, "velocity": 84}, {"time": 3660, "pitch": 60, "duration": 18, "velocity": 77}, {"time": 3661, "pitch": 64, "duration": 17, "velocity": 78}, {"time": 3662, "pitch": 45, "duration": 15, "velocity": 76}, {"time": 3662, "pitch": 69, "duration": 17, "velocity": 81}], "annotations": [{"time": 40, "annotation": {"number": 64, "value": 127}, "group": "control_change"}, {"time": 85, "annotation": {"number": 64, "value": 0}, "group": "control_change"}, {"time": 96, "annotation": {"number": 64, "value": 127}, "group": "control_change"}, {"time": 133, "annotation": {"number": 64, "value": 0}, "group": "control_change"}, {"time": 136, "annotation": {"number": 64, "value": 127}, "group": "control_change"}, {"time": 181, "annotation": {"number": 64, "value": 0}, "group": "control_change"}, {"time": 183, "annotation": {"number": 64, "value": 127}, "group": "control_change"}, {"time": 230, "annotation": {"number": 64, "value": 0}, "group": "control_change"}, {"time": 232, "annotation": {"number": 64, "value": 127}, "group": "control_change"}, {"time": 253, "annotation": {"number": 64, "value": 0}, "group": "control_change"}, {"time": 255, "annotation": {"number": 64, "value": 127}, "group": "control_change"}, {"time": 278, "annotation": {"number": 64, "value": 0}, "group": "control_change"}, {"time": 282, "annotation": {"number": 64, "value": 127}, "group": "control_change"}, {"time": 301, "annotation": {"number": 64, "value": 0}, "group": "control_change"}, {"time": 305, "annotation": {"number": 64, "value": 127}, "group": "control_change"}, {"time": 325, "annotation": {"number": 64, "value": 0}, "group": "control_change"}, {"time": 328, "annotation": {"number": 64, "value": 127}, "group": "control_change"}, {"time": 350, "annotation": {"number": 64, "value": 0}, "group": "control_change"}, {"time": 354, "annotation": {"number": 64, "value": 127}, "group": "control_change"}, {"time": 373, "annotation": {"number": 64, "value": 0}, "group": "control_change"}, {"time": 379, "annotation": {"number": 64, "value": 127}, "group": "control_change"}, {"time": 421, "annotation": {"number": 64, "value": 0}, "group": "control_change"}, {"time": 423, "annotation": {"number": 64, "value": 127}, "group": "control_change"}, {"time": 446, "annotation": {"number": 64, "value": 0}, "group": "control_change"}, {"time": 448, "annotation": {"number": 64, "value": 127}, "group": "control_change"}, {"time": 469, "annotation": {"number": 64, "value": 0}, "group": "control_change"}, {"time": 471, "annotation": {"number": 64, "value": 127}, "group": "control_change"}, {"time": 493, "annotation": {"number": 64, "value": 0}, "group": "control_change"}, {"time": 495, "annotation": {"number": 64, "value": 127}, "group": "control_change"}, {"time": 517, "annotation": {"number": 64, "value": 0}, "group": "control_change"}, {"time": 520, "annotation": {"number": 64, "value": 127}, "group": "control_change"}, {"time": 542, "annotation": {"number": 64, "value": 0}, "group": "control_change"}, {"time": 548, "annotation": {"number": 64, "value": 127}, "group": "control_change"}, {"time": 563, "annotation": {"number": 64, "value": 0}, "group": "control_change"}, {"time": 573, "annotation": {"number": 64, "value": 127}, "group": "control_change"}, {"time": 588, "annotation": {"number": 64, "value": 0}, "group": "control_change"}, {"time": 595, "annotation": {"number": 64, "value": 127}, "group": "control_change"}, {"time": 613, "annotation": {"number": 64, "value": 0}, "group": "control_change"}, {"time": 618, "annotation": {"number": 64, "value": 127}, "group": "control_change"}, {"time": 640, "annotation": {"number": 64, "value": 0}, "group": "control_change"}, {"time": 642, "annotation": {"number": 64, "value": 127}, "group": "control_change"}, {"time": 661, "annotation": {"number": 64, "value": 0}, "group": "control_change"}, {"time": 664, "annotation": {"number": 64, "value": 127}, "group": "control_change"}, {"time": 685, "annotation": {"number": 64, "value": 0}, "group": "control_change"}, {"time": 688, "annotation": {"number": 64, "value": 127}, "group": "control_change"}, {"time": 709, "annotation": {"number": 64, "value": 0}, "group": "control_change"}, {"time": 712, "annotation": {"number": 64, "value": 127}, "group": "control_change"}, {"time": 733, "annotation": {"number": 64, "value": 0}, "group": "control_change"}, {"time": 738, "annotation": {"number": 64, "value": 127}, "group": "control_change"}, {"time": 757, "annotation": {"number": 64, "value": 0}, "group": "control_change"}, {"time": 761, "annotation": {"number": 64, "value": 127}, "group": "control_change"}, {"time": 781, "annotation": {"number": 64, "value": 0}, "group": "control_change"}, {"time": 783, "annotation": {"number": 64, "value": 127}, "group": "control_change"}, {"time": 804, "annotation": {"number": 64, "value": 0}, "group": "control_change"}, {"time": 807, "annotation": {"number": 64, "value": 127}, "group": "control_change"}, {"time": 830, "annotation": {"number": 64, "value": 0}, "group": "control_change"}, {"time": 832, "annotation": {"number": 64, "value": 127}, "group": "control_change"}, {"time": 853, "annotation": {"number": 64, "value": 0}, "group": "control_change"}, {"time": 855, "annotation": {"number": 64, "value": 127}, "group": "control_change"}, {"time": 877, "annotation": {"number": 64, "value": 0}, "group": "control_change"}, {"time": 879, "annotation": {"number": 64, "value": 127}, "group": "control_change"}, {"time": 901, "annotation": {"number": 64, "value": 0}, "group": "control_change"}, {"time": 904, "annotation": {"number": 64, "value": 127}, "group": "control_change"}, {"time": 926, "annotation": {"number": 64, "value": 0}, "group": "control_change"}, {"time": 932, "annotation": {"number": 64, "value": 127}, "group": "control_change"}, {"time": 947, "annotation": {"number": 64, "value": 0}, "group": "control_change"}, {"time": 957, "annotation": {"number": 64, "value": 127}, "group": "control_change"}, {"time": 972, "annotation": {"number": 64, "value": 0}, "group": "control_change"}, {"time": 979, "annotation": {"number": 64, "value": 127}, "group": "control_change"}, {"time": 997, "annotation": {"number": 64, "value": 0}, "group": "control_change"}, {"time": 1002, "annotation": {"number": 64, "value": 127}, "group": "control_change"}, {"time": 1024, "annotation": {"number": 64, "value": 0}, "group": "control_change"}, {"time": 1026, "annotation": {"number": 64, "value": 127}, "group": "control_change"}, {"time": 1045, "annotation": {"number": 64, "value": 0}, "group": "control_change"}, {"time": 1048, "annotation": {"number": 64, "value": 127}, "group": "control_change"}, {"time": 1069, "annotation": {"number": 64, "value": 0}, "group": "control_change"}, {"time": 1072, "annotation": {"number": 64, "value": 127}, "group": "control_change"}, {"time": 1093, "annotation": {"number": 64, "value": 0}, "group": "control_change"}, {"time": 1096, "annotation": {"number": 64, "value": 127}, "group": "control_change"}, {"time": 1117, "annotation": {"number": 64, "value": 0}, "group": "control_change"}, {"time": 1122, "annotation": {"number": 64, "value": 127}, "group": "control_change"}, {"time": 1141, "annotation": {"number": 64, "value": 0}, "group": "control_change"}, {"time": 1142, "annotation": {"number": 64, "value": 127}, "group": "control_change"}, {"time": 1154, "annotation": {"number": 64, "value": 0}, "group": "control_change"}, {"time": 1155, "annotation": {"number": 64, "value": 127}, "group": "control_change"}, {"time": 1165, "annotation": {"number": 64, "value": 0}, "group": "control_change"}, {"time": 1167, "annotation": {"number": 64, "value": 127}, "group": "control_change"}, {"time": 1190, "annotation": {"number": 64, "value": 127}, "group": "control_change"}, {"time": 1213, "annotation": {"number": 64, "value": 0}, "group": "control_change"}, {"time": 1217, "annotation": {"number": 64, "value": 127}, "group": "control_change"}, {"time": 1238, "annotation": {"number": 64, "value": 0}, "group": "control_change"}, {"time": 1240, "annotation": {"number": 64, "value": 127}, "group": "control_change"}, {"time": 1262, "annotation": {"number": 64, "value": 0}, "group": "control_change"}, {"time": 1267, "annotation": {"number": 64, "value": 127}, "group": "control_change"}, {"time": 1286, "annotation": {"number": 64, "value": 0}, "group": "control_change"}, {"time": 1290, "annotation": {"number": 64, "value": 127}, "group": "control_change"}, {"time": 1309, "annotation": {"number": 64, "value": 0}, "group": "control_change"}, {"time": 1314, "annotation": {"number": 64, "value": 127}, "group": "control_change"}, {"time": 1334, "annotation": {"number": 64, "value": 0}, "group": "control_change"}, {"time": 1338, "annotation": {"number": 64, "value": 127}, "group": "control_change"}, {"time": 1358, "annotation": {"number": 64, "value": 0}, "group": "control_change"}, {"time": 1362, "annotation": {"number": 64, "value": 127}, "group": "control_change"}, {"time": 1380, "annotation": {"number": 64, "value": 0}, "group": "control_change"}, {"time": 1382, "annotation": {"number": 64, "value": 127}, "group": "control_change"}, {"time": 1405, "annotation": {"number": 64, "value": 0}, "group": "control_change"}, {"time": 1409, "annotation": {"number": 64, "value": 127}, "group": "control_change"}, {"time": 1430, "annotation": {"number": 64, "value": 0}, "group": "control_change"}, {"time": 1432, "annotation": {"number": 64, "value": 127}, "group": "control_change"}, {"time": 1454, "annotation": {"number": 64, "value": 0}, "group": "control_change"}, {"time": 1459, "annotation": {"number": 64, "value": 127}, "group": "control_change"}, {"time": 1478, "annotation": {"number": 64, "value": 0}, "group": "control_change"}, {"time": 1482, "annotation": {"number": 64, "value": 127}, "group": "control_change"}, {"time": 1501, "annotation": {"number": 64, "value": 0}, "group": "control_change"}, {"time": 1506, "annotation": {"number": 64, "value": 127}, "group": "control_change"}, {"time": 1526, "annotation": {"number": 64, "value": 0}, "group": "control_change"}, {"time": 1530, "annotation": {"number": 64, "value": 127}, "group": "control_change"}, {"time": 1550, "annotation": {"number": 64, "value": 0}, "group": "control_change"}, {"time": 1554, "annotation": {"number": 64, "value": 127}, "group": "control_change"}, {"time": 1572, "annotation": {"number": 64, "value": 0}, "group": "control_change"}, {"time": 1574, "annotation": {"number": 64, "value": 127}, "group": "control_change"}, {"time": 1597, "annotation": {"number": 64, "value": 0}, "group": "control_change"}, {"time": 1599, "annotation": {"number": 64, "value": 127}, "group": "control_change"}, {"time": 1622, "annotation": {"number": 64, "value": 0}, "group": "control_change"}, {"time": 1628, "annotation": {"number": 64, "value": 127}, "group": "control_change"}, {"time": 1644, "annotation": {"number": 64, "value": 0}, "group": "control_change"}, {"time": 1650, "annotation": {"number": 64, "value": 127}, "group": "control_change"}, {"time": 1693, "annotation": {"number": 64, "value": 0}, "group": "control_change"}, {"time": 1697, "annotation": {"number": 64, "value": 127}, "group": "control_change"}, {"time": 1734, "annotation": {"number": 64, "value": 127}, "group": "control_change"}, {"time": 1742, "annotation": {"number": 64, "value": 0}, "group": "control_change"}, {"time": 1748, "annotation": {"number": 64, "value": 127}, "group": "control_change"}, {"time": 1766, "annotation": {"number": 64, "value": 0}, "group": "control_change"}, {"time": 1768, "annotation": {"number": 64, "value": 127}, "group": "control_change"}, {"time": 1789, "annotation": {"number": 64, "value": 0}, "group": "control_change"}, {"time": 1790, "annotation": {"number": 64, "value": 127}, "group": "control_change"}, {"time": 1814, "annotation": {"number": 64, "value": 0}, "group": "control_change"}, {"time": 1815, "annotation": {"number": 64, "value": 127}, "group": "control_change"}, {"time": 1837, "annotation": {"number": 64, "value": 0}, "group": "control_change"}, {"time": 1839, "annotation": {"number": 64, "value": 127}, "group": "control_change"}, {"time": 1862, "annotation": {"number": 64, "value": 0}, "group": "control_change"}, {"time": 1864, "annotation": {"number": 64, "value": 127}, "group": "control_change"}, {"time": 1885, "annotation": {"number": 64, "value": 0}, "group": "control_change"}, {"time": 1887, "annotation": {"number": 64, "value": 127}, "group": "control_change"}, {"time": 1909, "annotation": {"number": 64, "value": 0}, "group": "control_change"}, {"time": 1911, "annotation": {"number": 64, "value": 127}, "group": "control_change"}, {"time": 1933, "annotation": {"number": 64, "value": 0}, "group": "control_change"}, {"time": 1936, "annotation": {"number": 64, "value": 127}, "group": "control_change"}, {"time": 1958, "annotation": {"number": 64, "value": 0}, "group": "control_change"}, {"time": 1964, "annotation": {"number": 64, "value": 127}, "group": "control_change"}, {"time": 1979, "annotation": {"number": 64, "value": 0}, "group": "control_change"}, {"time": 1989, "annotation": {"number": 64, "value": 127}, "group": "control_change"}, {"time": 2004, "annotation": {"number": 64, "value": 0}, "group": "control_change"}, {"time": 2011, "annotation": {"number": 64, "value": 127}, "group": "control_change"}, {"time": 2029, "annotation": {"number": 64, "value": 0}, "group": "control_change"}, {"time": 2034, "annotation": {"number": 64, "value": 127}, "group": "control_change"}, {"time": 2056, "annotation": {"number": 64, "value": 0}, "group": "control_change"}, {"time": 2058, "annotation": {"number": 64, "value": 127}, "group": "control_change"}, {"time": 2077, "annotation": {"number": 64, "value": 0}, "group": "control_change"}, {"time": 2080, "annotation": {"number": 64, "value": 127}, "group": "control_change"}, {"time": 2101, "annotation": {"number": 64, "value": 0}, "group": "control_change"}, {"time": 2104, "annotation": {"number": 64, "value": 127}, "group": "control_change"}, {"time": 2125, "annotation": {"number": 64, "value": 0}, "group": "control_change"}, {"time": 2128, "annotation": {"number": 64, "value": 127}, "group": "control_change"}, {"time": 2149, "annotation": {"number": 64, "value": 0}, "group": "control_change"}, {"time": 2154, "annotation": {"number": 64, "value": 127}, "group": "control_change"}, {"time": 2173, "annotation": {"number": 64, "value": 0}, "group": "control_change"}, {"time": 2174, "annotation": {"number": 64, "value": 127}, "group": "control_change"}, {"time": 2186, "annotation": {"number": 64, "value": 0}, "group": "control_change"}, {"time": 2187, "annotation": {"number": 64, "value": 127}, "group": "control_change"}, {"time": 2197, "annotation": {"number": 64, "value": 0}, "group": "control_change"}, {"time": 2199, "annotation": {"number": 64, "value": 127}, "group": "control_change"}, {"time": 2222, "annotation": {"number": 64, "value": 127}, "group": "control_change"}, {"time": 2245, "annotation": {"number": 64, "value": 0}, "group": "control_change"}, {"time": 2249, "annotation": {"number": 64, "value": 127}, "group": "control_change"}, {"time": 2270, "annotation": {"number": 64, "value": 0}, "group": "control_change"}, {"time": 2272, "annotation": {"number": 64, "value": 127}, "group": "control_change"}, {"time": 2294, "annotation": {"number": 64, "value": 0}, "group": "control_change"}, {"time": 2299, "annotation": {"number": 64, "value": 127}, "group": "control_change"}, {"time": 2318, "annotation": {"number": 64, "value": 0}, "group": "control_change"}, {"time": 2322, "annotation": {"number": 64, "value": 127}, "group": "control_change"}, {"time": 2341, "annotation": {"number": 64, "value": 0}, "group": "control_change"}, {"time": 2346, "annotation": {"number": 64, "value": 127}, "group": "control_change"}, {"time": 2366, "annotation": {"number": 64, "value": 0}, "group": "control_change"}, {"time": 2370, "annotation": {"number": 64, "value": 127}, "group": "control_change"}, {"time": 2390, "annotation": {"number": 64, "value": 0}, "group": "control_change"}, {"time": 2394, "annotation": {"number": 64, "value": 127}, "group": "control_change"}, {"time": 2412, "annotation": {"number": 64, "value": 0}, "group": "control_change"}, {"time": 2414, "annotation": {"number": 64, "value": 127}, "group": "control_change"}, {"time": 2437, "annotation": {"number": 64, "value": 0}, "group": "control_change"}, {"time": 2441, "annotation": {"number": 64, "value": 127}, "group": "control_change"}, {"time": 2462, "annotation": {"number": 64, "value": 0}, "group": "control_change"}, {"time": 2464, "annotation": {"number": 64, "value": 127}, "group": "control_change"}, {"time": 2486, "annotation": {"number": 64, "value": 0}, "group": "control_change"}, {"time": 2491, "annotation": {"number": 64, "value": 127}, "group": "control_change"}, {"time": 2510, "annotation": {"number": 64, "value": 0}, "group": "control_change"}, {"time": 2514, "annotation": {"number": 64, "value": 127}, "group": "control_change"}, {"time": 2533, "annotation": {"number": 64, "value": 0}, "group": "control_change"}, {"time": 2538, "annotation": {"number": 64, "value": 127}, "group": "control_change"}, {"time": 2558, "annotation": {"number": 64, "value": 0}, "group": "control_change"}, {"time": 2562, "annotation": {"number": 64, "value": 127}, "group": "control_change"}, {"time": 2582, "annotation": {"number": 64, "value": 0}, "group": "control_change"}, {"time": 2586, "annotation": {"number": 64, "value": 127}, "group": "control_change"}, {"time": 2604, "annotation": {"number": 64, "value": 0}, "group": "control_change"}, {"time": 2606, "annotation": {"number": 64, "value": 127}, "group": "control_change"}, {"time": 2629, "annotation": {"number": 64, "value": 0}, "group": "control_change"}, {"time": 2631, "annotation": {"number": 64, "value": 127}, "group": "control_change"}, {"time": 2648, "annotation": {"number": 64, "value": 127}, "group": "control_change"}, {"time": 2653, "annotation": {"number": 64, "value": 0}, "group": "control_change"}, {"time": 2654, "annotation": {"number": 64, "value": 0}, "group": "control_change"}, {"time": 2655, "annotation": {"number": 64, "value": 127}, "group": "control_change"}, {"time": 2672, "annotation": {"number": 64, "value": 127}, "group": "control_change"}, {"time": 2676, "annotation": {"number": 64, "value": 0}, "group": "control_change"}, {"time": 2678, "annotation": {"number": 64, "value": 127}, "group": "control_change"}, {"time": 2701, "annotation": {"number": 64, "value": 0}, "group": "control_change"}, {"time": 2702, "annotation": {"number": 64, "value": 0}, "group": "control_change"}, {"time": 2702, "annotation": {"number": 64, "value": 127}, "group": "control_change"}, {"time": 2703, "annotation": {"number": 64, "value": 127}, "group": "control_change"}, {"time": 2727, "annotation": {"number": 64, "value": 0}, "group": "control_change"}, {"time": 2729, "annotation": {"number": 64, "value": 127}, "group": "control_change"}, {"time": 2749, "annotation": {"number": 64, "value": 0}, "group": "control_change"}, {"time": 2751, "annotation": {"number": 64, "value": 127}, "group": "control_change"}, {"time": 2774, "annotation": {"number": 64, "value": 0}, "group": "control_change"}, {"time": 2776, "annotation": {"number": 64, "value": 127}, "group": "control_change"}, {"time": 2797, "annotation": {"number": 64, "value": 0}, "group": "control_change"}, {"time": 2799, "annotation": {"number": 64, "value": 127}, "group": "control_change"}, {"time": 2820, "annotation": {"number": 64, "value": 0}, "group": "control_change"}, {"time": 2822, "annotation": {"number": 64, "value": 127}, "group": "control_change"}, {"time": 2845, "annotation": {"number": 64, "value": 0}, "group": "control_change"}, {"time": 2846, "annotation": {"number": 64, "value": 127}, "group": "control_change"}, {"time": 2868, "annotation": {"number": 64, "value": 0}, "group": "control_change"}, {"time": 2870, "annotation": {"number": 64, "value": 127}, "group": "control_change"}, {"time": 2906, "annotation": {"number": 64, "value": 0}, "group": "control_change"}, {"time": 2908, "annotation": {"number": 64, "value": 127}, "group": "control_change"}, {"time": 2916, "annotation": {"number": 64, "value": 0}, "group": "control_change"}, {"time": 2921, "annotation": {"number": 64, "value": 127}, "group": "control_change"}, {"time": 2942, "annotation": {"number": 64, "value": 0}, "group": "control_change"}, {"time": 2944, "annotation": {"number": 64, "value": 127}, "group": "control_change"}, {"time": 2966, "annotation": {"number": 64, "value": 0}, "group": "control_change"}, {"time": 2971, "annotation": {"number": 64, "value": 127}, "group": "control_change"}, {"time": 2990, "annotation": {"number": 64, "value": 0}, "group": "control_change"}, {"time": 2994, "annotation": {"number": 64, "value": 127}, "group": "control_change"}, {"time": 3013, "annotation": {"number": 64, "value": 0}, "group": "control_change"}, {"time": 3018, "annotation": {"number": 64, "value": 127}, "group": "control_change"}, {"time": 3038, "annotation": {"number": 64, "value": 0}, "group": "control_change"}, {"time": 3042, "annotation": {"number": 64, "value": 127}, "group": "control_change"}, {"time": 3062, "annotation": {"number": 64, "value": 0}, "group": "control_change"}, {"time": 3066, "annotation": {"number": 64, "value": 127}, "group": "control_change"}, {"time": 3084, "annotation": {"number": 64, "value": 0}, "group": "control_change"}, {"time": 3086, "annotation": {"number": 64, "value": 127}, "group": "control_change"}, {"time": 3109, "annotation": {"number": 64, "value": 0}, "group": "control_change"}, {"time": 3113, "annotation": {"number": 64, "value": 127}, "group": "control_change"}, {"time": 3134, "annotation": {"number": 64, "value": 0}, "group": "control_change"}, {"time": 3136, "annotation": {"number": 64, "value": 127}, "group": "control_change"}, {"time": 3158, "annotation": {"number": 64, "value": 0}, "group": "control_change"}, {"time": 3163, "annotation": {"number": 64, "value": 127}, "group": "control_change"}, {"time": 3182, "annotation": {"number": 64, "value": 0}, "group": "control_change"}, {"time": 3186, "annotation": {"number": 64, "value": 127}, "group": "control_change"}, {"time": 3205, "annotation": {"number": 64, "value": 0}, "group": "control_change"}, {"time": 3210, "annotation": {"number": 64, "value": 127}, "group": "control_change"}, {"time": 3230, "annotation": {"number": 64, "value": 0}, "group": "control_change"}, {"time": 3234, "annotation": {"number": 64, "value": 127}, "group": "control_change"}, {"time": 3254, "annotation": {"number": 64, "value": 0}, "group": "control_change"}, {"time": 3258, "annotation": {"number": 64, "value": 127}, "group": "control_change"}, {"time": 3276, "annotation": {"number": 64, "value": 0}, "group": "control_change"}, {"time": 3278, "annotation": {"number": 64, "value": 127}, "group": "control_change"}, {"time": 3301, "annotation": {"number": 64, "value": 0}, "group": "control_change"}, {"time": 3303, "annotation": {"number": 64, "value": 127}, "group": "control_change"}, {"time": 3320, "annotation": {"number": 64, "value": 127}, "group": "control_change"}, {"time": 3325, "annotation": {"number": 64, "value": 0}, "group": "control_change"}, {"time": 3326, "annotation": {"number": 64, "value": 0}, "group": "control_change"}, {"time": 3327, "annotation": {"number": 64, "value": 127}, "group": "control_change"}, {"time": 3352, "annotation": {"number": 64, "value": 127}, "group": "control_change"}, {"time": 3380, "annotation": {"number": 64, "value": 0}, "group": "control_change"}, {"time": 3385, "annotation": {"number": 64, "value": 127}, "group": "control_change"}, {"time": 3472, "annotation": {"number": 64, "value": 127}, "group": "control_change"}, {"time": 3517, "annotation": {"number": 64, "value": 0}, "group": "control_change"}, {"time": 3528, "annotation": {"number": 64, "value": 127}, "group": "control_change"}, {"time": 3565, "annotation": {"number": 64, "value": 0}, "group": "control_change"}, {"time": 3568, "annotation": {"number": 64, "value": 127}, "group": "control_change"}, {"time": 3613, "annotation": {"number": 64, "value": 0}, "group": "control_change"}, {"time": 3615, "annotation": {"number": 64, "value": 127}, "group": "control_change"}, {"time": 3662, "annotation": {"number": 64, "value": 0}, "group": "control_change"}, {"time": 3662, "annotation": {"number": 64, "value": 127}, "group": "control_change"}, {"time": 3716, "annotation": {"number": 64, "value": 0}, "group": "control_change"}]}]}