{"metadata": {"schema_version": "0.2", "title": "None", "source_filename": "416.mid", "source_format": "midi"}, "resolution": 12, "tempos": [{"time": 0, "qpm": 72.50001812500453}, {"time": 216, "qpm": 72.25007194902999}, {"time": 1008, "qpm": 72.50001812500453}, {"time": 1344, "qpm": 72.25007194902999}, {"time": 2196, "qpm": 72.50001812500453}, {"time": 2496, "qpm": 72.25007194902999}], "time_signatures": [{"time": 0, "numerator": 1, "denominator": 4}], "tracks": [{"program": 0, "is_drum": false, "name": "MELODY", "notes": [{"time": 214, "pitch": 70, "duration": 2, "velocity": 93}, {"time": 217, "pitch": 72, "duration": 5, "velocity": 87}, {"time": 223, "pitch": 70, "duration": 5, "velocity": 92}, {"time": 229, "pitch": 77, "duration": 25, "velocity": 93}, {"time": 262, "pitch": 70, "duration": 3, "velocity": 90}, {"time": 265, "pitch": 79, "duration": 2, "velocity": 95}, {"time": 268, "pitch": 82, "duration": 3, "velocity": 87}, {"time": 271, "pitch": 79, "duration": 5, "velocity": 87}, {"time": 277, "pitch": 79, "duration": 15, "velocity": 87}, {"time": 310, "pitch": 79, "duration": 3, "velocity": 92}, {"time": 313, "pitch": 77, "duration": 6, "velocity": 92}, {"time": 319, "pitch": 75, "duration": 5, "velocity": 100}, {"time": 325, "pitch": 77, "duration": 31, "velocity": 93}, {"time": 358, "pitch": 77, "duration": 3, "velocity": 90}, {"time": 361, "pitch": 75, "duration": 5, "velocity": 103}, {"time": 367, "pitch": 72, "duration": 5, "velocity": 93}, {"time": 373, "pitch": 70, "duration": 30, "velocity": 97}, {"time": 406, "pitch": 70, "duration": 2, "velocity": 88}, {"time": 409, "pitch": 72, "duration": 5, "velocity": 90}, {"time": 415, "pitch": 70, "duration": 5, "velocity": 93}, {"time": 421, "pitch": 82, "duration": 15, "velocity": 93}, {"time": 439, "pitch": 79, "duration": 5, "velocity": 89}, {"time": 445, "pitch": 84, "duration": 15, "velocity": 93}, {"time": 463, "pitch": 84, "duration": 5, "velocity": 88}, {"time": 469, "pitch": 79, "duration": 5, "velocity": 88}, {"time": 475, "pitch": 79, "duration": 5, "velocity": 93}, {"time": 481, "pitch": 79, "duration": 2, "velocity": 93}, {"time": 484, "pitch": 77, "duration": 4, "velocity": 91}, {"time": 490, "pitch": 75, "duration": 3, "velocity": 88}, {"time": 493, "pitch": 72, "duration": 15, "velocity": 93}, {"time": 511, "pitch": 75, "duration": 3, "velocity": 100}, {"time": 514, "pitch": 77, "duration": 2, "velocity": 87}, {"time": 517, "pitch": 77, "duration": 4, "velocity": 89}, {"time": 523, "pitch": 77, "duration": 3, "velocity": 91}, {"time": 526, "pitch": 75, "duration": 2, "velocity": 100}, {"time": 529, "pitch": 72, "duration": 4, "velocity": 88}, {"time": 535, "pitch": 75, "duration": 2, "velocity": 91}, {"time": 538, "pitch": 77, "duration": 2, "velocity": 85}, {"time": 541, "pitch": 77, "duration": 5, "velocity": 87}, {"time": 547, "pitch": 77, "duration": 2, "velocity": 87}, {"time": 550, "pitch": 75, "duration": 2, "velocity": 91}, {"time": 553, "pitch": 72, "duration": 5, "velocity": 88}, {"time": 559, "pitch": 75, "duration": 3, "velocity": 85}, {"time": 562, "pitch": 72, "duration": 2, "velocity": 87}, {"time": 565, "pitch": 68, "duration": 4, "velocity": 87}, {"time": 571, "pitch": 68, "duration": 4, "velocity": 87}, {"time": 577, "pitch": 68, "duration": 2, "velocity": 88}, {"time": 580, "pitch": 70, "duration": 2, "velocity": 80}, {"time": 583, "pitch": 72, "duration": 5, "velocity": 86}, {"time": 589, "pitch": 70, "duration": 7, "velocity": 86}, {"time": 598, "pitch": 70, "duration": 2, "velocity": 93}, {"time": 601, "pitch": 72, "duration": 5, "velocity": 87}, {"time": 607, "pitch": 70, "duration": 5, "velocity": 92}, {"time": 613, "pitch": 77, "duration": 25, "velocity": 93}, {"time": 646, "pitch": 70, "duration": 3, "velocity": 90}, {"time": 649, "pitch": 79, "duration": 2, "velocity": 95}, {"time": 652, "pitch": 82, "duration": 3, "velocity": 87}, {"time": 655, "pitch": 79, "duration": 5, "velocity": 87}, {"time": 661, "pitch": 79, "duration": 15, "velocity": 87}, {"time": 694, "pitch": 79, "duration": 3, "velocity": 92}, {"time": 697, "pitch": 77, "duration": 6, "velocity": 92}, {"time": 703, "pitch": 75, "duration": 5, "velocity": 100}, {"time": 709, "pitch": 77, "duration": 31, "velocity": 93}, {"time": 742, "pitch": 77, "duration": 3, "velocity": 90}, {"time": 745, "pitch": 75, "duration": 5, "velocity": 103}, {"time": 751, "pitch": 72, "duration": 5, "velocity": 93}, {"time": 757, "pitch": 70, "duration": 30, "velocity": 97}, {"time": 790, "pitch": 70, "duration": 2, "velocity": 88}, {"time": 793, "pitch": 72, "duration": 5, "velocity": 90}, {"time": 799, "pitch": 70, "duration": 5, "velocity": 93}, {"time": 805, "pitch": 82, "duration": 15, "velocity": 93}, {"time": 823, "pitch": 79, "duration": 5, "velocity": 89}, {"time": 829, "pitch": 84, "duration": 15, "velocity": 93}, {"time": 847, "pitch": 84, "duration": 5, "velocity": 88}, {"time": 853, "pitch": 79, "duration": 5, "velocity": 88}, {"time": 859, "pitch": 79, "duration": 5, "velocity": 93}, {"time": 865, "pitch": 79, "duration": 2, "velocity": 93}, {"time": 868, "pitch": 77, "duration": 4, "velocity": 91}, {"time": 874, "pitch": 75, "duration": 3, "velocity": 88}, {"time": 877, "pitch": 72, "duration": 15, "velocity": 93}, {"time": 895, "pitch": 75, "duration": 3, "velocity": 100}, {"time": 898, "pitch": 77, "duration": 2, "velocity": 87}, {"time": 901, "pitch": 77, "duration": 4, "velocity": 89}, {"time": 907, "pitch": 77, "duration": 3, "velocity": 91}, {"time": 910, "pitch": 75, "duration": 2, "velocity": 100}, {"time": 913, "pitch": 72, "duration": 4, "velocity": 88}, {"time": 919, "pitch": 75, "duration": 2, "velocity": 91}, {"time": 922, "pitch": 77, "duration": 2, "velocity": 85}, {"time": 925, "pitch": 77, "duration": 5, "velocity": 87}, {"time": 931, "pitch": 77, "duration": 2, "velocity": 87}, {"time": 934, "pitch": 75, "duration": 2, "velocity": 91}, {"time": 937, "pitch": 72, "duration": 5, "velocity": 88}, {"time": 943, "pitch": 75, "duration": 3, "velocity": 85}, {"time": 946, "pitch": 72, "duration": 2, "velocity": 87}, {"time": 949, "pitch": 68, "duration": 4, "velocity": 87}, {"time": 955, "pitch": 68, "duration": 4, "velocity": 87}, {"time": 961, "pitch": 68, "duration": 2, "velocity": 88}, {"time": 964, "pitch": 70, "duration": 2, "velocity": 80}, {"time": 967, "pitch": 72, "duration": 5, "velocity": 86}, {"time": 973, "pitch": 70, "duration": 12, "velocity": 86}, {"time": 985, "pitch": 82, "duration": 5, "velocity": 93}, {"time": 991, "pitch": 84, "duration": 2, "velocity": 95}, {"time": 994, "pitch": 82, "duration": 2, "velocity": 89}, {"time": 997, "pitch": 82, "duration": 31, "velocity": 88}, {"time": 1033, "pitch": 82, "duration": 5, "velocity": 90}, {"time": 1039, "pitch": 84, "duration": 3, "velocity": 91}, {"time": 1042, "pitch": 82, "duration": 2, "velocity": 87}, {"time": 1045, "pitch": 77, "duration": 28, "velocity": 93}, {"time": 1081, "pitch": 82, "duration": 5, "velocity": 87}, {"time": 1087, "pitch": 84, "duration": 2, "velocity": 89}, {"time": 1090, "pitch": 82, "duration": 2, "velocity": 88}, {"time": 1093, "pitch": 75, "duration": 13, "velocity": 95}, {"time": 1111, "pitch": 70, "duration": 2, "velocity": 87}, {"time": 1114, "pitch": 70, "duration": 2, "velocity": 87}, {"time": 1117, "pitch": 72, "duration": 6, "velocity": 92}, {"time": 1123, "pitch": 72, "duration": 4, "velocity": 93}, {"time": 1135, "pitch": 72, "duration": 2, "velocity": 91}, {"time": 1138, "pitch": 75, "duration": 2, "velocity": 89}, {"time": 1141, "pitch": 77, "duration": 28, "velocity": 81}, {"time": 1177, "pitch": 82, "duration": 5, "velocity": 86}, {"time": 1183, "pitch": 84, "duration": 3, "velocity": 87}, {"time": 1186, "pitch": 82, "duration": 2, "velocity": 87}, {"time": 1189, "pitch": 82, "duration": 34, "velocity": 85}, {"time": 1225, "pitch": 82, "duration": 5, "velocity": 88}, {"time": 1231, "pitch": 84, "duration": 2, "velocity": 88}, {"time": 1234, "pitch": 82, "duration": 2, "velocity": 92}, {"time": 1237, "pitch": 77, "duration": 25, "velocity": 90}, {"time": 1273, "pitch": 82, "duration": 4, "velocity": 90}, {"time": 1279, "pitch": 84, "duration": 3, "velocity": 90}, {"time": 1282, "pitch": 82, "duration": 2, "velocity": 88}, {"time": 1285, "pitch": 75, "duration": 15, "velocity": 97}, {"time": 1303, "pitch": 70, "duration": 2, "velocity": 87}, {"time": 1306, "pitch": 70, "duration": 2, "velocity": 87}, {"time": 1309, "pitch": 72, "duration": 5, "velocity": 90}, {"time": 1315, "pitch": 72, "duration": 5, "velocity": 97}, {"time": 1327, "pitch": 72, "duration": 2, "velocity": 90}, {"time": 1330, "pitch": 75, "duration": 2, "velocity": 88}, {"time": 1333, "pitch": 75, "duration": 35, "velocity": 95}, {"time": 1558, "pitch": 70, "duration": 2, "velocity": 93}, {"time": 1561, "pitch": 72, "duration": 5, "velocity": 87}, {"time": 1567, "pitch": 70, "duration": 5, "velocity": 92}, {"time": 1573, "pitch": 77, "duration": 25, "velocity": 93}, {"time": 1606, "pitch": 70, "duration": 3, "velocity": 90}, {"time": 1609, "pitch": 79, "duration": 2, "velocity": 95}, {"time": 1612, "pitch": 82, "duration": 3, "velocity": 87}, {"time": 1615, "pitch": 79, "duration": 5, "velocity": 87}, {"time": 1621, "pitch": 79, "duration": 15, "velocity": 87}, {"time": 1654, "pitch": 79, "duration": 3, "velocity": 92}, {"time": 1657, "pitch": 77, "duration": 6, "velocity": 92}, {"time": 1663, "pitch": 75, "duration": 5, "velocity": 100}, {"time": 1669, "pitch": 77, "duration": 31, "velocity": 93}, {"time": 1702, "pitch": 77, "duration": 3, "velocity": 90}, {"time": 1705, "pitch": 75, "duration": 5, "velocity": 103}, {"time": 1711, "pitch": 72, "duration": 5, "velocity": 93}, {"time": 1717, "pitch": 70, "duration": 30, "velocity": 97}, {"time": 1750, "pitch": 70, "duration": 2, "velocity": 88}, {"time": 1753, "pitch": 72, "duration": 5, "velocity": 90}, {"time": 1759, "pitch": 70, "duration": 5, "velocity": 93}, {"time": 1765, "pitch": 82, "duration": 15, "velocity": 93}, {"time": 1783, "pitch": 79, "duration": 5, "velocity": 89}, {"time": 1789, "pitch": 84, "duration": 15, "velocity": 93}, {"time": 1807, "pitch": 84, "duration": 5, "velocity": 88}, {"time": 1813, "pitch": 79, "duration": 5, "velocity": 88}, {"time": 1819, "pitch": 79, "duration": 5, "velocity": 93}, {"time": 1825, "pitch": 79, "duration": 2, "velocity": 93}, {"time": 1828, "pitch": 77, "duration": 4, "velocity": 91}, {"time": 1834, "pitch": 75, "duration": 3, "velocity": 88}, {"time": 1837, "pitch": 72, "duration": 15, "velocity": 93}, {"time": 1855, "pitch": 75, "duration": 3, "velocity": 100}, {"time": 1858, "pitch": 77, "duration": 2, "velocity": 87}, {"time": 1861, "pitch": 77, "duration": 4, "velocity": 89}, {"time": 1867, "pitch": 77, "duration": 3, "velocity": 91}, {"time": 1870, "pitch": 75, "duration": 2, "velocity": 100}, {"time": 1873, "pitch": 72, "duration": 4, "velocity": 88}, {"time": 1879, "pitch": 75, "duration": 2, "velocity": 91}, {"time": 1882, "pitch": 77, "duration": 2, "velocity": 85}, {"time": 1885, "pitch": 77, "duration": 5, "velocity": 87}, {"time": 1891, "pitch": 77, "duration": 2, "velocity": 87}, {"time": 1894, "pitch": 75, "duration": 2, "velocity": 91}, {"time": 1897, "pitch": 72, "duration": 5, "velocity": 88}, {"time": 1903, "pitch": 75, "duration": 3, "velocity": 85}, {"time": 1906, "pitch": 72, "duration": 2, "velocity": 87}, {"time": 1909, "pitch": 68, "duration": 4, "velocity": 87}, {"time": 1915, "pitch": 68, "duration": 4, "velocity": 87}, {"time": 1921, "pitch": 68, "duration": 2, "velocity": 88}, {"time": 1924, "pitch": 70, "duration": 2, "velocity": 80}, {"time": 1927, "pitch": 72, "duration": 5, "velocity": 86}, {"time": 1933, "pitch": 70, "duration": 7, "velocity": 86}, {"time": 1945, "pitch": 82, "duration": 5, "velocity": 93}, {"time": 1951, "pitch": 84, "duration": 2, "velocity": 95}, {"time": 1954, "pitch": 82, "duration": 2, "velocity": 89}, {"time": 1957, "pitch": 82, "duration": 31, "velocity": 88}, {"time": 1993, "pitch": 82, "duration": 5, "velocity": 90}, {"time": 1999, "pitch": 84, "duration": 3, "velocity": 91}, {"time": 2002, "pitch": 82, "duration": 2, "velocity": 87}, {"time": 2005, "pitch": 77, "duration": 28, "velocity": 93}, {"time": 2041, "pitch": 82, "duration": 5, "velocity": 87}, {"time": 2047, "pitch": 84, "duration": 2, "velocity": 89}, {"time": 2050, "pitch": 82, "duration": 2, "velocity": 88}, {"time": 2053, "pitch": 75, "duration": 13, "velocity": 95}, {"time": 2071, "pitch": 70, "duration": 2, "velocity": 87}, {"time": 2074, "pitch": 70, "duration": 2, "velocity": 87}, {"time": 2077, "pitch": 72, "duration": 6, "velocity": 92}, {"time": 2083, "pitch": 72, "duration": 4, "velocity": 93}, {"time": 2095, "pitch": 72, "duration": 2, "velocity": 91}, {"time": 2098, "pitch": 75, "duration": 2, "velocity": 89}, {"time": 2101, "pitch": 77, "duration": 28, "velocity": 81}, {"time": 2137, "pitch": 82, "duration": 5, "velocity": 86}, {"time": 2143, "pitch": 84, "duration": 3, "velocity": 87}, {"time": 2146, "pitch": 82, "duration": 2, "velocity": 87}, {"time": 2149, "pitch": 82, "duration": 34, "velocity": 85}, {"time": 2185, "pitch": 82, "duration": 5, "velocity": 88}, {"time": 2191, "pitch": 84, "duration": 2, "velocity": 88}, {"time": 2194, "pitch": 82, "duration": 2, "velocity": 92}, {"time": 2197, "pitch": 77, "duration": 25, "velocity": 90}, {"time": 2233, "pitch": 82, "duration": 4, "velocity": 90}, {"time": 2239, "pitch": 84, "duration": 3, "velocity": 90}, {"time": 2242, "pitch": 82, "duration": 2, "velocity": 88}, {"time": 2245, "pitch": 75, "duration": 15, "velocity": 97}, {"time": 2263, "pitch": 70, "duration": 2, "velocity": 87}, {"time": 2266, "pitch": 70, "duration": 2, "velocity": 87}, {"time": 2269, "pitch": 72, "duration": 5, "velocity": 90}, {"time": 2275, "pitch": 72, "duration": 5, "velocity": 97}, {"time": 2287, "pitch": 72, "duration": 2, "velocity": 90}, {"time": 2290, "pitch": 75, "duration": 2, "velocity": 88}, {"time": 2293, "pitch": 75, "duration": 35, "velocity": 95}, {"time": 2761, "pitch": 82, "duration": 5, "velocity": 93}, {"time": 2767, "pitch": 84, "duration": 2, "velocity": 95}, {"time": 2770, "pitch": 82, "duration": 2, "velocity": 89}, {"time": 2773, "pitch": 82, "duration": 31, "velocity": 88}, {"time": 2809, "pitch": 82, "duration": 5, "velocity": 90}, {"time": 2815, "pitch": 84, "duration": 3, "velocity": 91}, {"time": 2818, "pitch": 82, "duration": 2, "velocity": 87}, {"time": 2821, "pitch": 77, "duration": 28, "velocity": 93}, {"time": 2857, "pitch": 82, "duration": 5, "velocity": 87}, {"time": 2863, "pitch": 84, "duration": 2, "velocity": 89}, {"time": 2866, "pitch": 82, "duration": 2, "velocity": 88}, {"time": 2869, "pitch": 75, "duration": 13, "velocity": 95}, {"time": 2887, "pitch": 70, "duration": 2, "velocity": 87}, {"time": 2890, "pitch": 70, "duration": 2, "velocity": 87}, {"time": 2893, "pitch": 72, "duration": 6, "velocity": 92}, {"time": 2899, "pitch": 72, "duration": 4, "velocity": 93}, {"time": 2911, "pitch": 72, "duration": 2, "velocity": 91}, {"time": 2914, "pitch": 75, "duration": 2, "velocity": 89}, {"time": 2917, "pitch": 77, "duration": 28, "velocity": 81}, {"time": 2953, "pitch": 82, "duration": 5, "velocity": 86}, {"time": 2959, "pitch": 84, "duration": 3, "velocity": 87}, {"time": 2962, "pitch": 82, "duration": 2, "velocity": 87}, {"time": 2965, "pitch": 82, "duration": 34, "velocity": 85}, {"time": 3001, "pitch": 82, "duration": 5, "velocity": 88}, {"time": 3007, "pitch": 84, "duration": 2, "velocity": 88}, {"time": 3010, "pitch": 82, "duration": 2, "velocity": 92}, {"time": 3013, "pitch": 77, "duration": 25, "velocity": 90}, {"time": 3049, "pitch": 82, "duration": 4, "velocity": 90}, {"time": 3055, "pitch": 84, "duration": 3, "velocity": 90}, {"time": 3058, "pitch": 82, "duration": 2, "velocity": 88}, {"time": 3061, "pitch": 75, "duration": 15, "velocity": 97}, {"time": 3079, "pitch": 70, "duration": 2, "velocity": 87}, {"time": 3082, "pitch": 70, "duration": 2, "velocity": 87}, {"time": 3085, "pitch": 72, "duration": 5, "velocity": 90}, {"time": 3091, "pitch": 72, "duration": 5, "velocity": 97}, {"time": 3103, "pitch": 72, "duration": 2, "velocity": 90}, {"time": 3106, "pitch": 75, "duration": 2, "velocity": 88}, {"time": 3109, "pitch": 82, "duration": 35, "velocity": 95}, {"time": 3145, "pitch": 82, "duration": 5, "velocity": 93}, {"time": 3151, "pitch": 84, "duration": 2, "velocity": 95}, {"time": 3154, "pitch": 82, "duration": 2, "velocity": 89}, {"time": 3157, "pitch": 82, "duration": 31, "velocity": 88}, {"time": 3193, "pitch": 82, "duration": 5, "velocity": 90}, {"time": 3199, "pitch": 84, "duration": 3, "velocity": 91}, {"time": 3202, "pitch": 82, "duration": 2, "velocity": 87}, {"time": 3205, "pitch": 77, "duration": 28, "velocity": 93}, {"time": 3241, "pitch": 82, "duration": 5, "velocity": 87}, {"time": 3247, "pitch": 84, "duration": 2, "velocity": 89}, {"time": 3250, "pitch": 82, "duration": 2, "velocity": 88}, {"time": 3253, "pitch": 75, "duration": 13, "velocity": 95}, {"time": 3271, "pitch": 70, "duration": 2, "velocity": 87}, {"time": 3274, "pitch": 70, "duration": 2, "velocity": 87}, {"time": 3277, "pitch": 72, "duration": 6, "velocity": 92}, {"time": 3283, "pitch": 72, "duration": 4, "velocity": 93}, {"time": 3295, "pitch": 72, "duration": 2, "velocity": 91}, {"time": 3298, "pitch": 75, "duration": 2, "velocity": 89}, {"time": 3301, "pitch": 77, "duration": 28, "velocity": 81}, {"time": 3337, "pitch": 82, "duration": 5, "velocity": 86}, {"time": 3343, "pitch": 84, "duration": 3, "velocity": 87}, {"time": 3346, "pitch": 82, "duration": 2, "velocity": 87}, {"time": 3349, "pitch": 82, "duration": 34, "velocity": 85}, {"time": 3385, "pitch": 82, "duration": 5, "velocity": 88}, {"time": 3391, "pitch": 84, "duration": 2, "velocity": 88}, {"time": 3394, "pitch": 82, "duration": 2, "velocity": 92}, {"time": 3397, "pitch": 77, "duration": 25, "velocity": 90}, {"time": 3433, "pitch": 82, "duration": 4, "velocity": 90}, {"time": 3439, "pitch": 84, "duration": 3, "velocity": 90}, {"time": 3442, "pitch": 82, "duration": 2, "velocity": 88}, {"time": 3445, "pitch": 75, "duration": 15, "velocity": 97}, {"time": 3463, "pitch": 70, "duration": 2, "velocity": 87}, {"time": 3466, "pitch": 70, "duration": 2, "velocity": 87}, {"time": 3469, "pitch": 72, "duration": 5, "velocity": 90}, {"time": 3475, "pitch": 72, "duration": 11, "velocity": 97}, {"time": 3499, "pitch": 72, "duration": 2, "velocity": 90}, {"time": 3502, "pitch": 75, "duration": 2, "velocity": 88}, {"time": 3505, "pitch": 75, "duration": 35, "velocity": 95}]}, {"program": 0, "is_drum": false, "name": "BRIDGE", "notes": [{"time": 1, "pitch": 70, "duration": 30, "velocity": 95}, {"time": 31, "pitch": 72, "duration": 4, "velocity": 89}, {"time": 34, "pitch": 70, "duration": 3, "velocity": 95}, {"time": 37, "pitch": 77, "duration": 32, "velocity": 92}, {"time": 73, "pitch": 82, "duration": 11, "velocity": 102}, {"time": 85, "pitch": 89, "duration": 34, "velocity": 97}, {"time": 121, "pitch": 94, "duration": 5, "velocity": 93}, {"time": 127, "pitch": 96, "duration": 3, "velocity": 93}, {"time": 130, "pitch": 94, "duration": 3, "velocity": 91}, {"time": 133, "pitch": 89, "duration": 24, "velocity": 103}, {"time": 157, "pitch": 84, "duration": 10, "velocity": 93}, {"time": 169, "pitch": 82, "duration": 11, "velocity": 93}, {"time": 181, "pitch": 82, "duration": 47, "velocity": 93}, {"time": 421, "pitch": 74, "duration": 19, "velocity": 72}, {"time": 421, "pitch": 77, "duration": 21, "velocity": 82}, {"time": 445, "pitch": 72, "duration": 24, "velocity": 74}, {"time": 445, "pitch": 75, "duration": 24, "velocity": 80}, {"time": 481, "pitch": 74, "duration": 13, "velocity": 78}, {"time": 493, "pitch": 75, "duration": 7, "velocity": 87}, {"time": 499, "pitch": 74, "duration": 7, "velocity": 74}, {"time": 505, "pitch": 72, "duration": 10, "velocity": 76}, {"time": 517, "pitch": 72, "duration": 20, "velocity": 81}, {"time": 565, "pitch": 72, "duration": 10, "velocity": 84}, {"time": 577, "pitch": 68, "duration": 3, "velocity": 75}, {"time": 580, "pitch": 70, "duration": 4, "velocity": 77}, {"time": 583, "pitch": 72, "duration": 6, "velocity": 80}, {"time": 589, "pitch": 70, "duration": 22, "velocity": 75}, {"time": 622, "pitch": 82, "duration": 3, "velocity": 78}, {"time": 625, "pitch": 84, "duration": 6, "velocity": 88}, {"time": 631, "pitch": 82, "duration": 6, "velocity": 88}, {"time": 637, "pitch": 89, "duration": 24, "velocity": 97}, {"time": 670, "pitch": 82, "duration": 3, "velocity": 92}, {"time": 673, "pitch": 94, "duration": 4, "velocity": 92}, {"time": 679, "pitch": 91, "duration": 2, "velocity": 90}, {"time": 682, "pitch": 89, "duration": 3, "velocity": 93}, {"time": 685, "pitch": 91, "duration": 19, "velocity": 102}, {"time": 718, "pitch": 87, "duration": 3, "velocity": 90}, {"time": 721, "pitch": 84, "duration": 4, "velocity": 90}, {"time": 727, "pitch": 80, "duration": 3, "velocity": 87}, {"time": 730, "pitch": 79, "duration": 3, "velocity": 83}, {"time": 733, "pitch": 77, "duration": 20, "velocity": 88}, {"time": 766, "pitch": 70, "duration": 4, "velocity": 76}, {"time": 766, "pitch": 75, "duration": 4, "velocity": 83}, {"time": 775, "pitch": 70, "duration": 3, "velocity": 71}, {"time": 775, "pitch": 75, "duration": 3, "velocity": 82}, {"time": 781, "pitch": 70, "duration": 19, "velocity": 75}, {"time": 781, "pitch": 74, "duration": 19, "velocity": 74}, {"time": 805, "pitch": 82, "duration": 22, "velocity": 85}, {"time": 811, "pitch": 79, "duration": 18, "velocity": 70}, {"time": 829, "pitch": 84, "duration": 13, "velocity": 88}, {"time": 835, "pitch": 79, "duration": 7, "velocity": 66}, {"time": 841, "pitch": 75, "duration": 12, "velocity": 86}, {"time": 859, "pitch": 79, "duration": 7, "velocity": 76}, {"time": 865, "pitch": 82, "duration": 13, "velocity": 75}, {"time": 871, "pitch": 79, "duration": 7, "velocity": 75}, {"time": 880, "pitch": 79, "duration": 7, "velocity": 70}, {"time": 889, "pitch": 84, "duration": 11, "velocity": 87}, {"time": 907, "pitch": 75, "duration": 21, "velocity": 86}, {"time": 913, "pitch": 84, "duration": 16, "velocity": 83}, {"time": 931, "pitch": 80, "duration": 17, "velocity": 73}, {"time": 937, "pitch": 84, "duration": 20, "velocity": 82}, {"time": 955, "pitch": 77, "duration": 8, "velocity": 74}, {"time": 961, "pitch": 80, "duration": 11, "velocity": 79}, {"time": 967, "pitch": 77, "duration": 8, "velocity": 73}, {"time": 976, "pitch": 70, "duration": 4, "velocity": 86}, {"time": 979, "pitch": 72, "duration": 4, "velocity": 86}, {"time": 982, "pitch": 74, "duration": 3, "velocity": 87}, {"time": 985, "pitch": 75, "duration": 4, "velocity": 97}, {"time": 988, "pitch": 77, "duration": 4, "velocity": 88}, {"time": 991, "pitch": 79, "duration": 3, "velocity": 102}, {"time": 994, "pitch": 80, "duration": 4, "velocity": 85}, {"time": 997, "pitch": 82, "duration": 36, "velocity": 90}, {"time": 1033, "pitch": 87, "duration": 11, "velocity": 90}, {"time": 1045, "pitch": 89, "duration": 37, "velocity": 95}, {"time": 1081, "pitch": 91, "duration": 10, "velocity": 100}, {"time": 1093, "pitch": 87, "duration": 36, "velocity": 93}, {"time": 1129, "pitch": 86, "duration": 6, "velocity": 89}, {"time": 1135, "pitch": 84, "duration": 6, "velocity": 90}, {"time": 1141, "pitch": 82, "duration": 35, "velocity": 88}, {"time": 1165, "pitch": 70, "duration": 14, "velocity": 87}, {"time": 1189, "pitch": 75, "duration": 35, "velocity": 86}, {"time": 1189, "pitch": 79, "duration": 35, "velocity": 85}, {"time": 1225, "pitch": 75, "duration": 10, "velocity": 87}, {"time": 1225, "pitch": 82, "duration": 11, "velocity": 82}, {"time": 1237, "pitch": 80, "duration": 18, "velocity": 88}, {"time": 1255, "pitch": 79, "duration": 8, "velocity": 81}, {"time": 1261, "pitch": 77, "duration": 11, "velocity": 87}, {"time": 1273, "pitch": 77, "duration": 6, "velocity": 87}, {"time": 1279, "pitch": 75, "duration": 5, "velocity": 88}, {"time": 1285, "pitch": 77, "duration": 24, "velocity": 87}, {"time": 1309, "pitch": 77, "duration": 13, "velocity": 92}, {"time": 1321, "pitch": 75, "duration": 12, "velocity": 93}, {"time": 1333, "pitch": 75, "duration": 35, "velocity": 92}, {"time": 1369, "pitch": 70, "duration": 6, "velocity": 95}, {"time": 1375, "pitch": 72, "duration": 4, "velocity": 89}, {"time": 1378, "pitch": 70, "duration": 3, "velocity": 95}, {"time": 1381, "pitch": 77, "duration": 32, "velocity": 92}, {"time": 1417, "pitch": 82, "duration": 11, "velocity": 102}, {"time": 1429, "pitch": 89, "duration": 34, "velocity": 97}, {"time": 1465, "pitch": 94, "duration": 5, "velocity": 93}, {"time": 1471, "pitch": 96, "duration": 3, "velocity": 93}, {"time": 1474, "pitch": 94, "duration": 3, "velocity": 91}, {"time": 1477, "pitch": 89, "duration": 24, "velocity": 103}, {"time": 1501, "pitch": 84, "duration": 10, "velocity": 93}, {"time": 1513, "pitch": 82, "duration": 11, "velocity": 93}, {"time": 1525, "pitch": 82, "duration": 47, "velocity": 93}, {"time": 1582, "pitch": 82, "duration": 3, "velocity": 78}, {"time": 1585, "pitch": 84, "duration": 6, "velocity": 88}, {"time": 1591, "pitch": 82, "duration": 6, "velocity": 88}, {"time": 1597, "pitch": 89, "duration": 24, "velocity": 97}, {"time": 1630, "pitch": 82, "duration": 3, "velocity": 92}, {"time": 1633, "pitch": 94, "duration": 4, "velocity": 92}, {"time": 1639, "pitch": 91, "duration": 2, "velocity": 90}, {"time": 1642, "pitch": 89, "duration": 3, "velocity": 93}, {"time": 1645, "pitch": 91, "duration": 19, "velocity": 102}, {"time": 1678, "pitch": 87, "duration": 3, "velocity": 90}, {"time": 1681, "pitch": 84, "duration": 4, "velocity": 90}, {"time": 1687, "pitch": 80, "duration": 3, "velocity": 87}, {"time": 1690, "pitch": 79, "duration": 3, "velocity": 83}, {"time": 1693, "pitch": 77, "duration": 20, "velocity": 88}, {"time": 1726, "pitch": 70, "duration": 4, "velocity": 76}, {"time": 1726, "pitch": 75, "duration": 4, "velocity": 83}, {"time": 1735, "pitch": 70, "duration": 3, "velocity": 71}, {"time": 1735, "pitch": 75, "duration": 3, "velocity": 82}, {"time": 1741, "pitch": 70, "duration": 19, "velocity": 75}, {"time": 1741, "pitch": 74, "duration": 19, "velocity": 74}, {"time": 1765, "pitch": 82, "duration": 22, "velocity": 85}, {"time": 1771, "pitch": 79, "duration": 18, "velocity": 70}, {"time": 1789, "pitch": 84, "duration": 13, "velocity": 88}, {"time": 1795, "pitch": 79, "duration": 7, "velocity": 66}, {"time": 1801, "pitch": 75, "duration": 12, "velocity": 86}, {"time": 1819, "pitch": 79, "duration": 7, "velocity": 76}, {"time": 1825, "pitch": 82, "duration": 13, "velocity": 75}, {"time": 1831, "pitch": 79, "duration": 7, "velocity": 75}, {"time": 1840, "pitch": 79, "duration": 7, "velocity": 70}, {"time": 1849, "pitch": 84, "duration": 11, "velocity": 87}, {"time": 1867, "pitch": 75, "duration": 21, "velocity": 86}, {"time": 1873, "pitch": 84, "duration": 16, "velocity": 83}, {"time": 1891, "pitch": 80, "duration": 17, "velocity": 73}, {"time": 1897, "pitch": 84, "duration": 20, "velocity": 82}, {"time": 1915, "pitch": 77, "duration": 8, "velocity": 74}, {"time": 1921, "pitch": 80, "duration": 11, "velocity": 79}, {"time": 1927, "pitch": 77, "duration": 8, "velocity": 73}, {"time": 1936, "pitch": 70, "duration": 4, "velocity": 86}, {"time": 1939, "pitch": 72, "duration": 4, "velocity": 86}, {"time": 1942, "pitch": 74, "duration": 3, "velocity": 87}, {"time": 1945, "pitch": 75, "duration": 4, "velocity": 97}, {"time": 1948, "pitch": 77, "duration": 4, "velocity": 88}, {"time": 1951, "pitch": 79, "duration": 3, "velocity": 102}, {"time": 1954, "pitch": 80, "duration": 4, "velocity": 85}, {"time": 1957, "pitch": 82, "duration": 36, "velocity": 90}, {"time": 1993, "pitch": 87, "duration": 11, "velocity": 90}, {"time": 2005, "pitch": 89, "duration": 37, "velocity": 95}, {"time": 2041, "pitch": 91, "duration": 10, "velocity": 100}, {"time": 2053, "pitch": 87, "duration": 36, "velocity": 93}, {"time": 2089, "pitch": 86, "duration": 6, "velocity": 89}, {"time": 2095, "pitch": 84, "duration": 6, "velocity": 90}, {"time": 2101, "pitch": 82, "duration": 35, "velocity": 88}, {"time": 2125, "pitch": 70, "duration": 14, "velocity": 87}, {"time": 2149, "pitch": 75, "duration": 35, "velocity": 86}, {"time": 2149, "pitch": 79, "duration": 35, "velocity": 85}, {"time": 2185, "pitch": 75, "duration": 10, "velocity": 87}, {"time": 2185, "pitch": 82, "duration": 11, "velocity": 82}, {"time": 2197, "pitch": 80, "duration": 18, "velocity": 88}, {"time": 2215, "pitch": 79, "duration": 8, "velocity": 81}, {"time": 2221, "pitch": 77, "duration": 11, "velocity": 87}, {"time": 2233, "pitch": 77, "duration": 6, "velocity": 87}, {"time": 2239, "pitch": 75, "duration": 5, "velocity": 88}, {"time": 2245, "pitch": 77, "duration": 24, "velocity": 87}, {"time": 2269, "pitch": 77, "duration": 13, "velocity": 92}, {"time": 2281, "pitch": 75, "duration": 12, "velocity": 93}, {"time": 2293, "pitch": 75, "duration": 35, "velocity": 92}, {"time": 2329, "pitch": 63, "duration": 11, "velocity": 103}, {"time": 2341, "pitch": 75, "duration": 34, "velocity": 112}, {"time": 2383, "pitch": 73, "duration": 2, "velocity": 92}, {"time": 2386, "pitch": 71, "duration": 2, "velocity": 91}, {"time": 2389, "pitch": 70, "duration": 16, "velocity": 97}, {"time": 2407, "pitch": 70, "duration": 3, "velocity": 87}, {"time": 2410, "pitch": 67, "duration": 3, "velocity": 90}, {"time": 2413, "pitch": 63, "duration": 20, "velocity": 97}, {"time": 2434, "pitch": 63, "duration": 2, "velocity": 92}, {"time": 2437, "pitch": 68, "duration": 17, "velocity": 90}, {"time": 2455, "pitch": 70, "duration": 3, "velocity": 92}, {"time": 2458, "pitch": 71, "duration": 3, "velocity": 93}, {"time": 2461, "pitch": 70, "duration": 11, "velocity": 103}, {"time": 2473, "pitch": 75, "duration": 10, "velocity": 112}, {"time": 2485, "pitch": 70, "duration": 33, "velocity": 97}, {"time": 2521, "pitch": 63, "duration": 12, "velocity": 90}, {"time": 2521, "pitch": 66, "duration": 12, "velocity": 95}, {"time": 2533, "pitch": 71, "duration": 40, "velocity": 92}, {"time": 2533, "pitch": 75, "duration": 41, "velocity": 95}, {"time": 2575, "pitch": 70, "duration": 3, "velocity": 82}, {"time": 2575, "pitch": 73, "duration": 3, "velocity": 88}, {"time": 2578, "pitch": 68, "duration": 3, "velocity": 86}, {"time": 2578, "pitch": 71, "duration": 4, "velocity": 92}, {"time": 2581, "pitch": 67, "duration": 18, "velocity": 87}, {"time": 2581, "pitch": 70, "duration": 18, "velocity": 95}, {"time": 2599, "pitch": 67, "duration": 3, "velocity": 88}, {"time": 2599, "pitch": 70, "duration": 3, "velocity": 90}, {"time": 2602, "pitch": 63, "duration": 3, "velocity": 88}, {"time": 2602, "pitch": 67, "duration": 2, "velocity": 83}, {"time": 2605, "pitch": 58, "duration": 18, "velocity": 87}, {"time": 2605, "pitch": 63, "duration": 18, "velocity": 97}, {"time": 2626, "pitch": 51, "duration": 3, "velocity": 97}, {"time": 2626, "pitch": 63, "duration": 3, "velocity": 97}, {"time": 2629, "pitch": 56, "duration": 4, "velocity": 83}, {"time": 2629, "pitch": 68, "duration": 4, "velocity": 83}, {"time": 2633, "pitch": 58, "duration": 5, "velocity": 86}, {"time": 2633, "pitch": 70, "duration": 5, "velocity": 86}, {"time": 2637, "pitch": 59, "duration": 6, "velocity": 80}, {"time": 2637, "pitch": 71, "duration": 6, "velocity": 80}, {"time": 2641, "pitch": 58, "duration": 5, "velocity": 86}, {"time": 2641, "pitch": 70, "duration": 5, "velocity": 86}, {"time": 2645, "pitch": 56, "duration": 4, "velocity": 92}, {"time": 2645, "pitch": 68, "duration": 4, "velocity": 92}, {"time": 2649, "pitch": 54, "duration": 5, "velocity": 90}, {"time": 2649, "pitch": 66, "duration": 5, "velocity": 90}, {"time": 2653, "pitch": 59, "duration": 4, "velocity": 90}, {"time": 2653, "pitch": 71, "duration": 4, "velocity": 90}, {"time": 2657, "pitch": 61, "duration": 4, "velocity": 90}, {"time": 2657, "pitch": 73, "duration": 4, "velocity": 90}, {"time": 2661, "pitch": 63, "duration": 3, "velocity": 87}, {"time": 2661, "pitch": 75, "duration": 3, "velocity": 87}, {"time": 2665, "pitch": 64, "duration": 4, "velocity": 90}, {"time": 2665, "pitch": 76, "duration": 4, "velocity": 90}, {"time": 2669, "pitch": 63, "duration": 3, "velocity": 90}, {"time": 2669, "pitch": 75, "duration": 3, "velocity": 90}, {"time": 2673, "pitch": 61, "duration": 3, "velocity": 88}, {"time": 2673, "pitch": 73, "duration": 3, "velocity": 88}, {"time": 2677, "pitch": 63, "duration": 48, "velocity": 89}, {"time": 2677, "pitch": 75, "duration": 48, "velocity": 89}, {"time": 2725, "pitch": 70, "duration": 26, "velocity": 93}, {"time": 2725, "pitch": 82, "duration": 26, "velocity": 93}, {"time": 2752, "pitch": 70, "duration": 4, "velocity": 89}, {"time": 2755, "pitch": 72, "duration": 3, "velocity": 97}, {"time": 2758, "pitch": 74, "duration": 3, "velocity": 93}, {"time": 2761, "pitch": 75, "duration": 3, "velocity": 88}, {"time": 2764, "pitch": 77, "duration": 3, "velocity": 91}, {"time": 2767, "pitch": 79, "duration": 3, "velocity": 80}, {"time": 2770, "pitch": 80, "duration": 3, "velocity": 88}, {"time": 2773, "pitch": 82, "duration": 36, "velocity": 90}, {"time": 2809, "pitch": 87, "duration": 11, "velocity": 90}, {"time": 2821, "pitch": 89, "duration": 37, "velocity": 95}, {"time": 2857, "pitch": 91, "duration": 10, "velocity": 100}, {"time": 2869, "pitch": 87, "duration": 36, "velocity": 93}, {"time": 2905, "pitch": 86, "duration": 6, "velocity": 89}, {"time": 2911, "pitch": 84, "duration": 6, "velocity": 90}, {"time": 2917, "pitch": 82, "duration": 35, "velocity": 88}, {"time": 2941, "pitch": 70, "duration": 14, "velocity": 87}, {"time": 2965, "pitch": 75, "duration": 35, "velocity": 86}, {"time": 2965, "pitch": 79, "duration": 35, "velocity": 85}, {"time": 3001, "pitch": 75, "duration": 10, "velocity": 87}, {"time": 3001, "pitch": 82, "duration": 11, "velocity": 82}, {"time": 3013, "pitch": 80, "duration": 18, "velocity": 88}, {"time": 3031, "pitch": 79, "duration": 8, "velocity": 81}, {"time": 3037, "pitch": 77, "duration": 11, "velocity": 87}, {"time": 3049, "pitch": 77, "duration": 6, "velocity": 87}, {"time": 3055, "pitch": 75, "duration": 5, "velocity": 88}, {"time": 3061, "pitch": 77, "duration": 24, "velocity": 87}, {"time": 3085, "pitch": 77, "duration": 13, "velocity": 92}, {"time": 3097, "pitch": 75, "duration": 12, "velocity": 93}, {"time": 3109, "pitch": 75, "duration": 35, "velocity": 92}, {"time": 3157, "pitch": 82, "duration": 36, "velocity": 90}, {"time": 3193, "pitch": 87, "duration": 11, "velocity": 90}, {"time": 3205, "pitch": 89, "duration": 37, "velocity": 95}, {"time": 3241, "pitch": 91, "duration": 10, "velocity": 100}, {"time": 3253, "pitch": 87, "duration": 36, "velocity": 93}, {"time": 3289, "pitch": 86, "duration": 6, "velocity": 89}, {"time": 3295, "pitch": 84, "duration": 6, "velocity": 90}, {"time": 3301, "pitch": 82, "duration": 35, "velocity": 88}, {"time": 3325, "pitch": 70, "duration": 14, "velocity": 87}, {"time": 3349, "pitch": 75, "duration": 35, "velocity": 86}, {"time": 3349, "pitch": 79, "duration": 35, "velocity": 85}, {"time": 3385, "pitch": 75, "duration": 10, "velocity": 87}, {"time": 3385, "pitch": 82, "duration": 11, "velocity": 82}, {"time": 3397, "pitch": 80, "duration": 18, "velocity": 88}, {"time": 3415, "pitch": 79, "duration": 8, "velocity": 81}, {"time": 3421, "pitch": 77, "duration": 11, "velocity": 87}, {"time": 3433, "pitch": 77, "duration": 6, "velocity": 87}, {"time": 3439, "pitch": 75, "duration": 5, "velocity": 88}, {"time": 3445, "pitch": 77, "duration": 24, "velocity": 87}, {"time": 3469, "pitch": 77, "duration": 13, "velocity": 92}, {"time": 3493, "pitch": 70, "duration": 6, "velocity": 95}, {"time": 3499, "pitch": 72, "duration": 4, "velocity": 89}, {"time": 3502, "pitch": 70, "duration": 3, "velocity": 95}, {"time": 3505, "pitch": 77, "duration": 32, "velocity": 92}, {"time": 3541, "pitch": 82, "duration": 11, "velocity": 102}, {"time": 3553, "pitch": 89, "duration": 34, "velocity": 97}, {"time": 3589, "pitch": 82, "duration": 12, "velocity": 93}, {"time": 3601, "pitch": 89, "duration": 34, "velocity": 97}, {"time": 3637, "pitch": 94, "duration": 5, "velocity": 102}, {"time": 3643, "pitch": 96, "duration": 3, "velocity": 100}, {"time": 3646, "pitch": 94, "duration": 3, "velocity": 95}, {"time": 3649, "pitch": 89, "duration": 28, "velocity": 97}, {"time": 3691, "pitch": 89, "duration": 16, "velocity": 95}, {"time": 3709, "pitch": 91, "duration": 37, "velocity": 91}]}, {"program": 0, "is_drum": false, "name": "PIANO", "notes": [{"time": 37, "pitch": 51, "duration": 45, "velocity": 88}, {"time": 43, "pitch": 58, "duration": 10, "velocity": 73}, {"time": 49, "pitch": 65, "duration": 9, "velocity": 86}, {"time": 55, "pitch": 58, "duration": 8, "velocity": 72}, {"time": 61, "pitch": 63, "duration": 10, "velocity": 82}, {"time": 61, "pitch": 67, "duration": 10, "velocity": 82}, {"time": 70, "pitch": 58, "duration": 4, "velocity": 70}, {"time": 73, "pitch": 63, "duration": 7, "velocity": 82}, {"time": 73, "pitch": 70, "duration": 18, "velocity": 86}, {"time": 79, "pitch": 58, "duration": 6, "velocity": 66}, {"time": 82, "pitch": 63, "duration": 5, "velocity": 71}, {"time": 85, "pitch": 49, "duration": 44, "velocity": 87}, {"time": 91, "pitch": 56, "duration": 8, "velocity": 74}, {"time": 97, "pitch": 61, "duration": 7, "velocity": 81}, {"time": 97, "pitch": 65, "duration": 7, "velocity": 81}, {"time": 103, "pitch": 56, "duration": 10, "velocity": 73}, {"time": 106, "pitch": 61, "duration": 2, "velocity": 81}, {"time": 109, "pitch": 61, "duration": 10, "velocity": 83}, {"time": 109, "pitch": 68, "duration": 11, "velocity": 85}, {"time": 118, "pitch": 56, "duration": 4, "velocity": 71}, {"time": 121, "pitch": 61, "duration": 6, "velocity": 88}, {"time": 121, "pitch": 65, "duration": 10, "velocity": 91}, {"time": 127, "pitch": 56, "duration": 2, "velocity": 77}, {"time": 130, "pitch": 61, "duration": 5, "velocity": 78}, {"time": 133, "pitch": 44, "duration": 45, "velocity": 84}, {"time": 139, "pitch": 51, "duration": 9, "velocity": 73}, {"time": 142, "pitch": 56, "duration": 5, "velocity": 79}, {"time": 145, "pitch": 63, "duration": 9, "velocity": 83}, {"time": 151, "pitch": 51, "duration": 20, "velocity": 75}, {"time": 157, "pitch": 56, "duration": 7, "velocity": 80}, {"time": 157, "pitch": 68, "duration": 6, "velocity": 80}, {"time": 169, "pitch": 56, "duration": 6, "velocity": 86}, {"time": 169, "pitch": 63, "duration": 10, "velocity": 84}, {"time": 175, "pitch": 51, "duration": 4, "velocity": 80}, {"time": 178, "pitch": 56, "duration": 4, "velocity": 91}, {"time": 181, "pitch": 46, "duration": 22, "velocity": 86}, {"time": 187, "pitch": 53, "duration": 16, "velocity": 71}, {"time": 190, "pitch": 58, "duration": 4, "velocity": 79}, {"time": 193, "pitch": 62, "duration": 3, "velocity": 82}, {"time": 196, "pitch": 58, "duration": 8, "velocity": 85}, {"time": 199, "pitch": 65, "duration": 5, "velocity": 83}, {"time": 202, "pitch": 62, "duration": 3, "velocity": 82}, {"time": 205, "pitch": 46, "duration": 16, "velocity": 84}, {"time": 205, "pitch": 58, "duration": 13, "velocity": 73}, {"time": 205, "pitch": 62, "duration": 8, "velocity": 73}, {"time": 205, "pitch": 70, "duration": 18, "velocity": 86}, {"time": 229, "pitch": 51, "duration": 22, "velocity": 87}, {"time": 235, "pitch": 58, "duration": 9, "velocity": 74}, {"time": 241, "pitch": 63, "duration": 7, "velocity": 84}, {"time": 247, "pitch": 65, "duration": 4, "velocity": 83}, {"time": 253, "pitch": 51, "duration": 22, "velocity": 87}, {"time": 253, "pitch": 63, "duration": 10, "velocity": 77}, {"time": 253, "pitch": 67, "duration": 10, "velocity": 75}, {"time": 262, "pitch": 58, "duration": 4, "velocity": 72}, {"time": 265, "pitch": 63, "duration": 7, "velocity": 84}, {"time": 265, "pitch": 70, "duration": 14, "velocity": 87}, {"time": 271, "pitch": 58, "duration": 5, "velocity": 73}, {"time": 274, "pitch": 63, "duration": 4, "velocity": 72}, {"time": 277, "pitch": 51, "duration": 45, "velocity": 89}, {"time": 286, "pitch": 58, "duration": 6, "velocity": 74}, {"time": 289, "pitch": 65, "duration": 12, "velocity": 84}, {"time": 295, "pitch": 58, "duration": 7, "velocity": 69}, {"time": 301, "pitch": 63, "duration": 7, "velocity": 75}, {"time": 301, "pitch": 67, "duration": 6, "velocity": 76}, {"time": 307, "pitch": 58, "duration": 8, "velocity": 69}, {"time": 310, "pitch": 63, "duration": 3, "velocity": 75}, {"time": 313, "pitch": 70, "duration": 7, "velocity": 86}, {"time": 316, "pitch": 58, "duration": 8, "velocity": 77}, {"time": 319, "pitch": 63, "duration": 5, "velocity": 77}, {"time": 322, "pitch": 67, "duration": 2, "velocity": 73}, {"time": 325, "pitch": 53, "duration": 13, "velocity": 87}, {"time": 325, "pitch": 65, "duration": 6, "velocity": 82}, {"time": 325, "pitch": 68, "duration": 6, "velocity": 76}, {"time": 331, "pitch": 60, "duration": 6, "velocity": 74}, {"time": 337, "pitch": 65, "duration": 10, "velocity": 87}, {"time": 343, "pitch": 68, "duration": 4, "velocity": 73}, {"time": 349, "pitch": 41, "duration": 14, "velocity": 81}, {"time": 349, "pitch": 65, "duration": 8, "velocity": 83}, {"time": 349, "pitch": 72, "duration": 10, "velocity": 86}, {"time": 355, "pitch": 48, "duration": 8, "velocity": 68}, {"time": 361, "pitch": 65, "duration": 3, "velocity": 89}, {"time": 361, "pitch": 68, "duration": 6, "velocity": 86}, {"time": 367, "pitch": 65, "duration": 2, "velocity": 86}, {"time": 373, "pitch": 46, "duration": 22, "velocity": 85}, {"time": 373, "pitch": 58, "duration": 12, "velocity": 77}, {"time": 373, "pitch": 65, "duration": 14, "velocity": 77}, {"time": 385, "pitch": 53, "duration": 10, "velocity": 83}, {"time": 388, "pitch": 58, "duration": 4, "velocity": 85}, {"time": 391, "pitch": 65, "duration": 5, "velocity": 83}, {"time": 394, "pitch": 58, "duration": 2, "velocity": 81}, {"time": 397, "pitch": 46, "duration": 15, "velocity": 85}, {"time": 397, "pitch": 58, "duration": 8, "velocity": 86}, {"time": 397, "pitch": 65, "duration": 6, "velocity": 87}, {"time": 397, "pitch": 70, "duration": 7, "velocity": 87}, {"time": 403, "pitch": 53, "duration": 8, "velocity": 72}, {"time": 409, "pitch": 58, "duration": 5, "velocity": 84}, {"time": 409, "pitch": 62, "duration": 4, "velocity": 87}, {"time": 409, "pitch": 65, "duration": 6, "velocity": 89}, {"time": 421, "pitch": 43, "duration": 15, "velocity": 84}, {"time": 421, "pitch": 62, "duration": 9, "velocity": 81}, {"time": 421, "pitch": 67, "duration": 16, "velocity": 78}, {"time": 433, "pitch": 50, "duration": 3, "velocity": 78}, {"time": 436, "pitch": 58, "duration": 5, "velocity": 91}, {"time": 439, "pitch": 62, "duration": 4, "velocity": 88}, {"time": 442, "pitch": 67, "duration": 3, "velocity": 81}, {"time": 445, "pitch": 48, "duration": 15, "velocity": 87}, {"time": 445, "pitch": 60, "duration": 8, "velocity": 82}, {"time": 445, "pitch": 63, "duration": 8, "velocity": 87}, {"time": 451, "pitch": 55, "duration": 8, "velocity": 70}, {"time": 457, "pitch": 60, "duration": 3, "velocity": 87}, {"time": 457, "pitch": 63, "duration": 5, "velocity": 86}, {"time": 457, "pitch": 67, "duration": 5, "velocity": 85}, {"time": 469, "pitch": 43, "duration": 16, "velocity": 85}, {"time": 469, "pitch": 58, "duration": 10, "velocity": 77}, {"time": 469, "pitch": 62, "duration": 13, "velocity": 74}, {"time": 478, "pitch": 50, "duration": 7, "velocity": 65}, {"time": 481, "pitch": 58, "duration": 6, "velocity": 76}, {"time": 484, "pitch": 62, "duration": 4, "velocity": 84}, {"time": 487, "pitch": 67, "duration": 4, "velocity": 86}, {"time": 493, "pitch": 48, "duration": 14, "velocity": 84}, {"time": 493, "pitch": 60, "duration": 9, "velocity": 78}, {"time": 493, "pitch": 63, "duration": 8, "velocity": 82}, {"time": 499, "pitch": 55, "duration": 7, "velocity": 74}, {"time": 505, "pitch": 60, "duration": 3, "velocity": 83}, {"time": 505, "pitch": 63, "duration": 4, "velocity": 86}, {"time": 505, "pitch": 67, "duration": 4, "velocity": 82}, {"time": 517, "pitch": 44, "duration": 20, "velocity": 80}, {"time": 517, "pitch": 56, "duration": 9, "velocity": 79}, {"time": 517, "pitch": 60, "duration": 9, "velocity": 81}, {"time": 523, "pitch": 51, "duration": 9, "velocity": 79}, {"time": 529, "pitch": 63, "duration": 5, "velocity": 87}, {"time": 541, "pitch": 44, "duration": 22, "velocity": 86}, {"time": 541, "pitch": 56, "duration": 8, "velocity": 77}, {"time": 541, "pitch": 60, "duration": 7, "velocity": 81}, {"time": 547, "pitch": 51, "duration": 15, "velocity": 73}, {"time": 553, "pitch": 63, "duration": 6, "velocity": 89}, {"time": 556, "pitch": 60, "duration": 3, "velocity": 82}, {"time": 559, "pitch": 56, "duration": 4, "velocity": 81}, {"time": 562, "pitch": 68, "duration": 4, "velocity": 85}, {"time": 565, "pitch": 41, "duration": 20, "velocity": 87}, {"time": 565, "pitch": 65, "duration": 8, "velocity": 86}, {"time": 565, "pitch": 68, "duration": 1, "velocity": 80}, {"time": 571, "pitch": 48, "duration": 11, "velocity": 79}, {"time": 577, "pitch": 65, "duration": 6, "velocity": 97}, {"time": 577, "pitch": 68, "duration": 7, "velocity": 86}, {"time": 583, "pitch": 48, "duration": 3, "velocity": 82}, {"time": 589, "pitch": 46, "duration": 21, "velocity": 87}, {"time": 589, "pitch": 70, "duration": 8, "velocity": 82}, {"time": 595, "pitch": 53, "duration": 8, "velocity": 76}, {"time": 598, "pitch": 58, "duration": 5, "velocity": 86}, {"time": 601, "pitch": 63, "duration": 3, "velocity": 86}, {"time": 604, "pitch": 58, "duration": 3, "velocity": 82}, {"time": 607, "pitch": 65, "duration": 4, "velocity": 88}, {"time": 610, "pitch": 58, "duration": 4, "velocity": 82}, {"time": 613, "pitch": 51, "duration": 22, "velocity": 87}, {"time": 619, "pitch": 58, "duration": 9, "velocity": 74}, {"time": 625, "pitch": 63, "duration": 7, "velocity": 84}, {"time": 631, "pitch": 65, "duration": 4, "velocity": 83}, {"time": 637, "pitch": 51, "duration": 22, "velocity": 87}, {"time": 637, "pitch": 63, "duration": 10, "velocity": 77}, {"time": 637, "pitch": 67, "duration": 10, "velocity": 75}, {"time": 646, "pitch": 58, "duration": 4, "velocity": 72}, {"time": 649, "pitch": 63, "duration": 7, "velocity": 84}, {"time": 649, "pitch": 70, "duration": 14, "velocity": 87}, {"time": 655, "pitch": 58, "duration": 5, "velocity": 73}, {"time": 658, "pitch": 63, "duration": 4, "velocity": 72}, {"time": 661, "pitch": 51, "duration": 45, "velocity": 89}, {"time": 670, "pitch": 58, "duration": 6, "velocity": 74}, {"time": 673, "pitch": 65, "duration": 12, "velocity": 84}, {"time": 679, "pitch": 58, "duration": 7, "velocity": 69}, {"time": 685, "pitch": 63, "duration": 7, "velocity": 75}, {"time": 685, "pitch": 67, "duration": 6, "velocity": 76}, {"time": 691, "pitch": 58, "duration": 8, "velocity": 69}, {"time": 694, "pitch": 63, "duration": 3, "velocity": 75}, {"time": 697, "pitch": 70, "duration": 7, "velocity": 86}, {"time": 700, "pitch": 58, "duration": 8, "velocity": 77}, {"time": 703, "pitch": 63, "duration": 5, "velocity": 77}, {"time": 706, "pitch": 67, "duration": 2, "velocity": 73}, {"time": 709, "pitch": 53, "duration": 13, "velocity": 87}, {"time": 709, "pitch": 65, "duration": 6, "velocity": 82}, {"time": 709, "pitch": 68, "duration": 6, "velocity": 76}, {"time": 715, "pitch": 60, "duration": 6, "velocity": 74}, {"time": 721, "pitch": 65, "duration": 10, "velocity": 87}, {"time": 727, "pitch": 68, "duration": 4, "velocity": 73}, {"time": 733, "pitch": 41, "duration": 14, "velocity": 81}, {"time": 733, "pitch": 65, "duration": 8, "velocity": 83}, {"time": 733, "pitch": 72, "duration": 10, "velocity": 86}, {"time": 739, "pitch": 48, "duration": 8, "velocity": 68}, {"time": 745, "pitch": 65, "duration": 3, "velocity": 89}, {"time": 745, "pitch": 68, "duration": 6, "velocity": 86}, {"time": 751, "pitch": 65, "duration": 2, "velocity": 86}, {"time": 757, "pitch": 46, "duration": 22, "velocity": 85}, {"time": 757, "pitch": 58, "duration": 12, "velocity": 77}, {"time": 757, "pitch": 65, "duration": 14, "velocity": 77}, {"time": 769, "pitch": 53, "duration": 10, "velocity": 83}, {"time": 772, "pitch": 58, "duration": 4, "velocity": 85}, {"time": 775, "pitch": 65, "duration": 5, "velocity": 83}, {"time": 778, "pitch": 58, "duration": 2, "velocity": 81}, {"time": 781, "pitch": 46, "duration": 15, "velocity": 85}, {"time": 781, "pitch": 58, "duration": 8, "velocity": 86}, {"time": 781, "pitch": 65, "duration": 6, "velocity": 87}, {"time": 781, "pitch": 70, "duration": 7, "velocity": 87}, {"time": 787, "pitch": 53, "duration": 8, "velocity": 72}, {"time": 793, "pitch": 58, "duration": 5, "velocity": 84}, {"time": 793, "pitch": 62, "duration": 4, "velocity": 87}, {"time": 793, "pitch": 65, "duration": 6, "velocity": 89}, {"time": 805, "pitch": 43, "duration": 15, "velocity": 84}, {"time": 805, "pitch": 62, "duration": 9, "velocity": 81}, {"time": 805, "pitch": 67, "duration": 16, "velocity": 78}, {"time": 817, "pitch": 50, "duration": 3, "velocity": 78}, {"time": 820, "pitch": 58, "duration": 5, "velocity": 91}, {"time": 823, "pitch": 62, "duration": 4, "velocity": 88}, {"time": 826, "pitch": 67, "duration": 3, "velocity": 81}, {"time": 829, "pitch": 48, "duration": 15, "velocity": 87}, {"time": 829, "pitch": 60, "duration": 8, "velocity": 82}, {"time": 829, "pitch": 63, "duration": 8, "velocity": 87}, {"time": 835, "pitch": 55, "duration": 8, "velocity": 70}, {"time": 841, "pitch": 60, "duration": 3, "velocity": 87}, {"time": 841, "pitch": 63, "duration": 5, "velocity": 86}, {"time": 841, "pitch": 67, "duration": 5, "velocity": 85}, {"time": 853, "pitch": 43, "duration": 16, "velocity": 85}, {"time": 853, "pitch": 58, "duration": 10, "velocity": 77}, {"time": 853, "pitch": 62, "duration": 13, "velocity": 74}, {"time": 862, "pitch": 50, "duration": 7, "velocity": 65}, {"time": 865, "pitch": 58, "duration": 6, "velocity": 76}, {"time": 868, "pitch": 62, "duration": 4, "velocity": 84}, {"time": 871, "pitch": 67, "duration": 4, "velocity": 86}, {"time": 877, "pitch": 48, "duration": 14, "velocity": 84}, {"time": 877, "pitch": 60, "duration": 9, "velocity": 78}, {"time": 877, "pitch": 63, "duration": 8, "velocity": 82}, {"time": 883, "pitch": 55, "duration": 7, "velocity": 74}, {"time": 889, "pitch": 60, "duration": 3, "velocity": 83}, {"time": 889, "pitch": 63, "duration": 4, "velocity": 86}, {"time": 889, "pitch": 67, "duration": 4, "velocity": 82}, {"time": 901, "pitch": 44, "duration": 20, "velocity": 80}, {"time": 901, "pitch": 56, "duration": 9, "velocity": 79}, {"time": 901, "pitch": 60, "duration": 9, "velocity": 81}, {"time": 907, "pitch": 51, "duration": 9, "velocity": 79}, {"time": 913, "pitch": 63, "duration": 5, "velocity": 87}, {"time": 925, "pitch": 44, "duration": 22, "velocity": 86}, {"time": 925, "pitch": 56, "duration": 8, "velocity": 77}, {"time": 925, "pitch": 60, "duration": 7, "velocity": 81}, {"time": 931, "pitch": 51, "duration": 15, "velocity": 73}, {"time": 937, "pitch": 63, "duration": 6, "velocity": 89}, {"time": 940, "pitch": 60, "duration": 3, "velocity": 82}, {"time": 943, "pitch": 56, "duration": 4, "velocity": 81}, {"time": 946, "pitch": 68, "duration": 4, "velocity": 85}, {"time": 949, "pitch": 41, "duration": 20, "velocity": 87}, {"time": 949, "pitch": 65, "duration": 8, "velocity": 86}, {"time": 949, "pitch": 68, "duration": 1, "velocity": 80}, {"time": 955, "pitch": 48, "duration": 11, "velocity": 79}, {"time": 961, "pitch": 65, "duration": 6, "velocity": 97}, {"time": 961, "pitch": 68, "duration": 7, "velocity": 86}, {"time": 967, "pitch": 48, "duration": 3, "velocity": 82}, {"time": 973, "pitch": 46, "duration": 21, "velocity": 87}, {"time": 973, "pitch": 70, "duration": 8, "velocity": 82}, {"time": 979, "pitch": 53, "duration": 8, "velocity": 76}, {"time": 982, "pitch": 58, "duration": 5, "velocity": 86}, {"time": 985, "pitch": 63, "duration": 3, "velocity": 86}, {"time": 988, "pitch": 58, "duration": 3, "velocity": 82}, {"time": 991, "pitch": 65, "duration": 4, "velocity": 88}, {"time": 994, "pitch": 58, "duration": 4, "velocity": 82}, {"time": 997, "pitch": 39, "duration": 23, "velocity": 90}, {"time": 997, "pitch": 63, "duration": 4, "velocity": 85}, {"time": 997, "pitch": 70, "duration": 10, "velocity": 87}, {"time": 1003, "pitch": 63, "duration": 5, "velocity": 87}, {"time": 1009, "pitch": 63, "duration": 3, "velocity": 87}, {"time": 1009, "pitch": 67, "duration": 3, "velocity": 88}, {"time": 1009, "pitch": 70, "duration": 4, "velocity": 87}, {"time": 1015, "pitch": 46, "duration": 5, "velocity": 74}, {"time": 1018, "pitch": 63, "duration": 3, "velocity": 78}, {"time": 1021, "pitch": 39, "duration": 17, "velocity": 87}, {"time": 1021, "pitch": 63, "duration": 6, "velocity": 70}, {"time": 1021, "pitch": 67, "duration": 3, "velocity": 76}, {"time": 1021, "pitch": 75, "duration": 6, "velocity": 91}, {"time": 1027, "pitch": 46, "duration": 9, "velocity": 63}, {"time": 1033, "pitch": 63, "duration": 3, "velocity": 88}, {"time": 1033, "pitch": 67, "duration": 7, "velocity": 93}, {"time": 1033, "pitch": 70, "duration": 7, "velocity": 88}, {"time": 1039, "pitch": 63, "duration": 5, "velocity": 84}, {"time": 1045, "pitch": 46, "duration": 23, "velocity": 90}, {"time": 1051, "pitch": 58, "duration": 8, "velocity": 87}, {"time": 1057, "pitch": 62, "duration": 3, "velocity": 93}, {"time": 1057, "pitch": 65, "duration": 5, "velocity": 89}, {"time": 1063, "pitch": 53, "duration": 6, "velocity": 79}, {"time": 1069, "pitch": 46, "duration": 19, "velocity": 86}, {"time": 1069, "pitch": 58, "duration": 7, "velocity": 86}, {"time": 1069, "pitch": 70, "duration": 7, "velocity": 86}, {"time": 1075, "pitch": 53, "duration": 8, "velocity": 73}, {"time": 1081, "pitch": 58, "duration": 5, "velocity": 93}, {"time": 1081, "pitch": 62, "duration": 4, "velocity": 97}, {"time": 1081, "pitch": 65, "duration": 5, "velocity": 95}, {"time": 1087, "pitch": 53, "duration": 4, "velocity": 84}, {"time": 1093, "pitch": 48, "duration": 19, "velocity": 88}, {"time": 1093, "pitch": 60, "duration": 8, "velocity": 85}, {"time": 1093, "pitch": 63, "duration": 8, "velocity": 86}, {"time": 1099, "pitch": 55, "duration": 8, "velocity": 70}, {"time": 1105, "pitch": 60, "duration": 6, "velocity": 89}, {"time": 1105, "pitch": 67, "duration": 7, "velocity": 88}, {"time": 1108, "pitch": 55, "duration": 3, "velocity": 81}, {"time": 1111, "pitch": 63, "duration": 3, "velocity": 92}, {"time": 1114, "pitch": 60, "duration": 5, "velocity": 82}, {"time": 1117, "pitch": 44, "duration": 20, "velocity": 83}, {"time": 1123, "pitch": 51, "duration": 8, "velocity": 81}, {"time": 1129, "pitch": 56, "duration": 6, "velocity": 82}, {"time": 1129, "pitch": 63, "duration": 6, "velocity": 86}, {"time": 1135, "pitch": 51, "duration": 5, "velocity": 81}, {"time": 1141, "pitch": 46, "duration": 22, "velocity": 86}, {"time": 1141, "pitch": 58, "duration": 7, "velocity": 82}, {"time": 1141, "pitch": 62, "duration": 7, "velocity": 76}, {"time": 1147, "pitch": 53, "duration": 16, "velocity": 79}, {"time": 1153, "pitch": 58, "duration": 12, "velocity": 87}, {"time": 1153, "pitch": 65, "duration": 7, "velocity": 88}, {"time": 1159, "pitch": 62, "duration": 2, "velocity": 92}, {"time": 1165, "pitch": 46, "duration": 21, "velocity": 87}, {"time": 1165, "pitch": 70, "duration": 10, "velocity": 90}, {"time": 1171, "pitch": 53, "duration": 7, "velocity": 83}, {"time": 1174, "pitch": 58, "duration": 2, "velocity": 87}, {"time": 1177, "pitch": 58, "duration": 3, "velocity": 97}, {"time": 1177, "pitch": 65, "duration": 3, "velocity": 93}, {"time": 1180, "pitch": 53, "duration": 6, "velocity": 88}, {"time": 1183, "pitch": 62, "duration": 3, "velocity": 93}, {"time": 1186, "pitch": 58, "duration": 2, "velocity": 86}, {"time": 1189, "pitch": 51, "duration": 23, "velocity": 86}, {"time": 1189, "pitch": 58, "duration": 3, "velocity": 87}, {"time": 1189, "pitch": 63, "duration": 7, "velocity": 88}, {"time": 1195, "pitch": 58, "duration": 4, "velocity": 85}, {"time": 1201, "pitch": 67, "duration": 5, "velocity": 88}, {"time": 1204, "pitch": 58, "duration": 3, "velocity": 84}, {"time": 1207, "pitch": 63, "duration": 4, "velocity": 75}, {"time": 1210, "pitch": 58, "duration": 3, "velocity": 75}, {"time": 1213, "pitch": 51, "duration": 18, "velocity": 87}, {"time": 1213, "pitch": 58, "duration": 3, "velocity": 81}, {"time": 1213, "pitch": 67, "duration": 10, "velocity": 83}, {"time": 1219, "pitch": 58, "duration": 3, "velocity": 81}, {"time": 1225, "pitch": 58, "duration": 3, "velocity": 87}, {"time": 1225, "pitch": 63, "duration": 6, "velocity": 86}, {"time": 1231, "pitch": 58, "duration": 2, "velocity": 87}, {"time": 1237, "pitch": 49, "duration": 23, "velocity": 88}, {"time": 1237, "pitch": 56, "duration": 3, "velocity": 85}, {"time": 1237, "pitch": 61, "duration": 7, "velocity": 82}, {"time": 1243, "pitch": 56, "duration": 7, "velocity": 88}, {"time": 1249, "pitch": 61, "duration": 7, "velocity": 86}, {"time": 1249, "pitch": 65, "duration": 8, "velocity": 87}, {"time": 1255, "pitch": 56, "duration": 8, "velocity": 87}, {"time": 1261, "pitch": 49, "duration": 16, "velocity": 87}, {"time": 1261, "pitch": 61, "duration": 2, "velocity": 71}, {"time": 1261, "pitch": 68, "duration": 10, "velocity": 86}, {"time": 1267, "pitch": 56, "duration": 4, "velocity": 80}, {"time": 1273, "pitch": 56, "duration": 7, "velocity": 90}, {"time": 1273, "pitch": 65, "duration": 7, "velocity": 88}, {"time": 1279, "pitch": 61, "duration": 2, "velocity": 83}, {"time": 1285, "pitch": 47, "duration": 16, "velocity": 87}, {"time": 1285, "pitch": 59, "duration": 6, "velocity": 80}, {"time": 1285, "pitch": 63, "duration": 13, "velocity": 80}, {"time": 1291, "pitch": 54, "duration": 8, "velocity": 74}, {"time": 1297, "pitch": 59, "duration": 4, "velocity": 95}, {"time": 1300, "pitch": 54, "duration": 7, "velocity": 86}, {"time": 1303, "pitch": 59, "duration": 4, "velocity": 89}, {"time": 1306, "pitch": 63, "duration": 4, "velocity": 82}, {"time": 1309, "pitch": 46, "duration": 14, "velocity": 89}, {"time": 1312, "pitch": 53, "duration": 8, "velocity": 82}, {"time": 1315, "pitch": 58, "duration": 5, "velocity": 86}, {"time": 1318, "pitch": 62, "duration": 7, "velocity": 92}, {"time": 1321, "pitch": 50, "duration": 5, "velocity": 88}, {"time": 1324, "pitch": 53, "duration": 3, "velocity": 81}, {"time": 1327, "pitch": 58, "duration": 5, "velocity": 87}, {"time": 1330, "pitch": 62, "duration": 2, "velocity": 86}, {"time": 1333, "pitch": 39, "duration": 3, "velocity": 88}, {"time": 1333, "pitch": 58, "duration": 5, "velocity": 80}, {"time": 1333, "pitch": 63, "duration": 6, "velocity": 86}, {"time": 1339, "pitch": 51, "duration": 17, "velocity": 77}, {"time": 1345, "pitch": 58, "duration": 11, "velocity": 86}, {"time": 1348, "pitch": 63, "duration": 4, "velocity": 87}, {"time": 1351, "pitch": 65, "duration": 4, "velocity": 90}, {"time": 1354, "pitch": 67, "duration": 2, "velocity": 93}, {"time": 1357, "pitch": 51, "duration": 22, "velocity": 88}, {"time": 1357, "pitch": 63, "duration": 6, "velocity": 84}, {"time": 1357, "pitch": 67, "duration": 4, "velocity": 82}, {"time": 1357, "pitch": 70, "duration": 5, "velocity": 87}, {"time": 1363, "pitch": 58, "duration": 9, "velocity": 83}, {"time": 1369, "pitch": 63, "duration": 11, "velocity": 75}, {"time": 1369, "pitch": 67, "duration": 11, "velocity": 76}, {"time": 1369, "pitch": 75, "duration": 12, "velocity": 86}, {"time": 1375, "pitch": 58, "duration": 6, "velocity": 77}, {"time": 1381, "pitch": 51, "duration": 45, "velocity": 88}, {"time": 1387, "pitch": 58, "duration": 10, "velocity": 73}, {"time": 1393, "pitch": 65, "duration": 9, "velocity": 86}, {"time": 1399, "pitch": 58, "duration": 8, "velocity": 72}, {"time": 1405, "pitch": 63, "duration": 10, "velocity": 82}, {"time": 1405, "pitch": 67, "duration": 10, "velocity": 82}, {"time": 1414, "pitch": 58, "duration": 4, "velocity": 70}, {"time": 1417, "pitch": 63, "duration": 7, "velocity": 82}, {"time": 1417, "pitch": 70, "duration": 18, "velocity": 86}, {"time": 1423, "pitch": 58, "duration": 6, "velocity": 66}, {"time": 1426, "pitch": 63, "duration": 5, "velocity": 71}, {"time": 1429, "pitch": 49, "duration": 44, "velocity": 87}, {"time": 1435, "pitch": 56, "duration": 8, "velocity": 74}, {"time": 1441, "pitch": 61, "duration": 7, "velocity": 81}, {"time": 1441, "pitch": 65, "duration": 7, "velocity": 81}, {"time": 1447, "pitch": 56, "duration": 10, "velocity": 73}, {"time": 1450, "pitch": 61, "duration": 2, "velocity": 81}, {"time": 1453, "pitch": 61, "duration": 10, "velocity": 83}, {"time": 1453, "pitch": 68, "duration": 11, "velocity": 85}, {"time": 1462, "pitch": 56, "duration": 4, "velocity": 71}, {"time": 1465, "pitch": 61, "duration": 6, "velocity": 88}, {"time": 1465, "pitch": 65, "duration": 10, "velocity": 91}, {"time": 1471, "pitch": 56, "duration": 2, "velocity": 77}, {"time": 1474, "pitch": 61, "duration": 5, "velocity": 78}, {"time": 1477, "pitch": 44, "duration": 45, "velocity": 84}, {"time": 1483, "pitch": 51, "duration": 9, "velocity": 73}, {"time": 1486, "pitch": 56, "duration": 5, "velocity": 79}, {"time": 1489, "pitch": 63, "duration": 9, "velocity": 83}, {"time": 1495, "pitch": 51, "duration": 20, "velocity": 75}, {"time": 1501, "pitch": 56, "duration": 7, "velocity": 80}, {"time": 1501, "pitch": 68, "duration": 6, "velocity": 80}, {"time": 1513, "pitch": 56, "duration": 6, "velocity": 86}, {"time": 1513, "pitch": 63, "duration": 10, "velocity": 84}, {"time": 1519, "pitch": 51, "duration": 4, "velocity": 80}, {"time": 1522, "pitch": 56, "duration": 4, "velocity": 91}, {"time": 1525, "pitch": 46, "duration": 22, "velocity": 86}, {"time": 1531, "pitch": 53, "duration": 16, "velocity": 71}, {"time": 1534, "pitch": 58, "duration": 4, "velocity": 79}, {"time": 1537, "pitch": 62, "duration": 3, "velocity": 82}, {"time": 1540, "pitch": 58, "duration": 8, "velocity": 85}, {"time": 1543, "pitch": 65, "duration": 5, "velocity": 83}, {"time": 1546, "pitch": 62, "duration": 3, "velocity": 82}, {"time": 1549, "pitch": 46, "duration": 16, "velocity": 84}, {"time": 1549, "pitch": 58, "duration": 13, "velocity": 73}, {"time": 1549, "pitch": 62, "duration": 8, "velocity": 73}, {"time": 1549, "pitch": 70, "duration": 18, "velocity": 86}, {"time": 1573, "pitch": 51, "duration": 22, "velocity": 87}, {"time": 1579, "pitch": 58, "duration": 9, "velocity": 74}, {"time": 1585, "pitch": 63, "duration": 7, "velocity": 84}, {"time": 1591, "pitch": 65, "duration": 4, "velocity": 83}, {"time": 1597, "pitch": 51, "duration": 22, "velocity": 87}, {"time": 1597, "pitch": 63, "duration": 10, "velocity": 77}, {"time": 1597, "pitch": 67, "duration": 10, "velocity": 75}, {"time": 1606, "pitch": 58, "duration": 4, "velocity": 72}, {"time": 1609, "pitch": 63, "duration": 7, "velocity": 84}, {"time": 1609, "pitch": 70, "duration": 14, "velocity": 87}, {"time": 1615, "pitch": 58, "duration": 5, "velocity": 73}, {"time": 1618, "pitch": 63, "duration": 4, "velocity": 72}, {"time": 1621, "pitch": 51, "duration": 45, "velocity": 89}, {"time": 1630, "pitch": 58, "duration": 6, "velocity": 74}, {"time": 1633, "pitch": 65, "duration": 12, "velocity": 84}, {"time": 1639, "pitch": 58, "duration": 7, "velocity": 69}, {"time": 1645, "pitch": 63, "duration": 7, "velocity": 75}, {"time": 1645, "pitch": 67, "duration": 6, "velocity": 76}, {"time": 1651, "pitch": 58, "duration": 8, "velocity": 69}, {"time": 1654, "pitch": 63, "duration": 3, "velocity": 75}, {"time": 1657, "pitch": 70, "duration": 7, "velocity": 86}, {"time": 1660, "pitch": 58, "duration": 8, "velocity": 77}, {"time": 1663, "pitch": 63, "duration": 5, "velocity": 77}, {"time": 1666, "pitch": 67, "duration": 2, "velocity": 73}, {"time": 1669, "pitch": 53, "duration": 13, "velocity": 87}, {"time": 1669, "pitch": 65, "duration": 6, "velocity": 82}, {"time": 1669, "pitch": 68, "duration": 6, "velocity": 76}, {"time": 1675, "pitch": 60, "duration": 6, "velocity": 74}, {"time": 1681, "pitch": 65, "duration": 10, "velocity": 87}, {"time": 1687, "pitch": 68, "duration": 4, "velocity": 73}, {"time": 1693, "pitch": 41, "duration": 14, "velocity": 81}, {"time": 1693, "pitch": 65, "duration": 8, "velocity": 83}, {"time": 1693, "pitch": 72, "duration": 10, "velocity": 86}, {"time": 1699, "pitch": 48, "duration": 8, "velocity": 68}, {"time": 1705, "pitch": 65, "duration": 3, "velocity": 89}, {"time": 1705, "pitch": 68, "duration": 6, "velocity": 86}, {"time": 1711, "pitch": 65, "duration": 2, "velocity": 86}, {"time": 1717, "pitch": 46, "duration": 22, "velocity": 85}, {"time": 1717, "pitch": 58, "duration": 12, "velocity": 77}, {"time": 1717, "pitch": 65, "duration": 14, "velocity": 77}, {"time": 1729, "pitch": 53, "duration": 10, "velocity": 83}, {"time": 1732, "pitch": 58, "duration": 4, "velocity": 85}, {"time": 1735, "pitch": 65, "duration": 5, "velocity": 83}, {"time": 1738, "pitch": 58, "duration": 2, "velocity": 81}, {"time": 1741, "pitch": 46, "duration": 15, "velocity": 85}, {"time": 1741, "pitch": 58, "duration": 8, "velocity": 86}, {"time": 1741, "pitch": 65, "duration": 6, "velocity": 87}, {"time": 1741, "pitch": 70, "duration": 7, "velocity": 87}, {"time": 1747, "pitch": 53, "duration": 8, "velocity": 72}, {"time": 1753, "pitch": 58, "duration": 5, "velocity": 84}, {"time": 1753, "pitch": 62, "duration": 4, "velocity": 87}, {"time": 1753, "pitch": 65, "duration": 6, "velocity": 89}, {"time": 1765, "pitch": 43, "duration": 15, "velocity": 84}, {"time": 1765, "pitch": 62, "duration": 9, "velocity": 81}, {"time": 1765, "pitch": 67, "duration": 16, "velocity": 78}, {"time": 1777, "pitch": 50, "duration": 3, "velocity": 78}, {"time": 1780, "pitch": 58, "duration": 5, "velocity": 91}, {"time": 1783, "pitch": 62, "duration": 4, "velocity": 88}, {"time": 1786, "pitch": 67, "duration": 3, "velocity": 81}, {"time": 1789, "pitch": 48, "duration": 15, "velocity": 87}, {"time": 1789, "pitch": 60, "duration": 8, "velocity": 82}, {"time": 1789, "pitch": 63, "duration": 8, "velocity": 87}, {"time": 1795, "pitch": 55, "duration": 8, "velocity": 70}, {"time": 1801, "pitch": 60, "duration": 3, "velocity": 87}, {"time": 1801, "pitch": 63, "duration": 5, "velocity": 86}, {"time": 1801, "pitch": 67, "duration": 5, "velocity": 85}, {"time": 1813, "pitch": 43, "duration": 16, "velocity": 85}, {"time": 1813, "pitch": 58, "duration": 10, "velocity": 77}, {"time": 1813, "pitch": 62, "duration": 13, "velocity": 74}, {"time": 1822, "pitch": 50, "duration": 7, "velocity": 65}, {"time": 1825, "pitch": 58, "duration": 6, "velocity": 76}, {"time": 1828, "pitch": 62, "duration": 4, "velocity": 84}, {"time": 1831, "pitch": 67, "duration": 4, "velocity": 86}, {"time": 1837, "pitch": 48, "duration": 14, "velocity": 84}, {"time": 1837, "pitch": 60, "duration": 9, "velocity": 78}, {"time": 1837, "pitch": 63, "duration": 8, "velocity": 82}, {"time": 1843, "pitch": 55, "duration": 7, "velocity": 74}, {"time": 1849, "pitch": 60, "duration": 3, "velocity": 83}, {"time": 1849, "pitch": 63, "duration": 4, "velocity": 86}, {"time": 1849, "pitch": 67, "duration": 4, "velocity": 82}, {"time": 1861, "pitch": 44, "duration": 20, "velocity": 80}, {"time": 1861, "pitch": 56, "duration": 9, "velocity": 79}, {"time": 1861, "pitch": 60, "duration": 9, "velocity": 81}, {"time": 1867, "pitch": 51, "duration": 9, "velocity": 79}, {"time": 1873, "pitch": 63, "duration": 5, "velocity": 87}, {"time": 1885, "pitch": 44, "duration": 22, "velocity": 86}, {"time": 1885, "pitch": 56, "duration": 8, "velocity": 77}, {"time": 1885, "pitch": 60, "duration": 7, "velocity": 81}, {"time": 1891, "pitch": 51, "duration": 15, "velocity": 73}, {"time": 1897, "pitch": 63, "duration": 6, "velocity": 89}, {"time": 1900, "pitch": 60, "duration": 3, "velocity": 82}, {"time": 1903, "pitch": 56, "duration": 4, "velocity": 81}, {"time": 1906, "pitch": 68, "duration": 4, "velocity": 85}, {"time": 1909, "pitch": 41, "duration": 20, "velocity": 87}, {"time": 1909, "pitch": 65, "duration": 8, "velocity": 86}, {"time": 1909, "pitch": 68, "duration": 1, "velocity": 80}, {"time": 1915, "pitch": 48, "duration": 11, "velocity": 79}, {"time": 1921, "pitch": 65, "duration": 6, "velocity": 97}, {"time": 1921, "pitch": 68, "duration": 7, "velocity": 86}, {"time": 1927, "pitch": 48, "duration": 3, "velocity": 82}, {"time": 1933, "pitch": 46, "duration": 21, "velocity": 87}, {"time": 1933, "pitch": 70, "duration": 8, "velocity": 82}, {"time": 1939, "pitch": 53, "duration": 8, "velocity": 76}, {"time": 1942, "pitch": 58, "duration": 5, "velocity": 86}, {"time": 1945, "pitch": 63, "duration": 3, "velocity": 86}, {"time": 1948, "pitch": 58, "duration": 3, "velocity": 82}, {"time": 1951, "pitch": 65, "duration": 4, "velocity": 88}, {"time": 1954, "pitch": 58, "duration": 4, "velocity": 82}, {"time": 1957, "pitch": 39, "duration": 23, "velocity": 90}, {"time": 1957, "pitch": 63, "duration": 4, "velocity": 85}, {"time": 1957, "pitch": 70, "duration": 10, "velocity": 87}, {"time": 1963, "pitch": 63, "duration": 5, "velocity": 87}, {"time": 1969, "pitch": 63, "duration": 3, "velocity": 87}, {"time": 1969, "pitch": 67, "duration": 3, "velocity": 88}, {"time": 1969, "pitch": 70, "duration": 4, "velocity": 87}, {"time": 1975, "pitch": 46, "duration": 5, "velocity": 74}, {"time": 1978, "pitch": 63, "duration": 3, "velocity": 78}, {"time": 1981, "pitch": 39, "duration": 17, "velocity": 87}, {"time": 1981, "pitch": 63, "duration": 6, "velocity": 70}, {"time": 1981, "pitch": 67, "duration": 3, "velocity": 76}, {"time": 1981, "pitch": 75, "duration": 6, "velocity": 91}, {"time": 1987, "pitch": 46, "duration": 9, "velocity": 63}, {"time": 1993, "pitch": 63, "duration": 3, "velocity": 88}, {"time": 1993, "pitch": 67, "duration": 7, "velocity": 93}, {"time": 1993, "pitch": 70, "duration": 7, "velocity": 88}, {"time": 1999, "pitch": 63, "duration": 5, "velocity": 84}, {"time": 2005, "pitch": 46, "duration": 23, "velocity": 90}, {"time": 2011, "pitch": 58, "duration": 8, "velocity": 87}, {"time": 2017, "pitch": 62, "duration": 3, "velocity": 93}, {"time": 2017, "pitch": 65, "duration": 5, "velocity": 89}, {"time": 2023, "pitch": 53, "duration": 6, "velocity": 79}, {"time": 2029, "pitch": 46, "duration": 19, "velocity": 86}, {"time": 2029, "pitch": 58, "duration": 7, "velocity": 86}, {"time": 2029, "pitch": 70, "duration": 7, "velocity": 86}, {"time": 2035, "pitch": 53, "duration": 8, "velocity": 73}, {"time": 2041, "pitch": 58, "duration": 5, "velocity": 93}, {"time": 2041, "pitch": 62, "duration": 4, "velocity": 97}, {"time": 2041, "pitch": 65, "duration": 5, "velocity": 95}, {"time": 2047, "pitch": 53, "duration": 4, "velocity": 84}, {"time": 2053, "pitch": 48, "duration": 19, "velocity": 88}, {"time": 2053, "pitch": 60, "duration": 8, "velocity": 85}, {"time": 2053, "pitch": 63, "duration": 8, "velocity": 86}, {"time": 2059, "pitch": 55, "duration": 8, "velocity": 70}, {"time": 2065, "pitch": 60, "duration": 6, "velocity": 89}, {"time": 2065, "pitch": 67, "duration": 7, "velocity": 88}, {"time": 2068, "pitch": 55, "duration": 3, "velocity": 81}, {"time": 2071, "pitch": 63, "duration": 3, "velocity": 92}, {"time": 2074, "pitch": 60, "duration": 5, "velocity": 82}, {"time": 2077, "pitch": 44, "duration": 20, "velocity": 83}, {"time": 2083, "pitch": 51, "duration": 8, "velocity": 81}, {"time": 2089, "pitch": 56, "duration": 6, "velocity": 82}, {"time": 2089, "pitch": 63, "duration": 6, "velocity": 86}, {"time": 2095, "pitch": 51, "duration": 5, "velocity": 81}, {"time": 2101, "pitch": 46, "duration": 22, "velocity": 86}, {"time": 2101, "pitch": 58, "duration": 7, "velocity": 82}, {"time": 2101, "pitch": 62, "duration": 7, "velocity": 76}, {"time": 2107, "pitch": 53, "duration": 16, "velocity": 79}, {"time": 2113, "pitch": 58, "duration": 12, "velocity": 87}, {"time": 2113, "pitch": 65, "duration": 7, "velocity": 88}, {"time": 2119, "pitch": 62, "duration": 2, "velocity": 92}, {"time": 2125, "pitch": 46, "duration": 21, "velocity": 87}, {"time": 2125, "pitch": 70, "duration": 10, "velocity": 90}, {"time": 2131, "pitch": 53, "duration": 7, "velocity": 83}, {"time": 2134, "pitch": 58, "duration": 2, "velocity": 87}, {"time": 2137, "pitch": 58, "duration": 3, "velocity": 97}, {"time": 2137, "pitch": 65, "duration": 3, "velocity": 93}, {"time": 2140, "pitch": 53, "duration": 6, "velocity": 88}, {"time": 2143, "pitch": 62, "duration": 3, "velocity": 93}, {"time": 2146, "pitch": 58, "duration": 2, "velocity": 86}, {"time": 2149, "pitch": 51, "duration": 23, "velocity": 86}, {"time": 2149, "pitch": 58, "duration": 3, "velocity": 87}, {"time": 2149, "pitch": 63, "duration": 7, "velocity": 88}, {"time": 2155, "pitch": 58, "duration": 4, "velocity": 85}, {"time": 2161, "pitch": 67, "duration": 5, "velocity": 88}, {"time": 2164, "pitch": 58, "duration": 3, "velocity": 84}, {"time": 2167, "pitch": 63, "duration": 4, "velocity": 75}, {"time": 2170, "pitch": 58, "duration": 3, "velocity": 75}, {"time": 2173, "pitch": 51, "duration": 18, "velocity": 87}, {"time": 2173, "pitch": 58, "duration": 3, "velocity": 81}, {"time": 2173, "pitch": 67, "duration": 10, "velocity": 83}, {"time": 2179, "pitch": 58, "duration": 3, "velocity": 81}, {"time": 2185, "pitch": 58, "duration": 3, "velocity": 87}, {"time": 2185, "pitch": 63, "duration": 6, "velocity": 86}, {"time": 2191, "pitch": 58, "duration": 2, "velocity": 87}, {"time": 2197, "pitch": 49, "duration": 23, "velocity": 88}, {"time": 2197, "pitch": 56, "duration": 3, "velocity": 85}, {"time": 2197, "pitch": 61, "duration": 7, "velocity": 82}, {"time": 2203, "pitch": 56, "duration": 7, "velocity": 88}, {"time": 2209, "pitch": 61, "duration": 7, "velocity": 86}, {"time": 2209, "pitch": 65, "duration": 8, "velocity": 87}, {"time": 2215, "pitch": 56, "duration": 8, "velocity": 87}, {"time": 2221, "pitch": 49, "duration": 16, "velocity": 87}, {"time": 2221, "pitch": 61, "duration": 2, "velocity": 71}, {"time": 2221, "pitch": 68, "duration": 10, "velocity": 86}, {"time": 2227, "pitch": 56, "duration": 4, "velocity": 80}, {"time": 2233, "pitch": 56, "duration": 7, "velocity": 90}, {"time": 2233, "pitch": 65, "duration": 7, "velocity": 88}, {"time": 2239, "pitch": 61, "duration": 2, "velocity": 83}, {"time": 2245, "pitch": 47, "duration": 16, "velocity": 87}, {"time": 2245, "pitch": 59, "duration": 6, "velocity": 80}, {"time": 2245, "pitch": 63, "duration": 13, "velocity": 80}, {"time": 2251, "pitch": 54, "duration": 8, "velocity": 74}, {"time": 2257, "pitch": 59, "duration": 4, "velocity": 95}, {"time": 2260, "pitch": 54, "duration": 7, "velocity": 86}, {"time": 2263, "pitch": 59, "duration": 4, "velocity": 89}, {"time": 2266, "pitch": 63, "duration": 4, "velocity": 82}, {"time": 2269, "pitch": 46, "duration": 14, "velocity": 89}, {"time": 2272, "pitch": 53, "duration": 8, "velocity": 82}, {"time": 2275, "pitch": 58, "duration": 5, "velocity": 86}, {"time": 2278, "pitch": 62, "duration": 7, "velocity": 92}, {"time": 2281, "pitch": 50, "duration": 5, "velocity": 88}, {"time": 2284, "pitch": 53, "duration": 3, "velocity": 81}, {"time": 2287, "pitch": 58, "duration": 5, "velocity": 87}, {"time": 2290, "pitch": 62, "duration": 2, "velocity": 86}, {"time": 2293, "pitch": 39, "duration": 3, "velocity": 88}, {"time": 2293, "pitch": 58, "duration": 5, "velocity": 80}, {"time": 2293, "pitch": 63, "duration": 6, "velocity": 86}, {"time": 2299, "pitch": 51, "duration": 17, "velocity": 77}, {"time": 2305, "pitch": 58, "duration": 11, "velocity": 86}, {"time": 2308, "pitch": 63, "duration": 4, "velocity": 87}, {"time": 2311, "pitch": 65, "duration": 4, "velocity": 90}, {"time": 2314, "pitch": 67, "duration": 2, "velocity": 93}, {"time": 2317, "pitch": 51, "duration": 22, "velocity": 88}, {"time": 2317, "pitch": 63, "duration": 6, "velocity": 84}, {"time": 2317, "pitch": 67, "duration": 4, "velocity": 82}, {"time": 2317, "pitch": 70, "duration": 5, "velocity": 87}, {"time": 2323, "pitch": 58, "duration": 9, "velocity": 83}, {"time": 2329, "pitch": 63, "duration": 11, "velocity": 75}, {"time": 2329, "pitch": 67, "duration": 11, "velocity": 76}, {"time": 2329, "pitch": 75, "duration": 12, "velocity": 86}, {"time": 2335, "pitch": 58, "duration": 6, "velocity": 77}, {"time": 2341, "pitch": 47, "duration": 16, "velocity": 90}, {"time": 2341, "pitch": 59, "duration": 10, "velocity": 87}, {"time": 2341, "pitch": 63, "duration": 10, "velocity": 87}, {"time": 2347, "pitch": 54, "duration": 9, "velocity": 71}, {"time": 2353, "pitch": 59, "duration": 2, "velocity": 86}, {"time": 2353, "pitch": 63, "duration": 2, "velocity": 87}, {"time": 2353, "pitch": 66, "duration": 2, "velocity": 81}, {"time": 2359, "pitch": 59, "duration": 2, "velocity": 73}, {"time": 2359, "pitch": 63, "duration": 1, "velocity": 75}, {"time": 2359, "pitch": 66, "duration": 1, "velocity": 73}, {"time": 2362, "pitch": 59, "duration": 4, "velocity": 87}, {"time": 2362, "pitch": 63, "duration": 4, "velocity": 88}, {"time": 2362, "pitch": 66, "duration": 5, "velocity": 87}, {"time": 2371, "pitch": 47, "duration": 12, "velocity": 72}, {"time": 2374, "pitch": 59, "duration": 4, "velocity": 80}, {"time": 2377, "pitch": 63, "duration": 2, "velocity": 88}, {"time": 2380, "pitch": 59, "duration": 2, "velocity": 90}, {"time": 2380, "pitch": 63, "duration": 2, "velocity": 93}, {"time": 2380, "pitch": 66, "duration": 4, "velocity": 89}, {"time": 2386, "pitch": 59, "duration": 2, "velocity": 76}, {"time": 2389, "pitch": 39, "duration": 2, "velocity": 88}, {"time": 2389, "pitch": 63, "duration": 12, "velocity": 83}, {"time": 2389, "pitch": 67, "duration": 12, "velocity": 83}, {"time": 2389, "pitch": 70, "duration": 13, "velocity": 84}, {"time": 2395, "pitch": 51, "duration": 7, "velocity": 73}, {"time": 2401, "pitch": 58, "duration": 2, "velocity": 75}, {"time": 2404, "pitch": 51, "duration": 2, "velocity": 87}, {"time": 2404, "pitch": 58, "duration": 2, "velocity": 87}, {"time": 2404, "pitch": 63, "duration": 3, "velocity": 82}, {"time": 2404, "pitch": 67, "duration": 2, "velocity": 86}, {"time": 2404, "pitch": 70, "duration": 3, "velocity": 86}, {"time": 2410, "pitch": 51, "duration": 26, "velocity": 88}, {"time": 2410, "pitch": 58, "duration": 10, "velocity": 86}, {"time": 2410, "pitch": 63, "duration": 14, "velocity": 86}, {"time": 2410, "pitch": 67, "duration": 15, "velocity": 82}, {"time": 2410, "pitch": 70, "duration": 17, "velocity": 82}, {"time": 2422, "pitch": 58, "duration": 7, "velocity": 81}, {"time": 2425, "pitch": 63, "duration": 2, "velocity": 88}, {"time": 2428, "pitch": 63, "duration": 4, "velocity": 95}, {"time": 2428, "pitch": 67, "duration": 5, "velocity": 92}, {"time": 2428, "pitch": 70, "duration": 8, "velocity": 88}, {"time": 2431, "pitch": 58, "duration": 5, "velocity": 84}, {"time": 2434, "pitch": 63, "duration": 3, "velocity": 90}, {"time": 2437, "pitch": 44, "duration": 17, "velocity": 86}, {"time": 2437, "pitch": 63, "duration": 3, "velocity": 85}, {"time": 2437, "pitch": 68, "duration": 2, "velocity": 82}, {"time": 2449, "pitch": 56, "duration": 2, "velocity": 87}, {"time": 2449, "pitch": 63, "duration": 2, "velocity": 87}, {"time": 2455, "pitch": 44, "duration": 2, "velocity": 86}, {"time": 2455, "pitch": 56, "duration": 2, "velocity": 83}, {"time": 2455, "pitch": 63, "duration": 2, "velocity": 86}, {"time": 2458, "pitch": 44, "duration": 2, "velocity": 86}, {"time": 2458, "pitch": 56, "duration": 2, "velocity": 88}, {"time": 2458, "pitch": 63, "duration": 2, "velocity": 88}, {"time": 2467, "pitch": 44, "duration": 14, "velocity": 85}, {"time": 2470, "pitch": 51, "duration": 10, "velocity": 79}, {"time": 2473, "pitch": 56, "duration": 5, "velocity": 89}, {"time": 2476, "pitch": 63, "duration": 2, "velocity": 87}, {"time": 2479, "pitch": 56, "duration": 6, "velocity": 82}, {"time": 2479, "pitch": 63, "duration": 6, "velocity": 84}, {"time": 2479, "pitch": 68, "duration": 6, "velocity": 87}, {"time": 2485, "pitch": 42, "duration": 8, "velocity": 87}, {"time": 2485, "pitch": 54, "duration": 4, "velocity": 80}, {"time": 2485, "pitch": 58, "duration": 5, "velocity": 80}, {"time": 2485, "pitch": 61, "duration": 1, "velocity": 77}, {"time": 2491, "pitch": 49, "duration": 3, "velocity": 79}, {"time": 2494, "pitch": 42, "duration": 2, "velocity": 87}, {"time": 2494, "pitch": 58, "duration": 2, "velocity": 90}, {"time": 2494, "pitch": 61, "duration": 2, "velocity": 95}, {"time": 2494, "pitch": 66, "duration": 2, "velocity": 87}, {"time": 2500, "pitch": 42, "duration": 2, "velocity": 86}, {"time": 2500, "pitch": 58, "duration": 2, "velocity": 86}, {"time": 2500, "pitch": 61, "duration": 2, "velocity": 88}, {"time": 2500, "pitch": 66, "duration": 2, "velocity": 86}, {"time": 2509, "pitch": 42, "duration": 21, "velocity": 86}, {"time": 2509, "pitch": 58, "duration": 7, "velocity": 80}, {"time": 2509, "pitch": 61, "duration": 7, "velocity": 80}, {"time": 2509, "pitch": 66, "duration": 8, "velocity": 82}, {"time": 2515, "pitch": 49, "duration": 7, "velocity": 79}, {"time": 2518, "pitch": 58, "duration": 2, "velocity": 83}, {"time": 2521, "pitch": 58, "duration": 3, "velocity": 90}, {"time": 2521, "pitch": 61, "duration": 4, "velocity": 97}, {"time": 2524, "pitch": 49, "duration": 5, "velocity": 89}, {"time": 2527, "pitch": 58, "duration": 7, "velocity": 86}, {"time": 2527, "pitch": 61, "duration": 7, "velocity": 88}, {"time": 2527, "pitch": 66, "duration": 7, "velocity": 89}, {"time": 2533, "pitch": 47, "duration": 16, "velocity": 90}, {"time": 2533, "pitch": 59, "duration": 10, "velocity": 87}, {"time": 2533, "pitch": 63, "duration": 10, "velocity": 87}, {"time": 2539, "pitch": 54, "duration": 9, "velocity": 71}, {"time": 2545, "pitch": 59, "duration": 2, "velocity": 86}, {"time": 2545, "pitch": 63, "duration": 2, "velocity": 87}, {"time": 2545, "pitch": 66, "duration": 2, "velocity": 81}, {"time": 2551, "pitch": 59, "duration": 2, "velocity": 73}, {"time": 2551, "pitch": 63, "duration": 1, "velocity": 75}, {"time": 2551, "pitch": 66, "duration": 1, "velocity": 73}, {"time": 2554, "pitch": 59, "duration": 4, "velocity": 87}, {"time": 2554, "pitch": 63, "duration": 4, "velocity": 88}, {"time": 2554, "pitch": 66, "duration": 5, "velocity": 87}, {"time": 2563, "pitch": 47, "duration": 12, "velocity": 72}, {"time": 2566, "pitch": 59, "duration": 4, "velocity": 80}, {"time": 2569, "pitch": 63, "duration": 2, "velocity": 88}, {"time": 2572, "pitch": 59, "duration": 2, "velocity": 90}, {"time": 2572, "pitch": 63, "duration": 2, "velocity": 93}, {"time": 2572, "pitch": 66, "duration": 4, "velocity": 89}, {"time": 2578, "pitch": 59, "duration": 2, "velocity": 76}, {"time": 2581, "pitch": 39, "duration": 2, "velocity": 88}, {"time": 2581, "pitch": 63, "duration": 12, "velocity": 83}, {"time": 2581, "pitch": 67, "duration": 12, "velocity": 83}, {"time": 2581, "pitch": 70, "duration": 13, "velocity": 84}, {"time": 2587, "pitch": 51, "duration": 7, "velocity": 73}, {"time": 2593, "pitch": 58, "duration": 2, "velocity": 75}, {"time": 2596, "pitch": 51, "duration": 2, "velocity": 87}, {"time": 2596, "pitch": 58, "duration": 2, "velocity": 87}, {"time": 2596, "pitch": 63, "duration": 3, "velocity": 82}, {"time": 2596, "pitch": 67, "duration": 2, "velocity": 86}, {"time": 2596, "pitch": 70, "duration": 3, "velocity": 86}, {"time": 2602, "pitch": 51, "duration": 26, "velocity": 88}, {"time": 2602, "pitch": 58, "duration": 10, "velocity": 86}, {"time": 2602, "pitch": 63, "duration": 14, "velocity": 86}, {"time": 2602, "pitch": 67, "duration": 15, "velocity": 82}, {"time": 2602, "pitch": 70, "duration": 17, "velocity": 82}, {"time": 2614, "pitch": 58, "duration": 7, "velocity": 81}, {"time": 2617, "pitch": 63, "duration": 2, "velocity": 88}, {"time": 2620, "pitch": 63, "duration": 4, "velocity": 95}, {"time": 2620, "pitch": 67, "duration": 5, "velocity": 92}, {"time": 2620, "pitch": 70, "duration": 8, "velocity": 88}, {"time": 2623, "pitch": 58, "duration": 5, "velocity": 84}, {"time": 2626, "pitch": 63, "duration": 3, "velocity": 90}, {"time": 2629, "pitch": 44, "duration": 10, "velocity": 88}, {"time": 2629, "pitch": 56, "duration": 4, "velocity": 86}, {"time": 2629, "pitch": 60, "duration": 4, "velocity": 86}, {"time": 2629, "pitch": 63, "duration": 4, "velocity": 85}, {"time": 2635, "pitch": 56, "duration": 2, "velocity": 76}, {"time": 2635, "pitch": 60, "duration": 2, "velocity": 72}, {"time": 2635, "pitch": 63, "duration": 2, "velocity": 76}, {"time": 2641, "pitch": 46, "duration": 8, "velocity": 89}, {"time": 2641, "pitch": 58, "duration": 9, "velocity": 72}, {"time": 2641, "pitch": 62, "duration": 4, "velocity": 88}, {"time": 2653, "pitch": 47, "duration": 10, "velocity": 100}, {"time": 2653, "pitch": 59, "duration": 3, "velocity": 88}, {"time": 2653, "pitch": 63, "duration": 3, "velocity": 88}, {"time": 2659, "pitch": 54, "duration": 4, "velocity": 75}, {"time": 2665, "pitch": 47, "duration": 3, "velocity": 86}, {"time": 2665, "pitch": 54, "duration": 5, "velocity": 87}, {"time": 2665, "pitch": 59, "duration": 3, "velocity": 91}, {"time": 2665, "pitch": 63, "duration": 4, "velocity": 89}, {"time": 2671, "pitch": 47, "duration": 1, "velocity": 92}, {"time": 2677, "pitch": 46, "duration": 23, "velocity": 91}, {"time": 2677, "pitch": 58, "duration": 6, "velocity": 87}, {"time": 2677, "pitch": 63, "duration": 7, "velocity": 86}, {"time": 2683, "pitch": 53, "duration": 17, "velocity": 81}, {"time": 2686, "pitch": 58, "duration": 2, "velocity": 102}, {"time": 2692, "pitch": 58, "duration": 2, "velocity": 91}, {"time": 2692, "pitch": 63, "duration": 2, "velocity": 89}, {"time": 2698, "pitch": 58, "duration": 10, "velocity": 95}, {"time": 2698, "pitch": 63, "duration": 11, "velocity": 91}, {"time": 2707, "pitch": 46, "duration": 17, "velocity": 89}, {"time": 2710, "pitch": 58, "duration": 2, "velocity": 95}, {"time": 2713, "pitch": 53, "duration": 6, "velocity": 88}, {"time": 2713, "pitch": 58, "duration": 2, "velocity": 100}, {"time": 2713, "pitch": 63, "duration": 2, "velocity": 103}, {"time": 2716, "pitch": 58, "duration": 5, "velocity": 89}, {"time": 2716, "pitch": 63, "duration": 6, "velocity": 95}, {"time": 2719, "pitch": 53, "duration": 5, "velocity": 86}, {"time": 2722, "pitch": 58, "duration": 2, "velocity": 88}, {"time": 2725, "pitch": 46, "duration": 23, "velocity": 90}, {"time": 2725, "pitch": 58, "duration": 7, "velocity": 91}, {"time": 2725, "pitch": 62, "duration": 7, "velocity": 93}, {"time": 2731, "pitch": 53, "duration": 11, "velocity": 86}, {"time": 2734, "pitch": 58, "duration": 3, "velocity": 82}, {"time": 2734, "pitch": 62, "duration": 2, "velocity": 82}, {"time": 2734, "pitch": 65, "duration": 3, "velocity": 88}, {"time": 2740, "pitch": 58, "duration": 2, "velocity": 86}, {"time": 2740, "pitch": 70, "duration": 2, "velocity": 86}, {"time": 2749, "pitch": 46, "duration": 8, "velocity": 92}, {"time": 2749, "pitch": 53, "duration": 7, "velocity": 93}, {"time": 2749, "pitch": 70, "duration": 5, "velocity": 81}, {"time": 2749, "pitch": 74, "duration": 5, "velocity": 86}, {"time": 2749, "pitch": 82, "duration": 5, "velocity": 89}, {"time": 2755, "pitch": 70, "duration": 1, "velocity": 82}, {"time": 2758, "pitch": 70, "duration": 2, "velocity": 87}, {"time": 2761, "pitch": 46, "duration": 14, "velocity": 88}, {"time": 2761, "pitch": 53, "duration": 14, "velocity": 90}, {"time": 2761, "pitch": 70, "duration": 4, "velocity": 103}, {"time": 2764, "pitch": 72, "duration": 2, "velocity": 88}, {"time": 2767, "pitch": 74, "duration": 2, "velocity": 102}, {"time": 2773, "pitch": 39, "duration": 23, "velocity": 90}, {"time": 2773, "pitch": 63, "duration": 4, "velocity": 85}, {"time": 2773, "pitch": 70, "duration": 10, "velocity": 87}, {"time": 2779, "pitch": 63, "duration": 5, "velocity": 87}, {"time": 2785, "pitch": 63, "duration": 3, "velocity": 87}, {"time": 2785, "pitch": 67, "duration": 3, "velocity": 88}, {"time": 2785, "pitch": 70, "duration": 4, "velocity": 87}, {"time": 2791, "pitch": 46, "duration": 5, "velocity": 74}, {"time": 2794, "pitch": 63, "duration": 3, "velocity": 78}, {"time": 2797, "pitch": 39, "duration": 17, "velocity": 87}, {"time": 2797, "pitch": 63, "duration": 6, "velocity": 70}, {"time": 2797, "pitch": 67, "duration": 3, "velocity": 76}, {"time": 2797, "pitch": 75, "duration": 6, "velocity": 91}, {"time": 2803, "pitch": 46, "duration": 9, "velocity": 63}, {"time": 2809, "pitch": 63, "duration": 3, "velocity": 88}, {"time": 2809, "pitch": 67, "duration": 7, "velocity": 93}, {"time": 2809, "pitch": 70, "duration": 7, "velocity": 88}, {"time": 2815, "pitch": 63, "duration": 5, "velocity": 84}, {"time": 2821, "pitch": 46, "duration": 23, "velocity": 90}, {"time": 2827, "pitch": 58, "duration": 8, "velocity": 87}, {"time": 2833, "pitch": 62, "duration": 3, "velocity": 93}, {"time": 2833, "pitch": 65, "duration": 5, "velocity": 89}, {"time": 2839, "pitch": 53, "duration": 6, "velocity": 79}, {"time": 2845, "pitch": 46, "duration": 19, "velocity": 86}, {"time": 2845, "pitch": 58, "duration": 7, "velocity": 86}, {"time": 2845, "pitch": 70, "duration": 7, "velocity": 86}, {"time": 2851, "pitch": 53, "duration": 8, "velocity": 73}, {"time": 2857, "pitch": 58, "duration": 5, "velocity": 93}, {"time": 2857, "pitch": 62, "duration": 4, "velocity": 97}, {"time": 2857, "pitch": 65, "duration": 5, "velocity": 95}, {"time": 2863, "pitch": 53, "duration": 4, "velocity": 84}, {"time": 2869, "pitch": 48, "duration": 19, "velocity": 88}, {"time": 2869, "pitch": 60, "duration": 8, "velocity": 85}, {"time": 2869, "pitch": 63, "duration": 8, "velocity": 86}, {"time": 2875, "pitch": 55, "duration": 8, "velocity": 70}, {"time": 2881, "pitch": 60, "duration": 6, "velocity": 89}, {"time": 2881, "pitch": 67, "duration": 7, "velocity": 88}, {"time": 2884, "pitch": 55, "duration": 3, "velocity": 81}, {"time": 2887, "pitch": 63, "duration": 3, "velocity": 92}, {"time": 2890, "pitch": 60, "duration": 5, "velocity": 82}, {"time": 2893, "pitch": 44, "duration": 20, "velocity": 83}, {"time": 2899, "pitch": 51, "duration": 8, "velocity": 81}, {"time": 2905, "pitch": 56, "duration": 6, "velocity": 82}, {"time": 2905, "pitch": 63, "duration": 6, "velocity": 86}, {"time": 2911, "pitch": 51, "duration": 5, "velocity": 81}, {"time": 2917, "pitch": 46, "duration": 22, "velocity": 86}, {"time": 2917, "pitch": 58, "duration": 7, "velocity": 82}, {"time": 2917, "pitch": 62, "duration": 7, "velocity": 76}, {"time": 2923, "pitch": 53, "duration": 16, "velocity": 79}, {"time": 2929, "pitch": 58, "duration": 12, "velocity": 87}, {"time": 2929, "pitch": 65, "duration": 7, "velocity": 88}, {"time": 2935, "pitch": 62, "duration": 2, "velocity": 92}, {"time": 2941, "pitch": 46, "duration": 21, "velocity": 87}, {"time": 2941, "pitch": 70, "duration": 10, "velocity": 90}, {"time": 2947, "pitch": 53, "duration": 7, "velocity": 83}, {"time": 2950, "pitch": 58, "duration": 2, "velocity": 87}, {"time": 2953, "pitch": 58, "duration": 3, "velocity": 97}, {"time": 2953, "pitch": 65, "duration": 3, "velocity": 93}, {"time": 2956, "pitch": 53, "duration": 6, "velocity": 88}, {"time": 2959, "pitch": 62, "duration": 3, "velocity": 93}, {"time": 2962, "pitch": 58, "duration": 2, "velocity": 86}, {"time": 2965, "pitch": 51, "duration": 23, "velocity": 86}, {"time": 2965, "pitch": 58, "duration": 3, "velocity": 87}, {"time": 2965, "pitch": 63, "duration": 7, "velocity": 88}, {"time": 2971, "pitch": 58, "duration": 4, "velocity": 85}, {"time": 2977, "pitch": 67, "duration": 5, "velocity": 88}, {"time": 2980, "pitch": 58, "duration": 3, "velocity": 84}, {"time": 2983, "pitch": 63, "duration": 4, "velocity": 75}, {"time": 2986, "pitch": 58, "duration": 3, "velocity": 75}, {"time": 2989, "pitch": 51, "duration": 18, "velocity": 87}, {"time": 2989, "pitch": 58, "duration": 3, "velocity": 81}, {"time": 2989, "pitch": 67, "duration": 10, "velocity": 83}, {"time": 2995, "pitch": 58, "duration": 3, "velocity": 81}, {"time": 3001, "pitch": 58, "duration": 3, "velocity": 87}, {"time": 3001, "pitch": 63, "duration": 6, "velocity": 86}, {"time": 3007, "pitch": 58, "duration": 2, "velocity": 87}, {"time": 3013, "pitch": 49, "duration": 23, "velocity": 88}, {"time": 3013, "pitch": 56, "duration": 3, "velocity": 85}, {"time": 3013, "pitch": 61, "duration": 7, "velocity": 82}, {"time": 3019, "pitch": 56, "duration": 7, "velocity": 88}, {"time": 3025, "pitch": 61, "duration": 7, "velocity": 86}, {"time": 3025, "pitch": 65, "duration": 8, "velocity": 87}, {"time": 3031, "pitch": 56, "duration": 8, "velocity": 87}, {"time": 3037, "pitch": 49, "duration": 16, "velocity": 87}, {"time": 3037, "pitch": 61, "duration": 2, "velocity": 71}, {"time": 3037, "pitch": 68, "duration": 10, "velocity": 86}, {"time": 3043, "pitch": 56, "duration": 4, "velocity": 80}, {"time": 3049, "pitch": 56, "duration": 7, "velocity": 90}, {"time": 3049, "pitch": 65, "duration": 7, "velocity": 88}, {"time": 3055, "pitch": 61, "duration": 2, "velocity": 83}, {"time": 3061, "pitch": 47, "duration": 16, "velocity": 87}, {"time": 3061, "pitch": 59, "duration": 6, "velocity": 80}, {"time": 3061, "pitch": 63, "duration": 13, "velocity": 80}, {"time": 3067, "pitch": 54, "duration": 8, "velocity": 74}, {"time": 3073, "pitch": 59, "duration": 4, "velocity": 95}, {"time": 3076, "pitch": 54, "duration": 7, "velocity": 86}, {"time": 3079, "pitch": 59, "duration": 4, "velocity": 89}, {"time": 3082, "pitch": 63, "duration": 4, "velocity": 82}, {"time": 3085, "pitch": 46, "duration": 14, "velocity": 89}, {"time": 3088, "pitch": 53, "duration": 8, "velocity": 82}, {"time": 3091, "pitch": 58, "duration": 5, "velocity": 86}, {"time": 3094, "pitch": 62, "duration": 7, "velocity": 92}, {"time": 3097, "pitch": 50, "duration": 5, "velocity": 88}, {"time": 3100, "pitch": 53, "duration": 3, "velocity": 81}, {"time": 3103, "pitch": 58, "duration": 5, "velocity": 87}, {"time": 3106, "pitch": 62, "duration": 2, "velocity": 86}, {"time": 3109, "pitch": 46, "duration": 23, "velocity": 90}, {"time": 3109, "pitch": 65, "duration": 3, "velocity": 93}, {"time": 3109, "pitch": 70, "duration": 2, "velocity": 93}, {"time": 3115, "pitch": 53, "duration": 5, "velocity": 79}, {"time": 3118, "pitch": 58, "duration": 3, "velocity": 88}, {"time": 3118, "pitch": 65, "duration": 3, "velocity": 90}, {"time": 3121, "pitch": 53, "duration": 5, "velocity": 79}, {"time": 3124, "pitch": 58, "duration": 3, "velocity": 95}, {"time": 3124, "pitch": 62, "duration": 2, "velocity": 90}, {"time": 3124, "pitch": 65, "duration": 4, "velocity": 92}, {"time": 3127, "pitch": 53, "duration": 2, "velocity": 63}, {"time": 3130, "pitch": 58, "duration": 2, "velocity": 91}, {"time": 3133, "pitch": 46, "duration": 22, "velocity": 90}, {"time": 3133, "pitch": 58, "duration": 3, "velocity": 83}, {"time": 3133, "pitch": 65, "duration": 3, "velocity": 91}, {"time": 3133, "pitch": 70, "duration": 4, "velocity": 88}, {"time": 3139, "pitch": 53, "duration": 7, "velocity": 88}, {"time": 3142, "pitch": 70, "duration": 2, "velocity": 86}, {"time": 3142, "pitch": 82, "duration": 1, "velocity": 86}, {"time": 3145, "pitch": 70, "duration": 3, "velocity": 93}, {"time": 3145, "pitch": 82, "duration": 3, "velocity": 92}, {"time": 3148, "pitch": 53, "duration": 8, "velocity": 93}, {"time": 3151, "pitch": 70, "duration": 6, "velocity": 88}, {"time": 3151, "pitch": 74, "duration": 6, "velocity": 87}, {"time": 3157, "pitch": 39, "duration": 23, "velocity": 90}, {"time": 3157, "pitch": 63, "duration": 4, "velocity": 85}, {"time": 3157, "pitch": 70, "duration": 10, "velocity": 87}, {"time": 3163, "pitch": 63, "duration": 5, "velocity": 87}, {"time": 3169, "pitch": 63, "duration": 3, "velocity": 87}, {"time": 3169, "pitch": 67, "duration": 3, "velocity": 88}, {"time": 3169, "pitch": 70, "duration": 4, "velocity": 87}, {"time": 3175, "pitch": 46, "duration": 5, "velocity": 74}, {"time": 3178, "pitch": 63, "duration": 3, "velocity": 78}, {"time": 3181, "pitch": 39, "duration": 17, "velocity": 87}, {"time": 3181, "pitch": 63, "duration": 6, "velocity": 70}, {"time": 3181, "pitch": 67, "duration": 3, "velocity": 76}, {"time": 3181, "pitch": 75, "duration": 6, "velocity": 91}, {"time": 3187, "pitch": 46, "duration": 9, "velocity": 63}, {"time": 3193, "pitch": 63, "duration": 3, "velocity": 88}, {"time": 3193, "pitch": 67, "duration": 7, "velocity": 93}, {"time": 3193, "pitch": 70, "duration": 7, "velocity": 88}, {"time": 3199, "pitch": 63, "duration": 5, "velocity": 84}, {"time": 3205, "pitch": 46, "duration": 23, "velocity": 90}, {"time": 3211, "pitch": 58, "duration": 8, "velocity": 87}, {"time": 3217, "pitch": 62, "duration": 3, "velocity": 93}, {"time": 3217, "pitch": 65, "duration": 5, "velocity": 89}, {"time": 3223, "pitch": 53, "duration": 6, "velocity": 79}, {"time": 3229, "pitch": 46, "duration": 19, "velocity": 86}, {"time": 3229, "pitch": 58, "duration": 7, "velocity": 86}, {"time": 3229, "pitch": 70, "duration": 7, "velocity": 86}, {"time": 3235, "pitch": 53, "duration": 8, "velocity": 73}, {"time": 3241, "pitch": 58, "duration": 5, "velocity": 93}, {"time": 3241, "pitch": 62, "duration": 4, "velocity": 97}, {"time": 3241, "pitch": 65, "duration": 5, "velocity": 95}, {"time": 3247, "pitch": 53, "duration": 4, "velocity": 84}, {"time": 3253, "pitch": 48, "duration": 19, "velocity": 88}, {"time": 3253, "pitch": 60, "duration": 8, "velocity": 85}, {"time": 3253, "pitch": 63, "duration": 8, "velocity": 86}, {"time": 3259, "pitch": 55, "duration": 8, "velocity": 70}, {"time": 3265, "pitch": 60, "duration": 6, "velocity": 89}, {"time": 3265, "pitch": 67, "duration": 7, "velocity": 88}, {"time": 3268, "pitch": 55, "duration": 3, "velocity": 81}, {"time": 3271, "pitch": 63, "duration": 3, "velocity": 92}, {"time": 3274, "pitch": 60, "duration": 5, "velocity": 82}, {"time": 3277, "pitch": 44, "duration": 20, "velocity": 83}, {"time": 3283, "pitch": 51, "duration": 8, "velocity": 81}, {"time": 3289, "pitch": 56, "duration": 6, "velocity": 82}, {"time": 3289, "pitch": 63, "duration": 6, "velocity": 86}, {"time": 3295, "pitch": 51, "duration": 5, "velocity": 81}, {"time": 3301, "pitch": 46, "duration": 22, "velocity": 86}, {"time": 3301, "pitch": 58, "duration": 7, "velocity": 82}, {"time": 3301, "pitch": 62, "duration": 7, "velocity": 76}, {"time": 3307, "pitch": 53, "duration": 16, "velocity": 79}, {"time": 3313, "pitch": 58, "duration": 12, "velocity": 87}, {"time": 3313, "pitch": 65, "duration": 7, "velocity": 88}, {"time": 3319, "pitch": 62, "duration": 2, "velocity": 92}, {"time": 3325, "pitch": 46, "duration": 21, "velocity": 87}, {"time": 3325, "pitch": 70, "duration": 10, "velocity": 90}, {"time": 3331, "pitch": 53, "duration": 7, "velocity": 83}, {"time": 3334, "pitch": 58, "duration": 2, "velocity": 87}, {"time": 3337, "pitch": 58, "duration": 3, "velocity": 97}, {"time": 3337, "pitch": 65, "duration": 3, "velocity": 93}, {"time": 3340, "pitch": 53, "duration": 6, "velocity": 88}, {"time": 3343, "pitch": 62, "duration": 3, "velocity": 93}, {"time": 3346, "pitch": 58, "duration": 2, "velocity": 86}, {"time": 3349, "pitch": 51, "duration": 23, "velocity": 86}, {"time": 3349, "pitch": 58, "duration": 3, "velocity": 87}, {"time": 3349, "pitch": 63, "duration": 7, "velocity": 88}, {"time": 3355, "pitch": 58, "duration": 4, "velocity": 85}, {"time": 3361, "pitch": 67, "duration": 5, "velocity": 88}, {"time": 3364, "pitch": 58, "duration": 3, "velocity": 84}, {"time": 3367, "pitch": 63, "duration": 4, "velocity": 75}, {"time": 3370, "pitch": 58, "duration": 3, "velocity": 75}, {"time": 3373, "pitch": 51, "duration": 18, "velocity": 87}, {"time": 3373, "pitch": 58, "duration": 3, "velocity": 81}, {"time": 3373, "pitch": 67, "duration": 10, "velocity": 83}, {"time": 3379, "pitch": 58, "duration": 3, "velocity": 81}, {"time": 3385, "pitch": 58, "duration": 3, "velocity": 87}, {"time": 3385, "pitch": 63, "duration": 6, "velocity": 86}, {"time": 3391, "pitch": 58, "duration": 2, "velocity": 87}, {"time": 3397, "pitch": 49, "duration": 23, "velocity": 88}, {"time": 3397, "pitch": 56, "duration": 3, "velocity": 85}, {"time": 3397, "pitch": 61, "duration": 7, "velocity": 82}, {"time": 3403, "pitch": 56, "duration": 7, "velocity": 88}, {"time": 3409, "pitch": 61, "duration": 7, "velocity": 86}, {"time": 3409, "pitch": 65, "duration": 8, "velocity": 87}, {"time": 3415, "pitch": 56, "duration": 8, "velocity": 87}, {"time": 3421, "pitch": 49, "duration": 16, "velocity": 87}, {"time": 3421, "pitch": 61, "duration": 2, "velocity": 71}, {"time": 3421, "pitch": 68, "duration": 10, "velocity": 86}, {"time": 3427, "pitch": 56, "duration": 4, "velocity": 80}, {"time": 3433, "pitch": 56, "duration": 7, "velocity": 90}, {"time": 3433, "pitch": 65, "duration": 7, "velocity": 88}, {"time": 3439, "pitch": 61, "duration": 2, "velocity": 83}, {"time": 3445, "pitch": 47, "duration": 16, "velocity": 87}, {"time": 3445, "pitch": 59, "duration": 6, "velocity": 80}, {"time": 3445, "pitch": 63, "duration": 13, "velocity": 80}, {"time": 3451, "pitch": 54, "duration": 8, "velocity": 74}, {"time": 3457, "pitch": 59, "duration": 4, "velocity": 95}, {"time": 3460, "pitch": 54, "duration": 7, "velocity": 86}, {"time": 3463, "pitch": 59, "duration": 4, "velocity": 89}, {"time": 3466, "pitch": 63, "duration": 4, "velocity": 82}, {"time": 3467, "pitch": 58, "duration": 35, "velocity": 74}, {"time": 3468, "pitch": 62, "duration": 34, "velocity": 75}, {"time": 3469, "pitch": 46, "duration": 34, "velocity": 87}, {"time": 3469, "pitch": 65, "duration": 34, "velocity": 77}, {"time": 3470, "pitch": 70, "duration": 33, "velocity": 86}, {"time": 3505, "pitch": 51, "duration": 45, "velocity": 88}, {"time": 3511, "pitch": 58, "duration": 10, "velocity": 73}, {"time": 3517, "pitch": 65, "duration": 9, "velocity": 86}, {"time": 3523, "pitch": 58, "duration": 8, "velocity": 72}, {"time": 3529, "pitch": 63, "duration": 10, "velocity": 82}, {"time": 3529, "pitch": 67, "duration": 10, "velocity": 82}, {"time": 3538, "pitch": 58, "duration": 4, "velocity": 70}, {"time": 3541, "pitch": 63, "duration": 7, "velocity": 82}, {"time": 3541, "pitch": 70, "duration": 18, "velocity": 86}, {"time": 3547, "pitch": 58, "duration": 6, "velocity": 66}, {"time": 3550, "pitch": 63, "duration": 5, "velocity": 71}, {"time": 3553, "pitch": 49, "duration": 44, "velocity": 87}, {"time": 3559, "pitch": 56, "duration": 8, "velocity": 74}, {"time": 3565, "pitch": 61, "duration": 7, "velocity": 81}, {"time": 3565, "pitch": 65, "duration": 7, "velocity": 81}, {"time": 3571, "pitch": 56, "duration": 10, "velocity": 73}, {"time": 3574, "pitch": 61, "duration": 2, "velocity": 81}, {"time": 3577, "pitch": 61, "duration": 10, "velocity": 83}, {"time": 3577, "pitch": 68, "duration": 11, "velocity": 85}, {"time": 3586, "pitch": 56, "duration": 4, "velocity": 71}, {"time": 3589, "pitch": 61, "duration": 6, "velocity": 88}, {"time": 3589, "pitch": 65, "duration": 10, "velocity": 91}, {"time": 3595, "pitch": 56, "duration": 2, "velocity": 77}, {"time": 3598, "pitch": 61, "duration": 5, "velocity": 78}, {"time": 3601, "pitch": 47, "duration": 22, "velocity": 76}, {"time": 3601, "pitch": 59, "duration": 8, "velocity": 75}, {"time": 3601, "pitch": 63, "duration": 11, "velocity": 79}, {"time": 3607, "pitch": 54, "duration": 17, "velocity": 69}, {"time": 3610, "pitch": 59, "duration": 7, "velocity": 86}, {"time": 3616, "pitch": 66, "duration": 5, "velocity": 86}, {"time": 3619, "pitch": 59, "duration": 4, "velocity": 76}, {"time": 3625, "pitch": 47, "duration": 22, "velocity": 81}, {"time": 3625, "pitch": 59, "duration": 7, "velocity": 74}, {"time": 3625, "pitch": 63, "duration": 8, "velocity": 86}, {"time": 3631, "pitch": 54, "duration": 11, "velocity": 73}, {"time": 3634, "pitch": 59, "duration": 7, "velocity": 86}, {"time": 3640, "pitch": 66, "duration": 7, "velocity": 87}, {"time": 3643, "pitch": 54, "duration": 7, "velocity": 80}, {"time": 3646, "pitch": 59, "duration": 4, "velocity": 78}, {"time": 3649, "pitch": 44, "duration": 21, "velocity": 86}, {"time": 3655, "pitch": 51, "duration": 16, "velocity": 74}, {"time": 3658, "pitch": 56, "duration": 7, "velocity": 86}, {"time": 3661, "pitch": 60, "duration": 5, "velocity": 87}, {"time": 3664, "pitch": 68, "duration": 13, "velocity": 87}, {"time": 3668, "pitch": 56, "duration": 6, "velocity": 88}, {"time": 3671, "pitch": 60, "duration": 3, "velocity": 82}, {"time": 3675, "pitch": 46, "duration": 28, "velocity": 82}, {"time": 3679, "pitch": 53, "duration": 23, "velocity": 73}, {"time": 3683, "pitch": 58, "duration": 8, "velocity": 85}, {"time": 3687, "pitch": 62, "duration": 6, "velocity": 87}, {"time": 3692, "pitch": 65, "duration": 19, "velocity": 86}, {"time": 3696, "pitch": 70, "duration": 20, "velocity": 88}, {"time": 3711, "pitch": 39, "duration": 10, "velocity": 88}, {"time": 3715, "pitch": 46, "duration": 6, "velocity": 74}, {"time": 3719, "pitch": 63, "duration": 3, "velocity": 82}, {"time": 3722, "pitch": 65, "duration": 3, "velocity": 86}, {"time": 3725, "pitch": 67, "duration": 2, "velocity": 86}, {"time": 3727, "pitch": 51, "duration": 26, "velocity": 81}, {"time": 3730, "pitch": 58, "duration": 22, "velocity": 71}, {"time": 3733, "pitch": 70, "duration": 3, "velocity": 79}, {"time": 3737, "pitch": 75, "duration": 2, "velocity": 86}, {"time": 3741, "pitch": 77, "duration": 2, "velocity": 85}, {"time": 3745, "pitch": 79, "duration": 2, "velocity": 85}, {"time": 3750, "pitch": 82, "duration": 2, "velocity": 76}, {"time": 3756, "pitch": 51, "duration": 15, "velocity": 58}, {"time": 3758, "pitch": 58, "duration": 12, "velocity": 66}, {"time": 3758, "pitch": 82, "duration": 11, "velocity": 64}, {"time": 3760, "pitch": 87, "duration": 9, "velocity": 76}], "annotations": [{"time": 50, "annotation": {"number": 64, "value": 127}, "group": "control_change"}, {"time": 84, "annotation": {"number": 64, "value": 0}, "group": "control_change"}, {"time": 87, "annotation": {"number": 64, "value": 127}, "group": "control_change"}, {"time": 133, "annotation": {"number": 64, "value": 0}, "group": "control_change"}, {"time": 135, "annotation": {"number": 64, "value": 127}, "group": "control_change"}, {"time": 181, "annotation": {"number": 64, "value": 0}, "group": "control_change"}, {"time": 186, "annotation": {"number": 64, "value": 127}, "group": "control_change"}, {"time": 229, "annotation": {"number": 64, "value": 0}, "group": "control_change"}, {"time": 234, "annotation": {"number": 64, "value": 127}, "group": "control_change"}, {"time": 278, "annotation": {"number": 64, "value": 0}, "group": "control_change"}, {"time": 279, "annotation": {"number": 64, "value": 127}, "group": "control_change"}, {"time": 324, "annotation": {"number": 64, "value": 0}, "group": "control_change"}, {"time": 325, "annotation": {"number": 64, "value": 127}, "group": "control_change"}, {"time": 375, "annotation": {"number": 64, "value": 0}, "group": "control_change"}, {"time": 378, "annotation": {"number": 64, "value": 127}, "group": "control_change"}, {"time": 421, "annotation": {"number": 64, "value": 0}, "group": "control_change"}, {"time": 423, "annotation": {"number": 64, "value": 127}, "group": "control_change"}, {"time": 444, "annotation": {"number": 64, "value": 0}, "group": "control_change"}, {"time": 446, "annotation": {"number": 64, "value": 127}, "group": "control_change"}, {"time": 469, "annotation": {"number": 64, "value": 0}, "group": "control_change"}, {"time": 470, "annotation": {"number": 64, "value": 127}, "group": "control_change"}, {"time": 492, "annotation": {"number": 64, "value": 0}, "group": "control_change"}, {"time": 495, "annotation": {"number": 64, "value": 127}, "group": "control_change"}, {"time": 516, "annotation": {"number": 64, "value": 0}, "group": "control_change"}, {"time": 522, "annotation": {"number": 64, "value": 127}, "group": "control_change"}, {"time": 540, "annotation": {"number": 64, "value": 0}, "group": "control_change"}, {"time": 544, "annotation": {"number": 64, "value": 127}, "group": "control_change"}, {"time": 565, "annotation": {"number": 64, "value": 127}, "group": "control_change"}, {"time": 566, "annotation": {"number": 64, "value": 0}, "group": "control_change"}, {"time": 589, "annotation": {"number": 64, "value": 0}, "group": "control_change"}, {"time": 594, "annotation": {"number": 64, "value": 127}, "group": "control_change"}, {"time": 613, "annotation": {"number": 64, "value": 0}, "group": "control_change"}, {"time": 618, "annotation": {"number": 64, "value": 127}, "group": "control_change"}, {"time": 662, "annotation": {"number": 64, "value": 0}, "group": "control_change"}, {"time": 663, "annotation": {"number": 64, "value": 127}, "group": "control_change"}, {"time": 708, "annotation": {"number": 64, "value": 0}, "group": "control_change"}, {"time": 709, "annotation": {"number": 64, "value": 127}, "group": "control_change"}, {"time": 759, "annotation": {"number": 64, "value": 0}, "group": "control_change"}, {"time": 762, "annotation": {"number": 64, "value": 127}, "group": "control_change"}, {"time": 805, "annotation": {"number": 64, "value": 0}, "group": "control_change"}, {"time": 807, "annotation": {"number": 64, "value": 127}, "group": "control_change"}, {"time": 828, "annotation": {"number": 64, "value": 0}, "group": "control_change"}, {"time": 830, "annotation": {"number": 64, "value": 127}, "group": "control_change"}, {"time": 853, "annotation": {"number": 64, "value": 0}, "group": "control_change"}, {"time": 854, "annotation": {"number": 64, "value": 127}, "group": "control_change"}, {"time": 876, "annotation": {"number": 64, "value": 0}, "group": "control_change"}, {"time": 879, "annotation": {"number": 64, "value": 127}, "group": "control_change"}, {"time": 900, "annotation": {"number": 64, "value": 0}, "group": "control_change"}, {"time": 906, "annotation": {"number": 64, "value": 127}, "group": "control_change"}, {"time": 924, "annotation": {"number": 64, "value": 0}, "group": "control_change"}, {"time": 928, "annotation": {"number": 64, "value": 127}, "group": "control_change"}, {"time": 949, "annotation": {"number": 64, "value": 127}, "group": "control_change"}, {"time": 950, "annotation": {"number": 64, "value": 0}, "group": "control_change"}, {"time": 973, "annotation": {"number": 64, "value": 0}, "group": "control_change"}, {"time": 978, "annotation": {"number": 64, "value": 127}, "group": "control_change"}, {"time": 997, "annotation": {"number": 64, "value": 0}, "group": "control_change"}, {"time": 1044, "annotation": {"number": 64, "value": 0}, "group": "control_change"}, {"time": 1046, "annotation": {"number": 64, "value": 127}, "group": "control_change"}, {"time": 1068, "annotation": {"number": 64, "value": 0}, "group": "control_change"}, {"time": 1069, "annotation": {"number": 64, "value": 127}, "group": "control_change"}, {"time": 1092, "annotation": {"number": 64, "value": 0}, "group": "control_change"}, {"time": 1094, "annotation": {"number": 64, "value": 127}, "group": "control_change"}, {"time": 1117, "annotation": {"number": 64, "value": 0}, "group": "control_change"}, {"time": 1118, "annotation": {"number": 64, "value": 127}, "group": "control_change"}, {"time": 1141, "annotation": {"number": 64, "value": 0}, "group": "control_change"}, {"time": 1144, "annotation": {"number": 64, "value": 127}, "group": "control_change"}, {"time": 1166, "annotation": {"number": 64, "value": 0}, "group": "control_change"}, {"time": 1171, "annotation": {"number": 64, "value": 127}, "group": "control_change"}, {"time": 1188, "annotation": {"number": 64, "value": 0}, "group": "control_change"}, {"time": 1190, "annotation": {"number": 64, "value": 127}, "group": "control_change"}, {"time": 1212, "annotation": {"number": 64, "value": 0}, "group": "control_change"}, {"time": 1214, "annotation": {"number": 64, "value": 127}, "group": "control_change"}, {"time": 1237, "annotation": {"number": 64, "value": 0}, "group": "control_change"}, {"time": 1240, "annotation": {"number": 64, "value": 127}, "group": "control_change"}, {"time": 1261, "annotation": {"number": 64, "value": 0}, "group": "control_change"}, {"time": 1262, "annotation": {"number": 64, "value": 127}, "group": "control_change"}, {"time": 1285, "annotation": {"number": 64, "value": 0}, "group": "control_change"}, {"time": 1287, "annotation": {"number": 64, "value": 127}, "group": "control_change"}, {"time": 1309, "annotation": {"number": 64, "value": 0}, "group": "control_change"}, {"time": 1312, "annotation": {"number": 64, "value": 127}, "group": "control_change"}, {"time": 1332, "annotation": {"number": 64, "value": 0}, "group": "control_change"}, {"time": 1334, "annotation": {"number": 64, "value": 127}, "group": "control_change"}, {"time": 1356, "annotation": {"number": 64, "value": 0}, "group": "control_change"}, {"time": 1359, "annotation": {"number": 64, "value": 127}, "group": "control_change"}, {"time": 1379, "annotation": {"number": 64, "value": 0}, "group": "control_change"}, {"time": 1394, "annotation": {"number": 64, "value": 127}, "group": "control_change"}, {"time": 1428, "annotation": {"number": 64, "value": 0}, "group": "control_change"}, {"time": 1431, "annotation": {"number": 64, "value": 127}, "group": "control_change"}, {"time": 1477, "annotation": {"number": 64, "value": 0}, "group": "control_change"}, {"time": 1479, "annotation": {"number": 64, "value": 127}, "group": "control_change"}, {"time": 1525, "annotation": {"number": 64, "value": 0}, "group": "control_change"}, {"time": 1530, "annotation": {"number": 64, "value": 127}, "group": "control_change"}, {"time": 1573, "annotation": {"number": 64, "value": 0}, "group": "control_change"}, {"time": 1578, "annotation": {"number": 64, "value": 127}, "group": "control_change"}, {"time": 1622, "annotation": {"number": 64, "value": 0}, "group": "control_change"}, {"time": 1623, "annotation": {"number": 64, "value": 127}, "group": "control_change"}, {"time": 1668, "annotation": {"number": 64, "value": 0}, "group": "control_change"}, {"time": 1669, "annotation": {"number": 64, "value": 127}, "group": "control_change"}, {"time": 1719, "annotation": {"number": 64, "value": 0}, "group": "control_change"}, {"time": 1722, "annotation": {"number": 64, "value": 127}, "group": "control_change"}, {"time": 1765, "annotation": {"number": 64, "value": 0}, "group": "control_change"}, {"time": 1767, "annotation": {"number": 64, "value": 127}, "group": "control_change"}, {"time": 1788, "annotation": {"number": 64, "value": 0}, "group": "control_change"}, {"time": 1790, "annotation": {"number": 64, "value": 127}, "group": "control_change"}, {"time": 1813, "annotation": {"number": 64, "value": 0}, "group": "control_change"}, {"time": 1814, "annotation": {"number": 64, "value": 127}, "group": "control_change"}, {"time": 1836, "annotation": {"number": 64, "value": 0}, "group": "control_change"}, {"time": 1839, "annotation": {"number": 64, "value": 127}, "group": "control_change"}, {"time": 1860, "annotation": {"number": 64, "value": 0}, "group": "control_change"}, {"time": 1866, "annotation": {"number": 64, "value": 127}, "group": "control_change"}, {"time": 1884, "annotation": {"number": 64, "value": 0}, "group": "control_change"}, {"time": 1888, "annotation": {"number": 64, "value": 127}, "group": "control_change"}, {"time": 1909, "annotation": {"number": 64, "value": 127}, "group": "control_change"}, {"time": 1910, "annotation": {"number": 64, "value": 0}, "group": "control_change"}, {"time": 1933, "annotation": {"number": 64, "value": 0}, "group": "control_change"}, {"time": 1938, "annotation": {"number": 64, "value": 127}, "group": "control_change"}, {"time": 1957, "annotation": {"number": 64, "value": 0}, "group": "control_change"}, {"time": 2004, "annotation": {"number": 64, "value": 0}, "group": "control_change"}, {"time": 2006, "annotation": {"number": 64, "value": 127}, "group": "control_change"}, {"time": 2028, "annotation": {"number": 64, "value": 0}, "group": "control_change"}, {"time": 2029, "annotation": {"number": 64, "value": 127}, "group": "control_change"}, {"time": 2052, "annotation": {"number": 64, "value": 0}, "group": "control_change"}, {"time": 2054, "annotation": {"number": 64, "value": 127}, "group": "control_change"}, {"time": 2077, "annotation": {"number": 64, "value": 0}, "group": "control_change"}, {"time": 2078, "annotation": {"number": 64, "value": 127}, "group": "control_change"}, {"time": 2101, "annotation": {"number": 64, "value": 0}, "group": "control_change"}, {"time": 2104, "annotation": {"number": 64, "value": 127}, "group": "control_change"}, {"time": 2126, "annotation": {"number": 64, "value": 0}, "group": "control_change"}, {"time": 2131, "annotation": {"number": 64, "value": 127}, "group": "control_change"}, {"time": 2148, "annotation": {"number": 64, "value": 0}, "group": "control_change"}, {"time": 2150, "annotation": {"number": 64, "value": 127}, "group": "control_change"}, {"time": 2172, "annotation": {"number": 64, "value": 0}, "group": "control_change"}, {"time": 2174, "annotation": {"number": 64, "value": 127}, "group": "control_change"}, {"time": 2197, "annotation": {"number": 64, "value": 0}, "group": "control_change"}, {"time": 2200, "annotation": {"number": 64, "value": 127}, "group": "control_change"}, {"time": 2221, "annotation": {"number": 64, "value": 0}, "group": "control_change"}, {"time": 2222, "annotation": {"number": 64, "value": 127}, "group": "control_change"}, {"time": 2245, "annotation": {"number": 64, "value": 0}, "group": "control_change"}, {"time": 2247, "annotation": {"number": 64, "value": 127}, "group": "control_change"}, {"time": 2269, "annotation": {"number": 64, "value": 0}, "group": "control_change"}, {"time": 2272, "annotation": {"number": 64, "value": 127}, "group": "control_change"}, {"time": 2292, "annotation": {"number": 64, "value": 0}, "group": "control_change"}, {"time": 2294, "annotation": {"number": 64, "value": 127}, "group": "control_change"}, {"time": 2316, "annotation": {"number": 64, "value": 0}, "group": "control_change"}, {"time": 2319, "annotation": {"number": 64, "value": 127}, "group": "control_change"}, {"time": 2339, "annotation": {"number": 64, "value": 0}, "group": "control_change"}, {"time": 2343, "annotation": {"number": 64, "value": 127}, "group": "control_change"}, {"time": 2366, "annotation": {"number": 64, "value": 0}, "group": "control_change"}, {"time": 2372, "annotation": {"number": 64, "value": 127}, "group": "control_change"}, {"time": 2389, "annotation": {"number": 64, "value": 127}, "group": "control_change"}, {"time": 2404, "annotation": {"number": 64, "value": 0}, "group": "control_change"}, {"time": 2423, "annotation": {"number": 64, "value": 127}, "group": "control_change"}, {"time": 2436, "annotation": {"number": 64, "value": 0}, "group": "control_change"}, {"time": 2438, "annotation": {"number": 64, "value": 127}, "group": "control_change"}, {"time": 2457, "annotation": {"number": 64, "value": 0}, "group": "control_change"}, {"time": 2469, "annotation": {"number": 64, "value": 127}, "group": "control_change"}, {"time": 2485, "annotation": {"number": 64, "value": 0}, "group": "control_change"}, {"time": 2486, "annotation": {"number": 64, "value": 127}, "group": "control_change"}, {"time": 2496, "annotation": {"number": 64, "value": 0}, "group": "control_change"}, {"time": 2511, "annotation": {"number": 64, "value": 127}, "group": "control_change"}, {"time": 2535, "annotation": {"number": 64, "value": 127}, "group": "control_change"}, {"time": 2558, "annotation": {"number": 64, "value": 0}, "group": "control_change"}, {"time": 2564, "annotation": {"number": 64, "value": 127}, "group": "control_change"}, {"time": 2581, "annotation": {"number": 64, "value": 127}, "group": "control_change"}, {"time": 2596, "annotation": {"number": 64, "value": 0}, "group": "control_change"}, {"time": 2615, "annotation": {"number": 64, "value": 127}, "group": "control_change"}, {"time": 2628, "annotation": {"number": 64, "value": 0}, "group": "control_change"}, {"time": 2630, "annotation": {"number": 64, "value": 127}, "group": "control_change"}, {"time": 2641, "annotation": {"number": 64, "value": 0}, "group": "control_change"}, {"time": 2644, "annotation": {"number": 64, "value": 127}, "group": "control_change"}, {"time": 2652, "annotation": {"number": 64, "value": 0}, "group": "control_change"}, {"time": 2654, "annotation": {"number": 64, "value": 127}, "group": "control_change"}, {"time": 2677, "annotation": {"number": 64, "value": 0}, "group": "control_change"}, {"time": 2679, "annotation": {"number": 64, "value": 127}, "group": "control_change"}, {"time": 2714, "annotation": {"number": 64, "value": 0}, "group": "control_change"}, {"time": 2719, "annotation": {"number": 64, "value": 127}, "group": "control_change"}, {"time": 2726, "annotation": {"number": 64, "value": 0}, "group": "control_change"}, {"time": 2730, "annotation": {"number": 64, "value": 127}, "group": "control_change"}, {"time": 2750, "annotation": {"number": 64, "value": 0}, "group": "control_change"}, {"time": 2751, "annotation": {"number": 64, "value": 127}, "group": "control_change"}, {"time": 2820, "annotation": {"number": 64, "value": 0}, "group": "control_change"}, {"time": 2822, "annotation": {"number": 64, "value": 127}, "group": "control_change"}, {"time": 2844, "annotation": {"number": 64, "value": 0}, "group": "control_change"}, {"time": 2845, "annotation": {"number": 64, "value": 127}, "group": "control_change"}, {"time": 2868, "annotation": {"number": 64, "value": 0}, "group": "control_change"}, {"time": 2870, "annotation": {"number": 64, "value": 127}, "group": "control_change"}, {"time": 2893, "annotation": {"number": 64, "value": 0}, "group": "control_change"}, {"time": 2894, "annotation": {"number": 64, "value": 127}, "group": "control_change"}, {"time": 2917, "annotation": {"number": 64, "value": 0}, "group": "control_change"}, {"time": 2920, "annotation": {"number": 64, "value": 127}, "group": "control_change"}, {"time": 2942, "annotation": {"number": 64, "value": 0}, "group": "control_change"}, {"time": 2947, "annotation": {"number": 64, "value": 127}, "group": "control_change"}, {"time": 2964, "annotation": {"number": 64, "value": 0}, "group": "control_change"}, {"time": 2966, "annotation": {"number": 64, "value": 127}, "group": "control_change"}, {"time": 2988, "annotation": {"number": 64, "value": 0}, "group": "control_change"}, {"time": 2990, "annotation": {"number": 64, "value": 127}, "group": "control_change"}, {"time": 3013, "annotation": {"number": 64, "value": 0}, "group": "control_change"}, {"time": 3016, "annotation": {"number": 64, "value": 127}, "group": "control_change"}, {"time": 3037, "annotation": {"number": 64, "value": 0}, "group": "control_change"}, {"time": 3038, "annotation": {"number": 64, "value": 127}, "group": "control_change"}, {"time": 3061, "annotation": {"number": 64, "value": 0}, "group": "control_change"}, {"time": 3063, "annotation": {"number": 64, "value": 127}, "group": "control_change"}, {"time": 3085, "annotation": {"number": 64, "value": 0}, "group": "control_change"}, {"time": 3088, "annotation": {"number": 64, "value": 127}, "group": "control_change"}, {"time": 3108, "annotation": {"number": 64, "value": 0}, "group": "control_change"}, {"time": 3109, "annotation": {"number": 64, "value": 127}, "group": "control_change"}, {"time": 3157, "annotation": {"number": 64, "value": 0}, "group": "control_change"}, {"time": 3204, "annotation": {"number": 64, "value": 0}, "group": "control_change"}, {"time": 3206, "annotation": {"number": 64, "value": 127}, "group": "control_change"}, {"time": 3228, "annotation": {"number": 64, "value": 0}, "group": "control_change"}, {"time": 3229, "annotation": {"number": 64, "value": 127}, "group": "control_change"}, {"time": 3252, "annotation": {"number": 64, "value": 0}, "group": "control_change"}, {"time": 3254, "annotation": {"number": 64, "value": 127}, "group": "control_change"}, {"time": 3277, "annotation": {"number": 64, "value": 0}, "group": "control_change"}, {"time": 3278, "annotation": {"number": 64, "value": 127}, "group": "control_change"}, {"time": 3301, "annotation": {"number": 64, "value": 0}, "group": "control_change"}, {"time": 3304, "annotation": {"number": 64, "value": 127}, "group": "control_change"}, {"time": 3326, "annotation": {"number": 64, "value": 0}, "group": "control_change"}, {"time": 3331, "annotation": {"number": 64, "value": 127}, "group": "control_change"}, {"time": 3348, "annotation": {"number": 64, "value": 0}, "group": "control_change"}, {"time": 3350, "annotation": {"number": 64, "value": 127}, "group": "control_change"}, {"time": 3372, "annotation": {"number": 64, "value": 0}, "group": "control_change"}, {"time": 3374, "annotation": {"number": 64, "value": 127}, "group": "control_change"}, {"time": 3397, "annotation": {"number": 64, "value": 0}, "group": "control_change"}, {"time": 3400, "annotation": {"number": 64, "value": 127}, "group": "control_change"}, {"time": 3421, "annotation": {"number": 64, "value": 0}, "group": "control_change"}, {"time": 3422, "annotation": {"number": 64, "value": 127}, "group": "control_change"}, {"time": 3445, "annotation": {"number": 64, "value": 0}, "group": "control_change"}, {"time": 3447, "annotation": {"number": 64, "value": 127}, "group": "control_change"}, {"time": 3469, "annotation": {"number": 64, "value": 0}, "group": "control_change"}, {"time": 3518, "annotation": {"number": 64, "value": 127}, "group": "control_change"}, {"time": 3552, "annotation": {"number": 64, "value": 0}, "group": "control_change"}, {"time": 3555, "annotation": {"number": 64, "value": 127}, "group": "control_change"}, {"time": 3601, "annotation": {"number": 64, "value": 0}, "group": "control_change"}, {"time": 3610, "annotation": {"number": 64, "value": 127}, "group": "control_change"}, {"time": 3627, "annotation": {"number": 64, "value": 0}, "group": "control_change"}, {"time": 3630, "annotation": {"number": 64, "value": 127}, "group": "control_change"}, {"time": 3649, "annotation": {"number": 64, "value": 0}, "group": "control_change"}, {"time": 3651, "annotation": {"number": 64, "value": 127}, "group": "control_change"}, {"time": 3675, "annotation": {"number": 64, "value": 0}, "group": "control_change"}, {"time": 3679, "annotation": {"number": 64, "value": 127}, "group": "control_change"}, {"time": 3710, "annotation": {"number": 64, "value": 0}, "group": "control_change"}, {"time": 3714, "annotation": {"number": 64, "value": 127}, "group": "control_change"}]}]}