{"metadata": {"schema_version": "0.2", "title": "None", "source_filename": "417.mid", "source_format": "midi"}, "resolution": 12, "tempos": [{"time": 0, "qpm": 72.00002880001152}, {"time": 360, "qpm": 72.50001812500453}, {"time": 449, "qpm": 72.00002880001152}], "time_signatures": [{"time": 0, "numerator": 1, "denominator": 4}], "tracks": [{"program": 4, "is_drum": false, "name": "MELODY", "notes": [{"time": 396, "pitch": 62, "duration": 5, "velocity": 92}, {"time": 402, "pitch": 72, "duration": 5, "velocity": 94}, {"time": 408, "pitch": 71, "duration": 14, "velocity": 95}, {"time": 426, "pitch": 71, "duration": 4, "velocity": 86}, {"time": 432, "pitch": 72, "duration": 4, "velocity": 91}, {"time": 438, "pitch": 71, "duration": 5, "velocity": 92}, {"time": 444, "pitch": 69, "duration": 5, "velocity": 92}, {"time": 450, "pitch": 67, "duration": 5, "velocity": 90}, {"time": 456, "pitch": 69, "duration": 4, "velocity": 90}, {"time": 462, "pitch": 71, "duration": 4, "velocity": 91}, {"time": 468, "pitch": 72, "duration": 5, "velocity": 92}, {"time": 474, "pitch": 71, "duration": 20, "velocity": 94}, {"time": 498, "pitch": 64, "duration": 5, "velocity": 102}, {"time": 504, "pitch": 72, "duration": 16, "velocity": 93}, {"time": 522, "pitch": 72, "duration": 4, "velocity": 92}, {"time": 528, "pitch": 74, "duration": 5, "velocity": 95}, {"time": 534, "pitch": 72, "duration": 4, "velocity": 92}, {"time": 540, "pitch": 69, "duration": 5, "velocity": 89}, {"time": 546, "pitch": 71, "duration": 5, "velocity": 90}, {"time": 552, "pitch": 72, "duration": 16, "velocity": 90}, {"time": 570, "pitch": 71, "duration": 4, "velocity": 93}, {"time": 576, "pitch": 71, "duration": 15, "velocity": 93}, {"time": 594, "pitch": 67, "duration": 5, "velocity": 94}, {"time": 600, "pitch": 74, "duration": 16, "velocity": 102}, {"time": 618, "pitch": 74, "duration": 4, "velocity": 97}, {"time": 624, "pitch": 76, "duration": 5, "velocity": 94}, {"time": 630, "pitch": 74, "duration": 4, "velocity": 95}, {"time": 636, "pitch": 72, "duration": 5, "velocity": 93}, {"time": 642, "pitch": 71, "duration": 5, "velocity": 95}, {"time": 648, "pitch": 71, "duration": 5, "velocity": 97}, {"time": 654, "pitch": 72, "duration": 4, "velocity": 94}, {"time": 660, "pitch": 69, "duration": 4, "velocity": 90}, {"time": 666, "pitch": 67, "duration": 5, "velocity": 92}, {"time": 672, "pitch": 78, "duration": 10, "velocity": 90}, {"time": 690, "pitch": 76, "duration": 4, "velocity": 93}, {"time": 696, "pitch": 74, "duration": 4, "velocity": 95}, {"time": 702, "pitch": 72, "duration": 4, "velocity": 92}, {"time": 708, "pitch": 64, "duration": 4, "velocity": 97}, {"time": 714, "pitch": 66, "duration": 5, "velocity": 91}, {"time": 720, "pitch": 71, "duration": 10, "velocity": 90}, {"time": 732, "pitch": 69, "duration": 10, "velocity": 90}, {"time": 744, "pitch": 67, "duration": 24, "velocity": 84}, {"time": 780, "pitch": 62, "duration": 5, "velocity": 92}, {"time": 786, "pitch": 72, "duration": 5, "velocity": 94}, {"time": 792, "pitch": 71, "duration": 14, "velocity": 95}, {"time": 810, "pitch": 71, "duration": 4, "velocity": 86}, {"time": 816, "pitch": 72, "duration": 4, "velocity": 91}, {"time": 822, "pitch": 71, "duration": 5, "velocity": 92}, {"time": 828, "pitch": 69, "duration": 5, "velocity": 92}, {"time": 834, "pitch": 67, "duration": 5, "velocity": 90}, {"time": 840, "pitch": 69, "duration": 4, "velocity": 90}, {"time": 846, "pitch": 71, "duration": 4, "velocity": 91}, {"time": 852, "pitch": 72, "duration": 5, "velocity": 92}, {"time": 858, "pitch": 71, "duration": 20, "velocity": 94}, {"time": 882, "pitch": 64, "duration": 5, "velocity": 102}, {"time": 888, "pitch": 72, "duration": 16, "velocity": 93}, {"time": 906, "pitch": 72, "duration": 4, "velocity": 92}, {"time": 912, "pitch": 74, "duration": 5, "velocity": 95}, {"time": 918, "pitch": 72, "duration": 4, "velocity": 92}, {"time": 924, "pitch": 69, "duration": 5, "velocity": 89}, {"time": 930, "pitch": 71, "duration": 5, "velocity": 90}, {"time": 936, "pitch": 72, "duration": 16, "velocity": 90}, {"time": 954, "pitch": 71, "duration": 4, "velocity": 93}, {"time": 960, "pitch": 71, "duration": 15, "velocity": 93}, {"time": 978, "pitch": 67, "duration": 5, "velocity": 94}, {"time": 984, "pitch": 74, "duration": 16, "velocity": 102}, {"time": 1002, "pitch": 74, "duration": 4, "velocity": 97}, {"time": 1008, "pitch": 76, "duration": 5, "velocity": 94}, {"time": 1014, "pitch": 74, "duration": 4, "velocity": 95}, {"time": 1020, "pitch": 72, "duration": 5, "velocity": 93}, {"time": 1026, "pitch": 71, "duration": 5, "velocity": 95}, {"time": 1032, "pitch": 71, "duration": 5, "velocity": 97}, {"time": 1038, "pitch": 72, "duration": 4, "velocity": 94}, {"time": 1044, "pitch": 69, "duration": 4, "velocity": 90}, {"time": 1050, "pitch": 67, "duration": 5, "velocity": 92}, {"time": 1056, "pitch": 78, "duration": 10, "velocity": 90}, {"time": 1074, "pitch": 76, "duration": 4, "velocity": 93}, {"time": 1080, "pitch": 74, "duration": 4, "velocity": 95}, {"time": 1086, "pitch": 72, "duration": 4, "velocity": 92}, {"time": 1092, "pitch": 64, "duration": 4, "velocity": 97}, {"time": 1098, "pitch": 66, "duration": 5, "velocity": 91}, {"time": 1104, "pitch": 71, "duration": 10, "velocity": 90}, {"time": 1116, "pitch": 69, "duration": 10, "velocity": 90}, {"time": 1128, "pitch": 67, "duration": 24, "velocity": 84}, {"time": 1158, "pitch": 67, "duration": 4, "velocity": 97}, {"time": 1164, "pitch": 71, "duration": 4, "velocity": 99}, {"time": 1170, "pitch": 74, "duration": 4, "velocity": 99}, {"time": 1176, "pitch": 74, "duration": 4, "velocity": 102}, {"time": 1182, "pitch": 76, "duration": 4, "velocity": 99}, {"time": 1188, "pitch": 72, "duration": 5, "velocity": 99}, {"time": 1194, "pitch": 71, "duration": 2, "velocity": 93}, {"time": 1197, "pitch": 69, "duration": 11, "velocity": 99}, {"time": 1209, "pitch": 67, "duration": 2, "velocity": 91}, {"time": 1212, "pitch": 71, "duration": 2, "velocity": 95}, {"time": 1215, "pitch": 72, "duration": 4, "velocity": 99}, {"time": 1221, "pitch": 72, "duration": 8, "velocity": 97}, {"time": 1230, "pitch": 74, "duration": 4, "velocity": 102}, {"time": 1236, "pitch": 71, "duration": 5, "velocity": 102}, {"time": 1242, "pitch": 69, "duration": 2, "velocity": 94}, {"time": 1245, "pitch": 67, "duration": 12, "velocity": 92}, {"time": 1257, "pitch": 62, "duration": 2, "velocity": 91}, {"time": 1260, "pitch": 69, "duration": 2, "velocity": 89}, {"time": 1263, "pitch": 71, "duration": 4, "velocity": 90}, {"time": 1269, "pitch": 71, "duration": 8, "velocity": 99}, {"time": 1278, "pitch": 72, "duration": 3, "velocity": 92}, {"time": 1284, "pitch": 72, "duration": 4, "velocity": 97}, {"time": 1290, "pitch": 64, "duration": 5, "velocity": 97}, {"time": 1296, "pitch": 66, "duration": 7, "velocity": 90}, {"time": 1308, "pitch": 67, "duration": 4, "velocity": 91}, {"time": 1314, "pitch": 69, "duration": 5, "velocity": 95}, {"time": 1320, "pitch": 67, "duration": 17, "velocity": 93}, {"time": 1338, "pitch": 69, "duration": 5, "velocity": 92}, {"time": 1344, "pitch": 71, "duration": 5, "velocity": 93}, {"time": 1350, "pitch": 67, "duration": 4, "velocity": 94}, {"time": 1356, "pitch": 71, "duration": 5, "velocity": 95}, {"time": 1362, "pitch": 74, "duration": 4, "velocity": 102}, {"time": 1368, "pitch": 74, "duration": 4, "velocity": 97}, {"time": 1374, "pitch": 76, "duration": 4, "velocity": 95}, {"time": 1380, "pitch": 72, "duration": 5, "velocity": 91}, {"time": 1386, "pitch": 71, "duration": 2, "velocity": 91}, {"time": 1389, "pitch": 69, "duration": 10, "velocity": 92}, {"time": 1401, "pitch": 79, "duration": 2, "velocity": 94}, {"time": 1404, "pitch": 78, "duration": 2, "velocity": 94}, {"time": 1407, "pitch": 79, "duration": 8, "velocity": 94}, {"time": 1416, "pitch": 74, "duration": 4, "velocity": 95}, {"time": 1422, "pitch": 76, "duration": 4, "velocity": 95}, {"time": 1428, "pitch": 74, "duration": 5, "velocity": 102}, {"time": 1434, "pitch": 72, "duration": 3, "velocity": 93}, {"time": 1437, "pitch": 71, "duration": 10, "velocity": 95}, {"time": 1449, "pitch": 67, "duration": 2, "velocity": 94}, {"time": 1452, "pitch": 72, "duration": 2, "velocity": 99}, {"time": 1455, "pitch": 74, "duration": 7, "velocity": 97}, {"time": 1464, "pitch": 74, "duration": 4, "velocity": 95}, {"time": 1470, "pitch": 76, "duration": 4, "velocity": 94}, {"time": 1476, "pitch": 76, "duration": 4, "velocity": 97}, {"time": 1482, "pitch": 67, "duration": 5, "velocity": 92}, {"time": 1488, "pitch": 67, "duration": 10, "velocity": 90}, {"time": 1500, "pitch": 66, "duration": 10, "velocity": 94}, {"time": 1512, "pitch": 67, "duration": 33, "velocity": 94}, {"time": 1548, "pitch": 62, "duration": 5, "velocity": 92}, {"time": 1554, "pitch": 72, "duration": 5, "velocity": 94}, {"time": 1560, "pitch": 71, "duration": 14, "velocity": 95}, {"time": 1578, "pitch": 71, "duration": 4, "velocity": 86}, {"time": 1584, "pitch": 72, "duration": 4, "velocity": 91}, {"time": 1590, "pitch": 71, "duration": 5, "velocity": 92}, {"time": 1596, "pitch": 69, "duration": 5, "velocity": 92}, {"time": 1602, "pitch": 67, "duration": 5, "velocity": 90}, {"time": 1608, "pitch": 69, "duration": 4, "velocity": 90}, {"time": 1614, "pitch": 71, "duration": 4, "velocity": 91}, {"time": 1620, "pitch": 72, "duration": 5, "velocity": 92}, {"time": 1626, "pitch": 71, "duration": 20, "velocity": 94}, {"time": 1650, "pitch": 64, "duration": 5, "velocity": 102}, {"time": 1656, "pitch": 72, "duration": 16, "velocity": 93}, {"time": 1674, "pitch": 72, "duration": 4, "velocity": 92}, {"time": 1680, "pitch": 74, "duration": 5, "velocity": 95}, {"time": 1686, "pitch": 72, "duration": 4, "velocity": 92}, {"time": 1692, "pitch": 69, "duration": 5, "velocity": 89}, {"time": 1698, "pitch": 71, "duration": 5, "velocity": 90}, {"time": 1704, "pitch": 72, "duration": 16, "velocity": 90}, {"time": 1722, "pitch": 71, "duration": 4, "velocity": 93}, {"time": 1728, "pitch": 71, "duration": 15, "velocity": 93}, {"time": 1746, "pitch": 67, "duration": 5, "velocity": 94}, {"time": 1752, "pitch": 74, "duration": 16, "velocity": 102}, {"time": 1770, "pitch": 74, "duration": 4, "velocity": 97}, {"time": 1776, "pitch": 76, "duration": 5, "velocity": 94}, {"time": 1782, "pitch": 74, "duration": 4, "velocity": 95}, {"time": 1788, "pitch": 72, "duration": 5, "velocity": 93}, {"time": 1794, "pitch": 71, "duration": 5, "velocity": 95}, {"time": 1800, "pitch": 71, "duration": 5, "velocity": 97}, {"time": 1806, "pitch": 72, "duration": 4, "velocity": 94}, {"time": 1812, "pitch": 69, "duration": 4, "velocity": 90}, {"time": 1818, "pitch": 67, "duration": 5, "velocity": 92}, {"time": 1824, "pitch": 78, "duration": 10, "velocity": 90}, {"time": 1842, "pitch": 76, "duration": 4, "velocity": 93}, {"time": 1848, "pitch": 74, "duration": 4, "velocity": 95}, {"time": 1854, "pitch": 72, "duration": 4, "velocity": 92}, {"time": 1860, "pitch": 64, "duration": 4, "velocity": 97}, {"time": 1866, "pitch": 66, "duration": 5, "velocity": 91}, {"time": 1872, "pitch": 71, "duration": 10, "velocity": 90}, {"time": 1884, "pitch": 69, "duration": 10, "velocity": 90}, {"time": 1896, "pitch": 67, "duration": 24, "velocity": 84}, {"time": 2112, "pitch": 71, "duration": 4, "velocity": 102}, {"time": 2118, "pitch": 74, "duration": 2, "velocity": 104}, {"time": 2121, "pitch": 79, "duration": 5, "velocity": 93}, {"time": 2127, "pitch": 81, "duration": 7, "velocity": 95}, {"time": 2136, "pitch": 83, "duration": 5, "velocity": 93}, {"time": 2142, "pitch": 79, "duration": 1, "velocity": 99}, {"time": 2145, "pitch": 79, "duration": 5, "velocity": 92}, {"time": 2151, "pitch": 76, "duration": 8, "velocity": 97}, {"time": 2160, "pitch": 81, "duration": 4, "velocity": 104}, {"time": 2166, "pitch": 78, "duration": 2, "velocity": 93}, {"time": 2169, "pitch": 78, "duration": 6, "velocity": 97}, {"time": 2175, "pitch": 76, "duration": 6, "velocity": 83}, {"time": 2184, "pitch": 74, "duration": 5, "velocity": 102}, {"time": 2190, "pitch": 81, "duration": 4, "velocity": 94}, {"time": 2196, "pitch": 78, "duration": 4, "velocity": 92}, {"time": 2202, "pitch": 79, "duration": 20, "velocity": 92}, {"time": 2232, "pitch": 72, "duration": 6, "velocity": 97}, {"time": 2238, "pitch": 71, "duration": 2, "velocity": 94}, {"time": 2241, "pitch": 72, "duration": 5, "velocity": 94}, {"time": 2247, "pitch": 74, "duration": 7, "velocity": 97}, {"time": 2256, "pitch": 76, "duration": 6, "velocity": 95}, {"time": 2262, "pitch": 74, "duration": 2, "velocity": 102}, {"time": 2265, "pitch": 76, "duration": 5, "velocity": 94}, {"time": 2271, "pitch": 78, "duration": 6, "velocity": 99}, {"time": 2280, "pitch": 79, "duration": 4, "velocity": 94}, {"time": 2286, "pitch": 78, "duration": 2, "velocity": 95}, {"time": 2289, "pitch": 79, "duration": 4, "velocity": 90}, {"time": 2295, "pitch": 81, "duration": 8, "velocity": 93}, {"time": 2304, "pitch": 81, "duration": 6, "velocity": 95}, {"time": 2310, "pitch": 67, "duration": 4, "velocity": 97}, {"time": 2316, "pitch": 71, "duration": 4, "velocity": 99}, {"time": 2322, "pitch": 74, "duration": 4, "velocity": 99}, {"time": 2328, "pitch": 74, "duration": 4, "velocity": 102}, {"time": 2334, "pitch": 76, "duration": 4, "velocity": 99}, {"time": 2340, "pitch": 72, "duration": 5, "velocity": 99}, {"time": 2346, "pitch": 71, "duration": 2, "velocity": 93}, {"time": 2349, "pitch": 69, "duration": 11, "velocity": 99}, {"time": 2361, "pitch": 67, "duration": 2, "velocity": 91}, {"time": 2364, "pitch": 71, "duration": 2, "velocity": 95}, {"time": 2367, "pitch": 72, "duration": 4, "velocity": 99}, {"time": 2373, "pitch": 72, "duration": 8, "velocity": 97}, {"time": 2382, "pitch": 74, "duration": 4, "velocity": 102}, {"time": 2388, "pitch": 71, "duration": 5, "velocity": 102}, {"time": 2394, "pitch": 69, "duration": 2, "velocity": 94}, {"time": 2397, "pitch": 67, "duration": 12, "velocity": 92}, {"time": 2409, "pitch": 62, "duration": 2, "velocity": 91}, {"time": 2412, "pitch": 69, "duration": 2, "velocity": 89}, {"time": 2415, "pitch": 71, "duration": 4, "velocity": 90}, {"time": 2421, "pitch": 71, "duration": 8, "velocity": 99}, {"time": 2430, "pitch": 72, "duration": 3, "velocity": 92}, {"time": 2436, "pitch": 72, "duration": 4, "velocity": 97}, {"time": 2442, "pitch": 64, "duration": 5, "velocity": 97}, {"time": 2448, "pitch": 66, "duration": 7, "velocity": 90}, {"time": 2460, "pitch": 67, "duration": 4, "velocity": 91}, {"time": 2466, "pitch": 69, "duration": 5, "velocity": 95}, {"time": 2472, "pitch": 67, "duration": 17, "velocity": 93}, {"time": 2490, "pitch": 69, "duration": 5, "velocity": 92}, {"time": 2496, "pitch": 71, "duration": 5, "velocity": 93}, {"time": 2502, "pitch": 67, "duration": 4, "velocity": 94}, {"time": 2508, "pitch": 71, "duration": 5, "velocity": 95}, {"time": 2514, "pitch": 74, "duration": 4, "velocity": 102}, {"time": 2520, "pitch": 74, "duration": 4, "velocity": 97}, {"time": 2526, "pitch": 76, "duration": 4, "velocity": 95}, {"time": 2532, "pitch": 72, "duration": 5, "velocity": 91}, {"time": 2538, "pitch": 71, "duration": 2, "velocity": 91}, {"time": 2541, "pitch": 69, "duration": 10, "velocity": 92}, {"time": 2553, "pitch": 79, "duration": 2, "velocity": 94}, {"time": 2556, "pitch": 78, "duration": 2, "velocity": 94}, {"time": 2559, "pitch": 79, "duration": 8, "velocity": 94}, {"time": 2568, "pitch": 74, "duration": 4, "velocity": 95}, {"time": 2574, "pitch": 76, "duration": 4, "velocity": 95}, {"time": 2580, "pitch": 74, "duration": 5, "velocity": 102}, {"time": 2586, "pitch": 72, "duration": 3, "velocity": 93}, {"time": 2589, "pitch": 71, "duration": 10, "velocity": 95}, {"time": 2649, "pitch": 67, "duration": 2, "velocity": 94}, {"time": 2652, "pitch": 72, "duration": 2, "velocity": 99}, {"time": 2655, "pitch": 74, "duration": 7, "velocity": 97}, {"time": 2664, "pitch": 74, "duration": 4, "velocity": 95}, {"time": 2670, "pitch": 76, "duration": 4, "velocity": 94}, {"time": 2676, "pitch": 76, "duration": 4, "velocity": 97}, {"time": 2682, "pitch": 67, "duration": 5, "velocity": 92}, {"time": 2688, "pitch": 67, "duration": 10, "velocity": 90}, {"time": 2700, "pitch": 66, "duration": 10, "velocity": 94}, {"time": 2712, "pitch": 67, "duration": 33, "velocity": 94}, {"time": 2748, "pitch": 62, "duration": 5, "velocity": 92}, {"time": 2754, "pitch": 72, "duration": 5, "velocity": 94}, {"time": 2760, "pitch": 71, "duration": 14, "velocity": 95}, {"time": 2778, "pitch": 71, "duration": 4, "velocity": 86}, {"time": 2784, "pitch": 72, "duration": 4, "velocity": 91}, {"time": 2790, "pitch": 71, "duration": 5, "velocity": 92}, {"time": 2796, "pitch": 69, "duration": 5, "velocity": 92}, {"time": 2802, "pitch": 67, "duration": 5, "velocity": 90}, {"time": 2808, "pitch": 69, "duration": 4, "velocity": 90}, {"time": 2814, "pitch": 71, "duration": 4, "velocity": 91}, {"time": 2820, "pitch": 72, "duration": 5, "velocity": 92}, {"time": 2826, "pitch": 71, "duration": 20, "velocity": 94}, {"time": 2850, "pitch": 64, "duration": 5, "velocity": 102}, {"time": 2856, "pitch": 72, "duration": 16, "velocity": 93}, {"time": 2874, "pitch": 72, "duration": 4, "velocity": 92}, {"time": 2880, "pitch": 74, "duration": 5, "velocity": 95}, {"time": 2886, "pitch": 72, "duration": 4, "velocity": 92}, {"time": 2892, "pitch": 69, "duration": 5, "velocity": 89}, {"time": 2898, "pitch": 71, "duration": 5, "velocity": 90}, {"time": 2904, "pitch": 72, "duration": 16, "velocity": 90}, {"time": 2922, "pitch": 71, "duration": 4, "velocity": 93}, {"time": 2928, "pitch": 71, "duration": 15, "velocity": 93}, {"time": 2946, "pitch": 67, "duration": 5, "velocity": 94}, {"time": 2952, "pitch": 74, "duration": 16, "velocity": 102}, {"time": 2970, "pitch": 74, "duration": 4, "velocity": 97}, {"time": 2976, "pitch": 76, "duration": 5, "velocity": 94}, {"time": 2982, "pitch": 74, "duration": 4, "velocity": 95}, {"time": 2988, "pitch": 72, "duration": 5, "velocity": 93}, {"time": 2994, "pitch": 71, "duration": 5, "velocity": 95}, {"time": 3000, "pitch": 71, "duration": 5, "velocity": 97}, {"time": 3006, "pitch": 72, "duration": 4, "velocity": 94}, {"time": 3012, "pitch": 69, "duration": 4, "velocity": 90}, {"time": 3018, "pitch": 67, "duration": 5, "velocity": 92}, {"time": 3024, "pitch": 78, "duration": 10, "velocity": 90}, {"time": 3042, "pitch": 76, "duration": 4, "velocity": 93}, {"time": 3048, "pitch": 74, "duration": 4, "velocity": 95}, {"time": 3054, "pitch": 72, "duration": 4, "velocity": 92}, {"time": 3060, "pitch": 64, "duration": 4, "velocity": 97}, {"time": 3066, "pitch": 66, "duration": 5, "velocity": 91}, {"time": 3072, "pitch": 71, "duration": 10, "velocity": 90}, {"time": 3084, "pitch": 69, "duration": 10, "velocity": 90}, {"time": 3096, "pitch": 67, "duration": 24, "velocity": 84}, {"time": 3126, "pitch": 67, "duration": 4, "velocity": 90}, {"time": 3132, "pitch": 66, "duration": 5, "velocity": 92}, {"time": 3138, "pitch": 67, "duration": 5, "velocity": 89}, {"time": 3144, "pitch": 74, "duration": 16, "velocity": 102}, {"time": 3162, "pitch": 74, "duration": 4, "velocity": 97}, {"time": 3168, "pitch": 76, "duration": 5, "velocity": 94}, {"time": 3174, "pitch": 74, "duration": 4, "velocity": 95}, {"time": 3180, "pitch": 72, "duration": 5, "velocity": 93}, {"time": 3186, "pitch": 71, "duration": 5, "velocity": 95}, {"time": 3192, "pitch": 71, "duration": 5, "velocity": 97}, {"time": 3198, "pitch": 72, "duration": 4, "velocity": 94}, {"time": 3204, "pitch": 69, "duration": 4, "velocity": 90}, {"time": 3210, "pitch": 67, "duration": 5, "velocity": 92}, {"time": 3216, "pitch": 78, "duration": 10, "velocity": 90}, {"time": 3234, "pitch": 76, "duration": 4, "velocity": 93}, {"time": 3240, "pitch": 74, "duration": 4, "velocity": 95}, {"time": 3246, "pitch": 72, "duration": 4, "velocity": 92}, {"time": 3252, "pitch": 64, "duration": 4, "velocity": 97}, {"time": 3258, "pitch": 66, "duration": 5, "velocity": 91}, {"time": 3264, "pitch": 71, "duration": 10, "velocity": 90}, {"time": 3276, "pitch": 69, "duration": 10, "velocity": 90}, {"time": 3288, "pitch": 67, "duration": 24, "velocity": 84}, {"time": 3330, "pitch": 76, "duration": 4, "velocity": 93}, {"time": 3336, "pitch": 74, "duration": 4, "velocity": 95}, {"time": 3342, "pitch": 72, "duration": 4, "velocity": 92}, {"time": 3348, "pitch": 64, "duration": 4, "velocity": 97}, {"time": 3354, "pitch": 66, "duration": 5, "velocity": 91}, {"time": 3360, "pitch": 71, "duration": 10, "velocity": 90}, {"time": 3372, "pitch": 69, "duration": 10, "velocity": 90}, {"time": 3384, "pitch": 67, "duration": 24, "velocity": 84}, {"time": 3426, "pitch": 76, "duration": 4, "velocity": 93}, {"time": 3432, "pitch": 74, "duration": 4, "velocity": 95}, {"time": 3438, "pitch": 72, "duration": 4, "velocity": 92}, {"time": 3444, "pitch": 64, "duration": 4, "velocity": 97}, {"time": 3450, "pitch": 66, "duration": 5, "velocity": 91}, {"time": 3456, "pitch": 71, "duration": 42, "velocity": 90}, {"time": 3507, "pitch": 69, "duration": 11, "velocity": 97}, {"time": 3519, "pitch": 67, "duration": 39, "velocity": 90}]}, {"program": 0, "is_drum": false, "name": "PIANO", "notes": [{"time": 24, "pitch": 43, "duration": 20, "velocity": 88}, {"time": 24, "pitch": 55, "duration": 7, "velocity": 82}, {"time": 24, "pitch": 59, "duration": 10, "velocity": 85}, {"time": 30, "pitch": 50, "duration": 14, "velocity": 73}, {"time": 36, "pitch": 55, "duration": 7, "velocity": 91}, {"time": 42, "pitch": 59, "duration": 7, "velocity": 95}, {"time": 48, "pitch": 45, "duration": 18, "velocity": 88}, {"time": 48, "pitch": 57, "duration": 12, "velocity": 84}, {"time": 48, "pitch": 60, "duration": 7, "velocity": 83}, {"time": 54, "pitch": 52, "duration": 12, "velocity": 73}, {"time": 60, "pitch": 60, "duration": 3, "velocity": 84}, {"time": 60, "pitch": 64, "duration": 4, "velocity": 90}, {"time": 72, "pitch": 50, "duration": 19, "velocity": 86}, {"time": 72, "pitch": 62, "duration": 6, "velocity": 84}, {"time": 78, "pitch": 57, "duration": 7, "velocity": 84}, {"time": 84, "pitch": 62, "duration": 6, "velocity": 87}, {"time": 84, "pitch": 66, "duration": 7, "velocity": 78}, {"time": 90, "pitch": 57, "duration": 2, "velocity": 71}, {"time": 96, "pitch": 43, "duration": 11, "velocity": 88}, {"time": 96, "pitch": 55, "duration": 10, "velocity": 81}, {"time": 96, "pitch": 59, "duration": 10, "velocity": 81}, {"time": 108, "pitch": 45, "duration": 6, "velocity": 88}, {"time": 108, "pitch": 57, "duration": 5, "velocity": 86}, {"time": 114, "pitch": 47, "duration": 6, "velocity": 82}, {"time": 114, "pitch": 59, "duration": 5, "velocity": 92}, {"time": 120, "pitch": 48, "duration": 15, "velocity": 90}, {"time": 120, "pitch": 60, "duration": 7, "velocity": 85}, {"time": 120, "pitch": 64, "duration": 6, "velocity": 84}, {"time": 126, "pitch": 55, "duration": 8, "velocity": 73}, {"time": 132, "pitch": 60, "duration": 2, "velocity": 89}, {"time": 132, "pitch": 64, "duration": 1, "velocity": 92}, {"time": 132, "pitch": 67, "duration": 2, "velocity": 87}, {"time": 144, "pitch": 42, "duration": 13, "velocity": 83}, {"time": 144, "pitch": 63, "duration": 5, "velocity": 80}, {"time": 144, "pitch": 66, "duration": 9, "velocity": 79}, {"time": 144, "pitch": 69, "duration": 9, "velocity": 86}, {"time": 150, "pitch": 63, "duration": 4, "velocity": 81}, {"time": 156, "pitch": 47, "duration": 11, "velocity": 89}, {"time": 156, "pitch": 57, "duration": 11, "velocity": 84}, {"time": 156, "pitch": 63, "duration": 11, "velocity": 79}, {"time": 156, "pitch": 66, "duration": 11, "velocity": 83}, {"time": 168, "pitch": 40, "duration": 17, "velocity": 87}, {"time": 168, "pitch": 64, "duration": 6, "velocity": 86}, {"time": 168, "pitch": 67, "duration": 6, "velocity": 79}, {"time": 174, "pitch": 66, "duration": 3, "velocity": 76}, {"time": 180, "pitch": 64, "duration": 4, "velocity": 91}, {"time": 180, "pitch": 67, "duration": 5, "velocity": 89}, {"time": 192, "pitch": 43, "duration": 19, "velocity": 86}, {"time": 192, "pitch": 62, "duration": 7, "velocity": 80}, {"time": 192, "pitch": 67, "duration": 7, "velocity": 80}, {"time": 198, "pitch": 50, "duration": 10, "velocity": 76}, {"time": 204, "pitch": 62, "duration": 3, "velocity": 89}, {"time": 204, "pitch": 65, "duration": 7, "velocity": 92}, {"time": 210, "pitch": 62, "duration": 3, "velocity": 87}, {"time": 216, "pitch": 48, "duration": 17, "velocity": 89}, {"time": 216, "pitch": 60, "duration": 10, "velocity": 81}, {"time": 216, "pitch": 64, "duration": 8, "velocity": 87}, {"time": 222, "pitch": 55, "duration": 11, "velocity": 82}, {"time": 228, "pitch": 64, "duration": 7, "velocity": 90}, {"time": 228, "pitch": 67, "duration": 7, "velocity": 88}, {"time": 234, "pitch": 60, "duration": 6, "velocity": 85}, {"time": 240, "pitch": 50, "duration": 13, "velocity": 89}, {"time": 240, "pitch": 66, "duration": 12, "velocity": 86}, {"time": 246, "pitch": 57, "duration": 7, "velocity": 84}, {"time": 252, "pitch": 62, "duration": 3, "velocity": 92}, {"time": 264, "pitch": 47, "duration": 18, "velocity": 84}, {"time": 264, "pitch": 62, "duration": 12, "velocity": 85}, {"time": 264, "pitch": 66, "duration": 18, "velocity": 80}, {"time": 270, "pitch": 54, "duration": 9, "velocity": 78}, {"time": 273, "pitch": 57, "duration": 7, "velocity": 89}, {"time": 282, "pitch": 62, "duration": 5, "velocity": 88}, {"time": 288, "pitch": 52, "duration": 15, "velocity": 89}, {"time": 288, "pitch": 64, "duration": 5, "velocity": 88}, {"time": 294, "pitch": 59, "duration": 4, "velocity": 88}, {"time": 300, "pitch": 59, "duration": 4, "velocity": 86}, {"time": 300, "pitch": 68, "duration": 3, "velocity": 80}, {"time": 312, "pitch": 45, "duration": 5, "velocity": 89}, {"time": 312, "pitch": 55, "duration": 3, "velocity": 88}, {"time": 312, "pitch": 60, "duration": 4, "velocity": 88}, {"time": 324, "pitch": 47, "duration": 6, "velocity": 88}, {"time": 324, "pitch": 57, "duration": 5, "velocity": 85}, {"time": 324, "pitch": 62, "duration": 5, "velocity": 88}, {"time": 336, "pitch": 49, "duration": 24, "velocity": 76}, {"time": 336, "pitch": 61, "duration": 11, "velocity": 80}, {"time": 336, "pitch": 64, "duration": 11, "velocity": 88}, {"time": 336, "pitch": 67, "duration": 23, "velocity": 77}, {"time": 348, "pitch": 61, "duration": 11, "velocity": 82}, {"time": 348, "pitch": 64, "duration": 11, "velocity": 89}, {"time": 360, "pitch": 38, "duration": 1, "velocity": 90}, {"time": 360, "pitch": 62, "duration": 20, "velocity": 84}, {"time": 360, "pitch": 69, "duration": 19, "velocity": 87}, {"time": 366, "pitch": 50, "duration": 32, "velocity": 83}, {"time": 372, "pitch": 57, "duration": 26, "velocity": 92}, {"time": 378, "pitch": 66, "duration": 1, "velocity": 92}, {"time": 384, "pitch": 62, "duration": 22, "velocity": 83}, {"time": 384, "pitch": 66, "duration": 22, "velocity": 81}, {"time": 384, "pitch": 74, "duration": 22, "velocity": 90}, {"time": 408, "pitch": 43, "duration": 20, "velocity": 87}, {"time": 414, "pitch": 50, "duration": 15, "velocity": 81}, {"time": 420, "pitch": 55, "duration": 3, "velocity": 83}, {"time": 420, "pitch": 62, "duration": 12, "velocity": 84}, {"time": 426, "pitch": 55, "duration": 4, "velocity": 88}, {"time": 432, "pitch": 45, "duration": 12, "velocity": 88}, {"time": 432, "pitch": 57, "duration": 13, "velocity": 79}, {"time": 432, "pitch": 60, "duration": 8, "velocity": 80}, {"time": 438, "pitch": 52, "duration": 6, "velocity": 76}, {"time": 444, "pitch": 60, "duration": 5, "velocity": 90}, {"time": 444, "pitch": 64, "duration": 5, "velocity": 90}, {"time": 456, "pitch": 42, "duration": 14, "velocity": 78}, {"time": 456, "pitch": 57, "duration": 3, "velocity": 78}, {"time": 456, "pitch": 62, "duration": 9, "velocity": 83}, {"time": 462, "pitch": 57, "duration": 4, "velocity": 83}, {"time": 468, "pitch": 57, "duration": 4, "velocity": 83}, {"time": 468, "pitch": 62, "duration": 8, "velocity": 86}, {"time": 480, "pitch": 43, "duration": 19, "velocity": 84}, {"time": 480, "pitch": 55, "duration": 13, "velocity": 80}, {"time": 480, "pitch": 59, "duration": 8, "velocity": 83}, {"time": 486, "pitch": 50, "duration": 12, "velocity": 76}, {"time": 492, "pitch": 59, "duration": 7, "velocity": 91}, {"time": 492, "pitch": 62, "duration": 7, "velocity": 89}, {"time": 498, "pitch": 55, "duration": 4, "velocity": 88}, {"time": 504, "pitch": 48, "duration": 13, "velocity": 86}, {"time": 504, "pitch": 60, "duration": 12, "velocity": 83}, {"time": 510, "pitch": 55, "duration": 7, "velocity": 82}, {"time": 516, "pitch": 64, "duration": 7, "velocity": 90}, {"time": 528, "pitch": 48, "duration": 6, "velocity": 89}, {"time": 528, "pitch": 60, "duration": 5, "velocity": 84}, {"time": 528, "pitch": 64, "duration": 10, "velocity": 86}, {"time": 540, "pitch": 47, "duration": 5, "velocity": 88}, {"time": 540, "pitch": 59, "duration": 5, "velocity": 82}, {"time": 540, "pitch": 62, "duration": 7, "velocity": 85}, {"time": 552, "pitch": 45, "duration": 18, "velocity": 87}, {"time": 552, "pitch": 57, "duration": 12, "velocity": 77}, {"time": 552, "pitch": 60, "duration": 8, "velocity": 82}, {"time": 558, "pitch": 52, "duration": 12, "velocity": 80}, {"time": 564, "pitch": 64, "duration": 12, "velocity": 90}, {"time": 570, "pitch": 57, "duration": 4, "velocity": 83}, {"time": 576, "pitch": 43, "duration": 17, "velocity": 86}, {"time": 582, "pitch": 50, "duration": 9, "velocity": 81}, {"time": 588, "pitch": 55, "duration": 3, "velocity": 89}, {"time": 588, "pitch": 59, "duration": 7, "velocity": 89}, {"time": 594, "pitch": 55, "duration": 3, "velocity": 89}, {"time": 600, "pitch": 38, "duration": 15, "velocity": 82}, {"time": 600, "pitch": 62, "duration": 7, "velocity": 83}, {"time": 606, "pitch": 57, "duration": 6, "velocity": 88}, {"time": 612, "pitch": 65, "duration": 8, "velocity": 94}, {"time": 618, "pitch": 57, "duration": 7, "velocity": 89}, {"time": 624, "pitch": 43, "duration": 20, "velocity": 88}, {"time": 630, "pitch": 55, "duration": 6, "velocity": 88}, {"time": 636, "pitch": 59, "duration": 5, "velocity": 89}, {"time": 636, "pitch": 62, "duration": 6, "velocity": 90}, {"time": 648, "pitch": 48, "duration": 15, "velocity": 89}, {"time": 654, "pitch": 55, "duration": 7, "velocity": 89}, {"time": 660, "pitch": 60, "duration": 5, "velocity": 88}, {"time": 660, "pitch": 64, "duration": 5, "velocity": 90}, {"time": 672, "pitch": 47, "duration": 7, "velocity": 88}, {"time": 672, "pitch": 59, "duration": 5, "velocity": 83}, {"time": 672, "pitch": 62, "duration": 6, "velocity": 83}, {"time": 684, "pitch": 50, "duration": 10, "velocity": 84}, {"time": 684, "pitch": 57, "duration": 15, "velocity": 84}, {"time": 684, "pitch": 62, "duration": 14, "velocity": 88}, {"time": 696, "pitch": 45, "duration": 19, "velocity": 89}, {"time": 702, "pitch": 52, "duration": 12, "velocity": 83}, {"time": 708, "pitch": 55, "duration": 3, "velocity": 89}, {"time": 708, "pitch": 60, "duration": 12, "velocity": 88}, {"time": 714, "pitch": 55, "duration": 6, "velocity": 83}, {"time": 720, "pitch": 50, "duration": 16, "velocity": 91}, {"time": 726, "pitch": 57, "duration": 8, "velocity": 89}, {"time": 732, "pitch": 62, "duration": 5, "velocity": 89}, {"time": 738, "pitch": 60, "duration": 2, "velocity": 92}, {"time": 744, "pitch": 43, "duration": 18, "velocity": 88}, {"time": 744, "pitch": 55, "duration": 8, "velocity": 83}, {"time": 744, "pitch": 59, "duration": 10, "velocity": 83}, {"time": 750, "pitch": 50, "duration": 11, "velocity": 79}, {"time": 756, "pitch": 55, "duration": 7, "velocity": 92}, {"time": 762, "pitch": 59, "duration": 6, "velocity": 80}, {"time": 768, "pitch": 38, "duration": 20, "velocity": 90}, {"time": 768, "pitch": 60, "duration": 24, "velocity": 80}, {"time": 774, "pitch": 45, "duration": 14, "velocity": 81}, {"time": 780, "pitch": 50, "duration": 12, "velocity": 89}, {"time": 780, "pitch": 54, "duration": 12, "velocity": 87}, {"time": 780, "pitch": 57, "duration": 12, "velocity": 85}, {"time": 792, "pitch": 43, "duration": 20, "velocity": 87}, {"time": 798, "pitch": 50, "duration": 15, "velocity": 81}, {"time": 804, "pitch": 55, "duration": 3, "velocity": 83}, {"time": 804, "pitch": 62, "duration": 12, "velocity": 84}, {"time": 810, "pitch": 55, "duration": 4, "velocity": 88}, {"time": 816, "pitch": 45, "duration": 12, "velocity": 88}, {"time": 816, "pitch": 57, "duration": 13, "velocity": 79}, {"time": 816, "pitch": 60, "duration": 8, "velocity": 80}, {"time": 822, "pitch": 52, "duration": 6, "velocity": 76}, {"time": 828, "pitch": 60, "duration": 5, "velocity": 90}, {"time": 828, "pitch": 64, "duration": 5, "velocity": 90}, {"time": 840, "pitch": 42, "duration": 14, "velocity": 78}, {"time": 840, "pitch": 57, "duration": 3, "velocity": 78}, {"time": 840, "pitch": 62, "duration": 9, "velocity": 83}, {"time": 846, "pitch": 57, "duration": 4, "velocity": 83}, {"time": 852, "pitch": 57, "duration": 4, "velocity": 83}, {"time": 852, "pitch": 62, "duration": 8, "velocity": 86}, {"time": 864, "pitch": 43, "duration": 19, "velocity": 84}, {"time": 864, "pitch": 55, "duration": 13, "velocity": 80}, {"time": 864, "pitch": 59, "duration": 8, "velocity": 83}, {"time": 870, "pitch": 50, "duration": 12, "velocity": 76}, {"time": 876, "pitch": 59, "duration": 7, "velocity": 91}, {"time": 876, "pitch": 62, "duration": 7, "velocity": 89}, {"time": 882, "pitch": 55, "duration": 4, "velocity": 88}, {"time": 888, "pitch": 48, "duration": 13, "velocity": 86}, {"time": 888, "pitch": 60, "duration": 12, "velocity": 83}, {"time": 894, "pitch": 55, "duration": 7, "velocity": 82}, {"time": 900, "pitch": 64, "duration": 7, "velocity": 90}, {"time": 912, "pitch": 48, "duration": 6, "velocity": 89}, {"time": 912, "pitch": 60, "duration": 5, "velocity": 84}, {"time": 912, "pitch": 64, "duration": 10, "velocity": 86}, {"time": 924, "pitch": 47, "duration": 5, "velocity": 88}, {"time": 924, "pitch": 59, "duration": 5, "velocity": 82}, {"time": 924, "pitch": 62, "duration": 7, "velocity": 85}, {"time": 936, "pitch": 45, "duration": 18, "velocity": 87}, {"time": 936, "pitch": 57, "duration": 12, "velocity": 77}, {"time": 936, "pitch": 60, "duration": 8, "velocity": 82}, {"time": 942, "pitch": 52, "duration": 12, "velocity": 80}, {"time": 948, "pitch": 64, "duration": 12, "velocity": 90}, {"time": 954, "pitch": 57, "duration": 4, "velocity": 83}, {"time": 960, "pitch": 43, "duration": 17, "velocity": 86}, {"time": 966, "pitch": 50, "duration": 9, "velocity": 81}, {"time": 972, "pitch": 55, "duration": 3, "velocity": 89}, {"time": 972, "pitch": 59, "duration": 7, "velocity": 89}, {"time": 978, "pitch": 55, "duration": 3, "velocity": 89}, {"time": 984, "pitch": 38, "duration": 15, "velocity": 82}, {"time": 984, "pitch": 62, "duration": 7, "velocity": 83}, {"time": 990, "pitch": 57, "duration": 6, "velocity": 88}, {"time": 996, "pitch": 65, "duration": 8, "velocity": 94}, {"time": 1002, "pitch": 57, "duration": 7, "velocity": 89}, {"time": 1008, "pitch": 43, "duration": 20, "velocity": 88}, {"time": 1014, "pitch": 55, "duration": 6, "velocity": 88}, {"time": 1020, "pitch": 59, "duration": 5, "velocity": 89}, {"time": 1020, "pitch": 62, "duration": 6, "velocity": 90}, {"time": 1032, "pitch": 48, "duration": 15, "velocity": 89}, {"time": 1038, "pitch": 55, "duration": 7, "velocity": 89}, {"time": 1044, "pitch": 60, "duration": 5, "velocity": 88}, {"time": 1044, "pitch": 64, "duration": 5, "velocity": 90}, {"time": 1056, "pitch": 47, "duration": 7, "velocity": 88}, {"time": 1056, "pitch": 59, "duration": 5, "velocity": 83}, {"time": 1056, "pitch": 62, "duration": 6, "velocity": 83}, {"time": 1068, "pitch": 50, "duration": 10, "velocity": 84}, {"time": 1068, "pitch": 57, "duration": 15, "velocity": 84}, {"time": 1068, "pitch": 62, "duration": 14, "velocity": 88}, {"time": 1080, "pitch": 45, "duration": 19, "velocity": 89}, {"time": 1086, "pitch": 52, "duration": 12, "velocity": 83}, {"time": 1092, "pitch": 55, "duration": 3, "velocity": 89}, {"time": 1092, "pitch": 60, "duration": 12, "velocity": 88}, {"time": 1098, "pitch": 55, "duration": 6, "velocity": 83}, {"time": 1104, "pitch": 50, "duration": 16, "velocity": 91}, {"time": 1110, "pitch": 57, "duration": 8, "velocity": 89}, {"time": 1116, "pitch": 62, "duration": 5, "velocity": 89}, {"time": 1122, "pitch": 60, "duration": 2, "velocity": 92}, {"time": 1128, "pitch": 43, "duration": 9, "velocity": 91}, {"time": 1128, "pitch": 55, "duration": 6, "velocity": 89}, {"time": 1128, "pitch": 59, "duration": 6, "velocity": 91}, {"time": 1134, "pitch": 57, "duration": 4, "velocity": 89}, {"time": 1137, "pitch": 59, "duration": 2, "velocity": 93}, {"time": 1140, "pitch": 45, "duration": 10, "velocity": 90}, {"time": 1140, "pitch": 57, "duration": 7, "velocity": 83}, {"time": 1140, "pitch": 60, "duration": 6, "velocity": 97}, {"time": 1146, "pitch": 59, "duration": 4, "velocity": 90}, {"time": 1149, "pitch": 60, "duration": 2, "velocity": 91}, {"time": 1152, "pitch": 47, "duration": 5, "velocity": 92}, {"time": 1152, "pitch": 59, "duration": 4, "velocity": 84}, {"time": 1152, "pitch": 62, "duration": 5, "velocity": 90}, {"time": 1158, "pitch": 67, "duration": 4, "velocity": 93}, {"time": 1158, "pitch": 79, "duration": 3, "velocity": 93}, {"time": 1164, "pitch": 43, "duration": 12, "velocity": 91}, {"time": 1164, "pitch": 66, "duration": 4, "velocity": 89}, {"time": 1164, "pitch": 78, "duration": 4, "velocity": 90}, {"time": 1170, "pitch": 67, "duration": 2, "velocity": 91}, {"time": 1170, "pitch": 79, "duration": 2, "velocity": 91}, {"time": 1176, "pitch": 36, "duration": 12, "velocity": 88}, {"time": 1176, "pitch": 60, "duration": 4, "velocity": 91}, {"time": 1176, "pitch": 67, "duration": 6, "velocity": 87}, {"time": 1188, "pitch": 60, "duration": 2, "velocity": 91}, {"time": 1188, "pitch": 64, "duration": 5, "velocity": 102}, {"time": 1188, "pitch": 67, "duration": 9, "velocity": 93}, {"time": 1194, "pitch": 60, "duration": 4, "velocity": 87}, {"time": 1197, "pitch": 64, "duration": 2, "velocity": 84}, {"time": 1200, "pitch": 50, "duration": 10, "velocity": 95}, {"time": 1200, "pitch": 62, "duration": 4, "velocity": 88}, {"time": 1200, "pitch": 66, "duration": 4, "velocity": 91}, {"time": 1203, "pitch": 57, "duration": 7, "velocity": 83}, {"time": 1206, "pitch": 62, "duration": 3, "velocity": 91}, {"time": 1212, "pitch": 50, "duration": 3, "velocity": 94}, {"time": 1212, "pitch": 57, "duration": 3, "velocity": 90}, {"time": 1212, "pitch": 62, "duration": 3, "velocity": 93}, {"time": 1212, "pitch": 66, "duration": 3, "velocity": 93}, {"time": 1218, "pitch": 47, "duration": 2, "velocity": 72}, {"time": 1224, "pitch": 47, "duration": 19, "velocity": 91}, {"time": 1224, "pitch": 59, "duration": 6, "velocity": 91}, {"time": 1224, "pitch": 62, "duration": 7, "velocity": 91}, {"time": 1224, "pitch": 66, "duration": 9, "velocity": 89}, {"time": 1230, "pitch": 54, "duration": 7, "velocity": 76}, {"time": 1233, "pitch": 59, "duration": 2, "velocity": 89}, {"time": 1236, "pitch": 59, "duration": 6, "velocity": 93}, {"time": 1236, "pitch": 62, "duration": 7, "velocity": 94}, {"time": 1236, "pitch": 66, "duration": 8, "velocity": 90}, {"time": 1242, "pitch": 54, "duration": 1, "velocity": 90}, {"time": 1245, "pitch": 59, "duration": 2, "velocity": 92}, {"time": 1248, "pitch": 40, "duration": 11, "velocity": 90}, {"time": 1248, "pitch": 59, "duration": 1, "velocity": 84}, {"time": 1248, "pitch": 67, "duration": 6, "velocity": 88}, {"time": 1251, "pitch": 59, "duration": 3, "velocity": 90}, {"time": 1254, "pitch": 64, "duration": 3, "velocity": 92}, {"time": 1257, "pitch": 59, "duration": 1, "velocity": 88}, {"time": 1260, "pitch": 40, "duration": 6, "velocity": 90}, {"time": 1260, "pitch": 47, "duration": 5, "velocity": 89}, {"time": 1260, "pitch": 59, "duration": 3, "velocity": 92}, {"time": 1260, "pitch": 64, "duration": 6, "velocity": 104}, {"time": 1260, "pitch": 67, "duration": 7, "velocity": 92}, {"time": 1266, "pitch": 59, "duration": 1, "velocity": 95}, {"time": 1272, "pitch": 45, "duration": 16, "velocity": 88}, {"time": 1272, "pitch": 57, "duration": 7, "velocity": 85}, {"time": 1272, "pitch": 60, "duration": 6, "velocity": 87}, {"time": 1278, "pitch": 52, "duration": 7, "velocity": 85}, {"time": 1284, "pitch": 57, "duration": 4, "velocity": 93}, {"time": 1284, "pitch": 60, "duration": 4, "velocity": 104}, {"time": 1284, "pitch": 64, "duration": 4, "velocity": 97}, {"time": 1287, "pitch": 52, "duration": 2, "velocity": 89}, {"time": 1290, "pitch": 45, "duration": 3, "velocity": 90}, {"time": 1290, "pitch": 57, "duration": 1, "velocity": 86}, {"time": 1296, "pitch": 47, "duration": 14, "velocity": 92}, {"time": 1296, "pitch": 59, "duration": 6, "velocity": 93}, {"time": 1296, "pitch": 63, "duration": 7, "velocity": 86}, {"time": 1302, "pitch": 51, "duration": 2, "velocity": 66}, {"time": 1305, "pitch": 59, "duration": 2, "velocity": 95}, {"time": 1308, "pitch": 59, "duration": 3, "velocity": 104}, {"time": 1308, "pitch": 63, "duration": 4, "velocity": 99}, {"time": 1308, "pitch": 66, "duration": 4, "velocity": 92}, {"time": 1308, "pitch": 71, "duration": 5, "velocity": 93}, {"time": 1311, "pitch": 54, "duration": 2, "velocity": 88}, {"time": 1314, "pitch": 59, "duration": 4, "velocity": 95}, {"time": 1320, "pitch": 40, "duration": 8, "velocity": 93}, {"time": 1320, "pitch": 64, "duration": 3, "velocity": 93}, {"time": 1320, "pitch": 67, "duration": 6, "velocity": 92}, {"time": 1320, "pitch": 71, "duration": 10, "velocity": 91}, {"time": 1326, "pitch": 64, "duration": 2, "velocity": 92}, {"time": 1332, "pitch": 39, "duration": 5, "velocity": 92}, {"time": 1332, "pitch": 63, "duration": 3, "velocity": 91}, {"time": 1332, "pitch": 67, "duration": 6, "velocity": 90}, {"time": 1332, "pitch": 71, "duration": 10, "velocity": 93}, {"time": 1338, "pitch": 63, "duration": 1, "velocity": 78}, {"time": 1344, "pitch": 38, "duration": 5, "velocity": 92}, {"time": 1344, "pitch": 62, "duration": 2, "velocity": 90}, {"time": 1344, "pitch": 67, "duration": 5, "velocity": 92}, {"time": 1350, "pitch": 62, "duration": 4, "velocity": 90}, {"time": 1356, "pitch": 38, "duration": 7, "velocity": 88}, {"time": 1356, "pitch": 62, "duration": 3, "velocity": 92}, {"time": 1356, "pitch": 66, "duration": 6, "velocity": 97}, {"time": 1356, "pitch": 71, "duration": 6, "velocity": 97}, {"time": 1362, "pitch": 62, "duration": 3, "velocity": 93}, {"time": 1368, "pitch": 36, "duration": 16, "velocity": 88}, {"time": 1368, "pitch": 60, "duration": 4, "velocity": 90}, {"time": 1368, "pitch": 67, "duration": 6, "velocity": 86}, {"time": 1374, "pitch": 43, "duration": 7, "velocity": 80}, {"time": 1380, "pitch": 60, "duration": 2, "velocity": 104}, {"time": 1380, "pitch": 67, "duration": 4, "velocity": 95}, {"time": 1383, "pitch": 43, "duration": 2, "velocity": 89}, {"time": 1386, "pitch": 60, "duration": 4, "velocity": 92}, {"time": 1389, "pitch": 64, "duration": 2, "velocity": 89}, {"time": 1392, "pitch": 50, "duration": 14, "velocity": 90}, {"time": 1392, "pitch": 66, "duration": 7, "velocity": 92}, {"time": 1398, "pitch": 57, "duration": 7, "velocity": 89}, {"time": 1401, "pitch": 62, "duration": 1, "velocity": 85}, {"time": 1404, "pitch": 62, "duration": 3, "velocity": 94}, {"time": 1404, "pitch": 66, "duration": 4, "velocity": 97}, {"time": 1407, "pitch": 57, "duration": 2, "velocity": 82}, {"time": 1410, "pitch": 50, "duration": 2, "velocity": 93}, {"time": 1416, "pitch": 47, "duration": 14, "velocity": 89}, {"time": 1416, "pitch": 59, "duration": 5, "velocity": 83}, {"time": 1416, "pitch": 62, "duration": 6, "velocity": 84}, {"time": 1416, "pitch": 66, "duration": 6, "velocity": 81}, {"time": 1422, "pitch": 54, "duration": 9, "velocity": 80}, {"time": 1428, "pitch": 59, "duration": 6, "velocity": 93}, {"time": 1428, "pitch": 62, "duration": 6, "velocity": 95}, {"time": 1428, "pitch": 66, "duration": 8, "velocity": 95}, {"time": 1434, "pitch": 47, "duration": 4, "velocity": 91}, {"time": 1437, "pitch": 59, "duration": 2, "velocity": 91}, {"time": 1440, "pitch": 52, "duration": 14, "velocity": 99}, {"time": 1440, "pitch": 59, "duration": 3, "velocity": 94}, {"time": 1440, "pitch": 64, "duration": 7, "velocity": 95}, {"time": 1446, "pitch": 59, "duration": 1, "velocity": 87}, {"time": 1452, "pitch": 59, "duration": 3, "velocity": 95}, {"time": 1452, "pitch": 67, "duration": 4, "velocity": 91}, {"time": 1455, "pitch": 52, "duration": 1, "velocity": 91}, {"time": 1458, "pitch": 59, "duration": 4, "velocity": 90}, {"time": 1461, "pitch": 64, "duration": 1, "velocity": 84}, {"time": 1464, "pitch": 45, "duration": 13, "velocity": 90}, {"time": 1464, "pitch": 57, "duration": 8, "velocity": 88}, {"time": 1464, "pitch": 60, "duration": 7, "velocity": 92}, {"time": 1470, "pitch": 52, "duration": 8, "velocity": 88}, {"time": 1476, "pitch": 57, "duration": 6, "velocity": 89}, {"time": 1476, "pitch": 60, "duration": 6, "velocity": 95}, {"time": 1476, "pitch": 64, "duration": 6, "velocity": 94}, {"time": 1482, "pitch": 45, "duration": 4, "velocity": 90}, {"time": 1488, "pitch": 50, "duration": 16, "velocity": 92}, {"time": 1488, "pitch": 57, "duration": 3, "velocity": 83}, {"time": 1488, "pitch": 62, "duration": 9, "velocity": 88}, {"time": 1488, "pitch": 66, "duration": 9, "velocity": 87}, {"time": 1494, "pitch": 57, "duration": 4, "velocity": 80}, {"time": 1500, "pitch": 57, "duration": 5, "velocity": 90}, {"time": 1500, "pitch": 62, "duration": 5, "velocity": 93}, {"time": 1500, "pitch": 66, "duration": 6, "velocity": 92}, {"time": 1512, "pitch": 48, "duration": 9, "velocity": 89}, {"time": 1512, "pitch": 60, "duration": 6, "velocity": 88}, {"time": 1512, "pitch": 64, "duration": 7, "velocity": 89}, {"time": 1518, "pitch": 55, "duration": 4, "velocity": 82}, {"time": 1521, "pitch": 60, "duration": 1, "velocity": 90}, {"time": 1524, "pitch": 47, "duration": 10, "velocity": 92}, {"time": 1524, "pitch": 59, "duration": 5, "velocity": 93}, {"time": 1524, "pitch": 62, "duration": 8, "velocity": 89}, {"time": 1536, "pitch": 45, "duration": 4, "velocity": 90}, {"time": 1536, "pitch": 57, "duration": 4, "velocity": 89}, {"time": 1536, "pitch": 60, "duration": 4, "velocity": 91}, {"time": 1548, "pitch": 38, "duration": 12, "velocity": 91}, {"time": 1548, "pitch": 50, "duration": 11, "velocity": 82}, {"time": 1548, "pitch": 54, "duration": 11, "velocity": 81}, {"time": 1548, "pitch": 57, "duration": 11, "velocity": 74}, {"time": 1548, "pitch": 62, "duration": 12, "velocity": 83}, {"time": 1560, "pitch": 43, "duration": 20, "velocity": 87}, {"time": 1566, "pitch": 50, "duration": 15, "velocity": 81}, {"time": 1572, "pitch": 55, "duration": 3, "velocity": 83}, {"time": 1572, "pitch": 62, "duration": 12, "velocity": 84}, {"time": 1578, "pitch": 55, "duration": 4, "velocity": 88}, {"time": 1584, "pitch": 45, "duration": 12, "velocity": 88}, {"time": 1584, "pitch": 57, "duration": 13, "velocity": 79}, {"time": 1584, "pitch": 60, "duration": 8, "velocity": 80}, {"time": 1590, "pitch": 52, "duration": 6, "velocity": 76}, {"time": 1596, "pitch": 60, "duration": 5, "velocity": 90}, {"time": 1596, "pitch": 64, "duration": 5, "velocity": 90}, {"time": 1608, "pitch": 42, "duration": 14, "velocity": 78}, {"time": 1608, "pitch": 57, "duration": 3, "velocity": 78}, {"time": 1608, "pitch": 62, "duration": 9, "velocity": 83}, {"time": 1614, "pitch": 57, "duration": 4, "velocity": 83}, {"time": 1620, "pitch": 57, "duration": 4, "velocity": 83}, {"time": 1620, "pitch": 62, "duration": 8, "velocity": 86}, {"time": 1632, "pitch": 43, "duration": 19, "velocity": 84}, {"time": 1632, "pitch": 55, "duration": 13, "velocity": 80}, {"time": 1632, "pitch": 59, "duration": 8, "velocity": 83}, {"time": 1638, "pitch": 50, "duration": 12, "velocity": 76}, {"time": 1644, "pitch": 59, "duration": 7, "velocity": 91}, {"time": 1644, "pitch": 62, "duration": 7, "velocity": 89}, {"time": 1650, "pitch": 55, "duration": 4, "velocity": 88}, {"time": 1656, "pitch": 48, "duration": 13, "velocity": 86}, {"time": 1656, "pitch": 60, "duration": 12, "velocity": 83}, {"time": 1662, "pitch": 55, "duration": 7, "velocity": 82}, {"time": 1668, "pitch": 64, "duration": 7, "velocity": 90}, {"time": 1680, "pitch": 48, "duration": 6, "velocity": 89}, {"time": 1680, "pitch": 60, "duration": 5, "velocity": 84}, {"time": 1680, "pitch": 64, "duration": 10, "velocity": 86}, {"time": 1692, "pitch": 47, "duration": 5, "velocity": 88}, {"time": 1692, "pitch": 59, "duration": 5, "velocity": 82}, {"time": 1692, "pitch": 62, "duration": 7, "velocity": 85}, {"time": 1704, "pitch": 45, "duration": 18, "velocity": 87}, {"time": 1704, "pitch": 57, "duration": 12, "velocity": 77}, {"time": 1704, "pitch": 60, "duration": 8, "velocity": 82}, {"time": 1710, "pitch": 52, "duration": 12, "velocity": 80}, {"time": 1716, "pitch": 64, "duration": 12, "velocity": 90}, {"time": 1722, "pitch": 57, "duration": 4, "velocity": 83}, {"time": 1728, "pitch": 43, "duration": 17, "velocity": 86}, {"time": 1734, "pitch": 50, "duration": 9, "velocity": 81}, {"time": 1740, "pitch": 55, "duration": 3, "velocity": 89}, {"time": 1740, "pitch": 59, "duration": 7, "velocity": 89}, {"time": 1746, "pitch": 55, "duration": 3, "velocity": 89}, {"time": 1752, "pitch": 38, "duration": 15, "velocity": 82}, {"time": 1752, "pitch": 62, "duration": 7, "velocity": 83}, {"time": 1758, "pitch": 57, "duration": 6, "velocity": 88}, {"time": 1764, "pitch": 65, "duration": 8, "velocity": 94}, {"time": 1770, "pitch": 57, "duration": 7, "velocity": 89}, {"time": 1776, "pitch": 43, "duration": 20, "velocity": 88}, {"time": 1782, "pitch": 55, "duration": 6, "velocity": 88}, {"time": 1788, "pitch": 59, "duration": 5, "velocity": 89}, {"time": 1788, "pitch": 62, "duration": 6, "velocity": 90}, {"time": 1800, "pitch": 48, "duration": 15, "velocity": 89}, {"time": 1806, "pitch": 55, "duration": 7, "velocity": 89}, {"time": 1812, "pitch": 60, "duration": 5, "velocity": 88}, {"time": 1812, "pitch": 64, "duration": 5, "velocity": 90}, {"time": 1824, "pitch": 47, "duration": 7, "velocity": 88}, {"time": 1824, "pitch": 59, "duration": 5, "velocity": 83}, {"time": 1824, "pitch": 62, "duration": 6, "velocity": 83}, {"time": 1836, "pitch": 50, "duration": 10, "velocity": 84}, {"time": 1836, "pitch": 57, "duration": 15, "velocity": 84}, {"time": 1836, "pitch": 62, "duration": 14, "velocity": 88}, {"time": 1848, "pitch": 45, "duration": 19, "velocity": 89}, {"time": 1854, "pitch": 52, "duration": 12, "velocity": 83}, {"time": 1860, "pitch": 55, "duration": 3, "velocity": 89}, {"time": 1860, "pitch": 60, "duration": 12, "velocity": 88}, {"time": 1866, "pitch": 55, "duration": 6, "velocity": 83}, {"time": 1872, "pitch": 50, "duration": 16, "velocity": 91}, {"time": 1878, "pitch": 57, "duration": 8, "velocity": 89}, {"time": 1884, "pitch": 62, "duration": 5, "velocity": 89}, {"time": 1890, "pitch": 60, "duration": 2, "velocity": 92}, {"time": 1896, "pitch": 43, "duration": 9, "velocity": 91}, {"time": 1896, "pitch": 55, "duration": 6, "velocity": 89}, {"time": 1896, "pitch": 59, "duration": 6, "velocity": 91}, {"time": 1902, "pitch": 57, "duration": 4, "velocity": 89}, {"time": 1905, "pitch": 59, "duration": 2, "velocity": 93}, {"time": 1908, "pitch": 45, "duration": 10, "velocity": 90}, {"time": 1908, "pitch": 57, "duration": 7, "velocity": 83}, {"time": 1908, "pitch": 60, "duration": 6, "velocity": 97}, {"time": 1914, "pitch": 59, "duration": 4, "velocity": 90}, {"time": 1917, "pitch": 60, "duration": 2, "velocity": 91}, {"time": 1920, "pitch": 47, "duration": 5, "velocity": 92}, {"time": 1920, "pitch": 59, "duration": 4, "velocity": 84}, {"time": 1920, "pitch": 62, "duration": 5, "velocity": 90}, {"time": 1926, "pitch": 67, "duration": 4, "velocity": 93}, {"time": 1926, "pitch": 79, "duration": 3, "velocity": 93}, {"time": 1932, "pitch": 43, "duration": 12, "velocity": 91}, {"time": 1932, "pitch": 66, "duration": 4, "velocity": 89}, {"time": 1932, "pitch": 78, "duration": 4, "velocity": 90}, {"time": 1938, "pitch": 67, "duration": 2, "velocity": 91}, {"time": 1938, "pitch": 79, "duration": 2, "velocity": 91}, {"time": 1944, "pitch": 43, "duration": 1, "velocity": 90}, {"time": 1944, "pitch": 62, "duration": 2, "velocity": 84}, {"time": 1944, "pitch": 65, "duration": 2, "velocity": 90}, {"time": 1944, "pitch": 67, "duration": 2, "velocity": 88}, {"time": 1944, "pitch": 71, "duration": 3, "velocity": 89}, {"time": 1947, "pitch": 62, "duration": 1, "velocity": 75}, {"time": 1950, "pitch": 65, "duration": 1, "velocity": 88}, {"time": 1950, "pitch": 67, "duration": 1, "velocity": 84}, {"time": 1950, "pitch": 71, "duration": 2, "velocity": 88}, {"time": 1956, "pitch": 43, "duration": 2, "velocity": 91}, {"time": 1956, "pitch": 62, "duration": 1, "velocity": 88}, {"time": 1956, "pitch": 65, "duration": 1, "velocity": 95}, {"time": 1956, "pitch": 67, "duration": 1, "velocity": 90}, {"time": 1956, "pitch": 71, "duration": 2, "velocity": 91}, {"time": 1962, "pitch": 62, "duration": 1, "velocity": 92}, {"time": 1962, "pitch": 65, "duration": 1, "velocity": 97}, {"time": 1962, "pitch": 67, "duration": 1, "velocity": 89}, {"time": 1962, "pitch": 71, "duration": 2, "velocity": 91}, {"time": 1968, "pitch": 43, "duration": 9, "velocity": 89}, {"time": 1968, "pitch": 62, "duration": 1, "velocity": 89}, {"time": 1968, "pitch": 65, "duration": 1, "velocity": 91}, {"time": 1968, "pitch": 67, "duration": 1, "velocity": 88}, {"time": 1968, "pitch": 71, "duration": 2, "velocity": 90}, {"time": 1974, "pitch": 62, "duration": 1, "velocity": 89}, {"time": 1974, "pitch": 65, "duration": 1, "velocity": 91}, {"time": 1974, "pitch": 67, "duration": 1, "velocity": 88}, {"time": 1974, "pitch": 71, "duration": 2, "velocity": 90}, {"time": 1980, "pitch": 43, "duration": 6, "velocity": 91}, {"time": 1980, "pitch": 62, "duration": 3, "velocity": 88}, {"time": 1980, "pitch": 65, "duration": 3, "velocity": 91}, {"time": 1980, "pitch": 67, "duration": 3, "velocity": 88}, {"time": 1980, "pitch": 71, "duration": 3, "velocity": 90}, {"time": 1986, "pitch": 62, "duration": 2, "velocity": 88}, {"time": 1986, "pitch": 65, "duration": 1, "velocity": 90}, {"time": 1986, "pitch": 67, "duration": 1, "velocity": 85}, {"time": 1986, "pitch": 71, "duration": 2, "velocity": 90}, {"time": 1992, "pitch": 48, "duration": 20, "velocity": 92}, {"time": 1992, "pitch": 60, "duration": 2, "velocity": 70}, {"time": 1992, "pitch": 64, "duration": 2, "velocity": 77}, {"time": 1992, "pitch": 67, "duration": 1, "velocity": 73}, {"time": 1998, "pitch": 60, "duration": 2, "velocity": 87}, {"time": 1998, "pitch": 64, "duration": 2, "velocity": 91}, {"time": 1998, "pitch": 67, "duration": 2, "velocity": 88}, {"time": 2004, "pitch": 60, "duration": 4, "velocity": 97}, {"time": 2004, "pitch": 64, "duration": 4, "velocity": 104}, {"time": 2004, "pitch": 67, "duration": 4, "velocity": 97}, {"time": 2010, "pitch": 60, "duration": 2, "velocity": 83}, {"time": 2010, "pitch": 64, "duration": 2, "velocity": 88}, {"time": 2010, "pitch": 67, "duration": 2, "velocity": 84}, {"time": 2016, "pitch": 48, "duration": 9, "velocity": 95}, {"time": 2016, "pitch": 60, "duration": 2, "velocity": 82}, {"time": 2016, "pitch": 64, "duration": 1, "velocity": 82}, {"time": 2016, "pitch": 67, "duration": 1, "velocity": 78}, {"time": 2022, "pitch": 60, "duration": 1, "velocity": 78}, {"time": 2022, "pitch": 64, "duration": 1, "velocity": 74}, {"time": 2022, "pitch": 65, "duration": 1, "velocity": 64}, {"time": 2022, "pitch": 67, "duration": 1, "velocity": 82}, {"time": 2028, "pitch": 48, "duration": 8, "velocity": 92}, {"time": 2028, "pitch": 55, "duration": 8, "velocity": 85}, {"time": 2028, "pitch": 60, "duration": 4, "velocity": 87}, {"time": 2028, "pitch": 64, "duration": 4, "velocity": 89}, {"time": 2028, "pitch": 67, "duration": 4, "velocity": 81}, {"time": 2028, "pitch": 71, "duration": 2, "velocity": 79}, {"time": 2028, "pitch": 72, "duration": 4, "velocity": 78}, {"time": 2034, "pitch": 60, "duration": 2, "velocity": 89}, {"time": 2034, "pitch": 64, "duration": 2, "velocity": 95}, {"time": 2034, "pitch": 67, "duration": 2, "velocity": 90}, {"time": 2034, "pitch": 72, "duration": 2, "velocity": 89}, {"time": 2040, "pitch": 39, "duration": 2, "velocity": 90}, {"time": 2040, "pitch": 63, "duration": 4, "velocity": 86}, {"time": 2040, "pitch": 67, "duration": 4, "velocity": 88}, {"time": 2040, "pitch": 70, "duration": 4, "velocity": 85}, {"time": 2046, "pitch": 51, "duration": 4, "velocity": 76}, {"time": 2046, "pitch": 58, "duration": 4, "velocity": 81}, {"time": 2046, "pitch": 63, "duration": 3, "velocity": 82}, {"time": 2046, "pitch": 67, "duration": 3, "velocity": 84}, {"time": 2052, "pitch": 51, "duration": 1, "velocity": 102}, {"time": 2052, "pitch": 58, "duration": 1, "velocity": 94}, {"time": 2052, "pitch": 63, "duration": 1, "velocity": 89}, {"time": 2052, "pitch": 67, "duration": 1, "velocity": 88}, {"time": 2052, "pitch": 70, "duration": 1, "velocity": 88}, {"time": 2058, "pitch": 51, "duration": 2, "velocity": 90}, {"time": 2058, "pitch": 58, "duration": 2, "velocity": 84}, {"time": 2058, "pitch": 63, "duration": 1, "velocity": 82}, {"time": 2058, "pitch": 67, "duration": 1, "velocity": 86}, {"time": 2058, "pitch": 70, "duration": 2, "velocity": 84}, {"time": 2064, "pitch": 51, "duration": 8, "velocity": 97}, {"time": 2064, "pitch": 58, "duration": 8, "velocity": 90}, {"time": 2064, "pitch": 63, "duration": 4, "velocity": 86}, {"time": 2064, "pitch": 67, "duration": 4, "velocity": 88}, {"time": 2064, "pitch": 70, "duration": 4, "velocity": 83}, {"time": 2070, "pitch": 63, "duration": 2, "velocity": 90}, {"time": 2070, "pitch": 67, "duration": 2, "velocity": 90}, {"time": 2070, "pitch": 70, "duration": 2, "velocity": 90}, {"time": 2076, "pitch": 51, "duration": 1, "velocity": 99}, {"time": 2076, "pitch": 58, "duration": 1, "velocity": 91}, {"time": 2076, "pitch": 63, "duration": 1, "velocity": 93}, {"time": 2076, "pitch": 67, "duration": 1, "velocity": 92}, {"time": 2076, "pitch": 70, "duration": 2, "velocity": 90}, {"time": 2082, "pitch": 63, "duration": 1, "velocity": 89}, {"time": 2082, "pitch": 67, "duration": 1, "velocity": 87}, {"time": 2082, "pitch": 70, "duration": 1, "velocity": 88}, {"time": 2088, "pitch": 38, "duration": 3, "velocity": 93}, {"time": 2088, "pitch": 62, "duration": 4, "velocity": 88}, {"time": 2088, "pitch": 66, "duration": 4, "velocity": 89}, {"time": 2088, "pitch": 69, "duration": 4, "velocity": 88}, {"time": 2094, "pitch": 50, "duration": 4, "velocity": 92}, {"time": 2094, "pitch": 62, "duration": 3, "velocity": 89}, {"time": 2094, "pitch": 66, "duration": 3, "velocity": 91}, {"time": 2094, "pitch": 69, "duration": 4, "velocity": 89}, {"time": 2100, "pitch": 50, "duration": 11, "velocity": 95}, {"time": 2100, "pitch": 62, "duration": 2, "velocity": 93}, {"time": 2100, "pitch": 66, "duration": 3, "velocity": 104}, {"time": 2100, "pitch": 69, "duration": 3, "velocity": 97}, {"time": 2100, "pitch": 74, "duration": 3, "velocity": 93}, {"time": 2103, "pitch": 57, "duration": 8, "velocity": 89}, {"time": 2106, "pitch": 62, "duration": 2, "velocity": 95}, {"time": 2109, "pitch": 66, "duration": 1, "velocity": 94}, {"time": 2109, "pitch": 69, "duration": 1, "velocity": 87}, {"time": 2112, "pitch": 50, "duration": 23, "velocity": 90}, {"time": 2112, "pitch": 62, "duration": 4, "velocity": 97}, {"time": 2112, "pitch": 66, "duration": 7, "velocity": 102}, {"time": 2112, "pitch": 69, "duration": 7, "velocity": 95}, {"time": 2115, "pitch": 57, "duration": 7, "velocity": 90}, {"time": 2118, "pitch": 62, "duration": 2, "velocity": 95}, {"time": 2121, "pitch": 62, "duration": 1, "velocity": 85}, {"time": 2121, "pitch": 66, "duration": 1, "velocity": 105}, {"time": 2121, "pitch": 69, "duration": 2, "velocity": 97}, {"time": 2121, "pitch": 74, "duration": 2, "velocity": 95}, {"time": 2124, "pitch": 62, "duration": 3, "velocity": 102}, {"time": 2124, "pitch": 66, "duration": 3, "velocity": 102}, {"time": 2124, "pitch": 69, "duration": 3, "velocity": 99}, {"time": 2124, "pitch": 74, "duration": 2, "velocity": 102}, {"time": 2127, "pitch": 57, "duration": 9, "velocity": 89}, {"time": 2130, "pitch": 62, "duration": 5, "velocity": 88}, {"time": 2130, "pitch": 69, "duration": 1, "velocity": 52}, {"time": 2133, "pitch": 66, "duration": 2, "velocity": 91}, {"time": 2136, "pitch": 36, "duration": 2, "velocity": 88}, {"time": 2136, "pitch": 64, "duration": 3, "velocity": 95}, {"time": 2136, "pitch": 67, "duration": 4, "velocity": 89}, {"time": 2139, "pitch": 60, "duration": 2, "velocity": 84}, {"time": 2142, "pitch": 48, "duration": 16, "velocity": 89}, {"time": 2142, "pitch": 64, "duration": 3, "velocity": 94}, {"time": 2142, "pitch": 67, "duration": 3, "velocity": 86}, {"time": 2145, "pitch": 60, "duration": 2, "velocity": 82}, {"time": 2148, "pitch": 55, "duration": 10, "velocity": 88}, {"time": 2148, "pitch": 60, "duration": 4, "velocity": 97}, {"time": 2148, "pitch": 64, "duration": 4, "velocity": 104}, {"time": 2148, "pitch": 67, "duration": 4, "velocity": 93}, {"time": 2154, "pitch": 60, "duration": 1, "velocity": 92}, {"time": 2154, "pitch": 64, "duration": 4, "velocity": 97}, {"time": 2154, "pitch": 67, "duration": 4, "velocity": 89}, {"time": 2157, "pitch": 60, "duration": 2, "velocity": 88}, {"time": 2160, "pitch": 50, "duration": 14, "velocity": 94}, {"time": 2160, "pitch": 62, "duration": 3, "velocity": 84}, {"time": 2160, "pitch": 66, "duration": 4, "velocity": 89}, {"time": 2163, "pitch": 57, "duration": 9, "velocity": 71}, {"time": 2166, "pitch": 62, "duration": 3, "velocity": 88}, {"time": 2172, "pitch": 62, "duration": 3, "velocity": 95}, {"time": 2172, "pitch": 66, "duration": 4, "velocity": 99}, {"time": 2175, "pitch": 57, "duration": 2, "velocity": 92}, {"time": 2178, "pitch": 62, "duration": 2, "velocity": 93}, {"time": 2184, "pitch": 47, "duration": 13, "velocity": 92}, {"time": 2184, "pitch": 59, "duration": 6, "velocity": 89}, {"time": 2184, "pitch": 62, "duration": 6, "velocity": 88}, {"time": 2184, "pitch": 66, "duration": 6, "velocity": 83}, {"time": 2190, "pitch": 54, "duration": 6, "velocity": 86}, {"time": 2193, "pitch": 59, "duration": 2, "velocity": 102}, {"time": 2196, "pitch": 59, "duration": 2, "velocity": 84}, {"time": 2196, "pitch": 62, "duration": 1, "velocity": 94}, {"time": 2202, "pitch": 52, "duration": 20, "velocity": 99}, {"time": 2202, "pitch": 59, "duration": 4, "velocity": 92}, {"time": 2202, "pitch": 64, "duration": 7, "velocity": 97}, {"time": 2211, "pitch": 64, "duration": 4, "velocity": 91}, {"time": 2211, "pitch": 67, "duration": 4, "velocity": 93}, {"time": 2217, "pitch": 59, "duration": 2, "velocity": 74}, {"time": 2220, "pitch": 59, "duration": 4, "velocity": 94}, {"time": 2220, "pitch": 64, "duration": 4, "velocity": 105}, {"time": 2223, "pitch": 52, "duration": 2, "velocity": 94}, {"time": 2226, "pitch": 59, "duration": 2, "velocity": 97}, {"time": 2232, "pitch": 45, "duration": 14, "velocity": 89}, {"time": 2232, "pitch": 57, "duration": 6, "velocity": 89}, {"time": 2232, "pitch": 60, "duration": 8, "velocity": 95}, {"time": 2238, "pitch": 52, "duration": 8, "velocity": 84}, {"time": 2244, "pitch": 57, "duration": 6, "velocity": 91}, {"time": 2244, "pitch": 60, "duration": 8, "velocity": 104}, {"time": 2244, "pitch": 64, "duration": 9, "velocity": 102}, {"time": 2250, "pitch": 57, "duration": 1, "velocity": 76}, {"time": 2256, "pitch": 47, "duration": 13, "velocity": 89}, {"time": 2256, "pitch": 59, "duration": 4, "velocity": 89}, {"time": 2256, "pitch": 62, "duration": 7, "velocity": 93}, {"time": 2262, "pitch": 59, "duration": 1, "velocity": 91}, {"time": 2265, "pitch": 59, "duration": 3, "velocity": 99}, {"time": 2265, "pitch": 62, "duration": 4, "velocity": 97}, {"time": 2265, "pitch": 66, "duration": 4, "velocity": 90}, {"time": 2268, "pitch": 54, "duration": 4, "velocity": 88}, {"time": 2271, "pitch": 59, "duration": 2, "velocity": 99}, {"time": 2271, "pitch": 62, "duration": 2, "velocity": 95}, {"time": 2271, "pitch": 66, "duration": 2, "velocity": 90}, {"time": 2274, "pitch": 47, "duration": 2, "velocity": 88}, {"time": 2280, "pitch": 39, "duration": 1, "velocity": 95}, {"time": 2280, "pitch": 63, "duration": 4, "velocity": 95}, {"time": 2280, "pitch": 67, "duration": 4, "velocity": 90}, {"time": 2286, "pitch": 51, "duration": 4, "velocity": 92}, {"time": 2289, "pitch": 58, "duration": 3, "velocity": 95}, {"time": 2292, "pitch": 63, "duration": 4, "velocity": 99}, {"time": 2295, "pitch": 67, "duration": 3, "velocity": 89}, {"time": 2298, "pitch": 70, "duration": 2, "velocity": 104}, {"time": 2304, "pitch": 38, "duration": 6, "velocity": 99}, {"time": 2307, "pitch": 45, "duration": 3, "velocity": 89}, {"time": 2310, "pitch": 62, "duration": 1, "velocity": 95}, {"time": 2313, "pitch": 62, "duration": 2, "velocity": 92}, {"time": 2313, "pitch": 66, "duration": 2, "velocity": 114}, {"time": 2316, "pitch": 50, "duration": 12, "velocity": 94}, {"time": 2319, "pitch": 62, "duration": 3, "velocity": 91}, {"time": 2319, "pitch": 66, "duration": 1, "velocity": 88}, {"time": 2319, "pitch": 74, "duration": 3, "velocity": 89}, {"time": 2322, "pitch": 57, "duration": 6, "velocity": 89}, {"time": 2328, "pitch": 36, "duration": 12, "velocity": 88}, {"time": 2328, "pitch": 60, "duration": 4, "velocity": 91}, {"time": 2328, "pitch": 67, "duration": 6, "velocity": 87}, {"time": 2340, "pitch": 60, "duration": 2, "velocity": 91}, {"time": 2340, "pitch": 64, "duration": 5, "velocity": 102}, {"time": 2340, "pitch": 67, "duration": 9, "velocity": 93}, {"time": 2346, "pitch": 60, "duration": 4, "velocity": 87}, {"time": 2349, "pitch": 64, "duration": 2, "velocity": 84}, {"time": 2352, "pitch": 50, "duration": 10, "velocity": 95}, {"time": 2352, "pitch": 62, "duration": 4, "velocity": 88}, {"time": 2352, "pitch": 66, "duration": 4, "velocity": 91}, {"time": 2355, "pitch": 57, "duration": 7, "velocity": 83}, {"time": 2358, "pitch": 62, "duration": 3, "velocity": 91}, {"time": 2364, "pitch": 50, "duration": 3, "velocity": 94}, {"time": 2364, "pitch": 57, "duration": 3, "velocity": 90}, {"time": 2364, "pitch": 62, "duration": 3, "velocity": 93}, {"time": 2364, "pitch": 66, "duration": 3, "velocity": 93}, {"time": 2370, "pitch": 47, "duration": 2, "velocity": 72}, {"time": 2376, "pitch": 47, "duration": 19, "velocity": 91}, {"time": 2376, "pitch": 59, "duration": 6, "velocity": 91}, {"time": 2376, "pitch": 62, "duration": 7, "velocity": 91}, {"time": 2376, "pitch": 66, "duration": 9, "velocity": 89}, {"time": 2382, "pitch": 54, "duration": 7, "velocity": 76}, {"time": 2385, "pitch": 59, "duration": 2, "velocity": 89}, {"time": 2388, "pitch": 59, "duration": 6, "velocity": 93}, {"time": 2388, "pitch": 62, "duration": 7, "velocity": 94}, {"time": 2388, "pitch": 66, "duration": 8, "velocity": 90}, {"time": 2394, "pitch": 54, "duration": 1, "velocity": 90}, {"time": 2397, "pitch": 59, "duration": 2, "velocity": 92}, {"time": 2400, "pitch": 40, "duration": 11, "velocity": 90}, {"time": 2400, "pitch": 59, "duration": 1, "velocity": 84}, {"time": 2400, "pitch": 67, "duration": 6, "velocity": 88}, {"time": 2403, "pitch": 59, "duration": 3, "velocity": 90}, {"time": 2406, "pitch": 64, "duration": 3, "velocity": 92}, {"time": 2409, "pitch": 59, "duration": 1, "velocity": 88}, {"time": 2412, "pitch": 40, "duration": 6, "velocity": 90}, {"time": 2412, "pitch": 47, "duration": 5, "velocity": 89}, {"time": 2412, "pitch": 59, "duration": 3, "velocity": 92}, {"time": 2412, "pitch": 64, "duration": 6, "velocity": 104}, {"time": 2412, "pitch": 67, "duration": 7, "velocity": 92}, {"time": 2418, "pitch": 59, "duration": 1, "velocity": 95}, {"time": 2424, "pitch": 45, "duration": 16, "velocity": 88}, {"time": 2424, "pitch": 57, "duration": 7, "velocity": 85}, {"time": 2424, "pitch": 60, "duration": 6, "velocity": 87}, {"time": 2430, "pitch": 52, "duration": 7, "velocity": 85}, {"time": 2436, "pitch": 57, "duration": 4, "velocity": 93}, {"time": 2436, "pitch": 60, "duration": 4, "velocity": 104}, {"time": 2436, "pitch": 64, "duration": 4, "velocity": 97}, {"time": 2439, "pitch": 52, "duration": 2, "velocity": 89}, {"time": 2442, "pitch": 45, "duration": 3, "velocity": 90}, {"time": 2442, "pitch": 57, "duration": 1, "velocity": 86}, {"time": 2448, "pitch": 47, "duration": 14, "velocity": 92}, {"time": 2448, "pitch": 59, "duration": 6, "velocity": 93}, {"time": 2448, "pitch": 63, "duration": 7, "velocity": 86}, {"time": 2454, "pitch": 51, "duration": 2, "velocity": 66}, {"time": 2457, "pitch": 59, "duration": 2, "velocity": 95}, {"time": 2460, "pitch": 59, "duration": 3, "velocity": 104}, {"time": 2460, "pitch": 63, "duration": 4, "velocity": 99}, {"time": 2460, "pitch": 66, "duration": 4, "velocity": 92}, {"time": 2460, "pitch": 71, "duration": 5, "velocity": 93}, {"time": 2463, "pitch": 54, "duration": 2, "velocity": 88}, {"time": 2466, "pitch": 59, "duration": 4, "velocity": 95}, {"time": 2472, "pitch": 40, "duration": 8, "velocity": 93}, {"time": 2472, "pitch": 64, "duration": 3, "velocity": 93}, {"time": 2472, "pitch": 67, "duration": 6, "velocity": 92}, {"time": 2472, "pitch": 71, "duration": 10, "velocity": 91}, {"time": 2478, "pitch": 64, "duration": 2, "velocity": 92}, {"time": 2484, "pitch": 39, "duration": 5, "velocity": 92}, {"time": 2484, "pitch": 63, "duration": 3, "velocity": 91}, {"time": 2484, "pitch": 67, "duration": 6, "velocity": 90}, {"time": 2484, "pitch": 71, "duration": 10, "velocity": 93}, {"time": 2490, "pitch": 63, "duration": 1, "velocity": 78}, {"time": 2496, "pitch": 38, "duration": 5, "velocity": 92}, {"time": 2496, "pitch": 62, "duration": 2, "velocity": 90}, {"time": 2496, "pitch": 67, "duration": 5, "velocity": 92}, {"time": 2502, "pitch": 62, "duration": 4, "velocity": 90}, {"time": 2508, "pitch": 38, "duration": 7, "velocity": 88}, {"time": 2508, "pitch": 62, "duration": 3, "velocity": 92}, {"time": 2508, "pitch": 66, "duration": 6, "velocity": 97}, {"time": 2508, "pitch": 71, "duration": 6, "velocity": 97}, {"time": 2514, "pitch": 62, "duration": 3, "velocity": 93}, {"time": 2520, "pitch": 36, "duration": 16, "velocity": 88}, {"time": 2520, "pitch": 60, "duration": 4, "velocity": 90}, {"time": 2520, "pitch": 67, "duration": 6, "velocity": 86}, {"time": 2526, "pitch": 43, "duration": 7, "velocity": 80}, {"time": 2532, "pitch": 60, "duration": 2, "velocity": 104}, {"time": 2532, "pitch": 67, "duration": 4, "velocity": 95}, {"time": 2535, "pitch": 43, "duration": 2, "velocity": 89}, {"time": 2538, "pitch": 60, "duration": 4, "velocity": 92}, {"time": 2541, "pitch": 64, "duration": 2, "velocity": 89}, {"time": 2544, "pitch": 50, "duration": 14, "velocity": 90}, {"time": 2544, "pitch": 66, "duration": 7, "velocity": 92}, {"time": 2550, "pitch": 57, "duration": 7, "velocity": 89}, {"time": 2553, "pitch": 62, "duration": 1, "velocity": 85}, {"time": 2556, "pitch": 62, "duration": 3, "velocity": 94}, {"time": 2556, "pitch": 66, "duration": 4, "velocity": 97}, {"time": 2559, "pitch": 57, "duration": 2, "velocity": 82}, {"time": 2562, "pitch": 50, "duration": 2, "velocity": 93}, {"time": 2568, "pitch": 47, "duration": 13, "velocity": 91}, {"time": 2568, "pitch": 59, "duration": 7, "velocity": 90}, {"time": 2568, "pitch": 62, "duration": 9, "velocity": 93}, {"time": 2568, "pitch": 66, "duration": 10, "velocity": 89}, {"time": 2574, "pitch": 54, "duration": 6, "velocity": 73}, {"time": 2577, "pitch": 59, "duration": 4, "velocity": 90}, {"time": 2580, "pitch": 62, "duration": 2, "velocity": 92}, {"time": 2586, "pitch": 40, "duration": 3, "velocity": 92}, {"time": 2586, "pitch": 59, "duration": 5, "velocity": 89}, {"time": 2586, "pitch": 64, "duration": 6, "velocity": 89}, {"time": 2598, "pitch": 52, "duration": 31, "velocity": 84}, {"time": 2601, "pitch": 59, "duration": 27, "velocity": 76}, {"time": 2604, "pitch": 64, "duration": 4, "velocity": 93}, {"time": 2607, "pitch": 67, "duration": 3, "velocity": 83}, {"time": 2610, "pitch": 71, "duration": 4, "velocity": 88}, {"time": 2613, "pitch": 76, "duration": 1, "velocity": 73}, {"time": 2616, "pitch": 64, "duration": 22, "velocity": 89}, {"time": 2616, "pitch": 71, "duration": 21, "velocity": 86}, {"time": 2616, "pitch": 76, "duration": 22, "velocity": 89}, {"time": 2664, "pitch": 45, "duration": 13, "velocity": 90}, {"time": 2664, "pitch": 57, "duration": 8, "velocity": 88}, {"time": 2664, "pitch": 60, "duration": 7, "velocity": 92}, {"time": 2670, "pitch": 52, "duration": 8, "velocity": 88}, {"time": 2676, "pitch": 57, "duration": 6, "velocity": 89}, {"time": 2676, "pitch": 60, "duration": 6, "velocity": 95}, {"time": 2676, "pitch": 64, "duration": 6, "velocity": 94}, {"time": 2682, "pitch": 45, "duration": 4, "velocity": 90}, {"time": 2688, "pitch": 50, "duration": 16, "velocity": 92}, {"time": 2688, "pitch": 57, "duration": 3, "velocity": 83}, {"time": 2688, "pitch": 62, "duration": 9, "velocity": 88}, {"time": 2688, "pitch": 66, "duration": 9, "velocity": 87}, {"time": 2694, "pitch": 57, "duration": 4, "velocity": 80}, {"time": 2700, "pitch": 57, "duration": 5, "velocity": 90}, {"time": 2700, "pitch": 62, "duration": 5, "velocity": 93}, {"time": 2700, "pitch": 66, "duration": 6, "velocity": 92}, {"time": 2712, "pitch": 48, "duration": 9, "velocity": 89}, {"time": 2712, "pitch": 60, "duration": 6, "velocity": 88}, {"time": 2712, "pitch": 64, "duration": 7, "velocity": 89}, {"time": 2718, "pitch": 55, "duration": 4, "velocity": 82}, {"time": 2721, "pitch": 60, "duration": 1, "velocity": 90}, {"time": 2724, "pitch": 47, "duration": 10, "velocity": 92}, {"time": 2724, "pitch": 59, "duration": 5, "velocity": 93}, {"time": 2724, "pitch": 62, "duration": 8, "velocity": 89}, {"time": 2736, "pitch": 45, "duration": 4, "velocity": 90}, {"time": 2736, "pitch": 57, "duration": 4, "velocity": 89}, {"time": 2736, "pitch": 60, "duration": 4, "velocity": 91}, {"time": 2748, "pitch": 38, "duration": 12, "velocity": 91}, {"time": 2748, "pitch": 50, "duration": 11, "velocity": 82}, {"time": 2748, "pitch": 54, "duration": 11, "velocity": 81}, {"time": 2748, "pitch": 57, "duration": 11, "velocity": 74}, {"time": 2748, "pitch": 62, "duration": 12, "velocity": 83}, {"time": 2760, "pitch": 43, "duration": 20, "velocity": 87}, {"time": 2766, "pitch": 50, "duration": 15, "velocity": 81}, {"time": 2772, "pitch": 55, "duration": 3, "velocity": 83}, {"time": 2772, "pitch": 62, "duration": 12, "velocity": 84}, {"time": 2778, "pitch": 55, "duration": 4, "velocity": 88}, {"time": 2784, "pitch": 45, "duration": 12, "velocity": 88}, {"time": 2784, "pitch": 57, "duration": 13, "velocity": 79}, {"time": 2784, "pitch": 60, "duration": 8, "velocity": 80}, {"time": 2790, "pitch": 52, "duration": 6, "velocity": 76}, {"time": 2796, "pitch": 60, "duration": 5, "velocity": 90}, {"time": 2796, "pitch": 64, "duration": 5, "velocity": 90}, {"time": 2808, "pitch": 42, "duration": 14, "velocity": 78}, {"time": 2808, "pitch": 57, "duration": 3, "velocity": 78}, {"time": 2808, "pitch": 62, "duration": 9, "velocity": 83}, {"time": 2814, "pitch": 57, "duration": 4, "velocity": 83}, {"time": 2820, "pitch": 57, "duration": 4, "velocity": 83}, {"time": 2820, "pitch": 62, "duration": 8, "velocity": 86}, {"time": 2832, "pitch": 43, "duration": 19, "velocity": 84}, {"time": 2832, "pitch": 55, "duration": 13, "velocity": 80}, {"time": 2832, "pitch": 59, "duration": 8, "velocity": 83}, {"time": 2838, "pitch": 50, "duration": 12, "velocity": 76}, {"time": 2844, "pitch": 59, "duration": 7, "velocity": 91}, {"time": 2844, "pitch": 62, "duration": 7, "velocity": 89}, {"time": 2850, "pitch": 55, "duration": 4, "velocity": 88}, {"time": 2856, "pitch": 48, "duration": 13, "velocity": 86}, {"time": 2856, "pitch": 60, "duration": 12, "velocity": 83}, {"time": 2862, "pitch": 55, "duration": 7, "velocity": 82}, {"time": 2868, "pitch": 64, "duration": 7, "velocity": 90}, {"time": 2880, "pitch": 48, "duration": 6, "velocity": 89}, {"time": 2880, "pitch": 60, "duration": 5, "velocity": 84}, {"time": 2880, "pitch": 64, "duration": 10, "velocity": 86}, {"time": 2892, "pitch": 47, "duration": 5, "velocity": 88}, {"time": 2892, "pitch": 59, "duration": 5, "velocity": 82}, {"time": 2892, "pitch": 62, "duration": 7, "velocity": 85}, {"time": 2904, "pitch": 45, "duration": 18, "velocity": 87}, {"time": 2904, "pitch": 57, "duration": 12, "velocity": 77}, {"time": 2904, "pitch": 60, "duration": 8, "velocity": 82}, {"time": 2910, "pitch": 52, "duration": 12, "velocity": 80}, {"time": 2916, "pitch": 64, "duration": 12, "velocity": 90}, {"time": 2922, "pitch": 57, "duration": 4, "velocity": 83}, {"time": 2928, "pitch": 43, "duration": 17, "velocity": 86}, {"time": 2934, "pitch": 50, "duration": 9, "velocity": 81}, {"time": 2940, "pitch": 55, "duration": 3, "velocity": 89}, {"time": 2940, "pitch": 59, "duration": 7, "velocity": 89}, {"time": 2946, "pitch": 55, "duration": 3, "velocity": 89}, {"time": 2952, "pitch": 38, "duration": 15, "velocity": 82}, {"time": 2952, "pitch": 62, "duration": 7, "velocity": 83}, {"time": 2958, "pitch": 57, "duration": 6, "velocity": 88}, {"time": 2964, "pitch": 65, "duration": 8, "velocity": 94}, {"time": 2970, "pitch": 57, "duration": 7, "velocity": 89}, {"time": 2976, "pitch": 43, "duration": 20, "velocity": 88}, {"time": 2982, "pitch": 55, "duration": 6, "velocity": 88}, {"time": 2988, "pitch": 59, "duration": 5, "velocity": 89}, {"time": 2988, "pitch": 62, "duration": 6, "velocity": 90}, {"time": 3000, "pitch": 48, "duration": 15, "velocity": 89}, {"time": 3006, "pitch": 55, "duration": 7, "velocity": 89}, {"time": 3012, "pitch": 60, "duration": 5, "velocity": 88}, {"time": 3012, "pitch": 64, "duration": 5, "velocity": 90}, {"time": 3024, "pitch": 47, "duration": 7, "velocity": 88}, {"time": 3024, "pitch": 59, "duration": 5, "velocity": 83}, {"time": 3024, "pitch": 62, "duration": 6, "velocity": 83}, {"time": 3036, "pitch": 50, "duration": 10, "velocity": 84}, {"time": 3036, "pitch": 57, "duration": 15, "velocity": 84}, {"time": 3036, "pitch": 62, "duration": 14, "velocity": 88}, {"time": 3048, "pitch": 45, "duration": 19, "velocity": 89}, {"time": 3054, "pitch": 52, "duration": 12, "velocity": 83}, {"time": 3060, "pitch": 55, "duration": 3, "velocity": 89}, {"time": 3060, "pitch": 60, "duration": 12, "velocity": 88}, {"time": 3066, "pitch": 55, "duration": 6, "velocity": 83}, {"time": 3072, "pitch": 50, "duration": 16, "velocity": 91}, {"time": 3078, "pitch": 57, "duration": 8, "velocity": 89}, {"time": 3084, "pitch": 62, "duration": 5, "velocity": 89}, {"time": 3090, "pitch": 60, "duration": 2, "velocity": 92}, {"time": 3096, "pitch": 43, "duration": 9, "velocity": 91}, {"time": 3096, "pitch": 55, "duration": 6, "velocity": 89}, {"time": 3096, "pitch": 59, "duration": 6, "velocity": 91}, {"time": 3102, "pitch": 57, "duration": 4, "velocity": 89}, {"time": 3105, "pitch": 59, "duration": 2, "velocity": 93}, {"time": 3108, "pitch": 45, "duration": 10, "velocity": 90}, {"time": 3108, "pitch": 57, "duration": 7, "velocity": 83}, {"time": 3108, "pitch": 60, "duration": 6, "velocity": 97}, {"time": 3114, "pitch": 59, "duration": 4, "velocity": 90}, {"time": 3117, "pitch": 60, "duration": 2, "velocity": 91}, {"time": 3120, "pitch": 47, "duration": 5, "velocity": 92}, {"time": 3120, "pitch": 59, "duration": 4, "velocity": 84}, {"time": 3120, "pitch": 62, "duration": 5, "velocity": 90}, {"time": 3126, "pitch": 67, "duration": 4, "velocity": 93}, {"time": 3126, "pitch": 79, "duration": 3, "velocity": 93}, {"time": 3132, "pitch": 43, "duration": 12, "velocity": 91}, {"time": 3132, "pitch": 66, "duration": 4, "velocity": 89}, {"time": 3132, "pitch": 78, "duration": 4, "velocity": 90}, {"time": 3138, "pitch": 67, "duration": 2, "velocity": 91}, {"time": 3138, "pitch": 79, "duration": 2, "velocity": 91}, {"time": 3144, "pitch": 38, "duration": 19, "velocity": 93}, {"time": 3144, "pitch": 62, "duration": 7, "velocity": 88}, {"time": 3144, "pitch": 65, "duration": 9, "velocity": 90}, {"time": 3150, "pitch": 45, "duration": 8, "velocity": 79}, {"time": 3153, "pitch": 62, "duration": 2, "velocity": 89}, {"time": 3156, "pitch": 62, "duration": 3, "velocity": 94}, {"time": 3156, "pitch": 69, "duration": 5, "velocity": 88}, {"time": 3159, "pitch": 45, "duration": 4, "velocity": 86}, {"time": 3162, "pitch": 62, "duration": 4, "velocity": 91}, {"time": 3168, "pitch": 41, "duration": 15, "velocity": 90}, {"time": 3168, "pitch": 43, "duration": 17, "velocity": 90}, {"time": 3171, "pitch": 50, "duration": 10, "velocity": 76}, {"time": 3174, "pitch": 62, "duration": 4, "velocity": 90}, {"time": 3177, "pitch": 67, "duration": 2, "velocity": 88}, {"time": 3180, "pitch": 62, "duration": 4, "velocity": 93}, {"time": 3180, "pitch": 67, "duration": 5, "velocity": 97}, {"time": 3180, "pitch": 71, "duration": 10, "velocity": 97}, {"time": 3183, "pitch": 50, "duration": 2, "velocity": 89}, {"time": 3186, "pitch": 62, "duration": 5, "velocity": 91}, {"time": 3189, "pitch": 67, "duration": 3, "velocity": 88}, {"time": 3192, "pitch": 48, "duration": 14, "velocity": 90}, {"time": 3198, "pitch": 55, "duration": 8, "velocity": 88}, {"time": 3204, "pitch": 60, "duration": 4, "velocity": 93}, {"time": 3204, "pitch": 64, "duration": 3, "velocity": 102}, {"time": 3204, "pitch": 67, "duration": 5, "velocity": 89}, {"time": 3210, "pitch": 48, "duration": 2, "velocity": 90}, {"time": 3216, "pitch": 47, "duration": 7, "velocity": 92}, {"time": 3216, "pitch": 59, "duration": 4, "velocity": 89}, {"time": 3216, "pitch": 62, "duration": 5, "velocity": 88}, {"time": 3216, "pitch": 66, "duration": 7, "velocity": 84}, {"time": 3228, "pitch": 50, "duration": 7, "velocity": 94}, {"time": 3228, "pitch": 57, "duration": 4, "velocity": 88}, {"time": 3228, "pitch": 62, "duration": 5, "velocity": 91}, {"time": 3228, "pitch": 66, "duration": 6, "velocity": 89}, {"time": 3240, "pitch": 45, "duration": 17, "velocity": 90}, {"time": 3240, "pitch": 57, "duration": 6, "velocity": 83}, {"time": 3240, "pitch": 60, "duration": 9, "velocity": 83}, {"time": 3246, "pitch": 52, "duration": 9, "velocity": 83}, {"time": 3249, "pitch": 55, "duration": 5, "velocity": 93}, {"time": 3252, "pitch": 60, "duration": 3, "velocity": 99}, {"time": 3255, "pitch": 64, "duration": 7, "velocity": 102}, {"time": 3258, "pitch": 55, "duration": 4, "velocity": 88}, {"time": 3261, "pitch": 60, "duration": 3, "velocity": 88}, {"time": 3264, "pitch": 38, "duration": 2, "velocity": 88}, {"time": 3264, "pitch": 57, "duration": 4, "velocity": 83}, {"time": 3264, "pitch": 62, "duration": 5, "velocity": 87}, {"time": 3270, "pitch": 50, "duration": 7, "velocity": 89}, {"time": 3276, "pitch": 62, "duration": 3, "velocity": 94}, {"time": 3276, "pitch": 66, "duration": 4, "velocity": 95}, {"time": 3282, "pitch": 62, "duration": 2, "velocity": 73}, {"time": 3288, "pitch": 40, "duration": 10, "velocity": 94}, {"time": 3288, "pitch": 64, "duration": 3, "velocity": 95}, {"time": 3288, "pitch": 67, "duration": 4, "velocity": 93}, {"time": 3294, "pitch": 64, "duration": 2, "velocity": 93}, {"time": 3294, "pitch": 67, "duration": 4, "velocity": 91}, {"time": 3300, "pitch": 38, "duration": 11, "velocity": 94}, {"time": 3300, "pitch": 62, "duration": 4, "velocity": 92}, {"time": 3300, "pitch": 66, "duration": 4, "velocity": 97}, {"time": 3306, "pitch": 62, "duration": 4, "velocity": 94}, {"time": 3306, "pitch": 66, "duration": 4, "velocity": 94}, {"time": 3312, "pitch": 43, "duration": 11, "velocity": 88}, {"time": 3312, "pitch": 62, "duration": 4, "velocity": 85}, {"time": 3312, "pitch": 67, "duration": 4, "velocity": 89}, {"time": 3318, "pitch": 62, "duration": 4, "velocity": 91}, {"time": 3318, "pitch": 67, "duration": 5, "velocity": 93}, {"time": 3324, "pitch": 45, "duration": 5, "velocity": 102}, {"time": 3324, "pitch": 62, "duration": 4, "velocity": 89}, {"time": 3324, "pitch": 69, "duration": 4, "velocity": 93}, {"time": 3330, "pitch": 47, "duration": 5, "velocity": 102}, {"time": 3330, "pitch": 62, "duration": 4, "velocity": 89}, {"time": 3330, "pitch": 66, "duration": 5, "velocity": 92}, {"time": 3336, "pitch": 45, "duration": 14, "velocity": 92}, {"time": 3336, "pitch": 57, "duration": 9, "velocity": 89}, {"time": 3336, "pitch": 60, "duration": 7, "velocity": 89}, {"time": 3336, "pitch": 64, "duration": 7, "velocity": 90}, {"time": 3342, "pitch": 52, "duration": 7, "velocity": 87}, {"time": 3348, "pitch": 57, "duration": 5, "velocity": 92}, {"time": 3348, "pitch": 60, "duration": 5, "velocity": 104}, {"time": 3348, "pitch": 64, "duration": 5, "velocity": 99}, {"time": 3354, "pitch": 45, "duration": 2, "velocity": 92}, {"time": 3360, "pitch": 50, "duration": 14, "velocity": 91}, {"time": 3360, "pitch": 57, "duration": 3, "velocity": 88}, {"time": 3360, "pitch": 62, "duration": 3, "velocity": 89}, {"time": 3360, "pitch": 66, "duration": 4, "velocity": 82}, {"time": 3366, "pitch": 57, "duration": 7, "velocity": 75}, {"time": 3372, "pitch": 62, "duration": 4, "velocity": 94}, {"time": 3372, "pitch": 66, "duration": 4, "velocity": 99}, {"time": 3372, "pitch": 69, "duration": 4, "velocity": 97}, {"time": 3375, "pitch": 57, "duration": 1, "velocity": 89}, {"time": 3378, "pitch": 62, "duration": 5, "velocity": 92}, {"time": 3381, "pitch": 66, "duration": 2, "velocity": 92}, {"time": 3384, "pitch": 39, "duration": 14, "velocity": 97}, {"time": 3384, "pitch": 63, "duration": 5, "velocity": 93}, {"time": 3384, "pitch": 67, "duration": 7, "velocity": 90}, {"time": 3390, "pitch": 46, "duration": 7, "velocity": 74}, {"time": 3393, "pitch": 63, "duration": 1, "velocity": 90}, {"time": 3396, "pitch": 63, "duration": 4, "velocity": 99}, {"time": 3396, "pitch": 67, "duration": 4, "velocity": 93}, {"time": 3396, "pitch": 70, "duration": 5, "velocity": 94}, {"time": 3399, "pitch": 46, "duration": 2, "velocity": 89}, {"time": 3402, "pitch": 39, "duration": 1, "velocity": 95}, {"time": 3408, "pitch": 38, "duration": 2, "velocity": 93}, {"time": 3408, "pitch": 62, "duration": 9, "velocity": 90}, {"time": 3408, "pitch": 66, "duration": 10, "velocity": 95}, {"time": 3408, "pitch": 69, "duration": 15, "velocity": 92}, {"time": 3414, "pitch": 50, "duration": 14, "velocity": 90}, {"time": 3417, "pitch": 57, "duration": 11, "velocity": 90}, {"time": 3420, "pitch": 62, "duration": 7, "velocity": 95}, {"time": 3423, "pitch": 66, "duration": 8, "velocity": 99}, {"time": 3426, "pitch": 74, "duration": 7, "velocity": 95}, {"time": 3429, "pitch": 62, "duration": 4, "velocity": 95}, {"time": 3432, "pitch": 45, "duration": 9, "velocity": 93}, {"time": 3432, "pitch": 57, "duration": 6, "velocity": 89}, {"time": 3432, "pitch": 60, "duration": 6, "velocity": 95}, {"time": 3432, "pitch": 64, "duration": 5, "velocity": 92}, {"time": 3438, "pitch": 52, "duration": 2, "velocity": 95}, {"time": 3444, "pitch": 57, "duration": 7, "velocity": 95}, {"time": 3444, "pitch": 60, "duration": 6, "velocity": 104}, {"time": 3444, "pitch": 64, "duration": 6, "velocity": 97}, {"time": 3456, "pitch": 38, "duration": 1, "velocity": 93}, {"time": 3456, "pitch": 62, "duration": 8, "velocity": 85}, {"time": 3456, "pitch": 69, "duration": 9, "velocity": 84}, {"time": 3456, "pitch": 66, "duration": 9, "velocity": 80}, {"time": 3459, "pitch": 50, "duration": 6, "velocity": 89}, {"time": 3463, "pitch": 57, "duration": 3, "velocity": 88}, {"time": 3466, "pitch": 62, "duration": 5, "velocity": 89}, {"time": 3469, "pitch": 66, "duration": 4, "velocity": 99}, {"time": 3473, "pitch": 69, "duration": 1, "velocity": 84}, {"time": 3475, "pitch": 62, "duration": 37, "velocity": 81}, {"time": 3477, "pitch": 66, "duration": 35, "velocity": 75}, {"time": 3480, "pitch": 74, "duration": 33, "velocity": 81}, {"time": 3480, "pitch": 69, "duration": 33, "velocity": 61}, {"time": 3481, "pitch": 78, "duration": 31, "velocity": 77}, {"time": 3482, "pitch": 81, "duration": 31, "velocity": 72}, {"time": 3483, "pitch": 86, "duration": 29, "velocity": 89}, {"time": 3552, "pitch": 43, "duration": 20, "velocity": 88}, {"time": 3552, "pitch": 55, "duration": 7, "velocity": 82}, {"time": 3552, "pitch": 59, "duration": 10, "velocity": 85}, {"time": 3558, "pitch": 50, "duration": 14, "velocity": 73}, {"time": 3564, "pitch": 55, "duration": 7, "velocity": 91}, {"time": 3570, "pitch": 59, "duration": 7, "velocity": 95}, {"time": 3576, "pitch": 45, "duration": 18, "velocity": 88}, {"time": 3576, "pitch": 57, "duration": 12, "velocity": 84}, {"time": 3576, "pitch": 60, "duration": 7, "velocity": 83}, {"time": 3582, "pitch": 52, "duration": 12, "velocity": 73}, {"time": 3588, "pitch": 60, "duration": 3, "velocity": 84}, {"time": 3588, "pitch": 64, "duration": 4, "velocity": 90}, {"time": 3600, "pitch": 50, "duration": 19, "velocity": 86}, {"time": 3600, "pitch": 62, "duration": 6, "velocity": 84}, {"time": 3606, "pitch": 57, "duration": 7, "velocity": 84}, {"time": 3612, "pitch": 62, "duration": 6, "velocity": 87}, {"time": 3612, "pitch": 66, "duration": 7, "velocity": 78}, {"time": 3618, "pitch": 57, "duration": 2, "velocity": 71}, {"time": 3624, "pitch": 43, "duration": 11, "velocity": 88}, {"time": 3624, "pitch": 55, "duration": 10, "velocity": 81}, {"time": 3624, "pitch": 59, "duration": 10, "velocity": 81}, {"time": 3636, "pitch": 45, "duration": 6, "velocity": 88}, {"time": 3636, "pitch": 57, "duration": 5, "velocity": 86}, {"time": 3642, "pitch": 47, "duration": 6, "velocity": 82}, {"time": 3642, "pitch": 59, "duration": 5, "velocity": 92}, {"time": 3648, "pitch": 48, "duration": 15, "velocity": 90}, {"time": 3648, "pitch": 60, "duration": 7, "velocity": 85}, {"time": 3648, "pitch": 64, "duration": 6, "velocity": 84}, {"time": 3654, "pitch": 55, "duration": 8, "velocity": 73}, {"time": 3660, "pitch": 60, "duration": 2, "velocity": 89}, {"time": 3660, "pitch": 64, "duration": 1, "velocity": 92}, {"time": 3660, "pitch": 67, "duration": 2, "velocity": 87}, {"time": 3671, "pitch": 50, "duration": 14, "velocity": 90}, {"time": 3671, "pitch": 66, "duration": 9, "velocity": 77}, {"time": 3672, "pitch": 62, "duration": 8, "velocity": 84}, {"time": 3677, "pitch": 57, "duration": 8, "velocity": 88}, {"time": 3684, "pitch": 66, "duration": 7, "velocity": 92}, {"time": 3684, "pitch": 69, "duration": 13, "velocity": 89}, {"time": 3690, "pitch": 62, "duration": 10, "velocity": 85}, {"time": 3697, "pitch": 43, "duration": 49, "velocity": 89}, {"time": 3702, "pitch": 50, "duration": 42, "velocity": 80}, {"time": 3705, "pitch": 55, "duration": 2, "velocity": 80}, {"time": 3707, "pitch": 57, "duration": 2, "velocity": 78}, {"time": 3710, "pitch": 59, "duration": 3, "velocity": 79}, {"time": 3712, "pitch": 62, "duration": 4, "velocity": 84}, {"time": 3715, "pitch": 67, "duration": 2, "velocity": 82}, {"time": 3718, "pitch": 69, "duration": 2, "velocity": 84}, {"time": 3721, "pitch": 71, "duration": 7, "velocity": 76}, {"time": 3725, "pitch": 74, "duration": 3, "velocity": 82}, {"time": 3730, "pitch": 79, "duration": 4, "velocity": 80}, {"time": 3730, "pitch": 71, "duration": 3, "velocity": 80}, {"time": 3730, "pitch": 74, "duration": 4, "velocity": 88}], "annotations": [{"time": 24, "annotation": {"number": 64, "value": 127}, "group": "control_change"}, {"time": 46, "annotation": {"number": 64, "value": 0}, "group": "control_change"}, {"time": 49, "annotation": {"number": 64, "value": 127}, "group": "control_change"}, {"time": 71, "annotation": {"number": 64, "value": 0}, "group": "control_change"}, {"time": 74, "annotation": {"number": 64, "value": 127}, "group": "control_change"}, {"time": 84, "annotation": {"number": 64, "value": 127}, "group": "control_change"}, {"time": 95, "annotation": {"number": 64, "value": 0}, "group": "control_change"}, {"time": 120, "annotation": {"number": 64, "value": 127}, "group": "control_change"}, {"time": 144, "annotation": {"number": 64, "value": 0}, "group": "control_change"}, {"time": 146, "annotation": {"number": 64, "value": 127}, "group": "control_change"}, {"time": 155, "annotation": {"number": 64, "value": 0}, "group": "control_change"}, {"time": 156, "annotation": {"number": 64, "value": 127}, "group": "control_change"}, {"time": 166, "annotation": {"number": 64, "value": 0}, "group": "control_change"}, {"time": 169, "annotation": {"number": 64, "value": 127}, "group": "control_change"}, {"time": 192, "annotation": {"number": 64, "value": 0}, "group": "control_change"}, {"time": 193, "annotation": {"number": 64, "value": 127}, "group": "control_change"}, {"time": 217, "annotation": {"number": 64, "value": 0}, "group": "control_change"}, {"time": 222, "annotation": {"number": 64, "value": 127}, "group": "control_change"}, {"time": 240, "annotation": {"number": 64, "value": 0}, "group": "control_change"}, {"time": 245, "annotation": {"number": 64, "value": 127}, "group": "control_change"}, {"time": 263, "annotation": {"number": 64, "value": 0}, "group": "control_change"}, {"time": 269, "annotation": {"number": 64, "value": 127}, "group": "control_change"}, {"time": 287, "annotation": {"number": 64, "value": 0}, "group": "control_change"}, {"time": 291, "annotation": {"number": 64, "value": 127}, "group": "control_change"}, {"time": 312, "annotation": {"number": 64, "value": 127}, "group": "control_change"}, {"time": 322, "annotation": {"number": 64, "value": 0}, "group": "control_change"}, {"time": 324, "annotation": {"number": 64, "value": 127}, "group": "control_change"}, {"time": 334, "annotation": {"number": 64, "value": 0}, "group": "control_change"}, {"time": 341, "annotation": {"number": 64, "value": 127}, "group": "control_change"}, {"time": 357, "annotation": {"number": 64, "value": 127}, "group": "control_change"}, {"time": 360, "annotation": {"number": 64, "value": 127}, "group": "control_change"}, {"time": 360, "annotation": {"number": 64, "value": 0}, "group": "control_change"}, {"time": 409, "annotation": {"number": 64, "value": 127}, "group": "control_change"}, {"time": 432, "annotation": {"number": 64, "value": 0}, "group": "control_change"}, {"time": 437, "annotation": {"number": 64, "value": 127}, "group": "control_change"}, {"time": 456, "annotation": {"number": 64, "value": 0}, "group": "control_change"}, {"time": 458, "annotation": {"number": 64, "value": 127}, "group": "control_change"}, {"time": 480, "annotation": {"number": 64, "value": 0}, "group": "control_change"}, {"time": 486, "annotation": {"number": 64, "value": 127}, "group": "control_change"}, {"time": 502, "annotation": {"number": 64, "value": 0}, "group": "control_change"}, {"time": 508, "annotation": {"number": 64, "value": 127}, "group": "control_change"}, {"time": 526, "annotation": {"number": 64, "value": 0}, "group": "control_change"}, {"time": 528, "annotation": {"number": 64, "value": 127}, "group": "control_change"}, {"time": 539, "annotation": {"number": 64, "value": 0}, "group": "control_change"}, {"time": 540, "annotation": {"number": 64, "value": 127}, "group": "control_change"}, {"time": 550, "annotation": {"number": 64, "value": 0}, "group": "control_change"}, {"time": 556, "annotation": {"number": 64, "value": 127}, "group": "control_change"}, {"time": 577, "annotation": {"number": 64, "value": 0}, "group": "control_change"}, {"time": 582, "annotation": {"number": 64, "value": 127}, "group": "control_change"}, {"time": 600, "annotation": {"number": 64, "value": 0}, "group": "control_change"}, {"time": 601, "annotation": {"number": 64, "value": 127}, "group": "control_change"}, {"time": 623, "annotation": {"number": 64, "value": 0}, "group": "control_change"}, {"time": 628, "annotation": {"number": 64, "value": 127}, "group": "control_change"}, {"time": 648, "annotation": {"number": 64, "value": 0}, "group": "control_change"}, {"time": 652, "annotation": {"number": 64, "value": 127}, "group": "control_change"}, {"time": 670, "annotation": {"number": 64, "value": 0}, "group": "control_change"}, {"time": 672, "annotation": {"number": 64, "value": 127}, "group": "control_change"}, {"time": 682, "annotation": {"number": 64, "value": 0}, "group": "control_change"}, {"time": 684, "annotation": {"number": 64, "value": 127}, "group": "control_change"}, {"time": 695, "annotation": {"number": 64, "value": 0}, "group": "control_change"}, {"time": 701, "annotation": {"number": 64, "value": 127}, "group": "control_change"}, {"time": 720, "annotation": {"number": 64, "value": 0}, "group": "control_change"}, {"time": 726, "annotation": {"number": 64, "value": 127}, "group": "control_change"}, {"time": 744, "annotation": {"number": 64, "value": 0}, "group": "control_change"}, {"time": 750, "annotation": {"number": 64, "value": 127}, "group": "control_change"}, {"time": 766, "annotation": {"number": 64, "value": 0}, "group": "control_change"}, {"time": 772, "annotation": {"number": 64, "value": 127}, "group": "control_change"}, {"time": 792, "annotation": {"number": 64, "value": 0}, "group": "control_change"}, {"time": 793, "annotation": {"number": 64, "value": 127}, "group": "control_change"}, {"time": 816, "annotation": {"number": 64, "value": 0}, "group": "control_change"}, {"time": 821, "annotation": {"number": 64, "value": 127}, "group": "control_change"}, {"time": 840, "annotation": {"number": 64, "value": 0}, "group": "control_change"}, {"time": 842, "annotation": {"number": 64, "value": 127}, "group": "control_change"}, {"time": 864, "annotation": {"number": 64, "value": 0}, "group": "control_change"}, {"time": 870, "annotation": {"number": 64, "value": 127}, "group": "control_change"}, {"time": 886, "annotation": {"number": 64, "value": 0}, "group": "control_change"}, {"time": 892, "annotation": {"number": 64, "value": 127}, "group": "control_change"}, {"time": 910, "annotation": {"number": 64, "value": 0}, "group": "control_change"}, {"time": 912, "annotation": {"number": 64, "value": 127}, "group": "control_change"}, {"time": 923, "annotation": {"number": 64, "value": 0}, "group": "control_change"}, {"time": 924, "annotation": {"number": 64, "value": 127}, "group": "control_change"}, {"time": 934, "annotation": {"number": 64, "value": 0}, "group": "control_change"}, {"time": 940, "annotation": {"number": 64, "value": 127}, "group": "control_change"}, {"time": 961, "annotation": {"number": 64, "value": 0}, "group": "control_change"}, {"time": 966, "annotation": {"number": 64, "value": 127}, "group": "control_change"}, {"time": 984, "annotation": {"number": 64, "value": 0}, "group": "control_change"}, {"time": 985, "annotation": {"number": 64, "value": 127}, "group": "control_change"}, {"time": 1007, "annotation": {"number": 64, "value": 0}, "group": "control_change"}, {"time": 1012, "annotation": {"number": 64, "value": 127}, "group": "control_change"}, {"time": 1032, "annotation": {"number": 64, "value": 0}, "group": "control_change"}, {"time": 1036, "annotation": {"number": 64, "value": 127}, "group": "control_change"}, {"time": 1054, "annotation": {"number": 64, "value": 0}, "group": "control_change"}, {"time": 1056, "annotation": {"number": 64, "value": 127}, "group": "control_change"}, {"time": 1066, "annotation": {"number": 64, "value": 0}, "group": "control_change"}, {"time": 1068, "annotation": {"number": 64, "value": 127}, "group": "control_change"}, {"time": 1079, "annotation": {"number": 64, "value": 0}, "group": "control_change"}, {"time": 1085, "annotation": {"number": 64, "value": 127}, "group": "control_change"}, {"time": 1104, "annotation": {"number": 64, "value": 0}, "group": "control_change"}, {"time": 1110, "annotation": {"number": 64, "value": 127}, "group": "control_change"}, {"time": 1128, "annotation": {"number": 64, "value": 0}, "group": "control_change"}, {"time": 1129, "annotation": {"number": 64, "value": 127}, "group": "control_change"}, {"time": 1138, "annotation": {"number": 64, "value": 0}, "group": "control_change"}, {"time": 1141, "annotation": {"number": 64, "value": 127}, "group": "control_change"}, {"time": 1150, "annotation": {"number": 64, "value": 0}, "group": "control_change"}, {"time": 1164, "annotation": {"number": 64, "value": 127}, "group": "control_change"}, {"time": 1165, "annotation": {"number": 64, "value": 127}, "group": "control_change"}, {"time": 1174, "annotation": {"number": 64, "value": 0}, "group": "control_change"}, {"time": 1176, "annotation": {"number": 64, "value": 127}, "group": "control_change"}, {"time": 1198, "annotation": {"number": 64, "value": 0}, "group": "control_change"}, {"time": 1201, "annotation": {"number": 64, "value": 127}, "group": "control_change"}, {"time": 1220, "annotation": {"number": 64, "value": 0}, "group": "control_change"}, {"time": 1224, "annotation": {"number": 64, "value": 127}, "group": "control_change"}, {"time": 1247, "annotation": {"number": 64, "value": 0}, "group": "control_change"}, {"time": 1249, "annotation": {"number": 64, "value": 127}, "group": "control_change"}, {"time": 1272, "annotation": {"number": 64, "value": 0}, "group": "control_change"}, {"time": 1277, "annotation": {"number": 64, "value": 127}, "group": "control_change"}, {"time": 1295, "annotation": {"number": 64, "value": 0}, "group": "control_change"}, {"time": 1298, "annotation": {"number": 64, "value": 127}, "group": "control_change"}, {"time": 1319, "annotation": {"number": 64, "value": 0}, "group": "control_change"}, {"time": 1320, "annotation": {"number": 64, "value": 127}, "group": "control_change"}, {"time": 1330, "annotation": {"number": 64, "value": 0}, "group": "control_change"}, {"time": 1332, "annotation": {"number": 64, "value": 127}, "group": "control_change"}, {"time": 1343, "annotation": {"number": 64, "value": 0}, "group": "control_change"}, {"time": 1345, "annotation": {"number": 64, "value": 127}, "group": "control_change"}, {"time": 1356, "annotation": {"number": 64, "value": 0}, "group": "control_change"}, {"time": 1358, "annotation": {"number": 64, "value": 127}, "group": "control_change"}, {"time": 1364, "annotation": {"number": 64, "value": 0}, "group": "control_change"}, {"time": 1368, "annotation": {"number": 64, "value": 127}, "group": "control_change"}, {"time": 1392, "annotation": {"number": 64, "value": 0}, "group": "control_change"}, {"time": 1396, "annotation": {"number": 64, "value": 127}, "group": "control_change"}, {"time": 1414, "annotation": {"number": 64, "value": 0}, "group": "control_change"}, {"time": 1417, "annotation": {"number": 64, "value": 127}, "group": "control_change"}, {"time": 1438, "annotation": {"number": 64, "value": 0}, "group": "control_change"}, {"time": 1442, "annotation": {"number": 64, "value": 127}, "group": "control_change"}, {"time": 1464, "annotation": {"number": 64, "value": 0}, "group": "control_change"}, {"time": 1469, "annotation": {"number": 64, "value": 127}, "group": "control_change"}, {"time": 1487, "annotation": {"number": 64, "value": 0}, "group": "control_change"}, {"time": 1490, "annotation": {"number": 64, "value": 127}, "group": "control_change"}, {"time": 1511, "annotation": {"number": 64, "value": 0}, "group": "control_change"}, {"time": 1513, "annotation": {"number": 64, "value": 127}, "group": "control_change"}, {"time": 1535, "annotation": {"number": 64, "value": 0}, "group": "control_change"}, {"time": 1536, "annotation": {"number": 64, "value": 127}, "group": "control_change"}, {"time": 1547, "annotation": {"number": 64, "value": 0}, "group": "control_change"}, {"time": 1561, "annotation": {"number": 64, "value": 127}, "group": "control_change"}, {"time": 1584, "annotation": {"number": 64, "value": 0}, "group": "control_change"}, {"time": 1589, "annotation": {"number": 64, "value": 127}, "group": "control_change"}, {"time": 1608, "annotation": {"number": 64, "value": 0}, "group": "control_change"}, {"time": 1610, "annotation": {"number": 64, "value": 127}, "group": "control_change"}, {"time": 1632, "annotation": {"number": 64, "value": 0}, "group": "control_change"}, {"time": 1638, "annotation": {"number": 64, "value": 127}, "group": "control_change"}, {"time": 1654, "annotation": {"number": 64, "value": 0}, "group": "control_change"}, {"time": 1660, "annotation": {"number": 64, "value": 127}, "group": "control_change"}, {"time": 1678, "annotation": {"number": 64, "value": 0}, "group": "control_change"}, {"time": 1680, "annotation": {"number": 64, "value": 127}, "group": "control_change"}, {"time": 1691, "annotation": {"number": 64, "value": 0}, "group": "control_change"}, {"time": 1692, "annotation": {"number": 64, "value": 127}, "group": "control_change"}, {"time": 1702, "annotation": {"number": 64, "value": 0}, "group": "control_change"}, {"time": 1708, "annotation": {"number": 64, "value": 127}, "group": "control_change"}, {"time": 1729, "annotation": {"number": 64, "value": 0}, "group": "control_change"}, {"time": 1734, "annotation": {"number": 64, "value": 127}, "group": "control_change"}, {"time": 1752, "annotation": {"number": 64, "value": 0}, "group": "control_change"}, {"time": 1753, "annotation": {"number": 64, "value": 127}, "group": "control_change"}, {"time": 1775, "annotation": {"number": 64, "value": 0}, "group": "control_change"}, {"time": 1780, "annotation": {"number": 64, "value": 127}, "group": "control_change"}, {"time": 1800, "annotation": {"number": 64, "value": 0}, "group": "control_change"}, {"time": 1804, "annotation": {"number": 64, "value": 127}, "group": "control_change"}, {"time": 1822, "annotation": {"number": 64, "value": 0}, "group": "control_change"}, {"time": 1824, "annotation": {"number": 64, "value": 127}, "group": "control_change"}, {"time": 1834, "annotation": {"number": 64, "value": 0}, "group": "control_change"}, {"time": 1836, "annotation": {"number": 64, "value": 127}, "group": "control_change"}, {"time": 1847, "annotation": {"number": 64, "value": 0}, "group": "control_change"}, {"time": 1853, "annotation": {"number": 64, "value": 127}, "group": "control_change"}, {"time": 1872, "annotation": {"number": 64, "value": 0}, "group": "control_change"}, {"time": 1878, "annotation": {"number": 64, "value": 127}, "group": "control_change"}, {"time": 1896, "annotation": {"number": 64, "value": 0}, "group": "control_change"}, {"time": 1897, "annotation": {"number": 64, "value": 127}, "group": "control_change"}, {"time": 1906, "annotation": {"number": 64, "value": 0}, "group": "control_change"}, {"time": 1909, "annotation": {"number": 64, "value": 127}, "group": "control_change"}, {"time": 1918, "annotation": {"number": 64, "value": 0}, "group": "control_change"}, {"time": 1932, "annotation": {"number": 64, "value": 127}, "group": "control_change"}, {"time": 1933, "annotation": {"number": 64, "value": 127}, "group": "control_change"}, {"time": 1942, "annotation": {"number": 64, "value": 0}, "group": "control_change"}, {"time": 1944, "annotation": {"number": 64, "value": 127}, "group": "control_change"}, {"time": 1967, "annotation": {"number": 64, "value": 0}, "group": "control_change"}, {"time": 1980, "annotation": {"number": 64, "value": 127}, "group": "control_change"}, {"time": 1992, "annotation": {"number": 64, "value": 0}, "group": "control_change"}, {"time": 2005, "annotation": {"number": 64, "value": 127}, "group": "control_change"}, {"time": 2017, "annotation": {"number": 64, "value": 0}, "group": "control_change"}, {"time": 2029, "annotation": {"number": 64, "value": 127}, "group": "control_change"}, {"time": 2040, "annotation": {"number": 64, "value": 127}, "group": "control_change"}, {"time": 2053, "annotation": {"number": 64, "value": 0}, "group": "control_change"}, {"time": 2066, "annotation": {"number": 64, "value": 127}, "group": "control_change"}, {"time": 2086, "annotation": {"number": 64, "value": 0}, "group": "control_change"}, {"time": 2089, "annotation": {"number": 64, "value": 127}, "group": "control_change"}, {"time": 2115, "annotation": {"number": 64, "value": 0}, "group": "control_change"}, {"time": 2117, "annotation": {"number": 64, "value": 127}, "group": "control_change"}, {"time": 2134, "annotation": {"number": 64, "value": 0}, "group": "control_change"}, {"time": 2148, "annotation": {"number": 64, "value": 0}, "group": "control_change"}, {"time": 2151, "annotation": {"number": 64, "value": 127}, "group": "control_change"}, {"time": 2159, "annotation": {"number": 64, "value": 0}, "group": "control_change"}, {"time": 2162, "annotation": {"number": 64, "value": 127}, "group": "control_change"}, {"time": 2183, "annotation": {"number": 64, "value": 0}, "group": "control_change"}, {"time": 2185, "annotation": {"number": 64, "value": 127}, "group": "control_change"}, {"time": 2198, "annotation": {"number": 64, "value": 0}, "group": "control_change"}, {"time": 2202, "annotation": {"number": 64, "value": 127}, "group": "control_change"}, {"time": 2232, "annotation": {"number": 64, "value": 0}, "group": "control_change"}, {"time": 2237, "annotation": {"number": 64, "value": 127}, "group": "control_change"}, {"time": 2257, "annotation": {"number": 64, "value": 0}, "group": "control_change"}, {"time": 2260, "annotation": {"number": 64, "value": 127}, "group": "control_change"}, {"time": 2278, "annotation": {"number": 64, "value": 0}, "group": "control_change"}, {"time": 2280, "annotation": {"number": 64, "value": 127}, "group": "control_change"}, {"time": 2304, "annotation": {"number": 64, "value": 0}, "group": "control_change"}, {"time": 2306, "annotation": {"number": 64, "value": 127}, "group": "control_change"}, {"time": 2328, "annotation": {"number": 64, "value": 127}, "group": "control_change"}, {"time": 2350, "annotation": {"number": 64, "value": 0}, "group": "control_change"}, {"time": 2353, "annotation": {"number": 64, "value": 127}, "group": "control_change"}, {"time": 2372, "annotation": {"number": 64, "value": 0}, "group": "control_change"}, {"time": 2376, "annotation": {"number": 64, "value": 127}, "group": "control_change"}, {"time": 2399, "annotation": {"number": 64, "value": 0}, "group": "control_change"}, {"time": 2401, "annotation": {"number": 64, "value": 127}, "group": "control_change"}, {"time": 2424, "annotation": {"number": 64, "value": 0}, "group": "control_change"}, {"time": 2429, "annotation": {"number": 64, "value": 127}, "group": "control_change"}, {"time": 2447, "annotation": {"number": 64, "value": 0}, "group": "control_change"}, {"time": 2450, "annotation": {"number": 64, "value": 127}, "group": "control_change"}, {"time": 2471, "annotation": {"number": 64, "value": 0}, "group": "control_change"}, {"time": 2472, "annotation": {"number": 64, "value": 127}, "group": "control_change"}, {"time": 2482, "annotation": {"number": 64, "value": 0}, "group": "control_change"}, {"time": 2484, "annotation": {"number": 64, "value": 127}, "group": "control_change"}, {"time": 2495, "annotation": {"number": 64, "value": 0}, "group": "control_change"}, {"time": 2497, "annotation": {"number": 64, "value": 127}, "group": "control_change"}, {"time": 2508, "annotation": {"number": 64, "value": 0}, "group": "control_change"}, {"time": 2510, "annotation": {"number": 64, "value": 127}, "group": "control_change"}, {"time": 2516, "annotation": {"number": 64, "value": 0}, "group": "control_change"}, {"time": 2520, "annotation": {"number": 64, "value": 127}, "group": "control_change"}, {"time": 2544, "annotation": {"number": 64, "value": 0}, "group": "control_change"}, {"time": 2548, "annotation": {"number": 64, "value": 127}, "group": "control_change"}, {"time": 2566, "annotation": {"number": 64, "value": 0}, "group": "control_change"}, {"time": 2573, "annotation": {"number": 64, "value": 127}, "group": "control_change"}, {"time": 2584, "annotation": {"number": 64, "value": 0}, "group": "control_change"}, {"time": 2586, "annotation": {"number": 64, "value": 127}, "group": "control_change"}, {"time": 2664, "annotation": {"number": 64, "value": 0}, "group": "control_change"}, {"time": 2669, "annotation": {"number": 64, "value": 127}, "group": "control_change"}, {"time": 2687, "annotation": {"number": 64, "value": 0}, "group": "control_change"}, {"time": 2690, "annotation": {"number": 64, "value": 127}, "group": "control_change"}, {"time": 2711, "annotation": {"number": 64, "value": 0}, "group": "control_change"}, {"time": 2713, "annotation": {"number": 64, "value": 127}, "group": "control_change"}, {"time": 2735, "annotation": {"number": 64, "value": 0}, "group": "control_change"}, {"time": 2736, "annotation": {"number": 64, "value": 127}, "group": "control_change"}, {"time": 2747, "annotation": {"number": 64, "value": 0}, "group": "control_change"}, {"time": 2761, "annotation": {"number": 64, "value": 127}, "group": "control_change"}, {"time": 2784, "annotation": {"number": 64, "value": 0}, "group": "control_change"}, {"time": 2789, "annotation": {"number": 64, "value": 127}, "group": "control_change"}, {"time": 2808, "annotation": {"number": 64, "value": 0}, "group": "control_change"}, {"time": 2810, "annotation": {"number": 64, "value": 127}, "group": "control_change"}, {"time": 2832, "annotation": {"number": 64, "value": 0}, "group": "control_change"}, {"time": 2838, "annotation": {"number": 64, "value": 127}, "group": "control_change"}, {"time": 2854, "annotation": {"number": 64, "value": 0}, "group": "control_change"}, {"time": 2860, "annotation": {"number": 64, "value": 127}, "group": "control_change"}, {"time": 2878, "annotation": {"number": 64, "value": 0}, "group": "control_change"}, {"time": 2880, "annotation": {"number": 64, "value": 127}, "group": "control_change"}, {"time": 2891, "annotation": {"number": 64, "value": 0}, "group": "control_change"}, {"time": 2892, "annotation": {"number": 64, "value": 127}, "group": "control_change"}, {"time": 2902, "annotation": {"number": 64, "value": 0}, "group": "control_change"}, {"time": 2908, "annotation": {"number": 64, "value": 127}, "group": "control_change"}, {"time": 2929, "annotation": {"number": 64, "value": 0}, "group": "control_change"}, {"time": 2934, "annotation": {"number": 64, "value": 127}, "group": "control_change"}, {"time": 2952, "annotation": {"number": 64, "value": 0}, "group": "control_change"}, {"time": 2953, "annotation": {"number": 64, "value": 127}, "group": "control_change"}, {"time": 2975, "annotation": {"number": 64, "value": 0}, "group": "control_change"}, {"time": 2980, "annotation": {"number": 64, "value": 127}, "group": "control_change"}, {"time": 3000, "annotation": {"number": 64, "value": 0}, "group": "control_change"}, {"time": 3004, "annotation": {"number": 64, "value": 127}, "group": "control_change"}, {"time": 3022, "annotation": {"number": 64, "value": 0}, "group": "control_change"}, {"time": 3024, "annotation": {"number": 64, "value": 127}, "group": "control_change"}, {"time": 3034, "annotation": {"number": 64, "value": 0}, "group": "control_change"}, {"time": 3036, "annotation": {"number": 64, "value": 127}, "group": "control_change"}, {"time": 3047, "annotation": {"number": 64, "value": 0}, "group": "control_change"}, {"time": 3053, "annotation": {"number": 64, "value": 127}, "group": "control_change"}, {"time": 3072, "annotation": {"number": 64, "value": 0}, "group": "control_change"}, {"time": 3078, "annotation": {"number": 64, "value": 127}, "group": "control_change"}, {"time": 3096, "annotation": {"number": 64, "value": 0}, "group": "control_change"}, {"time": 3097, "annotation": {"number": 64, "value": 127}, "group": "control_change"}, {"time": 3106, "annotation": {"number": 64, "value": 0}, "group": "control_change"}, {"time": 3109, "annotation": {"number": 64, "value": 127}, "group": "control_change"}, {"time": 3118, "annotation": {"number": 64, "value": 0}, "group": "control_change"}, {"time": 3132, "annotation": {"number": 64, "value": 127}, "group": "control_change"}, {"time": 3133, "annotation": {"number": 64, "value": 127}, "group": "control_change"}, {"time": 3142, "annotation": {"number": 64, "value": 0}, "group": "control_change"}, {"time": 3144, "annotation": {"number": 64, "value": 127}, "group": "control_change"}, {"time": 3168, "annotation": {"number": 64, "value": 0}, "group": "control_change"}, {"time": 3170, "annotation": {"number": 64, "value": 127}, "group": "control_change"}, {"time": 3191, "annotation": {"number": 64, "value": 0}, "group": "control_change"}, {"time": 3194, "annotation": {"number": 64, "value": 127}, "group": "control_change"}, {"time": 3214, "annotation": {"number": 64, "value": 0}, "group": "control_change"}, {"time": 3216, "annotation": {"number": 64, "value": 127}, "group": "control_change"}, {"time": 3226, "annotation": {"number": 64, "value": 0}, "group": "control_change"}, {"time": 3228, "annotation": {"number": 64, "value": 127}, "group": "control_change"}, {"time": 3238, "annotation": {"number": 64, "value": 0}, "group": "control_change"}, {"time": 3246, "annotation": {"number": 64, "value": 127}, "group": "control_change"}, {"time": 3263, "annotation": {"number": 64, "value": 0}, "group": "control_change"}, {"time": 3265, "annotation": {"number": 64, "value": 127}, "group": "control_change"}, {"time": 3284, "annotation": {"number": 64, "value": 0}, "group": "control_change"}, {"time": 3287, "annotation": {"number": 64, "value": 127}, "group": "control_change"}, {"time": 3298, "annotation": {"number": 64, "value": 0}, "group": "control_change"}, {"time": 3300, "annotation": {"number": 64, "value": 127}, "group": "control_change"}, {"time": 3312, "annotation": {"number": 64, "value": 0}, "group": "control_change"}, {"time": 3313, "annotation": {"number": 64, "value": 127}, "group": "control_change"}, {"time": 3323, "annotation": {"number": 64, "value": 0}, "group": "control_change"}, {"time": 3325, "annotation": {"number": 64, "value": 127}, "group": "control_change"}, {"time": 3334, "annotation": {"number": 64, "value": 0}, "group": "control_change"}, {"time": 3336, "annotation": {"number": 64, "value": 127}, "group": "control_change"}, {"time": 3357, "annotation": {"number": 64, "value": 0}, "group": "control_change"}, {"time": 3359, "annotation": {"number": 64, "value": 127}, "group": "control_change"}, {"time": 3382, "annotation": {"number": 64, "value": 0}, "group": "control_change"}, {"time": 3385, "annotation": {"number": 64, "value": 127}, "group": "control_change"}, {"time": 3407, "annotation": {"number": 64, "value": 0}, "group": "control_change"}, {"time": 3408, "annotation": {"number": 64, "value": 127}, "group": "control_change"}, {"time": 3431, "annotation": {"number": 64, "value": 0}, "group": "control_change"}, {"time": 3432, "annotation": {"number": 64, "value": 127}, "group": "control_change"}, {"time": 3454, "annotation": {"number": 64, "value": 0}, "group": "control_change"}, {"time": 3455, "annotation": {"number": 64, "value": 127}, "group": "control_change"}, {"time": 3546, "annotation": {"number": 64, "value": 0}, "group": "control_change"}, {"time": 3574, "annotation": {"number": 64, "value": 0}, "group": "control_change"}, {"time": 3577, "annotation": {"number": 64, "value": 127}, "group": "control_change"}, {"time": 3599, "annotation": {"number": 64, "value": 0}, "group": "control_change"}, {"time": 3602, "annotation": {"number": 64, "value": 127}, "group": "control_change"}, {"time": 3612, "annotation": {"number": 64, "value": 127}, "group": "control_change"}, {"time": 3623, "annotation": {"number": 64, "value": 0}, "group": "control_change"}, {"time": 3648, "annotation": {"number": 64, "value": 127}, "group": "control_change"}, {"time": 3672, "annotation": {"number": 64, "value": 0}, "group": "control_change"}, {"time": 3673, "annotation": {"number": 64, "value": 127}, "group": "control_change"}, {"time": 3696, "annotation": {"number": 64, "value": 0}, "group": "control_change"}, {"time": 3700, "annotation": {"number": 64, "value": 127}, "group": "control_change"}]}]}