{"metadata": {"schema_version": "0.2", "title": "None", "source_filename": "418.mid", "source_format": "midi"}, "resolution": 12, "tempos": [{"time": 0, "qpm": 77.000077000077}, {"time": 3348, "qpm": 76.75009401886517}, {"time": 3360, "qpm": 87.00002175000543}, {"time": 3360, "qpm": 106.00013780017915}, {"time": 3372, "qpm": 77.2500028968751}, {"time": 3720, "qpm": 71.00003550001774}, {"time": 3724, "qpm": 67.00002903334591}, {"time": 3727, "qpm": 65.00013541694878}, {"time": 3732, "qpm": 63.50005979588964}, {"time": 3736, "qpm": 60.500032770851085}, {"time": 3744, "qpm": 60.250037656273534}, {"time": 3756, "qpm": 77.000077000077}, {"time": 4102, "qpm": 76.25002382813244}, {"time": 4106, "qpm": 75.49999874166669}, {"time": 4164, "qpm": 77.000077000077}], "time_signatures": [{"time": 0, "numerator": 1, "denominator": 4}], "tracks": [{"program": 0, "is_drum": false, "name": "MELODY", "notes": [{"time": 581, "pitch": 63, "duration": 4, "velocity": 91}, {"time": 587, "pitch": 63, "duration": 4, "velocity": 95}, {"time": 593, "pitch": 68, "duration": 4, "velocity": 90}, {"time": 599, "pitch": 68, "duration": 5, "velocity": 94}, {"time": 605, "pitch": 70, "duration": 4, "velocity": 92}, {"time": 611, "pitch": 70, "duration": 4, "velocity": 91}, {"time": 617, "pitch": 72, "duration": 4, "velocity": 90}, {"time": 623, "pitch": 72, "duration": 4, "velocity": 96}, {"time": 629, "pitch": 70, "duration": 5, "velocity": 91}, {"time": 635, "pitch": 68, "duration": 4, "velocity": 92}, {"time": 641, "pitch": 70, "duration": 9, "velocity": 92}, {"time": 653, "pitch": 63, "duration": 4, "velocity": 95}, {"time": 659, "pitch": 65, "duration": 2, "velocity": 92}, {"time": 662, "pitch": 67, "duration": 4, "velocity": 90}, {"time": 668, "pitch": 68, "duration": 18, "velocity": 93}, {"time": 695, "pitch": 68, "duration": 5, "velocity": 85}, {"time": 701, "pitch": 67, "duration": 4, "velocity": 93}, {"time": 707, "pitch": 65, "duration": 4, "velocity": 94}, {"time": 713, "pitch": 63, "duration": 29, "velocity": 93}, {"time": 749, "pitch": 56, "duration": 4, "velocity": 99}, {"time": 755, "pitch": 67, "duration": 9, "velocity": 95}, {"time": 764, "pitch": 68, "duration": 2, "velocity": 88}, {"time": 767, "pitch": 65, "duration": 15, "velocity": 92}, {"time": 791, "pitch": 65, "duration": 4, "velocity": 92}, {"time": 797, "pitch": 63, "duration": 5, "velocity": 94}, {"time": 803, "pitch": 61, "duration": 5, "velocity": 92}, {"time": 809, "pitch": 63, "duration": 12, "velocity": 92}, {"time": 839, "pitch": 63, "duration": 4, "velocity": 91}, {"time": 845, "pitch": 61, "duration": 4, "velocity": 91}, {"time": 851, "pitch": 60, "duration": 4, "velocity": 96}, {"time": 857, "pitch": 63, "duration": 10, "velocity": 92}, {"time": 869, "pitch": 61, "duration": 9, "velocity": 92}, {"time": 884, "pitch": 53, "duration": 3, "velocity": 92}, {"time": 887, "pitch": 61, "duration": 6, "velocity": 92}, {"time": 893, "pitch": 60, "duration": 4, "velocity": 92}, {"time": 899, "pitch": 60, "duration": 5, "velocity": 90}, {"time": 905, "pitch": 58, "duration": 30, "velocity": 90}, {"time": 965, "pitch": 63, "duration": 4, "velocity": 91}, {"time": 971, "pitch": 63, "duration": 4, "velocity": 95}, {"time": 977, "pitch": 68, "duration": 4, "velocity": 90}, {"time": 983, "pitch": 68, "duration": 5, "velocity": 94}, {"time": 989, "pitch": 70, "duration": 4, "velocity": 92}, {"time": 995, "pitch": 70, "duration": 4, "velocity": 91}, {"time": 1001, "pitch": 72, "duration": 4, "velocity": 90}, {"time": 1007, "pitch": 72, "duration": 4, "velocity": 96}, {"time": 1013, "pitch": 70, "duration": 5, "velocity": 91}, {"time": 1019, "pitch": 68, "duration": 4, "velocity": 92}, {"time": 1025, "pitch": 70, "duration": 9, "velocity": 92}, {"time": 1037, "pitch": 63, "duration": 4, "velocity": 95}, {"time": 1043, "pitch": 65, "duration": 2, "velocity": 92}, {"time": 1046, "pitch": 67, "duration": 4, "velocity": 90}, {"time": 1052, "pitch": 68, "duration": 18, "velocity": 93}, {"time": 1073, "pitch": 68, "duration": 5, "velocity": 85}, {"time": 1079, "pitch": 68, "duration": 5, "velocity": 85}, {"time": 1085, "pitch": 67, "duration": 4, "velocity": 93}, {"time": 1091, "pitch": 65, "duration": 4, "velocity": 94}, {"time": 1097, "pitch": 63, "duration": 29, "velocity": 93}, {"time": 1133, "pitch": 56, "duration": 4, "velocity": 99}, {"time": 1139, "pitch": 67, "duration": 9, "velocity": 95}, {"time": 1148, "pitch": 68, "duration": 2, "velocity": 88}, {"time": 1151, "pitch": 65, "duration": 15, "velocity": 92}, {"time": 1175, "pitch": 65, "duration": 4, "velocity": 92}, {"time": 1181, "pitch": 67, "duration": 4, "velocity": 90}, {"time": 1187, "pitch": 68, "duration": 4, "velocity": 85}, {"time": 1193, "pitch": 70, "duration": 4, "velocity": 91}, {"time": 1199, "pitch": 70, "duration": 4, "velocity": 94}, {"time": 1205, "pitch": 68, "duration": 12, "velocity": 90}, {"time": 1217, "pitch": 63, "duration": 12, "velocity": 83}, {"time": 1229, "pitch": 63, "duration": 4, "velocity": 97}, {"time": 1235, "pitch": 72, "duration": 3, "velocity": 93}, {"time": 1241, "pitch": 73, "duration": 11, "velocity": 94}, {"time": 1253, "pitch": 70, "duration": 14, "velocity": 91}, {"time": 1268, "pitch": 63, "duration": 2, "velocity": 92}, {"time": 1271, "pitch": 72, "duration": 4, "velocity": 92}, {"time": 1277, "pitch": 73, "duration": 5, "velocity": 91}, {"time": 1283, "pitch": 72, "duration": 4, "velocity": 94}, {"time": 1289, "pitch": 70, "duration": 52, "velocity": 97}, {"time": 1349, "pitch": 72, "duration": 4, "velocity": 94}, {"time": 1355, "pitch": 72, "duration": 4, "velocity": 99}, {"time": 1361, "pitch": 72, "duration": 2, "velocity": 94}, {"time": 1364, "pitch": 73, "duration": 1, "velocity": 86}, {"time": 1367, "pitch": 73, "duration": 4, "velocity": 92}, {"time": 1373, "pitch": 72, "duration": 4, "velocity": 93}, {"time": 1379, "pitch": 70, "duration": 5, "velocity": 94}, {"time": 1385, "pitch": 72, "duration": 7, "velocity": 94}, {"time": 1397, "pitch": 72, "duration": 4, "velocity": 96}, {"time": 1403, "pitch": 72, "duration": 4, "velocity": 95}, {"time": 1409, "pitch": 73, "duration": 4, "velocity": 91}, {"time": 1415, "pitch": 73, "duration": 5, "velocity": 92}, {"time": 1421, "pitch": 72, "duration": 5, "velocity": 94}, {"time": 1427, "pitch": 70, "duration": 5, "velocity": 91}, {"time": 1433, "pitch": 72, "duration": 9, "velocity": 96}, {"time": 1445, "pitch": 72, "duration": 4, "velocity": 101}, {"time": 1451, "pitch": 72, "duration": 4, "velocity": 99}, {"time": 1457, "pitch": 73, "duration": 4, "velocity": 92}, {"time": 1463, "pitch": 75, "duration": 3, "velocity": 101}, {"time": 1469, "pitch": 68, "duration": 5, "velocity": 91}, {"time": 1475, "pitch": 67, "duration": 4, "velocity": 92}, {"time": 1481, "pitch": 68, "duration": 5, "velocity": 91}, {"time": 1487, "pitch": 70, "duration": 5, "velocity": 93}, {"time": 1493, "pitch": 68, "duration": 4, "velocity": 91}, {"time": 1499, "pitch": 70, "duration": 4, "velocity": 92}, {"time": 1505, "pitch": 72, "duration": 4, "velocity": 96}, {"time": 1511, "pitch": 73, "duration": 4, "velocity": 93}, {"time": 1517, "pitch": 72, "duration": 4, "velocity": 101}, {"time": 1523, "pitch": 70, "duration": 4, "velocity": 96}, {"time": 1529, "pitch": 68, "duration": 5, "velocity": 95}, {"time": 1541, "pitch": 65, "duration": 4, "velocity": 106}, {"time": 1547, "pitch": 65, "duration": 4, "velocity": 97}, {"time": 1553, "pitch": 75, "duration": 4, "velocity": 104}, {"time": 1559, "pitch": 75, "duration": 4, "velocity": 106}, {"time": 1565, "pitch": 73, "duration": 4, "velocity": 92}, {"time": 1571, "pitch": 72, "duration": 4, "velocity": 91}, {"time": 1577, "pitch": 73, "duration": 7, "velocity": 94}, {"time": 1589, "pitch": 63, "duration": 4, "velocity": 93}, {"time": 1595, "pitch": 63, "duration": 4, "velocity": 97}, {"time": 1601, "pitch": 75, "duration": 4, "velocity": 101}, {"time": 1607, "pitch": 73, "duration": 4, "velocity": 95}, {"time": 1613, "pitch": 72, "duration": 4, "velocity": 95}, {"time": 1619, "pitch": 70, "duration": 4, "velocity": 94}, {"time": 1625, "pitch": 72, "duration": 6, "velocity": 91}, {"time": 1637, "pitch": 65, "duration": 4, "velocity": 94}, {"time": 1643, "pitch": 65, "duration": 4, "velocity": 97}, {"time": 1649, "pitch": 70, "duration": 5, "velocity": 92}, {"time": 1655, "pitch": 70, "duration": 4, "velocity": 92}, {"time": 1661, "pitch": 72, "duration": 4, "velocity": 92}, {"time": 1667, "pitch": 72, "duration": 5, "velocity": 97}, {"time": 1673, "pitch": 73, "duration": 7, "velocity": 93}, {"time": 1685, "pitch": 65, "duration": 5, "velocity": 96}, {"time": 1691, "pitch": 70, "duration": 4, "velocity": 91}, {"time": 1697, "pitch": 72, "duration": 4, "velocity": 94}, {"time": 1703, "pitch": 73, "duration": 5, "velocity": 92}, {"time": 1709, "pitch": 72, "duration": 4, "velocity": 92}, {"time": 1715, "pitch": 70, "duration": 5, "velocity": 94}, {"time": 1721, "pitch": 68, "duration": 39, "velocity": 94}, {"time": 2117, "pitch": 63, "duration": 4, "velocity": 91}, {"time": 2123, "pitch": 63, "duration": 4, "velocity": 95}, {"time": 2129, "pitch": 68, "duration": 4, "velocity": 90}, {"time": 2135, "pitch": 68, "duration": 5, "velocity": 94}, {"time": 2141, "pitch": 70, "duration": 4, "velocity": 92}, {"time": 2147, "pitch": 70, "duration": 4, "velocity": 91}, {"time": 2153, "pitch": 72, "duration": 4, "velocity": 90}, {"time": 2159, "pitch": 72, "duration": 4, "velocity": 96}, {"time": 2165, "pitch": 70, "duration": 5, "velocity": 91}, {"time": 2171, "pitch": 68, "duration": 4, "velocity": 92}, {"time": 2177, "pitch": 70, "duration": 9, "velocity": 92}, {"time": 2189, "pitch": 63, "duration": 4, "velocity": 95}, {"time": 2195, "pitch": 65, "duration": 2, "velocity": 92}, {"time": 2198, "pitch": 67, "duration": 4, "velocity": 90}, {"time": 2204, "pitch": 68, "duration": 18, "velocity": 93}, {"time": 2225, "pitch": 68, "duration": 5, "velocity": 85}, {"time": 2231, "pitch": 68, "duration": 5, "velocity": 85}, {"time": 2237, "pitch": 67, "duration": 4, "velocity": 93}, {"time": 2243, "pitch": 65, "duration": 4, "velocity": 94}, {"time": 2249, "pitch": 63, "duration": 29, "velocity": 93}, {"time": 2285, "pitch": 56, "duration": 4, "velocity": 99}, {"time": 2291, "pitch": 67, "duration": 9, "velocity": 95}, {"time": 2300, "pitch": 68, "duration": 2, "velocity": 88}, {"time": 2303, "pitch": 65, "duration": 15, "velocity": 92}, {"time": 2327, "pitch": 65, "duration": 4, "velocity": 92}, {"time": 2333, "pitch": 67, "duration": 4, "velocity": 90}, {"time": 2339, "pitch": 68, "duration": 4, "velocity": 85}, {"time": 2345, "pitch": 70, "duration": 4, "velocity": 91}, {"time": 2351, "pitch": 70, "duration": 4, "velocity": 94}, {"time": 2357, "pitch": 68, "duration": 12, "velocity": 90}, {"time": 2369, "pitch": 63, "duration": 12, "velocity": 83}, {"time": 2381, "pitch": 63, "duration": 4, "velocity": 97}, {"time": 2387, "pitch": 72, "duration": 3, "velocity": 93}, {"time": 2393, "pitch": 73, "duration": 11, "velocity": 94}, {"time": 2405, "pitch": 70, "duration": 14, "velocity": 91}, {"time": 2420, "pitch": 63, "duration": 2, "velocity": 92}, {"time": 2423, "pitch": 72, "duration": 4, "velocity": 92}, {"time": 2429, "pitch": 73, "duration": 5, "velocity": 91}, {"time": 2435, "pitch": 72, "duration": 4, "velocity": 94}, {"time": 2441, "pitch": 70, "duration": 52, "velocity": 97}, {"time": 2501, "pitch": 72, "duration": 4, "velocity": 94}, {"time": 2507, "pitch": 72, "duration": 4, "velocity": 99}, {"time": 2513, "pitch": 72, "duration": 2, "velocity": 94}, {"time": 2516, "pitch": 73, "duration": 1, "velocity": 86}, {"time": 2519, "pitch": 73, "duration": 4, "velocity": 92}, {"time": 2525, "pitch": 72, "duration": 4, "velocity": 93}, {"time": 2531, "pitch": 70, "duration": 5, "velocity": 94}, {"time": 2537, "pitch": 72, "duration": 7, "velocity": 94}, {"time": 2549, "pitch": 72, "duration": 4, "velocity": 96}, {"time": 2555, "pitch": 72, "duration": 4, "velocity": 95}, {"time": 2561, "pitch": 73, "duration": 4, "velocity": 91}, {"time": 2567, "pitch": 73, "duration": 5, "velocity": 92}, {"time": 2573, "pitch": 72, "duration": 5, "velocity": 94}, {"time": 2579, "pitch": 70, "duration": 5, "velocity": 91}, {"time": 2585, "pitch": 72, "duration": 9, "velocity": 96}, {"time": 2597, "pitch": 72, "duration": 4, "velocity": 101}, {"time": 2603, "pitch": 72, "duration": 4, "velocity": 99}, {"time": 2609, "pitch": 73, "duration": 4, "velocity": 92}, {"time": 2615, "pitch": 75, "duration": 3, "velocity": 101}, {"time": 2621, "pitch": 68, "duration": 5, "velocity": 91}, {"time": 2627, "pitch": 67, "duration": 4, "velocity": 92}, {"time": 2633, "pitch": 68, "duration": 5, "velocity": 91}, {"time": 2639, "pitch": 70, "duration": 5, "velocity": 93}, {"time": 2645, "pitch": 68, "duration": 4, "velocity": 91}, {"time": 2651, "pitch": 70, "duration": 4, "velocity": 92}, {"time": 2657, "pitch": 72, "duration": 4, "velocity": 96}, {"time": 2663, "pitch": 73, "duration": 4, "velocity": 93}, {"time": 2669, "pitch": 72, "duration": 4, "velocity": 101}, {"time": 2675, "pitch": 70, "duration": 4, "velocity": 96}, {"time": 2681, "pitch": 68, "duration": 5, "velocity": 95}, {"time": 2693, "pitch": 65, "duration": 4, "velocity": 106}, {"time": 2699, "pitch": 65, "duration": 4, "velocity": 97}, {"time": 2705, "pitch": 75, "duration": 4, "velocity": 104}, {"time": 2711, "pitch": 75, "duration": 4, "velocity": 106}, {"time": 2717, "pitch": 73, "duration": 4, "velocity": 92}, {"time": 2723, "pitch": 72, "duration": 4, "velocity": 91}, {"time": 2729, "pitch": 73, "duration": 7, "velocity": 94}, {"time": 2741, "pitch": 63, "duration": 4, "velocity": 93}, {"time": 2747, "pitch": 63, "duration": 4, "velocity": 97}, {"time": 2753, "pitch": 75, "duration": 4, "velocity": 101}, {"time": 2759, "pitch": 73, "duration": 4, "velocity": 95}, {"time": 2765, "pitch": 72, "duration": 4, "velocity": 95}, {"time": 2771, "pitch": 70, "duration": 4, "velocity": 94}, {"time": 2777, "pitch": 72, "duration": 6, "velocity": 91}, {"time": 2789, "pitch": 65, "duration": 4, "velocity": 94}, {"time": 2795, "pitch": 65, "duration": 4, "velocity": 97}, {"time": 2801, "pitch": 70, "duration": 5, "velocity": 92}, {"time": 2807, "pitch": 70, "duration": 4, "velocity": 92}, {"time": 2813, "pitch": 72, "duration": 4, "velocity": 92}, {"time": 2819, "pitch": 72, "duration": 5, "velocity": 97}, {"time": 2825, "pitch": 73, "duration": 7, "velocity": 93}, {"time": 2837, "pitch": 65, "duration": 5, "velocity": 96}, {"time": 2843, "pitch": 70, "duration": 4, "velocity": 91}, {"time": 2849, "pitch": 72, "duration": 4, "velocity": 94}, {"time": 2855, "pitch": 73, "duration": 5, "velocity": 92}, {"time": 2861, "pitch": 72, "duration": 4, "velocity": 92}, {"time": 2867, "pitch": 70, "duration": 5, "velocity": 94}, {"time": 2873, "pitch": 68, "duration": 12, "velocity": 94}, {"time": 2885, "pitch": 72, "duration": 4, "velocity": 94}, {"time": 2891, "pitch": 72, "duration": 4, "velocity": 99}, {"time": 2897, "pitch": 72, "duration": 2, "velocity": 94}, {"time": 2900, "pitch": 73, "duration": 1, "velocity": 86}, {"time": 2903, "pitch": 73, "duration": 4, "velocity": 92}, {"time": 2909, "pitch": 72, "duration": 4, "velocity": 93}, {"time": 2915, "pitch": 70, "duration": 5, "velocity": 94}, {"time": 2921, "pitch": 72, "duration": 7, "velocity": 94}, {"time": 2933, "pitch": 72, "duration": 4, "velocity": 96}, {"time": 2939, "pitch": 72, "duration": 4, "velocity": 95}, {"time": 2945, "pitch": 73, "duration": 4, "velocity": 91}, {"time": 2951, "pitch": 73, "duration": 5, "velocity": 92}, {"time": 2957, "pitch": 72, "duration": 5, "velocity": 94}, {"time": 2963, "pitch": 70, "duration": 5, "velocity": 91}, {"time": 2969, "pitch": 72, "duration": 9, "velocity": 96}, {"time": 2981, "pitch": 72, "duration": 4, "velocity": 101}, {"time": 2987, "pitch": 72, "duration": 4, "velocity": 99}, {"time": 2993, "pitch": 73, "duration": 4, "velocity": 92}, {"time": 2999, "pitch": 75, "duration": 3, "velocity": 101}, {"time": 3005, "pitch": 68, "duration": 5, "velocity": 91}, {"time": 3011, "pitch": 67, "duration": 4, "velocity": 92}, {"time": 3017, "pitch": 68, "duration": 5, "velocity": 91}, {"time": 3023, "pitch": 70, "duration": 5, "velocity": 93}, {"time": 3029, "pitch": 68, "duration": 4, "velocity": 91}, {"time": 3035, "pitch": 70, "duration": 4, "velocity": 92}, {"time": 3041, "pitch": 72, "duration": 4, "velocity": 96}, {"time": 3047, "pitch": 73, "duration": 4, "velocity": 93}, {"time": 3053, "pitch": 72, "duration": 4, "velocity": 101}, {"time": 3059, "pitch": 70, "duration": 4, "velocity": 96}, {"time": 3065, "pitch": 68, "duration": 5, "velocity": 95}, {"time": 3077, "pitch": 65, "duration": 4, "velocity": 106}, {"time": 3083, "pitch": 65, "duration": 4, "velocity": 97}, {"time": 3089, "pitch": 75, "duration": 4, "velocity": 104}, {"time": 3095, "pitch": 75, "duration": 4, "velocity": 106}, {"time": 3101, "pitch": 73, "duration": 4, "velocity": 92}, {"time": 3107, "pitch": 72, "duration": 4, "velocity": 91}, {"time": 3113, "pitch": 73, "duration": 7, "velocity": 94}, {"time": 3125, "pitch": 63, "duration": 4, "velocity": 93}, {"time": 3131, "pitch": 63, "duration": 4, "velocity": 97}, {"time": 3137, "pitch": 75, "duration": 4, "velocity": 101}, {"time": 3143, "pitch": 73, "duration": 4, "velocity": 95}, {"time": 3149, "pitch": 72, "duration": 4, "velocity": 95}, {"time": 3155, "pitch": 70, "duration": 4, "velocity": 94}, {"time": 3161, "pitch": 72, "duration": 6, "velocity": 91}, {"time": 3173, "pitch": 65, "duration": 4, "velocity": 94}, {"time": 3179, "pitch": 65, "duration": 4, "velocity": 97}, {"time": 3185, "pitch": 70, "duration": 5, "velocity": 92}, {"time": 3191, "pitch": 70, "duration": 4, "velocity": 92}, {"time": 3197, "pitch": 72, "duration": 4, "velocity": 92}, {"time": 3203, "pitch": 72, "duration": 5, "velocity": 97}, {"time": 3209, "pitch": 73, "duration": 7, "velocity": 93}, {"time": 3221, "pitch": 65, "duration": 5, "velocity": 96}, {"time": 3227, "pitch": 70, "duration": 4, "velocity": 91}, {"time": 3233, "pitch": 72, "duration": 4, "velocity": 94}, {"time": 3239, "pitch": 73, "duration": 5, "velocity": 92}, {"time": 3245, "pitch": 72, "duration": 4, "velocity": 92}, {"time": 3251, "pitch": 70, "duration": 5, "velocity": 94}, {"time": 3257, "pitch": 68, "duration": 39, "velocity": 94}, {"time": 3377, "pitch": 73, "duration": 4, "velocity": 94}, {"time": 3383, "pitch": 73, "duration": 4, "velocity": 99}, {"time": 3389, "pitch": 73, "duration": 2, "velocity": 94}, {"time": 3392, "pitch": 74, "duration": 1, "velocity": 86}, {"time": 3395, "pitch": 74, "duration": 4, "velocity": 92}, {"time": 3401, "pitch": 73, "duration": 4, "velocity": 93}, {"time": 3407, "pitch": 71, "duration": 5, "velocity": 94}, {"time": 3413, "pitch": 73, "duration": 7, "velocity": 94}, {"time": 3425, "pitch": 73, "duration": 4, "velocity": 96}, {"time": 3431, "pitch": 73, "duration": 4, "velocity": 95}, {"time": 3437, "pitch": 74, "duration": 4, "velocity": 91}, {"time": 3443, "pitch": 74, "duration": 5, "velocity": 92}, {"time": 3449, "pitch": 73, "duration": 5, "velocity": 94}, {"time": 3455, "pitch": 71, "duration": 5, "velocity": 91}, {"time": 3461, "pitch": 73, "duration": 9, "velocity": 96}, {"time": 3473, "pitch": 73, "duration": 4, "velocity": 101}, {"time": 3479, "pitch": 73, "duration": 4, "velocity": 99}, {"time": 3485, "pitch": 74, "duration": 4, "velocity": 92}, {"time": 3491, "pitch": 76, "duration": 3, "velocity": 101}, {"time": 3497, "pitch": 69, "duration": 5, "velocity": 91}, {"time": 3503, "pitch": 68, "duration": 4, "velocity": 92}, {"time": 3509, "pitch": 69, "duration": 5, "velocity": 91}, {"time": 3515, "pitch": 71, "duration": 5, "velocity": 93}, {"time": 3521, "pitch": 69, "duration": 4, "velocity": 91}, {"time": 3527, "pitch": 71, "duration": 4, "velocity": 92}, {"time": 3533, "pitch": 73, "duration": 4, "velocity": 96}, {"time": 3539, "pitch": 74, "duration": 4, "velocity": 93}, {"time": 3545, "pitch": 73, "duration": 4, "velocity": 101}, {"time": 3551, "pitch": 71, "duration": 4, "velocity": 96}, {"time": 3557, "pitch": 69, "duration": 5, "velocity": 95}, {"time": 3569, "pitch": 66, "duration": 4, "velocity": 106}, {"time": 3575, "pitch": 66, "duration": 4, "velocity": 97}, {"time": 3581, "pitch": 76, "duration": 4, "velocity": 104}, {"time": 3587, "pitch": 76, "duration": 4, "velocity": 106}, {"time": 3593, "pitch": 74, "duration": 4, "velocity": 92}, {"time": 3599, "pitch": 73, "duration": 4, "velocity": 91}, {"time": 3605, "pitch": 74, "duration": 7, "velocity": 94}, {"time": 3617, "pitch": 64, "duration": 4, "velocity": 93}, {"time": 3623, "pitch": 64, "duration": 4, "velocity": 97}, {"time": 3629, "pitch": 76, "duration": 4, "velocity": 101}, {"time": 3635, "pitch": 74, "duration": 4, "velocity": 95}, {"time": 3641, "pitch": 73, "duration": 4, "velocity": 95}, {"time": 3647, "pitch": 71, "duration": 4, "velocity": 94}, {"time": 3653, "pitch": 73, "duration": 6, "velocity": 91}, {"time": 3665, "pitch": 66, "duration": 4, "velocity": 94}, {"time": 3671, "pitch": 66, "duration": 4, "velocity": 97}, {"time": 3677, "pitch": 71, "duration": 5, "velocity": 92}, {"time": 3683, "pitch": 71, "duration": 4, "velocity": 92}, {"time": 3689, "pitch": 73, "duration": 4, "velocity": 92}, {"time": 3695, "pitch": 73, "duration": 5, "velocity": 97}, {"time": 3701, "pitch": 74, "duration": 7, "velocity": 93}, {"time": 3713, "pitch": 66, "duration": 5, "velocity": 96}, {"time": 3719, "pitch": 71, "duration": 4, "velocity": 91}, {"time": 3725, "pitch": 73, "duration": 4, "velocity": 94}, {"time": 3731, "pitch": 74, "duration": 5, "velocity": 92}, {"time": 3737, "pitch": 73, "duration": 4, "velocity": 92}, {"time": 3743, "pitch": 71, "duration": 5, "velocity": 94}, {"time": 3749, "pitch": 69, "duration": 12, "velocity": 94}, {"time": 3761, "pitch": 73, "duration": 4, "velocity": 94}, {"time": 3767, "pitch": 73, "duration": 4, "velocity": 99}, {"time": 3773, "pitch": 73, "duration": 2, "velocity": 94}, {"time": 3776, "pitch": 74, "duration": 1, "velocity": 86}, {"time": 3779, "pitch": 74, "duration": 4, "velocity": 92}, {"time": 3785, "pitch": 73, "duration": 4, "velocity": 93}, {"time": 3791, "pitch": 71, "duration": 5, "velocity": 94}, {"time": 3797, "pitch": 73, "duration": 7, "velocity": 94}, {"time": 3809, "pitch": 73, "duration": 4, "velocity": 96}, {"time": 3815, "pitch": 73, "duration": 4, "velocity": 95}, {"time": 3821, "pitch": 74, "duration": 4, "velocity": 91}, {"time": 3827, "pitch": 74, "duration": 5, "velocity": 92}, {"time": 3833, "pitch": 73, "duration": 5, "velocity": 94}, {"time": 3839, "pitch": 71, "duration": 5, "velocity": 91}, {"time": 3845, "pitch": 73, "duration": 9, "velocity": 96}, {"time": 3857, "pitch": 73, "duration": 4, "velocity": 101}, {"time": 3863, "pitch": 73, "duration": 4, "velocity": 99}, {"time": 3869, "pitch": 74, "duration": 4, "velocity": 92}, {"time": 3875, "pitch": 76, "duration": 3, "velocity": 101}, {"time": 3881, "pitch": 69, "duration": 5, "velocity": 91}, {"time": 3887, "pitch": 68, "duration": 4, "velocity": 92}, {"time": 3893, "pitch": 69, "duration": 5, "velocity": 91}, {"time": 3899, "pitch": 71, "duration": 5, "velocity": 93}, {"time": 3905, "pitch": 69, "duration": 4, "velocity": 91}, {"time": 3911, "pitch": 71, "duration": 4, "velocity": 92}, {"time": 3917, "pitch": 73, "duration": 4, "velocity": 96}, {"time": 3923, "pitch": 74, "duration": 4, "velocity": 93}, {"time": 3929, "pitch": 73, "duration": 4, "velocity": 101}, {"time": 3935, "pitch": 71, "duration": 4, "velocity": 96}, {"time": 3941, "pitch": 69, "duration": 5, "velocity": 95}, {"time": 3953, "pitch": 66, "duration": 4, "velocity": 106}, {"time": 3959, "pitch": 66, "duration": 4, "velocity": 97}, {"time": 3965, "pitch": 76, "duration": 4, "velocity": 104}, {"time": 3971, "pitch": 76, "duration": 4, "velocity": 106}, {"time": 3977, "pitch": 74, "duration": 4, "velocity": 92}, {"time": 3983, "pitch": 73, "duration": 4, "velocity": 91}, {"time": 3989, "pitch": 74, "duration": 7, "velocity": 94}, {"time": 4001, "pitch": 64, "duration": 4, "velocity": 93}, {"time": 4007, "pitch": 64, "duration": 4, "velocity": 97}, {"time": 4013, "pitch": 76, "duration": 4, "velocity": 101}, {"time": 4019, "pitch": 74, "duration": 4, "velocity": 95}, {"time": 4025, "pitch": 73, "duration": 4, "velocity": 95}, {"time": 4031, "pitch": 71, "duration": 4, "velocity": 94}, {"time": 4037, "pitch": 73, "duration": 6, "velocity": 91}, {"time": 4049, "pitch": 66, "duration": 4, "velocity": 94}, {"time": 4055, "pitch": 66, "duration": 4, "velocity": 97}, {"time": 4061, "pitch": 71, "duration": 5, "velocity": 92}, {"time": 4067, "pitch": 71, "duration": 4, "velocity": 92}, {"time": 4073, "pitch": 73, "duration": 4, "velocity": 92}, {"time": 4079, "pitch": 73, "duration": 5, "velocity": 97}, {"time": 4085, "pitch": 74, "duration": 7, "velocity": 93}, {"time": 4097, "pitch": 66, "duration": 5, "velocity": 96}, {"time": 4103, "pitch": 74, "duration": 4, "velocity": 91}, {"time": 4109, "pitch": 73, "duration": 4, "velocity": 94}, {"time": 4115, "pitch": 71, "duration": 5, "velocity": 92}, {"time": 4121, "pitch": 69, "duration": 15, "velocity": 92}, {"time": 4145, "pitch": 68, "duration": 6, "velocity": 82}, {"time": 4151, "pitch": 69, "duration": 36, "velocity": 91}]}, {"program": 0, "is_drum": false, "name": "BRIDGE", "notes": [{"time": 197, "pitch": 72, "duration": 4, "velocity": 94}, {"time": 203, "pitch": 72, "duration": 4, "velocity": 96}, {"time": 209, "pitch": 73, "duration": 4, "velocity": 93}, {"time": 215, "pitch": 73, "duration": 5, "velocity": 95}, {"time": 221, "pitch": 72, "duration": 5, "velocity": 99}, {"time": 227, "pitch": 70, "duration": 4, "velocity": 92}, {"time": 233, "pitch": 68, "duration": 10, "velocity": 92}, {"time": 245, "pitch": 72, "duration": 4, "velocity": 92}, {"time": 251, "pitch": 72, "duration": 4, "velocity": 92}, {"time": 257, "pitch": 73, "duration": 4, "velocity": 91}, {"time": 263, "pitch": 73, "duration": 4, "velocity": 92}, {"time": 269, "pitch": 72, "duration": 4, "velocity": 92}, {"time": 275, "pitch": 70, "duration": 5, "velocity": 96}, {"time": 281, "pitch": 68, "duration": 9, "velocity": 92}, {"time": 293, "pitch": 72, "duration": 4, "velocity": 82}, {"time": 299, "pitch": 72, "duration": 4, "velocity": 94}, {"time": 305, "pitch": 73, "duration": 4, "velocity": 91}, {"time": 311, "pitch": 73, "duration": 5, "velocity": 92}, {"time": 317, "pitch": 72, "duration": 4, "velocity": 95}, {"time": 323, "pitch": 70, "duration": 4, "velocity": 94}, {"time": 329, "pitch": 68, "duration": 5, "velocity": 93}, {"time": 335, "pitch": 70, "duration": 5, "velocity": 90}, {"time": 341, "pitch": 68, "duration": 5, "velocity": 90}, {"time": 347, "pitch": 70, "duration": 4, "velocity": 91}, {"time": 353, "pitch": 72, "duration": 4, "velocity": 90}, {"time": 359, "pitch": 73, "duration": 4, "velocity": 90}, {"time": 365, "pitch": 72, "duration": 5, "velocity": 93}, {"time": 371, "pitch": 70, "duration": 5, "velocity": 91}, {"time": 377, "pitch": 68, "duration": 10, "velocity": 92}, {"time": 389, "pitch": 72, "duration": 4, "velocity": 94}, {"time": 395, "pitch": 72, "duration": 4, "velocity": 92}, {"time": 401, "pitch": 73, "duration": 4, "velocity": 90}, {"time": 407, "pitch": 73, "duration": 5, "velocity": 92}, {"time": 413, "pitch": 72, "duration": 5, "velocity": 93}, {"time": 419, "pitch": 70, "duration": 5, "velocity": 92}, {"time": 425, "pitch": 68, "duration": 12, "velocity": 91}, {"time": 437, "pitch": 63, "duration": 4, "velocity": 90}, {"time": 443, "pitch": 63, "duration": 4, "velocity": 92}, {"time": 449, "pitch": 68, "duration": 4, "velocity": 90}, {"time": 455, "pitch": 68, "duration": 6, "velocity": 92}, {"time": 461, "pitch": 68, "duration": 6, "velocity": 84}, {"time": 467, "pitch": 67, "duration": 5, "velocity": 90}, {"time": 473, "pitch": 68, "duration": 12, "velocity": 86}, {"time": 485, "pitch": 65, "duration": 4, "velocity": 91}, {"time": 491, "pitch": 65, "duration": 4, "velocity": 94}, {"time": 497, "pitch": 70, "duration": 4, "velocity": 90}, {"time": 503, "pitch": 70, "duration": 4, "velocity": 93}, {"time": 509, "pitch": 72, "duration": 4, "velocity": 90}, {"time": 515, "pitch": 72, "duration": 4, "velocity": 91}, {"time": 521, "pitch": 73, "duration": 10, "velocity": 90}, {"time": 533, "pitch": 63, "duration": 5, "velocity": 90}, {"time": 539, "pitch": 70, "duration": 5, "velocity": 90}, {"time": 545, "pitch": 72, "duration": 5, "velocity": 90}, {"time": 551, "pitch": 73, "duration": 5, "velocity": 89}, {"time": 557, "pitch": 72, "duration": 7, "velocity": 91}, {"time": 563, "pitch": 70, "duration": 6, "velocity": 90}, {"time": 569, "pitch": 68, "duration": 19, "velocity": 88}, {"time": 959, "pitch": 63, "duration": 46, "velocity": 79}, {"time": 959, "pitch": 68, "duration": 46, "velocity": 80}, {"time": 1007, "pitch": 67, "duration": 47, "velocity": 82}, {"time": 1055, "pitch": 68, "duration": 36, "velocity": 83}, {"time": 1091, "pitch": 65, "duration": 7, "velocity": 86}, {"time": 1097, "pitch": 68, "duration": 7, "velocity": 82}, {"time": 1103, "pitch": 67, "duration": 35, "velocity": 83}, {"time": 1139, "pitch": 63, "duration": 13, "velocity": 83}, {"time": 1151, "pitch": 65, "duration": 34, "velocity": 90}, {"time": 1187, "pitch": 65, "duration": 12, "velocity": 91}, {"time": 1199, "pitch": 63, "duration": 40, "velocity": 85}, {"time": 1247, "pitch": 61, "duration": 35, "velocity": 91}, {"time": 1283, "pitch": 60, "duration": 8, "velocity": 83}, {"time": 1289, "pitch": 61, "duration": 6, "velocity": 86}, {"time": 1295, "pitch": 63, "duration": 24, "velocity": 85}, {"time": 1319, "pitch": 80, "duration": 13, "velocity": 93}, {"time": 1331, "pitch": 82, "duration": 12, "velocity": 94}, {"time": 1343, "pitch": 87, "duration": 48, "velocity": 92}, {"time": 1469, "pitch": 80, "duration": 7, "velocity": 89}, {"time": 1475, "pitch": 79, "duration": 6, "velocity": 91}, {"time": 1481, "pitch": 80, "duration": 6, "velocity": 92}, {"time": 1487, "pitch": 82, "duration": 13, "velocity": 90}, {"time": 1499, "pitch": 84, "duration": 12, "velocity": 101}, {"time": 1511, "pitch": 85, "duration": 6, "velocity": 95}, {"time": 1517, "pitch": 84, "duration": 6, "velocity": 93}, {"time": 1523, "pitch": 82, "duration": 7, "velocity": 84}, {"time": 1529, "pitch": 84, "duration": 5, "velocity": 90}, {"time": 1535, "pitch": 92, "duration": 30, "velocity": 85}, {"time": 1571, "pitch": 91, "duration": 6, "velocity": 90}, {"time": 1577, "pitch": 92, "duration": 6, "velocity": 91}, {"time": 1583, "pitch": 87, "duration": 24, "velocity": 90}, {"time": 1607, "pitch": 85, "duration": 6, "velocity": 89}, {"time": 1613, "pitch": 84, "duration": 6, "velocity": 87}, {"time": 1619, "pitch": 82, "duration": 7, "velocity": 86}, {"time": 1625, "pitch": 84, "duration": 6, "velocity": 91}, {"time": 1631, "pitch": 85, "duration": 48, "velocity": 91}, {"time": 1733, "pitch": 72, "duration": 4, "velocity": 94}, {"time": 1739, "pitch": 72, "duration": 4, "velocity": 96}, {"time": 1745, "pitch": 73, "duration": 4, "velocity": 93}, {"time": 1751, "pitch": 73, "duration": 5, "velocity": 95}, {"time": 1757, "pitch": 72, "duration": 5, "velocity": 99}, {"time": 1763, "pitch": 70, "duration": 4, "velocity": 92}, {"time": 1769, "pitch": 68, "duration": 10, "velocity": 92}, {"time": 1781, "pitch": 72, "duration": 4, "velocity": 92}, {"time": 1787, "pitch": 72, "duration": 4, "velocity": 92}, {"time": 1793, "pitch": 73, "duration": 4, "velocity": 91}, {"time": 1799, "pitch": 73, "duration": 4, "velocity": 92}, {"time": 1805, "pitch": 72, "duration": 4, "velocity": 92}, {"time": 1811, "pitch": 70, "duration": 5, "velocity": 96}, {"time": 1817, "pitch": 68, "duration": 9, "velocity": 92}, {"time": 1829, "pitch": 72, "duration": 4, "velocity": 82}, {"time": 1835, "pitch": 72, "duration": 4, "velocity": 94}, {"time": 1841, "pitch": 73, "duration": 4, "velocity": 91}, {"time": 1847, "pitch": 73, "duration": 5, "velocity": 92}, {"time": 1853, "pitch": 72, "duration": 4, "velocity": 95}, {"time": 1859, "pitch": 70, "duration": 4, "velocity": 94}, {"time": 1865, "pitch": 68, "duration": 5, "velocity": 93}, {"time": 1871, "pitch": 70, "duration": 5, "velocity": 90}, {"time": 1877, "pitch": 68, "duration": 5, "velocity": 90}, {"time": 1883, "pitch": 70, "duration": 4, "velocity": 91}, {"time": 1889, "pitch": 72, "duration": 4, "velocity": 90}, {"time": 1895, "pitch": 73, "duration": 4, "velocity": 90}, {"time": 1901, "pitch": 72, "duration": 5, "velocity": 93}, {"time": 1901, "pitch": 80, "duration": 3, "velocity": 91}, {"time": 1904, "pitch": 79, "duration": 3, "velocity": 92}, {"time": 1907, "pitch": 70, "duration": 5, "velocity": 91}, {"time": 1907, "pitch": 80, "duration": 3, "velocity": 92}, {"time": 1910, "pitch": 82, "duration": 3, "velocity": 84}, {"time": 1913, "pitch": 68, "duration": 10, "velocity": 92}, {"time": 1913, "pitch": 84, "duration": 4, "velocity": 85}, {"time": 1916, "pitch": 85, "duration": 4, "velocity": 91}, {"time": 1919, "pitch": 87, "duration": 30, "velocity": 95}, {"time": 1949, "pitch": 72, "duration": 3, "velocity": 91}, {"time": 1949, "pitch": 84, "duration": 3, "velocity": 91}, {"time": 1952, "pitch": 73, "duration": 3, "velocity": 94}, {"time": 1952, "pitch": 85, "duration": 3, "velocity": 94}, {"time": 1955, "pitch": 75, "duration": 4, "velocity": 93}, {"time": 1955, "pitch": 87, "duration": 4, "velocity": 93}, {"time": 1961, "pitch": 79, "duration": 2, "velocity": 104}, {"time": 1961, "pitch": 91, "duration": 2, "velocity": 104}, {"time": 1964, "pitch": 80, "duration": 3, "velocity": 91}, {"time": 1964, "pitch": 92, "duration": 3, "velocity": 91}, {"time": 1967, "pitch": 79, "duration": 5, "velocity": 106}, {"time": 1967, "pitch": 91, "duration": 5, "velocity": 106}, {"time": 1973, "pitch": 75, "duration": 20, "velocity": 97}, {"time": 1973, "pitch": 87, "duration": 20, "velocity": 97}, {"time": 1991, "pitch": 73, "duration": 6, "velocity": 95}, {"time": 1991, "pitch": 85, "duration": 6, "velocity": 95}, {"time": 1997, "pitch": 72, "duration": 7, "velocity": 92}, {"time": 1997, "pitch": 84, "duration": 7, "velocity": 92}, {"time": 2003, "pitch": 70, "duration": 6, "velocity": 94}, {"time": 2003, "pitch": 82, "duration": 6, "velocity": 94}, {"time": 2009, "pitch": 72, "duration": 7, "velocity": 104}, {"time": 2009, "pitch": 84, "duration": 7, "velocity": 104}, {"time": 2021, "pitch": 65, "duration": 5, "velocity": 97}, {"time": 2021, "pitch": 77, "duration": 5, "velocity": 97}, {"time": 2027, "pitch": 65, "duration": 5, "velocity": 101}, {"time": 2027, "pitch": 77, "duration": 5, "velocity": 101}, {"time": 2033, "pitch": 70, "duration": 4, "velocity": 92}, {"time": 2033, "pitch": 82, "duration": 4, "velocity": 92}, {"time": 2039, "pitch": 70, "duration": 5, "velocity": 91}, {"time": 2039, "pitch": 82, "duration": 5, "velocity": 91}, {"time": 2045, "pitch": 72, "duration": 4, "velocity": 97}, {"time": 2045, "pitch": 84, "duration": 4, "velocity": 97}, {"time": 2051, "pitch": 72, "duration": 4, "velocity": 91}, {"time": 2051, "pitch": 84, "duration": 4, "velocity": 91}, {"time": 2057, "pitch": 73, "duration": 6, "velocity": 92}, {"time": 2057, "pitch": 85, "duration": 6, "velocity": 92}, {"time": 2069, "pitch": 63, "duration": 4, "velocity": 106}, {"time": 2069, "pitch": 75, "duration": 4, "velocity": 106}, {"time": 2075, "pitch": 70, "duration": 5, "velocity": 97}, {"time": 2075, "pitch": 82, "duration": 5, "velocity": 97}, {"time": 2081, "pitch": 72, "duration": 4, "velocity": 104}, {"time": 2081, "pitch": 84, "duration": 4, "velocity": 104}, {"time": 2087, "pitch": 73, "duration": 6, "velocity": 92}, {"time": 2087, "pitch": 85, "duration": 6, "velocity": 92}, {"time": 2093, "pitch": 72, "duration": 5, "velocity": 95}, {"time": 2093, "pitch": 84, "duration": 5, "velocity": 95}, {"time": 2099, "pitch": 70, "duration": 6, "velocity": 93}, {"time": 2099, "pitch": 82, "duration": 6, "velocity": 93}, {"time": 2105, "pitch": 68, "duration": 18, "velocity": 96}, {"time": 2105, "pitch": 80, "duration": 18, "velocity": 96}, {"time": 2111, "pitch": 63, "duration": 46, "velocity": 79}, {"time": 2111, "pitch": 68, "duration": 12, "velocity": 80}, {"time": 2159, "pitch": 67, "duration": 47, "velocity": 82}, {"time": 2207, "pitch": 68, "duration": 36, "velocity": 83}, {"time": 2243, "pitch": 65, "duration": 7, "velocity": 86}, {"time": 2249, "pitch": 68, "duration": 7, "velocity": 82}, {"time": 2255, "pitch": 67, "duration": 35, "velocity": 83}, {"time": 2291, "pitch": 63, "duration": 13, "velocity": 83}, {"time": 2303, "pitch": 65, "duration": 34, "velocity": 90}, {"time": 2339, "pitch": 65, "duration": 12, "velocity": 91}, {"time": 2351, "pitch": 63, "duration": 40, "velocity": 85}, {"time": 2399, "pitch": 61, "duration": 35, "velocity": 91}, {"time": 2435, "pitch": 60, "duration": 8, "velocity": 83}, {"time": 2441, "pitch": 61, "duration": 6, "velocity": 86}, {"time": 2447, "pitch": 63, "duration": 24, "velocity": 85}, {"time": 2471, "pitch": 80, "duration": 13, "velocity": 93}, {"time": 2483, "pitch": 82, "duration": 12, "velocity": 94}, {"time": 2495, "pitch": 84, "duration": 18, "velocity": 97}, {"time": 2513, "pitch": 85, "duration": 4, "velocity": 104}, {"time": 2519, "pitch": 85, "duration": 5, "velocity": 90}, {"time": 2525, "pitch": 84, "duration": 5, "velocity": 106}, {"time": 2531, "pitch": 82, "duration": 5, "velocity": 95}, {"time": 2537, "pitch": 84, "duration": 23, "velocity": 101}, {"time": 2561, "pitch": 85, "duration": 4, "velocity": 99}, {"time": 2567, "pitch": 85, "duration": 5, "velocity": 104}, {"time": 2573, "pitch": 84, "duration": 6, "velocity": 97}, {"time": 2579, "pitch": 82, "duration": 6, "velocity": 97}, {"time": 2585, "pitch": 84, "duration": 11, "velocity": 99}, {"time": 2597, "pitch": 84, "duration": 4, "velocity": 99}, {"time": 2603, "pitch": 84, "duration": 4, "velocity": 97}, {"time": 2609, "pitch": 85, "duration": 6, "velocity": 101}, {"time": 2615, "pitch": 87, "duration": 5, "velocity": 97}, {"time": 2621, "pitch": 80, "duration": 7, "velocity": 94}, {"time": 2627, "pitch": 79, "duration": 6, "velocity": 95}, {"time": 2633, "pitch": 80, "duration": 6, "velocity": 94}, {"time": 2639, "pitch": 82, "duration": 5, "velocity": 88}, {"time": 2645, "pitch": 80, "duration": 6, "velocity": 94}, {"time": 2651, "pitch": 82, "duration": 6, "velocity": 94}, {"time": 2657, "pitch": 84, "duration": 5, "velocity": 101}, {"time": 2663, "pitch": 85, "duration": 5, "velocity": 97}, {"time": 2669, "pitch": 84, "duration": 5, "velocity": 101}, {"time": 2675, "pitch": 82, "duration": 5, "velocity": 95}, {"time": 2681, "pitch": 80, "duration": 8, "velocity": 99}, {"time": 2699, "pitch": 87, "duration": 22, "velocity": 95}, {"time": 2723, "pitch": 91, "duration": 4, "velocity": 107}, {"time": 2729, "pitch": 92, "duration": 5, "velocity": 101}, {"time": 2735, "pitch": 87, "duration": 30, "velocity": 101}, {"time": 2765, "pitch": 92, "duration": 7, "velocity": 93}, {"time": 2771, "pitch": 91, "duration": 7, "velocity": 95}, {"time": 2777, "pitch": 92, "duration": 6, "velocity": 91}, {"time": 2783, "pitch": 89, "duration": 21, "velocity": 92}, {"time": 2813, "pitch": 77, "duration": 6, "velocity": 85}, {"time": 2819, "pitch": 79, "duration": 5, "velocity": 92}, {"time": 2825, "pitch": 80, "duration": 4, "velocity": 95}, {"time": 2831, "pitch": 80, "duration": 16, "velocity": 96}, {"time": 2837, "pitch": 75, "duration": 4, "velocity": 107}, {"time": 2843, "pitch": 82, "duration": 4, "velocity": 94}, {"time": 2849, "pitch": 84, "duration": 4, "velocity": 99}, {"time": 2855, "pitch": 85, "duration": 5, "velocity": 97}, {"time": 2861, "pitch": 84, "duration": 5, "velocity": 101}, {"time": 2867, "pitch": 82, "duration": 5, "velocity": 94}, {"time": 2873, "pitch": 80, "duration": 6, "velocity": 97}, {"time": 2879, "pitch": 84, "duration": 18, "velocity": 97}, {"time": 2897, "pitch": 85, "duration": 4, "velocity": 104}, {"time": 2903, "pitch": 85, "duration": 5, "velocity": 90}, {"time": 2909, "pitch": 84, "duration": 5, "velocity": 106}, {"time": 2915, "pitch": 82, "duration": 5, "velocity": 95}, {"time": 2921, "pitch": 84, "duration": 23, "velocity": 101}, {"time": 2945, "pitch": 85, "duration": 4, "velocity": 99}, {"time": 2951, "pitch": 85, "duration": 5, "velocity": 104}, {"time": 2957, "pitch": 84, "duration": 6, "velocity": 97}, {"time": 2963, "pitch": 82, "duration": 6, "velocity": 97}, {"time": 2969, "pitch": 84, "duration": 11, "velocity": 99}, {"time": 2981, "pitch": 84, "duration": 4, "velocity": 99}, {"time": 2987, "pitch": 84, "duration": 4, "velocity": 97}, {"time": 2993, "pitch": 85, "duration": 6, "velocity": 101}, {"time": 2999, "pitch": 87, "duration": 5, "velocity": 97}, {"time": 3005, "pitch": 80, "duration": 7, "velocity": 94}, {"time": 3011, "pitch": 79, "duration": 6, "velocity": 95}, {"time": 3017, "pitch": 80, "duration": 6, "velocity": 94}, {"time": 3023, "pitch": 82, "duration": 5, "velocity": 88}, {"time": 3029, "pitch": 80, "duration": 6, "velocity": 94}, {"time": 3035, "pitch": 82, "duration": 6, "velocity": 94}, {"time": 3041, "pitch": 84, "duration": 5, "velocity": 101}, {"time": 3047, "pitch": 85, "duration": 5, "velocity": 97}, {"time": 3053, "pitch": 84, "duration": 5, "velocity": 101}, {"time": 3059, "pitch": 82, "duration": 5, "velocity": 95}, {"time": 3065, "pitch": 80, "duration": 8, "velocity": 99}, {"time": 3083, "pitch": 87, "duration": 22, "velocity": 95}, {"time": 3107, "pitch": 91, "duration": 4, "velocity": 107}, {"time": 3113, "pitch": 92, "duration": 5, "velocity": 101}, {"time": 3119, "pitch": 87, "duration": 30, "velocity": 101}, {"time": 3149, "pitch": 92, "duration": 7, "velocity": 93}, {"time": 3155, "pitch": 91, "duration": 7, "velocity": 95}, {"time": 3161, "pitch": 92, "duration": 6, "velocity": 91}, {"time": 3167, "pitch": 89, "duration": 21, "velocity": 92}, {"time": 3197, "pitch": 77, "duration": 6, "velocity": 85}, {"time": 3203, "pitch": 79, "duration": 5, "velocity": 92}, {"time": 3209, "pitch": 80, "duration": 4, "velocity": 95}, {"time": 3215, "pitch": 80, "duration": 16, "velocity": 96}, {"time": 3221, "pitch": 75, "duration": 4, "velocity": 107}, {"time": 3227, "pitch": 82, "duration": 4, "velocity": 94}, {"time": 3233, "pitch": 84, "duration": 4, "velocity": 99}, {"time": 3239, "pitch": 85, "duration": 5, "velocity": 97}, {"time": 3245, "pitch": 84, "duration": 5, "velocity": 101}, {"time": 3251, "pitch": 82, "duration": 5, "velocity": 94}, {"time": 3257, "pitch": 80, "duration": 6, "velocity": 97}, {"time": 3263, "pitch": 80, "duration": 1, "velocity": 96}, {"time": 3269, "pitch": 75, "duration": 3, "velocity": 107}, {"time": 3275, "pitch": 79, "duration": 3, "velocity": 104}, {"time": 3281, "pitch": 80, "duration": 3, "velocity": 97}, {"time": 3287, "pitch": 82, "duration": 1, "velocity": 101}, {"time": 3290, "pitch": 75, "duration": 2, "velocity": 104}, {"time": 3293, "pitch": 82, "duration": 1, "velocity": 99}, {"time": 3296, "pitch": 84, "duration": 2, "velocity": 97}, {"time": 3299, "pitch": 85, "duration": 3, "velocity": 97}, {"time": 3302, "pitch": 84, "duration": 2, "velocity": 101}, {"time": 3305, "pitch": 82, "duration": 4, "velocity": 116}, {"time": 3311, "pitch": 81, "duration": 2, "velocity": 95}, {"time": 3314, "pitch": 76, "duration": 1, "velocity": 101}, {"time": 3317, "pitch": 78, "duration": 2, "velocity": 97}, {"time": 3320, "pitch": 80, "duration": 1, "velocity": 97}, {"time": 3323, "pitch": 81, "duration": 2, "velocity": 101}, {"time": 3329, "pitch": 81, "duration": 2, "velocity": 99}, {"time": 3330, "pitch": 83, "duration": 3, "velocity": 83}, {"time": 3332, "pitch": 85, "duration": 2, "velocity": 84}, {"time": 3333, "pitch": 86, "duration": 2, "velocity": 87}, {"time": 3335, "pitch": 88, "duration": 36, "velocity": 97}, {"time": 3371, "pitch": 85, "duration": 18, "velocity": 97}, {"time": 3389, "pitch": 86, "duration": 4, "velocity": 104}, {"time": 3395, "pitch": 86, "duration": 5, "velocity": 90}, {"time": 3401, "pitch": 85, "duration": 5, "velocity": 106}, {"time": 3407, "pitch": 83, "duration": 5, "velocity": 95}, {"time": 3413, "pitch": 85, "duration": 23, "velocity": 101}, {"time": 3437, "pitch": 86, "duration": 4, "velocity": 99}, {"time": 3443, "pitch": 86, "duration": 5, "velocity": 104}, {"time": 3449, "pitch": 85, "duration": 6, "velocity": 97}, {"time": 3455, "pitch": 83, "duration": 6, "velocity": 97}, {"time": 3461, "pitch": 85, "duration": 11, "velocity": 99}, {"time": 3473, "pitch": 85, "duration": 4, "velocity": 99}, {"time": 3479, "pitch": 85, "duration": 4, "velocity": 97}, {"time": 3485, "pitch": 86, "duration": 6, "velocity": 101}, {"time": 3491, "pitch": 88, "duration": 5, "velocity": 97}, {"time": 3497, "pitch": 81, "duration": 7, "velocity": 94}, {"time": 3503, "pitch": 80, "duration": 6, "velocity": 95}, {"time": 3509, "pitch": 81, "duration": 6, "velocity": 94}, {"time": 3515, "pitch": 83, "duration": 5, "velocity": 88}, {"time": 3521, "pitch": 81, "duration": 6, "velocity": 94}, {"time": 3527, "pitch": 83, "duration": 6, "velocity": 94}, {"time": 3533, "pitch": 85, "duration": 5, "velocity": 101}, {"time": 3539, "pitch": 86, "duration": 5, "velocity": 97}, {"time": 3545, "pitch": 85, "duration": 5, "velocity": 101}, {"time": 3551, "pitch": 83, "duration": 5, "velocity": 95}, {"time": 3557, "pitch": 81, "duration": 8, "velocity": 99}, {"time": 3575, "pitch": 88, "duration": 22, "velocity": 95}, {"time": 3599, "pitch": 92, "duration": 4, "velocity": 107}, {"time": 3605, "pitch": 93, "duration": 5, "velocity": 101}, {"time": 3611, "pitch": 88, "duration": 30, "velocity": 101}, {"time": 3641, "pitch": 93, "duration": 7, "velocity": 93}, {"time": 3647, "pitch": 92, "duration": 7, "velocity": 95}, {"time": 3653, "pitch": 93, "duration": 6, "velocity": 91}, {"time": 3659, "pitch": 90, "duration": 21, "velocity": 92}, {"time": 3689, "pitch": 78, "duration": 6, "velocity": 85}, {"time": 3695, "pitch": 80, "duration": 5, "velocity": 92}, {"time": 3701, "pitch": 81, "duration": 4, "velocity": 95}, {"time": 3707, "pitch": 81, "duration": 16, "velocity": 96}, {"time": 3713, "pitch": 76, "duration": 4, "velocity": 107}, {"time": 3719, "pitch": 83, "duration": 4, "velocity": 94}, {"time": 3725, "pitch": 85, "duration": 4, "velocity": 99}, {"time": 3731, "pitch": 86, "duration": 5, "velocity": 97}, {"time": 3737, "pitch": 85, "duration": 5, "velocity": 101}, {"time": 3743, "pitch": 83, "duration": 5, "velocity": 94}, {"time": 3749, "pitch": 81, "duration": 6, "velocity": 97}, {"time": 3755, "pitch": 85, "duration": 18, "velocity": 97}, {"time": 3773, "pitch": 86, "duration": 4, "velocity": 104}, {"time": 3779, "pitch": 86, "duration": 5, "velocity": 90}, {"time": 3785, "pitch": 85, "duration": 5, "velocity": 106}, {"time": 3791, "pitch": 83, "duration": 5, "velocity": 95}, {"time": 3797, "pitch": 85, "duration": 23, "velocity": 101}, {"time": 3821, "pitch": 86, "duration": 4, "velocity": 99}, {"time": 3827, "pitch": 86, "duration": 5, "velocity": 104}, {"time": 3833, "pitch": 85, "duration": 6, "velocity": 97}, {"time": 3839, "pitch": 83, "duration": 6, "velocity": 97}, {"time": 3845, "pitch": 85, "duration": 11, "velocity": 99}, {"time": 3857, "pitch": 85, "duration": 4, "velocity": 99}, {"time": 3863, "pitch": 85, "duration": 4, "velocity": 97}, {"time": 3869, "pitch": 86, "duration": 6, "velocity": 101}, {"time": 3875, "pitch": 88, "duration": 5, "velocity": 97}, {"time": 3881, "pitch": 81, "duration": 7, "velocity": 94}, {"time": 3887, "pitch": 80, "duration": 6, "velocity": 95}, {"time": 3893, "pitch": 81, "duration": 6, "velocity": 94}, {"time": 3899, "pitch": 83, "duration": 5, "velocity": 88}, {"time": 3905, "pitch": 81, "duration": 6, "velocity": 94}, {"time": 3911, "pitch": 83, "duration": 6, "velocity": 94}, {"time": 3917, "pitch": 85, "duration": 5, "velocity": 101}, {"time": 3923, "pitch": 86, "duration": 5, "velocity": 97}, {"time": 3929, "pitch": 85, "duration": 5, "velocity": 101}, {"time": 3935, "pitch": 83, "duration": 5, "velocity": 95}, {"time": 3941, "pitch": 81, "duration": 8, "velocity": 99}, {"time": 3959, "pitch": 88, "duration": 22, "velocity": 95}, {"time": 3983, "pitch": 92, "duration": 4, "velocity": 107}, {"time": 3989, "pitch": 93, "duration": 5, "velocity": 101}, {"time": 3995, "pitch": 88, "duration": 30, "velocity": 101}, {"time": 4025, "pitch": 93, "duration": 7, "velocity": 93}, {"time": 4031, "pitch": 92, "duration": 7, "velocity": 95}, {"time": 4037, "pitch": 93, "duration": 6, "velocity": 91}, {"time": 4043, "pitch": 90, "duration": 21, "velocity": 92}, {"time": 4072, "pitch": 80, "duration": 5, "velocity": 101}, {"time": 4078, "pitch": 81, "duration": 5, "velocity": 99}, {"time": 4085, "pitch": 83, "duration": 5, "velocity": 99}, {"time": 4091, "pitch": 76, "duration": 61, "velocity": 104}, {"time": 4169, "pitch": 73, "duration": 4, "velocity": 94}, {"time": 4175, "pitch": 73, "duration": 4, "velocity": 96}, {"time": 4181, "pitch": 74, "duration": 4, "velocity": 93}, {"time": 4187, "pitch": 74, "duration": 5, "velocity": 95}, {"time": 4193, "pitch": 73, "duration": 5, "velocity": 99}, {"time": 4199, "pitch": 71, "duration": 4, "velocity": 92}, {"time": 4205, "pitch": 69, "duration": 10, "velocity": 92}, {"time": 4217, "pitch": 73, "duration": 4, "velocity": 92}, {"time": 4223, "pitch": 73, "duration": 4, "velocity": 92}, {"time": 4229, "pitch": 74, "duration": 4, "velocity": 91}, {"time": 4235, "pitch": 74, "duration": 4, "velocity": 92}, {"time": 4241, "pitch": 73, "duration": 4, "velocity": 92}, {"time": 4247, "pitch": 71, "duration": 5, "velocity": 96}, {"time": 4253, "pitch": 69, "duration": 9, "velocity": 92}, {"time": 4265, "pitch": 73, "duration": 4, "velocity": 82}, {"time": 4271, "pitch": 73, "duration": 4, "velocity": 94}, {"time": 4277, "pitch": 74, "duration": 4, "velocity": 91}, {"time": 4283, "pitch": 74, "duration": 5, "velocity": 92}, {"time": 4289, "pitch": 73, "duration": 4, "velocity": 95}, {"time": 4295, "pitch": 71, "duration": 4, "velocity": 94}, {"time": 4301, "pitch": 69, "duration": 5, "velocity": 93}, {"time": 4307, "pitch": 71, "duration": 5, "velocity": 90}, {"time": 4313, "pitch": 69, "duration": 5, "velocity": 90}, {"time": 4319, "pitch": 71, "duration": 4, "velocity": 91}, {"time": 4325, "pitch": 73, "duration": 4, "velocity": 90}, {"time": 4331, "pitch": 74, "duration": 4, "velocity": 90}, {"time": 4337, "pitch": 73, "duration": 5, "velocity": 93}, {"time": 4343, "pitch": 71, "duration": 5, "velocity": 91}, {"time": 4349, "pitch": 69, "duration": 10, "velocity": 92}, {"time": 4354, "pitch": 88, "duration": 48, "velocity": 94}, {"time": 4355, "pitch": 76, "duration": 45, "velocity": 95}, {"time": 4403, "pitch": 93, "duration": 22, "velocity": 90}, {"time": 4403, "pitch": 81, "duration": 22, "velocity": 92}, {"time": 4427, "pitch": 76, "duration": 21, "velocity": 90}, {"time": 4427, "pitch": 88, "duration": 21, "velocity": 93}, {"time": 4456, "pitch": 78, "duration": 5, "velocity": 96}, {"time": 4462, "pitch": 78, "duration": 6, "velocity": 101}, {"time": 4468, "pitch": 83, "duration": 4, "velocity": 92}, {"time": 4474, "pitch": 83, "duration": 5, "velocity": 94}, {"time": 4480, "pitch": 85, "duration": 5, "velocity": 91}, {"time": 4487, "pitch": 85, "duration": 4, "velocity": 92}, {"time": 4492, "pitch": 86, "duration": 9, "velocity": 96}, {"time": 4504, "pitch": 76, "duration": 6, "velocity": 95}, {"time": 4504, "pitch": 88, "duration": 6, "velocity": 95}, {"time": 4510, "pitch": 83, "duration": 8, "velocity": 99}, {"time": 4510, "pitch": 95, "duration": 8, "velocity": 99}, {"time": 4517, "pitch": 85, "duration": 6, "velocity": 107}, {"time": 4517, "pitch": 97, "duration": 6, "velocity": 107}, {"time": 4523, "pitch": 86, "duration": 6, "velocity": 93}, {"time": 4523, "pitch": 98, "duration": 6, "velocity": 93}, {"time": 4529, "pitch": 85, "duration": 7, "velocity": 91}, {"time": 4529, "pitch": 97, "duration": 7, "velocity": 91}, {"time": 4535, "pitch": 83, "duration": 7, "velocity": 101}, {"time": 4536, "pitch": 95, "duration": 6, "velocity": 101}, {"time": 4541, "pitch": 81, "duration": 65, "velocity": 92}, {"time": 4541, "pitch": 93, "duration": 65, "velocity": 92}]}, {"program": 0, "is_drum": false, "name": "PIANO", "notes": [{"time": 191, "pitch": 44, "duration": 38, "velocity": 86}, {"time": 197, "pitch": 51, "duration": 10, "velocity": 78}, {"time": 203, "pitch": 56, "duration": 3, "velocity": 84}, {"time": 203, "pitch": 60, "duration": 7, "velocity": 84}, {"time": 209, "pitch": 56, "duration": 7, "velocity": 83}, {"time": 215, "pitch": 60, "duration": 5, "velocity": 83}, {"time": 215, "pitch": 63, "duration": 5, "velocity": 84}, {"time": 221, "pitch": 51, "duration": 6, "velocity": 55}, {"time": 227, "pitch": 60, "duration": 6, "velocity": 82}, {"time": 227, "pitch": 63, "duration": 7, "velocity": 88}, {"time": 233, "pitch": 56, "duration": 2, "velocity": 71}, {"time": 239, "pitch": 43, "duration": 40, "velocity": 83}, {"time": 239, "pitch": 58, "duration": 7, "velocity": 77}, {"time": 239, "pitch": 63, "duration": 8, "velocity": 86}, {"time": 245, "pitch": 51, "duration": 10, "velocity": 64}, {"time": 251, "pitch": 58, "duration": 4, "velocity": 79}, {"time": 251, "pitch": 63, "duration": 4, "velocity": 82}, {"time": 257, "pitch": 51, "duration": 8, "velocity": 57}, {"time": 263, "pitch": 58, "duration": 6, "velocity": 75}, {"time": 263, "pitch": 63, "duration": 6, "velocity": 80}, {"time": 269, "pitch": 51, "duration": 8, "velocity": 57}, {"time": 275, "pitch": 58, "duration": 2, "velocity": 89}, {"time": 275, "pitch": 63, "duration": 12, "velocity": 89}, {"time": 281, "pitch": 58, "duration": 2, "velocity": 78}, {"time": 287, "pitch": 41, "duration": 38, "velocity": 79}, {"time": 287, "pitch": 60, "duration": 7, "velocity": 79}, {"time": 287, "pitch": 65, "duration": 5, "velocity": 84}, {"time": 293, "pitch": 48, "duration": 19, "velocity": 74}, {"time": 299, "pitch": 60, "duration": 3, "velocity": 83}, {"time": 299, "pitch": 65, "duration": 3, "velocity": 89}, {"time": 311, "pitch": 60, "duration": 5, "velocity": 81}, {"time": 311, "pitch": 63, "duration": 6, "velocity": 84}, {"time": 317, "pitch": 48, "duration": 7, "velocity": 74}, {"time": 323, "pitch": 60, "duration": 3, "velocity": 87}, {"time": 323, "pitch": 65, "duration": 5, "velocity": 91}, {"time": 335, "pitch": 51, "duration": 38, "velocity": 87}, {"time": 335, "pitch": 58, "duration": 4, "velocity": 78}, {"time": 335, "pitch": 63, "duration": 7, "velocity": 85}, {"time": 341, "pitch": 58, "duration": 2, "velocity": 79}, {"time": 347, "pitch": 58, "duration": 2, "velocity": 78}, {"time": 347, "pitch": 63, "duration": 3, "velocity": 81}, {"time": 359, "pitch": 58, "duration": 2, "velocity": 80}, {"time": 359, "pitch": 63, "duration": 5, "velocity": 82}, {"time": 365, "pitch": 58, "duration": 3, "velocity": 79}, {"time": 371, "pitch": 58, "duration": 3, "velocity": 86}, {"time": 371, "pitch": 63, "duration": 4, "velocity": 90}, {"time": 383, "pitch": 49, "duration": 28, "velocity": 90}, {"time": 383, "pitch": 56, "duration": 3, "velocity": 87}, {"time": 383, "pitch": 61, "duration": 8, "velocity": 87}, {"time": 389, "pitch": 56, "duration": 7, "velocity": 85}, {"time": 395, "pitch": 61, "duration": 7, "velocity": 81}, {"time": 401, "pitch": 56, "duration": 7, "velocity": 77}, {"time": 407, "pitch": 61, "duration": 7, "velocity": 84}, {"time": 407, "pitch": 65, "duration": 7, "velocity": 90}, {"time": 413, "pitch": 56, "duration": 3, "velocity": 59}, {"time": 419, "pitch": 56, "duration": 3, "velocity": 90}, {"time": 419, "pitch": 61, "duration": 3, "velocity": 91}, {"time": 419, "pitch": 65, "duration": 4, "velocity": 91}, {"time": 431, "pitch": 48, "duration": 15, "velocity": 85}, {"time": 431, "pitch": 60, "duration": 9, "velocity": 83}, {"time": 431, "pitch": 63, "duration": 9, "velocity": 84}, {"time": 437, "pitch": 55, "duration": 7, "velocity": 79}, {"time": 443, "pitch": 60, "duration": 3, "velocity": 89}, {"time": 443, "pitch": 63, "duration": 10, "velocity": 90}, {"time": 443, "pitch": 67, "duration": 6, "velocity": 87}, {"time": 449, "pitch": 60, "duration": 3, "velocity": 78}, {"time": 455, "pitch": 41, "duration": 13, "velocity": 88}, {"time": 455, "pitch": 60, "duration": 9, "velocity": 87}, {"time": 455, "pitch": 65, "duration": 8, "velocity": 90}, {"time": 461, "pitch": 48, "duration": 7, "velocity": 69}, {"time": 467, "pitch": 60, "duration": 2, "velocity": 86}, {"time": 467, "pitch": 65, "duration": 4, "velocity": 90}, {"time": 467, "pitch": 68, "duration": 4, "velocity": 84}, {"time": 479, "pitch": 46, "duration": 38, "velocity": 87}, {"time": 479, "pitch": 56, "duration": 10, "velocity": 85}, {"time": 479, "pitch": 61, "duration": 10, "velocity": 85}, {"time": 485, "pitch": 53, "duration": 8, "velocity": 75}, {"time": 491, "pitch": 56, "duration": 6, "velocity": 85}, {"time": 491, "pitch": 61, "duration": 7, "velocity": 84}, {"time": 497, "pitch": 53, "duration": 7, "velocity": 75}, {"time": 503, "pitch": 58, "duration": 6, "velocity": 80}, {"time": 503, "pitch": 61, "duration": 7, "velocity": 84}, {"time": 509, "pitch": 53, "duration": 7, "velocity": 74}, {"time": 515, "pitch": 56, "duration": 3, "velocity": 86}, {"time": 515, "pitch": 61, "duration": 10, "velocity": 86}, {"time": 521, "pitch": 46, "duration": 2, "velocity": 84}, {"time": 527, "pitch": 39, "duration": 38, "velocity": 90}, {"time": 527, "pitch": 58, "duration": 7, "velocity": 83}, {"time": 527, "pitch": 63, "duration": 7, "velocity": 84}, {"time": 533, "pitch": 46, "duration": 8, "velocity": 74}, {"time": 539, "pitch": 58, "duration": 7, "velocity": 83}, {"time": 539, "pitch": 63, "duration": 9, "velocity": 85}, {"time": 545, "pitch": 46, "duration": 20, "velocity": 70}, {"time": 551, "pitch": 58, "duration": 4, "velocity": 77}, {"time": 551, "pitch": 63, "duration": 8, "velocity": 79}, {"time": 563, "pitch": 63, "duration": 3, "velocity": 86}, {"time": 563, "pitch": 67, "duration": 3, "velocity": 85}, {"time": 575, "pitch": 44, "duration": 39, "velocity": 87}, {"time": 581, "pitch": 51, "duration": 15, "velocity": 75}, {"time": 587, "pitch": 58, "duration": 6, "velocity": 82}, {"time": 593, "pitch": 60, "duration": 7, "velocity": 85}, {"time": 599, "pitch": 51, "duration": 13, "velocity": 57}, {"time": 605, "pitch": 56, "duration": 6, "velocity": 75}, {"time": 611, "pitch": 60, "duration": 3, "velocity": 86}, {"time": 611, "pitch": 63, "duration": 3, "velocity": 89}, {"time": 623, "pitch": 43, "duration": 41, "velocity": 81}, {"time": 623, "pitch": 63, "duration": 13, "velocity": 84}, {"time": 629, "pitch": 51, "duration": 19, "velocity": 73}, {"time": 635, "pitch": 58, "duration": 14, "velocity": 80}, {"time": 641, "pitch": 63, "duration": 9, "velocity": 84}, {"time": 653, "pitch": 51, "duration": 8, "velocity": 54}, {"time": 659, "pitch": 67, "duration": 6, "velocity": 91}, {"time": 665, "pitch": 58, "duration": 5, "velocity": 81}, {"time": 671, "pitch": 53, "duration": 38, "velocity": 90}, {"time": 671, "pitch": 68, "duration": 12, "velocity": 82}, {"time": 677, "pitch": 60, "duration": 20, "velocity": 79}, {"time": 683, "pitch": 63, "duration": 20, "velocity": 90}, {"time": 689, "pitch": 68, "duration": 18, "velocity": 90}, {"time": 701, "pitch": 60, "duration": 8, "velocity": 74}, {"time": 707, "pitch": 63, "duration": 7, "velocity": 90}, {"time": 713, "pitch": 68, "duration": 6, "velocity": 78}, {"time": 719, "pitch": 48, "duration": 38, "velocity": 83}, {"time": 719, "pitch": 67, "duration": 17, "velocity": 79}, {"time": 725, "pitch": 55, "duration": 29, "velocity": 62}, {"time": 731, "pitch": 58, "duration": 8, "velocity": 76}, {"time": 737, "pitch": 63, "duration": 2, "velocity": 80}, {"time": 743, "pitch": 58, "duration": 12, "velocity": 82}, {"time": 743, "pitch": 67, "duration": 12, "velocity": 77}, {"time": 755, "pitch": 63, "duration": 4, "velocity": 85}, {"time": 767, "pitch": 49, "duration": 38, "velocity": 90}, {"time": 767, "pitch": 61, "duration": 12, "velocity": 81}, {"time": 767, "pitch": 65, "duration": 12, "velocity": 86}, {"time": 773, "pitch": 56, "duration": 18, "velocity": 74}, {"time": 779, "pitch": 63, "duration": 3, "velocity": 82}, {"time": 785, "pitch": 61, "duration": 12, "velocity": 83}, {"time": 785, "pitch": 68, "duration": 12, "velocity": 86}, {"time": 797, "pitch": 56, "duration": 8, "velocity": 69}, {"time": 803, "pitch": 61, "duration": 3, "velocity": 88}, {"time": 803, "pitch": 65, "duration": 3, "velocity": 93}, {"time": 815, "pitch": 48, "duration": 15, "velocity": 83}, {"time": 815, "pitch": 60, "duration": 8, "velocity": 82}, {"time": 815, "pitch": 63, "duration": 13, "velocity": 83}, {"time": 821, "pitch": 55, "duration": 7, "velocity": 76}, {"time": 827, "pitch": 60, "duration": 9, "velocity": 89}, {"time": 839, "pitch": 53, "duration": 14, "velocity": 90}, {"time": 839, "pitch": 60, "duration": 2, "velocity": 83}, {"time": 839, "pitch": 65, "duration": 7, "velocity": 86}, {"time": 845, "pitch": 60, "duration": 8, "velocity": 90}, {"time": 851, "pitch": 65, "duration": 2, "velocity": 81}, {"time": 851, "pitch": 68, "duration": 2, "velocity": 85}, {"time": 863, "pitch": 46, "duration": 37, "velocity": 86}, {"time": 863, "pitch": 56, "duration": 7, "velocity": 82}, {"time": 863, "pitch": 61, "duration": 13, "velocity": 81}, {"time": 869, "pitch": 53, "duration": 30, "velocity": 80}, {"time": 875, "pitch": 56, "duration": 10, "velocity": 92}, {"time": 881, "pitch": 65, "duration": 15, "velocity": 91}, {"time": 893, "pitch": 56, "duration": 2, "velocity": 78}, {"time": 899, "pitch": 56, "duration": 3, "velocity": 89}, {"time": 899, "pitch": 61, "duration": 4, "velocity": 86}, {"time": 911, "pitch": 39, "duration": 1, "velocity": 91}, {"time": 911, "pitch": 58, "duration": 4, "velocity": 79}, {"time": 911, "pitch": 63, "duration": 5, "velocity": 86}, {"time": 917, "pitch": 51, "duration": 31, "velocity": 88}, {"time": 923, "pitch": 58, "duration": 14, "velocity": 84}, {"time": 929, "pitch": 65, "duration": 4, "velocity": 90}, {"time": 935, "pitch": 63, "duration": 8, "velocity": 82}, {"time": 935, "pitch": 67, "duration": 13, "velocity": 85}, {"time": 941, "pitch": 58, "duration": 7, "velocity": 76}, {"time": 947, "pitch": 63, "duration": 2, "velocity": 78}, {"time": 959, "pitch": 44, "duration": 41, "velocity": 84}, {"time": 959, "pitch": 56, "duration": 7, "velocity": 79}, {"time": 959, "pitch": 63, "duration": 9, "velocity": 83}, {"time": 965, "pitch": 51, "duration": 33, "velocity": 76}, {"time": 971, "pitch": 58, "duration": 6, "velocity": 81}, {"time": 977, "pitch": 60, "duration": 9, "velocity": 83}, {"time": 989, "pitch": 56, "duration": 7, "velocity": 83}, {"time": 995, "pitch": 60, "duration": 6, "velocity": 90}, {"time": 995, "pitch": 63, "duration": 7, "velocity": 90}, {"time": 1001, "pitch": 56, "duration": 2, "velocity": 86}, {"time": 1007, "pitch": 43, "duration": 41, "velocity": 80}, {"time": 1007, "pitch": 58, "duration": 6, "velocity": 84}, {"time": 1007, "pitch": 63, "duration": 13, "velocity": 88}, {"time": 1013, "pitch": 51, "duration": 16, "velocity": 75}, {"time": 1019, "pitch": 55, "duration": 4, "velocity": 86}, {"time": 1025, "pitch": 55, "duration": 15, "velocity": 90}, {"time": 1025, "pitch": 63, "duration": 18, "velocity": 90}, {"time": 1037, "pitch": 51, "duration": 11, "velocity": 67}, {"time": 1043, "pitch": 55, "duration": 9, "velocity": 87}, {"time": 1055, "pitch": 41, "duration": 38, "velocity": 87}, {"time": 1055, "pitch": 56, "duration": 12, "velocity": 84}, {"time": 1061, "pitch": 48, "duration": 32, "velocity": 76}, {"time": 1067, "pitch": 53, "duration": 8, "velocity": 92}, {"time": 1073, "pitch": 56, "duration": 4, "velocity": 86}, {"time": 1079, "pitch": 56, "duration": 1, "velocity": 73}, {"time": 1079, "pitch": 60, "duration": 8, "velocity": 88}, {"time": 1091, "pitch": 56, "duration": 2, "velocity": 88}, {"time": 1091, "pitch": 60, "duration": 3, "velocity": 89}, {"time": 1103, "pitch": 48, "duration": 36, "velocity": 90}, {"time": 1103, "pitch": 63, "duration": 13, "velocity": 84}, {"time": 1109, "pitch": 55, "duration": 21, "velocity": 76}, {"time": 1115, "pitch": 58, "duration": 12, "velocity": 90}, {"time": 1121, "pitch": 67, "duration": 19, "velocity": 90}, {"time": 1139, "pitch": 58, "duration": 3, "velocity": 84}, {"time": 1139, "pitch": 63, "duration": 7, "velocity": 89}, {"time": 1145, "pitch": 58, "duration": 3, "velocity": 77}, {"time": 1151, "pitch": 49, "duration": 38, "velocity": 86}, {"time": 1151, "pitch": 56, "duration": 3, "velocity": 87}, {"time": 1151, "pitch": 61, "duration": 9, "velocity": 84}, {"time": 1157, "pitch": 56, "duration": 7, "velocity": 90}, {"time": 1163, "pitch": 65, "duration": 12, "velocity": 91}, {"time": 1169, "pitch": 56, "duration": 6, "velocity": 84}, {"time": 1175, "pitch": 61, "duration": 6, "velocity": 83}, {"time": 1187, "pitch": 56, "duration": 3, "velocity": 87}, {"time": 1187, "pitch": 61, "duration": 4, "velocity": 84}, {"time": 1187, "pitch": 65, "duration": 5, "velocity": 90}, {"time": 1199, "pitch": 48, "duration": 16, "velocity": 89}, {"time": 1199, "pitch": 60, "duration": 7, "velocity": 85}, {"time": 1199, "pitch": 63, "duration": 9, "velocity": 85}, {"time": 1205, "pitch": 55, "duration": 7, "velocity": 79}, {"time": 1211, "pitch": 60, "duration": 2, "velocity": 75}, {"time": 1211, "pitch": 63, "duration": 5, "velocity": 87}, {"time": 1211, "pitch": 67, "duration": 6, "velocity": 79}, {"time": 1223, "pitch": 53, "duration": 13, "velocity": 90}, {"time": 1223, "pitch": 60, "duration": 7, "velocity": 83}, {"time": 1223, "pitch": 68, "duration": 14, "velocity": 88}, {"time": 1229, "pitch": 56, "duration": 6, "velocity": 77}, {"time": 1235, "pitch": 60, "duration": 6, "velocity": 92}, {"time": 1241, "pitch": 65, "duration": 2, "velocity": 86}, {"time": 1247, "pitch": 46, "duration": 39, "velocity": 89}, {"time": 1247, "pitch": 58, "duration": 8, "velocity": 80}, {"time": 1247, "pitch": 61, "duration": 13, "velocity": 81}, {"time": 1253, "pitch": 53, "duration": 33, "velocity": 81}, {"time": 1259, "pitch": 56, "duration": 7, "velocity": 91}, {"time": 1265, "pitch": 61, "duration": 12, "velocity": 93}, {"time": 1277, "pitch": 56, "duration": 3, "velocity": 76}, {"time": 1283, "pitch": 56, "duration": 4, "velocity": 92}, {"time": 1283, "pitch": 61, "duration": 4, "velocity": 94}, {"time": 1283, "pitch": 65, "duration": 5, "velocity": 94}, {"time": 1289, "pitch": 46, "duration": 4, "velocity": 91}, {"time": 1295, "pitch": 51, "duration": 39, "velocity": 91}, {"time": 1295, "pitch": 58, "duration": 3, "velocity": 85}, {"time": 1295, "pitch": 63, "duration": 8, "velocity": 89}, {"time": 1301, "pitch": 58, "duration": 9, "velocity": 89}, {"time": 1307, "pitch": 63, "duration": 6, "velocity": 88}, {"time": 1313, "pitch": 65, "duration": 2, "velocity": 95}, {"time": 1319, "pitch": 58, "duration": 2, "velocity": 78}, {"time": 1319, "pitch": 67, "duration": 7, "velocity": 92}, {"time": 1325, "pitch": 58, "duration": 4, "velocity": 83}, {"time": 1331, "pitch": 63, "duration": 6, "velocity": 92}, {"time": 1337, "pitch": 61, "duration": 2, "velocity": 96}, {"time": 1343, "pitch": 44, "duration": 43, "velocity": 90}, {"time": 1343, "pitch": 56, "duration": 8, "velocity": 86}, {"time": 1343, "pitch": 63, "duration": 9, "velocity": 88}, {"time": 1349, "pitch": 51, "duration": 21, "velocity": 77}, {"time": 1355, "pitch": 56, "duration": 3, "velocity": 84}, {"time": 1355, "pitch": 60, "duration": 7, "velocity": 86}, {"time": 1361, "pitch": 56, "duration": 1, "velocity": 58}, {"time": 1367, "pitch": 56, "duration": 5, "velocity": 91}, {"time": 1367, "pitch": 63, "duration": 6, "velocity": 89}, {"time": 1373, "pitch": 51, "duration": 12, "velocity": 79}, {"time": 1379, "pitch": 56, "duration": 1, "velocity": 76}, {"time": 1379, "pitch": 60, "duration": 7, "velocity": 92}, {"time": 1379, "pitch": 63, "duration": 7, "velocity": 91}, {"time": 1385, "pitch": 56, "duration": 2, "velocity": 96}, {"time": 1391, "pitch": 43, "duration": 43, "velocity": 90}, {"time": 1391, "pitch": 58, "duration": 8, "velocity": 84}, {"time": 1391, "pitch": 63, "duration": 8, "velocity": 87}, {"time": 1397, "pitch": 51, "duration": 9, "velocity": 78}, {"time": 1403, "pitch": 58, "duration": 7, "velocity": 90}, {"time": 1409, "pitch": 63, "duration": 3, "velocity": 77}, {"time": 1412, "pitch": 51, "duration": 24, "velocity": 77}, {"time": 1415, "pitch": 58, "duration": 6, "velocity": 88}, {"time": 1415, "pitch": 67, "duration": 7, "velocity": 91}, {"time": 1427, "pitch": 58, "duration": 3, "velocity": 89}, {"time": 1427, "pitch": 63, "duration": 7, "velocity": 91}, {"time": 1433, "pitch": 58, "duration": 2, "velocity": 90}, {"time": 1439, "pitch": 53, "duration": 39, "velocity": 85}, {"time": 1439, "pitch": 60, "duration": 3, "velocity": 82}, {"time": 1439, "pitch": 65, "duration": 7, "velocity": 90}, {"time": 1445, "pitch": 60, "duration": 7, "velocity": 86}, {"time": 1451, "pitch": 65, "duration": 6, "velocity": 86}, {"time": 1457, "pitch": 60, "duration": 3, "velocity": 71}, {"time": 1463, "pitch": 60, "duration": 3, "velocity": 90}, {"time": 1463, "pitch": 68, "duration": 7, "velocity": 89}, {"time": 1475, "pitch": 60, "duration": 3, "velocity": 91}, {"time": 1475, "pitch": 65, "duration": 6, "velocity": 93}, {"time": 1481, "pitch": 60, "duration": 2, "velocity": 80}, {"time": 1487, "pitch": 48, "duration": 37, "velocity": 91}, {"time": 1487, "pitch": 60, "duration": 9, "velocity": 85}, {"time": 1487, "pitch": 63, "duration": 9, "velocity": 85}, {"time": 1493, "pitch": 55, "duration": 10, "velocity": 77}, {"time": 1499, "pitch": 60, "duration": 9, "velocity": 90}, {"time": 1499, "pitch": 67, "duration": 7, "velocity": 90}, {"time": 1505, "pitch": 55, "duration": 7, "velocity": 70}, {"time": 1511, "pitch": 63, "duration": 7, "velocity": 86}, {"time": 1517, "pitch": 55, "duration": 7, "velocity": 61}, {"time": 1523, "pitch": 60, "duration": 3, "velocity": 106}, {"time": 1529, "pitch": 48, "duration": 2, "velocity": 91}, {"time": 1535, "pitch": 49, "duration": 38, "velocity": 91}, {"time": 1535, "pitch": 56, "duration": 3, "velocity": 92}, {"time": 1535, "pitch": 61, "duration": 7, "velocity": 89}, {"time": 1541, "pitch": 56, "duration": 8, "velocity": 86}, {"time": 1547, "pitch": 65, "duration": 10, "velocity": 97}, {"time": 1553, "pitch": 56, "duration": 3, "velocity": 76}, {"time": 1559, "pitch": 56, "duration": 3, "velocity": 80}, {"time": 1559, "pitch": 61, "duration": 6, "velocity": 81}, {"time": 1571, "pitch": 56, "duration": 3, "velocity": 93}, {"time": 1571, "pitch": 61, "duration": 4, "velocity": 95}, {"time": 1571, "pitch": 65, "duration": 4, "velocity": 99}, {"time": 1583, "pitch": 48, "duration": 16, "velocity": 91}, {"time": 1583, "pitch": 58, "duration": 10, "velocity": 90}, {"time": 1583, "pitch": 63, "duration": 8, "velocity": 90}, {"time": 1589, "pitch": 55, "duration": 7, "velocity": 76}, {"time": 1595, "pitch": 58, "duration": 1, "velocity": 72}, {"time": 1595, "pitch": 63, "duration": 6, "velocity": 95}, {"time": 1595, "pitch": 67, "duration": 5, "velocity": 96}, {"time": 1601, "pitch": 58, "duration": 1, "velocity": 70}, {"time": 1607, "pitch": 53, "duration": 15, "velocity": 90}, {"time": 1607, "pitch": 60, "duration": 4, "velocity": 83}, {"time": 1607, "pitch": 65, "duration": 8, "velocity": 89}, {"time": 1613, "pitch": 60, "duration": 7, "velocity": 84}, {"time": 1619, "pitch": 65, "duration": 5, "velocity": 92}, {"time": 1619, "pitch": 68, "duration": 5, "velocity": 88}, {"time": 1631, "pitch": 46, "duration": 38, "velocity": 91}, {"time": 1631, "pitch": 56, "duration": 10, "velocity": 90}, {"time": 1631, "pitch": 61, "duration": 10, "velocity": 89}, {"time": 1637, "pitch": 53, "duration": 9, "velocity": 84}, {"time": 1643, "pitch": 56, "duration": 5, "velocity": 83}, {"time": 1643, "pitch": 61, "duration": 6, "velocity": 84}, {"time": 1649, "pitch": 53, "duration": 8, "velocity": 75}, {"time": 1655, "pitch": 58, "duration": 5, "velocity": 79}, {"time": 1655, "pitch": 61, "duration": 5, "velocity": 81}, {"time": 1655, "pitch": 65, "duration": 4, "velocity": 89}, {"time": 1661, "pitch": 53, "duration": 6, "velocity": 72}, {"time": 1667, "pitch": 58, "duration": 2, "velocity": 85}, {"time": 1667, "pitch": 61, "duration": 8, "velocity": 91}, {"time": 1673, "pitch": 58, "duration": 7, "velocity": 82}, {"time": 1679, "pitch": 39, "duration": 1, "velocity": 91}, {"time": 1679, "pitch": 63, "duration": 15, "velocity": 85}, {"time": 1691, "pitch": 51, "duration": 35, "velocity": 90}, {"time": 1697, "pitch": 58, "duration": 4, "velocity": 89}, {"time": 1703, "pitch": 58, "duration": 4, "velocity": 82}, {"time": 1703, "pitch": 67, "duration": 7, "velocity": 81}, {"time": 1715, "pitch": 58, "duration": 3, "velocity": 84}, {"time": 1715, "pitch": 63, "duration": 11, "velocity": 86}, {"time": 1721, "pitch": 58, "duration": 5, "velocity": 84}, {"time": 1727, "pitch": 44, "duration": 38, "velocity": 86}, {"time": 1733, "pitch": 51, "duration": 10, "velocity": 78}, {"time": 1739, "pitch": 56, "duration": 3, "velocity": 84}, {"time": 1739, "pitch": 60, "duration": 7, "velocity": 84}, {"time": 1745, "pitch": 56, "duration": 7, "velocity": 83}, {"time": 1751, "pitch": 60, "duration": 5, "velocity": 83}, {"time": 1751, "pitch": 63, "duration": 5, "velocity": 84}, {"time": 1757, "pitch": 51, "duration": 6, "velocity": 55}, {"time": 1763, "pitch": 60, "duration": 6, "velocity": 82}, {"time": 1763, "pitch": 63, "duration": 7, "velocity": 88}, {"time": 1769, "pitch": 56, "duration": 2, "velocity": 71}, {"time": 1775, "pitch": 43, "duration": 40, "velocity": 83}, {"time": 1775, "pitch": 58, "duration": 7, "velocity": 77}, {"time": 1775, "pitch": 63, "duration": 8, "velocity": 86}, {"time": 1781, "pitch": 51, "duration": 10, "velocity": 64}, {"time": 1787, "pitch": 58, "duration": 4, "velocity": 79}, {"time": 1787, "pitch": 63, "duration": 4, "velocity": 82}, {"time": 1793, "pitch": 51, "duration": 8, "velocity": 57}, {"time": 1799, "pitch": 58, "duration": 6, "velocity": 75}, {"time": 1799, "pitch": 63, "duration": 6, "velocity": 80}, {"time": 1805, "pitch": 51, "duration": 8, "velocity": 57}, {"time": 1811, "pitch": 58, "duration": 2, "velocity": 89}, {"time": 1811, "pitch": 63, "duration": 12, "velocity": 89}, {"time": 1817, "pitch": 58, "duration": 2, "velocity": 78}, {"time": 1823, "pitch": 41, "duration": 38, "velocity": 79}, {"time": 1823, "pitch": 60, "duration": 7, "velocity": 79}, {"time": 1823, "pitch": 65, "duration": 5, "velocity": 84}, {"time": 1829, "pitch": 48, "duration": 19, "velocity": 74}, {"time": 1835, "pitch": 60, "duration": 3, "velocity": 83}, {"time": 1835, "pitch": 65, "duration": 3, "velocity": 89}, {"time": 1847, "pitch": 60, "duration": 5, "velocity": 81}, {"time": 1847, "pitch": 63, "duration": 6, "velocity": 84}, {"time": 1853, "pitch": 48, "duration": 7, "velocity": 74}, {"time": 1859, "pitch": 60, "duration": 3, "velocity": 87}, {"time": 1859, "pitch": 65, "duration": 5, "velocity": 91}, {"time": 1871, "pitch": 51, "duration": 38, "velocity": 87}, {"time": 1871, "pitch": 58, "duration": 4, "velocity": 78}, {"time": 1871, "pitch": 63, "duration": 7, "velocity": 85}, {"time": 1877, "pitch": 58, "duration": 2, "velocity": 79}, {"time": 1883, "pitch": 58, "duration": 2, "velocity": 78}, {"time": 1883, "pitch": 63, "duration": 3, "velocity": 81}, {"time": 1895, "pitch": 58, "duration": 2, "velocity": 80}, {"time": 1895, "pitch": 63, "duration": 5, "velocity": 82}, {"time": 1901, "pitch": 58, "duration": 3, "velocity": 79}, {"time": 1907, "pitch": 58, "duration": 3, "velocity": 86}, {"time": 1907, "pitch": 63, "duration": 4, "velocity": 90}, {"time": 1919, "pitch": 49, "duration": 28, "velocity": 90}, {"time": 1919, "pitch": 56, "duration": 3, "velocity": 87}, {"time": 1919, "pitch": 61, "duration": 8, "velocity": 87}, {"time": 1925, "pitch": 56, "duration": 7, "velocity": 85}, {"time": 1931, "pitch": 61, "duration": 7, "velocity": 81}, {"time": 1937, "pitch": 56, "duration": 7, "velocity": 77}, {"time": 1943, "pitch": 61, "duration": 7, "velocity": 84}, {"time": 1943, "pitch": 65, "duration": 7, "velocity": 90}, {"time": 1949, "pitch": 56, "duration": 3, "velocity": 59}, {"time": 1955, "pitch": 56, "duration": 3, "velocity": 90}, {"time": 1955, "pitch": 61, "duration": 3, "velocity": 91}, {"time": 1955, "pitch": 65, "duration": 4, "velocity": 91}, {"time": 1967, "pitch": 48, "duration": 15, "velocity": 85}, {"time": 1967, "pitch": 60, "duration": 9, "velocity": 83}, {"time": 1967, "pitch": 63, "duration": 9, "velocity": 84}, {"time": 1973, "pitch": 55, "duration": 7, "velocity": 79}, {"time": 1979, "pitch": 60, "duration": 3, "velocity": 89}, {"time": 1979, "pitch": 63, "duration": 10, "velocity": 90}, {"time": 1979, "pitch": 67, "duration": 6, "velocity": 87}, {"time": 1985, "pitch": 60, "duration": 3, "velocity": 78}, {"time": 1991, "pitch": 41, "duration": 13, "velocity": 88}, {"time": 1991, "pitch": 60, "duration": 9, "velocity": 87}, {"time": 1991, "pitch": 65, "duration": 8, "velocity": 90}, {"time": 1997, "pitch": 48, "duration": 7, "velocity": 69}, {"time": 2003, "pitch": 60, "duration": 2, "velocity": 86}, {"time": 2003, "pitch": 65, "duration": 4, "velocity": 90}, {"time": 2003, "pitch": 68, "duration": 4, "velocity": 84}, {"time": 2015, "pitch": 46, "duration": 38, "velocity": 87}, {"time": 2015, "pitch": 56, "duration": 10, "velocity": 85}, {"time": 2015, "pitch": 61, "duration": 10, "velocity": 85}, {"time": 2021, "pitch": 53, "duration": 8, "velocity": 75}, {"time": 2027, "pitch": 56, "duration": 6, "velocity": 85}, {"time": 2027, "pitch": 61, "duration": 7, "velocity": 84}, {"time": 2033, "pitch": 53, "duration": 7, "velocity": 75}, {"time": 2039, "pitch": 58, "duration": 6, "velocity": 80}, {"time": 2039, "pitch": 61, "duration": 7, "velocity": 84}, {"time": 2045, "pitch": 53, "duration": 7, "velocity": 74}, {"time": 2051, "pitch": 56, "duration": 3, "velocity": 86}, {"time": 2051, "pitch": 61, "duration": 10, "velocity": 86}, {"time": 2057, "pitch": 46, "duration": 2, "velocity": 84}, {"time": 2063, "pitch": 39, "duration": 38, "velocity": 90}, {"time": 2063, "pitch": 58, "duration": 7, "velocity": 83}, {"time": 2063, "pitch": 63, "duration": 7, "velocity": 84}, {"time": 2069, "pitch": 46, "duration": 8, "velocity": 74}, {"time": 2075, "pitch": 58, "duration": 7, "velocity": 83}, {"time": 2075, "pitch": 63, "duration": 9, "velocity": 85}, {"time": 2081, "pitch": 46, "duration": 20, "velocity": 70}, {"time": 2087, "pitch": 58, "duration": 4, "velocity": 77}, {"time": 2087, "pitch": 63, "duration": 8, "velocity": 79}, {"time": 2099, "pitch": 63, "duration": 3, "velocity": 86}, {"time": 2099, "pitch": 67, "duration": 3, "velocity": 85}, {"time": 2111, "pitch": 44, "duration": 41, "velocity": 84}, {"time": 2111, "pitch": 56, "duration": 7, "velocity": 79}, {"time": 2111, "pitch": 63, "duration": 9, "velocity": 83}, {"time": 2117, "pitch": 51, "duration": 33, "velocity": 76}, {"time": 2123, "pitch": 58, "duration": 6, "velocity": 81}, {"time": 2129, "pitch": 60, "duration": 9, "velocity": 83}, {"time": 2141, "pitch": 56, "duration": 7, "velocity": 83}, {"time": 2147, "pitch": 60, "duration": 6, "velocity": 90}, {"time": 2147, "pitch": 63, "duration": 7, "velocity": 90}, {"time": 2153, "pitch": 56, "duration": 2, "velocity": 86}, {"time": 2159, "pitch": 43, "duration": 41, "velocity": 80}, {"time": 2159, "pitch": 58, "duration": 6, "velocity": 84}, {"time": 2159, "pitch": 63, "duration": 13, "velocity": 88}, {"time": 2165, "pitch": 51, "duration": 16, "velocity": 75}, {"time": 2171, "pitch": 55, "duration": 4, "velocity": 86}, {"time": 2177, "pitch": 55, "duration": 15, "velocity": 90}, {"time": 2177, "pitch": 63, "duration": 18, "velocity": 90}, {"time": 2189, "pitch": 51, "duration": 11, "velocity": 67}, {"time": 2195, "pitch": 55, "duration": 9, "velocity": 87}, {"time": 2207, "pitch": 41, "duration": 38, "velocity": 87}, {"time": 2207, "pitch": 56, "duration": 12, "velocity": 84}, {"time": 2213, "pitch": 48, "duration": 32, "velocity": 76}, {"time": 2219, "pitch": 53, "duration": 8, "velocity": 92}, {"time": 2225, "pitch": 56, "duration": 4, "velocity": 86}, {"time": 2231, "pitch": 56, "duration": 1, "velocity": 73}, {"time": 2231, "pitch": 60, "duration": 8, "velocity": 88}, {"time": 2243, "pitch": 56, "duration": 2, "velocity": 88}, {"time": 2243, "pitch": 60, "duration": 3, "velocity": 89}, {"time": 2255, "pitch": 48, "duration": 36, "velocity": 90}, {"time": 2255, "pitch": 63, "duration": 13, "velocity": 84}, {"time": 2261, "pitch": 55, "duration": 21, "velocity": 76}, {"time": 2267, "pitch": 58, "duration": 12, "velocity": 90}, {"time": 2273, "pitch": 67, "duration": 19, "velocity": 90}, {"time": 2291, "pitch": 58, "duration": 3, "velocity": 84}, {"time": 2291, "pitch": 63, "duration": 7, "velocity": 89}, {"time": 2297, "pitch": 58, "duration": 3, "velocity": 77}, {"time": 2303, "pitch": 49, "duration": 38, "velocity": 86}, {"time": 2303, "pitch": 56, "duration": 3, "velocity": 87}, {"time": 2303, "pitch": 61, "duration": 9, "velocity": 84}, {"time": 2309, "pitch": 56, "duration": 7, "velocity": 90}, {"time": 2315, "pitch": 65, "duration": 12, "velocity": 91}, {"time": 2321, "pitch": 56, "duration": 6, "velocity": 84}, {"time": 2327, "pitch": 61, "duration": 6, "velocity": 83}, {"time": 2339, "pitch": 56, "duration": 3, "velocity": 87}, {"time": 2339, "pitch": 61, "duration": 4, "velocity": 84}, {"time": 2339, "pitch": 65, "duration": 5, "velocity": 90}, {"time": 2351, "pitch": 48, "duration": 16, "velocity": 89}, {"time": 2351, "pitch": 60, "duration": 7, "velocity": 85}, {"time": 2351, "pitch": 63, "duration": 9, "velocity": 85}, {"time": 2357, "pitch": 55, "duration": 7, "velocity": 79}, {"time": 2363, "pitch": 60, "duration": 2, "velocity": 75}, {"time": 2363, "pitch": 63, "duration": 5, "velocity": 87}, {"time": 2363, "pitch": 67, "duration": 6, "velocity": 79}, {"time": 2375, "pitch": 53, "duration": 13, "velocity": 90}, {"time": 2375, "pitch": 60, "duration": 7, "velocity": 83}, {"time": 2375, "pitch": 68, "duration": 14, "velocity": 88}, {"time": 2381, "pitch": 56, "duration": 6, "velocity": 77}, {"time": 2387, "pitch": 60, "duration": 6, "velocity": 92}, {"time": 2393, "pitch": 65, "duration": 2, "velocity": 86}, {"time": 2399, "pitch": 46, "duration": 39, "velocity": 89}, {"time": 2399, "pitch": 58, "duration": 8, "velocity": 80}, {"time": 2399, "pitch": 61, "duration": 13, "velocity": 81}, {"time": 2405, "pitch": 53, "duration": 33, "velocity": 81}, {"time": 2411, "pitch": 56, "duration": 7, "velocity": 91}, {"time": 2417, "pitch": 61, "duration": 12, "velocity": 93}, {"time": 2429, "pitch": 56, "duration": 3, "velocity": 76}, {"time": 2435, "pitch": 56, "duration": 4, "velocity": 92}, {"time": 2435, "pitch": 61, "duration": 4, "velocity": 94}, {"time": 2435, "pitch": 65, "duration": 5, "velocity": 94}, {"time": 2441, "pitch": 46, "duration": 4, "velocity": 91}, {"time": 2447, "pitch": 51, "duration": 39, "velocity": 91}, {"time": 2447, "pitch": 58, "duration": 3, "velocity": 85}, {"time": 2447, "pitch": 63, "duration": 8, "velocity": 89}, {"time": 2453, "pitch": 58, "duration": 9, "velocity": 89}, {"time": 2459, "pitch": 63, "duration": 6, "velocity": 88}, {"time": 2465, "pitch": 65, "duration": 2, "velocity": 95}, {"time": 2471, "pitch": 58, "duration": 2, "velocity": 78}, {"time": 2471, "pitch": 67, "duration": 7, "velocity": 92}, {"time": 2477, "pitch": 58, "duration": 4, "velocity": 83}, {"time": 2483, "pitch": 63, "duration": 6, "velocity": 92}, {"time": 2489, "pitch": 61, "duration": 2, "velocity": 96}, {"time": 2495, "pitch": 44, "duration": 42, "velocity": 91}, {"time": 2495, "pitch": 56, "duration": 5, "velocity": 88}, {"time": 2495, "pitch": 60, "duration": 4, "velocity": 90}, {"time": 2495, "pitch": 63, "duration": 4, "velocity": 90}, {"time": 2501, "pitch": 51, "duration": 37, "velocity": 78}, {"time": 2507, "pitch": 60, "duration": 2, "velocity": 92}, {"time": 2507, "pitch": 63, "duration": 2, "velocity": 90}, {"time": 2513, "pitch": 56, "duration": 7, "velocity": 79}, {"time": 2519, "pitch": 60, "duration": 3, "velocity": 91}, {"time": 2519, "pitch": 63, "duration": 3, "velocity": 91}, {"time": 2519, "pitch": 68, "duration": 4, "velocity": 86}, {"time": 2525, "pitch": 56, "duration": 4, "velocity": 71}, {"time": 2531, "pitch": 60, "duration": 5, "velocity": 97}, {"time": 2531, "pitch": 63, "duration": 6, "velocity": 93}, {"time": 2537, "pitch": 56, "duration": 1, "velocity": 85}, {"time": 2543, "pitch": 43, "duration": 37, "velocity": 89}, {"time": 2543, "pitch": 58, "duration": 3, "velocity": 86}, {"time": 2543, "pitch": 63, "duration": 7, "velocity": 91}, {"time": 2543, "pitch": 67, "duration": 7, "velocity": 91}, {"time": 2549, "pitch": 58, "duration": 7, "velocity": 84}, {"time": 2555, "pitch": 63, "duration": 6, "velocity": 90}, {"time": 2555, "pitch": 67, "duration": 3, "velocity": 90}, {"time": 2561, "pitch": 58, "duration": 2, "velocity": 79}, {"time": 2567, "pitch": 63, "duration": 7, "velocity": 90}, {"time": 2567, "pitch": 67, "duration": 4, "velocity": 92}, {"time": 2573, "pitch": 58, "duration": 4, "velocity": 66}, {"time": 2579, "pitch": 63, "duration": 8, "velocity": 91}, {"time": 2579, "pitch": 67, "duration": 7, "velocity": 92}, {"time": 2585, "pitch": 43, "duration": 2, "velocity": 99}, {"time": 2591, "pitch": 41, "duration": 39, "velocity": 96}, {"time": 2591, "pitch": 60, "duration": 3, "velocity": 85}, {"time": 2591, "pitch": 65, "duration": 7, "velocity": 93}, {"time": 2597, "pitch": 60, "duration": 6, "velocity": 77}, {"time": 2603, "pitch": 65, "duration": 2, "velocity": 92}, {"time": 2603, "pitch": 68, "duration": 3, "velocity": 87}, {"time": 2609, "pitch": 60, "duration": 3, "velocity": 78}, {"time": 2615, "pitch": 65, "duration": 2, "velocity": 86}, {"time": 2615, "pitch": 68, "duration": 3, "velocity": 83}, {"time": 2621, "pitch": 60, "duration": 3, "velocity": 77}, {"time": 2627, "pitch": 60, "duration": 13, "velocity": 92}, {"time": 2627, "pitch": 65, "duration": 12, "velocity": 97}, {"time": 2627, "pitch": 68, "duration": 13, "velocity": 91}, {"time": 2633, "pitch": 41, "duration": 3, "velocity": 96}, {"time": 2639, "pitch": 39, "duration": 22, "velocity": 88}, {"time": 2639, "pitch": 58, "duration": 4, "velocity": 83}, {"time": 2639, "pitch": 63, "duration": 8, "velocity": 88}, {"time": 2639, "pitch": 67, "duration": 8, "velocity": 83}, {"time": 2645, "pitch": 58, "duration": 4, "velocity": 79}, {"time": 2651, "pitch": 63, "duration": 10, "velocity": 94}, {"time": 2651, "pitch": 67, "duration": 9, "velocity": 97}, {"time": 2657, "pitch": 58, "duration": 6, "velocity": 79}, {"time": 2663, "pitch": 39, "duration": 15, "velocity": 99}, {"time": 2663, "pitch": 58, "duration": 4, "velocity": 90}, {"time": 2663, "pitch": 63, "duration": 8, "velocity": 92}, {"time": 2669, "pitch": 58, "duration": 4, "velocity": 92}, {"time": 2675, "pitch": 63, "duration": 7, "velocity": 96}, {"time": 2675, "pitch": 67, "duration": 7, "velocity": 93}, {"time": 2681, "pitch": 58, "duration": 2, "velocity": 91}, {"time": 2687, "pitch": 37, "duration": 33, "velocity": 91}, {"time": 2687, "pitch": 56, "duration": 4, "velocity": 86}, {"time": 2687, "pitch": 61, "duration": 7, "velocity": 91}, {"time": 2693, "pitch": 56, "duration": 6, "velocity": 93}, {"time": 2699, "pitch": 61, "duration": 1, "velocity": 88}, {"time": 2699, "pitch": 65, "duration": 2, "velocity": 92}, {"time": 2705, "pitch": 56, "duration": 1, "velocity": 68}, {"time": 2711, "pitch": 61, "duration": 7, "velocity": 92}, {"time": 2711, "pitch": 65, "duration": 7, "velocity": 95}, {"time": 2717, "pitch": 56, "duration": 2, "velocity": 85}, {"time": 2723, "pitch": 56, "duration": 3, "velocity": 94}, {"time": 2723, "pitch": 61, "duration": 7, "velocity": 95}, {"time": 2723, "pitch": 65, "duration": 7, "velocity": 95}, {"time": 2729, "pitch": 56, "duration": 1, "velocity": 83}, {"time": 2735, "pitch": 48, "duration": 15, "velocity": 92}, {"time": 2735, "pitch": 60, "duration": 7, "velocity": 90}, {"time": 2735, "pitch": 63, "duration": 7, "velocity": 86}, {"time": 2741, "pitch": 55, "duration": 9, "velocity": 74}, {"time": 2747, "pitch": 60, "duration": 2, "velocity": 92}, {"time": 2747, "pitch": 63, "duration": 6, "velocity": 92}, {"time": 2747, "pitch": 67, "duration": 7, "velocity": 92}, {"time": 2753, "pitch": 60, "duration": 2, "velocity": 91}, {"time": 2759, "pitch": 41, "duration": 17, "velocity": 93}, {"time": 2759, "pitch": 53, "duration": 8, "velocity": 96}, {"time": 2759, "pitch": 56, "duration": 7, "velocity": 97}, {"time": 2765, "pitch": 48, "duration": 12, "velocity": 82}, {"time": 2771, "pitch": 53, "duration": 1, "velocity": 86}, {"time": 2771, "pitch": 65, "duration": 9, "velocity": 92}, {"time": 2777, "pitch": 53, "duration": 2, "velocity": 101}, {"time": 2783, "pitch": 46, "duration": 38, "velocity": 90}, {"time": 2783, "pitch": 56, "duration": 1, "velocity": 83}, {"time": 2783, "pitch": 58, "duration": 10, "velocity": 80}, {"time": 2783, "pitch": 61, "duration": 9, "velocity": 85}, {"time": 2789, "pitch": 53, "duration": 9, "velocity": 86}, {"time": 2795, "pitch": 58, "duration": 6, "velocity": 85}, {"time": 2795, "pitch": 61, "duration": 7, "velocity": 88}, {"time": 2801, "pitch": 53, "duration": 8, "velocity": 75}, {"time": 2807, "pitch": 61, "duration": 6, "velocity": 91}, {"time": 2807, "pitch": 65, "duration": 5, "velocity": 92}, {"time": 2813, "pitch": 53, "duration": 9, "velocity": 77}, {"time": 2819, "pitch": 58, "duration": 4, "velocity": 90}, {"time": 2819, "pitch": 61, "duration": 4, "velocity": 92}, {"time": 2819, "pitch": 65, "duration": 4, "velocity": 95}, {"time": 2825, "pitch": 46, "duration": 2, "velocity": 91}, {"time": 2831, "pitch": 39, "duration": 1, "velocity": 93}, {"time": 2831, "pitch": 58, "duration": 8, "velocity": 90}, {"time": 2831, "pitch": 63, "duration": 19, "velocity": 91}, {"time": 2837, "pitch": 46, "duration": 5, "velocity": 76}, {"time": 2843, "pitch": 51, "duration": 37, "velocity": 89}, {"time": 2849, "pitch": 58, "duration": 3, "velocity": 96}, {"time": 2855, "pitch": 58, "duration": 3, "velocity": 93}, {"time": 2855, "pitch": 63, "duration": 7, "velocity": 95}, {"time": 2855, "pitch": 67, "duration": 6, "velocity": 92}, {"time": 2861, "pitch": 58, "duration": 3, "velocity": 78}, {"time": 2867, "pitch": 58, "duration": 2, "velocity": 95}, {"time": 2867, "pitch": 67, "duration": 12, "velocity": 95}, {"time": 2873, "pitch": 58, "duration": 6, "velocity": 94}, {"time": 2879, "pitch": 44, "duration": 42, "velocity": 91}, {"time": 2879, "pitch": 56, "duration": 5, "velocity": 88}, {"time": 2879, "pitch": 60, "duration": 4, "velocity": 90}, {"time": 2879, "pitch": 63, "duration": 4, "velocity": 90}, {"time": 2885, "pitch": 51, "duration": 37, "velocity": 78}, {"time": 2891, "pitch": 60, "duration": 2, "velocity": 92}, {"time": 2891, "pitch": 63, "duration": 2, "velocity": 90}, {"time": 2897, "pitch": 56, "duration": 7, "velocity": 79}, {"time": 2903, "pitch": 60, "duration": 3, "velocity": 91}, {"time": 2903, "pitch": 63, "duration": 3, "velocity": 91}, {"time": 2903, "pitch": 68, "duration": 4, "velocity": 86}, {"time": 2909, "pitch": 56, "duration": 4, "velocity": 71}, {"time": 2915, "pitch": 60, "duration": 5, "velocity": 97}, {"time": 2915, "pitch": 63, "duration": 6, "velocity": 93}, {"time": 2921, "pitch": 56, "duration": 1, "velocity": 85}, {"time": 2927, "pitch": 43, "duration": 37, "velocity": 89}, {"time": 2927, "pitch": 58, "duration": 3, "velocity": 86}, {"time": 2927, "pitch": 63, "duration": 7, "velocity": 91}, {"time": 2927, "pitch": 67, "duration": 7, "velocity": 91}, {"time": 2933, "pitch": 58, "duration": 7, "velocity": 84}, {"time": 2939, "pitch": 63, "duration": 6, "velocity": 90}, {"time": 2939, "pitch": 67, "duration": 3, "velocity": 90}, {"time": 2945, "pitch": 58, "duration": 2, "velocity": 79}, {"time": 2951, "pitch": 63, "duration": 7, "velocity": 90}, {"time": 2951, "pitch": 67, "duration": 4, "velocity": 92}, {"time": 2957, "pitch": 58, "duration": 4, "velocity": 66}, {"time": 2963, "pitch": 63, "duration": 8, "velocity": 91}, {"time": 2963, "pitch": 67, "duration": 7, "velocity": 92}, {"time": 2969, "pitch": 43, "duration": 2, "velocity": 99}, {"time": 2975, "pitch": 41, "duration": 39, "velocity": 96}, {"time": 2975, "pitch": 60, "duration": 3, "velocity": 85}, {"time": 2975, "pitch": 65, "duration": 7, "velocity": 93}, {"time": 2981, "pitch": 60, "duration": 6, "velocity": 77}, {"time": 2987, "pitch": 65, "duration": 2, "velocity": 92}, {"time": 2987, "pitch": 68, "duration": 3, "velocity": 87}, {"time": 2993, "pitch": 60, "duration": 3, "velocity": 78}, {"time": 2999, "pitch": 65, "duration": 2, "velocity": 86}, {"time": 2999, "pitch": 68, "duration": 3, "velocity": 83}, {"time": 3005, "pitch": 60, "duration": 3, "velocity": 77}, {"time": 3011, "pitch": 60, "duration": 13, "velocity": 92}, {"time": 3011, "pitch": 65, "duration": 12, "velocity": 97}, {"time": 3011, "pitch": 68, "duration": 13, "velocity": 91}, {"time": 3017, "pitch": 41, "duration": 3, "velocity": 96}, {"time": 3023, "pitch": 39, "duration": 22, "velocity": 88}, {"time": 3023, "pitch": 58, "duration": 4, "velocity": 83}, {"time": 3023, "pitch": 63, "duration": 8, "velocity": 88}, {"time": 3023, "pitch": 67, "duration": 8, "velocity": 83}, {"time": 3029, "pitch": 58, "duration": 4, "velocity": 79}, {"time": 3035, "pitch": 63, "duration": 10, "velocity": 94}, {"time": 3035, "pitch": 67, "duration": 9, "velocity": 97}, {"time": 3041, "pitch": 58, "duration": 6, "velocity": 79}, {"time": 3047, "pitch": 39, "duration": 15, "velocity": 99}, {"time": 3047, "pitch": 58, "duration": 4, "velocity": 90}, {"time": 3047, "pitch": 63, "duration": 8, "velocity": 92}, {"time": 3053, "pitch": 58, "duration": 4, "velocity": 92}, {"time": 3059, "pitch": 63, "duration": 7, "velocity": 96}, {"time": 3059, "pitch": 67, "duration": 7, "velocity": 93}, {"time": 3065, "pitch": 58, "duration": 2, "velocity": 91}, {"time": 3071, "pitch": 37, "duration": 33, "velocity": 91}, {"time": 3071, "pitch": 56, "duration": 4, "velocity": 86}, {"time": 3071, "pitch": 61, "duration": 7, "velocity": 91}, {"time": 3077, "pitch": 56, "duration": 6, "velocity": 93}, {"time": 3083, "pitch": 61, "duration": 1, "velocity": 88}, {"time": 3083, "pitch": 65, "duration": 2, "velocity": 92}, {"time": 3089, "pitch": 56, "duration": 1, "velocity": 68}, {"time": 3095, "pitch": 61, "duration": 7, "velocity": 92}, {"time": 3095, "pitch": 65, "duration": 7, "velocity": 95}, {"time": 3101, "pitch": 56, "duration": 2, "velocity": 85}, {"time": 3107, "pitch": 56, "duration": 3, "velocity": 94}, {"time": 3107, "pitch": 61, "duration": 7, "velocity": 95}, {"time": 3107, "pitch": 65, "duration": 7, "velocity": 95}, {"time": 3113, "pitch": 56, "duration": 1, "velocity": 83}, {"time": 3119, "pitch": 48, "duration": 15, "velocity": 92}, {"time": 3119, "pitch": 60, "duration": 7, "velocity": 90}, {"time": 3119, "pitch": 63, "duration": 7, "velocity": 86}, {"time": 3125, "pitch": 55, "duration": 9, "velocity": 74}, {"time": 3131, "pitch": 60, "duration": 2, "velocity": 92}, {"time": 3131, "pitch": 63, "duration": 6, "velocity": 92}, {"time": 3131, "pitch": 67, "duration": 7, "velocity": 92}, {"time": 3137, "pitch": 60, "duration": 2, "velocity": 91}, {"time": 3143, "pitch": 41, "duration": 17, "velocity": 93}, {"time": 3143, "pitch": 53, "duration": 8, "velocity": 96}, {"time": 3143, "pitch": 56, "duration": 7, "velocity": 97}, {"time": 3149, "pitch": 48, "duration": 12, "velocity": 82}, {"time": 3155, "pitch": 53, "duration": 1, "velocity": 86}, {"time": 3155, "pitch": 65, "duration": 9, "velocity": 92}, {"time": 3161, "pitch": 53, "duration": 2, "velocity": 101}, {"time": 3167, "pitch": 46, "duration": 38, "velocity": 90}, {"time": 3167, "pitch": 56, "duration": 1, "velocity": 83}, {"time": 3167, "pitch": 58, "duration": 10, "velocity": 80}, {"time": 3167, "pitch": 61, "duration": 9, "velocity": 85}, {"time": 3173, "pitch": 53, "duration": 9, "velocity": 86}, {"time": 3179, "pitch": 58, "duration": 6, "velocity": 85}, {"time": 3179, "pitch": 61, "duration": 7, "velocity": 88}, {"time": 3185, "pitch": 53, "duration": 8, "velocity": 75}, {"time": 3191, "pitch": 61, "duration": 6, "velocity": 91}, {"time": 3191, "pitch": 65, "duration": 5, "velocity": 92}, {"time": 3197, "pitch": 53, "duration": 9, "velocity": 77}, {"time": 3203, "pitch": 58, "duration": 4, "velocity": 90}, {"time": 3203, "pitch": 61, "duration": 4, "velocity": 92}, {"time": 3203, "pitch": 65, "duration": 4, "velocity": 95}, {"time": 3209, "pitch": 46, "duration": 2, "velocity": 91}, {"time": 3215, "pitch": 39, "duration": 1, "velocity": 93}, {"time": 3215, "pitch": 58, "duration": 8, "velocity": 90}, {"time": 3215, "pitch": 63, "duration": 19, "velocity": 91}, {"time": 3221, "pitch": 46, "duration": 5, "velocity": 76}, {"time": 3227, "pitch": 51, "duration": 37, "velocity": 89}, {"time": 3233, "pitch": 58, "duration": 3, "velocity": 96}, {"time": 3239, "pitch": 58, "duration": 3, "velocity": 93}, {"time": 3239, "pitch": 63, "duration": 7, "velocity": 95}, {"time": 3239, "pitch": 67, "duration": 6, "velocity": 92}, {"time": 3245, "pitch": 58, "duration": 3, "velocity": 78}, {"time": 3251, "pitch": 58, "duration": 2, "velocity": 95}, {"time": 3251, "pitch": 67, "duration": 12, "velocity": 95}, {"time": 3257, "pitch": 58, "duration": 6, "velocity": 94}, {"time": 3263, "pitch": 41, "duration": 21, "velocity": 92}, {"time": 3274, "pitch": 61, "duration": 3, "velocity": 95}, {"time": 3274, "pitch": 68, "duration": 10, "velocity": 95}, {"time": 3274, "pitch": 65, "duration": 10, "velocity": 104}, {"time": 3280, "pitch": 61, "duration": 4, "velocity": 91}, {"time": 3286, "pitch": 63, "duration": 4, "velocity": 89}, {"time": 3286, "pitch": 67, "duration": 8, "velocity": 90}, {"time": 3286, "pitch": 39, "duration": 23, "velocity": 95}, {"time": 3292, "pitch": 63, "duration": 3, "velocity": 82}, {"time": 3298, "pitch": 67, "duration": 5, "velocity": 99}, {"time": 3298, "pitch": 63, "duration": 3, "velocity": 96}, {"time": 3304, "pitch": 63, "duration": 5, "velocity": 91}, {"time": 3310, "pitch": 64, "duration": 8, "velocity": 91}, {"time": 3310, "pitch": 71, "duration": 8, "velocity": 88}, {"time": 3310, "pitch": 68, "duration": 7, "velocity": 88}, {"time": 3310, "pitch": 40, "duration": 22, "velocity": 101}, {"time": 3316, "pitch": 47, "duration": 16, "velocity": 74}, {"time": 3322, "pitch": 76, "duration": 8, "velocity": 90}, {"time": 3322, "pitch": 71, "duration": 8, "velocity": 91}, {"time": 3322, "pitch": 68, "duration": 5, "velocity": 91}, {"time": 3322, "pitch": 64, "duration": 3, "velocity": 91}, {"time": 3328, "pitch": 64, "duration": 4, "velocity": 101}, {"time": 3328, "pitch": 68, "duration": 1, "velocity": 79}, {"time": 3334, "pitch": 71, "duration": 15, "velocity": 92}, {"time": 3334, "pitch": 64, "duration": 15, "velocity": 94}, {"time": 3334, "pitch": 76, "duration": 15, "velocity": 90}, {"time": 3334, "pitch": 68, "duration": 15, "velocity": 91}, {"time": 3334, "pitch": 40, "duration": 38, "velocity": 94}, {"time": 3334, "pitch": 47, "duration": 36, "velocity": 92}, {"time": 3350, "pitch": 71, "duration": 20, "velocity": 97}, {"time": 3350, "pitch": 76, "duration": 20, "velocity": 91}, {"time": 3350, "pitch": 68, "duration": 19, "velocity": 99}, {"time": 3371, "pitch": 45, "duration": 42, "velocity": 91}, {"time": 3371, "pitch": 57, "duration": 5, "velocity": 88}, {"time": 3371, "pitch": 61, "duration": 4, "velocity": 90}, {"time": 3371, "pitch": 64, "duration": 4, "velocity": 90}, {"time": 3377, "pitch": 52, "duration": 37, "velocity": 78}, {"time": 3383, "pitch": 61, "duration": 2, "velocity": 92}, {"time": 3383, "pitch": 64, "duration": 2, "velocity": 90}, {"time": 3389, "pitch": 57, "duration": 7, "velocity": 79}, {"time": 3395, "pitch": 61, "duration": 3, "velocity": 91}, {"time": 3395, "pitch": 64, "duration": 3, "velocity": 91}, {"time": 3395, "pitch": 69, "duration": 4, "velocity": 86}, {"time": 3401, "pitch": 57, "duration": 4, "velocity": 71}, {"time": 3407, "pitch": 61, "duration": 5, "velocity": 97}, {"time": 3407, "pitch": 64, "duration": 6, "velocity": 93}, {"time": 3413, "pitch": 57, "duration": 1, "velocity": 85}, {"time": 3419, "pitch": 44, "duration": 37, "velocity": 89}, {"time": 3419, "pitch": 59, "duration": 3, "velocity": 86}, {"time": 3419, "pitch": 64, "duration": 7, "velocity": 91}, {"time": 3419, "pitch": 68, "duration": 7, "velocity": 91}, {"time": 3425, "pitch": 59, "duration": 7, "velocity": 84}, {"time": 3431, "pitch": 64, "duration": 6, "velocity": 90}, {"time": 3431, "pitch": 68, "duration": 3, "velocity": 90}, {"time": 3437, "pitch": 59, "duration": 2, "velocity": 79}, {"time": 3443, "pitch": 64, "duration": 7, "velocity": 90}, {"time": 3443, "pitch": 68, "duration": 4, "velocity": 92}, {"time": 3449, "pitch": 59, "duration": 4, "velocity": 66}, {"time": 3455, "pitch": 64, "duration": 8, "velocity": 91}, {"time": 3455, "pitch": 68, "duration": 7, "velocity": 92}, {"time": 3461, "pitch": 44, "duration": 2, "velocity": 99}, {"time": 3467, "pitch": 42, "duration": 39, "velocity": 96}, {"time": 3467, "pitch": 61, "duration": 3, "velocity": 85}, {"time": 3467, "pitch": 66, "duration": 7, "velocity": 93}, {"time": 3473, "pitch": 61, "duration": 6, "velocity": 77}, {"time": 3479, "pitch": 66, "duration": 2, "velocity": 92}, {"time": 3479, "pitch": 69, "duration": 3, "velocity": 87}, {"time": 3485, "pitch": 61, "duration": 3, "velocity": 78}, {"time": 3491, "pitch": 66, "duration": 2, "velocity": 86}, {"time": 3491, "pitch": 69, "duration": 3, "velocity": 83}, {"time": 3497, "pitch": 61, "duration": 3, "velocity": 77}, {"time": 3503, "pitch": 61, "duration": 13, "velocity": 92}, {"time": 3503, "pitch": 66, "duration": 12, "velocity": 97}, {"time": 3503, "pitch": 69, "duration": 13, "velocity": 91}, {"time": 3509, "pitch": 42, "duration": 3, "velocity": 96}, {"time": 3515, "pitch": 40, "duration": 22, "velocity": 88}, {"time": 3515, "pitch": 59, "duration": 4, "velocity": 83}, {"time": 3515, "pitch": 64, "duration": 8, "velocity": 88}, {"time": 3515, "pitch": 68, "duration": 8, "velocity": 83}, {"time": 3521, "pitch": 59, "duration": 4, "velocity": 79}, {"time": 3527, "pitch": 64, "duration": 10, "velocity": 94}, {"time": 3527, "pitch": 68, "duration": 9, "velocity": 97}, {"time": 3533, "pitch": 59, "duration": 6, "velocity": 79}, {"time": 3539, "pitch": 40, "duration": 15, "velocity": 99}, {"time": 3539, "pitch": 59, "duration": 4, "velocity": 90}, {"time": 3539, "pitch": 64, "duration": 8, "velocity": 92}, {"time": 3545, "pitch": 59, "duration": 4, "velocity": 92}, {"time": 3551, "pitch": 64, "duration": 7, "velocity": 96}, {"time": 3551, "pitch": 68, "duration": 7, "velocity": 93}, {"time": 3557, "pitch": 59, "duration": 2, "velocity": 91}, {"time": 3563, "pitch": 38, "duration": 33, "velocity": 91}, {"time": 3563, "pitch": 57, "duration": 4, "velocity": 86}, {"time": 3563, "pitch": 62, "duration": 7, "velocity": 91}, {"time": 3569, "pitch": 57, "duration": 6, "velocity": 93}, {"time": 3575, "pitch": 62, "duration": 1, "velocity": 88}, {"time": 3575, "pitch": 66, "duration": 2, "velocity": 92}, {"time": 3581, "pitch": 57, "duration": 1, "velocity": 68}, {"time": 3587, "pitch": 62, "duration": 7, "velocity": 92}, {"time": 3587, "pitch": 66, "duration": 7, "velocity": 95}, {"time": 3593, "pitch": 57, "duration": 2, "velocity": 85}, {"time": 3599, "pitch": 57, "duration": 3, "velocity": 94}, {"time": 3599, "pitch": 62, "duration": 7, "velocity": 95}, {"time": 3599, "pitch": 66, "duration": 7, "velocity": 95}, {"time": 3605, "pitch": 57, "duration": 1, "velocity": 83}, {"time": 3611, "pitch": 49, "duration": 15, "velocity": 92}, {"time": 3611, "pitch": 61, "duration": 7, "velocity": 90}, {"time": 3611, "pitch": 64, "duration": 7, "velocity": 86}, {"time": 3617, "pitch": 56, "duration": 9, "velocity": 74}, {"time": 3623, "pitch": 61, "duration": 2, "velocity": 92}, {"time": 3623, "pitch": 64, "duration": 6, "velocity": 92}, {"time": 3623, "pitch": 68, "duration": 7, "velocity": 92}, {"time": 3629, "pitch": 61, "duration": 2, "velocity": 91}, {"time": 3635, "pitch": 42, "duration": 17, "velocity": 93}, {"time": 3635, "pitch": 54, "duration": 8, "velocity": 96}, {"time": 3635, "pitch": 57, "duration": 7, "velocity": 97}, {"time": 3641, "pitch": 49, "duration": 12, "velocity": 82}, {"time": 3647, "pitch": 54, "duration": 1, "velocity": 86}, {"time": 3647, "pitch": 66, "duration": 9, "velocity": 92}, {"time": 3653, "pitch": 54, "duration": 2, "velocity": 101}, {"time": 3659, "pitch": 47, "duration": 38, "velocity": 90}, {"time": 3659, "pitch": 57, "duration": 1, "velocity": 83}, {"time": 3659, "pitch": 59, "duration": 10, "velocity": 80}, {"time": 3659, "pitch": 62, "duration": 9, "velocity": 85}, {"time": 3665, "pitch": 54, "duration": 9, "velocity": 86}, {"time": 3671, "pitch": 59, "duration": 6, "velocity": 85}, {"time": 3671, "pitch": 62, "duration": 7, "velocity": 88}, {"time": 3677, "pitch": 54, "duration": 8, "velocity": 75}, {"time": 3683, "pitch": 62, "duration": 6, "velocity": 91}, {"time": 3683, "pitch": 66, "duration": 5, "velocity": 92}, {"time": 3689, "pitch": 54, "duration": 9, "velocity": 77}, {"time": 3695, "pitch": 59, "duration": 4, "velocity": 90}, {"time": 3695, "pitch": 62, "duration": 4, "velocity": 92}, {"time": 3695, "pitch": 66, "duration": 4, "velocity": 95}, {"time": 3701, "pitch": 47, "duration": 2, "velocity": 91}, {"time": 3707, "pitch": 40, "duration": 1, "velocity": 93}, {"time": 3707, "pitch": 59, "duration": 8, "velocity": 90}, {"time": 3707, "pitch": 64, "duration": 19, "velocity": 91}, {"time": 3713, "pitch": 47, "duration": 5, "velocity": 76}, {"time": 3719, "pitch": 52, "duration": 37, "velocity": 89}, {"time": 3725, "pitch": 59, "duration": 3, "velocity": 96}, {"time": 3731, "pitch": 59, "duration": 3, "velocity": 93}, {"time": 3731, "pitch": 64, "duration": 7, "velocity": 95}, {"time": 3731, "pitch": 68, "duration": 6, "velocity": 92}, {"time": 3737, "pitch": 59, "duration": 3, "velocity": 78}, {"time": 3743, "pitch": 59, "duration": 2, "velocity": 95}, {"time": 3743, "pitch": 68, "duration": 12, "velocity": 95}, {"time": 3749, "pitch": 59, "duration": 6, "velocity": 94}, {"time": 3755, "pitch": 45, "duration": 42, "velocity": 91}, {"time": 3755, "pitch": 57, "duration": 5, "velocity": 88}, {"time": 3755, "pitch": 61, "duration": 4, "velocity": 90}, {"time": 3755, "pitch": 64, "duration": 4, "velocity": 90}, {"time": 3761, "pitch": 52, "duration": 37, "velocity": 78}, {"time": 3767, "pitch": 61, "duration": 2, "velocity": 92}, {"time": 3767, "pitch": 64, "duration": 2, "velocity": 90}, {"time": 3773, "pitch": 57, "duration": 7, "velocity": 79}, {"time": 3779, "pitch": 61, "duration": 3, "velocity": 91}, {"time": 3779, "pitch": 64, "duration": 3, "velocity": 91}, {"time": 3779, "pitch": 69, "duration": 4, "velocity": 86}, {"time": 3785, "pitch": 57, "duration": 4, "velocity": 71}, {"time": 3791, "pitch": 61, "duration": 5, "velocity": 97}, {"time": 3791, "pitch": 64, "duration": 6, "velocity": 93}, {"time": 3797, "pitch": 57, "duration": 1, "velocity": 85}, {"time": 3803, "pitch": 44, "duration": 37, "velocity": 89}, {"time": 3803, "pitch": 59, "duration": 3, "velocity": 86}, {"time": 3803, "pitch": 64, "duration": 7, "velocity": 91}, {"time": 3803, "pitch": 68, "duration": 7, "velocity": 91}, {"time": 3809, "pitch": 59, "duration": 7, "velocity": 84}, {"time": 3815, "pitch": 64, "duration": 6, "velocity": 90}, {"time": 3815, "pitch": 68, "duration": 3, "velocity": 90}, {"time": 3821, "pitch": 59, "duration": 2, "velocity": 79}, {"time": 3827, "pitch": 64, "duration": 7, "velocity": 90}, {"time": 3827, "pitch": 68, "duration": 4, "velocity": 92}, {"time": 3833, "pitch": 59, "duration": 4, "velocity": 66}, {"time": 3839, "pitch": 64, "duration": 8, "velocity": 91}, {"time": 3839, "pitch": 68, "duration": 7, "velocity": 92}, {"time": 3845, "pitch": 44, "duration": 2, "velocity": 99}, {"time": 3851, "pitch": 42, "duration": 39, "velocity": 96}, {"time": 3851, "pitch": 61, "duration": 3, "velocity": 85}, {"time": 3851, "pitch": 66, "duration": 7, "velocity": 93}, {"time": 3857, "pitch": 61, "duration": 6, "velocity": 77}, {"time": 3863, "pitch": 66, "duration": 2, "velocity": 92}, {"time": 3863, "pitch": 69, "duration": 3, "velocity": 87}, {"time": 3869, "pitch": 61, "duration": 3, "velocity": 78}, {"time": 3875, "pitch": 66, "duration": 2, "velocity": 86}, {"time": 3875, "pitch": 69, "duration": 3, "velocity": 83}, {"time": 3881, "pitch": 61, "duration": 3, "velocity": 77}, {"time": 3887, "pitch": 61, "duration": 13, "velocity": 92}, {"time": 3887, "pitch": 66, "duration": 12, "velocity": 97}, {"time": 3887, "pitch": 69, "duration": 13, "velocity": 91}, {"time": 3893, "pitch": 42, "duration": 3, "velocity": 96}, {"time": 3899, "pitch": 40, "duration": 22, "velocity": 88}, {"time": 3899, "pitch": 59, "duration": 4, "velocity": 83}, {"time": 3899, "pitch": 64, "duration": 8, "velocity": 88}, {"time": 3899, "pitch": 68, "duration": 8, "velocity": 83}, {"time": 3905, "pitch": 59, "duration": 4, "velocity": 79}, {"time": 3911, "pitch": 64, "duration": 10, "velocity": 94}, {"time": 3911, "pitch": 68, "duration": 9, "velocity": 97}, {"time": 3917, "pitch": 59, "duration": 6, "velocity": 79}, {"time": 3923, "pitch": 40, "duration": 15, "velocity": 99}, {"time": 3923, "pitch": 59, "duration": 4, "velocity": 90}, {"time": 3923, "pitch": 64, "duration": 8, "velocity": 92}, {"time": 3929, "pitch": 59, "duration": 4, "velocity": 92}, {"time": 3935, "pitch": 64, "duration": 7, "velocity": 96}, {"time": 3935, "pitch": 68, "duration": 7, "velocity": 93}, {"time": 3941, "pitch": 59, "duration": 2, "velocity": 91}, {"time": 3947, "pitch": 38, "duration": 33, "velocity": 91}, {"time": 3947, "pitch": 57, "duration": 4, "velocity": 86}, {"time": 3947, "pitch": 62, "duration": 7, "velocity": 91}, {"time": 3953, "pitch": 57, "duration": 6, "velocity": 93}, {"time": 3959, "pitch": 62, "duration": 1, "velocity": 88}, {"time": 3959, "pitch": 66, "duration": 2, "velocity": 92}, {"time": 3965, "pitch": 57, "duration": 1, "velocity": 68}, {"time": 3971, "pitch": 62, "duration": 7, "velocity": 92}, {"time": 3971, "pitch": 66, "duration": 7, "velocity": 95}, {"time": 3977, "pitch": 57, "duration": 2, "velocity": 85}, {"time": 3983, "pitch": 57, "duration": 3, "velocity": 94}, {"time": 3983, "pitch": 62, "duration": 7, "velocity": 95}, {"time": 3983, "pitch": 66, "duration": 7, "velocity": 95}, {"time": 3989, "pitch": 57, "duration": 1, "velocity": 83}, {"time": 3995, "pitch": 49, "duration": 15, "velocity": 92}, {"time": 3995, "pitch": 61, "duration": 7, "velocity": 90}, {"time": 3995, "pitch": 64, "duration": 7, "velocity": 86}, {"time": 4001, "pitch": 56, "duration": 9, "velocity": 74}, {"time": 4007, "pitch": 61, "duration": 2, "velocity": 92}, {"time": 4007, "pitch": 64, "duration": 6, "velocity": 92}, {"time": 4007, "pitch": 68, "duration": 7, "velocity": 92}, {"time": 4013, "pitch": 61, "duration": 2, "velocity": 91}, {"time": 4019, "pitch": 42, "duration": 17, "velocity": 93}, {"time": 4019, "pitch": 54, "duration": 8, "velocity": 96}, {"time": 4019, "pitch": 57, "duration": 7, "velocity": 97}, {"time": 4025, "pitch": 49, "duration": 12, "velocity": 82}, {"time": 4031, "pitch": 54, "duration": 1, "velocity": 86}, {"time": 4031, "pitch": 66, "duration": 9, "velocity": 92}, {"time": 4037, "pitch": 54, "duration": 2, "velocity": 101}, {"time": 4043, "pitch": 47, "duration": 38, "velocity": 90}, {"time": 4043, "pitch": 57, "duration": 1, "velocity": 83}, {"time": 4043, "pitch": 59, "duration": 10, "velocity": 80}, {"time": 4043, "pitch": 62, "duration": 9, "velocity": 85}, {"time": 4049, "pitch": 54, "duration": 9, "velocity": 86}, {"time": 4055, "pitch": 59, "duration": 6, "velocity": 85}, {"time": 4055, "pitch": 62, "duration": 7, "velocity": 88}, {"time": 4061, "pitch": 54, "duration": 8, "velocity": 75}, {"time": 4067, "pitch": 62, "duration": 6, "velocity": 91}, {"time": 4067, "pitch": 66, "duration": 5, "velocity": 92}, {"time": 4073, "pitch": 54, "duration": 9, "velocity": 77}, {"time": 4079, "pitch": 59, "duration": 4, "velocity": 90}, {"time": 4079, "pitch": 62, "duration": 4, "velocity": 92}, {"time": 4079, "pitch": 66, "duration": 4, "velocity": 95}, {"time": 4085, "pitch": 47, "duration": 2, "velocity": 91}, {"time": 4090, "pitch": 64, "duration": 63, "velocity": 80}, {"time": 4091, "pitch": 68, "duration": 62, "velocity": 77}, {"time": 4091, "pitch": 40, "duration": 63, "velocity": 91}, {"time": 4092, "pitch": 71, "duration": 61, "velocity": 82}, {"time": 4092, "pitch": 76, "duration": 61, "velocity": 91}, {"time": 4163, "pitch": 45, "duration": 38, "velocity": 86}, {"time": 4169, "pitch": 52, "duration": 10, "velocity": 78}, {"time": 4175, "pitch": 57, "duration": 3, "velocity": 84}, {"time": 4175, "pitch": 61, "duration": 7, "velocity": 84}, {"time": 4181, "pitch": 57, "duration": 7, "velocity": 83}, {"time": 4187, "pitch": 61, "duration": 5, "velocity": 83}, {"time": 4187, "pitch": 64, "duration": 5, "velocity": 84}, {"time": 4193, "pitch": 52, "duration": 6, "velocity": 55}, {"time": 4199, "pitch": 61, "duration": 6, "velocity": 82}, {"time": 4199, "pitch": 64, "duration": 7, "velocity": 88}, {"time": 4205, "pitch": 57, "duration": 2, "velocity": 71}, {"time": 4211, "pitch": 44, "duration": 40, "velocity": 83}, {"time": 4211, "pitch": 59, "duration": 7, "velocity": 77}, {"time": 4211, "pitch": 64, "duration": 8, "velocity": 86}, {"time": 4217, "pitch": 52, "duration": 10, "velocity": 64}, {"time": 4223, "pitch": 59, "duration": 4, "velocity": 79}, {"time": 4223, "pitch": 64, "duration": 4, "velocity": 82}, {"time": 4229, "pitch": 52, "duration": 8, "velocity": 57}, {"time": 4235, "pitch": 59, "duration": 6, "velocity": 75}, {"time": 4235, "pitch": 64, "duration": 6, "velocity": 80}, {"time": 4241, "pitch": 52, "duration": 8, "velocity": 57}, {"time": 4247, "pitch": 59, "duration": 2, "velocity": 89}, {"time": 4247, "pitch": 64, "duration": 12, "velocity": 89}, {"time": 4253, "pitch": 59, "duration": 2, "velocity": 78}, {"time": 4259, "pitch": 42, "duration": 38, "velocity": 79}, {"time": 4259, "pitch": 61, "duration": 7, "velocity": 79}, {"time": 4259, "pitch": 66, "duration": 5, "velocity": 84}, {"time": 4265, "pitch": 49, "duration": 19, "velocity": 74}, {"time": 4271, "pitch": 61, "duration": 3, "velocity": 83}, {"time": 4271, "pitch": 66, "duration": 3, "velocity": 89}, {"time": 4283, "pitch": 61, "duration": 5, "velocity": 81}, {"time": 4283, "pitch": 64, "duration": 6, "velocity": 84}, {"time": 4289, "pitch": 49, "duration": 7, "velocity": 74}, {"time": 4295, "pitch": 61, "duration": 3, "velocity": 87}, {"time": 4295, "pitch": 66, "duration": 5, "velocity": 91}, {"time": 4307, "pitch": 52, "duration": 38, "velocity": 87}, {"time": 4307, "pitch": 59, "duration": 4, "velocity": 78}, {"time": 4307, "pitch": 64, "duration": 7, "velocity": 85}, {"time": 4313, "pitch": 59, "duration": 2, "velocity": 79}, {"time": 4319, "pitch": 59, "duration": 2, "velocity": 78}, {"time": 4319, "pitch": 64, "duration": 3, "velocity": 81}, {"time": 4331, "pitch": 59, "duration": 2, "velocity": 80}, {"time": 4331, "pitch": 64, "duration": 5, "velocity": 82}, {"time": 4337, "pitch": 59, "duration": 3, "velocity": 79}, {"time": 4343, "pitch": 59, "duration": 3, "velocity": 86}, {"time": 4343, "pitch": 64, "duration": 4, "velocity": 90}, {"time": 4355, "pitch": 50, "duration": 28, "velocity": 90}, {"time": 4355, "pitch": 57, "duration": 3, "velocity": 87}, {"time": 4355, "pitch": 62, "duration": 8, "velocity": 87}, {"time": 4361, "pitch": 57, "duration": 7, "velocity": 85}, {"time": 4367, "pitch": 62, "duration": 7, "velocity": 81}, {"time": 4373, "pitch": 57, "duration": 7, "velocity": 77}, {"time": 4379, "pitch": 62, "duration": 7, "velocity": 84}, {"time": 4379, "pitch": 66, "duration": 7, "velocity": 90}, {"time": 4385, "pitch": 57, "duration": 3, "velocity": 59}, {"time": 4391, "pitch": 57, "duration": 3, "velocity": 90}, {"time": 4391, "pitch": 62, "duration": 3, "velocity": 91}, {"time": 4391, "pitch": 66, "duration": 4, "velocity": 91}, {"time": 4403, "pitch": 49, "duration": 15, "velocity": 85}, {"time": 4403, "pitch": 61, "duration": 9, "velocity": 83}, {"time": 4403, "pitch": 64, "duration": 9, "velocity": 84}, {"time": 4409, "pitch": 56, "duration": 7, "velocity": 79}, {"time": 4415, "pitch": 61, "duration": 3, "velocity": 89}, {"time": 4415, "pitch": 64, "duration": 10, "velocity": 90}, {"time": 4415, "pitch": 68, "duration": 6, "velocity": 87}, {"time": 4421, "pitch": 61, "duration": 3, "velocity": 78}, {"time": 4427, "pitch": 42, "duration": 13, "velocity": 88}, {"time": 4427, "pitch": 61, "duration": 9, "velocity": 87}, {"time": 4427, "pitch": 66, "duration": 8, "velocity": 90}, {"time": 4433, "pitch": 49, "duration": 7, "velocity": 69}, {"time": 4439, "pitch": 61, "duration": 2, "velocity": 86}, {"time": 4439, "pitch": 66, "duration": 4, "velocity": 90}, {"time": 4439, "pitch": 69, "duration": 4, "velocity": 84}, {"time": 4451, "pitch": 47, "duration": 38, "velocity": 87}, {"time": 4451, "pitch": 57, "duration": 10, "velocity": 85}, {"time": 4451, "pitch": 62, "duration": 10, "velocity": 85}, {"time": 4457, "pitch": 54, "duration": 8, "velocity": 75}, {"time": 4463, "pitch": 57, "duration": 6, "velocity": 85}, {"time": 4463, "pitch": 62, "duration": 7, "velocity": 84}, {"time": 4469, "pitch": 54, "duration": 7, "velocity": 75}, {"time": 4475, "pitch": 59, "duration": 6, "velocity": 80}, {"time": 4475, "pitch": 62, "duration": 7, "velocity": 84}, {"time": 4481, "pitch": 54, "duration": 7, "velocity": 74}, {"time": 4487, "pitch": 57, "duration": 3, "velocity": 86}, {"time": 4487, "pitch": 62, "duration": 10, "velocity": 86}, {"time": 4493, "pitch": 47, "duration": 2, "velocity": 84}, {"time": 4499, "pitch": 40, "duration": 38, "velocity": 90}, {"time": 4499, "pitch": 59, "duration": 7, "velocity": 83}, {"time": 4499, "pitch": 64, "duration": 7, "velocity": 84}, {"time": 4505, "pitch": 47, "duration": 8, "velocity": 74}, {"time": 4511, "pitch": 59, "duration": 7, "velocity": 83}, {"time": 4511, "pitch": 64, "duration": 9, "velocity": 85}, {"time": 4517, "pitch": 47, "duration": 20, "velocity": 70}, {"time": 4523, "pitch": 59, "duration": 4, "velocity": 77}, {"time": 4523, "pitch": 64, "duration": 8, "velocity": 79}, {"time": 4535, "pitch": 64, "duration": 3, "velocity": 86}, {"time": 4535, "pitch": 68, "duration": 3, "velocity": 85}, {"time": 4545, "pitch": 55, "duration": 11, "velocity": 79}, {"time": 4546, "pitch": 59, "duration": 14, "velocity": 85}, {"time": 4547, "pitch": 43, "duration": 56, "velocity": 90}, {"time": 4547, "pitch": 62, "duration": 11, "velocity": 80}, {"time": 4547, "pitch": 67, "duration": 9, "velocity": 90}, {"time": 4553, "pitch": 50, "duration": 45, "velocity": 75}, {"time": 4559, "pitch": 55, "duration": 38, "velocity": 79}, {"time": 4566, "pitch": 62, "duration": 49, "velocity": 87}, {"time": 4574, "pitch": 67, "duration": 43, "velocity": 84}, {"time": 4616, "pitch": 45, "duration": 35, "velocity": 86}, {"time": 4620, "pitch": 52, "duration": 30, "velocity": 79}, {"time": 4624, "pitch": 59, "duration": 4, "velocity": 82}, {"time": 4627, "pitch": 61, "duration": 4, "velocity": 75}, {"time": 4630, "pitch": 64, "duration": 6, "velocity": 77}, {"time": 4634, "pitch": 57, "duration": 7, "velocity": 59}], "annotations": [{"time": 179, "annotation": {"number": 64, "value": 0}, "group": "control_change"}, {"time": 198, "annotation": {"number": 64, "value": 127}, "group": "control_change"}, {"time": 239, "annotation": {"number": 64, "value": 0}, "group": "control_change"}, {"time": 241, "annotation": {"number": 64, "value": 127}, "group": "control_change"}, {"time": 284, "annotation": {"number": 64, "value": 0}, "group": "control_change"}, {"time": 287, "annotation": {"number": 64, "value": 127}, "group": "control_change"}, {"time": 334, "annotation": {"number": 64, "value": 0}, "group": "control_change"}, {"time": 337, "annotation": {"number": 64, "value": 127}, "group": "control_change"}, {"time": 382, "annotation": {"number": 64, "value": 0}, "group": "control_change"}, {"time": 388, "annotation": {"number": 64, "value": 127}, "group": "control_change"}, {"time": 430, "annotation": {"number": 64, "value": 0}, "group": "control_change"}, {"time": 436, "annotation": {"number": 64, "value": 127}, "group": "control_change"}, {"time": 455, "annotation": {"number": 64, "value": 0}, "group": "control_change"}, {"time": 459, "annotation": {"number": 64, "value": 127}, "group": "control_change"}, {"time": 478, "annotation": {"number": 64, "value": 0}, "group": "control_change"}, {"time": 484, "annotation": {"number": 64, "value": 127}, "group": "control_change"}, {"time": 524, "annotation": {"number": 64, "value": 0}, "group": "control_change"}, {"time": 528, "annotation": {"number": 64, "value": 127}, "group": "control_change"}, {"time": 573, "annotation": {"number": 64, "value": 0}, "group": "control_change"}, {"time": 577, "annotation": {"number": 64, "value": 127}, "group": "control_change"}, {"time": 622, "annotation": {"number": 64, "value": 0}, "group": "control_change"}, {"time": 630, "annotation": {"number": 64, "value": 127}, "group": "control_change"}, {"time": 672, "annotation": {"number": 64, "value": 127}, "group": "control_change"}, {"time": 688, "annotation": {"number": 64, "value": 0}, "group": "control_change"}, {"time": 699, "annotation": {"number": 64, "value": 127}, "group": "control_change"}, {"time": 718, "annotation": {"number": 64, "value": 0}, "group": "control_change"}, {"time": 723, "annotation": {"number": 64, "value": 127}, "group": "control_change"}, {"time": 765, "annotation": {"number": 64, "value": 0}, "group": "control_change"}, {"time": 772, "annotation": {"number": 64, "value": 127}, "group": "control_change"}, {"time": 813, "annotation": {"number": 64, "value": 0}, "group": "control_change"}, {"time": 819, "annotation": {"number": 64, "value": 127}, "group": "control_change"}, {"time": 840, "annotation": {"number": 64, "value": 0}, "group": "control_change"}, {"time": 845, "annotation": {"number": 64, "value": 127}, "group": "control_change"}, {"time": 862, "annotation": {"number": 64, "value": 0}, "group": "control_change"}, {"time": 869, "annotation": {"number": 64, "value": 127}, "group": "control_change"}, {"time": 908, "annotation": {"number": 64, "value": 0}, "group": "control_change"}, {"time": 910, "annotation": {"number": 64, "value": 127}, "group": "control_change"}, {"time": 957, "annotation": {"number": 64, "value": 0}, "group": "control_change"}, {"time": 965, "annotation": {"number": 64, "value": 127}, "group": "control_change"}, {"time": 1006, "annotation": {"number": 64, "value": 0}, "group": "control_change"}, {"time": 1012, "annotation": {"number": 64, "value": 127}, "group": "control_change"}, {"time": 1055, "annotation": {"number": 64, "value": 0}, "group": "control_change"}, {"time": 1061, "annotation": {"number": 64, "value": 127}, "group": "control_change"}, {"time": 1104, "annotation": {"number": 64, "value": 0}, "group": "control_change"}, {"time": 1113, "annotation": {"number": 64, "value": 127}, "group": "control_change"}, {"time": 1153, "annotation": {"number": 64, "value": 0}, "group": "control_change"}, {"time": 1158, "annotation": {"number": 64, "value": 127}, "group": "control_change"}, {"time": 1197, "annotation": {"number": 64, "value": 0}, "group": "control_change"}, {"time": 1203, "annotation": {"number": 64, "value": 127}, "group": "control_change"}, {"time": 1222, "annotation": {"number": 64, "value": 0}, "group": "control_change"}, {"time": 1227, "annotation": {"number": 64, "value": 127}, "group": "control_change"}, {"time": 1248, "annotation": {"number": 64, "value": 0}, "group": "control_change"}, {"time": 1254, "annotation": {"number": 64, "value": 127}, "group": "control_change"}, {"time": 1293, "annotation": {"number": 64, "value": 0}, "group": "control_change"}, {"time": 1301, "annotation": {"number": 64, "value": 127}, "group": "control_change"}, {"time": 1343, "annotation": {"number": 64, "value": 127}, "group": "control_change"}, {"time": 1376, "annotation": {"number": 64, "value": 0}, "group": "control_change"}, {"time": 1379, "annotation": {"number": 64, "value": 127}, "group": "control_change"}, {"time": 1391, "annotation": {"number": 64, "value": 0}, "group": "control_change"}, {"time": 1396, "annotation": {"number": 64, "value": 127}, "group": "control_change"}, {"time": 1438, "annotation": {"number": 64, "value": 0}, "group": "control_change"}, {"time": 1442, "annotation": {"number": 64, "value": 127}, "group": "control_change"}, {"time": 1487, "annotation": {"number": 64, "value": 0}, "group": "control_change"}, {"time": 1493, "annotation": {"number": 64, "value": 127}, "group": "control_change"}, {"time": 1533, "annotation": {"number": 64, "value": 0}, "group": "control_change"}, {"time": 1538, "annotation": {"number": 64, "value": 127}, "group": "control_change"}, {"time": 1583, "annotation": {"number": 64, "value": 0}, "group": "control_change"}, {"time": 1588, "annotation": {"number": 64, "value": 127}, "group": "control_change"}, {"time": 1607, "annotation": {"number": 64, "value": 0}, "group": "control_change"}, {"time": 1612, "annotation": {"number": 64, "value": 127}, "group": "control_change"}, {"time": 1630, "annotation": {"number": 64, "value": 0}, "group": "control_change"}, {"time": 1636, "annotation": {"number": 64, "value": 127}, "group": "control_change"}, {"time": 1676, "annotation": {"number": 64, "value": 0}, "group": "control_change"}, {"time": 1679, "annotation": {"number": 64, "value": 127}, "group": "control_change"}, {"time": 1725, "annotation": {"number": 64, "value": 0}, "group": "control_change"}, {"time": 1734, "annotation": {"number": 64, "value": 127}, "group": "control_change"}, {"time": 1775, "annotation": {"number": 64, "value": 0}, "group": "control_change"}, {"time": 1777, "annotation": {"number": 64, "value": 127}, "group": "control_change"}, {"time": 1820, "annotation": {"number": 64, "value": 0}, "group": "control_change"}, {"time": 1823, "annotation": {"number": 64, "value": 127}, "group": "control_change"}, {"time": 1870, "annotation": {"number": 64, "value": 0}, "group": "control_change"}, {"time": 1873, "annotation": {"number": 64, "value": 127}, "group": "control_change"}, {"time": 1918, "annotation": {"number": 64, "value": 0}, "group": "control_change"}, {"time": 1924, "annotation": {"number": 64, "value": 127}, "group": "control_change"}, {"time": 1966, "annotation": {"number": 64, "value": 0}, "group": "control_change"}, {"time": 1972, "annotation": {"number": 64, "value": 127}, "group": "control_change"}, {"time": 1991, "annotation": {"number": 64, "value": 0}, "group": "control_change"}, {"time": 1995, "annotation": {"number": 64, "value": 127}, "group": "control_change"}, {"time": 2014, "annotation": {"number": 64, "value": 0}, "group": "control_change"}, {"time": 2020, "annotation": {"number": 64, "value": 127}, "group": "control_change"}, {"time": 2060, "annotation": {"number": 64, "value": 0}, "group": "control_change"}, {"time": 2064, "annotation": {"number": 64, "value": 127}, "group": "control_change"}, {"time": 2109, "annotation": {"number": 64, "value": 0}, "group": "control_change"}, {"time": 2117, "annotation": {"number": 64, "value": 127}, "group": "control_change"}, {"time": 2158, "annotation": {"number": 64, "value": 0}, "group": "control_change"}, {"time": 2164, "annotation": {"number": 64, "value": 127}, "group": "control_change"}, {"time": 2207, "annotation": {"number": 64, "value": 0}, "group": "control_change"}, {"time": 2213, "annotation": {"number": 64, "value": 127}, "group": "control_change"}, {"time": 2256, "annotation": {"number": 64, "value": 0}, "group": "control_change"}, {"time": 2265, "annotation": {"number": 64, "value": 127}, "group": "control_change"}, {"time": 2305, "annotation": {"number": 64, "value": 0}, "group": "control_change"}, {"time": 2310, "annotation": {"number": 64, "value": 127}, "group": "control_change"}, {"time": 2349, "annotation": {"number": 64, "value": 0}, "group": "control_change"}, {"time": 2355, "annotation": {"number": 64, "value": 127}, "group": "control_change"}, {"time": 2374, "annotation": {"number": 64, "value": 0}, "group": "control_change"}, {"time": 2379, "annotation": {"number": 64, "value": 127}, "group": "control_change"}, {"time": 2400, "annotation": {"number": 64, "value": 0}, "group": "control_change"}, {"time": 2406, "annotation": {"number": 64, "value": 127}, "group": "control_change"}, {"time": 2445, "annotation": {"number": 64, "value": 0}, "group": "control_change"}, {"time": 2453, "annotation": {"number": 64, "value": 127}, "group": "control_change"}, {"time": 2542, "annotation": {"number": 64, "value": 0}, "group": "control_change"}, {"time": 2545, "annotation": {"number": 64, "value": 127}, "group": "control_change"}, {"time": 2590, "annotation": {"number": 64, "value": 0}, "group": "control_change"}, {"time": 2592, "annotation": {"number": 64, "value": 127}, "group": "control_change"}, {"time": 2637, "annotation": {"number": 64, "value": 0}, "group": "control_change"}, {"time": 2661, "annotation": {"number": 64, "value": 0}, "group": "control_change"}, {"time": 2664, "annotation": {"number": 64, "value": 127}, "group": "control_change"}, {"time": 2686, "annotation": {"number": 64, "value": 0}, "group": "control_change"}, {"time": 2689, "annotation": {"number": 64, "value": 127}, "group": "control_change"}, {"time": 2734, "annotation": {"number": 64, "value": 0}, "group": "control_change"}, {"time": 2736, "annotation": {"number": 64, "value": 127}, "group": "control_change"}, {"time": 2759, "annotation": {"number": 64, "value": 0}, "group": "control_change"}, {"time": 2761, "annotation": {"number": 64, "value": 127}, "group": "control_change"}, {"time": 2782, "annotation": {"number": 64, "value": 0}, "group": "control_change"}, {"time": 2788, "annotation": {"number": 64, "value": 127}, "group": "control_change"}, {"time": 2827, "annotation": {"number": 64, "value": 0}, "group": "control_change"}, {"time": 2829, "annotation": {"number": 64, "value": 127}, "group": "control_change"}, {"time": 2877, "annotation": {"number": 64, "value": 0}, "group": "control_change"}, {"time": 2926, "annotation": {"number": 64, "value": 0}, "group": "control_change"}, {"time": 2929, "annotation": {"number": 64, "value": 127}, "group": "control_change"}, {"time": 2974, "annotation": {"number": 64, "value": 0}, "group": "control_change"}, {"time": 2976, "annotation": {"number": 64, "value": 127}, "group": "control_change"}, {"time": 3021, "annotation": {"number": 64, "value": 0}, "group": "control_change"}, {"time": 3045, "annotation": {"number": 64, "value": 0}, "group": "control_change"}, {"time": 3048, "annotation": {"number": 64, "value": 127}, "group": "control_change"}, {"time": 3070, "annotation": {"number": 64, "value": 0}, "group": "control_change"}, {"time": 3073, "annotation": {"number": 64, "value": 127}, "group": "control_change"}, {"time": 3118, "annotation": {"number": 64, "value": 0}, "group": "control_change"}, {"time": 3120, "annotation": {"number": 64, "value": 127}, "group": "control_change"}, {"time": 3143, "annotation": {"number": 64, "value": 0}, "group": "control_change"}, {"time": 3145, "annotation": {"number": 64, "value": 127}, "group": "control_change"}, {"time": 3166, "annotation": {"number": 64, "value": 0}, "group": "control_change"}, {"time": 3172, "annotation": {"number": 64, "value": 127}, "group": "control_change"}, {"time": 3211, "annotation": {"number": 64, "value": 0}, "group": "control_change"}, {"time": 3213, "annotation": {"number": 64, "value": 127}, "group": "control_change"}, {"time": 3261, "annotation": {"number": 64, "value": 0}, "group": "control_change"}, {"time": 3263, "annotation": {"number": 64, "value": 127}, "group": "control_change"}, {"time": 3285, "annotation": {"number": 64, "value": 0}, "group": "control_change"}, {"time": 3287, "annotation": {"number": 64, "value": 127}, "group": "control_change"}, {"time": 3310, "annotation": {"number": 64, "value": 0}, "group": "control_change"}, {"time": 3311, "annotation": {"number": 64, "value": 127}, "group": "control_change"}, {"time": 3418, "annotation": {"number": 64, "value": 0}, "group": "control_change"}, {"time": 3421, "annotation": {"number": 64, "value": 127}, "group": "control_change"}, {"time": 3466, "annotation": {"number": 64, "value": 0}, "group": "control_change"}, {"time": 3468, "annotation": {"number": 64, "value": 127}, "group": "control_change"}, {"time": 3513, "annotation": {"number": 64, "value": 0}, "group": "control_change"}, {"time": 3537, "annotation": {"number": 64, "value": 0}, "group": "control_change"}, {"time": 3540, "annotation": {"number": 64, "value": 127}, "group": "control_change"}, {"time": 3562, "annotation": {"number": 64, "value": 0}, "group": "control_change"}, {"time": 3565, "annotation": {"number": 64, "value": 127}, "group": "control_change"}, {"time": 3610, "annotation": {"number": 64, "value": 0}, "group": "control_change"}, {"time": 3612, "annotation": {"number": 64, "value": 127}, "group": "control_change"}, {"time": 3635, "annotation": {"number": 64, "value": 0}, "group": "control_change"}, {"time": 3637, "annotation": {"number": 64, "value": 127}, "group": "control_change"}, {"time": 3658, "annotation": {"number": 64, "value": 0}, "group": "control_change"}, {"time": 3664, "annotation": {"number": 64, "value": 127}, "group": "control_change"}, {"time": 3703, "annotation": {"number": 64, "value": 0}, "group": "control_change"}, {"time": 3705, "annotation": {"number": 64, "value": 127}, "group": "control_change"}, {"time": 3753, "annotation": {"number": 64, "value": 0}, "group": "control_change"}, {"time": 3802, "annotation": {"number": 64, "value": 0}, "group": "control_change"}, {"time": 3805, "annotation": {"number": 64, "value": 127}, "group": "control_change"}, {"time": 3850, "annotation": {"number": 64, "value": 0}, "group": "control_change"}, {"time": 3852, "annotation": {"number": 64, "value": 127}, "group": "control_change"}, {"time": 3897, "annotation": {"number": 64, "value": 0}, "group": "control_change"}, {"time": 3921, "annotation": {"number": 64, "value": 0}, "group": "control_change"}, {"time": 3924, "annotation": {"number": 64, "value": 127}, "group": "control_change"}, {"time": 3946, "annotation": {"number": 64, "value": 0}, "group": "control_change"}, {"time": 3949, "annotation": {"number": 64, "value": 127}, "group": "control_change"}, {"time": 3994, "annotation": {"number": 64, "value": 0}, "group": "control_change"}, {"time": 3996, "annotation": {"number": 64, "value": 127}, "group": "control_change"}, {"time": 4019, "annotation": {"number": 64, "value": 0}, "group": "control_change"}, {"time": 4021, "annotation": {"number": 64, "value": 127}, "group": "control_change"}, {"time": 4042, "annotation": {"number": 64, "value": 0}, "group": "control_change"}, {"time": 4048, "annotation": {"number": 64, "value": 127}, "group": "control_change"}, {"time": 4087, "annotation": {"number": 64, "value": 0}, "group": "control_change"}, {"time": 4089, "annotation": {"number": 64, "value": 127}, "group": "control_change"}, {"time": 4092, "annotation": {"number": 64, "value": 127}, "group": "control_change"}, {"time": 4150, "annotation": {"number": 64, "value": 0}, "group": "control_change"}, {"time": 4170, "annotation": {"number": 64, "value": 127}, "group": "control_change"}, {"time": 4211, "annotation": {"number": 64, "value": 0}, "group": "control_change"}, {"time": 4213, "annotation": {"number": 64, "value": 127}, "group": "control_change"}, {"time": 4256, "annotation": {"number": 64, "value": 0}, "group": "control_change"}, {"time": 4259, "annotation": {"number": 64, "value": 127}, "group": "control_change"}, {"time": 4306, "annotation": {"number": 64, "value": 0}, "group": "control_change"}, {"time": 4309, "annotation": {"number": 64, "value": 127}, "group": "control_change"}, {"time": 4354, "annotation": {"number": 64, "value": 0}, "group": "control_change"}, {"time": 4360, "annotation": {"number": 64, "value": 127}, "group": "control_change"}, {"time": 4402, "annotation": {"number": 64, "value": 0}, "group": "control_change"}, {"time": 4408, "annotation": {"number": 64, "value": 127}, "group": "control_change"}, {"time": 4427, "annotation": {"number": 64, "value": 0}, "group": "control_change"}, {"time": 4431, "annotation": {"number": 64, "value": 127}, "group": "control_change"}, {"time": 4450, "annotation": {"number": 64, "value": 0}, "group": "control_change"}, {"time": 4456, "annotation": {"number": 64, "value": 127}, "group": "control_change"}, {"time": 4496, "annotation": {"number": 64, "value": 0}, "group": "control_change"}, {"time": 4500, "annotation": {"number": 64, "value": 127}, "group": "control_change"}, {"time": 4545, "annotation": {"number": 64, "value": 0}, "group": "control_change"}, {"time": 4548, "annotation": {"number": 64, "value": 127}, "group": "control_change"}, {"time": 4616, "annotation": {"number": 64, "value": 0}, "group": "control_change"}, {"time": 4621, "annotation": {"number": 64, "value": 127}, "group": "control_change"}]}]}