{"metadata": {"schema_version": "0.2", "title": "None", "source_filename": "420.mid", "source_format": "midi"}, "resolution": 12, "tempos": [{"time": 0, "qpm": 60.0}, {"time": 239, "qpm": 59.7500059750006}, {"time": 251, "qpm": 60.500032770851085}, {"time": 296, "qpm": 61.00003456668625}, {"time": 432, "qpm": 61.75005840526357}, {"time": 552, "qpm": 61.500047662536936}, {"time": 707, "qpm": 60.75001974375642}, {"time": 769, "qpm": 61.250114843965335}, {"time": 782, "qpm": 62.5}, {"time": 851, "qpm": 61.00003456668625}, {"time": 1208, "qpm": 60.500032770851085}, {"time": 1260, "qpm": 61.250114843965335}, {"time": 1608, "qpm": 61.500047662536936}, {"time": 1644, "qpm": 62.00005993339127}, {"time": 1716, "qpm": 61.500047662536936}, {"time": 1799, "qpm": 62.00005993339127}, {"time": 2075, "qpm": 61.500047662536936}], "time_signatures": [{"time": 0, "numerator": 1, "denominator": 4}], "tracks": [{"program": 0, "is_drum": false, "name": "MELODY", "notes": [{"time": 56, "pitch": 72, "duration": 5, "velocity": 92}, {"time": 62, "pitch": 70, "duration": 5, "velocity": 91}, {"time": 68, "pitch": 68, "duration": 3, "velocity": 95}, {"time": 71, "pitch": 63, "duration": 6, "velocity": 93}, {"time": 80, "pitch": 72, "duration": 5, "velocity": 91}, {"time": 86, "pitch": 70, "duration": 5, "velocity": 90}, {"time": 92, "pitch": 68, "duration": 2, "velocity": 90}, {"time": 95, "pitch": 70, "duration": 6, "velocity": 88}, {"time": 101, "pitch": 63, "duration": 2, "velocity": 92}, {"time": 104, "pitch": 72, "duration": 4, "velocity": 95}, {"time": 110, "pitch": 70, "duration": 5, "velocity": 90}, {"time": 116, "pitch": 68, "duration": 2, "velocity": 88}, {"time": 119, "pitch": 68, "duration": 4, "velocity": 92}, {"time": 125, "pitch": 63, "duration": 2, "velocity": 90}, {"time": 128, "pitch": 72, "duration": 2, "velocity": 91}, {"time": 131, "pitch": 75, "duration": 2, "velocity": 97}, {"time": 134, "pitch": 70, "duration": 2, "velocity": 80}, {"time": 137, "pitch": 72, "duration": 2, "velocity": 90}, {"time": 140, "pitch": 68, "duration": 6, "velocity": 89}, {"time": 152, "pitch": 68, "duration": 3, "velocity": 95}, {"time": 155, "pitch": 70, "duration": 2, "velocity": 87}, {"time": 158, "pitch": 70, "duration": 2, "velocity": 89}, {"time": 161, "pitch": 68, "duration": 1, "velocity": 87}, {"time": 164, "pitch": 68, "duration": 2, "velocity": 90}, {"time": 167, "pitch": 63, "duration": 2, "velocity": 90}, {"time": 176, "pitch": 68, "duration": 2, "velocity": 81}, {"time": 179, "pitch": 70, "duration": 2, "velocity": 87}, {"time": 182, "pitch": 70, "duration": 2, "velocity": 87}, {"time": 185, "pitch": 68, "duration": 2, "velocity": 84}, {"time": 188, "pitch": 68, "duration": 2, "velocity": 90}, {"time": 191, "pitch": 68, "duration": 3, "velocity": 93}, {"time": 200, "pitch": 68, "duration": 2, "velocity": 90}, {"time": 203, "pitch": 65, "duration": 2, "velocity": 92}, {"time": 206, "pitch": 68, "duration": 2, "velocity": 87}, {"time": 209, "pitch": 70, "duration": 2, "velocity": 87}, {"time": 212, "pitch": 68, "duration": 2, "velocity": 87}, {"time": 215, "pitch": 73, "duration": 6, "velocity": 92}, {"time": 221, "pitch": 72, "duration": 5, "velocity": 93}, {"time": 227, "pitch": 68, "duration": 5, "velocity": 97}, {"time": 233, "pitch": 65, "duration": 5, "velocity": 92}, {"time": 239, "pitch": 63, "duration": 6, "velocity": 90}, {"time": 248, "pitch": 72, "duration": 5, "velocity": 92}, {"time": 254, "pitch": 70, "duration": 5, "velocity": 91}, {"time": 260, "pitch": 68, "duration": 3, "velocity": 95}, {"time": 263, "pitch": 63, "duration": 6, "velocity": 93}, {"time": 272, "pitch": 72, "duration": 5, "velocity": 91}, {"time": 278, "pitch": 70, "duration": 5, "velocity": 90}, {"time": 284, "pitch": 68, "duration": 2, "velocity": 90}, {"time": 287, "pitch": 70, "duration": 6, "velocity": 88}, {"time": 293, "pitch": 63, "duration": 2, "velocity": 92}, {"time": 296, "pitch": 72, "duration": 4, "velocity": 95}, {"time": 302, "pitch": 70, "duration": 5, "velocity": 90}, {"time": 308, "pitch": 68, "duration": 2, "velocity": 88}, {"time": 311, "pitch": 68, "duration": 4, "velocity": 92}, {"time": 317, "pitch": 63, "duration": 2, "velocity": 90}, {"time": 320, "pitch": 72, "duration": 2, "velocity": 91}, {"time": 323, "pitch": 75, "duration": 2, "velocity": 97}, {"time": 326, "pitch": 70, "duration": 2, "velocity": 80}, {"time": 329, "pitch": 72, "duration": 2, "velocity": 90}, {"time": 332, "pitch": 68, "duration": 6, "velocity": 89}, {"time": 338, "pitch": 77, "duration": 5, "velocity": 97}, {"time": 344, "pitch": 75, "duration": 4, "velocity": 102}, {"time": 350, "pitch": 68, "duration": 5, "velocity": 88}, {"time": 356, "pitch": 65, "duration": 2, "velocity": 97}, {"time": 359, "pitch": 77, "duration": 7, "velocity": 97}, {"time": 365, "pitch": 75, "duration": 5, "velocity": 102}, {"time": 371, "pitch": 68, "duration": 5, "velocity": 84}, {"time": 377, "pitch": 68, "duration": 2, "velocity": 90}, {"time": 380, "pitch": 70, "duration": 2, "velocity": 93}, {"time": 383, "pitch": 72, "duration": 2, "velocity": 87}, {"time": 386, "pitch": 73, "duration": 5, "velocity": 90}, {"time": 392, "pitch": 72, "duration": 5, "velocity": 93}, {"time": 398, "pitch": 70, "duration": 4, "velocity": 95}, {"time": 404, "pitch": 68, "duration": 2, "velocity": 90}, {"time": 407, "pitch": 77, "duration": 5, "velocity": 93}, {"time": 413, "pitch": 79, "duration": 6, "velocity": 100}, {"time": 419, "pitch": 75, "duration": 12, "velocity": 100}, {"time": 434, "pitch": 68, "duration": 2, "velocity": 87}, {"time": 437, "pitch": 63, "duration": 4, "velocity": 87}, {"time": 446, "pitch": 68, "duration": 2, "velocity": 86}, {"time": 449, "pitch": 63, "duration": 4, "velocity": 82}, {"time": 458, "pitch": 75, "duration": 4, "velocity": 102}, {"time": 464, "pitch": 72, "duration": 2, "velocity": 88}, {"time": 467, "pitch": 70, "duration": 6, "velocity": 92}, {"time": 473, "pitch": 68, "duration": 2, "velocity": 87}, {"time": 476, "pitch": 65, "duration": 2, "velocity": 97}, {"time": 479, "pitch": 68, "duration": 2, "velocity": 88}, {"time": 482, "pitch": 68, "duration": 2, "velocity": 90}, {"time": 485, "pitch": 65, "duration": 3, "velocity": 92}, {"time": 494, "pitch": 68, "duration": 2, "velocity": 88}, {"time": 497, "pitch": 65, "duration": 4, "velocity": 92}, {"time": 506, "pitch": 75, "duration": 4, "velocity": 91}, {"time": 512, "pitch": 70, "duration": 2, "velocity": 85}, {"time": 515, "pitch": 70, "duration": 5, "velocity": 90}, {"time": 521, "pitch": 68, "duration": 2, "velocity": 88}, {"time": 524, "pitch": 65, "duration": 2, "velocity": 93}, {"time": 527, "pitch": 68, "duration": 7, "velocity": 89}, {"time": 536, "pitch": 65, "duration": 2, "velocity": 93}, {"time": 539, "pitch": 68, "duration": 4, "velocity": 93}, {"time": 545, "pitch": 70, "duration": 4, "velocity": 92}, {"time": 551, "pitch": 63, "duration": 6, "velocity": 88}, {"time": 557, "pitch": 72, "duration": 4, "velocity": 90}, {"time": 563, "pitch": 72, "duration": 5, "velocity": 92}, {"time": 569, "pitch": 70, "duration": 2, "velocity": 92}, {"time": 572, "pitch": 68, "duration": 2, "velocity": 91}, {"time": 575, "pitch": 65, "duration": 2, "velocity": 102}, {"time": 584, "pitch": 68, "duration": 2, "velocity": 91}, {"time": 587, "pitch": 65, "duration": 2, "velocity": 92}, {"time": 590, "pitch": 68, "duration": 5, "velocity": 92}, {"time": 596, "pitch": 65, "duration": 2, "velocity": 97}, {"time": 599, "pitch": 77, "duration": 4, "velocity": 92}, {"time": 605, "pitch": 75, "duration": 6, "velocity": 88}, {"time": 611, "pitch": 68, "duration": 4, "velocity": 92}, {"time": 617, "pitch": 70, "duration": 7, "velocity": 91}, {"time": 626, "pitch": 68, "duration": 2, "velocity": 87}, {"time": 629, "pitch": 63, "duration": 4, "velocity": 87}, {"time": 638, "pitch": 68, "duration": 2, "velocity": 86}, {"time": 641, "pitch": 63, "duration": 4, "velocity": 82}, {"time": 650, "pitch": 75, "duration": 4, "velocity": 102}, {"time": 656, "pitch": 72, "duration": 2, "velocity": 88}, {"time": 659, "pitch": 70, "duration": 6, "velocity": 92}, {"time": 665, "pitch": 68, "duration": 2, "velocity": 87}, {"time": 668, "pitch": 65, "duration": 2, "velocity": 97}, {"time": 671, "pitch": 68, "duration": 2, "velocity": 88}, {"time": 674, "pitch": 68, "duration": 2, "velocity": 90}, {"time": 677, "pitch": 65, "duration": 3, "velocity": 92}, {"time": 686, "pitch": 68, "duration": 2, "velocity": 88}, {"time": 689, "pitch": 65, "duration": 4, "velocity": 92}, {"time": 698, "pitch": 75, "duration": 4, "velocity": 91}, {"time": 704, "pitch": 70, "duration": 2, "velocity": 85}, {"time": 707, "pitch": 70, "duration": 5, "velocity": 90}, {"time": 713, "pitch": 68, "duration": 2, "velocity": 88}, {"time": 716, "pitch": 65, "duration": 2, "velocity": 93}, {"time": 719, "pitch": 77, "duration": 9, "velocity": 89}, {"time": 734, "pitch": 78, "duration": 6, "velocity": 90}, {"time": 740, "pitch": 77, "duration": 2, "velocity": 89}, {"time": 743, "pitch": 77, "duration": 6, "velocity": 92}, {"time": 749, "pitch": 75, "duration": 7, "velocity": 97}, {"time": 761, "pitch": 68, "duration": 2, "velocity": 89}, {"time": 764, "pitch": 70, "duration": 2, "velocity": 95}, {"time": 767, "pitch": 72, "duration": 2, "velocity": 88}, {"time": 770, "pitch": 73, "duration": 2, "velocity": 90}, {"time": 773, "pitch": 72, "duration": 2, "velocity": 87}, {"time": 776, "pitch": 70, "duration": 2, "velocity": 93}, {"time": 779, "pitch": 68, "duration": 7, "velocity": 89}, {"time": 788, "pitch": 73, "duration": 2, "velocity": 88}, {"time": 791, "pitch": 72, "duration": 2, "velocity": 88}, {"time": 794, "pitch": 75, "duration": 5, "velocity": 103}, {"time": 800, "pitch": 77, "duration": 5, "velocity": 87}, {"time": 806, "pitch": 70, "duration": 4, "velocity": 90}, {"time": 812, "pitch": 70, "duration": 15, "velocity": 90}, {"time": 830, "pitch": 68, "duration": 18, "velocity": 92}, {"time": 1040, "pitch": 72, "duration": 5, "velocity": 92}, {"time": 1046, "pitch": 70, "duration": 5, "velocity": 91}, {"time": 1052, "pitch": 68, "duration": 3, "velocity": 95}, {"time": 1055, "pitch": 63, "duration": 6, "velocity": 93}, {"time": 1064, "pitch": 72, "duration": 5, "velocity": 91}, {"time": 1070, "pitch": 70, "duration": 5, "velocity": 90}, {"time": 1076, "pitch": 68, "duration": 2, "velocity": 90}, {"time": 1079, "pitch": 70, "duration": 6, "velocity": 88}, {"time": 1085, "pitch": 63, "duration": 2, "velocity": 92}, {"time": 1088, "pitch": 72, "duration": 4, "velocity": 95}, {"time": 1094, "pitch": 70, "duration": 5, "velocity": 90}, {"time": 1100, "pitch": 68, "duration": 2, "velocity": 88}, {"time": 1103, "pitch": 68, "duration": 4, "velocity": 92}, {"time": 1109, "pitch": 63, "duration": 2, "velocity": 90}, {"time": 1112, "pitch": 72, "duration": 2, "velocity": 91}, {"time": 1115, "pitch": 75, "duration": 2, "velocity": 97}, {"time": 1118, "pitch": 70, "duration": 2, "velocity": 80}, {"time": 1121, "pitch": 72, "duration": 2, "velocity": 90}, {"time": 1124, "pitch": 68, "duration": 6, "velocity": 89}, {"time": 1136, "pitch": 68, "duration": 3, "velocity": 95}, {"time": 1139, "pitch": 70, "duration": 2, "velocity": 87}, {"time": 1142, "pitch": 70, "duration": 2, "velocity": 89}, {"time": 1145, "pitch": 68, "duration": 1, "velocity": 87}, {"time": 1148, "pitch": 68, "duration": 2, "velocity": 90}, {"time": 1151, "pitch": 63, "duration": 2, "velocity": 90}, {"time": 1160, "pitch": 68, "duration": 2, "velocity": 81}, {"time": 1163, "pitch": 70, "duration": 2, "velocity": 87}, {"time": 1166, "pitch": 70, "duration": 2, "velocity": 87}, {"time": 1169, "pitch": 68, "duration": 2, "velocity": 84}, {"time": 1172, "pitch": 68, "duration": 2, "velocity": 90}, {"time": 1175, "pitch": 68, "duration": 3, "velocity": 93}, {"time": 1184, "pitch": 68, "duration": 2, "velocity": 90}, {"time": 1187, "pitch": 65, "duration": 2, "velocity": 92}, {"time": 1190, "pitch": 68, "duration": 2, "velocity": 87}, {"time": 1193, "pitch": 70, "duration": 2, "velocity": 87}, {"time": 1196, "pitch": 68, "duration": 2, "velocity": 87}, {"time": 1199, "pitch": 73, "duration": 6, "velocity": 92}, {"time": 1205, "pitch": 72, "duration": 5, "velocity": 93}, {"time": 1211, "pitch": 68, "duration": 5, "velocity": 97}, {"time": 1217, "pitch": 65, "duration": 5, "velocity": 92}, {"time": 1223, "pitch": 63, "duration": 6, "velocity": 90}, {"time": 1232, "pitch": 72, "duration": 5, "velocity": 92}, {"time": 1238, "pitch": 70, "duration": 5, "velocity": 91}, {"time": 1244, "pitch": 68, "duration": 3, "velocity": 95}, {"time": 1247, "pitch": 63, "duration": 6, "velocity": 93}, {"time": 1256, "pitch": 72, "duration": 5, "velocity": 91}, {"time": 1262, "pitch": 70, "duration": 5, "velocity": 90}, {"time": 1268, "pitch": 68, "duration": 2, "velocity": 90}, {"time": 1271, "pitch": 70, "duration": 6, "velocity": 88}, {"time": 1277, "pitch": 63, "duration": 2, "velocity": 92}, {"time": 1280, "pitch": 72, "duration": 4, "velocity": 95}, {"time": 1286, "pitch": 70, "duration": 5, "velocity": 90}, {"time": 1292, "pitch": 68, "duration": 2, "velocity": 88}, {"time": 1295, "pitch": 68, "duration": 4, "velocity": 92}, {"time": 1301, "pitch": 63, "duration": 2, "velocity": 90}, {"time": 1304, "pitch": 72, "duration": 2, "velocity": 91}, {"time": 1307, "pitch": 75, "duration": 2, "velocity": 97}, {"time": 1310, "pitch": 70, "duration": 2, "velocity": 80}, {"time": 1313, "pitch": 72, "duration": 2, "velocity": 90}, {"time": 1316, "pitch": 68, "duration": 6, "velocity": 89}, {"time": 1322, "pitch": 77, "duration": 5, "velocity": 97}, {"time": 1328, "pitch": 75, "duration": 4, "velocity": 102}, {"time": 1334, "pitch": 68, "duration": 5, "velocity": 88}, {"time": 1340, "pitch": 65, "duration": 2, "velocity": 97}, {"time": 1343, "pitch": 77, "duration": 7, "velocity": 97}, {"time": 1349, "pitch": 75, "duration": 5, "velocity": 102}, {"time": 1355, "pitch": 68, "duration": 5, "velocity": 84}, {"time": 1361, "pitch": 68, "duration": 2, "velocity": 90}, {"time": 1364, "pitch": 70, "duration": 2, "velocity": 93}, {"time": 1367, "pitch": 72, "duration": 2, "velocity": 87}, {"time": 1370, "pitch": 73, "duration": 5, "velocity": 90}, {"time": 1376, "pitch": 72, "duration": 5, "velocity": 93}, {"time": 1382, "pitch": 70, "duration": 4, "velocity": 95}, {"time": 1388, "pitch": 68, "duration": 2, "velocity": 90}, {"time": 1391, "pitch": 77, "duration": 5, "velocity": 93}, {"time": 1397, "pitch": 79, "duration": 6, "velocity": 100}, {"time": 1403, "pitch": 75, "duration": 12, "velocity": 100}, {"time": 1418, "pitch": 68, "duration": 2, "velocity": 87}, {"time": 1421, "pitch": 63, "duration": 4, "velocity": 87}, {"time": 1430, "pitch": 68, "duration": 2, "velocity": 86}, {"time": 1433, "pitch": 63, "duration": 4, "velocity": 82}, {"time": 1442, "pitch": 75, "duration": 4, "velocity": 102}, {"time": 1448, "pitch": 72, "duration": 2, "velocity": 88}, {"time": 1451, "pitch": 70, "duration": 6, "velocity": 92}, {"time": 1457, "pitch": 68, "duration": 2, "velocity": 87}, {"time": 1460, "pitch": 65, "duration": 2, "velocity": 97}, {"time": 1463, "pitch": 68, "duration": 2, "velocity": 88}, {"time": 1466, "pitch": 68, "duration": 2, "velocity": 90}, {"time": 1469, "pitch": 65, "duration": 3, "velocity": 92}, {"time": 1478, "pitch": 68, "duration": 2, "velocity": 88}, {"time": 1481, "pitch": 65, "duration": 4, "velocity": 92}, {"time": 1490, "pitch": 75, "duration": 4, "velocity": 91}, {"time": 1496, "pitch": 70, "duration": 2, "velocity": 85}, {"time": 1499, "pitch": 70, "duration": 5, "velocity": 90}, {"time": 1505, "pitch": 68, "duration": 2, "velocity": 88}, {"time": 1508, "pitch": 65, "duration": 2, "velocity": 93}, {"time": 1511, "pitch": 68, "duration": 7, "velocity": 89}, {"time": 1520, "pitch": 65, "duration": 2, "velocity": 93}, {"time": 1523, "pitch": 68, "duration": 4, "velocity": 93}, {"time": 1529, "pitch": 70, "duration": 4, "velocity": 92}, {"time": 1535, "pitch": 63, "duration": 6, "velocity": 88}, {"time": 1541, "pitch": 72, "duration": 4, "velocity": 90}, {"time": 1547, "pitch": 72, "duration": 5, "velocity": 92}, {"time": 1553, "pitch": 70, "duration": 2, "velocity": 92}, {"time": 1556, "pitch": 68, "duration": 2, "velocity": 91}, {"time": 1559, "pitch": 65, "duration": 2, "velocity": 102}, {"time": 1568, "pitch": 68, "duration": 2, "velocity": 91}, {"time": 1571, "pitch": 65, "duration": 2, "velocity": 92}, {"time": 1574, "pitch": 68, "duration": 5, "velocity": 92}, {"time": 1580, "pitch": 65, "duration": 2, "velocity": 97}, {"time": 1583, "pitch": 77, "duration": 4, "velocity": 92}, {"time": 1589, "pitch": 75, "duration": 6, "velocity": 88}, {"time": 1595, "pitch": 68, "duration": 4, "velocity": 92}, {"time": 1601, "pitch": 70, "duration": 7, "velocity": 91}, {"time": 1610, "pitch": 68, "duration": 2, "velocity": 87}, {"time": 1613, "pitch": 63, "duration": 4, "velocity": 87}, {"time": 1622, "pitch": 68, "duration": 2, "velocity": 86}, {"time": 1625, "pitch": 63, "duration": 4, "velocity": 82}, {"time": 1634, "pitch": 75, "duration": 4, "velocity": 102}, {"time": 1640, "pitch": 72, "duration": 2, "velocity": 88}, {"time": 1643, "pitch": 70, "duration": 6, "velocity": 92}, {"time": 1649, "pitch": 68, "duration": 2, "velocity": 87}, {"time": 1652, "pitch": 65, "duration": 2, "velocity": 97}, {"time": 1655, "pitch": 68, "duration": 2, "velocity": 88}, {"time": 1658, "pitch": 68, "duration": 2, "velocity": 90}, {"time": 1661, "pitch": 65, "duration": 3, "velocity": 92}, {"time": 1670, "pitch": 68, "duration": 2, "velocity": 88}, {"time": 1673, "pitch": 65, "duration": 4, "velocity": 92}, {"time": 1682, "pitch": 75, "duration": 4, "velocity": 91}, {"time": 1688, "pitch": 70, "duration": 2, "velocity": 85}, {"time": 1691, "pitch": 70, "duration": 5, "velocity": 90}, {"time": 1697, "pitch": 68, "duration": 2, "velocity": 88}, {"time": 1700, "pitch": 65, "duration": 2, "velocity": 93}, {"time": 1703, "pitch": 77, "duration": 9, "velocity": 89}, {"time": 1718, "pitch": 78, "duration": 6, "velocity": 90}, {"time": 1724, "pitch": 77, "duration": 2, "velocity": 89}, {"time": 1727, "pitch": 77, "duration": 6, "velocity": 92}, {"time": 1733, "pitch": 75, "duration": 7, "velocity": 97}, {"time": 1745, "pitch": 68, "duration": 2, "velocity": 89}, {"time": 1748, "pitch": 70, "duration": 2, "velocity": 95}, {"time": 1751, "pitch": 72, "duration": 2, "velocity": 88}, {"time": 1754, "pitch": 73, "duration": 2, "velocity": 90}, {"time": 1757, "pitch": 72, "duration": 2, "velocity": 87}, {"time": 1760, "pitch": 70, "duration": 2, "velocity": 93}, {"time": 1763, "pitch": 68, "duration": 7, "velocity": 89}, {"time": 1772, "pitch": 73, "duration": 2, "velocity": 88}, {"time": 1775, "pitch": 72, "duration": 2, "velocity": 88}, {"time": 1778, "pitch": 75, "duration": 5, "velocity": 103}, {"time": 1784, "pitch": 77, "duration": 5, "velocity": 87}, {"time": 1790, "pitch": 70, "duration": 4, "velocity": 90}, {"time": 1796, "pitch": 70, "duration": 5, "velocity": 90}, {"time": 1802, "pitch": 68, "duration": 2, "velocity": 87}, {"time": 1805, "pitch": 63, "duration": 4, "velocity": 87}, {"time": 1814, "pitch": 68, "duration": 2, "velocity": 86}, {"time": 1817, "pitch": 63, "duration": 4, "velocity": 82}, {"time": 1826, "pitch": 75, "duration": 4, "velocity": 102}, {"time": 1832, "pitch": 72, "duration": 2, "velocity": 88}, {"time": 1835, "pitch": 70, "duration": 6, "velocity": 92}, {"time": 1841, "pitch": 68, "duration": 2, "velocity": 87}, {"time": 1844, "pitch": 65, "duration": 2, "velocity": 97}, {"time": 1847, "pitch": 68, "duration": 2, "velocity": 88}, {"time": 1850, "pitch": 68, "duration": 2, "velocity": 90}, {"time": 1853, "pitch": 65, "duration": 3, "velocity": 92}, {"time": 1862, "pitch": 68, "duration": 2, "velocity": 88}, {"time": 1865, "pitch": 65, "duration": 4, "velocity": 92}, {"time": 1874, "pitch": 75, "duration": 4, "velocity": 91}, {"time": 1880, "pitch": 70, "duration": 2, "velocity": 85}, {"time": 1883, "pitch": 70, "duration": 5, "velocity": 90}, {"time": 1889, "pitch": 68, "duration": 2, "velocity": 88}, {"time": 1892, "pitch": 65, "duration": 2, "velocity": 93}, {"time": 1895, "pitch": 68, "duration": 7, "velocity": 89}, {"time": 1904, "pitch": 65, "duration": 2, "velocity": 93}, {"time": 1907, "pitch": 68, "duration": 4, "velocity": 93}, {"time": 1913, "pitch": 70, "duration": 4, "velocity": 92}, {"time": 1919, "pitch": 63, "duration": 6, "velocity": 88}, {"time": 1925, "pitch": 72, "duration": 4, "velocity": 90}, {"time": 1931, "pitch": 72, "duration": 5, "velocity": 92}, {"time": 1937, "pitch": 70, "duration": 2, "velocity": 92}, {"time": 1940, "pitch": 68, "duration": 2, "velocity": 91}, {"time": 1943, "pitch": 65, "duration": 2, "velocity": 102}, {"time": 1952, "pitch": 68, "duration": 2, "velocity": 91}, {"time": 1955, "pitch": 65, "duration": 2, "velocity": 92}, {"time": 1958, "pitch": 68, "duration": 5, "velocity": 92}, {"time": 1964, "pitch": 65, "duration": 2, "velocity": 97}, {"time": 1967, "pitch": 77, "duration": 4, "velocity": 92}, {"time": 1973, "pitch": 75, "duration": 6, "velocity": 88}, {"time": 1979, "pitch": 68, "duration": 4, "velocity": 92}, {"time": 1985, "pitch": 70, "duration": 7, "velocity": 91}, {"time": 1994, "pitch": 68, "duration": 2, "velocity": 87}, {"time": 1997, "pitch": 63, "duration": 4, "velocity": 87}, {"time": 2006, "pitch": 68, "duration": 2, "velocity": 86}, {"time": 2009, "pitch": 63, "duration": 4, "velocity": 82}, {"time": 2018, "pitch": 75, "duration": 4, "velocity": 102}, {"time": 2024, "pitch": 72, "duration": 2, "velocity": 88}, {"time": 2027, "pitch": 70, "duration": 6, "velocity": 92}, {"time": 2033, "pitch": 68, "duration": 2, "velocity": 87}, {"time": 2036, "pitch": 65, "duration": 2, "velocity": 97}, {"time": 2039, "pitch": 68, "duration": 2, "velocity": 88}, {"time": 2042, "pitch": 68, "duration": 2, "velocity": 90}, {"time": 2045, "pitch": 65, "duration": 3, "velocity": 92}, {"time": 2054, "pitch": 68, "duration": 2, "velocity": 88}, {"time": 2057, "pitch": 65, "duration": 4, "velocity": 92}, {"time": 2066, "pitch": 75, "duration": 4, "velocity": 91}, {"time": 2072, "pitch": 70, "duration": 2, "velocity": 85}, {"time": 2075, "pitch": 70, "duration": 5, "velocity": 90}, {"time": 2081, "pitch": 68, "duration": 2, "velocity": 88}, {"time": 2084, "pitch": 65, "duration": 2, "velocity": 93}, {"time": 2087, "pitch": 77, "duration": 9, "velocity": 89}, {"time": 2102, "pitch": 78, "duration": 6, "velocity": 90}, {"time": 2108, "pitch": 77, "duration": 2, "velocity": 89}, {"time": 2111, "pitch": 77, "duration": 6, "velocity": 92}, {"time": 2117, "pitch": 75, "duration": 7, "velocity": 97}, {"time": 2129, "pitch": 68, "duration": 2, "velocity": 89}, {"time": 2132, "pitch": 70, "duration": 2, "velocity": 95}, {"time": 2135, "pitch": 72, "duration": 2, "velocity": 88}, {"time": 2138, "pitch": 73, "duration": 2, "velocity": 90}, {"time": 2141, "pitch": 72, "duration": 2, "velocity": 87}, {"time": 2144, "pitch": 70, "duration": 2, "velocity": 93}, {"time": 2147, "pitch": 68, "duration": 7, "velocity": 89}, {"time": 2156, "pitch": 73, "duration": 2, "velocity": 88}, {"time": 2159, "pitch": 72, "duration": 2, "velocity": 88}, {"time": 2162, "pitch": 75, "duration": 5, "velocity": 103}, {"time": 2168, "pitch": 77, "duration": 5, "velocity": 87}, {"time": 2174, "pitch": 70, "duration": 4, "velocity": 90}, {"time": 2180, "pitch": 70, "duration": 15, "velocity": 90}, {"time": 2198, "pitch": 68, "duration": 18, "velocity": 92}]}, {"program": 0, "is_drum": false, "name": "BRIDGE", "notes": [{"time": 122, "pitch": 72, "duration": 7, "velocity": 88}, {"time": 128, "pitch": 70, "duration": 6, "velocity": 88}, {"time": 134, "pitch": 66, "duration": 6, "velocity": 90}, {"time": 140, "pitch": 63, "duration": 6, "velocity": 86}, {"time": 146, "pitch": 65, "duration": 22, "velocity": 87}, {"time": 170, "pitch": 63, "duration": 21, "velocity": 79}, {"time": 194, "pitch": 58, "duration": 23, "velocity": 78}, {"time": 194, "pitch": 61, "duration": 23, "velocity": 82}, {"time": 248, "pitch": 68, "duration": 4, "velocity": 64}, {"time": 251, "pitch": 75, "duration": 20, "velocity": 87}, {"time": 275, "pitch": 68, "duration": 4, "velocity": 66}, {"time": 278, "pitch": 75, "duration": 14, "velocity": 91}, {"time": 296, "pitch": 67, "duration": 4, "velocity": 74}, {"time": 299, "pitch": 68, "duration": 4, "velocity": 82}, {"time": 302, "pitch": 75, "duration": 19, "velocity": 92}, {"time": 323, "pitch": 75, "duration": 15, "velocity": 93}, {"time": 344, "pitch": 68, "duration": 10, "velocity": 74}, {"time": 347, "pitch": 77, "duration": 17, "velocity": 91}, {"time": 353, "pitch": 73, "duration": 10, "velocity": 77}, {"time": 356, "pitch": 68, "duration": 6, "velocity": 69}, {"time": 374, "pitch": 79, "duration": 7, "velocity": 86}, {"time": 380, "pitch": 75, "duration": 5, "velocity": 86}, {"time": 386, "pitch": 70, "duration": 10, "velocity": 83}, {"time": 386, "pitch": 73, "duration": 10, "velocity": 86}, {"time": 398, "pitch": 72, "duration": 10, "velocity": 86}, {"time": 398, "pitch": 75, "duration": 10, "velocity": 88}, {"time": 410, "pitch": 73, "duration": 10, "velocity": 86}, {"time": 410, "pitch": 77, "duration": 10, "velocity": 88}, {"time": 422, "pitch": 70, "duration": 10, "velocity": 82}, {"time": 422, "pitch": 75, "duration": 10, "velocity": 93}, {"time": 449, "pitch": 87, "duration": 4, "velocity": 86}, {"time": 452, "pitch": 89, "duration": 3, "velocity": 92}, {"time": 455, "pitch": 91, "duration": 3, "velocity": 97}, {"time": 458, "pitch": 87, "duration": 22, "velocity": 90}, {"time": 482, "pitch": 84, "duration": 22, "velocity": 87}, {"time": 515, "pitch": 84, "duration": 3, "velocity": 86}, {"time": 518, "pitch": 82, "duration": 3, "velocity": 92}, {"time": 521, "pitch": 80, "duration": 3, "velocity": 87}, {"time": 524, "pitch": 79, "duration": 5, "velocity": 91}, {"time": 530, "pitch": 80, "duration": 22, "velocity": 87}, {"time": 554, "pitch": 75, "duration": 14, "velocity": 91}, {"time": 572, "pitch": 75, "duration": 5, "velocity": 91}, {"time": 578, "pitch": 73, "duration": 13, "velocity": 90}, {"time": 590, "pitch": 70, "duration": 6, "velocity": 82}, {"time": 596, "pitch": 72, "duration": 4, "velocity": 79}, {"time": 599, "pitch": 73, "duration": 3, "velocity": 80}, {"time": 602, "pitch": 75, "duration": 10, "velocity": 87}, {"time": 614, "pitch": 70, "duration": 5, "velocity": 86}, {"time": 614, "pitch": 75, "duration": 6, "velocity": 95}, {"time": 620, "pitch": 73, "duration": 5, "velocity": 86}, {"time": 626, "pitch": 68, "duration": 11, "velocity": 81}, {"time": 626, "pitch": 72, "duration": 12, "velocity": 84}, {"time": 641, "pitch": 75, "duration": 4, "velocity": 84}, {"time": 644, "pitch": 77, "duration": 4, "velocity": 87}, {"time": 647, "pitch": 79, "duration": 4, "velocity": 88}, {"time": 650, "pitch": 75, "duration": 24, "velocity": 93}, {"time": 674, "pitch": 80, "duration": 17, "velocity": 88}, {"time": 695, "pitch": 80, "duration": 3, "velocity": 84}, {"time": 698, "pitch": 79, "duration": 13, "velocity": 90}, {"time": 710, "pitch": 75, "duration": 10, "velocity": 100}, {"time": 722, "pitch": 77, "duration": 18, "velocity": 87}, {"time": 740, "pitch": 73, "duration": 3, "velocity": 82}, {"time": 743, "pitch": 77, "duration": 4, "velocity": 90}, {"time": 746, "pitch": 75, "duration": 18, "velocity": 93}, {"time": 764, "pitch": 72, "duration": 5, "velocity": 86}, {"time": 770, "pitch": 73, "duration": 23, "velocity": 87}, {"time": 839, "pitch": 80, "duration": 1, "velocity": 86}, {"time": 840, "pitch": 82, "duration": 2, "velocity": 86}, {"time": 841, "pitch": 84, "duration": 4, "velocity": 93}, {"time": 844, "pitch": 85, "duration": 4, "velocity": 90}, {"time": 847, "pitch": 84, "duration": 3, "velocity": 107}, {"time": 850, "pitch": 80, "duration": 6, "velocity": 100}, {"time": 856, "pitch": 77, "duration": 7, "velocity": 103}, {"time": 862, "pitch": 75, "duration": 22, "velocity": 112}, {"time": 886, "pitch": 80, "duration": 2, "velocity": 86}, {"time": 888, "pitch": 82, "duration": 2, "velocity": 93}, {"time": 890, "pitch": 84, "duration": 3, "velocity": 103}, {"time": 892, "pitch": 85, "duration": 4, "velocity": 93}, {"time": 896, "pitch": 84, "duration": 3, "velocity": 100}, {"time": 899, "pitch": 80, "duration": 6, "velocity": 93}, {"time": 905, "pitch": 89, "duration": 6, "velocity": 115}, {"time": 911, "pitch": 87, "duration": 17, "velocity": 102}, {"time": 929, "pitch": 92, "duration": 4, "velocity": 100}, {"time": 932, "pitch": 91, "duration": 3, "velocity": 102}, {"time": 935, "pitch": 87, "duration": 3, "velocity": 95}, {"time": 938, "pitch": 94, "duration": 8, "velocity": 103}, {"time": 947, "pitch": 92, "duration": 7, "velocity": 100}, {"time": 953, "pitch": 87, "duration": 5, "velocity": 97}, {"time": 959, "pitch": 80, "duration": 17, "velocity": 103}, {"time": 977, "pitch": 75, "duration": 3, "velocity": 100}, {"time": 980, "pitch": 82, "duration": 3, "velocity": 90}, {"time": 982, "pitch": 80, "duration": 4, "velocity": 90}, {"time": 986, "pitch": 87, "duration": 20, "velocity": 100}, {"time": 1005, "pitch": 85, "duration": 2, "velocity": 84}, {"time": 1006, "pitch": 84, "duration": 2, "velocity": 82}, {"time": 1008, "pitch": 83, "duration": 1, "velocity": 87}, {"time": 1009, "pitch": 82, "duration": 21, "velocity": 87}, {"time": 1106, "pitch": 72, "duration": 7, "velocity": 88}, {"time": 1112, "pitch": 70, "duration": 6, "velocity": 88}, {"time": 1118, "pitch": 66, "duration": 6, "velocity": 90}, {"time": 1124, "pitch": 63, "duration": 6, "velocity": 86}, {"time": 1130, "pitch": 65, "duration": 22, "velocity": 87}, {"time": 1154, "pitch": 63, "duration": 21, "velocity": 79}, {"time": 1178, "pitch": 58, "duration": 23, "velocity": 78}, {"time": 1178, "pitch": 61, "duration": 23, "velocity": 82}, {"time": 1232, "pitch": 68, "duration": 4, "velocity": 64}, {"time": 1235, "pitch": 75, "duration": 20, "velocity": 87}, {"time": 1259, "pitch": 68, "duration": 4, "velocity": 66}, {"time": 1262, "pitch": 75, "duration": 14, "velocity": 91}, {"time": 1280, "pitch": 67, "duration": 4, "velocity": 74}, {"time": 1283, "pitch": 68, "duration": 4, "velocity": 82}, {"time": 1286, "pitch": 75, "duration": 19, "velocity": 92}, {"time": 1307, "pitch": 75, "duration": 15, "velocity": 93}, {"time": 1328, "pitch": 68, "duration": 10, "velocity": 74}, {"time": 1331, "pitch": 77, "duration": 17, "velocity": 91}, {"time": 1337, "pitch": 73, "duration": 10, "velocity": 77}, {"time": 1340, "pitch": 68, "duration": 6, "velocity": 69}, {"time": 1358, "pitch": 79, "duration": 7, "velocity": 86}, {"time": 1364, "pitch": 75, "duration": 5, "velocity": 86}, {"time": 1370, "pitch": 70, "duration": 10, "velocity": 83}, {"time": 1370, "pitch": 73, "duration": 10, "velocity": 86}, {"time": 1382, "pitch": 72, "duration": 10, "velocity": 86}, {"time": 1382, "pitch": 75, "duration": 10, "velocity": 88}, {"time": 1394, "pitch": 73, "duration": 10, "velocity": 86}, {"time": 1394, "pitch": 77, "duration": 10, "velocity": 88}, {"time": 1406, "pitch": 70, "duration": 10, "velocity": 82}, {"time": 1406, "pitch": 75, "duration": 10, "velocity": 93}, {"time": 1433, "pitch": 87, "duration": 4, "velocity": 86}, {"time": 1436, "pitch": 89, "duration": 3, "velocity": 92}, {"time": 1439, "pitch": 91, "duration": 3, "velocity": 97}, {"time": 1442, "pitch": 87, "duration": 22, "velocity": 90}, {"time": 1466, "pitch": 84, "duration": 22, "velocity": 87}, {"time": 1499, "pitch": 84, "duration": 3, "velocity": 86}, {"time": 1502, "pitch": 82, "duration": 3, "velocity": 92}, {"time": 1505, "pitch": 80, "duration": 3, "velocity": 87}, {"time": 1508, "pitch": 79, "duration": 5, "velocity": 91}, {"time": 1514, "pitch": 80, "duration": 22, "velocity": 87}, {"time": 1538, "pitch": 75, "duration": 14, "velocity": 91}, {"time": 1556, "pitch": 75, "duration": 5, "velocity": 91}, {"time": 1562, "pitch": 73, "duration": 13, "velocity": 90}, {"time": 1574, "pitch": 70, "duration": 6, "velocity": 82}, {"time": 1580, "pitch": 72, "duration": 4, "velocity": 79}, {"time": 1583, "pitch": 73, "duration": 3, "velocity": 80}, {"time": 1586, "pitch": 75, "duration": 10, "velocity": 87}, {"time": 1598, "pitch": 70, "duration": 5, "velocity": 86}, {"time": 1598, "pitch": 75, "duration": 6, "velocity": 95}, {"time": 1604, "pitch": 73, "duration": 5, "velocity": 86}, {"time": 1610, "pitch": 68, "duration": 11, "velocity": 81}, {"time": 1610, "pitch": 72, "duration": 12, "velocity": 84}, {"time": 1625, "pitch": 75, "duration": 4, "velocity": 84}, {"time": 1628, "pitch": 77, "duration": 4, "velocity": 87}, {"time": 1631, "pitch": 79, "duration": 4, "velocity": 88}, {"time": 1634, "pitch": 75, "duration": 24, "velocity": 93}, {"time": 1658, "pitch": 80, "duration": 17, "velocity": 88}, {"time": 1679, "pitch": 80, "duration": 3, "velocity": 84}, {"time": 1682, "pitch": 79, "duration": 13, "velocity": 90}, {"time": 1694, "pitch": 75, "duration": 10, "velocity": 100}, {"time": 1706, "pitch": 77, "duration": 18, "velocity": 87}, {"time": 1724, "pitch": 73, "duration": 3, "velocity": 82}, {"time": 1727, "pitch": 77, "duration": 4, "velocity": 90}, {"time": 1730, "pitch": 75, "duration": 18, "velocity": 93}, {"time": 1748, "pitch": 72, "duration": 5, "velocity": 86}, {"time": 1754, "pitch": 73, "duration": 23, "velocity": 87}, {"time": 1778, "pitch": 87, "duration": 6, "velocity": 97}, {"time": 1784, "pitch": 85, "duration": 6, "velocity": 92}, {"time": 1790, "pitch": 84, "duration": 6, "velocity": 100}, {"time": 1796, "pitch": 82, "duration": 5, "velocity": 88}, {"time": 1817, "pitch": 87, "duration": 4, "velocity": 86}, {"time": 1820, "pitch": 89, "duration": 3, "velocity": 92}, {"time": 1823, "pitch": 91, "duration": 3, "velocity": 97}, {"time": 1826, "pitch": 87, "duration": 22, "velocity": 90}, {"time": 1850, "pitch": 84, "duration": 22, "velocity": 87}, {"time": 1883, "pitch": 84, "duration": 3, "velocity": 86}, {"time": 1886, "pitch": 82, "duration": 3, "velocity": 92}, {"time": 1889, "pitch": 80, "duration": 3, "velocity": 87}, {"time": 1892, "pitch": 79, "duration": 5, "velocity": 91}, {"time": 1898, "pitch": 80, "duration": 22, "velocity": 87}, {"time": 1922, "pitch": 75, "duration": 14, "velocity": 91}, {"time": 1940, "pitch": 75, "duration": 5, "velocity": 91}, {"time": 1946, "pitch": 73, "duration": 13, "velocity": 90}, {"time": 1958, "pitch": 70, "duration": 6, "velocity": 82}, {"time": 1964, "pitch": 72, "duration": 4, "velocity": 79}, {"time": 1967, "pitch": 73, "duration": 3, "velocity": 80}, {"time": 1970, "pitch": 75, "duration": 10, "velocity": 87}, {"time": 1982, "pitch": 70, "duration": 5, "velocity": 86}, {"time": 1982, "pitch": 75, "duration": 6, "velocity": 95}, {"time": 1988, "pitch": 73, "duration": 5, "velocity": 86}, {"time": 1994, "pitch": 68, "duration": 11, "velocity": 81}, {"time": 1994, "pitch": 72, "duration": 12, "velocity": 84}, {"time": 2009, "pitch": 75, "duration": 4, "velocity": 84}, {"time": 2012, "pitch": 77, "duration": 4, "velocity": 87}, {"time": 2015, "pitch": 79, "duration": 4, "velocity": 88}, {"time": 2018, "pitch": 75, "duration": 24, "velocity": 93}, {"time": 2042, "pitch": 80, "duration": 17, "velocity": 88}, {"time": 2063, "pitch": 80, "duration": 3, "velocity": 84}, {"time": 2066, "pitch": 79, "duration": 13, "velocity": 90}, {"time": 2078, "pitch": 75, "duration": 10, "velocity": 100}, {"time": 2090, "pitch": 77, "duration": 18, "velocity": 87}, {"time": 2108, "pitch": 73, "duration": 3, "velocity": 82}, {"time": 2111, "pitch": 77, "duration": 4, "velocity": 90}, {"time": 2114, "pitch": 75, "duration": 18, "velocity": 93}, {"time": 2132, "pitch": 72, "duration": 5, "velocity": 86}, {"time": 2138, "pitch": 73, "duration": 23, "velocity": 87}, {"time": 2162, "pitch": 87, "duration": 6, "velocity": 97}, {"time": 2168, "pitch": 85, "duration": 6, "velocity": 92}, {"time": 2174, "pitch": 84, "duration": 6, "velocity": 100}, {"time": 2180, "pitch": 82, "duration": 5, "velocity": 88}, {"time": 2208, "pitch": 80, "duration": 1, "velocity": 79}, {"time": 2209, "pitch": 82, "duration": 2, "velocity": 84}, {"time": 2211, "pitch": 84, "duration": 2, "velocity": 92}, {"time": 2213, "pitch": 85, "duration": 4, "velocity": 80}, {"time": 2216, "pitch": 84, "duration": 3, "velocity": 93}, {"time": 2219, "pitch": 80, "duration": 6, "velocity": 88}, {"time": 2225, "pitch": 77, "duration": 6, "velocity": 92}, {"time": 2231, "pitch": 75, "duration": 8, "velocity": 103}, {"time": 2239, "pitch": 70, "duration": 1, "velocity": 90}, {"time": 2240, "pitch": 72, "duration": 3, "velocity": 86}, {"time": 2243, "pitch": 70, "duration": 7, "velocity": 88}, {"time": 2250, "pitch": 68, "duration": 3, "velocity": 76}, {"time": 2253, "pitch": 65, "duration": 4, "velocity": 88}, {"time": 2257, "pitch": 63, "duration": 8, "velocity": 76}, {"time": 2271, "pitch": 87, "duration": 2, "velocity": 76}, {"time": 2273, "pitch": 89, "duration": 3, "velocity": 80}, {"time": 2276, "pitch": 87, "duration": 2, "velocity": 90}, {"time": 2278, "pitch": 84, "duration": 2, "velocity": 87}, {"time": 2281, "pitch": 82, "duration": 2, "velocity": 64}, {"time": 2283, "pitch": 80, "duration": 3, "velocity": 80}, {"time": 2286, "pitch": 77, "duration": 2, "velocity": 79}, {"time": 2288, "pitch": 75, "duration": 3, "velocity": 75}, {"time": 2291, "pitch": 72, "duration": 3, "velocity": 75}, {"time": 2295, "pitch": 70, "duration": 4, "velocity": 67}, {"time": 2295, "pitch": 68, "duration": 1, "velocity": 62}, {"time": 2300, "pitch": 68, "duration": 2, "velocity": 61}, {"time": 2304, "pitch": 63, "duration": 2, "velocity": 71}, {"time": 2314, "pitch": 56, "duration": 22, "velocity": 72}, {"time": 2315, "pitch": 60, "duration": 22, "velocity": 69}], "annotations": [{"time": 2263, "annotation": {"number": 64, "value": 127}, "group": "control_change"}, {"time": 2275, "annotation": {"number": 64, "value": 0}, "group": "control_change"}, {"time": 2276, "annotation": {"number": 64, "value": 127}, "group": "control_change"}, {"time": 2317, "annotation": {"number": 64, "value": 0}, "group": "control_change"}]}, {"program": 0, "is_drum": false, "name": "PIANO", "notes": [{"time": 2, "pitch": 68, "duration": 41, "velocity": 77}, {"time": 3, "pitch": 56, "duration": 45, "velocity": 71}, {"time": 4, "pitch": 44, "duration": 19, "velocity": 62}, {"time": 4, "pitch": 60, "duration": 44, "velocity": 75}, {"time": 5, "pitch": 63, "duration": 43, "velocity": 72}, {"time": 50, "pitch": 44, "duration": 19, "velocity": 86}, {"time": 50, "pitch": 56, "duration": 17, "velocity": 78}, {"time": 50, "pitch": 60, "duration": 16, "velocity": 81}, {"time": 74, "pitch": 43, "duration": 17, "velocity": 81}, {"time": 74, "pitch": 58, "duration": 15, "velocity": 73}, {"time": 74, "pitch": 63, "duration": 15, "velocity": 80}, {"time": 98, "pitch": 41, "duration": 16, "velocity": 87}, {"time": 98, "pitch": 60, "duration": 17, "velocity": 74}, {"time": 98, "pitch": 65, "duration": 16, "velocity": 82}, {"time": 122, "pitch": 48, "duration": 17, "velocity": 86}, {"time": 122, "pitch": 60, "duration": 17, "velocity": 73}, {"time": 122, "pitch": 63, "duration": 16, "velocity": 71}, {"time": 146, "pitch": 49, "duration": 19, "velocity": 87}, {"time": 146, "pitch": 61, "duration": 9, "velocity": 74}, {"time": 146, "pitch": 65, "duration": 8, "velocity": 78}, {"time": 146, "pitch": 68, "duration": 8, "velocity": 79}, {"time": 152, "pitch": 56, "duration": 12, "velocity": 72}, {"time": 158, "pitch": 61, "duration": 6, "velocity": 83}, {"time": 158, "pitch": 65, "duration": 6, "velocity": 87}, {"time": 170, "pitch": 48, "duration": 16, "velocity": 86}, {"time": 170, "pitch": 60, "duration": 15, "velocity": 80}, {"time": 170, "pitch": 63, "duration": 14, "velocity": 79}, {"time": 194, "pitch": 46, "duration": 21, "velocity": 86}, {"time": 194, "pitch": 56, "duration": 10, "velocity": 86}, {"time": 194, "pitch": 61, "duration": 9, "velocity": 86}, {"time": 206, "pitch": 56, "duration": 5, "velocity": 87}, {"time": 206, "pitch": 61, "duration": 5, "velocity": 88}, {"time": 206, "pitch": 65, "duration": 4, "velocity": 89}, {"time": 218, "pitch": 49, "duration": 24, "velocity": 83}, {"time": 218, "pitch": 56, "duration": 23, "velocity": 84}, {"time": 218, "pitch": 61, "duration": 23, "velocity": 86}, {"time": 242, "pitch": 44, "duration": 18, "velocity": 86}, {"time": 242, "pitch": 56, "duration": 9, "velocity": 79}, {"time": 242, "pitch": 63, "duration": 8, "velocity": 80}, {"time": 248, "pitch": 51, "duration": 12, "velocity": 73}, {"time": 254, "pitch": 60, "duration": 7, "velocity": 86}, {"time": 254, "pitch": 63, "duration": 7, "velocity": 84}, {"time": 266, "pitch": 43, "duration": 20, "velocity": 81}, {"time": 266, "pitch": 58, "duration": 7, "velocity": 79}, {"time": 266, "pitch": 63, "duration": 7, "velocity": 82}, {"time": 272, "pitch": 51, "duration": 14, "velocity": 77}, {"time": 278, "pitch": 58, "duration": 10, "velocity": 91}, {"time": 284, "pitch": 63, "duration": 7, "velocity": 82}, {"time": 290, "pitch": 41, "duration": 16, "velocity": 86}, {"time": 290, "pitch": 65, "duration": 9, "velocity": 85}, {"time": 296, "pitch": 48, "duration": 10, "velocity": 68}, {"time": 302, "pitch": 65, "duration": 11, "velocity": 89}, {"time": 302, "pitch": 68, "duration": 13, "velocity": 85}, {"time": 314, "pitch": 48, "duration": 7, "velocity": 85}, {"time": 314, "pitch": 58, "duration": 7, "velocity": 82}, {"time": 314, "pitch": 63, "duration": 6, "velocity": 82}, {"time": 314, "pitch": 67, "duration": 6, "velocity": 75}, {"time": 326, "pitch": 44, "duration": 11, "velocity": 86}, {"time": 326, "pitch": 56, "duration": 10, "velocity": 79}, {"time": 326, "pitch": 60, "duration": 10, "velocity": 81}, {"time": 326, "pitch": 63, "duration": 11, "velocity": 81}, {"time": 326, "pitch": 66, "duration": 10, "velocity": 82}, {"time": 338, "pitch": 49, "duration": 17, "velocity": 86}, {"time": 338, "pitch": 56, "duration": 4, "velocity": 85}, {"time": 338, "pitch": 61, "duration": 7, "velocity": 83}, {"time": 344, "pitch": 56, "duration": 7, "velocity": 88}, {"time": 350, "pitch": 61, "duration": 7, "velocity": 90}, {"time": 350, "pitch": 65, "duration": 9, "velocity": 89}, {"time": 356, "pitch": 56, "duration": 2, "velocity": 86}, {"time": 362, "pitch": 48, "duration": 13, "velocity": 81}, {"time": 362, "pitch": 58, "duration": 7, "velocity": 83}, {"time": 362, "pitch": 63, "duration": 7, "velocity": 86}, {"time": 362, "pitch": 67, "duration": 7, "velocity": 81}, {"time": 374, "pitch": 53, "duration": 9, "velocity": 88}, {"time": 374, "pitch": 60, "duration": 4, "velocity": 82}, {"time": 374, "pitch": 65, "duration": 7, "velocity": 85}, {"time": 374, "pitch": 68, "duration": 8, "velocity": 82}, {"time": 380, "pitch": 60, "duration": 3, "velocity": 91}, {"time": 386, "pitch": 46, "duration": 9, "velocity": 87}, {"time": 386, "pitch": 58, "duration": 6, "velocity": 72}, {"time": 386, "pitch": 61, "duration": 6, "velocity": 77}, {"time": 398, "pitch": 48, "duration": 4, "velocity": 88}, {"time": 398, "pitch": 60, "duration": 4, "velocity": 86}, {"time": 398, "pitch": 63, "duration": 3, "velocity": 89}, {"time": 410, "pitch": 37, "duration": 7, "velocity": 85}, {"time": 410, "pitch": 56, "duration": 4, "velocity": 82}, {"time": 410, "pitch": 61, "duration": 4, "velocity": 82}, {"time": 410, "pitch": 65, "duration": 5, "velocity": 87}, {"time": 422, "pitch": 39, "duration": 7, "velocity": 89}, {"time": 422, "pitch": 58, "duration": 3, "velocity": 83}, {"time": 422, "pitch": 63, "duration": 7, "velocity": 86}, {"time": 422, "pitch": 67, "duration": 7, "velocity": 87}, {"time": 428, "pitch": 58, "duration": 3, "velocity": 92}, {"time": 434, "pitch": 44, "duration": 18, "velocity": 87}, {"time": 434, "pitch": 56, "duration": 13, "velocity": 82}, {"time": 434, "pitch": 60, "duration": 7, "velocity": 79}, {"time": 440, "pitch": 51, "duration": 13, "velocity": 82}, {"time": 446, "pitch": 60, "duration": 6, "velocity": 89}, {"time": 446, "pitch": 63, "duration": 6, "velocity": 89}, {"time": 452, "pitch": 56, "duration": 2, "velocity": 88}, {"time": 458, "pitch": 43, "duration": 16, "velocity": 86}, {"time": 458, "pitch": 63, "duration": 7, "velocity": 86}, {"time": 458, "pitch": 67, "duration": 7, "velocity": 82}, {"time": 464, "pitch": 58, "duration": 8, "velocity": 87}, {"time": 470, "pitch": 63, "duration": 12, "velocity": 92}, {"time": 470, "pitch": 67, "duration": 9, "velocity": 95}, {"time": 476, "pitch": 43, "duration": 4, "velocity": 88}, {"time": 482, "pitch": 41, "duration": 18, "velocity": 88}, {"time": 482, "pitch": 60, "duration": 13, "velocity": 80}, {"time": 482, "pitch": 65, "duration": 8, "velocity": 86}, {"time": 488, "pitch": 48, "duration": 11, "velocity": 77}, {"time": 494, "pitch": 65, "duration": 6, "velocity": 93}, {"time": 494, "pitch": 68, "duration": 6, "velocity": 87}, {"time": 500, "pitch": 60, "duration": 2, "velocity": 91}, {"time": 506, "pitch": 51, "duration": 8, "velocity": 89}, {"time": 506, "pitch": 63, "duration": 6, "velocity": 82}, {"time": 506, "pitch": 67, "duration": 6, "velocity": 76}, {"time": 512, "pitch": 58, "duration": 3, "velocity": 85}, {"time": 518, "pitch": 44, "duration": 10, "velocity": 88}, {"time": 518, "pitch": 56, "duration": 4, "velocity": 80}, {"time": 518, "pitch": 60, "duration": 6, "velocity": 79}, {"time": 518, "pitch": 63, "duration": 7, "velocity": 81}, {"time": 524, "pitch": 56, "duration": 4, "velocity": 86}, {"time": 530, "pitch": 49, "duration": 15, "velocity": 88}, {"time": 530, "pitch": 56, "duration": 3, "velocity": 85}, {"time": 530, "pitch": 61, "duration": 6, "velocity": 86}, {"time": 536, "pitch": 56, "duration": 7, "velocity": 87}, {"time": 542, "pitch": 61, "duration": 4, "velocity": 90}, {"time": 542, "pitch": 65, "duration": 5, "velocity": 95}, {"time": 548, "pitch": 56, "duration": 1, "velocity": 91}, {"time": 554, "pitch": 48, "duration": 10, "velocity": 88}, {"time": 554, "pitch": 60, "duration": 8, "velocity": 79}, {"time": 554, "pitch": 63, "duration": 7, "velocity": 82}, {"time": 560, "pitch": 55, "duration": 3, "velocity": 78}, {"time": 566, "pitch": 53, "duration": 6, "velocity": 88}, {"time": 566, "pitch": 60, "duration": 2, "velocity": 88}, {"time": 566, "pitch": 65, "duration": 7, "velocity": 90}, {"time": 572, "pitch": 60, "duration": 2, "velocity": 93}, {"time": 578, "pitch": 46, "duration": 15, "velocity": 87}, {"time": 578, "pitch": 58, "duration": 9, "velocity": 88}, {"time": 578, "pitch": 61, "duration": 7, "velocity": 87}, {"time": 584, "pitch": 53, "duration": 9, "velocity": 81}, {"time": 590, "pitch": 58, "duration": 3, "velocity": 86}, {"time": 590, "pitch": 61, "duration": 4, "velocity": 93}, {"time": 590, "pitch": 65, "duration": 5, "velocity": 93}, {"time": 596, "pitch": 58, "duration": 5, "velocity": 91}, {"time": 602, "pitch": 39, "duration": 24, "velocity": 89}, {"time": 602, "pitch": 58, "duration": 3, "velocity": 81}, {"time": 602, "pitch": 63, "duration": 3, "velocity": 89}, {"time": 602, "pitch": 67, "duration": 4, "velocity": 90}, {"time": 608, "pitch": 46, "duration": 18, "velocity": 75}, {"time": 614, "pitch": 55, "duration": 11, "velocity": 89}, {"time": 614, "pitch": 58, "duration": 11, "velocity": 87}, {"time": 614, "pitch": 63, "duration": 12, "velocity": 86}, {"time": 620, "pitch": 51, "duration": 5, "velocity": 95}, {"time": 626, "pitch": 44, "duration": 18, "velocity": 87}, {"time": 626, "pitch": 56, "duration": 13, "velocity": 82}, {"time": 626, "pitch": 60, "duration": 7, "velocity": 79}, {"time": 632, "pitch": 51, "duration": 13, "velocity": 82}, {"time": 638, "pitch": 60, "duration": 6, "velocity": 89}, {"time": 638, "pitch": 63, "duration": 6, "velocity": 89}, {"time": 644, "pitch": 56, "duration": 2, "velocity": 88}, {"time": 650, "pitch": 43, "duration": 16, "velocity": 86}, {"time": 650, "pitch": 63, "duration": 7, "velocity": 86}, {"time": 650, "pitch": 67, "duration": 7, "velocity": 82}, {"time": 656, "pitch": 58, "duration": 8, "velocity": 87}, {"time": 662, "pitch": 63, "duration": 12, "velocity": 92}, {"time": 662, "pitch": 67, "duration": 9, "velocity": 95}, {"time": 668, "pitch": 43, "duration": 4, "velocity": 88}, {"time": 674, "pitch": 41, "duration": 18, "velocity": 88}, {"time": 674, "pitch": 60, "duration": 13, "velocity": 80}, {"time": 674, "pitch": 65, "duration": 8, "velocity": 86}, {"time": 680, "pitch": 48, "duration": 11, "velocity": 77}, {"time": 686, "pitch": 65, "duration": 6, "velocity": 93}, {"time": 686, "pitch": 68, "duration": 6, "velocity": 87}, {"time": 692, "pitch": 60, "duration": 2, "velocity": 91}, {"time": 698, "pitch": 51, "duration": 8, "velocity": 89}, {"time": 698, "pitch": 63, "duration": 6, "velocity": 82}, {"time": 698, "pitch": 67, "duration": 6, "velocity": 76}, {"time": 704, "pitch": 58, "duration": 3, "velocity": 85}, {"time": 710, "pitch": 44, "duration": 10, "velocity": 88}, {"time": 710, "pitch": 56, "duration": 4, "velocity": 80}, {"time": 710, "pitch": 60, "duration": 6, "velocity": 79}, {"time": 710, "pitch": 63, "duration": 7, "velocity": 81}, {"time": 716, "pitch": 56, "duration": 4, "velocity": 86}, {"time": 722, "pitch": 49, "duration": 15, "velocity": 88}, {"time": 722, "pitch": 56, "duration": 3, "velocity": 85}, {"time": 722, "pitch": 61, "duration": 6, "velocity": 86}, {"time": 728, "pitch": 56, "duration": 7, "velocity": 87}, {"time": 734, "pitch": 61, "duration": 4, "velocity": 90}, {"time": 734, "pitch": 65, "duration": 5, "velocity": 95}, {"time": 740, "pitch": 56, "duration": 1, "velocity": 91}, {"time": 746, "pitch": 48, "duration": 10, "velocity": 88}, {"time": 746, "pitch": 60, "duration": 8, "velocity": 79}, {"time": 746, "pitch": 63, "duration": 7, "velocity": 82}, {"time": 752, "pitch": 55, "duration": 3, "velocity": 78}, {"time": 758, "pitch": 53, "duration": 6, "velocity": 88}, {"time": 758, "pitch": 60, "duration": 2, "velocity": 88}, {"time": 758, "pitch": 65, "duration": 7, "velocity": 90}, {"time": 764, "pitch": 60, "duration": 2, "velocity": 93}, {"time": 770, "pitch": 46, "duration": 15, "velocity": 87}, {"time": 770, "pitch": 58, "duration": 9, "velocity": 88}, {"time": 770, "pitch": 61, "duration": 7, "velocity": 87}, {"time": 776, "pitch": 53, "duration": 9, "velocity": 81}, {"time": 782, "pitch": 58, "duration": 3, "velocity": 86}, {"time": 782, "pitch": 61, "duration": 4, "velocity": 93}, {"time": 782, "pitch": 65, "duration": 5, "velocity": 93}, {"time": 788, "pitch": 58, "duration": 5, "velocity": 91}, {"time": 794, "pitch": 39, "duration": 24, "velocity": 89}, {"time": 794, "pitch": 58, "duration": 3, "velocity": 81}, {"time": 794, "pitch": 63, "duration": 3, "velocity": 89}, {"time": 794, "pitch": 67, "duration": 4, "velocity": 90}, {"time": 800, "pitch": 46, "duration": 18, "velocity": 75}, {"time": 806, "pitch": 55, "duration": 11, "velocity": 89}, {"time": 806, "pitch": 58, "duration": 11, "velocity": 87}, {"time": 806, "pitch": 63, "duration": 12, "velocity": 86}, {"time": 812, "pitch": 51, "duration": 5, "velocity": 95}, {"time": 818, "pitch": 39, "duration": 11, "velocity": 79}, {"time": 818, "pitch": 63, "duration": 12, "velocity": 74}, {"time": 818, "pitch": 67, "duration": 12, "velocity": 72}, {"time": 818, "pitch": 75, "duration": 12, "velocity": 81}, {"time": 841, "pitch": 61, "duration": 12, "velocity": 72}, {"time": 841, "pitch": 65, "duration": 11, "velocity": 81}, {"time": 842, "pitch": 49, "duration": 10, "velocity": 86}, {"time": 842, "pitch": 68, "duration": 10, "velocity": 74}, {"time": 842, "pitch": 73, "duration": 10, "velocity": 83}, {"time": 865, "pitch": 60, "duration": 14, "velocity": 77}, {"time": 865, "pitch": 63, "duration": 14, "velocity": 83}, {"time": 865, "pitch": 48, "duration": 15, "velocity": 86}, {"time": 866, "pitch": 67, "duration": 13, "velocity": 77}, {"time": 889, "pitch": 56, "duration": 18, "velocity": 79}, {"time": 889, "pitch": 65, "duration": 24, "velocity": 87}, {"time": 889, "pitch": 61, "duration": 17, "velocity": 80}, {"time": 890, "pitch": 46, "duration": 18, "velocity": 85}, {"time": 914, "pitch": 44, "duration": 17, "velocity": 86}, {"time": 914, "pitch": 63, "duration": 8, "velocity": 85}, {"time": 914, "pitch": 56, "duration": 7, "velocity": 80}, {"time": 914, "pitch": 60, "duration": 7, "velocity": 77}, {"time": 920, "pitch": 51, "duration": 9, "velocity": 69}, {"time": 923, "pitch": 58, "duration": 7, "velocity": 88}, {"time": 929, "pitch": 60, "duration": 3, "velocity": 81}, {"time": 937, "pitch": 56, "duration": 5, "velocity": 75}, {"time": 937, "pitch": 61, "duration": 8, "velocity": 78}, {"time": 938, "pitch": 37, "duration": 1, "velocity": 86}, {"time": 938, "pitch": 65, "duration": 9, "velocity": 86}, {"time": 944, "pitch": 49, "duration": 15, "velocity": 82}, {"time": 947, "pitch": 56, "duration": 7, "velocity": 80}, {"time": 950, "pitch": 61, "duration": 4, "velocity": 93}, {"time": 953, "pitch": 65, "duration": 3, "velocity": 97}, {"time": 962, "pitch": 61, "duration": 13, "velocity": 82}, {"time": 962, "pitch": 49, "duration": 14, "velocity": 90}, {"time": 962, "pitch": 68, "duration": 14, "velocity": 78}, {"time": 983, "pitch": 75, "duration": 10, "velocity": 80}, {"time": 984, "pitch": 70, "duration": 14, "velocity": 73}, {"time": 984, "pitch": 67, "duration": 7, "velocity": 70}, {"time": 985, "pitch": 63, "duration": 10, "velocity": 80}, {"time": 985, "pitch": 39, "duration": 2, "velocity": 86}, {"time": 991, "pitch": 51, "duration": 17, "velocity": 79}, {"time": 994, "pitch": 58, "duration": 14, "velocity": 84}, {"time": 997, "pitch": 63, "duration": 4, "velocity": 86}, {"time": 1000, "pitch": 68, "duration": 4, "velocity": 74}, {"time": 1003, "pitch": 70, "duration": 24, "velocity": 75}, {"time": 1006, "pitch": 75, "duration": 27, "velocity": 87}, {"time": 1009, "pitch": 58, "duration": 16, "velocity": 77}, {"time": 1009, "pitch": 51, "duration": 17, "velocity": 82}, {"time": 1034, "pitch": 44, "duration": 19, "velocity": 86}, {"time": 1034, "pitch": 56, "duration": 17, "velocity": 78}, {"time": 1034, "pitch": 60, "duration": 16, "velocity": 81}, {"time": 1058, "pitch": 43, "duration": 17, "velocity": 81}, {"time": 1058, "pitch": 58, "duration": 15, "velocity": 73}, {"time": 1058, "pitch": 63, "duration": 15, "velocity": 80}, {"time": 1082, "pitch": 41, "duration": 16, "velocity": 87}, {"time": 1082, "pitch": 60, "duration": 17, "velocity": 74}, {"time": 1082, "pitch": 65, "duration": 16, "velocity": 82}, {"time": 1106, "pitch": 48, "duration": 17, "velocity": 86}, {"time": 1106, "pitch": 60, "duration": 17, "velocity": 73}, {"time": 1106, "pitch": 63, "duration": 16, "velocity": 71}, {"time": 1130, "pitch": 49, "duration": 19, "velocity": 87}, {"time": 1130, "pitch": 61, "duration": 9, "velocity": 74}, {"time": 1130, "pitch": 65, "duration": 8, "velocity": 78}, {"time": 1130, "pitch": 68, "duration": 8, "velocity": 79}, {"time": 1136, "pitch": 56, "duration": 12, "velocity": 72}, {"time": 1142, "pitch": 61, "duration": 6, "velocity": 83}, {"time": 1142, "pitch": 65, "duration": 6, "velocity": 87}, {"time": 1154, "pitch": 48, "duration": 16, "velocity": 86}, {"time": 1154, "pitch": 60, "duration": 15, "velocity": 80}, {"time": 1154, "pitch": 63, "duration": 14, "velocity": 79}, {"time": 1178, "pitch": 46, "duration": 21, "velocity": 86}, {"time": 1178, "pitch": 56, "duration": 10, "velocity": 86}, {"time": 1178, "pitch": 61, "duration": 9, "velocity": 86}, {"time": 1190, "pitch": 56, "duration": 5, "velocity": 87}, {"time": 1190, "pitch": 61, "duration": 5, "velocity": 88}, {"time": 1190, "pitch": 65, "duration": 4, "velocity": 89}, {"time": 1202, "pitch": 49, "duration": 24, "velocity": 83}, {"time": 1202, "pitch": 56, "duration": 23, "velocity": 84}, {"time": 1202, "pitch": 61, "duration": 23, "velocity": 86}, {"time": 1226, "pitch": 44, "duration": 18, "velocity": 86}, {"time": 1226, "pitch": 56, "duration": 9, "velocity": 79}, {"time": 1226, "pitch": 63, "duration": 8, "velocity": 80}, {"time": 1232, "pitch": 51, "duration": 12, "velocity": 73}, {"time": 1238, "pitch": 60, "duration": 7, "velocity": 86}, {"time": 1238, "pitch": 63, "duration": 7, "velocity": 84}, {"time": 1250, "pitch": 43, "duration": 20, "velocity": 81}, {"time": 1250, "pitch": 58, "duration": 7, "velocity": 79}, {"time": 1250, "pitch": 63, "duration": 7, "velocity": 82}, {"time": 1256, "pitch": 51, "duration": 14, "velocity": 77}, {"time": 1262, "pitch": 58, "duration": 10, "velocity": 91}, {"time": 1268, "pitch": 63, "duration": 7, "velocity": 82}, {"time": 1274, "pitch": 41, "duration": 16, "velocity": 86}, {"time": 1274, "pitch": 65, "duration": 9, "velocity": 85}, {"time": 1280, "pitch": 48, "duration": 10, "velocity": 68}, {"time": 1286, "pitch": 65, "duration": 11, "velocity": 89}, {"time": 1286, "pitch": 68, "duration": 13, "velocity": 85}, {"time": 1298, "pitch": 48, "duration": 7, "velocity": 85}, {"time": 1298, "pitch": 58, "duration": 7, "velocity": 82}, {"time": 1298, "pitch": 63, "duration": 6, "velocity": 82}, {"time": 1298, "pitch": 67, "duration": 6, "velocity": 75}, {"time": 1310, "pitch": 44, "duration": 11, "velocity": 86}, {"time": 1310, "pitch": 56, "duration": 10, "velocity": 79}, {"time": 1310, "pitch": 60, "duration": 10, "velocity": 81}, {"time": 1310, "pitch": 63, "duration": 11, "velocity": 81}, {"time": 1310, "pitch": 66, "duration": 10, "velocity": 82}, {"time": 1322, "pitch": 49, "duration": 17, "velocity": 86}, {"time": 1322, "pitch": 56, "duration": 4, "velocity": 85}, {"time": 1322, "pitch": 61, "duration": 7, "velocity": 83}, {"time": 1328, "pitch": 56, "duration": 7, "velocity": 88}, {"time": 1334, "pitch": 61, "duration": 7, "velocity": 90}, {"time": 1334, "pitch": 65, "duration": 9, "velocity": 89}, {"time": 1340, "pitch": 56, "duration": 2, "velocity": 86}, {"time": 1346, "pitch": 48, "duration": 13, "velocity": 81}, {"time": 1346, "pitch": 58, "duration": 7, "velocity": 83}, {"time": 1346, "pitch": 63, "duration": 7, "velocity": 86}, {"time": 1346, "pitch": 67, "duration": 7, "velocity": 81}, {"time": 1358, "pitch": 53, "duration": 9, "velocity": 88}, {"time": 1358, "pitch": 60, "duration": 4, "velocity": 82}, {"time": 1358, "pitch": 65, "duration": 7, "velocity": 85}, {"time": 1358, "pitch": 68, "duration": 8, "velocity": 82}, {"time": 1364, "pitch": 60, "duration": 3, "velocity": 91}, {"time": 1370, "pitch": 46, "duration": 9, "velocity": 87}, {"time": 1370, "pitch": 58, "duration": 6, "velocity": 72}, {"time": 1370, "pitch": 61, "duration": 6, "velocity": 77}, {"time": 1382, "pitch": 48, "duration": 4, "velocity": 88}, {"time": 1382, "pitch": 60, "duration": 4, "velocity": 86}, {"time": 1382, "pitch": 63, "duration": 3, "velocity": 89}, {"time": 1394, "pitch": 37, "duration": 7, "velocity": 85}, {"time": 1394, "pitch": 56, "duration": 4, "velocity": 82}, {"time": 1394, "pitch": 61, "duration": 4, "velocity": 82}, {"time": 1394, "pitch": 65, "duration": 5, "velocity": 87}, {"time": 1406, "pitch": 39, "duration": 7, "velocity": 89}, {"time": 1406, "pitch": 58, "duration": 3, "velocity": 83}, {"time": 1406, "pitch": 63, "duration": 7, "velocity": 86}, {"time": 1406, "pitch": 67, "duration": 7, "velocity": 87}, {"time": 1412, "pitch": 58, "duration": 3, "velocity": 92}, {"time": 1418, "pitch": 44, "duration": 18, "velocity": 87}, {"time": 1418, "pitch": 56, "duration": 13, "velocity": 82}, {"time": 1418, "pitch": 60, "duration": 7, "velocity": 79}, {"time": 1424, "pitch": 51, "duration": 13, "velocity": 82}, {"time": 1430, "pitch": 60, "duration": 6, "velocity": 89}, {"time": 1430, "pitch": 63, "duration": 6, "velocity": 89}, {"time": 1436, "pitch": 56, "duration": 2, "velocity": 88}, {"time": 1442, "pitch": 43, "duration": 16, "velocity": 86}, {"time": 1442, "pitch": 63, "duration": 7, "velocity": 86}, {"time": 1442, "pitch": 67, "duration": 7, "velocity": 82}, {"time": 1448, "pitch": 58, "duration": 8, "velocity": 87}, {"time": 1454, "pitch": 63, "duration": 12, "velocity": 92}, {"time": 1454, "pitch": 67, "duration": 9, "velocity": 95}, {"time": 1460, "pitch": 43, "duration": 4, "velocity": 88}, {"time": 1466, "pitch": 41, "duration": 18, "velocity": 88}, {"time": 1466, "pitch": 60, "duration": 13, "velocity": 80}, {"time": 1466, "pitch": 65, "duration": 8, "velocity": 86}, {"time": 1472, "pitch": 48, "duration": 11, "velocity": 77}, {"time": 1478, "pitch": 65, "duration": 6, "velocity": 93}, {"time": 1478, "pitch": 68, "duration": 6, "velocity": 87}, {"time": 1484, "pitch": 60, "duration": 2, "velocity": 91}, {"time": 1490, "pitch": 51, "duration": 8, "velocity": 89}, {"time": 1490, "pitch": 63, "duration": 6, "velocity": 82}, {"time": 1490, "pitch": 67, "duration": 6, "velocity": 76}, {"time": 1496, "pitch": 58, "duration": 3, "velocity": 85}, {"time": 1502, "pitch": 44, "duration": 10, "velocity": 88}, {"time": 1502, "pitch": 56, "duration": 4, "velocity": 80}, {"time": 1502, "pitch": 60, "duration": 6, "velocity": 79}, {"time": 1502, "pitch": 63, "duration": 7, "velocity": 81}, {"time": 1508, "pitch": 56, "duration": 4, "velocity": 86}, {"time": 1514, "pitch": 49, "duration": 15, "velocity": 88}, {"time": 1514, "pitch": 56, "duration": 3, "velocity": 85}, {"time": 1514, "pitch": 61, "duration": 6, "velocity": 86}, {"time": 1520, "pitch": 56, "duration": 7, "velocity": 87}, {"time": 1526, "pitch": 61, "duration": 4, "velocity": 90}, {"time": 1526, "pitch": 65, "duration": 5, "velocity": 95}, {"time": 1532, "pitch": 56, "duration": 1, "velocity": 91}, {"time": 1538, "pitch": 48, "duration": 10, "velocity": 88}, {"time": 1538, "pitch": 60, "duration": 8, "velocity": 79}, {"time": 1538, "pitch": 63, "duration": 7, "velocity": 82}, {"time": 1544, "pitch": 55, "duration": 3, "velocity": 78}, {"time": 1550, "pitch": 53, "duration": 6, "velocity": 88}, {"time": 1550, "pitch": 60, "duration": 2, "velocity": 88}, {"time": 1550, "pitch": 65, "duration": 7, "velocity": 90}, {"time": 1556, "pitch": 60, "duration": 2, "velocity": 93}, {"time": 1562, "pitch": 46, "duration": 15, "velocity": 87}, {"time": 1562, "pitch": 58, "duration": 9, "velocity": 88}, {"time": 1562, "pitch": 61, "duration": 7, "velocity": 87}, {"time": 1568, "pitch": 53, "duration": 9, "velocity": 81}, {"time": 1574, "pitch": 58, "duration": 3, "velocity": 86}, {"time": 1574, "pitch": 61, "duration": 4, "velocity": 93}, {"time": 1574, "pitch": 65, "duration": 5, "velocity": 93}, {"time": 1580, "pitch": 58, "duration": 5, "velocity": 91}, {"time": 1586, "pitch": 39, "duration": 24, "velocity": 89}, {"time": 1586, "pitch": 58, "duration": 3, "velocity": 81}, {"time": 1586, "pitch": 63, "duration": 3, "velocity": 89}, {"time": 1586, "pitch": 67, "duration": 4, "velocity": 90}, {"time": 1592, "pitch": 46, "duration": 18, "velocity": 75}, {"time": 1598, "pitch": 55, "duration": 11, "velocity": 89}, {"time": 1598, "pitch": 58, "duration": 11, "velocity": 87}, {"time": 1598, "pitch": 63, "duration": 12, "velocity": 86}, {"time": 1604, "pitch": 51, "duration": 5, "velocity": 95}, {"time": 1610, "pitch": 44, "duration": 18, "velocity": 87}, {"time": 1610, "pitch": 56, "duration": 13, "velocity": 82}, {"time": 1610, "pitch": 60, "duration": 7, "velocity": 79}, {"time": 1616, "pitch": 51, "duration": 13, "velocity": 82}, {"time": 1622, "pitch": 60, "duration": 6, "velocity": 89}, {"time": 1622, "pitch": 63, "duration": 6, "velocity": 89}, {"time": 1628, "pitch": 56, "duration": 2, "velocity": 88}, {"time": 1634, "pitch": 43, "duration": 16, "velocity": 86}, {"time": 1634, "pitch": 63, "duration": 7, "velocity": 86}, {"time": 1634, "pitch": 67, "duration": 7, "velocity": 82}, {"time": 1640, "pitch": 58, "duration": 8, "velocity": 87}, {"time": 1646, "pitch": 63, "duration": 12, "velocity": 92}, {"time": 1646, "pitch": 67, "duration": 9, "velocity": 95}, {"time": 1652, "pitch": 43, "duration": 4, "velocity": 88}, {"time": 1658, "pitch": 41, "duration": 18, "velocity": 88}, {"time": 1658, "pitch": 60, "duration": 13, "velocity": 80}, {"time": 1658, "pitch": 65, "duration": 8, "velocity": 86}, {"time": 1664, "pitch": 48, "duration": 11, "velocity": 77}, {"time": 1670, "pitch": 65, "duration": 6, "velocity": 93}, {"time": 1670, "pitch": 68, "duration": 6, "velocity": 87}, {"time": 1676, "pitch": 60, "duration": 2, "velocity": 91}, {"time": 1682, "pitch": 51, "duration": 8, "velocity": 89}, {"time": 1682, "pitch": 63, "duration": 6, "velocity": 82}, {"time": 1682, "pitch": 67, "duration": 6, "velocity": 76}, {"time": 1688, "pitch": 58, "duration": 3, "velocity": 85}, {"time": 1694, "pitch": 44, "duration": 10, "velocity": 88}, {"time": 1694, "pitch": 56, "duration": 4, "velocity": 80}, {"time": 1694, "pitch": 60, "duration": 6, "velocity": 79}, {"time": 1694, "pitch": 63, "duration": 7, "velocity": 81}, {"time": 1700, "pitch": 56, "duration": 4, "velocity": 86}, {"time": 1706, "pitch": 49, "duration": 15, "velocity": 88}, {"time": 1706, "pitch": 56, "duration": 3, "velocity": 85}, {"time": 1706, "pitch": 61, "duration": 6, "velocity": 86}, {"time": 1712, "pitch": 56, "duration": 7, "velocity": 87}, {"time": 1718, "pitch": 61, "duration": 4, "velocity": 90}, {"time": 1718, "pitch": 65, "duration": 5, "velocity": 95}, {"time": 1724, "pitch": 56, "duration": 1, "velocity": 91}, {"time": 1730, "pitch": 48, "duration": 10, "velocity": 88}, {"time": 1730, "pitch": 60, "duration": 8, "velocity": 79}, {"time": 1730, "pitch": 63, "duration": 7, "velocity": 82}, {"time": 1736, "pitch": 55, "duration": 3, "velocity": 78}, {"time": 1742, "pitch": 53, "duration": 6, "velocity": 88}, {"time": 1742, "pitch": 60, "duration": 2, "velocity": 88}, {"time": 1742, "pitch": 65, "duration": 7, "velocity": 90}, {"time": 1748, "pitch": 60, "duration": 2, "velocity": 93}, {"time": 1754, "pitch": 46, "duration": 15, "velocity": 87}, {"time": 1754, "pitch": 58, "duration": 9, "velocity": 88}, {"time": 1754, "pitch": 61, "duration": 7, "velocity": 87}, {"time": 1760, "pitch": 53, "duration": 9, "velocity": 81}, {"time": 1766, "pitch": 58, "duration": 3, "velocity": 86}, {"time": 1766, "pitch": 61, "duration": 4, "velocity": 93}, {"time": 1766, "pitch": 65, "duration": 5, "velocity": 93}, {"time": 1772, "pitch": 58, "duration": 5, "velocity": 91}, {"time": 1778, "pitch": 39, "duration": 24, "velocity": 89}, {"time": 1778, "pitch": 58, "duration": 3, "velocity": 81}, {"time": 1778, "pitch": 63, "duration": 3, "velocity": 89}, {"time": 1778, "pitch": 67, "duration": 4, "velocity": 90}, {"time": 1784, "pitch": 46, "duration": 18, "velocity": 75}, {"time": 1790, "pitch": 55, "duration": 11, "velocity": 89}, {"time": 1790, "pitch": 58, "duration": 11, "velocity": 87}, {"time": 1790, "pitch": 63, "duration": 12, "velocity": 86}, {"time": 1796, "pitch": 51, "duration": 5, "velocity": 95}, {"time": 1802, "pitch": 44, "duration": 18, "velocity": 87}, {"time": 1802, "pitch": 56, "duration": 13, "velocity": 82}, {"time": 1802, "pitch": 60, "duration": 7, "velocity": 79}, {"time": 1808, "pitch": 51, "duration": 13, "velocity": 82}, {"time": 1814, "pitch": 60, "duration": 6, "velocity": 89}, {"time": 1814, "pitch": 63, "duration": 6, "velocity": 89}, {"time": 1820, "pitch": 56, "duration": 2, "velocity": 88}, {"time": 1826, "pitch": 43, "duration": 16, "velocity": 86}, {"time": 1826, "pitch": 63, "duration": 7, "velocity": 86}, {"time": 1826, "pitch": 67, "duration": 7, "velocity": 82}, {"time": 1832, "pitch": 58, "duration": 8, "velocity": 87}, {"time": 1838, "pitch": 63, "duration": 12, "velocity": 92}, {"time": 1838, "pitch": 67, "duration": 9, "velocity": 95}, {"time": 1844, "pitch": 43, "duration": 4, "velocity": 88}, {"time": 1850, "pitch": 41, "duration": 18, "velocity": 88}, {"time": 1850, "pitch": 60, "duration": 13, "velocity": 80}, {"time": 1850, "pitch": 65, "duration": 8, "velocity": 86}, {"time": 1856, "pitch": 48, "duration": 11, "velocity": 77}, {"time": 1862, "pitch": 65, "duration": 6, "velocity": 93}, {"time": 1862, "pitch": 68, "duration": 6, "velocity": 87}, {"time": 1868, "pitch": 60, "duration": 2, "velocity": 91}, {"time": 1874, "pitch": 51, "duration": 8, "velocity": 89}, {"time": 1874, "pitch": 63, "duration": 6, "velocity": 82}, {"time": 1874, "pitch": 67, "duration": 6, "velocity": 76}, {"time": 1880, "pitch": 58, "duration": 3, "velocity": 85}, {"time": 1886, "pitch": 44, "duration": 10, "velocity": 88}, {"time": 1886, "pitch": 56, "duration": 4, "velocity": 80}, {"time": 1886, "pitch": 60, "duration": 6, "velocity": 79}, {"time": 1886, "pitch": 63, "duration": 7, "velocity": 81}, {"time": 1892, "pitch": 56, "duration": 4, "velocity": 86}, {"time": 1898, "pitch": 49, "duration": 15, "velocity": 88}, {"time": 1898, "pitch": 56, "duration": 3, "velocity": 85}, {"time": 1898, "pitch": 61, "duration": 6, "velocity": 86}, {"time": 1904, "pitch": 56, "duration": 7, "velocity": 87}, {"time": 1910, "pitch": 61, "duration": 4, "velocity": 90}, {"time": 1910, "pitch": 65, "duration": 5, "velocity": 95}, {"time": 1916, "pitch": 56, "duration": 1, "velocity": 91}, {"time": 1922, "pitch": 48, "duration": 10, "velocity": 88}, {"time": 1922, "pitch": 60, "duration": 8, "velocity": 79}, {"time": 1922, "pitch": 63, "duration": 7, "velocity": 82}, {"time": 1928, "pitch": 55, "duration": 3, "velocity": 78}, {"time": 1934, "pitch": 53, "duration": 6, "velocity": 88}, {"time": 1934, "pitch": 60, "duration": 2, "velocity": 88}, {"time": 1934, "pitch": 65, "duration": 7, "velocity": 90}, {"time": 1940, "pitch": 60, "duration": 2, "velocity": 93}, {"time": 1946, "pitch": 46, "duration": 15, "velocity": 87}, {"time": 1946, "pitch": 58, "duration": 9, "velocity": 88}, {"time": 1946, "pitch": 61, "duration": 7, "velocity": 87}, {"time": 1952, "pitch": 53, "duration": 9, "velocity": 81}, {"time": 1958, "pitch": 58, "duration": 3, "velocity": 86}, {"time": 1958, "pitch": 61, "duration": 4, "velocity": 93}, {"time": 1958, "pitch": 65, "duration": 5, "velocity": 93}, {"time": 1964, "pitch": 58, "duration": 5, "velocity": 91}, {"time": 1970, "pitch": 39, "duration": 24, "velocity": 89}, {"time": 1970, "pitch": 58, "duration": 3, "velocity": 81}, {"time": 1970, "pitch": 63, "duration": 3, "velocity": 89}, {"time": 1970, "pitch": 67, "duration": 4, "velocity": 90}, {"time": 1976, "pitch": 46, "duration": 18, "velocity": 75}, {"time": 1982, "pitch": 55, "duration": 11, "velocity": 89}, {"time": 1982, "pitch": 58, "duration": 11, "velocity": 87}, {"time": 1982, "pitch": 63, "duration": 12, "velocity": 86}, {"time": 1988, "pitch": 51, "duration": 5, "velocity": 95}, {"time": 1994, "pitch": 44, "duration": 18, "velocity": 87}, {"time": 1994, "pitch": 56, "duration": 13, "velocity": 82}, {"time": 1994, "pitch": 60, "duration": 7, "velocity": 79}, {"time": 2000, "pitch": 51, "duration": 13, "velocity": 82}, {"time": 2006, "pitch": 60, "duration": 6, "velocity": 89}, {"time": 2006, "pitch": 63, "duration": 6, "velocity": 89}, {"time": 2012, "pitch": 56, "duration": 2, "velocity": 88}, {"time": 2018, "pitch": 43, "duration": 16, "velocity": 86}, {"time": 2018, "pitch": 63, "duration": 7, "velocity": 86}, {"time": 2018, "pitch": 67, "duration": 7, "velocity": 82}, {"time": 2024, "pitch": 58, "duration": 8, "velocity": 87}, {"time": 2030, "pitch": 63, "duration": 12, "velocity": 92}, {"time": 2030, "pitch": 67, "duration": 9, "velocity": 95}, {"time": 2036, "pitch": 43, "duration": 4, "velocity": 88}, {"time": 2042, "pitch": 41, "duration": 18, "velocity": 88}, {"time": 2042, "pitch": 60, "duration": 13, "velocity": 80}, {"time": 2042, "pitch": 65, "duration": 8, "velocity": 86}, {"time": 2048, "pitch": 48, "duration": 11, "velocity": 77}, {"time": 2054, "pitch": 65, "duration": 6, "velocity": 93}, {"time": 2054, "pitch": 68, "duration": 6, "velocity": 87}, {"time": 2060, "pitch": 60, "duration": 2, "velocity": 91}, {"time": 2066, "pitch": 51, "duration": 8, "velocity": 89}, {"time": 2066, "pitch": 63, "duration": 6, "velocity": 82}, {"time": 2066, "pitch": 67, "duration": 6, "velocity": 76}, {"time": 2072, "pitch": 58, "duration": 3, "velocity": 85}, {"time": 2078, "pitch": 44, "duration": 10, "velocity": 88}, {"time": 2078, "pitch": 56, "duration": 4, "velocity": 80}, {"time": 2078, "pitch": 60, "duration": 6, "velocity": 79}, {"time": 2078, "pitch": 63, "duration": 7, "velocity": 81}, {"time": 2084, "pitch": 56, "duration": 4, "velocity": 86}, {"time": 2090, "pitch": 49, "duration": 15, "velocity": 88}, {"time": 2090, "pitch": 56, "duration": 3, "velocity": 85}, {"time": 2090, "pitch": 61, "duration": 6, "velocity": 86}, {"time": 2096, "pitch": 56, "duration": 7, "velocity": 87}, {"time": 2102, "pitch": 61, "duration": 4, "velocity": 90}, {"time": 2102, "pitch": 65, "duration": 5, "velocity": 95}, {"time": 2108, "pitch": 56, "duration": 1, "velocity": 91}, {"time": 2114, "pitch": 48, "duration": 10, "velocity": 88}, {"time": 2114, "pitch": 60, "duration": 8, "velocity": 79}, {"time": 2114, "pitch": 63, "duration": 7, "velocity": 82}, {"time": 2120, "pitch": 55, "duration": 3, "velocity": 78}, {"time": 2126, "pitch": 53, "duration": 6, "velocity": 88}, {"time": 2126, "pitch": 60, "duration": 2, "velocity": 88}, {"time": 2126, "pitch": 65, "duration": 7, "velocity": 90}, {"time": 2132, "pitch": 60, "duration": 2, "velocity": 93}, {"time": 2138, "pitch": 46, "duration": 15, "velocity": 87}, {"time": 2138, "pitch": 58, "duration": 9, "velocity": 88}, {"time": 2138, "pitch": 61, "duration": 7, "velocity": 87}, {"time": 2144, "pitch": 53, "duration": 9, "velocity": 81}, {"time": 2150, "pitch": 58, "duration": 3, "velocity": 86}, {"time": 2150, "pitch": 61, "duration": 4, "velocity": 93}, {"time": 2150, "pitch": 65, "duration": 5, "velocity": 93}, {"time": 2156, "pitch": 58, "duration": 5, "velocity": 91}, {"time": 2162, "pitch": 39, "duration": 24, "velocity": 89}, {"time": 2162, "pitch": 58, "duration": 3, "velocity": 81}, {"time": 2162, "pitch": 63, "duration": 3, "velocity": 89}, {"time": 2162, "pitch": 67, "duration": 4, "velocity": 90}, {"time": 2168, "pitch": 46, "duration": 18, "velocity": 75}, {"time": 2174, "pitch": 55, "duration": 11, "velocity": 89}, {"time": 2174, "pitch": 58, "duration": 11, "velocity": 87}, {"time": 2174, "pitch": 63, "duration": 12, "velocity": 86}, {"time": 2180, "pitch": 51, "duration": 5, "velocity": 95}, {"time": 2209, "pitch": 61, "duration": 5, "velocity": 69}, {"time": 2209, "pitch": 65, "duration": 5, "velocity": 82}, {"time": 2210, "pitch": 49, "duration": 6, "velocity": 86}, {"time": 2210, "pitch": 68, "duration": 5, "velocity": 78}, {"time": 2221, "pitch": 60, "duration": 4, "velocity": 73}, {"time": 2221, "pitch": 63, "duration": 4, "velocity": 80}, {"time": 2222, "pitch": 48, "duration": 5, "velocity": 83}, {"time": 2222, "pitch": 67, "duration": 3, "velocity": 74}, {"time": 2233, "pitch": 58, "duration": 7, "velocity": 73}, {"time": 2234, "pitch": 61, "duration": 6, "velocity": 82}, {"time": 2234, "pitch": 46, "duration": 6, "velocity": 86}, {"time": 2246, "pitch": 58, "duration": 17, "velocity": 74}, {"time": 2246, "pitch": 63, "duration": 21, "velocity": 79}, {"time": 2246, "pitch": 39, "duration": 6, "velocity": 87}, {"time": 2260, "pitch": 44, "duration": 52, "velocity": 85}, {"time": 2265, "pitch": 51, "duration": 46, "velocity": 74}, {"time": 2268, "pitch": 56, "duration": 3, "velocity": 78}, {"time": 2270, "pitch": 58, "duration": 2, "velocity": 82}, {"time": 2273, "pitch": 60, "duration": 3, "velocity": 82}, {"time": 2275, "pitch": 63, "duration": 3, "velocity": 75}, {"time": 2278, "pitch": 68, "duration": 2, "velocity": 73}, {"time": 2280, "pitch": 70, "duration": 2, "velocity": 66}, {"time": 2283, "pitch": 72, "duration": 4, "velocity": 75}, {"time": 2286, "pitch": 75, "duration": 3, "velocity": 81}, {"time": 2288, "pitch": 80, "duration": 3, "velocity": 73}, {"time": 2291, "pitch": 82, "duration": 2, "velocity": 52}, {"time": 2294, "pitch": 84, "duration": 5, "velocity": 68}, {"time": 2298, "pitch": 87, "duration": 14, "velocity": 75}, {"time": 2302, "pitch": 92, "duration": 12, "velocity": 63}], "annotations": [{"time": 3, "annotation": {"number": 64, "value": 127}, "group": "control_change"}, {"time": 49, "annotation": {"number": 64, "value": 0}, "group": "control_change"}, {"time": 51, "annotation": {"number": 64, "value": 127}, "group": "control_change"}, {"time": 73, "annotation": {"number": 64, "value": 0}, "group": "control_change"}, {"time": 75, "annotation": {"number": 64, "value": 127}, "group": "control_change"}, {"time": 97, "annotation": {"number": 64, "value": 0}, "group": "control_change"}, {"time": 99, "annotation": {"number": 64, "value": 127}, "group": "control_change"}, {"time": 122, "annotation": {"number": 64, "value": 0}, "group": "control_change"}, {"time": 125, "annotation": {"number": 64, "value": 127}, "group": "control_change"}, {"time": 146, "annotation": {"number": 64, "value": 0}, "group": "control_change"}, {"time": 148, "annotation": {"number": 64, "value": 127}, "group": "control_change"}, {"time": 169, "annotation": {"number": 64, "value": 0}, "group": "control_change"}, {"time": 170, "annotation": {"number": 64, "value": 127}, "group": "control_change"}, {"time": 192, "annotation": {"number": 64, "value": 0}, "group": "control_change"}, {"time": 195, "annotation": {"number": 64, "value": 127}, "group": "control_change"}, {"time": 218, "annotation": {"number": 64, "value": 0}, "group": "control_change"}, {"time": 243, "annotation": {"number": 64, "value": 127}, "group": "control_change"}, {"time": 266, "annotation": {"number": 64, "value": 0}, "group": "control_change"}, {"time": 271, "annotation": {"number": 64, "value": 127}, "group": "control_change"}, {"time": 289, "annotation": {"number": 64, "value": 0}, "group": "control_change"}, {"time": 292, "annotation": {"number": 64, "value": 127}, "group": "control_change"}, {"time": 313, "annotation": {"number": 64, "value": 0}, "group": "control_change"}, {"time": 314, "annotation": {"number": 64, "value": 127}, "group": "control_change"}, {"time": 326, "annotation": {"number": 64, "value": 0}, "group": "control_change"}, {"time": 341, "annotation": {"number": 64, "value": 127}, "group": "control_change"}, {"time": 362, "annotation": {"number": 64, "value": 0}, "group": "control_change"}, {"time": 362, "annotation": {"number": 64, "value": 127}, "group": "control_change"}, {"time": 373, "annotation": {"number": 64, "value": 0}, "group": "control_change"}, {"time": 378, "annotation": {"number": 64, "value": 127}, "group": "control_change"}, {"time": 386, "annotation": {"number": 64, "value": 0}, "group": "control_change"}, {"time": 387, "annotation": {"number": 64, "value": 127}, "group": "control_change"}, {"time": 396, "annotation": {"number": 64, "value": 0}, "group": "control_change"}, {"time": 398, "annotation": {"number": 64, "value": 127}, "group": "control_change"}, {"time": 408, "annotation": {"number": 64, "value": 0}, "group": "control_change"}, {"time": 410, "annotation": {"number": 64, "value": 127}, "group": "control_change"}, {"time": 420, "annotation": {"number": 64, "value": 0}, "group": "control_change"}, {"time": 422, "annotation": {"number": 64, "value": 127}, "group": "control_change"}, {"time": 434, "annotation": {"number": 64, "value": 0}, "group": "control_change"}, {"time": 439, "annotation": {"number": 64, "value": 127}, "group": "control_change"}, {"time": 458, "annotation": {"number": 64, "value": 0}, "group": "control_change"}, {"time": 462, "annotation": {"number": 64, "value": 127}, "group": "control_change"}, {"time": 482, "annotation": {"number": 64, "value": 0}, "group": "control_change"}, {"time": 487, "annotation": {"number": 64, "value": 127}, "group": "control_change"}, {"time": 506, "annotation": {"number": 64, "value": 0}, "group": "control_change"}, {"time": 508, "annotation": {"number": 64, "value": 127}, "group": "control_change"}, {"time": 518, "annotation": {"number": 64, "value": 0}, "group": "control_change"}, {"time": 520, "annotation": {"number": 64, "value": 127}, "group": "control_change"}, {"time": 529, "annotation": {"number": 64, "value": 0}, "group": "control_change"}, {"time": 534, "annotation": {"number": 64, "value": 127}, "group": "control_change"}, {"time": 553, "annotation": {"number": 64, "value": 0}, "group": "control_change"}, {"time": 558, "annotation": {"number": 64, "value": 127}, "group": "control_change"}, {"time": 565, "annotation": {"number": 64, "value": 0}, "group": "control_change"}, {"time": 566, "annotation": {"number": 64, "value": 127}, "group": "control_change"}, {"time": 578, "annotation": {"number": 64, "value": 0}, "group": "control_change"}, {"time": 583, "annotation": {"number": 64, "value": 127}, "group": "control_change"}, {"time": 600, "annotation": {"number": 64, "value": 0}, "group": "control_change"}, {"time": 602, "annotation": {"number": 64, "value": 127}, "group": "control_change"}, {"time": 623, "annotation": {"number": 64, "value": 0}, "group": "control_change"}, {"time": 631, "annotation": {"number": 64, "value": 127}, "group": "control_change"}, {"time": 650, "annotation": {"number": 64, "value": 0}, "group": "control_change"}, {"time": 654, "annotation": {"number": 64, "value": 127}, "group": "control_change"}, {"time": 674, "annotation": {"number": 64, "value": 0}, "group": "control_change"}, {"time": 679, "annotation": {"number": 64, "value": 127}, "group": "control_change"}, {"time": 698, "annotation": {"number": 64, "value": 0}, "group": "control_change"}, {"time": 700, "annotation": {"number": 64, "value": 127}, "group": "control_change"}, {"time": 710, "annotation": {"number": 64, "value": 0}, "group": "control_change"}, {"time": 712, "annotation": {"number": 64, "value": 127}, "group": "control_change"}, {"time": 721, "annotation": {"number": 64, "value": 0}, "group": "control_change"}, {"time": 726, "annotation": {"number": 64, "value": 127}, "group": "control_change"}, {"time": 745, "annotation": {"number": 64, "value": 0}, "group": "control_change"}, {"time": 750, "annotation": {"number": 64, "value": 127}, "group": "control_change"}, {"time": 757, "annotation": {"number": 64, "value": 0}, "group": "control_change"}, {"time": 758, "annotation": {"number": 64, "value": 127}, "group": "control_change"}, {"time": 770, "annotation": {"number": 64, "value": 0}, "group": "control_change"}, {"time": 775, "annotation": {"number": 64, "value": 127}, "group": "control_change"}, {"time": 792, "annotation": {"number": 64, "value": 0}, "group": "control_change"}, {"time": 794, "annotation": {"number": 64, "value": 127}, "group": "control_change"}, {"time": 815, "annotation": {"number": 64, "value": 0}, "group": "control_change"}, {"time": 819, "annotation": {"number": 64, "value": 127}, "group": "control_change"}, {"time": 840, "annotation": {"number": 64, "value": 0}, "group": "control_change"}, {"time": 842, "annotation": {"number": 64, "value": 127}, "group": "control_change"}, {"time": 865, "annotation": {"number": 64, "value": 0}, "group": "control_change"}, {"time": 867, "annotation": {"number": 64, "value": 127}, "group": "control_change"}, {"time": 888, "annotation": {"number": 64, "value": 0}, "group": "control_change"}, {"time": 890, "annotation": {"number": 64, "value": 127}, "group": "control_change"}, {"time": 916, "annotation": {"number": 64, "value": 0}, "group": "control_change"}, {"time": 919, "annotation": {"number": 64, "value": 127}, "group": "control_change"}, {"time": 937, "annotation": {"number": 64, "value": 0}, "group": "control_change"}, {"time": 938, "annotation": {"number": 64, "value": 127}, "group": "control_change"}, {"time": 983, "annotation": {"number": 64, "value": 0}, "group": "control_change"}, {"time": 985, "annotation": {"number": 64, "value": 127}, "group": "control_change"}, {"time": 1031, "annotation": {"number": 64, "value": 0}, "group": "control_change"}, {"time": 1035, "annotation": {"number": 64, "value": 127}, "group": "control_change"}, {"time": 1057, "annotation": {"number": 64, "value": 0}, "group": "control_change"}, {"time": 1059, "annotation": {"number": 64, "value": 127}, "group": "control_change"}, {"time": 1081, "annotation": {"number": 64, "value": 0}, "group": "control_change"}, {"time": 1083, "annotation": {"number": 64, "value": 127}, "group": "control_change"}, {"time": 1106, "annotation": {"number": 64, "value": 0}, "group": "control_change"}, {"time": 1109, "annotation": {"number": 64, "value": 127}, "group": "control_change"}, {"time": 1130, "annotation": {"number": 64, "value": 0}, "group": "control_change"}, {"time": 1132, "annotation": {"number": 64, "value": 127}, "group": "control_change"}, {"time": 1153, "annotation": {"number": 64, "value": 0}, "group": "control_change"}, {"time": 1154, "annotation": {"number": 64, "value": 127}, "group": "control_change"}, {"time": 1176, "annotation": {"number": 64, "value": 0}, "group": "control_change"}, {"time": 1179, "annotation": {"number": 64, "value": 127}, "group": "control_change"}, {"time": 1202, "annotation": {"number": 64, "value": 0}, "group": "control_change"}, {"time": 1227, "annotation": {"number": 64, "value": 127}, "group": "control_change"}, {"time": 1250, "annotation": {"number": 64, "value": 0}, "group": "control_change"}, {"time": 1255, "annotation": {"number": 64, "value": 127}, "group": "control_change"}, {"time": 1273, "annotation": {"number": 64, "value": 0}, "group": "control_change"}, {"time": 1276, "annotation": {"number": 64, "value": 127}, "group": "control_change"}, {"time": 1297, "annotation": {"number": 64, "value": 0}, "group": "control_change"}, {"time": 1298, "annotation": {"number": 64, "value": 127}, "group": "control_change"}, {"time": 1310, "annotation": {"number": 64, "value": 0}, "group": "control_change"}, {"time": 1325, "annotation": {"number": 64, "value": 127}, "group": "control_change"}, {"time": 1346, "annotation": {"number": 64, "value": 0}, "group": "control_change"}, {"time": 1346, "annotation": {"number": 64, "value": 127}, "group": "control_change"}, {"time": 1357, "annotation": {"number": 64, "value": 0}, "group": "control_change"}, {"time": 1362, "annotation": {"number": 64, "value": 127}, "group": "control_change"}, {"time": 1370, "annotation": {"number": 64, "value": 0}, "group": "control_change"}, {"time": 1371, "annotation": {"number": 64, "value": 127}, "group": "control_change"}, {"time": 1380, "annotation": {"number": 64, "value": 0}, "group": "control_change"}, {"time": 1382, "annotation": {"number": 64, "value": 127}, "group": "control_change"}, {"time": 1392, "annotation": {"number": 64, "value": 0}, "group": "control_change"}, {"time": 1394, "annotation": {"number": 64, "value": 127}, "group": "control_change"}, {"time": 1404, "annotation": {"number": 64, "value": 0}, "group": "control_change"}, {"time": 1406, "annotation": {"number": 64, "value": 127}, "group": "control_change"}, {"time": 1418, "annotation": {"number": 64, "value": 0}, "group": "control_change"}, {"time": 1423, "annotation": {"number": 64, "value": 127}, "group": "control_change"}, {"time": 1442, "annotation": {"number": 64, "value": 0}, "group": "control_change"}, {"time": 1446, "annotation": {"number": 64, "value": 127}, "group": "control_change"}, {"time": 1466, "annotation": {"number": 64, "value": 0}, "group": "control_change"}, {"time": 1471, "annotation": {"number": 64, "value": 127}, "group": "control_change"}, {"time": 1490, "annotation": {"number": 64, "value": 0}, "group": "control_change"}, {"time": 1492, "annotation": {"number": 64, "value": 127}, "group": "control_change"}, {"time": 1502, "annotation": {"number": 64, "value": 0}, "group": "control_change"}, {"time": 1504, "annotation": {"number": 64, "value": 127}, "group": "control_change"}, {"time": 1513, "annotation": {"number": 64, "value": 0}, "group": "control_change"}, {"time": 1518, "annotation": {"number": 64, "value": 127}, "group": "control_change"}, {"time": 1537, "annotation": {"number": 64, "value": 0}, "group": "control_change"}, {"time": 1542, "annotation": {"number": 64, "value": 127}, "group": "control_change"}, {"time": 1549, "annotation": {"number": 64, "value": 0}, "group": "control_change"}, {"time": 1550, "annotation": {"number": 64, "value": 127}, "group": "control_change"}, {"time": 1562, "annotation": {"number": 64, "value": 0}, "group": "control_change"}, {"time": 1567, "annotation": {"number": 64, "value": 127}, "group": "control_change"}, {"time": 1584, "annotation": {"number": 64, "value": 0}, "group": "control_change"}, {"time": 1586, "annotation": {"number": 64, "value": 127}, "group": "control_change"}, {"time": 1607, "annotation": {"number": 64, "value": 0}, "group": "control_change"}, {"time": 1615, "annotation": {"number": 64, "value": 127}, "group": "control_change"}, {"time": 1634, "annotation": {"number": 64, "value": 0}, "group": "control_change"}, {"time": 1638, "annotation": {"number": 64, "value": 127}, "group": "control_change"}, {"time": 1658, "annotation": {"number": 64, "value": 0}, "group": "control_change"}, {"time": 1663, "annotation": {"number": 64, "value": 127}, "group": "control_change"}, {"time": 1682, "annotation": {"number": 64, "value": 0}, "group": "control_change"}, {"time": 1684, "annotation": {"number": 64, "value": 127}, "group": "control_change"}, {"time": 1694, "annotation": {"number": 64, "value": 0}, "group": "control_change"}, {"time": 1696, "annotation": {"number": 64, "value": 127}, "group": "control_change"}, {"time": 1705, "annotation": {"number": 64, "value": 0}, "group": "control_change"}, {"time": 1710, "annotation": {"number": 64, "value": 127}, "group": "control_change"}, {"time": 1729, "annotation": {"number": 64, "value": 0}, "group": "control_change"}, {"time": 1734, "annotation": {"number": 64, "value": 127}, "group": "control_change"}, {"time": 1741, "annotation": {"number": 64, "value": 0}, "group": "control_change"}, {"time": 1742, "annotation": {"number": 64, "value": 127}, "group": "control_change"}, {"time": 1754, "annotation": {"number": 64, "value": 0}, "group": "control_change"}, {"time": 1759, "annotation": {"number": 64, "value": 127}, "group": "control_change"}, {"time": 1776, "annotation": {"number": 64, "value": 0}, "group": "control_change"}, {"time": 1778, "annotation": {"number": 64, "value": 127}, "group": "control_change"}, {"time": 1799, "annotation": {"number": 64, "value": 0}, "group": "control_change"}, {"time": 1807, "annotation": {"number": 64, "value": 127}, "group": "control_change"}, {"time": 1826, "annotation": {"number": 64, "value": 0}, "group": "control_change"}, {"time": 1830, "annotation": {"number": 64, "value": 127}, "group": "control_change"}, {"time": 1850, "annotation": {"number": 64, "value": 0}, "group": "control_change"}, {"time": 1855, "annotation": {"number": 64, "value": 127}, "group": "control_change"}, {"time": 1874, "annotation": {"number": 64, "value": 0}, "group": "control_change"}, {"time": 1876, "annotation": {"number": 64, "value": 127}, "group": "control_change"}, {"time": 1886, "annotation": {"number": 64, "value": 0}, "group": "control_change"}, {"time": 1888, "annotation": {"number": 64, "value": 127}, "group": "control_change"}, {"time": 1897, "annotation": {"number": 64, "value": 0}, "group": "control_change"}, {"time": 1902, "annotation": {"number": 64, "value": 127}, "group": "control_change"}, {"time": 1921, "annotation": {"number": 64, "value": 0}, "group": "control_change"}, {"time": 1926, "annotation": {"number": 64, "value": 127}, "group": "control_change"}, {"time": 1933, "annotation": {"number": 64, "value": 0}, "group": "control_change"}, {"time": 1934, "annotation": {"number": 64, "value": 127}, "group": "control_change"}, {"time": 1946, "annotation": {"number": 64, "value": 0}, "group": "control_change"}, {"time": 1951, "annotation": {"number": 64, "value": 127}, "group": "control_change"}, {"time": 1968, "annotation": {"number": 64, "value": 0}, "group": "control_change"}, {"time": 1970, "annotation": {"number": 64, "value": 127}, "group": "control_change"}, {"time": 1991, "annotation": {"number": 64, "value": 0}, "group": "control_change"}, {"time": 1999, "annotation": {"number": 64, "value": 127}, "group": "control_change"}, {"time": 2018, "annotation": {"number": 64, "value": 0}, "group": "control_change"}, {"time": 2022, "annotation": {"number": 64, "value": 127}, "group": "control_change"}, {"time": 2042, "annotation": {"number": 64, "value": 0}, "group": "control_change"}, {"time": 2047, "annotation": {"number": 64, "value": 127}, "group": "control_change"}, {"time": 2066, "annotation": {"number": 64, "value": 0}, "group": "control_change"}, {"time": 2068, "annotation": {"number": 64, "value": 127}, "group": "control_change"}, {"time": 2078, "annotation": {"number": 64, "value": 0}, "group": "control_change"}, {"time": 2080, "annotation": {"number": 64, "value": 127}, "group": "control_change"}, {"time": 2089, "annotation": {"number": 64, "value": 0}, "group": "control_change"}, {"time": 2094, "annotation": {"number": 64, "value": 127}, "group": "control_change"}, {"time": 2113, "annotation": {"number": 64, "value": 0}, "group": "control_change"}, {"time": 2118, "annotation": {"number": 64, "value": 127}, "group": "control_change"}, {"time": 2125, "annotation": {"number": 64, "value": 0}, "group": "control_change"}, {"time": 2126, "annotation": {"number": 64, "value": 127}, "group": "control_change"}, {"time": 2138, "annotation": {"number": 64, "value": 0}, "group": "control_change"}, {"time": 2143, "annotation": {"number": 64, "value": 127}, "group": "control_change"}, {"time": 2160, "annotation": {"number": 64, "value": 0}, "group": "control_change"}, {"time": 2162, "annotation": {"number": 64, "value": 127}, "group": "control_change"}, {"time": 2169, "annotation": {"number": 64, "value": 127}, "group": "control_change"}, {"time": 2170, "annotation": {"number": 64, "value": 127}, "group": "control_change"}, {"time": 2183, "annotation": {"number": 64, "value": 0}, "group": "control_change"}, {"time": 2185, "annotation": {"number": 64, "value": 127}, "group": "control_change"}, {"time": 2208, "annotation": {"number": 64, "value": 0}, "group": "control_change"}, {"time": 2209, "annotation": {"number": 64, "value": 0}, "group": "control_change"}, {"time": 2211, "annotation": {"number": 64, "value": 127}, "group": "control_change"}, {"time": 2220, "annotation": {"number": 64, "value": 0}, "group": "control_change"}, {"time": 2222, "annotation": {"number": 64, "value": 127}, "group": "control_change"}, {"time": 2234, "annotation": {"number": 64, "value": 0}, "group": "control_change"}, {"time": 2236, "annotation": {"number": 64, "value": 127}, "group": "control_change"}, {"time": 2246, "annotation": {"number": 64, "value": 0}, "group": "control_change"}, {"time": 2247, "annotation": {"number": 64, "value": 127}, "group": "control_change"}, {"time": 2264, "annotation": {"number": 64, "value": 0}, "group": "control_change"}, {"time": 2267, "annotation": {"number": 64, "value": 127}, "group": "control_change"}]}]}