{"metadata": {"schema_version": "0.2", "title": "None", "source_filename": "421.mid", "source_format": "midi"}, "resolution": 12, "tempos": [{"time": 0, "qpm": 73.00007178340392}], "time_signatures": [{"time": 0, "numerator": 1, "denominator": 4}], "tracks": [{"program": 0, "is_drum": false, "name": "MELODY", "notes": [{"time": 202, "pitch": 59, "duration": 4, "velocity": 90}, {"time": 208, "pitch": 64, "duration": 4, "velocity": 97}, {"time": 214, "pitch": 66, "duration": 4, "velocity": 86}, {"time": 220, "pitch": 68, "duration": 4, "velocity": 89}, {"time": 226, "pitch": 71, "duration": 9, "velocity": 90}, {"time": 238, "pitch": 68, "duration": 9, "velocity": 93}, {"time": 250, "pitch": 63, "duration": 19, "velocity": 88}, {"time": 298, "pitch": 59, "duration": 4, "velocity": 93}, {"time": 304, "pitch": 64, "duration": 4, "velocity": 93}, {"time": 310, "pitch": 66, "duration": 4, "velocity": 89}, {"time": 316, "pitch": 68, "duration": 5, "velocity": 90}, {"time": 322, "pitch": 71, "duration": 8, "velocity": 89}, {"time": 334, "pitch": 68, "duration": 10, "velocity": 92}, {"time": 346, "pitch": 71, "duration": 31, "velocity": 94}, {"time": 388, "pitch": 66, "duration": 4, "velocity": 90}, {"time": 394, "pitch": 68, "duration": 5, "velocity": 90}, {"time": 400, "pitch": 73, "duration": 4, "velocity": 92}, {"time": 406, "pitch": 66, "duration": 4, "velocity": 86}, {"time": 412, "pitch": 68, "duration": 5, "velocity": 90}, {"time": 418, "pitch": 73, "duration": 16, "velocity": 97}, {"time": 436, "pitch": 66, "duration": 4, "velocity": 93}, {"time": 442, "pitch": 68, "duration": 4, "velocity": 92}, {"time": 448, "pitch": 71, "duration": 4, "velocity": 90}, {"time": 454, "pitch": 66, "duration": 4, "velocity": 89}, {"time": 460, "pitch": 68, "duration": 4, "velocity": 90}, {"time": 466, "pitch": 71, "duration": 12, "velocity": 91}, {"time": 490, "pitch": 71, "duration": 4, "velocity": 90}, {"time": 496, "pitch": 71, "duration": 4, "velocity": 92}, {"time": 502, "pitch": 68, "duration": 8, "velocity": 92}, {"time": 514, "pitch": 61, "duration": 8, "velocity": 92}, {"time": 526, "pitch": 68, "duration": 9, "velocity": 89}, {"time": 538, "pitch": 66, "duration": 37, "velocity": 89}, {"time": 586, "pitch": 59, "duration": 4, "velocity": 90}, {"time": 592, "pitch": 64, "duration": 4, "velocity": 97}, {"time": 598, "pitch": 66, "duration": 4, "velocity": 86}, {"time": 604, "pitch": 68, "duration": 4, "velocity": 89}, {"time": 610, "pitch": 71, "duration": 9, "velocity": 90}, {"time": 622, "pitch": 68, "duration": 9, "velocity": 93}, {"time": 634, "pitch": 63, "duration": 19, "velocity": 88}, {"time": 682, "pitch": 59, "duration": 4, "velocity": 93}, {"time": 688, "pitch": 64, "duration": 4, "velocity": 93}, {"time": 694, "pitch": 66, "duration": 4, "velocity": 89}, {"time": 700, "pitch": 68, "duration": 5, "velocity": 90}, {"time": 706, "pitch": 71, "duration": 8, "velocity": 89}, {"time": 718, "pitch": 68, "duration": 10, "velocity": 92}, {"time": 730, "pitch": 71, "duration": 31, "velocity": 94}, {"time": 772, "pitch": 66, "duration": 4, "velocity": 90}, {"time": 778, "pitch": 68, "duration": 5, "velocity": 90}, {"time": 784, "pitch": 73, "duration": 4, "velocity": 92}, {"time": 790, "pitch": 66, "duration": 4, "velocity": 86}, {"time": 796, "pitch": 68, "duration": 5, "velocity": 90}, {"time": 802, "pitch": 73, "duration": 16, "velocity": 97}, {"time": 820, "pitch": 66, "duration": 4, "velocity": 93}, {"time": 826, "pitch": 68, "duration": 4, "velocity": 92}, {"time": 832, "pitch": 71, "duration": 4, "velocity": 90}, {"time": 838, "pitch": 66, "duration": 4, "velocity": 89}, {"time": 844, "pitch": 68, "duration": 4, "velocity": 90}, {"time": 850, "pitch": 71, "duration": 12, "velocity": 91}, {"time": 874, "pitch": 71, "duration": 4, "velocity": 90}, {"time": 880, "pitch": 71, "duration": 4, "velocity": 92}, {"time": 886, "pitch": 73, "duration": 5, "velocity": 92}, {"time": 892, "pitch": 76, "duration": 3, "velocity": 97}, {"time": 898, "pitch": 76, "duration": 8, "velocity": 92}, {"time": 910, "pitch": 73, "duration": 9, "velocity": 89}, {"time": 922, "pitch": 78, "duration": 5, "velocity": 89}, {"time": 928, "pitch": 78, "duration": 29, "velocity": 89}, {"time": 970, "pitch": 71, "duration": 4, "velocity": 102}, {"time": 976, "pitch": 71, "duration": 4, "velocity": 102}, {"time": 982, "pitch": 76, "duration": 1, "velocity": 93}, {"time": 985, "pitch": 76, "duration": 6, "velocity": 92}, {"time": 994, "pitch": 75, "duration": 10, "velocity": 105}, {"time": 1006, "pitch": 76, "duration": 4, "velocity": 97}, {"time": 1012, "pitch": 71, "duration": 4, "velocity": 97}, {"time": 1018, "pitch": 68, "duration": 4, "velocity": 99}, {"time": 1024, "pitch": 71, "duration": 4, "velocity": 95}, {"time": 1030, "pitch": 76, "duration": 1, "velocity": 95}, {"time": 1033, "pitch": 76, "duration": 7, "velocity": 94}, {"time": 1042, "pitch": 75, "duration": 6, "velocity": 94}, {"time": 1054, "pitch": 76, "duration": 4, "velocity": 89}, {"time": 1060, "pitch": 71, "duration": 4, "velocity": 90}, {"time": 1066, "pitch": 64, "duration": 4, "velocity": 95}, {"time": 1072, "pitch": 73, "duration": 8, "velocity": 97}, {"time": 1084, "pitch": 64, "duration": 7, "velocity": 89}, {"time": 1096, "pitch": 71, "duration": 9, "velocity": 91}, {"time": 1108, "pitch": 64, "duration": 7, "velocity": 95}, {"time": 1120, "pitch": 73, "duration": 4, "velocity": 99}, {"time": 1126, "pitch": 71, "duration": 1, "velocity": 93}, {"time": 1129, "pitch": 73, "duration": 3, "velocity": 105}, {"time": 1135, "pitch": 68, "duration": 7, "velocity": 93}, {"time": 1144, "pitch": 66, "duration": 12, "velocity": 91}, {"time": 1162, "pitch": 71, "duration": 4, "velocity": 102}, {"time": 1168, "pitch": 71, "duration": 4, "velocity": 102}, {"time": 1174, "pitch": 76, "duration": 1, "velocity": 93}, {"time": 1177, "pitch": 76, "duration": 6, "velocity": 92}, {"time": 1186, "pitch": 75, "duration": 10, "velocity": 105}, {"time": 1198, "pitch": 76, "duration": 4, "velocity": 97}, {"time": 1204, "pitch": 71, "duration": 4, "velocity": 97}, {"time": 1210, "pitch": 68, "duration": 4, "velocity": 99}, {"time": 1216, "pitch": 71, "duration": 4, "velocity": 95}, {"time": 1222, "pitch": 76, "duration": 1, "velocity": 95}, {"time": 1225, "pitch": 76, "duration": 7, "velocity": 94}, {"time": 1234, "pitch": 75, "duration": 6, "velocity": 94}, {"time": 1246, "pitch": 76, "duration": 4, "velocity": 89}, {"time": 1252, "pitch": 78, "duration": 4, "velocity": 90}, {"time": 1258, "pitch": 76, "duration": 4, "velocity": 95}, {"time": 1264, "pitch": 80, "duration": 12, "velocity": 97}, {"time": 1282, "pitch": 81, "duration": 2, "velocity": 91}, {"time": 1285, "pitch": 80, "duration": 6, "velocity": 91}, {"time": 1294, "pitch": 76, "duration": 17, "velocity": 95}, {"time": 1312, "pitch": 71, "duration": 4, "velocity": 95}, {"time": 1318, "pitch": 73, "duration": 2, "velocity": 99}, {"time": 1321, "pitch": 76, "duration": 5, "velocity": 91}, {"time": 1330, "pitch": 73, "duration": 6, "velocity": 105}, {"time": 1336, "pitch": 78, "duration": 6, "velocity": 94}, {"time": 1348, "pitch": 75, "duration": 5, "velocity": 105}, {"time": 1354, "pitch": 76, "duration": 4, "velocity": 92}, {"time": 1360, "pitch": 76, "duration": 34, "velocity": 94}, {"time": 1546, "pitch": 59, "duration": 4, "velocity": 90}, {"time": 1552, "pitch": 64, "duration": 4, "velocity": 97}, {"time": 1558, "pitch": 66, "duration": 4, "velocity": 86}, {"time": 1564, "pitch": 68, "duration": 4, "velocity": 89}, {"time": 1570, "pitch": 71, "duration": 9, "velocity": 90}, {"time": 1582, "pitch": 68, "duration": 9, "velocity": 93}, {"time": 1594, "pitch": 63, "duration": 19, "velocity": 88}, {"time": 1642, "pitch": 59, "duration": 4, "velocity": 93}, {"time": 1648, "pitch": 64, "duration": 4, "velocity": 93}, {"time": 1654, "pitch": 66, "duration": 4, "velocity": 89}, {"time": 1660, "pitch": 68, "duration": 5, "velocity": 90}, {"time": 1666, "pitch": 71, "duration": 8, "velocity": 89}, {"time": 1678, "pitch": 68, "duration": 10, "velocity": 92}, {"time": 1690, "pitch": 71, "duration": 31, "velocity": 94}, {"time": 1732, "pitch": 66, "duration": 4, "velocity": 90}, {"time": 1738, "pitch": 68, "duration": 5, "velocity": 90}, {"time": 1744, "pitch": 73, "duration": 4, "velocity": 92}, {"time": 1750, "pitch": 66, "duration": 4, "velocity": 86}, {"time": 1756, "pitch": 68, "duration": 5, "velocity": 90}, {"time": 1762, "pitch": 73, "duration": 16, "velocity": 97}, {"time": 1780, "pitch": 66, "duration": 4, "velocity": 93}, {"time": 1786, "pitch": 68, "duration": 4, "velocity": 92}, {"time": 1792, "pitch": 71, "duration": 4, "velocity": 90}, {"time": 1798, "pitch": 66, "duration": 4, "velocity": 89}, {"time": 1804, "pitch": 68, "duration": 4, "velocity": 90}, {"time": 1810, "pitch": 71, "duration": 12, "velocity": 91}, {"time": 1834, "pitch": 71, "duration": 4, "velocity": 90}, {"time": 1840, "pitch": 71, "duration": 4, "velocity": 92}, {"time": 1846, "pitch": 73, "duration": 6, "velocity": 92}, {"time": 1851, "pitch": 76, "duration": 5, "velocity": 97}, {"time": 1858, "pitch": 76, "duration": 8, "velocity": 92}, {"time": 1870, "pitch": 73, "duration": 9, "velocity": 89}, {"time": 1882, "pitch": 78, "duration": 4, "velocity": 89}, {"time": 1888, "pitch": 78, "duration": 40, "velocity": 89}, {"time": 1930, "pitch": 71, "duration": 4, "velocity": 102}, {"time": 1936, "pitch": 71, "duration": 4, "velocity": 102}, {"time": 1942, "pitch": 76, "duration": 1, "velocity": 93}, {"time": 1945, "pitch": 76, "duration": 6, "velocity": 92}, {"time": 1954, "pitch": 75, "duration": 10, "velocity": 105}, {"time": 1966, "pitch": 76, "duration": 4, "velocity": 97}, {"time": 1972, "pitch": 71, "duration": 4, "velocity": 97}, {"time": 1978, "pitch": 68, "duration": 4, "velocity": 99}, {"time": 1984, "pitch": 71, "duration": 4, "velocity": 95}, {"time": 1990, "pitch": 76, "duration": 1, "velocity": 95}, {"time": 1993, "pitch": 76, "duration": 7, "velocity": 94}, {"time": 2002, "pitch": 75, "duration": 6, "velocity": 94}, {"time": 2014, "pitch": 76, "duration": 4, "velocity": 89}, {"time": 2020, "pitch": 71, "duration": 4, "velocity": 90}, {"time": 2026, "pitch": 64, "duration": 4, "velocity": 95}, {"time": 2032, "pitch": 73, "duration": 8, "velocity": 97}, {"time": 2044, "pitch": 64, "duration": 7, "velocity": 89}, {"time": 2056, "pitch": 71, "duration": 9, "velocity": 91}, {"time": 2068, "pitch": 64, "duration": 7, "velocity": 95}, {"time": 2080, "pitch": 73, "duration": 4, "velocity": 99}, {"time": 2086, "pitch": 71, "duration": 1, "velocity": 93}, {"time": 2089, "pitch": 73, "duration": 3, "velocity": 105}, {"time": 2095, "pitch": 68, "duration": 7, "velocity": 93}, {"time": 2104, "pitch": 66, "duration": 12, "velocity": 91}, {"time": 2122, "pitch": 71, "duration": 4, "velocity": 102}, {"time": 2128, "pitch": 71, "duration": 4, "velocity": 102}, {"time": 2134, "pitch": 76, "duration": 1, "velocity": 93}, {"time": 2137, "pitch": 76, "duration": 6, "velocity": 92}, {"time": 2146, "pitch": 75, "duration": 10, "velocity": 105}, {"time": 2158, "pitch": 76, "duration": 4, "velocity": 97}, {"time": 2164, "pitch": 71, "duration": 4, "velocity": 97}, {"time": 2170, "pitch": 68, "duration": 4, "velocity": 99}, {"time": 2176, "pitch": 71, "duration": 4, "velocity": 95}, {"time": 2182, "pitch": 76, "duration": 1, "velocity": 95}, {"time": 2185, "pitch": 76, "duration": 7, "velocity": 94}, {"time": 2194, "pitch": 75, "duration": 6, "velocity": 94}, {"time": 2206, "pitch": 76, "duration": 4, "velocity": 89}, {"time": 2212, "pitch": 78, "duration": 4, "velocity": 90}, {"time": 2218, "pitch": 76, "duration": 4, "velocity": 95}, {"time": 2224, "pitch": 80, "duration": 12, "velocity": 97}, {"time": 2242, "pitch": 81, "duration": 2, "velocity": 91}, {"time": 2245, "pitch": 80, "duration": 6, "velocity": 91}, {"time": 2254, "pitch": 76, "duration": 17, "velocity": 95}, {"time": 2272, "pitch": 71, "duration": 4, "velocity": 95}, {"time": 2278, "pitch": 73, "duration": 2, "velocity": 99}, {"time": 2281, "pitch": 76, "duration": 5, "velocity": 91}, {"time": 2290, "pitch": 73, "duration": 3, "velocity": 105}, {"time": 2293, "pitch": 76, "duration": 6, "velocity": 94}, {"time": 2308, "pitch": 75, "duration": 5, "velocity": 105}, {"time": 2314, "pitch": 76, "duration": 4, "velocity": 92}, {"time": 2320, "pitch": 76, "duration": 15, "velocity": 94}, {"time": 2338, "pitch": 76, "duration": 1, "velocity": 99}, {"time": 2341, "pitch": 76, "duration": 2, "velocity": 92}, {"time": 2344, "pitch": 75, "duration": 4, "velocity": 105}, {"time": 2350, "pitch": 76, "duration": 4, "velocity": 102}, {"time": 2356, "pitch": 78, "duration": 7, "velocity": 95}, {"time": 2365, "pitch": 76, "duration": 18, "velocity": 104}, {"time": 2386, "pitch": 76, "duration": 1, "velocity": 95}, {"time": 2389, "pitch": 76, "duration": 2, "velocity": 88}, {"time": 2392, "pitch": 75, "duration": 4, "velocity": 99}, {"time": 2398, "pitch": 76, "duration": 1, "velocity": 91}, {"time": 2401, "pitch": 78, "duration": 8, "velocity": 95}, {"time": 2410, "pitch": 76, "duration": 20, "velocity": 99}, {"time": 2434, "pitch": 76, "duration": 1, "velocity": 94}, {"time": 2437, "pitch": 76, "duration": 2, "velocity": 90}, {"time": 2440, "pitch": 75, "duration": 4, "velocity": 102}, {"time": 2446, "pitch": 76, "duration": 4, "velocity": 95}, {"time": 2452, "pitch": 78, "duration": 2, "velocity": 92}, {"time": 2455, "pitch": 76, "duration": 1, "velocity": 99}, {"time": 2458, "pitch": 80, "duration": 20, "velocity": 102}, {"time": 2482, "pitch": 78, "duration": 2, "velocity": 94}, {"time": 2485, "pitch": 76, "duration": 7, "velocity": 94}, {"time": 2494, "pitch": 73, "duration": 12, "velocity": 102}, {"time": 2506, "pitch": 71, "duration": 2, "velocity": 90}, {"time": 2509, "pitch": 73, "duration": 1, "velocity": 102}, {"time": 2512, "pitch": 76, "duration": 4, "velocity": 94}, {"time": 2518, "pitch": 71, "duration": 2, "velocity": 92}, {"time": 2521, "pitch": 73, "duration": 4, "velocity": 104}, {"time": 2527, "pitch": 76, "duration": 7, "velocity": 94}, {"time": 2536, "pitch": 76, "duration": 4, "velocity": 93}, {"time": 2542, "pitch": 78, "duration": 2, "velocity": 91}, {"time": 2545, "pitch": 80, "duration": 7, "velocity": 93}, {"time": 2554, "pitch": 81, "duration": 4, "velocity": 94}, {"time": 2560, "pitch": 78, "duration": 42, "velocity": 95}, {"time": 2602, "pitch": 71, "duration": 4, "velocity": 102}, {"time": 2608, "pitch": 71, "duration": 4, "velocity": 102}, {"time": 2614, "pitch": 76, "duration": 1, "velocity": 93}, {"time": 2617, "pitch": 76, "duration": 6, "velocity": 92}, {"time": 2626, "pitch": 75, "duration": 10, "velocity": 105}, {"time": 2638, "pitch": 76, "duration": 4, "velocity": 97}, {"time": 2644, "pitch": 71, "duration": 4, "velocity": 97}, {"time": 2650, "pitch": 68, "duration": 4, "velocity": 99}, {"time": 2656, "pitch": 71, "duration": 4, "velocity": 95}, {"time": 2662, "pitch": 76, "duration": 1, "velocity": 95}, {"time": 2665, "pitch": 76, "duration": 7, "velocity": 94}, {"time": 2674, "pitch": 75, "duration": 6, "velocity": 94}, {"time": 2686, "pitch": 76, "duration": 4, "velocity": 89}, {"time": 2692, "pitch": 71, "duration": 4, "velocity": 90}, {"time": 2698, "pitch": 64, "duration": 4, "velocity": 95}, {"time": 2704, "pitch": 73, "duration": 8, "velocity": 97}, {"time": 2716, "pitch": 64, "duration": 7, "velocity": 89}, {"time": 2728, "pitch": 71, "duration": 9, "velocity": 91}, {"time": 2740, "pitch": 64, "duration": 7, "velocity": 95}, {"time": 2752, "pitch": 73, "duration": 4, "velocity": 99}, {"time": 2758, "pitch": 71, "duration": 1, "velocity": 93}, {"time": 2761, "pitch": 73, "duration": 3, "velocity": 105}, {"time": 2767, "pitch": 68, "duration": 7, "velocity": 93}, {"time": 2776, "pitch": 66, "duration": 12, "velocity": 91}, {"time": 2794, "pitch": 71, "duration": 4, "velocity": 102}, {"time": 2800, "pitch": 71, "duration": 4, "velocity": 102}, {"time": 2806, "pitch": 76, "duration": 1, "velocity": 93}, {"time": 2809, "pitch": 76, "duration": 6, "velocity": 92}, {"time": 2818, "pitch": 75, "duration": 10, "velocity": 105}, {"time": 2830, "pitch": 76, "duration": 4, "velocity": 97}, {"time": 2836, "pitch": 71, "duration": 4, "velocity": 97}, {"time": 2842, "pitch": 68, "duration": 4, "velocity": 99}, {"time": 2848, "pitch": 71, "duration": 4, "velocity": 95}, {"time": 2854, "pitch": 76, "duration": 1, "velocity": 95}, {"time": 2857, "pitch": 76, "duration": 7, "velocity": 94}, {"time": 2866, "pitch": 75, "duration": 6, "velocity": 94}, {"time": 2878, "pitch": 76, "duration": 4, "velocity": 89}, {"time": 2884, "pitch": 78, "duration": 4, "velocity": 90}, {"time": 2890, "pitch": 76, "duration": 4, "velocity": 95}, {"time": 2896, "pitch": 80, "duration": 12, "velocity": 97}, {"time": 2914, "pitch": 81, "duration": 2, "velocity": 91}, {"time": 2917, "pitch": 80, "duration": 6, "velocity": 91}, {"time": 2926, "pitch": 76, "duration": 17, "velocity": 95}, {"time": 2944, "pitch": 71, "duration": 4, "velocity": 95}, {"time": 2950, "pitch": 73, "duration": 2, "velocity": 99}, {"time": 2953, "pitch": 76, "duration": 5, "velocity": 91}, {"time": 2962, "pitch": 73, "duration": 6, "velocity": 105}, {"time": 2968, "pitch": 78, "duration": 6, "velocity": 94}, {"time": 2980, "pitch": 75, "duration": 5, "velocity": 105}, {"time": 2986, "pitch": 76, "duration": 4, "velocity": 92}, {"time": 2992, "pitch": 76, "duration": 34, "velocity": 94}, {"time": 3056, "pitch": 71, "duration": 8, "velocity": 84}, {"time": 3066, "pitch": 73, "duration": 4, "velocity": 93}, {"time": 3071, "pitch": 76, "duration": 9, "velocity": 91}, {"time": 3080, "pitch": 73, "duration": 5, "velocity": 90}, {"time": 3087, "pitch": 76, "duration": 26, "velocity": 88}, {"time": 3128, "pitch": 75, "duration": 8, "velocity": 102}, {"time": 3138, "pitch": 76, "duration": 5, "velocity": 89}, {"time": 3145, "pitch": 76, "duration": 45, "velocity": 90}]}, {"program": 0, "is_drum": false, "name": "PIANO", "notes": [{"time": 16, "pitch": 40, "duration": 38, "velocity": 77}, {"time": 16, "pitch": 47, "duration": 38, "velocity": 83}, {"time": 16, "pitch": 68, "duration": 5, "velocity": 83}, {"time": 22, "pitch": 64, "duration": 2, "velocity": 79}, {"time": 28, "pitch": 59, "duration": 2, "velocity": 82}, {"time": 28, "pitch": 68, "duration": 2, "velocity": 81}, {"time": 34, "pitch": 59, "duration": 2, "velocity": 82}, {"time": 34, "pitch": 64, "duration": 2, "velocity": 84}, {"time": 40, "pitch": 59, "duration": 1, "velocity": 87}, {"time": 40, "pitch": 68, "duration": 1, "velocity": 87}, {"time": 46, "pitch": 59, "duration": 2, "velocity": 69}, {"time": 46, "pitch": 64, "duration": 2, "velocity": 69}, {"time": 52, "pitch": 59, "duration": 4, "velocity": 81}, {"time": 52, "pitch": 68, "duration": 3, "velocity": 83}, {"time": 58, "pitch": 59, "duration": 3, "velocity": 34}, {"time": 58, "pitch": 64, "duration": 4, "velocity": 83}, {"time": 64, "pitch": 39, "duration": 40, "velocity": 84}, {"time": 64, "pitch": 47, "duration": 40, "velocity": 83}, {"time": 64, "pitch": 68, "duration": 6, "velocity": 86}, {"time": 70, "pitch": 63, "duration": 3, "velocity": 89}, {"time": 76, "pitch": 68, "duration": 2, "velocity": 91}, {"time": 82, "pitch": 63, "duration": 3, "velocity": 88}, {"time": 88, "pitch": 63, "duration": 2, "velocity": 88}, {"time": 88, "pitch": 68, "duration": 2, "velocity": 86}, {"time": 94, "pitch": 63, "duration": 2, "velocity": 82}, {"time": 100, "pitch": 63, "duration": 2, "velocity": 88}, {"time": 100, "pitch": 68, "duration": 3, "velocity": 90}, {"time": 106, "pitch": 63, "duration": 3, "velocity": 89}, {"time": 112, "pitch": 37, "duration": 37, "velocity": 88}, {"time": 112, "pitch": 61, "duration": 2, "velocity": 82}, {"time": 112, "pitch": 68, "duration": 6, "velocity": 85}, {"time": 118, "pitch": 61, "duration": 3, "velocity": 77}, {"time": 124, "pitch": 64, "duration": 3, "velocity": 89}, {"time": 124, "pitch": 68, "duration": 3, "velocity": 90}, {"time": 130, "pitch": 61, "duration": 3, "velocity": 76}, {"time": 136, "pitch": 61, "duration": 2, "velocity": 84}, {"time": 136, "pitch": 64, "duration": 3, "velocity": 90}, {"time": 136, "pitch": 68, "duration": 3, "velocity": 89}, {"time": 142, "pitch": 61, "duration": 2, "velocity": 74}, {"time": 148, "pitch": 64, "duration": 6, "velocity": 89}, {"time": 148, "pitch": 68, "duration": 7, "velocity": 89}, {"time": 154, "pitch": 61, "duration": 2, "velocity": 85}, {"time": 160, "pitch": 45, "duration": 49, "velocity": 88}, {"time": 160, "pitch": 57, "duration": 3, "velocity": 80}, {"time": 160, "pitch": 68, "duration": 3, "velocity": 82}, {"time": 166, "pitch": 57, "duration": 3, "velocity": 70}, {"time": 166, "pitch": 64, "duration": 3, "velocity": 74}, {"time": 172, "pitch": 57, "duration": 2, "velocity": 81}, {"time": 172, "pitch": 68, "duration": 2, "velocity": 87}, {"time": 178, "pitch": 57, "duration": 3, "velocity": 68}, {"time": 178, "pitch": 64, "duration": 3, "velocity": 55}, {"time": 184, "pitch": 57, "duration": 3, "velocity": 82}, {"time": 184, "pitch": 68, "duration": 3, "velocity": 85}, {"time": 190, "pitch": 64, "duration": 3, "velocity": 80}, {"time": 196, "pitch": 57, "duration": 4, "velocity": 82}, {"time": 196, "pitch": 68, "duration": 12, "velocity": 88}, {"time": 202, "pitch": 57, "duration": 5, "velocity": 81}, {"time": 202, "pitch": 64, "duration": 5, "velocity": 64}, {"time": 208, "pitch": 40, "duration": 30, "velocity": 88}, {"time": 208, "pitch": 59, "duration": 3, "velocity": 84}, {"time": 208, "pitch": 68, "duration": 1, "velocity": 84}, {"time": 214, "pitch": 59, "duration": 1, "velocity": 61}, {"time": 214, "pitch": 64, "duration": 2, "velocity": 75}, {"time": 220, "pitch": 59, "duration": 2, "velocity": 85}, {"time": 220, "pitch": 68, "duration": 2, "velocity": 83}, {"time": 226, "pitch": 59, "duration": 3, "velocity": 75}, {"time": 226, "pitch": 64, "duration": 3, "velocity": 76}, {"time": 232, "pitch": 59, "duration": 7, "velocity": 88}, {"time": 232, "pitch": 68, "duration": 7, "velocity": 88}, {"time": 238, "pitch": 64, "duration": 2, "velocity": 79}, {"time": 244, "pitch": 59, "duration": 9, "velocity": 86}, {"time": 244, "pitch": 68, "duration": 7, "velocity": 86}, {"time": 250, "pitch": 64, "duration": 4, "velocity": 83}, {"time": 256, "pitch": 39, "duration": 31, "velocity": 89}, {"time": 256, "pitch": 59, "duration": 2, "velocity": 79}, {"time": 256, "pitch": 68, "duration": 5, "velocity": 90}, {"time": 262, "pitch": 59, "duration": 2, "velocity": 77}, {"time": 262, "pitch": 63, "duration": 2, "velocity": 80}, {"time": 268, "pitch": 59, "duration": 2, "velocity": 82}, {"time": 268, "pitch": 68, "duration": 2, "velocity": 84}, {"time": 274, "pitch": 59, "duration": 2, "velocity": 69}, {"time": 274, "pitch": 63, "duration": 2, "velocity": 75}, {"time": 280, "pitch": 59, "duration": 2, "velocity": 85}, {"time": 280, "pitch": 68, "duration": 2, "velocity": 84}, {"time": 286, "pitch": 59, "duration": 2, "velocity": 75}, {"time": 286, "pitch": 63, "duration": 2, "velocity": 77}, {"time": 292, "pitch": 59, "duration": 3, "velocity": 84}, {"time": 292, "pitch": 68, "duration": 4, "velocity": 89}, {"time": 298, "pitch": 59, "duration": 1, "velocity": 69}, {"time": 298, "pitch": 63, "duration": 2, "velocity": 80}, {"time": 304, "pitch": 37, "duration": 30, "velocity": 88}, {"time": 304, "pitch": 61, "duration": 3, "velocity": 86}, {"time": 304, "pitch": 68, "duration": 3, "velocity": 87}, {"time": 310, "pitch": 61, "duration": 2, "velocity": 77}, {"time": 310, "pitch": 64, "duration": 2, "velocity": 78}, {"time": 316, "pitch": 61, "duration": 2, "velocity": 85}, {"time": 316, "pitch": 68, "duration": 2, "velocity": 87}, {"time": 322, "pitch": 61, "duration": 2, "velocity": 73}, {"time": 322, "pitch": 64, "duration": 2, "velocity": 70}, {"time": 328, "pitch": 61, "duration": 2, "velocity": 85}, {"time": 328, "pitch": 68, "duration": 2, "velocity": 88}, {"time": 334, "pitch": 61, "duration": 2, "velocity": 78}, {"time": 334, "pitch": 64, "duration": 2, "velocity": 77}, {"time": 340, "pitch": 61, "duration": 2, "velocity": 89}, {"time": 340, "pitch": 68, "duration": 3, "velocity": 90}, {"time": 346, "pitch": 61, "duration": 2, "velocity": 79}, {"time": 346, "pitch": 64, "duration": 2, "velocity": 82}, {"time": 352, "pitch": 35, "duration": 26, "velocity": 82}, {"time": 352, "pitch": 63, "duration": 2, "velocity": 88}, {"time": 352, "pitch": 68, "duration": 3, "velocity": 86}, {"time": 358, "pitch": 59, "duration": 2, "velocity": 76}, {"time": 358, "pitch": 63, "duration": 2, "velocity": 83}, {"time": 364, "pitch": 59, "duration": 2, "velocity": 87}, {"time": 364, "pitch": 68, "duration": 1, "velocity": 88}, {"time": 370, "pitch": 59, "duration": 2, "velocity": 72}, {"time": 370, "pitch": 63, "duration": 1, "velocity": 79}, {"time": 376, "pitch": 59, "duration": 2, "velocity": 85}, {"time": 376, "pitch": 68, "duration": 2, "velocity": 88}, {"time": 382, "pitch": 59, "duration": 2, "velocity": 77}, {"time": 382, "pitch": 63, "duration": 1, "velocity": 81}, {"time": 388, "pitch": 59, "duration": 2, "velocity": 88}, {"time": 388, "pitch": 68, "duration": 3, "velocity": 89}, {"time": 394, "pitch": 59, "duration": 2, "velocity": 75}, {"time": 394, "pitch": 63, "duration": 2, "velocity": 78}, {"time": 400, "pitch": 45, "duration": 39, "velocity": 83}, {"time": 400, "pitch": 61, "duration": 3, "velocity": 80}, {"time": 400, "pitch": 68, "duration": 4, "velocity": 89}, {"time": 406, "pitch": 61, "duration": 2, "velocity": 80}, {"time": 406, "pitch": 64, "duration": 2, "velocity": 80}, {"time": 412, "pitch": 61, "duration": 2, "velocity": 88}, {"time": 412, "pitch": 68, "duration": 2, "velocity": 94}, {"time": 418, "pitch": 61, "duration": 2, "velocity": 81}, {"time": 418, "pitch": 64, "duration": 2, "velocity": 84}, {"time": 424, "pitch": 61, "duration": 8, "velocity": 89}, {"time": 424, "pitch": 68, "duration": 6, "velocity": 93}, {"time": 430, "pitch": 64, "duration": 2, "velocity": 79}, {"time": 436, "pitch": 61, "duration": 8, "velocity": 88}, {"time": 436, "pitch": 68, "duration": 5, "velocity": 89}, {"time": 442, "pitch": 64, "duration": 3, "velocity": 78}, {"time": 448, "pitch": 44, "duration": 22, "velocity": 89}, {"time": 448, "pitch": 64, "duration": 2, "velocity": 88}, {"time": 448, "pitch": 68, "duration": 4, "velocity": 87}, {"time": 454, "pitch": 59, "duration": 2, "velocity": 80}, {"time": 454, "pitch": 63, "duration": 2, "velocity": 83}, {"time": 460, "pitch": 59, "duration": 2, "velocity": 88}, {"time": 460, "pitch": 68, "duration": 3, "velocity": 89}, {"time": 466, "pitch": 59, "duration": 4, "velocity": 79}, {"time": 466, "pitch": 63, "duration": 4, "velocity": 86}, {"time": 472, "pitch": 49, "duration": 25, "velocity": 86}, {"time": 472, "pitch": 63, "duration": 1, "velocity": 84}, {"time": 472, "pitch": 68, "duration": 7, "velocity": 89}, {"time": 478, "pitch": 61, "duration": 4, "velocity": 79}, {"time": 478, "pitch": 64, "duration": 3, "velocity": 80}, {"time": 484, "pitch": 61, "duration": 3, "velocity": 84}, {"time": 484, "pitch": 68, "duration": 3, "velocity": 94}, {"time": 490, "pitch": 61, "duration": 3, "velocity": 84}, {"time": 490, "pitch": 64, "duration": 3, "velocity": 89}, {"time": 496, "pitch": 42, "duration": 41, "velocity": 89}, {"time": 496, "pitch": 58, "duration": 3, "velocity": 86}, {"time": 496, "pitch": 66, "duration": 4, "velocity": 85}, {"time": 502, "pitch": 58, "duration": 2, "velocity": 78}, {"time": 502, "pitch": 61, "duration": 2, "velocity": 77}, {"time": 508, "pitch": 58, "duration": 2, "velocity": 89}, {"time": 508, "pitch": 66, "duration": 3, "velocity": 89}, {"time": 520, "pitch": 58, "duration": 3, "velocity": 88}, {"time": 520, "pitch": 66, "duration": 3, "velocity": 88}, {"time": 526, "pitch": 61, "duration": 2, "velocity": 88}, {"time": 532, "pitch": 58, "duration": 2, "velocity": 92}, {"time": 532, "pitch": 66, "duration": 4, "velocity": 88}, {"time": 538, "pitch": 58, "duration": 1, "velocity": 74}, {"time": 538, "pitch": 61, "duration": 2, "velocity": 88}, {"time": 544, "pitch": 35, "duration": 12, "velocity": 86}, {"time": 544, "pitch": 47, "duration": 3, "velocity": 88}, {"time": 544, "pitch": 51, "duration": 6, "velocity": 90}, {"time": 550, "pitch": 47, "duration": 7, "velocity": 84}, {"time": 556, "pitch": 51, "duration": 1, "velocity": 94}, {"time": 556, "pitch": 54, "duration": 2, "velocity": 93}, {"time": 562, "pitch": 47, "duration": 30, "velocity": 77}, {"time": 568, "pitch": 59, "duration": 3, "velocity": 89}, {"time": 568, "pitch": 63, "duration": 3, "velocity": 93}, {"time": 574, "pitch": 63, "duration": 3, "velocity": 77}, {"time": 574, "pitch": 66, "duration": 3, "velocity": 81}, {"time": 580, "pitch": 59, "duration": 11, "velocity": 91}, {"time": 580, "pitch": 63, "duration": 11, "velocity": 102}, {"time": 580, "pitch": 66, "duration": 11, "velocity": 92}, {"time": 580, "pitch": 71, "duration": 11, "velocity": 88}, {"time": 586, "pitch": 54, "duration": 6, "velocity": 88}, {"time": 592, "pitch": 40, "duration": 30, "velocity": 88}, {"time": 592, "pitch": 59, "duration": 3, "velocity": 84}, {"time": 592, "pitch": 68, "duration": 4, "velocity": 84}, {"time": 598, "pitch": 59, "duration": 1, "velocity": 61}, {"time": 598, "pitch": 64, "duration": 2, "velocity": 75}, {"time": 604, "pitch": 59, "duration": 2, "velocity": 85}, {"time": 604, "pitch": 68, "duration": 2, "velocity": 83}, {"time": 610, "pitch": 59, "duration": 3, "velocity": 75}, {"time": 610, "pitch": 64, "duration": 3, "velocity": 76}, {"time": 616, "pitch": 59, "duration": 7, "velocity": 88}, {"time": 616, "pitch": 68, "duration": 7, "velocity": 88}, {"time": 622, "pitch": 64, "duration": 2, "velocity": 79}, {"time": 628, "pitch": 59, "duration": 9, "velocity": 86}, {"time": 628, "pitch": 68, "duration": 7, "velocity": 86}, {"time": 634, "pitch": 64, "duration": 4, "velocity": 83}, {"time": 640, "pitch": 39, "duration": 31, "velocity": 89}, {"time": 640, "pitch": 59, "duration": 2, "velocity": 79}, {"time": 640, "pitch": 68, "duration": 5, "velocity": 90}, {"time": 646, "pitch": 59, "duration": 2, "velocity": 77}, {"time": 646, "pitch": 63, "duration": 2, "velocity": 80}, {"time": 652, "pitch": 59, "duration": 2, "velocity": 82}, {"time": 652, "pitch": 68, "duration": 2, "velocity": 84}, {"time": 658, "pitch": 59, "duration": 2, "velocity": 69}, {"time": 658, "pitch": 63, "duration": 2, "velocity": 75}, {"time": 664, "pitch": 59, "duration": 2, "velocity": 85}, {"time": 664, "pitch": 68, "duration": 2, "velocity": 84}, {"time": 670, "pitch": 59, "duration": 2, "velocity": 75}, {"time": 670, "pitch": 63, "duration": 2, "velocity": 77}, {"time": 676, "pitch": 59, "duration": 3, "velocity": 84}, {"time": 676, "pitch": 68, "duration": 4, "velocity": 89}, {"time": 682, "pitch": 59, "duration": 1, "velocity": 69}, {"time": 682, "pitch": 63, "duration": 2, "velocity": 80}, {"time": 688, "pitch": 37, "duration": 30, "velocity": 88}, {"time": 688, "pitch": 61, "duration": 3, "velocity": 86}, {"time": 688, "pitch": 68, "duration": 3, "velocity": 87}, {"time": 694, "pitch": 61, "duration": 2, "velocity": 77}, {"time": 694, "pitch": 64, "duration": 2, "velocity": 78}, {"time": 700, "pitch": 61, "duration": 2, "velocity": 85}, {"time": 700, "pitch": 68, "duration": 2, "velocity": 87}, {"time": 706, "pitch": 61, "duration": 2, "velocity": 73}, {"time": 706, "pitch": 64, "duration": 2, "velocity": 70}, {"time": 712, "pitch": 61, "duration": 2, "velocity": 85}, {"time": 712, "pitch": 68, "duration": 2, "velocity": 88}, {"time": 718, "pitch": 61, "duration": 2, "velocity": 78}, {"time": 718, "pitch": 64, "duration": 2, "velocity": 77}, {"time": 724, "pitch": 61, "duration": 2, "velocity": 89}, {"time": 724, "pitch": 68, "duration": 3, "velocity": 90}, {"time": 730, "pitch": 61, "duration": 2, "velocity": 79}, {"time": 730, "pitch": 64, "duration": 2, "velocity": 82}, {"time": 736, "pitch": 35, "duration": 26, "velocity": 82}, {"time": 736, "pitch": 63, "duration": 2, "velocity": 88}, {"time": 736, "pitch": 68, "duration": 3, "velocity": 86}, {"time": 742, "pitch": 59, "duration": 2, "velocity": 76}, {"time": 742, "pitch": 63, "duration": 2, "velocity": 83}, {"time": 748, "pitch": 59, "duration": 2, "velocity": 87}, {"time": 748, "pitch": 68, "duration": 1, "velocity": 88}, {"time": 754, "pitch": 59, "duration": 2, "velocity": 72}, {"time": 754, "pitch": 63, "duration": 1, "velocity": 79}, {"time": 760, "pitch": 59, "duration": 2, "velocity": 85}, {"time": 760, "pitch": 68, "duration": 2, "velocity": 88}, {"time": 766, "pitch": 59, "duration": 2, "velocity": 77}, {"time": 766, "pitch": 63, "duration": 1, "velocity": 81}, {"time": 772, "pitch": 59, "duration": 2, "velocity": 88}, {"time": 772, "pitch": 68, "duration": 3, "velocity": 89}, {"time": 778, "pitch": 59, "duration": 2, "velocity": 75}, {"time": 778, "pitch": 63, "duration": 2, "velocity": 78}, {"time": 784, "pitch": 45, "duration": 39, "velocity": 83}, {"time": 784, "pitch": 61, "duration": 3, "velocity": 80}, {"time": 784, "pitch": 68, "duration": 4, "velocity": 89}, {"time": 790, "pitch": 61, "duration": 2, "velocity": 80}, {"time": 790, "pitch": 64, "duration": 2, "velocity": 80}, {"time": 796, "pitch": 61, "duration": 2, "velocity": 88}, {"time": 796, "pitch": 68, "duration": 2, "velocity": 94}, {"time": 802, "pitch": 61, "duration": 2, "velocity": 81}, {"time": 802, "pitch": 64, "duration": 2, "velocity": 84}, {"time": 808, "pitch": 61, "duration": 8, "velocity": 89}, {"time": 808, "pitch": 68, "duration": 6, "velocity": 93}, {"time": 814, "pitch": 64, "duration": 2, "velocity": 79}, {"time": 820, "pitch": 61, "duration": 8, "velocity": 88}, {"time": 820, "pitch": 68, "duration": 5, "velocity": 89}, {"time": 826, "pitch": 64, "duration": 3, "velocity": 78}, {"time": 832, "pitch": 44, "duration": 22, "velocity": 89}, {"time": 832, "pitch": 64, "duration": 2, "velocity": 88}, {"time": 832, "pitch": 68, "duration": 4, "velocity": 87}, {"time": 838, "pitch": 59, "duration": 2, "velocity": 80}, {"time": 838, "pitch": 63, "duration": 2, "velocity": 83}, {"time": 844, "pitch": 59, "duration": 2, "velocity": 88}, {"time": 844, "pitch": 68, "duration": 3, "velocity": 89}, {"time": 850, "pitch": 59, "duration": 4, "velocity": 79}, {"time": 850, "pitch": 63, "duration": 4, "velocity": 86}, {"time": 856, "pitch": 49, "duration": 25, "velocity": 86}, {"time": 856, "pitch": 63, "duration": 1, "velocity": 84}, {"time": 856, "pitch": 68, "duration": 7, "velocity": 89}, {"time": 862, "pitch": 61, "duration": 4, "velocity": 79}, {"time": 862, "pitch": 64, "duration": 3, "velocity": 80}, {"time": 868, "pitch": 61, "duration": 3, "velocity": 84}, {"time": 868, "pitch": 68, "duration": 3, "velocity": 94}, {"time": 874, "pitch": 61, "duration": 3, "velocity": 84}, {"time": 874, "pitch": 64, "duration": 3, "velocity": 89}, {"time": 880, "pitch": 42, "duration": 41, "velocity": 89}, {"time": 880, "pitch": 58, "duration": 3, "velocity": 86}, {"time": 880, "pitch": 66, "duration": 4, "velocity": 85}, {"time": 886, "pitch": 58, "duration": 2, "velocity": 78}, {"time": 886, "pitch": 61, "duration": 2, "velocity": 77}, {"time": 892, "pitch": 58, "duration": 2, "velocity": 89}, {"time": 892, "pitch": 66, "duration": 3, "velocity": 89}, {"time": 904, "pitch": 58, "duration": 3, "velocity": 88}, {"time": 904, "pitch": 66, "duration": 3, "velocity": 88}, {"time": 910, "pitch": 61, "duration": 2, "velocity": 88}, {"time": 916, "pitch": 58, "duration": 2, "velocity": 92}, {"time": 916, "pitch": 66, "duration": 4, "velocity": 88}, {"time": 922, "pitch": 58, "duration": 1, "velocity": 74}, {"time": 922, "pitch": 61, "duration": 2, "velocity": 88}, {"time": 928, "pitch": 35, "duration": 12, "velocity": 86}, {"time": 928, "pitch": 47, "duration": 3, "velocity": 88}, {"time": 928, "pitch": 51, "duration": 6, "velocity": 90}, {"time": 934, "pitch": 47, "duration": 7, "velocity": 84}, {"time": 940, "pitch": 51, "duration": 1, "velocity": 94}, {"time": 940, "pitch": 54, "duration": 2, "velocity": 93}, {"time": 946, "pitch": 47, "duration": 30, "velocity": 77}, {"time": 952, "pitch": 59, "duration": 3, "velocity": 89}, {"time": 952, "pitch": 63, "duration": 3, "velocity": 93}, {"time": 958, "pitch": 63, "duration": 3, "velocity": 77}, {"time": 958, "pitch": 66, "duration": 3, "velocity": 81}, {"time": 964, "pitch": 59, "duration": 11, "velocity": 91}, {"time": 964, "pitch": 63, "duration": 11, "velocity": 102}, {"time": 964, "pitch": 66, "duration": 11, "velocity": 92}, {"time": 964, "pitch": 71, "duration": 11, "velocity": 88}, {"time": 970, "pitch": 54, "duration": 6, "velocity": 88}, {"time": 976, "pitch": 40, "duration": 14, "velocity": 88}, {"time": 976, "pitch": 59, "duration": 7, "velocity": 88}, {"time": 976, "pitch": 64, "duration": 7, "velocity": 92}, {"time": 976, "pitch": 68, "duration": 7, "velocity": 90}, {"time": 982, "pitch": 47, "duration": 7, "velocity": 75}, {"time": 988, "pitch": 59, "duration": 3, "velocity": 91}, {"time": 988, "pitch": 64, "duration": 6, "velocity": 95}, {"time": 988, "pitch": 68, "duration": 8, "velocity": 97}, {"time": 994, "pitch": 40, "duration": 2, "velocity": 88}, {"time": 994, "pitch": 59, "duration": 4, "velocity": 92}, {"time": 1000, "pitch": 47, "duration": 15, "velocity": 99}, {"time": 1000, "pitch": 59, "duration": 6, "velocity": 90}, {"time": 1000, "pitch": 63, "duration": 7, "velocity": 89}, {"time": 1006, "pitch": 54, "duration": 7, "velocity": 84}, {"time": 1009, "pitch": 59, "duration": 2, "velocity": 89}, {"time": 1012, "pitch": 59, "duration": 5, "velocity": 95}, {"time": 1012, "pitch": 63, "duration": 5, "velocity": 102}, {"time": 1012, "pitch": 66, "duration": 6, "velocity": 89}, {"time": 1018, "pitch": 47, "duration": 1, "velocity": 90}, {"time": 1024, "pitch": 37, "duration": 15, "velocity": 90}, {"time": 1024, "pitch": 61, "duration": 7, "velocity": 88}, {"time": 1024, "pitch": 64, "duration": 7, "velocity": 84}, {"time": 1030, "pitch": 44, "duration": 8, "velocity": 76}, {"time": 1036, "pitch": 61, "duration": 4, "velocity": 90}, {"time": 1036, "pitch": 64, "duration": 3, "velocity": 99}, {"time": 1036, "pitch": 68, "duration": 5, "velocity": 93}, {"time": 1042, "pitch": 37, "duration": 3, "velocity": 91}, {"time": 1048, "pitch": 35, "duration": 1, "velocity": 89}, {"time": 1048, "pitch": 59, "duration": 9, "velocity": 89}, {"time": 1048, "pitch": 63, "duration": 10, "velocity": 90}, {"time": 1048, "pitch": 66, "duration": 12, "velocity": 87}, {"time": 1054, "pitch": 47, "duration": 9, "velocity": 89}, {"time": 1057, "pitch": 54, "duration": 5, "velocity": 86}, {"time": 1060, "pitch": 59, "duration": 6, "velocity": 97}, {"time": 1063, "pitch": 63, "duration": 3, "velocity": 94}, {"time": 1066, "pitch": 66, "duration": 1, "velocity": 95}, {"time": 1072, "pitch": 45, "duration": 13, "velocity": 97}, {"time": 1072, "pitch": 57, "duration": 9, "velocity": 81}, {"time": 1072, "pitch": 61, "duration": 9, "velocity": 90}, {"time": 1078, "pitch": 52, "duration": 8, "velocity": 84}, {"time": 1084, "pitch": 57, "duration": 4, "velocity": 88}, {"time": 1084, "pitch": 61, "duration": 4, "velocity": 89}, {"time": 1084, "pitch": 64, "duration": 5, "velocity": 88}, {"time": 1090, "pitch": 45, "duration": 2, "velocity": 91}, {"time": 1096, "pitch": 44, "duration": 15, "velocity": 90}, {"time": 1096, "pitch": 54, "duration": 8, "velocity": 89}, {"time": 1096, "pitch": 59, "duration": 6, "velocity": 88}, {"time": 1102, "pitch": 51, "duration": 7, "velocity": 85}, {"time": 1108, "pitch": 54, "duration": 4, "velocity": 92}, {"time": 1108, "pitch": 59, "duration": 4, "velocity": 99}, {"time": 1108, "pitch": 63, "duration": 4, "velocity": 94}, {"time": 1111, "pitch": 51, "duration": 2, "velocity": 89}, {"time": 1114, "pitch": 44, "duration": 2, "velocity": 90}, {"time": 1120, "pitch": 42, "duration": 22, "velocity": 90}, {"time": 1120, "pitch": 54, "duration": 6, "velocity": 89}, {"time": 1120, "pitch": 57, "duration": 8, "velocity": 89}, {"time": 1120, "pitch": 61, "duration": 10, "velocity": 90}, {"time": 1126, "pitch": 49, "duration": 15, "velocity": 83}, {"time": 1129, "pitch": 54, "duration": 10, "velocity": 88}, {"time": 1132, "pitch": 57, "duration": 7, "velocity": 93}, {"time": 1132, "pitch": 61, "duration": 1, "velocity": 77}, {"time": 1135, "pitch": 66, "duration": 2, "velocity": 89}, {"time": 1138, "pitch": 61, "duration": 4, "velocity": 92}, {"time": 1138, "pitch": 66, "duration": 1, "velocity": 68}, {"time": 1144, "pitch": 47, "duration": 13, "velocity": 99}, {"time": 1144, "pitch": 54, "duration": 4, "velocity": 89}, {"time": 1144, "pitch": 59, "duration": 5, "velocity": 89}, {"time": 1144, "pitch": 61, "duration": 1, "velocity": 84}, {"time": 1150, "pitch": 51, "duration": 6, "velocity": 84}, {"time": 1153, "pitch": 54, "duration": 1, "velocity": 95}, {"time": 1156, "pitch": 54, "duration": 3, "velocity": 99}, {"time": 1156, "pitch": 59, "duration": 4, "velocity": 109}, {"time": 1156, "pitch": 63, "duration": 7, "velocity": 104}, {"time": 1159, "pitch": 51, "duration": 2, "velocity": 91}, {"time": 1162, "pitch": 54, "duration": 4, "velocity": 97}, {"time": 1165, "pitch": 59, "duration": 1, "velocity": 75}, {"time": 1168, "pitch": 40, "duration": 1, "velocity": 84}, {"time": 1168, "pitch": 47, "duration": 1, "velocity": 90}, {"time": 1168, "pitch": 52, "duration": 4, "velocity": 88}, {"time": 1168, "pitch": 56, "duration": 4, "velocity": 88}, {"time": 1174, "pitch": 52, "duration": 10, "velocity": 79}, {"time": 1177, "pitch": 59, "duration": 6, "velocity": 89}, {"time": 1180, "pitch": 64, "duration": 4, "velocity": 94}, {"time": 1183, "pitch": 68, "duration": 3, "velocity": 97}, {"time": 1186, "pitch": 64, "duration": 4, "velocity": 95}, {"time": 1189, "pitch": 68, "duration": 1, "velocity": 89}, {"time": 1192, "pitch": 47, "duration": 16, "velocity": 99}, {"time": 1195, "pitch": 54, "duration": 10, "velocity": 88}, {"time": 1198, "pitch": 59, "duration": 4, "velocity": 92}, {"time": 1204, "pitch": 59, "duration": 5, "velocity": 92}, {"time": 1204, "pitch": 63, "duration": 5, "velocity": 102}, {"time": 1204, "pitch": 66, "duration": 6, "velocity": 91}, {"time": 1210, "pitch": 54, "duration": 1, "velocity": 91}, {"time": 1216, "pitch": 37, "duration": 16, "velocity": 93}, {"time": 1216, "pitch": 61, "duration": 6, "velocity": 91}, {"time": 1216, "pitch": 64, "duration": 9, "velocity": 90}, {"time": 1222, "pitch": 44, "duration": 7, "velocity": 73}, {"time": 1225, "pitch": 61, "duration": 1, "velocity": 90}, {"time": 1228, "pitch": 61, "duration": 3, "velocity": 97}, {"time": 1228, "pitch": 64, "duration": 5, "velocity": 97}, {"time": 1228, "pitch": 68, "duration": 7, "velocity": 97}, {"time": 1231, "pitch": 44, "duration": 1, "velocity": 90}, {"time": 1234, "pitch": 61, "duration": 4, "velocity": 90}, {"time": 1237, "pitch": 64, "duration": 1, "velocity": 85}, {"time": 1240, "pitch": 47, "duration": 15, "velocity": 93}, {"time": 1240, "pitch": 59, "duration": 3, "velocity": 90}, {"time": 1240, "pitch": 63, "duration": 4, "velocity": 95}, {"time": 1243, "pitch": 54, "duration": 9, "velocity": 88}, {"time": 1246, "pitch": 59, "duration": 3, "velocity": 89}, {"time": 1249, "pitch": 63, "duration": 1, "velocity": 89}, {"time": 1252, "pitch": 59, "duration": 3, "velocity": 93}, {"time": 1252, "pitch": 63, "duration": 4, "velocity": 102}, {"time": 1252, "pitch": 66, "duration": 5, "velocity": 90}, {"time": 1255, "pitch": 54, "duration": 1, "velocity": 94}, {"time": 1258, "pitch": 59, "duration": 5, "velocity": 94}, {"time": 1261, "pitch": 63, "duration": 2, "velocity": 80}, {"time": 1264, "pitch": 45, "duration": 15, "velocity": 97}, {"time": 1267, "pitch": 52, "duration": 10, "velocity": 89}, {"time": 1270, "pitch": 57, "duration": 4, "velocity": 83}, {"time": 1270, "pitch": 61, "duration": 1, "velocity": 70}, {"time": 1273, "pitch": 61, "duration": 1, "velocity": 88}, {"time": 1276, "pitch": 57, "duration": 4, "velocity": 102}, {"time": 1276, "pitch": 61, "duration": 4, "velocity": 99}, {"time": 1276, "pitch": 64, "duration": 7, "velocity": 91}, {"time": 1279, "pitch": 52, "duration": 2, "velocity": 91}, {"time": 1282, "pitch": 45, "duration": 1, "velocity": 99}, {"time": 1288, "pitch": 44, "duration": 21, "velocity": 91}, {"time": 1288, "pitch": 56, "duration": 3, "velocity": 88}, {"time": 1288, "pitch": 59, "duration": 4, "velocity": 88}, {"time": 1291, "pitch": 51, "duration": 9, "velocity": 89}, {"time": 1294, "pitch": 56, "duration": 4, "velocity": 87}, {"time": 1297, "pitch": 59, "duration": 2, "velocity": 92}, {"time": 1300, "pitch": 51, "duration": 2, "velocity": 88}, {"time": 1303, "pitch": 56, "duration": 3, "velocity": 97}, {"time": 1303, "pitch": 59, "duration": 4, "velocity": 105}, {"time": 1303, "pitch": 63, "duration": 4, "velocity": 102}, {"time": 1306, "pitch": 51, "duration": 2, "velocity": 89}, {"time": 1309, "pitch": 56, "duration": 3, "velocity": 88}, {"time": 1312, "pitch": 42, "duration": 22, "velocity": 91}, {"time": 1315, "pitch": 49, "duration": 10, "velocity": 88}, {"time": 1318, "pitch": 54, "duration": 4, "velocity": 89}, {"time": 1321, "pitch": 57, "duration": 1, "velocity": 89}, {"time": 1324, "pitch": 54, "duration": 3, "velocity": 90}, {"time": 1324, "pitch": 57, "duration": 4, "velocity": 94}, {"time": 1324, "pitch": 61, "duration": 4, "velocity": 94}, {"time": 1324, "pitch": 64, "duration": 2, "velocity": 89}, {"time": 1324, "pitch": 66, "duration": 4, "velocity": 83}, {"time": 1327, "pitch": 49, "duration": 6, "velocity": 89}, {"time": 1330, "pitch": 54, "duration": 4, "velocity": 89}, {"time": 1330, "pitch": 61, "duration": 1, "velocity": 55}, {"time": 1333, "pitch": 57, "duration": 1, "velocity": 84}, {"time": 1333, "pitch": 61, "duration": 1, "velocity": 62}, {"time": 1336, "pitch": 47, "duration": 16, "velocity": 102}, {"time": 1336, "pitch": 54, "duration": 7, "velocity": 92}, {"time": 1336, "pitch": 59, "duration": 7, "velocity": 93}, {"time": 1342, "pitch": 51, "duration": 10, "velocity": 79}, {"time": 1348, "pitch": 54, "duration": 6, "velocity": 90}, {"time": 1348, "pitch": 59, "duration": 6, "velocity": 90}, {"time": 1348, "pitch": 63, "duration": 6, "velocity": 94}, {"time": 1360, "pitch": 45, "duration": 47, "velocity": 88}, {"time": 1360, "pitch": 61, "duration": 8, "velocity": 88}, {"time": 1360, "pitch": 69, "duration": 6, "velocity": 82}, {"time": 1366, "pitch": 64, "duration": 2, "velocity": 79}, {"time": 1372, "pitch": 61, "duration": 9, "velocity": 88}, {"time": 1372, "pitch": 69, "duration": 6, "velocity": 87}, {"time": 1378, "pitch": 64, "duration": 3, "velocity": 75}, {"time": 1384, "pitch": 61, "duration": 3, "velocity": 81}, {"time": 1384, "pitch": 64, "duration": 7, "velocity": 88}, {"time": 1384, "pitch": 69, "duration": 9, "velocity": 83}, {"time": 1390, "pitch": 61, "duration": 8, "velocity": 79}, {"time": 1396, "pitch": 64, "duration": 7, "velocity": 90}, {"time": 1396, "pitch": 69, "duration": 7, "velocity": 97}, {"time": 1402, "pitch": 61, "duration": 3, "velocity": 83}, {"time": 1408, "pitch": 44, "duration": 16, "velocity": 85}, {"time": 1408, "pitch": 63, "duration": 3, "velocity": 89}, {"time": 1408, "pitch": 68, "duration": 7, "velocity": 88}, {"time": 1414, "pitch": 63, "duration": 4, "velocity": 78}, {"time": 1420, "pitch": 63, "duration": 1, "velocity": 76}, {"time": 1420, "pitch": 68, "duration": 6, "velocity": 91}, {"time": 1420, "pitch": 71, "duration": 11, "velocity": 90}, {"time": 1426, "pitch": 63, "duration": 2, "velocity": 91}, {"time": 1432, "pitch": 49, "duration": 14, "velocity": 92}, {"time": 1432, "pitch": 61, "duration": 6, "velocity": 87}, {"time": 1432, "pitch": 64, "duration": 7, "velocity": 82}, {"time": 1438, "pitch": 56, "duration": 7, "velocity": 80}, {"time": 1444, "pitch": 59, "duration": 2, "velocity": 90}, {"time": 1444, "pitch": 64, "duration": 6, "velocity": 94}, {"time": 1444, "pitch": 68, "duration": 6, "velocity": 92}, {"time": 1450, "pitch": 59, "duration": 2, "velocity": 90}, {"time": 1456, "pitch": 42, "duration": 46, "velocity": 88}, {"time": 1456, "pitch": 58, "duration": 3, "velocity": 82}, {"time": 1456, "pitch": 61, "duration": 7, "velocity": 83}, {"time": 1456, "pitch": 66, "duration": 7, "velocity": 80}, {"time": 1462, "pitch": 58, "duration": 7, "velocity": 83}, {"time": 1468, "pitch": 61, "duration": 7, "velocity": 89}, {"time": 1468, "pitch": 66, "duration": 7, "velocity": 84}, {"time": 1474, "pitch": 58, "duration": 7, "velocity": 84}, {"time": 1480, "pitch": 61, "duration": 7, "velocity": 89}, {"time": 1480, "pitch": 66, "duration": 7, "velocity": 85}, {"time": 1486, "pitch": 58, "duration": 7, "velocity": 79}, {"time": 1492, "pitch": 61, "duration": 6, "velocity": 91}, {"time": 1492, "pitch": 66, "duration": 9, "velocity": 88}, {"time": 1498, "pitch": 58, "duration": 2, "velocity": 88}, {"time": 1504, "pitch": 35, "duration": 13, "velocity": 88}, {"time": 1504, "pitch": 59, "duration": 2, "velocity": 83}, {"time": 1504, "pitch": 63, "duration": 6, "velocity": 89}, {"time": 1504, "pitch": 66, "duration": 7, "velocity": 87}, {"time": 1510, "pitch": 59, "duration": 6, "velocity": 88}, {"time": 1516, "pitch": 63, "duration": 2, "velocity": 93}, {"time": 1516, "pitch": 66, "duration": 2, "velocity": 92}, {"time": 1522, "pitch": 59, "duration": 12, "velocity": 88}, {"time": 1528, "pitch": 47, "duration": 24, "velocity": 90}, {"time": 1528, "pitch": 63, "duration": 7, "velocity": 89}, {"time": 1528, "pitch": 66, "duration": 6, "velocity": 86}, {"time": 1534, "pitch": 54, "duration": 18, "velocity": 78}, {"time": 1540, "pitch": 59, "duration": 2, "velocity": 87}, {"time": 1540, "pitch": 63, "duration": 11, "velocity": 92}, {"time": 1540, "pitch": 66, "duration": 11, "velocity": 88}, {"time": 1546, "pitch": 59, "duration": 5, "velocity": 88}, {"time": 1552, "pitch": 40, "duration": 30, "velocity": 88}, {"time": 1552, "pitch": 59, "duration": 3, "velocity": 84}, {"time": 1552, "pitch": 68, "duration": 4, "velocity": 84}, {"time": 1558, "pitch": 59, "duration": 1, "velocity": 61}, {"time": 1558, "pitch": 64, "duration": 2, "velocity": 75}, {"time": 1564, "pitch": 59, "duration": 2, "velocity": 85}, {"time": 1564, "pitch": 68, "duration": 2, "velocity": 83}, {"time": 1570, "pitch": 59, "duration": 3, "velocity": 75}, {"time": 1570, "pitch": 64, "duration": 3, "velocity": 76}, {"time": 1576, "pitch": 59, "duration": 7, "velocity": 88}, {"time": 1576, "pitch": 68, "duration": 7, "velocity": 88}, {"time": 1582, "pitch": 64, "duration": 2, "velocity": 79}, {"time": 1588, "pitch": 59, "duration": 9, "velocity": 86}, {"time": 1588, "pitch": 68, "duration": 7, "velocity": 86}, {"time": 1594, "pitch": 64, "duration": 4, "velocity": 83}, {"time": 1600, "pitch": 39, "duration": 31, "velocity": 89}, {"time": 1600, "pitch": 59, "duration": 2, "velocity": 79}, {"time": 1600, "pitch": 68, "duration": 5, "velocity": 90}, {"time": 1606, "pitch": 59, "duration": 2, "velocity": 77}, {"time": 1606, "pitch": 63, "duration": 2, "velocity": 80}, {"time": 1612, "pitch": 59, "duration": 2, "velocity": 82}, {"time": 1612, "pitch": 68, "duration": 2, "velocity": 84}, {"time": 1618, "pitch": 59, "duration": 2, "velocity": 69}, {"time": 1618, "pitch": 63, "duration": 2, "velocity": 75}, {"time": 1624, "pitch": 59, "duration": 2, "velocity": 85}, {"time": 1624, "pitch": 68, "duration": 2, "velocity": 84}, {"time": 1630, "pitch": 59, "duration": 2, "velocity": 75}, {"time": 1630, "pitch": 63, "duration": 2, "velocity": 77}, {"time": 1636, "pitch": 59, "duration": 3, "velocity": 84}, {"time": 1636, "pitch": 68, "duration": 4, "velocity": 89}, {"time": 1642, "pitch": 59, "duration": 1, "velocity": 69}, {"time": 1642, "pitch": 63, "duration": 2, "velocity": 80}, {"time": 1648, "pitch": 37, "duration": 30, "velocity": 88}, {"time": 1648, "pitch": 61, "duration": 3, "velocity": 86}, {"time": 1648, "pitch": 68, "duration": 3, "velocity": 87}, {"time": 1654, "pitch": 61, "duration": 2, "velocity": 77}, {"time": 1654, "pitch": 64, "duration": 2, "velocity": 78}, {"time": 1660, "pitch": 61, "duration": 2, "velocity": 85}, {"time": 1660, "pitch": 68, "duration": 2, "velocity": 87}, {"time": 1666, "pitch": 61, "duration": 2, "velocity": 73}, {"time": 1666, "pitch": 64, "duration": 2, "velocity": 70}, {"time": 1672, "pitch": 61, "duration": 2, "velocity": 85}, {"time": 1672, "pitch": 68, "duration": 2, "velocity": 88}, {"time": 1678, "pitch": 61, "duration": 2, "velocity": 78}, {"time": 1678, "pitch": 64, "duration": 2, "velocity": 77}, {"time": 1684, "pitch": 61, "duration": 2, "velocity": 89}, {"time": 1684, "pitch": 68, "duration": 3, "velocity": 90}, {"time": 1690, "pitch": 61, "duration": 2, "velocity": 79}, {"time": 1690, "pitch": 64, "duration": 2, "velocity": 82}, {"time": 1696, "pitch": 35, "duration": 26, "velocity": 82}, {"time": 1696, "pitch": 63, "duration": 2, "velocity": 88}, {"time": 1696, "pitch": 68, "duration": 3, "velocity": 86}, {"time": 1702, "pitch": 59, "duration": 2, "velocity": 76}, {"time": 1702, "pitch": 63, "duration": 2, "velocity": 83}, {"time": 1708, "pitch": 59, "duration": 2, "velocity": 87}, {"time": 1708, "pitch": 68, "duration": 1, "velocity": 88}, {"time": 1714, "pitch": 59, "duration": 2, "velocity": 72}, {"time": 1714, "pitch": 63, "duration": 1, "velocity": 79}, {"time": 1720, "pitch": 59, "duration": 2, "velocity": 85}, {"time": 1720, "pitch": 68, "duration": 2, "velocity": 88}, {"time": 1726, "pitch": 59, "duration": 2, "velocity": 77}, {"time": 1726, "pitch": 63, "duration": 1, "velocity": 81}, {"time": 1732, "pitch": 59, "duration": 2, "velocity": 88}, {"time": 1732, "pitch": 68, "duration": 3, "velocity": 89}, {"time": 1738, "pitch": 59, "duration": 2, "velocity": 75}, {"time": 1738, "pitch": 63, "duration": 2, "velocity": 78}, {"time": 1744, "pitch": 45, "duration": 39, "velocity": 83}, {"time": 1744, "pitch": 61, "duration": 3, "velocity": 80}, {"time": 1744, "pitch": 68, "duration": 4, "velocity": 89}, {"time": 1750, "pitch": 61, "duration": 2, "velocity": 80}, {"time": 1750, "pitch": 64, "duration": 2, "velocity": 80}, {"time": 1756, "pitch": 61, "duration": 2, "velocity": 88}, {"time": 1756, "pitch": 68, "duration": 2, "velocity": 94}, {"time": 1762, "pitch": 61, "duration": 2, "velocity": 81}, {"time": 1762, "pitch": 64, "duration": 2, "velocity": 84}, {"time": 1768, "pitch": 61, "duration": 8, "velocity": 89}, {"time": 1768, "pitch": 68, "duration": 6, "velocity": 93}, {"time": 1774, "pitch": 64, "duration": 2, "velocity": 79}, {"time": 1780, "pitch": 61, "duration": 8, "velocity": 88}, {"time": 1780, "pitch": 68, "duration": 5, "velocity": 89}, {"time": 1786, "pitch": 64, "duration": 3, "velocity": 78}, {"time": 1792, "pitch": 44, "duration": 22, "velocity": 89}, {"time": 1792, "pitch": 64, "duration": 2, "velocity": 88}, {"time": 1792, "pitch": 68, "duration": 4, "velocity": 87}, {"time": 1798, "pitch": 59, "duration": 2, "velocity": 80}, {"time": 1798, "pitch": 63, "duration": 2, "velocity": 83}, {"time": 1804, "pitch": 59, "duration": 2, "velocity": 88}, {"time": 1804, "pitch": 68, "duration": 3, "velocity": 89}, {"time": 1810, "pitch": 59, "duration": 4, "velocity": 79}, {"time": 1810, "pitch": 63, "duration": 4, "velocity": 86}, {"time": 1816, "pitch": 49, "duration": 25, "velocity": 86}, {"time": 1816, "pitch": 63, "duration": 1, "velocity": 84}, {"time": 1816, "pitch": 68, "duration": 7, "velocity": 89}, {"time": 1822, "pitch": 61, "duration": 4, "velocity": 79}, {"time": 1822, "pitch": 64, "duration": 3, "velocity": 80}, {"time": 1828, "pitch": 61, "duration": 3, "velocity": 84}, {"time": 1828, "pitch": 68, "duration": 3, "velocity": 94}, {"time": 1834, "pitch": 61, "duration": 3, "velocity": 84}, {"time": 1834, "pitch": 64, "duration": 3, "velocity": 89}, {"time": 1840, "pitch": 42, "duration": 41, "velocity": 89}, {"time": 1840, "pitch": 58, "duration": 3, "velocity": 86}, {"time": 1840, "pitch": 66, "duration": 4, "velocity": 85}, {"time": 1846, "pitch": 58, "duration": 2, "velocity": 78}, {"time": 1846, "pitch": 61, "duration": 2, "velocity": 77}, {"time": 1852, "pitch": 58, "duration": 2, "velocity": 89}, {"time": 1852, "pitch": 66, "duration": 3, "velocity": 89}, {"time": 1864, "pitch": 58, "duration": 3, "velocity": 88}, {"time": 1864, "pitch": 66, "duration": 3, "velocity": 88}, {"time": 1870, "pitch": 61, "duration": 2, "velocity": 88}, {"time": 1876, "pitch": 58, "duration": 2, "velocity": 92}, {"time": 1876, "pitch": 66, "duration": 4, "velocity": 88}, {"time": 1882, "pitch": 58, "duration": 1, "velocity": 74}, {"time": 1882, "pitch": 61, "duration": 2, "velocity": 88}, {"time": 1888, "pitch": 35, "duration": 12, "velocity": 86}, {"time": 1888, "pitch": 47, "duration": 3, "velocity": 88}, {"time": 1888, "pitch": 51, "duration": 6, "velocity": 90}, {"time": 1894, "pitch": 47, "duration": 7, "velocity": 84}, {"time": 1900, "pitch": 51, "duration": 1, "velocity": 94}, {"time": 1900, "pitch": 54, "duration": 2, "velocity": 93}, {"time": 1906, "pitch": 47, "duration": 30, "velocity": 77}, {"time": 1912, "pitch": 59, "duration": 3, "velocity": 89}, {"time": 1912, "pitch": 63, "duration": 3, "velocity": 93}, {"time": 1918, "pitch": 63, "duration": 3, "velocity": 77}, {"time": 1918, "pitch": 66, "duration": 3, "velocity": 81}, {"time": 1924, "pitch": 59, "duration": 11, "velocity": 91}, {"time": 1924, "pitch": 63, "duration": 11, "velocity": 102}, {"time": 1924, "pitch": 66, "duration": 11, "velocity": 92}, {"time": 1924, "pitch": 71, "duration": 11, "velocity": 88}, {"time": 1930, "pitch": 54, "duration": 6, "velocity": 88}, {"time": 1936, "pitch": 40, "duration": 14, "velocity": 88}, {"time": 1936, "pitch": 59, "duration": 7, "velocity": 88}, {"time": 1936, "pitch": 64, "duration": 7, "velocity": 92}, {"time": 1936, "pitch": 68, "duration": 7, "velocity": 90}, {"time": 1942, "pitch": 47, "duration": 7, "velocity": 75}, {"time": 1948, "pitch": 59, "duration": 3, "velocity": 91}, {"time": 1948, "pitch": 64, "duration": 6, "velocity": 95}, {"time": 1948, "pitch": 68, "duration": 8, "velocity": 97}, {"time": 1954, "pitch": 40, "duration": 2, "velocity": 88}, {"time": 1954, "pitch": 59, "duration": 4, "velocity": 92}, {"time": 1960, "pitch": 47, "duration": 15, "velocity": 99}, {"time": 1960, "pitch": 59, "duration": 6, "velocity": 90}, {"time": 1960, "pitch": 63, "duration": 7, "velocity": 89}, {"time": 1966, "pitch": 54, "duration": 7, "velocity": 84}, {"time": 1969, "pitch": 59, "duration": 2, "velocity": 89}, {"time": 1972, "pitch": 59, "duration": 5, "velocity": 95}, {"time": 1972, "pitch": 63, "duration": 5, "velocity": 102}, {"time": 1972, "pitch": 66, "duration": 6, "velocity": 89}, {"time": 1978, "pitch": 47, "duration": 1, "velocity": 90}, {"time": 1984, "pitch": 37, "duration": 15, "velocity": 90}, {"time": 1984, "pitch": 61, "duration": 7, "velocity": 88}, {"time": 1984, "pitch": 64, "duration": 7, "velocity": 84}, {"time": 1990, "pitch": 44, "duration": 8, "velocity": 76}, {"time": 1996, "pitch": 61, "duration": 4, "velocity": 90}, {"time": 1996, "pitch": 64, "duration": 3, "velocity": 99}, {"time": 1996, "pitch": 68, "duration": 5, "velocity": 93}, {"time": 2002, "pitch": 37, "duration": 3, "velocity": 91}, {"time": 2008, "pitch": 35, "duration": 1, "velocity": 89}, {"time": 2008, "pitch": 59, "duration": 9, "velocity": 89}, {"time": 2008, "pitch": 63, "duration": 10, "velocity": 90}, {"time": 2008, "pitch": 66, "duration": 12, "velocity": 87}, {"time": 2014, "pitch": 47, "duration": 9, "velocity": 89}, {"time": 2017, "pitch": 54, "duration": 5, "velocity": 86}, {"time": 2020, "pitch": 59, "duration": 6, "velocity": 97}, {"time": 2023, "pitch": 63, "duration": 3, "velocity": 94}, {"time": 2026, "pitch": 66, "duration": 1, "velocity": 95}, {"time": 2032, "pitch": 45, "duration": 13, "velocity": 97}, {"time": 2032, "pitch": 57, "duration": 9, "velocity": 81}, {"time": 2032, "pitch": 61, "duration": 9, "velocity": 90}, {"time": 2038, "pitch": 52, "duration": 8, "velocity": 84}, {"time": 2044, "pitch": 57, "duration": 4, "velocity": 88}, {"time": 2044, "pitch": 61, "duration": 4, "velocity": 89}, {"time": 2044, "pitch": 64, "duration": 5, "velocity": 88}, {"time": 2050, "pitch": 45, "duration": 2, "velocity": 91}, {"time": 2056, "pitch": 44, "duration": 15, "velocity": 90}, {"time": 2056, "pitch": 54, "duration": 8, "velocity": 89}, {"time": 2056, "pitch": 59, "duration": 6, "velocity": 88}, {"time": 2062, "pitch": 51, "duration": 7, "velocity": 85}, {"time": 2068, "pitch": 54, "duration": 4, "velocity": 92}, {"time": 2068, "pitch": 59, "duration": 4, "velocity": 99}, {"time": 2068, "pitch": 63, "duration": 4, "velocity": 94}, {"time": 2071, "pitch": 51, "duration": 2, "velocity": 89}, {"time": 2074, "pitch": 44, "duration": 2, "velocity": 90}, {"time": 2080, "pitch": 42, "duration": 22, "velocity": 90}, {"time": 2080, "pitch": 54, "duration": 6, "velocity": 89}, {"time": 2080, "pitch": 57, "duration": 8, "velocity": 89}, {"time": 2080, "pitch": 61, "duration": 10, "velocity": 90}, {"time": 2086, "pitch": 49, "duration": 15, "velocity": 83}, {"time": 2089, "pitch": 54, "duration": 10, "velocity": 88}, {"time": 2092, "pitch": 57, "duration": 7, "velocity": 93}, {"time": 2092, "pitch": 61, "duration": 1, "velocity": 77}, {"time": 2095, "pitch": 66, "duration": 2, "velocity": 89}, {"time": 2098, "pitch": 61, "duration": 4, "velocity": 92}, {"time": 2098, "pitch": 66, "duration": 1, "velocity": 68}, {"time": 2104, "pitch": 47, "duration": 13, "velocity": 99}, {"time": 2104, "pitch": 54, "duration": 4, "velocity": 89}, {"time": 2104, "pitch": 59, "duration": 5, "velocity": 89}, {"time": 2104, "pitch": 61, "duration": 1, "velocity": 84}, {"time": 2110, "pitch": 51, "duration": 6, "velocity": 84}, {"time": 2113, "pitch": 54, "duration": 1, "velocity": 95}, {"time": 2116, "pitch": 54, "duration": 3, "velocity": 99}, {"time": 2116, "pitch": 59, "duration": 4, "velocity": 109}, {"time": 2116, "pitch": 63, "duration": 7, "velocity": 104}, {"time": 2119, "pitch": 51, "duration": 2, "velocity": 91}, {"time": 2122, "pitch": 54, "duration": 4, "velocity": 97}, {"time": 2125, "pitch": 59, "duration": 1, "velocity": 75}, {"time": 2128, "pitch": 40, "duration": 1, "velocity": 84}, {"time": 2128, "pitch": 47, "duration": 1, "velocity": 90}, {"time": 2128, "pitch": 52, "duration": 4, "velocity": 88}, {"time": 2128, "pitch": 56, "duration": 4, "velocity": 88}, {"time": 2134, "pitch": 52, "duration": 10, "velocity": 79}, {"time": 2137, "pitch": 59, "duration": 6, "velocity": 89}, {"time": 2140, "pitch": 64, "duration": 4, "velocity": 94}, {"time": 2143, "pitch": 68, "duration": 3, "velocity": 97}, {"time": 2146, "pitch": 64, "duration": 4, "velocity": 95}, {"time": 2149, "pitch": 68, "duration": 1, "velocity": 89}, {"time": 2152, "pitch": 47, "duration": 16, "velocity": 99}, {"time": 2155, "pitch": 54, "duration": 10, "velocity": 88}, {"time": 2158, "pitch": 59, "duration": 4, "velocity": 92}, {"time": 2164, "pitch": 59, "duration": 5, "velocity": 92}, {"time": 2164, "pitch": 63, "duration": 5, "velocity": 102}, {"time": 2164, "pitch": 66, "duration": 6, "velocity": 91}, {"time": 2170, "pitch": 54, "duration": 1, "velocity": 91}, {"time": 2176, "pitch": 37, "duration": 16, "velocity": 93}, {"time": 2176, "pitch": 61, "duration": 6, "velocity": 91}, {"time": 2176, "pitch": 64, "duration": 9, "velocity": 90}, {"time": 2182, "pitch": 44, "duration": 7, "velocity": 73}, {"time": 2185, "pitch": 61, "duration": 1, "velocity": 90}, {"time": 2188, "pitch": 61, "duration": 3, "velocity": 97}, {"time": 2188, "pitch": 64, "duration": 5, "velocity": 97}, {"time": 2188, "pitch": 68, "duration": 7, "velocity": 97}, {"time": 2191, "pitch": 44, "duration": 1, "velocity": 90}, {"time": 2194, "pitch": 61, "duration": 4, "velocity": 90}, {"time": 2197, "pitch": 64, "duration": 1, "velocity": 85}, {"time": 2200, "pitch": 47, "duration": 15, "velocity": 93}, {"time": 2200, "pitch": 59, "duration": 3, "velocity": 90}, {"time": 2200, "pitch": 63, "duration": 4, "velocity": 95}, {"time": 2203, "pitch": 54, "duration": 9, "velocity": 88}, {"time": 2206, "pitch": 59, "duration": 3, "velocity": 89}, {"time": 2209, "pitch": 63, "duration": 1, "velocity": 89}, {"time": 2212, "pitch": 59, "duration": 3, "velocity": 93}, {"time": 2212, "pitch": 63, "duration": 4, "velocity": 102}, {"time": 2212, "pitch": 66, "duration": 5, "velocity": 90}, {"time": 2215, "pitch": 54, "duration": 1, "velocity": 94}, {"time": 2218, "pitch": 59, "duration": 5, "velocity": 94}, {"time": 2221, "pitch": 63, "duration": 2, "velocity": 80}, {"time": 2224, "pitch": 45, "duration": 15, "velocity": 97}, {"time": 2227, "pitch": 52, "duration": 10, "velocity": 89}, {"time": 2230, "pitch": 57, "duration": 4, "velocity": 83}, {"time": 2230, "pitch": 61, "duration": 1, "velocity": 70}, {"time": 2233, "pitch": 61, "duration": 1, "velocity": 88}, {"time": 2236, "pitch": 57, "duration": 4, "velocity": 102}, {"time": 2236, "pitch": 61, "duration": 4, "velocity": 99}, {"time": 2236, "pitch": 64, "duration": 7, "velocity": 91}, {"time": 2239, "pitch": 52, "duration": 2, "velocity": 91}, {"time": 2242, "pitch": 45, "duration": 1, "velocity": 99}, {"time": 2248, "pitch": 44, "duration": 21, "velocity": 91}, {"time": 2248, "pitch": 56, "duration": 3, "velocity": 88}, {"time": 2248, "pitch": 59, "duration": 4, "velocity": 88}, {"time": 2251, "pitch": 51, "duration": 9, "velocity": 89}, {"time": 2254, "pitch": 56, "duration": 4, "velocity": 87}, {"time": 2257, "pitch": 59, "duration": 2, "velocity": 92}, {"time": 2260, "pitch": 51, "duration": 2, "velocity": 88}, {"time": 2263, "pitch": 56, "duration": 3, "velocity": 97}, {"time": 2263, "pitch": 59, "duration": 4, "velocity": 105}, {"time": 2263, "pitch": 63, "duration": 4, "velocity": 102}, {"time": 2266, "pitch": 51, "duration": 2, "velocity": 89}, {"time": 2269, "pitch": 56, "duration": 3, "velocity": 88}, {"time": 2272, "pitch": 42, "duration": 22, "velocity": 91}, {"time": 2275, "pitch": 49, "duration": 10, "velocity": 88}, {"time": 2278, "pitch": 54, "duration": 4, "velocity": 89}, {"time": 2281, "pitch": 57, "duration": 1, "velocity": 89}, {"time": 2284, "pitch": 54, "duration": 3, "velocity": 90}, {"time": 2284, "pitch": 57, "duration": 4, "velocity": 94}, {"time": 2284, "pitch": 61, "duration": 4, "velocity": 94}, {"time": 2284, "pitch": 64, "duration": 2, "velocity": 89}, {"time": 2284, "pitch": 66, "duration": 4, "velocity": 83}, {"time": 2287, "pitch": 49, "duration": 6, "velocity": 89}, {"time": 2290, "pitch": 54, "duration": 4, "velocity": 89}, {"time": 2290, "pitch": 61, "duration": 1, "velocity": 55}, {"time": 2293, "pitch": 57, "duration": 1, "velocity": 84}, {"time": 2293, "pitch": 61, "duration": 1, "velocity": 62}, {"time": 2296, "pitch": 47, "duration": 16, "velocity": 102}, {"time": 2296, "pitch": 54, "duration": 7, "velocity": 92}, {"time": 2296, "pitch": 59, "duration": 7, "velocity": 93}, {"time": 2302, "pitch": 51, "duration": 10, "velocity": 79}, {"time": 2308, "pitch": 54, "duration": 6, "velocity": 90}, {"time": 2308, "pitch": 59, "duration": 6, "velocity": 90}, {"time": 2308, "pitch": 63, "duration": 6, "velocity": 94}, {"time": 2320, "pitch": 49, "duration": 2, "velocity": 89}, {"time": 2320, "pitch": 56, "duration": 2, "velocity": 88}, {"time": 2320, "pitch": 73, "duration": 2, "velocity": 91}, {"time": 2320, "pitch": 76, "duration": 3, "velocity": 81}, {"time": 2323, "pitch": 68, "duration": 3, "velocity": 87}, {"time": 2326, "pitch": 49, "duration": 2, "velocity": 85}, {"time": 2326, "pitch": 56, "duration": 2, "velocity": 75}, {"time": 2326, "pitch": 73, "duration": 2, "velocity": 89}, {"time": 2329, "pitch": 68, "duration": 2, "velocity": 84}, {"time": 2332, "pitch": 49, "duration": 2, "velocity": 91}, {"time": 2332, "pitch": 56, "duration": 2, "velocity": 89}, {"time": 2332, "pitch": 73, "duration": 2, "velocity": 91}, {"time": 2332, "pitch": 76, "duration": 2, "velocity": 84}, {"time": 2335, "pitch": 68, "duration": 3, "velocity": 86}, {"time": 2338, "pitch": 49, "duration": 2, "velocity": 82}, {"time": 2338, "pitch": 56, "duration": 2, "velocity": 75}, {"time": 2338, "pitch": 73, "duration": 2, "velocity": 88}, {"time": 2341, "pitch": 68, "duration": 3, "velocity": 88}, {"time": 2344, "pitch": 49, "duration": 2, "velocity": 90}, {"time": 2344, "pitch": 56, "duration": 2, "velocity": 88}, {"time": 2344, "pitch": 73, "duration": 2, "velocity": 94}, {"time": 2344, "pitch": 76, "duration": 2, "velocity": 83}, {"time": 2347, "pitch": 68, "duration": 4, "velocity": 84}, {"time": 2350, "pitch": 49, "duration": 2, "velocity": 77}, {"time": 2350, "pitch": 56, "duration": 2, "velocity": 75}, {"time": 2350, "pitch": 73, "duration": 2, "velocity": 90}, {"time": 2353, "pitch": 68, "duration": 4, "velocity": 88}, {"time": 2356, "pitch": 49, "duration": 2, "velocity": 81}, {"time": 2356, "pitch": 56, "duration": 2, "velocity": 79}, {"time": 2356, "pitch": 73, "duration": 2, "velocity": 99}, {"time": 2356, "pitch": 76, "duration": 2, "velocity": 86}, {"time": 2359, "pitch": 68, "duration": 3, "velocity": 88}, {"time": 2362, "pitch": 49, "duration": 2, "velocity": 79}, {"time": 2362, "pitch": 56, "duration": 5, "velocity": 79}, {"time": 2362, "pitch": 73, "duration": 3, "velocity": 90}, {"time": 2362, "pitch": 76, "duration": 3, "velocity": 76}, {"time": 2365, "pitch": 68, "duration": 3, "velocity": 88}, {"time": 2368, "pitch": 48, "duration": 2, "velocity": 84}, {"time": 2368, "pitch": 56, "duration": 1, "velocity": 57}, {"time": 2368, "pitch": 72, "duration": 3, "velocity": 89}, {"time": 2368, "pitch": 76, "duration": 4, "velocity": 83}, {"time": 2371, "pitch": 68, "duration": 3, "velocity": 87}, {"time": 2374, "pitch": 48, "duration": 2, "velocity": 77}, {"time": 2374, "pitch": 56, "duration": 2, "velocity": 69}, {"time": 2374, "pitch": 72, "duration": 3, "velocity": 82}, {"time": 2377, "pitch": 68, "duration": 2, "velocity": 82}, {"time": 2380, "pitch": 48, "duration": 2, "velocity": 88}, {"time": 2380, "pitch": 56, "duration": 2, "velocity": 86}, {"time": 2380, "pitch": 72, "duration": 2, "velocity": 86}, {"time": 2380, "pitch": 76, "duration": 2, "velocity": 87}, {"time": 2383, "pitch": 68, "duration": 3, "velocity": 87}, {"time": 2386, "pitch": 48, "duration": 2, "velocity": 78}, {"time": 2386, "pitch": 56, "duration": 2, "velocity": 75}, {"time": 2386, "pitch": 72, "duration": 2, "velocity": 78}, {"time": 2389, "pitch": 68, "duration": 2, "velocity": 88}, {"time": 2392, "pitch": 48, "duration": 2, "velocity": 88}, {"time": 2392, "pitch": 56, "duration": 2, "velocity": 88}, {"time": 2392, "pitch": 72, "duration": 2, "velocity": 84}, {"time": 2392, "pitch": 76, "duration": 4, "velocity": 88}, {"time": 2395, "pitch": 68, "duration": 3, "velocity": 87}, {"time": 2398, "pitch": 48, "duration": 2, "velocity": 79}, {"time": 2398, "pitch": 56, "duration": 2, "velocity": 74}, {"time": 2398, "pitch": 72, "duration": 2, "velocity": 80}, {"time": 2401, "pitch": 68, "duration": 3, "velocity": 86}, {"time": 2404, "pitch": 48, "duration": 2, "velocity": 88}, {"time": 2404, "pitch": 56, "duration": 2, "velocity": 83}, {"time": 2404, "pitch": 72, "duration": 3, "velocity": 89}, {"time": 2404, "pitch": 76, "duration": 2, "velocity": 89}, {"time": 2407, "pitch": 68, "duration": 3, "velocity": 88}, {"time": 2410, "pitch": 48, "duration": 3, "velocity": 81}, {"time": 2410, "pitch": 56, "duration": 9, "velocity": 68}, {"time": 2410, "pitch": 72, "duration": 2, "velocity": 88}, {"time": 2410, "pitch": 76, "duration": 3, "velocity": 73}, {"time": 2413, "pitch": 68, "duration": 4, "velocity": 90}, {"time": 2416, "pitch": 47, "duration": 3, "velocity": 90}, {"time": 2416, "pitch": 54, "duration": 3, "velocity": 86}, {"time": 2416, "pitch": 71, "duration": 3, "velocity": 88}, {"time": 2416, "pitch": 76, "duration": 4, "velocity": 83}, {"time": 2419, "pitch": 68, "duration": 3, "velocity": 89}, {"time": 2422, "pitch": 71, "duration": 3, "velocity": 85}, {"time": 2425, "pitch": 68, "duration": 3, "velocity": 89}, {"time": 2428, "pitch": 47, "duration": 3, "velocity": 92}, {"time": 2428, "pitch": 54, "duration": 3, "velocity": 88}, {"time": 2428, "pitch": 71, "duration": 3, "velocity": 89}, {"time": 2428, "pitch": 76, "duration": 3, "velocity": 89}, {"time": 2431, "pitch": 68, "duration": 3, "velocity": 89}, {"time": 2434, "pitch": 47, "duration": 2, "velocity": 88}, {"time": 2434, "pitch": 54, "duration": 2, "velocity": 83}, {"time": 2434, "pitch": 71, "duration": 3, "velocity": 83}, {"time": 2437, "pitch": 68, "duration": 3, "velocity": 89}, {"time": 2440, "pitch": 47, "duration": 3, "velocity": 97}, {"time": 2440, "pitch": 54, "duration": 3, "velocity": 94}, {"time": 2440, "pitch": 71, "duration": 4, "velocity": 88}, {"time": 2440, "pitch": 76, "duration": 4, "velocity": 89}, {"time": 2443, "pitch": 68, "duration": 3, "velocity": 89}, {"time": 2446, "pitch": 47, "duration": 2, "velocity": 88}, {"time": 2446, "pitch": 54, "duration": 2, "velocity": 84}, {"time": 2446, "pitch": 71, "duration": 3, "velocity": 80}, {"time": 2449, "pitch": 68, "duration": 3, "velocity": 88}, {"time": 2452, "pitch": 47, "duration": 1, "velocity": 95}, {"time": 2452, "pitch": 54, "duration": 2, "velocity": 92}, {"time": 2452, "pitch": 71, "duration": 4, "velocity": 89}, {"time": 2452, "pitch": 76, "duration": 4, "velocity": 86}, {"time": 2455, "pitch": 68, "duration": 3, "velocity": 88}, {"time": 2458, "pitch": 47, "duration": 2, "velocity": 85}, {"time": 2458, "pitch": 54, "duration": 2, "velocity": 83}, {"time": 2458, "pitch": 71, "duration": 4, "velocity": 82}, {"time": 2458, "pitch": 76, "duration": 4, "velocity": 82}, {"time": 2461, "pitch": 68, "duration": 2, "velocity": 81}, {"time": 2464, "pitch": 42, "duration": 3, "velocity": 89}, {"time": 2464, "pitch": 49, "duration": 3, "velocity": 89}, {"time": 2464, "pitch": 70, "duration": 3, "velocity": 89}, {"time": 2464, "pitch": 73, "duration": 3, "velocity": 92}, {"time": 2464, "pitch": 78, "duration": 3, "velocity": 89}, {"time": 2467, "pitch": 66, "duration": 3, "velocity": 87}, {"time": 2470, "pitch": 42, "duration": 2, "velocity": 78}, {"time": 2470, "pitch": 49, "duration": 2, "velocity": 82}, {"time": 2470, "pitch": 70, "duration": 3, "velocity": 85}, {"time": 2470, "pitch": 73, "duration": 3, "velocity": 78}, {"time": 2473, "pitch": 66, "duration": 3, "velocity": 81}, {"time": 2476, "pitch": 42, "duration": 3, "velocity": 90}, {"time": 2476, "pitch": 49, "duration": 2, "velocity": 91}, {"time": 2476, "pitch": 70, "duration": 3, "velocity": 90}, {"time": 2476, "pitch": 73, "duration": 3, "velocity": 93}, {"time": 2476, "pitch": 78, "duration": 3, "velocity": 90}, {"time": 2479, "pitch": 66, "duration": 3, "velocity": 87}, {"time": 2482, "pitch": 42, "duration": 2, "velocity": 85}, {"time": 2482, "pitch": 49, "duration": 2, "velocity": 83}, {"time": 2482, "pitch": 70, "duration": 2, "velocity": 87}, {"time": 2482, "pitch": 73, "duration": 2, "velocity": 84}, {"time": 2485, "pitch": 66, "duration": 3, "velocity": 82}, {"time": 2488, "pitch": 42, "duration": 3, "velocity": 89}, {"time": 2488, "pitch": 49, "duration": 2, "velocity": 91}, {"time": 2488, "pitch": 70, "duration": 3, "velocity": 89}, {"time": 2488, "pitch": 73, "duration": 3, "velocity": 91}, {"time": 2488, "pitch": 78, "duration": 3, "velocity": 90}, {"time": 2491, "pitch": 66, "duration": 4, "velocity": 84}, {"time": 2494, "pitch": 42, "duration": 2, "velocity": 82}, {"time": 2494, "pitch": 49, "duration": 2, "velocity": 79}, {"time": 2494, "pitch": 70, "duration": 2, "velocity": 82}, {"time": 2494, "pitch": 73, "duration": 2, "velocity": 84}, {"time": 2497, "pitch": 66, "duration": 3, "velocity": 84}, {"time": 2500, "pitch": 42, "duration": 3, "velocity": 89}, {"time": 2500, "pitch": 49, "duration": 2, "velocity": 90}, {"time": 2500, "pitch": 70, "duration": 3, "velocity": 92}, {"time": 2500, "pitch": 73, "duration": 3, "velocity": 102}, {"time": 2500, "pitch": 78, "duration": 3, "velocity": 89}, {"time": 2503, "pitch": 66, "duration": 3, "velocity": 88}, {"time": 2506, "pitch": 42, "duration": 4, "velocity": 88}, {"time": 2506, "pitch": 49, "duration": 4, "velocity": 87}, {"time": 2506, "pitch": 70, "duration": 3, "velocity": 88}, {"time": 2506, "pitch": 73, "duration": 4, "velocity": 90}, {"time": 2509, "pitch": 66, "duration": 1, "velocity": 89}, {"time": 2509, "pitch": 54, "duration": 3, "velocity": 80}, {"time": 2511, "pitch": 57, "duration": 6, "velocity": 84}, {"time": 2511, "pitch": 61, "duration": 6, "velocity": 87}, {"time": 2511, "pitch": 42, "duration": 8, "velocity": 93}, {"time": 2512, "pitch": 66, "duration": 6, "velocity": 87}, {"time": 2523, "pitch": 56, "duration": 5, "velocity": 81}, {"time": 2523, "pitch": 59, "duration": 5, "velocity": 88}, {"time": 2523, "pitch": 44, "duration": 5, "velocity": 92}, {"time": 2523, "pitch": 63, "duration": 5, "velocity": 89}, {"time": 2524, "pitch": 68, "duration": 4, "velocity": 88}, {"time": 2535, "pitch": 57, "duration": 2, "velocity": 70}, {"time": 2535, "pitch": 45, "duration": 2, "velocity": 102}, {"time": 2536, "pitch": 61, "duration": 1, "velocity": 88}, {"time": 2536, "pitch": 69, "duration": 3, "velocity": 94}, {"time": 2546, "pitch": 58, "duration": 2, "velocity": 82}, {"time": 2547, "pitch": 61, "duration": 1, "velocity": 88}, {"time": 2547, "pitch": 52, "duration": 2, "velocity": 87}, {"time": 2547, "pitch": 46, "duration": 3, "velocity": 89}, {"time": 2547, "pitch": 64, "duration": 2, "velocity": 82}, {"time": 2548, "pitch": 70, "duration": 2, "velocity": 90}, {"time": 2558, "pitch": 59, "duration": 2, "velocity": 68}, {"time": 2559, "pitch": 63, "duration": 1, "velocity": 88}, {"time": 2559, "pitch": 35, "duration": 2, "velocity": 88}, {"time": 2559, "pitch": 66, "duration": 2, "velocity": 79}, {"time": 2560, "pitch": 71, "duration": 2, "velocity": 90}, {"time": 2565, "pitch": 47, "duration": 3, "velocity": 88}, {"time": 2565, "pitch": 63, "duration": 3, "velocity": 73}, {"time": 2565, "pitch": 54, "duration": 3, "velocity": 74}, {"time": 2565, "pitch": 59, "duration": 3, "velocity": 72}, {"time": 2565, "pitch": 66, "duration": 3, "velocity": 57}, {"time": 2565, "pitch": 71, "duration": 3, "velocity": 80}, {"time": 2571, "pitch": 63, "duration": 2, "velocity": 85}, {"time": 2571, "pitch": 66, "duration": 2, "velocity": 78}, {"time": 2571, "pitch": 59, "duration": 2, "velocity": 81}, {"time": 2571, "pitch": 71, "duration": 2, "velocity": 81}, {"time": 2571, "pitch": 47, "duration": 2, "velocity": 90}, {"time": 2571, "pitch": 54, "duration": 2, "velocity": 89}, {"time": 2577, "pitch": 66, "duration": 2, "velocity": 90}, {"time": 2577, "pitch": 59, "duration": 2, "velocity": 89}, {"time": 2577, "pitch": 63, "duration": 2, "velocity": 95}, {"time": 2577, "pitch": 71, "duration": 2, "velocity": 86}, {"time": 2577, "pitch": 47, "duration": 2, "velocity": 93}, {"time": 2577, "pitch": 54, "duration": 2, "velocity": 93}, {"time": 2583, "pitch": 47, "duration": 23, "velocity": 97}, {"time": 2583, "pitch": 71, "duration": 23, "velocity": 92}, {"time": 2583, "pitch": 54, "duration": 23, "velocity": 99}, {"time": 2583, "pitch": 66, "duration": 23, "velocity": 99}, {"time": 2583, "pitch": 63, "duration": 23, "velocity": 105}, {"time": 2583, "pitch": 59, "duration": 23, "velocity": 99}, {"time": 2608, "pitch": 40, "duration": 14, "velocity": 88}, {"time": 2608, "pitch": 59, "duration": 7, "velocity": 88}, {"time": 2608, "pitch": 64, "duration": 7, "velocity": 92}, {"time": 2608, "pitch": 68, "duration": 7, "velocity": 90}, {"time": 2614, "pitch": 47, "duration": 7, "velocity": 75}, {"time": 2620, "pitch": 59, "duration": 3, "velocity": 91}, {"time": 2620, "pitch": 64, "duration": 6, "velocity": 95}, {"time": 2620, "pitch": 68, "duration": 8, "velocity": 97}, {"time": 2626, "pitch": 40, "duration": 2, "velocity": 88}, {"time": 2626, "pitch": 59, "duration": 4, "velocity": 92}, {"time": 2632, "pitch": 47, "duration": 15, "velocity": 99}, {"time": 2632, "pitch": 59, "duration": 6, "velocity": 90}, {"time": 2632, "pitch": 63, "duration": 7, "velocity": 89}, {"time": 2638, "pitch": 54, "duration": 7, "velocity": 84}, {"time": 2641, "pitch": 59, "duration": 2, "velocity": 89}, {"time": 2644, "pitch": 59, "duration": 5, "velocity": 95}, {"time": 2644, "pitch": 63, "duration": 5, "velocity": 102}, {"time": 2644, "pitch": 66, "duration": 6, "velocity": 89}, {"time": 2650, "pitch": 47, "duration": 1, "velocity": 90}, {"time": 2656, "pitch": 37, "duration": 15, "velocity": 90}, {"time": 2656, "pitch": 61, "duration": 7, "velocity": 88}, {"time": 2656, "pitch": 64, "duration": 7, "velocity": 84}, {"time": 2662, "pitch": 44, "duration": 8, "velocity": 76}, {"time": 2668, "pitch": 61, "duration": 4, "velocity": 90}, {"time": 2668, "pitch": 64, "duration": 3, "velocity": 99}, {"time": 2668, "pitch": 68, "duration": 5, "velocity": 93}, {"time": 2674, "pitch": 37, "duration": 3, "velocity": 91}, {"time": 2680, "pitch": 35, "duration": 1, "velocity": 89}, {"time": 2680, "pitch": 59, "duration": 9, "velocity": 89}, {"time": 2680, "pitch": 63, "duration": 10, "velocity": 90}, {"time": 2680, "pitch": 66, "duration": 12, "velocity": 87}, {"time": 2686, "pitch": 47, "duration": 9, "velocity": 89}, {"time": 2689, "pitch": 54, "duration": 5, "velocity": 86}, {"time": 2692, "pitch": 59, "duration": 6, "velocity": 97}, {"time": 2695, "pitch": 63, "duration": 3, "velocity": 94}, {"time": 2698, "pitch": 66, "duration": 1, "velocity": 95}, {"time": 2704, "pitch": 45, "duration": 13, "velocity": 97}, {"time": 2704, "pitch": 57, "duration": 9, "velocity": 81}, {"time": 2704, "pitch": 61, "duration": 9, "velocity": 90}, {"time": 2710, "pitch": 52, "duration": 8, "velocity": 84}, {"time": 2716, "pitch": 57, "duration": 4, "velocity": 88}, {"time": 2716, "pitch": 61, "duration": 4, "velocity": 89}, {"time": 2716, "pitch": 64, "duration": 5, "velocity": 88}, {"time": 2722, "pitch": 45, "duration": 2, "velocity": 91}, {"time": 2728, "pitch": 44, "duration": 15, "velocity": 90}, {"time": 2728, "pitch": 54, "duration": 8, "velocity": 89}, {"time": 2728, "pitch": 59, "duration": 6, "velocity": 88}, {"time": 2734, "pitch": 51, "duration": 7, "velocity": 85}, {"time": 2740, "pitch": 54, "duration": 4, "velocity": 92}, {"time": 2740, "pitch": 59, "duration": 4, "velocity": 99}, {"time": 2740, "pitch": 63, "duration": 4, "velocity": 94}, {"time": 2743, "pitch": 51, "duration": 2, "velocity": 89}, {"time": 2746, "pitch": 44, "duration": 2, "velocity": 90}, {"time": 2752, "pitch": 42, "duration": 22, "velocity": 90}, {"time": 2752, "pitch": 54, "duration": 6, "velocity": 89}, {"time": 2752, "pitch": 57, "duration": 8, "velocity": 89}, {"time": 2752, "pitch": 61, "duration": 10, "velocity": 90}, {"time": 2758, "pitch": 49, "duration": 15, "velocity": 83}, {"time": 2761, "pitch": 54, "duration": 10, "velocity": 88}, {"time": 2764, "pitch": 57, "duration": 7, "velocity": 93}, {"time": 2764, "pitch": 61, "duration": 1, "velocity": 77}, {"time": 2767, "pitch": 66, "duration": 2, "velocity": 89}, {"time": 2770, "pitch": 61, "duration": 4, "velocity": 92}, {"time": 2770, "pitch": 66, "duration": 1, "velocity": 68}, {"time": 2776, "pitch": 47, "duration": 13, "velocity": 99}, {"time": 2776, "pitch": 54, "duration": 4, "velocity": 89}, {"time": 2776, "pitch": 59, "duration": 5, "velocity": 89}, {"time": 2776, "pitch": 61, "duration": 1, "velocity": 84}, {"time": 2782, "pitch": 51, "duration": 6, "velocity": 84}, {"time": 2785, "pitch": 54, "duration": 1, "velocity": 95}, {"time": 2788, "pitch": 54, "duration": 3, "velocity": 99}, {"time": 2788, "pitch": 59, "duration": 4, "velocity": 109}, {"time": 2788, "pitch": 63, "duration": 7, "velocity": 104}, {"time": 2791, "pitch": 51, "duration": 2, "velocity": 91}, {"time": 2794, "pitch": 54, "duration": 4, "velocity": 97}, {"time": 2797, "pitch": 59, "duration": 1, "velocity": 75}, {"time": 2800, "pitch": 40, "duration": 1, "velocity": 84}, {"time": 2800, "pitch": 47, "duration": 1, "velocity": 90}, {"time": 2800, "pitch": 52, "duration": 4, "velocity": 88}, {"time": 2800, "pitch": 56, "duration": 4, "velocity": 88}, {"time": 2806, "pitch": 52, "duration": 10, "velocity": 79}, {"time": 2809, "pitch": 59, "duration": 6, "velocity": 89}, {"time": 2812, "pitch": 64, "duration": 4, "velocity": 94}, {"time": 2815, "pitch": 68, "duration": 3, "velocity": 97}, {"time": 2818, "pitch": 64, "duration": 4, "velocity": 95}, {"time": 2821, "pitch": 68, "duration": 1, "velocity": 89}, {"time": 2824, "pitch": 47, "duration": 16, "velocity": 99}, {"time": 2827, "pitch": 54, "duration": 10, "velocity": 88}, {"time": 2830, "pitch": 59, "duration": 4, "velocity": 92}, {"time": 2836, "pitch": 59, "duration": 5, "velocity": 92}, {"time": 2836, "pitch": 63, "duration": 5, "velocity": 102}, {"time": 2836, "pitch": 66, "duration": 6, "velocity": 91}, {"time": 2842, "pitch": 54, "duration": 1, "velocity": 91}, {"time": 2848, "pitch": 37, "duration": 16, "velocity": 93}, {"time": 2848, "pitch": 61, "duration": 6, "velocity": 91}, {"time": 2848, "pitch": 64, "duration": 9, "velocity": 90}, {"time": 2854, "pitch": 44, "duration": 7, "velocity": 73}, {"time": 2857, "pitch": 61, "duration": 1, "velocity": 90}, {"time": 2860, "pitch": 61, "duration": 3, "velocity": 97}, {"time": 2860, "pitch": 64, "duration": 5, "velocity": 97}, {"time": 2860, "pitch": 68, "duration": 7, "velocity": 97}, {"time": 2863, "pitch": 44, "duration": 1, "velocity": 90}, {"time": 2866, "pitch": 61, "duration": 4, "velocity": 90}, {"time": 2869, "pitch": 64, "duration": 1, "velocity": 85}, {"time": 2872, "pitch": 47, "duration": 15, "velocity": 93}, {"time": 2872, "pitch": 59, "duration": 3, "velocity": 90}, {"time": 2872, "pitch": 63, "duration": 4, "velocity": 95}, {"time": 2875, "pitch": 54, "duration": 9, "velocity": 88}, {"time": 2878, "pitch": 59, "duration": 3, "velocity": 89}, {"time": 2881, "pitch": 63, "duration": 1, "velocity": 89}, {"time": 2884, "pitch": 59, "duration": 3, "velocity": 93}, {"time": 2884, "pitch": 63, "duration": 4, "velocity": 102}, {"time": 2884, "pitch": 66, "duration": 5, "velocity": 90}, {"time": 2887, "pitch": 54, "duration": 1, "velocity": 94}, {"time": 2890, "pitch": 59, "duration": 5, "velocity": 94}, {"time": 2893, "pitch": 63, "duration": 2, "velocity": 80}, {"time": 2896, "pitch": 45, "duration": 15, "velocity": 97}, {"time": 2899, "pitch": 52, "duration": 10, "velocity": 89}, {"time": 2902, "pitch": 57, "duration": 4, "velocity": 83}, {"time": 2902, "pitch": 61, "duration": 1, "velocity": 70}, {"time": 2905, "pitch": 61, "duration": 1, "velocity": 88}, {"time": 2908, "pitch": 57, "duration": 4, "velocity": 102}, {"time": 2908, "pitch": 61, "duration": 4, "velocity": 99}, {"time": 2908, "pitch": 64, "duration": 7, "velocity": 91}, {"time": 2911, "pitch": 52, "duration": 2, "velocity": 91}, {"time": 2914, "pitch": 45, "duration": 1, "velocity": 99}, {"time": 2920, "pitch": 44, "duration": 21, "velocity": 91}, {"time": 2920, "pitch": 56, "duration": 3, "velocity": 88}, {"time": 2920, "pitch": 59, "duration": 4, "velocity": 88}, {"time": 2923, "pitch": 51, "duration": 9, "velocity": 89}, {"time": 2926, "pitch": 56, "duration": 4, "velocity": 87}, {"time": 2929, "pitch": 59, "duration": 2, "velocity": 92}, {"time": 2932, "pitch": 51, "duration": 2, "velocity": 88}, {"time": 2935, "pitch": 56, "duration": 3, "velocity": 97}, {"time": 2935, "pitch": 59, "duration": 4, "velocity": 105}, {"time": 2935, "pitch": 63, "duration": 4, "velocity": 102}, {"time": 2938, "pitch": 51, "duration": 2, "velocity": 89}, {"time": 2941, "pitch": 56, "duration": 3, "velocity": 88}, {"time": 2941, "pitch": 54, "duration": 3, "velocity": 79}, {"time": 2942, "pitch": 57, "duration": 3, "velocity": 75}, {"time": 2943, "pitch": 61, "duration": 2, "velocity": 75}, {"time": 2943, "pitch": 42, "duration": 10, "velocity": 90}, {"time": 2943, "pitch": 66, "duration": 4, "velocity": 83}, {"time": 2946, "pitch": 49, "duration": 8, "velocity": 82}, {"time": 2949, "pitch": 54, "duration": 3, "velocity": 89}, {"time": 2955, "pitch": 56, "duration": 4, "velocity": 85}, {"time": 2955, "pitch": 59, "duration": 5, "velocity": 89}, {"time": 2955, "pitch": 44, "duration": 9, "velocity": 92}, {"time": 2958, "pitch": 51, "duration": 8, "velocity": 86}, {"time": 2961, "pitch": 56, "duration": 4, "velocity": 93}, {"time": 2964, "pitch": 59, "duration": 3, "velocity": 89}, {"time": 2967, "pitch": 45, "duration": 10, "velocity": 99}, {"time": 2970, "pitch": 52, "duration": 8, "velocity": 88}, {"time": 2973, "pitch": 57, "duration": 5, "velocity": 82}, {"time": 2977, "pitch": 61, "duration": 2, "velocity": 81}, {"time": 2980, "pitch": 47, "duration": 8, "velocity": 93}, {"time": 2983, "pitch": 54, "duration": 6, "velocity": 80}, {"time": 2986, "pitch": 59, "duration": 3, "velocity": 89}, {"time": 2990, "pitch": 61, "duration": 5, "velocity": 76}, {"time": 2991, "pitch": 64, "duration": 7, "velocity": 83}, {"time": 2991, "pitch": 68, "duration": 8, "velocity": 74}, {"time": 2992, "pitch": 37, "duration": 13, "velocity": 94}, {"time": 2992, "pitch": 73, "duration": 7, "velocity": 89}, {"time": 2997, "pitch": 61, "duration": 5, "velocity": 85}, {"time": 3003, "pitch": 73, "duration": 4, "velocity": 97}, {"time": 3003, "pitch": 68, "duration": 5, "velocity": 95}, {"time": 3003, "pitch": 64, "duration": 5, "velocity": 97}, {"time": 3003, "pitch": 61, "duration": 1, "velocity": 73}, {"time": 3013, "pitch": 58, "duration": 24, "velocity": 77}, {"time": 3015, "pitch": 61, "duration": 23, "velocity": 81}, {"time": 3015, "pitch": 46, "duration": 37, "velocity": 91}, {"time": 3016, "pitch": 64, "duration": 23, "velocity": 77}, {"time": 3016, "pitch": 70, "duration": 23, "velocity": 81}, {"time": 3038, "pitch": 52, "duration": 14, "velocity": 72}, {"time": 3039, "pitch": 58, "duration": 22, "velocity": 76}, {"time": 3040, "pitch": 61, "duration": 21, "velocity": 88}, {"time": 3041, "pitch": 64, "duration": 20, "velocity": 72}, {"time": 3057, "pitch": 54, "duration": 7, "velocity": 79}, {"time": 3057, "pitch": 42, "duration": 10, "velocity": 84}, {"time": 3058, "pitch": 57, "duration": 6, "velocity": 77}, {"time": 3059, "pitch": 61, "duration": 2, "velocity": 60}, {"time": 3071, "pitch": 56, "duration": 19, "velocity": 58}, {"time": 3072, "pitch": 44, "duration": 13, "velocity": 84}, {"time": 3072, "pitch": 59, "duration": 8, "velocity": 79}, {"time": 3087, "pitch": 57, "duration": 29, "velocity": 74}, {"time": 3088, "pitch": 45, "duration": 20, "velocity": 79}, {"time": 3089, "pitch": 61, "duration": 28, "velocity": 77}, {"time": 3123, "pitch": 35, "duration": 19, "velocity": 58}, {"time": 3126, "pitch": 42, "duration": 14, "velocity": 73}, {"time": 3128, "pitch": 47, "duration": 9, "velocity": 67}, {"time": 3130, "pitch": 54, "duration": 9, "velocity": 51}, {"time": 3160, "pitch": 40, "duration": 38, "velocity": 77}, {"time": 3160, "pitch": 47, "duration": 38, "velocity": 83}, {"time": 3160, "pitch": 68, "duration": 5, "velocity": 83}, {"time": 3166, "pitch": 64, "duration": 2, "velocity": 79}, {"time": 3172, "pitch": 59, "duration": 2, "velocity": 82}, {"time": 3172, "pitch": 68, "duration": 2, "velocity": 81}, {"time": 3178, "pitch": 59, "duration": 2, "velocity": 82}, {"time": 3178, "pitch": 64, "duration": 2, "velocity": 84}, {"time": 3184, "pitch": 59, "duration": 1, "velocity": 87}, {"time": 3184, "pitch": 68, "duration": 1, "velocity": 87}, {"time": 3190, "pitch": 59, "duration": 2, "velocity": 69}, {"time": 3190, "pitch": 64, "duration": 2, "velocity": 69}, {"time": 3196, "pitch": 59, "duration": 4, "velocity": 81}, {"time": 3196, "pitch": 68, "duration": 3, "velocity": 83}, {"time": 3202, "pitch": 59, "duration": 3, "velocity": 34}, {"time": 3202, "pitch": 64, "duration": 4, "velocity": 83}, {"time": 3208, "pitch": 39, "duration": 40, "velocity": 84}, {"time": 3208, "pitch": 47, "duration": 40, "velocity": 83}, {"time": 3208, "pitch": 68, "duration": 6, "velocity": 86}, {"time": 3214, "pitch": 63, "duration": 3, "velocity": 89}, {"time": 3220, "pitch": 68, "duration": 2, "velocity": 91}, {"time": 3226, "pitch": 63, "duration": 3, "velocity": 88}, {"time": 3232, "pitch": 63, "duration": 2, "velocity": 88}, {"time": 3232, "pitch": 68, "duration": 2, "velocity": 86}, {"time": 3238, "pitch": 63, "duration": 2, "velocity": 82}, {"time": 3244, "pitch": 63, "duration": 2, "velocity": 88}, {"time": 3244, "pitch": 68, "duration": 3, "velocity": 90}, {"time": 3250, "pitch": 63, "duration": 3, "velocity": 89}, {"time": 3256, "pitch": 37, "duration": 37, "velocity": 88}, {"time": 3256, "pitch": 61, "duration": 2, "velocity": 82}, {"time": 3256, "pitch": 68, "duration": 6, "velocity": 85}, {"time": 3262, "pitch": 61, "duration": 3, "velocity": 77}, {"time": 3268, "pitch": 64, "duration": 3, "velocity": 89}, {"time": 3268, "pitch": 68, "duration": 3, "velocity": 90}, {"time": 3274, "pitch": 61, "duration": 3, "velocity": 76}, {"time": 3280, "pitch": 61, "duration": 2, "velocity": 84}, {"time": 3280, "pitch": 64, "duration": 3, "velocity": 90}, {"time": 3280, "pitch": 68, "duration": 3, "velocity": 89}, {"time": 3286, "pitch": 61, "duration": 2, "velocity": 74}, {"time": 3292, "pitch": 64, "duration": 6, "velocity": 89}, {"time": 3292, "pitch": 68, "duration": 7, "velocity": 89}, {"time": 3298, "pitch": 61, "duration": 2, "velocity": 85}, {"time": 3304, "pitch": 45, "duration": 36, "velocity": 88}, {"time": 3304, "pitch": 57, "duration": 3, "velocity": 80}, {"time": 3304, "pitch": 68, "duration": 3, "velocity": 82}, {"time": 3310, "pitch": 57, "duration": 3, "velocity": 70}, {"time": 3310, "pitch": 64, "duration": 3, "velocity": 74}, {"time": 3316, "pitch": 57, "duration": 2, "velocity": 81}, {"time": 3316, "pitch": 68, "duration": 2, "velocity": 87}, {"time": 3322, "pitch": 57, "duration": 3, "velocity": 68}, {"time": 3322, "pitch": 64, "duration": 3, "velocity": 55}, {"time": 3328, "pitch": 57, "duration": 3, "velocity": 82}, {"time": 3328, "pitch": 68, "duration": 3, "velocity": 85}, {"time": 3334, "pitch": 64, "duration": 3, "velocity": 80}, {"time": 3340, "pitch": 68, "duration": 12, "velocity": 88}, {"time": 3340, "pitch": 40, "duration": 30, "velocity": 75}, {"time": 3343, "pitch": 47, "duration": 26, "velocity": 67}, {"time": 3344, "pitch": 52, "duration": 31, "velocity": 73}, {"time": 3346, "pitch": 56, "duration": 29, "velocity": 76}, {"time": 3348, "pitch": 64, "duration": 28, "velocity": 62}, {"time": 3348, "pitch": 59, "duration": 27, "velocity": 46}], "annotations": [{"time": 16, "annotation": {"number": 64, "value": 127}, "group": "control_change"}, {"time": 63, "annotation": {"number": 64, "value": 0}, "group": "control_change"}, {"time": 66, "annotation": {"number": 64, "value": 127}, "group": "control_change"}, {"time": 112, "annotation": {"number": 64, "value": 0}, "group": "control_change"}, {"time": 114, "annotation": {"number": 64, "value": 127}, "group": "control_change"}, {"time": 160, "annotation": {"number": 64, "value": 127}, "group": "control_change"}, {"time": 203, "annotation": {"number": 64, "value": 0}, "group": "control_change"}, {"time": 208, "annotation": {"number": 64, "value": 127}, "group": "control_change"}, {"time": 255, "annotation": {"number": 64, "value": 0}, "group": "control_change"}, {"time": 257, "annotation": {"number": 64, "value": 127}, "group": "control_change"}, {"time": 302, "annotation": {"number": 64, "value": 0}, "group": "control_change"}, {"time": 304, "annotation": {"number": 64, "value": 127}, "group": "control_change"}, {"time": 350, "annotation": {"number": 64, "value": 0}, "group": "control_change"}, {"time": 352, "annotation": {"number": 64, "value": 127}, "group": "control_change"}, {"time": 398, "annotation": {"number": 64, "value": 0}, "group": "control_change"}, {"time": 400, "annotation": {"number": 64, "value": 127}, "group": "control_change"}, {"time": 423, "annotation": {"number": 64, "value": 0}, "group": "control_change"}, {"time": 425, "annotation": {"number": 64, "value": 127}, "group": "control_change"}, {"time": 445, "annotation": {"number": 64, "value": 0}, "group": "control_change"}, {"time": 448, "annotation": {"number": 64, "value": 127}, "group": "control_change"}, {"time": 470, "annotation": {"number": 64, "value": 0}, "group": "control_change"}, {"time": 473, "annotation": {"number": 64, "value": 127}, "group": "control_change"}, {"time": 495, "annotation": {"number": 64, "value": 0}, "group": "control_change"}, {"time": 496, "annotation": {"number": 64, "value": 127}, "group": "control_change"}, {"time": 546, "annotation": {"number": 64, "value": 0}, "group": "control_change"}, {"time": 548, "annotation": {"number": 64, "value": 127}, "group": "control_change"}, {"time": 590, "annotation": {"number": 64, "value": 0}, "group": "control_change"}, {"time": 592, "annotation": {"number": 64, "value": 127}, "group": "control_change"}, {"time": 639, "annotation": {"number": 64, "value": 0}, "group": "control_change"}, {"time": 641, "annotation": {"number": 64, "value": 127}, "group": "control_change"}, {"time": 686, "annotation": {"number": 64, "value": 0}, "group": "control_change"}, {"time": 688, "annotation": {"number": 64, "value": 127}, "group": "control_change"}, {"time": 734, "annotation": {"number": 64, "value": 0}, "group": "control_change"}, {"time": 736, "annotation": {"number": 64, "value": 127}, "group": "control_change"}, {"time": 782, "annotation": {"number": 64, "value": 0}, "group": "control_change"}, {"time": 784, "annotation": {"number": 64, "value": 127}, "group": "control_change"}, {"time": 807, "annotation": {"number": 64, "value": 0}, "group": "control_change"}, {"time": 809, "annotation": {"number": 64, "value": 127}, "group": "control_change"}, {"time": 829, "annotation": {"number": 64, "value": 0}, "group": "control_change"}, {"time": 832, "annotation": {"number": 64, "value": 127}, "group": "control_change"}, {"time": 854, "annotation": {"number": 64, "value": 0}, "group": "control_change"}, {"time": 857, "annotation": {"number": 64, "value": 127}, "group": "control_change"}, {"time": 879, "annotation": {"number": 64, "value": 0}, "group": "control_change"}, {"time": 880, "annotation": {"number": 64, "value": 127}, "group": "control_change"}, {"time": 930, "annotation": {"number": 64, "value": 0}, "group": "control_change"}, {"time": 932, "annotation": {"number": 64, "value": 127}, "group": "control_change"}, {"time": 974, "annotation": {"number": 64, "value": 0}, "group": "control_change"}, {"time": 976, "annotation": {"number": 64, "value": 127}, "group": "control_change"}, {"time": 999, "annotation": {"number": 64, "value": 0}, "group": "control_change"}, {"time": 1001, "annotation": {"number": 64, "value": 127}, "group": "control_change"}, {"time": 1022, "annotation": {"number": 64, "value": 0}, "group": "control_change"}, {"time": 1023, "annotation": {"number": 64, "value": 127}, "group": "control_change"}, {"time": 1046, "annotation": {"number": 64, "value": 0}, "group": "control_change"}, {"time": 1047, "annotation": {"number": 64, "value": 127}, "group": "control_change"}, {"time": 1072, "annotation": {"number": 64, "value": 0}, "group": "control_change"}, {"time": 1074, "annotation": {"number": 64, "value": 127}, "group": "control_change"}, {"time": 1095, "annotation": {"number": 64, "value": 0}, "group": "control_change"}, {"time": 1097, "annotation": {"number": 64, "value": 127}, "group": "control_change"}, {"time": 1118, "annotation": {"number": 64, "value": 0}, "group": "control_change"}, {"time": 1123, "annotation": {"number": 64, "value": 127}, "group": "control_change"}, {"time": 1143, "annotation": {"number": 64, "value": 0}, "group": "control_change"}, {"time": 1145, "annotation": {"number": 64, "value": 127}, "group": "control_change"}, {"time": 1166, "annotation": {"number": 64, "value": 0}, "group": "control_change"}, {"time": 1168, "annotation": {"number": 64, "value": 127}, "group": "control_change"}, {"time": 1190, "annotation": {"number": 64, "value": 0}, "group": "control_change"}, {"time": 1192, "annotation": {"number": 64, "value": 127}, "group": "control_change"}, {"time": 1214, "annotation": {"number": 64, "value": 0}, "group": "control_change"}, {"time": 1215, "annotation": {"number": 64, "value": 127}, "group": "control_change"}, {"time": 1239, "annotation": {"number": 64, "value": 0}, "group": "control_change"}, {"time": 1241, "annotation": {"number": 64, "value": 127}, "group": "control_change"}, {"time": 1263, "annotation": {"number": 64, "value": 0}, "group": "control_change"}, {"time": 1265, "annotation": {"number": 64, "value": 127}, "group": "control_change"}, {"time": 1287, "annotation": {"number": 64, "value": 0}, "group": "control_change"}, {"time": 1289, "annotation": {"number": 64, "value": 127}, "group": "control_change"}, {"time": 1311, "annotation": {"number": 64, "value": 0}, "group": "control_change"}, {"time": 1313, "annotation": {"number": 64, "value": 127}, "group": "control_change"}, {"time": 1335, "annotation": {"number": 64, "value": 0}, "group": "control_change"}, {"time": 1336, "annotation": {"number": 64, "value": 127}, "group": "control_change"}, {"time": 1358, "annotation": {"number": 64, "value": 0}, "group": "control_change"}, {"time": 1361, "annotation": {"number": 64, "value": 127}, "group": "control_change"}, {"time": 1408, "annotation": {"number": 64, "value": 0}, "group": "control_change"}, {"time": 1409, "annotation": {"number": 64, "value": 127}, "group": "control_change"}, {"time": 1432, "annotation": {"number": 64, "value": 0}, "group": "control_change"}, {"time": 1434, "annotation": {"number": 64, "value": 127}, "group": "control_change"}, {"time": 1456, "annotation": {"number": 64, "value": 0}, "group": "control_change"}, {"time": 1457, "annotation": {"number": 64, "value": 127}, "group": "control_change"}, {"time": 1503, "annotation": {"number": 64, "value": 127}, "group": "control_change"}, {"time": 1503, "annotation": {"number": 64, "value": 0}, "group": "control_change"}, {"time": 1527, "annotation": {"number": 64, "value": 0}, "group": "control_change"}, {"time": 1530, "annotation": {"number": 64, "value": 127}, "group": "control_change"}, {"time": 1549, "annotation": {"number": 64, "value": 0}, "group": "control_change"}, {"time": 1552, "annotation": {"number": 64, "value": 127}, "group": "control_change"}, {"time": 1599, "annotation": {"number": 64, "value": 0}, "group": "control_change"}, {"time": 1601, "annotation": {"number": 64, "value": 127}, "group": "control_change"}, {"time": 1646, "annotation": {"number": 64, "value": 0}, "group": "control_change"}, {"time": 1648, "annotation": {"number": 64, "value": 127}, "group": "control_change"}, {"time": 1694, "annotation": {"number": 64, "value": 0}, "group": "control_change"}, {"time": 1696, "annotation": {"number": 64, "value": 127}, "group": "control_change"}, {"time": 1742, "annotation": {"number": 64, "value": 0}, "group": "control_change"}, {"time": 1744, "annotation": {"number": 64, "value": 127}, "group": "control_change"}, {"time": 1767, "annotation": {"number": 64, "value": 0}, "group": "control_change"}, {"time": 1769, "annotation": {"number": 64, "value": 127}, "group": "control_change"}, {"time": 1789, "annotation": {"number": 64, "value": 0}, "group": "control_change"}, {"time": 1792, "annotation": {"number": 64, "value": 127}, "group": "control_change"}, {"time": 1814, "annotation": {"number": 64, "value": 0}, "group": "control_change"}, {"time": 1817, "annotation": {"number": 64, "value": 127}, "group": "control_change"}, {"time": 1839, "annotation": {"number": 64, "value": 0}, "group": "control_change"}, {"time": 1840, "annotation": {"number": 64, "value": 127}, "group": "control_change"}, {"time": 1890, "annotation": {"number": 64, "value": 0}, "group": "control_change"}, {"time": 1892, "annotation": {"number": 64, "value": 127}, "group": "control_change"}, {"time": 1934, "annotation": {"number": 64, "value": 0}, "group": "control_change"}, {"time": 1936, "annotation": {"number": 64, "value": 127}, "group": "control_change"}, {"time": 1959, "annotation": {"number": 64, "value": 0}, "group": "control_change"}, {"time": 1961, "annotation": {"number": 64, "value": 127}, "group": "control_change"}, {"time": 1982, "annotation": {"number": 64, "value": 0}, "group": "control_change"}, {"time": 1983, "annotation": {"number": 64, "value": 127}, "group": "control_change"}, {"time": 2006, "annotation": {"number": 64, "value": 0}, "group": "control_change"}, {"time": 2007, "annotation": {"number": 64, "value": 127}, "group": "control_change"}, {"time": 2032, "annotation": {"number": 64, "value": 0}, "group": "control_change"}, {"time": 2034, "annotation": {"number": 64, "value": 127}, "group": "control_change"}, {"time": 2055, "annotation": {"number": 64, "value": 0}, "group": "control_change"}, {"time": 2057, "annotation": {"number": 64, "value": 127}, "group": "control_change"}, {"time": 2078, "annotation": {"number": 64, "value": 0}, "group": "control_change"}, {"time": 2083, "annotation": {"number": 64, "value": 127}, "group": "control_change"}, {"time": 2103, "annotation": {"number": 64, "value": 0}, "group": "control_change"}, {"time": 2105, "annotation": {"number": 64, "value": 127}, "group": "control_change"}, {"time": 2126, "annotation": {"number": 64, "value": 0}, "group": "control_change"}, {"time": 2128, "annotation": {"number": 64, "value": 127}, "group": "control_change"}, {"time": 2150, "annotation": {"number": 64, "value": 0}, "group": "control_change"}, {"time": 2152, "annotation": {"number": 64, "value": 127}, "group": "control_change"}, {"time": 2174, "annotation": {"number": 64, "value": 0}, "group": "control_change"}, {"time": 2175, "annotation": {"number": 64, "value": 127}, "group": "control_change"}, {"time": 2199, "annotation": {"number": 64, "value": 0}, "group": "control_change"}, {"time": 2201, "annotation": {"number": 64, "value": 127}, "group": "control_change"}, {"time": 2223, "annotation": {"number": 64, "value": 0}, "group": "control_change"}, {"time": 2225, "annotation": {"number": 64, "value": 127}, "group": "control_change"}, {"time": 2247, "annotation": {"number": 64, "value": 0}, "group": "control_change"}, {"time": 2249, "annotation": {"number": 64, "value": 127}, "group": "control_change"}, {"time": 2271, "annotation": {"number": 64, "value": 0}, "group": "control_change"}, {"time": 2273, "annotation": {"number": 64, "value": 127}, "group": "control_change"}, {"time": 2295, "annotation": {"number": 64, "value": 0}, "group": "control_change"}, {"time": 2296, "annotation": {"number": 64, "value": 127}, "group": "control_change"}, {"time": 2318, "annotation": {"number": 64, "value": 0}, "group": "control_change"}, {"time": 2366, "annotation": {"number": 64, "value": 0}, "group": "control_change"}, {"time": 2368, "annotation": {"number": 64, "value": 127}, "group": "control_change"}, {"time": 2390, "annotation": {"number": 64, "value": 0}, "group": "control_change"}, {"time": 2391, "annotation": {"number": 64, "value": 127}, "group": "control_change"}, {"time": 2415, "annotation": {"number": 64, "value": 0}, "group": "control_change"}, {"time": 2416, "annotation": {"number": 64, "value": 127}, "group": "control_change"}, {"time": 2427, "annotation": {"number": 64, "value": 0}, "group": "control_change"}, {"time": 2429, "annotation": {"number": 64, "value": 127}, "group": "control_change"}, {"time": 2440, "annotation": {"number": 64, "value": 0}, "group": "control_change"}, {"time": 2442, "annotation": {"number": 64, "value": 127}, "group": "control_change"}, {"time": 2462, "annotation": {"number": 64, "value": 0}, "group": "control_change"}, {"time": 2464, "annotation": {"number": 64, "value": 127}, "group": "control_change"}, {"time": 2487, "annotation": {"number": 64, "value": 0}, "group": "control_change"}, {"time": 2488, "annotation": {"number": 64, "value": 127}, "group": "control_change"}, {"time": 2507, "annotation": {"number": 64, "value": 0}, "group": "control_change"}, {"time": 2511, "annotation": {"number": 64, "value": 127}, "group": "control_change"}, {"time": 2522, "annotation": {"number": 64, "value": 0}, "group": "control_change"}, {"time": 2523, "annotation": {"number": 64, "value": 127}, "group": "control_change"}, {"time": 2533, "annotation": {"number": 64, "value": 0}, "group": "control_change"}, {"time": 2535, "annotation": {"number": 64, "value": 127}, "group": "control_change"}, {"time": 2545, "annotation": {"number": 64, "value": 0}, "group": "control_change"}, {"time": 2547, "annotation": {"number": 64, "value": 127}, "group": "control_change"}, {"time": 2555, "annotation": {"number": 64, "value": 0}, "group": "control_change"}, {"time": 2557, "annotation": {"number": 64, "value": 127}, "group": "control_change"}, {"time": 2588, "annotation": {"number": 64, "value": 0}, "group": "control_change"}, {"time": 2608, "annotation": {"number": 64, "value": 127}, "group": "control_change"}, {"time": 2631, "annotation": {"number": 64, "value": 0}, "group": "control_change"}, {"time": 2633, "annotation": {"number": 64, "value": 127}, "group": "control_change"}, {"time": 2654, "annotation": {"number": 64, "value": 0}, "group": "control_change"}, {"time": 2655, "annotation": {"number": 64, "value": 127}, "group": "control_change"}, {"time": 2678, "annotation": {"number": 64, "value": 0}, "group": "control_change"}, {"time": 2679, "annotation": {"number": 64, "value": 127}, "group": "control_change"}, {"time": 2704, "annotation": {"number": 64, "value": 0}, "group": "control_change"}, {"time": 2706, "annotation": {"number": 64, "value": 127}, "group": "control_change"}, {"time": 2727, "annotation": {"number": 64, "value": 0}, "group": "control_change"}, {"time": 2729, "annotation": {"number": 64, "value": 127}, "group": "control_change"}, {"time": 2750, "annotation": {"number": 64, "value": 0}, "group": "control_change"}, {"time": 2755, "annotation": {"number": 64, "value": 127}, "group": "control_change"}, {"time": 2775, "annotation": {"number": 64, "value": 0}, "group": "control_change"}, {"time": 2777, "annotation": {"number": 64, "value": 127}, "group": "control_change"}, {"time": 2798, "annotation": {"number": 64, "value": 0}, "group": "control_change"}, {"time": 2800, "annotation": {"number": 64, "value": 127}, "group": "control_change"}, {"time": 2822, "annotation": {"number": 64, "value": 0}, "group": "control_change"}, {"time": 2824, "annotation": {"number": 64, "value": 127}, "group": "control_change"}, {"time": 2846, "annotation": {"number": 64, "value": 0}, "group": "control_change"}, {"time": 2847, "annotation": {"number": 64, "value": 127}, "group": "control_change"}, {"time": 2871, "annotation": {"number": 64, "value": 0}, "group": "control_change"}, {"time": 2873, "annotation": {"number": 64, "value": 127}, "group": "control_change"}, {"time": 2895, "annotation": {"number": 64, "value": 0}, "group": "control_change"}, {"time": 2897, "annotation": {"number": 64, "value": 127}, "group": "control_change"}, {"time": 2919, "annotation": {"number": 64, "value": 0}, "group": "control_change"}, {"time": 2921, "annotation": {"number": 64, "value": 127}, "group": "control_change"}, {"time": 2942, "annotation": {"number": 64, "value": 127}, "group": "control_change"}, {"time": 2943, "annotation": {"number": 64, "value": 0}, "group": "control_change"}, {"time": 2955, "annotation": {"number": 64, "value": 0}, "group": "control_change"}, {"time": 2956, "annotation": {"number": 64, "value": 127}, "group": "control_change"}, {"time": 2967, "annotation": {"number": 64, "value": 0}, "group": "control_change"}, {"time": 2968, "annotation": {"number": 64, "value": 127}, "group": "control_change"}, {"time": 2980, "annotation": {"number": 64, "value": 0}, "group": "control_change"}, {"time": 2982, "annotation": {"number": 64, "value": 127}, "group": "control_change"}, {"time": 2990, "annotation": {"number": 64, "value": 0}, "group": "control_change"}, {"time": 2992, "annotation": {"number": 64, "value": 127}, "group": "control_change"}, {"time": 3014, "annotation": {"number": 64, "value": 0}, "group": "control_change"}, {"time": 3018, "annotation": {"number": 64, "value": 127}, "group": "control_change"}, {"time": 3060, "annotation": {"number": 64, "value": 127}, "group": "control_change"}, {"time": 3064, "annotation": {"number": 64, "value": 0}, "group": "control_change"}, {"time": 3069, "annotation": {"number": 64, "value": 0}, "group": "control_change"}, {"time": 3074, "annotation": {"number": 64, "value": 127}, "group": "control_change"}, {"time": 3088, "annotation": {"number": 64, "value": 0}, "group": "control_change"}, {"time": 3090, "annotation": {"number": 64, "value": 127}, "group": "control_change"}, {"time": 3147, "annotation": {"number": 64, "value": 0}, "group": "control_change"}, {"time": 3160, "annotation": {"number": 64, "value": 127}, "group": "control_change"}, {"time": 3207, "annotation": {"number": 64, "value": 0}, "group": "control_change"}, {"time": 3210, "annotation": {"number": 64, "value": 127}, "group": "control_change"}, {"time": 3256, "annotation": {"number": 64, "value": 0}, "group": "control_change"}, {"time": 3258, "annotation": {"number": 64, "value": 127}, "group": "control_change"}, {"time": 3304, "annotation": {"number": 64, "value": 127}, "group": "control_change"}, {"time": 3347, "annotation": {"number": 64, "value": 0}, "group": "control_change"}]}]}