{"metadata": {"schema_version": "0.2", "title": "None", "source_filename": "422.mid", "source_format": "midi"}, "resolution": 12, "tempos": [{"time": 0, "qpm": 70.00007000007}], "time_signatures": [{"time": 0, "numerator": 1, "denominator": 4}], "tracks": [{"program": 0, "is_drum": false, "name": "MELODY", "notes": [{"time": 235, "pitch": 65, "duration": 4, "velocity": 93}, {"time": 241, "pitch": 65, "duration": 2, "velocity": 83}, {"time": 244, "pitch": 65, "duration": 4, "velocity": 86}, {"time": 250, "pitch": 68, "duration": 6, "velocity": 84}, {"time": 259, "pitch": 68, "duration": 4, "velocity": 84}, {"time": 265, "pitch": 66, "duration": 2, "velocity": 82}, {"time": 268, "pitch": 66, "duration": 8, "velocity": 83}, {"time": 283, "pitch": 63, "duration": 4, "velocity": 84}, {"time": 289, "pitch": 63, "duration": 2, "velocity": 82}, {"time": 292, "pitch": 63, "duration": 4, "velocity": 83}, {"time": 298, "pitch": 66, "duration": 4, "velocity": 84}, {"time": 307, "pitch": 66, "duration": 6, "velocity": 84}, {"time": 313, "pitch": 65, "duration": 2, "velocity": 86}, {"time": 316, "pitch": 65, "duration": 9, "velocity": 84}, {"time": 331, "pitch": 61, "duration": 4, "velocity": 85}, {"time": 337, "pitch": 61, "duration": 2, "velocity": 82}, {"time": 340, "pitch": 61, "duration": 4, "velocity": 83}, {"time": 346, "pitch": 65, "duration": 7, "velocity": 83}, {"time": 355, "pitch": 65, "duration": 4, "velocity": 86}, {"time": 361, "pitch": 63, "duration": 2, "velocity": 82}, {"time": 364, "pitch": 63, "duration": 8, "velocity": 84}, {"time": 376, "pitch": 58, "duration": 2, "velocity": 82}, {"time": 379, "pitch": 61, "duration": 4, "velocity": 84}, {"time": 385, "pitch": 61, "duration": 2, "velocity": 80}, {"time": 388, "pitch": 61, "duration": 5, "velocity": 83}, {"time": 394, "pitch": 63, "duration": 6, "velocity": 83}, {"time": 400, "pitch": 63, "duration": 15, "velocity": 82}, {"time": 409, "pitch": 61, "duration": 2, "velocity": 76}, {"time": 412, "pitch": 56, "duration": 2, "velocity": 78}, {"time": 415, "pitch": 65, "duration": 4, "velocity": 82}, {"time": 421, "pitch": 65, "duration": 4, "velocity": 83}, {"time": 427, "pitch": 65, "duration": 4, "velocity": 93}, {"time": 433, "pitch": 65, "duration": 2, "velocity": 83}, {"time": 436, "pitch": 65, "duration": 4, "velocity": 86}, {"time": 442, "pitch": 68, "duration": 6, "velocity": 84}, {"time": 451, "pitch": 68, "duration": 4, "velocity": 84}, {"time": 457, "pitch": 66, "duration": 2, "velocity": 82}, {"time": 460, "pitch": 66, "duration": 8, "velocity": 83}, {"time": 475, "pitch": 63, "duration": 4, "velocity": 84}, {"time": 481, "pitch": 63, "duration": 2, "velocity": 82}, {"time": 484, "pitch": 63, "duration": 4, "velocity": 83}, {"time": 490, "pitch": 66, "duration": 4, "velocity": 84}, {"time": 499, "pitch": 66, "duration": 6, "velocity": 84}, {"time": 505, "pitch": 65, "duration": 2, "velocity": 86}, {"time": 508, "pitch": 65, "duration": 9, "velocity": 84}, {"time": 523, "pitch": 61, "duration": 4, "velocity": 85}, {"time": 529, "pitch": 61, "duration": 2, "velocity": 82}, {"time": 532, "pitch": 61, "duration": 4, "velocity": 83}, {"time": 538, "pitch": 65, "duration": 7, "velocity": 83}, {"time": 547, "pitch": 65, "duration": 4, "velocity": 86}, {"time": 553, "pitch": 63, "duration": 2, "velocity": 82}, {"time": 556, "pitch": 63, "duration": 8, "velocity": 84}, {"time": 568, "pitch": 58, "duration": 2, "velocity": 82}, {"time": 571, "pitch": 61, "duration": 4, "velocity": 84}, {"time": 577, "pitch": 61, "duration": 2, "velocity": 80}, {"time": 580, "pitch": 65, "duration": 5, "velocity": 83}, {"time": 586, "pitch": 63, "duration": 6, "velocity": 83}, {"time": 592, "pitch": 61, "duration": 15, "velocity": 82}, {"time": 610, "pitch": 70, "duration": 1, "velocity": 82}, {"time": 613, "pitch": 70, "duration": 3, "velocity": 83}, {"time": 616, "pitch": 69, "duration": 2, "velocity": 82}, {"time": 619, "pitch": 70, "duration": 1, "velocity": 79}, {"time": 622, "pitch": 70, "duration": 2, "velocity": 80}, {"time": 625, "pitch": 70, "duration": 2, "velocity": 82}, {"time": 628, "pitch": 68, "duration": 2, "velocity": 81}, {"time": 631, "pitch": 70, "duration": 2, "velocity": 83}, {"time": 634, "pitch": 70, "duration": 1, "velocity": 80}, {"time": 637, "pitch": 70, "duration": 2, "velocity": 83}, {"time": 640, "pitch": 68, "duration": 2, "velocity": 82}, {"time": 643, "pitch": 70, "duration": 4, "velocity": 82}, {"time": 649, "pitch": 68, "duration": 2, "velocity": 81}, {"time": 652, "pitch": 73, "duration": 4, "velocity": 83}, {"time": 658, "pitch": 70, "duration": 6, "velocity": 85}, {"time": 670, "pitch": 70, "duration": 1, "velocity": 84}, {"time": 673, "pitch": 70, "duration": 2, "velocity": 79}, {"time": 676, "pitch": 68, "duration": 2, "velocity": 71}, {"time": 679, "pitch": 70, "duration": 2, "velocity": 82}, {"time": 682, "pitch": 70, "duration": 1, "velocity": 78}, {"time": 685, "pitch": 70, "duration": 2, "velocity": 80}, {"time": 688, "pitch": 68, "duration": 1, "velocity": 80}, {"time": 691, "pitch": 70, "duration": 2, "velocity": 83}, {"time": 694, "pitch": 70, "duration": 2, "velocity": 78}, {"time": 697, "pitch": 68, "duration": 2, "velocity": 78}, {"time": 700, "pitch": 65, "duration": 3, "velocity": 86}, {"time": 706, "pitch": 70, "duration": 2, "velocity": 82}, {"time": 709, "pitch": 70, "duration": 2, "velocity": 81}, {"time": 712, "pitch": 68, "duration": 2, "velocity": 81}, {"time": 715, "pitch": 70, "duration": 2, "velocity": 86}, {"time": 718, "pitch": 70, "duration": 4, "velocity": 82}, {"time": 724, "pitch": 70, "duration": 2, "velocity": 85}, {"time": 727, "pitch": 70, "duration": 2, "velocity": 82}, {"time": 730, "pitch": 70, "duration": 2, "velocity": 81}, {"time": 733, "pitch": 70, "duration": 2, "velocity": 82}, {"time": 736, "pitch": 68, "duration": 2, "velocity": 78}, {"time": 739, "pitch": 70, "duration": 3, "velocity": 84}, {"time": 745, "pitch": 68, "duration": 2, "velocity": 83}, {"time": 748, "pitch": 73, "duration": 5, "velocity": 88}, {"time": 754, "pitch": 70, "duration": 6, "velocity": 83}, {"time": 760, "pitch": 68, "duration": 2, "velocity": 75}, {"time": 763, "pitch": 68, "duration": 2, "velocity": 79}, {"time": 766, "pitch": 70, "duration": 2, "velocity": 82}, {"time": 769, "pitch": 73, "duration": 2, "velocity": 81}, {"time": 772, "pitch": 75, "duration": 2, "velocity": 83}, {"time": 775, "pitch": 77, "duration": 7, "velocity": 84}, {"time": 784, "pitch": 75, "duration": 5, "velocity": 84}, {"time": 790, "pitch": 73, "duration": 2, "velocity": 79}, {"time": 793, "pitch": 70, "duration": 6, "velocity": 80}, {"time": 802, "pitch": 70, "duration": 1, "velocity": 81}, {"time": 805, "pitch": 70, "duration": 2, "velocity": 83}, {"time": 808, "pitch": 68, "duration": 2, "velocity": 77}, {"time": 811, "pitch": 70, "duration": 2, "velocity": 84}, {"time": 814, "pitch": 68, "duration": 2, "velocity": 82}, {"time": 817, "pitch": 70, "duration": 3, "velocity": 80}, {"time": 823, "pitch": 70, "duration": 2, "velocity": 83}, {"time": 826, "pitch": 68, "duration": 2, "velocity": 82}, {"time": 829, "pitch": 70, "duration": 3, "velocity": 84}, {"time": 835, "pitch": 70, "duration": 2, "velocity": 83}, {"time": 838, "pitch": 68, "duration": 2, "velocity": 80}, {"time": 841, "pitch": 70, "duration": 3, "velocity": 82}, {"time": 847, "pitch": 70, "duration": 2, "velocity": 77}, {"time": 850, "pitch": 68, "duration": 1, "velocity": 81}, {"time": 853, "pitch": 70, "duration": 3, "velocity": 83}, {"time": 859, "pitch": 70, "duration": 2, "velocity": 85}, {"time": 862, "pitch": 68, "duration": 1, "velocity": 78}, {"time": 865, "pitch": 70, "duration": 3, "velocity": 85}, {"time": 871, "pitch": 70, "duration": 2, "velocity": 82}, {"time": 874, "pitch": 68, "duration": 2, "velocity": 83}, {"time": 877, "pitch": 70, "duration": 2, "velocity": 81}, {"time": 883, "pitch": 70, "duration": 2, "velocity": 84}, {"time": 886, "pitch": 68, "duration": 2, "velocity": 81}, {"time": 889, "pitch": 70, "duration": 3, "velocity": 84}, {"time": 892, "pitch": 68, "duration": 2, "velocity": 78}, {"time": 895, "pitch": 70, "duration": 1, "velocity": 83}, {"time": 898, "pitch": 68, "duration": 1, "velocity": 78}, {"time": 901, "pitch": 70, "duration": 1, "velocity": 83}, {"time": 904, "pitch": 70, "duration": 2, "velocity": 82}, {"time": 907, "pitch": 73, "duration": 4, "velocity": 87}, {"time": 913, "pitch": 70, "duration": 3, "velocity": 86}, {"time": 916, "pitch": 73, "duration": 5, "velocity": 73}, {"time": 925, "pitch": 75, "duration": 1, "velocity": 82}, {"time": 928, "pitch": 75, "duration": 9, "velocity": 93}, {"time": 937, "pitch": 73, "duration": 2, "velocity": 83}, {"time": 940, "pitch": 73, "duration": 7, "velocity": 83}, {"time": 946, "pitch": 75, "duration": 6, "velocity": 89}, {"time": 955, "pitch": 77, "duration": 30, "velocity": 86}, {"time": 1003, "pitch": 77, "duration": 3, "velocity": 76}, {"time": 1009, "pitch": 77, "duration": 2, "velocity": 84}, {"time": 1012, "pitch": 77, "duration": 4, "velocity": 87}, {"time": 1018, "pitch": 78, "duration": 8, "velocity": 85}, {"time": 1027, "pitch": 77, "duration": 4, "velocity": 84}, {"time": 1033, "pitch": 75, "duration": 1, "velocity": 83}, {"time": 1036, "pitch": 75, "duration": 5, "velocity": 93}, {"time": 1045, "pitch": 72, "duration": 2, "velocity": 87}, {"time": 1048, "pitch": 70, "duration": 1, "velocity": 88}, {"time": 1051, "pitch": 68, "duration": 4, "velocity": 84}, {"time": 1057, "pitch": 68, "duration": 2, "velocity": 82}, {"time": 1060, "pitch": 75, "duration": 8, "velocity": 87}, {"time": 1069, "pitch": 77, "duration": 4, "velocity": 84}, {"time": 1075, "pitch": 75, "duration": 5, "velocity": 93}, {"time": 1081, "pitch": 73, "duration": 1, "velocity": 83}, {"time": 1084, "pitch": 73, "duration": 4, "velocity": 83}, {"time": 1099, "pitch": 70, "duration": 4, "velocity": 85}, {"time": 1105, "pitch": 72, "duration": 2, "velocity": 84}, {"time": 1108, "pitch": 73, "duration": 8, "velocity": 83}, {"time": 1120, "pitch": 73, "duration": 1, "velocity": 84}, {"time": 1123, "pitch": 73, "duration": 4, "velocity": 85}, {"time": 1129, "pitch": 72, "duration": 5, "velocity": 87}, {"time": 1135, "pitch": 70, "duration": 5, "velocity": 84}, {"time": 1141, "pitch": 72, "duration": 4, "velocity": 85}, {"time": 1147, "pitch": 70, "duration": 11, "velocity": 84}, {"time": 1159, "pitch": 68, "duration": 9, "velocity": 83}, {"time": 1171, "pitch": 78, "duration": 10, "velocity": 74}, {"time": 1183, "pitch": 77, "duration": 8, "velocity": 89}, {"time": 1195, "pitch": 77, "duration": 4, "velocity": 88}, {"time": 1201, "pitch": 77, "duration": 2, "velocity": 86}, {"time": 1204, "pitch": 77, "duration": 4, "velocity": 87}, {"time": 1210, "pitch": 82, "duration": 7, "velocity": 86}, {"time": 1219, "pitch": 82, "duration": 5, "velocity": 83}, {"time": 1225, "pitch": 80, "duration": 2, "velocity": 82}, {"time": 1228, "pitch": 80, "duration": 8, "velocity": 83}, {"time": 1237, "pitch": 72, "duration": 2, "velocity": 83}, {"time": 1240, "pitch": 73, "duration": 1, "velocity": 85}, {"time": 1243, "pitch": 75, "duration": 4, "velocity": 89}, {"time": 1249, "pitch": 68, "duration": 1, "velocity": 84}, {"time": 1252, "pitch": 68, "duration": 5, "velocity": 85}, {"time": 1258, "pitch": 80, "duration": 7, "velocity": 85}, {"time": 1267, "pitch": 78, "duration": 13, "velocity": 83}, {"time": 1291, "pitch": 70, "duration": 5, "velocity": 86}, {"time": 1297, "pitch": 72, "duration": 2, "velocity": 84}, {"time": 1300, "pitch": 73, "duration": 9, "velocity": 83}, {"time": 1312, "pitch": 73, "duration": 2, "velocity": 80}, {"time": 1315, "pitch": 77, "duration": 4, "velocity": 88}, {"time": 1321, "pitch": 75, "duration": 4, "velocity": 87}, {"time": 1327, "pitch": 70, "duration": 5, "velocity": 84}, {"time": 1333, "pitch": 72, "duration": 5, "velocity": 84}, {"time": 1339, "pitch": 73, "duration": 20, "velocity": 83}, {"time": 1531, "pitch": 65, "duration": 4, "velocity": 93}, {"time": 1537, "pitch": 65, "duration": 2, "velocity": 83}, {"time": 1540, "pitch": 65, "duration": 4, "velocity": 86}, {"time": 1546, "pitch": 68, "duration": 6, "velocity": 84}, {"time": 1555, "pitch": 68, "duration": 4, "velocity": 84}, {"time": 1561, "pitch": 66, "duration": 2, "velocity": 82}, {"time": 1564, "pitch": 66, "duration": 8, "velocity": 83}, {"time": 1579, "pitch": 63, "duration": 4, "velocity": 84}, {"time": 1585, "pitch": 63, "duration": 2, "velocity": 82}, {"time": 1588, "pitch": 63, "duration": 4, "velocity": 83}, {"time": 1594, "pitch": 66, "duration": 4, "velocity": 84}, {"time": 1603, "pitch": 66, "duration": 6, "velocity": 84}, {"time": 1609, "pitch": 65, "duration": 2, "velocity": 86}, {"time": 1612, "pitch": 65, "duration": 9, "velocity": 84}, {"time": 1627, "pitch": 61, "duration": 4, "velocity": 85}, {"time": 1633, "pitch": 61, "duration": 2, "velocity": 82}, {"time": 1636, "pitch": 61, "duration": 4, "velocity": 83}, {"time": 1642, "pitch": 65, "duration": 7, "velocity": 83}, {"time": 1651, "pitch": 65, "duration": 4, "velocity": 86}, {"time": 1657, "pitch": 63, "duration": 2, "velocity": 82}, {"time": 1660, "pitch": 63, "duration": 8, "velocity": 84}, {"time": 1672, "pitch": 58, "duration": 2, "velocity": 82}, {"time": 1675, "pitch": 61, "duration": 4, "velocity": 84}, {"time": 1681, "pitch": 61, "duration": 2, "velocity": 80}, {"time": 1684, "pitch": 61, "duration": 5, "velocity": 83}, {"time": 1690, "pitch": 63, "duration": 6, "velocity": 83}, {"time": 1696, "pitch": 63, "duration": 15, "velocity": 82}, {"time": 1705, "pitch": 61, "duration": 2, "velocity": 76}, {"time": 1708, "pitch": 56, "duration": 2, "velocity": 78}, {"time": 1711, "pitch": 65, "duration": 4, "velocity": 82}, {"time": 1717, "pitch": 65, "duration": 4, "velocity": 83}, {"time": 1723, "pitch": 65, "duration": 4, "velocity": 93}, {"time": 1729, "pitch": 65, "duration": 2, "velocity": 83}, {"time": 1732, "pitch": 65, "duration": 4, "velocity": 86}, {"time": 1738, "pitch": 68, "duration": 6, "velocity": 84}, {"time": 1747, "pitch": 68, "duration": 4, "velocity": 84}, {"time": 1753, "pitch": 66, "duration": 2, "velocity": 82}, {"time": 1756, "pitch": 66, "duration": 8, "velocity": 83}, {"time": 1771, "pitch": 63, "duration": 4, "velocity": 84}, {"time": 1777, "pitch": 63, "duration": 2, "velocity": 82}, {"time": 1780, "pitch": 63, "duration": 4, "velocity": 83}, {"time": 1786, "pitch": 66, "duration": 4, "velocity": 84}, {"time": 1795, "pitch": 66, "duration": 6, "velocity": 84}, {"time": 1801, "pitch": 65, "duration": 2, "velocity": 86}, {"time": 1804, "pitch": 65, "duration": 9, "velocity": 84}, {"time": 1819, "pitch": 61, "duration": 4, "velocity": 85}, {"time": 1825, "pitch": 61, "duration": 2, "velocity": 82}, {"time": 1828, "pitch": 61, "duration": 4, "velocity": 83}, {"time": 1834, "pitch": 65, "duration": 7, "velocity": 83}, {"time": 1843, "pitch": 65, "duration": 4, "velocity": 86}, {"time": 1849, "pitch": 63, "duration": 2, "velocity": 82}, {"time": 1852, "pitch": 63, "duration": 8, "velocity": 84}, {"time": 1864, "pitch": 58, "duration": 2, "velocity": 82}, {"time": 1867, "pitch": 61, "duration": 4, "velocity": 84}, {"time": 1873, "pitch": 61, "duration": 2, "velocity": 80}, {"time": 1876, "pitch": 65, "duration": 5, "velocity": 83}, {"time": 1882, "pitch": 63, "duration": 6, "velocity": 83}, {"time": 1888, "pitch": 61, "duration": 15, "velocity": 82}, {"time": 1906, "pitch": 70, "duration": 1, "velocity": 82}, {"time": 1909, "pitch": 70, "duration": 3, "velocity": 83}, {"time": 1912, "pitch": 69, "duration": 2, "velocity": 82}, {"time": 1915, "pitch": 70, "duration": 1, "velocity": 79}, {"time": 1918, "pitch": 70, "duration": 2, "velocity": 80}, {"time": 1921, "pitch": 70, "duration": 2, "velocity": 82}, {"time": 1924, "pitch": 68, "duration": 2, "velocity": 81}, {"time": 1927, "pitch": 70, "duration": 2, "velocity": 83}, {"time": 1930, "pitch": 70, "duration": 1, "velocity": 80}, {"time": 1933, "pitch": 70, "duration": 2, "velocity": 83}, {"time": 1936, "pitch": 68, "duration": 2, "velocity": 82}, {"time": 1939, "pitch": 70, "duration": 4, "velocity": 82}, {"time": 1945, "pitch": 68, "duration": 2, "velocity": 81}, {"time": 1948, "pitch": 73, "duration": 4, "velocity": 83}, {"time": 1954, "pitch": 70, "duration": 6, "velocity": 85}, {"time": 1966, "pitch": 70, "duration": 1, "velocity": 84}, {"time": 1969, "pitch": 70, "duration": 2, "velocity": 79}, {"time": 1972, "pitch": 68, "duration": 2, "velocity": 71}, {"time": 1975, "pitch": 70, "duration": 2, "velocity": 82}, {"time": 1978, "pitch": 70, "duration": 1, "velocity": 78}, {"time": 1981, "pitch": 70, "duration": 2, "velocity": 80}, {"time": 1984, "pitch": 68, "duration": 1, "velocity": 80}, {"time": 1987, "pitch": 70, "duration": 2, "velocity": 83}, {"time": 1990, "pitch": 70, "duration": 2, "velocity": 78}, {"time": 1993, "pitch": 68, "duration": 2, "velocity": 78}, {"time": 1996, "pitch": 65, "duration": 3, "velocity": 86}, {"time": 2002, "pitch": 70, "duration": 2, "velocity": 82}, {"time": 2005, "pitch": 70, "duration": 2, "velocity": 81}, {"time": 2008, "pitch": 68, "duration": 2, "velocity": 81}, {"time": 2011, "pitch": 70, "duration": 2, "velocity": 86}, {"time": 2014, "pitch": 70, "duration": 4, "velocity": 82}, {"time": 2020, "pitch": 70, "duration": 2, "velocity": 85}, {"time": 2023, "pitch": 70, "duration": 2, "velocity": 82}, {"time": 2026, "pitch": 70, "duration": 2, "velocity": 81}, {"time": 2029, "pitch": 70, "duration": 2, "velocity": 82}, {"time": 2032, "pitch": 68, "duration": 2, "velocity": 78}, {"time": 2035, "pitch": 70, "duration": 3, "velocity": 84}, {"time": 2041, "pitch": 68, "duration": 2, "velocity": 83}, {"time": 2044, "pitch": 73, "duration": 5, "velocity": 88}, {"time": 2050, "pitch": 70, "duration": 6, "velocity": 83}, {"time": 2056, "pitch": 68, "duration": 2, "velocity": 75}, {"time": 2059, "pitch": 68, "duration": 2, "velocity": 79}, {"time": 2062, "pitch": 70, "duration": 2, "velocity": 82}, {"time": 2065, "pitch": 73, "duration": 2, "velocity": 81}, {"time": 2068, "pitch": 75, "duration": 2, "velocity": 83}, {"time": 2071, "pitch": 77, "duration": 7, "velocity": 84}, {"time": 2080, "pitch": 75, "duration": 5, "velocity": 84}, {"time": 2086, "pitch": 73, "duration": 2, "velocity": 79}, {"time": 2089, "pitch": 70, "duration": 6, "velocity": 80}, {"time": 2098, "pitch": 70, "duration": 1, "velocity": 81}, {"time": 2101, "pitch": 70, "duration": 2, "velocity": 83}, {"time": 2104, "pitch": 68, "duration": 2, "velocity": 77}, {"time": 2107, "pitch": 70, "duration": 2, "velocity": 84}, {"time": 2110, "pitch": 68, "duration": 2, "velocity": 82}, {"time": 2113, "pitch": 70, "duration": 3, "velocity": 80}, {"time": 2119, "pitch": 70, "duration": 2, "velocity": 83}, {"time": 2122, "pitch": 68, "duration": 2, "velocity": 82}, {"time": 2125, "pitch": 70, "duration": 3, "velocity": 84}, {"time": 2131, "pitch": 70, "duration": 2, "velocity": 83}, {"time": 2134, "pitch": 68, "duration": 2, "velocity": 80}, {"time": 2137, "pitch": 70, "duration": 3, "velocity": 82}, {"time": 2143, "pitch": 70, "duration": 2, "velocity": 77}, {"time": 2146, "pitch": 68, "duration": 1, "velocity": 81}, {"time": 2149, "pitch": 70, "duration": 3, "velocity": 83}, {"time": 2155, "pitch": 70, "duration": 2, "velocity": 85}, {"time": 2158, "pitch": 68, "duration": 1, "velocity": 78}, {"time": 2161, "pitch": 70, "duration": 3, "velocity": 85}, {"time": 2167, "pitch": 70, "duration": 2, "velocity": 82}, {"time": 2170, "pitch": 68, "duration": 2, "velocity": 83}, {"time": 2173, "pitch": 70, "duration": 2, "velocity": 81}, {"time": 2179, "pitch": 70, "duration": 2, "velocity": 84}, {"time": 2182, "pitch": 68, "duration": 2, "velocity": 81}, {"time": 2185, "pitch": 70, "duration": 3, "velocity": 84}, {"time": 2188, "pitch": 68, "duration": 2, "velocity": 78}, {"time": 2191, "pitch": 70, "duration": 1, "velocity": 83}, {"time": 2194, "pitch": 68, "duration": 1, "velocity": 78}, {"time": 2197, "pitch": 70, "duration": 1, "velocity": 83}, {"time": 2200, "pitch": 70, "duration": 2, "velocity": 82}, {"time": 2203, "pitch": 73, "duration": 4, "velocity": 87}, {"time": 2209, "pitch": 70, "duration": 3, "velocity": 86}, {"time": 2212, "pitch": 73, "duration": 5, "velocity": 73}, {"time": 2221, "pitch": 75, "duration": 1, "velocity": 82}, {"time": 2224, "pitch": 75, "duration": 9, "velocity": 93}, {"time": 2233, "pitch": 73, "duration": 2, "velocity": 83}, {"time": 2236, "pitch": 73, "duration": 7, "velocity": 83}, {"time": 2242, "pitch": 75, "duration": 6, "velocity": 89}, {"time": 2251, "pitch": 77, "duration": 30, "velocity": 86}, {"time": 2299, "pitch": 77, "duration": 3, "velocity": 76}, {"time": 2305, "pitch": 77, "duration": 2, "velocity": 84}, {"time": 2308, "pitch": 77, "duration": 4, "velocity": 87}, {"time": 2314, "pitch": 78, "duration": 8, "velocity": 85}, {"time": 2323, "pitch": 77, "duration": 4, "velocity": 84}, {"time": 2329, "pitch": 75, "duration": 1, "velocity": 83}, {"time": 2332, "pitch": 75, "duration": 5, "velocity": 93}, {"time": 2341, "pitch": 72, "duration": 2, "velocity": 87}, {"time": 2344, "pitch": 70, "duration": 1, "velocity": 88}, {"time": 2347, "pitch": 68, "duration": 4, "velocity": 84}, {"time": 2353, "pitch": 68, "duration": 2, "velocity": 82}, {"time": 2356, "pitch": 75, "duration": 8, "velocity": 87}, {"time": 2365, "pitch": 77, "duration": 4, "velocity": 84}, {"time": 2371, "pitch": 75, "duration": 5, "velocity": 93}, {"time": 2377, "pitch": 73, "duration": 1, "velocity": 83}, {"time": 2380, "pitch": 73, "duration": 4, "velocity": 83}, {"time": 2395, "pitch": 70, "duration": 4, "velocity": 85}, {"time": 2401, "pitch": 72, "duration": 2, "velocity": 84}, {"time": 2404, "pitch": 73, "duration": 8, "velocity": 83}, {"time": 2416, "pitch": 73, "duration": 1, "velocity": 84}, {"time": 2419, "pitch": 73, "duration": 4, "velocity": 85}, {"time": 2425, "pitch": 72, "duration": 5, "velocity": 87}, {"time": 2431, "pitch": 70, "duration": 5, "velocity": 84}, {"time": 2437, "pitch": 72, "duration": 4, "velocity": 85}, {"time": 2443, "pitch": 70, "duration": 11, "velocity": 84}, {"time": 2455, "pitch": 68, "duration": 9, "velocity": 83}, {"time": 2467, "pitch": 78, "duration": 10, "velocity": 74}, {"time": 2479, "pitch": 77, "duration": 8, "velocity": 89}, {"time": 2491, "pitch": 77, "duration": 4, "velocity": 88}, {"time": 2497, "pitch": 77, "duration": 2, "velocity": 86}, {"time": 2500, "pitch": 77, "duration": 4, "velocity": 87}, {"time": 2506, "pitch": 82, "duration": 7, "velocity": 86}, {"time": 2515, "pitch": 82, "duration": 5, "velocity": 83}, {"time": 2521, "pitch": 80, "duration": 2, "velocity": 82}, {"time": 2524, "pitch": 80, "duration": 8, "velocity": 83}, {"time": 2533, "pitch": 72, "duration": 2, "velocity": 83}, {"time": 2536, "pitch": 73, "duration": 1, "velocity": 85}, {"time": 2539, "pitch": 75, "duration": 4, "velocity": 89}, {"time": 2545, "pitch": 68, "duration": 1, "velocity": 84}, {"time": 2548, "pitch": 68, "duration": 5, "velocity": 85}, {"time": 2554, "pitch": 80, "duration": 7, "velocity": 85}, {"time": 2563, "pitch": 78, "duration": 13, "velocity": 83}, {"time": 2587, "pitch": 70, "duration": 5, "velocity": 86}, {"time": 2593, "pitch": 72, "duration": 2, "velocity": 84}, {"time": 2596, "pitch": 73, "duration": 9, "velocity": 83}, {"time": 2608, "pitch": 73, "duration": 2, "velocity": 80}, {"time": 2611, "pitch": 77, "duration": 4, "velocity": 88}, {"time": 2617, "pitch": 75, "duration": 4, "velocity": 87}, {"time": 2623, "pitch": 70, "duration": 5, "velocity": 84}, {"time": 2629, "pitch": 72, "duration": 5, "velocity": 84}, {"time": 2635, "pitch": 73, "duration": 20, "velocity": 83}, {"time": 3043, "pitch": 77, "duration": 3, "velocity": 76}, {"time": 3049, "pitch": 77, "duration": 2, "velocity": 84}, {"time": 3052, "pitch": 77, "duration": 4, "velocity": 87}, {"time": 3058, "pitch": 78, "duration": 8, "velocity": 85}, {"time": 3067, "pitch": 77, "duration": 4, "velocity": 84}, {"time": 3073, "pitch": 75, "duration": 1, "velocity": 83}, {"time": 3076, "pitch": 75, "duration": 5, "velocity": 93}, {"time": 3085, "pitch": 72, "duration": 2, "velocity": 87}, {"time": 3088, "pitch": 70, "duration": 1, "velocity": 88}, {"time": 3091, "pitch": 68, "duration": 4, "velocity": 84}, {"time": 3097, "pitch": 68, "duration": 2, "velocity": 82}, {"time": 3100, "pitch": 75, "duration": 8, "velocity": 87}, {"time": 3109, "pitch": 77, "duration": 4, "velocity": 84}, {"time": 3115, "pitch": 75, "duration": 5, "velocity": 93}, {"time": 3121, "pitch": 73, "duration": 1, "velocity": 83}, {"time": 3124, "pitch": 73, "duration": 4, "velocity": 83}, {"time": 3139, "pitch": 70, "duration": 4, "velocity": 85}, {"time": 3145, "pitch": 72, "duration": 2, "velocity": 84}, {"time": 3148, "pitch": 73, "duration": 8, "velocity": 83}, {"time": 3160, "pitch": 73, "duration": 1, "velocity": 84}, {"time": 3163, "pitch": 73, "duration": 4, "velocity": 85}, {"time": 3169, "pitch": 72, "duration": 5, "velocity": 87}, {"time": 3175, "pitch": 70, "duration": 5, "velocity": 84}, {"time": 3181, "pitch": 72, "duration": 4, "velocity": 85}, {"time": 3187, "pitch": 70, "duration": 11, "velocity": 84}, {"time": 3199, "pitch": 68, "duration": 9, "velocity": 83}, {"time": 3211, "pitch": 78, "duration": 10, "velocity": 74}, {"time": 3223, "pitch": 77, "duration": 8, "velocity": 89}, {"time": 3235, "pitch": 77, "duration": 4, "velocity": 88}, {"time": 3241, "pitch": 77, "duration": 2, "velocity": 86}, {"time": 3244, "pitch": 77, "duration": 4, "velocity": 87}, {"time": 3250, "pitch": 82, "duration": 7, "velocity": 86}, {"time": 3259, "pitch": 82, "duration": 5, "velocity": 83}, {"time": 3265, "pitch": 80, "duration": 2, "velocity": 82}, {"time": 3268, "pitch": 80, "duration": 8, "velocity": 83}, {"time": 3277, "pitch": 72, "duration": 2, "velocity": 83}, {"time": 3280, "pitch": 73, "duration": 1, "velocity": 85}, {"time": 3283, "pitch": 75, "duration": 4, "velocity": 89}, {"time": 3289, "pitch": 68, "duration": 1, "velocity": 84}, {"time": 3292, "pitch": 68, "duration": 5, "velocity": 85}, {"time": 3298, "pitch": 80, "duration": 7, "velocity": 85}, {"time": 3307, "pitch": 78, "duration": 13, "velocity": 83}, {"time": 3331, "pitch": 70, "duration": 5, "velocity": 86}, {"time": 3337, "pitch": 72, "duration": 2, "velocity": 84}, {"time": 3340, "pitch": 73, "duration": 9, "velocity": 83}, {"time": 3352, "pitch": 73, "duration": 2, "velocity": 80}, {"time": 3355, "pitch": 77, "duration": 4, "velocity": 88}, {"time": 3361, "pitch": 75, "duration": 4, "velocity": 87}, {"time": 3367, "pitch": 70, "duration": 5, "velocity": 84}, {"time": 3373, "pitch": 72, "duration": 5, "velocity": 84}, {"time": 3379, "pitch": 73, "duration": 20, "velocity": 83}]}, {"program": 0, "is_drum": false, "name": "PIANO", "notes": [{"time": 43, "pitch": 49, "duration": 17, "velocity": 82}, {"time": 43, "pitch": 56, "duration": 8, "velocity": 69}, {"time": 43, "pitch": 61, "duration": 9, "velocity": 72}, {"time": 55, "pitch": 56, "duration": 3, "velocity": 84}, {"time": 55, "pitch": 65, "duration": 4, "velocity": 82}, {"time": 58, "pitch": 61, "duration": 2, "velocity": 78}, {"time": 61, "pitch": 56, "duration": 1, "velocity": 74}, {"time": 67, "pitch": 42, "duration": 18, "velocity": 82}, {"time": 67, "pitch": 54, "duration": 6, "velocity": 78}, {"time": 67, "pitch": 58, "duration": 6, "velocity": 78}, {"time": 73, "pitch": 49, "duration": 4, "velocity": 66}, {"time": 76, "pitch": 54, "duration": 3, "velocity": 77}, {"time": 76, "pitch": 61, "duration": 3, "velocity": 78}, {"time": 82, "pitch": 54, "duration": 2, "velocity": 76}, {"time": 82, "pitch": 66, "duration": 2, "velocity": 78}, {"time": 91, "pitch": 44, "duration": 20, "velocity": 77}, {"time": 91, "pitch": 56, "duration": 7, "velocity": 77}, {"time": 91, "pitch": 60, "duration": 7, "velocity": 77}, {"time": 103, "pitch": 56, "duration": 3, "velocity": 81}, {"time": 103, "pitch": 63, "duration": 3, "velocity": 79}, {"time": 106, "pitch": 51, "duration": 5, "velocity": 63}, {"time": 109, "pitch": 56, "duration": 2, "velocity": 74}, {"time": 115, "pitch": 49, "duration": 19, "velocity": 82}, {"time": 115, "pitch": 56, "duration": 3, "velocity": 80}, {"time": 115, "pitch": 61, "duration": 5, "velocity": 80}, {"time": 124, "pitch": 56, "duration": 3, "velocity": 83}, {"time": 124, "pitch": 65, "duration": 3, "velocity": 84}, {"time": 130, "pitch": 56, "duration": 2, "velocity": 77}, {"time": 130, "pitch": 60, "duration": 3, "velocity": 76}, {"time": 139, "pitch": 46, "duration": 19, "velocity": 82}, {"time": 139, "pitch": 58, "duration": 6, "velocity": 76}, {"time": 139, "pitch": 61, "duration": 6, "velocity": 78}, {"time": 145, "pitch": 53, "duration": 7, "velocity": 65}, {"time": 151, "pitch": 58, "duration": 2, "velocity": 83}, {"time": 151, "pitch": 65, "duration": 2, "velocity": 87}, {"time": 154, "pitch": 53, "duration": 3, "velocity": 77}, {"time": 157, "pitch": 58, "duration": 1, "velocity": 79}, {"time": 160, "pitch": 58, "duration": 1, "velocity": 56}, {"time": 160, "pitch": 61, "duration": 1, "velocity": 63}, {"time": 163, "pitch": 51, "duration": 15, "velocity": 82}, {"time": 163, "pitch": 58, "duration": 5, "velocity": 77}, {"time": 163, "pitch": 63, "duration": 5, "velocity": 80}, {"time": 172, "pitch": 58, "duration": 3, "velocity": 80}, {"time": 172, "pitch": 67, "duration": 4, "velocity": 79}, {"time": 178, "pitch": 58, "duration": 2, "velocity": 78}, {"time": 178, "pitch": 63, "duration": 2, "velocity": 80}, {"time": 187, "pitch": 39, "duration": 14, "velocity": 84}, {"time": 187, "pitch": 58, "duration": 4, "velocity": 75}, {"time": 187, "pitch": 63, "duration": 4, "velocity": 76}, {"time": 187, "pitch": 66, "duration": 7, "velocity": 80}, {"time": 193, "pitch": 46, "duration": 4, "velocity": 52}, {"time": 196, "pitch": 58, "duration": 3, "velocity": 79}, {"time": 196, "pitch": 61, "duration": 3, "velocity": 83}, {"time": 196, "pitch": 66, "duration": 3, "velocity": 78}, {"time": 202, "pitch": 58, "duration": 2, "velocity": 76}, {"time": 202, "pitch": 61, "duration": 2, "velocity": 82}, {"time": 211, "pitch": 44, "duration": 20, "velocity": 82}, {"time": 211, "pitch": 56, "duration": 5, "velocity": 72}, {"time": 211, "pitch": 60, "duration": 5, "velocity": 74}, {"time": 217, "pitch": 51, "duration": 6, "velocity": 70}, {"time": 220, "pitch": 63, "duration": 2, "velocity": 75}, {"time": 223, "pitch": 56, "duration": 3, "velocity": 84}, {"time": 223, "pitch": 68, "duration": 3, "velocity": 82}, {"time": 226, "pitch": 51, "duration": 4, "velocity": 72}, {"time": 229, "pitch": 56, "duration": 2, "velocity": 70}, {"time": 229, "pitch": 63, "duration": 2, "velocity": 75}, {"time": 235, "pitch": 49, "duration": 15, "velocity": 83}, {"time": 235, "pitch": 56, "duration": 7, "velocity": 74}, {"time": 235, "pitch": 61, "duration": 8, "velocity": 76}, {"time": 247, "pitch": 56, "duration": 3, "velocity": 82}, {"time": 247, "pitch": 65, "duration": 3, "velocity": 83}, {"time": 250, "pitch": 61, "duration": 2, "velocity": 70}, {"time": 253, "pitch": 56, "duration": 1, "velocity": 74}, {"time": 259, "pitch": 42, "duration": 17, "velocity": 82}, {"time": 259, "pitch": 54, "duration": 7, "velocity": 71}, {"time": 259, "pitch": 58, "duration": 6, "velocity": 73}, {"time": 265, "pitch": 49, "duration": 9, "velocity": 56}, {"time": 268, "pitch": 54, "duration": 2, "velocity": 80}, {"time": 268, "pitch": 66, "duration": 2, "velocity": 80}, {"time": 274, "pitch": 54, "duration": 2, "velocity": 74}, {"time": 274, "pitch": 61, "duration": 2, "velocity": 76}, {"time": 283, "pitch": 44, "duration": 20, "velocity": 83}, {"time": 283, "pitch": 56, "duration": 10, "velocity": 73}, {"time": 283, "pitch": 60, "duration": 9, "velocity": 76}, {"time": 295, "pitch": 56, "duration": 3, "velocity": 82}, {"time": 295, "pitch": 63, "duration": 2, "velocity": 82}, {"time": 298, "pitch": 51, "duration": 4, "velocity": 71}, {"time": 301, "pitch": 56, "duration": 2, "velocity": 76}, {"time": 307, "pitch": 49, "duration": 17, "velocity": 78}, {"time": 307, "pitch": 56, "duration": 4, "velocity": 78}, {"time": 307, "pitch": 61, "duration": 6, "velocity": 75}, {"time": 316, "pitch": 56, "duration": 3, "velocity": 84}, {"time": 316, "pitch": 65, "duration": 3, "velocity": 84}, {"time": 322, "pitch": 56, "duration": 2, "velocity": 78}, {"time": 322, "pitch": 60, "duration": 2, "velocity": 77}, {"time": 331, "pitch": 46, "duration": 19, "velocity": 82}, {"time": 331, "pitch": 58, "duration": 7, "velocity": 70}, {"time": 331, "pitch": 61, "duration": 6, "velocity": 75}, {"time": 337, "pitch": 53, "duration": 6, "velocity": 67}, {"time": 343, "pitch": 58, "duration": 2, "velocity": 83}, {"time": 343, "pitch": 65, "duration": 2, "velocity": 86}, {"time": 346, "pitch": 53, "duration": 4, "velocity": 75}, {"time": 349, "pitch": 58, "duration": 3, "velocity": 82}, {"time": 352, "pitch": 61, "duration": 2, "velocity": 67}, {"time": 355, "pitch": 51, "duration": 18, "velocity": 81}, {"time": 355, "pitch": 58, "duration": 4, "velocity": 79}, {"time": 355, "pitch": 63, "duration": 7, "velocity": 80}, {"time": 361, "pitch": 58, "duration": 1, "velocity": 72}, {"time": 364, "pitch": 58, "duration": 3, "velocity": 78}, {"time": 364, "pitch": 67, "duration": 3, "velocity": 77}, {"time": 370, "pitch": 58, "duration": 3, "velocity": 83}, {"time": 370, "pitch": 63, "duration": 2, "velocity": 84}, {"time": 379, "pitch": 51, "duration": 10, "velocity": 82}, {"time": 379, "pitch": 58, "duration": 3, "velocity": 80}, {"time": 379, "pitch": 66, "duration": 6, "velocity": 78}, {"time": 385, "pitch": 58, "duration": 2, "velocity": 57}, {"time": 388, "pitch": 58, "duration": 3, "velocity": 80}, {"time": 388, "pitch": 63, "duration": 4, "velocity": 82}, {"time": 400, "pitch": 60, "duration": 1, "velocity": 76}, {"time": 400, "pitch": 61, "duration": 2, "velocity": 78}, {"time": 403, "pitch": 44, "duration": 20, "velocity": 83}, {"time": 403, "pitch": 60, "duration": 5, "velocity": 82}, {"time": 409, "pitch": 51, "duration": 9, "velocity": 75}, {"time": 412, "pitch": 56, "duration": 1, "velocity": 76}, {"time": 418, "pitch": 56, "duration": 2, "velocity": 83}, {"time": 418, "pitch": 60, "duration": 2, "velocity": 83}, {"time": 418, "pitch": 63, "duration": 3, "velocity": 83}, {"time": 421, "pitch": 51, "duration": 2, "velocity": 74}, {"time": 424, "pitch": 56, "duration": 1, "velocity": 77}, {"time": 427, "pitch": 49, "duration": 15, "velocity": 80}, {"time": 427, "pitch": 56, "duration": 4, "velocity": 81}, {"time": 427, "pitch": 61, "duration": 6, "velocity": 82}, {"time": 433, "pitch": 56, "duration": 1, "velocity": 62}, {"time": 436, "pitch": 56, "duration": 2, "velocity": 79}, {"time": 436, "pitch": 65, "duration": 3, "velocity": 83}, {"time": 442, "pitch": 56, "duration": 2, "velocity": 77}, {"time": 442, "pitch": 61, "duration": 1, "velocity": 78}, {"time": 451, "pitch": 42, "duration": 17, "velocity": 82}, {"time": 451, "pitch": 54, "duration": 7, "velocity": 72}, {"time": 451, "pitch": 58, "duration": 6, "velocity": 68}, {"time": 457, "pitch": 49, "duration": 10, "velocity": 67}, {"time": 460, "pitch": 61, "duration": 4, "velocity": 79}, {"time": 466, "pitch": 54, "duration": 2, "velocity": 78}, {"time": 466, "pitch": 66, "duration": 2, "velocity": 83}, {"time": 475, "pitch": 44, "duration": 20, "velocity": 82}, {"time": 475, "pitch": 56, "duration": 5, "velocity": 77}, {"time": 475, "pitch": 60, "duration": 6, "velocity": 79}, {"time": 481, "pitch": 51, "duration": 4, "velocity": 66}, {"time": 484, "pitch": 51, "duration": 1, "velocity": 64}, {"time": 484, "pitch": 56, "duration": 3, "velocity": 82}, {"time": 484, "pitch": 63, "duration": 3, "velocity": 82}, {"time": 490, "pitch": 56, "duration": 2, "velocity": 78}, {"time": 490, "pitch": 60, "duration": 2, "velocity": 81}, {"time": 499, "pitch": 49, "duration": 19, "velocity": 82}, {"time": 499, "pitch": 56, "duration": 3, "velocity": 77}, {"time": 499, "pitch": 61, "duration": 6, "velocity": 78}, {"time": 511, "pitch": 56, "duration": 3, "velocity": 84}, {"time": 511, "pitch": 65, "duration": 3, "velocity": 86}, {"time": 517, "pitch": 56, "duration": 2, "velocity": 74}, {"time": 517, "pitch": 60, "duration": 4, "velocity": 76}, {"time": 523, "pitch": 46, "duration": 22, "velocity": 83}, {"time": 523, "pitch": 58, "duration": 5, "velocity": 73}, {"time": 523, "pitch": 61, "duration": 5, "velocity": 78}, {"time": 529, "pitch": 53, "duration": 13, "velocity": 65}, {"time": 532, "pitch": 58, "duration": 3, "velocity": 79}, {"time": 532, "pitch": 65, "duration": 3, "velocity": 83}, {"time": 538, "pitch": 58, "duration": 2, "velocity": 77}, {"time": 538, "pitch": 61, "duration": 2, "velocity": 82}, {"time": 547, "pitch": 51, "duration": 15, "velocity": 78}, {"time": 547, "pitch": 58, "duration": 3, "velocity": 79}, {"time": 547, "pitch": 63, "duration": 6, "velocity": 81}, {"time": 556, "pitch": 58, "duration": 3, "velocity": 82}, {"time": 556, "pitch": 67, "duration": 3, "velocity": 82}, {"time": 562, "pitch": 58, "duration": 2, "velocity": 81}, {"time": 562, "pitch": 63, "duration": 1, "velocity": 82}, {"time": 571, "pitch": 39, "duration": 5, "velocity": 83}, {"time": 571, "pitch": 58, "duration": 3, "velocity": 78}, {"time": 571, "pitch": 63, "duration": 6, "velocity": 78}, {"time": 571, "pitch": 66, "duration": 6, "velocity": 82}, {"time": 577, "pitch": 58, "duration": 3, "velocity": 75}, {"time": 580, "pitch": 63, "duration": 1, "velocity": 72}, {"time": 583, "pitch": 44, "duration": 10, "velocity": 83}, {"time": 583, "pitch": 56, "duration": 7, "velocity": 83}, {"time": 583, "pitch": 60, "duration": 7, "velocity": 84}, {"time": 589, "pitch": 51, "duration": 4, "velocity": 75}, {"time": 595, "pitch": 49, "duration": 25, "velocity": 78}, {"time": 595, "pitch": 56, "duration": 4, "velocity": 83}, {"time": 595, "pitch": 61, "duration": 6, "velocity": 84}, {"time": 601, "pitch": 56, "duration": 1, "velocity": 69}, {"time": 604, "pitch": 56, "duration": 3, "velocity": 88}, {"time": 604, "pitch": 65, "duration": 3, "velocity": 88}, {"time": 610, "pitch": 56, "duration": 2, "velocity": 85}, {"time": 610, "pitch": 61, "duration": 4, "velocity": 85}, {"time": 613, "pitch": 56, "duration": 4, "velocity": 87}, {"time": 616, "pitch": 61, "duration": 2, "velocity": 80}, {"time": 619, "pitch": 42, "duration": 16, "velocity": 82}, {"time": 619, "pitch": 61, "duration": 3, "velocity": 78}, {"time": 619, "pitch": 66, "duration": 6, "velocity": 76}, {"time": 619, "pitch": 70, "duration": 6, "velocity": 82}, {"time": 625, "pitch": 61, "duration": 1, "velocity": 67}, {"time": 628, "pitch": 61, "duration": 4, "velocity": 83}, {"time": 628, "pitch": 66, "duration": 4, "velocity": 83}, {"time": 634, "pitch": 61, "duration": 2, "velocity": 85}, {"time": 634, "pitch": 66, "duration": 2, "velocity": 82}, {"time": 634, "pitch": 70, "duration": 3, "velocity": 76}, {"time": 643, "pitch": 41, "duration": 14, "velocity": 84}, {"time": 643, "pitch": 65, "duration": 4, "velocity": 83}, {"time": 643, "pitch": 68, "duration": 5, "velocity": 78}, {"time": 649, "pitch": 48, "duration": 6, "velocity": 59}, {"time": 652, "pitch": 65, "duration": 2, "velocity": 93}, {"time": 652, "pitch": 72, "duration": 2, "velocity": 89}, {"time": 658, "pitch": 65, "duration": 2, "velocity": 84}, {"time": 658, "pitch": 68, "duration": 1, "velocity": 83}, {"time": 667, "pitch": 46, "duration": 23, "velocity": 83}, {"time": 667, "pitch": 58, "duration": 4, "velocity": 80}, {"time": 667, "pitch": 61, "duration": 5, "velocity": 82}, {"time": 673, "pitch": 53, "duration": 4, "velocity": 59}, {"time": 676, "pitch": 58, "duration": 3, "velocity": 75}, {"time": 676, "pitch": 61, "duration": 2, "velocity": 82}, {"time": 676, "pitch": 65, "duration": 3, "velocity": 83}, {"time": 679, "pitch": 53, "duration": 5, "velocity": 66}, {"time": 682, "pitch": 58, "duration": 2, "velocity": 83}, {"time": 682, "pitch": 70, "duration": 2, "velocity": 83}, {"time": 685, "pitch": 53, "duration": 4, "velocity": 37}, {"time": 688, "pitch": 58, "duration": 1, "velocity": 63}, {"time": 691, "pitch": 46, "duration": 10, "velocity": 83}, {"time": 691, "pitch": 58, "duration": 3, "velocity": 77}, {"time": 691, "pitch": 61, "duration": 4, "velocity": 84}, {"time": 691, "pitch": 65, "duration": 5, "velocity": 85}, {"time": 697, "pitch": 58, "duration": 2, "velocity": 64}, {"time": 700, "pitch": 61, "duration": 1, "velocity": 82}, {"time": 700, "pitch": 65, "duration": 1, "velocity": 66}, {"time": 703, "pitch": 44, "duration": 7, "velocity": 79}, {"time": 703, "pitch": 56, "duration": 5, "velocity": 84}, {"time": 703, "pitch": 60, "duration": 5, "velocity": 85}, {"time": 715, "pitch": 42, "duration": 15, "velocity": 84}, {"time": 715, "pitch": 54, "duration": 6, "velocity": 79}, {"time": 715, "pitch": 58, "duration": 6, "velocity": 78}, {"time": 721, "pitch": 61, "duration": 1, "velocity": 74}, {"time": 724, "pitch": 54, "duration": 2, "velocity": 85}, {"time": 724, "pitch": 66, "duration": 2, "velocity": 84}, {"time": 730, "pitch": 54, "duration": 1, "velocity": 72}, {"time": 730, "pitch": 58, "duration": 2, "velocity": 82}, {"time": 730, "pitch": 61, "duration": 3, "velocity": 82}, {"time": 739, "pitch": 41, "duration": 16, "velocity": 84}, {"time": 739, "pitch": 53, "duration": 7, "velocity": 79}, {"time": 739, "pitch": 56, "duration": 6, "velocity": 78}, {"time": 745, "pitch": 60, "duration": 1, "velocity": 66}, {"time": 748, "pitch": 53, "duration": 2, "velocity": 84}, {"time": 748, "pitch": 65, "duration": 2, "velocity": 86}, {"time": 751, "pitch": 48, "duration": 3, "velocity": 69}, {"time": 754, "pitch": 53, "duration": 1, "velocity": 83}, {"time": 754, "pitch": 56, "duration": 3, "velocity": 83}, {"time": 754, "pitch": 60, "duration": 3, "velocity": 84}, {"time": 757, "pitch": 41, "duration": 2, "velocity": 68}, {"time": 760, "pitch": 53, "duration": 2, "velocity": 88}, {"time": 763, "pitch": 46, "duration": 22, "velocity": 83}, {"time": 766, "pitch": 53, "duration": 7, "velocity": 59}, {"time": 769, "pitch": 58, "duration": 1, "velocity": 70}, {"time": 772, "pitch": 58, "duration": 3, "velocity": 83}, {"time": 772, "pitch": 61, "duration": 3, "velocity": 86}, {"time": 775, "pitch": 53, "duration": 4, "velocity": 65}, {"time": 778, "pitch": 58, "duration": 3, "velocity": 80}, {"time": 778, "pitch": 61, "duration": 3, "velocity": 83}, {"time": 778, "pitch": 65, "duration": 3, "velocity": 86}, {"time": 781, "pitch": 53, "duration": 4, "velocity": 71}, {"time": 784, "pitch": 58, "duration": 2, "velocity": 76}, {"time": 787, "pitch": 46, "duration": 11, "velocity": 84}, {"time": 787, "pitch": 58, "duration": 6, "velocity": 83}, {"time": 787, "pitch": 61, "duration": 6, "velocity": 85}, {"time": 793, "pitch": 53, "duration": 5, "velocity": 76}, {"time": 796, "pitch": 58, "duration": 1, "velocity": 74}, {"time": 799, "pitch": 46, "duration": 4, "velocity": 84}, {"time": 799, "pitch": 53, "duration": 4, "velocity": 91}, {"time": 799, "pitch": 58, "duration": 6, "velocity": 86}, {"time": 799, "pitch": 61, "duration": 7, "velocity": 89}, {"time": 805, "pitch": 46, "duration": 3, "velocity": 82}, {"time": 811, "pitch": 42, "duration": 16, "velocity": 82}, {"time": 811, "pitch": 61, "duration": 5, "velocity": 84}, {"time": 811, "pitch": 70, "duration": 6, "velocity": 82}, {"time": 817, "pitch": 49, "duration": 10, "velocity": 72}, {"time": 820, "pitch": 61, "duration": 4, "velocity": 83}, {"time": 826, "pitch": 61, "duration": 3, "velocity": 84}, {"time": 826, "pitch": 66, "duration": 3, "velocity": 84}, {"time": 826, "pitch": 70, "duration": 4, "velocity": 80}, {"time": 835, "pitch": 41, "duration": 15, "velocity": 85}, {"time": 835, "pitch": 65, "duration": 6, "velocity": 84}, {"time": 835, "pitch": 68, "duration": 6, "velocity": 84}, {"time": 841, "pitch": 48, "duration": 8, "velocity": 57}, {"time": 844, "pitch": 65, "duration": 2, "velocity": 86}, {"time": 844, "pitch": 72, "duration": 2, "velocity": 88}, {"time": 850, "pitch": 65, "duration": 2, "velocity": 84}, {"time": 850, "pitch": 68, "duration": 2, "velocity": 82}, {"time": 859, "pitch": 46, "duration": 22, "velocity": 83}, {"time": 859, "pitch": 58, "duration": 6, "velocity": 82}, {"time": 859, "pitch": 61, "duration": 6, "velocity": 82}, {"time": 865, "pitch": 53, "duration": 4, "velocity": 68}, {"time": 868, "pitch": 58, "duration": 3, "velocity": 74}, {"time": 868, "pitch": 61, "duration": 3, "velocity": 83}, {"time": 868, "pitch": 65, "duration": 3, "velocity": 84}, {"time": 871, "pitch": 53, "duration": 4, "velocity": 75}, {"time": 874, "pitch": 58, "duration": 3, "velocity": 83}, {"time": 874, "pitch": 61, "duration": 3, "velocity": 88}, {"time": 874, "pitch": 70, "duration": 3, "velocity": 83}, {"time": 877, "pitch": 53, "duration": 4, "velocity": 79}, {"time": 880, "pitch": 58, "duration": 2, "velocity": 71}, {"time": 883, "pitch": 41, "duration": 16, "velocity": 83}, {"time": 883, "pitch": 65, "duration": 6, "velocity": 86}, {"time": 883, "pitch": 68, "duration": 6, "velocity": 84}, {"time": 889, "pitch": 48, "duration": 9, "velocity": 62}, {"time": 892, "pitch": 65, "duration": 3, "velocity": 87}, {"time": 892, "pitch": 72, "duration": 3, "velocity": 87}, {"time": 898, "pitch": 65, "duration": 2, "velocity": 87}, {"time": 898, "pitch": 68, "duration": 3, "velocity": 83}, {"time": 907, "pitch": 39, "duration": 23, "velocity": 84}, {"time": 907, "pitch": 63, "duration": 2, "velocity": 81}, {"time": 907, "pitch": 66, "duration": 2, "velocity": 83}, {"time": 907, "pitch": 70, "duration": 2, "velocity": 82}, {"time": 913, "pitch": 58, "duration": 3, "velocity": 71}, {"time": 913, "pitch": 63, "duration": 3, "velocity": 77}, {"time": 913, "pitch": 66, "duration": 3, "velocity": 74}, {"time": 919, "pitch": 58, "duration": 3, "velocity": 87}, {"time": 919, "pitch": 66, "duration": 3, "velocity": 93}, {"time": 928, "pitch": 58, "duration": 1, "velocity": 74}, {"time": 931, "pitch": 39, "duration": 10, "velocity": 88}, {"time": 931, "pitch": 58, "duration": 3, "velocity": 83}, {"time": 931, "pitch": 63, "duration": 6, "velocity": 83}, {"time": 937, "pitch": 58, "duration": 1, "velocity": 73}, {"time": 940, "pitch": 58, "duration": 3, "velocity": 87}, {"time": 940, "pitch": 66, "duration": 4, "velocity": 85}, {"time": 946, "pitch": 58, "duration": 1, "velocity": 91}, {"time": 946, "pitch": 63, "duration": 1, "velocity": 87}, {"time": 955, "pitch": 41, "duration": 18, "velocity": 88}, {"time": 955, "pitch": 60, "duration": 2, "velocity": 85}, {"time": 955, "pitch": 65, "duration": 3, "velocity": 87}, {"time": 961, "pitch": 48, "duration": 4, "velocity": 68}, {"time": 964, "pitch": 65, "duration": 1, "velocity": 89}, {"time": 964, "pitch": 72, "duration": 2, "velocity": 88}, {"time": 967, "pitch": 48, "duration": 5, "velocity": 58}, {"time": 970, "pitch": 65, "duration": 2, "velocity": 83}, {"time": 970, "pitch": 69, "duration": 2, "velocity": 84}, {"time": 979, "pitch": 41, "duration": 7, "velocity": 86}, {"time": 979, "pitch": 48, "duration": 7, "velocity": 82}, {"time": 979, "pitch": 65, "duration": 3, "velocity": 84}, {"time": 979, "pitch": 69, "duration": 3, "velocity": 82}, {"time": 979, "pitch": 72, "duration": 3, "velocity": 83}, {"time": 979, "pitch": 77, "duration": 4, "velocity": 82}, {"time": 991, "pitch": 56, "duration": 3, "velocity": 87}, {"time": 994, "pitch": 58, "duration": 8, "velocity": 77}, {"time": 997, "pitch": 61, "duration": 5, "velocity": 77}, {"time": 1003, "pitch": 42, "duration": 17, "velocity": 83}, {"time": 1003, "pitch": 54, "duration": 4, "velocity": 74}, {"time": 1003, "pitch": 58, "duration": 5, "velocity": 72}, {"time": 1003, "pitch": 61, "duration": 6, "velocity": 78}, {"time": 1009, "pitch": 49, "duration": 4, "velocity": 62}, {"time": 1012, "pitch": 54, "duration": 4, "velocity": 84}, {"time": 1012, "pitch": 66, "duration": 3, "velocity": 83}, {"time": 1015, "pitch": 49, "duration": 5, "velocity": 51}, {"time": 1018, "pitch": 54, "duration": 2, "velocity": 82}, {"time": 1018, "pitch": 58, "duration": 6, "velocity": 84}, {"time": 1018, "pitch": 61, "duration": 7, "velocity": 84}, {"time": 1024, "pitch": 54, "duration": 1, "velocity": 78}, {"time": 1027, "pitch": 44, "duration": 15, "velocity": 82}, {"time": 1027, "pitch": 56, "duration": 10, "velocity": 83}, {"time": 1027, "pitch": 60, "duration": 7, "velocity": 83}, {"time": 1033, "pitch": 51, "duration": 7, "velocity": 67}, {"time": 1039, "pitch": 56, "duration": 5, "velocity": 85}, {"time": 1039, "pitch": 60, "duration": 5, "velocity": 93}, {"time": 1039, "pitch": 63, "duration": 6, "velocity": 85}, {"time": 1045, "pitch": 51, "duration": 1, "velocity": 77}, {"time": 1051, "pitch": 53, "duration": 14, "velocity": 78}, {"time": 1051, "pitch": 54, "duration": 2, "velocity": 79}, {"time": 1051, "pitch": 60, "duration": 4, "velocity": 83}, {"time": 1051, "pitch": 65, "duration": 7, "velocity": 84}, {"time": 1057, "pitch": 60, "duration": 2, "velocity": 83}, {"time": 1060, "pitch": 60, "duration": 4, "velocity": 84}, {"time": 1060, "pitch": 65, "duration": 3, "velocity": 83}, {"time": 1060, "pitch": 68, "duration": 3, "velocity": 82}, {"time": 1066, "pitch": 60, "duration": 2, "velocity": 85}, {"time": 1066, "pitch": 65, "duration": 3, "velocity": 86}, {"time": 1072, "pitch": 60, "duration": 1, "velocity": 80}, {"time": 1075, "pitch": 46, "duration": 18, "velocity": 82}, {"time": 1075, "pitch": 58, "duration": 7, "velocity": 83}, {"time": 1075, "pitch": 61, "duration": 6, "velocity": 84}, {"time": 1081, "pitch": 53, "duration": 6, "velocity": 69}, {"time": 1087, "pitch": 58, "duration": 3, "velocity": 85}, {"time": 1087, "pitch": 65, "duration": 3, "velocity": 87}, {"time": 1090, "pitch": 53, "duration": 3, "velocity": 81}, {"time": 1093, "pitch": 58, "duration": 1, "velocity": 71}, {"time": 1093, "pitch": 61, "duration": 2, "velocity": 85}, {"time": 1096, "pitch": 58, "duration": 1, "velocity": 71}, {"time": 1099, "pitch": 51, "duration": 11, "velocity": 84}, {"time": 1099, "pitch": 58, "duration": 3, "velocity": 83}, {"time": 1099, "pitch": 63, "duration": 5, "velocity": 82}, {"time": 1108, "pitch": 58, "duration": 2, "velocity": 86}, {"time": 1108, "pitch": 66, "duration": 2, "velocity": 83}, {"time": 1114, "pitch": 58, "duration": 1, "velocity": 82}, {"time": 1114, "pitch": 63, "duration": 3, "velocity": 83}, {"time": 1120, "pitch": 58, "duration": 1, "velocity": 62}, {"time": 1123, "pitch": 44, "duration": 19, "velocity": 82}, {"time": 1123, "pitch": 56, "duration": 4, "velocity": 82}, {"time": 1123, "pitch": 60, "duration": 4, "velocity": 81}, {"time": 1126, "pitch": 51, "duration": 15, "velocity": 71}, {"time": 1129, "pitch": 56, "duration": 1, "velocity": 66}, {"time": 1129, "pitch": 63, "duration": 1, "velocity": 77}, {"time": 1132, "pitch": 56, "duration": 3, "velocity": 82}, {"time": 1132, "pitch": 68, "duration": 3, "velocity": 83}, {"time": 1138, "pitch": 56, "duration": 2, "velocity": 83}, {"time": 1138, "pitch": 63, "duration": 3, "velocity": 83}, {"time": 1147, "pitch": 49, "duration": 18, "velocity": 84}, {"time": 1147, "pitch": 56, "duration": 3, "velocity": 83}, {"time": 1147, "pitch": 61, "duration": 6, "velocity": 81}, {"time": 1153, "pitch": 56, "duration": 1, "velocity": 69}, {"time": 1156, "pitch": 56, "duration": 3, "velocity": 86}, {"time": 1156, "pitch": 65, "duration": 3, "velocity": 86}, {"time": 1162, "pitch": 56, "duration": 2, "velocity": 84}, {"time": 1162, "pitch": 61, "duration": 2, "velocity": 84}, {"time": 1171, "pitch": 44, "duration": 19, "velocity": 83}, {"time": 1171, "pitch": 56, "duration": 4, "velocity": 74}, {"time": 1171, "pitch": 59, "duration": 6, "velocity": 73}, {"time": 1171, "pitch": 61, "duration": 3, "velocity": 82}, {"time": 1171, "pitch": 63, "duration": 3, "velocity": 79}, {"time": 1171, "pitch": 65, "duration": 10, "velocity": 83}, {"time": 1183, "pitch": 56, "duration": 6, "velocity": 84}, {"time": 1183, "pitch": 59, "duration": 6, "velocity": 86}, {"time": 1183, "pitch": 63, "duration": 7, "velocity": 84}, {"time": 1183, "pitch": 65, "duration": 8, "velocity": 86}, {"time": 1189, "pitch": 51, "duration": 2, "velocity": 80}, {"time": 1192, "pitch": 56, "duration": 1, "velocity": 83}, {"time": 1195, "pitch": 42, "duration": 16, "velocity": 83}, {"time": 1195, "pitch": 54, "duration": 6, "velocity": 81}, {"time": 1195, "pitch": 58, "duration": 6, "velocity": 82}, {"time": 1201, "pitch": 49, "duration": 3, "velocity": 60}, {"time": 1204, "pitch": 54, "duration": 2, "velocity": 83}, {"time": 1204, "pitch": 58, "duration": 2, "velocity": 88}, {"time": 1204, "pitch": 61, "duration": 3, "velocity": 85}, {"time": 1207, "pitch": 49, "duration": 3, "velocity": 71}, {"time": 1210, "pitch": 54, "duration": 2, "velocity": 87}, {"time": 1210, "pitch": 66, "duration": 2, "velocity": 83}, {"time": 1219, "pitch": 44, "duration": 17, "velocity": 82}, {"time": 1219, "pitch": 56, "duration": 6, "velocity": 80}, {"time": 1219, "pitch": 60, "duration": 7, "velocity": 78}, {"time": 1225, "pitch": 51, "duration": 4, "velocity": 68}, {"time": 1228, "pitch": 56, "duration": 3, "velocity": 85}, {"time": 1228, "pitch": 60, "duration": 3, "velocity": 86}, {"time": 1228, "pitch": 63, "duration": 3, "velocity": 84}, {"time": 1231, "pitch": 51, "duration": 4, "velocity": 65}, {"time": 1234, "pitch": 56, "duration": 2, "velocity": 86}, {"time": 1234, "pitch": 68, "duration": 3, "velocity": 79}, {"time": 1243, "pitch": 41, "duration": 11, "velocity": 84}, {"time": 1243, "pitch": 60, "duration": 3, "velocity": 78}, {"time": 1243, "pitch": 65, "duration": 6, "velocity": 82}, {"time": 1249, "pitch": 60, "duration": 1, "velocity": 70}, {"time": 1252, "pitch": 60, "duration": 3, "velocity": 85}, {"time": 1252, "pitch": 68, "duration": 3, "velocity": 83}, {"time": 1258, "pitch": 60, "duration": 2, "velocity": 86}, {"time": 1258, "pitch": 65, "duration": 1, "velocity": 87}, {"time": 1267, "pitch": 46, "duration": 20, "velocity": 83}, {"time": 1267, "pitch": 58, "duration": 6, "velocity": 77}, {"time": 1267, "pitch": 61, "duration": 6, "velocity": 79}, {"time": 1273, "pitch": 53, "duration": 7, "velocity": 62}, {"time": 1276, "pitch": 58, "duration": 1, "velocity": 72}, {"time": 1279, "pitch": 58, "duration": 3, "velocity": 89}, {"time": 1279, "pitch": 65, "duration": 3, "velocity": 89}, {"time": 1282, "pitch": 53, "duration": 4, "velocity": 82}, {"time": 1285, "pitch": 58, "duration": 3, "velocity": 81}, {"time": 1285, "pitch": 62, "duration": 2, "velocity": 82}, {"time": 1291, "pitch": 51, "duration": 17, "velocity": 85}, {"time": 1291, "pitch": 58, "duration": 4, "velocity": 83}, {"time": 1291, "pitch": 63, "duration": 6, "velocity": 83}, {"time": 1300, "pitch": 58, "duration": 3, "velocity": 84}, {"time": 1300, "pitch": 66, "duration": 4, "velocity": 82}, {"time": 1315, "pitch": 44, "duration": 19, "velocity": 83}, {"time": 1315, "pitch": 56, "duration": 4, "velocity": 78}, {"time": 1315, "pitch": 60, "duration": 4, "velocity": 82}, {"time": 1318, "pitch": 51, "duration": 10, "velocity": 76}, {"time": 1321, "pitch": 60, "duration": 1, "velocity": 68}, {"time": 1321, "pitch": 63, "duration": 3, "velocity": 76}, {"time": 1327, "pitch": 56, "duration": 3, "velocity": 83}, {"time": 1327, "pitch": 68, "duration": 3, "velocity": 82}, {"time": 1330, "pitch": 51, "duration": 4, "velocity": 75}, {"time": 1333, "pitch": 56, "duration": 2, "velocity": 83}, {"time": 1339, "pitch": 37, "duration": 14, "velocity": 81}, {"time": 1339, "pitch": 56, "duration": 4, "velocity": 77}, {"time": 1339, "pitch": 65, "duration": 7, "velocity": 84}, {"time": 1345, "pitch": 56, "duration": 2, "velocity": 75}, {"time": 1348, "pitch": 56, "duration": 4, "velocity": 83}, {"time": 1348, "pitch": 61, "duration": 4, "velocity": 82}, {"time": 1354, "pitch": 56, "duration": 3, "velocity": 85}, {"time": 1354, "pitch": 65, "duration": 4, "velocity": 85}, {"time": 1363, "pitch": 42, "duration": 16, "velocity": 82}, {"time": 1363, "pitch": 58, "duration": 4, "velocity": 83}, {"time": 1363, "pitch": 61, "duration": 6, "velocity": 87}, {"time": 1363, "pitch": 66, "duration": 7, "velocity": 82}, {"time": 1369, "pitch": 49, "duration": 5, "velocity": 70}, {"time": 1372, "pitch": 58, "duration": 4, "velocity": 82}, {"time": 1372, "pitch": 61, "duration": 4, "velocity": 84}, {"time": 1375, "pitch": 49, "duration": 4, "velocity": 59}, {"time": 1378, "pitch": 58, "duration": 3, "velocity": 83}, {"time": 1378, "pitch": 61, "duration": 3, "velocity": 87}, {"time": 1378, "pitch": 66, "duration": 4, "velocity": 83}, {"time": 1387, "pitch": 44, "duration": 16, "velocity": 82}, {"time": 1387, "pitch": 56, "duration": 4, "velocity": 82}, {"time": 1387, "pitch": 60, "duration": 5, "velocity": 83}, {"time": 1393, "pitch": 56, "duration": 2, "velocity": 83}, {"time": 1396, "pitch": 56, "duration": 4, "velocity": 84}, {"time": 1396, "pitch": 60, "duration": 4, "velocity": 88}, {"time": 1396, "pitch": 63, "duration": 3, "velocity": 85}, {"time": 1399, "pitch": 51, "duration": 4, "velocity": 74}, {"time": 1402, "pitch": 56, "duration": 2, "velocity": 82}, {"time": 1402, "pitch": 60, "duration": 2, "velocity": 83}, {"time": 1402, "pitch": 63, "duration": 2, "velocity": 82}, {"time": 1411, "pitch": 49, "duration": 19, "velocity": 83}, {"time": 1411, "pitch": 56, "duration": 3, "velocity": 84}, {"time": 1411, "pitch": 65, "duration": 8, "velocity": 84}, {"time": 1417, "pitch": 56, "duration": 1, "velocity": 75}, {"time": 1420, "pitch": 56, "duration": 4, "velocity": 82}, {"time": 1420, "pitch": 61, "duration": 6, "velocity": 89}, {"time": 1426, "pitch": 56, "duration": 1, "velocity": 82}, {"time": 1429, "pitch": 60, "duration": 3, "velocity": 89}, {"time": 1432, "pitch": 56, "duration": 1, "velocity": 74}, {"time": 1435, "pitch": 46, "duration": 15, "velocity": 83}, {"time": 1435, "pitch": 58, "duration": 6, "velocity": 82}, {"time": 1435, "pitch": 61, "duration": 6, "velocity": 85}, {"time": 1441, "pitch": 53, "duration": 3, "velocity": 67}, {"time": 1444, "pitch": 58, "duration": 3, "velocity": 84}, {"time": 1444, "pitch": 65, "duration": 3, "velocity": 87}, {"time": 1447, "pitch": 53, "duration": 3, "velocity": 77}, {"time": 1450, "pitch": 58, "duration": 2, "velocity": 83}, {"time": 1450, "pitch": 61, "duration": 3, "velocity": 88}, {"time": 1453, "pitch": 58, "duration": 2, "velocity": 75}, {"time": 1459, "pitch": 51, "duration": 11, "velocity": 82}, {"time": 1459, "pitch": 58, "duration": 6, "velocity": 83}, {"time": 1459, "pitch": 63, "duration": 7, "velocity": 82}, {"time": 1465, "pitch": 55, "duration": 4, "velocity": 81}, {"time": 1468, "pitch": 58, "duration": 3, "velocity": 84}, {"time": 1468, "pitch": 67, "duration": 5, "velocity": 84}, {"time": 1471, "pitch": 55, "duration": 3, "velocity": 60}, {"time": 1474, "pitch": 58, "duration": 2, "velocity": 82}, {"time": 1474, "pitch": 63, "duration": 2, "velocity": 86}, {"time": 1480, "pitch": 58, "duration": 1, "velocity": 77}, {"time": 1483, "pitch": 39, "duration": 6, "velocity": 86}, {"time": 1483, "pitch": 58, "duration": 3, "velocity": 84}, {"time": 1483, "pitch": 66, "duration": 7, "velocity": 82}, {"time": 1489, "pitch": 58, "duration": 3, "velocity": 73}, {"time": 1492, "pitch": 63, "duration": 1, "velocity": 82}, {"time": 1495, "pitch": 44, "duration": 10, "velocity": 83}, {"time": 1495, "pitch": 56, "duration": 3, "velocity": 84}, {"time": 1495, "pitch": 60, "duration": 4, "velocity": 84}, {"time": 1498, "pitch": 51, "duration": 7, "velocity": 77}, {"time": 1501, "pitch": 56, "duration": 2, "velocity": 85}, {"time": 1504, "pitch": 56, "duration": 1, "velocity": 68}, {"time": 1504, "pitch": 63, "duration": 1, "velocity": 80}, {"time": 1507, "pitch": 49, "duration": 24, "velocity": 84}, {"time": 1507, "pitch": 56, "duration": 4, "velocity": 81}, {"time": 1507, "pitch": 61, "duration": 6, "velocity": 85}, {"time": 1513, "pitch": 56, "duration": 1, "velocity": 78}, {"time": 1516, "pitch": 56, "duration": 3, "velocity": 86}, {"time": 1516, "pitch": 65, "duration": 3, "velocity": 87}, {"time": 1522, "pitch": 56, "duration": 9, "velocity": 81}, {"time": 1522, "pitch": 61, "duration": 9, "velocity": 82}, {"time": 1531, "pitch": 49, "duration": 1, "velocity": 83}, {"time": 1531, "pitch": 56, "duration": 7, "velocity": 74}, {"time": 1531, "pitch": 61, "duration": 1, "velocity": 76}, {"time": 1543, "pitch": 56, "duration": 3, "velocity": 82}, {"time": 1543, "pitch": 65, "duration": 3, "velocity": 83}, {"time": 1546, "pitch": 61, "duration": 2, "velocity": 70}, {"time": 1549, "pitch": 56, "duration": 1, "velocity": 74}, {"time": 1555, "pitch": 42, "duration": 17, "velocity": 82}, {"time": 1555, "pitch": 54, "duration": 7, "velocity": 71}, {"time": 1555, "pitch": 58, "duration": 6, "velocity": 73}, {"time": 1561, "pitch": 49, "duration": 9, "velocity": 56}, {"time": 1564, "pitch": 54, "duration": 2, "velocity": 80}, {"time": 1564, "pitch": 66, "duration": 2, "velocity": 80}, {"time": 1570, "pitch": 54, "duration": 2, "velocity": 74}, {"time": 1570, "pitch": 61, "duration": 2, "velocity": 76}, {"time": 1579, "pitch": 44, "duration": 20, "velocity": 83}, {"time": 1579, "pitch": 56, "duration": 10, "velocity": 73}, {"time": 1579, "pitch": 60, "duration": 9, "velocity": 76}, {"time": 1591, "pitch": 56, "duration": 3, "velocity": 82}, {"time": 1591, "pitch": 63, "duration": 2, "velocity": 82}, {"time": 1594, "pitch": 51, "duration": 4, "velocity": 71}, {"time": 1597, "pitch": 56, "duration": 2, "velocity": 76}, {"time": 1603, "pitch": 49, "duration": 17, "velocity": 78}, {"time": 1603, "pitch": 56, "duration": 4, "velocity": 78}, {"time": 1603, "pitch": 61, "duration": 6, "velocity": 75}, {"time": 1612, "pitch": 56, "duration": 3, "velocity": 84}, {"time": 1612, "pitch": 65, "duration": 3, "velocity": 84}, {"time": 1618, "pitch": 56, "duration": 2, "velocity": 78}, {"time": 1618, "pitch": 60, "duration": 2, "velocity": 77}, {"time": 1627, "pitch": 46, "duration": 19, "velocity": 82}, {"time": 1627, "pitch": 58, "duration": 7, "velocity": 70}, {"time": 1627, "pitch": 61, "duration": 6, "velocity": 75}, {"time": 1633, "pitch": 53, "duration": 6, "velocity": 67}, {"time": 1639, "pitch": 58, "duration": 2, "velocity": 83}, {"time": 1639, "pitch": 65, "duration": 2, "velocity": 86}, {"time": 1642, "pitch": 53, "duration": 4, "velocity": 75}, {"time": 1645, "pitch": 58, "duration": 3, "velocity": 82}, {"time": 1648, "pitch": 61, "duration": 2, "velocity": 67}, {"time": 1651, "pitch": 51, "duration": 18, "velocity": 81}, {"time": 1651, "pitch": 58, "duration": 4, "velocity": 79}, {"time": 1651, "pitch": 63, "duration": 7, "velocity": 80}, {"time": 1657, "pitch": 58, "duration": 1, "velocity": 72}, {"time": 1660, "pitch": 58, "duration": 3, "velocity": 78}, {"time": 1660, "pitch": 67, "duration": 3, "velocity": 77}, {"time": 1666, "pitch": 58, "duration": 3, "velocity": 83}, {"time": 1666, "pitch": 63, "duration": 2, "velocity": 84}, {"time": 1675, "pitch": 51, "duration": 10, "velocity": 82}, {"time": 1675, "pitch": 58, "duration": 3, "velocity": 80}, {"time": 1675, "pitch": 66, "duration": 6, "velocity": 78}, {"time": 1681, "pitch": 58, "duration": 2, "velocity": 57}, {"time": 1684, "pitch": 58, "duration": 3, "velocity": 80}, {"time": 1684, "pitch": 63, "duration": 4, "velocity": 82}, {"time": 1696, "pitch": 60, "duration": 1, "velocity": 76}, {"time": 1696, "pitch": 61, "duration": 2, "velocity": 78}, {"time": 1699, "pitch": 44, "duration": 20, "velocity": 83}, {"time": 1699, "pitch": 60, "duration": 5, "velocity": 82}, {"time": 1705, "pitch": 51, "duration": 9, "velocity": 75}, {"time": 1708, "pitch": 56, "duration": 1, "velocity": 76}, {"time": 1714, "pitch": 56, "duration": 2, "velocity": 83}, {"time": 1714, "pitch": 60, "duration": 2, "velocity": 83}, {"time": 1714, "pitch": 63, "duration": 3, "velocity": 83}, {"time": 1717, "pitch": 51, "duration": 2, "velocity": 74}, {"time": 1720, "pitch": 56, "duration": 1, "velocity": 77}, {"time": 1723, "pitch": 49, "duration": 15, "velocity": 80}, {"time": 1723, "pitch": 56, "duration": 4, "velocity": 81}, {"time": 1723, "pitch": 61, "duration": 6, "velocity": 82}, {"time": 1729, "pitch": 56, "duration": 1, "velocity": 62}, {"time": 1732, "pitch": 56, "duration": 2, "velocity": 79}, {"time": 1732, "pitch": 65, "duration": 3, "velocity": 83}, {"time": 1738, "pitch": 56, "duration": 2, "velocity": 77}, {"time": 1738, "pitch": 61, "duration": 1, "velocity": 78}, {"time": 1747, "pitch": 42, "duration": 17, "velocity": 82}, {"time": 1747, "pitch": 54, "duration": 7, "velocity": 72}, {"time": 1747, "pitch": 58, "duration": 6, "velocity": 68}, {"time": 1753, "pitch": 49, "duration": 10, "velocity": 67}, {"time": 1756, "pitch": 61, "duration": 4, "velocity": 79}, {"time": 1762, "pitch": 54, "duration": 2, "velocity": 78}, {"time": 1762, "pitch": 66, "duration": 2, "velocity": 83}, {"time": 1771, "pitch": 44, "duration": 20, "velocity": 82}, {"time": 1771, "pitch": 56, "duration": 5, "velocity": 77}, {"time": 1771, "pitch": 60, "duration": 6, "velocity": 79}, {"time": 1777, "pitch": 51, "duration": 4, "velocity": 66}, {"time": 1780, "pitch": 51, "duration": 1, "velocity": 64}, {"time": 1780, "pitch": 56, "duration": 3, "velocity": 82}, {"time": 1780, "pitch": 63, "duration": 3, "velocity": 82}, {"time": 1786, "pitch": 56, "duration": 2, "velocity": 78}, {"time": 1786, "pitch": 60, "duration": 2, "velocity": 81}, {"time": 1795, "pitch": 49, "duration": 19, "velocity": 82}, {"time": 1795, "pitch": 56, "duration": 3, "velocity": 77}, {"time": 1795, "pitch": 61, "duration": 6, "velocity": 78}, {"time": 1807, "pitch": 56, "duration": 3, "velocity": 84}, {"time": 1807, "pitch": 65, "duration": 3, "velocity": 86}, {"time": 1813, "pitch": 56, "duration": 2, "velocity": 74}, {"time": 1813, "pitch": 60, "duration": 4, "velocity": 76}, {"time": 1819, "pitch": 46, "duration": 22, "velocity": 83}, {"time": 1819, "pitch": 58, "duration": 5, "velocity": 73}, {"time": 1819, "pitch": 61, "duration": 5, "velocity": 78}, {"time": 1825, "pitch": 53, "duration": 13, "velocity": 65}, {"time": 1828, "pitch": 58, "duration": 3, "velocity": 79}, {"time": 1828, "pitch": 65, "duration": 3, "velocity": 83}, {"time": 1834, "pitch": 58, "duration": 2, "velocity": 77}, {"time": 1834, "pitch": 61, "duration": 2, "velocity": 82}, {"time": 1843, "pitch": 51, "duration": 15, "velocity": 78}, {"time": 1843, "pitch": 58, "duration": 3, "velocity": 79}, {"time": 1843, "pitch": 63, "duration": 6, "velocity": 81}, {"time": 1852, "pitch": 58, "duration": 3, "velocity": 82}, {"time": 1852, "pitch": 67, "duration": 3, "velocity": 82}, {"time": 1858, "pitch": 58, "duration": 2, "velocity": 81}, {"time": 1858, "pitch": 63, "duration": 1, "velocity": 82}, {"time": 1867, "pitch": 39, "duration": 5, "velocity": 83}, {"time": 1867, "pitch": 58, "duration": 3, "velocity": 78}, {"time": 1867, "pitch": 63, "duration": 6, "velocity": 78}, {"time": 1867, "pitch": 66, "duration": 6, "velocity": 82}, {"time": 1873, "pitch": 58, "duration": 3, "velocity": 75}, {"time": 1876, "pitch": 63, "duration": 1, "velocity": 72}, {"time": 1879, "pitch": 44, "duration": 10, "velocity": 83}, {"time": 1879, "pitch": 56, "duration": 7, "velocity": 83}, {"time": 1879, "pitch": 60, "duration": 7, "velocity": 84}, {"time": 1885, "pitch": 51, "duration": 4, "velocity": 75}, {"time": 1891, "pitch": 49, "duration": 25, "velocity": 78}, {"time": 1891, "pitch": 56, "duration": 4, "velocity": 83}, {"time": 1891, "pitch": 61, "duration": 6, "velocity": 84}, {"time": 1897, "pitch": 56, "duration": 1, "velocity": 69}, {"time": 1900, "pitch": 56, "duration": 3, "velocity": 88}, {"time": 1900, "pitch": 65, "duration": 3, "velocity": 88}, {"time": 1906, "pitch": 56, "duration": 2, "velocity": 85}, {"time": 1906, "pitch": 61, "duration": 4, "velocity": 85}, {"time": 1909, "pitch": 56, "duration": 4, "velocity": 87}, {"time": 1912, "pitch": 61, "duration": 2, "velocity": 80}, {"time": 1915, "pitch": 42, "duration": 16, "velocity": 82}, {"time": 1915, "pitch": 61, "duration": 3, "velocity": 78}, {"time": 1915, "pitch": 66, "duration": 6, "velocity": 76}, {"time": 1915, "pitch": 70, "duration": 6, "velocity": 82}, {"time": 1921, "pitch": 61, "duration": 1, "velocity": 67}, {"time": 1924, "pitch": 61, "duration": 4, "velocity": 83}, {"time": 1924, "pitch": 66, "duration": 4, "velocity": 83}, {"time": 1930, "pitch": 61, "duration": 2, "velocity": 85}, {"time": 1930, "pitch": 66, "duration": 2, "velocity": 82}, {"time": 1930, "pitch": 70, "duration": 3, "velocity": 76}, {"time": 1939, "pitch": 41, "duration": 14, "velocity": 84}, {"time": 1939, "pitch": 65, "duration": 4, "velocity": 83}, {"time": 1939, "pitch": 68, "duration": 5, "velocity": 78}, {"time": 1945, "pitch": 48, "duration": 6, "velocity": 59}, {"time": 1948, "pitch": 65, "duration": 2, "velocity": 93}, {"time": 1948, "pitch": 72, "duration": 2, "velocity": 89}, {"time": 1954, "pitch": 65, "duration": 2, "velocity": 84}, {"time": 1954, "pitch": 68, "duration": 1, "velocity": 83}, {"time": 1963, "pitch": 46, "duration": 23, "velocity": 83}, {"time": 1963, "pitch": 58, "duration": 4, "velocity": 80}, {"time": 1963, "pitch": 61, "duration": 5, "velocity": 82}, {"time": 1969, "pitch": 53, "duration": 4, "velocity": 59}, {"time": 1972, "pitch": 58, "duration": 3, "velocity": 75}, {"time": 1972, "pitch": 61, "duration": 2, "velocity": 82}, {"time": 1972, "pitch": 65, "duration": 3, "velocity": 83}, {"time": 1975, "pitch": 53, "duration": 5, "velocity": 66}, {"time": 1978, "pitch": 58, "duration": 2, "velocity": 83}, {"time": 1978, "pitch": 70, "duration": 2, "velocity": 83}, {"time": 1981, "pitch": 53, "duration": 4, "velocity": 37}, {"time": 1984, "pitch": 58, "duration": 1, "velocity": 63}, {"time": 1987, "pitch": 46, "duration": 10, "velocity": 83}, {"time": 1987, "pitch": 58, "duration": 3, "velocity": 77}, {"time": 1987, "pitch": 61, "duration": 4, "velocity": 84}, {"time": 1987, "pitch": 65, "duration": 5, "velocity": 85}, {"time": 1993, "pitch": 58, "duration": 2, "velocity": 64}, {"time": 1996, "pitch": 61, "duration": 1, "velocity": 82}, {"time": 1996, "pitch": 65, "duration": 1, "velocity": 66}, {"time": 1999, "pitch": 44, "duration": 7, "velocity": 79}, {"time": 1999, "pitch": 56, "duration": 5, "velocity": 84}, {"time": 1999, "pitch": 60, "duration": 5, "velocity": 85}, {"time": 2011, "pitch": 42, "duration": 15, "velocity": 84}, {"time": 2011, "pitch": 54, "duration": 6, "velocity": 79}, {"time": 2011, "pitch": 58, "duration": 6, "velocity": 78}, {"time": 2017, "pitch": 61, "duration": 1, "velocity": 74}, {"time": 2020, "pitch": 54, "duration": 2, "velocity": 85}, {"time": 2020, "pitch": 66, "duration": 2, "velocity": 84}, {"time": 2026, "pitch": 54, "duration": 1, "velocity": 72}, {"time": 2026, "pitch": 58, "duration": 2, "velocity": 82}, {"time": 2026, "pitch": 61, "duration": 3, "velocity": 82}, {"time": 2035, "pitch": 41, "duration": 16, "velocity": 84}, {"time": 2035, "pitch": 53, "duration": 7, "velocity": 79}, {"time": 2035, "pitch": 56, "duration": 6, "velocity": 78}, {"time": 2041, "pitch": 60, "duration": 1, "velocity": 66}, {"time": 2044, "pitch": 53, "duration": 2, "velocity": 84}, {"time": 2044, "pitch": 65, "duration": 2, "velocity": 86}, {"time": 2047, "pitch": 48, "duration": 3, "velocity": 69}, {"time": 2050, "pitch": 53, "duration": 1, "velocity": 83}, {"time": 2050, "pitch": 56, "duration": 3, "velocity": 83}, {"time": 2050, "pitch": 60, "duration": 3, "velocity": 84}, {"time": 2053, "pitch": 41, "duration": 2, "velocity": 68}, {"time": 2056, "pitch": 53, "duration": 2, "velocity": 88}, {"time": 2059, "pitch": 46, "duration": 22, "velocity": 83}, {"time": 2062, "pitch": 53, "duration": 7, "velocity": 59}, {"time": 2065, "pitch": 58, "duration": 1, "velocity": 70}, {"time": 2068, "pitch": 58, "duration": 3, "velocity": 83}, {"time": 2068, "pitch": 61, "duration": 3, "velocity": 86}, {"time": 2071, "pitch": 53, "duration": 4, "velocity": 65}, {"time": 2074, "pitch": 58, "duration": 3, "velocity": 80}, {"time": 2074, "pitch": 61, "duration": 3, "velocity": 83}, {"time": 2074, "pitch": 65, "duration": 3, "velocity": 86}, {"time": 2077, "pitch": 53, "duration": 4, "velocity": 71}, {"time": 2080, "pitch": 58, "duration": 2, "velocity": 76}, {"time": 2083, "pitch": 46, "duration": 11, "velocity": 84}, {"time": 2083, "pitch": 58, "duration": 6, "velocity": 83}, {"time": 2083, "pitch": 61, "duration": 6, "velocity": 85}, {"time": 2089, "pitch": 53, "duration": 5, "velocity": 76}, {"time": 2092, "pitch": 58, "duration": 1, "velocity": 74}, {"time": 2095, "pitch": 46, "duration": 4, "velocity": 84}, {"time": 2095, "pitch": 53, "duration": 4, "velocity": 91}, {"time": 2095, "pitch": 58, "duration": 6, "velocity": 86}, {"time": 2095, "pitch": 61, "duration": 7, "velocity": 89}, {"time": 2101, "pitch": 46, "duration": 3, "velocity": 82}, {"time": 2107, "pitch": 42, "duration": 16, "velocity": 82}, {"time": 2107, "pitch": 61, "duration": 5, "velocity": 84}, {"time": 2107, "pitch": 70, "duration": 6, "velocity": 82}, {"time": 2113, "pitch": 49, "duration": 10, "velocity": 72}, {"time": 2116, "pitch": 61, "duration": 4, "velocity": 83}, {"time": 2122, "pitch": 61, "duration": 3, "velocity": 84}, {"time": 2122, "pitch": 66, "duration": 3, "velocity": 84}, {"time": 2122, "pitch": 70, "duration": 4, "velocity": 80}, {"time": 2131, "pitch": 41, "duration": 15, "velocity": 85}, {"time": 2131, "pitch": 65, "duration": 6, "velocity": 84}, {"time": 2131, "pitch": 68, "duration": 6, "velocity": 84}, {"time": 2137, "pitch": 48, "duration": 8, "velocity": 57}, {"time": 2140, "pitch": 65, "duration": 2, "velocity": 86}, {"time": 2140, "pitch": 72, "duration": 2, "velocity": 88}, {"time": 2146, "pitch": 65, "duration": 2, "velocity": 84}, {"time": 2146, "pitch": 68, "duration": 2, "velocity": 82}, {"time": 2155, "pitch": 46, "duration": 22, "velocity": 83}, {"time": 2155, "pitch": 58, "duration": 6, "velocity": 82}, {"time": 2155, "pitch": 61, "duration": 6, "velocity": 82}, {"time": 2161, "pitch": 53, "duration": 4, "velocity": 68}, {"time": 2164, "pitch": 58, "duration": 3, "velocity": 74}, {"time": 2164, "pitch": 61, "duration": 3, "velocity": 83}, {"time": 2164, "pitch": 65, "duration": 3, "velocity": 84}, {"time": 2167, "pitch": 53, "duration": 4, "velocity": 75}, {"time": 2170, "pitch": 58, "duration": 3, "velocity": 83}, {"time": 2170, "pitch": 61, "duration": 3, "velocity": 88}, {"time": 2170, "pitch": 70, "duration": 3, "velocity": 83}, {"time": 2173, "pitch": 53, "duration": 4, "velocity": 79}, {"time": 2176, "pitch": 58, "duration": 2, "velocity": 71}, {"time": 2179, "pitch": 41, "duration": 16, "velocity": 83}, {"time": 2179, "pitch": 65, "duration": 6, "velocity": 86}, {"time": 2179, "pitch": 68, "duration": 6, "velocity": 84}, {"time": 2185, "pitch": 48, "duration": 9, "velocity": 62}, {"time": 2188, "pitch": 65, "duration": 3, "velocity": 87}, {"time": 2188, "pitch": 72, "duration": 3, "velocity": 87}, {"time": 2194, "pitch": 65, "duration": 2, "velocity": 87}, {"time": 2194, "pitch": 68, "duration": 3, "velocity": 83}, {"time": 2203, "pitch": 39, "duration": 23, "velocity": 84}, {"time": 2203, "pitch": 63, "duration": 2, "velocity": 81}, {"time": 2203, "pitch": 66, "duration": 2, "velocity": 83}, {"time": 2203, "pitch": 70, "duration": 2, "velocity": 82}, {"time": 2209, "pitch": 58, "duration": 3, "velocity": 71}, {"time": 2209, "pitch": 63, "duration": 3, "velocity": 77}, {"time": 2209, "pitch": 66, "duration": 3, "velocity": 74}, {"time": 2215, "pitch": 58, "duration": 3, "velocity": 87}, {"time": 2215, "pitch": 66, "duration": 3, "velocity": 93}, {"time": 2224, "pitch": 58, "duration": 1, "velocity": 74}, {"time": 2227, "pitch": 39, "duration": 10, "velocity": 88}, {"time": 2227, "pitch": 58, "duration": 3, "velocity": 83}, {"time": 2227, "pitch": 63, "duration": 6, "velocity": 83}, {"time": 2233, "pitch": 58, "duration": 1, "velocity": 73}, {"time": 2236, "pitch": 58, "duration": 3, "velocity": 87}, {"time": 2236, "pitch": 66, "duration": 4, "velocity": 85}, {"time": 2242, "pitch": 58, "duration": 1, "velocity": 91}, {"time": 2242, "pitch": 63, "duration": 1, "velocity": 87}, {"time": 2251, "pitch": 41, "duration": 18, "velocity": 88}, {"time": 2251, "pitch": 60, "duration": 2, "velocity": 85}, {"time": 2251, "pitch": 65, "duration": 3, "velocity": 87}, {"time": 2257, "pitch": 48, "duration": 4, "velocity": 68}, {"time": 2260, "pitch": 65, "duration": 1, "velocity": 89}, {"time": 2260, "pitch": 72, "duration": 2, "velocity": 88}, {"time": 2263, "pitch": 48, "duration": 5, "velocity": 58}, {"time": 2266, "pitch": 65, "duration": 2, "velocity": 83}, {"time": 2266, "pitch": 69, "duration": 2, "velocity": 84}, {"time": 2275, "pitch": 41, "duration": 7, "velocity": 86}, {"time": 2275, "pitch": 48, "duration": 7, "velocity": 82}, {"time": 2275, "pitch": 65, "duration": 3, "velocity": 84}, {"time": 2275, "pitch": 69, "duration": 3, "velocity": 82}, {"time": 2275, "pitch": 72, "duration": 3, "velocity": 83}, {"time": 2275, "pitch": 77, "duration": 4, "velocity": 82}, {"time": 2287, "pitch": 56, "duration": 3, "velocity": 87}, {"time": 2290, "pitch": 58, "duration": 8, "velocity": 77}, {"time": 2293, "pitch": 61, "duration": 5, "velocity": 77}, {"time": 2299, "pitch": 42, "duration": 17, "velocity": 83}, {"time": 2299, "pitch": 54, "duration": 4, "velocity": 74}, {"time": 2299, "pitch": 58, "duration": 5, "velocity": 72}, {"time": 2299, "pitch": 61, "duration": 6, "velocity": 78}, {"time": 2305, "pitch": 49, "duration": 4, "velocity": 62}, {"time": 2308, "pitch": 54, "duration": 4, "velocity": 84}, {"time": 2308, "pitch": 66, "duration": 3, "velocity": 83}, {"time": 2311, "pitch": 49, "duration": 5, "velocity": 51}, {"time": 2314, "pitch": 54, "duration": 2, "velocity": 82}, {"time": 2314, "pitch": 58, "duration": 6, "velocity": 84}, {"time": 2314, "pitch": 61, "duration": 7, "velocity": 84}, {"time": 2320, "pitch": 54, "duration": 1, "velocity": 78}, {"time": 2323, "pitch": 44, "duration": 15, "velocity": 82}, {"time": 2323, "pitch": 56, "duration": 10, "velocity": 83}, {"time": 2323, "pitch": 60, "duration": 7, "velocity": 83}, {"time": 2329, "pitch": 51, "duration": 7, "velocity": 67}, {"time": 2335, "pitch": 56, "duration": 5, "velocity": 85}, {"time": 2335, "pitch": 60, "duration": 5, "velocity": 93}, {"time": 2335, "pitch": 63, "duration": 6, "velocity": 85}, {"time": 2341, "pitch": 51, "duration": 1, "velocity": 77}, {"time": 2347, "pitch": 53, "duration": 14, "velocity": 78}, {"time": 2347, "pitch": 54, "duration": 2, "velocity": 79}, {"time": 2347, "pitch": 60, "duration": 4, "velocity": 83}, {"time": 2347, "pitch": 65, "duration": 7, "velocity": 84}, {"time": 2353, "pitch": 60, "duration": 2, "velocity": 83}, {"time": 2356, "pitch": 60, "duration": 4, "velocity": 84}, {"time": 2356, "pitch": 65, "duration": 3, "velocity": 83}, {"time": 2356, "pitch": 68, "duration": 3, "velocity": 82}, {"time": 2362, "pitch": 60, "duration": 2, "velocity": 85}, {"time": 2362, "pitch": 65, "duration": 3, "velocity": 86}, {"time": 2368, "pitch": 60, "duration": 1, "velocity": 80}, {"time": 2371, "pitch": 46, "duration": 18, "velocity": 82}, {"time": 2371, "pitch": 58, "duration": 7, "velocity": 83}, {"time": 2371, "pitch": 61, "duration": 6, "velocity": 84}, {"time": 2377, "pitch": 53, "duration": 6, "velocity": 69}, {"time": 2383, "pitch": 58, "duration": 3, "velocity": 85}, {"time": 2383, "pitch": 65, "duration": 3, "velocity": 87}, {"time": 2386, "pitch": 53, "duration": 3, "velocity": 81}, {"time": 2389, "pitch": 58, "duration": 1, "velocity": 71}, {"time": 2389, "pitch": 61, "duration": 2, "velocity": 85}, {"time": 2392, "pitch": 58, "duration": 1, "velocity": 71}, {"time": 2395, "pitch": 51, "duration": 11, "velocity": 84}, {"time": 2395, "pitch": 58, "duration": 3, "velocity": 83}, {"time": 2395, "pitch": 63, "duration": 5, "velocity": 82}, {"time": 2404, "pitch": 58, "duration": 2, "velocity": 86}, {"time": 2404, "pitch": 66, "duration": 2, "velocity": 83}, {"time": 2410, "pitch": 58, "duration": 1, "velocity": 82}, {"time": 2410, "pitch": 63, "duration": 3, "velocity": 83}, {"time": 2416, "pitch": 58, "duration": 1, "velocity": 62}, {"time": 2419, "pitch": 44, "duration": 19, "velocity": 82}, {"time": 2419, "pitch": 56, "duration": 4, "velocity": 82}, {"time": 2419, "pitch": 60, "duration": 4, "velocity": 81}, {"time": 2422, "pitch": 51, "duration": 15, "velocity": 71}, {"time": 2425, "pitch": 56, "duration": 1, "velocity": 66}, {"time": 2425, "pitch": 63, "duration": 1, "velocity": 77}, {"time": 2428, "pitch": 56, "duration": 3, "velocity": 82}, {"time": 2428, "pitch": 68, "duration": 3, "velocity": 83}, {"time": 2434, "pitch": 56, "duration": 2, "velocity": 83}, {"time": 2434, "pitch": 63, "duration": 3, "velocity": 83}, {"time": 2443, "pitch": 49, "duration": 18, "velocity": 84}, {"time": 2443, "pitch": 56, "duration": 3, "velocity": 83}, {"time": 2443, "pitch": 61, "duration": 6, "velocity": 81}, {"time": 2449, "pitch": 56, "duration": 1, "velocity": 69}, {"time": 2452, "pitch": 56, "duration": 3, "velocity": 86}, {"time": 2452, "pitch": 65, "duration": 3, "velocity": 86}, {"time": 2458, "pitch": 56, "duration": 2, "velocity": 84}, {"time": 2458, "pitch": 61, "duration": 2, "velocity": 84}, {"time": 2467, "pitch": 44, "duration": 19, "velocity": 83}, {"time": 2467, "pitch": 56, "duration": 4, "velocity": 74}, {"time": 2467, "pitch": 59, "duration": 6, "velocity": 73}, {"time": 2467, "pitch": 61, "duration": 3, "velocity": 82}, {"time": 2467, "pitch": 63, "duration": 3, "velocity": 79}, {"time": 2467, "pitch": 65, "duration": 10, "velocity": 83}, {"time": 2479, "pitch": 56, "duration": 6, "velocity": 84}, {"time": 2479, "pitch": 59, "duration": 6, "velocity": 86}, {"time": 2479, "pitch": 63, "duration": 7, "velocity": 84}, {"time": 2479, "pitch": 65, "duration": 8, "velocity": 86}, {"time": 2485, "pitch": 51, "duration": 2, "velocity": 80}, {"time": 2488, "pitch": 56, "duration": 1, "velocity": 83}, {"time": 2491, "pitch": 42, "duration": 16, "velocity": 83}, {"time": 2491, "pitch": 54, "duration": 6, "velocity": 81}, {"time": 2491, "pitch": 58, "duration": 6, "velocity": 82}, {"time": 2497, "pitch": 49, "duration": 3, "velocity": 60}, {"time": 2500, "pitch": 54, "duration": 2, "velocity": 83}, {"time": 2500, "pitch": 58, "duration": 2, "velocity": 88}, {"time": 2500, "pitch": 61, "duration": 3, "velocity": 85}, {"time": 2503, "pitch": 49, "duration": 3, "velocity": 71}, {"time": 2506, "pitch": 54, "duration": 2, "velocity": 87}, {"time": 2506, "pitch": 66, "duration": 2, "velocity": 83}, {"time": 2515, "pitch": 44, "duration": 17, "velocity": 82}, {"time": 2515, "pitch": 56, "duration": 6, "velocity": 80}, {"time": 2515, "pitch": 60, "duration": 7, "velocity": 78}, {"time": 2521, "pitch": 51, "duration": 4, "velocity": 68}, {"time": 2524, "pitch": 56, "duration": 3, "velocity": 85}, {"time": 2524, "pitch": 60, "duration": 3, "velocity": 86}, {"time": 2524, "pitch": 63, "duration": 3, "velocity": 84}, {"time": 2527, "pitch": 51, "duration": 4, "velocity": 65}, {"time": 2530, "pitch": 56, "duration": 2, "velocity": 86}, {"time": 2530, "pitch": 68, "duration": 3, "velocity": 79}, {"time": 2539, "pitch": 41, "duration": 11, "velocity": 84}, {"time": 2539, "pitch": 60, "duration": 3, "velocity": 78}, {"time": 2539, "pitch": 65, "duration": 6, "velocity": 82}, {"time": 2545, "pitch": 60, "duration": 1, "velocity": 70}, {"time": 2548, "pitch": 60, "duration": 3, "velocity": 85}, {"time": 2548, "pitch": 68, "duration": 3, "velocity": 83}, {"time": 2554, "pitch": 60, "duration": 2, "velocity": 86}, {"time": 2554, "pitch": 65, "duration": 1, "velocity": 87}, {"time": 2563, "pitch": 46, "duration": 20, "velocity": 83}, {"time": 2563, "pitch": 58, "duration": 6, "velocity": 77}, {"time": 2563, "pitch": 61, "duration": 6, "velocity": 79}, {"time": 2569, "pitch": 53, "duration": 7, "velocity": 62}, {"time": 2572, "pitch": 58, "duration": 1, "velocity": 72}, {"time": 2575, "pitch": 58, "duration": 3, "velocity": 89}, {"time": 2575, "pitch": 65, "duration": 3, "velocity": 89}, {"time": 2578, "pitch": 53, "duration": 4, "velocity": 82}, {"time": 2581, "pitch": 58, "duration": 3, "velocity": 81}, {"time": 2581, "pitch": 62, "duration": 2, "velocity": 82}, {"time": 2587, "pitch": 51, "duration": 17, "velocity": 85}, {"time": 2587, "pitch": 58, "duration": 4, "velocity": 83}, {"time": 2587, "pitch": 63, "duration": 6, "velocity": 83}, {"time": 2596, "pitch": 58, "duration": 3, "velocity": 84}, {"time": 2596, "pitch": 66, "duration": 4, "velocity": 82}, {"time": 2611, "pitch": 44, "duration": 19, "velocity": 83}, {"time": 2611, "pitch": 56, "duration": 4, "velocity": 78}, {"time": 2611, "pitch": 60, "duration": 4, "velocity": 82}, {"time": 2614, "pitch": 51, "duration": 10, "velocity": 76}, {"time": 2617, "pitch": 60, "duration": 1, "velocity": 68}, {"time": 2617, "pitch": 63, "duration": 3, "velocity": 76}, {"time": 2623, "pitch": 56, "duration": 3, "velocity": 83}, {"time": 2623, "pitch": 68, "duration": 3, "velocity": 82}, {"time": 2626, "pitch": 51, "duration": 4, "velocity": 75}, {"time": 2629, "pitch": 56, "duration": 2, "velocity": 83}, {"time": 2635, "pitch": 37, "duration": 1, "velocity": 79}, {"time": 2635, "pitch": 56, "duration": 6, "velocity": 82}, {"time": 2635, "pitch": 61, "duration": 6, "velocity": 78}, {"time": 2641, "pitch": 49, "duration": 31, "velocity": 75}, {"time": 2647, "pitch": 56, "duration": 2, "velocity": 85}, {"time": 2647, "pitch": 65, "duration": 2, "velocity": 87}, {"time": 2656, "pitch": 56, "duration": 5, "velocity": 79}, {"time": 2656, "pitch": 61, "duration": 5, "velocity": 79}, {"time": 2662, "pitch": 56, "duration": 4, "velocity": 82}, {"time": 2662, "pitch": 61, "duration": 7, "velocity": 79}, {"time": 2668, "pitch": 56, "duration": 1, "velocity": 61}, {"time": 2671, "pitch": 56, "duration": 3, "velocity": 89}, {"time": 2671, "pitch": 65, "duration": 3, "velocity": 87}, {"time": 2674, "pitch": 49, "duration": 1, "velocity": 82}, {"time": 2677, "pitch": 56, "duration": 2, "velocity": 82}, {"time": 2683, "pitch": 49, "duration": 16, "velocity": 84}, {"time": 2683, "pitch": 56, "duration": 4, "velocity": 77}, {"time": 2683, "pitch": 61, "duration": 4, "velocity": 78}, {"time": 2695, "pitch": 61, "duration": 3, "velocity": 84}, {"time": 2695, "pitch": 65, "duration": 3, "velocity": 87}, {"time": 2698, "pitch": 56, "duration": 1, "velocity": 53}, {"time": 2701, "pitch": 49, "duration": 1, "velocity": 65}, {"time": 2701, "pitch": 56, "duration": 1, "velocity": 71}, {"time": 2704, "pitch": 61, "duration": 2, "velocity": 86}, {"time": 2704, "pitch": 65, "duration": 2, "velocity": 91}, {"time": 2704, "pitch": 71, "duration": 2, "velocity": 83}, {"time": 2707, "pitch": 49, "duration": 1, "velocity": 55}, {"time": 2710, "pitch": 61, "duration": 2, "velocity": 75}, {"time": 2710, "pitch": 65, "duration": 2, "velocity": 81}, {"time": 2710, "pitch": 70, "duration": 3, "velocity": 77}, {"time": 2716, "pitch": 61, "duration": 7, "velocity": 80}, {"time": 2716, "pitch": 65, "duration": 7, "velocity": 83}, {"time": 2716, "pitch": 68, "duration": 7, "velocity": 82}, {"time": 2722, "pitch": 56, "duration": 2, "velocity": 75}, {"time": 2725, "pitch": 61, "duration": 2, "velocity": 78}, {"time": 2731, "pitch": 37, "duration": 18, "velocity": 84}, {"time": 2731, "pitch": 49, "duration": 9, "velocity": 75}, {"time": 2731, "pitch": 61, "duration": 4, "velocity": 77}, {"time": 2731, "pitch": 65, "duration": 5, "velocity": 82}, {"time": 2737, "pitch": 61, "duration": 1, "velocity": 63}, {"time": 2743, "pitch": 61, "duration": 2, "velocity": 86}, {"time": 2743, "pitch": 65, "duration": 2, "velocity": 93}, {"time": 2743, "pitch": 68, "duration": 2, "velocity": 85}, {"time": 2749, "pitch": 56, "duration": 2, "velocity": 62}, {"time": 2752, "pitch": 61, "duration": 2, "velocity": 83}, {"time": 2752, "pitch": 65, "duration": 1, "velocity": 86}, {"time": 2752, "pitch": 71, "duration": 2, "velocity": 82}, {"time": 2758, "pitch": 61, "duration": 2, "velocity": 74}, {"time": 2758, "pitch": 65, "duration": 2, "velocity": 80}, {"time": 2758, "pitch": 70, "duration": 4, "velocity": 81}, {"time": 2764, "pitch": 61, "duration": 6, "velocity": 83}, {"time": 2764, "pitch": 65, "duration": 7, "velocity": 86}, {"time": 2764, "pitch": 68, "duration": 7, "velocity": 83}, {"time": 2770, "pitch": 56, "duration": 7, "velocity": 74}, {"time": 2773, "pitch": 61, "duration": 2, "velocity": 76}, {"time": 2779, "pitch": 37, "duration": 1, "velocity": 79}, {"time": 2779, "pitch": 56, "duration": 6, "velocity": 82}, {"time": 2779, "pitch": 61, "duration": 6, "velocity": 78}, {"time": 2785, "pitch": 49, "duration": 31, "velocity": 75}, {"time": 2791, "pitch": 56, "duration": 2, "velocity": 85}, {"time": 2791, "pitch": 65, "duration": 2, "velocity": 87}, {"time": 2800, "pitch": 56, "duration": 5, "velocity": 79}, {"time": 2800, "pitch": 61, "duration": 5, "velocity": 79}, {"time": 2806, "pitch": 56, "duration": 4, "velocity": 82}, {"time": 2806, "pitch": 61, "duration": 7, "velocity": 79}, {"time": 2812, "pitch": 56, "duration": 1, "velocity": 61}, {"time": 2815, "pitch": 56, "duration": 3, "velocity": 89}, {"time": 2815, "pitch": 65, "duration": 3, "velocity": 87}, {"time": 2818, "pitch": 49, "duration": 1, "velocity": 82}, {"time": 2821, "pitch": 56, "duration": 2, "velocity": 82}, {"time": 2827, "pitch": 49, "duration": 16, "velocity": 84}, {"time": 2827, "pitch": 56, "duration": 4, "velocity": 77}, {"time": 2827, "pitch": 61, "duration": 4, "velocity": 78}, {"time": 2839, "pitch": 61, "duration": 3, "velocity": 84}, {"time": 2839, "pitch": 65, "duration": 3, "velocity": 87}, {"time": 2842, "pitch": 56, "duration": 1, "velocity": 53}, {"time": 2845, "pitch": 49, "duration": 1, "velocity": 65}, {"time": 2845, "pitch": 56, "duration": 1, "velocity": 71}, {"time": 2848, "pitch": 61, "duration": 2, "velocity": 86}, {"time": 2848, "pitch": 65, "duration": 2, "velocity": 91}, {"time": 2848, "pitch": 71, "duration": 2, "velocity": 83}, {"time": 2851, "pitch": 49, "duration": 1, "velocity": 55}, {"time": 2854, "pitch": 61, "duration": 2, "velocity": 75}, {"time": 2854, "pitch": 65, "duration": 2, "velocity": 81}, {"time": 2854, "pitch": 70, "duration": 3, "velocity": 77}, {"time": 2860, "pitch": 61, "duration": 7, "velocity": 80}, {"time": 2860, "pitch": 65, "duration": 7, "velocity": 83}, {"time": 2860, "pitch": 68, "duration": 7, "velocity": 82}, {"time": 2866, "pitch": 56, "duration": 2, "velocity": 75}, {"time": 2869, "pitch": 61, "duration": 2, "velocity": 78}, {"time": 2875, "pitch": 37, "duration": 18, "velocity": 84}, {"time": 2875, "pitch": 49, "duration": 9, "velocity": 75}, {"time": 2875, "pitch": 61, "duration": 4, "velocity": 77}, {"time": 2875, "pitch": 65, "duration": 5, "velocity": 82}, {"time": 2881, "pitch": 61, "duration": 1, "velocity": 63}, {"time": 2887, "pitch": 61, "duration": 2, "velocity": 86}, {"time": 2887, "pitch": 65, "duration": 2, "velocity": 93}, {"time": 2887, "pitch": 68, "duration": 2, "velocity": 85}, {"time": 2893, "pitch": 56, "duration": 2, "velocity": 62}, {"time": 2896, "pitch": 61, "duration": 2, "velocity": 83}, {"time": 2896, "pitch": 65, "duration": 1, "velocity": 86}, {"time": 2896, "pitch": 71, "duration": 2, "velocity": 82}, {"time": 2902, "pitch": 61, "duration": 2, "velocity": 74}, {"time": 2902, "pitch": 65, "duration": 2, "velocity": 80}, {"time": 2902, "pitch": 70, "duration": 4, "velocity": 81}, {"time": 2908, "pitch": 61, "duration": 6, "velocity": 83}, {"time": 2908, "pitch": 65, "duration": 7, "velocity": 86}, {"time": 2908, "pitch": 68, "duration": 7, "velocity": 83}, {"time": 2914, "pitch": 56, "duration": 7, "velocity": 74}, {"time": 2917, "pitch": 61, "duration": 2, "velocity": 76}, {"time": 2923, "pitch": 37, "duration": 1, "velocity": 79}, {"time": 2923, "pitch": 56, "duration": 6, "velocity": 82}, {"time": 2923, "pitch": 61, "duration": 6, "velocity": 78}, {"time": 2929, "pitch": 49, "duration": 31, "velocity": 75}, {"time": 2935, "pitch": 56, "duration": 2, "velocity": 85}, {"time": 2935, "pitch": 65, "duration": 2, "velocity": 87}, {"time": 2944, "pitch": 56, "duration": 5, "velocity": 79}, {"time": 2944, "pitch": 61, "duration": 5, "velocity": 79}, {"time": 2950, "pitch": 56, "duration": 4, "velocity": 82}, {"time": 2950, "pitch": 61, "duration": 7, "velocity": 79}, {"time": 2956, "pitch": 56, "duration": 1, "velocity": 61}, {"time": 2959, "pitch": 56, "duration": 3, "velocity": 89}, {"time": 2959, "pitch": 65, "duration": 3, "velocity": 87}, {"time": 2962, "pitch": 49, "duration": 1, "velocity": 82}, {"time": 2965, "pitch": 56, "duration": 2, "velocity": 82}, {"time": 2971, "pitch": 49, "duration": 16, "velocity": 84}, {"time": 2971, "pitch": 56, "duration": 4, "velocity": 77}, {"time": 2971, "pitch": 61, "duration": 4, "velocity": 78}, {"time": 2983, "pitch": 61, "duration": 3, "velocity": 84}, {"time": 2983, "pitch": 65, "duration": 3, "velocity": 87}, {"time": 2986, "pitch": 56, "duration": 1, "velocity": 53}, {"time": 2989, "pitch": 49, "duration": 1, "velocity": 65}, {"time": 2989, "pitch": 56, "duration": 1, "velocity": 71}, {"time": 2992, "pitch": 61, "duration": 2, "velocity": 86}, {"time": 2992, "pitch": 65, "duration": 2, "velocity": 91}, {"time": 2992, "pitch": 71, "duration": 2, "velocity": 83}, {"time": 2995, "pitch": 49, "duration": 1, "velocity": 55}, {"time": 2998, "pitch": 61, "duration": 2, "velocity": 75}, {"time": 2998, "pitch": 65, "duration": 2, "velocity": 81}, {"time": 2998, "pitch": 70, "duration": 3, "velocity": 77}, {"time": 3004, "pitch": 61, "duration": 7, "velocity": 80}, {"time": 3004, "pitch": 65, "duration": 7, "velocity": 83}, {"time": 3004, "pitch": 68, "duration": 7, "velocity": 82}, {"time": 3010, "pitch": 56, "duration": 2, "velocity": 75}, {"time": 3013, "pitch": 61, "duration": 2, "velocity": 78}, {"time": 3018, "pitch": 65, "duration": 9, "velocity": 85}, {"time": 3018, "pitch": 56, "duration": 4, "velocity": 86}, {"time": 3018, "pitch": 49, "duration": 9, "velocity": 89}, {"time": 3018, "pitch": 61, "duration": 7, "velocity": 84}, {"time": 3024, "pitch": 56, "duration": 3, "velocity": 82}, {"time": 3030, "pitch": 56, "duration": 6, "velocity": 83}, {"time": 3030, "pitch": 60, "duration": 6, "velocity": 87}, {"time": 3030, "pitch": 44, "duration": 12, "velocity": 87}, {"time": 3036, "pitch": 51, "duration": 6, "velocity": 83}, {"time": 3039, "pitch": 56, "duration": 2, "velocity": 86}, {"time": 3039, "pitch": 60, "duration": 1, "velocity": 66}, {"time": 3039, "pitch": 63, "duration": 1, "velocity": 66}, {"time": 3043, "pitch": 42, "duration": 17, "velocity": 83}, {"time": 3043, "pitch": 54, "duration": 4, "velocity": 74}, {"time": 3043, "pitch": 58, "duration": 5, "velocity": 72}, {"time": 3043, "pitch": 61, "duration": 6, "velocity": 78}, {"time": 3049, "pitch": 49, "duration": 4, "velocity": 62}, {"time": 3052, "pitch": 54, "duration": 4, "velocity": 84}, {"time": 3052, "pitch": 66, "duration": 3, "velocity": 83}, {"time": 3055, "pitch": 49, "duration": 5, "velocity": 51}, {"time": 3058, "pitch": 54, "duration": 2, "velocity": 82}, {"time": 3058, "pitch": 58, "duration": 6, "velocity": 84}, {"time": 3058, "pitch": 61, "duration": 7, "velocity": 84}, {"time": 3064, "pitch": 54, "duration": 1, "velocity": 78}, {"time": 3067, "pitch": 44, "duration": 15, "velocity": 82}, {"time": 3067, "pitch": 56, "duration": 10, "velocity": 83}, {"time": 3067, "pitch": 60, "duration": 7, "velocity": 83}, {"time": 3073, "pitch": 51, "duration": 7, "velocity": 67}, {"time": 3079, "pitch": 56, "duration": 5, "velocity": 85}, {"time": 3079, "pitch": 60, "duration": 5, "velocity": 93}, {"time": 3079, "pitch": 63, "duration": 6, "velocity": 85}, {"time": 3085, "pitch": 51, "duration": 1, "velocity": 77}, {"time": 3091, "pitch": 53, "duration": 14, "velocity": 78}, {"time": 3091, "pitch": 54, "duration": 2, "velocity": 79}, {"time": 3091, "pitch": 60, "duration": 4, "velocity": 83}, {"time": 3091, "pitch": 65, "duration": 7, "velocity": 84}, {"time": 3097, "pitch": 60, "duration": 2, "velocity": 83}, {"time": 3100, "pitch": 60, "duration": 4, "velocity": 84}, {"time": 3100, "pitch": 65, "duration": 3, "velocity": 83}, {"time": 3100, "pitch": 68, "duration": 3, "velocity": 82}, {"time": 3106, "pitch": 60, "duration": 2, "velocity": 85}, {"time": 3106, "pitch": 65, "duration": 3, "velocity": 86}, {"time": 3112, "pitch": 60, "duration": 1, "velocity": 80}, {"time": 3115, "pitch": 46, "duration": 18, "velocity": 82}, {"time": 3115, "pitch": 58, "duration": 7, "velocity": 83}, {"time": 3115, "pitch": 61, "duration": 6, "velocity": 84}, {"time": 3121, "pitch": 53, "duration": 6, "velocity": 69}, {"time": 3127, "pitch": 58, "duration": 3, "velocity": 85}, {"time": 3127, "pitch": 65, "duration": 3, "velocity": 87}, {"time": 3130, "pitch": 53, "duration": 3, "velocity": 81}, {"time": 3133, "pitch": 58, "duration": 1, "velocity": 71}, {"time": 3133, "pitch": 61, "duration": 2, "velocity": 85}, {"time": 3136, "pitch": 58, "duration": 1, "velocity": 71}, {"time": 3139, "pitch": 51, "duration": 11, "velocity": 84}, {"time": 3139, "pitch": 58, "duration": 3, "velocity": 83}, {"time": 3139, "pitch": 63, "duration": 5, "velocity": 82}, {"time": 3148, "pitch": 58, "duration": 2, "velocity": 86}, {"time": 3148, "pitch": 66, "duration": 2, "velocity": 83}, {"time": 3154, "pitch": 58, "duration": 1, "velocity": 82}, {"time": 3154, "pitch": 63, "duration": 3, "velocity": 83}, {"time": 3160, "pitch": 58, "duration": 1, "velocity": 62}, {"time": 3163, "pitch": 44, "duration": 19, "velocity": 82}, {"time": 3163, "pitch": 56, "duration": 4, "velocity": 82}, {"time": 3163, "pitch": 60, "duration": 4, "velocity": 81}, {"time": 3166, "pitch": 51, "duration": 15, "velocity": 71}, {"time": 3169, "pitch": 56, "duration": 1, "velocity": 66}, {"time": 3169, "pitch": 63, "duration": 1, "velocity": 77}, {"time": 3172, "pitch": 56, "duration": 3, "velocity": 82}, {"time": 3172, "pitch": 68, "duration": 3, "velocity": 83}, {"time": 3178, "pitch": 56, "duration": 2, "velocity": 83}, {"time": 3178, "pitch": 63, "duration": 3, "velocity": 83}, {"time": 3187, "pitch": 49, "duration": 18, "velocity": 84}, {"time": 3187, "pitch": 56, "duration": 3, "velocity": 83}, {"time": 3187, "pitch": 61, "duration": 6, "velocity": 81}, {"time": 3193, "pitch": 56, "duration": 1, "velocity": 69}, {"time": 3196, "pitch": 56, "duration": 3, "velocity": 86}, {"time": 3196, "pitch": 65, "duration": 3, "velocity": 86}, {"time": 3202, "pitch": 56, "duration": 2, "velocity": 84}, {"time": 3202, "pitch": 61, "duration": 2, "velocity": 84}, {"time": 3211, "pitch": 44, "duration": 19, "velocity": 83}, {"time": 3211, "pitch": 56, "duration": 4, "velocity": 74}, {"time": 3211, "pitch": 59, "duration": 6, "velocity": 73}, {"time": 3211, "pitch": 61, "duration": 3, "velocity": 82}, {"time": 3211, "pitch": 63, "duration": 3, "velocity": 79}, {"time": 3211, "pitch": 65, "duration": 10, "velocity": 83}, {"time": 3223, "pitch": 56, "duration": 6, "velocity": 84}, {"time": 3223, "pitch": 59, "duration": 6, "velocity": 86}, {"time": 3223, "pitch": 63, "duration": 7, "velocity": 84}, {"time": 3223, "pitch": 65, "duration": 8, "velocity": 86}, {"time": 3229, "pitch": 51, "duration": 2, "velocity": 80}, {"time": 3232, "pitch": 56, "duration": 1, "velocity": 83}, {"time": 3235, "pitch": 42, "duration": 16, "velocity": 83}, {"time": 3235, "pitch": 54, "duration": 6, "velocity": 81}, {"time": 3235, "pitch": 58, "duration": 6, "velocity": 82}, {"time": 3241, "pitch": 49, "duration": 3, "velocity": 60}, {"time": 3244, "pitch": 54, "duration": 2, "velocity": 83}, {"time": 3244, "pitch": 58, "duration": 2, "velocity": 88}, {"time": 3244, "pitch": 61, "duration": 3, "velocity": 85}, {"time": 3247, "pitch": 49, "duration": 3, "velocity": 71}, {"time": 3250, "pitch": 54, "duration": 2, "velocity": 87}, {"time": 3250, "pitch": 66, "duration": 2, "velocity": 83}, {"time": 3259, "pitch": 44, "duration": 17, "velocity": 82}, {"time": 3259, "pitch": 56, "duration": 6, "velocity": 80}, {"time": 3259, "pitch": 60, "duration": 7, "velocity": 78}, {"time": 3265, "pitch": 51, "duration": 4, "velocity": 68}, {"time": 3268, "pitch": 56, "duration": 3, "velocity": 85}, {"time": 3268, "pitch": 60, "duration": 3, "velocity": 86}, {"time": 3268, "pitch": 63, "duration": 3, "velocity": 84}, {"time": 3271, "pitch": 51, "duration": 4, "velocity": 65}, {"time": 3274, "pitch": 56, "duration": 2, "velocity": 86}, {"time": 3274, "pitch": 68, "duration": 3, "velocity": 79}, {"time": 3283, "pitch": 41, "duration": 11, "velocity": 84}, {"time": 3283, "pitch": 60, "duration": 3, "velocity": 78}, {"time": 3283, "pitch": 65, "duration": 6, "velocity": 82}, {"time": 3289, "pitch": 60, "duration": 1, "velocity": 70}, {"time": 3292, "pitch": 60, "duration": 3, "velocity": 85}, {"time": 3292, "pitch": 68, "duration": 3, "velocity": 83}, {"time": 3298, "pitch": 60, "duration": 2, "velocity": 86}, {"time": 3298, "pitch": 65, "duration": 1, "velocity": 87}, {"time": 3307, "pitch": 46, "duration": 20, "velocity": 83}, {"time": 3307, "pitch": 58, "duration": 6, "velocity": 77}, {"time": 3307, "pitch": 61, "duration": 6, "velocity": 79}, {"time": 3313, "pitch": 53, "duration": 7, "velocity": 62}, {"time": 3316, "pitch": 58, "duration": 1, "velocity": 72}, {"time": 3319, "pitch": 58, "duration": 3, "velocity": 89}, {"time": 3319, "pitch": 65, "duration": 3, "velocity": 89}, {"time": 3322, "pitch": 53, "duration": 4, "velocity": 82}, {"time": 3325, "pitch": 58, "duration": 3, "velocity": 81}, {"time": 3325, "pitch": 62, "duration": 2, "velocity": 82}, {"time": 3331, "pitch": 51, "duration": 17, "velocity": 85}, {"time": 3331, "pitch": 58, "duration": 4, "velocity": 83}, {"time": 3331, "pitch": 63, "duration": 6, "velocity": 83}, {"time": 3340, "pitch": 58, "duration": 3, "velocity": 84}, {"time": 3340, "pitch": 66, "duration": 4, "velocity": 82}, {"time": 3355, "pitch": 44, "duration": 19, "velocity": 83}, {"time": 3355, "pitch": 56, "duration": 4, "velocity": 78}, {"time": 3355, "pitch": 60, "duration": 4, "velocity": 82}, {"time": 3358, "pitch": 51, "duration": 10, "velocity": 76}, {"time": 3361, "pitch": 60, "duration": 1, "velocity": 68}, {"time": 3361, "pitch": 63, "duration": 3, "velocity": 76}, {"time": 3367, "pitch": 56, "duration": 3, "velocity": 83}, {"time": 3367, "pitch": 68, "duration": 3, "velocity": 82}, {"time": 3370, "pitch": 51, "duration": 4, "velocity": 75}, {"time": 3373, "pitch": 56, "duration": 2, "velocity": 83}, {"time": 3378, "pitch": 56, "duration": 23, "velocity": 70}, {"time": 3379, "pitch": 61, "duration": 22, "velocity": 78}, {"time": 3379, "pitch": 37, "duration": 22, "velocity": 78}, {"time": 3380, "pitch": 65, "duration": 20, "velocity": 78}], "annotations": [{"time": 45, "annotation": {"number": 64, "value": 127}, "group": "control_change"}, {"time": 67, "annotation": {"number": 64, "value": 0}, "group": "control_change"}, {"time": 70, "annotation": {"number": 64, "value": 127}, "group": "control_change"}, {"time": 92, "annotation": {"number": 64, "value": 0}, "group": "control_change"}, {"time": 94, "annotation": {"number": 64, "value": 127}, "group": "control_change"}, {"time": 114, "annotation": {"number": 64, "value": 0}, "group": "control_change"}, {"time": 116, "annotation": {"number": 64, "value": 127}, "group": "control_change"}, {"time": 139, "annotation": {"number": 64, "value": 0}, "group": "control_change"}, {"time": 142, "annotation": {"number": 64, "value": 127}, "group": "control_change"}, {"time": 162, "annotation": {"number": 64, "value": 0}, "group": "control_change"}, {"time": 164, "annotation": {"number": 64, "value": 127}, "group": "control_change"}, {"time": 185, "annotation": {"number": 64, "value": 0}, "group": "control_change"}, {"time": 187, "annotation": {"number": 64, "value": 127}, "group": "control_change"}, {"time": 210, "annotation": {"number": 64, "value": 0}, "group": "control_change"}, {"time": 212, "annotation": {"number": 64, "value": 127}, "group": "control_change"}, {"time": 234, "annotation": {"number": 64, "value": 0}, "group": "control_change"}, {"time": 239, "annotation": {"number": 64, "value": 127}, "group": "control_change"}, {"time": 258, "annotation": {"number": 64, "value": 0}, "group": "control_change"}, {"time": 263, "annotation": {"number": 64, "value": 127}, "group": "control_change"}, {"time": 282, "annotation": {"number": 64, "value": 0}, "group": "control_change"}, {"time": 288, "annotation": {"number": 64, "value": 127}, "group": "control_change"}, {"time": 306, "annotation": {"number": 64, "value": 0}, "group": "control_change"}, {"time": 308, "annotation": {"number": 64, "value": 127}, "group": "control_change"}, {"time": 330, "annotation": {"number": 64, "value": 0}, "group": "control_change"}, {"time": 336, "annotation": {"number": 64, "value": 127}, "group": "control_change"}, {"time": 354, "annotation": {"number": 64, "value": 0}, "group": "control_change"}, {"time": 356, "annotation": {"number": 64, "value": 127}, "group": "control_change"}, {"time": 377, "annotation": {"number": 64, "value": 0}, "group": "control_change"}, {"time": 380, "annotation": {"number": 64, "value": 127}, "group": "control_change"}, {"time": 403, "annotation": {"number": 64, "value": 0}, "group": "control_change"}, {"time": 404, "annotation": {"number": 64, "value": 127}, "group": "control_change"}, {"time": 426, "annotation": {"number": 64, "value": 0}, "group": "control_change"}, {"time": 428, "annotation": {"number": 64, "value": 127}, "group": "control_change"}, {"time": 449, "annotation": {"number": 64, "value": 0}, "group": "control_change"}, {"time": 456, "annotation": {"number": 64, "value": 127}, "group": "control_change"}, {"time": 474, "annotation": {"number": 64, "value": 0}, "group": "control_change"}, {"time": 479, "annotation": {"number": 64, "value": 127}, "group": "control_change"}, {"time": 497, "annotation": {"number": 64, "value": 0}, "group": "control_change"}, {"time": 500, "annotation": {"number": 64, "value": 127}, "group": "control_change"}, {"time": 522, "annotation": {"number": 64, "value": 0}, "group": "control_change"}, {"time": 524, "annotation": {"number": 64, "value": 127}, "group": "control_change"}, {"time": 545, "annotation": {"number": 64, "value": 0}, "group": "control_change"}, {"time": 548, "annotation": {"number": 64, "value": 127}, "group": "control_change"}, {"time": 569, "annotation": {"number": 64, "value": 0}, "group": "control_change"}, {"time": 570, "annotation": {"number": 64, "value": 127}, "group": "control_change"}, {"time": 571, "annotation": {"number": 64, "value": 127}, "group": "control_change"}, {"time": 583, "annotation": {"number": 64, "value": 0}, "group": "control_change"}, {"time": 585, "annotation": {"number": 64, "value": 127}, "group": "control_change"}, {"time": 594, "annotation": {"number": 64, "value": 0}, "group": "control_change"}, {"time": 597, "annotation": {"number": 64, "value": 127}, "group": "control_change"}, {"time": 614, "annotation": {"number": 64, "value": 0}, "group": "control_change"}, {"time": 642, "annotation": {"number": 64, "value": 0}, "group": "control_change"}, {"time": 646, "annotation": {"number": 64, "value": 127}, "group": "control_change"}, {"time": 666, "annotation": {"number": 64, "value": 0}, "group": "control_change"}, {"time": 670, "annotation": {"number": 64, "value": 127}, "group": "control_change"}, {"time": 691, "annotation": {"number": 64, "value": 0}, "group": "control_change"}, {"time": 692, "annotation": {"number": 64, "value": 127}, "group": "control_change"}, {"time": 702, "annotation": {"number": 64, "value": 0}, "group": "control_change"}, {"time": 704, "annotation": {"number": 64, "value": 127}, "group": "control_change"}, {"time": 713, "annotation": {"number": 64, "value": 0}, "group": "control_change"}, {"time": 716, "annotation": {"number": 64, "value": 127}, "group": "control_change"}, {"time": 737, "annotation": {"number": 64, "value": 0}, "group": "control_change"}, {"time": 741, "annotation": {"number": 64, "value": 127}, "group": "control_change"}, {"time": 762, "annotation": {"number": 64, "value": 0}, "group": "control_change"}, {"time": 764, "annotation": {"number": 64, "value": 127}, "group": "control_change"}, {"time": 786, "annotation": {"number": 64, "value": 0}, "group": "control_change"}, {"time": 787, "annotation": {"number": 64, "value": 127}, "group": "control_change"}, {"time": 811, "annotation": {"number": 64, "value": 0}, "group": "control_change"}, {"time": 811, "annotation": {"number": 64, "value": 127}, "group": "control_change"}, {"time": 835, "annotation": {"number": 64, "value": 0}, "group": "control_change"}, {"time": 839, "annotation": {"number": 64, "value": 127}, "group": "control_change"}, {"time": 859, "annotation": {"number": 64, "value": 0}, "group": "control_change"}, {"time": 863, "annotation": {"number": 64, "value": 127}, "group": "control_change"}, {"time": 882, "annotation": {"number": 64, "value": 0}, "group": "control_change"}, {"time": 883, "annotation": {"number": 64, "value": 127}, "group": "control_change"}, {"time": 906, "annotation": {"number": 64, "value": 127}, "group": "control_change"}, {"time": 930, "annotation": {"number": 64, "value": 0}, "group": "control_change"}, {"time": 932, "annotation": {"number": 64, "value": 127}, "group": "control_change"}, {"time": 952, "annotation": {"number": 64, "value": 0}, "group": "control_change"}, {"time": 955, "annotation": {"number": 64, "value": 127}, "group": "control_change"}, {"time": 980, "annotation": {"number": 64, "value": 0}, "group": "control_change"}, {"time": 1004, "annotation": {"number": 64, "value": 127}, "group": "control_change"}, {"time": 1028, "annotation": {"number": 64, "value": 0}, "group": "control_change"}, {"time": 1032, "annotation": {"number": 64, "value": 127}, "group": "control_change"}, {"time": 1051, "annotation": {"number": 64, "value": 0}, "group": "control_change"}, {"time": 1053, "annotation": {"number": 64, "value": 127}, "group": "control_change"}, {"time": 1075, "annotation": {"number": 64, "value": 0}, "group": "control_change"}, {"time": 1080, "annotation": {"number": 64, "value": 127}, "group": "control_change"}, {"time": 1097, "annotation": {"number": 64, "value": 0}, "group": "control_change"}, {"time": 1100, "annotation": {"number": 64, "value": 127}, "group": "control_change"}, {"time": 1122, "annotation": {"number": 64, "value": 0}, "group": "control_change"}, {"time": 1124, "annotation": {"number": 64, "value": 127}, "group": "control_change"}, {"time": 1146, "annotation": {"number": 64, "value": 0}, "group": "control_change"}, {"time": 1149, "annotation": {"number": 64, "value": 127}, "group": "control_change"}, {"time": 1170, "annotation": {"number": 64, "value": 0}, "group": "control_change"}, {"time": 1172, "annotation": {"number": 64, "value": 127}, "group": "control_change"}, {"time": 1183, "annotation": {"number": 64, "value": 0}, "group": "control_change"}, {"time": 1184, "annotation": {"number": 64, "value": 127}, "group": "control_change"}, {"time": 1194, "annotation": {"number": 64, "value": 0}, "group": "control_change"}, {"time": 1198, "annotation": {"number": 64, "value": 127}, "group": "control_change"}, {"time": 1220, "annotation": {"number": 64, "value": 0}, "group": "control_change"}, {"time": 1225, "annotation": {"number": 64, "value": 127}, "group": "control_change"}, {"time": 1242, "annotation": {"number": 64, "value": 0}, "group": "control_change"}, {"time": 1245, "annotation": {"number": 64, "value": 127}, "group": "control_change"}, {"time": 1266, "annotation": {"number": 64, "value": 0}, "group": "control_change"}, {"time": 1272, "annotation": {"number": 64, "value": 127}, "group": "control_change"}, {"time": 1290, "annotation": {"number": 64, "value": 0}, "group": "control_change"}, {"time": 1293, "annotation": {"number": 64, "value": 127}, "group": "control_change"}, {"time": 1315, "annotation": {"number": 64, "value": 0}, "group": "control_change"}, {"time": 1318, "annotation": {"number": 64, "value": 127}, "group": "control_change"}, {"time": 1338, "annotation": {"number": 64, "value": 0}, "group": "control_change"}, {"time": 1339, "annotation": {"number": 64, "value": 127}, "group": "control_change"}, {"time": 1364, "annotation": {"number": 64, "value": 0}, "group": "control_change"}, {"time": 1367, "annotation": {"number": 64, "value": 127}, "group": "control_change"}, {"time": 1386, "annotation": {"number": 64, "value": 0}, "group": "control_change"}, {"time": 1389, "annotation": {"number": 64, "value": 127}, "group": "control_change"}, {"time": 1410, "annotation": {"number": 64, "value": 0}, "group": "control_change"}, {"time": 1415, "annotation": {"number": 64, "value": 127}, "group": "control_change"}, {"time": 1434, "annotation": {"number": 64, "value": 0}, "group": "control_change"}, {"time": 1438, "annotation": {"number": 64, "value": 127}, "group": "control_change"}, {"time": 1457, "annotation": {"number": 64, "value": 0}, "group": "control_change"}, {"time": 1461, "annotation": {"number": 64, "value": 127}, "group": "control_change"}, {"time": 1482, "annotation": {"number": 64, "value": 0}, "group": "control_change"}, {"time": 1484, "annotation": {"number": 64, "value": 127}, "group": "control_change"}, {"time": 1496, "annotation": {"number": 64, "value": 0}, "group": "control_change"}, {"time": 1497, "annotation": {"number": 64, "value": 127}, "group": "control_change"}, {"time": 1506, "annotation": {"number": 64, "value": 0}, "group": "control_change"}, {"time": 1508, "annotation": {"number": 64, "value": 127}, "group": "control_change"}, {"time": 1530, "annotation": {"number": 64, "value": 0}, "group": "control_change"}, {"time": 1535, "annotation": {"number": 64, "value": 127}, "group": "control_change"}, {"time": 1554, "annotation": {"number": 64, "value": 0}, "group": "control_change"}, {"time": 1559, "annotation": {"number": 64, "value": 127}, "group": "control_change"}, {"time": 1578, "annotation": {"number": 64, "value": 0}, "group": "control_change"}, {"time": 1584, "annotation": {"number": 64, "value": 127}, "group": "control_change"}, {"time": 1602, "annotation": {"number": 64, "value": 0}, "group": "control_change"}, {"time": 1604, "annotation": {"number": 64, "value": 127}, "group": "control_change"}, {"time": 1626, "annotation": {"number": 64, "value": 0}, "group": "control_change"}, {"time": 1632, "annotation": {"number": 64, "value": 127}, "group": "control_change"}, {"time": 1650, "annotation": {"number": 64, "value": 0}, "group": "control_change"}, {"time": 1652, "annotation": {"number": 64, "value": 127}, "group": "control_change"}, {"time": 1673, "annotation": {"number": 64, "value": 0}, "group": "control_change"}, {"time": 1676, "annotation": {"number": 64, "value": 127}, "group": "control_change"}, {"time": 1699, "annotation": {"number": 64, "value": 0}, "group": "control_change"}, {"time": 1700, "annotation": {"number": 64, "value": 127}, "group": "control_change"}, {"time": 1722, "annotation": {"number": 64, "value": 0}, "group": "control_change"}, {"time": 1724, "annotation": {"number": 64, "value": 127}, "group": "control_change"}, {"time": 1745, "annotation": {"number": 64, "value": 0}, "group": "control_change"}, {"time": 1752, "annotation": {"number": 64, "value": 127}, "group": "control_change"}, {"time": 1770, "annotation": {"number": 64, "value": 0}, "group": "control_change"}, {"time": 1775, "annotation": {"number": 64, "value": 127}, "group": "control_change"}, {"time": 1793, "annotation": {"number": 64, "value": 0}, "group": "control_change"}, {"time": 1796, "annotation": {"number": 64, "value": 127}, "group": "control_change"}, {"time": 1818, "annotation": {"number": 64, "value": 0}, "group": "control_change"}, {"time": 1820, "annotation": {"number": 64, "value": 127}, "group": "control_change"}, {"time": 1841, "annotation": {"number": 64, "value": 0}, "group": "control_change"}, {"time": 1844, "annotation": {"number": 64, "value": 127}, "group": "control_change"}, {"time": 1865, "annotation": {"number": 64, "value": 0}, "group": "control_change"}, {"time": 1866, "annotation": {"number": 64, "value": 127}, "group": "control_change"}, {"time": 1867, "annotation": {"number": 64, "value": 127}, "group": "control_change"}, {"time": 1879, "annotation": {"number": 64, "value": 0}, "group": "control_change"}, {"time": 1881, "annotation": {"number": 64, "value": 127}, "group": "control_change"}, {"time": 1890, "annotation": {"number": 64, "value": 0}, "group": "control_change"}, {"time": 1893, "annotation": {"number": 64, "value": 127}, "group": "control_change"}, {"time": 1910, "annotation": {"number": 64, "value": 0}, "group": "control_change"}, {"time": 1938, "annotation": {"number": 64, "value": 0}, "group": "control_change"}, {"time": 1942, "annotation": {"number": 64, "value": 127}, "group": "control_change"}, {"time": 1962, "annotation": {"number": 64, "value": 0}, "group": "control_change"}, {"time": 1966, "annotation": {"number": 64, "value": 127}, "group": "control_change"}, {"time": 1987, "annotation": {"number": 64, "value": 0}, "group": "control_change"}, {"time": 1988, "annotation": {"number": 64, "value": 127}, "group": "control_change"}, {"time": 1998, "annotation": {"number": 64, "value": 0}, "group": "control_change"}, {"time": 2000, "annotation": {"number": 64, "value": 127}, "group": "control_change"}, {"time": 2009, "annotation": {"number": 64, "value": 0}, "group": "control_change"}, {"time": 2012, "annotation": {"number": 64, "value": 127}, "group": "control_change"}, {"time": 2033, "annotation": {"number": 64, "value": 0}, "group": "control_change"}, {"time": 2037, "annotation": {"number": 64, "value": 127}, "group": "control_change"}, {"time": 2058, "annotation": {"number": 64, "value": 0}, "group": "control_change"}, {"time": 2060, "annotation": {"number": 64, "value": 127}, "group": "control_change"}, {"time": 2082, "annotation": {"number": 64, "value": 0}, "group": "control_change"}, {"time": 2083, "annotation": {"number": 64, "value": 127}, "group": "control_change"}, {"time": 2107, "annotation": {"number": 64, "value": 0}, "group": "control_change"}, {"time": 2107, "annotation": {"number": 64, "value": 127}, "group": "control_change"}, {"time": 2131, "annotation": {"number": 64, "value": 0}, "group": "control_change"}, {"time": 2135, "annotation": {"number": 64, "value": 127}, "group": "control_change"}, {"time": 2155, "annotation": {"number": 64, "value": 0}, "group": "control_change"}, {"time": 2159, "annotation": {"number": 64, "value": 127}, "group": "control_change"}, {"time": 2178, "annotation": {"number": 64, "value": 0}, "group": "control_change"}, {"time": 2179, "annotation": {"number": 64, "value": 127}, "group": "control_change"}, {"time": 2202, "annotation": {"number": 64, "value": 127}, "group": "control_change"}, {"time": 2226, "annotation": {"number": 64, "value": 0}, "group": "control_change"}, {"time": 2228, "annotation": {"number": 64, "value": 127}, "group": "control_change"}, {"time": 2248, "annotation": {"number": 64, "value": 0}, "group": "control_change"}, {"time": 2251, "annotation": {"number": 64, "value": 127}, "group": "control_change"}, {"time": 2276, "annotation": {"number": 64, "value": 0}, "group": "control_change"}, {"time": 2300, "annotation": {"number": 64, "value": 127}, "group": "control_change"}, {"time": 2324, "annotation": {"number": 64, "value": 0}, "group": "control_change"}, {"time": 2328, "annotation": {"number": 64, "value": 127}, "group": "control_change"}, {"time": 2347, "annotation": {"number": 64, "value": 0}, "group": "control_change"}, {"time": 2349, "annotation": {"number": 64, "value": 127}, "group": "control_change"}, {"time": 2371, "annotation": {"number": 64, "value": 0}, "group": "control_change"}, {"time": 2376, "annotation": {"number": 64, "value": 127}, "group": "control_change"}, {"time": 2393, "annotation": {"number": 64, "value": 0}, "group": "control_change"}, {"time": 2396, "annotation": {"number": 64, "value": 127}, "group": "control_change"}, {"time": 2418, "annotation": {"number": 64, "value": 0}, "group": "control_change"}, {"time": 2420, "annotation": {"number": 64, "value": 127}, "group": "control_change"}, {"time": 2442, "annotation": {"number": 64, "value": 0}, "group": "control_change"}, {"time": 2445, "annotation": {"number": 64, "value": 127}, "group": "control_change"}, {"time": 2466, "annotation": {"number": 64, "value": 0}, "group": "control_change"}, {"time": 2468, "annotation": {"number": 64, "value": 127}, "group": "control_change"}, {"time": 2479, "annotation": {"number": 64, "value": 0}, "group": "control_change"}, {"time": 2480, "annotation": {"number": 64, "value": 127}, "group": "control_change"}, {"time": 2490, "annotation": {"number": 64, "value": 0}, "group": "control_change"}, {"time": 2494, "annotation": {"number": 64, "value": 127}, "group": "control_change"}, {"time": 2516, "annotation": {"number": 64, "value": 0}, "group": "control_change"}, {"time": 2521, "annotation": {"number": 64, "value": 127}, "group": "control_change"}, {"time": 2538, "annotation": {"number": 64, "value": 0}, "group": "control_change"}, {"time": 2541, "annotation": {"number": 64, "value": 127}, "group": "control_change"}, {"time": 2562, "annotation": {"number": 64, "value": 0}, "group": "control_change"}, {"time": 2568, "annotation": {"number": 64, "value": 127}, "group": "control_change"}, {"time": 2586, "annotation": {"number": 64, "value": 0}, "group": "control_change"}, {"time": 2589, "annotation": {"number": 64, "value": 127}, "group": "control_change"}, {"time": 2611, "annotation": {"number": 64, "value": 0}, "group": "control_change"}, {"time": 2614, "annotation": {"number": 64, "value": 127}, "group": "control_change"}, {"time": 2634, "annotation": {"number": 64, "value": 0}, "group": "control_change"}, {"time": 2656, "annotation": {"number": 64, "value": 0}, "group": "control_change"}, {"time": 2660, "annotation": {"number": 64, "value": 127}, "group": "control_change"}, {"time": 2679, "annotation": {"number": 64, "value": 0}, "group": "control_change"}, {"time": 2683, "annotation": {"number": 64, "value": 127}, "group": "control_change"}, {"time": 2718, "annotation": {"number": 64, "value": 0}, "group": "control_change"}, {"time": 2720, "annotation": {"number": 64, "value": 127}, "group": "control_change"}, {"time": 2728, "annotation": {"number": 64, "value": 0}, "group": "control_change"}, {"time": 2732, "annotation": {"number": 64, "value": 127}, "group": "control_change"}, {"time": 2774, "annotation": {"number": 64, "value": 0}, "group": "control_change"}, {"time": 2800, "annotation": {"number": 64, "value": 0}, "group": "control_change"}, {"time": 2804, "annotation": {"number": 64, "value": 127}, "group": "control_change"}, {"time": 2823, "annotation": {"number": 64, "value": 0}, "group": "control_change"}, {"time": 2827, "annotation": {"number": 64, "value": 127}, "group": "control_change"}, {"time": 2862, "annotation": {"number": 64, "value": 0}, "group": "control_change"}, {"time": 2864, "annotation": {"number": 64, "value": 127}, "group": "control_change"}, {"time": 2872, "annotation": {"number": 64, "value": 0}, "group": "control_change"}, {"time": 2876, "annotation": {"number": 64, "value": 127}, "group": "control_change"}, {"time": 2918, "annotation": {"number": 64, "value": 0}, "group": "control_change"}, {"time": 2944, "annotation": {"number": 64, "value": 0}, "group": "control_change"}, {"time": 2948, "annotation": {"number": 64, "value": 127}, "group": "control_change"}, {"time": 2967, "annotation": {"number": 64, "value": 0}, "group": "control_change"}, {"time": 2971, "annotation": {"number": 64, "value": 127}, "group": "control_change"}, {"time": 3006, "annotation": {"number": 64, "value": 0}, "group": "control_change"}, {"time": 3008, "annotation": {"number": 64, "value": 127}, "group": "control_change"}, {"time": 3016, "annotation": {"number": 64, "value": 0}, "group": "control_change"}, {"time": 3019, "annotation": {"number": 64, "value": 127}, "group": "control_change"}, {"time": 3031, "annotation": {"number": 64, "value": 0}, "group": "control_change"}, {"time": 3033, "annotation": {"number": 64, "value": 127}, "group": "control_change"}, {"time": 3041, "annotation": {"number": 64, "value": 0}, "group": "control_change"}, {"time": 3044, "annotation": {"number": 64, "value": 127}, "group": "control_change"}, {"time": 3068, "annotation": {"number": 64, "value": 0}, "group": "control_change"}, {"time": 3072, "annotation": {"number": 64, "value": 127}, "group": "control_change"}, {"time": 3091, "annotation": {"number": 64, "value": 0}, "group": "control_change"}, {"time": 3093, "annotation": {"number": 64, "value": 127}, "group": "control_change"}, {"time": 3115, "annotation": {"number": 64, "value": 0}, "group": "control_change"}, {"time": 3120, "annotation": {"number": 64, "value": 127}, "group": "control_change"}, {"time": 3137, "annotation": {"number": 64, "value": 0}, "group": "control_change"}, {"time": 3140, "annotation": {"number": 64, "value": 127}, "group": "control_change"}, {"time": 3162, "annotation": {"number": 64, "value": 0}, "group": "control_change"}, {"time": 3164, "annotation": {"number": 64, "value": 127}, "group": "control_change"}, {"time": 3186, "annotation": {"number": 64, "value": 0}, "group": "control_change"}, {"time": 3189, "annotation": {"number": 64, "value": 127}, "group": "control_change"}, {"time": 3210, "annotation": {"number": 64, "value": 0}, "group": "control_change"}, {"time": 3212, "annotation": {"number": 64, "value": 127}, "group": "control_change"}, {"time": 3223, "annotation": {"number": 64, "value": 0}, "group": "control_change"}, {"time": 3224, "annotation": {"number": 64, "value": 127}, "group": "control_change"}, {"time": 3234, "annotation": {"number": 64, "value": 0}, "group": "control_change"}, {"time": 3238, "annotation": {"number": 64, "value": 127}, "group": "control_change"}, {"time": 3260, "annotation": {"number": 64, "value": 0}, "group": "control_change"}, {"time": 3265, "annotation": {"number": 64, "value": 127}, "group": "control_change"}, {"time": 3282, "annotation": {"number": 64, "value": 0}, "group": "control_change"}, {"time": 3285, "annotation": {"number": 64, "value": 127}, "group": "control_change"}, {"time": 3306, "annotation": {"number": 64, "value": 0}, "group": "control_change"}, {"time": 3312, "annotation": {"number": 64, "value": 127}, "group": "control_change"}, {"time": 3330, "annotation": {"number": 64, "value": 0}, "group": "control_change"}, {"time": 3333, "annotation": {"number": 64, "value": 127}, "group": "control_change"}, {"time": 3355, "annotation": {"number": 64, "value": 0}, "group": "control_change"}, {"time": 3358, "annotation": {"number": 64, "value": 127}, "group": "control_change"}, {"time": 3378, "annotation": {"number": 64, "value": 0}, "group": "control_change"}, {"time": 3380, "annotation": {"number": 64, "value": 127}, "group": "control_change"}, {"time": 3424, "annotation": {"number": 64, "value": 0}, "group": "control_change"}]}]}