{"metadata": {"schema_version": "0.2", "title": "None", "source_filename": "423.mid", "source_format": "midi"}, "resolution": 12, "tempos": [{"time": 0, "qpm": 68.00014960032912}, {"time": 1696, "qpm": 71.00011951686785}, {"time": 1708, "qpm": 72.00011520018433}, {"time": 1852, "qpm": 68.00014960032912}, {"time": 2860, "qpm": 66.000066000066}, {"time": 2893, "qpm": 67.00002903334591}, {"time": 2919, "qpm": 68.00014960032912}, {"time": 2979, "qpm": 67.00002903334591}, {"time": 3099, "qpm": 68.00014960032912}], "time_signatures": [{"time": 0, "numerator": 1, "denominator": 4}], "tracks": [{"program": 0, "is_drum": false, "name": "MELODY", "notes": [{"time": 298, "pitch": 75, "duration": 4, "velocity": 90}, {"time": 304, "pitch": 75, "duration": 3, "velocity": 88}, {"time": 310, "pitch": 75, "duration": 1, "velocity": 90}, {"time": 313, "pitch": 75, "duration": 5, "velocity": 92}, {"time": 319, "pitch": 70, "duration": 9, "velocity": 87}, {"time": 328, "pitch": 70, "duration": 6, "velocity": 87}, {"time": 334, "pitch": 68, "duration": 4, "velocity": 92}, {"time": 340, "pitch": 70, "duration": 4, "velocity": 90}, {"time": 346, "pitch": 72, "duration": 2, "velocity": 87}, {"time": 349, "pitch": 72, "duration": 18, "velocity": 84}, {"time": 394, "pitch": 75, "duration": 1, "velocity": 92}, {"time": 397, "pitch": 75, "duration": 1, "velocity": 88}, {"time": 400, "pitch": 75, "duration": 4, "velocity": 97}, {"time": 406, "pitch": 75, "duration": 1, "velocity": 89}, {"time": 409, "pitch": 75, "duration": 5, "velocity": 93}, {"time": 415, "pitch": 80, "duration": 7, "velocity": 82}, {"time": 424, "pitch": 79, "duration": 5, "velocity": 91}, {"time": 430, "pitch": 75, "duration": 5, "velocity": 88}, {"time": 436, "pitch": 79, "duration": 7, "velocity": 87}, {"time": 445, "pitch": 80, "duration": 19, "velocity": 87}, {"time": 472, "pitch": 75, "duration": 4, "velocity": 97}, {"time": 478, "pitch": 80, "duration": 1, "velocity": 92}, {"time": 481, "pitch": 82, "duration": 1, "velocity": 89}, {"time": 484, "pitch": 84, "duration": 12, "velocity": 88}, {"time": 505, "pitch": 82, "duration": 15, "velocity": 93}, {"time": 529, "pitch": 75, "duration": 2, "velocity": 91}, {"time": 532, "pitch": 80, "duration": 4, "velocity": 78}, {"time": 538, "pitch": 79, "duration": 2, "velocity": 91}, {"time": 541, "pitch": 77, "duration": 4, "velocity": 88}, {"time": 547, "pitch": 79, "duration": 4, "velocity": 90}, {"time": 553, "pitch": 80, "duration": 12, "velocity": 88}, {"time": 580, "pitch": 75, "duration": 5, "velocity": 95}, {"time": 586, "pitch": 68, "duration": 1, "velocity": 87}, {"time": 589, "pitch": 68, "duration": 9, "velocity": 88}, {"time": 601, "pitch": 77, "duration": 2, "velocity": 93}, {"time": 604, "pitch": 75, "duration": 4, "velocity": 88}, {"time": 610, "pitch": 68, "duration": 1, "velocity": 87}, {"time": 613, "pitch": 68, "duration": 6, "velocity": 87}, {"time": 619, "pitch": 77, "duration": 3, "velocity": 87}, {"time": 625, "pitch": 79, "duration": 20, "velocity": 88}, {"time": 682, "pitch": 75, "duration": 4, "velocity": 90}, {"time": 688, "pitch": 75, "duration": 3, "velocity": 88}, {"time": 694, "pitch": 75, "duration": 1, "velocity": 90}, {"time": 697, "pitch": 75, "duration": 5, "velocity": 92}, {"time": 703, "pitch": 70, "duration": 9, "velocity": 87}, {"time": 712, "pitch": 70, "duration": 6, "velocity": 87}, {"time": 718, "pitch": 68, "duration": 4, "velocity": 92}, {"time": 724, "pitch": 70, "duration": 4, "velocity": 90}, {"time": 730, "pitch": 72, "duration": 2, "velocity": 87}, {"time": 733, "pitch": 72, "duration": 18, "velocity": 84}, {"time": 778, "pitch": 75, "duration": 1, "velocity": 92}, {"time": 781, "pitch": 75, "duration": 1, "velocity": 88}, {"time": 784, "pitch": 75, "duration": 4, "velocity": 97}, {"time": 790, "pitch": 75, "duration": 1, "velocity": 89}, {"time": 793, "pitch": 75, "duration": 5, "velocity": 93}, {"time": 799, "pitch": 80, "duration": 7, "velocity": 82}, {"time": 808, "pitch": 79, "duration": 5, "velocity": 91}, {"time": 814, "pitch": 75, "duration": 5, "velocity": 88}, {"time": 820, "pitch": 79, "duration": 7, "velocity": 87}, {"time": 829, "pitch": 80, "duration": 19, "velocity": 87}, {"time": 856, "pitch": 75, "duration": 4, "velocity": 97}, {"time": 862, "pitch": 80, "duration": 1, "velocity": 92}, {"time": 865, "pitch": 82, "duration": 1, "velocity": 89}, {"time": 868, "pitch": 84, "duration": 12, "velocity": 88}, {"time": 889, "pitch": 82, "duration": 15, "velocity": 93}, {"time": 913, "pitch": 75, "duration": 2, "velocity": 91}, {"time": 916, "pitch": 80, "duration": 4, "velocity": 78}, {"time": 922, "pitch": 79, "duration": 2, "velocity": 91}, {"time": 925, "pitch": 77, "duration": 4, "velocity": 88}, {"time": 931, "pitch": 79, "duration": 4, "velocity": 90}, {"time": 937, "pitch": 80, "duration": 12, "velocity": 88}, {"time": 964, "pitch": 75, "duration": 5, "velocity": 95}, {"time": 970, "pitch": 68, "duration": 1, "velocity": 87}, {"time": 973, "pitch": 68, "duration": 9, "velocity": 88}, {"time": 985, "pitch": 77, "duration": 2, "velocity": 93}, {"time": 988, "pitch": 75, "duration": 4, "velocity": 88}, {"time": 994, "pitch": 68, "duration": 1, "velocity": 87}, {"time": 997, "pitch": 68, "duration": 6, "velocity": 87}, {"time": 1012, "pitch": 79, "duration": 6, "velocity": 93}, {"time": 1021, "pitch": 79, "duration": 4, "velocity": 93}, {"time": 1027, "pitch": 80, "duration": 4, "velocity": 88}, {"time": 1033, "pitch": 82, "duration": 40, "velocity": 92}, {"time": 1096, "pitch": 72, "duration": 4, "velocity": 97}, {"time": 1102, "pitch": 77, "duration": 1, "velocity": 93}, {"time": 1105, "pitch": 79, "duration": 1, "velocity": 87}, {"time": 1108, "pitch": 80, "duration": 16, "velocity": 89}, {"time": 1126, "pitch": 82, "duration": 1, "velocity": 97}, {"time": 1129, "pitch": 80, "duration": 11, "velocity": 88}, {"time": 1150, "pitch": 79, "duration": 1, "velocity": 93}, {"time": 1153, "pitch": 77, "duration": 1, "velocity": 90}, {"time": 1156, "pitch": 75, "duration": 4, "velocity": 97}, {"time": 1162, "pitch": 79, "duration": 1, "velocity": 91}, {"time": 1165, "pitch": 82, "duration": 4, "velocity": 90}, {"time": 1171, "pitch": 85, "duration": 4, "velocity": 92}, {"time": 1177, "pitch": 84, "duration": 12, "velocity": 93}, {"time": 1204, "pitch": 80, "duration": 4, "velocity": 93}, {"time": 1210, "pitch": 82, "duration": 2, "velocity": 87}, {"time": 1213, "pitch": 84, "duration": 3, "velocity": 93}, {"time": 1219, "pitch": 87, "duration": 7, "velocity": 95}, {"time": 1228, "pitch": 85, "duration": 4, "velocity": 91}, {"time": 1234, "pitch": 84, "duration": 2, "velocity": 91}, {"time": 1237, "pitch": 82, "duration": 5, "velocity": 86}, {"time": 1243, "pitch": 80, "duration": 7, "velocity": 93}, {"time": 1252, "pitch": 82, "duration": 7, "velocity": 92}, {"time": 1264, "pitch": 77, "duration": 7, "velocity": 90}, {"time": 1273, "pitch": 79, "duration": 11, "velocity": 92}, {"time": 1288, "pitch": 72, "duration": 4, "velocity": 97}, {"time": 1294, "pitch": 77, "duration": 1, "velocity": 100}, {"time": 1297, "pitch": 79, "duration": 1, "velocity": 91}, {"time": 1300, "pitch": 80, "duration": 12, "velocity": 88}, {"time": 1312, "pitch": 80, "duration": 1, "velocity": 89}, {"time": 1315, "pitch": 82, "duration": 6, "velocity": 90}, {"time": 1324, "pitch": 80, "duration": 9, "velocity": 86}, {"time": 1342, "pitch": 79, "duration": 1, "velocity": 100}, {"time": 1345, "pitch": 77, "duration": 1, "velocity": 92}, {"time": 1348, "pitch": 75, "duration": 4, "velocity": 97}, {"time": 1354, "pitch": 79, "duration": 1, "velocity": 93}, {"time": 1357, "pitch": 82, "duration": 4, "velocity": 92}, {"time": 1363, "pitch": 85, "duration": 7, "velocity": 93}, {"time": 1372, "pitch": 84, "duration": 10, "velocity": 97}, {"time": 1396, "pitch": 80, "duration": 4, "velocity": 91}, {"time": 1402, "pitch": 82, "duration": 2, "velocity": 89}, {"time": 1405, "pitch": 84, "duration": 4, "velocity": 93}, {"time": 1411, "pitch": 87, "duration": 7, "velocity": 93}, {"time": 1420, "pitch": 85, "duration": 4, "velocity": 92}, {"time": 1426, "pitch": 84, "duration": 1, "velocity": 90}, {"time": 1429, "pitch": 82, "duration": 4, "velocity": 87}, {"time": 1435, "pitch": 80, "duration": 6, "velocity": 92}, {"time": 1444, "pitch": 82, "duration": 17, "velocity": 92}, {"time": 1468, "pitch": 82, "duration": 4, "velocity": 95}, {"time": 1474, "pitch": 84, "duration": 2, "velocity": 92}, {"time": 1477, "pitch": 82, "duration": 4, "velocity": 90}, {"time": 1483, "pitch": 79, "duration": 4, "velocity": 97}, {"time": 1489, "pitch": 80, "duration": 15, "velocity": 89}, {"time": 1507, "pitch": 82, "duration": 2, "velocity": 87}, {"time": 1510, "pitch": 84, "duration": 4, "velocity": 97}, {"time": 1516, "pitch": 82, "duration": 15, "velocity": 92}, {"time": 1534, "pitch": 80, "duration": 2, "velocity": 89}, {"time": 1537, "pitch": 79, "duration": 1, "velocity": 97}, {"time": 1540, "pitch": 80, "duration": 14, "velocity": 86}, {"time": 1555, "pitch": 87, "duration": 8, "velocity": 91}, {"time": 1564, "pitch": 82, "duration": 13, "velocity": 82}, {"time": 1582, "pitch": 82, "duration": 1, "velocity": 92}, {"time": 1585, "pitch": 82, "duration": 1, "velocity": 89}, {"time": 1588, "pitch": 82, "duration": 7, "velocity": 92}, {"time": 1597, "pitch": 79, "duration": 7, "velocity": 93}, {"time": 1606, "pitch": 77, "duration": 29, "velocity": 90}, {"time": 1908, "pitch": 75, "duration": 5, "velocity": 90}, {"time": 1914, "pitch": 75, "duration": 4, "velocity": 88}, {"time": 1920, "pitch": 75, "duration": 2, "velocity": 90}, {"time": 1923, "pitch": 75, "duration": 6, "velocity": 92}, {"time": 1929, "pitch": 70, "duration": 9, "velocity": 87}, {"time": 1938, "pitch": 70, "duration": 6, "velocity": 87}, {"time": 1944, "pitch": 68, "duration": 4, "velocity": 92}, {"time": 1950, "pitch": 70, "duration": 5, "velocity": 90}, {"time": 1956, "pitch": 72, "duration": 3, "velocity": 87}, {"time": 1959, "pitch": 72, "duration": 19, "velocity": 84}, {"time": 2004, "pitch": 75, "duration": 2, "velocity": 92}, {"time": 2007, "pitch": 75, "duration": 2, "velocity": 88}, {"time": 2010, "pitch": 75, "duration": 4, "velocity": 97}, {"time": 2016, "pitch": 75, "duration": 2, "velocity": 89}, {"time": 2019, "pitch": 75, "duration": 6, "velocity": 93}, {"time": 2025, "pitch": 80, "duration": 8, "velocity": 82}, {"time": 2034, "pitch": 79, "duration": 6, "velocity": 91}, {"time": 2040, "pitch": 75, "duration": 6, "velocity": 88}, {"time": 2046, "pitch": 79, "duration": 7, "velocity": 87}, {"time": 2055, "pitch": 80, "duration": 20, "velocity": 87}, {"time": 2082, "pitch": 75, "duration": 5, "velocity": 97}, {"time": 2088, "pitch": 80, "duration": 2, "velocity": 92}, {"time": 2091, "pitch": 82, "duration": 2, "velocity": 89}, {"time": 2094, "pitch": 84, "duration": 13, "velocity": 88}, {"time": 2115, "pitch": 82, "duration": 16, "velocity": 93}, {"time": 2139, "pitch": 75, "duration": 3, "velocity": 91}, {"time": 2142, "pitch": 80, "duration": 5, "velocity": 78}, {"time": 2148, "pitch": 79, "duration": 3, "velocity": 91}, {"time": 2151, "pitch": 77, "duration": 5, "velocity": 88}, {"time": 2157, "pitch": 79, "duration": 5, "velocity": 90}, {"time": 2163, "pitch": 80, "duration": 13, "velocity": 88}, {"time": 2190, "pitch": 75, "duration": 5, "velocity": 95}, {"time": 2196, "pitch": 68, "duration": 2, "velocity": 87}, {"time": 2199, "pitch": 68, "duration": 10, "velocity": 88}, {"time": 2211, "pitch": 77, "duration": 3, "velocity": 93}, {"time": 2214, "pitch": 75, "duration": 5, "velocity": 88}, {"time": 2220, "pitch": 68, "duration": 2, "velocity": 87}, {"time": 2223, "pitch": 68, "duration": 6, "velocity": 87}, {"time": 2238, "pitch": 79, "duration": 7, "velocity": 93}, {"time": 2247, "pitch": 79, "duration": 5, "velocity": 93}, {"time": 2253, "pitch": 80, "duration": 5, "velocity": 88}, {"time": 2259, "pitch": 82, "duration": 41, "velocity": 92}, {"time": 2322, "pitch": 72, "duration": 5, "velocity": 97}, {"time": 2328, "pitch": 77, "duration": 2, "velocity": 93}, {"time": 2331, "pitch": 79, "duration": 2, "velocity": 87}, {"time": 2334, "pitch": 80, "duration": 17, "velocity": 89}, {"time": 2352, "pitch": 82, "duration": 2, "velocity": 97}, {"time": 2355, "pitch": 80, "duration": 12, "velocity": 88}, {"time": 2376, "pitch": 79, "duration": 2, "velocity": 93}, {"time": 2379, "pitch": 77, "duration": 2, "velocity": 90}, {"time": 2382, "pitch": 75, "duration": 5, "velocity": 97}, {"time": 2388, "pitch": 79, "duration": 2, "velocity": 91}, {"time": 2391, "pitch": 82, "duration": 5, "velocity": 90}, {"time": 2397, "pitch": 85, "duration": 5, "velocity": 92}, {"time": 2403, "pitch": 84, "duration": 13, "velocity": 93}, {"time": 2430, "pitch": 80, "duration": 5, "velocity": 93}, {"time": 2436, "pitch": 82, "duration": 3, "velocity": 87}, {"time": 2439, "pitch": 84, "duration": 4, "velocity": 93}, {"time": 2445, "pitch": 87, "duration": 8, "velocity": 95}, {"time": 2454, "pitch": 85, "duration": 5, "velocity": 91}, {"time": 2460, "pitch": 84, "duration": 3, "velocity": 91}, {"time": 2463, "pitch": 82, "duration": 6, "velocity": 86}, {"time": 2469, "pitch": 80, "duration": 8, "velocity": 93}, {"time": 2478, "pitch": 82, "duration": 8, "velocity": 92}, {"time": 2490, "pitch": 77, "duration": 8, "velocity": 90}, {"time": 2499, "pitch": 79, "duration": 12, "velocity": 92}, {"time": 2514, "pitch": 72, "duration": 5, "velocity": 97}, {"time": 2520, "pitch": 77, "duration": 2, "velocity": 100}, {"time": 2523, "pitch": 79, "duration": 2, "velocity": 91}, {"time": 2526, "pitch": 80, "duration": 12, "velocity": 88}, {"time": 2538, "pitch": 80, "duration": 2, "velocity": 89}, {"time": 2541, "pitch": 82, "duration": 6, "velocity": 90}, {"time": 2550, "pitch": 80, "duration": 10, "velocity": 86}, {"time": 2568, "pitch": 79, "duration": 2, "velocity": 100}, {"time": 2571, "pitch": 77, "duration": 2, "velocity": 92}, {"time": 2574, "pitch": 75, "duration": 5, "velocity": 97}, {"time": 2580, "pitch": 79, "duration": 2, "velocity": 93}, {"time": 2583, "pitch": 82, "duration": 5, "velocity": 92}, {"time": 2589, "pitch": 85, "duration": 8, "velocity": 93}, {"time": 2598, "pitch": 84, "duration": 10, "velocity": 97}, {"time": 2622, "pitch": 80, "duration": 5, "velocity": 91}, {"time": 2628, "pitch": 82, "duration": 3, "velocity": 89}, {"time": 2631, "pitch": 84, "duration": 5, "velocity": 93}, {"time": 2637, "pitch": 87, "duration": 8, "velocity": 93}, {"time": 2646, "pitch": 85, "duration": 5, "velocity": 92}, {"time": 2652, "pitch": 84, "duration": 2, "velocity": 90}, {"time": 2655, "pitch": 82, "duration": 4, "velocity": 87}, {"time": 2661, "pitch": 80, "duration": 7, "velocity": 92}, {"time": 2670, "pitch": 82, "duration": 17, "velocity": 92}, {"time": 2694, "pitch": 82, "duration": 5, "velocity": 95}, {"time": 2700, "pitch": 84, "duration": 3, "velocity": 92}, {"time": 2703, "pitch": 82, "duration": 5, "velocity": 90}, {"time": 2709, "pitch": 79, "duration": 5, "velocity": 97}, {"time": 2715, "pitch": 80, "duration": 15, "velocity": 89}, {"time": 2733, "pitch": 82, "duration": 3, "velocity": 87}, {"time": 2736, "pitch": 84, "duration": 5, "velocity": 97}, {"time": 2742, "pitch": 82, "duration": 16, "velocity": 92}, {"time": 2760, "pitch": 80, "duration": 3, "velocity": 89}, {"time": 2763, "pitch": 79, "duration": 2, "velocity": 97}, {"time": 2766, "pitch": 80, "duration": 15, "velocity": 86}, {"time": 2781, "pitch": 87, "duration": 9, "velocity": 91}, {"time": 2790, "pitch": 82, "duration": 14, "velocity": 82}, {"time": 2808, "pitch": 82, "duration": 2, "velocity": 92}, {"time": 2811, "pitch": 82, "duration": 2, "velocity": 89}, {"time": 2814, "pitch": 82, "duration": 8, "velocity": 92}, {"time": 2823, "pitch": 85, "duration": 8, "velocity": 93}, {"time": 2832, "pitch": 84, "duration": 29, "velocity": 90}, {"time": 2856, "pitch": 82, "duration": 2, "velocity": 95}, {"time": 2859, "pitch": 84, "duration": 2, "velocity": 95}, {"time": 2862, "pitch": 85, "duration": 5, "velocity": 91}, {"time": 2868, "pitch": 85, "duration": 2, "velocity": 90}, {"time": 2871, "pitch": 85, "duration": 2, "velocity": 92}, {"time": 2874, "pitch": 85, "duration": 5, "velocity": 100}, {"time": 2880, "pitch": 84, "duration": 2, "velocity": 93}, {"time": 2883, "pitch": 82, "duration": 9, "velocity": 93}, {"time": 2892, "pitch": 80, "duration": 9, "velocity": 88}, {"time": 2904, "pitch": 80, "duration": 2, "velocity": 97}, {"time": 2907, "pitch": 82, "duration": 2, "velocity": 92}, {"time": 2910, "pitch": 83, "duration": 5, "velocity": 102}, {"time": 2916, "pitch": 83, "duration": 2, "velocity": 93}, {"time": 2919, "pitch": 83, "duration": 2, "velocity": 95}, {"time": 2922, "pitch": 83, "duration": 6, "velocity": 103}, {"time": 2928, "pitch": 82, "duration": 2, "velocity": 97}, {"time": 2931, "pitch": 80, "duration": 6, "velocity": 91}, {"time": 2940, "pitch": 78, "duration": 9, "velocity": 77}, {"time": 2952, "pitch": 78, "duration": 2, "velocity": 93}, {"time": 2955, "pitch": 80, "duration": 3, "velocity": 92}, {"time": 2958, "pitch": 81, "duration": 6, "velocity": 95}, {"time": 2964, "pitch": 81, "duration": 2, "velocity": 93}, {"time": 2967, "pitch": 81, "duration": 2, "velocity": 90}, {"time": 2970, "pitch": 81, "duration": 5, "velocity": 93}, {"time": 2976, "pitch": 80, "duration": 2, "velocity": 93}, {"time": 2979, "pitch": 78, "duration": 2, "velocity": 93}, {"time": 2982, "pitch": 76, "duration": 8, "velocity": 93}, {"time": 2991, "pitch": 81, "duration": 7, "velocity": 93}, {"time": 3000, "pitch": 81, "duration": 4, "velocity": 86}, {"time": 3006, "pitch": 83, "duration": 17, "velocity": 93}, {"time": 3024, "pitch": 80, "duration": 6, "velocity": 95}, {"time": 3030, "pitch": 85, "duration": 22, "velocity": 90}, {"time": 3054, "pitch": 87, "duration": 26, "velocity": 91}, {"time": 3090, "pitch": 72, "duration": 5, "velocity": 97}, {"time": 3096, "pitch": 77, "duration": 2, "velocity": 93}, {"time": 3099, "pitch": 79, "duration": 2, "velocity": 87}, {"time": 3102, "pitch": 80, "duration": 17, "velocity": 89}, {"time": 3120, "pitch": 82, "duration": 2, "velocity": 97}, {"time": 3123, "pitch": 80, "duration": 12, "velocity": 88}, {"time": 3144, "pitch": 79, "duration": 2, "velocity": 93}, {"time": 3147, "pitch": 77, "duration": 2, "velocity": 90}, {"time": 3150, "pitch": 75, "duration": 5, "velocity": 97}, {"time": 3156, "pitch": 79, "duration": 2, "velocity": 91}, {"time": 3159, "pitch": 82, "duration": 5, "velocity": 90}, {"time": 3165, "pitch": 85, "duration": 5, "velocity": 92}, {"time": 3171, "pitch": 84, "duration": 13, "velocity": 93}, {"time": 3198, "pitch": 80, "duration": 5, "velocity": 93}, {"time": 3204, "pitch": 82, "duration": 3, "velocity": 87}, {"time": 3207, "pitch": 84, "duration": 4, "velocity": 93}, {"time": 3213, "pitch": 87, "duration": 8, "velocity": 95}, {"time": 3222, "pitch": 85, "duration": 5, "velocity": 91}, {"time": 3228, "pitch": 84, "duration": 3, "velocity": 91}, {"time": 3231, "pitch": 82, "duration": 6, "velocity": 86}, {"time": 3237, "pitch": 80, "duration": 8, "velocity": 93}, {"time": 3246, "pitch": 82, "duration": 8, "velocity": 92}, {"time": 3258, "pitch": 77, "duration": 8, "velocity": 90}, {"time": 3267, "pitch": 79, "duration": 12, "velocity": 92}, {"time": 3282, "pitch": 72, "duration": 5, "velocity": 97}, {"time": 3288, "pitch": 77, "duration": 2, "velocity": 100}, {"time": 3291, "pitch": 79, "duration": 2, "velocity": 91}, {"time": 3294, "pitch": 80, "duration": 12, "velocity": 88}, {"time": 3306, "pitch": 80, "duration": 2, "velocity": 89}, {"time": 3309, "pitch": 82, "duration": 6, "velocity": 90}, {"time": 3318, "pitch": 80, "duration": 10, "velocity": 86}, {"time": 3336, "pitch": 79, "duration": 2, "velocity": 100}, {"time": 3339, "pitch": 77, "duration": 2, "velocity": 92}, {"time": 3342, "pitch": 75, "duration": 5, "velocity": 97}, {"time": 3348, "pitch": 79, "duration": 2, "velocity": 93}, {"time": 3351, "pitch": 82, "duration": 5, "velocity": 92}, {"time": 3357, "pitch": 85, "duration": 8, "velocity": 93}, {"time": 3366, "pitch": 84, "duration": 10, "velocity": 97}, {"time": 3390, "pitch": 80, "duration": 5, "velocity": 91}, {"time": 3396, "pitch": 82, "duration": 3, "velocity": 89}, {"time": 3399, "pitch": 84, "duration": 5, "velocity": 93}, {"time": 3405, "pitch": 87, "duration": 8, "velocity": 93}, {"time": 3414, "pitch": 85, "duration": 5, "velocity": 92}, {"time": 3420, "pitch": 84, "duration": 2, "velocity": 90}, {"time": 3423, "pitch": 82, "duration": 4, "velocity": 87}, {"time": 3429, "pitch": 80, "duration": 7, "velocity": 92}, {"time": 3438, "pitch": 82, "duration": 17, "velocity": 92}, {"time": 3462, "pitch": 82, "duration": 5, "velocity": 95}, {"time": 3468, "pitch": 84, "duration": 3, "velocity": 92}, {"time": 3471, "pitch": 82, "duration": 5, "velocity": 90}, {"time": 3477, "pitch": 79, "duration": 5, "velocity": 97}, {"time": 3483, "pitch": 80, "duration": 15, "velocity": 89}, {"time": 3501, "pitch": 82, "duration": 3, "velocity": 87}, {"time": 3504, "pitch": 84, "duration": 5, "velocity": 97}, {"time": 3510, "pitch": 82, "duration": 16, "velocity": 92}, {"time": 3528, "pitch": 80, "duration": 3, "velocity": 89}, {"time": 3531, "pitch": 79, "duration": 2, "velocity": 97}, {"time": 3534, "pitch": 80, "duration": 15, "velocity": 86}, {"time": 3549, "pitch": 87, "duration": 9, "velocity": 91}, {"time": 3558, "pitch": 82, "duration": 14, "velocity": 82}, {"time": 3576, "pitch": 82, "duration": 2, "velocity": 92}, {"time": 3579, "pitch": 82, "duration": 2, "velocity": 89}, {"time": 3582, "pitch": 82, "duration": 8, "velocity": 92}, {"time": 3591, "pitch": 79, "duration": 8, "velocity": 93}, {"time": 3600, "pitch": 77, "duration": 30, "velocity": 90}]}, {"program": 0, "is_drum": false, "name": "PIANO", "notes": [{"time": 52, "pitch": 41, "duration": 16, "velocity": 85}, {"time": 55, "pitch": 48, "duration": 12, "velocity": 67}, {"time": 58, "pitch": 53, "duration": 10, "velocity": 84}, {"time": 61, "pitch": 65, "duration": 7, "velocity": 88}, {"time": 67, "pitch": 60, "duration": 4, "velocity": 85}, {"time": 70, "pitch": 53, "duration": 3, "velocity": 87}, {"time": 73, "pitch": 65, "duration": 3, "velocity": 80}, {"time": 76, "pitch": 49, "duration": 16, "velocity": 88}, {"time": 79, "pitch": 56, "duration": 3, "velocity": 85}, {"time": 82, "pitch": 61, "duration": 3, "velocity": 79}, {"time": 85, "pitch": 56, "duration": 6, "velocity": 87}, {"time": 91, "pitch": 65, "duration": 7, "velocity": 90}, {"time": 94, "pitch": 61, "duration": 4, "velocity": 84}, {"time": 97, "pitch": 56, "duration": 3, "velocity": 75}, {"time": 100, "pitch": 44, "duration": 16, "velocity": 87}, {"time": 103, "pitch": 51, "duration": 12, "velocity": 77}, {"time": 106, "pitch": 60, "duration": 3, "velocity": 85}, {"time": 109, "pitch": 56, "duration": 6, "velocity": 89}, {"time": 115, "pitch": 60, "duration": 3, "velocity": 86}, {"time": 115, "pitch": 63, "duration": 6, "velocity": 87}, {"time": 118, "pitch": 56, "duration": 4, "velocity": 87}, {"time": 121, "pitch": 60, "duration": 3, "velocity": 90}, {"time": 124, "pitch": 39, "duration": 18, "velocity": 91}, {"time": 127, "pitch": 46, "duration": 7, "velocity": 78}, {"time": 130, "pitch": 51, "duration": 4, "velocity": 87}, {"time": 133, "pitch": 55, "duration": 4, "velocity": 102}, {"time": 136, "pitch": 46, "duration": 5, "velocity": 95}, {"time": 139, "pitch": 55, "duration": 1, "velocity": 73}, {"time": 139, "pitch": 58, "duration": 4, "velocity": 86}, {"time": 142, "pitch": 51, "duration": 3, "velocity": 88}, {"time": 145, "pitch": 63, "duration": 4, "velocity": 87}, {"time": 148, "pitch": 46, "duration": 21, "velocity": 91}, {"time": 154, "pitch": 61, "duration": 6, "velocity": 82}, {"time": 157, "pitch": 58, "duration": 4, "velocity": 91}, {"time": 160, "pitch": 53, "duration": 6, "velocity": 84}, {"time": 163, "pitch": 58, "duration": 4, "velocity": 88}, {"time": 166, "pitch": 61, "duration": 3, "velocity": 83}, {"time": 169, "pitch": 65, "duration": 3, "velocity": 77}, {"time": 172, "pitch": 36, "duration": 13, "velocity": 93}, {"time": 175, "pitch": 43, "duration": 7, "velocity": 87}, {"time": 178, "pitch": 48, "duration": 6, "velocity": 92}, {"time": 181, "pitch": 60, "duration": 6, "velocity": 90}, {"time": 184, "pitch": 43, "duration": 4, "velocity": 83}, {"time": 187, "pitch": 48, "duration": 3, "velocity": 93}, {"time": 190, "pitch": 60, "duration": 5, "velocity": 81}, {"time": 193, "pitch": 48, "duration": 2, "velocity": 88}, {"time": 196, "pitch": 37, "duration": 21, "velocity": 92}, {"time": 199, "pitch": 44, "duration": 16, "velocity": 72}, {"time": 202, "pitch": 49, "duration": 8, "velocity": 85}, {"time": 205, "pitch": 53, "duration": 5, "velocity": 92}, {"time": 208, "pitch": 56, "duration": 3, "velocity": 87}, {"time": 211, "pitch": 61, "duration": 5, "velocity": 91}, {"time": 214, "pitch": 49, "duration": 4, "velocity": 86}, {"time": 217, "pitch": 53, "duration": 2, "velocity": 82}, {"time": 220, "pitch": 37, "duration": 15, "velocity": 92}, {"time": 220, "pitch": 49, "duration": 22, "velocity": 81}, {"time": 220, "pitch": 53, "duration": 22, "velocity": 77}, {"time": 220, "pitch": 56, "duration": 23, "velocity": 81}, {"time": 220, "pitch": 61, "duration": 23, "velocity": 86}, {"time": 244, "pitch": 37, "duration": 6, "velocity": 83}, {"time": 244, "pitch": 61, "duration": 14, "velocity": 73}, {"time": 244, "pitch": 65, "duration": 14, "velocity": 72}, {"time": 244, "pitch": 68, "duration": 15, "velocity": 78}, {"time": 244, "pitch": 73, "duration": 15, "velocity": 77}, {"time": 256, "pitch": 49, "duration": 25, "velocity": 86}, {"time": 259, "pitch": 53, "duration": 4, "velocity": 71}, {"time": 262, "pitch": 56, "duration": 21, "velocity": 68}, {"time": 265, "pitch": 61, "duration": 9, "velocity": 74}, {"time": 268, "pitch": 65, "duration": 6, "velocity": 73}, {"time": 268, "pitch": 73, "duration": 6, "velocity": 83}, {"time": 280, "pitch": 61, "duration": 4, "velocity": 71}, {"time": 280, "pitch": 65, "duration": 9, "velocity": 74}, {"time": 280, "pitch": 68, "duration": 10, "velocity": 69}, {"time": 292, "pitch": 37, "duration": 17, "velocity": 86}, {"time": 292, "pitch": 61, "duration": 6, "velocity": 75}, {"time": 292, "pitch": 65, "duration": 6, "velocity": 74}, {"time": 292, "pitch": 72, "duration": 6, "velocity": 75}, {"time": 298, "pitch": 44, "duration": 10, "velocity": 70}, {"time": 301, "pitch": 61, "duration": 4, "velocity": 82}, {"time": 307, "pitch": 65, "duration": 3, "velocity": 81}, {"time": 307, "pitch": 68, "duration": 4, "velocity": 82}, {"time": 316, "pitch": 39, "duration": 15, "velocity": 80}, {"time": 316, "pitch": 63, "duration": 5, "velocity": 84}, {"time": 316, "pitch": 67, "duration": 8, "velocity": 80}, {"time": 322, "pitch": 46, "duration": 9, "velocity": 64}, {"time": 325, "pitch": 63, "duration": 6, "velocity": 88}, {"time": 331, "pitch": 70, "duration": 4, "velocity": 83}, {"time": 334, "pitch": 63, "duration": 2, "velocity": 86}, {"time": 340, "pitch": 41, "duration": 39, "velocity": 86}, {"time": 340, "pitch": 65, "duration": 3, "velocity": 74}, {"time": 340, "pitch": 68, "duration": 4, "velocity": 82}, {"time": 352, "pitch": 65, "duration": 2, "velocity": 87}, {"time": 352, "pitch": 72, "duration": 3, "velocity": 86}, {"time": 355, "pitch": 48, "duration": 15, "velocity": 65}, {"time": 358, "pitch": 65, "duration": 7, "velocity": 82}, {"time": 361, "pitch": 68, "duration": 4, "velocity": 69}, {"time": 373, "pitch": 65, "duration": 3, "velocity": 85}, {"time": 373, "pitch": 72, "duration": 6, "velocity": 81}, {"time": 376, "pitch": 48, "duration": 3, "velocity": 82}, {"time": 379, "pitch": 68, "duration": 3, "velocity": 82}, {"time": 382, "pitch": 65, "duration": 1, "velocity": 79}, {"time": 388, "pitch": 37, "duration": 17, "velocity": 81}, {"time": 388, "pitch": 61, "duration": 6, "velocity": 78}, {"time": 388, "pitch": 65, "duration": 9, "velocity": 75}, {"time": 388, "pitch": 68, "duration": 11, "velocity": 81}, {"time": 394, "pitch": 44, "duration": 11, "velocity": 73}, {"time": 397, "pitch": 61, "duration": 6, "velocity": 87}, {"time": 403, "pitch": 65, "duration": 2, "velocity": 90}, {"time": 403, "pitch": 68, "duration": 2, "velocity": 86}, {"time": 412, "pitch": 39, "duration": 15, "velocity": 87}, {"time": 412, "pitch": 63, "duration": 5, "velocity": 82}, {"time": 412, "pitch": 67, "duration": 10, "velocity": 77}, {"time": 418, "pitch": 46, "duration": 8, "velocity": 69}, {"time": 421, "pitch": 70, "duration": 6, "velocity": 82}, {"time": 427, "pitch": 75, "duration": 3, "velocity": 93}, {"time": 430, "pitch": 63, "duration": 1, "velocity": 93}, {"time": 436, "pitch": 41, "duration": 37, "velocity": 86}, {"time": 436, "pitch": 65, "duration": 6, "velocity": 77}, {"time": 436, "pitch": 68, "duration": 6, "velocity": 73}, {"time": 442, "pitch": 48, "duration": 30, "velocity": 58}, {"time": 445, "pitch": 72, "duration": 2, "velocity": 92}, {"time": 451, "pitch": 68, "duration": 3, "velocity": 80}, {"time": 454, "pitch": 65, "duration": 2, "velocity": 78}, {"time": 460, "pitch": 65, "duration": 6, "velocity": 72}, {"time": 460, "pitch": 72, "duration": 6, "velocity": 74}, {"time": 472, "pitch": 65, "duration": 2, "velocity": 86}, {"time": 472, "pitch": 68, "duration": 2, "velocity": 88}, {"time": 475, "pitch": 48, "duration": 1, "velocity": 82}, {"time": 484, "pitch": 44, "duration": 15, "velocity": 87}, {"time": 484, "pitch": 56, "duration": 6, "velocity": 75}, {"time": 484, "pitch": 60, "duration": 10, "velocity": 78}, {"time": 490, "pitch": 51, "duration": 9, "velocity": 69}, {"time": 493, "pitch": 56, "duration": 6, "velocity": 91}, {"time": 499, "pitch": 60, "duration": 1, "velocity": 85}, {"time": 499, "pitch": 68, "duration": 3, "velocity": 87}, {"time": 508, "pitch": 51, "duration": 14, "velocity": 90}, {"time": 508, "pitch": 63, "duration": 6, "velocity": 84}, {"time": 508, "pitch": 67, "duration": 9, "velocity": 78}, {"time": 514, "pitch": 58, "duration": 8, "velocity": 73}, {"time": 517, "pitch": 63, "duration": 5, "velocity": 97}, {"time": 523, "pitch": 70, "duration": 4, "velocity": 84}, {"time": 526, "pitch": 67, "duration": 3, "velocity": 86}, {"time": 529, "pitch": 63, "duration": 2, "velocity": 87}, {"time": 532, "pitch": 41, "duration": 14, "velocity": 90}, {"time": 535, "pitch": 48, "duration": 11, "velocity": 68}, {"time": 538, "pitch": 53, "duration": 9, "velocity": 86}, {"time": 541, "pitch": 56, "duration": 4, "velocity": 87}, {"time": 547, "pitch": 65, "duration": 9, "velocity": 87}, {"time": 550, "pitch": 56, "duration": 3, "velocity": 78}, {"time": 553, "pitch": 53, "duration": 2, "velocity": 89}, {"time": 556, "pitch": 51, "duration": 18, "velocity": 90}, {"time": 562, "pitch": 58, "duration": 10, "velocity": 79}, {"time": 565, "pitch": 61, "duration": 6, "velocity": 88}, {"time": 571, "pitch": 67, "duration": 4, "velocity": 87}, {"time": 580, "pitch": 37, "duration": 21, "velocity": 89}, {"time": 580, "pitch": 61, "duration": 6, "velocity": 81}, {"time": 580, "pitch": 65, "duration": 9, "velocity": 77}, {"time": 586, "pitch": 44, "duration": 14, "velocity": 70}, {"time": 589, "pitch": 68, "duration": 7, "velocity": 82}, {"time": 595, "pitch": 73, "duration": 3, "velocity": 92}, {"time": 598, "pitch": 61, "duration": 2, "velocity": 82}, {"time": 604, "pitch": 37, "duration": 14, "velocity": 76}, {"time": 604, "pitch": 61, "duration": 5, "velocity": 71}, {"time": 604, "pitch": 65, "duration": 5, "velocity": 73}, {"time": 604, "pitch": 68, "duration": 7, "velocity": 75}, {"time": 616, "pitch": 61, "duration": 2, "velocity": 84}, {"time": 616, "pitch": 65, "duration": 1, "velocity": 89}, {"time": 616, "pitch": 68, "duration": 2, "velocity": 87}, {"time": 628, "pitch": 36, "duration": 21, "velocity": 87}, {"time": 628, "pitch": 60, "duration": 6, "velocity": 76}, {"time": 628, "pitch": 65, "duration": 6, "velocity": 83}, {"time": 634, "pitch": 43, "duration": 8, "velocity": 58}, {"time": 640, "pitch": 60, "duration": 2, "velocity": 90}, {"time": 640, "pitch": 65, "duration": 5, "velocity": 91}, {"time": 646, "pitch": 60, "duration": 3, "velocity": 76}, {"time": 652, "pitch": 36, "duration": 18, "velocity": 82}, {"time": 652, "pitch": 60, "duration": 9, "velocity": 74}, {"time": 652, "pitch": 64, "duration": 7, "velocity": 83}, {"time": 664, "pitch": 60, "duration": 3, "velocity": 89}, {"time": 664, "pitch": 67, "duration": 6, "velocity": 87}, {"time": 667, "pitch": 43, "duration": 8, "velocity": 78}, {"time": 670, "pitch": 60, "duration": 3, "velocity": 86}, {"time": 673, "pitch": 67, "duration": 1, "velocity": 80}, {"time": 676, "pitch": 37, "duration": 17, "velocity": 86}, {"time": 676, "pitch": 61, "duration": 6, "velocity": 75}, {"time": 676, "pitch": 65, "duration": 6, "velocity": 74}, {"time": 676, "pitch": 72, "duration": 6, "velocity": 75}, {"time": 682, "pitch": 44, "duration": 10, "velocity": 70}, {"time": 685, "pitch": 61, "duration": 4, "velocity": 82}, {"time": 691, "pitch": 65, "duration": 3, "velocity": 81}, {"time": 691, "pitch": 68, "duration": 4, "velocity": 82}, {"time": 700, "pitch": 39, "duration": 15, "velocity": 80}, {"time": 700, "pitch": 63, "duration": 5, "velocity": 84}, {"time": 700, "pitch": 67, "duration": 8, "velocity": 80}, {"time": 706, "pitch": 46, "duration": 9, "velocity": 64}, {"time": 709, "pitch": 63, "duration": 6, "velocity": 88}, {"time": 715, "pitch": 70, "duration": 4, "velocity": 83}, {"time": 718, "pitch": 63, "duration": 2, "velocity": 86}, {"time": 724, "pitch": 41, "duration": 39, "velocity": 86}, {"time": 724, "pitch": 65, "duration": 3, "velocity": 74}, {"time": 724, "pitch": 68, "duration": 4, "velocity": 82}, {"time": 736, "pitch": 65, "duration": 2, "velocity": 87}, {"time": 736, "pitch": 72, "duration": 3, "velocity": 86}, {"time": 739, "pitch": 48, "duration": 15, "velocity": 65}, {"time": 742, "pitch": 65, "duration": 7, "velocity": 82}, {"time": 745, "pitch": 68, "duration": 4, "velocity": 69}, {"time": 757, "pitch": 65, "duration": 3, "velocity": 85}, {"time": 757, "pitch": 72, "duration": 6, "velocity": 81}, {"time": 760, "pitch": 48, "duration": 3, "velocity": 82}, {"time": 763, "pitch": 68, "duration": 3, "velocity": 82}, {"time": 766, "pitch": 65, "duration": 1, "velocity": 79}, {"time": 772, "pitch": 37, "duration": 17, "velocity": 81}, {"time": 772, "pitch": 61, "duration": 6, "velocity": 78}, {"time": 772, "pitch": 65, "duration": 9, "velocity": 75}, {"time": 772, "pitch": 68, "duration": 11, "velocity": 81}, {"time": 778, "pitch": 44, "duration": 11, "velocity": 73}, {"time": 781, "pitch": 61, "duration": 6, "velocity": 87}, {"time": 787, "pitch": 65, "duration": 2, "velocity": 90}, {"time": 787, "pitch": 68, "duration": 2, "velocity": 86}, {"time": 796, "pitch": 39, "duration": 15, "velocity": 87}, {"time": 796, "pitch": 63, "duration": 5, "velocity": 82}, {"time": 796, "pitch": 67, "duration": 10, "velocity": 77}, {"time": 802, "pitch": 46, "duration": 8, "velocity": 69}, {"time": 805, "pitch": 70, "duration": 6, "velocity": 82}, {"time": 811, "pitch": 75, "duration": 3, "velocity": 93}, {"time": 814, "pitch": 63, "duration": 1, "velocity": 93}, {"time": 820, "pitch": 41, "duration": 37, "velocity": 86}, {"time": 820, "pitch": 65, "duration": 6, "velocity": 77}, {"time": 820, "pitch": 68, "duration": 6, "velocity": 73}, {"time": 826, "pitch": 48, "duration": 30, "velocity": 58}, {"time": 829, "pitch": 72, "duration": 2, "velocity": 92}, {"time": 835, "pitch": 68, "duration": 3, "velocity": 80}, {"time": 838, "pitch": 65, "duration": 2, "velocity": 78}, {"time": 844, "pitch": 65, "duration": 6, "velocity": 72}, {"time": 844, "pitch": 72, "duration": 6, "velocity": 74}, {"time": 856, "pitch": 65, "duration": 2, "velocity": 86}, {"time": 856, "pitch": 68, "duration": 2, "velocity": 88}, {"time": 859, "pitch": 48, "duration": 1, "velocity": 82}, {"time": 868, "pitch": 44, "duration": 15, "velocity": 87}, {"time": 868, "pitch": 56, "duration": 6, "velocity": 75}, {"time": 868, "pitch": 60, "duration": 10, "velocity": 78}, {"time": 874, "pitch": 51, "duration": 9, "velocity": 69}, {"time": 877, "pitch": 56, "duration": 6, "velocity": 91}, {"time": 883, "pitch": 60, "duration": 1, "velocity": 85}, {"time": 883, "pitch": 68, "duration": 3, "velocity": 87}, {"time": 892, "pitch": 51, "duration": 14, "velocity": 90}, {"time": 892, "pitch": 63, "duration": 6, "velocity": 84}, {"time": 892, "pitch": 67, "duration": 9, "velocity": 78}, {"time": 898, "pitch": 58, "duration": 8, "velocity": 73}, {"time": 901, "pitch": 63, "duration": 5, "velocity": 97}, {"time": 907, "pitch": 70, "duration": 4, "velocity": 84}, {"time": 910, "pitch": 67, "duration": 3, "velocity": 86}, {"time": 913, "pitch": 63, "duration": 2, "velocity": 87}, {"time": 916, "pitch": 41, "duration": 14, "velocity": 90}, {"time": 919, "pitch": 48, "duration": 11, "velocity": 68}, {"time": 922, "pitch": 53, "duration": 9, "velocity": 86}, {"time": 925, "pitch": 56, "duration": 4, "velocity": 87}, {"time": 931, "pitch": 65, "duration": 9, "velocity": 87}, {"time": 934, "pitch": 56, "duration": 3, "velocity": 78}, {"time": 937, "pitch": 53, "duration": 2, "velocity": 89}, {"time": 940, "pitch": 51, "duration": 18, "velocity": 90}, {"time": 946, "pitch": 58, "duration": 10, "velocity": 79}, {"time": 949, "pitch": 61, "duration": 6, "velocity": 88}, {"time": 955, "pitch": 67, "duration": 4, "velocity": 87}, {"time": 964, "pitch": 37, "duration": 21, "velocity": 89}, {"time": 964, "pitch": 61, "duration": 6, "velocity": 81}, {"time": 964, "pitch": 65, "duration": 9, "velocity": 77}, {"time": 970, "pitch": 44, "duration": 14, "velocity": 70}, {"time": 973, "pitch": 68, "duration": 7, "velocity": 82}, {"time": 979, "pitch": 73, "duration": 3, "velocity": 92}, {"time": 982, "pitch": 61, "duration": 2, "velocity": 82}, {"time": 988, "pitch": 37, "duration": 14, "velocity": 76}, {"time": 988, "pitch": 61, "duration": 5, "velocity": 71}, {"time": 988, "pitch": 65, "duration": 5, "velocity": 73}, {"time": 988, "pitch": 68, "duration": 7, "velocity": 75}, {"time": 1000, "pitch": 61, "duration": 2, "velocity": 84}, {"time": 1000, "pitch": 65, "duration": 1, "velocity": 89}, {"time": 1000, "pitch": 68, "duration": 2, "velocity": 87}, {"time": 1012, "pitch": 36, "duration": 21, "velocity": 87}, {"time": 1012, "pitch": 60, "duration": 6, "velocity": 76}, {"time": 1012, "pitch": 65, "duration": 6, "velocity": 83}, {"time": 1018, "pitch": 43, "duration": 8, "velocity": 58}, {"time": 1024, "pitch": 60, "duration": 2, "velocity": 90}, {"time": 1024, "pitch": 65, "duration": 5, "velocity": 91}, {"time": 1030, "pitch": 60, "duration": 3, "velocity": 76}, {"time": 1036, "pitch": 36, "duration": 18, "velocity": 82}, {"time": 1036, "pitch": 60, "duration": 9, "velocity": 74}, {"time": 1036, "pitch": 64, "duration": 7, "velocity": 83}, {"time": 1048, "pitch": 60, "duration": 3, "velocity": 89}, {"time": 1048, "pitch": 67, "duration": 6, "velocity": 87}, {"time": 1051, "pitch": 43, "duration": 8, "velocity": 78}, {"time": 1054, "pitch": 60, "duration": 3, "velocity": 86}, {"time": 1057, "pitch": 67, "duration": 1, "velocity": 80}, {"time": 1060, "pitch": 36, "duration": 1, "velocity": 84}, {"time": 1060, "pitch": 60, "duration": 7, "velocity": 86}, {"time": 1060, "pitch": 72, "duration": 9, "velocity": 80}, {"time": 1066, "pitch": 48, "duration": 15, "velocity": 77}, {"time": 1069, "pitch": 55, "duration": 13, "velocity": 84}, {"time": 1072, "pitch": 60, "duration": 8, "velocity": 90}, {"time": 1075, "pitch": 72, "duration": 11, "velocity": 81}, {"time": 1081, "pitch": 60, "duration": 1, "velocity": 65}, {"time": 1084, "pitch": 48, "duration": 14, "velocity": 85}, {"time": 1084, "pitch": 55, "duration": 13, "velocity": 82}, {"time": 1084, "pitch": 60, "duration": 5, "velocity": 85}, {"time": 1084, "pitch": 67, "duration": 5, "velocity": 78}, {"time": 1093, "pitch": 60, "duration": 1, "velocity": 89}, {"time": 1096, "pitch": 60, "duration": 3, "velocity": 97}, {"time": 1096, "pitch": 67, "duration": 6, "velocity": 89}, {"time": 1099, "pitch": 55, "duration": 8, "velocity": 95}, {"time": 1102, "pitch": 60, "duration": 3, "velocity": 100}, {"time": 1105, "pitch": 72, "duration": 2, "velocity": 80}, {"time": 1108, "pitch": 41, "duration": 13, "velocity": 87}, {"time": 1108, "pitch": 60, "duration": 6, "velocity": 85}, {"time": 1108, "pitch": 65, "duration": 9, "velocity": 81}, {"time": 1114, "pitch": 48, "duration": 8, "velocity": 75}, {"time": 1117, "pitch": 60, "duration": 6, "velocity": 85}, {"time": 1120, "pitch": 65, "duration": 3, "velocity": 87}, {"time": 1123, "pitch": 68, "duration": 6, "velocity": 89}, {"time": 1132, "pitch": 49, "duration": 16, "velocity": 89}, {"time": 1132, "pitch": 61, "duration": 5, "velocity": 81}, {"time": 1132, "pitch": 65, "duration": 6, "velocity": 82}, {"time": 1132, "pitch": 68, "duration": 6, "velocity": 87}, {"time": 1138, "pitch": 56, "duration": 4, "velocity": 83}, {"time": 1141, "pitch": 61, "duration": 4, "velocity": 93}, {"time": 1144, "pitch": 53, "duration": 5, "velocity": 72}, {"time": 1147, "pitch": 61, "duration": 1, "velocity": 89}, {"time": 1147, "pitch": 65, "duration": 2, "velocity": 90}, {"time": 1147, "pitch": 68, "duration": 3, "velocity": 87}, {"time": 1150, "pitch": 56, "duration": 1, "velocity": 84}, {"time": 1156, "pitch": 39, "duration": 18, "velocity": 86}, {"time": 1156, "pitch": 63, "duration": 5, "velocity": 92}, {"time": 1156, "pitch": 67, "duration": 7, "velocity": 82}, {"time": 1162, "pitch": 46, "duration": 7, "velocity": 70}, {"time": 1165, "pitch": 67, "duration": 1, "velocity": 68}, {"time": 1165, "pitch": 70, "duration": 3, "velocity": 81}, {"time": 1168, "pitch": 75, "duration": 5, "velocity": 107}, {"time": 1171, "pitch": 63, "duration": 2, "velocity": 100}, {"time": 1174, "pitch": 46, "duration": 1, "velocity": 91}, {"time": 1177, "pitch": 63, "duration": 1, "velocity": 86}, {"time": 1177, "pitch": 67, "duration": 1, "velocity": 75}, {"time": 1180, "pitch": 44, "duration": 16, "velocity": 87}, {"time": 1180, "pitch": 51, "duration": 6, "velocity": 79}, {"time": 1180, "pitch": 63, "duration": 2, "velocity": 87}, {"time": 1180, "pitch": 68, "duration": 6, "velocity": 87}, {"time": 1183, "pitch": 63, "duration": 1, "velocity": 88}, {"time": 1189, "pitch": 63, "duration": 3, "velocity": 97}, {"time": 1189, "pitch": 68, "duration": 3, "velocity": 95}, {"time": 1189, "pitch": 72, "duration": 4, "velocity": 90}, {"time": 1192, "pitch": 51, "duration": 4, "velocity": 83}, {"time": 1195, "pitch": 63, "duration": 1, "velocity": 93}, {"time": 1195, "pitch": 68, "duration": 1, "velocity": 90}, {"time": 1204, "pitch": 41, "duration": 13, "velocity": 89}, {"time": 1204, "pitch": 65, "duration": 3, "velocity": 86}, {"time": 1204, "pitch": 72, "duration": 7, "velocity": 82}, {"time": 1207, "pitch": 48, "duration": 7, "velocity": 79}, {"time": 1210, "pitch": 65, "duration": 1, "velocity": 73}, {"time": 1213, "pitch": 65, "duration": 3, "velocity": 87}, {"time": 1213, "pitch": 68, "duration": 3, "velocity": 86}, {"time": 1216, "pitch": 48, "duration": 2, "velocity": 74}, {"time": 1219, "pitch": 65, "duration": 2, "velocity": 88}, {"time": 1219, "pitch": 68, "duration": 1, "velocity": 84}, {"time": 1219, "pitch": 72, "duration": 2, "velocity": 91}, {"time": 1228, "pitch": 49, "duration": 14, "velocity": 90}, {"time": 1228, "pitch": 61, "duration": 3, "velocity": 84}, {"time": 1228, "pitch": 65, "duration": 4, "velocity": 80}, {"time": 1231, "pitch": 56, "duration": 6, "velocity": 71}, {"time": 1234, "pitch": 61, "duration": 1, "velocity": 83}, {"time": 1237, "pitch": 61, "duration": 3, "velocity": 86}, {"time": 1237, "pitch": 65, "duration": 3, "velocity": 81}, {"time": 1237, "pitch": 68, "duration": 3, "velocity": 84}, {"time": 1240, "pitch": 56, "duration": 2, "velocity": 80}, {"time": 1243, "pitch": 61, "duration": 1, "velocity": 87}, {"time": 1243, "pitch": 65, "duration": 2, "velocity": 83}, {"time": 1243, "pitch": 73, "duration": 2, "velocity": 90}, {"time": 1252, "pitch": 46, "duration": 18, "velocity": 87}, {"time": 1252, "pitch": 58, "duration": 6, "velocity": 86}, {"time": 1252, "pitch": 61, "duration": 7, "velocity": 86}, {"time": 1258, "pitch": 53, "duration": 4, "velocity": 72}, {"time": 1261, "pitch": 58, "duration": 4, "velocity": 92}, {"time": 1264, "pitch": 53, "duration": 4, "velocity": 84}, {"time": 1267, "pitch": 58, "duration": 1, "velocity": 88}, {"time": 1267, "pitch": 61, "duration": 2, "velocity": 87}, {"time": 1267, "pitch": 65, "duration": 2, "velocity": 87}, {"time": 1270, "pitch": 53, "duration": 2, "velocity": 80}, {"time": 1276, "pitch": 48, "duration": 9, "velocity": 92}, {"time": 1276, "pitch": 60, "duration": 6, "velocity": 88}, {"time": 1276, "pitch": 72, "duration": 6, "velocity": 81}, {"time": 1282, "pitch": 55, "duration": 4, "velocity": 77}, {"time": 1285, "pitch": 60, "duration": 4, "velocity": 97}, {"time": 1285, "pitch": 72, "duration": 4, "velocity": 86}, {"time": 1288, "pitch": 48, "duration": 3, "velocity": 97}, {"time": 1288, "pitch": 55, "duration": 4, "velocity": 88}, {"time": 1291, "pitch": 60, "duration": 2, "velocity": 95}, {"time": 1291, "pitch": 72, "duration": 2, "velocity": 87}, {"time": 1300, "pitch": 41, "duration": 13, "velocity": 89}, {"time": 1300, "pitch": 53, "duration": 10, "velocity": 86}, {"time": 1300, "pitch": 65, "duration": 5, "velocity": 85}, {"time": 1306, "pitch": 48, "duration": 4, "velocity": 70}, {"time": 1309, "pitch": 56, "duration": 4, "velocity": 85}, {"time": 1312, "pitch": 48, "duration": 2, "velocity": 78}, {"time": 1315, "pitch": 60, "duration": 3, "velocity": 87}, {"time": 1318, "pitch": 53, "duration": 3, "velocity": 87}, {"time": 1321, "pitch": 56, "duration": 2, "velocity": 81}, {"time": 1324, "pitch": 49, "duration": 13, "velocity": 92}, {"time": 1327, "pitch": 56, "duration": 6, "velocity": 73}, {"time": 1330, "pitch": 61, "duration": 1, "velocity": 87}, {"time": 1333, "pitch": 61, "duration": 3, "velocity": 88}, {"time": 1333, "pitch": 65, "duration": 3, "velocity": 87}, {"time": 1333, "pitch": 68, "duration": 3, "velocity": 88}, {"time": 1336, "pitch": 56, "duration": 3, "velocity": 81}, {"time": 1339, "pitch": 61, "duration": 2, "velocity": 90}, {"time": 1339, "pitch": 65, "duration": 2, "velocity": 90}, {"time": 1339, "pitch": 68, "duration": 2, "velocity": 90}, {"time": 1339, "pitch": 73, "duration": 3, "velocity": 88}, {"time": 1342, "pitch": 53, "duration": 1, "velocity": 61}, {"time": 1345, "pitch": 63, "duration": 2, "velocity": 77}, {"time": 1348, "pitch": 39, "duration": 13, "velocity": 90}, {"time": 1348, "pitch": 63, "duration": 5, "velocity": 91}, {"time": 1348, "pitch": 67, "duration": 6, "velocity": 78}, {"time": 1348, "pitch": 70, "duration": 6, "velocity": 84}, {"time": 1354, "pitch": 46, "duration": 4, "velocity": 71}, {"time": 1357, "pitch": 63, "duration": 4, "velocity": 92}, {"time": 1357, "pitch": 67, "duration": 4, "velocity": 95}, {"time": 1357, "pitch": 70, "duration": 4, "velocity": 88}, {"time": 1357, "pitch": 75, "duration": 3, "velocity": 87}, {"time": 1360, "pitch": 46, "duration": 2, "velocity": 72}, {"time": 1363, "pitch": 63, "duration": 1, "velocity": 87}, {"time": 1363, "pitch": 67, "duration": 3, "velocity": 103}, {"time": 1363, "pitch": 70, "duration": 5, "velocity": 90}, {"time": 1366, "pitch": 63, "duration": 3, "velocity": 88}, {"time": 1369, "pitch": 67, "duration": 1, "velocity": 75}, {"time": 1372, "pitch": 44, "duration": 16, "velocity": 87}, {"time": 1372, "pitch": 63, "duration": 5, "velocity": 84}, {"time": 1372, "pitch": 68, "duration": 6, "velocity": 88}, {"time": 1378, "pitch": 51, "duration": 4, "velocity": 76}, {"time": 1381, "pitch": 63, "duration": 1, "velocity": 89}, {"time": 1381, "pitch": 68, "duration": 1, "velocity": 87}, {"time": 1381, "pitch": 72, "duration": 1, "velocity": 82}, {"time": 1384, "pitch": 63, "duration": 2, "velocity": 95}, {"time": 1384, "pitch": 68, "duration": 3, "velocity": 95}, {"time": 1384, "pitch": 72, "duration": 3, "velocity": 89}, {"time": 1387, "pitch": 51, "duration": 2, "velocity": 91}, {"time": 1390, "pitch": 63, "duration": 1, "velocity": 93}, {"time": 1396, "pitch": 41, "duration": 12, "velocity": 91}, {"time": 1396, "pitch": 65, "duration": 5, "velocity": 83}, {"time": 1396, "pitch": 68, "duration": 6, "velocity": 87}, {"time": 1402, "pitch": 48, "duration": 3, "velocity": 73}, {"time": 1405, "pitch": 65, "duration": 3, "velocity": 90}, {"time": 1405, "pitch": 72, "duration": 3, "velocity": 90}, {"time": 1408, "pitch": 48, "duration": 2, "velocity": 82}, {"time": 1411, "pitch": 65, "duration": 1, "velocity": 89}, {"time": 1411, "pitch": 68, "duration": 1, "velocity": 87}, {"time": 1420, "pitch": 37, "duration": 17, "velocity": 88}, {"time": 1420, "pitch": 61, "duration": 3, "velocity": 78}, {"time": 1420, "pitch": 65, "duration": 6, "velocity": 77}, {"time": 1420, "pitch": 68, "duration": 8, "velocity": 81}, {"time": 1423, "pitch": 44, "duration": 13, "velocity": 79}, {"time": 1426, "pitch": 61, "duration": 4, "velocity": 85}, {"time": 1429, "pitch": 65, "duration": 3, "velocity": 92}, {"time": 1429, "pitch": 68, "duration": 2, "velocity": 76}, {"time": 1435, "pitch": 61, "duration": 2, "velocity": 87}, {"time": 1435, "pitch": 65, "duration": 8, "velocity": 88}, {"time": 1435, "pitch": 68, "duration": 8, "velocity": 87}, {"time": 1435, "pitch": 73, "duration": 7, "velocity": 90}, {"time": 1441, "pitch": 61, "duration": 3, "velocity": 80}, {"time": 1444, "pitch": 46, "duration": 20, "velocity": 89}, {"time": 1447, "pitch": 58, "duration": 3, "velocity": 76}, {"time": 1450, "pitch": 61, "duration": 3, "velocity": 88}, {"time": 1453, "pitch": 53, "duration": 4, "velocity": 83}, {"time": 1453, "pitch": 65, "duration": 3, "velocity": 93}, {"time": 1459, "pitch": 58, "duration": 2, "velocity": 90}, {"time": 1459, "pitch": 61, "duration": 6, "velocity": 89}, {"time": 1459, "pitch": 65, "duration": 8, "velocity": 91}, {"time": 1462, "pitch": 53, "duration": 3, "velocity": 71}, {"time": 1465, "pitch": 58, "duration": 2, "velocity": 87}, {"time": 1468, "pitch": 48, "duration": 10, "velocity": 93}, {"time": 1471, "pitch": 55, "duration": 7, "velocity": 82}, {"time": 1474, "pitch": 60, "duration": 1, "velocity": 89}, {"time": 1477, "pitch": 60, "duration": 4, "velocity": 97}, {"time": 1477, "pitch": 72, "duration": 4, "velocity": 86}, {"time": 1480, "pitch": 55, "duration": 3, "velocity": 86}, {"time": 1483, "pitch": 60, "duration": 1, "velocity": 92}, {"time": 1483, "pitch": 72, "duration": 2, "velocity": 87}, {"time": 1492, "pitch": 49, "duration": 13, "velocity": 91}, {"time": 1492, "pitch": 61, "duration": 3, "velocity": 87}, {"time": 1492, "pitch": 65, "duration": 6, "velocity": 86}, {"time": 1492, "pitch": 68, "duration": 7, "velocity": 86}, {"time": 1495, "pitch": 56, "duration": 6, "velocity": 73}, {"time": 1498, "pitch": 61, "duration": 1, "velocity": 86}, {"time": 1501, "pitch": 61, "duration": 7, "velocity": 91}, {"time": 1501, "pitch": 65, "duration": 9, "velocity": 97}, {"time": 1501, "pitch": 68, "duration": 10, "velocity": 91}, {"time": 1504, "pitch": 56, "duration": 3, "velocity": 83}, {"time": 1507, "pitch": 53, "duration": 3, "velocity": 93}, {"time": 1510, "pitch": 56, "duration": 1, "velocity": 88}, {"time": 1513, "pitch": 61, "duration": 1, "velocity": 90}, {"time": 1516, "pitch": 39, "duration": 15, "velocity": 90}, {"time": 1516, "pitch": 63, "duration": 3, "velocity": 93}, {"time": 1516, "pitch": 67, "duration": 6, "velocity": 82}, {"time": 1519, "pitch": 46, "duration": 6, "velocity": 77}, {"time": 1522, "pitch": 63, "duration": 1, "velocity": 87}, {"time": 1525, "pitch": 63, "duration": 4, "velocity": 95}, {"time": 1525, "pitch": 67, "duration": 4, "velocity": 92}, {"time": 1525, "pitch": 70, "duration": 4, "velocity": 88}, {"time": 1528, "pitch": 46, "duration": 3, "velocity": 85}, {"time": 1531, "pitch": 63, "duration": 2, "velocity": 90}, {"time": 1531, "pitch": 67, "duration": 2, "velocity": 90}, {"time": 1531, "pitch": 70, "duration": 2, "velocity": 88}, {"time": 1540, "pitch": 37, "duration": 1, "velocity": 88}, {"time": 1540, "pitch": 61, "duration": 9, "velocity": 86}, {"time": 1540, "pitch": 65, "duration": 12, "velocity": 87}, {"time": 1546, "pitch": 49, "duration": 11, "velocity": 73}, {"time": 1549, "pitch": 56, "duration": 6, "velocity": 83}, {"time": 1552, "pitch": 61, "duration": 8, "velocity": 87}, {"time": 1555, "pitch": 65, "duration": 6, "velocity": 88}, {"time": 1558, "pitch": 68, "duration": 4, "velocity": 79}, {"time": 1561, "pitch": 73, "duration": 3, "velocity": 90}, {"time": 1564, "pitch": 51, "duration": 16, "velocity": 89}, {"time": 1567, "pitch": 58, "duration": 7, "velocity": 74}, {"time": 1570, "pitch": 63, "duration": 1, "velocity": 85}, {"time": 1573, "pitch": 63, "duration": 1, "velocity": 55}, {"time": 1573, "pitch": 67, "duration": 9, "velocity": 89}, {"time": 1579, "pitch": 58, "duration": 2, "velocity": 88}, {"time": 1582, "pitch": 63, "duration": 4, "velocity": 87}, {"time": 1585, "pitch": 67, "duration": 1, "velocity": 57}, {"time": 1588, "pitch": 41, "duration": 22, "velocity": 87}, {"time": 1588, "pitch": 65, "duration": 4, "velocity": 79}, {"time": 1588, "pitch": 70, "duration": 7, "velocity": 87}, {"time": 1594, "pitch": 65, "duration": 1, "velocity": 78}, {"time": 1597, "pitch": 65, "duration": 9, "velocity": 84}, {"time": 1597, "pitch": 70, "duration": 12, "velocity": 90}, {"time": 1606, "pitch": 48, "duration": 4, "velocity": 61}, {"time": 1609, "pitch": 65, "duration": 1, "velocity": 85}, {"time": 1612, "pitch": 41, "duration": 21, "velocity": 86}, {"time": 1612, "pitch": 65, "duration": 9, "velocity": 87}, {"time": 1612, "pitch": 69, "duration": 9, "velocity": 85}, {"time": 1624, "pitch": 65, "duration": 2, "velocity": 83}, {"time": 1624, "pitch": 72, "duration": 3, "velocity": 76}, {"time": 1627, "pitch": 48, "duration": 3, "velocity": 32}, {"time": 1630, "pitch": 65, "duration": 3, "velocity": 82}, {"time": 1635, "pitch": 69, "duration": 18, "velocity": 42}, {"time": 1635, "pitch": 65, "duration": 20, "velocity": 69}, {"time": 1636, "pitch": 41, "duration": 15, "velocity": 84}, {"time": 1636, "pitch": 77, "duration": 20, "velocity": 77}, {"time": 1660, "pitch": 41, "duration": 12, "velocity": 74}, {"time": 1660, "pitch": 53, "duration": 11, "velocity": 80}, {"time": 1660, "pitch": 57, "duration": 11, "velocity": 75}, {"time": 1672, "pitch": 46, "duration": 10, "velocity": 80}, {"time": 1672, "pitch": 58, "duration": 10, "velocity": 79}, {"time": 1672, "pitch": 61, "duration": 10, "velocity": 77}, {"time": 1684, "pitch": 48, "duration": 10, "velocity": 68}, {"time": 1684, "pitch": 57, "duration": 10, "velocity": 74}, {"time": 1684, "pitch": 60, "duration": 10, "velocity": 76}, {"time": 1696, "pitch": 46, "duration": 9, "velocity": 74}, {"time": 1696, "pitch": 58, "duration": 3, "velocity": 74}, {"time": 1696, "pitch": 61, "duration": 4, "velocity": 80}, {"time": 1699, "pitch": 60, "duration": 3, "velocity": 80}, {"time": 1702, "pitch": 58, "duration": 3, "velocity": 76}, {"time": 1705, "pitch": 56, "duration": 3, "velocity": 64}, {"time": 1708, "pitch": 46, "duration": 10, "velocity": 72}, {"time": 1708, "pitch": 58, "duration": 6, "velocity": 78}, {"time": 1714, "pitch": 56, "duration": 3, "velocity": 77}, {"time": 1720, "pitch": 46, "duration": 11, "velocity": 57}, {"time": 1720, "pitch": 56, "duration": 11, "velocity": 65}, {"time": 1720, "pitch": 61, "duration": 11, "velocity": 69}, {"time": 1732, "pitch": 49, "duration": 11, "velocity": 74}, {"time": 1732, "pitch": 56, "duration": 9, "velocity": 69}, {"time": 1732, "pitch": 61, "duration": 11, "velocity": 74}, {"time": 1744, "pitch": 48, "duration": 10, "velocity": 71}, {"time": 1744, "pitch": 60, "duration": 10, "velocity": 77}, {"time": 1756, "pitch": 49, "duration": 11, "velocity": 75}, {"time": 1756, "pitch": 56, "duration": 9, "velocity": 69}, {"time": 1756, "pitch": 61, "duration": 10, "velocity": 73}, {"time": 1768, "pitch": 51, "duration": 5, "velocity": 78}, {"time": 1768, "pitch": 63, "duration": 5, "velocity": 85}, {"time": 1774, "pitch": 58, "duration": 5, "velocity": 82}, {"time": 1780, "pitch": 44, "duration": 7, "velocity": 77}, {"time": 1786, "pitch": 51, "duration": 7, "velocity": 76}, {"time": 1792, "pitch": 44, "duration": 9, "velocity": 67}, {"time": 1798, "pitch": 51, "duration": 5, "velocity": 74}, {"time": 1804, "pitch": 46, "duration": 10, "velocity": 78}, {"time": 1804, "pitch": 58, "duration": 11, "velocity": 80}, {"time": 1816, "pitch": 48, "duration": 11, "velocity": 80}, {"time": 1816, "pitch": 60, "duration": 10, "velocity": 79}, {"time": 1828, "pitch": 49, "duration": 10, "velocity": 78}, {"time": 1828, "pitch": 61, "duration": 10, "velocity": 77}, {"time": 1840, "pitch": 48, "duration": 11, "velocity": 77}, {"time": 1840, "pitch": 60, "duration": 11, "velocity": 73}, {"time": 1852, "pitch": 41, "duration": 18, "velocity": 75}, {"time": 1852, "pitch": 53, "duration": 22, "velocity": 76}, {"time": 1876, "pitch": 36, "duration": 24, "velocity": 82}, {"time": 1876, "pitch": 60, "duration": 23, "velocity": 77}, {"time": 1876, "pitch": 67, "duration": 24, "velocity": 81}, {"time": 1900, "pitch": 37, "duration": 17, "velocity": 86}, {"time": 1900, "pitch": 61, "duration": 6, "velocity": 75}, {"time": 1900, "pitch": 65, "duration": 6, "velocity": 74}, {"time": 1900, "pitch": 72, "duration": 6, "velocity": 75}, {"time": 1906, "pitch": 44, "duration": 10, "velocity": 70}, {"time": 1909, "pitch": 61, "duration": 4, "velocity": 82}, {"time": 1915, "pitch": 65, "duration": 3, "velocity": 81}, {"time": 1915, "pitch": 68, "duration": 4, "velocity": 82}, {"time": 1924, "pitch": 39, "duration": 15, "velocity": 80}, {"time": 1924, "pitch": 63, "duration": 5, "velocity": 84}, {"time": 1924, "pitch": 67, "duration": 8, "velocity": 80}, {"time": 1930, "pitch": 46, "duration": 9, "velocity": 64}, {"time": 1933, "pitch": 63, "duration": 6, "velocity": 88}, {"time": 1939, "pitch": 70, "duration": 4, "velocity": 83}, {"time": 1942, "pitch": 63, "duration": 2, "velocity": 86}, {"time": 1948, "pitch": 41, "duration": 39, "velocity": 86}, {"time": 1948, "pitch": 65, "duration": 3, "velocity": 74}, {"time": 1948, "pitch": 68, "duration": 4, "velocity": 82}, {"time": 1960, "pitch": 65, "duration": 2, "velocity": 87}, {"time": 1960, "pitch": 72, "duration": 3, "velocity": 86}, {"time": 1963, "pitch": 48, "duration": 15, "velocity": 65}, {"time": 1966, "pitch": 65, "duration": 7, "velocity": 82}, {"time": 1969, "pitch": 68, "duration": 4, "velocity": 69}, {"time": 1981, "pitch": 65, "duration": 3, "velocity": 85}, {"time": 1981, "pitch": 72, "duration": 6, "velocity": 81}, {"time": 1984, "pitch": 48, "duration": 3, "velocity": 82}, {"time": 1987, "pitch": 68, "duration": 3, "velocity": 82}, {"time": 1990, "pitch": 65, "duration": 1, "velocity": 79}, {"time": 1996, "pitch": 37, "duration": 17, "velocity": 81}, {"time": 1996, "pitch": 61, "duration": 6, "velocity": 78}, {"time": 1996, "pitch": 65, "duration": 9, "velocity": 75}, {"time": 1996, "pitch": 68, "duration": 11, "velocity": 81}, {"time": 2002, "pitch": 44, "duration": 11, "velocity": 73}, {"time": 2005, "pitch": 61, "duration": 6, "velocity": 87}, {"time": 2011, "pitch": 65, "duration": 2, "velocity": 90}, {"time": 2011, "pitch": 68, "duration": 2, "velocity": 86}, {"time": 2020, "pitch": 39, "duration": 15, "velocity": 87}, {"time": 2020, "pitch": 63, "duration": 5, "velocity": 82}, {"time": 2020, "pitch": 67, "duration": 10, "velocity": 77}, {"time": 2026, "pitch": 46, "duration": 8, "velocity": 69}, {"time": 2029, "pitch": 70, "duration": 6, "velocity": 82}, {"time": 2035, "pitch": 75, "duration": 3, "velocity": 93}, {"time": 2038, "pitch": 63, "duration": 1, "velocity": 93}, {"time": 2044, "pitch": 41, "duration": 37, "velocity": 86}, {"time": 2044, "pitch": 65, "duration": 6, "velocity": 77}, {"time": 2044, "pitch": 68, "duration": 6, "velocity": 73}, {"time": 2050, "pitch": 48, "duration": 30, "velocity": 58}, {"time": 2053, "pitch": 72, "duration": 2, "velocity": 92}, {"time": 2059, "pitch": 68, "duration": 3, "velocity": 80}, {"time": 2062, "pitch": 65, "duration": 2, "velocity": 78}, {"time": 2068, "pitch": 65, "duration": 6, "velocity": 72}, {"time": 2068, "pitch": 72, "duration": 6, "velocity": 74}, {"time": 2080, "pitch": 65, "duration": 2, "velocity": 86}, {"time": 2080, "pitch": 68, "duration": 2, "velocity": 88}, {"time": 2083, "pitch": 48, "duration": 1, "velocity": 82}, {"time": 2092, "pitch": 44, "duration": 15, "velocity": 87}, {"time": 2092, "pitch": 56, "duration": 6, "velocity": 75}, {"time": 2092, "pitch": 60, "duration": 10, "velocity": 78}, {"time": 2098, "pitch": 51, "duration": 9, "velocity": 69}, {"time": 2101, "pitch": 56, "duration": 6, "velocity": 91}, {"time": 2107, "pitch": 60, "duration": 1, "velocity": 85}, {"time": 2107, "pitch": 68, "duration": 3, "velocity": 87}, {"time": 2116, "pitch": 51, "duration": 14, "velocity": 90}, {"time": 2116, "pitch": 63, "duration": 6, "velocity": 84}, {"time": 2116, "pitch": 67, "duration": 9, "velocity": 78}, {"time": 2122, "pitch": 58, "duration": 8, "velocity": 73}, {"time": 2125, "pitch": 63, "duration": 5, "velocity": 97}, {"time": 2131, "pitch": 70, "duration": 4, "velocity": 84}, {"time": 2134, "pitch": 67, "duration": 3, "velocity": 86}, {"time": 2137, "pitch": 63, "duration": 2, "velocity": 87}, {"time": 2140, "pitch": 41, "duration": 14, "velocity": 90}, {"time": 2143, "pitch": 48, "duration": 11, "velocity": 68}, {"time": 2146, "pitch": 53, "duration": 9, "velocity": 86}, {"time": 2149, "pitch": 56, "duration": 4, "velocity": 87}, {"time": 2155, "pitch": 65, "duration": 9, "velocity": 87}, {"time": 2158, "pitch": 56, "duration": 3, "velocity": 78}, {"time": 2161, "pitch": 53, "duration": 2, "velocity": 89}, {"time": 2164, "pitch": 51, "duration": 18, "velocity": 90}, {"time": 2170, "pitch": 58, "duration": 10, "velocity": 79}, {"time": 2173, "pitch": 61, "duration": 6, "velocity": 88}, {"time": 2179, "pitch": 67, "duration": 4, "velocity": 87}, {"time": 2188, "pitch": 37, "duration": 21, "velocity": 89}, {"time": 2188, "pitch": 61, "duration": 6, "velocity": 81}, {"time": 2188, "pitch": 65, "duration": 9, "velocity": 77}, {"time": 2194, "pitch": 44, "duration": 14, "velocity": 70}, {"time": 2197, "pitch": 68, "duration": 7, "velocity": 82}, {"time": 2203, "pitch": 73, "duration": 3, "velocity": 92}, {"time": 2206, "pitch": 61, "duration": 2, "velocity": 82}, {"time": 2212, "pitch": 37, "duration": 14, "velocity": 76}, {"time": 2212, "pitch": 61, "duration": 5, "velocity": 71}, {"time": 2212, "pitch": 65, "duration": 5, "velocity": 73}, {"time": 2212, "pitch": 68, "duration": 7, "velocity": 75}, {"time": 2224, "pitch": 61, "duration": 2, "velocity": 84}, {"time": 2224, "pitch": 65, "duration": 1, "velocity": 89}, {"time": 2224, "pitch": 68, "duration": 2, "velocity": 87}, {"time": 2236, "pitch": 36, "duration": 21, "velocity": 87}, {"time": 2236, "pitch": 60, "duration": 6, "velocity": 76}, {"time": 2236, "pitch": 65, "duration": 6, "velocity": 83}, {"time": 2242, "pitch": 43, "duration": 8, "velocity": 58}, {"time": 2248, "pitch": 60, "duration": 2, "velocity": 90}, {"time": 2248, "pitch": 65, "duration": 5, "velocity": 91}, {"time": 2254, "pitch": 60, "duration": 3, "velocity": 76}, {"time": 2260, "pitch": 36, "duration": 18, "velocity": 82}, {"time": 2260, "pitch": 60, "duration": 9, "velocity": 74}, {"time": 2260, "pitch": 64, "duration": 7, "velocity": 83}, {"time": 2275, "pitch": 43, "duration": 8, "velocity": 78}, {"time": 2278, "pitch": 60, "duration": 3, "velocity": 86}, {"time": 2281, "pitch": 67, "duration": 1, "velocity": 80}, {"time": 2284, "pitch": 36, "duration": 13, "velocity": 84}, {"time": 2284, "pitch": 60, "duration": 7, "velocity": 86}, {"time": 2284, "pitch": 72, "duration": 9, "velocity": 80}, {"time": 2290, "pitch": 48, "duration": 15, "velocity": 77}, {"time": 2293, "pitch": 55, "duration": 13, "velocity": 84}, {"time": 2296, "pitch": 60, "duration": 8, "velocity": 90}, {"time": 2299, "pitch": 72, "duration": 11, "velocity": 81}, {"time": 2305, "pitch": 60, "duration": 1, "velocity": 65}, {"time": 2308, "pitch": 48, "duration": 14, "velocity": 85}, {"time": 2308, "pitch": 55, "duration": 13, "velocity": 82}, {"time": 2308, "pitch": 60, "duration": 5, "velocity": 85}, {"time": 2308, "pitch": 67, "duration": 5, "velocity": 78}, {"time": 2317, "pitch": 60, "duration": 1, "velocity": 89}, {"time": 2320, "pitch": 60, "duration": 3, "velocity": 97}, {"time": 2320, "pitch": 67, "duration": 6, "velocity": 89}, {"time": 2323, "pitch": 55, "duration": 8, "velocity": 95}, {"time": 2326, "pitch": 60, "duration": 3, "velocity": 100}, {"time": 2329, "pitch": 72, "duration": 2, "velocity": 80}, {"time": 2332, "pitch": 41, "duration": 13, "velocity": 87}, {"time": 2332, "pitch": 60, "duration": 6, "velocity": 85}, {"time": 2332, "pitch": 65, "duration": 9, "velocity": 81}, {"time": 2338, "pitch": 48, "duration": 8, "velocity": 75}, {"time": 2341, "pitch": 60, "duration": 6, "velocity": 85}, {"time": 2344, "pitch": 65, "duration": 3, "velocity": 87}, {"time": 2347, "pitch": 68, "duration": 6, "velocity": 89}, {"time": 2356, "pitch": 49, "duration": 16, "velocity": 89}, {"time": 2356, "pitch": 61, "duration": 5, "velocity": 81}, {"time": 2356, "pitch": 65, "duration": 6, "velocity": 82}, {"time": 2356, "pitch": 68, "duration": 6, "velocity": 87}, {"time": 2362, "pitch": 56, "duration": 4, "velocity": 83}, {"time": 2365, "pitch": 61, "duration": 4, "velocity": 93}, {"time": 2368, "pitch": 53, "duration": 5, "velocity": 72}, {"time": 2371, "pitch": 61, "duration": 1, "velocity": 89}, {"time": 2371, "pitch": 65, "duration": 2, "velocity": 90}, {"time": 2371, "pitch": 68, "duration": 3, "velocity": 87}, {"time": 2374, "pitch": 56, "duration": 1, "velocity": 84}, {"time": 2380, "pitch": 39, "duration": 18, "velocity": 86}, {"time": 2380, "pitch": 63, "duration": 5, "velocity": 92}, {"time": 2380, "pitch": 67, "duration": 7, "velocity": 82}, {"time": 2386, "pitch": 46, "duration": 7, "velocity": 70}, {"time": 2389, "pitch": 67, "duration": 1, "velocity": 68}, {"time": 2389, "pitch": 70, "duration": 3, "velocity": 81}, {"time": 2392, "pitch": 75, "duration": 5, "velocity": 107}, {"time": 2395, "pitch": 63, "duration": 2, "velocity": 100}, {"time": 2398, "pitch": 46, "duration": 1, "velocity": 91}, {"time": 2401, "pitch": 63, "duration": 1, "velocity": 86}, {"time": 2401, "pitch": 67, "duration": 1, "velocity": 75}, {"time": 2404, "pitch": 44, "duration": 16, "velocity": 87}, {"time": 2404, "pitch": 51, "duration": 6, "velocity": 79}, {"time": 2404, "pitch": 63, "duration": 2, "velocity": 87}, {"time": 2404, "pitch": 68, "duration": 6, "velocity": 87}, {"time": 2407, "pitch": 63, "duration": 1, "velocity": 88}, {"time": 2413, "pitch": 63, "duration": 3, "velocity": 97}, {"time": 2413, "pitch": 68, "duration": 3, "velocity": 95}, {"time": 2413, "pitch": 72, "duration": 4, "velocity": 90}, {"time": 2416, "pitch": 51, "duration": 4, "velocity": 83}, {"time": 2419, "pitch": 63, "duration": 1, "velocity": 93}, {"time": 2419, "pitch": 68, "duration": 1, "velocity": 90}, {"time": 2428, "pitch": 41, "duration": 13, "velocity": 89}, {"time": 2428, "pitch": 65, "duration": 3, "velocity": 86}, {"time": 2428, "pitch": 72, "duration": 7, "velocity": 82}, {"time": 2431, "pitch": 48, "duration": 7, "velocity": 79}, {"time": 2434, "pitch": 65, "duration": 1, "velocity": 73}, {"time": 2437, "pitch": 65, "duration": 3, "velocity": 87}, {"time": 2437, "pitch": 68, "duration": 3, "velocity": 86}, {"time": 2440, "pitch": 48, "duration": 2, "velocity": 74}, {"time": 2443, "pitch": 65, "duration": 2, "velocity": 88}, {"time": 2443, "pitch": 68, "duration": 1, "velocity": 84}, {"time": 2443, "pitch": 72, "duration": 2, "velocity": 91}, {"time": 2452, "pitch": 49, "duration": 14, "velocity": 90}, {"time": 2452, "pitch": 61, "duration": 3, "velocity": 84}, {"time": 2452, "pitch": 65, "duration": 4, "velocity": 80}, {"time": 2455, "pitch": 56, "duration": 6, "velocity": 71}, {"time": 2458, "pitch": 61, "duration": 1, "velocity": 83}, {"time": 2461, "pitch": 61, "duration": 3, "velocity": 86}, {"time": 2461, "pitch": 65, "duration": 3, "velocity": 81}, {"time": 2461, "pitch": 68, "duration": 3, "velocity": 84}, {"time": 2464, "pitch": 56, "duration": 2, "velocity": 80}, {"time": 2467, "pitch": 61, "duration": 1, "velocity": 87}, {"time": 2467, "pitch": 65, "duration": 2, "velocity": 83}, {"time": 2467, "pitch": 73, "duration": 2, "velocity": 90}, {"time": 2476, "pitch": 46, "duration": 18, "velocity": 87}, {"time": 2476, "pitch": 58, "duration": 6, "velocity": 86}, {"time": 2476, "pitch": 61, "duration": 7, "velocity": 86}, {"time": 2482, "pitch": 53, "duration": 4, "velocity": 72}, {"time": 2485, "pitch": 58, "duration": 4, "velocity": 92}, {"time": 2488, "pitch": 53, "duration": 4, "velocity": 84}, {"time": 2491, "pitch": 58, "duration": 1, "velocity": 88}, {"time": 2491, "pitch": 61, "duration": 2, "velocity": 87}, {"time": 2491, "pitch": 65, "duration": 2, "velocity": 87}, {"time": 2494, "pitch": 53, "duration": 2, "velocity": 80}, {"time": 2500, "pitch": 48, "duration": 9, "velocity": 92}, {"time": 2500, "pitch": 60, "duration": 6, "velocity": 88}, {"time": 2500, "pitch": 72, "duration": 6, "velocity": 81}, {"time": 2506, "pitch": 55, "duration": 4, "velocity": 77}, {"time": 2509, "pitch": 60, "duration": 4, "velocity": 97}, {"time": 2509, "pitch": 72, "duration": 4, "velocity": 86}, {"time": 2512, "pitch": 48, "duration": 3, "velocity": 97}, {"time": 2512, "pitch": 55, "duration": 4, "velocity": 88}, {"time": 2515, "pitch": 60, "duration": 2, "velocity": 95}, {"time": 2515, "pitch": 72, "duration": 2, "velocity": 87}, {"time": 2524, "pitch": 41, "duration": 13, "velocity": 89}, {"time": 2524, "pitch": 53, "duration": 10, "velocity": 86}, {"time": 2524, "pitch": 65, "duration": 5, "velocity": 85}, {"time": 2530, "pitch": 48, "duration": 4, "velocity": 70}, {"time": 2533, "pitch": 56, "duration": 4, "velocity": 85}, {"time": 2536, "pitch": 48, "duration": 2, "velocity": 78}, {"time": 2539, "pitch": 60, "duration": 3, "velocity": 87}, {"time": 2542, "pitch": 53, "duration": 3, "velocity": 87}, {"time": 2545, "pitch": 56, "duration": 2, "velocity": 81}, {"time": 2548, "pitch": 49, "duration": 13, "velocity": 92}, {"time": 2551, "pitch": 56, "duration": 6, "velocity": 73}, {"time": 2554, "pitch": 61, "duration": 1, "velocity": 87}, {"time": 2557, "pitch": 61, "duration": 3, "velocity": 88}, {"time": 2557, "pitch": 65, "duration": 3, "velocity": 87}, {"time": 2557, "pitch": 68, "duration": 3, "velocity": 88}, {"time": 2560, "pitch": 56, "duration": 3, "velocity": 81}, {"time": 2563, "pitch": 61, "duration": 2, "velocity": 90}, {"time": 2563, "pitch": 65, "duration": 2, "velocity": 90}, {"time": 2563, "pitch": 68, "duration": 2, "velocity": 90}, {"time": 2563, "pitch": 73, "duration": 3, "velocity": 88}, {"time": 2566, "pitch": 53, "duration": 1, "velocity": 61}, {"time": 2569, "pitch": 63, "duration": 2, "velocity": 77}, {"time": 2572, "pitch": 39, "duration": 13, "velocity": 90}, {"time": 2572, "pitch": 63, "duration": 5, "velocity": 91}, {"time": 2572, "pitch": 67, "duration": 6, "velocity": 78}, {"time": 2572, "pitch": 70, "duration": 6, "velocity": 84}, {"time": 2578, "pitch": 46, "duration": 4, "velocity": 71}, {"time": 2581, "pitch": 63, "duration": 4, "velocity": 92}, {"time": 2581, "pitch": 67, "duration": 4, "velocity": 95}, {"time": 2581, "pitch": 70, "duration": 4, "velocity": 88}, {"time": 2581, "pitch": 75, "duration": 3, "velocity": 87}, {"time": 2584, "pitch": 46, "duration": 2, "velocity": 72}, {"time": 2587, "pitch": 63, "duration": 1, "velocity": 87}, {"time": 2587, "pitch": 67, "duration": 3, "velocity": 103}, {"time": 2587, "pitch": 70, "duration": 5, "velocity": 90}, {"time": 2590, "pitch": 63, "duration": 3, "velocity": 88}, {"time": 2593, "pitch": 67, "duration": 1, "velocity": 75}, {"time": 2596, "pitch": 44, "duration": 16, "velocity": 87}, {"time": 2596, "pitch": 63, "duration": 5, "velocity": 84}, {"time": 2596, "pitch": 68, "duration": 6, "velocity": 88}, {"time": 2602, "pitch": 51, "duration": 4, "velocity": 76}, {"time": 2605, "pitch": 63, "duration": 1, "velocity": 89}, {"time": 2605, "pitch": 68, "duration": 1, "velocity": 87}, {"time": 2605, "pitch": 72, "duration": 1, "velocity": 82}, {"time": 2608, "pitch": 63, "duration": 2, "velocity": 95}, {"time": 2608, "pitch": 68, "duration": 3, "velocity": 95}, {"time": 2608, "pitch": 72, "duration": 3, "velocity": 89}, {"time": 2611, "pitch": 51, "duration": 2, "velocity": 91}, {"time": 2614, "pitch": 63, "duration": 1, "velocity": 93}, {"time": 2620, "pitch": 41, "duration": 12, "velocity": 91}, {"time": 2620, "pitch": 65, "duration": 5, "velocity": 83}, {"time": 2620, "pitch": 68, "duration": 6, "velocity": 87}, {"time": 2626, "pitch": 48, "duration": 3, "velocity": 73}, {"time": 2629, "pitch": 65, "duration": 3, "velocity": 90}, {"time": 2629, "pitch": 72, "duration": 3, "velocity": 90}, {"time": 2632, "pitch": 48, "duration": 2, "velocity": 82}, {"time": 2635, "pitch": 65, "duration": 1, "velocity": 89}, {"time": 2635, "pitch": 68, "duration": 1, "velocity": 87}, {"time": 2644, "pitch": 37, "duration": 17, "velocity": 88}, {"time": 2644, "pitch": 61, "duration": 3, "velocity": 78}, {"time": 2644, "pitch": 65, "duration": 6, "velocity": 77}, {"time": 2644, "pitch": 68, "duration": 8, "velocity": 81}, {"time": 2647, "pitch": 44, "duration": 13, "velocity": 79}, {"time": 2650, "pitch": 61, "duration": 4, "velocity": 85}, {"time": 2653, "pitch": 65, "duration": 3, "velocity": 92}, {"time": 2653, "pitch": 68, "duration": 2, "velocity": 76}, {"time": 2659, "pitch": 61, "duration": 2, "velocity": 87}, {"time": 2659, "pitch": 65, "duration": 8, "velocity": 88}, {"time": 2659, "pitch": 68, "duration": 8, "velocity": 87}, {"time": 2659, "pitch": 73, "duration": 7, "velocity": 90}, {"time": 2665, "pitch": 61, "duration": 3, "velocity": 80}, {"time": 2668, "pitch": 46, "duration": 20, "velocity": 89}, {"time": 2671, "pitch": 58, "duration": 3, "velocity": 76}, {"time": 2674, "pitch": 61, "duration": 3, "velocity": 88}, {"time": 2677, "pitch": 53, "duration": 4, "velocity": 83}, {"time": 2677, "pitch": 65, "duration": 3, "velocity": 93}, {"time": 2683, "pitch": 58, "duration": 2, "velocity": 90}, {"time": 2683, "pitch": 61, "duration": 6, "velocity": 89}, {"time": 2683, "pitch": 65, "duration": 8, "velocity": 91}, {"time": 2686, "pitch": 53, "duration": 3, "velocity": 71}, {"time": 2689, "pitch": 58, "duration": 2, "velocity": 87}, {"time": 2692, "pitch": 48, "duration": 10, "velocity": 93}, {"time": 2695, "pitch": 55, "duration": 7, "velocity": 82}, {"time": 2698, "pitch": 60, "duration": 1, "velocity": 89}, {"time": 2701, "pitch": 60, "duration": 4, "velocity": 97}, {"time": 2701, "pitch": 72, "duration": 4, "velocity": 86}, {"time": 2704, "pitch": 55, "duration": 3, "velocity": 86}, {"time": 2707, "pitch": 60, "duration": 1, "velocity": 92}, {"time": 2707, "pitch": 72, "duration": 2, "velocity": 87}, {"time": 2716, "pitch": 49, "duration": 13, "velocity": 91}, {"time": 2716, "pitch": 61, "duration": 3, "velocity": 87}, {"time": 2716, "pitch": 65, "duration": 6, "velocity": 86}, {"time": 2716, "pitch": 68, "duration": 7, "velocity": 86}, {"time": 2719, "pitch": 56, "duration": 6, "velocity": 73}, {"time": 2722, "pitch": 61, "duration": 1, "velocity": 86}, {"time": 2725, "pitch": 61, "duration": 7, "velocity": 91}, {"time": 2725, "pitch": 65, "duration": 9, "velocity": 97}, {"time": 2725, "pitch": 68, "duration": 10, "velocity": 91}, {"time": 2728, "pitch": 56, "duration": 3, "velocity": 83}, {"time": 2731, "pitch": 53, "duration": 3, "velocity": 93}, {"time": 2734, "pitch": 56, "duration": 1, "velocity": 88}, {"time": 2737, "pitch": 61, "duration": 1, "velocity": 90}, {"time": 2740, "pitch": 39, "duration": 15, "velocity": 90}, {"time": 2740, "pitch": 63, "duration": 3, "velocity": 93}, {"time": 2740, "pitch": 67, "duration": 6, "velocity": 82}, {"time": 2743, "pitch": 46, "duration": 6, "velocity": 77}, {"time": 2746, "pitch": 63, "duration": 1, "velocity": 87}, {"time": 2749, "pitch": 63, "duration": 4, "velocity": 95}, {"time": 2749, "pitch": 67, "duration": 4, "velocity": 92}, {"time": 2749, "pitch": 70, "duration": 4, "velocity": 88}, {"time": 2752, "pitch": 46, "duration": 3, "velocity": 85}, {"time": 2755, "pitch": 63, "duration": 2, "velocity": 90}, {"time": 2755, "pitch": 67, "duration": 2, "velocity": 90}, {"time": 2755, "pitch": 70, "duration": 2, "velocity": 88}, {"time": 2764, "pitch": 37, "duration": 1, "velocity": 88}, {"time": 2764, "pitch": 61, "duration": 9, "velocity": 86}, {"time": 2764, "pitch": 65, "duration": 12, "velocity": 87}, {"time": 2770, "pitch": 49, "duration": 11, "velocity": 73}, {"time": 2773, "pitch": 56, "duration": 6, "velocity": 83}, {"time": 2776, "pitch": 61, "duration": 8, "velocity": 87}, {"time": 2779, "pitch": 65, "duration": 6, "velocity": 88}, {"time": 2782, "pitch": 68, "duration": 4, "velocity": 79}, {"time": 2785, "pitch": 73, "duration": 3, "velocity": 90}, {"time": 2788, "pitch": 51, "duration": 16, "velocity": 89}, {"time": 2791, "pitch": 58, "duration": 7, "velocity": 74}, {"time": 2794, "pitch": 63, "duration": 1, "velocity": 85}, {"time": 2797, "pitch": 63, "duration": 1, "velocity": 55}, {"time": 2797, "pitch": 67, "duration": 9, "velocity": 89}, {"time": 2803, "pitch": 58, "duration": 2, "velocity": 88}, {"time": 2806, "pitch": 63, "duration": 4, "velocity": 87}, {"time": 2809, "pitch": 67, "duration": 1, "velocity": 57}, {"time": 2812, "pitch": 41, "duration": 22, "velocity": 87}, {"time": 2812, "pitch": 65, "duration": 4, "velocity": 79}, {"time": 2812, "pitch": 70, "duration": 7, "velocity": 87}, {"time": 2818, "pitch": 65, "duration": 1, "velocity": 78}, {"time": 2821, "pitch": 65, "duration": 9, "velocity": 84}, {"time": 2821, "pitch": 70, "duration": 12, "velocity": 90}, {"time": 2830, "pitch": 48, "duration": 4, "velocity": 61}, {"time": 2833, "pitch": 65, "duration": 1, "velocity": 85}, {"time": 2836, "pitch": 41, "duration": 21, "velocity": 86}, {"time": 2836, "pitch": 65, "duration": 9, "velocity": 87}, {"time": 2836, "pitch": 69, "duration": 9, "velocity": 85}, {"time": 2848, "pitch": 65, "duration": 2, "velocity": 83}, {"time": 2848, "pitch": 72, "duration": 3, "velocity": 76}, {"time": 2851, "pitch": 48, "duration": 3, "velocity": 32}, {"time": 2854, "pitch": 65, "duration": 3, "velocity": 82}, {"time": 2860, "pitch": 54, "duration": 20, "velocity": 85}, {"time": 2860, "pitch": 66, "duration": 4, "velocity": 80}, {"time": 2860, "pitch": 70, "duration": 7, "velocity": 85}, {"time": 2863, "pitch": 61, "duration": 12, "velocity": 73}, {"time": 2866, "pitch": 73, "duration": 3, "velocity": 87}, {"time": 2869, "pitch": 78, "duration": 3, "velocity": 87}, {"time": 2872, "pitch": 73, "duration": 10, "velocity": 97}, {"time": 2875, "pitch": 66, "duration": 3, "velocity": 88}, {"time": 2878, "pitch": 61, "duration": 2, "velocity": 82}, {"time": 2881, "pitch": 66, "duration": 2, "velocity": 80}, {"time": 2884, "pitch": 53, "duration": 16, "velocity": 87}, {"time": 2887, "pitch": 60, "duration": 7, "velocity": 75}, {"time": 2890, "pitch": 65, "duration": 4, "velocity": 78}, {"time": 2893, "pitch": 77, "duration": 7, "velocity": 80}, {"time": 2896, "pitch": 60, "duration": 10, "velocity": 81}, {"time": 2899, "pitch": 65, "duration": 4, "velocity": 80}, {"time": 2902, "pitch": 77, "duration": 5, "velocity": 80}, {"time": 2905, "pitch": 65, "duration": 2, "velocity": 86}, {"time": 2908, "pitch": 40, "duration": 17, "velocity": 86}, {"time": 2908, "pitch": 64, "duration": 2, "velocity": 80}, {"time": 2908, "pitch": 68, "duration": 4, "velocity": 82}, {"time": 2911, "pitch": 47, "duration": 13, "velocity": 80}, {"time": 2911, "pitch": 64, "duration": 4, "velocity": 73}, {"time": 2914, "pitch": 68, "duration": 3, "velocity": 87}, {"time": 2917, "pitch": 71, "duration": 2, "velocity": 80}, {"time": 2920, "pitch": 76, "duration": 6, "velocity": 88}, {"time": 2923, "pitch": 71, "duration": 3, "velocity": 87}, {"time": 2926, "pitch": 68, "duration": 4, "velocity": 83}, {"time": 2929, "pitch": 64, "duration": 4, "velocity": 74}, {"time": 2932, "pitch": 47, "duration": 24, "velocity": 88}, {"time": 2935, "pitch": 54, "duration": 12, "velocity": 70}, {"time": 2938, "pitch": 61, "duration": 3, "velocity": 81}, {"time": 2941, "pitch": 63, "duration": 3, "velocity": 87}, {"time": 2944, "pitch": 66, "duration": 3, "velocity": 92}, {"time": 2947, "pitch": 59, "duration": 2, "velocity": 89}, {"time": 2950, "pitch": 54, "duration": 7, "velocity": 82}, {"time": 2953, "pitch": 59, "duration": 2, "velocity": 85}, {"time": 2956, "pitch": 50, "duration": 24, "velocity": 90}, {"time": 2956, "pitch": 62, "duration": 3, "velocity": 79}, {"time": 2956, "pitch": 66, "duration": 5, "velocity": 82}, {"time": 2959, "pitch": 57, "duration": 21, "velocity": 73}, {"time": 2962, "pitch": 62, "duration": 3, "velocity": 86}, {"time": 2965, "pitch": 66, "duration": 1, "velocity": 78}, {"time": 2965, "pitch": 69, "duration": 3, "velocity": 86}, {"time": 2968, "pitch": 74, "duration": 3, "velocity": 87}, {"time": 2971, "pitch": 69, "duration": 4, "velocity": 93}, {"time": 2974, "pitch": 66, "duration": 6, "velocity": 82}, {"time": 2977, "pitch": 62, "duration": 3, "velocity": 83}, {"time": 2980, "pitch": 45, "duration": 24, "velocity": 85}, {"time": 2980, "pitch": 57, "duration": 1, "velocity": 78}, {"time": 2980, "pitch": 61, "duration": 6, "velocity": 87}, {"time": 2983, "pitch": 52, "duration": 21, "velocity": 70}, {"time": 2986, "pitch": 57, "duration": 4, "velocity": 88}, {"time": 2989, "pitch": 61, "duration": 3, "velocity": 86}, {"time": 2992, "pitch": 69, "duration": 7, "velocity": 88}, {"time": 2995, "pitch": 61, "duration": 3, "velocity": 86}, {"time": 2998, "pitch": 57, "duration": 5, "velocity": 91}, {"time": 3001, "pitch": 69, "duration": 3, "velocity": 86}, {"time": 3004, "pitch": 47, "duration": 21, "velocity": 88}, {"time": 3004, "pitch": 59, "duration": 3, "velocity": 83}, {"time": 3004, "pitch": 63, "duration": 3, "velocity": 86}, {"time": 3007, "pitch": 54, "duration": 18, "velocity": 81}, {"time": 3010, "pitch": 66, "duration": 3, "velocity": 88}, {"time": 3013, "pitch": 63, "duration": 2, "velocity": 80}, {"time": 3016, "pitch": 71, "duration": 3, "velocity": 93}, {"time": 3019, "pitch": 66, "duration": 3, "velocity": 86}, {"time": 3022, "pitch": 63, "duration": 3, "velocity": 87}, {"time": 3025, "pitch": 59, "duration": 3, "velocity": 90}, {"time": 3028, "pitch": 49, "duration": 24, "velocity": 91}, {"time": 3031, "pitch": 56, "duration": 21, "velocity": 75}, {"time": 3034, "pitch": 65, "duration": 3, "velocity": 80}, {"time": 3037, "pitch": 61, "duration": 2, "velocity": 86}, {"time": 3040, "pitch": 68, "duration": 5, "velocity": 85}, {"time": 3043, "pitch": 65, "duration": 2, "velocity": 87}, {"time": 3046, "pitch": 73, "duration": 5, "velocity": 93}, {"time": 3049, "pitch": 61, "duration": 2, "velocity": 87}, {"time": 3052, "pitch": 39, "duration": 1, "velocity": 86}, {"time": 3052, "pitch": 63, "duration": 5, "velocity": 88}, {"time": 3052, "pitch": 75, "duration": 6, "velocity": 86}, {"time": 3055, "pitch": 51, "duration": 17, "velocity": 75}, {"time": 3058, "pitch": 58, "duration": 9, "velocity": 87}, {"time": 3061, "pitch": 63, "duration": 3, "velocity": 92}, {"time": 3064, "pitch": 67, "duration": 2, "velocity": 97}, {"time": 3067, "pitch": 63, "duration": 2, "velocity": 100}, {"time": 3070, "pitch": 70, "duration": 4, "velocity": 87}, {"time": 3073, "pitch": 63, "duration": 2, "velocity": 93}, {"time": 3075, "pitch": 36, "duration": 3, "velocity": 89}, {"time": 3075, "pitch": 72, "duration": 4, "velocity": 79}, {"time": 3075, "pitch": 60, "duration": 4, "velocity": 84}, {"time": 3076, "pitch": 67, "duration": 2, "velocity": 77}, {"time": 3080, "pitch": 36, "duration": 2, "velocity": 87}, {"time": 3080, "pitch": 72, "duration": 3, "velocity": 82}, {"time": 3080, "pitch": 60, "duration": 3, "velocity": 86}, {"time": 3080, "pitch": 67, "duration": 3, "velocity": 80}, {"time": 3084, "pitch": 36, "duration": 2, "velocity": 97}, {"time": 3084, "pitch": 72, "duration": 3, "velocity": 88}, {"time": 3084, "pitch": 67, "duration": 2, "velocity": 89}, {"time": 3084, "pitch": 60, "duration": 2, "velocity": 91}, {"time": 3088, "pitch": 36, "duration": 11, "velocity": 97}, {"time": 3088, "pitch": 72, "duration": 11, "velocity": 88}, {"time": 3088, "pitch": 60, "duration": 11, "velocity": 92}, {"time": 3088, "pitch": 67, "duration": 11, "velocity": 91}, {"time": 3100, "pitch": 41, "duration": 12, "velocity": 79}, {"time": 3100, "pitch": 53, "duration": 2, "velocity": 77}, {"time": 3100, "pitch": 60, "duration": 2, "velocity": 76}, {"time": 3103, "pitch": 48, "duration": 10, "velocity": 73}, {"time": 3106, "pitch": 53, "duration": 3, "velocity": 82}, {"time": 3109, "pitch": 56, "duration": 3, "velocity": 80}, {"time": 3112, "pitch": 65, "duration": 4, "velocity": 88}, {"time": 3115, "pitch": 60, "duration": 7, "velocity": 78}, {"time": 3118, "pitch": 53, "duration": 3, "velocity": 86}, {"time": 3121, "pitch": 56, "duration": 1, "velocity": 72}, {"time": 3124, "pitch": 49, "duration": 17, "velocity": 88}, {"time": 3127, "pitch": 56, "duration": 13, "velocity": 72}, {"time": 3130, "pitch": 65, "duration": 3, "velocity": 79}, {"time": 3133, "pitch": 61, "duration": 2, "velocity": 77}, {"time": 3136, "pitch": 68, "duration": 5, "velocity": 87}, {"time": 3139, "pitch": 65, "duration": 1, "velocity": 91}, {"time": 3142, "pitch": 73, "duration": 7, "velocity": 91}, {"time": 3145, "pitch": 61, "duration": 2, "velocity": 86}, {"time": 3148, "pitch": 51, "duration": 13, "velocity": 88}, {"time": 3151, "pitch": 58, "duration": 9, "velocity": 79}, {"time": 3154, "pitch": 67, "duration": 2, "velocity": 87}, {"time": 3157, "pitch": 63, "duration": 2, "velocity": 88}, {"time": 3160, "pitch": 70, "duration": 5, "velocity": 83}, {"time": 3163, "pitch": 67, "duration": 2, "velocity": 81}, {"time": 3166, "pitch": 75, "duration": 3, "velocity": 91}, {"time": 3169, "pitch": 70, "duration": 3, "velocity": 87}, {"time": 3172, "pitch": 44, "duration": 20, "velocity": 86}, {"time": 3175, "pitch": 51, "duration": 12, "velocity": 77}, {"time": 3178, "pitch": 58, "duration": 4, "velocity": 72}, {"time": 3181, "pitch": 60, "duration": 3, "velocity": 84}, {"time": 3184, "pitch": 63, "duration": 4, "velocity": 95}, {"time": 3187, "pitch": 56, "duration": 3, "velocity": 76}, {"time": 3190, "pitch": 51, "duration": 2, "velocity": 88}, {"time": 3193, "pitch": 56, "duration": 3, "velocity": 85}, {"time": 3196, "pitch": 41, "duration": 12, "velocity": 84}, {"time": 3199, "pitch": 48, "duration": 9, "velocity": 67}, {"time": 3202, "pitch": 53, "duration": 4, "velocity": 84}, {"time": 3205, "pitch": 56, "duration": 3, "velocity": 77}, {"time": 3208, "pitch": 65, "duration": 5, "velocity": 88}, {"time": 3211, "pitch": 60, "duration": 3, "velocity": 89}, {"time": 3214, "pitch": 56, "duration": 3, "velocity": 86}, {"time": 3217, "pitch": 53, "duration": 2, "velocity": 93}, {"time": 3220, "pitch": 49, "duration": 18, "velocity": 88}, {"time": 3220, "pitch": 68, "duration": 6, "velocity": 86}, {"time": 3223, "pitch": 56, "duration": 14, "velocity": 73}, {"time": 3226, "pitch": 65, "duration": 3, "velocity": 86}, {"time": 3229, "pitch": 61, "duration": 4, "velocity": 85}, {"time": 3232, "pitch": 73, "duration": 3, "velocity": 100}, {"time": 3235, "pitch": 68, "duration": 4, "velocity": 86}, {"time": 3238, "pitch": 65, "duration": 3, "velocity": 87}, {"time": 3241, "pitch": 61, "duration": 2, "velocity": 87}, {"time": 3244, "pitch": 46, "duration": 16, "velocity": 86}, {"time": 3247, "pitch": 53, "duration": 12, "velocity": 69}, {"time": 3250, "pitch": 61, "duration": 3, "velocity": 80}, {"time": 3253, "pitch": 65, "duration": 3, "velocity": 86}, {"time": 3256, "pitch": 70, "duration": 6, "velocity": 89}, {"time": 3259, "pitch": 65, "duration": 4, "velocity": 89}, {"time": 3262, "pitch": 61, "duration": 4, "velocity": 87}, {"time": 3265, "pitch": 58, "duration": 2, "velocity": 87}, {"time": 3268, "pitch": 48, "duration": 9, "velocity": 92}, {"time": 3268, "pitch": 60, "duration": 6, "velocity": 88}, {"time": 3268, "pitch": 72, "duration": 6, "velocity": 81}, {"time": 3274, "pitch": 55, "duration": 4, "velocity": 77}, {"time": 3277, "pitch": 60, "duration": 4, "velocity": 97}, {"time": 3277, "pitch": 72, "duration": 4, "velocity": 86}, {"time": 3280, "pitch": 48, "duration": 3, "velocity": 97}, {"time": 3280, "pitch": 55, "duration": 4, "velocity": 88}, {"time": 3283, "pitch": 60, "duration": 2, "velocity": 95}, {"time": 3283, "pitch": 72, "duration": 2, "velocity": 87}, {"time": 3292, "pitch": 41, "duration": 13, "velocity": 89}, {"time": 3292, "pitch": 53, "duration": 10, "velocity": 86}, {"time": 3292, "pitch": 65, "duration": 5, "velocity": 85}, {"time": 3298, "pitch": 48, "duration": 4, "velocity": 70}, {"time": 3301, "pitch": 56, "duration": 4, "velocity": 85}, {"time": 3304, "pitch": 48, "duration": 2, "velocity": 78}, {"time": 3307, "pitch": 60, "duration": 3, "velocity": 87}, {"time": 3310, "pitch": 53, "duration": 3, "velocity": 87}, {"time": 3313, "pitch": 56, "duration": 2, "velocity": 81}, {"time": 3316, "pitch": 49, "duration": 13, "velocity": 92}, {"time": 3319, "pitch": 56, "duration": 6, "velocity": 73}, {"time": 3322, "pitch": 61, "duration": 1, "velocity": 87}, {"time": 3325, "pitch": 61, "duration": 3, "velocity": 88}, {"time": 3325, "pitch": 65, "duration": 3, "velocity": 87}, {"time": 3325, "pitch": 68, "duration": 3, "velocity": 88}, {"time": 3328, "pitch": 56, "duration": 3, "velocity": 81}, {"time": 3331, "pitch": 61, "duration": 2, "velocity": 90}, {"time": 3331, "pitch": 65, "duration": 2, "velocity": 90}, {"time": 3331, "pitch": 68, "duration": 2, "velocity": 90}, {"time": 3331, "pitch": 73, "duration": 3, "velocity": 88}, {"time": 3334, "pitch": 53, "duration": 1, "velocity": 61}, {"time": 3337, "pitch": 63, "duration": 2, "velocity": 77}, {"time": 3340, "pitch": 39, "duration": 13, "velocity": 90}, {"time": 3340, "pitch": 63, "duration": 5, "velocity": 91}, {"time": 3340, "pitch": 67, "duration": 6, "velocity": 78}, {"time": 3340, "pitch": 70, "duration": 6, "velocity": 84}, {"time": 3346, "pitch": 46, "duration": 4, "velocity": 71}, {"time": 3349, "pitch": 63, "duration": 4, "velocity": 92}, {"time": 3349, "pitch": 67, "duration": 4, "velocity": 95}, {"time": 3349, "pitch": 70, "duration": 4, "velocity": 88}, {"time": 3349, "pitch": 75, "duration": 3, "velocity": 87}, {"time": 3352, "pitch": 46, "duration": 2, "velocity": 72}, {"time": 3355, "pitch": 63, "duration": 1, "velocity": 87}, {"time": 3355, "pitch": 67, "duration": 3, "velocity": 103}, {"time": 3355, "pitch": 70, "duration": 5, "velocity": 90}, {"time": 3358, "pitch": 63, "duration": 3, "velocity": 88}, {"time": 3361, "pitch": 67, "duration": 1, "velocity": 75}, {"time": 3364, "pitch": 44, "duration": 16, "velocity": 87}, {"time": 3364, "pitch": 63, "duration": 5, "velocity": 84}, {"time": 3364, "pitch": 68, "duration": 6, "velocity": 88}, {"time": 3370, "pitch": 51, "duration": 4, "velocity": 76}, {"time": 3373, "pitch": 63, "duration": 1, "velocity": 89}, {"time": 3373, "pitch": 68, "duration": 1, "velocity": 87}, {"time": 3373, "pitch": 72, "duration": 1, "velocity": 82}, {"time": 3376, "pitch": 63, "duration": 2, "velocity": 95}, {"time": 3376, "pitch": 68, "duration": 3, "velocity": 95}, {"time": 3376, "pitch": 72, "duration": 3, "velocity": 89}, {"time": 3379, "pitch": 51, "duration": 2, "velocity": 91}, {"time": 3382, "pitch": 63, "duration": 1, "velocity": 93}, {"time": 3388, "pitch": 41, "duration": 12, "velocity": 91}, {"time": 3388, "pitch": 65, "duration": 5, "velocity": 83}, {"time": 3388, "pitch": 68, "duration": 6, "velocity": 87}, {"time": 3394, "pitch": 48, "duration": 3, "velocity": 73}, {"time": 3397, "pitch": 65, "duration": 3, "velocity": 90}, {"time": 3397, "pitch": 72, "duration": 3, "velocity": 90}, {"time": 3400, "pitch": 48, "duration": 2, "velocity": 82}, {"time": 3403, "pitch": 65, "duration": 1, "velocity": 89}, {"time": 3403, "pitch": 68, "duration": 1, "velocity": 87}, {"time": 3412, "pitch": 37, "duration": 17, "velocity": 88}, {"time": 3412, "pitch": 61, "duration": 3, "velocity": 78}, {"time": 3412, "pitch": 65, "duration": 6, "velocity": 77}, {"time": 3412, "pitch": 68, "duration": 8, "velocity": 81}, {"time": 3415, "pitch": 44, "duration": 13, "velocity": 79}, {"time": 3418, "pitch": 61, "duration": 4, "velocity": 85}, {"time": 3421, "pitch": 65, "duration": 3, "velocity": 92}, {"time": 3421, "pitch": 68, "duration": 2, "velocity": 76}, {"time": 3427, "pitch": 61, "duration": 2, "velocity": 87}, {"time": 3427, "pitch": 65, "duration": 8, "velocity": 88}, {"time": 3427, "pitch": 68, "duration": 8, "velocity": 87}, {"time": 3427, "pitch": 73, "duration": 7, "velocity": 90}, {"time": 3433, "pitch": 61, "duration": 3, "velocity": 80}, {"time": 3436, "pitch": 46, "duration": 20, "velocity": 89}, {"time": 3439, "pitch": 58, "duration": 3, "velocity": 76}, {"time": 3442, "pitch": 61, "duration": 3, "velocity": 88}, {"time": 3445, "pitch": 53, "duration": 4, "velocity": 83}, {"time": 3445, "pitch": 65, "duration": 3, "velocity": 93}, {"time": 3451, "pitch": 58, "duration": 2, "velocity": 90}, {"time": 3451, "pitch": 61, "duration": 6, "velocity": 89}, {"time": 3451, "pitch": 65, "duration": 8, "velocity": 91}, {"time": 3454, "pitch": 53, "duration": 3, "velocity": 71}, {"time": 3457, "pitch": 58, "duration": 2, "velocity": 87}, {"time": 3460, "pitch": 48, "duration": 10, "velocity": 93}, {"time": 3463, "pitch": 55, "duration": 7, "velocity": 82}, {"time": 3466, "pitch": 60, "duration": 1, "velocity": 89}, {"time": 3469, "pitch": 60, "duration": 4, "velocity": 97}, {"time": 3469, "pitch": 72, "duration": 4, "velocity": 86}, {"time": 3472, "pitch": 55, "duration": 3, "velocity": 86}, {"time": 3475, "pitch": 60, "duration": 1, "velocity": 92}, {"time": 3475, "pitch": 72, "duration": 2, "velocity": 87}, {"time": 3484, "pitch": 49, "duration": 13, "velocity": 91}, {"time": 3484, "pitch": 61, "duration": 3, "velocity": 87}, {"time": 3484, "pitch": 65, "duration": 6, "velocity": 86}, {"time": 3484, "pitch": 68, "duration": 7, "velocity": 86}, {"time": 3487, "pitch": 56, "duration": 6, "velocity": 73}, {"time": 3490, "pitch": 61, "duration": 1, "velocity": 86}, {"time": 3493, "pitch": 61, "duration": 7, "velocity": 91}, {"time": 3493, "pitch": 65, "duration": 9, "velocity": 97}, {"time": 3493, "pitch": 68, "duration": 10, "velocity": 91}, {"time": 3496, "pitch": 56, "duration": 3, "velocity": 83}, {"time": 3499, "pitch": 53, "duration": 3, "velocity": 93}, {"time": 3502, "pitch": 56, "duration": 1, "velocity": 88}, {"time": 3505, "pitch": 61, "duration": 1, "velocity": 90}, {"time": 3508, "pitch": 39, "duration": 15, "velocity": 90}, {"time": 3508, "pitch": 63, "duration": 3, "velocity": 93}, {"time": 3508, "pitch": 67, "duration": 6, "velocity": 82}, {"time": 3511, "pitch": 46, "duration": 6, "velocity": 77}, {"time": 3514, "pitch": 63, "duration": 1, "velocity": 87}, {"time": 3517, "pitch": 63, "duration": 4, "velocity": 95}, {"time": 3517, "pitch": 67, "duration": 4, "velocity": 92}, {"time": 3517, "pitch": 70, "duration": 4, "velocity": 88}, {"time": 3520, "pitch": 46, "duration": 3, "velocity": 85}, {"time": 3523, "pitch": 63, "duration": 2, "velocity": 90}, {"time": 3523, "pitch": 67, "duration": 2, "velocity": 90}, {"time": 3523, "pitch": 70, "duration": 2, "velocity": 88}, {"time": 3532, "pitch": 37, "duration": 1, "velocity": 88}, {"time": 3532, "pitch": 61, "duration": 9, "velocity": 86}, {"time": 3532, "pitch": 65, "duration": 12, "velocity": 87}, {"time": 3538, "pitch": 49, "duration": 11, "velocity": 73}, {"time": 3541, "pitch": 56, "duration": 6, "velocity": 83}, {"time": 3544, "pitch": 61, "duration": 8, "velocity": 87}, {"time": 3547, "pitch": 65, "duration": 6, "velocity": 88}, {"time": 3550, "pitch": 68, "duration": 4, "velocity": 79}, {"time": 3553, "pitch": 73, "duration": 3, "velocity": 90}, {"time": 3556, "pitch": 51, "duration": 16, "velocity": 89}, {"time": 3559, "pitch": 58, "duration": 7, "velocity": 74}, {"time": 3562, "pitch": 63, "duration": 1, "velocity": 85}, {"time": 3565, "pitch": 63, "duration": 1, "velocity": 55}, {"time": 3565, "pitch": 67, "duration": 9, "velocity": 89}, {"time": 3571, "pitch": 58, "duration": 2, "velocity": 88}, {"time": 3574, "pitch": 63, "duration": 4, "velocity": 87}, {"time": 3577, "pitch": 67, "duration": 1, "velocity": 57}, {"time": 3580, "pitch": 41, "duration": 13, "velocity": 97}, {"time": 3580, "pitch": 60, "duration": 5, "velocity": 87}, {"time": 3580, "pitch": 65, "duration": 6, "velocity": 86}, {"time": 3580, "pitch": 70, "duration": 6, "velocity": 89}, {"time": 3586, "pitch": 48, "duration": 8, "velocity": 65}, {"time": 3589, "pitch": 60, "duration": 2, "velocity": 87}, {"time": 3589, "pitch": 65, "duration": 2, "velocity": 87}, {"time": 3589, "pitch": 70, "duration": 3, "velocity": 90}, {"time": 3598, "pitch": 41, "duration": 30, "velocity": 91}, {"time": 3598, "pitch": 60, "duration": 29, "velocity": 88}, {"time": 3598, "pitch": 65, "duration": 29, "velocity": 88}, {"time": 3598, "pitch": 69, "duration": 29, "velocity": 88}, {"time": 3628, "pitch": 41, "duration": 1, "velocity": 85}, {"time": 3631, "pitch": 48, "duration": 12, "velocity": 67}, {"time": 3634, "pitch": 53, "duration": 10, "velocity": 84}, {"time": 3637, "pitch": 65, "duration": 7, "velocity": 88}, {"time": 3643, "pitch": 60, "duration": 4, "velocity": 85}, {"time": 3646, "pitch": 53, "duration": 3, "velocity": 87}, {"time": 3649, "pitch": 65, "duration": 3, "velocity": 80}, {"time": 3652, "pitch": 49, "duration": 16, "velocity": 88}, {"time": 3655, "pitch": 56, "duration": 3, "velocity": 85}, {"time": 3658, "pitch": 61, "duration": 3, "velocity": 79}, {"time": 3661, "pitch": 56, "duration": 6, "velocity": 87}, {"time": 3667, "pitch": 65, "duration": 7, "velocity": 90}, {"time": 3670, "pitch": 61, "duration": 4, "velocity": 84}, {"time": 3673, "pitch": 56, "duration": 3, "velocity": 75}, {"time": 3676, "pitch": 44, "duration": 16, "velocity": 87}, {"time": 3679, "pitch": 51, "duration": 12, "velocity": 77}, {"time": 3682, "pitch": 60, "duration": 3, "velocity": 85}, {"time": 3685, "pitch": 56, "duration": 6, "velocity": 89}, {"time": 3691, "pitch": 60, "duration": 3, "velocity": 86}, {"time": 3691, "pitch": 63, "duration": 6, "velocity": 87}, {"time": 3694, "pitch": 56, "duration": 4, "velocity": 87}, {"time": 3697, "pitch": 60, "duration": 3, "velocity": 90}, {"time": 3700, "pitch": 39, "duration": 18, "velocity": 91}, {"time": 3703, "pitch": 46, "duration": 7, "velocity": 78}, {"time": 3706, "pitch": 51, "duration": 4, "velocity": 87}, {"time": 3709, "pitch": 55, "duration": 4, "velocity": 102}, {"time": 3712, "pitch": 46, "duration": 5, "velocity": 95}, {"time": 3715, "pitch": 55, "duration": 1, "velocity": 73}, {"time": 3715, "pitch": 58, "duration": 4, "velocity": 86}, {"time": 3718, "pitch": 51, "duration": 3, "velocity": 88}, {"time": 3721, "pitch": 63, "duration": 4, "velocity": 87}, {"time": 3724, "pitch": 46, "duration": 21, "velocity": 91}, {"time": 3730, "pitch": 61, "duration": 6, "velocity": 82}, {"time": 3733, "pitch": 58, "duration": 4, "velocity": 91}, {"time": 3736, "pitch": 53, "duration": 6, "velocity": 84}, {"time": 3739, "pitch": 58, "duration": 4, "velocity": 88}, {"time": 3742, "pitch": 61, "duration": 3, "velocity": 83}, {"time": 3745, "pitch": 65, "duration": 3, "velocity": 77}, {"time": 3748, "pitch": 36, "duration": 13, "velocity": 93}, {"time": 3751, "pitch": 43, "duration": 7, "velocity": 87}, {"time": 3754, "pitch": 48, "duration": 6, "velocity": 92}, {"time": 3757, "pitch": 60, "duration": 6, "velocity": 90}, {"time": 3760, "pitch": 43, "duration": 4, "velocity": 83}, {"time": 3763, "pitch": 48, "duration": 3, "velocity": 93}, {"time": 3766, "pitch": 60, "duration": 5, "velocity": 81}, {"time": 3769, "pitch": 48, "duration": 2, "velocity": 88}, {"time": 3770, "pitch": 53, "duration": 13, "velocity": 80}, {"time": 3772, "pitch": 56, "duration": 16, "velocity": 77}, {"time": 3772, "pitch": 41, "duration": 58, "velocity": 87}, {"time": 3772, "pitch": 65, "duration": 57, "velocity": 77}, {"time": 3779, "pitch": 48, "duration": 51, "velocity": 70}, {"time": 3787, "pitch": 53, "duration": 41, "velocity": 71}], "annotations": [{"time": 51, "annotation": {"number": 64, "value": 127}, "group": "control_change"}, {"time": 73, "annotation": {"number": 64, "value": 0}, "group": "control_change"}, {"time": 74, "annotation": {"number": 64, "value": 127}, "group": "control_change"}, {"time": 98, "annotation": {"number": 64, "value": 0}, "group": "control_change"}, {"time": 101, "annotation": {"number": 64, "value": 127}, "group": "control_change"}, {"time": 121, "annotation": {"number": 64, "value": 0}, "group": "control_change"}, {"time": 123, "annotation": {"number": 64, "value": 127}, "group": "control_change"}, {"time": 146, "annotation": {"number": 64, "value": 0}, "group": "control_change"}, {"time": 148, "annotation": {"number": 64, "value": 127}, "group": "control_change"}, {"time": 170, "annotation": {"number": 64, "value": 0}, "group": "control_change"}, {"time": 172, "annotation": {"number": 64, "value": 127}, "group": "control_change"}, {"time": 194, "annotation": {"number": 64, "value": 0}, "group": "control_change"}, {"time": 196, "annotation": {"number": 64, "value": 127}, "group": "control_change"}, {"time": 243, "annotation": {"number": 64, "value": 0}, "group": "control_change"}, {"time": 243, "annotation": {"number": 64, "value": 127}, "group": "control_change"}, {"time": 290, "annotation": {"number": 64, "value": 0}, "group": "control_change"}, {"time": 314, "annotation": {"number": 64, "value": 0}, "group": "control_change"}, {"time": 316, "annotation": {"number": 64, "value": 127}, "group": "control_change"}, {"time": 338, "annotation": {"number": 64, "value": 0}, "group": "control_change"}, {"time": 341, "annotation": {"number": 64, "value": 127}, "group": "control_change"}, {"time": 389, "annotation": {"number": 64, "value": 0}, "group": "control_change"}, {"time": 392, "annotation": {"number": 64, "value": 127}, "group": "control_change"}, {"time": 410, "annotation": {"number": 64, "value": 0}, "group": "control_change"}, {"time": 413, "annotation": {"number": 64, "value": 127}, "group": "control_change"}, {"time": 435, "annotation": {"number": 64, "value": 0}, "group": "control_change"}, {"time": 436, "annotation": {"number": 64, "value": 127}, "group": "control_change"}, {"time": 484, "annotation": {"number": 64, "value": 0}, "group": "control_change"}, {"time": 488, "annotation": {"number": 64, "value": 127}, "group": "control_change"}, {"time": 508, "annotation": {"number": 64, "value": 0}, "group": "control_change"}, {"time": 510, "annotation": {"number": 64, "value": 127}, "group": "control_change"}, {"time": 528, "annotation": {"number": 64, "value": 0}, "group": "control_change"}, {"time": 530, "annotation": {"number": 64, "value": 127}, "group": "control_change"}, {"time": 552, "annotation": {"number": 64, "value": 0}, "group": "control_change"}, {"time": 554, "annotation": {"number": 64, "value": 127}, "group": "control_change"}, {"time": 579, "annotation": {"number": 64, "value": 0}, "group": "control_change"}, {"time": 581, "annotation": {"number": 64, "value": 127}, "group": "control_change"}, {"time": 627, "annotation": {"number": 64, "value": 0}, "group": "control_change"}, {"time": 628, "annotation": {"number": 64, "value": 127}, "group": "control_change"}, {"time": 651, "annotation": {"number": 64, "value": 0}, "group": "control_change"}, {"time": 653, "annotation": {"number": 64, "value": 127}, "group": "control_change"}, {"time": 674, "annotation": {"number": 64, "value": 0}, "group": "control_change"}, {"time": 698, "annotation": {"number": 64, "value": 0}, "group": "control_change"}, {"time": 700, "annotation": {"number": 64, "value": 127}, "group": "control_change"}, {"time": 722, "annotation": {"number": 64, "value": 0}, "group": "control_change"}, {"time": 725, "annotation": {"number": 64, "value": 127}, "group": "control_change"}, {"time": 773, "annotation": {"number": 64, "value": 0}, "group": "control_change"}, {"time": 776, "annotation": {"number": 64, "value": 127}, "group": "control_change"}, {"time": 794, "annotation": {"number": 64, "value": 0}, "group": "control_change"}, {"time": 797, "annotation": {"number": 64, "value": 127}, "group": "control_change"}, {"time": 819, "annotation": {"number": 64, "value": 0}, "group": "control_change"}, {"time": 820, "annotation": {"number": 64, "value": 127}, "group": "control_change"}, {"time": 868, "annotation": {"number": 64, "value": 0}, "group": "control_change"}, {"time": 872, "annotation": {"number": 64, "value": 127}, "group": "control_change"}, {"time": 892, "annotation": {"number": 64, "value": 0}, "group": "control_change"}, {"time": 894, "annotation": {"number": 64, "value": 127}, "group": "control_change"}, {"time": 912, "annotation": {"number": 64, "value": 0}, "group": "control_change"}, {"time": 914, "annotation": {"number": 64, "value": 127}, "group": "control_change"}, {"time": 936, "annotation": {"number": 64, "value": 0}, "group": "control_change"}, {"time": 938, "annotation": {"number": 64, "value": 127}, "group": "control_change"}, {"time": 963, "annotation": {"number": 64, "value": 0}, "group": "control_change"}, {"time": 965, "annotation": {"number": 64, "value": 127}, "group": "control_change"}, {"time": 1011, "annotation": {"number": 64, "value": 0}, "group": "control_change"}, {"time": 1012, "annotation": {"number": 64, "value": 127}, "group": "control_change"}, {"time": 1035, "annotation": {"number": 64, "value": 0}, "group": "control_change"}, {"time": 1037, "annotation": {"number": 64, "value": 127}, "group": "control_change"}, {"time": 1054, "annotation": {"number": 64, "value": 127}, "group": "control_change"}, {"time": 1058, "annotation": {"number": 64, "value": 0}, "group": "control_change"}, {"time": 1059, "annotation": {"number": 64, "value": 127}, "group": "control_change"}, {"time": 1105, "annotation": {"number": 64, "value": 0}, "group": "control_change"}, {"time": 1108, "annotation": {"number": 64, "value": 127}, "group": "control_change"}, {"time": 1131, "annotation": {"number": 64, "value": 0}, "group": "control_change"}, {"time": 1132, "annotation": {"number": 64, "value": 127}, "group": "control_change"}, {"time": 1153, "annotation": {"number": 64, "value": 0}, "group": "control_change"}, {"time": 1155, "annotation": {"number": 64, "value": 127}, "group": "control_change"}, {"time": 1178, "annotation": {"number": 64, "value": 0}, "group": "control_change"}, {"time": 1179, "annotation": {"number": 64, "value": 127}, "group": "control_change"}, {"time": 1202, "annotation": {"number": 64, "value": 0}, "group": "control_change"}, {"time": 1204, "annotation": {"number": 64, "value": 127}, "group": "control_change"}, {"time": 1227, "annotation": {"number": 64, "value": 0}, "group": "control_change"}, {"time": 1229, "annotation": {"number": 64, "value": 127}, "group": "control_change"}, {"time": 1250, "annotation": {"number": 64, "value": 0}, "group": "control_change"}, {"time": 1252, "annotation": {"number": 64, "value": 127}, "group": "control_change"}, {"time": 1274, "annotation": {"number": 64, "value": 0}, "group": "control_change"}, {"time": 1276, "annotation": {"number": 64, "value": 127}, "group": "control_change"}, {"time": 1299, "annotation": {"number": 64, "value": 0}, "group": "control_change"}, {"time": 1303, "annotation": {"number": 64, "value": 127}, "group": "control_change"}, {"time": 1322, "annotation": {"number": 64, "value": 0}, "group": "control_change"}, {"time": 1324, "annotation": {"number": 64, "value": 127}, "group": "control_change"}, {"time": 1346, "annotation": {"number": 64, "value": 0}, "group": "control_change"}, {"time": 1347, "annotation": {"number": 64, "value": 127}, "group": "control_change"}, {"time": 1370, "annotation": {"number": 64, "value": 0}, "group": "control_change"}, {"time": 1372, "annotation": {"number": 64, "value": 127}, "group": "control_change"}, {"time": 1394, "annotation": {"number": 64, "value": 0}, "group": "control_change"}, {"time": 1396, "annotation": {"number": 64, "value": 127}, "group": "control_change"}, {"time": 1419, "annotation": {"number": 64, "value": 0}, "group": "control_change"}, {"time": 1423, "annotation": {"number": 64, "value": 127}, "group": "control_change"}, {"time": 1442, "annotation": {"number": 64, "value": 0}, "group": "control_change"}, {"time": 1444, "annotation": {"number": 64, "value": 127}, "group": "control_change"}, {"time": 1466, "annotation": {"number": 64, "value": 0}, "group": "control_change"}, {"time": 1468, "annotation": {"number": 64, "value": 127}, "group": "control_change"}, {"time": 1490, "annotation": {"number": 64, "value": 0}, "group": "control_change"}, {"time": 1494, "annotation": {"number": 64, "value": 127}, "group": "control_change"}, {"time": 1514, "annotation": {"number": 64, "value": 0}, "group": "control_change"}, {"time": 1515, "annotation": {"number": 64, "value": 127}, "group": "control_change"}, {"time": 1538, "annotation": {"number": 64, "value": 0}, "group": "control_change"}, {"time": 1539, "annotation": {"number": 64, "value": 127}, "group": "control_change"}, {"time": 1562, "annotation": {"number": 64, "value": 0}, "group": "control_change"}, {"time": 1564, "annotation": {"number": 64, "value": 127}, "group": "control_change"}, {"time": 1586, "annotation": {"number": 64, "value": 0}, "group": "control_change"}, {"time": 1587, "annotation": {"number": 64, "value": 127}, "group": "control_change"}, {"time": 1588, "annotation": {"number": 64, "value": 127}, "group": "control_change"}, {"time": 1612, "annotation": {"number": 64, "value": 0}, "group": "control_change"}, {"time": 1613, "annotation": {"number": 64, "value": 127}, "group": "control_change"}, {"time": 1660, "annotation": {"number": 64, "value": 0}, "group": "control_change"}, {"time": 1876, "annotation": {"number": 64, "value": 127}, "group": "control_change"}, {"time": 1896, "annotation": {"number": 64, "value": 0}, "group": "control_change"}, {"time": 1922, "annotation": {"number": 64, "value": 0}, "group": "control_change"}, {"time": 1924, "annotation": {"number": 64, "value": 127}, "group": "control_change"}, {"time": 1946, "annotation": {"number": 64, "value": 0}, "group": "control_change"}, {"time": 1949, "annotation": {"number": 64, "value": 127}, "group": "control_change"}, {"time": 1997, "annotation": {"number": 64, "value": 0}, "group": "control_change"}, {"time": 2000, "annotation": {"number": 64, "value": 127}, "group": "control_change"}, {"time": 2018, "annotation": {"number": 64, "value": 0}, "group": "control_change"}, {"time": 2021, "annotation": {"number": 64, "value": 127}, "group": "control_change"}, {"time": 2043, "annotation": {"number": 64, "value": 0}, "group": "control_change"}, {"time": 2044, "annotation": {"number": 64, "value": 127}, "group": "control_change"}, {"time": 2092, "annotation": {"number": 64, "value": 0}, "group": "control_change"}, {"time": 2096, "annotation": {"number": 64, "value": 127}, "group": "control_change"}, {"time": 2116, "annotation": {"number": 64, "value": 0}, "group": "control_change"}, {"time": 2118, "annotation": {"number": 64, "value": 127}, "group": "control_change"}, {"time": 2136, "annotation": {"number": 64, "value": 0}, "group": "control_change"}, {"time": 2138, "annotation": {"number": 64, "value": 127}, "group": "control_change"}, {"time": 2160, "annotation": {"number": 64, "value": 0}, "group": "control_change"}, {"time": 2162, "annotation": {"number": 64, "value": 127}, "group": "control_change"}, {"time": 2187, "annotation": {"number": 64, "value": 0}, "group": "control_change"}, {"time": 2189, "annotation": {"number": 64, "value": 127}, "group": "control_change"}, {"time": 2235, "annotation": {"number": 64, "value": 0}, "group": "control_change"}, {"time": 2236, "annotation": {"number": 64, "value": 127}, "group": "control_change"}, {"time": 2259, "annotation": {"number": 64, "value": 0}, "group": "control_change"}, {"time": 2261, "annotation": {"number": 64, "value": 127}, "group": "control_change"}, {"time": 2278, "annotation": {"number": 64, "value": 127}, "group": "control_change"}, {"time": 2282, "annotation": {"number": 64, "value": 0}, "group": "control_change"}, {"time": 2283, "annotation": {"number": 64, "value": 127}, "group": "control_change"}, {"time": 2329, "annotation": {"number": 64, "value": 0}, "group": "control_change"}, {"time": 2332, "annotation": {"number": 64, "value": 127}, "group": "control_change"}, {"time": 2355, "annotation": {"number": 64, "value": 0}, "group": "control_change"}, {"time": 2356, "annotation": {"number": 64, "value": 127}, "group": "control_change"}, {"time": 2377, "annotation": {"number": 64, "value": 0}, "group": "control_change"}, {"time": 2379, "annotation": {"number": 64, "value": 127}, "group": "control_change"}, {"time": 2402, "annotation": {"number": 64, "value": 0}, "group": "control_change"}, {"time": 2403, "annotation": {"number": 64, "value": 127}, "group": "control_change"}, {"time": 2426, "annotation": {"number": 64, "value": 0}, "group": "control_change"}, {"time": 2428, "annotation": {"number": 64, "value": 127}, "group": "control_change"}, {"time": 2451, "annotation": {"number": 64, "value": 0}, "group": "control_change"}, {"time": 2453, "annotation": {"number": 64, "value": 127}, "group": "control_change"}, {"time": 2474, "annotation": {"number": 64, "value": 0}, "group": "control_change"}, {"time": 2476, "annotation": {"number": 64, "value": 127}, "group": "control_change"}, {"time": 2498, "annotation": {"number": 64, "value": 0}, "group": "control_change"}, {"time": 2500, "annotation": {"number": 64, "value": 127}, "group": "control_change"}, {"time": 2523, "annotation": {"number": 64, "value": 0}, "group": "control_change"}, {"time": 2527, "annotation": {"number": 64, "value": 127}, "group": "control_change"}, {"time": 2546, "annotation": {"number": 64, "value": 0}, "group": "control_change"}, {"time": 2548, "annotation": {"number": 64, "value": 127}, "group": "control_change"}, {"time": 2570, "annotation": {"number": 64, "value": 0}, "group": "control_change"}, {"time": 2571, "annotation": {"number": 64, "value": 127}, "group": "control_change"}, {"time": 2594, "annotation": {"number": 64, "value": 0}, "group": "control_change"}, {"time": 2596, "annotation": {"number": 64, "value": 127}, "group": "control_change"}, {"time": 2618, "annotation": {"number": 64, "value": 0}, "group": "control_change"}, {"time": 2620, "annotation": {"number": 64, "value": 127}, "group": "control_change"}, {"time": 2643, "annotation": {"number": 64, "value": 0}, "group": "control_change"}, {"time": 2647, "annotation": {"number": 64, "value": 127}, "group": "control_change"}, {"time": 2666, "annotation": {"number": 64, "value": 0}, "group": "control_change"}, {"time": 2668, "annotation": {"number": 64, "value": 127}, "group": "control_change"}, {"time": 2690, "annotation": {"number": 64, "value": 0}, "group": "control_change"}, {"time": 2692, "annotation": {"number": 64, "value": 127}, "group": "control_change"}, {"time": 2714, "annotation": {"number": 64, "value": 0}, "group": "control_change"}, {"time": 2718, "annotation": {"number": 64, "value": 127}, "group": "control_change"}, {"time": 2738, "annotation": {"number": 64, "value": 0}, "group": "control_change"}, {"time": 2739, "annotation": {"number": 64, "value": 127}, "group": "control_change"}, {"time": 2762, "annotation": {"number": 64, "value": 0}, "group": "control_change"}, {"time": 2763, "annotation": {"number": 64, "value": 127}, "group": "control_change"}, {"time": 2786, "annotation": {"number": 64, "value": 0}, "group": "control_change"}, {"time": 2788, "annotation": {"number": 64, "value": 127}, "group": "control_change"}, {"time": 2810, "annotation": {"number": 64, "value": 0}, "group": "control_change"}, {"time": 2811, "annotation": {"number": 64, "value": 127}, "group": "control_change"}, {"time": 2812, "annotation": {"number": 64, "value": 127}, "group": "control_change"}, {"time": 2836, "annotation": {"number": 64, "value": 0}, "group": "control_change"}, {"time": 2837, "annotation": {"number": 64, "value": 127}, "group": "control_change"}, {"time": 2861, "annotation": {"number": 64, "value": 127}, "group": "control_change"}, {"time": 2883, "annotation": {"number": 64, "value": 0}, "group": "control_change"}, {"time": 2885, "annotation": {"number": 64, "value": 127}, "group": "control_change"}, {"time": 2907, "annotation": {"number": 64, "value": 0}, "group": "control_change"}, {"time": 2908, "annotation": {"number": 64, "value": 127}, "group": "control_change"}, {"time": 2931, "annotation": {"number": 64, "value": 0}, "group": "control_change"}, {"time": 2933, "annotation": {"number": 64, "value": 127}, "group": "control_change"}, {"time": 2955, "annotation": {"number": 64, "value": 0}, "group": "control_change"}, {"time": 2957, "annotation": {"number": 64, "value": 127}, "group": "control_change"}, {"time": 2978, "annotation": {"number": 64, "value": 0}, "group": "control_change"}, {"time": 2982, "annotation": {"number": 64, "value": 127}, "group": "control_change"}, {"time": 3001, "annotation": {"number": 64, "value": 0}, "group": "control_change"}, {"time": 3005, "annotation": {"number": 64, "value": 127}, "group": "control_change"}, {"time": 3027, "annotation": {"number": 64, "value": 0}, "group": "control_change"}, {"time": 3031, "annotation": {"number": 64, "value": 127}, "group": "control_change"}, {"time": 3050, "annotation": {"number": 64, "value": 0}, "group": "control_change"}, {"time": 3051, "annotation": {"number": 64, "value": 127}, "group": "control_change"}, {"time": 3074, "annotation": {"number": 64, "value": 127}, "group": "control_change"}, {"time": 3075, "annotation": {"number": 64, "value": 0}, "group": "control_change"}, {"time": 3098, "annotation": {"number": 64, "value": 0}, "group": "control_change"}, {"time": 3100, "annotation": {"number": 64, "value": 127}, "group": "control_change"}, {"time": 3124, "annotation": {"number": 64, "value": 0}, "group": "control_change"}, {"time": 3127, "annotation": {"number": 64, "value": 127}, "group": "control_change"}, {"time": 3146, "annotation": {"number": 64, "value": 0}, "group": "control_change"}, {"time": 3150, "annotation": {"number": 64, "value": 127}, "group": "control_change"}, {"time": 3170, "annotation": {"number": 64, "value": 0}, "group": "control_change"}, {"time": 3173, "annotation": {"number": 64, "value": 127}, "group": "control_change"}, {"time": 3195, "annotation": {"number": 64, "value": 0}, "group": "control_change"}, {"time": 3198, "annotation": {"number": 64, "value": 127}, "group": "control_change"}, {"time": 3218, "annotation": {"number": 64, "value": 0}, "group": "control_change"}, {"time": 3220, "annotation": {"number": 64, "value": 127}, "group": "control_change"}, {"time": 3241, "annotation": {"number": 64, "value": 0}, "group": "control_change"}, {"time": 3244, "annotation": {"number": 64, "value": 127}, "group": "control_change"}, {"time": 3266, "annotation": {"number": 64, "value": 0}, "group": "control_change"}, {"time": 3268, "annotation": {"number": 64, "value": 127}, "group": "control_change"}, {"time": 3291, "annotation": {"number": 64, "value": 0}, "group": "control_change"}, {"time": 3295, "annotation": {"number": 64, "value": 127}, "group": "control_change"}, {"time": 3314, "annotation": {"number": 64, "value": 0}, "group": "control_change"}, {"time": 3316, "annotation": {"number": 64, "value": 127}, "group": "control_change"}, {"time": 3338, "annotation": {"number": 64, "value": 0}, "group": "control_change"}, {"time": 3339, "annotation": {"number": 64, "value": 127}, "group": "control_change"}, {"time": 3362, "annotation": {"number": 64, "value": 0}, "group": "control_change"}, {"time": 3364, "annotation": {"number": 64, "value": 127}, "group": "control_change"}, {"time": 3386, "annotation": {"number": 64, "value": 0}, "group": "control_change"}, {"time": 3388, "annotation": {"number": 64, "value": 127}, "group": "control_change"}, {"time": 3411, "annotation": {"number": 64, "value": 0}, "group": "control_change"}, {"time": 3415, "annotation": {"number": 64, "value": 127}, "group": "control_change"}, {"time": 3434, "annotation": {"number": 64, "value": 0}, "group": "control_change"}, {"time": 3436, "annotation": {"number": 64, "value": 127}, "group": "control_change"}, {"time": 3458, "annotation": {"number": 64, "value": 0}, "group": "control_change"}, {"time": 3460, "annotation": {"number": 64, "value": 127}, "group": "control_change"}, {"time": 3482, "annotation": {"number": 64, "value": 0}, "group": "control_change"}, {"time": 3486, "annotation": {"number": 64, "value": 127}, "group": "control_change"}, {"time": 3506, "annotation": {"number": 64, "value": 0}, "group": "control_change"}, {"time": 3507, "annotation": {"number": 64, "value": 127}, "group": "control_change"}, {"time": 3530, "annotation": {"number": 64, "value": 0}, "group": "control_change"}, {"time": 3531, "annotation": {"number": 64, "value": 127}, "group": "control_change"}, {"time": 3554, "annotation": {"number": 64, "value": 0}, "group": "control_change"}, {"time": 3556, "annotation": {"number": 64, "value": 127}, "group": "control_change"}, {"time": 3578, "annotation": {"number": 64, "value": 0}, "group": "control_change"}, {"time": 3579, "annotation": {"number": 64, "value": 127}, "group": "control_change"}, {"time": 3596, "annotation": {"number": 64, "value": 0}, "group": "control_change"}, {"time": 3627, "annotation": {"number": 64, "value": 127}, "group": "control_change"}, {"time": 3649, "annotation": {"number": 64, "value": 0}, "group": "control_change"}, {"time": 3650, "annotation": {"number": 64, "value": 127}, "group": "control_change"}, {"time": 3674, "annotation": {"number": 64, "value": 0}, "group": "control_change"}, {"time": 3677, "annotation": {"number": 64, "value": 127}, "group": "control_change"}, {"time": 3697, "annotation": {"number": 64, "value": 0}, "group": "control_change"}, {"time": 3699, "annotation": {"number": 64, "value": 127}, "group": "control_change"}, {"time": 3722, "annotation": {"number": 64, "value": 0}, "group": "control_change"}, {"time": 3724, "annotation": {"number": 64, "value": 127}, "group": "control_change"}, {"time": 3746, "annotation": {"number": 64, "value": 0}, "group": "control_change"}, {"time": 3748, "annotation": {"number": 64, "value": 127}, "group": "control_change"}, {"time": 3754, "annotation": {"number": 64, "value": 127}, "group": "control_change"}, {"time": 3770, "annotation": {"number": 64, "value": 0}, "group": "control_change"}, {"time": 3826, "annotation": {"number": 64, "value": 127}, "group": "control_change"}, {"time": 3843, "annotation": {"number": 64, "value": 0}, "group": "control_change"}]}]}