{"metadata": {"schema_version": "0.2", "title": "None", "source_filename": "424.mid", "source_format": "midi"}, "resolution": 12, "tempos": [{"time": 0, "qpm": 76.00025840087856}], "time_signatures": [{"time": 0, "numerator": 1, "denominator": 4}], "tracks": [{"program": 4, "is_drum": false, "name": "MELODY", "notes": [{"time": 267, "pitch": 67, "duration": 6, "velocity": 90}, {"time": 273, "pitch": 74, "duration": 28, "velocity": 105}, {"time": 309, "pitch": 74, "duration": 5, "velocity": 99}, {"time": 315, "pitch": 72, "duration": 5, "velocity": 90}, {"time": 321, "pitch": 70, "duration": 5, "velocity": 97}, {"time": 327, "pitch": 74, "duration": 5, "velocity": 104}, {"time": 333, "pitch": 72, "duration": 4, "velocity": 92}, {"time": 339, "pitch": 72, "duration": 5, "velocity": 94}, {"time": 345, "pitch": 70, "duration": 2, "velocity": 92}, {"time": 348, "pitch": 72, "duration": 17, "velocity": 89}, {"time": 369, "pitch": 67, "duration": 5, "velocity": 94}, {"time": 375, "pitch": 72, "duration": 27, "velocity": 95}, {"time": 405, "pitch": 75, "duration": 5, "velocity": 93}, {"time": 411, "pitch": 74, "duration": 5, "velocity": 105}, {"time": 417, "pitch": 72, "duration": 5, "velocity": 89}, {"time": 423, "pitch": 72, "duration": 5, "velocity": 92}, {"time": 429, "pitch": 70, "duration": 4, "velocity": 93}, {"time": 435, "pitch": 70, "duration": 5, "velocity": 95}, {"time": 441, "pitch": 72, "duration": 2, "velocity": 90}, {"time": 444, "pitch": 74, "duration": 12, "velocity": 91}, {"time": 459, "pitch": 67, "duration": 6, "velocity": 90}, {"time": 465, "pitch": 74, "duration": 20, "velocity": 104}, {"time": 501, "pitch": 79, "duration": 4, "velocity": 94}, {"time": 507, "pitch": 74, "duration": 4, "velocity": 105}, {"time": 513, "pitch": 72, "duration": 2, "velocity": 90}, {"time": 516, "pitch": 70, "duration": 1, "velocity": 95}, {"time": 519, "pitch": 74, "duration": 4, "velocity": 105}, {"time": 525, "pitch": 72, "duration": 3, "velocity": 90}, {"time": 531, "pitch": 72, "duration": 5, "velocity": 92}, {"time": 537, "pitch": 70, "duration": 4, "velocity": 94}, {"time": 543, "pitch": 72, "duration": 12, "velocity": 95}, {"time": 561, "pitch": 67, "duration": 4, "velocity": 92}, {"time": 567, "pitch": 72, "duration": 27, "velocity": 90}, {"time": 597, "pitch": 75, "duration": 5, "velocity": 94}, {"time": 603, "pitch": 74, "duration": 5, "velocity": 95}, {"time": 612, "pitch": 69, "duration": 3, "velocity": 92}, {"time": 615, "pitch": 69, "duration": 6, "velocity": 90}, {"time": 621, "pitch": 70, "duration": 3, "velocity": 89}, {"time": 624, "pitch": 67, "duration": 22, "velocity": 90}, {"time": 651, "pitch": 74, "duration": 5, "velocity": 105}, {"time": 657, "pitch": 82, "duration": 5, "velocity": 94}, {"time": 663, "pitch": 81, "duration": 5, "velocity": 91}, {"time": 669, "pitch": 79, "duration": 5, "velocity": 99}, {"time": 675, "pitch": 81, "duration": 4, "velocity": 92}, {"time": 681, "pitch": 79, "duration": 5, "velocity": 99}, {"time": 687, "pitch": 81, "duration": 5, "velocity": 93}, {"time": 693, "pitch": 82, "duration": 5, "velocity": 95}, {"time": 699, "pitch": 82, "duration": 5, "velocity": 89}, {"time": 705, "pitch": 74, "duration": 4, "velocity": 95}, {"time": 711, "pitch": 75, "duration": 5, "velocity": 90}, {"time": 717, "pitch": 77, "duration": 2, "velocity": 89}, {"time": 720, "pitch": 75, "duration": 24, "velocity": 99}, {"time": 756, "pitch": 81, "duration": 3, "velocity": 90}, {"time": 759, "pitch": 79, "duration": 5, "velocity": 92}, {"time": 765, "pitch": 77, "duration": 5, "velocity": 92}, {"time": 771, "pitch": 79, "duration": 5, "velocity": 95}, {"time": 777, "pitch": 77, "duration": 4, "velocity": 89}, {"time": 783, "pitch": 79, "duration": 5, "velocity": 91}, {"time": 789, "pitch": 77, "duration": 5, "velocity": 91}, {"time": 795, "pitch": 79, "duration": 9, "velocity": 90}, {"time": 807, "pitch": 75, "duration": 7, "velocity": 94}, {"time": 816, "pitch": 74, "duration": 28, "velocity": 99}, {"time": 852, "pitch": 74, "duration": 2, "velocity": 95}, {"time": 855, "pitch": 74, "duration": 5, "velocity": 104}, {"time": 861, "pitch": 72, "duration": 5, "velocity": 90}, {"time": 867, "pitch": 72, "duration": 5, "velocity": 92}, {"time": 873, "pitch": 71, "duration": 2, "velocity": 92}, {"time": 876, "pitch": 74, "duration": 8, "velocity": 102}, {"time": 885, "pitch": 72, "duration": 13, "velocity": 89}, {"time": 900, "pitch": 79, "duration": 2, "velocity": 90}, {"time": 903, "pitch": 81, "duration": 5, "velocity": 95}, {"time": 909, "pitch": 81, "duration": 4, "velocity": 88}, {"time": 915, "pitch": 81, "duration": 5, "velocity": 90}, {"time": 921, "pitch": 79, "duration": 5, "velocity": 92}, {"time": 927, "pitch": 79, "duration": 14, "velocity": 93}, {"time": 945, "pitch": 79, "duration": 2, "velocity": 92}, {"time": 948, "pitch": 78, "duration": 2, "velocity": 93}, {"time": 951, "pitch": 79, "duration": 5, "velocity": 88}, {"time": 957, "pitch": 78, "duration": 5, "velocity": 90}, {"time": 963, "pitch": 79, "duration": 4, "velocity": 90}, {"time": 969, "pitch": 78, "duration": 5, "velocity": 94}, {"time": 975, "pitch": 79, "duration": 4, "velocity": 90}, {"time": 981, "pitch": 78, "duration": 5, "velocity": 94}, {"time": 987, "pitch": 79, "duration": 5, "velocity": 95}, {"time": 993, "pitch": 81, "duration": 31, "velocity": 90}, {"time": 1035, "pitch": 74, "duration": 5, "velocity": 105}, {"time": 1041, "pitch": 82, "duration": 5, "velocity": 94}, {"time": 1047, "pitch": 81, "duration": 5, "velocity": 91}, {"time": 1053, "pitch": 79, "duration": 5, "velocity": 99}, {"time": 1059, "pitch": 81, "duration": 4, "velocity": 92}, {"time": 1065, "pitch": 79, "duration": 5, "velocity": 99}, {"time": 1071, "pitch": 81, "duration": 5, "velocity": 93}, {"time": 1077, "pitch": 82, "duration": 5, "velocity": 95}, {"time": 1083, "pitch": 82, "duration": 5, "velocity": 89}, {"time": 1089, "pitch": 74, "duration": 4, "velocity": 95}, {"time": 1095, "pitch": 75, "duration": 5, "velocity": 90}, {"time": 1101, "pitch": 77, "duration": 2, "velocity": 89}, {"time": 1104, "pitch": 75, "duration": 24, "velocity": 99}, {"time": 1140, "pitch": 81, "duration": 3, "velocity": 90}, {"time": 1143, "pitch": 79, "duration": 5, "velocity": 92}, {"time": 1149, "pitch": 77, "duration": 5, "velocity": 92}, {"time": 1155, "pitch": 79, "duration": 5, "velocity": 95}, {"time": 1161, "pitch": 77, "duration": 4, "velocity": 89}, {"time": 1167, "pitch": 79, "duration": 5, "velocity": 91}, {"time": 1173, "pitch": 81, "duration": 5, "velocity": 91}, {"time": 1179, "pitch": 84, "duration": 9, "velocity": 90}, {"time": 1185, "pitch": 72, "duration": 5, "velocity": 91}, {"time": 1191, "pitch": 75, "duration": 5, "velocity": 92}, {"time": 1197, "pitch": 77, "duration": 6, "velocity": 90}, {"time": 1203, "pitch": 74, "duration": 20, "velocity": 90}, {"time": 1236, "pitch": 74, "duration": 2, "velocity": 95}, {"time": 1239, "pitch": 74, "duration": 5, "velocity": 104}, {"time": 1245, "pitch": 72, "duration": 5, "velocity": 90}, {"time": 1251, "pitch": 72, "duration": 5, "velocity": 92}, {"time": 1257, "pitch": 71, "duration": 2, "velocity": 92}, {"time": 1260, "pitch": 74, "duration": 8, "velocity": 102}, {"time": 1269, "pitch": 72, "duration": 13, "velocity": 89}, {"time": 1284, "pitch": 79, "duration": 2, "velocity": 90}, {"time": 1287, "pitch": 81, "duration": 5, "velocity": 95}, {"time": 1293, "pitch": 81, "duration": 4, "velocity": 88}, {"time": 1299, "pitch": 81, "duration": 5, "velocity": 90}, {"time": 1305, "pitch": 79, "duration": 5, "velocity": 92}, {"time": 1311, "pitch": 79, "duration": 14, "velocity": 93}, {"time": 1332, "pitch": 72, "duration": 3, "velocity": 87}, {"time": 1335, "pitch": 74, "duration": 5, "velocity": 92}, {"time": 1341, "pitch": 72, "duration": 5, "velocity": 89}, {"time": 1347, "pitch": 72, "duration": 5, "velocity": 92}, {"time": 1353, "pitch": 70, "duration": 5, "velocity": 95}, {"time": 1359, "pitch": 70, "duration": 5, "velocity": 93}, {"time": 1365, "pitch": 69, "duration": 3, "velocity": 90}, {"time": 1368, "pitch": 69, "duration": 9, "velocity": 90}, {"time": 1377, "pitch": 74, "duration": 11, "velocity": 99}, {"time": 1389, "pitch": 67, "duration": 30, "velocity": 92}, {"time": 1563, "pitch": 67, "duration": 6, "velocity": 90}, {"time": 1569, "pitch": 74, "duration": 28, "velocity": 105}, {"time": 1605, "pitch": 74, "duration": 5, "velocity": 99}, {"time": 1611, "pitch": 72, "duration": 5, "velocity": 90}, {"time": 1617, "pitch": 70, "duration": 5, "velocity": 97}, {"time": 1623, "pitch": 74, "duration": 5, "velocity": 104}, {"time": 1629, "pitch": 72, "duration": 4, "velocity": 92}, {"time": 1635, "pitch": 72, "duration": 5, "velocity": 94}, {"time": 1641, "pitch": 70, "duration": 2, "velocity": 92}, {"time": 1644, "pitch": 72, "duration": 17, "velocity": 89}, {"time": 1665, "pitch": 67, "duration": 5, "velocity": 94}, {"time": 1671, "pitch": 72, "duration": 27, "velocity": 95}, {"time": 1701, "pitch": 75, "duration": 5, "velocity": 93}, {"time": 1707, "pitch": 74, "duration": 5, "velocity": 105}, {"time": 1713, "pitch": 72, "duration": 5, "velocity": 89}, {"time": 1719, "pitch": 72, "duration": 5, "velocity": 92}, {"time": 1725, "pitch": 70, "duration": 4, "velocity": 93}, {"time": 1731, "pitch": 70, "duration": 5, "velocity": 95}, {"time": 1737, "pitch": 72, "duration": 2, "velocity": 90}, {"time": 1740, "pitch": 74, "duration": 12, "velocity": 91}, {"time": 1755, "pitch": 67, "duration": 6, "velocity": 90}, {"time": 1761, "pitch": 74, "duration": 20, "velocity": 104}, {"time": 1797, "pitch": 79, "duration": 4, "velocity": 94}, {"time": 1803, "pitch": 74, "duration": 4, "velocity": 105}, {"time": 1809, "pitch": 72, "duration": 2, "velocity": 90}, {"time": 1812, "pitch": 70, "duration": 1, "velocity": 95}, {"time": 1815, "pitch": 74, "duration": 4, "velocity": 105}, {"time": 1821, "pitch": 72, "duration": 3, "velocity": 90}, {"time": 1827, "pitch": 72, "duration": 5, "velocity": 92}, {"time": 1833, "pitch": 70, "duration": 4, "velocity": 94}, {"time": 1839, "pitch": 72, "duration": 12, "velocity": 95}, {"time": 1857, "pitch": 67, "duration": 4, "velocity": 92}, {"time": 1893, "pitch": 75, "duration": 5, "velocity": 94}, {"time": 1899, "pitch": 74, "duration": 5, "velocity": 95}, {"time": 1908, "pitch": 69, "duration": 3, "velocity": 92}, {"time": 1911, "pitch": 69, "duration": 6, "velocity": 90}, {"time": 1917, "pitch": 70, "duration": 3, "velocity": 89}, {"time": 1920, "pitch": 67, "duration": 12, "velocity": 90}, {"time": 1947, "pitch": 74, "duration": 5, "velocity": 105}, {"time": 1953, "pitch": 82, "duration": 5, "velocity": 94}, {"time": 1959, "pitch": 81, "duration": 5, "velocity": 91}, {"time": 1965, "pitch": 79, "duration": 5, "velocity": 99}, {"time": 1971, "pitch": 81, "duration": 4, "velocity": 92}, {"time": 1977, "pitch": 79, "duration": 5, "velocity": 99}, {"time": 1983, "pitch": 81, "duration": 5, "velocity": 93}, {"time": 1989, "pitch": 82, "duration": 5, "velocity": 95}, {"time": 1995, "pitch": 82, "duration": 5, "velocity": 89}, {"time": 2001, "pitch": 74, "duration": 4, "velocity": 95}, {"time": 2007, "pitch": 75, "duration": 5, "velocity": 90}, {"time": 2013, "pitch": 77, "duration": 2, "velocity": 89}, {"time": 2016, "pitch": 75, "duration": 24, "velocity": 99}, {"time": 2052, "pitch": 81, "duration": 3, "velocity": 90}, {"time": 2055, "pitch": 79, "duration": 5, "velocity": 92}, {"time": 2061, "pitch": 77, "duration": 5, "velocity": 92}, {"time": 2067, "pitch": 79, "duration": 5, "velocity": 95}, {"time": 2073, "pitch": 77, "duration": 4, "velocity": 89}, {"time": 2079, "pitch": 79, "duration": 5, "velocity": 91}, {"time": 2085, "pitch": 77, "duration": 5, "velocity": 91}, {"time": 2091, "pitch": 79, "duration": 9, "velocity": 90}, {"time": 2103, "pitch": 75, "duration": 7, "velocity": 94}, {"time": 2112, "pitch": 74, "duration": 28, "velocity": 99}, {"time": 2148, "pitch": 74, "duration": 2, "velocity": 95}, {"time": 2151, "pitch": 74, "duration": 5, "velocity": 104}, {"time": 2157, "pitch": 72, "duration": 5, "velocity": 90}, {"time": 2163, "pitch": 72, "duration": 5, "velocity": 92}, {"time": 2169, "pitch": 71, "duration": 2, "velocity": 92}, {"time": 2172, "pitch": 74, "duration": 8, "velocity": 102}, {"time": 2181, "pitch": 72, "duration": 13, "velocity": 89}, {"time": 2196, "pitch": 79, "duration": 2, "velocity": 90}, {"time": 2199, "pitch": 81, "duration": 5, "velocity": 95}, {"time": 2205, "pitch": 81, "duration": 4, "velocity": 88}, {"time": 2211, "pitch": 81, "duration": 5, "velocity": 90}, {"time": 2217, "pitch": 79, "duration": 5, "velocity": 92}, {"time": 2223, "pitch": 79, "duration": 14, "velocity": 93}, {"time": 2241, "pitch": 79, "duration": 2, "velocity": 92}, {"time": 2244, "pitch": 78, "duration": 2, "velocity": 93}, {"time": 2247, "pitch": 79, "duration": 5, "velocity": 88}, {"time": 2253, "pitch": 78, "duration": 5, "velocity": 90}, {"time": 2259, "pitch": 79, "duration": 4, "velocity": 90}, {"time": 2265, "pitch": 78, "duration": 5, "velocity": 94}, {"time": 2271, "pitch": 79, "duration": 4, "velocity": 90}, {"time": 2277, "pitch": 78, "duration": 5, "velocity": 94}, {"time": 2283, "pitch": 79, "duration": 5, "velocity": 95}, {"time": 2289, "pitch": 81, "duration": 31, "velocity": 90}, {"time": 2331, "pitch": 74, "duration": 5, "velocity": 105}, {"time": 2337, "pitch": 82, "duration": 5, "velocity": 94}, {"time": 2343, "pitch": 81, "duration": 5, "velocity": 91}, {"time": 2349, "pitch": 79, "duration": 5, "velocity": 99}, {"time": 2355, "pitch": 81, "duration": 4, "velocity": 92}, {"time": 2361, "pitch": 79, "duration": 5, "velocity": 99}, {"time": 2373, "pitch": 82, "duration": 5, "velocity": 95}, {"time": 2379, "pitch": 82, "duration": 5, "velocity": 89}, {"time": 2385, "pitch": 74, "duration": 4, "velocity": 95}, {"time": 2391, "pitch": 75, "duration": 5, "velocity": 90}, {"time": 2397, "pitch": 77, "duration": 2, "velocity": 89}, {"time": 2400, "pitch": 75, "duration": 24, "velocity": 99}, {"time": 2436, "pitch": 81, "duration": 3, "velocity": 90}, {"time": 2439, "pitch": 79, "duration": 5, "velocity": 92}, {"time": 2445, "pitch": 77, "duration": 5, "velocity": 92}, {"time": 2451, "pitch": 79, "duration": 5, "velocity": 95}, {"time": 2457, "pitch": 77, "duration": 4, "velocity": 89}, {"time": 2463, "pitch": 79, "duration": 5, "velocity": 91}, {"time": 2469, "pitch": 81, "duration": 5, "velocity": 91}, {"time": 2475, "pitch": 84, "duration": 9, "velocity": 90}, {"time": 2481, "pitch": 72, "duration": 5, "velocity": 91}, {"time": 2487, "pitch": 75, "duration": 5, "velocity": 92}, {"time": 2493, "pitch": 77, "duration": 6, "velocity": 90}, {"time": 2499, "pitch": 74, "duration": 20, "velocity": 90}, {"time": 2532, "pitch": 74, "duration": 2, "velocity": 95}, {"time": 2535, "pitch": 74, "duration": 5, "velocity": 104}, {"time": 2541, "pitch": 72, "duration": 5, "velocity": 90}, {"time": 2547, "pitch": 72, "duration": 5, "velocity": 92}, {"time": 2553, "pitch": 71, "duration": 2, "velocity": 92}, {"time": 2556, "pitch": 74, "duration": 8, "velocity": 102}, {"time": 2565, "pitch": 72, "duration": 13, "velocity": 89}, {"time": 2580, "pitch": 79, "duration": 2, "velocity": 90}, {"time": 2583, "pitch": 81, "duration": 5, "velocity": 95}, {"time": 2589, "pitch": 81, "duration": 4, "velocity": 88}, {"time": 2595, "pitch": 81, "duration": 5, "velocity": 90}, {"time": 2601, "pitch": 79, "duration": 5, "velocity": 92}, {"time": 2607, "pitch": 79, "duration": 14, "velocity": 93}, {"time": 2628, "pitch": 72, "duration": 3, "velocity": 87}, {"time": 2631, "pitch": 74, "duration": 5, "velocity": 92}, {"time": 2637, "pitch": 72, "duration": 5, "velocity": 89}, {"time": 2643, "pitch": 72, "duration": 5, "velocity": 92}, {"time": 2649, "pitch": 70, "duration": 5, "velocity": 95}, {"time": 2655, "pitch": 70, "duration": 5, "velocity": 93}, {"time": 2661, "pitch": 69, "duration": 3, "velocity": 90}, {"time": 2664, "pitch": 69, "duration": 9, "velocity": 90}, {"time": 2673, "pitch": 74, "duration": 11, "velocity": 99}, {"time": 2685, "pitch": 67, "duration": 30, "velocity": 92}, {"time": 3063, "pitch": 74, "duration": 5, "velocity": 105}, {"time": 3069, "pitch": 82, "duration": 5, "velocity": 94}, {"time": 3075, "pitch": 81, "duration": 5, "velocity": 91}, {"time": 3081, "pitch": 79, "duration": 5, "velocity": 99}, {"time": 3087, "pitch": 81, "duration": 4, "velocity": 92}, {"time": 3093, "pitch": 79, "duration": 5, "velocity": 99}, {"time": 3099, "pitch": 81, "duration": 5, "velocity": 93}, {"time": 3105, "pitch": 82, "duration": 5, "velocity": 95}, {"time": 3111, "pitch": 82, "duration": 5, "velocity": 89}, {"time": 3117, "pitch": 74, "duration": 4, "velocity": 95}, {"time": 3123, "pitch": 75, "duration": 5, "velocity": 90}, {"time": 3129, "pitch": 77, "duration": 2, "velocity": 89}, {"time": 3132, "pitch": 75, "duration": 24, "velocity": 99}, {"time": 3168, "pitch": 81, "duration": 3, "velocity": 90}, {"time": 3171, "pitch": 79, "duration": 5, "velocity": 92}, {"time": 3177, "pitch": 77, "duration": 5, "velocity": 92}, {"time": 3183, "pitch": 79, "duration": 5, "velocity": 95}, {"time": 3189, "pitch": 77, "duration": 4, "velocity": 89}, {"time": 3195, "pitch": 79, "duration": 5, "velocity": 91}, {"time": 3201, "pitch": 77, "duration": 5, "velocity": 91}, {"time": 3207, "pitch": 79, "duration": 9, "velocity": 90}, {"time": 3219, "pitch": 75, "duration": 7, "velocity": 94}, {"time": 3228, "pitch": 74, "duration": 28, "velocity": 99}, {"time": 3264, "pitch": 74, "duration": 2, "velocity": 95}, {"time": 3267, "pitch": 74, "duration": 5, "velocity": 104}, {"time": 3273, "pitch": 72, "duration": 5, "velocity": 90}, {"time": 3279, "pitch": 72, "duration": 5, "velocity": 92}, {"time": 3285, "pitch": 71, "duration": 2, "velocity": 92}, {"time": 3288, "pitch": 74, "duration": 8, "velocity": 102}, {"time": 3297, "pitch": 72, "duration": 13, "velocity": 89}, {"time": 3312, "pitch": 79, "duration": 2, "velocity": 90}, {"time": 3315, "pitch": 81, "duration": 5, "velocity": 95}, {"time": 3321, "pitch": 81, "duration": 4, "velocity": 88}, {"time": 3327, "pitch": 81, "duration": 5, "velocity": 90}, {"time": 3333, "pitch": 79, "duration": 5, "velocity": 92}, {"time": 3339, "pitch": 79, "duration": 14, "velocity": 93}, {"time": 3357, "pitch": 79, "duration": 2, "velocity": 92}, {"time": 3360, "pitch": 78, "duration": 2, "velocity": 93}, {"time": 3363, "pitch": 79, "duration": 5, "velocity": 88}, {"time": 3369, "pitch": 78, "duration": 5, "velocity": 90}, {"time": 3375, "pitch": 79, "duration": 4, "velocity": 90}, {"time": 3381, "pitch": 78, "duration": 5, "velocity": 94}, {"time": 3387, "pitch": 79, "duration": 4, "velocity": 90}, {"time": 3393, "pitch": 78, "duration": 5, "velocity": 94}, {"time": 3399, "pitch": 79, "duration": 5, "velocity": 95}, {"time": 3405, "pitch": 81, "duration": 31, "velocity": 90}, {"time": 3447, "pitch": 74, "duration": 5, "velocity": 105}, {"time": 3453, "pitch": 82, "duration": 5, "velocity": 94}, {"time": 3459, "pitch": 81, "duration": 5, "velocity": 91}, {"time": 3465, "pitch": 79, "duration": 5, "velocity": 99}, {"time": 3471, "pitch": 81, "duration": 4, "velocity": 92}, {"time": 3477, "pitch": 79, "duration": 5, "velocity": 99}, {"time": 3483, "pitch": 81, "duration": 5, "velocity": 93}, {"time": 3489, "pitch": 82, "duration": 5, "velocity": 95}, {"time": 3495, "pitch": 82, "duration": 5, "velocity": 89}, {"time": 3501, "pitch": 74, "duration": 4, "velocity": 95}, {"time": 3507, "pitch": 75, "duration": 5, "velocity": 90}, {"time": 3513, "pitch": 77, "duration": 2, "velocity": 89}, {"time": 3516, "pitch": 75, "duration": 24, "velocity": 99}, {"time": 3552, "pitch": 81, "duration": 3, "velocity": 90}, {"time": 3555, "pitch": 79, "duration": 5, "velocity": 92}, {"time": 3561, "pitch": 77, "duration": 5, "velocity": 92}, {"time": 3567, "pitch": 79, "duration": 5, "velocity": 95}, {"time": 3573, "pitch": 77, "duration": 4, "velocity": 89}, {"time": 3579, "pitch": 79, "duration": 5, "velocity": 91}, {"time": 3585, "pitch": 81, "duration": 5, "velocity": 91}, {"time": 3591, "pitch": 84, "duration": 9, "velocity": 90}, {"time": 3597, "pitch": 72, "duration": 5, "velocity": 91}, {"time": 3603, "pitch": 75, "duration": 5, "velocity": 92}, {"time": 3609, "pitch": 77, "duration": 6, "velocity": 90}, {"time": 3615, "pitch": 74, "duration": 20, "velocity": 90}, {"time": 3648, "pitch": 74, "duration": 2, "velocity": 95}, {"time": 3651, "pitch": 74, "duration": 5, "velocity": 104}, {"time": 3657, "pitch": 72, "duration": 5, "velocity": 90}, {"time": 3663, "pitch": 72, "duration": 5, "velocity": 92}, {"time": 3669, "pitch": 71, "duration": 2, "velocity": 92}, {"time": 3672, "pitch": 74, "duration": 8, "velocity": 102}, {"time": 3681, "pitch": 72, "duration": 13, "velocity": 89}, {"time": 3696, "pitch": 79, "duration": 2, "velocity": 90}, {"time": 3699, "pitch": 81, "duration": 5, "velocity": 95}, {"time": 3705, "pitch": 81, "duration": 4, "velocity": 88}, {"time": 3711, "pitch": 81, "duration": 5, "velocity": 90}, {"time": 3717, "pitch": 79, "duration": 5, "velocity": 92}, {"time": 3723, "pitch": 79, "duration": 14, "velocity": 93}, {"time": 3744, "pitch": 72, "duration": 3, "velocity": 87}, {"time": 3747, "pitch": 74, "duration": 5, "velocity": 92}, {"time": 3753, "pitch": 72, "duration": 5, "velocity": 89}, {"time": 3759, "pitch": 72, "duration": 5, "velocity": 92}, {"time": 3765, "pitch": 70, "duration": 5, "velocity": 95}, {"time": 3771, "pitch": 70, "duration": 5, "velocity": 93}, {"time": 3777, "pitch": 69, "duration": 3, "velocity": 90}, {"time": 3780, "pitch": 69, "duration": 9, "velocity": 90}, {"time": 3789, "pitch": 74, "duration": 11, "velocity": 99}, {"time": 3801, "pitch": 67, "duration": 30, "velocity": 92}, {"time": 3837, "pitch": 79, "duration": 3, "velocity": 92}, {"time": 3840, "pitch": 77, "duration": 2, "velocity": 92}, {"time": 3843, "pitch": 79, "duration": 6, "velocity": 95}, {"time": 3850, "pitch": 74, "duration": 4, "velocity": 97}, {"time": 3856, "pitch": 72, "duration": 5, "velocity": 95}, {"time": 3862, "pitch": 70, "duration": 5, "velocity": 92}, {"time": 3868, "pitch": 70, "duration": 7, "velocity": 90}, {"time": 3876, "pitch": 69, "duration": 3, "velocity": 89}, {"time": 3881, "pitch": 69, "duration": 37, "velocity": 91}, {"time": 3924, "pitch": 74, "duration": 18, "velocity": 93}, {"time": 3943, "pitch": 67, "duration": 36, "velocity": 86}]}, {"program": 0, "is_drum": false, "name": "PIANO", "notes": [{"time": 39, "pitch": 43, "duration": 45, "velocity": 89}, {"time": 45, "pitch": 50, "duration": 45, "velocity": 74}, {"time": 51, "pitch": 57, "duration": 3, "velocity": 87}, {"time": 56, "pitch": 55, "duration": 30, "velocity": 69}, {"time": 57, "pitch": 58, "duration": 25, "velocity": 62}, {"time": 58, "pitch": 62, "duration": 27, "velocity": 88}, {"time": 87, "pitch": 41, "duration": 36, "velocity": 87}, {"time": 93, "pitch": 50, "duration": 30, "velocity": 77}, {"time": 99, "pitch": 58, "duration": 2, "velocity": 75}, {"time": 103, "pitch": 53, "duration": 23, "velocity": 78}, {"time": 104, "pitch": 58, "duration": 26, "velocity": 73}, {"time": 105, "pitch": 62, "duration": 24, "velocity": 88}, {"time": 135, "pitch": 39, "duration": 12, "velocity": 91}, {"time": 141, "pitch": 46, "duration": 5, "velocity": 72}, {"time": 145, "pitch": 51, "duration": 1, "velocity": 75}, {"time": 146, "pitch": 55, "duration": 1, "velocity": 88}, {"time": 146, "pitch": 58, "duration": 1, "velocity": 82}, {"time": 147, "pitch": 63, "duration": 2, "velocity": 89}, {"time": 157, "pitch": 55, "duration": 11, "velocity": 73}, {"time": 159, "pitch": 60, "duration": 9, "velocity": 77}, {"time": 159, "pitch": 36, "duration": 13, "velocity": 87}, {"time": 160, "pitch": 63, "duration": 11, "velocity": 84}, {"time": 171, "pitch": 60, "duration": 11, "velocity": 89}, {"time": 171, "pitch": 55, "duration": 1, "velocity": 76}, {"time": 176, "pitch": 55, "duration": 3, "velocity": 81}, {"time": 182, "pitch": 57, "duration": 5, "velocity": 73}, {"time": 183, "pitch": 63, "duration": 13, "velocity": 77}, {"time": 183, "pitch": 45, "duration": 14, "velocity": 89}, {"time": 189, "pitch": 57, "duration": 12, "velocity": 88}, {"time": 195, "pitch": 60, "duration": 11, "velocity": 91}, {"time": 205, "pitch": 57, "duration": 4, "velocity": 74}, {"time": 207, "pitch": 38, "duration": 1, "velocity": 90}, {"time": 207, "pitch": 62, "duration": 6, "velocity": 84}, {"time": 213, "pitch": 50, "duration": 41, "velocity": 84}, {"time": 219, "pitch": 57, "duration": 32, "velocity": 85}, {"time": 225, "pitch": 60, "duration": 5, "velocity": 88}, {"time": 231, "pitch": 66, "duration": 21, "velocity": 88}, {"time": 253, "pitch": 62, "duration": 25, "velocity": 73}, {"time": 255, "pitch": 66, "duration": 23, "velocity": 73}, {"time": 256, "pitch": 74, "duration": 22, "velocity": 88}, {"time": 256, "pitch": 69, "duration": 22, "velocity": 53}, {"time": 279, "pitch": 43, "duration": 46, "velocity": 87}, {"time": 286, "pitch": 50, "duration": 38, "velocity": 69}, {"time": 291, "pitch": 57, "duration": 3, "velocity": 76}, {"time": 296, "pitch": 55, "duration": 33, "velocity": 76}, {"time": 296, "pitch": 58, "duration": 30, "velocity": 72}, {"time": 297, "pitch": 62, "duration": 31, "velocity": 89}, {"time": 327, "pitch": 43, "duration": 46, "velocity": 86}, {"time": 333, "pitch": 50, "duration": 39, "velocity": 74}, {"time": 338, "pitch": 55, "duration": 3, "velocity": 85}, {"time": 343, "pitch": 55, "duration": 31, "velocity": 83}, {"time": 344, "pitch": 60, "duration": 30, "velocity": 82}, {"time": 345, "pitch": 64, "duration": 29, "velocity": 88}, {"time": 373, "pitch": 55, "duration": 1, "velocity": 73}, {"time": 374, "pitch": 58, "duration": 14, "velocity": 75}, {"time": 375, "pitch": 63, "duration": 13, "velocity": 78}, {"time": 375, "pitch": 39, "duration": 13, "velocity": 81}, {"time": 381, "pitch": 46, "duration": 8, "velocity": 62}, {"time": 387, "pitch": 55, "duration": 5, "velocity": 76}, {"time": 397, "pitch": 53, "duration": 15, "velocity": 65}, {"time": 399, "pitch": 57, "duration": 13, "velocity": 77}, {"time": 399, "pitch": 41, "duration": 17, "velocity": 89}, {"time": 404, "pitch": 48, "duration": 12, "velocity": 83}, {"time": 411, "pitch": 60, "duration": 6, "velocity": 91}, {"time": 417, "pitch": 65, "duration": 2, "velocity": 93}, {"time": 422, "pitch": 53, "duration": 8, "velocity": 76}, {"time": 423, "pitch": 58, "duration": 13, "velocity": 77}, {"time": 423, "pitch": 46, "duration": 15, "velocity": 84}, {"time": 424, "pitch": 62, "duration": 13, "velocity": 82}, {"time": 429, "pitch": 50, "duration": 9, "velocity": 75}, {"time": 435, "pitch": 53, "duration": 4, "velocity": 81}, {"time": 446, "pitch": 57, "duration": 3, "velocity": 67}, {"time": 447, "pitch": 38, "duration": 12, "velocity": 90}, {"time": 447, "pitch": 62, "duration": 10, "velocity": 88}, {"time": 448, "pitch": 66, "duration": 11, "velocity": 81}, {"time": 453, "pitch": 45, "duration": 6, "velocity": 78}, {"time": 459, "pitch": 57, "duration": 2, "velocity": 89}, {"time": 471, "pitch": 43, "duration": 45, "velocity": 91}, {"time": 477, "pitch": 50, "duration": 35, "velocity": 71}, {"time": 483, "pitch": 57, "duration": 4, "velocity": 87}, {"time": 488, "pitch": 55, "duration": 2, "velocity": 75}, {"time": 489, "pitch": 58, "duration": 1, "velocity": 74}, {"time": 490, "pitch": 62, "duration": 3, "velocity": 90}, {"time": 507, "pitch": 58, "duration": 3, "velocity": 86}, {"time": 507, "pitch": 62, "duration": 4, "velocity": 86}, {"time": 507, "pitch": 55, "duration": 3, "velocity": 80}, {"time": 519, "pitch": 43, "duration": 38, "velocity": 90}, {"time": 525, "pitch": 48, "duration": 32, "velocity": 83}, {"time": 531, "pitch": 60, "duration": 2, "velocity": 82}, {"time": 535, "pitch": 55, "duration": 9, "velocity": 74}, {"time": 536, "pitch": 60, "duration": 11, "velocity": 88}, {"time": 537, "pitch": 64, "duration": 11, "velocity": 90}, {"time": 555, "pitch": 60, "duration": 2, "velocity": 89}, {"time": 555, "pitch": 55, "duration": 2, "velocity": 89}, {"time": 566, "pitch": 51, "duration": 5, "velocity": 75}, {"time": 567, "pitch": 58, "duration": 6, "velocity": 77}, {"time": 567, "pitch": 55, "duration": 7, "velocity": 76}, {"time": 567, "pitch": 39, "duration": 12, "velocity": 89}, {"time": 573, "pitch": 46, "duration": 6, "velocity": 74}, {"time": 579, "pitch": 63, "duration": 2, "velocity": 90}, {"time": 589, "pitch": 60, "duration": 8, "velocity": 69}, {"time": 591, "pitch": 66, "duration": 8, "velocity": 74}, {"time": 591, "pitch": 38, "duration": 15, "velocity": 92}, {"time": 597, "pitch": 45, "duration": 9, "velocity": 73}, {"time": 603, "pitch": 62, "duration": 15, "velocity": 84}, {"time": 615, "pitch": 43, "duration": 14, "velocity": 89}, {"time": 621, "pitch": 50, "duration": 7, "velocity": 82}, {"time": 627, "pitch": 62, "duration": 4, "velocity": 84}, {"time": 627, "pitch": 58, "duration": 3, "velocity": 83}, {"time": 627, "pitch": 55, "duration": 2, "velocity": 79}, {"time": 637, "pitch": 62, "duration": 3, "velocity": 78}, {"time": 638, "pitch": 66, "duration": 8, "velocity": 77}, {"time": 639, "pitch": 69, "duration": 6, "velocity": 77}, {"time": 639, "pitch": 38, "duration": 2, "velocity": 92}, {"time": 639, "pitch": 74, "duration": 6, "velocity": 89}, {"time": 645, "pitch": 50, "duration": 14, "velocity": 77}, {"time": 648, "pitch": 57, "duration": 8, "velocity": 89}, {"time": 651, "pitch": 60, "duration": 4, "velocity": 95}, {"time": 654, "pitch": 66, "duration": 9, "velocity": 97}, {"time": 657, "pitch": 54, "duration": 5, "velocity": 88}, {"time": 660, "pitch": 57, "duration": 4, "velocity": 77}, {"time": 663, "pitch": 43, "duration": 41, "velocity": 89}, {"time": 663, "pitch": 55, "duration": 13, "velocity": 86}, {"time": 663, "pitch": 62, "duration": 10, "velocity": 85}, {"time": 669, "pitch": 50, "duration": 9, "velocity": 73}, {"time": 675, "pitch": 58, "duration": 7, "velocity": 93}, {"time": 681, "pitch": 50, "duration": 9, "velocity": 76}, {"time": 687, "pitch": 55, "duration": 7, "velocity": 91}, {"time": 687, "pitch": 67, "duration": 7, "velocity": 88}, {"time": 693, "pitch": 50, "duration": 8, "velocity": 72}, {"time": 699, "pitch": 58, "duration": 6, "velocity": 88}, {"time": 699, "pitch": 62, "duration": 6, "velocity": 88}, {"time": 705, "pitch": 55, "duration": 7, "velocity": 94}, {"time": 711, "pitch": 48, "duration": 41, "velocity": 89}, {"time": 711, "pitch": 63, "duration": 7, "velocity": 97}, {"time": 717, "pitch": 55, "duration": 6, "velocity": 79}, {"time": 723, "pitch": 62, "duration": 4, "velocity": 92}, {"time": 729, "pitch": 55, "duration": 4, "velocity": 88}, {"time": 735, "pitch": 55, "duration": 3, "velocity": 94}, {"time": 735, "pitch": 63, "duration": 5, "velocity": 90}, {"time": 741, "pitch": 55, "duration": 6, "velocity": 79}, {"time": 747, "pitch": 60, "duration": 2, "velocity": 89}, {"time": 753, "pitch": 58, "duration": 2, "velocity": 94}, {"time": 759, "pitch": 41, "duration": 38, "velocity": 90}, {"time": 759, "pitch": 53, "duration": 13, "velocity": 80}, {"time": 759, "pitch": 57, "duration": 11, "velocity": 84}, {"time": 765, "pitch": 48, "duration": 32, "velocity": 81}, {"time": 771, "pitch": 60, "duration": 2, "velocity": 97}, {"time": 777, "pitch": 57, "duration": 3, "velocity": 88}, {"time": 783, "pitch": 53, "duration": 1, "velocity": 71}, {"time": 783, "pitch": 57, "duration": 7, "velocity": 82}, {"time": 783, "pitch": 60, "duration": 7, "velocity": 83}, {"time": 783, "pitch": 65, "duration": 7, "velocity": 88}, {"time": 789, "pitch": 53, "duration": 5, "velocity": 85}, {"time": 795, "pitch": 60, "duration": 7, "velocity": 91}, {"time": 801, "pitch": 53, "duration": 2, "velocity": 88}, {"time": 807, "pitch": 46, "duration": 15, "velocity": 88}, {"time": 807, "pitch": 58, "duration": 5, "velocity": 75}, {"time": 807, "pitch": 62, "duration": 13, "velocity": 86}, {"time": 813, "pitch": 53, "duration": 9, "velocity": 67}, {"time": 819, "pitch": 58, "duration": 8, "velocity": 93}, {"time": 825, "pitch": 62, "duration": 5, "velocity": 89}, {"time": 831, "pitch": 58, "duration": 8, "velocity": 80}, {"time": 831, "pitch": 62, "duration": 10, "velocity": 83}, {"time": 837, "pitch": 53, "duration": 8, "velocity": 77}, {"time": 843, "pitch": 58, "duration": 3, "velocity": 91}, {"time": 843, "pitch": 62, "duration": 4, "velocity": 91}, {"time": 843, "pitch": 65, "duration": 6, "velocity": 89}, {"time": 855, "pitch": 45, "duration": 17, "velocity": 89}, {"time": 855, "pitch": 57, "duration": 3, "velocity": 78}, {"time": 855, "pitch": 60, "duration": 7, "velocity": 81}, {"time": 855, "pitch": 63, "duration": 8, "velocity": 83}, {"time": 855, "pitch": 67, "duration": 8, "velocity": 83}, {"time": 861, "pitch": 57, "duration": 13, "velocity": 83}, {"time": 867, "pitch": 60, "duration": 11, "velocity": 87}, {"time": 873, "pitch": 63, "duration": 3, "velocity": 93}, {"time": 879, "pitch": 38, "duration": 2, "velocity": 90}, {"time": 879, "pitch": 57, "duration": 5, "velocity": 86}, {"time": 879, "pitch": 62, "duration": 7, "velocity": 88}, {"time": 885, "pitch": 50, "duration": 9, "velocity": 89}, {"time": 891, "pitch": 60, "duration": 5, "velocity": 91}, {"time": 891, "pitch": 66, "duration": 10, "velocity": 90}, {"time": 903, "pitch": 43, "duration": 7, "velocity": 88}, {"time": 903, "pitch": 62, "duration": 7, "velocity": 90}, {"time": 903, "pitch": 67, "duration": 10, "velocity": 89}, {"time": 915, "pitch": 41, "duration": 6, "velocity": 89}, {"time": 915, "pitch": 60, "duration": 7, "velocity": 90}, {"time": 915, "pitch": 65, "duration": 9, "velocity": 91}, {"time": 927, "pitch": 39, "duration": 13, "velocity": 90}, {"time": 927, "pitch": 63, "duration": 13, "velocity": 80}, {"time": 927, "pitch": 70, "duration": 10, "velocity": 76}, {"time": 933, "pitch": 46, "duration": 7, "velocity": 77}, {"time": 939, "pitch": 67, "duration": 5, "velocity": 87}, {"time": 951, "pitch": 48, "duration": 38, "velocity": 90}, {"time": 951, "pitch": 60, "duration": 10, "velocity": 72}, {"time": 951, "pitch": 63, "duration": 10, "velocity": 79}, {"time": 957, "pitch": 55, "duration": 32, "velocity": 84}, {"time": 963, "pitch": 63, "duration": 7, "velocity": 97}, {"time": 969, "pitch": 60, "duration": 5, "velocity": 97}, {"time": 975, "pitch": 67, "duration": 10, "velocity": 88}, {"time": 981, "pitch": 60, "duration": 4, "velocity": 54}, {"time": 987, "pitch": 60, "duration": 4, "velocity": 88}, {"time": 987, "pitch": 63, "duration": 4, "velocity": 94}, {"time": 987, "pitch": 67, "duration": 4, "velocity": 90}, {"time": 987, "pitch": 72, "duration": 4, "velocity": 87}, {"time": 999, "pitch": 38, "duration": 2, "velocity": 94}, {"time": 999, "pitch": 60, "duration": 8, "velocity": 91}, {"time": 999, "pitch": 66, "duration": 16, "velocity": 90}, {"time": 1005, "pitch": 50, "duration": 17, "velocity": 91}, {"time": 1011, "pitch": 57, "duration": 11, "velocity": 91}, {"time": 1014, "pitch": 62, "duration": 7, "velocity": 90}, {"time": 1023, "pitch": 50, "duration": 24, "velocity": 95}, {"time": 1023, "pitch": 57, "duration": 4, "velocity": 95}, {"time": 1023, "pitch": 62, "duration": 6, "velocity": 92}, {"time": 1023, "pitch": 66, "duration": 7, "velocity": 81}, {"time": 1023, "pitch": 74, "duration": 6, "velocity": 97}, {"time": 1029, "pitch": 54, "duration": 3, "velocity": 46}, {"time": 1032, "pitch": 57, "duration": 4, "velocity": 92}, {"time": 1035, "pitch": 60, "duration": 4, "velocity": 104}, {"time": 1035, "pitch": 66, "duration": 7, "velocity": 97}, {"time": 1038, "pitch": 57, "duration": 9, "velocity": 94}, {"time": 1041, "pitch": 60, "duration": 5, "velocity": 97}, {"time": 1047, "pitch": 43, "duration": 41, "velocity": 89}, {"time": 1047, "pitch": 55, "duration": 13, "velocity": 86}, {"time": 1047, "pitch": 62, "duration": 10, "velocity": 85}, {"time": 1053, "pitch": 50, "duration": 9, "velocity": 73}, {"time": 1059, "pitch": 58, "duration": 7, "velocity": 93}, {"time": 1065, "pitch": 50, "duration": 9, "velocity": 76}, {"time": 1071, "pitch": 55, "duration": 7, "velocity": 91}, {"time": 1071, "pitch": 67, "duration": 7, "velocity": 88}, {"time": 1077, "pitch": 50, "duration": 8, "velocity": 72}, {"time": 1083, "pitch": 58, "duration": 6, "velocity": 88}, {"time": 1083, "pitch": 62, "duration": 6, "velocity": 88}, {"time": 1089, "pitch": 55, "duration": 7, "velocity": 94}, {"time": 1095, "pitch": 48, "duration": 41, "velocity": 89}, {"time": 1095, "pitch": 63, "duration": 7, "velocity": 97}, {"time": 1101, "pitch": 55, "duration": 6, "velocity": 79}, {"time": 1107, "pitch": 62, "duration": 4, "velocity": 92}, {"time": 1113, "pitch": 55, "duration": 4, "velocity": 88}, {"time": 1119, "pitch": 55, "duration": 3, "velocity": 94}, {"time": 1119, "pitch": 63, "duration": 5, "velocity": 90}, {"time": 1125, "pitch": 55, "duration": 6, "velocity": 79}, {"time": 1131, "pitch": 60, "duration": 2, "velocity": 89}, {"time": 1137, "pitch": 58, "duration": 2, "velocity": 94}, {"time": 1143, "pitch": 41, "duration": 38, "velocity": 90}, {"time": 1143, "pitch": 53, "duration": 13, "velocity": 80}, {"time": 1143, "pitch": 57, "duration": 11, "velocity": 84}, {"time": 1149, "pitch": 48, "duration": 32, "velocity": 81}, {"time": 1155, "pitch": 60, "duration": 2, "velocity": 97}, {"time": 1161, "pitch": 57, "duration": 3, "velocity": 88}, {"time": 1167, "pitch": 53, "duration": 1, "velocity": 71}, {"time": 1167, "pitch": 57, "duration": 7, "velocity": 82}, {"time": 1167, "pitch": 60, "duration": 7, "velocity": 83}, {"time": 1167, "pitch": 65, "duration": 7, "velocity": 88}, {"time": 1173, "pitch": 53, "duration": 5, "velocity": 85}, {"time": 1179, "pitch": 60, "duration": 7, "velocity": 91}, {"time": 1185, "pitch": 53, "duration": 2, "velocity": 88}, {"time": 1191, "pitch": 46, "duration": 15, "velocity": 88}, {"time": 1191, "pitch": 58, "duration": 5, "velocity": 75}, {"time": 1191, "pitch": 62, "duration": 13, "velocity": 86}, {"time": 1197, "pitch": 53, "duration": 9, "velocity": 67}, {"time": 1203, "pitch": 58, "duration": 8, "velocity": 93}, {"time": 1209, "pitch": 62, "duration": 5, "velocity": 89}, {"time": 1215, "pitch": 58, "duration": 8, "velocity": 80}, {"time": 1215, "pitch": 62, "duration": 10, "velocity": 83}, {"time": 1221, "pitch": 53, "duration": 8, "velocity": 77}, {"time": 1227, "pitch": 58, "duration": 3, "velocity": 91}, {"time": 1227, "pitch": 62, "duration": 4, "velocity": 91}, {"time": 1227, "pitch": 65, "duration": 6, "velocity": 89}, {"time": 1239, "pitch": 45, "duration": 17, "velocity": 89}, {"time": 1239, "pitch": 57, "duration": 3, "velocity": 78}, {"time": 1239, "pitch": 60, "duration": 7, "velocity": 81}, {"time": 1239, "pitch": 63, "duration": 8, "velocity": 83}, {"time": 1239, "pitch": 67, "duration": 8, "velocity": 83}, {"time": 1245, "pitch": 57, "duration": 13, "velocity": 83}, {"time": 1251, "pitch": 60, "duration": 11, "velocity": 87}, {"time": 1257, "pitch": 63, "duration": 3, "velocity": 93}, {"time": 1263, "pitch": 38, "duration": 2, "velocity": 90}, {"time": 1263, "pitch": 57, "duration": 5, "velocity": 86}, {"time": 1263, "pitch": 62, "duration": 7, "velocity": 88}, {"time": 1269, "pitch": 50, "duration": 9, "velocity": 89}, {"time": 1275, "pitch": 60, "duration": 5, "velocity": 91}, {"time": 1275, "pitch": 66, "duration": 10, "velocity": 90}, {"time": 1287, "pitch": 43, "duration": 7, "velocity": 88}, {"time": 1287, "pitch": 62, "duration": 7, "velocity": 90}, {"time": 1287, "pitch": 67, "duration": 10, "velocity": 89}, {"time": 1299, "pitch": 41, "duration": 6, "velocity": 89}, {"time": 1299, "pitch": 60, "duration": 7, "velocity": 90}, {"time": 1299, "pitch": 65, "duration": 9, "velocity": 91}, {"time": 1311, "pitch": 39, "duration": 13, "velocity": 90}, {"time": 1311, "pitch": 63, "duration": 13, "velocity": 80}, {"time": 1311, "pitch": 70, "duration": 10, "velocity": 76}, {"time": 1317, "pitch": 46, "duration": 7, "velocity": 77}, {"time": 1323, "pitch": 67, "duration": 5, "velocity": 87}, {"time": 1335, "pitch": 48, "duration": 14, "velocity": 89}, {"time": 1335, "pitch": 60, "duration": 9, "velocity": 79}, {"time": 1335, "pitch": 63, "duration": 7, "velocity": 81}, {"time": 1341, "pitch": 55, "duration": 9, "velocity": 80}, {"time": 1347, "pitch": 60, "duration": 3, "velocity": 86}, {"time": 1347, "pitch": 63, "duration": 6, "velocity": 89}, {"time": 1347, "pitch": 67, "duration": 6, "velocity": 84}, {"time": 1359, "pitch": 38, "duration": 17, "velocity": 91}, {"time": 1359, "pitch": 62, "duration": 8, "velocity": 82}, {"time": 1359, "pitch": 67, "duration": 8, "velocity": 77}, {"time": 1365, "pitch": 45, "duration": 11, "velocity": 73}, {"time": 1371, "pitch": 62, "duration": 8, "velocity": 90}, {"time": 1371, "pitch": 66, "duration": 9, "velocity": 90}, {"time": 1383, "pitch": 43, "duration": 45, "velocity": 89}, {"time": 1389, "pitch": 50, "duration": 45, "velocity": 74}, {"time": 1395, "pitch": 57, "duration": 3, "velocity": 87}, {"time": 1400, "pitch": 55, "duration": 30, "velocity": 69}, {"time": 1401, "pitch": 58, "duration": 25, "velocity": 62}, {"time": 1402, "pitch": 62, "duration": 27, "velocity": 88}, {"time": 1431, "pitch": 41, "duration": 36, "velocity": 87}, {"time": 1437, "pitch": 50, "duration": 30, "velocity": 77}, {"time": 1443, "pitch": 58, "duration": 2, "velocity": 75}, {"time": 1447, "pitch": 53, "duration": 23, "velocity": 78}, {"time": 1448, "pitch": 58, "duration": 26, "velocity": 73}, {"time": 1449, "pitch": 62, "duration": 24, "velocity": 88}, {"time": 1479, "pitch": 39, "duration": 12, "velocity": 91}, {"time": 1485, "pitch": 46, "duration": 5, "velocity": 72}, {"time": 1489, "pitch": 51, "duration": 1, "velocity": 75}, {"time": 1490, "pitch": 55, "duration": 1, "velocity": 88}, {"time": 1490, "pitch": 58, "duration": 1, "velocity": 82}, {"time": 1491, "pitch": 63, "duration": 2, "velocity": 89}, {"time": 1501, "pitch": 55, "duration": 11, "velocity": 73}, {"time": 1503, "pitch": 60, "duration": 9, "velocity": 77}, {"time": 1503, "pitch": 36, "duration": 13, "velocity": 87}, {"time": 1504, "pitch": 63, "duration": 11, "velocity": 84}, {"time": 1515, "pitch": 60, "duration": 11, "velocity": 89}, {"time": 1515, "pitch": 55, "duration": 1, "velocity": 76}, {"time": 1520, "pitch": 55, "duration": 3, "velocity": 81}, {"time": 1528, "pitch": 50, "duration": 41, "velocity": 84}, {"time": 1534, "pitch": 57, "duration": 32, "velocity": 85}, {"time": 1540, "pitch": 60, "duration": 5, "velocity": 88}, {"time": 1546, "pitch": 66, "duration": 21, "velocity": 88}, {"time": 1575, "pitch": 43, "duration": 46, "velocity": 87}, {"time": 1582, "pitch": 50, "duration": 38, "velocity": 69}, {"time": 1587, "pitch": 57, "duration": 3, "velocity": 76}, {"time": 1592, "pitch": 55, "duration": 33, "velocity": 76}, {"time": 1592, "pitch": 58, "duration": 30, "velocity": 72}, {"time": 1593, "pitch": 62, "duration": 31, "velocity": 89}, {"time": 1623, "pitch": 43, "duration": 46, "velocity": 86}, {"time": 1629, "pitch": 50, "duration": 39, "velocity": 74}, {"time": 1634, "pitch": 55, "duration": 3, "velocity": 85}, {"time": 1639, "pitch": 55, "duration": 31, "velocity": 83}, {"time": 1640, "pitch": 60, "duration": 30, "velocity": 82}, {"time": 1641, "pitch": 64, "duration": 29, "velocity": 88}, {"time": 1669, "pitch": 55, "duration": 1, "velocity": 73}, {"time": 1670, "pitch": 58, "duration": 14, "velocity": 75}, {"time": 1671, "pitch": 63, "duration": 13, "velocity": 78}, {"time": 1671, "pitch": 39, "duration": 13, "velocity": 81}, {"time": 1677, "pitch": 46, "duration": 8, "velocity": 62}, {"time": 1683, "pitch": 55, "duration": 5, "velocity": 76}, {"time": 1693, "pitch": 53, "duration": 15, "velocity": 65}, {"time": 1695, "pitch": 57, "duration": 13, "velocity": 77}, {"time": 1695, "pitch": 41, "duration": 17, "velocity": 89}, {"time": 1700, "pitch": 48, "duration": 12, "velocity": 83}, {"time": 1707, "pitch": 60, "duration": 6, "velocity": 91}, {"time": 1713, "pitch": 65, "duration": 2, "velocity": 93}, {"time": 1718, "pitch": 53, "duration": 8, "velocity": 76}, {"time": 1719, "pitch": 58, "duration": 13, "velocity": 77}, {"time": 1719, "pitch": 46, "duration": 15, "velocity": 84}, {"time": 1720, "pitch": 62, "duration": 13, "velocity": 82}, {"time": 1725, "pitch": 50, "duration": 9, "velocity": 75}, {"time": 1731, "pitch": 53, "duration": 4, "velocity": 81}, {"time": 1742, "pitch": 57, "duration": 3, "velocity": 67}, {"time": 1743, "pitch": 38, "duration": 12, "velocity": 90}, {"time": 1743, "pitch": 62, "duration": 10, "velocity": 88}, {"time": 1744, "pitch": 66, "duration": 11, "velocity": 81}, {"time": 1749, "pitch": 45, "duration": 6, "velocity": 78}, {"time": 1755, "pitch": 57, "duration": 2, "velocity": 89}, {"time": 1767, "pitch": 43, "duration": 45, "velocity": 91}, {"time": 1773, "pitch": 50, "duration": 35, "velocity": 71}, {"time": 1779, "pitch": 57, "duration": 4, "velocity": 87}, {"time": 1784, "pitch": 55, "duration": 2, "velocity": 75}, {"time": 1785, "pitch": 58, "duration": 1, "velocity": 74}, {"time": 1786, "pitch": 62, "duration": 3, "velocity": 90}, {"time": 1803, "pitch": 58, "duration": 3, "velocity": 86}, {"time": 1803, "pitch": 62, "duration": 4, "velocity": 86}, {"time": 1803, "pitch": 55, "duration": 3, "velocity": 80}, {"time": 1815, "pitch": 43, "duration": 38, "velocity": 90}, {"time": 1821, "pitch": 48, "duration": 32, "velocity": 83}, {"time": 1827, "pitch": 60, "duration": 2, "velocity": 82}, {"time": 1831, "pitch": 55, "duration": 9, "velocity": 74}, {"time": 1832, "pitch": 60, "duration": 11, "velocity": 88}, {"time": 1833, "pitch": 64, "duration": 11, "velocity": 90}, {"time": 1851, "pitch": 60, "duration": 2, "velocity": 89}, {"time": 1851, "pitch": 55, "duration": 2, "velocity": 89}, {"time": 1862, "pitch": 51, "duration": 5, "velocity": 75}, {"time": 1863, "pitch": 58, "duration": 6, "velocity": 77}, {"time": 1863, "pitch": 55, "duration": 7, "velocity": 76}, {"time": 1863, "pitch": 39, "duration": 12, "velocity": 89}, {"time": 1869, "pitch": 46, "duration": 6, "velocity": 74}, {"time": 1875, "pitch": 63, "duration": 2, "velocity": 90}, {"time": 1885, "pitch": 60, "duration": 8, "velocity": 69}, {"time": 1887, "pitch": 66, "duration": 8, "velocity": 74}, {"time": 1887, "pitch": 38, "duration": 15, "velocity": 92}, {"time": 1893, "pitch": 45, "duration": 9, "velocity": 73}, {"time": 1899, "pitch": 62, "duration": 15, "velocity": 84}, {"time": 1911, "pitch": 43, "duration": 14, "velocity": 89}, {"time": 1917, "pitch": 50, "duration": 7, "velocity": 82}, {"time": 1923, "pitch": 62, "duration": 4, "velocity": 84}, {"time": 1923, "pitch": 58, "duration": 3, "velocity": 83}, {"time": 1923, "pitch": 55, "duration": 2, "velocity": 79}, {"time": 1933, "pitch": 62, "duration": 3, "velocity": 78}, {"time": 1934, "pitch": 66, "duration": 8, "velocity": 77}, {"time": 1935, "pitch": 69, "duration": 6, "velocity": 77}, {"time": 1935, "pitch": 38, "duration": 2, "velocity": 92}, {"time": 1935, "pitch": 74, "duration": 6, "velocity": 89}, {"time": 1941, "pitch": 50, "duration": 14, "velocity": 77}, {"time": 1944, "pitch": 57, "duration": 8, "velocity": 89}, {"time": 1947, "pitch": 60, "duration": 4, "velocity": 95}, {"time": 1950, "pitch": 66, "duration": 9, "velocity": 97}, {"time": 1953, "pitch": 54, "duration": 5, "velocity": 88}, {"time": 1956, "pitch": 57, "duration": 4, "velocity": 77}, {"time": 1959, "pitch": 43, "duration": 40, "velocity": 89}, {"time": 1959, "pitch": 62, "duration": 5, "velocity": 90}, {"time": 1959, "pitch": 70, "duration": 8, "velocity": 89}, {"time": 1965, "pitch": 50, "duration": 33, "velocity": 80}, {"time": 1971, "pitch": 62, "duration": 3, "velocity": 85}, {"time": 1971, "pitch": 67, "duration": 4, "velocity": 85}, {"time": 1977, "pitch": 62, "duration": 4, "velocity": 87}, {"time": 1983, "pitch": 62, "duration": 4, "velocity": 91}, {"time": 1983, "pitch": 67, "duration": 7, "velocity": 97}, {"time": 1983, "pitch": 70, "duration": 11, "velocity": 94}, {"time": 1989, "pitch": 62, "duration": 5, "velocity": 80}, {"time": 1995, "pitch": 62, "duration": 3, "velocity": 99}, {"time": 1995, "pitch": 67, "duration": 3, "velocity": 95}, {"time": 2007, "pitch": 36, "duration": 2, "velocity": 86}, {"time": 2007, "pitch": 63, "duration": 10, "velocity": 89}, {"time": 2007, "pitch": 67, "duration": 10, "velocity": 86}, {"time": 2013, "pitch": 48, "duration": 34, "velocity": 87}, {"time": 2019, "pitch": 60, "duration": 7, "velocity": 88}, {"time": 2019, "pitch": 63, "duration": 7, "velocity": 91}, {"time": 2025, "pitch": 55, "duration": 21, "velocity": 80}, {"time": 2031, "pitch": 60, "duration": 1, "velocity": 77}, {"time": 2031, "pitch": 63, "duration": 7, "velocity": 92}, {"time": 2031, "pitch": 67, "duration": 7, "velocity": 91}, {"time": 2031, "pitch": 72, "duration": 6, "velocity": 90}, {"time": 2037, "pitch": 60, "duration": 5, "velocity": 86}, {"time": 2043, "pitch": 63, "duration": 2, "velocity": 91}, {"time": 2043, "pitch": 67, "duration": 2, "velocity": 91}, {"time": 2049, "pitch": 70, "duration": 6, "velocity": 89}, {"time": 2055, "pitch": 41, "duration": 2, "velocity": 89}, {"time": 2055, "pitch": 65, "duration": 11, "velocity": 85}, {"time": 2055, "pitch": 69, "duration": 11, "velocity": 89}, {"time": 2061, "pitch": 53, "duration": 17, "velocity": 87}, {"time": 2067, "pitch": 60, "duration": 12, "velocity": 94}, {"time": 2073, "pitch": 65, "duration": 5, "velocity": 92}, {"time": 2079, "pitch": 53, "duration": 12, "velocity": 90}, {"time": 2079, "pitch": 65, "duration": 9, "velocity": 94}, {"time": 2079, "pitch": 72, "duration": 11, "velocity": 88}, {"time": 2085, "pitch": 60, "duration": 6, "velocity": 79}, {"time": 2091, "pitch": 65, "duration": 3, "velocity": 88}, {"time": 2091, "pitch": 69, "duration": 5, "velocity": 93}, {"time": 2103, "pitch": 46, "duration": 38, "velocity": 92}, {"time": 2103, "pitch": 65, "duration": 5, "velocity": 86}, {"time": 2103, "pitch": 74, "duration": 7, "velocity": 90}, {"time": 2109, "pitch": 53, "duration": 10, "velocity": 83}, {"time": 2115, "pitch": 65, "duration": 4, "velocity": 88}, {"time": 2115, "pitch": 70, "duration": 7, "velocity": 95}, {"time": 2121, "pitch": 53, "duration": 20, "velocity": 87}, {"time": 2127, "pitch": 65, "duration": 3, "velocity": 89}, {"time": 2127, "pitch": 70, "duration": 7, "velocity": 99}, {"time": 2127, "pitch": 74, "duration": 8, "velocity": 99}, {"time": 2133, "pitch": 65, "duration": 3, "velocity": 83}, {"time": 2139, "pitch": 65, "duration": 4, "velocity": 92}, {"time": 2139, "pitch": 72, "duration": 7, "velocity": 93}, {"time": 2145, "pitch": 70, "duration": 2, "velocity": 95}, {"time": 2151, "pitch": 45, "duration": 15, "velocity": 89}, {"time": 2151, "pitch": 69, "duration": 9, "velocity": 89}, {"time": 2151, "pitch": 72, "duration": 8, "velocity": 89}, {"time": 2157, "pitch": 51, "duration": 9, "velocity": 69}, {"time": 2163, "pitch": 69, "duration": 6, "velocity": 89}, {"time": 2163, "pitch": 72, "duration": 11, "velocity": 90}, {"time": 2169, "pitch": 45, "duration": 3, "velocity": 88}, {"time": 2175, "pitch": 38, "duration": 2, "velocity": 92}, {"time": 2175, "pitch": 69, "duration": 4, "velocity": 86}, {"time": 2175, "pitch": 74, "duration": 7, "velocity": 91}, {"time": 2181, "pitch": 50, "duration": 8, "velocity": 88}, {"time": 2187, "pitch": 62, "duration": 7, "velocity": 92}, {"time": 2187, "pitch": 66, "duration": 5, "velocity": 90}, {"time": 2193, "pitch": 50, "duration": 2, "velocity": 90}, {"time": 2199, "pitch": 43, "duration": 16, "velocity": 83}, {"time": 2199, "pitch": 62, "duration": 4, "velocity": 89}, {"time": 2199, "pitch": 70, "duration": 8, "velocity": 88}, {"time": 2205, "pitch": 62, "duration": 5, "velocity": 83}, {"time": 2211, "pitch": 65, "duration": 8, "velocity": 83}, {"time": 2211, "pitch": 69, "duration": 13, "velocity": 95}, {"time": 2223, "pitch": 39, "duration": 14, "velocity": 91}, {"time": 2223, "pitch": 67, "duration": 6, "velocity": 87}, {"time": 2229, "pitch": 46, "duration": 9, "velocity": 77}, {"time": 2235, "pitch": 63, "duration": 7, "velocity": 102}, {"time": 2235, "pitch": 67, "duration": 9, "velocity": 92}, {"time": 2247, "pitch": 48, "duration": 17, "velocity": 90}, {"time": 2247, "pitch": 60, "duration": 6, "velocity": 88}, {"time": 2247, "pitch": 63, "duration": 6, "velocity": 92}, {"time": 2247, "pitch": 67, "duration": 6, "velocity": 89}, {"time": 2253, "pitch": 55, "duration": 11, "velocity": 72}, {"time": 2259, "pitch": 60, "duration": 1, "velocity": 80}, {"time": 2259, "pitch": 63, "duration": 7, "velocity": 102}, {"time": 2259, "pitch": 67, "duration": 6, "velocity": 90}, {"time": 2265, "pitch": 60, "duration": 4, "velocity": 90}, {"time": 2271, "pitch": 60, "duration": 3, "velocity": 92}, {"time": 2271, "pitch": 63, "duration": 7, "velocity": 97}, {"time": 2271, "pitch": 67, "duration": 7, "velocity": 89}, {"time": 2277, "pitch": 60, "duration": 4, "velocity": 73}, {"time": 2283, "pitch": 36, "duration": 2, "velocity": 89}, {"time": 2283, "pitch": 60, "duration": 5, "velocity": 89}, {"time": 2283, "pitch": 63, "duration": 4, "velocity": 94}, {"time": 2283, "pitch": 67, "duration": 6, "velocity": 89}, {"time": 2295, "pitch": 38, "duration": 20, "velocity": 94}, {"time": 2295, "pitch": 57, "duration": 4, "velocity": 94}, {"time": 2295, "pitch": 62, "duration": 7, "velocity": 93}, {"time": 2301, "pitch": 57, "duration": 4, "velocity": 88}, {"time": 2307, "pitch": 57, "duration": 2, "velocity": 99}, {"time": 2307, "pitch": 62, "duration": 2, "velocity": 95}, {"time": 2307, "pitch": 66, "duration": 3, "velocity": 90}, {"time": 2316, "pitch": 62, "duration": 2, "velocity": 90}, {"time": 2316, "pitch": 66, "duration": 1, "velocity": 89}, {"time": 2316, "pitch": 69, "duration": 2, "velocity": 88}, {"time": 2319, "pitch": 38, "duration": 24, "velocity": 93}, {"time": 2319, "pitch": 62, "duration": 8, "velocity": 89}, {"time": 2319, "pitch": 66, "duration": 7, "velocity": 88}, {"time": 2319, "pitch": 69, "duration": 8, "velocity": 90}, {"time": 2325, "pitch": 45, "duration": 8, "velocity": 82}, {"time": 2328, "pitch": 62, "duration": 2, "velocity": 92}, {"time": 2328, "pitch": 66, "duration": 2, "velocity": 91}, {"time": 2328, "pitch": 74, "duration": 2, "velocity": 85}, {"time": 2331, "pitch": 62, "duration": 4, "velocity": 102}, {"time": 2331, "pitch": 66, "duration": 4, "velocity": 102}, {"time": 2331, "pitch": 74, "duration": 3, "velocity": 102}, {"time": 2334, "pitch": 45, "duration": 9, "velocity": 87}, {"time": 2337, "pitch": 62, "duration": 5, "velocity": 89}, {"time": 2337, "pitch": 66, "duration": 6, "velocity": 92}, {"time": 2337, "pitch": 72, "duration": 6, "velocity": 94}, {"time": 2343, "pitch": 43, "duration": 40, "velocity": 89}, {"time": 2343, "pitch": 62, "duration": 5, "velocity": 90}, {"time": 2343, "pitch": 70, "duration": 8, "velocity": 89}, {"time": 2349, "pitch": 50, "duration": 33, "velocity": 80}, {"time": 2355, "pitch": 62, "duration": 3, "velocity": 85}, {"time": 2355, "pitch": 67, "duration": 4, "velocity": 85}, {"time": 2361, "pitch": 62, "duration": 4, "velocity": 87}, {"time": 2367, "pitch": 62, "duration": 4, "velocity": 91}, {"time": 2367, "pitch": 67, "duration": 7, "velocity": 97}, {"time": 2367, "pitch": 70, "duration": 11, "velocity": 94}, {"time": 2373, "pitch": 62, "duration": 5, "velocity": 80}, {"time": 2379, "pitch": 62, "duration": 3, "velocity": 99}, {"time": 2379, "pitch": 67, "duration": 3, "velocity": 95}, {"time": 2391, "pitch": 36, "duration": 2, "velocity": 86}, {"time": 2391, "pitch": 63, "duration": 10, "velocity": 89}, {"time": 2391, "pitch": 67, "duration": 10, "velocity": 86}, {"time": 2397, "pitch": 48, "duration": 34, "velocity": 87}, {"time": 2403, "pitch": 60, "duration": 7, "velocity": 88}, {"time": 2403, "pitch": 63, "duration": 7, "velocity": 91}, {"time": 2409, "pitch": 55, "duration": 21, "velocity": 80}, {"time": 2415, "pitch": 60, "duration": 1, "velocity": 77}, {"time": 2415, "pitch": 63, "duration": 7, "velocity": 92}, {"time": 2415, "pitch": 67, "duration": 7, "velocity": 91}, {"time": 2415, "pitch": 72, "duration": 6, "velocity": 90}, {"time": 2421, "pitch": 60, "duration": 5, "velocity": 86}, {"time": 2427, "pitch": 63, "duration": 2, "velocity": 91}, {"time": 2427, "pitch": 67, "duration": 2, "velocity": 91}, {"time": 2433, "pitch": 70, "duration": 6, "velocity": 89}, {"time": 2439, "pitch": 41, "duration": 2, "velocity": 89}, {"time": 2439, "pitch": 65, "duration": 11, "velocity": 85}, {"time": 2439, "pitch": 69, "duration": 11, "velocity": 89}, {"time": 2445, "pitch": 53, "duration": 17, "velocity": 87}, {"time": 2451, "pitch": 60, "duration": 12, "velocity": 94}, {"time": 2457, "pitch": 65, "duration": 5, "velocity": 92}, {"time": 2463, "pitch": 53, "duration": 12, "velocity": 90}, {"time": 2463, "pitch": 65, "duration": 9, "velocity": 94}, {"time": 2463, "pitch": 72, "duration": 11, "velocity": 88}, {"time": 2469, "pitch": 60, "duration": 6, "velocity": 79}, {"time": 2475, "pitch": 65, "duration": 3, "velocity": 88}, {"time": 2475, "pitch": 69, "duration": 5, "velocity": 93}, {"time": 2487, "pitch": 46, "duration": 38, "velocity": 92}, {"time": 2487, "pitch": 65, "duration": 5, "velocity": 86}, {"time": 2493, "pitch": 53, "duration": 10, "velocity": 83}, {"time": 2499, "pitch": 65, "duration": 4, "velocity": 88}, {"time": 2499, "pitch": 70, "duration": 7, "velocity": 95}, {"time": 2505, "pitch": 53, "duration": 20, "velocity": 87}, {"time": 2511, "pitch": 65, "duration": 3, "velocity": 89}, {"time": 2511, "pitch": 70, "duration": 7, "velocity": 99}, {"time": 2511, "pitch": 74, "duration": 8, "velocity": 99}, {"time": 2517, "pitch": 65, "duration": 3, "velocity": 83}, {"time": 2523, "pitch": 65, "duration": 4, "velocity": 92}, {"time": 2523, "pitch": 72, "duration": 7, "velocity": 93}, {"time": 2529, "pitch": 70, "duration": 2, "velocity": 95}, {"time": 2535, "pitch": 45, "duration": 15, "velocity": 89}, {"time": 2535, "pitch": 69, "duration": 9, "velocity": 89}, {"time": 2535, "pitch": 72, "duration": 8, "velocity": 89}, {"time": 2541, "pitch": 51, "duration": 9, "velocity": 69}, {"time": 2547, "pitch": 69, "duration": 6, "velocity": 89}, {"time": 2547, "pitch": 72, "duration": 11, "velocity": 90}, {"time": 2553, "pitch": 45, "duration": 3, "velocity": 88}, {"time": 2559, "pitch": 38, "duration": 2, "velocity": 92}, {"time": 2559, "pitch": 69, "duration": 4, "velocity": 86}, {"time": 2559, "pitch": 74, "duration": 7, "velocity": 91}, {"time": 2565, "pitch": 50, "duration": 8, "velocity": 88}, {"time": 2571, "pitch": 62, "duration": 7, "velocity": 92}, {"time": 2571, "pitch": 66, "duration": 5, "velocity": 90}, {"time": 2577, "pitch": 50, "duration": 2, "velocity": 90}, {"time": 2583, "pitch": 43, "duration": 16, "velocity": 83}, {"time": 2583, "pitch": 62, "duration": 4, "velocity": 89}, {"time": 2583, "pitch": 70, "duration": 8, "velocity": 88}, {"time": 2589, "pitch": 62, "duration": 5, "velocity": 83}, {"time": 2595, "pitch": 65, "duration": 8, "velocity": 83}, {"time": 2595, "pitch": 69, "duration": 13, "velocity": 95}, {"time": 2607, "pitch": 40, "duration": 14, "velocity": 91}, {"time": 2607, "pitch": 64, "duration": 9, "velocity": 88}, {"time": 2607, "pitch": 67, "duration": 10, "velocity": 82}, {"time": 2607, "pitch": 70, "duration": 10, "velocity": 81}, {"time": 2607, "pitch": 74, "duration": 9, "velocity": 92}, {"time": 2619, "pitch": 67, "duration": 3, "velocity": 83}, {"time": 2619, "pitch": 70, "duration": 3, "velocity": 76}, {"time": 2619, "pitch": 74, "duration": 3, "velocity": 89}, {"time": 2631, "pitch": 48, "duration": 16, "velocity": 90}, {"time": 2631, "pitch": 63, "duration": 8, "velocity": 82}, {"time": 2631, "pitch": 67, "duration": 10, "velocity": 83}, {"time": 2637, "pitch": 55, "duration": 9, "velocity": 80}, {"time": 2643, "pitch": 60, "duration": 5, "velocity": 89}, {"time": 2643, "pitch": 63, "duration": 6, "velocity": 104}, {"time": 2643, "pitch": 67, "duration": 6, "velocity": 92}, {"time": 2655, "pitch": 38, "duration": 2, "velocity": 94}, {"time": 2655, "pitch": 62, "duration": 10, "velocity": 90}, {"time": 2655, "pitch": 66, "duration": 9, "velocity": 95}, {"time": 2655, "pitch": 74, "duration": 9, "velocity": 91}, {"time": 2661, "pitch": 50, "duration": 15, "velocity": 83}, {"time": 2664, "pitch": 54, "duration": 4, "velocity": 95}, {"time": 2667, "pitch": 57, "duration": 9, "velocity": 97}, {"time": 2670, "pitch": 62, "duration": 10, "velocity": 102}, {"time": 2673, "pitch": 66, "duration": 7, "velocity": 94}, {"time": 2676, "pitch": 50, "duration": 3, "velocity": 83}, {"time": 2676, "pitch": 57, "duration": 3, "velocity": 90}, {"time": 2676, "pitch": 69, "duration": 4, "velocity": 92}, {"time": 2676, "pitch": 74, "duration": 3, "velocity": 102}, {"time": 2691, "pitch": 39, "duration": 15, "velocity": 97}, {"time": 2691, "pitch": 63, "duration": 7, "velocity": 88}, {"time": 2691, "pitch": 67, "duration": 7, "velocity": 83}, {"time": 2691, "pitch": 70, "duration": 8, "velocity": 80}, {"time": 2691, "pitch": 75, "duration": 7, "velocity": 84}, {"time": 2697, "pitch": 46, "duration": 9, "velocity": 67}, {"time": 2700, "pitch": 63, "duration": 5, "velocity": 91}, {"time": 2703, "pitch": 67, "duration": 2, "velocity": 82}, {"time": 2709, "pitch": 39, "duration": 22, "velocity": 104}, {"time": 2709, "pitch": 63, "duration": 12, "velocity": 89}, {"time": 2709, "pitch": 67, "duration": 10, "velocity": 88}, {"time": 2709, "pitch": 70, "duration": 13, "velocity": 87}, {"time": 2709, "pitch": 75, "duration": 11, "velocity": 85}, {"time": 2721, "pitch": 46, "duration": 10, "velocity": 88}, {"time": 2724, "pitch": 63, "duration": 5, "velocity": 89}, {"time": 2727, "pitch": 67, "duration": 2, "velocity": 92}, {"time": 2730, "pitch": 67, "duration": 1, "velocity": 83}, {"time": 2730, "pitch": 70, "duration": 2, "velocity": 97}, {"time": 2739, "pitch": 38, "duration": 1, "velocity": 92}, {"time": 2739, "pitch": 62, "duration": 8, "velocity": 84}, {"time": 2739, "pitch": 65, "duration": 8, "velocity": 81}, {"time": 2739, "pitch": 69, "duration": 9, "velocity": 86}, {"time": 2745, "pitch": 50, "duration": 11, "velocity": 88}, {"time": 2748, "pitch": 57, "duration": 8, "velocity": 93}, {"time": 2751, "pitch": 60, "duration": 2, "velocity": 94}, {"time": 2754, "pitch": 60, "duration": 2, "velocity": 91}, {"time": 2754, "pitch": 65, "duration": 2, "velocity": 90}, {"time": 2757, "pitch": 50, "duration": 15, "velocity": 97}, {"time": 2757, "pitch": 60, "duration": 8, "velocity": 99}, {"time": 2757, "pitch": 65, "duration": 10, "velocity": 97}, {"time": 2769, "pitch": 62, "duration": 8, "velocity": 89}, {"time": 2769, "pitch": 65, "duration": 8, "velocity": 97}, {"time": 2769, "pitch": 69, "duration": 8, "velocity": 97}, {"time": 2775, "pitch": 57, "duration": 4, "velocity": 87}, {"time": 2778, "pitch": 62, "duration": 2, "velocity": 97}, {"time": 2778, "pitch": 65, "duration": 2, "velocity": 104}, {"time": 2778, "pitch": 69, "duration": 2, "velocity": 99}, {"time": 2781, "pitch": 50, "duration": 2, "velocity": 83}, {"time": 2787, "pitch": 39, "duration": 2, "velocity": 94}, {"time": 2787, "pitch": 63, "duration": 6, "velocity": 89}, {"time": 2787, "pitch": 67, "duration": 6, "velocity": 88}, {"time": 2787, "pitch": 70, "duration": 7, "velocity": 89}, {"time": 2793, "pitch": 51, "duration": 9, "velocity": 81}, {"time": 2796, "pitch": 58, "duration": 8, "velocity": 88}, {"time": 2799, "pitch": 63, "duration": 4, "velocity": 102}, {"time": 2802, "pitch": 67, "duration": 2, "velocity": 80}, {"time": 2805, "pitch": 51, "duration": 14, "velocity": 99}, {"time": 2805, "pitch": 58, "duration": 14, "velocity": 94}, {"time": 2805, "pitch": 63, "duration": 9, "velocity": 94}, {"time": 2805, "pitch": 67, "duration": 8, "velocity": 90}, {"time": 2805, "pitch": 70, "duration": 8, "velocity": 94}, {"time": 2817, "pitch": 63, "duration": 8, "velocity": 92}, {"time": 2817, "pitch": 67, "duration": 7, "velocity": 89}, {"time": 2817, "pitch": 70, "duration": 8, "velocity": 92}, {"time": 2817, "pitch": 75, "duration": 8, "velocity": 85}, {"time": 2823, "pitch": 58, "duration": 2, "velocity": 90}, {"time": 2826, "pitch": 63, "duration": 2, "velocity": 92}, {"time": 2826, "pitch": 67, "duration": 4, "velocity": 95}, {"time": 2826, "pitch": 70, "duration": 5, "velocity": 99}, {"time": 2826, "pitch": 75, "duration": 7, "velocity": 91}, {"time": 2832, "pitch": 63, "duration": 3, "velocity": 89}, {"time": 2832, "pitch": 67, "duration": 1, "velocity": 68}, {"time": 2835, "pitch": 43, "duration": 18, "velocity": 90}, {"time": 2835, "pitch": 62, "duration": 5, "velocity": 89}, {"time": 2835, "pitch": 67, "duration": 7, "velocity": 91}, {"time": 2835, "pitch": 72, "duration": 7, "velocity": 89}, {"time": 2841, "pitch": 50, "duration": 11, "velocity": 73}, {"time": 2844, "pitch": 62, "duration": 2, "velocity": 90}, {"time": 2847, "pitch": 62, "duration": 1, "velocity": 77}, {"time": 2847, "pitch": 67, "duration": 4, "velocity": 94}, {"time": 2847, "pitch": 72, "duration": 4, "velocity": 91}, {"time": 2850, "pitch": 62, "duration": 2, "velocity": 94}, {"time": 2853, "pitch": 43, "duration": 23, "velocity": 91}, {"time": 2853, "pitch": 62, "duration": 7, "velocity": 89}, {"time": 2853, "pitch": 67, "duration": 7, "velocity": 89}, {"time": 2853, "pitch": 71, "duration": 8, "velocity": 95}, {"time": 2859, "pitch": 50, "duration": 5, "velocity": 82}, {"time": 2862, "pitch": 62, "duration": 4, "velocity": 97}, {"time": 2862, "pitch": 67, "duration": 6, "velocity": 99}, {"time": 2862, "pitch": 71, "duration": 6, "velocity": 95}, {"time": 2865, "pitch": 50, "duration": 7, "velocity": 89}, {"time": 2868, "pitch": 62, "duration": 2, "velocity": 90}, {"time": 2871, "pitch": 62, "duration": 4, "velocity": 94}, {"time": 2871, "pitch": 67, "duration": 5, "velocity": 93}, {"time": 2874, "pitch": 50, "duration": 7, "velocity": 90}, {"time": 2877, "pitch": 62, "duration": 4, "velocity": 94}, {"time": 2880, "pitch": 67, "duration": 2, "velocity": 90}, {"time": 2883, "pitch": 36, "duration": 2, "velocity": 88}, {"time": 2883, "pitch": 60, "duration": 6, "velocity": 88}, {"time": 2883, "pitch": 63, "duration": 6, "velocity": 95}, {"time": 2883, "pitch": 67, "duration": 6, "velocity": 89}, {"time": 2886, "pitch": 48, "duration": 2, "velocity": 84}, {"time": 2889, "pitch": 48, "duration": 12, "velocity": 67}, {"time": 2889, "pitch": 55, "duration": 10, "velocity": 91}, {"time": 2892, "pitch": 60, "duration": 3, "velocity": 93}, {"time": 2895, "pitch": 62, "duration": 5, "velocity": 95}, {"time": 2898, "pitch": 63, "duration": 4, "velocity": 104}, {"time": 2901, "pitch": 67, "duration": 4, "velocity": 95}, {"time": 2904, "pitch": 60, "duration": 4, "velocity": 95}, {"time": 2907, "pitch": 46, "duration": 19, "velocity": 105}, {"time": 2910, "pitch": 53, "duration": 14, "velocity": 89}, {"time": 2913, "pitch": 58, "duration": 5, "velocity": 92}, {"time": 2916, "pitch": 62, "duration": 4, "velocity": 88}, {"time": 2919, "pitch": 70, "duration": 5, "velocity": 102}, {"time": 2922, "pitch": 62, "duration": 3, "velocity": 90}, {"time": 2925, "pitch": 58, "duration": 4, "velocity": 88}, {"time": 2928, "pitch": 62, "duration": 2, "velocity": 90}, {"time": 2931, "pitch": 44, "duration": 18, "velocity": 105}, {"time": 2934, "pitch": 51, "duration": 15, "velocity": 73}, {"time": 2937, "pitch": 56, "duration": 7, "velocity": 104}, {"time": 2940, "pitch": 60, "duration": 5, "velocity": 87}, {"time": 2943, "pitch": 63, "duration": 4, "velocity": 90}, {"time": 2946, "pitch": 68, "duration": 6, "velocity": 97}, {"time": 2949, "pitch": 63, "duration": 4, "velocity": 89}, {"time": 2952, "pitch": 56, "duration": 3, "velocity": 99}, {"time": 2952, "pitch": 68, "duration": 1, "velocity": 75}, {"time": 2955, "pitch": 38, "duration": 2, "velocity": 95}, {"time": 2958, "pitch": 50, "duration": 8, "velocity": 89}, {"time": 2961, "pitch": 54, "duration": 4, "velocity": 94}, {"time": 2964, "pitch": 57, "duration": 3, "velocity": 102}, {"time": 2967, "pitch": 60, "duration": 3, "velocity": 105}, {"time": 2970, "pitch": 66, "duration": 2, "velocity": 102}, {"time": 2973, "pitch": 62, "duration": 5, "velocity": 89}, {"time": 2976, "pitch": 66, "duration": 3, "velocity": 95}, {"time": 2979, "pitch": 38, "duration": 42, "velocity": 82}, {"time": 2979, "pitch": 62, "duration": 21, "velocity": 102}, {"time": 2979, "pitch": 69, "duration": 20, "velocity": 105}, {"time": 3003, "pitch": 62, "duration": 20, "velocity": 90}, {"time": 3003, "pitch": 69, "duration": 17, "velocity": 88}, {"time": 3003, "pitch": 74, "duration": 6, "velocity": 92}, {"time": 3003, "pitch": 86, "duration": 6, "velocity": 90}, {"time": 3015, "pitch": 74, "duration": 2, "velocity": 89}, {"time": 3015, "pitch": 81, "duration": 3, "velocity": 84}, {"time": 3018, "pitch": 78, "duration": 3, "velocity": 88}, {"time": 3021, "pitch": 74, "duration": 2, "velocity": 95}, {"time": 3027, "pitch": 38, "duration": 36, "velocity": 74}, {"time": 3027, "pitch": 62, "duration": 49, "velocity": 74}, {"time": 3027, "pitch": 69, "duration": 48, "velocity": 73}, {"time": 3027, "pitch": 74, "duration": 48, "velocity": 87}, {"time": 3027, "pitch": 78, "duration": 48, "velocity": 76}, {"time": 3075, "pitch": 43, "duration": 22, "velocity": 69}, {"time": 3079, "pitch": 50, "duration": 17, "velocity": 76}, {"time": 3082, "pitch": 57, "duration": 4, "velocity": 75}, {"time": 3085, "pitch": 58, "duration": 8, "velocity": 102}, {"time": 3099, "pitch": 55, "duration": 8, "velocity": 72}, {"time": 3099, "pitch": 43, "duration": 16, "velocity": 87}, {"time": 3099, "pitch": 58, "duration": 7, "velocity": 76}, {"time": 3099, "pitch": 62, "duration": 8, "velocity": 82}, {"time": 3105, "pitch": 50, "duration": 9, "velocity": 57}, {"time": 3112, "pitch": 67, "duration": 5, "velocity": 90}, {"time": 3123, "pitch": 48, "duration": 39, "velocity": 88}, {"time": 3129, "pitch": 62, "duration": 6, "velocity": 89}, {"time": 3135, "pitch": 63, "duration": 2, "velocity": 93}, {"time": 3141, "pitch": 55, "duration": 19, "velocity": 65}, {"time": 3145, "pitch": 60, "duration": 2, "velocity": 76}, {"time": 3147, "pitch": 63, "duration": 1, "velocity": 69}, {"time": 3147, "pitch": 72, "duration": 2, "velocity": 90}, {"time": 3153, "pitch": 60, "duration": 4, "velocity": 79}, {"time": 3159, "pitch": 63, "duration": 3, "velocity": 91}, {"time": 3159, "pitch": 67, "duration": 5, "velocity": 88}, {"time": 3171, "pitch": 69, "duration": 13, "velocity": 88}, {"time": 3171, "pitch": 41, "duration": 1, "velocity": 88}, {"time": 3171, "pitch": 60, "duration": 5, "velocity": 88}, {"time": 3177, "pitch": 53, "duration": 32, "velocity": 77}, {"time": 3183, "pitch": 60, "duration": 26, "velocity": 85}, {"time": 3186, "pitch": 65, "duration": 2, "velocity": 83}, {"time": 3189, "pitch": 67, "duration": 2, "velocity": 89}, {"time": 3195, "pitch": 69, "duration": 11, "velocity": 92}, {"time": 3195, "pitch": 65, "duration": 10, "velocity": 89}, {"time": 3207, "pitch": 69, "duration": 4, "velocity": 88}, {"time": 3207, "pitch": 65, "duration": 4, "velocity": 90}, {"time": 3219, "pitch": 46, "duration": 41, "velocity": 80}, {"time": 3219, "pitch": 62, "duration": 16, "velocity": 83}, {"time": 3219, "pitch": 58, "duration": 14, "velocity": 74}, {"time": 3232, "pitch": 53, "duration": 28, "velocity": 84}, {"time": 3235, "pitch": 58, "duration": 7, "velocity": 88}, {"time": 3238, "pitch": 62, "duration": 4, "velocity": 86}, {"time": 3244, "pitch": 62, "duration": 16, "velocity": 76}, {"time": 3244, "pitch": 65, "duration": 15, "velocity": 75}, {"time": 3244, "pitch": 58, "duration": 14, "velocity": 76}, {"time": 3261, "pitch": 58, "duration": 2, "velocity": 94}, {"time": 3267, "pitch": 45, "duration": 14, "velocity": 89}, {"time": 3267, "pitch": 57, "duration": 3, "velocity": 83}, {"time": 3267, "pitch": 60, "duration": 13, "velocity": 84}, {"time": 3290, "pitch": 60, "duration": 5, "velocity": 89}, {"time": 3291, "pitch": 66, "duration": 6, "velocity": 86}, {"time": 3291, "pitch": 50, "duration": 13, "velocity": 93}, {"time": 3296, "pitch": 57, "duration": 7, "velocity": 79}, {"time": 3299, "pitch": 62, "duration": 6, "velocity": 89}, {"time": 3303, "pitch": 66, "duration": 3, "velocity": 97}, {"time": 3306, "pitch": 69, "duration": 2, "velocity": 90}, {"time": 3314, "pitch": 70, "duration": 7, "velocity": 86}, {"time": 3314, "pitch": 62, "duration": 4, "velocity": 88}, {"time": 3314, "pitch": 43, "duration": 16, "velocity": 89}, {"time": 3317, "pitch": 50, "duration": 13, "velocity": 83}, {"time": 3321, "pitch": 62, "duration": 4, "velocity": 89}, {"time": 3324, "pitch": 70, "duration": 7, "velocity": 95}, {"time": 3333, "pitch": 69, "duration": 6, "velocity": 94}, {"time": 3339, "pitch": 39, "duration": 12, "velocity": 93}, {"time": 3339, "pitch": 67, "duration": 6, "velocity": 84}, {"time": 3345, "pitch": 46, "duration": 6, "velocity": 84}, {"time": 3351, "pitch": 70, "duration": 3, "velocity": 90}, {"time": 3351, "pitch": 63, "duration": 2, "velocity": 88}, {"time": 3351, "pitch": 67, "duration": 2, "velocity": 88}, {"time": 3361, "pitch": 60, "duration": 3, "velocity": 74}, {"time": 3362, "pitch": 63, "duration": 8, "velocity": 81}, {"time": 3363, "pitch": 67, "duration": 16, "velocity": 83}, {"time": 3363, "pitch": 36, "duration": 2, "velocity": 88}, {"time": 3369, "pitch": 48, "duration": 34, "velocity": 88}, {"time": 3375, "pitch": 55, "duration": 15, "velocity": 83}, {"time": 3381, "pitch": 62, "duration": 4, "velocity": 92}, {"time": 3387, "pitch": 63, "duration": 7, "velocity": 94}, {"time": 3387, "pitch": 60, "duration": 9, "velocity": 88}, {"time": 3393, "pitch": 55, "duration": 9, "velocity": 86}, {"time": 3399, "pitch": 67, "duration": 11, "velocity": 92}, {"time": 3399, "pitch": 63, "duration": 11, "velocity": 114}, {"time": 3399, "pitch": 60, "duration": 11, "velocity": 97}, {"time": 3405, "pitch": 48, "duration": 1, "velocity": 53}, {"time": 3405, "pitch": 55, "duration": 5, "velocity": 91}, {"time": 3411, "pitch": 38, "duration": 20, "velocity": 94}, {"time": 3411, "pitch": 57, "duration": 4, "velocity": 94}, {"time": 3411, "pitch": 62, "duration": 7, "velocity": 93}, {"time": 3417, "pitch": 57, "duration": 4, "velocity": 88}, {"time": 3423, "pitch": 57, "duration": 2, "velocity": 99}, {"time": 3423, "pitch": 62, "duration": 2, "velocity": 95}, {"time": 3423, "pitch": 66, "duration": 3, "velocity": 90}, {"time": 3432, "pitch": 62, "duration": 2, "velocity": 90}, {"time": 3432, "pitch": 66, "duration": 1, "velocity": 89}, {"time": 3432, "pitch": 69, "duration": 2, "velocity": 88}, {"time": 3435, "pitch": 38, "duration": 24, "velocity": 93}, {"time": 3435, "pitch": 62, "duration": 8, "velocity": 89}, {"time": 3435, "pitch": 66, "duration": 7, "velocity": 88}, {"time": 3435, "pitch": 69, "duration": 8, "velocity": 90}, {"time": 3441, "pitch": 45, "duration": 8, "velocity": 82}, {"time": 3444, "pitch": 62, "duration": 2, "velocity": 92}, {"time": 3444, "pitch": 66, "duration": 2, "velocity": 91}, {"time": 3444, "pitch": 74, "duration": 2, "velocity": 85}, {"time": 3447, "pitch": 62, "duration": 4, "velocity": 102}, {"time": 3447, "pitch": 66, "duration": 4, "velocity": 102}, {"time": 3447, "pitch": 74, "duration": 3, "velocity": 102}, {"time": 3450, "pitch": 45, "duration": 9, "velocity": 87}, {"time": 3453, "pitch": 62, "duration": 5, "velocity": 89}, {"time": 3453, "pitch": 66, "duration": 6, "velocity": 92}, {"time": 3453, "pitch": 72, "duration": 6, "velocity": 94}, {"time": 3459, "pitch": 43, "duration": 40, "velocity": 89}, {"time": 3459, "pitch": 62, "duration": 5, "velocity": 90}, {"time": 3459, "pitch": 70, "duration": 8, "velocity": 89}, {"time": 3465, "pitch": 50, "duration": 33, "velocity": 80}, {"time": 3471, "pitch": 62, "duration": 3, "velocity": 85}, {"time": 3471, "pitch": 67, "duration": 4, "velocity": 85}, {"time": 3477, "pitch": 62, "duration": 4, "velocity": 87}, {"time": 3483, "pitch": 62, "duration": 4, "velocity": 91}, {"time": 3483, "pitch": 67, "duration": 7, "velocity": 97}, {"time": 3483, "pitch": 70, "duration": 11, "velocity": 94}, {"time": 3489, "pitch": 62, "duration": 5, "velocity": 80}, {"time": 3495, "pitch": 62, "duration": 3, "velocity": 99}, {"time": 3495, "pitch": 67, "duration": 3, "velocity": 95}, {"time": 3507, "pitch": 36, "duration": 2, "velocity": 86}, {"time": 3507, "pitch": 63, "duration": 10, "velocity": 89}, {"time": 3507, "pitch": 67, "duration": 10, "velocity": 86}, {"time": 3513, "pitch": 48, "duration": 34, "velocity": 87}, {"time": 3519, "pitch": 60, "duration": 7, "velocity": 88}, {"time": 3519, "pitch": 63, "duration": 7, "velocity": 91}, {"time": 3525, "pitch": 55, "duration": 21, "velocity": 80}, {"time": 3531, "pitch": 60, "duration": 1, "velocity": 77}, {"time": 3531, "pitch": 63, "duration": 7, "velocity": 92}, {"time": 3531, "pitch": 67, "duration": 7, "velocity": 91}, {"time": 3531, "pitch": 72, "duration": 6, "velocity": 90}, {"time": 3537, "pitch": 60, "duration": 5, "velocity": 86}, {"time": 3543, "pitch": 63, "duration": 2, "velocity": 91}, {"time": 3543, "pitch": 67, "duration": 2, "velocity": 91}, {"time": 3549, "pitch": 70, "duration": 6, "velocity": 89}, {"time": 3555, "pitch": 41, "duration": 2, "velocity": 89}, {"time": 3555, "pitch": 65, "duration": 11, "velocity": 85}, {"time": 3555, "pitch": 69, "duration": 11, "velocity": 89}, {"time": 3561, "pitch": 53, "duration": 17, "velocity": 87}, {"time": 3567, "pitch": 60, "duration": 12, "velocity": 94}, {"time": 3573, "pitch": 65, "duration": 5, "velocity": 92}, {"time": 3579, "pitch": 53, "duration": 12, "velocity": 90}, {"time": 3579, "pitch": 65, "duration": 9, "velocity": 94}, {"time": 3579, "pitch": 72, "duration": 11, "velocity": 88}, {"time": 3585, "pitch": 60, "duration": 6, "velocity": 79}, {"time": 3591, "pitch": 65, "duration": 3, "velocity": 88}, {"time": 3591, "pitch": 69, "duration": 5, "velocity": 93}, {"time": 3603, "pitch": 46, "duration": 38, "velocity": 92}, {"time": 3603, "pitch": 65, "duration": 5, "velocity": 86}, {"time": 3603, "pitch": 74, "duration": 7, "velocity": 90}, {"time": 3609, "pitch": 53, "duration": 10, "velocity": 83}, {"time": 3615, "pitch": 65, "duration": 4, "velocity": 88}, {"time": 3615, "pitch": 70, "duration": 7, "velocity": 95}, {"time": 3621, "pitch": 53, "duration": 20, "velocity": 87}, {"time": 3627, "pitch": 65, "duration": 3, "velocity": 89}, {"time": 3627, "pitch": 70, "duration": 7, "velocity": 99}, {"time": 3627, "pitch": 74, "duration": 8, "velocity": 99}, {"time": 3633, "pitch": 65, "duration": 3, "velocity": 83}, {"time": 3639, "pitch": 65, "duration": 4, "velocity": 92}, {"time": 3639, "pitch": 72, "duration": 7, "velocity": 93}, {"time": 3645, "pitch": 70, "duration": 2, "velocity": 95}, {"time": 3651, "pitch": 45, "duration": 15, "velocity": 89}, {"time": 3651, "pitch": 69, "duration": 9, "velocity": 89}, {"time": 3651, "pitch": 72, "duration": 8, "velocity": 89}, {"time": 3657, "pitch": 51, "duration": 9, "velocity": 69}, {"time": 3663, "pitch": 69, "duration": 6, "velocity": 89}, {"time": 3663, "pitch": 72, "duration": 11, "velocity": 90}, {"time": 3669, "pitch": 45, "duration": 3, "velocity": 88}, {"time": 3675, "pitch": 38, "duration": 2, "velocity": 92}, {"time": 3675, "pitch": 69, "duration": 4, "velocity": 86}, {"time": 3675, "pitch": 74, "duration": 7, "velocity": 91}, {"time": 3681, "pitch": 50, "duration": 8, "velocity": 88}, {"time": 3687, "pitch": 62, "duration": 7, "velocity": 92}, {"time": 3687, "pitch": 66, "duration": 5, "velocity": 90}, {"time": 3693, "pitch": 50, "duration": 2, "velocity": 90}, {"time": 3699, "pitch": 43, "duration": 16, "velocity": 83}, {"time": 3699, "pitch": 62, "duration": 4, "velocity": 89}, {"time": 3699, "pitch": 70, "duration": 8, "velocity": 88}, {"time": 3705, "pitch": 62, "duration": 5, "velocity": 83}, {"time": 3711, "pitch": 65, "duration": 8, "velocity": 83}, {"time": 3711, "pitch": 69, "duration": 13, "velocity": 95}, {"time": 3723, "pitch": 40, "duration": 14, "velocity": 91}, {"time": 3723, "pitch": 64, "duration": 9, "velocity": 88}, {"time": 3723, "pitch": 67, "duration": 10, "velocity": 82}, {"time": 3723, "pitch": 70, "duration": 10, "velocity": 81}, {"time": 3723, "pitch": 74, "duration": 9, "velocity": 92}, {"time": 3735, "pitch": 67, "duration": 3, "velocity": 83}, {"time": 3735, "pitch": 70, "duration": 3, "velocity": 76}, {"time": 3735, "pitch": 74, "duration": 3, "velocity": 89}, {"time": 3747, "pitch": 48, "duration": 16, "velocity": 90}, {"time": 3747, "pitch": 63, "duration": 8, "velocity": 82}, {"time": 3747, "pitch": 67, "duration": 10, "velocity": 83}, {"time": 3753, "pitch": 55, "duration": 9, "velocity": 80}, {"time": 3759, "pitch": 60, "duration": 5, "velocity": 89}, {"time": 3759, "pitch": 63, "duration": 6, "velocity": 104}, {"time": 3759, "pitch": 67, "duration": 6, "velocity": 92}, {"time": 3771, "pitch": 62, "duration": 9, "velocity": 91}, {"time": 3771, "pitch": 74, "duration": 9, "velocity": 93}, {"time": 3771, "pitch": 38, "duration": 2, "velocity": 97}, {"time": 3777, "pitch": 50, "duration": 12, "velocity": 89}, {"time": 3780, "pitch": 57, "duration": 8, "velocity": 92}, {"time": 3782, "pitch": 62, "duration": 7, "velocity": 99}, {"time": 3785, "pitch": 66, "duration": 4, "velocity": 97}, {"time": 3788, "pitch": 69, "duration": 3, "velocity": 90}, {"time": 3791, "pitch": 74, "duration": 2, "velocity": 99}, {"time": 3801, "pitch": 67, "duration": 2, "velocity": 82}, {"time": 3801, "pitch": 60, "duration": 2, "velocity": 81}, {"time": 3801, "pitch": 63, "duration": 2, "velocity": 79}, {"time": 3801, "pitch": 55, "duration": 10, "velocity": 88}, {"time": 3801, "pitch": 48, "duration": 14, "velocity": 89}, {"time": 3804, "pitch": 63, "duration": 4, "velocity": 93}, {"time": 3804, "pitch": 67, "duration": 4, "velocity": 91}, {"time": 3804, "pitch": 60, "duration": 4, "velocity": 91}, {"time": 3810, "pitch": 72, "duration": 5, "velocity": 90}, {"time": 3810, "pitch": 60, "duration": 6, "velocity": 104}, {"time": 3810, "pitch": 67, "duration": 6, "velocity": 95}, {"time": 3810, "pitch": 63, "duration": 6, "velocity": 105}, {"time": 3819, "pitch": 48, "duration": 11, "velocity": 94}, {"time": 3819, "pitch": 55, "duration": 5, "velocity": 86}, {"time": 3819, "pitch": 63, "duration": 8, "velocity": 93}, {"time": 3819, "pitch": 60, "duration": 8, "velocity": 91}, {"time": 3819, "pitch": 67, "duration": 8, "velocity": 91}, {"time": 3825, "pitch": 51, "duration": 3, "velocity": 65}, {"time": 3828, "pitch": 67, "duration": 4, "velocity": 97}, {"time": 3828, "pitch": 60, "duration": 4, "velocity": 94}, {"time": 3828, "pitch": 63, "duration": 4, "velocity": 104}, {"time": 3828, "pitch": 72, "duration": 4, "velocity": 92}, {"time": 3831, "pitch": 55, "duration": 2, "velocity": 77}, {"time": 3834, "pitch": 48, "duration": 2, "velocity": 89}, {"time": 3838, "pitch": 48, "duration": 1, "velocity": 90}, {"time": 3841, "pitch": 63, "duration": 19, "velocity": 84}, {"time": 3842, "pitch": 67, "duration": 20, "velocity": 87}, {"time": 3843, "pitch": 70, "duration": 24, "velocity": 84}, {"time": 3843, "pitch": 39, "duration": 5, "velocity": 93}, {"time": 3844, "pitch": 75, "duration": 22, "velocity": 84}, {"time": 3856, "pitch": 51, "duration": 4, "velocity": 99}, {"time": 3859, "pitch": 58, "duration": 3, "velocity": 67}, {"time": 3862, "pitch": 63, "duration": 8, "velocity": 88}, {"time": 3866, "pitch": 67, "duration": 5, "velocity": 78}, {"time": 3877, "pitch": 50, "duration": 43, "velocity": 85}, {"time": 3879, "pitch": 54, "duration": 6, "velocity": 79}, {"time": 3882, "pitch": 57, "duration": 38, "velocity": 85}, {"time": 3883, "pitch": 60, "duration": 5, "velocity": 73}, {"time": 3886, "pitch": 66, "duration": 5, "velocity": 88}, {"time": 3890, "pitch": 69, "duration": 55, "velocity": 78}, {"time": 3892, "pitch": 74, "duration": 53, "velocity": 89}, {"time": 3896, "pitch": 62, "duration": 48, "velocity": 84}, {"time": 3898, "pitch": 66, "duration": 46, "velocity": 36}, {"time": 3935, "pitch": 43, "duration": 11, "velocity": 87}, {"time": 3937, "pitch": 50, "duration": 9, "velocity": 88}, {"time": 3939, "pitch": 55, "duration": 5, "velocity": 88}, {"time": 3940, "pitch": 58, "duration": 4, "velocity": 79}, {"time": 3941, "pitch": 62, "duration": 3, "velocity": 86}, {"time": 3942, "pitch": 67, "duration": 4, "velocity": 79}, {"time": 3968, "pitch": 81, "duration": 1, "velocity": 71}, {"time": 3969, "pitch": 79, "duration": 2, "velocity": 74}, {"time": 3972, "pitch": 81, "duration": 2, "velocity": 92}, {"time": 3976, "pitch": 82, "duration": 1, "velocity": 102}, {"time": 3981, "pitch": 86, "duration": 1, "velocity": 91}, {"time": 3986, "pitch": 84, "duration": 2, "velocity": 85}, {"time": 3992, "pitch": 81, "duration": 3, "velocity": 80}, {"time": 4007, "pitch": 77, "duration": 3, "velocity": 72}, {"time": 4011, "pitch": 72, "duration": 2, "velocity": 75}, {"time": 4014, "pitch": 74, "duration": 2, "velocity": 90}, {"time": 4017, "pitch": 69, "duration": 3, "velocity": 83}, {"time": 4021, "pitch": 72, "duration": 3, "velocity": 56}, {"time": 4025, "pitch": 67, "duration": 5, "velocity": 63}, {"time": 4031, "pitch": 69, "duration": 4, "velocity": 72}], "annotations": [{"time": 47, "annotation": {"number": 64, "value": 127}, "group": "control_change"}, {"time": 91, "annotation": {"number": 64, "value": 0}, "group": "control_change"}, {"time": 94, "annotation": {"number": 64, "value": 127}, "group": "control_change"}, {"time": 135, "annotation": {"number": 64, "value": 127}, "group": "control_change"}, {"time": 158, "annotation": {"number": 64, "value": 0}, "group": "control_change"}, {"time": 161, "annotation": {"number": 64, "value": 127}, "group": "control_change"}, {"time": 183, "annotation": {"number": 64, "value": 127}, "group": "control_change"}, {"time": 204, "annotation": {"number": 64, "value": 0}, "group": "control_change"}, {"time": 207, "annotation": {"number": 64, "value": 127}, "group": "control_change"}, {"time": 277, "annotation": {"number": 64, "value": 0}, "group": "control_change"}, {"time": 282, "annotation": {"number": 64, "value": 127}, "group": "control_change"}, {"time": 329, "annotation": {"number": 64, "value": 0}, "group": "control_change"}, {"time": 330, "annotation": {"number": 64, "value": 127}, "group": "control_change"}, {"time": 374, "annotation": {"number": 64, "value": 0}, "group": "control_change"}, {"time": 376, "annotation": {"number": 64, "value": 127}, "group": "control_change"}, {"time": 400, "annotation": {"number": 64, "value": 0}, "group": "control_change"}, {"time": 405, "annotation": {"number": 64, "value": 127}, "group": "control_change"}, {"time": 423, "annotation": {"number": 64, "value": 0}, "group": "control_change"}, {"time": 429, "annotation": {"number": 64, "value": 127}, "group": "control_change"}, {"time": 447, "annotation": {"number": 64, "value": 0}, "group": "control_change"}, {"time": 450, "annotation": {"number": 64, "value": 127}, "group": "control_change"}, {"time": 470, "annotation": {"number": 64, "value": 0}, "group": "control_change"}, {"time": 474, "annotation": {"number": 64, "value": 127}, "group": "control_change"}, {"time": 519, "annotation": {"number": 64, "value": 0}, "group": "control_change"}, {"time": 521, "annotation": {"number": 64, "value": 127}, "group": "control_change"}, {"time": 567, "annotation": {"number": 64, "value": 0}, "group": "control_change"}, {"time": 573, "annotation": {"number": 64, "value": 127}, "group": "control_change"}, {"time": 591, "annotation": {"number": 64, "value": 0}, "group": "control_change"}, {"time": 592, "annotation": {"number": 64, "value": 127}, "group": "control_change"}, {"time": 615, "annotation": {"number": 64, "value": 0}, "group": "control_change"}, {"time": 619, "annotation": {"number": 64, "value": 127}, "group": "control_change"}, {"time": 638, "annotation": {"number": 64, "value": 0}, "group": "control_change"}, {"time": 640, "annotation": {"number": 64, "value": 127}, "group": "control_change"}, {"time": 662, "annotation": {"number": 64, "value": 0}, "group": "control_change"}, {"time": 664, "annotation": {"number": 64, "value": 127}, "group": "control_change"}, {"time": 710, "annotation": {"number": 64, "value": 0}, "group": "control_change"}, {"time": 712, "annotation": {"number": 64, "value": 127}, "group": "control_change"}, {"time": 758, "annotation": {"number": 64, "value": 0}, "group": "control_change"}, {"time": 760, "annotation": {"number": 64, "value": 127}, "group": "control_change"}, {"time": 806, "annotation": {"number": 64, "value": 0}, "group": "control_change"}, {"time": 809, "annotation": {"number": 64, "value": 127}, "group": "control_change"}, {"time": 855, "annotation": {"number": 64, "value": 0}, "group": "control_change"}, {"time": 857, "annotation": {"number": 64, "value": 127}, "group": "control_change"}, {"time": 878, "annotation": {"number": 64, "value": 0}, "group": "control_change"}, {"time": 879, "annotation": {"number": 64, "value": 127}, "group": "control_change"}, {"time": 902, "annotation": {"number": 64, "value": 0}, "group": "control_change"}, {"time": 904, "annotation": {"number": 64, "value": 127}, "group": "control_change"}, {"time": 914, "annotation": {"number": 64, "value": 0}, "group": "control_change"}, {"time": 915, "annotation": {"number": 64, "value": 127}, "group": "control_change"}, {"time": 921, "annotation": {"number": 64, "value": 127}, "group": "control_change"}, {"time": 927, "annotation": {"number": 64, "value": 0}, "group": "control_change"}, {"time": 933, "annotation": {"number": 64, "value": 127}, "group": "control_change"}, {"time": 955, "annotation": {"number": 64, "value": 0}, "group": "control_change"}, {"time": 959, "annotation": {"number": 64, "value": 127}, "group": "control_change"}, {"time": 998, "annotation": {"number": 64, "value": 0}, "group": "control_change"}, {"time": 1000, "annotation": {"number": 64, "value": 127}, "group": "control_change"}, {"time": 1023, "annotation": {"number": 64, "value": 0}, "group": "control_change"}, {"time": 1024, "annotation": {"number": 64, "value": 127}, "group": "control_change"}, {"time": 1044, "annotation": {"number": 64, "value": 0}, "group": "control_change"}, {"time": 1048, "annotation": {"number": 64, "value": 127}, "group": "control_change"}, {"time": 1094, "annotation": {"number": 64, "value": 0}, "group": "control_change"}, {"time": 1096, "annotation": {"number": 64, "value": 127}, "group": "control_change"}, {"time": 1142, "annotation": {"number": 64, "value": 0}, "group": "control_change"}, {"time": 1144, "annotation": {"number": 64, "value": 127}, "group": "control_change"}, {"time": 1190, "annotation": {"number": 64, "value": 0}, "group": "control_change"}, {"time": 1193, "annotation": {"number": 64, "value": 127}, "group": "control_change"}, {"time": 1239, "annotation": {"number": 64, "value": 0}, "group": "control_change"}, {"time": 1241, "annotation": {"number": 64, "value": 127}, "group": "control_change"}, {"time": 1262, "annotation": {"number": 64, "value": 0}, "group": "control_change"}, {"time": 1263, "annotation": {"number": 64, "value": 127}, "group": "control_change"}, {"time": 1286, "annotation": {"number": 64, "value": 0}, "group": "control_change"}, {"time": 1288, "annotation": {"number": 64, "value": 127}, "group": "control_change"}, {"time": 1298, "annotation": {"number": 64, "value": 0}, "group": "control_change"}, {"time": 1299, "annotation": {"number": 64, "value": 127}, "group": "control_change"}, {"time": 1305, "annotation": {"number": 64, "value": 127}, "group": "control_change"}, {"time": 1311, "annotation": {"number": 64, "value": 0}, "group": "control_change"}, {"time": 1317, "annotation": {"number": 64, "value": 127}, "group": "control_change"}, {"time": 1336, "annotation": {"number": 64, "value": 127}, "group": "control_change"}, {"time": 1360, "annotation": {"number": 64, "value": 0}, "group": "control_change"}, {"time": 1364, "annotation": {"number": 64, "value": 127}, "group": "control_change"}, {"time": 1381, "annotation": {"number": 64, "value": 0}, "group": "control_change"}, {"time": 1391, "annotation": {"number": 64, "value": 127}, "group": "control_change"}, {"time": 1435, "annotation": {"number": 64, "value": 0}, "group": "control_change"}, {"time": 1438, "annotation": {"number": 64, "value": 127}, "group": "control_change"}, {"time": 1479, "annotation": {"number": 64, "value": 127}, "group": "control_change"}, {"time": 1502, "annotation": {"number": 64, "value": 0}, "group": "control_change"}, {"time": 1505, "annotation": {"number": 64, "value": 127}, "group": "control_change"}, {"time": 1578, "annotation": {"number": 64, "value": 127}, "group": "control_change"}, {"time": 1625, "annotation": {"number": 64, "value": 0}, "group": "control_change"}, {"time": 1626, "annotation": {"number": 64, "value": 127}, "group": "control_change"}, {"time": 1670, "annotation": {"number": 64, "value": 0}, "group": "control_change"}, {"time": 1672, "annotation": {"number": 64, "value": 127}, "group": "control_change"}, {"time": 1696, "annotation": {"number": 64, "value": 0}, "group": "control_change"}, {"time": 1701, "annotation": {"number": 64, "value": 127}, "group": "control_change"}, {"time": 1719, "annotation": {"number": 64, "value": 0}, "group": "control_change"}, {"time": 1725, "annotation": {"number": 64, "value": 127}, "group": "control_change"}, {"time": 1743, "annotation": {"number": 64, "value": 0}, "group": "control_change"}, {"time": 1746, "annotation": {"number": 64, "value": 127}, "group": "control_change"}, {"time": 1766, "annotation": {"number": 64, "value": 0}, "group": "control_change"}, {"time": 1770, "annotation": {"number": 64, "value": 127}, "group": "control_change"}, {"time": 1815, "annotation": {"number": 64, "value": 0}, "group": "control_change"}, {"time": 1817, "annotation": {"number": 64, "value": 127}, "group": "control_change"}, {"time": 1863, "annotation": {"number": 64, "value": 0}, "group": "control_change"}, {"time": 1869, "annotation": {"number": 64, "value": 127}, "group": "control_change"}, {"time": 1887, "annotation": {"number": 64, "value": 0}, "group": "control_change"}, {"time": 1888, "annotation": {"number": 64, "value": 127}, "group": "control_change"}, {"time": 1911, "annotation": {"number": 64, "value": 0}, "group": "control_change"}, {"time": 1915, "annotation": {"number": 64, "value": 127}, "group": "control_change"}, {"time": 1934, "annotation": {"number": 64, "value": 0}, "group": "control_change"}, {"time": 1936, "annotation": {"number": 64, "value": 127}, "group": "control_change"}, {"time": 1958, "annotation": {"number": 64, "value": 0}, "group": "control_change"}, {"time": 2004, "annotation": {"number": 64, "value": 0}, "group": "control_change"}, {"time": 2006, "annotation": {"number": 64, "value": 127}, "group": "control_change"}, {"time": 2053, "annotation": {"number": 64, "value": 0}, "group": "control_change"}, {"time": 2055, "annotation": {"number": 64, "value": 127}, "group": "control_change"}, {"time": 2102, "annotation": {"number": 64, "value": 0}, "group": "control_change"}, {"time": 2103, "annotation": {"number": 64, "value": 127}, "group": "control_change"}, {"time": 2149, "annotation": {"number": 64, "value": 0}, "group": "control_change"}, {"time": 2151, "annotation": {"number": 64, "value": 127}, "group": "control_change"}, {"time": 2173, "annotation": {"number": 64, "value": 0}, "group": "control_change"}, {"time": 2174, "annotation": {"number": 64, "value": 127}, "group": "control_change"}, {"time": 2197, "annotation": {"number": 64, "value": 0}, "group": "control_change"}, {"time": 2198, "annotation": {"number": 64, "value": 127}, "group": "control_change"}, {"time": 2222, "annotation": {"number": 64, "value": 0}, "group": "control_change"}, {"time": 2223, "annotation": {"number": 64, "value": 127}, "group": "control_change"}, {"time": 2247, "annotation": {"number": 64, "value": 0}, "group": "control_change"}, {"time": 2248, "annotation": {"number": 64, "value": 127}, "group": "control_change"}, {"time": 2295, "annotation": {"number": 64, "value": 0}, "group": "control_change"}, {"time": 2296, "annotation": {"number": 64, "value": 127}, "group": "control_change"}, {"time": 2319, "annotation": {"number": 64, "value": 0}, "group": "control_change"}, {"time": 2319, "annotation": {"number": 64, "value": 127}, "group": "control_change"}, {"time": 2343, "annotation": {"number": 64, "value": 0}, "group": "control_change"}, {"time": 2388, "annotation": {"number": 64, "value": 0}, "group": "control_change"}, {"time": 2390, "annotation": {"number": 64, "value": 127}, "group": "control_change"}, {"time": 2437, "annotation": {"number": 64, "value": 0}, "group": "control_change"}, {"time": 2439, "annotation": {"number": 64, "value": 127}, "group": "control_change"}, {"time": 2486, "annotation": {"number": 64, "value": 0}, "group": "control_change"}, {"time": 2487, "annotation": {"number": 64, "value": 127}, "group": "control_change"}, {"time": 2533, "annotation": {"number": 64, "value": 0}, "group": "control_change"}, {"time": 2535, "annotation": {"number": 64, "value": 127}, "group": "control_change"}, {"time": 2557, "annotation": {"number": 64, "value": 0}, "group": "control_change"}, {"time": 2558, "annotation": {"number": 64, "value": 127}, "group": "control_change"}, {"time": 2581, "annotation": {"number": 64, "value": 0}, "group": "control_change"}, {"time": 2582, "annotation": {"number": 64, "value": 127}, "group": "control_change"}, {"time": 2606, "annotation": {"number": 64, "value": 0}, "group": "control_change"}, {"time": 2606, "annotation": {"number": 64, "value": 127}, "group": "control_change"}, {"time": 2607, "annotation": {"number": 64, "value": 127}, "group": "control_change"}, {"time": 2631, "annotation": {"number": 64, "value": 0}, "group": "control_change"}, {"time": 2637, "annotation": {"number": 64, "value": 127}, "group": "control_change"}, {"time": 2653, "annotation": {"number": 64, "value": 0}, "group": "control_change"}, {"time": 2655, "annotation": {"number": 64, "value": 127}, "group": "control_change"}, {"time": 2676, "annotation": {"number": 64, "value": 0}, "group": "control_change"}, {"time": 2708, "annotation": {"number": 64, "value": 0}, "group": "control_change"}, {"time": 2709, "annotation": {"number": 64, "value": 127}, "group": "control_change"}, {"time": 2738, "annotation": {"number": 64, "value": 0}, "group": "control_change"}, {"time": 2739, "annotation": {"number": 64, "value": 127}, "group": "control_change"}, {"time": 2756, "annotation": {"number": 64, "value": 0}, "group": "control_change"}, {"time": 2758, "annotation": {"number": 64, "value": 127}, "group": "control_change"}, {"time": 2785, "annotation": {"number": 64, "value": 0}, "group": "control_change"}, {"time": 2787, "annotation": {"number": 64, "value": 127}, "group": "control_change"}, {"time": 2805, "annotation": {"number": 64, "value": 0}, "group": "control_change"}, {"time": 2807, "annotation": {"number": 64, "value": 127}, "group": "control_change"}, {"time": 2835, "annotation": {"number": 64, "value": 0}, "group": "control_change"}, {"time": 2836, "annotation": {"number": 64, "value": 127}, "group": "control_change"}, {"time": 2853, "annotation": {"number": 64, "value": 0}, "group": "control_change"}, {"time": 2855, "annotation": {"number": 64, "value": 127}, "group": "control_change"}, {"time": 2879, "annotation": {"number": 64, "value": 0}, "group": "control_change"}, {"time": 2882, "annotation": {"number": 64, "value": 127}, "group": "control_change"}, {"time": 2907, "annotation": {"number": 64, "value": 0}, "group": "control_change"}, {"time": 2909, "annotation": {"number": 64, "value": 127}, "group": "control_change"}, {"time": 2930, "annotation": {"number": 64, "value": 0}, "group": "control_change"}, {"time": 2932, "annotation": {"number": 64, "value": 127}, "group": "control_change"}, {"time": 2953, "annotation": {"number": 64, "value": 0}, "group": "control_change"}, {"time": 2955, "annotation": {"number": 64, "value": 127}, "group": "control_change"}, {"time": 2978, "annotation": {"number": 64, "value": 0}, "group": "control_change"}, {"time": 2980, "annotation": {"number": 64, "value": 127}, "group": "control_change"}, {"time": 3029, "annotation": {"number": 64, "value": 0}, "group": "control_change"}, {"time": 3075, "annotation": {"number": 64, "value": 127}, "group": "control_change"}, {"time": 3123, "annotation": {"number": 64, "value": 0}, "group": "control_change"}, {"time": 3125, "annotation": {"number": 64, "value": 127}, "group": "control_change"}, {"time": 3170, "annotation": {"number": 64, "value": 0}, "group": "control_change"}, {"time": 3172, "annotation": {"number": 64, "value": 127}, "group": "control_change"}, {"time": 3266, "annotation": {"number": 64, "value": 0}, "group": "control_change"}, {"time": 3268, "annotation": {"number": 64, "value": 127}, "group": "control_change"}, {"time": 3289, "annotation": {"number": 64, "value": 0}, "group": "control_change"}, {"time": 3291, "annotation": {"number": 64, "value": 127}, "group": "control_change"}, {"time": 3314, "annotation": {"number": 64, "value": 0}, "group": "control_change"}, {"time": 3315, "annotation": {"number": 64, "value": 127}, "group": "control_change"}, {"time": 3338, "annotation": {"number": 64, "value": 0}, "group": "control_change"}, {"time": 3339, "annotation": {"number": 64, "value": 127}, "group": "control_change"}, {"time": 3362, "annotation": {"number": 64, "value": 0}, "group": "control_change"}, {"time": 3363, "annotation": {"number": 64, "value": 127}, "group": "control_change"}, {"time": 3409, "annotation": {"number": 64, "value": 0}, "group": "control_change"}, {"time": 3412, "annotation": {"number": 64, "value": 127}, "group": "control_change"}, {"time": 3435, "annotation": {"number": 64, "value": 0}, "group": "control_change"}, {"time": 3435, "annotation": {"number": 64, "value": 127}, "group": "control_change"}, {"time": 3459, "annotation": {"number": 64, "value": 0}, "group": "control_change"}, {"time": 3504, "annotation": {"number": 64, "value": 0}, "group": "control_change"}, {"time": 3506, "annotation": {"number": 64, "value": 127}, "group": "control_change"}, {"time": 3553, "annotation": {"number": 64, "value": 0}, "group": "control_change"}, {"time": 3555, "annotation": {"number": 64, "value": 127}, "group": "control_change"}, {"time": 3602, "annotation": {"number": 64, "value": 0}, "group": "control_change"}, {"time": 3603, "annotation": {"number": 64, "value": 127}, "group": "control_change"}, {"time": 3649, "annotation": {"number": 64, "value": 0}, "group": "control_change"}, {"time": 3651, "annotation": {"number": 64, "value": 127}, "group": "control_change"}, {"time": 3673, "annotation": {"number": 64, "value": 0}, "group": "control_change"}, {"time": 3674, "annotation": {"number": 64, "value": 127}, "group": "control_change"}, {"time": 3697, "annotation": {"number": 64, "value": 0}, "group": "control_change"}, {"time": 3698, "annotation": {"number": 64, "value": 127}, "group": "control_change"}, {"time": 3722, "annotation": {"number": 64, "value": 0}, "group": "control_change"}, {"time": 3722, "annotation": {"number": 64, "value": 127}, "group": "control_change"}, {"time": 3723, "annotation": {"number": 64, "value": 127}, "group": "control_change"}, {"time": 3747, "annotation": {"number": 64, "value": 0}, "group": "control_change"}, {"time": 3753, "annotation": {"number": 64, "value": 127}, "group": "control_change"}, {"time": 3769, "annotation": {"number": 64, "value": 0}, "group": "control_change"}, {"time": 3771, "annotation": {"number": 64, "value": 127}, "group": "control_change"}, {"time": 3772, "annotation": {"number": 64, "value": 127}, "group": "control_change"}, {"time": 3819, "annotation": {"number": 64, "value": 0}, "group": "control_change"}, {"time": 3820, "annotation": {"number": 64, "value": 127}, "group": "control_change"}, {"time": 3841, "annotation": {"number": 64, "value": 0}, "group": "control_change"}, {"time": 3843, "annotation": {"number": 64, "value": 127}, "group": "control_change"}, {"time": 3881, "annotation": {"number": 64, "value": 0}, "group": "control_change"}, {"time": 3883, "annotation": {"number": 64, "value": 127}, "group": "control_change"}, {"time": 3930, "annotation": {"number": 64, "value": 0}, "group": "control_change"}, {"time": 3934, "annotation": {"number": 64, "value": 127}, "group": "control_change"}]}]}