{"metadata": {"schema_version": "0.2", "title": "None", "source_filename": "425.mid", "source_format": "midi"}, "resolution": 12, "tempos": [{"time": 0, "qpm": 69.00009660013524}], "time_signatures": [{"time": 0, "numerator": 1, "denominator": 4}], "tracks": [{"program": 0, "is_drum": false, "name": "MELODY", "notes": [{"time": 109, "pitch": 73, "duration": 2, "velocity": 90}, {"time": 112, "pitch": 73, "duration": 2, "velocity": 89}, {"time": 115, "pitch": 73, "duration": 5, "velocity": 93}, {"time": 121, "pitch": 73, "duration": 2, "velocity": 93}, {"time": 124, "pitch": 72, "duration": 5, "velocity": 94}, {"time": 130, "pitch": 73, "duration": 5, "velocity": 91}, {"time": 136, "pitch": 75, "duration": 5, "velocity": 91}, {"time": 142, "pitch": 72, "duration": 5, "velocity": 89}, {"time": 148, "pitch": 72, "duration": 5, "velocity": 91}, {"time": 154, "pitch": 73, "duration": 28, "velocity": 89}, {"time": 205, "pitch": 73, "duration": 2, "velocity": 89}, {"time": 208, "pitch": 73, "duration": 2, "velocity": 89}, {"time": 211, "pitch": 73, "duration": 10, "velocity": 94}, {"time": 223, "pitch": 72, "duration": 6, "velocity": 91}, {"time": 229, "pitch": 73, "duration": 3, "velocity": 92}, {"time": 232, "pitch": 75, "duration": 7, "velocity": 93}, {"time": 238, "pitch": 72, "duration": 4, "velocity": 92}, {"time": 244, "pitch": 73, "duration": 25, "velocity": 93}, {"time": 289, "pitch": 73, "duration": 5, "velocity": 96}, {"time": 295, "pitch": 82, "duration": 16, "velocity": 89}, {"time": 313, "pitch": 80, "duration": 14, "velocity": 93}, {"time": 331, "pitch": 77, "duration": 5, "velocity": 93}, {"time": 337, "pitch": 77, "duration": 3, "velocity": 89}, {"time": 340, "pitch": 75, "duration": 5, "velocity": 91}, {"time": 346, "pitch": 77, "duration": 15, "velocity": 98}, {"time": 361, "pitch": 75, "duration": 2, "velocity": 93}, {"time": 364, "pitch": 77, "duration": 13, "velocity": 94}, {"time": 385, "pitch": 80, "duration": 2, "velocity": 93}, {"time": 388, "pitch": 82, "duration": 3, "velocity": 89}, {"time": 391, "pitch": 75, "duration": 18, "velocity": 92}, {"time": 412, "pitch": 75, "duration": 2, "velocity": 94}, {"time": 415, "pitch": 75, "duration": 3, "velocity": 91}, {"time": 418, "pitch": 73, "duration": 5, "velocity": 87}, {"time": 424, "pitch": 73, "duration": 2, "velocity": 87}, {"time": 427, "pitch": 73, "duration": 5, "velocity": 89}, {"time": 433, "pitch": 73, "duration": 4, "velocity": 83}, {"time": 439, "pitch": 70, "duration": 6, "velocity": 89}, {"time": 445, "pitch": 68, "duration": 25, "velocity": 87}, {"time": 493, "pitch": 73, "duration": 2, "velocity": 90}, {"time": 496, "pitch": 73, "duration": 2, "velocity": 89}, {"time": 499, "pitch": 73, "duration": 5, "velocity": 93}, {"time": 505, "pitch": 73, "duration": 2, "velocity": 93}, {"time": 508, "pitch": 72, "duration": 5, "velocity": 94}, {"time": 514, "pitch": 73, "duration": 5, "velocity": 91}, {"time": 520, "pitch": 75, "duration": 5, "velocity": 91}, {"time": 526, "pitch": 72, "duration": 5, "velocity": 89}, {"time": 532, "pitch": 73, "duration": 33, "velocity": 91}, {"time": 589, "pitch": 73, "duration": 2, "velocity": 89}, {"time": 592, "pitch": 73, "duration": 2, "velocity": 89}, {"time": 595, "pitch": 73, "duration": 10, "velocity": 94}, {"time": 607, "pitch": 72, "duration": 6, "velocity": 91}, {"time": 613, "pitch": 73, "duration": 3, "velocity": 92}, {"time": 616, "pitch": 75, "duration": 7, "velocity": 93}, {"time": 622, "pitch": 72, "duration": 4, "velocity": 92}, {"time": 628, "pitch": 73, "duration": 25, "velocity": 93}, {"time": 673, "pitch": 73, "duration": 5, "velocity": 96}, {"time": 679, "pitch": 82, "duration": 12, "velocity": 89}, {"time": 694, "pitch": 80, "duration": 16, "velocity": 95}, {"time": 715, "pitch": 77, "duration": 5, "velocity": 93}, {"time": 721, "pitch": 77, "duration": 3, "velocity": 89}, {"time": 724, "pitch": 75, "duration": 3, "velocity": 91}, {"time": 727, "pitch": 77, "duration": 18, "velocity": 98}, {"time": 745, "pitch": 80, "duration": 2, "velocity": 93}, {"time": 751, "pitch": 77, "duration": 10, "velocity": 94}, {"time": 769, "pitch": 73, "duration": 2, "velocity": 93}, {"time": 772, "pitch": 75, "duration": 3, "velocity": 89}, {"time": 775, "pitch": 75, "duration": 18, "velocity": 92}, {"time": 799, "pitch": 75, "duration": 5, "velocity": 94}, {"time": 805, "pitch": 73, "duration": 5, "velocity": 91}, {"time": 811, "pitch": 75, "duration": 2, "velocity": 94}, {"time": 814, "pitch": 75, "duration": 5, "velocity": 101}, {"time": 823, "pitch": 75, "duration": 25, "velocity": 94}, {"time": 859, "pitch": 85, "duration": 5, "velocity": 98}, {"time": 865, "pitch": 84, "duration": 5, "velocity": 98}, {"time": 871, "pitch": 82, "duration": 8, "velocity": 98}, {"time": 880, "pitch": 80, "duration": 3, "velocity": 91}, {"time": 883, "pitch": 77, "duration": 3, "velocity": 98}, {"time": 886, "pitch": 80, "duration": 6, "velocity": 91}, {"time": 892, "pitch": 77, "duration": 12, "velocity": 101}, {"time": 907, "pitch": 77, "duration": 4, "velocity": 98}, {"time": 913, "pitch": 80, "duration": 5, "velocity": 94}, {"time": 919, "pitch": 82, "duration": 5, "velocity": 93}, {"time": 925, "pitch": 82, "duration": 5, "velocity": 94}, {"time": 931, "pitch": 80, "duration": 3, "velocity": 91}, {"time": 934, "pitch": 78, "duration": 3, "velocity": 87}, {"time": 937, "pitch": 80, "duration": 3, "velocity": 88}, {"time": 940, "pitch": 77, "duration": 12, "velocity": 92}, {"time": 961, "pitch": 75, "duration": 2, "velocity": 94}, {"time": 964, "pitch": 73, "duration": 2, "velocity": 89}, {"time": 967, "pitch": 75, "duration": 15, "velocity": 94}, {"time": 991, "pitch": 80, "duration": 5, "velocity": 93}, {"time": 997, "pitch": 82, "duration": 5, "velocity": 89}, {"time": 1003, "pitch": 80, "duration": 5, "velocity": 94}, {"time": 1009, "pitch": 75, "duration": 2, "velocity": 90}, {"time": 1012, "pitch": 77, "duration": 28, "velocity": 88}, {"time": 1051, "pitch": 85, "duration": 5, "velocity": 93}, {"time": 1057, "pitch": 84, "duration": 4, "velocity": 93}, {"time": 1063, "pitch": 82, "duration": 7, "velocity": 94}, {"time": 1072, "pitch": 80, "duration": 3, "velocity": 85}, {"time": 1075, "pitch": 77, "duration": 2, "velocity": 94}, {"time": 1078, "pitch": 80, "duration": 5, "velocity": 89}, {"time": 1084, "pitch": 77, "duration": 12, "velocity": 101}, {"time": 1099, "pitch": 77, "duration": 5, "velocity": 98}, {"time": 1105, "pitch": 80, "duration": 5, "velocity": 92}, {"time": 1111, "pitch": 82, "duration": 4, "velocity": 89}, {"time": 1117, "pitch": 82, "duration": 5, "velocity": 90}, {"time": 1123, "pitch": 80, "duration": 3, "velocity": 93}, {"time": 1126, "pitch": 78, "duration": 2, "velocity": 86}, {"time": 1129, "pitch": 80, "duration": 3, "velocity": 89}, {"time": 1132, "pitch": 77, "duration": 11, "velocity": 94}, {"time": 1153, "pitch": 75, "duration": 3, "velocity": 92}, {"time": 1156, "pitch": 73, "duration": 2, "velocity": 93}, {"time": 1159, "pitch": 75, "duration": 19, "velocity": 103}, {"time": 1183, "pitch": 77, "duration": 4, "velocity": 91}, {"time": 1189, "pitch": 77, "duration": 5, "velocity": 98}, {"time": 1195, "pitch": 75, "duration": 5, "velocity": 93}, {"time": 1201, "pitch": 75, "duration": 3, "velocity": 94}, {"time": 1204, "pitch": 73, "duration": 30, "velocity": 90}, {"time": 1645, "pitch": 73, "duration": 2, "velocity": 90}, {"time": 1648, "pitch": 73, "duration": 2, "velocity": 89}, {"time": 1651, "pitch": 73, "duration": 5, "velocity": 93}, {"time": 1657, "pitch": 73, "duration": 2, "velocity": 93}, {"time": 1660, "pitch": 72, "duration": 5, "velocity": 94}, {"time": 1666, "pitch": 73, "duration": 5, "velocity": 91}, {"time": 1672, "pitch": 75, "duration": 5, "velocity": 91}, {"time": 1678, "pitch": 72, "duration": 5, "velocity": 89}, {"time": 1684, "pitch": 73, "duration": 33, "velocity": 91}, {"time": 1741, "pitch": 73, "duration": 2, "velocity": 89}, {"time": 1744, "pitch": 73, "duration": 2, "velocity": 89}, {"time": 1747, "pitch": 73, "duration": 10, "velocity": 94}, {"time": 1759, "pitch": 72, "duration": 6, "velocity": 91}, {"time": 1765, "pitch": 73, "duration": 3, "velocity": 92}, {"time": 1768, "pitch": 75, "duration": 7, "velocity": 93}, {"time": 1774, "pitch": 72, "duration": 4, "velocity": 92}, {"time": 1780, "pitch": 73, "duration": 25, "velocity": 93}, {"time": 1825, "pitch": 73, "duration": 5, "velocity": 96}, {"time": 1831, "pitch": 82, "duration": 16, "velocity": 89}, {"time": 1849, "pitch": 80, "duration": 14, "velocity": 93}, {"time": 1867, "pitch": 77, "duration": 5, "velocity": 93}, {"time": 1873, "pitch": 77, "duration": 3, "velocity": 89}, {"time": 1876, "pitch": 75, "duration": 5, "velocity": 91}, {"time": 1882, "pitch": 77, "duration": 15, "velocity": 98}, {"time": 1897, "pitch": 75, "duration": 2, "velocity": 93}, {"time": 1900, "pitch": 77, "duration": 13, "velocity": 94}, {"time": 1921, "pitch": 73, "duration": 2, "velocity": 93}, {"time": 1924, "pitch": 75, "duration": 3, "velocity": 89}, {"time": 1927, "pitch": 75, "duration": 18, "velocity": 92}, {"time": 1951, "pitch": 75, "duration": 5, "velocity": 94}, {"time": 1957, "pitch": 73, "duration": 5, "velocity": 91}, {"time": 1963, "pitch": 75, "duration": 2, "velocity": 94}, {"time": 1966, "pitch": 75, "duration": 5, "velocity": 101}, {"time": 1975, "pitch": 75, "duration": 25, "velocity": 94}, {"time": 2011, "pitch": 85, "duration": 5, "velocity": 98}, {"time": 2017, "pitch": 84, "duration": 5, "velocity": 98}, {"time": 2023, "pitch": 82, "duration": 8, "velocity": 98}, {"time": 2032, "pitch": 80, "duration": 3, "velocity": 91}, {"time": 2035, "pitch": 77, "duration": 3, "velocity": 98}, {"time": 2038, "pitch": 80, "duration": 6, "velocity": 91}, {"time": 2044, "pitch": 77, "duration": 12, "velocity": 101}, {"time": 2059, "pitch": 77, "duration": 4, "velocity": 98}, {"time": 2065, "pitch": 80, "duration": 5, "velocity": 94}, {"time": 2071, "pitch": 82, "duration": 5, "velocity": 93}, {"time": 2077, "pitch": 82, "duration": 5, "velocity": 94}, {"time": 2083, "pitch": 80, "duration": 3, "velocity": 91}, {"time": 2086, "pitch": 78, "duration": 3, "velocity": 87}, {"time": 2089, "pitch": 80, "duration": 3, "velocity": 88}, {"time": 2092, "pitch": 77, "duration": 12, "velocity": 92}, {"time": 2113, "pitch": 75, "duration": 2, "velocity": 94}, {"time": 2116, "pitch": 73, "duration": 2, "velocity": 89}, {"time": 2119, "pitch": 75, "duration": 15, "velocity": 94}, {"time": 2143, "pitch": 80, "duration": 5, "velocity": 93}, {"time": 2149, "pitch": 82, "duration": 5, "velocity": 89}, {"time": 2155, "pitch": 80, "duration": 5, "velocity": 94}, {"time": 2161, "pitch": 75, "duration": 2, "velocity": 90}, {"time": 2164, "pitch": 77, "duration": 28, "velocity": 88}, {"time": 2203, "pitch": 85, "duration": 5, "velocity": 93}, {"time": 2209, "pitch": 84, "duration": 4, "velocity": 93}, {"time": 2215, "pitch": 82, "duration": 7, "velocity": 94}, {"time": 2224, "pitch": 80, "duration": 3, "velocity": 85}, {"time": 2227, "pitch": 77, "duration": 2, "velocity": 94}, {"time": 2230, "pitch": 80, "duration": 5, "velocity": 89}, {"time": 2236, "pitch": 77, "duration": 12, "velocity": 101}, {"time": 2251, "pitch": 77, "duration": 5, "velocity": 98}, {"time": 2257, "pitch": 80, "duration": 5, "velocity": 92}, {"time": 2263, "pitch": 82, "duration": 4, "velocity": 89}, {"time": 2269, "pitch": 82, "duration": 5, "velocity": 90}, {"time": 2275, "pitch": 80, "duration": 3, "velocity": 93}, {"time": 2278, "pitch": 78, "duration": 2, "velocity": 86}, {"time": 2281, "pitch": 80, "duration": 3, "velocity": 89}, {"time": 2284, "pitch": 77, "duration": 11, "velocity": 94}, {"time": 2305, "pitch": 75, "duration": 3, "velocity": 92}, {"time": 2308, "pitch": 73, "duration": 2, "velocity": 93}, {"time": 2311, "pitch": 75, "duration": 19, "velocity": 103}, {"time": 2335, "pitch": 77, "duration": 4, "velocity": 91}, {"time": 2341, "pitch": 77, "duration": 5, "velocity": 98}, {"time": 2347, "pitch": 75, "duration": 5, "velocity": 93}, {"time": 2353, "pitch": 75, "duration": 3, "velocity": 94}, {"time": 2356, "pitch": 73, "duration": 30, "velocity": 90}, {"time": 2395, "pitch": 85, "duration": 5, "velocity": 98}, {"time": 2401, "pitch": 84, "duration": 5, "velocity": 98}, {"time": 2407, "pitch": 82, "duration": 8, "velocity": 98}, {"time": 2416, "pitch": 80, "duration": 3, "velocity": 91}, {"time": 2419, "pitch": 77, "duration": 3, "velocity": 98}, {"time": 2422, "pitch": 80, "duration": 6, "velocity": 91}, {"time": 2428, "pitch": 77, "duration": 12, "velocity": 101}, {"time": 2443, "pitch": 77, "duration": 4, "velocity": 98}, {"time": 2449, "pitch": 80, "duration": 5, "velocity": 94}, {"time": 2455, "pitch": 82, "duration": 5, "velocity": 93}, {"time": 2461, "pitch": 82, "duration": 5, "velocity": 94}, {"time": 2467, "pitch": 80, "duration": 3, "velocity": 91}, {"time": 2470, "pitch": 78, "duration": 3, "velocity": 87}, {"time": 2473, "pitch": 80, "duration": 3, "velocity": 88}, {"time": 2476, "pitch": 77, "duration": 12, "velocity": 92}, {"time": 2497, "pitch": 75, "duration": 2, "velocity": 94}, {"time": 2500, "pitch": 73, "duration": 2, "velocity": 89}, {"time": 2503, "pitch": 75, "duration": 15, "velocity": 94}, {"time": 2527, "pitch": 80, "duration": 5, "velocity": 93}, {"time": 2533, "pitch": 82, "duration": 5, "velocity": 89}, {"time": 2539, "pitch": 80, "duration": 5, "velocity": 94}, {"time": 2545, "pitch": 75, "duration": 2, "velocity": 90}, {"time": 2548, "pitch": 77, "duration": 28, "velocity": 88}, {"time": 2587, "pitch": 85, "duration": 5, "velocity": 93}, {"time": 2593, "pitch": 84, "duration": 4, "velocity": 93}, {"time": 2599, "pitch": 82, "duration": 7, "velocity": 94}, {"time": 2608, "pitch": 80, "duration": 3, "velocity": 85}, {"time": 2611, "pitch": 77, "duration": 2, "velocity": 94}, {"time": 2614, "pitch": 80, "duration": 5, "velocity": 89}, {"time": 2620, "pitch": 77, "duration": 12, "velocity": 101}, {"time": 2635, "pitch": 77, "duration": 5, "velocity": 98}, {"time": 2641, "pitch": 80, "duration": 5, "velocity": 92}, {"time": 2647, "pitch": 82, "duration": 4, "velocity": 89}, {"time": 2653, "pitch": 82, "duration": 5, "velocity": 90}, {"time": 2659, "pitch": 80, "duration": 3, "velocity": 93}, {"time": 2662, "pitch": 78, "duration": 2, "velocity": 86}, {"time": 2665, "pitch": 80, "duration": 3, "velocity": 89}, {"time": 2668, "pitch": 77, "duration": 11, "velocity": 94}, {"time": 2689, "pitch": 75, "duration": 3, "velocity": 92}, {"time": 2692, "pitch": 73, "duration": 2, "velocity": 93}, {"time": 2695, "pitch": 75, "duration": 19, "velocity": 103}, {"time": 2719, "pitch": 77, "duration": 4, "velocity": 91}, {"time": 2725, "pitch": 77, "duration": 5, "velocity": 98}, {"time": 2731, "pitch": 75, "duration": 5, "velocity": 93}, {"time": 2737, "pitch": 75, "duration": 3, "velocity": 94}, {"time": 2740, "pitch": 73, "duration": 30, "velocity": 90}, {"time": 2797, "pitch": 73, "duration": 2, "velocity": 90}, {"time": 2800, "pitch": 73, "duration": 2, "velocity": 89}, {"time": 2803, "pitch": 73, "duration": 5, "velocity": 93}, {"time": 2809, "pitch": 73, "duration": 2, "velocity": 93}, {"time": 2812, "pitch": 72, "duration": 5, "velocity": 94}, {"time": 2818, "pitch": 73, "duration": 5, "velocity": 91}, {"time": 2824, "pitch": 75, "duration": 5, "velocity": 91}, {"time": 2830, "pitch": 72, "duration": 5, "velocity": 89}, {"time": 2836, "pitch": 73, "duration": 33, "velocity": 91}, {"time": 2893, "pitch": 73, "duration": 2, "velocity": 89}, {"time": 2896, "pitch": 73, "duration": 2, "velocity": 89}, {"time": 2899, "pitch": 73, "duration": 10, "velocity": 94}, {"time": 2911, "pitch": 72, "duration": 6, "velocity": 91}, {"time": 2917, "pitch": 73, "duration": 3, "velocity": 92}, {"time": 2920, "pitch": 75, "duration": 7, "velocity": 93}, {"time": 2926, "pitch": 72, "duration": 4, "velocity": 92}, {"time": 2932, "pitch": 73, "duration": 25, "velocity": 93}, {"time": 2977, "pitch": 73, "duration": 5, "velocity": 96}, {"time": 2983, "pitch": 82, "duration": 16, "velocity": 89}, {"time": 3001, "pitch": 80, "duration": 14, "velocity": 93}, {"time": 3019, "pitch": 77, "duration": 5, "velocity": 93}, {"time": 3025, "pitch": 77, "duration": 3, "velocity": 89}, {"time": 3028, "pitch": 75, "duration": 5, "velocity": 91}, {"time": 3034, "pitch": 77, "duration": 15, "velocity": 98}, {"time": 3049, "pitch": 75, "duration": 2, "velocity": 93}, {"time": 3052, "pitch": 77, "duration": 13, "velocity": 94}, {"time": 3073, "pitch": 80, "duration": 2, "velocity": 93}, {"time": 3076, "pitch": 82, "duration": 3, "velocity": 89}, {"time": 3079, "pitch": 75, "duration": 18, "velocity": 92}, {"time": 3100, "pitch": 75, "duration": 6, "velocity": 94}, {"time": 3106, "pitch": 73, "duration": 6, "velocity": 91}, {"time": 3112, "pitch": 73, "duration": 3, "velocity": 95}, {"time": 3115, "pitch": 73, "duration": 6, "velocity": 94}, {"time": 3121, "pitch": 75, "duration": 5, "velocity": 101}, {"time": 3127, "pitch": 77, "duration": 6, "velocity": 95}, {"time": 3133, "pitch": 77, "duration": 19, "velocity": 94}]}, {"program": 0, "is_drum": false, "name": "PIANO", "notes": [{"time": 7, "pitch": 49, "duration": 19, "velocity": 91}, {"time": 10, "pitch": 56, "duration": 15, "velocity": 76}, {"time": 13, "pitch": 61, "duration": 22, "velocity": 86}, {"time": 16, "pitch": 65, "duration": 19, "velocity": 85}, {"time": 16, "pitch": 68, "duration": 19, "velocity": 76}, {"time": 16, "pitch": 73, "duration": 17, "velocity": 84}, {"time": 31, "pitch": 49, "duration": 19, "velocity": 89}, {"time": 34, "pitch": 56, "duration": 17, "velocity": 75}, {"time": 37, "pitch": 61, "duration": 20, "velocity": 81}, {"time": 40, "pitch": 65, "duration": 19, "velocity": 86}, {"time": 40, "pitch": 72, "duration": 16, "velocity": 87}, {"time": 55, "pitch": 49, "duration": 20, "velocity": 88}, {"time": 58, "pitch": 56, "duration": 15, "velocity": 77}, {"time": 61, "pitch": 61, "duration": 21, "velocity": 81}, {"time": 64, "pitch": 65, "duration": 18, "velocity": 81}, {"time": 64, "pitch": 70, "duration": 18, "velocity": 80}, {"time": 79, "pitch": 49, "duration": 19, "velocity": 88}, {"time": 82, "pitch": 56, "duration": 16, "velocity": 78}, {"time": 85, "pitch": 61, "duration": 2, "velocity": 83}, {"time": 88, "pitch": 61, "duration": 4, "velocity": 89}, {"time": 88, "pitch": 68, "duration": 5, "velocity": 83}, {"time": 94, "pitch": 61, "duration": 2, "velocity": 82}, {"time": 94, "pitch": 65, "duration": 13, "velocity": 87}, {"time": 97, "pitch": 61, "duration": 9, "velocity": 83}, {"time": 103, "pitch": 49, "duration": 21, "velocity": 88}, {"time": 106, "pitch": 56, "duration": 19, "velocity": 81}, {"time": 109, "pitch": 61, "duration": 7, "velocity": 87}, {"time": 112, "pitch": 65, "duration": 4, "velocity": 88}, {"time": 112, "pitch": 73, "duration": 5, "velocity": 88}, {"time": 118, "pitch": 61, "duration": 12, "velocity": 79}, {"time": 118, "pitch": 65, "duration": 13, "velocity": 87}, {"time": 118, "pitch": 68, "duration": 14, "velocity": 78}, {"time": 127, "pitch": 49, "duration": 18, "velocity": 88}, {"time": 130, "pitch": 56, "duration": 15, "velocity": 76}, {"time": 133, "pitch": 61, "duration": 3, "velocity": 90}, {"time": 136, "pitch": 61, "duration": 5, "velocity": 73}, {"time": 136, "pitch": 68, "duration": 6, "velocity": 86}, {"time": 142, "pitch": 61, "duration": 4, "velocity": 86}, {"time": 142, "pitch": 65, "duration": 4, "velocity": 89}, {"time": 142, "pitch": 68, "duration": 3, "velocity": 81}, {"time": 151, "pitch": 46, "duration": 21, "velocity": 82}, {"time": 154, "pitch": 53, "duration": 18, "velocity": 77}, {"time": 157, "pitch": 56, "duration": 3, "velocity": 87}, {"time": 160, "pitch": 56, "duration": 18, "velocity": 86}, {"time": 160, "pitch": 61, "duration": 19, "velocity": 82}, {"time": 175, "pitch": 46, "duration": 18, "velocity": 87}, {"time": 178, "pitch": 53, "duration": 15, "velocity": 79}, {"time": 181, "pitch": 56, "duration": 3, "velocity": 89}, {"time": 184, "pitch": 56, "duration": 4, "velocity": 87}, {"time": 184, "pitch": 61, "duration": 4, "velocity": 88}, {"time": 184, "pitch": 65, "duration": 5, "velocity": 91}, {"time": 190, "pitch": 56, "duration": 2, "velocity": 88}, {"time": 190, "pitch": 61, "duration": 9, "velocity": 87}, {"time": 193, "pitch": 56, "duration": 5, "velocity": 86}, {"time": 199, "pitch": 49, "duration": 21, "velocity": 89}, {"time": 202, "pitch": 56, "duration": 17, "velocity": 77}, {"time": 205, "pitch": 61, "duration": 2, "velocity": 81}, {"time": 208, "pitch": 61, "duration": 17, "velocity": 88}, {"time": 208, "pitch": 68, "duration": 17, "velocity": 83}, {"time": 223, "pitch": 49, "duration": 20, "velocity": 91}, {"time": 226, "pitch": 56, "duration": 16, "velocity": 79}, {"time": 229, "pitch": 61, "duration": 19, "velocity": 87}, {"time": 232, "pitch": 65, "duration": 16, "velocity": 85}, {"time": 232, "pitch": 68, "duration": 16, "velocity": 88}, {"time": 247, "pitch": 46, "duration": 22, "velocity": 87}, {"time": 250, "pitch": 53, "duration": 19, "velocity": 80}, {"time": 253, "pitch": 56, "duration": 2, "velocity": 82}, {"time": 256, "pitch": 56, "duration": 15, "velocity": 89}, {"time": 256, "pitch": 61, "duration": 19, "velocity": 88}, {"time": 271, "pitch": 46, "duration": 20, "velocity": 88}, {"time": 274, "pitch": 53, "duration": 8, "velocity": 77}, {"time": 277, "pitch": 58, "duration": 2, "velocity": 80}, {"time": 280, "pitch": 58, "duration": 9, "velocity": 83}, {"time": 280, "pitch": 61, "duration": 15, "velocity": 88}, {"time": 280, "pitch": 65, "duration": 16, "velocity": 89}, {"time": 289, "pitch": 53, "duration": 3, "velocity": 78}, {"time": 292, "pitch": 58, "duration": 5, "velocity": 79}, {"time": 295, "pitch": 42, "duration": 21, "velocity": 88}, {"time": 298, "pitch": 49, "duration": 18, "velocity": 78}, {"time": 301, "pitch": 54, "duration": 21, "velocity": 82}, {"time": 304, "pitch": 58, "duration": 22, "velocity": 88}, {"time": 304, "pitch": 61, "duration": 23, "velocity": 88}, {"time": 319, "pitch": 42, "duration": 18, "velocity": 88}, {"time": 322, "pitch": 49, "duration": 15, "velocity": 78}, {"time": 325, "pitch": 54, "duration": 3, "velocity": 83}, {"time": 328, "pitch": 54, "duration": 11, "velocity": 87}, {"time": 328, "pitch": 58, "duration": 12, "velocity": 89}, {"time": 328, "pitch": 61, "duration": 14, "velocity": 88}, {"time": 343, "pitch": 49, "duration": 22, "velocity": 91}, {"time": 346, "pitch": 56, "duration": 19, "velocity": 77}, {"time": 349, "pitch": 61, "duration": 3, "velocity": 90}, {"time": 352, "pitch": 61, "duration": 14, "velocity": 73}, {"time": 352, "pitch": 65, "duration": 8, "velocity": 88}, {"time": 352, "pitch": 72, "duration": 13, "velocity": 88}, {"time": 367, "pitch": 49, "duration": 18, "velocity": 91}, {"time": 367, "pitch": 65, "duration": 7, "velocity": 89}, {"time": 367, "pitch": 68, "duration": 7, "velocity": 82}, {"time": 370, "pitch": 56, "duration": 14, "velocity": 80}, {"time": 373, "pitch": 61, "duration": 2, "velocity": 82}, {"time": 376, "pitch": 61, "duration": 4, "velocity": 77}, {"time": 376, "pitch": 65, "duration": 4, "velocity": 88}, {"time": 376, "pitch": 68, "duration": 4, "velocity": 81}, {"time": 376, "pitch": 72, "duration": 4, "velocity": 87}, {"time": 382, "pitch": 61, "duration": 2, "velocity": 86}, {"time": 382, "pitch": 65, "duration": 9, "velocity": 88}, {"time": 382, "pitch": 68, "duration": 9, "velocity": 84}, {"time": 385, "pitch": 61, "duration": 6, "velocity": 84}, {"time": 391, "pitch": 51, "duration": 15, "velocity": 91}, {"time": 394, "pitch": 58, "duration": 4, "velocity": 87}, {"time": 397, "pitch": 63, "duration": 2, "velocity": 85}, {"time": 400, "pitch": 58, "duration": 18, "velocity": 85}, {"time": 400, "pitch": 63, "duration": 21, "velocity": 87}, {"time": 400, "pitch": 66, "duration": 21, "velocity": 87}, {"time": 415, "pitch": 39, "duration": 16, "velocity": 92}, {"time": 418, "pitch": 46, "duration": 12, "velocity": 75}, {"time": 421, "pitch": 58, "duration": 17, "velocity": 84}, {"time": 424, "pitch": 63, "duration": 14, "velocity": 89}, {"time": 424, "pitch": 66, "duration": 19, "velocity": 88}, {"time": 439, "pitch": 44, "duration": 22, "velocity": 83}, {"time": 442, "pitch": 51, "duration": 18, "velocity": 77}, {"time": 445, "pitch": 56, "duration": 7, "velocity": 87}, {"time": 448, "pitch": 63, "duration": 4, "velocity": 89}, {"time": 454, "pitch": 56, "duration": 3, "velocity": 88}, {"time": 454, "pitch": 63, "duration": 4, "velocity": 87}, {"time": 454, "pitch": 68, "duration": 5, "velocity": 87}, {"time": 463, "pitch": 44, "duration": 24, "velocity": 88}, {"time": 463, "pitch": 56, "duration": 13, "velocity": 88}, {"time": 463, "pitch": 63, "duration": 16, "velocity": 87}, {"time": 463, "pitch": 68, "duration": 15, "velocity": 68}, {"time": 475, "pitch": 51, "duration": 11, "velocity": 90}, {"time": 478, "pitch": 56, "duration": 7, "velocity": 91}, {"time": 481, "pitch": 63, "duration": 5, "velocity": 79}, {"time": 484, "pitch": 68, "duration": 2, "velocity": 68}, {"time": 487, "pitch": 49, "duration": 21, "velocity": 88}, {"time": 490, "pitch": 56, "duration": 19, "velocity": 81}, {"time": 493, "pitch": 61, "duration": 7, "velocity": 87}, {"time": 496, "pitch": 65, "duration": 4, "velocity": 88}, {"time": 496, "pitch": 73, "duration": 5, "velocity": 88}, {"time": 502, "pitch": 61, "duration": 12, "velocity": 79}, {"time": 502, "pitch": 65, "duration": 13, "velocity": 87}, {"time": 502, "pitch": 68, "duration": 14, "velocity": 78}, {"time": 511, "pitch": 49, "duration": 18, "velocity": 88}, {"time": 514, "pitch": 56, "duration": 15, "velocity": 76}, {"time": 517, "pitch": 61, "duration": 3, "velocity": 90}, {"time": 520, "pitch": 61, "duration": 5, "velocity": 73}, {"time": 520, "pitch": 68, "duration": 6, "velocity": 86}, {"time": 526, "pitch": 61, "duration": 4, "velocity": 86}, {"time": 526, "pitch": 65, "duration": 4, "velocity": 89}, {"time": 526, "pitch": 68, "duration": 3, "velocity": 81}, {"time": 535, "pitch": 46, "duration": 21, "velocity": 82}, {"time": 538, "pitch": 53, "duration": 18, "velocity": 77}, {"time": 541, "pitch": 56, "duration": 3, "velocity": 87}, {"time": 544, "pitch": 56, "duration": 18, "velocity": 86}, {"time": 544, "pitch": 61, "duration": 19, "velocity": 82}, {"time": 559, "pitch": 46, "duration": 18, "velocity": 87}, {"time": 562, "pitch": 53, "duration": 15, "velocity": 79}, {"time": 565, "pitch": 56, "duration": 3, "velocity": 89}, {"time": 568, "pitch": 56, "duration": 4, "velocity": 87}, {"time": 568, "pitch": 61, "duration": 4, "velocity": 88}, {"time": 568, "pitch": 65, "duration": 5, "velocity": 91}, {"time": 574, "pitch": 56, "duration": 2, "velocity": 88}, {"time": 574, "pitch": 61, "duration": 9, "velocity": 87}, {"time": 577, "pitch": 56, "duration": 5, "velocity": 86}, {"time": 583, "pitch": 49, "duration": 21, "velocity": 89}, {"time": 586, "pitch": 56, "duration": 17, "velocity": 77}, {"time": 589, "pitch": 61, "duration": 2, "velocity": 81}, {"time": 592, "pitch": 61, "duration": 17, "velocity": 88}, {"time": 592, "pitch": 68, "duration": 17, "velocity": 83}, {"time": 607, "pitch": 49, "duration": 20, "velocity": 91}, {"time": 610, "pitch": 56, "duration": 16, "velocity": 79}, {"time": 613, "pitch": 61, "duration": 19, "velocity": 87}, {"time": 616, "pitch": 65, "duration": 16, "velocity": 85}, {"time": 616, "pitch": 68, "duration": 16, "velocity": 88}, {"time": 631, "pitch": 46, "duration": 22, "velocity": 87}, {"time": 634, "pitch": 53, "duration": 19, "velocity": 80}, {"time": 637, "pitch": 56, "duration": 2, "velocity": 82}, {"time": 640, "pitch": 56, "duration": 15, "velocity": 89}, {"time": 640, "pitch": 61, "duration": 19, "velocity": 88}, {"time": 655, "pitch": 46, "duration": 20, "velocity": 88}, {"time": 658, "pitch": 53, "duration": 8, "velocity": 77}, {"time": 661, "pitch": 58, "duration": 2, "velocity": 80}, {"time": 664, "pitch": 58, "duration": 9, "velocity": 83}, {"time": 664, "pitch": 61, "duration": 15, "velocity": 88}, {"time": 664, "pitch": 65, "duration": 16, "velocity": 89}, {"time": 673, "pitch": 53, "duration": 3, "velocity": 78}, {"time": 676, "pitch": 58, "duration": 5, "velocity": 79}, {"time": 679, "pitch": 42, "duration": 21, "velocity": 88}, {"time": 682, "pitch": 49, "duration": 18, "velocity": 78}, {"time": 685, "pitch": 54, "duration": 21, "velocity": 82}, {"time": 688, "pitch": 58, "duration": 22, "velocity": 88}, {"time": 688, "pitch": 61, "duration": 23, "velocity": 88}, {"time": 703, "pitch": 42, "duration": 18, "velocity": 88}, {"time": 706, "pitch": 49, "duration": 15, "velocity": 78}, {"time": 709, "pitch": 54, "duration": 3, "velocity": 83}, {"time": 712, "pitch": 54, "duration": 11, "velocity": 87}, {"time": 712, "pitch": 58, "duration": 12, "velocity": 89}, {"time": 712, "pitch": 61, "duration": 14, "velocity": 88}, {"time": 727, "pitch": 49, "duration": 22, "velocity": 91}, {"time": 730, "pitch": 56, "duration": 19, "velocity": 77}, {"time": 733, "pitch": 61, "duration": 3, "velocity": 90}, {"time": 736, "pitch": 61, "duration": 14, "velocity": 73}, {"time": 736, "pitch": 65, "duration": 8, "velocity": 88}, {"time": 736, "pitch": 72, "duration": 13, "velocity": 88}, {"time": 751, "pitch": 49, "duration": 18, "velocity": 91}, {"time": 751, "pitch": 65, "duration": 7, "velocity": 89}, {"time": 751, "pitch": 68, "duration": 7, "velocity": 82}, {"time": 754, "pitch": 56, "duration": 14, "velocity": 80}, {"time": 757, "pitch": 61, "duration": 2, "velocity": 82}, {"time": 760, "pitch": 61, "duration": 4, "velocity": 77}, {"time": 760, "pitch": 65, "duration": 4, "velocity": 88}, {"time": 760, "pitch": 68, "duration": 4, "velocity": 81}, {"time": 760, "pitch": 72, "duration": 4, "velocity": 87}, {"time": 766, "pitch": 61, "duration": 2, "velocity": 86}, {"time": 766, "pitch": 65, "duration": 9, "velocity": 88}, {"time": 766, "pitch": 68, "duration": 9, "velocity": 84}, {"time": 769, "pitch": 61, "duration": 6, "velocity": 84}, {"time": 775, "pitch": 51, "duration": 15, "velocity": 91}, {"time": 778, "pitch": 58, "duration": 4, "velocity": 87}, {"time": 781, "pitch": 63, "duration": 2, "velocity": 85}, {"time": 784, "pitch": 58, "duration": 18, "velocity": 85}, {"time": 784, "pitch": 63, "duration": 21, "velocity": 87}, {"time": 784, "pitch": 66, "duration": 21, "velocity": 87}, {"time": 799, "pitch": 39, "duration": 16, "velocity": 92}, {"time": 802, "pitch": 46, "duration": 12, "velocity": 75}, {"time": 805, "pitch": 58, "duration": 17, "velocity": 84}, {"time": 808, "pitch": 63, "duration": 14, "velocity": 89}, {"time": 808, "pitch": 66, "duration": 19, "velocity": 88}, {"time": 823, "pitch": 44, "duration": 22, "velocity": 83}, {"time": 826, "pitch": 51, "duration": 18, "velocity": 77}, {"time": 829, "pitch": 56, "duration": 7, "velocity": 87}, {"time": 832, "pitch": 63, "duration": 4, "velocity": 89}, {"time": 838, "pitch": 56, "duration": 3, "velocity": 88}, {"time": 838, "pitch": 63, "duration": 4, "velocity": 87}, {"time": 838, "pitch": 68, "duration": 5, "velocity": 87}, {"time": 847, "pitch": 44, "duration": 24, "velocity": 88}, {"time": 847, "pitch": 56, "duration": 13, "velocity": 88}, {"time": 847, "pitch": 63, "duration": 16, "velocity": 87}, {"time": 847, "pitch": 68, "duration": 15, "velocity": 68}, {"time": 859, "pitch": 51, "duration": 11, "velocity": 90}, {"time": 862, "pitch": 56, "duration": 7, "velocity": 91}, {"time": 865, "pitch": 63, "duration": 5, "velocity": 79}, {"time": 868, "pitch": 68, "duration": 2, "velocity": 68}, {"time": 871, "pitch": 46, "duration": 21, "velocity": 88}, {"time": 874, "pitch": 53, "duration": 7, "velocity": 84}, {"time": 877, "pitch": 58, "duration": 2, "velocity": 93}, {"time": 880, "pitch": 58, "duration": 5, "velocity": 88}, {"time": 880, "pitch": 61, "duration": 5, "velocity": 88}, {"time": 880, "pitch": 65, "duration": 7, "velocity": 91}, {"time": 886, "pitch": 58, "duration": 4, "velocity": 84}, {"time": 886, "pitch": 61, "duration": 4, "velocity": 87}, {"time": 889, "pitch": 53, "duration": 5, "velocity": 86}, {"time": 892, "pitch": 58, "duration": 2, "velocity": 86}, {"time": 892, "pitch": 61, "duration": 1, "velocity": 46}, {"time": 895, "pitch": 44, "duration": 19, "velocity": 85}, {"time": 895, "pitch": 56, "duration": 3, "velocity": 90}, {"time": 895, "pitch": 60, "duration": 7, "velocity": 86}, {"time": 898, "pitch": 53, "duration": 13, "velocity": 88}, {"time": 901, "pitch": 56, "duration": 12, "velocity": 89}, {"time": 904, "pitch": 60, "duration": 9, "velocity": 90}, {"time": 904, "pitch": 65, "duration": 14, "velocity": 94}, {"time": 913, "pitch": 53, "duration": 2, "velocity": 84}, {"time": 916, "pitch": 54, "duration": 2, "velocity": 81}, {"time": 919, "pitch": 42, "duration": 19, "velocity": 88}, {"time": 919, "pitch": 54, "duration": 3, "velocity": 92}, {"time": 919, "pitch": 58, "duration": 5, "velocity": 87}, {"time": 922, "pitch": 49, "duration": 8, "velocity": 88}, {"time": 925, "pitch": 54, "duration": 2, "velocity": 86}, {"time": 928, "pitch": 54, "duration": 9, "velocity": 77}, {"time": 928, "pitch": 58, "duration": 10, "velocity": 88}, {"time": 928, "pitch": 61, "duration": 11, "velocity": 88}, {"time": 928, "pitch": 66, "duration": 14, "velocity": 87}, {"time": 937, "pitch": 49, "duration": 2, "velocity": 87}, {"time": 940, "pitch": 54, "duration": 1, "velocity": 88}, {"time": 943, "pitch": 49, "duration": 21, "velocity": 88}, {"time": 943, "pitch": 56, "duration": 7, "velocity": 88}, {"time": 943, "pitch": 61, "duration": 7, "velocity": 87}, {"time": 949, "pitch": 53, "duration": 4, "velocity": 79}, {"time": 952, "pitch": 56, "duration": 7, "velocity": 90}, {"time": 952, "pitch": 61, "duration": 10, "velocity": 91}, {"time": 952, "pitch": 65, "duration": 11, "velocity": 92}, {"time": 961, "pitch": 53, "duration": 3, "velocity": 90}, {"time": 964, "pitch": 56, "duration": 2, "velocity": 94}, {"time": 967, "pitch": 51, "duration": 13, "velocity": 103}, {"time": 970, "pitch": 58, "duration": 4, "velocity": 90}, {"time": 973, "pitch": 63, "duration": 2, "velocity": 87}, {"time": 976, "pitch": 58, "duration": 4, "velocity": 89}, {"time": 976, "pitch": 63, "duration": 4, "velocity": 88}, {"time": 976, "pitch": 66, "duration": 5, "velocity": 88}, {"time": 982, "pitch": 58, "duration": 2, "velocity": 81}, {"time": 982, "pitch": 63, "duration": 4, "velocity": 83}, {"time": 985, "pitch": 58, "duration": 2, "velocity": 80}, {"time": 991, "pitch": 44, "duration": 19, "velocity": 88}, {"time": 991, "pitch": 56, "duration": 7, "velocity": 85}, {"time": 991, "pitch": 60, "duration": 7, "velocity": 86}, {"time": 994, "pitch": 51, "duration": 7, "velocity": 79}, {"time": 997, "pitch": 63, "duration": 2, "velocity": 82}, {"time": 1000, "pitch": 56, "duration": 4, "velocity": 88}, {"time": 1000, "pitch": 60, "duration": 5, "velocity": 88}, {"time": 1000, "pitch": 63, "duration": 5, "velocity": 88}, {"time": 1000, "pitch": 68, "duration": 5, "velocity": 85}, {"time": 1006, "pitch": 56, "duration": 2, "velocity": 78}, {"time": 1006, "pitch": 60, "duration": 4, "velocity": 88}, {"time": 1006, "pitch": 63, "duration": 7, "velocity": 86}, {"time": 1009, "pitch": 51, "duration": 2, "velocity": 76}, {"time": 1015, "pitch": 49, "duration": 14, "velocity": 92}, {"time": 1015, "pitch": 56, "duration": 5, "velocity": 88}, {"time": 1015, "pitch": 61, "duration": 7, "velocity": 85}, {"time": 1021, "pitch": 53, "duration": 4, "velocity": 86}, {"time": 1024, "pitch": 56, "duration": 4, "velocity": 93}, {"time": 1024, "pitch": 61, "duration": 4, "velocity": 96}, {"time": 1024, "pitch": 65, "duration": 4, "velocity": 96}, {"time": 1027, "pitch": 53, "duration": 2, "velocity": 76}, {"time": 1030, "pitch": 56, "duration": 3, "velocity": 96}, {"time": 1030, "pitch": 61, "duration": 5, "velocity": 94}, {"time": 1036, "pitch": 56, "duration": 2, "velocity": 87}, {"time": 1039, "pitch": 49, "duration": 21, "velocity": 98}, {"time": 1039, "pitch": 56, "duration": 3, "velocity": 89}, {"time": 1039, "pitch": 65, "duration": 7, "velocity": 89}, {"time": 1045, "pitch": 56, "duration": 5, "velocity": 88}, {"time": 1051, "pitch": 61, "duration": 4, "velocity": 94}, {"time": 1051, "pitch": 65, "duration": 5, "velocity": 103}, {"time": 1057, "pitch": 60, "duration": 3, "velocity": 93}, {"time": 1057, "pitch": 63, "duration": 5, "velocity": 89}, {"time": 1063, "pitch": 46, "duration": 21, "velocity": 88}, {"time": 1063, "pitch": 58, "duration": 4, "velocity": 85}, {"time": 1063, "pitch": 65, "duration": 5, "velocity": 88}, {"time": 1066, "pitch": 53, "duration": 8, "velocity": 80}, {"time": 1069, "pitch": 58, "duration": 2, "velocity": 89}, {"time": 1072, "pitch": 58, "duration": 5, "velocity": 91}, {"time": 1072, "pitch": 61, "duration": 5, "velocity": 96}, {"time": 1072, "pitch": 65, "duration": 5, "velocity": 91}, {"time": 1078, "pitch": 58, "duration": 3, "velocity": 89}, {"time": 1078, "pitch": 61, "duration": 9, "velocity": 91}, {"time": 1078, "pitch": 65, "duration": 8, "velocity": 91}, {"time": 1081, "pitch": 53, "duration": 3, "velocity": 74}, {"time": 1084, "pitch": 58, "duration": 5, "velocity": 86}, {"time": 1087, "pitch": 41, "duration": 16, "velocity": 92}, {"time": 1090, "pitch": 48, "duration": 7, "velocity": 83}, {"time": 1093, "pitch": 53, "duration": 2, "velocity": 93}, {"time": 1096, "pitch": 53, "duration": 4, "velocity": 89}, {"time": 1096, "pitch": 56, "duration": 4, "velocity": 96}, {"time": 1096, "pitch": 60, "duration": 5, "velocity": 92}, {"time": 1099, "pitch": 48, "duration": 4, "velocity": 85}, {"time": 1102, "pitch": 53, "duration": 1, "velocity": 71}, {"time": 1102, "pitch": 56, "duration": 5, "velocity": 87}, {"time": 1102, "pitch": 60, "duration": 6, "velocity": 88}, {"time": 1111, "pitch": 42, "duration": 21, "velocity": 89}, {"time": 1111, "pitch": 54, "duration": 3, "velocity": 85}, {"time": 1111, "pitch": 58, "duration": 5, "velocity": 85}, {"time": 1114, "pitch": 49, "duration": 8, "velocity": 85}, {"time": 1117, "pitch": 54, "duration": 2, "velocity": 88}, {"time": 1120, "pitch": 54, "duration": 7, "velocity": 83}, {"time": 1120, "pitch": 61, "duration": 1, "velocity": 87}, {"time": 1120, "pitch": 66, "duration": 10, "velocity": 89}, {"time": 1126, "pitch": 61, "duration": 5, "velocity": 88}, {"time": 1129, "pitch": 58, "duration": 4, "velocity": 77}, {"time": 1132, "pitch": 54, "duration": 4, "velocity": 83}, {"time": 1135, "pitch": 42, "duration": 19, "velocity": 88}, {"time": 1138, "pitch": 49, "duration": 8, "velocity": 79}, {"time": 1141, "pitch": 54, "duration": 3, "velocity": 88}, {"time": 1144, "pitch": 54, "duration": 10, "velocity": 82}, {"time": 1144, "pitch": 58, "duration": 11, "velocity": 98}, {"time": 1144, "pitch": 61, "duration": 14, "velocity": 96}, {"time": 1153, "pitch": 49, "duration": 2, "velocity": 96}, {"time": 1156, "pitch": 54, "duration": 3, "velocity": 92}, {"time": 1156, "pitch": 58, "duration": 2, "velocity": 65}, {"time": 1159, "pitch": 51, "duration": 19, "velocity": 101}, {"time": 1162, "pitch": 54, "duration": 16, "velocity": 89}, {"time": 1165, "pitch": 58, "duration": 2, "velocity": 90}, {"time": 1168, "pitch": 58, "duration": 3, "velocity": 92}, {"time": 1168, "pitch": 66, "duration": 5, "velocity": 87}, {"time": 1174, "pitch": 58, "duration": 2, "velocity": 89}, {"time": 1174, "pitch": 63, "duration": 4, "velocity": 89}, {"time": 1177, "pitch": 58, "duration": 4, "velocity": 87}, {"time": 1180, "pitch": 63, "duration": 3, "velocity": 84}, {"time": 1183, "pitch": 41, "duration": 20, "velocity": 92}, {"time": 1186, "pitch": 48, "duration": 8, "velocity": 83}, {"time": 1189, "pitch": 53, "duration": 2, "velocity": 89}, {"time": 1192, "pitch": 53, "duration": 4, "velocity": 93}, {"time": 1192, "pitch": 60, "duration": 5, "velocity": 88}, {"time": 1195, "pitch": 48, "duration": 4, "velocity": 79}, {"time": 1198, "pitch": 53, "duration": 4, "velocity": 103}, {"time": 1198, "pitch": 60, "duration": 9, "velocity": 91}, {"time": 1201, "pitch": 48, "duration": 3, "velocity": 87}, {"time": 1204, "pitch": 53, "duration": 3, "velocity": 93}, {"time": 1207, "pitch": 46, "duration": 22, "velocity": 89}, {"time": 1210, "pitch": 53, "duration": 13, "velocity": 86}, {"time": 1213, "pitch": 58, "duration": 2, "velocity": 90}, {"time": 1216, "pitch": 60, "duration": 4, "velocity": 91}, {"time": 1222, "pitch": 58, "duration": 3, "velocity": 89}, {"time": 1222, "pitch": 61, "duration": 3, "velocity": 89}, {"time": 1225, "pitch": 53, "duration": 4, "velocity": 87}, {"time": 1228, "pitch": 58, "duration": 2, "velocity": 84}, {"time": 1231, "pitch": 46, "duration": 19, "velocity": 90}, {"time": 1231, "pitch": 53, "duration": 8, "velocity": 87}, {"time": 1231, "pitch": 58, "duration": 4, "velocity": 88}, {"time": 1231, "pitch": 65, "duration": 4, "velocity": 90}, {"time": 1237, "pitch": 58, "duration": 1, "velocity": 83}, {"time": 1240, "pitch": 58, "duration": 7, "velocity": 91}, {"time": 1240, "pitch": 61, "duration": 8, "velocity": 98}, {"time": 1240, "pitch": 65, "duration": 8, "velocity": 90}, {"time": 1246, "pitch": 53, "duration": 3, "velocity": 86}, {"time": 1249, "pitch": 58, "duration": 2, "velocity": 79}, {"time": 1255, "pitch": 51, "duration": 17, "velocity": 93}, {"time": 1255, "pitch": 58, "duration": 3, "velocity": 90}, {"time": 1255, "pitch": 66, "duration": 5, "velocity": 88}, {"time": 1258, "pitch": 54, "duration": 8, "velocity": 78}, {"time": 1261, "pitch": 58, "duration": 1, "velocity": 87}, {"time": 1264, "pitch": 58, "duration": 3, "velocity": 90}, {"time": 1264, "pitch": 63, "duration": 3, "velocity": 89}, {"time": 1273, "pitch": 54, "duration": 4, "velocity": 83}, {"time": 1276, "pitch": 58, "duration": 4, "velocity": 94}, {"time": 1279, "pitch": 44, "duration": 22, "velocity": 89}, {"time": 1282, "pitch": 51, "duration": 8, "velocity": 79}, {"time": 1285, "pitch": 56, "duration": 2, "velocity": 88}, {"time": 1288, "pitch": 56, "duration": 3, "velocity": 83}, {"time": 1288, "pitch": 60, "duration": 2, "velocity": 88}, {"time": 1288, "pitch": 63, "duration": 3, "velocity": 89}, {"time": 1291, "pitch": 51, "duration": 4, "velocity": 76}, {"time": 1294, "pitch": 56, "duration": 4, "velocity": 88}, {"time": 1294, "pitch": 60, "duration": 4, "velocity": 94}, {"time": 1294, "pitch": 63, "duration": 7, "velocity": 89}, {"time": 1297, "pitch": 51, "duration": 4, "velocity": 82}, {"time": 1300, "pitch": 56, "duration": 1, "velocity": 77}, {"time": 1303, "pitch": 49, "duration": 23, "velocity": 82}, {"time": 1303, "pitch": 56, "duration": 7, "velocity": 87}, {"time": 1303, "pitch": 61, "duration": 7, "velocity": 87}, {"time": 1309, "pitch": 53, "duration": 13, "velocity": 72}, {"time": 1312, "pitch": 56, "duration": 2, "velocity": 90}, {"time": 1312, "pitch": 65, "duration": 2, "velocity": 91}, {"time": 1321, "pitch": 56, "duration": 2, "velocity": 89}, {"time": 1321, "pitch": 61, "duration": 8, "velocity": 91}, {"time": 1324, "pitch": 56, "duration": 4, "velocity": 90}, {"time": 1327, "pitch": 49, "duration": 12, "velocity": 91}, {"time": 1330, "pitch": 53, "duration": 7, "velocity": 74}, {"time": 1333, "pitch": 56, "duration": 2, "velocity": 88}, {"time": 1336, "pitch": 56, "duration": 7, "velocity": 89}, {"time": 1336, "pitch": 61, "duration": 7, "velocity": 89}, {"time": 1336, "pitch": 65, "duration": 7, "velocity": 89}, {"time": 1342, "pitch": 53, "duration": 3, "velocity": 88}, {"time": 1345, "pitch": 56, "duration": 4, "velocity": 89}, {"time": 1348, "pitch": 61, "duration": 2, "velocity": 81}, {"time": 1351, "pitch": 39, "duration": 21, "velocity": 91}, {"time": 1351, "pitch": 58, "duration": 3, "velocity": 84}, {"time": 1351, "pitch": 63, "duration": 5, "velocity": 83}, {"time": 1354, "pitch": 46, "duration": 13, "velocity": 76}, {"time": 1357, "pitch": 58, "duration": 2, "velocity": 77}, {"time": 1360, "pitch": 58, "duration": 3, "velocity": 87}, {"time": 1360, "pitch": 63, "duration": 3, "velocity": 88}, {"time": 1360, "pitch": 66, "duration": 3, "velocity": 87}, {"time": 1366, "pitch": 58, "duration": 3, "velocity": 88}, {"time": 1366, "pitch": 61, "duration": 3, "velocity": 92}, {"time": 1369, "pitch": 46, "duration": 3, "velocity": 78}, {"time": 1372, "pitch": 58, "duration": 3, "velocity": 78}, {"time": 1375, "pitch": 44, "duration": 20, "velocity": 89}, {"time": 1378, "pitch": 51, "duration": 8, "velocity": 75}, {"time": 1381, "pitch": 56, "duration": 2, "velocity": 88}, {"time": 1384, "pitch": 56, "duration": 4, "velocity": 93}, {"time": 1384, "pitch": 63, "duration": 3, "velocity": 88}, {"time": 1387, "pitch": 51, "duration": 5, "velocity": 83}, {"time": 1390, "pitch": 56, "duration": 4, "velocity": 89}, {"time": 1390, "pitch": 60, "duration": 4, "velocity": 88}, {"time": 1390, "pitch": 63, "duration": 5, "velocity": 88}, {"time": 1399, "pitch": 49, "duration": 20, "velocity": 88}, {"time": 1399, "pitch": 56, "duration": 6, "velocity": 87}, {"time": 1399, "pitch": 61, "duration": 7, "velocity": 87}, {"time": 1405, "pitch": 53, "duration": 13, "velocity": 77}, {"time": 1408, "pitch": 56, "duration": 3, "velocity": 101}, {"time": 1408, "pitch": 65, "duration": 3, "velocity": 93}, {"time": 1414, "pitch": 56, "duration": 2, "velocity": 88}, {"time": 1414, "pitch": 61, "duration": 2, "velocity": 87}, {"time": 1420, "pitch": 56, "duration": 5, "velocity": 90}, {"time": 1420, "pitch": 61, "duration": 6, "velocity": 91}, {"time": 1423, "pitch": 49, "duration": 17, "velocity": 93}, {"time": 1426, "pitch": 53, "duration": 7, "velocity": 75}, {"time": 1429, "pitch": 56, "duration": 1, "velocity": 86}, {"time": 1432, "pitch": 56, "duration": 4, "velocity": 93}, {"time": 1432, "pitch": 65, "duration": 4, "velocity": 93}, {"time": 1435, "pitch": 53, "duration": 6, "velocity": 87}, {"time": 1438, "pitch": 56, "duration": 3, "velocity": 96}, {"time": 1438, "pitch": 61, "duration": 4, "velocity": 98}, {"time": 1444, "pitch": 56, "duration": 2, "velocity": 89}, {"time": 1447, "pitch": 46, "duration": 19, "velocity": 82}, {"time": 1447, "pitch": 58, "duration": 3, "velocity": 87}, {"time": 1447, "pitch": 61, "duration": 4, "velocity": 87}, {"time": 1450, "pitch": 53, "duration": 8, "velocity": 74}, {"time": 1453, "pitch": 58, "duration": 2, "velocity": 93}, {"time": 1456, "pitch": 58, "duration": 4, "velocity": 87}, {"time": 1456, "pitch": 61, "duration": 4, "velocity": 93}, {"time": 1456, "pitch": 65, "duration": 4, "velocity": 91}, {"time": 1462, "pitch": 58, "duration": 3, "velocity": 90}, {"time": 1462, "pitch": 61, "duration": 3, "velocity": 98}, {"time": 1462, "pitch": 65, "duration": 3, "velocity": 98}, {"time": 1462, "pitch": 70, "duration": 3, "velocity": 90}, {"time": 1471, "pitch": 46, "duration": 17, "velocity": 88}, {"time": 1471, "pitch": 58, "duration": 3, "velocity": 83}, {"time": 1471, "pitch": 61, "duration": 4, "velocity": 87}, {"time": 1471, "pitch": 65, "duration": 5, "velocity": 88}, {"time": 1474, "pitch": 53, "duration": 8, "velocity": 77}, {"time": 1477, "pitch": 58, "duration": 2, "velocity": 80}, {"time": 1480, "pitch": 58, "duration": 4, "velocity": 89}, {"time": 1480, "pitch": 61, "duration": 4, "velocity": 94}, {"time": 1480, "pitch": 65, "duration": 4, "velocity": 92}, {"time": 1483, "pitch": 53, "duration": 5, "velocity": 87}, {"time": 1486, "pitch": 58, "duration": 3, "velocity": 89}, {"time": 1486, "pitch": 61, "duration": 4, "velocity": 92}, {"time": 1495, "pitch": 41, "duration": 21, "velocity": 92}, {"time": 1495, "pitch": 60, "duration": 3, "velocity": 87}, {"time": 1495, "pitch": 65, "duration": 5, "velocity": 87}, {"time": 1498, "pitch": 48, "duration": 18, "velocity": 67}, {"time": 1501, "pitch": 60, "duration": 1, "velocity": 77}, {"time": 1504, "pitch": 60, "duration": 3, "velocity": 92}, {"time": 1504, "pitch": 68, "duration": 3, "velocity": 86}, {"time": 1510, "pitch": 60, "duration": 2, "velocity": 94}, {"time": 1510, "pitch": 68, "duration": 3, "velocity": 85}, {"time": 1516, "pitch": 60, "duration": 8, "velocity": 91}, {"time": 1516, "pitch": 65, "duration": 7, "velocity": 91}, {"time": 1519, "pitch": 41, "duration": 18, "velocity": 89}, {"time": 1522, "pitch": 48, "duration": 6, "velocity": 79}, {"time": 1525, "pitch": 60, "duration": 1, "velocity": 87}, {"time": 1525, "pitch": 65, "duration": 1, "velocity": 88}, {"time": 1525, "pitch": 72, "duration": 1, "velocity": 81}, {"time": 1528, "pitch": 60, "duration": 4, "velocity": 98}, {"time": 1528, "pitch": 65, "duration": 4, "velocity": 104}, {"time": 1528, "pitch": 72, "duration": 4, "velocity": 91}, {"time": 1531, "pitch": 48, "duration": 4, "velocity": 89}, {"time": 1534, "pitch": 60, "duration": 3, "velocity": 92}, {"time": 1534, "pitch": 65, "duration": 3, "velocity": 92}, {"time": 1534, "pitch": 68, "duration": 4, "velocity": 88}, {"time": 1537, "pitch": 48, "duration": 2, "velocity": 87}, {"time": 1540, "pitch": 60, "duration": 2, "velocity": 89}, {"time": 1543, "pitch": 51, "duration": 23, "velocity": 96}, {"time": 1546, "pitch": 58, "duration": 4, "velocity": 84}, {"time": 1549, "pitch": 63, "duration": 2, "velocity": 83}, {"time": 1552, "pitch": 58, "duration": 3, "velocity": 89}, {"time": 1552, "pitch": 63, "duration": 3, "velocity": 90}, {"time": 1552, "pitch": 66, "duration": 3, "velocity": 91}, {"time": 1558, "pitch": 58, "duration": 2, "velocity": 90}, {"time": 1558, "pitch": 63, "duration": 3, "velocity": 93}, {"time": 1558, "pitch": 66, "duration": 3, "velocity": 91}, {"time": 1564, "pitch": 58, "duration": 1, "velocity": 85}, {"time": 1564, "pitch": 66, "duration": 2, "velocity": 31}, {"time": 1567, "pitch": 51, "duration": 16, "velocity": 93}, {"time": 1567, "pitch": 58, "duration": 2, "velocity": 88}, {"time": 1567, "pitch": 61, "duration": 4, "velocity": 96}, {"time": 1570, "pitch": 58, "duration": 4, "velocity": 80}, {"time": 1573, "pitch": 61, "duration": 1, "velocity": 87}, {"time": 1576, "pitch": 58, "duration": 4, "velocity": 92}, {"time": 1576, "pitch": 61, "duration": 4, "velocity": 101}, {"time": 1576, "pitch": 66, "duration": 4, "velocity": 89}, {"time": 1582, "pitch": 58, "duration": 2, "velocity": 90}, {"time": 1582, "pitch": 61, "duration": 3, "velocity": 93}, {"time": 1591, "pitch": 44, "duration": 22, "velocity": 89}, {"time": 1591, "pitch": 56, "duration": 4, "velocity": 86}, {"time": 1591, "pitch": 60, "duration": 7, "velocity": 83}, {"time": 1594, "pitch": 51, "duration": 18, "velocity": 79}, {"time": 1597, "pitch": 63, "duration": 2, "velocity": 86}, {"time": 1600, "pitch": 56, "duration": 3, "velocity": 89}, {"time": 1600, "pitch": 68, "duration": 3, "velocity": 87}, {"time": 1606, "pitch": 56, "duration": 3, "velocity": 90}, {"time": 1606, "pitch": 63, "duration": 3, "velocity": 89}, {"time": 1615, "pitch": 44, "duration": 24, "velocity": 89}, {"time": 1615, "pitch": 56, "duration": 23, "velocity": 88}, {"time": 1615, "pitch": 60, "duration": 23, "velocity": 89}, {"time": 1615, "pitch": 63, "duration": 23, "velocity": 88}, {"time": 1639, "pitch": 49, "duration": 22, "velocity": 91}, {"time": 1639, "pitch": 61, "duration": 4, "velocity": 86}, {"time": 1639, "pitch": 68, "duration": 4, "velocity": 83}, {"time": 1642, "pitch": 56, "duration": 14, "velocity": 71}, {"time": 1645, "pitch": 61, "duration": 1, "velocity": 80}, {"time": 1648, "pitch": 61, "duration": 2, "velocity": 89}, {"time": 1648, "pitch": 65, "duration": 2, "velocity": 89}, {"time": 1657, "pitch": 56, "duration": 3, "velocity": 71}, {"time": 1660, "pitch": 61, "duration": 6, "velocity": 98}, {"time": 1660, "pitch": 68, "duration": 7, "velocity": 88}, {"time": 1663, "pitch": 49, "duration": 21, "velocity": 91}, {"time": 1666, "pitch": 56, "duration": 8, "velocity": 75}, {"time": 1669, "pitch": 61, "duration": 1, "velocity": 82}, {"time": 1672, "pitch": 61, "duration": 3, "velocity": 91}, {"time": 1672, "pitch": 65, "duration": 2, "velocity": 94}, {"time": 1681, "pitch": 56, "duration": 3, "velocity": 81}, {"time": 1684, "pitch": 61, "duration": 4, "velocity": 90}, {"time": 1684, "pitch": 65, "duration": 5, "velocity": 92}, {"time": 1687, "pitch": 46, "duration": 22, "velocity": 86}, {"time": 1690, "pitch": 53, "duration": 7, "velocity": 68}, {"time": 1693, "pitch": 58, "duration": 2, "velocity": 77}, {"time": 1696, "pitch": 58, "duration": 4, "velocity": 88}, {"time": 1696, "pitch": 61, "duration": 3, "velocity": 87}, {"time": 1705, "pitch": 53, "duration": 5, "velocity": 77}, {"time": 1708, "pitch": 58, "duration": 5, "velocity": 89}, {"time": 1708, "pitch": 61, "duration": 6, "velocity": 89}, {"time": 1711, "pitch": 46, "duration": 17, "velocity": 89}, {"time": 1714, "pitch": 53, "duration": 7, "velocity": 82}, {"time": 1717, "pitch": 58, "duration": 2, "velocity": 87}, {"time": 1720, "pitch": 58, "duration": 4, "velocity": 92}, {"time": 1720, "pitch": 61, "duration": 4, "velocity": 94}, {"time": 1723, "pitch": 53, "duration": 4, "velocity": 83}, {"time": 1726, "pitch": 58, "duration": 4, "velocity": 88}, {"time": 1726, "pitch": 61, "duration": 4, "velocity": 91}, {"time": 1726, "pitch": 65, "duration": 4, "velocity": 90}, {"time": 1735, "pitch": 49, "duration": 20, "velocity": 92}, {"time": 1735, "pitch": 56, "duration": 3, "velocity": 88}, {"time": 1735, "pitch": 61, "duration": 7, "velocity": 87}, {"time": 1741, "pitch": 56, "duration": 1, "velocity": 79}, {"time": 1744, "pitch": 56, "duration": 3, "velocity": 93}, {"time": 1744, "pitch": 65, "duration": 3, "velocity": 93}, {"time": 1750, "pitch": 56, "duration": 2, "velocity": 89}, {"time": 1750, "pitch": 61, "duration": 4, "velocity": 88}, {"time": 1756, "pitch": 56, "duration": 2, "velocity": 80}, {"time": 1759, "pitch": 49, "duration": 22, "velocity": 90}, {"time": 1759, "pitch": 56, "duration": 3, "velocity": 82}, {"time": 1759, "pitch": 61, "duration": 7, "velocity": 82}, {"time": 1765, "pitch": 56, "duration": 1, "velocity": 69}, {"time": 1768, "pitch": 56, "duration": 3, "velocity": 87}, {"time": 1768, "pitch": 61, "duration": 7, "velocity": 88}, {"time": 1768, "pitch": 65, "duration": 7, "velocity": 89}, {"time": 1774, "pitch": 56, "duration": 2, "velocity": 80}, {"time": 1777, "pitch": 56, "duration": 2, "velocity": 87}, {"time": 1777, "pitch": 60, "duration": 4, "velocity": 88}, {"time": 1780, "pitch": 56, "duration": 1, "velocity": 71}, {"time": 1783, "pitch": 46, "duration": 22, "velocity": 87}, {"time": 1783, "pitch": 58, "duration": 6, "velocity": 80}, {"time": 1783, "pitch": 61, "duration": 5, "velocity": 82}, {"time": 1789, "pitch": 53, "duration": 10, "velocity": 73}, {"time": 1792, "pitch": 58, "duration": 6, "velocity": 88}, {"time": 1792, "pitch": 65, "duration": 7, "velocity": 91}, {"time": 1801, "pitch": 53, "duration": 5, "velocity": 86}, {"time": 1804, "pitch": 58, "duration": 6, "velocity": 88}, {"time": 1804, "pitch": 61, "duration": 6, "velocity": 93}, {"time": 1807, "pitch": 46, "duration": 17, "velocity": 88}, {"time": 1810, "pitch": 53, "duration": 8, "velocity": 64}, {"time": 1813, "pitch": 58, "duration": 1, "velocity": 78}, {"time": 1816, "pitch": 58, "duration": 6, "velocity": 87}, {"time": 1816, "pitch": 65, "duration": 6, "velocity": 88}, {"time": 1822, "pitch": 53, "duration": 3, "velocity": 88}, {"time": 1825, "pitch": 58, "duration": 2, "velocity": 88}, {"time": 1825, "pitch": 61, "duration": 6, "velocity": 88}, {"time": 1828, "pitch": 58, "duration": 4, "velocity": 83}, {"time": 1831, "pitch": 42, "duration": 23, "velocity": 87}, {"time": 1834, "pitch": 49, "duration": 8, "velocity": 66}, {"time": 1837, "pitch": 54, "duration": 1, "velocity": 83}, {"time": 1840, "pitch": 54, "duration": 3, "velocity": 92}, {"time": 1840, "pitch": 61, "duration": 3, "velocity": 89}, {"time": 1843, "pitch": 49, "duration": 4, "velocity": 78}, {"time": 1846, "pitch": 54, "duration": 3, "velocity": 89}, {"time": 1846, "pitch": 58, "duration": 4, "velocity": 89}, {"time": 1846, "pitch": 61, "duration": 4, "velocity": 89}, {"time": 1855, "pitch": 42, "duration": 19, "velocity": 88}, {"time": 1858, "pitch": 49, "duration": 8, "velocity": 76}, {"time": 1861, "pitch": 54, "duration": 2, "velocity": 87}, {"time": 1864, "pitch": 54, "duration": 4, "velocity": 91}, {"time": 1864, "pitch": 61, "duration": 4, "velocity": 88}, {"time": 1870, "pitch": 54, "duration": 3, "velocity": 89}, {"time": 1870, "pitch": 61, "duration": 3, "velocity": 87}, {"time": 1873, "pitch": 49, "duration": 2, "velocity": 79}, {"time": 1879, "pitch": 49, "duration": 22, "velocity": 88}, {"time": 1879, "pitch": 56, "duration": 3, "velocity": 82}, {"time": 1879, "pitch": 61, "duration": 7, "velocity": 81}, {"time": 1885, "pitch": 56, "duration": 1, "velocity": 75}, {"time": 1888, "pitch": 56, "duration": 3, "velocity": 89}, {"time": 1888, "pitch": 60, "duration": 4, "velocity": 89}, {"time": 1894, "pitch": 56, "duration": 2, "velocity": 87}, {"time": 1894, "pitch": 61, "duration": 2, "velocity": 86}, {"time": 1903, "pitch": 49, "duration": 17, "velocity": 92}, {"time": 1903, "pitch": 56, "duration": 2, "velocity": 86}, {"time": 1903, "pitch": 65, "duration": 4, "velocity": 88}, {"time": 1906, "pitch": 56, "duration": 5, "velocity": 81}, {"time": 1912, "pitch": 56, "duration": 4, "velocity": 90}, {"time": 1912, "pitch": 61, "duration": 5, "velocity": 93}, {"time": 1918, "pitch": 56, "duration": 3, "velocity": 88}, {"time": 1918, "pitch": 61, "duration": 3, "velocity": 94}, {"time": 1927, "pitch": 39, "duration": 14, "velocity": 89}, {"time": 1927, "pitch": 58, "duration": 3, "velocity": 82}, {"time": 1927, "pitch": 63, "duration": 4, "velocity": 85}, {"time": 1930, "pitch": 46, "duration": 10, "velocity": 74}, {"time": 1933, "pitch": 58, "duration": 1, "velocity": 81}, {"time": 1936, "pitch": 58, "duration": 2, "velocity": 92}, {"time": 1936, "pitch": 66, "duration": 3, "velocity": 89}, {"time": 1942, "pitch": 58, "duration": 2, "velocity": 91}, {"time": 1942, "pitch": 63, "duration": 2, "velocity": 91}, {"time": 1948, "pitch": 58, "duration": 2, "velocity": 62}, {"time": 1951, "pitch": 51, "duration": 19, "velocity": 89}, {"time": 1951, "pitch": 58, "duration": 2, "velocity": 87}, {"time": 1951, "pitch": 66, "duration": 7, "velocity": 87}, {"time": 1954, "pitch": 58, "duration": 4, "velocity": 76}, {"time": 1957, "pitch": 63, "duration": 2, "velocity": 82}, {"time": 1960, "pitch": 58, "duration": 3, "velocity": 98}, {"time": 1960, "pitch": 63, "duration": 3, "velocity": 90}, {"time": 1966, "pitch": 58, "duration": 3, "velocity": 90}, {"time": 1966, "pitch": 61, "duration": 4, "velocity": 98}, {"time": 1975, "pitch": 44, "duration": 23, "velocity": 87}, {"time": 1975, "pitch": 56, "duration": 3, "velocity": 86}, {"time": 1975, "pitch": 60, "duration": 4, "velocity": 87}, {"time": 1978, "pitch": 51, "duration": 20, "velocity": 75}, {"time": 1981, "pitch": 56, "duration": 2, "velocity": 87}, {"time": 1984, "pitch": 56, "duration": 3, "velocity": 94}, {"time": 1984, "pitch": 63, "duration": 3, "velocity": 89}, {"time": 1990, "pitch": 56, "duration": 3, "velocity": 89}, {"time": 1990, "pitch": 63, "duration": 1, "velocity": 87}, {"time": 1990, "pitch": 68, "duration": 3, "velocity": 80}, {"time": 1999, "pitch": 44, "duration": 23, "velocity": 88}, {"time": 1999, "pitch": 56, "duration": 4, "velocity": 87}, {"time": 1999, "pitch": 63, "duration": 5, "velocity": 86}, {"time": 2002, "pitch": 51, "duration": 7, "velocity": 77}, {"time": 2005, "pitch": 56, "duration": 2, "velocity": 81}, {"time": 2008, "pitch": 56, "duration": 4, "velocity": 88}, {"time": 2008, "pitch": 63, "duration": 4, "velocity": 88}, {"time": 2008, "pitch": 66, "duration": 5, "velocity": 87}, {"time": 2011, "pitch": 51, "duration": 4, "velocity": 88}, {"time": 2014, "pitch": 56, "duration": 8, "velocity": 90}, {"time": 2014, "pitch": 65, "duration": 8, "velocity": 89}, {"time": 2017, "pitch": 51, "duration": 5, "velocity": 84}, {"time": 2023, "pitch": 46, "duration": 21, "velocity": 88}, {"time": 2026, "pitch": 53, "duration": 7, "velocity": 84}, {"time": 2029, "pitch": 58, "duration": 2, "velocity": 93}, {"time": 2032, "pitch": 58, "duration": 5, "velocity": 88}, {"time": 2032, "pitch": 61, "duration": 5, "velocity": 88}, {"time": 2032, "pitch": 65, "duration": 7, "velocity": 91}, {"time": 2038, "pitch": 58, "duration": 4, "velocity": 84}, {"time": 2038, "pitch": 61, "duration": 4, "velocity": 87}, {"time": 2041, "pitch": 53, "duration": 5, "velocity": 86}, {"time": 2044, "pitch": 58, "duration": 2, "velocity": 86}, {"time": 2044, "pitch": 61, "duration": 1, "velocity": 46}, {"time": 2047, "pitch": 44, "duration": 19, "velocity": 85}, {"time": 2047, "pitch": 56, "duration": 3, "velocity": 90}, {"time": 2047, "pitch": 60, "duration": 7, "velocity": 86}, {"time": 2050, "pitch": 53, "duration": 13, "velocity": 88}, {"time": 2053, "pitch": 56, "duration": 12, "velocity": 89}, {"time": 2056, "pitch": 60, "duration": 9, "velocity": 90}, {"time": 2056, "pitch": 65, "duration": 14, "velocity": 94}, {"time": 2065, "pitch": 53, "duration": 2, "velocity": 84}, {"time": 2068, "pitch": 54, "duration": 2, "velocity": 81}, {"time": 2071, "pitch": 42, "duration": 19, "velocity": 88}, {"time": 2071, "pitch": 54, "duration": 3, "velocity": 92}, {"time": 2071, "pitch": 58, "duration": 5, "velocity": 87}, {"time": 2074, "pitch": 49, "duration": 8, "velocity": 88}, {"time": 2077, "pitch": 54, "duration": 2, "velocity": 86}, {"time": 2080, "pitch": 54, "duration": 9, "velocity": 77}, {"time": 2080, "pitch": 58, "duration": 10, "velocity": 88}, {"time": 2080, "pitch": 61, "duration": 11, "velocity": 88}, {"time": 2080, "pitch": 66, "duration": 14, "velocity": 87}, {"time": 2089, "pitch": 49, "duration": 2, "velocity": 87}, {"time": 2092, "pitch": 54, "duration": 1, "velocity": 88}, {"time": 2095, "pitch": 49, "duration": 21, "velocity": 88}, {"time": 2095, "pitch": 56, "duration": 7, "velocity": 88}, {"time": 2095, "pitch": 61, "duration": 7, "velocity": 87}, {"time": 2101, "pitch": 53, "duration": 4, "velocity": 79}, {"time": 2104, "pitch": 56, "duration": 7, "velocity": 90}, {"time": 2104, "pitch": 61, "duration": 10, "velocity": 91}, {"time": 2104, "pitch": 65, "duration": 11, "velocity": 92}, {"time": 2113, "pitch": 53, "duration": 3, "velocity": 90}, {"time": 2116, "pitch": 56, "duration": 2, "velocity": 94}, {"time": 2119, "pitch": 51, "duration": 13, "velocity": 103}, {"time": 2122, "pitch": 58, "duration": 4, "velocity": 90}, {"time": 2125, "pitch": 63, "duration": 2, "velocity": 87}, {"time": 2128, "pitch": 58, "duration": 4, "velocity": 89}, {"time": 2128, "pitch": 63, "duration": 4, "velocity": 88}, {"time": 2128, "pitch": 66, "duration": 5, "velocity": 88}, {"time": 2134, "pitch": 58, "duration": 2, "velocity": 81}, {"time": 2134, "pitch": 63, "duration": 4, "velocity": 83}, {"time": 2137, "pitch": 58, "duration": 2, "velocity": 80}, {"time": 2143, "pitch": 44, "duration": 19, "velocity": 88}, {"time": 2143, "pitch": 56, "duration": 7, "velocity": 85}, {"time": 2143, "pitch": 60, "duration": 7, "velocity": 86}, {"time": 2146, "pitch": 51, "duration": 7, "velocity": 79}, {"time": 2149, "pitch": 63, "duration": 2, "velocity": 82}, {"time": 2152, "pitch": 56, "duration": 4, "velocity": 88}, {"time": 2152, "pitch": 60, "duration": 5, "velocity": 88}, {"time": 2152, "pitch": 63, "duration": 5, "velocity": 88}, {"time": 2152, "pitch": 68, "duration": 5, "velocity": 85}, {"time": 2158, "pitch": 56, "duration": 2, "velocity": 78}, {"time": 2158, "pitch": 60, "duration": 4, "velocity": 88}, {"time": 2158, "pitch": 63, "duration": 7, "velocity": 86}, {"time": 2161, "pitch": 51, "duration": 2, "velocity": 76}, {"time": 2167, "pitch": 49, "duration": 14, "velocity": 92}, {"time": 2167, "pitch": 56, "duration": 5, "velocity": 88}, {"time": 2167, "pitch": 61, "duration": 7, "velocity": 85}, {"time": 2173, "pitch": 53, "duration": 4, "velocity": 86}, {"time": 2176, "pitch": 56, "duration": 4, "velocity": 93}, {"time": 2176, "pitch": 61, "duration": 4, "velocity": 96}, {"time": 2176, "pitch": 65, "duration": 4, "velocity": 96}, {"time": 2179, "pitch": 53, "duration": 2, "velocity": 76}, {"time": 2182, "pitch": 56, "duration": 3, "velocity": 96}, {"time": 2182, "pitch": 61, "duration": 5, "velocity": 94}, {"time": 2188, "pitch": 56, "duration": 2, "velocity": 87}, {"time": 2191, "pitch": 49, "duration": 21, "velocity": 98}, {"time": 2191, "pitch": 56, "duration": 3, "velocity": 89}, {"time": 2191, "pitch": 65, "duration": 7, "velocity": 89}, {"time": 2197, "pitch": 56, "duration": 5, "velocity": 88}, {"time": 2203, "pitch": 61, "duration": 4, "velocity": 94}, {"time": 2203, "pitch": 65, "duration": 5, "velocity": 103}, {"time": 2209, "pitch": 60, "duration": 3, "velocity": 93}, {"time": 2209, "pitch": 63, "duration": 5, "velocity": 89}, {"time": 2215, "pitch": 46, "duration": 21, "velocity": 88}, {"time": 2215, "pitch": 58, "duration": 4, "velocity": 85}, {"time": 2215, "pitch": 65, "duration": 5, "velocity": 88}, {"time": 2218, "pitch": 53, "duration": 8, "velocity": 80}, {"time": 2221, "pitch": 58, "duration": 2, "velocity": 89}, {"time": 2224, "pitch": 58, "duration": 5, "velocity": 91}, {"time": 2224, "pitch": 61, "duration": 5, "velocity": 96}, {"time": 2224, "pitch": 65, "duration": 5, "velocity": 91}, {"time": 2230, "pitch": 58, "duration": 3, "velocity": 89}, {"time": 2230, "pitch": 61, "duration": 9, "velocity": 91}, {"time": 2230, "pitch": 65, "duration": 8, "velocity": 91}, {"time": 2233, "pitch": 53, "duration": 3, "velocity": 74}, {"time": 2236, "pitch": 58, "duration": 5, "velocity": 86}, {"time": 2239, "pitch": 41, "duration": 16, "velocity": 92}, {"time": 2242, "pitch": 48, "duration": 7, "velocity": 83}, {"time": 2245, "pitch": 53, "duration": 2, "velocity": 93}, {"time": 2248, "pitch": 53, "duration": 4, "velocity": 89}, {"time": 2248, "pitch": 56, "duration": 4, "velocity": 96}, {"time": 2248, "pitch": 60, "duration": 5, "velocity": 92}, {"time": 2251, "pitch": 48, "duration": 4, "velocity": 85}, {"time": 2254, "pitch": 53, "duration": 1, "velocity": 71}, {"time": 2254, "pitch": 56, "duration": 5, "velocity": 87}, {"time": 2254, "pitch": 60, "duration": 6, "velocity": 88}, {"time": 2263, "pitch": 42, "duration": 21, "velocity": 89}, {"time": 2263, "pitch": 54, "duration": 3, "velocity": 85}, {"time": 2263, "pitch": 58, "duration": 5, "velocity": 85}, {"time": 2266, "pitch": 49, "duration": 8, "velocity": 85}, {"time": 2269, "pitch": 54, "duration": 2, "velocity": 88}, {"time": 2272, "pitch": 54, "duration": 7, "velocity": 83}, {"time": 2272, "pitch": 61, "duration": 1, "velocity": 87}, {"time": 2272, "pitch": 66, "duration": 10, "velocity": 89}, {"time": 2278, "pitch": 61, "duration": 5, "velocity": 88}, {"time": 2281, "pitch": 58, "duration": 4, "velocity": 77}, {"time": 2284, "pitch": 54, "duration": 4, "velocity": 83}, {"time": 2287, "pitch": 42, "duration": 19, "velocity": 88}, {"time": 2290, "pitch": 49, "duration": 8, "velocity": 79}, {"time": 2293, "pitch": 54, "duration": 3, "velocity": 88}, {"time": 2296, "pitch": 54, "duration": 10, "velocity": 82}, {"time": 2296, "pitch": 58, "duration": 11, "velocity": 98}, {"time": 2296, "pitch": 61, "duration": 14, "velocity": 96}, {"time": 2305, "pitch": 49, "duration": 2, "velocity": 96}, {"time": 2308, "pitch": 54, "duration": 3, "velocity": 92}, {"time": 2308, "pitch": 58, "duration": 2, "velocity": 65}, {"time": 2311, "pitch": 51, "duration": 19, "velocity": 101}, {"time": 2314, "pitch": 54, "duration": 16, "velocity": 89}, {"time": 2317, "pitch": 58, "duration": 2, "velocity": 90}, {"time": 2320, "pitch": 58, "duration": 3, "velocity": 92}, {"time": 2320, "pitch": 66, "duration": 5, "velocity": 87}, {"time": 2326, "pitch": 58, "duration": 2, "velocity": 89}, {"time": 2326, "pitch": 63, "duration": 4, "velocity": 89}, {"time": 2329, "pitch": 58, "duration": 4, "velocity": 87}, {"time": 2332, "pitch": 63, "duration": 3, "velocity": 84}, {"time": 2335, "pitch": 41, "duration": 20, "velocity": 92}, {"time": 2338, "pitch": 48, "duration": 8, "velocity": 83}, {"time": 2341, "pitch": 53, "duration": 2, "velocity": 89}, {"time": 2344, "pitch": 53, "duration": 4, "velocity": 93}, {"time": 2344, "pitch": 60, "duration": 5, "velocity": 88}, {"time": 2347, "pitch": 48, "duration": 4, "velocity": 79}, {"time": 2350, "pitch": 53, "duration": 4, "velocity": 103}, {"time": 2350, "pitch": 60, "duration": 9, "velocity": 91}, {"time": 2353, "pitch": 48, "duration": 3, "velocity": 87}, {"time": 2356, "pitch": 53, "duration": 3, "velocity": 93}, {"time": 2359, "pitch": 42, "duration": 21, "velocity": 88}, {"time": 2359, "pitch": 54, "duration": 6, "velocity": 80}, {"time": 2359, "pitch": 58, "duration": 7, "velocity": 83}, {"time": 2365, "pitch": 49, "duration": 5, "velocity": 87}, {"time": 2368, "pitch": 54, "duration": 4, "velocity": 101}, {"time": 2371, "pitch": 49, "duration": 4, "velocity": 87}, {"time": 2374, "pitch": 54, "duration": 2, "velocity": 90}, {"time": 2374, "pitch": 58, "duration": 3, "velocity": 89}, {"time": 2374, "pitch": 61, "duration": 3, "velocity": 96}, {"time": 2377, "pitch": 49, "duration": 2, "velocity": 87}, {"time": 2380, "pitch": 54, "duration": 6, "velocity": 88}, {"time": 2380, "pitch": 58, "duration": 7, "velocity": 89}, {"time": 2380, "pitch": 61, "duration": 7, "velocity": 92}, {"time": 2380, "pitch": 66, "duration": 7, "velocity": 88}, {"time": 2383, "pitch": 42, "duration": 24, "velocity": 89}, {"time": 2386, "pitch": 49, "duration": 10, "velocity": 81}, {"time": 2389, "pitch": 54, "duration": 2, "velocity": 88}, {"time": 2389, "pitch": 61, "duration": 1, "velocity": 65}, {"time": 2392, "pitch": 54, "duration": 2, "velocity": 83}, {"time": 2392, "pitch": 58, "duration": 2, "velocity": 89}, {"time": 2392, "pitch": 61, "duration": 2, "velocity": 91}, {"time": 2392, "pitch": 66, "duration": 2, "velocity": 86}, {"time": 2395, "pitch": 54, "duration": 4, "velocity": 98}, {"time": 2395, "pitch": 58, "duration": 5, "velocity": 98}, {"time": 2395, "pitch": 61, "duration": 5, "velocity": 101}, {"time": 2395, "pitch": 66, "duration": 8, "velocity": 90}, {"time": 2398, "pitch": 49, "duration": 9, "velocity": 103}, {"time": 2401, "pitch": 54, "duration": 5, "velocity": 92}, {"time": 2401, "pitch": 58, "duration": 1, "velocity": 61}, {"time": 2401, "pitch": 61, "duration": 2, "velocity": 49}, {"time": 2404, "pitch": 58, "duration": 3, "velocity": 88}, {"time": 2407, "pitch": 46, "duration": 9, "velocity": 88}, {"time": 2407, "pitch": 58, "duration": 4, "velocity": 88}, {"time": 2407, "pitch": 61, "duration": 4, "velocity": 91}, {"time": 2410, "pitch": 53, "duration": 4, "velocity": 77}, {"time": 2413, "pitch": 58, "duration": 7, "velocity": 89}, {"time": 2413, "pitch": 65, "duration": 6, "velocity": 94}, {"time": 2419, "pitch": 53, "duration": 5, "velocity": 85}, {"time": 2422, "pitch": 58, "duration": 2, "velocity": 92}, {"time": 2425, "pitch": 58, "duration": 1, "velocity": 91}, {"time": 2425, "pitch": 61, "duration": 6, "velocity": 101}, {"time": 2425, "pitch": 65, "duration": 8, "velocity": 93}, {"time": 2428, "pitch": 58, "duration": 4, "velocity": 87}, {"time": 2431, "pitch": 41, "duration": 20, "velocity": 93}, {"time": 2434, "pitch": 48, "duration": 5, "velocity": 80}, {"time": 2437, "pitch": 53, "duration": 4, "velocity": 96}, {"time": 2437, "pitch": 60, "duration": 5, "velocity": 88}, {"time": 2440, "pitch": 48, "duration": 11, "velocity": 91}, {"time": 2443, "pitch": 53, "duration": 5, "velocity": 98}, {"time": 2443, "pitch": 60, "duration": 1, "velocity": 59}, {"time": 2446, "pitch": 56, "duration": 2, "velocity": 88}, {"time": 2449, "pitch": 53, "duration": 2, "velocity": 89}, {"time": 2449, "pitch": 56, "duration": 6, "velocity": 93}, {"time": 2449, "pitch": 60, "duration": 7, "velocity": 92}, {"time": 2449, "pitch": 65, "duration": 9, "velocity": 98}, {"time": 2452, "pitch": 53, "duration": 3, "velocity": 96}, {"time": 2455, "pitch": 42, "duration": 10, "velocity": 83}, {"time": 2455, "pitch": 44, "duration": 1, "velocity": 88}, {"time": 2458, "pitch": 49, "duration": 5, "velocity": 88}, {"time": 2461, "pitch": 54, "duration": 6, "velocity": 88}, {"time": 2461, "pitch": 58, "duration": 6, "velocity": 90}, {"time": 2461, "pitch": 61, "duration": 7, "velocity": 92}, {"time": 2467, "pitch": 49, "duration": 5, "velocity": 88}, {"time": 2470, "pitch": 54, "duration": 3, "velocity": 88}, {"time": 2470, "pitch": 58, "duration": 4, "velocity": 94}, {"time": 2470, "pitch": 61, "duration": 4, "velocity": 98}, {"time": 2473, "pitch": 42, "duration": 3, "velocity": 87}, {"time": 2476, "pitch": 54, "duration": 3, "velocity": 94}, {"time": 2476, "pitch": 58, "duration": 1, "velocity": 69}, {"time": 2479, "pitch": 49, "duration": 12, "velocity": 93}, {"time": 2482, "pitch": 56, "duration": 2, "velocity": 82}, {"time": 2485, "pitch": 56, "duration": 1, "velocity": 78}, {"time": 2485, "pitch": 61, "duration": 7, "velocity": 96}, {"time": 2485, "pitch": 65, "duration": 7, "velocity": 96}, {"time": 2488, "pitch": 56, "duration": 4, "velocity": 96}, {"time": 2491, "pitch": 44, "duration": 10, "velocity": 87}, {"time": 2494, "pitch": 56, "duration": 3, "velocity": 90}, {"time": 2497, "pitch": 61, "duration": 4, "velocity": 94}, {"time": 2497, "pitch": 65, "duration": 5, "velocity": 94}, {"time": 2500, "pitch": 56, "duration": 2, "velocity": 89}, {"time": 2503, "pitch": 51, "duration": 11, "velocity": 88}, {"time": 2509, "pitch": 58, "duration": 3, "velocity": 89}, {"time": 2509, "pitch": 63, "duration": 7, "velocity": 92}, {"time": 2509, "pitch": 66, "duration": 7, "velocity": 90}, {"time": 2512, "pitch": 58, "duration": 2, "velocity": 74}, {"time": 2515, "pitch": 46, "duration": 9, "velocity": 88}, {"time": 2518, "pitch": 58, "duration": 4, "velocity": 88}, {"time": 2518, "pitch": 63, "duration": 5, "velocity": 93}, {"time": 2518, "pitch": 66, "duration": 5, "velocity": 90}, {"time": 2524, "pitch": 58, "duration": 3, "velocity": 88}, {"time": 2524, "pitch": 63, "duration": 1, "velocity": 76}, {"time": 2524, "pitch": 66, "duration": 2, "velocity": 76}, {"time": 2527, "pitch": 44, "duration": 10, "velocity": 87}, {"time": 2533, "pitch": 56, "duration": 5, "velocity": 89}, {"time": 2533, "pitch": 60, "duration": 5, "velocity": 88}, {"time": 2533, "pitch": 63, "duration": 5, "velocity": 90}, {"time": 2539, "pitch": 51, "duration": 5, "velocity": 82}, {"time": 2542, "pitch": 56, "duration": 3, "velocity": 87}, {"time": 2542, "pitch": 60, "duration": 4, "velocity": 94}, {"time": 2542, "pitch": 63, "duration": 4, "velocity": 94}, {"time": 2542, "pitch": 68, "duration": 4, "velocity": 87}, {"time": 2545, "pitch": 44, "duration": 5, "velocity": 87}, {"time": 2548, "pitch": 56, "duration": 2, "velocity": 88}, {"time": 2551, "pitch": 49, "duration": 10, "velocity": 89}, {"time": 2551, "pitch": 56, "duration": 4, "velocity": 91}, {"time": 2551, "pitch": 61, "duration": 4, "velocity": 88}, {"time": 2557, "pitch": 56, "duration": 3, "velocity": 91}, {"time": 2557, "pitch": 61, "duration": 7, "velocity": 96}, {"time": 2557, "pitch": 65, "duration": 7, "velocity": 98}, {"time": 2563, "pitch": 44, "duration": 10, "velocity": 86}, {"time": 2566, "pitch": 56, "duration": 3, "velocity": 98}, {"time": 2566, "pitch": 61, "duration": 4, "velocity": 104}, {"time": 2566, "pitch": 65, "duration": 4, "velocity": 101}, {"time": 2572, "pitch": 56, "duration": 2, "velocity": 87}, {"time": 2575, "pitch": 49, "duration": 10, "velocity": 89}, {"time": 2575, "pitch": 56, "duration": 3, "velocity": 88}, {"time": 2575, "pitch": 61, "duration": 4, "velocity": 88}, {"time": 2581, "pitch": 56, "duration": 2, "velocity": 96}, {"time": 2581, "pitch": 61, "duration": 6, "velocity": 96}, {"time": 2581, "pitch": 65, "duration": 6, "velocity": 93}, {"time": 2584, "pitch": 56, "duration": 3, "velocity": 91}, {"time": 2587, "pitch": 44, "duration": 9, "velocity": 87}, {"time": 2590, "pitch": 56, "duration": 4, "velocity": 94}, {"time": 2590, "pitch": 61, "duration": 5, "velocity": 93}, {"time": 2590, "pitch": 65, "duration": 5, "velocity": 98}, {"time": 2596, "pitch": 56, "duration": 2, "velocity": 88}, {"time": 2596, "pitch": 61, "duration": 2, "velocity": 87}, {"time": 2596, "pitch": 65, "duration": 2, "velocity": 88}, {"time": 2599, "pitch": 46, "duration": 9, "velocity": 89}, {"time": 2599, "pitch": 58, "duration": 4, "velocity": 88}, {"time": 2599, "pitch": 61, "duration": 4, "velocity": 88}, {"time": 2605, "pitch": 58, "duration": 7, "velocity": 92}, {"time": 2605, "pitch": 61, "duration": 7, "velocity": 94}, {"time": 2605, "pitch": 65, "duration": 7, "velocity": 94}, {"time": 2611, "pitch": 53, "duration": 6, "velocity": 83}, {"time": 2614, "pitch": 58, "duration": 3, "velocity": 90}, {"time": 2614, "pitch": 61, "duration": 4, "velocity": 101}, {"time": 2614, "pitch": 65, "duration": 4, "velocity": 101}, {"time": 2620, "pitch": 58, "duration": 3, "velocity": 94}, {"time": 2620, "pitch": 61, "duration": 1, "velocity": 74}, {"time": 2623, "pitch": 41, "duration": 10, "velocity": 89}, {"time": 2626, "pitch": 48, "duration": 5, "velocity": 88}, {"time": 2629, "pitch": 53, "duration": 6, "velocity": 92}, {"time": 2629, "pitch": 56, "duration": 5, "velocity": 93}, {"time": 2629, "pitch": 60, "duration": 4, "velocity": 90}, {"time": 2635, "pitch": 48, "duration": 5, "velocity": 80}, {"time": 2638, "pitch": 53, "duration": 4, "velocity": 96}, {"time": 2638, "pitch": 56, "duration": 4, "velocity": 101}, {"time": 2638, "pitch": 60, "duration": 4, "velocity": 93}, {"time": 2638, "pitch": 65, "duration": 4, "velocity": 90}, {"time": 2641, "pitch": 41, "duration": 4, "velocity": 87}, {"time": 2644, "pitch": 53, "duration": 3, "velocity": 101}, {"time": 2644, "pitch": 56, "duration": 1, "velocity": 80}, {"time": 2644, "pitch": 60, "duration": 2, "velocity": 72}, {"time": 2644, "pitch": 65, "duration": 1, "velocity": 58}, {"time": 2647, "pitch": 42, "duration": 8, "velocity": 90}, {"time": 2653, "pitch": 54, "duration": 8, "velocity": 91}, {"time": 2653, "pitch": 58, "duration": 7, "velocity": 93}, {"time": 2653, "pitch": 61, "duration": 7, "velocity": 101}, {"time": 2653, "pitch": 66, "duration": 7, "velocity": 87}, {"time": 2659, "pitch": 49, "duration": 5, "velocity": 87}, {"time": 2662, "pitch": 54, "duration": 4, "velocity": 90}, {"time": 2662, "pitch": 58, "duration": 4, "velocity": 96}, {"time": 2662, "pitch": 61, "duration": 4, "velocity": 93}, {"time": 2662, "pitch": 66, "duration": 4, "velocity": 91}, {"time": 2665, "pitch": 42, "duration": 3, "velocity": 81}, {"time": 2668, "pitch": 54, "duration": 5, "velocity": 93}, {"time": 2668, "pitch": 58, "duration": 6, "velocity": 94}, {"time": 2668, "pitch": 61, "duration": 6, "velocity": 96}, {"time": 2668, "pitch": 66, "duration": 5, "velocity": 88}, {"time": 2671, "pitch": 42, "duration": 9, "velocity": 89}, {"time": 2674, "pitch": 49, "duration": 5, "velocity": 82}, {"time": 2677, "pitch": 54, "duration": 7, "velocity": 90}, {"time": 2677, "pitch": 58, "duration": 7, "velocity": 90}, {"time": 2677, "pitch": 61, "duration": 7, "velocity": 90}, {"time": 2677, "pitch": 66, "duration": 7, "velocity": 88}, {"time": 2683, "pitch": 49, "duration": 5, "velocity": 88}, {"time": 2686, "pitch": 54, "duration": 4, "velocity": 89}, {"time": 2686, "pitch": 58, "duration": 4, "velocity": 103}, {"time": 2686, "pitch": 61, "duration": 4, "velocity": 96}, {"time": 2686, "pitch": 66, "duration": 4, "velocity": 89}, {"time": 2689, "pitch": 42, "duration": 2, "velocity": 87}, {"time": 2692, "pitch": 54, "duration": 1, "velocity": 96}, {"time": 2695, "pitch": 51, "duration": 11, "velocity": 93}, {"time": 2695, "pitch": 58, "duration": 4, "velocity": 83}, {"time": 2695, "pitch": 63, "duration": 4, "velocity": 91}, {"time": 2701, "pitch": 58, "duration": 7, "velocity": 91}, {"time": 2701, "pitch": 63, "duration": 8, "velocity": 91}, {"time": 2701, "pitch": 66, "duration": 8, "velocity": 89}, {"time": 2710, "pitch": 58, "duration": 4, "velocity": 93}, {"time": 2710, "pitch": 63, "duration": 4, "velocity": 94}, {"time": 2710, "pitch": 66, "duration": 4, "velocity": 94}, {"time": 2713, "pitch": 51, "duration": 2, "velocity": 40}, {"time": 2716, "pitch": 58, "duration": 4, "velocity": 96}, {"time": 2716, "pitch": 63, "duration": 1, "velocity": 85}, {"time": 2719, "pitch": 41, "duration": 9, "velocity": 90}, {"time": 2725, "pitch": 53, "duration": 6, "velocity": 98}, {"time": 2725, "pitch": 65, "duration": 6, "velocity": 90}, {"time": 2731, "pitch": 48, "duration": 4, "velocity": 79}, {"time": 2734, "pitch": 53, "duration": 4, "velocity": 96}, {"time": 2734, "pitch": 57, "duration": 4, "velocity": 96}, {"time": 2734, "pitch": 60, "duration": 4, "velocity": 94}, {"time": 2734, "pitch": 65, "duration": 4, "velocity": 91}, {"time": 2737, "pitch": 41, "duration": 2, "velocity": 88}, {"time": 2740, "pitch": 53, "duration": 3, "velocity": 92}, {"time": 2740, "pitch": 57, "duration": 2, "velocity": 76}, {"time": 2740, "pitch": 60, "duration": 3, "velocity": 87}, {"time": 2740, "pitch": 65, "duration": 5, "velocity": 89}, {"time": 2743, "pitch": 46, "duration": 16, "velocity": 92}, {"time": 2746, "pitch": 53, "duration": 5, "velocity": 81}, {"time": 2749, "pitch": 58, "duration": 6, "velocity": 92}, {"time": 2749, "pitch": 61, "duration": 6, "velocity": 98}, {"time": 2749, "pitch": 65, "duration": 7, "velocity": 94}, {"time": 2755, "pitch": 53, "duration": 4, "velocity": 87}, {"time": 2758, "pitch": 58, "duration": 2, "velocity": 87}, {"time": 2758, "pitch": 61, "duration": 1, "velocity": 91}, {"time": 2758, "pitch": 65, "duration": 2, "velocity": 90}, {"time": 2767, "pitch": 46, "duration": 26, "velocity": 88}, {"time": 2767, "pitch": 58, "duration": 6, "velocity": 87}, {"time": 2767, "pitch": 70, "duration": 5, "velocity": 87}, {"time": 2773, "pitch": 53, "duration": 4, "velocity": 81}, {"time": 2776, "pitch": 60, "duration": 5, "velocity": 94}, {"time": 2779, "pitch": 53, "duration": 13, "velocity": 82}, {"time": 2782, "pitch": 58, "duration": 10, "velocity": 89}, {"time": 2782, "pitch": 61, "duration": 10, "velocity": 92}, {"time": 2791, "pitch": 49, "duration": 21, "velocity": 88}, {"time": 2794, "pitch": 56, "duration": 19, "velocity": 81}, {"time": 2797, "pitch": 61, "duration": 7, "velocity": 87}, {"time": 2800, "pitch": 65, "duration": 4, "velocity": 88}, {"time": 2800, "pitch": 73, "duration": 5, "velocity": 88}, {"time": 2806, "pitch": 61, "duration": 12, "velocity": 79}, {"time": 2806, "pitch": 65, "duration": 13, "velocity": 87}, {"time": 2806, "pitch": 68, "duration": 14, "velocity": 78}, {"time": 2815, "pitch": 49, "duration": 18, "velocity": 88}, {"time": 2818, "pitch": 56, "duration": 15, "velocity": 76}, {"time": 2821, "pitch": 61, "duration": 3, "velocity": 90}, {"time": 2824, "pitch": 61, "duration": 5, "velocity": 73}, {"time": 2824, "pitch": 68, "duration": 6, "velocity": 86}, {"time": 2830, "pitch": 61, "duration": 4, "velocity": 86}, {"time": 2830, "pitch": 65, "duration": 4, "velocity": 89}, {"time": 2830, "pitch": 68, "duration": 3, "velocity": 81}, {"time": 2839, "pitch": 46, "duration": 21, "velocity": 82}, {"time": 2842, "pitch": 53, "duration": 18, "velocity": 77}, {"time": 2845, "pitch": 56, "duration": 3, "velocity": 87}, {"time": 2848, "pitch": 56, "duration": 18, "velocity": 86}, {"time": 2848, "pitch": 61, "duration": 19, "velocity": 82}, {"time": 2863, "pitch": 46, "duration": 18, "velocity": 87}, {"time": 2866, "pitch": 53, "duration": 15, "velocity": 79}, {"time": 2869, "pitch": 56, "duration": 3, "velocity": 89}, {"time": 2872, "pitch": 56, "duration": 4, "velocity": 87}, {"time": 2872, "pitch": 61, "duration": 4, "velocity": 88}, {"time": 2872, "pitch": 65, "duration": 5, "velocity": 91}, {"time": 2878, "pitch": 56, "duration": 2, "velocity": 88}, {"time": 2878, "pitch": 61, "duration": 9, "velocity": 87}, {"time": 2881, "pitch": 56, "duration": 5, "velocity": 86}, {"time": 2887, "pitch": 49, "duration": 21, "velocity": 89}, {"time": 2890, "pitch": 56, "duration": 17, "velocity": 77}, {"time": 2893, "pitch": 61, "duration": 2, "velocity": 81}, {"time": 2896, "pitch": 61, "duration": 17, "velocity": 88}, {"time": 2896, "pitch": 68, "duration": 17, "velocity": 83}, {"time": 2911, "pitch": 49, "duration": 20, "velocity": 91}, {"time": 2914, "pitch": 56, "duration": 16, "velocity": 79}, {"time": 2917, "pitch": 61, "duration": 19, "velocity": 87}, {"time": 2920, "pitch": 65, "duration": 16, "velocity": 85}, {"time": 2920, "pitch": 68, "duration": 16, "velocity": 88}, {"time": 2935, "pitch": 46, "duration": 22, "velocity": 87}, {"time": 2938, "pitch": 53, "duration": 19, "velocity": 80}, {"time": 2941, "pitch": 56, "duration": 2, "velocity": 82}, {"time": 2944, "pitch": 56, "duration": 15, "velocity": 89}, {"time": 2944, "pitch": 61, "duration": 19, "velocity": 88}, {"time": 2959, "pitch": 46, "duration": 20, "velocity": 88}, {"time": 2962, "pitch": 53, "duration": 8, "velocity": 77}, {"time": 2965, "pitch": 58, "duration": 2, "velocity": 80}, {"time": 2968, "pitch": 58, "duration": 9, "velocity": 83}, {"time": 2968, "pitch": 61, "duration": 15, "velocity": 88}, {"time": 2968, "pitch": 65, "duration": 16, "velocity": 89}, {"time": 2977, "pitch": 53, "duration": 3, "velocity": 78}, {"time": 2980, "pitch": 58, "duration": 5, "velocity": 79}, {"time": 2983, "pitch": 42, "duration": 21, "velocity": 88}, {"time": 2986, "pitch": 49, "duration": 18, "velocity": 78}, {"time": 2989, "pitch": 54, "duration": 21, "velocity": 82}, {"time": 2992, "pitch": 58, "duration": 22, "velocity": 88}, {"time": 2992, "pitch": 61, "duration": 23, "velocity": 88}, {"time": 3007, "pitch": 42, "duration": 18, "velocity": 88}, {"time": 3010, "pitch": 49, "duration": 15, "velocity": 78}, {"time": 3013, "pitch": 54, "duration": 3, "velocity": 83}, {"time": 3016, "pitch": 54, "duration": 11, "velocity": 87}, {"time": 3016, "pitch": 58, "duration": 12, "velocity": 89}, {"time": 3016, "pitch": 61, "duration": 14, "velocity": 88}, {"time": 3031, "pitch": 49, "duration": 22, "velocity": 91}, {"time": 3034, "pitch": 56, "duration": 19, "velocity": 77}, {"time": 3037, "pitch": 61, "duration": 3, "velocity": 90}, {"time": 3040, "pitch": 61, "duration": 14, "velocity": 73}, {"time": 3040, "pitch": 65, "duration": 8, "velocity": 88}, {"time": 3040, "pitch": 72, "duration": 13, "velocity": 88}, {"time": 3055, "pitch": 49, "duration": 18, "velocity": 91}, {"time": 3055, "pitch": 65, "duration": 7, "velocity": 89}, {"time": 3055, "pitch": 68, "duration": 7, "velocity": 82}, {"time": 3058, "pitch": 56, "duration": 14, "velocity": 80}, {"time": 3061, "pitch": 61, "duration": 2, "velocity": 82}, {"time": 3064, "pitch": 61, "duration": 4, "velocity": 77}, {"time": 3064, "pitch": 65, "duration": 4, "velocity": 88}, {"time": 3064, "pitch": 68, "duration": 4, "velocity": 81}, {"time": 3064, "pitch": 72, "duration": 4, "velocity": 87}, {"time": 3070, "pitch": 61, "duration": 2, "velocity": 86}, {"time": 3070, "pitch": 65, "duration": 9, "velocity": 88}, {"time": 3070, "pitch": 68, "duration": 9, "velocity": 84}, {"time": 3073, "pitch": 61, "duration": 6, "velocity": 84}, {"time": 3079, "pitch": 51, "duration": 15, "velocity": 91}, {"time": 3082, "pitch": 58, "duration": 4, "velocity": 87}, {"time": 3085, "pitch": 63, "duration": 2, "velocity": 85}, {"time": 3088, "pitch": 58, "duration": 18, "velocity": 85}, {"time": 3088, "pitch": 63, "duration": 21, "velocity": 87}, {"time": 3088, "pitch": 66, "duration": 21, "velocity": 87}, {"time": 3103, "pitch": 39, "duration": 16, "velocity": 92}, {"time": 3106, "pitch": 46, "duration": 12, "velocity": 75}, {"time": 3109, "pitch": 58, "duration": 17, "velocity": 84}, {"time": 3112, "pitch": 63, "duration": 14, "velocity": 89}, {"time": 3112, "pitch": 66, "duration": 19, "velocity": 88}, {"time": 3124, "pitch": 61, "duration": 10, "velocity": 82}, {"time": 3127, "pitch": 37, "duration": 2, "velocity": 83}, {"time": 3127, "pitch": 65, "duration": 9, "velocity": 80}, {"time": 3127, "pitch": 68, "duration": 8, "velocity": 77}, {"time": 3127, "pitch": 73, "duration": 7, "velocity": 83}, {"time": 3133, "pitch": 49, "duration": 5, "velocity": 83}, {"time": 3136, "pitch": 56, "duration": 2, "velocity": 77}, {"time": 3139, "pitch": 61, "duration": 3, "velocity": 74}, {"time": 3142, "pitch": 63, "duration": 3, "velocity": 73}, {"time": 3145, "pitch": 65, "duration": 2, "velocity": 83}, {"time": 3148, "pitch": 61, "duration": 54, "velocity": 78}, {"time": 3154, "pitch": 68, "duration": 17, "velocity": 63}, {"time": 3178, "pitch": 68, "duration": 21, "velocity": 44}, {"time": 3181, "pitch": 80, "duration": 2, "velocity": 53}, {"time": 3181, "pitch": 84, "duration": 2, "velocity": 79}, {"time": 3181, "pitch": 89, "duration": 2, "velocity": 80}], "annotations": [{"time": 7, "annotation": {"number": 64, "value": 127}, "group": "control_change"}, {"time": 29, "annotation": {"number": 64, "value": 0}, "group": "control_change"}, {"time": 33, "annotation": {"number": 64, "value": 127}, "group": "control_change"}, {"time": 54, "annotation": {"number": 64, "value": 0}, "group": "control_change"}, {"time": 56, "annotation": {"number": 64, "value": 127}, "group": "control_change"}, {"time": 77, "annotation": {"number": 64, "value": 0}, "group": "control_change"}, {"time": 79, "annotation": {"number": 64, "value": 127}, "group": "control_change"}, {"time": 102, "annotation": {"number": 64, "value": 0}, "group": "control_change"}, {"time": 104, "annotation": {"number": 64, "value": 127}, "group": "control_change"}, {"time": 152, "annotation": {"number": 64, "value": 0}, "group": "control_change"}, {"time": 153, "annotation": {"number": 64, "value": 127}, "group": "control_change"}, {"time": 175, "annotation": {"number": 64, "value": 0}, "group": "control_change"}, {"time": 176, "annotation": {"number": 64, "value": 127}, "group": "control_change"}, {"time": 198, "annotation": {"number": 64, "value": 0}, "group": "control_change"}, {"time": 202, "annotation": {"number": 64, "value": 127}, "group": "control_change"}, {"time": 223, "annotation": {"number": 64, "value": 0}, "group": "control_change"}, {"time": 225, "annotation": {"number": 64, "value": 127}, "group": "control_change"}, {"time": 246, "annotation": {"number": 64, "value": 0}, "group": "control_change"}, {"time": 248, "annotation": {"number": 64, "value": 127}, "group": "control_change"}, {"time": 271, "annotation": {"number": 64, "value": 0}, "group": "control_change"}, {"time": 273, "annotation": {"number": 64, "value": 127}, "group": "control_change"}, {"time": 294, "annotation": {"number": 64, "value": 0}, "group": "control_change"}, {"time": 296, "annotation": {"number": 64, "value": 127}, "group": "control_change"}, {"time": 319, "annotation": {"number": 64, "value": 0}, "group": "control_change"}, {"time": 322, "annotation": {"number": 64, "value": 127}, "group": "control_change"}, {"time": 345, "annotation": {"number": 64, "value": 127}, "group": "control_change"}, {"time": 368, "annotation": {"number": 64, "value": 0}, "group": "control_change"}, {"time": 372, "annotation": {"number": 64, "value": 127}, "group": "control_change"}, {"time": 391, "annotation": {"number": 64, "value": 0}, "group": "control_change"}, {"time": 392, "annotation": {"number": 64, "value": 127}, "group": "control_change"}, {"time": 416, "annotation": {"number": 64, "value": 0}, "group": "control_change"}, {"time": 420, "annotation": {"number": 64, "value": 127}, "group": "control_change"}, {"time": 438, "annotation": {"number": 64, "value": 0}, "group": "control_change"}, {"time": 442, "annotation": {"number": 64, "value": 127}, "group": "control_change"}, {"time": 463, "annotation": {"number": 64, "value": 0}, "group": "control_change"}, {"time": 465, "annotation": {"number": 64, "value": 127}, "group": "control_change"}, {"time": 486, "annotation": {"number": 64, "value": 0}, "group": "control_change"}, {"time": 488, "annotation": {"number": 64, "value": 127}, "group": "control_change"}, {"time": 536, "annotation": {"number": 64, "value": 0}, "group": "control_change"}, {"time": 537, "annotation": {"number": 64, "value": 127}, "group": "control_change"}, {"time": 559, "annotation": {"number": 64, "value": 0}, "group": "control_change"}, {"time": 560, "annotation": {"number": 64, "value": 127}, "group": "control_change"}, {"time": 582, "annotation": {"number": 64, "value": 0}, "group": "control_change"}, {"time": 586, "annotation": {"number": 64, "value": 127}, "group": "control_change"}, {"time": 607, "annotation": {"number": 64, "value": 0}, "group": "control_change"}, {"time": 609, "annotation": {"number": 64, "value": 127}, "group": "control_change"}, {"time": 630, "annotation": {"number": 64, "value": 0}, "group": "control_change"}, {"time": 632, "annotation": {"number": 64, "value": 127}, "group": "control_change"}, {"time": 655, "annotation": {"number": 64, "value": 0}, "group": "control_change"}, {"time": 657, "annotation": {"number": 64, "value": 127}, "group": "control_change"}, {"time": 678, "annotation": {"number": 64, "value": 0}, "group": "control_change"}, {"time": 680, "annotation": {"number": 64, "value": 127}, "group": "control_change"}, {"time": 703, "annotation": {"number": 64, "value": 0}, "group": "control_change"}, {"time": 706, "annotation": {"number": 64, "value": 127}, "group": "control_change"}, {"time": 729, "annotation": {"number": 64, "value": 127}, "group": "control_change"}, {"time": 752, "annotation": {"number": 64, "value": 0}, "group": "control_change"}, {"time": 756, "annotation": {"number": 64, "value": 127}, "group": "control_change"}, {"time": 775, "annotation": {"number": 64, "value": 0}, "group": "control_change"}, {"time": 776, "annotation": {"number": 64, "value": 127}, "group": "control_change"}, {"time": 800, "annotation": {"number": 64, "value": 0}, "group": "control_change"}, {"time": 804, "annotation": {"number": 64, "value": 127}, "group": "control_change"}, {"time": 822, "annotation": {"number": 64, "value": 0}, "group": "control_change"}, {"time": 826, "annotation": {"number": 64, "value": 127}, "group": "control_change"}, {"time": 847, "annotation": {"number": 64, "value": 0}, "group": "control_change"}, {"time": 849, "annotation": {"number": 64, "value": 127}, "group": "control_change"}, {"time": 870, "annotation": {"number": 64, "value": 0}, "group": "control_change"}, {"time": 872, "annotation": {"number": 64, "value": 127}, "group": "control_change"}, {"time": 897, "annotation": {"number": 64, "value": 0}, "group": "control_change"}, {"time": 898, "annotation": {"number": 64, "value": 127}, "group": "control_change"}, {"time": 920, "annotation": {"number": 64, "value": 0}, "group": "control_change"}, {"time": 922, "annotation": {"number": 64, "value": 127}, "group": "control_change"}, {"time": 942, "annotation": {"number": 64, "value": 0}, "group": "control_change"}, {"time": 944, "annotation": {"number": 64, "value": 127}, "group": "control_change"}, {"time": 966, "annotation": {"number": 64, "value": 0}, "group": "control_change"}, {"time": 968, "annotation": {"number": 64, "value": 127}, "group": "control_change"}, {"time": 991, "annotation": {"number": 64, "value": 0}, "group": "control_change"}, {"time": 996, "annotation": {"number": 64, "value": 127}, "group": "control_change"}, {"time": 1016, "annotation": {"number": 64, "value": 0}, "group": "control_change"}, {"time": 1020, "annotation": {"number": 64, "value": 127}, "group": "control_change"}, {"time": 1038, "annotation": {"number": 64, "value": 0}, "group": "control_change"}, {"time": 1040, "annotation": {"number": 64, "value": 127}, "group": "control_change"}, {"time": 1062, "annotation": {"number": 64, "value": 0}, "group": "control_change"}, {"time": 1064, "annotation": {"number": 64, "value": 127}, "group": "control_change"}, {"time": 1086, "annotation": {"number": 64, "value": 0}, "group": "control_change"}, {"time": 1088, "annotation": {"number": 64, "value": 127}, "group": "control_change"}, {"time": 1112, "annotation": {"number": 64, "value": 0}, "group": "control_change"}, {"time": 1116, "annotation": {"number": 64, "value": 127}, "group": "control_change"}, {"time": 1135, "annotation": {"number": 64, "value": 0}, "group": "control_change"}, {"time": 1137, "annotation": {"number": 64, "value": 127}, "group": "control_change"}, {"time": 1157, "annotation": {"number": 64, "value": 0}, "group": "control_change"}, {"time": 1159, "annotation": {"number": 64, "value": 127}, "group": "control_change"}, {"time": 1183, "annotation": {"number": 64, "value": 0}, "group": "control_change"}, {"time": 1185, "annotation": {"number": 64, "value": 127}, "group": "control_change"}, {"time": 1206, "annotation": {"number": 64, "value": 0}, "group": "control_change"}, {"time": 1208, "annotation": {"number": 64, "value": 127}, "group": "control_change"}, {"time": 1230, "annotation": {"number": 64, "value": 0}, "group": "control_change"}, {"time": 1232, "annotation": {"number": 64, "value": 127}, "group": "control_change"}, {"time": 1253, "annotation": {"number": 64, "value": 0}, "group": "control_change"}, {"time": 1256, "annotation": {"number": 64, "value": 127}, "group": "control_change"}, {"time": 1279, "annotation": {"number": 64, "value": 0}, "group": "control_change"}, {"time": 1281, "annotation": {"number": 64, "value": 127}, "group": "control_change"}, {"time": 1291, "annotation": {"number": 64, "value": 0}, "group": "control_change"}, {"time": 1294, "annotation": {"number": 64, "value": 127}, "group": "control_change"}, {"time": 1303, "annotation": {"number": 64, "value": 0}, "group": "control_change"}, {"time": 1305, "annotation": {"number": 64, "value": 127}, "group": "control_change"}, {"time": 1314, "annotation": {"number": 64, "value": 0}, "group": "control_change"}, {"time": 1323, "annotation": {"number": 64, "value": 127}, "group": "control_change"}, {"time": 1350, "annotation": {"number": 64, "value": 0}, "group": "control_change"}, {"time": 1353, "annotation": {"number": 64, "value": 127}, "group": "control_change"}, {"time": 1375, "annotation": {"number": 64, "value": 0}, "group": "control_change"}, {"time": 1377, "annotation": {"number": 64, "value": 127}, "group": "control_change"}, {"time": 1397, "annotation": {"number": 64, "value": 0}, "group": "control_change"}, {"time": 1402, "annotation": {"number": 64, "value": 127}, "group": "control_change"}, {"time": 1420, "annotation": {"number": 64, "value": 0}, "group": "control_change"}, {"time": 1423, "annotation": {"number": 64, "value": 127}, "group": "control_change"}, {"time": 1446, "annotation": {"number": 64, "value": 0}, "group": "control_change"}, {"time": 1448, "annotation": {"number": 64, "value": 127}, "group": "control_change"}, {"time": 1470, "annotation": {"number": 64, "value": 0}, "group": "control_change"}, {"time": 1473, "annotation": {"number": 64, "value": 127}, "group": "control_change"}, {"time": 1494, "annotation": {"number": 64, "value": 0}, "group": "control_change"}, {"time": 1497, "annotation": {"number": 64, "value": 127}, "group": "control_change"}, {"time": 1518, "annotation": {"number": 64, "value": 0}, "group": "control_change"}, {"time": 1519, "annotation": {"number": 64, "value": 127}, "group": "control_change"}, {"time": 1541, "annotation": {"number": 64, "value": 0}, "group": "control_change"}, {"time": 1543, "annotation": {"number": 64, "value": 127}, "group": "control_change"}, {"time": 1566, "annotation": {"number": 64, "value": 0}, "group": "control_change"}, {"time": 1568, "annotation": {"number": 64, "value": 127}, "group": "control_change"}, {"time": 1590, "annotation": {"number": 64, "value": 0}, "group": "control_change"}, {"time": 1596, "annotation": {"number": 64, "value": 127}, "group": "control_change"}, {"time": 1615, "annotation": {"number": 64, "value": 0}, "group": "control_change"}, {"time": 1616, "annotation": {"number": 64, "value": 127}, "group": "control_change"}, {"time": 1635, "annotation": {"number": 64, "value": 0}, "group": "control_change"}, {"time": 1640, "annotation": {"number": 64, "value": 127}, "group": "control_change"}, {"time": 1663, "annotation": {"number": 64, "value": 0}, "group": "control_change"}, {"time": 1666, "annotation": {"number": 64, "value": 127}, "group": "control_change"}, {"time": 1685, "annotation": {"number": 64, "value": 0}, "group": "control_change"}, {"time": 1689, "annotation": {"number": 64, "value": 127}, "group": "control_change"}, {"time": 1711, "annotation": {"number": 64, "value": 0}, "group": "control_change"}, {"time": 1712, "annotation": {"number": 64, "value": 127}, "group": "control_change"}, {"time": 1734, "annotation": {"number": 64, "value": 0}, "group": "control_change"}, {"time": 1737, "annotation": {"number": 64, "value": 127}, "group": "control_change"}, {"time": 1757, "annotation": {"number": 64, "value": 0}, "group": "control_change"}, {"time": 1759, "annotation": {"number": 64, "value": 127}, "group": "control_change"}, {"time": 1782, "annotation": {"number": 64, "value": 0}, "group": "control_change"}, {"time": 1784, "annotation": {"number": 64, "value": 127}, "group": "control_change"}, {"time": 1806, "annotation": {"number": 64, "value": 0}, "group": "control_change"}, {"time": 1809, "annotation": {"number": 64, "value": 127}, "group": "control_change"}, {"time": 1829, "annotation": {"number": 64, "value": 0}, "group": "control_change"}, {"time": 1832, "annotation": {"number": 64, "value": 127}, "group": "control_change"}, {"time": 1857, "annotation": {"number": 64, "value": 0}, "group": "control_change"}, {"time": 1860, "annotation": {"number": 64, "value": 127}, "group": "control_change"}, {"time": 1879, "annotation": {"number": 64, "value": 0}, "group": "control_change"}, {"time": 1880, "annotation": {"number": 64, "value": 127}, "group": "control_change"}, {"time": 1902, "annotation": {"number": 64, "value": 0}, "group": "control_change"}, {"time": 1903, "annotation": {"number": 64, "value": 127}, "group": "control_change"}, {"time": 1926, "annotation": {"number": 64, "value": 0}, "group": "control_change"}, {"time": 1927, "annotation": {"number": 64, "value": 127}, "group": "control_change"}, {"time": 1950, "annotation": {"number": 64, "value": 0}, "group": "control_change"}, {"time": 1952, "annotation": {"number": 64, "value": 127}, "group": "control_change"}, {"time": 1975, "annotation": {"number": 64, "value": 0}, "group": "control_change"}, {"time": 1979, "annotation": {"number": 64, "value": 127}, "group": "control_change"}, {"time": 1999, "annotation": {"number": 64, "value": 0}, "group": "control_change"}, {"time": 2001, "annotation": {"number": 64, "value": 127}, "group": "control_change"}, {"time": 2021, "annotation": {"number": 64, "value": 0}, "group": "control_change"}, {"time": 2024, "annotation": {"number": 64, "value": 127}, "group": "control_change"}, {"time": 2049, "annotation": {"number": 64, "value": 0}, "group": "control_change"}, {"time": 2050, "annotation": {"number": 64, "value": 127}, "group": "control_change"}, {"time": 2072, "annotation": {"number": 64, "value": 0}, "group": "control_change"}, {"time": 2074, "annotation": {"number": 64, "value": 127}, "group": "control_change"}, {"time": 2094, "annotation": {"number": 64, "value": 0}, "group": "control_change"}, {"time": 2096, "annotation": {"number": 64, "value": 127}, "group": "control_change"}, {"time": 2118, "annotation": {"number": 64, "value": 0}, "group": "control_change"}, {"time": 2120, "annotation": {"number": 64, "value": 127}, "group": "control_change"}, {"time": 2143, "annotation": {"number": 64, "value": 0}, "group": "control_change"}, {"time": 2148, "annotation": {"number": 64, "value": 127}, "group": "control_change"}, {"time": 2168, "annotation": {"number": 64, "value": 0}, "group": "control_change"}, {"time": 2172, "annotation": {"number": 64, "value": 127}, "group": "control_change"}, {"time": 2190, "annotation": {"number": 64, "value": 0}, "group": "control_change"}, {"time": 2192, "annotation": {"number": 64, "value": 127}, "group": "control_change"}, {"time": 2214, "annotation": {"number": 64, "value": 0}, "group": "control_change"}, {"time": 2216, "annotation": {"number": 64, "value": 127}, "group": "control_change"}, {"time": 2238, "annotation": {"number": 64, "value": 0}, "group": "control_change"}, {"time": 2240, "annotation": {"number": 64, "value": 127}, "group": "control_change"}, {"time": 2264, "annotation": {"number": 64, "value": 0}, "group": "control_change"}, {"time": 2268, "annotation": {"number": 64, "value": 127}, "group": "control_change"}, {"time": 2287, "annotation": {"number": 64, "value": 0}, "group": "control_change"}, {"time": 2289, "annotation": {"number": 64, "value": 127}, "group": "control_change"}, {"time": 2309, "annotation": {"number": 64, "value": 0}, "group": "control_change"}, {"time": 2311, "annotation": {"number": 64, "value": 127}, "group": "control_change"}, {"time": 2335, "annotation": {"number": 64, "value": 0}, "group": "control_change"}, {"time": 2337, "annotation": {"number": 64, "value": 127}, "group": "control_change"}, {"time": 2358, "annotation": {"number": 64, "value": 0}, "group": "control_change"}, {"time": 2360, "annotation": {"number": 64, "value": 127}, "group": "control_change"}, {"time": 2382, "annotation": {"number": 64, "value": 0}, "group": "control_change"}, {"time": 2384, "annotation": {"number": 64, "value": 127}, "group": "control_change"}, {"time": 2404, "annotation": {"number": 64, "value": 0}, "group": "control_change"}, {"time": 2408, "annotation": {"number": 64, "value": 127}, "group": "control_change"}, {"time": 2429, "annotation": {"number": 64, "value": 0}, "group": "control_change"}, {"time": 2433, "annotation": {"number": 64, "value": 127}, "group": "control_change"}, {"time": 2454, "annotation": {"number": 64, "value": 0}, "group": "control_change"}, {"time": 2458, "annotation": {"number": 64, "value": 127}, "group": "control_change"}, {"time": 2478, "annotation": {"number": 64, "value": 0}, "group": "control_change"}, {"time": 2480, "annotation": {"number": 64, "value": 127}, "group": "control_change"}, {"time": 2502, "annotation": {"number": 64, "value": 0}, "group": "control_change"}, {"time": 2504, "annotation": {"number": 64, "value": 127}, "group": "control_change"}, {"time": 2527, "annotation": {"number": 64, "value": 0}, "group": "control_change"}, {"time": 2529, "annotation": {"number": 64, "value": 127}, "group": "control_change"}, {"time": 2549, "annotation": {"number": 64, "value": 0}, "group": "control_change"}, {"time": 2552, "annotation": {"number": 64, "value": 127}, "group": "control_change"}, {"time": 2573, "annotation": {"number": 64, "value": 0}, "group": "control_change"}, {"time": 2575, "annotation": {"number": 64, "value": 127}, "group": "control_change"}, {"time": 2588, "annotation": {"number": 64, "value": 0}, "group": "control_change"}, {"time": 2589, "annotation": {"number": 64, "value": 127}, "group": "control_change"}, {"time": 2598, "annotation": {"number": 64, "value": 0}, "group": "control_change"}, {"time": 2600, "annotation": {"number": 64, "value": 127}, "group": "control_change"}, {"time": 2622, "annotation": {"number": 64, "value": 0}, "group": "control_change"}, {"time": 2623, "annotation": {"number": 64, "value": 127}, "group": "control_change"}, {"time": 2645, "annotation": {"number": 64, "value": 0}, "group": "control_change"}, {"time": 2649, "annotation": {"number": 64, "value": 127}, "group": "control_change"}, {"time": 2669, "annotation": {"number": 64, "value": 0}, "group": "control_change"}, {"time": 2672, "annotation": {"number": 64, "value": 127}, "group": "control_change"}, {"time": 2694, "annotation": {"number": 64, "value": 0}, "group": "control_change"}, {"time": 2696, "annotation": {"number": 64, "value": 127}, "group": "control_change"}, {"time": 2720, "annotation": {"number": 64, "value": 0}, "group": "control_change"}, {"time": 2722, "annotation": {"number": 64, "value": 127}, "group": "control_change"}, {"time": 2740, "annotation": {"number": 64, "value": 0}, "group": "control_change"}, {"time": 2743, "annotation": {"number": 64, "value": 127}, "group": "control_change"}, {"time": 2761, "annotation": {"number": 64, "value": 0}, "group": "control_change"}, {"time": 2767, "annotation": {"number": 64, "value": 127}, "group": "control_change"}, {"time": 2791, "annotation": {"number": 64, "value": 0}, "group": "control_change"}, {"time": 2792, "annotation": {"number": 64, "value": 127}, "group": "control_change"}, {"time": 2840, "annotation": {"number": 64, "value": 0}, "group": "control_change"}, {"time": 2841, "annotation": {"number": 64, "value": 127}, "group": "control_change"}, {"time": 2863, "annotation": {"number": 64, "value": 0}, "group": "control_change"}, {"time": 2864, "annotation": {"number": 64, "value": 127}, "group": "control_change"}, {"time": 2886, "annotation": {"number": 64, "value": 0}, "group": "control_change"}, {"time": 2890, "annotation": {"number": 64, "value": 127}, "group": "control_change"}, {"time": 2911, "annotation": {"number": 64, "value": 0}, "group": "control_change"}, {"time": 2913, "annotation": {"number": 64, "value": 127}, "group": "control_change"}, {"time": 2934, "annotation": {"number": 64, "value": 0}, "group": "control_change"}, {"time": 2936, "annotation": {"number": 64, "value": 127}, "group": "control_change"}, {"time": 2959, "annotation": {"number": 64, "value": 0}, "group": "control_change"}, {"time": 2961, "annotation": {"number": 64, "value": 127}, "group": "control_change"}, {"time": 2982, "annotation": {"number": 64, "value": 0}, "group": "control_change"}, {"time": 2984, "annotation": {"number": 64, "value": 127}, "group": "control_change"}, {"time": 3007, "annotation": {"number": 64, "value": 0}, "group": "control_change"}, {"time": 3010, "annotation": {"number": 64, "value": 127}, "group": "control_change"}, {"time": 3033, "annotation": {"number": 64, "value": 127}, "group": "control_change"}, {"time": 3056, "annotation": {"number": 64, "value": 0}, "group": "control_change"}, {"time": 3060, "annotation": {"number": 64, "value": 127}, "group": "control_change"}, {"time": 3079, "annotation": {"number": 64, "value": 0}, "group": "control_change"}, {"time": 3080, "annotation": {"number": 64, "value": 127}, "group": "control_change"}, {"time": 3104, "annotation": {"number": 64, "value": 0}, "group": "control_change"}, {"time": 3108, "annotation": {"number": 64, "value": 127}, "group": "control_change"}, {"time": 3126, "annotation": {"number": 64, "value": 0}, "group": "control_change"}, {"time": 3127, "annotation": {"number": 64, "value": 127}, "group": "control_change"}, {"time": 3222, "annotation": {"number": 64, "value": 0}, "group": "control_change"}]}]}