{"metadata": {"schema_version": "0.2", "title": "None", "source_filename": "426.mid", "source_format": "midi"}, "resolution": 12, "tempos": [{"time": 0, "qpm": 66.000066000066}, {"time": 193, "qpm": 65.00013541694878}, {"time": 204, "qpm": 64.0}, {"time": 228, "qpm": 65.00013541694878}, {"time": 384, "qpm": 66.000066000066}, {"time": 576, "qpm": 65.00013541694878}, {"time": 660, "qpm": 65.50003820835562}], "time_signatures": [{"time": 0, "numerator": 1, "denominator": 4}], "tracks": [{"program": 0, "is_drum": false, "name": "MELODY", "notes": [{"time": 217, "pitch": 63, "duration": 7, "velocity": 90}, {"time": 223, "pitch": 66, "duration": 4, "velocity": 81}, {"time": 229, "pitch": 66, "duration": 5, "velocity": 86}, {"time": 235, "pitch": 63, "duration": 7, "velocity": 89}, {"time": 241, "pitch": 66, "duration": 18, "velocity": 86}, {"time": 265, "pitch": 63, "duration": 6, "velocity": 94}, {"time": 271, "pitch": 68, "duration": 5, "velocity": 86}, {"time": 277, "pitch": 68, "duration": 5, "velocity": 86}, {"time": 283, "pitch": 66, "duration": 2, "velocity": 86}, {"time": 286, "pitch": 68, "duration": 21, "velocity": 83}, {"time": 313, "pitch": 68, "duration": 5, "velocity": 88}, {"time": 319, "pitch": 68, "duration": 5, "velocity": 87}, {"time": 325, "pitch": 68, "duration": 5, "velocity": 86}, {"time": 331, "pitch": 66, "duration": 2, "velocity": 81}, {"time": 334, "pitch": 68, "duration": 13, "velocity": 80}, {"time": 361, "pitch": 68, "duration": 5, "velocity": 86}, {"time": 367, "pitch": 71, "duration": 4, "velocity": 92}, {"time": 373, "pitch": 68, "duration": 4, "velocity": 89}, {"time": 379, "pitch": 63, "duration": 2, "velocity": 87}, {"time": 382, "pitch": 66, "duration": 21, "velocity": 81}, {"time": 409, "pitch": 63, "duration": 5, "velocity": 85}, {"time": 415, "pitch": 66, "duration": 4, "velocity": 81}, {"time": 421, "pitch": 66, "duration": 5, "velocity": 85}, {"time": 427, "pitch": 63, "duration": 2, "velocity": 87}, {"time": 430, "pitch": 66, "duration": 21, "velocity": 79}, {"time": 457, "pitch": 63, "duration": 5, "velocity": 86}, {"time": 463, "pitch": 68, "duration": 4, "velocity": 86}, {"time": 469, "pitch": 68, "duration": 4, "velocity": 89}, {"time": 475, "pitch": 66, "duration": 2, "velocity": 81}, {"time": 478, "pitch": 68, "duration": 21, "velocity": 85}, {"time": 505, "pitch": 68, "duration": 4, "velocity": 69}, {"time": 511, "pitch": 68, "duration": 4, "velocity": 89}, {"time": 517, "pitch": 68, "duration": 5, "velocity": 86}, {"time": 523, "pitch": 66, "duration": 2, "velocity": 87}, {"time": 526, "pitch": 68, "duration": 14, "velocity": 87}, {"time": 553, "pitch": 68, "duration": 4, "velocity": 88}, {"time": 559, "pitch": 68, "duration": 4, "velocity": 88}, {"time": 565, "pitch": 68, "duration": 5, "velocity": 89}, {"time": 571, "pitch": 63, "duration": 2, "velocity": 90}, {"time": 574, "pitch": 66, "duration": 24, "velocity": 83}, {"time": 640, "pitch": 66, "duration": 3, "velocity": 86}, {"time": 643, "pitch": 68, "duration": 3, "velocity": 86}, {"time": 646, "pitch": 71, "duration": 2, "velocity": 91}, {"time": 649, "pitch": 73, "duration": 5, "velocity": 92}, {"time": 655, "pitch": 75, "duration": 2, "velocity": 87}, {"time": 658, "pitch": 75, "duration": 11, "velocity": 87}, {"time": 673, "pitch": 73, "duration": 5, "velocity": 88}, {"time": 679, "pitch": 78, "duration": 2, "velocity": 86}, {"time": 682, "pitch": 75, "duration": 6, "velocity": 94}, {"time": 691, "pitch": 75, "duration": 2, "velocity": 89}, {"time": 694, "pitch": 78, "duration": 3, "velocity": 86}, {"time": 697, "pitch": 80, "duration": 5, "velocity": 85}, {"time": 703, "pitch": 83, "duration": 5, "velocity": 87}, {"time": 709, "pitch": 80, "duration": 4, "velocity": 85}, {"time": 715, "pitch": 78, "duration": 4, "velocity": 85}, {"time": 721, "pitch": 80, "duration": 2, "velocity": 86}, {"time": 724, "pitch": 78, "duration": 2, "velocity": 86}, {"time": 727, "pitch": 80, "duration": 2, "velocity": 87}, {"time": 730, "pitch": 78, "duration": 2, "velocity": 86}, {"time": 733, "pitch": 75, "duration": 4, "velocity": 91}, {"time": 745, "pitch": 73, "duration": 4, "velocity": 92}, {"time": 751, "pitch": 75, "duration": 5, "velocity": 90}, {"time": 757, "pitch": 73, "duration": 4, "velocity": 86}, {"time": 763, "pitch": 73, "duration": 2, "velocity": 96}, {"time": 766, "pitch": 75, "duration": 3, "velocity": 89}, {"time": 769, "pitch": 73, "duration": 4, "velocity": 102}, {"time": 775, "pitch": 71, "duration": 3, "velocity": 91}, {"time": 778, "pitch": 68, "duration": 6, "velocity": 89}, {"time": 790, "pitch": 68, "duration": 2, "velocity": 86}, {"time": 793, "pitch": 80, "duration": 5, "velocity": 90}, {"time": 799, "pitch": 78, "duration": 2, "velocity": 81}, {"time": 802, "pitch": 78, "duration": 2, "velocity": 89}, {"time": 805, "pitch": 78, "duration": 4, "velocity": 91}, {"time": 811, "pitch": 80, "duration": 2, "velocity": 86}, {"time": 814, "pitch": 82, "duration": 5, "velocity": 85}, {"time": 820, "pitch": 75, "duration": 8, "velocity": 89}, {"time": 832, "pitch": 66, "duration": 2, "velocity": 87}, {"time": 835, "pitch": 68, "duration": 2, "velocity": 87}, {"time": 838, "pitch": 71, "duration": 2, "velocity": 89}, {"time": 841, "pitch": 73, "duration": 5, "velocity": 87}, {"time": 847, "pitch": 75, "duration": 4, "velocity": 89}, {"time": 853, "pitch": 75, "duration": 6, "velocity": 87}, {"time": 865, "pitch": 73, "duration": 5, "velocity": 92}, {"time": 871, "pitch": 78, "duration": 2, "velocity": 88}, {"time": 874, "pitch": 75, "duration": 4, "velocity": 90}, {"time": 883, "pitch": 75, "duration": 2, "velocity": 83}, {"time": 886, "pitch": 78, "duration": 2, "velocity": 87}, {"time": 889, "pitch": 80, "duration": 4, "velocity": 85}, {"time": 895, "pitch": 83, "duration": 4, "velocity": 89}, {"time": 901, "pitch": 80, "duration": 5, "velocity": 86}, {"time": 907, "pitch": 78, "duration": 3, "velocity": 86}, {"time": 910, "pitch": 78, "duration": 3, "velocity": 86}, {"time": 913, "pitch": 80, "duration": 2, "velocity": 87}, {"time": 916, "pitch": 78, "duration": 2, "velocity": 88}, {"time": 919, "pitch": 80, "duration": 2, "velocity": 87}, {"time": 922, "pitch": 78, "duration": 2, "velocity": 87}, {"time": 925, "pitch": 75, "duration": 5, "velocity": 90}, {"time": 937, "pitch": 73, "duration": 4, "velocity": 92}, {"time": 943, "pitch": 75, "duration": 5, "velocity": 87}, {"time": 949, "pitch": 73, "duration": 4, "velocity": 87}, {"time": 955, "pitch": 73, "duration": 2, "velocity": 87}, {"time": 958, "pitch": 75, "duration": 2, "velocity": 86}, {"time": 961, "pitch": 73, "duration": 5, "velocity": 92}, {"time": 967, "pitch": 71, "duration": 2, "velocity": 83}, {"time": 970, "pitch": 68, "duration": 7, "velocity": 86}, {"time": 982, "pitch": 66, "duration": 2, "velocity": 85}, {"time": 985, "pitch": 80, "duration": 4, "velocity": 89}, {"time": 991, "pitch": 78, "duration": 4, "velocity": 86}, {"time": 997, "pitch": 78, "duration": 4, "velocity": 86}, {"time": 1003, "pitch": 75, "duration": 2, "velocity": 88}, {"time": 1006, "pitch": 78, "duration": 10, "velocity": 85}, {"time": 1018, "pitch": 78, "duration": 2, "velocity": 88}, {"time": 1021, "pitch": 83, "duration": 3, "velocity": 89}, {"time": 1024, "pitch": 82, "duration": 3, "velocity": 86}, {"time": 1027, "pitch": 78, "duration": 2, "velocity": 83}, {"time": 1030, "pitch": 73, "duration": 2, "velocity": 83}, {"time": 1033, "pitch": 75, "duration": 4, "velocity": 86}, {"time": 1039, "pitch": 75, "duration": 2, "velocity": 89}, {"time": 1042, "pitch": 73, "duration": 2, "velocity": 88}, {"time": 1045, "pitch": 75, "duration": 2, "velocity": 87}, {"time": 1048, "pitch": 75, "duration": 5, "velocity": 85}, {"time": 1054, "pitch": 73, "duration": 2, "velocity": 89}, {"time": 1057, "pitch": 75, "duration": 6, "velocity": 90}, {"time": 1063, "pitch": 80, "duration": 3, "velocity": 86}, {"time": 1066, "pitch": 78, "duration": 6, "velocity": 87}, {"time": 1078, "pitch": 73, "duration": 2, "velocity": 87}, {"time": 1081, "pitch": 75, "duration": 3, "velocity": 86}, {"time": 1086, "pitch": 75, "duration": 4, "velocity": 91}, {"time": 1090, "pitch": 73, "duration": 2, "velocity": 90}, {"time": 1093, "pitch": 75, "duration": 4, "velocity": 89}, {"time": 1099, "pitch": 75, "duration": 2, "velocity": 87}, {"time": 1102, "pitch": 73, "duration": 2, "velocity": 86}, {"time": 1105, "pitch": 75, "duration": 4, "velocity": 89}, {"time": 1111, "pitch": 83, "duration": 2, "velocity": 91}, {"time": 1114, "pitch": 80, "duration": 6, "velocity": 86}, {"time": 1126, "pitch": 78, "duration": 2, "velocity": 85}, {"time": 1129, "pitch": 80, "duration": 4, "velocity": 89}, {"time": 1135, "pitch": 80, "duration": 4, "velocity": 86}, {"time": 1141, "pitch": 80, "duration": 5, "velocity": 85}, {"time": 1147, "pitch": 83, "duration": 4, "velocity": 91}, {"time": 1153, "pitch": 80, "duration": 4, "velocity": 87}, {"time": 1159, "pitch": 75, "duration": 2, "velocity": 88}, {"time": 1162, "pitch": 73, "duration": 6, "velocity": 91}, {"time": 1171, "pitch": 71, "duration": 2, "velocity": 86}, {"time": 1174, "pitch": 73, "duration": 2, "velocity": 86}, {"time": 1177, "pitch": 75, "duration": 5, "velocity": 89}, {"time": 1183, "pitch": 78, "duration": 6, "velocity": 90}, {"time": 1189, "pitch": 75, "duration": 5, "velocity": 90}, {"time": 1195, "pitch": 78, "duration": 2, "velocity": 88}, {"time": 1198, "pitch": 80, "duration": 9, "velocity": 87}, {"time": 1210, "pitch": 78, "duration": 2, "velocity": 88}, {"time": 1213, "pitch": 83, "duration": 3, "velocity": 89}, {"time": 1216, "pitch": 82, "duration": 3, "velocity": 86}, {"time": 1219, "pitch": 78, "duration": 2, "velocity": 83}, {"time": 1222, "pitch": 73, "duration": 2, "velocity": 83}, {"time": 1225, "pitch": 75, "duration": 4, "velocity": 86}, {"time": 1231, "pitch": 75, "duration": 2, "velocity": 89}, {"time": 1234, "pitch": 73, "duration": 2, "velocity": 88}, {"time": 1237, "pitch": 75, "duration": 2, "velocity": 87}, {"time": 1240, "pitch": 75, "duration": 5, "velocity": 85}, {"time": 1246, "pitch": 73, "duration": 2, "velocity": 89}, {"time": 1249, "pitch": 75, "duration": 6, "velocity": 90}, {"time": 1255, "pitch": 80, "duration": 3, "velocity": 86}, {"time": 1258, "pitch": 78, "duration": 6, "velocity": 87}, {"time": 1270, "pitch": 73, "duration": 2, "velocity": 87}, {"time": 1273, "pitch": 75, "duration": 3, "velocity": 86}, {"time": 1278, "pitch": 75, "duration": 4, "velocity": 91}, {"time": 1282, "pitch": 73, "duration": 2, "velocity": 90}, {"time": 1285, "pitch": 75, "duration": 4, "velocity": 89}, {"time": 1291, "pitch": 75, "duration": 2, "velocity": 87}, {"time": 1294, "pitch": 73, "duration": 2, "velocity": 86}, {"time": 1297, "pitch": 75, "duration": 4, "velocity": 89}, {"time": 1303, "pitch": 83, "duration": 2, "velocity": 91}, {"time": 1306, "pitch": 80, "duration": 6, "velocity": 86}, {"time": 1318, "pitch": 78, "duration": 2, "velocity": 85}, {"time": 1321, "pitch": 80, "duration": 4, "velocity": 89}, {"time": 1327, "pitch": 80, "duration": 4, "velocity": 86}, {"time": 1333, "pitch": 80, "duration": 5, "velocity": 85}, {"time": 1339, "pitch": 83, "duration": 4, "velocity": 91}, {"time": 1345, "pitch": 80, "duration": 4, "velocity": 87}, {"time": 1351, "pitch": 75, "duration": 2, "velocity": 88}, {"time": 1354, "pitch": 73, "duration": 6, "velocity": 91}, {"time": 1363, "pitch": 71, "duration": 2, "velocity": 86}, {"time": 1366, "pitch": 73, "duration": 2, "velocity": 86}, {"time": 1369, "pitch": 75, "duration": 5, "velocity": 89}, {"time": 1375, "pitch": 78, "duration": 6, "velocity": 90}, {"time": 1381, "pitch": 75, "duration": 5, "velocity": 90}, {"time": 1387, "pitch": 78, "duration": 2, "velocity": 88}, {"time": 1390, "pitch": 80, "duration": 24, "velocity": 87}, {"time": 1504, "pitch": 66, "duration": 3, "velocity": 86}, {"time": 1507, "pitch": 68, "duration": 3, "velocity": 86}, {"time": 1510, "pitch": 71, "duration": 2, "velocity": 91}, {"time": 1513, "pitch": 73, "duration": 5, "velocity": 92}, {"time": 1519, "pitch": 75, "duration": 2, "velocity": 87}, {"time": 1522, "pitch": 75, "duration": 11, "velocity": 87}, {"time": 1537, "pitch": 73, "duration": 5, "velocity": 88}, {"time": 1543, "pitch": 78, "duration": 2, "velocity": 86}, {"time": 1546, "pitch": 75, "duration": 6, "velocity": 94}, {"time": 1555, "pitch": 75, "duration": 2, "velocity": 89}, {"time": 1558, "pitch": 78, "duration": 3, "velocity": 86}, {"time": 1561, "pitch": 80, "duration": 5, "velocity": 85}, {"time": 1567, "pitch": 83, "duration": 5, "velocity": 87}, {"time": 1573, "pitch": 80, "duration": 4, "velocity": 85}, {"time": 1579, "pitch": 78, "duration": 4, "velocity": 85}, {"time": 1585, "pitch": 80, "duration": 2, "velocity": 86}, {"time": 1588, "pitch": 78, "duration": 2, "velocity": 86}, {"time": 1591, "pitch": 80, "duration": 2, "velocity": 87}, {"time": 1594, "pitch": 78, "duration": 2, "velocity": 86}, {"time": 1597, "pitch": 75, "duration": 4, "velocity": 91}, {"time": 1609, "pitch": 73, "duration": 4, "velocity": 92}, {"time": 1615, "pitch": 75, "duration": 5, "velocity": 90}, {"time": 1621, "pitch": 73, "duration": 4, "velocity": 86}, {"time": 1627, "pitch": 73, "duration": 2, "velocity": 96}, {"time": 1630, "pitch": 75, "duration": 3, "velocity": 89}, {"time": 1633, "pitch": 73, "duration": 4, "velocity": 102}, {"time": 1639, "pitch": 71, "duration": 3, "velocity": 91}, {"time": 1642, "pitch": 68, "duration": 6, "velocity": 89}, {"time": 1654, "pitch": 68, "duration": 2, "velocity": 86}, {"time": 1657, "pitch": 80, "duration": 5, "velocity": 90}, {"time": 1663, "pitch": 78, "duration": 2, "velocity": 81}, {"time": 1666, "pitch": 78, "duration": 2, "velocity": 89}, {"time": 1669, "pitch": 78, "duration": 4, "velocity": 91}, {"time": 1675, "pitch": 80, "duration": 2, "velocity": 86}, {"time": 1678, "pitch": 82, "duration": 5, "velocity": 85}, {"time": 1684, "pitch": 75, "duration": 8, "velocity": 89}, {"time": 1696, "pitch": 66, "duration": 2, "velocity": 87}, {"time": 1699, "pitch": 68, "duration": 2, "velocity": 87}, {"time": 1702, "pitch": 71, "duration": 2, "velocity": 89}, {"time": 1705, "pitch": 73, "duration": 5, "velocity": 87}, {"time": 1711, "pitch": 75, "duration": 4, "velocity": 89}, {"time": 1717, "pitch": 75, "duration": 6, "velocity": 87}, {"time": 1729, "pitch": 73, "duration": 5, "velocity": 92}, {"time": 1735, "pitch": 78, "duration": 2, "velocity": 88}, {"time": 1738, "pitch": 75, "duration": 4, "velocity": 90}, {"time": 1747, "pitch": 75, "duration": 2, "velocity": 83}, {"time": 1750, "pitch": 78, "duration": 2, "velocity": 87}, {"time": 1753, "pitch": 80, "duration": 4, "velocity": 85}, {"time": 1759, "pitch": 83, "duration": 4, "velocity": 89}, {"time": 1765, "pitch": 80, "duration": 5, "velocity": 86}, {"time": 1771, "pitch": 78, "duration": 3, "velocity": 86}, {"time": 1774, "pitch": 78, "duration": 3, "velocity": 86}, {"time": 1777, "pitch": 80, "duration": 2, "velocity": 87}, {"time": 1780, "pitch": 78, "duration": 2, "velocity": 88}, {"time": 1783, "pitch": 80, "duration": 2, "velocity": 87}, {"time": 1786, "pitch": 78, "duration": 2, "velocity": 87}, {"time": 1789, "pitch": 75, "duration": 5, "velocity": 90}, {"time": 1801, "pitch": 73, "duration": 4, "velocity": 92}, {"time": 1807, "pitch": 75, "duration": 5, "velocity": 87}, {"time": 1813, "pitch": 73, "duration": 4, "velocity": 87}, {"time": 1819, "pitch": 73, "duration": 2, "velocity": 87}, {"time": 1822, "pitch": 75, "duration": 2, "velocity": 86}, {"time": 1825, "pitch": 73, "duration": 5, "velocity": 92}, {"time": 1831, "pitch": 71, "duration": 2, "velocity": 83}, {"time": 1834, "pitch": 68, "duration": 7, "velocity": 86}, {"time": 1846, "pitch": 66, "duration": 2, "velocity": 85}, {"time": 1849, "pitch": 80, "duration": 4, "velocity": 89}, {"time": 1855, "pitch": 78, "duration": 4, "velocity": 86}, {"time": 1861, "pitch": 78, "duration": 4, "velocity": 86}, {"time": 1867, "pitch": 75, "duration": 2, "velocity": 88}, {"time": 1870, "pitch": 78, "duration": 10, "velocity": 85}, {"time": 1882, "pitch": 78, "duration": 2, "velocity": 88}, {"time": 1885, "pitch": 83, "duration": 3, "velocity": 89}, {"time": 1888, "pitch": 82, "duration": 3, "velocity": 86}, {"time": 1891, "pitch": 78, "duration": 2, "velocity": 83}, {"time": 1894, "pitch": 73, "duration": 2, "velocity": 83}, {"time": 1897, "pitch": 75, "duration": 4, "velocity": 86}, {"time": 1903, "pitch": 75, "duration": 2, "velocity": 89}, {"time": 1906, "pitch": 73, "duration": 2, "velocity": 88}, {"time": 1909, "pitch": 75, "duration": 2, "velocity": 87}, {"time": 1912, "pitch": 75, "duration": 5, "velocity": 85}, {"time": 1918, "pitch": 73, "duration": 2, "velocity": 89}, {"time": 1921, "pitch": 75, "duration": 6, "velocity": 90}, {"time": 1927, "pitch": 80, "duration": 3, "velocity": 86}, {"time": 1930, "pitch": 78, "duration": 6, "velocity": 87}, {"time": 1942, "pitch": 73, "duration": 2, "velocity": 87}, {"time": 1945, "pitch": 75, "duration": 3, "velocity": 86}, {"time": 1950, "pitch": 75, "duration": 4, "velocity": 91}, {"time": 1954, "pitch": 73, "duration": 2, "velocity": 90}, {"time": 1957, "pitch": 75, "duration": 4, "velocity": 89}, {"time": 1963, "pitch": 75, "duration": 2, "velocity": 87}, {"time": 1966, "pitch": 73, "duration": 2, "velocity": 86}, {"time": 1969, "pitch": 75, "duration": 4, "velocity": 89}, {"time": 1975, "pitch": 83, "duration": 2, "velocity": 91}, {"time": 1978, "pitch": 80, "duration": 6, "velocity": 86}, {"time": 1990, "pitch": 78, "duration": 2, "velocity": 85}, {"time": 1993, "pitch": 80, "duration": 4, "velocity": 89}, {"time": 1999, "pitch": 80, "duration": 4, "velocity": 86}, {"time": 2005, "pitch": 80, "duration": 5, "velocity": 85}, {"time": 2011, "pitch": 83, "duration": 4, "velocity": 91}, {"time": 2017, "pitch": 80, "duration": 4, "velocity": 87}, {"time": 2023, "pitch": 75, "duration": 2, "velocity": 88}, {"time": 2026, "pitch": 73, "duration": 6, "velocity": 91}, {"time": 2035, "pitch": 71, "duration": 2, "velocity": 86}, {"time": 2038, "pitch": 73, "duration": 2, "velocity": 86}, {"time": 2041, "pitch": 75, "duration": 5, "velocity": 89}, {"time": 2047, "pitch": 78, "duration": 6, "velocity": 90}, {"time": 2053, "pitch": 75, "duration": 5, "velocity": 90}, {"time": 2059, "pitch": 78, "duration": 2, "velocity": 88}, {"time": 2062, "pitch": 80, "duration": 9, "velocity": 87}, {"time": 2074, "pitch": 78, "duration": 2, "velocity": 88}, {"time": 2077, "pitch": 83, "duration": 3, "velocity": 89}, {"time": 2080, "pitch": 82, "duration": 3, "velocity": 86}, {"time": 2083, "pitch": 78, "duration": 2, "velocity": 83}, {"time": 2086, "pitch": 73, "duration": 2, "velocity": 83}, {"time": 2089, "pitch": 75, "duration": 4, "velocity": 86}, {"time": 2095, "pitch": 75, "duration": 2, "velocity": 89}, {"time": 2098, "pitch": 73, "duration": 2, "velocity": 88}, {"time": 2101, "pitch": 75, "duration": 2, "velocity": 87}, {"time": 2104, "pitch": 75, "duration": 5, "velocity": 85}, {"time": 2110, "pitch": 73, "duration": 2, "velocity": 89}, {"time": 2113, "pitch": 75, "duration": 6, "velocity": 90}, {"time": 2119, "pitch": 80, "duration": 3, "velocity": 86}, {"time": 2122, "pitch": 78, "duration": 6, "velocity": 87}, {"time": 2134, "pitch": 73, "duration": 2, "velocity": 87}, {"time": 2137, "pitch": 75, "duration": 3, "velocity": 86}, {"time": 2142, "pitch": 75, "duration": 4, "velocity": 91}, {"time": 2146, "pitch": 73, "duration": 2, "velocity": 90}, {"time": 2149, "pitch": 75, "duration": 4, "velocity": 89}, {"time": 2155, "pitch": 75, "duration": 2, "velocity": 87}, {"time": 2158, "pitch": 73, "duration": 2, "velocity": 86}, {"time": 2161, "pitch": 75, "duration": 4, "velocity": 89}, {"time": 2167, "pitch": 83, "duration": 2, "velocity": 91}, {"time": 2170, "pitch": 80, "duration": 6, "velocity": 86}, {"time": 2182, "pitch": 78, "duration": 2, "velocity": 85}, {"time": 2185, "pitch": 80, "duration": 4, "velocity": 89}, {"time": 2191, "pitch": 80, "duration": 4, "velocity": 86}, {"time": 2197, "pitch": 80, "duration": 5, "velocity": 85}, {"time": 2203, "pitch": 83, "duration": 4, "velocity": 91}, {"time": 2209, "pitch": 80, "duration": 4, "velocity": 87}, {"time": 2215, "pitch": 75, "duration": 2, "velocity": 88}, {"time": 2218, "pitch": 73, "duration": 6, "velocity": 91}, {"time": 2227, "pitch": 71, "duration": 2, "velocity": 86}, {"time": 2230, "pitch": 73, "duration": 2, "velocity": 86}, {"time": 2233, "pitch": 75, "duration": 5, "velocity": 89}, {"time": 2239, "pitch": 78, "duration": 6, "velocity": 90}, {"time": 2245, "pitch": 75, "duration": 5, "velocity": 90}, {"time": 2251, "pitch": 78, "duration": 2, "velocity": 88}, {"time": 2254, "pitch": 80, "duration": 24, "velocity": 87}, {"time": 2473, "pitch": 63, "duration": 7, "velocity": 90}, {"time": 2479, "pitch": 66, "duration": 4, "velocity": 81}, {"time": 2485, "pitch": 66, "duration": 5, "velocity": 86}, {"time": 2491, "pitch": 63, "duration": 7, "velocity": 89}, {"time": 2497, "pitch": 66, "duration": 18, "velocity": 86}, {"time": 2521, "pitch": 63, "duration": 6, "velocity": 94}, {"time": 2527, "pitch": 68, "duration": 5, "velocity": 86}, {"time": 2533, "pitch": 68, "duration": 5, "velocity": 86}, {"time": 2539, "pitch": 66, "duration": 2, "velocity": 86}, {"time": 2542, "pitch": 68, "duration": 21, "velocity": 83}, {"time": 2569, "pitch": 68, "duration": 5, "velocity": 88}, {"time": 2575, "pitch": 68, "duration": 5, "velocity": 87}, {"time": 2581, "pitch": 68, "duration": 5, "velocity": 86}, {"time": 2587, "pitch": 66, "duration": 2, "velocity": 81}, {"time": 2590, "pitch": 68, "duration": 13, "velocity": 80}, {"time": 2617, "pitch": 68, "duration": 5, "velocity": 86}, {"time": 2623, "pitch": 71, "duration": 4, "velocity": 92}, {"time": 2629, "pitch": 68, "duration": 4, "velocity": 89}, {"time": 2635, "pitch": 63, "duration": 2, "velocity": 87}, {"time": 2638, "pitch": 66, "duration": 21, "velocity": 81}, {"time": 2665, "pitch": 63, "duration": 5, "velocity": 85}, {"time": 2671, "pitch": 66, "duration": 4, "velocity": 81}, {"time": 2677, "pitch": 66, "duration": 5, "velocity": 85}, {"time": 2683, "pitch": 63, "duration": 2, "velocity": 87}, {"time": 2686, "pitch": 66, "duration": 21, "velocity": 79}, {"time": 2713, "pitch": 63, "duration": 5, "velocity": 86}, {"time": 2719, "pitch": 68, "duration": 4, "velocity": 86}, {"time": 2725, "pitch": 68, "duration": 4, "velocity": 89}, {"time": 2731, "pitch": 66, "duration": 2, "velocity": 81}, {"time": 2734, "pitch": 68, "duration": 21, "velocity": 85}, {"time": 2761, "pitch": 68, "duration": 4, "velocity": 69}, {"time": 2767, "pitch": 68, "duration": 4, "velocity": 89}, {"time": 2773, "pitch": 68, "duration": 5, "velocity": 86}, {"time": 2779, "pitch": 66, "duration": 2, "velocity": 87}, {"time": 2782, "pitch": 68, "duration": 14, "velocity": 87}, {"time": 2809, "pitch": 68, "duration": 4, "velocity": 88}, {"time": 2815, "pitch": 68, "duration": 4, "velocity": 88}, {"time": 2821, "pitch": 68, "duration": 5, "velocity": 89}, {"time": 2827, "pitch": 63, "duration": 2, "velocity": 90}, {"time": 2830, "pitch": 66, "duration": 9, "velocity": 83}, {"time": 2842, "pitch": 78, "duration": 2, "velocity": 88}, {"time": 2845, "pitch": 83, "duration": 3, "velocity": 89}, {"time": 2848, "pitch": 82, "duration": 3, "velocity": 86}, {"time": 2851, "pitch": 78, "duration": 2, "velocity": 83}, {"time": 2854, "pitch": 73, "duration": 2, "velocity": 83}, {"time": 2857, "pitch": 75, "duration": 4, "velocity": 86}, {"time": 2863, "pitch": 75, "duration": 2, "velocity": 89}, {"time": 2866, "pitch": 73, "duration": 2, "velocity": 88}, {"time": 2869, "pitch": 75, "duration": 2, "velocity": 87}, {"time": 2872, "pitch": 75, "duration": 5, "velocity": 85}, {"time": 2878, "pitch": 73, "duration": 2, "velocity": 89}, {"time": 2881, "pitch": 75, "duration": 6, "velocity": 90}, {"time": 2887, "pitch": 80, "duration": 3, "velocity": 86}, {"time": 2890, "pitch": 78, "duration": 6, "velocity": 87}, {"time": 2902, "pitch": 73, "duration": 2, "velocity": 87}, {"time": 2905, "pitch": 75, "duration": 3, "velocity": 86}, {"time": 2910, "pitch": 75, "duration": 4, "velocity": 91}, {"time": 2914, "pitch": 73, "duration": 2, "velocity": 90}, {"time": 2917, "pitch": 75, "duration": 4, "velocity": 89}, {"time": 2923, "pitch": 75, "duration": 2, "velocity": 87}, {"time": 2926, "pitch": 73, "duration": 2, "velocity": 86}, {"time": 2929, "pitch": 75, "duration": 4, "velocity": 89}, {"time": 2935, "pitch": 83, "duration": 2, "velocity": 91}, {"time": 2938, "pitch": 80, "duration": 6, "velocity": 86}, {"time": 2950, "pitch": 78, "duration": 2, "velocity": 85}, {"time": 2953, "pitch": 80, "duration": 4, "velocity": 89}, {"time": 2959, "pitch": 80, "duration": 4, "velocity": 86}, {"time": 2965, "pitch": 80, "duration": 5, "velocity": 85}, {"time": 2971, "pitch": 83, "duration": 4, "velocity": 91}, {"time": 2977, "pitch": 80, "duration": 4, "velocity": 87}, {"time": 2983, "pitch": 75, "duration": 2, "velocity": 88}, {"time": 2986, "pitch": 73, "duration": 6, "velocity": 91}, {"time": 2995, "pitch": 71, "duration": 2, "velocity": 86}, {"time": 2998, "pitch": 73, "duration": 2, "velocity": 86}, {"time": 3001, "pitch": 75, "duration": 5, "velocity": 89}, {"time": 3007, "pitch": 78, "duration": 6, "velocity": 90}, {"time": 3013, "pitch": 75, "duration": 5, "velocity": 90}, {"time": 3019, "pitch": 78, "duration": 2, "velocity": 88}, {"time": 3022, "pitch": 80, "duration": 9, "velocity": 87}, {"time": 3034, "pitch": 78, "duration": 2, "velocity": 88}, {"time": 3037, "pitch": 83, "duration": 3, "velocity": 89}, {"time": 3040, "pitch": 82, "duration": 3, "velocity": 86}, {"time": 3043, "pitch": 78, "duration": 2, "velocity": 83}, {"time": 3046, "pitch": 73, "duration": 2, "velocity": 83}, {"time": 3049, "pitch": 75, "duration": 4, "velocity": 86}, {"time": 3055, "pitch": 75, "duration": 2, "velocity": 89}, {"time": 3058, "pitch": 73, "duration": 2, "velocity": 88}, {"time": 3061, "pitch": 75, "duration": 2, "velocity": 87}, {"time": 3064, "pitch": 75, "duration": 5, "velocity": 85}, {"time": 3070, "pitch": 73, "duration": 2, "velocity": 89}, {"time": 3073, "pitch": 75, "duration": 6, "velocity": 90}, {"time": 3079, "pitch": 80, "duration": 3, "velocity": 86}, {"time": 3082, "pitch": 78, "duration": 6, "velocity": 87}, {"time": 3094, "pitch": 73, "duration": 2, "velocity": 87}, {"time": 3097, "pitch": 75, "duration": 3, "velocity": 86}, {"time": 3102, "pitch": 75, "duration": 4, "velocity": 91}, {"time": 3106, "pitch": 73, "duration": 2, "velocity": 90}, {"time": 3109, "pitch": 75, "duration": 4, "velocity": 89}, {"time": 3115, "pitch": 75, "duration": 2, "velocity": 87}, {"time": 3118, "pitch": 73, "duration": 2, "velocity": 86}, {"time": 3121, "pitch": 75, "duration": 4, "velocity": 89}, {"time": 3127, "pitch": 83, "duration": 2, "velocity": 91}, {"time": 3130, "pitch": 80, "duration": 6, "velocity": 86}, {"time": 3142, "pitch": 78, "duration": 2, "velocity": 85}, {"time": 3145, "pitch": 80, "duration": 4, "velocity": 89}, {"time": 3151, "pitch": 80, "duration": 4, "velocity": 86}, {"time": 3157, "pitch": 80, "duration": 5, "velocity": 85}, {"time": 3163, "pitch": 83, "duration": 4, "velocity": 91}, {"time": 3169, "pitch": 80, "duration": 4, "velocity": 87}, {"time": 3175, "pitch": 75, "duration": 2, "velocity": 88}, {"time": 3178, "pitch": 73, "duration": 6, "velocity": 91}, {"time": 3187, "pitch": 71, "duration": 2, "velocity": 86}, {"time": 3190, "pitch": 73, "duration": 2, "velocity": 86}, {"time": 3193, "pitch": 75, "duration": 5, "velocity": 89}, {"time": 3199, "pitch": 78, "duration": 6, "velocity": 90}, {"time": 3205, "pitch": 75, "duration": 5, "velocity": 90}, {"time": 3211, "pitch": 78, "duration": 6, "velocity": 88}, {"time": 3217, "pitch": 80, "duration": 21, "velocity": 87}, {"time": 3237, "pitch": 78, "duration": 3, "velocity": 89}, {"time": 3241, "pitch": 80, "duration": 4, "velocity": 89}, {"time": 3247, "pitch": 80, "duration": 4, "velocity": 90}, {"time": 3253, "pitch": 80, "duration": 4, "velocity": 92}, {"time": 3259, "pitch": 83, "duration": 4, "velocity": 96}, {"time": 3266, "pitch": 80, "duration": 4, "velocity": 87}, {"time": 3272, "pitch": 75, "duration": 3, "velocity": 94}, {"time": 3276, "pitch": 73, "duration": 7, "velocity": 91}, {"time": 3285, "pitch": 71, "duration": 1, "velocity": 86}, {"time": 3287, "pitch": 73, "duration": 2, "velocity": 92}, {"time": 3291, "pitch": 75, "duration": 6, "velocity": 90}, {"time": 3297, "pitch": 78, "duration": 6, "velocity": 85}, {"time": 3305, "pitch": 75, "duration": 4, "velocity": 83}, {"time": 3310, "pitch": 78, "duration": 6, "velocity": 86}, {"time": 3317, "pitch": 80, "duration": 29, "velocity": 87}]}, {"program": 0, "is_drum": false, "name": "PIANO", "notes": [{"time": 22, "pitch": 52, "duration": 17, "velocity": 74}, {"time": 23, "pitch": 56, "duration": 17, "velocity": 74}, {"time": 24, "pitch": 40, "duration": 39, "velocity": 80}, {"time": 24, "pitch": 59, "duration": 15, "velocity": 63}, {"time": 25, "pitch": 63, "duration": 13, "velocity": 80}, {"time": 36, "pitch": 47, "duration": 17, "velocity": 71}, {"time": 43, "pitch": 52, "duration": 1, "velocity": 56}, {"time": 49, "pitch": 52, "duration": 15, "velocity": 69}, {"time": 49, "pitch": 56, "duration": 14, "velocity": 75}, {"time": 72, "pitch": 54, "duration": 15, "velocity": 72}, {"time": 73, "pitch": 51, "duration": 14, "velocity": 73}, {"time": 73, "pitch": 39, "duration": 39, "velocity": 80}, {"time": 85, "pitch": 46, "duration": 31, "velocity": 61}, {"time": 91, "pitch": 58, "duration": 4, "velocity": 74}, {"time": 95, "pitch": 51, "duration": 15, "velocity": 73}, {"time": 96, "pitch": 54, "duration": 14, "velocity": 76}, {"time": 97, "pitch": 61, "duration": 1, "velocity": 66}, {"time": 97, "pitch": 63, "duration": 13, "velocity": 68}, {"time": 97, "pitch": 58, "duration": 13, "velocity": 69}, {"time": 118, "pitch": 49, "duration": 5, "velocity": 72}, {"time": 119, "pitch": 52, "duration": 5, "velocity": 69}, {"time": 120, "pitch": 37, "duration": 2, "velocity": 80}, {"time": 120, "pitch": 56, "duration": 4, "velocity": 65}, {"time": 127, "pitch": 49, "duration": 30, "velocity": 70}, {"time": 134, "pitch": 56, "duration": 22, "velocity": 80}, {"time": 139, "pitch": 61, "duration": 20, "velocity": 87}, {"time": 145, "pitch": 64, "duration": 13, "velocity": 76}, {"time": 167, "pitch": 54, "duration": 10, "velocity": 74}, {"time": 168, "pitch": 58, "duration": 20, "velocity": 79}, {"time": 168, "pitch": 42, "duration": 42, "velocity": 75}, {"time": 169, "pitch": 61, "duration": 19, "velocity": 60}, {"time": 174, "pitch": 49, "duration": 9, "velocity": 73}, {"time": 180, "pitch": 54, "duration": 8, "velocity": 79}, {"time": 186, "pitch": 49, "duration": 24, "velocity": 70}, {"time": 191, "pitch": 54, "duration": 25, "velocity": 71}, {"time": 192, "pitch": 58, "duration": 24, "velocity": 74}, {"time": 193, "pitch": 66, "duration": 23, "velocity": 75}, {"time": 217, "pitch": 35, "duration": 1, "velocity": 76}, {"time": 217, "pitch": 59, "duration": 14, "velocity": 74}, {"time": 217, "pitch": 63, "duration": 14, "velocity": 81}, {"time": 223, "pitch": 47, "duration": 32, "velocity": 56}, {"time": 229, "pitch": 54, "duration": 15, "velocity": 75}, {"time": 235, "pitch": 59, "duration": 15, "velocity": 77}, {"time": 241, "pitch": 63, "duration": 9, "velocity": 76}, {"time": 241, "pitch": 66, "duration": 9, "velocity": 78}, {"time": 265, "pitch": 44, "duration": 41, "velocity": 80}, {"time": 265, "pitch": 56, "duration": 8, "velocity": 70}, {"time": 265, "pitch": 59, "duration": 17, "velocity": 75}, {"time": 271, "pitch": 51, "duration": 6, "velocity": 59}, {"time": 277, "pitch": 56, "duration": 13, "velocity": 78}, {"time": 283, "pitch": 51, "duration": 9, "velocity": 70}, {"time": 289, "pitch": 59, "duration": 7, "velocity": 77}, {"time": 295, "pitch": 51, "duration": 9, "velocity": 53}, {"time": 301, "pitch": 56, "duration": 2, "velocity": 78}, {"time": 301, "pitch": 63, "duration": 3, "velocity": 85}, {"time": 313, "pitch": 40, "duration": 38, "velocity": 81}, {"time": 313, "pitch": 52, "duration": 2, "velocity": 72}, {"time": 313, "pitch": 56, "duration": 12, "velocity": 74}, {"time": 319, "pitch": 47, "duration": 21, "velocity": 69}, {"time": 325, "pitch": 52, "duration": 7, "velocity": 80}, {"time": 331, "pitch": 56, "duration": 3, "velocity": 72}, {"time": 337, "pitch": 59, "duration": 2, "velocity": 80}, {"time": 343, "pitch": 47, "duration": 7, "velocity": 49}, {"time": 349, "pitch": 52, "duration": 2, "velocity": 82}, {"time": 349, "pitch": 56, "duration": 2, "velocity": 80}, {"time": 361, "pitch": 42, "duration": 39, "velocity": 83}, {"time": 367, "pitch": 54, "duration": 9, "velocity": 85}, {"time": 373, "pitch": 61, "duration": 10, "velocity": 78}, {"time": 379, "pitch": 54, "duration": 7, "velocity": 80}, {"time": 385, "pitch": 61, "duration": 3, "velocity": 79}, {"time": 385, "pitch": 66, "duration": 4, "velocity": 80}, {"time": 391, "pitch": 54, "duration": 2, "velocity": 71}, {"time": 397, "pitch": 54, "duration": 2, "velocity": 81}, {"time": 397, "pitch": 61, "duration": 2, "velocity": 79}, {"time": 409, "pitch": 47, "duration": 42, "velocity": 79}, {"time": 409, "pitch": 54, "duration": 3, "velocity": 74}, {"time": 409, "pitch": 59, "duration": 12, "velocity": 76}, {"time": 415, "pitch": 54, "duration": 6, "velocity": 69}, {"time": 421, "pitch": 63, "duration": 5, "velocity": 78}, {"time": 427, "pitch": 54, "duration": 7, "velocity": 63}, {"time": 433, "pitch": 59, "duration": 7, "velocity": 78}, {"time": 445, "pitch": 54, "duration": 2, "velocity": 81}, {"time": 445, "pitch": 63, "duration": 10, "velocity": 86}, {"time": 457, "pitch": 44, "duration": 40, "velocity": 80}, {"time": 457, "pitch": 56, "duration": 8, "velocity": 73}, {"time": 457, "pitch": 59, "duration": 9, "velocity": 77}, {"time": 463, "pitch": 51, "duration": 8, "velocity": 80}, {"time": 469, "pitch": 56, "duration": 10, "velocity": 75}, {"time": 475, "pitch": 51, "duration": 8, "velocity": 60}, {"time": 481, "pitch": 63, "duration": 6, "velocity": 86}, {"time": 487, "pitch": 51, "duration": 9, "velocity": 61}, {"time": 493, "pitch": 59, "duration": 5, "velocity": 87}, {"time": 499, "pitch": 58, "duration": 1, "velocity": 76}, {"time": 505, "pitch": 40, "duration": 40, "velocity": 84}, {"time": 505, "pitch": 56, "duration": 13, "velocity": 77}, {"time": 511, "pitch": 47, "duration": 20, "velocity": 72}, {"time": 517, "pitch": 52, "duration": 7, "velocity": 83}, {"time": 523, "pitch": 56, "duration": 7, "velocity": 85}, {"time": 529, "pitch": 59, "duration": 4, "velocity": 85}, {"time": 535, "pitch": 47, "duration": 9, "velocity": 56}, {"time": 541, "pitch": 56, "duration": 3, "velocity": 85}, {"time": 553, "pitch": 42, "duration": 40, "velocity": 85}, {"time": 553, "pitch": 54, "duration": 18, "velocity": 82}, {"time": 559, "pitch": 49, "duration": 32, "velocity": 72}, {"time": 565, "pitch": 58, "duration": 6, "velocity": 83}, {"time": 571, "pitch": 61, "duration": 2, "velocity": 81}, {"time": 577, "pitch": 66, "duration": 5, "velocity": 82}, {"time": 583, "pitch": 54, "duration": 3, "velocity": 66}, {"time": 589, "pitch": 54, "duration": 3, "velocity": 79}, {"time": 589, "pitch": 61, "duration": 2, "velocity": 80}, {"time": 601, "pitch": 40, "duration": 22, "velocity": 85}, {"time": 601, "pitch": 52, "duration": 12, "velocity": 76}, {"time": 601, "pitch": 59, "duration": 13, "velocity": 81}, {"time": 607, "pitch": 47, "duration": 16, "velocity": 73}, {"time": 613, "pitch": 55, "duration": 6, "velocity": 85}, {"time": 619, "pitch": 52, "duration": 4, "velocity": 79}, {"time": 622, "pitch": 59, "duration": 13, "velocity": 81}, {"time": 625, "pitch": 40, "duration": 24, "velocity": 84}, {"time": 628, "pitch": 47, "duration": 21, "velocity": 75}, {"time": 631, "pitch": 52, "duration": 9, "velocity": 72}, {"time": 634, "pitch": 55, "duration": 4, "velocity": 73}, {"time": 637, "pitch": 59, "duration": 1, "velocity": 63}, {"time": 637, "pitch": 64, "duration": 12, "velocity": 88}, {"time": 640, "pitch": 59, "duration": 9, "velocity": 85}, {"time": 643, "pitch": 52, "duration": 6, "velocity": 79}, {"time": 649, "pitch": 47, "duration": 22, "velocity": 86}, {"time": 649, "pitch": 59, "duration": 4, "velocity": 79}, {"time": 649, "pitch": 63, "duration": 6, "velocity": 83}, {"time": 652, "pitch": 54, "duration": 8, "velocity": 74}, {"time": 655, "pitch": 59, "duration": 4, "velocity": 73}, {"time": 658, "pitch": 63, "duration": 6, "velocity": 86}, {"time": 661, "pitch": 54, "duration": 13, "velocity": 60}, {"time": 664, "pitch": 66, "duration": 14, "velocity": 80}, {"time": 667, "pitch": 59, "duration": 6, "velocity": 73}, {"time": 670, "pitch": 63, "duration": 3, "velocity": 79}, {"time": 673, "pitch": 46, "duration": 20, "velocity": 86}, {"time": 676, "pitch": 54, "duration": 16, "velocity": 75}, {"time": 679, "pitch": 58, "duration": 9, "velocity": 75}, {"time": 682, "pitch": 61, "duration": 7, "velocity": 80}, {"time": 688, "pitch": 66, "duration": 21, "velocity": 85}, {"time": 691, "pitch": 58, "duration": 5, "velocity": 80}, {"time": 694, "pitch": 61, "duration": 3, "velocity": 80}, {"time": 697, "pitch": 44, "duration": 22, "velocity": 85}, {"time": 700, "pitch": 51, "duration": 14, "velocity": 74}, {"time": 703, "pitch": 56, "duration": 7, "velocity": 74}, {"time": 706, "pitch": 59, "duration": 5, "velocity": 81}, {"time": 712, "pitch": 63, "duration": 9, "velocity": 87}, {"time": 715, "pitch": 51, "duration": 6, "velocity": 73}, {"time": 718, "pitch": 56, "duration": 5, "velocity": 76}, {"time": 721, "pitch": 42, "duration": 22, "velocity": 85}, {"time": 724, "pitch": 49, "duration": 19, "velocity": 68}, {"time": 727, "pitch": 54, "duration": 9, "velocity": 78}, {"time": 730, "pitch": 61, "duration": 9, "velocity": 81}, {"time": 736, "pitch": 66, "duration": 8, "velocity": 82}, {"time": 739, "pitch": 54, "duration": 7, "velocity": 83}, {"time": 742, "pitch": 61, "duration": 4, "velocity": 76}, {"time": 745, "pitch": 40, "duration": 22, "velocity": 86}, {"time": 748, "pitch": 47, "duration": 20, "velocity": 72}, {"time": 751, "pitch": 52, "duration": 10, "velocity": 76}, {"time": 754, "pitch": 56, "duration": 7, "velocity": 83}, {"time": 760, "pitch": 59, "duration": 15, "velocity": 86}, {"time": 763, "pitch": 52, "duration": 8, "velocity": 77}, {"time": 766, "pitch": 56, "duration": 9, "velocity": 85}, {"time": 769, "pitch": 40, "duration": 21, "velocity": 85}, {"time": 772, "pitch": 47, "duration": 19, "velocity": 73}, {"time": 775, "pitch": 52, "duration": 10, "velocity": 79}, {"time": 778, "pitch": 56, "duration": 7, "velocity": 85}, {"time": 781, "pitch": 59, "duration": 4, "velocity": 43}, {"time": 784, "pitch": 64, "duration": 7, "velocity": 86}, {"time": 787, "pitch": 52, "duration": 6, "velocity": 86}, {"time": 790, "pitch": 59, "duration": 4, "velocity": 79}, {"time": 793, "pitch": 42, "duration": 22, "velocity": 86}, {"time": 796, "pitch": 49, "duration": 20, "velocity": 72}, {"time": 799, "pitch": 54, "duration": 5, "velocity": 76}, {"time": 802, "pitch": 61, "duration": 7, "velocity": 82}, {"time": 808, "pitch": 66, "duration": 7, "velocity": 85}, {"time": 811, "pitch": 54, "duration": 8, "velocity": 73}, {"time": 814, "pitch": 61, "duration": 9, "velocity": 84}, {"time": 817, "pitch": 42, "duration": 23, "velocity": 85}, {"time": 820, "pitch": 49, "duration": 7, "velocity": 77}, {"time": 823, "pitch": 54, "duration": 4, "velocity": 83}, {"time": 826, "pitch": 61, "duration": 6, "velocity": 88}, {"time": 829, "pitch": 49, "duration": 11, "velocity": 82}, {"time": 832, "pitch": 66, "duration": 6, "velocity": 81}, {"time": 835, "pitch": 54, "duration": 4, "velocity": 82}, {"time": 838, "pitch": 61, "duration": 3, "velocity": 79}, {"time": 841, "pitch": 47, "duration": 22, "velocity": 86}, {"time": 841, "pitch": 59, "duration": 4, "velocity": 79}, {"time": 841, "pitch": 63, "duration": 6, "velocity": 83}, {"time": 844, "pitch": 54, "duration": 8, "velocity": 74}, {"time": 847, "pitch": 59, "duration": 4, "velocity": 73}, {"time": 850, "pitch": 63, "duration": 6, "velocity": 86}, {"time": 853, "pitch": 54, "duration": 13, "velocity": 60}, {"time": 856, "pitch": 66, "duration": 14, "velocity": 80}, {"time": 859, "pitch": 59, "duration": 6, "velocity": 73}, {"time": 862, "pitch": 63, "duration": 3, "velocity": 79}, {"time": 865, "pitch": 46, "duration": 20, "velocity": 86}, {"time": 868, "pitch": 54, "duration": 16, "velocity": 75}, {"time": 871, "pitch": 58, "duration": 9, "velocity": 75}, {"time": 874, "pitch": 61, "duration": 7, "velocity": 80}, {"time": 880, "pitch": 66, "duration": 21, "velocity": 85}, {"time": 883, "pitch": 58, "duration": 5, "velocity": 80}, {"time": 886, "pitch": 61, "duration": 3, "velocity": 80}, {"time": 889, "pitch": 44, "duration": 22, "velocity": 85}, {"time": 892, "pitch": 51, "duration": 14, "velocity": 74}, {"time": 895, "pitch": 56, "duration": 7, "velocity": 74}, {"time": 898, "pitch": 59, "duration": 5, "velocity": 81}, {"time": 904, "pitch": 63, "duration": 9, "velocity": 87}, {"time": 907, "pitch": 51, "duration": 6, "velocity": 73}, {"time": 910, "pitch": 56, "duration": 5, "velocity": 76}, {"time": 913, "pitch": 42, "duration": 22, "velocity": 85}, {"time": 916, "pitch": 49, "duration": 19, "velocity": 68}, {"time": 919, "pitch": 54, "duration": 9, "velocity": 78}, {"time": 922, "pitch": 61, "duration": 9, "velocity": 81}, {"time": 928, "pitch": 66, "duration": 8, "velocity": 82}, {"time": 931, "pitch": 54, "duration": 7, "velocity": 83}, {"time": 934, "pitch": 61, "duration": 4, "velocity": 76}, {"time": 937, "pitch": 40, "duration": 22, "velocity": 86}, {"time": 940, "pitch": 47, "duration": 20, "velocity": 72}, {"time": 943, "pitch": 52, "duration": 10, "velocity": 76}, {"time": 946, "pitch": 56, "duration": 7, "velocity": 83}, {"time": 952, "pitch": 59, "duration": 15, "velocity": 86}, {"time": 955, "pitch": 52, "duration": 8, "velocity": 77}, {"time": 958, "pitch": 56, "duration": 9, "velocity": 85}, {"time": 961, "pitch": 40, "duration": 21, "velocity": 85}, {"time": 964, "pitch": 47, "duration": 19, "velocity": 73}, {"time": 967, "pitch": 52, "duration": 10, "velocity": 79}, {"time": 970, "pitch": 56, "duration": 7, "velocity": 85}, {"time": 973, "pitch": 59, "duration": 4, "velocity": 43}, {"time": 976, "pitch": 64, "duration": 7, "velocity": 86}, {"time": 979, "pitch": 52, "duration": 6, "velocity": 86}, {"time": 982, "pitch": 59, "duration": 4, "velocity": 79}, {"time": 985, "pitch": 42, "duration": 22, "velocity": 86}, {"time": 988, "pitch": 49, "duration": 20, "velocity": 72}, {"time": 991, "pitch": 54, "duration": 5, "velocity": 76}, {"time": 994, "pitch": 61, "duration": 7, "velocity": 82}, {"time": 1000, "pitch": 66, "duration": 7, "velocity": 85}, {"time": 1003, "pitch": 54, "duration": 8, "velocity": 73}, {"time": 1006, "pitch": 61, "duration": 9, "velocity": 84}, {"time": 1009, "pitch": 42, "duration": 23, "velocity": 85}, {"time": 1012, "pitch": 49, "duration": 7, "velocity": 77}, {"time": 1015, "pitch": 54, "duration": 4, "velocity": 83}, {"time": 1018, "pitch": 61, "duration": 6, "velocity": 88}, {"time": 1021, "pitch": 49, "duration": 11, "velocity": 82}, {"time": 1024, "pitch": 66, "duration": 6, "velocity": 81}, {"time": 1027, "pitch": 54, "duration": 4, "velocity": 82}, {"time": 1030, "pitch": 61, "duration": 3, "velocity": 79}, {"time": 1033, "pitch": 47, "duration": 23, "velocity": 87}, {"time": 1033, "pitch": 54, "duration": 2, "velocity": 83}, {"time": 1033, "pitch": 63, "duration": 5, "velocity": 86}, {"time": 1036, "pitch": 54, "duration": 5, "velocity": 84}, {"time": 1039, "pitch": 59, "duration": 2, "velocity": 82}, {"time": 1042, "pitch": 61, "duration": 5, "velocity": 90}, {"time": 1048, "pitch": 59, "duration": 3, "velocity": 87}, {"time": 1051, "pitch": 54, "duration": 4, "velocity": 88}, {"time": 1054, "pitch": 59, "duration": 2, "velocity": 83}, {"time": 1057, "pitch": 47, "duration": 21, "velocity": 87}, {"time": 1057, "pitch": 54, "duration": 2, "velocity": 82}, {"time": 1057, "pitch": 63, "duration": 5, "velocity": 85}, {"time": 1060, "pitch": 54, "duration": 4, "velocity": 87}, {"time": 1063, "pitch": 59, "duration": 2, "velocity": 78}, {"time": 1066, "pitch": 54, "duration": 1, "velocity": 69}, {"time": 1066, "pitch": 63, "duration": 7, "velocity": 91}, {"time": 1072, "pitch": 54, "duration": 3, "velocity": 81}, {"time": 1075, "pitch": 58, "duration": 3, "velocity": 88}, {"time": 1078, "pitch": 54, "duration": 2, "velocity": 85}, {"time": 1081, "pitch": 44, "duration": 23, "velocity": 85}, {"time": 1081, "pitch": 56, "duration": 3, "velocity": 77}, {"time": 1081, "pitch": 59, "duration": 3, "velocity": 81}, {"time": 1084, "pitch": 51, "duration": 9, "velocity": 78}, {"time": 1087, "pitch": 56, "duration": 2, "velocity": 76}, {"time": 1090, "pitch": 56, "duration": 7, "velocity": 79}, {"time": 1090, "pitch": 63, "duration": 7, "velocity": 89}, {"time": 1096, "pitch": 51, "duration": 8, "velocity": 79}, {"time": 1099, "pitch": 56, "duration": 4, "velocity": 85}, {"time": 1102, "pitch": 59, "duration": 7, "velocity": 90}, {"time": 1105, "pitch": 44, "duration": 20, "velocity": 86}, {"time": 1108, "pitch": 51, "duration": 8, "velocity": 74}, {"time": 1111, "pitch": 56, "duration": 4, "velocity": 77}, {"time": 1114, "pitch": 59, "duration": 4, "velocity": 96}, {"time": 1117, "pitch": 51, "duration": 11, "velocity": 86}, {"time": 1120, "pitch": 56, "duration": 4, "velocity": 88}, {"time": 1123, "pitch": 59, "duration": 4, "velocity": 94}, {"time": 1126, "pitch": 63, "duration": 9, "velocity": 94}, {"time": 1129, "pitch": 40, "duration": 22, "velocity": 86}, {"time": 1132, "pitch": 47, "duration": 20, "velocity": 80}, {"time": 1135, "pitch": 52, "duration": 5, "velocity": 82}, {"time": 1138, "pitch": 56, "duration": 6, "velocity": 86}, {"time": 1144, "pitch": 59, "duration": 5, "velocity": 87}, {"time": 1147, "pitch": 52, "duration": 7, "velocity": 77}, {"time": 1150, "pitch": 56, "duration": 5, "velocity": 85}, {"time": 1153, "pitch": 40, "duration": 22, "velocity": 85}, {"time": 1153, "pitch": 64, "duration": 7, "velocity": 86}, {"time": 1156, "pitch": 47, "duration": 19, "velocity": 85}, {"time": 1159, "pitch": 52, "duration": 4, "velocity": 86}, {"time": 1162, "pitch": 59, "duration": 4, "velocity": 84}, {"time": 1168, "pitch": 56, "duration": 3, "velocity": 73}, {"time": 1171, "pitch": 52, "duration": 4, "velocity": 86}, {"time": 1174, "pitch": 56, "duration": 3, "velocity": 85}, {"time": 1177, "pitch": 42, "duration": 22, "velocity": 87}, {"time": 1180, "pitch": 49, "duration": 20, "velocity": 76}, {"time": 1183, "pitch": 54, "duration": 4, "velocity": 78}, {"time": 1186, "pitch": 61, "duration": 7, "velocity": 85}, {"time": 1192, "pitch": 66, "duration": 4, "velocity": 86}, {"time": 1195, "pitch": 54, "duration": 3, "velocity": 86}, {"time": 1198, "pitch": 61, "duration": 2, "velocity": 85}, {"time": 1201, "pitch": 42, "duration": 22, "velocity": 86}, {"time": 1201, "pitch": 54, "duration": 3, "velocity": 88}, {"time": 1204, "pitch": 49, "duration": 8, "velocity": 85}, {"time": 1207, "pitch": 54, "duration": 1, "velocity": 86}, {"time": 1210, "pitch": 54, "duration": 4, "velocity": 89}, {"time": 1210, "pitch": 58, "duration": 4, "velocity": 86}, {"time": 1213, "pitch": 49, "duration": 4, "velocity": 86}, {"time": 1216, "pitch": 54, "duration": 4, "velocity": 87}, {"time": 1216, "pitch": 58, "duration": 4, "velocity": 89}, {"time": 1216, "pitch": 61, "duration": 4, "velocity": 89}, {"time": 1219, "pitch": 49, "duration": 4, "velocity": 86}, {"time": 1222, "pitch": 54, "duration": 2, "velocity": 85}, {"time": 1225, "pitch": 47, "duration": 15, "velocity": 86}, {"time": 1225, "pitch": 54, "duration": 3, "velocity": 86}, {"time": 1225, "pitch": 59, "duration": 7, "velocity": 85}, {"time": 1231, "pitch": 54, "duration": 1, "velocity": 78}, {"time": 1234, "pitch": 63, "duration": 9, "velocity": 91}, {"time": 1240, "pitch": 54, "duration": 7, "velocity": 82}, {"time": 1243, "pitch": 59, "duration": 4, "velocity": 83}, {"time": 1246, "pitch": 63, "duration": 6, "velocity": 86}, {"time": 1249, "pitch": 35, "duration": 5, "velocity": 85}, {"time": 1252, "pitch": 54, "duration": 4, "velocity": 79}, {"time": 1255, "pitch": 59, "duration": 2, "velocity": 80}, {"time": 1258, "pitch": 54, "duration": 3, "velocity": 86}, {"time": 1258, "pitch": 63, "duration": 4, "velocity": 87}, {"time": 1264, "pitch": 54, "duration": 1, "velocity": 76}, {"time": 1264, "pitch": 59, "duration": 4, "velocity": 89}, {"time": 1267, "pitch": 54, "duration": 4, "velocity": 81}, {"time": 1270, "pitch": 59, "duration": 4, "velocity": 78}, {"time": 1273, "pitch": 44, "duration": 12, "velocity": 82}, {"time": 1276, "pitch": 56, "duration": 4, "velocity": 82}, {"time": 1279, "pitch": 59, "duration": 2, "velocity": 75}, {"time": 1282, "pitch": 63, "duration": 4, "velocity": 91}, {"time": 1288, "pitch": 56, "duration": 1, "velocity": 82}, {"time": 1288, "pitch": 63, "duration": 5, "velocity": 86}, {"time": 1291, "pitch": 56, "duration": 3, "velocity": 82}, {"time": 1294, "pitch": 59, "duration": 7, "velocity": 89}, {"time": 1297, "pitch": 44, "duration": 21, "velocity": 88}, {"time": 1300, "pitch": 51, "duration": 10, "velocity": 71}, {"time": 1303, "pitch": 56, "duration": 2, "velocity": 81}, {"time": 1306, "pitch": 59, "duration": 2, "velocity": 92}, {"time": 1309, "pitch": 56, "duration": 3, "velocity": 86}, {"time": 1309, "pitch": 59, "duration": 4, "velocity": 89}, {"time": 1309, "pitch": 63, "duration": 4, "velocity": 102}, {"time": 1312, "pitch": 51, "duration": 6, "velocity": 86}, {"time": 1315, "pitch": 56, "duration": 6, "velocity": 85}, {"time": 1318, "pitch": 59, "duration": 3, "velocity": 86}, {"time": 1321, "pitch": 40, "duration": 22, "velocity": 85}, {"time": 1324, "pitch": 47, "duration": 19, "velocity": 77}, {"time": 1327, "pitch": 52, "duration": 2, "velocity": 81}, {"time": 1330, "pitch": 52, "duration": 4, "velocity": 84}, {"time": 1330, "pitch": 59, "duration": 4, "velocity": 85}, {"time": 1336, "pitch": 52, "duration": 2, "velocity": 85}, {"time": 1336, "pitch": 56, "duration": 3, "velocity": 86}, {"time": 1339, "pitch": 52, "duration": 4, "velocity": 85}, {"time": 1342, "pitch": 59, "duration": 10, "velocity": 91}, {"time": 1345, "pitch": 40, "duration": 22, "velocity": 86}, {"time": 1348, "pitch": 47, "duration": 14, "velocity": 83}, {"time": 1351, "pitch": 52, "duration": 3, "velocity": 81}, {"time": 1354, "pitch": 52, "duration": 1, "velocity": 74}, {"time": 1354, "pitch": 64, "duration": 3, "velocity": 88}, {"time": 1360, "pitch": 52, "duration": 2, "velocity": 80}, {"time": 1360, "pitch": 56, "duration": 3, "velocity": 87}, {"time": 1360, "pitch": 59, "duration": 5, "velocity": 87}, {"time": 1363, "pitch": 47, "duration": 4, "velocity": 89}, {"time": 1366, "pitch": 52, "duration": 3, "velocity": 89}, {"time": 1366, "pitch": 56, "duration": 1, "velocity": 72}, {"time": 1366, "pitch": 59, "duration": 3, "velocity": 50}, {"time": 1369, "pitch": 42, "duration": 22, "velocity": 88}, {"time": 1372, "pitch": 49, "duration": 19, "velocity": 74}, {"time": 1375, "pitch": 54, "duration": 4, "velocity": 85}, {"time": 1378, "pitch": 61, "duration": 7, "velocity": 82}, {"time": 1384, "pitch": 66, "duration": 5, "velocity": 85}, {"time": 1387, "pitch": 54, "duration": 8, "velocity": 86}, {"time": 1390, "pitch": 61, "duration": 9, "velocity": 83}, {"time": 1393, "pitch": 42, "duration": 22, "velocity": 86}, {"time": 1396, "pitch": 49, "duration": 7, "velocity": 78}, {"time": 1399, "pitch": 54, "duration": 1, "velocity": 83}, {"time": 1402, "pitch": 54, "duration": 4, "velocity": 91}, {"time": 1402, "pitch": 61, "duration": 4, "velocity": 86}, {"time": 1405, "pitch": 49, "duration": 4, "velocity": 85}, {"time": 1408, "pitch": 54, "duration": 4, "velocity": 86}, {"time": 1408, "pitch": 61, "duration": 6, "velocity": 86}, {"time": 1411, "pitch": 49, "duration": 5, "velocity": 79}, {"time": 1414, "pitch": 54, "duration": 2, "velocity": 82}, {"time": 1417, "pitch": 40, "duration": 44, "velocity": 85}, {"time": 1417, "pitch": 52, "duration": 8, "velocity": 85}, {"time": 1417, "pitch": 56, "duration": 8, "velocity": 79}, {"time": 1423, "pitch": 47, "duration": 29, "velocity": 70}, {"time": 1429, "pitch": 59, "duration": 3, "velocity": 83}, {"time": 1435, "pitch": 52, "duration": 4, "velocity": 80}, {"time": 1438, "pitch": 64, "duration": 5, "velocity": 85}, {"time": 1444, "pitch": 59, "duration": 4, "velocity": 77}, {"time": 1447, "pitch": 52, "duration": 9, "velocity": 75}, {"time": 1450, "pitch": 56, "duration": 7, "velocity": 80}, {"time": 1456, "pitch": 47, "duration": 5, "velocity": 74}, {"time": 1459, "pitch": 52, "duration": 4, "velocity": 75}, {"time": 1462, "pitch": 56, "duration": 3, "velocity": 77}, {"time": 1465, "pitch": 42, "duration": 22, "velocity": 87}, {"time": 1468, "pitch": 49, "duration": 19, "velocity": 74}, {"time": 1471, "pitch": 54, "duration": 5, "velocity": 71}, {"time": 1474, "pitch": 61, "duration": 7, "velocity": 82}, {"time": 1480, "pitch": 66, "duration": 6, "velocity": 82}, {"time": 1483, "pitch": 54, "duration": 10, "velocity": 79}, {"time": 1486, "pitch": 61, "duration": 11, "velocity": 79}, {"time": 1489, "pitch": 42, "duration": 17, "velocity": 85}, {"time": 1495, "pitch": 49, "duration": 8, "velocity": 62}, {"time": 1501, "pitch": 54, "duration": 11, "velocity": 82}, {"time": 1501, "pitch": 61, "duration": 11, "velocity": 81}, {"time": 1513, "pitch": 47, "duration": 22, "velocity": 86}, {"time": 1513, "pitch": 59, "duration": 4, "velocity": 79}, {"time": 1513, "pitch": 63, "duration": 6, "velocity": 83}, {"time": 1516, "pitch": 54, "duration": 8, "velocity": 74}, {"time": 1519, "pitch": 59, "duration": 4, "velocity": 73}, {"time": 1522, "pitch": 63, "duration": 6, "velocity": 86}, {"time": 1525, "pitch": 54, "duration": 13, "velocity": 60}, {"time": 1528, "pitch": 66, "duration": 14, "velocity": 80}, {"time": 1531, "pitch": 59, "duration": 6, "velocity": 73}, {"time": 1534, "pitch": 63, "duration": 3, "velocity": 79}, {"time": 1537, "pitch": 46, "duration": 20, "velocity": 86}, {"time": 1540, "pitch": 54, "duration": 16, "velocity": 75}, {"time": 1543, "pitch": 58, "duration": 9, "velocity": 75}, {"time": 1546, "pitch": 61, "duration": 7, "velocity": 80}, {"time": 1552, "pitch": 66, "duration": 21, "velocity": 85}, {"time": 1555, "pitch": 58, "duration": 5, "velocity": 80}, {"time": 1558, "pitch": 61, "duration": 3, "velocity": 80}, {"time": 1561, "pitch": 44, "duration": 22, "velocity": 85}, {"time": 1564, "pitch": 51, "duration": 14, "velocity": 74}, {"time": 1567, "pitch": 56, "duration": 7, "velocity": 74}, {"time": 1570, "pitch": 59, "duration": 5, "velocity": 81}, {"time": 1576, "pitch": 63, "duration": 9, "velocity": 87}, {"time": 1579, "pitch": 51, "duration": 6, "velocity": 73}, {"time": 1582, "pitch": 56, "duration": 5, "velocity": 76}, {"time": 1585, "pitch": 42, "duration": 22, "velocity": 85}, {"time": 1588, "pitch": 49, "duration": 19, "velocity": 68}, {"time": 1591, "pitch": 54, "duration": 9, "velocity": 78}, {"time": 1594, "pitch": 61, "duration": 9, "velocity": 81}, {"time": 1600, "pitch": 66, "duration": 8, "velocity": 82}, {"time": 1603, "pitch": 54, "duration": 7, "velocity": 83}, {"time": 1606, "pitch": 61, "duration": 4, "velocity": 76}, {"time": 1609, "pitch": 40, "duration": 22, "velocity": 86}, {"time": 1612, "pitch": 47, "duration": 20, "velocity": 72}, {"time": 1615, "pitch": 52, "duration": 10, "velocity": 76}, {"time": 1618, "pitch": 56, "duration": 7, "velocity": 83}, {"time": 1624, "pitch": 59, "duration": 15, "velocity": 86}, {"time": 1627, "pitch": 52, "duration": 8, "velocity": 77}, {"time": 1630, "pitch": 56, "duration": 9, "velocity": 85}, {"time": 1633, "pitch": 40, "duration": 21, "velocity": 85}, {"time": 1636, "pitch": 47, "duration": 19, "velocity": 73}, {"time": 1639, "pitch": 52, "duration": 10, "velocity": 79}, {"time": 1642, "pitch": 56, "duration": 7, "velocity": 85}, {"time": 1645, "pitch": 59, "duration": 4, "velocity": 43}, {"time": 1648, "pitch": 64, "duration": 7, "velocity": 86}, {"time": 1651, "pitch": 52, "duration": 6, "velocity": 86}, {"time": 1654, "pitch": 59, "duration": 4, "velocity": 79}, {"time": 1657, "pitch": 42, "duration": 22, "velocity": 86}, {"time": 1660, "pitch": 49, "duration": 20, "velocity": 72}, {"time": 1663, "pitch": 54, "duration": 5, "velocity": 76}, {"time": 1666, "pitch": 61, "duration": 7, "velocity": 82}, {"time": 1672, "pitch": 66, "duration": 7, "velocity": 85}, {"time": 1675, "pitch": 54, "duration": 8, "velocity": 73}, {"time": 1678, "pitch": 61, "duration": 9, "velocity": 84}, {"time": 1681, "pitch": 42, "duration": 23, "velocity": 85}, {"time": 1684, "pitch": 49, "duration": 7, "velocity": 77}, {"time": 1687, "pitch": 54, "duration": 4, "velocity": 83}, {"time": 1690, "pitch": 61, "duration": 6, "velocity": 88}, {"time": 1693, "pitch": 49, "duration": 11, "velocity": 82}, {"time": 1696, "pitch": 66, "duration": 6, "velocity": 81}, {"time": 1699, "pitch": 54, "duration": 4, "velocity": 82}, {"time": 1702, "pitch": 61, "duration": 3, "velocity": 79}, {"time": 1705, "pitch": 47, "duration": 22, "velocity": 86}, {"time": 1705, "pitch": 59, "duration": 4, "velocity": 79}, {"time": 1705, "pitch": 63, "duration": 6, "velocity": 83}, {"time": 1708, "pitch": 54, "duration": 8, "velocity": 74}, {"time": 1711, "pitch": 59, "duration": 4, "velocity": 73}, {"time": 1714, "pitch": 63, "duration": 6, "velocity": 86}, {"time": 1717, "pitch": 54, "duration": 13, "velocity": 60}, {"time": 1720, "pitch": 66, "duration": 14, "velocity": 80}, {"time": 1723, "pitch": 59, "duration": 6, "velocity": 73}, {"time": 1726, "pitch": 63, "duration": 3, "velocity": 79}, {"time": 1729, "pitch": 46, "duration": 20, "velocity": 86}, {"time": 1732, "pitch": 54, "duration": 16, "velocity": 75}, {"time": 1735, "pitch": 58, "duration": 9, "velocity": 75}, {"time": 1738, "pitch": 61, "duration": 7, "velocity": 80}, {"time": 1744, "pitch": 66, "duration": 21, "velocity": 85}, {"time": 1747, "pitch": 58, "duration": 5, "velocity": 80}, {"time": 1750, "pitch": 61, "duration": 3, "velocity": 80}, {"time": 1753, "pitch": 44, "duration": 22, "velocity": 85}, {"time": 1756, "pitch": 51, "duration": 14, "velocity": 74}, {"time": 1759, "pitch": 56, "duration": 7, "velocity": 74}, {"time": 1762, "pitch": 59, "duration": 5, "velocity": 81}, {"time": 1768, "pitch": 63, "duration": 9, "velocity": 87}, {"time": 1771, "pitch": 51, "duration": 6, "velocity": 73}, {"time": 1774, "pitch": 56, "duration": 5, "velocity": 76}, {"time": 1777, "pitch": 42, "duration": 22, "velocity": 85}, {"time": 1780, "pitch": 49, "duration": 19, "velocity": 68}, {"time": 1783, "pitch": 54, "duration": 9, "velocity": 78}, {"time": 1786, "pitch": 61, "duration": 9, "velocity": 81}, {"time": 1792, "pitch": 66, "duration": 8, "velocity": 82}, {"time": 1795, "pitch": 54, "duration": 7, "velocity": 83}, {"time": 1798, "pitch": 61, "duration": 4, "velocity": 76}, {"time": 1801, "pitch": 40, "duration": 22, "velocity": 86}, {"time": 1804, "pitch": 47, "duration": 20, "velocity": 72}, {"time": 1807, "pitch": 52, "duration": 10, "velocity": 76}, {"time": 1810, "pitch": 56, "duration": 7, "velocity": 83}, {"time": 1816, "pitch": 59, "duration": 15, "velocity": 86}, {"time": 1819, "pitch": 52, "duration": 8, "velocity": 77}, {"time": 1822, "pitch": 56, "duration": 9, "velocity": 85}, {"time": 1825, "pitch": 40, "duration": 21, "velocity": 85}, {"time": 1828, "pitch": 47, "duration": 19, "velocity": 73}, {"time": 1831, "pitch": 52, "duration": 10, "velocity": 79}, {"time": 1834, "pitch": 56, "duration": 7, "velocity": 85}, {"time": 1837, "pitch": 59, "duration": 4, "velocity": 43}, {"time": 1840, "pitch": 64, "duration": 7, "velocity": 86}, {"time": 1843, "pitch": 52, "duration": 6, "velocity": 86}, {"time": 1846, "pitch": 59, "duration": 4, "velocity": 79}, {"time": 1849, "pitch": 42, "duration": 22, "velocity": 86}, {"time": 1852, "pitch": 49, "duration": 20, "velocity": 72}, {"time": 1855, "pitch": 54, "duration": 5, "velocity": 76}, {"time": 1858, "pitch": 61, "duration": 7, "velocity": 82}, {"time": 1864, "pitch": 66, "duration": 7, "velocity": 85}, {"time": 1867, "pitch": 54, "duration": 8, "velocity": 73}, {"time": 1870, "pitch": 61, "duration": 9, "velocity": 84}, {"time": 1873, "pitch": 42, "duration": 23, "velocity": 85}, {"time": 1876, "pitch": 49, "duration": 7, "velocity": 77}, {"time": 1879, "pitch": 54, "duration": 4, "velocity": 83}, {"time": 1882, "pitch": 61, "duration": 6, "velocity": 88}, {"time": 1885, "pitch": 49, "duration": 11, "velocity": 82}, {"time": 1888, "pitch": 66, "duration": 6, "velocity": 81}, {"time": 1891, "pitch": 54, "duration": 4, "velocity": 82}, {"time": 1894, "pitch": 61, "duration": 3, "velocity": 79}, {"time": 1897, "pitch": 47, "duration": 23, "velocity": 87}, {"time": 1897, "pitch": 54, "duration": 2, "velocity": 83}, {"time": 1897, "pitch": 63, "duration": 5, "velocity": 86}, {"time": 1900, "pitch": 54, "duration": 5, "velocity": 84}, {"time": 1903, "pitch": 59, "duration": 2, "velocity": 82}, {"time": 1906, "pitch": 61, "duration": 5, "velocity": 90}, {"time": 1912, "pitch": 59, "duration": 3, "velocity": 87}, {"time": 1915, "pitch": 54, "duration": 4, "velocity": 88}, {"time": 1918, "pitch": 59, "duration": 2, "velocity": 83}, {"time": 1921, "pitch": 47, "duration": 21, "velocity": 87}, {"time": 1921, "pitch": 54, "duration": 2, "velocity": 82}, {"time": 1921, "pitch": 63, "duration": 5, "velocity": 85}, {"time": 1924, "pitch": 54, "duration": 4, "velocity": 87}, {"time": 1927, "pitch": 59, "duration": 2, "velocity": 78}, {"time": 1930, "pitch": 54, "duration": 1, "velocity": 69}, {"time": 1930, "pitch": 63, "duration": 7, "velocity": 91}, {"time": 1936, "pitch": 54, "duration": 3, "velocity": 81}, {"time": 1939, "pitch": 58, "duration": 3, "velocity": 88}, {"time": 1942, "pitch": 54, "duration": 2, "velocity": 85}, {"time": 1945, "pitch": 44, "duration": 23, "velocity": 85}, {"time": 1945, "pitch": 56, "duration": 3, "velocity": 77}, {"time": 1945, "pitch": 59, "duration": 3, "velocity": 81}, {"time": 1948, "pitch": 51, "duration": 9, "velocity": 78}, {"time": 1951, "pitch": 56, "duration": 2, "velocity": 76}, {"time": 1954, "pitch": 56, "duration": 7, "velocity": 79}, {"time": 1954, "pitch": 63, "duration": 7, "velocity": 89}, {"time": 1960, "pitch": 51, "duration": 8, "velocity": 79}, {"time": 1963, "pitch": 56, "duration": 4, "velocity": 85}, {"time": 1966, "pitch": 59, "duration": 7, "velocity": 90}, {"time": 1969, "pitch": 44, "duration": 20, "velocity": 86}, {"time": 1972, "pitch": 51, "duration": 8, "velocity": 74}, {"time": 1975, "pitch": 56, "duration": 4, "velocity": 77}, {"time": 1978, "pitch": 59, "duration": 4, "velocity": 96}, {"time": 1981, "pitch": 51, "duration": 11, "velocity": 86}, {"time": 1984, "pitch": 56, "duration": 4, "velocity": 88}, {"time": 1987, "pitch": 59, "duration": 4, "velocity": 94}, {"time": 1990, "pitch": 63, "duration": 9, "velocity": 94}, {"time": 1993, "pitch": 40, "duration": 22, "velocity": 86}, {"time": 1996, "pitch": 47, "duration": 20, "velocity": 80}, {"time": 1999, "pitch": 52, "duration": 5, "velocity": 82}, {"time": 2002, "pitch": 56, "duration": 6, "velocity": 86}, {"time": 2008, "pitch": 59, "duration": 5, "velocity": 87}, {"time": 2011, "pitch": 52, "duration": 7, "velocity": 77}, {"time": 2014, "pitch": 56, "duration": 5, "velocity": 85}, {"time": 2017, "pitch": 40, "duration": 22, "velocity": 85}, {"time": 2017, "pitch": 64, "duration": 7, "velocity": 86}, {"time": 2020, "pitch": 47, "duration": 19, "velocity": 85}, {"time": 2023, "pitch": 52, "duration": 4, "velocity": 86}, {"time": 2026, "pitch": 59, "duration": 4, "velocity": 84}, {"time": 2032, "pitch": 56, "duration": 3, "velocity": 73}, {"time": 2035, "pitch": 52, "duration": 4, "velocity": 86}, {"time": 2038, "pitch": 56, "duration": 3, "velocity": 85}, {"time": 2041, "pitch": 42, "duration": 22, "velocity": 87}, {"time": 2044, "pitch": 49, "duration": 20, "velocity": 76}, {"time": 2047, "pitch": 54, "duration": 4, "velocity": 78}, {"time": 2050, "pitch": 61, "duration": 7, "velocity": 85}, {"time": 2056, "pitch": 66, "duration": 4, "velocity": 86}, {"time": 2059, "pitch": 54, "duration": 3, "velocity": 86}, {"time": 2062, "pitch": 61, "duration": 2, "velocity": 85}, {"time": 2065, "pitch": 42, "duration": 22, "velocity": 86}, {"time": 2065, "pitch": 54, "duration": 3, "velocity": 88}, {"time": 2068, "pitch": 49, "duration": 8, "velocity": 85}, {"time": 2071, "pitch": 54, "duration": 1, "velocity": 86}, {"time": 2074, "pitch": 54, "duration": 4, "velocity": 89}, {"time": 2074, "pitch": 58, "duration": 4, "velocity": 86}, {"time": 2077, "pitch": 49, "duration": 4, "velocity": 86}, {"time": 2080, "pitch": 54, "duration": 4, "velocity": 87}, {"time": 2080, "pitch": 58, "duration": 4, "velocity": 89}, {"time": 2080, "pitch": 61, "duration": 4, "velocity": 89}, {"time": 2083, "pitch": 49, "duration": 4, "velocity": 86}, {"time": 2086, "pitch": 54, "duration": 2, "velocity": 85}, {"time": 2089, "pitch": 47, "duration": 15, "velocity": 86}, {"time": 2089, "pitch": 54, "duration": 3, "velocity": 86}, {"time": 2089, "pitch": 59, "duration": 7, "velocity": 85}, {"time": 2095, "pitch": 54, "duration": 1, "velocity": 78}, {"time": 2098, "pitch": 63, "duration": 9, "velocity": 91}, {"time": 2104, "pitch": 54, "duration": 7, "velocity": 82}, {"time": 2107, "pitch": 59, "duration": 4, "velocity": 83}, {"time": 2110, "pitch": 63, "duration": 6, "velocity": 86}, {"time": 2113, "pitch": 35, "duration": 5, "velocity": 85}, {"time": 2116, "pitch": 54, "duration": 4, "velocity": 79}, {"time": 2119, "pitch": 59, "duration": 2, "velocity": 80}, {"time": 2122, "pitch": 54, "duration": 3, "velocity": 86}, {"time": 2122, "pitch": 63, "duration": 4, "velocity": 87}, {"time": 2128, "pitch": 54, "duration": 1, "velocity": 76}, {"time": 2128, "pitch": 59, "duration": 4, "velocity": 89}, {"time": 2131, "pitch": 54, "duration": 4, "velocity": 81}, {"time": 2134, "pitch": 59, "duration": 4, "velocity": 78}, {"time": 2137, "pitch": 44, "duration": 12, "velocity": 82}, {"time": 2140, "pitch": 56, "duration": 4, "velocity": 82}, {"time": 2143, "pitch": 59, "duration": 2, "velocity": 75}, {"time": 2146, "pitch": 63, "duration": 4, "velocity": 91}, {"time": 2152, "pitch": 56, "duration": 1, "velocity": 82}, {"time": 2152, "pitch": 63, "duration": 5, "velocity": 86}, {"time": 2155, "pitch": 56, "duration": 3, "velocity": 82}, {"time": 2158, "pitch": 59, "duration": 7, "velocity": 89}, {"time": 2161, "pitch": 44, "duration": 21, "velocity": 88}, {"time": 2164, "pitch": 51, "duration": 10, "velocity": 71}, {"time": 2167, "pitch": 56, "duration": 2, "velocity": 81}, {"time": 2170, "pitch": 59, "duration": 2, "velocity": 92}, {"time": 2173, "pitch": 56, "duration": 3, "velocity": 86}, {"time": 2173, "pitch": 59, "duration": 4, "velocity": 89}, {"time": 2173, "pitch": 63, "duration": 4, "velocity": 102}, {"time": 2176, "pitch": 51, "duration": 6, "velocity": 86}, {"time": 2179, "pitch": 56, "duration": 6, "velocity": 85}, {"time": 2182, "pitch": 59, "duration": 3, "velocity": 86}, {"time": 2185, "pitch": 40, "duration": 22, "velocity": 85}, {"time": 2188, "pitch": 47, "duration": 19, "velocity": 77}, {"time": 2191, "pitch": 52, "duration": 2, "velocity": 81}, {"time": 2194, "pitch": 52, "duration": 4, "velocity": 84}, {"time": 2194, "pitch": 59, "duration": 4, "velocity": 85}, {"time": 2200, "pitch": 52, "duration": 2, "velocity": 85}, {"time": 2200, "pitch": 56, "duration": 3, "velocity": 86}, {"time": 2203, "pitch": 52, "duration": 4, "velocity": 85}, {"time": 2206, "pitch": 59, "duration": 10, "velocity": 91}, {"time": 2209, "pitch": 40, "duration": 22, "velocity": 86}, {"time": 2212, "pitch": 47, "duration": 14, "velocity": 83}, {"time": 2215, "pitch": 52, "duration": 3, "velocity": 81}, {"time": 2218, "pitch": 52, "duration": 1, "velocity": 74}, {"time": 2218, "pitch": 64, "duration": 3, "velocity": 88}, {"time": 2224, "pitch": 52, "duration": 2, "velocity": 80}, {"time": 2224, "pitch": 56, "duration": 3, "velocity": 87}, {"time": 2224, "pitch": 59, "duration": 5, "velocity": 87}, {"time": 2227, "pitch": 47, "duration": 4, "velocity": 89}, {"time": 2230, "pitch": 52, "duration": 3, "velocity": 89}, {"time": 2230, "pitch": 56, "duration": 1, "velocity": 72}, {"time": 2230, "pitch": 59, "duration": 3, "velocity": 50}, {"time": 2233, "pitch": 42, "duration": 22, "velocity": 88}, {"time": 2236, "pitch": 49, "duration": 19, "velocity": 74}, {"time": 2239, "pitch": 54, "duration": 4, "velocity": 85}, {"time": 2242, "pitch": 61, "duration": 7, "velocity": 82}, {"time": 2248, "pitch": 66, "duration": 5, "velocity": 85}, {"time": 2251, "pitch": 54, "duration": 8, "velocity": 86}, {"time": 2254, "pitch": 61, "duration": 9, "velocity": 83}, {"time": 2257, "pitch": 42, "duration": 22, "velocity": 86}, {"time": 2260, "pitch": 49, "duration": 7, "velocity": 78}, {"time": 2263, "pitch": 54, "duration": 1, "velocity": 83}, {"time": 2266, "pitch": 54, "duration": 4, "velocity": 91}, {"time": 2266, "pitch": 61, "duration": 4, "velocity": 86}, {"time": 2269, "pitch": 49, "duration": 4, "velocity": 85}, {"time": 2272, "pitch": 54, "duration": 4, "velocity": 86}, {"time": 2272, "pitch": 61, "duration": 6, "velocity": 86}, {"time": 2275, "pitch": 49, "duration": 5, "velocity": 79}, {"time": 2278, "pitch": 54, "duration": 2, "velocity": 82}, {"time": 2281, "pitch": 40, "duration": 22, "velocity": 86}, {"time": 2281, "pitch": 52, "duration": 3, "velocity": 83}, {"time": 2281, "pitch": 59, "duration": 4, "velocity": 86}, {"time": 2284, "pitch": 47, "duration": 19, "velocity": 73}, {"time": 2287, "pitch": 52, "duration": 2, "velocity": 80}, {"time": 2290, "pitch": 52, "duration": 4, "velocity": 80}, {"time": 2290, "pitch": 56, "duration": 4, "velocity": 87}, {"time": 2290, "pitch": 59, "duration": 4, "velocity": 86}, {"time": 2290, "pitch": 64, "duration": 4, "velocity": 87}, {"time": 2296, "pitch": 52, "duration": 1, "velocity": 62}, {"time": 2296, "pitch": 56, "duration": 3, "velocity": 74}, {"time": 2296, "pitch": 59, "duration": 4, "velocity": 80}, {"time": 2302, "pitch": 52, "duration": 6, "velocity": 78}, {"time": 2302, "pitch": 56, "duration": 4, "velocity": 71}, {"time": 2302, "pitch": 59, "duration": 5, "velocity": 67}, {"time": 2305, "pitch": 40, "duration": 19, "velocity": 86}, {"time": 2308, "pitch": 47, "duration": 8, "velocity": 70}, {"time": 2311, "pitch": 52, "duration": 1, "velocity": 79}, {"time": 2314, "pitch": 52, "duration": 4, "velocity": 87}, {"time": 2314, "pitch": 56, "duration": 4, "velocity": 89}, {"time": 2314, "pitch": 59, "duration": 4, "velocity": 86}, {"time": 2317, "pitch": 47, "duration": 6, "velocity": 78}, {"time": 2320, "pitch": 52, "duration": 2, "velocity": 88}, {"time": 2320, "pitch": 56, "duration": 2, "velocity": 86}, {"time": 2329, "pitch": 39, "duration": 1, "velocity": 87}, {"time": 2329, "pitch": 51, "duration": 2, "velocity": 85}, {"time": 2329, "pitch": 54, "duration": 2, "velocity": 85}, {"time": 2338, "pitch": 46, "duration": 33, "velocity": 73}, {"time": 2341, "pitch": 51, "duration": 16, "velocity": 92}, {"time": 2344, "pitch": 54, "duration": 8, "velocity": 87}, {"time": 2347, "pitch": 58, "duration": 2, "velocity": 88}, {"time": 2350, "pitch": 58, "duration": 4, "velocity": 86}, {"time": 2350, "pitch": 63, "duration": 4, "velocity": 91}, {"time": 2353, "pitch": 54, "duration": 4, "velocity": 80}, {"time": 2356, "pitch": 58, "duration": 4, "velocity": 83}, {"time": 2356, "pitch": 63, "duration": 4, "velocity": 86}, {"time": 2356, "pitch": 66, "duration": 4, "velocity": 81}, {"time": 2359, "pitch": 54, "duration": 2, "velocity": 67}, {"time": 2362, "pitch": 58, "duration": 2, "velocity": 83}, {"time": 2365, "pitch": 54, "duration": 4, "velocity": 87}, {"time": 2368, "pitch": 58, "duration": 3, "velocity": 90}, {"time": 2368, "pitch": 63, "duration": 3, "velocity": 92}, {"time": 2377, "pitch": 49, "duration": 16, "velocity": 87}, {"time": 2377, "pitch": 56, "duration": 3, "velocity": 78}, {"time": 2377, "pitch": 61, "duration": 6, "velocity": 84}, {"time": 2383, "pitch": 56, "duration": 1, "velocity": 72}, {"time": 2386, "pitch": 56, "duration": 2, "velocity": 91}, {"time": 2386, "pitch": 64, "duration": 2, "velocity": 86}, {"time": 2392, "pitch": 56, "duration": 2, "velocity": 86}, {"time": 2392, "pitch": 61, "duration": 2, "velocity": 86}, {"time": 2398, "pitch": 56, "duration": 1, "velocity": 73}, {"time": 2401, "pitch": 37, "duration": 15, "velocity": 87}, {"time": 2401, "pitch": 56, "duration": 2, "velocity": 86}, {"time": 2401, "pitch": 64, "duration": 5, "velocity": 85}, {"time": 2407, "pitch": 56, "duration": 1, "velocity": 68}, {"time": 2410, "pitch": 56, "duration": 4, "velocity": 89}, {"time": 2410, "pitch": 61, "duration": 3, "velocity": 89}, {"time": 2419, "pitch": 59, "duration": 3, "velocity": 85}, {"time": 2425, "pitch": 42, "duration": 22, "velocity": 86}, {"time": 2425, "pitch": 54, "duration": 3, "velocity": 79}, {"time": 2425, "pitch": 58, "duration": 3, "velocity": 80}, {"time": 2428, "pitch": 49, "duration": 7, "velocity": 75}, {"time": 2431, "pitch": 54, "duration": 1, "velocity": 84}, {"time": 2434, "pitch": 54, "duration": 3, "velocity": 90}, {"time": 2434, "pitch": 61, "duration": 3, "velocity": 87}, {"time": 2437, "pitch": 49, "duration": 4, "velocity": 75}, {"time": 2440, "pitch": 54, "duration": 2, "velocity": 86}, {"time": 2440, "pitch": 66, "duration": 2, "velocity": 86}, {"time": 2446, "pitch": 54, "duration": 1, "velocity": 83}, {"time": 2449, "pitch": 42, "duration": 23, "velocity": 87}, {"time": 2449, "pitch": 54, "duration": 4, "velocity": 84}, {"time": 2449, "pitch": 58, "duration": 4, "velocity": 86}, {"time": 2449, "pitch": 61, "duration": 6, "velocity": 85}, {"time": 2452, "pitch": 49, "duration": 20, "velocity": 76}, {"time": 2455, "pitch": 54, "duration": 1, "velocity": 76}, {"time": 2458, "pitch": 54, "duration": 14, "velocity": 84}, {"time": 2458, "pitch": 66, "duration": 14, "velocity": 79}, {"time": 2473, "pitch": 47, "duration": 41, "velocity": 85}, {"time": 2473, "pitch": 54, "duration": 3, "velocity": 77}, {"time": 2473, "pitch": 59, "duration": 6, "velocity": 79}, {"time": 2485, "pitch": 54, "duration": 2, "velocity": 82}, {"time": 2485, "pitch": 63, "duration": 1, "velocity": 86}, {"time": 2494, "pitch": 54, "duration": 2, "velocity": 69}, {"time": 2494, "pitch": 59, "duration": 2, "velocity": 71}, {"time": 2506, "pitch": 54, "duration": 1, "velocity": 64}, {"time": 2509, "pitch": 63, "duration": 4, "velocity": 91}, {"time": 2512, "pitch": 54, "duration": 3, "velocity": 73}, {"time": 2515, "pitch": 59, "duration": 2, "velocity": 75}, {"time": 2521, "pitch": 44, "duration": 41, "velocity": 78}, {"time": 2521, "pitch": 56, "duration": 5, "velocity": 73}, {"time": 2521, "pitch": 59, "duration": 5, "velocity": 77}, {"time": 2533, "pitch": 56, "duration": 2, "velocity": 73}, {"time": 2533, "pitch": 63, "duration": 2, "velocity": 85}, {"time": 2542, "pitch": 56, "duration": 2, "velocity": 73}, {"time": 2542, "pitch": 59, "duration": 2, "velocity": 74}, {"time": 2548, "pitch": 56, "duration": 2, "velocity": 73}, {"time": 2551, "pitch": 51, "duration": 10, "velocity": 77}, {"time": 2557, "pitch": 56, "duration": 3, "velocity": 73}, {"time": 2557, "pitch": 59, "duration": 3, "velocity": 76}, {"time": 2569, "pitch": 40, "duration": 42, "velocity": 74}, {"time": 2569, "pitch": 52, "duration": 5, "velocity": 73}, {"time": 2569, "pitch": 56, "duration": 5, "velocity": 70}, {"time": 2581, "pitch": 52, "duration": 3, "velocity": 77}, {"time": 2581, "pitch": 59, "duration": 3, "velocity": 80}, {"time": 2590, "pitch": 56, "duration": 2, "velocity": 74}, {"time": 2596, "pitch": 47, "duration": 8, "velocity": 55}, {"time": 2599, "pitch": 52, "duration": 3, "velocity": 70}, {"time": 2602, "pitch": 56, "duration": 1, "velocity": 68}, {"time": 2605, "pitch": 52, "duration": 3, "velocity": 80}, {"time": 2605, "pitch": 59, "duration": 2, "velocity": 81}, {"time": 2608, "pitch": 47, "duration": 3, "velocity": 75}, {"time": 2611, "pitch": 52, "duration": 2, "velocity": 75}, {"time": 2617, "pitch": 42, "duration": 47, "velocity": 81}, {"time": 2617, "pitch": 54, "duration": 6, "velocity": 73}, {"time": 2617, "pitch": 58, "duration": 5, "velocity": 77}, {"time": 2629, "pitch": 54, "duration": 2, "velocity": 77}, {"time": 2629, "pitch": 61, "duration": 2, "velocity": 79}, {"time": 2638, "pitch": 54, "duration": 2, "velocity": 73}, {"time": 2638, "pitch": 61, "duration": 2, "velocity": 72}, {"time": 2641, "pitch": 49, "duration": 3, "velocity": 58}, {"time": 2644, "pitch": 54, "duration": 3, "velocity": 75}, {"time": 2647, "pitch": 49, "duration": 7, "velocity": 74}, {"time": 2650, "pitch": 54, "duration": 2, "velocity": 75}, {"time": 2653, "pitch": 54, "duration": 4, "velocity": 86}, {"time": 2653, "pitch": 58, "duration": 4, "velocity": 86}, {"time": 2656, "pitch": 49, "duration": 2, "velocity": 77}, {"time": 2665, "pitch": 47, "duration": 12, "velocity": 85}, {"time": 2665, "pitch": 54, "duration": 4, "velocity": 75}, {"time": 2665, "pitch": 59, "duration": 6, "velocity": 79}, {"time": 2677, "pitch": 54, "duration": 2, "velocity": 76}, {"time": 2677, "pitch": 63, "duration": 1, "velocity": 85}, {"time": 2686, "pitch": 54, "duration": 1, "velocity": 72}, {"time": 2686, "pitch": 59, "duration": 1, "velocity": 74}, {"time": 2692, "pitch": 54, "duration": 2, "velocity": 78}, {"time": 2692, "pitch": 63, "duration": 2, "velocity": 81}, {"time": 2698, "pitch": 54, "duration": 1, "velocity": 66}, {"time": 2701, "pitch": 54, "duration": 3, "velocity": 85}, {"time": 2701, "pitch": 59, "duration": 3, "velocity": 86}, {"time": 2704, "pitch": 47, "duration": 2, "velocity": 79}, {"time": 2707, "pitch": 54, "duration": 2, "velocity": 79}, {"time": 2713, "pitch": 44, "duration": 40, "velocity": 77}, {"time": 2713, "pitch": 56, "duration": 6, "velocity": 74}, {"time": 2713, "pitch": 59, "duration": 5, "velocity": 78}, {"time": 2725, "pitch": 56, "duration": 1, "velocity": 66}, {"time": 2725, "pitch": 59, "duration": 1, "velocity": 74}, {"time": 2734, "pitch": 56, "duration": 1, "velocity": 74}, {"time": 2734, "pitch": 63, "duration": 1, "velocity": 80}, {"time": 2740, "pitch": 56, "duration": 2, "velocity": 73}, {"time": 2740, "pitch": 59, "duration": 2, "velocity": 77}, {"time": 2743, "pitch": 51, "duration": 2, "velocity": 64}, {"time": 2746, "pitch": 56, "duration": 1, "velocity": 73}, {"time": 2749, "pitch": 56, "duration": 3, "velocity": 85}, {"time": 2749, "pitch": 59, "duration": 2, "velocity": 86}, {"time": 2752, "pitch": 51, "duration": 1, "velocity": 79}, {"time": 2755, "pitch": 56, "duration": 2, "velocity": 76}, {"time": 2761, "pitch": 40, "duration": 41, "velocity": 84}, {"time": 2761, "pitch": 52, "duration": 6, "velocity": 74}, {"time": 2761, "pitch": 59, "duration": 5, "velocity": 78}, {"time": 2773, "pitch": 52, "duration": 2, "velocity": 82}, {"time": 2773, "pitch": 59, "duration": 2, "velocity": 81}, {"time": 2779, "pitch": 47, "duration": 3, "velocity": 59}, {"time": 2782, "pitch": 52, "duration": 3, "velocity": 74}, {"time": 2782, "pitch": 56, "duration": 3, "velocity": 70}, {"time": 2785, "pitch": 47, "duration": 2, "velocity": 50}, {"time": 2788, "pitch": 52, "duration": 2, "velocity": 82}, {"time": 2788, "pitch": 59, "duration": 2, "velocity": 80}, {"time": 2791, "pitch": 47, "duration": 7, "velocity": 69}, {"time": 2794, "pitch": 52, "duration": 1, "velocity": 69}, {"time": 2797, "pitch": 52, "duration": 3, "velocity": 85}, {"time": 2797, "pitch": 56, "duration": 3, "velocity": 85}, {"time": 2800, "pitch": 47, "duration": 1, "velocity": 68}, {"time": 2803, "pitch": 40, "duration": 4, "velocity": 85}, {"time": 2809, "pitch": 42, "duration": 34, "velocity": 82}, {"time": 2809, "pitch": 54, "duration": 6, "velocity": 75}, {"time": 2809, "pitch": 58, "duration": 5, "velocity": 77}, {"time": 2821, "pitch": 54, "duration": 2, "velocity": 75}, {"time": 2821, "pitch": 58, "duration": 2, "velocity": 74}, {"time": 2821, "pitch": 61, "duration": 2, "velocity": 77}, {"time": 2827, "pitch": 49, "duration": 2, "velocity": 44}, {"time": 2830, "pitch": 54, "duration": 2, "velocity": 83}, {"time": 2830, "pitch": 61, "duration": 2, "velocity": 81}, {"time": 2833, "pitch": 49, "duration": 3, "velocity": 74}, {"time": 2836, "pitch": 54, "duration": 3, "velocity": 83}, {"time": 2836, "pitch": 58, "duration": 3, "velocity": 86}, {"time": 2836, "pitch": 61, "duration": 3, "velocity": 85}, {"time": 2839, "pitch": 49, "duration": 5, "velocity": 85}, {"time": 2842, "pitch": 54, "duration": 2, "velocity": 82}, {"time": 2845, "pitch": 42, "duration": 12, "velocity": 87}, {"time": 2845, "pitch": 54, "duration": 3, "velocity": 79}, {"time": 2845, "pitch": 58, "duration": 3, "velocity": 86}, {"time": 2845, "pitch": 61, "duration": 4, "velocity": 85}, {"time": 2848, "pitch": 49, "duration": 9, "velocity": 84}, {"time": 2851, "pitch": 54, "duration": 5, "velocity": 92}, {"time": 2863, "pitch": 35, "duration": 7, "velocity": 87}, {"time": 2863, "pitch": 54, "duration": 6, "velocity": 87}, {"time": 2863, "pitch": 59, "duration": 8, "velocity": 87}, {"time": 2872, "pitch": 37, "duration": 8, "velocity": 90}, {"time": 2872, "pitch": 56, "duration": 6, "velocity": 86}, {"time": 2872, "pitch": 61, "duration": 6, "velocity": 86}, {"time": 2881, "pitch": 39, "duration": 8, "velocity": 88}, {"time": 2881, "pitch": 58, "duration": 7, "velocity": 85}, {"time": 2881, "pitch": 63, "duration": 7, "velocity": 91}, {"time": 2896, "pitch": 43, "duration": 11, "velocity": 88}, {"time": 2896, "pitch": 67, "duration": 10, "velocity": 85}, {"time": 2896, "pitch": 70, "duration": 10, "velocity": 89}, {"time": 2896, "pitch": 73, "duration": 10, "velocity": 91}, {"time": 2905, "pitch": 44, "duration": 23, "velocity": 85}, {"time": 2905, "pitch": 56, "duration": 3, "velocity": 77}, {"time": 2905, "pitch": 59, "duration": 3, "velocity": 81}, {"time": 2908, "pitch": 51, "duration": 9, "velocity": 78}, {"time": 2911, "pitch": 56, "duration": 2, "velocity": 76}, {"time": 2914, "pitch": 56, "duration": 7, "velocity": 79}, {"time": 2914, "pitch": 63, "duration": 7, "velocity": 89}, {"time": 2920, "pitch": 51, "duration": 8, "velocity": 79}, {"time": 2923, "pitch": 56, "duration": 4, "velocity": 85}, {"time": 2926, "pitch": 59, "duration": 7, "velocity": 90}, {"time": 2929, "pitch": 44, "duration": 20, "velocity": 86}, {"time": 2932, "pitch": 51, "duration": 8, "velocity": 74}, {"time": 2935, "pitch": 56, "duration": 4, "velocity": 77}, {"time": 2938, "pitch": 59, "duration": 4, "velocity": 96}, {"time": 2941, "pitch": 51, "duration": 11, "velocity": 86}, {"time": 2944, "pitch": 56, "duration": 4, "velocity": 88}, {"time": 2947, "pitch": 59, "duration": 4, "velocity": 94}, {"time": 2950, "pitch": 63, "duration": 9, "velocity": 94}, {"time": 2953, "pitch": 40, "duration": 22, "velocity": 86}, {"time": 2956, "pitch": 47, "duration": 20, "velocity": 80}, {"time": 2959, "pitch": 52, "duration": 5, "velocity": 82}, {"time": 2962, "pitch": 56, "duration": 6, "velocity": 86}, {"time": 2968, "pitch": 59, "duration": 5, "velocity": 87}, {"time": 2971, "pitch": 52, "duration": 7, "velocity": 77}, {"time": 2974, "pitch": 56, "duration": 5, "velocity": 85}, {"time": 2977, "pitch": 40, "duration": 22, "velocity": 85}, {"time": 2977, "pitch": 64, "duration": 7, "velocity": 86}, {"time": 2980, "pitch": 47, "duration": 19, "velocity": 85}, {"time": 2983, "pitch": 52, "duration": 4, "velocity": 86}, {"time": 2986, "pitch": 59, "duration": 4, "velocity": 84}, {"time": 2992, "pitch": 56, "duration": 3, "velocity": 73}, {"time": 2995, "pitch": 52, "duration": 4, "velocity": 86}, {"time": 2998, "pitch": 56, "duration": 3, "velocity": 85}, {"time": 3001, "pitch": 42, "duration": 22, "velocity": 87}, {"time": 3004, "pitch": 49, "duration": 20, "velocity": 76}, {"time": 3007, "pitch": 54, "duration": 4, "velocity": 78}, {"time": 3010, "pitch": 61, "duration": 7, "velocity": 85}, {"time": 3016, "pitch": 66, "duration": 4, "velocity": 86}, {"time": 3019, "pitch": 54, "duration": 3, "velocity": 86}, {"time": 3022, "pitch": 61, "duration": 2, "velocity": 85}, {"time": 3025, "pitch": 42, "duration": 22, "velocity": 86}, {"time": 3025, "pitch": 54, "duration": 3, "velocity": 88}, {"time": 3028, "pitch": 49, "duration": 8, "velocity": 85}, {"time": 3031, "pitch": 54, "duration": 1, "velocity": 86}, {"time": 3034, "pitch": 54, "duration": 4, "velocity": 89}, {"time": 3034, "pitch": 58, "duration": 4, "velocity": 86}, {"time": 3037, "pitch": 49, "duration": 4, "velocity": 86}, {"time": 3040, "pitch": 54, "duration": 4, "velocity": 87}, {"time": 3040, "pitch": 58, "duration": 4, "velocity": 89}, {"time": 3040, "pitch": 61, "duration": 4, "velocity": 89}, {"time": 3043, "pitch": 49, "duration": 4, "velocity": 86}, {"time": 3046, "pitch": 54, "duration": 2, "velocity": 85}, {"time": 3049, "pitch": 47, "duration": 15, "velocity": 86}, {"time": 3049, "pitch": 54, "duration": 3, "velocity": 86}, {"time": 3049, "pitch": 59, "duration": 7, "velocity": 85}, {"time": 3055, "pitch": 54, "duration": 1, "velocity": 78}, {"time": 3058, "pitch": 63, "duration": 9, "velocity": 91}, {"time": 3064, "pitch": 54, "duration": 7, "velocity": 82}, {"time": 3067, "pitch": 59, "duration": 4, "velocity": 83}, {"time": 3070, "pitch": 63, "duration": 6, "velocity": 86}, {"time": 3073, "pitch": 35, "duration": 5, "velocity": 85}, {"time": 3076, "pitch": 54, "duration": 4, "velocity": 79}, {"time": 3079, "pitch": 59, "duration": 2, "velocity": 80}, {"time": 3082, "pitch": 54, "duration": 3, "velocity": 86}, {"time": 3082, "pitch": 63, "duration": 4, "velocity": 87}, {"time": 3088, "pitch": 54, "duration": 1, "velocity": 76}, {"time": 3088, "pitch": 59, "duration": 4, "velocity": 89}, {"time": 3091, "pitch": 54, "duration": 4, "velocity": 81}, {"time": 3094, "pitch": 59, "duration": 4, "velocity": 78}, {"time": 3097, "pitch": 44, "duration": 12, "velocity": 82}, {"time": 3100, "pitch": 56, "duration": 4, "velocity": 82}, {"time": 3103, "pitch": 59, "duration": 2, "velocity": 75}, {"time": 3106, "pitch": 63, "duration": 4, "velocity": 91}, {"time": 3112, "pitch": 56, "duration": 1, "velocity": 82}, {"time": 3112, "pitch": 63, "duration": 5, "velocity": 86}, {"time": 3115, "pitch": 56, "duration": 3, "velocity": 82}, {"time": 3118, "pitch": 59, "duration": 7, "velocity": 89}, {"time": 3121, "pitch": 44, "duration": 21, "velocity": 88}, {"time": 3124, "pitch": 51, "duration": 10, "velocity": 71}, {"time": 3127, "pitch": 56, "duration": 2, "velocity": 81}, {"time": 3130, "pitch": 59, "duration": 2, "velocity": 92}, {"time": 3133, "pitch": 56, "duration": 3, "velocity": 86}, {"time": 3133, "pitch": 59, "duration": 4, "velocity": 89}, {"time": 3133, "pitch": 63, "duration": 4, "velocity": 102}, {"time": 3136, "pitch": 51, "duration": 6, "velocity": 86}, {"time": 3139, "pitch": 56, "duration": 6, "velocity": 85}, {"time": 3142, "pitch": 59, "duration": 3, "velocity": 86}, {"time": 3145, "pitch": 40, "duration": 22, "velocity": 85}, {"time": 3148, "pitch": 47, "duration": 19, "velocity": 77}, {"time": 3151, "pitch": 52, "duration": 2, "velocity": 81}, {"time": 3154, "pitch": 52, "duration": 4, "velocity": 84}, {"time": 3154, "pitch": 59, "duration": 4, "velocity": 85}, {"time": 3160, "pitch": 52, "duration": 2, "velocity": 85}, {"time": 3160, "pitch": 56, "duration": 3, "velocity": 86}, {"time": 3163, "pitch": 52, "duration": 4, "velocity": 85}, {"time": 3166, "pitch": 59, "duration": 10, "velocity": 91}, {"time": 3169, "pitch": 40, "duration": 22, "velocity": 86}, {"time": 3172, "pitch": 47, "duration": 14, "velocity": 83}, {"time": 3175, "pitch": 52, "duration": 3, "velocity": 81}, {"time": 3178, "pitch": 52, "duration": 1, "velocity": 74}, {"time": 3178, "pitch": 64, "duration": 3, "velocity": 88}, {"time": 3184, "pitch": 52, "duration": 2, "velocity": 80}, {"time": 3184, "pitch": 56, "duration": 3, "velocity": 87}, {"time": 3184, "pitch": 59, "duration": 5, "velocity": 87}, {"time": 3187, "pitch": 47, "duration": 4, "velocity": 89}, {"time": 3190, "pitch": 52, "duration": 3, "velocity": 89}, {"time": 3190, "pitch": 56, "duration": 1, "velocity": 72}, {"time": 3190, "pitch": 59, "duration": 3, "velocity": 50}, {"time": 3193, "pitch": 42, "duration": 22, "velocity": 88}, {"time": 3196, "pitch": 49, "duration": 19, "velocity": 74}, {"time": 3199, "pitch": 54, "duration": 4, "velocity": 85}, {"time": 3202, "pitch": 61, "duration": 7, "velocity": 82}, {"time": 3208, "pitch": 66, "duration": 5, "velocity": 85}, {"time": 3211, "pitch": 54, "duration": 8, "velocity": 86}, {"time": 3214, "pitch": 61, "duration": 9, "velocity": 83}, {"time": 3217, "pitch": 42, "duration": 22, "velocity": 86}, {"time": 3220, "pitch": 49, "duration": 7, "velocity": 78}, {"time": 3223, "pitch": 54, "duration": 1, "velocity": 83}, {"time": 3226, "pitch": 54, "duration": 4, "velocity": 91}, {"time": 3226, "pitch": 61, "duration": 4, "velocity": 86}, {"time": 3229, "pitch": 49, "duration": 4, "velocity": 85}, {"time": 3232, "pitch": 54, "duration": 4, "velocity": 86}, {"time": 3232, "pitch": 61, "duration": 6, "velocity": 86}, {"time": 3235, "pitch": 49, "duration": 5, "velocity": 79}, {"time": 3238, "pitch": 54, "duration": 2, "velocity": 82}, {"time": 3239, "pitch": 52, "duration": 19, "velocity": 72}, {"time": 3240, "pitch": 56, "duration": 20, "velocity": 77}, {"time": 3241, "pitch": 40, "duration": 34, "velocity": 86}, {"time": 3241, "pitch": 59, "duration": 18, "velocity": 73}, {"time": 3242, "pitch": 64, "duration": 15, "velocity": 76}, {"time": 3260, "pitch": 47, "duration": 14, "velocity": 53}, {"time": 3263, "pitch": 52, "duration": 2, "velocity": 74}, {"time": 3266, "pitch": 52, "duration": 16, "velocity": 75}, {"time": 3267, "pitch": 56, "duration": 15, "velocity": 76}, {"time": 3267, "pitch": 59, "duration": 16, "velocity": 78}, {"time": 3268, "pitch": 63, "duration": 16, "velocity": 78}, {"time": 3290, "pitch": 54, "duration": 16, "velocity": 73}, {"time": 3291, "pitch": 42, "duration": 18, "velocity": 79}, {"time": 3292, "pitch": 58, "duration": 14, "velocity": 68}, {"time": 3293, "pitch": 61, "duration": 13, "velocity": 75}, {"time": 3315, "pitch": 49, "duration": 7, "velocity": 62}, {"time": 3316, "pitch": 52, "duration": 7, "velocity": 74}, {"time": 3316, "pitch": 37, "duration": 4, "velocity": 79}, {"time": 3316, "pitch": 56, "duration": 8, "velocity": 73}, {"time": 3328, "pitch": 49, "duration": 31, "velocity": 45}, {"time": 3331, "pitch": 56, "duration": 27, "velocity": 70}, {"time": 3334, "pitch": 61, "duration": 5, "velocity": 53}, {"time": 3337, "pitch": 64, "duration": 5, "velocity": 74}, {"time": 3341, "pitch": 68, "duration": 5, "velocity": 78}, {"time": 3344, "pitch": 61, "duration": 12, "velocity": 74}, {"time": 3347, "pitch": 64, "duration": 7, "velocity": 75}, {"time": 3350, "pitch": 68, "duration": 4, "velocity": 82}, {"time": 3353, "pitch": 73, "duration": 11, "velocity": 94}, {"time": 3356, "pitch": 68, "duration": 10, "velocity": 74}, {"time": 3360, "pitch": 64, "duration": 6, "velocity": 77}, {"time": 3364, "pitch": 61, "duration": 4, "velocity": 61}, {"time": 3368, "pitch": 42, "duration": 21, "velocity": 85}, {"time": 3372, "pitch": 49, "duration": 15, "velocity": 77}, {"time": 3376, "pitch": 54, "duration": 14, "velocity": 76}, {"time": 3380, "pitch": 61, "duration": 11, "velocity": 80}, {"time": 3386, "pitch": 66, "duration": 7, "velocity": 69}, {"time": 3408, "pitch": 71, "duration": 4, "velocity": 81}, {"time": 3409, "pitch": 66, "duration": 4, "velocity": 72}, {"time": 3410, "pitch": 63, "duration": 3, "velocity": 80}, {"time": 3410, "pitch": 35, "duration": 2, "velocity": 76}, {"time": 3411, "pitch": 59, "duration": 7, "velocity": 71}, {"time": 3415, "pitch": 47, "duration": 26, "velocity": 79}, {"time": 3418, "pitch": 54, "duration": 22, "velocity": 68}, {"time": 3421, "pitch": 61, "duration": 4, "velocity": 65}, {"time": 3424, "pitch": 63, "duration": 4, "velocity": 69}, {"time": 3426, "pitch": 59, "duration": 14, "velocity": 68}], "annotations": [{"time": 25, "annotation": {"number": 64, "value": 127}, "group": "control_change"}, {"time": 71, "annotation": {"number": 64, "value": 0}, "group": "control_change"}, {"time": 74, "annotation": {"number": 64, "value": 127}, "group": "control_change"}, {"time": 118, "annotation": {"number": 64, "value": 0}, "group": "control_change"}, {"time": 120, "annotation": {"number": 64, "value": 127}, "group": "control_change"}, {"time": 167, "annotation": {"number": 64, "value": 0}, "group": "control_change"}, {"time": 175, "annotation": {"number": 64, "value": 127}, "group": "control_change"}, {"time": 212, "annotation": {"number": 64, "value": 0}, "group": "control_change"}, {"time": 262, "annotation": {"number": 64, "value": 0}, "group": "control_change"}, {"time": 270, "annotation": {"number": 64, "value": 127}, "group": "control_change"}, {"time": 271, "annotation": {"number": 64, "value": 0}, "group": "control_change"}, {"time": 271, "annotation": {"number": 64, "value": 127}, "group": "control_change"}, {"time": 313, "annotation": {"number": 64, "value": 0}, "group": "control_change"}, {"time": 320, "annotation": {"number": 64, "value": 127}, "group": "control_change"}, {"time": 361, "annotation": {"number": 64, "value": 0}, "group": "control_change"}, {"time": 365, "annotation": {"number": 64, "value": 127}, "group": "control_change"}, {"time": 407, "annotation": {"number": 64, "value": 0}, "group": "control_change"}, {"time": 410, "annotation": {"number": 64, "value": 127}, "group": "control_change"}, {"time": 456, "annotation": {"number": 64, "value": 0}, "group": "control_change"}, {"time": 463, "annotation": {"number": 64, "value": 127}, "group": "control_change"}, {"time": 504, "annotation": {"number": 64, "value": 0}, "group": "control_change"}, {"time": 510, "annotation": {"number": 64, "value": 127}, "group": "control_change"}, {"time": 552, "annotation": {"number": 64, "value": 0}, "group": "control_change"}, {"time": 559, "annotation": {"number": 64, "value": 127}, "group": "control_change"}, {"time": 599, "annotation": {"number": 64, "value": 0}, "group": "control_change"}, {"time": 604, "annotation": {"number": 64, "value": 127}, "group": "control_change"}, {"time": 647, "annotation": {"number": 64, "value": 0}, "group": "control_change"}, {"time": 650, "annotation": {"number": 64, "value": 127}, "group": "control_change"}, {"time": 650, "annotation": {"number": 64, "value": 0}, "group": "control_change"}, {"time": 671, "annotation": {"number": 64, "value": 0}, "group": "control_change"}, {"time": 674, "annotation": {"number": 64, "value": 127}, "group": "control_change"}, {"time": 695, "annotation": {"number": 64, "value": 0}, "group": "control_change"}, {"time": 698, "annotation": {"number": 64, "value": 127}, "group": "control_change"}, {"time": 719, "annotation": {"number": 64, "value": 0}, "group": "control_change"}, {"time": 722, "annotation": {"number": 64, "value": 127}, "group": "control_change"}, {"time": 743, "annotation": {"number": 64, "value": 0}, "group": "control_change"}, {"time": 745, "annotation": {"number": 64, "value": 127}, "group": "control_change"}, {"time": 768, "annotation": {"number": 64, "value": 0}, "group": "control_change"}, {"time": 770, "annotation": {"number": 64, "value": 127}, "group": "control_change"}, {"time": 790, "annotation": {"number": 64, "value": 0}, "group": "control_change"}, {"time": 793, "annotation": {"number": 64, "value": 127}, "group": "control_change"}, {"time": 816, "annotation": {"number": 64, "value": 0}, "group": "control_change"}, {"time": 818, "annotation": {"number": 64, "value": 127}, "group": "control_change"}, {"time": 839, "annotation": {"number": 64, "value": 0}, "group": "control_change"}, {"time": 842, "annotation": {"number": 64, "value": 127}, "group": "control_change"}, {"time": 842, "annotation": {"number": 64, "value": 0}, "group": "control_change"}, {"time": 863, "annotation": {"number": 64, "value": 0}, "group": "control_change"}, {"time": 866, "annotation": {"number": 64, "value": 127}, "group": "control_change"}, {"time": 887, "annotation": {"number": 64, "value": 0}, "group": "control_change"}, {"time": 890, "annotation": {"number": 64, "value": 127}, "group": "control_change"}, {"time": 911, "annotation": {"number": 64, "value": 0}, "group": "control_change"}, {"time": 914, "annotation": {"number": 64, "value": 127}, "group": "control_change"}, {"time": 935, "annotation": {"number": 64, "value": 0}, "group": "control_change"}, {"time": 937, "annotation": {"number": 64, "value": 127}, "group": "control_change"}, {"time": 960, "annotation": {"number": 64, "value": 0}, "group": "control_change"}, {"time": 962, "annotation": {"number": 64, "value": 127}, "group": "control_change"}, {"time": 982, "annotation": {"number": 64, "value": 0}, "group": "control_change"}, {"time": 985, "annotation": {"number": 64, "value": 127}, "group": "control_change"}, {"time": 1008, "annotation": {"number": 64, "value": 0}, "group": "control_change"}, {"time": 1010, "annotation": {"number": 64, "value": 127}, "group": "control_change"}, {"time": 1031, "annotation": {"number": 64, "value": 0}, "group": "control_change"}, {"time": 1055, "annotation": {"number": 64, "value": 0}, "group": "control_change"}, {"time": 1057, "annotation": {"number": 64, "value": 127}, "group": "control_change"}, {"time": 1078, "annotation": {"number": 64, "value": 0}, "group": "control_change"}, {"time": 1080, "annotation": {"number": 64, "value": 127}, "group": "control_change"}, {"time": 1103, "annotation": {"number": 64, "value": 0}, "group": "control_change"}, {"time": 1105, "annotation": {"number": 64, "value": 127}, "group": "control_change"}, {"time": 1127, "annotation": {"number": 64, "value": 0}, "group": "control_change"}, {"time": 1129, "annotation": {"number": 64, "value": 127}, "group": "control_change"}, {"time": 1151, "annotation": {"number": 64, "value": 0}, "group": "control_change"}, {"time": 1153, "annotation": {"number": 64, "value": 127}, "group": "control_change"}, {"time": 1174, "annotation": {"number": 64, "value": 0}, "group": "control_change"}, {"time": 1177, "annotation": {"number": 64, "value": 127}, "group": "control_change"}, {"time": 1199, "annotation": {"number": 64, "value": 0}, "group": "control_change"}, {"time": 1200, "annotation": {"number": 64, "value": 127}, "group": "control_change"}, {"time": 1223, "annotation": {"number": 64, "value": 0}, "group": "control_change"}, {"time": 1225, "annotation": {"number": 64, "value": 127}, "group": "control_change"}, {"time": 1246, "annotation": {"number": 64, "value": 0}, "group": "control_change"}, {"time": 1248, "annotation": {"number": 64, "value": 127}, "group": "control_change"}, {"time": 1271, "annotation": {"number": 64, "value": 0}, "group": "control_change"}, {"time": 1273, "annotation": {"number": 64, "value": 127}, "group": "control_change"}, {"time": 1296, "annotation": {"number": 64, "value": 0}, "group": "control_change"}, {"time": 1298, "annotation": {"number": 64, "value": 127}, "group": "control_change"}, {"time": 1320, "annotation": {"number": 64, "value": 0}, "group": "control_change"}, {"time": 1322, "annotation": {"number": 64, "value": 127}, "group": "control_change"}, {"time": 1342, "annotation": {"number": 64, "value": 0}, "group": "control_change"}, {"time": 1348, "annotation": {"number": 64, "value": 127}, "group": "control_change"}, {"time": 1348, "annotation": {"number": 64, "value": 0}, "group": "control_change"}, {"time": 1367, "annotation": {"number": 64, "value": 0}, "group": "control_change"}, {"time": 1372, "annotation": {"number": 64, "value": 127}, "group": "control_change"}, {"time": 1391, "annotation": {"number": 64, "value": 0}, "group": "control_change"}, {"time": 1394, "annotation": {"number": 64, "value": 127}, "group": "control_change"}, {"time": 1417, "annotation": {"number": 64, "value": 0}, "group": "control_change"}, {"time": 1421, "annotation": {"number": 64, "value": 127}, "group": "control_change"}, {"time": 1462, "annotation": {"number": 64, "value": 0}, "group": "control_change"}, {"time": 1465, "annotation": {"number": 64, "value": 127}, "group": "control_change"}, {"time": 1488, "annotation": {"number": 64, "value": 0}, "group": "control_change"}, {"time": 1489, "annotation": {"number": 64, "value": 127}, "group": "control_change"}, {"time": 1511, "annotation": {"number": 64, "value": 0}, "group": "control_change"}, {"time": 1514, "annotation": {"number": 64, "value": 127}, "group": "control_change"}, {"time": 1514, "annotation": {"number": 64, "value": 0}, "group": "control_change"}, {"time": 1535, "annotation": {"number": 64, "value": 0}, "group": "control_change"}, {"time": 1538, "annotation": {"number": 64, "value": 127}, "group": "control_change"}, {"time": 1559, "annotation": {"number": 64, "value": 0}, "group": "control_change"}, {"time": 1562, "annotation": {"number": 64, "value": 127}, "group": "control_change"}, {"time": 1583, "annotation": {"number": 64, "value": 0}, "group": "control_change"}, {"time": 1586, "annotation": {"number": 64, "value": 127}, "group": "control_change"}, {"time": 1607, "annotation": {"number": 64, "value": 0}, "group": "control_change"}, {"time": 1609, "annotation": {"number": 64, "value": 127}, "group": "control_change"}, {"time": 1632, "annotation": {"number": 64, "value": 0}, "group": "control_change"}, {"time": 1634, "annotation": {"number": 64, "value": 127}, "group": "control_change"}, {"time": 1654, "annotation": {"number": 64, "value": 0}, "group": "control_change"}, {"time": 1657, "annotation": {"number": 64, "value": 127}, "group": "control_change"}, {"time": 1680, "annotation": {"number": 64, "value": 0}, "group": "control_change"}, {"time": 1682, "annotation": {"number": 64, "value": 127}, "group": "control_change"}, {"time": 1703, "annotation": {"number": 64, "value": 0}, "group": "control_change"}, {"time": 1706, "annotation": {"number": 64, "value": 127}, "group": "control_change"}, {"time": 1706, "annotation": {"number": 64, "value": 0}, "group": "control_change"}, {"time": 1727, "annotation": {"number": 64, "value": 0}, "group": "control_change"}, {"time": 1730, "annotation": {"number": 64, "value": 127}, "group": "control_change"}, {"time": 1751, "annotation": {"number": 64, "value": 0}, "group": "control_change"}, {"time": 1754, "annotation": {"number": 64, "value": 127}, "group": "control_change"}, {"time": 1775, "annotation": {"number": 64, "value": 0}, "group": "control_change"}, {"time": 1778, "annotation": {"number": 64, "value": 127}, "group": "control_change"}, {"time": 1799, "annotation": {"number": 64, "value": 0}, "group": "control_change"}, {"time": 1801, "annotation": {"number": 64, "value": 127}, "group": "control_change"}, {"time": 1824, "annotation": {"number": 64, "value": 0}, "group": "control_change"}, {"time": 1826, "annotation": {"number": 64, "value": 127}, "group": "control_change"}, {"time": 1846, "annotation": {"number": 64, "value": 0}, "group": "control_change"}, {"time": 1849, "annotation": {"number": 64, "value": 127}, "group": "control_change"}, {"time": 1872, "annotation": {"number": 64, "value": 0}, "group": "control_change"}, {"time": 1874, "annotation": {"number": 64, "value": 127}, "group": "control_change"}, {"time": 1895, "annotation": {"number": 64, "value": 0}, "group": "control_change"}, {"time": 1919, "annotation": {"number": 64, "value": 0}, "group": "control_change"}, {"time": 1921, "annotation": {"number": 64, "value": 127}, "group": "control_change"}, {"time": 1942, "annotation": {"number": 64, "value": 0}, "group": "control_change"}, {"time": 1944, "annotation": {"number": 64, "value": 127}, "group": "control_change"}, {"time": 1967, "annotation": {"number": 64, "value": 0}, "group": "control_change"}, {"time": 1969, "annotation": {"number": 64, "value": 127}, "group": "control_change"}, {"time": 1991, "annotation": {"number": 64, "value": 0}, "group": "control_change"}, {"time": 1993, "annotation": {"number": 64, "value": 127}, "group": "control_change"}, {"time": 2015, "annotation": {"number": 64, "value": 0}, "group": "control_change"}, {"time": 2017, "annotation": {"number": 64, "value": 127}, "group": "control_change"}, {"time": 2038, "annotation": {"number": 64, "value": 0}, "group": "control_change"}, {"time": 2041, "annotation": {"number": 64, "value": 127}, "group": "control_change"}, {"time": 2063, "annotation": {"number": 64, "value": 0}, "group": "control_change"}, {"time": 2064, "annotation": {"number": 64, "value": 127}, "group": "control_change"}, {"time": 2087, "annotation": {"number": 64, "value": 0}, "group": "control_change"}, {"time": 2089, "annotation": {"number": 64, "value": 127}, "group": "control_change"}, {"time": 2110, "annotation": {"number": 64, "value": 0}, "group": "control_change"}, {"time": 2112, "annotation": {"number": 64, "value": 127}, "group": "control_change"}, {"time": 2135, "annotation": {"number": 64, "value": 0}, "group": "control_change"}, {"time": 2137, "annotation": {"number": 64, "value": 127}, "group": "control_change"}, {"time": 2160, "annotation": {"number": 64, "value": 0}, "group": "control_change"}, {"time": 2162, "annotation": {"number": 64, "value": 127}, "group": "control_change"}, {"time": 2184, "annotation": {"number": 64, "value": 0}, "group": "control_change"}, {"time": 2186, "annotation": {"number": 64, "value": 127}, "group": "control_change"}, {"time": 2206, "annotation": {"number": 64, "value": 0}, "group": "control_change"}, {"time": 2212, "annotation": {"number": 64, "value": 127}, "group": "control_change"}, {"time": 2212, "annotation": {"number": 64, "value": 0}, "group": "control_change"}, {"time": 2231, "annotation": {"number": 64, "value": 0}, "group": "control_change"}, {"time": 2236, "annotation": {"number": 64, "value": 127}, "group": "control_change"}, {"time": 2255, "annotation": {"number": 64, "value": 0}, "group": "control_change"}, {"time": 2258, "annotation": {"number": 64, "value": 127}, "group": "control_change"}, {"time": 2281, "annotation": {"number": 64, "value": 0}, "group": "control_change"}, {"time": 2281, "annotation": {"number": 64, "value": 127}, "group": "control_change"}, {"time": 2303, "annotation": {"number": 64, "value": 0}, "group": "control_change"}, {"time": 2305, "annotation": {"number": 64, "value": 127}, "group": "control_change"}, {"time": 2326, "annotation": {"number": 64, "value": 0}, "group": "control_change"}, {"time": 2328, "annotation": {"number": 64, "value": 127}, "group": "control_change"}, {"time": 2351, "annotation": {"number": 64, "value": 0}, "group": "control_change"}, {"time": 2352, "annotation": {"number": 64, "value": 127}, "group": "control_change"}, {"time": 2375, "annotation": {"number": 64, "value": 0}, "group": "control_change"}, {"time": 2377, "annotation": {"number": 64, "value": 127}, "group": "control_change"}, {"time": 2398, "annotation": {"number": 64, "value": 0}, "group": "control_change"}, {"time": 2400, "annotation": {"number": 64, "value": 127}, "group": "control_change"}, {"time": 2423, "annotation": {"number": 64, "value": 0}, "group": "control_change"}, {"time": 2425, "annotation": {"number": 64, "value": 127}, "group": "control_change"}, {"time": 2447, "annotation": {"number": 64, "value": 0}, "group": "control_change"}, {"time": 2450, "annotation": {"number": 64, "value": 127}, "group": "control_change"}, {"time": 2470, "annotation": {"number": 64, "value": 0}, "group": "control_change"}, {"time": 2519, "annotation": {"number": 64, "value": 0}, "group": "control_change"}, {"time": 2522, "annotation": {"number": 64, "value": 127}, "group": "control_change"}, {"time": 2567, "annotation": {"number": 64, "value": 0}, "group": "control_change"}, {"time": 2570, "annotation": {"number": 64, "value": 127}, "group": "control_change"}, {"time": 2614, "annotation": {"number": 64, "value": 0}, "group": "control_change"}, {"time": 2617, "annotation": {"number": 64, "value": 127}, "group": "control_change"}, {"time": 2663, "annotation": {"number": 64, "value": 0}, "group": "control_change"}, {"time": 2665, "annotation": {"number": 64, "value": 127}, "group": "control_change"}, {"time": 2711, "annotation": {"number": 64, "value": 0}, "group": "control_change"}, {"time": 2714, "annotation": {"number": 64, "value": 127}, "group": "control_change"}, {"time": 2714, "annotation": {"number": 64, "value": 0}, "group": "control_change"}, {"time": 2760, "annotation": {"number": 64, "value": 0}, "group": "control_change"}, {"time": 2762, "annotation": {"number": 64, "value": 127}, "group": "control_change"}, {"time": 2807, "annotation": {"number": 64, "value": 0}, "group": "control_change"}, {"time": 2810, "annotation": {"number": 64, "value": 127}, "group": "control_change"}, {"time": 2810, "annotation": {"number": 64, "value": 0}, "group": "control_change"}, {"time": 2854, "annotation": {"number": 64, "value": 0}, "group": "control_change"}, {"time": 2863, "annotation": {"number": 64, "value": 127}, "group": "control_change"}, {"time": 2870, "annotation": {"number": 64, "value": 0}, "group": "control_change"}, {"time": 2872, "annotation": {"number": 64, "value": 127}, "group": "control_change"}, {"time": 2879, "annotation": {"number": 64, "value": 0}, "group": "control_change"}, {"time": 2882, "annotation": {"number": 64, "value": 127}, "group": "control_change"}, {"time": 2895, "annotation": {"number": 64, "value": 127}, "group": "control_change"}, {"time": 2904, "annotation": {"number": 64, "value": 0}, "group": "control_change"}, {"time": 2927, "annotation": {"number": 64, "value": 0}, "group": "control_change"}, {"time": 2929, "annotation": {"number": 64, "value": 127}, "group": "control_change"}, {"time": 2951, "annotation": {"number": 64, "value": 0}, "group": "control_change"}, {"time": 2953, "annotation": {"number": 64, "value": 127}, "group": "control_change"}, {"time": 2975, "annotation": {"number": 64, "value": 0}, "group": "control_change"}, {"time": 2977, "annotation": {"number": 64, "value": 127}, "group": "control_change"}, {"time": 2998, "annotation": {"number": 64, "value": 0}, "group": "control_change"}, {"time": 3001, "annotation": {"number": 64, "value": 127}, "group": "control_change"}, {"time": 3023, "annotation": {"number": 64, "value": 0}, "group": "control_change"}, {"time": 3024, "annotation": {"number": 64, "value": 127}, "group": "control_change"}, {"time": 3047, "annotation": {"number": 64, "value": 0}, "group": "control_change"}, {"time": 3049, "annotation": {"number": 64, "value": 127}, "group": "control_change"}, {"time": 3070, "annotation": {"number": 64, "value": 0}, "group": "control_change"}, {"time": 3072, "annotation": {"number": 64, "value": 127}, "group": "control_change"}, {"time": 3095, "annotation": {"number": 64, "value": 0}, "group": "control_change"}, {"time": 3097, "annotation": {"number": 64, "value": 127}, "group": "control_change"}, {"time": 3120, "annotation": {"number": 64, "value": 0}, "group": "control_change"}, {"time": 3122, "annotation": {"number": 64, "value": 127}, "group": "control_change"}, {"time": 3144, "annotation": {"number": 64, "value": 0}, "group": "control_change"}, {"time": 3146, "annotation": {"number": 64, "value": 127}, "group": "control_change"}, {"time": 3166, "annotation": {"number": 64, "value": 0}, "group": "control_change"}, {"time": 3172, "annotation": {"number": 64, "value": 127}, "group": "control_change"}, {"time": 3172, "annotation": {"number": 64, "value": 0}, "group": "control_change"}, {"time": 3191, "annotation": {"number": 64, "value": 0}, "group": "control_change"}, {"time": 3196, "annotation": {"number": 64, "value": 127}, "group": "control_change"}, {"time": 3215, "annotation": {"number": 64, "value": 0}, "group": "control_change"}, {"time": 3218, "annotation": {"number": 64, "value": 127}, "group": "control_change"}, {"time": 3241, "annotation": {"number": 64, "value": 127}, "group": "control_change"}, {"time": 3241, "annotation": {"number": 64, "value": 0}, "group": "control_change"}, {"time": 3290, "annotation": {"number": 64, "value": 0}, "group": "control_change"}, {"time": 3293, "annotation": {"number": 64, "value": 127}, "group": "control_change"}, {"time": 3313, "annotation": {"number": 64, "value": 0}, "group": "control_change"}, {"time": 3316, "annotation": {"number": 64, "value": 127}, "group": "control_change"}, {"time": 3369, "annotation": {"number": 64, "value": 0}, "group": "control_change"}, {"time": 3372, "annotation": {"number": 64, "value": 127}, "group": "control_change"}, {"time": 3408, "annotation": {"number": 64, "value": 0}, "group": "control_change"}, {"time": 3410, "annotation": {"number": 64, "value": 127}, "group": "control_change"}, {"time": 3484, "annotation": {"number": 64, "value": 0}, "group": "control_change"}]}]}