{"metadata": {"schema_version": "0.2", "title": "None", "source_filename": "427.mid", "source_format": "midi"}, "resolution": 12, "tempos": [{"time": 0, "qpm": 71.00003550001774}], "time_signatures": [{"time": 0, "numerator": 1, "denominator": 4}], "tracks": [{"program": 4, "is_drum": false, "name": "MELODY", "notes": [{"time": 248, "pitch": 76, "duration": 2, "velocity": 90}, {"time": 251, "pitch": 76, "duration": 2, "velocity": 96}, {"time": 254, "pitch": 76, "duration": 2, "velocity": 97}, {"time": 257, "pitch": 75, "duration": 2, "velocity": 97}, {"time": 260, "pitch": 73, "duration": 2, "velocity": 96}, {"time": 263, "pitch": 71, "duration": 7, "velocity": 96}, {"time": 272, "pitch": 73, "duration": 18, "velocity": 97}, {"time": 299, "pitch": 73, "duration": 2, "velocity": 92}, {"time": 302, "pitch": 76, "duration": 2, "velocity": 95}, {"time": 305, "pitch": 78, "duration": 5, "velocity": 92}, {"time": 311, "pitch": 80, "duration": 23, "velocity": 93}, {"time": 347, "pitch": 73, "duration": 2, "velocity": 97}, {"time": 350, "pitch": 76, "duration": 4, "velocity": 95}, {"time": 353, "pitch": 78, "duration": 4, "velocity": 95}, {"time": 359, "pitch": 80, "duration": 12, "velocity": 96}, {"time": 374, "pitch": 80, "duration": 3, "velocity": 94}, {"time": 377, "pitch": 78, "duration": 2, "velocity": 86}, {"time": 380, "pitch": 78, "duration": 2, "velocity": 91}, {"time": 383, "pitch": 78, "duration": 12, "velocity": 96}, {"time": 440, "pitch": 76, "duration": 2, "velocity": 91}, {"time": 443, "pitch": 76, "duration": 2, "velocity": 92}, {"time": 446, "pitch": 76, "duration": 6, "velocity": 94}, {"time": 452, "pitch": 73, "duration": 2, "velocity": 97}, {"time": 455, "pitch": 71, "duration": 7, "velocity": 91}, {"time": 464, "pitch": 73, "duration": 21, "velocity": 104}, {"time": 494, "pitch": 76, "duration": 6, "velocity": 88}, {"time": 500, "pitch": 78, "duration": 5, "velocity": 92}, {"time": 503, "pitch": 80, "duration": 21, "velocity": 95}, {"time": 527, "pitch": 78, "duration": 12, "velocity": 96}, {"time": 551, "pitch": 73, "duration": 2, "velocity": 95}, {"time": 554, "pitch": 80, "duration": 4, "velocity": 95}, {"time": 560, "pitch": 80, "duration": 4, "velocity": 94}, {"time": 566, "pitch": 80, "duration": 5, "velocity": 97}, {"time": 572, "pitch": 81, "duration": 5, "velocity": 97}, {"time": 578, "pitch": 80, "duration": 2, "velocity": 97}, {"time": 581, "pitch": 78, "duration": 17, "velocity": 95}, {"time": 614, "pitch": 85, "duration": 4, "velocity": 94}, {"time": 620, "pitch": 85, "duration": 4, "velocity": 94}, {"time": 626, "pitch": 83, "duration": 5, "velocity": 96}, {"time": 632, "pitch": 80, "duration": 4, "velocity": 96}, {"time": 638, "pitch": 76, "duration": 5, "velocity": 95}, {"time": 644, "pitch": 73, "duration": 4, "velocity": 101}, {"time": 650, "pitch": 80, "duration": 3, "velocity": 96}, {"time": 653, "pitch": 78, "duration": 33, "velocity": 91}, {"time": 710, "pitch": 85, "duration": 4, "velocity": 95}, {"time": 716, "pitch": 85, "duration": 4, "velocity": 94}, {"time": 722, "pitch": 83, "duration": 5, "velocity": 101}, {"time": 728, "pitch": 80, "duration": 4, "velocity": 97}, {"time": 734, "pitch": 76, "duration": 4, "velocity": 96}, {"time": 740, "pitch": 73, "duration": 4, "velocity": 104}, {"time": 746, "pitch": 80, "duration": 2, "velocity": 96}, {"time": 749, "pitch": 78, "duration": 28, "velocity": 92}, {"time": 782, "pitch": 71, "duration": 6, "velocity": 101}, {"time": 788, "pitch": 73, "duration": 5, "velocity": 97}, {"time": 794, "pitch": 76, "duration": 2, "velocity": 97}, {"time": 797, "pitch": 76, "duration": 2, "velocity": 94}, {"time": 800, "pitch": 76, "duration": 16, "velocity": 93}, {"time": 818, "pitch": 76, "duration": 2, "velocity": 94}, {"time": 821, "pitch": 76, "duration": 2, "velocity": 92}, {"time": 824, "pitch": 76, "duration": 5, "velocity": 92}, {"time": 830, "pitch": 80, "duration": 5, "velocity": 97}, {"time": 836, "pitch": 83, "duration": 3, "velocity": 97}, {"time": 839, "pitch": 85, "duration": 21, "velocity": 95}, {"time": 860, "pitch": 83, "duration": 3, "velocity": 90}, {"time": 863, "pitch": 80, "duration": 11, "velocity": 94}, {"time": 878, "pitch": 80, "duration": 4, "velocity": 92}, {"time": 884, "pitch": 80, "duration": 5, "velocity": 94}, {"time": 890, "pitch": 78, "duration": 6, "velocity": 89}, {"time": 896, "pitch": 76, "duration": 3, "velocity": 92}, {"time": 899, "pitch": 76, "duration": 9, "velocity": 91}, {"time": 914, "pitch": 80, "duration": 5, "velocity": 94}, {"time": 920, "pitch": 80, "duration": 5, "velocity": 94}, {"time": 926, "pitch": 80, "duration": 5, "velocity": 96}, {"time": 932, "pitch": 81, "duration": 5, "velocity": 91}, {"time": 938, "pitch": 80, "duration": 3, "velocity": 97}, {"time": 941, "pitch": 78, "duration": 19, "velocity": 88}, {"time": 974, "pitch": 71, "duration": 5, "velocity": 90}, {"time": 980, "pitch": 73, "duration": 5, "velocity": 106}, {"time": 986, "pitch": 76, "duration": 2, "velocity": 94}, {"time": 989, "pitch": 76, "duration": 2, "velocity": 91}, {"time": 992, "pitch": 76, "duration": 15, "velocity": 94}, {"time": 1010, "pitch": 80, "duration": 2, "velocity": 94}, {"time": 1013, "pitch": 80, "duration": 2, "velocity": 91}, {"time": 1016, "pitch": 80, "duration": 4, "velocity": 92}, {"time": 1022, "pitch": 78, "duration": 5, "velocity": 97}, {"time": 1028, "pitch": 80, "duration": 4, "velocity": 94}, {"time": 1034, "pitch": 80, "duration": 3, "velocity": 93}, {"time": 1037, "pitch": 78, "duration": 3, "velocity": 92}, {"time": 1040, "pitch": 76, "duration": 25, "velocity": 94}, {"time": 1070, "pitch": 80, "duration": 4, "velocity": 90}, {"time": 1076, "pitch": 80, "duration": 5, "velocity": 93}, {"time": 1082, "pitch": 78, "duration": 4, "velocity": 99}, {"time": 1085, "pitch": 76, "duration": 3, "velocity": 91}, {"time": 1091, "pitch": 76, "duration": 9, "velocity": 92}, {"time": 1103, "pitch": 78, "duration": 2, "velocity": 74}, {"time": 1106, "pitch": 80, "duration": 7, "velocity": 94}, {"time": 1115, "pitch": 80, "duration": 9, "velocity": 92}, {"time": 1124, "pitch": 76, "duration": 3, "velocity": 92}, {"time": 1127, "pitch": 78, "duration": 39, "velocity": 96}, {"time": 1208, "pitch": 76, "duration": 2, "velocity": 90}, {"time": 1211, "pitch": 76, "duration": 2, "velocity": 96}, {"time": 1214, "pitch": 76, "duration": 2, "velocity": 97}, {"time": 1217, "pitch": 75, "duration": 2, "velocity": 97}, {"time": 1220, "pitch": 73, "duration": 2, "velocity": 96}, {"time": 1223, "pitch": 71, "duration": 7, "velocity": 96}, {"time": 1232, "pitch": 73, "duration": 18, "velocity": 97}, {"time": 1259, "pitch": 73, "duration": 2, "velocity": 92}, {"time": 1262, "pitch": 76, "duration": 2, "velocity": 95}, {"time": 1265, "pitch": 78, "duration": 5, "velocity": 92}, {"time": 1271, "pitch": 80, "duration": 23, "velocity": 93}, {"time": 1307, "pitch": 73, "duration": 2, "velocity": 97}, {"time": 1310, "pitch": 76, "duration": 4, "velocity": 95}, {"time": 1313, "pitch": 78, "duration": 4, "velocity": 95}, {"time": 1319, "pitch": 80, "duration": 9, "velocity": 96}, {"time": 1328, "pitch": 78, "duration": 4, "velocity": 87}, {"time": 1334, "pitch": 78, "duration": 4, "velocity": 91}, {"time": 1340, "pitch": 76, "duration": 2, "velocity": 90}, {"time": 1343, "pitch": 75, "duration": 5, "velocity": 94}, {"time": 1349, "pitch": 73, "duration": 2, "velocity": 85}, {"time": 1352, "pitch": 71, "duration": 13, "velocity": 90}, {"time": 1400, "pitch": 76, "duration": 2, "velocity": 91}, {"time": 1403, "pitch": 76, "duration": 2, "velocity": 92}, {"time": 1406, "pitch": 76, "duration": 6, "velocity": 94}, {"time": 1412, "pitch": 73, "duration": 2, "velocity": 97}, {"time": 1415, "pitch": 71, "duration": 7, "velocity": 91}, {"time": 1424, "pitch": 73, "duration": 21, "velocity": 104}, {"time": 1454, "pitch": 76, "duration": 6, "velocity": 88}, {"time": 1460, "pitch": 78, "duration": 5, "velocity": 92}, {"time": 1463, "pitch": 80, "duration": 21, "velocity": 95}, {"time": 1487, "pitch": 78, "duration": 12, "velocity": 96}, {"time": 1511, "pitch": 73, "duration": 2, "velocity": 95}, {"time": 1514, "pitch": 80, "duration": 4, "velocity": 95}, {"time": 1520, "pitch": 80, "duration": 4, "velocity": 94}, {"time": 1526, "pitch": 80, "duration": 5, "velocity": 97}, {"time": 1532, "pitch": 81, "duration": 5, "velocity": 97}, {"time": 1538, "pitch": 80, "duration": 2, "velocity": 97}, {"time": 1541, "pitch": 78, "duration": 17, "velocity": 95}, {"time": 1574, "pitch": 85, "duration": 4, "velocity": 94}, {"time": 1580, "pitch": 85, "duration": 4, "velocity": 94}, {"time": 1586, "pitch": 83, "duration": 5, "velocity": 96}, {"time": 1592, "pitch": 80, "duration": 4, "velocity": 96}, {"time": 1598, "pitch": 76, "duration": 5, "velocity": 95}, {"time": 1604, "pitch": 73, "duration": 4, "velocity": 101}, {"time": 1610, "pitch": 80, "duration": 3, "velocity": 96}, {"time": 1613, "pitch": 78, "duration": 33, "velocity": 91}, {"time": 1670, "pitch": 85, "duration": 4, "velocity": 95}, {"time": 1676, "pitch": 85, "duration": 4, "velocity": 94}, {"time": 1682, "pitch": 83, "duration": 5, "velocity": 101}, {"time": 1688, "pitch": 80, "duration": 4, "velocity": 97}, {"time": 1694, "pitch": 76, "duration": 4, "velocity": 96}, {"time": 1700, "pitch": 73, "duration": 4, "velocity": 104}, {"time": 1706, "pitch": 80, "duration": 2, "velocity": 96}, {"time": 1709, "pitch": 78, "duration": 28, "velocity": 92}, {"time": 1742, "pitch": 71, "duration": 6, "velocity": 101}, {"time": 1748, "pitch": 73, "duration": 5, "velocity": 97}, {"time": 1754, "pitch": 76, "duration": 2, "velocity": 97}, {"time": 1757, "pitch": 76, "duration": 2, "velocity": 94}, {"time": 1760, "pitch": 76, "duration": 16, "velocity": 93}, {"time": 1778, "pitch": 76, "duration": 2, "velocity": 94}, {"time": 1781, "pitch": 76, "duration": 2, "velocity": 92}, {"time": 1784, "pitch": 76, "duration": 5, "velocity": 92}, {"time": 1790, "pitch": 80, "duration": 5, "velocity": 97}, {"time": 1796, "pitch": 83, "duration": 3, "velocity": 97}, {"time": 1799, "pitch": 85, "duration": 21, "velocity": 95}, {"time": 1820, "pitch": 83, "duration": 3, "velocity": 90}, {"time": 1823, "pitch": 80, "duration": 11, "velocity": 94}, {"time": 1838, "pitch": 80, "duration": 4, "velocity": 92}, {"time": 1844, "pitch": 80, "duration": 5, "velocity": 94}, {"time": 1850, "pitch": 78, "duration": 6, "velocity": 89}, {"time": 1856, "pitch": 76, "duration": 3, "velocity": 92}, {"time": 1859, "pitch": 76, "duration": 9, "velocity": 91}, {"time": 1874, "pitch": 80, "duration": 5, "velocity": 94}, {"time": 1880, "pitch": 80, "duration": 5, "velocity": 94}, {"time": 1886, "pitch": 80, "duration": 5, "velocity": 96}, {"time": 1892, "pitch": 81, "duration": 5, "velocity": 91}, {"time": 1898, "pitch": 80, "duration": 3, "velocity": 97}, {"time": 1901, "pitch": 78, "duration": 19, "velocity": 88}, {"time": 1934, "pitch": 71, "duration": 5, "velocity": 90}, {"time": 1940, "pitch": 73, "duration": 5, "velocity": 106}, {"time": 1946, "pitch": 76, "duration": 2, "velocity": 94}, {"time": 1949, "pitch": 76, "duration": 2, "velocity": 91}, {"time": 1952, "pitch": 76, "duration": 15, "velocity": 94}, {"time": 1970, "pitch": 80, "duration": 2, "velocity": 94}, {"time": 1973, "pitch": 80, "duration": 2, "velocity": 91}, {"time": 1976, "pitch": 80, "duration": 4, "velocity": 92}, {"time": 1982, "pitch": 78, "duration": 5, "velocity": 97}, {"time": 1988, "pitch": 80, "duration": 4, "velocity": 94}, {"time": 1994, "pitch": 80, "duration": 3, "velocity": 93}, {"time": 1997, "pitch": 78, "duration": 3, "velocity": 92}, {"time": 2000, "pitch": 76, "duration": 25, "velocity": 94}, {"time": 2030, "pitch": 80, "duration": 4, "velocity": 90}, {"time": 2036, "pitch": 80, "duration": 5, "velocity": 93}, {"time": 2042, "pitch": 78, "duration": 4, "velocity": 99}, {"time": 2045, "pitch": 76, "duration": 3, "velocity": 91}, {"time": 2051, "pitch": 76, "duration": 9, "velocity": 92}, {"time": 2063, "pitch": 78, "duration": 2, "velocity": 74}, {"time": 2066, "pitch": 80, "duration": 7, "velocity": 94}, {"time": 2075, "pitch": 80, "duration": 9, "velocity": 92}, {"time": 2084, "pitch": 76, "duration": 3, "velocity": 92}, {"time": 2087, "pitch": 78, "duration": 39, "velocity": 96}, {"time": 2336, "pitch": 76, "duration": 5, "velocity": 101}, {"time": 2342, "pitch": 76, "duration": 5, "velocity": 94}, {"time": 2348, "pitch": 76, "duration": 5, "velocity": 94}, {"time": 2354, "pitch": 76, "duration": 4, "velocity": 96}, {"time": 2360, "pitch": 71, "duration": 4, "velocity": 96}, {"time": 2366, "pitch": 71, "duration": 5, "velocity": 96}, {"time": 2372, "pitch": 71, "duration": 3, "velocity": 99}, {"time": 2375, "pitch": 73, "duration": 8, "velocity": 97}, {"time": 2384, "pitch": 76, "duration": 20, "velocity": 95}, {"time": 2414, "pitch": 76, "duration": 5, "velocity": 97}, {"time": 2420, "pitch": 78, "duration": 2, "velocity": 92}, {"time": 2423, "pitch": 80, "duration": 20, "velocity": 94}, {"time": 2444, "pitch": 78, "duration": 3, "velocity": 92}, {"time": 2450, "pitch": 78, "duration": 14, "velocity": 94}, {"time": 2471, "pitch": 73, "duration": 3, "velocity": 94}, {"time": 2474, "pitch": 80, "duration": 10, "velocity": 94}, {"time": 2486, "pitch": 80, "duration": 6, "velocity": 92}, {"time": 2492, "pitch": 81, "duration": 2, "velocity": 92}, {"time": 2495, "pitch": 80, "duration": 9, "velocity": 92}, {"time": 2504, "pitch": 78, "duration": 17, "velocity": 95}, {"time": 2528, "pitch": 76, "duration": 3, "velocity": 92}, {"time": 2534, "pitch": 76, "duration": 4, "velocity": 91}, {"time": 2540, "pitch": 76, "duration": 4, "velocity": 91}, {"time": 2546, "pitch": 76, "duration": 4, "velocity": 95}, {"time": 2552, "pitch": 71, "duration": 3, "velocity": 91}, {"time": 2558, "pitch": 71, "duration": 4, "velocity": 92}, {"time": 2564, "pitch": 71, "duration": 2, "velocity": 92}, {"time": 2567, "pitch": 73, "duration": 7, "velocity": 106}, {"time": 2576, "pitch": 76, "duration": 24, "velocity": 94}, {"time": 2603, "pitch": 73, "duration": 2, "velocity": 107}, {"time": 2606, "pitch": 76, "duration": 2, "velocity": 94}, {"time": 2609, "pitch": 78, "duration": 4, "velocity": 92}, {"time": 2615, "pitch": 80, "duration": 18, "velocity": 91}, {"time": 2633, "pitch": 81, "duration": 5, "velocity": 94}, {"time": 2639, "pitch": 80, "duration": 6, "velocity": 95}, {"time": 2645, "pitch": 78, "duration": 15, "velocity": 87}, {"time": 2663, "pitch": 73, "duration": 2, "velocity": 97}, {"time": 2666, "pitch": 80, "duration": 10, "velocity": 94}, {"time": 2678, "pitch": 80, "duration": 5, "velocity": 94}, {"time": 2684, "pitch": 81, "duration": 3, "velocity": 93}, {"time": 2687, "pitch": 80, "duration": 9, "velocity": 92}, {"time": 2696, "pitch": 78, "duration": 18, "velocity": 96}, {"time": 2726, "pitch": 85, "duration": 5, "velocity": 92}, {"time": 2732, "pitch": 85, "duration": 4, "velocity": 93}, {"time": 2738, "pitch": 83, "duration": 5, "velocity": 97}, {"time": 2744, "pitch": 80, "duration": 2, "velocity": 91}, {"time": 2747, "pitch": 76, "duration": 8, "velocity": 92}, {"time": 2756, "pitch": 73, "duration": 5, "velocity": 101}, {"time": 2762, "pitch": 80, "duration": 6, "velocity": 91}, {"time": 2768, "pitch": 78, "duration": 31, "velocity": 91}, {"time": 2822, "pitch": 85, "duration": 5, "velocity": 92}, {"time": 2828, "pitch": 85, "duration": 4, "velocity": 93}, {"time": 2834, "pitch": 83, "duration": 6, "velocity": 94}, {"time": 2840, "pitch": 80, "duration": 4, "velocity": 92}, {"time": 2846, "pitch": 76, "duration": 6, "velocity": 94}, {"time": 2852, "pitch": 73, "duration": 5, "velocity": 101}, {"time": 2858, "pitch": 80, "duration": 6, "velocity": 93}, {"time": 2864, "pitch": 80, "duration": 30, "velocity": 91}, {"time": 2900, "pitch": 81, "duration": 6, "velocity": 97}, {"time": 2906, "pitch": 80, "duration": 6, "velocity": 94}, {"time": 2912, "pitch": 78, "duration": 28, "velocity": 92}, {"time": 2942, "pitch": 71, "duration": 6, "velocity": 101}, {"time": 2948, "pitch": 73, "duration": 5, "velocity": 97}, {"time": 2954, "pitch": 76, "duration": 2, "velocity": 97}, {"time": 2957, "pitch": 76, "duration": 2, "velocity": 94}, {"time": 2960, "pitch": 76, "duration": 16, "velocity": 93}, {"time": 2978, "pitch": 76, "duration": 2, "velocity": 94}, {"time": 2981, "pitch": 76, "duration": 2, "velocity": 92}, {"time": 2984, "pitch": 76, "duration": 5, "velocity": 92}, {"time": 2990, "pitch": 80, "duration": 5, "velocity": 97}, {"time": 2996, "pitch": 83, "duration": 3, "velocity": 97}, {"time": 2999, "pitch": 85, "duration": 21, "velocity": 95}, {"time": 3020, "pitch": 83, "duration": 3, "velocity": 90}, {"time": 3023, "pitch": 80, "duration": 11, "velocity": 94}, {"time": 3038, "pitch": 80, "duration": 4, "velocity": 92}, {"time": 3044, "pitch": 80, "duration": 5, "velocity": 94}, {"time": 3050, "pitch": 78, "duration": 6, "velocity": 89}, {"time": 3056, "pitch": 76, "duration": 3, "velocity": 92}, {"time": 3059, "pitch": 76, "duration": 9, "velocity": 91}, {"time": 3074, "pitch": 80, "duration": 5, "velocity": 94}, {"time": 3080, "pitch": 80, "duration": 5, "velocity": 94}, {"time": 3086, "pitch": 80, "duration": 5, "velocity": 96}, {"time": 3092, "pitch": 81, "duration": 5, "velocity": 91}, {"time": 3098, "pitch": 80, "duration": 3, "velocity": 97}, {"time": 3101, "pitch": 78, "duration": 19, "velocity": 88}, {"time": 3134, "pitch": 71, "duration": 5, "velocity": 90}, {"time": 3140, "pitch": 73, "duration": 5, "velocity": 106}, {"time": 3146, "pitch": 76, "duration": 2, "velocity": 94}, {"time": 3149, "pitch": 76, "duration": 2, "velocity": 91}, {"time": 3152, "pitch": 76, "duration": 15, "velocity": 94}, {"time": 3170, "pitch": 80, "duration": 2, "velocity": 94}, {"time": 3173, "pitch": 80, "duration": 2, "velocity": 91}, {"time": 3176, "pitch": 80, "duration": 4, "velocity": 92}, {"time": 3182, "pitch": 78, "duration": 5, "velocity": 97}, {"time": 3188, "pitch": 80, "duration": 4, "velocity": 94}, {"time": 3194, "pitch": 80, "duration": 3, "velocity": 93}, {"time": 3197, "pitch": 78, "duration": 3, "velocity": 92}, {"time": 3200, "pitch": 76, "duration": 25, "velocity": 94}, {"time": 3230, "pitch": 80, "duration": 4, "velocity": 90}, {"time": 3236, "pitch": 80, "duration": 5, "velocity": 93}, {"time": 3242, "pitch": 78, "duration": 4, "velocity": 99}, {"time": 3245, "pitch": 76, "duration": 3, "velocity": 91}, {"time": 3251, "pitch": 76, "duration": 9, "velocity": 92}, {"time": 3263, "pitch": 78, "duration": 2, "velocity": 74}, {"time": 3266, "pitch": 80, "duration": 7, "velocity": 94}, {"time": 3275, "pitch": 80, "duration": 9, "velocity": 92}, {"time": 3284, "pitch": 76, "duration": 3, "velocity": 92}, {"time": 3287, "pitch": 78, "duration": 39, "velocity": 96}, {"time": 3326, "pitch": 71, "duration": 6, "velocity": 101}, {"time": 3332, "pitch": 73, "duration": 5, "velocity": 97}, {"time": 3338, "pitch": 76, "duration": 2, "velocity": 97}, {"time": 3341, "pitch": 76, "duration": 2, "velocity": 94}, {"time": 3344, "pitch": 76, "duration": 16, "velocity": 93}, {"time": 3362, "pitch": 76, "duration": 2, "velocity": 94}, {"time": 3365, "pitch": 76, "duration": 2, "velocity": 92}, {"time": 3368, "pitch": 76, "duration": 5, "velocity": 92}, {"time": 3374, "pitch": 80, "duration": 5, "velocity": 97}, {"time": 3380, "pitch": 83, "duration": 3, "velocity": 97}, {"time": 3383, "pitch": 85, "duration": 21, "velocity": 95}, {"time": 3404, "pitch": 83, "duration": 3, "velocity": 90}, {"time": 3407, "pitch": 80, "duration": 11, "velocity": 94}, {"time": 3422, "pitch": 80, "duration": 4, "velocity": 92}, {"time": 3428, "pitch": 80, "duration": 5, "velocity": 94}, {"time": 3434, "pitch": 78, "duration": 6, "velocity": 89}, {"time": 3440, "pitch": 76, "duration": 3, "velocity": 92}, {"time": 3443, "pitch": 76, "duration": 9, "velocity": 91}, {"time": 3458, "pitch": 80, "duration": 5, "velocity": 94}, {"time": 3464, "pitch": 80, "duration": 5, "velocity": 94}, {"time": 3470, "pitch": 80, "duration": 5, "velocity": 96}, {"time": 3476, "pitch": 81, "duration": 5, "velocity": 91}, {"time": 3482, "pitch": 80, "duration": 3, "velocity": 97}, {"time": 3485, "pitch": 78, "duration": 19, "velocity": 88}, {"time": 3518, "pitch": 71, "duration": 5, "velocity": 90}, {"time": 3524, "pitch": 73, "duration": 5, "velocity": 106}, {"time": 3530, "pitch": 76, "duration": 2, "velocity": 94}, {"time": 3533, "pitch": 76, "duration": 2, "velocity": 91}, {"time": 3536, "pitch": 76, "duration": 15, "velocity": 94}, {"time": 3554, "pitch": 80, "duration": 2, "velocity": 94}, {"time": 3557, "pitch": 80, "duration": 2, "velocity": 91}, {"time": 3560, "pitch": 80, "duration": 4, "velocity": 92}, {"time": 3566, "pitch": 78, "duration": 5, "velocity": 97}, {"time": 3572, "pitch": 80, "duration": 4, "velocity": 94}, {"time": 3578, "pitch": 80, "duration": 3, "velocity": 93}, {"time": 3581, "pitch": 78, "duration": 3, "velocity": 92}, {"time": 3584, "pitch": 76, "duration": 25, "velocity": 94}, {"time": 3614, "pitch": 80, "duration": 4, "velocity": 90}, {"time": 3620, "pitch": 80, "duration": 5, "velocity": 93}, {"time": 3626, "pitch": 78, "duration": 4, "velocity": 99}, {"time": 3629, "pitch": 76, "duration": 3, "velocity": 91}, {"time": 3635, "pitch": 76, "duration": 9, "velocity": 92}, {"time": 3647, "pitch": 78, "duration": 2, "velocity": 74}, {"time": 3650, "pitch": 80, "duration": 7, "velocity": 94}, {"time": 3659, "pitch": 80, "duration": 9, "velocity": 92}, {"time": 3668, "pitch": 76, "duration": 3, "velocity": 92}, {"time": 3671, "pitch": 78, "duration": 39, "velocity": 96}]}, {"program": 0, "is_drum": false, "name": "PIANO", "notes": [{"time": 26, "pitch": 40, "duration": 37, "velocity": 80}, {"time": 26, "pitch": 59, "duration": 4, "velocity": 85}, {"time": 26, "pitch": 64, "duration": 7, "velocity": 84}, {"time": 26, "pitch": 68, "duration": 8, "velocity": 87}, {"time": 32, "pitch": 59, "duration": 5, "velocity": 91}, {"time": 38, "pitch": 64, "duration": 2, "velocity": 86}, {"time": 38, "pitch": 68, "duration": 2, "velocity": 90}, {"time": 50, "pitch": 64, "duration": 2, "velocity": 86}, {"time": 50, "pitch": 68, "duration": 3, "velocity": 86}, {"time": 56, "pitch": 59, "duration": 4, "velocity": 83}, {"time": 62, "pitch": 64, "duration": 7, "velocity": 92}, {"time": 62, "pitch": 68, "duration": 7, "velocity": 93}, {"time": 74, "pitch": 45, "duration": 40, "velocity": 91}, {"time": 74, "pitch": 61, "duration": 3, "velocity": 86}, {"time": 74, "pitch": 64, "duration": 10, "velocity": 89}, {"time": 80, "pitch": 61, "duration": 4, "velocity": 77}, {"time": 86, "pitch": 61, "duration": 4, "velocity": 90}, {"time": 86, "pitch": 64, "duration": 10, "velocity": 87}, {"time": 92, "pitch": 61, "duration": 4, "velocity": 78}, {"time": 98, "pitch": 61, "duration": 2, "velocity": 78}, {"time": 98, "pitch": 64, "duration": 9, "velocity": 76}, {"time": 104, "pitch": 61, "duration": 3, "velocity": 67}, {"time": 110, "pitch": 61, "duration": 3, "velocity": 90}, {"time": 110, "pitch": 64, "duration": 6, "velocity": 91}, {"time": 110, "pitch": 69, "duration": 5, "velocity": 89}, {"time": 116, "pitch": 61, "duration": 2, "velocity": 79}, {"time": 122, "pitch": 40, "duration": 39, "velocity": 91}, {"time": 122, "pitch": 64, "duration": 8, "velocity": 86}, {"time": 122, "pitch": 68, "duration": 7, "velocity": 90}, {"time": 128, "pitch": 59, "duration": 7, "velocity": 77}, {"time": 134, "pitch": 64, "duration": 3, "velocity": 79}, {"time": 134, "pitch": 68, "duration": 3, "velocity": 83}, {"time": 140, "pitch": 59, "duration": 4, "velocity": 66}, {"time": 146, "pitch": 64, "duration": 8, "velocity": 83}, {"time": 146, "pitch": 68, "duration": 3, "velocity": 78}, {"time": 152, "pitch": 59, "duration": 3, "velocity": 71}, {"time": 158, "pitch": 59, "duration": 3, "velocity": 91}, {"time": 158, "pitch": 64, "duration": 7, "velocity": 92}, {"time": 158, "pitch": 68, "duration": 6, "velocity": 91}, {"time": 164, "pitch": 59, "duration": 2, "velocity": 84}, {"time": 170, "pitch": 45, "duration": 40, "velocity": 88}, {"time": 170, "pitch": 61, "duration": 4, "velocity": 81}, {"time": 170, "pitch": 64, "duration": 9, "velocity": 87}, {"time": 170, "pitch": 69, "duration": 9, "velocity": 83}, {"time": 176, "pitch": 61, "duration": 4, "velocity": 70}, {"time": 182, "pitch": 64, "duration": 3, "velocity": 83}, {"time": 182, "pitch": 69, "duration": 4, "velocity": 81}, {"time": 188, "pitch": 61, "duration": 4, "velocity": 78}, {"time": 194, "pitch": 64, "duration": 3, "velocity": 85}, {"time": 194, "pitch": 69, "duration": 4, "velocity": 82}, {"time": 200, "pitch": 61, "duration": 2, "velocity": 63}, {"time": 206, "pitch": 61, "duration": 3, "velocity": 90}, {"time": 206, "pitch": 64, "duration": 3, "velocity": 96}, {"time": 206, "pitch": 69, "duration": 3, "velocity": 93}, {"time": 218, "pitch": 40, "duration": 38, "velocity": 85}, {"time": 218, "pitch": 59, "duration": 3, "velocity": 84}, {"time": 218, "pitch": 64, "duration": 7, "velocity": 82}, {"time": 218, "pitch": 68, "duration": 7, "velocity": 86}, {"time": 224, "pitch": 59, "duration": 3, "velocity": 76}, {"time": 230, "pitch": 64, "duration": 3, "velocity": 81}, {"time": 230, "pitch": 68, "duration": 3, "velocity": 84}, {"time": 236, "pitch": 59, "duration": 3, "velocity": 52}, {"time": 242, "pitch": 64, "duration": 3, "velocity": 90}, {"time": 242, "pitch": 68, "duration": 3, "velocity": 90}, {"time": 248, "pitch": 59, "duration": 3, "velocity": 79}, {"time": 254, "pitch": 59, "duration": 3, "velocity": 91}, {"time": 254, "pitch": 64, "duration": 4, "velocity": 91}, {"time": 254, "pitch": 68, "duration": 7, "velocity": 90}, {"time": 266, "pitch": 49, "duration": 37, "velocity": 89}, {"time": 266, "pitch": 56, "duration": 3, "velocity": 78}, {"time": 266, "pitch": 61, "duration": 8, "velocity": 82}, {"time": 266, "pitch": 64, "duration": 7, "velocity": 84}, {"time": 272, "pitch": 56, "duration": 8, "velocity": 70}, {"time": 278, "pitch": 61, "duration": 4, "velocity": 90}, {"time": 278, "pitch": 68, "duration": 5, "velocity": 88}, {"time": 284, "pitch": 56, "duration": 4, "velocity": 66}, {"time": 290, "pitch": 56, "duration": 3, "velocity": 82}, {"time": 290, "pitch": 61, "duration": 4, "velocity": 85}, {"time": 290, "pitch": 68, "duration": 5, "velocity": 86}, {"time": 302, "pitch": 56, "duration": 2, "velocity": 89}, {"time": 302, "pitch": 61, "duration": 2, "velocity": 88}, {"time": 302, "pitch": 68, "duration": 3, "velocity": 90}, {"time": 314, "pitch": 45, "duration": 39, "velocity": 87}, {"time": 314, "pitch": 57, "duration": 3, "velocity": 78}, {"time": 314, "pitch": 61, "duration": 7, "velocity": 90}, {"time": 314, "pitch": 64, "duration": 7, "velocity": 87}, {"time": 320, "pitch": 57, "duration": 4, "velocity": 74}, {"time": 326, "pitch": 57, "duration": 2, "velocity": 81}, {"time": 326, "pitch": 61, "duration": 2, "velocity": 88}, {"time": 326, "pitch": 64, "duration": 4, "velocity": 90}, {"time": 338, "pitch": 61, "duration": 2, "velocity": 85}, {"time": 338, "pitch": 64, "duration": 3, "velocity": 90}, {"time": 344, "pitch": 57, "duration": 3, "velocity": 66}, {"time": 350, "pitch": 57, "duration": 3, "velocity": 92}, {"time": 350, "pitch": 61, "duration": 3, "velocity": 93}, {"time": 350, "pitch": 64, "duration": 4, "velocity": 92}, {"time": 356, "pitch": 45, "duration": 2, "velocity": 101}, {"time": 362, "pitch": 47, "duration": 23, "velocity": 93}, {"time": 362, "pitch": 59, "duration": 5, "velocity": 82}, {"time": 362, "pitch": 63, "duration": 6, "velocity": 88}, {"time": 368, "pitch": 54, "duration": 8, "velocity": 78}, {"time": 374, "pitch": 59, "duration": 4, "velocity": 84}, {"time": 374, "pitch": 63, "duration": 4, "velocity": 91}, {"time": 374, "pitch": 66, "duration": 5, "velocity": 86}, {"time": 380, "pitch": 54, "duration": 5, "velocity": 79}, {"time": 383, "pitch": 59, "duration": 2, "velocity": 77}, {"time": 386, "pitch": 47, "duration": 13, "velocity": 92}, {"time": 386, "pitch": 59, "duration": 8, "velocity": 88}, {"time": 386, "pitch": 63, "duration": 8, "velocity": 90}, {"time": 398, "pitch": 59, "duration": 3, "velocity": 91}, {"time": 398, "pitch": 63, "duration": 4, "velocity": 94}, {"time": 398, "pitch": 66, "duration": 5, "velocity": 86}, {"time": 404, "pitch": 59, "duration": 4, "velocity": 82}, {"time": 410, "pitch": 40, "duration": 44, "velocity": 90}, {"time": 410, "pitch": 59, "duration": 4, "velocity": 91}, {"time": 410, "pitch": 64, "duration": 6, "velocity": 89}, {"time": 416, "pitch": 59, "duration": 2, "velocity": 71}, {"time": 422, "pitch": 59, "duration": 2, "velocity": 91}, {"time": 422, "pitch": 64, "duration": 2, "velocity": 91}, {"time": 422, "pitch": 68, "duration": 3, "velocity": 86}, {"time": 428, "pitch": 59, "duration": 1, "velocity": 59}, {"time": 434, "pitch": 59, "duration": 3, "velocity": 84}, {"time": 434, "pitch": 64, "duration": 3, "velocity": 84}, {"time": 434, "pitch": 68, "duration": 4, "velocity": 84}, {"time": 440, "pitch": 47, "duration": 10, "velocity": 65}, {"time": 443, "pitch": 59, "duration": 1, "velocity": 71}, {"time": 446, "pitch": 59, "duration": 4, "velocity": 93}, {"time": 446, "pitch": 64, "duration": 4, "velocity": 95}, {"time": 446, "pitch": 68, "duration": 7, "velocity": 91}, {"time": 452, "pitch": 59, "duration": 2, "velocity": 88}, {"time": 458, "pitch": 49, "duration": 28, "velocity": 90}, {"time": 458, "pitch": 56, "duration": 4, "velocity": 81}, {"time": 458, "pitch": 61, "duration": 8, "velocity": 90}, {"time": 464, "pitch": 56, "duration": 5, "velocity": 78}, {"time": 470, "pitch": 61, "duration": 1, "velocity": 92}, {"time": 470, "pitch": 64, "duration": 2, "velocity": 91}, {"time": 482, "pitch": 56, "duration": 1, "velocity": 68}, {"time": 482, "pitch": 61, "duration": 6, "velocity": 86}, {"time": 482, "pitch": 64, "duration": 6, "velocity": 90}, {"time": 491, "pitch": 56, "duration": 2, "velocity": 72}, {"time": 494, "pitch": 49, "duration": 6, "velocity": 92}, {"time": 494, "pitch": 56, "duration": 3, "velocity": 91}, {"time": 494, "pitch": 61, "duration": 6, "velocity": 92}, {"time": 494, "pitch": 64, "duration": 7, "velocity": 90}, {"time": 500, "pitch": 56, "duration": 2, "velocity": 76}, {"time": 506, "pitch": 45, "duration": 40, "velocity": 86}, {"time": 506, "pitch": 57, "duration": 3, "velocity": 78}, {"time": 506, "pitch": 61, "duration": 7, "velocity": 91}, {"time": 506, "pitch": 64, "duration": 7, "velocity": 86}, {"time": 512, "pitch": 57, "duration": 3, "velocity": 71}, {"time": 518, "pitch": 57, "duration": 6, "velocity": 86}, {"time": 518, "pitch": 61, "duration": 6, "velocity": 90}, {"time": 518, "pitch": 64, "duration": 6, "velocity": 90}, {"time": 524, "pitch": 52, "duration": 8, "velocity": 74}, {"time": 530, "pitch": 57, "duration": 6, "velocity": 81}, {"time": 530, "pitch": 61, "duration": 5, "velocity": 86}, {"time": 530, "pitch": 64, "duration": 7, "velocity": 88}, {"time": 539, "pitch": 57, "duration": 2, "velocity": 60}, {"time": 542, "pitch": 52, "duration": 7, "velocity": 85}, {"time": 542, "pitch": 57, "duration": 4, "velocity": 93}, {"time": 542, "pitch": 61, "duration": 3, "velocity": 95}, {"time": 542, "pitch": 64, "duration": 5, "velocity": 92}, {"time": 548, "pitch": 45, "duration": 2, "velocity": 91}, {"time": 554, "pitch": 47, "duration": 22, "velocity": 93}, {"time": 554, "pitch": 59, "duration": 7, "velocity": 84}, {"time": 554, "pitch": 63, "duration": 6, "velocity": 91}, {"time": 560, "pitch": 54, "duration": 9, "velocity": 80}, {"time": 566, "pitch": 59, "duration": 3, "velocity": 90}, {"time": 566, "pitch": 63, "duration": 3, "velocity": 97}, {"time": 566, "pitch": 66, "duration": 3, "velocity": 91}, {"time": 572, "pitch": 54, "duration": 5, "velocity": 79}, {"time": 578, "pitch": 47, "duration": 14, "velocity": 91}, {"time": 578, "pitch": 59, "duration": 7, "velocity": 83}, {"time": 578, "pitch": 63, "duration": 6, "velocity": 86}, {"time": 578, "pitch": 66, "duration": 7, "velocity": 84}, {"time": 584, "pitch": 54, "duration": 7, "velocity": 62}, {"time": 587, "pitch": 59, "duration": 2, "velocity": 79}, {"time": 590, "pitch": 59, "duration": 1, "velocity": 83}, {"time": 590, "pitch": 63, "duration": 4, "velocity": 97}, {"time": 590, "pitch": 66, "duration": 4, "velocity": 91}, {"time": 590, "pitch": 71, "duration": 4, "velocity": 91}, {"time": 596, "pitch": 47, "duration": 1, "velocity": 75}, {"time": 596, "pitch": 54, "duration": 2, "velocity": 83}, {"time": 602, "pitch": 45, "duration": 14, "velocity": 92}, {"time": 602, "pitch": 57, "duration": 10, "velocity": 85}, {"time": 602, "pitch": 61, "duration": 8, "velocity": 89}, {"time": 602, "pitch": 64, "duration": 8, "velocity": 90}, {"time": 608, "pitch": 52, "duration": 10, "velocity": 81}, {"time": 614, "pitch": 57, "duration": 3, "velocity": 88}, {"time": 614, "pitch": 61, "duration": 3, "velocity": 91}, {"time": 614, "pitch": 64, "duration": 4, "velocity": 91}, {"time": 620, "pitch": 45, "duration": 1, "velocity": 94}, {"time": 626, "pitch": 40, "duration": 17, "velocity": 91}, {"time": 626, "pitch": 56, "duration": 7, "velocity": 85}, {"time": 626, "pitch": 59, "duration": 7, "velocity": 86}, {"time": 626, "pitch": 64, "duration": 6, "velocity": 89}, {"time": 632, "pitch": 47, "duration": 7, "velocity": 71}, {"time": 635, "pitch": 56, "duration": 2, "velocity": 80}, {"time": 638, "pitch": 56, "duration": 4, "velocity": 95}, {"time": 638, "pitch": 59, "duration": 4, "velocity": 92}, {"time": 638, "pitch": 64, "duration": 4, "velocity": 91}, {"time": 641, "pitch": 47, "duration": 3, "velocity": 80}, {"time": 644, "pitch": 40, "duration": 4, "velocity": 90}, {"time": 650, "pitch": 47, "duration": 22, "velocity": 94}, {"time": 650, "pitch": 54, "duration": 3, "velocity": 90}, {"time": 650, "pitch": 59, "duration": 6, "velocity": 90}, {"time": 650, "pitch": 63, "duration": 7, "velocity": 92}, {"time": 662, "pitch": 54, "duration": 3, "velocity": 96}, {"time": 662, "pitch": 63, "duration": 10, "velocity": 95}, {"time": 671, "pitch": 54, "duration": 2, "velocity": 82}, {"time": 674, "pitch": 47, "duration": 14, "velocity": 91}, {"time": 674, "pitch": 54, "duration": 3, "velocity": 86}, {"time": 674, "pitch": 59, "duration": 8, "velocity": 90}, {"time": 674, "pitch": 63, "duration": 8, "velocity": 91}, {"time": 680, "pitch": 54, "duration": 3, "velocity": 82}, {"time": 686, "pitch": 54, "duration": 4, "velocity": 92}, {"time": 686, "pitch": 59, "duration": 5, "velocity": 96}, {"time": 686, "pitch": 63, "duration": 7, "velocity": 99}, {"time": 689, "pitch": 47, "duration": 3, "velocity": 91}, {"time": 692, "pitch": 54, "duration": 2, "velocity": 95}, {"time": 698, "pitch": 45, "duration": 15, "velocity": 92}, {"time": 698, "pitch": 52, "duration": 3, "velocity": 86}, {"time": 698, "pitch": 57, "duration": 5, "velocity": 81}, {"time": 698, "pitch": 61, "duration": 5, "velocity": 90}, {"time": 704, "pitch": 52, "duration": 5, "velocity": 90}, {"time": 710, "pitch": 52, "duration": 3, "velocity": 92}, {"time": 710, "pitch": 57, "duration": 4, "velocity": 95}, {"time": 710, "pitch": 64, "duration": 8, "velocity": 90}, {"time": 716, "pitch": 52, "duration": 2, "velocity": 97}, {"time": 722, "pitch": 40, "duration": 15, "velocity": 91}, {"time": 722, "pitch": 56, "duration": 3, "velocity": 83}, {"time": 722, "pitch": 59, "duration": 7, "velocity": 86}, {"time": 722, "pitch": 64, "duration": 7, "velocity": 86}, {"time": 728, "pitch": 56, "duration": 3, "velocity": 80}, {"time": 734, "pitch": 56, "duration": 5, "velocity": 91}, {"time": 734, "pitch": 59, "duration": 5, "velocity": 95}, {"time": 734, "pitch": 64, "duration": 6, "velocity": 91}, {"time": 740, "pitch": 40, "duration": 3, "velocity": 91}, {"time": 746, "pitch": 47, "duration": 16, "velocity": 99}, {"time": 746, "pitch": 54, "duration": 4, "velocity": 86}, {"time": 746, "pitch": 59, "duration": 7, "velocity": 85}, {"time": 746, "pitch": 63, "duration": 7, "velocity": 92}, {"time": 758, "pitch": 54, "duration": 4, "velocity": 91}, {"time": 758, "pitch": 59, "duration": 10, "velocity": 93}, {"time": 758, "pitch": 63, "duration": 10, "velocity": 96}, {"time": 767, "pitch": 54, "duration": 2, "velocity": 79}, {"time": 770, "pitch": 47, "duration": 15, "velocity": 91}, {"time": 770, "pitch": 54, "duration": 4, "velocity": 91}, {"time": 770, "pitch": 59, "duration": 11, "velocity": 92}, {"time": 770, "pitch": 63, "duration": 11, "velocity": 92}, {"time": 779, "pitch": 54, "duration": 2, "velocity": 82}, {"time": 782, "pitch": 54, "duration": 4, "velocity": 96}, {"time": 782, "pitch": 59, "duration": 4, "velocity": 99}, {"time": 782, "pitch": 63, "duration": 1, "velocity": 89}, {"time": 794, "pitch": 52, "duration": 22, "velocity": 90}, {"time": 794, "pitch": 68, "duration": 3, "velocity": 89}, {"time": 797, "pitch": 59, "duration": 20, "velocity": 82}, {"time": 797, "pitch": 64, "duration": 4, "velocity": 84}, {"time": 800, "pitch": 68, "duration": 3, "velocity": 80}, {"time": 803, "pitch": 64, "duration": 3, "velocity": 82}, {"time": 806, "pitch": 64, "duration": 4, "velocity": 82}, {"time": 806, "pitch": 71, "duration": 6, "velocity": 86}, {"time": 812, "pitch": 68, "duration": 4, "velocity": 87}, {"time": 815, "pitch": 64, "duration": 4, "velocity": 88}, {"time": 818, "pitch": 52, "duration": 16, "velocity": 93}, {"time": 818, "pitch": 76, "duration": 5, "velocity": 90}, {"time": 821, "pitch": 64, "duration": 4, "velocity": 93}, {"time": 824, "pitch": 68, "duration": 3, "velocity": 82}, {"time": 827, "pitch": 64, "duration": 2, "velocity": 88}, {"time": 830, "pitch": 59, "duration": 4, "velocity": 85}, {"time": 830, "pitch": 64, "duration": 1, "velocity": 83}, {"time": 830, "pitch": 68, "duration": 3, "velocity": 89}, {"time": 830, "pitch": 71, "duration": 6, "velocity": 88}, {"time": 833, "pitch": 64, "duration": 3, "velocity": 88}, {"time": 836, "pitch": 68, "duration": 4, "velocity": 85}, {"time": 839, "pitch": 64, "duration": 3, "velocity": 86}, {"time": 842, "pitch": 49, "duration": 21, "velocity": 86}, {"time": 842, "pitch": 68, "duration": 6, "velocity": 82}, {"time": 845, "pitch": 56, "duration": 20, "velocity": 74}, {"time": 848, "pitch": 64, "duration": 5, "velocity": 95}, {"time": 851, "pitch": 68, "duration": 4, "velocity": 90}, {"time": 854, "pitch": 73, "duration": 4, "velocity": 89}, {"time": 857, "pitch": 64, "duration": 7, "velocity": 95}, {"time": 860, "pitch": 68, "duration": 4, "velocity": 92}, {"time": 863, "pitch": 73, "duration": 4, "velocity": 82}, {"time": 866, "pitch": 49, "duration": 15, "velocity": 94}, {"time": 866, "pitch": 68, "duration": 7, "velocity": 86}, {"time": 869, "pitch": 56, "duration": 12, "velocity": 83}, {"time": 872, "pitch": 64, "duration": 5, "velocity": 90}, {"time": 875, "pitch": 68, "duration": 3, "velocity": 88}, {"time": 878, "pitch": 73, "duration": 5, "velocity": 94}, {"time": 881, "pitch": 64, "duration": 4, "velocity": 90}, {"time": 884, "pitch": 68, "duration": 3, "velocity": 89}, {"time": 887, "pitch": 64, "duration": 3, "velocity": 84}, {"time": 890, "pitch": 45, "duration": 22, "velocity": 88}, {"time": 890, "pitch": 69, "duration": 6, "velocity": 79}, {"time": 893, "pitch": 52, "duration": 19, "velocity": 82}, {"time": 896, "pitch": 64, "duration": 4, "velocity": 91}, {"time": 899, "pitch": 69, "duration": 3, "velocity": 81}, {"time": 902, "pitch": 71, "duration": 4, "velocity": 88}, {"time": 905, "pitch": 69, "duration": 3, "velocity": 84}, {"time": 908, "pitch": 64, "duration": 5, "velocity": 89}, {"time": 911, "pitch": 69, "duration": 4, "velocity": 79}, {"time": 914, "pitch": 45, "duration": 20, "velocity": 89}, {"time": 914, "pitch": 73, "duration": 7, "velocity": 88}, {"time": 917, "pitch": 52, "duration": 17, "velocity": 83}, {"time": 920, "pitch": 64, "duration": 5, "velocity": 91}, {"time": 923, "pitch": 69, "duration": 4, "velocity": 84}, {"time": 926, "pitch": 71, "duration": 4, "velocity": 84}, {"time": 929, "pitch": 69, "duration": 3, "velocity": 90}, {"time": 932, "pitch": 64, "duration": 5, "velocity": 82}, {"time": 935, "pitch": 69, "duration": 4, "velocity": 71}, {"time": 938, "pitch": 47, "duration": 22, "velocity": 89}, {"time": 938, "pitch": 71, "duration": 9, "velocity": 84}, {"time": 941, "pitch": 54, "duration": 10, "velocity": 45}, {"time": 944, "pitch": 59, "duration": 6, "velocity": 84}, {"time": 947, "pitch": 63, "duration": 3, "velocity": 88}, {"time": 950, "pitch": 66, "duration": 6, "velocity": 105}, {"time": 953, "pitch": 54, "duration": 7, "velocity": 83}, {"time": 956, "pitch": 59, "duration": 5, "velocity": 94}, {"time": 959, "pitch": 63, "duration": 2, "velocity": 92}, {"time": 962, "pitch": 47, "duration": 18, "velocity": 90}, {"time": 962, "pitch": 63, "duration": 2, "velocity": 81}, {"time": 962, "pitch": 71, "duration": 8, "velocity": 88}, {"time": 965, "pitch": 54, "duration": 10, "velocity": 82}, {"time": 968, "pitch": 59, "duration": 6, "velocity": 92}, {"time": 971, "pitch": 63, "duration": 2, "velocity": 92}, {"time": 974, "pitch": 66, "duration": 5, "velocity": 94}, {"time": 977, "pitch": 54, "duration": 3, "velocity": 83}, {"time": 980, "pitch": 59, "duration": 4, "velocity": 89}, {"time": 983, "pitch": 63, "duration": 2, "velocity": 88}, {"time": 986, "pitch": 52, "duration": 22, "velocity": 93}, {"time": 986, "pitch": 68, "duration": 6, "velocity": 90}, {"time": 989, "pitch": 59, "duration": 20, "velocity": 83}, {"time": 992, "pitch": 64, "duration": 6, "velocity": 87}, {"time": 995, "pitch": 68, "duration": 2, "velocity": 92}, {"time": 998, "pitch": 71, "duration": 4, "velocity": 83}, {"time": 1001, "pitch": 64, "duration": 6, "velocity": 89}, {"time": 1004, "pitch": 68, "duration": 4, "velocity": 90}, {"time": 1007, "pitch": 71, "duration": 3, "velocity": 83}, {"time": 1010, "pitch": 52, "duration": 19, "velocity": 93}, {"time": 1010, "pitch": 76, "duration": 7, "velocity": 90}, {"time": 1013, "pitch": 59, "duration": 11, "velocity": 76}, {"time": 1016, "pitch": 64, "duration": 5, "velocity": 90}, {"time": 1019, "pitch": 68, "duration": 2, "velocity": 89}, {"time": 1022, "pitch": 64, "duration": 4, "velocity": 88}, {"time": 1022, "pitch": 68, "duration": 5, "velocity": 88}, {"time": 1022, "pitch": 71, "duration": 8, "velocity": 88}, {"time": 1025, "pitch": 59, "duration": 5, "velocity": 82}, {"time": 1028, "pitch": 64, "duration": 5, "velocity": 89}, {"time": 1031, "pitch": 68, "duration": 3, "velocity": 93}, {"time": 1034, "pitch": 49, "duration": 22, "velocity": 92}, {"time": 1037, "pitch": 56, "duration": 20, "velocity": 77}, {"time": 1040, "pitch": 61, "duration": 6, "velocity": 83}, {"time": 1043, "pitch": 64, "duration": 4, "velocity": 86}, {"time": 1046, "pitch": 68, "duration": 4, "velocity": 86}, {"time": 1049, "pitch": 61, "duration": 7, "velocity": 85}, {"time": 1052, "pitch": 64, "duration": 5, "velocity": 78}, {"time": 1055, "pitch": 68, "duration": 8, "velocity": 76}, {"time": 1058, "pitch": 49, "duration": 17, "velocity": 85}, {"time": 1061, "pitch": 56, "duration": 11, "velocity": 74}, {"time": 1064, "pitch": 61, "duration": 5, "velocity": 89}, {"time": 1067, "pitch": 64, "duration": 2, "velocity": 77}, {"time": 1070, "pitch": 61, "duration": 4, "velocity": 82}, {"time": 1070, "pitch": 64, "duration": 6, "velocity": 92}, {"time": 1070, "pitch": 68, "duration": 6, "velocity": 89}, {"time": 1073, "pitch": 56, "duration": 2, "velocity": 81}, {"time": 1076, "pitch": 61, "duration": 5, "velocity": 89}, {"time": 1079, "pitch": 64, "duration": 3, "velocity": 84}, {"time": 1082, "pitch": 45, "duration": 22, "velocity": 89}, {"time": 1085, "pitch": 52, "duration": 19, "velocity": 81}, {"time": 1088, "pitch": 57, "duration": 7, "velocity": 89}, {"time": 1091, "pitch": 61, "duration": 4, "velocity": 89}, {"time": 1094, "pitch": 64, "duration": 4, "velocity": 88}, {"time": 1097, "pitch": 69, "duration": 7, "velocity": 89}, {"time": 1100, "pitch": 57, "duration": 9, "velocity": 88}, {"time": 1103, "pitch": 61, "duration": 9, "velocity": 95}, {"time": 1106, "pitch": 45, "duration": 18, "velocity": 89}, {"time": 1106, "pitch": 64, "duration": 10, "velocity": 88}, {"time": 1109, "pitch": 52, "duration": 14, "velocity": 77}, {"time": 1112, "pitch": 57, "duration": 8, "velocity": 82}, {"time": 1115, "pitch": 61, "duration": 6, "velocity": 90}, {"time": 1118, "pitch": 64, "duration": 5, "velocity": 89}, {"time": 1121, "pitch": 69, "duration": 7, "velocity": 88}, {"time": 1124, "pitch": 57, "duration": 5, "velocity": 82}, {"time": 1127, "pitch": 61, "duration": 8, "velocity": 90}, {"time": 1130, "pitch": 42, "duration": 15, "velocity": 89}, {"time": 1133, "pitch": 49, "duration": 12, "velocity": 75}, {"time": 1136, "pitch": 57, "duration": 6, "velocity": 84}, {"time": 1139, "pitch": 61, "duration": 4, "velocity": 94}, {"time": 1142, "pitch": 66, "duration": 6, "velocity": 89}, {"time": 1145, "pitch": 57, "duration": 6, "velocity": 89}, {"time": 1148, "pitch": 61, "duration": 4, "velocity": 90}, {"time": 1151, "pitch": 66, "duration": 5, "velocity": 82}, {"time": 1154, "pitch": 47, "duration": 25, "velocity": 92}, {"time": 1157, "pitch": 54, "duration": 11, "velocity": 75}, {"time": 1160, "pitch": 59, "duration": 6, "velocity": 90}, {"time": 1163, "pitch": 63, "duration": 4, "velocity": 93}, {"time": 1166, "pitch": 51, "duration": 4, "velocity": 75}, {"time": 1166, "pitch": 66, "duration": 10, "velocity": 93}, {"time": 1172, "pitch": 54, "duration": 7, "velocity": 75}, {"time": 1175, "pitch": 59, "duration": 4, "velocity": 89}, {"time": 1178, "pitch": 40, "duration": 38, "velocity": 85}, {"time": 1178, "pitch": 59, "duration": 1, "velocity": 84}, {"time": 1178, "pitch": 64, "duration": 7, "velocity": 82}, {"time": 1178, "pitch": 68, "duration": 7, "velocity": 86}, {"time": 1184, "pitch": 59, "duration": 3, "velocity": 76}, {"time": 1190, "pitch": 64, "duration": 3, "velocity": 81}, {"time": 1190, "pitch": 68, "duration": 3, "velocity": 84}, {"time": 1196, "pitch": 59, "duration": 3, "velocity": 52}, {"time": 1202, "pitch": 64, "duration": 3, "velocity": 90}, {"time": 1202, "pitch": 68, "duration": 3, "velocity": 90}, {"time": 1208, "pitch": 59, "duration": 3, "velocity": 79}, {"time": 1214, "pitch": 59, "duration": 3, "velocity": 91}, {"time": 1214, "pitch": 64, "duration": 4, "velocity": 91}, {"time": 1214, "pitch": 68, "duration": 7, "velocity": 90}, {"time": 1226, "pitch": 49, "duration": 37, "velocity": 89}, {"time": 1226, "pitch": 56, "duration": 3, "velocity": 78}, {"time": 1226, "pitch": 61, "duration": 8, "velocity": 82}, {"time": 1226, "pitch": 64, "duration": 7, "velocity": 84}, {"time": 1232, "pitch": 56, "duration": 8, "velocity": 70}, {"time": 1238, "pitch": 61, "duration": 4, "velocity": 90}, {"time": 1238, "pitch": 68, "duration": 5, "velocity": 88}, {"time": 1244, "pitch": 56, "duration": 4, "velocity": 66}, {"time": 1250, "pitch": 56, "duration": 3, "velocity": 82}, {"time": 1250, "pitch": 61, "duration": 4, "velocity": 85}, {"time": 1250, "pitch": 68, "duration": 5, "velocity": 86}, {"time": 1262, "pitch": 56, "duration": 2, "velocity": 89}, {"time": 1262, "pitch": 61, "duration": 2, "velocity": 88}, {"time": 1262, "pitch": 68, "duration": 3, "velocity": 90}, {"time": 1274, "pitch": 45, "duration": 39, "velocity": 87}, {"time": 1274, "pitch": 57, "duration": 3, "velocity": 78}, {"time": 1274, "pitch": 61, "duration": 7, "velocity": 90}, {"time": 1274, "pitch": 64, "duration": 7, "velocity": 87}, {"time": 1280, "pitch": 57, "duration": 4, "velocity": 74}, {"time": 1286, "pitch": 57, "duration": 2, "velocity": 81}, {"time": 1286, "pitch": 61, "duration": 2, "velocity": 88}, {"time": 1286, "pitch": 64, "duration": 4, "velocity": 90}, {"time": 1298, "pitch": 61, "duration": 2, "velocity": 85}, {"time": 1298, "pitch": 64, "duration": 3, "velocity": 90}, {"time": 1304, "pitch": 57, "duration": 3, "velocity": 66}, {"time": 1310, "pitch": 57, "duration": 3, "velocity": 92}, {"time": 1310, "pitch": 61, "duration": 3, "velocity": 93}, {"time": 1310, "pitch": 64, "duration": 4, "velocity": 92}, {"time": 1316, "pitch": 45, "duration": 2, "velocity": 101}, {"time": 1322, "pitch": 47, "duration": 23, "velocity": 93}, {"time": 1322, "pitch": 59, "duration": 5, "velocity": 82}, {"time": 1322, "pitch": 63, "duration": 6, "velocity": 88}, {"time": 1328, "pitch": 54, "duration": 8, "velocity": 78}, {"time": 1334, "pitch": 59, "duration": 4, "velocity": 84}, {"time": 1334, "pitch": 63, "duration": 4, "velocity": 91}, {"time": 1334, "pitch": 66, "duration": 5, "velocity": 86}, {"time": 1340, "pitch": 54, "duration": 5, "velocity": 79}, {"time": 1343, "pitch": 59, "duration": 2, "velocity": 77}, {"time": 1346, "pitch": 47, "duration": 13, "velocity": 92}, {"time": 1346, "pitch": 59, "duration": 8, "velocity": 88}, {"time": 1346, "pitch": 63, "duration": 8, "velocity": 90}, {"time": 1358, "pitch": 59, "duration": 3, "velocity": 91}, {"time": 1358, "pitch": 63, "duration": 4, "velocity": 94}, {"time": 1358, "pitch": 66, "duration": 5, "velocity": 86}, {"time": 1364, "pitch": 59, "duration": 4, "velocity": 82}, {"time": 1370, "pitch": 40, "duration": 44, "velocity": 90}, {"time": 1370, "pitch": 59, "duration": 4, "velocity": 91}, {"time": 1370, "pitch": 64, "duration": 6, "velocity": 89}, {"time": 1376, "pitch": 59, "duration": 2, "velocity": 71}, {"time": 1382, "pitch": 59, "duration": 2, "velocity": 91}, {"time": 1382, "pitch": 64, "duration": 2, "velocity": 91}, {"time": 1382, "pitch": 68, "duration": 3, "velocity": 86}, {"time": 1388, "pitch": 59, "duration": 1, "velocity": 59}, {"time": 1394, "pitch": 59, "duration": 3, "velocity": 84}, {"time": 1394, "pitch": 64, "duration": 3, "velocity": 84}, {"time": 1394, "pitch": 68, "duration": 4, "velocity": 84}, {"time": 1400, "pitch": 47, "duration": 10, "velocity": 65}, {"time": 1403, "pitch": 59, "duration": 1, "velocity": 71}, {"time": 1406, "pitch": 59, "duration": 4, "velocity": 93}, {"time": 1406, "pitch": 64, "duration": 4, "velocity": 95}, {"time": 1406, "pitch": 68, "duration": 7, "velocity": 91}, {"time": 1412, "pitch": 59, "duration": 2, "velocity": 88}, {"time": 1418, "pitch": 49, "duration": 28, "velocity": 90}, {"time": 1418, "pitch": 56, "duration": 4, "velocity": 81}, {"time": 1418, "pitch": 61, "duration": 8, "velocity": 90}, {"time": 1424, "pitch": 56, "duration": 5, "velocity": 78}, {"time": 1430, "pitch": 61, "duration": 1, "velocity": 92}, {"time": 1430, "pitch": 64, "duration": 2, "velocity": 91}, {"time": 1442, "pitch": 56, "duration": 1, "velocity": 68}, {"time": 1442, "pitch": 61, "duration": 6, "velocity": 86}, {"time": 1442, "pitch": 64, "duration": 6, "velocity": 90}, {"time": 1451, "pitch": 56, "duration": 2, "velocity": 72}, {"time": 1454, "pitch": 49, "duration": 6, "velocity": 92}, {"time": 1454, "pitch": 56, "duration": 3, "velocity": 91}, {"time": 1454, "pitch": 61, "duration": 6, "velocity": 92}, {"time": 1454, "pitch": 64, "duration": 7, "velocity": 90}, {"time": 1460, "pitch": 56, "duration": 2, "velocity": 76}, {"time": 1466, "pitch": 45, "duration": 40, "velocity": 86}, {"time": 1466, "pitch": 57, "duration": 3, "velocity": 78}, {"time": 1466, "pitch": 61, "duration": 7, "velocity": 91}, {"time": 1466, "pitch": 64, "duration": 7, "velocity": 86}, {"time": 1472, "pitch": 57, "duration": 3, "velocity": 71}, {"time": 1478, "pitch": 57, "duration": 6, "velocity": 86}, {"time": 1478, "pitch": 61, "duration": 6, "velocity": 90}, {"time": 1478, "pitch": 64, "duration": 6, "velocity": 90}, {"time": 1484, "pitch": 52, "duration": 8, "velocity": 74}, {"time": 1490, "pitch": 57, "duration": 6, "velocity": 81}, {"time": 1490, "pitch": 61, "duration": 5, "velocity": 86}, {"time": 1490, "pitch": 64, "duration": 7, "velocity": 88}, {"time": 1499, "pitch": 57, "duration": 2, "velocity": 60}, {"time": 1502, "pitch": 52, "duration": 7, "velocity": 85}, {"time": 1502, "pitch": 57, "duration": 4, "velocity": 93}, {"time": 1502, "pitch": 61, "duration": 3, "velocity": 95}, {"time": 1502, "pitch": 64, "duration": 5, "velocity": 92}, {"time": 1508, "pitch": 45, "duration": 2, "velocity": 91}, {"time": 1514, "pitch": 47, "duration": 22, "velocity": 93}, {"time": 1514, "pitch": 59, "duration": 7, "velocity": 84}, {"time": 1514, "pitch": 63, "duration": 6, "velocity": 91}, {"time": 1520, "pitch": 54, "duration": 9, "velocity": 80}, {"time": 1526, "pitch": 59, "duration": 3, "velocity": 90}, {"time": 1526, "pitch": 63, "duration": 3, "velocity": 97}, {"time": 1526, "pitch": 66, "duration": 3, "velocity": 91}, {"time": 1532, "pitch": 54, "duration": 5, "velocity": 79}, {"time": 1538, "pitch": 47, "duration": 14, "velocity": 91}, {"time": 1538, "pitch": 59, "duration": 7, "velocity": 83}, {"time": 1538, "pitch": 63, "duration": 6, "velocity": 86}, {"time": 1538, "pitch": 66, "duration": 7, "velocity": 84}, {"time": 1544, "pitch": 54, "duration": 7, "velocity": 62}, {"time": 1547, "pitch": 59, "duration": 2, "velocity": 79}, {"time": 1550, "pitch": 59, "duration": 1, "velocity": 83}, {"time": 1550, "pitch": 63, "duration": 4, "velocity": 97}, {"time": 1550, "pitch": 66, "duration": 4, "velocity": 91}, {"time": 1550, "pitch": 71, "duration": 4, "velocity": 91}, {"time": 1556, "pitch": 47, "duration": 1, "velocity": 75}, {"time": 1556, "pitch": 54, "duration": 2, "velocity": 83}, {"time": 1562, "pitch": 45, "duration": 14, "velocity": 92}, {"time": 1562, "pitch": 57, "duration": 10, "velocity": 85}, {"time": 1562, "pitch": 61, "duration": 8, "velocity": 89}, {"time": 1562, "pitch": 64, "duration": 8, "velocity": 90}, {"time": 1568, "pitch": 52, "duration": 10, "velocity": 81}, {"time": 1574, "pitch": 57, "duration": 3, "velocity": 88}, {"time": 1574, "pitch": 61, "duration": 3, "velocity": 91}, {"time": 1574, "pitch": 64, "duration": 4, "velocity": 91}, {"time": 1580, "pitch": 45, "duration": 1, "velocity": 94}, {"time": 1586, "pitch": 40, "duration": 17, "velocity": 91}, {"time": 1586, "pitch": 56, "duration": 7, "velocity": 85}, {"time": 1586, "pitch": 59, "duration": 7, "velocity": 86}, {"time": 1586, "pitch": 64, "duration": 6, "velocity": 89}, {"time": 1592, "pitch": 47, "duration": 7, "velocity": 71}, {"time": 1595, "pitch": 56, "duration": 2, "velocity": 80}, {"time": 1598, "pitch": 56, "duration": 4, "velocity": 95}, {"time": 1598, "pitch": 59, "duration": 4, "velocity": 92}, {"time": 1598, "pitch": 64, "duration": 4, "velocity": 91}, {"time": 1601, "pitch": 47, "duration": 3, "velocity": 80}, {"time": 1604, "pitch": 40, "duration": 4, "velocity": 90}, {"time": 1610, "pitch": 47, "duration": 22, "velocity": 94}, {"time": 1610, "pitch": 54, "duration": 3, "velocity": 90}, {"time": 1610, "pitch": 59, "duration": 6, "velocity": 90}, {"time": 1610, "pitch": 63, "duration": 7, "velocity": 92}, {"time": 1622, "pitch": 54, "duration": 3, "velocity": 96}, {"time": 1622, "pitch": 63, "duration": 10, "velocity": 95}, {"time": 1631, "pitch": 54, "duration": 2, "velocity": 82}, {"time": 1634, "pitch": 47, "duration": 14, "velocity": 91}, {"time": 1634, "pitch": 54, "duration": 3, "velocity": 86}, {"time": 1634, "pitch": 59, "duration": 8, "velocity": 90}, {"time": 1634, "pitch": 63, "duration": 8, "velocity": 91}, {"time": 1640, "pitch": 54, "duration": 3, "velocity": 82}, {"time": 1646, "pitch": 54, "duration": 4, "velocity": 92}, {"time": 1646, "pitch": 59, "duration": 5, "velocity": 96}, {"time": 1646, "pitch": 63, "duration": 7, "velocity": 99}, {"time": 1649, "pitch": 47, "duration": 3, "velocity": 91}, {"time": 1652, "pitch": 54, "duration": 2, "velocity": 95}, {"time": 1658, "pitch": 45, "duration": 15, "velocity": 92}, {"time": 1658, "pitch": 52, "duration": 3, "velocity": 86}, {"time": 1658, "pitch": 57, "duration": 5, "velocity": 81}, {"time": 1658, "pitch": 61, "duration": 5, "velocity": 90}, {"time": 1664, "pitch": 52, "duration": 5, "velocity": 90}, {"time": 1670, "pitch": 52, "duration": 3, "velocity": 92}, {"time": 1670, "pitch": 57, "duration": 4, "velocity": 95}, {"time": 1670, "pitch": 64, "duration": 8, "velocity": 90}, {"time": 1676, "pitch": 52, "duration": 2, "velocity": 97}, {"time": 1682, "pitch": 40, "duration": 15, "velocity": 91}, {"time": 1682, "pitch": 56, "duration": 3, "velocity": 83}, {"time": 1682, "pitch": 59, "duration": 7, "velocity": 86}, {"time": 1682, "pitch": 64, "duration": 7, "velocity": 86}, {"time": 1688, "pitch": 56, "duration": 3, "velocity": 80}, {"time": 1694, "pitch": 56, "duration": 5, "velocity": 91}, {"time": 1694, "pitch": 59, "duration": 5, "velocity": 95}, {"time": 1694, "pitch": 64, "duration": 6, "velocity": 91}, {"time": 1700, "pitch": 40, "duration": 3, "velocity": 91}, {"time": 1706, "pitch": 47, "duration": 16, "velocity": 99}, {"time": 1706, "pitch": 54, "duration": 4, "velocity": 86}, {"time": 1706, "pitch": 59, "duration": 7, "velocity": 85}, {"time": 1706, "pitch": 63, "duration": 7, "velocity": 92}, {"time": 1718, "pitch": 54, "duration": 4, "velocity": 91}, {"time": 1718, "pitch": 59, "duration": 10, "velocity": 93}, {"time": 1718, "pitch": 63, "duration": 10, "velocity": 96}, {"time": 1727, "pitch": 54, "duration": 2, "velocity": 79}, {"time": 1730, "pitch": 47, "duration": 15, "velocity": 91}, {"time": 1730, "pitch": 54, "duration": 4, "velocity": 91}, {"time": 1730, "pitch": 59, "duration": 11, "velocity": 92}, {"time": 1730, "pitch": 63, "duration": 11, "velocity": 92}, {"time": 1739, "pitch": 54, "duration": 2, "velocity": 82}, {"time": 1742, "pitch": 54, "duration": 4, "velocity": 96}, {"time": 1742, "pitch": 59, "duration": 4, "velocity": 99}, {"time": 1742, "pitch": 63, "duration": 1, "velocity": 89}, {"time": 1754, "pitch": 52, "duration": 22, "velocity": 90}, {"time": 1754, "pitch": 68, "duration": 3, "velocity": 89}, {"time": 1757, "pitch": 59, "duration": 20, "velocity": 82}, {"time": 1757, "pitch": 64, "duration": 4, "velocity": 84}, {"time": 1760, "pitch": 68, "duration": 3, "velocity": 80}, {"time": 1763, "pitch": 64, "duration": 3, "velocity": 82}, {"time": 1766, "pitch": 64, "duration": 4, "velocity": 82}, {"time": 1766, "pitch": 71, "duration": 6, "velocity": 86}, {"time": 1772, "pitch": 68, "duration": 4, "velocity": 87}, {"time": 1775, "pitch": 64, "duration": 4, "velocity": 88}, {"time": 1778, "pitch": 52, "duration": 16, "velocity": 93}, {"time": 1778, "pitch": 76, "duration": 5, "velocity": 90}, {"time": 1781, "pitch": 64, "duration": 4, "velocity": 93}, {"time": 1784, "pitch": 68, "duration": 3, "velocity": 82}, {"time": 1787, "pitch": 64, "duration": 2, "velocity": 88}, {"time": 1790, "pitch": 59, "duration": 4, "velocity": 85}, {"time": 1790, "pitch": 64, "duration": 1, "velocity": 83}, {"time": 1790, "pitch": 68, "duration": 3, "velocity": 89}, {"time": 1790, "pitch": 71, "duration": 6, "velocity": 88}, {"time": 1793, "pitch": 64, "duration": 3, "velocity": 88}, {"time": 1796, "pitch": 68, "duration": 4, "velocity": 85}, {"time": 1799, "pitch": 64, "duration": 3, "velocity": 86}, {"time": 1802, "pitch": 49, "duration": 21, "velocity": 86}, {"time": 1802, "pitch": 68, "duration": 6, "velocity": 82}, {"time": 1805, "pitch": 56, "duration": 20, "velocity": 74}, {"time": 1808, "pitch": 64, "duration": 5, "velocity": 95}, {"time": 1811, "pitch": 68, "duration": 4, "velocity": 90}, {"time": 1814, "pitch": 73, "duration": 4, "velocity": 89}, {"time": 1817, "pitch": 64, "duration": 7, "velocity": 95}, {"time": 1820, "pitch": 68, "duration": 4, "velocity": 92}, {"time": 1823, "pitch": 73, "duration": 4, "velocity": 82}, {"time": 1826, "pitch": 49, "duration": 15, "velocity": 94}, {"time": 1826, "pitch": 68, "duration": 7, "velocity": 86}, {"time": 1829, "pitch": 56, "duration": 12, "velocity": 83}, {"time": 1832, "pitch": 64, "duration": 5, "velocity": 90}, {"time": 1835, "pitch": 68, "duration": 3, "velocity": 88}, {"time": 1838, "pitch": 73, "duration": 5, "velocity": 94}, {"time": 1841, "pitch": 64, "duration": 4, "velocity": 90}, {"time": 1844, "pitch": 68, "duration": 3, "velocity": 89}, {"time": 1847, "pitch": 64, "duration": 3, "velocity": 84}, {"time": 1850, "pitch": 45, "duration": 22, "velocity": 88}, {"time": 1850, "pitch": 69, "duration": 6, "velocity": 79}, {"time": 1853, "pitch": 52, "duration": 19, "velocity": 82}, {"time": 1856, "pitch": 64, "duration": 4, "velocity": 91}, {"time": 1859, "pitch": 69, "duration": 3, "velocity": 81}, {"time": 1862, "pitch": 71, "duration": 4, "velocity": 88}, {"time": 1865, "pitch": 69, "duration": 3, "velocity": 84}, {"time": 1868, "pitch": 64, "duration": 5, "velocity": 89}, {"time": 1871, "pitch": 69, "duration": 4, "velocity": 79}, {"time": 1874, "pitch": 45, "duration": 20, "velocity": 89}, {"time": 1874, "pitch": 73, "duration": 7, "velocity": 88}, {"time": 1877, "pitch": 52, "duration": 17, "velocity": 83}, {"time": 1880, "pitch": 64, "duration": 5, "velocity": 91}, {"time": 1883, "pitch": 69, "duration": 4, "velocity": 84}, {"time": 1886, "pitch": 71, "duration": 4, "velocity": 84}, {"time": 1889, "pitch": 69, "duration": 3, "velocity": 90}, {"time": 1892, "pitch": 64, "duration": 5, "velocity": 82}, {"time": 1895, "pitch": 69, "duration": 4, "velocity": 71}, {"time": 1898, "pitch": 47, "duration": 22, "velocity": 89}, {"time": 1898, "pitch": 71, "duration": 9, "velocity": 84}, {"time": 1901, "pitch": 54, "duration": 10, "velocity": 45}, {"time": 1904, "pitch": 59, "duration": 6, "velocity": 84}, {"time": 1907, "pitch": 63, "duration": 3, "velocity": 88}, {"time": 1910, "pitch": 66, "duration": 6, "velocity": 105}, {"time": 1913, "pitch": 54, "duration": 7, "velocity": 83}, {"time": 1916, "pitch": 59, "duration": 5, "velocity": 94}, {"time": 1919, "pitch": 63, "duration": 2, "velocity": 92}, {"time": 1922, "pitch": 47, "duration": 18, "velocity": 90}, {"time": 1922, "pitch": 63, "duration": 2, "velocity": 81}, {"time": 1922, "pitch": 71, "duration": 8, "velocity": 88}, {"time": 1925, "pitch": 54, "duration": 10, "velocity": 82}, {"time": 1928, "pitch": 59, "duration": 6, "velocity": 92}, {"time": 1931, "pitch": 63, "duration": 2, "velocity": 92}, {"time": 1934, "pitch": 66, "duration": 5, "velocity": 94}, {"time": 1937, "pitch": 54, "duration": 3, "velocity": 83}, {"time": 1940, "pitch": 59, "duration": 4, "velocity": 89}, {"time": 1943, "pitch": 63, "duration": 2, "velocity": 88}, {"time": 1946, "pitch": 52, "duration": 22, "velocity": 93}, {"time": 1946, "pitch": 68, "duration": 6, "velocity": 90}, {"time": 1949, "pitch": 59, "duration": 20, "velocity": 83}, {"time": 1952, "pitch": 64, "duration": 6, "velocity": 87}, {"time": 1955, "pitch": 68, "duration": 2, "velocity": 92}, {"time": 1958, "pitch": 71, "duration": 4, "velocity": 83}, {"time": 1961, "pitch": 64, "duration": 6, "velocity": 89}, {"time": 1964, "pitch": 68, "duration": 4, "velocity": 90}, {"time": 1967, "pitch": 71, "duration": 3, "velocity": 83}, {"time": 1970, "pitch": 52, "duration": 19, "velocity": 93}, {"time": 1970, "pitch": 76, "duration": 7, "velocity": 90}, {"time": 1973, "pitch": 59, "duration": 11, "velocity": 76}, {"time": 1976, "pitch": 64, "duration": 5, "velocity": 90}, {"time": 1979, "pitch": 68, "duration": 2, "velocity": 89}, {"time": 1982, "pitch": 64, "duration": 4, "velocity": 88}, {"time": 1982, "pitch": 68, "duration": 5, "velocity": 88}, {"time": 1982, "pitch": 71, "duration": 8, "velocity": 88}, {"time": 1985, "pitch": 59, "duration": 5, "velocity": 82}, {"time": 1988, "pitch": 64, "duration": 5, "velocity": 89}, {"time": 1991, "pitch": 68, "duration": 3, "velocity": 93}, {"time": 1994, "pitch": 49, "duration": 22, "velocity": 92}, {"time": 1997, "pitch": 56, "duration": 20, "velocity": 77}, {"time": 2000, "pitch": 61, "duration": 6, "velocity": 83}, {"time": 2003, "pitch": 64, "duration": 4, "velocity": 86}, {"time": 2006, "pitch": 68, "duration": 4, "velocity": 86}, {"time": 2009, "pitch": 61, "duration": 7, "velocity": 85}, {"time": 2012, "pitch": 64, "duration": 5, "velocity": 78}, {"time": 2015, "pitch": 68, "duration": 8, "velocity": 76}, {"time": 2018, "pitch": 47, "duration": 25, "velocity": 88}, {"time": 2021, "pitch": 54, "duration": 11, "velocity": 65}, {"time": 2024, "pitch": 59, "duration": 8, "velocity": 91}, {"time": 2027, "pitch": 63, "duration": 4, "velocity": 93}, {"time": 2030, "pitch": 71, "duration": 7, "velocity": 85}, {"time": 2033, "pitch": 54, "duration": 9, "velocity": 87}, {"time": 2036, "pitch": 59, "duration": 6, "velocity": 102}, {"time": 2039, "pitch": 63, "duration": 3, "velocity": 90}, {"time": 2042, "pitch": 45, "duration": 22, "velocity": 89}, {"time": 2045, "pitch": 52, "duration": 19, "velocity": 81}, {"time": 2048, "pitch": 57, "duration": 7, "velocity": 89}, {"time": 2051, "pitch": 61, "duration": 4, "velocity": 89}, {"time": 2054, "pitch": 64, "duration": 4, "velocity": 88}, {"time": 2057, "pitch": 69, "duration": 7, "velocity": 89}, {"time": 2060, "pitch": 57, "duration": 9, "velocity": 88}, {"time": 2063, "pitch": 61, "duration": 9, "velocity": 95}, {"time": 2066, "pitch": 45, "duration": 18, "velocity": 89}, {"time": 2066, "pitch": 64, "duration": 10, "velocity": 88}, {"time": 2069, "pitch": 52, "duration": 14, "velocity": 77}, {"time": 2072, "pitch": 57, "duration": 8, "velocity": 82}, {"time": 2075, "pitch": 61, "duration": 6, "velocity": 90}, {"time": 2078, "pitch": 64, "duration": 5, "velocity": 89}, {"time": 2081, "pitch": 69, "duration": 7, "velocity": 88}, {"time": 2084, "pitch": 57, "duration": 5, "velocity": 82}, {"time": 2087, "pitch": 61, "duration": 8, "velocity": 90}, {"time": 2090, "pitch": 42, "duration": 15, "velocity": 89}, {"time": 2093, "pitch": 49, "duration": 12, "velocity": 75}, {"time": 2096, "pitch": 57, "duration": 6, "velocity": 84}, {"time": 2099, "pitch": 61, "duration": 4, "velocity": 94}, {"time": 2102, "pitch": 66, "duration": 6, "velocity": 89}, {"time": 2105, "pitch": 57, "duration": 6, "velocity": 89}, {"time": 2108, "pitch": 61, "duration": 4, "velocity": 90}, {"time": 2111, "pitch": 66, "duration": 5, "velocity": 82}, {"time": 2114, "pitch": 47, "duration": 25, "velocity": 92}, {"time": 2117, "pitch": 54, "duration": 11, "velocity": 75}, {"time": 2120, "pitch": 59, "duration": 6, "velocity": 90}, {"time": 2123, "pitch": 63, "duration": 4, "velocity": 93}, {"time": 2126, "pitch": 51, "duration": 4, "velocity": 75}, {"time": 2126, "pitch": 66, "duration": 10, "velocity": 93}, {"time": 2132, "pitch": 54, "duration": 7, "velocity": 75}, {"time": 2135, "pitch": 59, "duration": 4, "velocity": 89}, {"time": 2138, "pitch": 35, "duration": 13, "velocity": 91}, {"time": 2138, "pitch": 54, "duration": 1, "velocity": 90}, {"time": 2138, "pitch": 59, "duration": 1, "velocity": 83}, {"time": 2144, "pitch": 54, "duration": 3, "velocity": 86}, {"time": 2150, "pitch": 54, "duration": 5, "velocity": 92}, {"time": 2150, "pitch": 59, "duration": 5, "velocity": 93}, {"time": 2150, "pitch": 63, "duration": 4, "velocity": 94}, {"time": 2159, "pitch": 54, "duration": 4, "velocity": 90}, {"time": 2159, "pitch": 59, "duration": 4, "velocity": 91}, {"time": 2159, "pitch": 63, "duration": 4, "velocity": 94}, {"time": 2162, "pitch": 47, "duration": 17, "velocity": 91}, {"time": 2165, "pitch": 54, "duration": 10, "velocity": 79}, {"time": 2168, "pitch": 59, "duration": 2, "velocity": 86}, {"time": 2171, "pitch": 59, "duration": 1, "velocity": 91}, {"time": 2171, "pitch": 63, "duration": 1, "velocity": 93}, {"time": 2174, "pitch": 59, "duration": 4, "velocity": 96}, {"time": 2174, "pitch": 63, "duration": 4, "velocity": 106}, {"time": 2174, "pitch": 66, "duration": 1, "velocity": 89}, {"time": 2177, "pitch": 54, "duration": 2, "velocity": 86}, {"time": 2180, "pitch": 59, "duration": 5, "velocity": 91}, {"time": 2186, "pitch": 35, "duration": 2, "velocity": 90}, {"time": 2186, "pitch": 59, "duration": 6, "velocity": 86}, {"time": 2186, "pitch": 63, "duration": 5, "velocity": 84}, {"time": 2186, "pitch": 66, "duration": 5, "velocity": 88}, {"time": 2198, "pitch": 59, "duration": 2, "velocity": 90}, {"time": 2198, "pitch": 66, "duration": 2, "velocity": 90}, {"time": 2204, "pitch": 54, "duration": 1, "velocity": 65}, {"time": 2207, "pitch": 59, "duration": 3, "velocity": 94}, {"time": 2207, "pitch": 71, "duration": 2, "velocity": 92}, {"time": 2210, "pitch": 47, "duration": 1, "velocity": 82}, {"time": 2213, "pitch": 59, "duration": 3, "velocity": 93}, {"time": 2213, "pitch": 63, "duration": 3, "velocity": 101}, {"time": 2213, "pitch": 66, "duration": 3, "velocity": 92}, {"time": 2216, "pitch": 54, "duration": 1, "velocity": 64}, {"time": 2219, "pitch": 59, "duration": 2, "velocity": 90}, {"time": 2222, "pitch": 47, "duration": 5, "velocity": 96}, {"time": 2222, "pitch": 54, "duration": 5, "velocity": 93}, {"time": 2222, "pitch": 59, "duration": 4, "velocity": 92}, {"time": 2222, "pitch": 63, "duration": 5, "velocity": 104}, {"time": 2222, "pitch": 66, "duration": 5, "velocity": 92}, {"time": 2228, "pitch": 59, "duration": 3, "velocity": 87}, {"time": 2234, "pitch": 35, "duration": 1, "velocity": 90}, {"time": 2234, "pitch": 59, "duration": 4, "velocity": 87}, {"time": 2234, "pitch": 63, "duration": 3, "velocity": 90}, {"time": 2246, "pitch": 54, "duration": 2, "velocity": 93}, {"time": 2246, "pitch": 59, "duration": 2, "velocity": 91}, {"time": 2255, "pitch": 54, "duration": 2, "velocity": 89}, {"time": 2255, "pitch": 63, "duration": 2, "velocity": 92}, {"time": 2264, "pitch": 54, "duration": 6, "velocity": 92}, {"time": 2264, "pitch": 59, "duration": 6, "velocity": 94}, {"time": 2270, "pitch": 47, "duration": 1, "velocity": 82}, {"time": 2273, "pitch": 54, "duration": 2, "velocity": 95}, {"time": 2273, "pitch": 59, "duration": 4, "velocity": 101}, {"time": 2282, "pitch": 35, "duration": 2, "velocity": 90}, {"time": 2282, "pitch": 54, "duration": 9, "velocity": 90}, {"time": 2282, "pitch": 59, "duration": 8, "velocity": 88}, {"time": 2291, "pitch": 47, "duration": 3, "velocity": 57}, {"time": 2294, "pitch": 54, "duration": 3, "velocity": 92}, {"time": 2294, "pitch": 59, "duration": 5, "velocity": 94}, {"time": 2294, "pitch": 63, "duration": 7, "velocity": 95}, {"time": 2300, "pitch": 54, "duration": 2, "velocity": 90}, {"time": 2306, "pitch": 44, "duration": 19, "velocity": 92}, {"time": 2306, "pitch": 56, "duration": 4, "velocity": 96}, {"time": 2306, "pitch": 60, "duration": 4, "velocity": 91}, {"time": 2309, "pitch": 51, "duration": 10, "velocity": 87}, {"time": 2312, "pitch": 56, "duration": 2, "velocity": 81}, {"time": 2315, "pitch": 60, "duration": 1, "velocity": 74}, {"time": 2315, "pitch": 63, "duration": 1, "velocity": 87}, {"time": 2318, "pitch": 56, "duration": 4, "velocity": 93}, {"time": 2318, "pitch": 60, "duration": 4, "velocity": 93}, {"time": 2318, "pitch": 63, "duration": 5, "velocity": 94}, {"time": 2321, "pitch": 51, "duration": 5, "velocity": 90}, {"time": 2324, "pitch": 56, "duration": 6, "velocity": 96}, {"time": 2327, "pitch": 51, "duration": 2, "velocity": 56}, {"time": 2330, "pitch": 49, "duration": 23, "velocity": 90}, {"time": 2336, "pitch": 56, "duration": 17, "velocity": 76}, {"time": 2339, "pitch": 61, "duration": 7, "velocity": 88}, {"time": 2345, "pitch": 68, "duration": 9, "velocity": 88}, {"time": 2348, "pitch": 61, "duration": 8, "velocity": 84}, {"time": 2351, "pitch": 73, "duration": 12, "velocity": 84}, {"time": 2354, "pitch": 49, "duration": 18, "velocity": 87}, {"time": 2357, "pitch": 56, "duration": 10, "velocity": 77}, {"time": 2360, "pitch": 61, "duration": 10, "velocity": 86}, {"time": 2363, "pitch": 68, "duration": 13, "velocity": 81}, {"time": 2369, "pitch": 56, "duration": 3, "velocity": 76}, {"time": 2372, "pitch": 61, "duration": 4, "velocity": 89}, {"time": 2375, "pitch": 73, "duration": 4, "velocity": 81}, {"time": 2378, "pitch": 42, "duration": 21, "velocity": 82}, {"time": 2381, "pitch": 49, "duration": 19, "velocity": 74}, {"time": 2384, "pitch": 54, "duration": 13, "velocity": 82}, {"time": 2387, "pitch": 61, "duration": 8, "velocity": 84}, {"time": 2396, "pitch": 57, "duration": 4, "velocity": 76}, {"time": 2399, "pitch": 61, "duration": 10, "velocity": 84}, {"time": 2402, "pitch": 42, "duration": 18, "velocity": 93}, {"time": 2405, "pitch": 49, "duration": 15, "velocity": 78}, {"time": 2408, "pitch": 54, "duration": 11, "velocity": 88}, {"time": 2411, "pitch": 66, "duration": 11, "velocity": 84}, {"time": 2420, "pitch": 61, "duration": 6, "velocity": 78}, {"time": 2423, "pitch": 54, "duration": 3, "velocity": 85}, {"time": 2426, "pitch": 45, "duration": 22, "velocity": 89}, {"time": 2429, "pitch": 52, "duration": 19, "velocity": 82}, {"time": 2432, "pitch": 61, "duration": 4, "velocity": 77}, {"time": 2435, "pitch": 57, "duration": 7, "velocity": 84}, {"time": 2441, "pitch": 64, "duration": 7, "velocity": 83}, {"time": 2444, "pitch": 57, "duration": 9, "velocity": 88}, {"time": 2447, "pitch": 61, "duration": 8, "velocity": 81}, {"time": 2450, "pitch": 45, "duration": 18, "velocity": 89}, {"time": 2453, "pitch": 52, "duration": 15, "velocity": 81}, {"time": 2456, "pitch": 57, "duration": 10, "velocity": 82}, {"time": 2459, "pitch": 61, "duration": 10, "velocity": 76}, {"time": 2465, "pitch": 64, "duration": 4, "velocity": 32}, {"time": 2465, "pitch": 69, "duration": 10, "velocity": 87}, {"time": 2468, "pitch": 57, "duration": 5, "velocity": 87}, {"time": 2471, "pitch": 61, "duration": 3, "velocity": 83}, {"time": 2474, "pitch": 47, "duration": 44, "velocity": 89}, {"time": 2477, "pitch": 59, "duration": 4, "velocity": 84}, {"time": 2480, "pitch": 63, "duration": 4, "velocity": 87}, {"time": 2483, "pitch": 59, "duration": 4, "velocity": 81}, {"time": 2486, "pitch": 54, "duration": 22, "velocity": 77}, {"time": 2489, "pitch": 59, "duration": 3, "velocity": 91}, {"time": 2492, "pitch": 66, "duration": 5, "velocity": 88}, {"time": 2495, "pitch": 59, "duration": 4, "velocity": 88}, {"time": 2498, "pitch": 66, "duration": 2, "velocity": 61}, {"time": 2498, "pitch": 71, "duration": 9, "velocity": 90}, {"time": 2501, "pitch": 59, "duration": 4, "velocity": 89}, {"time": 2504, "pitch": 63, "duration": 4, "velocity": 77}, {"time": 2507, "pitch": 59, "duration": 6, "velocity": 89}, {"time": 2510, "pitch": 51, "duration": 4, "velocity": 71}, {"time": 2513, "pitch": 54, "duration": 3, "velocity": 85}, {"time": 2516, "pitch": 59, "duration": 5, "velocity": 93}, {"time": 2519, "pitch": 63, "duration": 3, "velocity": 85}, {"time": 2522, "pitch": 52, "duration": 20, "velocity": 92}, {"time": 2525, "pitch": 59, "duration": 17, "velocity": 81}, {"time": 2528, "pitch": 64, "duration": 11, "velocity": 90}, {"time": 2531, "pitch": 68, "duration": 13, "velocity": 89}, {"time": 2540, "pitch": 56, "duration": 2, "velocity": 85}, {"time": 2543, "pitch": 64, "duration": 7, "velocity": 95}, {"time": 2546, "pitch": 40, "duration": 16, "velocity": 83}, {"time": 2549, "pitch": 47, "duration": 13, "velocity": 82}, {"time": 2552, "pitch": 64, "duration": 9, "velocity": 94}, {"time": 2555, "pitch": 68, "duration": 7, "velocity": 89}, {"time": 2561, "pitch": 71, "duration": 7, "velocity": 89}, {"time": 2564, "pitch": 64, "duration": 6, "velocity": 82}, {"time": 2567, "pitch": 68, "duration": 4, "velocity": 78}, {"time": 2570, "pitch": 42, "duration": 21, "velocity": 91}, {"time": 2573, "pitch": 49, "duration": 18, "velocity": 73}, {"time": 2576, "pitch": 54, "duration": 10, "velocity": 85}, {"time": 2579, "pitch": 57, "duration": 7, "velocity": 83}, {"time": 2585, "pitch": 66, "duration": 6, "velocity": 88}, {"time": 2588, "pitch": 54, "duration": 8, "velocity": 86}, {"time": 2591, "pitch": 57, "duration": 7, "velocity": 83}, {"time": 2594, "pitch": 42, "duration": 16, "velocity": 90}, {"time": 2597, "pitch": 49, "duration": 13, "velocity": 82}, {"time": 2600, "pitch": 54, "duration": 7, "velocity": 90}, {"time": 2603, "pitch": 57, "duration": 4, "velocity": 86}, {"time": 2609, "pitch": 54, "duration": 1, "velocity": 69}, {"time": 2609, "pitch": 57, "duration": 4, "velocity": 89}, {"time": 2609, "pitch": 66, "duration": 6, "velocity": 84}, {"time": 2612, "pitch": 54, "duration": 2, "velocity": 89}, {"time": 2618, "pitch": 45, "duration": 22, "velocity": 89}, {"time": 2618, "pitch": 57, "duration": 6, "velocity": 82}, {"time": 2618, "pitch": 61, "duration": 7, "velocity": 75}, {"time": 2624, "pitch": 52, "duration": 16, "velocity": 87}, {"time": 2627, "pitch": 57, "duration": 3, "velocity": 82}, {"time": 2630, "pitch": 64, "duration": 6, "velocity": 83}, {"time": 2633, "pitch": 57, "duration": 6, "velocity": 84}, {"time": 2636, "pitch": 61, "duration": 4, "velocity": 88}, {"time": 2639, "pitch": 64, "duration": 7, "velocity": 84}, {"time": 2642, "pitch": 45, "duration": 22, "velocity": 89}, {"time": 2645, "pitch": 57, "duration": 4, "velocity": 88}, {"time": 2648, "pitch": 61, "duration": 4, "velocity": 88}, {"time": 2651, "pitch": 64, "duration": 4, "velocity": 84}, {"time": 2654, "pitch": 69, "duration": 4, "velocity": 89}, {"time": 2657, "pitch": 64, "duration": 5, "velocity": 88}, {"time": 2660, "pitch": 61, "duration": 3, "velocity": 86}, {"time": 2663, "pitch": 57, "duration": 3, "velocity": 88}, {"time": 2666, "pitch": 47, "duration": 21, "velocity": 92}, {"time": 2672, "pitch": 59, "duration": 4, "velocity": 88}, {"time": 2678, "pitch": 59, "duration": 3, "velocity": 89}, {"time": 2678, "pitch": 63, "duration": 7, "velocity": 91}, {"time": 2678, "pitch": 66, "duration": 7, "velocity": 83}, {"time": 2684, "pitch": 59, "duration": 5, "velocity": 88}, {"time": 2690, "pitch": 47, "duration": 23, "velocity": 88}, {"time": 2690, "pitch": 59, "duration": 7, "velocity": 81}, {"time": 2690, "pitch": 63, "duration": 7, "velocity": 83}, {"time": 2690, "pitch": 66, "duration": 9, "velocity": 80}, {"time": 2690, "pitch": 71, "duration": 8, "velocity": 87}, {"time": 2696, "pitch": 54, "duration": 17, "velocity": 76}, {"time": 2699, "pitch": 59, "duration": 4, "velocity": 88}, {"time": 2702, "pitch": 63, "duration": 4, "velocity": 89}, {"time": 2705, "pitch": 59, "duration": 4, "velocity": 88}, {"time": 2708, "pitch": 66, "duration": 4, "velocity": 81}, {"time": 2714, "pitch": 45, "duration": 14, "velocity": 90}, {"time": 2714, "pitch": 52, "duration": 5, "velocity": 84}, {"time": 2714, "pitch": 57, "duration": 8, "velocity": 74}, {"time": 2720, "pitch": 52, "duration": 7, "velocity": 86}, {"time": 2726, "pitch": 57, "duration": 2, "velocity": 88}, {"time": 2726, "pitch": 61, "duration": 2, "velocity": 90}, {"time": 2738, "pitch": 44, "duration": 15, "velocity": 75}, {"time": 2738, "pitch": 56, "duration": 5, "velocity": 76}, {"time": 2738, "pitch": 59, "duration": 10, "velocity": 82}, {"time": 2750, "pitch": 56, "duration": 2, "velocity": 78}, {"time": 2750, "pitch": 59, "duration": 3, "velocity": 86}, {"time": 2750, "pitch": 64, "duration": 5, "velocity": 88}, {"time": 2762, "pitch": 47, "duration": 39, "velocity": 86}, {"time": 2762, "pitch": 54, "duration": 7, "velocity": 71}, {"time": 2762, "pitch": 59, "duration": 7, "velocity": 77}, {"time": 2774, "pitch": 54, "duration": 2, "velocity": 84}, {"time": 2774, "pitch": 59, "duration": 3, "velocity": 86}, {"time": 2774, "pitch": 63, "duration": 3, "velocity": 91}, {"time": 2786, "pitch": 54, "duration": 3, "velocity": 75}, {"time": 2786, "pitch": 59, "duration": 4, "velocity": 77}, {"time": 2792, "pitch": 54, "duration": 3, "velocity": 73}, {"time": 2798, "pitch": 54, "duration": 3, "velocity": 90}, {"time": 2798, "pitch": 61, "duration": 6, "velocity": 90}, {"time": 2804, "pitch": 54, "duration": 2, "velocity": 79}, {"time": 2810, "pitch": 45, "duration": 10, "velocity": 80}, {"time": 2810, "pitch": 52, "duration": 4, "velocity": 83}, {"time": 2810, "pitch": 57, "duration": 6, "velocity": 77}, {"time": 2810, "pitch": 61, "duration": 6, "velocity": 88}, {"time": 2822, "pitch": 52, "duration": 3, "velocity": 90}, {"time": 2822, "pitch": 57, "duration": 4, "velocity": 91}, {"time": 2822, "pitch": 61, "duration": 5, "velocity": 91}, {"time": 2834, "pitch": 44, "duration": 19, "velocity": 83}, {"time": 2834, "pitch": 56, "duration": 4, "velocity": 81}, {"time": 2834, "pitch": 59, "duration": 10, "velocity": 84}, {"time": 2846, "pitch": 56, "duration": 4, "velocity": 84}, {"time": 2846, "pitch": 59, "duration": 4, "velocity": 89}, {"time": 2858, "pitch": 47, "duration": 39, "velocity": 88}, {"time": 2858, "pitch": 54, "duration": 4, "velocity": 86}, {"time": 2858, "pitch": 59, "duration": 10, "velocity": 86}, {"time": 2870, "pitch": 54, "duration": 3, "velocity": 90}, {"time": 2870, "pitch": 59, "duration": 5, "velocity": 90}, {"time": 2882, "pitch": 54, "duration": 3, "velocity": 79}, {"time": 2882, "pitch": 59, "duration": 10, "velocity": 76}, {"time": 2888, "pitch": 54, "duration": 4, "velocity": 82}, {"time": 2894, "pitch": 54, "duration": 7, "velocity": 92}, {"time": 2894, "pitch": 61, "duration": 7, "velocity": 91}, {"time": 2900, "pitch": 59, "duration": 5, "velocity": 90}, {"time": 2906, "pitch": 35, "duration": 1, "velocity": 90}, {"time": 2906, "pitch": 54, "duration": 3, "velocity": 91}, {"time": 2906, "pitch": 59, "duration": 4, "velocity": 91}, {"time": 2906, "pitch": 63, "duration": 6, "velocity": 92}, {"time": 2912, "pitch": 47, "duration": 17, "velocity": 90}, {"time": 2918, "pitch": 54, "duration": 10, "velocity": 96}, {"time": 2921, "pitch": 59, "duration": 4, "velocity": 94}, {"time": 2924, "pitch": 63, "duration": 4, "velocity": 92}, {"time": 2927, "pitch": 59, "duration": 2, "velocity": 76}, {"time": 2930, "pitch": 47, "duration": 24, "velocity": 101}, {"time": 2930, "pitch": 54, "duration": 14, "velocity": 95}, {"time": 2930, "pitch": 59, "duration": 3, "velocity": 91}, {"time": 2930, "pitch": 63, "duration": 5, "velocity": 99}, {"time": 2936, "pitch": 59, "duration": 2, "velocity": 93}, {"time": 2942, "pitch": 59, "duration": 4, "velocity": 90}, {"time": 2942, "pitch": 63, "duration": 4, "velocity": 99}, {"time": 2942, "pitch": 66, "duration": 4, "velocity": 93}, {"time": 2945, "pitch": 54, "duration": 9, "velocity": 91}, {"time": 2948, "pitch": 59, "duration": 4, "velocity": 101}, {"time": 2951, "pitch": 63, "duration": 2, "velocity": 95}, {"time": 2954, "pitch": 52, "duration": 22, "velocity": 90}, {"time": 2954, "pitch": 68, "duration": 3, "velocity": 89}, {"time": 2957, "pitch": 59, "duration": 20, "velocity": 82}, {"time": 2957, "pitch": 64, "duration": 4, "velocity": 84}, {"time": 2960, "pitch": 68, "duration": 3, "velocity": 80}, {"time": 2963, "pitch": 64, "duration": 3, "velocity": 82}, {"time": 2966, "pitch": 64, "duration": 4, "velocity": 82}, {"time": 2966, "pitch": 71, "duration": 6, "velocity": 86}, {"time": 2972, "pitch": 68, "duration": 4, "velocity": 87}, {"time": 2975, "pitch": 64, "duration": 4, "velocity": 88}, {"time": 2978, "pitch": 52, "duration": 16, "velocity": 93}, {"time": 2978, "pitch": 76, "duration": 5, "velocity": 90}, {"time": 2981, "pitch": 64, "duration": 4, "velocity": 93}, {"time": 2984, "pitch": 68, "duration": 3, "velocity": 82}, {"time": 2987, "pitch": 64, "duration": 2, "velocity": 88}, {"time": 2990, "pitch": 59, "duration": 4, "velocity": 85}, {"time": 2990, "pitch": 64, "duration": 1, "velocity": 83}, {"time": 2990, "pitch": 68, "duration": 3, "velocity": 89}, {"time": 2990, "pitch": 71, "duration": 6, "velocity": 88}, {"time": 2993, "pitch": 64, "duration": 3, "velocity": 88}, {"time": 2996, "pitch": 68, "duration": 4, "velocity": 85}, {"time": 2999, "pitch": 64, "duration": 3, "velocity": 86}, {"time": 3002, "pitch": 49, "duration": 21, "velocity": 86}, {"time": 3002, "pitch": 68, "duration": 6, "velocity": 82}, {"time": 3005, "pitch": 56, "duration": 20, "velocity": 74}, {"time": 3008, "pitch": 64, "duration": 5, "velocity": 95}, {"time": 3011, "pitch": 68, "duration": 4, "velocity": 90}, {"time": 3014, "pitch": 73, "duration": 4, "velocity": 89}, {"time": 3017, "pitch": 64, "duration": 7, "velocity": 95}, {"time": 3020, "pitch": 68, "duration": 4, "velocity": 92}, {"time": 3023, "pitch": 73, "duration": 4, "velocity": 82}, {"time": 3026, "pitch": 49, "duration": 15, "velocity": 94}, {"time": 3026, "pitch": 68, "duration": 7, "velocity": 86}, {"time": 3029, "pitch": 56, "duration": 12, "velocity": 83}, {"time": 3032, "pitch": 64, "duration": 5, "velocity": 90}, {"time": 3035, "pitch": 68, "duration": 3, "velocity": 88}, {"time": 3038, "pitch": 73, "duration": 5, "velocity": 94}, {"time": 3041, "pitch": 64, "duration": 4, "velocity": 90}, {"time": 3044, "pitch": 68, "duration": 3, "velocity": 89}, {"time": 3047, "pitch": 64, "duration": 3, "velocity": 84}, {"time": 3050, "pitch": 45, "duration": 22, "velocity": 88}, {"time": 3050, "pitch": 69, "duration": 6, "velocity": 79}, {"time": 3053, "pitch": 52, "duration": 19, "velocity": 82}, {"time": 3056, "pitch": 64, "duration": 4, "velocity": 91}, {"time": 3059, "pitch": 69, "duration": 3, "velocity": 81}, {"time": 3062, "pitch": 71, "duration": 4, "velocity": 88}, {"time": 3065, "pitch": 69, "duration": 3, "velocity": 84}, {"time": 3068, "pitch": 64, "duration": 5, "velocity": 89}, {"time": 3071, "pitch": 69, "duration": 4, "velocity": 79}, {"time": 3074, "pitch": 45, "duration": 20, "velocity": 89}, {"time": 3074, "pitch": 73, "duration": 7, "velocity": 88}, {"time": 3077, "pitch": 52, "duration": 17, "velocity": 83}, {"time": 3080, "pitch": 64, "duration": 5, "velocity": 91}, {"time": 3083, "pitch": 69, "duration": 4, "velocity": 84}, {"time": 3086, "pitch": 71, "duration": 4, "velocity": 84}, {"time": 3089, "pitch": 69, "duration": 3, "velocity": 90}, {"time": 3092, "pitch": 64, "duration": 5, "velocity": 82}, {"time": 3095, "pitch": 69, "duration": 4, "velocity": 71}, {"time": 3098, "pitch": 47, "duration": 22, "velocity": 89}, {"time": 3098, "pitch": 71, "duration": 9, "velocity": 84}, {"time": 3101, "pitch": 54, "duration": 10, "velocity": 45}, {"time": 3104, "pitch": 59, "duration": 6, "velocity": 84}, {"time": 3107, "pitch": 63, "duration": 3, "velocity": 88}, {"time": 3110, "pitch": 66, "duration": 6, "velocity": 105}, {"time": 3113, "pitch": 54, "duration": 7, "velocity": 83}, {"time": 3116, "pitch": 59, "duration": 5, "velocity": 94}, {"time": 3119, "pitch": 63, "duration": 2, "velocity": 92}, {"time": 3122, "pitch": 47, "duration": 18, "velocity": 90}, {"time": 3122, "pitch": 63, "duration": 2, "velocity": 81}, {"time": 3122, "pitch": 71, "duration": 8, "velocity": 88}, {"time": 3125, "pitch": 54, "duration": 10, "velocity": 82}, {"time": 3128, "pitch": 59, "duration": 6, "velocity": 92}, {"time": 3131, "pitch": 63, "duration": 2, "velocity": 92}, {"time": 3134, "pitch": 66, "duration": 5, "velocity": 94}, {"time": 3137, "pitch": 54, "duration": 3, "velocity": 83}, {"time": 3140, "pitch": 59, "duration": 4, "velocity": 89}, {"time": 3143, "pitch": 63, "duration": 2, "velocity": 88}, {"time": 3146, "pitch": 52, "duration": 22, "velocity": 93}, {"time": 3146, "pitch": 68, "duration": 6, "velocity": 90}, {"time": 3149, "pitch": 59, "duration": 20, "velocity": 83}, {"time": 3152, "pitch": 64, "duration": 6, "velocity": 87}, {"time": 3155, "pitch": 68, "duration": 2, "velocity": 92}, {"time": 3158, "pitch": 71, "duration": 4, "velocity": 83}, {"time": 3161, "pitch": 64, "duration": 6, "velocity": 89}, {"time": 3164, "pitch": 68, "duration": 4, "velocity": 90}, {"time": 3167, "pitch": 71, "duration": 3, "velocity": 83}, {"time": 3170, "pitch": 52, "duration": 19, "velocity": 93}, {"time": 3170, "pitch": 76, "duration": 7, "velocity": 90}, {"time": 3173, "pitch": 59, "duration": 11, "velocity": 76}, {"time": 3176, "pitch": 64, "duration": 5, "velocity": 90}, {"time": 3179, "pitch": 68, "duration": 2, "velocity": 89}, {"time": 3182, "pitch": 64, "duration": 4, "velocity": 88}, {"time": 3182, "pitch": 68, "duration": 5, "velocity": 88}, {"time": 3182, "pitch": 71, "duration": 8, "velocity": 88}, {"time": 3185, "pitch": 59, "duration": 5, "velocity": 82}, {"time": 3188, "pitch": 64, "duration": 5, "velocity": 89}, {"time": 3191, "pitch": 68, "duration": 3, "velocity": 93}, {"time": 3194, "pitch": 49, "duration": 22, "velocity": 92}, {"time": 3197, "pitch": 56, "duration": 20, "velocity": 77}, {"time": 3200, "pitch": 61, "duration": 6, "velocity": 83}, {"time": 3203, "pitch": 64, "duration": 4, "velocity": 86}, {"time": 3206, "pitch": 68, "duration": 4, "velocity": 86}, {"time": 3209, "pitch": 61, "duration": 7, "velocity": 85}, {"time": 3212, "pitch": 64, "duration": 5, "velocity": 78}, {"time": 3215, "pitch": 68, "duration": 8, "velocity": 76}, {"time": 3218, "pitch": 49, "duration": 17, "velocity": 85}, {"time": 3221, "pitch": 56, "duration": 11, "velocity": 74}, {"time": 3224, "pitch": 61, "duration": 5, "velocity": 89}, {"time": 3227, "pitch": 64, "duration": 2, "velocity": 77}, {"time": 3230, "pitch": 61, "duration": 4, "velocity": 82}, {"time": 3230, "pitch": 64, "duration": 6, "velocity": 92}, {"time": 3230, "pitch": 68, "duration": 6, "velocity": 89}, {"time": 3233, "pitch": 56, "duration": 2, "velocity": 81}, {"time": 3236, "pitch": 61, "duration": 5, "velocity": 89}, {"time": 3239, "pitch": 64, "duration": 3, "velocity": 84}, {"time": 3242, "pitch": 45, "duration": 22, "velocity": 89}, {"time": 3245, "pitch": 52, "duration": 19, "velocity": 81}, {"time": 3248, "pitch": 57, "duration": 7, "velocity": 89}, {"time": 3251, "pitch": 61, "duration": 4, "velocity": 89}, {"time": 3254, "pitch": 64, "duration": 4, "velocity": 88}, {"time": 3257, "pitch": 69, "duration": 7, "velocity": 89}, {"time": 3260, "pitch": 57, "duration": 9, "velocity": 88}, {"time": 3263, "pitch": 61, "duration": 9, "velocity": 95}, {"time": 3266, "pitch": 45, "duration": 18, "velocity": 89}, {"time": 3266, "pitch": 64, "duration": 10, "velocity": 88}, {"time": 3269, "pitch": 52, "duration": 14, "velocity": 77}, {"time": 3272, "pitch": 57, "duration": 8, "velocity": 82}, {"time": 3275, "pitch": 61, "duration": 6, "velocity": 90}, {"time": 3278, "pitch": 64, "duration": 5, "velocity": 89}, {"time": 3281, "pitch": 69, "duration": 7, "velocity": 88}, {"time": 3284, "pitch": 57, "duration": 5, "velocity": 82}, {"time": 3287, "pitch": 61, "duration": 8, "velocity": 90}, {"time": 3290, "pitch": 42, "duration": 15, "velocity": 89}, {"time": 3293, "pitch": 49, "duration": 12, "velocity": 75}, {"time": 3296, "pitch": 57, "duration": 6, "velocity": 84}, {"time": 3299, "pitch": 61, "duration": 4, "velocity": 94}, {"time": 3302, "pitch": 66, "duration": 6, "velocity": 89}, {"time": 3305, "pitch": 57, "duration": 6, "velocity": 89}, {"time": 3308, "pitch": 61, "duration": 4, "velocity": 90}, {"time": 3311, "pitch": 66, "duration": 5, "velocity": 82}, {"time": 3314, "pitch": 47, "duration": 25, "velocity": 92}, {"time": 3317, "pitch": 54, "duration": 11, "velocity": 75}, {"time": 3320, "pitch": 59, "duration": 6, "velocity": 90}, {"time": 3323, "pitch": 63, "duration": 4, "velocity": 93}, {"time": 3326, "pitch": 51, "duration": 4, "velocity": 75}, {"time": 3326, "pitch": 66, "duration": 10, "velocity": 93}, {"time": 3332, "pitch": 54, "duration": 7, "velocity": 75}, {"time": 3335, "pitch": 59, "duration": 4, "velocity": 89}, {"time": 3338, "pitch": 52, "duration": 22, "velocity": 90}, {"time": 3338, "pitch": 68, "duration": 3, "velocity": 89}, {"time": 3341, "pitch": 59, "duration": 20, "velocity": 82}, {"time": 3341, "pitch": 64, "duration": 4, "velocity": 84}, {"time": 3344, "pitch": 68, "duration": 3, "velocity": 80}, {"time": 3347, "pitch": 64, "duration": 3, "velocity": 82}, {"time": 3350, "pitch": 64, "duration": 4, "velocity": 82}, {"time": 3350, "pitch": 71, "duration": 6, "velocity": 86}, {"time": 3356, "pitch": 68, "duration": 4, "velocity": 87}, {"time": 3359, "pitch": 64, "duration": 4, "velocity": 88}, {"time": 3362, "pitch": 52, "duration": 16, "velocity": 93}, {"time": 3362, "pitch": 76, "duration": 5, "velocity": 90}, {"time": 3365, "pitch": 64, "duration": 4, "velocity": 93}, {"time": 3368, "pitch": 68, "duration": 3, "velocity": 82}, {"time": 3371, "pitch": 64, "duration": 2, "velocity": 88}, {"time": 3374, "pitch": 59, "duration": 4, "velocity": 85}, {"time": 3374, "pitch": 64, "duration": 1, "velocity": 83}, {"time": 3374, "pitch": 68, "duration": 3, "velocity": 89}, {"time": 3374, "pitch": 71, "duration": 6, "velocity": 88}, {"time": 3377, "pitch": 64, "duration": 3, "velocity": 88}, {"time": 3380, "pitch": 68, "duration": 4, "velocity": 85}, {"time": 3383, "pitch": 64, "duration": 3, "velocity": 86}, {"time": 3386, "pitch": 49, "duration": 21, "velocity": 86}, {"time": 3386, "pitch": 68, "duration": 6, "velocity": 82}, {"time": 3389, "pitch": 56, "duration": 20, "velocity": 74}, {"time": 3392, "pitch": 64, "duration": 5, "velocity": 95}, {"time": 3395, "pitch": 68, "duration": 4, "velocity": 90}, {"time": 3398, "pitch": 73, "duration": 4, "velocity": 89}, {"time": 3401, "pitch": 64, "duration": 7, "velocity": 95}, {"time": 3404, "pitch": 68, "duration": 4, "velocity": 92}, {"time": 3407, "pitch": 73, "duration": 4, "velocity": 82}, {"time": 3410, "pitch": 49, "duration": 15, "velocity": 94}, {"time": 3410, "pitch": 68, "duration": 7, "velocity": 86}, {"time": 3413, "pitch": 56, "duration": 12, "velocity": 83}, {"time": 3416, "pitch": 64, "duration": 5, "velocity": 90}, {"time": 3419, "pitch": 68, "duration": 3, "velocity": 88}, {"time": 3422, "pitch": 73, "duration": 5, "velocity": 94}, {"time": 3425, "pitch": 64, "duration": 4, "velocity": 90}, {"time": 3428, "pitch": 68, "duration": 3, "velocity": 89}, {"time": 3431, "pitch": 64, "duration": 3, "velocity": 84}, {"time": 3434, "pitch": 45, "duration": 22, "velocity": 88}, {"time": 3434, "pitch": 69, "duration": 6, "velocity": 79}, {"time": 3437, "pitch": 52, "duration": 19, "velocity": 82}, {"time": 3440, "pitch": 64, "duration": 4, "velocity": 91}, {"time": 3443, "pitch": 69, "duration": 3, "velocity": 81}, {"time": 3446, "pitch": 71, "duration": 4, "velocity": 88}, {"time": 3449, "pitch": 69, "duration": 3, "velocity": 84}, {"time": 3452, "pitch": 64, "duration": 5, "velocity": 89}, {"time": 3455, "pitch": 69, "duration": 4, "velocity": 79}, {"time": 3458, "pitch": 45, "duration": 20, "velocity": 89}, {"time": 3458, "pitch": 73, "duration": 7, "velocity": 88}, {"time": 3461, "pitch": 52, "duration": 17, "velocity": 83}, {"time": 3464, "pitch": 64, "duration": 5, "velocity": 91}, {"time": 3467, "pitch": 69, "duration": 4, "velocity": 84}, {"time": 3470, "pitch": 71, "duration": 4, "velocity": 84}, {"time": 3473, "pitch": 69, "duration": 3, "velocity": 90}, {"time": 3476, "pitch": 64, "duration": 5, "velocity": 82}, {"time": 3479, "pitch": 69, "duration": 4, "velocity": 71}, {"time": 3482, "pitch": 47, "duration": 22, "velocity": 89}, {"time": 3482, "pitch": 71, "duration": 9, "velocity": 84}, {"time": 3485, "pitch": 54, "duration": 10, "velocity": 45}, {"time": 3488, "pitch": 59, "duration": 6, "velocity": 84}, {"time": 3491, "pitch": 63, "duration": 3, "velocity": 88}, {"time": 3494, "pitch": 66, "duration": 6, "velocity": 105}, {"time": 3497, "pitch": 54, "duration": 7, "velocity": 83}, {"time": 3500, "pitch": 59, "duration": 5, "velocity": 94}, {"time": 3503, "pitch": 63, "duration": 2, "velocity": 92}, {"time": 3506, "pitch": 47, "duration": 18, "velocity": 90}, {"time": 3506, "pitch": 63, "duration": 2, "velocity": 81}, {"time": 3506, "pitch": 71, "duration": 8, "velocity": 88}, {"time": 3509, "pitch": 54, "duration": 10, "velocity": 82}, {"time": 3512, "pitch": 59, "duration": 6, "velocity": 92}, {"time": 3515, "pitch": 63, "duration": 2, "velocity": 92}, {"time": 3518, "pitch": 66, "duration": 5, "velocity": 94}, {"time": 3521, "pitch": 54, "duration": 3, "velocity": 83}, {"time": 3524, "pitch": 59, "duration": 4, "velocity": 89}, {"time": 3527, "pitch": 63, "duration": 2, "velocity": 88}, {"time": 3530, "pitch": 52, "duration": 22, "velocity": 93}, {"time": 3530, "pitch": 68, "duration": 6, "velocity": 90}, {"time": 3533, "pitch": 59, "duration": 20, "velocity": 83}, {"time": 3536, "pitch": 64, "duration": 6, "velocity": 87}, {"time": 3539, "pitch": 68, "duration": 2, "velocity": 92}, {"time": 3542, "pitch": 71, "duration": 4, "velocity": 83}, {"time": 3545, "pitch": 64, "duration": 6, "velocity": 89}, {"time": 3548, "pitch": 68, "duration": 4, "velocity": 90}, {"time": 3551, "pitch": 71, "duration": 3, "velocity": 83}, {"time": 3554, "pitch": 52, "duration": 19, "velocity": 93}, {"time": 3554, "pitch": 76, "duration": 7, "velocity": 90}, {"time": 3557, "pitch": 59, "duration": 11, "velocity": 76}, {"time": 3560, "pitch": 64, "duration": 5, "velocity": 90}, {"time": 3563, "pitch": 68, "duration": 2, "velocity": 89}, {"time": 3566, "pitch": 64, "duration": 4, "velocity": 88}, {"time": 3566, "pitch": 68, "duration": 5, "velocity": 88}, {"time": 3566, "pitch": 71, "duration": 8, "velocity": 88}, {"time": 3569, "pitch": 59, "duration": 5, "velocity": 82}, {"time": 3572, "pitch": 64, "duration": 5, "velocity": 89}, {"time": 3575, "pitch": 68, "duration": 3, "velocity": 93}, {"time": 3578, "pitch": 49, "duration": 22, "velocity": 92}, {"time": 3581, "pitch": 56, "duration": 20, "velocity": 77}, {"time": 3584, "pitch": 61, "duration": 6, "velocity": 83}, {"time": 3587, "pitch": 64, "duration": 4, "velocity": 86}, {"time": 3590, "pitch": 68, "duration": 4, "velocity": 86}, {"time": 3593, "pitch": 61, "duration": 7, "velocity": 85}, {"time": 3596, "pitch": 64, "duration": 5, "velocity": 78}, {"time": 3599, "pitch": 68, "duration": 8, "velocity": 76}, {"time": 3602, "pitch": 47, "duration": 25, "velocity": 88}, {"time": 3605, "pitch": 54, "duration": 11, "velocity": 65}, {"time": 3608, "pitch": 59, "duration": 8, "velocity": 91}, {"time": 3611, "pitch": 63, "duration": 4, "velocity": 93}, {"time": 3614, "pitch": 71, "duration": 7, "velocity": 85}, {"time": 3617, "pitch": 54, "duration": 9, "velocity": 87}, {"time": 3620, "pitch": 59, "duration": 6, "velocity": 102}, {"time": 3623, "pitch": 63, "duration": 3, "velocity": 90}, {"time": 3626, "pitch": 45, "duration": 22, "velocity": 89}, {"time": 3629, "pitch": 52, "duration": 19, "velocity": 81}, {"time": 3632, "pitch": 57, "duration": 7, "velocity": 89}, {"time": 3635, "pitch": 61, "duration": 4, "velocity": 89}, {"time": 3638, "pitch": 64, "duration": 4, "velocity": 88}, {"time": 3641, "pitch": 69, "duration": 7, "velocity": 89}, {"time": 3644, "pitch": 57, "duration": 9, "velocity": 88}, {"time": 3647, "pitch": 61, "duration": 9, "velocity": 95}, {"time": 3650, "pitch": 45, "duration": 18, "velocity": 89}, {"time": 3650, "pitch": 64, "duration": 10, "velocity": 88}, {"time": 3653, "pitch": 52, "duration": 14, "velocity": 77}, {"time": 3656, "pitch": 57, "duration": 8, "velocity": 82}, {"time": 3659, "pitch": 61, "duration": 6, "velocity": 90}, {"time": 3662, "pitch": 64, "duration": 5, "velocity": 89}, {"time": 3665, "pitch": 69, "duration": 7, "velocity": 88}, {"time": 3668, "pitch": 57, "duration": 5, "velocity": 82}, {"time": 3671, "pitch": 61, "duration": 8, "velocity": 90}, {"time": 3674, "pitch": 42, "duration": 15, "velocity": 89}, {"time": 3677, "pitch": 49, "duration": 12, "velocity": 75}, {"time": 3680, "pitch": 57, "duration": 6, "velocity": 84}, {"time": 3683, "pitch": 61, "duration": 4, "velocity": 94}, {"time": 3686, "pitch": 66, "duration": 6, "velocity": 89}, {"time": 3689, "pitch": 57, "duration": 6, "velocity": 89}, {"time": 3692, "pitch": 61, "duration": 4, "velocity": 90}, {"time": 3695, "pitch": 66, "duration": 5, "velocity": 82}, {"time": 3698, "pitch": 47, "duration": 25, "velocity": 92}, {"time": 3701, "pitch": 54, "duration": 11, "velocity": 75}, {"time": 3704, "pitch": 59, "duration": 6, "velocity": 90}, {"time": 3707, "pitch": 63, "duration": 4, "velocity": 93}, {"time": 3710, "pitch": 51, "duration": 4, "velocity": 75}, {"time": 3710, "pitch": 66, "duration": 10, "velocity": 93}, {"time": 3716, "pitch": 54, "duration": 7, "velocity": 75}, {"time": 3719, "pitch": 59, "duration": 4, "velocity": 89}, {"time": 3722, "pitch": 40, "duration": 37, "velocity": 80}, {"time": 3722, "pitch": 59, "duration": 1, "velocity": 85}, {"time": 3722, "pitch": 64, "duration": 7, "velocity": 84}, {"time": 3722, "pitch": 68, "duration": 8, "velocity": 87}, {"time": 3728, "pitch": 59, "duration": 5, "velocity": 91}, {"time": 3734, "pitch": 64, "duration": 2, "velocity": 86}, {"time": 3734, "pitch": 68, "duration": 2, "velocity": 90}, {"time": 3746, "pitch": 64, "duration": 2, "velocity": 86}, {"time": 3746, "pitch": 68, "duration": 3, "velocity": 86}, {"time": 3752, "pitch": 59, "duration": 4, "velocity": 83}, {"time": 3758, "pitch": 64, "duration": 7, "velocity": 92}, {"time": 3758, "pitch": 68, "duration": 7, "velocity": 93}, {"time": 3770, "pitch": 45, "duration": 40, "velocity": 91}, {"time": 3770, "pitch": 61, "duration": 3, "velocity": 86}, {"time": 3770, "pitch": 64, "duration": 10, "velocity": 89}, {"time": 3776, "pitch": 61, "duration": 4, "velocity": 77}, {"time": 3782, "pitch": 61, "duration": 4, "velocity": 90}, {"time": 3782, "pitch": 64, "duration": 10, "velocity": 87}, {"time": 3788, "pitch": 61, "duration": 4, "velocity": 78}, {"time": 3794, "pitch": 61, "duration": 2, "velocity": 78}, {"time": 3794, "pitch": 64, "duration": 9, "velocity": 76}, {"time": 3800, "pitch": 61, "duration": 3, "velocity": 67}, {"time": 3806, "pitch": 61, "duration": 3, "velocity": 90}, {"time": 3806, "pitch": 64, "duration": 6, "velocity": 91}, {"time": 3806, "pitch": 69, "duration": 5, "velocity": 89}, {"time": 3812, "pitch": 61, "duration": 2, "velocity": 79}, {"time": 3818, "pitch": 40, "duration": 39, "velocity": 91}, {"time": 3818, "pitch": 64, "duration": 8, "velocity": 86}, {"time": 3818, "pitch": 68, "duration": 7, "velocity": 90}, {"time": 3824, "pitch": 59, "duration": 7, "velocity": 77}, {"time": 3830, "pitch": 64, "duration": 3, "velocity": 79}, {"time": 3830, "pitch": 68, "duration": 3, "velocity": 83}, {"time": 3836, "pitch": 59, "duration": 4, "velocity": 66}, {"time": 3842, "pitch": 64, "duration": 8, "velocity": 83}, {"time": 3842, "pitch": 68, "duration": 3, "velocity": 78}, {"time": 3848, "pitch": 59, "duration": 3, "velocity": 71}, {"time": 3854, "pitch": 59, "duration": 3, "velocity": 91}, {"time": 3854, "pitch": 64, "duration": 7, "velocity": 92}, {"time": 3854, "pitch": 68, "duration": 6, "velocity": 91}, {"time": 3860, "pitch": 59, "duration": 2, "velocity": 84}, {"time": 3866, "pitch": 45, "duration": 40, "velocity": 88}, {"time": 3866, "pitch": 61, "duration": 4, "velocity": 81}, {"time": 3866, "pitch": 64, "duration": 9, "velocity": 87}, {"time": 3866, "pitch": 69, "duration": 9, "velocity": 83}, {"time": 3872, "pitch": 61, "duration": 4, "velocity": 70}, {"time": 3878, "pitch": 64, "duration": 3, "velocity": 83}, {"time": 3878, "pitch": 69, "duration": 4, "velocity": 81}, {"time": 3884, "pitch": 61, "duration": 4, "velocity": 78}, {"time": 3890, "pitch": 64, "duration": 3, "velocity": 85}, {"time": 3890, "pitch": 69, "duration": 4, "velocity": 82}, {"time": 3896, "pitch": 61, "duration": 2, "velocity": 63}, {"time": 3902, "pitch": 61, "duration": 3, "velocity": 90}, {"time": 3902, "pitch": 64, "duration": 3, "velocity": 96}, {"time": 3902, "pitch": 69, "duration": 3, "velocity": 93}, {"time": 3916, "pitch": 40, "duration": 50, "velocity": 90}, {"time": 3919, "pitch": 47, "duration": 44, "velocity": 82}, {"time": 3921, "pitch": 52, "duration": 4, "velocity": 80}, {"time": 3924, "pitch": 54, "duration": 1, "velocity": 85}, {"time": 3926, "pitch": 56, "duration": 20, "velocity": 78}, {"time": 3929, "pitch": 59, "duration": 17, "velocity": 81}, {"time": 3933, "pitch": 64, "duration": 14, "velocity": 73}], "annotations": [{"time": 28, "annotation": {"number": 64, "value": 127}, "group": "control_change"}, {"time": 73, "annotation": {"number": 64, "value": 0}, "group": "control_change"}, {"time": 75, "annotation": {"number": 64, "value": 127}, "group": "control_change"}, {"time": 122, "annotation": {"number": 64, "value": 0}, "group": "control_change"}, {"time": 124, "annotation": {"number": 64, "value": 127}, "group": "control_change"}, {"time": 169, "annotation": {"number": 64, "value": 0}, "group": "control_change"}, {"time": 171, "annotation": {"number": 64, "value": 127}, "group": "control_change"}, {"time": 217, "annotation": {"number": 64, "value": 0}, "group": "control_change"}, {"time": 220, "annotation": {"number": 64, "value": 127}, "group": "control_change"}, {"time": 266, "annotation": {"number": 64, "value": 0}, "group": "control_change"}, {"time": 268, "annotation": {"number": 64, "value": 127}, "group": "control_change"}, {"time": 313, "annotation": {"number": 64, "value": 0}, "group": "control_change"}, {"time": 315, "annotation": {"number": 64, "value": 127}, "group": "control_change"}, {"time": 360, "annotation": {"number": 64, "value": 0}, "group": "control_change"}, {"time": 362, "annotation": {"number": 64, "value": 127}, "group": "control_change"}, {"time": 407, "annotation": {"number": 64, "value": 0}, "group": "control_change"}, {"time": 410, "annotation": {"number": 64, "value": 127}, "group": "control_change"}, {"time": 458, "annotation": {"number": 64, "value": 0}, "group": "control_change"}, {"time": 459, "annotation": {"number": 64, "value": 127}, "group": "control_change"}, {"time": 505, "annotation": {"number": 64, "value": 0}, "group": "control_change"}, {"time": 507, "annotation": {"number": 64, "value": 127}, "group": "control_change"}, {"time": 553, "annotation": {"number": 64, "value": 0}, "group": "control_change"}, {"time": 556, "annotation": {"number": 64, "value": 127}, "group": "control_change"}, {"time": 601, "annotation": {"number": 64, "value": 0}, "group": "control_change"}, {"time": 602, "annotation": {"number": 64, "value": 127}, "group": "control_change"}, {"time": 624, "annotation": {"number": 64, "value": 0}, "group": "control_change"}, {"time": 626, "annotation": {"number": 64, "value": 127}, "group": "control_change"}, {"time": 649, "annotation": {"number": 64, "value": 0}, "group": "control_change"}, {"time": 651, "annotation": {"number": 64, "value": 127}, "group": "control_change"}, {"time": 672, "annotation": {"number": 64, "value": 0}, "group": "control_change"}, {"time": 673, "annotation": {"number": 64, "value": 127}, "group": "control_change"}, {"time": 696, "annotation": {"number": 64, "value": 0}, "group": "control_change"}, {"time": 698, "annotation": {"number": 64, "value": 127}, "group": "control_change"}, {"time": 721, "annotation": {"number": 64, "value": 0}, "group": "control_change"}, {"time": 723, "annotation": {"number": 64, "value": 127}, "group": "control_change"}, {"time": 744, "annotation": {"number": 64, "value": 0}, "group": "control_change"}, {"time": 746, "annotation": {"number": 64, "value": 127}, "group": "control_change"}, {"time": 768, "annotation": {"number": 64, "value": 0}, "group": "control_change"}, {"time": 770, "annotation": {"number": 64, "value": 127}, "group": "control_change"}, {"time": 791, "annotation": {"number": 64, "value": 0}, "group": "control_change"}, {"time": 796, "annotation": {"number": 64, "value": 127}, "group": "control_change"}, {"time": 817, "annotation": {"number": 64, "value": 0}, "group": "control_change"}, {"time": 819, "annotation": {"number": 64, "value": 127}, "group": "control_change"}, {"time": 842, "annotation": {"number": 64, "value": 0}, "group": "control_change"}, {"time": 843, "annotation": {"number": 64, "value": 127}, "group": "control_change"}, {"time": 864, "annotation": {"number": 64, "value": 0}, "group": "control_change"}, {"time": 866, "annotation": {"number": 64, "value": 127}, "group": "control_change"}, {"time": 890, "annotation": {"number": 64, "value": 0}, "group": "control_change"}, {"time": 892, "annotation": {"number": 64, "value": 127}, "group": "control_change"}, {"time": 912, "annotation": {"number": 64, "value": 0}, "group": "control_change"}, {"time": 914, "annotation": {"number": 64, "value": 127}, "group": "control_change"}, {"time": 938, "annotation": {"number": 64, "value": 0}, "group": "control_change"}, {"time": 939, "annotation": {"number": 64, "value": 127}, "group": "control_change"}, {"time": 961, "annotation": {"number": 64, "value": 0}, "group": "control_change"}, {"time": 962, "annotation": {"number": 64, "value": 127}, "group": "control_change"}, {"time": 986, "annotation": {"number": 64, "value": 0}, "group": "control_change"}, {"time": 988, "annotation": {"number": 64, "value": 127}, "group": "control_change"}, {"time": 1009, "annotation": {"number": 64, "value": 0}, "group": "control_change"}, {"time": 1010, "annotation": {"number": 64, "value": 127}, "group": "control_change"}, {"time": 1033, "annotation": {"number": 64, "value": 0}, "group": "control_change"}, {"time": 1035, "annotation": {"number": 64, "value": 127}, "group": "control_change"}, {"time": 1057, "annotation": {"number": 64, "value": 0}, "group": "control_change"}, {"time": 1059, "annotation": {"number": 64, "value": 127}, "group": "control_change"}, {"time": 1081, "annotation": {"number": 64, "value": 0}, "group": "control_change"}, {"time": 1083, "annotation": {"number": 64, "value": 127}, "group": "control_change"}, {"time": 1104, "annotation": {"number": 64, "value": 0}, "group": "control_change"}, {"time": 1106, "annotation": {"number": 64, "value": 127}, "group": "control_change"}, {"time": 1129, "annotation": {"number": 64, "value": 0}, "group": "control_change"}, {"time": 1131, "annotation": {"number": 64, "value": 127}, "group": "control_change"}, {"time": 1151, "annotation": {"number": 64, "value": 0}, "group": "control_change"}, {"time": 1153, "annotation": {"number": 64, "value": 127}, "group": "control_change"}, {"time": 1176, "annotation": {"number": 64, "value": 0}, "group": "control_change"}, {"time": 1180, "annotation": {"number": 64, "value": 127}, "group": "control_change"}, {"time": 1226, "annotation": {"number": 64, "value": 0}, "group": "control_change"}, {"time": 1228, "annotation": {"number": 64, "value": 127}, "group": "control_change"}, {"time": 1273, "annotation": {"number": 64, "value": 0}, "group": "control_change"}, {"time": 1275, "annotation": {"number": 64, "value": 127}, "group": "control_change"}, {"time": 1320, "annotation": {"number": 64, "value": 0}, "group": "control_change"}, {"time": 1322, "annotation": {"number": 64, "value": 127}, "group": "control_change"}, {"time": 1367, "annotation": {"number": 64, "value": 0}, "group": "control_change"}, {"time": 1370, "annotation": {"number": 64, "value": 127}, "group": "control_change"}, {"time": 1418, "annotation": {"number": 64, "value": 0}, "group": "control_change"}, {"time": 1419, "annotation": {"number": 64, "value": 127}, "group": "control_change"}, {"time": 1465, "annotation": {"number": 64, "value": 0}, "group": "control_change"}, {"time": 1467, "annotation": {"number": 64, "value": 127}, "group": "control_change"}, {"time": 1513, "annotation": {"number": 64, "value": 0}, "group": "control_change"}, {"time": 1516, "annotation": {"number": 64, "value": 127}, "group": "control_change"}, {"time": 1561, "annotation": {"number": 64, "value": 0}, "group": "control_change"}, {"time": 1562, "annotation": {"number": 64, "value": 127}, "group": "control_change"}, {"time": 1584, "annotation": {"number": 64, "value": 0}, "group": "control_change"}, {"time": 1586, "annotation": {"number": 64, "value": 127}, "group": "control_change"}, {"time": 1609, "annotation": {"number": 64, "value": 0}, "group": "control_change"}, {"time": 1611, "annotation": {"number": 64, "value": 127}, "group": "control_change"}, {"time": 1632, "annotation": {"number": 64, "value": 0}, "group": "control_change"}, {"time": 1633, "annotation": {"number": 64, "value": 127}, "group": "control_change"}, {"time": 1656, "annotation": {"number": 64, "value": 0}, "group": "control_change"}, {"time": 1658, "annotation": {"number": 64, "value": 127}, "group": "control_change"}, {"time": 1681, "annotation": {"number": 64, "value": 0}, "group": "control_change"}, {"time": 1683, "annotation": {"number": 64, "value": 127}, "group": "control_change"}, {"time": 1704, "annotation": {"number": 64, "value": 0}, "group": "control_change"}, {"time": 1706, "annotation": {"number": 64, "value": 127}, "group": "control_change"}, {"time": 1728, "annotation": {"number": 64, "value": 0}, "group": "control_change"}, {"time": 1730, "annotation": {"number": 64, "value": 127}, "group": "control_change"}, {"time": 1751, "annotation": {"number": 64, "value": 0}, "group": "control_change"}, {"time": 1756, "annotation": {"number": 64, "value": 127}, "group": "control_change"}, {"time": 1777, "annotation": {"number": 64, "value": 0}, "group": "control_change"}, {"time": 1779, "annotation": {"number": 64, "value": 127}, "group": "control_change"}, {"time": 1802, "annotation": {"number": 64, "value": 0}, "group": "control_change"}, {"time": 1803, "annotation": {"number": 64, "value": 127}, "group": "control_change"}, {"time": 1824, "annotation": {"number": 64, "value": 0}, "group": "control_change"}, {"time": 1826, "annotation": {"number": 64, "value": 127}, "group": "control_change"}, {"time": 1850, "annotation": {"number": 64, "value": 0}, "group": "control_change"}, {"time": 1852, "annotation": {"number": 64, "value": 127}, "group": "control_change"}, {"time": 1872, "annotation": {"number": 64, "value": 0}, "group": "control_change"}, {"time": 1874, "annotation": {"number": 64, "value": 127}, "group": "control_change"}, {"time": 1898, "annotation": {"number": 64, "value": 0}, "group": "control_change"}, {"time": 1899, "annotation": {"number": 64, "value": 127}, "group": "control_change"}, {"time": 1921, "annotation": {"number": 64, "value": 0}, "group": "control_change"}, {"time": 1922, "annotation": {"number": 64, "value": 127}, "group": "control_change"}, {"time": 1946, "annotation": {"number": 64, "value": 0}, "group": "control_change"}, {"time": 1948, "annotation": {"number": 64, "value": 127}, "group": "control_change"}, {"time": 1969, "annotation": {"number": 64, "value": 0}, "group": "control_change"}, {"time": 1970, "annotation": {"number": 64, "value": 127}, "group": "control_change"}, {"time": 1993, "annotation": {"number": 64, "value": 0}, "group": "control_change"}, {"time": 1995, "annotation": {"number": 64, "value": 127}, "group": "control_change"}, {"time": 2017, "annotation": {"number": 64, "value": 0}, "group": "control_change"}, {"time": 2019, "annotation": {"number": 64, "value": 127}, "group": "control_change"}, {"time": 2039, "annotation": {"number": 64, "value": 0}, "group": "control_change"}, {"time": 2043, "annotation": {"number": 64, "value": 127}, "group": "control_change"}, {"time": 2064, "annotation": {"number": 64, "value": 0}, "group": "control_change"}, {"time": 2066, "annotation": {"number": 64, "value": 127}, "group": "control_change"}, {"time": 2089, "annotation": {"number": 64, "value": 0}, "group": "control_change"}, {"time": 2091, "annotation": {"number": 64, "value": 127}, "group": "control_change"}, {"time": 2111, "annotation": {"number": 64, "value": 0}, "group": "control_change"}, {"time": 2113, "annotation": {"number": 64, "value": 127}, "group": "control_change"}, {"time": 2136, "annotation": {"number": 64, "value": 0}, "group": "control_change"}, {"time": 2140, "annotation": {"number": 64, "value": 127}, "group": "control_change"}, {"time": 2159, "annotation": {"number": 64, "value": 0}, "group": "control_change"}, {"time": 2161, "annotation": {"number": 64, "value": 127}, "group": "control_change"}, {"time": 2184, "annotation": {"number": 64, "value": 0}, "group": "control_change"}, {"time": 2186, "annotation": {"number": 64, "value": 127}, "group": "control_change"}, {"time": 2232, "annotation": {"number": 64, "value": 0}, "group": "control_change"}, {"time": 2234, "annotation": {"number": 64, "value": 127}, "group": "control_change"}, {"time": 2280, "annotation": {"number": 64, "value": 0}, "group": "control_change"}, {"time": 2282, "annotation": {"number": 64, "value": 127}, "group": "control_change"}, {"time": 2304, "annotation": {"number": 64, "value": 0}, "group": "control_change"}, {"time": 2307, "annotation": {"number": 64, "value": 127}, "group": "control_change"}, {"time": 2330, "annotation": {"number": 64, "value": 0}, "group": "control_change"}, {"time": 2354, "annotation": {"number": 64, "value": 0}, "group": "control_change"}, {"time": 2356, "annotation": {"number": 64, "value": 127}, "group": "control_change"}, {"time": 2377, "annotation": {"number": 64, "value": 0}, "group": "control_change"}, {"time": 2379, "annotation": {"number": 64, "value": 127}, "group": "control_change"}, {"time": 2401, "annotation": {"number": 64, "value": 0}, "group": "control_change"}, {"time": 2403, "annotation": {"number": 64, "value": 127}, "group": "control_change"}, {"time": 2424, "annotation": {"number": 64, "value": 0}, "group": "control_change"}, {"time": 2427, "annotation": {"number": 64, "value": 127}, "group": "control_change"}, {"time": 2448, "annotation": {"number": 64, "value": 0}, "group": "control_change"}, {"time": 2450, "annotation": {"number": 64, "value": 127}, "group": "control_change"}, {"time": 2471, "annotation": {"number": 64, "value": 0}, "group": "control_change"}, {"time": 2474, "annotation": {"number": 64, "value": 127}, "group": "control_change"}, {"time": 2497, "annotation": {"number": 64, "value": 0}, "group": "control_change"}, {"time": 2498, "annotation": {"number": 64, "value": 127}, "group": "control_change"}, {"time": 2520, "annotation": {"number": 64, "value": 0}, "group": "control_change"}, {"time": 2523, "annotation": {"number": 64, "value": 127}, "group": "control_change"}, {"time": 2546, "annotation": {"number": 64, "value": 0}, "group": "control_change"}, {"time": 2547, "annotation": {"number": 64, "value": 127}, "group": "control_change"}, {"time": 2569, "annotation": {"number": 64, "value": 0}, "group": "control_change"}, {"time": 2571, "annotation": {"number": 64, "value": 127}, "group": "control_change"}, {"time": 2593, "annotation": {"number": 64, "value": 0}, "group": "control_change"}, {"time": 2595, "annotation": {"number": 64, "value": 127}, "group": "control_change"}, {"time": 2619, "annotation": {"number": 64, "value": 0}, "group": "control_change"}, {"time": 2623, "annotation": {"number": 64, "value": 127}, "group": "control_change"}, {"time": 2643, "annotation": {"number": 64, "value": 0}, "group": "control_change"}, {"time": 2644, "annotation": {"number": 64, "value": 127}, "group": "control_change"}, {"time": 2664, "annotation": {"number": 64, "value": 0}, "group": "control_change"}, {"time": 2667, "annotation": {"number": 64, "value": 127}, "group": "control_change"}, {"time": 2689, "annotation": {"number": 64, "value": 0}, "group": "control_change"}, {"time": 2690, "annotation": {"number": 64, "value": 127}, "group": "control_change"}, {"time": 2709, "annotation": {"number": 64, "value": 0}, "group": "control_change"}, {"time": 2715, "annotation": {"number": 64, "value": 127}, "group": "control_change"}, {"time": 2738, "annotation": {"number": 64, "value": 0}, "group": "control_change"}, {"time": 2741, "annotation": {"number": 64, "value": 127}, "group": "control_change"}, {"time": 2762, "annotation": {"number": 64, "value": 0}, "group": "control_change"}, {"time": 2764, "annotation": {"number": 64, "value": 127}, "group": "control_change"}, {"time": 2808, "annotation": {"number": 64, "value": 0}, "group": "control_change"}, {"time": 2811, "annotation": {"number": 64, "value": 127}, "group": "control_change"}, {"time": 2834, "annotation": {"number": 64, "value": 0}, "group": "control_change"}, {"time": 2836, "annotation": {"number": 64, "value": 127}, "group": "control_change"}, {"time": 2858, "annotation": {"number": 64, "value": 0}, "group": "control_change"}, {"time": 2860, "annotation": {"number": 64, "value": 127}, "group": "control_change"}, {"time": 2903, "annotation": {"number": 64, "value": 0}, "group": "control_change"}, {"time": 2905, "annotation": {"number": 64, "value": 127}, "group": "control_change"}, {"time": 2929, "annotation": {"number": 64, "value": 0}, "group": "control_change"}, {"time": 2931, "annotation": {"number": 64, "value": 127}, "group": "control_change"}, {"time": 2952, "annotation": {"number": 64, "value": 0}, "group": "control_change"}, {"time": 2956, "annotation": {"number": 64, "value": 127}, "group": "control_change"}, {"time": 2977, "annotation": {"number": 64, "value": 0}, "group": "control_change"}, {"time": 2979, "annotation": {"number": 64, "value": 127}, "group": "control_change"}, {"time": 3002, "annotation": {"number": 64, "value": 0}, "group": "control_change"}, {"time": 3003, "annotation": {"number": 64, "value": 127}, "group": "control_change"}, {"time": 3024, "annotation": {"number": 64, "value": 0}, "group": "control_change"}, {"time": 3026, "annotation": {"number": 64, "value": 127}, "group": "control_change"}, {"time": 3050, "annotation": {"number": 64, "value": 0}, "group": "control_change"}, {"time": 3052, "annotation": {"number": 64, "value": 127}, "group": "control_change"}, {"time": 3072, "annotation": {"number": 64, "value": 0}, "group": "control_change"}, {"time": 3074, "annotation": {"number": 64, "value": 127}, "group": "control_change"}, {"time": 3098, "annotation": {"number": 64, "value": 0}, "group": "control_change"}, {"time": 3099, "annotation": {"number": 64, "value": 127}, "group": "control_change"}, {"time": 3121, "annotation": {"number": 64, "value": 0}, "group": "control_change"}, {"time": 3122, "annotation": {"number": 64, "value": 127}, "group": "control_change"}, {"time": 3146, "annotation": {"number": 64, "value": 0}, "group": "control_change"}, {"time": 3148, "annotation": {"number": 64, "value": 127}, "group": "control_change"}, {"time": 3169, "annotation": {"number": 64, "value": 0}, "group": "control_change"}, {"time": 3170, "annotation": {"number": 64, "value": 127}, "group": "control_change"}, {"time": 3193, "annotation": {"number": 64, "value": 0}, "group": "control_change"}, {"time": 3195, "annotation": {"number": 64, "value": 127}, "group": "control_change"}, {"time": 3217, "annotation": {"number": 64, "value": 0}, "group": "control_change"}, {"time": 3219, "annotation": {"number": 64, "value": 127}, "group": "control_change"}, {"time": 3241, "annotation": {"number": 64, "value": 0}, "group": "control_change"}, {"time": 3243, "annotation": {"number": 64, "value": 127}, "group": "control_change"}, {"time": 3264, "annotation": {"number": 64, "value": 0}, "group": "control_change"}, {"time": 3266, "annotation": {"number": 64, "value": 127}, "group": "control_change"}, {"time": 3289, "annotation": {"number": 64, "value": 0}, "group": "control_change"}, {"time": 3291, "annotation": {"number": 64, "value": 127}, "group": "control_change"}, {"time": 3311, "annotation": {"number": 64, "value": 0}, "group": "control_change"}, {"time": 3313, "annotation": {"number": 64, "value": 127}, "group": "control_change"}, {"time": 3336, "annotation": {"number": 64, "value": 0}, "group": "control_change"}, {"time": 3340, "annotation": {"number": 64, "value": 127}, "group": "control_change"}, {"time": 3361, "annotation": {"number": 64, "value": 0}, "group": "control_change"}, {"time": 3363, "annotation": {"number": 64, "value": 127}, "group": "control_change"}, {"time": 3386, "annotation": {"number": 64, "value": 0}, "group": "control_change"}, {"time": 3387, "annotation": {"number": 64, "value": 127}, "group": "control_change"}, {"time": 3408, "annotation": {"number": 64, "value": 0}, "group": "control_change"}, {"time": 3410, "annotation": {"number": 64, "value": 127}, "group": "control_change"}, {"time": 3434, "annotation": {"number": 64, "value": 0}, "group": "control_change"}, {"time": 3436, "annotation": {"number": 64, "value": 127}, "group": "control_change"}, {"time": 3456, "annotation": {"number": 64, "value": 0}, "group": "control_change"}, {"time": 3458, "annotation": {"number": 64, "value": 127}, "group": "control_change"}, {"time": 3482, "annotation": {"number": 64, "value": 0}, "group": "control_change"}, {"time": 3483, "annotation": {"number": 64, "value": 127}, "group": "control_change"}, {"time": 3505, "annotation": {"number": 64, "value": 0}, "group": "control_change"}, {"time": 3506, "annotation": {"number": 64, "value": 127}, "group": "control_change"}, {"time": 3530, "annotation": {"number": 64, "value": 0}, "group": "control_change"}, {"time": 3532, "annotation": {"number": 64, "value": 127}, "group": "control_change"}, {"time": 3553, "annotation": {"number": 64, "value": 0}, "group": "control_change"}, {"time": 3554, "annotation": {"number": 64, "value": 127}, "group": "control_change"}, {"time": 3577, "annotation": {"number": 64, "value": 0}, "group": "control_change"}, {"time": 3579, "annotation": {"number": 64, "value": 127}, "group": "control_change"}, {"time": 3601, "annotation": {"number": 64, "value": 0}, "group": "control_change"}, {"time": 3603, "annotation": {"number": 64, "value": 127}, "group": "control_change"}, {"time": 3623, "annotation": {"number": 64, "value": 0}, "group": "control_change"}, {"time": 3627, "annotation": {"number": 64, "value": 127}, "group": "control_change"}, {"time": 3648, "annotation": {"number": 64, "value": 0}, "group": "control_change"}, {"time": 3650, "annotation": {"number": 64, "value": 127}, "group": "control_change"}, {"time": 3673, "annotation": {"number": 64, "value": 0}, "group": "control_change"}, {"time": 3675, "annotation": {"number": 64, "value": 127}, "group": "control_change"}, {"time": 3695, "annotation": {"number": 64, "value": 0}, "group": "control_change"}, {"time": 3697, "annotation": {"number": 64, "value": 127}, "group": "control_change"}, {"time": 3720, "annotation": {"number": 64, "value": 0}, "group": "control_change"}, {"time": 3724, "annotation": {"number": 64, "value": 127}, "group": "control_change"}, {"time": 3769, "annotation": {"number": 64, "value": 0}, "group": "control_change"}, {"time": 3771, "annotation": {"number": 64, "value": 127}, "group": "control_change"}, {"time": 3818, "annotation": {"number": 64, "value": 0}, "group": "control_change"}, {"time": 3820, "annotation": {"number": 64, "value": 127}, "group": "control_change"}, {"time": 3865, "annotation": {"number": 64, "value": 0}, "group": "control_change"}, {"time": 3867, "annotation": {"number": 64, "value": 127}, "group": "control_change"}, {"time": 3913, "annotation": {"number": 64, "value": 0}, "group": "control_change"}, {"time": 3914, "annotation": {"number": 64, "value": 127}, "group": "control_change"}, {"time": 4002, "annotation": {"number": 64, "value": 0}, "group": "control_change"}]}]}