{"metadata": {"schema_version": "0.2", "title": "None", "source_filename": "428.mid", "source_format": "midi"}, "resolution": 12, "tempos": [{"time": 0, "qpm": 72.00002880001152}, {"time": 756, "qpm": 71.5000715000715}, {"time": 780, "qpm": 72.00002880001152}, {"time": 2004, "qpm": 71.25002226563196}, {"time": 2028, "qpm": 72.00002880001152}, {"time": 2688, "qpm": 71.7500801209228}, {"time": 2712, "qpm": 70.50006873756702}, {"time": 2724, "qpm": 72.00002880001152}], "time_signatures": [{"time": 0, "numerator": 1, "denominator": 4}], "tracks": [{"program": 4, "is_drum": false, "name": "MELODY", "notes": [{"time": 369, "pitch": 69, "duration": 2, "velocity": 90}, {"time": 372, "pitch": 69, "duration": 1, "velocity": 90}, {"time": 375, "pitch": 69, "duration": 2, "velocity": 91}, {"time": 378, "pitch": 67, "duration": 2, "velocity": 90}, {"time": 381, "pitch": 69, "duration": 5, "velocity": 92}, {"time": 387, "pitch": 72, "duration": 4, "velocity": 90}, {"time": 393, "pitch": 72, "duration": 21, "velocity": 91}, {"time": 417, "pitch": 74, "duration": 1, "velocity": 97}, {"time": 420, "pitch": 74, "duration": 1, "velocity": 97}, {"time": 423, "pitch": 74, "duration": 2, "velocity": 101}, {"time": 426, "pitch": 72, "duration": 1, "velocity": 92}, {"time": 429, "pitch": 69, "duration": 5, "velocity": 93}, {"time": 435, "pitch": 74, "duration": 6, "velocity": 97}, {"time": 441, "pitch": 72, "duration": 21, "velocity": 92}, {"time": 465, "pitch": 77, "duration": 2, "velocity": 91}, {"time": 468, "pitch": 77, "duration": 1, "velocity": 91}, {"time": 471, "pitch": 77, "duration": 3, "velocity": 88}, {"time": 474, "pitch": 74, "duration": 2, "velocity": 97}, {"time": 477, "pitch": 79, "duration": 5, "velocity": 94}, {"time": 483, "pitch": 77, "duration": 6, "velocity": 96}, {"time": 489, "pitch": 72, "duration": 14, "velocity": 94}, {"time": 513, "pitch": 74, "duration": 2, "velocity": 92}, {"time": 516, "pitch": 74, "duration": 1, "velocity": 93}, {"time": 519, "pitch": 74, "duration": 2, "velocity": 99}, {"time": 522, "pitch": 77, "duration": 2, "velocity": 97}, {"time": 525, "pitch": 74, "duration": 5, "velocity": 107}, {"time": 531, "pitch": 72, "duration": 2, "velocity": 94}, {"time": 534, "pitch": 69, "duration": 8, "velocity": 94}, {"time": 543, "pitch": 67, "duration": 14, "velocity": 89}, {"time": 561, "pitch": 69, "duration": 2, "velocity": 88}, {"time": 564, "pitch": 69, "duration": 2, "velocity": 90}, {"time": 567, "pitch": 69, "duration": 2, "velocity": 91}, {"time": 570, "pitch": 67, "duration": 2, "velocity": 89}, {"time": 573, "pitch": 69, "duration": 5, "velocity": 96}, {"time": 579, "pitch": 72, "duration": 2, "velocity": 91}, {"time": 582, "pitch": 72, "duration": 24, "velocity": 91}, {"time": 609, "pitch": 74, "duration": 2, "velocity": 93}, {"time": 612, "pitch": 74, "duration": 2, "velocity": 95}, {"time": 615, "pitch": 74, "duration": 2, "velocity": 96}, {"time": 618, "pitch": 72, "duration": 2, "velocity": 94}, {"time": 621, "pitch": 69, "duration": 5, "velocity": 97}, {"time": 627, "pitch": 74, "duration": 4, "velocity": 89}, {"time": 633, "pitch": 72, "duration": 17, "velocity": 90}, {"time": 657, "pitch": 77, "duration": 4, "velocity": 92}, {"time": 663, "pitch": 77, "duration": 2, "velocity": 92}, {"time": 666, "pitch": 74, "duration": 2, "velocity": 96}, {"time": 669, "pitch": 79, "duration": 5, "velocity": 94}, {"time": 675, "pitch": 77, "duration": 5, "velocity": 94}, {"time": 681, "pitch": 72, "duration": 19, "velocity": 93}, {"time": 705, "pitch": 74, "duration": 1, "velocity": 99}, {"time": 708, "pitch": 74, "duration": 1, "velocity": 93}, {"time": 711, "pitch": 74, "duration": 2, "velocity": 94}, {"time": 714, "pitch": 77, "duration": 2, "velocity": 94}, {"time": 717, "pitch": 74, "duration": 5, "velocity": 106}, {"time": 723, "pitch": 81, "duration": 5, "velocity": 92}, {"time": 729, "pitch": 79, "duration": 25, "velocity": 92}, {"time": 759, "pitch": 72, "duration": 4, "velocity": 101}, {"time": 765, "pitch": 77, "duration": 5, "velocity": 92}, {"time": 771, "pitch": 79, "duration": 4, "velocity": 95}, {"time": 777, "pitch": 81, "duration": 5, "velocity": 94}, {"time": 783, "pitch": 79, "duration": 7, "velocity": 94}, {"time": 789, "pitch": 77, "duration": 5, "velocity": 96}, {"time": 795, "pitch": 76, "duration": 5, "velocity": 97}, {"time": 801, "pitch": 77, "duration": 7, "velocity": 92}, {"time": 807, "pitch": 76, "duration": 5, "velocity": 86}, {"time": 813, "pitch": 74, "duration": 5, "velocity": 95}, {"time": 819, "pitch": 72, "duration": 4, "velocity": 92}, {"time": 825, "pitch": 74, "duration": 24, "velocity": 97}, {"time": 867, "pitch": 77, "duration": 2, "velocity": 96}, {"time": 870, "pitch": 79, "duration": 2, "velocity": 92}, {"time": 873, "pitch": 81, "duration": 4, "velocity": 96}, {"time": 879, "pitch": 79, "duration": 4, "velocity": 93}, {"time": 885, "pitch": 77, "duration": 5, "velocity": 97}, {"time": 891, "pitch": 76, "duration": 2, "velocity": 97}, {"time": 894, "pitch": 77, "duration": 8, "velocity": 94}, {"time": 903, "pitch": 76, "duration": 4, "velocity": 92}, {"time": 909, "pitch": 69, "duration": 5, "velocity": 94}, {"time": 915, "pitch": 72, "duration": 2, "velocity": 93}, {"time": 918, "pitch": 74, "duration": 32, "velocity": 97}, {"time": 963, "pitch": 74, "duration": 2, "velocity": 101}, {"time": 966, "pitch": 72, "duration": 2, "velocity": 92}, {"time": 969, "pitch": 74, "duration": 5, "velocity": 104}, {"time": 975, "pitch": 77, "duration": 21, "velocity": 95}, {"time": 999, "pitch": 77, "duration": 10, "velocity": 96}, {"time": 1011, "pitch": 79, "duration": 5, "velocity": 92}, {"time": 1017, "pitch": 81, "duration": 4, "velocity": 90}, {"time": 1023, "pitch": 82, "duration": 5, "velocity": 94}, {"time": 1029, "pitch": 81, "duration": 5, "velocity": 95}, {"time": 1035, "pitch": 79, "duration": 2, "velocity": 96}, {"time": 1038, "pitch": 77, "duration": 16, "velocity": 90}, {"time": 1059, "pitch": 74, "duration": 2, "velocity": 106}, {"time": 1062, "pitch": 77, "duration": 2, "velocity": 96}, {"time": 1065, "pitch": 82, "duration": 4, "velocity": 97}, {"time": 1071, "pitch": 81, "duration": 5, "velocity": 94}, {"time": 1077, "pitch": 79, "duration": 5, "velocity": 96}, {"time": 1083, "pitch": 77, "duration": 2, "velocity": 92}, {"time": 1086, "pitch": 82, "duration": 7, "velocity": 94}, {"time": 1095, "pitch": 81, "duration": 4, "velocity": 94}, {"time": 1101, "pitch": 79, "duration": 5, "velocity": 96}, {"time": 1107, "pitch": 77, "duration": 5, "velocity": 91}, {"time": 1113, "pitch": 79, "duration": 25, "velocity": 97}, {"time": 1149, "pitch": 81, "duration": 5, "velocity": 94}, {"time": 1155, "pitch": 79, "duration": 5, "velocity": 96}, {"time": 1161, "pitch": 77, "duration": 10, "velocity": 97}, {"time": 1173, "pitch": 77, "duration": 5, "velocity": 95}, {"time": 1179, "pitch": 79, "duration": 2, "velocity": 93}, {"time": 1182, "pitch": 81, "duration": 15, "velocity": 96}, {"time": 1203, "pitch": 77, "duration": 4, "velocity": 96}, {"time": 1209, "pitch": 86, "duration": 4, "velocity": 94}, {"time": 1215, "pitch": 84, "duration": 3, "velocity": 97}, {"time": 1221, "pitch": 81, "duration": 2, "velocity": 94}, {"time": 1224, "pitch": 79, "duration": 2, "velocity": 89}, {"time": 1227, "pitch": 77, "duration": 5, "velocity": 101}, {"time": 1233, "pitch": 74, "duration": 25, "velocity": 101}, {"time": 1263, "pitch": 72, "duration": 4, "velocity": 97}, {"time": 1269, "pitch": 77, "duration": 4, "velocity": 93}, {"time": 1275, "pitch": 81, "duration": 4, "velocity": 92}, {"time": 1281, "pitch": 84, "duration": 4, "velocity": 97}, {"time": 1287, "pitch": 86, "duration": 4, "velocity": 95}, {"time": 1293, "pitch": 81, "duration": 2, "velocity": 101}, {"time": 1296, "pitch": 79, "duration": 2, "velocity": 91}, {"time": 1299, "pitch": 77, "duration": 5, "velocity": 101}, {"time": 1305, "pitch": 74, "duration": 5, "velocity": 101}, {"time": 1311, "pitch": 77, "duration": 3, "velocity": 92}, {"time": 1317, "pitch": 77, "duration": 2, "velocity": 94}, {"time": 1320, "pitch": 79, "duration": 7, "velocity": 94}, {"time": 1329, "pitch": 77, "duration": 40, "velocity": 92}, {"time": 1617, "pitch": 69, "duration": 2, "velocity": 90}, {"time": 1620, "pitch": 69, "duration": 1, "velocity": 90}, {"time": 1623, "pitch": 69, "duration": 2, "velocity": 91}, {"time": 1626, "pitch": 67, "duration": 2, "velocity": 90}, {"time": 1629, "pitch": 69, "duration": 5, "velocity": 92}, {"time": 1635, "pitch": 72, "duration": 4, "velocity": 90}, {"time": 1641, "pitch": 72, "duration": 21, "velocity": 91}, {"time": 1665, "pitch": 74, "duration": 1, "velocity": 97}, {"time": 1668, "pitch": 74, "duration": 1, "velocity": 97}, {"time": 1671, "pitch": 74, "duration": 2, "velocity": 101}, {"time": 1674, "pitch": 72, "duration": 1, "velocity": 92}, {"time": 1677, "pitch": 69, "duration": 5, "velocity": 93}, {"time": 1683, "pitch": 74, "duration": 6, "velocity": 97}, {"time": 1689, "pitch": 72, "duration": 21, "velocity": 92}, {"time": 1713, "pitch": 77, "duration": 2, "velocity": 91}, {"time": 1716, "pitch": 77, "duration": 1, "velocity": 91}, {"time": 1719, "pitch": 77, "duration": 3, "velocity": 88}, {"time": 1722, "pitch": 74, "duration": 2, "velocity": 97}, {"time": 1725, "pitch": 79, "duration": 5, "velocity": 94}, {"time": 1731, "pitch": 77, "duration": 6, "velocity": 96}, {"time": 1737, "pitch": 72, "duration": 14, "velocity": 94}, {"time": 1761, "pitch": 74, "duration": 2, "velocity": 92}, {"time": 1764, "pitch": 74, "duration": 1, "velocity": 93}, {"time": 1767, "pitch": 74, "duration": 2, "velocity": 99}, {"time": 1770, "pitch": 77, "duration": 2, "velocity": 97}, {"time": 1773, "pitch": 74, "duration": 5, "velocity": 107}, {"time": 1779, "pitch": 72, "duration": 2, "velocity": 94}, {"time": 1782, "pitch": 69, "duration": 8, "velocity": 94}, {"time": 1791, "pitch": 67, "duration": 14, "velocity": 89}, {"time": 1809, "pitch": 69, "duration": 2, "velocity": 88}, {"time": 1812, "pitch": 69, "duration": 2, "velocity": 90}, {"time": 1815, "pitch": 69, "duration": 2, "velocity": 91}, {"time": 1818, "pitch": 67, "duration": 2, "velocity": 89}, {"time": 1821, "pitch": 69, "duration": 5, "velocity": 96}, {"time": 1827, "pitch": 72, "duration": 2, "velocity": 91}, {"time": 1830, "pitch": 72, "duration": 24, "velocity": 91}, {"time": 1857, "pitch": 74, "duration": 2, "velocity": 93}, {"time": 1860, "pitch": 74, "duration": 2, "velocity": 95}, {"time": 1863, "pitch": 74, "duration": 2, "velocity": 96}, {"time": 1866, "pitch": 72, "duration": 2, "velocity": 94}, {"time": 1869, "pitch": 69, "duration": 5, "velocity": 97}, {"time": 1875, "pitch": 74, "duration": 4, "velocity": 89}, {"time": 1881, "pitch": 72, "duration": 17, "velocity": 90}, {"time": 1905, "pitch": 77, "duration": 4, "velocity": 92}, {"time": 1911, "pitch": 77, "duration": 2, "velocity": 92}, {"time": 1914, "pitch": 74, "duration": 2, "velocity": 96}, {"time": 1917, "pitch": 79, "duration": 5, "velocity": 94}, {"time": 1923, "pitch": 77, "duration": 5, "velocity": 94}, {"time": 1929, "pitch": 72, "duration": 19, "velocity": 93}, {"time": 1953, "pitch": 74, "duration": 1, "velocity": 99}, {"time": 1956, "pitch": 74, "duration": 1, "velocity": 93}, {"time": 1959, "pitch": 74, "duration": 2, "velocity": 94}, {"time": 1962, "pitch": 77, "duration": 2, "velocity": 94}, {"time": 1965, "pitch": 74, "duration": 5, "velocity": 106}, {"time": 1971, "pitch": 81, "duration": 5, "velocity": 92}, {"time": 1977, "pitch": 79, "duration": 25, "velocity": 92}, {"time": 2007, "pitch": 72, "duration": 4, "velocity": 101}, {"time": 2013, "pitch": 77, "duration": 5, "velocity": 92}, {"time": 2019, "pitch": 79, "duration": 4, "velocity": 95}, {"time": 2025, "pitch": 81, "duration": 5, "velocity": 94}, {"time": 2031, "pitch": 79, "duration": 7, "velocity": 94}, {"time": 2037, "pitch": 77, "duration": 5, "velocity": 96}, {"time": 2043, "pitch": 76, "duration": 5, "velocity": 97}, {"time": 2049, "pitch": 77, "duration": 7, "velocity": 92}, {"time": 2055, "pitch": 76, "duration": 5, "velocity": 86}, {"time": 2061, "pitch": 74, "duration": 5, "velocity": 95}, {"time": 2067, "pitch": 72, "duration": 4, "velocity": 92}, {"time": 2073, "pitch": 74, "duration": 24, "velocity": 97}, {"time": 2115, "pitch": 77, "duration": 2, "velocity": 96}, {"time": 2118, "pitch": 79, "duration": 2, "velocity": 92}, {"time": 2121, "pitch": 81, "duration": 4, "velocity": 96}, {"time": 2127, "pitch": 79, "duration": 4, "velocity": 93}, {"time": 2133, "pitch": 77, "duration": 5, "velocity": 97}, {"time": 2139, "pitch": 76, "duration": 2, "velocity": 97}, {"time": 2142, "pitch": 77, "duration": 8, "velocity": 94}, {"time": 2151, "pitch": 76, "duration": 4, "velocity": 92}, {"time": 2157, "pitch": 69, "duration": 5, "velocity": 94}, {"time": 2163, "pitch": 72, "duration": 2, "velocity": 93}, {"time": 2166, "pitch": 74, "duration": 32, "velocity": 97}, {"time": 2211, "pitch": 74, "duration": 2, "velocity": 101}, {"time": 2214, "pitch": 72, "duration": 2, "velocity": 92}, {"time": 2217, "pitch": 74, "duration": 5, "velocity": 104}, {"time": 2223, "pitch": 77, "duration": 21, "velocity": 95}, {"time": 2247, "pitch": 77, "duration": 10, "velocity": 96}, {"time": 2259, "pitch": 79, "duration": 5, "velocity": 92}, {"time": 2265, "pitch": 81, "duration": 4, "velocity": 90}, {"time": 2271, "pitch": 82, "duration": 5, "velocity": 94}, {"time": 2277, "pitch": 81, "duration": 5, "velocity": 95}, {"time": 2283, "pitch": 79, "duration": 2, "velocity": 96}, {"time": 2286, "pitch": 77, "duration": 16, "velocity": 90}, {"time": 2307, "pitch": 74, "duration": 2, "velocity": 106}, {"time": 2310, "pitch": 77, "duration": 2, "velocity": 96}, {"time": 2313, "pitch": 82, "duration": 4, "velocity": 97}, {"time": 2319, "pitch": 81, "duration": 5, "velocity": 94}, {"time": 2325, "pitch": 79, "duration": 5, "velocity": 96}, {"time": 2331, "pitch": 77, "duration": 2, "velocity": 92}, {"time": 2334, "pitch": 82, "duration": 7, "velocity": 94}, {"time": 2343, "pitch": 81, "duration": 4, "velocity": 94}, {"time": 2349, "pitch": 79, "duration": 5, "velocity": 96}, {"time": 2355, "pitch": 77, "duration": 5, "velocity": 91}, {"time": 2361, "pitch": 79, "duration": 25, "velocity": 97}, {"time": 2397, "pitch": 81, "duration": 5, "velocity": 94}, {"time": 2403, "pitch": 79, "duration": 5, "velocity": 96}, {"time": 2409, "pitch": 77, "duration": 10, "velocity": 97}, {"time": 2421, "pitch": 77, "duration": 5, "velocity": 95}, {"time": 2427, "pitch": 79, "duration": 2, "velocity": 93}, {"time": 2430, "pitch": 81, "duration": 15, "velocity": 96}, {"time": 2451, "pitch": 77, "duration": 4, "velocity": 96}, {"time": 2457, "pitch": 86, "duration": 4, "velocity": 94}, {"time": 2463, "pitch": 84, "duration": 3, "velocity": 97}, {"time": 2469, "pitch": 81, "duration": 2, "velocity": 94}, {"time": 2472, "pitch": 79, "duration": 2, "velocity": 89}, {"time": 2475, "pitch": 77, "duration": 5, "velocity": 101}, {"time": 2481, "pitch": 74, "duration": 25, "velocity": 101}, {"time": 2511, "pitch": 72, "duration": 4, "velocity": 97}, {"time": 2517, "pitch": 77, "duration": 4, "velocity": 93}, {"time": 2523, "pitch": 81, "duration": 4, "velocity": 92}, {"time": 2529, "pitch": 84, "duration": 4, "velocity": 97}, {"time": 2535, "pitch": 86, "duration": 4, "velocity": 95}, {"time": 2541, "pitch": 81, "duration": 2, "velocity": 101}, {"time": 2544, "pitch": 79, "duration": 2, "velocity": 91}, {"time": 2547, "pitch": 77, "duration": 5, "velocity": 101}, {"time": 2553, "pitch": 74, "duration": 5, "velocity": 101}, {"time": 2559, "pitch": 77, "duration": 3, "velocity": 92}, {"time": 2565, "pitch": 77, "duration": 2, "velocity": 94}, {"time": 2568, "pitch": 79, "duration": 7, "velocity": 94}, {"time": 2577, "pitch": 77, "duration": 40, "velocity": 92}, {"time": 2703, "pitch": 72, "duration": 4, "velocity": 101}, {"time": 2709, "pitch": 77, "duration": 5, "velocity": 92}, {"time": 2715, "pitch": 79, "duration": 4, "velocity": 95}, {"time": 2721, "pitch": 81, "duration": 5, "velocity": 94}, {"time": 2727, "pitch": 79, "duration": 7, "velocity": 94}, {"time": 2733, "pitch": 77, "duration": 5, "velocity": 96}, {"time": 2739, "pitch": 76, "duration": 5, "velocity": 97}, {"time": 2745, "pitch": 77, "duration": 7, "velocity": 92}, {"time": 2751, "pitch": 76, "duration": 5, "velocity": 86}, {"time": 2757, "pitch": 74, "duration": 5, "velocity": 95}, {"time": 2763, "pitch": 72, "duration": 4, "velocity": 92}, {"time": 2769, "pitch": 74, "duration": 24, "velocity": 97}, {"time": 2811, "pitch": 77, "duration": 2, "velocity": 96}, {"time": 2814, "pitch": 79, "duration": 2, "velocity": 92}, {"time": 2817, "pitch": 81, "duration": 4, "velocity": 96}, {"time": 2823, "pitch": 79, "duration": 4, "velocity": 93}, {"time": 2829, "pitch": 77, "duration": 5, "velocity": 97}, {"time": 2835, "pitch": 76, "duration": 2, "velocity": 97}, {"time": 2838, "pitch": 77, "duration": 8, "velocity": 94}, {"time": 2847, "pitch": 76, "duration": 4, "velocity": 92}, {"time": 2853, "pitch": 69, "duration": 5, "velocity": 94}, {"time": 2859, "pitch": 72, "duration": 2, "velocity": 93}, {"time": 2862, "pitch": 74, "duration": 32, "velocity": 97}, {"time": 2907, "pitch": 74, "duration": 2, "velocity": 101}, {"time": 2910, "pitch": 72, "duration": 2, "velocity": 92}, {"time": 2913, "pitch": 74, "duration": 5, "velocity": 104}, {"time": 2919, "pitch": 77, "duration": 21, "velocity": 95}, {"time": 2943, "pitch": 77, "duration": 10, "velocity": 96}, {"time": 2955, "pitch": 79, "duration": 5, "velocity": 92}, {"time": 2961, "pitch": 81, "duration": 4, "velocity": 90}, {"time": 2967, "pitch": 82, "duration": 5, "velocity": 94}, {"time": 2973, "pitch": 81, "duration": 5, "velocity": 95}, {"time": 2979, "pitch": 79, "duration": 2, "velocity": 96}, {"time": 2982, "pitch": 77, "duration": 16, "velocity": 90}, {"time": 3003, "pitch": 74, "duration": 2, "velocity": 106}, {"time": 3006, "pitch": 77, "duration": 2, "velocity": 96}, {"time": 3009, "pitch": 82, "duration": 4, "velocity": 97}, {"time": 3015, "pitch": 81, "duration": 5, "velocity": 94}, {"time": 3021, "pitch": 79, "duration": 5, "velocity": 96}, {"time": 3027, "pitch": 77, "duration": 2, "velocity": 92}, {"time": 3030, "pitch": 82, "duration": 7, "velocity": 94}, {"time": 3039, "pitch": 81, "duration": 4, "velocity": 94}, {"time": 3045, "pitch": 79, "duration": 5, "velocity": 96}, {"time": 3051, "pitch": 77, "duration": 5, "velocity": 91}, {"time": 3057, "pitch": 79, "duration": 25, "velocity": 97}, {"time": 3093, "pitch": 81, "duration": 5, "velocity": 94}, {"time": 3099, "pitch": 79, "duration": 5, "velocity": 96}, {"time": 3105, "pitch": 77, "duration": 10, "velocity": 97}, {"time": 3117, "pitch": 77, "duration": 5, "velocity": 95}, {"time": 3123, "pitch": 79, "duration": 2, "velocity": 93}, {"time": 3126, "pitch": 81, "duration": 15, "velocity": 96}, {"time": 3147, "pitch": 77, "duration": 4, "velocity": 96}, {"time": 3153, "pitch": 86, "duration": 4, "velocity": 94}, {"time": 3159, "pitch": 84, "duration": 3, "velocity": 97}, {"time": 3165, "pitch": 81, "duration": 2, "velocity": 94}, {"time": 3168, "pitch": 79, "duration": 2, "velocity": 89}, {"time": 3171, "pitch": 77, "duration": 5, "velocity": 101}, {"time": 3177, "pitch": 74, "duration": 25, "velocity": 101}, {"time": 3207, "pitch": 72, "duration": 4, "velocity": 97}, {"time": 3213, "pitch": 77, "duration": 4, "velocity": 93}, {"time": 3219, "pitch": 81, "duration": 4, "velocity": 92}, {"time": 3225, "pitch": 84, "duration": 4, "velocity": 97}, {"time": 3231, "pitch": 86, "duration": 4, "velocity": 95}, {"time": 3237, "pitch": 81, "duration": 2, "velocity": 101}, {"time": 3240, "pitch": 79, "duration": 2, "velocity": 91}, {"time": 3243, "pitch": 77, "duration": 5, "velocity": 101}, {"time": 3249, "pitch": 74, "duration": 5, "velocity": 101}, {"time": 3255, "pitch": 77, "duration": 3, "velocity": 92}, {"time": 3261, "pitch": 77, "duration": 2, "velocity": 94}, {"time": 3264, "pitch": 79, "duration": 7, "velocity": 94}, {"time": 3273, "pitch": 77, "duration": 40, "velocity": 92}]}, {"program": 0, "is_drum": false, "name": "PIANO", "notes": [{"time": 5, "pitch": 72, "duration": 19, "velocity": 84}, {"time": 6, "pitch": 67, "duration": 20, "velocity": 84}, {"time": 7, "pitch": 64, "duration": 19, "velocity": 80}, {"time": 8, "pitch": 48, "duration": 7, "velocity": 89}, {"time": 8, "pitch": 36, "duration": 7, "velocity": 89}, {"time": 8, "pitch": 60, "duration": 18, "velocity": 85}, {"time": 39, "pitch": 48, "duration": 5, "velocity": 87}, {"time": 39, "pitch": 55, "duration": 5, "velocity": 85}, {"time": 39, "pitch": 60, "duration": 5, "velocity": 83}, {"time": 39, "pitch": 64, "duration": 4, "velocity": 89}, {"time": 45, "pitch": 48, "duration": 5, "velocity": 96}, {"time": 45, "pitch": 55, "duration": 5, "velocity": 89}, {"time": 45, "pitch": 60, "duration": 5, "velocity": 90}, {"time": 45, "pitch": 64, "duration": 5, "velocity": 92}, {"time": 51, "pitch": 48, "duration": 6, "velocity": 95}, {"time": 51, "pitch": 55, "duration": 5, "velocity": 91}, {"time": 51, "pitch": 60, "duration": 5, "velocity": 90}, {"time": 51, "pitch": 64, "duration": 5, "velocity": 92}, {"time": 57, "pitch": 41, "duration": 22, "velocity": 91}, {"time": 57, "pitch": 57, "duration": 6, "velocity": 83}, {"time": 57, "pitch": 60, "duration": 7, "velocity": 89}, {"time": 63, "pitch": 48, "duration": 7, "velocity": 69}, {"time": 69, "pitch": 57, "duration": 5, "velocity": 88}, {"time": 69, "pitch": 60, "duration": 5, "velocity": 90}, {"time": 69, "pitch": 65, "duration": 5, "velocity": 89}, {"time": 72, "pitch": 48, "duration": 5, "velocity": 79}, {"time": 78, "pitch": 57, "duration": 2, "velocity": 78}, {"time": 81, "pitch": 41, "duration": 15, "velocity": 90}, {"time": 81, "pitch": 57, "duration": 8, "velocity": 85}, {"time": 81, "pitch": 60, "duration": 8, "velocity": 85}, {"time": 87, "pitch": 48, "duration": 7, "velocity": 72}, {"time": 93, "pitch": 57, "duration": 3, "velocity": 90}, {"time": 93, "pitch": 60, "duration": 3, "velocity": 93}, {"time": 93, "pitch": 65, "duration": 3, "velocity": 91}, {"time": 105, "pitch": 45, "duration": 22, "velocity": 90}, {"time": 105, "pitch": 57, "duration": 6, "velocity": 86}, {"time": 105, "pitch": 60, "duration": 6, "velocity": 87}, {"time": 105, "pitch": 64, "duration": 5, "velocity": 91}, {"time": 111, "pitch": 52, "duration": 7, "velocity": 76}, {"time": 117, "pitch": 57, "duration": 4, "velocity": 90}, {"time": 117, "pitch": 60, "duration": 4, "velocity": 92}, {"time": 120, "pitch": 52, "duration": 5, "velocity": 80}, {"time": 126, "pitch": 57, "duration": 1, "velocity": 78}, {"time": 129, "pitch": 45, "duration": 18, "velocity": 90}, {"time": 129, "pitch": 57, "duration": 6, "velocity": 86}, {"time": 129, "pitch": 60, "duration": 6, "velocity": 84}, {"time": 135, "pitch": 52, "duration": 6, "velocity": 72}, {"time": 141, "pitch": 57, "duration": 3, "velocity": 93}, {"time": 141, "pitch": 64, "duration": 3, "velocity": 92}, {"time": 144, "pitch": 52, "duration": 4, "velocity": 85}, {"time": 147, "pitch": 60, "duration": 3, "velocity": 85}, {"time": 150, "pitch": 57, "duration": 2, "velocity": 83}, {"time": 153, "pitch": 46, "duration": 21, "velocity": 92}, {"time": 153, "pitch": 62, "duration": 8, "velocity": 84}, {"time": 159, "pitch": 53, "duration": 8, "velocity": 83}, {"time": 165, "pitch": 58, "duration": 8, "velocity": 92}, {"time": 165, "pitch": 62, "duration": 9, "velocity": 92}, {"time": 171, "pitch": 53, "duration": 7, "velocity": 77}, {"time": 177, "pitch": 46, "duration": 16, "velocity": 83}, {"time": 177, "pitch": 58, "duration": 9, "velocity": 83}, {"time": 177, "pitch": 62, "duration": 10, "velocity": 87}, {"time": 183, "pitch": 53, "duration": 7, "velocity": 71}, {"time": 189, "pitch": 58, "duration": 4, "velocity": 91}, {"time": 189, "pitch": 62, "duration": 6, "velocity": 91}, {"time": 189, "pitch": 65, "duration": 7, "velocity": 88}, {"time": 192, "pitch": 53, "duration": 4, "velocity": 85}, {"time": 195, "pitch": 46, "duration": 2, "velocity": 83}, {"time": 201, "pitch": 47, "duration": 22, "velocity": 91}, {"time": 201, "pitch": 59, "duration": 7, "velocity": 86}, {"time": 201, "pitch": 62, "duration": 7, "velocity": 90}, {"time": 207, "pitch": 53, "duration": 16, "velocity": 81}, {"time": 213, "pitch": 59, "duration": 7, "velocity": 91}, {"time": 213, "pitch": 65, "duration": 7, "velocity": 78}, {"time": 219, "pitch": 62, "duration": 2, "velocity": 90}, {"time": 222, "pitch": 59, "duration": 5, "velocity": 81}, {"time": 222, "pitch": 62, "duration": 7, "velocity": 87}, {"time": 225, "pitch": 47, "duration": 15, "velocity": 92}, {"time": 225, "pitch": 65, "duration": 6, "velocity": 77}, {"time": 225, "pitch": 71, "duration": 5, "velocity": 78}, {"time": 231, "pitch": 53, "duration": 8, "velocity": 73}, {"time": 237, "pitch": 59, "duration": 4, "velocity": 88}, {"time": 237, "pitch": 62, "duration": 3, "velocity": 92}, {"time": 237, "pitch": 65, "duration": 4, "velocity": 91}, {"time": 243, "pitch": 47, "duration": 2, "velocity": 90}, {"time": 249, "pitch": 48, "duration": 18, "velocity": 95}, {"time": 249, "pitch": 55, "duration": 15, "velocity": 86}, {"time": 249, "pitch": 60, "duration": 15, "velocity": 90}, {"time": 273, "pitch": 45, "duration": 11, "velocity": 90}, {"time": 273, "pitch": 57, "duration": 7, "velocity": 83}, {"time": 273, "pitch": 60, "duration": 8, "velocity": 87}, {"time": 285, "pitch": 50, "duration": 3, "velocity": 90}, {"time": 285, "pitch": 57, "duration": 4, "velocity": 81}, {"time": 285, "pitch": 62, "duration": 4, "velocity": 88}, {"time": 297, "pitch": 43, "duration": 6, "velocity": 90}, {"time": 297, "pitch": 55, "duration": 5, "velocity": 82}, {"time": 297, "pitch": 62, "duration": 6, "velocity": 87}, {"time": 309, "pitch": 48, "duration": 5, "velocity": 95}, {"time": 309, "pitch": 55, "duration": 5, "velocity": 90}, {"time": 309, "pitch": 60, "duration": 4, "velocity": 89}, {"time": 321, "pitch": 41, "duration": 45, "velocity": 90}, {"time": 321, "pitch": 53, "duration": 7, "velocity": 80}, {"time": 321, "pitch": 57, "duration": 5, "velocity": 82}, {"time": 327, "pitch": 48, "duration": 20, "velocity": 64}, {"time": 333, "pitch": 57, "duration": 7, "velocity": 80}, {"time": 333, "pitch": 60, "duration": 7, "velocity": 86}, {"time": 339, "pitch": 53, "duration": 3, "velocity": 62}, {"time": 345, "pitch": 57, "duration": 4, "velocity": 79}, {"time": 351, "pitch": 48, "duration": 7, "velocity": 67}, {"time": 354, "pitch": 53, "duration": 2, "velocity": 83}, {"time": 357, "pitch": 53, "duration": 3, "velocity": 90}, {"time": 357, "pitch": 58, "duration": 3, "velocity": 90}, {"time": 360, "pitch": 48, "duration": 4, "velocity": 84}, {"time": 363, "pitch": 53, "duration": 2, "velocity": 83}, {"time": 369, "pitch": 41, "duration": 17, "velocity": 86}, {"time": 369, "pitch": 53, "duration": 14, "velocity": 79}, {"time": 369, "pitch": 57, "duration": 7, "velocity": 83}, {"time": 375, "pitch": 48, "duration": 9, "velocity": 59}, {"time": 381, "pitch": 60, "duration": 6, "velocity": 91}, {"time": 387, "pitch": 65, "duration": 3, "velocity": 86}, {"time": 393, "pitch": 45, "duration": 17, "velocity": 90}, {"time": 393, "pitch": 57, "duration": 10, "velocity": 78}, {"time": 393, "pitch": 60, "duration": 7, "velocity": 84}, {"time": 399, "pitch": 52, "duration": 10, "velocity": 74}, {"time": 405, "pitch": 57, "duration": 3, "velocity": 74}, {"time": 405, "pitch": 60, "duration": 3, "velocity": 88}, {"time": 405, "pitch": 64, "duration": 3, "velocity": 90}, {"time": 417, "pitch": 50, "duration": 18, "velocity": 89}, {"time": 417, "pitch": 57, "duration": 3, "velocity": 82}, {"time": 417, "pitch": 65, "duration": 8, "velocity": 87}, {"time": 423, "pitch": 57, "duration": 7, "velocity": 79}, {"time": 429, "pitch": 65, "duration": 7, "velocity": 95}, {"time": 435, "pitch": 57, "duration": 3, "velocity": 86}, {"time": 441, "pitch": 45, "duration": 14, "velocity": 90}, {"time": 441, "pitch": 57, "duration": 9, "velocity": 76}, {"time": 441, "pitch": 60, "duration": 6, "velocity": 82}, {"time": 447, "pitch": 52, "duration": 9, "velocity": 77}, {"time": 453, "pitch": 57, "duration": 3, "velocity": 86}, {"time": 453, "pitch": 64, "duration": 2, "velocity": 90}, {"time": 465, "pitch": 46, "duration": 17, "velocity": 86}, {"time": 465, "pitch": 62, "duration": 12, "velocity": 70}, {"time": 465, "pitch": 65, "duration": 17, "velocity": 86}, {"time": 471, "pitch": 53, "duration": 11, "velocity": 76}, {"time": 477, "pitch": 58, "duration": 5, "velocity": 87}, {"time": 489, "pitch": 41, "duration": 15, "velocity": 79}, {"time": 489, "pitch": 57, "duration": 12, "velocity": 77}, {"time": 489, "pitch": 60, "duration": 13, "velocity": 79}, {"time": 495, "pitch": 48, "duration": 8, "velocity": 74}, {"time": 501, "pitch": 65, "duration": 10, "velocity": 90}, {"time": 507, "pitch": 57, "duration": 5, "velocity": 84}, {"time": 513, "pitch": 50, "duration": 14, "velocity": 86}, {"time": 513, "pitch": 57, "duration": 1, "velocity": 63}, {"time": 513, "pitch": 62, "duration": 13, "velocity": 85}, {"time": 519, "pitch": 57, "duration": 7, "velocity": 83}, {"time": 525, "pitch": 65, "duration": 10, "velocity": 86}, {"time": 537, "pitch": 43, "duration": 11, "velocity": 91}, {"time": 537, "pitch": 55, "duration": 4, "velocity": 84}, {"time": 537, "pitch": 62, "duration": 10, "velocity": 85}, {"time": 543, "pitch": 50, "duration": 4, "velocity": 83}, {"time": 549, "pitch": 48, "duration": 7, "velocity": 90}, {"time": 549, "pitch": 55, "duration": 3, "velocity": 85}, {"time": 549, "pitch": 60, "duration": 7, "velocity": 85}, {"time": 555, "pitch": 55, "duration": 3, "velocity": 87}, {"time": 561, "pitch": 41, "duration": 17, "velocity": 90}, {"time": 561, "pitch": 53, "duration": 16, "velocity": 78}, {"time": 561, "pitch": 57, "duration": 13, "velocity": 82}, {"time": 567, "pitch": 48, "duration": 11, "velocity": 74}, {"time": 573, "pitch": 60, "duration": 5, "velocity": 88}, {"time": 585, "pitch": 45, "duration": 18, "velocity": 90}, {"time": 585, "pitch": 57, "duration": 13, "velocity": 75}, {"time": 585, "pitch": 60, "duration": 12, "velocity": 80}, {"time": 591, "pitch": 52, "duration": 12, "velocity": 82}, {"time": 597, "pitch": 64, "duration": 6, "velocity": 93}, {"time": 603, "pitch": 60, "duration": 6, "velocity": 86}, {"time": 609, "pitch": 50, "duration": 16, "velocity": 86}, {"time": 609, "pitch": 65, "duration": 13, "velocity": 90}, {"time": 615, "pitch": 53, "duration": 10, "velocity": 72}, {"time": 621, "pitch": 57, "duration": 5, "velocity": 81}, {"time": 621, "pitch": 62, "duration": 6, "velocity": 83}, {"time": 633, "pitch": 45, "duration": 15, "velocity": 84}, {"time": 633, "pitch": 57, "duration": 13, "velocity": 75}, {"time": 633, "pitch": 60, "duration": 8, "velocity": 81}, {"time": 639, "pitch": 52, "duration": 10, "velocity": 77}, {"time": 645, "pitch": 64, "duration": 5, "velocity": 92}, {"time": 651, "pitch": 60, "duration": 2, "velocity": 75}, {"time": 657, "pitch": 46, "duration": 14, "velocity": 90}, {"time": 657, "pitch": 62, "duration": 9, "velocity": 84}, {"time": 663, "pitch": 53, "duration": 8, "velocity": 77}, {"time": 669, "pitch": 58, "duration": 4, "velocity": 84}, {"time": 669, "pitch": 62, "duration": 4, "velocity": 88}, {"time": 681, "pitch": 41, "duration": 18, "velocity": 88}, {"time": 681, "pitch": 57, "duration": 5, "velocity": 73}, {"time": 681, "pitch": 60, "duration": 4, "velocity": 79}, {"time": 687, "pitch": 48, "duration": 12, "velocity": 76}, {"time": 693, "pitch": 53, "duration": 6, "velocity": 85}, {"time": 696, "pitch": 57, "duration": 4, "velocity": 84}, {"time": 699, "pitch": 60, "duration": 1, "velocity": 80}, {"time": 705, "pitch": 43, "duration": 19, "velocity": 91}, {"time": 705, "pitch": 55, "duration": 7, "velocity": 84}, {"time": 705, "pitch": 58, "duration": 6, "velocity": 85}, {"time": 705, "pitch": 62, "duration": 6, "velocity": 86}, {"time": 711, "pitch": 50, "duration": 8, "velocity": 77}, {"time": 717, "pitch": 58, "duration": 5, "velocity": 91}, {"time": 717, "pitch": 62, "duration": 7, "velocity": 91}, {"time": 723, "pitch": 55, "duration": 4, "velocity": 89}, {"time": 729, "pitch": 48, "duration": 4, "velocity": 90}, {"time": 729, "pitch": 55, "duration": 2, "velocity": 85}, {"time": 729, "pitch": 60, "duration": 3, "velocity": 91}, {"time": 729, "pitch": 64, "duration": 3, "velocity": 92}, {"time": 735, "pitch": 46, "duration": 7, "velocity": 90}, {"time": 735, "pitch": 58, "duration": 10, "velocity": 74}, {"time": 741, "pitch": 50, "duration": 4, "velocity": 99}, {"time": 741, "pitch": 62, "duration": 6, "velocity": 90}, {"time": 747, "pitch": 53, "duration": 3, "velocity": 86}, {"time": 747, "pitch": 65, "duration": 5, "velocity": 91}, {"time": 753, "pitch": 48, "duration": 17, "velocity": 101}, {"time": 753, "pitch": 60, "duration": 6, "velocity": 90}, {"time": 753, "pitch": 64, "duration": 5, "velocity": 97}, {"time": 759, "pitch": 55, "duration": 5, "velocity": 85}, {"time": 762, "pitch": 60, "duration": 2, "velocity": 95}, {"time": 765, "pitch": 55, "duration": 5, "velocity": 89}, {"time": 765, "pitch": 62, "duration": 4, "velocity": 99}, {"time": 771, "pitch": 60, "duration": 2, "velocity": 101}, {"time": 777, "pitch": 41, "duration": 17, "velocity": 90}, {"time": 777, "pitch": 53, "duration": 10, "velocity": 80}, {"time": 777, "pitch": 55, "duration": 2, "velocity": 82}, {"time": 777, "pitch": 57, "duration": 9, "velocity": 84}, {"time": 783, "pitch": 48, "duration": 8, "velocity": 84}, {"time": 789, "pitch": 57, "duration": 2, "velocity": 93}, {"time": 789, "pitch": 60, "duration": 3, "velocity": 91}, {"time": 795, "pitch": 48, "duration": 2, "velocity": 66}, {"time": 798, "pitch": 53, "duration": 8, "velocity": 87}, {"time": 801, "pitch": 41, "duration": 17, "velocity": 91}, {"time": 801, "pitch": 57, "duration": 6, "velocity": 82}, {"time": 801, "pitch": 60, "duration": 7, "velocity": 83}, {"time": 801, "pitch": 65, "duration": 7, "velocity": 90}, {"time": 807, "pitch": 48, "duration": 7, "velocity": 76}, {"time": 813, "pitch": 60, "duration": 6, "velocity": 96}, {"time": 816, "pitch": 48, "duration": 2, "velocity": 91}, {"time": 819, "pitch": 57, "duration": 2, "velocity": 90}, {"time": 825, "pitch": 50, "duration": 20, "velocity": 90}, {"time": 825, "pitch": 57, "duration": 11, "velocity": 83}, {"time": 825, "pitch": 62, "duration": 12, "velocity": 83}, {"time": 831, "pitch": 53, "duration": 15, "velocity": 75}, {"time": 837, "pitch": 65, "duration": 7, "velocity": 91}, {"time": 840, "pitch": 57, "duration": 4, "velocity": 86}, {"time": 843, "pitch": 62, "duration": 4, "velocity": 90}, {"time": 846, "pitch": 57, "duration": 2, "velocity": 78}, {"time": 849, "pitch": 50, "duration": 17, "velocity": 92}, {"time": 849, "pitch": 57, "duration": 3, "velocity": 85}, {"time": 849, "pitch": 62, "duration": 7, "velocity": 90}, {"time": 855, "pitch": 57, "duration": 3, "velocity": 85}, {"time": 861, "pitch": 57, "duration": 4, "velocity": 92}, {"time": 861, "pitch": 65, "duration": 6, "velocity": 92}, {"time": 867, "pitch": 62, "duration": 2, "velocity": 87}, {"time": 873, "pitch": 41, "duration": 22, "velocity": 90}, {"time": 873, "pitch": 57, "duration": 5, "velocity": 81}, {"time": 873, "pitch": 60, "duration": 6, "velocity": 82}, {"time": 879, "pitch": 48, "duration": 15, "velocity": 71}, {"time": 885, "pitch": 53, "duration": 6, "velocity": 91}, {"time": 888, "pitch": 57, "duration": 4, "velocity": 88}, {"time": 891, "pitch": 60, "duration": 3, "velocity": 89}, {"time": 894, "pitch": 65, "duration": 2, "velocity": 92}, {"time": 897, "pitch": 41, "duration": 16, "velocity": 91}, {"time": 897, "pitch": 53, "duration": 10, "velocity": 92}, {"time": 897, "pitch": 57, "duration": 1, "velocity": 81}, {"time": 897, "pitch": 60, "duration": 8, "velocity": 92}, {"time": 897, "pitch": 65, "duration": 7, "velocity": 90}, {"time": 903, "pitch": 48, "duration": 7, "velocity": 82}, {"time": 909, "pitch": 53, "duration": 2, "velocity": 91}, {"time": 909, "pitch": 57, "duration": 2, "velocity": 93}, {"time": 909, "pitch": 60, "duration": 3, "velocity": 93}, {"time": 915, "pitch": 48, "duration": 2, "velocity": 85}, {"time": 921, "pitch": 38, "duration": 1, "velocity": 90}, {"time": 921, "pitch": 57, "duration": 13, "velocity": 88}, {"time": 921, "pitch": 65, "duration": 15, "velocity": 90}, {"time": 927, "pitch": 45, "duration": 17, "velocity": 77}, {"time": 933, "pitch": 53, "duration": 10, "velocity": 91}, {"time": 936, "pitch": 57, "duration": 3, "velocity": 95}, {"time": 939, "pitch": 62, "duration": 3, "velocity": 92}, {"time": 942, "pitch": 57, "duration": 4, "velocity": 87}, {"time": 945, "pitch": 50, "duration": 13, "velocity": 91}, {"time": 945, "pitch": 65, "duration": 9, "velocity": 92}, {"time": 951, "pitch": 53, "duration": 7, "velocity": 82}, {"time": 957, "pitch": 57, "duration": 3, "velocity": 91}, {"time": 957, "pitch": 62, "duration": 2, "velocity": 92}, {"time": 969, "pitch": 46, "duration": 21, "velocity": 91}, {"time": 969, "pitch": 58, "duration": 11, "velocity": 82}, {"time": 969, "pitch": 62, "duration": 8, "velocity": 85}, {"time": 969, "pitch": 65, "duration": 8, "velocity": 90}, {"time": 975, "pitch": 53, "duration": 9, "velocity": 66}, {"time": 975, "pitch": 55, "duration": 1, "velocity": 62}, {"time": 981, "pitch": 58, "duration": 5, "velocity": 90}, {"time": 981, "pitch": 62, "duration": 5, "velocity": 94}, {"time": 981, "pitch": 65, "duration": 5, "velocity": 94}, {"time": 987, "pitch": 53, "duration": 5, "velocity": 73}, {"time": 990, "pitch": 58, "duration": 2, "velocity": 89}, {"time": 993, "pitch": 46, "duration": 17, "velocity": 93}, {"time": 993, "pitch": 58, "duration": 7, "velocity": 86}, {"time": 993, "pitch": 62, "duration": 8, "velocity": 91}, {"time": 999, "pitch": 53, "duration": 7, "velocity": 86}, {"time": 1002, "pitch": 58, "duration": 2, "velocity": 84}, {"time": 1005, "pitch": 58, "duration": 4, "velocity": 91}, {"time": 1005, "pitch": 65, "duration": 5, "velocity": 92}, {"time": 1008, "pitch": 53, "duration": 3, "velocity": 90}, {"time": 1011, "pitch": 58, "duration": 3, "velocity": 83}, {"time": 1017, "pitch": 45, "duration": 16, "velocity": 92}, {"time": 1017, "pitch": 55, "duration": 9, "velocity": 80}, {"time": 1017, "pitch": 57, "duration": 2, "velocity": 77}, {"time": 1017, "pitch": 61, "duration": 10, "velocity": 86}, {"time": 1023, "pitch": 52, "duration": 8, "velocity": 83}, {"time": 1029, "pitch": 55, "duration": 4, "velocity": 96}, {"time": 1029, "pitch": 61, "duration": 4, "velocity": 95}, {"time": 1041, "pitch": 38, "duration": 15, "velocity": 92}, {"time": 1041, "pitch": 57, "duration": 6, "velocity": 88}, {"time": 1041, "pitch": 65, "duration": 10, "velocity": 90}, {"time": 1047, "pitch": 45, "duration": 8, "velocity": 73}, {"time": 1050, "pitch": 57, "duration": 1, "velocity": 77}, {"time": 1053, "pitch": 57, "duration": 4, "velocity": 93}, {"time": 1053, "pitch": 62, "duration": 3, "velocity": 92}, {"time": 1059, "pitch": 38, "duration": 1, "velocity": 91}, {"time": 1065, "pitch": 43, "duration": 23, "velocity": 91}, {"time": 1065, "pitch": 55, "duration": 9, "velocity": 86}, {"time": 1065, "pitch": 58, "duration": 7, "velocity": 80}, {"time": 1065, "pitch": 62, "duration": 8, "velocity": 90}, {"time": 1071, "pitch": 50, "duration": 16, "velocity": 76}, {"time": 1077, "pitch": 55, "duration": 3, "velocity": 91}, {"time": 1077, "pitch": 62, "duration": 4, "velocity": 91}, {"time": 1080, "pitch": 58, "duration": 3, "velocity": 88}, {"time": 1083, "pitch": 55, "duration": 4, "velocity": 91}, {"time": 1086, "pitch": 58, "duration": 2, "velocity": 91}, {"time": 1089, "pitch": 43, "duration": 15, "velocity": 92}, {"time": 1089, "pitch": 58, "duration": 1, "velocity": 56}, {"time": 1089, "pitch": 67, "duration": 6, "velocity": 93}, {"time": 1092, "pitch": 50, "duration": 11, "velocity": 85}, {"time": 1095, "pitch": 62, "duration": 3, "velocity": 91}, {"time": 1098, "pitch": 55, "duration": 2, "velocity": 84}, {"time": 1101, "pitch": 55, "duration": 5, "velocity": 91}, {"time": 1101, "pitch": 58, "duration": 5, "velocity": 97}, {"time": 1101, "pitch": 62, "duration": 6, "velocity": 96}, {"time": 1107, "pitch": 43, "duration": 4, "velocity": 92}, {"time": 1113, "pitch": 48, "duration": 3, "velocity": 91}, {"time": 1113, "pitch": 55, "duration": 2, "velocity": 90}, {"time": 1113, "pitch": 60, "duration": 2, "velocity": 90}, {"time": 1119, "pitch": 48, "duration": 1, "velocity": 79}, {"time": 1119, "pitch": 55, "duration": 2, "velocity": 78}, {"time": 1119, "pitch": 60, "duration": 2, "velocity": 82}, {"time": 1125, "pitch": 48, "duration": 8, "velocity": 99}, {"time": 1125, "pitch": 55, "duration": 3, "velocity": 90}, {"time": 1125, "pitch": 60, "duration": 3, "velocity": 93}, {"time": 1131, "pitch": 55, "duration": 3, "velocity": 94}, {"time": 1131, "pitch": 62, "duration": 4, "velocity": 95}, {"time": 1137, "pitch": 48, "duration": 3, "velocity": 104}, {"time": 1137, "pitch": 55, "duration": 4, "velocity": 92}, {"time": 1137, "pitch": 60, "duration": 4, "velocity": 96}, {"time": 1137, "pitch": 64, "duration": 3, "velocity": 99}, {"time": 1143, "pitch": 48, "duration": 3, "velocity": 96}, {"time": 1143, "pitch": 55, "duration": 3, "velocity": 92}, {"time": 1143, "pitch": 60, "duration": 3, "velocity": 92}, {"time": 1149, "pitch": 45, "duration": 10, "velocity": 94}, {"time": 1149, "pitch": 57, "duration": 11, "velocity": 87}, {"time": 1149, "pitch": 61, "duration": 9, "velocity": 97}, {"time": 1161, "pitch": 50, "duration": 24, "velocity": 95}, {"time": 1161, "pitch": 57, "duration": 3, "velocity": 90}, {"time": 1161, "pitch": 65, "duration": 3, "velocity": 88}, {"time": 1167, "pitch": 57, "duration": 3, "velocity": 78}, {"time": 1167, "pitch": 62, "duration": 3, "velocity": 85}, {"time": 1167, "pitch": 65, "duration": 3, "velocity": 86}, {"time": 1173, "pitch": 57, "duration": 3, "velocity": 90}, {"time": 1173, "pitch": 62, "duration": 4, "velocity": 94}, {"time": 1173, "pitch": 65, "duration": 4, "velocity": 92}, {"time": 1179, "pitch": 57, "duration": 4, "velocity": 78}, {"time": 1179, "pitch": 62, "duration": 3, "velocity": 83}, {"time": 1179, "pitch": 65, "duration": 4, "velocity": 78}, {"time": 1185, "pitch": 49, "duration": 15, "velocity": 91}, {"time": 1185, "pitch": 57, "duration": 3, "velocity": 81}, {"time": 1185, "pitch": 61, "duration": 4, "velocity": 90}, {"time": 1185, "pitch": 65, "duration": 4, "velocity": 88}, {"time": 1191, "pitch": 57, "duration": 2, "velocity": 64}, {"time": 1191, "pitch": 61, "duration": 2, "velocity": 76}, {"time": 1191, "pitch": 65, "duration": 2, "velocity": 73}, {"time": 1197, "pitch": 57, "duration": 2, "velocity": 90}, {"time": 1197, "pitch": 61, "duration": 2, "velocity": 94}, {"time": 1197, "pitch": 65, "duration": 2, "velocity": 90}, {"time": 1203, "pitch": 57, "duration": 2, "velocity": 78}, {"time": 1203, "pitch": 61, "duration": 1, "velocity": 86}, {"time": 1203, "pitch": 65, "duration": 2, "velocity": 81}, {"time": 1209, "pitch": 48, "duration": 22, "velocity": 91}, {"time": 1209, "pitch": 57, "duration": 3, "velocity": 83}, {"time": 1209, "pitch": 60, "duration": 3, "velocity": 91}, {"time": 1209, "pitch": 65, "duration": 3, "velocity": 86}, {"time": 1215, "pitch": 57, "duration": 1, "velocity": 75}, {"time": 1215, "pitch": 60, "duration": 2, "velocity": 81}, {"time": 1215, "pitch": 65, "duration": 2, "velocity": 78}, {"time": 1221, "pitch": 57, "duration": 1, "velocity": 90}, {"time": 1221, "pitch": 60, "duration": 2, "velocity": 94}, {"time": 1221, "pitch": 65, "duration": 2, "velocity": 91}, {"time": 1227, "pitch": 57, "duration": 2, "velocity": 81}, {"time": 1227, "pitch": 60, "duration": 3, "velocity": 87}, {"time": 1227, "pitch": 65, "duration": 4, "velocity": 85}, {"time": 1233, "pitch": 47, "duration": 22, "velocity": 87}, {"time": 1233, "pitch": 59, "duration": 3, "velocity": 80}, {"time": 1233, "pitch": 62, "duration": 3, "velocity": 82}, {"time": 1233, "pitch": 65, "duration": 3, "velocity": 78}, {"time": 1239, "pitch": 59, "duration": 1, "velocity": 83}, {"time": 1239, "pitch": 62, "duration": 1, "velocity": 86}, {"time": 1239, "pitch": 65, "duration": 1, "velocity": 83}, {"time": 1245, "pitch": 59, "duration": 10, "velocity": 97}, {"time": 1245, "pitch": 62, "duration": 11, "velocity": 101}, {"time": 1245, "pitch": 65, "duration": 11, "velocity": 101}, {"time": 1251, "pitch": 53, "duration": 6, "velocity": 85}, {"time": 1257, "pitch": 48, "duration": 18, "velocity": 91}, {"time": 1257, "pitch": 55, "duration": 4, "velocity": 85}, {"time": 1257, "pitch": 60, "duration": 7, "velocity": 88}, {"time": 1257, "pitch": 64, "duration": 6, "velocity": 90}, {"time": 1269, "pitch": 55, "duration": 3, "velocity": 93}, {"time": 1269, "pitch": 60, "duration": 5, "velocity": 95}, {"time": 1269, "pitch": 64, "duration": 6, "velocity": 97}, {"time": 1281, "pitch": 45, "duration": 11, "velocity": 91}, {"time": 1281, "pitch": 57, "duration": 3, "velocity": 87}, {"time": 1281, "pitch": 60, "duration": 5, "velocity": 90}, {"time": 1281, "pitch": 64, "duration": 5, "velocity": 93}, {"time": 1287, "pitch": 57, "duration": 4, "velocity": 90}, {"time": 1293, "pitch": 50, "duration": 4, "velocity": 91}, {"time": 1293, "pitch": 57, "duration": 2, "velocity": 80}, {"time": 1293, "pitch": 62, "duration": 3, "velocity": 89}, {"time": 1293, "pitch": 65, "duration": 4, "velocity": 89}, {"time": 1305, "pitch": 43, "duration": 13, "velocity": 90}, {"time": 1305, "pitch": 55, "duration": 3, "velocity": 82}, {"time": 1305, "pitch": 58, "duration": 4, "velocity": 77}, {"time": 1305, "pitch": 62, "duration": 7, "velocity": 86}, {"time": 1311, "pitch": 55, "duration": 4, "velocity": 86}, {"time": 1317, "pitch": 48, "duration": 7, "velocity": 96}, {"time": 1317, "pitch": 55, "duration": 5, "velocity": 96}, {"time": 1317, "pitch": 60, "duration": 5, "velocity": 91}, {"time": 1329, "pitch": 41, "duration": 21, "velocity": 91}, {"time": 1329, "pitch": 53, "duration": 7, "velocity": 80}, {"time": 1329, "pitch": 57, "duration": 5, "velocity": 82}, {"time": 1335, "pitch": 48, "duration": 14, "velocity": 76}, {"time": 1341, "pitch": 53, "duration": 3, "velocity": 83}, {"time": 1341, "pitch": 57, "duration": 3, "velocity": 90}, {"time": 1341, "pitch": 60, "duration": 3, "velocity": 86}, {"time": 1347, "pitch": 53, "duration": 4, "velocity": 82}, {"time": 1353, "pitch": 41, "duration": 16, "velocity": 91}, {"time": 1353, "pitch": 53, "duration": 5, "velocity": 85}, {"time": 1353, "pitch": 57, "duration": 5, "velocity": 91}, {"time": 1353, "pitch": 60, "duration": 6, "velocity": 92}, {"time": 1353, "pitch": 65, "duration": 6, "velocity": 87}, {"time": 1359, "pitch": 48, "duration": 7, "velocity": 90}, {"time": 1362, "pitch": 53, "duration": 1, "velocity": 93}, {"time": 1365, "pitch": 53, "duration": 4, "velocity": 94}, {"time": 1365, "pitch": 57, "duration": 4, "velocity": 97}, {"time": 1365, "pitch": 60, "duration": 4, "velocity": 97}, {"time": 1365, "pitch": 65, "duration": 4, "velocity": 92}, {"time": 1368, "pitch": 48, "duration": 10, "velocity": 104}, {"time": 1371, "pitch": 53, "duration": 5, "velocity": 97}, {"time": 1371, "pitch": 60, "duration": 1, "velocity": 59}, {"time": 1374, "pitch": 65, "duration": 3, "velocity": 96}, {"time": 1377, "pitch": 46, "duration": 22, "velocity": 92}, {"time": 1377, "pitch": 58, "duration": 7, "velocity": 87}, {"time": 1377, "pitch": 65, "duration": 7, "velocity": 91}, {"time": 1383, "pitch": 53, "duration": 16, "velocity": 87}, {"time": 1389, "pitch": 58, "duration": 5, "velocity": 93}, {"time": 1392, "pitch": 62, "duration": 7, "velocity": 91}, {"time": 1395, "pitch": 65, "duration": 4, "velocity": 91}, {"time": 1398, "pitch": 58, "duration": 12, "velocity": 84}, {"time": 1401, "pitch": 46, "duration": 15, "velocity": 99}, {"time": 1401, "pitch": 62, "duration": 8, "velocity": 90}, {"time": 1401, "pitch": 65, "duration": 8, "velocity": 91}, {"time": 1407, "pitch": 53, "duration": 10, "velocity": 83}, {"time": 1413, "pitch": 58, "duration": 3, "velocity": 91}, {"time": 1413, "pitch": 62, "duration": 3, "velocity": 92}, {"time": 1413, "pitch": 65, "duration": 4, "velocity": 91}, {"time": 1419, "pitch": 46, "duration": 4, "velocity": 90}, {"time": 1425, "pitch": 45, "duration": 23, "velocity": 92}, {"time": 1425, "pitch": 55, "duration": 5, "velocity": 91}, {"time": 1425, "pitch": 60, "duration": 6, "velocity": 91}, {"time": 1431, "pitch": 52, "duration": 8, "velocity": 79}, {"time": 1437, "pitch": 57, "duration": 3, "velocity": 92}, {"time": 1437, "pitch": 64, "duration": 3, "velocity": 95}, {"time": 1440, "pitch": 52, "duration": 7, "velocity": 83}, {"time": 1443, "pitch": 57, "duration": 1, "velocity": 76}, {"time": 1446, "pitch": 57, "duration": 1, "velocity": 86}, {"time": 1446, "pitch": 60, "duration": 2, "velocity": 86}, {"time": 1449, "pitch": 45, "duration": 15, "velocity": 93}, {"time": 1449, "pitch": 55, "duration": 7, "velocity": 92}, {"time": 1449, "pitch": 60, "duration": 7, "velocity": 91}, {"time": 1455, "pitch": 52, "duration": 8, "velocity": 79}, {"time": 1461, "pitch": 55, "duration": 3, "velocity": 92}, {"time": 1461, "pitch": 60, "duration": 3, "velocity": 97}, {"time": 1461, "pitch": 64, "duration": 3, "velocity": 97}, {"time": 1467, "pitch": 45, "duration": 3, "velocity": 92}, {"time": 1473, "pitch": 43, "duration": 22, "velocity": 91}, {"time": 1473, "pitch": 55, "duration": 14, "velocity": 90}, {"time": 1473, "pitch": 58, "duration": 8, "velocity": 85}, {"time": 1473, "pitch": 62, "duration": 9, "velocity": 90}, {"time": 1479, "pitch": 50, "duration": 15, "velocity": 77}, {"time": 1485, "pitch": 67, "duration": 4, "velocity": 95}, {"time": 1488, "pitch": 62, "duration": 4, "velocity": 94}, {"time": 1491, "pitch": 58, "duration": 2, "velocity": 94}, {"time": 1494, "pitch": 55, "duration": 2, "velocity": 91}, {"time": 1497, "pitch": 43, "duration": 14, "velocity": 91}, {"time": 1497, "pitch": 55, "duration": 8, "velocity": 81}, {"time": 1497, "pitch": 58, "duration": 7, "velocity": 84}, {"time": 1497, "pitch": 62, "duration": 7, "velocity": 90}, {"time": 1503, "pitch": 50, "duration": 8, "velocity": 75}, {"time": 1509, "pitch": 55, "duration": 3, "velocity": 93}, {"time": 1509, "pitch": 58, "duration": 3, "velocity": 96}, {"time": 1509, "pitch": 62, "duration": 4, "velocity": 96}, {"time": 1515, "pitch": 43, "duration": 2, "velocity": 91}, {"time": 1521, "pitch": 36, "duration": 1, "velocity": 89}, {"time": 1521, "pitch": 55, "duration": 4, "velocity": 88}, {"time": 1521, "pitch": 60, "duration": 5, "velocity": 90}, {"time": 1521, "pitch": 64, "duration": 5, "velocity": 92}, {"time": 1527, "pitch": 48, "duration": 16, "velocity": 84}, {"time": 1530, "pitch": 55, "duration": 13, "velocity": 90}, {"time": 1533, "pitch": 60, "duration": 3, "velocity": 92}, {"time": 1536, "pitch": 62, "duration": 4, "velocity": 94}, {"time": 1539, "pitch": 64, "duration": 3, "velocity": 99}, {"time": 1542, "pitch": 60, "duration": 2, "velocity": 85}, {"time": 1545, "pitch": 48, "duration": 13, "velocity": 95}, {"time": 1545, "pitch": 60, "duration": 9, "velocity": 90}, {"time": 1545, "pitch": 64, "duration": 8, "velocity": 90}, {"time": 1545, "pitch": 67, "duration": 8, "velocity": 90}, {"time": 1551, "pitch": 55, "duration": 6, "velocity": 78}, {"time": 1557, "pitch": 60, "duration": 1, "velocity": 90}, {"time": 1557, "pitch": 64, "duration": 1, "velocity": 90}, {"time": 1557, "pitch": 67, "duration": 1, "velocity": 88}, {"time": 1569, "pitch": 41, "duration": 46, "velocity": 90}, {"time": 1569, "pitch": 53, "duration": 9, "velocity": 77}, {"time": 1569, "pitch": 60, "duration": 8, "velocity": 89}, {"time": 1575, "pitch": 48, "duration": 8, "velocity": 72}, {"time": 1581, "pitch": 53, "duration": 7, "velocity": 84}, {"time": 1581, "pitch": 60, "duration": 10, "velocity": 85}, {"time": 1593, "pitch": 53, "duration": 8, "velocity": 87}, {"time": 1593, "pitch": 58, "duration": 6, "velocity": 85}, {"time": 1605, "pitch": 53, "duration": 2, "velocity": 91}, {"time": 1605, "pitch": 58, "duration": 2, "velocity": 93}, {"time": 1608, "pitch": 57, "duration": 2, "velocity": 90}, {"time": 1611, "pitch": 55, "duration": 3, "velocity": 90}, {"time": 1614, "pitch": 53, "duration": 4, "velocity": 83}, {"time": 1617, "pitch": 41, "duration": 17, "velocity": 86}, {"time": 1617, "pitch": 53, "duration": 1, "velocity": 79}, {"time": 1617, "pitch": 57, "duration": 7, "velocity": 83}, {"time": 1623, "pitch": 48, "duration": 9, "velocity": 59}, {"time": 1629, "pitch": 60, "duration": 6, "velocity": 91}, {"time": 1635, "pitch": 65, "duration": 3, "velocity": 86}, {"time": 1641, "pitch": 45, "duration": 17, "velocity": 90}, {"time": 1641, "pitch": 57, "duration": 10, "velocity": 78}, {"time": 1641, "pitch": 60, "duration": 7, "velocity": 84}, {"time": 1647, "pitch": 52, "duration": 10, "velocity": 74}, {"time": 1653, "pitch": 57, "duration": 3, "velocity": 74}, {"time": 1653, "pitch": 60, "duration": 3, "velocity": 88}, {"time": 1653, "pitch": 64, "duration": 3, "velocity": 90}, {"time": 1665, "pitch": 50, "duration": 18, "velocity": 89}, {"time": 1665, "pitch": 57, "duration": 3, "velocity": 82}, {"time": 1665, "pitch": 65, "duration": 8, "velocity": 87}, {"time": 1671, "pitch": 57, "duration": 7, "velocity": 79}, {"time": 1677, "pitch": 65, "duration": 7, "velocity": 95}, {"time": 1683, "pitch": 57, "duration": 3, "velocity": 86}, {"time": 1689, "pitch": 45, "duration": 14, "velocity": 90}, {"time": 1689, "pitch": 57, "duration": 9, "velocity": 76}, {"time": 1689, "pitch": 60, "duration": 6, "velocity": 82}, {"time": 1695, "pitch": 52, "duration": 9, "velocity": 77}, {"time": 1701, "pitch": 57, "duration": 3, "velocity": 86}, {"time": 1701, "pitch": 64, "duration": 2, "velocity": 90}, {"time": 1713, "pitch": 46, "duration": 17, "velocity": 86}, {"time": 1713, "pitch": 62, "duration": 12, "velocity": 70}, {"time": 1713, "pitch": 65, "duration": 17, "velocity": 86}, {"time": 1719, "pitch": 53, "duration": 11, "velocity": 76}, {"time": 1725, "pitch": 58, "duration": 5, "velocity": 87}, {"time": 1737, "pitch": 41, "duration": 15, "velocity": 79}, {"time": 1737, "pitch": 57, "duration": 12, "velocity": 77}, {"time": 1737, "pitch": 60, "duration": 13, "velocity": 79}, {"time": 1743, "pitch": 48, "duration": 8, "velocity": 74}, {"time": 1749, "pitch": 65, "duration": 10, "velocity": 90}, {"time": 1755, "pitch": 57, "duration": 5, "velocity": 84}, {"time": 1761, "pitch": 50, "duration": 14, "velocity": 86}, {"time": 1761, "pitch": 57, "duration": 1, "velocity": 63}, {"time": 1761, "pitch": 62, "duration": 13, "velocity": 85}, {"time": 1767, "pitch": 57, "duration": 7, "velocity": 83}, {"time": 1773, "pitch": 65, "duration": 10, "velocity": 86}, {"time": 1785, "pitch": 43, "duration": 11, "velocity": 91}, {"time": 1785, "pitch": 55, "duration": 4, "velocity": 84}, {"time": 1785, "pitch": 62, "duration": 10, "velocity": 85}, {"time": 1791, "pitch": 50, "duration": 4, "velocity": 83}, {"time": 1797, "pitch": 48, "duration": 7, "velocity": 90}, {"time": 1797, "pitch": 55, "duration": 3, "velocity": 85}, {"time": 1797, "pitch": 60, "duration": 7, "velocity": 85}, {"time": 1803, "pitch": 55, "duration": 3, "velocity": 87}, {"time": 1809, "pitch": 41, "duration": 17, "velocity": 90}, {"time": 1809, "pitch": 53, "duration": 16, "velocity": 78}, {"time": 1809, "pitch": 57, "duration": 13, "velocity": 82}, {"time": 1815, "pitch": 48, "duration": 11, "velocity": 74}, {"time": 1821, "pitch": 60, "duration": 5, "velocity": 88}, {"time": 1833, "pitch": 45, "duration": 18, "velocity": 90}, {"time": 1833, "pitch": 57, "duration": 13, "velocity": 75}, {"time": 1833, "pitch": 60, "duration": 12, "velocity": 80}, {"time": 1839, "pitch": 52, "duration": 12, "velocity": 82}, {"time": 1845, "pitch": 64, "duration": 6, "velocity": 93}, {"time": 1851, "pitch": 60, "duration": 6, "velocity": 86}, {"time": 1857, "pitch": 50, "duration": 16, "velocity": 86}, {"time": 1857, "pitch": 65, "duration": 13, "velocity": 90}, {"time": 1863, "pitch": 53, "duration": 10, "velocity": 72}, {"time": 1869, "pitch": 57, "duration": 5, "velocity": 81}, {"time": 1869, "pitch": 62, "duration": 6, "velocity": 83}, {"time": 1881, "pitch": 45, "duration": 15, "velocity": 84}, {"time": 1881, "pitch": 57, "duration": 13, "velocity": 75}, {"time": 1881, "pitch": 60, "duration": 8, "velocity": 81}, {"time": 1887, "pitch": 52, "duration": 10, "velocity": 77}, {"time": 1893, "pitch": 64, "duration": 5, "velocity": 92}, {"time": 1899, "pitch": 60, "duration": 2, "velocity": 75}, {"time": 1905, "pitch": 46, "duration": 14, "velocity": 90}, {"time": 1905, "pitch": 62, "duration": 9, "velocity": 84}, {"time": 1911, "pitch": 53, "duration": 8, "velocity": 77}, {"time": 1917, "pitch": 58, "duration": 4, "velocity": 84}, {"time": 1917, "pitch": 62, "duration": 4, "velocity": 88}, {"time": 1929, "pitch": 41, "duration": 18, "velocity": 88}, {"time": 1929, "pitch": 57, "duration": 5, "velocity": 73}, {"time": 1929, "pitch": 60, "duration": 4, "velocity": 79}, {"time": 1935, "pitch": 48, "duration": 12, "velocity": 76}, {"time": 1941, "pitch": 53, "duration": 6, "velocity": 85}, {"time": 1944, "pitch": 57, "duration": 4, "velocity": 84}, {"time": 1947, "pitch": 60, "duration": 1, "velocity": 80}, {"time": 1953, "pitch": 43, "duration": 19, "velocity": 91}, {"time": 1953, "pitch": 55, "duration": 7, "velocity": 84}, {"time": 1953, "pitch": 58, "duration": 6, "velocity": 85}, {"time": 1953, "pitch": 62, "duration": 6, "velocity": 86}, {"time": 1959, "pitch": 50, "duration": 8, "velocity": 77}, {"time": 1965, "pitch": 58, "duration": 5, "velocity": 91}, {"time": 1965, "pitch": 62, "duration": 7, "velocity": 91}, {"time": 1971, "pitch": 55, "duration": 4, "velocity": 89}, {"time": 1977, "pitch": 48, "duration": 4, "velocity": 90}, {"time": 1977, "pitch": 55, "duration": 2, "velocity": 85}, {"time": 1977, "pitch": 60, "duration": 3, "velocity": 91}, {"time": 1977, "pitch": 64, "duration": 3, "velocity": 92}, {"time": 1983, "pitch": 46, "duration": 7, "velocity": 90}, {"time": 1983, "pitch": 58, "duration": 10, "velocity": 74}, {"time": 1989, "pitch": 50, "duration": 4, "velocity": 99}, {"time": 1989, "pitch": 62, "duration": 6, "velocity": 90}, {"time": 1995, "pitch": 53, "duration": 3, "velocity": 86}, {"time": 1995, "pitch": 65, "duration": 5, "velocity": 91}, {"time": 2001, "pitch": 48, "duration": 17, "velocity": 101}, {"time": 2001, "pitch": 60, "duration": 6, "velocity": 90}, {"time": 2001, "pitch": 64, "duration": 5, "velocity": 97}, {"time": 2007, "pitch": 55, "duration": 5, "velocity": 85}, {"time": 2010, "pitch": 60, "duration": 2, "velocity": 95}, {"time": 2013, "pitch": 55, "duration": 5, "velocity": 89}, {"time": 2013, "pitch": 62, "duration": 4, "velocity": 99}, {"time": 2019, "pitch": 60, "duration": 2, "velocity": 101}, {"time": 2025, "pitch": 41, "duration": 17, "velocity": 90}, {"time": 2025, "pitch": 53, "duration": 10, "velocity": 80}, {"time": 2025, "pitch": 55, "duration": 2, "velocity": 82}, {"time": 2025, "pitch": 57, "duration": 9, "velocity": 84}, {"time": 2031, "pitch": 48, "duration": 8, "velocity": 84}, {"time": 2037, "pitch": 57, "duration": 2, "velocity": 93}, {"time": 2037, "pitch": 60, "duration": 3, "velocity": 91}, {"time": 2043, "pitch": 48, "duration": 2, "velocity": 66}, {"time": 2046, "pitch": 53, "duration": 8, "velocity": 87}, {"time": 2049, "pitch": 41, "duration": 17, "velocity": 91}, {"time": 2049, "pitch": 57, "duration": 6, "velocity": 82}, {"time": 2049, "pitch": 60, "duration": 7, "velocity": 83}, {"time": 2049, "pitch": 65, "duration": 7, "velocity": 90}, {"time": 2055, "pitch": 48, "duration": 7, "velocity": 76}, {"time": 2061, "pitch": 60, "duration": 6, "velocity": 96}, {"time": 2064, "pitch": 48, "duration": 2, "velocity": 91}, {"time": 2067, "pitch": 57, "duration": 2, "velocity": 90}, {"time": 2073, "pitch": 50, "duration": 20, "velocity": 90}, {"time": 2073, "pitch": 57, "duration": 11, "velocity": 83}, {"time": 2073, "pitch": 62, "duration": 12, "velocity": 83}, {"time": 2079, "pitch": 53, "duration": 15, "velocity": 75}, {"time": 2085, "pitch": 65, "duration": 7, "velocity": 91}, {"time": 2088, "pitch": 57, "duration": 4, "velocity": 86}, {"time": 2091, "pitch": 62, "duration": 4, "velocity": 90}, {"time": 2094, "pitch": 57, "duration": 2, "velocity": 78}, {"time": 2097, "pitch": 50, "duration": 17, "velocity": 92}, {"time": 2097, "pitch": 57, "duration": 3, "velocity": 85}, {"time": 2097, "pitch": 62, "duration": 7, "velocity": 90}, {"time": 2103, "pitch": 57, "duration": 3, "velocity": 85}, {"time": 2109, "pitch": 57, "duration": 4, "velocity": 92}, {"time": 2109, "pitch": 65, "duration": 6, "velocity": 92}, {"time": 2115, "pitch": 62, "duration": 2, "velocity": 87}, {"time": 2121, "pitch": 41, "duration": 22, "velocity": 90}, {"time": 2121, "pitch": 57, "duration": 5, "velocity": 81}, {"time": 2121, "pitch": 60, "duration": 6, "velocity": 82}, {"time": 2127, "pitch": 48, "duration": 15, "velocity": 71}, {"time": 2133, "pitch": 53, "duration": 6, "velocity": 91}, {"time": 2136, "pitch": 57, "duration": 4, "velocity": 88}, {"time": 2139, "pitch": 60, "duration": 3, "velocity": 89}, {"time": 2142, "pitch": 65, "duration": 2, "velocity": 92}, {"time": 2145, "pitch": 41, "duration": 16, "velocity": 91}, {"time": 2145, "pitch": 53, "duration": 10, "velocity": 92}, {"time": 2145, "pitch": 57, "duration": 1, "velocity": 81}, {"time": 2145, "pitch": 60, "duration": 8, "velocity": 92}, {"time": 2145, "pitch": 65, "duration": 7, "velocity": 90}, {"time": 2151, "pitch": 48, "duration": 7, "velocity": 82}, {"time": 2157, "pitch": 53, "duration": 2, "velocity": 91}, {"time": 2157, "pitch": 57, "duration": 2, "velocity": 93}, {"time": 2157, "pitch": 60, "duration": 3, "velocity": 93}, {"time": 2163, "pitch": 48, "duration": 2, "velocity": 85}, {"time": 2169, "pitch": 38, "duration": 1, "velocity": 90}, {"time": 2169, "pitch": 57, "duration": 13, "velocity": 88}, {"time": 2169, "pitch": 65, "duration": 15, "velocity": 90}, {"time": 2175, "pitch": 45, "duration": 17, "velocity": 77}, {"time": 2181, "pitch": 53, "duration": 10, "velocity": 91}, {"time": 2184, "pitch": 57, "duration": 3, "velocity": 95}, {"time": 2187, "pitch": 62, "duration": 3, "velocity": 92}, {"time": 2190, "pitch": 57, "duration": 4, "velocity": 87}, {"time": 2193, "pitch": 50, "duration": 13, "velocity": 91}, {"time": 2193, "pitch": 65, "duration": 9, "velocity": 92}, {"time": 2199, "pitch": 53, "duration": 7, "velocity": 82}, {"time": 2205, "pitch": 57, "duration": 3, "velocity": 91}, {"time": 2205, "pitch": 62, "duration": 2, "velocity": 92}, {"time": 2217, "pitch": 46, "duration": 21, "velocity": 91}, {"time": 2217, "pitch": 58, "duration": 11, "velocity": 82}, {"time": 2217, "pitch": 62, "duration": 8, "velocity": 85}, {"time": 2217, "pitch": 65, "duration": 8, "velocity": 90}, {"time": 2223, "pitch": 53, "duration": 9, "velocity": 66}, {"time": 2223, "pitch": 55, "duration": 1, "velocity": 62}, {"time": 2229, "pitch": 58, "duration": 5, "velocity": 90}, {"time": 2229, "pitch": 62, "duration": 5, "velocity": 94}, {"time": 2229, "pitch": 65, "duration": 5, "velocity": 94}, {"time": 2235, "pitch": 53, "duration": 5, "velocity": 73}, {"time": 2238, "pitch": 58, "duration": 2, "velocity": 89}, {"time": 2241, "pitch": 46, "duration": 17, "velocity": 93}, {"time": 2241, "pitch": 58, "duration": 7, "velocity": 86}, {"time": 2241, "pitch": 62, "duration": 8, "velocity": 91}, {"time": 2247, "pitch": 53, "duration": 7, "velocity": 86}, {"time": 2250, "pitch": 58, "duration": 2, "velocity": 84}, {"time": 2253, "pitch": 58, "duration": 4, "velocity": 91}, {"time": 2253, "pitch": 65, "duration": 5, "velocity": 92}, {"time": 2256, "pitch": 53, "duration": 3, "velocity": 90}, {"time": 2259, "pitch": 58, "duration": 3, "velocity": 83}, {"time": 2265, "pitch": 45, "duration": 16, "velocity": 92}, {"time": 2265, "pitch": 55, "duration": 9, "velocity": 80}, {"time": 2265, "pitch": 57, "duration": 2, "velocity": 77}, {"time": 2265, "pitch": 61, "duration": 10, "velocity": 86}, {"time": 2271, "pitch": 52, "duration": 8, "velocity": 83}, {"time": 2277, "pitch": 55, "duration": 4, "velocity": 96}, {"time": 2277, "pitch": 61, "duration": 4, "velocity": 95}, {"time": 2289, "pitch": 38, "duration": 15, "velocity": 92}, {"time": 2289, "pitch": 57, "duration": 6, "velocity": 88}, {"time": 2289, "pitch": 65, "duration": 10, "velocity": 90}, {"time": 2295, "pitch": 45, "duration": 8, "velocity": 73}, {"time": 2298, "pitch": 57, "duration": 1, "velocity": 77}, {"time": 2301, "pitch": 57, "duration": 4, "velocity": 93}, {"time": 2301, "pitch": 62, "duration": 3, "velocity": 92}, {"time": 2307, "pitch": 38, "duration": 1, "velocity": 91}, {"time": 2313, "pitch": 43, "duration": 23, "velocity": 91}, {"time": 2313, "pitch": 55, "duration": 9, "velocity": 86}, {"time": 2313, "pitch": 58, "duration": 7, "velocity": 80}, {"time": 2313, "pitch": 62, "duration": 8, "velocity": 90}, {"time": 2319, "pitch": 50, "duration": 16, "velocity": 76}, {"time": 2325, "pitch": 55, "duration": 3, "velocity": 91}, {"time": 2325, "pitch": 62, "duration": 4, "velocity": 91}, {"time": 2328, "pitch": 58, "duration": 3, "velocity": 88}, {"time": 2331, "pitch": 55, "duration": 4, "velocity": 91}, {"time": 2334, "pitch": 58, "duration": 2, "velocity": 91}, {"time": 2337, "pitch": 43, "duration": 15, "velocity": 92}, {"time": 2337, "pitch": 58, "duration": 1, "velocity": 56}, {"time": 2337, "pitch": 67, "duration": 6, "velocity": 93}, {"time": 2340, "pitch": 50, "duration": 11, "velocity": 85}, {"time": 2343, "pitch": 62, "duration": 3, "velocity": 91}, {"time": 2346, "pitch": 55, "duration": 2, "velocity": 84}, {"time": 2349, "pitch": 55, "duration": 5, "velocity": 91}, {"time": 2349, "pitch": 58, "duration": 5, "velocity": 97}, {"time": 2349, "pitch": 62, "duration": 6, "velocity": 96}, {"time": 2355, "pitch": 43, "duration": 4, "velocity": 92}, {"time": 2361, "pitch": 48, "duration": 3, "velocity": 91}, {"time": 2361, "pitch": 55, "duration": 2, "velocity": 90}, {"time": 2361, "pitch": 60, "duration": 2, "velocity": 90}, {"time": 2367, "pitch": 48, "duration": 1, "velocity": 79}, {"time": 2367, "pitch": 55, "duration": 2, "velocity": 78}, {"time": 2367, "pitch": 60, "duration": 2, "velocity": 82}, {"time": 2373, "pitch": 48, "duration": 8, "velocity": 99}, {"time": 2373, "pitch": 55, "duration": 3, "velocity": 90}, {"time": 2373, "pitch": 60, "duration": 3, "velocity": 93}, {"time": 2379, "pitch": 55, "duration": 3, "velocity": 94}, {"time": 2379, "pitch": 62, "duration": 4, "velocity": 95}, {"time": 2385, "pitch": 48, "duration": 3, "velocity": 104}, {"time": 2385, "pitch": 55, "duration": 4, "velocity": 92}, {"time": 2385, "pitch": 60, "duration": 4, "velocity": 96}, {"time": 2385, "pitch": 64, "duration": 3, "velocity": 99}, {"time": 2391, "pitch": 48, "duration": 3, "velocity": 96}, {"time": 2391, "pitch": 55, "duration": 3, "velocity": 92}, {"time": 2391, "pitch": 60, "duration": 3, "velocity": 92}, {"time": 2397, "pitch": 45, "duration": 10, "velocity": 94}, {"time": 2397, "pitch": 57, "duration": 11, "velocity": 87}, {"time": 2397, "pitch": 61, "duration": 9, "velocity": 97}, {"time": 2409, "pitch": 50, "duration": 24, "velocity": 95}, {"time": 2409, "pitch": 57, "duration": 3, "velocity": 90}, {"time": 2409, "pitch": 65, "duration": 3, "velocity": 88}, {"time": 2415, "pitch": 57, "duration": 3, "velocity": 78}, {"time": 2415, "pitch": 62, "duration": 3, "velocity": 85}, {"time": 2415, "pitch": 65, "duration": 3, "velocity": 86}, {"time": 2421, "pitch": 57, "duration": 3, "velocity": 90}, {"time": 2421, "pitch": 62, "duration": 4, "velocity": 94}, {"time": 2421, "pitch": 65, "duration": 4, "velocity": 92}, {"time": 2427, "pitch": 57, "duration": 4, "velocity": 78}, {"time": 2427, "pitch": 62, "duration": 3, "velocity": 83}, {"time": 2427, "pitch": 65, "duration": 4, "velocity": 78}, {"time": 2433, "pitch": 49, "duration": 15, "velocity": 91}, {"time": 2433, "pitch": 57, "duration": 3, "velocity": 81}, {"time": 2433, "pitch": 61, "duration": 4, "velocity": 90}, {"time": 2433, "pitch": 65, "duration": 4, "velocity": 88}, {"time": 2439, "pitch": 57, "duration": 2, "velocity": 64}, {"time": 2439, "pitch": 61, "duration": 2, "velocity": 76}, {"time": 2439, "pitch": 65, "duration": 2, "velocity": 73}, {"time": 2445, "pitch": 57, "duration": 2, "velocity": 90}, {"time": 2445, "pitch": 61, "duration": 2, "velocity": 94}, {"time": 2445, "pitch": 65, "duration": 2, "velocity": 90}, {"time": 2451, "pitch": 57, "duration": 2, "velocity": 78}, {"time": 2451, "pitch": 61, "duration": 1, "velocity": 86}, {"time": 2451, "pitch": 65, "duration": 2, "velocity": 81}, {"time": 2457, "pitch": 48, "duration": 22, "velocity": 91}, {"time": 2457, "pitch": 57, "duration": 3, "velocity": 83}, {"time": 2457, "pitch": 60, "duration": 3, "velocity": 91}, {"time": 2457, "pitch": 65, "duration": 3, "velocity": 86}, {"time": 2463, "pitch": 57, "duration": 1, "velocity": 75}, {"time": 2463, "pitch": 60, "duration": 2, "velocity": 81}, {"time": 2463, "pitch": 65, "duration": 2, "velocity": 78}, {"time": 2469, "pitch": 57, "duration": 1, "velocity": 90}, {"time": 2469, "pitch": 60, "duration": 2, "velocity": 94}, {"time": 2469, "pitch": 65, "duration": 2, "velocity": 91}, {"time": 2475, "pitch": 57, "duration": 2, "velocity": 81}, {"time": 2475, "pitch": 60, "duration": 3, "velocity": 87}, {"time": 2475, "pitch": 65, "duration": 4, "velocity": 85}, {"time": 2481, "pitch": 47, "duration": 22, "velocity": 87}, {"time": 2481, "pitch": 59, "duration": 3, "velocity": 80}, {"time": 2481, "pitch": 62, "duration": 3, "velocity": 82}, {"time": 2481, "pitch": 65, "duration": 3, "velocity": 78}, {"time": 2487, "pitch": 59, "duration": 1, "velocity": 83}, {"time": 2487, "pitch": 62, "duration": 1, "velocity": 86}, {"time": 2487, "pitch": 65, "duration": 1, "velocity": 83}, {"time": 2493, "pitch": 59, "duration": 10, "velocity": 97}, {"time": 2493, "pitch": 62, "duration": 11, "velocity": 101}, {"time": 2493, "pitch": 65, "duration": 11, "velocity": 101}, {"time": 2499, "pitch": 53, "duration": 6, "velocity": 85}, {"time": 2505, "pitch": 48, "duration": 18, "velocity": 91}, {"time": 2505, "pitch": 55, "duration": 4, "velocity": 85}, {"time": 2505, "pitch": 60, "duration": 7, "velocity": 88}, {"time": 2505, "pitch": 64, "duration": 6, "velocity": 90}, {"time": 2517, "pitch": 55, "duration": 3, "velocity": 93}, {"time": 2517, "pitch": 60, "duration": 5, "velocity": 95}, {"time": 2517, "pitch": 64, "duration": 6, "velocity": 97}, {"time": 2529, "pitch": 45, "duration": 11, "velocity": 91}, {"time": 2529, "pitch": 57, "duration": 3, "velocity": 87}, {"time": 2529, "pitch": 60, "duration": 5, "velocity": 90}, {"time": 2529, "pitch": 64, "duration": 5, "velocity": 93}, {"time": 2535, "pitch": 57, "duration": 4, "velocity": 90}, {"time": 2541, "pitch": 50, "duration": 4, "velocity": 91}, {"time": 2541, "pitch": 57, "duration": 2, "velocity": 80}, {"time": 2541, "pitch": 62, "duration": 3, "velocity": 89}, {"time": 2541, "pitch": 65, "duration": 4, "velocity": 89}, {"time": 2553, "pitch": 43, "duration": 13, "velocity": 90}, {"time": 2553, "pitch": 55, "duration": 3, "velocity": 82}, {"time": 2553, "pitch": 58, "duration": 4, "velocity": 77}, {"time": 2553, "pitch": 62, "duration": 7, "velocity": 86}, {"time": 2559, "pitch": 55, "duration": 4, "velocity": 86}, {"time": 2565, "pitch": 48, "duration": 7, "velocity": 96}, {"time": 2565, "pitch": 55, "duration": 5, "velocity": 96}, {"time": 2565, "pitch": 60, "duration": 5, "velocity": 91}, {"time": 2577, "pitch": 41, "duration": 21, "velocity": 91}, {"time": 2577, "pitch": 53, "duration": 7, "velocity": 80}, {"time": 2577, "pitch": 57, "duration": 5, "velocity": 82}, {"time": 2583, "pitch": 48, "duration": 14, "velocity": 76}, {"time": 2589, "pitch": 53, "duration": 3, "velocity": 83}, {"time": 2589, "pitch": 57, "duration": 3, "velocity": 90}, {"time": 2589, "pitch": 60, "duration": 3, "velocity": 86}, {"time": 2595, "pitch": 53, "duration": 4, "velocity": 82}, {"time": 2601, "pitch": 41, "duration": 16, "velocity": 91}, {"time": 2601, "pitch": 53, "duration": 5, "velocity": 85}, {"time": 2601, "pitch": 57, "duration": 5, "velocity": 91}, {"time": 2601, "pitch": 60, "duration": 6, "velocity": 92}, {"time": 2601, "pitch": 65, "duration": 6, "velocity": 87}, {"time": 2607, "pitch": 48, "duration": 7, "velocity": 90}, {"time": 2610, "pitch": 53, "duration": 1, "velocity": 93}, {"time": 2613, "pitch": 53, "duration": 4, "velocity": 94}, {"time": 2613, "pitch": 57, "duration": 4, "velocity": 97}, {"time": 2613, "pitch": 60, "duration": 4, "velocity": 97}, {"time": 2613, "pitch": 65, "duration": 4, "velocity": 92}, {"time": 2616, "pitch": 48, "duration": 10, "velocity": 104}, {"time": 2619, "pitch": 53, "duration": 5, "velocity": 97}, {"time": 2619, "pitch": 60, "duration": 1, "velocity": 59}, {"time": 2622, "pitch": 65, "duration": 3, "velocity": 96}, {"time": 2625, "pitch": 38, "duration": 15, "velocity": 96}, {"time": 2625, "pitch": 57, "duration": 3, "velocity": 86}, {"time": 2625, "pitch": 65, "duration": 4, "velocity": 91}, {"time": 2631, "pitch": 57, "duration": 2, "velocity": 81}, {"time": 2631, "pitch": 62, "duration": 2, "velocity": 83}, {"time": 2631, "pitch": 65, "duration": 2, "velocity": 85}, {"time": 2637, "pitch": 57, "duration": 3, "velocity": 95}, {"time": 2637, "pitch": 62, "duration": 4, "velocity": 97}, {"time": 2637, "pitch": 65, "duration": 4, "velocity": 99}, {"time": 2643, "pitch": 57, "duration": 2, "velocity": 90}, {"time": 2649, "pitch": 43, "duration": 17, "velocity": 92}, {"time": 2649, "pitch": 55, "duration": 5, "velocity": 90}, {"time": 2649, "pitch": 59, "duration": 4, "velocity": 91}, {"time": 2655, "pitch": 50, "duration": 7, "velocity": 82}, {"time": 2658, "pitch": 59, "duration": 1, "velocity": 79}, {"time": 2658, "pitch": 62, "duration": 2, "velocity": 86}, {"time": 2661, "pitch": 55, "duration": 3, "velocity": 96}, {"time": 2661, "pitch": 59, "duration": 4, "velocity": 95}, {"time": 2661, "pitch": 62, "duration": 4, "velocity": 92}, {"time": 2661, "pitch": 67, "duration": 4, "velocity": 92}, {"time": 2664, "pitch": 50, "duration": 2, "velocity": 91}, {"time": 2667, "pitch": 55, "duration": 2, "velocity": 96}, {"time": 2673, "pitch": 36, "duration": 1, "velocity": 91}, {"time": 2673, "pitch": 55, "duration": 4, "velocity": 94}, {"time": 2673, "pitch": 60, "duration": 4, "velocity": 93}, {"time": 2679, "pitch": 48, "duration": 2, "velocity": 80}, {"time": 2679, "pitch": 55, "duration": 2, "velocity": 81}, {"time": 2679, "pitch": 60, "duration": 2, "velocity": 81}, {"time": 2679, "pitch": 64, "duration": 2, "velocity": 86}, {"time": 2685, "pitch": 48, "duration": 3, "velocity": 104}, {"time": 2685, "pitch": 55, "duration": 3, "velocity": 91}, {"time": 2685, "pitch": 60, "duration": 3, "velocity": 91}, {"time": 2685, "pitch": 64, "duration": 3, "velocity": 91}, {"time": 2691, "pitch": 48, "duration": 3, "velocity": 96}, {"time": 2691, "pitch": 55, "duration": 3, "velocity": 88}, {"time": 2691, "pitch": 60, "duration": 3, "velocity": 88}, {"time": 2691, "pitch": 64, "duration": 3, "velocity": 91}, {"time": 2697, "pitch": 48, "duration": 5, "velocity": 107}, {"time": 2697, "pitch": 55, "duration": 4, "velocity": 93}, {"time": 2697, "pitch": 60, "duration": 4, "velocity": 92}, {"time": 2697, "pitch": 64, "duration": 5, "velocity": 94}, {"time": 2703, "pitch": 48, "duration": 4, "velocity": 96}, {"time": 2703, "pitch": 55, "duration": 4, "velocity": 93}, {"time": 2703, "pitch": 60, "duration": 5, "velocity": 92}, {"time": 2709, "pitch": 48, "duration": 4, "velocity": 106}, {"time": 2709, "pitch": 55, "duration": 4, "velocity": 90}, {"time": 2709, "pitch": 60, "duration": 4, "velocity": 91}, {"time": 2709, "pitch": 65, "duration": 4, "velocity": 90}, {"time": 2715, "pitch": 48, "duration": 6, "velocity": 97}, {"time": 2715, "pitch": 60, "duration": 2, "velocity": 90}, {"time": 2715, "pitch": 67, "duration": 5, "velocity": 92}, {"time": 2721, "pitch": 41, "duration": 17, "velocity": 90}, {"time": 2721, "pitch": 53, "duration": 10, "velocity": 80}, {"time": 2721, "pitch": 55, "duration": 2, "velocity": 82}, {"time": 2721, "pitch": 57, "duration": 9, "velocity": 84}, {"time": 2727, "pitch": 48, "duration": 8, "velocity": 84}, {"time": 2733, "pitch": 57, "duration": 2, "velocity": 93}, {"time": 2733, "pitch": 60, "duration": 3, "velocity": 91}, {"time": 2739, "pitch": 48, "duration": 2, "velocity": 66}, {"time": 2742, "pitch": 53, "duration": 8, "velocity": 87}, {"time": 2745, "pitch": 41, "duration": 17, "velocity": 91}, {"time": 2745, "pitch": 57, "duration": 6, "velocity": 82}, {"time": 2745, "pitch": 60, "duration": 7, "velocity": 83}, {"time": 2745, "pitch": 65, "duration": 7, "velocity": 90}, {"time": 2751, "pitch": 48, "duration": 7, "velocity": 76}, {"time": 2757, "pitch": 60, "duration": 6, "velocity": 96}, {"time": 2760, "pitch": 48, "duration": 2, "velocity": 91}, {"time": 2763, "pitch": 57, "duration": 2, "velocity": 90}, {"time": 2769, "pitch": 50, "duration": 20, "velocity": 90}, {"time": 2769, "pitch": 57, "duration": 11, "velocity": 83}, {"time": 2769, "pitch": 62, "duration": 12, "velocity": 83}, {"time": 2775, "pitch": 53, "duration": 15, "velocity": 75}, {"time": 2781, "pitch": 65, "duration": 7, "velocity": 91}, {"time": 2784, "pitch": 57, "duration": 4, "velocity": 86}, {"time": 2787, "pitch": 62, "duration": 4, "velocity": 90}, {"time": 2790, "pitch": 57, "duration": 2, "velocity": 78}, {"time": 2793, "pitch": 50, "duration": 17, "velocity": 92}, {"time": 2793, "pitch": 57, "duration": 3, "velocity": 85}, {"time": 2793, "pitch": 62, "duration": 7, "velocity": 90}, {"time": 2799, "pitch": 57, "duration": 3, "velocity": 85}, {"time": 2805, "pitch": 57, "duration": 4, "velocity": 92}, {"time": 2805, "pitch": 65, "duration": 6, "velocity": 92}, {"time": 2811, "pitch": 62, "duration": 2, "velocity": 87}, {"time": 2817, "pitch": 41, "duration": 22, "velocity": 90}, {"time": 2817, "pitch": 57, "duration": 5, "velocity": 81}, {"time": 2817, "pitch": 60, "duration": 6, "velocity": 82}, {"time": 2823, "pitch": 48, "duration": 15, "velocity": 71}, {"time": 2829, "pitch": 53, "duration": 6, "velocity": 91}, {"time": 2832, "pitch": 57, "duration": 4, "velocity": 88}, {"time": 2835, "pitch": 60, "duration": 3, "velocity": 89}, {"time": 2838, "pitch": 65, "duration": 2, "velocity": 92}, {"time": 2841, "pitch": 41, "duration": 16, "velocity": 91}, {"time": 2841, "pitch": 53, "duration": 10, "velocity": 92}, {"time": 2841, "pitch": 57, "duration": 1, "velocity": 81}, {"time": 2841, "pitch": 60, "duration": 8, "velocity": 92}, {"time": 2841, "pitch": 65, "duration": 7, "velocity": 90}, {"time": 2847, "pitch": 48, "duration": 7, "velocity": 82}, {"time": 2853, "pitch": 53, "duration": 2, "velocity": 91}, {"time": 2853, "pitch": 57, "duration": 2, "velocity": 93}, {"time": 2853, "pitch": 60, "duration": 3, "velocity": 93}, {"time": 2859, "pitch": 48, "duration": 2, "velocity": 85}, {"time": 2865, "pitch": 38, "duration": 1, "velocity": 90}, {"time": 2865, "pitch": 57, "duration": 13, "velocity": 88}, {"time": 2865, "pitch": 65, "duration": 15, "velocity": 90}, {"time": 2871, "pitch": 45, "duration": 17, "velocity": 77}, {"time": 2877, "pitch": 53, "duration": 10, "velocity": 91}, {"time": 2880, "pitch": 57, "duration": 3, "velocity": 95}, {"time": 2883, "pitch": 62, "duration": 3, "velocity": 92}, {"time": 2886, "pitch": 57, "duration": 4, "velocity": 87}, {"time": 2889, "pitch": 50, "duration": 13, "velocity": 91}, {"time": 2889, "pitch": 65, "duration": 9, "velocity": 92}, {"time": 2895, "pitch": 53, "duration": 7, "velocity": 82}, {"time": 2901, "pitch": 57, "duration": 3, "velocity": 91}, {"time": 2901, "pitch": 62, "duration": 2, "velocity": 92}, {"time": 2913, "pitch": 46, "duration": 21, "velocity": 91}, {"time": 2913, "pitch": 58, "duration": 11, "velocity": 82}, {"time": 2913, "pitch": 62, "duration": 8, "velocity": 85}, {"time": 2913, "pitch": 65, "duration": 8, "velocity": 90}, {"time": 2919, "pitch": 53, "duration": 9, "velocity": 66}, {"time": 2919, "pitch": 55, "duration": 1, "velocity": 62}, {"time": 2925, "pitch": 58, "duration": 5, "velocity": 90}, {"time": 2925, "pitch": 62, "duration": 5, "velocity": 94}, {"time": 2925, "pitch": 65, "duration": 5, "velocity": 94}, {"time": 2931, "pitch": 53, "duration": 5, "velocity": 73}, {"time": 2934, "pitch": 58, "duration": 2, "velocity": 89}, {"time": 2937, "pitch": 46, "duration": 17, "velocity": 93}, {"time": 2937, "pitch": 58, "duration": 7, "velocity": 86}, {"time": 2937, "pitch": 62, "duration": 8, "velocity": 91}, {"time": 2943, "pitch": 53, "duration": 7, "velocity": 86}, {"time": 2946, "pitch": 58, "duration": 2, "velocity": 84}, {"time": 2949, "pitch": 58, "duration": 4, "velocity": 91}, {"time": 2949, "pitch": 65, "duration": 5, "velocity": 92}, {"time": 2952, "pitch": 53, "duration": 3, "velocity": 90}, {"time": 2955, "pitch": 58, "duration": 3, "velocity": 83}, {"time": 2961, "pitch": 45, "duration": 16, "velocity": 92}, {"time": 2961, "pitch": 55, "duration": 9, "velocity": 80}, {"time": 2961, "pitch": 57, "duration": 2, "velocity": 77}, {"time": 2961, "pitch": 61, "duration": 10, "velocity": 86}, {"time": 2967, "pitch": 52, "duration": 8, "velocity": 83}, {"time": 2973, "pitch": 55, "duration": 4, "velocity": 96}, {"time": 2973, "pitch": 61, "duration": 4, "velocity": 95}, {"time": 2985, "pitch": 38, "duration": 15, "velocity": 92}, {"time": 2985, "pitch": 57, "duration": 6, "velocity": 88}, {"time": 2985, "pitch": 65, "duration": 10, "velocity": 90}, {"time": 2991, "pitch": 45, "duration": 8, "velocity": 73}, {"time": 2994, "pitch": 57, "duration": 1, "velocity": 77}, {"time": 2997, "pitch": 57, "duration": 4, "velocity": 93}, {"time": 2997, "pitch": 62, "duration": 3, "velocity": 92}, {"time": 3003, "pitch": 38, "duration": 1, "velocity": 91}, {"time": 3009, "pitch": 43, "duration": 23, "velocity": 91}, {"time": 3009, "pitch": 55, "duration": 9, "velocity": 86}, {"time": 3009, "pitch": 58, "duration": 7, "velocity": 80}, {"time": 3009, "pitch": 62, "duration": 8, "velocity": 90}, {"time": 3015, "pitch": 50, "duration": 16, "velocity": 76}, {"time": 3021, "pitch": 55, "duration": 3, "velocity": 91}, {"time": 3021, "pitch": 62, "duration": 4, "velocity": 91}, {"time": 3024, "pitch": 58, "duration": 3, "velocity": 88}, {"time": 3027, "pitch": 55, "duration": 4, "velocity": 91}, {"time": 3030, "pitch": 58, "duration": 2, "velocity": 91}, {"time": 3033, "pitch": 43, "duration": 15, "velocity": 92}, {"time": 3033, "pitch": 58, "duration": 1, "velocity": 56}, {"time": 3033, "pitch": 67, "duration": 6, "velocity": 93}, {"time": 3036, "pitch": 50, "duration": 11, "velocity": 85}, {"time": 3039, "pitch": 62, "duration": 3, "velocity": 91}, {"time": 3042, "pitch": 55, "duration": 2, "velocity": 84}, {"time": 3045, "pitch": 55, "duration": 5, "velocity": 91}, {"time": 3045, "pitch": 58, "duration": 5, "velocity": 97}, {"time": 3045, "pitch": 62, "duration": 6, "velocity": 96}, {"time": 3051, "pitch": 43, "duration": 4, "velocity": 92}, {"time": 3057, "pitch": 48, "duration": 3, "velocity": 91}, {"time": 3057, "pitch": 55, "duration": 2, "velocity": 90}, {"time": 3057, "pitch": 60, "duration": 2, "velocity": 90}, {"time": 3063, "pitch": 48, "duration": 1, "velocity": 79}, {"time": 3063, "pitch": 55, "duration": 2, "velocity": 78}, {"time": 3063, "pitch": 60, "duration": 2, "velocity": 82}, {"time": 3069, "pitch": 48, "duration": 8, "velocity": 99}, {"time": 3069, "pitch": 55, "duration": 3, "velocity": 90}, {"time": 3069, "pitch": 60, "duration": 3, "velocity": 93}, {"time": 3075, "pitch": 55, "duration": 3, "velocity": 94}, {"time": 3075, "pitch": 62, "duration": 4, "velocity": 95}, {"time": 3081, "pitch": 48, "duration": 3, "velocity": 104}, {"time": 3081, "pitch": 55, "duration": 4, "velocity": 92}, {"time": 3081, "pitch": 60, "duration": 4, "velocity": 96}, {"time": 3081, "pitch": 64, "duration": 3, "velocity": 99}, {"time": 3087, "pitch": 48, "duration": 3, "velocity": 96}, {"time": 3087, "pitch": 55, "duration": 3, "velocity": 92}, {"time": 3087, "pitch": 60, "duration": 3, "velocity": 92}, {"time": 3093, "pitch": 45, "duration": 10, "velocity": 94}, {"time": 3093, "pitch": 57, "duration": 11, "velocity": 87}, {"time": 3093, "pitch": 61, "duration": 9, "velocity": 97}, {"time": 3105, "pitch": 50, "duration": 24, "velocity": 95}, {"time": 3105, "pitch": 57, "duration": 3, "velocity": 90}, {"time": 3105, "pitch": 65, "duration": 3, "velocity": 88}, {"time": 3111, "pitch": 57, "duration": 3, "velocity": 78}, {"time": 3111, "pitch": 62, "duration": 3, "velocity": 85}, {"time": 3111, "pitch": 65, "duration": 3, "velocity": 86}, {"time": 3117, "pitch": 57, "duration": 3, "velocity": 90}, {"time": 3117, "pitch": 62, "duration": 4, "velocity": 94}, {"time": 3117, "pitch": 65, "duration": 4, "velocity": 92}, {"time": 3123, "pitch": 57, "duration": 4, "velocity": 78}, {"time": 3123, "pitch": 62, "duration": 3, "velocity": 83}, {"time": 3123, "pitch": 65, "duration": 4, "velocity": 78}, {"time": 3129, "pitch": 49, "duration": 15, "velocity": 91}, {"time": 3129, "pitch": 57, "duration": 3, "velocity": 81}, {"time": 3129, "pitch": 61, "duration": 4, "velocity": 90}, {"time": 3129, "pitch": 65, "duration": 4, "velocity": 88}, {"time": 3135, "pitch": 57, "duration": 2, "velocity": 64}, {"time": 3135, "pitch": 61, "duration": 2, "velocity": 76}, {"time": 3135, "pitch": 65, "duration": 2, "velocity": 73}, {"time": 3141, "pitch": 57, "duration": 2, "velocity": 90}, {"time": 3141, "pitch": 61, "duration": 2, "velocity": 94}, {"time": 3141, "pitch": 65, "duration": 2, "velocity": 90}, {"time": 3147, "pitch": 57, "duration": 2, "velocity": 78}, {"time": 3147, "pitch": 61, "duration": 1, "velocity": 86}, {"time": 3147, "pitch": 65, "duration": 2, "velocity": 81}, {"time": 3153, "pitch": 48, "duration": 22, "velocity": 91}, {"time": 3153, "pitch": 57, "duration": 3, "velocity": 83}, {"time": 3153, "pitch": 60, "duration": 3, "velocity": 91}, {"time": 3153, "pitch": 65, "duration": 3, "velocity": 86}, {"time": 3159, "pitch": 57, "duration": 1, "velocity": 75}, {"time": 3159, "pitch": 60, "duration": 2, "velocity": 81}, {"time": 3159, "pitch": 65, "duration": 2, "velocity": 78}, {"time": 3165, "pitch": 57, "duration": 1, "velocity": 90}, {"time": 3165, "pitch": 60, "duration": 2, "velocity": 94}, {"time": 3165, "pitch": 65, "duration": 2, "velocity": 91}, {"time": 3171, "pitch": 57, "duration": 2, "velocity": 81}, {"time": 3171, "pitch": 60, "duration": 3, "velocity": 87}, {"time": 3171, "pitch": 65, "duration": 4, "velocity": 85}, {"time": 3177, "pitch": 47, "duration": 22, "velocity": 87}, {"time": 3177, "pitch": 59, "duration": 3, "velocity": 80}, {"time": 3177, "pitch": 62, "duration": 3, "velocity": 82}, {"time": 3177, "pitch": 65, "duration": 3, "velocity": 78}, {"time": 3183, "pitch": 59, "duration": 1, "velocity": 83}, {"time": 3183, "pitch": 62, "duration": 1, "velocity": 86}, {"time": 3183, "pitch": 65, "duration": 1, "velocity": 83}, {"time": 3189, "pitch": 59, "duration": 10, "velocity": 97}, {"time": 3189, "pitch": 62, "duration": 11, "velocity": 101}, {"time": 3189, "pitch": 65, "duration": 11, "velocity": 101}, {"time": 3195, "pitch": 53, "duration": 6, "velocity": 85}, {"time": 3201, "pitch": 48, "duration": 18, "velocity": 91}, {"time": 3201, "pitch": 55, "duration": 4, "velocity": 85}, {"time": 3201, "pitch": 60, "duration": 7, "velocity": 88}, {"time": 3201, "pitch": 64, "duration": 6, "velocity": 90}, {"time": 3213, "pitch": 55, "duration": 3, "velocity": 93}, {"time": 3213, "pitch": 60, "duration": 5, "velocity": 95}, {"time": 3213, "pitch": 64, "duration": 6, "velocity": 97}, {"time": 3225, "pitch": 45, "duration": 11, "velocity": 91}, {"time": 3225, "pitch": 57, "duration": 3, "velocity": 87}, {"time": 3225, "pitch": 60, "duration": 5, "velocity": 90}, {"time": 3225, "pitch": 64, "duration": 5, "velocity": 93}, {"time": 3231, "pitch": 57, "duration": 4, "velocity": 90}, {"time": 3237, "pitch": 50, "duration": 4, "velocity": 91}, {"time": 3237, "pitch": 57, "duration": 2, "velocity": 80}, {"time": 3237, "pitch": 62, "duration": 3, "velocity": 89}, {"time": 3237, "pitch": 65, "duration": 4, "velocity": 89}, {"time": 3249, "pitch": 43, "duration": 13, "velocity": 90}, {"time": 3249, "pitch": 55, "duration": 3, "velocity": 82}, {"time": 3249, "pitch": 58, "duration": 4, "velocity": 77}, {"time": 3249, "pitch": 62, "duration": 7, "velocity": 86}, {"time": 3255, "pitch": 55, "duration": 4, "velocity": 86}, {"time": 3261, "pitch": 48, "duration": 7, "velocity": 96}, {"time": 3261, "pitch": 55, "duration": 5, "velocity": 96}, {"time": 3261, "pitch": 60, "duration": 5, "velocity": 91}, {"time": 3273, "pitch": 41, "duration": 21, "velocity": 91}, {"time": 3273, "pitch": 53, "duration": 7, "velocity": 80}, {"time": 3273, "pitch": 57, "duration": 5, "velocity": 82}, {"time": 3279, "pitch": 48, "duration": 14, "velocity": 76}, {"time": 3285, "pitch": 53, "duration": 3, "velocity": 83}, {"time": 3285, "pitch": 57, "duration": 3, "velocity": 90}, {"time": 3285, "pitch": 60, "duration": 3, "velocity": 86}, {"time": 3291, "pitch": 53, "duration": 4, "velocity": 82}, {"time": 3297, "pitch": 41, "duration": 16, "velocity": 91}, {"time": 3297, "pitch": 53, "duration": 5, "velocity": 85}, {"time": 3297, "pitch": 57, "duration": 5, "velocity": 91}, {"time": 3297, "pitch": 60, "duration": 6, "velocity": 92}, {"time": 3297, "pitch": 65, "duration": 6, "velocity": 87}, {"time": 3303, "pitch": 48, "duration": 7, "velocity": 90}, {"time": 3306, "pitch": 53, "duration": 1, "velocity": 93}, {"time": 3309, "pitch": 53, "duration": 4, "velocity": 94}, {"time": 3309, "pitch": 57, "duration": 4, "velocity": 97}, {"time": 3309, "pitch": 60, "duration": 4, "velocity": 97}, {"time": 3309, "pitch": 65, "duration": 4, "velocity": 92}, {"time": 3312, "pitch": 48, "duration": 10, "velocity": 104}, {"time": 3315, "pitch": 53, "duration": 5, "velocity": 97}, {"time": 3315, "pitch": 60, "duration": 1, "velocity": 59}, {"time": 3318, "pitch": 65, "duration": 3, "velocity": 96}, {"time": 3321, "pitch": 50, "duration": 23, "velocity": 91}, {"time": 3321, "pitch": 62, "duration": 3, "velocity": 88}, {"time": 3321, "pitch": 65, "duration": 4, "velocity": 86}, {"time": 3327, "pitch": 57, "duration": 2, "velocity": 74}, {"time": 3327, "pitch": 62, "duration": 3, "velocity": 81}, {"time": 3327, "pitch": 65, "duration": 3, "velocity": 76}, {"time": 3333, "pitch": 57, "duration": 3, "velocity": 90}, {"time": 3333, "pitch": 62, "duration": 3, "velocity": 92}, {"time": 3333, "pitch": 65, "duration": 3, "velocity": 91}, {"time": 3339, "pitch": 57, "duration": 4, "velocity": 82}, {"time": 3339, "pitch": 62, "duration": 3, "velocity": 90}, {"time": 3339, "pitch": 65, "duration": 4, "velocity": 87}, {"time": 3345, "pitch": 49, "duration": 14, "velocity": 91}, {"time": 3345, "pitch": 57, "duration": 3, "velocity": 82}, {"time": 3345, "pitch": 61, "duration": 4, "velocity": 87}, {"time": 3345, "pitch": 65, "duration": 4, "velocity": 88}, {"time": 3351, "pitch": 57, "duration": 2, "velocity": 66}, {"time": 3351, "pitch": 61, "duration": 2, "velocity": 82}, {"time": 3351, "pitch": 65, "duration": 2, "velocity": 79}, {"time": 3357, "pitch": 57, "duration": 2, "velocity": 91}, {"time": 3357, "pitch": 61, "duration": 2, "velocity": 99}, {"time": 3357, "pitch": 65, "duration": 3, "velocity": 90}, {"time": 3363, "pitch": 57, "duration": 2, "velocity": 85}, {"time": 3363, "pitch": 61, "duration": 2, "velocity": 89}, {"time": 3363, "pitch": 65, "duration": 4, "velocity": 83}, {"time": 3368, "pitch": 59, "duration": 9, "velocity": 83}, {"time": 3368, "pitch": 62, "duration": 10, "velocity": 90}, {"time": 3369, "pitch": 65, "duration": 9, "velocity": 84}, {"time": 3369, "pitch": 47, "duration": 13, "velocity": 93}, {"time": 3374, "pitch": 53, "duration": 7, "velocity": 75}, {"time": 3381, "pitch": 62, "duration": 4, "velocity": 91}, {"time": 3381, "pitch": 71, "duration": 3, "velocity": 90}, {"time": 3381, "pitch": 65, "duration": 3, "velocity": 88}, {"time": 3381, "pitch": 59, "duration": 4, "velocity": 83}, {"time": 3393, "pitch": 58, "duration": 14, "velocity": 80}, {"time": 3393, "pitch": 46, "duration": 15, "velocity": 91}, {"time": 3395, "pitch": 62, "duration": 13, "velocity": 83}, {"time": 3396, "pitch": 65, "duration": 12, "velocity": 84}, {"time": 3412, "pitch": 65, "duration": 29, "velocity": 83}, {"time": 3413, "pitch": 43, "duration": 18, "velocity": 81}, {"time": 3413, "pitch": 70, "duration": 28, "velocity": 87}, {"time": 3414, "pitch": 50, "duration": 18, "velocity": 81}, {"time": 3415, "pitch": 73, "duration": 26, "velocity": 78}, {"time": 3441, "pitch": 41, "duration": 59, "velocity": 92}, {"time": 3444, "pitch": 48, "duration": 55, "velocity": 84}, {"time": 3447, "pitch": 53, "duration": 3, "velocity": 83}, {"time": 3449, "pitch": 55, "duration": 2, "velocity": 90}, {"time": 3452, "pitch": 57, "duration": 3, "velocity": 82}, {"time": 3455, "pitch": 60, "duration": 3, "velocity": 88}, {"time": 3458, "pitch": 65, "duration": 2, "velocity": 85}, {"time": 3461, "pitch": 67, "duration": 2, "velocity": 66}, {"time": 3465, "pitch": 69, "duration": 5, "velocity": 80}, {"time": 3469, "pitch": 72, "duration": 5, "velocity": 79}, {"time": 3473, "pitch": 77, "duration": 2, "velocity": 82}, {"time": 3482, "pitch": 81, "duration": 2, "velocity": 59}, {"time": 3483, "pitch": 89, "duration": 2, "velocity": 87}], "annotations": [{"time": 9, "annotation": {"number": 64, "value": 127}, "group": "control_change"}, {"time": 21, "annotation": {"number": 64, "value": 127}, "group": "control_change"}, {"time": 29, "annotation": {"number": 64, "value": 0}, "group": "control_change"}, {"time": 36, "annotation": {"number": 64, "value": 0}, "group": "control_change"}, {"time": 39, "annotation": {"number": 64, "value": 127}, "group": "control_change"}, {"time": 40, "annotation": {"number": 64, "value": 0}, "group": "control_change"}, {"time": 86, "annotation": {"number": 64, "value": 127}, "group": "control_change"}, {"time": 102, "annotation": {"number": 64, "value": 0}, "group": "control_change"}, {"time": 103, "annotation": {"number": 64, "value": 0}, "group": "control_change"}, {"time": 104, "annotation": {"number": 64, "value": 127}, "group": "control_change"}, {"time": 106, "annotation": {"number": 64, "value": 127}, "group": "control_change"}, {"time": 125, "annotation": {"number": 64, "value": 0}, "group": "control_change"}, {"time": 128, "annotation": {"number": 64, "value": 0}, "group": "control_change"}, {"time": 128, "annotation": {"number": 64, "value": 127}, "group": "control_change"}, {"time": 130, "annotation": {"number": 64, "value": 127}, "group": "control_change"}, {"time": 149, "annotation": {"number": 64, "value": 0}, "group": "control_change"}, {"time": 151, "annotation": {"number": 64, "value": 0}, "group": "control_change"}, {"time": 152, "annotation": {"number": 64, "value": 127}, "group": "control_change"}, {"time": 154, "annotation": {"number": 64, "value": 127}, "group": "control_change"}, {"time": 173, "annotation": {"number": 64, "value": 0}, "group": "control_change"}, {"time": 174, "annotation": {"number": 64, "value": 0}, "group": "control_change"}, {"time": 176, "annotation": {"number": 64, "value": 127}, "group": "control_change"}, {"time": 177, "annotation": {"number": 64, "value": 127}, "group": "control_change"}, {"time": 197, "annotation": {"number": 64, "value": 0}, "group": "control_change"}, {"time": 200, "annotation": {"number": 64, "value": 127}, "group": "control_change"}, {"time": 200, "annotation": {"number": 64, "value": 0}, "group": "control_change"}, {"time": 203, "annotation": {"number": 64, "value": 127}, "group": "control_change"}, {"time": 220, "annotation": {"number": 64, "value": 0}, "group": "control_change"}, {"time": 222, "annotation": {"number": 64, "value": 0}, "group": "control_change"}, {"time": 223, "annotation": {"number": 64, "value": 127}, "group": "control_change"}, {"time": 224, "annotation": {"number": 64, "value": 127}, "group": "control_change"}, {"time": 244, "annotation": {"number": 64, "value": 0}, "group": "control_change"}, {"time": 247, "annotation": {"number": 64, "value": 0}, "group": "control_change"}, {"time": 248, "annotation": {"number": 64, "value": 127}, "group": "control_change"}, {"time": 251, "annotation": {"number": 64, "value": 127}, "group": "control_change"}, {"time": 268, "annotation": {"number": 64, "value": 0}, "group": "control_change"}, {"time": 270, "annotation": {"number": 64, "value": 0}, "group": "control_change"}, {"time": 271, "annotation": {"number": 64, "value": 127}, "group": "control_change"}, {"time": 273, "annotation": {"number": 64, "value": 127}, "group": "control_change"}, {"time": 282, "annotation": {"number": 64, "value": 0}, "group": "control_change"}, {"time": 283, "annotation": {"number": 64, "value": 0}, "group": "control_change"}, {"time": 284, "annotation": {"number": 64, "value": 127}, "group": "control_change"}, {"time": 285, "annotation": {"number": 64, "value": 127}, "group": "control_change"}, {"time": 292, "annotation": {"number": 64, "value": 0}, "group": "control_change"}, {"time": 295, "annotation": {"number": 64, "value": 0}, "group": "control_change"}, {"time": 297, "annotation": {"number": 64, "value": 127}, "group": "control_change"}, {"time": 305, "annotation": {"number": 64, "value": 0}, "group": "control_change"}, {"time": 307, "annotation": {"number": 64, "value": 0}, "group": "control_change"}, {"time": 308, "annotation": {"number": 64, "value": 127}, "group": "control_change"}, {"time": 310, "annotation": {"number": 64, "value": 127}, "group": "control_change"}, {"time": 317, "annotation": {"number": 64, "value": 0}, "group": "control_change"}, {"time": 319, "annotation": {"number": 64, "value": 0}, "group": "control_change"}, {"time": 320, "annotation": {"number": 64, "value": 127}, "group": "control_change"}, {"time": 322, "annotation": {"number": 64, "value": 127}, "group": "control_change"}, {"time": 367, "annotation": {"number": 64, "value": 0}, "group": "control_change"}, {"time": 392, "annotation": {"number": 64, "value": 0}, "group": "control_change"}, {"time": 395, "annotation": {"number": 64, "value": 127}, "group": "control_change"}, {"time": 415, "annotation": {"number": 64, "value": 0}, "group": "control_change"}, {"time": 418, "annotation": {"number": 64, "value": 127}, "group": "control_change"}, {"time": 439, "annotation": {"number": 64, "value": 0}, "group": "control_change"}, {"time": 444, "annotation": {"number": 64, "value": 127}, "group": "control_change"}, {"time": 444, "annotation": {"number": 64, "value": 0}, "group": "control_change"}, {"time": 463, "annotation": {"number": 64, "value": 0}, "group": "control_change"}, {"time": 466, "annotation": {"number": 64, "value": 127}, "group": "control_change"}, {"time": 488, "annotation": {"number": 64, "value": 0}, "group": "control_change"}, {"time": 492, "annotation": {"number": 64, "value": 127}, "group": "control_change"}, {"time": 512, "annotation": {"number": 64, "value": 0}, "group": "control_change"}, {"time": 518, "annotation": {"number": 64, "value": 127}, "group": "control_change"}, {"time": 535, "annotation": {"number": 64, "value": 0}, "group": "control_change"}, {"time": 537, "annotation": {"number": 64, "value": 127}, "group": "control_change"}, {"time": 548, "annotation": {"number": 64, "value": 0}, "group": "control_change"}, {"time": 550, "annotation": {"number": 64, "value": 127}, "group": "control_change"}, {"time": 560, "annotation": {"number": 64, "value": 0}, "group": "control_change"}, {"time": 567, "annotation": {"number": 64, "value": 127}, "group": "control_change"}, {"time": 567, "annotation": {"number": 64, "value": 0}, "group": "control_change"}, {"time": 585, "annotation": {"number": 64, "value": 0}, "group": "control_change"}, {"time": 591, "annotation": {"number": 64, "value": 127}, "group": "control_change"}, {"time": 606, "annotation": {"number": 64, "value": 0}, "group": "control_change"}, {"time": 610, "annotation": {"number": 64, "value": 127}, "group": "control_change"}, {"time": 633, "annotation": {"number": 64, "value": 0}, "group": "control_change"}, {"time": 638, "annotation": {"number": 64, "value": 127}, "group": "control_change"}, {"time": 655, "annotation": {"number": 64, "value": 0}, "group": "control_change"}, {"time": 658, "annotation": {"number": 64, "value": 127}, "group": "control_change"}, {"time": 680, "annotation": {"number": 64, "value": 0}, "group": "control_change"}, {"time": 683, "annotation": {"number": 64, "value": 127}, "group": "control_change"}, {"time": 704, "annotation": {"number": 64, "value": 0}, "group": "control_change"}, {"time": 705, "annotation": {"number": 64, "value": 127}, "group": "control_change"}, {"time": 725, "annotation": {"number": 64, "value": 0}, "group": "control_change"}, {"time": 728, "annotation": {"number": 64, "value": 127}, "group": "control_change"}, {"time": 738, "annotation": {"number": 64, "value": 0}, "group": "control_change"}, {"time": 740, "annotation": {"number": 64, "value": 127}, "group": "control_change"}, {"time": 751, "annotation": {"number": 64, "value": 0}, "group": "control_change"}, {"time": 753, "annotation": {"number": 64, "value": 127}, "group": "control_change"}, {"time": 775, "annotation": {"number": 64, "value": 0}, "group": "control_change"}, {"time": 782, "annotation": {"number": 64, "value": 127}, "group": "control_change"}, {"time": 799, "annotation": {"number": 64, "value": 0}, "group": "control_change"}, {"time": 801, "annotation": {"number": 64, "value": 127}, "group": "control_change"}, {"time": 824, "annotation": {"number": 64, "value": 0}, "group": "control_change"}, {"time": 830, "annotation": {"number": 64, "value": 127}, "group": "control_change"}, {"time": 847, "annotation": {"number": 64, "value": 0}, "group": "control_change"}, {"time": 849, "annotation": {"number": 64, "value": 127}, "group": "control_change"}, {"time": 872, "annotation": {"number": 64, "value": 0}, "group": "control_change"}, {"time": 876, "annotation": {"number": 64, "value": 127}, "group": "control_change"}, {"time": 895, "annotation": {"number": 64, "value": 0}, "group": "control_change"}, {"time": 898, "annotation": {"number": 64, "value": 127}, "group": "control_change"}, {"time": 918, "annotation": {"number": 64, "value": 0}, "group": "control_change"}, {"time": 920, "annotation": {"number": 64, "value": 127}, "group": "control_change"}, {"time": 945, "annotation": {"number": 64, "value": 0}, "group": "control_change"}, {"time": 945, "annotation": {"number": 64, "value": 127}, "group": "control_change"}, {"time": 968, "annotation": {"number": 64, "value": 0}, "group": "control_change"}, {"time": 969, "annotation": {"number": 64, "value": 127}, "group": "control_change"}, {"time": 991, "annotation": {"number": 64, "value": 0}, "group": "control_change"}, {"time": 994, "annotation": {"number": 64, "value": 127}, "group": "control_change"}, {"time": 1016, "annotation": {"number": 64, "value": 0}, "group": "control_change"}, {"time": 1020, "annotation": {"number": 64, "value": 127}, "group": "control_change"}, {"time": 1039, "annotation": {"number": 64, "value": 0}, "group": "control_change"}, {"time": 1042, "annotation": {"number": 64, "value": 127}, "group": "control_change"}, {"time": 1063, "annotation": {"number": 64, "value": 0}, "group": "control_change"}, {"time": 1070, "annotation": {"number": 64, "value": 127}, "group": "control_change"}, {"time": 1087, "annotation": {"number": 64, "value": 0}, "group": "control_change"}, {"time": 1090, "annotation": {"number": 64, "value": 127}, "group": "control_change"}, {"time": 1110, "annotation": {"number": 64, "value": 0}, "group": "control_change"}, {"time": 1113, "annotation": {"number": 64, "value": 127}, "group": "control_change"}, {"time": 1134, "annotation": {"number": 64, "value": 0}, "group": "control_change"}, {"time": 1137, "annotation": {"number": 64, "value": 127}, "group": "control_change"}, {"time": 1148, "annotation": {"number": 64, "value": 0}, "group": "control_change"}, {"time": 1150, "annotation": {"number": 64, "value": 127}, "group": "control_change"}, {"time": 1158, "annotation": {"number": 64, "value": 0}, "group": "control_change"}, {"time": 1161, "annotation": {"number": 64, "value": 127}, "group": "control_change"}, {"time": 1182, "annotation": {"number": 64, "value": 0}, "group": "control_change"}, {"time": 1184, "annotation": {"number": 64, "value": 127}, "group": "control_change"}, {"time": 1206, "annotation": {"number": 64, "value": 0}, "group": "control_change"}, {"time": 1209, "annotation": {"number": 64, "value": 127}, "group": "control_change"}, {"time": 1232, "annotation": {"number": 64, "value": 0}, "group": "control_change"}, {"time": 1234, "annotation": {"number": 64, "value": 127}, "group": "control_change"}, {"time": 1255, "annotation": {"number": 64, "value": 0}, "group": "control_change"}, {"time": 1256, "annotation": {"number": 64, "value": 127}, "group": "control_change"}, {"time": 1256, "annotation": {"number": 64, "value": 0}, "group": "control_change"}, {"time": 1279, "annotation": {"number": 64, "value": 0}, "group": "control_change"}, {"time": 1282, "annotation": {"number": 64, "value": 127}, "group": "control_change"}, {"time": 1290, "annotation": {"number": 64, "value": 0}, "group": "control_change"}, {"time": 1293, "annotation": {"number": 64, "value": 127}, "group": "control_change"}, {"time": 1303, "annotation": {"number": 64, "value": 0}, "group": "control_change"}, {"time": 1305, "annotation": {"number": 64, "value": 127}, "group": "control_change"}, {"time": 1315, "annotation": {"number": 64, "value": 0}, "group": "control_change"}, {"time": 1317, "annotation": {"number": 64, "value": 127}, "group": "control_change"}, {"time": 1327, "annotation": {"number": 64, "value": 0}, "group": "control_change"}, {"time": 1333, "annotation": {"number": 64, "value": 127}, "group": "control_change"}, {"time": 1374, "annotation": {"number": 64, "value": 0}, "group": "control_change"}, {"time": 1377, "annotation": {"number": 64, "value": 127}, "group": "control_change"}, {"time": 1398, "annotation": {"number": 64, "value": 0}, "group": "control_change"}, {"time": 1404, "annotation": {"number": 64, "value": 127}, "group": "control_change"}, {"time": 1424, "annotation": {"number": 64, "value": 0}, "group": "control_change"}, {"time": 1426, "annotation": {"number": 64, "value": 127}, "group": "control_change"}, {"time": 1448, "annotation": {"number": 64, "value": 0}, "group": "control_change"}, {"time": 1450, "annotation": {"number": 64, "value": 127}, "group": "control_change"}, {"time": 1471, "annotation": {"number": 64, "value": 0}, "group": "control_change"}, {"time": 1478, "annotation": {"number": 64, "value": 127}, "group": "control_change"}, {"time": 1478, "annotation": {"number": 64, "value": 0}, "group": "control_change"}, {"time": 1495, "annotation": {"number": 64, "value": 0}, "group": "control_change"}, {"time": 1497, "annotation": {"number": 64, "value": 127}, "group": "control_change"}, {"time": 1518, "annotation": {"number": 64, "value": 0}, "group": "control_change"}, {"time": 1520, "annotation": {"number": 64, "value": 127}, "group": "control_change"}, {"time": 1543, "annotation": {"number": 64, "value": 0}, "group": "control_change"}, {"time": 1545, "annotation": {"number": 64, "value": 127}, "group": "control_change"}, {"time": 1568, "annotation": {"number": 64, "value": 0}, "group": "control_change"}, {"time": 1570, "annotation": {"number": 64, "value": 127}, "group": "control_change"}, {"time": 1615, "annotation": {"number": 64, "value": 0}, "group": "control_change"}, {"time": 1640, "annotation": {"number": 64, "value": 0}, "group": "control_change"}, {"time": 1643, "annotation": {"number": 64, "value": 127}, "group": "control_change"}, {"time": 1663, "annotation": {"number": 64, "value": 0}, "group": "control_change"}, {"time": 1666, "annotation": {"number": 64, "value": 127}, "group": "control_change"}, {"time": 1687, "annotation": {"number": 64, "value": 0}, "group": "control_change"}, {"time": 1692, "annotation": {"number": 64, "value": 127}, "group": "control_change"}, {"time": 1692, "annotation": {"number": 64, "value": 0}, "group": "control_change"}, {"time": 1711, "annotation": {"number": 64, "value": 0}, "group": "control_change"}, {"time": 1714, "annotation": {"number": 64, "value": 127}, "group": "control_change"}, {"time": 1736, "annotation": {"number": 64, "value": 0}, "group": "control_change"}, {"time": 1740, "annotation": {"number": 64, "value": 127}, "group": "control_change"}, {"time": 1760, "annotation": {"number": 64, "value": 0}, "group": "control_change"}, {"time": 1766, "annotation": {"number": 64, "value": 127}, "group": "control_change"}, {"time": 1783, "annotation": {"number": 64, "value": 0}, "group": "control_change"}, {"time": 1785, "annotation": {"number": 64, "value": 127}, "group": "control_change"}, {"time": 1796, "annotation": {"number": 64, "value": 0}, "group": "control_change"}, {"time": 1798, "annotation": {"number": 64, "value": 127}, "group": "control_change"}, {"time": 1808, "annotation": {"number": 64, "value": 0}, "group": "control_change"}, {"time": 1815, "annotation": {"number": 64, "value": 127}, "group": "control_change"}, {"time": 1815, "annotation": {"number": 64, "value": 0}, "group": "control_change"}, {"time": 1833, "annotation": {"number": 64, "value": 0}, "group": "control_change"}, {"time": 1839, "annotation": {"number": 64, "value": 127}, "group": "control_change"}, {"time": 1854, "annotation": {"number": 64, "value": 0}, "group": "control_change"}, {"time": 1858, "annotation": {"number": 64, "value": 127}, "group": "control_change"}, {"time": 1881, "annotation": {"number": 64, "value": 0}, "group": "control_change"}, {"time": 1886, "annotation": {"number": 64, "value": 127}, "group": "control_change"}, {"time": 1903, "annotation": {"number": 64, "value": 0}, "group": "control_change"}, {"time": 1906, "annotation": {"number": 64, "value": 127}, "group": "control_change"}, {"time": 1928, "annotation": {"number": 64, "value": 0}, "group": "control_change"}, {"time": 1931, "annotation": {"number": 64, "value": 127}, "group": "control_change"}, {"time": 1952, "annotation": {"number": 64, "value": 0}, "group": "control_change"}, {"time": 1953, "annotation": {"number": 64, "value": 127}, "group": "control_change"}, {"time": 1973, "annotation": {"number": 64, "value": 0}, "group": "control_change"}, {"time": 1976, "annotation": {"number": 64, "value": 127}, "group": "control_change"}, {"time": 1986, "annotation": {"number": 64, "value": 0}, "group": "control_change"}, {"time": 1988, "annotation": {"number": 64, "value": 127}, "group": "control_change"}, {"time": 1999, "annotation": {"number": 64, "value": 0}, "group": "control_change"}, {"time": 2001, "annotation": {"number": 64, "value": 127}, "group": "control_change"}, {"time": 2023, "annotation": {"number": 64, "value": 0}, "group": "control_change"}, {"time": 2030, "annotation": {"number": 64, "value": 127}, "group": "control_change"}, {"time": 2047, "annotation": {"number": 64, "value": 0}, "group": "control_change"}, {"time": 2049, "annotation": {"number": 64, "value": 127}, "group": "control_change"}, {"time": 2072, "annotation": {"number": 64, "value": 0}, "group": "control_change"}, {"time": 2078, "annotation": {"number": 64, "value": 127}, "group": "control_change"}, {"time": 2095, "annotation": {"number": 64, "value": 0}, "group": "control_change"}, {"time": 2097, "annotation": {"number": 64, "value": 127}, "group": "control_change"}, {"time": 2120, "annotation": {"number": 64, "value": 0}, "group": "control_change"}, {"time": 2124, "annotation": {"number": 64, "value": 127}, "group": "control_change"}, {"time": 2143, "annotation": {"number": 64, "value": 0}, "group": "control_change"}, {"time": 2146, "annotation": {"number": 64, "value": 127}, "group": "control_change"}, {"time": 2166, "annotation": {"number": 64, "value": 0}, "group": "control_change"}, {"time": 2168, "annotation": {"number": 64, "value": 127}, "group": "control_change"}, {"time": 2193, "annotation": {"number": 64, "value": 0}, "group": "control_change"}, {"time": 2193, "annotation": {"number": 64, "value": 127}, "group": "control_change"}, {"time": 2216, "annotation": {"number": 64, "value": 0}, "group": "control_change"}, {"time": 2217, "annotation": {"number": 64, "value": 127}, "group": "control_change"}, {"time": 2239, "annotation": {"number": 64, "value": 0}, "group": "control_change"}, {"time": 2242, "annotation": {"number": 64, "value": 127}, "group": "control_change"}, {"time": 2264, "annotation": {"number": 64, "value": 0}, "group": "control_change"}, {"time": 2268, "annotation": {"number": 64, "value": 127}, "group": "control_change"}, {"time": 2287, "annotation": {"number": 64, "value": 0}, "group": "control_change"}, {"time": 2290, "annotation": {"number": 64, "value": 127}, "group": "control_change"}, {"time": 2311, "annotation": {"number": 64, "value": 0}, "group": "control_change"}, {"time": 2318, "annotation": {"number": 64, "value": 127}, "group": "control_change"}, {"time": 2335, "annotation": {"number": 64, "value": 0}, "group": "control_change"}, {"time": 2338, "annotation": {"number": 64, "value": 127}, "group": "control_change"}, {"time": 2358, "annotation": {"number": 64, "value": 0}, "group": "control_change"}, {"time": 2361, "annotation": {"number": 64, "value": 127}, "group": "control_change"}, {"time": 2382, "annotation": {"number": 64, "value": 0}, "group": "control_change"}, {"time": 2385, "annotation": {"number": 64, "value": 127}, "group": "control_change"}, {"time": 2396, "annotation": {"number": 64, "value": 0}, "group": "control_change"}, {"time": 2398, "annotation": {"number": 64, "value": 127}, "group": "control_change"}, {"time": 2406, "annotation": {"number": 64, "value": 0}, "group": "control_change"}, {"time": 2409, "annotation": {"number": 64, "value": 127}, "group": "control_change"}, {"time": 2430, "annotation": {"number": 64, "value": 0}, "group": "control_change"}, {"time": 2432, "annotation": {"number": 64, "value": 127}, "group": "control_change"}, {"time": 2454, "annotation": {"number": 64, "value": 0}, "group": "control_change"}, {"time": 2457, "annotation": {"number": 64, "value": 127}, "group": "control_change"}, {"time": 2480, "annotation": {"number": 64, "value": 0}, "group": "control_change"}, {"time": 2482, "annotation": {"number": 64, "value": 127}, "group": "control_change"}, {"time": 2503, "annotation": {"number": 64, "value": 0}, "group": "control_change"}, {"time": 2504, "annotation": {"number": 64, "value": 127}, "group": "control_change"}, {"time": 2504, "annotation": {"number": 64, "value": 0}, "group": "control_change"}, {"time": 2527, "annotation": {"number": 64, "value": 0}, "group": "control_change"}, {"time": 2530, "annotation": {"number": 64, "value": 127}, "group": "control_change"}, {"time": 2538, "annotation": {"number": 64, "value": 0}, "group": "control_change"}, {"time": 2541, "annotation": {"number": 64, "value": 127}, "group": "control_change"}, {"time": 2551, "annotation": {"number": 64, "value": 0}, "group": "control_change"}, {"time": 2553, "annotation": {"number": 64, "value": 127}, "group": "control_change"}, {"time": 2563, "annotation": {"number": 64, "value": 0}, "group": "control_change"}, {"time": 2565, "annotation": {"number": 64, "value": 127}, "group": "control_change"}, {"time": 2575, "annotation": {"number": 64, "value": 0}, "group": "control_change"}, {"time": 2581, "annotation": {"number": 64, "value": 127}, "group": "control_change"}, {"time": 2622, "annotation": {"number": 64, "value": 0}, "group": "control_change"}, {"time": 2625, "annotation": {"number": 64, "value": 127}, "group": "control_change"}, {"time": 2648, "annotation": {"number": 64, "value": 0}, "group": "control_change"}, {"time": 2650, "annotation": {"number": 64, "value": 127}, "group": "control_change"}, {"time": 2671, "annotation": {"number": 64, "value": 0}, "group": "control_change"}, {"time": 2672, "annotation": {"number": 64, "value": 127}, "group": "control_change"}, {"time": 2696, "annotation": {"number": 64, "value": 0}, "group": "control_change"}, {"time": 2701, "annotation": {"number": 64, "value": 127}, "group": "control_change"}, {"time": 2718, "annotation": {"number": 64, "value": 0}, "group": "control_change"}, {"time": 2726, "annotation": {"number": 64, "value": 127}, "group": "control_change"}, {"time": 2743, "annotation": {"number": 64, "value": 0}, "group": "control_change"}, {"time": 2745, "annotation": {"number": 64, "value": 127}, "group": "control_change"}, {"time": 2768, "annotation": {"number": 64, "value": 0}, "group": "control_change"}, {"time": 2774, "annotation": {"number": 64, "value": 127}, "group": "control_change"}, {"time": 2791, "annotation": {"number": 64, "value": 0}, "group": "control_change"}, {"time": 2793, "annotation": {"number": 64, "value": 127}, "group": "control_change"}, {"time": 2816, "annotation": {"number": 64, "value": 0}, "group": "control_change"}, {"time": 2820, "annotation": {"number": 64, "value": 127}, "group": "control_change"}, {"time": 2839, "annotation": {"number": 64, "value": 0}, "group": "control_change"}, {"time": 2842, "annotation": {"number": 64, "value": 127}, "group": "control_change"}, {"time": 2862, "annotation": {"number": 64, "value": 0}, "group": "control_change"}, {"time": 2864, "annotation": {"number": 64, "value": 127}, "group": "control_change"}, {"time": 2889, "annotation": {"number": 64, "value": 0}, "group": "control_change"}, {"time": 2889, "annotation": {"number": 64, "value": 127}, "group": "control_change"}, {"time": 2912, "annotation": {"number": 64, "value": 0}, "group": "control_change"}, {"time": 2913, "annotation": {"number": 64, "value": 127}, "group": "control_change"}, {"time": 2935, "annotation": {"number": 64, "value": 0}, "group": "control_change"}, {"time": 2938, "annotation": {"number": 64, "value": 127}, "group": "control_change"}, {"time": 2960, "annotation": {"number": 64, "value": 0}, "group": "control_change"}, {"time": 2964, "annotation": {"number": 64, "value": 127}, "group": "control_change"}, {"time": 2983, "annotation": {"number": 64, "value": 0}, "group": "control_change"}, {"time": 2986, "annotation": {"number": 64, "value": 127}, "group": "control_change"}, {"time": 3007, "annotation": {"number": 64, "value": 0}, "group": "control_change"}, {"time": 3014, "annotation": {"number": 64, "value": 127}, "group": "control_change"}, {"time": 3031, "annotation": {"number": 64, "value": 0}, "group": "control_change"}, {"time": 3034, "annotation": {"number": 64, "value": 127}, "group": "control_change"}, {"time": 3054, "annotation": {"number": 64, "value": 0}, "group": "control_change"}, {"time": 3057, "annotation": {"number": 64, "value": 127}, "group": "control_change"}, {"time": 3078, "annotation": {"number": 64, "value": 0}, "group": "control_change"}, {"time": 3081, "annotation": {"number": 64, "value": 127}, "group": "control_change"}, {"time": 3092, "annotation": {"number": 64, "value": 0}, "group": "control_change"}, {"time": 3094, "annotation": {"number": 64, "value": 127}, "group": "control_change"}, {"time": 3102, "annotation": {"number": 64, "value": 0}, "group": "control_change"}, {"time": 3105, "annotation": {"number": 64, "value": 127}, "group": "control_change"}, {"time": 3126, "annotation": {"number": 64, "value": 0}, "group": "control_change"}, {"time": 3128, "annotation": {"number": 64, "value": 127}, "group": "control_change"}, {"time": 3150, "annotation": {"number": 64, "value": 0}, "group": "control_change"}, {"time": 3153, "annotation": {"number": 64, "value": 127}, "group": "control_change"}, {"time": 3176, "annotation": {"number": 64, "value": 0}, "group": "control_change"}, {"time": 3178, "annotation": {"number": 64, "value": 127}, "group": "control_change"}, {"time": 3199, "annotation": {"number": 64, "value": 0}, "group": "control_change"}, {"time": 3200, "annotation": {"number": 64, "value": 127}, "group": "control_change"}, {"time": 3200, "annotation": {"number": 64, "value": 0}, "group": "control_change"}, {"time": 3223, "annotation": {"number": 64, "value": 0}, "group": "control_change"}, {"time": 3226, "annotation": {"number": 64, "value": 127}, "group": "control_change"}, {"time": 3234, "annotation": {"number": 64, "value": 0}, "group": "control_change"}, {"time": 3237, "annotation": {"number": 64, "value": 127}, "group": "control_change"}, {"time": 3247, "annotation": {"number": 64, "value": 0}, "group": "control_change"}, {"time": 3249, "annotation": {"number": 64, "value": 127}, "group": "control_change"}, {"time": 3259, "annotation": {"number": 64, "value": 0}, "group": "control_change"}, {"time": 3261, "annotation": {"number": 64, "value": 127}, "group": "control_change"}, {"time": 3271, "annotation": {"number": 64, "value": 0}, "group": "control_change"}, {"time": 3277, "annotation": {"number": 64, "value": 127}, "group": "control_change"}, {"time": 3318, "annotation": {"number": 64, "value": 0}, "group": "control_change"}, {"time": 3321, "annotation": {"number": 64, "value": 127}, "group": "control_change"}, {"time": 3343, "annotation": {"number": 64, "value": 0}, "group": "control_change"}, {"time": 3345, "annotation": {"number": 64, "value": 127}, "group": "control_change"}, {"time": 3368, "annotation": {"number": 64, "value": 0}, "group": "control_change"}, {"time": 3369, "annotation": {"number": 64, "value": 127}, "group": "control_change"}, {"time": 3390, "annotation": {"number": 64, "value": 0}, "group": "control_change"}, {"time": 3395, "annotation": {"number": 64, "value": 127}, "group": "control_change"}, {"time": 3413, "annotation": {"number": 64, "value": 127}, "group": "control_change"}, {"time": 3416, "annotation": {"number": 64, "value": 0}, "group": "control_change"}, {"time": 3440, "annotation": {"number": 64, "value": 0}, "group": "control_change"}, {"time": 3446, "annotation": {"number": 64, "value": 127}, "group": "control_change"}, {"time": 3523, "annotation": {"number": 64, "value": 0}, "group": "control_change"}]}]}