{"metadata": {"schema_version": "0.2", "title": "None", "source_filename": "429.mid", "source_format": "midi"}, "resolution": 12, "tempos": [{"time": 0, "qpm": 112.00005973336519}], "time_signatures": [{"time": 0, "numerator": 1, "denominator": 4}], "tracks": [{"program": 4, "is_drum": false, "name": "MELODY", "notes": [{"time": 604, "pitch": 71, "duration": 4, "velocity": 95}, {"time": 610, "pitch": 73, "duration": 4, "velocity": 99}, {"time": 616, "pitch": 74, "duration": 5, "velocity": 101}, {"time": 622, "pitch": 73, "duration": 5, "velocity": 101}, {"time": 628, "pitch": 71, "duration": 10, "velocity": 99}, {"time": 640, "pitch": 69, "duration": 9, "velocity": 95}, {"time": 652, "pitch": 71, "duration": 38, "velocity": 96}, {"time": 700, "pitch": 71, "duration": 4, "velocity": 97}, {"time": 706, "pitch": 73, "duration": 3, "velocity": 87}, {"time": 712, "pitch": 74, "duration": 4, "velocity": 96}, {"time": 718, "pitch": 73, "duration": 5, "velocity": 100}, {"time": 724, "pitch": 71, "duration": 9, "velocity": 99}, {"time": 736, "pitch": 73, "duration": 10, "velocity": 99}, {"time": 748, "pitch": 66, "duration": 39, "velocity": 97}, {"time": 796, "pitch": 71, "duration": 6, "velocity": 101}, {"time": 802, "pitch": 73, "duration": 3, "velocity": 96}, {"time": 808, "pitch": 74, "duration": 4, "velocity": 102}, {"time": 814, "pitch": 73, "duration": 5, "velocity": 100}, {"time": 820, "pitch": 71, "duration": 10, "velocity": 99}, {"time": 832, "pitch": 78, "duration": 9, "velocity": 99}, {"time": 844, "pitch": 76, "duration": 20, "velocity": 99}, {"time": 862, "pitch": 74, "duration": 4, "velocity": 99}, {"time": 868, "pitch": 76, "duration": 19, "velocity": 99}, {"time": 892, "pitch": 74, "duration": 3, "velocity": 102}, {"time": 898, "pitch": 76, "duration": 4, "velocity": 97}, {"time": 904, "pitch": 78, "duration": 5, "velocity": 98}, {"time": 910, "pitch": 76, "duration": 4, "velocity": 99}, {"time": 916, "pitch": 74, "duration": 9, "velocity": 99}, {"time": 928, "pitch": 76, "duration": 5, "velocity": 97}, {"time": 934, "pitch": 78, "duration": 4, "velocity": 94}, {"time": 940, "pitch": 73, "duration": 41, "velocity": 97}, {"time": 988, "pitch": 71, "duration": 4, "velocity": 95}, {"time": 994, "pitch": 73, "duration": 4, "velocity": 99}, {"time": 1000, "pitch": 74, "duration": 5, "velocity": 101}, {"time": 1006, "pitch": 73, "duration": 5, "velocity": 101}, {"time": 1012, "pitch": 71, "duration": 10, "velocity": 99}, {"time": 1024, "pitch": 69, "duration": 9, "velocity": 95}, {"time": 1036, "pitch": 71, "duration": 38, "velocity": 96}, {"time": 1084, "pitch": 71, "duration": 4, "velocity": 97}, {"time": 1090, "pitch": 73, "duration": 3, "velocity": 87}, {"time": 1096, "pitch": 74, "duration": 4, "velocity": 96}, {"time": 1102, "pitch": 73, "duration": 5, "velocity": 100}, {"time": 1108, "pitch": 71, "duration": 9, "velocity": 99}, {"time": 1120, "pitch": 73, "duration": 10, "velocity": 99}, {"time": 1132, "pitch": 66, "duration": 39, "velocity": 97}, {"time": 1180, "pitch": 71, "duration": 6, "velocity": 101}, {"time": 1186, "pitch": 73, "duration": 3, "velocity": 96}, {"time": 1192, "pitch": 74, "duration": 4, "velocity": 102}, {"time": 1198, "pitch": 73, "duration": 5, "velocity": 100}, {"time": 1204, "pitch": 71, "duration": 10, "velocity": 99}, {"time": 1216, "pitch": 78, "duration": 9, "velocity": 99}, {"time": 1228, "pitch": 76, "duration": 20, "velocity": 99}, {"time": 1246, "pitch": 74, "duration": 4, "velocity": 99}, {"time": 1252, "pitch": 76, "duration": 19, "velocity": 99}, {"time": 1276, "pitch": 74, "duration": 3, "velocity": 102}, {"time": 1282, "pitch": 76, "duration": 4, "velocity": 97}, {"time": 1288, "pitch": 78, "duration": 5, "velocity": 98}, {"time": 1294, "pitch": 76, "duration": 4, "velocity": 99}, {"time": 1300, "pitch": 74, "duration": 9, "velocity": 99}, {"time": 1312, "pitch": 73, "duration": 5, "velocity": 97}, {"time": 1318, "pitch": 71, "duration": 4, "velocity": 94}, {"time": 1324, "pitch": 71, "duration": 41, "velocity": 97}, {"time": 1372, "pitch": 78, "duration": 5, "velocity": 106}, {"time": 1378, "pitch": 81, "duration": 3, "velocity": 101}, {"time": 1384, "pitch": 83, "duration": 4, "velocity": 100}, {"time": 1390, "pitch": 81, "duration": 4, "velocity": 102}, {"time": 1396, "pitch": 76, "duration": 15, "velocity": 106}, {"time": 1420, "pitch": 78, "duration": 8, "velocity": 100}, {"time": 1432, "pitch": 74, "duration": 5, "velocity": 100}, {"time": 1438, "pitch": 73, "duration": 5, "velocity": 101}, {"time": 1444, "pitch": 71, "duration": 18, "velocity": 100}, {"time": 1468, "pitch": 78, "duration": 4, "velocity": 97}, {"time": 1474, "pitch": 81, "duration": 3, "velocity": 98}, {"time": 1480, "pitch": 83, "duration": 4, "velocity": 97}, {"time": 1486, "pitch": 81, "duration": 3, "velocity": 98}, {"time": 1492, "pitch": 76, "duration": 9, "velocity": 100}, {"time": 1504, "pitch": 74, "duration": 3, "velocity": 104}, {"time": 1510, "pitch": 76, "duration": 4, "velocity": 99}, {"time": 1516, "pitch": 78, "duration": 40, "velocity": 98}, {"time": 1564, "pitch": 78, "duration": 4, "velocity": 104}, {"time": 1570, "pitch": 81, "duration": 3, "velocity": 97}, {"time": 1576, "pitch": 83, "duration": 4, "velocity": 99}, {"time": 1582, "pitch": 81, "duration": 3, "velocity": 95}, {"time": 1588, "pitch": 76, "duration": 19, "velocity": 101}, {"time": 1612, "pitch": 76, "duration": 6, "velocity": 98}, {"time": 1618, "pitch": 78, "duration": 5, "velocity": 101}, {"time": 1624, "pitch": 76, "duration": 11, "velocity": 102}, {"time": 1636, "pitch": 74, "duration": 16, "velocity": 104}, {"time": 1660, "pitch": 76, "duration": 4, "velocity": 82}, {"time": 1666, "pitch": 74, "duration": 3, "velocity": 95}, {"time": 1672, "pitch": 76, "duration": 3, "velocity": 99}, {"time": 1678, "pitch": 74, "duration": 3, "velocity": 104}, {"time": 1684, "pitch": 76, "duration": 9, "velocity": 100}, {"time": 1696, "pitch": 79, "duration": 10, "velocity": 100}, {"time": 1708, "pitch": 78, "duration": 37, "velocity": 104}, {"time": 1756, "pitch": 78, "duration": 3, "velocity": 96}, {"time": 1762, "pitch": 81, "duration": 3, "velocity": 93}, {"time": 1768, "pitch": 83, "duration": 4, "velocity": 97}, {"time": 1774, "pitch": 81, "duration": 4, "velocity": 95}, {"time": 1780, "pitch": 76, "duration": 21, "velocity": 99}, {"time": 1804, "pitch": 78, "duration": 8, "velocity": 97}, {"time": 1816, "pitch": 74, "duration": 4, "velocity": 100}, {"time": 1822, "pitch": 73, "duration": 4, "velocity": 100}, {"time": 1828, "pitch": 71, "duration": 14, "velocity": 91}, {"time": 1852, "pitch": 78, "duration": 4, "velocity": 97}, {"time": 1858, "pitch": 81, "duration": 3, "velocity": 97}, {"time": 1864, "pitch": 83, "duration": 4, "velocity": 97}, {"time": 1870, "pitch": 81, "duration": 3, "velocity": 99}, {"time": 1876, "pitch": 83, "duration": 10, "velocity": 99}, {"time": 1888, "pitch": 85, "duration": 6, "velocity": 106}, {"time": 1894, "pitch": 83, "duration": 2, "velocity": 96}, {"time": 1900, "pitch": 78, "duration": 33, "velocity": 104}, {"time": 1948, "pitch": 78, "duration": 3, "velocity": 101}, {"time": 1954, "pitch": 81, "duration": 3, "velocity": 97}, {"time": 1960, "pitch": 83, "duration": 3, "velocity": 96}, {"time": 1966, "pitch": 81, "duration": 3, "velocity": 95}, {"time": 1972, "pitch": 76, "duration": 22, "velocity": 104}, {"time": 1996, "pitch": 78, "duration": 8, "velocity": 99}, {"time": 2008, "pitch": 76, "duration": 11, "velocity": 93}, {"time": 2020, "pitch": 74, "duration": 16, "velocity": 97}, {"time": 2044, "pitch": 76, "duration": 3, "velocity": 98}, {"time": 2050, "pitch": 76, "duration": 2, "velocity": 96}, {"time": 2056, "pitch": 76, "duration": 3, "velocity": 99}, {"time": 2062, "pitch": 78, "duration": 4, "velocity": 97}, {"time": 2068, "pitch": 76, "duration": 8, "velocity": 99}, {"time": 2080, "pitch": 69, "duration": 10, "velocity": 97}, {"time": 2092, "pitch": 71, "duration": 43, "velocity": 99}, {"time": 2716, "pitch": 71, "duration": 4, "velocity": 95}, {"time": 2722, "pitch": 73, "duration": 4, "velocity": 99}, {"time": 2728, "pitch": 74, "duration": 5, "velocity": 101}, {"time": 2734, "pitch": 73, "duration": 5, "velocity": 101}, {"time": 2740, "pitch": 71, "duration": 10, "velocity": 99}, {"time": 2752, "pitch": 69, "duration": 9, "velocity": 95}, {"time": 2764, "pitch": 71, "duration": 38, "velocity": 96}, {"time": 2812, "pitch": 71, "duration": 4, "velocity": 97}, {"time": 2818, "pitch": 73, "duration": 3, "velocity": 87}, {"time": 2824, "pitch": 74, "duration": 4, "velocity": 96}, {"time": 2830, "pitch": 73, "duration": 5, "velocity": 100}, {"time": 2836, "pitch": 71, "duration": 9, "velocity": 99}, {"time": 2848, "pitch": 73, "duration": 10, "velocity": 99}, {"time": 2860, "pitch": 66, "duration": 39, "velocity": 97}, {"time": 2908, "pitch": 71, "duration": 6, "velocity": 101}, {"time": 2914, "pitch": 73, "duration": 3, "velocity": 96}, {"time": 2920, "pitch": 74, "duration": 4, "velocity": 102}, {"time": 2926, "pitch": 73, "duration": 5, "velocity": 100}, {"time": 2932, "pitch": 71, "duration": 10, "velocity": 99}, {"time": 2944, "pitch": 78, "duration": 9, "velocity": 99}, {"time": 2956, "pitch": 76, "duration": 20, "velocity": 99}, {"time": 2974, "pitch": 74, "duration": 4, "velocity": 99}, {"time": 2980, "pitch": 76, "duration": 19, "velocity": 99}, {"time": 3004, "pitch": 74, "duration": 3, "velocity": 102}, {"time": 3010, "pitch": 76, "duration": 4, "velocity": 97}, {"time": 3016, "pitch": 78, "duration": 5, "velocity": 98}, {"time": 3022, "pitch": 76, "duration": 4, "velocity": 99}, {"time": 3028, "pitch": 74, "duration": 9, "velocity": 99}, {"time": 3040, "pitch": 73, "duration": 5, "velocity": 97}, {"time": 3046, "pitch": 71, "duration": 4, "velocity": 94}, {"time": 3052, "pitch": 71, "duration": 41, "velocity": 97}, {"time": 3100, "pitch": 78, "duration": 5, "velocity": 106}, {"time": 3106, "pitch": 81, "duration": 3, "velocity": 101}, {"time": 3112, "pitch": 83, "duration": 4, "velocity": 100}, {"time": 3118, "pitch": 81, "duration": 4, "velocity": 102}, {"time": 3124, "pitch": 76, "duration": 15, "velocity": 106}, {"time": 3148, "pitch": 78, "duration": 8, "velocity": 100}, {"time": 3160, "pitch": 74, "duration": 5, "velocity": 100}, {"time": 3166, "pitch": 73, "duration": 5, "velocity": 101}, {"time": 3172, "pitch": 71, "duration": 18, "velocity": 100}, {"time": 3196, "pitch": 78, "duration": 4, "velocity": 97}, {"time": 3202, "pitch": 81, "duration": 3, "velocity": 98}, {"time": 3208, "pitch": 83, "duration": 4, "velocity": 97}, {"time": 3214, "pitch": 81, "duration": 3, "velocity": 98}, {"time": 3220, "pitch": 76, "duration": 9, "velocity": 100}, {"time": 3232, "pitch": 74, "duration": 3, "velocity": 104}, {"time": 3238, "pitch": 76, "duration": 4, "velocity": 99}, {"time": 3244, "pitch": 78, "duration": 40, "velocity": 98}, {"time": 3292, "pitch": 78, "duration": 4, "velocity": 104}, {"time": 3298, "pitch": 81, "duration": 3, "velocity": 97}, {"time": 3304, "pitch": 83, "duration": 4, "velocity": 99}, {"time": 3310, "pitch": 81, "duration": 3, "velocity": 95}, {"time": 3316, "pitch": 76, "duration": 19, "velocity": 101}, {"time": 3340, "pitch": 76, "duration": 6, "velocity": 98}, {"time": 3346, "pitch": 78, "duration": 5, "velocity": 101}, {"time": 3352, "pitch": 76, "duration": 11, "velocity": 102}, {"time": 3364, "pitch": 74, "duration": 16, "velocity": 104}, {"time": 3388, "pitch": 76, "duration": 4, "velocity": 82}, {"time": 3394, "pitch": 74, "duration": 3, "velocity": 95}, {"time": 3400, "pitch": 76, "duration": 3, "velocity": 99}, {"time": 3406, "pitch": 74, "duration": 3, "velocity": 104}, {"time": 3412, "pitch": 76, "duration": 9, "velocity": 100}, {"time": 3424, "pitch": 79, "duration": 10, "velocity": 100}, {"time": 3436, "pitch": 78, "duration": 37, "velocity": 104}, {"time": 3484, "pitch": 78, "duration": 3, "velocity": 96}, {"time": 3490, "pitch": 81, "duration": 3, "velocity": 93}, {"time": 3496, "pitch": 83, "duration": 4, "velocity": 97}, {"time": 3502, "pitch": 81, "duration": 4, "velocity": 95}, {"time": 3508, "pitch": 76, "duration": 21, "velocity": 99}, {"time": 3532, "pitch": 78, "duration": 8, "velocity": 97}, {"time": 3544, "pitch": 74, "duration": 4, "velocity": 100}, {"time": 3550, "pitch": 73, "duration": 4, "velocity": 100}, {"time": 3556, "pitch": 71, "duration": 14, "velocity": 91}, {"time": 3580, "pitch": 78, "duration": 4, "velocity": 97}, {"time": 3586, "pitch": 81, "duration": 3, "velocity": 97}, {"time": 3592, "pitch": 83, "duration": 4, "velocity": 97}, {"time": 3598, "pitch": 81, "duration": 3, "velocity": 99}, {"time": 3604, "pitch": 83, "duration": 10, "velocity": 99}, {"time": 3616, "pitch": 85, "duration": 6, "velocity": 106}, {"time": 3622, "pitch": 83, "duration": 2, "velocity": 96}, {"time": 3628, "pitch": 78, "duration": 33, "velocity": 104}, {"time": 3676, "pitch": 78, "duration": 3, "velocity": 101}, {"time": 3682, "pitch": 81, "duration": 3, "velocity": 97}, {"time": 3688, "pitch": 83, "duration": 3, "velocity": 96}, {"time": 3694, "pitch": 81, "duration": 3, "velocity": 95}, {"time": 3700, "pitch": 76, "duration": 22, "velocity": 104}, {"time": 3724, "pitch": 78, "duration": 8, "velocity": 99}, {"time": 3736, "pitch": 76, "duration": 11, "velocity": 93}, {"time": 3748, "pitch": 74, "duration": 16, "velocity": 97}, {"time": 3772, "pitch": 76, "duration": 3, "velocity": 98}, {"time": 3778, "pitch": 76, "duration": 2, "velocity": 96}, {"time": 3784, "pitch": 76, "duration": 3, "velocity": 99}, {"time": 3790, "pitch": 78, "duration": 4, "velocity": 97}, {"time": 3796, "pitch": 76, "duration": 8, "velocity": 99}, {"time": 3808, "pitch": 69, "duration": 10, "velocity": 97}, {"time": 3820, "pitch": 71, "duration": 43, "velocity": 99}, {"time": 3868, "pitch": 78, "duration": 5, "velocity": 106}, {"time": 3874, "pitch": 81, "duration": 3, "velocity": 101}, {"time": 3880, "pitch": 83, "duration": 4, "velocity": 100}, {"time": 3886, "pitch": 81, "duration": 4, "velocity": 102}, {"time": 3892, "pitch": 76, "duration": 15, "velocity": 106}, {"time": 3916, "pitch": 78, "duration": 8, "velocity": 100}, {"time": 3928, "pitch": 74, "duration": 5, "velocity": 100}, {"time": 3934, "pitch": 73, "duration": 5, "velocity": 101}, {"time": 3940, "pitch": 71, "duration": 18, "velocity": 100}, {"time": 3964, "pitch": 78, "duration": 4, "velocity": 97}, {"time": 3970, "pitch": 81, "duration": 3, "velocity": 98}, {"time": 3976, "pitch": 83, "duration": 4, "velocity": 97}, {"time": 3982, "pitch": 81, "duration": 3, "velocity": 98}, {"time": 3988, "pitch": 76, "duration": 9, "velocity": 100}, {"time": 4000, "pitch": 74, "duration": 3, "velocity": 104}, {"time": 4006, "pitch": 76, "duration": 4, "velocity": 99}, {"time": 4012, "pitch": 78, "duration": 40, "velocity": 98}, {"time": 4060, "pitch": 78, "duration": 4, "velocity": 104}, {"time": 4066, "pitch": 81, "duration": 3, "velocity": 97}, {"time": 4072, "pitch": 83, "duration": 4, "velocity": 99}, {"time": 4078, "pitch": 81, "duration": 3, "velocity": 95}, {"time": 4084, "pitch": 76, "duration": 19, "velocity": 101}, {"time": 4108, "pitch": 76, "duration": 6, "velocity": 98}, {"time": 4114, "pitch": 78, "duration": 5, "velocity": 101}, {"time": 4120, "pitch": 76, "duration": 11, "velocity": 102}, {"time": 4132, "pitch": 74, "duration": 16, "velocity": 104}, {"time": 4156, "pitch": 76, "duration": 4, "velocity": 82}, {"time": 4162, "pitch": 74, "duration": 3, "velocity": 95}, {"time": 4168, "pitch": 76, "duration": 3, "velocity": 99}, {"time": 4174, "pitch": 74, "duration": 3, "velocity": 104}, {"time": 4180, "pitch": 76, "duration": 9, "velocity": 100}, {"time": 4192, "pitch": 79, "duration": 10, "velocity": 100}, {"time": 4204, "pitch": 78, "duration": 37, "velocity": 104}, {"time": 4252, "pitch": 78, "duration": 3, "velocity": 96}, {"time": 4258, "pitch": 81, "duration": 3, "velocity": 93}, {"time": 4264, "pitch": 83, "duration": 4, "velocity": 97}, {"time": 4270, "pitch": 81, "duration": 4, "velocity": 95}, {"time": 4276, "pitch": 76, "duration": 21, "velocity": 99}, {"time": 4300, "pitch": 78, "duration": 8, "velocity": 97}, {"time": 4312, "pitch": 74, "duration": 4, "velocity": 100}, {"time": 4318, "pitch": 73, "duration": 4, "velocity": 100}, {"time": 4324, "pitch": 71, "duration": 14, "velocity": 91}, {"time": 4348, "pitch": 78, "duration": 4, "velocity": 97}, {"time": 4354, "pitch": 81, "duration": 3, "velocity": 97}, {"time": 4360, "pitch": 83, "duration": 4, "velocity": 97}, {"time": 4366, "pitch": 81, "duration": 3, "velocity": 99}, {"time": 4372, "pitch": 83, "duration": 10, "velocity": 99}, {"time": 4384, "pitch": 85, "duration": 6, "velocity": 106}, {"time": 4390, "pitch": 83, "duration": 2, "velocity": 96}, {"time": 4396, "pitch": 78, "duration": 33, "velocity": 104}, {"time": 4444, "pitch": 78, "duration": 3, "velocity": 101}, {"time": 4450, "pitch": 81, "duration": 3, "velocity": 97}, {"time": 4456, "pitch": 83, "duration": 3, "velocity": 96}, {"time": 4462, "pitch": 81, "duration": 3, "velocity": 95}, {"time": 4468, "pitch": 76, "duration": 22, "velocity": 104}, {"time": 4492, "pitch": 78, "duration": 8, "velocity": 99}, {"time": 4504, "pitch": 76, "duration": 11, "velocity": 93}, {"time": 4516, "pitch": 74, "duration": 16, "velocity": 97}, {"time": 4540, "pitch": 76, "duration": 3, "velocity": 98}, {"time": 4546, "pitch": 76, "duration": 2, "velocity": 96}, {"time": 4552, "pitch": 76, "duration": 3, "velocity": 99}, {"time": 4558, "pitch": 78, "duration": 4, "velocity": 97}, {"time": 4564, "pitch": 76, "duration": 8, "velocity": 99}, {"time": 4576, "pitch": 69, "duration": 10, "velocity": 97}, {"time": 4588, "pitch": 71, "duration": 43, "velocity": 99}, {"time": 4640, "pitch": 74, "duration": 7, "velocity": 106}, {"time": 4649, "pitch": 76, "duration": 8, "velocity": 97}, {"time": 4661, "pitch": 76, "duration": 8, "velocity": 95}, {"time": 4672, "pitch": 78, "duration": 8, "velocity": 96}, {"time": 4684, "pitch": 76, "duration": 33, "velocity": 101}, {"time": 4739, "pitch": 69, "duration": 20, "velocity": 94}, {"time": 4758, "pitch": 71, "duration": 13, "velocity": 93}, {"time": 4777, "pitch": 71, "duration": 69, "velocity": 88}]}, {"program": 0, "is_drum": false, "name": "PIANO", "notes": [{"time": 2, "pitch": 47, "duration": 66, "velocity": 85}, {"time": 2, "pitch": 71, "duration": 9, "velocity": 62}, {"time": 4, "pitch": 74, "duration": 8, "velocity": 69}, {"time": 5, "pitch": 78, "duration": 7, "velocity": 70}, {"time": 73, "pitch": 59, "duration": 38, "velocity": 62}, {"time": 74, "pitch": 62, "duration": 37, "velocity": 80}, {"time": 74, "pitch": 47, "duration": 44, "velocity": 84}, {"time": 75, "pitch": 66, "duration": 34, "velocity": 75}, {"time": 75, "pitch": 71, "duration": 31, "velocity": 85}, {"time": 120, "pitch": 59, "duration": 24, "velocity": 58}, {"time": 123, "pitch": 47, "duration": 46, "velocity": 83}, {"time": 123, "pitch": 69, "duration": 22, "velocity": 66}, {"time": 124, "pitch": 62, "duration": 19, "velocity": 42}, {"time": 124, "pitch": 66, "duration": 18, "velocity": 41}, {"time": 170, "pitch": 59, "duration": 3, "velocity": 72}, {"time": 170, "pitch": 62, "duration": 17, "velocity": 84}, {"time": 170, "pitch": 47, "duration": 50, "velocity": 73}, {"time": 172, "pitch": 66, "duration": 27, "velocity": 72}, {"time": 201, "pitch": 64, "duration": 5, "velocity": 94}, {"time": 208, "pitch": 62, "duration": 6, "velocity": 102}, {"time": 214, "pitch": 57, "duration": 5, "velocity": 94}, {"time": 220, "pitch": 47, "duration": 1, "velocity": 96}, {"time": 220, "pitch": 59, "duration": 8, "velocity": 90}, {"time": 220, "pitch": 62, "duration": 12, "velocity": 91}, {"time": 226, "pitch": 54, "duration": 8, "velocity": 82}, {"time": 232, "pitch": 59, "duration": 7, "velocity": 94}, {"time": 238, "pitch": 62, "duration": 5, "velocity": 95}, {"time": 244, "pitch": 52, "duration": 14, "velocity": 96}, {"time": 244, "pitch": 59, "duration": 13, "velocity": 91}, {"time": 244, "pitch": 64, "duration": 12, "velocity": 95}, {"time": 268, "pitch": 42, "duration": 11, "velocity": 96}, {"time": 268, "pitch": 54, "duration": 7, "velocity": 87}, {"time": 268, "pitch": 57, "duration": 13, "velocity": 90}, {"time": 274, "pitch": 49, "duration": 5, "velocity": 83}, {"time": 280, "pitch": 54, "duration": 8, "velocity": 100}, {"time": 286, "pitch": 57, "duration": 4, "velocity": 96}, {"time": 292, "pitch": 47, "duration": 15, "velocity": 99}, {"time": 298, "pitch": 54, "duration": 8, "velocity": 85}, {"time": 304, "pitch": 59, "duration": 3, "velocity": 100}, {"time": 316, "pitch": 43, "duration": 37, "velocity": 95}, {"time": 316, "pitch": 55, "duration": 7, "velocity": 88}, {"time": 316, "pitch": 59, "duration": 12, "velocity": 90}, {"time": 322, "pitch": 50, "duration": 21, "velocity": 85}, {"time": 328, "pitch": 55, "duration": 14, "velocity": 91}, {"time": 334, "pitch": 59, "duration": 7, "velocity": 97}, {"time": 340, "pitch": 62, "duration": 7, "velocity": 97}, {"time": 346, "pitch": 50, "duration": 7, "velocity": 87}, {"time": 352, "pitch": 55, "duration": 2, "velocity": 90}, {"time": 352, "pitch": 67, "duration": 2, "velocity": 91}, {"time": 364, "pitch": 42, "duration": 27, "velocity": 97}, {"time": 364, "pitch": 54, "duration": 12, "velocity": 95}, {"time": 370, "pitch": 49, "duration": 20, "velocity": 90}, {"time": 376, "pitch": 58, "duration": 7, "velocity": 79}, {"time": 382, "pitch": 54, "duration": 3, "velocity": 97}, {"time": 388, "pitch": 54, "duration": 9, "velocity": 100}, {"time": 388, "pitch": 58, "duration": 9, "velocity": 95}, {"time": 388, "pitch": 66, "duration": 8, "velocity": 95}, {"time": 394, "pitch": 49, "duration": 3, "velocity": 88}, {"time": 400, "pitch": 54, "duration": 2, "velocity": 96}, {"time": 400, "pitch": 58, "duration": 2, "velocity": 88}, {"time": 400, "pitch": 61, "duration": 3, "velocity": 93}, {"time": 400, "pitch": 66, "duration": 4, "velocity": 94}, {"time": 412, "pitch": 47, "duration": 14, "velocity": 98}, {"time": 412, "pitch": 59, "duration": 8, "velocity": 90}, {"time": 412, "pitch": 62, "duration": 12, "velocity": 89}, {"time": 418, "pitch": 54, "duration": 7, "velocity": 89}, {"time": 424, "pitch": 59, "duration": 4, "velocity": 96}, {"time": 436, "pitch": 52, "duration": 12, "velocity": 100}, {"time": 436, "pitch": 59, "duration": 3, "velocity": 95}, {"time": 436, "pitch": 64, "duration": 7, "velocity": 98}, {"time": 442, "pitch": 59, "duration": 5, "velocity": 96}, {"time": 448, "pitch": 67, "duration": 9, "velocity": 90}, {"time": 454, "pitch": 59, "duration": 6, "velocity": 96}, {"time": 460, "pitch": 42, "duration": 11, "velocity": 100}, {"time": 466, "pitch": 49, "duration": 6, "velocity": 94}, {"time": 472, "pitch": 54, "duration": 7, "velocity": 88}, {"time": 478, "pitch": 57, "duration": 2, "velocity": 94}, {"time": 484, "pitch": 47, "duration": 14, "velocity": 97}, {"time": 484, "pitch": 59, "duration": 7, "velocity": 92}, {"time": 484, "pitch": 62, "duration": 9, "velocity": 96}, {"time": 490, "pitch": 54, "duration": 7, "velocity": 91}, {"time": 496, "pitch": 59, "duration": 3, "velocity": 96}, {"time": 508, "pitch": 40, "duration": 12, "velocity": 96}, {"time": 508, "pitch": 55, "duration": 7, "velocity": 89}, {"time": 508, "pitch": 64, "duration": 12, "velocity": 96}, {"time": 514, "pitch": 47, "duration": 6, "velocity": 83}, {"time": 520, "pitch": 59, "duration": 6, "velocity": 97}, {"time": 526, "pitch": 55, "duration": 2, "velocity": 96}, {"time": 532, "pitch": 45, "duration": 17, "velocity": 97}, {"time": 532, "pitch": 57, "duration": 6, "velocity": 94}, {"time": 532, "pitch": 61, "duration": 10, "velocity": 95}, {"time": 538, "pitch": 52, "duration": 9, "velocity": 93}, {"time": 544, "pitch": 57, "duration": 7, "velocity": 96}, {"time": 550, "pitch": 61, "duration": 4, "velocity": 97}, {"time": 556, "pitch": 47, "duration": 51, "velocity": 97}, {"time": 556, "pitch": 59, "duration": 8, "velocity": 91}, {"time": 556, "pitch": 62, "duration": 8, "velocity": 97}, {"time": 562, "pitch": 54, "duration": 9, "velocity": 77}, {"time": 568, "pitch": 59, "duration": 13, "velocity": 97}, {"time": 574, "pitch": 54, "duration": 32, "velocity": 82}, {"time": 580, "pitch": 66, "duration": 11, "velocity": 96}, {"time": 586, "pitch": 59, "duration": 1, "velocity": 83}, {"time": 586, "pitch": 62, "duration": 5, "velocity": 89}, {"time": 592, "pitch": 71, "duration": 11, "velocity": 95}, {"time": 604, "pitch": 47, "duration": 3, "velocity": 91}, {"time": 604, "pitch": 66, "duration": 15, "velocity": 84}, {"time": 610, "pitch": 54, "duration": 42, "velocity": 75}, {"time": 616, "pitch": 59, "duration": 8, "velocity": 89}, {"time": 622, "pitch": 62, "duration": 4, "velocity": 88}, {"time": 628, "pitch": 71, "duration": 42, "velocity": 95}, {"time": 652, "pitch": 47, "duration": 39, "velocity": 91}, {"time": 652, "pitch": 66, "duration": 18, "velocity": 87}, {"time": 658, "pitch": 54, "duration": 22, "velocity": 83}, {"time": 664, "pitch": 59, "duration": 7, "velocity": 83}, {"time": 670, "pitch": 62, "duration": 5, "velocity": 87}, {"time": 676, "pitch": 64, "duration": 10, "velocity": 84}, {"time": 682, "pitch": 59, "duration": 6, "velocity": 88}, {"time": 688, "pitch": 54, "duration": 3, "velocity": 82}, {"time": 700, "pitch": 43, "duration": 40, "velocity": 96}, {"time": 700, "pitch": 55, "duration": 8, "velocity": 84}, {"time": 700, "pitch": 62, "duration": 12, "velocity": 61}, {"time": 706, "pitch": 50, "duration": 33, "velocity": 91}, {"time": 712, "pitch": 55, "duration": 8, "velocity": 87}, {"time": 718, "pitch": 62, "duration": 27, "velocity": 94}, {"time": 724, "pitch": 67, "duration": 3, "velocity": 83}, {"time": 748, "pitch": 42, "duration": 30, "velocity": 94}, {"time": 754, "pitch": 49, "duration": 24, "velocity": 78}, {"time": 760, "pitch": 57, "duration": 7, "velocity": 90}, {"time": 766, "pitch": 61, "duration": 6, "velocity": 87}, {"time": 772, "pitch": 66, "duration": 9, "velocity": 94}, {"time": 796, "pitch": 40, "duration": 29, "velocity": 97}, {"time": 802, "pitch": 47, "duration": 23, "velocity": 88}, {"time": 808, "pitch": 55, "duration": 14, "velocity": 89}, {"time": 814, "pitch": 59, "duration": 9, "velocity": 89}, {"time": 820, "pitch": 64, "duration": 6, "velocity": 95}, {"time": 844, "pitch": 42, "duration": 27, "velocity": 88}, {"time": 844, "pitch": 54, "duration": 16, "velocity": 83}, {"time": 844, "pitch": 61, "duration": 11, "velocity": 84}, {"time": 850, "pitch": 49, "duration": 21, "velocity": 81}, {"time": 856, "pitch": 57, "duration": 7, "velocity": 87}, {"time": 862, "pitch": 61, "duration": 7, "velocity": 84}, {"time": 868, "pitch": 66, "duration": 5, "velocity": 96}, {"time": 892, "pitch": 43, "duration": 34, "velocity": 95}, {"time": 892, "pitch": 55, "duration": 23, "velocity": 86}, {"time": 892, "pitch": 59, "duration": 22, "velocity": 88}, {"time": 898, "pitch": 50, "duration": 28, "velocity": 83}, {"time": 904, "pitch": 62, "duration": 11, "velocity": 87}, {"time": 910, "pitch": 67, "duration": 14, "velocity": 89}, {"time": 916, "pitch": 62, "duration": 8, "velocity": 94}, {"time": 940, "pitch": 42, "duration": 26, "velocity": 93}, {"time": 940, "pitch": 54, "duration": 13, "velocity": 85}, {"time": 940, "pitch": 66, "duration": 18, "velocity": 89}, {"time": 946, "pitch": 49, "duration": 20, "velocity": 80}, {"time": 952, "pitch": 58, "duration": 6, "velocity": 89}, {"time": 958, "pitch": 61, "duration": 5, "velocity": 91}, {"time": 964, "pitch": 66, "duration": 13, "velocity": 96}, {"time": 970, "pitch": 54, "duration": 7, "velocity": 95}, {"time": 976, "pitch": 58, "duration": 2, "velocity": 86}, {"time": 988, "pitch": 47, "duration": 43, "velocity": 96}, {"time": 988, "pitch": 59, "duration": 28, "velocity": 87}, {"time": 988, "pitch": 62, "duration": 27, "velocity": 91}, {"time": 994, "pitch": 54, "duration": 36, "velocity": 88}, {"time": 1000, "pitch": 66, "duration": 14, "velocity": 97}, {"time": 1012, "pitch": 71, "duration": 24, "velocity": 96}, {"time": 1018, "pitch": 66, "duration": 36, "velocity": 91}, {"time": 1024, "pitch": 59, "duration": 12, "velocity": 66}, {"time": 1036, "pitch": 47, "duration": 36, "velocity": 96}, {"time": 1036, "pitch": 62, "duration": 13, "velocity": 89}, {"time": 1042, "pitch": 54, "duration": 25, "velocity": 76}, {"time": 1048, "pitch": 59, "duration": 20, "velocity": 89}, {"time": 1054, "pitch": 62, "duration": 14, "velocity": 90}, {"time": 1066, "pitch": 71, "duration": 12, "velocity": 98}, {"time": 1072, "pitch": 59, "duration": 7, "velocity": 97}, {"time": 1078, "pitch": 62, "duration": 1, "velocity": 86}, {"time": 1084, "pitch": 43, "duration": 34, "velocity": 96}, {"time": 1084, "pitch": 55, "duration": 7, "velocity": 90}, {"time": 1084, "pitch": 59, "duration": 12, "velocity": 83}, {"time": 1090, "pitch": 50, "duration": 27, "velocity": 82}, {"time": 1096, "pitch": 55, "duration": 18, "velocity": 91}, {"time": 1102, "pitch": 59, "duration": 12, "velocity": 90}, {"time": 1108, "pitch": 62, "duration": 8, "velocity": 85}, {"time": 1132, "pitch": 42, "duration": 31, "velocity": 96}, {"time": 1132, "pitch": 54, "duration": 7, "velocity": 86}, {"time": 1132, "pitch": 66, "duration": 16, "velocity": 91}, {"time": 1138, "pitch": 49, "duration": 25, "velocity": 85}, {"time": 1144, "pitch": 54, "duration": 13, "velocity": 89}, {"time": 1150, "pitch": 57, "duration": 6, "velocity": 87}, {"time": 1156, "pitch": 61, "duration": 8, "velocity": 90}, {"time": 1162, "pitch": 57, "duration": 6, "velocity": 89}, {"time": 1168, "pitch": 54, "duration": 2, "velocity": 96}, {"time": 1180, "pitch": 52, "duration": 29, "velocity": 99}, {"time": 1180, "pitch": 59, "duration": 4, "velocity": 84}, {"time": 1180, "pitch": 64, "duration": 7, "velocity": 88}, {"time": 1186, "pitch": 59, "duration": 7, "velocity": 89}, {"time": 1192, "pitch": 64, "duration": 8, "velocity": 91}, {"time": 1198, "pitch": 59, "duration": 4, "velocity": 81}, {"time": 1204, "pitch": 67, "duration": 11, "velocity": 96}, {"time": 1210, "pitch": 59, "duration": 4, "velocity": 86}, {"time": 1228, "pitch": 42, "duration": 31, "velocity": 95}, {"time": 1228, "pitch": 66, "duration": 12, "velocity": 90}, {"time": 1234, "pitch": 49, "duration": 25, "velocity": 80}, {"time": 1240, "pitch": 57, "duration": 13, "velocity": 80}, {"time": 1246, "pitch": 61, "duration": 7, "velocity": 95}, {"time": 1252, "pitch": 66, "duration": 8, "velocity": 96}, {"time": 1258, "pitch": 61, "duration": 5, "velocity": 98}, {"time": 1264, "pitch": 57, "duration": 2, "velocity": 99}, {"time": 1276, "pitch": 43, "duration": 15, "velocity": 95}, {"time": 1276, "pitch": 55, "duration": 6, "velocity": 89}, {"time": 1276, "pitch": 59, "duration": 11, "velocity": 88}, {"time": 1282, "pitch": 50, "duration": 11, "velocity": 86}, {"time": 1288, "pitch": 55, "duration": 7, "velocity": 92}, {"time": 1294, "pitch": 59, "duration": 6, "velocity": 97}, {"time": 1300, "pitch": 45, "duration": 14, "velocity": 96}, {"time": 1300, "pitch": 61, "duration": 12, "velocity": 97}, {"time": 1306, "pitch": 52, "duration": 10, "velocity": 87}, {"time": 1312, "pitch": 57, "duration": 7, "velocity": 89}, {"time": 1318, "pitch": 61, "duration": 3, "velocity": 97}, {"time": 1324, "pitch": 47, "duration": 36, "velocity": 97}, {"time": 1324, "pitch": 59, "duration": 6, "velocity": 94}, {"time": 1324, "pitch": 62, "duration": 6, "velocity": 95}, {"time": 1330, "pitch": 54, "duration": 30, "velocity": 95}, {"time": 1336, "pitch": 59, "duration": 14, "velocity": 87}, {"time": 1342, "pitch": 62, "duration": 7, "velocity": 90}, {"time": 1348, "pitch": 71, "duration": 8, "velocity": 96}, {"time": 1354, "pitch": 66, "duration": 8, "velocity": 101}, {"time": 1360, "pitch": 59, "duration": 3, "velocity": 97}, {"time": 1372, "pitch": 47, "duration": 21, "velocity": 97}, {"time": 1372, "pitch": 59, "duration": 6, "velocity": 87}, {"time": 1372, "pitch": 62, "duration": 12, "velocity": 91}, {"time": 1372, "pitch": 66, "duration": 13, "velocity": 87}, {"time": 1378, "pitch": 54, "duration": 7, "velocity": 84}, {"time": 1384, "pitch": 59, "duration": 8, "velocity": 99}, {"time": 1390, "pitch": 62, "duration": 4, "velocity": 95}, {"time": 1396, "pitch": 52, "duration": 10, "velocity": 99}, {"time": 1396, "pitch": 59, "duration": 10, "velocity": 95}, {"time": 1396, "pitch": 64, "duration": 10, "velocity": 97}, {"time": 1420, "pitch": 42, "duration": 10, "velocity": 97}, {"time": 1420, "pitch": 57, "duration": 5, "velocity": 93}, {"time": 1420, "pitch": 61, "duration": 12, "velocity": 96}, {"time": 1426, "pitch": 49, "duration": 4, "velocity": 89}, {"time": 1432, "pitch": 57, "duration": 7, "velocity": 96}, {"time": 1438, "pitch": 61, "duration": 3, "velocity": 102}, {"time": 1444, "pitch": 47, "duration": 16, "velocity": 97}, {"time": 1444, "pitch": 59, "duration": 8, "velocity": 90}, {"time": 1444, "pitch": 62, "duration": 13, "velocity": 96}, {"time": 1450, "pitch": 54, "duration": 8, "velocity": 93}, {"time": 1456, "pitch": 59, "duration": 3, "velocity": 96}, {"time": 1468, "pitch": 43, "duration": 37, "velocity": 97}, {"time": 1468, "pitch": 55, "duration": 7, "velocity": 94}, {"time": 1468, "pitch": 59, "duration": 11, "velocity": 95}, {"time": 1474, "pitch": 50, "duration": 31, "velocity": 87}, {"time": 1480, "pitch": 55, "duration": 14, "velocity": 91}, {"time": 1486, "pitch": 59, "duration": 7, "velocity": 97}, {"time": 1492, "pitch": 62, "duration": 6, "velocity": 96}, {"time": 1498, "pitch": 67, "duration": 8, "velocity": 97}, {"time": 1504, "pitch": 55, "duration": 4, "velocity": 99}, {"time": 1516, "pitch": 42, "duration": 26, "velocity": 96}, {"time": 1516, "pitch": 54, "duration": 12, "velocity": 96}, {"time": 1516, "pitch": 66, "duration": 12, "velocity": 90}, {"time": 1522, "pitch": 49, "duration": 19, "velocity": 95}, {"time": 1528, "pitch": 58, "duration": 6, "velocity": 87}, {"time": 1534, "pitch": 54, "duration": 3, "velocity": 95}, {"time": 1540, "pitch": 54, "duration": 7, "velocity": 97}, {"time": 1540, "pitch": 58, "duration": 8, "velocity": 91}, {"time": 1540, "pitch": 61, "duration": 8, "velocity": 93}, {"time": 1540, "pitch": 66, "duration": 8, "velocity": 92}, {"time": 1546, "pitch": 49, "duration": 3, "velocity": 98}, {"time": 1552, "pitch": 54, "duration": 2, "velocity": 96}, {"time": 1552, "pitch": 58, "duration": 2, "velocity": 91}, {"time": 1552, "pitch": 61, "duration": 3, "velocity": 90}, {"time": 1564, "pitch": 47, "duration": 20, "velocity": 97}, {"time": 1564, "pitch": 59, "duration": 7, "velocity": 92}, {"time": 1564, "pitch": 62, "duration": 12, "velocity": 93}, {"time": 1570, "pitch": 54, "duration": 7, "velocity": 89}, {"time": 1576, "pitch": 59, "duration": 7, "velocity": 100}, {"time": 1582, "pitch": 62, "duration": 4, "velocity": 95}, {"time": 1588, "pitch": 52, "duration": 10, "velocity": 96}, {"time": 1588, "pitch": 59, "duration": 9, "velocity": 93}, {"time": 1588, "pitch": 64, "duration": 9, "velocity": 95}, {"time": 1612, "pitch": 42, "duration": 10, "velocity": 96}, {"time": 1612, "pitch": 57, "duration": 6, "velocity": 90}, {"time": 1612, "pitch": 61, "duration": 12, "velocity": 91}, {"time": 1618, "pitch": 49, "duration": 5, "velocity": 83}, {"time": 1624, "pitch": 57, "duration": 7, "velocity": 95}, {"time": 1630, "pitch": 61, "duration": 3, "velocity": 96}, {"time": 1636, "pitch": 47, "duration": 13, "velocity": 97}, {"time": 1636, "pitch": 59, "duration": 8, "velocity": 91}, {"time": 1636, "pitch": 62, "duration": 13, "velocity": 95}, {"time": 1642, "pitch": 54, "duration": 6, "velocity": 86}, {"time": 1648, "pitch": 59, "duration": 3, "velocity": 90}, {"time": 1660, "pitch": 40, "duration": 32, "velocity": 97}, {"time": 1660, "pitch": 59, "duration": 8, "velocity": 95}, {"time": 1660, "pitch": 67, "duration": 15, "velocity": 95}, {"time": 1666, "pitch": 47, "duration": 25, "velocity": 81}, {"time": 1672, "pitch": 59, "duration": 8, "velocity": 96}, {"time": 1678, "pitch": 64, "duration": 3, "velocity": 99}, {"time": 1684, "pitch": 59, "duration": 13, "velocity": 97}, {"time": 1684, "pitch": 64, "duration": 12, "velocity": 104}, {"time": 1684, "pitch": 67, "duration": 13, "velocity": 97}, {"time": 1708, "pitch": 42, "duration": 28, "velocity": 97}, {"time": 1708, "pitch": 54, "duration": 8, "velocity": 96}, {"time": 1708, "pitch": 66, "duration": 19, "velocity": 95}, {"time": 1714, "pitch": 49, "duration": 20, "velocity": 87}, {"time": 1720, "pitch": 54, "duration": 6, "velocity": 99}, {"time": 1726, "pitch": 58, "duration": 3, "velocity": 83}, {"time": 1732, "pitch": 54, "duration": 7, "velocity": 96}, {"time": 1732, "pitch": 58, "duration": 6, "velocity": 96}, {"time": 1732, "pitch": 61, "duration": 6, "velocity": 100}, {"time": 1732, "pitch": 66, "duration": 7, "velocity": 96}, {"time": 1738, "pitch": 49, "duration": 5, "velocity": 104}, {"time": 1744, "pitch": 54, "duration": 5, "velocity": 102}, {"time": 1744, "pitch": 66, "duration": 11, "velocity": 88}, {"time": 1756, "pitch": 47, "duration": 21, "velocity": 97}, {"time": 1756, "pitch": 59, "duration": 6, "velocity": 87}, {"time": 1756, "pitch": 62, "duration": 12, "velocity": 91}, {"time": 1756, "pitch": 66, "duration": 13, "velocity": 87}, {"time": 1762, "pitch": 54, "duration": 7, "velocity": 84}, {"time": 1768, "pitch": 59, "duration": 8, "velocity": 99}, {"time": 1774, "pitch": 62, "duration": 4, "velocity": 95}, {"time": 1780, "pitch": 52, "duration": 10, "velocity": 99}, {"time": 1780, "pitch": 59, "duration": 10, "velocity": 95}, {"time": 1780, "pitch": 64, "duration": 10, "velocity": 97}, {"time": 1804, "pitch": 42, "duration": 10, "velocity": 97}, {"time": 1804, "pitch": 57, "duration": 5, "velocity": 93}, {"time": 1804, "pitch": 61, "duration": 12, "velocity": 96}, {"time": 1810, "pitch": 49, "duration": 4, "velocity": 89}, {"time": 1816, "pitch": 57, "duration": 7, "velocity": 96}, {"time": 1822, "pitch": 61, "duration": 3, "velocity": 102}, {"time": 1828, "pitch": 47, "duration": 16, "velocity": 97}, {"time": 1828, "pitch": 59, "duration": 8, "velocity": 90}, {"time": 1828, "pitch": 62, "duration": 13, "velocity": 96}, {"time": 1834, "pitch": 54, "duration": 8, "velocity": 93}, {"time": 1840, "pitch": 59, "duration": 3, "velocity": 96}, {"time": 1852, "pitch": 43, "duration": 37, "velocity": 97}, {"time": 1852, "pitch": 55, "duration": 7, "velocity": 94}, {"time": 1852, "pitch": 59, "duration": 11, "velocity": 95}, {"time": 1858, "pitch": 50, "duration": 31, "velocity": 87}, {"time": 1864, "pitch": 55, "duration": 14, "velocity": 91}, {"time": 1870, "pitch": 59, "duration": 7, "velocity": 97}, {"time": 1876, "pitch": 62, "duration": 6, "velocity": 96}, {"time": 1882, "pitch": 67, "duration": 8, "velocity": 97}, {"time": 1888, "pitch": 55, "duration": 4, "velocity": 99}, {"time": 1900, "pitch": 42, "duration": 26, "velocity": 96}, {"time": 1900, "pitch": 54, "duration": 12, "velocity": 96}, {"time": 1900, "pitch": 66, "duration": 12, "velocity": 90}, {"time": 1906, "pitch": 49, "duration": 19, "velocity": 95}, {"time": 1912, "pitch": 58, "duration": 6, "velocity": 87}, {"time": 1918, "pitch": 54, "duration": 3, "velocity": 95}, {"time": 1924, "pitch": 54, "duration": 7, "velocity": 97}, {"time": 1924, "pitch": 58, "duration": 8, "velocity": 91}, {"time": 1924, "pitch": 61, "duration": 8, "velocity": 93}, {"time": 1924, "pitch": 66, "duration": 8, "velocity": 92}, {"time": 1930, "pitch": 49, "duration": 3, "velocity": 98}, {"time": 1936, "pitch": 54, "duration": 2, "velocity": 96}, {"time": 1936, "pitch": 58, "duration": 2, "velocity": 91}, {"time": 1936, "pitch": 61, "duration": 3, "velocity": 90}, {"time": 1948, "pitch": 47, "duration": 20, "velocity": 97}, {"time": 1948, "pitch": 59, "duration": 7, "velocity": 92}, {"time": 1948, "pitch": 62, "duration": 12, "velocity": 93}, {"time": 1954, "pitch": 54, "duration": 7, "velocity": 89}, {"time": 1960, "pitch": 59, "duration": 7, "velocity": 100}, {"time": 1966, "pitch": 62, "duration": 4, "velocity": 95}, {"time": 1972, "pitch": 52, "duration": 10, "velocity": 96}, {"time": 1972, "pitch": 59, "duration": 9, "velocity": 93}, {"time": 1972, "pitch": 64, "duration": 9, "velocity": 95}, {"time": 1996, "pitch": 42, "duration": 10, "velocity": 96}, {"time": 1996, "pitch": 57, "duration": 6, "velocity": 90}, {"time": 1996, "pitch": 61, "duration": 12, "velocity": 91}, {"time": 2002, "pitch": 49, "duration": 5, "velocity": 83}, {"time": 2008, "pitch": 57, "duration": 7, "velocity": 95}, {"time": 2014, "pitch": 61, "duration": 3, "velocity": 96}, {"time": 2020, "pitch": 47, "duration": 13, "velocity": 97}, {"time": 2020, "pitch": 59, "duration": 8, "velocity": 91}, {"time": 2020, "pitch": 62, "duration": 13, "velocity": 95}, {"time": 2026, "pitch": 54, "duration": 6, "velocity": 86}, {"time": 2032, "pitch": 59, "duration": 3, "velocity": 90}, {"time": 2044, "pitch": 40, "duration": 14, "velocity": 97}, {"time": 2044, "pitch": 59, "duration": 7, "velocity": 92}, {"time": 2044, "pitch": 64, "duration": 12, "velocity": 95}, {"time": 2050, "pitch": 47, "duration": 8, "velocity": 81}, {"time": 2056, "pitch": 59, "duration": 8, "velocity": 100}, {"time": 2062, "pitch": 64, "duration": 2, "velocity": 96}, {"time": 2068, "pitch": 45, "duration": 14, "velocity": 96}, {"time": 2068, "pitch": 57, "duration": 7, "velocity": 85}, {"time": 2068, "pitch": 61, "duration": 12, "velocity": 95}, {"time": 2074, "pitch": 52, "duration": 14, "velocity": 88}, {"time": 2080, "pitch": 57, "duration": 3, "velocity": 101}, {"time": 2092, "pitch": 47, "duration": 44, "velocity": 96}, {"time": 2092, "pitch": 59, "duration": 11, "velocity": 96}, {"time": 2092, "pitch": 62, "duration": 12, "velocity": 93}, {"time": 2098, "pitch": 54, "duration": 26, "velocity": 85}, {"time": 2104, "pitch": 66, "duration": 9, "velocity": 96}, {"time": 2110, "pitch": 62, "duration": 4, "velocity": 90}, {"time": 2116, "pitch": 59, "duration": 24, "velocity": 95}, {"time": 2116, "pitch": 62, "duration": 23, "velocity": 94}, {"time": 2116, "pitch": 66, "duration": 23, "velocity": 93}, {"time": 2116, "pitch": 71, "duration": 23, "velocity": 99}, {"time": 2140, "pitch": 43, "duration": 37, "velocity": 94}, {"time": 2146, "pitch": 50, "duration": 30, "velocity": 83}, {"time": 2152, "pitch": 55, "duration": 16, "velocity": 97}, {"time": 2158, "pitch": 62, "duration": 7, "velocity": 91}, {"time": 2164, "pitch": 67, "duration": 20, "velocity": 97}, {"time": 2170, "pitch": 62, "duration": 8, "velocity": 95}, {"time": 2176, "pitch": 55, "duration": 10, "velocity": 90}, {"time": 2182, "pitch": 62, "duration": 6, "velocity": 86}, {"time": 2188, "pitch": 42, "duration": 29, "velocity": 97}, {"time": 2194, "pitch": 49, "duration": 23, "velocity": 83}, {"time": 2200, "pitch": 61, "duration": 7, "velocity": 86}, {"time": 2206, "pitch": 57, "duration": 8, "velocity": 91}, {"time": 2212, "pitch": 66, "duration": 8, "velocity": 104}, {"time": 2218, "pitch": 61, "duration": 6, "velocity": 101}, {"time": 2224, "pitch": 57, "duration": 6, "velocity": 92}, {"time": 2236, "pitch": 40, "duration": 34, "velocity": 97}, {"time": 2236, "pitch": 52, "duration": 14, "velocity": 99}, {"time": 2236, "pitch": 55, "duration": 13, "velocity": 95}, {"time": 2242, "pitch": 47, "duration": 27, "velocity": 83}, {"time": 2248, "pitch": 59, "duration": 12, "velocity": 89}, {"time": 2254, "pitch": 55, "duration": 8, "velocity": 88}, {"time": 2260, "pitch": 64, "duration": 17, "velocity": 98}, {"time": 2266, "pitch": 59, "duration": 8, "velocity": 93}, {"time": 2272, "pitch": 55, "duration": 7, "velocity": 88}, {"time": 2278, "pitch": 52, "duration": 1, "velocity": 97}, {"time": 2284, "pitch": 42, "duration": 47, "velocity": 97}, {"time": 2284, "pitch": 54, "duration": 13, "velocity": 89}, {"time": 2284, "pitch": 58, "duration": 13, "velocity": 84}, {"time": 2290, "pitch": 49, "duration": 42, "velocity": 88}, {"time": 2296, "pitch": 61, "duration": 11, "velocity": 86}, {"time": 2302, "pitch": 58, "duration": 4, "velocity": 88}, {"time": 2308, "pitch": 66, "duration": 23, "velocity": 98}, {"time": 2314, "pitch": 61, "duration": 16, "velocity": 87}, {"time": 2320, "pitch": 54, "duration": 10, "velocity": 96}, {"time": 2332, "pitch": 47, "duration": 20, "velocity": 96}, {"time": 2332, "pitch": 59, "duration": 8, "velocity": 90}, {"time": 2332, "pitch": 62, "duration": 12, "velocity": 91}, {"time": 2338, "pitch": 54, "duration": 8, "velocity": 82}, {"time": 2344, "pitch": 59, "duration": 7, "velocity": 94}, {"time": 2350, "pitch": 62, "duration": 5, "velocity": 95}, {"time": 2356, "pitch": 52, "duration": 14, "velocity": 96}, {"time": 2356, "pitch": 59, "duration": 13, "velocity": 91}, {"time": 2356, "pitch": 64, "duration": 12, "velocity": 95}, {"time": 2380, "pitch": 42, "duration": 11, "velocity": 96}, {"time": 2380, "pitch": 54, "duration": 7, "velocity": 87}, {"time": 2380, "pitch": 57, "duration": 13, "velocity": 90}, {"time": 2386, "pitch": 49, "duration": 5, "velocity": 83}, {"time": 2392, "pitch": 54, "duration": 8, "velocity": 100}, {"time": 2398, "pitch": 57, "duration": 4, "velocity": 96}, {"time": 2404, "pitch": 47, "duration": 15, "velocity": 99}, {"time": 2410, "pitch": 54, "duration": 8, "velocity": 85}, {"time": 2416, "pitch": 59, "duration": 3, "velocity": 100}, {"time": 2428, "pitch": 43, "duration": 37, "velocity": 95}, {"time": 2428, "pitch": 55, "duration": 7, "velocity": 88}, {"time": 2428, "pitch": 59, "duration": 12, "velocity": 90}, {"time": 2434, "pitch": 50, "duration": 21, "velocity": 85}, {"time": 2440, "pitch": 55, "duration": 14, "velocity": 91}, {"time": 2446, "pitch": 59, "duration": 7, "velocity": 97}, {"time": 2452, "pitch": 62, "duration": 7, "velocity": 97}, {"time": 2458, "pitch": 50, "duration": 7, "velocity": 87}, {"time": 2464, "pitch": 55, "duration": 2, "velocity": 90}, {"time": 2464, "pitch": 67, "duration": 2, "velocity": 91}, {"time": 2476, "pitch": 42, "duration": 27, "velocity": 97}, {"time": 2476, "pitch": 54, "duration": 12, "velocity": 95}, {"time": 2482, "pitch": 49, "duration": 20, "velocity": 90}, {"time": 2488, "pitch": 58, "duration": 7, "velocity": 79}, {"time": 2494, "pitch": 54, "duration": 3, "velocity": 97}, {"time": 2500, "pitch": 54, "duration": 9, "velocity": 100}, {"time": 2500, "pitch": 58, "duration": 9, "velocity": 95}, {"time": 2500, "pitch": 66, "duration": 8, "velocity": 95}, {"time": 2506, "pitch": 49, "duration": 3, "velocity": 88}, {"time": 2512, "pitch": 54, "duration": 2, "velocity": 96}, {"time": 2512, "pitch": 58, "duration": 2, "velocity": 88}, {"time": 2512, "pitch": 61, "duration": 3, "velocity": 93}, {"time": 2512, "pitch": 66, "duration": 4, "velocity": 94}, {"time": 2524, "pitch": 47, "duration": 14, "velocity": 98}, {"time": 2524, "pitch": 59, "duration": 8, "velocity": 90}, {"time": 2524, "pitch": 62, "duration": 12, "velocity": 89}, {"time": 2530, "pitch": 54, "duration": 7, "velocity": 89}, {"time": 2536, "pitch": 59, "duration": 4, "velocity": 96}, {"time": 2548, "pitch": 52, "duration": 12, "velocity": 100}, {"time": 2548, "pitch": 59, "duration": 3, "velocity": 95}, {"time": 2548, "pitch": 64, "duration": 7, "velocity": 98}, {"time": 2554, "pitch": 59, "duration": 5, "velocity": 96}, {"time": 2560, "pitch": 67, "duration": 9, "velocity": 90}, {"time": 2566, "pitch": 59, "duration": 6, "velocity": 96}, {"time": 2572, "pitch": 42, "duration": 11, "velocity": 100}, {"time": 2578, "pitch": 49, "duration": 6, "velocity": 94}, {"time": 2584, "pitch": 54, "duration": 7, "velocity": 88}, {"time": 2590, "pitch": 57, "duration": 2, "velocity": 94}, {"time": 2596, "pitch": 47, "duration": 14, "velocity": 97}, {"time": 2596, "pitch": 59, "duration": 7, "velocity": 92}, {"time": 2596, "pitch": 62, "duration": 9, "velocity": 96}, {"time": 2602, "pitch": 54, "duration": 7, "velocity": 91}, {"time": 2608, "pitch": 59, "duration": 3, "velocity": 96}, {"time": 2620, "pitch": 40, "duration": 12, "velocity": 96}, {"time": 2620, "pitch": 55, "duration": 7, "velocity": 89}, {"time": 2620, "pitch": 64, "duration": 12, "velocity": 96}, {"time": 2626, "pitch": 47, "duration": 6, "velocity": 83}, {"time": 2632, "pitch": 59, "duration": 6, "velocity": 97}, {"time": 2638, "pitch": 55, "duration": 2, "velocity": 96}, {"time": 2644, "pitch": 45, "duration": 17, "velocity": 97}, {"time": 2644, "pitch": 57, "duration": 6, "velocity": 94}, {"time": 2644, "pitch": 61, "duration": 10, "velocity": 95}, {"time": 2650, "pitch": 52, "duration": 9, "velocity": 93}, {"time": 2656, "pitch": 57, "duration": 7, "velocity": 96}, {"time": 2662, "pitch": 61, "duration": 4, "velocity": 97}, {"time": 2668, "pitch": 47, "duration": 51, "velocity": 97}, {"time": 2668, "pitch": 59, "duration": 8, "velocity": 91}, {"time": 2668, "pitch": 62, "duration": 8, "velocity": 97}, {"time": 2674, "pitch": 54, "duration": 9, "velocity": 77}, {"time": 2680, "pitch": 59, "duration": 13, "velocity": 97}, {"time": 2686, "pitch": 54, "duration": 32, "velocity": 82}, {"time": 2692, "pitch": 66, "duration": 11, "velocity": 96}, {"time": 2698, "pitch": 59, "duration": 1, "velocity": 83}, {"time": 2698, "pitch": 62, "duration": 5, "velocity": 89}, {"time": 2704, "pitch": 71, "duration": 11, "velocity": 95}, {"time": 2716, "pitch": 47, "duration": 3, "velocity": 96}, {"time": 2716, "pitch": 59, "duration": 28, "velocity": 87}, {"time": 2716, "pitch": 62, "duration": 27, "velocity": 91}, {"time": 2722, "pitch": 54, "duration": 36, "velocity": 88}, {"time": 2728, "pitch": 66, "duration": 14, "velocity": 97}, {"time": 2740, "pitch": 71, "duration": 24, "velocity": 96}, {"time": 2746, "pitch": 66, "duration": 36, "velocity": 91}, {"time": 2752, "pitch": 59, "duration": 12, "velocity": 66}, {"time": 2764, "pitch": 47, "duration": 36, "velocity": 96}, {"time": 2764, "pitch": 62, "duration": 13, "velocity": 89}, {"time": 2770, "pitch": 54, "duration": 25, "velocity": 76}, {"time": 2776, "pitch": 59, "duration": 20, "velocity": 89}, {"time": 2782, "pitch": 62, "duration": 14, "velocity": 90}, {"time": 2794, "pitch": 71, "duration": 12, "velocity": 98}, {"time": 2800, "pitch": 59, "duration": 7, "velocity": 97}, {"time": 2806, "pitch": 62, "duration": 1, "velocity": 86}, {"time": 2812, "pitch": 43, "duration": 34, "velocity": 96}, {"time": 2812, "pitch": 55, "duration": 7, "velocity": 90}, {"time": 2812, "pitch": 59, "duration": 12, "velocity": 83}, {"time": 2818, "pitch": 50, "duration": 27, "velocity": 82}, {"time": 2824, "pitch": 55, "duration": 18, "velocity": 91}, {"time": 2830, "pitch": 59, "duration": 12, "velocity": 90}, {"time": 2836, "pitch": 62, "duration": 8, "velocity": 85}, {"time": 2860, "pitch": 42, "duration": 31, "velocity": 96}, {"time": 2860, "pitch": 54, "duration": 7, "velocity": 86}, {"time": 2860, "pitch": 66, "duration": 16, "velocity": 91}, {"time": 2866, "pitch": 49, "duration": 25, "velocity": 85}, {"time": 2872, "pitch": 54, "duration": 13, "velocity": 89}, {"time": 2878, "pitch": 57, "duration": 6, "velocity": 87}, {"time": 2884, "pitch": 61, "duration": 8, "velocity": 90}, {"time": 2890, "pitch": 57, "duration": 6, "velocity": 89}, {"time": 2896, "pitch": 54, "duration": 2, "velocity": 96}, {"time": 2908, "pitch": 52, "duration": 29, "velocity": 99}, {"time": 2908, "pitch": 59, "duration": 4, "velocity": 84}, {"time": 2908, "pitch": 64, "duration": 7, "velocity": 88}, {"time": 2914, "pitch": 59, "duration": 7, "velocity": 89}, {"time": 2920, "pitch": 64, "duration": 8, "velocity": 91}, {"time": 2926, "pitch": 59, "duration": 4, "velocity": 81}, {"time": 2932, "pitch": 67, "duration": 11, "velocity": 96}, {"time": 2938, "pitch": 59, "duration": 4, "velocity": 86}, {"time": 2956, "pitch": 42, "duration": 31, "velocity": 95}, {"time": 2956, "pitch": 66, "duration": 12, "velocity": 90}, {"time": 2962, "pitch": 49, "duration": 25, "velocity": 80}, {"time": 2968, "pitch": 57, "duration": 13, "velocity": 80}, {"time": 2974, "pitch": 61, "duration": 7, "velocity": 95}, {"time": 2980, "pitch": 66, "duration": 8, "velocity": 96}, {"time": 2986, "pitch": 61, "duration": 5, "velocity": 98}, {"time": 2992, "pitch": 57, "duration": 2, "velocity": 99}, {"time": 3004, "pitch": 43, "duration": 15, "velocity": 95}, {"time": 3004, "pitch": 55, "duration": 6, "velocity": 89}, {"time": 3004, "pitch": 59, "duration": 11, "velocity": 88}, {"time": 3010, "pitch": 50, "duration": 11, "velocity": 86}, {"time": 3016, "pitch": 55, "duration": 7, "velocity": 92}, {"time": 3022, "pitch": 59, "duration": 6, "velocity": 97}, {"time": 3028, "pitch": 45, "duration": 14, "velocity": 96}, {"time": 3028, "pitch": 61, "duration": 12, "velocity": 97}, {"time": 3034, "pitch": 52, "duration": 10, "velocity": 87}, {"time": 3040, "pitch": 57, "duration": 7, "velocity": 89}, {"time": 3046, "pitch": 61, "duration": 3, "velocity": 97}, {"time": 3052, "pitch": 47, "duration": 36, "velocity": 97}, {"time": 3052, "pitch": 59, "duration": 6, "velocity": 94}, {"time": 3052, "pitch": 62, "duration": 6, "velocity": 95}, {"time": 3058, "pitch": 54, "duration": 30, "velocity": 95}, {"time": 3064, "pitch": 59, "duration": 14, "velocity": 87}, {"time": 3070, "pitch": 62, "duration": 7, "velocity": 90}, {"time": 3076, "pitch": 71, "duration": 8, "velocity": 96}, {"time": 3082, "pitch": 66, "duration": 8, "velocity": 101}, {"time": 3088, "pitch": 59, "duration": 3, "velocity": 97}, {"time": 3100, "pitch": 47, "duration": 21, "velocity": 97}, {"time": 3100, "pitch": 59, "duration": 6, "velocity": 87}, {"time": 3100, "pitch": 62, "duration": 12, "velocity": 91}, {"time": 3100, "pitch": 66, "duration": 13, "velocity": 87}, {"time": 3106, "pitch": 54, "duration": 7, "velocity": 84}, {"time": 3112, "pitch": 59, "duration": 8, "velocity": 99}, {"time": 3118, "pitch": 62, "duration": 4, "velocity": 95}, {"time": 3124, "pitch": 52, "duration": 10, "velocity": 99}, {"time": 3124, "pitch": 59, "duration": 10, "velocity": 95}, {"time": 3124, "pitch": 64, "duration": 10, "velocity": 97}, {"time": 3148, "pitch": 42, "duration": 10, "velocity": 97}, {"time": 3148, "pitch": 57, "duration": 5, "velocity": 93}, {"time": 3148, "pitch": 61, "duration": 12, "velocity": 96}, {"time": 3154, "pitch": 49, "duration": 4, "velocity": 89}, {"time": 3160, "pitch": 57, "duration": 7, "velocity": 96}, {"time": 3166, "pitch": 61, "duration": 3, "velocity": 102}, {"time": 3172, "pitch": 47, "duration": 16, "velocity": 97}, {"time": 3172, "pitch": 59, "duration": 8, "velocity": 90}, {"time": 3172, "pitch": 62, "duration": 13, "velocity": 96}, {"time": 3178, "pitch": 54, "duration": 8, "velocity": 93}, {"time": 3184, "pitch": 59, "duration": 3, "velocity": 96}, {"time": 3196, "pitch": 43, "duration": 37, "velocity": 97}, {"time": 3196, "pitch": 55, "duration": 7, "velocity": 94}, {"time": 3196, "pitch": 59, "duration": 11, "velocity": 95}, {"time": 3202, "pitch": 50, "duration": 31, "velocity": 87}, {"time": 3208, "pitch": 55, "duration": 14, "velocity": 91}, {"time": 3214, "pitch": 59, "duration": 7, "velocity": 97}, {"time": 3220, "pitch": 62, "duration": 6, "velocity": 96}, {"time": 3226, "pitch": 67, "duration": 8, "velocity": 97}, {"time": 3232, "pitch": 55, "duration": 4, "velocity": 99}, {"time": 3244, "pitch": 42, "duration": 26, "velocity": 96}, {"time": 3244, "pitch": 54, "duration": 12, "velocity": 96}, {"time": 3244, "pitch": 66, "duration": 12, "velocity": 90}, {"time": 3250, "pitch": 49, "duration": 19, "velocity": 95}, {"time": 3256, "pitch": 58, "duration": 6, "velocity": 87}, {"time": 3262, "pitch": 54, "duration": 3, "velocity": 95}, {"time": 3268, "pitch": 54, "duration": 7, "velocity": 97}, {"time": 3268, "pitch": 58, "duration": 8, "velocity": 91}, {"time": 3268, "pitch": 61, "duration": 8, "velocity": 93}, {"time": 3268, "pitch": 66, "duration": 8, "velocity": 92}, {"time": 3274, "pitch": 49, "duration": 3, "velocity": 98}, {"time": 3280, "pitch": 54, "duration": 2, "velocity": 96}, {"time": 3280, "pitch": 58, "duration": 2, "velocity": 91}, {"time": 3280, "pitch": 61, "duration": 3, "velocity": 90}, {"time": 3292, "pitch": 47, "duration": 20, "velocity": 97}, {"time": 3292, "pitch": 59, "duration": 7, "velocity": 92}, {"time": 3292, "pitch": 62, "duration": 12, "velocity": 93}, {"time": 3298, "pitch": 54, "duration": 7, "velocity": 89}, {"time": 3304, "pitch": 59, "duration": 7, "velocity": 100}, {"time": 3310, "pitch": 62, "duration": 4, "velocity": 95}, {"time": 3316, "pitch": 52, "duration": 10, "velocity": 96}, {"time": 3316, "pitch": 59, "duration": 9, "velocity": 93}, {"time": 3316, "pitch": 64, "duration": 9, "velocity": 95}, {"time": 3340, "pitch": 42, "duration": 10, "velocity": 96}, {"time": 3340, "pitch": 57, "duration": 6, "velocity": 90}, {"time": 3340, "pitch": 61, "duration": 12, "velocity": 91}, {"time": 3346, "pitch": 49, "duration": 5, "velocity": 83}, {"time": 3352, "pitch": 57, "duration": 7, "velocity": 95}, {"time": 3358, "pitch": 61, "duration": 3, "velocity": 96}, {"time": 3364, "pitch": 47, "duration": 13, "velocity": 97}, {"time": 3364, "pitch": 59, "duration": 8, "velocity": 91}, {"time": 3364, "pitch": 62, "duration": 13, "velocity": 95}, {"time": 3370, "pitch": 54, "duration": 6, "velocity": 86}, {"time": 3376, "pitch": 59, "duration": 3, "velocity": 90}, {"time": 3388, "pitch": 40, "duration": 32, "velocity": 97}, {"time": 3388, "pitch": 59, "duration": 8, "velocity": 95}, {"time": 3388, "pitch": 67, "duration": 15, "velocity": 95}, {"time": 3394, "pitch": 47, "duration": 25, "velocity": 81}, {"time": 3400, "pitch": 59, "duration": 8, "velocity": 96}, {"time": 3406, "pitch": 64, "duration": 3, "velocity": 99}, {"time": 3412, "pitch": 59, "duration": 13, "velocity": 97}, {"time": 3412, "pitch": 64, "duration": 12, "velocity": 104}, {"time": 3412, "pitch": 67, "duration": 13, "velocity": 97}, {"time": 3436, "pitch": 42, "duration": 28, "velocity": 97}, {"time": 3436, "pitch": 54, "duration": 8, "velocity": 96}, {"time": 3436, "pitch": 66, "duration": 19, "velocity": 95}, {"time": 3442, "pitch": 49, "duration": 20, "velocity": 87}, {"time": 3448, "pitch": 54, "duration": 6, "velocity": 99}, {"time": 3454, "pitch": 58, "duration": 3, "velocity": 83}, {"time": 3460, "pitch": 54, "duration": 7, "velocity": 96}, {"time": 3460, "pitch": 58, "duration": 6, "velocity": 96}, {"time": 3460, "pitch": 61, "duration": 6, "velocity": 100}, {"time": 3460, "pitch": 66, "duration": 7, "velocity": 96}, {"time": 3466, "pitch": 49, "duration": 5, "velocity": 104}, {"time": 3472, "pitch": 54, "duration": 5, "velocity": 102}, {"time": 3472, "pitch": 66, "duration": 11, "velocity": 88}, {"time": 3484, "pitch": 47, "duration": 21, "velocity": 97}, {"time": 3484, "pitch": 59, "duration": 6, "velocity": 87}, {"time": 3484, "pitch": 62, "duration": 12, "velocity": 91}, {"time": 3484, "pitch": 66, "duration": 13, "velocity": 87}, {"time": 3490, "pitch": 54, "duration": 7, "velocity": 84}, {"time": 3496, "pitch": 59, "duration": 8, "velocity": 99}, {"time": 3502, "pitch": 62, "duration": 4, "velocity": 95}, {"time": 3508, "pitch": 52, "duration": 10, "velocity": 99}, {"time": 3508, "pitch": 59, "duration": 10, "velocity": 95}, {"time": 3508, "pitch": 64, "duration": 10, "velocity": 97}, {"time": 3532, "pitch": 42, "duration": 10, "velocity": 97}, {"time": 3532, "pitch": 57, "duration": 5, "velocity": 93}, {"time": 3532, "pitch": 61, "duration": 12, "velocity": 96}, {"time": 3538, "pitch": 49, "duration": 4, "velocity": 89}, {"time": 3544, "pitch": 57, "duration": 7, "velocity": 96}, {"time": 3550, "pitch": 61, "duration": 3, "velocity": 102}, {"time": 3556, "pitch": 47, "duration": 16, "velocity": 97}, {"time": 3556, "pitch": 59, "duration": 8, "velocity": 90}, {"time": 3556, "pitch": 62, "duration": 13, "velocity": 96}, {"time": 3562, "pitch": 54, "duration": 8, "velocity": 93}, {"time": 3568, "pitch": 59, "duration": 3, "velocity": 96}, {"time": 3580, "pitch": 43, "duration": 37, "velocity": 97}, {"time": 3580, "pitch": 55, "duration": 7, "velocity": 94}, {"time": 3580, "pitch": 59, "duration": 11, "velocity": 95}, {"time": 3586, "pitch": 50, "duration": 31, "velocity": 87}, {"time": 3592, "pitch": 55, "duration": 14, "velocity": 91}, {"time": 3598, "pitch": 59, "duration": 7, "velocity": 97}, {"time": 3604, "pitch": 62, "duration": 6, "velocity": 96}, {"time": 3610, "pitch": 67, "duration": 8, "velocity": 97}, {"time": 3616, "pitch": 55, "duration": 4, "velocity": 99}, {"time": 3628, "pitch": 42, "duration": 26, "velocity": 96}, {"time": 3628, "pitch": 54, "duration": 12, "velocity": 96}, {"time": 3628, "pitch": 66, "duration": 12, "velocity": 90}, {"time": 3634, "pitch": 49, "duration": 19, "velocity": 95}, {"time": 3640, "pitch": 58, "duration": 6, "velocity": 87}, {"time": 3646, "pitch": 54, "duration": 3, "velocity": 95}, {"time": 3652, "pitch": 54, "duration": 7, "velocity": 97}, {"time": 3652, "pitch": 58, "duration": 8, "velocity": 91}, {"time": 3652, "pitch": 61, "duration": 8, "velocity": 93}, {"time": 3652, "pitch": 66, "duration": 8, "velocity": 92}, {"time": 3658, "pitch": 49, "duration": 3, "velocity": 98}, {"time": 3664, "pitch": 54, "duration": 2, "velocity": 96}, {"time": 3664, "pitch": 58, "duration": 2, "velocity": 91}, {"time": 3664, "pitch": 61, "duration": 3, "velocity": 90}, {"time": 3676, "pitch": 47, "duration": 20, "velocity": 97}, {"time": 3676, "pitch": 59, "duration": 7, "velocity": 92}, {"time": 3676, "pitch": 62, "duration": 12, "velocity": 93}, {"time": 3682, "pitch": 54, "duration": 7, "velocity": 89}, {"time": 3688, "pitch": 59, "duration": 7, "velocity": 100}, {"time": 3694, "pitch": 62, "duration": 4, "velocity": 95}, {"time": 3700, "pitch": 52, "duration": 10, "velocity": 96}, {"time": 3700, "pitch": 59, "duration": 9, "velocity": 93}, {"time": 3700, "pitch": 64, "duration": 9, "velocity": 95}, {"time": 3724, "pitch": 42, "duration": 10, "velocity": 96}, {"time": 3724, "pitch": 57, "duration": 6, "velocity": 90}, {"time": 3724, "pitch": 61, "duration": 12, "velocity": 91}, {"time": 3730, "pitch": 49, "duration": 5, "velocity": 83}, {"time": 3736, "pitch": 57, "duration": 7, "velocity": 95}, {"time": 3742, "pitch": 61, "duration": 3, "velocity": 96}, {"time": 3748, "pitch": 47, "duration": 13, "velocity": 97}, {"time": 3748, "pitch": 59, "duration": 8, "velocity": 91}, {"time": 3748, "pitch": 62, "duration": 13, "velocity": 95}, {"time": 3754, "pitch": 54, "duration": 6, "velocity": 86}, {"time": 3760, "pitch": 59, "duration": 3, "velocity": 90}, {"time": 3772, "pitch": 40, "duration": 14, "velocity": 97}, {"time": 3772, "pitch": 59, "duration": 7, "velocity": 92}, {"time": 3772, "pitch": 64, "duration": 12, "velocity": 95}, {"time": 3778, "pitch": 47, "duration": 8, "velocity": 81}, {"time": 3784, "pitch": 59, "duration": 8, "velocity": 100}, {"time": 3790, "pitch": 64, "duration": 2, "velocity": 96}, {"time": 3796, "pitch": 45, "duration": 14, "velocity": 96}, {"time": 3796, "pitch": 57, "duration": 7, "velocity": 85}, {"time": 3796, "pitch": 61, "duration": 12, "velocity": 95}, {"time": 3802, "pitch": 52, "duration": 14, "velocity": 88}, {"time": 3808, "pitch": 57, "duration": 3, "velocity": 101}, {"time": 3820, "pitch": 47, "duration": 44, "velocity": 96}, {"time": 3820, "pitch": 59, "duration": 11, "velocity": 96}, {"time": 3820, "pitch": 62, "duration": 12, "velocity": 93}, {"time": 3826, "pitch": 54, "duration": 26, "velocity": 85}, {"time": 3832, "pitch": 66, "duration": 9, "velocity": 96}, {"time": 3838, "pitch": 62, "duration": 4, "velocity": 90}, {"time": 3844, "pitch": 59, "duration": 24, "velocity": 95}, {"time": 3844, "pitch": 62, "duration": 23, "velocity": 94}, {"time": 3844, "pitch": 66, "duration": 23, "velocity": 93}, {"time": 3844, "pitch": 71, "duration": 23, "velocity": 99}, {"time": 3868, "pitch": 47, "duration": 24, "velocity": 92}, {"time": 3868, "pitch": 59, "duration": 1, "velocity": 86}, {"time": 3868, "pitch": 62, "duration": 22, "velocity": 89}, {"time": 3892, "pitch": 52, "duration": 13, "velocity": 92}, {"time": 3892, "pitch": 64, "duration": 8, "velocity": 92}, {"time": 3898, "pitch": 59, "duration": 5, "velocity": 88}, {"time": 3904, "pitch": 67, "duration": 12, "velocity": 90}, {"time": 3910, "pitch": 59, "duration": 5, "velocity": 88}, {"time": 3916, "pitch": 42, "duration": 14, "velocity": 89}, {"time": 3922, "pitch": 49, "duration": 9, "velocity": 83}, {"time": 3928, "pitch": 57, "duration": 9, "velocity": 85}, {"time": 3934, "pitch": 61, "duration": 5, "velocity": 85}, {"time": 3940, "pitch": 47, "duration": 19, "velocity": 95}, {"time": 3940, "pitch": 62, "duration": 14, "velocity": 88}, {"time": 3946, "pitch": 54, "duration": 10, "velocity": 70}, {"time": 3952, "pitch": 59, "duration": 6, "velocity": 86}, {"time": 3964, "pitch": 43, "duration": 33, "velocity": 89}, {"time": 3970, "pitch": 50, "duration": 25, "velocity": 79}, {"time": 3976, "pitch": 55, "duration": 13, "velocity": 86}, {"time": 3982, "pitch": 59, "duration": 7, "velocity": 90}, {"time": 3988, "pitch": 62, "duration": 7, "velocity": 95}, {"time": 4012, "pitch": 42, "duration": 31, "velocity": 95}, {"time": 4018, "pitch": 49, "duration": 25, "velocity": 87}, {"time": 4024, "pitch": 58, "duration": 14, "velocity": 75}, {"time": 4030, "pitch": 54, "duration": 7, "velocity": 94}, {"time": 4036, "pitch": 66, "duration": 10, "velocity": 95}, {"time": 4042, "pitch": 61, "duration": 7, "velocity": 89}, {"time": 4048, "pitch": 54, "duration": 2, "velocity": 96}, {"time": 4060, "pitch": 47, "duration": 17, "velocity": 95}, {"time": 4060, "pitch": 59, "duration": 8, "velocity": 86}, {"time": 4060, "pitch": 62, "duration": 12, "velocity": 88}, {"time": 4066, "pitch": 54, "duration": 7, "velocity": 83}, {"time": 4072, "pitch": 59, "duration": 8, "velocity": 89}, {"time": 4078, "pitch": 62, "duration": 7, "velocity": 91}, {"time": 4084, "pitch": 52, "duration": 11, "velocity": 90}, {"time": 4084, "pitch": 64, "duration": 17, "velocity": 94}, {"time": 4108, "pitch": 42, "duration": 12, "velocity": 90}, {"time": 4114, "pitch": 49, "duration": 7, "velocity": 81}, {"time": 4120, "pitch": 57, "duration": 7, "velocity": 90}, {"time": 4126, "pitch": 61, "duration": 6, "velocity": 88}, {"time": 4132, "pitch": 47, "duration": 17, "velocity": 91}, {"time": 4132, "pitch": 59, "duration": 20, "velocity": 88}, {"time": 4132, "pitch": 62, "duration": 24, "velocity": 88}, {"time": 4156, "pitch": 40, "duration": 29, "velocity": 97}, {"time": 4162, "pitch": 47, "duration": 22, "velocity": 85}, {"time": 4168, "pitch": 52, "duration": 14, "velocity": 89}, {"time": 4174, "pitch": 55, "duration": 8, "velocity": 89}, {"time": 4180, "pitch": 59, "duration": 7, "velocity": 90}, {"time": 4204, "pitch": 42, "duration": 28, "velocity": 97}, {"time": 4204, "pitch": 54, "duration": 8, "velocity": 96}, {"time": 4204, "pitch": 66, "duration": 19, "velocity": 95}, {"time": 4210, "pitch": 49, "duration": 20, "velocity": 87}, {"time": 4216, "pitch": 54, "duration": 6, "velocity": 99}, {"time": 4222, "pitch": 58, "duration": 3, "velocity": 83}, {"time": 4228, "pitch": 54, "duration": 7, "velocity": 96}, {"time": 4228, "pitch": 58, "duration": 6, "velocity": 96}, {"time": 4228, "pitch": 61, "duration": 6, "velocity": 100}, {"time": 4228, "pitch": 66, "duration": 7, "velocity": 96}, {"time": 4234, "pitch": 49, "duration": 5, "velocity": 104}, {"time": 4240, "pitch": 54, "duration": 5, "velocity": 102}, {"time": 4240, "pitch": 66, "duration": 11, "velocity": 88}, {"time": 4252, "pitch": 47, "duration": 21, "velocity": 97}, {"time": 4252, "pitch": 59, "duration": 6, "velocity": 87}, {"time": 4252, "pitch": 62, "duration": 12, "velocity": 91}, {"time": 4252, "pitch": 66, "duration": 13, "velocity": 87}, {"time": 4258, "pitch": 54, "duration": 7, "velocity": 84}, {"time": 4264, "pitch": 59, "duration": 8, "velocity": 99}, {"time": 4270, "pitch": 62, "duration": 4, "velocity": 95}, {"time": 4276, "pitch": 52, "duration": 10, "velocity": 99}, {"time": 4276, "pitch": 59, "duration": 10, "velocity": 95}, {"time": 4276, "pitch": 64, "duration": 10, "velocity": 97}, {"time": 4300, "pitch": 42, "duration": 10, "velocity": 97}, {"time": 4300, "pitch": 57, "duration": 5, "velocity": 93}, {"time": 4300, "pitch": 61, "duration": 12, "velocity": 96}, {"time": 4306, "pitch": 49, "duration": 4, "velocity": 89}, {"time": 4312, "pitch": 57, "duration": 7, "velocity": 96}, {"time": 4318, "pitch": 61, "duration": 3, "velocity": 102}, {"time": 4324, "pitch": 47, "duration": 16, "velocity": 97}, {"time": 4324, "pitch": 59, "duration": 8, "velocity": 90}, {"time": 4324, "pitch": 62, "duration": 13, "velocity": 96}, {"time": 4330, "pitch": 54, "duration": 8, "velocity": 93}, {"time": 4336, "pitch": 59, "duration": 3, "velocity": 96}, {"time": 4348, "pitch": 43, "duration": 37, "velocity": 97}, {"time": 4348, "pitch": 55, "duration": 7, "velocity": 94}, {"time": 4348, "pitch": 59, "duration": 11, "velocity": 95}, {"time": 4354, "pitch": 50, "duration": 31, "velocity": 87}, {"time": 4360, "pitch": 55, "duration": 14, "velocity": 91}, {"time": 4366, "pitch": 59, "duration": 7, "velocity": 97}, {"time": 4372, "pitch": 62, "duration": 6, "velocity": 96}, {"time": 4378, "pitch": 67, "duration": 8, "velocity": 97}, {"time": 4384, "pitch": 55, "duration": 4, "velocity": 99}, {"time": 4396, "pitch": 42, "duration": 26, "velocity": 96}, {"time": 4396, "pitch": 54, "duration": 12, "velocity": 96}, {"time": 4396, "pitch": 66, "duration": 12, "velocity": 90}, {"time": 4402, "pitch": 49, "duration": 19, "velocity": 95}, {"time": 4408, "pitch": 58, "duration": 6, "velocity": 87}, {"time": 4414, "pitch": 54, "duration": 3, "velocity": 95}, {"time": 4420, "pitch": 54, "duration": 7, "velocity": 97}, {"time": 4420, "pitch": 58, "duration": 8, "velocity": 91}, {"time": 4420, "pitch": 61, "duration": 8, "velocity": 93}, {"time": 4420, "pitch": 66, "duration": 8, "velocity": 92}, {"time": 4426, "pitch": 49, "duration": 3, "velocity": 98}, {"time": 4432, "pitch": 54, "duration": 2, "velocity": 96}, {"time": 4432, "pitch": 58, "duration": 2, "velocity": 91}, {"time": 4432, "pitch": 61, "duration": 3, "velocity": 90}, {"time": 4444, "pitch": 47, "duration": 20, "velocity": 97}, {"time": 4444, "pitch": 59, "duration": 7, "velocity": 92}, {"time": 4444, "pitch": 62, "duration": 12, "velocity": 93}, {"time": 4450, "pitch": 54, "duration": 7, "velocity": 89}, {"time": 4456, "pitch": 59, "duration": 7, "velocity": 100}, {"time": 4462, "pitch": 62, "duration": 4, "velocity": 95}, {"time": 4468, "pitch": 52, "duration": 10, "velocity": 96}, {"time": 4468, "pitch": 59, "duration": 9, "velocity": 93}, {"time": 4468, "pitch": 64, "duration": 9, "velocity": 95}, {"time": 4492, "pitch": 42, "duration": 10, "velocity": 96}, {"time": 4492, "pitch": 57, "duration": 6, "velocity": 90}, {"time": 4492, "pitch": 61, "duration": 12, "velocity": 91}, {"time": 4498, "pitch": 49, "duration": 5, "velocity": 83}, {"time": 4504, "pitch": 57, "duration": 7, "velocity": 95}, {"time": 4510, "pitch": 61, "duration": 3, "velocity": 96}, {"time": 4516, "pitch": 47, "duration": 13, "velocity": 97}, {"time": 4516, "pitch": 59, "duration": 8, "velocity": 91}, {"time": 4516, "pitch": 62, "duration": 13, "velocity": 95}, {"time": 4522, "pitch": 54, "duration": 6, "velocity": 86}, {"time": 4528, "pitch": 59, "duration": 3, "velocity": 90}, {"time": 4540, "pitch": 40, "duration": 14, "velocity": 97}, {"time": 4540, "pitch": 59, "duration": 7, "velocity": 92}, {"time": 4540, "pitch": 64, "duration": 12, "velocity": 95}, {"time": 4546, "pitch": 47, "duration": 8, "velocity": 81}, {"time": 4552, "pitch": 59, "duration": 8, "velocity": 100}, {"time": 4558, "pitch": 64, "duration": 2, "velocity": 96}, {"time": 4564, "pitch": 45, "duration": 14, "velocity": 96}, {"time": 4564, "pitch": 57, "duration": 7, "velocity": 85}, {"time": 4564, "pitch": 61, "duration": 12, "velocity": 95}, {"time": 4570, "pitch": 52, "duration": 14, "velocity": 88}, {"time": 4576, "pitch": 57, "duration": 3, "velocity": 101}, {"time": 4588, "pitch": 47, "duration": 44, "velocity": 96}, {"time": 4588, "pitch": 59, "duration": 11, "velocity": 96}, {"time": 4588, "pitch": 62, "duration": 12, "velocity": 93}, {"time": 4594, "pitch": 54, "duration": 26, "velocity": 85}, {"time": 4600, "pitch": 66, "duration": 9, "velocity": 96}, {"time": 4606, "pitch": 62, "duration": 4, "velocity": 90}, {"time": 4612, "pitch": 59, "duration": 24, "velocity": 95}, {"time": 4612, "pitch": 62, "duration": 23, "velocity": 94}, {"time": 4612, "pitch": 66, "duration": 23, "velocity": 93}, {"time": 4612, "pitch": 71, "duration": 23, "velocity": 99}, {"time": 4637, "pitch": 43, "duration": 34, "velocity": 96}, {"time": 4640, "pitch": 55, "duration": 33, "velocity": 89}, {"time": 4642, "pitch": 50, "duration": 29, "velocity": 82}, {"time": 4642, "pitch": 59, "duration": 32, "velocity": 91}, {"time": 4644, "pitch": 62, "duration": 30, "velocity": 85}, {"time": 4645, "pitch": 67, "duration": 29, "velocity": 82}, {"time": 4682, "pitch": 42, "duration": 65, "velocity": 97}, {"time": 4686, "pitch": 49, "duration": 61, "velocity": 91}, {"time": 4686, "pitch": 54, "duration": 114, "velocity": 81}, {"time": 4690, "pitch": 57, "duration": 110, "velocity": 88}, {"time": 4693, "pitch": 61, "duration": 108, "velocity": 91}, {"time": 4697, "pitch": 66, "duration": 104, "velocity": 88}, {"time": 4803, "pitch": 47, "duration": 18, "velocity": 95}, {"time": 4809, "pitch": 54, "duration": 10, "velocity": 84}, {"time": 4816, "pitch": 59, "duration": 11, "velocity": 88}, {"time": 4822, "pitch": 62, "duration": 7, "velocity": 87}, {"time": 4828, "pitch": 40, "duration": 14, "velocity": 95}, {"time": 4834, "pitch": 47, "duration": 8, "velocity": 80}, {"time": 4840, "pitch": 52, "duration": 3, "velocity": 88}, {"time": 4852, "pitch": 42, "duration": 16, "velocity": 91}, {"time": 4852, "pitch": 54, "duration": 15, "velocity": 89}, {"time": 4853, "pitch": 61, "duration": 26, "velocity": 87}, {"time": 4853, "pitch": 57, "duration": 16, "velocity": 95}, {"time": 4866, "pitch": 49, "duration": 3, "velocity": 83}, {"time": 4872, "pitch": 54, "duration": 5, "velocity": 89}, {"time": 4877, "pitch": 47, "duration": 17, "velocity": 96}, {"time": 4883, "pitch": 54, "duration": 7, "velocity": 79}, {"time": 4890, "pitch": 59, "duration": 8, "velocity": 86}, {"time": 4896, "pitch": 62, "duration": 10, "velocity": 87}, {"time": 4902, "pitch": 43, "duration": 52, "velocity": 88}, {"time": 4908, "pitch": 50, "duration": 45, "velocity": 79}, {"time": 4915, "pitch": 55, "duration": 43, "velocity": 84}, {"time": 4922, "pitch": 59, "duration": 37, "velocity": 84}, {"time": 4934, "pitch": 67, "duration": 25, "velocity": 69}, {"time": 4969, "pitch": 45, "duration": 26, "velocity": 81}, {"time": 4973, "pitch": 52, "duration": 20, "velocity": 83}, {"time": 4975, "pitch": 57, "duration": 39, "velocity": 77}, {"time": 4977, "pitch": 61, "duration": 38, "velocity": 83}, {"time": 4979, "pitch": 64, "duration": 42, "velocity": 83}, {"time": 4981, "pitch": 69, "duration": 42, "velocity": 78}, {"time": 5036, "pitch": 47, "duration": 77, "velocity": 96}, {"time": 5043, "pitch": 54, "duration": 40, "velocity": 76}, {"time": 5049, "pitch": 59, "duration": 7, "velocity": 88}, {"time": 5054, "pitch": 63, "duration": 15, "velocity": 90}, {"time": 5060, "pitch": 59, "duration": 9, "velocity": 88}, {"time": 5065, "pitch": 66, "duration": 15, "velocity": 81}, {"time": 5073, "pitch": 71, "duration": 7, "velocity": 91}, {"time": 5080, "pitch": 59, "duration": 2, "velocity": 89}, {"time": 5088, "pitch": 75, "duration": 13, "velocity": 92}, {"time": 5096, "pitch": 71, "duration": 15, "velocity": 79}, {"time": 5105, "pitch": 78, "duration": 10, "velocity": 73}, {"time": 5130, "pitch": 47, "duration": 34, "velocity": 81}, {"time": 5134, "pitch": 54, "duration": 30, "velocity": 65}, {"time": 5135, "pitch": 83, "duration": 5, "velocity": 81}, {"time": 5137, "pitch": 87, "duration": 3, "velocity": 80}, {"time": 5139, "pitch": 95, "duration": 3, "velocity": 89}], "annotations": [{"time": 2, "annotation": {"number": 64, "value": 127}, "group": "control_change"}, {"time": 75, "annotation": {"number": 64, "value": 0}, "group": "control_change"}, {"time": 77, "annotation": {"number": 64, "value": 127}, "group": "control_change"}, {"time": 122, "annotation": {"number": 64, "value": 0}, "group": "control_change"}, {"time": 124, "annotation": {"number": 64, "value": 127}, "group": "control_change"}, {"time": 170, "annotation": {"number": 64, "value": 0}, "group": "control_change"}, {"time": 174, "annotation": {"number": 64, "value": 127}, "group": "control_change"}, {"time": 218, "annotation": {"number": 64, "value": 0}, "group": "control_change"}, {"time": 222, "annotation": {"number": 64, "value": 127}, "group": "control_change"}, {"time": 242, "annotation": {"number": 64, "value": 0}, "group": "control_change"}, {"time": 253, "annotation": {"number": 64, "value": 127}, "group": "control_change"}, {"time": 268, "annotation": {"number": 64, "value": 0}, "group": "control_change"}, {"time": 274, "annotation": {"number": 64, "value": 127}, "group": "control_change"}, {"time": 289, "annotation": {"number": 64, "value": 0}, "group": "control_change"}, {"time": 293, "annotation": {"number": 64, "value": 127}, "group": "control_change"}, {"time": 314, "annotation": {"number": 64, "value": 0}, "group": "control_change"}, {"time": 321, "annotation": {"number": 64, "value": 127}, "group": "control_change"}, {"time": 362, "annotation": {"number": 64, "value": 0}, "group": "control_change"}, {"time": 367, "annotation": {"number": 64, "value": 127}, "group": "control_change"}, {"time": 411, "annotation": {"number": 64, "value": 0}, "group": "control_change"}, {"time": 418, "annotation": {"number": 64, "value": 127}, "group": "control_change"}, {"time": 434, "annotation": {"number": 64, "value": 0}, "group": "control_change"}, {"time": 438, "annotation": {"number": 64, "value": 127}, "group": "control_change"}, {"time": 457, "annotation": {"number": 64, "value": 0}, "group": "control_change"}, {"time": 461, "annotation": {"number": 64, "value": 127}, "group": "control_change"}, {"time": 482, "annotation": {"number": 64, "value": 0}, "group": "control_change"}, {"time": 486, "annotation": {"number": 64, "value": 127}, "group": "control_change"}, {"time": 506, "annotation": {"number": 64, "value": 0}, "group": "control_change"}, {"time": 507, "annotation": {"number": 64, "value": 127}, "group": "control_change"}, {"time": 530, "annotation": {"number": 64, "value": 0}, "group": "control_change"}, {"time": 537, "annotation": {"number": 64, "value": 127}, "group": "control_change"}, {"time": 552, "annotation": {"number": 64, "value": 0}, "group": "control_change"}, {"time": 558, "annotation": {"number": 64, "value": 127}, "group": "control_change"}, {"time": 600, "annotation": {"number": 64, "value": 0}, "group": "control_change"}, {"time": 605, "annotation": {"number": 64, "value": 127}, "group": "control_change"}, {"time": 653, "annotation": {"number": 64, "value": 0}, "group": "control_change"}, {"time": 662, "annotation": {"number": 64, "value": 127}, "group": "control_change"}, {"time": 662, "annotation": {"number": 64, "value": 0}, "group": "control_change"}, {"time": 699, "annotation": {"number": 64, "value": 0}, "group": "control_change"}, {"time": 706, "annotation": {"number": 64, "value": 127}, "group": "control_change"}, {"time": 745, "annotation": {"number": 64, "value": 0}, "group": "control_change"}, {"time": 753, "annotation": {"number": 64, "value": 127}, "group": "control_change"}, {"time": 795, "annotation": {"number": 64, "value": 0}, "group": "control_change"}, {"time": 800, "annotation": {"number": 64, "value": 127}, "group": "control_change"}, {"time": 843, "annotation": {"number": 64, "value": 0}, "group": "control_change"}, {"time": 852, "annotation": {"number": 64, "value": 127}, "group": "control_change"}, {"time": 890, "annotation": {"number": 64, "value": 0}, "group": "control_change"}, {"time": 900, "annotation": {"number": 64, "value": 127}, "group": "control_change"}, {"time": 900, "annotation": {"number": 64, "value": 0}, "group": "control_change"}, {"time": 938, "annotation": {"number": 64, "value": 0}, "group": "control_change"}, {"time": 947, "annotation": {"number": 64, "value": 127}, "group": "control_change"}, {"time": 986, "annotation": {"number": 64, "value": 0}, "group": "control_change"}, {"time": 995, "annotation": {"number": 64, "value": 127}, "group": "control_change"}, {"time": 1036, "annotation": {"number": 64, "value": 0}, "group": "control_change"}, {"time": 1044, "annotation": {"number": 64, "value": 127}, "group": "control_change"}, {"time": 1084, "annotation": {"number": 64, "value": 0}, "group": "control_change"}, {"time": 1089, "annotation": {"number": 64, "value": 127}, "group": "control_change"}, {"time": 1130, "annotation": {"number": 64, "value": 0}, "group": "control_change"}, {"time": 1136, "annotation": {"number": 64, "value": 127}, "group": "control_change"}, {"time": 1180, "annotation": {"number": 64, "value": 0}, "group": "control_change"}, {"time": 1185, "annotation": {"number": 64, "value": 127}, "group": "control_change"}, {"time": 1226, "annotation": {"number": 64, "value": 0}, "group": "control_change"}, {"time": 1232, "annotation": {"number": 64, "value": 127}, "group": "control_change"}, {"time": 1272, "annotation": {"number": 64, "value": 0}, "group": "control_change"}, {"time": 1275, "annotation": {"number": 64, "value": 127}, "group": "control_change"}, {"time": 1296, "annotation": {"number": 64, "value": 0}, "group": "control_change"}, {"time": 1302, "annotation": {"number": 64, "value": 127}, "group": "control_change"}, {"time": 1321, "annotation": {"number": 64, "value": 0}, "group": "control_change"}, {"time": 1328, "annotation": {"number": 64, "value": 127}, "group": "control_change"}, {"time": 1364, "annotation": {"number": 64, "value": 0}, "group": "control_change"}, {"time": 1374, "annotation": {"number": 64, "value": 127}, "group": "control_change"}, {"time": 1392, "annotation": {"number": 64, "value": 0}, "group": "control_change"}, {"time": 1396, "annotation": {"number": 64, "value": 127}, "group": "control_change"}, {"time": 1418, "annotation": {"number": 64, "value": 0}, "group": "control_change"}, {"time": 1422, "annotation": {"number": 64, "value": 127}, "group": "control_change"}, {"time": 1442, "annotation": {"number": 64, "value": 0}, "group": "control_change"}, {"time": 1446, "annotation": {"number": 64, "value": 127}, "group": "control_change"}, {"time": 1467, "annotation": {"number": 64, "value": 0}, "group": "control_change"}, {"time": 1472, "annotation": {"number": 64, "value": 127}, "group": "control_change"}, {"time": 1515, "annotation": {"number": 64, "value": 0}, "group": "control_change"}, {"time": 1521, "annotation": {"number": 64, "value": 127}, "group": "control_change"}, {"time": 1564, "annotation": {"number": 64, "value": 0}, "group": "control_change"}, {"time": 1568, "annotation": {"number": 64, "value": 127}, "group": "control_change"}, {"time": 1586, "annotation": {"number": 64, "value": 0}, "group": "control_change"}, {"time": 1589, "annotation": {"number": 64, "value": 127}, "group": "control_change"}, {"time": 1610, "annotation": {"number": 64, "value": 0}, "group": "control_change"}, {"time": 1614, "annotation": {"number": 64, "value": 127}, "group": "control_change"}, {"time": 1633, "annotation": {"number": 64, "value": 0}, "group": "control_change"}, {"time": 1637, "annotation": {"number": 64, "value": 127}, "group": "control_change"}, {"time": 1658, "annotation": {"number": 64, "value": 0}, "group": "control_change"}, {"time": 1659, "annotation": {"number": 64, "value": 127}, "group": "control_change"}, {"time": 1707, "annotation": {"number": 64, "value": 0}, "group": "control_change"}, {"time": 1712, "annotation": {"number": 64, "value": 127}, "group": "control_change"}, {"time": 1758, "annotation": {"number": 64, "value": 127}, "group": "control_change"}, {"time": 1776, "annotation": {"number": 64, "value": 0}, "group": "control_change"}, {"time": 1780, "annotation": {"number": 64, "value": 127}, "group": "control_change"}, {"time": 1802, "annotation": {"number": 64, "value": 0}, "group": "control_change"}, {"time": 1806, "annotation": {"number": 64, "value": 127}, "group": "control_change"}, {"time": 1826, "annotation": {"number": 64, "value": 0}, "group": "control_change"}, {"time": 1830, "annotation": {"number": 64, "value": 127}, "group": "control_change"}, {"time": 1851, "annotation": {"number": 64, "value": 0}, "group": "control_change"}, {"time": 1856, "annotation": {"number": 64, "value": 127}, "group": "control_change"}, {"time": 1899, "annotation": {"number": 64, "value": 0}, "group": "control_change"}, {"time": 1905, "annotation": {"number": 64, "value": 127}, "group": "control_change"}, {"time": 1948, "annotation": {"number": 64, "value": 0}, "group": "control_change"}, {"time": 1952, "annotation": {"number": 64, "value": 127}, "group": "control_change"}, {"time": 1970, "annotation": {"number": 64, "value": 0}, "group": "control_change"}, {"time": 1973, "annotation": {"number": 64, "value": 127}, "group": "control_change"}, {"time": 1994, "annotation": {"number": 64, "value": 0}, "group": "control_change"}, {"time": 1998, "annotation": {"number": 64, "value": 127}, "group": "control_change"}, {"time": 2017, "annotation": {"number": 64, "value": 0}, "group": "control_change"}, {"time": 2021, "annotation": {"number": 64, "value": 127}, "group": "control_change"}, {"time": 2042, "annotation": {"number": 64, "value": 0}, "group": "control_change"}, {"time": 2043, "annotation": {"number": 64, "value": 127}, "group": "control_change"}, {"time": 2044, "annotation": {"number": 64, "value": 127}, "group": "control_change"}, {"time": 2065, "annotation": {"number": 64, "value": 0}, "group": "control_change"}, {"time": 2069, "annotation": {"number": 64, "value": 127}, "group": "control_change"}, {"time": 2088, "annotation": {"number": 64, "value": 0}, "group": "control_change"}, {"time": 2096, "annotation": {"number": 64, "value": 127}, "group": "control_change"}, {"time": 2136, "annotation": {"number": 64, "value": 0}, "group": "control_change"}, {"time": 2145, "annotation": {"number": 64, "value": 127}, "group": "control_change"}, {"time": 2185, "annotation": {"number": 64, "value": 0}, "group": "control_change"}, {"time": 2190, "annotation": {"number": 64, "value": 127}, "group": "control_change"}, {"time": 2235, "annotation": {"number": 64, "value": 0}, "group": "control_change"}, {"time": 2239, "annotation": {"number": 64, "value": 127}, "group": "control_change"}, {"time": 2284, "annotation": {"number": 64, "value": 0}, "group": "control_change"}, {"time": 2289, "annotation": {"number": 64, "value": 127}, "group": "control_change"}, {"time": 2323, "annotation": {"number": 64, "value": 0}, "group": "control_change"}, {"time": 2334, "annotation": {"number": 64, "value": 127}, "group": "control_change"}, {"time": 2354, "annotation": {"number": 64, "value": 0}, "group": "control_change"}, {"time": 2365, "annotation": {"number": 64, "value": 127}, "group": "control_change"}, {"time": 2380, "annotation": {"number": 64, "value": 0}, "group": "control_change"}, {"time": 2386, "annotation": {"number": 64, "value": 127}, "group": "control_change"}, {"time": 2401, "annotation": {"number": 64, "value": 0}, "group": "control_change"}, {"time": 2405, "annotation": {"number": 64, "value": 127}, "group": "control_change"}, {"time": 2426, "annotation": {"number": 64, "value": 0}, "group": "control_change"}, {"time": 2433, "annotation": {"number": 64, "value": 127}, "group": "control_change"}, {"time": 2474, "annotation": {"number": 64, "value": 0}, "group": "control_change"}, {"time": 2479, "annotation": {"number": 64, "value": 127}, "group": "control_change"}, {"time": 2523, "annotation": {"number": 64, "value": 0}, "group": "control_change"}, {"time": 2530, "annotation": {"number": 64, "value": 127}, "group": "control_change"}, {"time": 2546, "annotation": {"number": 64, "value": 0}, "group": "control_change"}, {"time": 2550, "annotation": {"number": 64, "value": 127}, "group": "control_change"}, {"time": 2569, "annotation": {"number": 64, "value": 0}, "group": "control_change"}, {"time": 2573, "annotation": {"number": 64, "value": 127}, "group": "control_change"}, {"time": 2594, "annotation": {"number": 64, "value": 0}, "group": "control_change"}, {"time": 2598, "annotation": {"number": 64, "value": 127}, "group": "control_change"}, {"time": 2618, "annotation": {"number": 64, "value": 0}, "group": "control_change"}, {"time": 2619, "annotation": {"number": 64, "value": 127}, "group": "control_change"}, {"time": 2642, "annotation": {"number": 64, "value": 0}, "group": "control_change"}, {"time": 2649, "annotation": {"number": 64, "value": 127}, "group": "control_change"}, {"time": 2664, "annotation": {"number": 64, "value": 0}, "group": "control_change"}, {"time": 2670, "annotation": {"number": 64, "value": 127}, "group": "control_change"}, {"time": 2712, "annotation": {"number": 64, "value": 0}, "group": "control_change"}, {"time": 2723, "annotation": {"number": 64, "value": 127}, "group": "control_change"}, {"time": 2764, "annotation": {"number": 64, "value": 0}, "group": "control_change"}, {"time": 2772, "annotation": {"number": 64, "value": 127}, "group": "control_change"}, {"time": 2812, "annotation": {"number": 64, "value": 0}, "group": "control_change"}, {"time": 2817, "annotation": {"number": 64, "value": 127}, "group": "control_change"}, {"time": 2858, "annotation": {"number": 64, "value": 0}, "group": "control_change"}, {"time": 2864, "annotation": {"number": 64, "value": 127}, "group": "control_change"}, {"time": 2908, "annotation": {"number": 64, "value": 0}, "group": "control_change"}, {"time": 2913, "annotation": {"number": 64, "value": 127}, "group": "control_change"}, {"time": 2954, "annotation": {"number": 64, "value": 0}, "group": "control_change"}, {"time": 2960, "annotation": {"number": 64, "value": 127}, "group": "control_change"}, {"time": 3000, "annotation": {"number": 64, "value": 0}, "group": "control_change"}, {"time": 3003, "annotation": {"number": 64, "value": 127}, "group": "control_change"}, {"time": 3024, "annotation": {"number": 64, "value": 0}, "group": "control_change"}, {"time": 3030, "annotation": {"number": 64, "value": 127}, "group": "control_change"}, {"time": 3049, "annotation": {"number": 64, "value": 0}, "group": "control_change"}, {"time": 3056, "annotation": {"number": 64, "value": 127}, "group": "control_change"}, {"time": 3092, "annotation": {"number": 64, "value": 0}, "group": "control_change"}, {"time": 3102, "annotation": {"number": 64, "value": 127}, "group": "control_change"}, {"time": 3120, "annotation": {"number": 64, "value": 0}, "group": "control_change"}, {"time": 3124, "annotation": {"number": 64, "value": 127}, "group": "control_change"}, {"time": 3146, "annotation": {"number": 64, "value": 0}, "group": "control_change"}, {"time": 3150, "annotation": {"number": 64, "value": 127}, "group": "control_change"}, {"time": 3170, "annotation": {"number": 64, "value": 0}, "group": "control_change"}, {"time": 3174, "annotation": {"number": 64, "value": 127}, "group": "control_change"}, {"time": 3195, "annotation": {"number": 64, "value": 0}, "group": "control_change"}, {"time": 3200, "annotation": {"number": 64, "value": 127}, "group": "control_change"}, {"time": 3243, "annotation": {"number": 64, "value": 0}, "group": "control_change"}, {"time": 3249, "annotation": {"number": 64, "value": 127}, "group": "control_change"}, {"time": 3292, "annotation": {"number": 64, "value": 0}, "group": "control_change"}, {"time": 3296, "annotation": {"number": 64, "value": 127}, "group": "control_change"}, {"time": 3314, "annotation": {"number": 64, "value": 0}, "group": "control_change"}, {"time": 3317, "annotation": {"number": 64, "value": 127}, "group": "control_change"}, {"time": 3338, "annotation": {"number": 64, "value": 0}, "group": "control_change"}, {"time": 3342, "annotation": {"number": 64, "value": 127}, "group": "control_change"}, {"time": 3361, "annotation": {"number": 64, "value": 0}, "group": "control_change"}, {"time": 3365, "annotation": {"number": 64, "value": 127}, "group": "control_change"}, {"time": 3386, "annotation": {"number": 64, "value": 0}, "group": "control_change"}, {"time": 3387, "annotation": {"number": 64, "value": 127}, "group": "control_change"}, {"time": 3435, "annotation": {"number": 64, "value": 0}, "group": "control_change"}, {"time": 3440, "annotation": {"number": 64, "value": 127}, "group": "control_change"}, {"time": 3486, "annotation": {"number": 64, "value": 127}, "group": "control_change"}, {"time": 3504, "annotation": {"number": 64, "value": 0}, "group": "control_change"}, {"time": 3508, "annotation": {"number": 64, "value": 127}, "group": "control_change"}, {"time": 3530, "annotation": {"number": 64, "value": 0}, "group": "control_change"}, {"time": 3534, "annotation": {"number": 64, "value": 127}, "group": "control_change"}, {"time": 3554, "annotation": {"number": 64, "value": 0}, "group": "control_change"}, {"time": 3558, "annotation": {"number": 64, "value": 127}, "group": "control_change"}, {"time": 3579, "annotation": {"number": 64, "value": 0}, "group": "control_change"}, {"time": 3584, "annotation": {"number": 64, "value": 127}, "group": "control_change"}, {"time": 3627, "annotation": {"number": 64, "value": 0}, "group": "control_change"}, {"time": 3633, "annotation": {"number": 64, "value": 127}, "group": "control_change"}, {"time": 3676, "annotation": {"number": 64, "value": 0}, "group": "control_change"}, {"time": 3680, "annotation": {"number": 64, "value": 127}, "group": "control_change"}, {"time": 3698, "annotation": {"number": 64, "value": 0}, "group": "control_change"}, {"time": 3701, "annotation": {"number": 64, "value": 127}, "group": "control_change"}, {"time": 3722, "annotation": {"number": 64, "value": 0}, "group": "control_change"}, {"time": 3726, "annotation": {"number": 64, "value": 127}, "group": "control_change"}, {"time": 3745, "annotation": {"number": 64, "value": 0}, "group": "control_change"}, {"time": 3749, "annotation": {"number": 64, "value": 127}, "group": "control_change"}, {"time": 3770, "annotation": {"number": 64, "value": 0}, "group": "control_change"}, {"time": 3771, "annotation": {"number": 64, "value": 127}, "group": "control_change"}, {"time": 3772, "annotation": {"number": 64, "value": 127}, "group": "control_change"}, {"time": 3793, "annotation": {"number": 64, "value": 0}, "group": "control_change"}, {"time": 3797, "annotation": {"number": 64, "value": 127}, "group": "control_change"}, {"time": 3816, "annotation": {"number": 64, "value": 0}, "group": "control_change"}, {"time": 3824, "annotation": {"number": 64, "value": 127}, "group": "control_change"}, {"time": 3864, "annotation": {"number": 64, "value": 0}, "group": "control_change"}, {"time": 3868, "annotation": {"number": 64, "value": 127}, "group": "control_change"}, {"time": 3889, "annotation": {"number": 64, "value": 0}, "group": "control_change"}, {"time": 3893, "annotation": {"number": 64, "value": 127}, "group": "control_change"}, {"time": 3912, "annotation": {"number": 64, "value": 0}, "group": "control_change"}, {"time": 3918, "annotation": {"number": 64, "value": 127}, "group": "control_change"}, {"time": 3938, "annotation": {"number": 64, "value": 0}, "group": "control_change"}, {"time": 3943, "annotation": {"number": 64, "value": 127}, "group": "control_change"}, {"time": 3962, "annotation": {"number": 64, "value": 0}, "group": "control_change"}, {"time": 3968, "annotation": {"number": 64, "value": 127}, "group": "control_change"}, {"time": 4009, "annotation": {"number": 64, "value": 0}, "group": "control_change"}, {"time": 4014, "annotation": {"number": 64, "value": 127}, "group": "control_change"}, {"time": 4059, "annotation": {"number": 64, "value": 0}, "group": "control_change"}, {"time": 4063, "annotation": {"number": 64, "value": 127}, "group": "control_change"}, {"time": 4080, "annotation": {"number": 64, "value": 0}, "group": "control_change"}, {"time": 4084, "annotation": {"number": 64, "value": 127}, "group": "control_change"}, {"time": 4106, "annotation": {"number": 64, "value": 0}, "group": "control_change"}, {"time": 4110, "annotation": {"number": 64, "value": 127}, "group": "control_change"}, {"time": 4129, "annotation": {"number": 64, "value": 0}, "group": "control_change"}, {"time": 4133, "annotation": {"number": 64, "value": 127}, "group": "control_change"}, {"time": 4153, "annotation": {"number": 64, "value": 0}, "group": "control_change"}, {"time": 4155, "annotation": {"number": 64, "value": 127}, "group": "control_change"}, {"time": 4201, "annotation": {"number": 64, "value": 0}, "group": "control_change"}, {"time": 4208, "annotation": {"number": 64, "value": 127}, "group": "control_change"}, {"time": 4254, "annotation": {"number": 64, "value": 127}, "group": "control_change"}, {"time": 4272, "annotation": {"number": 64, "value": 0}, "group": "control_change"}, {"time": 4276, "annotation": {"number": 64, "value": 127}, "group": "control_change"}, {"time": 4298, "annotation": {"number": 64, "value": 0}, "group": "control_change"}, {"time": 4302, "annotation": {"number": 64, "value": 127}, "group": "control_change"}, {"time": 4322, "annotation": {"number": 64, "value": 0}, "group": "control_change"}, {"time": 4326, "annotation": {"number": 64, "value": 127}, "group": "control_change"}, {"time": 4347, "annotation": {"number": 64, "value": 0}, "group": "control_change"}, {"time": 4352, "annotation": {"number": 64, "value": 127}, "group": "control_change"}, {"time": 4395, "annotation": {"number": 64, "value": 0}, "group": "control_change"}, {"time": 4401, "annotation": {"number": 64, "value": 127}, "group": "control_change"}, {"time": 4444, "annotation": {"number": 64, "value": 0}, "group": "control_change"}, {"time": 4448, "annotation": {"number": 64, "value": 127}, "group": "control_change"}, {"time": 4466, "annotation": {"number": 64, "value": 0}, "group": "control_change"}, {"time": 4469, "annotation": {"number": 64, "value": 127}, "group": "control_change"}, {"time": 4490, "annotation": {"number": 64, "value": 0}, "group": "control_change"}, {"time": 4494, "annotation": {"number": 64, "value": 127}, "group": "control_change"}, {"time": 4513, "annotation": {"number": 64, "value": 0}, "group": "control_change"}, {"time": 4517, "annotation": {"number": 64, "value": 127}, "group": "control_change"}, {"time": 4538, "annotation": {"number": 64, "value": 0}, "group": "control_change"}, {"time": 4539, "annotation": {"number": 64, "value": 127}, "group": "control_change"}, {"time": 4540, "annotation": {"number": 64, "value": 127}, "group": "control_change"}, {"time": 4561, "annotation": {"number": 64, "value": 0}, "group": "control_change"}, {"time": 4565, "annotation": {"number": 64, "value": 127}, "group": "control_change"}, {"time": 4584, "annotation": {"number": 64, "value": 0}, "group": "control_change"}, {"time": 4592, "annotation": {"number": 64, "value": 127}, "group": "control_change"}, {"time": 4632, "annotation": {"number": 64, "value": 0}, "group": "control_change"}, {"time": 4640, "annotation": {"number": 64, "value": 127}, "group": "control_change"}, {"time": 4680, "annotation": {"number": 64, "value": 0}, "group": "control_change"}, {"time": 4689, "annotation": {"number": 64, "value": 127}, "group": "control_change"}, {"time": 4766, "annotation": {"number": 64, "value": 0}, "group": "control_change"}, {"time": 4804, "annotation": {"number": 64, "value": 127}, "group": "control_change"}, {"time": 4827, "annotation": {"number": 64, "value": 0}, "group": "control_change"}, {"time": 4830, "annotation": {"number": 64, "value": 127}, "group": "control_change"}, {"time": 4850, "annotation": {"number": 64, "value": 0}, "group": "control_change"}, {"time": 4854, "annotation": {"number": 64, "value": 127}, "group": "control_change"}, {"time": 4877, "annotation": {"number": 64, "value": 0}, "group": "control_change"}, {"time": 4881, "annotation": {"number": 64, "value": 127}, "group": "control_change"}, {"time": 4900, "annotation": {"number": 64, "value": 0}, "group": "control_change"}, {"time": 4906, "annotation": {"number": 64, "value": 127}, "group": "control_change"}, {"time": 4972, "annotation": {"number": 64, "value": 0}, "group": "control_change"}, {"time": 4976, "annotation": {"number": 64, "value": 127}, "group": "control_change"}, {"time": 5035, "annotation": {"number": 64, "value": 0}, "group": "control_change"}, {"time": 5040, "annotation": {"number": 64, "value": 127}, "group": "control_change"}, {"time": 5210, "annotation": {"number": 64, "value": 0}, "group": "control_change"}]}]}