{"metadata": {"schema_version": "0.2", "title": "None", "source_filename": "430.mid", "source_format": "midi"}, "resolution": 12, "tempos": [{"time": 0, "qpm": 108.000108000108}], "time_signatures": [{"time": 0, "numerator": 1, "denominator": 4}], "tracks": [{"program": 0, "is_drum": false, "name": "MELODY", "notes": [{"time": 373, "pitch": 75, "duration": 5, "velocity": 95}, {"time": 379, "pitch": 77, "duration": 5, "velocity": 93}, {"time": 385, "pitch": 75, "duration": 4, "velocity": 99}, {"time": 391, "pitch": 77, "duration": 5, "velocity": 92}, {"time": 397, "pitch": 79, "duration": 4, "velocity": 88}, {"time": 403, "pitch": 79, "duration": 3, "velocity": 84}, {"time": 409, "pitch": 79, "duration": 4, "velocity": 82}, {"time": 415, "pitch": 79, "duration": 5, "velocity": 89}, {"time": 421, "pitch": 77, "duration": 3, "velocity": 92}, {"time": 427, "pitch": 77, "duration": 4, "velocity": 91}, {"time": 433, "pitch": 75, "duration": 4, "velocity": 99}, {"time": 439, "pitch": 74, "duration": 4, "velocity": 88}, {"time": 445, "pitch": 75, "duration": 4, "velocity": 92}, {"time": 451, "pitch": 77, "duration": 4, "velocity": 88}, {"time": 457, "pitch": 75, "duration": 7, "velocity": 95}, {"time": 469, "pitch": 75, "duration": 4, "velocity": 95}, {"time": 475, "pitch": 72, "duration": 5, "velocity": 90}, {"time": 481, "pitch": 70, "duration": 4, "velocity": 88}, {"time": 487, "pitch": 72, "duration": 4, "velocity": 90}, {"time": 493, "pitch": 80, "duration": 4, "velocity": 86}, {"time": 499, "pitch": 80, "duration": 3, "velocity": 90}, {"time": 505, "pitch": 80, "duration": 4, "velocity": 88}, {"time": 511, "pitch": 80, "duration": 4, "velocity": 88}, {"time": 517, "pitch": 79, "duration": 5, "velocity": 90}, {"time": 523, "pitch": 77, "duration": 3, "velocity": 87}, {"time": 529, "pitch": 75, "duration": 3, "velocity": 90}, {"time": 535, "pitch": 74, "duration": 4, "velocity": 94}, {"time": 541, "pitch": 75, "duration": 4, "velocity": 90}, {"time": 547, "pitch": 79, "duration": 4, "velocity": 91}, {"time": 553, "pitch": 77, "duration": 7, "velocity": 92}, {"time": 565, "pitch": 75, "duration": 4, "velocity": 91}, {"time": 571, "pitch": 74, "duration": 3, "velocity": 97}, {"time": 577, "pitch": 72, "duration": 4, "velocity": 90}, {"time": 583, "pitch": 74, "duration": 4, "velocity": 94}, {"time": 589, "pitch": 82, "duration": 10, "velocity": 89}, {"time": 601, "pitch": 82, "duration": 9, "velocity": 92}, {"time": 613, "pitch": 80, "duration": 4, "velocity": 91}, {"time": 619, "pitch": 79, "duration": 5, "velocity": 92}, {"time": 625, "pitch": 77, "duration": 4, "velocity": 90}, {"time": 631, "pitch": 77, "duration": 6, "velocity": 90}, {"time": 637, "pitch": 77, "duration": 7, "velocity": 89}, {"time": 649, "pitch": 76, "duration": 7, "velocity": 92}, {"time": 661, "pitch": 77, "duration": 4, "velocity": 92}, {"time": 667, "pitch": 79, "duration": 8, "velocity": 94}, {"time": 679, "pitch": 79, "duration": 5, "velocity": 90}, {"time": 691, "pitch": 80, "duration": 4, "velocity": 86}, {"time": 697, "pitch": 80, "duration": 10, "velocity": 94}, {"time": 709, "pitch": 79, "duration": 4, "velocity": 94}, {"time": 715, "pitch": 77, "duration": 3, "velocity": 99}, {"time": 721, "pitch": 75, "duration": 4, "velocity": 95}, {"time": 727, "pitch": 74, "duration": 9, "velocity": 99}, {"time": 739, "pitch": 72, "duration": 4, "velocity": 94}, {"time": 745, "pitch": 70, "duration": 11, "velocity": 95}, {"time": 757, "pitch": 75, "duration": 3, "velocity": 105}, {"time": 763, "pitch": 77, "duration": 5, "velocity": 92}, {"time": 769, "pitch": 75, "duration": 3, "velocity": 95}, {"time": 775, "pitch": 77, "duration": 4, "velocity": 92}, {"time": 781, "pitch": 79, "duration": 4, "velocity": 92}, {"time": 787, "pitch": 79, "duration": 3, "velocity": 90}, {"time": 793, "pitch": 79, "duration": 3, "velocity": 90}, {"time": 799, "pitch": 79, "duration": 5, "velocity": 95}, {"time": 805, "pitch": 77, "duration": 3, "velocity": 97}, {"time": 811, "pitch": 77, "duration": 4, "velocity": 95}, {"time": 817, "pitch": 75, "duration": 4, "velocity": 86}, {"time": 823, "pitch": 74, "duration": 4, "velocity": 79}, {"time": 829, "pitch": 75, "duration": 3, "velocity": 93}, {"time": 835, "pitch": 77, "duration": 4, "velocity": 89}, {"time": 841, "pitch": 75, "duration": 6, "velocity": 88}, {"time": 853, "pitch": 75, "duration": 4, "velocity": 92}, {"time": 859, "pitch": 72, "duration": 3, "velocity": 90}, {"time": 865, "pitch": 70, "duration": 3, "velocity": 89}, {"time": 871, "pitch": 72, "duration": 4, "velocity": 90}, {"time": 877, "pitch": 80, "duration": 3, "velocity": 90}, {"time": 883, "pitch": 80, "duration": 3, "velocity": 89}, {"time": 889, "pitch": 80, "duration": 3, "velocity": 87}, {"time": 895, "pitch": 80, "duration": 4, "velocity": 90}, {"time": 901, "pitch": 82, "duration": 3, "velocity": 89}, {"time": 907, "pitch": 77, "duration": 4, "velocity": 77}, {"time": 913, "pitch": 75, "duration": 4, "velocity": 88}, {"time": 919, "pitch": 74, "duration": 4, "velocity": 89}, {"time": 925, "pitch": 75, "duration": 4, "velocity": 88}, {"time": 931, "pitch": 79, "duration": 4, "velocity": 89}, {"time": 937, "pitch": 77, "duration": 5, "velocity": 90}, {"time": 949, "pitch": 75, "duration": 4, "velocity": 94}, {"time": 955, "pitch": 74, "duration": 4, "velocity": 91}, {"time": 961, "pitch": 72, "duration": 4, "velocity": 88}, {"time": 967, "pitch": 74, "duration": 3, "velocity": 90}, {"time": 973, "pitch": 82, "duration": 9, "velocity": 89}, {"time": 985, "pitch": 82, "duration": 9, "velocity": 90}, {"time": 997, "pitch": 80, "duration": 4, "velocity": 89}, {"time": 1003, "pitch": 79, "duration": 4, "velocity": 92}, {"time": 1009, "pitch": 77, "duration": 4, "velocity": 89}, {"time": 1015, "pitch": 77, "duration": 5, "velocity": 94}, {"time": 1027, "pitch": 77, "duration": 4, "velocity": 89}, {"time": 1033, "pitch": 76, "duration": 8, "velocity": 88}, {"time": 1045, "pitch": 77, "duration": 3, "velocity": 92}, {"time": 1051, "pitch": 79, "duration": 5, "velocity": 90}, {"time": 1057, "pitch": 82, "duration": 3, "velocity": 88}, {"time": 1063, "pitch": 79, "duration": 4, "velocity": 88}, {"time": 1069, "pitch": 80, "duration": 9, "velocity": 88}, {"time": 1081, "pitch": 80, "duration": 8, "velocity": 90}, {"time": 1093, "pitch": 79, "duration": 3, "velocity": 85}, {"time": 1099, "pitch": 77, "duration": 3, "velocity": 88}, {"time": 1105, "pitch": 75, "duration": 3, "velocity": 90}, {"time": 1111, "pitch": 84, "duration": 5, "velocity": 81}, {"time": 1123, "pitch": 84, "duration": 4, "velocity": 94}, {"time": 1129, "pitch": 82, "duration": 24, "velocity": 89}, {"time": 1159, "pitch": 79, "duration": 7, "velocity": 92}, {"time": 1168, "pitch": 80, "duration": 3, "velocity": 85}, {"time": 1171, "pitch": 79, "duration": 8, "velocity": 88}, {"time": 1180, "pitch": 80, "duration": 2, "velocity": 82}, {"time": 1183, "pitch": 79, "duration": 5, "velocity": 76}, {"time": 1189, "pitch": 80, "duration": 9, "velocity": 90}, {"time": 1201, "pitch": 82, "duration": 7, "velocity": 90}, {"time": 1219, "pitch": 79, "duration": 6, "velocity": 84}, {"time": 1225, "pitch": 84, "duration": 9, "velocity": 89}, {"time": 1237, "pitch": 82, "duration": 9, "velocity": 94}, {"time": 1255, "pitch": 75, "duration": 8, "velocity": 92}, {"time": 1264, "pitch": 77, "duration": 3, "velocity": 89}, {"time": 1267, "pitch": 75, "duration": 8, "velocity": 92}, {"time": 1276, "pitch": 77, "duration": 2, "velocity": 87}, {"time": 1279, "pitch": 75, "duration": 3, "velocity": 94}, {"time": 1285, "pitch": 77, "duration": 9, "velocity": 95}, {"time": 1297, "pitch": 79, "duration": 11, "velocity": 92}, {"time": 1315, "pitch": 75, "duration": 3, "velocity": 95}, {"time": 1321, "pitch": 80, "duration": 9, "velocity": 88}, {"time": 1333, "pitch": 79, "duration": 8, "velocity": 93}, {"time": 1351, "pitch": 72, "duration": 7, "velocity": 92}, {"time": 1360, "pitch": 70, "duration": 2, "velocity": 88}, {"time": 1363, "pitch": 72, "duration": 8, "velocity": 91}, {"time": 1372, "pitch": 70, "duration": 3, "velocity": 90}, {"time": 1375, "pitch": 72, "duration": 4, "velocity": 90}, {"time": 1381, "pitch": 75, "duration": 8, "velocity": 95}, {"time": 1393, "pitch": 70, "duration": 8, "velocity": 92}, {"time": 1405, "pitch": 67, "duration": 2, "velocity": 102}, {"time": 1411, "pitch": 77, "duration": 4, "velocity": 82}, {"time": 1417, "pitch": 75, "duration": 9, "velocity": 99}, {"time": 1429, "pitch": 77, "duration": 4, "velocity": 90}, {"time": 1435, "pitch": 79, "duration": 8, "velocity": 93}, {"time": 1447, "pitch": 80, "duration": 9, "velocity": 90}, {"time": 1459, "pitch": 72, "duration": 4, "velocity": 91}, {"time": 1465, "pitch": 74, "duration": 9, "velocity": 92}, {"time": 1477, "pitch": 75, "duration": 8, "velocity": 99}, {"time": 1489, "pitch": 77, "duration": 10, "velocity": 92}, {"time": 1501, "pitch": 79, "duration": 4, "velocity": 93}, {"time": 1507, "pitch": 77, "duration": 4, "velocity": 90}, {"time": 1513, "pitch": 79, "duration": 4, "velocity": 92}, {"time": 1519, "pitch": 77, "duration": 9, "velocity": 97}, {"time": 1543, "pitch": 79, "duration": 7, "velocity": 92}, {"time": 1552, "pitch": 80, "duration": 3, "velocity": 85}, {"time": 1555, "pitch": 79, "duration": 8, "velocity": 88}, {"time": 1564, "pitch": 80, "duration": 2, "velocity": 82}, {"time": 1567, "pitch": 79, "duration": 5, "velocity": 76}, {"time": 1573, "pitch": 80, "duration": 9, "velocity": 90}, {"time": 1585, "pitch": 82, "duration": 7, "velocity": 90}, {"time": 1603, "pitch": 79, "duration": 6, "velocity": 84}, {"time": 1609, "pitch": 84, "duration": 9, "velocity": 89}, {"time": 1621, "pitch": 82, "duration": 9, "velocity": 94}, {"time": 1639, "pitch": 75, "duration": 8, "velocity": 92}, {"time": 1648, "pitch": 77, "duration": 3, "velocity": 89}, {"time": 1651, "pitch": 75, "duration": 8, "velocity": 92}, {"time": 1660, "pitch": 77, "duration": 2, "velocity": 87}, {"time": 1663, "pitch": 75, "duration": 3, "velocity": 94}, {"time": 1669, "pitch": 77, "duration": 9, "velocity": 95}, {"time": 1681, "pitch": 79, "duration": 11, "velocity": 92}, {"time": 1699, "pitch": 75, "duration": 3, "velocity": 95}, {"time": 1705, "pitch": 80, "duration": 9, "velocity": 88}, {"time": 1717, "pitch": 79, "duration": 8, "velocity": 93}, {"time": 1735, "pitch": 72, "duration": 7, "velocity": 92}, {"time": 1744, "pitch": 70, "duration": 2, "velocity": 88}, {"time": 1747, "pitch": 72, "duration": 8, "velocity": 91}, {"time": 1756, "pitch": 70, "duration": 3, "velocity": 90}, {"time": 1759, "pitch": 72, "duration": 4, "velocity": 90}, {"time": 1765, "pitch": 75, "duration": 8, "velocity": 95}, {"time": 1777, "pitch": 70, "duration": 8, "velocity": 92}, {"time": 1789, "pitch": 67, "duration": 2, "velocity": 102}, {"time": 1795, "pitch": 77, "duration": 4, "velocity": 82}, {"time": 1801, "pitch": 75, "duration": 9, "velocity": 99}, {"time": 1813, "pitch": 77, "duration": 4, "velocity": 90}, {"time": 1819, "pitch": 79, "duration": 8, "velocity": 93}, {"time": 1831, "pitch": 79, "duration": 9, "velocity": 90}, {"time": 1843, "pitch": 72, "duration": 4, "velocity": 91}, {"time": 1849, "pitch": 75, "duration": 9, "velocity": 92}, {"time": 1861, "pitch": 77, "duration": 8, "velocity": 99}, {"time": 1873, "pitch": 79, "duration": 10, "velocity": 92}, {"time": 1891, "pitch": 75, "duration": 4, "velocity": 92}, {"time": 1897, "pitch": 75, "duration": 17, "velocity": 95}, {"time": 1915, "pitch": 74, "duration": 4, "velocity": 92}, {"time": 1921, "pitch": 75, "duration": 54, "velocity": 95}, {"time": 2293, "pitch": 75, "duration": 3, "velocity": 105}, {"time": 2299, "pitch": 77, "duration": 5, "velocity": 92}, {"time": 2305, "pitch": 75, "duration": 3, "velocity": 95}, {"time": 2311, "pitch": 77, "duration": 4, "velocity": 92}, {"time": 2317, "pitch": 79, "duration": 4, "velocity": 92}, {"time": 2323, "pitch": 79, "duration": 3, "velocity": 90}, {"time": 2329, "pitch": 79, "duration": 3, "velocity": 90}, {"time": 2335, "pitch": 79, "duration": 5, "velocity": 95}, {"time": 2341, "pitch": 77, "duration": 3, "velocity": 97}, {"time": 2347, "pitch": 77, "duration": 4, "velocity": 95}, {"time": 2353, "pitch": 75, "duration": 4, "velocity": 86}, {"time": 2359, "pitch": 74, "duration": 4, "velocity": 79}, {"time": 2365, "pitch": 75, "duration": 3, "velocity": 93}, {"time": 2371, "pitch": 77, "duration": 4, "velocity": 89}, {"time": 2377, "pitch": 75, "duration": 6, "velocity": 88}, {"time": 2389, "pitch": 75, "duration": 4, "velocity": 92}, {"time": 2395, "pitch": 72, "duration": 3, "velocity": 90}, {"time": 2401, "pitch": 70, "duration": 3, "velocity": 89}, {"time": 2407, "pitch": 72, "duration": 4, "velocity": 90}, {"time": 2413, "pitch": 80, "duration": 3, "velocity": 90}, {"time": 2419, "pitch": 80, "duration": 3, "velocity": 89}, {"time": 2425, "pitch": 80, "duration": 3, "velocity": 87}, {"time": 2431, "pitch": 80, "duration": 4, "velocity": 90}, {"time": 2437, "pitch": 82, "duration": 3, "velocity": 89}, {"time": 2443, "pitch": 77, "duration": 4, "velocity": 77}, {"time": 2449, "pitch": 75, "duration": 4, "velocity": 88}, {"time": 2455, "pitch": 74, "duration": 4, "velocity": 89}, {"time": 2461, "pitch": 75, "duration": 4, "velocity": 88}, {"time": 2467, "pitch": 79, "duration": 4, "velocity": 89}, {"time": 2473, "pitch": 77, "duration": 5, "velocity": 90}, {"time": 2485, "pitch": 75, "duration": 4, "velocity": 94}, {"time": 2491, "pitch": 74, "duration": 4, "velocity": 91}, {"time": 2497, "pitch": 72, "duration": 4, "velocity": 88}, {"time": 2503, "pitch": 74, "duration": 3, "velocity": 90}, {"time": 2509, "pitch": 82, "duration": 9, "velocity": 89}, {"time": 2521, "pitch": 82, "duration": 9, "velocity": 90}, {"time": 2533, "pitch": 80, "duration": 4, "velocity": 89}, {"time": 2539, "pitch": 79, "duration": 4, "velocity": 92}, {"time": 2545, "pitch": 77, "duration": 4, "velocity": 89}, {"time": 2551, "pitch": 77, "duration": 5, "velocity": 94}, {"time": 2563, "pitch": 77, "duration": 4, "velocity": 89}, {"time": 2569, "pitch": 76, "duration": 8, "velocity": 88}, {"time": 2581, "pitch": 77, "duration": 3, "velocity": 92}, {"time": 2587, "pitch": 79, "duration": 5, "velocity": 90}, {"time": 2593, "pitch": 82, "duration": 3, "velocity": 88}, {"time": 2599, "pitch": 79, "duration": 4, "velocity": 88}, {"time": 2605, "pitch": 80, "duration": 9, "velocity": 88}, {"time": 2617, "pitch": 80, "duration": 8, "velocity": 90}, {"time": 2629, "pitch": 79, "duration": 3, "velocity": 85}, {"time": 2635, "pitch": 77, "duration": 3, "velocity": 88}, {"time": 2641, "pitch": 75, "duration": 3, "velocity": 90}, {"time": 2647, "pitch": 84, "duration": 5, "velocity": 81}, {"time": 2659, "pitch": 84, "duration": 4, "velocity": 94}, {"time": 2665, "pitch": 82, "duration": 24, "velocity": 89}, {"time": 2695, "pitch": 72, "duration": 9, "velocity": 95}, {"time": 2707, "pitch": 72, "duration": 4, "velocity": 99}, {"time": 2713, "pitch": 72, "duration": 10, "velocity": 93}, {"time": 2725, "pitch": 68, "duration": 13, "velocity": 94}, {"time": 2743, "pitch": 79, "duration": 10, "velocity": 97}, {"time": 2755, "pitch": 77, "duration": 4, "velocity": 99}, {"time": 2761, "pitch": 74, "duration": 11, "velocity": 92}, {"time": 2773, "pitch": 72, "duration": 14, "velocity": 97}, {"time": 2791, "pitch": 71, "duration": 10, "velocity": 97}, {"time": 2803, "pitch": 71, "duration": 4, "velocity": 90}, {"time": 2809, "pitch": 71, "duration": 8, "velocity": 97}, {"time": 2821, "pitch": 80, "duration": 9, "velocity": 91}, {"time": 2833, "pitch": 79, "duration": 30, "velocity": 99}, {"time": 2875, "pitch": 77, "duration": 4, "velocity": 95}, {"time": 2881, "pitch": 79, "duration": 4, "velocity": 93}, {"time": 2887, "pitch": 80, "duration": 10, "velocity": 92}, {"time": 2899, "pitch": 79, "duration": 4, "velocity": 97}, {"time": 2905, "pitch": 80, "duration": 22, "velocity": 95}, {"time": 2929, "pitch": 79, "duration": 4, "velocity": 94}, {"time": 2935, "pitch": 80, "duration": 9, "velocity": 92}, {"time": 2947, "pitch": 79, "duration": 4, "velocity": 95}, {"time": 2953, "pitch": 77, "duration": 16, "velocity": 95}, {"time": 2971, "pitch": 75, "duration": 10, "velocity": 99}, {"time": 2983, "pitch": 77, "duration": 64, "velocity": 91}, {"time": 3079, "pitch": 79, "duration": 7, "velocity": 92}, {"time": 3088, "pitch": 80, "duration": 3, "velocity": 85}, {"time": 3091, "pitch": 79, "duration": 8, "velocity": 88}, {"time": 3100, "pitch": 80, "duration": 2, "velocity": 82}, {"time": 3103, "pitch": 79, "duration": 5, "velocity": 76}, {"time": 3109, "pitch": 80, "duration": 9, "velocity": 90}, {"time": 3121, "pitch": 82, "duration": 7, "velocity": 90}, {"time": 3139, "pitch": 79, "duration": 6, "velocity": 84}, {"time": 3145, "pitch": 84, "duration": 9, "velocity": 89}, {"time": 3157, "pitch": 82, "duration": 9, "velocity": 94}, {"time": 3175, "pitch": 75, "duration": 8, "velocity": 92}, {"time": 3184, "pitch": 77, "duration": 3, "velocity": 89}, {"time": 3187, "pitch": 75, "duration": 8, "velocity": 92}, {"time": 3196, "pitch": 77, "duration": 2, "velocity": 87}, {"time": 3199, "pitch": 75, "duration": 3, "velocity": 94}, {"time": 3205, "pitch": 77, "duration": 9, "velocity": 95}, {"time": 3217, "pitch": 79, "duration": 11, "velocity": 92}, {"time": 3235, "pitch": 75, "duration": 3, "velocity": 95}, {"time": 3241, "pitch": 80, "duration": 9, "velocity": 88}, {"time": 3253, "pitch": 79, "duration": 8, "velocity": 93}, {"time": 3271, "pitch": 72, "duration": 7, "velocity": 92}, {"time": 3280, "pitch": 70, "duration": 2, "velocity": 88}, {"time": 3283, "pitch": 72, "duration": 8, "velocity": 91}, {"time": 3292, "pitch": 70, "duration": 3, "velocity": 90}, {"time": 3295, "pitch": 72, "duration": 4, "velocity": 90}, {"time": 3301, "pitch": 75, "duration": 8, "velocity": 95}, {"time": 3313, "pitch": 70, "duration": 8, "velocity": 92}, {"time": 3325, "pitch": 67, "duration": 2, "velocity": 102}, {"time": 3331, "pitch": 77, "duration": 4, "velocity": 82}, {"time": 3337, "pitch": 75, "duration": 9, "velocity": 99}, {"time": 3349, "pitch": 77, "duration": 4, "velocity": 90}, {"time": 3355, "pitch": 79, "duration": 8, "velocity": 93}, {"time": 3367, "pitch": 80, "duration": 9, "velocity": 90}, {"time": 3379, "pitch": 72, "duration": 4, "velocity": 91}, {"time": 3385, "pitch": 74, "duration": 9, "velocity": 92}, {"time": 3397, "pitch": 75, "duration": 8, "velocity": 99}, {"time": 3409, "pitch": 77, "duration": 10, "velocity": 92}, {"time": 3421, "pitch": 79, "duration": 4, "velocity": 93}, {"time": 3427, "pitch": 77, "duration": 4, "velocity": 90}, {"time": 3433, "pitch": 79, "duration": 4, "velocity": 92}, {"time": 3439, "pitch": 77, "duration": 9, "velocity": 97}, {"time": 3463, "pitch": 79, "duration": 7, "velocity": 92}, {"time": 3472, "pitch": 80, "duration": 3, "velocity": 85}, {"time": 3475, "pitch": 79, "duration": 8, "velocity": 88}, {"time": 3484, "pitch": 80, "duration": 2, "velocity": 82}, {"time": 3487, "pitch": 79, "duration": 5, "velocity": 76}, {"time": 3493, "pitch": 80, "duration": 9, "velocity": 90}, {"time": 3505, "pitch": 82, "duration": 7, "velocity": 90}, {"time": 3523, "pitch": 79, "duration": 6, "velocity": 84}, {"time": 3529, "pitch": 84, "duration": 9, "velocity": 89}, {"time": 3541, "pitch": 82, "duration": 9, "velocity": 94}, {"time": 3559, "pitch": 75, "duration": 8, "velocity": 92}, {"time": 3568, "pitch": 77, "duration": 3, "velocity": 89}, {"time": 3571, "pitch": 75, "duration": 8, "velocity": 92}, {"time": 3580, "pitch": 77, "duration": 2, "velocity": 87}, {"time": 3583, "pitch": 75, "duration": 3, "velocity": 94}, {"time": 3589, "pitch": 77, "duration": 9, "velocity": 95}, {"time": 3601, "pitch": 79, "duration": 11, "velocity": 92}, {"time": 3619, "pitch": 75, "duration": 3, "velocity": 95}, {"time": 3625, "pitch": 80, "duration": 9, "velocity": 88}, {"time": 3637, "pitch": 79, "duration": 8, "velocity": 93}, {"time": 3655, "pitch": 72, "duration": 7, "velocity": 92}, {"time": 3664, "pitch": 70, "duration": 2, "velocity": 88}, {"time": 3667, "pitch": 72, "duration": 8, "velocity": 91}, {"time": 3676, "pitch": 70, "duration": 3, "velocity": 90}, {"time": 3679, "pitch": 72, "duration": 4, "velocity": 90}, {"time": 3685, "pitch": 75, "duration": 8, "velocity": 95}, {"time": 3697, "pitch": 70, "duration": 8, "velocity": 92}, {"time": 3709, "pitch": 67, "duration": 2, "velocity": 102}, {"time": 3715, "pitch": 77, "duration": 4, "velocity": 82}, {"time": 3721, "pitch": 75, "duration": 9, "velocity": 99}, {"time": 3733, "pitch": 77, "duration": 4, "velocity": 90}, {"time": 3739, "pitch": 79, "duration": 8, "velocity": 93}, {"time": 3751, "pitch": 79, "duration": 9, "velocity": 90}, {"time": 3763, "pitch": 72, "duration": 4, "velocity": 91}, {"time": 3769, "pitch": 75, "duration": 9, "velocity": 92}, {"time": 3781, "pitch": 77, "duration": 8, "velocity": 99}, {"time": 3793, "pitch": 79, "duration": 10, "velocity": 92}, {"time": 3811, "pitch": 75, "duration": 4, "velocity": 92}, {"time": 3817, "pitch": 75, "duration": 17, "velocity": 95}, {"time": 3835, "pitch": 74, "duration": 4, "velocity": 92}, {"time": 3841, "pitch": 75, "duration": 54, "velocity": 95}, {"time": 3942, "pitch": 80, "duration": 11, "velocity": 90}, {"time": 3955, "pitch": 72, "duration": 4, "velocity": 95}, {"time": 3962, "pitch": 72, "duration": 9, "velocity": 94}, {"time": 3973, "pitch": 75, "duration": 9, "velocity": 102}, {"time": 3985, "pitch": 77, "duration": 25, "velocity": 99}, {"time": 4059, "pitch": 75, "duration": 12, "velocity": 95}, {"time": 4075, "pitch": 75, "duration": 15, "velocity": 104}, {"time": 4094, "pitch": 74, "duration": 15, "velocity": 92}, {"time": 4114, "pitch": 75, "duration": 40, "velocity": 90}]}, {"program": 0, "is_drum": false, "name": "BRIDGE", "notes": [{"time": 7, "pitch": 75, "duration": 21, "velocity": 105}, {"time": 31, "pitch": 75, "duration": 6, "velocity": 105}, {"time": 37, "pitch": 74, "duration": 5, "velocity": 105}, {"time": 43, "pitch": 75, "duration": 4, "velocity": 99}, {"time": 49, "pitch": 77, "duration": 9, "velocity": 104}, {"time": 67, "pitch": 75, "duration": 5, "velocity": 102}, {"time": 73, "pitch": 74, "duration": 10, "velocity": 105}, {"time": 85, "pitch": 70, "duration": 14, "velocity": 99}, {"time": 103, "pitch": 71, "duration": 10, "velocity": 102}, {"time": 115, "pitch": 72, "duration": 11, "velocity": 91}, {"time": 127, "pitch": 74, "duration": 10, "velocity": 99}, {"time": 139, "pitch": 75, "duration": 9, "velocity": 104}, {"time": 151, "pitch": 77, "duration": 5, "velocity": 95}, {"time": 157, "pitch": 76, "duration": 3, "velocity": 105}, {"time": 163, "pitch": 77, "duration": 3, "velocity": 102}, {"time": 169, "pitch": 79, "duration": 17, "velocity": 94}, {"time": 187, "pitch": 72, "duration": 4, "velocity": 99}, {"time": 193, "pitch": 79, "duration": 5, "velocity": 92}, {"time": 199, "pitch": 80, "duration": 11, "velocity": 95}, {"time": 211, "pitch": 79, "duration": 6, "velocity": 97}, {"time": 217, "pitch": 75, "duration": 12, "velocity": 99}, {"time": 229, "pitch": 72, "duration": 7, "velocity": 83}, {"time": 229, "pitch": 75, "duration": 7, "velocity": 90}, {"time": 241, "pitch": 75, "duration": 5, "velocity": 99}, {"time": 247, "pitch": 80, "duration": 10, "velocity": 95}, {"time": 259, "pitch": 79, "duration": 7, "velocity": 95}, {"time": 265, "pitch": 77, "duration": 9, "velocity": 97}, {"time": 277, "pitch": 74, "duration": 8, "velocity": 95}, {"time": 289, "pitch": 74, "duration": 5, "velocity": 93}, {"time": 295, "pitch": 75, "duration": 46, "velocity": 114}, {"time": 781, "pitch": 70, "duration": 10, "velocity": 76}, {"time": 787, "pitch": 75, "duration": 39, "velocity": 88}, {"time": 793, "pitch": 70, "duration": 21, "velocity": 33}, {"time": 793, "pitch": 79, "duration": 32, "velocity": 79}, {"time": 829, "pitch": 70, "duration": 6, "velocity": 72}, {"time": 835, "pitch": 75, "duration": 37, "velocity": 88}, {"time": 841, "pitch": 79, "duration": 31, "velocity": 76}, {"time": 877, "pitch": 72, "duration": 15, "velocity": 73}, {"time": 889, "pitch": 80, "duration": 24, "velocity": 88}, {"time": 925, "pitch": 70, "duration": 31, "velocity": 76}, {"time": 931, "pitch": 77, "duration": 26, "velocity": 84}, {"time": 937, "pitch": 82, "duration": 20, "velocity": 83}, {"time": 973, "pitch": 70, "duration": 12, "velocity": 73}, {"time": 979, "pitch": 74, "duration": 28, "velocity": 71}, {"time": 985, "pitch": 79, "duration": 24, "velocity": 83}, {"time": 1015, "pitch": 76, "duration": 9, "velocity": 91}, {"time": 1021, "pitch": 72, "duration": 10, "velocity": 83}, {"time": 1033, "pitch": 72, "duration": 19, "velocity": 89}, {"time": 1033, "pitch": 79, "duration": 19, "velocity": 81}, {"time": 1075, "pitch": 75, "duration": 25, "velocity": 79}, {"time": 1081, "pitch": 80, "duration": 20, "velocity": 84}, {"time": 1129, "pitch": 77, "duration": 27, "velocity": 80}, {"time": 1129, "pitch": 82, "duration": 26, "velocity": 83}, {"time": 1159, "pitch": 79, "duration": 16, "velocity": 82}, {"time": 1177, "pitch": 79, "duration": 22, "velocity": 92}, {"time": 1207, "pitch": 82, "duration": 24, "velocity": 91}, {"time": 1237, "pitch": 70, "duration": 6, "velocity": 81}, {"time": 1243, "pitch": 77, "duration": 9, "velocity": 88}, {"time": 1255, "pitch": 75, "duration": 38, "velocity": 90}, {"time": 1297, "pitch": 75, "duration": 7, "velocity": 88}, {"time": 1303, "pitch": 74, "duration": 34, "velocity": 84}, {"time": 1333, "pitch": 70, "duration": 8, "velocity": 74}, {"time": 1339, "pitch": 74, "duration": 6, "velocity": 81}, {"time": 1351, "pitch": 73, "duration": 1, "velocity": 65}, {"time": 1351, "pitch": 75, "duration": 26, "velocity": 72}, {"time": 1381, "pitch": 72, "duration": 8, "velocity": 81}, {"time": 1387, "pitch": 75, "duration": 8, "velocity": 88}, {"time": 1393, "pitch": 70, "duration": 33, "velocity": 77}, {"time": 1399, "pitch": 75, "duration": 31, "velocity": 87}, {"time": 1429, "pitch": 70, "duration": 7, "velocity": 81}, {"time": 1435, "pitch": 75, "duration": 7, "velocity": 88}, {"time": 1447, "pitch": 72, "duration": 39, "velocity": 77}, {"time": 1453, "pitch": 77, "duration": 42, "velocity": 84}, {"time": 1465, "pitch": 80, "duration": 28, "velocity": 88}, {"time": 1495, "pitch": 70, "duration": 21, "velocity": 77}, {"time": 1501, "pitch": 77, "duration": 19, "velocity": 84}, {"time": 1513, "pitch": 82, "duration": 23, "velocity": 88}, {"time": 1525, "pitch": 70, "duration": 8, "velocity": 78}, {"time": 1531, "pitch": 77, "duration": 8, "velocity": 83}, {"time": 1537, "pitch": 70, "duration": 2, "velocity": 78}, {"time": 1543, "pitch": 79, "duration": 16, "velocity": 82}, {"time": 1561, "pitch": 79, "duration": 22, "velocity": 92}, {"time": 1591, "pitch": 82, "duration": 24, "velocity": 91}, {"time": 1621, "pitch": 70, "duration": 6, "velocity": 81}, {"time": 1627, "pitch": 77, "duration": 9, "velocity": 88}, {"time": 1639, "pitch": 75, "duration": 38, "velocity": 90}, {"time": 1681, "pitch": 75, "duration": 7, "velocity": 88}, {"time": 1687, "pitch": 74, "duration": 34, "velocity": 84}, {"time": 1717, "pitch": 70, "duration": 8, "velocity": 74}, {"time": 1723, "pitch": 74, "duration": 6, "velocity": 81}, {"time": 1735, "pitch": 73, "duration": 1, "velocity": 65}, {"time": 1735, "pitch": 75, "duration": 26, "velocity": 72}, {"time": 1765, "pitch": 72, "duration": 8, "velocity": 81}, {"time": 1771, "pitch": 75, "duration": 8, "velocity": 88}, {"time": 1777, "pitch": 70, "duration": 33, "velocity": 77}, {"time": 1783, "pitch": 75, "duration": 31, "velocity": 87}, {"time": 1813, "pitch": 70, "duration": 7, "velocity": 81}, {"time": 1819, "pitch": 75, "duration": 7, "velocity": 88}, {"time": 1831, "pitch": 72, "duration": 39, "velocity": 77}, {"time": 1837, "pitch": 77, "duration": 42, "velocity": 84}, {"time": 1849, "pitch": 80, "duration": 28, "velocity": 88}, {"time": 1879, "pitch": 70, "duration": 21, "velocity": 77}, {"time": 1885, "pitch": 77, "duration": 19, "velocity": 84}, {"time": 1897, "pitch": 82, "duration": 23, "velocity": 88}, {"time": 1909, "pitch": 70, "duration": 8, "velocity": 78}, {"time": 1915, "pitch": 77, "duration": 8, "velocity": 83}, {"time": 1921, "pitch": 70, "duration": 2, "velocity": 78}, {"time": 1921, "pitch": 79, "duration": 4, "velocity": 90}, {"time": 1924, "pitch": 80, "duration": 2, "velocity": 94}, {"time": 1927, "pitch": 82, "duration": 12, "velocity": 95}, {"time": 1939, "pitch": 79, "duration": 9, "velocity": 104}, {"time": 1951, "pitch": 82, "duration": 4, "velocity": 95}, {"time": 1957, "pitch": 80, "duration": 3, "velocity": 94}, {"time": 1963, "pitch": 79, "duration": 3, "velocity": 104}, {"time": 1969, "pitch": 80, "duration": 4, "velocity": 97}, {"time": 1975, "pitch": 82, "duration": 12, "velocity": 95}, {"time": 1987, "pitch": 84, "duration": 10, "velocity": 102}, {"time": 1999, "pitch": 86, "duration": 10, "velocity": 95}, {"time": 2011, "pitch": 87, "duration": 8, "velocity": 93}, {"time": 2023, "pitch": 79, "duration": 18, "velocity": 99}, {"time": 2047, "pitch": 79, "duration": 5, "velocity": 99}, {"time": 2053, "pitch": 80, "duration": 4, "velocity": 92}, {"time": 2059, "pitch": 79, "duration": 3, "velocity": 109}, {"time": 2065, "pitch": 86, "duration": 9, "velocity": 105}, {"time": 2077, "pitch": 82, "duration": 9, "velocity": 99}, {"time": 2089, "pitch": 77, "duration": 11, "velocity": 102}, {"time": 2101, "pitch": 82, "duration": 15, "velocity": 99}, {"time": 2119, "pitch": 79, "duration": 21, "velocity": 97}, {"time": 2143, "pitch": 79, "duration": 5, "velocity": 102}, {"time": 2149, "pitch": 77, "duration": 3, "velocity": 102}, {"time": 2155, "pitch": 75, "duration": 4, "velocity": 109}, {"time": 2161, "pitch": 74, "duration": 19, "velocity": 99}, {"time": 2179, "pitch": 70, "duration": 5, "velocity": 93}, {"time": 2185, "pitch": 77, "duration": 10, "velocity": 95}, {"time": 2197, "pitch": 79, "duration": 18, "velocity": 99}, {"time": 2215, "pitch": 79, "duration": 48, "velocity": 97}, {"time": 2263, "pitch": 75, "duration": 5, "velocity": 104}, {"time": 2269, "pitch": 77, "duration": 5, "velocity": 99}, {"time": 2275, "pitch": 79, "duration": 6, "velocity": 94}, {"time": 2281, "pitch": 77, "duration": 12, "velocity": 99}, {"time": 2293, "pitch": 75, "duration": 18, "velocity": 99}, {"time": 2317, "pitch": 70, "duration": 10, "velocity": 76}, {"time": 2323, "pitch": 75, "duration": 39, "velocity": 88}, {"time": 2329, "pitch": 70, "duration": 21, "velocity": 33}, {"time": 2329, "pitch": 79, "duration": 32, "velocity": 79}, {"time": 2365, "pitch": 70, "duration": 6, "velocity": 72}, {"time": 2371, "pitch": 75, "duration": 37, "velocity": 88}, {"time": 2377, "pitch": 79, "duration": 31, "velocity": 76}, {"time": 2413, "pitch": 72, "duration": 15, "velocity": 73}, {"time": 2425, "pitch": 80, "duration": 24, "velocity": 88}, {"time": 2461, "pitch": 70, "duration": 31, "velocity": 76}, {"time": 2467, "pitch": 77, "duration": 26, "velocity": 84}, {"time": 2473, "pitch": 82, "duration": 20, "velocity": 83}, {"time": 2509, "pitch": 70, "duration": 12, "velocity": 73}, {"time": 2515, "pitch": 74, "duration": 28, "velocity": 71}, {"time": 2521, "pitch": 79, "duration": 24, "velocity": 83}, {"time": 2551, "pitch": 76, "duration": 9, "velocity": 91}, {"time": 2557, "pitch": 72, "duration": 10, "velocity": 83}, {"time": 2569, "pitch": 72, "duration": 19, "velocity": 89}, {"time": 2569, "pitch": 79, "duration": 19, "velocity": 81}, {"time": 2611, "pitch": 75, "duration": 25, "velocity": 79}, {"time": 2617, "pitch": 80, "duration": 20, "velocity": 84}, {"time": 2665, "pitch": 77, "duration": 27, "velocity": 80}, {"time": 2665, "pitch": 82, "duration": 26, "velocity": 83}, {"time": 2719, "pitch": 68, "duration": 18, "velocity": 77}, {"time": 2719, "pitch": 72, "duration": 22, "velocity": 83}, {"time": 2743, "pitch": 70, "duration": 34, "velocity": 75}, {"time": 2743, "pitch": 74, "duration": 35, "velocity": 76}, {"time": 2791, "pitch": 74, "duration": 24, "velocity": 90}, {"time": 2815, "pitch": 77, "duration": 20, "velocity": 91}, {"time": 2839, "pitch": 72, "duration": 13, "velocity": 83}, {"time": 2839, "pitch": 75, "duration": 13, "velocity": 89}, {"time": 2851, "pitch": 74, "duration": 13, "velocity": 83}, {"time": 2851, "pitch": 86, "duration": 5, "velocity": 102}, {"time": 2857, "pitch": 94, "duration": 5, "velocity": 99}, {"time": 2863, "pitch": 75, "duration": 15, "velocity": 90}, {"time": 2863, "pitch": 92, "duration": 6, "velocity": 99}, {"time": 2869, "pitch": 91, "duration": 7, "velocity": 97}, {"time": 2875, "pitch": 89, "duration": 6, "velocity": 99}, {"time": 2881, "pitch": 87, "duration": 5, "velocity": 91}, {"time": 2887, "pitch": 80, "duration": 43, "velocity": 82}, {"time": 2887, "pitch": 92, "duration": 15, "velocity": 89}, {"time": 2935, "pitch": 75, "duration": 22, "velocity": 90}, {"time": 2959, "pitch": 68, "duration": 16, "velocity": 82}, {"time": 2959, "pitch": 72, "duration": 19, "velocity": 89}, {"time": 2983, "pitch": 77, "duration": 24, "velocity": 99}, {"time": 3007, "pitch": 79, "duration": 24, "velocity": 95}, {"time": 3031, "pitch": 77, "duration": 3, "velocity": 90}, {"time": 3031, "pitch": 80, "duration": 3, "velocity": 90}, {"time": 3037, "pitch": 77, "duration": 3, "velocity": 94}, {"time": 3037, "pitch": 80, "duration": 3, "velocity": 92}, {"time": 3043, "pitch": 77, "duration": 4, "velocity": 94}, {"time": 3043, "pitch": 80, "duration": 5, "velocity": 93}, {"time": 3079, "pitch": 79, "duration": 16, "velocity": 82}, {"time": 3097, "pitch": 79, "duration": 22, "velocity": 92}, {"time": 3127, "pitch": 82, "duration": 24, "velocity": 91}, {"time": 3157, "pitch": 70, "duration": 6, "velocity": 81}, {"time": 3163, "pitch": 77, "duration": 9, "velocity": 88}, {"time": 3175, "pitch": 75, "duration": 38, "velocity": 90}, {"time": 3217, "pitch": 75, "duration": 7, "velocity": 88}, {"time": 3223, "pitch": 74, "duration": 34, "velocity": 84}, {"time": 3253, "pitch": 70, "duration": 8, "velocity": 74}, {"time": 3259, "pitch": 74, "duration": 6, "velocity": 81}, {"time": 3271, "pitch": 73, "duration": 1, "velocity": 65}, {"time": 3271, "pitch": 75, "duration": 26, "velocity": 72}, {"time": 3301, "pitch": 72, "duration": 8, "velocity": 81}, {"time": 3307, "pitch": 75, "duration": 8, "velocity": 88}, {"time": 3313, "pitch": 70, "duration": 33, "velocity": 77}, {"time": 3319, "pitch": 75, "duration": 31, "velocity": 87}, {"time": 3349, "pitch": 70, "duration": 7, "velocity": 81}, {"time": 3355, "pitch": 75, "duration": 7, "velocity": 88}, {"time": 3367, "pitch": 72, "duration": 39, "velocity": 77}, {"time": 3373, "pitch": 77, "duration": 42, "velocity": 84}, {"time": 3385, "pitch": 80, "duration": 28, "velocity": 88}, {"time": 3415, "pitch": 70, "duration": 21, "velocity": 77}, {"time": 3421, "pitch": 77, "duration": 19, "velocity": 84}, {"time": 3433, "pitch": 82, "duration": 23, "velocity": 88}, {"time": 3445, "pitch": 70, "duration": 8, "velocity": 78}, {"time": 3451, "pitch": 77, "duration": 8, "velocity": 83}, {"time": 3457, "pitch": 70, "duration": 2, "velocity": 78}, {"time": 3463, "pitch": 79, "duration": 16, "velocity": 82}, {"time": 3481, "pitch": 79, "duration": 22, "velocity": 92}, {"time": 3511, "pitch": 82, "duration": 24, "velocity": 91}, {"time": 3541, "pitch": 70, "duration": 6, "velocity": 81}, {"time": 3547, "pitch": 77, "duration": 9, "velocity": 88}, {"time": 3559, "pitch": 75, "duration": 38, "velocity": 90}, {"time": 3601, "pitch": 75, "duration": 7, "velocity": 88}, {"time": 3607, "pitch": 74, "duration": 34, "velocity": 84}, {"time": 3637, "pitch": 70, "duration": 8, "velocity": 74}, {"time": 3643, "pitch": 74, "duration": 6, "velocity": 81}, {"time": 3655, "pitch": 73, "duration": 1, "velocity": 65}, {"time": 3655, "pitch": 75, "duration": 26, "velocity": 72}, {"time": 3685, "pitch": 72, "duration": 8, "velocity": 81}, {"time": 3691, "pitch": 75, "duration": 8, "velocity": 88}, {"time": 3697, "pitch": 70, "duration": 33, "velocity": 77}, {"time": 3703, "pitch": 75, "duration": 31, "velocity": 87}, {"time": 3733, "pitch": 70, "duration": 7, "velocity": 81}, {"time": 3739, "pitch": 75, "duration": 7, "velocity": 88}, {"time": 3751, "pitch": 72, "duration": 39, "velocity": 77}, {"time": 3757, "pitch": 77, "duration": 42, "velocity": 84}, {"time": 3769, "pitch": 80, "duration": 28, "velocity": 88}, {"time": 3799, "pitch": 70, "duration": 21, "velocity": 77}, {"time": 3805, "pitch": 77, "duration": 19, "velocity": 84}, {"time": 3817, "pitch": 82, "duration": 23, "velocity": 88}, {"time": 3829, "pitch": 70, "duration": 8, "velocity": 78}, {"time": 3835, "pitch": 77, "duration": 8, "velocity": 83}, {"time": 3841, "pitch": 70, "duration": 2, "velocity": 78}, {"time": 3847, "pitch": 87, "duration": 81, "velocity": 84}, {"time": 3847, "pitch": 75, "duration": 82, "velocity": 84}, {"time": 3943, "pitch": 84, "duration": 39, "velocity": 76}, {"time": 3944, "pitch": 80, "duration": 37, "velocity": 73}, {"time": 3990, "pitch": 70, "duration": 50, "velocity": 78}, {"time": 3990, "pitch": 82, "duration": 47, "velocity": 77}, {"time": 3990, "pitch": 86, "duration": 43, "velocity": 75}, {"time": 4112, "pitch": 63, "duration": 71, "velocity": 73}, {"time": 4112, "pitch": 51, "duration": 72, "velocity": 72}]}, {"program": 0, "is_drum": false, "name": "PIANO", "notes": [{"time": 7, "pitch": 44, "duration": 44, "velocity": 87}, {"time": 13, "pitch": 56, "duration": 6, "velocity": 87}, {"time": 13, "pitch": 60, "duration": 6, "velocity": 88}, {"time": 13, "pitch": 63, "duration": 6, "velocity": 88}, {"time": 19, "pitch": 51, "duration": 16, "velocity": 79}, {"time": 25, "pitch": 56, "duration": 14, "velocity": 89}, {"time": 25, "pitch": 60, "duration": 15, "velocity": 91}, {"time": 25, "pitch": 63, "duration": 15, "velocity": 90}, {"time": 37, "pitch": 51, "duration": 9, "velocity": 90}, {"time": 43, "pitch": 56, "duration": 11, "velocity": 90}, {"time": 43, "pitch": 60, "duration": 14, "velocity": 92}, {"time": 43, "pitch": 63, "duration": 14, "velocity": 90}, {"time": 49, "pitch": 51, "duration": 4, "velocity": 82}, {"time": 55, "pitch": 46, "duration": 38, "velocity": 90}, {"time": 61, "pitch": 58, "duration": 7, "velocity": 82}, {"time": 61, "pitch": 62, "duration": 7, "velocity": 80}, {"time": 61, "pitch": 65, "duration": 7, "velocity": 89}, {"time": 67, "pitch": 53, "duration": 6, "velocity": 80}, {"time": 73, "pitch": 58, "duration": 14, "velocity": 90}, {"time": 73, "pitch": 62, "duration": 14, "velocity": 94}, {"time": 73, "pitch": 65, "duration": 14, "velocity": 97}, {"time": 85, "pitch": 53, "duration": 8, "velocity": 77}, {"time": 91, "pitch": 58, "duration": 4, "velocity": 90}, {"time": 91, "pitch": 62, "duration": 5, "velocity": 97}, {"time": 91, "pitch": 65, "duration": 5, "velocity": 94}, {"time": 103, "pitch": 43, "duration": 15, "velocity": 90}, {"time": 109, "pitch": 62, "duration": 7, "velocity": 90}, {"time": 109, "pitch": 67, "duration": 7, "velocity": 88}, {"time": 121, "pitch": 62, "duration": 15, "velocity": 99}, {"time": 121, "pitch": 67, "duration": 15, "velocity": 90}, {"time": 133, "pitch": 43, "duration": 7, "velocity": 74}, {"time": 139, "pitch": 62, "duration": 11, "velocity": 102}, {"time": 139, "pitch": 67, "duration": 12, "velocity": 95}, {"time": 151, "pitch": 48, "duration": 37, "velocity": 90}, {"time": 157, "pitch": 60, "duration": 7, "velocity": 89}, {"time": 157, "pitch": 64, "duration": 6, "velocity": 86}, {"time": 157, "pitch": 67, "duration": 6, "velocity": 82}, {"time": 163, "pitch": 55, "duration": 13, "velocity": 66}, {"time": 169, "pitch": 60, "duration": 15, "velocity": 90}, {"time": 169, "pitch": 64, "duration": 14, "velocity": 92}, {"time": 169, "pitch": 67, "duration": 15, "velocity": 90}, {"time": 181, "pitch": 55, "duration": 6, "velocity": 83}, {"time": 187, "pitch": 60, "duration": 3, "velocity": 90}, {"time": 187, "pitch": 64, "duration": 4, "velocity": 97}, {"time": 187, "pitch": 67, "duration": 4, "velocity": 90}, {"time": 199, "pitch": 41, "duration": 41, "velocity": 91}, {"time": 199, "pitch": 60, "duration": 6, "velocity": 88}, {"time": 199, "pitch": 65, "duration": 15, "velocity": 90}, {"time": 199, "pitch": 68, "duration": 16, "velocity": 85}, {"time": 205, "pitch": 48, "duration": 3, "velocity": 81}, {"time": 211, "pitch": 48, "duration": 8, "velocity": 80}, {"time": 217, "pitch": 60, "duration": 13, "velocity": 92}, {"time": 217, "pitch": 65, "duration": 13, "velocity": 102}, {"time": 217, "pitch": 68, "duration": 13, "velocity": 89}, {"time": 229, "pitch": 48, "duration": 12, "velocity": 82}, {"time": 235, "pitch": 60, "duration": 3, "velocity": 93}, {"time": 235, "pitch": 65, "duration": 10, "velocity": 102}, {"time": 235, "pitch": 68, "duration": 15, "velocity": 89}, {"time": 241, "pitch": 60, "duration": 6, "velocity": 86}, {"time": 247, "pitch": 46, "duration": 38, "velocity": 88}, {"time": 253, "pitch": 58, "duration": 4, "velocity": 88}, {"time": 253, "pitch": 62, "duration": 4, "velocity": 82}, {"time": 253, "pitch": 65, "duration": 4, "velocity": 89}, {"time": 259, "pitch": 53, "duration": 7, "velocity": 56}, {"time": 265, "pitch": 58, "duration": 15, "velocity": 86}, {"time": 265, "pitch": 62, "duration": 15, "velocity": 89}, {"time": 265, "pitch": 65, "duration": 15, "velocity": 90}, {"time": 265, "pitch": 70, "duration": 14, "velocity": 86}, {"time": 277, "pitch": 53, "duration": 7, "velocity": 82}, {"time": 283, "pitch": 58, "duration": 2, "velocity": 85}, {"time": 283, "pitch": 62, "duration": 9, "velocity": 93}, {"time": 283, "pitch": 65, "duration": 14, "velocity": 92}, {"time": 283, "pitch": 70, "duration": 11, "velocity": 88}, {"time": 289, "pitch": 58, "duration": 9, "velocity": 76}, {"time": 295, "pitch": 39, "duration": 47, "velocity": 90}, {"time": 307, "pitch": 63, "duration": 14, "velocity": 91}, {"time": 307, "pitch": 67, "duration": 11, "velocity": 90}, {"time": 313, "pitch": 58, "duration": 9, "velocity": 88}, {"time": 319, "pitch": 46, "duration": 9, "velocity": 78}, {"time": 325, "pitch": 58, "duration": 4, "velocity": 90}, {"time": 325, "pitch": 63, "duration": 6, "velocity": 93}, {"time": 325, "pitch": 68, "duration": 9, "velocity": 88}, {"time": 337, "pitch": 58, "duration": 5, "velocity": 83}, {"time": 343, "pitch": 39, "duration": 27, "velocity": 92}, {"time": 343, "pitch": 58, "duration": 30, "velocity": 81}, {"time": 343, "pitch": 63, "duration": 30, "velocity": 84}, {"time": 343, "pitch": 67, "duration": 29, "velocity": 86}, {"time": 391, "pitch": 51, "duration": 36, "velocity": 89}, {"time": 397, "pitch": 63, "duration": 4, "velocity": 88}, {"time": 397, "pitch": 67, "duration": 4, "velocity": 94}, {"time": 397, "pitch": 70, "duration": 4, "velocity": 89}, {"time": 409, "pitch": 63, "duration": 13, "velocity": 89}, {"time": 409, "pitch": 67, "duration": 14, "velocity": 92}, {"time": 409, "pitch": 70, "duration": 14, "velocity": 89}, {"time": 421, "pitch": 58, "duration": 6, "velocity": 69}, {"time": 427, "pitch": 63, "duration": 13, "velocity": 91}, {"time": 427, "pitch": 67, "duration": 12, "velocity": 97}, {"time": 427, "pitch": 70, "duration": 23, "velocity": 90}, {"time": 433, "pitch": 46, "duration": 3, "velocity": 89}, {"time": 439, "pitch": 48, "duration": 20, "velocity": 90}, {"time": 445, "pitch": 60, "duration": 6, "velocity": 83}, {"time": 445, "pitch": 63, "duration": 6, "velocity": 87}, {"time": 445, "pitch": 67, "duration": 6, "velocity": 81}, {"time": 457, "pitch": 60, "duration": 16, "velocity": 89}, {"time": 457, "pitch": 63, "duration": 16, "velocity": 89}, {"time": 457, "pitch": 67, "duration": 16, "velocity": 83}, {"time": 457, "pitch": 70, "duration": 16, "velocity": 88}, {"time": 469, "pitch": 55, "duration": 9, "velocity": 74}, {"time": 475, "pitch": 60, "duration": 3, "velocity": 89}, {"time": 475, "pitch": 63, "duration": 9, "velocity": 91}, {"time": 475, "pitch": 67, "duration": 10, "velocity": 89}, {"time": 475, "pitch": 70, "duration": 12, "velocity": 88}, {"time": 481, "pitch": 60, "duration": 9, "velocity": 93}, {"time": 487, "pitch": 41, "duration": 16, "velocity": 90}, {"time": 493, "pitch": 60, "duration": 4, "velocity": 94}, {"time": 493, "pitch": 65, "duration": 5, "velocity": 90}, {"time": 493, "pitch": 68, "duration": 5, "velocity": 88}, {"time": 505, "pitch": 60, "duration": 15, "velocity": 94}, {"time": 505, "pitch": 65, "duration": 15, "velocity": 99}, {"time": 505, "pitch": 68, "duration": 15, "velocity": 90}, {"time": 517, "pitch": 41, "duration": 12, "velocity": 89}, {"time": 523, "pitch": 60, "duration": 3, "velocity": 93}, {"time": 523, "pitch": 65, "duration": 10, "velocity": 97}, {"time": 523, "pitch": 68, "duration": 13, "velocity": 90}, {"time": 529, "pitch": 60, "duration": 6, "velocity": 90}, {"time": 535, "pitch": 46, "duration": 11, "velocity": 88}, {"time": 541, "pitch": 58, "duration": 5, "velocity": 84}, {"time": 541, "pitch": 62, "duration": 4, "velocity": 80}, {"time": 541, "pitch": 65, "duration": 5, "velocity": 88}, {"time": 553, "pitch": 58, "duration": 15, "velocity": 89}, {"time": 553, "pitch": 62, "duration": 15, "velocity": 92}, {"time": 553, "pitch": 65, "duration": 15, "velocity": 91}, {"time": 553, "pitch": 70, "duration": 14, "velocity": 88}, {"time": 565, "pitch": 46, "duration": 2, "velocity": 56}, {"time": 565, "pitch": 53, "duration": 8, "velocity": 83}, {"time": 571, "pitch": 58, "duration": 2, "velocity": 89}, {"time": 571, "pitch": 62, "duration": 9, "velocity": 102}, {"time": 571, "pitch": 65, "duration": 7, "velocity": 102}, {"time": 571, "pitch": 70, "duration": 7, "velocity": 89}, {"time": 577, "pitch": 58, "duration": 7, "velocity": 90}, {"time": 583, "pitch": 43, "duration": 38, "velocity": 93}, {"time": 589, "pitch": 62, "duration": 4, "velocity": 93}, {"time": 589, "pitch": 67, "duration": 4, "velocity": 88}, {"time": 601, "pitch": 62, "duration": 14, "velocity": 94}, {"time": 601, "pitch": 67, "duration": 14, "velocity": 91}, {"time": 613, "pitch": 50, "duration": 8, "velocity": 77}, {"time": 619, "pitch": 62, "duration": 11, "velocity": 99}, {"time": 619, "pitch": 67, "duration": 12, "velocity": 95}, {"time": 625, "pitch": 58, "duration": 6, "velocity": 90}, {"time": 631, "pitch": 48, "duration": 14, "velocity": 88}, {"time": 637, "pitch": 60, "duration": 4, "velocity": 88}, {"time": 637, "pitch": 64, "duration": 4, "velocity": 88}, {"time": 637, "pitch": 67, "duration": 4, "velocity": 88}, {"time": 649, "pitch": 60, "duration": 15, "velocity": 87}, {"time": 649, "pitch": 64, "duration": 14, "velocity": 83}, {"time": 649, "pitch": 67, "duration": 15, "velocity": 78}, {"time": 649, "pitch": 70, "duration": 14, "velocity": 88}, {"time": 661, "pitch": 55, "duration": 8, "velocity": 80}, {"time": 667, "pitch": 60, "duration": 5, "velocity": 89}, {"time": 667, "pitch": 64, "duration": 12, "velocity": 88}, {"time": 667, "pitch": 67, "duration": 12, "velocity": 82}, {"time": 667, "pitch": 70, "duration": 5, "velocity": 88}, {"time": 673, "pitch": 48, "duration": 3, "velocity": 89}, {"time": 679, "pitch": 41, "duration": 43, "velocity": 91}, {"time": 679, "pitch": 65, "duration": 9, "velocity": 92}, {"time": 679, "pitch": 68, "duration": 9, "velocity": 87}, {"time": 685, "pitch": 48, "duration": 21, "velocity": 79}, {"time": 691, "pitch": 60, "duration": 3, "velocity": 90}, {"time": 697, "pitch": 60, "duration": 16, "velocity": 95}, {"time": 697, "pitch": 65, "duration": 15, "velocity": 102}, {"time": 697, "pitch": 68, "duration": 15, "velocity": 89}, {"time": 709, "pitch": 48, "duration": 13, "velocity": 80}, {"time": 715, "pitch": 60, "duration": 2, "velocity": 88}, {"time": 715, "pitch": 65, "duration": 11, "velocity": 97}, {"time": 715, "pitch": 68, "duration": 13, "velocity": 91}, {"time": 721, "pitch": 60, "duration": 6, "velocity": 87}, {"time": 727, "pitch": 46, "duration": 44, "velocity": 89}, {"time": 733, "pitch": 58, "duration": 6, "velocity": 91}, {"time": 733, "pitch": 62, "duration": 6, "velocity": 84}, {"time": 733, "pitch": 65, "duration": 6, "velocity": 90}, {"time": 739, "pitch": 53, "duration": 6, "velocity": 49}, {"time": 745, "pitch": 58, "duration": 15, "velocity": 93}, {"time": 745, "pitch": 62, "duration": 14, "velocity": 99}, {"time": 745, "pitch": 65, "duration": 15, "velocity": 95}, {"time": 745, "pitch": 70, "duration": 14, "velocity": 89}, {"time": 757, "pitch": 53, "duration": 10, "velocity": 85}, {"time": 763, "pitch": 62, "duration": 11, "velocity": 97}, {"time": 763, "pitch": 65, "duration": 12, "velocity": 93}, {"time": 763, "pitch": 70, "duration": 12, "velocity": 88}, {"time": 769, "pitch": 58, "duration": 5, "velocity": 99}, {"time": 775, "pitch": 51, "duration": 36, "velocity": 89}, {"time": 781, "pitch": 63, "duration": 4, "velocity": 88}, {"time": 781, "pitch": 67, "duration": 4, "velocity": 94}, {"time": 781, "pitch": 70, "duration": 4, "velocity": 89}, {"time": 793, "pitch": 63, "duration": 13, "velocity": 89}, {"time": 793, "pitch": 67, "duration": 14, "velocity": 92}, {"time": 793, "pitch": 70, "duration": 14, "velocity": 89}, {"time": 805, "pitch": 58, "duration": 6, "velocity": 69}, {"time": 811, "pitch": 63, "duration": 13, "velocity": 91}, {"time": 811, "pitch": 67, "duration": 12, "velocity": 97}, {"time": 811, "pitch": 70, "duration": 23, "velocity": 90}, {"time": 817, "pitch": 46, "duration": 3, "velocity": 89}, {"time": 823, "pitch": 48, "duration": 20, "velocity": 90}, {"time": 829, "pitch": 60, "duration": 6, "velocity": 83}, {"time": 829, "pitch": 63, "duration": 6, "velocity": 87}, {"time": 829, "pitch": 67, "duration": 6, "velocity": 81}, {"time": 841, "pitch": 60, "duration": 16, "velocity": 89}, {"time": 841, "pitch": 63, "duration": 16, "velocity": 89}, {"time": 841, "pitch": 67, "duration": 16, "velocity": 83}, {"time": 841, "pitch": 70, "duration": 16, "velocity": 88}, {"time": 853, "pitch": 55, "duration": 9, "velocity": 74}, {"time": 859, "pitch": 60, "duration": 3, "velocity": 89}, {"time": 859, "pitch": 63, "duration": 9, "velocity": 91}, {"time": 859, "pitch": 67, "duration": 10, "velocity": 89}, {"time": 859, "pitch": 70, "duration": 12, "velocity": 88}, {"time": 865, "pitch": 60, "duration": 9, "velocity": 93}, {"time": 871, "pitch": 41, "duration": 16, "velocity": 90}, {"time": 877, "pitch": 60, "duration": 4, "velocity": 94}, {"time": 877, "pitch": 65, "duration": 5, "velocity": 90}, {"time": 877, "pitch": 68, "duration": 5, "velocity": 88}, {"time": 889, "pitch": 60, "duration": 15, "velocity": 94}, {"time": 889, "pitch": 65, "duration": 15, "velocity": 99}, {"time": 889, "pitch": 68, "duration": 15, "velocity": 90}, {"time": 901, "pitch": 41, "duration": 12, "velocity": 89}, {"time": 907, "pitch": 60, "duration": 3, "velocity": 93}, {"time": 907, "pitch": 65, "duration": 10, "velocity": 97}, {"time": 907, "pitch": 68, "duration": 13, "velocity": 90}, {"time": 913, "pitch": 60, "duration": 6, "velocity": 90}, {"time": 919, "pitch": 46, "duration": 11, "velocity": 88}, {"time": 925, "pitch": 58, "duration": 5, "velocity": 84}, {"time": 925, "pitch": 62, "duration": 4, "velocity": 80}, {"time": 925, "pitch": 65, "duration": 5, "velocity": 88}, {"time": 937, "pitch": 58, "duration": 15, "velocity": 89}, {"time": 937, "pitch": 62, "duration": 15, "velocity": 92}, {"time": 937, "pitch": 65, "duration": 15, "velocity": 91}, {"time": 937, "pitch": 70, "duration": 14, "velocity": 88}, {"time": 949, "pitch": 46, "duration": 2, "velocity": 56}, {"time": 949, "pitch": 53, "duration": 8, "velocity": 83}, {"time": 955, "pitch": 58, "duration": 2, "velocity": 89}, {"time": 955, "pitch": 62, "duration": 9, "velocity": 102}, {"time": 955, "pitch": 65, "duration": 7, "velocity": 102}, {"time": 955, "pitch": 70, "duration": 7, "velocity": 89}, {"time": 961, "pitch": 58, "duration": 7, "velocity": 90}, {"time": 967, "pitch": 43, "duration": 38, "velocity": 93}, {"time": 973, "pitch": 62, "duration": 4, "velocity": 93}, {"time": 973, "pitch": 67, "duration": 4, "velocity": 88}, {"time": 985, "pitch": 62, "duration": 14, "velocity": 94}, {"time": 985, "pitch": 67, "duration": 14, "velocity": 91}, {"time": 997, "pitch": 50, "duration": 8, "velocity": 77}, {"time": 1003, "pitch": 62, "duration": 11, "velocity": 99}, {"time": 1003, "pitch": 67, "duration": 12, "velocity": 95}, {"time": 1009, "pitch": 58, "duration": 6, "velocity": 90}, {"time": 1015, "pitch": 48, "duration": 14, "velocity": 88}, {"time": 1021, "pitch": 60, "duration": 4, "velocity": 88}, {"time": 1021, "pitch": 64, "duration": 4, "velocity": 88}, {"time": 1021, "pitch": 67, "duration": 4, "velocity": 88}, {"time": 1033, "pitch": 60, "duration": 15, "velocity": 87}, {"time": 1033, "pitch": 64, "duration": 14, "velocity": 83}, {"time": 1033, "pitch": 67, "duration": 15, "velocity": 78}, {"time": 1033, "pitch": 70, "duration": 14, "velocity": 88}, {"time": 1045, "pitch": 55, "duration": 8, "velocity": 80}, {"time": 1051, "pitch": 60, "duration": 5, "velocity": 89}, {"time": 1051, "pitch": 64, "duration": 12, "velocity": 88}, {"time": 1051, "pitch": 67, "duration": 12, "velocity": 82}, {"time": 1051, "pitch": 70, "duration": 5, "velocity": 88}, {"time": 1057, "pitch": 48, "duration": 3, "velocity": 89}, {"time": 1063, "pitch": 41, "duration": 43, "velocity": 91}, {"time": 1063, "pitch": 65, "duration": 9, "velocity": 92}, {"time": 1063, "pitch": 68, "duration": 9, "velocity": 87}, {"time": 1069, "pitch": 48, "duration": 21, "velocity": 79}, {"time": 1075, "pitch": 60, "duration": 3, "velocity": 90}, {"time": 1081, "pitch": 60, "duration": 16, "velocity": 95}, {"time": 1081, "pitch": 65, "duration": 15, "velocity": 102}, {"time": 1081, "pitch": 68, "duration": 15, "velocity": 89}, {"time": 1093, "pitch": 48, "duration": 13, "velocity": 80}, {"time": 1099, "pitch": 60, "duration": 2, "velocity": 88}, {"time": 1099, "pitch": 65, "duration": 11, "velocity": 97}, {"time": 1099, "pitch": 68, "duration": 13, "velocity": 91}, {"time": 1105, "pitch": 60, "duration": 6, "velocity": 87}, {"time": 1111, "pitch": 46, "duration": 44, "velocity": 89}, {"time": 1117, "pitch": 58, "duration": 6, "velocity": 91}, {"time": 1117, "pitch": 62, "duration": 6, "velocity": 84}, {"time": 1117, "pitch": 65, "duration": 6, "velocity": 90}, {"time": 1123, "pitch": 53, "duration": 6, "velocity": 49}, {"time": 1129, "pitch": 58, "duration": 15, "velocity": 93}, {"time": 1129, "pitch": 62, "duration": 14, "velocity": 99}, {"time": 1129, "pitch": 65, "duration": 15, "velocity": 95}, {"time": 1129, "pitch": 70, "duration": 14, "velocity": 89}, {"time": 1141, "pitch": 53, "duration": 10, "velocity": 85}, {"time": 1147, "pitch": 62, "duration": 11, "velocity": 97}, {"time": 1147, "pitch": 65, "duration": 12, "velocity": 93}, {"time": 1147, "pitch": 70, "duration": 12, "velocity": 88}, {"time": 1153, "pitch": 58, "duration": 5, "velocity": 99}, {"time": 1159, "pitch": 39, "duration": 42, "velocity": 92}, {"time": 1165, "pitch": 51, "duration": 7, "velocity": 88}, {"time": 1171, "pitch": 55, "duration": 12, "velocity": 95}, {"time": 1171, "pitch": 58, "duration": 13, "velocity": 90}, {"time": 1171, "pitch": 63, "duration": 13, "velocity": 90}, {"time": 1177, "pitch": 51, "duration": 6, "velocity": 94}, {"time": 1183, "pitch": 46, "duration": 18, "velocity": 77}, {"time": 1189, "pitch": 51, "duration": 8, "velocity": 89}, {"time": 1195, "pitch": 55, "duration": 11, "velocity": 102}, {"time": 1195, "pitch": 58, "duration": 11, "velocity": 95}, {"time": 1195, "pitch": 63, "duration": 13, "velocity": 91}, {"time": 1201, "pitch": 51, "duration": 5, "velocity": 89}, {"time": 1207, "pitch": 46, "duration": 41, "velocity": 86}, {"time": 1213, "pitch": 58, "duration": 3, "velocity": 72}, {"time": 1219, "pitch": 58, "duration": 4, "velocity": 90}, {"time": 1219, "pitch": 62, "duration": 14, "velocity": 99}, {"time": 1219, "pitch": 65, "duration": 20, "velocity": 92}, {"time": 1225, "pitch": 58, "duration": 8, "velocity": 85}, {"time": 1231, "pitch": 53, "duration": 21, "velocity": 88}, {"time": 1237, "pitch": 58, "duration": 4, "velocity": 88}, {"time": 1243, "pitch": 62, "duration": 9, "velocity": 104}, {"time": 1243, "pitch": 65, "duration": 11, "velocity": 95}, {"time": 1249, "pitch": 58, "duration": 5, "velocity": 88}, {"time": 1255, "pitch": 48, "duration": 21, "velocity": 89}, {"time": 1261, "pitch": 60, "duration": 3, "velocity": 88}, {"time": 1267, "pitch": 60, "duration": 3, "velocity": 91}, {"time": 1267, "pitch": 63, "duration": 15, "velocity": 93}, {"time": 1267, "pitch": 67, "duration": 18, "velocity": 90}, {"time": 1273, "pitch": 60, "duration": 8, "velocity": 89}, {"time": 1279, "pitch": 55, "duration": 14, "velocity": 76}, {"time": 1285, "pitch": 60, "duration": 4, "velocity": 89}, {"time": 1291, "pitch": 60, "duration": 1, "velocity": 73}, {"time": 1291, "pitch": 63, "duration": 10, "velocity": 95}, {"time": 1291, "pitch": 67, "duration": 10, "velocity": 97}, {"time": 1297, "pitch": 60, "duration": 6, "velocity": 88}, {"time": 1303, "pitch": 43, "duration": 33, "velocity": 92}, {"time": 1309, "pitch": 58, "duration": 7, "velocity": 84}, {"time": 1315, "pitch": 62, "duration": 13, "velocity": 93}, {"time": 1315, "pitch": 67, "duration": 14, "velocity": 90}, {"time": 1321, "pitch": 58, "duration": 8, "velocity": 88}, {"time": 1327, "pitch": 50, "duration": 10, "velocity": 70}, {"time": 1333, "pitch": 58, "duration": 3, "velocity": 86}, {"time": 1339, "pitch": 62, "duration": 10, "velocity": 99}, {"time": 1339, "pitch": 67, "duration": 10, "velocity": 89}, {"time": 1345, "pitch": 58, "duration": 5, "velocity": 89}, {"time": 1351, "pitch": 44, "duration": 36, "velocity": 89}, {"time": 1357, "pitch": 56, "duration": 8, "velocity": 80}, {"time": 1363, "pitch": 60, "duration": 11, "velocity": 91}, {"time": 1363, "pitch": 63, "duration": 11, "velocity": 92}, {"time": 1369, "pitch": 56, "duration": 6, "velocity": 90}, {"time": 1375, "pitch": 51, "duration": 14, "velocity": 82}, {"time": 1381, "pitch": 56, "duration": 5, "velocity": 84}, {"time": 1387, "pitch": 60, "duration": 10, "velocity": 94}, {"time": 1387, "pitch": 63, "duration": 10, "velocity": 92}, {"time": 1387, "pitch": 68, "duration": 9, "velocity": 86}, {"time": 1393, "pitch": 56, "duration": 5, "velocity": 89}, {"time": 1399, "pitch": 39, "duration": 44, "velocity": 91}, {"time": 1405, "pitch": 51, "duration": 8, "velocity": 89}, {"time": 1411, "pitch": 55, "duration": 19, "velocity": 90}, {"time": 1411, "pitch": 58, "duration": 20, "velocity": 90}, {"time": 1411, "pitch": 63, "duration": 20, "velocity": 90}, {"time": 1417, "pitch": 51, "duration": 9, "velocity": 84}, {"time": 1423, "pitch": 46, "duration": 20, "velocity": 80}, {"time": 1429, "pitch": 51, "duration": 8, "velocity": 87}, {"time": 1435, "pitch": 55, "duration": 9, "velocity": 89}, {"time": 1435, "pitch": 58, "duration": 11, "velocity": 90}, {"time": 1435, "pitch": 63, "duration": 14, "velocity": 88}, {"time": 1441, "pitch": 51, "duration": 5, "velocity": 88}, {"time": 1447, "pitch": 41, "duration": 44, "velocity": 91}, {"time": 1453, "pitch": 53, "duration": 7, "velocity": 87}, {"time": 1459, "pitch": 56, "duration": 9, "velocity": 90}, {"time": 1459, "pitch": 60, "duration": 10, "velocity": 90}, {"time": 1465, "pitch": 53, "duration": 8, "velocity": 89}, {"time": 1471, "pitch": 48, "duration": 21, "velocity": 79}, {"time": 1477, "pitch": 53, "duration": 8, "velocity": 91}, {"time": 1483, "pitch": 56, "duration": 12, "velocity": 102}, {"time": 1483, "pitch": 60, "duration": 13, "velocity": 93}, {"time": 1483, "pitch": 65, "duration": 15, "velocity": 91}, {"time": 1489, "pitch": 53, "duration": 6, "velocity": 89}, {"time": 1495, "pitch": 46, "duration": 43, "velocity": 86}, {"time": 1501, "pitch": 58, "duration": 5, "velocity": 88}, {"time": 1507, "pitch": 58, "duration": 4, "velocity": 91}, {"time": 1507, "pitch": 62, "duration": 7, "velocity": 91}, {"time": 1507, "pitch": 65, "duration": 7, "velocity": 92}, {"time": 1513, "pitch": 53, "duration": 9, "velocity": 86}, {"time": 1519, "pitch": 58, "duration": 7, "velocity": 95}, {"time": 1519, "pitch": 62, "duration": 7, "velocity": 97}, {"time": 1519, "pitch": 70, "duration": 7, "velocity": 88}, {"time": 1525, "pitch": 53, "duration": 8, "velocity": 89}, {"time": 1531, "pitch": 58, "duration": 5, "velocity": 91}, {"time": 1531, "pitch": 62, "duration": 10, "velocity": 94}, {"time": 1531, "pitch": 65, "duration": 10, "velocity": 92}, {"time": 1537, "pitch": 53, "duration": 6, "velocity": 91}, {"time": 1543, "pitch": 39, "duration": 42, "velocity": 92}, {"time": 1549, "pitch": 51, "duration": 7, "velocity": 88}, {"time": 1555, "pitch": 55, "duration": 12, "velocity": 95}, {"time": 1555, "pitch": 58, "duration": 13, "velocity": 90}, {"time": 1555, "pitch": 63, "duration": 13, "velocity": 90}, {"time": 1561, "pitch": 51, "duration": 6, "velocity": 94}, {"time": 1567, "pitch": 46, "duration": 18, "velocity": 77}, {"time": 1573, "pitch": 51, "duration": 8, "velocity": 89}, {"time": 1579, "pitch": 55, "duration": 11, "velocity": 102}, {"time": 1579, "pitch": 58, "duration": 11, "velocity": 95}, {"time": 1579, "pitch": 63, "duration": 13, "velocity": 91}, {"time": 1585, "pitch": 51, "duration": 5, "velocity": 89}, {"time": 1591, "pitch": 46, "duration": 41, "velocity": 86}, {"time": 1597, "pitch": 58, "duration": 3, "velocity": 72}, {"time": 1603, "pitch": 58, "duration": 4, "velocity": 90}, {"time": 1603, "pitch": 62, "duration": 14, "velocity": 99}, {"time": 1603, "pitch": 65, "duration": 20, "velocity": 92}, {"time": 1609, "pitch": 58, "duration": 8, "velocity": 85}, {"time": 1615, "pitch": 53, "duration": 21, "velocity": 88}, {"time": 1621, "pitch": 58, "duration": 4, "velocity": 88}, {"time": 1627, "pitch": 62, "duration": 9, "velocity": 104}, {"time": 1627, "pitch": 65, "duration": 11, "velocity": 95}, {"time": 1633, "pitch": 58, "duration": 5, "velocity": 88}, {"time": 1639, "pitch": 48, "duration": 21, "velocity": 89}, {"time": 1645, "pitch": 60, "duration": 3, "velocity": 88}, {"time": 1651, "pitch": 60, "duration": 3, "velocity": 91}, {"time": 1651, "pitch": 63, "duration": 15, "velocity": 93}, {"time": 1651, "pitch": 67, "duration": 18, "velocity": 90}, {"time": 1657, "pitch": 60, "duration": 8, "velocity": 89}, {"time": 1663, "pitch": 55, "duration": 14, "velocity": 76}, {"time": 1669, "pitch": 60, "duration": 4, "velocity": 89}, {"time": 1675, "pitch": 60, "duration": 1, "velocity": 73}, {"time": 1675, "pitch": 63, "duration": 10, "velocity": 95}, {"time": 1675, "pitch": 67, "duration": 10, "velocity": 97}, {"time": 1681, "pitch": 60, "duration": 6, "velocity": 88}, {"time": 1687, "pitch": 43, "duration": 33, "velocity": 92}, {"time": 1693, "pitch": 58, "duration": 7, "velocity": 84}, {"time": 1699, "pitch": 62, "duration": 13, "velocity": 93}, {"time": 1699, "pitch": 67, "duration": 14, "velocity": 90}, {"time": 1705, "pitch": 58, "duration": 8, "velocity": 88}, {"time": 1711, "pitch": 50, "duration": 10, "velocity": 70}, {"time": 1717, "pitch": 58, "duration": 3, "velocity": 86}, {"time": 1723, "pitch": 62, "duration": 10, "velocity": 99}, {"time": 1723, "pitch": 67, "duration": 10, "velocity": 89}, {"time": 1729, "pitch": 58, "duration": 5, "velocity": 89}, {"time": 1735, "pitch": 44, "duration": 36, "velocity": 89}, {"time": 1741, "pitch": 56, "duration": 8, "velocity": 80}, {"time": 1747, "pitch": 60, "duration": 11, "velocity": 91}, {"time": 1747, "pitch": 63, "duration": 11, "velocity": 92}, {"time": 1753, "pitch": 56, "duration": 6, "velocity": 90}, {"time": 1759, "pitch": 51, "duration": 14, "velocity": 82}, {"time": 1765, "pitch": 56, "duration": 5, "velocity": 84}, {"time": 1771, "pitch": 60, "duration": 10, "velocity": 94}, {"time": 1771, "pitch": 63, "duration": 10, "velocity": 92}, {"time": 1771, "pitch": 68, "duration": 9, "velocity": 86}, {"time": 1777, "pitch": 56, "duration": 5, "velocity": 89}, {"time": 1783, "pitch": 39, "duration": 44, "velocity": 91}, {"time": 1789, "pitch": 51, "duration": 8, "velocity": 89}, {"time": 1795, "pitch": 55, "duration": 19, "velocity": 90}, {"time": 1795, "pitch": 58, "duration": 20, "velocity": 90}, {"time": 1795, "pitch": 63, "duration": 20, "velocity": 90}, {"time": 1801, "pitch": 51, "duration": 9, "velocity": 84}, {"time": 1807, "pitch": 46, "duration": 20, "velocity": 80}, {"time": 1813, "pitch": 51, "duration": 8, "velocity": 87}, {"time": 1819, "pitch": 55, "duration": 9, "velocity": 89}, {"time": 1819, "pitch": 58, "duration": 11, "velocity": 90}, {"time": 1819, "pitch": 63, "duration": 14, "velocity": 88}, {"time": 1825, "pitch": 51, "duration": 5, "velocity": 88}, {"time": 1831, "pitch": 41, "duration": 44, "velocity": 91}, {"time": 1837, "pitch": 53, "duration": 7, "velocity": 87}, {"time": 1843, "pitch": 56, "duration": 9, "velocity": 90}, {"time": 1843, "pitch": 60, "duration": 10, "velocity": 90}, {"time": 1849, "pitch": 53, "duration": 8, "velocity": 89}, {"time": 1855, "pitch": 48, "duration": 21, "velocity": 79}, {"time": 1861, "pitch": 53, "duration": 8, "velocity": 91}, {"time": 1867, "pitch": 56, "duration": 12, "velocity": 102}, {"time": 1867, "pitch": 60, "duration": 13, "velocity": 93}, {"time": 1867, "pitch": 65, "duration": 15, "velocity": 91}, {"time": 1873, "pitch": 53, "duration": 6, "velocity": 89}, {"time": 1879, "pitch": 46, "duration": 43, "velocity": 86}, {"time": 1885, "pitch": 58, "duration": 5, "velocity": 88}, {"time": 1891, "pitch": 58, "duration": 4, "velocity": 91}, {"time": 1891, "pitch": 62, "duration": 7, "velocity": 91}, {"time": 1891, "pitch": 65, "duration": 7, "velocity": 92}, {"time": 1897, "pitch": 53, "duration": 9, "velocity": 86}, {"time": 1903, "pitch": 58, "duration": 7, "velocity": 95}, {"time": 1903, "pitch": 62, "duration": 7, "velocity": 97}, {"time": 1903, "pitch": 70, "duration": 7, "velocity": 88}, {"time": 1909, "pitch": 53, "duration": 8, "velocity": 89}, {"time": 1915, "pitch": 58, "duration": 5, "velocity": 91}, {"time": 1915, "pitch": 62, "duration": 10, "velocity": 94}, {"time": 1915, "pitch": 65, "duration": 10, "velocity": 92}, {"time": 1921, "pitch": 53, "duration": 6, "velocity": 91}, {"time": 1927, "pitch": 44, "duration": 23, "velocity": 89}, {"time": 1927, "pitch": 56, "duration": 10, "velocity": 88}, {"time": 1927, "pitch": 63, "duration": 10, "velocity": 88}, {"time": 1939, "pitch": 56, "duration": 14, "velocity": 91}, {"time": 1939, "pitch": 60, "duration": 14, "velocity": 99}, {"time": 1939, "pitch": 63, "duration": 15, "velocity": 92}, {"time": 1951, "pitch": 51, "duration": 14, "velocity": 78}, {"time": 1957, "pitch": 56, "duration": 3, "velocity": 94}, {"time": 1963, "pitch": 56, "duration": 2, "velocity": 97}, {"time": 1963, "pitch": 60, "duration": 5, "velocity": 99}, {"time": 1963, "pitch": 63, "duration": 13, "velocity": 99}, {"time": 1969, "pitch": 56, "duration": 6, "velocity": 90}, {"time": 1969, "pitch": 60, "duration": 6, "velocity": 70}, {"time": 1975, "pitch": 46, "duration": 19, "velocity": 92}, {"time": 1981, "pitch": 58, "duration": 3, "velocity": 78}, {"time": 1987, "pitch": 58, "duration": 14, "velocity": 95}, {"time": 1987, "pitch": 62, "duration": 15, "velocity": 99}, {"time": 1987, "pitch": 65, "duration": 15, "velocity": 97}, {"time": 1999, "pitch": 53, "duration": 17, "velocity": 86}, {"time": 2005, "pitch": 58, "duration": 4, "velocity": 89}, {"time": 2011, "pitch": 58, "duration": 2, "velocity": 87}, {"time": 2011, "pitch": 62, "duration": 6, "velocity": 94}, {"time": 2011, "pitch": 65, "duration": 7, "velocity": 95}, {"time": 2011, "pitch": 70, "duration": 11, "velocity": 89}, {"time": 2017, "pitch": 58, "duration": 1, "velocity": 81}, {"time": 2023, "pitch": 48, "duration": 46, "velocity": 92}, {"time": 2023, "pitch": 60, "duration": 9, "velocity": 88}, {"time": 2023, "pitch": 63, "duration": 9, "velocity": 87}, {"time": 2023, "pitch": 70, "duration": 1, "velocity": 78}, {"time": 2035, "pitch": 60, "duration": 9, "velocity": 93}, {"time": 2035, "pitch": 63, "duration": 16, "velocity": 94}, {"time": 2035, "pitch": 67, "duration": 7, "velocity": 94}, {"time": 2047, "pitch": 55, "duration": 9, "velocity": 53}, {"time": 2053, "pitch": 60, "duration": 6, "velocity": 97}, {"time": 2053, "pitch": 63, "duration": 7, "velocity": 95}, {"time": 2053, "pitch": 67, "duration": 7, "velocity": 95}, {"time": 2053, "pitch": 72, "duration": 6, "velocity": 93}, {"time": 2059, "pitch": 55, "duration": 10, "velocity": 72}, {"time": 2065, "pitch": 60, "duration": 5, "velocity": 83}, {"time": 2071, "pitch": 48, "duration": 40, "velocity": 93}, {"time": 2071, "pitch": 60, "duration": 9, "velocity": 89}, {"time": 2071, "pitch": 63, "duration": 9, "velocity": 89}, {"time": 2071, "pitch": 67, "duration": 9, "velocity": 80}, {"time": 2083, "pitch": 60, "duration": 5, "velocity": 92}, {"time": 2083, "pitch": 63, "duration": 5, "velocity": 91}, {"time": 2083, "pitch": 67, "duration": 4, "velocity": 88}, {"time": 2083, "pitch": 72, "duration": 5, "velocity": 91}, {"time": 2089, "pitch": 60, "duration": 3, "velocity": 92}, {"time": 2089, "pitch": 72, "duration": 3, "velocity": 88}, {"time": 2095, "pitch": 55, "duration": 8, "velocity": 78}, {"time": 2101, "pitch": 60, "duration": 8, "velocity": 92}, {"time": 2101, "pitch": 63, "duration": 8, "velocity": 93}, {"time": 2101, "pitch": 67, "duration": 9, "velocity": 88}, {"time": 2107, "pitch": 55, "duration": 3, "velocity": 74}, {"time": 2113, "pitch": 60, "duration": 3, "velocity": 99}, {"time": 2119, "pitch": 44, "duration": 46, "velocity": 89}, {"time": 2119, "pitch": 56, "duration": 9, "velocity": 90}, {"time": 2119, "pitch": 60, "duration": 9, "velocity": 90}, {"time": 2131, "pitch": 56, "duration": 3, "velocity": 94}, {"time": 2131, "pitch": 60, "duration": 3, "velocity": 95}, {"time": 2131, "pitch": 63, "duration": 3, "velocity": 93}, {"time": 2137, "pitch": 56, "duration": 3, "velocity": 90}, {"time": 2137, "pitch": 63, "duration": 3, "velocity": 88}, {"time": 2149, "pitch": 56, "duration": 8, "velocity": 94}, {"time": 2149, "pitch": 68, "duration": 4, "velocity": 89}, {"time": 2155, "pitch": 51, "duration": 10, "velocity": 74}, {"time": 2161, "pitch": 56, "duration": 2, "velocity": 87}, {"time": 2161, "pitch": 60, "duration": 2, "velocity": 93}, {"time": 2161, "pitch": 63, "duration": 3, "velocity": 89}, {"time": 2167, "pitch": 46, "duration": 43, "velocity": 90}, {"time": 2167, "pitch": 58, "duration": 9, "velocity": 83}, {"time": 2167, "pitch": 62, "duration": 10, "velocity": 89}, {"time": 2179, "pitch": 58, "duration": 5, "velocity": 90}, {"time": 2179, "pitch": 62, "duration": 4, "velocity": 97}, {"time": 2179, "pitch": 65, "duration": 5, "velocity": 94}, {"time": 2185, "pitch": 58, "duration": 3, "velocity": 94}, {"time": 2185, "pitch": 70, "duration": 3, "velocity": 88}, {"time": 2191, "pitch": 53, "duration": 8, "velocity": 69}, {"time": 2197, "pitch": 58, "duration": 8, "velocity": 90}, {"time": 2197, "pitch": 62, "duration": 7, "velocity": 97}, {"time": 2197, "pitch": 65, "duration": 9, "velocity": 94}, {"time": 2203, "pitch": 53, "duration": 7, "velocity": 90}, {"time": 2209, "pitch": 58, "duration": 4, "velocity": 94}, {"time": 2215, "pitch": 51, "duration": 39, "velocity": 90}, {"time": 2215, "pitch": 58, "duration": 6, "velocity": 91}, {"time": 2215, "pitch": 63, "duration": 9, "velocity": 89}, {"time": 2227, "pitch": 58, "duration": 4, "velocity": 91}, {"time": 2227, "pitch": 63, "duration": 4, "velocity": 95}, {"time": 2227, "pitch": 67, "duration": 4, "velocity": 99}, {"time": 2233, "pitch": 58, "duration": 2, "velocity": 80}, {"time": 2233, "pitch": 63, "duration": 3, "velocity": 89}, {"time": 2233, "pitch": 67, "duration": 3, "velocity": 91}, {"time": 2245, "pitch": 58, "duration": 3, "velocity": 93}, {"time": 2251, "pitch": 58, "duration": 1, "velocity": 84}, {"time": 2251, "pitch": 63, "duration": 9, "velocity": 99}, {"time": 2251, "pitch": 67, "duration": 8, "velocity": 97}, {"time": 2257, "pitch": 58, "duration": 4, "velocity": 88}, {"time": 2263, "pitch": 51, "duration": 40, "velocity": 92}, {"time": 2263, "pitch": 58, "duration": 6, "velocity": 86}, {"time": 2263, "pitch": 63, "duration": 7, "velocity": 88}, {"time": 2263, "pitch": 67, "duration": 8, "velocity": 85}, {"time": 2275, "pitch": 63, "duration": 4, "velocity": 91}, {"time": 2275, "pitch": 67, "duration": 4, "velocity": 92}, {"time": 2281, "pitch": 63, "duration": 2, "velocity": 88}, {"time": 2281, "pitch": 67, "duration": 2, "velocity": 86}, {"time": 2281, "pitch": 70, "duration": 3, "velocity": 88}, {"time": 2293, "pitch": 63, "duration": 3, "velocity": 89}, {"time": 2293, "pitch": 75, "duration": 3, "velocity": 94}, {"time": 2311, "pitch": 51, "duration": 36, "velocity": 89}, {"time": 2317, "pitch": 63, "duration": 4, "velocity": 88}, {"time": 2317, "pitch": 67, "duration": 4, "velocity": 94}, {"time": 2317, "pitch": 70, "duration": 4, "velocity": 89}, {"time": 2329, "pitch": 63, "duration": 13, "velocity": 89}, {"time": 2329, "pitch": 67, "duration": 14, "velocity": 92}, {"time": 2329, "pitch": 70, "duration": 14, "velocity": 89}, {"time": 2341, "pitch": 58, "duration": 6, "velocity": 69}, {"time": 2347, "pitch": 63, "duration": 13, "velocity": 91}, {"time": 2347, "pitch": 67, "duration": 12, "velocity": 97}, {"time": 2347, "pitch": 70, "duration": 23, "velocity": 90}, {"time": 2353, "pitch": 46, "duration": 3, "velocity": 89}, {"time": 2359, "pitch": 48, "duration": 20, "velocity": 90}, {"time": 2365, "pitch": 60, "duration": 6, "velocity": 83}, {"time": 2365, "pitch": 63, "duration": 6, "velocity": 87}, {"time": 2365, "pitch": 67, "duration": 6, "velocity": 81}, {"time": 2377, "pitch": 60, "duration": 16, "velocity": 89}, {"time": 2377, "pitch": 63, "duration": 16, "velocity": 89}, {"time": 2377, "pitch": 67, "duration": 16, "velocity": 83}, {"time": 2377, "pitch": 70, "duration": 16, "velocity": 88}, {"time": 2389, "pitch": 55, "duration": 9, "velocity": 74}, {"time": 2395, "pitch": 60, "duration": 3, "velocity": 89}, {"time": 2395, "pitch": 63, "duration": 9, "velocity": 91}, {"time": 2395, "pitch": 67, "duration": 10, "velocity": 89}, {"time": 2395, "pitch": 70, "duration": 12, "velocity": 88}, {"time": 2401, "pitch": 60, "duration": 9, "velocity": 93}, {"time": 2407, "pitch": 41, "duration": 16, "velocity": 90}, {"time": 2413, "pitch": 60, "duration": 4, "velocity": 94}, {"time": 2413, "pitch": 65, "duration": 5, "velocity": 90}, {"time": 2413, "pitch": 68, "duration": 5, "velocity": 88}, {"time": 2425, "pitch": 60, "duration": 15, "velocity": 94}, {"time": 2425, "pitch": 65, "duration": 15, "velocity": 99}, {"time": 2425, "pitch": 68, "duration": 15, "velocity": 90}, {"time": 2437, "pitch": 41, "duration": 12, "velocity": 89}, {"time": 2443, "pitch": 60, "duration": 3, "velocity": 93}, {"time": 2443, "pitch": 65, "duration": 10, "velocity": 97}, {"time": 2443, "pitch": 68, "duration": 13, "velocity": 90}, {"time": 2449, "pitch": 60, "duration": 6, "velocity": 90}, {"time": 2455, "pitch": 46, "duration": 11, "velocity": 88}, {"time": 2461, "pitch": 58, "duration": 5, "velocity": 84}, {"time": 2461, "pitch": 62, "duration": 4, "velocity": 80}, {"time": 2461, "pitch": 65, "duration": 5, "velocity": 88}, {"time": 2473, "pitch": 58, "duration": 15, "velocity": 89}, {"time": 2473, "pitch": 62, "duration": 15, "velocity": 92}, {"time": 2473, "pitch": 65, "duration": 15, "velocity": 91}, {"time": 2473, "pitch": 70, "duration": 14, "velocity": 88}, {"time": 2485, "pitch": 46, "duration": 2, "velocity": 56}, {"time": 2485, "pitch": 53, "duration": 8, "velocity": 83}, {"time": 2491, "pitch": 58, "duration": 2, "velocity": 89}, {"time": 2491, "pitch": 62, "duration": 9, "velocity": 102}, {"time": 2491, "pitch": 65, "duration": 7, "velocity": 102}, {"time": 2491, "pitch": 70, "duration": 7, "velocity": 89}, {"time": 2497, "pitch": 58, "duration": 7, "velocity": 90}, {"time": 2503, "pitch": 43, "duration": 38, "velocity": 93}, {"time": 2509, "pitch": 62, "duration": 4, "velocity": 93}, {"time": 2509, "pitch": 67, "duration": 4, "velocity": 88}, {"time": 2521, "pitch": 62, "duration": 14, "velocity": 94}, {"time": 2521, "pitch": 67, "duration": 14, "velocity": 91}, {"time": 2533, "pitch": 50, "duration": 8, "velocity": 77}, {"time": 2539, "pitch": 62, "duration": 11, "velocity": 99}, {"time": 2539, "pitch": 67, "duration": 12, "velocity": 95}, {"time": 2545, "pitch": 58, "duration": 6, "velocity": 90}, {"time": 2551, "pitch": 48, "duration": 14, "velocity": 88}, {"time": 2557, "pitch": 60, "duration": 4, "velocity": 88}, {"time": 2557, "pitch": 64, "duration": 4, "velocity": 88}, {"time": 2557, "pitch": 67, "duration": 4, "velocity": 88}, {"time": 2569, "pitch": 60, "duration": 15, "velocity": 87}, {"time": 2569, "pitch": 64, "duration": 14, "velocity": 83}, {"time": 2569, "pitch": 67, "duration": 15, "velocity": 78}, {"time": 2569, "pitch": 70, "duration": 14, "velocity": 88}, {"time": 2581, "pitch": 55, "duration": 8, "velocity": 80}, {"time": 2587, "pitch": 60, "duration": 5, "velocity": 89}, {"time": 2587, "pitch": 64, "duration": 12, "velocity": 88}, {"time": 2587, "pitch": 67, "duration": 12, "velocity": 82}, {"time": 2587, "pitch": 70, "duration": 5, "velocity": 88}, {"time": 2593, "pitch": 48, "duration": 3, "velocity": 89}, {"time": 2599, "pitch": 41, "duration": 43, "velocity": 91}, {"time": 2599, "pitch": 65, "duration": 9, "velocity": 92}, {"time": 2599, "pitch": 68, "duration": 9, "velocity": 87}, {"time": 2605, "pitch": 48, "duration": 21, "velocity": 79}, {"time": 2611, "pitch": 60, "duration": 3, "velocity": 90}, {"time": 2617, "pitch": 60, "duration": 16, "velocity": 95}, {"time": 2617, "pitch": 65, "duration": 15, "velocity": 102}, {"time": 2617, "pitch": 68, "duration": 15, "velocity": 89}, {"time": 2629, "pitch": 48, "duration": 13, "velocity": 80}, {"time": 2635, "pitch": 60, "duration": 2, "velocity": 88}, {"time": 2635, "pitch": 65, "duration": 11, "velocity": 97}, {"time": 2635, "pitch": 68, "duration": 13, "velocity": 91}, {"time": 2641, "pitch": 60, "duration": 6, "velocity": 87}, {"time": 2647, "pitch": 46, "duration": 44, "velocity": 89}, {"time": 2653, "pitch": 58, "duration": 6, "velocity": 91}, {"time": 2653, "pitch": 62, "duration": 6, "velocity": 84}, {"time": 2653, "pitch": 65, "duration": 6, "velocity": 90}, {"time": 2659, "pitch": 53, "duration": 6, "velocity": 49}, {"time": 2665, "pitch": 58, "duration": 15, "velocity": 93}, {"time": 2665, "pitch": 62, "duration": 14, "velocity": 99}, {"time": 2665, "pitch": 65, "duration": 15, "velocity": 95}, {"time": 2665, "pitch": 70, "duration": 14, "velocity": 89}, {"time": 2677, "pitch": 53, "duration": 10, "velocity": 85}, {"time": 2683, "pitch": 62, "duration": 11, "velocity": 97}, {"time": 2683, "pitch": 65, "duration": 12, "velocity": 93}, {"time": 2683, "pitch": 70, "duration": 12, "velocity": 88}, {"time": 2689, "pitch": 58, "duration": 5, "velocity": 99}, {"time": 2692, "pitch": 56, "duration": 7, "velocity": 77}, {"time": 2694, "pitch": 60, "duration": 11, "velocity": 88}, {"time": 2695, "pitch": 44, "duration": 38, "velocity": 93}, {"time": 2695, "pitch": 63, "duration": 11, "velocity": 81}, {"time": 2700, "pitch": 51, "duration": 31, "velocity": 81}, {"time": 2706, "pitch": 56, "duration": 3, "velocity": 79}, {"time": 2712, "pitch": 60, "duration": 6, "velocity": 90}, {"time": 2712, "pitch": 63, "duration": 7, "velocity": 88}, {"time": 2712, "pitch": 56, "duration": 6, "velocity": 89}, {"time": 2740, "pitch": 58, "duration": 4, "velocity": 78}, {"time": 2741, "pitch": 62, "duration": 4, "velocity": 77}, {"time": 2743, "pitch": 46, "duration": 29, "velocity": 92}, {"time": 2743, "pitch": 65, "duration": 5, "velocity": 87}, {"time": 2743, "pitch": 70, "duration": 6, "velocity": 88}, {"time": 2749, "pitch": 53, "duration": 21, "velocity": 77}, {"time": 2754, "pitch": 58, "duration": 2, "velocity": 87}, {"time": 2760, "pitch": 62, "duration": 12, "velocity": 95}, {"time": 2760, "pitch": 58, "duration": 12, "velocity": 90}, {"time": 2760, "pitch": 65, "duration": 12, "velocity": 94}, {"time": 2788, "pitch": 55, "duration": 3, "velocity": 76}, {"time": 2789, "pitch": 59, "duration": 3, "velocity": 82}, {"time": 2791, "pitch": 62, "duration": 2, "velocity": 82}, {"time": 2791, "pitch": 43, "duration": 23, "velocity": 89}, {"time": 2791, "pitch": 67, "duration": 7, "velocity": 84}, {"time": 2796, "pitch": 50, "duration": 18, "velocity": 74}, {"time": 2802, "pitch": 55, "duration": 4, "velocity": 84}, {"time": 2809, "pitch": 59, "duration": 17, "velocity": 88}, {"time": 2809, "pitch": 62, "duration": 18, "velocity": 89}, {"time": 2809, "pitch": 55, "duration": 17, "velocity": 95}, {"time": 2839, "pitch": 60, "duration": 6, "velocity": 88}, {"time": 2839, "pitch": 63, "duration": 9, "velocity": 88}, {"time": 2839, "pitch": 48, "duration": 33, "velocity": 90}, {"time": 2845, "pitch": 55, "duration": 14, "velocity": 85}, {"time": 2850, "pitch": 60, "duration": 4, "velocity": 89}, {"time": 2856, "pitch": 67, "duration": 8, "velocity": 89}, {"time": 2857, "pitch": 60, "duration": 9, "velocity": 91}, {"time": 2862, "pitch": 55, "duration": 8, "velocity": 78}, {"time": 2869, "pitch": 67, "duration": 14, "velocity": 89}, {"time": 2869, "pitch": 63, "duration": 9, "velocity": 93}, {"time": 2869, "pitch": 72, "duration": 8, "velocity": 90}, {"time": 2869, "pitch": 60, "duration": 4, "velocity": 89}, {"time": 2881, "pitch": 63, "duration": 2, "velocity": 47}, {"time": 2881, "pitch": 60, "duration": 7, "velocity": 102}, {"time": 2886, "pitch": 44, "duration": 38, "velocity": 90}, {"time": 2892, "pitch": 51, "duration": 28, "velocity": 80}, {"time": 2898, "pitch": 56, "duration": 3, "velocity": 91}, {"time": 2904, "pitch": 63, "duration": 5, "velocity": 89}, {"time": 2904, "pitch": 56, "duration": 6, "velocity": 90}, {"time": 2904, "pitch": 60, "duration": 4, "velocity": 92}, {"time": 2916, "pitch": 56, "duration": 2, "velocity": 94}, {"time": 2916, "pitch": 68, "duration": 3, "velocity": 89}, {"time": 2931, "pitch": 63, "duration": 3, "velocity": 75}, {"time": 2933, "pitch": 68, "duration": 3, "velocity": 84}, {"time": 2935, "pitch": 44, "duration": 32, "velocity": 90}, {"time": 2935, "pitch": 72, "duration": 4, "velocity": 90}, {"time": 2940, "pitch": 51, "duration": 15, "velocity": 78}, {"time": 2946, "pitch": 63, "duration": 2, "velocity": 89}, {"time": 2952, "pitch": 68, "duration": 7, "velocity": 95}, {"time": 2952, "pitch": 63, "duration": 7, "velocity": 95}, {"time": 2958, "pitch": 51, "duration": 9, "velocity": 83}, {"time": 2965, "pitch": 68, "duration": 2, "velocity": 99}, {"time": 2965, "pitch": 63, "duration": 2, "velocity": 99}, {"time": 2982, "pitch": 58, "duration": 8, "velocity": 83}, {"time": 2982, "pitch": 62, "duration": 8, "velocity": 90}, {"time": 2983, "pitch": 65, "duration": 10, "velocity": 90}, {"time": 2983, "pitch": 46, "duration": 37, "velocity": 90}, {"time": 2989, "pitch": 53, "duration": 14, "velocity": 81}, {"time": 2994, "pitch": 58, "duration": 4, "velocity": 86}, {"time": 3000, "pitch": 62, "duration": 8, "velocity": 97}, {"time": 3000, "pitch": 65, "duration": 8, "velocity": 94}, {"time": 3001, "pitch": 70, "duration": 6, "velocity": 88}, {"time": 3001, "pitch": 58, "duration": 7, "velocity": 90}, {"time": 3006, "pitch": 53, "duration": 9, "velocity": 83}, {"time": 3012, "pitch": 70, "duration": 8, "velocity": 89}, {"time": 3012, "pitch": 62, "duration": 7, "velocity": 99}, {"time": 3013, "pitch": 65, "duration": 7, "velocity": 99}, {"time": 3013, "pitch": 58, "duration": 6, "velocity": 95}, {"time": 3018, "pitch": 53, "duration": 3, "velocity": 88}, {"time": 3025, "pitch": 58, "duration": 4, "velocity": 89}, {"time": 3031, "pitch": 62, "duration": 2, "velocity": 91}, {"time": 3031, "pitch": 70, "duration": 3, "velocity": 88}, {"time": 3031, "pitch": 65, "duration": 2, "velocity": 90}, {"time": 3031, "pitch": 53, "duration": 2, "velocity": 90}, {"time": 3031, "pitch": 58, "duration": 2, "velocity": 89}, {"time": 3031, "pitch": 46, "duration": 3, "velocity": 90}, {"time": 3036, "pitch": 62, "duration": 3, "velocity": 93}, {"time": 3036, "pitch": 65, "duration": 3, "velocity": 91}, {"time": 3037, "pitch": 58, "duration": 2, "velocity": 91}, {"time": 3037, "pitch": 70, "duration": 2, "velocity": 88}, {"time": 3037, "pitch": 53, "duration": 2, "velocity": 94}, {"time": 3037, "pitch": 46, "duration": 2, "velocity": 90}, {"time": 3042, "pitch": 65, "duration": 16, "velocity": 102}, {"time": 3042, "pitch": 62, "duration": 16, "velocity": 105}, {"time": 3042, "pitch": 70, "duration": 16, "velocity": 92}, {"time": 3043, "pitch": 46, "duration": 24, "velocity": 95}, {"time": 3043, "pitch": 58, "duration": 15, "velocity": 95}, {"time": 3043, "pitch": 53, "duration": 24, "velocity": 105}, {"time": 3066, "pitch": 95, "duration": 1, "velocity": 91}, {"time": 3067, "pitch": 93, "duration": 1, "velocity": 99}, {"time": 3068, "pitch": 91, "duration": 1, "velocity": 97}, {"time": 3068, "pitch": 90, "duration": 1, "velocity": 114}, {"time": 3068, "pitch": 92, "duration": 1, "velocity": 79}, {"time": 3068, "pitch": 89, "duration": 1, "velocity": 104}, {"time": 3068, "pitch": 87, "duration": 1, "velocity": 105}, {"time": 3068, "pitch": 85, "duration": 2, "velocity": 97}, {"time": 3069, "pitch": 84, "duration": 1, "velocity": 85}, {"time": 3069, "pitch": 82, "duration": 2, "velocity": 80}, {"time": 3070, "pitch": 80, "duration": 1, "velocity": 75}, {"time": 3070, "pitch": 78, "duration": 2, "velocity": 77}, {"time": 3071, "pitch": 77, "duration": 1, "velocity": 85}, {"time": 3071, "pitch": 75, "duration": 1, "velocity": 90}, {"time": 3072, "pitch": 73, "duration": 1, "velocity": 85}, {"time": 3072, "pitch": 72, "duration": 1, "velocity": 84}, {"time": 3073, "pitch": 70, "duration": 1, "velocity": 84}, {"time": 3073, "pitch": 68, "duration": 2, "velocity": 81}, {"time": 3074, "pitch": 66, "duration": 1, "velocity": 82}, {"time": 3075, "pitch": 65, "duration": 1, "velocity": 88}, {"time": 3075, "pitch": 63, "duration": 1, "velocity": 88}, {"time": 3076, "pitch": 61, "duration": 1, "velocity": 82}, {"time": 3079, "pitch": 39, "duration": 13, "velocity": 92}, {"time": 3079, "pitch": 58, "duration": 9, "velocity": 88}, {"time": 3079, "pitch": 63, "duration": 8, "velocity": 90}, {"time": 3079, "pitch": 67, "duration": 8, "velocity": 89}, {"time": 3091, "pitch": 58, "duration": 3, "velocity": 91}, {"time": 3091, "pitch": 63, "duration": 4, "velocity": 95}, {"time": 3091, "pitch": 67, "duration": 4, "velocity": 95}, {"time": 3100, "pitch": 58, "duration": 5, "velocity": 89}, {"time": 3100, "pitch": 63, "duration": 5, "velocity": 91}, {"time": 3100, "pitch": 67, "duration": 5, "velocity": 90}, {"time": 3103, "pitch": 39, "duration": 16, "velocity": 92}, {"time": 3109, "pitch": 58, "duration": 9, "velocity": 92}, {"time": 3109, "pitch": 63, "duration": 9, "velocity": 95}, {"time": 3109, "pitch": 67, "duration": 9, "velocity": 99}, {"time": 3121, "pitch": 58, "duration": 2, "velocity": 86}, {"time": 3121, "pitch": 63, "duration": 2, "velocity": 88}, {"time": 3121, "pitch": 67, "duration": 3, "velocity": 89}, {"time": 3127, "pitch": 46, "duration": 16, "velocity": 89}, {"time": 3127, "pitch": 58, "duration": 9, "velocity": 79}, {"time": 3127, "pitch": 62, "duration": 8, "velocity": 76}, {"time": 3127, "pitch": 65, "duration": 8, "velocity": 87}, {"time": 3139, "pitch": 58, "duration": 3, "velocity": 99}, {"time": 3139, "pitch": 62, "duration": 3, "velocity": 102}, {"time": 3139, "pitch": 65, "duration": 3, "velocity": 104}, {"time": 3148, "pitch": 58, "duration": 4, "velocity": 88}, {"time": 3148, "pitch": 62, "duration": 3, "velocity": 94}, {"time": 3148, "pitch": 65, "duration": 4, "velocity": 90}, {"time": 3148, "pitch": 70, "duration": 4, "velocity": 88}, {"time": 3151, "pitch": 53, "duration": 10, "velocity": 82}, {"time": 3157, "pitch": 58, "duration": 7, "velocity": 91}, {"time": 3157, "pitch": 62, "duration": 7, "velocity": 104}, {"time": 3157, "pitch": 65, "duration": 7, "velocity": 99}, {"time": 3157, "pitch": 70, "duration": 7, "velocity": 92}, {"time": 3163, "pitch": 46, "duration": 4, "velocity": 89}, {"time": 3169, "pitch": 58, "duration": 4, "velocity": 89}, {"time": 3169, "pitch": 65, "duration": 4, "velocity": 89}, {"time": 3175, "pitch": 48, "duration": 14, "velocity": 90}, {"time": 3175, "pitch": 60, "duration": 6, "velocity": 89}, {"time": 3175, "pitch": 63, "duration": 7, "velocity": 84}, {"time": 3187, "pitch": 60, "duration": 3, "velocity": 93}, {"time": 3187, "pitch": 63, "duration": 3, "velocity": 93}, {"time": 3187, "pitch": 67, "duration": 3, "velocity": 95}, {"time": 3196, "pitch": 60, "duration": 2, "velocity": 85}, {"time": 3196, "pitch": 63, "duration": 2, "velocity": 85}, {"time": 3196, "pitch": 67, "duration": 3, "velocity": 79}, {"time": 3199, "pitch": 55, "duration": 9, "velocity": 80}, {"time": 3205, "pitch": 60, "duration": 6, "velocity": 90}, {"time": 3205, "pitch": 63, "duration": 7, "velocity": 91}, {"time": 3205, "pitch": 67, "duration": 7, "velocity": 91}, {"time": 3211, "pitch": 48, "duration": 2, "velocity": 86}, {"time": 3217, "pitch": 60, "duration": 5, "velocity": 87}, {"time": 3223, "pitch": 46, "duration": 22, "velocity": 89}, {"time": 3223, "pitch": 58, "duration": 9, "velocity": 88}, {"time": 3223, "pitch": 62, "duration": 9, "velocity": 88}, {"time": 3223, "pitch": 65, "duration": 6, "velocity": 90}, {"time": 3235, "pitch": 58, "duration": 6, "velocity": 94}, {"time": 3235, "pitch": 62, "duration": 5, "velocity": 99}, {"time": 3235, "pitch": 65, "duration": 6, "velocity": 97}, {"time": 3244, "pitch": 58, "duration": 4, "velocity": 93}, {"time": 3244, "pitch": 62, "duration": 4, "velocity": 104}, {"time": 3244, "pitch": 65, "duration": 4, "velocity": 94}, {"time": 3244, "pitch": 70, "duration": 4, "velocity": 86}, {"time": 3247, "pitch": 53, "duration": 10, "velocity": 90}, {"time": 3253, "pitch": 58, "duration": 8, "velocity": 97}, {"time": 3253, "pitch": 62, "duration": 9, "velocity": 104}, {"time": 3253, "pitch": 65, "duration": 9, "velocity": 99}, {"time": 3259, "pitch": 46, "duration": 5, "velocity": 88}, {"time": 3265, "pitch": 58, "duration": 3, "velocity": 99}, {"time": 3271, "pitch": 44, "duration": 17, "velocity": 89}, {"time": 3271, "pitch": 56, "duration": 9, "velocity": 90}, {"time": 3271, "pitch": 60, "duration": 9, "velocity": 89}, {"time": 3283, "pitch": 56, "duration": 4, "velocity": 91}, {"time": 3283, "pitch": 60, "duration": 3, "velocity": 95}, {"time": 3283, "pitch": 63, "duration": 4, "velocity": 91}, {"time": 3292, "pitch": 56, "duration": 3, "velocity": 83}, {"time": 3292, "pitch": 60, "duration": 3, "velocity": 89}, {"time": 3292, "pitch": 63, "duration": 3, "velocity": 88}, {"time": 3292, "pitch": 68, "duration": 3, "velocity": 78}, {"time": 3295, "pitch": 51, "duration": 11, "velocity": 80}, {"time": 3301, "pitch": 56, "duration": 7, "velocity": 94}, {"time": 3301, "pitch": 60, "duration": 7, "velocity": 99}, {"time": 3301, "pitch": 63, "duration": 7, "velocity": 97}, {"time": 3301, "pitch": 68, "duration": 7, "velocity": 89}, {"time": 3307, "pitch": 44, "duration": 3, "velocity": 88}, {"time": 3313, "pitch": 56, "duration": 5, "velocity": 94}, {"time": 3313, "pitch": 60, "duration": 5, "velocity": 92}, {"time": 3313, "pitch": 63, "duration": 6, "velocity": 89}, {"time": 3313, "pitch": 68, "duration": 7, "velocity": 85}, {"time": 3319, "pitch": 39, "duration": 20, "velocity": 97}, {"time": 3331, "pitch": 58, "duration": 4, "velocity": 90}, {"time": 3331, "pitch": 63, "duration": 4, "velocity": 93}, {"time": 3331, "pitch": 67, "duration": 5, "velocity": 94}, {"time": 3340, "pitch": 58, "duration": 2, "velocity": 86}, {"time": 3340, "pitch": 63, "duration": 2, "velocity": 89}, {"time": 3340, "pitch": 67, "duration": 3, "velocity": 88}, {"time": 3343, "pitch": 39, "duration": 9, "velocity": 91}, {"time": 3349, "pitch": 58, "duration": 8, "velocity": 95}, {"time": 3349, "pitch": 63, "duration": 8, "velocity": 99}, {"time": 3349, "pitch": 67, "duration": 8, "velocity": 102}, {"time": 3355, "pitch": 39, "duration": 2, "velocity": 81}, {"time": 3361, "pitch": 58, "duration": 3, "velocity": 90}, {"time": 3361, "pitch": 63, "duration": 3, "velocity": 89}, {"time": 3367, "pitch": 44, "duration": 21, "velocity": 90}, {"time": 3367, "pitch": 56, "duration": 9, "velocity": 84}, {"time": 3367, "pitch": 60, "duration": 8, "velocity": 89}, {"time": 3367, "pitch": 63, "duration": 8, "velocity": 88}, {"time": 3379, "pitch": 56, "duration": 7, "velocity": 93}, {"time": 3379, "pitch": 60, "duration": 5, "velocity": 102}, {"time": 3379, "pitch": 63, "duration": 5, "velocity": 95}, {"time": 3379, "pitch": 68, "duration": 5, "velocity": 88}, {"time": 3388, "pitch": 56, "duration": 7, "velocity": 91}, {"time": 3388, "pitch": 60, "duration": 7, "velocity": 97}, {"time": 3388, "pitch": 63, "duration": 7, "velocity": 92}, {"time": 3388, "pitch": 68, "duration": 6, "velocity": 88}, {"time": 3391, "pitch": 51, "duration": 12, "velocity": 88}, {"time": 3397, "pitch": 56, "duration": 8, "velocity": 95}, {"time": 3397, "pitch": 60, "duration": 8, "velocity": 102}, {"time": 3397, "pitch": 63, "duration": 8, "velocity": 99}, {"time": 3397, "pitch": 68, "duration": 8, "velocity": 89}, {"time": 3403, "pitch": 44, "duration": 8, "velocity": 89}, {"time": 3409, "pitch": 56, "duration": 3, "velocity": 91}, {"time": 3409, "pitch": 60, "duration": 3, "velocity": 93}, {"time": 3409, "pitch": 63, "duration": 3, "velocity": 90}, {"time": 3409, "pitch": 68, "duration": 2, "velocity": 77}, {"time": 3415, "pitch": 46, "duration": 19, "velocity": 89}, {"time": 3415, "pitch": 58, "duration": 8, "velocity": 83}, {"time": 3415, "pitch": 62, "duration": 8, "velocity": 86}, {"time": 3415, "pitch": 65, "duration": 8, "velocity": 88}, {"time": 3427, "pitch": 58, "duration": 7, "velocity": 95}, {"time": 3427, "pitch": 62, "duration": 7, "velocity": 104}, {"time": 3427, "pitch": 65, "duration": 7, "velocity": 105}, {"time": 3427, "pitch": 70, "duration": 7, "velocity": 89}, {"time": 3436, "pitch": 58, "duration": 4, "velocity": 88}, {"time": 3436, "pitch": 62, "duration": 2, "velocity": 91}, {"time": 3436, "pitch": 65, "duration": 3, "velocity": 91}, {"time": 3436, "pitch": 70, "duration": 3, "velocity": 88}, {"time": 3439, "pitch": 53, "duration": 11, "velocity": 89}, {"time": 3445, "pitch": 58, "duration": 10, "velocity": 94}, {"time": 3445, "pitch": 62, "duration": 10, "velocity": 104}, {"time": 3445, "pitch": 65, "duration": 10, "velocity": 97}, {"time": 3445, "pitch": 70, "duration": 10, "velocity": 90}, {"time": 3451, "pitch": 46, "duration": 11, "velocity": 91}, {"time": 3457, "pitch": 58, "duration": 5, "velocity": 92}, {"time": 3457, "pitch": 62, "duration": 5, "velocity": 97}, {"time": 3457, "pitch": 65, "duration": 5, "velocity": 95}, {"time": 3457, "pitch": 70, "duration": 5, "velocity": 89}, {"time": 3463, "pitch": 39, "duration": 13, "velocity": 92}, {"time": 3463, "pitch": 58, "duration": 9, "velocity": 88}, {"time": 3463, "pitch": 63, "duration": 8, "velocity": 90}, {"time": 3463, "pitch": 67, "duration": 8, "velocity": 89}, {"time": 3475, "pitch": 58, "duration": 3, "velocity": 91}, {"time": 3475, "pitch": 63, "duration": 4, "velocity": 95}, {"time": 3475, "pitch": 67, "duration": 4, "velocity": 95}, {"time": 3484, "pitch": 58, "duration": 5, "velocity": 89}, {"time": 3484, "pitch": 63, "duration": 5, "velocity": 91}, {"time": 3484, "pitch": 67, "duration": 5, "velocity": 90}, {"time": 3487, "pitch": 39, "duration": 16, "velocity": 92}, {"time": 3493, "pitch": 58, "duration": 9, "velocity": 92}, {"time": 3493, "pitch": 63, "duration": 9, "velocity": 95}, {"time": 3493, "pitch": 67, "duration": 9, "velocity": 99}, {"time": 3505, "pitch": 58, "duration": 2, "velocity": 86}, {"time": 3505, "pitch": 63, "duration": 2, "velocity": 88}, {"time": 3505, "pitch": 67, "duration": 3, "velocity": 89}, {"time": 3511, "pitch": 46, "duration": 16, "velocity": 89}, {"time": 3511, "pitch": 58, "duration": 9, "velocity": 79}, {"time": 3511, "pitch": 62, "duration": 8, "velocity": 76}, {"time": 3511, "pitch": 65, "duration": 8, "velocity": 87}, {"time": 3523, "pitch": 58, "duration": 3, "velocity": 99}, {"time": 3523, "pitch": 62, "duration": 3, "velocity": 102}, {"time": 3523, "pitch": 65, "duration": 3, "velocity": 104}, {"time": 3532, "pitch": 58, "duration": 4, "velocity": 88}, {"time": 3532, "pitch": 62, "duration": 3, "velocity": 94}, {"time": 3532, "pitch": 65, "duration": 4, "velocity": 90}, {"time": 3532, "pitch": 70, "duration": 4, "velocity": 88}, {"time": 3535, "pitch": 53, "duration": 10, "velocity": 82}, {"time": 3541, "pitch": 58, "duration": 7, "velocity": 91}, {"time": 3541, "pitch": 62, "duration": 7, "velocity": 104}, {"time": 3541, "pitch": 65, "duration": 7, "velocity": 99}, {"time": 3541, "pitch": 70, "duration": 7, "velocity": 92}, {"time": 3547, "pitch": 46, "duration": 4, "velocity": 89}, {"time": 3553, "pitch": 58, "duration": 4, "velocity": 89}, {"time": 3553, "pitch": 65, "duration": 4, "velocity": 89}, {"time": 3559, "pitch": 48, "duration": 14, "velocity": 90}, {"time": 3559, "pitch": 60, "duration": 6, "velocity": 89}, {"time": 3559, "pitch": 63, "duration": 7, "velocity": 84}, {"time": 3571, "pitch": 60, "duration": 3, "velocity": 93}, {"time": 3571, "pitch": 63, "duration": 3, "velocity": 93}, {"time": 3571, "pitch": 67, "duration": 3, "velocity": 95}, {"time": 3580, "pitch": 60, "duration": 2, "velocity": 85}, {"time": 3580, "pitch": 63, "duration": 2, "velocity": 85}, {"time": 3580, "pitch": 67, "duration": 3, "velocity": 79}, {"time": 3583, "pitch": 55, "duration": 9, "velocity": 80}, {"time": 3589, "pitch": 60, "duration": 6, "velocity": 90}, {"time": 3589, "pitch": 63, "duration": 7, "velocity": 91}, {"time": 3589, "pitch": 67, "duration": 7, "velocity": 91}, {"time": 3595, "pitch": 48, "duration": 2, "velocity": 86}, {"time": 3601, "pitch": 60, "duration": 5, "velocity": 87}, {"time": 3607, "pitch": 46, "duration": 22, "velocity": 89}, {"time": 3607, "pitch": 58, "duration": 9, "velocity": 88}, {"time": 3607, "pitch": 62, "duration": 9, "velocity": 88}, {"time": 3607, "pitch": 65, "duration": 6, "velocity": 90}, {"time": 3619, "pitch": 58, "duration": 6, "velocity": 94}, {"time": 3619, "pitch": 62, "duration": 5, "velocity": 99}, {"time": 3619, "pitch": 65, "duration": 6, "velocity": 97}, {"time": 3628, "pitch": 58, "duration": 4, "velocity": 93}, {"time": 3628, "pitch": 62, "duration": 4, "velocity": 104}, {"time": 3628, "pitch": 65, "duration": 4, "velocity": 94}, {"time": 3628, "pitch": 70, "duration": 4, "velocity": 86}, {"time": 3631, "pitch": 53, "duration": 10, "velocity": 90}, {"time": 3637, "pitch": 58, "duration": 8, "velocity": 97}, {"time": 3637, "pitch": 62, "duration": 9, "velocity": 104}, {"time": 3637, "pitch": 65, "duration": 9, "velocity": 99}, {"time": 3643, "pitch": 46, "duration": 5, "velocity": 88}, {"time": 3649, "pitch": 58, "duration": 3, "velocity": 99}, {"time": 3655, "pitch": 44, "duration": 17, "velocity": 89}, {"time": 3655, "pitch": 56, "duration": 9, "velocity": 90}, {"time": 3655, "pitch": 60, "duration": 9, "velocity": 89}, {"time": 3667, "pitch": 56, "duration": 4, "velocity": 91}, {"time": 3667, "pitch": 60, "duration": 3, "velocity": 95}, {"time": 3667, "pitch": 63, "duration": 4, "velocity": 91}, {"time": 3676, "pitch": 56, "duration": 3, "velocity": 83}, {"time": 3676, "pitch": 60, "duration": 3, "velocity": 89}, {"time": 3676, "pitch": 63, "duration": 3, "velocity": 88}, {"time": 3676, "pitch": 68, "duration": 3, "velocity": 78}, {"time": 3679, "pitch": 51, "duration": 11, "velocity": 80}, {"time": 3685, "pitch": 56, "duration": 7, "velocity": 94}, {"time": 3685, "pitch": 60, "duration": 7, "velocity": 99}, {"time": 3685, "pitch": 63, "duration": 7, "velocity": 97}, {"time": 3685, "pitch": 68, "duration": 7, "velocity": 89}, {"time": 3691, "pitch": 44, "duration": 3, "velocity": 88}, {"time": 3697, "pitch": 56, "duration": 5, "velocity": 94}, {"time": 3697, "pitch": 60, "duration": 5, "velocity": 92}, {"time": 3697, "pitch": 63, "duration": 6, "velocity": 89}, {"time": 3697, "pitch": 68, "duration": 7, "velocity": 85}, {"time": 3703, "pitch": 39, "duration": 20, "velocity": 97}, {"time": 3715, "pitch": 58, "duration": 4, "velocity": 90}, {"time": 3715, "pitch": 63, "duration": 4, "velocity": 93}, {"time": 3715, "pitch": 67, "duration": 5, "velocity": 94}, {"time": 3724, "pitch": 58, "duration": 2, "velocity": 86}, {"time": 3724, "pitch": 63, "duration": 2, "velocity": 89}, {"time": 3724, "pitch": 67, "duration": 3, "velocity": 88}, {"time": 3727, "pitch": 39, "duration": 9, "velocity": 91}, {"time": 3733, "pitch": 58, "duration": 8, "velocity": 95}, {"time": 3733, "pitch": 63, "duration": 8, "velocity": 99}, {"time": 3733, "pitch": 67, "duration": 8, "velocity": 102}, {"time": 3739, "pitch": 39, "duration": 2, "velocity": 81}, {"time": 3745, "pitch": 58, "duration": 3, "velocity": 90}, {"time": 3745, "pitch": 63, "duration": 3, "velocity": 89}, {"time": 3751, "pitch": 44, "duration": 21, "velocity": 90}, {"time": 3751, "pitch": 56, "duration": 9, "velocity": 84}, {"time": 3751, "pitch": 60, "duration": 8, "velocity": 89}, {"time": 3751, "pitch": 63, "duration": 8, "velocity": 88}, {"time": 3763, "pitch": 56, "duration": 7, "velocity": 93}, {"time": 3763, "pitch": 60, "duration": 5, "velocity": 102}, {"time": 3763, "pitch": 63, "duration": 5, "velocity": 95}, {"time": 3763, "pitch": 68, "duration": 5, "velocity": 88}, {"time": 3772, "pitch": 56, "duration": 7, "velocity": 91}, {"time": 3772, "pitch": 60, "duration": 7, "velocity": 97}, {"time": 3772, "pitch": 63, "duration": 7, "velocity": 92}, {"time": 3772, "pitch": 68, "duration": 6, "velocity": 88}, {"time": 3775, "pitch": 51, "duration": 12, "velocity": 88}, {"time": 3781, "pitch": 56, "duration": 8, "velocity": 95}, {"time": 3781, "pitch": 60, "duration": 8, "velocity": 102}, {"time": 3781, "pitch": 63, "duration": 8, "velocity": 99}, {"time": 3781, "pitch": 68, "duration": 8, "velocity": 89}, {"time": 3787, "pitch": 44, "duration": 8, "velocity": 89}, {"time": 3793, "pitch": 56, "duration": 3, "velocity": 91}, {"time": 3793, "pitch": 60, "duration": 3, "velocity": 93}, {"time": 3793, "pitch": 63, "duration": 3, "velocity": 90}, {"time": 3793, "pitch": 68, "duration": 2, "velocity": 77}, {"time": 3799, "pitch": 46, "duration": 19, "velocity": 89}, {"time": 3799, "pitch": 58, "duration": 8, "velocity": 83}, {"time": 3799, "pitch": 62, "duration": 8, "velocity": 86}, {"time": 3799, "pitch": 65, "duration": 8, "velocity": 88}, {"time": 3811, "pitch": 58, "duration": 7, "velocity": 95}, {"time": 3811, "pitch": 62, "duration": 7, "velocity": 104}, {"time": 3811, "pitch": 65, "duration": 7, "velocity": 105}, {"time": 3811, "pitch": 70, "duration": 7, "velocity": 89}, {"time": 3820, "pitch": 58, "duration": 4, "velocity": 88}, {"time": 3820, "pitch": 62, "duration": 2, "velocity": 91}, {"time": 3820, "pitch": 65, "duration": 3, "velocity": 91}, {"time": 3820, "pitch": 70, "duration": 3, "velocity": 88}, {"time": 3823, "pitch": 53, "duration": 11, "velocity": 89}, {"time": 3829, "pitch": 58, "duration": 10, "velocity": 94}, {"time": 3829, "pitch": 62, "duration": 10, "velocity": 104}, {"time": 3829, "pitch": 65, "duration": 10, "velocity": 97}, {"time": 3829, "pitch": 70, "duration": 10, "velocity": 90}, {"time": 3835, "pitch": 46, "duration": 11, "velocity": 91}, {"time": 3841, "pitch": 58, "duration": 5, "velocity": 92}, {"time": 3841, "pitch": 62, "duration": 5, "velocity": 97}, {"time": 3841, "pitch": 65, "duration": 5, "velocity": 95}, {"time": 3841, "pitch": 70, "duration": 5, "velocity": 89}, {"time": 3846, "pitch": 39, "duration": 2, "velocity": 93}, {"time": 3846, "pitch": 75, "duration": 10, "velocity": 95}, {"time": 3846, "pitch": 63, "duration": 12, "velocity": 88}, {"time": 3852, "pitch": 51, "duration": 67, "velocity": 88}, {"time": 3859, "pitch": 58, "duration": 28, "velocity": 90}, {"time": 3864, "pitch": 65, "duration": 6, "velocity": 88}, {"time": 3871, "pitch": 67, "duration": 16, "velocity": 83}, {"time": 3871, "pitch": 63, "duration": 16, "velocity": 81}, {"time": 3886, "pitch": 55, "duration": 5, "velocity": 45}, {"time": 3890, "pitch": 58, "duration": 27, "velocity": 82}, {"time": 3895, "pitch": 70, "duration": 25, "velocity": 77}, {"time": 3895, "pitch": 63, "duration": 26, "velocity": 77}, {"time": 3895, "pitch": 67, "duration": 25, "velocity": 72}, {"time": 3940, "pitch": 56, "duration": 34, "velocity": 78}, {"time": 3941, "pitch": 60, "duration": 35, "velocity": 83}, {"time": 3942, "pitch": 63, "duration": 34, "velocity": 78}, {"time": 3942, "pitch": 44, "duration": 36, "velocity": 88}, {"time": 3943, "pitch": 68, "duration": 34, "velocity": 81}, {"time": 3972, "pitch": 51, "duration": 8, "velocity": 65}, {"time": 3978, "pitch": 56, "duration": 3, "velocity": 84}, {"time": 3987, "pitch": 58, "duration": 47, "velocity": 70}, {"time": 3989, "pitch": 62, "duration": 47, "velocity": 78}, {"time": 3990, "pitch": 46, "duration": 85, "velocity": 90}, {"time": 3990, "pitch": 65, "duration": 46, "velocity": 84}, {"time": 3991, "pitch": 70, "duration": 45, "velocity": 85}, {"time": 4034, "pitch": 53, "duration": 40, "velocity": 69}, {"time": 4038, "pitch": 58, "duration": 39, "velocity": 66}, {"time": 4039, "pitch": 62, "duration": 38, "velocity": 65}, {"time": 4105, "pitch": 63, "duration": 6, "velocity": 74}, {"time": 4106, "pitch": 67, "duration": 12, "velocity": 76}, {"time": 4107, "pitch": 39, "duration": 3, "velocity": 89}, {"time": 4109, "pitch": 70, "duration": 10, "velocity": 82}, {"time": 4109, "pitch": 75, "duration": 9, "velocity": 88}, {"time": 4117, "pitch": 51, "duration": 92, "velocity": 71}, {"time": 4122, "pitch": 58, "duration": 87, "velocity": 74}, {"time": 4127, "pitch": 65, "duration": 5, "velocity": 81}, {"time": 4132, "pitch": 67, "duration": 3, "velocity": 79}, {"time": 4137, "pitch": 70, "duration": 3, "velocity": 79}, {"time": 4142, "pitch": 75, "duration": 5, "velocity": 84}, {"time": 4149, "pitch": 77, "duration": 3, "velocity": 83}, {"time": 4158, "pitch": 79, "duration": 4, "velocity": 63}, {"time": 4158, "pitch": 75, "duration": 4, "velocity": 79}, {"time": 4172, "pitch": 79, "duration": 1, "velocity": 72}, {"time": 4173, "pitch": 87, "duration": 3, "velocity": 88}, {"time": 4194, "pitch": 87, "duration": 1, "velocity": 65}, {"time": 4194, "pitch": 94, "duration": 2, "velocity": 82}], "annotations": [{"time": 7, "annotation": {"number": 64, "value": 127}, "group": "control_change"}, {"time": 21, "annotation": {"number": 64, "value": 0}, "group": "control_change"}, {"time": 84, "annotation": {"number": 64, "value": 127}, "group": "control_change"}, {"time": 99, "annotation": {"number": 64, "value": 0}, "group": "control_change"}, {"time": 126, "annotation": {"number": 64, "value": 127}, "group": "control_change"}, {"time": 127, "annotation": {"number": 64, "value": 0}, "group": "control_change"}, {"time": 127, "annotation": {"number": 64, "value": 127}, "group": "control_change"}, {"time": 147, "annotation": {"number": 64, "value": 0}, "group": "control_change"}, {"time": 151, "annotation": {"number": 64, "value": 127}, "group": "control_change"}, {"time": 162, "annotation": {"number": 64, "value": 0}, "group": "control_change"}, {"time": 178, "annotation": {"number": 64, "value": 127}, "group": "control_change"}, {"time": 195, "annotation": {"number": 64, "value": 0}, "group": "control_change"}, {"time": 211, "annotation": {"number": 64, "value": 127}, "group": "control_change"}, {"time": 231, "annotation": {"number": 64, "value": 0}, "group": "control_change"}, {"time": 236, "annotation": {"number": 64, "value": 127}, "group": "control_change"}, {"time": 242, "annotation": {"number": 64, "value": 0}, "group": "control_change"}, {"time": 250, "annotation": {"number": 64, "value": 127}, "group": "control_change"}, {"time": 250, "annotation": {"number": 64, "value": 0}, "group": "control_change"}, {"time": 256, "annotation": {"number": 64, "value": 0}, "group": "control_change"}, {"time": 268, "annotation": {"number": 64, "value": 127}, "group": "control_change"}, {"time": 291, "annotation": {"number": 64, "value": 0}, "group": "control_change"}, {"time": 297, "annotation": {"number": 64, "value": 127}, "group": "control_change"}, {"time": 339, "annotation": {"number": 64, "value": 0}, "group": "control_change"}, {"time": 345, "annotation": {"number": 64, "value": 127}, "group": "control_change"}, {"time": 381, "annotation": {"number": 64, "value": 0}, "group": "control_change"}, {"time": 393, "annotation": {"number": 64, "value": 127}, "group": "control_change"}, {"time": 400, "annotation": {"number": 64, "value": 0}, "group": "control_change"}, {"time": 416, "annotation": {"number": 64, "value": 127}, "group": "control_change"}, {"time": 434, "annotation": {"number": 64, "value": 0}, "group": "control_change"}, {"time": 468, "annotation": {"number": 64, "value": 127}, "group": "control_change"}, {"time": 483, "annotation": {"number": 64, "value": 0}, "group": "control_change"}, {"time": 522, "annotation": {"number": 64, "value": 127}, "group": "control_change"}, {"time": 529, "annotation": {"number": 64, "value": 0}, "group": "control_change"}, {"time": 564, "annotation": {"number": 64, "value": 127}, "group": "control_change"}, {"time": 579, "annotation": {"number": 64, "value": 0}, "group": "control_change"}, {"time": 611, "annotation": {"number": 64, "value": 127}, "group": "control_change"}, {"time": 626, "annotation": {"number": 64, "value": 0}, "group": "control_change"}, {"time": 656, "annotation": {"number": 64, "value": 127}, "group": "control_change"}, {"time": 674, "annotation": {"number": 64, "value": 0}, "group": "control_change"}, {"time": 682, "annotation": {"number": 64, "value": 127}, "group": "control_change"}, {"time": 694, "annotation": {"number": 64, "value": 0}, "group": "control_change"}, {"time": 777, "annotation": {"number": 64, "value": 127}, "group": "control_change"}, {"time": 784, "annotation": {"number": 64, "value": 0}, "group": "control_change"}, {"time": 800, "annotation": {"number": 64, "value": 127}, "group": "control_change"}, {"time": 818, "annotation": {"number": 64, "value": 0}, "group": "control_change"}, {"time": 852, "annotation": {"number": 64, "value": 127}, "group": "control_change"}, {"time": 867, "annotation": {"number": 64, "value": 0}, "group": "control_change"}, {"time": 906, "annotation": {"number": 64, "value": 127}, "group": "control_change"}, {"time": 913, "annotation": {"number": 64, "value": 0}, "group": "control_change"}, {"time": 948, "annotation": {"number": 64, "value": 127}, "group": "control_change"}, {"time": 963, "annotation": {"number": 64, "value": 0}, "group": "control_change"}, {"time": 995, "annotation": {"number": 64, "value": 127}, "group": "control_change"}, {"time": 1010, "annotation": {"number": 64, "value": 0}, "group": "control_change"}, {"time": 1040, "annotation": {"number": 64, "value": 127}, "group": "control_change"}, {"time": 1058, "annotation": {"number": 64, "value": 0}, "group": "control_change"}, {"time": 1066, "annotation": {"number": 64, "value": 127}, "group": "control_change"}, {"time": 1078, "annotation": {"number": 64, "value": 0}, "group": "control_change"}, {"time": 1162, "annotation": {"number": 64, "value": 127}, "group": "control_change"}, {"time": 1172, "annotation": {"number": 64, "value": 0}, "group": "control_change"}, {"time": 1214, "annotation": {"number": 64, "value": 127}, "group": "control_change"}, {"time": 1216, "annotation": {"number": 64, "value": 0}, "group": "control_change"}, {"time": 1232, "annotation": {"number": 64, "value": 127}, "group": "control_change"}, {"time": 1248, "annotation": {"number": 64, "value": 0}, "group": "control_change"}, {"time": 1270, "annotation": {"number": 64, "value": 127}, "group": "control_change"}, {"time": 1271, "annotation": {"number": 64, "value": 0}, "group": "control_change"}, {"time": 1283, "annotation": {"number": 64, "value": 127}, "group": "control_change"}, {"time": 1298, "annotation": {"number": 64, "value": 0}, "group": "control_change"}, {"time": 1317, "annotation": {"number": 64, "value": 127}, "group": "control_change"}, {"time": 1348, "annotation": {"number": 64, "value": 0}, "group": "control_change"}, {"time": 1364, "annotation": {"number": 64, "value": 127}, "group": "control_change"}, {"time": 1396, "annotation": {"number": 64, "value": 0}, "group": "control_change"}, {"time": 1406, "annotation": {"number": 64, "value": 127}, "group": "control_change"}, {"time": 1410, "annotation": {"number": 64, "value": 0}, "group": "control_change"}, {"time": 1436, "annotation": {"number": 64, "value": 127}, "group": "control_change"}, {"time": 1442, "annotation": {"number": 64, "value": 0}, "group": "control_change"}, {"time": 1497, "annotation": {"number": 64, "value": 127}, "group": "control_change"}, {"time": 1534, "annotation": {"number": 64, "value": 0}, "group": "control_change"}, {"time": 1546, "annotation": {"number": 64, "value": 127}, "group": "control_change"}, {"time": 1556, "annotation": {"number": 64, "value": 0}, "group": "control_change"}, {"time": 1598, "annotation": {"number": 64, "value": 127}, "group": "control_change"}, {"time": 1600, "annotation": {"number": 64, "value": 0}, "group": "control_change"}, {"time": 1616, "annotation": {"number": 64, "value": 127}, "group": "control_change"}, {"time": 1632, "annotation": {"number": 64, "value": 0}, "group": "control_change"}, {"time": 1654, "annotation": {"number": 64, "value": 127}, "group": "control_change"}, {"time": 1655, "annotation": {"number": 64, "value": 0}, "group": "control_change"}, {"time": 1667, "annotation": {"number": 64, "value": 127}, "group": "control_change"}, {"time": 1682, "annotation": {"number": 64, "value": 0}, "group": "control_change"}, {"time": 1701, "annotation": {"number": 64, "value": 127}, "group": "control_change"}, {"time": 1732, "annotation": {"number": 64, "value": 0}, "group": "control_change"}, {"time": 1748, "annotation": {"number": 64, "value": 127}, "group": "control_change"}, {"time": 1780, "annotation": {"number": 64, "value": 0}, "group": "control_change"}, {"time": 1790, "annotation": {"number": 64, "value": 127}, "group": "control_change"}, {"time": 1794, "annotation": {"number": 64, "value": 0}, "group": "control_change"}, {"time": 1820, "annotation": {"number": 64, "value": 127}, "group": "control_change"}, {"time": 1826, "annotation": {"number": 64, "value": 0}, "group": "control_change"}, {"time": 1881, "annotation": {"number": 64, "value": 127}, "group": "control_change"}, {"time": 1918, "annotation": {"number": 64, "value": 0}, "group": "control_change"}, {"time": 1928, "annotation": {"number": 64, "value": 127}, "group": "control_change"}, {"time": 1971, "annotation": {"number": 64, "value": 0}, "group": "control_change"}, {"time": 1977, "annotation": {"number": 64, "value": 127}, "group": "control_change"}, {"time": 2019, "annotation": {"number": 64, "value": 0}, "group": "control_change"}, {"time": 2024, "annotation": {"number": 64, "value": 127}, "group": "control_change"}, {"time": 2067, "annotation": {"number": 64, "value": 0}, "group": "control_change"}, {"time": 2074, "annotation": {"number": 64, "value": 127}, "group": "control_change"}, {"time": 2117, "annotation": {"number": 64, "value": 0}, "group": "control_change"}, {"time": 2126, "annotation": {"number": 64, "value": 127}, "group": "control_change"}, {"time": 2126, "annotation": {"number": 64, "value": 0}, "group": "control_change"}, {"time": 2165, "annotation": {"number": 64, "value": 0}, "group": "control_change"}, {"time": 2173, "annotation": {"number": 64, "value": 127}, "group": "control_change"}, {"time": 2211, "annotation": {"number": 64, "value": 0}, "group": "control_change"}, {"time": 2216, "annotation": {"number": 64, "value": 127}, "group": "control_change"}, {"time": 2260, "annotation": {"number": 64, "value": 0}, "group": "control_change"}, {"time": 2264, "annotation": {"number": 64, "value": 127}, "group": "control_change"}, {"time": 2307, "annotation": {"number": 64, "value": 0}, "group": "control_change"}, {"time": 2313, "annotation": {"number": 64, "value": 127}, "group": "control_change"}, {"time": 2320, "annotation": {"number": 64, "value": 0}, "group": "control_change"}, {"time": 2336, "annotation": {"number": 64, "value": 127}, "group": "control_change"}, {"time": 2354, "annotation": {"number": 64, "value": 0}, "group": "control_change"}, {"time": 2388, "annotation": {"number": 64, "value": 127}, "group": "control_change"}, {"time": 2403, "annotation": {"number": 64, "value": 0}, "group": "control_change"}, {"time": 2442, "annotation": {"number": 64, "value": 127}, "group": "control_change"}, {"time": 2449, "annotation": {"number": 64, "value": 0}, "group": "control_change"}, {"time": 2484, "annotation": {"number": 64, "value": 127}, "group": "control_change"}, {"time": 2499, "annotation": {"number": 64, "value": 0}, "group": "control_change"}, {"time": 2531, "annotation": {"number": 64, "value": 127}, "group": "control_change"}, {"time": 2546, "annotation": {"number": 64, "value": 0}, "group": "control_change"}, {"time": 2576, "annotation": {"number": 64, "value": 127}, "group": "control_change"}, {"time": 2594, "annotation": {"number": 64, "value": 0}, "group": "control_change"}, {"time": 2602, "annotation": {"number": 64, "value": 127}, "group": "control_change"}, {"time": 2614, "annotation": {"number": 64, "value": 0}, "group": "control_change"}, {"time": 2695, "annotation": {"number": 64, "value": 127}, "group": "control_change"}, {"time": 2741, "annotation": {"number": 64, "value": 0}, "group": "control_change"}, {"time": 2746, "annotation": {"number": 64, "value": 127}, "group": "control_change"}, {"time": 2786, "annotation": {"number": 64, "value": 0}, "group": "control_change"}, {"time": 2793, "annotation": {"number": 64, "value": 127}, "group": "control_change"}, {"time": 2836, "annotation": {"number": 64, "value": 0}, "group": "control_change"}, {"time": 2843, "annotation": {"number": 64, "value": 127}, "group": "control_change"}, {"time": 2884, "annotation": {"number": 64, "value": 0}, "group": "control_change"}, {"time": 2888, "annotation": {"number": 64, "value": 127}, "group": "control_change"}, {"time": 2930, "annotation": {"number": 64, "value": 0}, "group": "control_change"}, {"time": 2935, "annotation": {"number": 64, "value": 127}, "group": "control_change"}, {"time": 2979, "annotation": {"number": 64, "value": 0}, "group": "control_change"}, {"time": 2984, "annotation": {"number": 64, "value": 127}, "group": "control_change"}, {"time": 3031, "annotation": {"number": 64, "value": 0}, "group": "control_change"}, {"time": 3079, "annotation": {"number": 64, "value": 127}, "group": "control_change"}, {"time": 3100, "annotation": {"number": 64, "value": 0}, "group": "control_change"}, {"time": 3116, "annotation": {"number": 64, "value": 127}, "group": "control_change"}, {"time": 3123, "annotation": {"number": 64, "value": 0}, "group": "control_change"}, {"time": 3132, "annotation": {"number": 64, "value": 127}, "group": "control_change"}, {"time": 3170, "annotation": {"number": 64, "value": 0}, "group": "control_change"}, {"time": 3177, "annotation": {"number": 64, "value": 127}, "group": "control_change"}, {"time": 3220, "annotation": {"number": 64, "value": 0}, "group": "control_change"}, {"time": 3225, "annotation": {"number": 64, "value": 127}, "group": "control_change"}, {"time": 3245, "annotation": {"number": 64, "value": 0}, "group": "control_change"}, {"time": 3248, "annotation": {"number": 64, "value": 127}, "group": "control_change"}, {"time": 3268, "annotation": {"number": 64, "value": 0}, "group": "control_change"}, {"time": 3276, "annotation": {"number": 64, "value": 127}, "group": "control_change"}, {"time": 3300, "annotation": {"number": 64, "value": 0}, "group": "control_change"}, {"time": 3300, "annotation": {"number": 64, "value": 127}, "group": "control_change"}, {"time": 3314, "annotation": {"number": 64, "value": 0}, "group": "control_change"}, {"time": 3323, "annotation": {"number": 64, "value": 127}, "group": "control_change"}, {"time": 3323, "annotation": {"number": 64, "value": 0}, "group": "control_change"}, {"time": 3324, "annotation": {"number": 64, "value": 127}, "group": "control_change"}, {"time": 3366, "annotation": {"number": 64, "value": 0}, "group": "control_change"}, {"time": 3367, "annotation": {"number": 64, "value": 127}, "group": "control_change"}, {"time": 3372, "annotation": {"number": 64, "value": 127}, "group": "control_change"}, {"time": 3387, "annotation": {"number": 64, "value": 0}, "group": "control_change"}, {"time": 3392, "annotation": {"number": 64, "value": 127}, "group": "control_change"}, {"time": 3401, "annotation": {"number": 64, "value": 0}, "group": "control_change"}, {"time": 3411, "annotation": {"number": 64, "value": 0}, "group": "control_change"}, {"time": 3416, "annotation": {"number": 64, "value": 127}, "group": "control_change"}, {"time": 3440, "annotation": {"number": 64, "value": 0}, "group": "control_change"}, {"time": 3444, "annotation": {"number": 64, "value": 127}, "group": "control_change"}, {"time": 3458, "annotation": {"number": 64, "value": 0}, "group": "control_change"}, {"time": 3463, "annotation": {"number": 64, "value": 127}, "group": "control_change"}, {"time": 3484, "annotation": {"number": 64, "value": 0}, "group": "control_change"}, {"time": 3500, "annotation": {"number": 64, "value": 127}, "group": "control_change"}, {"time": 3507, "annotation": {"number": 64, "value": 0}, "group": "control_change"}, {"time": 3516, "annotation": {"number": 64, "value": 127}, "group": "control_change"}, {"time": 3554, "annotation": {"number": 64, "value": 0}, "group": "control_change"}, {"time": 3561, "annotation": {"number": 64, "value": 127}, "group": "control_change"}, {"time": 3604, "annotation": {"number": 64, "value": 0}, "group": "control_change"}, {"time": 3609, "annotation": {"number": 64, "value": 127}, "group": "control_change"}, {"time": 3629, "annotation": {"number": 64, "value": 0}, "group": "control_change"}, {"time": 3632, "annotation": {"number": 64, "value": 127}, "group": "control_change"}, {"time": 3652, "annotation": {"number": 64, "value": 0}, "group": "control_change"}, {"time": 3660, "annotation": {"number": 64, "value": 127}, "group": "control_change"}, {"time": 3684, "annotation": {"number": 64, "value": 0}, "group": "control_change"}, {"time": 3684, "annotation": {"number": 64, "value": 127}, "group": "control_change"}, {"time": 3698, "annotation": {"number": 64, "value": 0}, "group": "control_change"}, {"time": 3707, "annotation": {"number": 64, "value": 127}, "group": "control_change"}, {"time": 3707, "annotation": {"number": 64, "value": 0}, "group": "control_change"}, {"time": 3708, "annotation": {"number": 64, "value": 127}, "group": "control_change"}, {"time": 3750, "annotation": {"number": 64, "value": 0}, "group": "control_change"}, {"time": 3751, "annotation": {"number": 64, "value": 127}, "group": "control_change"}, {"time": 3756, "annotation": {"number": 64, "value": 127}, "group": "control_change"}, {"time": 3771, "annotation": {"number": 64, "value": 0}, "group": "control_change"}, {"time": 3776, "annotation": {"number": 64, "value": 127}, "group": "control_change"}, {"time": 3785, "annotation": {"number": 64, "value": 0}, "group": "control_change"}, {"time": 3795, "annotation": {"number": 64, "value": 0}, "group": "control_change"}, {"time": 3800, "annotation": {"number": 64, "value": 127}, "group": "control_change"}, {"time": 3824, "annotation": {"number": 64, "value": 0}, "group": "control_change"}, {"time": 3828, "annotation": {"number": 64, "value": 127}, "group": "control_change"}, {"time": 3842, "annotation": {"number": 64, "value": 0}, "group": "control_change"}, {"time": 3846, "annotation": {"number": 64, "value": 127}, "group": "control_change"}, {"time": 3938, "annotation": {"number": 64, "value": 0}, "group": "control_change"}, {"time": 3945, "annotation": {"number": 64, "value": 127}, "group": "control_change"}, {"time": 3987, "annotation": {"number": 64, "value": 0}, "group": "control_change"}, {"time": 4032, "annotation": {"number": 64, "value": 127}, "group": "control_change"}, {"time": 4032, "annotation": {"number": 64, "value": 0}, "group": "control_change"}, {"time": 4033, "annotation": {"number": 64, "value": 127}, "group": "control_change"}, {"time": 4104, "annotation": {"number": 64, "value": 0}, "group": "control_change"}, {"time": 4107, "annotation": {"number": 64, "value": 127}, "group": "control_change"}, {"time": 4248, "annotation": {"number": 64, "value": 0}, "group": "control_change"}]}]}