{"metadata": {"schema_version": "0.2", "title": "None", "source_filename": "431.mid", "source_format": "midi"}, "resolution": 12, "tempos": [{"time": 0, "qpm": 76.00006586672374}, {"time": 4440, "qpm": 70.00007000007}, {"time": 4447, "qpm": 63.000063000063}, {"time": 4452, "qpm": 55.00000458333371}, {"time": 4464, "qpm": 76.00006586672374}], "time_signatures": [{"time": 0, "numerator": 1, "denominator": 4}], "tracks": [{"program": 4, "is_drum": false, "name": "MELODY", "notes": [{"time": 598, "pitch": 73, "duration": 5, "velocity": 95}, {"time": 604, "pitch": 73, "duration": 4, "velocity": 95}, {"time": 610, "pitch": 73, "duration": 2, "velocity": 90}, {"time": 613, "pitch": 73, "duration": 8, "velocity": 95}, {"time": 622, "pitch": 71, "duration": 4, "velocity": 96}, {"time": 628, "pitch": 73, "duration": 4, "velocity": 95}, {"time": 634, "pitch": 74, "duration": 12, "velocity": 95}, {"time": 646, "pitch": 73, "duration": 6, "velocity": 89}, {"time": 652, "pitch": 71, "duration": 9, "velocity": 94}, {"time": 664, "pitch": 71, "duration": 5, "velocity": 95}, {"time": 670, "pitch": 68, "duration": 6, "velocity": 96}, {"time": 676, "pitch": 64, "duration": 5, "velocity": 100}, {"time": 682, "pitch": 71, "duration": 16, "velocity": 94}, {"time": 706, "pitch": 71, "duration": 9, "velocity": 90}, {"time": 718, "pitch": 68, "duration": 8, "velocity": 97}, {"time": 730, "pitch": 64, "duration": 6, "velocity": 97}, {"time": 736, "pitch": 69, "duration": 14, "velocity": 103}, {"time": 790, "pitch": 73, "duration": 4, "velocity": 95}, {"time": 796, "pitch": 73, "duration": 4, "velocity": 95}, {"time": 802, "pitch": 73, "duration": 2, "velocity": 90}, {"time": 805, "pitch": 73, "duration": 8, "velocity": 95}, {"time": 814, "pitch": 71, "duration": 4, "velocity": 96}, {"time": 820, "pitch": 73, "duration": 4, "velocity": 95}, {"time": 826, "pitch": 78, "duration": 12, "velocity": 95}, {"time": 838, "pitch": 73, "duration": 6, "velocity": 89}, {"time": 844, "pitch": 71, "duration": 9, "velocity": 94}, {"time": 856, "pitch": 71, "duration": 5, "velocity": 95}, {"time": 862, "pitch": 68, "duration": 6, "velocity": 96}, {"time": 868, "pitch": 64, "duration": 5, "velocity": 100}, {"time": 874, "pitch": 71, "duration": 16, "velocity": 94}, {"time": 898, "pitch": 71, "duration": 9, "velocity": 90}, {"time": 910, "pitch": 73, "duration": 8, "velocity": 97}, {"time": 919, "pitch": 74, "duration": 7, "velocity": 97}, {"time": 928, "pitch": 74, "duration": 4, "velocity": 103}, {"time": 934, "pitch": 73, "duration": 18, "velocity": 94}, {"time": 952, "pitch": 74, "duration": 10, "velocity": 96}, {"time": 964, "pitch": 76, "duration": 9, "velocity": 94}, {"time": 976, "pitch": 73, "duration": 5, "velocity": 94}, {"time": 982, "pitch": 69, "duration": 6, "velocity": 95}, {"time": 988, "pitch": 69, "duration": 6, "velocity": 89}, {"time": 994, "pitch": 66, "duration": 4, "velocity": 84}, {"time": 1000, "pitch": 69, "duration": 16, "velocity": 90}, {"time": 1018, "pitch": 71, "duration": 12, "velocity": 94}, {"time": 1030, "pitch": 68, "duration": 4, "velocity": 87}, {"time": 1036, "pitch": 68, "duration": 5, "velocity": 95}, {"time": 1042, "pitch": 64, "duration": 5, "velocity": 94}, {"time": 1048, "pitch": 68, "duration": 14, "velocity": 95}, {"time": 1066, "pitch": 71, "duration": 10, "velocity": 95}, {"time": 1078, "pitch": 68, "duration": 4, "velocity": 95}, {"time": 1084, "pitch": 68, "duration": 5, "velocity": 86}, {"time": 1090, "pitch": 64, "duration": 4, "velocity": 94}, {"time": 1096, "pitch": 68, "duration": 12, "velocity": 92}, {"time": 1108, "pitch": 71, "duration": 4, "velocity": 94}, {"time": 1114, "pitch": 71, "duration": 4, "velocity": 94}, {"time": 1120, "pitch": 66, "duration": 9, "velocity": 88}, {"time": 1132, "pitch": 68, "duration": 10, "velocity": 95}, {"time": 1144, "pitch": 69, "duration": 7, "velocity": 86}, {"time": 1156, "pitch": 73, "duration": 9, "velocity": 93}, {"time": 1168, "pitch": 73, "duration": 4, "velocity": 95}, {"time": 1174, "pitch": 69, "duration": 4, "velocity": 86}, {"time": 1180, "pitch": 69, "duration": 4, "velocity": 92}, {"time": 1186, "pitch": 66, "duration": 4, "velocity": 88}, {"time": 1192, "pitch": 69, "duration": 11, "velocity": 93}, {"time": 1210, "pitch": 71, "duration": 10, "velocity": 93}, {"time": 1222, "pitch": 68, "duration": 5, "velocity": 93}, {"time": 1228, "pitch": 68, "duration": 4, "velocity": 95}, {"time": 1234, "pitch": 64, "duration": 5, "velocity": 96}, {"time": 1240, "pitch": 68, "duration": 11, "velocity": 94}, {"time": 1258, "pitch": 71, "duration": 10, "velocity": 94}, {"time": 1270, "pitch": 68, "duration": 4, "velocity": 84}, {"time": 1276, "pitch": 68, "duration": 4, "velocity": 97}, {"time": 1282, "pitch": 64, "duration": 4, "velocity": 95}, {"time": 1288, "pitch": 68, "duration": 6, "velocity": 87}, {"time": 1294, "pitch": 69, "duration": 5, "velocity": 92}, {"time": 1300, "pitch": 71, "duration": 4, "velocity": 94}, {"time": 1306, "pitch": 73, "duration": 4, "velocity": 93}, {"time": 1312, "pitch": 78, "duration": 15, "velocity": 84}, {"time": 1330, "pitch": 78, "duration": 4, "velocity": 88}, {"time": 1336, "pitch": 78, "duration": 6, "velocity": 95}, {"time": 1342, "pitch": 76, "duration": 3, "velocity": 90}, {"time": 1348, "pitch": 76, "duration": 5, "velocity": 96}, {"time": 1354, "pitch": 73, "duration": 20, "velocity": 90}, {"time": 1384, "pitch": 78, "duration": 4, "velocity": 96}, {"time": 1390, "pitch": 76, "duration": 4, "velocity": 90}, {"time": 1396, "pitch": 76, "duration": 5, "velocity": 95}, {"time": 1402, "pitch": 73, "duration": 4, "velocity": 94}, {"time": 1408, "pitch": 71, "duration": 14, "velocity": 93}, {"time": 1429, "pitch": 64, "duration": 2, "velocity": 95}, {"time": 1432, "pitch": 68, "duration": 9, "velocity": 94}, {"time": 1444, "pitch": 69, "duration": 4, "velocity": 92}, {"time": 1450, "pitch": 74, "duration": 11, "velocity": 91}, {"time": 1462, "pitch": 73, "duration": 36, "velocity": 94}, {"time": 1528, "pitch": 73, "duration": 5, "velocity": 89}, {"time": 1534, "pitch": 81, "duration": 11, "velocity": 94}, {"time": 1546, "pitch": 80, "duration": 9, "velocity": 96}, {"time": 1558, "pitch": 78, "duration": 9, "velocity": 90}, {"time": 1570, "pitch": 73, "duration": 8, "velocity": 90}, {"time": 1582, "pitch": 78, "duration": 10, "velocity": 96}, {"time": 1594, "pitch": 78, "duration": 24, "velocity": 96}, {"time": 1624, "pitch": 73, "duration": 5, "velocity": 90}, {"time": 1630, "pitch": 81, "duration": 10, "velocity": 95}, {"time": 1642, "pitch": 80, "duration": 9, "velocity": 96}, {"time": 1654, "pitch": 78, "duration": 4, "velocity": 95}, {"time": 1660, "pitch": 73, "duration": 7, "velocity": 94}, {"time": 1678, "pitch": 78, "duration": 10, "velocity": 95}, {"time": 1690, "pitch": 80, "duration": 11, "velocity": 95}, {"time": 1702, "pitch": 78, "duration": 13, "velocity": 95}, {"time": 1720, "pitch": 73, "duration": 4, "velocity": 100}, {"time": 1726, "pitch": 81, "duration": 10, "velocity": 96}, {"time": 1738, "pitch": 80, "duration": 10, "velocity": 95}, {"time": 1750, "pitch": 78, "duration": 4, "velocity": 95}, {"time": 1756, "pitch": 73, "duration": 16, "velocity": 93}, {"time": 1774, "pitch": 78, "duration": 10, "velocity": 96}, {"time": 1786, "pitch": 78, "duration": 24, "velocity": 95}, {"time": 1816, "pitch": 73, "duration": 4, "velocity": 94}, {"time": 1822, "pitch": 81, "duration": 10, "velocity": 94}, {"time": 1834, "pitch": 80, "duration": 10, "velocity": 92}, {"time": 1846, "pitch": 78, "duration": 4, "velocity": 95}, {"time": 1858, "pitch": 73, "duration": 11, "velocity": 94}, {"time": 1870, "pitch": 78, "duration": 10, "velocity": 94}, {"time": 1882, "pitch": 80, "duration": 10, "velocity": 96}, {"time": 1894, "pitch": 78, "duration": 12, "velocity": 96}, {"time": 1906, "pitch": 78, "duration": 4, "velocity": 95}, {"time": 1912, "pitch": 78, "duration": 10, "velocity": 95}, {"time": 1924, "pitch": 76, "duration": 4, "velocity": 95}, {"time": 1930, "pitch": 73, "duration": 15, "velocity": 92}, {"time": 1960, "pitch": 78, "duration": 9, "velocity": 96}, {"time": 1972, "pitch": 76, "duration": 4, "velocity": 94}, {"time": 1978, "pitch": 73, "duration": 12, "velocity": 93}, {"time": 1990, "pitch": 71, "duration": 10, "velocity": 96}, {"time": 2002, "pitch": 64, "duration": 4, "velocity": 98}, {"time": 2008, "pitch": 68, "duration": 9, "velocity": 95}, {"time": 2020, "pitch": 69, "duration": 4, "velocity": 94}, {"time": 2026, "pitch": 74, "duration": 10, "velocity": 98}, {"time": 2038, "pitch": 73, "duration": 42, "velocity": 92}, {"time": 2518, "pitch": 73, "duration": 4, "velocity": 95}, {"time": 2524, "pitch": 73, "duration": 4, "velocity": 95}, {"time": 2530, "pitch": 73, "duration": 2, "velocity": 90}, {"time": 2533, "pitch": 73, "duration": 8, "velocity": 95}, {"time": 2542, "pitch": 71, "duration": 4, "velocity": 96}, {"time": 2548, "pitch": 73, "duration": 4, "velocity": 95}, {"time": 2554, "pitch": 74, "duration": 12, "velocity": 95}, {"time": 2566, "pitch": 73, "duration": 6, "velocity": 89}, {"time": 2572, "pitch": 71, "duration": 9, "velocity": 94}, {"time": 2584, "pitch": 71, "duration": 5, "velocity": 95}, {"time": 2590, "pitch": 68, "duration": 6, "velocity": 96}, {"time": 2596, "pitch": 64, "duration": 5, "velocity": 100}, {"time": 2602, "pitch": 71, "duration": 16, "velocity": 94}, {"time": 2626, "pitch": 71, "duration": 9, "velocity": 90}, {"time": 2638, "pitch": 73, "duration": 8, "velocity": 97}, {"time": 2650, "pitch": 68, "duration": 6, "velocity": 97}, {"time": 2656, "pitch": 69, "duration": 4, "velocity": 103}, {"time": 2662, "pitch": 69, "duration": 18, "velocity": 94}, {"time": 2710, "pitch": 73, "duration": 4, "velocity": 95}, {"time": 2716, "pitch": 73, "duration": 4, "velocity": 95}, {"time": 2722, "pitch": 73, "duration": 2, "velocity": 90}, {"time": 2725, "pitch": 73, "duration": 8, "velocity": 95}, {"time": 2734, "pitch": 71, "duration": 4, "velocity": 96}, {"time": 2740, "pitch": 73, "duration": 4, "velocity": 95}, {"time": 2746, "pitch": 78, "duration": 12, "velocity": 95}, {"time": 2758, "pitch": 73, "duration": 6, "velocity": 89}, {"time": 2764, "pitch": 71, "duration": 9, "velocity": 94}, {"time": 2776, "pitch": 71, "duration": 5, "velocity": 95}, {"time": 2782, "pitch": 68, "duration": 6, "velocity": 96}, {"time": 2788, "pitch": 64, "duration": 5, "velocity": 100}, {"time": 2794, "pitch": 71, "duration": 16, "velocity": 94}, {"time": 2818, "pitch": 71, "duration": 9, "velocity": 90}, {"time": 2830, "pitch": 73, "duration": 8, "velocity": 97}, {"time": 2839, "pitch": 74, "duration": 7, "velocity": 97}, {"time": 2848, "pitch": 74, "duration": 4, "velocity": 103}, {"time": 2854, "pitch": 73, "duration": 18, "velocity": 94}, {"time": 2872, "pitch": 74, "duration": 10, "velocity": 96}, {"time": 2884, "pitch": 76, "duration": 9, "velocity": 94}, {"time": 2896, "pitch": 73, "duration": 5, "velocity": 94}, {"time": 2902, "pitch": 69, "duration": 6, "velocity": 95}, {"time": 2908, "pitch": 69, "duration": 6, "velocity": 89}, {"time": 2914, "pitch": 66, "duration": 4, "velocity": 84}, {"time": 2920, "pitch": 69, "duration": 16, "velocity": 90}, {"time": 2938, "pitch": 71, "duration": 12, "velocity": 94}, {"time": 2950, "pitch": 68, "duration": 4, "velocity": 87}, {"time": 2956, "pitch": 68, "duration": 5, "velocity": 95}, {"time": 2962, "pitch": 64, "duration": 5, "velocity": 94}, {"time": 2968, "pitch": 68, "duration": 14, "velocity": 95}, {"time": 2986, "pitch": 71, "duration": 10, "velocity": 95}, {"time": 2998, "pitch": 68, "duration": 4, "velocity": 95}, {"time": 3004, "pitch": 68, "duration": 5, "velocity": 86}, {"time": 3010, "pitch": 64, "duration": 4, "velocity": 94}, {"time": 3016, "pitch": 68, "duration": 12, "velocity": 92}, {"time": 3028, "pitch": 71, "duration": 4, "velocity": 94}, {"time": 3034, "pitch": 71, "duration": 4, "velocity": 94}, {"time": 3040, "pitch": 66, "duration": 9, "velocity": 88}, {"time": 3052, "pitch": 68, "duration": 10, "velocity": 95}, {"time": 3064, "pitch": 69, "duration": 7, "velocity": 86}, {"time": 3076, "pitch": 73, "duration": 9, "velocity": 93}, {"time": 3088, "pitch": 73, "duration": 4, "velocity": 95}, {"time": 3094, "pitch": 69, "duration": 4, "velocity": 86}, {"time": 3100, "pitch": 69, "duration": 4, "velocity": 92}, {"time": 3106, "pitch": 66, "duration": 4, "velocity": 88}, {"time": 3112, "pitch": 69, "duration": 11, "velocity": 93}, {"time": 3130, "pitch": 71, "duration": 10, "velocity": 93}, {"time": 3142, "pitch": 68, "duration": 5, "velocity": 93}, {"time": 3148, "pitch": 68, "duration": 4, "velocity": 95}, {"time": 3154, "pitch": 64, "duration": 5, "velocity": 96}, {"time": 3160, "pitch": 68, "duration": 11, "velocity": 94}, {"time": 3178, "pitch": 71, "duration": 10, "velocity": 94}, {"time": 3190, "pitch": 68, "duration": 4, "velocity": 84}, {"time": 3196, "pitch": 68, "duration": 4, "velocity": 97}, {"time": 3202, "pitch": 64, "duration": 4, "velocity": 95}, {"time": 3208, "pitch": 68, "duration": 6, "velocity": 87}, {"time": 3214, "pitch": 69, "duration": 5, "velocity": 92}, {"time": 3220, "pitch": 71, "duration": 4, "velocity": 94}, {"time": 3226, "pitch": 73, "duration": 4, "velocity": 93}, {"time": 3232, "pitch": 78, "duration": 15, "velocity": 84}, {"time": 3250, "pitch": 78, "duration": 4, "velocity": 88}, {"time": 3256, "pitch": 78, "duration": 6, "velocity": 95}, {"time": 3262, "pitch": 76, "duration": 3, "velocity": 90}, {"time": 3268, "pitch": 76, "duration": 5, "velocity": 96}, {"time": 3274, "pitch": 73, "duration": 20, "velocity": 90}, {"time": 3304, "pitch": 78, "duration": 4, "velocity": 96}, {"time": 3310, "pitch": 76, "duration": 4, "velocity": 90}, {"time": 3316, "pitch": 76, "duration": 5, "velocity": 95}, {"time": 3322, "pitch": 73, "duration": 4, "velocity": 94}, {"time": 3328, "pitch": 71, "duration": 14, "velocity": 93}, {"time": 3349, "pitch": 64, "duration": 2, "velocity": 95}, {"time": 3352, "pitch": 68, "duration": 9, "velocity": 94}, {"time": 3364, "pitch": 69, "duration": 4, "velocity": 92}, {"time": 3370, "pitch": 74, "duration": 11, "velocity": 91}, {"time": 3382, "pitch": 73, "duration": 36, "velocity": 94}, {"time": 3448, "pitch": 73, "duration": 5, "velocity": 89}, {"time": 3454, "pitch": 81, "duration": 11, "velocity": 94}, {"time": 3466, "pitch": 80, "duration": 9, "velocity": 96}, {"time": 3478, "pitch": 78, "duration": 9, "velocity": 90}, {"time": 3490, "pitch": 73, "duration": 8, "velocity": 90}, {"time": 3502, "pitch": 78, "duration": 10, "velocity": 96}, {"time": 3514, "pitch": 78, "duration": 24, "velocity": 96}, {"time": 3544, "pitch": 73, "duration": 5, "velocity": 90}, {"time": 3550, "pitch": 81, "duration": 10, "velocity": 95}, {"time": 3562, "pitch": 80, "duration": 9, "velocity": 96}, {"time": 3574, "pitch": 78, "duration": 4, "velocity": 95}, {"time": 3580, "pitch": 73, "duration": 7, "velocity": 94}, {"time": 3598, "pitch": 78, "duration": 10, "velocity": 95}, {"time": 3610, "pitch": 80, "duration": 11, "velocity": 95}, {"time": 3622, "pitch": 78, "duration": 13, "velocity": 95}, {"time": 3640, "pitch": 73, "duration": 4, "velocity": 100}, {"time": 3646, "pitch": 81, "duration": 10, "velocity": 96}, {"time": 3658, "pitch": 80, "duration": 10, "velocity": 95}, {"time": 3670, "pitch": 78, "duration": 4, "velocity": 95}, {"time": 3676, "pitch": 73, "duration": 16, "velocity": 93}, {"time": 3694, "pitch": 78, "duration": 10, "velocity": 96}, {"time": 3706, "pitch": 78, "duration": 24, "velocity": 95}, {"time": 3736, "pitch": 73, "duration": 4, "velocity": 94}, {"time": 3742, "pitch": 81, "duration": 10, "velocity": 94}, {"time": 3754, "pitch": 80, "duration": 10, "velocity": 92}, {"time": 3766, "pitch": 78, "duration": 4, "velocity": 95}, {"time": 3778, "pitch": 73, "duration": 11, "velocity": 94}, {"time": 3790, "pitch": 78, "duration": 10, "velocity": 94}, {"time": 3802, "pitch": 80, "duration": 10, "velocity": 96}, {"time": 3814, "pitch": 78, "duration": 12, "velocity": 96}, {"time": 3826, "pitch": 78, "duration": 4, "velocity": 95}, {"time": 3832, "pitch": 78, "duration": 21, "velocity": 95}, {"time": 3874, "pitch": 78, "duration": 6, "velocity": 96}, {"time": 3880, "pitch": 78, "duration": 9, "velocity": 96}, {"time": 3892, "pitch": 76, "duration": 12, "velocity": 94}, {"time": 3904, "pitch": 73, "duration": 12, "velocity": 93}, {"time": 3928, "pitch": 78, "duration": 9, "velocity": 97}, {"time": 3940, "pitch": 76, "duration": 4, "velocity": 95}, {"time": 3946, "pitch": 73, "duration": 11, "velocity": 93}, {"time": 3958, "pitch": 71, "duration": 9, "velocity": 95}, {"time": 3970, "pitch": 64, "duration": 5, "velocity": 99}, {"time": 3976, "pitch": 68, "duration": 8, "velocity": 96}, {"time": 3988, "pitch": 69, "duration": 4, "velocity": 94}, {"time": 3994, "pitch": 74, "duration": 11, "velocity": 98}, {"time": 4006, "pitch": 73, "duration": 41, "velocity": 95}, {"time": 4066, "pitch": 78, "duration": 4, "velocity": 98}, {"time": 4072, "pitch": 78, "duration": 10, "velocity": 96}, {"time": 4084, "pitch": 76, "duration": 4, "velocity": 94}, {"time": 4090, "pitch": 73, "duration": 12, "velocity": 95}, {"time": 4102, "pitch": 71, "duration": 15, "velocity": 95}, {"time": 4120, "pitch": 78, "duration": 12, "velocity": 96}, {"time": 4132, "pitch": 76, "duration": 5, "velocity": 99}, {"time": 4138, "pitch": 73, "duration": 11, "velocity": 96}, {"time": 4150, "pitch": 71, "duration": 10, "velocity": 91}, {"time": 4162, "pitch": 64, "duration": 4, "velocity": 85}, {"time": 4168, "pitch": 68, "duration": 10, "velocity": 98}, {"time": 4180, "pitch": 69, "duration": 4, "velocity": 93}, {"time": 4186, "pitch": 74, "duration": 12, "velocity": 96}, {"time": 4198, "pitch": 73, "duration": 37, "velocity": 96}, {"time": 4258, "pitch": 78, "duration": 4, "velocity": 98}, {"time": 4264, "pitch": 78, "duration": 9, "velocity": 98}, {"time": 4276, "pitch": 76, "duration": 3, "velocity": 96}, {"time": 4282, "pitch": 73, "duration": 11, "velocity": 97}, {"time": 4312, "pitch": 78, "duration": 9, "velocity": 96}, {"time": 4324, "pitch": 76, "duration": 4, "velocity": 95}, {"time": 4330, "pitch": 73, "duration": 11, "velocity": 97}, {"time": 4342, "pitch": 71, "duration": 12, "velocity": 94}, {"time": 4354, "pitch": 64, "duration": 5, "velocity": 96}, {"time": 4360, "pitch": 68, "duration": 8, "velocity": 90}, {"time": 4372, "pitch": 69, "duration": 6, "velocity": 87}, {"time": 4378, "pitch": 74, "duration": 25, "velocity": 100}, {"time": 4405, "pitch": 73, "duration": 40, "velocity": 89}]}, {"program": 0, "is_drum": false, "name": "PIANO", "notes": [{"time": 16, "pitch": 50, "duration": 41, "velocity": 94}, {"time": 22, "pitch": 57, "duration": 34, "velocity": 81}, {"time": 28, "pitch": 64, "duration": 5, "velocity": 90}, {"time": 34, "pitch": 62, "duration": 39, "velocity": 77}, {"time": 34, "pitch": 69, "duration": 40, "velocity": 82}, {"time": 64, "pitch": 50, "duration": 32, "velocity": 92}, {"time": 70, "pitch": 57, "duration": 26, "velocity": 77}, {"time": 76, "pitch": 64, "duration": 5, "velocity": 88}, {"time": 82, "pitch": 62, "duration": 25, "velocity": 80}, {"time": 82, "pitch": 69, "duration": 34, "velocity": 88}, {"time": 112, "pitch": 49, "duration": 32, "velocity": 91}, {"time": 118, "pitch": 56, "duration": 27, "velocity": 72}, {"time": 124, "pitch": 61, "duration": 4, "velocity": 85}, {"time": 130, "pitch": 61, "duration": 24, "velocity": 90}, {"time": 130, "pitch": 68, "duration": 24, "velocity": 85}, {"time": 160, "pitch": 42, "duration": 36, "velocity": 91}, {"time": 166, "pitch": 49, "duration": 30, "velocity": 79}, {"time": 172, "pitch": 54, "duration": 5, "velocity": 94}, {"time": 178, "pitch": 54, "duration": 18, "velocity": 90}, {"time": 178, "pitch": 61, "duration": 18, "velocity": 94}, {"time": 178, "pitch": 66, "duration": 20, "velocity": 89}, {"time": 208, "pitch": 38, "duration": 42, "velocity": 96}, {"time": 208, "pitch": 62, "duration": 4, "velocity": 93}, {"time": 208, "pitch": 66, "duration": 4, "velocity": 94}, {"time": 220, "pitch": 62, "duration": 2, "velocity": 94}, {"time": 220, "pitch": 66, "duration": 3, "velocity": 100}, {"time": 220, "pitch": 69, "duration": 7, "velocity": 98}, {"time": 223, "pitch": 45, "duration": 28, "velocity": 80}, {"time": 226, "pitch": 62, "duration": 4, "velocity": 86}, {"time": 232, "pitch": 62, "duration": 3, "velocity": 94}, {"time": 232, "pitch": 66, "duration": 4, "velocity": 98}, {"time": 232, "pitch": 69, "duration": 7, "velocity": 95}, {"time": 238, "pitch": 62, "duration": 3, "velocity": 78}, {"time": 244, "pitch": 62, "duration": 3, "velocity": 97}, {"time": 244, "pitch": 66, "duration": 4, "velocity": 105}, {"time": 244, "pitch": 69, "duration": 8, "velocity": 98}, {"time": 250, "pitch": 62, "duration": 3, "velocity": 86}, {"time": 256, "pitch": 40, "duration": 39, "velocity": 98}, {"time": 256, "pitch": 64, "duration": 3, "velocity": 95}, {"time": 256, "pitch": 68, "duration": 7, "velocity": 89}, {"time": 262, "pitch": 64, "duration": 3, "velocity": 87}, {"time": 268, "pitch": 64, "duration": 2, "velocity": 98}, {"time": 268, "pitch": 68, "duration": 4, "velocity": 103}, {"time": 268, "pitch": 71, "duration": 7, "velocity": 96}, {"time": 274, "pitch": 64, "duration": 2, "velocity": 81}, {"time": 280, "pitch": 64, "duration": 2, "velocity": 98}, {"time": 280, "pitch": 68, "duration": 3, "velocity": 100}, {"time": 280, "pitch": 71, "duration": 8, "velocity": 96}, {"time": 286, "pitch": 64, "duration": 3, "velocity": 87}, {"time": 292, "pitch": 64, "duration": 3, "velocity": 101}, {"time": 292, "pitch": 68, "duration": 3, "velocity": 108}, {"time": 292, "pitch": 71, "duration": 4, "velocity": 99}, {"time": 304, "pitch": 37, "duration": 21, "velocity": 100}, {"time": 304, "pitch": 61, "duration": 3, "velocity": 93}, {"time": 304, "pitch": 64, "duration": 7, "velocity": 99}, {"time": 304, "pitch": 68, "duration": 8, "velocity": 98}, {"time": 310, "pitch": 61, "duration": 4, "velocity": 92}, {"time": 316, "pitch": 61, "duration": 3, "velocity": 96}, {"time": 316, "pitch": 64, "duration": 3, "velocity": 108}, {"time": 316, "pitch": 68, "duration": 7, "velocity": 97}, {"time": 322, "pitch": 61, "duration": 4, "velocity": 96}, {"time": 328, "pitch": 37, "duration": 14, "velocity": 98}, {"time": 328, "pitch": 61, "duration": 1, "velocity": 86}, {"time": 328, "pitch": 64, "duration": 7, "velocity": 100}, {"time": 328, "pitch": 68, "duration": 8, "velocity": 95}, {"time": 334, "pitch": 61, "duration": 3, "velocity": 90}, {"time": 340, "pitch": 61, "duration": 2, "velocity": 99}, {"time": 340, "pitch": 64, "duration": 5, "velocity": 108}, {"time": 340, "pitch": 68, "duration": 6, "velocity": 101}, {"time": 346, "pitch": 61, "duration": 1, "velocity": 95}, {"time": 352, "pitch": 42, "duration": 48, "velocity": 105}, {"time": 352, "pitch": 54, "duration": 5, "velocity": 95}, {"time": 352, "pitch": 59, "duration": 5, "velocity": 95}, {"time": 358, "pitch": 49, "duration": 10, "velocity": 82}, {"time": 364, "pitch": 54, "duration": 10, "velocity": 99}, {"time": 364, "pitch": 61, "duration": 9, "velocity": 98}, {"time": 370, "pitch": 49, "duration": 8, "velocity": 78}, {"time": 376, "pitch": 54, "duration": 5, "velocity": 86}, {"time": 376, "pitch": 61, "duration": 6, "velocity": 86}, {"time": 382, "pitch": 49, "duration": 19, "velocity": 88}, {"time": 388, "pitch": 54, "duration": 3, "velocity": 99}, {"time": 388, "pitch": 61, "duration": 12, "velocity": 95}, {"time": 391, "pitch": 54, "duration": 7, "velocity": 94}, {"time": 400, "pitch": 50, "duration": 42, "velocity": 96}, {"time": 400, "pitch": 57, "duration": 7, "velocity": 83}, {"time": 400, "pitch": 62, "duration": 15, "velocity": 88}, {"time": 412, "pitch": 57, "duration": 27, "velocity": 78}, {"time": 418, "pitch": 62, "duration": 4, "velocity": 82}, {"time": 448, "pitch": 52, "duration": 32, "velocity": 96}, {"time": 454, "pitch": 59, "duration": 18, "velocity": 79}, {"time": 460, "pitch": 64, "duration": 4, "velocity": 78}, {"time": 466, "pitch": 64, "duration": 19, "velocity": 95}, {"time": 466, "pitch": 68, "duration": 19, "velocity": 92}, {"time": 496, "pitch": 49, "duration": 31, "velocity": 94}, {"time": 496, "pitch": 61, "duration": 10, "velocity": 87}, {"time": 496, "pitch": 68, "duration": 15, "velocity": 90}, {"time": 502, "pitch": 56, "duration": 25, "velocity": 71}, {"time": 508, "pitch": 61, "duration": 5, "velocity": 90}, {"time": 514, "pitch": 61, "duration": 17, "velocity": 87}, {"time": 514, "pitch": 68, "duration": 16, "velocity": 85}, {"time": 544, "pitch": 42, "duration": 22, "velocity": 95}, {"time": 544, "pitch": 54, "duration": 9, "velocity": 86}, {"time": 544, "pitch": 59, "duration": 13, "velocity": 91}, {"time": 550, "pitch": 49, "duration": 18, "velocity": 77}, {"time": 556, "pitch": 54, "duration": 7, "velocity": 71}, {"time": 562, "pitch": 59, "duration": 3, "velocity": 81}, {"time": 568, "pitch": 42, "duration": 14, "velocity": 94}, {"time": 568, "pitch": 54, "duration": 9, "velocity": 89}, {"time": 568, "pitch": 58, "duration": 7, "velocity": 85}, {"time": 574, "pitch": 49, "duration": 8, "velocity": 79}, {"time": 580, "pitch": 54, "duration": 2, "velocity": 80}, {"time": 580, "pitch": 61, "duration": 3, "velocity": 81}, {"time": 592, "pitch": 38, "duration": 34, "velocity": 93}, {"time": 592, "pitch": 62, "duration": 6, "velocity": 88}, {"time": 592, "pitch": 66, "duration": 10, "velocity": 83}, {"time": 598, "pitch": 45, "duration": 28, "velocity": 75}, {"time": 604, "pitch": 57, "duration": 4, "velocity": 85}, {"time": 610, "pitch": 57, "duration": 21, "velocity": 89}, {"time": 610, "pitch": 66, "duration": 23, "velocity": 91}, {"time": 640, "pitch": 40, "duration": 36, "velocity": 95}, {"time": 640, "pitch": 59, "duration": 8, "velocity": 86}, {"time": 640, "pitch": 64, "duration": 14, "velocity": 88}, {"time": 646, "pitch": 47, "duration": 29, "velocity": 84}, {"time": 652, "pitch": 59, "duration": 4, "velocity": 90}, {"time": 658, "pitch": 59, "duration": 17, "velocity": 94}, {"time": 658, "pitch": 64, "duration": 16, "velocity": 96}, {"time": 658, "pitch": 68, "duration": 16, "velocity": 89}, {"time": 688, "pitch": 37, "duration": 29, "velocity": 95}, {"time": 688, "pitch": 56, "duration": 14, "velocity": 84}, {"time": 688, "pitch": 64, "duration": 13, "velocity": 96}, {"time": 694, "pitch": 44, "duration": 23, "velocity": 77}, {"time": 700, "pitch": 61, "duration": 5, "velocity": 89}, {"time": 706, "pitch": 56, "duration": 14, "velocity": 87}, {"time": 706, "pitch": 64, "duration": 20, "velocity": 99}, {"time": 736, "pitch": 42, "duration": 38, "velocity": 91}, {"time": 736, "pitch": 54, "duration": 9, "velocity": 86}, {"time": 736, "pitch": 59, "duration": 9, "velocity": 90}, {"time": 742, "pitch": 49, "duration": 8, "velocity": 53}, {"time": 748, "pitch": 54, "duration": 5, "velocity": 91}, {"time": 748, "pitch": 59, "duration": 4, "velocity": 94}, {"time": 754, "pitch": 49, "duration": 9, "velocity": 78}, {"time": 760, "pitch": 54, "duration": 9, "velocity": 94}, {"time": 760, "pitch": 61, "duration": 9, "velocity": 88}, {"time": 766, "pitch": 49, "duration": 8, "velocity": 73}, {"time": 772, "pitch": 54, "duration": 1, "velocity": 82}, {"time": 772, "pitch": 61, "duration": 2, "velocity": 83}, {"time": 784, "pitch": 38, "duration": 22, "velocity": 95}, {"time": 784, "pitch": 57, "duration": 9, "velocity": 81}, {"time": 784, "pitch": 62, "duration": 9, "velocity": 84}, {"time": 790, "pitch": 45, "duration": 12, "velocity": 62}, {"time": 796, "pitch": 62, "duration": 7, "velocity": 86}, {"time": 796, "pitch": 66, "duration": 8, "velocity": 88}, {"time": 808, "pitch": 57, "duration": 5, "velocity": 81}, {"time": 808, "pitch": 62, "duration": 9, "velocity": 86}, {"time": 820, "pitch": 62, "duration": 10, "velocity": 95}, {"time": 820, "pitch": 66, "duration": 7, "velocity": 95}, {"time": 826, "pitch": 57, "duration": 3, "velocity": 91}, {"time": 832, "pitch": 40, "duration": 38, "velocity": 94}, {"time": 832, "pitch": 59, "duration": 5, "velocity": 88}, {"time": 832, "pitch": 64, "duration": 5, "velocity": 90}, {"time": 838, "pitch": 47, "duration": 28, "velocity": 68}, {"time": 844, "pitch": 59, "duration": 3, "velocity": 88}, {"time": 844, "pitch": 68, "duration": 6, "velocity": 81}, {"time": 850, "pitch": 59, "duration": 3, "velocity": 59}, {"time": 856, "pitch": 64, "duration": 8, "velocity": 94}, {"time": 856, "pitch": 68, "duration": 7, "velocity": 90}, {"time": 862, "pitch": 59, "duration": 3, "velocity": 73}, {"time": 868, "pitch": 59, "duration": 2, "velocity": 92}, {"time": 868, "pitch": 64, "duration": 3, "velocity": 96}, {"time": 868, "pitch": 68, "duration": 4, "velocity": 94}, {"time": 880, "pitch": 37, "duration": 35, "velocity": 84}, {"time": 880, "pitch": 61, "duration": 10, "velocity": 86}, {"time": 880, "pitch": 64, "duration": 9, "velocity": 100}, {"time": 886, "pitch": 44, "duration": 30, "velocity": 77}, {"time": 892, "pitch": 64, "duration": 2, "velocity": 95}, {"time": 892, "pitch": 68, "duration": 3, "velocity": 87}, {"time": 904, "pitch": 64, "duration": 8, "velocity": 92}, {"time": 904, "pitch": 68, "duration": 5, "velocity": 83}, {"time": 910, "pitch": 61, "duration": 3, "velocity": 74}, {"time": 916, "pitch": 61, "duration": 3, "velocity": 93}, {"time": 916, "pitch": 64, "duration": 1, "velocity": 89}, {"time": 916, "pitch": 68, "duration": 2, "velocity": 88}, {"time": 928, "pitch": 42, "duration": 21, "velocity": 85}, {"time": 928, "pitch": 54, "duration": 9, "velocity": 83}, {"time": 928, "pitch": 59, "duration": 9, "velocity": 90}, {"time": 934, "pitch": 49, "duration": 8, "velocity": 57}, {"time": 940, "pitch": 54, "duration": 4, "velocity": 94}, {"time": 940, "pitch": 59, "duration": 4, "velocity": 95}, {"time": 946, "pitch": 49, "duration": 9, "velocity": 67}, {"time": 952, "pitch": 42, "duration": 16, "velocity": 80}, {"time": 952, "pitch": 54, "duration": 9, "velocity": 85}, {"time": 952, "pitch": 61, "duration": 10, "velocity": 85}, {"time": 958, "pitch": 49, "duration": 11, "velocity": 71}, {"time": 964, "pitch": 54, "duration": 6, "velocity": 98}, {"time": 964, "pitch": 61, "duration": 9, "velocity": 96}, {"time": 970, "pitch": 42, "duration": 3, "velocity": 95}, {"time": 976, "pitch": 38, "duration": 39, "velocity": 95}, {"time": 976, "pitch": 57, "duration": 6, "velocity": 84}, {"time": 976, "pitch": 66, "duration": 8, "velocity": 88}, {"time": 982, "pitch": 45, "duration": 33, "velocity": 68}, {"time": 988, "pitch": 57, "duration": 3, "velocity": 84}, {"time": 988, "pitch": 62, "duration": 7, "velocity": 91}, {"time": 1000, "pitch": 62, "duration": 8, "velocity": 89}, {"time": 1000, "pitch": 66, "duration": 7, "velocity": 89}, {"time": 1006, "pitch": 57, "duration": 4, "velocity": 63}, {"time": 1012, "pitch": 62, "duration": 11, "velocity": 96}, {"time": 1012, "pitch": 66, "duration": 11, "velocity": 97}, {"time": 1018, "pitch": 38, "duration": 4, "velocity": 96}, {"time": 1024, "pitch": 40, "duration": 37, "velocity": 96}, {"time": 1024, "pitch": 59, "duration": 7, "velocity": 90}, {"time": 1024, "pitch": 62, "duration": 1, "velocity": 75}, {"time": 1024, "pitch": 64, "duration": 6, "velocity": 94}, {"time": 1030, "pitch": 47, "duration": 29, "velocity": 80}, {"time": 1036, "pitch": 64, "duration": 7, "velocity": 96}, {"time": 1036, "pitch": 68, "duration": 7, "velocity": 84}, {"time": 1048, "pitch": 64, "duration": 8, "velocity": 94}, {"time": 1048, "pitch": 68, "duration": 8, "velocity": 90}, {"time": 1054, "pitch": 59, "duration": 4, "velocity": 66}, {"time": 1060, "pitch": 64, "duration": 7, "velocity": 94}, {"time": 1060, "pitch": 68, "duration": 8, "velocity": 91}, {"time": 1066, "pitch": 59, "duration": 1, "velocity": 71}, {"time": 1072, "pitch": 37, "duration": 40, "velocity": 93}, {"time": 1072, "pitch": 61, "duration": 9, "velocity": 84}, {"time": 1072, "pitch": 64, "duration": 8, "velocity": 95}, {"time": 1072, "pitch": 68, "duration": 9, "velocity": 89}, {"time": 1078, "pitch": 44, "duration": 33, "velocity": 79}, {"time": 1084, "pitch": 61, "duration": 3, "velocity": 89}, {"time": 1084, "pitch": 68, "duration": 7, "velocity": 90}, {"time": 1090, "pitch": 61, "duration": 5, "velocity": 86}, {"time": 1096, "pitch": 64, "duration": 7, "velocity": 96}, {"time": 1096, "pitch": 68, "duration": 8, "velocity": 92}, {"time": 1102, "pitch": 61, "duration": 4, "velocity": 77}, {"time": 1108, "pitch": 61, "duration": 3, "velocity": 92}, {"time": 1108, "pitch": 64, "duration": 2, "velocity": 96}, {"time": 1108, "pitch": 68, "duration": 3, "velocity": 89}, {"time": 1120, "pitch": 42, "duration": 22, "velocity": 94}, {"time": 1120, "pitch": 54, "duration": 8, "velocity": 86}, {"time": 1120, "pitch": 59, "duration": 8, "velocity": 92}, {"time": 1126, "pitch": 49, "duration": 9, "velocity": 61}, {"time": 1132, "pitch": 54, "duration": 4, "velocity": 97}, {"time": 1132, "pitch": 59, "duration": 7, "velocity": 96}, {"time": 1138, "pitch": 49, "duration": 5, "velocity": 87}, {"time": 1144, "pitch": 42, "duration": 15, "velocity": 96}, {"time": 1144, "pitch": 54, "duration": 4, "velocity": 89}, {"time": 1144, "pitch": 58, "duration": 4, "velocity": 87}, {"time": 1150, "pitch": 49, "duration": 8, "velocity": 81}, {"time": 1156, "pitch": 54, "duration": 2, "velocity": 94}, {"time": 1156, "pitch": 61, "duration": 3, "velocity": 94}, {"time": 1162, "pitch": 42, "duration": 2, "velocity": 91}, {"time": 1168, "pitch": 38, "duration": 39, "velocity": 94}, {"time": 1168, "pitch": 57, "duration": 13, "velocity": 86}, {"time": 1168, "pitch": 62, "duration": 9, "velocity": 90}, {"time": 1168, "pitch": 66, "duration": 9, "velocity": 88}, {"time": 1174, "pitch": 45, "duration": 33, "velocity": 71}, {"time": 1180, "pitch": 62, "duration": 7, "velocity": 90}, {"time": 1180, "pitch": 66, "duration": 7, "velocity": 88}, {"time": 1186, "pitch": 57, "duration": 7, "velocity": 77}, {"time": 1192, "pitch": 62, "duration": 2, "velocity": 88}, {"time": 1192, "pitch": 66, "duration": 3, "velocity": 95}, {"time": 1198, "pitch": 57, "duration": 3, "velocity": 70}, {"time": 1204, "pitch": 57, "duration": 2, "velocity": 94}, {"time": 1204, "pitch": 62, "duration": 3, "velocity": 95}, {"time": 1204, "pitch": 66, "duration": 4, "velocity": 95}, {"time": 1216, "pitch": 40, "duration": 37, "velocity": 95}, {"time": 1216, "pitch": 59, "duration": 5, "velocity": 89}, {"time": 1216, "pitch": 64, "duration": 11, "velocity": 94}, {"time": 1222, "pitch": 47, "duration": 31, "velocity": 82}, {"time": 1228, "pitch": 56, "duration": 5, "velocity": 77}, {"time": 1228, "pitch": 59, "duration": 7, "velocity": 90}, {"time": 1228, "pitch": 64, "duration": 6, "velocity": 89}, {"time": 1234, "pitch": 52, "duration": 8, "velocity": 76}, {"time": 1240, "pitch": 56, "duration": 7, "velocity": 80}, {"time": 1240, "pitch": 59, "duration": 8, "velocity": 83}, {"time": 1240, "pitch": 64, "duration": 8, "velocity": 89}, {"time": 1246, "pitch": 52, "duration": 7, "velocity": 85}, {"time": 1252, "pitch": 56, "duration": 3, "velocity": 95}, {"time": 1252, "pitch": 59, "duration": 3, "velocity": 94}, {"time": 1252, "pitch": 64, "duration": 5, "velocity": 96}, {"time": 1264, "pitch": 37, "duration": 36, "velocity": 94}, {"time": 1264, "pitch": 64, "duration": 7, "velocity": 97}, {"time": 1270, "pitch": 56, "duration": 4, "velocity": 81}, {"time": 1276, "pitch": 56, "duration": 2, "velocity": 91}, {"time": 1276, "pitch": 64, "duration": 8, "velocity": 97}, {"time": 1282, "pitch": 56, "duration": 2, "velocity": 39}, {"time": 1288, "pitch": 56, "duration": 4, "velocity": 86}, {"time": 1288, "pitch": 64, "duration": 7, "velocity": 96}, {"time": 1294, "pitch": 56, "duration": 3, "velocity": 57}, {"time": 1300, "pitch": 56, "duration": 3, "velocity": 88}, {"time": 1300, "pitch": 64, "duration": 3, "velocity": 96}, {"time": 1312, "pitch": 42, "duration": 43, "velocity": 94}, {"time": 1312, "pitch": 54, "duration": 8, "velocity": 86}, {"time": 1312, "pitch": 59, "duration": 8, "velocity": 92}, {"time": 1318, "pitch": 49, "duration": 8, "velocity": 59}, {"time": 1324, "pitch": 54, "duration": 5, "velocity": 100}, {"time": 1324, "pitch": 59, "duration": 5, "velocity": 98}, {"time": 1330, "pitch": 49, "duration": 8, "velocity": 85}, {"time": 1336, "pitch": 54, "duration": 7, "velocity": 96}, {"time": 1336, "pitch": 58, "duration": 6, "velocity": 95}, {"time": 1342, "pitch": 49, "duration": 8, "velocity": 81}, {"time": 1348, "pitch": 54, "duration": 11, "velocity": 93}, {"time": 1348, "pitch": 61, "duration": 12, "velocity": 95}, {"time": 1354, "pitch": 49, "duration": 7, "velocity": 88}, {"time": 1360, "pitch": 38, "duration": 39, "velocity": 94}, {"time": 1360, "pitch": 62, "duration": 8, "velocity": 89}, {"time": 1360, "pitch": 66, "duration": 8, "velocity": 83}, {"time": 1366, "pitch": 57, "duration": 7, "velocity": 80}, {"time": 1372, "pitch": 62, "duration": 2, "velocity": 95}, {"time": 1372, "pitch": 66, "duration": 4, "velocity": 97}, {"time": 1378, "pitch": 57, "duration": 3, "velocity": 69}, {"time": 1384, "pitch": 62, "duration": 7, "velocity": 88}, {"time": 1384, "pitch": 66, "duration": 5, "velocity": 86}, {"time": 1390, "pitch": 57, "duration": 4, "velocity": 59}, {"time": 1396, "pitch": 62, "duration": 10, "velocity": 96}, {"time": 1396, "pitch": 66, "duration": 11, "velocity": 98}, {"time": 1402, "pitch": 38, "duration": 4, "velocity": 97}, {"time": 1408, "pitch": 40, "duration": 41, "velocity": 97}, {"time": 1408, "pitch": 59, "duration": 7, "velocity": 89}, {"time": 1408, "pitch": 64, "duration": 6, "velocity": 94}, {"time": 1414, "pitch": 47, "duration": 34, "velocity": 79}, {"time": 1420, "pitch": 64, "duration": 8, "velocity": 93}, {"time": 1420, "pitch": 68, "duration": 7, "velocity": 93}, {"time": 1426, "pitch": 59, "duration": 7, "velocity": 74}, {"time": 1432, "pitch": 64, "duration": 8, "velocity": 90}, {"time": 1432, "pitch": 68, "duration": 7, "velocity": 90}, {"time": 1438, "pitch": 59, "duration": 3, "velocity": 79}, {"time": 1444, "pitch": 59, "duration": 4, "velocity": 94}, {"time": 1444, "pitch": 64, "duration": 3, "velocity": 98}, {"time": 1444, "pitch": 68, "duration": 3, "velocity": 95}, {"time": 1456, "pitch": 45, "duration": 46, "velocity": 95}, {"time": 1456, "pitch": 57, "duration": 8, "velocity": 91}, {"time": 1456, "pitch": 61, "duration": 8, "velocity": 93}, {"time": 1462, "pitch": 52, "duration": 22, "velocity": 82}, {"time": 1468, "pitch": 57, "duration": 1, "velocity": 65}, {"time": 1468, "pitch": 61, "duration": 4, "velocity": 83}, {"time": 1468, "pitch": 64, "duration": 4, "velocity": 94}, {"time": 1480, "pitch": 61, "duration": 6, "velocity": 95}, {"time": 1480, "pitch": 64, "duration": 8, "velocity": 95}, {"time": 1486, "pitch": 52, "duration": 15, "velocity": 76}, {"time": 1492, "pitch": 61, "duration": 7, "velocity": 94}, {"time": 1492, "pitch": 64, "duration": 7, "velocity": 95}, {"time": 1492, "pitch": 69, "duration": 6, "velocity": 93}, {"time": 1498, "pitch": 57, "duration": 14, "velocity": 88}, {"time": 1504, "pitch": 45, "duration": 41, "velocity": 94}, {"time": 1504, "pitch": 61, "duration": 9, "velocity": 86}, {"time": 1504, "pitch": 64, "duration": 9, "velocity": 94}, {"time": 1510, "pitch": 52, "duration": 22, "velocity": 80}, {"time": 1516, "pitch": 61, "duration": 4, "velocity": 86}, {"time": 1516, "pitch": 64, "duration": 8, "velocity": 94}, {"time": 1522, "pitch": 57, "duration": 5, "velocity": 72}, {"time": 1528, "pitch": 61, "duration": 3, "velocity": 95}, {"time": 1528, "pitch": 64, "duration": 6, "velocity": 98}, {"time": 1534, "pitch": 52, "duration": 11, "velocity": 78}, {"time": 1534, "pitch": 57, "duration": 2, "velocity": 68}, {"time": 1540, "pitch": 57, "duration": 10, "velocity": 97}, {"time": 1540, "pitch": 61, "duration": 9, "velocity": 110}, {"time": 1540, "pitch": 64, "duration": 5, "velocity": 100}, {"time": 1552, "pitch": 42, "duration": 15, "velocity": 94}, {"time": 1552, "pitch": 61, "duration": 9, "velocity": 90}, {"time": 1552, "pitch": 66, "duration": 9, "velocity": 94}, {"time": 1558, "pitch": 49, "duration": 9, "velocity": 72}, {"time": 1564, "pitch": 61, "duration": 7, "velocity": 101}, {"time": 1564, "pitch": 66, "duration": 8, "velocity": 95}, {"time": 1570, "pitch": 57, "duration": 2, "velocity": 97}, {"time": 1576, "pitch": 40, "duration": 16, "velocity": 96}, {"time": 1576, "pitch": 59, "duration": 10, "velocity": 85}, {"time": 1576, "pitch": 64, "duration": 9, "velocity": 94}, {"time": 1576, "pitch": 68, "duration": 9, "velocity": 89}, {"time": 1582, "pitch": 47, "duration": 10, "velocity": 74}, {"time": 1588, "pitch": 64, "duration": 6, "velocity": 100}, {"time": 1588, "pitch": 68, "duration": 7, "velocity": 101}, {"time": 1594, "pitch": 59, "duration": 3, "velocity": 87}, {"time": 1600, "pitch": 38, "duration": 40, "velocity": 95}, {"time": 1600, "pitch": 62, "duration": 9, "velocity": 94}, {"time": 1600, "pitch": 66, "duration": 9, "velocity": 92}, {"time": 1606, "pitch": 45, "duration": 33, "velocity": 78}, {"time": 1612, "pitch": 62, "duration": 6, "velocity": 95}, {"time": 1612, "pitch": 66, "duration": 4, "velocity": 99}, {"time": 1618, "pitch": 57, "duration": 4, "velocity": 81}, {"time": 1624, "pitch": 62, "duration": 7, "velocity": 94}, {"time": 1624, "pitch": 66, "duration": 6, "velocity": 90}, {"time": 1636, "pitch": 62, "duration": 5, "velocity": 94}, {"time": 1636, "pitch": 66, "duration": 6, "velocity": 92}, {"time": 1648, "pitch": 42, "duration": 14, "velocity": 94}, {"time": 1648, "pitch": 61, "duration": 8, "velocity": 94}, {"time": 1648, "pitch": 66, "duration": 9, "velocity": 89}, {"time": 1654, "pitch": 49, "duration": 8, "velocity": 67}, {"time": 1660, "pitch": 61, "duration": 6, "velocity": 99}, {"time": 1660, "pitch": 66, "duration": 7, "velocity": 95}, {"time": 1666, "pitch": 57, "duration": 2, "velocity": 94}, {"time": 1672, "pitch": 40, "duration": 16, "velocity": 97}, {"time": 1672, "pitch": 59, "duration": 4, "velocity": 88}, {"time": 1672, "pitch": 64, "duration": 8, "velocity": 95}, {"time": 1672, "pitch": 68, "duration": 8, "velocity": 89}, {"time": 1678, "pitch": 59, "duration": 7, "velocity": 84}, {"time": 1684, "pitch": 64, "duration": 5, "velocity": 97}, {"time": 1684, "pitch": 68, "duration": 6, "velocity": 103}, {"time": 1690, "pitch": 59, "duration": 5, "velocity": 83}, {"time": 1696, "pitch": 47, "duration": 39, "velocity": 94}, {"time": 1696, "pitch": 59, "duration": 3, "velocity": 89}, {"time": 1696, "pitch": 63, "duration": 6, "velocity": 88}, {"time": 1696, "pitch": 66, "duration": 6, "velocity": 85}, {"time": 1702, "pitch": 59, "duration": 4, "velocity": 85}, {"time": 1708, "pitch": 59, "duration": 8, "velocity": 91}, {"time": 1708, "pitch": 63, "duration": 7, "velocity": 96}, {"time": 1708, "pitch": 66, "duration": 8, "velocity": 86}, {"time": 1714, "pitch": 54, "duration": 8, "velocity": 77}, {"time": 1720, "pitch": 59, "duration": 6, "velocity": 90}, {"time": 1720, "pitch": 63, "duration": 6, "velocity": 84}, {"time": 1720, "pitch": 66, "duration": 5, "velocity": 81}, {"time": 1726, "pitch": 54, "duration": 7, "velocity": 59}, {"time": 1732, "pitch": 59, "duration": 4, "velocity": 95}, {"time": 1732, "pitch": 63, "duration": 3, "velocity": 98}, {"time": 1732, "pitch": 66, "duration": 4, "velocity": 95}, {"time": 1744, "pitch": 42, "duration": 14, "velocity": 97}, {"time": 1744, "pitch": 61, "duration": 8, "velocity": 86}, {"time": 1744, "pitch": 66, "duration": 8, "velocity": 87}, {"time": 1750, "pitch": 49, "duration": 9, "velocity": 78}, {"time": 1756, "pitch": 61, "duration": 7, "velocity": 100}, {"time": 1756, "pitch": 66, "duration": 7, "velocity": 98}, {"time": 1762, "pitch": 57, "duration": 2, "velocity": 95}, {"time": 1768, "pitch": 40, "duration": 19, "velocity": 97}, {"time": 1768, "pitch": 64, "duration": 9, "velocity": 95}, {"time": 1768, "pitch": 68, "duration": 9, "velocity": 87}, {"time": 1774, "pitch": 47, "duration": 12, "velocity": 78}, {"time": 1780, "pitch": 64, "duration": 6, "velocity": 100}, {"time": 1780, "pitch": 68, "duration": 6, "velocity": 101}, {"time": 1786, "pitch": 59, "duration": 2, "velocity": 94}, {"time": 1792, "pitch": 38, "duration": 34, "velocity": 96}, {"time": 1792, "pitch": 62, "duration": 8, "velocity": 90}, {"time": 1792, "pitch": 66, "duration": 9, "velocity": 87}, {"time": 1798, "pitch": 57, "duration": 7, "velocity": 81}, {"time": 1804, "pitch": 62, "duration": 2, "velocity": 95}, {"time": 1804, "pitch": 66, "duration": 3, "velocity": 98}, {"time": 1816, "pitch": 62, "duration": 7, "velocity": 94}, {"time": 1816, "pitch": 66, "duration": 7, "velocity": 97}, {"time": 1822, "pitch": 57, "duration": 7, "velocity": 87}, {"time": 1828, "pitch": 62, "duration": 6, "velocity": 95}, {"time": 1828, "pitch": 66, "duration": 6, "velocity": 95}, {"time": 1834, "pitch": 57, "duration": 1, "velocity": 90}, {"time": 1840, "pitch": 42, "duration": 15, "velocity": 98}, {"time": 1840, "pitch": 57, "duration": 7, "velocity": 94}, {"time": 1840, "pitch": 61, "duration": 8, "velocity": 94}, {"time": 1846, "pitch": 49, "duration": 12, "velocity": 79}, {"time": 1852, "pitch": 54, "duration": 2, "velocity": 95}, {"time": 1852, "pitch": 57, "duration": 2, "velocity": 99}, {"time": 1852, "pitch": 61, "duration": 3, "velocity": 96}, {"time": 1858, "pitch": 42, "duration": 2, "velocity": 94}, {"time": 1864, "pitch": 40, "duration": 19, "velocity": 97}, {"time": 1864, "pitch": 59, "duration": 4, "velocity": 90}, {"time": 1864, "pitch": 64, "duration": 8, "velocity": 95}, {"time": 1864, "pitch": 68, "duration": 8, "velocity": 93}, {"time": 1870, "pitch": 59, "duration": 5, "velocity": 92}, {"time": 1876, "pitch": 59, "duration": 3, "velocity": 98}, {"time": 1876, "pitch": 64, "duration": 6, "velocity": 100}, {"time": 1876, "pitch": 68, "duration": 6, "velocity": 98}, {"time": 1882, "pitch": 59, "duration": 2, "velocity": 99}, {"time": 1888, "pitch": 39, "duration": 41, "velocity": 92}, {"time": 1888, "pitch": 66, "duration": 8, "velocity": 92}, {"time": 1888, "pitch": 69, "duration": 7, "velocity": 95}, {"time": 1894, "pitch": 63, "duration": 6, "velocity": 82}, {"time": 1900, "pitch": 66, "duration": 3, "velocity": 84}, {"time": 1900, "pitch": 69, "duration": 3, "velocity": 94}, {"time": 1906, "pitch": 63, "duration": 4, "velocity": 82}, {"time": 1912, "pitch": 66, "duration": 3, "velocity": 90}, {"time": 1912, "pitch": 69, "duration": 3, "velocity": 94}, {"time": 1918, "pitch": 63, "duration": 6, "velocity": 76}, {"time": 1924, "pitch": 66, "duration": 7, "velocity": 83}, {"time": 1924, "pitch": 69, "duration": 7, "velocity": 94}, {"time": 1930, "pitch": 63, "duration": 6, "velocity": 94}, {"time": 1936, "pitch": 50, "duration": 37, "velocity": 99}, {"time": 1942, "pitch": 57, "duration": 31, "velocity": 84}, {"time": 1948, "pitch": 62, "duration": 3, "velocity": 92}, {"time": 1948, "pitch": 66, "duration": 3, "velocity": 87}, {"time": 1954, "pitch": 69, "duration": 3, "velocity": 84}, {"time": 1960, "pitch": 62, "duration": 3, "velocity": 80}, {"time": 1960, "pitch": 74, "duration": 3, "velocity": 96}, {"time": 1972, "pitch": 62, "duration": 2, "velocity": 76}, {"time": 1972, "pitch": 66, "duration": 2, "velocity": 86}, {"time": 1972, "pitch": 69, "duration": 2, "velocity": 90}, {"time": 1984, "pitch": 47, "duration": 17, "velocity": 95}, {"time": 1984, "pitch": 59, "duration": 7, "velocity": 85}, {"time": 1984, "pitch": 62, "duration": 9, "velocity": 87}, {"time": 1990, "pitch": 54, "duration": 10, "velocity": 83}, {"time": 1996, "pitch": 59, "duration": 8, "velocity": 94}, {"time": 2002, "pitch": 62, "duration": 6, "velocity": 90}, {"time": 2008, "pitch": 40, "duration": 16, "velocity": 96}, {"time": 2008, "pitch": 59, "duration": 6, "velocity": 86}, {"time": 2008, "pitch": 64, "duration": 5, "velocity": 94}, {"time": 2014, "pitch": 47, "duration": 9, "velocity": 77}, {"time": 2020, "pitch": 59, "duration": 5, "velocity": 91}, {"time": 2020, "pitch": 68, "duration": 5, "velocity": 90}, {"time": 2032, "pitch": 45, "duration": 44, "velocity": 94}, {"time": 2038, "pitch": 52, "duration": 16, "velocity": 88}, {"time": 2044, "pitch": 59, "duration": 4, "velocity": 93}, {"time": 2050, "pitch": 57, "duration": 7, "velocity": 88}, {"time": 2050, "pitch": 61, "duration": 9, "velocity": 98}, {"time": 2053, "pitch": 52, "duration": 1, "velocity": 90}, {"time": 2062, "pitch": 57, "duration": 5, "velocity": 92}, {"time": 2068, "pitch": 61, "duration": 4, "velocity": 99}, {"time": 2068, "pitch": 64, "duration": 8, "velocity": 101}, {"time": 2074, "pitch": 57, "duration": 12, "velocity": 79}, {"time": 2080, "pitch": 45, "duration": 48, "velocity": 96}, {"time": 2080, "pitch": 61, "duration": 9, "velocity": 87}, {"time": 2080, "pitch": 69, "duration": 10, "velocity": 95}, {"time": 2086, "pitch": 52, "duration": 9, "velocity": 85}, {"time": 2092, "pitch": 57, "duration": 7, "velocity": 92}, {"time": 2092, "pitch": 61, "duration": 8, "velocity": 95}, {"time": 2092, "pitch": 64, "duration": 8, "velocity": 96}, {"time": 2098, "pitch": 52, "duration": 10, "velocity": 85}, {"time": 2104, "pitch": 61, "duration": 7, "velocity": 79}, {"time": 2110, "pitch": 57, "duration": 4, "velocity": 94}, {"time": 2116, "pitch": 57, "duration": 11, "velocity": 96}, {"time": 2116, "pitch": 61, "duration": 11, "velocity": 99}, {"time": 2116, "pitch": 64, "duration": 11, "velocity": 100}, {"time": 2122, "pitch": 52, "duration": 7, "velocity": 94}, {"time": 2128, "pitch": 38, "duration": 42, "velocity": 96}, {"time": 2128, "pitch": 62, "duration": 4, "velocity": 93}, {"time": 2128, "pitch": 66, "duration": 4, "velocity": 94}, {"time": 2140, "pitch": 62, "duration": 2, "velocity": 94}, {"time": 2140, "pitch": 66, "duration": 3, "velocity": 100}, {"time": 2140, "pitch": 69, "duration": 7, "velocity": 98}, {"time": 2143, "pitch": 45, "duration": 28, "velocity": 80}, {"time": 2146, "pitch": 62, "duration": 4, "velocity": 86}, {"time": 2152, "pitch": 62, "duration": 3, "velocity": 94}, {"time": 2152, "pitch": 66, "duration": 4, "velocity": 98}, {"time": 2152, "pitch": 69, "duration": 7, "velocity": 95}, {"time": 2158, "pitch": 62, "duration": 3, "velocity": 78}, {"time": 2164, "pitch": 62, "duration": 3, "velocity": 97}, {"time": 2164, "pitch": 66, "duration": 4, "velocity": 105}, {"time": 2164, "pitch": 69, "duration": 8, "velocity": 98}, {"time": 2170, "pitch": 62, "duration": 3, "velocity": 86}, {"time": 2176, "pitch": 40, "duration": 39, "velocity": 98}, {"time": 2176, "pitch": 64, "duration": 3, "velocity": 95}, {"time": 2176, "pitch": 68, "duration": 7, "velocity": 89}, {"time": 2182, "pitch": 64, "duration": 3, "velocity": 87}, {"time": 2188, "pitch": 64, "duration": 2, "velocity": 98}, {"time": 2188, "pitch": 68, "duration": 4, "velocity": 103}, {"time": 2188, "pitch": 71, "duration": 7, "velocity": 96}, {"time": 2194, "pitch": 64, "duration": 2, "velocity": 81}, {"time": 2200, "pitch": 64, "duration": 2, "velocity": 98}, {"time": 2200, "pitch": 68, "duration": 3, "velocity": 100}, {"time": 2200, "pitch": 71, "duration": 8, "velocity": 96}, {"time": 2206, "pitch": 64, "duration": 3, "velocity": 87}, {"time": 2212, "pitch": 64, "duration": 3, "velocity": 101}, {"time": 2212, "pitch": 68, "duration": 3, "velocity": 108}, {"time": 2212, "pitch": 71, "duration": 4, "velocity": 99}, {"time": 2224, "pitch": 37, "duration": 21, "velocity": 100}, {"time": 2224, "pitch": 61, "duration": 3, "velocity": 93}, {"time": 2224, "pitch": 64, "duration": 7, "velocity": 99}, {"time": 2224, "pitch": 68, "duration": 8, "velocity": 98}, {"time": 2230, "pitch": 61, "duration": 4, "velocity": 92}, {"time": 2236, "pitch": 61, "duration": 3, "velocity": 96}, {"time": 2236, "pitch": 64, "duration": 3, "velocity": 108}, {"time": 2236, "pitch": 68, "duration": 7, "velocity": 97}, {"time": 2242, "pitch": 61, "duration": 4, "velocity": 96}, {"time": 2248, "pitch": 37, "duration": 14, "velocity": 98}, {"time": 2248, "pitch": 61, "duration": 1, "velocity": 86}, {"time": 2248, "pitch": 64, "duration": 7, "velocity": 100}, {"time": 2248, "pitch": 68, "duration": 8, "velocity": 95}, {"time": 2254, "pitch": 61, "duration": 3, "velocity": 90}, {"time": 2260, "pitch": 61, "duration": 2, "velocity": 99}, {"time": 2260, "pitch": 64, "duration": 5, "velocity": 108}, {"time": 2260, "pitch": 68, "duration": 6, "velocity": 101}, {"time": 2266, "pitch": 61, "duration": 1, "velocity": 95}, {"time": 2272, "pitch": 42, "duration": 48, "velocity": 105}, {"time": 2272, "pitch": 54, "duration": 5, "velocity": 95}, {"time": 2272, "pitch": 59, "duration": 5, "velocity": 95}, {"time": 2278, "pitch": 49, "duration": 10, "velocity": 82}, {"time": 2284, "pitch": 54, "duration": 10, "velocity": 99}, {"time": 2284, "pitch": 61, "duration": 9, "velocity": 98}, {"time": 2290, "pitch": 49, "duration": 8, "velocity": 78}, {"time": 2296, "pitch": 54, "duration": 5, "velocity": 86}, {"time": 2296, "pitch": 61, "duration": 6, "velocity": 86}, {"time": 2302, "pitch": 49, "duration": 19, "velocity": 88}, {"time": 2308, "pitch": 54, "duration": 3, "velocity": 99}, {"time": 2308, "pitch": 61, "duration": 12, "velocity": 95}, {"time": 2311, "pitch": 54, "duration": 7, "velocity": 94}, {"time": 2320, "pitch": 38, "duration": 42, "velocity": 96}, {"time": 2320, "pitch": 62, "duration": 4, "velocity": 93}, {"time": 2320, "pitch": 66, "duration": 4, "velocity": 94}, {"time": 2332, "pitch": 62, "duration": 2, "velocity": 94}, {"time": 2332, "pitch": 66, "duration": 3, "velocity": 100}, {"time": 2332, "pitch": 69, "duration": 7, "velocity": 98}, {"time": 2335, "pitch": 45, "duration": 28, "velocity": 80}, {"time": 2338, "pitch": 62, "duration": 4, "velocity": 86}, {"time": 2344, "pitch": 62, "duration": 3, "velocity": 94}, {"time": 2344, "pitch": 66, "duration": 4, "velocity": 98}, {"time": 2344, "pitch": 69, "duration": 7, "velocity": 95}, {"time": 2350, "pitch": 62, "duration": 3, "velocity": 78}, {"time": 2356, "pitch": 62, "duration": 3, "velocity": 97}, {"time": 2356, "pitch": 66, "duration": 4, "velocity": 105}, {"time": 2356, "pitch": 69, "duration": 8, "velocity": 98}, {"time": 2362, "pitch": 62, "duration": 3, "velocity": 86}, {"time": 2368, "pitch": 40, "duration": 39, "velocity": 98}, {"time": 2368, "pitch": 64, "duration": 3, "velocity": 95}, {"time": 2368, "pitch": 68, "duration": 7, "velocity": 89}, {"time": 2374, "pitch": 64, "duration": 3, "velocity": 87}, {"time": 2380, "pitch": 64, "duration": 2, "velocity": 98}, {"time": 2380, "pitch": 68, "duration": 4, "velocity": 103}, {"time": 2380, "pitch": 71, "duration": 7, "velocity": 96}, {"time": 2386, "pitch": 64, "duration": 2, "velocity": 81}, {"time": 2392, "pitch": 64, "duration": 2, "velocity": 98}, {"time": 2392, "pitch": 68, "duration": 3, "velocity": 100}, {"time": 2392, "pitch": 71, "duration": 8, "velocity": 96}, {"time": 2398, "pitch": 64, "duration": 3, "velocity": 87}, {"time": 2404, "pitch": 64, "duration": 3, "velocity": 101}, {"time": 2404, "pitch": 68, "duration": 3, "velocity": 108}, {"time": 2404, "pitch": 71, "duration": 4, "velocity": 99}, {"time": 2416, "pitch": 37, "duration": 21, "velocity": 100}, {"time": 2416, "pitch": 61, "duration": 3, "velocity": 93}, {"time": 2416, "pitch": 64, "duration": 7, "velocity": 99}, {"time": 2416, "pitch": 68, "duration": 8, "velocity": 98}, {"time": 2422, "pitch": 61, "duration": 4, "velocity": 92}, {"time": 2428, "pitch": 61, "duration": 3, "velocity": 96}, {"time": 2428, "pitch": 64, "duration": 3, "velocity": 108}, {"time": 2428, "pitch": 68, "duration": 7, "velocity": 97}, {"time": 2434, "pitch": 61, "duration": 4, "velocity": 96}, {"time": 2440, "pitch": 37, "duration": 14, "velocity": 98}, {"time": 2440, "pitch": 61, "duration": 1, "velocity": 86}, {"time": 2440, "pitch": 64, "duration": 7, "velocity": 100}, {"time": 2440, "pitch": 68, "duration": 8, "velocity": 95}, {"time": 2446, "pitch": 61, "duration": 3, "velocity": 90}, {"time": 2452, "pitch": 61, "duration": 2, "velocity": 99}, {"time": 2452, "pitch": 64, "duration": 5, "velocity": 108}, {"time": 2452, "pitch": 68, "duration": 6, "velocity": 101}, {"time": 2458, "pitch": 61, "duration": 1, "velocity": 95}, {"time": 2464, "pitch": 42, "duration": 48, "velocity": 105}, {"time": 2464, "pitch": 54, "duration": 5, "velocity": 95}, {"time": 2464, "pitch": 59, "duration": 5, "velocity": 95}, {"time": 2470, "pitch": 49, "duration": 10, "velocity": 82}, {"time": 2476, "pitch": 54, "duration": 10, "velocity": 99}, {"time": 2476, "pitch": 61, "duration": 9, "velocity": 98}, {"time": 2482, "pitch": 49, "duration": 8, "velocity": 78}, {"time": 2488, "pitch": 54, "duration": 5, "velocity": 86}, {"time": 2488, "pitch": 61, "duration": 6, "velocity": 86}, {"time": 2494, "pitch": 49, "duration": 19, "velocity": 88}, {"time": 2500, "pitch": 54, "duration": 3, "velocity": 99}, {"time": 2500, "pitch": 61, "duration": 12, "velocity": 95}, {"time": 2503, "pitch": 54, "duration": 7, "velocity": 94}, {"time": 2512, "pitch": 38, "duration": 34, "velocity": 93}, {"time": 2512, "pitch": 62, "duration": 6, "velocity": 88}, {"time": 2512, "pitch": 66, "duration": 10, "velocity": 83}, {"time": 2518, "pitch": 45, "duration": 28, "velocity": 75}, {"time": 2524, "pitch": 57, "duration": 4, "velocity": 85}, {"time": 2530, "pitch": 57, "duration": 21, "velocity": 89}, {"time": 2530, "pitch": 66, "duration": 23, "velocity": 91}, {"time": 2560, "pitch": 40, "duration": 36, "velocity": 95}, {"time": 2560, "pitch": 59, "duration": 8, "velocity": 86}, {"time": 2560, "pitch": 64, "duration": 14, "velocity": 88}, {"time": 2566, "pitch": 47, "duration": 29, "velocity": 84}, {"time": 2572, "pitch": 59, "duration": 4, "velocity": 90}, {"time": 2578, "pitch": 59, "duration": 17, "velocity": 94}, {"time": 2578, "pitch": 64, "duration": 16, "velocity": 96}, {"time": 2578, "pitch": 68, "duration": 16, "velocity": 89}, {"time": 2608, "pitch": 37, "duration": 29, "velocity": 95}, {"time": 2608, "pitch": 56, "duration": 14, "velocity": 84}, {"time": 2608, "pitch": 64, "duration": 13, "velocity": 96}, {"time": 2614, "pitch": 44, "duration": 23, "velocity": 77}, {"time": 2620, "pitch": 61, "duration": 5, "velocity": 89}, {"time": 2626, "pitch": 56, "duration": 14, "velocity": 87}, {"time": 2626, "pitch": 64, "duration": 20, "velocity": 99}, {"time": 2656, "pitch": 42, "duration": 38, "velocity": 91}, {"time": 2656, "pitch": 54, "duration": 9, "velocity": 86}, {"time": 2656, "pitch": 59, "duration": 9, "velocity": 90}, {"time": 2662, "pitch": 49, "duration": 8, "velocity": 53}, {"time": 2668, "pitch": 54, "duration": 5, "velocity": 91}, {"time": 2668, "pitch": 59, "duration": 4, "velocity": 94}, {"time": 2674, "pitch": 49, "duration": 9, "velocity": 78}, {"time": 2680, "pitch": 54, "duration": 9, "velocity": 94}, {"time": 2680, "pitch": 61, "duration": 9, "velocity": 88}, {"time": 2686, "pitch": 49, "duration": 8, "velocity": 73}, {"time": 2692, "pitch": 54, "duration": 1, "velocity": 82}, {"time": 2692, "pitch": 61, "duration": 2, "velocity": 83}, {"time": 2704, "pitch": 38, "duration": 22, "velocity": 95}, {"time": 2704, "pitch": 57, "duration": 9, "velocity": 81}, {"time": 2704, "pitch": 62, "duration": 9, "velocity": 84}, {"time": 2710, "pitch": 45, "duration": 12, "velocity": 62}, {"time": 2716, "pitch": 62, "duration": 7, "velocity": 86}, {"time": 2716, "pitch": 66, "duration": 8, "velocity": 88}, {"time": 2728, "pitch": 57, "duration": 5, "velocity": 81}, {"time": 2728, "pitch": 62, "duration": 9, "velocity": 86}, {"time": 2740, "pitch": 62, "duration": 10, "velocity": 95}, {"time": 2740, "pitch": 66, "duration": 7, "velocity": 95}, {"time": 2746, "pitch": 57, "duration": 3, "velocity": 91}, {"time": 2752, "pitch": 40, "duration": 38, "velocity": 94}, {"time": 2752, "pitch": 59, "duration": 5, "velocity": 88}, {"time": 2752, "pitch": 64, "duration": 5, "velocity": 90}, {"time": 2758, "pitch": 47, "duration": 28, "velocity": 68}, {"time": 2764, "pitch": 59, "duration": 3, "velocity": 88}, {"time": 2764, "pitch": 68, "duration": 6, "velocity": 81}, {"time": 2770, "pitch": 59, "duration": 3, "velocity": 59}, {"time": 2776, "pitch": 64, "duration": 8, "velocity": 94}, {"time": 2776, "pitch": 68, "duration": 7, "velocity": 90}, {"time": 2782, "pitch": 59, "duration": 3, "velocity": 73}, {"time": 2788, "pitch": 59, "duration": 2, "velocity": 92}, {"time": 2788, "pitch": 64, "duration": 3, "velocity": 96}, {"time": 2788, "pitch": 68, "duration": 4, "velocity": 94}, {"time": 2800, "pitch": 37, "duration": 35, "velocity": 84}, {"time": 2800, "pitch": 61, "duration": 10, "velocity": 86}, {"time": 2800, "pitch": 64, "duration": 9, "velocity": 100}, {"time": 2806, "pitch": 44, "duration": 30, "velocity": 77}, {"time": 2812, "pitch": 64, "duration": 2, "velocity": 95}, {"time": 2812, "pitch": 68, "duration": 3, "velocity": 87}, {"time": 2824, "pitch": 64, "duration": 8, "velocity": 92}, {"time": 2824, "pitch": 68, "duration": 5, "velocity": 83}, {"time": 2830, "pitch": 61, "duration": 3, "velocity": 74}, {"time": 2836, "pitch": 61, "duration": 3, "velocity": 93}, {"time": 2836, "pitch": 64, "duration": 1, "velocity": 89}, {"time": 2836, "pitch": 68, "duration": 2, "velocity": 88}, {"time": 2848, "pitch": 42, "duration": 21, "velocity": 85}, {"time": 2848, "pitch": 54, "duration": 9, "velocity": 83}, {"time": 2848, "pitch": 59, "duration": 9, "velocity": 90}, {"time": 2854, "pitch": 49, "duration": 8, "velocity": 57}, {"time": 2860, "pitch": 54, "duration": 4, "velocity": 94}, {"time": 2860, "pitch": 59, "duration": 4, "velocity": 95}, {"time": 2866, "pitch": 49, "duration": 9, "velocity": 67}, {"time": 2872, "pitch": 42, "duration": 16, "velocity": 80}, {"time": 2872, "pitch": 54, "duration": 9, "velocity": 85}, {"time": 2872, "pitch": 61, "duration": 10, "velocity": 85}, {"time": 2878, "pitch": 49, "duration": 11, "velocity": 71}, {"time": 2884, "pitch": 54, "duration": 6, "velocity": 98}, {"time": 2884, "pitch": 61, "duration": 9, "velocity": 96}, {"time": 2890, "pitch": 42, "duration": 3, "velocity": 95}, {"time": 2896, "pitch": 38, "duration": 39, "velocity": 95}, {"time": 2896, "pitch": 57, "duration": 6, "velocity": 84}, {"time": 2896, "pitch": 66, "duration": 8, "velocity": 88}, {"time": 2902, "pitch": 45, "duration": 33, "velocity": 68}, {"time": 2908, "pitch": 57, "duration": 3, "velocity": 84}, {"time": 2908, "pitch": 62, "duration": 7, "velocity": 91}, {"time": 2920, "pitch": 62, "duration": 8, "velocity": 89}, {"time": 2920, "pitch": 66, "duration": 7, "velocity": 89}, {"time": 2926, "pitch": 57, "duration": 4, "velocity": 63}, {"time": 2932, "pitch": 62, "duration": 11, "velocity": 96}, {"time": 2932, "pitch": 66, "duration": 11, "velocity": 97}, {"time": 2938, "pitch": 38, "duration": 4, "velocity": 96}, {"time": 2944, "pitch": 40, "duration": 37, "velocity": 96}, {"time": 2944, "pitch": 59, "duration": 7, "velocity": 90}, {"time": 2944, "pitch": 62, "duration": 1, "velocity": 75}, {"time": 2944, "pitch": 64, "duration": 6, "velocity": 94}, {"time": 2950, "pitch": 47, "duration": 29, "velocity": 80}, {"time": 2956, "pitch": 64, "duration": 7, "velocity": 96}, {"time": 2956, "pitch": 68, "duration": 7, "velocity": 84}, {"time": 2968, "pitch": 64, "duration": 8, "velocity": 94}, {"time": 2968, "pitch": 68, "duration": 8, "velocity": 90}, {"time": 2974, "pitch": 59, "duration": 4, "velocity": 66}, {"time": 2980, "pitch": 64, "duration": 7, "velocity": 94}, {"time": 2980, "pitch": 68, "duration": 8, "velocity": 91}, {"time": 2986, "pitch": 59, "duration": 1, "velocity": 71}, {"time": 2992, "pitch": 37, "duration": 40, "velocity": 93}, {"time": 2992, "pitch": 61, "duration": 9, "velocity": 84}, {"time": 2992, "pitch": 64, "duration": 8, "velocity": 95}, {"time": 2992, "pitch": 68, "duration": 9, "velocity": 89}, {"time": 2998, "pitch": 44, "duration": 33, "velocity": 79}, {"time": 3004, "pitch": 61, "duration": 3, "velocity": 89}, {"time": 3004, "pitch": 68, "duration": 7, "velocity": 90}, {"time": 3010, "pitch": 61, "duration": 5, "velocity": 86}, {"time": 3016, "pitch": 64, "duration": 7, "velocity": 96}, {"time": 3016, "pitch": 68, "duration": 8, "velocity": 92}, {"time": 3022, "pitch": 61, "duration": 4, "velocity": 77}, {"time": 3028, "pitch": 61, "duration": 3, "velocity": 92}, {"time": 3028, "pitch": 64, "duration": 2, "velocity": 96}, {"time": 3028, "pitch": 68, "duration": 3, "velocity": 89}, {"time": 3040, "pitch": 42, "duration": 22, "velocity": 94}, {"time": 3040, "pitch": 54, "duration": 8, "velocity": 86}, {"time": 3040, "pitch": 59, "duration": 8, "velocity": 92}, {"time": 3046, "pitch": 49, "duration": 9, "velocity": 61}, {"time": 3052, "pitch": 54, "duration": 4, "velocity": 97}, {"time": 3052, "pitch": 59, "duration": 7, "velocity": 96}, {"time": 3058, "pitch": 49, "duration": 5, "velocity": 87}, {"time": 3064, "pitch": 42, "duration": 15, "velocity": 96}, {"time": 3064, "pitch": 54, "duration": 4, "velocity": 89}, {"time": 3064, "pitch": 58, "duration": 4, "velocity": 87}, {"time": 3070, "pitch": 49, "duration": 8, "velocity": 81}, {"time": 3076, "pitch": 54, "duration": 2, "velocity": 94}, {"time": 3076, "pitch": 61, "duration": 3, "velocity": 94}, {"time": 3082, "pitch": 42, "duration": 2, "velocity": 91}, {"time": 3088, "pitch": 38, "duration": 39, "velocity": 94}, {"time": 3088, "pitch": 57, "duration": 13, "velocity": 86}, {"time": 3088, "pitch": 62, "duration": 9, "velocity": 90}, {"time": 3088, "pitch": 66, "duration": 9, "velocity": 88}, {"time": 3094, "pitch": 45, "duration": 33, "velocity": 71}, {"time": 3100, "pitch": 62, "duration": 7, "velocity": 90}, {"time": 3100, "pitch": 66, "duration": 7, "velocity": 88}, {"time": 3106, "pitch": 57, "duration": 7, "velocity": 77}, {"time": 3112, "pitch": 62, "duration": 2, "velocity": 88}, {"time": 3112, "pitch": 66, "duration": 3, "velocity": 95}, {"time": 3118, "pitch": 57, "duration": 3, "velocity": 70}, {"time": 3124, "pitch": 57, "duration": 2, "velocity": 94}, {"time": 3124, "pitch": 62, "duration": 3, "velocity": 95}, {"time": 3124, "pitch": 66, "duration": 4, "velocity": 95}, {"time": 3136, "pitch": 40, "duration": 37, "velocity": 95}, {"time": 3136, "pitch": 59, "duration": 5, "velocity": 89}, {"time": 3136, "pitch": 64, "duration": 11, "velocity": 94}, {"time": 3142, "pitch": 47, "duration": 31, "velocity": 82}, {"time": 3148, "pitch": 56, "duration": 5, "velocity": 77}, {"time": 3148, "pitch": 59, "duration": 7, "velocity": 90}, {"time": 3148, "pitch": 64, "duration": 6, "velocity": 89}, {"time": 3154, "pitch": 52, "duration": 8, "velocity": 76}, {"time": 3160, "pitch": 56, "duration": 7, "velocity": 80}, {"time": 3160, "pitch": 59, "duration": 8, "velocity": 83}, {"time": 3160, "pitch": 64, "duration": 8, "velocity": 89}, {"time": 3166, "pitch": 52, "duration": 7, "velocity": 85}, {"time": 3172, "pitch": 56, "duration": 3, "velocity": 95}, {"time": 3172, "pitch": 59, "duration": 3, "velocity": 94}, {"time": 3172, "pitch": 64, "duration": 5, "velocity": 96}, {"time": 3184, "pitch": 37, "duration": 36, "velocity": 94}, {"time": 3184, "pitch": 64, "duration": 7, "velocity": 97}, {"time": 3190, "pitch": 56, "duration": 4, "velocity": 81}, {"time": 3196, "pitch": 56, "duration": 2, "velocity": 91}, {"time": 3196, "pitch": 64, "duration": 8, "velocity": 97}, {"time": 3202, "pitch": 56, "duration": 2, "velocity": 39}, {"time": 3208, "pitch": 56, "duration": 4, "velocity": 86}, {"time": 3208, "pitch": 64, "duration": 7, "velocity": 96}, {"time": 3214, "pitch": 56, "duration": 3, "velocity": 57}, {"time": 3220, "pitch": 56, "duration": 3, "velocity": 88}, {"time": 3220, "pitch": 64, "duration": 3, "velocity": 96}, {"time": 3232, "pitch": 42, "duration": 43, "velocity": 94}, {"time": 3232, "pitch": 54, "duration": 8, "velocity": 86}, {"time": 3232, "pitch": 59, "duration": 8, "velocity": 92}, {"time": 3238, "pitch": 49, "duration": 8, "velocity": 59}, {"time": 3244, "pitch": 54, "duration": 5, "velocity": 100}, {"time": 3244, "pitch": 59, "duration": 5, "velocity": 98}, {"time": 3250, "pitch": 49, "duration": 8, "velocity": 85}, {"time": 3256, "pitch": 54, "duration": 7, "velocity": 96}, {"time": 3256, "pitch": 58, "duration": 6, "velocity": 95}, {"time": 3262, "pitch": 49, "duration": 8, "velocity": 81}, {"time": 3268, "pitch": 54, "duration": 11, "velocity": 93}, {"time": 3268, "pitch": 61, "duration": 12, "velocity": 95}, {"time": 3274, "pitch": 49, "duration": 7, "velocity": 88}, {"time": 3280, "pitch": 38, "duration": 39, "velocity": 94}, {"time": 3280, "pitch": 62, "duration": 8, "velocity": 89}, {"time": 3280, "pitch": 66, "duration": 8, "velocity": 83}, {"time": 3286, "pitch": 57, "duration": 7, "velocity": 80}, {"time": 3292, "pitch": 62, "duration": 2, "velocity": 95}, {"time": 3292, "pitch": 66, "duration": 4, "velocity": 97}, {"time": 3298, "pitch": 57, "duration": 3, "velocity": 69}, {"time": 3304, "pitch": 62, "duration": 7, "velocity": 88}, {"time": 3304, "pitch": 66, "duration": 5, "velocity": 86}, {"time": 3310, "pitch": 57, "duration": 4, "velocity": 59}, {"time": 3316, "pitch": 62, "duration": 10, "velocity": 96}, {"time": 3316, "pitch": 66, "duration": 11, "velocity": 98}, {"time": 3322, "pitch": 38, "duration": 4, "velocity": 97}, {"time": 3328, "pitch": 40, "duration": 41, "velocity": 97}, {"time": 3328, "pitch": 59, "duration": 7, "velocity": 89}, {"time": 3328, "pitch": 64, "duration": 6, "velocity": 94}, {"time": 3334, "pitch": 47, "duration": 34, "velocity": 79}, {"time": 3340, "pitch": 64, "duration": 8, "velocity": 93}, {"time": 3340, "pitch": 68, "duration": 7, "velocity": 93}, {"time": 3346, "pitch": 59, "duration": 7, "velocity": 74}, {"time": 3352, "pitch": 64, "duration": 8, "velocity": 90}, {"time": 3352, "pitch": 68, "duration": 7, "velocity": 90}, {"time": 3358, "pitch": 59, "duration": 3, "velocity": 79}, {"time": 3364, "pitch": 59, "duration": 4, "velocity": 94}, {"time": 3364, "pitch": 64, "duration": 3, "velocity": 98}, {"time": 3364, "pitch": 68, "duration": 3, "velocity": 95}, {"time": 3376, "pitch": 45, "duration": 46, "velocity": 95}, {"time": 3376, "pitch": 57, "duration": 8, "velocity": 91}, {"time": 3376, "pitch": 61, "duration": 8, "velocity": 93}, {"time": 3382, "pitch": 52, "duration": 22, "velocity": 82}, {"time": 3388, "pitch": 57, "duration": 1, "velocity": 65}, {"time": 3388, "pitch": 61, "duration": 4, "velocity": 83}, {"time": 3388, "pitch": 64, "duration": 4, "velocity": 94}, {"time": 3400, "pitch": 61, "duration": 6, "velocity": 95}, {"time": 3400, "pitch": 64, "duration": 8, "velocity": 95}, {"time": 3406, "pitch": 52, "duration": 15, "velocity": 76}, {"time": 3412, "pitch": 61, "duration": 7, "velocity": 94}, {"time": 3412, "pitch": 64, "duration": 7, "velocity": 95}, {"time": 3412, "pitch": 69, "duration": 6, "velocity": 93}, {"time": 3418, "pitch": 57, "duration": 14, "velocity": 88}, {"time": 3424, "pitch": 45, "duration": 41, "velocity": 94}, {"time": 3424, "pitch": 61, "duration": 9, "velocity": 86}, {"time": 3424, "pitch": 64, "duration": 9, "velocity": 94}, {"time": 3430, "pitch": 52, "duration": 22, "velocity": 80}, {"time": 3436, "pitch": 61, "duration": 4, "velocity": 86}, {"time": 3436, "pitch": 64, "duration": 8, "velocity": 94}, {"time": 3442, "pitch": 57, "duration": 5, "velocity": 72}, {"time": 3448, "pitch": 61, "duration": 3, "velocity": 95}, {"time": 3448, "pitch": 64, "duration": 6, "velocity": 98}, {"time": 3454, "pitch": 52, "duration": 11, "velocity": 78}, {"time": 3454, "pitch": 57, "duration": 2, "velocity": 68}, {"time": 3460, "pitch": 57, "duration": 10, "velocity": 97}, {"time": 3460, "pitch": 61, "duration": 9, "velocity": 110}, {"time": 3460, "pitch": 64, "duration": 5, "velocity": 100}, {"time": 3472, "pitch": 42, "duration": 15, "velocity": 94}, {"time": 3472, "pitch": 61, "duration": 9, "velocity": 90}, {"time": 3472, "pitch": 66, "duration": 9, "velocity": 94}, {"time": 3478, "pitch": 49, "duration": 9, "velocity": 72}, {"time": 3484, "pitch": 61, "duration": 7, "velocity": 101}, {"time": 3484, "pitch": 66, "duration": 8, "velocity": 95}, {"time": 3490, "pitch": 57, "duration": 2, "velocity": 97}, {"time": 3496, "pitch": 40, "duration": 16, "velocity": 96}, {"time": 3496, "pitch": 59, "duration": 10, "velocity": 85}, {"time": 3496, "pitch": 64, "duration": 9, "velocity": 94}, {"time": 3496, "pitch": 68, "duration": 9, "velocity": 89}, {"time": 3502, "pitch": 47, "duration": 10, "velocity": 74}, {"time": 3508, "pitch": 64, "duration": 6, "velocity": 100}, {"time": 3508, "pitch": 68, "duration": 7, "velocity": 101}, {"time": 3514, "pitch": 59, "duration": 3, "velocity": 87}, {"time": 3520, "pitch": 38, "duration": 40, "velocity": 95}, {"time": 3520, "pitch": 62, "duration": 9, "velocity": 94}, {"time": 3520, "pitch": 66, "duration": 9, "velocity": 92}, {"time": 3526, "pitch": 45, "duration": 33, "velocity": 78}, {"time": 3532, "pitch": 62, "duration": 6, "velocity": 95}, {"time": 3532, "pitch": 66, "duration": 4, "velocity": 99}, {"time": 3538, "pitch": 57, "duration": 4, "velocity": 81}, {"time": 3544, "pitch": 62, "duration": 7, "velocity": 94}, {"time": 3544, "pitch": 66, "duration": 6, "velocity": 90}, {"time": 3556, "pitch": 62, "duration": 5, "velocity": 94}, {"time": 3556, "pitch": 66, "duration": 6, "velocity": 92}, {"time": 3568, "pitch": 42, "duration": 14, "velocity": 94}, {"time": 3568, "pitch": 61, "duration": 8, "velocity": 94}, {"time": 3568, "pitch": 66, "duration": 9, "velocity": 89}, {"time": 3574, "pitch": 49, "duration": 8, "velocity": 67}, {"time": 3580, "pitch": 61, "duration": 6, "velocity": 99}, {"time": 3580, "pitch": 66, "duration": 7, "velocity": 95}, {"time": 3586, "pitch": 57, "duration": 2, "velocity": 94}, {"time": 3592, "pitch": 40, "duration": 16, "velocity": 97}, {"time": 3592, "pitch": 59, "duration": 4, "velocity": 88}, {"time": 3592, "pitch": 64, "duration": 8, "velocity": 95}, {"time": 3592, "pitch": 68, "duration": 8, "velocity": 89}, {"time": 3598, "pitch": 59, "duration": 7, "velocity": 84}, {"time": 3604, "pitch": 64, "duration": 5, "velocity": 97}, {"time": 3604, "pitch": 68, "duration": 6, "velocity": 103}, {"time": 3610, "pitch": 59, "duration": 5, "velocity": 83}, {"time": 3616, "pitch": 47, "duration": 39, "velocity": 94}, {"time": 3616, "pitch": 59, "duration": 3, "velocity": 89}, {"time": 3616, "pitch": 63, "duration": 6, "velocity": 88}, {"time": 3616, "pitch": 66, "duration": 6, "velocity": 85}, {"time": 3622, "pitch": 59, "duration": 4, "velocity": 85}, {"time": 3628, "pitch": 59, "duration": 8, "velocity": 91}, {"time": 3628, "pitch": 63, "duration": 7, "velocity": 96}, {"time": 3628, "pitch": 66, "duration": 8, "velocity": 86}, {"time": 3634, "pitch": 54, "duration": 8, "velocity": 77}, {"time": 3640, "pitch": 59, "duration": 6, "velocity": 90}, {"time": 3640, "pitch": 63, "duration": 6, "velocity": 84}, {"time": 3640, "pitch": 66, "duration": 5, "velocity": 81}, {"time": 3646, "pitch": 54, "duration": 7, "velocity": 59}, {"time": 3652, "pitch": 59, "duration": 4, "velocity": 95}, {"time": 3652, "pitch": 63, "duration": 3, "velocity": 98}, {"time": 3652, "pitch": 66, "duration": 4, "velocity": 95}, {"time": 3664, "pitch": 42, "duration": 14, "velocity": 97}, {"time": 3664, "pitch": 61, "duration": 8, "velocity": 86}, {"time": 3664, "pitch": 66, "duration": 8, "velocity": 87}, {"time": 3670, "pitch": 49, "duration": 9, "velocity": 78}, {"time": 3676, "pitch": 61, "duration": 7, "velocity": 100}, {"time": 3676, "pitch": 66, "duration": 7, "velocity": 98}, {"time": 3682, "pitch": 57, "duration": 2, "velocity": 95}, {"time": 3688, "pitch": 40, "duration": 19, "velocity": 97}, {"time": 3688, "pitch": 64, "duration": 9, "velocity": 95}, {"time": 3688, "pitch": 68, "duration": 9, "velocity": 87}, {"time": 3694, "pitch": 47, "duration": 12, "velocity": 78}, {"time": 3700, "pitch": 64, "duration": 6, "velocity": 100}, {"time": 3700, "pitch": 68, "duration": 6, "velocity": 101}, {"time": 3706, "pitch": 59, "duration": 2, "velocity": 94}, {"time": 3712, "pitch": 38, "duration": 34, "velocity": 96}, {"time": 3712, "pitch": 62, "duration": 8, "velocity": 90}, {"time": 3712, "pitch": 66, "duration": 9, "velocity": 87}, {"time": 3718, "pitch": 57, "duration": 7, "velocity": 81}, {"time": 3724, "pitch": 62, "duration": 2, "velocity": 95}, {"time": 3724, "pitch": 66, "duration": 3, "velocity": 98}, {"time": 3736, "pitch": 62, "duration": 7, "velocity": 94}, {"time": 3736, "pitch": 66, "duration": 7, "velocity": 97}, {"time": 3742, "pitch": 57, "duration": 7, "velocity": 87}, {"time": 3748, "pitch": 62, "duration": 6, "velocity": 95}, {"time": 3748, "pitch": 66, "duration": 6, "velocity": 95}, {"time": 3754, "pitch": 57, "duration": 1, "velocity": 90}, {"time": 3760, "pitch": 42, "duration": 15, "velocity": 98}, {"time": 3760, "pitch": 57, "duration": 7, "velocity": 94}, {"time": 3760, "pitch": 61, "duration": 8, "velocity": 94}, {"time": 3766, "pitch": 49, "duration": 12, "velocity": 79}, {"time": 3772, "pitch": 54, "duration": 2, "velocity": 95}, {"time": 3772, "pitch": 57, "duration": 2, "velocity": 99}, {"time": 3772, "pitch": 61, "duration": 3, "velocity": 96}, {"time": 3778, "pitch": 42, "duration": 2, "velocity": 94}, {"time": 3784, "pitch": 40, "duration": 19, "velocity": 97}, {"time": 3784, "pitch": 59, "duration": 4, "velocity": 90}, {"time": 3784, "pitch": 64, "duration": 8, "velocity": 95}, {"time": 3784, "pitch": 68, "duration": 8, "velocity": 93}, {"time": 3790, "pitch": 59, "duration": 5, "velocity": 92}, {"time": 3796, "pitch": 59, "duration": 3, "velocity": 98}, {"time": 3796, "pitch": 64, "duration": 6, "velocity": 100}, {"time": 3796, "pitch": 68, "duration": 6, "velocity": 98}, {"time": 3802, "pitch": 59, "duration": 2, "velocity": 99}, {"time": 3808, "pitch": 39, "duration": 41, "velocity": 92}, {"time": 3808, "pitch": 66, "duration": 8, "velocity": 92}, {"time": 3808, "pitch": 69, "duration": 7, "velocity": 95}, {"time": 3814, "pitch": 63, "duration": 6, "velocity": 82}, {"time": 3820, "pitch": 66, "duration": 3, "velocity": 84}, {"time": 3820, "pitch": 69, "duration": 3, "velocity": 94}, {"time": 3826, "pitch": 63, "duration": 4, "velocity": 82}, {"time": 3832, "pitch": 66, "duration": 3, "velocity": 90}, {"time": 3832, "pitch": 69, "duration": 3, "velocity": 94}, {"time": 3838, "pitch": 63, "duration": 6, "velocity": 76}, {"time": 3844, "pitch": 66, "duration": 7, "velocity": 83}, {"time": 3844, "pitch": 69, "duration": 7, "velocity": 94}, {"time": 3850, "pitch": 63, "duration": 6, "velocity": 94}, {"time": 3856, "pitch": 39, "duration": 47, "velocity": 95}, {"time": 3856, "pitch": 63, "duration": 46, "velocity": 87}, {"time": 3856, "pitch": 66, "duration": 46, "velocity": 87}, {"time": 3856, "pitch": 69, "duration": 46, "velocity": 96}, {"time": 3904, "pitch": 38, "duration": 11, "velocity": 97}, {"time": 3904, "pitch": 62, "duration": 4, "velocity": 94}, {"time": 3904, "pitch": 66, "duration": 5, "velocity": 90}, {"time": 3910, "pitch": 62, "duration": 3, "velocity": 91}, {"time": 3916, "pitch": 38, "duration": 21, "velocity": 95}, {"time": 3916, "pitch": 45, "duration": 19, "velocity": 90}, {"time": 3916, "pitch": 62, "duration": 3, "velocity": 95}, {"time": 3916, "pitch": 66, "duration": 7, "velocity": 100}, {"time": 3916, "pitch": 69, "duration": 7, "velocity": 95}, {"time": 3922, "pitch": 62, "duration": 5, "velocity": 87}, {"time": 3928, "pitch": 66, "duration": 3, "velocity": 88}, {"time": 3928, "pitch": 69, "duration": 7, "velocity": 93}, {"time": 3934, "pitch": 62, "duration": 4, "velocity": 90}, {"time": 3940, "pitch": 38, "duration": 4, "velocity": 100}, {"time": 3940, "pitch": 62, "duration": 2, "velocity": 93}, {"time": 3940, "pitch": 66, "duration": 4, "velocity": 99}, {"time": 3940, "pitch": 69, "duration": 7, "velocity": 95}, {"time": 3952, "pitch": 47, "duration": 23, "velocity": 95}, {"time": 3952, "pitch": 59, "duration": 3, "velocity": 93}, {"time": 3952, "pitch": 62, "duration": 7, "velocity": 94}, {"time": 3952, "pitch": 66, "duration": 6, "velocity": 95}, {"time": 3958, "pitch": 59, "duration": 4, "velocity": 88}, {"time": 3964, "pitch": 54, "duration": 11, "velocity": 84}, {"time": 3964, "pitch": 59, "duration": 3, "velocity": 96}, {"time": 3964, "pitch": 62, "duration": 7, "velocity": 97}, {"time": 3964, "pitch": 66, "duration": 8, "velocity": 96}, {"time": 3970, "pitch": 59, "duration": 3, "velocity": 88}, {"time": 3976, "pitch": 52, "duration": 14, "velocity": 97}, {"time": 3976, "pitch": 59, "duration": 4, "velocity": 95}, {"time": 3976, "pitch": 62, "duration": 1, "velocity": 82}, {"time": 3976, "pitch": 64, "duration": 7, "velocity": 95}, {"time": 3982, "pitch": 59, "duration": 4, "velocity": 90}, {"time": 3988, "pitch": 59, "duration": 2, "velocity": 99}, {"time": 3988, "pitch": 64, "duration": 5, "velocity": 108}, {"time": 3988, "pitch": 68, "duration": 5, "velocity": 100}, {"time": 3991, "pitch": 59, "duration": 2, "velocity": 90}, {"time": 4000, "pitch": 45, "duration": 43, "velocity": 96}, {"time": 4000, "pitch": 57, "duration": 3, "velocity": 90}, {"time": 4000, "pitch": 61, "duration": 7, "velocity": 89}, {"time": 4000, "pitch": 64, "duration": 9, "velocity": 96}, {"time": 4006, "pitch": 57, "duration": 3, "velocity": 86}, {"time": 4012, "pitch": 57, "duration": 3, "velocity": 95}, {"time": 4012, "pitch": 61, "duration": 8, "velocity": 99}, {"time": 4012, "pitch": 64, "duration": 8, "velocity": 97}, {"time": 4018, "pitch": 57, "duration": 4, "velocity": 80}, {"time": 4024, "pitch": 61, "duration": 4, "velocity": 97}, {"time": 4024, "pitch": 64, "duration": 6, "velocity": 97}, {"time": 4024, "pitch": 69, "duration": 4, "velocity": 93}, {"time": 4027, "pitch": 57, "duration": 3, "velocity": 80}, {"time": 4030, "pitch": 52, "duration": 11, "velocity": 81}, {"time": 4036, "pitch": 61, "duration": 7, "velocity": 100}, {"time": 4036, "pitch": 64, "duration": 9, "velocity": 101}, {"time": 4042, "pitch": 57, "duration": 6, "velocity": 95}, {"time": 4048, "pitch": 45, "duration": 22, "velocity": 95}, {"time": 4048, "pitch": 57, "duration": 5, "velocity": 83}, {"time": 4048, "pitch": 61, "duration": 6, "velocity": 93}, {"time": 4048, "pitch": 64, "duration": 7, "velocity": 95}, {"time": 4054, "pitch": 52, "duration": 9, "velocity": 82}, {"time": 4060, "pitch": 57, "duration": 3, "velocity": 96}, {"time": 4060, "pitch": 61, "duration": 5, "velocity": 98}, {"time": 4060, "pitch": 64, "duration": 10, "velocity": 100}, {"time": 4066, "pitch": 57, "duration": 5, "velocity": 87}, {"time": 4072, "pitch": 45, "duration": 16, "velocity": 94}, {"time": 4072, "pitch": 57, "duration": 2, "velocity": 79}, {"time": 4072, "pitch": 61, "duration": 6, "velocity": 98}, {"time": 4072, "pitch": 64, "duration": 6, "velocity": 96}, {"time": 4072, "pitch": 67, "duration": 6, "velocity": 86}, {"time": 4078, "pitch": 52, "duration": 9, "velocity": 81}, {"time": 4084, "pitch": 57, "duration": 3, "velocity": 95}, {"time": 4084, "pitch": 61, "duration": 3, "velocity": 99}, {"time": 4084, "pitch": 64, "duration": 4, "velocity": 100}, {"time": 4084, "pitch": 67, "duration": 4, "velocity": 94}, {"time": 4096, "pitch": 38, "duration": 16, "velocity": 97}, {"time": 4096, "pitch": 62, "duration": 8, "velocity": 94}, {"time": 4096, "pitch": 66, "duration": 7, "velocity": 90}, {"time": 4102, "pitch": 57, "duration": 3, "velocity": 87}, {"time": 4108, "pitch": 57, "duration": 2, "velocity": 95}, {"time": 4108, "pitch": 62, "duration": 8, "velocity": 100}, {"time": 4108, "pitch": 66, "duration": 6, "velocity": 98}, {"time": 4114, "pitch": 57, "duration": 4, "velocity": 91}, {"time": 4120, "pitch": 50, "duration": 9, "velocity": 93}, {"time": 4120, "pitch": 57, "duration": 3, "velocity": 89}, {"time": 4120, "pitch": 62, "duration": 8, "velocity": 96}, {"time": 4120, "pitch": 66, "duration": 8, "velocity": 94}, {"time": 4126, "pitch": 57, "duration": 3, "velocity": 85}, {"time": 4132, "pitch": 57, "duration": 3, "velocity": 97}, {"time": 4132, "pitch": 62, "duration": 6, "velocity": 97}, {"time": 4132, "pitch": 66, "duration": 6, "velocity": 96}, {"time": 4144, "pitch": 47, "duration": 16, "velocity": 94}, {"time": 4144, "pitch": 59, "duration": 3, "velocity": 93}, {"time": 4144, "pitch": 62, "duration": 7, "velocity": 94}, {"time": 4144, "pitch": 66, "duration": 7, "velocity": 90}, {"time": 4150, "pitch": 54, "duration": 8, "velocity": 73}, {"time": 4150, "pitch": 59, "duration": 4, "velocity": 94}, {"time": 4156, "pitch": 59, "duration": 2, "velocity": 98}, {"time": 4156, "pitch": 62, "duration": 4, "velocity": 100}, {"time": 4156, "pitch": 66, "duration": 6, "velocity": 97}, {"time": 4162, "pitch": 59, "duration": 7, "velocity": 94}, {"time": 4168, "pitch": 40, "duration": 15, "velocity": 96}, {"time": 4168, "pitch": 64, "duration": 7, "velocity": 94}, {"time": 4168, "pitch": 68, "duration": 6, "velocity": 93}, {"time": 4174, "pitch": 59, "duration": 3, "velocity": 94}, {"time": 4180, "pitch": 59, "duration": 3, "velocity": 96}, {"time": 4180, "pitch": 64, "duration": 6, "velocity": 98}, {"time": 4180, "pitch": 68, "duration": 6, "velocity": 95}, {"time": 4186, "pitch": 59, "duration": 2, "velocity": 95}, {"time": 4192, "pitch": 45, "duration": 31, "velocity": 95}, {"time": 4192, "pitch": 57, "duration": 4, "velocity": 84}, {"time": 4192, "pitch": 61, "duration": 7, "velocity": 83}, {"time": 4192, "pitch": 64, "duration": 8, "velocity": 93}, {"time": 4198, "pitch": 52, "duration": 9, "velocity": 81}, {"time": 4204, "pitch": 61, "duration": 8, "velocity": 99}, {"time": 4204, "pitch": 64, "duration": 8, "velocity": 100}, {"time": 4210, "pitch": 57, "duration": 4, "velocity": 88}, {"time": 4216, "pitch": 61, "duration": 7, "velocity": 100}, {"time": 4216, "pitch": 64, "duration": 7, "velocity": 103}, {"time": 4222, "pitch": 52, "duration": 13, "velocity": 86}, {"time": 4228, "pitch": 61, "duration": 7, "velocity": 100}, {"time": 4228, "pitch": 64, "duration": 8, "velocity": 99}, {"time": 4228, "pitch": 69, "duration": 7, "velocity": 83}, {"time": 4234, "pitch": 57, "duration": 4, "velocity": 95}, {"time": 4240, "pitch": 45, "duration": 38, "velocity": 95}, {"time": 4240, "pitch": 61, "duration": 8, "velocity": 100}, {"time": 4240, "pitch": 64, "duration": 8, "velocity": 99}, {"time": 4240, "pitch": 69, "duration": 7, "velocity": 94}, {"time": 4246, "pitch": 57, "duration": 3, "velocity": 79}, {"time": 4252, "pitch": 57, "duration": 4, "velocity": 97}, {"time": 4252, "pitch": 61, "duration": 7, "velocity": 115}, {"time": 4252, "pitch": 64, "duration": 7, "velocity": 103}, {"time": 4252, "pitch": 69, "duration": 7, "velocity": 95}, {"time": 4258, "pitch": 52, "duration": 8, "velocity": 92}, {"time": 4261, "pitch": 57, "duration": 2, "velocity": 95}, {"time": 4264, "pitch": 57, "duration": 8, "velocity": 99}, {"time": 4264, "pitch": 61, "duration": 8, "velocity": 103}, {"time": 4264, "pitch": 64, "duration": 8, "velocity": 105}, {"time": 4270, "pitch": 52, "duration": 8, "velocity": 94}, {"time": 4276, "pitch": 57, "duration": 6, "velocity": 96}, {"time": 4276, "pitch": 61, "duration": 7, "velocity": 99}, {"time": 4276, "pitch": 64, "duration": 9, "velocity": 101}, {"time": 4276, "pitch": 69, "duration": 8, "velocity": 93}, {"time": 4282, "pitch": 45, "duration": 5, "velocity": 95}, {"time": 4288, "pitch": 38, "duration": 35, "velocity": 96}, {"time": 4288, "pitch": 57, "duration": 35, "velocity": 94}, {"time": 4288, "pitch": 62, "duration": 34, "velocity": 95}, {"time": 4288, "pitch": 66, "duration": 35, "velocity": 93}, {"time": 4336, "pitch": 47, "duration": 18, "velocity": 94}, {"time": 4336, "pitch": 59, "duration": 21, "velocity": 85}, {"time": 4336, "pitch": 62, "duration": 21, "velocity": 89}, {"time": 4336, "pitch": 66, "duration": 22, "velocity": 85}, {"time": 4358, "pitch": 52, "duration": 25, "velocity": 90}, {"time": 4359, "pitch": 56, "duration": 25, "velocity": 86}, {"time": 4360, "pitch": 40, "duration": 20, "velocity": 98}, {"time": 4360, "pitch": 59, "duration": 26, "velocity": 87}, {"time": 4361, "pitch": 64, "duration": 27, "velocity": 96}, {"time": 4402, "pitch": 45, "duration": 54, "velocity": 94}, {"time": 4406, "pitch": 52, "duration": 49, "velocity": 85}, {"time": 4410, "pitch": 57, "duration": 5, "velocity": 74}, {"time": 4414, "pitch": 59, "duration": 6, "velocity": 89}, {"time": 4419, "pitch": 61, "duration": 5, "velocity": 72}, {"time": 4424, "pitch": 64, "duration": 3, "velocity": 78}, {"time": 4456, "pitch": 38, "duration": 38, "velocity": 99}, {"time": 4456, "pitch": 57, "duration": 4, "velocity": 89}, {"time": 4456, "pitch": 62, "duration": 7, "velocity": 94}, {"time": 4462, "pitch": 57, "duration": 4, "velocity": 96}, {"time": 4468, "pitch": 62, "duration": 7, "velocity": 96}, {"time": 4468, "pitch": 66, "duration": 6, "velocity": 95}, {"time": 4474, "pitch": 57, "duration": 5, "velocity": 89}, {"time": 4480, "pitch": 62, "duration": 7, "velocity": 95}, {"time": 4480, "pitch": 66, "duration": 6, "velocity": 94}, {"time": 4486, "pitch": 57, "duration": 3, "velocity": 73}, {"time": 4492, "pitch": 57, "duration": 3, "velocity": 96}, {"time": 4492, "pitch": 62, "duration": 3, "velocity": 101}, {"time": 4492, "pitch": 66, "duration": 7, "velocity": 96}, {"time": 4498, "pitch": 38, "duration": 3, "velocity": 100}, {"time": 4498, "pitch": 57, "duration": 3, "velocity": 94}, {"time": 4498, "pitch": 62, "duration": 1, "velocity": 77}, {"time": 4504, "pitch": 40, "duration": 34, "velocity": 98}, {"time": 4504, "pitch": 59, "duration": 3, "velocity": 94}, {"time": 4504, "pitch": 64, "duration": 4, "velocity": 95}, {"time": 4510, "pitch": 59, "duration": 4, "velocity": 96}, {"time": 4516, "pitch": 64, "duration": 7, "velocity": 95}, {"time": 4516, "pitch": 68, "duration": 6, "velocity": 95}, {"time": 4519, "pitch": 59, "duration": 3, "velocity": 90}, {"time": 4528, "pitch": 59, "duration": 2, "velocity": 88}, {"time": 4528, "pitch": 64, "duration": 4, "velocity": 95}, {"time": 4528, "pitch": 68, "duration": 7, "velocity": 94}, {"time": 4534, "pitch": 59, "duration": 3, "velocity": 89}, {"time": 4534, "pitch": 64, "duration": 2, "velocity": 40}, {"time": 4540, "pitch": 40, "duration": 5, "velocity": 95}, {"time": 4540, "pitch": 59, "duration": 2, "velocity": 94}, {"time": 4540, "pitch": 64, "duration": 7, "velocity": 100}, {"time": 4540, "pitch": 68, "duration": 8, "velocity": 97}, {"time": 4546, "pitch": 59, "duration": 1, "velocity": 92}, {"time": 4552, "pitch": 37, "duration": 40, "velocity": 93}, {"time": 4552, "pitch": 61, "duration": 3, "velocity": 90}, {"time": 4552, "pitch": 64, "duration": 7, "velocity": 97}, {"time": 4552, "pitch": 68, "duration": 7, "velocity": 93}, {"time": 4558, "pitch": 61, "duration": 4, "velocity": 83}, {"time": 4564, "pitch": 61, "duration": 2, "velocity": 94}, {"time": 4564, "pitch": 64, "duration": 4, "velocity": 103}, {"time": 4564, "pitch": 68, "duration": 7, "velocity": 95}, {"time": 4570, "pitch": 61, "duration": 3, "velocity": 83}, {"time": 4576, "pitch": 61, "duration": 2, "velocity": 84}, {"time": 4576, "pitch": 64, "duration": 3, "velocity": 90}, {"time": 4576, "pitch": 68, "duration": 4, "velocity": 90}, {"time": 4582, "pitch": 61, "duration": 3, "velocity": 81}, {"time": 4588, "pitch": 61, "duration": 2, "velocity": 96}, {"time": 4588, "pitch": 64, "duration": 7, "velocity": 105}, {"time": 4588, "pitch": 68, "duration": 7, "velocity": 98}, {"time": 4594, "pitch": 61, "duration": 4, "velocity": 94}, {"time": 4600, "pitch": 42, "duration": 38, "velocity": 101}, {"time": 4600, "pitch": 54, "duration": 4, "velocity": 96}, {"time": 4600, "pitch": 61, "duration": 8, "velocity": 98}, {"time": 4606, "pitch": 49, "duration": 10, "velocity": 82}, {"time": 4612, "pitch": 54, "duration": 8, "velocity": 95}, {"time": 4612, "pitch": 61, "duration": 8, "velocity": 94}, {"time": 4618, "pitch": 49, "duration": 8, "velocity": 81}, {"time": 4624, "pitch": 54, "duration": 8, "velocity": 100}, {"time": 4624, "pitch": 66, "duration": 7, "velocity": 93}, {"time": 4630, "pitch": 49, "duration": 9, "velocity": 89}, {"time": 4636, "pitch": 54, "duration": 11, "velocity": 96}, {"time": 4636, "pitch": 61, "duration": 11, "velocity": 94}, {"time": 4636, "pitch": 66, "duration": 12, "velocity": 94}, {"time": 4642, "pitch": 49, "duration": 6, "velocity": 98}, {"time": 4648, "pitch": 38, "duration": 38, "velocity": 99}, {"time": 4648, "pitch": 57, "duration": 4, "velocity": 89}, {"time": 4648, "pitch": 62, "duration": 7, "velocity": 94}, {"time": 4654, "pitch": 57, "duration": 4, "velocity": 96}, {"time": 4660, "pitch": 62, "duration": 7, "velocity": 96}, {"time": 4660, "pitch": 66, "duration": 6, "velocity": 95}, {"time": 4666, "pitch": 57, "duration": 5, "velocity": 89}, {"time": 4672, "pitch": 62, "duration": 7, "velocity": 95}, {"time": 4672, "pitch": 66, "duration": 6, "velocity": 94}, {"time": 4678, "pitch": 57, "duration": 3, "velocity": 73}, {"time": 4684, "pitch": 57, "duration": 3, "velocity": 96}, {"time": 4684, "pitch": 62, "duration": 3, "velocity": 101}, {"time": 4684, "pitch": 66, "duration": 7, "velocity": 96}, {"time": 4690, "pitch": 38, "duration": 3, "velocity": 100}, {"time": 4690, "pitch": 57, "duration": 3, "velocity": 94}, {"time": 4690, "pitch": 62, "duration": 1, "velocity": 77}, {"time": 4696, "pitch": 40, "duration": 34, "velocity": 98}, {"time": 4696, "pitch": 59, "duration": 3, "velocity": 94}, {"time": 4696, "pitch": 64, "duration": 4, "velocity": 95}, {"time": 4702, "pitch": 59, "duration": 4, "velocity": 96}, {"time": 4708, "pitch": 64, "duration": 7, "velocity": 95}, {"time": 4708, "pitch": 68, "duration": 6, "velocity": 95}, {"time": 4711, "pitch": 59, "duration": 3, "velocity": 90}, {"time": 4720, "pitch": 59, "duration": 2, "velocity": 88}, {"time": 4720, "pitch": 64, "duration": 4, "velocity": 95}, {"time": 4720, "pitch": 68, "duration": 7, "velocity": 94}, {"time": 4726, "pitch": 59, "duration": 3, "velocity": 89}, {"time": 4726, "pitch": 64, "duration": 2, "velocity": 40}, {"time": 4732, "pitch": 40, "duration": 5, "velocity": 95}, {"time": 4732, "pitch": 59, "duration": 2, "velocity": 94}, {"time": 4732, "pitch": 64, "duration": 7, "velocity": 100}, {"time": 4732, "pitch": 68, "duration": 8, "velocity": 97}, {"time": 4738, "pitch": 59, "duration": 1, "velocity": 92}, {"time": 4744, "pitch": 37, "duration": 40, "velocity": 93}, {"time": 4744, "pitch": 61, "duration": 3, "velocity": 90}, {"time": 4744, "pitch": 64, "duration": 7, "velocity": 97}, {"time": 4744, "pitch": 68, "duration": 7, "velocity": 93}, {"time": 4750, "pitch": 61, "duration": 4, "velocity": 83}, {"time": 4756, "pitch": 61, "duration": 2, "velocity": 94}, {"time": 4756, "pitch": 64, "duration": 4, "velocity": 103}, {"time": 4756, "pitch": 68, "duration": 7, "velocity": 95}, {"time": 4762, "pitch": 61, "duration": 3, "velocity": 83}, {"time": 4768, "pitch": 61, "duration": 2, "velocity": 84}, {"time": 4768, "pitch": 64, "duration": 3, "velocity": 90}, {"time": 4768, "pitch": 68, "duration": 4, "velocity": 90}, {"time": 4774, "pitch": 61, "duration": 3, "velocity": 81}, {"time": 4780, "pitch": 61, "duration": 2, "velocity": 96}, {"time": 4780, "pitch": 64, "duration": 7, "velocity": 105}, {"time": 4780, "pitch": 68, "duration": 7, "velocity": 98}, {"time": 4786, "pitch": 61, "duration": 4, "velocity": 94}, {"time": 4792, "pitch": 42, "duration": 38, "velocity": 101}, {"time": 4792, "pitch": 54, "duration": 4, "velocity": 96}, {"time": 4792, "pitch": 61, "duration": 8, "velocity": 98}, {"time": 4798, "pitch": 49, "duration": 10, "velocity": 82}, {"time": 4804, "pitch": 54, "duration": 8, "velocity": 95}, {"time": 4804, "pitch": 61, "duration": 8, "velocity": 94}, {"time": 4810, "pitch": 49, "duration": 8, "velocity": 81}, {"time": 4816, "pitch": 54, "duration": 8, "velocity": 100}, {"time": 4816, "pitch": 66, "duration": 7, "velocity": 93}, {"time": 4822, "pitch": 49, "duration": 9, "velocity": 89}, {"time": 4828, "pitch": 54, "duration": 11, "velocity": 96}, {"time": 4828, "pitch": 61, "duration": 11, "velocity": 94}, {"time": 4828, "pitch": 66, "duration": 12, "velocity": 94}, {"time": 4834, "pitch": 49, "duration": 6, "velocity": 98}, {"time": 4837, "pitch": 62, "duration": 42, "velocity": 83}, {"time": 4838, "pitch": 38, "duration": 44, "velocity": 82}, {"time": 4838, "pitch": 66, "duration": 2, "velocity": 82}, {"time": 4840, "pitch": 69, "duration": 40, "velocity": 75}, {"time": 4841, "pitch": 74, "duration": 38, "velocity": 75}], "annotations": [{"time": 21, "annotation": {"number": 64, "value": 127}, "group": "control_change"}, {"time": 62, "annotation": {"number": 64, "value": 0}, "group": "control_change"}, {"time": 71, "annotation": {"number": 64, "value": 127}, "group": "control_change"}, {"time": 114, "annotation": {"number": 64, "value": 0}, "group": "control_change"}, {"time": 119, "annotation": {"number": 64, "value": 127}, "group": "control_change"}, {"time": 161, "annotation": {"number": 64, "value": 0}, "group": "control_change"}, {"time": 164, "annotation": {"number": 64, "value": 127}, "group": "control_change"}, {"time": 207, "annotation": {"number": 64, "value": 0}, "group": "control_change"}, {"time": 255, "annotation": {"number": 64, "value": 0}, "group": "control_change"}, {"time": 258, "annotation": {"number": 64, "value": 127}, "group": "control_change"}, {"time": 302, "annotation": {"number": 64, "value": 0}, "group": "control_change"}, {"time": 304, "annotation": {"number": 64, "value": 127}, "group": "control_change"}, {"time": 352, "annotation": {"number": 64, "value": 127}, "group": "control_change"}, {"time": 352, "annotation": {"number": 64, "value": 0}, "group": "control_change"}, {"time": 394, "annotation": {"number": 64, "value": 0}, "group": "control_change"}, {"time": 404, "annotation": {"number": 64, "value": 127}, "group": "control_change"}, {"time": 448, "annotation": {"number": 64, "value": 0}, "group": "control_change"}, {"time": 452, "annotation": {"number": 64, "value": 127}, "group": "control_change"}, {"time": 495, "annotation": {"number": 64, "value": 0}, "group": "control_change"}, {"time": 501, "annotation": {"number": 64, "value": 127}, "group": "control_change"}, {"time": 543, "annotation": {"number": 64, "value": 0}, "group": "control_change"}, {"time": 546, "annotation": {"number": 64, "value": 127}, "group": "control_change"}, {"time": 568, "annotation": {"number": 64, "value": 0}, "group": "control_change"}, {"time": 571, "annotation": {"number": 64, "value": 127}, "group": "control_change"}, {"time": 592, "annotation": {"number": 64, "value": 0}, "group": "control_change"}, {"time": 640, "annotation": {"number": 64, "value": 0}, "group": "control_change"}, {"time": 648, "annotation": {"number": 64, "value": 127}, "group": "control_change"}, {"time": 689, "annotation": {"number": 64, "value": 0}, "group": "control_change"}, {"time": 694, "annotation": {"number": 64, "value": 127}, "group": "control_change"}, {"time": 736, "annotation": {"number": 64, "value": 127}, "group": "control_change"}, {"time": 782, "annotation": {"number": 64, "value": 0}, "group": "control_change"}, {"time": 786, "annotation": {"number": 64, "value": 127}, "group": "control_change"}, {"time": 830, "annotation": {"number": 64, "value": 0}, "group": "control_change"}, {"time": 834, "annotation": {"number": 64, "value": 127}, "group": "control_change"}, {"time": 879, "annotation": {"number": 64, "value": 0}, "group": "control_change"}, {"time": 884, "annotation": {"number": 64, "value": 127}, "group": "control_change"}, {"time": 885, "annotation": {"number": 64, "value": 0}, "group": "control_change"}, {"time": 885, "annotation": {"number": 64, "value": 127}, "group": "control_change"}, {"time": 928, "annotation": {"number": 64, "value": 0}, "group": "control_change"}, {"time": 932, "annotation": {"number": 64, "value": 127}, "group": "control_change"}, {"time": 951, "annotation": {"number": 64, "value": 0}, "group": "control_change"}, {"time": 955, "annotation": {"number": 64, "value": 127}, "group": "control_change"}, {"time": 974, "annotation": {"number": 64, "value": 0}, "group": "control_change"}, {"time": 977, "annotation": {"number": 64, "value": 127}, "group": "control_change"}, {"time": 1023, "annotation": {"number": 64, "value": 0}, "group": "control_change"}, {"time": 1026, "annotation": {"number": 64, "value": 127}, "group": "control_change"}, {"time": 1072, "annotation": {"number": 64, "value": 0}, "group": "control_change"}, {"time": 1079, "annotation": {"number": 64, "value": 127}, "group": "control_change"}, {"time": 1120, "annotation": {"number": 64, "value": 0}, "group": "control_change"}, {"time": 1123, "annotation": {"number": 64, "value": 127}, "group": "control_change"}, {"time": 1143, "annotation": {"number": 64, "value": 0}, "group": "control_change"}, {"time": 1145, "annotation": {"number": 64, "value": 127}, "group": "control_change"}, {"time": 1168, "annotation": {"number": 64, "value": 0}, "group": "control_change"}, {"time": 1174, "annotation": {"number": 64, "value": 127}, "group": "control_change"}, {"time": 1215, "annotation": {"number": 64, "value": 0}, "group": "control_change"}, {"time": 1217, "annotation": {"number": 64, "value": 127}, "group": "control_change"}, {"time": 1218, "annotation": {"number": 64, "value": 0}, "group": "control_change"}, {"time": 1218, "annotation": {"number": 64, "value": 127}, "group": "control_change"}, {"time": 1263, "annotation": {"number": 64, "value": 0}, "group": "control_change"}, {"time": 1267, "annotation": {"number": 64, "value": 127}, "group": "control_change"}, {"time": 1311, "annotation": {"number": 64, "value": 0}, "group": "control_change"}, {"time": 1315, "annotation": {"number": 64, "value": 127}, "group": "control_change"}, {"time": 1334, "annotation": {"number": 64, "value": 0}, "group": "control_change"}, {"time": 1336, "annotation": {"number": 64, "value": 127}, "group": "control_change"}, {"time": 1357, "annotation": {"number": 64, "value": 0}, "group": "control_change"}, {"time": 1360, "annotation": {"number": 64, "value": 127}, "group": "control_change"}, {"time": 1406, "annotation": {"number": 64, "value": 0}, "group": "control_change"}, {"time": 1409, "annotation": {"number": 64, "value": 127}, "group": "control_change"}, {"time": 1455, "annotation": {"number": 64, "value": 0}, "group": "control_change"}, {"time": 1457, "annotation": {"number": 64, "value": 127}, "group": "control_change"}, {"time": 1504, "annotation": {"number": 64, "value": 0}, "group": "control_change"}, {"time": 1509, "annotation": {"number": 64, "value": 127}, "group": "control_change"}, {"time": 1551, "annotation": {"number": 64, "value": 0}, "group": "control_change"}, {"time": 1555, "annotation": {"number": 64, "value": 127}, "group": "control_change"}, {"time": 1577, "annotation": {"number": 64, "value": 0}, "group": "control_change"}, {"time": 1581, "annotation": {"number": 64, "value": 127}, "group": "control_change"}, {"time": 1600, "annotation": {"number": 64, "value": 0}, "group": "control_change"}, {"time": 1605, "annotation": {"number": 64, "value": 127}, "group": "control_change"}, {"time": 1647, "annotation": {"number": 64, "value": 0}, "group": "control_change"}, {"time": 1651, "annotation": {"number": 64, "value": 127}, "group": "control_change"}, {"time": 1672, "annotation": {"number": 64, "value": 0}, "group": "control_change"}, {"time": 1675, "annotation": {"number": 64, "value": 127}, "group": "control_change"}, {"time": 1696, "annotation": {"number": 64, "value": 0}, "group": "control_change"}, {"time": 1699, "annotation": {"number": 64, "value": 127}, "group": "control_change"}, {"time": 1743, "annotation": {"number": 64, "value": 0}, "group": "control_change"}, {"time": 1746, "annotation": {"number": 64, "value": 127}, "group": "control_change"}, {"time": 1768, "annotation": {"number": 64, "value": 0}, "group": "control_change"}, {"time": 1774, "annotation": {"number": 64, "value": 127}, "group": "control_change"}, {"time": 1774, "annotation": {"number": 64, "value": 0}, "group": "control_change"}, {"time": 1793, "annotation": {"number": 64, "value": 0}, "group": "control_change"}, {"time": 1797, "annotation": {"number": 64, "value": 127}, "group": "control_change"}, {"time": 1840, "annotation": {"number": 64, "value": 0}, "group": "control_change"}, {"time": 1844, "annotation": {"number": 64, "value": 127}, "group": "control_change"}, {"time": 1864, "annotation": {"number": 64, "value": 0}, "group": "control_change"}, {"time": 1868, "annotation": {"number": 64, "value": 127}, "group": "control_change"}, {"time": 1889, "annotation": {"number": 64, "value": 127}, "group": "control_change"}, {"time": 1936, "annotation": {"number": 64, "value": 0}, "group": "control_change"}, {"time": 1940, "annotation": {"number": 64, "value": 127}, "group": "control_change"}, {"time": 1983, "annotation": {"number": 64, "value": 0}, "group": "control_change"}, {"time": 1990, "annotation": {"number": 64, "value": 127}, "group": "control_change"}, {"time": 1991, "annotation": {"number": 64, "value": 0}, "group": "control_change"}, {"time": 1991, "annotation": {"number": 64, "value": 127}, "group": "control_change"}, {"time": 2006, "annotation": {"number": 64, "value": 0}, "group": "control_change"}, {"time": 2012, "annotation": {"number": 64, "value": 127}, "group": "control_change"}, {"time": 2012, "annotation": {"number": 64, "value": 0}, "group": "control_change"}, {"time": 2033, "annotation": {"number": 64, "value": 0}, "group": "control_change"}, {"time": 2040, "annotation": {"number": 64, "value": 127}, "group": "control_change"}, {"time": 2079, "annotation": {"number": 64, "value": 0}, "group": "control_change"}, {"time": 2086, "annotation": {"number": 64, "value": 127}, "group": "control_change"}, {"time": 2123, "annotation": {"number": 64, "value": 0}, "group": "control_change"}, {"time": 2175, "annotation": {"number": 64, "value": 0}, "group": "control_change"}, {"time": 2178, "annotation": {"number": 64, "value": 127}, "group": "control_change"}, {"time": 2222, "annotation": {"number": 64, "value": 0}, "group": "control_change"}, {"time": 2224, "annotation": {"number": 64, "value": 127}, "group": "control_change"}, {"time": 2272, "annotation": {"number": 64, "value": 127}, "group": "control_change"}, {"time": 2272, "annotation": {"number": 64, "value": 0}, "group": "control_change"}, {"time": 2314, "annotation": {"number": 64, "value": 0}, "group": "control_change"}, {"time": 2367, "annotation": {"number": 64, "value": 0}, "group": "control_change"}, {"time": 2370, "annotation": {"number": 64, "value": 127}, "group": "control_change"}, {"time": 2414, "annotation": {"number": 64, "value": 0}, "group": "control_change"}, {"time": 2416, "annotation": {"number": 64, "value": 127}, "group": "control_change"}, {"time": 2464, "annotation": {"number": 64, "value": 127}, "group": "control_change"}, {"time": 2464, "annotation": {"number": 64, "value": 0}, "group": "control_change"}, {"time": 2506, "annotation": {"number": 64, "value": 0}, "group": "control_change"}, {"time": 2560, "annotation": {"number": 64, "value": 0}, "group": "control_change"}, {"time": 2568, "annotation": {"number": 64, "value": 127}, "group": "control_change"}, {"time": 2609, "annotation": {"number": 64, "value": 0}, "group": "control_change"}, {"time": 2614, "annotation": {"number": 64, "value": 127}, "group": "control_change"}, {"time": 2656, "annotation": {"number": 64, "value": 127}, "group": "control_change"}, {"time": 2702, "annotation": {"number": 64, "value": 0}, "group": "control_change"}, {"time": 2706, "annotation": {"number": 64, "value": 127}, "group": "control_change"}, {"time": 2750, "annotation": {"number": 64, "value": 0}, "group": "control_change"}, {"time": 2754, "annotation": {"number": 64, "value": 127}, "group": "control_change"}, {"time": 2799, "annotation": {"number": 64, "value": 0}, "group": "control_change"}, {"time": 2804, "annotation": {"number": 64, "value": 127}, "group": "control_change"}, {"time": 2805, "annotation": {"number": 64, "value": 0}, "group": "control_change"}, {"time": 2805, "annotation": {"number": 64, "value": 127}, "group": "control_change"}, {"time": 2848, "annotation": {"number": 64, "value": 0}, "group": "control_change"}, {"time": 2852, "annotation": {"number": 64, "value": 127}, "group": "control_change"}, {"time": 2871, "annotation": {"number": 64, "value": 0}, "group": "control_change"}, {"time": 2875, "annotation": {"number": 64, "value": 127}, "group": "control_change"}, {"time": 2894, "annotation": {"number": 64, "value": 0}, "group": "control_change"}, {"time": 2897, "annotation": {"number": 64, "value": 127}, "group": "control_change"}, {"time": 2943, "annotation": {"number": 64, "value": 0}, "group": "control_change"}, {"time": 2946, "annotation": {"number": 64, "value": 127}, "group": "control_change"}, {"time": 2992, "annotation": {"number": 64, "value": 0}, "group": "control_change"}, {"time": 2999, "annotation": {"number": 64, "value": 127}, "group": "control_change"}, {"time": 3040, "annotation": {"number": 64, "value": 0}, "group": "control_change"}, {"time": 3043, "annotation": {"number": 64, "value": 127}, "group": "control_change"}, {"time": 3063, "annotation": {"number": 64, "value": 0}, "group": "control_change"}, {"time": 3065, "annotation": {"number": 64, "value": 127}, "group": "control_change"}, {"time": 3088, "annotation": {"number": 64, "value": 0}, "group": "control_change"}, {"time": 3094, "annotation": {"number": 64, "value": 127}, "group": "control_change"}, {"time": 3135, "annotation": {"number": 64, "value": 0}, "group": "control_change"}, {"time": 3137, "annotation": {"number": 64, "value": 127}, "group": "control_change"}, {"time": 3138, "annotation": {"number": 64, "value": 0}, "group": "control_change"}, {"time": 3138, "annotation": {"number": 64, "value": 127}, "group": "control_change"}, {"time": 3183, "annotation": {"number": 64, "value": 0}, "group": "control_change"}, {"time": 3187, "annotation": {"number": 64, "value": 127}, "group": "control_change"}, {"time": 3231, "annotation": {"number": 64, "value": 0}, "group": "control_change"}, {"time": 3235, "annotation": {"number": 64, "value": 127}, "group": "control_change"}, {"time": 3254, "annotation": {"number": 64, "value": 0}, "group": "control_change"}, {"time": 3256, "annotation": {"number": 64, "value": 127}, "group": "control_change"}, {"time": 3277, "annotation": {"number": 64, "value": 0}, "group": "control_change"}, {"time": 3280, "annotation": {"number": 64, "value": 127}, "group": "control_change"}, {"time": 3326, "annotation": {"number": 64, "value": 0}, "group": "control_change"}, {"time": 3329, "annotation": {"number": 64, "value": 127}, "group": "control_change"}, {"time": 3375, "annotation": {"number": 64, "value": 0}, "group": "control_change"}, {"time": 3377, "annotation": {"number": 64, "value": 127}, "group": "control_change"}, {"time": 3424, "annotation": {"number": 64, "value": 0}, "group": "control_change"}, {"time": 3429, "annotation": {"number": 64, "value": 127}, "group": "control_change"}, {"time": 3471, "annotation": {"number": 64, "value": 0}, "group": "control_change"}, {"time": 3475, "annotation": {"number": 64, "value": 127}, "group": "control_change"}, {"time": 3497, "annotation": {"number": 64, "value": 0}, "group": "control_change"}, {"time": 3501, "annotation": {"number": 64, "value": 127}, "group": "control_change"}, {"time": 3520, "annotation": {"number": 64, "value": 0}, "group": "control_change"}, {"time": 3525, "annotation": {"number": 64, "value": 127}, "group": "control_change"}, {"time": 3567, "annotation": {"number": 64, "value": 0}, "group": "control_change"}, {"time": 3571, "annotation": {"number": 64, "value": 127}, "group": "control_change"}, {"time": 3592, "annotation": {"number": 64, "value": 0}, "group": "control_change"}, {"time": 3595, "annotation": {"number": 64, "value": 127}, "group": "control_change"}, {"time": 3616, "annotation": {"number": 64, "value": 0}, "group": "control_change"}, {"time": 3619, "annotation": {"number": 64, "value": 127}, "group": "control_change"}, {"time": 3663, "annotation": {"number": 64, "value": 0}, "group": "control_change"}, {"time": 3666, "annotation": {"number": 64, "value": 127}, "group": "control_change"}, {"time": 3688, "annotation": {"number": 64, "value": 0}, "group": "control_change"}, {"time": 3694, "annotation": {"number": 64, "value": 127}, "group": "control_change"}, {"time": 3694, "annotation": {"number": 64, "value": 0}, "group": "control_change"}, {"time": 3713, "annotation": {"number": 64, "value": 0}, "group": "control_change"}, {"time": 3717, "annotation": {"number": 64, "value": 127}, "group": "control_change"}, {"time": 3760, "annotation": {"number": 64, "value": 0}, "group": "control_change"}, {"time": 3764, "annotation": {"number": 64, "value": 127}, "group": "control_change"}, {"time": 3784, "annotation": {"number": 64, "value": 0}, "group": "control_change"}, {"time": 3788, "annotation": {"number": 64, "value": 127}, "group": "control_change"}, {"time": 3809, "annotation": {"number": 64, "value": 127}, "group": "control_change"}, {"time": 3856, "annotation": {"number": 64, "value": 0}, "group": "control_change"}, {"time": 3856, "annotation": {"number": 64, "value": 127}, "group": "control_change"}, {"time": 3897, "annotation": {"number": 64, "value": 0}, "group": "control_change"}, {"time": 3950, "annotation": {"number": 64, "value": 0}, "group": "control_change"}, {"time": 3953, "annotation": {"number": 64, "value": 127}, "group": "control_change"}, {"time": 3997, "annotation": {"number": 64, "value": 0}, "group": "control_change"}, {"time": 4001, "annotation": {"number": 64, "value": 127}, "group": "control_change"}, {"time": 4045, "annotation": {"number": 64, "value": 0}, "group": "control_change"}, {"time": 4050, "annotation": {"number": 64, "value": 127}, "group": "control_change"}, {"time": 4070, "annotation": {"number": 64, "value": 0}, "group": "control_change"}, {"time": 4072, "annotation": {"number": 64, "value": 127}, "group": "control_change"}, {"time": 4095, "annotation": {"number": 64, "value": 0}, "group": "control_change"}, {"time": 4098, "annotation": {"number": 64, "value": 127}, "group": "control_change"}, {"time": 4119, "annotation": {"number": 64, "value": 0}, "group": "control_change"}, {"time": 4121, "annotation": {"number": 64, "value": 127}, "group": "control_change"}, {"time": 4143, "annotation": {"number": 64, "value": 0}, "group": "control_change"}, {"time": 4146, "annotation": {"number": 64, "value": 127}, "group": "control_change"}, {"time": 4166, "annotation": {"number": 64, "value": 0}, "group": "control_change"}, {"time": 4169, "annotation": {"number": 64, "value": 127}, "group": "control_change"}, {"time": 4191, "annotation": {"number": 64, "value": 0}, "group": "control_change"}, {"time": 4196, "annotation": {"number": 64, "value": 127}, "group": "control_change"}, {"time": 4238, "annotation": {"number": 64, "value": 0}, "group": "control_change"}, {"time": 4242, "annotation": {"number": 64, "value": 127}, "group": "control_change"}, {"time": 4284, "annotation": {"number": 64, "value": 0}, "group": "control_change"}, {"time": 4288, "annotation": {"number": 64, "value": 127}, "group": "control_change"}, {"time": 4333, "annotation": {"number": 64, "value": 0}, "group": "control_change"}, {"time": 4338, "annotation": {"number": 64, "value": 127}, "group": "control_change"}, {"time": 4338, "annotation": {"number": 64, "value": 0}, "group": "control_change"}, {"time": 4359, "annotation": {"number": 64, "value": 0}, "group": "control_change"}, {"time": 4376, "annotation": {"number": 64, "value": 127}, "group": "control_change"}, {"time": 4404, "annotation": {"number": 64, "value": 0}, "group": "control_change"}, {"time": 4407, "annotation": {"number": 64, "value": 127}, "group": "control_change"}, {"time": 4446, "annotation": {"number": 64, "value": 127}, "group": "control_change"}, {"time": 4454, "annotation": {"number": 64, "value": 0}, "group": "control_change"}, {"time": 4458, "annotation": {"number": 64, "value": 127}, "group": "control_change"}, {"time": 4458, "annotation": {"number": 64, "value": 0}, "group": "control_change"}, {"time": 4502, "annotation": {"number": 64, "value": 0}, "group": "control_change"}, {"time": 4504, "annotation": {"number": 64, "value": 127}, "group": "control_change"}, {"time": 4550, "annotation": {"number": 64, "value": 0}, "group": "control_change"}, {"time": 4552, "annotation": {"number": 64, "value": 127}, "group": "control_change"}, {"time": 4599, "annotation": {"number": 64, "value": 0}, "group": "control_change"}, {"time": 4600, "annotation": {"number": 64, "value": 127}, "group": "control_change"}, {"time": 4642, "annotation": {"number": 64, "value": 0}, "group": "control_change"}, {"time": 4650, "annotation": {"number": 64, "value": 127}, "group": "control_change"}, {"time": 4650, "annotation": {"number": 64, "value": 0}, "group": "control_change"}, {"time": 4694, "annotation": {"number": 64, "value": 0}, "group": "control_change"}, {"time": 4696, "annotation": {"number": 64, "value": 127}, "group": "control_change"}, {"time": 4742, "annotation": {"number": 64, "value": 0}, "group": "control_change"}, {"time": 4744, "annotation": {"number": 64, "value": 127}, "group": "control_change"}, {"time": 4791, "annotation": {"number": 64, "value": 0}, "group": "control_change"}, {"time": 4792, "annotation": {"number": 64, "value": 127}, "group": "control_change"}, {"time": 4834, "annotation": {"number": 64, "value": 0}, "group": "control_change"}, {"time": 4838, "annotation": {"number": 64, "value": 127}, "group": "control_change"}, {"time": 4912, "annotation": {"number": 64, "value": 0}, "group": "control_change"}]}]}