{"metadata": {"schema_version": "0.2", "title": "None", "source_filename": "432.mid", "source_format": "midi"}, "resolution": 12, "tempos": [{"time": 0, "qpm": 62.80000083733334}, {"time": 240, "qpm": 60.0}, {"time": 242, "qpm": 58.00004253336452}, {"time": 243, "qpm": 56.000029866682596}, {"time": 252, "qpm": 54.00000540000054}, {"time": 274, "qpm": 63.000063000063}], "time_signatures": [{"time": 0, "numerator": 1, "denominator": 4}], "tracks": [{"program": 0, "is_drum": false, "name": "MELODY", "notes": [{"time": 265, "pitch": 55, "duration": 3, "velocity": 95}, {"time": 268, "pitch": 62, "duration": 6, "velocity": 106}, {"time": 274, "pitch": 62, "duration": 6, "velocity": 99}, {"time": 280, "pitch": 62, "duration": 6, "velocity": 104}, {"time": 286, "pitch": 60, "duration": 3, "velocity": 97}, {"time": 289, "pitch": 62, "duration": 6, "velocity": 101}, {"time": 295, "pitch": 64, "duration": 18, "velocity": 101}, {"time": 313, "pitch": 55, "duration": 3, "velocity": 98}, {"time": 316, "pitch": 59, "duration": 6, "velocity": 98}, {"time": 322, "pitch": 59, "duration": 6, "velocity": 98}, {"time": 328, "pitch": 59, "duration": 6, "velocity": 101}, {"time": 334, "pitch": 57, "duration": 3, "velocity": 97}, {"time": 337, "pitch": 59, "duration": 6, "velocity": 99}, {"time": 343, "pitch": 60, "duration": 17, "velocity": 95}, {"time": 360, "pitch": 55, "duration": 4, "velocity": 98}, {"time": 364, "pitch": 67, "duration": 5, "velocity": 99}, {"time": 369, "pitch": 65, "duration": 6, "velocity": 98}, {"time": 375, "pitch": 64, "duration": 6, "velocity": 97}, {"time": 381, "pitch": 65, "duration": 3, "velocity": 98}, {"time": 384, "pitch": 67, "duration": 28, "velocity": 98}, {"time": 412, "pitch": 60, "duration": 6, "velocity": 102}, {"time": 418, "pitch": 62, "duration": 3, "velocity": 99}, {"time": 421, "pitch": 64, "duration": 8, "velocity": 99}, {"time": 429, "pitch": 62, "duration": 27, "velocity": 101}, {"time": 456, "pitch": 55, "duration": 3, "velocity": 97}, {"time": 459, "pitch": 62, "duration": 6, "velocity": 106}, {"time": 465, "pitch": 62, "duration": 3, "velocity": 98}, {"time": 468, "pitch": 62, "duration": 9, "velocity": 104}, {"time": 477, "pitch": 60, "duration": 3, "velocity": 97}, {"time": 480, "pitch": 62, "duration": 6, "velocity": 106}, {"time": 486, "pitch": 64, "duration": 18, "velocity": 98}, {"time": 504, "pitch": 55, "duration": 3, "velocity": 95}, {"time": 507, "pitch": 59, "duration": 7, "velocity": 98}, {"time": 514, "pitch": 59, "duration": 6, "velocity": 98}, {"time": 520, "pitch": 59, "duration": 5, "velocity": 99}, {"time": 525, "pitch": 57, "duration": 3, "velocity": 93}, {"time": 528, "pitch": 59, "duration": 7, "velocity": 98}, {"time": 535, "pitch": 60, "duration": 17, "velocity": 98}, {"time": 552, "pitch": 55, "duration": 4, "velocity": 96}, {"time": 556, "pitch": 67, "duration": 5, "velocity": 98}, {"time": 561, "pitch": 65, "duration": 4, "velocity": 97}, {"time": 565, "pitch": 64, "duration": 8, "velocity": 101}, {"time": 573, "pitch": 65, "duration": 4, "velocity": 98}, {"time": 577, "pitch": 67, "duration": 6, "velocity": 98}, {"time": 583, "pitch": 65, "duration": 15, "velocity": 97}, {"time": 598, "pitch": 60, "duration": 3, "velocity": 100}, {"time": 601, "pitch": 60, "duration": 3, "velocity": 98}, {"time": 604, "pitch": 60, "duration": 6, "velocity": 99}, {"time": 610, "pitch": 62, "duration": 6, "velocity": 102}, {"time": 616, "pitch": 64, "duration": 6, "velocity": 98}, {"time": 622, "pitch": 62, "duration": 51, "velocity": 102}, {"time": 673, "pitch": 55, "duration": 3, "velocity": 95}, {"time": 676, "pitch": 62, "duration": 6, "velocity": 106}, {"time": 682, "pitch": 62, "duration": 6, "velocity": 99}, {"time": 688, "pitch": 62, "duration": 6, "velocity": 104}, {"time": 694, "pitch": 60, "duration": 3, "velocity": 97}, {"time": 697, "pitch": 62, "duration": 6, "velocity": 101}, {"time": 703, "pitch": 64, "duration": 18, "velocity": 101}, {"time": 721, "pitch": 55, "duration": 3, "velocity": 98}, {"time": 724, "pitch": 59, "duration": 6, "velocity": 98}, {"time": 730, "pitch": 59, "duration": 6, "velocity": 98}, {"time": 736, "pitch": 59, "duration": 6, "velocity": 101}, {"time": 742, "pitch": 57, "duration": 3, "velocity": 97}, {"time": 745, "pitch": 59, "duration": 6, "velocity": 99}, {"time": 751, "pitch": 60, "duration": 17, "velocity": 95}, {"time": 768, "pitch": 55, "duration": 4, "velocity": 98}, {"time": 772, "pitch": 67, "duration": 5, "velocity": 99}, {"time": 777, "pitch": 65, "duration": 6, "velocity": 98}, {"time": 783, "pitch": 64, "duration": 6, "velocity": 97}, {"time": 789, "pitch": 65, "duration": 3, "velocity": 98}, {"time": 792, "pitch": 67, "duration": 28, "velocity": 98}, {"time": 820, "pitch": 60, "duration": 6, "velocity": 102}, {"time": 826, "pitch": 62, "duration": 3, "velocity": 99}, {"time": 829, "pitch": 64, "duration": 8, "velocity": 99}, {"time": 837, "pitch": 62, "duration": 27, "velocity": 101}, {"time": 864, "pitch": 55, "duration": 3, "velocity": 97}, {"time": 867, "pitch": 62, "duration": 6, "velocity": 106}, {"time": 873, "pitch": 62, "duration": 3, "velocity": 98}, {"time": 876, "pitch": 62, "duration": 9, "velocity": 104}, {"time": 885, "pitch": 60, "duration": 3, "velocity": 97}, {"time": 888, "pitch": 62, "duration": 6, "velocity": 106}, {"time": 894, "pitch": 64, "duration": 18, "velocity": 98}, {"time": 912, "pitch": 55, "duration": 3, "velocity": 95}, {"time": 915, "pitch": 59, "duration": 7, "velocity": 98}, {"time": 922, "pitch": 59, "duration": 6, "velocity": 98}, {"time": 928, "pitch": 59, "duration": 5, "velocity": 99}, {"time": 933, "pitch": 57, "duration": 3, "velocity": 93}, {"time": 936, "pitch": 59, "duration": 7, "velocity": 98}, {"time": 943, "pitch": 60, "duration": 17, "velocity": 98}, {"time": 960, "pitch": 55, "duration": 4, "velocity": 96}, {"time": 964, "pitch": 67, "duration": 5, "velocity": 98}, {"time": 969, "pitch": 65, "duration": 4, "velocity": 97}, {"time": 973, "pitch": 64, "duration": 8, "velocity": 101}, {"time": 981, "pitch": 65, "duration": 4, "velocity": 98}, {"time": 985, "pitch": 67, "duration": 6, "velocity": 98}, {"time": 991, "pitch": 65, "duration": 15, "velocity": 97}, {"time": 1006, "pitch": 60, "duration": 3, "velocity": 100}, {"time": 1009, "pitch": 60, "duration": 3, "velocity": 98}, {"time": 1012, "pitch": 60, "duration": 6, "velocity": 99}, {"time": 1018, "pitch": 62, "duration": 6, "velocity": 102}, {"time": 1024, "pitch": 64, "duration": 6, "velocity": 98}, {"time": 1030, "pitch": 62, "duration": 19, "velocity": 102}, {"time": 1048, "pitch": 64, "duration": 3, "velocity": 111}, {"time": 1051, "pitch": 65, "duration": 9, "velocity": 102}, {"time": 1060, "pitch": 67, "duration": 21, "velocity": 101}, {"time": 1081, "pitch": 67, "duration": 3, "velocity": 99}, {"time": 1084, "pitch": 67, "duration": 6, "velocity": 103}, {"time": 1090, "pitch": 72, "duration": 3, "velocity": 103}, {"time": 1093, "pitch": 71, "duration": 6, "velocity": 103}, {"time": 1099, "pitch": 67, "duration": 9, "velocity": 101}, {"time": 1108, "pitch": 64, "duration": 36, "velocity": 104}, {"time": 1144, "pitch": 62, "duration": 3, "velocity": 104}, {"time": 1147, "pitch": 64, "duration": 6, "velocity": 104}, {"time": 1153, "pitch": 65, "duration": 24, "velocity": 101}, {"time": 1177, "pitch": 64, "duration": 3, "velocity": 98}, {"time": 1180, "pitch": 65, "duration": 6, "velocity": 99}, {"time": 1186, "pitch": 64, "duration": 3, "velocity": 101}, {"time": 1189, "pitch": 60, "duration": 6, "velocity": 99}, {"time": 1195, "pitch": 64, "duration": 6, "velocity": 101}, {"time": 1201, "pitch": 62, "duration": 39, "velocity": 103}, {"time": 1240, "pitch": 64, "duration": 6, "velocity": 101}, {"time": 1246, "pitch": 65, "duration": 6, "velocity": 101}, {"time": 1252, "pitch": 67, "duration": 21, "velocity": 103}, {"time": 1273, "pitch": 67, "duration": 3, "velocity": 98}, {"time": 1276, "pitch": 67, "duration": 6, "velocity": 101}, {"time": 1282, "pitch": 72, "duration": 3, "velocity": 100}, {"time": 1285, "pitch": 71, "duration": 9, "velocity": 101}, {"time": 1294, "pitch": 67, "duration": 6, "velocity": 97}, {"time": 1300, "pitch": 64, "duration": 36, "velocity": 101}, {"time": 1336, "pitch": 62, "duration": 6, "velocity": 104}, {"time": 1342, "pitch": 64, "duration": 12, "velocity": 99}, {"time": 1354, "pitch": 57, "duration": 15, "velocity": 98}, {"time": 1369, "pitch": 60, "duration": 3, "velocity": 101}, {"time": 1372, "pitch": 60, "duration": 6, "velocity": 101}, {"time": 1378, "pitch": 59, "duration": 6, "velocity": 99}, {"time": 1384, "pitch": 57, "duration": 6, "velocity": 99}, {"time": 1390, "pitch": 62, "duration": 6, "velocity": 108}, {"time": 1396, "pitch": 60, "duration": 32, "velocity": 99}, {"time": 1897, "pitch": 55, "duration": 3, "velocity": 95}, {"time": 1900, "pitch": 62, "duration": 6, "velocity": 106}, {"time": 1906, "pitch": 62, "duration": 6, "velocity": 99}, {"time": 1912, "pitch": 62, "duration": 6, "velocity": 104}, {"time": 1918, "pitch": 60, "duration": 3, "velocity": 97}, {"time": 1921, "pitch": 62, "duration": 6, "velocity": 101}, {"time": 1927, "pitch": 64, "duration": 18, "velocity": 101}, {"time": 1945, "pitch": 55, "duration": 3, "velocity": 98}, {"time": 1948, "pitch": 59, "duration": 6, "velocity": 98}, {"time": 1954, "pitch": 59, "duration": 6, "velocity": 98}, {"time": 1960, "pitch": 59, "duration": 6, "velocity": 101}, {"time": 1966, "pitch": 57, "duration": 3, "velocity": 97}, {"time": 1969, "pitch": 59, "duration": 6, "velocity": 99}, {"time": 1975, "pitch": 60, "duration": 17, "velocity": 95}, {"time": 1992, "pitch": 55, "duration": 4, "velocity": 98}, {"time": 1996, "pitch": 67, "duration": 5, "velocity": 99}, {"time": 2001, "pitch": 65, "duration": 6, "velocity": 98}, {"time": 2007, "pitch": 64, "duration": 6, "velocity": 97}, {"time": 2013, "pitch": 65, "duration": 3, "velocity": 98}, {"time": 2016, "pitch": 67, "duration": 28, "velocity": 98}, {"time": 2044, "pitch": 60, "duration": 6, "velocity": 102}, {"time": 2050, "pitch": 62, "duration": 3, "velocity": 99}, {"time": 2053, "pitch": 64, "duration": 8, "velocity": 99}, {"time": 2061, "pitch": 62, "duration": 27, "velocity": 101}, {"time": 2088, "pitch": 55, "duration": 3, "velocity": 97}, {"time": 2091, "pitch": 62, "duration": 6, "velocity": 106}, {"time": 2097, "pitch": 62, "duration": 3, "velocity": 98}, {"time": 2100, "pitch": 62, "duration": 9, "velocity": 104}, {"time": 2109, "pitch": 60, "duration": 3, "velocity": 97}, {"time": 2112, "pitch": 62, "duration": 6, "velocity": 106}, {"time": 2118, "pitch": 64, "duration": 18, "velocity": 98}, {"time": 2136, "pitch": 55, "duration": 3, "velocity": 95}, {"time": 2139, "pitch": 59, "duration": 7, "velocity": 98}, {"time": 2146, "pitch": 59, "duration": 6, "velocity": 98}, {"time": 2152, "pitch": 59, "duration": 5, "velocity": 99}, {"time": 2157, "pitch": 57, "duration": 3, "velocity": 93}, {"time": 2160, "pitch": 59, "duration": 7, "velocity": 98}, {"time": 2167, "pitch": 60, "duration": 17, "velocity": 98}, {"time": 2184, "pitch": 55, "duration": 4, "velocity": 96}, {"time": 2188, "pitch": 67, "duration": 5, "velocity": 98}, {"time": 2193, "pitch": 65, "duration": 4, "velocity": 97}, {"time": 2197, "pitch": 64, "duration": 8, "velocity": 101}, {"time": 2205, "pitch": 65, "duration": 4, "velocity": 98}, {"time": 2209, "pitch": 67, "duration": 6, "velocity": 98}, {"time": 2215, "pitch": 65, "duration": 15, "velocity": 97}, {"time": 2230, "pitch": 60, "duration": 3, "velocity": 100}, {"time": 2233, "pitch": 60, "duration": 3, "velocity": 98}, {"time": 2236, "pitch": 60, "duration": 6, "velocity": 99}, {"time": 2242, "pitch": 62, "duration": 6, "velocity": 102}, {"time": 2248, "pitch": 64, "duration": 6, "velocity": 98}, {"time": 2254, "pitch": 62, "duration": 19, "velocity": 102}, {"time": 2272, "pitch": 64, "duration": 3, "velocity": 111}, {"time": 2275, "pitch": 65, "duration": 9, "velocity": 102}, {"time": 2284, "pitch": 67, "duration": 21, "velocity": 101}, {"time": 2305, "pitch": 67, "duration": 3, "velocity": 99}, {"time": 2308, "pitch": 67, "duration": 6, "velocity": 103}, {"time": 2314, "pitch": 72, "duration": 3, "velocity": 103}, {"time": 2317, "pitch": 71, "duration": 6, "velocity": 103}, {"time": 2323, "pitch": 67, "duration": 9, "velocity": 101}, {"time": 2332, "pitch": 64, "duration": 36, "velocity": 104}, {"time": 2368, "pitch": 62, "duration": 3, "velocity": 104}, {"time": 2371, "pitch": 64, "duration": 6, "velocity": 104}, {"time": 2377, "pitch": 65, "duration": 24, "velocity": 101}, {"time": 2401, "pitch": 64, "duration": 3, "velocity": 98}, {"time": 2404, "pitch": 65, "duration": 6, "velocity": 99}, {"time": 2410, "pitch": 64, "duration": 3, "velocity": 101}, {"time": 2413, "pitch": 60, "duration": 6, "velocity": 99}, {"time": 2419, "pitch": 64, "duration": 6, "velocity": 101}, {"time": 2425, "pitch": 62, "duration": 39, "velocity": 103}, {"time": 2464, "pitch": 64, "duration": 6, "velocity": 101}, {"time": 2470, "pitch": 65, "duration": 6, "velocity": 101}, {"time": 2476, "pitch": 67, "duration": 21, "velocity": 103}, {"time": 2497, "pitch": 67, "duration": 3, "velocity": 98}, {"time": 2500, "pitch": 67, "duration": 6, "velocity": 101}, {"time": 2506, "pitch": 72, "duration": 3, "velocity": 100}, {"time": 2509, "pitch": 71, "duration": 9, "velocity": 101}, {"time": 2518, "pitch": 67, "duration": 6, "velocity": 97}, {"time": 2524, "pitch": 64, "duration": 36, "velocity": 101}, {"time": 2560, "pitch": 62, "duration": 6, "velocity": 104}, {"time": 2566, "pitch": 64, "duration": 12, "velocity": 99}, {"time": 2578, "pitch": 57, "duration": 15, "velocity": 98}, {"time": 2593, "pitch": 60, "duration": 3, "velocity": 101}, {"time": 2596, "pitch": 60, "duration": 6, "velocity": 101}, {"time": 2602, "pitch": 59, "duration": 6, "velocity": 99}, {"time": 2608, "pitch": 57, "duration": 6, "velocity": 99}, {"time": 2614, "pitch": 62, "duration": 6, "velocity": 108}, {"time": 2620, "pitch": 60, "duration": 141, "velocity": 99}, {"time": 2761, "pitch": 55, "duration": 3, "velocity": 95}, {"time": 2764, "pitch": 62, "duration": 6, "velocity": 106}, {"time": 2770, "pitch": 62, "duration": 6, "velocity": 99}, {"time": 2776, "pitch": 62, "duration": 6, "velocity": 104}, {"time": 2782, "pitch": 60, "duration": 3, "velocity": 97}, {"time": 2785, "pitch": 62, "duration": 6, "velocity": 101}, {"time": 2791, "pitch": 64, "duration": 18, "velocity": 101}, {"time": 2809, "pitch": 55, "duration": 3, "velocity": 98}, {"time": 2812, "pitch": 59, "duration": 6, "velocity": 98}, {"time": 2818, "pitch": 59, "duration": 6, "velocity": 98}, {"time": 2824, "pitch": 59, "duration": 6, "velocity": 101}, {"time": 2830, "pitch": 57, "duration": 3, "velocity": 97}, {"time": 2833, "pitch": 59, "duration": 6, "velocity": 99}, {"time": 2839, "pitch": 60, "duration": 17, "velocity": 95}, {"time": 2856, "pitch": 55, "duration": 4, "velocity": 98}, {"time": 2860, "pitch": 67, "duration": 5, "velocity": 99}, {"time": 2865, "pitch": 65, "duration": 6, "velocity": 98}, {"time": 2871, "pitch": 64, "duration": 6, "velocity": 97}, {"time": 2877, "pitch": 65, "duration": 3, "velocity": 98}, {"time": 2880, "pitch": 67, "duration": 16, "velocity": 98}, {"time": 2896, "pitch": 64, "duration": 12, "velocity": 98}, {"time": 2908, "pitch": 60, "duration": 27, "velocity": 102}, {"time": 2935, "pitch": 64, "duration": 14, "velocity": 100}, {"time": 2949, "pitch": 64, "duration": 13, "velocity": 103}, {"time": 2962, "pitch": 62, "duration": 4, "velocity": 96}, {"time": 2966, "pitch": 60, "duration": 34, "velocity": 92}]}, {"program": 0, "is_drum": false, "name": "BRIDGE", "notes": [{"time": 52, "pitch": 72, "duration": 8, "velocity": 102}, {"time": 61, "pitch": 79, "duration": 11, "velocity": 97}, {"time": 76, "pitch": 72, "duration": 7, "velocity": 104}, {"time": 85, "pitch": 67, "duration": 7, "velocity": 103}, {"time": 94, "pitch": 72, "duration": 6, "velocity": 108}, {"time": 100, "pitch": 71, "duration": 7, "velocity": 103}, {"time": 109, "pitch": 79, "duration": 11, "velocity": 95}, {"time": 124, "pitch": 72, "duration": 8, "velocity": 106}, {"time": 133, "pitch": 67, "duration": 7, "velocity": 102}, {"time": 142, "pitch": 72, "duration": 6, "velocity": 100}, {"time": 148, "pitch": 72, "duration": 8, "velocity": 103}, {"time": 157, "pitch": 74, "duration": 12, "velocity": 104}, {"time": 172, "pitch": 72, "duration": 7, "velocity": 101}, {"time": 181, "pitch": 74, "duration": 7, "velocity": 108}, {"time": 190, "pitch": 76, "duration": 6, "velocity": 103}, {"time": 196, "pitch": 76, "duration": 1, "velocity": 102}, {"time": 205, "pitch": 74, "duration": 51, "velocity": 104}, {"time": 268, "pitch": 74, "duration": 21, "velocity": 102}, {"time": 300, "pitch": 67, "duration": 3, "velocity": 91}, {"time": 303, "pitch": 76, "duration": 5, "velocity": 102}, {"time": 309, "pitch": 74, "duration": 3, "velocity": 98}, {"time": 312, "pitch": 72, "duration": 3, "velocity": 84}, {"time": 315, "pitch": 71, "duration": 23, "velocity": 95}, {"time": 351, "pitch": 71, "duration": 6, "velocity": 99}, {"time": 357, "pitch": 72, "duration": 6, "velocity": 100}, {"time": 363, "pitch": 79, "duration": 19, "velocity": 98}, {"time": 434, "pitch": 71, "duration": 10, "velocity": 99}, {"time": 444, "pitch": 67, "duration": 9, "velocity": 96}, {"time": 453, "pitch": 62, "duration": 3, "velocity": 97}, {"time": 456, "pitch": 64, "duration": 3, "velocity": 98}, {"time": 459, "pitch": 60, "duration": 18, "velocity": 97}, {"time": 495, "pitch": 62, "duration": 6, "velocity": 92}, {"time": 501, "pitch": 55, "duration": 6, "velocity": 106}, {"time": 507, "pitch": 60, "duration": 17, "velocity": 89}, {"time": 540, "pitch": 55, "duration": 3, "velocity": 97}, {"time": 543, "pitch": 62, "duration": 6, "velocity": 98}, {"time": 549, "pitch": 60, "duration": 3, "velocity": 92}, {"time": 552, "pitch": 55, "duration": 3, "velocity": 98}, {"time": 555, "pitch": 60, "duration": 12, "velocity": 90}, {"time": 625, "pitch": 55, "duration": 19, "velocity": 81}, {"time": 627, "pitch": 59, "duration": 21, "velocity": 93}, {"time": 649, "pitch": 79, "duration": 3, "velocity": 75}, {"time": 651, "pitch": 86, "duration": 2, "velocity": 86}, {"time": 652, "pitch": 91, "duration": 2, "velocity": 91}, {"time": 708, "pitch": 67, "duration": 4, "velocity": 86}, {"time": 711, "pitch": 76, "duration": 7, "velocity": 106}, {"time": 717, "pitch": 74, "duration": 4, "velocity": 101}, {"time": 720, "pitch": 72, "duration": 4, "velocity": 95}, {"time": 723, "pitch": 71, "duration": 20, "velocity": 84}, {"time": 756, "pitch": 67, "duration": 4, "velocity": 96}, {"time": 759, "pitch": 71, "duration": 4, "velocity": 99}, {"time": 762, "pitch": 72, "duration": 3, "velocity": 99}, {"time": 765, "pitch": 67, "duration": 7, "velocity": 97}, {"time": 777, "pitch": 65, "duration": 9, "velocity": 91}, {"time": 781, "pitch": 79, "duration": 14, "velocity": 87}, {"time": 804, "pitch": 65, "duration": 4, "velocity": 84}, {"time": 807, "pitch": 72, "duration": 11, "velocity": 100}, {"time": 842, "pitch": 71, "duration": 8, "velocity": 90}, {"time": 842, "pitch": 67, "duration": 8, "velocity": 83}, {"time": 852, "pitch": 67, "duration": 4, "velocity": 81}, {"time": 855, "pitch": 71, "duration": 4, "velocity": 101}, {"time": 858, "pitch": 72, "duration": 3, "velocity": 97}, {"time": 861, "pitch": 74, "duration": 5, "velocity": 98}, {"time": 864, "pitch": 67, "duration": 3, "velocity": 86}, {"time": 868, "pitch": 72, "duration": 12, "velocity": 91}, {"time": 873, "pitch": 67, "duration": 4, "velocity": 87}, {"time": 877, "pitch": 79, "duration": 13, "velocity": 97}, {"time": 900, "pitch": 67, "duration": 4, "velocity": 93}, {"time": 904, "pitch": 76, "duration": 11, "velocity": 98}, {"time": 948, "pitch": 64, "duration": 4, "velocity": 95}, {"time": 951, "pitch": 71, "duration": 4, "velocity": 98}, {"time": 954, "pitch": 72, "duration": 3, "velocity": 99}, {"time": 957, "pitch": 67, "duration": 6, "velocity": 98}, {"time": 969, "pitch": 69, "duration": 18, "velocity": 92}, {"time": 972, "pitch": 79, "duration": 15, "velocity": 95}, {"time": 996, "pitch": 69, "duration": 4, "velocity": 88}, {"time": 999, "pitch": 79, "duration": 12, "velocity": 98}, {"time": 1017, "pitch": 67, "duration": 4, "velocity": 80}, {"time": 1020, "pitch": 72, "duration": 10, "velocity": 98}, {"time": 1029, "pitch": 67, "duration": 6, "velocity": 92}, {"time": 1035, "pitch": 74, "duration": 12, "velocity": 100}, {"time": 1045, "pitch": 67, "duration": 2, "velocity": 85}, {"time": 1048, "pitch": 76, "duration": 4, "velocity": 99}, {"time": 1053, "pitch": 77, "duration": 3, "velocity": 100}, {"time": 1057, "pitch": 79, "duration": 9, "velocity": 103}, {"time": 1066, "pitch": 67, "duration": 3, "velocity": 99}, {"time": 1069, "pitch": 72, "duration": 6, "velocity": 98}, {"time": 1075, "pitch": 79, "duration": 6, "velocity": 99}, {"time": 1089, "pitch": 67, "duration": 4, "velocity": 85}, {"time": 1092, "pitch": 72, "duration": 7, "velocity": 95}, {"time": 1098, "pitch": 79, "duration": 9, "velocity": 99}, {"time": 1113, "pitch": 67, "duration": 4, "velocity": 93}, {"time": 1116, "pitch": 72, "duration": 6, "velocity": 97}, {"time": 1122, "pitch": 79, "duration": 9, "velocity": 97}, {"time": 1131, "pitch": 76, "duration": 10, "velocity": 98}, {"time": 1140, "pitch": 67, "duration": 2, "velocity": 89}, {"time": 1143, "pitch": 71, "duration": 4, "velocity": 97}, {"time": 1147, "pitch": 72, "duration": 7, "velocity": 98}, {"time": 1159, "pitch": 69, "duration": 1, "velocity": 62}, {"time": 1161, "pitch": 72, "duration": 4, "velocity": 93}, {"time": 1164, "pitch": 77, "duration": 14, "velocity": 96}, {"time": 1209, "pitch": 67, "duration": 4, "velocity": 81}, {"time": 1212, "pitch": 72, "duration": 7, "velocity": 98}, {"time": 1218, "pitch": 74, "duration": 11, "velocity": 98}, {"time": 1224, "pitch": 67, "duration": 14, "velocity": 81}, {"time": 1228, "pitch": 79, "duration": 16, "velocity": 92}, {"time": 1251, "pitch": 74, "duration": 8, "velocity": 101}, {"time": 1257, "pitch": 67, "duration": 4, "velocity": 80}, {"time": 1260, "pitch": 71, "duration": 7, "velocity": 95}, {"time": 1266, "pitch": 74, "duration": 9, "velocity": 101}, {"time": 1282, "pitch": 67, "duration": 3, "velocity": 81}, {"time": 1284, "pitch": 71, "duration": 7, "velocity": 96}, {"time": 1290, "pitch": 74, "duration": 9, "velocity": 97}, {"time": 1307, "pitch": 67, "duration": 6, "velocity": 93}, {"time": 1311, "pitch": 69, "duration": 3, "velocity": 90}, {"time": 1313, "pitch": 76, "duration": 4, "velocity": 97}, {"time": 1316, "pitch": 73, "duration": 4, "velocity": 97}, {"time": 1319, "pitch": 69, "duration": 9, "velocity": 89}, {"time": 1348, "pitch": 77, "duration": 7, "velocity": 98}, {"time": 1356, "pitch": 69, "duration": 7, "velocity": 95}, {"time": 1363, "pitch": 72, "duration": 7, "velocity": 89}, {"time": 1368, "pitch": 69, "duration": 3, "velocity": 79}, {"time": 1372, "pitch": 67, "duration": 18, "velocity": 97}, {"time": 1401, "pitch": 64, "duration": 5, "velocity": 90}, {"time": 1404, "pitch": 69, "duration": 17, "velocity": 94}, {"time": 1409, "pitch": 64, "duration": 2, "velocity": 41}, {"time": 1410, "pitch": 72, "duration": 11, "velocity": 97}, {"time": 1425, "pitch": 64, "duration": 5, "velocity": 89}, {"time": 1428, "pitch": 69, "duration": 15, "velocity": 92}, {"time": 1434, "pitch": 72, "duration": 9, "velocity": 92}, {"time": 1449, "pitch": 64, "duration": 4, "velocity": 91}, {"time": 1452, "pitch": 69, "duration": 5, "velocity": 97}, {"time": 1458, "pitch": 72, "duration": 7, "velocity": 98}, {"time": 1467, "pitch": 76, "duration": 22, "velocity": 101}, {"time": 1497, "pitch": 69, "duration": 4, "velocity": 98}, {"time": 1500, "pitch": 72, "duration": 7, "velocity": 97}, {"time": 1506, "pitch": 74, "duration": 9, "velocity": 101}, {"time": 1521, "pitch": 69, "duration": 4, "velocity": 84}, {"time": 1524, "pitch": 72, "duration": 7, "velocity": 92}, {"time": 1530, "pitch": 74, "duration": 11, "velocity": 103}, {"time": 1546, "pitch": 67, "duration": 7, "velocity": 88}, {"time": 1549, "pitch": 72, "duration": 6, "velocity": 98}, {"time": 1554, "pitch": 74, "duration": 8, "velocity": 104}, {"time": 1561, "pitch": 72, "duration": 3, "velocity": 90}, {"time": 1564, "pitch": 79, "duration": 23, "velocity": 98}, {"time": 1593, "pitch": 69, "duration": 4, "velocity": 92}, {"time": 1596, "pitch": 72, "duration": 7, "velocity": 94}, {"time": 1602, "pitch": 74, "duration": 7, "velocity": 99}, {"time": 1608, "pitch": 72, "duration": 4, "velocity": 91}, {"time": 1616, "pitch": 69, "duration": 4, "velocity": 87}, {"time": 1619, "pitch": 72, "duration": 7, "velocity": 93}, {"time": 1626, "pitch": 74, "duration": 8, "velocity": 97}, {"time": 1633, "pitch": 72, "duration": 3, "velocity": 88}, {"time": 1641, "pitch": 67, "duration": 4, "velocity": 84}, {"time": 1644, "pitch": 72, "duration": 7, "velocity": 93}, {"time": 1650, "pitch": 74, "duration": 7, "velocity": 102}, {"time": 1656, "pitch": 72, "duration": 23, "velocity": 89}, {"time": 1659, "pitch": 79, "duration": 23, "velocity": 97}, {"time": 1689, "pitch": 69, "duration": 5, "velocity": 90}, {"time": 1693, "pitch": 72, "duration": 6, "velocity": 97}, {"time": 1698, "pitch": 74, "duration": 7, "velocity": 102}, {"time": 1704, "pitch": 72, "duration": 3, "velocity": 87}, {"time": 1713, "pitch": 69, "duration": 4, "velocity": 87}, {"time": 1716, "pitch": 72, "duration": 6, "velocity": 99}, {"time": 1722, "pitch": 74, "duration": 7, "velocity": 101}, {"time": 1728, "pitch": 72, "duration": 5, "velocity": 89}, {"time": 1737, "pitch": 67, "duration": 4, "velocity": 78}, {"time": 1740, "pitch": 72, "duration": 7, "velocity": 93}, {"time": 1746, "pitch": 74, "duration": 7, "velocity": 99}, {"time": 1752, "pitch": 72, "duration": 4, "velocity": 91}, {"time": 1755, "pitch": 79, "duration": 23, "velocity": 97}, {"time": 1786, "pitch": 69, "duration": 4, "velocity": 87}, {"time": 1789, "pitch": 72, "duration": 6, "velocity": 97}, {"time": 1795, "pitch": 74, "duration": 6, "velocity": 100}, {"time": 1800, "pitch": 72, "duration": 4, "velocity": 90}, {"time": 1809, "pitch": 69, "duration": 3, "velocity": 89}, {"time": 1812, "pitch": 72, "duration": 6, "velocity": 97}, {"time": 1818, "pitch": 74, "duration": 7, "velocity": 102}, {"time": 1824, "pitch": 72, "duration": 4, "velocity": 87}, {"time": 1833, "pitch": 67, "duration": 4, "velocity": 79}, {"time": 1837, "pitch": 74, "duration": 6, "velocity": 93}, {"time": 1843, "pitch": 79, "duration": 7, "velocity": 99}, {"time": 1849, "pitch": 74, "duration": 4, "velocity": 89}, {"time": 1852, "pitch": 67, "duration": 20, "velocity": 98}, {"time": 1932, "pitch": 67, "duration": 4, "velocity": 86}, {"time": 1935, "pitch": 76, "duration": 7, "velocity": 106}, {"time": 1941, "pitch": 74, "duration": 4, "velocity": 101}, {"time": 1944, "pitch": 72, "duration": 4, "velocity": 95}, {"time": 1947, "pitch": 71, "duration": 20, "velocity": 84}, {"time": 1980, "pitch": 67, "duration": 4, "velocity": 96}, {"time": 1983, "pitch": 71, "duration": 4, "velocity": 99}, {"time": 1986, "pitch": 72, "duration": 3, "velocity": 99}, {"time": 1989, "pitch": 67, "duration": 7, "velocity": 97}, {"time": 2001, "pitch": 65, "duration": 9, "velocity": 91}, {"time": 2005, "pitch": 79, "duration": 14, "velocity": 87}, {"time": 2028, "pitch": 65, "duration": 4, "velocity": 84}, {"time": 2031, "pitch": 72, "duration": 11, "velocity": 100}, {"time": 2066, "pitch": 71, "duration": 8, "velocity": 90}, {"time": 2066, "pitch": 67, "duration": 8, "velocity": 83}, {"time": 2076, "pitch": 67, "duration": 4, "velocity": 81}, {"time": 2079, "pitch": 71, "duration": 4, "velocity": 101}, {"time": 2082, "pitch": 72, "duration": 3, "velocity": 97}, {"time": 2085, "pitch": 74, "duration": 5, "velocity": 98}, {"time": 2088, "pitch": 67, "duration": 3, "velocity": 86}, {"time": 2092, "pitch": 72, "duration": 12, "velocity": 91}, {"time": 2097, "pitch": 67, "duration": 4, "velocity": 87}, {"time": 2101, "pitch": 79, "duration": 13, "velocity": 97}, {"time": 2124, "pitch": 67, "duration": 4, "velocity": 93}, {"time": 2128, "pitch": 76, "duration": 11, "velocity": 98}, {"time": 2172, "pitch": 64, "duration": 4, "velocity": 95}, {"time": 2175, "pitch": 71, "duration": 4, "velocity": 98}, {"time": 2178, "pitch": 72, "duration": 3, "velocity": 99}, {"time": 2181, "pitch": 67, "duration": 6, "velocity": 98}, {"time": 2193, "pitch": 69, "duration": 18, "velocity": 92}, {"time": 2196, "pitch": 79, "duration": 15, "velocity": 95}, {"time": 2220, "pitch": 69, "duration": 4, "velocity": 88}, {"time": 2223, "pitch": 79, "duration": 12, "velocity": 98}, {"time": 2241, "pitch": 67, "duration": 4, "velocity": 80}, {"time": 2244, "pitch": 72, "duration": 10, "velocity": 98}, {"time": 2253, "pitch": 67, "duration": 6, "velocity": 92}, {"time": 2259, "pitch": 74, "duration": 12, "velocity": 100}, {"time": 2269, "pitch": 67, "duration": 2, "velocity": 85}, {"time": 2272, "pitch": 76, "duration": 4, "velocity": 99}, {"time": 2277, "pitch": 77, "duration": 3, "velocity": 100}, {"time": 2281, "pitch": 79, "duration": 9, "velocity": 103}, {"time": 2290, "pitch": 67, "duration": 3, "velocity": 99}, {"time": 2293, "pitch": 72, "duration": 6, "velocity": 98}, {"time": 2299, "pitch": 79, "duration": 6, "velocity": 99}, {"time": 2313, "pitch": 67, "duration": 4, "velocity": 85}, {"time": 2316, "pitch": 72, "duration": 7, "velocity": 95}, {"time": 2322, "pitch": 79, "duration": 9, "velocity": 99}, {"time": 2337, "pitch": 67, "duration": 4, "velocity": 93}, {"time": 2340, "pitch": 72, "duration": 6, "velocity": 97}, {"time": 2346, "pitch": 79, "duration": 9, "velocity": 97}, {"time": 2355, "pitch": 76, "duration": 10, "velocity": 98}, {"time": 2364, "pitch": 67, "duration": 2, "velocity": 89}, {"time": 2367, "pitch": 71, "duration": 4, "velocity": 97}, {"time": 2371, "pitch": 72, "duration": 7, "velocity": 98}, {"time": 2383, "pitch": 69, "duration": 1, "velocity": 62}, {"time": 2385, "pitch": 72, "duration": 4, "velocity": 93}, {"time": 2388, "pitch": 77, "duration": 14, "velocity": 96}, {"time": 2433, "pitch": 67, "duration": 4, "velocity": 81}, {"time": 2436, "pitch": 72, "duration": 7, "velocity": 98}, {"time": 2442, "pitch": 74, "duration": 11, "velocity": 98}, {"time": 2448, "pitch": 67, "duration": 14, "velocity": 81}, {"time": 2452, "pitch": 79, "duration": 16, "velocity": 92}, {"time": 2475, "pitch": 74, "duration": 8, "velocity": 101}, {"time": 2481, "pitch": 67, "duration": 4, "velocity": 80}, {"time": 2484, "pitch": 71, "duration": 7, "velocity": 95}, {"time": 2490, "pitch": 74, "duration": 9, "velocity": 101}, {"time": 2506, "pitch": 67, "duration": 3, "velocity": 81}, {"time": 2508, "pitch": 71, "duration": 7, "velocity": 96}, {"time": 2514, "pitch": 74, "duration": 9, "velocity": 97}, {"time": 2531, "pitch": 67, "duration": 6, "velocity": 93}, {"time": 2535, "pitch": 69, "duration": 3, "velocity": 90}, {"time": 2537, "pitch": 76, "duration": 4, "velocity": 97}, {"time": 2540, "pitch": 73, "duration": 4, "velocity": 97}, {"time": 2543, "pitch": 69, "duration": 9, "velocity": 89}, {"time": 2572, "pitch": 77, "duration": 7, "velocity": 98}, {"time": 2580, "pitch": 69, "duration": 7, "velocity": 95}, {"time": 2587, "pitch": 72, "duration": 7, "velocity": 89}, {"time": 2592, "pitch": 69, "duration": 3, "velocity": 79}, {"time": 2596, "pitch": 67, "duration": 18, "velocity": 97}, {"time": 2625, "pitch": 64, "duration": 5, "velocity": 90}, {"time": 2628, "pitch": 69, "duration": 17, "velocity": 94}, {"time": 2633, "pitch": 64, "duration": 2, "velocity": 41}, {"time": 2634, "pitch": 72, "duration": 11, "velocity": 97}, {"time": 2649, "pitch": 64, "duration": 5, "velocity": 89}, {"time": 2652, "pitch": 69, "duration": 15, "velocity": 92}, {"time": 2658, "pitch": 72, "duration": 9, "velocity": 92}, {"time": 2673, "pitch": 64, "duration": 4, "velocity": 91}, {"time": 2676, "pitch": 69, "duration": 5, "velocity": 97}, {"time": 2682, "pitch": 72, "duration": 7, "velocity": 98}, {"time": 2691, "pitch": 76, "duration": 22, "velocity": 101}, {"time": 2716, "pitch": 83, "duration": 12, "velocity": 98}, {"time": 2728, "pitch": 79, "duration": 32, "velocity": 92}, {"time": 2764, "pitch": 74, "duration": 21, "velocity": 102}, {"time": 2796, "pitch": 67, "duration": 3, "velocity": 91}, {"time": 2799, "pitch": 76, "duration": 5, "velocity": 102}, {"time": 2805, "pitch": 74, "duration": 3, "velocity": 98}, {"time": 2808, "pitch": 72, "duration": 3, "velocity": 84}, {"time": 2811, "pitch": 71, "duration": 23, "velocity": 95}, {"time": 2847, "pitch": 71, "duration": 6, "velocity": 99}, {"time": 2853, "pitch": 72, "duration": 6, "velocity": 100}, {"time": 2859, "pitch": 79, "duration": 19, "velocity": 98}], "annotations": [{"time": 650, "annotation": {"number": 64, "value": 127}, "group": "control_change"}, {"time": 674, "annotation": {"number": 64, "value": 0}, "group": "control_change"}]}, {"program": 0, "is_drum": false, "name": "PIANO", "notes": [{"time": 52, "pitch": 48, "duration": 22, "velocity": 98}, {"time": 58, "pitch": 55, "duration": 9, "velocity": 77}, {"time": 61, "pitch": 64, "duration": 13, "velocity": 93}, {"time": 67, "pitch": 60, "duration": 13, "velocity": 94}, {"time": 70, "pitch": 55, "duration": 4, "velocity": 80}, {"time": 76, "pitch": 48, "duration": 19, "velocity": 97}, {"time": 79, "pitch": 55, "duration": 13, "velocity": 85}, {"time": 82, "pitch": 60, "duration": 19, "velocity": 89}, {"time": 85, "pitch": 64, "duration": 15, "velocity": 100}, {"time": 100, "pitch": 45, "duration": 22, "velocity": 96}, {"time": 103, "pitch": 52, "duration": 19, "velocity": 86}, {"time": 106, "pitch": 57, "duration": 21, "velocity": 89}, {"time": 109, "pitch": 60, "duration": 21, "velocity": 97}, {"time": 124, "pitch": 45, "duration": 20, "velocity": 96}, {"time": 127, "pitch": 52, "duration": 12, "velocity": 89}, {"time": 130, "pitch": 57, "duration": 12, "velocity": 91}, {"time": 133, "pitch": 60, "duration": 17, "velocity": 89}, {"time": 133, "pitch": 64, "duration": 16, "velocity": 97}, {"time": 142, "pitch": 52, "duration": 3, "velocity": 93}, {"time": 145, "pitch": 57, "duration": 5, "velocity": 89}, {"time": 148, "pitch": 41, "duration": 21, "velocity": 93}, {"time": 151, "pitch": 48, "duration": 18, "velocity": 86}, {"time": 154, "pitch": 57, "duration": 20, "velocity": 87}, {"time": 157, "pitch": 60, "duration": 19, "velocity": 91}, {"time": 157, "pitch": 64, "duration": 17, "velocity": 93}, {"time": 172, "pitch": 41, "duration": 22, "velocity": 96}, {"time": 175, "pitch": 48, "duration": 13, "velocity": 86}, {"time": 178, "pitch": 57, "duration": 13, "velocity": 84}, {"time": 181, "pitch": 60, "duration": 15, "velocity": 93}, {"time": 181, "pitch": 65, "duration": 22, "velocity": 94}, {"time": 190, "pitch": 48, "duration": 4, "velocity": 93}, {"time": 193, "pitch": 57, "duration": 4, "velocity": 90}, {"time": 196, "pitch": 43, "duration": 22, "velocity": 98}, {"time": 199, "pitch": 50, "duration": 20, "velocity": 86}, {"time": 202, "pitch": 55, "duration": 21, "velocity": 93}, {"time": 205, "pitch": 62, "duration": 22, "velocity": 95}, {"time": 220, "pitch": 43, "duration": 45, "velocity": 87}, {"time": 223, "pitch": 50, "duration": 42, "velocity": 86}, {"time": 226, "pitch": 55, "duration": 39, "velocity": 89}, {"time": 229, "pitch": 62, "duration": 36, "velocity": 91}, {"time": 232, "pitch": 67, "duration": 33, "velocity": 87}, {"time": 268, "pitch": 48, "duration": 46, "velocity": 98}, {"time": 274, "pitch": 55, "duration": 33, "velocity": 86}, {"time": 277, "pitch": 60, "duration": 33, "velocity": 98}, {"time": 283, "pitch": 67, "duration": 34, "velocity": 90}, {"time": 292, "pitch": 64, "duration": 24, "velocity": 92}, {"time": 310, "pitch": 55, "duration": 4, "velocity": 88}, {"time": 313, "pitch": 60, "duration": 4, "velocity": 93}, {"time": 316, "pitch": 45, "duration": 42, "velocity": 95}, {"time": 319, "pitch": 52, "duration": 39, "velocity": 85}, {"time": 322, "pitch": 57, "duration": 36, "velocity": 83}, {"time": 325, "pitch": 60, "duration": 11, "velocity": 90}, {"time": 340, "pitch": 64, "duration": 21, "velocity": 97}, {"time": 352, "pitch": 60, "duration": 5, "velocity": 89}, {"time": 364, "pitch": 41, "duration": 21, "velocity": 89}, {"time": 364, "pitch": 53, "duration": 15, "velocity": 83}, {"time": 364, "pitch": 57, "duration": 12, "velocity": 86}, {"time": 370, "pitch": 48, "duration": 16, "velocity": 86}, {"time": 373, "pitch": 60, "duration": 26, "velocity": 92}, {"time": 382, "pitch": 53, "duration": 19, "velocity": 91}, {"time": 385, "pitch": 57, "duration": 15, "velocity": 89}, {"time": 388, "pitch": 41, "duration": 21, "velocity": 91}, {"time": 394, "pitch": 48, "duration": 15, "velocity": 82}, {"time": 400, "pitch": 57, "duration": 1, "velocity": 82}, {"time": 400, "pitch": 60, "duration": 13, "velocity": 98}, {"time": 412, "pitch": 43, "duration": 22, "velocity": 97}, {"time": 418, "pitch": 50, "duration": 16, "velocity": 85}, {"time": 421, "pitch": 55, "duration": 6, "velocity": 97}, {"time": 427, "pitch": 60, "duration": 3, "velocity": 89}, {"time": 433, "pitch": 62, "duration": 10, "velocity": 84}, {"time": 436, "pitch": 43, "duration": 21, "velocity": 93}, {"time": 436, "pitch": 55, "duration": 6, "velocity": 89}, {"time": 442, "pitch": 50, "duration": 14, "velocity": 80}, {"time": 448, "pitch": 55, "duration": 12, "velocity": 81}, {"time": 448, "pitch": 59, "duration": 12, "velocity": 81}, {"time": 448, "pitch": 62, "duration": 12, "velocity": 78}, {"time": 460, "pitch": 48, "duration": 46, "velocity": 98}, {"time": 466, "pitch": 55, "duration": 33, "velocity": 86}, {"time": 469, "pitch": 60, "duration": 33, "velocity": 98}, {"time": 475, "pitch": 67, "duration": 34, "velocity": 90}, {"time": 484, "pitch": 64, "duration": 24, "velocity": 92}, {"time": 502, "pitch": 55, "duration": 4, "velocity": 88}, {"time": 505, "pitch": 60, "duration": 4, "velocity": 93}, {"time": 508, "pitch": 45, "duration": 42, "velocity": 95}, {"time": 511, "pitch": 52, "duration": 39, "velocity": 85}, {"time": 514, "pitch": 57, "duration": 36, "velocity": 83}, {"time": 517, "pitch": 60, "duration": 11, "velocity": 90}, {"time": 532, "pitch": 64, "duration": 21, "velocity": 97}, {"time": 544, "pitch": 60, "duration": 5, "velocity": 89}, {"time": 556, "pitch": 41, "duration": 21, "velocity": 89}, {"time": 556, "pitch": 53, "duration": 15, "velocity": 83}, {"time": 556, "pitch": 57, "duration": 12, "velocity": 86}, {"time": 562, "pitch": 48, "duration": 16, "velocity": 86}, {"time": 565, "pitch": 60, "duration": 26, "velocity": 92}, {"time": 574, "pitch": 53, "duration": 19, "velocity": 91}, {"time": 577, "pitch": 57, "duration": 15, "velocity": 89}, {"time": 580, "pitch": 41, "duration": 21, "velocity": 91}, {"time": 586, "pitch": 48, "duration": 15, "velocity": 82}, {"time": 592, "pitch": 57, "duration": 1, "velocity": 82}, {"time": 592, "pitch": 60, "duration": 13, "velocity": 98}, {"time": 604, "pitch": 43, "duration": 22, "velocity": 97}, {"time": 610, "pitch": 50, "duration": 16, "velocity": 85}, {"time": 613, "pitch": 55, "duration": 6, "velocity": 97}, {"time": 619, "pitch": 60, "duration": 3, "velocity": 89}, {"time": 625, "pitch": 62, "duration": 10, "velocity": 84}, {"time": 628, "pitch": 43, "duration": 21, "velocity": 93}, {"time": 628, "pitch": 55, "duration": 6, "velocity": 89}, {"time": 634, "pitch": 50, "duration": 14, "velocity": 80}, {"time": 640, "pitch": 55, "duration": 12, "velocity": 81}, {"time": 640, "pitch": 59, "duration": 12, "velocity": 81}, {"time": 640, "pitch": 62, "duration": 12, "velocity": 78}, {"time": 676, "pitch": 48, "duration": 21, "velocity": 99}, {"time": 682, "pitch": 55, "duration": 9, "velocity": 72}, {"time": 685, "pitch": 60, "duration": 9, "velocity": 97}, {"time": 685, "pitch": 67, "duration": 20, "velocity": 92}, {"time": 694, "pitch": 55, "duration": 4, "velocity": 84}, {"time": 697, "pitch": 60, "duration": 7, "velocity": 97}, {"time": 700, "pitch": 48, "duration": 20, "velocity": 98}, {"time": 703, "pitch": 55, "duration": 10, "velocity": 78}, {"time": 706, "pitch": 60, "duration": 1, "velocity": 84}, {"time": 709, "pitch": 60, "duration": 10, "velocity": 98}, {"time": 709, "pitch": 67, "duration": 21, "velocity": 92}, {"time": 721, "pitch": 60, "duration": 4, "velocity": 93}, {"time": 724, "pitch": 45, "duration": 22, "velocity": 96}, {"time": 727, "pitch": 52, "duration": 19, "velocity": 84}, {"time": 730, "pitch": 57, "duration": 9, "velocity": 87}, {"time": 733, "pitch": 67, "duration": 12, "velocity": 98}, {"time": 745, "pitch": 64, "duration": 9, "velocity": 93}, {"time": 748, "pitch": 45, "duration": 21, "velocity": 97}, {"time": 751, "pitch": 52, "duration": 13, "velocity": 88}, {"time": 754, "pitch": 57, "duration": 1, "velocity": 89}, {"time": 757, "pitch": 57, "duration": 8, "velocity": 93}, {"time": 757, "pitch": 64, "duration": 16, "velocity": 98}, {"time": 766, "pitch": 52, "duration": 3, "velocity": 93}, {"time": 769, "pitch": 57, "duration": 4, "velocity": 92}, {"time": 772, "pitch": 41, "duration": 22, "velocity": 98}, {"time": 775, "pitch": 48, "duration": 18, "velocity": 87}, {"time": 778, "pitch": 53, "duration": 9, "velocity": 89}, {"time": 781, "pitch": 60, "duration": 22, "velocity": 92}, {"time": 793, "pitch": 53, "duration": 6, "velocity": 92}, {"time": 796, "pitch": 41, "duration": 21, "velocity": 99}, {"time": 799, "pitch": 48, "duration": 11, "velocity": 88}, {"time": 802, "pitch": 53, "duration": 1, "velocity": 92}, {"time": 805, "pitch": 53, "duration": 9, "velocity": 97}, {"time": 805, "pitch": 60, "duration": 16, "velocity": 97}, {"time": 814, "pitch": 48, "duration": 4, "velocity": 88}, {"time": 817, "pitch": 53, "duration": 3, "velocity": 97}, {"time": 820, "pitch": 43, "duration": 22, "velocity": 99}, {"time": 823, "pitch": 50, "duration": 19, "velocity": 88}, {"time": 826, "pitch": 55, "duration": 1, "velocity": 95}, {"time": 829, "pitch": 55, "duration": 17, "velocity": 95}, {"time": 829, "pitch": 62, "duration": 21, "velocity": 94}, {"time": 841, "pitch": 67, "duration": 15, "velocity": 74}, {"time": 844, "pitch": 43, "duration": 21, "velocity": 97}, {"time": 847, "pitch": 50, "duration": 13, "velocity": 90}, {"time": 850, "pitch": 55, "duration": 8, "velocity": 98}, {"time": 853, "pitch": 62, "duration": 15, "velocity": 99}, {"time": 859, "pitch": 67, "duration": 13, "velocity": 97}, {"time": 862, "pitch": 50, "duration": 3, "velocity": 91}, {"time": 865, "pitch": 55, "duration": 3, "velocity": 96}, {"time": 868, "pitch": 48, "duration": 21, "velocity": 103}, {"time": 871, "pitch": 55, "duration": 20, "velocity": 89}, {"time": 874, "pitch": 60, "duration": 21, "velocity": 91}, {"time": 877, "pitch": 67, "duration": 20, "velocity": 98}, {"time": 892, "pitch": 48, "duration": 20, "velocity": 97}, {"time": 895, "pitch": 55, "duration": 10, "velocity": 91}, {"time": 898, "pitch": 60, "duration": 9, "velocity": 95}, {"time": 901, "pitch": 67, "duration": 9, "velocity": 99}, {"time": 907, "pitch": 55, "duration": 5, "velocity": 92}, {"time": 910, "pitch": 60, "duration": 4, "velocity": 98}, {"time": 913, "pitch": 67, "duration": 28, "velocity": 89}, {"time": 916, "pitch": 45, "duration": 22, "velocity": 97}, {"time": 919, "pitch": 52, "duration": 20, "velocity": 86}, {"time": 922, "pitch": 57, "duration": 22, "velocity": 88}, {"time": 925, "pitch": 60, "duration": 22, "velocity": 90}, {"time": 940, "pitch": 45, "duration": 20, "velocity": 96}, {"time": 943, "pitch": 52, "duration": 10, "velocity": 89}, {"time": 946, "pitch": 57, "duration": 9, "velocity": 91}, {"time": 949, "pitch": 60, "duration": 10, "velocity": 97}, {"time": 949, "pitch": 67, "duration": 16, "velocity": 98}, {"time": 955, "pitch": 52, "duration": 6, "velocity": 95}, {"time": 958, "pitch": 57, "duration": 8, "velocity": 97}, {"time": 964, "pitch": 41, "duration": 22, "velocity": 94}, {"time": 967, "pitch": 48, "duration": 19, "velocity": 85}, {"time": 970, "pitch": 53, "duration": 20, "velocity": 95}, {"time": 973, "pitch": 60, "duration": 9, "velocity": 98}, {"time": 982, "pitch": 57, "duration": 4, "velocity": 92}, {"time": 985, "pitch": 60, "duration": 10, "velocity": 97}, {"time": 988, "pitch": 41, "duration": 22, "velocity": 97}, {"time": 991, "pitch": 48, "duration": 19, "velocity": 90}, {"time": 994, "pitch": 53, "duration": 18, "velocity": 93}, {"time": 997, "pitch": 60, "duration": 16, "velocity": 97}, {"time": 1006, "pitch": 57, "duration": 7, "velocity": 86}, {"time": 1012, "pitch": 43, "duration": 22, "velocity": 98}, {"time": 1015, "pitch": 50, "duration": 18, "velocity": 86}, {"time": 1018, "pitch": 55, "duration": 9, "velocity": 89}, {"time": 1021, "pitch": 62, "duration": 21, "velocity": 97}, {"time": 1030, "pitch": 55, "duration": 8, "velocity": 85}, {"time": 1033, "pitch": 67, "duration": 27, "velocity": 93}, {"time": 1036, "pitch": 43, "duration": 22, "velocity": 96}, {"time": 1039, "pitch": 50, "duration": 13, "velocity": 86}, {"time": 1042, "pitch": 55, "duration": 12, "velocity": 88}, {"time": 1045, "pitch": 62, "duration": 16, "velocity": 96}, {"time": 1054, "pitch": 50, "duration": 4, "velocity": 90}, {"time": 1057, "pitch": 55, "duration": 3, "velocity": 102}, {"time": 1060, "pitch": 41, "duration": 23, "velocity": 99}, {"time": 1063, "pitch": 48, "duration": 10, "velocity": 92}, {"time": 1066, "pitch": 53, "duration": 10, "velocity": 96}, {"time": 1069, "pitch": 60, "duration": 21, "velocity": 100}, {"time": 1075, "pitch": 48, "duration": 7, "velocity": 98}, {"time": 1081, "pitch": 53, "duration": 6, "velocity": 97}, {"time": 1084, "pitch": 41, "duration": 21, "velocity": 98}, {"time": 1087, "pitch": 48, "duration": 13, "velocity": 91}, {"time": 1090, "pitch": 53, "duration": 6, "velocity": 94}, {"time": 1093, "pitch": 60, "duration": 8, "velocity": 97}, {"time": 1099, "pitch": 53, "duration": 7, "velocity": 98}, {"time": 1102, "pitch": 48, "duration": 5, "velocity": 88}, {"time": 1105, "pitch": 60, "duration": 5, "velocity": 95}, {"time": 1108, "pitch": 45, "duration": 21, "velocity": 93}, {"time": 1111, "pitch": 52, "duration": 18, "velocity": 86}, {"time": 1114, "pitch": 57, "duration": 10, "velocity": 95}, {"time": 1117, "pitch": 64, "duration": 8, "velocity": 98}, {"time": 1129, "pitch": 57, "duration": 6, "velocity": 95}, {"time": 1129, "pitch": 64, "duration": 10, "velocity": 97}, {"time": 1132, "pitch": 45, "duration": 23, "velocity": 91}, {"time": 1135, "pitch": 52, "duration": 10, "velocity": 93}, {"time": 1138, "pitch": 57, "duration": 2, "velocity": 98}, {"time": 1141, "pitch": 57, "duration": 8, "velocity": 100}, {"time": 1141, "pitch": 60, "duration": 8, "velocity": 99}, {"time": 1147, "pitch": 52, "duration": 8, "velocity": 97}, {"time": 1150, "pitch": 64, "duration": 6, "velocity": 102}, {"time": 1153, "pitch": 57, "duration": 3, "velocity": 90}, {"time": 1156, "pitch": 50, "duration": 22, "velocity": 100}, {"time": 1159, "pitch": 57, "duration": 15, "velocity": 97}, {"time": 1162, "pitch": 62, "duration": 11, "velocity": 93}, {"time": 1165, "pitch": 65, "duration": 9, "velocity": 98}, {"time": 1177, "pitch": 57, "duration": 2, "velocity": 72}, {"time": 1177, "pitch": 62, "duration": 6, "velocity": 101}, {"time": 1180, "pitch": 50, "duration": 20, "velocity": 103}, {"time": 1183, "pitch": 57, "duration": 7, "velocity": 96}, {"time": 1186, "pitch": 62, "duration": 4, "velocity": 93}, {"time": 1189, "pitch": 65, "duration": 12, "velocity": 97}, {"time": 1198, "pitch": 57, "duration": 4, "velocity": 99}, {"time": 1201, "pitch": 62, "duration": 8, "velocity": 95}, {"time": 1204, "pitch": 43, "duration": 23, "velocity": 98}, {"time": 1207, "pitch": 50, "duration": 20, "velocity": 88}, {"time": 1210, "pitch": 55, "duration": 9, "velocity": 100}, {"time": 1213, "pitch": 62, "duration": 16, "velocity": 97}, {"time": 1219, "pitch": 67, "duration": 16, "velocity": 95}, {"time": 1225, "pitch": 55, "duration": 6, "velocity": 95}, {"time": 1228, "pitch": 43, "duration": 21, "velocity": 97}, {"time": 1231, "pitch": 50, "duration": 18, "velocity": 91}, {"time": 1234, "pitch": 55, "duration": 4, "velocity": 98}, {"time": 1237, "pitch": 62, "duration": 7, "velocity": 97}, {"time": 1243, "pitch": 67, "duration": 10, "velocity": 96}, {"time": 1246, "pitch": 55, "duration": 7, "velocity": 99}, {"time": 1252, "pitch": 40, "duration": 21, "velocity": 98}, {"time": 1255, "pitch": 47, "duration": 18, "velocity": 94}, {"time": 1258, "pitch": 52, "duration": 10, "velocity": 98}, {"time": 1261, "pitch": 59, "duration": 7, "velocity": 88}, {"time": 1267, "pitch": 64, "duration": 15, "velocity": 99}, {"time": 1273, "pitch": 52, "duration": 6, "velocity": 97}, {"time": 1276, "pitch": 40, "duration": 19, "velocity": 100}, {"time": 1279, "pitch": 47, "duration": 17, "velocity": 89}, {"time": 1282, "pitch": 52, "duration": 9, "velocity": 99}, {"time": 1285, "pitch": 59, "duration": 9, "velocity": 93}, {"time": 1291, "pitch": 64, "duration": 11, "velocity": 98}, {"time": 1294, "pitch": 52, "duration": 4, "velocity": 98}, {"time": 1300, "pitch": 45, "duration": 21, "velocity": 98}, {"time": 1303, "pitch": 52, "duration": 14, "velocity": 93}, {"time": 1306, "pitch": 57, "duration": 6, "velocity": 94}, {"time": 1309, "pitch": 64, "duration": 3, "velocity": 102}, {"time": 1315, "pitch": 57, "duration": 4, "velocity": 95}, {"time": 1315, "pitch": 64, "duration": 7, "velocity": 99}, {"time": 1324, "pitch": 45, "duration": 21, "velocity": 98}, {"time": 1324, "pitch": 57, "duration": 3, "velocity": 94}, {"time": 1324, "pitch": 61, "duration": 6, "velocity": 92}, {"time": 1327, "pitch": 52, "duration": 18, "velocity": 92}, {"time": 1330, "pitch": 57, "duration": 9, "velocity": 92}, {"time": 1333, "pitch": 64, "duration": 6, "velocity": 99}, {"time": 1339, "pitch": 69, "duration": 10, "velocity": 97}, {"time": 1342, "pitch": 57, "duration": 3, "velocity": 85}, {"time": 1348, "pitch": 50, "duration": 20, "velocity": 102}, {"time": 1354, "pitch": 57, "duration": 4, "velocity": 81}, {"time": 1357, "pitch": 65, "duration": 14, "velocity": 98}, {"time": 1363, "pitch": 62, "duration": 4, "velocity": 89}, {"time": 1366, "pitch": 57, "duration": 6, "velocity": 84}, {"time": 1372, "pitch": 43, "duration": 22, "velocity": 98}, {"time": 1375, "pitch": 50, "duration": 18, "velocity": 89}, {"time": 1378, "pitch": 55, "duration": 9, "velocity": 92}, {"time": 1381, "pitch": 62, "duration": 15, "velocity": 95}, {"time": 1390, "pitch": 67, "duration": 7, "velocity": 96}, {"time": 1393, "pitch": 55, "duration": 2, "velocity": 98}, {"time": 1396, "pitch": 45, "duration": 23, "velocity": 103}, {"time": 1402, "pitch": 52, "duration": 4, "velocity": 100}, {"time": 1405, "pitch": 57, "duration": 3, "velocity": 98}, {"time": 1411, "pitch": 52, "duration": 12, "velocity": 101}, {"time": 1411, "pitch": 60, "duration": 18, "velocity": 96}, {"time": 1420, "pitch": 45, "duration": 22, "velocity": 99}, {"time": 1426, "pitch": 52, "duration": 6, "velocity": 97}, {"time": 1429, "pitch": 57, "duration": 4, "velocity": 97}, {"time": 1435, "pitch": 52, "duration": 12, "velocity": 99}, {"time": 1435, "pitch": 60, "duration": 18, "velocity": 97}, {"time": 1444, "pitch": 45, "duration": 21, "velocity": 99}, {"time": 1450, "pitch": 52, "duration": 10, "velocity": 98}, {"time": 1453, "pitch": 57, "duration": 5, "velocity": 93}, {"time": 1459, "pitch": 60, "duration": 7, "velocity": 98}, {"time": 1468, "pitch": 45, "duration": 24, "velocity": 97}, {"time": 1468, "pitch": 52, "duration": 24, "velocity": 93}, {"time": 1468, "pitch": 57, "duration": 24, "velocity": 91}, {"time": 1492, "pitch": 45, "duration": 20, "velocity": 100}, {"time": 1495, "pitch": 52, "duration": 17, "velocity": 92}, {"time": 1498, "pitch": 57, "duration": 18, "velocity": 101}, {"time": 1501, "pitch": 60, "duration": 5, "velocity": 106}, {"time": 1507, "pitch": 60, "duration": 10, "velocity": 98}, {"time": 1507, "pitch": 64, "duration": 18, "velocity": 99}, {"time": 1516, "pitch": 41, "duration": 22, "velocity": 98}, {"time": 1519, "pitch": 48, "duration": 20, "velocity": 87}, {"time": 1522, "pitch": 53, "duration": 19, "velocity": 97}, {"time": 1525, "pitch": 57, "duration": 17, "velocity": 94}, {"time": 1531, "pitch": 60, "duration": 11, "velocity": 98}, {"time": 1540, "pitch": 43, "duration": 21, "velocity": 98}, {"time": 1543, "pitch": 50, "duration": 19, "velocity": 94}, {"time": 1546, "pitch": 55, "duration": 9, "velocity": 92}, {"time": 1549, "pitch": 62, "duration": 9, "velocity": 95}, {"time": 1555, "pitch": 67, "duration": 5, "velocity": 93}, {"time": 1558, "pitch": 55, "duration": 10, "velocity": 88}, {"time": 1561, "pitch": 62, "duration": 9, "velocity": 92}, {"time": 1564, "pitch": 43, "duration": 21, "velocity": 98}, {"time": 1567, "pitch": 50, "duration": 19, "velocity": 85}, {"time": 1570, "pitch": 55, "duration": 14, "velocity": 92}, {"time": 1588, "pitch": 45, "duration": 19, "velocity": 99}, {"time": 1591, "pitch": 52, "duration": 16, "velocity": 90}, {"time": 1594, "pitch": 57, "duration": 7, "velocity": 86}, {"time": 1597, "pitch": 60, "duration": 4, "velocity": 100}, {"time": 1603, "pitch": 57, "duration": 10, "velocity": 93}, {"time": 1603, "pitch": 60, "duration": 10, "velocity": 98}, {"time": 1603, "pitch": 64, "duration": 13, "velocity": 99}, {"time": 1612, "pitch": 41, "duration": 21, "velocity": 98}, {"time": 1615, "pitch": 48, "duration": 19, "velocity": 87}, {"time": 1618, "pitch": 53, "duration": 7, "velocity": 93}, {"time": 1621, "pitch": 57, "duration": 4, "velocity": 97}, {"time": 1627, "pitch": 53, "duration": 9, "velocity": 92}, {"time": 1627, "pitch": 57, "duration": 9, "velocity": 92}, {"time": 1627, "pitch": 60, "duration": 10, "velocity": 91}, {"time": 1636, "pitch": 43, "duration": 21, "velocity": 97}, {"time": 1639, "pitch": 50, "duration": 19, "velocity": 88}, {"time": 1642, "pitch": 55, "duration": 9, "velocity": 95}, {"time": 1645, "pitch": 62, "duration": 10, "velocity": 95}, {"time": 1651, "pitch": 67, "duration": 4, "velocity": 94}, {"time": 1654, "pitch": 55, "duration": 4, "velocity": 91}, {"time": 1660, "pitch": 43, "duration": 23, "velocity": 97}, {"time": 1660, "pitch": 55, "duration": 23, "velocity": 90}, {"time": 1660, "pitch": 62, "duration": 23, "velocity": 90}, {"time": 1684, "pitch": 45, "duration": 20, "velocity": 100}, {"time": 1687, "pitch": 52, "duration": 17, "velocity": 92}, {"time": 1690, "pitch": 57, "duration": 18, "velocity": 101}, {"time": 1693, "pitch": 60, "duration": 5, "velocity": 106}, {"time": 1699, "pitch": 60, "duration": 10, "velocity": 98}, {"time": 1699, "pitch": 64, "duration": 18, "velocity": 99}, {"time": 1708, "pitch": 41, "duration": 22, "velocity": 98}, {"time": 1711, "pitch": 48, "duration": 20, "velocity": 87}, {"time": 1714, "pitch": 53, "duration": 19, "velocity": 97}, {"time": 1717, "pitch": 57, "duration": 17, "velocity": 94}, {"time": 1723, "pitch": 60, "duration": 11, "velocity": 98}, {"time": 1732, "pitch": 43, "duration": 21, "velocity": 98}, {"time": 1735, "pitch": 50, "duration": 19, "velocity": 94}, {"time": 1738, "pitch": 55, "duration": 9, "velocity": 92}, {"time": 1741, "pitch": 62, "duration": 9, "velocity": 95}, {"time": 1747, "pitch": 67, "duration": 5, "velocity": 93}, {"time": 1750, "pitch": 55, "duration": 10, "velocity": 88}, {"time": 1753, "pitch": 62, "duration": 9, "velocity": 92}, {"time": 1756, "pitch": 43, "duration": 21, "velocity": 98}, {"time": 1759, "pitch": 50, "duration": 19, "velocity": 85}, {"time": 1762, "pitch": 55, "duration": 14, "velocity": 92}, {"time": 1780, "pitch": 45, "duration": 19, "velocity": 99}, {"time": 1783, "pitch": 52, "duration": 16, "velocity": 90}, {"time": 1786, "pitch": 57, "duration": 7, "velocity": 86}, {"time": 1789, "pitch": 60, "duration": 4, "velocity": 100}, {"time": 1795, "pitch": 57, "duration": 10, "velocity": 93}, {"time": 1795, "pitch": 60, "duration": 10, "velocity": 98}, {"time": 1795, "pitch": 64, "duration": 13, "velocity": 99}, {"time": 1804, "pitch": 41, "duration": 21, "velocity": 98}, {"time": 1807, "pitch": 48, "duration": 19, "velocity": 87}, {"time": 1810, "pitch": 53, "duration": 7, "velocity": 93}, {"time": 1813, "pitch": 57, "duration": 4, "velocity": 97}, {"time": 1819, "pitch": 53, "duration": 9, "velocity": 92}, {"time": 1819, "pitch": 57, "duration": 9, "velocity": 92}, {"time": 1819, "pitch": 60, "duration": 10, "velocity": 91}, {"time": 1828, "pitch": 43, "duration": 21, "velocity": 97}, {"time": 1831, "pitch": 50, "duration": 19, "velocity": 88}, {"time": 1834, "pitch": 55, "duration": 9, "velocity": 95}, {"time": 1837, "pitch": 62, "duration": 10, "velocity": 95}, {"time": 1843, "pitch": 67, "duration": 4, "velocity": 94}, {"time": 1846, "pitch": 55, "duration": 4, "velocity": 91}, {"time": 1852, "pitch": 43, "duration": 23, "velocity": 97}, {"time": 1852, "pitch": 55, "duration": 23, "velocity": 90}, {"time": 1852, "pitch": 62, "duration": 23, "velocity": 90}, {"time": 1874, "pitch": 62, "duration": 1, "velocity": 69}, {"time": 1875, "pitch": 67, "duration": 23, "velocity": 78}, {"time": 1875, "pitch": 43, "duration": 24, "velocity": 84}, {"time": 1876, "pitch": 71, "duration": 23, "velocity": 90}, {"time": 1900, "pitch": 48, "duration": 21, "velocity": 99}, {"time": 1906, "pitch": 55, "duration": 9, "velocity": 72}, {"time": 1909, "pitch": 60, "duration": 9, "velocity": 97}, {"time": 1909, "pitch": 67, "duration": 20, "velocity": 92}, {"time": 1918, "pitch": 55, "duration": 4, "velocity": 84}, {"time": 1921, "pitch": 60, "duration": 7, "velocity": 97}, {"time": 1924, "pitch": 48, "duration": 20, "velocity": 98}, {"time": 1927, "pitch": 55, "duration": 10, "velocity": 78}, {"time": 1930, "pitch": 60, "duration": 1, "velocity": 84}, {"time": 1933, "pitch": 60, "duration": 10, "velocity": 98}, {"time": 1933, "pitch": 67, "duration": 21, "velocity": 92}, {"time": 1945, "pitch": 60, "duration": 4, "velocity": 93}, {"time": 1948, "pitch": 45, "duration": 22, "velocity": 96}, {"time": 1951, "pitch": 52, "duration": 19, "velocity": 84}, {"time": 1954, "pitch": 57, "duration": 9, "velocity": 87}, {"time": 1957, "pitch": 67, "duration": 12, "velocity": 98}, {"time": 1969, "pitch": 64, "duration": 9, "velocity": 93}, {"time": 1972, "pitch": 45, "duration": 21, "velocity": 97}, {"time": 1975, "pitch": 52, "duration": 13, "velocity": 88}, {"time": 1978, "pitch": 57, "duration": 1, "velocity": 89}, {"time": 1981, "pitch": 57, "duration": 8, "velocity": 93}, {"time": 1981, "pitch": 64, "duration": 16, "velocity": 98}, {"time": 1990, "pitch": 52, "duration": 3, "velocity": 93}, {"time": 1993, "pitch": 57, "duration": 4, "velocity": 92}, {"time": 1996, "pitch": 41, "duration": 22, "velocity": 98}, {"time": 1999, "pitch": 48, "duration": 18, "velocity": 87}, {"time": 2002, "pitch": 53, "duration": 9, "velocity": 89}, {"time": 2005, "pitch": 60, "duration": 22, "velocity": 92}, {"time": 2017, "pitch": 53, "duration": 6, "velocity": 92}, {"time": 2020, "pitch": 41, "duration": 21, "velocity": 99}, {"time": 2023, "pitch": 48, "duration": 11, "velocity": 88}, {"time": 2026, "pitch": 53, "duration": 1, "velocity": 92}, {"time": 2029, "pitch": 53, "duration": 9, "velocity": 97}, {"time": 2029, "pitch": 60, "duration": 16, "velocity": 97}, {"time": 2038, "pitch": 48, "duration": 4, "velocity": 88}, {"time": 2041, "pitch": 53, "duration": 3, "velocity": 97}, {"time": 2044, "pitch": 43, "duration": 22, "velocity": 99}, {"time": 2047, "pitch": 50, "duration": 19, "velocity": 88}, {"time": 2050, "pitch": 55, "duration": 1, "velocity": 95}, {"time": 2053, "pitch": 55, "duration": 17, "velocity": 95}, {"time": 2053, "pitch": 62, "duration": 21, "velocity": 94}, {"time": 2065, "pitch": 67, "duration": 15, "velocity": 74}, {"time": 2068, "pitch": 43, "duration": 21, "velocity": 97}, {"time": 2071, "pitch": 50, "duration": 13, "velocity": 90}, {"time": 2074, "pitch": 55, "duration": 8, "velocity": 98}, {"time": 2077, "pitch": 62, "duration": 15, "velocity": 99}, {"time": 2083, "pitch": 67, "duration": 13, "velocity": 97}, {"time": 2086, "pitch": 50, "duration": 3, "velocity": 91}, {"time": 2089, "pitch": 55, "duration": 3, "velocity": 96}, {"time": 2092, "pitch": 48, "duration": 21, "velocity": 103}, {"time": 2095, "pitch": 55, "duration": 20, "velocity": 89}, {"time": 2098, "pitch": 60, "duration": 21, "velocity": 91}, {"time": 2101, "pitch": 67, "duration": 20, "velocity": 98}, {"time": 2116, "pitch": 48, "duration": 20, "velocity": 97}, {"time": 2119, "pitch": 55, "duration": 10, "velocity": 91}, {"time": 2122, "pitch": 60, "duration": 9, "velocity": 95}, {"time": 2125, "pitch": 67, "duration": 9, "velocity": 99}, {"time": 2131, "pitch": 55, "duration": 5, "velocity": 92}, {"time": 2134, "pitch": 60, "duration": 4, "velocity": 98}, {"time": 2137, "pitch": 67, "duration": 28, "velocity": 89}, {"time": 2140, "pitch": 45, "duration": 22, "velocity": 97}, {"time": 2143, "pitch": 52, "duration": 20, "velocity": 86}, {"time": 2146, "pitch": 57, "duration": 22, "velocity": 88}, {"time": 2149, "pitch": 60, "duration": 22, "velocity": 90}, {"time": 2164, "pitch": 45, "duration": 20, "velocity": 96}, {"time": 2167, "pitch": 52, "duration": 10, "velocity": 89}, {"time": 2170, "pitch": 57, "duration": 9, "velocity": 91}, {"time": 2173, "pitch": 60, "duration": 10, "velocity": 97}, {"time": 2173, "pitch": 67, "duration": 16, "velocity": 98}, {"time": 2179, "pitch": 52, "duration": 6, "velocity": 95}, {"time": 2182, "pitch": 57, "duration": 8, "velocity": 97}, {"time": 2188, "pitch": 41, "duration": 22, "velocity": 94}, {"time": 2191, "pitch": 48, "duration": 19, "velocity": 85}, {"time": 2194, "pitch": 53, "duration": 20, "velocity": 95}, {"time": 2197, "pitch": 60, "duration": 9, "velocity": 98}, {"time": 2206, "pitch": 57, "duration": 4, "velocity": 92}, {"time": 2209, "pitch": 60, "duration": 10, "velocity": 97}, {"time": 2212, "pitch": 41, "duration": 22, "velocity": 97}, {"time": 2215, "pitch": 48, "duration": 19, "velocity": 90}, {"time": 2218, "pitch": 53, "duration": 18, "velocity": 93}, {"time": 2221, "pitch": 60, "duration": 16, "velocity": 97}, {"time": 2230, "pitch": 57, "duration": 7, "velocity": 86}, {"time": 2236, "pitch": 43, "duration": 22, "velocity": 98}, {"time": 2239, "pitch": 50, "duration": 18, "velocity": 86}, {"time": 2242, "pitch": 55, "duration": 9, "velocity": 89}, {"time": 2245, "pitch": 62, "duration": 21, "velocity": 97}, {"time": 2254, "pitch": 55, "duration": 8, "velocity": 85}, {"time": 2257, "pitch": 67, "duration": 27, "velocity": 93}, {"time": 2260, "pitch": 43, "duration": 22, "velocity": 96}, {"time": 2263, "pitch": 50, "duration": 13, "velocity": 86}, {"time": 2266, "pitch": 55, "duration": 12, "velocity": 88}, {"time": 2269, "pitch": 62, "duration": 16, "velocity": 96}, {"time": 2278, "pitch": 50, "duration": 4, "velocity": 90}, {"time": 2281, "pitch": 55, "duration": 3, "velocity": 102}, {"time": 2284, "pitch": 41, "duration": 23, "velocity": 99}, {"time": 2287, "pitch": 48, "duration": 10, "velocity": 92}, {"time": 2290, "pitch": 53, "duration": 10, "velocity": 96}, {"time": 2293, "pitch": 60, "duration": 21, "velocity": 100}, {"time": 2299, "pitch": 48, "duration": 7, "velocity": 98}, {"time": 2305, "pitch": 53, "duration": 6, "velocity": 97}, {"time": 2308, "pitch": 41, "duration": 21, "velocity": 98}, {"time": 2311, "pitch": 48, "duration": 13, "velocity": 91}, {"time": 2314, "pitch": 53, "duration": 6, "velocity": 94}, {"time": 2317, "pitch": 60, "duration": 8, "velocity": 97}, {"time": 2323, "pitch": 53, "duration": 7, "velocity": 98}, {"time": 2326, "pitch": 48, "duration": 5, "velocity": 88}, {"time": 2329, "pitch": 60, "duration": 5, "velocity": 95}, {"time": 2332, "pitch": 45, "duration": 21, "velocity": 93}, {"time": 2335, "pitch": 52, "duration": 18, "velocity": 86}, {"time": 2338, "pitch": 57, "duration": 10, "velocity": 95}, {"time": 2341, "pitch": 64, "duration": 8, "velocity": 98}, {"time": 2353, "pitch": 57, "duration": 6, "velocity": 95}, {"time": 2353, "pitch": 64, "duration": 10, "velocity": 97}, {"time": 2356, "pitch": 45, "duration": 23, "velocity": 91}, {"time": 2359, "pitch": 52, "duration": 10, "velocity": 93}, {"time": 2362, "pitch": 57, "duration": 2, "velocity": 98}, {"time": 2365, "pitch": 57, "duration": 8, "velocity": 100}, {"time": 2365, "pitch": 60, "duration": 8, "velocity": 99}, {"time": 2371, "pitch": 52, "duration": 8, "velocity": 97}, {"time": 2374, "pitch": 64, "duration": 6, "velocity": 102}, {"time": 2377, "pitch": 57, "duration": 3, "velocity": 90}, {"time": 2380, "pitch": 50, "duration": 22, "velocity": 100}, {"time": 2383, "pitch": 57, "duration": 15, "velocity": 97}, {"time": 2386, "pitch": 62, "duration": 11, "velocity": 93}, {"time": 2389, "pitch": 65, "duration": 9, "velocity": 98}, {"time": 2401, "pitch": 57, "duration": 2, "velocity": 72}, {"time": 2401, "pitch": 62, "duration": 6, "velocity": 101}, {"time": 2404, "pitch": 50, "duration": 20, "velocity": 103}, {"time": 2407, "pitch": 57, "duration": 7, "velocity": 96}, {"time": 2410, "pitch": 62, "duration": 4, "velocity": 93}, {"time": 2413, "pitch": 65, "duration": 12, "velocity": 97}, {"time": 2422, "pitch": 57, "duration": 4, "velocity": 99}, {"time": 2425, "pitch": 62, "duration": 8, "velocity": 95}, {"time": 2428, "pitch": 43, "duration": 23, "velocity": 98}, {"time": 2431, "pitch": 50, "duration": 20, "velocity": 88}, {"time": 2434, "pitch": 55, "duration": 9, "velocity": 100}, {"time": 2437, "pitch": 62, "duration": 16, "velocity": 97}, {"time": 2443, "pitch": 67, "duration": 16, "velocity": 95}, {"time": 2449, "pitch": 55, "duration": 6, "velocity": 95}, {"time": 2452, "pitch": 43, "duration": 21, "velocity": 97}, {"time": 2455, "pitch": 50, "duration": 18, "velocity": 91}, {"time": 2458, "pitch": 55, "duration": 4, "velocity": 98}, {"time": 2461, "pitch": 62, "duration": 7, "velocity": 97}, {"time": 2467, "pitch": 67, "duration": 10, "velocity": 96}, {"time": 2470, "pitch": 55, "duration": 7, "velocity": 99}, {"time": 2476, "pitch": 40, "duration": 21, "velocity": 98}, {"time": 2479, "pitch": 47, "duration": 18, "velocity": 94}, {"time": 2482, "pitch": 52, "duration": 10, "velocity": 98}, {"time": 2485, "pitch": 59, "duration": 7, "velocity": 88}, {"time": 2491, "pitch": 64, "duration": 15, "velocity": 99}, {"time": 2497, "pitch": 52, "duration": 6, "velocity": 97}, {"time": 2500, "pitch": 40, "duration": 19, "velocity": 100}, {"time": 2503, "pitch": 47, "duration": 17, "velocity": 89}, {"time": 2506, "pitch": 52, "duration": 9, "velocity": 99}, {"time": 2509, "pitch": 59, "duration": 9, "velocity": 93}, {"time": 2515, "pitch": 64, "duration": 11, "velocity": 98}, {"time": 2518, "pitch": 52, "duration": 4, "velocity": 98}, {"time": 2524, "pitch": 45, "duration": 21, "velocity": 98}, {"time": 2527, "pitch": 52, "duration": 14, "velocity": 93}, {"time": 2530, "pitch": 57, "duration": 6, "velocity": 94}, {"time": 2533, "pitch": 64, "duration": 3, "velocity": 102}, {"time": 2539, "pitch": 57, "duration": 4, "velocity": 95}, {"time": 2539, "pitch": 64, "duration": 7, "velocity": 99}, {"time": 2548, "pitch": 45, "duration": 21, "velocity": 98}, {"time": 2548, "pitch": 57, "duration": 3, "velocity": 94}, {"time": 2548, "pitch": 61, "duration": 6, "velocity": 92}, {"time": 2551, "pitch": 52, "duration": 18, "velocity": 92}, {"time": 2554, "pitch": 57, "duration": 9, "velocity": 92}, {"time": 2557, "pitch": 64, "duration": 6, "velocity": 99}, {"time": 2563, "pitch": 69, "duration": 10, "velocity": 97}, {"time": 2566, "pitch": 57, "duration": 3, "velocity": 85}, {"time": 2572, "pitch": 50, "duration": 20, "velocity": 102}, {"time": 2578, "pitch": 57, "duration": 4, "velocity": 81}, {"time": 2581, "pitch": 65, "duration": 14, "velocity": 98}, {"time": 2587, "pitch": 62, "duration": 4, "velocity": 89}, {"time": 2590, "pitch": 57, "duration": 6, "velocity": 84}, {"time": 2596, "pitch": 43, "duration": 22, "velocity": 98}, {"time": 2599, "pitch": 50, "duration": 18, "velocity": 89}, {"time": 2602, "pitch": 55, "duration": 9, "velocity": 92}, {"time": 2605, "pitch": 62, "duration": 15, "velocity": 95}, {"time": 2614, "pitch": 67, "duration": 7, "velocity": 96}, {"time": 2617, "pitch": 55, "duration": 2, "velocity": 98}, {"time": 2620, "pitch": 45, "duration": 23, "velocity": 103}, {"time": 2626, "pitch": 52, "duration": 4, "velocity": 100}, {"time": 2629, "pitch": 57, "duration": 3, "velocity": 98}, {"time": 2635, "pitch": 52, "duration": 12, "velocity": 101}, {"time": 2635, "pitch": 60, "duration": 18, "velocity": 96}, {"time": 2644, "pitch": 45, "duration": 22, "velocity": 99}, {"time": 2650, "pitch": 52, "duration": 6, "velocity": 97}, {"time": 2653, "pitch": 57, "duration": 4, "velocity": 97}, {"time": 2659, "pitch": 52, "duration": 12, "velocity": 99}, {"time": 2659, "pitch": 60, "duration": 18, "velocity": 97}, {"time": 2668, "pitch": 45, "duration": 21, "velocity": 99}, {"time": 2674, "pitch": 52, "duration": 10, "velocity": 98}, {"time": 2677, "pitch": 57, "duration": 5, "velocity": 93}, {"time": 2683, "pitch": 60, "duration": 7, "velocity": 98}, {"time": 2692, "pitch": 45, "duration": 72, "velocity": 97}, {"time": 2692, "pitch": 52, "duration": 72, "velocity": 93}, {"time": 2692, "pitch": 57, "duration": 72, "velocity": 91}, {"time": 2764, "pitch": 48, "duration": 46, "velocity": 98}, {"time": 2770, "pitch": 55, "duration": 33, "velocity": 86}, {"time": 2773, "pitch": 60, "duration": 33, "velocity": 98}, {"time": 2779, "pitch": 67, "duration": 34, "velocity": 90}, {"time": 2788, "pitch": 64, "duration": 24, "velocity": 92}, {"time": 2806, "pitch": 55, "duration": 4, "velocity": 88}, {"time": 2809, "pitch": 60, "duration": 4, "velocity": 93}, {"time": 2812, "pitch": 45, "duration": 42, "velocity": 95}, {"time": 2815, "pitch": 52, "duration": 39, "velocity": 85}, {"time": 2818, "pitch": 57, "duration": 36, "velocity": 83}, {"time": 2821, "pitch": 60, "duration": 11, "velocity": 90}, {"time": 2836, "pitch": 64, "duration": 21, "velocity": 97}, {"time": 2848, "pitch": 60, "duration": 5, "velocity": 89}, {"time": 2860, "pitch": 41, "duration": 21, "velocity": 89}, {"time": 2860, "pitch": 53, "duration": 15, "velocity": 83}, {"time": 2860, "pitch": 57, "duration": 12, "velocity": 86}, {"time": 2866, "pitch": 48, "duration": 16, "velocity": 86}, {"time": 2869, "pitch": 60, "duration": 26, "velocity": 92}, {"time": 2878, "pitch": 53, "duration": 19, "velocity": 91}, {"time": 2881, "pitch": 57, "duration": 15, "velocity": 89}, {"time": 2884, "pitch": 41, "duration": 21, "velocity": 91}, {"time": 2890, "pitch": 48, "duration": 15, "velocity": 82}, {"time": 2896, "pitch": 57, "duration": 1, "velocity": 82}, {"time": 2896, "pitch": 60, "duration": 13, "velocity": 98}, {"time": 2907, "pitch": 43, "duration": 38, "velocity": 92}, {"time": 2909, "pitch": 50, "duration": 35, "velocity": 85}, {"time": 2909, "pitch": 55, "duration": 40, "velocity": 85}, {"time": 2911, "pitch": 62, "duration": 44, "velocity": 81}, {"time": 2912, "pitch": 67, "duration": 43, "velocity": 86}, {"time": 2967, "pitch": 45, "duration": 22, "velocity": 97}, {"time": 2973, "pitch": 52, "duration": 16, "velocity": 90}, {"time": 2976, "pitch": 57, "duration": 8, "velocity": 91}, {"time": 2983, "pitch": 60, "duration": 16, "velocity": 91}, {"time": 2991, "pitch": 45, "duration": 22, "velocity": 98}, {"time": 2997, "pitch": 52, "duration": 17, "velocity": 89}, {"time": 3000, "pitch": 57, "duration": 22, "velocity": 90}, {"time": 3006, "pitch": 60, "duration": 18, "velocity": 89}, {"time": 3016, "pitch": 45, "duration": 21, "velocity": 98}, {"time": 3021, "pitch": 52, "duration": 18, "velocity": 86}, {"time": 3024, "pitch": 57, "duration": 20, "velocity": 97}, {"time": 3031, "pitch": 60, "duration": 14, "velocity": 89}, {"time": 3042, "pitch": 45, "duration": 18, "velocity": 97}, {"time": 3044, "pitch": 52, "duration": 16, "velocity": 87}, {"time": 3046, "pitch": 57, "duration": 26, "velocity": 85}, {"time": 3048, "pitch": 60, "duration": 24, "velocity": 65}, {"time": 3049, "pitch": 69, "duration": 24, "velocity": 83}], "annotations": [{"time": 59, "annotation": {"number": 64, "value": 127}, "group": "control_change"}, {"time": 75, "annotation": {"number": 64, "value": 0}, "group": "control_change"}, {"time": 78, "annotation": {"number": 64, "value": 127}, "group": "control_change"}, {"time": 100, "annotation": {"number": 64, "value": 0}, "group": "control_change"}, {"time": 130, "annotation": {"number": 64, "value": 127}, "group": "control_change"}, {"time": 146, "annotation": {"number": 64, "value": 0}, "group": "control_change"}, {"time": 151, "annotation": {"number": 64, "value": 127}, "group": "control_change"}, {"time": 170, "annotation": {"number": 64, "value": 0}, "group": "control_change"}, {"time": 174, "annotation": {"number": 64, "value": 127}, "group": "control_change"}, {"time": 194, "annotation": {"number": 64, "value": 0}, "group": "control_change"}, {"time": 199, "annotation": {"number": 64, "value": 127}, "group": "control_change"}, {"time": 222, "annotation": {"number": 64, "value": 0}, "group": "control_change"}, {"time": 225, "annotation": {"number": 64, "value": 127}, "group": "control_change"}, {"time": 226, "annotation": {"number": 64, "value": 0}, "group": "control_change"}, {"time": 226, "annotation": {"number": 64, "value": 127}, "group": "control_change"}, {"time": 260, "annotation": {"number": 64, "value": 0}, "group": "control_change"}, {"time": 311, "annotation": {"number": 64, "value": 127}, "group": "control_change"}, {"time": 315, "annotation": {"number": 64, "value": 0}, "group": "control_change"}, {"time": 323, "annotation": {"number": 64, "value": 127}, "group": "control_change"}, {"time": 338, "annotation": {"number": 64, "value": 0}, "group": "control_change"}, {"time": 352, "annotation": {"number": 64, "value": 127}, "group": "control_change"}, {"time": 352, "annotation": {"number": 64, "value": 0}, "group": "control_change"}, {"time": 353, "annotation": {"number": 64, "value": 127}, "group": "control_change"}, {"time": 365, "annotation": {"number": 64, "value": 0}, "group": "control_change"}, {"time": 372, "annotation": {"number": 64, "value": 127}, "group": "control_change"}, {"time": 388, "annotation": {"number": 64, "value": 0}, "group": "control_change"}, {"time": 400, "annotation": {"number": 64, "value": 127}, "group": "control_change"}, {"time": 413, "annotation": {"number": 64, "value": 0}, "group": "control_change"}, {"time": 418, "annotation": {"number": 64, "value": 127}, "group": "control_change"}, {"time": 418, "annotation": {"number": 64, "value": 0}, "group": "control_change"}, {"time": 435, "annotation": {"number": 64, "value": 0}, "group": "control_change"}, {"time": 437, "annotation": {"number": 64, "value": 127}, "group": "control_change"}, {"time": 457, "annotation": {"number": 64, "value": 0}, "group": "control_change"}, {"time": 503, "annotation": {"number": 64, "value": 127}, "group": "control_change"}, {"time": 507, "annotation": {"number": 64, "value": 0}, "group": "control_change"}, {"time": 515, "annotation": {"number": 64, "value": 127}, "group": "control_change"}, {"time": 530, "annotation": {"number": 64, "value": 0}, "group": "control_change"}, {"time": 544, "annotation": {"number": 64, "value": 127}, "group": "control_change"}, {"time": 544, "annotation": {"number": 64, "value": 0}, "group": "control_change"}, {"time": 545, "annotation": {"number": 64, "value": 127}, "group": "control_change"}, {"time": 557, "annotation": {"number": 64, "value": 0}, "group": "control_change"}, {"time": 564, "annotation": {"number": 64, "value": 127}, "group": "control_change"}, {"time": 580, "annotation": {"number": 64, "value": 0}, "group": "control_change"}, {"time": 592, "annotation": {"number": 64, "value": 127}, "group": "control_change"}, {"time": 605, "annotation": {"number": 64, "value": 0}, "group": "control_change"}, {"time": 610, "annotation": {"number": 64, "value": 127}, "group": "control_change"}, {"time": 610, "annotation": {"number": 64, "value": 0}, "group": "control_change"}, {"time": 627, "annotation": {"number": 64, "value": 0}, "group": "control_change"}, {"time": 629, "annotation": {"number": 64, "value": 127}, "group": "control_change"}, {"time": 649, "annotation": {"number": 64, "value": 0}, "group": "control_change"}, {"time": 680, "annotation": {"number": 64, "value": 127}, "group": "control_change"}, {"time": 699, "annotation": {"number": 64, "value": 0}, "group": "control_change"}, {"time": 701, "annotation": {"number": 64, "value": 127}, "group": "control_change"}, {"time": 722, "annotation": {"number": 64, "value": 0}, "group": "control_change"}, {"time": 728, "annotation": {"number": 64, "value": 127}, "group": "control_change"}, {"time": 747, "annotation": {"number": 64, "value": 0}, "group": "control_change"}, {"time": 750, "annotation": {"number": 64, "value": 127}, "group": "control_change"}, {"time": 770, "annotation": {"number": 64, "value": 0}, "group": "control_change"}, {"time": 773, "annotation": {"number": 64, "value": 127}, "group": "control_change"}, {"time": 795, "annotation": {"number": 64, "value": 0}, "group": "control_change"}, {"time": 798, "annotation": {"number": 64, "value": 127}, "group": "control_change"}, {"time": 819, "annotation": {"number": 64, "value": 0}, "group": "control_change"}, {"time": 823, "annotation": {"number": 64, "value": 127}, "group": "control_change"}, {"time": 842, "annotation": {"number": 64, "value": 0}, "group": "control_change"}, {"time": 848, "annotation": {"number": 64, "value": 127}, "group": "control_change"}, {"time": 866, "annotation": {"number": 64, "value": 0}, "group": "control_change"}, {"time": 871, "annotation": {"number": 64, "value": 127}, "group": "control_change"}, {"time": 891, "annotation": {"number": 64, "value": 0}, "group": "control_change"}, {"time": 894, "annotation": {"number": 64, "value": 127}, "group": "control_change"}, {"time": 914, "annotation": {"number": 64, "value": 0}, "group": "control_change"}, {"time": 917, "annotation": {"number": 64, "value": 127}, "group": "control_change"}, {"time": 938, "annotation": {"number": 64, "value": 0}, "group": "control_change"}, {"time": 941, "annotation": {"number": 64, "value": 127}, "group": "control_change"}, {"time": 963, "annotation": {"number": 64, "value": 0}, "group": "control_change"}, {"time": 965, "annotation": {"number": 64, "value": 127}, "group": "control_change"}, {"time": 986, "annotation": {"number": 64, "value": 0}, "group": "control_change"}, {"time": 991, "annotation": {"number": 64, "value": 127}, "group": "control_change"}, {"time": 1011, "annotation": {"number": 64, "value": 0}, "group": "control_change"}, {"time": 1014, "annotation": {"number": 64, "value": 127}, "group": "control_change"}, {"time": 1034, "annotation": {"number": 64, "value": 0}, "group": "control_change"}, {"time": 1039, "annotation": {"number": 64, "value": 127}, "group": "control_change"}, {"time": 1057, "annotation": {"number": 64, "value": 0}, "group": "control_change"}, {"time": 1064, "annotation": {"number": 64, "value": 127}, "group": "control_change"}, {"time": 1064, "annotation": {"number": 64, "value": 0}, "group": "control_change"}, {"time": 1083, "annotation": {"number": 64, "value": 0}, "group": "control_change"}, {"time": 1086, "annotation": {"number": 64, "value": 127}, "group": "control_change"}, {"time": 1108, "annotation": {"number": 64, "value": 0}, "group": "control_change"}, {"time": 1110, "annotation": {"number": 64, "value": 127}, "group": "control_change"}, {"time": 1130, "annotation": {"number": 64, "value": 0}, "group": "control_change"}, {"time": 1133, "annotation": {"number": 64, "value": 127}, "group": "control_change"}, {"time": 1154, "annotation": {"number": 64, "value": 0}, "group": "control_change"}, {"time": 1157, "annotation": {"number": 64, "value": 127}, "group": "control_change"}, {"time": 1178, "annotation": {"number": 64, "value": 0}, "group": "control_change"}, {"time": 1180, "annotation": {"number": 64, "value": 127}, "group": "control_change"}, {"time": 1201, "annotation": {"number": 64, "value": 0}, "group": "control_change"}, {"time": 1206, "annotation": {"number": 64, "value": 127}, "group": "control_change"}, {"time": 1227, "annotation": {"number": 64, "value": 0}, "group": "control_change"}, {"time": 1229, "annotation": {"number": 64, "value": 127}, "group": "control_change"}, {"time": 1251, "annotation": {"number": 64, "value": 0}, "group": "control_change"}, {"time": 1253, "annotation": {"number": 64, "value": 127}, "group": "control_change"}, {"time": 1274, "annotation": {"number": 64, "value": 0}, "group": "control_change"}, {"time": 1279, "annotation": {"number": 64, "value": 127}, "group": "control_change"}, {"time": 1299, "annotation": {"number": 64, "value": 0}, "group": "control_change"}, {"time": 1301, "annotation": {"number": 64, "value": 127}, "group": "control_change"}, {"time": 1322, "annotation": {"number": 64, "value": 0}, "group": "control_change"}, {"time": 1325, "annotation": {"number": 64, "value": 127}, "group": "control_change"}, {"time": 1346, "annotation": {"number": 64, "value": 0}, "group": "control_change"}, {"time": 1348, "annotation": {"number": 64, "value": 127}, "group": "control_change"}, {"time": 1371, "annotation": {"number": 64, "value": 0}, "group": "control_change"}, {"time": 1373, "annotation": {"number": 64, "value": 127}, "group": "control_change"}, {"time": 1395, "annotation": {"number": 64, "value": 0}, "group": "control_change"}, {"time": 1398, "annotation": {"number": 64, "value": 127}, "group": "control_change"}, {"time": 1419, "annotation": {"number": 64, "value": 0}, "group": "control_change"}, {"time": 1423, "annotation": {"number": 64, "value": 127}, "group": "control_change"}, {"time": 1441, "annotation": {"number": 64, "value": 0}, "group": "control_change"}, {"time": 1448, "annotation": {"number": 64, "value": 127}, "group": "control_change"}, {"time": 1467, "annotation": {"number": 64, "value": 0}, "group": "control_change"}, {"time": 1493, "annotation": {"number": 64, "value": 127}, "group": "control_change"}, {"time": 1515, "annotation": {"number": 64, "value": 0}, "group": "control_change"}, {"time": 1521, "annotation": {"number": 64, "value": 127}, "group": "control_change"}, {"time": 1521, "annotation": {"number": 64, "value": 0}, "group": "control_change"}, {"time": 1538, "annotation": {"number": 64, "value": 0}, "group": "control_change"}, {"time": 1542, "annotation": {"number": 64, "value": 127}, "group": "control_change"}, {"time": 1563, "annotation": {"number": 64, "value": 0}, "group": "control_change"}, {"time": 1565, "annotation": {"number": 64, "value": 127}, "group": "control_change"}, {"time": 1587, "annotation": {"number": 64, "value": 0}, "group": "control_change"}, {"time": 1589, "annotation": {"number": 64, "value": 127}, "group": "control_change"}, {"time": 1611, "annotation": {"number": 64, "value": 0}, "group": "control_change"}, {"time": 1614, "annotation": {"number": 64, "value": 127}, "group": "control_change"}, {"time": 1634, "annotation": {"number": 64, "value": 0}, "group": "control_change"}, {"time": 1637, "annotation": {"number": 64, "value": 127}, "group": "control_change"}, {"time": 1659, "annotation": {"number": 64, "value": 0}, "group": "control_change"}, {"time": 1664, "annotation": {"number": 64, "value": 127}, "group": "control_change"}, {"time": 1679, "annotation": {"number": 64, "value": 0}, "group": "control_change"}, {"time": 1685, "annotation": {"number": 64, "value": 127}, "group": "control_change"}, {"time": 1707, "annotation": {"number": 64, "value": 0}, "group": "control_change"}, {"time": 1713, "annotation": {"number": 64, "value": 127}, "group": "control_change"}, {"time": 1713, "annotation": {"number": 64, "value": 0}, "group": "control_change"}, {"time": 1730, "annotation": {"number": 64, "value": 0}, "group": "control_change"}, {"time": 1734, "annotation": {"number": 64, "value": 127}, "group": "control_change"}, {"time": 1755, "annotation": {"number": 64, "value": 0}, "group": "control_change"}, {"time": 1757, "annotation": {"number": 64, "value": 127}, "group": "control_change"}, {"time": 1779, "annotation": {"number": 64, "value": 0}, "group": "control_change"}, {"time": 1781, "annotation": {"number": 64, "value": 127}, "group": "control_change"}, {"time": 1803, "annotation": {"number": 64, "value": 0}, "group": "control_change"}, {"time": 1806, "annotation": {"number": 64, "value": 127}, "group": "control_change"}, {"time": 1826, "annotation": {"number": 64, "value": 0}, "group": "control_change"}, {"time": 1829, "annotation": {"number": 64, "value": 127}, "group": "control_change"}, {"time": 1851, "annotation": {"number": 64, "value": 0}, "group": "control_change"}, {"time": 1856, "annotation": {"number": 64, "value": 127}, "group": "control_change"}, {"time": 1871, "annotation": {"number": 64, "value": 0}, "group": "control_change"}, {"time": 1904, "annotation": {"number": 64, "value": 127}, "group": "control_change"}, {"time": 1923, "annotation": {"number": 64, "value": 0}, "group": "control_change"}, {"time": 1925, "annotation": {"number": 64, "value": 127}, "group": "control_change"}, {"time": 1946, "annotation": {"number": 64, "value": 0}, "group": "control_change"}, {"time": 1952, "annotation": {"number": 64, "value": 127}, "group": "control_change"}, {"time": 1971, "annotation": {"number": 64, "value": 0}, "group": "control_change"}, {"time": 1974, "annotation": {"number": 64, "value": 127}, "group": "control_change"}, {"time": 1994, "annotation": {"number": 64, "value": 0}, "group": "control_change"}, {"time": 1997, "annotation": {"number": 64, "value": 127}, "group": "control_change"}, {"time": 2019, "annotation": {"number": 64, "value": 0}, "group": "control_change"}, {"time": 2022, "annotation": {"number": 64, "value": 127}, "group": "control_change"}, {"time": 2043, "annotation": {"number": 64, "value": 0}, "group": "control_change"}, {"time": 2047, "annotation": {"number": 64, "value": 127}, "group": "control_change"}, {"time": 2066, "annotation": {"number": 64, "value": 0}, "group": "control_change"}, {"time": 2072, "annotation": {"number": 64, "value": 127}, "group": "control_change"}, {"time": 2090, "annotation": {"number": 64, "value": 0}, "group": "control_change"}, {"time": 2095, "annotation": {"number": 64, "value": 127}, "group": "control_change"}, {"time": 2115, "annotation": {"number": 64, "value": 0}, "group": "control_change"}, {"time": 2118, "annotation": {"number": 64, "value": 127}, "group": "control_change"}, {"time": 2138, "annotation": {"number": 64, "value": 0}, "group": "control_change"}, {"time": 2141, "annotation": {"number": 64, "value": 127}, "group": "control_change"}, {"time": 2162, "annotation": {"number": 64, "value": 0}, "group": "control_change"}, {"time": 2165, "annotation": {"number": 64, "value": 127}, "group": "control_change"}, {"time": 2187, "annotation": {"number": 64, "value": 0}, "group": "control_change"}, {"time": 2189, "annotation": {"number": 64, "value": 127}, "group": "control_change"}, {"time": 2210, "annotation": {"number": 64, "value": 0}, "group": "control_change"}, {"time": 2215, "annotation": {"number": 64, "value": 127}, "group": "control_change"}, {"time": 2235, "annotation": {"number": 64, "value": 0}, "group": "control_change"}, {"time": 2238, "annotation": {"number": 64, "value": 127}, "group": "control_change"}, {"time": 2258, "annotation": {"number": 64, "value": 0}, "group": "control_change"}, {"time": 2263, "annotation": {"number": 64, "value": 127}, "group": "control_change"}, {"time": 2281, "annotation": {"number": 64, "value": 0}, "group": "control_change"}, {"time": 2288, "annotation": {"number": 64, "value": 127}, "group": "control_change"}, {"time": 2288, "annotation": {"number": 64, "value": 0}, "group": "control_change"}, {"time": 2307, "annotation": {"number": 64, "value": 0}, "group": "control_change"}, {"time": 2310, "annotation": {"number": 64, "value": 127}, "group": "control_change"}, {"time": 2332, "annotation": {"number": 64, "value": 0}, "group": "control_change"}, {"time": 2334, "annotation": {"number": 64, "value": 127}, "group": "control_change"}, {"time": 2354, "annotation": {"number": 64, "value": 0}, "group": "control_change"}, {"time": 2357, "annotation": {"number": 64, "value": 127}, "group": "control_change"}, {"time": 2378, "annotation": {"number": 64, "value": 0}, "group": "control_change"}, {"time": 2381, "annotation": {"number": 64, "value": 127}, "group": "control_change"}, {"time": 2402, "annotation": {"number": 64, "value": 0}, "group": "control_change"}, {"time": 2404, "annotation": {"number": 64, "value": 127}, "group": "control_change"}, {"time": 2425, "annotation": {"number": 64, "value": 0}, "group": "control_change"}, {"time": 2430, "annotation": {"number": 64, "value": 127}, "group": "control_change"}, {"time": 2451, "annotation": {"number": 64, "value": 0}, "group": "control_change"}, {"time": 2453, "annotation": {"number": 64, "value": 127}, "group": "control_change"}, {"time": 2475, "annotation": {"number": 64, "value": 0}, "group": "control_change"}, {"time": 2477, "annotation": {"number": 64, "value": 127}, "group": "control_change"}, {"time": 2498, "annotation": {"number": 64, "value": 0}, "group": "control_change"}, {"time": 2503, "annotation": {"number": 64, "value": 127}, "group": "control_change"}, {"time": 2523, "annotation": {"number": 64, "value": 0}, "group": "control_change"}, {"time": 2525, "annotation": {"number": 64, "value": 127}, "group": "control_change"}, {"time": 2546, "annotation": {"number": 64, "value": 0}, "group": "control_change"}, {"time": 2549, "annotation": {"number": 64, "value": 127}, "group": "control_change"}, {"time": 2570, "annotation": {"number": 64, "value": 0}, "group": "control_change"}, {"time": 2572, "annotation": {"number": 64, "value": 127}, "group": "control_change"}, {"time": 2595, "annotation": {"number": 64, "value": 0}, "group": "control_change"}, {"time": 2597, "annotation": {"number": 64, "value": 127}, "group": "control_change"}, {"time": 2619, "annotation": {"number": 64, "value": 0}, "group": "control_change"}, {"time": 2622, "annotation": {"number": 64, "value": 127}, "group": "control_change"}, {"time": 2643, "annotation": {"number": 64, "value": 0}, "group": "control_change"}, {"time": 2647, "annotation": {"number": 64, "value": 127}, "group": "control_change"}, {"time": 2665, "annotation": {"number": 64, "value": 0}, "group": "control_change"}, {"time": 2672, "annotation": {"number": 64, "value": 127}, "group": "control_change"}, {"time": 2691, "annotation": {"number": 64, "value": 0}, "group": "control_change"}, {"time": 2807, "annotation": {"number": 64, "value": 127}, "group": "control_change"}, {"time": 2811, "annotation": {"number": 64, "value": 0}, "group": "control_change"}, {"time": 2819, "annotation": {"number": 64, "value": 127}, "group": "control_change"}, {"time": 2834, "annotation": {"number": 64, "value": 0}, "group": "control_change"}, {"time": 2848, "annotation": {"number": 64, "value": 127}, "group": "control_change"}, {"time": 2848, "annotation": {"number": 64, "value": 0}, "group": "control_change"}, {"time": 2849, "annotation": {"number": 64, "value": 127}, "group": "control_change"}, {"time": 2861, "annotation": {"number": 64, "value": 0}, "group": "control_change"}, {"time": 2868, "annotation": {"number": 64, "value": 127}, "group": "control_change"}, {"time": 2884, "annotation": {"number": 64, "value": 0}, "group": "control_change"}, {"time": 2896, "annotation": {"number": 64, "value": 127}, "group": "control_change"}, {"time": 2909, "annotation": {"number": 64, "value": 127}, "group": "control_change"}, {"time": 2963, "annotation": {"number": 64, "value": 0}, "group": "control_change"}, {"time": 3047, "annotation": {"number": 64, "value": 127}, "group": "control_change"}, {"time": 3110, "annotation": {"number": 64, "value": 0}, "group": "control_change"}]}]}