{"metadata": {"schema_version": "0.2", "title": "None", "source_filename": "433.mid", "source_format": "midi"}, "resolution": 12, "tempos": [{"time": 0, "qpm": 60.0}], "time_signatures": [{"time": 0, "numerator": 1, "denominator": 4}], "tracks": [{"program": 4, "is_drum": false, "name": "MELODY", "notes": [{"time": 197, "pitch": 68, "duration": 5, "velocity": 95}, {"time": 203, "pitch": 68, "duration": 3, "velocity": 93}, {"time": 206, "pitch": 66, "duration": 2, "velocity": 87}, {"time": 209, "pitch": 68, "duration": 5, "velocity": 97}, {"time": 215, "pitch": 66, "duration": 3, "velocity": 93}, {"time": 218, "pitch": 64, "duration": 2, "velocity": 93}, {"time": 221, "pitch": 66, "duration": 4, "velocity": 95}, {"time": 227, "pitch": 66, "duration": 2, "velocity": 92}, {"time": 230, "pitch": 64, "duration": 2, "velocity": 92}, {"time": 233, "pitch": 66, "duration": 5, "velocity": 94}, {"time": 239, "pitch": 64, "duration": 2, "velocity": 95}, {"time": 242, "pitch": 63, "duration": 2, "velocity": 95}, {"time": 245, "pitch": 64, "duration": 4, "velocity": 93}, {"time": 251, "pitch": 64, "duration": 3, "velocity": 91}, {"time": 254, "pitch": 63, "duration": 2, "velocity": 95}, {"time": 257, "pitch": 64, "duration": 4, "velocity": 94}, {"time": 263, "pitch": 64, "duration": 2, "velocity": 95}, {"time": 266, "pitch": 63, "duration": 2, "velocity": 85}, {"time": 269, "pitch": 64, "duration": 5, "velocity": 95}, {"time": 275, "pitch": 63, "duration": 2, "velocity": 92}, {"time": 278, "pitch": 59, "duration": 8, "velocity": 91}, {"time": 293, "pitch": 61, "duration": 4, "velocity": 93}, {"time": 299, "pitch": 61, "duration": 2, "velocity": 93}, {"time": 302, "pitch": 59, "duration": 2, "velocity": 91}, {"time": 305, "pitch": 61, "duration": 4, "velocity": 93}, {"time": 311, "pitch": 61, "duration": 2, "velocity": 95}, {"time": 314, "pitch": 59, "duration": 2, "velocity": 90}, {"time": 317, "pitch": 59, "duration": 5, "velocity": 92}, {"time": 323, "pitch": 64, "duration": 5, "velocity": 94}, {"time": 329, "pitch": 68, "duration": 5, "velocity": 92}, {"time": 335, "pitch": 64, "duration": 4, "velocity": 93}, {"time": 341, "pitch": 69, "duration": 4, "velocity": 95}, {"time": 347, "pitch": 69, "duration": 2, "velocity": 97}, {"time": 350, "pitch": 68, "duration": 2, "velocity": 92}, {"time": 353, "pitch": 66, "duration": 4, "velocity": 92}, {"time": 359, "pitch": 66, "duration": 3, "velocity": 89}, {"time": 362, "pitch": 64, "duration": 5, "velocity": 91}, {"time": 368, "pitch": 66, "duration": 16, "velocity": 91}, {"time": 389, "pitch": 68, "duration": 4, "velocity": 93}, {"time": 395, "pitch": 68, "duration": 2, "velocity": 92}, {"time": 398, "pitch": 66, "duration": 2, "velocity": 85}, {"time": 401, "pitch": 68, "duration": 5, "velocity": 93}, {"time": 407, "pitch": 66, "duration": 4, "velocity": 83}, {"time": 410, "pitch": 64, "duration": 2, "velocity": 91}, {"time": 413, "pitch": 66, "duration": 4, "velocity": 91}, {"time": 419, "pitch": 66, "duration": 2, "velocity": 91}, {"time": 422, "pitch": 64, "duration": 2, "velocity": 93}, {"time": 425, "pitch": 66, "duration": 4, "velocity": 92}, {"time": 431, "pitch": 64, "duration": 2, "velocity": 92}, {"time": 434, "pitch": 63, "duration": 2, "velocity": 93}, {"time": 437, "pitch": 64, "duration": 4, "velocity": 92}, {"time": 443, "pitch": 64, "duration": 2, "velocity": 88}, {"time": 446, "pitch": 63, "duration": 2, "velocity": 91}, {"time": 449, "pitch": 64, "duration": 5, "velocity": 95}, {"time": 455, "pitch": 64, "duration": 2, "velocity": 95}, {"time": 458, "pitch": 63, "duration": 2, "velocity": 91}, {"time": 461, "pitch": 64, "duration": 5, "velocity": 93}, {"time": 467, "pitch": 63, "duration": 3, "velocity": 93}, {"time": 470, "pitch": 59, "duration": 8, "velocity": 86}, {"time": 485, "pitch": 61, "duration": 5, "velocity": 94}, {"time": 491, "pitch": 61, "duration": 2, "velocity": 92}, {"time": 494, "pitch": 59, "duration": 3, "velocity": 89}, {"time": 497, "pitch": 61, "duration": 4, "velocity": 93}, {"time": 503, "pitch": 61, "duration": 3, "velocity": 93}, {"time": 506, "pitch": 59, "duration": 2, "velocity": 89}, {"time": 509, "pitch": 59, "duration": 4, "velocity": 92}, {"time": 515, "pitch": 64, "duration": 5, "velocity": 93}, {"time": 521, "pitch": 68, "duration": 5, "velocity": 93}, {"time": 527, "pitch": 71, "duration": 5, "velocity": 93}, {"time": 533, "pitch": 69, "duration": 4, "velocity": 92}, {"time": 539, "pitch": 69, "duration": 3, "velocity": 95}, {"time": 542, "pitch": 68, "duration": 2, "velocity": 92}, {"time": 545, "pitch": 66, "duration": 4, "velocity": 91}, {"time": 551, "pitch": 66, "duration": 2, "velocity": 93}, {"time": 554, "pitch": 64, "duration": 2, "velocity": 87}, {"time": 557, "pitch": 66, "duration": 7, "velocity": 92}, {"time": 566, "pitch": 59, "duration": 2, "velocity": 93}, {"time": 569, "pitch": 71, "duration": 2, "velocity": 96}, {"time": 572, "pitch": 69, "duration": 2, "velocity": 94}, {"time": 575, "pitch": 69, "duration": 2, "velocity": 93}, {"time": 578, "pitch": 68, "duration": 2, "velocity": 95}, {"time": 581, "pitch": 71, "duration": 6, "velocity": 93}, {"time": 590, "pitch": 59, "duration": 3, "velocity": 95}, {"time": 593, "pitch": 71, "duration": 2, "velocity": 93}, {"time": 596, "pitch": 69, "duration": 2, "velocity": 92}, {"time": 599, "pitch": 69, "duration": 2, "velocity": 93}, {"time": 602, "pitch": 68, "duration": 2, "velocity": 93}, {"time": 605, "pitch": 66, "duration": 7, "velocity": 93}, {"time": 614, "pitch": 66, "duration": 2, "velocity": 92}, {"time": 617, "pitch": 68, "duration": 2, "velocity": 96}, {"time": 620, "pitch": 69, "duration": 2, "velocity": 100}, {"time": 623, "pitch": 68, "duration": 2, "velocity": 95}, {"time": 626, "pitch": 66, "duration": 2, "velocity": 93}, {"time": 629, "pitch": 64, "duration": 5, "velocity": 100}, {"time": 638, "pitch": 64, "duration": 2, "velocity": 93}, {"time": 641, "pitch": 66, "duration": 2, "velocity": 90}, {"time": 644, "pitch": 64, "duration": 2, "velocity": 93}, {"time": 647, "pitch": 64, "duration": 2, "velocity": 93}, {"time": 650, "pitch": 66, "duration": 2, "velocity": 92}, {"time": 653, "pitch": 68, "duration": 7, "velocity": 97}, {"time": 662, "pitch": 68, "duration": 2, "velocity": 94}, {"time": 665, "pitch": 68, "duration": 2, "velocity": 92}, {"time": 668, "pitch": 66, "duration": 2, "velocity": 91}, {"time": 671, "pitch": 63, "duration": 2, "velocity": 95}, {"time": 674, "pitch": 64, "duration": 2, "velocity": 92}, {"time": 677, "pitch": 64, "duration": 7, "velocity": 93}, {"time": 686, "pitch": 64, "duration": 2, "velocity": 93}, {"time": 689, "pitch": 66, "duration": 2, "velocity": 91}, {"time": 692, "pitch": 64, "duration": 2, "velocity": 92}, {"time": 695, "pitch": 64, "duration": 2, "velocity": 89}, {"time": 698, "pitch": 59, "duration": 2, "velocity": 91}, {"time": 701, "pitch": 68, "duration": 6, "velocity": 95}, {"time": 710, "pitch": 64, "duration": 2, "velocity": 93}, {"time": 713, "pitch": 66, "duration": 2, "velocity": 92}, {"time": 716, "pitch": 64, "duration": 2, "velocity": 92}, {"time": 719, "pitch": 64, "duration": 2, "velocity": 91}, {"time": 722, "pitch": 61, "duration": 2, "velocity": 92}, {"time": 725, "pitch": 69, "duration": 7, "velocity": 98}, {"time": 734, "pitch": 69, "duration": 2, "velocity": 92}, {"time": 737, "pitch": 69, "duration": 2, "velocity": 95}, {"time": 740, "pitch": 68, "duration": 2, "velocity": 91}, {"time": 743, "pitch": 64, "duration": 2, "velocity": 95}, {"time": 746, "pitch": 68, "duration": 5, "velocity": 95}, {"time": 752, "pitch": 66, "duration": 5, "velocity": 93}, {"time": 758, "pitch": 59, "duration": 2, "velocity": 93}, {"time": 761, "pitch": 71, "duration": 2, "velocity": 96}, {"time": 764, "pitch": 69, "duration": 2, "velocity": 94}, {"time": 767, "pitch": 69, "duration": 2, "velocity": 93}, {"time": 770, "pitch": 68, "duration": 2, "velocity": 95}, {"time": 773, "pitch": 71, "duration": 6, "velocity": 93}, {"time": 782, "pitch": 59, "duration": 3, "velocity": 95}, {"time": 785, "pitch": 71, "duration": 2, "velocity": 93}, {"time": 788, "pitch": 69, "duration": 2, "velocity": 92}, {"time": 791, "pitch": 69, "duration": 2, "velocity": 93}, {"time": 794, "pitch": 68, "duration": 2, "velocity": 93}, {"time": 797, "pitch": 66, "duration": 7, "velocity": 93}, {"time": 806, "pitch": 66, "duration": 2, "velocity": 92}, {"time": 809, "pitch": 68, "duration": 2, "velocity": 96}, {"time": 812, "pitch": 69, "duration": 2, "velocity": 100}, {"time": 815, "pitch": 68, "duration": 2, "velocity": 95}, {"time": 818, "pitch": 66, "duration": 2, "velocity": 93}, {"time": 821, "pitch": 64, "duration": 5, "velocity": 100}, {"time": 830, "pitch": 64, "duration": 2, "velocity": 93}, {"time": 833, "pitch": 66, "duration": 2, "velocity": 90}, {"time": 836, "pitch": 64, "duration": 2, "velocity": 93}, {"time": 839, "pitch": 64, "duration": 2, "velocity": 93}, {"time": 842, "pitch": 66, "duration": 2, "velocity": 92}, {"time": 845, "pitch": 68, "duration": 7, "velocity": 97}, {"time": 854, "pitch": 68, "duration": 2, "velocity": 94}, {"time": 857, "pitch": 68, "duration": 2, "velocity": 92}, {"time": 860, "pitch": 66, "duration": 2, "velocity": 91}, {"time": 863, "pitch": 63, "duration": 2, "velocity": 95}, {"time": 866, "pitch": 64, "duration": 2, "velocity": 92}, {"time": 869, "pitch": 64, "duration": 7, "velocity": 93}, {"time": 878, "pitch": 64, "duration": 2, "velocity": 93}, {"time": 881, "pitch": 66, "duration": 2, "velocity": 91}, {"time": 884, "pitch": 64, "duration": 2, "velocity": 92}, {"time": 887, "pitch": 64, "duration": 2, "velocity": 89}, {"time": 890, "pitch": 59, "duration": 2, "velocity": 91}, {"time": 893, "pitch": 68, "duration": 6, "velocity": 95}, {"time": 902, "pitch": 64, "duration": 2, "velocity": 93}, {"time": 905, "pitch": 66, "duration": 2, "velocity": 92}, {"time": 908, "pitch": 64, "duration": 2, "velocity": 92}, {"time": 911, "pitch": 64, "duration": 2, "velocity": 91}, {"time": 914, "pitch": 61, "duration": 2, "velocity": 92}, {"time": 917, "pitch": 69, "duration": 7, "velocity": 98}, {"time": 926, "pitch": 69, "duration": 2, "velocity": 92}, {"time": 929, "pitch": 69, "duration": 5, "velocity": 96}, {"time": 935, "pitch": 68, "duration": 16, "velocity": 95}, {"time": 953, "pitch": 63, "duration": 5, "velocity": 102}, {"time": 959, "pitch": 66, "duration": 5, "velocity": 94}, {"time": 965, "pitch": 64, "duration": 27, "velocity": 93}, {"time": 1013, "pitch": 68, "duration": 4, "velocity": 93}, {"time": 1019, "pitch": 68, "duration": 2, "velocity": 92}, {"time": 1022, "pitch": 66, "duration": 2, "velocity": 85}, {"time": 1025, "pitch": 68, "duration": 5, "velocity": 93}, {"time": 1031, "pitch": 66, "duration": 4, "velocity": 83}, {"time": 1034, "pitch": 64, "duration": 2, "velocity": 91}, {"time": 1037, "pitch": 66, "duration": 4, "velocity": 91}, {"time": 1043, "pitch": 66, "duration": 2, "velocity": 91}, {"time": 1046, "pitch": 64, "duration": 2, "velocity": 93}, {"time": 1049, "pitch": 66, "duration": 4, "velocity": 92}, {"time": 1055, "pitch": 64, "duration": 2, "velocity": 92}, {"time": 1058, "pitch": 63, "duration": 2, "velocity": 93}, {"time": 1061, "pitch": 64, "duration": 4, "velocity": 92}, {"time": 1067, "pitch": 64, "duration": 2, "velocity": 88}, {"time": 1070, "pitch": 63, "duration": 2, "velocity": 91}, {"time": 1073, "pitch": 64, "duration": 5, "velocity": 95}, {"time": 1079, "pitch": 64, "duration": 2, "velocity": 95}, {"time": 1082, "pitch": 63, "duration": 2, "velocity": 91}, {"time": 1085, "pitch": 64, "duration": 5, "velocity": 93}, {"time": 1091, "pitch": 63, "duration": 3, "velocity": 93}, {"time": 1094, "pitch": 59, "duration": 8, "velocity": 86}, {"time": 1109, "pitch": 61, "duration": 5, "velocity": 94}, {"time": 1115, "pitch": 61, "duration": 2, "velocity": 92}, {"time": 1118, "pitch": 59, "duration": 3, "velocity": 89}, {"time": 1121, "pitch": 61, "duration": 4, "velocity": 93}, {"time": 1127, "pitch": 61, "duration": 3, "velocity": 93}, {"time": 1130, "pitch": 59, "duration": 2, "velocity": 89}, {"time": 1133, "pitch": 59, "duration": 4, "velocity": 92}, {"time": 1139, "pitch": 64, "duration": 5, "velocity": 93}, {"time": 1145, "pitch": 68, "duration": 5, "velocity": 93}, {"time": 1151, "pitch": 71, "duration": 5, "velocity": 93}, {"time": 1157, "pitch": 69, "duration": 4, "velocity": 92}, {"time": 1163, "pitch": 69, "duration": 3, "velocity": 95}, {"time": 1166, "pitch": 68, "duration": 2, "velocity": 92}, {"time": 1169, "pitch": 66, "duration": 4, "velocity": 91}, {"time": 1175, "pitch": 66, "duration": 2, "velocity": 93}, {"time": 1178, "pitch": 64, "duration": 2, "velocity": 87}, {"time": 1181, "pitch": 66, "duration": 7, "velocity": 92}, {"time": 1190, "pitch": 59, "duration": 2, "velocity": 93}, {"time": 1193, "pitch": 71, "duration": 2, "velocity": 96}, {"time": 1196, "pitch": 69, "duration": 2, "velocity": 94}, {"time": 1199, "pitch": 69, "duration": 2, "velocity": 93}, {"time": 1202, "pitch": 68, "duration": 2, "velocity": 95}, {"time": 1205, "pitch": 71, "duration": 6, "velocity": 93}, {"time": 1214, "pitch": 59, "duration": 3, "velocity": 95}, {"time": 1217, "pitch": 71, "duration": 2, "velocity": 93}, {"time": 1220, "pitch": 69, "duration": 2, "velocity": 92}, {"time": 1223, "pitch": 69, "duration": 2, "velocity": 93}, {"time": 1226, "pitch": 68, "duration": 2, "velocity": 93}, {"time": 1229, "pitch": 66, "duration": 7, "velocity": 93}, {"time": 1238, "pitch": 66, "duration": 2, "velocity": 92}, {"time": 1241, "pitch": 68, "duration": 2, "velocity": 96}, {"time": 1244, "pitch": 69, "duration": 2, "velocity": 100}, {"time": 1247, "pitch": 68, "duration": 2, "velocity": 95}, {"time": 1250, "pitch": 66, "duration": 2, "velocity": 93}, {"time": 1253, "pitch": 64, "duration": 5, "velocity": 100}, {"time": 1262, "pitch": 64, "duration": 2, "velocity": 93}, {"time": 1265, "pitch": 66, "duration": 2, "velocity": 90}, {"time": 1268, "pitch": 64, "duration": 2, "velocity": 93}, {"time": 1271, "pitch": 64, "duration": 2, "velocity": 93}, {"time": 1274, "pitch": 66, "duration": 2, "velocity": 92}, {"time": 1277, "pitch": 68, "duration": 7, "velocity": 97}, {"time": 1286, "pitch": 68, "duration": 2, "velocity": 94}, {"time": 1289, "pitch": 68, "duration": 2, "velocity": 92}, {"time": 1292, "pitch": 66, "duration": 2, "velocity": 91}, {"time": 1295, "pitch": 63, "duration": 2, "velocity": 95}, {"time": 1298, "pitch": 64, "duration": 2, "velocity": 92}, {"time": 1301, "pitch": 64, "duration": 7, "velocity": 93}, {"time": 1310, "pitch": 64, "duration": 2, "velocity": 93}, {"time": 1313, "pitch": 66, "duration": 2, "velocity": 91}, {"time": 1316, "pitch": 64, "duration": 2, "velocity": 92}, {"time": 1319, "pitch": 64, "duration": 2, "velocity": 89}, {"time": 1322, "pitch": 59, "duration": 2, "velocity": 91}, {"time": 1325, "pitch": 68, "duration": 6, "velocity": 95}, {"time": 1334, "pitch": 64, "duration": 2, "velocity": 93}, {"time": 1337, "pitch": 66, "duration": 2, "velocity": 92}, {"time": 1340, "pitch": 64, "duration": 2, "velocity": 92}, {"time": 1343, "pitch": 64, "duration": 2, "velocity": 91}, {"time": 1346, "pitch": 61, "duration": 2, "velocity": 92}, {"time": 1349, "pitch": 69, "duration": 7, "velocity": 98}, {"time": 1358, "pitch": 69, "duration": 2, "velocity": 92}, {"time": 1361, "pitch": 69, "duration": 2, "velocity": 95}, {"time": 1364, "pitch": 68, "duration": 2, "velocity": 91}, {"time": 1367, "pitch": 64, "duration": 2, "velocity": 95}, {"time": 1370, "pitch": 68, "duration": 5, "velocity": 95}, {"time": 1376, "pitch": 66, "duration": 5, "velocity": 93}, {"time": 1382, "pitch": 59, "duration": 2, "velocity": 93}, {"time": 1385, "pitch": 71, "duration": 2, "velocity": 96}, {"time": 1388, "pitch": 69, "duration": 2, "velocity": 94}, {"time": 1391, "pitch": 69, "duration": 2, "velocity": 93}, {"time": 1394, "pitch": 68, "duration": 2, "velocity": 95}, {"time": 1397, "pitch": 71, "duration": 6, "velocity": 93}, {"time": 1406, "pitch": 59, "duration": 3, "velocity": 95}, {"time": 1409, "pitch": 71, "duration": 2, "velocity": 93}, {"time": 1412, "pitch": 69, "duration": 2, "velocity": 92}, {"time": 1415, "pitch": 69, "duration": 2, "velocity": 93}, {"time": 1418, "pitch": 68, "duration": 2, "velocity": 93}, {"time": 1421, "pitch": 66, "duration": 7, "velocity": 93}, {"time": 1430, "pitch": 66, "duration": 2, "velocity": 92}, {"time": 1433, "pitch": 68, "duration": 2, "velocity": 96}, {"time": 1436, "pitch": 69, "duration": 2, "velocity": 100}, {"time": 1439, "pitch": 68, "duration": 2, "velocity": 95}, {"time": 1442, "pitch": 66, "duration": 2, "velocity": 93}, {"time": 1445, "pitch": 64, "duration": 5, "velocity": 100}, {"time": 1454, "pitch": 64, "duration": 2, "velocity": 93}, {"time": 1457, "pitch": 66, "duration": 2, "velocity": 90}, {"time": 1460, "pitch": 64, "duration": 2, "velocity": 93}, {"time": 1463, "pitch": 64, "duration": 2, "velocity": 93}, {"time": 1466, "pitch": 66, "duration": 2, "velocity": 92}, {"time": 1469, "pitch": 68, "duration": 7, "velocity": 97}, {"time": 1478, "pitch": 68, "duration": 2, "velocity": 94}, {"time": 1481, "pitch": 68, "duration": 2, "velocity": 92}, {"time": 1484, "pitch": 66, "duration": 2, "velocity": 91}, {"time": 1487, "pitch": 63, "duration": 2, "velocity": 95}, {"time": 1490, "pitch": 64, "duration": 2, "velocity": 92}, {"time": 1493, "pitch": 64, "duration": 7, "velocity": 93}, {"time": 1502, "pitch": 64, "duration": 2, "velocity": 93}, {"time": 1505, "pitch": 66, "duration": 2, "velocity": 91}, {"time": 1508, "pitch": 64, "duration": 2, "velocity": 92}, {"time": 1511, "pitch": 64, "duration": 2, "velocity": 89}, {"time": 1514, "pitch": 59, "duration": 2, "velocity": 91}, {"time": 1517, "pitch": 68, "duration": 6, "velocity": 95}, {"time": 1526, "pitch": 64, "duration": 2, "velocity": 93}, {"time": 1529, "pitch": 66, "duration": 2, "velocity": 92}, {"time": 1532, "pitch": 64, "duration": 2, "velocity": 92}, {"time": 1535, "pitch": 64, "duration": 2, "velocity": 91}, {"time": 1538, "pitch": 61, "duration": 2, "velocity": 92}, {"time": 1541, "pitch": 69, "duration": 7, "velocity": 98}, {"time": 1550, "pitch": 69, "duration": 2, "velocity": 92}, {"time": 1553, "pitch": 69, "duration": 5, "velocity": 96}, {"time": 1559, "pitch": 68, "duration": 16, "velocity": 95}, {"time": 1577, "pitch": 63, "duration": 5, "velocity": 102}, {"time": 1583, "pitch": 66, "duration": 5, "velocity": 94}, {"time": 1589, "pitch": 64, "duration": 27, "velocity": 93}, {"time": 1766, "pitch": 59, "duration": 2, "velocity": 93}, {"time": 1769, "pitch": 71, "duration": 2, "velocity": 96}, {"time": 1772, "pitch": 69, "duration": 2, "velocity": 94}, {"time": 1775, "pitch": 69, "duration": 2, "velocity": 93}, {"time": 1778, "pitch": 68, "duration": 2, "velocity": 95}, {"time": 1781, "pitch": 71, "duration": 6, "velocity": 93}, {"time": 1790, "pitch": 59, "duration": 3, "velocity": 95}, {"time": 1793, "pitch": 71, "duration": 2, "velocity": 93}, {"time": 1796, "pitch": 69, "duration": 2, "velocity": 92}, {"time": 1799, "pitch": 69, "duration": 2, "velocity": 93}, {"time": 1802, "pitch": 68, "duration": 2, "velocity": 93}, {"time": 1805, "pitch": 66, "duration": 7, "velocity": 93}, {"time": 1814, "pitch": 66, "duration": 2, "velocity": 92}, {"time": 1817, "pitch": 68, "duration": 2, "velocity": 96}, {"time": 1820, "pitch": 69, "duration": 2, "velocity": 100}, {"time": 1823, "pitch": 68, "duration": 2, "velocity": 95}, {"time": 1826, "pitch": 66, "duration": 2, "velocity": 93}, {"time": 1829, "pitch": 64, "duration": 5, "velocity": 100}, {"time": 1838, "pitch": 64, "duration": 2, "velocity": 93}, {"time": 1841, "pitch": 66, "duration": 2, "velocity": 90}, {"time": 1844, "pitch": 64, "duration": 2, "velocity": 93}, {"time": 1847, "pitch": 64, "duration": 2, "velocity": 93}, {"time": 1850, "pitch": 66, "duration": 2, "velocity": 92}, {"time": 1853, "pitch": 68, "duration": 7, "velocity": 97}, {"time": 1862, "pitch": 68, "duration": 2, "velocity": 94}, {"time": 1865, "pitch": 68, "duration": 2, "velocity": 92}, {"time": 1868, "pitch": 66, "duration": 2, "velocity": 91}, {"time": 1871, "pitch": 63, "duration": 2, "velocity": 95}, {"time": 1874, "pitch": 64, "duration": 2, "velocity": 92}, {"time": 1877, "pitch": 64, "duration": 7, "velocity": 93}, {"time": 1886, "pitch": 64, "duration": 2, "velocity": 93}, {"time": 1889, "pitch": 66, "duration": 2, "velocity": 91}, {"time": 1892, "pitch": 64, "duration": 2, "velocity": 92}, {"time": 1895, "pitch": 64, "duration": 2, "velocity": 89}, {"time": 1898, "pitch": 59, "duration": 2, "velocity": 91}, {"time": 1901, "pitch": 68, "duration": 6, "velocity": 95}, {"time": 1910, "pitch": 64, "duration": 2, "velocity": 93}, {"time": 1913, "pitch": 66, "duration": 2, "velocity": 92}, {"time": 1916, "pitch": 64, "duration": 2, "velocity": 92}, {"time": 1919, "pitch": 64, "duration": 2, "velocity": 91}, {"time": 1922, "pitch": 61, "duration": 2, "velocity": 92}, {"time": 1925, "pitch": 69, "duration": 7, "velocity": 98}, {"time": 1934, "pitch": 69, "duration": 2, "velocity": 92}, {"time": 1937, "pitch": 69, "duration": 2, "velocity": 95}, {"time": 1940, "pitch": 68, "duration": 2, "velocity": 91}, {"time": 1943, "pitch": 64, "duration": 2, "velocity": 95}, {"time": 1946, "pitch": 68, "duration": 5, "velocity": 95}, {"time": 1952, "pitch": 66, "duration": 5, "velocity": 93}, {"time": 1958, "pitch": 59, "duration": 2, "velocity": 93}, {"time": 1961, "pitch": 71, "duration": 2, "velocity": 96}, {"time": 1964, "pitch": 69, "duration": 2, "velocity": 94}, {"time": 1967, "pitch": 69, "duration": 2, "velocity": 93}, {"time": 1970, "pitch": 68, "duration": 2, "velocity": 95}, {"time": 1973, "pitch": 71, "duration": 6, "velocity": 93}, {"time": 1982, "pitch": 59, "duration": 3, "velocity": 95}, {"time": 1985, "pitch": 71, "duration": 2, "velocity": 93}, {"time": 1988, "pitch": 69, "duration": 2, "velocity": 92}, {"time": 1991, "pitch": 69, "duration": 2, "velocity": 93}, {"time": 1994, "pitch": 68, "duration": 2, "velocity": 93}, {"time": 1997, "pitch": 66, "duration": 7, "velocity": 93}, {"time": 2006, "pitch": 66, "duration": 2, "velocity": 92}, {"time": 2009, "pitch": 68, "duration": 2, "velocity": 96}, {"time": 2012, "pitch": 69, "duration": 2, "velocity": 100}, {"time": 2015, "pitch": 68, "duration": 2, "velocity": 95}, {"time": 2018, "pitch": 66, "duration": 2, "velocity": 93}, {"time": 2021, "pitch": 64, "duration": 5, "velocity": 100}, {"time": 2030, "pitch": 64, "duration": 2, "velocity": 93}, {"time": 2033, "pitch": 66, "duration": 2, "velocity": 90}, {"time": 2036, "pitch": 64, "duration": 2, "velocity": 93}, {"time": 2039, "pitch": 64, "duration": 2, "velocity": 93}, {"time": 2042, "pitch": 66, "duration": 2, "velocity": 92}, {"time": 2045, "pitch": 68, "duration": 7, "velocity": 97}, {"time": 2054, "pitch": 68, "duration": 2, "velocity": 94}, {"time": 2057, "pitch": 68, "duration": 2, "velocity": 92}, {"time": 2060, "pitch": 66, "duration": 2, "velocity": 91}, {"time": 2063, "pitch": 63, "duration": 2, "velocity": 95}, {"time": 2066, "pitch": 64, "duration": 2, "velocity": 92}, {"time": 2069, "pitch": 64, "duration": 7, "velocity": 93}, {"time": 2078, "pitch": 64, "duration": 2, "velocity": 93}, {"time": 2081, "pitch": 66, "duration": 2, "velocity": 91}, {"time": 2084, "pitch": 64, "duration": 2, "velocity": 92}, {"time": 2087, "pitch": 64, "duration": 2, "velocity": 89}, {"time": 2090, "pitch": 59, "duration": 2, "velocity": 91}, {"time": 2093, "pitch": 68, "duration": 6, "velocity": 95}, {"time": 2102, "pitch": 64, "duration": 2, "velocity": 93}, {"time": 2105, "pitch": 66, "duration": 2, "velocity": 92}, {"time": 2108, "pitch": 64, "duration": 2, "velocity": 92}, {"time": 2111, "pitch": 64, "duration": 2, "velocity": 91}, {"time": 2114, "pitch": 61, "duration": 2, "velocity": 92}, {"time": 2117, "pitch": 69, "duration": 7, "velocity": 98}, {"time": 2126, "pitch": 69, "duration": 2, "velocity": 92}, {"time": 2129, "pitch": 69, "duration": 5, "velocity": 96}, {"time": 2135, "pitch": 68, "duration": 16, "velocity": 95}, {"time": 2153, "pitch": 63, "duration": 5, "velocity": 102}, {"time": 2159, "pitch": 66, "duration": 5, "velocity": 94}, {"time": 2165, "pitch": 64, "duration": 27, "velocity": 93}]}, {"program": 0, "is_drum": false, "name": "PIANO", "notes": [{"time": 5, "pitch": 40, "duration": 22, "velocity": 92}, {"time": 5, "pitch": 56, "duration": 7, "velocity": 89}, {"time": 8, "pitch": 47, "duration": 19, "velocity": 80}, {"time": 11, "pitch": 52, "duration": 2, "velocity": 85}, {"time": 14, "pitch": 52, "duration": 17, "velocity": 89}, {"time": 14, "pitch": 59, "duration": 18, "velocity": 86}, {"time": 29, "pitch": 47, "duration": 18, "velocity": 84}, {"time": 32, "pitch": 51, "duration": 15, "velocity": 86}, {"time": 35, "pitch": 54, "duration": 3, "velocity": 91}, {"time": 38, "pitch": 54, "duration": 11, "velocity": 70}, {"time": 38, "pitch": 59, "duration": 11, "velocity": 92}, {"time": 53, "pitch": 45, "duration": 22, "velocity": 93}, {"time": 56, "pitch": 52, "duration": 22, "velocity": 84}, {"time": 59, "pitch": 57, "duration": 19, "velocity": 77}, {"time": 62, "pitch": 64, "duration": 17, "velocity": 84}, {"time": 77, "pitch": 45, "duration": 19, "velocity": 94}, {"time": 80, "pitch": 52, "duration": 17, "velocity": 83}, {"time": 83, "pitch": 57, "duration": 13, "velocity": 88}, {"time": 86, "pitch": 60, "duration": 10, "velocity": 98}, {"time": 101, "pitch": 40, "duration": 21, "velocity": 92}, {"time": 101, "pitch": 56, "duration": 6, "velocity": 85}, {"time": 104, "pitch": 47, "duration": 19, "velocity": 83}, {"time": 107, "pitch": 52, "duration": 20, "velocity": 92}, {"time": 110, "pitch": 56, "duration": 18, "velocity": 93}, {"time": 110, "pitch": 59, "duration": 18, "velocity": 92}, {"time": 125, "pitch": 40, "duration": 20, "velocity": 86}, {"time": 128, "pitch": 47, "duration": 17, "velocity": 80}, {"time": 131, "pitch": 52, "duration": 18, "velocity": 87}, {"time": 134, "pitch": 56, "duration": 15, "velocity": 81}, {"time": 134, "pitch": 59, "duration": 16, "velocity": 81}, {"time": 140, "pitch": 63, "duration": 12, "velocity": 92}, {"time": 149, "pitch": 45, "duration": 20, "velocity": 93}, {"time": 152, "pitch": 52, "duration": 19, "velocity": 80}, {"time": 155, "pitch": 57, "duration": 2, "velocity": 78}, {"time": 158, "pitch": 57, "duration": 19, "velocity": 90}, {"time": 158, "pitch": 64, "duration": 22, "velocity": 90}, {"time": 173, "pitch": 45, "duration": 21, "velocity": 84}, {"time": 176, "pitch": 52, "duration": 17, "velocity": 87}, {"time": 179, "pitch": 57, "duration": 2, "velocity": 93}, {"time": 182, "pitch": 57, "duration": 15, "velocity": 77}, {"time": 182, "pitch": 64, "duration": 16, "velocity": 91}, {"time": 197, "pitch": 40, "duration": 20, "velocity": 91}, {"time": 200, "pitch": 47, "duration": 17, "velocity": 74}, {"time": 203, "pitch": 52, "duration": 15, "velocity": 80}, {"time": 206, "pitch": 59, "duration": 12, "velocity": 81}, {"time": 221, "pitch": 47, "duration": 21, "velocity": 92}, {"time": 224, "pitch": 54, "duration": 6, "velocity": 85}, {"time": 227, "pitch": 59, "duration": 4, "velocity": 85}, {"time": 230, "pitch": 63, "duration": 5, "velocity": 98}, {"time": 245, "pitch": 49, "duration": 16, "velocity": 91}, {"time": 245, "pitch": 56, "duration": 4, "velocity": 82}, {"time": 245, "pitch": 61, "duration": 24, "velocity": 82}, {"time": 251, "pitch": 56, "duration": 2, "velocity": 50}, {"time": 254, "pitch": 64, "duration": 16, "velocity": 87}, {"time": 269, "pitch": 44, "duration": 17, "velocity": 91}, {"time": 269, "pitch": 59, "duration": 7, "velocity": 87}, {"time": 272, "pitch": 51, "duration": 15, "velocity": 83}, {"time": 275, "pitch": 56, "duration": 10, "velocity": 78}, {"time": 278, "pitch": 59, "duration": 8, "velocity": 85}, {"time": 284, "pitch": 63, "duration": 6, "velocity": 86}, {"time": 293, "pitch": 45, "duration": 16, "velocity": 92}, {"time": 293, "pitch": 57, "duration": 4, "velocity": 79}, {"time": 293, "pitch": 61, "duration": 19, "velocity": 84}, {"time": 296, "pitch": 52, "duration": 12, "velocity": 78}, {"time": 299, "pitch": 57, "duration": 11, "velocity": 81}, {"time": 302, "pitch": 64, "duration": 10, "velocity": 74}, {"time": 317, "pitch": 40, "duration": 7, "velocity": 91}, {"time": 317, "pitch": 52, "duration": 3, "velocity": 82}, {"time": 317, "pitch": 56, "duration": 6, "velocity": 83}, {"time": 320, "pitch": 47, "duration": 5, "velocity": 82}, {"time": 323, "pitch": 52, "duration": 2, "velocity": 92}, {"time": 329, "pitch": 49, "duration": 6, "velocity": 92}, {"time": 329, "pitch": 56, "duration": 6, "velocity": 85}, {"time": 329, "pitch": 61, "duration": 7, "velocity": 87}, {"time": 341, "pitch": 42, "duration": 20, "velocity": 91}, {"time": 341, "pitch": 54, "duration": 4, "velocity": 83}, {"time": 341, "pitch": 57, "duration": 5, "velocity": 78}, {"time": 341, "pitch": 61, "duration": 6, "velocity": 87}, {"time": 344, "pitch": 49, "duration": 16, "velocity": 80}, {"time": 347, "pitch": 54, "duration": 15, "velocity": 89}, {"time": 350, "pitch": 61, "duration": 13, "velocity": 87}, {"time": 365, "pitch": 47, "duration": 21, "velocity": 88}, {"time": 365, "pitch": 54, "duration": 3, "velocity": 86}, {"time": 365, "pitch": 59, "duration": 7, "velocity": 85}, {"time": 368, "pitch": 51, "duration": 18, "velocity": 83}, {"time": 371, "pitch": 54, "duration": 4, "velocity": 92}, {"time": 374, "pitch": 63, "duration": 10, "velocity": 96}, {"time": 383, "pitch": 59, "duration": 7, "velocity": 93}, {"time": 386, "pitch": 54, "duration": 4, "velocity": 86}, {"time": 389, "pitch": 40, "duration": 19, "velocity": 93}, {"time": 392, "pitch": 47, "duration": 16, "velocity": 83}, {"time": 395, "pitch": 52, "duration": 12, "velocity": 87}, {"time": 398, "pitch": 59, "duration": 10, "velocity": 87}, {"time": 413, "pitch": 47, "duration": 20, "velocity": 92}, {"time": 413, "pitch": 54, "duration": 4, "velocity": 85}, {"time": 413, "pitch": 59, "duration": 7, "velocity": 84}, {"time": 416, "pitch": 51, "duration": 18, "velocity": 80}, {"time": 419, "pitch": 54, "duration": 8, "velocity": 91}, {"time": 422, "pitch": 63, "duration": 5, "velocity": 98}, {"time": 428, "pitch": 59, "duration": 4, "velocity": 87}, {"time": 431, "pitch": 54, "duration": 4, "velocity": 74}, {"time": 434, "pitch": 59, "duration": 4, "velocity": 80}, {"time": 437, "pitch": 49, "duration": 18, "velocity": 94}, {"time": 437, "pitch": 61, "duration": 4, "velocity": 85}, {"time": 440, "pitch": 56, "duration": 17, "velocity": 83}, {"time": 443, "pitch": 61, "duration": 15, "velocity": 83}, {"time": 446, "pitch": 64, "duration": 13, "velocity": 85}, {"time": 446, "pitch": 66, "duration": 4, "velocity": 84}, {"time": 461, "pitch": 44, "duration": 17, "velocity": 91}, {"time": 461, "pitch": 56, "duration": 3, "velocity": 80}, {"time": 461, "pitch": 59, "duration": 7, "velocity": 83}, {"time": 464, "pitch": 51, "duration": 14, "velocity": 85}, {"time": 467, "pitch": 54, "duration": 10, "velocity": 91}, {"time": 470, "pitch": 59, "duration": 7, "velocity": 89}, {"time": 476, "pitch": 63, "duration": 8, "velocity": 91}, {"time": 479, "pitch": 54, "duration": 5, "velocity": 79}, {"time": 485, "pitch": 45, "duration": 21, "velocity": 81}, {"time": 485, "pitch": 61, "duration": 6, "velocity": 91}, {"time": 488, "pitch": 52, "duration": 17, "velocity": 77}, {"time": 491, "pitch": 57, "duration": 11, "velocity": 82}, {"time": 494, "pitch": 64, "duration": 13, "velocity": 91}, {"time": 503, "pitch": 61, "duration": 5, "velocity": 82}, {"time": 506, "pitch": 57, "duration": 2, "velocity": 86}, {"time": 509, "pitch": 44, "duration": 19, "velocity": 91}, {"time": 509, "pitch": 56, "duration": 10, "velocity": 82}, {"time": 512, "pitch": 52, "duration": 17, "velocity": 80}, {"time": 515, "pitch": 59, "duration": 9, "velocity": 86}, {"time": 518, "pitch": 64, "duration": 14, "velocity": 91}, {"time": 527, "pitch": 59, "duration": 3, "velocity": 78}, {"time": 530, "pitch": 56, "duration": 1, "velocity": 74}, {"time": 533, "pitch": 42, "duration": 22, "velocity": 92}, {"time": 533, "pitch": 54, "duration": 3, "velocity": 80}, {"time": 533, "pitch": 57, "duration": 6, "velocity": 79}, {"time": 533, "pitch": 61, "duration": 20, "velocity": 82}, {"time": 536, "pitch": 49, "duration": 19, "velocity": 79}, {"time": 539, "pitch": 54, "duration": 12, "velocity": 85}, {"time": 542, "pitch": 57, "duration": 10, "velocity": 81}, {"time": 557, "pitch": 47, "duration": 25, "velocity": 96}, {"time": 557, "pitch": 54, "duration": 3, "velocity": 88}, {"time": 557, "pitch": 59, "duration": 7, "velocity": 89}, {"time": 560, "pitch": 51, "duration": 8, "velocity": 85}, {"time": 563, "pitch": 54, "duration": 2, "velocity": 96}, {"time": 566, "pitch": 54, "duration": 4, "velocity": 100}, {"time": 566, "pitch": 59, "duration": 5, "velocity": 100}, {"time": 566, "pitch": 63, "duration": 6, "velocity": 100}, {"time": 569, "pitch": 51, "duration": 13, "velocity": 86}, {"time": 572, "pitch": 54, "duration": 2, "velocity": 94}, {"time": 575, "pitch": 59, "duration": 4, "velocity": 96}, {"time": 578, "pitch": 54, "duration": 3, "velocity": 87}, {"time": 581, "pitch": 40, "duration": 12, "velocity": 97}, {"time": 581, "pitch": 52, "duration": 4, "velocity": 92}, {"time": 581, "pitch": 56, "duration": 5, "velocity": 91}, {"time": 587, "pitch": 47, "duration": 6, "velocity": 92}, {"time": 587, "pitch": 52, "duration": 4, "velocity": 82}, {"time": 590, "pitch": 56, "duration": 2, "velocity": 87}, {"time": 590, "pitch": 59, "duration": 2, "velocity": 83}, {"time": 593, "pitch": 40, "duration": 8, "velocity": 93}, {"time": 593, "pitch": 52, "duration": 1, "velocity": 82}, {"time": 593, "pitch": 56, "duration": 6, "velocity": 91}, {"time": 593, "pitch": 59, "duration": 9, "velocity": 91}, {"time": 593, "pitch": 64, "duration": 11, "velocity": 96}, {"time": 599, "pitch": 52, "duration": 3, "velocity": 86}, {"time": 605, "pitch": 47, "duration": 11, "velocity": 95}, {"time": 605, "pitch": 54, "duration": 2, "velocity": 91}, {"time": 605, "pitch": 59, "duration": 7, "velocity": 93}, {"time": 611, "pitch": 54, "duration": 4, "velocity": 92}, {"time": 614, "pitch": 59, "duration": 2, "velocity": 92}, {"time": 617, "pitch": 47, "duration": 6, "velocity": 96}, {"time": 617, "pitch": 54, "duration": 2, "velocity": 92}, {"time": 617, "pitch": 59, "duration": 8, "velocity": 92}, {"time": 617, "pitch": 63, "duration": 7, "velocity": 93}, {"time": 623, "pitch": 54, "duration": 2, "velocity": 78}, {"time": 629, "pitch": 49, "duration": 11, "velocity": 97}, {"time": 629, "pitch": 56, "duration": 3, "velocity": 91}, {"time": 629, "pitch": 61, "duration": 6, "velocity": 91}, {"time": 635, "pitch": 56, "duration": 4, "velocity": 83}, {"time": 638, "pitch": 61, "duration": 2, "velocity": 75}, {"time": 641, "pitch": 49, "duration": 6, "velocity": 92}, {"time": 641, "pitch": 56, "duration": 4, "velocity": 88}, {"time": 641, "pitch": 61, "duration": 6, "velocity": 92}, {"time": 641, "pitch": 64, "duration": 8, "velocity": 91}, {"time": 647, "pitch": 56, "duration": 4, "velocity": 92}, {"time": 650, "pitch": 61, "duration": 2, "velocity": 83}, {"time": 653, "pitch": 47, "duration": 11, "velocity": 93}, {"time": 653, "pitch": 54, "duration": 3, "velocity": 91}, {"time": 653, "pitch": 59, "duration": 6, "velocity": 91}, {"time": 659, "pitch": 54, "duration": 3, "velocity": 88}, {"time": 662, "pitch": 59, "duration": 2, "velocity": 81}, {"time": 665, "pitch": 47, "duration": 3, "velocity": 92}, {"time": 665, "pitch": 54, "duration": 3, "velocity": 91}, {"time": 665, "pitch": 63, "duration": 4, "velocity": 96}, {"time": 668, "pitch": 59, "duration": 3, "velocity": 92}, {"time": 671, "pitch": 54, "duration": 4, "velocity": 92}, {"time": 677, "pitch": 45, "duration": 11, "velocity": 95}, {"time": 677, "pitch": 57, "duration": 4, "velocity": 92}, {"time": 680, "pitch": 52, "duration": 8, "velocity": 89}, {"time": 683, "pitch": 57, "duration": 4, "velocity": 93}, {"time": 686, "pitch": 61, "duration": 2, "velocity": 87}, {"time": 689, "pitch": 45, "duration": 5, "velocity": 92}, {"time": 689, "pitch": 52, "duration": 8, "velocity": 90}, {"time": 689, "pitch": 57, "duration": 3, "velocity": 91}, {"time": 689, "pitch": 61, "duration": 7, "velocity": 91}, {"time": 689, "pitch": 64, "duration": 10, "velocity": 91}, {"time": 695, "pitch": 57, "duration": 4, "velocity": 97}, {"time": 698, "pitch": 61, "duration": 3, "velocity": 83}, {"time": 701, "pitch": 44, "duration": 20, "velocity": 90}, {"time": 701, "pitch": 56, "duration": 3, "velocity": 86}, {"time": 701, "pitch": 59, "duration": 5, "velocity": 93}, {"time": 704, "pitch": 56, "duration": 3, "velocity": 75}, {"time": 707, "pitch": 59, "duration": 4, "velocity": 91}, {"time": 710, "pitch": 56, "duration": 2, "velocity": 82}, {"time": 713, "pitch": 56, "duration": 3, "velocity": 91}, {"time": 713, "pitch": 59, "duration": 5, "velocity": 92}, {"time": 713, "pitch": 64, "duration": 5, "velocity": 92}, {"time": 719, "pitch": 56, "duration": 4, "velocity": 92}, {"time": 722, "pitch": 59, "duration": 2, "velocity": 87}, {"time": 725, "pitch": 42, "duration": 19, "velocity": 92}, {"time": 725, "pitch": 54, "duration": 4, "velocity": 87}, {"time": 725, "pitch": 57, "duration": 4, "velocity": 86}, {"time": 728, "pitch": 49, "duration": 12, "velocity": 88}, {"time": 731, "pitch": 54, "duration": 4, "velocity": 87}, {"time": 734, "pitch": 57, "duration": 2, "velocity": 86}, {"time": 737, "pitch": 54, "duration": 4, "velocity": 102}, {"time": 737, "pitch": 57, "duration": 4, "velocity": 98}, {"time": 737, "pitch": 66, "duration": 5, "velocity": 93}, {"time": 743, "pitch": 49, "duration": 3, "velocity": 91}, {"time": 743, "pitch": 54, "duration": 1, "velocity": 86}, {"time": 743, "pitch": 57, "duration": 3, "velocity": 94}, {"time": 743, "pitch": 61, "duration": 5, "velocity": 94}, {"time": 746, "pitch": 54, "duration": 2, "velocity": 91}, {"time": 749, "pitch": 47, "duration": 10, "velocity": 100}, {"time": 749, "pitch": 54, "duration": 2, "velocity": 93}, {"time": 749, "pitch": 59, "duration": 4, "velocity": 92}, {"time": 752, "pitch": 54, "duration": 2, "velocity": 86}, {"time": 755, "pitch": 59, "duration": 2, "velocity": 81}, {"time": 758, "pitch": 54, "duration": 2, "velocity": 85}, {"time": 761, "pitch": 47, "duration": 12, "velocity": 97}, {"time": 761, "pitch": 54, "duration": 3, "velocity": 93}, {"time": 761, "pitch": 59, "duration": 4, "velocity": 96}, {"time": 761, "pitch": 63, "duration": 7, "velocity": 96}, {"time": 767, "pitch": 59, "duration": 4, "velocity": 87}, {"time": 770, "pitch": 54, "duration": 2, "velocity": 92}, {"time": 773, "pitch": 40, "duration": 12, "velocity": 97}, {"time": 773, "pitch": 52, "duration": 4, "velocity": 92}, {"time": 773, "pitch": 56, "duration": 5, "velocity": 91}, {"time": 779, "pitch": 47, "duration": 6, "velocity": 92}, {"time": 779, "pitch": 52, "duration": 4, "velocity": 82}, {"time": 782, "pitch": 56, "duration": 2, "velocity": 87}, {"time": 782, "pitch": 59, "duration": 2, "velocity": 83}, {"time": 785, "pitch": 40, "duration": 8, "velocity": 93}, {"time": 785, "pitch": 52, "duration": 1, "velocity": 82}, {"time": 785, "pitch": 56, "duration": 6, "velocity": 91}, {"time": 785, "pitch": 59, "duration": 9, "velocity": 91}, {"time": 785, "pitch": 64, "duration": 11, "velocity": 96}, {"time": 791, "pitch": 52, "duration": 3, "velocity": 86}, {"time": 797, "pitch": 47, "duration": 11, "velocity": 95}, {"time": 797, "pitch": 54, "duration": 2, "velocity": 91}, {"time": 797, "pitch": 59, "duration": 7, "velocity": 93}, {"time": 803, "pitch": 54, "duration": 4, "velocity": 92}, {"time": 806, "pitch": 59, "duration": 2, "velocity": 92}, {"time": 809, "pitch": 47, "duration": 6, "velocity": 96}, {"time": 809, "pitch": 54, "duration": 2, "velocity": 92}, {"time": 809, "pitch": 59, "duration": 8, "velocity": 92}, {"time": 809, "pitch": 63, "duration": 7, "velocity": 93}, {"time": 815, "pitch": 54, "duration": 2, "velocity": 78}, {"time": 821, "pitch": 49, "duration": 11, "velocity": 97}, {"time": 821, "pitch": 56, "duration": 3, "velocity": 91}, {"time": 821, "pitch": 61, "duration": 6, "velocity": 91}, {"time": 827, "pitch": 56, "duration": 4, "velocity": 83}, {"time": 830, "pitch": 61, "duration": 2, "velocity": 75}, {"time": 833, "pitch": 49, "duration": 6, "velocity": 92}, {"time": 833, "pitch": 56, "duration": 4, "velocity": 88}, {"time": 833, "pitch": 61, "duration": 6, "velocity": 92}, {"time": 833, "pitch": 64, "duration": 8, "velocity": 91}, {"time": 839, "pitch": 56, "duration": 4, "velocity": 92}, {"time": 842, "pitch": 61, "duration": 2, "velocity": 83}, {"time": 845, "pitch": 47, "duration": 11, "velocity": 93}, {"time": 845, "pitch": 54, "duration": 3, "velocity": 91}, {"time": 845, "pitch": 59, "duration": 6, "velocity": 91}, {"time": 851, "pitch": 54, "duration": 3, "velocity": 88}, {"time": 854, "pitch": 59, "duration": 2, "velocity": 81}, {"time": 857, "pitch": 47, "duration": 3, "velocity": 92}, {"time": 857, "pitch": 54, "duration": 3, "velocity": 91}, {"time": 857, "pitch": 63, "duration": 4, "velocity": 96}, {"time": 860, "pitch": 59, "duration": 3, "velocity": 92}, {"time": 863, "pitch": 54, "duration": 4, "velocity": 92}, {"time": 869, "pitch": 45, "duration": 11, "velocity": 95}, {"time": 869, "pitch": 57, "duration": 4, "velocity": 92}, {"time": 872, "pitch": 52, "duration": 8, "velocity": 89}, {"time": 875, "pitch": 57, "duration": 4, "velocity": 93}, {"time": 878, "pitch": 61, "duration": 2, "velocity": 87}, {"time": 881, "pitch": 45, "duration": 5, "velocity": 92}, {"time": 881, "pitch": 52, "duration": 8, "velocity": 90}, {"time": 881, "pitch": 57, "duration": 3, "velocity": 91}, {"time": 881, "pitch": 61, "duration": 7, "velocity": 91}, {"time": 881, "pitch": 64, "duration": 10, "velocity": 91}, {"time": 887, "pitch": 57, "duration": 4, "velocity": 97}, {"time": 890, "pitch": 61, "duration": 3, "velocity": 83}, {"time": 893, "pitch": 44, "duration": 20, "velocity": 90}, {"time": 893, "pitch": 56, "duration": 3, "velocity": 86}, {"time": 893, "pitch": 59, "duration": 5, "velocity": 93}, {"time": 896, "pitch": 56, "duration": 3, "velocity": 75}, {"time": 899, "pitch": 59, "duration": 4, "velocity": 91}, {"time": 902, "pitch": 56, "duration": 2, "velocity": 82}, {"time": 905, "pitch": 56, "duration": 3, "velocity": 91}, {"time": 905, "pitch": 59, "duration": 5, "velocity": 92}, {"time": 905, "pitch": 64, "duration": 5, "velocity": 92}, {"time": 911, "pitch": 56, "duration": 4, "velocity": 92}, {"time": 914, "pitch": 59, "duration": 2, "velocity": 87}, {"time": 917, "pitch": 42, "duration": 19, "velocity": 92}, {"time": 917, "pitch": 54, "duration": 4, "velocity": 87}, {"time": 917, "pitch": 57, "duration": 4, "velocity": 86}, {"time": 920, "pitch": 49, "duration": 12, "velocity": 88}, {"time": 923, "pitch": 54, "duration": 4, "velocity": 87}, {"time": 926, "pitch": 57, "duration": 2, "velocity": 86}, {"time": 929, "pitch": 54, "duration": 4, "velocity": 102}, {"time": 929, "pitch": 57, "duration": 4, "velocity": 98}, {"time": 929, "pitch": 66, "duration": 5, "velocity": 93}, {"time": 935, "pitch": 49, "duration": 3, "velocity": 91}, {"time": 935, "pitch": 54, "duration": 1, "velocity": 86}, {"time": 935, "pitch": 57, "duration": 3, "velocity": 94}, {"time": 935, "pitch": 61, "duration": 5, "velocity": 94}, {"time": 938, "pitch": 54, "duration": 2, "velocity": 91}, {"time": 941, "pitch": 47, "duration": 10, "velocity": 100}, {"time": 941, "pitch": 54, "duration": 2, "velocity": 93}, {"time": 941, "pitch": 59, "duration": 4, "velocity": 92}, {"time": 944, "pitch": 54, "duration": 2, "velocity": 86}, {"time": 947, "pitch": 59, "duration": 2, "velocity": 81}, {"time": 950, "pitch": 54, "duration": 2, "velocity": 85}, {"time": 953, "pitch": 47, "duration": 12, "velocity": 97}, {"time": 953, "pitch": 54, "duration": 3, "velocity": 93}, {"time": 953, "pitch": 59, "duration": 4, "velocity": 96}, {"time": 953, "pitch": 63, "duration": 7, "velocity": 96}, {"time": 959, "pitch": 59, "duration": 4, "velocity": 87}, {"time": 962, "pitch": 54, "duration": 2, "velocity": 92}, {"time": 965, "pitch": 36, "duration": 5, "velocity": 100}, {"time": 965, "pitch": 48, "duration": 5, "velocity": 92}, {"time": 965, "pitch": 60, "duration": 5, "velocity": 88}, {"time": 971, "pitch": 36, "duration": 6, "velocity": 102}, {"time": 971, "pitch": 43, "duration": 6, "velocity": 95}, {"time": 971, "pitch": 48, "duration": 6, "velocity": 94}, {"time": 971, "pitch": 60, "duration": 6, "velocity": 87}, {"time": 980, "pitch": 36, "duration": 2, "velocity": 100}, {"time": 980, "pitch": 43, "duration": 2, "velocity": 95}, {"time": 980, "pitch": 48, "duration": 2, "velocity": 93}, {"time": 980, "pitch": 60, "duration": 2, "velocity": 91}, {"time": 986, "pitch": 38, "duration": 19, "velocity": 105}, {"time": 986, "pitch": 50, "duration": 8, "velocity": 91}, {"time": 986, "pitch": 62, "duration": 10, "velocity": 91}, {"time": 992, "pitch": 45, "duration": 12, "velocity": 87}, {"time": 995, "pitch": 50, "duration": 4, "velocity": 82}, {"time": 998, "pitch": 54, "duration": 2, "velocity": 81}, {"time": 1001, "pitch": 50, "duration": 10, "velocity": 90}, {"time": 1001, "pitch": 54, "duration": 10, "velocity": 96}, {"time": 1001, "pitch": 62, "duration": 10, "velocity": 93}, {"time": 1013, "pitch": 40, "duration": 19, "velocity": 93}, {"time": 1016, "pitch": 47, "duration": 16, "velocity": 83}, {"time": 1019, "pitch": 52, "duration": 12, "velocity": 87}, {"time": 1022, "pitch": 59, "duration": 10, "velocity": 87}, {"time": 1037, "pitch": 47, "duration": 20, "velocity": 92}, {"time": 1037, "pitch": 54, "duration": 4, "velocity": 85}, {"time": 1037, "pitch": 59, "duration": 7, "velocity": 84}, {"time": 1040, "pitch": 51, "duration": 18, "velocity": 80}, {"time": 1043, "pitch": 54, "duration": 8, "velocity": 91}, {"time": 1046, "pitch": 63, "duration": 5, "velocity": 98}, {"time": 1052, "pitch": 59, "duration": 4, "velocity": 87}, {"time": 1055, "pitch": 54, "duration": 4, "velocity": 74}, {"time": 1058, "pitch": 59, "duration": 4, "velocity": 80}, {"time": 1061, "pitch": 49, "duration": 18, "velocity": 94}, {"time": 1061, "pitch": 61, "duration": 4, "velocity": 85}, {"time": 1064, "pitch": 56, "duration": 17, "velocity": 83}, {"time": 1067, "pitch": 61, "duration": 15, "velocity": 83}, {"time": 1070, "pitch": 64, "duration": 13, "velocity": 85}, {"time": 1070, "pitch": 66, "duration": 4, "velocity": 84}, {"time": 1085, "pitch": 44, "duration": 17, "velocity": 91}, {"time": 1085, "pitch": 56, "duration": 3, "velocity": 80}, {"time": 1085, "pitch": 59, "duration": 7, "velocity": 83}, {"time": 1088, "pitch": 51, "duration": 14, "velocity": 85}, {"time": 1091, "pitch": 54, "duration": 10, "velocity": 91}, {"time": 1094, "pitch": 59, "duration": 7, "velocity": 89}, {"time": 1100, "pitch": 63, "duration": 8, "velocity": 91}, {"time": 1103, "pitch": 54, "duration": 5, "velocity": 79}, {"time": 1109, "pitch": 45, "duration": 21, "velocity": 81}, {"time": 1109, "pitch": 61, "duration": 6, "velocity": 91}, {"time": 1112, "pitch": 52, "duration": 17, "velocity": 77}, {"time": 1115, "pitch": 57, "duration": 11, "velocity": 82}, {"time": 1118, "pitch": 64, "duration": 13, "velocity": 91}, {"time": 1127, "pitch": 61, "duration": 5, "velocity": 82}, {"time": 1130, "pitch": 57, "duration": 2, "velocity": 86}, {"time": 1133, "pitch": 44, "duration": 19, "velocity": 91}, {"time": 1133, "pitch": 56, "duration": 10, "velocity": 82}, {"time": 1136, "pitch": 52, "duration": 17, "velocity": 80}, {"time": 1139, "pitch": 59, "duration": 9, "velocity": 86}, {"time": 1142, "pitch": 64, "duration": 14, "velocity": 91}, {"time": 1151, "pitch": 59, "duration": 3, "velocity": 78}, {"time": 1154, "pitch": 56, "duration": 1, "velocity": 74}, {"time": 1157, "pitch": 42, "duration": 22, "velocity": 92}, {"time": 1157, "pitch": 54, "duration": 3, "velocity": 80}, {"time": 1157, "pitch": 57, "duration": 6, "velocity": 79}, {"time": 1157, "pitch": 61, "duration": 20, "velocity": 82}, {"time": 1160, "pitch": 49, "duration": 19, "velocity": 79}, {"time": 1163, "pitch": 54, "duration": 12, "velocity": 85}, {"time": 1166, "pitch": 57, "duration": 10, "velocity": 81}, {"time": 1181, "pitch": 47, "duration": 25, "velocity": 96}, {"time": 1181, "pitch": 54, "duration": 3, "velocity": 88}, {"time": 1181, "pitch": 59, "duration": 7, "velocity": 89}, {"time": 1184, "pitch": 51, "duration": 8, "velocity": 85}, {"time": 1187, "pitch": 54, "duration": 2, "velocity": 96}, {"time": 1190, "pitch": 54, "duration": 4, "velocity": 100}, {"time": 1190, "pitch": 59, "duration": 5, "velocity": 100}, {"time": 1190, "pitch": 63, "duration": 6, "velocity": 100}, {"time": 1193, "pitch": 51, "duration": 13, "velocity": 86}, {"time": 1196, "pitch": 54, "duration": 2, "velocity": 94}, {"time": 1199, "pitch": 59, "duration": 4, "velocity": 96}, {"time": 1202, "pitch": 54, "duration": 3, "velocity": 87}, {"time": 1205, "pitch": 40, "duration": 12, "velocity": 97}, {"time": 1205, "pitch": 52, "duration": 4, "velocity": 92}, {"time": 1205, "pitch": 56, "duration": 5, "velocity": 91}, {"time": 1211, "pitch": 47, "duration": 6, "velocity": 92}, {"time": 1211, "pitch": 52, "duration": 4, "velocity": 82}, {"time": 1214, "pitch": 56, "duration": 2, "velocity": 87}, {"time": 1214, "pitch": 59, "duration": 2, "velocity": 83}, {"time": 1217, "pitch": 40, "duration": 8, "velocity": 93}, {"time": 1217, "pitch": 52, "duration": 1, "velocity": 82}, {"time": 1217, "pitch": 56, "duration": 6, "velocity": 91}, {"time": 1217, "pitch": 59, "duration": 9, "velocity": 91}, {"time": 1217, "pitch": 64, "duration": 11, "velocity": 96}, {"time": 1223, "pitch": 52, "duration": 3, "velocity": 86}, {"time": 1229, "pitch": 47, "duration": 11, "velocity": 95}, {"time": 1229, "pitch": 54, "duration": 2, "velocity": 91}, {"time": 1229, "pitch": 59, "duration": 7, "velocity": 93}, {"time": 1235, "pitch": 54, "duration": 4, "velocity": 92}, {"time": 1238, "pitch": 59, "duration": 2, "velocity": 92}, {"time": 1241, "pitch": 47, "duration": 6, "velocity": 96}, {"time": 1241, "pitch": 54, "duration": 2, "velocity": 92}, {"time": 1241, "pitch": 59, "duration": 8, "velocity": 92}, {"time": 1241, "pitch": 63, "duration": 7, "velocity": 93}, {"time": 1247, "pitch": 54, "duration": 2, "velocity": 78}, {"time": 1253, "pitch": 49, "duration": 11, "velocity": 97}, {"time": 1253, "pitch": 56, "duration": 3, "velocity": 91}, {"time": 1253, "pitch": 61, "duration": 6, "velocity": 91}, {"time": 1259, "pitch": 56, "duration": 4, "velocity": 83}, {"time": 1262, "pitch": 61, "duration": 2, "velocity": 75}, {"time": 1265, "pitch": 49, "duration": 6, "velocity": 92}, {"time": 1265, "pitch": 56, "duration": 4, "velocity": 88}, {"time": 1265, "pitch": 61, "duration": 6, "velocity": 92}, {"time": 1265, "pitch": 64, "duration": 8, "velocity": 91}, {"time": 1271, "pitch": 56, "duration": 4, "velocity": 92}, {"time": 1274, "pitch": 61, "duration": 2, "velocity": 83}, {"time": 1277, "pitch": 47, "duration": 11, "velocity": 93}, {"time": 1277, "pitch": 54, "duration": 3, "velocity": 91}, {"time": 1277, "pitch": 59, "duration": 6, "velocity": 91}, {"time": 1283, "pitch": 54, "duration": 3, "velocity": 88}, {"time": 1286, "pitch": 59, "duration": 2, "velocity": 81}, {"time": 1289, "pitch": 47, "duration": 3, "velocity": 92}, {"time": 1289, "pitch": 54, "duration": 3, "velocity": 91}, {"time": 1289, "pitch": 63, "duration": 4, "velocity": 96}, {"time": 1292, "pitch": 59, "duration": 3, "velocity": 92}, {"time": 1295, "pitch": 54, "duration": 4, "velocity": 92}, {"time": 1301, "pitch": 45, "duration": 11, "velocity": 95}, {"time": 1301, "pitch": 57, "duration": 4, "velocity": 92}, {"time": 1304, "pitch": 52, "duration": 8, "velocity": 89}, {"time": 1307, "pitch": 57, "duration": 4, "velocity": 93}, {"time": 1310, "pitch": 61, "duration": 2, "velocity": 87}, {"time": 1313, "pitch": 45, "duration": 5, "velocity": 92}, {"time": 1313, "pitch": 52, "duration": 8, "velocity": 90}, {"time": 1313, "pitch": 57, "duration": 3, "velocity": 91}, {"time": 1313, "pitch": 61, "duration": 7, "velocity": 91}, {"time": 1313, "pitch": 64, "duration": 10, "velocity": 91}, {"time": 1319, "pitch": 57, "duration": 4, "velocity": 97}, {"time": 1322, "pitch": 61, "duration": 3, "velocity": 83}, {"time": 1325, "pitch": 44, "duration": 20, "velocity": 90}, {"time": 1325, "pitch": 56, "duration": 3, "velocity": 86}, {"time": 1325, "pitch": 59, "duration": 5, "velocity": 93}, {"time": 1328, "pitch": 56, "duration": 3, "velocity": 75}, {"time": 1331, "pitch": 59, "duration": 4, "velocity": 91}, {"time": 1334, "pitch": 56, "duration": 2, "velocity": 82}, {"time": 1337, "pitch": 56, "duration": 3, "velocity": 91}, {"time": 1337, "pitch": 59, "duration": 5, "velocity": 92}, {"time": 1337, "pitch": 64, "duration": 5, "velocity": 92}, {"time": 1343, "pitch": 56, "duration": 4, "velocity": 92}, {"time": 1346, "pitch": 59, "duration": 2, "velocity": 87}, {"time": 1349, "pitch": 42, "duration": 19, "velocity": 92}, {"time": 1349, "pitch": 54, "duration": 4, "velocity": 87}, {"time": 1349, "pitch": 57, "duration": 4, "velocity": 86}, {"time": 1352, "pitch": 49, "duration": 12, "velocity": 88}, {"time": 1355, "pitch": 54, "duration": 4, "velocity": 87}, {"time": 1358, "pitch": 57, "duration": 2, "velocity": 86}, {"time": 1361, "pitch": 54, "duration": 4, "velocity": 102}, {"time": 1361, "pitch": 57, "duration": 4, "velocity": 98}, {"time": 1361, "pitch": 66, "duration": 5, "velocity": 93}, {"time": 1367, "pitch": 49, "duration": 3, "velocity": 91}, {"time": 1367, "pitch": 54, "duration": 1, "velocity": 86}, {"time": 1367, "pitch": 57, "duration": 3, "velocity": 94}, {"time": 1367, "pitch": 61, "duration": 5, "velocity": 94}, {"time": 1370, "pitch": 54, "duration": 2, "velocity": 91}, {"time": 1373, "pitch": 47, "duration": 10, "velocity": 100}, {"time": 1373, "pitch": 54, "duration": 2, "velocity": 93}, {"time": 1373, "pitch": 59, "duration": 4, "velocity": 92}, {"time": 1376, "pitch": 54, "duration": 2, "velocity": 86}, {"time": 1379, "pitch": 59, "duration": 2, "velocity": 81}, {"time": 1382, "pitch": 54, "duration": 2, "velocity": 85}, {"time": 1385, "pitch": 47, "duration": 12, "velocity": 97}, {"time": 1385, "pitch": 54, "duration": 3, "velocity": 93}, {"time": 1385, "pitch": 59, "duration": 4, "velocity": 96}, {"time": 1385, "pitch": 63, "duration": 7, "velocity": 96}, {"time": 1391, "pitch": 59, "duration": 4, "velocity": 87}, {"time": 1394, "pitch": 54, "duration": 2, "velocity": 92}, {"time": 1397, "pitch": 40, "duration": 12, "velocity": 97}, {"time": 1397, "pitch": 52, "duration": 4, "velocity": 92}, {"time": 1397, "pitch": 56, "duration": 5, "velocity": 91}, {"time": 1403, "pitch": 47, "duration": 6, "velocity": 92}, {"time": 1403, "pitch": 52, "duration": 4, "velocity": 82}, {"time": 1406, "pitch": 56, "duration": 2, "velocity": 87}, {"time": 1406, "pitch": 59, "duration": 2, "velocity": 83}, {"time": 1409, "pitch": 40, "duration": 8, "velocity": 93}, {"time": 1409, "pitch": 52, "duration": 1, "velocity": 82}, {"time": 1409, "pitch": 56, "duration": 6, "velocity": 91}, {"time": 1409, "pitch": 59, "duration": 9, "velocity": 91}, {"time": 1409, "pitch": 64, "duration": 11, "velocity": 96}, {"time": 1415, "pitch": 52, "duration": 3, "velocity": 86}, {"time": 1421, "pitch": 47, "duration": 11, "velocity": 95}, {"time": 1421, "pitch": 54, "duration": 2, "velocity": 91}, {"time": 1421, "pitch": 59, "duration": 7, "velocity": 93}, {"time": 1427, "pitch": 54, "duration": 4, "velocity": 92}, {"time": 1430, "pitch": 59, "duration": 2, "velocity": 92}, {"time": 1433, "pitch": 47, "duration": 6, "velocity": 96}, {"time": 1433, "pitch": 54, "duration": 2, "velocity": 92}, {"time": 1433, "pitch": 59, "duration": 8, "velocity": 92}, {"time": 1433, "pitch": 63, "duration": 7, "velocity": 93}, {"time": 1439, "pitch": 54, "duration": 2, "velocity": 78}, {"time": 1445, "pitch": 49, "duration": 11, "velocity": 97}, {"time": 1445, "pitch": 56, "duration": 3, "velocity": 91}, {"time": 1445, "pitch": 61, "duration": 6, "velocity": 91}, {"time": 1451, "pitch": 56, "duration": 4, "velocity": 83}, {"time": 1454, "pitch": 61, "duration": 2, "velocity": 75}, {"time": 1457, "pitch": 49, "duration": 6, "velocity": 92}, {"time": 1457, "pitch": 56, "duration": 4, "velocity": 88}, {"time": 1457, "pitch": 61, "duration": 6, "velocity": 92}, {"time": 1457, "pitch": 64, "duration": 8, "velocity": 91}, {"time": 1463, "pitch": 56, "duration": 4, "velocity": 92}, {"time": 1466, "pitch": 61, "duration": 2, "velocity": 83}, {"time": 1469, "pitch": 47, "duration": 11, "velocity": 93}, {"time": 1469, "pitch": 54, "duration": 3, "velocity": 91}, {"time": 1469, "pitch": 59, "duration": 6, "velocity": 91}, {"time": 1475, "pitch": 54, "duration": 3, "velocity": 88}, {"time": 1478, "pitch": 59, "duration": 2, "velocity": 81}, {"time": 1481, "pitch": 47, "duration": 3, "velocity": 92}, {"time": 1481, "pitch": 54, "duration": 3, "velocity": 91}, {"time": 1481, "pitch": 63, "duration": 4, "velocity": 96}, {"time": 1484, "pitch": 59, "duration": 3, "velocity": 92}, {"time": 1487, "pitch": 54, "duration": 4, "velocity": 92}, {"time": 1493, "pitch": 45, "duration": 11, "velocity": 95}, {"time": 1493, "pitch": 57, "duration": 4, "velocity": 92}, {"time": 1496, "pitch": 52, "duration": 8, "velocity": 89}, {"time": 1499, "pitch": 57, "duration": 4, "velocity": 93}, {"time": 1502, "pitch": 61, "duration": 2, "velocity": 87}, {"time": 1505, "pitch": 45, "duration": 5, "velocity": 92}, {"time": 1505, "pitch": 52, "duration": 8, "velocity": 90}, {"time": 1505, "pitch": 57, "duration": 3, "velocity": 91}, {"time": 1505, "pitch": 61, "duration": 7, "velocity": 91}, {"time": 1505, "pitch": 64, "duration": 10, "velocity": 91}, {"time": 1511, "pitch": 57, "duration": 4, "velocity": 97}, {"time": 1514, "pitch": 61, "duration": 3, "velocity": 83}, {"time": 1517, "pitch": 44, "duration": 20, "velocity": 90}, {"time": 1517, "pitch": 56, "duration": 3, "velocity": 86}, {"time": 1517, "pitch": 59, "duration": 5, "velocity": 93}, {"time": 1520, "pitch": 56, "duration": 3, "velocity": 75}, {"time": 1523, "pitch": 59, "duration": 4, "velocity": 91}, {"time": 1526, "pitch": 56, "duration": 2, "velocity": 82}, {"time": 1529, "pitch": 56, "duration": 3, "velocity": 91}, {"time": 1529, "pitch": 59, "duration": 5, "velocity": 92}, {"time": 1529, "pitch": 64, "duration": 5, "velocity": 92}, {"time": 1535, "pitch": 56, "duration": 4, "velocity": 92}, {"time": 1538, "pitch": 59, "duration": 2, "velocity": 87}, {"time": 1541, "pitch": 42, "duration": 19, "velocity": 92}, {"time": 1541, "pitch": 54, "duration": 4, "velocity": 87}, {"time": 1541, "pitch": 57, "duration": 4, "velocity": 86}, {"time": 1544, "pitch": 49, "duration": 12, "velocity": 88}, {"time": 1547, "pitch": 54, "duration": 4, "velocity": 87}, {"time": 1550, "pitch": 57, "duration": 2, "velocity": 86}, {"time": 1553, "pitch": 54, "duration": 4, "velocity": 102}, {"time": 1553, "pitch": 57, "duration": 4, "velocity": 98}, {"time": 1553, "pitch": 66, "duration": 5, "velocity": 93}, {"time": 1559, "pitch": 49, "duration": 3, "velocity": 91}, {"time": 1559, "pitch": 54, "duration": 1, "velocity": 86}, {"time": 1559, "pitch": 57, "duration": 3, "velocity": 94}, {"time": 1559, "pitch": 61, "duration": 5, "velocity": 94}, {"time": 1562, "pitch": 54, "duration": 2, "velocity": 91}, {"time": 1565, "pitch": 47, "duration": 10, "velocity": 100}, {"time": 1565, "pitch": 54, "duration": 2, "velocity": 93}, {"time": 1565, "pitch": 59, "duration": 4, "velocity": 92}, {"time": 1568, "pitch": 54, "duration": 2, "velocity": 86}, {"time": 1571, "pitch": 59, "duration": 2, "velocity": 81}, {"time": 1574, "pitch": 54, "duration": 2, "velocity": 85}, {"time": 1577, "pitch": 47, "duration": 12, "velocity": 97}, {"time": 1577, "pitch": 54, "duration": 3, "velocity": 93}, {"time": 1577, "pitch": 59, "duration": 4, "velocity": 96}, {"time": 1577, "pitch": 63, "duration": 7, "velocity": 96}, {"time": 1583, "pitch": 59, "duration": 4, "velocity": 87}, {"time": 1586, "pitch": 54, "duration": 2, "velocity": 92}, {"time": 1589, "pitch": 36, "duration": 12, "velocity": 94}, {"time": 1589, "pitch": 60, "duration": 5, "velocity": 90}, {"time": 1589, "pitch": 67, "duration": 5, "velocity": 92}, {"time": 1595, "pitch": 60, "duration": 8, "velocity": 95}, {"time": 1595, "pitch": 67, "duration": 8, "velocity": 93}, {"time": 1604, "pitch": 36, "duration": 1, "velocity": 91}, {"time": 1604, "pitch": 43, "duration": 2, "velocity": 87}, {"time": 1604, "pitch": 60, "duration": 3, "velocity": 92}, {"time": 1604, "pitch": 67, "duration": 3, "velocity": 93}, {"time": 1613, "pitch": 38, "duration": 1, "velocity": 92}, {"time": 1613, "pitch": 45, "duration": 2, "velocity": 92}, {"time": 1613, "pitch": 62, "duration": 2, "velocity": 83}, {"time": 1613, "pitch": 66, "duration": 2, "velocity": 85}, {"time": 1613, "pitch": 69, "duration": 2, "velocity": 87}, {"time": 1616, "pitch": 38, "duration": 2, "velocity": 94}, {"time": 1616, "pitch": 45, "duration": 1, "velocity": 92}, {"time": 1616, "pitch": 62, "duration": 1, "velocity": 83}, {"time": 1616, "pitch": 66, "duration": 2, "velocity": 87}, {"time": 1616, "pitch": 69, "duration": 2, "velocity": 87}, {"time": 1619, "pitch": 38, "duration": 10, "velocity": 102}, {"time": 1619, "pitch": 45, "duration": 8, "velocity": 96}, {"time": 1619, "pitch": 62, "duration": 10, "velocity": 95}, {"time": 1619, "pitch": 66, "duration": 11, "velocity": 95}, {"time": 1619, "pitch": 69, "duration": 12, "velocity": 95}, {"time": 1628, "pitch": 45, "duration": 2, "velocity": 92}, {"time": 1631, "pitch": 62, "duration": 4, "velocity": 94}, {"time": 1634, "pitch": 69, "duration": 3, "velocity": 94}, {"time": 1637, "pitch": 43, "duration": 9, "velocity": 105}, {"time": 1637, "pitch": 55, "duration": 4, "velocity": 88}, {"time": 1637, "pitch": 59, "duration": 6, "velocity": 92}, {"time": 1637, "pitch": 62, "duration": 6, "velocity": 86}, {"time": 1640, "pitch": 50, "duration": 10, "velocity": 89}, {"time": 1643, "pitch": 55, "duration": 5, "velocity": 96}, {"time": 1646, "pitch": 62, "duration": 10, "velocity": 97}, {"time": 1649, "pitch": 42, "duration": 10, "velocity": 96}, {"time": 1652, "pitch": 50, "duration": 6, "velocity": 95}, {"time": 1655, "pitch": 54, "duration": 4, "velocity": 97}, {"time": 1658, "pitch": 62, "duration": 3, "velocity": 91}, {"time": 1661, "pitch": 40, "duration": 19, "velocity": 97}, {"time": 1661, "pitch": 52, "duration": 3, "velocity": 91}, {"time": 1661, "pitch": 55, "duration": 4, "velocity": 100}, {"time": 1664, "pitch": 47, "duration": 7, "velocity": 91}, {"time": 1667, "pitch": 52, "duration": 2, "velocity": 92}, {"time": 1670, "pitch": 52, "duration": 5, "velocity": 92}, {"time": 1670, "pitch": 55, "duration": 5, "velocity": 97}, {"time": 1670, "pitch": 59, "duration": 5, "velocity": 100}, {"time": 1670, "pitch": 64, "duration": 5, "velocity": 92}, {"time": 1673, "pitch": 47, "duration": 5, "velocity": 92}, {"time": 1676, "pitch": 52, "duration": 1, "velocity": 83}, {"time": 1676, "pitch": 55, "duration": 2, "velocity": 97}, {"time": 1676, "pitch": 59, "duration": 2, "velocity": 96}, {"time": 1676, "pitch": 64, "duration": 3, "velocity": 92}, {"time": 1679, "pitch": 47, "duration": 2, "velocity": 92}, {"time": 1682, "pitch": 40, "duration": 1, "velocity": 92}, {"time": 1685, "pitch": 36, "duration": 16, "velocity": 107}, {"time": 1685, "pitch": 60, "duration": 5, "velocity": 91}, {"time": 1685, "pitch": 64, "duration": 6, "velocity": 88}, {"time": 1685, "pitch": 67, "duration": 6, "velocity": 92}, {"time": 1691, "pitch": 43, "duration": 7, "velocity": 78}, {"time": 1697, "pitch": 60, "duration": 4, "velocity": 96}, {"time": 1697, "pitch": 64, "duration": 5, "velocity": 98}, {"time": 1697, "pitch": 67, "duration": 7, "velocity": 98}, {"time": 1697, "pitch": 72, "duration": 6, "velocity": 88}, {"time": 1700, "pitch": 43, "duration": 3, "velocity": 96}, {"time": 1703, "pitch": 60, "duration": 4, "velocity": 100}, {"time": 1706, "pitch": 64, "duration": 1, "velocity": 84}, {"time": 1709, "pitch": 38, "duration": 16, "velocity": 108}, {"time": 1709, "pitch": 62, "duration": 4, "velocity": 92}, {"time": 1709, "pitch": 66, "duration": 4, "velocity": 92}, {"time": 1712, "pitch": 45, "duration": 11, "velocity": 91}, {"time": 1715, "pitch": 62, "duration": 4, "velocity": 92}, {"time": 1721, "pitch": 62, "duration": 4, "velocity": 100}, {"time": 1721, "pitch": 66, "duration": 6, "velocity": 96}, {"time": 1721, "pitch": 69, "duration": 11, "velocity": 98}, {"time": 1724, "pitch": 45, "duration": 3, "velocity": 83}, {"time": 1727, "pitch": 38, "duration": 1, "velocity": 95}, {"time": 1730, "pitch": 62, "duration": 3, "velocity": 94}, {"time": 1733, "pitch": 35, "duration": 2, "velocity": 102}, {"time": 1739, "pitch": 47, "duration": 17, "velocity": 93}, {"time": 1742, "pitch": 54, "duration": 8, "velocity": 89}, {"time": 1745, "pitch": 59, "duration": 2, "velocity": 102}, {"time": 1748, "pitch": 59, "duration": 4, "velocity": 96}, {"time": 1748, "pitch": 66, "duration": 4, "velocity": 94}, {"time": 1751, "pitch": 54, "duration": 5, "velocity": 90}, {"time": 1754, "pitch": 59, "duration": 1, "velocity": 68}, {"time": 1754, "pitch": 63, "duration": 2, "velocity": 91}, {"time": 1757, "pitch": 47, "duration": 11, "velocity": 95}, {"time": 1757, "pitch": 59, "duration": 4, "velocity": 91}, {"time": 1757, "pitch": 63, "duration": 5, "velocity": 95}, {"time": 1757, "pitch": 66, "duration": 5, "velocity": 91}, {"time": 1757, "pitch": 71, "duration": 5, "velocity": 89}, {"time": 1769, "pitch": 47, "duration": 12, "velocity": 97}, {"time": 1769, "pitch": 54, "duration": 2, "velocity": 97}, {"time": 1769, "pitch": 71, "duration": 3, "velocity": 91}, {"time": 1769, "pitch": 75, "duration": 4, "velocity": 95}, {"time": 1769, "pitch": 78, "duration": 4, "velocity": 93}, {"time": 1775, "pitch": 54, "duration": 6, "velocity": 91}, {"time": 1778, "pitch": 71, "duration": 3, "velocity": 93}, {"time": 1781, "pitch": 40, "duration": 12, "velocity": 97}, {"time": 1781, "pitch": 52, "duration": 4, "velocity": 92}, {"time": 1781, "pitch": 56, "duration": 5, "velocity": 91}, {"time": 1787, "pitch": 47, "duration": 6, "velocity": 92}, {"time": 1787, "pitch": 52, "duration": 4, "velocity": 82}, {"time": 1790, "pitch": 56, "duration": 2, "velocity": 87}, {"time": 1790, "pitch": 59, "duration": 2, "velocity": 83}, {"time": 1793, "pitch": 40, "duration": 8, "velocity": 93}, {"time": 1793, "pitch": 52, "duration": 1, "velocity": 82}, {"time": 1793, "pitch": 56, "duration": 6, "velocity": 91}, {"time": 1793, "pitch": 59, "duration": 9, "velocity": 91}, {"time": 1793, "pitch": 64, "duration": 11, "velocity": 96}, {"time": 1799, "pitch": 52, "duration": 3, "velocity": 86}, {"time": 1805, "pitch": 47, "duration": 11, "velocity": 95}, {"time": 1805, "pitch": 54, "duration": 2, "velocity": 91}, {"time": 1805, "pitch": 59, "duration": 7, "velocity": 93}, {"time": 1811, "pitch": 54, "duration": 4, "velocity": 92}, {"time": 1814, "pitch": 59, "duration": 2, "velocity": 92}, {"time": 1817, "pitch": 47, "duration": 6, "velocity": 96}, {"time": 1817, "pitch": 54, "duration": 2, "velocity": 92}, {"time": 1817, "pitch": 59, "duration": 8, "velocity": 92}, {"time": 1817, "pitch": 63, "duration": 7, "velocity": 93}, {"time": 1823, "pitch": 54, "duration": 2, "velocity": 78}, {"time": 1829, "pitch": 49, "duration": 11, "velocity": 97}, {"time": 1829, "pitch": 56, "duration": 3, "velocity": 91}, {"time": 1829, "pitch": 61, "duration": 6, "velocity": 91}, {"time": 1835, "pitch": 56, "duration": 4, "velocity": 83}, {"time": 1838, "pitch": 61, "duration": 2, "velocity": 75}, {"time": 1841, "pitch": 49, "duration": 6, "velocity": 92}, {"time": 1841, "pitch": 56, "duration": 4, "velocity": 88}, {"time": 1841, "pitch": 61, "duration": 6, "velocity": 92}, {"time": 1841, "pitch": 64, "duration": 8, "velocity": 91}, {"time": 1847, "pitch": 56, "duration": 4, "velocity": 92}, {"time": 1850, "pitch": 61, "duration": 2, "velocity": 83}, {"time": 1853, "pitch": 47, "duration": 11, "velocity": 93}, {"time": 1853, "pitch": 54, "duration": 3, "velocity": 91}, {"time": 1853, "pitch": 59, "duration": 6, "velocity": 91}, {"time": 1859, "pitch": 54, "duration": 3, "velocity": 88}, {"time": 1862, "pitch": 59, "duration": 2, "velocity": 81}, {"time": 1865, "pitch": 47, "duration": 3, "velocity": 92}, {"time": 1865, "pitch": 54, "duration": 3, "velocity": 91}, {"time": 1865, "pitch": 63, "duration": 4, "velocity": 96}, {"time": 1868, "pitch": 59, "duration": 3, "velocity": 92}, {"time": 1871, "pitch": 54, "duration": 4, "velocity": 92}, {"time": 1877, "pitch": 45, "duration": 11, "velocity": 95}, {"time": 1877, "pitch": 57, "duration": 4, "velocity": 92}, {"time": 1880, "pitch": 52, "duration": 8, "velocity": 89}, {"time": 1883, "pitch": 57, "duration": 4, "velocity": 93}, {"time": 1886, "pitch": 61, "duration": 2, "velocity": 87}, {"time": 1889, "pitch": 45, "duration": 5, "velocity": 92}, {"time": 1889, "pitch": 52, "duration": 8, "velocity": 90}, {"time": 1889, "pitch": 57, "duration": 3, "velocity": 91}, {"time": 1889, "pitch": 61, "duration": 7, "velocity": 91}, {"time": 1889, "pitch": 64, "duration": 10, "velocity": 91}, {"time": 1895, "pitch": 57, "duration": 4, "velocity": 97}, {"time": 1898, "pitch": 61, "duration": 3, "velocity": 83}, {"time": 1901, "pitch": 44, "duration": 20, "velocity": 90}, {"time": 1901, "pitch": 56, "duration": 3, "velocity": 86}, {"time": 1901, "pitch": 59, "duration": 5, "velocity": 93}, {"time": 1904, "pitch": 56, "duration": 3, "velocity": 75}, {"time": 1907, "pitch": 59, "duration": 4, "velocity": 91}, {"time": 1910, "pitch": 56, "duration": 2, "velocity": 82}, {"time": 1913, "pitch": 56, "duration": 3, "velocity": 91}, {"time": 1913, "pitch": 59, "duration": 5, "velocity": 92}, {"time": 1913, "pitch": 64, "duration": 5, "velocity": 92}, {"time": 1919, "pitch": 56, "duration": 4, "velocity": 92}, {"time": 1922, "pitch": 59, "duration": 2, "velocity": 87}, {"time": 1925, "pitch": 42, "duration": 19, "velocity": 92}, {"time": 1925, "pitch": 54, "duration": 4, "velocity": 87}, {"time": 1925, "pitch": 57, "duration": 4, "velocity": 86}, {"time": 1928, "pitch": 49, "duration": 12, "velocity": 88}, {"time": 1931, "pitch": 54, "duration": 4, "velocity": 87}, {"time": 1934, "pitch": 57, "duration": 2, "velocity": 86}, {"time": 1937, "pitch": 54, "duration": 4, "velocity": 102}, {"time": 1937, "pitch": 57, "duration": 4, "velocity": 98}, {"time": 1937, "pitch": 66, "duration": 5, "velocity": 93}, {"time": 1943, "pitch": 49, "duration": 3, "velocity": 91}, {"time": 1943, "pitch": 54, "duration": 1, "velocity": 86}, {"time": 1943, "pitch": 57, "duration": 3, "velocity": 94}, {"time": 1943, "pitch": 61, "duration": 5, "velocity": 94}, {"time": 1946, "pitch": 54, "duration": 2, "velocity": 91}, {"time": 1949, "pitch": 47, "duration": 10, "velocity": 100}, {"time": 1949, "pitch": 54, "duration": 2, "velocity": 93}, {"time": 1949, "pitch": 59, "duration": 4, "velocity": 92}, {"time": 1952, "pitch": 54, "duration": 2, "velocity": 86}, {"time": 1955, "pitch": 59, "duration": 2, "velocity": 81}, {"time": 1958, "pitch": 54, "duration": 2, "velocity": 85}, {"time": 1961, "pitch": 47, "duration": 12, "velocity": 97}, {"time": 1961, "pitch": 54, "duration": 3, "velocity": 93}, {"time": 1961, "pitch": 59, "duration": 4, "velocity": 96}, {"time": 1961, "pitch": 63, "duration": 7, "velocity": 96}, {"time": 1967, "pitch": 59, "duration": 4, "velocity": 87}, {"time": 1970, "pitch": 54, "duration": 2, "velocity": 92}, {"time": 1973, "pitch": 40, "duration": 12, "velocity": 97}, {"time": 1973, "pitch": 52, "duration": 4, "velocity": 92}, {"time": 1973, "pitch": 56, "duration": 5, "velocity": 91}, {"time": 1979, "pitch": 47, "duration": 6, "velocity": 92}, {"time": 1979, "pitch": 52, "duration": 4, "velocity": 82}, {"time": 1982, "pitch": 56, "duration": 2, "velocity": 87}, {"time": 1982, "pitch": 59, "duration": 2, "velocity": 83}, {"time": 1985, "pitch": 40, "duration": 8, "velocity": 93}, {"time": 1985, "pitch": 52, "duration": 1, "velocity": 82}, {"time": 1985, "pitch": 56, "duration": 6, "velocity": 91}, {"time": 1985, "pitch": 59, "duration": 9, "velocity": 91}, {"time": 1985, "pitch": 64, "duration": 11, "velocity": 96}, {"time": 1991, "pitch": 52, "duration": 3, "velocity": 86}, {"time": 1997, "pitch": 47, "duration": 11, "velocity": 95}, {"time": 1997, "pitch": 54, "duration": 2, "velocity": 91}, {"time": 1997, "pitch": 59, "duration": 7, "velocity": 93}, {"time": 2003, "pitch": 54, "duration": 4, "velocity": 92}, {"time": 2006, "pitch": 59, "duration": 2, "velocity": 92}, {"time": 2009, "pitch": 47, "duration": 6, "velocity": 96}, {"time": 2009, "pitch": 54, "duration": 2, "velocity": 92}, {"time": 2009, "pitch": 59, "duration": 8, "velocity": 92}, {"time": 2009, "pitch": 63, "duration": 7, "velocity": 93}, {"time": 2015, "pitch": 54, "duration": 2, "velocity": 78}, {"time": 2021, "pitch": 49, "duration": 11, "velocity": 97}, {"time": 2021, "pitch": 56, "duration": 3, "velocity": 91}, {"time": 2021, "pitch": 61, "duration": 6, "velocity": 91}, {"time": 2027, "pitch": 56, "duration": 4, "velocity": 83}, {"time": 2030, "pitch": 61, "duration": 2, "velocity": 75}, {"time": 2033, "pitch": 49, "duration": 6, "velocity": 92}, {"time": 2033, "pitch": 56, "duration": 4, "velocity": 88}, {"time": 2033, "pitch": 61, "duration": 6, "velocity": 92}, {"time": 2033, "pitch": 64, "duration": 8, "velocity": 91}, {"time": 2039, "pitch": 56, "duration": 4, "velocity": 92}, {"time": 2042, "pitch": 61, "duration": 2, "velocity": 83}, {"time": 2045, "pitch": 47, "duration": 11, "velocity": 93}, {"time": 2045, "pitch": 54, "duration": 3, "velocity": 91}, {"time": 2045, "pitch": 59, "duration": 6, "velocity": 91}, {"time": 2051, "pitch": 54, "duration": 3, "velocity": 88}, {"time": 2054, "pitch": 59, "duration": 2, "velocity": 81}, {"time": 2057, "pitch": 47, "duration": 3, "velocity": 92}, {"time": 2057, "pitch": 54, "duration": 3, "velocity": 91}, {"time": 2057, "pitch": 63, "duration": 4, "velocity": 96}, {"time": 2060, "pitch": 59, "duration": 3, "velocity": 92}, {"time": 2063, "pitch": 54, "duration": 4, "velocity": 92}, {"time": 2069, "pitch": 45, "duration": 11, "velocity": 95}, {"time": 2069, "pitch": 57, "duration": 4, "velocity": 92}, {"time": 2072, "pitch": 52, "duration": 8, "velocity": 89}, {"time": 2075, "pitch": 57, "duration": 4, "velocity": 93}, {"time": 2078, "pitch": 61, "duration": 2, "velocity": 87}, {"time": 2081, "pitch": 45, "duration": 5, "velocity": 92}, {"time": 2081, "pitch": 52, "duration": 8, "velocity": 90}, {"time": 2081, "pitch": 57, "duration": 3, "velocity": 91}, {"time": 2081, "pitch": 61, "duration": 7, "velocity": 91}, {"time": 2081, "pitch": 64, "duration": 10, "velocity": 91}, {"time": 2087, "pitch": 57, "duration": 4, "velocity": 97}, {"time": 2090, "pitch": 61, "duration": 3, "velocity": 83}, {"time": 2093, "pitch": 44, "duration": 20, "velocity": 90}, {"time": 2093, "pitch": 56, "duration": 3, "velocity": 86}, {"time": 2093, "pitch": 59, "duration": 5, "velocity": 93}, {"time": 2096, "pitch": 56, "duration": 3, "velocity": 75}, {"time": 2099, "pitch": 59, "duration": 4, "velocity": 91}, {"time": 2102, "pitch": 56, "duration": 2, "velocity": 82}, {"time": 2105, "pitch": 56, "duration": 3, "velocity": 91}, {"time": 2105, "pitch": 59, "duration": 5, "velocity": 92}, {"time": 2105, "pitch": 64, "duration": 5, "velocity": 92}, {"time": 2111, "pitch": 56, "duration": 4, "velocity": 92}, {"time": 2114, "pitch": 59, "duration": 2, "velocity": 87}, {"time": 2117, "pitch": 42, "duration": 19, "velocity": 92}, {"time": 2117, "pitch": 54, "duration": 4, "velocity": 87}, {"time": 2117, "pitch": 57, "duration": 4, "velocity": 86}, {"time": 2120, "pitch": 49, "duration": 12, "velocity": 88}, {"time": 2123, "pitch": 54, "duration": 4, "velocity": 87}, {"time": 2126, "pitch": 57, "duration": 2, "velocity": 86}, {"time": 2129, "pitch": 54, "duration": 4, "velocity": 102}, {"time": 2129, "pitch": 57, "duration": 4, "velocity": 98}, {"time": 2129, "pitch": 66, "duration": 5, "velocity": 93}, {"time": 2135, "pitch": 49, "duration": 3, "velocity": 91}, {"time": 2135, "pitch": 54, "duration": 1, "velocity": 86}, {"time": 2135, "pitch": 57, "duration": 3, "velocity": 94}, {"time": 2135, "pitch": 61, "duration": 5, "velocity": 94}, {"time": 2138, "pitch": 54, "duration": 2, "velocity": 91}, {"time": 2141, "pitch": 47, "duration": 10, "velocity": 100}, {"time": 2141, "pitch": 54, "duration": 2, "velocity": 93}, {"time": 2141, "pitch": 59, "duration": 4, "velocity": 92}, {"time": 2144, "pitch": 54, "duration": 2, "velocity": 86}, {"time": 2147, "pitch": 59, "duration": 2, "velocity": 81}, {"time": 2150, "pitch": 54, "duration": 2, "velocity": 85}, {"time": 2153, "pitch": 47, "duration": 12, "velocity": 97}, {"time": 2153, "pitch": 54, "duration": 3, "velocity": 93}, {"time": 2153, "pitch": 59, "duration": 4, "velocity": 96}, {"time": 2153, "pitch": 63, "duration": 7, "velocity": 96}, {"time": 2159, "pitch": 59, "duration": 4, "velocity": 87}, {"time": 2162, "pitch": 54, "duration": 2, "velocity": 92}, {"time": 2165, "pitch": 40, "duration": 22, "velocity": 92}, {"time": 2165, "pitch": 56, "duration": 7, "velocity": 89}, {"time": 2168, "pitch": 47, "duration": 19, "velocity": 80}, {"time": 2171, "pitch": 52, "duration": 2, "velocity": 85}, {"time": 2174, "pitch": 52, "duration": 17, "velocity": 89}, {"time": 2174, "pitch": 59, "duration": 18, "velocity": 86}, {"time": 2189, "pitch": 47, "duration": 18, "velocity": 84}, {"time": 2192, "pitch": 51, "duration": 15, "velocity": 86}, {"time": 2195, "pitch": 54, "duration": 3, "velocity": 91}, {"time": 2198, "pitch": 54, "duration": 11, "velocity": 70}, {"time": 2198, "pitch": 59, "duration": 11, "velocity": 92}, {"time": 2213, "pitch": 45, "duration": 22, "velocity": 93}, {"time": 2216, "pitch": 52, "duration": 22, "velocity": 84}, {"time": 2219, "pitch": 57, "duration": 19, "velocity": 77}, {"time": 2222, "pitch": 64, "duration": 17, "velocity": 84}, {"time": 2237, "pitch": 45, "duration": 19, "velocity": 94}, {"time": 2240, "pitch": 52, "duration": 17, "velocity": 83}, {"time": 2243, "pitch": 57, "duration": 13, "velocity": 88}, {"time": 2246, "pitch": 60, "duration": 10, "velocity": 98}, {"time": 2261, "pitch": 40, "duration": 21, "velocity": 92}, {"time": 2261, "pitch": 56, "duration": 6, "velocity": 85}, {"time": 2264, "pitch": 47, "duration": 19, "velocity": 83}, {"time": 2267, "pitch": 52, "duration": 20, "velocity": 92}, {"time": 2270, "pitch": 56, "duration": 18, "velocity": 93}, {"time": 2270, "pitch": 59, "duration": 18, "velocity": 92}, {"time": 2285, "pitch": 40, "duration": 20, "velocity": 86}, {"time": 2288, "pitch": 47, "duration": 17, "velocity": 80}, {"time": 2291, "pitch": 52, "duration": 18, "velocity": 87}, {"time": 2294, "pitch": 56, "duration": 15, "velocity": 81}, {"time": 2294, "pitch": 59, "duration": 16, "velocity": 81}, {"time": 2300, "pitch": 63, "duration": 12, "velocity": 92}, {"time": 2309, "pitch": 45, "duration": 20, "velocity": 93}, {"time": 2312, "pitch": 52, "duration": 19, "velocity": 80}, {"time": 2315, "pitch": 57, "duration": 2, "velocity": 78}, {"time": 2318, "pitch": 57, "duration": 19, "velocity": 90}, {"time": 2318, "pitch": 64, "duration": 22, "velocity": 90}, {"time": 2333, "pitch": 45, "duration": 21, "velocity": 84}, {"time": 2336, "pitch": 52, "duration": 17, "velocity": 87}, {"time": 2339, "pitch": 57, "duration": 2, "velocity": 93}, {"time": 2342, "pitch": 57, "duration": 15, "velocity": 77}, {"time": 2342, "pitch": 64, "duration": 16, "velocity": 91}, {"time": 2357, "pitch": 40, "duration": 4, "velocity": 91}, {"time": 2360, "pitch": 47, "duration": 3, "velocity": 87}, {"time": 2363, "pitch": 64, "duration": 5, "velocity": 84}, {"time": 2366, "pitch": 52, "duration": 29, "velocity": 78}, {"time": 2366, "pitch": 66, "duration": 6, "velocity": 78}, {"time": 2369, "pitch": 59, "duration": 24, "velocity": 53}, {"time": 2369, "pitch": 68, "duration": 29, "velocity": 71}, {"time": 2372, "pitch": 71, "duration": 27, "velocity": 50}], "annotations": [{"time": 5, "annotation": {"number": 64, "value": 127}, "group": "control_change"}, {"time": 5, "annotation": {"number": 64, "value": 0}, "group": "control_change"}, {"time": 29, "annotation": {"number": 64, "value": 0}, "group": "control_change"}, {"time": 31, "annotation": {"number": 64, "value": 127}, "group": "control_change"}, {"time": 52, "annotation": {"number": 64, "value": 0}, "group": "control_change"}, {"time": 54, "annotation": {"number": 64, "value": 127}, "group": "control_change"}, {"time": 76, "annotation": {"number": 64, "value": 0}, "group": "control_change"}, {"time": 78, "annotation": {"number": 64, "value": 127}, "group": "control_change"}, {"time": 100, "annotation": {"number": 64, "value": 0}, "group": "control_change"}, {"time": 103, "annotation": {"number": 64, "value": 127}, "group": "control_change"}, {"time": 125, "annotation": {"number": 64, "value": 0}, "group": "control_change"}, {"time": 127, "annotation": {"number": 64, "value": 127}, "group": "control_change"}, {"time": 148, "annotation": {"number": 64, "value": 0}, "group": "control_change"}, {"time": 151, "annotation": {"number": 64, "value": 127}, "group": "control_change"}, {"time": 173, "annotation": {"number": 64, "value": 0}, "group": "control_change"}, {"time": 176, "annotation": {"number": 64, "value": 127}, "group": "control_change"}, {"time": 195, "annotation": {"number": 64, "value": 0}, "group": "control_change"}, {"time": 199, "annotation": {"number": 64, "value": 127}, "group": "control_change"}, {"time": 222, "annotation": {"number": 64, "value": 0}, "group": "control_change"}, {"time": 224, "annotation": {"number": 64, "value": 127}, "group": "control_change"}, {"time": 245, "annotation": {"number": 64, "value": 0}, "group": "control_change"}, {"time": 247, "annotation": {"number": 64, "value": 127}, "group": "control_change"}, {"time": 269, "annotation": {"number": 64, "value": 0}, "group": "control_change"}, {"time": 272, "annotation": {"number": 64, "value": 127}, "group": "control_change"}, {"time": 293, "annotation": {"number": 64, "value": 0}, "group": "control_change"}, {"time": 295, "annotation": {"number": 64, "value": 127}, "group": "control_change"}, {"time": 317, "annotation": {"number": 64, "value": 0}, "group": "control_change"}, {"time": 318, "annotation": {"number": 64, "value": 127}, "group": "control_change"}, {"time": 329, "annotation": {"number": 64, "value": 0}, "group": "control_change"}, {"time": 331, "annotation": {"number": 64, "value": 127}, "group": "control_change"}, {"time": 341, "annotation": {"number": 64, "value": 0}, "group": "control_change"}, {"time": 344, "annotation": {"number": 64, "value": 127}, "group": "control_change"}, {"time": 364, "annotation": {"number": 64, "value": 0}, "group": "control_change"}, {"time": 367, "annotation": {"number": 64, "value": 127}, "group": "control_change"}, {"time": 388, "annotation": {"number": 64, "value": 0}, "group": "control_change"}, {"time": 391, "annotation": {"number": 64, "value": 127}, "group": "control_change"}, {"time": 413, "annotation": {"number": 64, "value": 0}, "group": "control_change"}, {"time": 415, "annotation": {"number": 64, "value": 127}, "group": "control_change"}, {"time": 436, "annotation": {"number": 64, "value": 0}, "group": "control_change"}, {"time": 438, "annotation": {"number": 64, "value": 127}, "group": "control_change"}, {"time": 460, "annotation": {"number": 64, "value": 0}, "group": "control_change"}, {"time": 462, "annotation": {"number": 64, "value": 127}, "group": "control_change"}, {"time": 485, "annotation": {"number": 64, "value": 0}, "group": "control_change"}, {"time": 486, "annotation": {"number": 64, "value": 127}, "group": "control_change"}, {"time": 509, "annotation": {"number": 64, "value": 0}, "group": "control_change"}, {"time": 510, "annotation": {"number": 64, "value": 127}, "group": "control_change"}, {"time": 532, "annotation": {"number": 64, "value": 0}, "group": "control_change"}, {"time": 534, "annotation": {"number": 64, "value": 127}, "group": "control_change"}, {"time": 556, "annotation": {"number": 64, "value": 0}, "group": "control_change"}, {"time": 558, "annotation": {"number": 64, "value": 127}, "group": "control_change"}, {"time": 578, "annotation": {"number": 64, "value": 0}, "group": "control_change"}, {"time": 584, "annotation": {"number": 64, "value": 127}, "group": "control_change"}, {"time": 605, "annotation": {"number": 64, "value": 0}, "group": "control_change"}, {"time": 606, "annotation": {"number": 64, "value": 127}, "group": "control_change"}, {"time": 616, "annotation": {"number": 64, "value": 0}, "group": "control_change"}, {"time": 618, "annotation": {"number": 64, "value": 127}, "group": "control_change"}, {"time": 628, "annotation": {"number": 64, "value": 0}, "group": "control_change"}, {"time": 630, "annotation": {"number": 64, "value": 127}, "group": "control_change"}, {"time": 652, "annotation": {"number": 64, "value": 0}, "group": "control_change"}, {"time": 653, "annotation": {"number": 64, "value": 127}, "group": "control_change"}, {"time": 676, "annotation": {"number": 64, "value": 0}, "group": "control_change"}, {"time": 678, "annotation": {"number": 64, "value": 127}, "group": "control_change"}, {"time": 701, "annotation": {"number": 64, "value": 0}, "group": "control_change"}, {"time": 703, "annotation": {"number": 64, "value": 127}, "group": "control_change"}, {"time": 724, "annotation": {"number": 64, "value": 0}, "group": "control_change"}, {"time": 726, "annotation": {"number": 64, "value": 127}, "group": "control_change"}, {"time": 747, "annotation": {"number": 64, "value": 0}, "group": "control_change"}, {"time": 749, "annotation": {"number": 64, "value": 127}, "group": "control_change"}, {"time": 771, "annotation": {"number": 64, "value": 0}, "group": "control_change"}, {"time": 776, "annotation": {"number": 64, "value": 127}, "group": "control_change"}, {"time": 797, "annotation": {"number": 64, "value": 0}, "group": "control_change"}, {"time": 798, "annotation": {"number": 64, "value": 127}, "group": "control_change"}, {"time": 808, "annotation": {"number": 64, "value": 0}, "group": "control_change"}, {"time": 810, "annotation": {"number": 64, "value": 127}, "group": "control_change"}, {"time": 820, "annotation": {"number": 64, "value": 0}, "group": "control_change"}, {"time": 822, "annotation": {"number": 64, "value": 127}, "group": "control_change"}, {"time": 844, "annotation": {"number": 64, "value": 0}, "group": "control_change"}, {"time": 845, "annotation": {"number": 64, "value": 127}, "group": "control_change"}, {"time": 868, "annotation": {"number": 64, "value": 0}, "group": "control_change"}, {"time": 870, "annotation": {"number": 64, "value": 127}, "group": "control_change"}, {"time": 893, "annotation": {"number": 64, "value": 0}, "group": "control_change"}, {"time": 895, "annotation": {"number": 64, "value": 127}, "group": "control_change"}, {"time": 916, "annotation": {"number": 64, "value": 0}, "group": "control_change"}, {"time": 918, "annotation": {"number": 64, "value": 127}, "group": "control_change"}, {"time": 939, "annotation": {"number": 64, "value": 0}, "group": "control_change"}, {"time": 941, "annotation": {"number": 64, "value": 127}, "group": "control_change"}, {"time": 963, "annotation": {"number": 64, "value": 0}, "group": "control_change"}, {"time": 988, "annotation": {"number": 64, "value": 127}, "group": "control_change"}, {"time": 1009, "annotation": {"number": 64, "value": 0}, "group": "control_change"}, {"time": 1015, "annotation": {"number": 64, "value": 127}, "group": "control_change"}, {"time": 1037, "annotation": {"number": 64, "value": 0}, "group": "control_change"}, {"time": 1039, "annotation": {"number": 64, "value": 127}, "group": "control_change"}, {"time": 1060, "annotation": {"number": 64, "value": 0}, "group": "control_change"}, {"time": 1062, "annotation": {"number": 64, "value": 127}, "group": "control_change"}, {"time": 1084, "annotation": {"number": 64, "value": 0}, "group": "control_change"}, {"time": 1086, "annotation": {"number": 64, "value": 127}, "group": "control_change"}, {"time": 1109, "annotation": {"number": 64, "value": 0}, "group": "control_change"}, {"time": 1110, "annotation": {"number": 64, "value": 127}, "group": "control_change"}, {"time": 1133, "annotation": {"number": 64, "value": 0}, "group": "control_change"}, {"time": 1134, "annotation": {"number": 64, "value": 127}, "group": "control_change"}, {"time": 1156, "annotation": {"number": 64, "value": 0}, "group": "control_change"}, {"time": 1158, "annotation": {"number": 64, "value": 127}, "group": "control_change"}, {"time": 1180, "annotation": {"number": 64, "value": 0}, "group": "control_change"}, {"time": 1182, "annotation": {"number": 64, "value": 127}, "group": "control_change"}, {"time": 1202, "annotation": {"number": 64, "value": 0}, "group": "control_change"}, {"time": 1208, "annotation": {"number": 64, "value": 127}, "group": "control_change"}, {"time": 1229, "annotation": {"number": 64, "value": 0}, "group": "control_change"}, {"time": 1230, "annotation": {"number": 64, "value": 127}, "group": "control_change"}, {"time": 1240, "annotation": {"number": 64, "value": 0}, "group": "control_change"}, {"time": 1242, "annotation": {"number": 64, "value": 127}, "group": "control_change"}, {"time": 1252, "annotation": {"number": 64, "value": 0}, "group": "control_change"}, {"time": 1254, "annotation": {"number": 64, "value": 127}, "group": "control_change"}, {"time": 1276, "annotation": {"number": 64, "value": 0}, "group": "control_change"}, {"time": 1277, "annotation": {"number": 64, "value": 127}, "group": "control_change"}, {"time": 1300, "annotation": {"number": 64, "value": 0}, "group": "control_change"}, {"time": 1302, "annotation": {"number": 64, "value": 127}, "group": "control_change"}, {"time": 1325, "annotation": {"number": 64, "value": 0}, "group": "control_change"}, {"time": 1327, "annotation": {"number": 64, "value": 127}, "group": "control_change"}, {"time": 1348, "annotation": {"number": 64, "value": 0}, "group": "control_change"}, {"time": 1350, "annotation": {"number": 64, "value": 127}, "group": "control_change"}, {"time": 1371, "annotation": {"number": 64, "value": 0}, "group": "control_change"}, {"time": 1373, "annotation": {"number": 64, "value": 127}, "group": "control_change"}, {"time": 1395, "annotation": {"number": 64, "value": 0}, "group": "control_change"}, {"time": 1400, "annotation": {"number": 64, "value": 127}, "group": "control_change"}, {"time": 1421, "annotation": {"number": 64, "value": 0}, "group": "control_change"}, {"time": 1422, "annotation": {"number": 64, "value": 127}, "group": "control_change"}, {"time": 1432, "annotation": {"number": 64, "value": 0}, "group": "control_change"}, {"time": 1434, "annotation": {"number": 64, "value": 127}, "group": "control_change"}, {"time": 1444, "annotation": {"number": 64, "value": 0}, "group": "control_change"}, {"time": 1446, "annotation": {"number": 64, "value": 127}, "group": "control_change"}, {"time": 1468, "annotation": {"number": 64, "value": 0}, "group": "control_change"}, {"time": 1469, "annotation": {"number": 64, "value": 127}, "group": "control_change"}, {"time": 1492, "annotation": {"number": 64, "value": 0}, "group": "control_change"}, {"time": 1494, "annotation": {"number": 64, "value": 127}, "group": "control_change"}, {"time": 1517, "annotation": {"number": 64, "value": 0}, "group": "control_change"}, {"time": 1519, "annotation": {"number": 64, "value": 127}, "group": "control_change"}, {"time": 1540, "annotation": {"number": 64, "value": 0}, "group": "control_change"}, {"time": 1542, "annotation": {"number": 64, "value": 127}, "group": "control_change"}, {"time": 1563, "annotation": {"number": 64, "value": 0}, "group": "control_change"}, {"time": 1565, "annotation": {"number": 64, "value": 127}, "group": "control_change"}, {"time": 1587, "annotation": {"number": 64, "value": 0}, "group": "control_change"}, {"time": 1612, "annotation": {"number": 64, "value": 0}, "group": "control_change"}, {"time": 1625, "annotation": {"number": 64, "value": 127}, "group": "control_change"}, {"time": 1635, "annotation": {"number": 64, "value": 0}, "group": "control_change"}, {"time": 1639, "annotation": {"number": 64, "value": 127}, "group": "control_change"}, {"time": 1648, "annotation": {"number": 64, "value": 0}, "group": "control_change"}, {"time": 1652, "annotation": {"number": 64, "value": 127}, "group": "control_change"}, {"time": 1659, "annotation": {"number": 64, "value": 0}, "group": "control_change"}, {"time": 1662, "annotation": {"number": 64, "value": 127}, "group": "control_change"}, {"time": 1684, "annotation": {"number": 64, "value": 0}, "group": "control_change"}, {"time": 1686, "annotation": {"number": 64, "value": 127}, "group": "control_change"}, {"time": 1708, "annotation": {"number": 64, "value": 0}, "group": "control_change"}, {"time": 1711, "annotation": {"number": 64, "value": 127}, "group": "control_change"}, {"time": 1732, "annotation": {"number": 64, "value": 0}, "group": "control_change"}, {"time": 1734, "annotation": {"number": 64, "value": 127}, "group": "control_change"}, {"time": 1756, "annotation": {"number": 64, "value": 0}, "group": "control_change"}, {"time": 1757, "annotation": {"number": 64, "value": 127}, "group": "control_change"}, {"time": 1781, "annotation": {"number": 64, "value": 0}, "group": "control_change"}, {"time": 1784, "annotation": {"number": 64, "value": 127}, "group": "control_change"}, {"time": 1805, "annotation": {"number": 64, "value": 0}, "group": "control_change"}, {"time": 1806, "annotation": {"number": 64, "value": 127}, "group": "control_change"}, {"time": 1816, "annotation": {"number": 64, "value": 0}, "group": "control_change"}, {"time": 1818, "annotation": {"number": 64, "value": 127}, "group": "control_change"}, {"time": 1828, "annotation": {"number": 64, "value": 0}, "group": "control_change"}, {"time": 1830, "annotation": {"number": 64, "value": 127}, "group": "control_change"}, {"time": 1852, "annotation": {"number": 64, "value": 0}, "group": "control_change"}, {"time": 1853, "annotation": {"number": 64, "value": 127}, "group": "control_change"}, {"time": 1876, "annotation": {"number": 64, "value": 0}, "group": "control_change"}, {"time": 1878, "annotation": {"number": 64, "value": 127}, "group": "control_change"}, {"time": 1901, "annotation": {"number": 64, "value": 0}, "group": "control_change"}, {"time": 1903, "annotation": {"number": 64, "value": 127}, "group": "control_change"}, {"time": 1924, "annotation": {"number": 64, "value": 0}, "group": "control_change"}, {"time": 1926, "annotation": {"number": 64, "value": 127}, "group": "control_change"}, {"time": 1947, "annotation": {"number": 64, "value": 0}, "group": "control_change"}, {"time": 1949, "annotation": {"number": 64, "value": 127}, "group": "control_change"}, {"time": 1971, "annotation": {"number": 64, "value": 0}, "group": "control_change"}, {"time": 1976, "annotation": {"number": 64, "value": 127}, "group": "control_change"}, {"time": 1997, "annotation": {"number": 64, "value": 0}, "group": "control_change"}, {"time": 1998, "annotation": {"number": 64, "value": 127}, "group": "control_change"}, {"time": 2008, "annotation": {"number": 64, "value": 0}, "group": "control_change"}, {"time": 2010, "annotation": {"number": 64, "value": 127}, "group": "control_change"}, {"time": 2020, "annotation": {"number": 64, "value": 0}, "group": "control_change"}, {"time": 2022, "annotation": {"number": 64, "value": 127}, "group": "control_change"}, {"time": 2044, "annotation": {"number": 64, "value": 0}, "group": "control_change"}, {"time": 2045, "annotation": {"number": 64, "value": 127}, "group": "control_change"}, {"time": 2068, "annotation": {"number": 64, "value": 0}, "group": "control_change"}, {"time": 2070, "annotation": {"number": 64, "value": 127}, "group": "control_change"}, {"time": 2093, "annotation": {"number": 64, "value": 0}, "group": "control_change"}, {"time": 2095, "annotation": {"number": 64, "value": 127}, "group": "control_change"}, {"time": 2116, "annotation": {"number": 64, "value": 0}, "group": "control_change"}, {"time": 2118, "annotation": {"number": 64, "value": 127}, "group": "control_change"}, {"time": 2139, "annotation": {"number": 64, "value": 0}, "group": "control_change"}, {"time": 2141, "annotation": {"number": 64, "value": 127}, "group": "control_change"}, {"time": 2163, "annotation": {"number": 64, "value": 0}, "group": "control_change"}, {"time": 2189, "annotation": {"number": 64, "value": 0}, "group": "control_change"}, {"time": 2191, "annotation": {"number": 64, "value": 127}, "group": "control_change"}, {"time": 2212, "annotation": {"number": 64, "value": 0}, "group": "control_change"}, {"time": 2214, "annotation": {"number": 64, "value": 127}, "group": "control_change"}, {"time": 2236, "annotation": {"number": 64, "value": 0}, "group": "control_change"}, {"time": 2238, "annotation": {"number": 64, "value": 127}, "group": "control_change"}, {"time": 2260, "annotation": {"number": 64, "value": 0}, "group": "control_change"}, {"time": 2263, "annotation": {"number": 64, "value": 127}, "group": "control_change"}, {"time": 2285, "annotation": {"number": 64, "value": 0}, "group": "control_change"}, {"time": 2287, "annotation": {"number": 64, "value": 127}, "group": "control_change"}, {"time": 2308, "annotation": {"number": 64, "value": 0}, "group": "control_change"}, {"time": 2311, "annotation": {"number": 64, "value": 127}, "group": "control_change"}, {"time": 2333, "annotation": {"number": 64, "value": 0}, "group": "control_change"}, {"time": 2336, "annotation": {"number": 64, "value": 127}, "group": "control_change"}, {"time": 2355, "annotation": {"number": 64, "value": 0}, "group": "control_change"}, {"time": 2358, "annotation": {"number": 64, "value": 127}, "group": "control_change"}, {"time": 2433, "annotation": {"number": 64, "value": 0}, "group": "control_change"}]}]}