{"metadata": {"schema_version": "0.2", "title": "None", "source_filename": "434.mid", "source_format": "midi"}, "resolution": 12, "tempos": [{"time": 0, "qpm": 64.50010803768096}, {"time": 529, "qpm": 64.0}, {"time": 552, "qpm": 63.50005979588964}, {"time": 576, "qpm": 63.25004005835871}, {"time": 636, "qpm": 64.0}, {"time": 2735, "qpm": 62.75001960938113}, {"time": 2748, "qpm": 62.00005993339127}, {"time": 2760, "qpm": 61.250114843965335}, {"time": 2784, "qpm": 64.0}], "time_signatures": [{"time": 0, "numerator": 1, "denominator": 4}], "tracks": [{"program": 4, "is_drum": false, "name": "MELODY", "notes": [{"time": 564, "pitch": 61, "duration": 2, "velocity": 95}, {"time": 567, "pitch": 61, "duration": 2, "velocity": 95}, {"time": 570, "pitch": 70, "duration": 9, "velocity": 93}, {"time": 582, "pitch": 68, "duration": 4, "velocity": 96}, {"time": 588, "pitch": 66, "duration": 4, "velocity": 94}, {"time": 594, "pitch": 68, "duration": 13, "velocity": 90}, {"time": 609, "pitch": 68, "duration": 2, "velocity": 93}, {"time": 612, "pitch": 65, "duration": 2, "velocity": 100}, {"time": 615, "pitch": 66, "duration": 1, "velocity": 92}, {"time": 618, "pitch": 68, "duration": 10, "velocity": 95}, {"time": 630, "pitch": 65, "duration": 5, "velocity": 98}, {"time": 636, "pitch": 68, "duration": 5, "velocity": 95}, {"time": 642, "pitch": 66, "duration": 13, "velocity": 92}, {"time": 660, "pitch": 66, "duration": 2, "velocity": 97}, {"time": 663, "pitch": 65, "duration": 1, "velocity": 97}, {"time": 666, "pitch": 63, "duration": 5, "velocity": 95}, {"time": 672, "pitch": 65, "duration": 3, "velocity": 97}, {"time": 678, "pitch": 66, "duration": 4, "velocity": 95}, {"time": 684, "pitch": 70, "duration": 2, "velocity": 91}, {"time": 687, "pitch": 66, "duration": 3, "velocity": 96}, {"time": 690, "pitch": 61, "duration": 11, "velocity": 96}, {"time": 708, "pitch": 59, "duration": 5, "velocity": 95}, {"time": 714, "pitch": 58, "duration": 23, "velocity": 90}, {"time": 768, "pitch": 63, "duration": 2, "velocity": 93}, {"time": 771, "pitch": 65, "duration": 2, "velocity": 97}, {"time": 774, "pitch": 66, "duration": 4, "velocity": 97}, {"time": 780, "pitch": 68, "duration": 2, "velocity": 90}, {"time": 783, "pitch": 65, "duration": 5, "velocity": 96}, {"time": 789, "pitch": 66, "duration": 15, "velocity": 95}, {"time": 816, "pitch": 68, "duration": 2, "velocity": 89}, {"time": 819, "pitch": 70, "duration": 2, "velocity": 96}, {"time": 822, "pitch": 71, "duration": 4, "velocity": 96}, {"time": 828, "pitch": 71, "duration": 4, "velocity": 98}, {"time": 834, "pitch": 70, "duration": 14, "velocity": 95}, {"time": 852, "pitch": 66, "duration": 1, "velocity": 96}, {"time": 855, "pitch": 68, "duration": 2, "velocity": 89}, {"time": 858, "pitch": 70, "duration": 4, "velocity": 96}, {"time": 864, "pitch": 70, "duration": 8, "velocity": 97}, {"time": 876, "pitch": 70, "duration": 1, "velocity": 97}, {"time": 879, "pitch": 70, "duration": 1, "velocity": 97}, {"time": 882, "pitch": 63, "duration": 4, "velocity": 96}, {"time": 888, "pitch": 66, "duration": 4, "velocity": 97}, {"time": 894, "pitch": 63, "duration": 4, "velocity": 93}, {"time": 900, "pitch": 66, "duration": 4, "velocity": 93}, {"time": 906, "pitch": 70, "duration": 2, "velocity": 92}, {"time": 909, "pitch": 65, "duration": 2, "velocity": 92}, {"time": 912, "pitch": 65, "duration": 23, "velocity": 95}, {"time": 948, "pitch": 58, "duration": 2, "velocity": 94}, {"time": 951, "pitch": 61, "duration": 2, "velocity": 96}, {"time": 954, "pitch": 70, "duration": 10, "velocity": 97}, {"time": 966, "pitch": 68, "duration": 5, "velocity": 96}, {"time": 972, "pitch": 66, "duration": 2, "velocity": 92}, {"time": 975, "pitch": 68, "duration": 16, "velocity": 96}, {"time": 993, "pitch": 68, "duration": 2, "velocity": 94}, {"time": 996, "pitch": 65, "duration": 1, "velocity": 96}, {"time": 999, "pitch": 66, "duration": 2, "velocity": 94}, {"time": 1002, "pitch": 68, "duration": 10, "velocity": 94}, {"time": 1014, "pitch": 65, "duration": 5, "velocity": 96}, {"time": 1020, "pitch": 68, "duration": 5, "velocity": 91}, {"time": 1026, "pitch": 66, "duration": 12, "velocity": 90}, {"time": 1041, "pitch": 66, "duration": 1, "velocity": 95}, {"time": 1044, "pitch": 66, "duration": 2, "velocity": 97}, {"time": 1047, "pitch": 65, "duration": 2, "velocity": 97}, {"time": 1050, "pitch": 63, "duration": 4, "velocity": 96}, {"time": 1056, "pitch": 65, "duration": 4, "velocity": 97}, {"time": 1062, "pitch": 66, "duration": 5, "velocity": 99}, {"time": 1068, "pitch": 70, "duration": 2, "velocity": 95}, {"time": 1071, "pitch": 66, "duration": 4, "velocity": 96}, {"time": 1077, "pitch": 61, "duration": 9, "velocity": 96}, {"time": 1092, "pitch": 59, "duration": 5, "velocity": 95}, {"time": 1098, "pitch": 58, "duration": 24, "velocity": 93}, {"time": 1152, "pitch": 63, "duration": 2, "velocity": 89}, {"time": 1155, "pitch": 65, "duration": 2, "velocity": 96}, {"time": 1158, "pitch": 66, "duration": 4, "velocity": 96}, {"time": 1164, "pitch": 68, "duration": 2, "velocity": 91}, {"time": 1167, "pitch": 65, "duration": 4, "velocity": 96}, {"time": 1173, "pitch": 66, "duration": 19, "velocity": 95}, {"time": 1200, "pitch": 68, "duration": 2, "velocity": 93}, {"time": 1203, "pitch": 70, "duration": 2, "velocity": 94}, {"time": 1206, "pitch": 71, "duration": 4, "velocity": 96}, {"time": 1212, "pitch": 71, "duration": 5, "velocity": 97}, {"time": 1218, "pitch": 70, "duration": 13, "velocity": 96}, {"time": 1236, "pitch": 66, "duration": 2, "velocity": 91}, {"time": 1239, "pitch": 68, "duration": 2, "velocity": 93}, {"time": 1242, "pitch": 70, "duration": 4, "velocity": 97}, {"time": 1248, "pitch": 70, "duration": 8, "velocity": 96}, {"time": 1260, "pitch": 70, "duration": 1, "velocity": 96}, {"time": 1263, "pitch": 70, "duration": 1, "velocity": 95}, {"time": 1266, "pitch": 63, "duration": 5, "velocity": 95}, {"time": 1272, "pitch": 66, "duration": 5, "velocity": 94}, {"time": 1278, "pitch": 68, "duration": 4, "velocity": 91}, {"time": 1284, "pitch": 66, "duration": 4, "velocity": 96}, {"time": 1290, "pitch": 65, "duration": 4, "velocity": 95}, {"time": 1296, "pitch": 66, "duration": 30, "velocity": 96}, {"time": 1335, "pitch": 61, "duration": 2, "velocity": 96}, {"time": 1338, "pitch": 61, "duration": 5, "velocity": 97}, {"time": 1344, "pitch": 73, "duration": 4, "velocity": 96}, {"time": 1350, "pitch": 71, "duration": 5, "velocity": 95}, {"time": 1356, "pitch": 70, "duration": 4, "velocity": 97}, {"time": 1362, "pitch": 68, "duration": 6, "velocity": 91}, {"time": 1371, "pitch": 70, "duration": 2, "velocity": 95}, {"time": 1374, "pitch": 71, "duration": 6, "velocity": 96}, {"time": 1380, "pitch": 70, "duration": 12, "velocity": 97}, {"time": 1398, "pitch": 68, "duration": 5, "velocity": 91}, {"time": 1404, "pitch": 71, "duration": 5, "velocity": 99}, {"time": 1410, "pitch": 70, "duration": 13, "velocity": 97}, {"time": 1431, "pitch": 66, "duration": 3, "velocity": 95}, {"time": 1434, "pitch": 75, "duration": 7, "velocity": 101}, {"time": 1443, "pitch": 73, "duration": 2, "velocity": 96}, {"time": 1446, "pitch": 71, "duration": 5, "velocity": 93}, {"time": 1452, "pitch": 73, "duration": 7, "velocity": 96}, {"time": 1461, "pitch": 66, "duration": 1, "velocity": 92}, {"time": 1464, "pitch": 66, "duration": 2, "velocity": 95}, {"time": 1467, "pitch": 73, "duration": 2, "velocity": 95}, {"time": 1470, "pitch": 68, "duration": 4, "velocity": 89}, {"time": 1476, "pitch": 66, "duration": 6, "velocity": 95}, {"time": 1485, "pitch": 63, "duration": 1, "velocity": 95}, {"time": 1488, "pitch": 63, "duration": 2, "velocity": 96}, {"time": 1491, "pitch": 65, "duration": 2, "velocity": 97}, {"time": 1494, "pitch": 66, "duration": 5, "velocity": 97}, {"time": 1500, "pitch": 70, "duration": 4, "velocity": 95}, {"time": 1506, "pitch": 68, "duration": 18, "velocity": 93}, {"time": 1527, "pitch": 61, "duration": 2, "velocity": 91}, {"time": 1530, "pitch": 61, "duration": 7, "velocity": 96}, {"time": 1539, "pitch": 73, "duration": 2, "velocity": 96}, {"time": 1542, "pitch": 71, "duration": 5, "velocity": 98}, {"time": 1548, "pitch": 70, "duration": 6, "velocity": 97}, {"time": 1554, "pitch": 68, "duration": 9, "velocity": 95}, {"time": 1563, "pitch": 70, "duration": 3, "velocity": 90}, {"time": 1566, "pitch": 71, "duration": 6, "velocity": 96}, {"time": 1572, "pitch": 70, "duration": 10, "velocity": 93}, {"time": 1590, "pitch": 68, "duration": 5, "velocity": 95}, {"time": 1596, "pitch": 71, "duration": 6, "velocity": 95}, {"time": 1602, "pitch": 70, "duration": 14, "velocity": 95}, {"time": 1623, "pitch": 66, "duration": 3, "velocity": 91}, {"time": 1626, "pitch": 75, "duration": 7, "velocity": 106}, {"time": 1635, "pitch": 73, "duration": 2, "velocity": 97}, {"time": 1638, "pitch": 71, "duration": 4, "velocity": 99}, {"time": 1644, "pitch": 73, "duration": 7, "velocity": 98}, {"time": 1653, "pitch": 66, "duration": 1, "velocity": 93}, {"time": 1656, "pitch": 66, "duration": 2, "velocity": 95}, {"time": 1659, "pitch": 73, "duration": 2, "velocity": 97}, {"time": 1662, "pitch": 68, "duration": 4, "velocity": 91}, {"time": 1668, "pitch": 66, "duration": 4, "velocity": 96}, {"time": 1674, "pitch": 66, "duration": 14, "velocity": 96}, {"time": 1692, "pitch": 63, "duration": 2, "velocity": 95}, {"time": 1695, "pitch": 65, "duration": 1, "velocity": 97}, {"time": 1698, "pitch": 66, "duration": 13, "velocity": 95}, {"time": 1716, "pitch": 68, "duration": 9, "velocity": 94}, {"time": 1728, "pitch": 66, "duration": 39, "velocity": 97}, {"time": 1959, "pitch": 61, "duration": 2, "velocity": 96}, {"time": 1962, "pitch": 61, "duration": 5, "velocity": 97}, {"time": 1968, "pitch": 73, "duration": 4, "velocity": 96}, {"time": 1974, "pitch": 71, "duration": 5, "velocity": 95}, {"time": 1980, "pitch": 70, "duration": 4, "velocity": 97}, {"time": 1986, "pitch": 68, "duration": 6, "velocity": 91}, {"time": 1995, "pitch": 70, "duration": 2, "velocity": 95}, {"time": 1998, "pitch": 71, "duration": 6, "velocity": 96}, {"time": 2004, "pitch": 70, "duration": 12, "velocity": 97}, {"time": 2022, "pitch": 68, "duration": 5, "velocity": 91}, {"time": 2028, "pitch": 71, "duration": 5, "velocity": 99}, {"time": 2034, "pitch": 70, "duration": 13, "velocity": 97}, {"time": 2055, "pitch": 66, "duration": 3, "velocity": 95}, {"time": 2058, "pitch": 75, "duration": 7, "velocity": 101}, {"time": 2067, "pitch": 73, "duration": 2, "velocity": 96}, {"time": 2070, "pitch": 71, "duration": 5, "velocity": 93}, {"time": 2076, "pitch": 73, "duration": 7, "velocity": 96}, {"time": 2085, "pitch": 66, "duration": 1, "velocity": 92}, {"time": 2088, "pitch": 66, "duration": 2, "velocity": 95}, {"time": 2091, "pitch": 73, "duration": 2, "velocity": 95}, {"time": 2094, "pitch": 68, "duration": 4, "velocity": 89}, {"time": 2100, "pitch": 66, "duration": 6, "velocity": 95}, {"time": 2109, "pitch": 63, "duration": 1, "velocity": 95}, {"time": 2112, "pitch": 63, "duration": 2, "velocity": 96}, {"time": 2115, "pitch": 65, "duration": 2, "velocity": 97}, {"time": 2118, "pitch": 66, "duration": 5, "velocity": 97}, {"time": 2124, "pitch": 70, "duration": 4, "velocity": 95}, {"time": 2130, "pitch": 68, "duration": 18, "velocity": 93}, {"time": 2151, "pitch": 61, "duration": 2, "velocity": 91}, {"time": 2154, "pitch": 61, "duration": 7, "velocity": 96}, {"time": 2163, "pitch": 73, "duration": 2, "velocity": 96}, {"time": 2166, "pitch": 71, "duration": 5, "velocity": 98}, {"time": 2172, "pitch": 70, "duration": 6, "velocity": 97}, {"time": 2178, "pitch": 68, "duration": 9, "velocity": 95}, {"time": 2187, "pitch": 70, "duration": 3, "velocity": 90}, {"time": 2190, "pitch": 71, "duration": 6, "velocity": 96}, {"time": 2196, "pitch": 70, "duration": 10, "velocity": 93}, {"time": 2214, "pitch": 68, "duration": 5, "velocity": 95}, {"time": 2220, "pitch": 71, "duration": 6, "velocity": 95}, {"time": 2226, "pitch": 70, "duration": 14, "velocity": 95}, {"time": 2247, "pitch": 66, "duration": 3, "velocity": 91}, {"time": 2250, "pitch": 75, "duration": 7, "velocity": 106}, {"time": 2259, "pitch": 73, "duration": 2, "velocity": 97}, {"time": 2262, "pitch": 71, "duration": 4, "velocity": 99}, {"time": 2268, "pitch": 73, "duration": 7, "velocity": 98}, {"time": 2277, "pitch": 66, "duration": 1, "velocity": 93}, {"time": 2280, "pitch": 66, "duration": 2, "velocity": 95}, {"time": 2283, "pitch": 73, "duration": 2, "velocity": 97}, {"time": 2286, "pitch": 68, "duration": 4, "velocity": 91}, {"time": 2292, "pitch": 66, "duration": 4, "velocity": 96}, {"time": 2298, "pitch": 66, "duration": 14, "velocity": 96}, {"time": 2316, "pitch": 63, "duration": 2, "velocity": 95}, {"time": 2319, "pitch": 65, "duration": 1, "velocity": 97}, {"time": 2322, "pitch": 66, "duration": 13, "velocity": 95}, {"time": 2340, "pitch": 68, "duration": 9, "velocity": 94}, {"time": 2352, "pitch": 66, "duration": 30, "velocity": 97}, {"time": 2385, "pitch": 61, "duration": 1, "velocity": 99}, {"time": 2388, "pitch": 61, "duration": 2, "velocity": 99}, {"time": 2391, "pitch": 73, "duration": 2, "velocity": 96}, {"time": 2394, "pitch": 71, "duration": 5, "velocity": 96}, {"time": 2400, "pitch": 70, "duration": 4, "velocity": 95}, {"time": 2406, "pitch": 71, "duration": 5, "velocity": 97}, {"time": 2412, "pitch": 70, "duration": 2, "velocity": 95}, {"time": 2415, "pitch": 71, "duration": 7, "velocity": 90}, {"time": 2421, "pitch": 68, "duration": 12, "velocity": 95}, {"time": 2433, "pitch": 68, "duration": 1, "velocity": 95}, {"time": 2436, "pitch": 68, "duration": 1, "velocity": 96}, {"time": 2439, "pitch": 66, "duration": 2, "velocity": 96}, {"time": 2442, "pitch": 65, "duration": 4, "velocity": 97}, {"time": 2448, "pitch": 58, "duration": 4, "velocity": 100}, {"time": 2454, "pitch": 58, "duration": 4, "velocity": 99}, {"time": 2460, "pitch": 68, "duration": 1, "velocity": 82}, {"time": 2463, "pitch": 70, "duration": 9, "velocity": 97}, {"time": 2472, "pitch": 66, "duration": 9, "velocity": 97}, {"time": 2487, "pitch": 63, "duration": 3, "velocity": 93}, {"time": 2490, "pitch": 70, "duration": 5, "velocity": 97}, {"time": 2496, "pitch": 68, "duration": 10, "velocity": 90}, {"time": 2508, "pitch": 66, "duration": 5, "velocity": 96}, {"time": 2514, "pitch": 65, "duration": 5, "velocity": 96}, {"time": 2520, "pitch": 63, "duration": 10, "velocity": 97}, {"time": 2532, "pitch": 65, "duration": 6, "velocity": 95}, {"time": 2538, "pitch": 68, "duration": 13, "velocity": 92}, {"time": 2550, "pitch": 66, "duration": 37, "velocity": 89}]}, {"program": 0, "is_drum": false, "name": "PIANO", "notes": [{"time": 378, "pitch": 42, "duration": 20, "velocity": 94}, {"time": 384, "pitch": 58, "duration": 4, "velocity": 82}, {"time": 390, "pitch": 58, "duration": 19, "velocity": 85}, {"time": 390, "pitch": 66, "duration": 18, "velocity": 89}, {"time": 402, "pitch": 49, "duration": 18, "velocity": 87}, {"time": 408, "pitch": 56, "duration": 17, "velocity": 79}, {"time": 414, "pitch": 61, "duration": 12, "velocity": 95}, {"time": 426, "pitch": 50, "duration": 15, "velocity": 87}, {"time": 432, "pitch": 62, "duration": 4, "velocity": 88}, {"time": 438, "pitch": 62, "duration": 12, "velocity": 85}, {"time": 438, "pitch": 65, "duration": 18, "velocity": 94}, {"time": 450, "pitch": 39, "duration": 14, "velocity": 96}, {"time": 456, "pitch": 58, "duration": 16, "velocity": 93}, {"time": 462, "pitch": 63, "duration": 7, "velocity": 90}, {"time": 462, "pitch": 66, "duration": 25, "velocity": 91}, {"time": 474, "pitch": 47, "duration": 20, "velocity": 87}, {"time": 480, "pitch": 54, "duration": 18, "velocity": 80}, {"time": 486, "pitch": 59, "duration": 19, "velocity": 83}, {"time": 486, "pitch": 63, "duration": 18, "velocity": 87}, {"time": 498, "pitch": 47, "duration": 22, "velocity": 90}, {"time": 504, "pitch": 58, "duration": 16, "velocity": 88}, {"time": 510, "pitch": 59, "duration": 11, "velocity": 98}, {"time": 516, "pitch": 54, "duration": 5, "velocity": 77}, {"time": 522, "pitch": 49, "duration": 21, "velocity": 97}, {"time": 528, "pitch": 56, "duration": 22, "velocity": 90}, {"time": 528, "pitch": 63, "duration": 1, "velocity": 41}, {"time": 534, "pitch": 63, "duration": 11, "velocity": 90}, {"time": 546, "pitch": 49, "duration": 23, "velocity": 88}, {"time": 546, "pitch": 61, "duration": 8, "velocity": 77}, {"time": 546, "pitch": 65, "duration": 10, "velocity": 93}, {"time": 552, "pitch": 56, "duration": 4, "velocity": 82}, {"time": 558, "pitch": 56, "duration": 11, "velocity": 89}, {"time": 558, "pitch": 61, "duration": 11, "velocity": 89}, {"time": 570, "pitch": 42, "duration": 19, "velocity": 96}, {"time": 570, "pitch": 53, "duration": 6, "velocity": 96}, {"time": 576, "pitch": 49, "duration": 12, "velocity": 89}, {"time": 582, "pitch": 54, "duration": 13, "velocity": 82}, {"time": 582, "pitch": 61, "duration": 16, "velocity": 84}, {"time": 582, "pitch": 66, "duration": 14, "velocity": 85}, {"time": 594, "pitch": 50, "duration": 22, "velocity": 97}, {"time": 600, "pitch": 56, "duration": 18, "velocity": 93}, {"time": 600, "pitch": 62, "duration": 1, "velocity": 43}, {"time": 606, "pitch": 59, "duration": 11, "velocity": 75}, {"time": 606, "pitch": 61, "duration": 12, "velocity": 84}, {"time": 606, "pitch": 65, "duration": 13, "velocity": 90}, {"time": 618, "pitch": 51, "duration": 12, "velocity": 97}, {"time": 624, "pitch": 58, "duration": 13, "velocity": 94}, {"time": 630, "pitch": 63, "duration": 7, "velocity": 87}, {"time": 630, "pitch": 66, "duration": 14, "velocity": 94}, {"time": 642, "pitch": 42, "duration": 18, "velocity": 94}, {"time": 642, "pitch": 61, "duration": 10, "velocity": 84}, {"time": 648, "pitch": 49, "duration": 10, "velocity": 82}, {"time": 654, "pitch": 54, "duration": 7, "velocity": 82}, {"time": 654, "pitch": 58, "duration": 4, "velocity": 88}, {"time": 654, "pitch": 61, "duration": 7, "velocity": 93}, {"time": 666, "pitch": 47, "duration": 22, "velocity": 87}, {"time": 666, "pitch": 59, "duration": 13, "velocity": 84}, {"time": 666, "pitch": 63, "duration": 13, "velocity": 91}, {"time": 672, "pitch": 51, "duration": 17, "velocity": 83}, {"time": 678, "pitch": 54, "duration": 10, "velocity": 96}, {"time": 684, "pitch": 59, "duration": 3, "velocity": 95}, {"time": 690, "pitch": 42, "duration": 20, "velocity": 95}, {"time": 690, "pitch": 54, "duration": 8, "velocity": 86}, {"time": 690, "pitch": 58, "duration": 10, "velocity": 89}, {"time": 696, "pitch": 49, "duration": 15, "velocity": 81}, {"time": 702, "pitch": 54, "duration": 6, "velocity": 89}, {"time": 714, "pitch": 42, "duration": 20, "velocity": 95}, {"time": 720, "pitch": 51, "duration": 15, "velocity": 86}, {"time": 726, "pitch": 53, "duration": 6, "velocity": 95}, {"time": 732, "pitch": 58, "duration": 13, "velocity": 88}, {"time": 738, "pitch": 42, "duration": 19, "velocity": 91}, {"time": 738, "pitch": 54, "duration": 7, "velocity": 65}, {"time": 738, "pitch": 61, "duration": 7, "velocity": 69}, {"time": 762, "pitch": 47, "duration": 14, "velocity": 101}, {"time": 768, "pitch": 54, "duration": 10, "velocity": 97}, {"time": 774, "pitch": 59, "duration": 5, "velocity": 95}, {"time": 774, "pitch": 63, "duration": 7, "velocity": 93}, {"time": 786, "pitch": 49, "duration": 13, "velocity": 95}, {"time": 786, "pitch": 56, "duration": 3, "velocity": 87}, {"time": 786, "pitch": 61, "duration": 8, "velocity": 90}, {"time": 792, "pitch": 58, "duration": 12, "velocity": 88}, {"time": 798, "pitch": 61, "duration": 2, "velocity": 96}, {"time": 798, "pitch": 65, "duration": 3, "velocity": 97}, {"time": 804, "pitch": 58, "duration": 12, "velocity": 88}, {"time": 810, "pitch": 38, "duration": 18, "velocity": 87}, {"time": 810, "pitch": 62, "duration": 6, "velocity": 87}, {"time": 810, "pitch": 65, "duration": 8, "velocity": 96}, {"time": 816, "pitch": 62, "duration": 18, "velocity": 95}, {"time": 822, "pitch": 68, "duration": 13, "velocity": 92}, {"time": 834, "pitch": 51, "duration": 16, "velocity": 97}, {"time": 834, "pitch": 66, "duration": 13, "velocity": 88}, {"time": 840, "pitch": 58, "duration": 10, "velocity": 91}, {"time": 846, "pitch": 63, "duration": 10, "velocity": 97}, {"time": 858, "pitch": 47, "duration": 20, "velocity": 97}, {"time": 858, "pitch": 63, "duration": 12, "velocity": 89}, {"time": 864, "pitch": 54, "duration": 18, "velocity": 84}, {"time": 870, "pitch": 59, "duration": 6, "velocity": 98}, {"time": 876, "pitch": 63, "duration": 5, "velocity": 97}, {"time": 882, "pitch": 48, "duration": 17, "velocity": 96}, {"time": 882, "pitch": 60, "duration": 9, "velocity": 89}, {"time": 882, "pitch": 63, "duration": 8, "velocity": 90}, {"time": 888, "pitch": 54, "duration": 11, "velocity": 90}, {"time": 894, "pitch": 60, "duration": 6, "velocity": 98}, {"time": 906, "pitch": 37, "duration": 48, "velocity": 95}, {"time": 906, "pitch": 56, "duration": 7, "velocity": 89}, {"time": 906, "pitch": 61, "duration": 12, "velocity": 90}, {"time": 912, "pitch": 44, "duration": 42, "velocity": 84}, {"time": 918, "pitch": 56, "duration": 9, "velocity": 100}, {"time": 930, "pitch": 56, "duration": 23, "velocity": 95}, {"time": 930, "pitch": 65, "duration": 23, "velocity": 97}, {"time": 954, "pitch": 42, "duration": 19, "velocity": 96}, {"time": 954, "pitch": 53, "duration": 6, "velocity": 96}, {"time": 960, "pitch": 49, "duration": 12, "velocity": 89}, {"time": 966, "pitch": 54, "duration": 13, "velocity": 82}, {"time": 966, "pitch": 61, "duration": 16, "velocity": 84}, {"time": 966, "pitch": 66, "duration": 14, "velocity": 85}, {"time": 978, "pitch": 50, "duration": 22, "velocity": 97}, {"time": 984, "pitch": 56, "duration": 18, "velocity": 93}, {"time": 984, "pitch": 62, "duration": 1, "velocity": 43}, {"time": 990, "pitch": 59, "duration": 11, "velocity": 75}, {"time": 990, "pitch": 61, "duration": 12, "velocity": 84}, {"time": 990, "pitch": 65, "duration": 13, "velocity": 90}, {"time": 1002, "pitch": 51, "duration": 12, "velocity": 97}, {"time": 1008, "pitch": 58, "duration": 13, "velocity": 94}, {"time": 1014, "pitch": 63, "duration": 7, "velocity": 87}, {"time": 1014, "pitch": 66, "duration": 14, "velocity": 94}, {"time": 1026, "pitch": 42, "duration": 18, "velocity": 94}, {"time": 1026, "pitch": 61, "duration": 10, "velocity": 84}, {"time": 1032, "pitch": 49, "duration": 10, "velocity": 82}, {"time": 1038, "pitch": 54, "duration": 7, "velocity": 82}, {"time": 1038, "pitch": 58, "duration": 4, "velocity": 88}, {"time": 1038, "pitch": 61, "duration": 7, "velocity": 93}, {"time": 1050, "pitch": 47, "duration": 22, "velocity": 87}, {"time": 1050, "pitch": 59, "duration": 13, "velocity": 84}, {"time": 1050, "pitch": 63, "duration": 13, "velocity": 91}, {"time": 1056, "pitch": 51, "duration": 17, "velocity": 83}, {"time": 1062, "pitch": 54, "duration": 10, "velocity": 96}, {"time": 1068, "pitch": 59, "duration": 3, "velocity": 95}, {"time": 1074, "pitch": 42, "duration": 20, "velocity": 95}, {"time": 1074, "pitch": 54, "duration": 8, "velocity": 86}, {"time": 1074, "pitch": 58, "duration": 10, "velocity": 89}, {"time": 1080, "pitch": 49, "duration": 15, "velocity": 81}, {"time": 1086, "pitch": 54, "duration": 6, "velocity": 89}, {"time": 1098, "pitch": 42, "duration": 20, "velocity": 95}, {"time": 1104, "pitch": 51, "duration": 15, "velocity": 86}, {"time": 1110, "pitch": 53, "duration": 6, "velocity": 95}, {"time": 1116, "pitch": 58, "duration": 13, "velocity": 88}, {"time": 1122, "pitch": 42, "duration": 19, "velocity": 91}, {"time": 1122, "pitch": 54, "duration": 7, "velocity": 65}, {"time": 1122, "pitch": 61, "duration": 7, "velocity": 69}, {"time": 1146, "pitch": 47, "duration": 14, "velocity": 101}, {"time": 1152, "pitch": 54, "duration": 10, "velocity": 97}, {"time": 1158, "pitch": 59, "duration": 5, "velocity": 95}, {"time": 1158, "pitch": 63, "duration": 7, "velocity": 93}, {"time": 1170, "pitch": 49, "duration": 13, "velocity": 95}, {"time": 1170, "pitch": 56, "duration": 3, "velocity": 87}, {"time": 1170, "pitch": 61, "duration": 8, "velocity": 90}, {"time": 1176, "pitch": 58, "duration": 12, "velocity": 88}, {"time": 1182, "pitch": 61, "duration": 2, "velocity": 96}, {"time": 1182, "pitch": 65, "duration": 3, "velocity": 97}, {"time": 1188, "pitch": 58, "duration": 12, "velocity": 88}, {"time": 1194, "pitch": 38, "duration": 18, "velocity": 87}, {"time": 1194, "pitch": 62, "duration": 6, "velocity": 87}, {"time": 1194, "pitch": 65, "duration": 8, "velocity": 96}, {"time": 1200, "pitch": 62, "duration": 18, "velocity": 95}, {"time": 1206, "pitch": 68, "duration": 13, "velocity": 92}, {"time": 1218, "pitch": 51, "duration": 16, "velocity": 97}, {"time": 1218, "pitch": 66, "duration": 13, "velocity": 88}, {"time": 1224, "pitch": 58, "duration": 10, "velocity": 91}, {"time": 1230, "pitch": 63, "duration": 10, "velocity": 97}, {"time": 1242, "pitch": 47, "duration": 17, "velocity": 85}, {"time": 1242, "pitch": 59, "duration": 8, "velocity": 81}, {"time": 1242, "pitch": 63, "duration": 8, "velocity": 88}, {"time": 1248, "pitch": 54, "duration": 11, "velocity": 71}, {"time": 1254, "pitch": 59, "duration": 6, "velocity": 96}, {"time": 1254, "pitch": 63, "duration": 13, "velocity": 96}, {"time": 1266, "pitch": 49, "duration": 23, "velocity": 95}, {"time": 1266, "pitch": 56, "duration": 3, "velocity": 86}, {"time": 1266, "pitch": 61, "duration": 8, "velocity": 92}, {"time": 1272, "pitch": 56, "duration": 20, "velocity": 93}, {"time": 1278, "pitch": 61, "duration": 13, "velocity": 96}, {"time": 1278, "pitch": 65, "duration": 12, "velocity": 96}, {"time": 1290, "pitch": 42, "duration": 48, "velocity": 95}, {"time": 1290, "pitch": 65, "duration": 17, "velocity": 99}, {"time": 1296, "pitch": 49, "duration": 8, "velocity": 83}, {"time": 1302, "pitch": 61, "duration": 8, "velocity": 96}, {"time": 1308, "pitch": 49, "duration": 29, "velocity": 83}, {"time": 1314, "pitch": 54, "duration": 9, "velocity": 91}, {"time": 1314, "pitch": 61, "duration": 8, "velocity": 95}, {"time": 1326, "pitch": 54, "duration": 11, "velocity": 91}, {"time": 1326, "pitch": 58, "duration": 11, "velocity": 91}, {"time": 1326, "pitch": 61, "duration": 12, "velocity": 95}, {"time": 1338, "pitch": 42, "duration": 1, "velocity": 95}, {"time": 1338, "pitch": 54, "duration": 9, "velocity": 95}, {"time": 1338, "pitch": 61, "duration": 8, "velocity": 93}, {"time": 1344, "pitch": 49, "duration": 9, "velocity": 88}, {"time": 1350, "pitch": 54, "duration": 3, "velocity": 97}, {"time": 1350, "pitch": 58, "duration": 4, "velocity": 97}, {"time": 1350, "pitch": 61, "duration": 5, "velocity": 96}, {"time": 1362, "pitch": 37, "duration": 10, "velocity": 95}, {"time": 1362, "pitch": 56, "duration": 11, "velocity": 96}, {"time": 1362, "pitch": 61, "duration": 5, "velocity": 96}, {"time": 1374, "pitch": 38, "duration": 9, "velocity": 95}, {"time": 1374, "pitch": 62, "duration": 5, "velocity": 95}, {"time": 1374, "pitch": 65, "duration": 5, "velocity": 96}, {"time": 1386, "pitch": 39, "duration": 2, "velocity": 96}, {"time": 1386, "pitch": 63, "duration": 10, "velocity": 90}, {"time": 1386, "pitch": 66, "duration": 10, "velocity": 89}, {"time": 1392, "pitch": 51, "duration": 32, "velocity": 95}, {"time": 1398, "pitch": 63, "duration": 10, "velocity": 95}, {"time": 1398, "pitch": 66, "duration": 10, "velocity": 98}, {"time": 1404, "pitch": 58, "duration": 6, "velocity": 54}, {"time": 1410, "pitch": 61, "duration": 9, "velocity": 95}, {"time": 1410, "pitch": 66, "duration": 9, "velocity": 91}, {"time": 1416, "pitch": 58, "duration": 7, "velocity": 78}, {"time": 1422, "pitch": 61, "duration": 6, "velocity": 95}, {"time": 1422, "pitch": 66, "duration": 19, "velocity": 96}, {"time": 1434, "pitch": 47, "duration": 18, "velocity": 96}, {"time": 1434, "pitch": 59, "duration": 9, "velocity": 86}, {"time": 1434, "pitch": 63, "duration": 9, "velocity": 89}, {"time": 1440, "pitch": 54, "duration": 13, "velocity": 78}, {"time": 1446, "pitch": 59, "duration": 5, "velocity": 97}, {"time": 1446, "pitch": 63, "duration": 9, "velocity": 97}, {"time": 1458, "pitch": 46, "duration": 12, "velocity": 95}, {"time": 1458, "pitch": 56, "duration": 8, "velocity": 86}, {"time": 1458, "pitch": 61, "duration": 9, "velocity": 92}, {"time": 1464, "pitch": 53, "duration": 4, "velocity": 84}, {"time": 1470, "pitch": 51, "duration": 7, "velocity": 97}, {"time": 1470, "pitch": 58, "duration": 5, "velocity": 94}, {"time": 1470, "pitch": 63, "duration": 6, "velocity": 97}, {"time": 1482, "pitch": 44, "duration": 16, "velocity": 96}, {"time": 1482, "pitch": 56, "duration": 9, "velocity": 90}, {"time": 1482, "pitch": 59, "duration": 7, "velocity": 83}, {"time": 1482, "pitch": 63, "duration": 8, "velocity": 91}, {"time": 1488, "pitch": 51, "duration": 10, "velocity": 83}, {"time": 1494, "pitch": 56, "duration": 7, "velocity": 95}, {"time": 1494, "pitch": 59, "duration": 7, "velocity": 97}, {"time": 1494, "pitch": 63, "duration": 7, "velocity": 95}, {"time": 1500, "pitch": 44, "duration": 5, "velocity": 96}, {"time": 1506, "pitch": 49, "duration": 19, "velocity": 95}, {"time": 1506, "pitch": 56, "duration": 8, "velocity": 90}, {"time": 1506, "pitch": 61, "duration": 8, "velocity": 95}, {"time": 1518, "pitch": 56, "duration": 4, "velocity": 96}, {"time": 1518, "pitch": 61, "duration": 5, "velocity": 98}, {"time": 1518, "pitch": 65, "duration": 10, "velocity": 99}, {"time": 1530, "pitch": 42, "duration": 18, "velocity": 98}, {"time": 1530, "pitch": 54, "duration": 8, "velocity": 88}, {"time": 1530, "pitch": 58, "duration": 6, "velocity": 90}, {"time": 1536, "pitch": 49, "duration": 12, "velocity": 81}, {"time": 1542, "pitch": 54, "duration": 4, "velocity": 96}, {"time": 1542, "pitch": 58, "duration": 4, "velocity": 100}, {"time": 1542, "pitch": 61, "duration": 5, "velocity": 97}, {"time": 1554, "pitch": 37, "duration": 9, "velocity": 96}, {"time": 1554, "pitch": 61, "duration": 5, "velocity": 96}, {"time": 1554, "pitch": 65, "duration": 6, "velocity": 98}, {"time": 1566, "pitch": 38, "duration": 6, "velocity": 88}, {"time": 1566, "pitch": 62, "duration": 5, "velocity": 89}, {"time": 1566, "pitch": 65, "duration": 5, "velocity": 97}, {"time": 1578, "pitch": 39, "duration": 21, "velocity": 95}, {"time": 1578, "pitch": 63, "duration": 8, "velocity": 88}, {"time": 1578, "pitch": 66, "duration": 6, "velocity": 91}, {"time": 1584, "pitch": 46, "duration": 15, "velocity": 79}, {"time": 1590, "pitch": 63, "duration": 3, "velocity": 92}, {"time": 1590, "pitch": 66, "duration": 8, "velocity": 99}, {"time": 1590, "pitch": 70, "duration": 9, "velocity": 96}, {"time": 1596, "pitch": 63, "duration": 4, "velocity": 87}, {"time": 1602, "pitch": 39, "duration": 14, "velocity": 98}, {"time": 1602, "pitch": 61, "duration": 4, "velocity": 96}, {"time": 1602, "pitch": 66, "duration": 7, "velocity": 95}, {"time": 1608, "pitch": 46, "duration": 7, "velocity": 69}, {"time": 1614, "pitch": 61, "duration": 4, "velocity": 94}, {"time": 1614, "pitch": 66, "duration": 3, "velocity": 95}, {"time": 1614, "pitch": 70, "duration": 3, "velocity": 90}, {"time": 1626, "pitch": 47, "duration": 18, "velocity": 85}, {"time": 1626, "pitch": 59, "duration": 8, "velocity": 85}, {"time": 1626, "pitch": 63, "duration": 9, "velocity": 91}, {"time": 1632, "pitch": 54, "duration": 16, "velocity": 55}, {"time": 1638, "pitch": 59, "duration": 2, "velocity": 96}, {"time": 1638, "pitch": 63, "duration": 4, "velocity": 95}, {"time": 1638, "pitch": 66, "duration": 9, "velocity": 95}, {"time": 1644, "pitch": 59, "duration": 3, "velocity": 100}, {"time": 1644, "pitch": 63, "duration": 1, "velocity": 75}, {"time": 1650, "pitch": 46, "duration": 10, "velocity": 96}, {"time": 1650, "pitch": 58, "duration": 6, "velocity": 86}, {"time": 1650, "pitch": 61, "duration": 6, "velocity": 91}, {"time": 1656, "pitch": 53, "duration": 4, "velocity": 93}, {"time": 1662, "pitch": 51, "duration": 6, "velocity": 99}, {"time": 1662, "pitch": 58, "duration": 3, "velocity": 93}, {"time": 1662, "pitch": 63, "duration": 5, "velocity": 95}, {"time": 1662, "pitch": 66, "duration": 12, "velocity": 94}, {"time": 1668, "pitch": 58, "duration": 3, "velocity": 96}, {"time": 1674, "pitch": 44, "duration": 16, "velocity": 94}, {"time": 1674, "pitch": 56, "duration": 10, "velocity": 91}, {"time": 1674, "pitch": 59, "duration": 8, "velocity": 85}, {"time": 1674, "pitch": 63, "duration": 8, "velocity": 90}, {"time": 1680, "pitch": 51, "duration": 9, "velocity": 79}, {"time": 1686, "pitch": 59, "duration": 4, "velocity": 97}, {"time": 1686, "pitch": 63, "duration": 12, "velocity": 98}, {"time": 1692, "pitch": 56, "duration": 4, "velocity": 95}, {"time": 1698, "pitch": 37, "duration": 18, "velocity": 91}, {"time": 1698, "pitch": 56, "duration": 7, "velocity": 95}, {"time": 1698, "pitch": 61, "duration": 8, "velocity": 95}, {"time": 1704, "pitch": 44, "duration": 12, "velocity": 77}, {"time": 1710, "pitch": 56, "duration": 10, "velocity": 90}, {"time": 1710, "pitch": 63, "duration": 7, "velocity": 95}, {"time": 1716, "pitch": 61, "duration": 18, "velocity": 85}, {"time": 1722, "pitch": 42, "duration": 21, "velocity": 95}, {"time": 1728, "pitch": 49, "duration": 15, "velocity": 87}, {"time": 1734, "pitch": 56, "duration": 6, "velocity": 89}, {"time": 1740, "pitch": 58, "duration": 10, "velocity": 83}, {"time": 1746, "pitch": 42, "duration": 18, "velocity": 85}, {"time": 1746, "pitch": 49, "duration": 18, "velocity": 89}, {"time": 1770, "pitch": 47, "duration": 22, "velocity": 94}, {"time": 1770, "pitch": 59, "duration": 8, "velocity": 85}, {"time": 1770, "pitch": 63, "duration": 11, "velocity": 90}, {"time": 1770, "pitch": 66, "duration": 13, "velocity": 85}, {"time": 1776, "pitch": 54, "duration": 16, "velocity": 83}, {"time": 1782, "pitch": 59, "duration": 7, "velocity": 104}, {"time": 1782, "pitch": 63, "duration": 1, "velocity": 68}, {"time": 1794, "pitch": 49, "duration": 16, "velocity": 97}, {"time": 1794, "pitch": 56, "duration": 2, "velocity": 86}, {"time": 1794, "pitch": 61, "duration": 8, "velocity": 87}, {"time": 1800, "pitch": 56, "duration": 4, "velocity": 81}, {"time": 1806, "pitch": 56, "duration": 4, "velocity": 94}, {"time": 1806, "pitch": 61, "duration": 4, "velocity": 94}, {"time": 1806, "pitch": 65, "duration": 5, "velocity": 96}, {"time": 1818, "pitch": 38, "duration": 13, "velocity": 90}, {"time": 1818, "pitch": 62, "duration": 3, "velocity": 87}, {"time": 1818, "pitch": 65, "duration": 9, "velocity": 96}, {"time": 1824, "pitch": 62, "duration": 4, "velocity": 84}, {"time": 1830, "pitch": 62, "duration": 4, "velocity": 87}, {"time": 1830, "pitch": 65, "duration": 5, "velocity": 97}, {"time": 1830, "pitch": 68, "duration": 7, "velocity": 82}, {"time": 1842, "pitch": 39, "duration": 14, "velocity": 96}, {"time": 1842, "pitch": 63, "duration": 9, "velocity": 86}, {"time": 1842, "pitch": 66, "duration": 8, "velocity": 91}, {"time": 1848, "pitch": 46, "duration": 8, "velocity": 71}, {"time": 1854, "pitch": 63, "duration": 2, "velocity": 95}, {"time": 1854, "pitch": 66, "duration": 6, "velocity": 97}, {"time": 1854, "pitch": 70, "duration": 7, "velocity": 95}, {"time": 1860, "pitch": 63, "duration": 1, "velocity": 83}, {"time": 1866, "pitch": 47, "duration": 39, "velocity": 94}, {"time": 1866, "pitch": 59, "duration": 9, "velocity": 84}, {"time": 1866, "pitch": 63, "duration": 8, "velocity": 90}, {"time": 1872, "pitch": 54, "duration": 33, "velocity": 77}, {"time": 1878, "pitch": 59, "duration": 3, "velocity": 89}, {"time": 1878, "pitch": 63, "duration": 4, "velocity": 92}, {"time": 1878, "pitch": 66, "duration": 4, "velocity": 89}, {"time": 1890, "pitch": 59, "duration": 2, "velocity": 88}, {"time": 1890, "pitch": 66, "duration": 10, "velocity": 96}, {"time": 1896, "pitch": 59, "duration": 4, "velocity": 80}, {"time": 1902, "pitch": 59, "duration": 2, "velocity": 90}, {"time": 1902, "pitch": 63, "duration": 3, "velocity": 91}, {"time": 1914, "pitch": 49, "duration": 20, "velocity": 95}, {"time": 1914, "pitch": 56, "duration": 3, "velocity": 90}, {"time": 1914, "pitch": 61, "duration": 9, "velocity": 92}, {"time": 1920, "pitch": 56, "duration": 6, "velocity": 87}, {"time": 1926, "pitch": 63, "duration": 7, "velocity": 92}, {"time": 1932, "pitch": 61, "duration": 2, "velocity": 88}, {"time": 1938, "pitch": 49, "duration": 23, "velocity": 94}, {"time": 1938, "pitch": 56, "duration": 8, "velocity": 82}, {"time": 1938, "pitch": 61, "duration": 9, "velocity": 80}, {"time": 1962, "pitch": 42, "duration": 17, "velocity": 95}, {"time": 1962, "pitch": 54, "duration": 9, "velocity": 95}, {"time": 1962, "pitch": 61, "duration": 8, "velocity": 93}, {"time": 1968, "pitch": 49, "duration": 9, "velocity": 88}, {"time": 1974, "pitch": 54, "duration": 3, "velocity": 97}, {"time": 1974, "pitch": 58, "duration": 4, "velocity": 97}, {"time": 1974, "pitch": 61, "duration": 5, "velocity": 96}, {"time": 1986, "pitch": 37, "duration": 10, "velocity": 95}, {"time": 1986, "pitch": 56, "duration": 11, "velocity": 96}, {"time": 1986, "pitch": 61, "duration": 5, "velocity": 96}, {"time": 1998, "pitch": 38, "duration": 9, "velocity": 95}, {"time": 1998, "pitch": 62, "duration": 5, "velocity": 95}, {"time": 1998, "pitch": 65, "duration": 5, "velocity": 96}, {"time": 2010, "pitch": 39, "duration": 2, "velocity": 96}, {"time": 2010, "pitch": 63, "duration": 10, "velocity": 90}, {"time": 2010, "pitch": 66, "duration": 10, "velocity": 89}, {"time": 2016, "pitch": 51, "duration": 32, "velocity": 95}, {"time": 2022, "pitch": 63, "duration": 10, "velocity": 95}, {"time": 2022, "pitch": 66, "duration": 10, "velocity": 98}, {"time": 2028, "pitch": 58, "duration": 6, "velocity": 54}, {"time": 2034, "pitch": 61, "duration": 9, "velocity": 95}, {"time": 2034, "pitch": 66, "duration": 9, "velocity": 91}, {"time": 2040, "pitch": 58, "duration": 7, "velocity": 78}, {"time": 2046, "pitch": 61, "duration": 6, "velocity": 95}, {"time": 2046, "pitch": 66, "duration": 19, "velocity": 96}, {"time": 2058, "pitch": 47, "duration": 18, "velocity": 96}, {"time": 2058, "pitch": 59, "duration": 9, "velocity": 86}, {"time": 2058, "pitch": 63, "duration": 9, "velocity": 89}, {"time": 2064, "pitch": 54, "duration": 13, "velocity": 78}, {"time": 2070, "pitch": 59, "duration": 5, "velocity": 97}, {"time": 2070, "pitch": 63, "duration": 9, "velocity": 97}, {"time": 2082, "pitch": 46, "duration": 12, "velocity": 95}, {"time": 2082, "pitch": 56, "duration": 8, "velocity": 86}, {"time": 2082, "pitch": 61, "duration": 9, "velocity": 92}, {"time": 2088, "pitch": 53, "duration": 4, "velocity": 84}, {"time": 2094, "pitch": 51, "duration": 7, "velocity": 97}, {"time": 2094, "pitch": 58, "duration": 5, "velocity": 94}, {"time": 2094, "pitch": 63, "duration": 6, "velocity": 97}, {"time": 2106, "pitch": 44, "duration": 16, "velocity": 96}, {"time": 2106, "pitch": 56, "duration": 9, "velocity": 90}, {"time": 2106, "pitch": 59, "duration": 7, "velocity": 83}, {"time": 2106, "pitch": 63, "duration": 8, "velocity": 91}, {"time": 2112, "pitch": 51, "duration": 10, "velocity": 83}, {"time": 2118, "pitch": 56, "duration": 7, "velocity": 95}, {"time": 2118, "pitch": 59, "duration": 7, "velocity": 97}, {"time": 2118, "pitch": 63, "duration": 7, "velocity": 95}, {"time": 2124, "pitch": 44, "duration": 5, "velocity": 96}, {"time": 2130, "pitch": 49, "duration": 19, "velocity": 95}, {"time": 2130, "pitch": 56, "duration": 8, "velocity": 90}, {"time": 2130, "pitch": 61, "duration": 8, "velocity": 95}, {"time": 2142, "pitch": 56, "duration": 4, "velocity": 96}, {"time": 2142, "pitch": 61, "duration": 5, "velocity": 98}, {"time": 2142, "pitch": 65, "duration": 10, "velocity": 99}, {"time": 2154, "pitch": 42, "duration": 18, "velocity": 98}, {"time": 2154, "pitch": 54, "duration": 8, "velocity": 88}, {"time": 2154, "pitch": 58, "duration": 6, "velocity": 90}, {"time": 2160, "pitch": 49, "duration": 12, "velocity": 81}, {"time": 2166, "pitch": 54, "duration": 4, "velocity": 96}, {"time": 2166, "pitch": 58, "duration": 4, "velocity": 100}, {"time": 2166, "pitch": 61, "duration": 5, "velocity": 97}, {"time": 2178, "pitch": 37, "duration": 9, "velocity": 96}, {"time": 2178, "pitch": 61, "duration": 5, "velocity": 96}, {"time": 2178, "pitch": 65, "duration": 6, "velocity": 98}, {"time": 2190, "pitch": 38, "duration": 6, "velocity": 88}, {"time": 2190, "pitch": 62, "duration": 5, "velocity": 89}, {"time": 2190, "pitch": 65, "duration": 5, "velocity": 97}, {"time": 2202, "pitch": 39, "duration": 21, "velocity": 95}, {"time": 2202, "pitch": 63, "duration": 8, "velocity": 88}, {"time": 2202, "pitch": 66, "duration": 6, "velocity": 91}, {"time": 2208, "pitch": 46, "duration": 15, "velocity": 79}, {"time": 2214, "pitch": 63, "duration": 3, "velocity": 92}, {"time": 2214, "pitch": 66, "duration": 8, "velocity": 99}, {"time": 2214, "pitch": 70, "duration": 9, "velocity": 96}, {"time": 2220, "pitch": 63, "duration": 4, "velocity": 87}, {"time": 2226, "pitch": 39, "duration": 14, "velocity": 98}, {"time": 2226, "pitch": 61, "duration": 4, "velocity": 96}, {"time": 2226, "pitch": 66, "duration": 7, "velocity": 95}, {"time": 2232, "pitch": 46, "duration": 7, "velocity": 69}, {"time": 2238, "pitch": 61, "duration": 4, "velocity": 94}, {"time": 2238, "pitch": 66, "duration": 3, "velocity": 95}, {"time": 2238, "pitch": 70, "duration": 3, "velocity": 90}, {"time": 2250, "pitch": 47, "duration": 18, "velocity": 85}, {"time": 2250, "pitch": 59, "duration": 8, "velocity": 85}, {"time": 2250, "pitch": 63, "duration": 9, "velocity": 91}, {"time": 2256, "pitch": 54, "duration": 16, "velocity": 55}, {"time": 2262, "pitch": 59, "duration": 2, "velocity": 96}, {"time": 2262, "pitch": 63, "duration": 4, "velocity": 95}, {"time": 2262, "pitch": 66, "duration": 9, "velocity": 95}, {"time": 2268, "pitch": 59, "duration": 3, "velocity": 100}, {"time": 2268, "pitch": 63, "duration": 1, "velocity": 75}, {"time": 2274, "pitch": 46, "duration": 10, "velocity": 96}, {"time": 2274, "pitch": 58, "duration": 6, "velocity": 86}, {"time": 2274, "pitch": 61, "duration": 6, "velocity": 91}, {"time": 2280, "pitch": 53, "duration": 4, "velocity": 93}, {"time": 2286, "pitch": 51, "duration": 6, "velocity": 99}, {"time": 2286, "pitch": 58, "duration": 3, "velocity": 93}, {"time": 2286, "pitch": 63, "duration": 5, "velocity": 95}, {"time": 2286, "pitch": 66, "duration": 12, "velocity": 94}, {"time": 2292, "pitch": 58, "duration": 3, "velocity": 96}, {"time": 2298, "pitch": 44, "duration": 16, "velocity": 94}, {"time": 2298, "pitch": 56, "duration": 10, "velocity": 91}, {"time": 2298, "pitch": 59, "duration": 8, "velocity": 85}, {"time": 2298, "pitch": 63, "duration": 8, "velocity": 90}, {"time": 2304, "pitch": 51, "duration": 9, "velocity": 79}, {"time": 2310, "pitch": 59, "duration": 4, "velocity": 97}, {"time": 2310, "pitch": 63, "duration": 12, "velocity": 98}, {"time": 2316, "pitch": 56, "duration": 4, "velocity": 95}, {"time": 2322, "pitch": 37, "duration": 18, "velocity": 91}, {"time": 2322, "pitch": 56, "duration": 7, "velocity": 95}, {"time": 2322, "pitch": 61, "duration": 8, "velocity": 95}, {"time": 2328, "pitch": 44, "duration": 12, "velocity": 77}, {"time": 2334, "pitch": 56, "duration": 10, "velocity": 90}, {"time": 2334, "pitch": 63, "duration": 7, "velocity": 95}, {"time": 2340, "pitch": 61, "duration": 18, "velocity": 85}, {"time": 2346, "pitch": 42, "duration": 21, "velocity": 95}, {"time": 2352, "pitch": 49, "duration": 15, "velocity": 87}, {"time": 2358, "pitch": 56, "duration": 6, "velocity": 89}, {"time": 2364, "pitch": 58, "duration": 10, "velocity": 83}, {"time": 2370, "pitch": 42, "duration": 18, "velocity": 85}, {"time": 2370, "pitch": 49, "duration": 18, "velocity": 89}, {"time": 2394, "pitch": 47, "duration": 22, "velocity": 94}, {"time": 2394, "pitch": 59, "duration": 8, "velocity": 85}, {"time": 2394, "pitch": 63, "duration": 11, "velocity": 90}, {"time": 2394, "pitch": 66, "duration": 13, "velocity": 85}, {"time": 2400, "pitch": 54, "duration": 16, "velocity": 83}, {"time": 2406, "pitch": 59, "duration": 7, "velocity": 104}, {"time": 2406, "pitch": 63, "duration": 1, "velocity": 68}, {"time": 2418, "pitch": 49, "duration": 16, "velocity": 97}, {"time": 2418, "pitch": 56, "duration": 2, "velocity": 86}, {"time": 2418, "pitch": 61, "duration": 8, "velocity": 87}, {"time": 2424, "pitch": 56, "duration": 4, "velocity": 81}, {"time": 2430, "pitch": 56, "duration": 4, "velocity": 94}, {"time": 2430, "pitch": 61, "duration": 4, "velocity": 94}, {"time": 2430, "pitch": 65, "duration": 5, "velocity": 96}, {"time": 2442, "pitch": 38, "duration": 13, "velocity": 90}, {"time": 2442, "pitch": 62, "duration": 3, "velocity": 87}, {"time": 2442, "pitch": 65, "duration": 9, "velocity": 96}, {"time": 2448, "pitch": 62, "duration": 4, "velocity": 84}, {"time": 2454, "pitch": 62, "duration": 4, "velocity": 87}, {"time": 2454, "pitch": 65, "duration": 5, "velocity": 97}, {"time": 2454, "pitch": 68, "duration": 7, "velocity": 82}, {"time": 2466, "pitch": 39, "duration": 14, "velocity": 96}, {"time": 2466, "pitch": 63, "duration": 9, "velocity": 86}, {"time": 2466, "pitch": 66, "duration": 8, "velocity": 91}, {"time": 2472, "pitch": 46, "duration": 8, "velocity": 71}, {"time": 2478, "pitch": 63, "duration": 2, "velocity": 95}, {"time": 2478, "pitch": 66, "duration": 6, "velocity": 97}, {"time": 2478, "pitch": 70, "duration": 7, "velocity": 95}, {"time": 2484, "pitch": 63, "duration": 1, "velocity": 83}, {"time": 2490, "pitch": 47, "duration": 18, "velocity": 102}, {"time": 2496, "pitch": 54, "duration": 11, "velocity": 95}, {"time": 2501, "pitch": 66, "duration": 1, "velocity": 56}, {"time": 2501, "pitch": 59, "duration": 16, "velocity": 84}, {"time": 2503, "pitch": 63, "duration": 15, "velocity": 83}, {"time": 2503, "pitch": 66, "duration": 24, "velocity": 92}, {"time": 2515, "pitch": 37, "duration": 3, "velocity": 95}, {"time": 2521, "pitch": 49, "duration": 17, "velocity": 96}, {"time": 2528, "pitch": 56, "duration": 9, "velocity": 89}, {"time": 2534, "pitch": 61, "duration": 16, "velocity": 87}, {"time": 2543, "pitch": 42, "duration": 41, "velocity": 96}, {"time": 2548, "pitch": 49, "duration": 24, "velocity": 82}, {"time": 2552, "pitch": 54, "duration": 20, "velocity": 84}, {"time": 2559, "pitch": 58, "duration": 14, "velocity": 83}, {"time": 2573, "pitch": 49, "duration": 11, "velocity": 61}, {"time": 2574, "pitch": 54, "duration": 20, "velocity": 84}, {"time": 2575, "pitch": 58, "duration": 44, "velocity": 81}, {"time": 2576, "pitch": 61, "duration": 43, "velocity": 73}, {"time": 2576, "pitch": 66, "duration": 44, "velocity": 69}, {"time": 2776, "pitch": 47, "duration": 24, "velocity": 89}, {"time": 2776, "pitch": 59, "duration": 11, "velocity": 83}, {"time": 2776, "pitch": 63, "duration": 11, "velocity": 90}, {"time": 2783, "pitch": 54, "duration": 21, "velocity": 57}, {"time": 2789, "pitch": 63, "duration": 11, "velocity": 95}, {"time": 2789, "pitch": 59, "duration": 10, "velocity": 90}, {"time": 2802, "pitch": 63, "duration": 9, "velocity": 91}, {"time": 2802, "pitch": 60, "duration": 9, "velocity": 87}, {"time": 2802, "pitch": 48, "duration": 17, "velocity": 91}, {"time": 2808, "pitch": 54, "duration": 11, "velocity": 83}, {"time": 2814, "pitch": 63, "duration": 10, "velocity": 93}, {"time": 2814, "pitch": 60, "duration": 5, "velocity": 90}, {"time": 2825, "pitch": 61, "duration": 10, "velocity": 91}, {"time": 2825, "pitch": 49, "duration": 23, "velocity": 97}, {"time": 2826, "pitch": 56, "duration": 2, "velocity": 82}, {"time": 2831, "pitch": 56, "duration": 10, "velocity": 78}, {"time": 2837, "pitch": 63, "duration": 5, "velocity": 86}, {"time": 2844, "pitch": 56, "duration": 25, "velocity": 73}, {"time": 2850, "pitch": 49, "duration": 13, "velocity": 91}, {"time": 2850, "pitch": 61, "duration": 19, "velocity": 81}, {"time": 2850, "pitch": 65, "duration": 19, "velocity": 88}, {"time": 2873, "pitch": 42, "duration": 22, "velocity": 97}, {"time": 2879, "pitch": 61, "duration": 15, "velocity": 91}, {"time": 2879, "pitch": 54, "duration": 13, "velocity": 85}, {"time": 2886, "pitch": 66, "duration": 11, "velocity": 83}, {"time": 2896, "pitch": 56, "duration": 18, "velocity": 81}, {"time": 2897, "pitch": 61, "duration": 17, "velocity": 89}, {"time": 2897, "pitch": 49, "duration": 17, "velocity": 90}, {"time": 2898, "pitch": 65, "duration": 18, "velocity": 91}, {"time": 2921, "pitch": 50, "duration": 16, "velocity": 89}, {"time": 2921, "pitch": 62, "duration": 10, "velocity": 83}, {"time": 2921, "pitch": 65, "duration": 11, "velocity": 94}, {"time": 2927, "pitch": 56, "duration": 9, "velocity": 70}, {"time": 2927, "pitch": 58, "duration": 2, "velocity": 70}, {"time": 2933, "pitch": 65, "duration": 4, "velocity": 96}, {"time": 2933, "pitch": 62, "duration": 4, "velocity": 87}, {"time": 2933, "pitch": 68, "duration": 12, "velocity": 92}, {"time": 2944, "pitch": 63, "duration": 5, "velocity": 78}, {"time": 2945, "pitch": 66, "duration": 11, "velocity": 82}, {"time": 2945, "pitch": 39, "duration": 15, "velocity": 97}, {"time": 2952, "pitch": 46, "duration": 8, "velocity": 78}, {"time": 2957, "pitch": 58, "duration": 5, "velocity": 80}, {"time": 2957, "pitch": 63, "duration": 4, "velocity": 85}, {"time": 2969, "pitch": 47, "duration": 15, "velocity": 91}, {"time": 2969, "pitch": 59, "duration": 10, "velocity": 81}, {"time": 2970, "pitch": 63, "duration": 10, "velocity": 91}, {"time": 2975, "pitch": 54, "duration": 9, "velocity": 66}, {"time": 2981, "pitch": 63, "duration": 11, "velocity": 96}, {"time": 2981, "pitch": 59, "duration": 6, "velocity": 95}, {"time": 2982, "pitch": 66, "duration": 12, "velocity": 91}, {"time": 2993, "pitch": 61, "duration": 9, "velocity": 88}, {"time": 2993, "pitch": 37, "duration": 7, "velocity": 91}, {"time": 2993, "pitch": 56, "duration": 4, "velocity": 83}, {"time": 2999, "pitch": 56, "duration": 8, "velocity": 88}, {"time": 3005, "pitch": 61, "duration": 8, "velocity": 91}, {"time": 3005, "pitch": 65, "duration": 12, "velocity": 96}, {"time": 3006, "pitch": 49, "duration": 9, "velocity": 87}, {"time": 3018, "pitch": 42, "duration": 44, "velocity": 94}, {"time": 3018, "pitch": 65, "duration": 6, "velocity": 96}, {"time": 3024, "pitch": 49, "duration": 38, "velocity": 84}, {"time": 3024, "pitch": 63, "duration": 6, "velocity": 90}, {"time": 3030, "pitch": 65, "duration": 6, "velocity": 95}, {"time": 3035, "pitch": 70, "duration": 7, "velocity": 96}, {"time": 3042, "pitch": 65, "duration": 41, "velocity": 96}], "annotations": [{"time": 380, "annotation": {"number": 64, "value": 127}, "group": "control_change"}, {"time": 401, "annotation": {"number": 64, "value": 0}, "group": "control_change"}, {"time": 407, "annotation": {"number": 64, "value": 127}, "group": "control_change"}, {"time": 425, "annotation": {"number": 64, "value": 0}, "group": "control_change"}, {"time": 428, "annotation": {"number": 64, "value": 127}, "group": "control_change"}, {"time": 450, "annotation": {"number": 64, "value": 0}, "group": "control_change"}, {"time": 454, "annotation": {"number": 64, "value": 127}, "group": "control_change"}, {"time": 472, "annotation": {"number": 64, "value": 0}, "group": "control_change"}, {"time": 480, "annotation": {"number": 64, "value": 127}, "group": "control_change"}, {"time": 501, "annotation": {"number": 64, "value": 0}, "group": "control_change"}, {"time": 507, "annotation": {"number": 64, "value": 127}, "group": "control_change"}, {"time": 520, "annotation": {"number": 64, "value": 0}, "group": "control_change"}, {"time": 527, "annotation": {"number": 64, "value": 127}, "group": "control_change"}, {"time": 527, "annotation": {"number": 64, "value": 0}, "group": "control_change"}, {"time": 545, "annotation": {"number": 64, "value": 0}, "group": "control_change"}, {"time": 547, "annotation": {"number": 64, "value": 127}, "group": "control_change"}, {"time": 567, "annotation": {"number": 64, "value": 0}, "group": "control_change"}, {"time": 593, "annotation": {"number": 64, "value": 0}, "group": "control_change"}, {"time": 597, "annotation": {"number": 64, "value": 127}, "group": "control_change"}, {"time": 618, "annotation": {"number": 64, "value": 0}, "group": "control_change"}, {"time": 621, "annotation": {"number": 64, "value": 127}, "group": "control_change"}, {"time": 641, "annotation": {"number": 64, "value": 0}, "group": "control_change"}, {"time": 647, "annotation": {"number": 64, "value": 127}, "group": "control_change"}, {"time": 665, "annotation": {"number": 64, "value": 0}, "group": "control_change"}, {"time": 677, "annotation": {"number": 64, "value": 127}, "group": "control_change"}, {"time": 692, "annotation": {"number": 64, "value": 0}, "group": "control_change"}, {"time": 695, "annotation": {"number": 64, "value": 127}, "group": "control_change"}, {"time": 714, "annotation": {"number": 64, "value": 0}, "group": "control_change"}, {"time": 720, "annotation": {"number": 64, "value": 127}, "group": "control_change"}, {"time": 720, "annotation": {"number": 64, "value": 0}, "group": "control_change"}, {"time": 737, "annotation": {"number": 64, "value": 0}, "group": "control_change"}, {"time": 739, "annotation": {"number": 64, "value": 127}, "group": "control_change"}, {"time": 760, "annotation": {"number": 64, "value": 0}, "group": "control_change"}, {"time": 763, "annotation": {"number": 64, "value": 127}, "group": "control_change"}, {"time": 785, "annotation": {"number": 64, "value": 0}, "group": "control_change"}, {"time": 791, "annotation": {"number": 64, "value": 127}, "group": "control_change"}, {"time": 809, "annotation": {"number": 64, "value": 0}, "group": "control_change"}, {"time": 815, "annotation": {"number": 64, "value": 127}, "group": "control_change"}, {"time": 815, "annotation": {"number": 64, "value": 0}, "group": "control_change"}, {"time": 834, "annotation": {"number": 64, "value": 0}, "group": "control_change"}, {"time": 837, "annotation": {"number": 64, "value": 127}, "group": "control_change"}, {"time": 857, "annotation": {"number": 64, "value": 0}, "group": "control_change"}, {"time": 860, "annotation": {"number": 64, "value": 127}, "group": "control_change"}, {"time": 881, "annotation": {"number": 64, "value": 0}, "group": "control_change"}, {"time": 887, "annotation": {"number": 64, "value": 127}, "group": "control_change"}, {"time": 887, "annotation": {"number": 64, "value": 0}, "group": "control_change"}, {"time": 906, "annotation": {"number": 64, "value": 0}, "group": "control_change"}, {"time": 910, "annotation": {"number": 64, "value": 127}, "group": "control_change"}, {"time": 949, "annotation": {"number": 64, "value": 0}, "group": "control_change"}, {"time": 977, "annotation": {"number": 64, "value": 0}, "group": "control_change"}, {"time": 981, "annotation": {"number": 64, "value": 127}, "group": "control_change"}, {"time": 1002, "annotation": {"number": 64, "value": 0}, "group": "control_change"}, {"time": 1005, "annotation": {"number": 64, "value": 127}, "group": "control_change"}, {"time": 1025, "annotation": {"number": 64, "value": 0}, "group": "control_change"}, {"time": 1031, "annotation": {"number": 64, "value": 127}, "group": "control_change"}, {"time": 1049, "annotation": {"number": 64, "value": 0}, "group": "control_change"}, {"time": 1061, "annotation": {"number": 64, "value": 127}, "group": "control_change"}, {"time": 1076, "annotation": {"number": 64, "value": 0}, "group": "control_change"}, {"time": 1079, "annotation": {"number": 64, "value": 127}, "group": "control_change"}, {"time": 1098, "annotation": {"number": 64, "value": 0}, "group": "control_change"}, {"time": 1104, "annotation": {"number": 64, "value": 127}, "group": "control_change"}, {"time": 1104, "annotation": {"number": 64, "value": 0}, "group": "control_change"}, {"time": 1121, "annotation": {"number": 64, "value": 0}, "group": "control_change"}, {"time": 1123, "annotation": {"number": 64, "value": 127}, "group": "control_change"}, {"time": 1144, "annotation": {"number": 64, "value": 0}, "group": "control_change"}, {"time": 1147, "annotation": {"number": 64, "value": 127}, "group": "control_change"}, {"time": 1169, "annotation": {"number": 64, "value": 0}, "group": "control_change"}, {"time": 1175, "annotation": {"number": 64, "value": 127}, "group": "control_change"}, {"time": 1193, "annotation": {"number": 64, "value": 0}, "group": "control_change"}, {"time": 1199, "annotation": {"number": 64, "value": 127}, "group": "control_change"}, {"time": 1199, "annotation": {"number": 64, "value": 0}, "group": "control_change"}, {"time": 1218, "annotation": {"number": 64, "value": 0}, "group": "control_change"}, {"time": 1221, "annotation": {"number": 64, "value": 127}, "group": "control_change"}, {"time": 1241, "annotation": {"number": 64, "value": 0}, "group": "control_change"}, {"time": 1242, "annotation": {"number": 64, "value": 127}, "group": "control_change"}, {"time": 1265, "annotation": {"number": 64, "value": 0}, "group": "control_change"}, {"time": 1270, "annotation": {"number": 64, "value": 127}, "group": "control_change"}, {"time": 1288, "annotation": {"number": 64, "value": 0}, "group": "control_change"}, {"time": 1293, "annotation": {"number": 64, "value": 127}, "group": "control_change"}, {"time": 1335, "annotation": {"number": 64, "value": 0}, "group": "control_change"}, {"time": 1338, "annotation": {"number": 64, "value": 127}, "group": "control_change"}, {"time": 1360, "annotation": {"number": 64, "value": 0}, "group": "control_change"}, {"time": 1362, "annotation": {"number": 64, "value": 127}, "group": "control_change"}, {"time": 1371, "annotation": {"number": 64, "value": 0}, "group": "control_change"}, {"time": 1373, "annotation": {"number": 64, "value": 127}, "group": "control_change"}, {"time": 1384, "annotation": {"number": 64, "value": 0}, "group": "control_change"}, {"time": 1385, "annotation": {"number": 64, "value": 127}, "group": "control_change"}, {"time": 1409, "annotation": {"number": 64, "value": 0}, "group": "control_change"}, {"time": 1410, "annotation": {"number": 64, "value": 127}, "group": "control_change"}, {"time": 1432, "annotation": {"number": 64, "value": 0}, "group": "control_change"}, {"time": 1438, "annotation": {"number": 64, "value": 127}, "group": "control_change"}, {"time": 1438, "annotation": {"number": 64, "value": 0}, "group": "control_change"}, {"time": 1456, "annotation": {"number": 64, "value": 0}, "group": "control_change"}, {"time": 1458, "annotation": {"number": 64, "value": 127}, "group": "control_change"}, {"time": 1470, "annotation": {"number": 64, "value": 0}, "group": "control_change"}, {"time": 1471, "annotation": {"number": 64, "value": 127}, "group": "control_change"}, {"time": 1481, "annotation": {"number": 64, "value": 0}, "group": "control_change"}, {"time": 1486, "annotation": {"number": 64, "value": 127}, "group": "control_change"}, {"time": 1505, "annotation": {"number": 64, "value": 0}, "group": "control_change"}, {"time": 1508, "annotation": {"number": 64, "value": 127}, "group": "control_change"}, {"time": 1529, "annotation": {"number": 64, "value": 0}, "group": "control_change"}, {"time": 1533, "annotation": {"number": 64, "value": 127}, "group": "control_change"}, {"time": 1552, "annotation": {"number": 64, "value": 0}, "group": "control_change"}, {"time": 1554, "annotation": {"number": 64, "value": 127}, "group": "control_change"}, {"time": 1564, "annotation": {"number": 64, "value": 0}, "group": "control_change"}, {"time": 1566, "annotation": {"number": 64, "value": 127}, "group": "control_change"}, {"time": 1577, "annotation": {"number": 64, "value": 0}, "group": "control_change"}, {"time": 1579, "annotation": {"number": 64, "value": 127}, "group": "control_change"}, {"time": 1600, "annotation": {"number": 64, "value": 0}, "group": "control_change"}, {"time": 1603, "annotation": {"number": 64, "value": 127}, "group": "control_change"}, {"time": 1624, "annotation": {"number": 64, "value": 0}, "group": "control_change"}, {"time": 1628, "annotation": {"number": 64, "value": 127}, "group": "control_change"}, {"time": 1649, "annotation": {"number": 64, "value": 0}, "group": "control_change"}, {"time": 1651, "annotation": {"number": 64, "value": 127}, "group": "control_change"}, {"time": 1659, "annotation": {"number": 64, "value": 0}, "group": "control_change"}, {"time": 1664, "annotation": {"number": 64, "value": 127}, "group": "control_change"}, {"time": 1673, "annotation": {"number": 64, "value": 0}, "group": "control_change"}, {"time": 1679, "annotation": {"number": 64, "value": 127}, "group": "control_change"}, {"time": 1696, "annotation": {"number": 64, "value": 0}, "group": "control_change"}, {"time": 1700, "annotation": {"number": 64, "value": 127}, "group": "control_change"}, {"time": 1720, "annotation": {"number": 64, "value": 0}, "group": "control_change"}, {"time": 1728, "annotation": {"number": 64, "value": 127}, "group": "control_change"}, {"time": 1768, "annotation": {"number": 64, "value": 0}, "group": "control_change"}, {"time": 1771, "annotation": {"number": 64, "value": 127}, "group": "control_change"}, {"time": 1792, "annotation": {"number": 64, "value": 0}, "group": "control_change"}, {"time": 1795, "annotation": {"number": 64, "value": 127}, "group": "control_change"}, {"time": 1817, "annotation": {"number": 64, "value": 0}, "group": "control_change"}, {"time": 1823, "annotation": {"number": 64, "value": 127}, "group": "control_change"}, {"time": 1823, "annotation": {"number": 64, "value": 0}, "group": "control_change"}, {"time": 1841, "annotation": {"number": 64, "value": 0}, "group": "control_change"}, {"time": 1845, "annotation": {"number": 64, "value": 127}, "group": "control_change"}, {"time": 1866, "annotation": {"number": 64, "value": 0}, "group": "control_change"}, {"time": 1871, "annotation": {"number": 64, "value": 127}, "group": "control_change"}, {"time": 1888, "annotation": {"number": 64, "value": 0}, "group": "control_change"}, {"time": 1889, "annotation": {"number": 64, "value": 127}, "group": "control_change"}, {"time": 1912, "annotation": {"number": 64, "value": 0}, "group": "control_change"}, {"time": 1916, "annotation": {"number": 64, "value": 127}, "group": "control_change"}, {"time": 1938, "annotation": {"number": 64, "value": 0}, "group": "control_change"}, {"time": 1938, "annotation": {"number": 64, "value": 127}, "group": "control_change"}, {"time": 1959, "annotation": {"number": 64, "value": 0}, "group": "control_change"}, {"time": 1962, "annotation": {"number": 64, "value": 127}, "group": "control_change"}, {"time": 1984, "annotation": {"number": 64, "value": 0}, "group": "control_change"}, {"time": 1986, "annotation": {"number": 64, "value": 127}, "group": "control_change"}, {"time": 1995, "annotation": {"number": 64, "value": 0}, "group": "control_change"}, {"time": 1997, "annotation": {"number": 64, "value": 127}, "group": "control_change"}, {"time": 2008, "annotation": {"number": 64, "value": 0}, "group": "control_change"}, {"time": 2009, "annotation": {"number": 64, "value": 127}, "group": "control_change"}, {"time": 2033, "annotation": {"number": 64, "value": 0}, "group": "control_change"}, {"time": 2034, "annotation": {"number": 64, "value": 127}, "group": "control_change"}, {"time": 2056, "annotation": {"number": 64, "value": 0}, "group": "control_change"}, {"time": 2062, "annotation": {"number": 64, "value": 127}, "group": "control_change"}, {"time": 2062, "annotation": {"number": 64, "value": 0}, "group": "control_change"}, {"time": 2080, "annotation": {"number": 64, "value": 0}, "group": "control_change"}, {"time": 2082, "annotation": {"number": 64, "value": 127}, "group": "control_change"}, {"time": 2094, "annotation": {"number": 64, "value": 0}, "group": "control_change"}, {"time": 2095, "annotation": {"number": 64, "value": 127}, "group": "control_change"}, {"time": 2105, "annotation": {"number": 64, "value": 0}, "group": "control_change"}, {"time": 2110, "annotation": {"number": 64, "value": 127}, "group": "control_change"}, {"time": 2129, "annotation": {"number": 64, "value": 0}, "group": "control_change"}, {"time": 2132, "annotation": {"number": 64, "value": 127}, "group": "control_change"}, {"time": 2153, "annotation": {"number": 64, "value": 0}, "group": "control_change"}, {"time": 2157, "annotation": {"number": 64, "value": 127}, "group": "control_change"}, {"time": 2176, "annotation": {"number": 64, "value": 0}, "group": "control_change"}, {"time": 2178, "annotation": {"number": 64, "value": 127}, "group": "control_change"}, {"time": 2188, "annotation": {"number": 64, "value": 0}, "group": "control_change"}, {"time": 2190, "annotation": {"number": 64, "value": 127}, "group": "control_change"}, {"time": 2201, "annotation": {"number": 64, "value": 0}, "group": "control_change"}, {"time": 2203, "annotation": {"number": 64, "value": 127}, "group": "control_change"}, {"time": 2224, "annotation": {"number": 64, "value": 0}, "group": "control_change"}, {"time": 2227, "annotation": {"number": 64, "value": 127}, "group": "control_change"}, {"time": 2248, "annotation": {"number": 64, "value": 0}, "group": "control_change"}, {"time": 2252, "annotation": {"number": 64, "value": 127}, "group": "control_change"}, {"time": 2273, "annotation": {"number": 64, "value": 0}, "group": "control_change"}, {"time": 2275, "annotation": {"number": 64, "value": 127}, "group": "control_change"}, {"time": 2283, "annotation": {"number": 64, "value": 0}, "group": "control_change"}, {"time": 2288, "annotation": {"number": 64, "value": 127}, "group": "control_change"}, {"time": 2297, "annotation": {"number": 64, "value": 0}, "group": "control_change"}, {"time": 2303, "annotation": {"number": 64, "value": 127}, "group": "control_change"}, {"time": 2320, "annotation": {"number": 64, "value": 0}, "group": "control_change"}, {"time": 2324, "annotation": {"number": 64, "value": 127}, "group": "control_change"}, {"time": 2344, "annotation": {"number": 64, "value": 0}, "group": "control_change"}, {"time": 2352, "annotation": {"number": 64, "value": 127}, "group": "control_change"}, {"time": 2392, "annotation": {"number": 64, "value": 0}, "group": "control_change"}, {"time": 2395, "annotation": {"number": 64, "value": 127}, "group": "control_change"}, {"time": 2416, "annotation": {"number": 64, "value": 0}, "group": "control_change"}, {"time": 2419, "annotation": {"number": 64, "value": 127}, "group": "control_change"}, {"time": 2441, "annotation": {"number": 64, "value": 0}, "group": "control_change"}, {"time": 2447, "annotation": {"number": 64, "value": 127}, "group": "control_change"}, {"time": 2447, "annotation": {"number": 64, "value": 0}, "group": "control_change"}, {"time": 2465, "annotation": {"number": 64, "value": 0}, "group": "control_change"}, {"time": 2469, "annotation": {"number": 64, "value": 127}, "group": "control_change"}, {"time": 2490, "annotation": {"number": 64, "value": 127}, "group": "control_change"}, {"time": 2513, "annotation": {"number": 64, "value": 0}, "group": "control_change"}, {"time": 2515, "annotation": {"number": 64, "value": 127}, "group": "control_change"}, {"time": 2544, "annotation": {"number": 64, "value": 0}, "group": "control_change"}, {"time": 2549, "annotation": {"number": 64, "value": 127}, "group": "control_change"}, {"time": 2652, "annotation": {"number": 64, "value": 0}, "group": "control_change"}, {"time": 2778, "annotation": {"number": 64, "value": 127}, "group": "control_change"}, {"time": 2801, "annotation": {"number": 64, "value": 0}, "group": "control_change"}, {"time": 2805, "annotation": {"number": 64, "value": 127}, "group": "control_change"}, {"time": 2824, "annotation": {"number": 64, "value": 0}, "group": "control_change"}, {"time": 2828, "annotation": {"number": 64, "value": 127}, "group": "control_change"}, {"time": 2851, "annotation": {"number": 64, "value": 0}, "group": "control_change"}, {"time": 2852, "annotation": {"number": 64, "value": 127}, "group": "control_change"}, {"time": 2870, "annotation": {"number": 64, "value": 0}, "group": "control_change"}, {"time": 2874, "annotation": {"number": 64, "value": 127}, "group": "control_change"}, {"time": 2898, "annotation": {"number": 64, "value": 0}, "group": "control_change"}, {"time": 2903, "annotation": {"number": 64, "value": 127}, "group": "control_change"}, {"time": 2921, "annotation": {"number": 64, "value": 0}, "group": "control_change"}, {"time": 2927, "annotation": {"number": 64, "value": 127}, "group": "control_change"}, {"time": 2944, "annotation": {"number": 64, "value": 0}, "group": "control_change"}, {"time": 2947, "annotation": {"number": 64, "value": 127}, "group": "control_change"}, {"time": 2970, "annotation": {"number": 64, "value": 127}, "group": "control_change"}, {"time": 2992, "annotation": {"number": 64, "value": 0}, "group": "control_change"}, {"time": 2994, "annotation": {"number": 64, "value": 127}, "group": "control_change"}, {"time": 3018, "annotation": {"number": 64, "value": 0}, "group": "control_change"}, {"time": 3023, "annotation": {"number": 64, "value": 127}, "group": "control_change"}, {"time": 3023, "annotation": {"number": 64, "value": 0}, "group": "control_change"}]}]}