{"metadata": {"schema_version": "0.2", "title": "None", "source_filename": "435.mid", "source_format": "midi"}, "resolution": 12, "tempos": [{"time": 0, "qpm": 78.00017940041262}, {"time": 4141, "qpm": 77.50015500031}, {"time": 4179, "qpm": 76.75009401886517}, {"time": 4214, "qpm": 75.75001988438022}, {"time": 4219, "qpm": 75.49999874166669}, {"time": 4225, "qpm": 74.000074000074}, {"time": 4244, "qpm": 72.50001812500453}, {"time": 4252, "qpm": 71.00003550001774}], "time_signatures": [{"time": 0, "numerator": 1, "denominator": 4}], "tracks": [{"program": 0, "is_drum": false, "name": "MELODY", "notes": [{"time": 405, "pitch": 70, "duration": 4, "velocity": 95}, {"time": 411, "pitch": 70, "duration": 6, "velocity": 100}, {"time": 417, "pitch": 78, "duration": 10, "velocity": 96}, {"time": 429, "pitch": 77, "duration": 10, "velocity": 111}, {"time": 447, "pitch": 77, "duration": 5, "velocity": 95}, {"time": 453, "pitch": 75, "duration": 10, "velocity": 98}, {"time": 465, "pitch": 74, "duration": 11, "velocity": 98}, {"time": 477, "pitch": 75, "duration": 21, "velocity": 100}, {"time": 519, "pitch": 70, "duration": 5, "velocity": 94}, {"time": 525, "pitch": 71, "duration": 9, "velocity": 95}, {"time": 537, "pitch": 71, "duration": 10, "velocity": 96}, {"time": 549, "pitch": 73, "duration": 10, "velocity": 94}, {"time": 561, "pitch": 73, "duration": 12, "velocity": 98}, {"time": 573, "pitch": 70, "duration": 18, "velocity": 94}, {"time": 597, "pitch": 70, "duration": 5, "velocity": 99}, {"time": 603, "pitch": 70, "duration": 5, "velocity": 95}, {"time": 609, "pitch": 78, "duration": 10, "velocity": 98}, {"time": 621, "pitch": 77, "duration": 16, "velocity": 100}, {"time": 639, "pitch": 77, "duration": 5, "velocity": 94}, {"time": 645, "pitch": 80, "duration": 11, "velocity": 100}, {"time": 657, "pitch": 77, "duration": 11, "velocity": 99}, {"time": 669, "pitch": 75, "duration": 26, "velocity": 99}, {"time": 711, "pitch": 75, "duration": 5, "velocity": 96}, {"time": 717, "pitch": 82, "duration": 11, "velocity": 96}, {"time": 729, "pitch": 78, "duration": 9, "velocity": 95}, {"time": 741, "pitch": 74, "duration": 22, "velocity": 96}, {"time": 765, "pitch": 78, "duration": 10, "velocity": 98}, {"time": 777, "pitch": 75, "duration": 14, "velocity": 101}, {"time": 795, "pitch": 75, "duration": 5, "velocity": 108}, {"time": 801, "pitch": 78, "duration": 10, "velocity": 100}, {"time": 813, "pitch": 80, "duration": 11, "velocity": 98}, {"time": 825, "pitch": 82, "duration": 10, "velocity": 96}, {"time": 837, "pitch": 80, "duration": 9, "velocity": 98}, {"time": 849, "pitch": 78, "duration": 10, "velocity": 98}, {"time": 861, "pitch": 75, "duration": 12, "velocity": 108}, {"time": 891, "pitch": 75, "duration": 5, "velocity": 108}, {"time": 897, "pitch": 78, "duration": 9, "velocity": 98}, {"time": 909, "pitch": 80, "duration": 10, "velocity": 97}, {"time": 921, "pitch": 82, "duration": 10, "velocity": 98}, {"time": 933, "pitch": 80, "duration": 10, "velocity": 95}, {"time": 945, "pitch": 78, "duration": 12, "velocity": 96}, {"time": 957, "pitch": 75, "duration": 24, "velocity": 105}, {"time": 987, "pitch": 75, "duration": 5, "velocity": 110}, {"time": 993, "pitch": 78, "duration": 9, "velocity": 98}, {"time": 1005, "pitch": 80, "duration": 11, "velocity": 98}, {"time": 1017, "pitch": 82, "duration": 10, "velocity": 95}, {"time": 1029, "pitch": 80, "duration": 10, "velocity": 99}, {"time": 1041, "pitch": 78, "duration": 11, "velocity": 101}, {"time": 1059, "pitch": 85, "duration": 9, "velocity": 101}, {"time": 1068, "pitch": 83, "duration": 4, "velocity": 96}, {"time": 1077, "pitch": 83, "duration": 11, "velocity": 100}, {"time": 1089, "pitch": 78, "duration": 12, "velocity": 101}, {"time": 1101, "pitch": 78, "duration": 30, "velocity": 101}, {"time": 1167, "pitch": 78, "duration": 5, "velocity": 97}, {"time": 1173, "pitch": 78, "duration": 5, "velocity": 96}, {"time": 1179, "pitch": 78, "duration": 6, "velocity": 98}, {"time": 1185, "pitch": 77, "duration": 3, "velocity": 93}, {"time": 1191, "pitch": 78, "duration": 5, "velocity": 98}, {"time": 1197, "pitch": 82, "duration": 10, "velocity": 97}, {"time": 1209, "pitch": 77, "duration": 14, "velocity": 100}, {"time": 1227, "pitch": 70, "duration": 5, "velocity": 103}, {"time": 1233, "pitch": 80, "duration": 3, "velocity": 94}, {"time": 1239, "pitch": 77, "duration": 4, "velocity": 98}, {"time": 1245, "pitch": 78, "duration": 24, "velocity": 97}, {"time": 1287, "pitch": 75, "duration": 4, "velocity": 111}, {"time": 1293, "pitch": 78, "duration": 4, "velocity": 100}, {"time": 1299, "pitch": 81, "duration": 2, "velocity": 103}, {"time": 1302, "pitch": 80, "duration": 2, "velocity": 98}, {"time": 1305, "pitch": 78, "duration": 9, "velocity": 100}, {"time": 1317, "pitch": 78, "duration": 4, "velocity": 99}, {"time": 1323, "pitch": 78, "duration": 5, "velocity": 96}, {"time": 1329, "pitch": 73, "duration": 5, "velocity": 98}, {"time": 1335, "pitch": 80, "duration": 5, "velocity": 99}, {"time": 1341, "pitch": 82, "duration": 17, "velocity": 101}, {"time": 1359, "pitch": 78, "duration": 5, "velocity": 96}, {"time": 1365, "pitch": 78, "duration": 5, "velocity": 96}, {"time": 1371, "pitch": 78, "duration": 5, "velocity": 100}, {"time": 1377, "pitch": 77, "duration": 5, "velocity": 100}, {"time": 1383, "pitch": 78, "duration": 4, "velocity": 96}, {"time": 1389, "pitch": 82, "duration": 11, "velocity": 100}, {"time": 1401, "pitch": 77, "duration": 8, "velocity": 98}, {"time": 1419, "pitch": 70, "duration": 5, "velocity": 98}, {"time": 1425, "pitch": 80, "duration": 5, "velocity": 98}, {"time": 1431, "pitch": 77, "duration": 5, "velocity": 96}, {"time": 1437, "pitch": 78, "duration": 24, "velocity": 98}, {"time": 1479, "pitch": 78, "duration": 11, "velocity": 99}, {"time": 1488, "pitch": 85, "duration": 17, "velocity": 100}, {"time": 1509, "pitch": 83, "duration": 12, "velocity": 95}, {"time": 1521, "pitch": 78, "duration": 42, "velocity": 98}, {"time": 1605, "pitch": 70, "duration": 4, "velocity": 95}, {"time": 1611, "pitch": 70, "duration": 6, "velocity": 100}, {"time": 1617, "pitch": 78, "duration": 10, "velocity": 96}, {"time": 1629, "pitch": 77, "duration": 10, "velocity": 111}, {"time": 1647, "pitch": 77, "duration": 5, "velocity": 95}, {"time": 1653, "pitch": 75, "duration": 10, "velocity": 98}, {"time": 1665, "pitch": 74, "duration": 11, "velocity": 98}, {"time": 1677, "pitch": 75, "duration": 21, "velocity": 100}, {"time": 1719, "pitch": 70, "duration": 5, "velocity": 94}, {"time": 1725, "pitch": 71, "duration": 9, "velocity": 95}, {"time": 1737, "pitch": 71, "duration": 10, "velocity": 96}, {"time": 1749, "pitch": 73, "duration": 10, "velocity": 94}, {"time": 1761, "pitch": 73, "duration": 12, "velocity": 98}, {"time": 1773, "pitch": 70, "duration": 18, "velocity": 94}, {"time": 1797, "pitch": 70, "duration": 5, "velocity": 99}, {"time": 1803, "pitch": 70, "duration": 5, "velocity": 95}, {"time": 1809, "pitch": 78, "duration": 10, "velocity": 98}, {"time": 1821, "pitch": 77, "duration": 16, "velocity": 100}, {"time": 1839, "pitch": 77, "duration": 5, "velocity": 94}, {"time": 1845, "pitch": 80, "duration": 11, "velocity": 100}, {"time": 1857, "pitch": 77, "duration": 11, "velocity": 99}, {"time": 1869, "pitch": 75, "duration": 26, "velocity": 99}, {"time": 1911, "pitch": 75, "duration": 5, "velocity": 96}, {"time": 1917, "pitch": 82, "duration": 11, "velocity": 96}, {"time": 1929, "pitch": 78, "duration": 9, "velocity": 95}, {"time": 1941, "pitch": 74, "duration": 22, "velocity": 96}, {"time": 1965, "pitch": 78, "duration": 10, "velocity": 98}, {"time": 1977, "pitch": 75, "duration": 14, "velocity": 101}, {"time": 1995, "pitch": 75, "duration": 5, "velocity": 108}, {"time": 2001, "pitch": 78, "duration": 10, "velocity": 100}, {"time": 2013, "pitch": 80, "duration": 11, "velocity": 98}, {"time": 2025, "pitch": 82, "duration": 10, "velocity": 96}, {"time": 2037, "pitch": 80, "duration": 9, "velocity": 98}, {"time": 2049, "pitch": 78, "duration": 10, "velocity": 98}, {"time": 2061, "pitch": 75, "duration": 12, "velocity": 108}, {"time": 2091, "pitch": 75, "duration": 5, "velocity": 108}, {"time": 2097, "pitch": 78, "duration": 9, "velocity": 98}, {"time": 2109, "pitch": 80, "duration": 10, "velocity": 97}, {"time": 2121, "pitch": 82, "duration": 10, "velocity": 98}, {"time": 2133, "pitch": 80, "duration": 10, "velocity": 95}, {"time": 2145, "pitch": 78, "duration": 12, "velocity": 96}, {"time": 2157, "pitch": 75, "duration": 24, "velocity": 105}, {"time": 2187, "pitch": 75, "duration": 5, "velocity": 110}, {"time": 2193, "pitch": 78, "duration": 9, "velocity": 98}, {"time": 2205, "pitch": 80, "duration": 11, "velocity": 98}, {"time": 2217, "pitch": 82, "duration": 10, "velocity": 95}, {"time": 2229, "pitch": 80, "duration": 10, "velocity": 99}, {"time": 2241, "pitch": 78, "duration": 11, "velocity": 101}, {"time": 2259, "pitch": 85, "duration": 9, "velocity": 101}, {"time": 2268, "pitch": 83, "duration": 4, "velocity": 96}, {"time": 2277, "pitch": 83, "duration": 11, "velocity": 100}, {"time": 2289, "pitch": 78, "duration": 12, "velocity": 101}, {"time": 2301, "pitch": 78, "duration": 30, "velocity": 101}, {"time": 2367, "pitch": 78, "duration": 5, "velocity": 97}, {"time": 2373, "pitch": 78, "duration": 5, "velocity": 96}, {"time": 2379, "pitch": 78, "duration": 6, "velocity": 98}, {"time": 2385, "pitch": 77, "duration": 3, "velocity": 93}, {"time": 2391, "pitch": 78, "duration": 5, "velocity": 98}, {"time": 2397, "pitch": 82, "duration": 10, "velocity": 97}, {"time": 2409, "pitch": 77, "duration": 14, "velocity": 100}, {"time": 2427, "pitch": 70, "duration": 5, "velocity": 103}, {"time": 2433, "pitch": 80, "duration": 3, "velocity": 94}, {"time": 2439, "pitch": 77, "duration": 4, "velocity": 98}, {"time": 2445, "pitch": 78, "duration": 24, "velocity": 97}, {"time": 2487, "pitch": 75, "duration": 4, "velocity": 111}, {"time": 2493, "pitch": 78, "duration": 4, "velocity": 100}, {"time": 2499, "pitch": 81, "duration": 2, "velocity": 103}, {"time": 2502, "pitch": 80, "duration": 2, "velocity": 98}, {"time": 2505, "pitch": 78, "duration": 9, "velocity": 100}, {"time": 2517, "pitch": 78, "duration": 4, "velocity": 99}, {"time": 2523, "pitch": 78, "duration": 5, "velocity": 96}, {"time": 2529, "pitch": 73, "duration": 5, "velocity": 98}, {"time": 2535, "pitch": 80, "duration": 5, "velocity": 99}, {"time": 2541, "pitch": 82, "duration": 17, "velocity": 101}, {"time": 2559, "pitch": 78, "duration": 5, "velocity": 96}, {"time": 2565, "pitch": 78, "duration": 5, "velocity": 96}, {"time": 2571, "pitch": 78, "duration": 5, "velocity": 100}, {"time": 2577, "pitch": 77, "duration": 5, "velocity": 100}, {"time": 2583, "pitch": 78, "duration": 4, "velocity": 96}, {"time": 2589, "pitch": 82, "duration": 11, "velocity": 100}, {"time": 2601, "pitch": 77, "duration": 8, "velocity": 98}, {"time": 2619, "pitch": 70, "duration": 5, "velocity": 98}, {"time": 2625, "pitch": 80, "duration": 5, "velocity": 98}, {"time": 2631, "pitch": 77, "duration": 5, "velocity": 96}, {"time": 2637, "pitch": 78, "duration": 24, "velocity": 98}, {"time": 2679, "pitch": 75, "duration": 6, "velocity": 111}, {"time": 2685, "pitch": 78, "duration": 4, "velocity": 99}, {"time": 2691, "pitch": 80, "duration": 2, "velocity": 94}, {"time": 2694, "pitch": 80, "duration": 2, "velocity": 95}, {"time": 2697, "pitch": 78, "duration": 8, "velocity": 103}, {"time": 2709, "pitch": 78, "duration": 3, "velocity": 99}, {"time": 2715, "pitch": 78, "duration": 4, "velocity": 95}, {"time": 2721, "pitch": 73, "duration": 5, "velocity": 100}, {"time": 2727, "pitch": 80, "duration": 5, "velocity": 101}, {"time": 2733, "pitch": 78, "duration": 12, "velocity": 98}, {"time": 2751, "pitch": 78, "duration": 5, "velocity": 97}, {"time": 2757, "pitch": 78, "duration": 5, "velocity": 96}, {"time": 2763, "pitch": 78, "duration": 6, "velocity": 98}, {"time": 2769, "pitch": 77, "duration": 3, "velocity": 93}, {"time": 2775, "pitch": 78, "duration": 5, "velocity": 98}, {"time": 2781, "pitch": 82, "duration": 10, "velocity": 97}, {"time": 2793, "pitch": 77, "duration": 14, "velocity": 100}, {"time": 2811, "pitch": 70, "duration": 5, "velocity": 103}, {"time": 2817, "pitch": 80, "duration": 3, "velocity": 94}, {"time": 2823, "pitch": 77, "duration": 4, "velocity": 98}, {"time": 2829, "pitch": 78, "duration": 24, "velocity": 97}, {"time": 2871, "pitch": 75, "duration": 4, "velocity": 111}, {"time": 2877, "pitch": 78, "duration": 4, "velocity": 100}, {"time": 2883, "pitch": 81, "duration": 2, "velocity": 103}, {"time": 2886, "pitch": 80, "duration": 2, "velocity": 98}, {"time": 2889, "pitch": 78, "duration": 9, "velocity": 100}, {"time": 2901, "pitch": 78, "duration": 4, "velocity": 99}, {"time": 2907, "pitch": 78, "duration": 5, "velocity": 96}, {"time": 2913, "pitch": 73, "duration": 5, "velocity": 98}, {"time": 2919, "pitch": 80, "duration": 5, "velocity": 99}, {"time": 2925, "pitch": 82, "duration": 17, "velocity": 101}, {"time": 2943, "pitch": 78, "duration": 5, "velocity": 96}, {"time": 2949, "pitch": 78, "duration": 5, "velocity": 96}, {"time": 2955, "pitch": 78, "duration": 5, "velocity": 100}, {"time": 2961, "pitch": 77, "duration": 5, "velocity": 100}, {"time": 2967, "pitch": 78, "duration": 4, "velocity": 96}, {"time": 2973, "pitch": 82, "duration": 11, "velocity": 100}, {"time": 2985, "pitch": 77, "duration": 8, "velocity": 98}, {"time": 3003, "pitch": 70, "duration": 5, "velocity": 98}, {"time": 3009, "pitch": 80, "duration": 5, "velocity": 98}, {"time": 3015, "pitch": 77, "duration": 5, "velocity": 96}, {"time": 3021, "pitch": 78, "duration": 24, "velocity": 98}, {"time": 3063, "pitch": 78, "duration": 11, "velocity": 99}, {"time": 3072, "pitch": 85, "duration": 17, "velocity": 100}, {"time": 3093, "pitch": 83, "duration": 12, "velocity": 95}, {"time": 3105, "pitch": 78, "duration": 42, "velocity": 98}, {"time": 3327, "pitch": 78, "duration": 5, "velocity": 97}, {"time": 3333, "pitch": 78, "duration": 5, "velocity": 96}, {"time": 3339, "pitch": 78, "duration": 6, "velocity": 98}, {"time": 3345, "pitch": 77, "duration": 3, "velocity": 93}, {"time": 3351, "pitch": 78, "duration": 5, "velocity": 98}, {"time": 3357, "pitch": 82, "duration": 10, "velocity": 97}, {"time": 3369, "pitch": 77, "duration": 14, "velocity": 100}, {"time": 3387, "pitch": 70, "duration": 5, "velocity": 103}, {"time": 3393, "pitch": 80, "duration": 3, "velocity": 94}, {"time": 3399, "pitch": 77, "duration": 4, "velocity": 98}, {"time": 3405, "pitch": 78, "duration": 24, "velocity": 97}, {"time": 3447, "pitch": 75, "duration": 4, "velocity": 111}, {"time": 3453, "pitch": 78, "duration": 4, "velocity": 100}, {"time": 3459, "pitch": 81, "duration": 2, "velocity": 103}, {"time": 3462, "pitch": 80, "duration": 2, "velocity": 98}, {"time": 3465, "pitch": 78, "duration": 9, "velocity": 100}, {"time": 3477, "pitch": 78, "duration": 4, "velocity": 99}, {"time": 3483, "pitch": 78, "duration": 5, "velocity": 96}, {"time": 3489, "pitch": 73, "duration": 5, "velocity": 98}, {"time": 3495, "pitch": 80, "duration": 5, "velocity": 99}, {"time": 3501, "pitch": 82, "duration": 17, "velocity": 101}, {"time": 3519, "pitch": 78, "duration": 5, "velocity": 96}, {"time": 3525, "pitch": 78, "duration": 5, "velocity": 96}, {"time": 3531, "pitch": 78, "duration": 5, "velocity": 100}, {"time": 3537, "pitch": 77, "duration": 5, "velocity": 100}, {"time": 3543, "pitch": 78, "duration": 4, "velocity": 96}, {"time": 3549, "pitch": 82, "duration": 11, "velocity": 100}, {"time": 3561, "pitch": 77, "duration": 8, "velocity": 98}, {"time": 3579, "pitch": 70, "duration": 5, "velocity": 98}, {"time": 3585, "pitch": 80, "duration": 5, "velocity": 98}, {"time": 3591, "pitch": 77, "duration": 5, "velocity": 96}, {"time": 3597, "pitch": 78, "duration": 24, "velocity": 98}, {"time": 3639, "pitch": 75, "duration": 6, "velocity": 111}, {"time": 3645, "pitch": 78, "duration": 4, "velocity": 99}, {"time": 3651, "pitch": 80, "duration": 2, "velocity": 94}, {"time": 3654, "pitch": 80, "duration": 2, "velocity": 95}, {"time": 3657, "pitch": 78, "duration": 8, "velocity": 103}, {"time": 3669, "pitch": 78, "duration": 3, "velocity": 99}, {"time": 3675, "pitch": 78, "duration": 4, "velocity": 95}, {"time": 3681, "pitch": 73, "duration": 5, "velocity": 100}, {"time": 3687, "pitch": 80, "duration": 5, "velocity": 101}, {"time": 3693, "pitch": 78, "duration": 12, "velocity": 98}, {"time": 3711, "pitch": 78, "duration": 5, "velocity": 97}, {"time": 3717, "pitch": 78, "duration": 5, "velocity": 96}, {"time": 3723, "pitch": 78, "duration": 6, "velocity": 98}, {"time": 3729, "pitch": 77, "duration": 3, "velocity": 93}, {"time": 3735, "pitch": 78, "duration": 5, "velocity": 98}, {"time": 3741, "pitch": 82, "duration": 10, "velocity": 97}, {"time": 3753, "pitch": 77, "duration": 14, "velocity": 100}, {"time": 3771, "pitch": 70, "duration": 5, "velocity": 103}, {"time": 3777, "pitch": 80, "duration": 3, "velocity": 94}, {"time": 3783, "pitch": 77, "duration": 4, "velocity": 98}, {"time": 3789, "pitch": 78, "duration": 24, "velocity": 97}, {"time": 3831, "pitch": 75, "duration": 4, "velocity": 111}, {"time": 3837, "pitch": 78, "duration": 4, "velocity": 100}, {"time": 3843, "pitch": 81, "duration": 2, "velocity": 103}, {"time": 3846, "pitch": 80, "duration": 2, "velocity": 98}, {"time": 3849, "pitch": 78, "duration": 9, "velocity": 100}, {"time": 3861, "pitch": 78, "duration": 4, "velocity": 99}, {"time": 3867, "pitch": 78, "duration": 5, "velocity": 96}, {"time": 3873, "pitch": 73, "duration": 5, "velocity": 98}, {"time": 3879, "pitch": 80, "duration": 5, "velocity": 99}, {"time": 3885, "pitch": 82, "duration": 17, "velocity": 101}, {"time": 3903, "pitch": 78, "duration": 5, "velocity": 96}, {"time": 3909, "pitch": 78, "duration": 5, "velocity": 96}, {"time": 3915, "pitch": 78, "duration": 5, "velocity": 100}, {"time": 3921, "pitch": 77, "duration": 5, "velocity": 100}, {"time": 3927, "pitch": 78, "duration": 4, "velocity": 96}, {"time": 3933, "pitch": 82, "duration": 11, "velocity": 100}, {"time": 3945, "pitch": 77, "duration": 8, "velocity": 98}, {"time": 3963, "pitch": 70, "duration": 5, "velocity": 98}, {"time": 3969, "pitch": 80, "duration": 5, "velocity": 98}, {"time": 3975, "pitch": 77, "duration": 5, "velocity": 96}, {"time": 3981, "pitch": 78, "duration": 24, "velocity": 98}, {"time": 4023, "pitch": 78, "duration": 11, "velocity": 99}, {"time": 4032, "pitch": 85, "duration": 17, "velocity": 100}, {"time": 4053, "pitch": 83, "duration": 12, "velocity": 95}, {"time": 4065, "pitch": 78, "duration": 42, "velocity": 98}]}, {"program": 0, "is_drum": false, "name": "PIANO", "notes": [{"time": 3, "pitch": 42, "duration": 45, "velocity": 85}, {"time": 3, "pitch": 54, "duration": 45, "velocity": 86}, {"time": 51, "pitch": 42, "duration": 46, "velocity": 67}, {"time": 52, "pitch": 54, "duration": 45, "velocity": 83}, {"time": 52, "pitch": 66, "duration": 50, "velocity": 81}, {"time": 99, "pitch": 42, "duration": 45, "velocity": 82}, {"time": 100, "pitch": 54, "duration": 44, "velocity": 78}, {"time": 100, "pitch": 63, "duration": 47, "velocity": 77}, {"time": 147, "pitch": 42, "duration": 45, "velocity": 84}, {"time": 148, "pitch": 54, "duration": 43, "velocity": 81}, {"time": 148, "pitch": 59, "duration": 44, "velocity": 78}, {"time": 195, "pitch": 42, "duration": 45, "velocity": 95}, {"time": 195, "pitch": 54, "duration": 9, "velocity": 95}, {"time": 201, "pitch": 49, "duration": 38, "velocity": 84}, {"time": 207, "pitch": 54, "duration": 38, "velocity": 77}, {"time": 243, "pitch": 42, "duration": 45, "velocity": 94}, {"time": 249, "pitch": 54, "duration": 6, "velocity": 89}, {"time": 255, "pitch": 58, "duration": 4, "velocity": 82}, {"time": 261, "pitch": 58, "duration": 35, "velocity": 84}, {"time": 291, "pitch": 42, "duration": 45, "velocity": 95}, {"time": 297, "pitch": 54, "duration": 10, "velocity": 81}, {"time": 309, "pitch": 58, "duration": 35, "velocity": 83}, {"time": 339, "pitch": 42, "duration": 37, "velocity": 93}, {"time": 345, "pitch": 54, "duration": 9, "velocity": 67}, {"time": 357, "pitch": 58, "duration": 22, "velocity": 83}, {"time": 387, "pitch": 42, "duration": 34, "velocity": 95}, {"time": 387, "pitch": 54, "duration": 9, "velocity": 86}, {"time": 387, "pitch": 58, "duration": 15, "velocity": 87}, {"time": 393, "pitch": 49, "duration": 28, "velocity": 69}, {"time": 405, "pitch": 54, "duration": 16, "velocity": 86}, {"time": 405, "pitch": 61, "duration": 16, "velocity": 87}, {"time": 435, "pitch": 46, "duration": 36, "velocity": 94}, {"time": 441, "pitch": 53, "duration": 29, "velocity": 81}, {"time": 447, "pitch": 58, "duration": 4, "velocity": 77}, {"time": 453, "pitch": 58, "duration": 15, "velocity": 81}, {"time": 483, "pitch": 39, "duration": 28, "velocity": 94}, {"time": 483, "pitch": 58, "duration": 9, "velocity": 80}, {"time": 483, "pitch": 63, "duration": 14, "velocity": 80}, {"time": 489, "pitch": 46, "duration": 22, "velocity": 69}, {"time": 501, "pitch": 58, "duration": 15, "velocity": 80}, {"time": 501, "pitch": 63, "duration": 13, "velocity": 82}, {"time": 531, "pitch": 47, "duration": 33, "velocity": 84}, {"time": 531, "pitch": 54, "duration": 4, "velocity": 83}, {"time": 531, "pitch": 59, "duration": 8, "velocity": 82}, {"time": 531, "pitch": 62, "duration": 13, "velocity": 82}, {"time": 537, "pitch": 54, "duration": 10, "velocity": 80}, {"time": 549, "pitch": 54, "duration": 15, "velocity": 81}, {"time": 549, "pitch": 62, "duration": 15, "velocity": 77}, {"time": 579, "pitch": 42, "duration": 35, "velocity": 90}, {"time": 579, "pitch": 54, "duration": 8, "velocity": 87}, {"time": 579, "pitch": 58, "duration": 14, "velocity": 85}, {"time": 585, "pitch": 49, "duration": 29, "velocity": 78}, {"time": 591, "pitch": 54, "duration": 3, "velocity": 77}, {"time": 597, "pitch": 54, "duration": 19, "velocity": 85}, {"time": 597, "pitch": 58, "duration": 19, "velocity": 88}, {"time": 627, "pitch": 46, "duration": 36, "velocity": 94}, {"time": 627, "pitch": 58, "duration": 8, "velocity": 83}, {"time": 633, "pitch": 53, "duration": 29, "velocity": 81}, {"time": 645, "pitch": 58, "duration": 24, "velocity": 90}, {"time": 675, "pitch": 39, "duration": 32, "velocity": 95}, {"time": 675, "pitch": 58, "duration": 9, "velocity": 82}, {"time": 675, "pitch": 63, "duration": 12, "velocity": 82}, {"time": 681, "pitch": 46, "duration": 26, "velocity": 72}, {"time": 693, "pitch": 58, "duration": 14, "velocity": 85}, {"time": 693, "pitch": 66, "duration": 15, "velocity": 86}, {"time": 723, "pitch": 47, "duration": 48, "velocity": 87}, {"time": 723, "pitch": 54, "duration": 5, "velocity": 85}, {"time": 723, "pitch": 59, "duration": 14, "velocity": 82}, {"time": 723, "pitch": 62, "duration": 14, "velocity": 81}, {"time": 735, "pitch": 54, "duration": 3, "velocity": 68}, {"time": 741, "pitch": 54, "duration": 10, "velocity": 88}, {"time": 741, "pitch": 59, "duration": 13, "velocity": 82}, {"time": 741, "pitch": 62, "duration": 14, "velocity": 84}, {"time": 759, "pitch": 54, "duration": 3, "velocity": 88}, {"time": 759, "pitch": 59, "duration": 12, "velocity": 85}, {"time": 765, "pitch": 54, "duration": 6, "velocity": 81}, {"time": 771, "pitch": 44, "duration": 46, "velocity": 78}, {"time": 771, "pitch": 59, "duration": 6, "velocity": 78}, {"time": 777, "pitch": 51, "duration": 6, "velocity": 37}, {"time": 783, "pitch": 56, "duration": 6, "velocity": 92}, {"time": 789, "pitch": 51, "duration": 7, "velocity": 67}, {"time": 795, "pitch": 59, "duration": 9, "velocity": 84}, {"time": 801, "pitch": 51, "duration": 7, "velocity": 62}, {"time": 807, "pitch": 56, "duration": 7, "velocity": 92}, {"time": 813, "pitch": 51, "duration": 7, "velocity": 67}, {"time": 819, "pitch": 44, "duration": 23, "velocity": 73}, {"time": 819, "pitch": 59, "duration": 8, "velocity": 78}, {"time": 825, "pitch": 51, "duration": 7, "velocity": 69}, {"time": 831, "pitch": 56, "duration": 7, "velocity": 82}, {"time": 837, "pitch": 51, "duration": 6, "velocity": 80}, {"time": 843, "pitch": 59, "duration": 9, "velocity": 80}, {"time": 849, "pitch": 51, "duration": 7, "velocity": 80}, {"time": 855, "pitch": 56, "duration": 12, "velocity": 89}, {"time": 861, "pitch": 51, "duration": 5, "velocity": 47}, {"time": 867, "pitch": 47, "duration": 44, "velocity": 78}, {"time": 867, "pitch": 59, "duration": 7, "velocity": 84}, {"time": 873, "pitch": 54, "duration": 7, "velocity": 45}, {"time": 879, "pitch": 59, "duration": 19, "velocity": 80}, {"time": 885, "pitch": 54, "duration": 8, "velocity": 46}, {"time": 891, "pitch": 63, "duration": 9, "velocity": 78}, {"time": 897, "pitch": 54, "duration": 7, "velocity": 71}, {"time": 903, "pitch": 59, "duration": 7, "velocity": 89}, {"time": 909, "pitch": 54, "duration": 8, "velocity": 67}, {"time": 915, "pitch": 47, "duration": 44, "velocity": 84}, {"time": 915, "pitch": 59, "duration": 7, "velocity": 82}, {"time": 921, "pitch": 54, "duration": 7, "velocity": 51}, {"time": 927, "pitch": 59, "duration": 7, "velocity": 69}, {"time": 933, "pitch": 54, "duration": 7, "velocity": 58}, {"time": 939, "pitch": 63, "duration": 11, "velocity": 69}, {"time": 945, "pitch": 54, "duration": 7, "velocity": 71}, {"time": 951, "pitch": 59, "duration": 7, "velocity": 82}, {"time": 957, "pitch": 54, "duration": 4, "velocity": 82}, {"time": 963, "pitch": 44, "duration": 46, "velocity": 78}, {"time": 963, "pitch": 59, "duration": 6, "velocity": 78}, {"time": 969, "pitch": 51, "duration": 6, "velocity": 37}, {"time": 975, "pitch": 56, "duration": 6, "velocity": 92}, {"time": 981, "pitch": 51, "duration": 7, "velocity": 67}, {"time": 987, "pitch": 59, "duration": 9, "velocity": 84}, {"time": 993, "pitch": 51, "duration": 7, "velocity": 62}, {"time": 999, "pitch": 56, "duration": 7, "velocity": 92}, {"time": 1005, "pitch": 51, "duration": 7, "velocity": 67}, {"time": 1011, "pitch": 44, "duration": 23, "velocity": 73}, {"time": 1011, "pitch": 59, "duration": 8, "velocity": 78}, {"time": 1017, "pitch": 51, "duration": 7, "velocity": 69}, {"time": 1023, "pitch": 56, "duration": 7, "velocity": 82}, {"time": 1029, "pitch": 51, "duration": 6, "velocity": 80}, {"time": 1035, "pitch": 59, "duration": 9, "velocity": 80}, {"time": 1041, "pitch": 51, "duration": 7, "velocity": 80}, {"time": 1047, "pitch": 56, "duration": 12, "velocity": 89}, {"time": 1053, "pitch": 51, "duration": 5, "velocity": 47}, {"time": 1059, "pitch": 47, "duration": 44, "velocity": 78}, {"time": 1059, "pitch": 59, "duration": 7, "velocity": 84}, {"time": 1065, "pitch": 54, "duration": 7, "velocity": 45}, {"time": 1071, "pitch": 59, "duration": 19, "velocity": 80}, {"time": 1077, "pitch": 54, "duration": 8, "velocity": 46}, {"time": 1083, "pitch": 62, "duration": 9, "velocity": 78}, {"time": 1089, "pitch": 54, "duration": 7, "velocity": 71}, {"time": 1095, "pitch": 59, "duration": 7, "velocity": 89}, {"time": 1101, "pitch": 54, "duration": 8, "velocity": 67}, {"time": 1107, "pitch": 47, "duration": 44, "velocity": 84}, {"time": 1107, "pitch": 59, "duration": 7, "velocity": 82}, {"time": 1113, "pitch": 54, "duration": 7, "velocity": 51}, {"time": 1119, "pitch": 59, "duration": 7, "velocity": 69}, {"time": 1125, "pitch": 54, "duration": 7, "velocity": 58}, {"time": 1131, "pitch": 62, "duration": 11, "velocity": 69}, {"time": 1137, "pitch": 54, "duration": 7, "velocity": 71}, {"time": 1143, "pitch": 59, "duration": 7, "velocity": 82}, {"time": 1149, "pitch": 54, "duration": 4, "velocity": 82}, {"time": 1155, "pitch": 42, "duration": 34, "velocity": 80}, {"time": 1155, "pitch": 61, "duration": 7, "velocity": 80}, {"time": 1161, "pitch": 54, "duration": 7, "velocity": 78}, {"time": 1167, "pitch": 58, "duration": 6, "velocity": 94}, {"time": 1173, "pitch": 54, "duration": 6, "velocity": 94}, {"time": 1179, "pitch": 61, "duration": 7, "velocity": 87}, {"time": 1185, "pitch": 54, "duration": 7, "velocity": 92}, {"time": 1191, "pitch": 42, "duration": 4, "velocity": 82}, {"time": 1191, "pitch": 58, "duration": 6, "velocity": 73}, {"time": 1197, "pitch": 54, "duration": 2, "velocity": 94}, {"time": 1203, "pitch": 46, "duration": 47, "velocity": 53}, {"time": 1203, "pitch": 62, "duration": 7, "velocity": 52}, {"time": 1209, "pitch": 58, "duration": 8, "velocity": 66}, {"time": 1215, "pitch": 62, "duration": 7, "velocity": 99}, {"time": 1221, "pitch": 58, "duration": 7, "velocity": 82}, {"time": 1227, "pitch": 62, "duration": 7, "velocity": 72}, {"time": 1227, "pitch": 65, "duration": 7, "velocity": 99}, {"time": 1233, "pitch": 58, "duration": 7, "velocity": 66}, {"time": 1239, "pitch": 62, "duration": 6, "velocity": 87}, {"time": 1239, "pitch": 65, "duration": 7, "velocity": 99}, {"time": 1245, "pitch": 58, "duration": 6, "velocity": 92}, {"time": 1251, "pitch": 51, "duration": 39, "velocity": 92}, {"time": 1251, "pitch": 63, "duration": 6, "velocity": 84}, {"time": 1257, "pitch": 58, "duration": 7, "velocity": 89}, {"time": 1263, "pitch": 63, "duration": 7, "velocity": 87}, {"time": 1269, "pitch": 58, "duration": 7, "velocity": 92}, {"time": 1275, "pitch": 66, "duration": 9, "velocity": 100}, {"time": 1281, "pitch": 58, "duration": 7, "velocity": 100}, {"time": 1287, "pitch": 63, "duration": 5, "velocity": 94}, {"time": 1293, "pitch": 58, "duration": 2, "velocity": 97}, {"time": 1299, "pitch": 47, "duration": 44, "velocity": 84}, {"time": 1299, "pitch": 59, "duration": 7, "velocity": 89}, {"time": 1305, "pitch": 54, "duration": 7, "velocity": 45}, {"time": 1311, "pitch": 59, "duration": 7, "velocity": 89}, {"time": 1317, "pitch": 54, "duration": 7, "velocity": 55}, {"time": 1323, "pitch": 59, "duration": 7, "velocity": 92}, {"time": 1323, "pitch": 62, "duration": 7, "velocity": 93}, {"time": 1329, "pitch": 54, "duration": 4, "velocity": 80}, {"time": 1335, "pitch": 54, "duration": 3, "velocity": 82}, {"time": 1335, "pitch": 59, "duration": 7, "velocity": 87}, {"time": 1341, "pitch": 54, "duration": 4, "velocity": 97}, {"time": 1347, "pitch": 42, "duration": 34, "velocity": 80}, {"time": 1347, "pitch": 61, "duration": 7, "velocity": 80}, {"time": 1353, "pitch": 54, "duration": 7, "velocity": 78}, {"time": 1359, "pitch": 58, "duration": 6, "velocity": 94}, {"time": 1365, "pitch": 54, "duration": 6, "velocity": 94}, {"time": 1371, "pitch": 61, "duration": 7, "velocity": 87}, {"time": 1377, "pitch": 54, "duration": 7, "velocity": 92}, {"time": 1383, "pitch": 42, "duration": 4, "velocity": 82}, {"time": 1383, "pitch": 58, "duration": 6, "velocity": 73}, {"time": 1389, "pitch": 54, "duration": 2, "velocity": 94}, {"time": 1395, "pitch": 46, "duration": 47, "velocity": 53}, {"time": 1395, "pitch": 62, "duration": 7, "velocity": 52}, {"time": 1401, "pitch": 58, "duration": 8, "velocity": 66}, {"time": 1407, "pitch": 62, "duration": 7, "velocity": 99}, {"time": 1413, "pitch": 58, "duration": 7, "velocity": 82}, {"time": 1419, "pitch": 62, "duration": 7, "velocity": 72}, {"time": 1419, "pitch": 65, "duration": 7, "velocity": 99}, {"time": 1425, "pitch": 58, "duration": 7, "velocity": 66}, {"time": 1431, "pitch": 62, "duration": 6, "velocity": 87}, {"time": 1431, "pitch": 65, "duration": 7, "velocity": 99}, {"time": 1437, "pitch": 58, "duration": 6, "velocity": 92}, {"time": 1443, "pitch": 51, "duration": 39, "velocity": 92}, {"time": 1443, "pitch": 63, "duration": 6, "velocity": 84}, {"time": 1449, "pitch": 58, "duration": 7, "velocity": 89}, {"time": 1455, "pitch": 63, "duration": 7, "velocity": 87}, {"time": 1461, "pitch": 58, "duration": 7, "velocity": 92}, {"time": 1467, "pitch": 66, "duration": 9, "velocity": 100}, {"time": 1473, "pitch": 58, "duration": 7, "velocity": 100}, {"time": 1479, "pitch": 63, "duration": 5, "velocity": 94}, {"time": 1485, "pitch": 58, "duration": 2, "velocity": 97}, {"time": 1491, "pitch": 47, "duration": 44, "velocity": 84}, {"time": 1491, "pitch": 59, "duration": 7, "velocity": 89}, {"time": 1497, "pitch": 54, "duration": 7, "velocity": 45}, {"time": 1503, "pitch": 59, "duration": 7, "velocity": 89}, {"time": 1509, "pitch": 54, "duration": 7, "velocity": 55}, {"time": 1515, "pitch": 59, "duration": 7, "velocity": 92}, {"time": 1515, "pitch": 62, "duration": 7, "velocity": 93}, {"time": 1521, "pitch": 54, "duration": 4, "velocity": 80}, {"time": 1527, "pitch": 54, "duration": 3, "velocity": 82}, {"time": 1527, "pitch": 59, "duration": 7, "velocity": 87}, {"time": 1533, "pitch": 54, "duration": 4, "velocity": 97}, {"time": 1536, "pitch": 47, "duration": 40, "velocity": 66}, {"time": 1538, "pitch": 54, "duration": 38, "velocity": 55}, {"time": 1539, "pitch": 59, "duration": 37, "velocity": 76}, {"time": 1540, "pitch": 62, "duration": 36, "velocity": 74}, {"time": 1587, "pitch": 42, "duration": 39, "velocity": 94}, {"time": 1587, "pitch": 61, "duration": 5, "velocity": 88}, {"time": 1587, "pitch": 66, "duration": 7, "velocity": 85}, {"time": 1587, "pitch": 70, "duration": 7, "velocity": 92}, {"time": 1593, "pitch": 49, "duration": 32, "velocity": 83}, {"time": 1599, "pitch": 61, "duration": 1, "velocity": 80}, {"time": 1599, "pitch": 66, "duration": 7, "velocity": 92}, {"time": 1599, "pitch": 70, "duration": 8, "velocity": 91}, {"time": 1605, "pitch": 61, "duration": 3, "velocity": 76}, {"time": 1611, "pitch": 61, "duration": 3, "velocity": 89}, {"time": 1611, "pitch": 66, "duration": 8, "velocity": 89}, {"time": 1611, "pitch": 70, "duration": 8, "velocity": 89}, {"time": 1617, "pitch": 61, "duration": 2, "velocity": 77}, {"time": 1623, "pitch": 61, "duration": 3, "velocity": 88}, {"time": 1623, "pitch": 66, "duration": 3, "velocity": 90}, {"time": 1623, "pitch": 70, "duration": 4, "velocity": 90}, {"time": 1635, "pitch": 46, "duration": 45, "velocity": 95}, {"time": 1635, "pitch": 58, "duration": 8, "velocity": 85}, {"time": 1635, "pitch": 65, "duration": 8, "velocity": 95}, {"time": 1641, "pitch": 53, "duration": 36, "velocity": 82}, {"time": 1647, "pitch": 58, "duration": 4, "velocity": 91}, {"time": 1647, "pitch": 70, "duration": 8, "velocity": 91}, {"time": 1653, "pitch": 58, "duration": 2, "velocity": 67}, {"time": 1659, "pitch": 58, "duration": 4, "velocity": 82}, {"time": 1659, "pitch": 65, "duration": 8, "velocity": 89}, {"time": 1659, "pitch": 70, "duration": 5, "velocity": 90}, {"time": 1665, "pitch": 58, "duration": 3, "velocity": 77}, {"time": 1671, "pitch": 58, "duration": 4, "velocity": 92}, {"time": 1671, "pitch": 65, "duration": 5, "velocity": 95}, {"time": 1671, "pitch": 70, "duration": 6, "velocity": 94}, {"time": 1683, "pitch": 51, "duration": 40, "velocity": 92}, {"time": 1683, "pitch": 63, "duration": 7, "velocity": 89}, {"time": 1683, "pitch": 66, "duration": 7, "velocity": 90}, {"time": 1695, "pitch": 63, "duration": 6, "velocity": 89}, {"time": 1695, "pitch": 66, "duration": 6, "velocity": 90}, {"time": 1707, "pitch": 58, "duration": 2, "velocity": 81}, {"time": 1707, "pitch": 63, "duration": 3, "velocity": 86}, {"time": 1707, "pitch": 66, "duration": 5, "velocity": 89}, {"time": 1713, "pitch": 58, "duration": 2, "velocity": 71}, {"time": 1719, "pitch": 58, "duration": 3, "velocity": 87}, {"time": 1719, "pitch": 63, "duration": 4, "velocity": 90}, {"time": 1719, "pitch": 66, "duration": 4, "velocity": 93}, {"time": 1731, "pitch": 47, "duration": 48, "velocity": 94}, {"time": 1731, "pitch": 59, "duration": 7, "velocity": 83}, {"time": 1731, "pitch": 62, "duration": 7, "velocity": 93}, {"time": 1743, "pitch": 59, "duration": 7, "velocity": 85}, {"time": 1743, "pitch": 62, "duration": 7, "velocity": 91}, {"time": 1755, "pitch": 59, "duration": 3, "velocity": 84}, {"time": 1755, "pitch": 62, "duration": 4, "velocity": 83}, {"time": 1755, "pitch": 66, "duration": 5, "velocity": 94}, {"time": 1761, "pitch": 59, "duration": 4, "velocity": 73}, {"time": 1767, "pitch": 59, "duration": 3, "velocity": 91}, {"time": 1767, "pitch": 62, "duration": 12, "velocity": 95}, {"time": 1767, "pitch": 66, "duration": 13, "velocity": 94}, {"time": 1773, "pitch": 59, "duration": 7, "velocity": 87}, {"time": 1779, "pitch": 42, "duration": 39, "velocity": 94}, {"time": 1779, "pitch": 61, "duration": 5, "velocity": 88}, {"time": 1779, "pitch": 66, "duration": 1, "velocity": 85}, {"time": 1779, "pitch": 70, "duration": 7, "velocity": 92}, {"time": 1785, "pitch": 49, "duration": 32, "velocity": 83}, {"time": 1791, "pitch": 61, "duration": 1, "velocity": 80}, {"time": 1791, "pitch": 66, "duration": 7, "velocity": 92}, {"time": 1791, "pitch": 70, "duration": 8, "velocity": 91}, {"time": 1797, "pitch": 61, "duration": 3, "velocity": 76}, {"time": 1803, "pitch": 61, "duration": 3, "velocity": 89}, {"time": 1803, "pitch": 66, "duration": 8, "velocity": 89}, {"time": 1803, "pitch": 70, "duration": 8, "velocity": 89}, {"time": 1809, "pitch": 61, "duration": 2, "velocity": 77}, {"time": 1815, "pitch": 61, "duration": 3, "velocity": 88}, {"time": 1815, "pitch": 66, "duration": 3, "velocity": 90}, {"time": 1815, "pitch": 70, "duration": 4, "velocity": 90}, {"time": 1827, "pitch": 46, "duration": 45, "velocity": 95}, {"time": 1827, "pitch": 58, "duration": 8, "velocity": 85}, {"time": 1827, "pitch": 65, "duration": 8, "velocity": 95}, {"time": 1833, "pitch": 53, "duration": 36, "velocity": 82}, {"time": 1839, "pitch": 58, "duration": 4, "velocity": 91}, {"time": 1839, "pitch": 70, "duration": 8, "velocity": 91}, {"time": 1845, "pitch": 58, "duration": 2, "velocity": 67}, {"time": 1851, "pitch": 58, "duration": 4, "velocity": 82}, {"time": 1851, "pitch": 65, "duration": 8, "velocity": 89}, {"time": 1851, "pitch": 70, "duration": 5, "velocity": 90}, {"time": 1857, "pitch": 58, "duration": 3, "velocity": 77}, {"time": 1863, "pitch": 58, "duration": 4, "velocity": 92}, {"time": 1863, "pitch": 65, "duration": 5, "velocity": 95}, {"time": 1863, "pitch": 70, "duration": 6, "velocity": 94}, {"time": 1875, "pitch": 51, "duration": 40, "velocity": 92}, {"time": 1875, "pitch": 63, "duration": 7, "velocity": 89}, {"time": 1875, "pitch": 66, "duration": 7, "velocity": 90}, {"time": 1887, "pitch": 63, "duration": 6, "velocity": 89}, {"time": 1887, "pitch": 66, "duration": 6, "velocity": 90}, {"time": 1899, "pitch": 58, "duration": 2, "velocity": 81}, {"time": 1899, "pitch": 63, "duration": 3, "velocity": 86}, {"time": 1899, "pitch": 66, "duration": 5, "velocity": 89}, {"time": 1905, "pitch": 58, "duration": 2, "velocity": 71}, {"time": 1911, "pitch": 58, "duration": 3, "velocity": 87}, {"time": 1911, "pitch": 63, "duration": 4, "velocity": 90}, {"time": 1911, "pitch": 66, "duration": 4, "velocity": 93}, {"time": 1923, "pitch": 47, "duration": 48, "velocity": 94}, {"time": 1923, "pitch": 59, "duration": 7, "velocity": 83}, {"time": 1923, "pitch": 62, "duration": 7, "velocity": 93}, {"time": 1935, "pitch": 59, "duration": 7, "velocity": 85}, {"time": 1935, "pitch": 62, "duration": 7, "velocity": 91}, {"time": 1947, "pitch": 59, "duration": 3, "velocity": 84}, {"time": 1947, "pitch": 62, "duration": 4, "velocity": 83}, {"time": 1947, "pitch": 66, "duration": 5, "velocity": 94}, {"time": 1953, "pitch": 59, "duration": 4, "velocity": 73}, {"time": 1959, "pitch": 59, "duration": 3, "velocity": 91}, {"time": 1959, "pitch": 62, "duration": 12, "velocity": 95}, {"time": 1959, "pitch": 66, "duration": 13, "velocity": 94}, {"time": 1965, "pitch": 59, "duration": 7, "velocity": 87}, {"time": 1971, "pitch": 44, "duration": 46, "velocity": 78}, {"time": 1971, "pitch": 59, "duration": 1, "velocity": 78}, {"time": 1977, "pitch": 51, "duration": 6, "velocity": 37}, {"time": 1983, "pitch": 56, "duration": 6, "velocity": 92}, {"time": 1989, "pitch": 51, "duration": 7, "velocity": 67}, {"time": 1995, "pitch": 59, "duration": 9, "velocity": 84}, {"time": 2001, "pitch": 51, "duration": 7, "velocity": 62}, {"time": 2007, "pitch": 56, "duration": 7, "velocity": 92}, {"time": 2013, "pitch": 51, "duration": 7, "velocity": 67}, {"time": 2019, "pitch": 44, "duration": 23, "velocity": 73}, {"time": 2019, "pitch": 59, "duration": 8, "velocity": 78}, {"time": 2025, "pitch": 51, "duration": 7, "velocity": 69}, {"time": 2031, "pitch": 56, "duration": 7, "velocity": 82}, {"time": 2037, "pitch": 51, "duration": 6, "velocity": 80}, {"time": 2043, "pitch": 59, "duration": 9, "velocity": 80}, {"time": 2049, "pitch": 51, "duration": 7, "velocity": 80}, {"time": 2055, "pitch": 56, "duration": 12, "velocity": 89}, {"time": 2061, "pitch": 51, "duration": 5, "velocity": 47}, {"time": 2067, "pitch": 47, "duration": 44, "velocity": 78}, {"time": 2067, "pitch": 59, "duration": 7, "velocity": 84}, {"time": 2073, "pitch": 54, "duration": 7, "velocity": 45}, {"time": 2079, "pitch": 59, "duration": 19, "velocity": 80}, {"time": 2085, "pitch": 54, "duration": 8, "velocity": 46}, {"time": 2091, "pitch": 63, "duration": 9, "velocity": 78}, {"time": 2097, "pitch": 54, "duration": 7, "velocity": 71}, {"time": 2103, "pitch": 59, "duration": 7, "velocity": 89}, {"time": 2109, "pitch": 54, "duration": 8, "velocity": 67}, {"time": 2115, "pitch": 47, "duration": 44, "velocity": 84}, {"time": 2115, "pitch": 59, "duration": 7, "velocity": 82}, {"time": 2121, "pitch": 54, "duration": 7, "velocity": 51}, {"time": 2127, "pitch": 59, "duration": 7, "velocity": 69}, {"time": 2133, "pitch": 54, "duration": 7, "velocity": 58}, {"time": 2139, "pitch": 63, "duration": 11, "velocity": 69}, {"time": 2145, "pitch": 54, "duration": 7, "velocity": 71}, {"time": 2151, "pitch": 59, "duration": 7, "velocity": 82}, {"time": 2157, "pitch": 54, "duration": 4, "velocity": 82}, {"time": 2163, "pitch": 44, "duration": 46, "velocity": 78}, {"time": 2163, "pitch": 59, "duration": 6, "velocity": 78}, {"time": 2169, "pitch": 51, "duration": 6, "velocity": 37}, {"time": 2175, "pitch": 56, "duration": 6, "velocity": 92}, {"time": 2181, "pitch": 51, "duration": 7, "velocity": 67}, {"time": 2187, "pitch": 59, "duration": 9, "velocity": 84}, {"time": 2193, "pitch": 51, "duration": 7, "velocity": 62}, {"time": 2199, "pitch": 56, "duration": 7, "velocity": 92}, {"time": 2205, "pitch": 51, "duration": 7, "velocity": 67}, {"time": 2211, "pitch": 44, "duration": 23, "velocity": 73}, {"time": 2211, "pitch": 59, "duration": 8, "velocity": 78}, {"time": 2217, "pitch": 51, "duration": 7, "velocity": 69}, {"time": 2223, "pitch": 56, "duration": 7, "velocity": 82}, {"time": 2229, "pitch": 51, "duration": 6, "velocity": 80}, {"time": 2235, "pitch": 59, "duration": 9, "velocity": 80}, {"time": 2241, "pitch": 51, "duration": 7, "velocity": 80}, {"time": 2247, "pitch": 56, "duration": 12, "velocity": 89}, {"time": 2253, "pitch": 51, "duration": 5, "velocity": 47}, {"time": 2259, "pitch": 47, "duration": 44, "velocity": 78}, {"time": 2259, "pitch": 59, "duration": 7, "velocity": 84}, {"time": 2265, "pitch": 54, "duration": 7, "velocity": 45}, {"time": 2271, "pitch": 59, "duration": 19, "velocity": 80}, {"time": 2277, "pitch": 54, "duration": 8, "velocity": 46}, {"time": 2283, "pitch": 62, "duration": 9, "velocity": 78}, {"time": 2289, "pitch": 54, "duration": 7, "velocity": 71}, {"time": 2295, "pitch": 59, "duration": 7, "velocity": 89}, {"time": 2301, "pitch": 54, "duration": 8, "velocity": 67}, {"time": 2307, "pitch": 47, "duration": 44, "velocity": 84}, {"time": 2307, "pitch": 59, "duration": 7, "velocity": 82}, {"time": 2313, "pitch": 54, "duration": 7, "velocity": 51}, {"time": 2319, "pitch": 59, "duration": 7, "velocity": 69}, {"time": 2325, "pitch": 54, "duration": 7, "velocity": 58}, {"time": 2331, "pitch": 62, "duration": 11, "velocity": 69}, {"time": 2337, "pitch": 54, "duration": 7, "velocity": 71}, {"time": 2343, "pitch": 59, "duration": 7, "velocity": 82}, {"time": 2349, "pitch": 54, "duration": 4, "velocity": 82}, {"time": 2355, "pitch": 42, "duration": 34, "velocity": 80}, {"time": 2355, "pitch": 61, "duration": 7, "velocity": 80}, {"time": 2361, "pitch": 54, "duration": 7, "velocity": 78}, {"time": 2367, "pitch": 58, "duration": 6, "velocity": 94}, {"time": 2373, "pitch": 54, "duration": 6, "velocity": 94}, {"time": 2379, "pitch": 61, "duration": 7, "velocity": 87}, {"time": 2385, "pitch": 54, "duration": 7, "velocity": 92}, {"time": 2391, "pitch": 42, "duration": 4, "velocity": 82}, {"time": 2391, "pitch": 58, "duration": 6, "velocity": 73}, {"time": 2397, "pitch": 54, "duration": 2, "velocity": 94}, {"time": 2403, "pitch": 46, "duration": 47, "velocity": 53}, {"time": 2403, "pitch": 62, "duration": 7, "velocity": 52}, {"time": 2409, "pitch": 58, "duration": 8, "velocity": 66}, {"time": 2415, "pitch": 62, "duration": 7, "velocity": 99}, {"time": 2421, "pitch": 58, "duration": 7, "velocity": 82}, {"time": 2427, "pitch": 62, "duration": 7, "velocity": 72}, {"time": 2427, "pitch": 65, "duration": 7, "velocity": 99}, {"time": 2433, "pitch": 58, "duration": 7, "velocity": 66}, {"time": 2439, "pitch": 62, "duration": 6, "velocity": 87}, {"time": 2439, "pitch": 65, "duration": 7, "velocity": 99}, {"time": 2445, "pitch": 58, "duration": 6, "velocity": 92}, {"time": 2451, "pitch": 51, "duration": 39, "velocity": 92}, {"time": 2451, "pitch": 63, "duration": 6, "velocity": 84}, {"time": 2457, "pitch": 58, "duration": 7, "velocity": 89}, {"time": 2463, "pitch": 63, "duration": 7, "velocity": 87}, {"time": 2469, "pitch": 58, "duration": 7, "velocity": 92}, {"time": 2475, "pitch": 66, "duration": 9, "velocity": 100}, {"time": 2481, "pitch": 58, "duration": 7, "velocity": 100}, {"time": 2487, "pitch": 63, "duration": 5, "velocity": 94}, {"time": 2493, "pitch": 58, "duration": 2, "velocity": 97}, {"time": 2499, "pitch": 47, "duration": 44, "velocity": 84}, {"time": 2499, "pitch": 59, "duration": 7, "velocity": 89}, {"time": 2505, "pitch": 54, "duration": 7, "velocity": 45}, {"time": 2511, "pitch": 59, "duration": 7, "velocity": 89}, {"time": 2517, "pitch": 54, "duration": 7, "velocity": 55}, {"time": 2523, "pitch": 59, "duration": 7, "velocity": 92}, {"time": 2523, "pitch": 62, "duration": 7, "velocity": 93}, {"time": 2529, "pitch": 54, "duration": 4, "velocity": 80}, {"time": 2535, "pitch": 54, "duration": 3, "velocity": 82}, {"time": 2535, "pitch": 59, "duration": 7, "velocity": 87}, {"time": 2541, "pitch": 54, "duration": 4, "velocity": 97}, {"time": 2547, "pitch": 42, "duration": 34, "velocity": 80}, {"time": 2547, "pitch": 61, "duration": 7, "velocity": 80}, {"time": 2553, "pitch": 54, "duration": 7, "velocity": 78}, {"time": 2559, "pitch": 58, "duration": 6, "velocity": 94}, {"time": 2565, "pitch": 54, "duration": 6, "velocity": 94}, {"time": 2571, "pitch": 61, "duration": 7, "velocity": 87}, {"time": 2577, "pitch": 54, "duration": 7, "velocity": 92}, {"time": 2583, "pitch": 42, "duration": 4, "velocity": 82}, {"time": 2583, "pitch": 58, "duration": 6, "velocity": 73}, {"time": 2589, "pitch": 54, "duration": 2, "velocity": 94}, {"time": 2595, "pitch": 46, "duration": 47, "velocity": 53}, {"time": 2595, "pitch": 62, "duration": 7, "velocity": 52}, {"time": 2601, "pitch": 58, "duration": 8, "velocity": 66}, {"time": 2607, "pitch": 62, "duration": 7, "velocity": 99}, {"time": 2613, "pitch": 58, "duration": 7, "velocity": 82}, {"time": 2619, "pitch": 62, "duration": 7, "velocity": 72}, {"time": 2619, "pitch": 65, "duration": 7, "velocity": 99}, {"time": 2625, "pitch": 58, "duration": 7, "velocity": 66}, {"time": 2631, "pitch": 62, "duration": 6, "velocity": 87}, {"time": 2631, "pitch": 65, "duration": 7, "velocity": 99}, {"time": 2637, "pitch": 58, "duration": 6, "velocity": 92}, {"time": 2643, "pitch": 51, "duration": 39, "velocity": 92}, {"time": 2643, "pitch": 63, "duration": 6, "velocity": 84}, {"time": 2649, "pitch": 58, "duration": 7, "velocity": 89}, {"time": 2655, "pitch": 63, "duration": 7, "velocity": 87}, {"time": 2661, "pitch": 58, "duration": 7, "velocity": 92}, {"time": 2667, "pitch": 66, "duration": 9, "velocity": 100}, {"time": 2673, "pitch": 58, "duration": 7, "velocity": 100}, {"time": 2679, "pitch": 63, "duration": 5, "velocity": 94}, {"time": 2685, "pitch": 58, "duration": 2, "velocity": 97}, {"time": 2691, "pitch": 47, "duration": 44, "velocity": 84}, {"time": 2691, "pitch": 59, "duration": 7, "velocity": 89}, {"time": 2697, "pitch": 54, "duration": 7, "velocity": 45}, {"time": 2703, "pitch": 59, "duration": 7, "velocity": 89}, {"time": 2709, "pitch": 54, "duration": 7, "velocity": 55}, {"time": 2715, "pitch": 59, "duration": 7, "velocity": 92}, {"time": 2715, "pitch": 62, "duration": 7, "velocity": 93}, {"time": 2721, "pitch": 54, "duration": 4, "velocity": 80}, {"time": 2727, "pitch": 54, "duration": 3, "velocity": 82}, {"time": 2727, "pitch": 59, "duration": 7, "velocity": 87}, {"time": 2733, "pitch": 54, "duration": 4, "velocity": 97}, {"time": 2739, "pitch": 42, "duration": 34, "velocity": 80}, {"time": 2739, "pitch": 61, "duration": 7, "velocity": 80}, {"time": 2745, "pitch": 54, "duration": 7, "velocity": 78}, {"time": 2751, "pitch": 58, "duration": 6, "velocity": 94}, {"time": 2757, "pitch": 54, "duration": 6, "velocity": 94}, {"time": 2763, "pitch": 61, "duration": 7, "velocity": 87}, {"time": 2769, "pitch": 54, "duration": 7, "velocity": 92}, {"time": 2775, "pitch": 42, "duration": 4, "velocity": 82}, {"time": 2775, "pitch": 58, "duration": 6, "velocity": 73}, {"time": 2781, "pitch": 54, "duration": 2, "velocity": 94}, {"time": 2787, "pitch": 46, "duration": 47, "velocity": 53}, {"time": 2787, "pitch": 62, "duration": 7, "velocity": 52}, {"time": 2793, "pitch": 58, "duration": 8, "velocity": 66}, {"time": 2799, "pitch": 62, "duration": 7, "velocity": 99}, {"time": 2805, "pitch": 58, "duration": 7, "velocity": 82}, {"time": 2811, "pitch": 62, "duration": 7, "velocity": 72}, {"time": 2811, "pitch": 65, "duration": 7, "velocity": 99}, {"time": 2817, "pitch": 58, "duration": 7, "velocity": 66}, {"time": 2823, "pitch": 62, "duration": 6, "velocity": 87}, {"time": 2823, "pitch": 65, "duration": 7, "velocity": 99}, {"time": 2829, "pitch": 58, "duration": 6, "velocity": 92}, {"time": 2835, "pitch": 51, "duration": 39, "velocity": 92}, {"time": 2835, "pitch": 63, "duration": 6, "velocity": 84}, {"time": 2841, "pitch": 58, "duration": 7, "velocity": 89}, {"time": 2847, "pitch": 63, "duration": 7, "velocity": 87}, {"time": 2853, "pitch": 58, "duration": 7, "velocity": 92}, {"time": 2859, "pitch": 66, "duration": 9, "velocity": 100}, {"time": 2865, "pitch": 58, "duration": 7, "velocity": 100}, {"time": 2871, "pitch": 63, "duration": 5, "velocity": 94}, {"time": 2877, "pitch": 58, "duration": 2, "velocity": 97}, {"time": 2883, "pitch": 47, "duration": 44, "velocity": 84}, {"time": 2883, "pitch": 59, "duration": 7, "velocity": 89}, {"time": 2889, "pitch": 54, "duration": 7, "velocity": 45}, {"time": 2895, "pitch": 59, "duration": 7, "velocity": 89}, {"time": 2901, "pitch": 54, "duration": 7, "velocity": 55}, {"time": 2907, "pitch": 59, "duration": 7, "velocity": 92}, {"time": 2907, "pitch": 62, "duration": 7, "velocity": 93}, {"time": 2913, "pitch": 54, "duration": 4, "velocity": 80}, {"time": 2919, "pitch": 54, "duration": 3, "velocity": 82}, {"time": 2919, "pitch": 59, "duration": 7, "velocity": 87}, {"time": 2925, "pitch": 54, "duration": 4, "velocity": 97}, {"time": 2931, "pitch": 42, "duration": 34, "velocity": 80}, {"time": 2931, "pitch": 61, "duration": 7, "velocity": 80}, {"time": 2937, "pitch": 54, "duration": 7, "velocity": 78}, {"time": 2943, "pitch": 58, "duration": 6, "velocity": 94}, {"time": 2949, "pitch": 54, "duration": 6, "velocity": 94}, {"time": 2955, "pitch": 61, "duration": 7, "velocity": 87}, {"time": 2961, "pitch": 54, "duration": 7, "velocity": 92}, {"time": 2967, "pitch": 42, "duration": 4, "velocity": 82}, {"time": 2967, "pitch": 58, "duration": 6, "velocity": 73}, {"time": 2973, "pitch": 54, "duration": 2, "velocity": 94}, {"time": 2979, "pitch": 46, "duration": 47, "velocity": 53}, {"time": 2979, "pitch": 62, "duration": 7, "velocity": 52}, {"time": 2985, "pitch": 58, "duration": 8, "velocity": 66}, {"time": 2991, "pitch": 62, "duration": 7, "velocity": 99}, {"time": 2997, "pitch": 58, "duration": 7, "velocity": 82}, {"time": 3003, "pitch": 62, "duration": 7, "velocity": 72}, {"time": 3003, "pitch": 65, "duration": 7, "velocity": 99}, {"time": 3009, "pitch": 58, "duration": 7, "velocity": 66}, {"time": 3015, "pitch": 62, "duration": 6, "velocity": 87}, {"time": 3015, "pitch": 65, "duration": 7, "velocity": 99}, {"time": 3021, "pitch": 58, "duration": 6, "velocity": 92}, {"time": 3027, "pitch": 51, "duration": 39, "velocity": 92}, {"time": 3027, "pitch": 63, "duration": 6, "velocity": 84}, {"time": 3033, "pitch": 58, "duration": 7, "velocity": 89}, {"time": 3039, "pitch": 63, "duration": 7, "velocity": 87}, {"time": 3045, "pitch": 58, "duration": 7, "velocity": 92}, {"time": 3051, "pitch": 66, "duration": 9, "velocity": 100}, {"time": 3057, "pitch": 58, "duration": 7, "velocity": 100}, {"time": 3063, "pitch": 63, "duration": 5, "velocity": 94}, {"time": 3069, "pitch": 58, "duration": 2, "velocity": 97}, {"time": 3075, "pitch": 47, "duration": 44, "velocity": 84}, {"time": 3075, "pitch": 59, "duration": 7, "velocity": 89}, {"time": 3081, "pitch": 54, "duration": 7, "velocity": 45}, {"time": 3087, "pitch": 59, "duration": 7, "velocity": 89}, {"time": 3093, "pitch": 54, "duration": 7, "velocity": 55}, {"time": 3099, "pitch": 59, "duration": 7, "velocity": 92}, {"time": 3099, "pitch": 62, "duration": 7, "velocity": 93}, {"time": 3105, "pitch": 54, "duration": 4, "velocity": 80}, {"time": 3111, "pitch": 54, "duration": 3, "velocity": 82}, {"time": 3111, "pitch": 59, "duration": 7, "velocity": 87}, {"time": 3117, "pitch": 54, "duration": 4, "velocity": 97}, {"time": 3123, "pitch": 51, "duration": 11, "velocity": 101}, {"time": 3123, "pitch": 58, "duration": 8, "velocity": 89}, {"time": 3123, "pitch": 63, "duration": 7, "velocity": 93}, {"time": 3123, "pitch": 66, "duration": 6, "velocity": 93}, {"time": 3135, "pitch": 58, "duration": 3, "velocity": 95}, {"time": 3135, "pitch": 63, "duration": 3, "velocity": 97}, {"time": 3135, "pitch": 66, "duration": 4, "velocity": 97}, {"time": 3141, "pitch": 58, "duration": 2, "velocity": 61}, {"time": 3147, "pitch": 39, "duration": 14, "velocity": 96}, {"time": 3147, "pitch": 58, "duration": 4, "velocity": 94}, {"time": 3147, "pitch": 63, "duration": 8, "velocity": 95}, {"time": 3147, "pitch": 66, "duration": 8, "velocity": 95}, {"time": 3153, "pitch": 58, "duration": 3, "velocity": 83}, {"time": 3159, "pitch": 58, "duration": 3, "velocity": 99}, {"time": 3159, "pitch": 63, "duration": 7, "velocity": 100}, {"time": 3159, "pitch": 66, "duration": 10, "velocity": 96}, {"time": 3165, "pitch": 58, "duration": 5, "velocity": 90}, {"time": 3171, "pitch": 50, "duration": 22, "velocity": 98}, {"time": 3171, "pitch": 58, "duration": 4, "velocity": 94}, {"time": 3171, "pitch": 62, "duration": 6, "velocity": 96}, {"time": 3171, "pitch": 66, "duration": 7, "velocity": 94}, {"time": 3183, "pitch": 58, "duration": 2, "velocity": 95}, {"time": 3183, "pitch": 62, "duration": 3, "velocity": 100}, {"time": 3183, "pitch": 66, "duration": 4, "velocity": 95}, {"time": 3195, "pitch": 50, "duration": 15, "velocity": 96}, {"time": 3195, "pitch": 58, "duration": 3, "velocity": 90}, {"time": 3195, "pitch": 62, "duration": 5, "velocity": 96}, {"time": 3195, "pitch": 66, "duration": 7, "velocity": 93}, {"time": 3201, "pitch": 58, "duration": 2, "velocity": 69}, {"time": 3207, "pitch": 58, "duration": 2, "velocity": 95}, {"time": 3207, "pitch": 62, "duration": 2, "velocity": 108}, {"time": 3207, "pitch": 66, "duration": 3, "velocity": 97}, {"time": 3213, "pitch": 58, "duration": 2, "velocity": 85}, {"time": 3213, "pitch": 66, "duration": 2, "velocity": 85}, {"time": 3219, "pitch": 49, "duration": 40, "velocity": 95}, {"time": 3219, "pitch": 58, "duration": 3, "velocity": 88}, {"time": 3219, "pitch": 61, "duration": 7, "velocity": 94}, {"time": 3219, "pitch": 66, "duration": 6, "velocity": 93}, {"time": 3225, "pitch": 58, "duration": 2, "velocity": 79}, {"time": 3231, "pitch": 58, "duration": 3, "velocity": 94}, {"time": 3231, "pitch": 61, "duration": 3, "velocity": 98}, {"time": 3231, "pitch": 66, "duration": 3, "velocity": 95}, {"time": 3237, "pitch": 58, "duration": 2, "velocity": 67}, {"time": 3243, "pitch": 58, "duration": 3, "velocity": 94}, {"time": 3243, "pitch": 61, "duration": 4, "velocity": 100}, {"time": 3243, "pitch": 66, "duration": 4, "velocity": 94}, {"time": 3249, "pitch": 58, "duration": 2, "velocity": 78}, {"time": 3255, "pitch": 58, "duration": 3, "velocity": 94}, {"time": 3255, "pitch": 61, "duration": 2, "velocity": 95}, {"time": 3255, "pitch": 66, "duration": 8, "velocity": 89}, {"time": 3261, "pitch": 58, "duration": 2, "velocity": 72}, {"time": 3267, "pitch": 48, "duration": 17, "velocity": 101}, {"time": 3267, "pitch": 54, "duration": 7, "velocity": 94}, {"time": 3267, "pitch": 60, "duration": 8, "velocity": 95}, {"time": 3267, "pitch": 63, "duration": 8, "velocity": 94}, {"time": 3279, "pitch": 54, "duration": 3, "velocity": 92}, {"time": 3279, "pitch": 60, "duration": 4, "velocity": 96}, {"time": 3279, "pitch": 63, "duration": 7, "velocity": 95}, {"time": 3291, "pitch": 47, "duration": 22, "velocity": 96}, {"time": 3291, "pitch": 54, "duration": 21, "velocity": 89}, {"time": 3291, "pitch": 59, "duration": 21, "velocity": 86}, {"time": 3291, "pitch": 62, "duration": 21, "velocity": 95}, {"time": 3315, "pitch": 42, "duration": 39, "velocity": 92}, {"time": 3315, "pitch": 58, "duration": 4, "velocity": 80}, {"time": 3315, "pitch": 61, "duration": 6, "velocity": 84}, {"time": 3315, "pitch": 66, "duration": 7, "velocity": 85}, {"time": 3327, "pitch": 61, "duration": 3, "velocity": 55}, {"time": 3327, "pitch": 66, "duration": 3, "velocity": 54}, {"time": 3339, "pitch": 61, "duration": 4, "velocity": 80}, {"time": 3339, "pitch": 66, "duration": 4, "velocity": 81}, {"time": 3351, "pitch": 58, "duration": 3, "velocity": 85}, {"time": 3351, "pitch": 61, "duration": 3, "velocity": 88}, {"time": 3351, "pitch": 66, "duration": 7, "velocity": 88}, {"time": 3363, "pitch": 46, "duration": 39, "velocity": 88}, {"time": 3363, "pitch": 58, "duration": 6, "velocity": 80}, {"time": 3363, "pitch": 65, "duration": 6, "velocity": 94}, {"time": 3375, "pitch": 58, "duration": 4, "velocity": 64}, {"time": 3375, "pitch": 65, "duration": 5, "velocity": 65}, {"time": 3393, "pitch": 53, "duration": 8, "velocity": 72}, {"time": 3399, "pitch": 58, "duration": 3, "velocity": 90}, {"time": 3399, "pitch": 65, "duration": 4, "velocity": 95}, {"time": 3405, "pitch": 46, "duration": 6, "velocity": 92}, {"time": 3411, "pitch": 51, "duration": 43, "velocity": 94}, {"time": 3411, "pitch": 58, "duration": 7, "velocity": 80}, {"time": 3411, "pitch": 63, "duration": 7, "velocity": 85}, {"time": 3411, "pitch": 66, "duration": 7, "velocity": 86}, {"time": 3423, "pitch": 58, "duration": 4, "velocity": 80}, {"time": 3423, "pitch": 63, "duration": 4, "velocity": 82}, {"time": 3423, "pitch": 66, "duration": 4, "velocity": 85}, {"time": 3435, "pitch": 58, "duration": 8, "velocity": 70}, {"time": 3435, "pitch": 63, "duration": 8, "velocity": 80}, {"time": 3435, "pitch": 66, "duration": 8, "velocity": 80}, {"time": 3447, "pitch": 58, "duration": 4, "velocity": 90}, {"time": 3447, "pitch": 63, "duration": 5, "velocity": 95}, {"time": 3447, "pitch": 66, "duration": 9, "velocity": 92}, {"time": 3459, "pitch": 47, "duration": 22, "velocity": 105}, {"time": 3459, "pitch": 59, "duration": 3, "velocity": 78}, {"time": 3459, "pitch": 63, "duration": 7, "velocity": 88}, {"time": 3465, "pitch": 59, "duration": 3, "velocity": 95}, {"time": 3471, "pitch": 59, "duration": 3, "velocity": 98}, {"time": 3471, "pitch": 62, "duration": 5, "velocity": 101}, {"time": 3477, "pitch": 54, "duration": 4, "velocity": 95}, {"time": 3483, "pitch": 47, "duration": 15, "velocity": 108}, {"time": 3483, "pitch": 59, "duration": 7, "velocity": 101}, {"time": 3483, "pitch": 62, "duration": 7, "velocity": 100}, {"time": 3489, "pitch": 54, "duration": 4, "velocity": 95}, {"time": 3495, "pitch": 59, "duration": 6, "velocity": 100}, {"time": 3495, "pitch": 62, "duration": 7, "velocity": 100}, {"time": 3501, "pitch": 47, "duration": 3, "velocity": 111}, {"time": 3507, "pitch": 42, "duration": 34, "velocity": 80}, {"time": 3507, "pitch": 61, "duration": 7, "velocity": 80}, {"time": 3513, "pitch": 54, "duration": 7, "velocity": 78}, {"time": 3519, "pitch": 58, "duration": 6, "velocity": 94}, {"time": 3525, "pitch": 54, "duration": 6, "velocity": 94}, {"time": 3531, "pitch": 61, "duration": 7, "velocity": 87}, {"time": 3537, "pitch": 54, "duration": 7, "velocity": 92}, {"time": 3543, "pitch": 42, "duration": 4, "velocity": 82}, {"time": 3543, "pitch": 58, "duration": 6, "velocity": 73}, {"time": 3549, "pitch": 54, "duration": 2, "velocity": 94}, {"time": 3555, "pitch": 46, "duration": 47, "velocity": 53}, {"time": 3555, "pitch": 62, "duration": 7, "velocity": 52}, {"time": 3561, "pitch": 58, "duration": 8, "velocity": 66}, {"time": 3567, "pitch": 62, "duration": 7, "velocity": 99}, {"time": 3573, "pitch": 58, "duration": 7, "velocity": 82}, {"time": 3579, "pitch": 62, "duration": 7, "velocity": 72}, {"time": 3579, "pitch": 65, "duration": 7, "velocity": 99}, {"time": 3585, "pitch": 58, "duration": 7, "velocity": 66}, {"time": 3591, "pitch": 62, "duration": 6, "velocity": 87}, {"time": 3591, "pitch": 65, "duration": 7, "velocity": 99}, {"time": 3597, "pitch": 58, "duration": 6, "velocity": 92}, {"time": 3603, "pitch": 51, "duration": 39, "velocity": 92}, {"time": 3603, "pitch": 63, "duration": 6, "velocity": 84}, {"time": 3609, "pitch": 58, "duration": 7, "velocity": 89}, {"time": 3615, "pitch": 63, "duration": 7, "velocity": 87}, {"time": 3621, "pitch": 58, "duration": 7, "velocity": 92}, {"time": 3627, "pitch": 66, "duration": 9, "velocity": 100}, {"time": 3633, "pitch": 58, "duration": 7, "velocity": 100}, {"time": 3639, "pitch": 63, "duration": 5, "velocity": 94}, {"time": 3645, "pitch": 58, "duration": 2, "velocity": 97}, {"time": 3651, "pitch": 47, "duration": 44, "velocity": 84}, {"time": 3651, "pitch": 59, "duration": 7, "velocity": 89}, {"time": 3657, "pitch": 54, "duration": 7, "velocity": 45}, {"time": 3663, "pitch": 59, "duration": 7, "velocity": 89}, {"time": 3669, "pitch": 54, "duration": 7, "velocity": 55}, {"time": 3675, "pitch": 59, "duration": 7, "velocity": 92}, {"time": 3675, "pitch": 62, "duration": 7, "velocity": 93}, {"time": 3681, "pitch": 54, "duration": 4, "velocity": 80}, {"time": 3687, "pitch": 54, "duration": 3, "velocity": 82}, {"time": 3687, "pitch": 59, "duration": 7, "velocity": 87}, {"time": 3693, "pitch": 54, "duration": 4, "velocity": 97}, {"time": 3699, "pitch": 42, "duration": 34, "velocity": 80}, {"time": 3699, "pitch": 61, "duration": 7, "velocity": 80}, {"time": 3705, "pitch": 54, "duration": 7, "velocity": 78}, {"time": 3711, "pitch": 58, "duration": 6, "velocity": 94}, {"time": 3717, "pitch": 54, "duration": 6, "velocity": 94}, {"time": 3723, "pitch": 61, "duration": 7, "velocity": 87}, {"time": 3729, "pitch": 54, "duration": 7, "velocity": 92}, {"time": 3735, "pitch": 42, "duration": 4, "velocity": 82}, {"time": 3735, "pitch": 58, "duration": 6, "velocity": 73}, {"time": 3741, "pitch": 54, "duration": 2, "velocity": 94}, {"time": 3747, "pitch": 46, "duration": 47, "velocity": 53}, {"time": 3747, "pitch": 62, "duration": 7, "velocity": 52}, {"time": 3753, "pitch": 58, "duration": 8, "velocity": 66}, {"time": 3759, "pitch": 62, "duration": 7, "velocity": 99}, {"time": 3765, "pitch": 58, "duration": 7, "velocity": 82}, {"time": 3771, "pitch": 62, "duration": 7, "velocity": 72}, {"time": 3771, "pitch": 65, "duration": 7, "velocity": 99}, {"time": 3777, "pitch": 58, "duration": 7, "velocity": 66}, {"time": 3783, "pitch": 62, "duration": 6, "velocity": 87}, {"time": 3783, "pitch": 65, "duration": 7, "velocity": 99}, {"time": 3789, "pitch": 58, "duration": 6, "velocity": 92}, {"time": 3795, "pitch": 51, "duration": 39, "velocity": 92}, {"time": 3795, "pitch": 63, "duration": 6, "velocity": 84}, {"time": 3801, "pitch": 58, "duration": 7, "velocity": 89}, {"time": 3807, "pitch": 63, "duration": 7, "velocity": 87}, {"time": 3813, "pitch": 58, "duration": 7, "velocity": 92}, {"time": 3819, "pitch": 66, "duration": 9, "velocity": 100}, {"time": 3825, "pitch": 58, "duration": 7, "velocity": 100}, {"time": 3831, "pitch": 63, "duration": 5, "velocity": 94}, {"time": 3837, "pitch": 58, "duration": 2, "velocity": 97}, {"time": 3843, "pitch": 47, "duration": 44, "velocity": 84}, {"time": 3843, "pitch": 59, "duration": 7, "velocity": 89}, {"time": 3849, "pitch": 54, "duration": 7, "velocity": 45}, {"time": 3855, "pitch": 59, "duration": 7, "velocity": 89}, {"time": 3861, "pitch": 54, "duration": 7, "velocity": 55}, {"time": 3867, "pitch": 59, "duration": 7, "velocity": 92}, {"time": 3867, "pitch": 62, "duration": 7, "velocity": 93}, {"time": 3873, "pitch": 54, "duration": 4, "velocity": 80}, {"time": 3879, "pitch": 54, "duration": 3, "velocity": 82}, {"time": 3879, "pitch": 59, "duration": 7, "velocity": 87}, {"time": 3885, "pitch": 54, "duration": 4, "velocity": 97}, {"time": 3891, "pitch": 42, "duration": 34, "velocity": 80}, {"time": 3891, "pitch": 61, "duration": 7, "velocity": 80}, {"time": 3897, "pitch": 54, "duration": 7, "velocity": 78}, {"time": 3903, "pitch": 58, "duration": 6, "velocity": 94}, {"time": 3909, "pitch": 54, "duration": 6, "velocity": 94}, {"time": 3915, "pitch": 61, "duration": 7, "velocity": 87}, {"time": 3921, "pitch": 54, "duration": 7, "velocity": 92}, {"time": 3927, "pitch": 42, "duration": 4, "velocity": 82}, {"time": 3927, "pitch": 58, "duration": 6, "velocity": 73}, {"time": 3933, "pitch": 54, "duration": 2, "velocity": 94}, {"time": 3939, "pitch": 46, "duration": 47, "velocity": 53}, {"time": 3939, "pitch": 62, "duration": 7, "velocity": 52}, {"time": 3945, "pitch": 58, "duration": 8, "velocity": 66}, {"time": 3951, "pitch": 62, "duration": 7, "velocity": 99}, {"time": 3957, "pitch": 58, "duration": 7, "velocity": 82}, {"time": 3963, "pitch": 62, "duration": 7, "velocity": 72}, {"time": 3963, "pitch": 65, "duration": 7, "velocity": 99}, {"time": 3969, "pitch": 58, "duration": 7, "velocity": 66}, {"time": 3975, "pitch": 62, "duration": 6, "velocity": 87}, {"time": 3975, "pitch": 65, "duration": 7, "velocity": 99}, {"time": 3981, "pitch": 58, "duration": 6, "velocity": 92}, {"time": 3987, "pitch": 51, "duration": 39, "velocity": 92}, {"time": 3987, "pitch": 63, "duration": 6, "velocity": 84}, {"time": 3993, "pitch": 58, "duration": 7, "velocity": 89}, {"time": 3999, "pitch": 63, "duration": 7, "velocity": 87}, {"time": 4005, "pitch": 58, "duration": 7, "velocity": 92}, {"time": 4011, "pitch": 66, "duration": 9, "velocity": 100}, {"time": 4017, "pitch": 58, "duration": 7, "velocity": 100}, {"time": 4023, "pitch": 63, "duration": 5, "velocity": 94}, {"time": 4029, "pitch": 58, "duration": 2, "velocity": 97}, {"time": 4035, "pitch": 47, "duration": 34, "velocity": 84}, {"time": 4035, "pitch": 59, "duration": 7, "velocity": 89}, {"time": 4041, "pitch": 54, "duration": 7, "velocity": 45}, {"time": 4047, "pitch": 59, "duration": 7, "velocity": 89}, {"time": 4053, "pitch": 54, "duration": 7, "velocity": 55}, {"time": 4059, "pitch": 59, "duration": 7, "velocity": 92}, {"time": 4059, "pitch": 62, "duration": 7, "velocity": 93}, {"time": 4065, "pitch": 54, "duration": 4, "velocity": 80}, {"time": 4069, "pitch": 54, "duration": 58, "velocity": 82}, {"time": 4070, "pitch": 59, "duration": 58, "velocity": 79}, {"time": 4070, "pitch": 47, "duration": 39, "velocity": 93}, {"time": 4070, "pitch": 62, "duration": 58, "velocity": 82}, {"time": 4071, "pitch": 66, "duration": 57, "velocity": 82}, {"time": 4131, "pitch": 42, "duration": 45, "velocity": 95}, {"time": 4131, "pitch": 54, "duration": 9, "velocity": 95}, {"time": 4137, "pitch": 49, "duration": 38, "velocity": 84}, {"time": 4143, "pitch": 54, "duration": 38, "velocity": 77}, {"time": 4179, "pitch": 42, "duration": 45, "velocity": 94}, {"time": 4185, "pitch": 54, "duration": 6, "velocity": 89}, {"time": 4191, "pitch": 58, "duration": 4, "velocity": 82}, {"time": 4197, "pitch": 58, "duration": 35, "velocity": 84}, {"time": 4227, "pitch": 42, "duration": 45, "velocity": 95}, {"time": 4233, "pitch": 54, "duration": 10, "velocity": 81}, {"time": 4245, "pitch": 58, "duration": 35, "velocity": 83}, {"time": 4275, "pitch": 42, "duration": 37, "velocity": 93}, {"time": 4281, "pitch": 54, "duration": 9, "velocity": 67}, {"time": 4293, "pitch": 58, "duration": 22, "velocity": 83}], "annotations": [{"time": 202, "annotation": {"number": 64, "value": 127}, "group": "control_change"}, {"time": 203, "annotation": {"number": 64, "value": 0}, "group": "control_change"}, {"time": 203, "annotation": {"number": 64, "value": 127}, "group": "control_change"}, {"time": 242, "annotation": {"number": 64, "value": 0}, "group": "control_change"}, {"time": 246, "annotation": {"number": 64, "value": 127}, "group": "control_change"}, {"time": 289, "annotation": {"number": 64, "value": 0}, "group": "control_change"}, {"time": 293, "annotation": {"number": 64, "value": 127}, "group": "control_change"}, {"time": 338, "annotation": {"number": 64, "value": 0}, "group": "control_change"}, {"time": 342, "annotation": {"number": 64, "value": 127}, "group": "control_change"}, {"time": 384, "annotation": {"number": 64, "value": 0}, "group": "control_change"}, {"time": 391, "annotation": {"number": 64, "value": 127}, "group": "control_change"}, {"time": 435, "annotation": {"number": 64, "value": 0}, "group": "control_change"}, {"time": 445, "annotation": {"number": 64, "value": 127}, "group": "control_change"}, {"time": 481, "annotation": {"number": 64, "value": 0}, "group": "control_change"}, {"time": 491, "annotation": {"number": 64, "value": 127}, "group": "control_change"}, {"time": 491, "annotation": {"number": 64, "value": 0}, "group": "control_change"}, {"time": 530, "annotation": {"number": 64, "value": 0}, "group": "control_change"}, {"time": 537, "annotation": {"number": 64, "value": 127}, "group": "control_change"}, {"time": 537, "annotation": {"number": 64, "value": 0}, "group": "control_change"}, {"time": 576, "annotation": {"number": 64, "value": 0}, "group": "control_change"}, {"time": 586, "annotation": {"number": 64, "value": 127}, "group": "control_change"}, {"time": 586, "annotation": {"number": 64, "value": 0}, "group": "control_change"}, {"time": 627, "annotation": {"number": 64, "value": 0}, "group": "control_change"}, {"time": 635, "annotation": {"number": 64, "value": 127}, "group": "control_change"}, {"time": 673, "annotation": {"number": 64, "value": 0}, "group": "control_change"}, {"time": 679, "annotation": {"number": 64, "value": 127}, "group": "control_change"}, {"time": 722, "annotation": {"number": 64, "value": 0}, "group": "control_change"}, {"time": 728, "annotation": {"number": 64, "value": 127}, "group": "control_change"}, {"time": 728, "annotation": {"number": 64, "value": 0}, "group": "control_change"}, {"time": 729, "annotation": {"number": 64, "value": 127}, "group": "control_change"}, {"time": 767, "annotation": {"number": 64, "value": 0}, "group": "control_change"}, {"time": 772, "annotation": {"number": 64, "value": 127}, "group": "control_change"}, {"time": 818, "annotation": {"number": 64, "value": 0}, "group": "control_change"}, {"time": 821, "annotation": {"number": 64, "value": 127}, "group": "control_change"}, {"time": 868, "annotation": {"number": 64, "value": 127}, "group": "control_change"}, {"time": 888, "annotation": {"number": 64, "value": 0}, "group": "control_change"}, {"time": 892, "annotation": {"number": 64, "value": 127}, "group": "control_change"}, {"time": 913, "annotation": {"number": 64, "value": 0}, "group": "control_change"}, {"time": 917, "annotation": {"number": 64, "value": 127}, "group": "control_change"}, {"time": 962, "annotation": {"number": 64, "value": 0}, "group": "control_change"}, {"time": 964, "annotation": {"number": 64, "value": 127}, "group": "control_change"}, {"time": 1010, "annotation": {"number": 64, "value": 0}, "group": "control_change"}, {"time": 1013, "annotation": {"number": 64, "value": 127}, "group": "control_change"}, {"time": 1060, "annotation": {"number": 64, "value": 127}, "group": "control_change"}, {"time": 1080, "annotation": {"number": 64, "value": 0}, "group": "control_change"}, {"time": 1084, "annotation": {"number": 64, "value": 127}, "group": "control_change"}, {"time": 1105, "annotation": {"number": 64, "value": 0}, "group": "control_change"}, {"time": 1109, "annotation": {"number": 64, "value": 127}, "group": "control_change"}, {"time": 1154, "annotation": {"number": 64, "value": 0}, "group": "control_change"}, {"time": 1157, "annotation": {"number": 64, "value": 127}, "group": "control_change"}, {"time": 1158, "annotation": {"number": 64, "value": 0}, "group": "control_change"}, {"time": 1158, "annotation": {"number": 64, "value": 127}, "group": "control_change"}, {"time": 1203, "annotation": {"number": 64, "value": 0}, "group": "control_change"}, {"time": 1206, "annotation": {"number": 64, "value": 127}, "group": "control_change"}, {"time": 1251, "annotation": {"number": 64, "value": 0}, "group": "control_change"}, {"time": 1253, "annotation": {"number": 64, "value": 127}, "group": "control_change"}, {"time": 1299, "annotation": {"number": 64, "value": 0}, "group": "control_change"}, {"time": 1301, "annotation": {"number": 64, "value": 127}, "group": "control_change"}, {"time": 1347, "annotation": {"number": 64, "value": 0}, "group": "control_change"}, {"time": 1349, "annotation": {"number": 64, "value": 127}, "group": "control_change"}, {"time": 1350, "annotation": {"number": 64, "value": 0}, "group": "control_change"}, {"time": 1350, "annotation": {"number": 64, "value": 127}, "group": "control_change"}, {"time": 1395, "annotation": {"number": 64, "value": 0}, "group": "control_change"}, {"time": 1398, "annotation": {"number": 64, "value": 127}, "group": "control_change"}, {"time": 1443, "annotation": {"number": 64, "value": 0}, "group": "control_change"}, {"time": 1445, "annotation": {"number": 64, "value": 127}, "group": "control_change"}, {"time": 1491, "annotation": {"number": 64, "value": 0}, "group": "control_change"}, {"time": 1493, "annotation": {"number": 64, "value": 127}, "group": "control_change"}, {"time": 1539, "annotation": {"number": 64, "value": 0}, "group": "control_change"}, {"time": 1540, "annotation": {"number": 64, "value": 127}, "group": "control_change"}, {"time": 1540, "annotation": {"number": 64, "value": 0}, "group": "control_change"}, {"time": 1584, "annotation": {"number": 64, "value": 0}, "group": "control_change"}, {"time": 1589, "annotation": {"number": 64, "value": 127}, "group": "control_change"}, {"time": 1635, "annotation": {"number": 64, "value": 0}, "group": "control_change"}, {"time": 1638, "annotation": {"number": 64, "value": 127}, "group": "control_change"}, {"time": 1681, "annotation": {"number": 64, "value": 0}, "group": "control_change"}, {"time": 1685, "annotation": {"number": 64, "value": 127}, "group": "control_change"}, {"time": 1731, "annotation": {"number": 64, "value": 0}, "group": "control_change"}, {"time": 1734, "annotation": {"number": 64, "value": 127}, "group": "control_change"}, {"time": 1774, "annotation": {"number": 64, "value": 0}, "group": "control_change"}, {"time": 1781, "annotation": {"number": 64, "value": 127}, "group": "control_change"}, {"time": 1827, "annotation": {"number": 64, "value": 0}, "group": "control_change"}, {"time": 1830, "annotation": {"number": 64, "value": 127}, "group": "control_change"}, {"time": 1873, "annotation": {"number": 64, "value": 0}, "group": "control_change"}, {"time": 1877, "annotation": {"number": 64, "value": 127}, "group": "control_change"}, {"time": 1923, "annotation": {"number": 64, "value": 0}, "group": "control_change"}, {"time": 1926, "annotation": {"number": 64, "value": 127}, "group": "control_change"}, {"time": 1966, "annotation": {"number": 64, "value": 0}, "group": "control_change"}, {"time": 1972, "annotation": {"number": 64, "value": 127}, "group": "control_change"}, {"time": 2018, "annotation": {"number": 64, "value": 0}, "group": "control_change"}, {"time": 2021, "annotation": {"number": 64, "value": 127}, "group": "control_change"}, {"time": 2068, "annotation": {"number": 64, "value": 127}, "group": "control_change"}, {"time": 2088, "annotation": {"number": 64, "value": 0}, "group": "control_change"}, {"time": 2092, "annotation": {"number": 64, "value": 127}, "group": "control_change"}, {"time": 2113, "annotation": {"number": 64, "value": 0}, "group": "control_change"}, {"time": 2117, "annotation": {"number": 64, "value": 127}, "group": "control_change"}, {"time": 2162, "annotation": {"number": 64, "value": 0}, "group": "control_change"}, {"time": 2164, "annotation": {"number": 64, "value": 127}, "group": "control_change"}, {"time": 2210, "annotation": {"number": 64, "value": 0}, "group": "control_change"}, {"time": 2213, "annotation": {"number": 64, "value": 127}, "group": "control_change"}, {"time": 2260, "annotation": {"number": 64, "value": 127}, "group": "control_change"}, {"time": 2280, "annotation": {"number": 64, "value": 0}, "group": "control_change"}, {"time": 2284, "annotation": {"number": 64, "value": 127}, "group": "control_change"}, {"time": 2305, "annotation": {"number": 64, "value": 0}, "group": "control_change"}, {"time": 2309, "annotation": {"number": 64, "value": 127}, "group": "control_change"}, {"time": 2354, "annotation": {"number": 64, "value": 0}, "group": "control_change"}, {"time": 2357, "annotation": {"number": 64, "value": 127}, "group": "control_change"}, {"time": 2358, "annotation": {"number": 64, "value": 0}, "group": "control_change"}, {"time": 2358, "annotation": {"number": 64, "value": 127}, "group": "control_change"}, {"time": 2403, "annotation": {"number": 64, "value": 0}, "group": "control_change"}, {"time": 2406, "annotation": {"number": 64, "value": 127}, "group": "control_change"}, {"time": 2451, "annotation": {"number": 64, "value": 0}, "group": "control_change"}, {"time": 2453, "annotation": {"number": 64, "value": 127}, "group": "control_change"}, {"time": 2499, "annotation": {"number": 64, "value": 0}, "group": "control_change"}, {"time": 2501, "annotation": {"number": 64, "value": 127}, "group": "control_change"}, {"time": 2547, "annotation": {"number": 64, "value": 0}, "group": "control_change"}, {"time": 2549, "annotation": {"number": 64, "value": 127}, "group": "control_change"}, {"time": 2550, "annotation": {"number": 64, "value": 0}, "group": "control_change"}, {"time": 2550, "annotation": {"number": 64, "value": 127}, "group": "control_change"}, {"time": 2595, "annotation": {"number": 64, "value": 0}, "group": "control_change"}, {"time": 2598, "annotation": {"number": 64, "value": 127}, "group": "control_change"}, {"time": 2643, "annotation": {"number": 64, "value": 0}, "group": "control_change"}, {"time": 2645, "annotation": {"number": 64, "value": 127}, "group": "control_change"}, {"time": 2691, "annotation": {"number": 64, "value": 0}, "group": "control_change"}, {"time": 2693, "annotation": {"number": 64, "value": 127}, "group": "control_change"}, {"time": 2739, "annotation": {"number": 64, "value": 0}, "group": "control_change"}, {"time": 2741, "annotation": {"number": 64, "value": 127}, "group": "control_change"}, {"time": 2742, "annotation": {"number": 64, "value": 0}, "group": "control_change"}, {"time": 2742, "annotation": {"number": 64, "value": 127}, "group": "control_change"}, {"time": 2787, "annotation": {"number": 64, "value": 0}, "group": "control_change"}, {"time": 2790, "annotation": {"number": 64, "value": 127}, "group": "control_change"}, {"time": 2835, "annotation": {"number": 64, "value": 0}, "group": "control_change"}, {"time": 2837, "annotation": {"number": 64, "value": 127}, "group": "control_change"}, {"time": 2883, "annotation": {"number": 64, "value": 0}, "group": "control_change"}, {"time": 2885, "annotation": {"number": 64, "value": 127}, "group": "control_change"}, {"time": 2931, "annotation": {"number": 64, "value": 0}, "group": "control_change"}, {"time": 2933, "annotation": {"number": 64, "value": 127}, "group": "control_change"}, {"time": 2934, "annotation": {"number": 64, "value": 0}, "group": "control_change"}, {"time": 2934, "annotation": {"number": 64, "value": 127}, "group": "control_change"}, {"time": 2979, "annotation": {"number": 64, "value": 0}, "group": "control_change"}, {"time": 2982, "annotation": {"number": 64, "value": 127}, "group": "control_change"}, {"time": 3027, "annotation": {"number": 64, "value": 0}, "group": "control_change"}, {"time": 3029, "annotation": {"number": 64, "value": 127}, "group": "control_change"}, {"time": 3075, "annotation": {"number": 64, "value": 0}, "group": "control_change"}, {"time": 3077, "annotation": {"number": 64, "value": 127}, "group": "control_change"}, {"time": 3123, "annotation": {"number": 64, "value": 0}, "group": "control_change"}, {"time": 3124, "annotation": {"number": 64, "value": 127}, "group": "control_change"}, {"time": 3146, "annotation": {"number": 64, "value": 0}, "group": "control_change"}, {"time": 3149, "annotation": {"number": 64, "value": 127}, "group": "control_change"}, {"time": 3169, "annotation": {"number": 64, "value": 0}, "group": "control_change"}, {"time": 3171, "annotation": {"number": 64, "value": 127}, "group": "control_change"}, {"time": 3194, "annotation": {"number": 64, "value": 0}, "group": "control_change"}, {"time": 3196, "annotation": {"number": 64, "value": 127}, "group": "control_change"}, {"time": 3220, "annotation": {"number": 64, "value": 0}, "group": "control_change"}, {"time": 3222, "annotation": {"number": 64, "value": 127}, "group": "control_change"}, {"time": 3265, "annotation": {"number": 64, "value": 0}, "group": "control_change"}, {"time": 3267, "annotation": {"number": 64, "value": 127}, "group": "control_change"}, {"time": 3290, "annotation": {"number": 64, "value": 0}, "group": "control_change"}, {"time": 3316, "annotation": {"number": 64, "value": 127}, "group": "control_change"}, {"time": 3362, "annotation": {"number": 64, "value": 0}, "group": "control_change"}, {"time": 3366, "annotation": {"number": 64, "value": 127}, "group": "control_change"}, {"time": 3408, "annotation": {"number": 64, "value": 0}, "group": "control_change"}, {"time": 3411, "annotation": {"number": 64, "value": 127}, "group": "control_change"}, {"time": 3458, "annotation": {"number": 64, "value": 0}, "group": "control_change"}, {"time": 3460, "annotation": {"number": 64, "value": 127}, "group": "control_change"}, {"time": 3483, "annotation": {"number": 64, "value": 0}, "group": "control_change"}, {"time": 3485, "annotation": {"number": 64, "value": 127}, "group": "control_change"}, {"time": 3506, "annotation": {"number": 64, "value": 0}, "group": "control_change"}, {"time": 3509, "annotation": {"number": 64, "value": 127}, "group": "control_change"}, {"time": 3510, "annotation": {"number": 64, "value": 0}, "group": "control_change"}, {"time": 3510, "annotation": {"number": 64, "value": 127}, "group": "control_change"}, {"time": 3555, "annotation": {"number": 64, "value": 0}, "group": "control_change"}, {"time": 3558, "annotation": {"number": 64, "value": 127}, "group": "control_change"}, {"time": 3603, "annotation": {"number": 64, "value": 0}, "group": "control_change"}, {"time": 3605, "annotation": {"number": 64, "value": 127}, "group": "control_change"}, {"time": 3651, "annotation": {"number": 64, "value": 0}, "group": "control_change"}, {"time": 3653, "annotation": {"number": 64, "value": 127}, "group": "control_change"}, {"time": 3699, "annotation": {"number": 64, "value": 0}, "group": "control_change"}, {"time": 3701, "annotation": {"number": 64, "value": 127}, "group": "control_change"}, {"time": 3702, "annotation": {"number": 64, "value": 0}, "group": "control_change"}, {"time": 3702, "annotation": {"number": 64, "value": 127}, "group": "control_change"}, {"time": 3747, "annotation": {"number": 64, "value": 0}, "group": "control_change"}, {"time": 3750, "annotation": {"number": 64, "value": 127}, "group": "control_change"}, {"time": 3795, "annotation": {"number": 64, "value": 0}, "group": "control_change"}, {"time": 3797, "annotation": {"number": 64, "value": 127}, "group": "control_change"}, {"time": 3843, "annotation": {"number": 64, "value": 0}, "group": "control_change"}, {"time": 3845, "annotation": {"number": 64, "value": 127}, "group": "control_change"}, {"time": 3891, "annotation": {"number": 64, "value": 0}, "group": "control_change"}, {"time": 3893, "annotation": {"number": 64, "value": 127}, "group": "control_change"}, {"time": 3894, "annotation": {"number": 64, "value": 0}, "group": "control_change"}, {"time": 3894, "annotation": {"number": 64, "value": 127}, "group": "control_change"}, {"time": 3939, "annotation": {"number": 64, "value": 0}, "group": "control_change"}, {"time": 3942, "annotation": {"number": 64, "value": 127}, "group": "control_change"}, {"time": 3987, "annotation": {"number": 64, "value": 0}, "group": "control_change"}, {"time": 3989, "annotation": {"number": 64, "value": 127}, "group": "control_change"}, {"time": 4035, "annotation": {"number": 64, "value": 0}, "group": "control_change"}, {"time": 4037, "annotation": {"number": 64, "value": 127}, "group": "control_change"}, {"time": 4071, "annotation": {"number": 64, "value": 127}, "group": "control_change"}, {"time": 4071, "annotation": {"number": 64, "value": 0}, "group": "control_change"}, {"time": 4083, "annotation": {"number": 64, "value": 0}, "group": "control_change"}, {"time": 4126, "annotation": {"number": 64, "value": 0}, "group": "control_change"}, {"time": 4138, "annotation": {"number": 64, "value": 127}, "group": "control_change"}, {"time": 4139, "annotation": {"number": 64, "value": 0}, "group": "control_change"}, {"time": 4139, "annotation": {"number": 64, "value": 127}, "group": "control_change"}, {"time": 4178, "annotation": {"number": 64, "value": 0}, "group": "control_change"}, {"time": 4182, "annotation": {"number": 64, "value": 127}, "group": "control_change"}, {"time": 4225, "annotation": {"number": 64, "value": 0}, "group": "control_change"}, {"time": 4229, "annotation": {"number": 64, "value": 127}, "group": "control_change"}, {"time": 4274, "annotation": {"number": 64, "value": 0}, "group": "control_change"}, {"time": 4278, "annotation": {"number": 64, "value": 127}, "group": "control_change"}, {"time": 4320, "annotation": {"number": 64, "value": 0}, "group": "control_change"}]}]}