{"metadata": {"schema_version": "0.2", "title": "None", "source_filename": "436.mid", "source_format": "midi"}, "resolution": 12, "tempos": [{"time": 0, "qpm": 115.00002875000719}], "time_signatures": [{"time": 0, "numerator": 1, "denominator": 4}], "tracks": [{"program": 4, "is_drum": false, "name": "MELODY", "notes": [{"time": 441, "pitch": 52, "duration": 6, "velocity": 95}, {"time": 447, "pitch": 52, "duration": 6, "velocity": 96}, {"time": 453, "pitch": 52, "duration": 12, "velocity": 102}, {"time": 465, "pitch": 49, "duration": 6, "velocity": 97}, {"time": 471, "pitch": 52, "duration": 6, "velocity": 96}, {"time": 477, "pitch": 56, "duration": 6, "velocity": 99}, {"time": 483, "pitch": 54, "duration": 54, "velocity": 98}, {"time": 537, "pitch": 63, "duration": 6, "velocity": 95}, {"time": 543, "pitch": 63, "duration": 6, "velocity": 96}, {"time": 549, "pitch": 63, "duration": 6, "velocity": 97}, {"time": 555, "pitch": 63, "duration": 6, "velocity": 99}, {"time": 561, "pitch": 59, "duration": 6, "velocity": 99}, {"time": 567, "pitch": 63, "duration": 6, "velocity": 97}, {"time": 573, "pitch": 66, "duration": 6, "velocity": 95}, {"time": 579, "pitch": 64, "duration": 54, "velocity": 97}, {"time": 633, "pitch": 64, "duration": 6, "velocity": 102}, {"time": 639, "pitch": 64, "duration": 6, "velocity": 97}, {"time": 645, "pitch": 64, "duration": 6, "velocity": 97}, {"time": 651, "pitch": 64, "duration": 6, "velocity": 95}, {"time": 657, "pitch": 61, "duration": 6, "velocity": 97}, {"time": 663, "pitch": 64, "duration": 6, "velocity": 94}, {"time": 669, "pitch": 68, "duration": 6, "velocity": 99}, {"time": 675, "pitch": 66, "duration": 30, "velocity": 102}, {"time": 705, "pitch": 64, "duration": 6, "velocity": 98}, {"time": 711, "pitch": 66, "duration": 6, "velocity": 97}, {"time": 717, "pitch": 64, "duration": 6, "velocity": 100}, {"time": 723, "pitch": 69, "duration": 12, "velocity": 96}, {"time": 735, "pitch": 68, "duration": 6, "velocity": 99}, {"time": 741, "pitch": 68, "duration": 12, "velocity": 101}, {"time": 753, "pitch": 66, "duration": 6, "velocity": 96}, {"time": 759, "pitch": 66, "duration": 6, "velocity": 95}, {"time": 765, "pitch": 68, "duration": 6, "velocity": 89}, {"time": 771, "pitch": 69, "duration": 12, "velocity": 99}, {"time": 783, "pitch": 68, "duration": 12, "velocity": 99}, {"time": 795, "pitch": 68, "duration": 6, "velocity": 99}, {"time": 801, "pitch": 66, "duration": 6, "velocity": 95}, {"time": 807, "pitch": 66, "duration": 6, "velocity": 99}, {"time": 813, "pitch": 64, "duration": 12, "velocity": 101}, {"time": 825, "pitch": 64, "duration": 6, "velocity": 97}, {"time": 831, "pitch": 64, "duration": 6, "velocity": 96}, {"time": 837, "pitch": 64, "duration": 6, "velocity": 97}, {"time": 843, "pitch": 64, "duration": 6, "velocity": 96}, {"time": 849, "pitch": 61, "duration": 6, "velocity": 101}, {"time": 855, "pitch": 64, "duration": 6, "velocity": 95}, {"time": 861, "pitch": 68, "duration": 6, "velocity": 98}, {"time": 867, "pitch": 66, "duration": 54, "velocity": 101}, {"time": 921, "pitch": 71, "duration": 6, "velocity": 96}, {"time": 927, "pitch": 71, "duration": 6, "velocity": 94}, {"time": 933, "pitch": 71, "duration": 6, "velocity": 96}, {"time": 939, "pitch": 71, "duration": 6, "velocity": 96}, {"time": 945, "pitch": 68, "duration": 6, "velocity": 95}, {"time": 951, "pitch": 66, "duration": 6, "velocity": 101}, {"time": 957, "pitch": 68, "duration": 12, "velocity": 96}, {"time": 969, "pitch": 66, "duration": 6, "velocity": 99}, {"time": 975, "pitch": 64, "duration": 42, "velocity": 97}, {"time": 1017, "pitch": 64, "duration": 6, "velocity": 95}, {"time": 1023, "pitch": 64, "duration": 6, "velocity": 96}, {"time": 1029, "pitch": 64, "duration": 6, "velocity": 96}, {"time": 1035, "pitch": 64, "duration": 6, "velocity": 100}, {"time": 1041, "pitch": 61, "duration": 6, "velocity": 101}, {"time": 1047, "pitch": 64, "duration": 6, "velocity": 99}, {"time": 1053, "pitch": 68, "duration": 12, "velocity": 102}, {"time": 1065, "pitch": 66, "duration": 12, "velocity": 102}, {"time": 1077, "pitch": 63, "duration": 6, "velocity": 95}, {"time": 1083, "pitch": 63, "duration": 6, "velocity": 97}, {"time": 1089, "pitch": 64, "duration": 6, "velocity": 97}, {"time": 1095, "pitch": 64, "duration": 6, "velocity": 99}, {"time": 1101, "pitch": 66, "duration": 12, "velocity": 97}, {"time": 1113, "pitch": 64, "duration": 60, "velocity": 99}, {"time": 1173, "pitch": 71, "duration": 6, "velocity": 96}, {"time": 1179, "pitch": 71, "duration": 6, "velocity": 99}, {"time": 1185, "pitch": 69, "duration": 6, "velocity": 99}, {"time": 1191, "pitch": 68, "duration": 6, "velocity": 100}, {"time": 1197, "pitch": 69, "duration": 6, "velocity": 98}, {"time": 1203, "pitch": 68, "duration": 18, "velocity": 109}, {"time": 1221, "pitch": 71, "duration": 6, "velocity": 96}, {"time": 1227, "pitch": 71, "duration": 6, "velocity": 99}, {"time": 1233, "pitch": 69, "duration": 6, "velocity": 91}, {"time": 1239, "pitch": 68, "duration": 6, "velocity": 97}, {"time": 1245, "pitch": 69, "duration": 6, "velocity": 96}, {"time": 1251, "pitch": 68, "duration": 6, "velocity": 101}, {"time": 1257, "pitch": 66, "duration": 12, "velocity": 97}, {"time": 1269, "pitch": 71, "duration": 6, "velocity": 96}, {"time": 1275, "pitch": 71, "duration": 6, "velocity": 97}, {"time": 1281, "pitch": 69, "duration": 6, "velocity": 97}, {"time": 1287, "pitch": 68, "duration": 6, "velocity": 100}, {"time": 1293, "pitch": 66, "duration": 6, "velocity": 98}, {"time": 1299, "pitch": 66, "duration": 6, "velocity": 90}, {"time": 1305, "pitch": 66, "duration": 6, "velocity": 95}, {"time": 1311, "pitch": 66, "duration": 6, "velocity": 99}, {"time": 1317, "pitch": 64, "duration": 6, "velocity": 99}, {"time": 1323, "pitch": 66, "duration": 6, "velocity": 96}, {"time": 1329, "pitch": 68, "duration": 12, "velocity": 97}, {"time": 1341, "pitch": 68, "duration": 24, "velocity": 99}, {"time": 1365, "pitch": 71, "duration": 6, "velocity": 98}, {"time": 1371, "pitch": 71, "duration": 6, "velocity": 98}, {"time": 1377, "pitch": 69, "duration": 6, "velocity": 97}, {"time": 1383, "pitch": 68, "duration": 6, "velocity": 99}, {"time": 1389, "pitch": 69, "duration": 6, "velocity": 96}, {"time": 1395, "pitch": 68, "duration": 18, "velocity": 99}, {"time": 1413, "pitch": 71, "duration": 6, "velocity": 95}, {"time": 1419, "pitch": 71, "duration": 6, "velocity": 99}, {"time": 1425, "pitch": 69, "duration": 6, "velocity": 97}, {"time": 1431, "pitch": 68, "duration": 6, "velocity": 102}, {"time": 1437, "pitch": 69, "duration": 12, "velocity": 96}, {"time": 1449, "pitch": 66, "duration": 12, "velocity": 96}, {"time": 1461, "pitch": 71, "duration": 6, "velocity": 94}, {"time": 1467, "pitch": 71, "duration": 6, "velocity": 97}, {"time": 1473, "pitch": 69, "duration": 6, "velocity": 96}, {"time": 1479, "pitch": 68, "duration": 6, "velocity": 96}, {"time": 1485, "pitch": 66, "duration": 6, "velocity": 95}, {"time": 1491, "pitch": 66, "duration": 6, "velocity": 91}, {"time": 1497, "pitch": 66, "duration": 12, "velocity": 106}, {"time": 1509, "pitch": 66, "duration": 6, "velocity": 86}, {"time": 1515, "pitch": 66, "duration": 6, "velocity": 99}, {"time": 1521, "pitch": 68, "duration": 6, "velocity": 100}, {"time": 1527, "pitch": 69, "duration": 6, "velocity": 96}, {"time": 1533, "pitch": 68, "duration": 24, "velocity": 102}, {"time": 1557, "pitch": 71, "duration": 6, "velocity": 99}, {"time": 1563, "pitch": 71, "duration": 6, "velocity": 97}, {"time": 1569, "pitch": 69, "duration": 6, "velocity": 91}, {"time": 1575, "pitch": 68, "duration": 6, "velocity": 97}, {"time": 1581, "pitch": 69, "duration": 6, "velocity": 95}, {"time": 1587, "pitch": 68, "duration": 18, "velocity": 100}, {"time": 1605, "pitch": 71, "duration": 6, "velocity": 100}, {"time": 1611, "pitch": 71, "duration": 6, "velocity": 97}, {"time": 1617, "pitch": 69, "duration": 6, "velocity": 94}, {"time": 1623, "pitch": 68, "duration": 6, "velocity": 97}, {"time": 1629, "pitch": 69, "duration": 6, "velocity": 91}, {"time": 1635, "pitch": 68, "duration": 6, "velocity": 96}, {"time": 1641, "pitch": 66, "duration": 12, "velocity": 97}, {"time": 1653, "pitch": 71, "duration": 6, "velocity": 97}, {"time": 1659, "pitch": 71, "duration": 6, "velocity": 97}, {"time": 1665, "pitch": 69, "duration": 6, "velocity": 95}, {"time": 1671, "pitch": 68, "duration": 6, "velocity": 99}, {"time": 1677, "pitch": 66, "duration": 6, "velocity": 90}, {"time": 1683, "pitch": 66, "duration": 6, "velocity": 96}, {"time": 1689, "pitch": 66, "duration": 12, "velocity": 90}, {"time": 1701, "pitch": 66, "duration": 6, "velocity": 95}, {"time": 1707, "pitch": 66, "duration": 6, "velocity": 99}, {"time": 1713, "pitch": 68, "duration": 6, "velocity": 98}, {"time": 1719, "pitch": 69, "duration": 6, "velocity": 90}, {"time": 1725, "pitch": 66, "duration": 6, "velocity": 99}, {"time": 1731, "pitch": 68, "duration": 36, "velocity": 101}, {"time": 1767, "pitch": 61, "duration": 6, "velocity": 96}, {"time": 1773, "pitch": 63, "duration": 6, "velocity": 99}, {"time": 1779, "pitch": 64, "duration": 12, "velocity": 97}, {"time": 1791, "pitch": 64, "duration": 12, "velocity": 98}, {"time": 1803, "pitch": 64, "duration": 6, "velocity": 101}, {"time": 1809, "pitch": 66, "duration": 6, "velocity": 96}, {"time": 1815, "pitch": 68, "duration": 6, "velocity": 96}, {"time": 1821, "pitch": 66, "duration": 30, "velocity": 101}, {"time": 1851, "pitch": 63, "duration": 6, "velocity": 100}, {"time": 1857, "pitch": 64, "duration": 6, "velocity": 95}, {"time": 1863, "pitch": 66, "duration": 6, "velocity": 99}, {"time": 1869, "pitch": 64, "duration": 39, "velocity": 99}, {"time": 2361, "pitch": 64, "duration": 6, "velocity": 97}, {"time": 2367, "pitch": 64, "duration": 6, "velocity": 96}, {"time": 2373, "pitch": 64, "duration": 6, "velocity": 97}, {"time": 2379, "pitch": 64, "duration": 6, "velocity": 96}, {"time": 2385, "pitch": 61, "duration": 6, "velocity": 101}, {"time": 2391, "pitch": 64, "duration": 6, "velocity": 95}, {"time": 2397, "pitch": 68, "duration": 6, "velocity": 98}, {"time": 2403, "pitch": 66, "duration": 54, "velocity": 101}, {"time": 2457, "pitch": 71, "duration": 6, "velocity": 96}, {"time": 2463, "pitch": 71, "duration": 6, "velocity": 94}, {"time": 2469, "pitch": 71, "duration": 6, "velocity": 96}, {"time": 2475, "pitch": 71, "duration": 6, "velocity": 96}, {"time": 2481, "pitch": 68, "duration": 6, "velocity": 95}, {"time": 2487, "pitch": 66, "duration": 6, "velocity": 101}, {"time": 2493, "pitch": 68, "duration": 12, "velocity": 96}, {"time": 2505, "pitch": 66, "duration": 6, "velocity": 99}, {"time": 2511, "pitch": 64, "duration": 42, "velocity": 97}, {"time": 2553, "pitch": 64, "duration": 6, "velocity": 95}, {"time": 2559, "pitch": 64, "duration": 6, "velocity": 96}, {"time": 2565, "pitch": 64, "duration": 6, "velocity": 96}, {"time": 2571, "pitch": 64, "duration": 6, "velocity": 100}, {"time": 2577, "pitch": 61, "duration": 6, "velocity": 101}, {"time": 2583, "pitch": 64, "duration": 6, "velocity": 99}, {"time": 2589, "pitch": 68, "duration": 12, "velocity": 102}, {"time": 2601, "pitch": 66, "duration": 12, "velocity": 102}, {"time": 2613, "pitch": 63, "duration": 6, "velocity": 95}, {"time": 2619, "pitch": 63, "duration": 6, "velocity": 97}, {"time": 2625, "pitch": 64, "duration": 6, "velocity": 97}, {"time": 2631, "pitch": 64, "duration": 6, "velocity": 99}, {"time": 2637, "pitch": 66, "duration": 12, "velocity": 97}, {"time": 2649, "pitch": 64, "duration": 60, "velocity": 99}, {"time": 2709, "pitch": 71, "duration": 6, "velocity": 96}, {"time": 2715, "pitch": 71, "duration": 6, "velocity": 99}, {"time": 2721, "pitch": 69, "duration": 6, "velocity": 99}, {"time": 2727, "pitch": 68, "duration": 6, "velocity": 100}, {"time": 2733, "pitch": 69, "duration": 6, "velocity": 98}, {"time": 2739, "pitch": 68, "duration": 18, "velocity": 109}, {"time": 2757, "pitch": 71, "duration": 6, "velocity": 96}, {"time": 2763, "pitch": 71, "duration": 6, "velocity": 99}, {"time": 2769, "pitch": 69, "duration": 6, "velocity": 91}, {"time": 2775, "pitch": 68, "duration": 6, "velocity": 97}, {"time": 2781, "pitch": 69, "duration": 6, "velocity": 96}, {"time": 2787, "pitch": 68, "duration": 6, "velocity": 101}, {"time": 2793, "pitch": 66, "duration": 12, "velocity": 97}, {"time": 2805, "pitch": 71, "duration": 6, "velocity": 96}, {"time": 2811, "pitch": 71, "duration": 6, "velocity": 97}, {"time": 2817, "pitch": 69, "duration": 6, "velocity": 97}, {"time": 2823, "pitch": 68, "duration": 6, "velocity": 100}, {"time": 2829, "pitch": 66, "duration": 6, "velocity": 98}, {"time": 2835, "pitch": 66, "duration": 6, "velocity": 90}, {"time": 2841, "pitch": 66, "duration": 6, "velocity": 95}, {"time": 2847, "pitch": 66, "duration": 6, "velocity": 99}, {"time": 2853, "pitch": 64, "duration": 6, "velocity": 99}, {"time": 2859, "pitch": 66, "duration": 6, "velocity": 96}, {"time": 2865, "pitch": 68, "duration": 12, "velocity": 97}, {"time": 2877, "pitch": 68, "duration": 24, "velocity": 99}, {"time": 2901, "pitch": 71, "duration": 6, "velocity": 98}, {"time": 2907, "pitch": 71, "duration": 6, "velocity": 98}, {"time": 2913, "pitch": 69, "duration": 6, "velocity": 97}, {"time": 2919, "pitch": 68, "duration": 6, "velocity": 99}, {"time": 2925, "pitch": 69, "duration": 6, "velocity": 96}, {"time": 2931, "pitch": 68, "duration": 18, "velocity": 99}, {"time": 2949, "pitch": 71, "duration": 6, "velocity": 95}, {"time": 2955, "pitch": 71, "duration": 6, "velocity": 99}, {"time": 2961, "pitch": 69, "duration": 6, "velocity": 97}, {"time": 2967, "pitch": 68, "duration": 6, "velocity": 102}, {"time": 2973, "pitch": 69, "duration": 12, "velocity": 96}, {"time": 2985, "pitch": 66, "duration": 12, "velocity": 96}, {"time": 2997, "pitch": 71, "duration": 6, "velocity": 94}, {"time": 3003, "pitch": 71, "duration": 6, "velocity": 97}, {"time": 3009, "pitch": 69, "duration": 6, "velocity": 96}, {"time": 3015, "pitch": 68, "duration": 6, "velocity": 96}, {"time": 3021, "pitch": 66, "duration": 6, "velocity": 95}, {"time": 3027, "pitch": 66, "duration": 6, "velocity": 91}, {"time": 3033, "pitch": 66, "duration": 12, "velocity": 106}, {"time": 3045, "pitch": 66, "duration": 6, "velocity": 86}, {"time": 3051, "pitch": 66, "duration": 6, "velocity": 99}, {"time": 3057, "pitch": 68, "duration": 6, "velocity": 100}, {"time": 3063, "pitch": 69, "duration": 6, "velocity": 96}, {"time": 3069, "pitch": 68, "duration": 24, "velocity": 102}, {"time": 3093, "pitch": 71, "duration": 6, "velocity": 99}, {"time": 3099, "pitch": 71, "duration": 6, "velocity": 97}, {"time": 3105, "pitch": 69, "duration": 6, "velocity": 91}, {"time": 3111, "pitch": 68, "duration": 6, "velocity": 97}, {"time": 3117, "pitch": 69, "duration": 6, "velocity": 95}, {"time": 3123, "pitch": 68, "duration": 18, "velocity": 100}, {"time": 3141, "pitch": 71, "duration": 6, "velocity": 100}, {"time": 3147, "pitch": 71, "duration": 6, "velocity": 97}, {"time": 3153, "pitch": 69, "duration": 6, "velocity": 94}, {"time": 3159, "pitch": 68, "duration": 6, "velocity": 97}, {"time": 3165, "pitch": 69, "duration": 6, "velocity": 91}, {"time": 3171, "pitch": 68, "duration": 6, "velocity": 96}, {"time": 3177, "pitch": 66, "duration": 12, "velocity": 97}, {"time": 3189, "pitch": 71, "duration": 6, "velocity": 97}, {"time": 3195, "pitch": 71, "duration": 6, "velocity": 97}, {"time": 3201, "pitch": 69, "duration": 6, "velocity": 95}, {"time": 3207, "pitch": 68, "duration": 6, "velocity": 99}, {"time": 3213, "pitch": 66, "duration": 6, "velocity": 90}, {"time": 3219, "pitch": 66, "duration": 6, "velocity": 96}, {"time": 3225, "pitch": 66, "duration": 12, "velocity": 90}, {"time": 3237, "pitch": 66, "duration": 6, "velocity": 95}, {"time": 3243, "pitch": 66, "duration": 6, "velocity": 99}, {"time": 3249, "pitch": 68, "duration": 6, "velocity": 98}, {"time": 3255, "pitch": 69, "duration": 6, "velocity": 90}, {"time": 3261, "pitch": 66, "duration": 6, "velocity": 99}, {"time": 3267, "pitch": 68, "duration": 36, "velocity": 101}, {"time": 3303, "pitch": 61, "duration": 6, "velocity": 96}, {"time": 3309, "pitch": 63, "duration": 6, "velocity": 99}, {"time": 3315, "pitch": 64, "duration": 12, "velocity": 97}, {"time": 3327, "pitch": 64, "duration": 12, "velocity": 98}, {"time": 3339, "pitch": 64, "duration": 6, "velocity": 101}, {"time": 3345, "pitch": 66, "duration": 6, "velocity": 96}, {"time": 3351, "pitch": 68, "duration": 6, "velocity": 96}, {"time": 3357, "pitch": 66, "duration": 30, "velocity": 101}, {"time": 3387, "pitch": 63, "duration": 6, "velocity": 100}, {"time": 3393, "pitch": 64, "duration": 6, "velocity": 95}, {"time": 3399, "pitch": 66, "duration": 6, "velocity": 99}, {"time": 3405, "pitch": 64, "duration": 72, "velocity": 99}, {"time": 3477, "pitch": 71, "duration": 6, "velocity": 99}, {"time": 3483, "pitch": 71, "duration": 6, "velocity": 97}, {"time": 3489, "pitch": 69, "duration": 6, "velocity": 91}, {"time": 3495, "pitch": 68, "duration": 6, "velocity": 97}, {"time": 3501, "pitch": 69, "duration": 6, "velocity": 95}, {"time": 3507, "pitch": 68, "duration": 18, "velocity": 100}, {"time": 3525, "pitch": 71, "duration": 6, "velocity": 100}, {"time": 3531, "pitch": 71, "duration": 6, "velocity": 97}, {"time": 3537, "pitch": 69, "duration": 6, "velocity": 94}, {"time": 3543, "pitch": 68, "duration": 6, "velocity": 97}, {"time": 3549, "pitch": 69, "duration": 6, "velocity": 91}, {"time": 3555, "pitch": 68, "duration": 6, "velocity": 96}, {"time": 3561, "pitch": 66, "duration": 12, "velocity": 97}, {"time": 3573, "pitch": 71, "duration": 6, "velocity": 97}, {"time": 3579, "pitch": 71, "duration": 6, "velocity": 97}, {"time": 3585, "pitch": 69, "duration": 6, "velocity": 95}, {"time": 3591, "pitch": 68, "duration": 6, "velocity": 99}, {"time": 3597, "pitch": 66, "duration": 6, "velocity": 90}, {"time": 3603, "pitch": 66, "duration": 6, "velocity": 96}, {"time": 3609, "pitch": 66, "duration": 12, "velocity": 90}, {"time": 3621, "pitch": 66, "duration": 6, "velocity": 95}, {"time": 3627, "pitch": 66, "duration": 6, "velocity": 99}, {"time": 3633, "pitch": 68, "duration": 6, "velocity": 98}, {"time": 3639, "pitch": 69, "duration": 6, "velocity": 90}, {"time": 3645, "pitch": 66, "duration": 6, "velocity": 99}, {"time": 3651, "pitch": 68, "duration": 36, "velocity": 101}, {"time": 3687, "pitch": 61, "duration": 6, "velocity": 96}, {"time": 3693, "pitch": 63, "duration": 6, "velocity": 99}, {"time": 3699, "pitch": 64, "duration": 12, "velocity": 97}, {"time": 3711, "pitch": 64, "duration": 12, "velocity": 98}, {"time": 3723, "pitch": 64, "duration": 6, "velocity": 101}, {"time": 3729, "pitch": 66, "duration": 6, "velocity": 96}, {"time": 3735, "pitch": 68, "duration": 6, "velocity": 96}, {"time": 3741, "pitch": 66, "duration": 30, "velocity": 101}, {"time": 3771, "pitch": 63, "duration": 6, "velocity": 100}, {"time": 3777, "pitch": 64, "duration": 6, "velocity": 95}, {"time": 3783, "pitch": 66, "duration": 6, "velocity": 99}, {"time": 3789, "pitch": 64, "duration": 39, "velocity": 99}]}, {"program": 0, "is_drum": false, "name": "PIANO", "notes": [{"time": 51, "pitch": 45, "duration": 5, "velocity": 95}, {"time": 63, "pitch": 57, "duration": 3, "velocity": 93}, {"time": 63, "pitch": 61, "duration": 3, "velocity": 95}, {"time": 63, "pitch": 68, "duration": 4, "velocity": 91}, {"time": 75, "pitch": 45, "duration": 6, "velocity": 96}, {"time": 87, "pitch": 57, "duration": 3, "velocity": 90}, {"time": 87, "pitch": 61, "duration": 3, "velocity": 89}, {"time": 87, "pitch": 68, "duration": 4, "velocity": 90}, {"time": 99, "pitch": 47, "duration": 5, "velocity": 96}, {"time": 111, "pitch": 59, "duration": 7, "velocity": 96}, {"time": 111, "pitch": 63, "duration": 7, "velocity": 93}, {"time": 111, "pitch": 66, "duration": 7, "velocity": 90}, {"time": 123, "pitch": 47, "duration": 12, "velocity": 95}, {"time": 135, "pitch": 59, "duration": 4, "velocity": 88}, {"time": 135, "pitch": 63, "duration": 4, "velocity": 85}, {"time": 135, "pitch": 66, "duration": 4, "velocity": 85}, {"time": 147, "pitch": 51, "duration": 13, "velocity": 96}, {"time": 159, "pitch": 59, "duration": 4, "velocity": 93}, {"time": 159, "pitch": 63, "duration": 4, "velocity": 88}, {"time": 159, "pitch": 66, "duration": 4, "velocity": 89}, {"time": 171, "pitch": 51, "duration": 15, "velocity": 89}, {"time": 183, "pitch": 59, "duration": 5, "velocity": 90}, {"time": 183, "pitch": 63, "duration": 4, "velocity": 91}, {"time": 183, "pitch": 66, "duration": 5, "velocity": 91}, {"time": 195, "pitch": 49, "duration": 14, "velocity": 91}, {"time": 207, "pitch": 56, "duration": 4, "velocity": 95}, {"time": 207, "pitch": 61, "duration": 4, "velocity": 89}, {"time": 207, "pitch": 64, "duration": 4, "velocity": 97}, {"time": 219, "pitch": 49, "duration": 16, "velocity": 88}, {"time": 231, "pitch": 56, "duration": 5, "velocity": 95}, {"time": 231, "pitch": 61, "duration": 5, "velocity": 90}, {"time": 231, "pitch": 64, "duration": 6, "velocity": 95}, {"time": 243, "pitch": 45, "duration": 13, "velocity": 95}, {"time": 255, "pitch": 57, "duration": 4, "velocity": 90}, {"time": 255, "pitch": 61, "duration": 4, "velocity": 95}, {"time": 255, "pitch": 68, "duration": 4, "velocity": 92}, {"time": 267, "pitch": 45, "duration": 15, "velocity": 94}, {"time": 279, "pitch": 57, "duration": 4, "velocity": 95}, {"time": 279, "pitch": 61, "duration": 3, "velocity": 106}, {"time": 279, "pitch": 68, "duration": 4, "velocity": 96}, {"time": 291, "pitch": 47, "duration": 16, "velocity": 81}, {"time": 303, "pitch": 59, "duration": 3, "velocity": 92}, {"time": 303, "pitch": 63, "duration": 2, "velocity": 97}, {"time": 303, "pitch": 66, "duration": 3, "velocity": 96}, {"time": 315, "pitch": 47, "duration": 17, "velocity": 97}, {"time": 327, "pitch": 59, "duration": 3, "velocity": 95}, {"time": 327, "pitch": 63, "duration": 3, "velocity": 97}, {"time": 327, "pitch": 66, "duration": 3, "velocity": 97}, {"time": 339, "pitch": 52, "duration": 19, "velocity": 94}, {"time": 351, "pitch": 59, "duration": 3, "velocity": 96}, {"time": 351, "pitch": 64, "duration": 3, "velocity": 102}, {"time": 351, "pitch": 68, "duration": 4, "velocity": 96}, {"time": 363, "pitch": 52, "duration": 16, "velocity": 90}, {"time": 375, "pitch": 59, "duration": 4, "velocity": 91}, {"time": 375, "pitch": 64, "duration": 4, "velocity": 98}, {"time": 375, "pitch": 68, "duration": 5, "velocity": 95}, {"time": 387, "pitch": 52, "duration": 15, "velocity": 96}, {"time": 399, "pitch": 59, "duration": 5, "velocity": 93}, {"time": 399, "pitch": 62, "duration": 5, "velocity": 97}, {"time": 399, "pitch": 68, "duration": 5, "velocity": 96}, {"time": 411, "pitch": 52, "duration": 20, "velocity": 95}, {"time": 423, "pitch": 59, "duration": 5, "velocity": 90}, {"time": 423, "pitch": 62, "duration": 5, "velocity": 91}, {"time": 423, "pitch": 68, "duration": 6, "velocity": 92}, {"time": 435, "pitch": 45, "duration": 20, "velocity": 97}, {"time": 447, "pitch": 57, "duration": 5, "velocity": 95}, {"time": 447, "pitch": 61, "duration": 5, "velocity": 106}, {"time": 447, "pitch": 64, "duration": 5, "velocity": 104}, {"time": 459, "pitch": 45, "duration": 18, "velocity": 96}, {"time": 459, "pitch": 52, "duration": 2, "velocity": 87}, {"time": 471, "pitch": 57, "duration": 6, "velocity": 96}, {"time": 471, "pitch": 61, "duration": 5, "velocity": 102}, {"time": 471, "pitch": 64, "duration": 6, "velocity": 100}, {"time": 483, "pitch": 47, "duration": 18, "velocity": 97}, {"time": 495, "pitch": 59, "duration": 4, "velocity": 95}, {"time": 495, "pitch": 63, "duration": 4, "velocity": 100}, {"time": 495, "pitch": 66, "duration": 5, "velocity": 97}, {"time": 507, "pitch": 47, "duration": 14, "velocity": 93}, {"time": 519, "pitch": 59, "duration": 6, "velocity": 97}, {"time": 519, "pitch": 63, "duration": 5, "velocity": 104}, {"time": 519, "pitch": 66, "duration": 6, "velocity": 100}, {"time": 531, "pitch": 51, "duration": 16, "velocity": 95}, {"time": 543, "pitch": 59, "duration": 7, "velocity": 95}, {"time": 543, "pitch": 63, "duration": 5, "velocity": 99}, {"time": 543, "pitch": 66, "duration": 6, "velocity": 97}, {"time": 555, "pitch": 39, "duration": 17, "velocity": 83}, {"time": 567, "pitch": 59, "duration": 6, "velocity": 95}, {"time": 567, "pitch": 63, "duration": 6, "velocity": 96}, {"time": 567, "pitch": 66, "duration": 6, "velocity": 96}, {"time": 579, "pitch": 49, "duration": 18, "velocity": 97}, {"time": 591, "pitch": 56, "duration": 4, "velocity": 95}, {"time": 591, "pitch": 61, "duration": 4, "velocity": 97}, {"time": 591, "pitch": 64, "duration": 5, "velocity": 100}, {"time": 603, "pitch": 49, "duration": 16, "velocity": 97}, {"time": 615, "pitch": 56, "duration": 5, "velocity": 96}, {"time": 615, "pitch": 61, "duration": 6, "velocity": 96}, {"time": 615, "pitch": 64, "duration": 7, "velocity": 99}, {"time": 627, "pitch": 45, "duration": 19, "velocity": 96}, {"time": 639, "pitch": 57, "duration": 5, "velocity": 96}, {"time": 639, "pitch": 61, "duration": 5, "velocity": 106}, {"time": 639, "pitch": 64, "duration": 5, "velocity": 100}, {"time": 651, "pitch": 45, "duration": 19, "velocity": 93}, {"time": 663, "pitch": 57, "duration": 5, "velocity": 92}, {"time": 663, "pitch": 61, "duration": 6, "velocity": 98}, {"time": 663, "pitch": 64, "duration": 6, "velocity": 97}, {"time": 675, "pitch": 47, "duration": 19, "velocity": 95}, {"time": 687, "pitch": 59, "duration": 5, "velocity": 95}, {"time": 687, "pitch": 63, "duration": 5, "velocity": 101}, {"time": 687, "pitch": 66, "duration": 6, "velocity": 97}, {"time": 699, "pitch": 47, "duration": 21, "velocity": 96}, {"time": 711, "pitch": 59, "duration": 8, "velocity": 95}, {"time": 711, "pitch": 63, "duration": 6, "velocity": 99}, {"time": 711, "pitch": 66, "duration": 8, "velocity": 96}, {"time": 723, "pitch": 52, "duration": 18, "velocity": 101}, {"time": 735, "pitch": 59, "duration": 5, "velocity": 97}, {"time": 735, "pitch": 64, "duration": 4, "velocity": 104}, {"time": 735, "pitch": 68, "duration": 6, "velocity": 101}, {"time": 747, "pitch": 52, "duration": 20, "velocity": 89}, {"time": 759, "pitch": 59, "duration": 6, "velocity": 97}, {"time": 759, "pitch": 64, "duration": 5, "velocity": 101}, {"time": 759, "pitch": 68, "duration": 6, "velocity": 102}, {"time": 771, "pitch": 52, "duration": 18, "velocity": 97}, {"time": 783, "pitch": 59, "duration": 6, "velocity": 99}, {"time": 783, "pitch": 62, "duration": 6, "velocity": 102}, {"time": 783, "pitch": 68, "duration": 7, "velocity": 102}, {"time": 795, "pitch": 52, "duration": 20, "velocity": 95}, {"time": 807, "pitch": 59, "duration": 7, "velocity": 100}, {"time": 807, "pitch": 62, "duration": 7, "velocity": 102}, {"time": 807, "pitch": 68, "duration": 7, "velocity": 98}, {"time": 819, "pitch": 45, "duration": 20, "velocity": 97}, {"time": 831, "pitch": 57, "duration": 5, "velocity": 95}, {"time": 831, "pitch": 61, "duration": 5, "velocity": 106}, {"time": 831, "pitch": 64, "duration": 5, "velocity": 104}, {"time": 843, "pitch": 45, "duration": 18, "velocity": 96}, {"time": 843, "pitch": 52, "duration": 2, "velocity": 87}, {"time": 855, "pitch": 57, "duration": 6, "velocity": 96}, {"time": 855, "pitch": 61, "duration": 5, "velocity": 102}, {"time": 855, "pitch": 64, "duration": 6, "velocity": 100}, {"time": 867, "pitch": 47, "duration": 18, "velocity": 97}, {"time": 879, "pitch": 59, "duration": 4, "velocity": 95}, {"time": 879, "pitch": 63, "duration": 4, "velocity": 100}, {"time": 879, "pitch": 66, "duration": 5, "velocity": 97}, {"time": 891, "pitch": 47, "duration": 14, "velocity": 93}, {"time": 903, "pitch": 59, "duration": 6, "velocity": 97}, {"time": 903, "pitch": 63, "duration": 5, "velocity": 104}, {"time": 903, "pitch": 66, "duration": 6, "velocity": 100}, {"time": 915, "pitch": 51, "duration": 16, "velocity": 95}, {"time": 927, "pitch": 59, "duration": 7, "velocity": 95}, {"time": 927, "pitch": 63, "duration": 5, "velocity": 99}, {"time": 927, "pitch": 66, "duration": 6, "velocity": 97}, {"time": 939, "pitch": 39, "duration": 17, "velocity": 83}, {"time": 951, "pitch": 59, "duration": 6, "velocity": 95}, {"time": 951, "pitch": 63, "duration": 6, "velocity": 96}, {"time": 951, "pitch": 66, "duration": 6, "velocity": 96}, {"time": 963, "pitch": 49, "duration": 18, "velocity": 97}, {"time": 975, "pitch": 56, "duration": 4, "velocity": 95}, {"time": 975, "pitch": 61, "duration": 4, "velocity": 97}, {"time": 975, "pitch": 64, "duration": 5, "velocity": 100}, {"time": 987, "pitch": 49, "duration": 16, "velocity": 97}, {"time": 999, "pitch": 56, "duration": 5, "velocity": 96}, {"time": 999, "pitch": 61, "duration": 6, "velocity": 96}, {"time": 999, "pitch": 64, "duration": 7, "velocity": 99}, {"time": 1011, "pitch": 45, "duration": 19, "velocity": 96}, {"time": 1023, "pitch": 57, "duration": 5, "velocity": 96}, {"time": 1023, "pitch": 61, "duration": 5, "velocity": 106}, {"time": 1023, "pitch": 64, "duration": 5, "velocity": 100}, {"time": 1035, "pitch": 45, "duration": 19, "velocity": 93}, {"time": 1047, "pitch": 57, "duration": 5, "velocity": 92}, {"time": 1047, "pitch": 61, "duration": 6, "velocity": 98}, {"time": 1047, "pitch": 64, "duration": 6, "velocity": 97}, {"time": 1059, "pitch": 47, "duration": 19, "velocity": 95}, {"time": 1071, "pitch": 59, "duration": 5, "velocity": 95}, {"time": 1071, "pitch": 63, "duration": 5, "velocity": 101}, {"time": 1071, "pitch": 66, "duration": 6, "velocity": 97}, {"time": 1083, "pitch": 47, "duration": 21, "velocity": 96}, {"time": 1095, "pitch": 59, "duration": 8, "velocity": 95}, {"time": 1095, "pitch": 63, "duration": 6, "velocity": 99}, {"time": 1095, "pitch": 66, "duration": 8, "velocity": 96}, {"time": 1107, "pitch": 52, "duration": 18, "velocity": 101}, {"time": 1119, "pitch": 59, "duration": 5, "velocity": 97}, {"time": 1119, "pitch": 64, "duration": 4, "velocity": 104}, {"time": 1119, "pitch": 68, "duration": 6, "velocity": 101}, {"time": 1131, "pitch": 52, "duration": 20, "velocity": 89}, {"time": 1143, "pitch": 59, "duration": 6, "velocity": 97}, {"time": 1143, "pitch": 64, "duration": 5, "velocity": 101}, {"time": 1143, "pitch": 68, "duration": 6, "velocity": 102}, {"time": 1155, "pitch": 52, "duration": 18, "velocity": 97}, {"time": 1167, "pitch": 59, "duration": 6, "velocity": 99}, {"time": 1167, "pitch": 62, "duration": 6, "velocity": 102}, {"time": 1167, "pitch": 68, "duration": 7, "velocity": 102}, {"time": 1179, "pitch": 52, "duration": 20, "velocity": 95}, {"time": 1191, "pitch": 59, "duration": 7, "velocity": 100}, {"time": 1191, "pitch": 62, "duration": 7, "velocity": 102}, {"time": 1191, "pitch": 68, "duration": 7, "velocity": 98}, {"time": 1203, "pitch": 45, "duration": 23, "velocity": 97}, {"time": 1215, "pitch": 57, "duration": 8, "velocity": 95}, {"time": 1215, "pitch": 61, "duration": 8, "velocity": 97}, {"time": 1215, "pitch": 64, "duration": 8, "velocity": 100}, {"time": 1227, "pitch": 52, "duration": 20, "velocity": 88}, {"time": 1233, "pitch": 57, "duration": 11, "velocity": 91}, {"time": 1239, "pitch": 61, "duration": 8, "velocity": 101}, {"time": 1239, "pitch": 64, "duration": 8, "velocity": 102}, {"time": 1239, "pitch": 69, "duration": 11, "velocity": 97}, {"time": 1251, "pitch": 47, "duration": 20, "velocity": 96}, {"time": 1263, "pitch": 59, "duration": 8, "velocity": 99}, {"time": 1263, "pitch": 63, "duration": 7, "velocity": 104}, {"time": 1263, "pitch": 66, "duration": 7, "velocity": 98}, {"time": 1275, "pitch": 54, "duration": 17, "velocity": 81}, {"time": 1281, "pitch": 59, "duration": 4, "velocity": 95}, {"time": 1287, "pitch": 59, "duration": 4, "velocity": 96}, {"time": 1287, "pitch": 63, "duration": 13, "velocity": 100}, {"time": 1287, "pitch": 66, "duration": 14, "velocity": 95}, {"time": 1293, "pitch": 59, "duration": 9, "velocity": 97}, {"time": 1299, "pitch": 39, "duration": 18, "velocity": 95}, {"time": 1311, "pitch": 59, "duration": 5, "velocity": 98}, {"time": 1311, "pitch": 63, "duration": 4, "velocity": 101}, {"time": 1311, "pitch": 66, "duration": 5, "velocity": 95}, {"time": 1323, "pitch": 39, "duration": 18, "velocity": 89}, {"time": 1329, "pitch": 59, "duration": 8, "velocity": 99}, {"time": 1335, "pitch": 63, "duration": 8, "velocity": 101}, {"time": 1335, "pitch": 66, "duration": 8, "velocity": 96}, {"time": 1341, "pitch": 59, "duration": 5, "velocity": 96}, {"time": 1347, "pitch": 49, "duration": 21, "velocity": 98}, {"time": 1359, "pitch": 56, "duration": 3, "velocity": 97}, {"time": 1359, "pitch": 61, "duration": 15, "velocity": 98}, {"time": 1359, "pitch": 64, "duration": 16, "velocity": 100}, {"time": 1365, "pitch": 56, "duration": 9, "velocity": 98}, {"time": 1371, "pitch": 49, "duration": 20, "velocity": 95}, {"time": 1383, "pitch": 56, "duration": 3, "velocity": 96}, {"time": 1383, "pitch": 61, "duration": 8, "velocity": 97}, {"time": 1383, "pitch": 64, "duration": 9, "velocity": 102}, {"time": 1389, "pitch": 56, "duration": 2, "velocity": 90}, {"time": 1395, "pitch": 45, "duration": 20, "velocity": 97}, {"time": 1407, "pitch": 57, "duration": 3, "velocity": 96}, {"time": 1407, "pitch": 61, "duration": 4, "velocity": 109}, {"time": 1407, "pitch": 64, "duration": 5, "velocity": 101}, {"time": 1413, "pitch": 57, "duration": 5, "velocity": 97}, {"time": 1419, "pitch": 49, "duration": 18, "velocity": 73}, {"time": 1419, "pitch": 52, "duration": 22, "velocity": 90}, {"time": 1431, "pitch": 57, "duration": 4, "velocity": 97}, {"time": 1431, "pitch": 61, "duration": 11, "velocity": 112}, {"time": 1431, "pitch": 64, "duration": 11, "velocity": 102}, {"time": 1437, "pitch": 57, "duration": 5, "velocity": 88}, {"time": 1443, "pitch": 47, "duration": 44, "velocity": 99}, {"time": 1455, "pitch": 59, "duration": 3, "velocity": 97}, {"time": 1455, "pitch": 63, "duration": 5, "velocity": 106}, {"time": 1455, "pitch": 66, "duration": 7, "velocity": 98}, {"time": 1467, "pitch": 54, "duration": 17, "velocity": 96}, {"time": 1473, "pitch": 59, "duration": 4, "velocity": 97}, {"time": 1479, "pitch": 59, "duration": 3, "velocity": 91}, {"time": 1479, "pitch": 63, "duration": 9, "velocity": 102}, {"time": 1479, "pitch": 66, "duration": 11, "velocity": 99}, {"time": 1485, "pitch": 59, "duration": 10, "velocity": 91}, {"time": 1491, "pitch": 52, "duration": 22, "velocity": 102}, {"time": 1497, "pitch": 59, "duration": 6, "velocity": 88}, {"time": 1503, "pitch": 59, "duration": 15, "velocity": 82}, {"time": 1503, "pitch": 64, "duration": 16, "velocity": 98}, {"time": 1503, "pitch": 68, "duration": 16, "velocity": 96}, {"time": 1515, "pitch": 52, "duration": 20, "velocity": 97}, {"time": 1521, "pitch": 59, "duration": 3, "velocity": 96}, {"time": 1527, "pitch": 59, "duration": 7, "velocity": 95}, {"time": 1527, "pitch": 64, "duration": 6, "velocity": 104}, {"time": 1527, "pitch": 68, "duration": 8, "velocity": 100}, {"time": 1539, "pitch": 52, "duration": 23, "velocity": 96}, {"time": 1545, "pitch": 59, "duration": 5, "velocity": 91}, {"time": 1551, "pitch": 59, "duration": 15, "velocity": 93}, {"time": 1551, "pitch": 62, "duration": 16, "velocity": 93}, {"time": 1551, "pitch": 68, "duration": 20, "velocity": 98}, {"time": 1563, "pitch": 52, "duration": 22, "velocity": 97}, {"time": 1569, "pitch": 59, "duration": 8, "velocity": 96}, {"time": 1575, "pitch": 62, "duration": 9, "velocity": 97}, {"time": 1575, "pitch": 68, "duration": 9, "velocity": 100}, {"time": 1581, "pitch": 59, "duration": 4, "velocity": 96}, {"time": 1587, "pitch": 45, "duration": 23, "velocity": 97}, {"time": 1599, "pitch": 57, "duration": 8, "velocity": 95}, {"time": 1599, "pitch": 61, "duration": 8, "velocity": 97}, {"time": 1599, "pitch": 64, "duration": 8, "velocity": 100}, {"time": 1611, "pitch": 52, "duration": 20, "velocity": 88}, {"time": 1617, "pitch": 57, "duration": 11, "velocity": 91}, {"time": 1623, "pitch": 61, "duration": 8, "velocity": 101}, {"time": 1623, "pitch": 64, "duration": 8, "velocity": 102}, {"time": 1623, "pitch": 69, "duration": 11, "velocity": 97}, {"time": 1635, "pitch": 47, "duration": 20, "velocity": 96}, {"time": 1647, "pitch": 59, "duration": 8, "velocity": 99}, {"time": 1647, "pitch": 63, "duration": 7, "velocity": 104}, {"time": 1647, "pitch": 66, "duration": 7, "velocity": 98}, {"time": 1659, "pitch": 54, "duration": 17, "velocity": 81}, {"time": 1665, "pitch": 59, "duration": 4, "velocity": 95}, {"time": 1671, "pitch": 59, "duration": 4, "velocity": 96}, {"time": 1671, "pitch": 63, "duration": 13, "velocity": 100}, {"time": 1671, "pitch": 66, "duration": 14, "velocity": 95}, {"time": 1677, "pitch": 59, "duration": 9, "velocity": 97}, {"time": 1683, "pitch": 39, "duration": 18, "velocity": 95}, {"time": 1695, "pitch": 59, "duration": 5, "velocity": 98}, {"time": 1695, "pitch": 63, "duration": 4, "velocity": 101}, {"time": 1695, "pitch": 66, "duration": 5, "velocity": 95}, {"time": 1707, "pitch": 39, "duration": 18, "velocity": 89}, {"time": 1713, "pitch": 59, "duration": 8, "velocity": 99}, {"time": 1719, "pitch": 63, "duration": 8, "velocity": 101}, {"time": 1719, "pitch": 66, "duration": 8, "velocity": 96}, {"time": 1725, "pitch": 59, "duration": 5, "velocity": 96}, {"time": 1731, "pitch": 49, "duration": 21, "velocity": 98}, {"time": 1743, "pitch": 56, "duration": 3, "velocity": 97}, {"time": 1743, "pitch": 61, "duration": 15, "velocity": 98}, {"time": 1743, "pitch": 64, "duration": 16, "velocity": 100}, {"time": 1749, "pitch": 56, "duration": 9, "velocity": 98}, {"time": 1755, "pitch": 49, "duration": 20, "velocity": 95}, {"time": 1767, "pitch": 56, "duration": 3, "velocity": 96}, {"time": 1767, "pitch": 61, "duration": 8, "velocity": 97}, {"time": 1767, "pitch": 64, "duration": 9, "velocity": 102}, {"time": 1773, "pitch": 56, "duration": 2, "velocity": 90}, {"time": 1779, "pitch": 45, "duration": 20, "velocity": 97}, {"time": 1791, "pitch": 57, "duration": 3, "velocity": 96}, {"time": 1791, "pitch": 61, "duration": 4, "velocity": 109}, {"time": 1791, "pitch": 64, "duration": 5, "velocity": 101}, {"time": 1797, "pitch": 57, "duration": 5, "velocity": 97}, {"time": 1803, "pitch": 49, "duration": 18, "velocity": 73}, {"time": 1803, "pitch": 52, "duration": 22, "velocity": 90}, {"time": 1815, "pitch": 57, "duration": 4, "velocity": 97}, {"time": 1815, "pitch": 61, "duration": 11, "velocity": 112}, {"time": 1815, "pitch": 64, "duration": 11, "velocity": 102}, {"time": 1821, "pitch": 57, "duration": 5, "velocity": 88}, {"time": 1827, "pitch": 47, "duration": 44, "velocity": 99}, {"time": 1839, "pitch": 59, "duration": 3, "velocity": 97}, {"time": 1839, "pitch": 63, "duration": 5, "velocity": 106}, {"time": 1839, "pitch": 66, "duration": 7, "velocity": 98}, {"time": 1851, "pitch": 54, "duration": 17, "velocity": 96}, {"time": 1857, "pitch": 59, "duration": 4, "velocity": 97}, {"time": 1863, "pitch": 59, "duration": 3, "velocity": 91}, {"time": 1863, "pitch": 63, "duration": 9, "velocity": 102}, {"time": 1863, "pitch": 66, "duration": 11, "velocity": 99}, {"time": 1869, "pitch": 59, "duration": 10, "velocity": 91}, {"time": 1875, "pitch": 52, "duration": 22, "velocity": 102}, {"time": 1881, "pitch": 59, "duration": 6, "velocity": 88}, {"time": 1887, "pitch": 59, "duration": 15, "velocity": 82}, {"time": 1887, "pitch": 64, "duration": 16, "velocity": 98}, {"time": 1887, "pitch": 68, "duration": 16, "velocity": 96}, {"time": 1899, "pitch": 52, "duration": 20, "velocity": 97}, {"time": 1905, "pitch": 59, "duration": 3, "velocity": 96}, {"time": 1911, "pitch": 59, "duration": 7, "velocity": 95}, {"time": 1911, "pitch": 64, "duration": 6, "velocity": 104}, {"time": 1911, "pitch": 68, "duration": 8, "velocity": 100}, {"time": 1923, "pitch": 52, "duration": 23, "velocity": 96}, {"time": 1929, "pitch": 59, "duration": 5, "velocity": 91}, {"time": 1935, "pitch": 59, "duration": 15, "velocity": 93}, {"time": 1935, "pitch": 62, "duration": 16, "velocity": 93}, {"time": 1935, "pitch": 68, "duration": 20, "velocity": 98}, {"time": 1947, "pitch": 52, "duration": 22, "velocity": 97}, {"time": 1953, "pitch": 59, "duration": 8, "velocity": 96}, {"time": 1959, "pitch": 62, "duration": 9, "velocity": 97}, {"time": 1959, "pitch": 68, "duration": 9, "velocity": 100}, {"time": 1965, "pitch": 59, "duration": 4, "velocity": 96}, {"time": 1971, "pitch": 45, "duration": 5, "velocity": 95}, {"time": 1983, "pitch": 57, "duration": 3, "velocity": 93}, {"time": 1983, "pitch": 61, "duration": 3, "velocity": 95}, {"time": 1983, "pitch": 68, "duration": 4, "velocity": 91}, {"time": 1995, "pitch": 45, "duration": 6, "velocity": 96}, {"time": 2007, "pitch": 57, "duration": 3, "velocity": 90}, {"time": 2007, "pitch": 61, "duration": 3, "velocity": 89}, {"time": 2007, "pitch": 68, "duration": 4, "velocity": 90}, {"time": 2019, "pitch": 47, "duration": 5, "velocity": 96}, {"time": 2031, "pitch": 59, "duration": 7, "velocity": 96}, {"time": 2031, "pitch": 63, "duration": 7, "velocity": 93}, {"time": 2031, "pitch": 66, "duration": 7, "velocity": 90}, {"time": 2043, "pitch": 47, "duration": 12, "velocity": 95}, {"time": 2055, "pitch": 59, "duration": 4, "velocity": 88}, {"time": 2055, "pitch": 63, "duration": 4, "velocity": 85}, {"time": 2055, "pitch": 66, "duration": 4, "velocity": 85}, {"time": 2067, "pitch": 51, "duration": 13, "velocity": 96}, {"time": 2079, "pitch": 59, "duration": 4, "velocity": 93}, {"time": 2079, "pitch": 63, "duration": 4, "velocity": 88}, {"time": 2079, "pitch": 66, "duration": 4, "velocity": 89}, {"time": 2091, "pitch": 51, "duration": 15, "velocity": 89}, {"time": 2103, "pitch": 59, "duration": 5, "velocity": 90}, {"time": 2103, "pitch": 63, "duration": 4, "velocity": 91}, {"time": 2103, "pitch": 66, "duration": 5, "velocity": 91}, {"time": 2115, "pitch": 49, "duration": 14, "velocity": 91}, {"time": 2127, "pitch": 56, "duration": 4, "velocity": 95}, {"time": 2127, "pitch": 61, "duration": 4, "velocity": 89}, {"time": 2127, "pitch": 64, "duration": 4, "velocity": 97}, {"time": 2139, "pitch": 49, "duration": 16, "velocity": 88}, {"time": 2151, "pitch": 56, "duration": 5, "velocity": 95}, {"time": 2151, "pitch": 61, "duration": 5, "velocity": 90}, {"time": 2151, "pitch": 64, "duration": 6, "velocity": 95}, {"time": 2163, "pitch": 45, "duration": 13, "velocity": 95}, {"time": 2175, "pitch": 57, "duration": 4, "velocity": 90}, {"time": 2175, "pitch": 61, "duration": 4, "velocity": 95}, {"time": 2175, "pitch": 68, "duration": 4, "velocity": 92}, {"time": 2187, "pitch": 45, "duration": 15, "velocity": 94}, {"time": 2199, "pitch": 57, "duration": 4, "velocity": 95}, {"time": 2199, "pitch": 61, "duration": 3, "velocity": 106}, {"time": 2199, "pitch": 68, "duration": 4, "velocity": 96}, {"time": 2211, "pitch": 47, "duration": 16, "velocity": 81}, {"time": 2223, "pitch": 59, "duration": 3, "velocity": 92}, {"time": 2223, "pitch": 63, "duration": 2, "velocity": 97}, {"time": 2223, "pitch": 66, "duration": 3, "velocity": 96}, {"time": 2235, "pitch": 47, "duration": 17, "velocity": 97}, {"time": 2247, "pitch": 59, "duration": 3, "velocity": 95}, {"time": 2247, "pitch": 63, "duration": 3, "velocity": 97}, {"time": 2247, "pitch": 66, "duration": 3, "velocity": 97}, {"time": 2259, "pitch": 52, "duration": 19, "velocity": 94}, {"time": 2271, "pitch": 59, "duration": 3, "velocity": 96}, {"time": 2271, "pitch": 64, "duration": 3, "velocity": 102}, {"time": 2271, "pitch": 68, "duration": 4, "velocity": 96}, {"time": 2283, "pitch": 52, "duration": 16, "velocity": 90}, {"time": 2295, "pitch": 59, "duration": 4, "velocity": 91}, {"time": 2295, "pitch": 64, "duration": 4, "velocity": 98}, {"time": 2295, "pitch": 68, "duration": 5, "velocity": 95}, {"time": 2307, "pitch": 52, "duration": 15, "velocity": 96}, {"time": 2319, "pitch": 59, "duration": 5, "velocity": 93}, {"time": 2319, "pitch": 62, "duration": 5, "velocity": 97}, {"time": 2319, "pitch": 68, "duration": 5, "velocity": 96}, {"time": 2331, "pitch": 52, "duration": 20, "velocity": 95}, {"time": 2343, "pitch": 59, "duration": 5, "velocity": 90}, {"time": 2343, "pitch": 62, "duration": 5, "velocity": 91}, {"time": 2343, "pitch": 68, "duration": 6, "velocity": 92}, {"time": 2355, "pitch": 45, "duration": 20, "velocity": 97}, {"time": 2367, "pitch": 57, "duration": 5, "velocity": 95}, {"time": 2367, "pitch": 61, "duration": 5, "velocity": 106}, {"time": 2367, "pitch": 64, "duration": 5, "velocity": 104}, {"time": 2379, "pitch": 45, "duration": 18, "velocity": 96}, {"time": 2379, "pitch": 52, "duration": 2, "velocity": 87}, {"time": 2391, "pitch": 57, "duration": 6, "velocity": 96}, {"time": 2391, "pitch": 61, "duration": 5, "velocity": 102}, {"time": 2391, "pitch": 64, "duration": 6, "velocity": 100}, {"time": 2403, "pitch": 47, "duration": 18, "velocity": 97}, {"time": 2415, "pitch": 59, "duration": 4, "velocity": 95}, {"time": 2415, "pitch": 63, "duration": 4, "velocity": 100}, {"time": 2415, "pitch": 66, "duration": 5, "velocity": 97}, {"time": 2427, "pitch": 47, "duration": 14, "velocity": 93}, {"time": 2439, "pitch": 59, "duration": 6, "velocity": 97}, {"time": 2439, "pitch": 63, "duration": 5, "velocity": 104}, {"time": 2439, "pitch": 66, "duration": 6, "velocity": 100}, {"time": 2451, "pitch": 51, "duration": 16, "velocity": 95}, {"time": 2463, "pitch": 59, "duration": 7, "velocity": 95}, {"time": 2463, "pitch": 63, "duration": 5, "velocity": 99}, {"time": 2463, "pitch": 66, "duration": 6, "velocity": 97}, {"time": 2475, "pitch": 39, "duration": 17, "velocity": 83}, {"time": 2487, "pitch": 59, "duration": 6, "velocity": 95}, {"time": 2487, "pitch": 63, "duration": 6, "velocity": 96}, {"time": 2487, "pitch": 66, "duration": 6, "velocity": 96}, {"time": 2499, "pitch": 49, "duration": 18, "velocity": 97}, {"time": 2511, "pitch": 56, "duration": 4, "velocity": 95}, {"time": 2511, "pitch": 61, "duration": 4, "velocity": 97}, {"time": 2511, "pitch": 64, "duration": 5, "velocity": 100}, {"time": 2523, "pitch": 49, "duration": 16, "velocity": 97}, {"time": 2535, "pitch": 56, "duration": 5, "velocity": 96}, {"time": 2535, "pitch": 61, "duration": 6, "velocity": 96}, {"time": 2535, "pitch": 64, "duration": 7, "velocity": 99}, {"time": 2547, "pitch": 45, "duration": 19, "velocity": 96}, {"time": 2559, "pitch": 57, "duration": 5, "velocity": 96}, {"time": 2559, "pitch": 61, "duration": 5, "velocity": 106}, {"time": 2559, "pitch": 64, "duration": 5, "velocity": 100}, {"time": 2571, "pitch": 45, "duration": 19, "velocity": 93}, {"time": 2583, "pitch": 57, "duration": 5, "velocity": 92}, {"time": 2583, "pitch": 61, "duration": 6, "velocity": 98}, {"time": 2583, "pitch": 64, "duration": 6, "velocity": 97}, {"time": 2595, "pitch": 47, "duration": 19, "velocity": 95}, {"time": 2607, "pitch": 59, "duration": 5, "velocity": 95}, {"time": 2607, "pitch": 63, "duration": 5, "velocity": 101}, {"time": 2607, "pitch": 66, "duration": 6, "velocity": 97}, {"time": 2619, "pitch": 47, "duration": 21, "velocity": 96}, {"time": 2631, "pitch": 59, "duration": 8, "velocity": 95}, {"time": 2631, "pitch": 63, "duration": 6, "velocity": 99}, {"time": 2631, "pitch": 66, "duration": 8, "velocity": 96}, {"time": 2643, "pitch": 52, "duration": 18, "velocity": 101}, {"time": 2655, "pitch": 59, "duration": 5, "velocity": 97}, {"time": 2655, "pitch": 64, "duration": 4, "velocity": 104}, {"time": 2655, "pitch": 68, "duration": 6, "velocity": 101}, {"time": 2667, "pitch": 52, "duration": 20, "velocity": 89}, {"time": 2679, "pitch": 59, "duration": 6, "velocity": 97}, {"time": 2679, "pitch": 64, "duration": 5, "velocity": 101}, {"time": 2679, "pitch": 68, "duration": 6, "velocity": 102}, {"time": 2691, "pitch": 52, "duration": 18, "velocity": 97}, {"time": 2703, "pitch": 59, "duration": 6, "velocity": 99}, {"time": 2703, "pitch": 62, "duration": 6, "velocity": 102}, {"time": 2703, "pitch": 68, "duration": 7, "velocity": 102}, {"time": 2715, "pitch": 52, "duration": 20, "velocity": 95}, {"time": 2727, "pitch": 59, "duration": 7, "velocity": 100}, {"time": 2727, "pitch": 62, "duration": 7, "velocity": 102}, {"time": 2727, "pitch": 68, "duration": 7, "velocity": 98}, {"time": 2739, "pitch": 45, "duration": 23, "velocity": 97}, {"time": 2751, "pitch": 57, "duration": 8, "velocity": 95}, {"time": 2751, "pitch": 61, "duration": 8, "velocity": 97}, {"time": 2751, "pitch": 64, "duration": 8, "velocity": 100}, {"time": 2763, "pitch": 52, "duration": 20, "velocity": 88}, {"time": 2769, "pitch": 57, "duration": 11, "velocity": 91}, {"time": 2775, "pitch": 61, "duration": 8, "velocity": 101}, {"time": 2775, "pitch": 64, "duration": 8, "velocity": 102}, {"time": 2775, "pitch": 69, "duration": 11, "velocity": 97}, {"time": 2787, "pitch": 47, "duration": 20, "velocity": 96}, {"time": 2799, "pitch": 59, "duration": 8, "velocity": 99}, {"time": 2799, "pitch": 63, "duration": 7, "velocity": 104}, {"time": 2799, "pitch": 66, "duration": 7, "velocity": 98}, {"time": 2811, "pitch": 54, "duration": 17, "velocity": 81}, {"time": 2817, "pitch": 59, "duration": 4, "velocity": 95}, {"time": 2823, "pitch": 59, "duration": 4, "velocity": 96}, {"time": 2823, "pitch": 63, "duration": 13, "velocity": 100}, {"time": 2823, "pitch": 66, "duration": 14, "velocity": 95}, {"time": 2829, "pitch": 59, "duration": 9, "velocity": 97}, {"time": 2835, "pitch": 39, "duration": 18, "velocity": 95}, {"time": 2847, "pitch": 59, "duration": 5, "velocity": 98}, {"time": 2847, "pitch": 63, "duration": 4, "velocity": 101}, {"time": 2847, "pitch": 66, "duration": 5, "velocity": 95}, {"time": 2859, "pitch": 39, "duration": 18, "velocity": 89}, {"time": 2865, "pitch": 59, "duration": 8, "velocity": 99}, {"time": 2871, "pitch": 63, "duration": 8, "velocity": 101}, {"time": 2871, "pitch": 66, "duration": 8, "velocity": 96}, {"time": 2877, "pitch": 59, "duration": 5, "velocity": 96}, {"time": 2883, "pitch": 49, "duration": 21, "velocity": 98}, {"time": 2895, "pitch": 56, "duration": 3, "velocity": 97}, {"time": 2895, "pitch": 61, "duration": 15, "velocity": 98}, {"time": 2895, "pitch": 64, "duration": 16, "velocity": 100}, {"time": 2901, "pitch": 56, "duration": 9, "velocity": 98}, {"time": 2907, "pitch": 49, "duration": 20, "velocity": 95}, {"time": 2919, "pitch": 56, "duration": 3, "velocity": 96}, {"time": 2919, "pitch": 61, "duration": 8, "velocity": 97}, {"time": 2919, "pitch": 64, "duration": 9, "velocity": 102}, {"time": 2925, "pitch": 56, "duration": 2, "velocity": 90}, {"time": 2931, "pitch": 45, "duration": 20, "velocity": 97}, {"time": 2943, "pitch": 57, "duration": 3, "velocity": 96}, {"time": 2943, "pitch": 61, "duration": 4, "velocity": 109}, {"time": 2943, "pitch": 64, "duration": 5, "velocity": 101}, {"time": 2949, "pitch": 57, "duration": 5, "velocity": 97}, {"time": 2955, "pitch": 49, "duration": 18, "velocity": 73}, {"time": 2955, "pitch": 52, "duration": 22, "velocity": 90}, {"time": 2967, "pitch": 57, "duration": 4, "velocity": 97}, {"time": 2967, "pitch": 61, "duration": 11, "velocity": 112}, {"time": 2967, "pitch": 64, "duration": 11, "velocity": 102}, {"time": 2973, "pitch": 57, "duration": 5, "velocity": 88}, {"time": 2979, "pitch": 47, "duration": 44, "velocity": 99}, {"time": 2991, "pitch": 59, "duration": 3, "velocity": 97}, {"time": 2991, "pitch": 63, "duration": 5, "velocity": 106}, {"time": 2991, "pitch": 66, "duration": 7, "velocity": 98}, {"time": 3003, "pitch": 54, "duration": 17, "velocity": 96}, {"time": 3009, "pitch": 59, "duration": 4, "velocity": 97}, {"time": 3015, "pitch": 59, "duration": 3, "velocity": 91}, {"time": 3015, "pitch": 63, "duration": 9, "velocity": 102}, {"time": 3015, "pitch": 66, "duration": 11, "velocity": 99}, {"time": 3021, "pitch": 59, "duration": 10, "velocity": 91}, {"time": 3027, "pitch": 52, "duration": 22, "velocity": 102}, {"time": 3033, "pitch": 59, "duration": 6, "velocity": 88}, {"time": 3039, "pitch": 59, "duration": 15, "velocity": 82}, {"time": 3039, "pitch": 64, "duration": 16, "velocity": 98}, {"time": 3039, "pitch": 68, "duration": 16, "velocity": 96}, {"time": 3051, "pitch": 52, "duration": 20, "velocity": 97}, {"time": 3057, "pitch": 59, "duration": 3, "velocity": 96}, {"time": 3063, "pitch": 59, "duration": 7, "velocity": 95}, {"time": 3063, "pitch": 64, "duration": 6, "velocity": 104}, {"time": 3063, "pitch": 68, "duration": 8, "velocity": 100}, {"time": 3075, "pitch": 52, "duration": 23, "velocity": 96}, {"time": 3081, "pitch": 59, "duration": 5, "velocity": 91}, {"time": 3087, "pitch": 59, "duration": 15, "velocity": 93}, {"time": 3087, "pitch": 62, "duration": 16, "velocity": 93}, {"time": 3087, "pitch": 68, "duration": 20, "velocity": 98}, {"time": 3099, "pitch": 52, "duration": 22, "velocity": 97}, {"time": 3105, "pitch": 59, "duration": 8, "velocity": 96}, {"time": 3111, "pitch": 62, "duration": 9, "velocity": 97}, {"time": 3111, "pitch": 68, "duration": 9, "velocity": 100}, {"time": 3117, "pitch": 59, "duration": 4, "velocity": 96}, {"time": 3123, "pitch": 45, "duration": 23, "velocity": 97}, {"time": 3135, "pitch": 57, "duration": 8, "velocity": 95}, {"time": 3135, "pitch": 61, "duration": 8, "velocity": 97}, {"time": 3135, "pitch": 64, "duration": 8, "velocity": 100}, {"time": 3147, "pitch": 52, "duration": 20, "velocity": 88}, {"time": 3153, "pitch": 57, "duration": 11, "velocity": 91}, {"time": 3159, "pitch": 61, "duration": 8, "velocity": 101}, {"time": 3159, "pitch": 64, "duration": 8, "velocity": 102}, {"time": 3159, "pitch": 69, "duration": 11, "velocity": 97}, {"time": 3171, "pitch": 47, "duration": 20, "velocity": 96}, {"time": 3183, "pitch": 59, "duration": 8, "velocity": 99}, {"time": 3183, "pitch": 63, "duration": 7, "velocity": 104}, {"time": 3183, "pitch": 66, "duration": 7, "velocity": 98}, {"time": 3195, "pitch": 54, "duration": 17, "velocity": 81}, {"time": 3201, "pitch": 59, "duration": 4, "velocity": 95}, {"time": 3207, "pitch": 59, "duration": 4, "velocity": 96}, {"time": 3207, "pitch": 63, "duration": 13, "velocity": 100}, {"time": 3207, "pitch": 66, "duration": 14, "velocity": 95}, {"time": 3213, "pitch": 59, "duration": 9, "velocity": 97}, {"time": 3219, "pitch": 39, "duration": 18, "velocity": 95}, {"time": 3231, "pitch": 59, "duration": 5, "velocity": 98}, {"time": 3231, "pitch": 63, "duration": 4, "velocity": 101}, {"time": 3231, "pitch": 66, "duration": 5, "velocity": 95}, {"time": 3243, "pitch": 39, "duration": 18, "velocity": 89}, {"time": 3249, "pitch": 59, "duration": 8, "velocity": 99}, {"time": 3255, "pitch": 63, "duration": 8, "velocity": 101}, {"time": 3255, "pitch": 66, "duration": 8, "velocity": 96}, {"time": 3261, "pitch": 59, "duration": 5, "velocity": 96}, {"time": 3267, "pitch": 49, "duration": 21, "velocity": 98}, {"time": 3279, "pitch": 56, "duration": 3, "velocity": 97}, {"time": 3279, "pitch": 61, "duration": 15, "velocity": 98}, {"time": 3279, "pitch": 64, "duration": 16, "velocity": 100}, {"time": 3285, "pitch": 56, "duration": 9, "velocity": 98}, {"time": 3291, "pitch": 49, "duration": 20, "velocity": 95}, {"time": 3303, "pitch": 56, "duration": 3, "velocity": 96}, {"time": 3303, "pitch": 61, "duration": 8, "velocity": 97}, {"time": 3303, "pitch": 64, "duration": 9, "velocity": 102}, {"time": 3309, "pitch": 56, "duration": 2, "velocity": 90}, {"time": 3315, "pitch": 45, "duration": 20, "velocity": 97}, {"time": 3327, "pitch": 57, "duration": 3, "velocity": 96}, {"time": 3327, "pitch": 61, "duration": 4, "velocity": 109}, {"time": 3327, "pitch": 64, "duration": 5, "velocity": 101}, {"time": 3333, "pitch": 57, "duration": 5, "velocity": 97}, {"time": 3339, "pitch": 49, "duration": 18, "velocity": 73}, {"time": 3339, "pitch": 52, "duration": 22, "velocity": 90}, {"time": 3351, "pitch": 57, "duration": 4, "velocity": 97}, {"time": 3351, "pitch": 61, "duration": 11, "velocity": 112}, {"time": 3351, "pitch": 64, "duration": 11, "velocity": 102}, {"time": 3357, "pitch": 57, "duration": 5, "velocity": 88}, {"time": 3363, "pitch": 47, "duration": 44, "velocity": 99}, {"time": 3375, "pitch": 59, "duration": 3, "velocity": 97}, {"time": 3375, "pitch": 63, "duration": 5, "velocity": 106}, {"time": 3375, "pitch": 66, "duration": 7, "velocity": 98}, {"time": 3387, "pitch": 54, "duration": 17, "velocity": 96}, {"time": 3393, "pitch": 59, "duration": 4, "velocity": 97}, {"time": 3399, "pitch": 59, "duration": 3, "velocity": 91}, {"time": 3399, "pitch": 63, "duration": 9, "velocity": 102}, {"time": 3399, "pitch": 66, "duration": 11, "velocity": 99}, {"time": 3405, "pitch": 59, "duration": 10, "velocity": 91}, {"time": 3411, "pitch": 52, "duration": 22, "velocity": 102}, {"time": 3417, "pitch": 59, "duration": 6, "velocity": 88}, {"time": 3423, "pitch": 59, "duration": 15, "velocity": 82}, {"time": 3423, "pitch": 64, "duration": 16, "velocity": 98}, {"time": 3423, "pitch": 68, "duration": 16, "velocity": 96}, {"time": 3435, "pitch": 52, "duration": 20, "velocity": 97}, {"time": 3441, "pitch": 59, "duration": 3, "velocity": 96}, {"time": 3447, "pitch": 59, "duration": 7, "velocity": 95}, {"time": 3447, "pitch": 64, "duration": 6, "velocity": 104}, {"time": 3447, "pitch": 68, "duration": 8, "velocity": 100}, {"time": 3459, "pitch": 52, "duration": 23, "velocity": 96}, {"time": 3465, "pitch": 59, "duration": 5, "velocity": 91}, {"time": 3471, "pitch": 59, "duration": 15, "velocity": 93}, {"time": 3471, "pitch": 62, "duration": 16, "velocity": 93}, {"time": 3471, "pitch": 68, "duration": 20, "velocity": 98}, {"time": 3483, "pitch": 52, "duration": 22, "velocity": 97}, {"time": 3489, "pitch": 59, "duration": 8, "velocity": 96}, {"time": 3495, "pitch": 62, "duration": 9, "velocity": 97}, {"time": 3495, "pitch": 68, "duration": 9, "velocity": 100}, {"time": 3501, "pitch": 59, "duration": 4, "velocity": 96}, {"time": 3507, "pitch": 45, "duration": 42, "velocity": 91}, {"time": 3513, "pitch": 52, "duration": 38, "velocity": 86}, {"time": 3519, "pitch": 57, "duration": 8, "velocity": 90}, {"time": 3525, "pitch": 59, "duration": 8, "velocity": 96}, {"time": 3537, "pitch": 57, "duration": 18, "velocity": 84}, {"time": 3537, "pitch": 64, "duration": 20, "velocity": 95}, {"time": 3555, "pitch": 47, "duration": 32, "velocity": 96}, {"time": 3561, "pitch": 54, "duration": 23, "velocity": 81}, {"time": 3567, "pitch": 59, "duration": 4, "velocity": 91}, {"time": 3573, "pitch": 59, "duration": 33, "velocity": 96}, {"time": 3573, "pitch": 63, "duration": 36, "velocity": 90}, {"time": 3603, "pitch": 39, "duration": 37, "velocity": 86}, {"time": 3615, "pitch": 59, "duration": 10, "velocity": 95}, {"time": 3621, "pitch": 63, "duration": 28, "velocity": 91}, {"time": 3621, "pitch": 66, "duration": 29, "velocity": 91}, {"time": 3651, "pitch": 49, "duration": 44, "velocity": 92}, {"time": 3657, "pitch": 56, "duration": 9, "velocity": 82}, {"time": 3663, "pitch": 61, "duration": 4, "velocity": 85}, {"time": 3669, "pitch": 56, "duration": 26, "velocity": 84}, {"time": 3669, "pitch": 61, "duration": 28, "velocity": 88}, {"time": 3669, "pitch": 64, "duration": 31, "velocity": 96}, {"time": 3699, "pitch": 45, "duration": 42, "velocity": 88}, {"time": 3705, "pitch": 52, "duration": 16, "velocity": 91}, {"time": 3711, "pitch": 57, "duration": 13, "velocity": 90}, {"time": 3717, "pitch": 64, "duration": 19, "velocity": 96}, {"time": 3723, "pitch": 52, "duration": 20, "velocity": 93}, {"time": 3729, "pitch": 57, "duration": 9, "velocity": 85}, {"time": 3747, "pitch": 47, "duration": 36, "velocity": 89}, {"time": 3753, "pitch": 51, "duration": 10, "velocity": 80}, {"time": 3759, "pitch": 54, "duration": 21, "velocity": 86}, {"time": 3765, "pitch": 59, "duration": 9, "velocity": 99}, {"time": 3777, "pitch": 59, "duration": 13, "velocity": 88}, {"time": 3777, "pitch": 63, "duration": 8, "velocity": 86}, {"time": 3777, "pitch": 66, "duration": 13, "velocity": 86}, {"time": 3794, "pitch": 40, "duration": 115, "velocity": 95}, {"time": 3800, "pitch": 47, "duration": 107, "velocity": 83}, {"time": 3807, "pitch": 52, "duration": 9, "velocity": 95}, {"time": 3813, "pitch": 59, "duration": 7, "velocity": 89}, {"time": 3819, "pitch": 64, "duration": 3, "velocity": 96}, {"time": 3825, "pitch": 68, "duration": 5, "velocity": 96}, {"time": 3831, "pitch": 64, "duration": 21, "velocity": 94}, {"time": 3837, "pitch": 71, "duration": 25, "velocity": 83}, {"time": 3844, "pitch": 68, "duration": 10, "velocity": 74}, {"time": 3851, "pitch": 76, "duration": 15, "velocity": 91}, {"time": 3860, "pitch": 64, "duration": 3, "velocity": 83}, {"time": 3879, "pitch": 76, "duration": 3, "velocity": 76}, {"time": 3881, "pitch": 88, "duration": 3, "velocity": 89}], "annotations": [{"time": 3511, "annotation": {"number": 64, "value": 127}, "group": "control_change"}, {"time": 3554, "annotation": {"number": 64, "value": 0}, "group": "control_change"}, {"time": 3560, "annotation": {"number": 64, "value": 127}, "group": "control_change"}, {"time": 3600, "annotation": {"number": 64, "value": 0}, "group": "control_change"}, {"time": 3604, "annotation": {"number": 64, "value": 127}, "group": "control_change"}, {"time": 3643, "annotation": {"number": 64, "value": 0}, "group": "control_change"}, {"time": 3653, "annotation": {"number": 64, "value": 127}, "group": "control_change"}, {"time": 3698, "annotation": {"number": 64, "value": 0}, "group": "control_change"}, {"time": 3707, "annotation": {"number": 64, "value": 127}, "group": "control_change"}, {"time": 3746, "annotation": {"number": 64, "value": 0}, "group": "control_change"}, {"time": 3751, "annotation": {"number": 64, "value": 127}, "group": "control_change"}, {"time": 3794, "annotation": {"number": 64, "value": 0}, "group": "control_change"}, {"time": 3795, "annotation": {"number": 64, "value": 127}, "group": "control_change"}, {"time": 3928, "annotation": {"number": 64, "value": 0}, "group": "control_change"}]}]}