{"metadata": {"schema_version": "0.2", "title": "None", "source_filename": "437.mid", "source_format": "midi"}, "resolution": 12, "tempos": [{"time": 0, "qpm": 82.00014760026568}, {"time": 469, "qpm": 81.25016927118598}, {"time": 471, "qpm": 80.0}, {"time": 478, "qpm": 78.25001662812853}, {"time": 482, "qpm": 77.75011889289014}, {"time": 504, "qpm": 81.75010627513815}, {"time": 1298, "qpm": 80.25005918441865}, {"time": 1304, "qpm": 78.00017940041262}, {"time": 1308, "qpm": 75.0}, {"time": 1332, "qpm": 81.75010627513815}, {"time": 2077, "qpm": 79.49999801250004}, {"time": 2081, "qpm": 78.50002158750594}, {"time": 2087, "qpm": 76.50007076256546}, {"time": 2112, "qpm": 81.75010627513815}, {"time": 3596, "qpm": 81.000081000081}, {"time": 3720, "qpm": 82.00014760026568}, {"time": 3876, "qpm": 81.000081000081}], "time_signatures": [{"time": 0, "numerator": 1, "denominator": 4}], "tracks": [{"program": 0, "is_drum": false, "name": "MELODY", "notes": [{"time": 504, "pitch": 81, "duration": 4, "velocity": 94}, {"time": 510, "pitch": 81, "duration": 7, "velocity": 96}, {"time": 519, "pitch": 78, "duration": 3, "velocity": 94}, {"time": 522, "pitch": 76, "duration": 4, "velocity": 95}, {"time": 528, "pitch": 74, "duration": 9, "velocity": 95}, {"time": 540, "pitch": 76, "duration": 5, "velocity": 97}, {"time": 546, "pitch": 78, "duration": 4, "velocity": 95}, {"time": 552, "pitch": 76, "duration": 4, "velocity": 97}, {"time": 558, "pitch": 76, "duration": 4, "velocity": 98}, {"time": 564, "pitch": 74, "duration": 14, "velocity": 99}, {"time": 588, "pitch": 71, "duration": 7, "velocity": 90}, {"time": 594, "pitch": 74, "duration": 3, "velocity": 95}, {"time": 597, "pitch": 69, "duration": 2, "velocity": 88}, {"time": 600, "pitch": 71, "duration": 21, "velocity": 89}, {"time": 636, "pitch": 71, "duration": 9, "velocity": 95}, {"time": 648, "pitch": 69, "duration": 32, "velocity": 95}, {"time": 696, "pitch": 81, "duration": 4, "velocity": 90}, {"time": 702, "pitch": 81, "duration": 4, "velocity": 95}, {"time": 708, "pitch": 78, "duration": 5, "velocity": 95}, {"time": 714, "pitch": 76, "duration": 5, "velocity": 98}, {"time": 720, "pitch": 74, "duration": 10, "velocity": 101}, {"time": 732, "pitch": 76, "duration": 5, "velocity": 94}, {"time": 738, "pitch": 78, "duration": 6, "velocity": 95}, {"time": 744, "pitch": 76, "duration": 4, "velocity": 94}, {"time": 750, "pitch": 76, "duration": 5, "velocity": 100}, {"time": 756, "pitch": 74, "duration": 13, "velocity": 101}, {"time": 780, "pitch": 71, "duration": 6, "velocity": 95}, {"time": 786, "pitch": 74, "duration": 3, "velocity": 95}, {"time": 789, "pitch": 69, "duration": 3, "velocity": 86}, {"time": 792, "pitch": 71, "duration": 16, "velocity": 94}, {"time": 828, "pitch": 76, "duration": 4, "velocity": 96}, {"time": 834, "pitch": 78, "duration": 11, "velocity": 98}, {"time": 846, "pitch": 76, "duration": 5, "velocity": 95}, {"time": 852, "pitch": 79, "duration": 10, "velocity": 95}, {"time": 864, "pitch": 78, "duration": 14, "velocity": 96}, {"time": 876, "pitch": 76, "duration": 6, "velocity": 98}, {"time": 882, "pitch": 74, "duration": 6, "velocity": 95}, {"time": 888, "pitch": 74, "duration": 10, "velocity": 98}, {"time": 900, "pitch": 74, "duration": 4, "velocity": 97}, {"time": 906, "pitch": 76, "duration": 5, "velocity": 96}, {"time": 912, "pitch": 74, "duration": 8, "velocity": 101}, {"time": 924, "pitch": 86, "duration": 4, "velocity": 95}, {"time": 930, "pitch": 85, "duration": 5, "velocity": 98}, {"time": 936, "pitch": 83, "duration": 4, "velocity": 94}, {"time": 942, "pitch": 83, "duration": 5, "velocity": 95}, {"time": 948, "pitch": 81, "duration": 13, "velocity": 97}, {"time": 960, "pitch": 76, "duration": 4, "velocity": 89}, {"time": 966, "pitch": 76, "duration": 5, "velocity": 94}, {"time": 972, "pitch": 74, "duration": 6, "velocity": 101}, {"time": 984, "pitch": 74, "duration": 3, "velocity": 96}, {"time": 990, "pitch": 74, "duration": 4, "velocity": 97}, {"time": 996, "pitch": 74, "duration": 4, "velocity": 96}, {"time": 1002, "pitch": 76, "duration": 7, "velocity": 98}, {"time": 1008, "pitch": 74, "duration": 8, "velocity": 105}, {"time": 1020, "pitch": 76, "duration": 5, "velocity": 96}, {"time": 1026, "pitch": 78, "duration": 25, "velocity": 93}, {"time": 1080, "pitch": 74, "duration": 5, "velocity": 96}, {"time": 1086, "pitch": 74, "duration": 5, "velocity": 99}, {"time": 1092, "pitch": 74, "duration": 4, "velocity": 100}, {"time": 1098, "pitch": 76, "duration": 5, "velocity": 97}, {"time": 1104, "pitch": 74, "duration": 9, "velocity": 110}, {"time": 1116, "pitch": 86, "duration": 4, "velocity": 95}, {"time": 1122, "pitch": 85, "duration": 5, "velocity": 96}, {"time": 1128, "pitch": 83, "duration": 4, "velocity": 94}, {"time": 1134, "pitch": 83, "duration": 5, "velocity": 100}, {"time": 1140, "pitch": 81, "duration": 16, "velocity": 98}, {"time": 1164, "pitch": 86, "duration": 4, "velocity": 96}, {"time": 1170, "pitch": 86, "duration": 9, "velocity": 96}, {"time": 1182, "pitch": 83, "duration": 9, "velocity": 95}, {"time": 1194, "pitch": 78, "duration": 7, "velocity": 95}, {"time": 1200, "pitch": 74, "duration": 12, "velocity": 103}, {"time": 1212, "pitch": 76, "duration": 26, "velocity": 101}, {"time": 1254, "pitch": 78, "duration": 10, "velocity": 92}, {"time": 1266, "pitch": 76, "duration": 34, "velocity": 95}, {"time": 1314, "pitch": 81, "duration": 5, "velocity": 87}, {"time": 1320, "pitch": 78, "duration": 10, "velocity": 95}, {"time": 1332, "pitch": 76, "duration": 5, "velocity": 98}, {"time": 1338, "pitch": 74, "duration": 15, "velocity": 101}, {"time": 1356, "pitch": 69, "duration": 4, "velocity": 95}, {"time": 1362, "pitch": 81, "duration": 5, "velocity": 96}, {"time": 1368, "pitch": 78, "duration": 6, "velocity": 96}, {"time": 1374, "pitch": 76, "duration": 18, "velocity": 100}, {"time": 1392, "pitch": 74, "duration": 12, "velocity": 99}, {"time": 1404, "pitch": 74, "duration": 4, "velocity": 101}, {"time": 1410, "pitch": 86, "duration": 4, "velocity": 96}, {"time": 1416, "pitch": 85, "duration": 4, "velocity": 95}, {"time": 1422, "pitch": 85, "duration": 15, "velocity": 100}, {"time": 1440, "pitch": 83, "duration": 10, "velocity": 95}, {"time": 1452, "pitch": 81, "duration": 5, "velocity": 94}, {"time": 1458, "pitch": 83, "duration": 4, "velocity": 98}, {"time": 1464, "pitch": 81, "duration": 3, "velocity": 97}, {"time": 1470, "pitch": 78, "duration": 4, "velocity": 95}, {"time": 1476, "pitch": 81, "duration": 12, "velocity": 100}, {"time": 1500, "pitch": 74, "duration": 5, "velocity": 101}, {"time": 1506, "pitch": 86, "duration": 4, "velocity": 95}, {"time": 1512, "pitch": 85, "duration": 4, "velocity": 95}, {"time": 1518, "pitch": 85, "duration": 16, "velocity": 103}, {"time": 1536, "pitch": 83, "duration": 6, "velocity": 95}, {"time": 1548, "pitch": 81, "duration": 3, "velocity": 89}, {"time": 1554, "pitch": 81, "duration": 5, "velocity": 96}, {"time": 1560, "pitch": 86, "duration": 5, "velocity": 97}, {"time": 1566, "pitch": 78, "duration": 12, "velocity": 95}, {"time": 1578, "pitch": 76, "duration": 10, "velocity": 96}, {"time": 1590, "pitch": 74, "duration": 9, "velocity": 100}, {"time": 1608, "pitch": 78, "duration": 5, "velocity": 93}, {"time": 1614, "pitch": 79, "duration": 4, "velocity": 94}, {"time": 1620, "pitch": 78, "duration": 4, "velocity": 97}, {"time": 1626, "pitch": 74, "duration": 5, "velocity": 100}, {"time": 1632, "pitch": 71, "duration": 4, "velocity": 96}, {"time": 1638, "pitch": 74, "duration": 14, "velocity": 98}, {"time": 1656, "pitch": 71, "duration": 12, "velocity": 96}, {"time": 1668, "pitch": 69, "duration": 20, "velocity": 97}, {"time": 1692, "pitch": 69, "duration": 5, "velocity": 96}, {"time": 1698, "pitch": 81, "duration": 4, "velocity": 94}, {"time": 1704, "pitch": 78, "duration": 5, "velocity": 97}, {"time": 1710, "pitch": 76, "duration": 12, "velocity": 103}, {"time": 1722, "pitch": 74, "duration": 15, "velocity": 95}, {"time": 1740, "pitch": 69, "duration": 3, "velocity": 100}, {"time": 1746, "pitch": 81, "duration": 3, "velocity": 93}, {"time": 1752, "pitch": 78, "duration": 4, "velocity": 87}, {"time": 1758, "pitch": 76, "duration": 12, "velocity": 105}, {"time": 1776, "pitch": 74, "duration": 8, "velocity": 108}, {"time": 1788, "pitch": 74, "duration": 5, "velocity": 101}, {"time": 1794, "pitch": 86, "duration": 5, "velocity": 83}, {"time": 1800, "pitch": 85, "duration": 4, "velocity": 96}, {"time": 1806, "pitch": 85, "duration": 14, "velocity": 98}, {"time": 1824, "pitch": 83, "duration": 8, "velocity": 96}, {"time": 1836, "pitch": 81, "duration": 4, "velocity": 94}, {"time": 1842, "pitch": 83, "duration": 4, "velocity": 95}, {"time": 1848, "pitch": 81, "duration": 4, "velocity": 95}, {"time": 1854, "pitch": 78, "duration": 6, "velocity": 95}, {"time": 1860, "pitch": 81, "duration": 17, "velocity": 95}, {"time": 1884, "pitch": 74, "duration": 5, "velocity": 100}, {"time": 1890, "pitch": 86, "duration": 4, "velocity": 100}, {"time": 1896, "pitch": 85, "duration": 4, "velocity": 96}, {"time": 1902, "pitch": 85, "duration": 15, "velocity": 108}, {"time": 1920, "pitch": 83, "duration": 9, "velocity": 95}, {"time": 1932, "pitch": 81, "duration": 4, "velocity": 97}, {"time": 1938, "pitch": 81, "duration": 4, "velocity": 94}, {"time": 1944, "pitch": 86, "duration": 4, "velocity": 96}, {"time": 1950, "pitch": 78, "duration": 9, "velocity": 94}, {"time": 1962, "pitch": 76, "duration": 9, "velocity": 101}, {"time": 1974, "pitch": 74, "duration": 14, "velocity": 99}, {"time": 1998, "pitch": 79, "duration": 5, "velocity": 89}, {"time": 2004, "pitch": 78, "duration": 5, "velocity": 99}, {"time": 2010, "pitch": 74, "duration": 5, "velocity": 103}, {"time": 2016, "pitch": 71, "duration": 5, "velocity": 99}, {"time": 2022, "pitch": 74, "duration": 19, "velocity": 98}, {"time": 2046, "pitch": 79, "duration": 5, "velocity": 94}, {"time": 2052, "pitch": 78, "duration": 5, "velocity": 96}, {"time": 2058, "pitch": 74, "duration": 5, "velocity": 99}, {"time": 2064, "pitch": 71, "duration": 5, "velocity": 98}, {"time": 2070, "pitch": 74, "duration": 18, "velocity": 99}, {"time": 2094, "pitch": 76, "duration": 12, "velocity": 96}, {"time": 2106, "pitch": 74, "duration": 37, "velocity": 100}, {"time": 2496, "pitch": 74, "duration": 10, "velocity": 98}, {"time": 2508, "pitch": 74, "duration": 4, "velocity": 97}, {"time": 2514, "pitch": 76, "duration": 5, "velocity": 96}, {"time": 2520, "pitch": 74, "duration": 8, "velocity": 101}, {"time": 2532, "pitch": 86, "duration": 4, "velocity": 95}, {"time": 2538, "pitch": 85, "duration": 5, "velocity": 98}, {"time": 2544, "pitch": 83, "duration": 4, "velocity": 94}, {"time": 2550, "pitch": 83, "duration": 5, "velocity": 95}, {"time": 2556, "pitch": 81, "duration": 13, "velocity": 97}, {"time": 2568, "pitch": 76, "duration": 4, "velocity": 89}, {"time": 2574, "pitch": 76, "duration": 5, "velocity": 94}, {"time": 2580, "pitch": 74, "duration": 6, "velocity": 101}, {"time": 2592, "pitch": 74, "duration": 3, "velocity": 96}, {"time": 2598, "pitch": 74, "duration": 4, "velocity": 97}, {"time": 2604, "pitch": 74, "duration": 4, "velocity": 96}, {"time": 2610, "pitch": 76, "duration": 7, "velocity": 98}, {"time": 2616, "pitch": 74, "duration": 8, "velocity": 105}, {"time": 2628, "pitch": 76, "duration": 5, "velocity": 96}, {"time": 2634, "pitch": 78, "duration": 25, "velocity": 93}, {"time": 2688, "pitch": 74, "duration": 5, "velocity": 96}, {"time": 2694, "pitch": 74, "duration": 5, "velocity": 99}, {"time": 2700, "pitch": 74, "duration": 4, "velocity": 100}, {"time": 2706, "pitch": 76, "duration": 5, "velocity": 97}, {"time": 2712, "pitch": 74, "duration": 9, "velocity": 110}, {"time": 2724, "pitch": 86, "duration": 4, "velocity": 95}, {"time": 2730, "pitch": 85, "duration": 5, "velocity": 96}, {"time": 2736, "pitch": 83, "duration": 4, "velocity": 94}, {"time": 2742, "pitch": 83, "duration": 5, "velocity": 100}, {"time": 2748, "pitch": 81, "duration": 16, "velocity": 98}, {"time": 2772, "pitch": 86, "duration": 4, "velocity": 96}, {"time": 2778, "pitch": 86, "duration": 9, "velocity": 96}, {"time": 2790, "pitch": 83, "duration": 9, "velocity": 95}, {"time": 2802, "pitch": 78, "duration": 7, "velocity": 95}, {"time": 2808, "pitch": 74, "duration": 12, "velocity": 103}, {"time": 2820, "pitch": 76, "duration": 26, "velocity": 101}, {"time": 2862, "pitch": 78, "duration": 10, "velocity": 92}, {"time": 2874, "pitch": 76, "duration": 34, "velocity": 95}, {"time": 2922, "pitch": 81, "duration": 5, "velocity": 87}, {"time": 2928, "pitch": 78, "duration": 10, "velocity": 95}, {"time": 2940, "pitch": 76, "duration": 5, "velocity": 98}, {"time": 2946, "pitch": 74, "duration": 15, "velocity": 101}, {"time": 2964, "pitch": 69, "duration": 4, "velocity": 95}, {"time": 2970, "pitch": 81, "duration": 5, "velocity": 96}, {"time": 2976, "pitch": 78, "duration": 6, "velocity": 96}, {"time": 2982, "pitch": 76, "duration": 18, "velocity": 100}, {"time": 3000, "pitch": 74, "duration": 12, "velocity": 99}, {"time": 3012, "pitch": 74, "duration": 4, "velocity": 101}, {"time": 3018, "pitch": 86, "duration": 4, "velocity": 96}, {"time": 3024, "pitch": 85, "duration": 4, "velocity": 95}, {"time": 3030, "pitch": 85, "duration": 15, "velocity": 100}, {"time": 3048, "pitch": 83, "duration": 10, "velocity": 95}, {"time": 3060, "pitch": 81, "duration": 5, "velocity": 94}, {"time": 3066, "pitch": 83, "duration": 4, "velocity": 98}, {"time": 3072, "pitch": 81, "duration": 3, "velocity": 97}, {"time": 3078, "pitch": 78, "duration": 4, "velocity": 95}, {"time": 3084, "pitch": 81, "duration": 12, "velocity": 100}, {"time": 3108, "pitch": 74, "duration": 5, "velocity": 101}, {"time": 3114, "pitch": 86, "duration": 4, "velocity": 95}, {"time": 3120, "pitch": 85, "duration": 4, "velocity": 95}, {"time": 3126, "pitch": 85, "duration": 16, "velocity": 103}, {"time": 3144, "pitch": 83, "duration": 6, "velocity": 95}, {"time": 3156, "pitch": 81, "duration": 3, "velocity": 89}, {"time": 3162, "pitch": 81, "duration": 5, "velocity": 96}, {"time": 3168, "pitch": 86, "duration": 5, "velocity": 97}, {"time": 3174, "pitch": 78, "duration": 12, "velocity": 95}, {"time": 3186, "pitch": 76, "duration": 10, "velocity": 96}, {"time": 3198, "pitch": 74, "duration": 9, "velocity": 100}, {"time": 3216, "pitch": 78, "duration": 5, "velocity": 93}, {"time": 3222, "pitch": 79, "duration": 4, "velocity": 94}, {"time": 3228, "pitch": 78, "duration": 4, "velocity": 97}, {"time": 3234, "pitch": 74, "duration": 5, "velocity": 100}, {"time": 3240, "pitch": 71, "duration": 4, "velocity": 96}, {"time": 3246, "pitch": 74, "duration": 14, "velocity": 98}, {"time": 3264, "pitch": 71, "duration": 12, "velocity": 96}, {"time": 3276, "pitch": 69, "duration": 20, "velocity": 97}, {"time": 3300, "pitch": 69, "duration": 5, "velocity": 96}, {"time": 3306, "pitch": 81, "duration": 4, "velocity": 94}, {"time": 3312, "pitch": 78, "duration": 5, "velocity": 97}, {"time": 3318, "pitch": 76, "duration": 12, "velocity": 103}, {"time": 3330, "pitch": 74, "duration": 15, "velocity": 95}, {"time": 3348, "pitch": 69, "duration": 3, "velocity": 100}, {"time": 3354, "pitch": 81, "duration": 3, "velocity": 93}, {"time": 3360, "pitch": 78, "duration": 4, "velocity": 87}, {"time": 3366, "pitch": 76, "duration": 12, "velocity": 105}, {"time": 3384, "pitch": 74, "duration": 8, "velocity": 108}, {"time": 3396, "pitch": 74, "duration": 5, "velocity": 101}, {"time": 3402, "pitch": 86, "duration": 5, "velocity": 83}, {"time": 3408, "pitch": 85, "duration": 4, "velocity": 96}, {"time": 3414, "pitch": 85, "duration": 14, "velocity": 98}, {"time": 3432, "pitch": 83, "duration": 8, "velocity": 96}, {"time": 3444, "pitch": 81, "duration": 4, "velocity": 94}, {"time": 3450, "pitch": 83, "duration": 4, "velocity": 95}, {"time": 3456, "pitch": 81, "duration": 4, "velocity": 95}, {"time": 3462, "pitch": 78, "duration": 6, "velocity": 95}, {"time": 3468, "pitch": 81, "duration": 17, "velocity": 95}, {"time": 3492, "pitch": 74, "duration": 5, "velocity": 100}, {"time": 3498, "pitch": 86, "duration": 4, "velocity": 100}, {"time": 3504, "pitch": 85, "duration": 4, "velocity": 96}, {"time": 3510, "pitch": 85, "duration": 15, "velocity": 108}, {"time": 3528, "pitch": 83, "duration": 9, "velocity": 95}, {"time": 3540, "pitch": 81, "duration": 4, "velocity": 97}, {"time": 3546, "pitch": 81, "duration": 4, "velocity": 94}, {"time": 3552, "pitch": 86, "duration": 4, "velocity": 96}, {"time": 3558, "pitch": 78, "duration": 9, "velocity": 94}, {"time": 3570, "pitch": 76, "duration": 9, "velocity": 101}, {"time": 3582, "pitch": 74, "duration": 14, "velocity": 99}, {"time": 3606, "pitch": 79, "duration": 5, "velocity": 89}, {"time": 3612, "pitch": 78, "duration": 5, "velocity": 99}, {"time": 3618, "pitch": 74, "duration": 5, "velocity": 103}, {"time": 3624, "pitch": 71, "duration": 5, "velocity": 99}, {"time": 3630, "pitch": 74, "duration": 19, "velocity": 98}, {"time": 3654, "pitch": 79, "duration": 5, "velocity": 94}, {"time": 3660, "pitch": 78, "duration": 5, "velocity": 96}, {"time": 3666, "pitch": 74, "duration": 5, "velocity": 99}, {"time": 3672, "pitch": 71, "duration": 5, "velocity": 98}, {"time": 3678, "pitch": 74, "duration": 18, "velocity": 99}, {"time": 3702, "pitch": 76, "duration": 12, "velocity": 96}, {"time": 3714, "pitch": 74, "duration": 37, "velocity": 100}, {"time": 3865, "pitch": 78, "duration": 4, "velocity": 92}, {"time": 3870, "pitch": 79, "duration": 5, "velocity": 95}, {"time": 3876, "pitch": 78, "duration": 4, "velocity": 96}, {"time": 3882, "pitch": 74, "duration": 4, "velocity": 100}, {"time": 3888, "pitch": 71, "duration": 5, "velocity": 89}, {"time": 3894, "pitch": 74, "duration": 22, "velocity": 96}, {"time": 3918, "pitch": 79, "duration": 4, "velocity": 95}, {"time": 3924, "pitch": 78, "duration": 5, "velocity": 95}, {"time": 3931, "pitch": 74, "duration": 4, "velocity": 101}, {"time": 3937, "pitch": 71, "duration": 4, "velocity": 94}, {"time": 3943, "pitch": 74, "duration": 23, "velocity": 98}, {"time": 3972, "pitch": 76, "duration": 11, "velocity": 94}, {"time": 3983, "pitch": 74, "duration": 36, "velocity": 95}]}, {"program": 0, "is_drum": false, "name": "PIANO", "notes": [{"time": 18, "pitch": 50, "duration": 49, "velocity": 98}, {"time": 24, "pitch": 57, "duration": 8, "velocity": 94}, {"time": 30, "pitch": 62, "duration": 7, "velocity": 91}, {"time": 36, "pitch": 66, "duration": 6, "velocity": 96}, {"time": 42, "pitch": 69, "duration": 7, "velocity": 97}, {"time": 48, "pitch": 74, "duration": 8, "velocity": 99}, {"time": 54, "pitch": 78, "duration": 12, "velocity": 89}, {"time": 66, "pitch": 40, "duration": 50, "velocity": 97}, {"time": 72, "pitch": 52, "duration": 5, "velocity": 93}, {"time": 78, "pitch": 56, "duration": 3, "velocity": 94}, {"time": 84, "pitch": 59, "duration": 7, "velocity": 92}, {"time": 90, "pitch": 64, "duration": 8, "velocity": 94}, {"time": 96, "pitch": 68, "duration": 7, "velocity": 101}, {"time": 102, "pitch": 71, "duration": 14, "velocity": 96}, {"time": 114, "pitch": 38, "duration": 54, "velocity": 96}, {"time": 120, "pitch": 45, "duration": 47, "velocity": 88}, {"time": 126, "pitch": 50, "duration": 7, "velocity": 95}, {"time": 132, "pitch": 57, "duration": 2, "velocity": 95}, {"time": 138, "pitch": 62, "duration": 13, "velocity": 94}, {"time": 144, "pitch": 66, "duration": 8, "velocity": 94}, {"time": 150, "pitch": 69, "duration": 14, "velocity": 94}, {"time": 156, "pitch": 74, "duration": 9, "velocity": 91}, {"time": 162, "pitch": 40, "duration": 55, "velocity": 97}, {"time": 168, "pitch": 47, "duration": 48, "velocity": 83}, {"time": 174, "pitch": 52, "duration": 4, "velocity": 97}, {"time": 180, "pitch": 56, "duration": 2, "velocity": 97}, {"time": 186, "pitch": 59, "duration": 8, "velocity": 94}, {"time": 192, "pitch": 64, "duration": 20, "velocity": 95}, {"time": 198, "pitch": 68, "duration": 13, "velocity": 101}, {"time": 204, "pitch": 59, "duration": 4, "velocity": 41}, {"time": 204, "pitch": 71, "duration": 8, "velocity": 94}, {"time": 210, "pitch": 41, "duration": 46, "velocity": 97}, {"time": 216, "pitch": 48, "duration": 40, "velocity": 88}, {"time": 222, "pitch": 53, "duration": 12, "velocity": 95}, {"time": 228, "pitch": 57, "duration": 15, "velocity": 94}, {"time": 234, "pitch": 60, "duration": 9, "velocity": 92}, {"time": 240, "pitch": 65, "duration": 4, "velocity": 92}, {"time": 246, "pitch": 69, "duration": 14, "velocity": 96}, {"time": 258, "pitch": 43, "duration": 46, "velocity": 96}, {"time": 264, "pitch": 50, "duration": 40, "velocity": 89}, {"time": 270, "pitch": 55, "duration": 13, "velocity": 94}, {"time": 276, "pitch": 62, "duration": 9, "velocity": 88}, {"time": 282, "pitch": 67, "duration": 7, "velocity": 88}, {"time": 288, "pitch": 62, "duration": 3, "velocity": 89}, {"time": 294, "pitch": 71, "duration": 12, "velocity": 93}, {"time": 306, "pitch": 45, "duration": 53, "velocity": 97}, {"time": 312, "pitch": 52, "duration": 42, "velocity": 93}, {"time": 318, "pitch": 57, "duration": 21, "velocity": 97}, {"time": 324, "pitch": 61, "duration": 16, "velocity": 94}, {"time": 330, "pitch": 64, "duration": 10, "velocity": 94}, {"time": 336, "pitch": 69, "duration": 20, "velocity": 91}, {"time": 342, "pitch": 64, "duration": 12, "velocity": 94}, {"time": 348, "pitch": 57, "duration": 7, "velocity": 89}, {"time": 354, "pitch": 43, "duration": 44, "velocity": 99}, {"time": 360, "pitch": 50, "duration": 38, "velocity": 87}, {"time": 366, "pitch": 55, "duration": 15, "velocity": 98}, {"time": 372, "pitch": 62, "duration": 13, "velocity": 90}, {"time": 378, "pitch": 67, "duration": 11, "velocity": 92}, {"time": 384, "pitch": 55, "duration": 10, "velocity": 88}, {"time": 390, "pitch": 62, "duration": 13, "velocity": 94}, {"time": 390, "pitch": 67, "duration": 25, "velocity": 90}, {"time": 396, "pitch": 55, "duration": 7, "velocity": 84}, {"time": 402, "pitch": 45, "duration": 45, "velocity": 95}, {"time": 408, "pitch": 52, "duration": 45, "velocity": 89}, {"time": 414, "pitch": 57, "duration": 13, "velocity": 94}, {"time": 420, "pitch": 61, "duration": 8, "velocity": 80}, {"time": 426, "pitch": 64, "duration": 25, "velocity": 91}, {"time": 432, "pitch": 61, "duration": 19, "velocity": 71}, {"time": 438, "pitch": 69, "duration": 13, "velocity": 87}, {"time": 444, "pitch": 57, "duration": 7, "velocity": 84}, {"time": 450, "pitch": 45, "duration": 39, "velocity": 96}, {"time": 450, "pitch": 57, "duration": 1, "velocity": 82}, {"time": 450, "pitch": 61, "duration": 1, "velocity": 86}, {"time": 450, "pitch": 64, "duration": 1, "velocity": 89}, {"time": 456, "pitch": 52, "duration": 32, "velocity": 84}, {"time": 462, "pitch": 57, "duration": 35, "velocity": 77}, {"time": 474, "pitch": 61, "duration": 25, "velocity": 81}, {"time": 474, "pitch": 69, "duration": 24, "velocity": 83}, {"time": 498, "pitch": 38, "duration": 39, "velocity": 100}, {"time": 504, "pitch": 45, "duration": 32, "velocity": 80}, {"time": 510, "pitch": 50, "duration": 18, "velocity": 84}, {"time": 516, "pitch": 54, "duration": 12, "velocity": 91}, {"time": 522, "pitch": 62, "duration": 28, "velocity": 95}, {"time": 528, "pitch": 57, "duration": 16, "velocity": 76}, {"time": 534, "pitch": 54, "duration": 9, "velocity": 81}, {"time": 546, "pitch": 47, "duration": 42, "velocity": 94}, {"time": 552, "pitch": 54, "duration": 21, "velocity": 80}, {"time": 558, "pitch": 59, "duration": 9, "velocity": 94}, {"time": 564, "pitch": 61, "duration": 7, "velocity": 95}, {"time": 570, "pitch": 62, "duration": 15, "velocity": 97}, {"time": 576, "pitch": 54, "duration": 10, "velocity": 79}, {"time": 582, "pitch": 59, "duration": 6, "velocity": 86}, {"time": 594, "pitch": 43, "duration": 44, "velocity": 95}, {"time": 600, "pitch": 50, "duration": 36, "velocity": 80}, {"time": 606, "pitch": 55, "duration": 13, "velocity": 88}, {"time": 612, "pitch": 59, "duration": 8, "velocity": 79}, {"time": 618, "pitch": 62, "duration": 26, "velocity": 91}, {"time": 624, "pitch": 55, "duration": 19, "velocity": 83}, {"time": 630, "pitch": 59, "duration": 13, "velocity": 75}, {"time": 630, "pitch": 67, "duration": 26, "velocity": 83}, {"time": 642, "pitch": 45, "duration": 46, "velocity": 90}, {"time": 648, "pitch": 52, "duration": 32, "velocity": 83}, {"time": 654, "pitch": 57, "duration": 13, "velocity": 83}, {"time": 660, "pitch": 62, "duration": 4, "velocity": 81}, {"time": 666, "pitch": 64, "duration": 9, "velocity": 94}, {"time": 678, "pitch": 57, "duration": 8, "velocity": 94}, {"time": 678, "pitch": 61, "duration": 9, "velocity": 92}, {"time": 684, "pitch": 52, "duration": 5, "velocity": 91}, {"time": 690, "pitch": 50, "duration": 41, "velocity": 93}, {"time": 696, "pitch": 57, "duration": 13, "velocity": 88}, {"time": 702, "pitch": 62, "duration": 7, "velocity": 89}, {"time": 708, "pitch": 64, "duration": 3, "velocity": 93}, {"time": 714, "pitch": 66, "duration": 10, "velocity": 92}, {"time": 720, "pitch": 57, "duration": 5, "velocity": 81}, {"time": 726, "pitch": 57, "duration": 13, "velocity": 91}, {"time": 726, "pitch": 62, "duration": 20, "velocity": 94}, {"time": 738, "pitch": 47, "duration": 44, "velocity": 96}, {"time": 744, "pitch": 54, "duration": 21, "velocity": 78}, {"time": 750, "pitch": 59, "duration": 8, "velocity": 90}, {"time": 756, "pitch": 61, "duration": 5, "velocity": 89}, {"time": 762, "pitch": 62, "duration": 14, "velocity": 94}, {"time": 768, "pitch": 54, "duration": 11, "velocity": 83}, {"time": 774, "pitch": 59, "duration": 25, "velocity": 94}, {"time": 786, "pitch": 43, "duration": 40, "velocity": 95}, {"time": 792, "pitch": 50, "duration": 21, "velocity": 85}, {"time": 798, "pitch": 55, "duration": 7, "velocity": 90}, {"time": 804, "pitch": 57, "duration": 7, "velocity": 87}, {"time": 810, "pitch": 59, "duration": 10, "velocity": 93}, {"time": 816, "pitch": 50, "duration": 8, "velocity": 75}, {"time": 822, "pitch": 55, "duration": 8, "velocity": 91}, {"time": 822, "pitch": 59, "duration": 7, "velocity": 93}, {"time": 822, "pitch": 62, "duration": 9, "velocity": 95}, {"time": 834, "pitch": 42, "duration": 37, "velocity": 95}, {"time": 834, "pitch": 54, "duration": 8, "velocity": 86}, {"time": 834, "pitch": 59, "duration": 13, "velocity": 88}, {"time": 840, "pitch": 49, "duration": 22, "velocity": 76}, {"time": 846, "pitch": 54, "duration": 9, "velocity": 93}, {"time": 852, "pitch": 59, "duration": 2, "velocity": 82}, {"time": 858, "pitch": 58, "duration": 6, "velocity": 86}, {"time": 864, "pitch": 49, "duration": 7, "velocity": 82}, {"time": 870, "pitch": 54, "duration": 3, "velocity": 96}, {"time": 870, "pitch": 58, "duration": 4, "velocity": 95}, {"time": 882, "pitch": 47, "duration": 39, "velocity": 96}, {"time": 882, "pitch": 59, "duration": 10, "velocity": 86}, {"time": 882, "pitch": 62, "duration": 15, "velocity": 90}, {"time": 888, "pitch": 54, "duration": 10, "velocity": 79}, {"time": 894, "pitch": 59, "duration": 13, "velocity": 87}, {"time": 900, "pitch": 62, "duration": 8, "velocity": 87}, {"time": 906, "pitch": 66, "duration": 15, "velocity": 95}, {"time": 912, "pitch": 54, "duration": 7, "velocity": 65}, {"time": 918, "pitch": 59, "duration": 4, "velocity": 93}, {"time": 930, "pitch": 42, "duration": 36, "velocity": 101}, {"time": 936, "pitch": 49, "duration": 31, "velocity": 83}, {"time": 942, "pitch": 54, "duration": 2, "velocity": 89}, {"time": 948, "pitch": 57, "duration": 7, "velocity": 89}, {"time": 954, "pitch": 61, "duration": 6, "velocity": 94}, {"time": 966, "pitch": 61, "duration": 11, "velocity": 85}, {"time": 966, "pitch": 66, "duration": 13, "velocity": 83}, {"time": 972, "pitch": 57, "duration": 7, "velocity": 86}, {"time": 978, "pitch": 40, "duration": 40, "velocity": 89}, {"time": 984, "pitch": 47, "duration": 34, "velocity": 91}, {"time": 990, "pitch": 52, "duration": 25, "velocity": 90}, {"time": 996, "pitch": 55, "duration": 7, "velocity": 88}, {"time": 1002, "pitch": 59, "duration": 15, "velocity": 88}, {"time": 1008, "pitch": 55, "duration": 8, "velocity": 82}, {"time": 1014, "pitch": 64, "duration": 10, "velocity": 94}, {"time": 1020, "pitch": 52, "duration": 5, "velocity": 86}, {"time": 1020, "pitch": 55, "duration": 2, "velocity": 42}, {"time": 1020, "pitch": 59, "duration": 3, "velocity": 41}, {"time": 1026, "pitch": 42, "duration": 39, "velocity": 98}, {"time": 1026, "pitch": 54, "duration": 8, "velocity": 92}, {"time": 1026, "pitch": 59, "duration": 13, "velocity": 86}, {"time": 1032, "pitch": 49, "duration": 23, "velocity": 83}, {"time": 1038, "pitch": 54, "duration": 8, "velocity": 97}, {"time": 1044, "pitch": 59, "duration": 3, "velocity": 79}, {"time": 1050, "pitch": 54, "duration": 10, "velocity": 84}, {"time": 1050, "pitch": 58, "duration": 10, "velocity": 94}, {"time": 1056, "pitch": 49, "duration": 9, "velocity": 74}, {"time": 1062, "pitch": 54, "duration": 4, "velocity": 96}, {"time": 1062, "pitch": 61, "duration": 5, "velocity": 96}, {"time": 1074, "pitch": 47, "duration": 39, "velocity": 96}, {"time": 1074, "pitch": 59, "duration": 9, "velocity": 90}, {"time": 1074, "pitch": 62, "duration": 13, "velocity": 93}, {"time": 1080, "pitch": 54, "duration": 21, "velocity": 82}, {"time": 1086, "pitch": 59, "duration": 12, "velocity": 94}, {"time": 1092, "pitch": 62, "duration": 8, "velocity": 92}, {"time": 1098, "pitch": 66, "duration": 14, "velocity": 99}, {"time": 1104, "pitch": 54, "duration": 8, "velocity": 71}, {"time": 1110, "pitch": 59, "duration": 5, "velocity": 94}, {"time": 1110, "pitch": 62, "duration": 4, "velocity": 95}, {"time": 1122, "pitch": 42, "duration": 39, "velocity": 96}, {"time": 1122, "pitch": 57, "duration": 6, "velocity": 85}, {"time": 1122, "pitch": 61, "duration": 14, "velocity": 94}, {"time": 1128, "pitch": 49, "duration": 32, "velocity": 75}, {"time": 1134, "pitch": 57, "duration": 13, "velocity": 87}, {"time": 1140, "pitch": 61, "duration": 8, "velocity": 94}, {"time": 1146, "pitch": 66, "duration": 16, "velocity": 96}, {"time": 1152, "pitch": 57, "duration": 8, "velocity": 86}, {"time": 1158, "pitch": 61, "duration": 6, "velocity": 92}, {"time": 1164, "pitch": 57, "duration": 1, "velocity": 68}, {"time": 1170, "pitch": 43, "duration": 46, "velocity": 95}, {"time": 1170, "pitch": 55, "duration": 10, "velocity": 87}, {"time": 1170, "pitch": 59, "duration": 13, "velocity": 89}, {"time": 1176, "pitch": 50, "duration": 39, "velocity": 85}, {"time": 1182, "pitch": 62, "duration": 12, "velocity": 90}, {"time": 1188, "pitch": 59, "duration": 8, "velocity": 82}, {"time": 1194, "pitch": 67, "duration": 27, "velocity": 93}, {"time": 1200, "pitch": 62, "duration": 20, "velocity": 89}, {"time": 1206, "pitch": 55, "duration": 11, "velocity": 90}, {"time": 1212, "pitch": 59, "duration": 8, "velocity": 91}, {"time": 1218, "pitch": 43, "duration": 49, "velocity": 96}, {"time": 1224, "pitch": 50, "duration": 43, "velocity": 85}, {"time": 1230, "pitch": 55, "duration": 25, "velocity": 94}, {"time": 1236, "pitch": 58, "duration": 4, "velocity": 90}, {"time": 1242, "pitch": 62, "duration": 23, "velocity": 92}, {"time": 1248, "pitch": 58, "duration": 17, "velocity": 54}, {"time": 1254, "pitch": 67, "duration": 13, "velocity": 90}, {"time": 1260, "pitch": 55, "duration": 6, "velocity": 83}, {"time": 1266, "pitch": 45, "duration": 61, "velocity": 98}, {"time": 1272, "pitch": 52, "duration": 54, "velocity": 88}, {"time": 1278, "pitch": 57, "duration": 20, "velocity": 89}, {"time": 1284, "pitch": 61, "duration": 8, "velocity": 98}, {"time": 1290, "pitch": 64, "duration": 19, "velocity": 94}, {"time": 1296, "pitch": 61, "duration": 8, "velocity": 82}, {"time": 1302, "pitch": 67, "duration": 6, "velocity": 81}, {"time": 1308, "pitch": 57, "duration": 18, "velocity": 73}, {"time": 1314, "pitch": 61, "duration": 12, "velocity": 78}, {"time": 1314, "pitch": 64, "duration": 13, "velocity": 86}, {"time": 1314, "pitch": 69, "duration": 13, "velocity": 84}, {"time": 1326, "pitch": 38, "duration": 40, "velocity": 90}, {"time": 1332, "pitch": 45, "duration": 23, "velocity": 82}, {"time": 1338, "pitch": 62, "duration": 7, "velocity": 90}, {"time": 1344, "pitch": 64, "duration": 5, "velocity": 99}, {"time": 1350, "pitch": 62, "duration": 10, "velocity": 94}, {"time": 1350, "pitch": 66, "duration": 15, "velocity": 97}, {"time": 1356, "pitch": 45, "duration": 11, "velocity": 71}, {"time": 1362, "pitch": 62, "duration": 5, "velocity": 92}, {"time": 1374, "pitch": 47, "duration": 38, "velocity": 95}, {"time": 1380, "pitch": 54, "duration": 19, "velocity": 84}, {"time": 1386, "pitch": 59, "duration": 6, "velocity": 95}, {"time": 1392, "pitch": 61, "duration": 6, "velocity": 96}, {"time": 1398, "pitch": 62, "duration": 13, "velocity": 90}, {"time": 1404, "pitch": 54, "duration": 5, "velocity": 61}, {"time": 1410, "pitch": 66, "duration": 3, "velocity": 96}, {"time": 1422, "pitch": 43, "duration": 19, "velocity": 94}, {"time": 1422, "pitch": 55, "duration": 8, "velocity": 89}, {"time": 1422, "pitch": 59, "duration": 13, "velocity": 90}, {"time": 1428, "pitch": 50, "duration": 11, "velocity": 83}, {"time": 1434, "pitch": 55, "duration": 4, "velocity": 96}, {"time": 1440, "pitch": 54, "duration": 7, "velocity": 88}, {"time": 1446, "pitch": 40, "duration": 16, "velocity": 96}, {"time": 1446, "pitch": 52, "duration": 24, "velocity": 97}, {"time": 1452, "pitch": 47, "duration": 9, "velocity": 86}, {"time": 1458, "pitch": 55, "duration": 12, "velocity": 90}, {"time": 1470, "pitch": 42, "duration": 39, "velocity": 97}, {"time": 1476, "pitch": 49, "duration": 33, "velocity": 78}, {"time": 1482, "pitch": 54, "duration": 2, "velocity": 87}, {"time": 1488, "pitch": 57, "duration": 8, "velocity": 88}, {"time": 1494, "pitch": 61, "duration": 8, "velocity": 99}, {"time": 1500, "pitch": 57, "duration": 8, "velocity": 87}, {"time": 1506, "pitch": 66, "duration": 17, "velocity": 95}, {"time": 1518, "pitch": 43, "duration": 41, "velocity": 95}, {"time": 1524, "pitch": 50, "duration": 35, "velocity": 84}, {"time": 1530, "pitch": 55, "duration": 13, "velocity": 93}, {"time": 1536, "pitch": 59, "duration": 8, "velocity": 94}, {"time": 1542, "pitch": 62, "duration": 19, "velocity": 92}, {"time": 1548, "pitch": 55, "duration": 7, "velocity": 89}, {"time": 1554, "pitch": 67, "duration": 15, "velocity": 90}, {"time": 1560, "pitch": 55, "duration": 4, "velocity": 90}, {"time": 1566, "pitch": 50, "duration": 8, "velocity": 98}, {"time": 1572, "pitch": 62, "duration": 3, "velocity": 94}, {"time": 1578, "pitch": 49, "duration": 8, "velocity": 92}, {"time": 1578, "pitch": 61, "duration": 6, "velocity": 85}, {"time": 1578, "pitch": 64, "duration": 10, "velocity": 90}, {"time": 1590, "pitch": 47, "duration": 18, "velocity": 90}, {"time": 1590, "pitch": 59, "duration": 8, "velocity": 87}, {"time": 1590, "pitch": 62, "duration": 14, "velocity": 89}, {"time": 1596, "pitch": 54, "duration": 9, "velocity": 81}, {"time": 1602, "pitch": 59, "duration": 14, "velocity": 92}, {"time": 1608, "pitch": 62, "duration": 8, "velocity": 88}, {"time": 1614, "pitch": 40, "duration": 38, "velocity": 100}, {"time": 1620, "pitch": 47, "duration": 31, "velocity": 83}, {"time": 1626, "pitch": 52, "duration": 25, "velocity": 97}, {"time": 1632, "pitch": 55, "duration": 7, "velocity": 88}, {"time": 1638, "pitch": 59, "duration": 22, "velocity": 92}, {"time": 1644, "pitch": 55, "duration": 16, "velocity": 77}, {"time": 1650, "pitch": 64, "duration": 23, "velocity": 95}, {"time": 1662, "pitch": 45, "duration": 46, "velocity": 96}, {"time": 1668, "pitch": 52, "duration": 21, "velocity": 91}, {"time": 1674, "pitch": 57, "duration": 7, "velocity": 95}, {"time": 1680, "pitch": 59, "duration": 5, "velocity": 95}, {"time": 1686, "pitch": 57, "duration": 4, "velocity": 92}, {"time": 1686, "pitch": 61, "duration": 7, "velocity": 105}, {"time": 1692, "pitch": 52, "duration": 10, "velocity": 92}, {"time": 1698, "pitch": 57, "duration": 12, "velocity": 94}, {"time": 1698, "pitch": 61, "duration": 11, "velocity": 96}, {"time": 1698, "pitch": 64, "duration": 12, "velocity": 99}, {"time": 1710, "pitch": 50, "duration": 42, "velocity": 97}, {"time": 1716, "pitch": 57, "duration": 8, "velocity": 93}, {"time": 1722, "pitch": 62, "duration": 7, "velocity": 91}, {"time": 1728, "pitch": 64, "duration": 3, "velocity": 95}, {"time": 1734, "pitch": 66, "duration": 6, "velocity": 97}, {"time": 1740, "pitch": 57, "duration": 7, "velocity": 93}, {"time": 1746, "pitch": 62, "duration": 6, "velocity": 89}, {"time": 1752, "pitch": 61, "duration": 7, "velocity": 95}, {"time": 1758, "pitch": 47, "duration": 39, "velocity": 96}, {"time": 1758, "pitch": 59, "duration": 10, "velocity": 89}, {"time": 1764, "pitch": 54, "duration": 9, "velocity": 83}, {"time": 1770, "pitch": 61, "duration": 10, "velocity": 95}, {"time": 1776, "pitch": 54, "duration": 7, "velocity": 82}, {"time": 1782, "pitch": 59, "duration": 13, "velocity": 92}, {"time": 1782, "pitch": 62, "duration": 5, "velocity": 94}, {"time": 1788, "pitch": 54, "duration": 7, "velocity": 79}, {"time": 1794, "pitch": 66, "duration": 12, "velocity": 98}, {"time": 1800, "pitch": 59, "duration": 7, "velocity": 97}, {"time": 1806, "pitch": 43, "duration": 41, "velocity": 95}, {"time": 1806, "pitch": 55, "duration": 8, "velocity": 86}, {"time": 1806, "pitch": 62, "duration": 9, "velocity": 90}, {"time": 1812, "pitch": 50, "duration": 35, "velocity": 87}, {"time": 1818, "pitch": 59, "duration": 8, "velocity": 94}, {"time": 1824, "pitch": 62, "duration": 4, "velocity": 89}, {"time": 1830, "pitch": 55, "duration": 8, "velocity": 95}, {"time": 1830, "pitch": 67, "duration": 7, "velocity": 90}, {"time": 1842, "pitch": 55, "duration": 3, "velocity": 93}, {"time": 1842, "pitch": 62, "duration": 12, "velocity": 93}, {"time": 1848, "pitch": 55, "duration": 7, "velocity": 90}, {"time": 1854, "pitch": 42, "duration": 39, "velocity": 95}, {"time": 1860, "pitch": 49, "duration": 33, "velocity": 86}, {"time": 1866, "pitch": 54, "duration": 2, "velocity": 99}, {"time": 1872, "pitch": 57, "duration": 6, "velocity": 84}, {"time": 1878, "pitch": 61, "duration": 7, "velocity": 95}, {"time": 1884, "pitch": 57, "duration": 7, "velocity": 82}, {"time": 1890, "pitch": 66, "duration": 12, "velocity": 94}, {"time": 1896, "pitch": 57, "duration": 7, "velocity": 92}, {"time": 1902, "pitch": 43, "duration": 40, "velocity": 96}, {"time": 1908, "pitch": 50, "duration": 34, "velocity": 83}, {"time": 1914, "pitch": 55, "duration": 12, "velocity": 96}, {"time": 1920, "pitch": 59, "duration": 7, "velocity": 93}, {"time": 1926, "pitch": 62, "duration": 10, "velocity": 89}, {"time": 1932, "pitch": 55, "duration": 8, "velocity": 84}, {"time": 1938, "pitch": 62, "duration": 1, "velocity": 66}, {"time": 1938, "pitch": 67, "duration": 9, "velocity": 94}, {"time": 1944, "pitch": 55, "duration": 2, "velocity": 94}, {"time": 1950, "pitch": 50, "duration": 7, "velocity": 97}, {"time": 1950, "pitch": 62, "duration": 7, "velocity": 90}, {"time": 1950, "pitch": 66, "duration": 6, "velocity": 87}, {"time": 1956, "pitch": 57, "duration": 5, "velocity": 87}, {"time": 1962, "pitch": 49, "duration": 7, "velocity": 95}, {"time": 1962, "pitch": 61, "duration": 6, "velocity": 83}, {"time": 1962, "pitch": 64, "duration": 11, "velocity": 92}, {"time": 1974, "pitch": 47, "duration": 16, "velocity": 95}, {"time": 1974, "pitch": 59, "duration": 8, "velocity": 88}, {"time": 1974, "pitch": 62, "duration": 13, "velocity": 92}, {"time": 1980, "pitch": 54, "duration": 10, "velocity": 86}, {"time": 1986, "pitch": 59, "duration": 12, "velocity": 95}, {"time": 1992, "pitch": 62, "duration": 7, "velocity": 89}, {"time": 1998, "pitch": 40, "duration": 41, "velocity": 95}, {"time": 2004, "pitch": 47, "duration": 34, "velocity": 89}, {"time": 2010, "pitch": 52, "duration": 14, "velocity": 93}, {"time": 2016, "pitch": 55, "duration": 9, "velocity": 90}, {"time": 2022, "pitch": 59, "duration": 10, "velocity": 90}, {"time": 2034, "pitch": 55, "duration": 11, "velocity": 94}, {"time": 2034, "pitch": 59, "duration": 14, "velocity": 94}, {"time": 2040, "pitch": 52, "duration": 6, "velocity": 92}, {"time": 2046, "pitch": 43, "duration": 20, "velocity": 99}, {"time": 2052, "pitch": 50, "duration": 15, "velocity": 89}, {"time": 2058, "pitch": 55, "duration": 7, "velocity": 94}, {"time": 2064, "pitch": 59, "duration": 8, "velocity": 88}, {"time": 2070, "pitch": 45, "duration": 32, "velocity": 95}, {"time": 2070, "pitch": 57, "duration": 8, "velocity": 87}, {"time": 2070, "pitch": 61, "duration": 34, "velocity": 94}, {"time": 2076, "pitch": 52, "duration": 27, "velocity": 81}, {"time": 2082, "pitch": 57, "duration": 23, "velocity": 80}, {"time": 2106, "pitch": 38, "duration": 39, "velocity": 96}, {"time": 2106, "pitch": 62, "duration": 9, "velocity": 89}, {"time": 2106, "pitch": 66, "duration": 10, "velocity": 83}, {"time": 2106, "pitch": 69, "duration": 12, "velocity": 89}, {"time": 2112, "pitch": 45, "duration": 33, "velocity": 77}, {"time": 2118, "pitch": 62, "duration": 7, "velocity": 91}, {"time": 2124, "pitch": 64, "duration": 5, "velocity": 95}, {"time": 2130, "pitch": 62, "duration": 14, "velocity": 89}, {"time": 2130, "pitch": 66, "duration": 23, "velocity": 92}, {"time": 2154, "pitch": 47, "duration": 39, "velocity": 96}, {"time": 2154, "pitch": 59, "duration": 9, "velocity": 88}, {"time": 2154, "pitch": 62, "duration": 8, "velocity": 93}, {"time": 2160, "pitch": 54, "duration": 21, "velocity": 81}, {"time": 2166, "pitch": 61, "duration": 6, "velocity": 96}, {"time": 2172, "pitch": 62, "duration": 6, "velocity": 91}, {"time": 2178, "pitch": 66, "duration": 3, "velocity": 100}, {"time": 2184, "pitch": 54, "duration": 7, "velocity": 76}, {"time": 2190, "pitch": 59, "duration": 4, "velocity": 94}, {"time": 2190, "pitch": 62, "duration": 3, "velocity": 96}, {"time": 2202, "pitch": 43, "duration": 21, "velocity": 92}, {"time": 2202, "pitch": 55, "duration": 9, "velocity": 90}, {"time": 2202, "pitch": 59, "duration": 13, "velocity": 93}, {"time": 2208, "pitch": 50, "duration": 15, "velocity": 87}, {"time": 2214, "pitch": 62, "duration": 14, "velocity": 89}, {"time": 2220, "pitch": 59, "duration": 8, "velocity": 81}, {"time": 2226, "pitch": 67, "duration": 10, "velocity": 91}, {"time": 2232, "pitch": 55, "duration": 8, "velocity": 79}, {"time": 2238, "pitch": 43, "duration": 5, "velocity": 95}, {"time": 2238, "pitch": 59, "duration": 5, "velocity": 94}, {"time": 2238, "pitch": 62, "duration": 6, "velocity": 92}, {"time": 2250, "pitch": 42, "duration": 35, "velocity": 105}, {"time": 2250, "pitch": 54, "duration": 9, "velocity": 87}, {"time": 2250, "pitch": 66, "duration": 14, "velocity": 94}, {"time": 2256, "pitch": 49, "duration": 29, "velocity": 79}, {"time": 2262, "pitch": 54, "duration": 12, "velocity": 90}, {"time": 2268, "pitch": 57, "duration": 7, "velocity": 92}, {"time": 2274, "pitch": 61, "duration": 9, "velocity": 84}, {"time": 2280, "pitch": 54, "duration": 8, "velocity": 83}, {"time": 2286, "pitch": 66, "duration": 3, "velocity": 95}, {"time": 2298, "pitch": 43, "duration": 40, "velocity": 96}, {"time": 2298, "pitch": 55, "duration": 26, "velocity": 94}, {"time": 2298, "pitch": 59, "duration": 13, "velocity": 94}, {"time": 2304, "pitch": 50, "duration": 34, "velocity": 85}, {"time": 2310, "pitch": 62, "duration": 15, "velocity": 92}, {"time": 2316, "pitch": 59, "duration": 14, "velocity": 86}, {"time": 2322, "pitch": 67, "duration": 21, "velocity": 94}, {"time": 2328, "pitch": 55, "duration": 7, "velocity": 91}, {"time": 2334, "pitch": 59, "duration": 7, "velocity": 95}, {"time": 2340, "pitch": 55, "duration": 2, "velocity": 96}, {"time": 2346, "pitch": 50, "duration": 8, "velocity": 100}, {"time": 2346, "pitch": 62, "duration": 7, "velocity": 90}, {"time": 2346, "pitch": 66, "duration": 6, "velocity": 86}, {"time": 2358, "pitch": 49, "duration": 5, "velocity": 95}, {"time": 2358, "pitch": 61, "duration": 5, "velocity": 96}, {"time": 2358, "pitch": 64, "duration": 9, "velocity": 95}, {"time": 2370, "pitch": 47, "duration": 13, "velocity": 96}, {"time": 2370, "pitch": 59, "duration": 7, "velocity": 90}, {"time": 2370, "pitch": 62, "duration": 13, "velocity": 94}, {"time": 2376, "pitch": 54, "duration": 6, "velocity": 77}, {"time": 2382, "pitch": 59, "duration": 8, "velocity": 88}, {"time": 2388, "pitch": 62, "duration": 3, "velocity": 86}, {"time": 2394, "pitch": 43, "duration": 37, "velocity": 95}, {"time": 2394, "pitch": 55, "duration": 19, "velocity": 91}, {"time": 2394, "pitch": 59, "duration": 20, "velocity": 96}, {"time": 2400, "pitch": 50, "duration": 31, "velocity": 85}, {"time": 2406, "pitch": 62, "duration": 8, "velocity": 89}, {"time": 2412, "pitch": 67, "duration": 21, "velocity": 91}, {"time": 2418, "pitch": 62, "duration": 15, "velocity": 90}, {"time": 2424, "pitch": 55, "duration": 8, "velocity": 83}, {"time": 2430, "pitch": 59, "duration": 3, "velocity": 85}, {"time": 2442, "pitch": 42, "duration": 22, "velocity": 96}, {"time": 2442, "pitch": 54, "duration": 10, "velocity": 95}, {"time": 2442, "pitch": 59, "duration": 14, "velocity": 95}, {"time": 2448, "pitch": 49, "duration": 17, "velocity": 84}, {"time": 2454, "pitch": 54, "duration": 7, "velocity": 99}, {"time": 2460, "pitch": 59, "duration": 5, "velocity": 93}, {"time": 2466, "pitch": 42, "duration": 24, "velocity": 98}, {"time": 2466, "pitch": 54, "duration": 11, "velocity": 92}, {"time": 2466, "pitch": 58, "duration": 9, "velocity": 99}, {"time": 2472, "pitch": 49, "duration": 18, "velocity": 82}, {"time": 2478, "pitch": 54, "duration": 11, "velocity": 88}, {"time": 2478, "pitch": 61, "duration": 11, "velocity": 86}, {"time": 2490, "pitch": 47, "duration": 39, "velocity": 96}, {"time": 2490, "pitch": 59, "duration": 10, "velocity": 86}, {"time": 2490, "pitch": 62, "duration": 15, "velocity": 90}, {"time": 2496, "pitch": 54, "duration": 10, "velocity": 79}, {"time": 2502, "pitch": 59, "duration": 13, "velocity": 87}, {"time": 2508, "pitch": 62, "duration": 8, "velocity": 87}, {"time": 2514, "pitch": 66, "duration": 15, "velocity": 95}, {"time": 2520, "pitch": 54, "duration": 7, "velocity": 65}, {"time": 2526, "pitch": 59, "duration": 4, "velocity": 93}, {"time": 2538, "pitch": 42, "duration": 36, "velocity": 101}, {"time": 2544, "pitch": 49, "duration": 31, "velocity": 83}, {"time": 2550, "pitch": 54, "duration": 2, "velocity": 89}, {"time": 2556, "pitch": 57, "duration": 7, "velocity": 89}, {"time": 2562, "pitch": 61, "duration": 6, "velocity": 94}, {"time": 2574, "pitch": 61, "duration": 11, "velocity": 85}, {"time": 2574, "pitch": 66, "duration": 13, "velocity": 83}, {"time": 2580, "pitch": 57, "duration": 7, "velocity": 86}, {"time": 2586, "pitch": 40, "duration": 40, "velocity": 89}, {"time": 2586, "pitch": 41, "duration": 3, "velocity": 68}, {"time": 2592, "pitch": 47, "duration": 34, "velocity": 91}, {"time": 2598, "pitch": 52, "duration": 25, "velocity": 90}, {"time": 2604, "pitch": 55, "duration": 7, "velocity": 88}, {"time": 2610, "pitch": 59, "duration": 15, "velocity": 88}, {"time": 2616, "pitch": 55, "duration": 8, "velocity": 82}, {"time": 2622, "pitch": 64, "duration": 10, "velocity": 94}, {"time": 2628, "pitch": 52, "duration": 5, "velocity": 86}, {"time": 2628, "pitch": 55, "duration": 2, "velocity": 42}, {"time": 2628, "pitch": 59, "duration": 3, "velocity": 41}, {"time": 2634, "pitch": 42, "duration": 39, "velocity": 98}, {"time": 2634, "pitch": 54, "duration": 8, "velocity": 92}, {"time": 2634, "pitch": 59, "duration": 13, "velocity": 86}, {"time": 2640, "pitch": 49, "duration": 23, "velocity": 83}, {"time": 2646, "pitch": 54, "duration": 8, "velocity": 97}, {"time": 2652, "pitch": 59, "duration": 3, "velocity": 79}, {"time": 2658, "pitch": 54, "duration": 10, "velocity": 84}, {"time": 2658, "pitch": 58, "duration": 10, "velocity": 94}, {"time": 2664, "pitch": 49, "duration": 9, "velocity": 74}, {"time": 2670, "pitch": 54, "duration": 4, "velocity": 96}, {"time": 2670, "pitch": 61, "duration": 5, "velocity": 96}, {"time": 2682, "pitch": 47, "duration": 39, "velocity": 96}, {"time": 2682, "pitch": 59, "duration": 9, "velocity": 90}, {"time": 2682, "pitch": 62, "duration": 13, "velocity": 93}, {"time": 2688, "pitch": 54, "duration": 21, "velocity": 82}, {"time": 2694, "pitch": 59, "duration": 12, "velocity": 94}, {"time": 2700, "pitch": 62, "duration": 8, "velocity": 92}, {"time": 2706, "pitch": 66, "duration": 14, "velocity": 99}, {"time": 2712, "pitch": 54, "duration": 8, "velocity": 71}, {"time": 2718, "pitch": 59, "duration": 5, "velocity": 94}, {"time": 2718, "pitch": 62, "duration": 4, "velocity": 95}, {"time": 2730, "pitch": 42, "duration": 39, "velocity": 96}, {"time": 2730, "pitch": 57, "duration": 6, "velocity": 85}, {"time": 2730, "pitch": 61, "duration": 14, "velocity": 94}, {"time": 2736, "pitch": 49, "duration": 32, "velocity": 75}, {"time": 2742, "pitch": 57, "duration": 13, "velocity": 87}, {"time": 2748, "pitch": 61, "duration": 8, "velocity": 94}, {"time": 2754, "pitch": 66, "duration": 16, "velocity": 96}, {"time": 2760, "pitch": 57, "duration": 8, "velocity": 86}, {"time": 2766, "pitch": 61, "duration": 6, "velocity": 92}, {"time": 2772, "pitch": 57, "duration": 1, "velocity": 68}, {"time": 2778, "pitch": 43, "duration": 46, "velocity": 95}, {"time": 2778, "pitch": 55, "duration": 10, "velocity": 87}, {"time": 2778, "pitch": 59, "duration": 13, "velocity": 89}, {"time": 2784, "pitch": 50, "duration": 39, "velocity": 85}, {"time": 2790, "pitch": 62, "duration": 12, "velocity": 90}, {"time": 2796, "pitch": 59, "duration": 8, "velocity": 82}, {"time": 2802, "pitch": 67, "duration": 27, "velocity": 93}, {"time": 2808, "pitch": 62, "duration": 20, "velocity": 89}, {"time": 2814, "pitch": 55, "duration": 11, "velocity": 90}, {"time": 2820, "pitch": 59, "duration": 8, "velocity": 91}, {"time": 2826, "pitch": 43, "duration": 49, "velocity": 96}, {"time": 2832, "pitch": 50, "duration": 43, "velocity": 85}, {"time": 2838, "pitch": 55, "duration": 25, "velocity": 94}, {"time": 2844, "pitch": 58, "duration": 4, "velocity": 90}, {"time": 2850, "pitch": 62, "duration": 23, "velocity": 92}, {"time": 2856, "pitch": 58, "duration": 17, "velocity": 54}, {"time": 2862, "pitch": 67, "duration": 13, "velocity": 90}, {"time": 2868, "pitch": 55, "duration": 6, "velocity": 83}, {"time": 2874, "pitch": 45, "duration": 61, "velocity": 98}, {"time": 2880, "pitch": 52, "duration": 54, "velocity": 88}, {"time": 2886, "pitch": 57, "duration": 20, "velocity": 89}, {"time": 2892, "pitch": 61, "duration": 8, "velocity": 98}, {"time": 2898, "pitch": 64, "duration": 19, "velocity": 94}, {"time": 2904, "pitch": 61, "duration": 8, "velocity": 82}, {"time": 2910, "pitch": 67, "duration": 6, "velocity": 81}, {"time": 2916, "pitch": 57, "duration": 18, "velocity": 73}, {"time": 2922, "pitch": 61, "duration": 12, "velocity": 78}, {"time": 2922, "pitch": 64, "duration": 13, "velocity": 86}, {"time": 2922, "pitch": 69, "duration": 13, "velocity": 84}, {"time": 2934, "pitch": 38, "duration": 40, "velocity": 90}, {"time": 2940, "pitch": 45, "duration": 23, "velocity": 82}, {"time": 2946, "pitch": 62, "duration": 7, "velocity": 90}, {"time": 2952, "pitch": 64, "duration": 5, "velocity": 99}, {"time": 2958, "pitch": 62, "duration": 10, "velocity": 94}, {"time": 2958, "pitch": 66, "duration": 15, "velocity": 97}, {"time": 2964, "pitch": 45, "duration": 11, "velocity": 71}, {"time": 2970, "pitch": 62, "duration": 5, "velocity": 92}, {"time": 2982, "pitch": 47, "duration": 38, "velocity": 95}, {"time": 2988, "pitch": 54, "duration": 19, "velocity": 84}, {"time": 2994, "pitch": 59, "duration": 6, "velocity": 95}, {"time": 3000, "pitch": 61, "duration": 6, "velocity": 96}, {"time": 3006, "pitch": 62, "duration": 13, "velocity": 90}, {"time": 3012, "pitch": 54, "duration": 5, "velocity": 61}, {"time": 3018, "pitch": 66, "duration": 3, "velocity": 96}, {"time": 3030, "pitch": 43, "duration": 19, "velocity": 94}, {"time": 3030, "pitch": 55, "duration": 8, "velocity": 89}, {"time": 3030, "pitch": 59, "duration": 13, "velocity": 90}, {"time": 3036, "pitch": 50, "duration": 11, "velocity": 83}, {"time": 3042, "pitch": 55, "duration": 4, "velocity": 96}, {"time": 3048, "pitch": 54, "duration": 7, "velocity": 88}, {"time": 3054, "pitch": 40, "duration": 16, "velocity": 96}, {"time": 3054, "pitch": 52, "duration": 24, "velocity": 97}, {"time": 3060, "pitch": 47, "duration": 9, "velocity": 86}, {"time": 3066, "pitch": 55, "duration": 12, "velocity": 90}, {"time": 3078, "pitch": 42, "duration": 39, "velocity": 97}, {"time": 3084, "pitch": 49, "duration": 33, "velocity": 78}, {"time": 3090, "pitch": 54, "duration": 2, "velocity": 87}, {"time": 3096, "pitch": 57, "duration": 8, "velocity": 88}, {"time": 3102, "pitch": 61, "duration": 8, "velocity": 99}, {"time": 3108, "pitch": 57, "duration": 8, "velocity": 87}, {"time": 3114, "pitch": 66, "duration": 17, "velocity": 95}, {"time": 3126, "pitch": 43, "duration": 41, "velocity": 95}, {"time": 3132, "pitch": 50, "duration": 35, "velocity": 84}, {"time": 3138, "pitch": 55, "duration": 13, "velocity": 93}, {"time": 3144, "pitch": 59, "duration": 8, "velocity": 94}, {"time": 3150, "pitch": 62, "duration": 19, "velocity": 92}, {"time": 3156, "pitch": 55, "duration": 7, "velocity": 89}, {"time": 3162, "pitch": 67, "duration": 15, "velocity": 90}, {"time": 3168, "pitch": 55, "duration": 4, "velocity": 90}, {"time": 3174, "pitch": 50, "duration": 8, "velocity": 98}, {"time": 3180, "pitch": 62, "duration": 3, "velocity": 94}, {"time": 3186, "pitch": 49, "duration": 8, "velocity": 92}, {"time": 3186, "pitch": 61, "duration": 6, "velocity": 85}, {"time": 3186, "pitch": 64, "duration": 10, "velocity": 90}, {"time": 3198, "pitch": 47, "duration": 18, "velocity": 90}, {"time": 3198, "pitch": 59, "duration": 8, "velocity": 87}, {"time": 3198, "pitch": 62, "duration": 14, "velocity": 89}, {"time": 3204, "pitch": 54, "duration": 9, "velocity": 81}, {"time": 3210, "pitch": 59, "duration": 14, "velocity": 92}, {"time": 3216, "pitch": 62, "duration": 8, "velocity": 88}, {"time": 3222, "pitch": 40, "duration": 38, "velocity": 100}, {"time": 3228, "pitch": 47, "duration": 31, "velocity": 83}, {"time": 3234, "pitch": 52, "duration": 25, "velocity": 97}, {"time": 3240, "pitch": 55, "duration": 7, "velocity": 88}, {"time": 3246, "pitch": 59, "duration": 22, "velocity": 92}, {"time": 3252, "pitch": 55, "duration": 16, "velocity": 77}, {"time": 3258, "pitch": 64, "duration": 23, "velocity": 95}, {"time": 3270, "pitch": 45, "duration": 46, "velocity": 96}, {"time": 3276, "pitch": 52, "duration": 21, "velocity": 91}, {"time": 3282, "pitch": 57, "duration": 7, "velocity": 95}, {"time": 3288, "pitch": 59, "duration": 5, "velocity": 95}, {"time": 3294, "pitch": 57, "duration": 4, "velocity": 92}, {"time": 3294, "pitch": 61, "duration": 7, "velocity": 105}, {"time": 3300, "pitch": 52, "duration": 10, "velocity": 92}, {"time": 3306, "pitch": 57, "duration": 12, "velocity": 94}, {"time": 3306, "pitch": 61, "duration": 11, "velocity": 96}, {"time": 3306, "pitch": 64, "duration": 12, "velocity": 99}, {"time": 3318, "pitch": 50, "duration": 42, "velocity": 97}, {"time": 3324, "pitch": 57, "duration": 8, "velocity": 93}, {"time": 3330, "pitch": 62, "duration": 7, "velocity": 91}, {"time": 3336, "pitch": 64, "duration": 3, "velocity": 95}, {"time": 3342, "pitch": 66, "duration": 6, "velocity": 97}, {"time": 3348, "pitch": 57, "duration": 7, "velocity": 93}, {"time": 3354, "pitch": 62, "duration": 6, "velocity": 89}, {"time": 3360, "pitch": 61, "duration": 7, "velocity": 95}, {"time": 3366, "pitch": 47, "duration": 39, "velocity": 96}, {"time": 3366, "pitch": 59, "duration": 10, "velocity": 89}, {"time": 3372, "pitch": 54, "duration": 9, "velocity": 83}, {"time": 3378, "pitch": 61, "duration": 10, "velocity": 95}, {"time": 3384, "pitch": 54, "duration": 7, "velocity": 82}, {"time": 3390, "pitch": 59, "duration": 13, "velocity": 92}, {"time": 3390, "pitch": 62, "duration": 5, "velocity": 94}, {"time": 3396, "pitch": 54, "duration": 7, "velocity": 79}, {"time": 3402, "pitch": 66, "duration": 12, "velocity": 98}, {"time": 3408, "pitch": 59, "duration": 7, "velocity": 97}, {"time": 3414, "pitch": 43, "duration": 41, "velocity": 95}, {"time": 3414, "pitch": 55, "duration": 8, "velocity": 86}, {"time": 3414, "pitch": 62, "duration": 9, "velocity": 90}, {"time": 3420, "pitch": 50, "duration": 35, "velocity": 87}, {"time": 3426, "pitch": 59, "duration": 8, "velocity": 94}, {"time": 3432, "pitch": 62, "duration": 4, "velocity": 89}, {"time": 3438, "pitch": 55, "duration": 8, "velocity": 95}, {"time": 3438, "pitch": 67, "duration": 7, "velocity": 90}, {"time": 3450, "pitch": 55, "duration": 3, "velocity": 93}, {"time": 3450, "pitch": 62, "duration": 12, "velocity": 93}, {"time": 3456, "pitch": 55, "duration": 7, "velocity": 90}, {"time": 3462, "pitch": 42, "duration": 39, "velocity": 95}, {"time": 3468, "pitch": 49, "duration": 33, "velocity": 86}, {"time": 3474, "pitch": 54, "duration": 2, "velocity": 99}, {"time": 3480, "pitch": 57, "duration": 6, "velocity": 84}, {"time": 3486, "pitch": 61, "duration": 7, "velocity": 95}, {"time": 3492, "pitch": 57, "duration": 7, "velocity": 82}, {"time": 3498, "pitch": 66, "duration": 12, "velocity": 94}, {"time": 3504, "pitch": 57, "duration": 7, "velocity": 92}, {"time": 3510, "pitch": 43, "duration": 40, "velocity": 96}, {"time": 3516, "pitch": 50, "duration": 34, "velocity": 83}, {"time": 3522, "pitch": 55, "duration": 12, "velocity": 96}, {"time": 3528, "pitch": 59, "duration": 7, "velocity": 93}, {"time": 3534, "pitch": 62, "duration": 10, "velocity": 89}, {"time": 3540, "pitch": 55, "duration": 8, "velocity": 84}, {"time": 3546, "pitch": 62, "duration": 1, "velocity": 66}, {"time": 3546, "pitch": 67, "duration": 9, "velocity": 94}, {"time": 3552, "pitch": 55, "duration": 2, "velocity": 94}, {"time": 3558, "pitch": 50, "duration": 7, "velocity": 97}, {"time": 3558, "pitch": 62, "duration": 7, "velocity": 90}, {"time": 3558, "pitch": 66, "duration": 6, "velocity": 87}, {"time": 3564, "pitch": 57, "duration": 5, "velocity": 87}, {"time": 3570, "pitch": 49, "duration": 7, "velocity": 95}, {"time": 3570, "pitch": 61, "duration": 6, "velocity": 83}, {"time": 3570, "pitch": 64, "duration": 11, "velocity": 92}, {"time": 3582, "pitch": 47, "duration": 16, "velocity": 95}, {"time": 3582, "pitch": 59, "duration": 8, "velocity": 88}, {"time": 3582, "pitch": 62, "duration": 13, "velocity": 92}, {"time": 3588, "pitch": 54, "duration": 10, "velocity": 86}, {"time": 3594, "pitch": 59, "duration": 12, "velocity": 95}, {"time": 3600, "pitch": 62, "duration": 7, "velocity": 89}, {"time": 3606, "pitch": 40, "duration": 41, "velocity": 95}, {"time": 3612, "pitch": 47, "duration": 34, "velocity": 89}, {"time": 3618, "pitch": 52, "duration": 14, "velocity": 93}, {"time": 3624, "pitch": 55, "duration": 9, "velocity": 90}, {"time": 3630, "pitch": 59, "duration": 10, "velocity": 90}, {"time": 3642, "pitch": 55, "duration": 11, "velocity": 94}, {"time": 3642, "pitch": 59, "duration": 14, "velocity": 94}, {"time": 3648, "pitch": 52, "duration": 6, "velocity": 92}, {"time": 3654, "pitch": 43, "duration": 20, "velocity": 99}, {"time": 3660, "pitch": 50, "duration": 15, "velocity": 89}, {"time": 3666, "pitch": 55, "duration": 7, "velocity": 94}, {"time": 3672, "pitch": 59, "duration": 8, "velocity": 88}, {"time": 3678, "pitch": 45, "duration": 32, "velocity": 95}, {"time": 3678, "pitch": 57, "duration": 8, "velocity": 87}, {"time": 3678, "pitch": 61, "duration": 34, "velocity": 94}, {"time": 3684, "pitch": 52, "duration": 27, "velocity": 81}, {"time": 3690, "pitch": 57, "duration": 23, "velocity": 80}, {"time": 3714, "pitch": 38, "duration": 44, "velocity": 98}, {"time": 3720, "pitch": 45, "duration": 21, "velocity": 78}, {"time": 3726, "pitch": 52, "duration": 8, "velocity": 95}, {"time": 3732, "pitch": 54, "duration": 29, "velocity": 100}, {"time": 3738, "pitch": 50, "duration": 15, "velocity": 92}, {"time": 3738, "pitch": 57, "duration": 27, "velocity": 90}, {"time": 3750, "pitch": 45, "duration": 8, "velocity": 87}, {"time": 3756, "pitch": 50, "duration": 7, "velocity": 88}, {"time": 3762, "pitch": 40, "duration": 48, "velocity": 98}, {"time": 3768, "pitch": 47, "duration": 25, "velocity": 87}, {"time": 3774, "pitch": 52, "duration": 10, "velocity": 94}, {"time": 3780, "pitch": 55, "duration": 4, "velocity": 88}, {"time": 3786, "pitch": 52, "duration": 14, "velocity": 93}, {"time": 3786, "pitch": 55, "duration": 20, "velocity": 94}, {"time": 3786, "pitch": 59, "duration": 23, "velocity": 94}, {"time": 3798, "pitch": 47, "duration": 12, "velocity": 93}, {"time": 3804, "pitch": 52, "duration": 6, "velocity": 89}, {"time": 3810, "pitch": 43, "duration": 10, "velocity": 85}, {"time": 3810, "pitch": 50, "duration": 8, "velocity": 88}, {"time": 3810, "pitch": 55, "duration": 9, "velocity": 85}, {"time": 3810, "pitch": 59, "duration": 10, "velocity": 90}, {"time": 3822, "pitch": 40, "duration": 11, "velocity": 90}, {"time": 3822, "pitch": 52, "duration": 11, "velocity": 91}, {"time": 3822, "pitch": 55, "duration": 11, "velocity": 90}, {"time": 3834, "pitch": 45, "duration": 21, "velocity": 84}, {"time": 3836, "pitch": 57, "duration": 23, "velocity": 86}, {"time": 3836, "pitch": 52, "duration": 20, "velocity": 89}, {"time": 3837, "pitch": 61, "duration": 22, "velocity": 80}, {"time": 3869, "pitch": 43, "duration": 40, "velocity": 96}, {"time": 3875, "pitch": 50, "duration": 33, "velocity": 82}, {"time": 3882, "pitch": 55, "duration": 30, "velocity": 94}, {"time": 3887, "pitch": 59, "duration": 24, "velocity": 90}, {"time": 3894, "pitch": 67, "duration": 17, "velocity": 93}, {"time": 3918, "pitch": 40, "duration": 19, "velocity": 99}, {"time": 3924, "pitch": 47, "duration": 11, "velocity": 82}, {"time": 3932, "pitch": 55, "duration": 7, "velocity": 95}, {"time": 3938, "pitch": 57, "duration": 11, "velocity": 85}, {"time": 3944, "pitch": 45, "duration": 34, "velocity": 97}, {"time": 3951, "pitch": 52, "duration": 26, "velocity": 91}, {"time": 3959, "pitch": 61, "duration": 22, "velocity": 87}, {"time": 3967, "pitch": 64, "duration": 15, "velocity": 91}, {"time": 3981, "pitch": 46, "duration": 39, "velocity": 101}, {"time": 3986, "pitch": 53, "duration": 22, "velocity": 71}, {"time": 3992, "pitch": 58, "duration": 33, "velocity": 95}, {"time": 3998, "pitch": 62, "duration": 27, "velocity": 86}, {"time": 4004, "pitch": 65, "duration": 28, "velocity": 93}, {"time": 4026, "pitch": 48, "duration": 40, "velocity": 97}, {"time": 4032, "pitch": 55, "duration": 23, "velocity": 86}, {"time": 4037, "pitch": 60, "duration": 25, "velocity": 95}, {"time": 4044, "pitch": 67, "duration": 18, "velocity": 87}, {"time": 4051, "pitch": 72, "duration": 13, "velocity": 94}, {"time": 4058, "pitch": 55, "duration": 7, "velocity": 75}, {"time": 4065, "pitch": 67, "duration": 24, "velocity": 90}, {"time": 4065, "pitch": 60, "duration": 24, "velocity": 92}, {"time": 4088, "pitch": 38, "duration": 38, "velocity": 100}, {"time": 4094, "pitch": 45, "duration": 32, "velocity": 80}, {"time": 4100, "pitch": 50, "duration": 4, "velocity": 94}, {"time": 4106, "pitch": 54, "duration": 1, "velocity": 97}, {"time": 4111, "pitch": 57, "duration": 13, "velocity": 96}, {"time": 4117, "pitch": 62, "duration": 19, "velocity": 87}, {"time": 4123, "pitch": 66, "duration": 14, "velocity": 84}, {"time": 4135, "pitch": 40, "duration": 38, "velocity": 99}, {"time": 4141, "pitch": 47, "duration": 31, "velocity": 87}, {"time": 4146, "pitch": 52, "duration": 5, "velocity": 94}, {"time": 4152, "pitch": 56, "duration": 2, "velocity": 96}, {"time": 4158, "pitch": 59, "duration": 41, "velocity": 94}, {"time": 4164, "pitch": 64, "duration": 37, "velocity": 89}, {"time": 4171, "pitch": 68, "duration": 30, "velocity": 83}, {"time": 4213, "pitch": 38, "duration": 87, "velocity": 99}, {"time": 4220, "pitch": 45, "duration": 80, "velocity": 77}, {"time": 4225, "pitch": 50, "duration": 3, "velocity": 90}, {"time": 4229, "pitch": 54, "duration": 2, "velocity": 80}, {"time": 4232, "pitch": 57, "duration": 5, "velocity": 89}, {"time": 4236, "pitch": 62, "duration": 5, "velocity": 86}, {"time": 4240, "pitch": 66, "duration": 3, "velocity": 94}, {"time": 4245, "pitch": 69, "duration": 5, "velocity": 89}, {"time": 4249, "pitch": 74, "duration": 6, "velocity": 90}, {"time": 4255, "pitch": 78, "duration": 5, "velocity": 93}, {"time": 4260, "pitch": 81, "duration": 2, "velocity": 90}, {"time": 4266, "pitch": 86, "duration": 3, "velocity": 71}, {"time": 4266, "pitch": 81, "duration": 3, "velocity": 67}, {"time": 4273, "pitch": 90, "duration": 4, "velocity": 83}, {"time": 4274, "pitch": 81, "duration": 3, "velocity": 76}, {"time": 4282, "pitch": 93, "duration": 3, "velocity": 88}, {"time": 4282, "pitch": 81, "duration": 1, "velocity": 65}], "annotations": [{"time": 19, "annotation": {"number": 64, "value": 127}, "group": "control_change"}, {"time": 64, "annotation": {"number": 64, "value": 0}, "group": "control_change"}, {"time": 67, "annotation": {"number": 64, "value": 127}, "group": "control_change"}, {"time": 112, "annotation": {"number": 64, "value": 0}, "group": "control_change"}, {"time": 114, "annotation": {"number": 64, "value": 127}, "group": "control_change"}, {"time": 114, "annotation": {"number": 64, "value": 0}, "group": "control_change"}, {"time": 115, "annotation": {"number": 64, "value": 127}, "group": "control_change"}, {"time": 162, "annotation": {"number": 64, "value": 0}, "group": "control_change"}, {"time": 163, "annotation": {"number": 64, "value": 127}, "group": "control_change"}, {"time": 209, "annotation": {"number": 64, "value": 0}, "group": "control_change"}, {"time": 211, "annotation": {"number": 64, "value": 127}, "group": "control_change"}, {"time": 256, "annotation": {"number": 64, "value": 0}, "group": "control_change"}, {"time": 263, "annotation": {"number": 64, "value": 127}, "group": "control_change"}, {"time": 302, "annotation": {"number": 64, "value": 0}, "group": "control_change"}, {"time": 311, "annotation": {"number": 64, "value": 127}, "group": "control_change"}, {"time": 354, "annotation": {"number": 64, "value": 0}, "group": "control_change"}, {"time": 357, "annotation": {"number": 64, "value": 127}, "group": "control_change"}, {"time": 401, "annotation": {"number": 64, "value": 0}, "group": "control_change"}, {"time": 406, "annotation": {"number": 64, "value": 127}, "group": "control_change"}, {"time": 447, "annotation": {"number": 64, "value": 0}, "group": "control_change"}, {"time": 451, "annotation": {"number": 64, "value": 127}, "group": "control_change"}, {"time": 495, "annotation": {"number": 64, "value": 0}, "group": "control_change"}, {"time": 499, "annotation": {"number": 64, "value": 127}, "group": "control_change"}, {"time": 545, "annotation": {"number": 64, "value": 0}, "group": "control_change"}, {"time": 550, "annotation": {"number": 64, "value": 127}, "group": "control_change"}, {"time": 575, "annotation": {"number": 64, "value": 0}, "group": "control_change"}, {"time": 581, "annotation": {"number": 64, "value": 127}, "group": "control_change"}, {"time": 595, "annotation": {"number": 64, "value": 0}, "group": "control_change"}, {"time": 599, "annotation": {"number": 64, "value": 127}, "group": "control_change"}, {"time": 641, "annotation": {"number": 64, "value": 0}, "group": "control_change"}, {"time": 648, "annotation": {"number": 64, "value": 127}, "group": "control_change"}, {"time": 689, "annotation": {"number": 64, "value": 0}, "group": "control_change"}, {"time": 697, "annotation": {"number": 64, "value": 127}, "group": "control_change"}, {"time": 736, "annotation": {"number": 64, "value": 0}, "group": "control_change"}, {"time": 743, "annotation": {"number": 64, "value": 127}, "group": "control_change"}, {"time": 773, "annotation": {"number": 64, "value": 0}, "group": "control_change"}, {"time": 775, "annotation": {"number": 64, "value": 127}, "group": "control_change"}, {"time": 786, "annotation": {"number": 64, "value": 0}, "group": "control_change"}, {"time": 791, "annotation": {"number": 64, "value": 127}, "group": "control_change"}, {"time": 834, "annotation": {"number": 64, "value": 0}, "group": "control_change"}, {"time": 839, "annotation": {"number": 64, "value": 127}, "group": "control_change"}, {"time": 881, "annotation": {"number": 64, "value": 0}, "group": "control_change"}, {"time": 893, "annotation": {"number": 64, "value": 127}, "group": "control_change"}, {"time": 930, "annotation": {"number": 64, "value": 0}, "group": "control_change"}, {"time": 933, "annotation": {"number": 64, "value": 127}, "group": "control_change"}, {"time": 978, "annotation": {"number": 64, "value": 0}, "group": "control_change"}, {"time": 982, "annotation": {"number": 64, "value": 127}, "group": "control_change"}, {"time": 1024, "annotation": {"number": 64, "value": 0}, "group": "control_change"}, {"time": 1028, "annotation": {"number": 64, "value": 127}, "group": "control_change"}, {"time": 1075, "annotation": {"number": 64, "value": 0}, "group": "control_change"}, {"time": 1083, "annotation": {"number": 64, "value": 127}, "group": "control_change"}, {"time": 1083, "annotation": {"number": 64, "value": 0}, "group": "control_change"}, {"time": 1121, "annotation": {"number": 64, "value": 0}, "group": "control_change"}, {"time": 1129, "annotation": {"number": 64, "value": 127}, "group": "control_change"}, {"time": 1129, "annotation": {"number": 64, "value": 0}, "group": "control_change"}, {"time": 1170, "annotation": {"number": 64, "value": 0}, "group": "control_change"}, {"time": 1178, "annotation": {"number": 64, "value": 127}, "group": "control_change"}, {"time": 1178, "annotation": {"number": 64, "value": 0}, "group": "control_change"}, {"time": 1216, "annotation": {"number": 64, "value": 0}, "group": "control_change"}, {"time": 1222, "annotation": {"number": 64, "value": 127}, "group": "control_change"}, {"time": 1222, "annotation": {"number": 64, "value": 0}, "group": "control_change"}, {"time": 1263, "annotation": {"number": 64, "value": 0}, "group": "control_change"}, {"time": 1267, "annotation": {"number": 64, "value": 127}, "group": "control_change"}, {"time": 1321, "annotation": {"number": 64, "value": 0}, "group": "control_change"}, {"time": 1373, "annotation": {"number": 64, "value": 0}, "group": "control_change"}, {"time": 1379, "annotation": {"number": 64, "value": 127}, "group": "control_change"}, {"time": 1420, "annotation": {"number": 64, "value": 0}, "group": "control_change"}, {"time": 1424, "annotation": {"number": 64, "value": 127}, "group": "control_change"}, {"time": 1443, "annotation": {"number": 64, "value": 0}, "group": "control_change"}, {"time": 1447, "annotation": {"number": 64, "value": 127}, "group": "control_change"}, {"time": 1467, "annotation": {"number": 64, "value": 0}, "group": "control_change"}, {"time": 1470, "annotation": {"number": 64, "value": 127}, "group": "control_change"}, {"time": 1516, "annotation": {"number": 64, "value": 0}, "group": "control_change"}, {"time": 1522, "annotation": {"number": 64, "value": 127}, "group": "control_change"}, {"time": 1563, "annotation": {"number": 64, "value": 0}, "group": "control_change"}, {"time": 1566, "annotation": {"number": 64, "value": 127}, "group": "control_change"}, {"time": 1577, "annotation": {"number": 64, "value": 0}, "group": "control_change"}, {"time": 1579, "annotation": {"number": 64, "value": 127}, "group": "control_change"}, {"time": 1589, "annotation": {"number": 64, "value": 0}, "group": "control_change"}, {"time": 1594, "annotation": {"number": 64, "value": 127}, "group": "control_change"}, {"time": 1614, "annotation": {"number": 64, "value": 0}, "group": "control_change"}, {"time": 1618, "annotation": {"number": 64, "value": 127}, "group": "control_change"}, {"time": 1661, "annotation": {"number": 64, "value": 0}, "group": "control_change"}, {"time": 1667, "annotation": {"number": 64, "value": 127}, "group": "control_change"}, {"time": 1709, "annotation": {"number": 64, "value": 0}, "group": "control_change"}, {"time": 1717, "annotation": {"number": 64, "value": 127}, "group": "control_change"}, {"time": 1756, "annotation": {"number": 64, "value": 0}, "group": "control_change"}, {"time": 1759, "annotation": {"number": 64, "value": 127}, "group": "control_change"}, {"time": 1803, "annotation": {"number": 64, "value": 0}, "group": "control_change"}, {"time": 1807, "annotation": {"number": 64, "value": 127}, "group": "control_change"}, {"time": 1851, "annotation": {"number": 64, "value": 0}, "group": "control_change"}, {"time": 1857, "annotation": {"number": 64, "value": 127}, "group": "control_change"}, {"time": 1901, "annotation": {"number": 64, "value": 0}, "group": "control_change"}, {"time": 1906, "annotation": {"number": 64, "value": 127}, "group": "control_change"}, {"time": 1949, "annotation": {"number": 64, "value": 0}, "group": "control_change"}, {"time": 1951, "annotation": {"number": 64, "value": 127}, "group": "control_change"}, {"time": 1961, "annotation": {"number": 64, "value": 0}, "group": "control_change"}, {"time": 1963, "annotation": {"number": 64, "value": 127}, "group": "control_change"}, {"time": 1974, "annotation": {"number": 64, "value": 0}, "group": "control_change"}, {"time": 1977, "annotation": {"number": 64, "value": 127}, "group": "control_change"}, {"time": 1997, "annotation": {"number": 64, "value": 0}, "group": "control_change"}, {"time": 2000, "annotation": {"number": 64, "value": 127}, "group": "control_change"}, {"time": 2045, "annotation": {"number": 64, "value": 0}, "group": "control_change"}, {"time": 2048, "annotation": {"number": 64, "value": 127}, "group": "control_change"}, {"time": 2068, "annotation": {"number": 64, "value": 0}, "group": "control_change"}, {"time": 2071, "annotation": {"number": 64, "value": 127}, "group": "control_change"}, {"time": 2103, "annotation": {"number": 64, "value": 0}, "group": "control_change"}, {"time": 2107, "annotation": {"number": 64, "value": 127}, "group": "control_change"}, {"time": 2153, "annotation": {"number": 64, "value": 0}, "group": "control_change"}, {"time": 2159, "annotation": {"number": 64, "value": 127}, "group": "control_change"}, {"time": 2201, "annotation": {"number": 64, "value": 0}, "group": "control_change"}, {"time": 2208, "annotation": {"number": 64, "value": 127}, "group": "control_change"}, {"time": 2250, "annotation": {"number": 64, "value": 0}, "group": "control_change"}, {"time": 2256, "annotation": {"number": 64, "value": 127}, "group": "control_change"}, {"time": 2296, "annotation": {"number": 64, "value": 0}, "group": "control_change"}, {"time": 2303, "annotation": {"number": 64, "value": 127}, "group": "control_change"}, {"time": 2346, "annotation": {"number": 64, "value": 0}, "group": "control_change"}, {"time": 2348, "annotation": {"number": 64, "value": 127}, "group": "control_change"}, {"time": 2357, "annotation": {"number": 64, "value": 0}, "group": "control_change"}, {"time": 2359, "annotation": {"number": 64, "value": 127}, "group": "control_change"}, {"time": 2369, "annotation": {"number": 64, "value": 0}, "group": "control_change"}, {"time": 2372, "annotation": {"number": 64, "value": 127}, "group": "control_change"}, {"time": 2395, "annotation": {"number": 64, "value": 0}, "group": "control_change"}, {"time": 2402, "annotation": {"number": 64, "value": 127}, "group": "control_change"}, {"time": 2440, "annotation": {"number": 64, "value": 0}, "group": "control_change"}, {"time": 2442, "annotation": {"number": 64, "value": 127}, "group": "control_change"}, {"time": 2465, "annotation": {"number": 64, "value": 0}, "group": "control_change"}, {"time": 2470, "annotation": {"number": 64, "value": 127}, "group": "control_change"}, {"time": 2488, "annotation": {"number": 64, "value": 0}, "group": "control_change"}, {"time": 2501, "annotation": {"number": 64, "value": 127}, "group": "control_change"}, {"time": 2538, "annotation": {"number": 64, "value": 0}, "group": "control_change"}, {"time": 2541, "annotation": {"number": 64, "value": 127}, "group": "control_change"}, {"time": 2586, "annotation": {"number": 64, "value": 0}, "group": "control_change"}, {"time": 2590, "annotation": {"number": 64, "value": 127}, "group": "control_change"}, {"time": 2632, "annotation": {"number": 64, "value": 0}, "group": "control_change"}, {"time": 2636, "annotation": {"number": 64, "value": 127}, "group": "control_change"}, {"time": 2683, "annotation": {"number": 64, "value": 0}, "group": "control_change"}, {"time": 2691, "annotation": {"number": 64, "value": 127}, "group": "control_change"}, {"time": 2691, "annotation": {"number": 64, "value": 0}, "group": "control_change"}, {"time": 2729, "annotation": {"number": 64, "value": 0}, "group": "control_change"}, {"time": 2737, "annotation": {"number": 64, "value": 127}, "group": "control_change"}, {"time": 2737, "annotation": {"number": 64, "value": 0}, "group": "control_change"}, {"time": 2778, "annotation": {"number": 64, "value": 0}, "group": "control_change"}, {"time": 2786, "annotation": {"number": 64, "value": 127}, "group": "control_change"}, {"time": 2786, "annotation": {"number": 64, "value": 0}, "group": "control_change"}, {"time": 2824, "annotation": {"number": 64, "value": 0}, "group": "control_change"}, {"time": 2830, "annotation": {"number": 64, "value": 127}, "group": "control_change"}, {"time": 2830, "annotation": {"number": 64, "value": 0}, "group": "control_change"}, {"time": 2871, "annotation": {"number": 64, "value": 0}, "group": "control_change"}, {"time": 2875, "annotation": {"number": 64, "value": 127}, "group": "control_change"}, {"time": 2929, "annotation": {"number": 64, "value": 0}, "group": "control_change"}, {"time": 2981, "annotation": {"number": 64, "value": 0}, "group": "control_change"}, {"time": 2987, "annotation": {"number": 64, "value": 127}, "group": "control_change"}, {"time": 3028, "annotation": {"number": 64, "value": 0}, "group": "control_change"}, {"time": 3032, "annotation": {"number": 64, "value": 127}, "group": "control_change"}, {"time": 3051, "annotation": {"number": 64, "value": 0}, "group": "control_change"}, {"time": 3055, "annotation": {"number": 64, "value": 127}, "group": "control_change"}, {"time": 3075, "annotation": {"number": 64, "value": 0}, "group": "control_change"}, {"time": 3078, "annotation": {"number": 64, "value": 127}, "group": "control_change"}, {"time": 3124, "annotation": {"number": 64, "value": 0}, "group": "control_change"}, {"time": 3130, "annotation": {"number": 64, "value": 127}, "group": "control_change"}, {"time": 3171, "annotation": {"number": 64, "value": 0}, "group": "control_change"}, {"time": 3174, "annotation": {"number": 64, "value": 127}, "group": "control_change"}, {"time": 3185, "annotation": {"number": 64, "value": 0}, "group": "control_change"}, {"time": 3187, "annotation": {"number": 64, "value": 127}, "group": "control_change"}, {"time": 3197, "annotation": {"number": 64, "value": 0}, "group": "control_change"}, {"time": 3202, "annotation": {"number": 64, "value": 127}, "group": "control_change"}, {"time": 3222, "annotation": {"number": 64, "value": 0}, "group": "control_change"}, {"time": 3226, "annotation": {"number": 64, "value": 127}, "group": "control_change"}, {"time": 3269, "annotation": {"number": 64, "value": 0}, "group": "control_change"}, {"time": 3275, "annotation": {"number": 64, "value": 127}, "group": "control_change"}, {"time": 3317, "annotation": {"number": 64, "value": 0}, "group": "control_change"}, {"time": 3325, "annotation": {"number": 64, "value": 127}, "group": "control_change"}, {"time": 3364, "annotation": {"number": 64, "value": 0}, "group": "control_change"}, {"time": 3367, "annotation": {"number": 64, "value": 127}, "group": "control_change"}, {"time": 3411, "annotation": {"number": 64, "value": 0}, "group": "control_change"}, {"time": 3415, "annotation": {"number": 64, "value": 127}, "group": "control_change"}, {"time": 3459, "annotation": {"number": 64, "value": 0}, "group": "control_change"}, {"time": 3465, "annotation": {"number": 64, "value": 127}, "group": "control_change"}, {"time": 3509, "annotation": {"number": 64, "value": 0}, "group": "control_change"}, {"time": 3514, "annotation": {"number": 64, "value": 127}, "group": "control_change"}, {"time": 3557, "annotation": {"number": 64, "value": 0}, "group": "control_change"}, {"time": 3559, "annotation": {"number": 64, "value": 127}, "group": "control_change"}, {"time": 3569, "annotation": {"number": 64, "value": 0}, "group": "control_change"}, {"time": 3571, "annotation": {"number": 64, "value": 127}, "group": "control_change"}, {"time": 3582, "annotation": {"number": 64, "value": 0}, "group": "control_change"}, {"time": 3585, "annotation": {"number": 64, "value": 127}, "group": "control_change"}, {"time": 3605, "annotation": {"number": 64, "value": 0}, "group": "control_change"}, {"time": 3608, "annotation": {"number": 64, "value": 127}, "group": "control_change"}, {"time": 3653, "annotation": {"number": 64, "value": 0}, "group": "control_change"}, {"time": 3656, "annotation": {"number": 64, "value": 127}, "group": "control_change"}, {"time": 3676, "annotation": {"number": 64, "value": 0}, "group": "control_change"}, {"time": 3679, "annotation": {"number": 64, "value": 127}, "group": "control_change"}, {"time": 3711, "annotation": {"number": 64, "value": 0}, "group": "control_change"}, {"time": 3716, "annotation": {"number": 64, "value": 127}, "group": "control_change"}, {"time": 3760, "annotation": {"number": 64, "value": 0}, "group": "control_change"}, {"time": 3764, "annotation": {"number": 64, "value": 127}, "group": "control_change"}, {"time": 3806, "annotation": {"number": 64, "value": 0}, "group": "control_change"}, {"time": 3836, "annotation": {"number": 64, "value": 127}, "group": "control_change"}, {"time": 3861, "annotation": {"number": 64, "value": 0}, "group": "control_change"}, {"time": 3871, "annotation": {"number": 64, "value": 127}, "group": "control_change"}, {"time": 3917, "annotation": {"number": 64, "value": 0}, "group": "control_change"}, {"time": 3923, "annotation": {"number": 64, "value": 127}, "group": "control_change"}, {"time": 3943, "annotation": {"number": 64, "value": 0}, "group": "control_change"}, {"time": 3946, "annotation": {"number": 64, "value": 127}, "group": "control_change"}, {"time": 3985, "annotation": {"number": 64, "value": 127}, "group": "control_change"}, {"time": 3986, "annotation": {"number": 64, "value": 0}, "group": "control_change"}, {"time": 4026, "annotation": {"number": 64, "value": 0}, "group": "control_change"}, {"time": 4030, "annotation": {"number": 64, "value": 127}, "group": "control_change"}, {"time": 4081, "annotation": {"number": 64, "value": 0}, "group": "control_change"}, {"time": 4088, "annotation": {"number": 64, "value": 127}, "group": "control_change"}, {"time": 4138, "annotation": {"number": 64, "value": 0}, "group": "control_change"}, {"time": 4143, "annotation": {"number": 64, "value": 127}, "group": "control_change"}, {"time": 4212, "annotation": {"number": 64, "value": 0}, "group": "control_change"}, {"time": 4221, "annotation": {"number": 64, "value": 127}, "group": "control_change"}, {"time": 4326, "annotation": {"number": 64, "value": 0}, "group": "control_change"}]}]}