{"metadata": {"schema_version": "0.2", "title": "None", "source_filename": "438.mid", "source_format": "midi"}, "resolution": 12, "tempos": [{"time": 0, "qpm": 95.00014250021376}, {"time": 456, "qpm": 94.5000945000945}, {"time": 612, "qpm": 94.750206871285}, {"time": 2280, "qpm": 95.00014250021376}, {"time": 2517, "qpm": 94.750206871285}], "time_signatures": [{"time": 0, "numerator": 1, "denominator": 4}], "tracks": [{"program": 4, "is_drum": false, "name": "MELODY", "notes": [{"time": 559, "pitch": 69, "duration": 5, "velocity": 95}, {"time": 565, "pitch": 71, "duration": 4, "velocity": 95}, {"time": 571, "pitch": 73, "duration": 6, "velocity": 94}, {"time": 577, "pitch": 71, "duration": 4, "velocity": 98}, {"time": 583, "pitch": 69, "duration": 5, "velocity": 97}, {"time": 589, "pitch": 73, "duration": 9, "velocity": 102}, {"time": 601, "pitch": 68, "duration": 19, "velocity": 95}, {"time": 655, "pitch": 62, "duration": 4, "velocity": 94}, {"time": 661, "pitch": 64, "duration": 4, "velocity": 99}, {"time": 667, "pitch": 66, "duration": 5, "velocity": 89}, {"time": 673, "pitch": 64, "duration": 4, "velocity": 96}, {"time": 679, "pitch": 62, "duration": 5, "velocity": 93}, {"time": 685, "pitch": 66, "duration": 5, "velocity": 94}, {"time": 691, "pitch": 64, "duration": 40, "velocity": 97}, {"time": 751, "pitch": 69, "duration": 4, "velocity": 95}, {"time": 757, "pitch": 71, "duration": 5, "velocity": 92}, {"time": 763, "pitch": 73, "duration": 5, "velocity": 93}, {"time": 769, "pitch": 71, "duration": 4, "velocity": 94}, {"time": 775, "pitch": 69, "duration": 4, "velocity": 95}, {"time": 781, "pitch": 73, "duration": 9, "velocity": 94}, {"time": 793, "pitch": 68, "duration": 23, "velocity": 94}, {"time": 847, "pitch": 62, "duration": 4, "velocity": 93}, {"time": 853, "pitch": 64, "duration": 4, "velocity": 96}, {"time": 859, "pitch": 66, "duration": 4, "velocity": 88}, {"time": 865, "pitch": 64, "duration": 4, "velocity": 95}, {"time": 871, "pitch": 62, "duration": 4, "velocity": 94}, {"time": 877, "pitch": 66, "duration": 4, "velocity": 91}, {"time": 883, "pitch": 69, "duration": 9, "velocity": 92}, {"time": 895, "pitch": 68, "duration": 9, "velocity": 94}, {"time": 907, "pitch": 69, "duration": 10, "velocity": 94}, {"time": 919, "pitch": 71, "duration": 9, "velocity": 94}, {"time": 931, "pitch": 71, "duration": 9, "velocity": 95}, {"time": 943, "pitch": 73, "duration": 4, "velocity": 95}, {"time": 949, "pitch": 73, "duration": 10, "velocity": 90}, {"time": 967, "pitch": 71, "duration": 4, "velocity": 93}, {"time": 973, "pitch": 69, "duration": 4, "velocity": 94}, {"time": 979, "pitch": 76, "duration": 3, "velocity": 88}, {"time": 985, "pitch": 73, "duration": 8, "velocity": 95}, {"time": 997, "pitch": 73, "duration": 5, "velocity": 95}, {"time": 1015, "pitch": 73, "duration": 4, "velocity": 94}, {"time": 1021, "pitch": 76, "duration": 3, "velocity": 94}, {"time": 1027, "pitch": 76, "duration": 4, "velocity": 95}, {"time": 1033, "pitch": 74, "duration": 9, "velocity": 95}, {"time": 1045, "pitch": 74, "duration": 6, "velocity": 97}, {"time": 1063, "pitch": 73, "duration": 4, "velocity": 86}, {"time": 1069, "pitch": 74, "duration": 4, "velocity": 97}, {"time": 1075, "pitch": 73, "duration": 4, "velocity": 94}, {"time": 1081, "pitch": 71, "duration": 3, "velocity": 92}, {"time": 1087, "pitch": 71, "duration": 4, "velocity": 96}, {"time": 1093, "pitch": 69, "duration": 4, "velocity": 93}, {"time": 1099, "pitch": 73, "duration": 5, "velocity": 94}, {"time": 1105, "pitch": 71, "duration": 3, "velocity": 94}, {"time": 1117, "pitch": 69, "duration": 6, "velocity": 95}, {"time": 1123, "pitch": 71, "duration": 4, "velocity": 94}, {"time": 1129, "pitch": 73, "duration": 10, "velocity": 94}, {"time": 1141, "pitch": 73, "duration": 10, "velocity": 94}, {"time": 1153, "pitch": 73, "duration": 4, "velocity": 94}, {"time": 1159, "pitch": 71, "duration": 3, "velocity": 97}, {"time": 1165, "pitch": 69, "duration": 4, "velocity": 97}, {"time": 1171, "pitch": 76, "duration": 4, "velocity": 95}, {"time": 1177, "pitch": 73, "duration": 9, "velocity": 93}, {"time": 1189, "pitch": 73, "duration": 7, "velocity": 95}, {"time": 1201, "pitch": 73, "duration": 4, "velocity": 94}, {"time": 1207, "pitch": 73, "duration": 4, "velocity": 95}, {"time": 1213, "pitch": 76, "duration": 3, "velocity": 95}, {"time": 1219, "pitch": 76, "duration": 4, "velocity": 96}, {"time": 1225, "pitch": 74, "duration": 9, "velocity": 95}, {"time": 1237, "pitch": 74, "duration": 6, "velocity": 98}, {"time": 1249, "pitch": 73, "duration": 4, "velocity": 88}, {"time": 1255, "pitch": 73, "duration": 3, "velocity": 89}, {"time": 1261, "pitch": 74, "duration": 4, "velocity": 96}, {"time": 1267, "pitch": 73, "duration": 4, "velocity": 93}, {"time": 1273, "pitch": 71, "duration": 9, "velocity": 94}, {"time": 1285, "pitch": 69, "duration": 5, "velocity": 88}, {"time": 1291, "pitch": 71, "duration": 8, "velocity": 94}, {"time": 1303, "pitch": 73, "duration": 9, "velocity": 96}, {"time": 1315, "pitch": 71, "duration": 5, "velocity": 94}, {"time": 1321, "pitch": 69, "duration": 42, "velocity": 94}, {"time": 1519, "pitch": 69, "duration": 5, "velocity": 95}, {"time": 1525, "pitch": 71, "duration": 4, "velocity": 95}, {"time": 1531, "pitch": 73, "duration": 6, "velocity": 94}, {"time": 1537, "pitch": 71, "duration": 4, "velocity": 98}, {"time": 1543, "pitch": 69, "duration": 5, "velocity": 97}, {"time": 1549, "pitch": 73, "duration": 9, "velocity": 102}, {"time": 1561, "pitch": 68, "duration": 19, "velocity": 95}, {"time": 1615, "pitch": 62, "duration": 4, "velocity": 94}, {"time": 1621, "pitch": 64, "duration": 4, "velocity": 99}, {"time": 1627, "pitch": 66, "duration": 5, "velocity": 89}, {"time": 1633, "pitch": 64, "duration": 4, "velocity": 96}, {"time": 1639, "pitch": 62, "duration": 5, "velocity": 93}, {"time": 1645, "pitch": 66, "duration": 5, "velocity": 94}, {"time": 1651, "pitch": 64, "duration": 40, "velocity": 97}, {"time": 1711, "pitch": 69, "duration": 4, "velocity": 95}, {"time": 1717, "pitch": 71, "duration": 5, "velocity": 92}, {"time": 1723, "pitch": 73, "duration": 5, "velocity": 93}, {"time": 1729, "pitch": 71, "duration": 4, "velocity": 94}, {"time": 1735, "pitch": 69, "duration": 4, "velocity": 95}, {"time": 1741, "pitch": 73, "duration": 9, "velocity": 94}, {"time": 1753, "pitch": 68, "duration": 23, "velocity": 94}, {"time": 1807, "pitch": 62, "duration": 4, "velocity": 93}, {"time": 1813, "pitch": 64, "duration": 4, "velocity": 96}, {"time": 1819, "pitch": 66, "duration": 4, "velocity": 88}, {"time": 1825, "pitch": 64, "duration": 4, "velocity": 95}, {"time": 1831, "pitch": 62, "duration": 4, "velocity": 94}, {"time": 1837, "pitch": 66, "duration": 4, "velocity": 91}, {"time": 1843, "pitch": 69, "duration": 9, "velocity": 92}, {"time": 1855, "pitch": 68, "duration": 9, "velocity": 94}, {"time": 1867, "pitch": 69, "duration": 10, "velocity": 94}, {"time": 1879, "pitch": 71, "duration": 9, "velocity": 94}, {"time": 1891, "pitch": 71, "duration": 9, "velocity": 95}, {"time": 1903, "pitch": 73, "duration": 4, "velocity": 95}, {"time": 1909, "pitch": 73, "duration": 10, "velocity": 90}, {"time": 1927, "pitch": 71, "duration": 4, "velocity": 93}, {"time": 1933, "pitch": 69, "duration": 4, "velocity": 94}, {"time": 1939, "pitch": 76, "duration": 3, "velocity": 88}, {"time": 1945, "pitch": 73, "duration": 8, "velocity": 95}, {"time": 1957, "pitch": 73, "duration": 5, "velocity": 95}, {"time": 1975, "pitch": 73, "duration": 4, "velocity": 94}, {"time": 1981, "pitch": 76, "duration": 3, "velocity": 94}, {"time": 1987, "pitch": 76, "duration": 4, "velocity": 95}, {"time": 1993, "pitch": 74, "duration": 9, "velocity": 95}, {"time": 2005, "pitch": 74, "duration": 6, "velocity": 97}, {"time": 2023, "pitch": 73, "duration": 4, "velocity": 86}, {"time": 2029, "pitch": 74, "duration": 4, "velocity": 97}, {"time": 2035, "pitch": 73, "duration": 4, "velocity": 94}, {"time": 2041, "pitch": 71, "duration": 3, "velocity": 92}, {"time": 2047, "pitch": 71, "duration": 4, "velocity": 96}, {"time": 2053, "pitch": 69, "duration": 4, "velocity": 93}, {"time": 2059, "pitch": 73, "duration": 5, "velocity": 94}, {"time": 2065, "pitch": 71, "duration": 3, "velocity": 94}, {"time": 2077, "pitch": 69, "duration": 6, "velocity": 95}, {"time": 2083, "pitch": 71, "duration": 4, "velocity": 94}, {"time": 2089, "pitch": 73, "duration": 10, "velocity": 94}, {"time": 2101, "pitch": 73, "duration": 10, "velocity": 94}, {"time": 2113, "pitch": 73, "duration": 4, "velocity": 94}, {"time": 2119, "pitch": 71, "duration": 3, "velocity": 97}, {"time": 2125, "pitch": 69, "duration": 4, "velocity": 97}, {"time": 2131, "pitch": 76, "duration": 4, "velocity": 95}, {"time": 2137, "pitch": 73, "duration": 9, "velocity": 93}, {"time": 2149, "pitch": 73, "duration": 7, "velocity": 95}, {"time": 2161, "pitch": 73, "duration": 4, "velocity": 94}, {"time": 2167, "pitch": 73, "duration": 4, "velocity": 95}, {"time": 2173, "pitch": 76, "duration": 3, "velocity": 95}, {"time": 2179, "pitch": 76, "duration": 4, "velocity": 96}, {"time": 2185, "pitch": 74, "duration": 9, "velocity": 95}, {"time": 2197, "pitch": 74, "duration": 6, "velocity": 98}, {"time": 2209, "pitch": 73, "duration": 4, "velocity": 88}, {"time": 2215, "pitch": 73, "duration": 3, "velocity": 89}, {"time": 2221, "pitch": 74, "duration": 4, "velocity": 96}, {"time": 2227, "pitch": 73, "duration": 4, "velocity": 93}, {"time": 2233, "pitch": 71, "duration": 9, "velocity": 94}, {"time": 2245, "pitch": 69, "duration": 5, "velocity": 88}, {"time": 2251, "pitch": 71, "duration": 8, "velocity": 94}, {"time": 2263, "pitch": 73, "duration": 9, "velocity": 96}, {"time": 2275, "pitch": 71, "duration": 5, "velocity": 94}, {"time": 2281, "pitch": 69, "duration": 42, "velocity": 94}, {"time": 2479, "pitch": 73, "duration": 4, "velocity": 94}, {"time": 2485, "pitch": 73, "duration": 4, "velocity": 97}, {"time": 2491, "pitch": 73, "duration": 4, "velocity": 93}, {"time": 2497, "pitch": 73, "duration": 4, "velocity": 94}, {"time": 2503, "pitch": 73, "duration": 4, "velocity": 95}, {"time": 2509, "pitch": 75, "duration": 4, "velocity": 96}, {"time": 2515, "pitch": 73, "duration": 4, "velocity": 104}, {"time": 2521, "pitch": 71, "duration": 4, "velocity": 100}, {"time": 2527, "pitch": 68, "duration": 4, "velocity": 94}, {"time": 2533, "pitch": 71, "duration": 11, "velocity": 94}, {"time": 2545, "pitch": 73, "duration": 5, "velocity": 93}, {"time": 2551, "pitch": 68, "duration": 5, "velocity": 95}, {"time": 2557, "pitch": 66, "duration": 8, "velocity": 95}, {"time": 2569, "pitch": 73, "duration": 4, "velocity": 86}, {"time": 2575, "pitch": 73, "duration": 3, "velocity": 94}, {"time": 2581, "pitch": 73, "duration": 3, "velocity": 91}, {"time": 2587, "pitch": 73, "duration": 3, "velocity": 93}, {"time": 2593, "pitch": 73, "duration": 4, "velocity": 89}, {"time": 2599, "pitch": 73, "duration": 4, "velocity": 94}, {"time": 2605, "pitch": 75, "duration": 4, "velocity": 95}, {"time": 2611, "pitch": 73, "duration": 4, "velocity": 94}, {"time": 2617, "pitch": 71, "duration": 3, "velocity": 94}, {"time": 2623, "pitch": 68, "duration": 4, "velocity": 97}, {"time": 2629, "pitch": 71, "duration": 5, "velocity": 93}, {"time": 2641, "pitch": 75, "duration": 5, "velocity": 98}, {"time": 2647, "pitch": 73, "duration": 3, "velocity": 100}, {"time": 2653, "pitch": 71, "duration": 4, "velocity": 98}, {"time": 2659, "pitch": 73, "duration": 4, "velocity": 91}, {"time": 2665, "pitch": 75, "duration": 8, "velocity": 97}, {"time": 2677, "pitch": 76, "duration": 11, "velocity": 96}, {"time": 2689, "pitch": 78, "duration": 4, "velocity": 88}, {"time": 2695, "pitch": 75, "duration": 3, "velocity": 98}, {"time": 2701, "pitch": 75, "duration": 12, "velocity": 95}, {"time": 2713, "pitch": 73, "duration": 12, "velocity": 94}, {"time": 2725, "pitch": 71, "duration": 4, "velocity": 97}, {"time": 2731, "pitch": 75, "duration": 8, "velocity": 97}, {"time": 2743, "pitch": 73, "duration": 4, "velocity": 95}, {"time": 2749, "pitch": 71, "duration": 4, "velocity": 36}, {"time": 2755, "pitch": 73, "duration": 9, "velocity": 95}, {"time": 2767, "pitch": 75, "duration": 4, "velocity": 95}, {"time": 2773, "pitch": 75, "duration": 10, "velocity": 90}, {"time": 2791, "pitch": 73, "duration": 4, "velocity": 93}, {"time": 2797, "pitch": 71, "duration": 4, "velocity": 94}, {"time": 2803, "pitch": 78, "duration": 3, "velocity": 88}, {"time": 2809, "pitch": 75, "duration": 8, "velocity": 95}, {"time": 2821, "pitch": 75, "duration": 5, "velocity": 95}, {"time": 2839, "pitch": 75, "duration": 4, "velocity": 94}, {"time": 2845, "pitch": 78, "duration": 3, "velocity": 94}, {"time": 2851, "pitch": 78, "duration": 4, "velocity": 95}, {"time": 2857, "pitch": 76, "duration": 9, "velocity": 95}, {"time": 2869, "pitch": 76, "duration": 6, "velocity": 97}, {"time": 2887, "pitch": 75, "duration": 4, "velocity": 86}, {"time": 2893, "pitch": 76, "duration": 4, "velocity": 97}, {"time": 2899, "pitch": 75, "duration": 4, "velocity": 94}, {"time": 2905, "pitch": 73, "duration": 3, "velocity": 92}, {"time": 2911, "pitch": 73, "duration": 4, "velocity": 96}, {"time": 2917, "pitch": 71, "duration": 4, "velocity": 93}, {"time": 2923, "pitch": 75, "duration": 5, "velocity": 94}, {"time": 2929, "pitch": 73, "duration": 3, "velocity": 94}, {"time": 2941, "pitch": 71, "duration": 6, "velocity": 95}, {"time": 2947, "pitch": 73, "duration": 4, "velocity": 94}, {"time": 2953, "pitch": 75, "duration": 10, "velocity": 94}, {"time": 2965, "pitch": 75, "duration": 10, "velocity": 94}, {"time": 2977, "pitch": 75, "duration": 4, "velocity": 94}, {"time": 2983, "pitch": 73, "duration": 3, "velocity": 97}, {"time": 2989, "pitch": 71, "duration": 4, "velocity": 97}, {"time": 2995, "pitch": 78, "duration": 4, "velocity": 95}, {"time": 3001, "pitch": 75, "duration": 9, "velocity": 93}, {"time": 3013, "pitch": 75, "duration": 7, "velocity": 95}, {"time": 3025, "pitch": 75, "duration": 4, "velocity": 94}, {"time": 3031, "pitch": 75, "duration": 4, "velocity": 95}, {"time": 3037, "pitch": 78, "duration": 3, "velocity": 95}, {"time": 3043, "pitch": 78, "duration": 4, "velocity": 96}, {"time": 3049, "pitch": 76, "duration": 9, "velocity": 95}, {"time": 3061, "pitch": 76, "duration": 6, "velocity": 98}, {"time": 3073, "pitch": 75, "duration": 4, "velocity": 88}, {"time": 3079, "pitch": 73, "duration": 3, "velocity": 89}, {"time": 3085, "pitch": 71, "duration": 4, "velocity": 96}, {"time": 3091, "pitch": 80, "duration": 4, "velocity": 93}, {"time": 3097, "pitch": 78, "duration": 9, "velocity": 94}, {"time": 3109, "pitch": 80, "duration": 5, "velocity": 88}, {"time": 3115, "pitch": 75, "duration": 6, "velocity": 94}, {"time": 3121, "pitch": 73, "duration": 9, "velocity": 96}, {"time": 3133, "pitch": 71, "duration": 5, "velocity": 94}, {"time": 3139, "pitch": 73, "duration": 9, "velocity": 95}, {"time": 3151, "pitch": 75, "duration": 4, "velocity": 95}, {"time": 3157, "pitch": 75, "duration": 10, "velocity": 90}, {"time": 3175, "pitch": 73, "duration": 4, "velocity": 93}, {"time": 3181, "pitch": 71, "duration": 4, "velocity": 94}, {"time": 3187, "pitch": 78, "duration": 3, "velocity": 88}, {"time": 3193, "pitch": 75, "duration": 8, "velocity": 95}, {"time": 3205, "pitch": 75, "duration": 5, "velocity": 95}, {"time": 3223, "pitch": 75, "duration": 4, "velocity": 94}, {"time": 3229, "pitch": 78, "duration": 3, "velocity": 94}, {"time": 3235, "pitch": 78, "duration": 4, "velocity": 95}, {"time": 3241, "pitch": 76, "duration": 9, "velocity": 95}, {"time": 3253, "pitch": 76, "duration": 6, "velocity": 97}, {"time": 3271, "pitch": 75, "duration": 4, "velocity": 86}, {"time": 3277, "pitch": 76, "duration": 4, "velocity": 97}, {"time": 3283, "pitch": 75, "duration": 4, "velocity": 94}, {"time": 3289, "pitch": 73, "duration": 3, "velocity": 92}, {"time": 3295, "pitch": 73, "duration": 4, "velocity": 96}, {"time": 3301, "pitch": 71, "duration": 4, "velocity": 93}, {"time": 3307, "pitch": 75, "duration": 5, "velocity": 94}, {"time": 3313, "pitch": 73, "duration": 3, "velocity": 94}, {"time": 3325, "pitch": 71, "duration": 6, "velocity": 95}, {"time": 3331, "pitch": 73, "duration": 4, "velocity": 94}, {"time": 3337, "pitch": 75, "duration": 10, "velocity": 94}, {"time": 3349, "pitch": 75, "duration": 10, "velocity": 94}, {"time": 3361, "pitch": 75, "duration": 4, "velocity": 94}, {"time": 3367, "pitch": 73, "duration": 3, "velocity": 97}, {"time": 3373, "pitch": 71, "duration": 4, "velocity": 97}, {"time": 3379, "pitch": 78, "duration": 4, "velocity": 95}, {"time": 3385, "pitch": 75, "duration": 9, "velocity": 93}, {"time": 3397, "pitch": 75, "duration": 7, "velocity": 95}, {"time": 3409, "pitch": 75, "duration": 4, "velocity": 94}, {"time": 3415, "pitch": 75, "duration": 4, "velocity": 95}, {"time": 3421, "pitch": 78, "duration": 3, "velocity": 95}, {"time": 3427, "pitch": 78, "duration": 4, "velocity": 96}, {"time": 3433, "pitch": 76, "duration": 9, "velocity": 95}, {"time": 3445, "pitch": 76, "duration": 6, "velocity": 98}, {"time": 3457, "pitch": 75, "duration": 4, "velocity": 88}, {"time": 3463, "pitch": 75, "duration": 3, "velocity": 89}, {"time": 3469, "pitch": 76, "duration": 4, "velocity": 96}, {"time": 3475, "pitch": 75, "duration": 4, "velocity": 93}, {"time": 3481, "pitch": 73, "duration": 9, "velocity": 94}, {"time": 3493, "pitch": 71, "duration": 5, "velocity": 88}, {"time": 3499, "pitch": 73, "duration": 8, "velocity": 94}, {"time": 3511, "pitch": 75, "duration": 9, "velocity": 96}, {"time": 3523, "pitch": 73, "duration": 5, "velocity": 94}, {"time": 3529, "pitch": 71, "duration": 42, "velocity": 94}]}, {"program": 0, "is_drum": false, "name": "PIANO", "notes": [{"time": 163, "pitch": 45, "duration": 20, "velocity": 95}, {"time": 163, "pitch": 57, "duration": 8, "velocity": 88}, {"time": 163, "pitch": 61, "duration": 8, "velocity": 83}, {"time": 163, "pitch": 64, "duration": 9, "velocity": 89}, {"time": 175, "pitch": 57, "duration": 10, "velocity": 93}, {"time": 175, "pitch": 61, "duration": 12, "velocity": 95}, {"time": 175, "pitch": 64, "duration": 15, "velocity": 98}, {"time": 187, "pitch": 52, "duration": 36, "velocity": 87}, {"time": 193, "pitch": 57, "duration": 3, "velocity": 82}, {"time": 199, "pitch": 57, "duration": 2, "velocity": 87}, {"time": 199, "pitch": 61, "duration": 7, "velocity": 93}, {"time": 199, "pitch": 64, "duration": 21, "velocity": 95}, {"time": 205, "pitch": 57, "duration": 3, "velocity": 76}, {"time": 211, "pitch": 44, "duration": 49, "velocity": 90}, {"time": 211, "pitch": 56, "duration": 10, "velocity": 84}, {"time": 211, "pitch": 59, "duration": 9, "velocity": 88}, {"time": 223, "pitch": 56, "duration": 1, "velocity": 80}, {"time": 223, "pitch": 59, "duration": 12, "velocity": 97}, {"time": 223, "pitch": 64, "duration": 12, "velocity": 99}, {"time": 229, "pitch": 56, "duration": 6, "velocity": 58}, {"time": 235, "pitch": 52, "duration": 26, "velocity": 81}, {"time": 241, "pitch": 56, "duration": 3, "velocity": 78}, {"time": 247, "pitch": 56, "duration": 3, "velocity": 94}, {"time": 247, "pitch": 59, "duration": 12, "velocity": 96}, {"time": 247, "pitch": 64, "duration": 13, "velocity": 99}, {"time": 253, "pitch": 56, "duration": 6, "velocity": 87}, {"time": 259, "pitch": 47, "duration": 38, "velocity": 93}, {"time": 259, "pitch": 59, "duration": 1, "velocity": 89}, {"time": 259, "pitch": 62, "duration": 9, "velocity": 89}, {"time": 259, "pitch": 66, "duration": 9, "velocity": 84}, {"time": 271, "pitch": 57, "duration": 13, "velocity": 92}, {"time": 271, "pitch": 62, "duration": 20, "velocity": 95}, {"time": 271, "pitch": 66, "duration": 20, "velocity": 93}, {"time": 283, "pitch": 54, "duration": 12, "velocity": 74}, {"time": 289, "pitch": 57, "duration": 4, "velocity": 85}, {"time": 295, "pitch": 57, "duration": 3, "velocity": 95}, {"time": 295, "pitch": 62, "duration": 7, "velocity": 99}, {"time": 295, "pitch": 66, "duration": 10, "velocity": 94}, {"time": 301, "pitch": 57, "duration": 2, "velocity": 82}, {"time": 307, "pitch": 40, "duration": 37, "velocity": 95}, {"time": 307, "pitch": 59, "duration": 7, "velocity": 81}, {"time": 307, "pitch": 64, "duration": 8, "velocity": 89}, {"time": 313, "pitch": 47, "duration": 14, "velocity": 75}, {"time": 319, "pitch": 59, "duration": 2, "velocity": 87}, {"time": 319, "pitch": 64, "duration": 2, "velocity": 92}, {"time": 319, "pitch": 68, "duration": 2, "velocity": 81}, {"time": 325, "pitch": 59, "duration": 7, "velocity": 95}, {"time": 325, "pitch": 64, "duration": 8, "velocity": 100}, {"time": 325, "pitch": 68, "duration": 13, "velocity": 97}, {"time": 331, "pitch": 47, "duration": 12, "velocity": 87}, {"time": 337, "pitch": 59, "duration": 3, "velocity": 88}, {"time": 343, "pitch": 59, "duration": 3, "velocity": 93}, {"time": 343, "pitch": 64, "duration": 4, "velocity": 88}, {"time": 355, "pitch": 45, "duration": 37, "velocity": 94}, {"time": 355, "pitch": 57, "duration": 7, "velocity": 93}, {"time": 355, "pitch": 61, "duration": 9, "velocity": 89}, {"time": 355, "pitch": 64, "duration": 9, "velocity": 94}, {"time": 361, "pitch": 52, "duration": 14, "velocity": 83}, {"time": 367, "pitch": 57, "duration": 3, "velocity": 94}, {"time": 373, "pitch": 57, "duration": 7, "velocity": 94}, {"time": 373, "pitch": 61, "duration": 8, "velocity": 99}, {"time": 373, "pitch": 64, "duration": 13, "velocity": 95}, {"time": 379, "pitch": 52, "duration": 13, "velocity": 85}, {"time": 385, "pitch": 57, "duration": 3, "velocity": 80}, {"time": 391, "pitch": 57, "duration": 3, "velocity": 94}, {"time": 391, "pitch": 61, "duration": 5, "velocity": 96}, {"time": 391, "pitch": 64, "duration": 10, "velocity": 98}, {"time": 403, "pitch": 49, "duration": 30, "velocity": 89}, {"time": 403, "pitch": 56, "duration": 3, "velocity": 93}, {"time": 403, "pitch": 61, "duration": 7, "velocity": 94}, {"time": 403, "pitch": 64, "duration": 11, "velocity": 96}, {"time": 409, "pitch": 56, "duration": 9, "velocity": 79}, {"time": 415, "pitch": 61, "duration": 3, "velocity": 80}, {"time": 421, "pitch": 56, "duration": 11, "velocity": 91}, {"time": 421, "pitch": 61, "duration": 8, "velocity": 93}, {"time": 421, "pitch": 64, "duration": 9, "velocity": 99}, {"time": 439, "pitch": 56, "duration": 2, "velocity": 93}, {"time": 439, "pitch": 61, "duration": 7, "velocity": 95}, {"time": 439, "pitch": 64, "duration": 11, "velocity": 98}, {"time": 445, "pitch": 56, "duration": 2, "velocity": 82}, {"time": 451, "pitch": 47, "duration": 37, "velocity": 95}, {"time": 451, "pitch": 57, "duration": 8, "velocity": 87}, {"time": 451, "pitch": 62, "duration": 15, "velocity": 83}, {"time": 457, "pitch": 54, "duration": 15, "velocity": 80}, {"time": 463, "pitch": 57, "duration": 4, "velocity": 85}, {"time": 469, "pitch": 57, "duration": 14, "velocity": 95}, {"time": 469, "pitch": 62, "duration": 14, "velocity": 95}, {"time": 481, "pitch": 54, "duration": 5, "velocity": 76}, {"time": 487, "pitch": 57, "duration": 3, "velocity": 92}, {"time": 487, "pitch": 62, "duration": 9, "velocity": 95}, {"time": 493, "pitch": 57, "duration": 3, "velocity": 86}, {"time": 499, "pitch": 40, "duration": 38, "velocity": 96}, {"time": 499, "pitch": 59, "duration": 5, "velocity": 89}, {"time": 499, "pitch": 64, "duration": 5, "velocity": 93}, {"time": 505, "pitch": 47, "duration": 21, "velocity": 76}, {"time": 511, "pitch": 52, "duration": 4, "velocity": 89}, {"time": 517, "pitch": 52, "duration": 14, "velocity": 89}, {"time": 517, "pitch": 56, "duration": 13, "velocity": 82}, {"time": 517, "pitch": 59, "duration": 15, "velocity": 90}, {"time": 529, "pitch": 47, "duration": 6, "velocity": 78}, {"time": 535, "pitch": 52, "duration": 3, "velocity": 93}, {"time": 535, "pitch": 56, "duration": 12, "velocity": 94}, {"time": 535, "pitch": 59, "duration": 13, "velocity": 94}, {"time": 535, "pitch": 64, "duration": 18, "velocity": 94}, {"time": 541, "pitch": 52, "duration": 6, "velocity": 91}, {"time": 547, "pitch": 45, "duration": 43, "velocity": 95}, {"time": 553, "pitch": 52, "duration": 14, "velocity": 79}, {"time": 559, "pitch": 57, "duration": 5, "velocity": 86}, {"time": 565, "pitch": 59, "duration": 5, "velocity": 94}, {"time": 571, "pitch": 52, "duration": 20, "velocity": 74}, {"time": 577, "pitch": 57, "duration": 2, "velocity": 82}, {"time": 583, "pitch": 57, "duration": 3, "velocity": 89}, {"time": 583, "pitch": 64, "duration": 10, "velocity": 97}, {"time": 589, "pitch": 57, "duration": 7, "velocity": 82}, {"time": 595, "pitch": 49, "duration": 34, "velocity": 87}, {"time": 595, "pitch": 61, "duration": 14, "velocity": 80}, {"time": 595, "pitch": 64, "duration": 14, "velocity": 95}, {"time": 607, "pitch": 56, "duration": 5, "velocity": 75}, {"time": 613, "pitch": 56, "duration": 6, "velocity": 89}, {"time": 613, "pitch": 61, "duration": 14, "velocity": 93}, {"time": 625, "pitch": 56, "duration": 4, "velocity": 73}, {"time": 631, "pitch": 56, "duration": 3, "velocity": 94}, {"time": 631, "pitch": 61, "duration": 4, "velocity": 93}, {"time": 631, "pitch": 64, "duration": 7, "velocity": 97}, {"time": 643, "pitch": 47, "duration": 38, "velocity": 93}, {"time": 643, "pitch": 57, "duration": 7, "velocity": 88}, {"time": 643, "pitch": 62, "duration": 8, "velocity": 90}, {"time": 649, "pitch": 54, "duration": 19, "velocity": 79}, {"time": 655, "pitch": 57, "duration": 4, "velocity": 83}, {"time": 661, "pitch": 57, "duration": 14, "velocity": 94}, {"time": 661, "pitch": 62, "duration": 15, "velocity": 95}, {"time": 673, "pitch": 54, "duration": 5, "velocity": 73}, {"time": 679, "pitch": 57, "duration": 8, "velocity": 89}, {"time": 685, "pitch": 62, "duration": 6, "velocity": 95}, {"time": 691, "pitch": 40, "duration": 39, "velocity": 95}, {"time": 691, "pitch": 64, "duration": 13, "velocity": 94}, {"time": 697, "pitch": 47, "duration": 18, "velocity": 76}, {"time": 703, "pitch": 52, "duration": 5, "velocity": 90}, {"time": 709, "pitch": 52, "duration": 1, "velocity": 73}, {"time": 709, "pitch": 56, "duration": 14, "velocity": 93}, {"time": 709, "pitch": 59, "duration": 14, "velocity": 93}, {"time": 709, "pitch": 64, "duration": 12, "velocity": 94}, {"time": 721, "pitch": 47, "duration": 7, "velocity": 81}, {"time": 727, "pitch": 56, "duration": 5, "velocity": 86}, {"time": 727, "pitch": 59, "duration": 5, "velocity": 88}, {"time": 727, "pitch": 62, "duration": 12, "velocity": 90}, {"time": 739, "pitch": 45, "duration": 41, "velocity": 94}, {"time": 739, "pitch": 57, "duration": 8, "velocity": 79}, {"time": 739, "pitch": 61, "duration": 13, "velocity": 81}, {"time": 745, "pitch": 52, "duration": 15, "velocity": 84}, {"time": 751, "pitch": 57, "duration": 3, "velocity": 85}, {"time": 757, "pitch": 57, "duration": 14, "velocity": 92}, {"time": 757, "pitch": 61, "duration": 15, "velocity": 91}, {"time": 769, "pitch": 52, "duration": 11, "velocity": 85}, {"time": 775, "pitch": 57, "duration": 4, "velocity": 94}, {"time": 775, "pitch": 61, "duration": 6, "velocity": 94}, {"time": 781, "pitch": 59, "duration": 7, "velocity": 95}, {"time": 787, "pitch": 49, "duration": 37, "velocity": 88}, {"time": 787, "pitch": 61, "duration": 7, "velocity": 95}, {"time": 799, "pitch": 56, "duration": 4, "velocity": 82}, {"time": 805, "pitch": 56, "duration": 4, "velocity": 89}, {"time": 805, "pitch": 61, "duration": 13, "velocity": 90}, {"time": 805, "pitch": 64, "duration": 12, "velocity": 95}, {"time": 817, "pitch": 56, "duration": 3, "velocity": 68}, {"time": 823, "pitch": 56, "duration": 3, "velocity": 93}, {"time": 823, "pitch": 61, "duration": 4, "velocity": 90}, {"time": 823, "pitch": 64, "duration": 9, "velocity": 95}, {"time": 835, "pitch": 47, "duration": 39, "velocity": 94}, {"time": 835, "pitch": 59, "duration": 7, "velocity": 89}, {"time": 835, "pitch": 62, "duration": 10, "velocity": 93}, {"time": 841, "pitch": 54, "duration": 15, "velocity": 80}, {"time": 847, "pitch": 57, "duration": 4, "velocity": 93}, {"time": 853, "pitch": 57, "duration": 12, "velocity": 93}, {"time": 853, "pitch": 62, "duration": 14, "velocity": 97}, {"time": 865, "pitch": 54, "duration": 6, "velocity": 76}, {"time": 871, "pitch": 57, "duration": 1, "velocity": 85}, {"time": 871, "pitch": 59, "duration": 3, "velocity": 89}, {"time": 871, "pitch": 62, "duration": 9, "velocity": 96}, {"time": 871, "pitch": 66, "duration": 8, "velocity": 95}, {"time": 877, "pitch": 59, "duration": 4, "velocity": 85}, {"time": 883, "pitch": 40, "duration": 42, "velocity": 95}, {"time": 883, "pitch": 59, "duration": 4, "velocity": 91}, {"time": 883, "pitch": 64, "duration": 4, "velocity": 94}, {"time": 889, "pitch": 47, "duration": 15, "velocity": 77}, {"time": 895, "pitch": 52, "duration": 3, "velocity": 84}, {"time": 901, "pitch": 52, "duration": 7, "velocity": 96}, {"time": 901, "pitch": 56, "duration": 8, "velocity": 94}, {"time": 901, "pitch": 59, "duration": 9, "velocity": 94}, {"time": 907, "pitch": 47, "duration": 18, "velocity": 82}, {"time": 913, "pitch": 52, "duration": 7, "velocity": 95}, {"time": 913, "pitch": 59, "duration": 2, "velocity": 47}, {"time": 919, "pitch": 56, "duration": 11, "velocity": 97}, {"time": 919, "pitch": 59, "duration": 11, "velocity": 98}, {"time": 919, "pitch": 64, "duration": 11, "velocity": 95}, {"time": 925, "pitch": 52, "duration": 5, "velocity": 96}, {"time": 931, "pitch": 45, "duration": 38, "velocity": 96}, {"time": 931, "pitch": 57, "duration": 8, "velocity": 93}, {"time": 931, "pitch": 61, "duration": 8, "velocity": 95}, {"time": 937, "pitch": 52, "duration": 9, "velocity": 92}, {"time": 943, "pitch": 57, "duration": 13, "velocity": 94}, {"time": 943, "pitch": 61, "duration": 13, "velocity": 102}, {"time": 943, "pitch": 64, "duration": 15, "velocity": 100}, {"time": 955, "pitch": 52, "duration": 15, "velocity": 93}, {"time": 961, "pitch": 57, "duration": 3, "velocity": 88}, {"time": 967, "pitch": 57, "duration": 3, "velocity": 97}, {"time": 967, "pitch": 61, "duration": 6, "velocity": 104}, {"time": 967, "pitch": 64, "duration": 6, "velocity": 98}, {"time": 979, "pitch": 49, "duration": 39, "velocity": 95}, {"time": 979, "pitch": 56, "duration": 3, "velocity": 90}, {"time": 979, "pitch": 61, "duration": 8, "velocity": 89}, {"time": 985, "pitch": 56, "duration": 4, "velocity": 87}, {"time": 991, "pitch": 56, "duration": 4, "velocity": 89}, {"time": 991, "pitch": 61, "duration": 9, "velocity": 94}, {"time": 991, "pitch": 64, "duration": 9, "velocity": 95}, {"time": 1003, "pitch": 56, "duration": 2, "velocity": 80}, {"time": 1003, "pitch": 61, "duration": 9, "velocity": 85}, {"time": 1009, "pitch": 56, "duration": 3, "velocity": 79}, {"time": 1015, "pitch": 56, "duration": 2, "velocity": 98}, {"time": 1015, "pitch": 61, "duration": 8, "velocity": 99}, {"time": 1015, "pitch": 64, "duration": 11, "velocity": 98}, {"time": 1021, "pitch": 56, "duration": 2, "velocity": 85}, {"time": 1027, "pitch": 47, "duration": 35, "velocity": 94}, {"time": 1027, "pitch": 59, "duration": 8, "velocity": 86}, {"time": 1027, "pitch": 62, "duration": 9, "velocity": 89}, {"time": 1039, "pitch": 59, "duration": 4, "velocity": 93}, {"time": 1039, "pitch": 62, "duration": 13, "velocity": 95}, {"time": 1039, "pitch": 66, "duration": 19, "velocity": 93}, {"time": 1045, "pitch": 59, "duration": 7, "velocity": 87}, {"time": 1051, "pitch": 54, "duration": 12, "velocity": 80}, {"time": 1057, "pitch": 59, "duration": 3, "velocity": 87}, {"time": 1063, "pitch": 59, "duration": 3, "velocity": 94}, {"time": 1063, "pitch": 62, "duration": 5, "velocity": 97}, {"time": 1063, "pitch": 66, "duration": 5, "velocity": 97}, {"time": 1075, "pitch": 40, "duration": 38, "velocity": 95}, {"time": 1075, "pitch": 52, "duration": 7, "velocity": 89}, {"time": 1075, "pitch": 56, "duration": 7, "velocity": 86}, {"time": 1075, "pitch": 59, "duration": 7, "velocity": 89}, {"time": 1081, "pitch": 47, "duration": 9, "velocity": 81}, {"time": 1087, "pitch": 52, "duration": 3, "velocity": 96}, {"time": 1087, "pitch": 56, "duration": 8, "velocity": 99}, {"time": 1087, "pitch": 59, "duration": 8, "velocity": 97}, {"time": 1087, "pitch": 64, "duration": 6, "velocity": 97}, {"time": 1093, "pitch": 52, "duration": 4, "velocity": 86}, {"time": 1099, "pitch": 59, "duration": 8, "velocity": 95}, {"time": 1105, "pitch": 52, "duration": 7, "velocity": 97}, {"time": 1111, "pitch": 56, "duration": 5, "velocity": 95}, {"time": 1111, "pitch": 59, "duration": 6, "velocity": 95}, {"time": 1111, "pitch": 64, "duration": 10, "velocity": 97}, {"time": 1117, "pitch": 52, "duration": 2, "velocity": 102}, {"time": 1123, "pitch": 45, "duration": 41, "velocity": 95}, {"time": 1123, "pitch": 61, "duration": 7, "velocity": 93}, {"time": 1129, "pitch": 57, "duration": 3, "velocity": 93}, {"time": 1135, "pitch": 57, "duration": 4, "velocity": 98}, {"time": 1135, "pitch": 61, "duration": 5, "velocity": 99}, {"time": 1135, "pitch": 64, "duration": 7, "velocity": 96}, {"time": 1138, "pitch": 52, "duration": 12, "velocity": 86}, {"time": 1147, "pitch": 57, "duration": 7, "velocity": 93}, {"time": 1150, "pitch": 61, "duration": 3, "velocity": 81}, {"time": 1159, "pitch": 57, "duration": 2, "velocity": 95}, {"time": 1159, "pitch": 61, "duration": 11, "velocity": 104}, {"time": 1159, "pitch": 64, "duration": 6, "velocity": 99}, {"time": 1159, "pitch": 69, "duration": 5, "velocity": 93}, {"time": 1165, "pitch": 57, "duration": 1, "velocity": 83}, {"time": 1171, "pitch": 49, "duration": 39, "velocity": 89}, {"time": 1171, "pitch": 56, "duration": 3, "velocity": 93}, {"time": 1171, "pitch": 61, "duration": 7, "velocity": 88}, {"time": 1177, "pitch": 56, "duration": 5, "velocity": 84}, {"time": 1183, "pitch": 56, "duration": 1, "velocity": 68}, {"time": 1183, "pitch": 61, "duration": 7, "velocity": 91}, {"time": 1183, "pitch": 64, "duration": 7, "velocity": 95}, {"time": 1189, "pitch": 56, "duration": 4, "velocity": 91}, {"time": 1195, "pitch": 56, "duration": 2, "velocity": 89}, {"time": 1195, "pitch": 61, "duration": 8, "velocity": 90}, {"time": 1201, "pitch": 56, "duration": 3, "velocity": 80}, {"time": 1207, "pitch": 56, "duration": 4, "velocity": 94}, {"time": 1207, "pitch": 61, "duration": 6, "velocity": 98}, {"time": 1207, "pitch": 64, "duration": 10, "velocity": 96}, {"time": 1219, "pitch": 47, "duration": 37, "velocity": 95}, {"time": 1219, "pitch": 59, "duration": 3, "velocity": 88}, {"time": 1219, "pitch": 62, "duration": 4, "velocity": 92}, {"time": 1225, "pitch": 59, "duration": 3, "velocity": 91}, {"time": 1231, "pitch": 59, "duration": 3, "velocity": 96}, {"time": 1231, "pitch": 66, "duration": 11, "velocity": 93}, {"time": 1237, "pitch": 59, "duration": 3, "velocity": 88}, {"time": 1243, "pitch": 59, "duration": 2, "velocity": 94}, {"time": 1243, "pitch": 62, "duration": 8, "velocity": 93}, {"time": 1249, "pitch": 59, "duration": 3, "velocity": 89}, {"time": 1255, "pitch": 54, "duration": 3, "velocity": 85}, {"time": 1255, "pitch": 59, "duration": 2, "velocity": 95}, {"time": 1255, "pitch": 62, "duration": 9, "velocity": 99}, {"time": 1255, "pitch": 66, "duration": 6, "velocity": 96}, {"time": 1261, "pitch": 59, "duration": 4, "velocity": 93}, {"time": 1267, "pitch": 40, "duration": 48, "velocity": 97}, {"time": 1267, "pitch": 59, "duration": 4, "velocity": 93}, {"time": 1267, "pitch": 64, "duration": 4, "velocity": 94}, {"time": 1273, "pitch": 47, "duration": 21, "velocity": 71}, {"time": 1279, "pitch": 52, "duration": 2, "velocity": 93}, {"time": 1279, "pitch": 56, "duration": 5, "velocity": 91}, {"time": 1279, "pitch": 59, "duration": 7, "velocity": 90}, {"time": 1285, "pitch": 52, "duration": 3, "velocity": 89}, {"time": 1291, "pitch": 56, "duration": 7, "velocity": 88}, {"time": 1291, "pitch": 59, "duration": 9, "velocity": 94}, {"time": 1291, "pitch": 64, "duration": 7, "velocity": 94}, {"time": 1297, "pitch": 52, "duration": 4, "velocity": 93}, {"time": 1303, "pitch": 52, "duration": 2, "velocity": 95}, {"time": 1303, "pitch": 56, "duration": 10, "velocity": 102}, {"time": 1303, "pitch": 59, "duration": 11, "velocity": 97}, {"time": 1309, "pitch": 52, "duration": 4, "velocity": 95}, {"time": 1315, "pitch": 45, "duration": 37, "velocity": 94}, {"time": 1315, "pitch": 57, "duration": 7, "velocity": 93}, {"time": 1315, "pitch": 61, "duration": 9, "velocity": 89}, {"time": 1315, "pitch": 64, "duration": 9, "velocity": 94}, {"time": 1321, "pitch": 52, "duration": 14, "velocity": 83}, {"time": 1327, "pitch": 57, "duration": 3, "velocity": 94}, {"time": 1333, "pitch": 57, "duration": 7, "velocity": 94}, {"time": 1333, "pitch": 61, "duration": 8, "velocity": 99}, {"time": 1333, "pitch": 64, "duration": 13, "velocity": 95}, {"time": 1339, "pitch": 52, "duration": 13, "velocity": 85}, {"time": 1345, "pitch": 57, "duration": 3, "velocity": 80}, {"time": 1351, "pitch": 57, "duration": 3, "velocity": 94}, {"time": 1351, "pitch": 61, "duration": 5, "velocity": 96}, {"time": 1351, "pitch": 64, "duration": 10, "velocity": 98}, {"time": 1363, "pitch": 49, "duration": 30, "velocity": 89}, {"time": 1363, "pitch": 56, "duration": 3, "velocity": 93}, {"time": 1363, "pitch": 61, "duration": 7, "velocity": 94}, {"time": 1363, "pitch": 64, "duration": 11, "velocity": 96}, {"time": 1369, "pitch": 56, "duration": 9, "velocity": 79}, {"time": 1375, "pitch": 61, "duration": 3, "velocity": 80}, {"time": 1381, "pitch": 56, "duration": 11, "velocity": 91}, {"time": 1381, "pitch": 61, "duration": 8, "velocity": 93}, {"time": 1381, "pitch": 64, "duration": 9, "velocity": 99}, {"time": 1399, "pitch": 56, "duration": 2, "velocity": 93}, {"time": 1399, "pitch": 61, "duration": 7, "velocity": 95}, {"time": 1399, "pitch": 64, "duration": 11, "velocity": 98}, {"time": 1405, "pitch": 56, "duration": 2, "velocity": 82}, {"time": 1411, "pitch": 47, "duration": 37, "velocity": 95}, {"time": 1411, "pitch": 57, "duration": 8, "velocity": 87}, {"time": 1411, "pitch": 62, "duration": 15, "velocity": 83}, {"time": 1417, "pitch": 54, "duration": 15, "velocity": 80}, {"time": 1423, "pitch": 57, "duration": 4, "velocity": 85}, {"time": 1429, "pitch": 57, "duration": 14, "velocity": 95}, {"time": 1429, "pitch": 62, "duration": 14, "velocity": 95}, {"time": 1441, "pitch": 54, "duration": 5, "velocity": 76}, {"time": 1447, "pitch": 57, "duration": 3, "velocity": 92}, {"time": 1447, "pitch": 62, "duration": 9, "velocity": 95}, {"time": 1453, "pitch": 57, "duration": 3, "velocity": 86}, {"time": 1459, "pitch": 40, "duration": 38, "velocity": 96}, {"time": 1459, "pitch": 59, "duration": 5, "velocity": 89}, {"time": 1459, "pitch": 64, "duration": 5, "velocity": 93}, {"time": 1465, "pitch": 47, "duration": 21, "velocity": 76}, {"time": 1471, "pitch": 52, "duration": 4, "velocity": 89}, {"time": 1477, "pitch": 52, "duration": 14, "velocity": 89}, {"time": 1477, "pitch": 56, "duration": 13, "velocity": 82}, {"time": 1477, "pitch": 59, "duration": 15, "velocity": 90}, {"time": 1489, "pitch": 47, "duration": 6, "velocity": 78}, {"time": 1495, "pitch": 52, "duration": 3, "velocity": 93}, {"time": 1495, "pitch": 56, "duration": 12, "velocity": 94}, {"time": 1495, "pitch": 59, "duration": 13, "velocity": 94}, {"time": 1495, "pitch": 64, "duration": 18, "velocity": 94}, {"time": 1501, "pitch": 52, "duration": 6, "velocity": 91}, {"time": 1507, "pitch": 45, "duration": 43, "velocity": 95}, {"time": 1513, "pitch": 52, "duration": 14, "velocity": 79}, {"time": 1519, "pitch": 57, "duration": 5, "velocity": 86}, {"time": 1525, "pitch": 59, "duration": 5, "velocity": 94}, {"time": 1531, "pitch": 52, "duration": 20, "velocity": 74}, {"time": 1537, "pitch": 57, "duration": 2, "velocity": 82}, {"time": 1543, "pitch": 57, "duration": 3, "velocity": 89}, {"time": 1543, "pitch": 64, "duration": 10, "velocity": 97}, {"time": 1549, "pitch": 57, "duration": 7, "velocity": 82}, {"time": 1555, "pitch": 49, "duration": 34, "velocity": 87}, {"time": 1555, "pitch": 61, "duration": 14, "velocity": 80}, {"time": 1555, "pitch": 64, "duration": 14, "velocity": 95}, {"time": 1567, "pitch": 56, "duration": 5, "velocity": 75}, {"time": 1573, "pitch": 56, "duration": 6, "velocity": 89}, {"time": 1573, "pitch": 61, "duration": 14, "velocity": 93}, {"time": 1585, "pitch": 56, "duration": 4, "velocity": 73}, {"time": 1591, "pitch": 56, "duration": 3, "velocity": 94}, {"time": 1591, "pitch": 61, "duration": 4, "velocity": 93}, {"time": 1591, "pitch": 64, "duration": 7, "velocity": 97}, {"time": 1603, "pitch": 47, "duration": 38, "velocity": 93}, {"time": 1603, "pitch": 57, "duration": 7, "velocity": 88}, {"time": 1603, "pitch": 62, "duration": 8, "velocity": 90}, {"time": 1609, "pitch": 54, "duration": 19, "velocity": 79}, {"time": 1615, "pitch": 57, "duration": 4, "velocity": 83}, {"time": 1621, "pitch": 57, "duration": 14, "velocity": 94}, {"time": 1621, "pitch": 62, "duration": 15, "velocity": 95}, {"time": 1633, "pitch": 54, "duration": 5, "velocity": 73}, {"time": 1639, "pitch": 57, "duration": 8, "velocity": 89}, {"time": 1645, "pitch": 62, "duration": 6, "velocity": 95}, {"time": 1651, "pitch": 40, "duration": 39, "velocity": 95}, {"time": 1651, "pitch": 64, "duration": 13, "velocity": 94}, {"time": 1657, "pitch": 47, "duration": 18, "velocity": 76}, {"time": 1663, "pitch": 52, "duration": 5, "velocity": 90}, {"time": 1669, "pitch": 52, "duration": 1, "velocity": 73}, {"time": 1669, "pitch": 56, "duration": 14, "velocity": 93}, {"time": 1669, "pitch": 59, "duration": 14, "velocity": 93}, {"time": 1669, "pitch": 64, "duration": 12, "velocity": 94}, {"time": 1681, "pitch": 47, "duration": 7, "velocity": 81}, {"time": 1687, "pitch": 56, "duration": 5, "velocity": 86}, {"time": 1687, "pitch": 59, "duration": 5, "velocity": 88}, {"time": 1687, "pitch": 62, "duration": 12, "velocity": 90}, {"time": 1699, "pitch": 45, "duration": 41, "velocity": 94}, {"time": 1699, "pitch": 57, "duration": 8, "velocity": 79}, {"time": 1699, "pitch": 61, "duration": 13, "velocity": 81}, {"time": 1705, "pitch": 52, "duration": 15, "velocity": 84}, {"time": 1711, "pitch": 57, "duration": 3, "velocity": 85}, {"time": 1717, "pitch": 57, "duration": 14, "velocity": 92}, {"time": 1717, "pitch": 61, "duration": 15, "velocity": 91}, {"time": 1729, "pitch": 52, "duration": 11, "velocity": 85}, {"time": 1735, "pitch": 57, "duration": 4, "velocity": 94}, {"time": 1735, "pitch": 61, "duration": 6, "velocity": 94}, {"time": 1741, "pitch": 59, "duration": 7, "velocity": 95}, {"time": 1747, "pitch": 49, "duration": 37, "velocity": 88}, {"time": 1747, "pitch": 61, "duration": 7, "velocity": 95}, {"time": 1759, "pitch": 56, "duration": 4, "velocity": 82}, {"time": 1765, "pitch": 56, "duration": 4, "velocity": 89}, {"time": 1765, "pitch": 61, "duration": 13, "velocity": 90}, {"time": 1765, "pitch": 64, "duration": 12, "velocity": 95}, {"time": 1777, "pitch": 56, "duration": 3, "velocity": 68}, {"time": 1783, "pitch": 56, "duration": 3, "velocity": 93}, {"time": 1783, "pitch": 61, "duration": 4, "velocity": 90}, {"time": 1783, "pitch": 64, "duration": 9, "velocity": 95}, {"time": 1795, "pitch": 47, "duration": 39, "velocity": 94}, {"time": 1795, "pitch": 59, "duration": 7, "velocity": 89}, {"time": 1795, "pitch": 62, "duration": 10, "velocity": 93}, {"time": 1801, "pitch": 54, "duration": 15, "velocity": 80}, {"time": 1807, "pitch": 57, "duration": 4, "velocity": 93}, {"time": 1813, "pitch": 57, "duration": 12, "velocity": 93}, {"time": 1813, "pitch": 62, "duration": 14, "velocity": 97}, {"time": 1825, "pitch": 54, "duration": 6, "velocity": 76}, {"time": 1831, "pitch": 57, "duration": 1, "velocity": 85}, {"time": 1831, "pitch": 59, "duration": 3, "velocity": 89}, {"time": 1831, "pitch": 62, "duration": 9, "velocity": 96}, {"time": 1831, "pitch": 66, "duration": 8, "velocity": 95}, {"time": 1837, "pitch": 59, "duration": 4, "velocity": 85}, {"time": 1843, "pitch": 40, "duration": 42, "velocity": 95}, {"time": 1843, "pitch": 59, "duration": 4, "velocity": 91}, {"time": 1843, "pitch": 64, "duration": 4, "velocity": 94}, {"time": 1849, "pitch": 47, "duration": 15, "velocity": 77}, {"time": 1855, "pitch": 52, "duration": 3, "velocity": 84}, {"time": 1861, "pitch": 52, "duration": 7, "velocity": 96}, {"time": 1861, "pitch": 56, "duration": 8, "velocity": 94}, {"time": 1861, "pitch": 59, "duration": 9, "velocity": 94}, {"time": 1867, "pitch": 47, "duration": 18, "velocity": 82}, {"time": 1873, "pitch": 52, "duration": 7, "velocity": 95}, {"time": 1873, "pitch": 59, "duration": 2, "velocity": 47}, {"time": 1879, "pitch": 56, "duration": 11, "velocity": 97}, {"time": 1879, "pitch": 59, "duration": 11, "velocity": 98}, {"time": 1879, "pitch": 64, "duration": 11, "velocity": 95}, {"time": 1885, "pitch": 52, "duration": 5, "velocity": 96}, {"time": 1891, "pitch": 45, "duration": 38, "velocity": 96}, {"time": 1891, "pitch": 57, "duration": 8, "velocity": 93}, {"time": 1891, "pitch": 61, "duration": 8, "velocity": 95}, {"time": 1897, "pitch": 52, "duration": 9, "velocity": 92}, {"time": 1903, "pitch": 57, "duration": 13, "velocity": 94}, {"time": 1903, "pitch": 61, "duration": 13, "velocity": 102}, {"time": 1903, "pitch": 64, "duration": 15, "velocity": 100}, {"time": 1915, "pitch": 52, "duration": 15, "velocity": 93}, {"time": 1921, "pitch": 57, "duration": 3, "velocity": 88}, {"time": 1927, "pitch": 57, "duration": 3, "velocity": 97}, {"time": 1927, "pitch": 61, "duration": 6, "velocity": 104}, {"time": 1927, "pitch": 64, "duration": 6, "velocity": 98}, {"time": 1939, "pitch": 49, "duration": 39, "velocity": 95}, {"time": 1939, "pitch": 56, "duration": 3, "velocity": 90}, {"time": 1939, "pitch": 61, "duration": 8, "velocity": 89}, {"time": 1945, "pitch": 56, "duration": 4, "velocity": 87}, {"time": 1951, "pitch": 56, "duration": 4, "velocity": 89}, {"time": 1951, "pitch": 61, "duration": 9, "velocity": 94}, {"time": 1951, "pitch": 64, "duration": 9, "velocity": 95}, {"time": 1963, "pitch": 56, "duration": 2, "velocity": 80}, {"time": 1963, "pitch": 61, "duration": 9, "velocity": 85}, {"time": 1969, "pitch": 56, "duration": 3, "velocity": 79}, {"time": 1975, "pitch": 56, "duration": 2, "velocity": 98}, {"time": 1975, "pitch": 61, "duration": 8, "velocity": 99}, {"time": 1975, "pitch": 64, "duration": 11, "velocity": 98}, {"time": 1981, "pitch": 56, "duration": 2, "velocity": 85}, {"time": 1987, "pitch": 47, "duration": 35, "velocity": 94}, {"time": 1987, "pitch": 59, "duration": 8, "velocity": 86}, {"time": 1987, "pitch": 62, "duration": 9, "velocity": 89}, {"time": 1999, "pitch": 59, "duration": 4, "velocity": 93}, {"time": 1999, "pitch": 62, "duration": 13, "velocity": 95}, {"time": 1999, "pitch": 66, "duration": 19, "velocity": 93}, {"time": 2005, "pitch": 59, "duration": 7, "velocity": 87}, {"time": 2011, "pitch": 54, "duration": 12, "velocity": 80}, {"time": 2017, "pitch": 59, "duration": 3, "velocity": 87}, {"time": 2023, "pitch": 59, "duration": 3, "velocity": 94}, {"time": 2023, "pitch": 62, "duration": 5, "velocity": 97}, {"time": 2023, "pitch": 66, "duration": 5, "velocity": 97}, {"time": 2035, "pitch": 40, "duration": 38, "velocity": 95}, {"time": 2035, "pitch": 52, "duration": 7, "velocity": 89}, {"time": 2035, "pitch": 56, "duration": 7, "velocity": 86}, {"time": 2035, "pitch": 59, "duration": 7, "velocity": 89}, {"time": 2041, "pitch": 47, "duration": 9, "velocity": 81}, {"time": 2047, "pitch": 52, "duration": 3, "velocity": 96}, {"time": 2047, "pitch": 56, "duration": 8, "velocity": 99}, {"time": 2047, "pitch": 59, "duration": 8, "velocity": 97}, {"time": 2047, "pitch": 64, "duration": 6, "velocity": 97}, {"time": 2053, "pitch": 52, "duration": 4, "velocity": 86}, {"time": 2059, "pitch": 59, "duration": 8, "velocity": 95}, {"time": 2065, "pitch": 52, "duration": 7, "velocity": 97}, {"time": 2071, "pitch": 56, "duration": 5, "velocity": 95}, {"time": 2071, "pitch": 59, "duration": 6, "velocity": 95}, {"time": 2071, "pitch": 64, "duration": 10, "velocity": 97}, {"time": 2077, "pitch": 52, "duration": 2, "velocity": 102}, {"time": 2083, "pitch": 45, "duration": 41, "velocity": 95}, {"time": 2083, "pitch": 61, "duration": 7, "velocity": 93}, {"time": 2089, "pitch": 57, "duration": 3, "velocity": 93}, {"time": 2095, "pitch": 57, "duration": 4, "velocity": 98}, {"time": 2095, "pitch": 61, "duration": 5, "velocity": 99}, {"time": 2095, "pitch": 64, "duration": 7, "velocity": 96}, {"time": 2098, "pitch": 52, "duration": 12, "velocity": 86}, {"time": 2107, "pitch": 57, "duration": 7, "velocity": 93}, {"time": 2110, "pitch": 61, "duration": 3, "velocity": 81}, {"time": 2119, "pitch": 57, "duration": 2, "velocity": 95}, {"time": 2119, "pitch": 61, "duration": 11, "velocity": 104}, {"time": 2119, "pitch": 64, "duration": 6, "velocity": 99}, {"time": 2119, "pitch": 69, "duration": 5, "velocity": 93}, {"time": 2125, "pitch": 57, "duration": 1, "velocity": 83}, {"time": 2131, "pitch": 49, "duration": 39, "velocity": 89}, {"time": 2131, "pitch": 56, "duration": 3, "velocity": 93}, {"time": 2131, "pitch": 61, "duration": 7, "velocity": 88}, {"time": 2137, "pitch": 56, "duration": 5, "velocity": 84}, {"time": 2143, "pitch": 56, "duration": 1, "velocity": 68}, {"time": 2143, "pitch": 61, "duration": 7, "velocity": 91}, {"time": 2143, "pitch": 64, "duration": 7, "velocity": 95}, {"time": 2149, "pitch": 56, "duration": 4, "velocity": 91}, {"time": 2155, "pitch": 56, "duration": 2, "velocity": 89}, {"time": 2155, "pitch": 61, "duration": 8, "velocity": 90}, {"time": 2161, "pitch": 56, "duration": 3, "velocity": 80}, {"time": 2167, "pitch": 56, "duration": 4, "velocity": 94}, {"time": 2167, "pitch": 61, "duration": 6, "velocity": 98}, {"time": 2167, "pitch": 64, "duration": 10, "velocity": 96}, {"time": 2179, "pitch": 47, "duration": 37, "velocity": 95}, {"time": 2179, "pitch": 59, "duration": 3, "velocity": 88}, {"time": 2179, "pitch": 62, "duration": 4, "velocity": 92}, {"time": 2185, "pitch": 59, "duration": 3, "velocity": 91}, {"time": 2191, "pitch": 59, "duration": 3, "velocity": 96}, {"time": 2191, "pitch": 66, "duration": 11, "velocity": 93}, {"time": 2197, "pitch": 59, "duration": 3, "velocity": 88}, {"time": 2203, "pitch": 59, "duration": 2, "velocity": 94}, {"time": 2203, "pitch": 62, "duration": 8, "velocity": 93}, {"time": 2209, "pitch": 59, "duration": 3, "velocity": 89}, {"time": 2215, "pitch": 54, "duration": 3, "velocity": 85}, {"time": 2215, "pitch": 59, "duration": 2, "velocity": 95}, {"time": 2215, "pitch": 62, "duration": 9, "velocity": 99}, {"time": 2215, "pitch": 66, "duration": 6, "velocity": 96}, {"time": 2221, "pitch": 59, "duration": 4, "velocity": 93}, {"time": 2227, "pitch": 40, "duration": 48, "velocity": 97}, {"time": 2227, "pitch": 59, "duration": 4, "velocity": 93}, {"time": 2227, "pitch": 64, "duration": 4, "velocity": 94}, {"time": 2233, "pitch": 47, "duration": 21, "velocity": 71}, {"time": 2239, "pitch": 52, "duration": 2, "velocity": 93}, {"time": 2239, "pitch": 56, "duration": 5, "velocity": 91}, {"time": 2239, "pitch": 59, "duration": 7, "velocity": 90}, {"time": 2245, "pitch": 52, "duration": 3, "velocity": 89}, {"time": 2251, "pitch": 56, "duration": 7, "velocity": 88}, {"time": 2251, "pitch": 59, "duration": 9, "velocity": 94}, {"time": 2251, "pitch": 64, "duration": 7, "velocity": 94}, {"time": 2257, "pitch": 52, "duration": 4, "velocity": 93}, {"time": 2263, "pitch": 52, "duration": 2, "velocity": 95}, {"time": 2263, "pitch": 56, "duration": 10, "velocity": 102}, {"time": 2263, "pitch": 59, "duration": 11, "velocity": 97}, {"time": 2269, "pitch": 52, "duration": 4, "velocity": 95}, {"time": 2275, "pitch": 45, "duration": 37, "velocity": 94}, {"time": 2275, "pitch": 57, "duration": 7, "velocity": 93}, {"time": 2275, "pitch": 61, "duration": 9, "velocity": 89}, {"time": 2275, "pitch": 64, "duration": 9, "velocity": 94}, {"time": 2281, "pitch": 52, "duration": 14, "velocity": 83}, {"time": 2287, "pitch": 57, "duration": 3, "velocity": 94}, {"time": 2293, "pitch": 57, "duration": 7, "velocity": 94}, {"time": 2293, "pitch": 61, "duration": 8, "velocity": 99}, {"time": 2293, "pitch": 64, "duration": 13, "velocity": 95}, {"time": 2299, "pitch": 52, "duration": 13, "velocity": 85}, {"time": 2305, "pitch": 57, "duration": 3, "velocity": 80}, {"time": 2311, "pitch": 57, "duration": 3, "velocity": 94}, {"time": 2311, "pitch": 61, "duration": 5, "velocity": 96}, {"time": 2311, "pitch": 64, "duration": 10, "velocity": 98}, {"time": 2323, "pitch": 49, "duration": 30, "velocity": 89}, {"time": 2323, "pitch": 56, "duration": 3, "velocity": 93}, {"time": 2323, "pitch": 61, "duration": 7, "velocity": 94}, {"time": 2323, "pitch": 64, "duration": 11, "velocity": 96}, {"time": 2329, "pitch": 56, "duration": 9, "velocity": 79}, {"time": 2335, "pitch": 61, "duration": 3, "velocity": 80}, {"time": 2341, "pitch": 56, "duration": 11, "velocity": 91}, {"time": 2341, "pitch": 61, "duration": 8, "velocity": 93}, {"time": 2341, "pitch": 64, "duration": 9, "velocity": 99}, {"time": 2359, "pitch": 56, "duration": 2, "velocity": 93}, {"time": 2359, "pitch": 61, "duration": 7, "velocity": 95}, {"time": 2359, "pitch": 64, "duration": 11, "velocity": 98}, {"time": 2365, "pitch": 56, "duration": 2, "velocity": 82}, {"time": 2371, "pitch": 47, "duration": 37, "velocity": 95}, {"time": 2371, "pitch": 57, "duration": 8, "velocity": 87}, {"time": 2371, "pitch": 62, "duration": 15, "velocity": 83}, {"time": 2377, "pitch": 54, "duration": 15, "velocity": 80}, {"time": 2383, "pitch": 57, "duration": 4, "velocity": 85}, {"time": 2389, "pitch": 57, "duration": 14, "velocity": 95}, {"time": 2389, "pitch": 62, "duration": 14, "velocity": 95}, {"time": 2401, "pitch": 54, "duration": 5, "velocity": 76}, {"time": 2407, "pitch": 57, "duration": 3, "velocity": 92}, {"time": 2407, "pitch": 62, "duration": 9, "velocity": 95}, {"time": 2413, "pitch": 57, "duration": 3, "velocity": 86}, {"time": 2419, "pitch": 38, "duration": 15, "velocity": 99}, {"time": 2419, "pitch": 57, "duration": 7, "velocity": 88}, {"time": 2419, "pitch": 62, "duration": 8, "velocity": 93}, {"time": 2419, "pitch": 66, "duration": 7, "velocity": 92}, {"time": 2425, "pitch": 45, "duration": 10, "velocity": 85}, {"time": 2431, "pitch": 57, "duration": 2, "velocity": 95}, {"time": 2437, "pitch": 40, "duration": 30, "velocity": 102}, {"time": 2437, "pitch": 59, "duration": 7, "velocity": 95}, {"time": 2437, "pitch": 64, "duration": 13, "velocity": 97}, {"time": 2449, "pitch": 59, "duration": 3, "velocity": 99}, {"time": 2455, "pitch": 59, "duration": 11, "velocity": 100}, {"time": 2455, "pitch": 64, "duration": 11, "velocity": 107}, {"time": 2455, "pitch": 68, "duration": 12, "velocity": 100}, {"time": 2461, "pitch": 47, "duration": 7, "velocity": 86}, {"time": 2467, "pitch": 39, "duration": 45, "velocity": 87}, {"time": 2467, "pitch": 63, "duration": 2, "velocity": 88}, {"time": 2467, "pitch": 66, "duration": 2, "velocity": 86}, {"time": 2467, "pitch": 70, "duration": 3, "velocity": 88}, {"time": 2473, "pitch": 63, "duration": 2, "velocity": 93}, {"time": 2473, "pitch": 66, "duration": 2, "velocity": 95}, {"time": 2473, "pitch": 70, "duration": 2, "velocity": 94}, {"time": 2479, "pitch": 63, "duration": 2, "velocity": 99}, {"time": 2479, "pitch": 66, "duration": 2, "velocity": 102}, {"time": 2479, "pitch": 70, "duration": 2, "velocity": 102}, {"time": 2485, "pitch": 63, "duration": 2, "velocity": 95}, {"time": 2485, "pitch": 66, "duration": 2, "velocity": 99}, {"time": 2485, "pitch": 70, "duration": 3, "velocity": 99}, {"time": 2491, "pitch": 63, "duration": 2, "velocity": 92}, {"time": 2491, "pitch": 66, "duration": 2, "velocity": 94}, {"time": 2491, "pitch": 70, "duration": 3, "velocity": 94}, {"time": 2497, "pitch": 63, "duration": 2, "velocity": 94}, {"time": 2497, "pitch": 66, "duration": 2, "velocity": 100}, {"time": 2497, "pitch": 70, "duration": 3, "velocity": 96}, {"time": 2503, "pitch": 63, "duration": 2, "velocity": 96}, {"time": 2503, "pitch": 66, "duration": 2, "velocity": 107}, {"time": 2503, "pitch": 70, "duration": 3, "velocity": 100}, {"time": 2509, "pitch": 63, "duration": 3, "velocity": 94}, {"time": 2509, "pitch": 66, "duration": 1, "velocity": 94}, {"time": 2509, "pitch": 70, "duration": 2, "velocity": 96}, {"time": 2515, "pitch": 37, "duration": 46, "velocity": 98}, {"time": 2515, "pitch": 61, "duration": 2, "velocity": 87}, {"time": 2515, "pitch": 68, "duration": 3, "velocity": 90}, {"time": 2521, "pitch": 61, "duration": 2, "velocity": 93}, {"time": 2521, "pitch": 64, "duration": 1, "velocity": 95}, {"time": 2521, "pitch": 68, "duration": 2, "velocity": 92}, {"time": 2527, "pitch": 61, "duration": 2, "velocity": 97}, {"time": 2527, "pitch": 64, "duration": 1, "velocity": 104}, {"time": 2527, "pitch": 68, "duration": 2, "velocity": 98}, {"time": 2533, "pitch": 61, "duration": 2, "velocity": 94}, {"time": 2533, "pitch": 64, "duration": 2, "velocity": 102}, {"time": 2533, "pitch": 68, "duration": 3, "velocity": 96}, {"time": 2539, "pitch": 61, "duration": 2, "velocity": 94}, {"time": 2539, "pitch": 64, "duration": 2, "velocity": 94}, {"time": 2539, "pitch": 68, "duration": 2, "velocity": 94}, {"time": 2545, "pitch": 61, "duration": 2, "velocity": 94}, {"time": 2545, "pitch": 64, "duration": 2, "velocity": 97}, {"time": 2545, "pitch": 68, "duration": 3, "velocity": 94}, {"time": 2551, "pitch": 61, "duration": 2, "velocity": 95}, {"time": 2551, "pitch": 64, "duration": 2, "velocity": 104}, {"time": 2551, "pitch": 68, "duration": 3, "velocity": 97}, {"time": 2557, "pitch": 61, "duration": 2, "velocity": 94}, {"time": 2557, "pitch": 64, "duration": 2, "velocity": 95}, {"time": 2557, "pitch": 68, "duration": 3, "velocity": 93}, {"time": 2563, "pitch": 39, "duration": 44, "velocity": 99}, {"time": 2563, "pitch": 63, "duration": 3, "velocity": 95}, {"time": 2563, "pitch": 66, "duration": 1, "velocity": 82}, {"time": 2563, "pitch": 70, "duration": 3, "velocity": 97}, {"time": 2569, "pitch": 63, "duration": 2, "velocity": 94}, {"time": 2569, "pitch": 66, "duration": 2, "velocity": 99}, {"time": 2569, "pitch": 70, "duration": 2, "velocity": 95}, {"time": 2575, "pitch": 63, "duration": 2, "velocity": 100}, {"time": 2575, "pitch": 66, "duration": 2, "velocity": 114}, {"time": 2575, "pitch": 70, "duration": 3, "velocity": 109}, {"time": 2581, "pitch": 63, "duration": 2, "velocity": 95}, {"time": 2581, "pitch": 66, "duration": 2, "velocity": 100}, {"time": 2581, "pitch": 70, "duration": 3, "velocity": 98}, {"time": 2587, "pitch": 63, "duration": 2, "velocity": 95}, {"time": 2587, "pitch": 66, "duration": 1, "velocity": 96}, {"time": 2587, "pitch": 70, "duration": 3, "velocity": 96}, {"time": 2593, "pitch": 63, "duration": 2, "velocity": 94}, {"time": 2593, "pitch": 66, "duration": 2, "velocity": 94}, {"time": 2593, "pitch": 70, "duration": 3, "velocity": 94}, {"time": 2599, "pitch": 63, "duration": 2, "velocity": 94}, {"time": 2599, "pitch": 66, "duration": 2, "velocity": 98}, {"time": 2599, "pitch": 70, "duration": 3, "velocity": 98}, {"time": 2605, "pitch": 63, "duration": 2, "velocity": 94}, {"time": 2605, "pitch": 66, "duration": 1, "velocity": 93}, {"time": 2605, "pitch": 70, "duration": 2, "velocity": 93}, {"time": 2611, "pitch": 37, "duration": 48, "velocity": 98}, {"time": 2611, "pitch": 61, "duration": 2, "velocity": 93}, {"time": 2611, "pitch": 64, "duration": 2, "velocity": 94}, {"time": 2611, "pitch": 68, "duration": 3, "velocity": 89}, {"time": 2617, "pitch": 61, "duration": 2, "velocity": 94}, {"time": 2617, "pitch": 64, "duration": 1, "velocity": 94}, {"time": 2617, "pitch": 68, "duration": 2, "velocity": 91}, {"time": 2623, "pitch": 61, "duration": 2, "velocity": 96}, {"time": 2623, "pitch": 64, "duration": 1, "velocity": 98}, {"time": 2623, "pitch": 68, "duration": 2, "velocity": 96}, {"time": 2629, "pitch": 61, "duration": 2, "velocity": 94}, {"time": 2629, "pitch": 64, "duration": 1, "velocity": 99}, {"time": 2629, "pitch": 68, "duration": 2, "velocity": 98}, {"time": 2635, "pitch": 61, "duration": 2, "velocity": 97}, {"time": 2635, "pitch": 64, "duration": 2, "velocity": 98}, {"time": 2635, "pitch": 68, "duration": 2, "velocity": 95}, {"time": 2641, "pitch": 61, "duration": 2, "velocity": 95}, {"time": 2641, "pitch": 64, "duration": 2, "velocity": 100}, {"time": 2641, "pitch": 68, "duration": 2, "velocity": 95}, {"time": 2647, "pitch": 61, "duration": 2, "velocity": 96}, {"time": 2647, "pitch": 64, "duration": 2, "velocity": 107}, {"time": 2647, "pitch": 68, "duration": 3, "velocity": 100}, {"time": 2653, "pitch": 61, "duration": 5, "velocity": 95}, {"time": 2653, "pitch": 64, "duration": 5, "velocity": 104}, {"time": 2653, "pitch": 68, "duration": 6, "velocity": 98}, {"time": 2659, "pitch": 42, "duration": 10, "velocity": 107}, {"time": 2659, "pitch": 66, "duration": 5, "velocity": 94}, {"time": 2659, "pitch": 70, "duration": 6, "velocity": 98}, {"time": 2659, "pitch": 73, "duration": 6, "velocity": 95}, {"time": 2665, "pitch": 49, "duration": 2, "velocity": 41}, {"time": 2671, "pitch": 66, "duration": 3, "velocity": 94}, {"time": 2677, "pitch": 42, "duration": 18, "velocity": 99}, {"time": 2677, "pitch": 49, "duration": 16, "velocity": 95}, {"time": 2677, "pitch": 66, "duration": 8, "velocity": 96}, {"time": 2677, "pitch": 70, "duration": 8, "velocity": 95}, {"time": 2677, "pitch": 73, "duration": 9, "velocity": 95}, {"time": 2689, "pitch": 66, "duration": 3, "velocity": 93}, {"time": 2689, "pitch": 70, "duration": 3, "velocity": 89}, {"time": 2689, "pitch": 73, "duration": 2, "velocity": 89}, {"time": 2689, "pitch": 78, "duration": 4, "velocity": 90}, {"time": 2701, "pitch": 66, "duration": 4, "velocity": 94}, {"time": 2707, "pitch": 42, "duration": 21, "velocity": 99}, {"time": 2707, "pitch": 49, "duration": 21, "velocity": 94}, {"time": 2707, "pitch": 66, "duration": 3, "velocity": 94}, {"time": 2707, "pitch": 70, "duration": 3, "velocity": 88}, {"time": 2707, "pitch": 73, "duration": 4, "velocity": 89}, {"time": 2713, "pitch": 66, "duration": 2, "velocity": 82}, {"time": 2719, "pitch": 66, "duration": 2, "velocity": 86}, {"time": 2719, "pitch": 73, "duration": 2, "velocity": 74}, {"time": 2725, "pitch": 66, "duration": 7, "velocity": 100}, {"time": 2725, "pitch": 70, "duration": 7, "velocity": 98}, {"time": 2725, "pitch": 73, "duration": 8, "velocity": 97}, {"time": 2731, "pitch": 42, "duration": 21, "velocity": 93}, {"time": 2731, "pitch": 49, "duration": 22, "velocity": 92}, {"time": 2737, "pitch": 66, "duration": 3, "velocity": 92}, {"time": 2743, "pitch": 66, "duration": 3, "velocity": 102}, {"time": 2743, "pitch": 70, "duration": 10, "velocity": 98}, {"time": 2743, "pitch": 73, "duration": 11, "velocity": 100}, {"time": 2743, "pitch": 78, "duration": 11, "velocity": 94}, {"time": 2749, "pitch": 66, "duration": 5, "velocity": 100}, {"time": 2755, "pitch": 47, "duration": 38, "velocity": 96}, {"time": 2755, "pitch": 59, "duration": 8, "velocity": 93}, {"time": 2755, "pitch": 63, "duration": 8, "velocity": 95}, {"time": 2761, "pitch": 54, "duration": 9, "velocity": 92}, {"time": 2767, "pitch": 59, "duration": 13, "velocity": 94}, {"time": 2767, "pitch": 63, "duration": 13, "velocity": 102}, {"time": 2767, "pitch": 66, "duration": 15, "velocity": 100}, {"time": 2779, "pitch": 54, "duration": 15, "velocity": 93}, {"time": 2785, "pitch": 59, "duration": 3, "velocity": 88}, {"time": 2791, "pitch": 59, "duration": 3, "velocity": 97}, {"time": 2791, "pitch": 63, "duration": 6, "velocity": 104}, {"time": 2791, "pitch": 66, "duration": 6, "velocity": 98}, {"time": 2803, "pitch": 51, "duration": 39, "velocity": 95}, {"time": 2803, "pitch": 58, "duration": 3, "velocity": 90}, {"time": 2803, "pitch": 63, "duration": 8, "velocity": 89}, {"time": 2809, "pitch": 58, "duration": 4, "velocity": 87}, {"time": 2815, "pitch": 58, "duration": 4, "velocity": 89}, {"time": 2815, "pitch": 63, "duration": 9, "velocity": 94}, {"time": 2815, "pitch": 66, "duration": 9, "velocity": 95}, {"time": 2827, "pitch": 58, "duration": 2, "velocity": 80}, {"time": 2827, "pitch": 63, "duration": 9, "velocity": 85}, {"time": 2833, "pitch": 58, "duration": 3, "velocity": 79}, {"time": 2839, "pitch": 58, "duration": 2, "velocity": 98}, {"time": 2839, "pitch": 63, "duration": 8, "velocity": 99}, {"time": 2839, "pitch": 66, "duration": 11, "velocity": 98}, {"time": 2845, "pitch": 58, "duration": 2, "velocity": 85}, {"time": 2851, "pitch": 49, "duration": 35, "velocity": 94}, {"time": 2851, "pitch": 61, "duration": 8, "velocity": 86}, {"time": 2851, "pitch": 64, "duration": 9, "velocity": 89}, {"time": 2863, "pitch": 61, "duration": 4, "velocity": 93}, {"time": 2863, "pitch": 64, "duration": 13, "velocity": 95}, {"time": 2863, "pitch": 68, "duration": 19, "velocity": 93}, {"time": 2869, "pitch": 61, "duration": 7, "velocity": 87}, {"time": 2875, "pitch": 56, "duration": 12, "velocity": 80}, {"time": 2881, "pitch": 61, "duration": 3, "velocity": 87}, {"time": 2887, "pitch": 61, "duration": 3, "velocity": 94}, {"time": 2887, "pitch": 64, "duration": 5, "velocity": 97}, {"time": 2887, "pitch": 68, "duration": 5, "velocity": 97}, {"time": 2899, "pitch": 42, "duration": 38, "velocity": 95}, {"time": 2899, "pitch": 54, "duration": 7, "velocity": 89}, {"time": 2899, "pitch": 58, "duration": 7, "velocity": 86}, {"time": 2899, "pitch": 61, "duration": 7, "velocity": 89}, {"time": 2905, "pitch": 49, "duration": 9, "velocity": 81}, {"time": 2911, "pitch": 54, "duration": 3, "velocity": 96}, {"time": 2911, "pitch": 58, "duration": 8, "velocity": 99}, {"time": 2911, "pitch": 61, "duration": 8, "velocity": 97}, {"time": 2911, "pitch": 66, "duration": 6, "velocity": 97}, {"time": 2917, "pitch": 54, "duration": 4, "velocity": 86}, {"time": 2923, "pitch": 61, "duration": 8, "velocity": 95}, {"time": 2929, "pitch": 54, "duration": 7, "velocity": 97}, {"time": 2935, "pitch": 58, "duration": 5, "velocity": 95}, {"time": 2935, "pitch": 61, "duration": 6, "velocity": 95}, {"time": 2935, "pitch": 66, "duration": 10, "velocity": 97}, {"time": 2941, "pitch": 54, "duration": 2, "velocity": 102}, {"time": 2947, "pitch": 47, "duration": 41, "velocity": 95}, {"time": 2947, "pitch": 63, "duration": 7, "velocity": 93}, {"time": 2953, "pitch": 59, "duration": 3, "velocity": 93}, {"time": 2959, "pitch": 59, "duration": 4, "velocity": 98}, {"time": 2959, "pitch": 63, "duration": 5, "velocity": 99}, {"time": 2959, "pitch": 66, "duration": 7, "velocity": 96}, {"time": 2962, "pitch": 54, "duration": 12, "velocity": 86}, {"time": 2971, "pitch": 59, "duration": 7, "velocity": 93}, {"time": 2974, "pitch": 63, "duration": 3, "velocity": 81}, {"time": 2983, "pitch": 59, "duration": 2, "velocity": 95}, {"time": 2983, "pitch": 63, "duration": 11, "velocity": 104}, {"time": 2983, "pitch": 66, "duration": 6, "velocity": 99}, {"time": 2983, "pitch": 71, "duration": 5, "velocity": 93}, {"time": 2989, "pitch": 59, "duration": 1, "velocity": 83}, {"time": 2995, "pitch": 51, "duration": 39, "velocity": 89}, {"time": 2995, "pitch": 58, "duration": 3, "velocity": 93}, {"time": 2995, "pitch": 63, "duration": 7, "velocity": 88}, {"time": 3001, "pitch": 58, "duration": 5, "velocity": 84}, {"time": 3007, "pitch": 58, "duration": 1, "velocity": 68}, {"time": 3007, "pitch": 63, "duration": 7, "velocity": 91}, {"time": 3007, "pitch": 66, "duration": 7, "velocity": 95}, {"time": 3013, "pitch": 58, "duration": 4, "velocity": 91}, {"time": 3019, "pitch": 58, "duration": 2, "velocity": 89}, {"time": 3019, "pitch": 63, "duration": 8, "velocity": 90}, {"time": 3025, "pitch": 58, "duration": 3, "velocity": 80}, {"time": 3031, "pitch": 58, "duration": 4, "velocity": 94}, {"time": 3031, "pitch": 63, "duration": 6, "velocity": 98}, {"time": 3031, "pitch": 66, "duration": 10, "velocity": 96}, {"time": 3043, "pitch": 49, "duration": 37, "velocity": 95}, {"time": 3043, "pitch": 61, "duration": 3, "velocity": 88}, {"time": 3043, "pitch": 64, "duration": 4, "velocity": 92}, {"time": 3049, "pitch": 61, "duration": 3, "velocity": 91}, {"time": 3055, "pitch": 61, "duration": 3, "velocity": 96}, {"time": 3055, "pitch": 68, "duration": 11, "velocity": 93}, {"time": 3061, "pitch": 61, "duration": 3, "velocity": 88}, {"time": 3067, "pitch": 61, "duration": 2, "velocity": 94}, {"time": 3067, "pitch": 64, "duration": 8, "velocity": 93}, {"time": 3073, "pitch": 61, "duration": 3, "velocity": 89}, {"time": 3079, "pitch": 56, "duration": 3, "velocity": 85}, {"time": 3079, "pitch": 61, "duration": 2, "velocity": 95}, {"time": 3079, "pitch": 64, "duration": 9, "velocity": 99}, {"time": 3079, "pitch": 68, "duration": 6, "velocity": 96}, {"time": 3085, "pitch": 61, "duration": 4, "velocity": 93}, {"time": 3091, "pitch": 42, "duration": 48, "velocity": 97}, {"time": 3091, "pitch": 61, "duration": 4, "velocity": 93}, {"time": 3091, "pitch": 66, "duration": 4, "velocity": 94}, {"time": 3097, "pitch": 49, "duration": 21, "velocity": 71}, {"time": 3103, "pitch": 54, "duration": 2, "velocity": 93}, {"time": 3103, "pitch": 58, "duration": 5, "velocity": 91}, {"time": 3103, "pitch": 61, "duration": 7, "velocity": 90}, {"time": 3109, "pitch": 54, "duration": 3, "velocity": 89}, {"time": 3115, "pitch": 58, "duration": 7, "velocity": 88}, {"time": 3115, "pitch": 61, "duration": 9, "velocity": 94}, {"time": 3115, "pitch": 66, "duration": 7, "velocity": 94}, {"time": 3121, "pitch": 54, "duration": 4, "velocity": 93}, {"time": 3127, "pitch": 54, "duration": 2, "velocity": 95}, {"time": 3127, "pitch": 58, "duration": 10, "velocity": 102}, {"time": 3127, "pitch": 61, "duration": 11, "velocity": 97}, {"time": 3133, "pitch": 54, "duration": 4, "velocity": 95}, {"time": 3139, "pitch": 47, "duration": 38, "velocity": 96}, {"time": 3139, "pitch": 59, "duration": 8, "velocity": 93}, {"time": 3139, "pitch": 63, "duration": 8, "velocity": 95}, {"time": 3145, "pitch": 54, "duration": 9, "velocity": 92}, {"time": 3151, "pitch": 59, "duration": 13, "velocity": 94}, {"time": 3151, "pitch": 63, "duration": 13, "velocity": 102}, {"time": 3151, "pitch": 66, "duration": 15, "velocity": 100}, {"time": 3163, "pitch": 54, "duration": 15, "velocity": 93}, {"time": 3169, "pitch": 59, "duration": 3, "velocity": 88}, {"time": 3175, "pitch": 59, "duration": 3, "velocity": 97}, {"time": 3175, "pitch": 63, "duration": 6, "velocity": 104}, {"time": 3175, "pitch": 66, "duration": 6, "velocity": 98}, {"time": 3187, "pitch": 51, "duration": 39, "velocity": 95}, {"time": 3187, "pitch": 58, "duration": 3, "velocity": 90}, {"time": 3187, "pitch": 63, "duration": 8, "velocity": 89}, {"time": 3193, "pitch": 58, "duration": 4, "velocity": 87}, {"time": 3199, "pitch": 58, "duration": 4, "velocity": 89}, {"time": 3199, "pitch": 63, "duration": 9, "velocity": 94}, {"time": 3199, "pitch": 66, "duration": 9, "velocity": 95}, {"time": 3211, "pitch": 58, "duration": 2, "velocity": 80}, {"time": 3211, "pitch": 63, "duration": 9, "velocity": 85}, {"time": 3217, "pitch": 58, "duration": 3, "velocity": 79}, {"time": 3223, "pitch": 58, "duration": 2, "velocity": 98}, {"time": 3223, "pitch": 63, "duration": 8, "velocity": 99}, {"time": 3223, "pitch": 66, "duration": 11, "velocity": 98}, {"time": 3229, "pitch": 58, "duration": 2, "velocity": 85}, {"time": 3235, "pitch": 49, "duration": 35, "velocity": 94}, {"time": 3235, "pitch": 61, "duration": 8, "velocity": 86}, {"time": 3235, "pitch": 64, "duration": 9, "velocity": 89}, {"time": 3247, "pitch": 61, "duration": 4, "velocity": 93}, {"time": 3247, "pitch": 64, "duration": 13, "velocity": 95}, {"time": 3247, "pitch": 68, "duration": 19, "velocity": 93}, {"time": 3253, "pitch": 61, "duration": 7, "velocity": 87}, {"time": 3259, "pitch": 56, "duration": 12, "velocity": 80}, {"time": 3265, "pitch": 61, "duration": 3, "velocity": 87}, {"time": 3271, "pitch": 61, "duration": 3, "velocity": 94}, {"time": 3271, "pitch": 64, "duration": 5, "velocity": 97}, {"time": 3271, "pitch": 68, "duration": 5, "velocity": 97}, {"time": 3283, "pitch": 42, "duration": 38, "velocity": 95}, {"time": 3283, "pitch": 54, "duration": 7, "velocity": 89}, {"time": 3283, "pitch": 58, "duration": 7, "velocity": 86}, {"time": 3283, "pitch": 61, "duration": 7, "velocity": 89}, {"time": 3289, "pitch": 49, "duration": 9, "velocity": 81}, {"time": 3295, "pitch": 54, "duration": 3, "velocity": 96}, {"time": 3295, "pitch": 58, "duration": 8, "velocity": 99}, {"time": 3295, "pitch": 61, "duration": 8, "velocity": 97}, {"time": 3295, "pitch": 66, "duration": 6, "velocity": 97}, {"time": 3301, "pitch": 54, "duration": 4, "velocity": 86}, {"time": 3307, "pitch": 61, "duration": 8, "velocity": 95}, {"time": 3313, "pitch": 54, "duration": 7, "velocity": 97}, {"time": 3319, "pitch": 58, "duration": 5, "velocity": 95}, {"time": 3319, "pitch": 61, "duration": 6, "velocity": 95}, {"time": 3319, "pitch": 66, "duration": 10, "velocity": 97}, {"time": 3325, "pitch": 54, "duration": 2, "velocity": 102}, {"time": 3331, "pitch": 47, "duration": 41, "velocity": 95}, {"time": 3331, "pitch": 63, "duration": 7, "velocity": 93}, {"time": 3337, "pitch": 59, "duration": 3, "velocity": 93}, {"time": 3343, "pitch": 59, "duration": 4, "velocity": 98}, {"time": 3343, "pitch": 63, "duration": 5, "velocity": 99}, {"time": 3343, "pitch": 66, "duration": 7, "velocity": 96}, {"time": 3346, "pitch": 54, "duration": 12, "velocity": 86}, {"time": 3355, "pitch": 59, "duration": 7, "velocity": 93}, {"time": 3358, "pitch": 63, "duration": 3, "velocity": 81}, {"time": 3367, "pitch": 59, "duration": 2, "velocity": 95}, {"time": 3367, "pitch": 63, "duration": 11, "velocity": 104}, {"time": 3367, "pitch": 66, "duration": 6, "velocity": 99}, {"time": 3367, "pitch": 71, "duration": 5, "velocity": 93}, {"time": 3373, "pitch": 59, "duration": 1, "velocity": 83}, {"time": 3379, "pitch": 51, "duration": 39, "velocity": 89}, {"time": 3379, "pitch": 58, "duration": 3, "velocity": 93}, {"time": 3379, "pitch": 63, "duration": 7, "velocity": 88}, {"time": 3385, "pitch": 58, "duration": 5, "velocity": 84}, {"time": 3391, "pitch": 58, "duration": 1, "velocity": 68}, {"time": 3391, "pitch": 63, "duration": 7, "velocity": 91}, {"time": 3391, "pitch": 66, "duration": 7, "velocity": 95}, {"time": 3397, "pitch": 58, "duration": 4, "velocity": 91}, {"time": 3403, "pitch": 58, "duration": 2, "velocity": 89}, {"time": 3403, "pitch": 63, "duration": 8, "velocity": 90}, {"time": 3409, "pitch": 58, "duration": 3, "velocity": 80}, {"time": 3415, "pitch": 58, "duration": 4, "velocity": 94}, {"time": 3415, "pitch": 63, "duration": 6, "velocity": 98}, {"time": 3415, "pitch": 66, "duration": 10, "velocity": 96}, {"time": 3427, "pitch": 49, "duration": 37, "velocity": 95}, {"time": 3427, "pitch": 61, "duration": 3, "velocity": 88}, {"time": 3427, "pitch": 64, "duration": 4, "velocity": 92}, {"time": 3433, "pitch": 61, "duration": 3, "velocity": 91}, {"time": 3439, "pitch": 61, "duration": 3, "velocity": 96}, {"time": 3439, "pitch": 68, "duration": 11, "velocity": 93}, {"time": 3445, "pitch": 61, "duration": 3, "velocity": 88}, {"time": 3451, "pitch": 61, "duration": 2, "velocity": 94}, {"time": 3451, "pitch": 64, "duration": 8, "velocity": 93}, {"time": 3457, "pitch": 61, "duration": 3, "velocity": 89}, {"time": 3463, "pitch": 56, "duration": 3, "velocity": 85}, {"time": 3463, "pitch": 61, "duration": 2, "velocity": 95}, {"time": 3463, "pitch": 64, "duration": 9, "velocity": 99}, {"time": 3463, "pitch": 68, "duration": 6, "velocity": 96}, {"time": 3469, "pitch": 61, "duration": 4, "velocity": 93}, {"time": 3475, "pitch": 42, "duration": 48, "velocity": 97}, {"time": 3475, "pitch": 61, "duration": 4, "velocity": 93}, {"time": 3475, "pitch": 66, "duration": 4, "velocity": 94}, {"time": 3481, "pitch": 49, "duration": 21, "velocity": 71}, {"time": 3487, "pitch": 54, "duration": 2, "velocity": 93}, {"time": 3487, "pitch": 58, "duration": 5, "velocity": 91}, {"time": 3487, "pitch": 61, "duration": 7, "velocity": 90}, {"time": 3493, "pitch": 54, "duration": 3, "velocity": 89}, {"time": 3499, "pitch": 58, "duration": 7, "velocity": 88}, {"time": 3499, "pitch": 61, "duration": 9, "velocity": 94}, {"time": 3499, "pitch": 66, "duration": 7, "velocity": 94}, {"time": 3505, "pitch": 54, "duration": 4, "velocity": 93}, {"time": 3511, "pitch": 54, "duration": 2, "velocity": 95}, {"time": 3511, "pitch": 58, "duration": 10, "velocity": 102}, {"time": 3511, "pitch": 61, "duration": 11, "velocity": 97}, {"time": 3517, "pitch": 54, "duration": 4, "velocity": 95}, {"time": 3523, "pitch": 47, "duration": 37, "velocity": 94}, {"time": 3523, "pitch": 59, "duration": 7, "velocity": 93}, {"time": 3523, "pitch": 63, "duration": 9, "velocity": 89}, {"time": 3523, "pitch": 66, "duration": 9, "velocity": 94}, {"time": 3529, "pitch": 54, "duration": 14, "velocity": 83}, {"time": 3535, "pitch": 59, "duration": 3, "velocity": 94}, {"time": 3541, "pitch": 59, "duration": 7, "velocity": 94}, {"time": 3541, "pitch": 63, "duration": 8, "velocity": 99}, {"time": 3541, "pitch": 66, "duration": 13, "velocity": 95}, {"time": 3547, "pitch": 54, "duration": 13, "velocity": 85}, {"time": 3553, "pitch": 59, "duration": 3, "velocity": 80}, {"time": 3559, "pitch": 59, "duration": 3, "velocity": 94}, {"time": 3559, "pitch": 63, "duration": 5, "velocity": 96}, {"time": 3559, "pitch": 66, "duration": 10, "velocity": 98}, {"time": 3571, "pitch": 51, "duration": 30, "velocity": 89}, {"time": 3571, "pitch": 58, "duration": 3, "velocity": 93}, {"time": 3571, "pitch": 63, "duration": 7, "velocity": 94}, {"time": 3571, "pitch": 66, "duration": 11, "velocity": 96}, {"time": 3577, "pitch": 58, "duration": 9, "velocity": 79}, {"time": 3583, "pitch": 63, "duration": 3, "velocity": 80}, {"time": 3589, "pitch": 58, "duration": 11, "velocity": 91}, {"time": 3589, "pitch": 63, "duration": 8, "velocity": 93}, {"time": 3589, "pitch": 66, "duration": 9, "velocity": 99}, {"time": 3607, "pitch": 58, "duration": 2, "velocity": 93}, {"time": 3607, "pitch": 63, "duration": 7, "velocity": 95}, {"time": 3607, "pitch": 66, "duration": 11, "velocity": 98}, {"time": 3613, "pitch": 58, "duration": 2, "velocity": 82}, {"time": 3619, "pitch": 49, "duration": 37, "velocity": 95}, {"time": 3619, "pitch": 59, "duration": 8, "velocity": 87}, {"time": 3619, "pitch": 64, "duration": 15, "velocity": 83}, {"time": 3625, "pitch": 56, "duration": 15, "velocity": 80}, {"time": 3631, "pitch": 59, "duration": 4, "velocity": 85}, {"time": 3637, "pitch": 59, "duration": 14, "velocity": 95}, {"time": 3637, "pitch": 64, "duration": 14, "velocity": 95}, {"time": 3649, "pitch": 56, "duration": 5, "velocity": 76}, {"time": 3655, "pitch": 59, "duration": 3, "velocity": 92}, {"time": 3655, "pitch": 64, "duration": 9, "velocity": 95}, {"time": 3661, "pitch": 59, "duration": 3, "velocity": 86}, {"time": 3667, "pitch": 42, "duration": 38, "velocity": 96}, {"time": 3667, "pitch": 61, "duration": 5, "velocity": 89}, {"time": 3667, "pitch": 66, "duration": 5, "velocity": 93}, {"time": 3673, "pitch": 49, "duration": 21, "velocity": 76}, {"time": 3679, "pitch": 54, "duration": 4, "velocity": 89}, {"time": 3685, "pitch": 54, "duration": 14, "velocity": 89}, {"time": 3685, "pitch": 58, "duration": 13, "velocity": 82}, {"time": 3685, "pitch": 61, "duration": 15, "velocity": 90}, {"time": 3697, "pitch": 49, "duration": 6, "velocity": 78}, {"time": 3703, "pitch": 54, "duration": 3, "velocity": 93}, {"time": 3703, "pitch": 58, "duration": 12, "velocity": 94}, {"time": 3703, "pitch": 61, "duration": 13, "velocity": 94}, {"time": 3703, "pitch": 66, "duration": 18, "velocity": 94}, {"time": 3709, "pitch": 54, "duration": 6, "velocity": 91}, {"time": 3715, "pitch": 47, "duration": 37, "velocity": 94}, {"time": 3715, "pitch": 59, "duration": 7, "velocity": 93}, {"time": 3715, "pitch": 63, "duration": 9, "velocity": 89}, {"time": 3715, "pitch": 66, "duration": 6, "velocity": 94}, {"time": 3721, "pitch": 54, "duration": 14, "velocity": 83}, {"time": 3727, "pitch": 59, "duration": 3, "velocity": 94}, {"time": 3733, "pitch": 59, "duration": 7, "velocity": 94}, {"time": 3733, "pitch": 63, "duration": 8, "velocity": 99}, {"time": 3733, "pitch": 66, "duration": 13, "velocity": 95}, {"time": 3739, "pitch": 54, "duration": 13, "velocity": 85}, {"time": 3745, "pitch": 59, "duration": 3, "velocity": 80}, {"time": 3751, "pitch": 59, "duration": 3, "velocity": 94}, {"time": 3751, "pitch": 63, "duration": 5, "velocity": 96}, {"time": 3751, "pitch": 66, "duration": 10, "velocity": 98}, {"time": 3763, "pitch": 51, "duration": 30, "velocity": 89}, {"time": 3763, "pitch": 58, "duration": 3, "velocity": 93}, {"time": 3763, "pitch": 63, "duration": 7, "velocity": 94}, {"time": 3763, "pitch": 66, "duration": 11, "velocity": 96}, {"time": 3769, "pitch": 58, "duration": 9, "velocity": 79}, {"time": 3775, "pitch": 63, "duration": 3, "velocity": 80}, {"time": 3781, "pitch": 58, "duration": 11, "velocity": 91}, {"time": 3781, "pitch": 63, "duration": 8, "velocity": 93}, {"time": 3781, "pitch": 66, "duration": 9, "velocity": 99}, {"time": 3799, "pitch": 58, "duration": 2, "velocity": 93}, {"time": 3799, "pitch": 63, "duration": 7, "velocity": 95}, {"time": 3799, "pitch": 66, "duration": 11, "velocity": 98}, {"time": 3805, "pitch": 58, "duration": 2, "velocity": 82}, {"time": 3811, "pitch": 49, "duration": 37, "velocity": 95}, {"time": 3811, "pitch": 59, "duration": 8, "velocity": 87}, {"time": 3811, "pitch": 64, "duration": 15, "velocity": 83}, {"time": 3817, "pitch": 56, "duration": 15, "velocity": 80}, {"time": 3823, "pitch": 59, "duration": 4, "velocity": 85}, {"time": 3829, "pitch": 59, "duration": 14, "velocity": 95}, {"time": 3829, "pitch": 64, "duration": 14, "velocity": 95}, {"time": 3841, "pitch": 56, "duration": 5, "velocity": 76}, {"time": 3847, "pitch": 59, "duration": 3, "velocity": 92}, {"time": 3847, "pitch": 64, "duration": 9, "velocity": 95}, {"time": 3853, "pitch": 59, "duration": 3, "velocity": 86}, {"time": 3859, "pitch": 42, "duration": 38, "velocity": 96}, {"time": 3859, "pitch": 61, "duration": 5, "velocity": 89}, {"time": 3859, "pitch": 66, "duration": 5, "velocity": 93}, {"time": 3865, "pitch": 49, "duration": 21, "velocity": 76}, {"time": 3871, "pitch": 54, "duration": 4, "velocity": 89}, {"time": 3877, "pitch": 54, "duration": 14, "velocity": 89}, {"time": 3877, "pitch": 58, "duration": 13, "velocity": 82}, {"time": 3877, "pitch": 61, "duration": 15, "velocity": 90}, {"time": 3889, "pitch": 49, "duration": 6, "velocity": 78}, {"time": 3895, "pitch": 54, "duration": 3, "velocity": 93}, {"time": 3895, "pitch": 58, "duration": 12, "velocity": 94}, {"time": 3895, "pitch": 61, "duration": 13, "velocity": 94}, {"time": 3895, "pitch": 66, "duration": 18, "velocity": 94}, {"time": 3901, "pitch": 54, "duration": 6, "velocity": 91}, {"time": 3907, "pitch": 47, "duration": 37, "velocity": 94}, {"time": 3907, "pitch": 59, "duration": 7, "velocity": 93}, {"time": 3907, "pitch": 63, "duration": 9, "velocity": 89}, {"time": 3907, "pitch": 66, "duration": 6, "velocity": 94}, {"time": 3913, "pitch": 54, "duration": 14, "velocity": 83}, {"time": 3919, "pitch": 59, "duration": 3, "velocity": 94}, {"time": 3925, "pitch": 59, "duration": 7, "velocity": 94}, {"time": 3925, "pitch": 63, "duration": 8, "velocity": 99}, {"time": 3925, "pitch": 66, "duration": 13, "velocity": 95}, {"time": 3931, "pitch": 54, "duration": 13, "velocity": 85}, {"time": 3937, "pitch": 59, "duration": 3, "velocity": 80}, {"time": 3943, "pitch": 59, "duration": 3, "velocity": 94}, {"time": 3943, "pitch": 63, "duration": 5, "velocity": 96}, {"time": 3943, "pitch": 66, "duration": 10, "velocity": 98}, {"time": 3955, "pitch": 51, "duration": 30, "velocity": 89}, {"time": 3955, "pitch": 58, "duration": 3, "velocity": 93}, {"time": 3955, "pitch": 63, "duration": 7, "velocity": 94}, {"time": 3955, "pitch": 66, "duration": 11, "velocity": 96}, {"time": 3961, "pitch": 58, "duration": 9, "velocity": 79}, {"time": 3967, "pitch": 63, "duration": 3, "velocity": 80}, {"time": 3973, "pitch": 58, "duration": 11, "velocity": 91}, {"time": 3973, "pitch": 63, "duration": 8, "velocity": 93}, {"time": 3973, "pitch": 66, "duration": 9, "velocity": 99}, {"time": 3991, "pitch": 58, "duration": 2, "velocity": 93}, {"time": 3991, "pitch": 63, "duration": 7, "velocity": 95}, {"time": 3991, "pitch": 66, "duration": 11, "velocity": 98}, {"time": 3997, "pitch": 58, "duration": 2, "velocity": 82}, {"time": 4003, "pitch": 49, "duration": 37, "velocity": 95}, {"time": 4003, "pitch": 59, "duration": 8, "velocity": 87}, {"time": 4003, "pitch": 64, "duration": 15, "velocity": 83}, {"time": 4009, "pitch": 56, "duration": 15, "velocity": 80}, {"time": 4015, "pitch": 59, "duration": 4, "velocity": 85}, {"time": 4021, "pitch": 59, "duration": 14, "velocity": 95}, {"time": 4021, "pitch": 64, "duration": 14, "velocity": 95}, {"time": 4033, "pitch": 56, "duration": 5, "velocity": 76}, {"time": 4039, "pitch": 59, "duration": 3, "velocity": 92}, {"time": 4039, "pitch": 64, "duration": 9, "velocity": 95}, {"time": 4045, "pitch": 59, "duration": 3, "velocity": 86}, {"time": 4051, "pitch": 42, "duration": 38, "velocity": 96}, {"time": 4051, "pitch": 61, "duration": 5, "velocity": 89}, {"time": 4051, "pitch": 66, "duration": 5, "velocity": 93}, {"time": 4057, "pitch": 49, "duration": 21, "velocity": 76}, {"time": 4063, "pitch": 54, "duration": 4, "velocity": 89}, {"time": 4069, "pitch": 54, "duration": 14, "velocity": 89}, {"time": 4069, "pitch": 58, "duration": 13, "velocity": 82}, {"time": 4069, "pitch": 61, "duration": 15, "velocity": 90}, {"time": 4081, "pitch": 49, "duration": 6, "velocity": 78}, {"time": 4087, "pitch": 54, "duration": 3, "velocity": 93}, {"time": 4087, "pitch": 58, "duration": 12, "velocity": 94}, {"time": 4087, "pitch": 61, "duration": 13, "velocity": 94}, {"time": 4087, "pitch": 66, "duration": 18, "velocity": 94}, {"time": 4093, "pitch": 54, "duration": 6, "velocity": 91}, {"time": 4099, "pitch": 47, "duration": 37, "velocity": 94}, {"time": 4099, "pitch": 59, "duration": 7, "velocity": 93}, {"time": 4099, "pitch": 63, "duration": 9, "velocity": 89}, {"time": 4099, "pitch": 66, "duration": 6, "velocity": 94}, {"time": 4105, "pitch": 54, "duration": 14, "velocity": 83}, {"time": 4111, "pitch": 59, "duration": 3, "velocity": 94}, {"time": 4117, "pitch": 59, "duration": 7, "velocity": 94}, {"time": 4117, "pitch": 63, "duration": 8, "velocity": 99}, {"time": 4117, "pitch": 66, "duration": 13, "velocity": 95}, {"time": 4123, "pitch": 54, "duration": 13, "velocity": 85}, {"time": 4129, "pitch": 59, "duration": 3, "velocity": 80}, {"time": 4135, "pitch": 59, "duration": 3, "velocity": 94}, {"time": 4135, "pitch": 63, "duration": 5, "velocity": 96}, {"time": 4135, "pitch": 66, "duration": 10, "velocity": 98}, {"time": 4147, "pitch": 51, "duration": 30, "velocity": 89}, {"time": 4147, "pitch": 58, "duration": 3, "velocity": 93}, {"time": 4147, "pitch": 63, "duration": 7, "velocity": 94}, {"time": 4147, "pitch": 66, "duration": 11, "velocity": 96}, {"time": 4153, "pitch": 58, "duration": 9, "velocity": 79}, {"time": 4159, "pitch": 63, "duration": 3, "velocity": 80}, {"time": 4165, "pitch": 58, "duration": 11, "velocity": 91}, {"time": 4165, "pitch": 63, "duration": 8, "velocity": 93}, {"time": 4165, "pitch": 66, "duration": 9, "velocity": 99}, {"time": 4183, "pitch": 58, "duration": 2, "velocity": 93}, {"time": 4183, "pitch": 63, "duration": 7, "velocity": 95}, {"time": 4183, "pitch": 66, "duration": 11, "velocity": 98}, {"time": 4189, "pitch": 58, "duration": 2, "velocity": 82}, {"time": 4195, "pitch": 49, "duration": 37, "velocity": 95}, {"time": 4195, "pitch": 59, "duration": 8, "velocity": 87}, {"time": 4195, "pitch": 64, "duration": 15, "velocity": 83}, {"time": 4201, "pitch": 56, "duration": 15, "velocity": 80}, {"time": 4207, "pitch": 59, "duration": 4, "velocity": 85}, {"time": 4213, "pitch": 59, "duration": 14, "velocity": 95}, {"time": 4213, "pitch": 64, "duration": 14, "velocity": 95}, {"time": 4225, "pitch": 56, "duration": 5, "velocity": 76}, {"time": 4231, "pitch": 59, "duration": 3, "velocity": 92}, {"time": 4231, "pitch": 64, "duration": 9, "velocity": 95}, {"time": 4237, "pitch": 59, "duration": 3, "velocity": 86}, {"time": 4243, "pitch": 42, "duration": 38, "velocity": 96}, {"time": 4243, "pitch": 61, "duration": 5, "velocity": 89}, {"time": 4243, "pitch": 66, "duration": 5, "velocity": 93}, {"time": 4249, "pitch": 49, "duration": 21, "velocity": 76}, {"time": 4255, "pitch": 54, "duration": 4, "velocity": 89}, {"time": 4261, "pitch": 54, "duration": 14, "velocity": 89}, {"time": 4261, "pitch": 58, "duration": 13, "velocity": 82}, {"time": 4261, "pitch": 61, "duration": 15, "velocity": 90}, {"time": 4273, "pitch": 49, "duration": 6, "velocity": 78}, {"time": 4279, "pitch": 54, "duration": 3, "velocity": 93}, {"time": 4279, "pitch": 58, "duration": 12, "velocity": 94}, {"time": 4279, "pitch": 61, "duration": 13, "velocity": 94}, {"time": 4279, "pitch": 66, "duration": 18, "velocity": 94}, {"time": 4285, "pitch": 54, "duration": 6, "velocity": 91}, {"time": 4291, "pitch": 47, "duration": 37, "velocity": 94}, {"time": 4291, "pitch": 59, "duration": 7, "velocity": 93}, {"time": 4291, "pitch": 63, "duration": 9, "velocity": 89}, {"time": 4291, "pitch": 66, "duration": 6, "velocity": 94}, {"time": 4297, "pitch": 54, "duration": 14, "velocity": 83}, {"time": 4303, "pitch": 59, "duration": 3, "velocity": 94}, {"time": 4309, "pitch": 59, "duration": 7, "velocity": 94}, {"time": 4309, "pitch": 63, "duration": 8, "velocity": 99}, {"time": 4309, "pitch": 66, "duration": 13, "velocity": 95}, {"time": 4315, "pitch": 54, "duration": 13, "velocity": 85}, {"time": 4321, "pitch": 59, "duration": 3, "velocity": 80}, {"time": 4327, "pitch": 59, "duration": 3, "velocity": 94}, {"time": 4327, "pitch": 63, "duration": 5, "velocity": 96}, {"time": 4327, "pitch": 66, "duration": 10, "velocity": 98}, {"time": 4339, "pitch": 51, "duration": 30, "velocity": 89}, {"time": 4339, "pitch": 58, "duration": 3, "velocity": 93}, {"time": 4339, "pitch": 63, "duration": 7, "velocity": 94}, {"time": 4339, "pitch": 66, "duration": 11, "velocity": 96}, {"time": 4345, "pitch": 58, "duration": 9, "velocity": 79}, {"time": 4351, "pitch": 63, "duration": 3, "velocity": 80}, {"time": 4357, "pitch": 58, "duration": 11, "velocity": 91}, {"time": 4357, "pitch": 63, "duration": 8, "velocity": 93}, {"time": 4357, "pitch": 66, "duration": 9, "velocity": 99}, {"time": 4375, "pitch": 58, "duration": 2, "velocity": 93}, {"time": 4375, "pitch": 63, "duration": 7, "velocity": 95}, {"time": 4375, "pitch": 66, "duration": 11, "velocity": 98}, {"time": 4381, "pitch": 58, "duration": 2, "velocity": 82}, {"time": 4387, "pitch": 49, "duration": 37, "velocity": 95}, {"time": 4387, "pitch": 59, "duration": 8, "velocity": 87}, {"time": 4387, "pitch": 64, "duration": 15, "velocity": 83}, {"time": 4393, "pitch": 56, "duration": 15, "velocity": 80}, {"time": 4399, "pitch": 59, "duration": 4, "velocity": 85}, {"time": 4405, "pitch": 59, "duration": 14, "velocity": 95}, {"time": 4405, "pitch": 64, "duration": 14, "velocity": 95}, {"time": 4417, "pitch": 56, "duration": 5, "velocity": 76}, {"time": 4423, "pitch": 59, "duration": 3, "velocity": 92}, {"time": 4423, "pitch": 64, "duration": 9, "velocity": 95}, {"time": 4429, "pitch": 59, "duration": 3, "velocity": 86}, {"time": 4435, "pitch": 42, "duration": 38, "velocity": 96}, {"time": 4435, "pitch": 61, "duration": 5, "velocity": 89}, {"time": 4435, "pitch": 66, "duration": 5, "velocity": 93}, {"time": 4441, "pitch": 49, "duration": 21, "velocity": 76}, {"time": 4447, "pitch": 54, "duration": 4, "velocity": 89}, {"time": 4453, "pitch": 54, "duration": 14, "velocity": 89}, {"time": 4453, "pitch": 58, "duration": 13, "velocity": 82}, {"time": 4453, "pitch": 61, "duration": 15, "velocity": 90}, {"time": 4465, "pitch": 49, "duration": 6, "velocity": 78}, {"time": 4471, "pitch": 54, "duration": 3, "velocity": 93}, {"time": 4471, "pitch": 58, "duration": 12, "velocity": 94}, {"time": 4471, "pitch": 61, "duration": 13, "velocity": 94}, {"time": 4471, "pitch": 66, "duration": 18, "velocity": 94}, {"time": 4477, "pitch": 54, "duration": 6, "velocity": 91}, {"time": 4483, "pitch": 47, "duration": 37, "velocity": 94}, {"time": 4483, "pitch": 59, "duration": 7, "velocity": 93}, {"time": 4483, "pitch": 63, "duration": 9, "velocity": 89}, {"time": 4483, "pitch": 66, "duration": 6, "velocity": 94}, {"time": 4489, "pitch": 54, "duration": 14, "velocity": 83}, {"time": 4495, "pitch": 59, "duration": 3, "velocity": 94}, {"time": 4501, "pitch": 59, "duration": 7, "velocity": 94}, {"time": 4501, "pitch": 63, "duration": 8, "velocity": 99}, {"time": 4501, "pitch": 66, "duration": 13, "velocity": 95}, {"time": 4507, "pitch": 54, "duration": 13, "velocity": 85}, {"time": 4513, "pitch": 59, "duration": 3, "velocity": 80}, {"time": 4519, "pitch": 59, "duration": 3, "velocity": 94}, {"time": 4519, "pitch": 63, "duration": 5, "velocity": 96}, {"time": 4519, "pitch": 66, "duration": 10, "velocity": 98}, {"time": 4531, "pitch": 51, "duration": 30, "velocity": 89}, {"time": 4531, "pitch": 58, "duration": 3, "velocity": 93}, {"time": 4531, "pitch": 63, "duration": 7, "velocity": 94}, {"time": 4531, "pitch": 66, "duration": 11, "velocity": 96}, {"time": 4537, "pitch": 58, "duration": 9, "velocity": 79}, {"time": 4543, "pitch": 63, "duration": 3, "velocity": 80}, {"time": 4549, "pitch": 58, "duration": 11, "velocity": 91}, {"time": 4549, "pitch": 63, "duration": 8, "velocity": 93}, {"time": 4549, "pitch": 66, "duration": 9, "velocity": 99}, {"time": 4567, "pitch": 58, "duration": 2, "velocity": 93}, {"time": 4567, "pitch": 63, "duration": 7, "velocity": 95}, {"time": 4567, "pitch": 66, "duration": 11, "velocity": 98}, {"time": 4573, "pitch": 58, "duration": 2, "velocity": 82}, {"time": 4579, "pitch": 49, "duration": 37, "velocity": 95}, {"time": 4579, "pitch": 59, "duration": 8, "velocity": 87}, {"time": 4579, "pitch": 64, "duration": 15, "velocity": 83}, {"time": 4585, "pitch": 56, "duration": 15, "velocity": 80}, {"time": 4591, "pitch": 59, "duration": 4, "velocity": 85}, {"time": 4597, "pitch": 59, "duration": 14, "velocity": 95}, {"time": 4597, "pitch": 64, "duration": 14, "velocity": 95}, {"time": 4609, "pitch": 56, "duration": 5, "velocity": 76}, {"time": 4615, "pitch": 59, "duration": 3, "velocity": 92}, {"time": 4615, "pitch": 64, "duration": 9, "velocity": 95}, {"time": 4621, "pitch": 59, "duration": 3, "velocity": 86}, {"time": 4627, "pitch": 42, "duration": 38, "velocity": 96}, {"time": 4627, "pitch": 61, "duration": 5, "velocity": 89}, {"time": 4627, "pitch": 66, "duration": 5, "velocity": 93}, {"time": 4633, "pitch": 49, "duration": 21, "velocity": 76}, {"time": 4639, "pitch": 54, "duration": 4, "velocity": 89}, {"time": 4645, "pitch": 54, "duration": 14, "velocity": 89}, {"time": 4645, "pitch": 58, "duration": 13, "velocity": 82}, {"time": 4645, "pitch": 61, "duration": 15, "velocity": 90}, {"time": 4657, "pitch": 49, "duration": 6, "velocity": 78}, {"time": 4663, "pitch": 54, "duration": 3, "velocity": 93}, {"time": 4663, "pitch": 58, "duration": 12, "velocity": 94}, {"time": 4663, "pitch": 61, "duration": 13, "velocity": 94}, {"time": 4663, "pitch": 66, "duration": 18, "velocity": 94}, {"time": 4669, "pitch": 54, "duration": 6, "velocity": 91}], "annotations": [{"time": 163, "annotation": {"number": 64, "value": 127}, "group": "control_change"}, {"time": 208, "annotation": {"number": 64, "value": 0}, "group": "control_change"}, {"time": 211, "annotation": {"number": 64, "value": 127}, "group": "control_change"}, {"time": 253, "annotation": {"number": 64, "value": 0}, "group": "control_change"}, {"time": 259, "annotation": {"number": 64, "value": 127}, "group": "control_change"}, {"time": 304, "annotation": {"number": 64, "value": 0}, "group": "control_change"}, {"time": 308, "annotation": {"number": 64, "value": 127}, "group": "control_change"}, {"time": 353, "annotation": {"number": 64, "value": 0}, "group": "control_change"}, {"time": 358, "annotation": {"number": 64, "value": 127}, "group": "control_change"}, {"time": 401, "annotation": {"number": 64, "value": 0}, "group": "control_change"}, {"time": 404, "annotation": {"number": 64, "value": 127}, "group": "control_change"}, {"time": 449, "annotation": {"number": 64, "value": 0}, "group": "control_change"}, {"time": 453, "annotation": {"number": 64, "value": 127}, "group": "control_change"}, {"time": 497, "annotation": {"number": 64, "value": 0}, "group": "control_change"}, {"time": 500, "annotation": {"number": 64, "value": 127}, "group": "control_change"}, {"time": 541, "annotation": {"number": 64, "value": 0}, "group": "control_change"}, {"time": 550, "annotation": {"number": 64, "value": 127}, "group": "control_change"}, {"time": 593, "annotation": {"number": 64, "value": 0}, "group": "control_change"}, {"time": 596, "annotation": {"number": 64, "value": 127}, "group": "control_change"}, {"time": 641, "annotation": {"number": 64, "value": 0}, "group": "control_change"}, {"time": 645, "annotation": {"number": 64, "value": 127}, "group": "control_change"}, {"time": 688, "annotation": {"number": 64, "value": 0}, "group": "control_change"}, {"time": 692, "annotation": {"number": 64, "value": 127}, "group": "control_change"}, {"time": 737, "annotation": {"number": 64, "value": 0}, "group": "control_change"}, {"time": 745, "annotation": {"number": 64, "value": 127}, "group": "control_change"}, {"time": 785, "annotation": {"number": 64, "value": 0}, "group": "control_change"}, {"time": 788, "annotation": {"number": 64, "value": 127}, "group": "control_change"}, {"time": 833, "annotation": {"number": 64, "value": 0}, "group": "control_change"}, {"time": 837, "annotation": {"number": 64, "value": 127}, "group": "control_change"}, {"time": 880, "annotation": {"number": 64, "value": 0}, "group": "control_change"}, {"time": 883, "annotation": {"number": 64, "value": 127}, "group": "control_change"}, {"time": 927, "annotation": {"number": 64, "value": 0}, "group": "control_change"}, {"time": 932, "annotation": {"number": 64, "value": 127}, "group": "control_change"}, {"time": 975, "annotation": {"number": 64, "value": 0}, "group": "control_change"}, {"time": 983, "annotation": {"number": 64, "value": 127}, "group": "control_change"}, {"time": 1026, "annotation": {"number": 64, "value": 0}, "group": "control_change"}, {"time": 1030, "annotation": {"number": 64, "value": 127}, "group": "control_change"}, {"time": 1073, "annotation": {"number": 64, "value": 0}, "group": "control_change"}, {"time": 1078, "annotation": {"number": 64, "value": 127}, "group": "control_change"}, {"time": 1121, "annotation": {"number": 64, "value": 0}, "group": "control_change"}, {"time": 1126, "annotation": {"number": 64, "value": 127}, "group": "control_change"}, {"time": 1169, "annotation": {"number": 64, "value": 0}, "group": "control_change"}, {"time": 1172, "annotation": {"number": 64, "value": 127}, "group": "control_change"}, {"time": 1217, "annotation": {"number": 64, "value": 0}, "group": "control_change"}, {"time": 1220, "annotation": {"number": 64, "value": 127}, "group": "control_change"}, {"time": 1264, "annotation": {"number": 64, "value": 0}, "group": "control_change"}, {"time": 1267, "annotation": {"number": 64, "value": 127}, "group": "control_change"}, {"time": 1306, "annotation": {"number": 64, "value": 0}, "group": "control_change"}, {"time": 1318, "annotation": {"number": 64, "value": 127}, "group": "control_change"}, {"time": 1361, "annotation": {"number": 64, "value": 0}, "group": "control_change"}, {"time": 1364, "annotation": {"number": 64, "value": 127}, "group": "control_change"}, {"time": 1409, "annotation": {"number": 64, "value": 0}, "group": "control_change"}, {"time": 1413, "annotation": {"number": 64, "value": 127}, "group": "control_change"}, {"time": 1457, "annotation": {"number": 64, "value": 0}, "group": "control_change"}, {"time": 1460, "annotation": {"number": 64, "value": 127}, "group": "control_change"}, {"time": 1501, "annotation": {"number": 64, "value": 0}, "group": "control_change"}, {"time": 1510, "annotation": {"number": 64, "value": 127}, "group": "control_change"}, {"time": 1553, "annotation": {"number": 64, "value": 0}, "group": "control_change"}, {"time": 1556, "annotation": {"number": 64, "value": 127}, "group": "control_change"}, {"time": 1601, "annotation": {"number": 64, "value": 0}, "group": "control_change"}, {"time": 1605, "annotation": {"number": 64, "value": 127}, "group": "control_change"}, {"time": 1648, "annotation": {"number": 64, "value": 0}, "group": "control_change"}, {"time": 1652, "annotation": {"number": 64, "value": 127}, "group": "control_change"}, {"time": 1697, "annotation": {"number": 64, "value": 0}, "group": "control_change"}, {"time": 1705, "annotation": {"number": 64, "value": 127}, "group": "control_change"}, {"time": 1745, "annotation": {"number": 64, "value": 0}, "group": "control_change"}, {"time": 1748, "annotation": {"number": 64, "value": 127}, "group": "control_change"}, {"time": 1793, "annotation": {"number": 64, "value": 0}, "group": "control_change"}, {"time": 1797, "annotation": {"number": 64, "value": 127}, "group": "control_change"}, {"time": 1840, "annotation": {"number": 64, "value": 0}, "group": "control_change"}, {"time": 1843, "annotation": {"number": 64, "value": 127}, "group": "control_change"}, {"time": 1887, "annotation": {"number": 64, "value": 0}, "group": "control_change"}, {"time": 1892, "annotation": {"number": 64, "value": 127}, "group": "control_change"}, {"time": 1935, "annotation": {"number": 64, "value": 0}, "group": "control_change"}, {"time": 1943, "annotation": {"number": 64, "value": 127}, "group": "control_change"}, {"time": 1986, "annotation": {"number": 64, "value": 0}, "group": "control_change"}, {"time": 1990, "annotation": {"number": 64, "value": 127}, "group": "control_change"}, {"time": 2033, "annotation": {"number": 64, "value": 0}, "group": "control_change"}, {"time": 2038, "annotation": {"number": 64, "value": 127}, "group": "control_change"}, {"time": 2081, "annotation": {"number": 64, "value": 0}, "group": "control_change"}, {"time": 2086, "annotation": {"number": 64, "value": 127}, "group": "control_change"}, {"time": 2129, "annotation": {"number": 64, "value": 0}, "group": "control_change"}, {"time": 2132, "annotation": {"number": 64, "value": 127}, "group": "control_change"}, {"time": 2177, "annotation": {"number": 64, "value": 0}, "group": "control_change"}, {"time": 2180, "annotation": {"number": 64, "value": 127}, "group": "control_change"}, {"time": 2224, "annotation": {"number": 64, "value": 0}, "group": "control_change"}, {"time": 2227, "annotation": {"number": 64, "value": 127}, "group": "control_change"}, {"time": 2266, "annotation": {"number": 64, "value": 0}, "group": "control_change"}, {"time": 2278, "annotation": {"number": 64, "value": 127}, "group": "control_change"}, {"time": 2321, "annotation": {"number": 64, "value": 0}, "group": "control_change"}, {"time": 2324, "annotation": {"number": 64, "value": 127}, "group": "control_change"}, {"time": 2369, "annotation": {"number": 64, "value": 0}, "group": "control_change"}, {"time": 2373, "annotation": {"number": 64, "value": 127}, "group": "control_change"}, {"time": 2417, "annotation": {"number": 64, "value": 0}, "group": "control_change"}, {"time": 2418, "annotation": {"number": 64, "value": 127}, "group": "control_change"}, {"time": 2435, "annotation": {"number": 64, "value": 0}, "group": "control_change"}, {"time": 2438, "annotation": {"number": 64, "value": 127}, "group": "control_change"}, {"time": 2463, "annotation": {"number": 64, "value": 0}, "group": "control_change"}, {"time": 2659, "annotation": {"number": 64, "value": 127}, "group": "control_change"}, {"time": 2703, "annotation": {"number": 64, "value": 0}, "group": "control_change"}, {"time": 2706, "annotation": {"number": 64, "value": 127}, "group": "control_change"}, {"time": 2751, "annotation": {"number": 64, "value": 0}, "group": "control_change"}, {"time": 2756, "annotation": {"number": 64, "value": 127}, "group": "control_change"}, {"time": 2799, "annotation": {"number": 64, "value": 0}, "group": "control_change"}, {"time": 2807, "annotation": {"number": 64, "value": 127}, "group": "control_change"}, {"time": 2850, "annotation": {"number": 64, "value": 0}, "group": "control_change"}, {"time": 2854, "annotation": {"number": 64, "value": 127}, "group": "control_change"}, {"time": 2897, "annotation": {"number": 64, "value": 0}, "group": "control_change"}, {"time": 2902, "annotation": {"number": 64, "value": 127}, "group": "control_change"}, {"time": 2945, "annotation": {"number": 64, "value": 0}, "group": "control_change"}, {"time": 2950, "annotation": {"number": 64, "value": 127}, "group": "control_change"}, {"time": 2993, "annotation": {"number": 64, "value": 0}, "group": "control_change"}, {"time": 2996, "annotation": {"number": 64, "value": 127}, "group": "control_change"}, {"time": 3041, "annotation": {"number": 64, "value": 0}, "group": "control_change"}, {"time": 3044, "annotation": {"number": 64, "value": 127}, "group": "control_change"}, {"time": 3088, "annotation": {"number": 64, "value": 0}, "group": "control_change"}, {"time": 3091, "annotation": {"number": 64, "value": 127}, "group": "control_change"}, {"time": 3130, "annotation": {"number": 64, "value": 0}, "group": "control_change"}, {"time": 3140, "annotation": {"number": 64, "value": 127}, "group": "control_change"}, {"time": 3183, "annotation": {"number": 64, "value": 0}, "group": "control_change"}, {"time": 3191, "annotation": {"number": 64, "value": 127}, "group": "control_change"}, {"time": 3234, "annotation": {"number": 64, "value": 0}, "group": "control_change"}, {"time": 3238, "annotation": {"number": 64, "value": 127}, "group": "control_change"}, {"time": 3281, "annotation": {"number": 64, "value": 0}, "group": "control_change"}, {"time": 3286, "annotation": {"number": 64, "value": 127}, "group": "control_change"}, {"time": 3329, "annotation": {"number": 64, "value": 0}, "group": "control_change"}, {"time": 3334, "annotation": {"number": 64, "value": 127}, "group": "control_change"}, {"time": 3377, "annotation": {"number": 64, "value": 0}, "group": "control_change"}, {"time": 3380, "annotation": {"number": 64, "value": 127}, "group": "control_change"}, {"time": 3425, "annotation": {"number": 64, "value": 0}, "group": "control_change"}, {"time": 3428, "annotation": {"number": 64, "value": 127}, "group": "control_change"}, {"time": 3472, "annotation": {"number": 64, "value": 0}, "group": "control_change"}, {"time": 3475, "annotation": {"number": 64, "value": 127}, "group": "control_change"}, {"time": 3514, "annotation": {"number": 64, "value": 0}, "group": "control_change"}, {"time": 3526, "annotation": {"number": 64, "value": 127}, "group": "control_change"}, {"time": 3569, "annotation": {"number": 64, "value": 0}, "group": "control_change"}, {"time": 3572, "annotation": {"number": 64, "value": 127}, "group": "control_change"}, {"time": 3617, "annotation": {"number": 64, "value": 0}, "group": "control_change"}, {"time": 3621, "annotation": {"number": 64, "value": 127}, "group": "control_change"}, {"time": 3665, "annotation": {"number": 64, "value": 0}, "group": "control_change"}, {"time": 3668, "annotation": {"number": 64, "value": 127}, "group": "control_change"}, {"time": 3709, "annotation": {"number": 64, "value": 0}, "group": "control_change"}, {"time": 3718, "annotation": {"number": 64, "value": 127}, "group": "control_change"}, {"time": 3761, "annotation": {"number": 64, "value": 0}, "group": "control_change"}, {"time": 3764, "annotation": {"number": 64, "value": 127}, "group": "control_change"}, {"time": 3809, "annotation": {"number": 64, "value": 0}, "group": "control_change"}, {"time": 3813, "annotation": {"number": 64, "value": 127}, "group": "control_change"}, {"time": 3857, "annotation": {"number": 64, "value": 0}, "group": "control_change"}, {"time": 3860, "annotation": {"number": 64, "value": 127}, "group": "control_change"}, {"time": 3901, "annotation": {"number": 64, "value": 0}, "group": "control_change"}, {"time": 3910, "annotation": {"number": 64, "value": 127}, "group": "control_change"}, {"time": 3953, "annotation": {"number": 64, "value": 0}, "group": "control_change"}, {"time": 3956, "annotation": {"number": 64, "value": 127}, "group": "control_change"}, {"time": 4001, "annotation": {"number": 64, "value": 0}, "group": "control_change"}, {"time": 4005, "annotation": {"number": 64, "value": 127}, "group": "control_change"}, {"time": 4049, "annotation": {"number": 64, "value": 0}, "group": "control_change"}, {"time": 4052, "annotation": {"number": 64, "value": 127}, "group": "control_change"}, {"time": 4093, "annotation": {"number": 64, "value": 0}, "group": "control_change"}, {"time": 4102, "annotation": {"number": 64, "value": 127}, "group": "control_change"}, {"time": 4145, "annotation": {"number": 64, "value": 0}, "group": "control_change"}, {"time": 4148, "annotation": {"number": 64, "value": 127}, "group": "control_change"}, {"time": 4193, "annotation": {"number": 64, "value": 0}, "group": "control_change"}, {"time": 4197, "annotation": {"number": 64, "value": 127}, "group": "control_change"}, {"time": 4241, "annotation": {"number": 64, "value": 0}, "group": "control_change"}, {"time": 4244, "annotation": {"number": 64, "value": 127}, "group": "control_change"}, {"time": 4285, "annotation": {"number": 64, "value": 0}, "group": "control_change"}, {"time": 4294, "annotation": {"number": 64, "value": 127}, "group": "control_change"}, {"time": 4337, "annotation": {"number": 64, "value": 0}, "group": "control_change"}, {"time": 4340, "annotation": {"number": 64, "value": 127}, "group": "control_change"}, {"time": 4385, "annotation": {"number": 64, "value": 0}, "group": "control_change"}, {"time": 4389, "annotation": {"number": 64, "value": 127}, "group": "control_change"}, {"time": 4433, "annotation": {"number": 64, "value": 0}, "group": "control_change"}, {"time": 4436, "annotation": {"number": 64, "value": 127}, "group": "control_change"}, {"time": 4477, "annotation": {"number": 64, "value": 0}, "group": "control_change"}, {"time": 4486, "annotation": {"number": 64, "value": 127}, "group": "control_change"}, {"time": 4529, "annotation": {"number": 64, "value": 0}, "group": "control_change"}, {"time": 4532, "annotation": {"number": 64, "value": 127}, "group": "control_change"}, {"time": 4577, "annotation": {"number": 64, "value": 0}, "group": "control_change"}, {"time": 4581, "annotation": {"number": 64, "value": 127}, "group": "control_change"}, {"time": 4625, "annotation": {"number": 64, "value": 0}, "group": "control_change"}, {"time": 4628, "annotation": {"number": 64, "value": 127}, "group": "control_change"}, {"time": 4669, "annotation": {"number": 64, "value": 0}, "group": "control_change"}]}]}