{"metadata": {"schema_version": "0.2", "title": "None", "source_filename": "439.mid", "source_format": "midi"}, "resolution": 12, "tempos": [{"time": 0, "qpm": 67.00002903334591}, {"time": 265, "qpm": 66.75003003751351}, {"time": 275, "qpm": 65.25001631250407}, {"time": 295, "qpm": 63.50005979588964}, {"time": 312, "qpm": 67.00002903334591}, {"time": 539, "qpm": 66.000066000066}, {"time": 672, "qpm": 66.50004710420004}, {"time": 696, "qpm": 67.00002903334591}, {"time": 779, "qpm": 66.50004710420004}, {"time": 935, "qpm": 67.00002903334591}, {"time": 1055, "qpm": 66.000066000066}, {"time": 1079, "qpm": 66.50004710420004}, {"time": 1250, "qpm": 67.00002903334591}, {"time": 1355, "qpm": 66.50004710420004}, {"time": 1548, "qpm": 66.8000440880291}, {"time": 1752, "qpm": 66.40003364268371}, {"time": 1920, "qpm": 66.70001667500416}, {"time": 2808, "qpm": 66.50004710420004}, {"time": 3003, "qpm": 66.70001667500416}], "time_signatures": [{"time": 0, "numerator": 1, "denominator": 4}], "tracks": [{"program": 0, "is_drum": false, "name": "MELODY", "notes": [{"time": 322, "pitch": 71, "duration": 2, "velocity": 93}, {"time": 325, "pitch": 71, "duration": 2, "velocity": 94}, {"time": 328, "pitch": 71, "duration": 2, "velocity": 93}, {"time": 331, "pitch": 71, "duration": 2, "velocity": 93}, {"time": 334, "pitch": 71, "duration": 5, "velocity": 93}, {"time": 340, "pitch": 69, "duration": 6, "velocity": 88}, {"time": 346, "pitch": 68, "duration": 8, "velocity": 93}, {"time": 352, "pitch": 66, "duration": 5, "velocity": 93}, {"time": 358, "pitch": 66, "duration": 6, "velocity": 94}, {"time": 364, "pitch": 64, "duration": 2, "velocity": 95}, {"time": 367, "pitch": 64, "duration": 27, "velocity": 95}, {"time": 418, "pitch": 64, "duration": 2, "velocity": 94}, {"time": 421, "pitch": 64, "duration": 2, "velocity": 93}, {"time": 424, "pitch": 64, "duration": 2, "velocity": 93}, {"time": 427, "pitch": 64, "duration": 2, "velocity": 91}, {"time": 430, "pitch": 66, "duration": 10, "velocity": 93}, {"time": 442, "pitch": 66, "duration": 6, "velocity": 90}, {"time": 448, "pitch": 64, "duration": 5, "velocity": 95}, {"time": 454, "pitch": 68, "duration": 38, "velocity": 85}, {"time": 514, "pitch": 71, "duration": 2, "velocity": 94}, {"time": 517, "pitch": 71, "duration": 2, "velocity": 94}, {"time": 520, "pitch": 71, "duration": 2, "velocity": 94}, {"time": 523, "pitch": 71, "duration": 7, "velocity": 96}, {"time": 532, "pitch": 71, "duration": 5, "velocity": 99}, {"time": 538, "pitch": 73, "duration": 5, "velocity": 94}, {"time": 544, "pitch": 75, "duration": 2, "velocity": 94}, {"time": 547, "pitch": 76, "duration": 25, "velocity": 94}, {"time": 586, "pitch": 68, "duration": 5, "velocity": 97}, {"time": 592, "pitch": 69, "duration": 2, "velocity": 94}, {"time": 595, "pitch": 71, "duration": 8, "velocity": 95}, {"time": 604, "pitch": 64, "duration": 5, "velocity": 100}, {"time": 610, "pitch": 68, "duration": 5, "velocity": 94}, {"time": 616, "pitch": 69, "duration": 2, "velocity": 93}, {"time": 619, "pitch": 71, "duration": 8, "velocity": 92}, {"time": 628, "pitch": 64, "duration": 6, "velocity": 97}, {"time": 640, "pitch": 63, "duration": 3, "velocity": 93}, {"time": 643, "pitch": 64, "duration": 2, "velocity": 95}, {"time": 646, "pitch": 66, "duration": 6, "velocity": 97}, {"time": 652, "pitch": 64, "duration": 30, "velocity": 95}, {"time": 706, "pitch": 71, "duration": 2, "velocity": 93}, {"time": 709, "pitch": 71, "duration": 2, "velocity": 94}, {"time": 712, "pitch": 71, "duration": 2, "velocity": 93}, {"time": 715, "pitch": 71, "duration": 2, "velocity": 93}, {"time": 718, "pitch": 71, "duration": 5, "velocity": 93}, {"time": 724, "pitch": 69, "duration": 6, "velocity": 88}, {"time": 730, "pitch": 68, "duration": 8, "velocity": 93}, {"time": 736, "pitch": 66, "duration": 5, "velocity": 93}, {"time": 742, "pitch": 68, "duration": 27, "velocity": 94}, {"time": 802, "pitch": 64, "duration": 2, "velocity": 94}, {"time": 805, "pitch": 64, "duration": 2, "velocity": 93}, {"time": 808, "pitch": 64, "duration": 2, "velocity": 93}, {"time": 811, "pitch": 64, "duration": 2, "velocity": 91}, {"time": 814, "pitch": 66, "duration": 7, "velocity": 93}, {"time": 821, "pitch": 66, "duration": 3, "velocity": 93}, {"time": 823, "pitch": 66, "duration": 1, "velocity": 90}, {"time": 832, "pitch": 64, "duration": 5, "velocity": 95}, {"time": 838, "pitch": 68, "duration": 5, "velocity": 95}, {"time": 844, "pitch": 71, "duration": 38, "velocity": 85}, {"time": 898, "pitch": 71, "duration": 2, "velocity": 94}, {"time": 901, "pitch": 71, "duration": 2, "velocity": 94}, {"time": 904, "pitch": 71, "duration": 2, "velocity": 94}, {"time": 907, "pitch": 71, "duration": 7, "velocity": 96}, {"time": 916, "pitch": 71, "duration": 5, "velocity": 99}, {"time": 922, "pitch": 73, "duration": 5, "velocity": 94}, {"time": 928, "pitch": 75, "duration": 2, "velocity": 94}, {"time": 931, "pitch": 76, "duration": 25, "velocity": 94}, {"time": 970, "pitch": 68, "duration": 5, "velocity": 97}, {"time": 976, "pitch": 69, "duration": 2, "velocity": 94}, {"time": 979, "pitch": 71, "duration": 8, "velocity": 95}, {"time": 988, "pitch": 64, "duration": 5, "velocity": 100}, {"time": 994, "pitch": 68, "duration": 5, "velocity": 94}, {"time": 1000, "pitch": 69, "duration": 2, "velocity": 93}, {"time": 1003, "pitch": 71, "duration": 8, "velocity": 92}, {"time": 1012, "pitch": 64, "duration": 6, "velocity": 97}, {"time": 1024, "pitch": 63, "duration": 3, "velocity": 93}, {"time": 1027, "pitch": 64, "duration": 2, "velocity": 95}, {"time": 1030, "pitch": 66, "duration": 6, "velocity": 97}, {"time": 1036, "pitch": 64, "duration": 30, "velocity": 95}, {"time": 1066, "pitch": 68, "duration": 4, "velocity": 99}, {"time": 1069, "pitch": 66, "duration": 4, "velocity": 98}, {"time": 1075, "pitch": 64, "duration": 3, "velocity": 97}, {"time": 1078, "pitch": 64, "duration": 8, "velocity": 100}, {"time": 1090, "pitch": 73, "duration": 5, "velocity": 97}, {"time": 1096, "pitch": 75, "duration": 2, "velocity": 93}, {"time": 1099, "pitch": 73, "duration": 9, "velocity": 100}, {"time": 1108, "pitch": 71, "duration": 8, "velocity": 97}, {"time": 1123, "pitch": 68, "duration": 2, "velocity": 97}, {"time": 1126, "pitch": 73, "duration": 10, "velocity": 94}, {"time": 1138, "pitch": 71, "duration": 6, "velocity": 93}, {"time": 1144, "pitch": 73, "duration": 3, "velocity": 97}, {"time": 1147, "pitch": 68, "duration": 13, "velocity": 89}, {"time": 1162, "pitch": 68, "duration": 4, "velocity": 95}, {"time": 1166, "pitch": 66, "duration": 3, "velocity": 93}, {"time": 1170, "pitch": 64, "duration": 2, "velocity": 97}, {"time": 1174, "pitch": 64, "duration": 9, "velocity": 99}, {"time": 1186, "pitch": 73, "duration": 5, "velocity": 97}, {"time": 1192, "pitch": 75, "duration": 2, "velocity": 97}, {"time": 1195, "pitch": 73, "duration": 9, "velocity": 100}, {"time": 1204, "pitch": 71, "duration": 12, "velocity": 97}, {"time": 1216, "pitch": 68, "duration": 3, "velocity": 97}, {"time": 1219, "pitch": 69, "duration": 2, "velocity": 94}, {"time": 1222, "pitch": 71, "duration": 4, "velocity": 104}, {"time": 1226, "pitch": 69, "duration": 4, "velocity": 99}, {"time": 1230, "pitch": 68, "duration": 3, "velocity": 95}, {"time": 1234, "pitch": 69, "duration": 3, "velocity": 94}, {"time": 1238, "pitch": 68, "duration": 4, "velocity": 95}, {"time": 1242, "pitch": 69, "duration": 3, "velocity": 94}, {"time": 1246, "pitch": 71, "duration": 3, "velocity": 95}, {"time": 1250, "pitch": 69, "duration": 3, "velocity": 94}, {"time": 1254, "pitch": 68, "duration": 3, "velocity": 97}, {"time": 1258, "pitch": 69, "duration": 4, "velocity": 96}, {"time": 1264, "pitch": 68, "duration": 3, "velocity": 102}, {"time": 1267, "pitch": 69, "duration": 2, "velocity": 94}, {"time": 1270, "pitch": 73, "duration": 6, "velocity": 100}, {"time": 1276, "pitch": 71, "duration": 2, "velocity": 97}, {"time": 1279, "pitch": 73, "duration": 7, "velocity": 97}, {"time": 1288, "pitch": 71, "duration": 26, "velocity": 99}, {"time": 1318, "pitch": 76, "duration": 10, "velocity": 100}, {"time": 1330, "pitch": 78, "duration": 10, "velocity": 97}, {"time": 1342, "pitch": 80, "duration": 5, "velocity": 99}, {"time": 1348, "pitch": 81, "duration": 2, "velocity": 94}, {"time": 1351, "pitch": 80, "duration": 9, "velocity": 99}, {"time": 1360, "pitch": 78, "duration": 5, "velocity": 94}, {"time": 1366, "pitch": 76, "duration": 14, "velocity": 99}, {"time": 1384, "pitch": 76, "duration": 5, "velocity": 95}, {"time": 1390, "pitch": 75, "duration": 5, "velocity": 97}, {"time": 1396, "pitch": 76, "duration": 3, "velocity": 99}, {"time": 1399, "pitch": 78, "duration": 8, "velocity": 97}, {"time": 1408, "pitch": 75, "duration": 6, "velocity": 97}, {"time": 1414, "pitch": 76, "duration": 14, "velocity": 98}, {"time": 1432, "pitch": 76, "duration": 5, "velocity": 99}, {"time": 1438, "pitch": 75, "duration": 5, "velocity": 97}, {"time": 1444, "pitch": 76, "duration": 2, "velocity": 97}, {"time": 1447, "pitch": 75, "duration": 5, "velocity": 100}, {"time": 1453, "pitch": 73, "duration": 2, "velocity": 95}, {"time": 1456, "pitch": 71, "duration": 6, "velocity": 100}, {"time": 1462, "pitch": 76, "duration": 13, "velocity": 99}, {"time": 1480, "pitch": 73, "duration": 2, "velocity": 93}, {"time": 1483, "pitch": 73, "duration": 3, "velocity": 93}, {"time": 1486, "pitch": 71, "duration": 6, "velocity": 104}, {"time": 1492, "pitch": 75, "duration": 2, "velocity": 99}, {"time": 1495, "pitch": 76, "duration": 8, "velocity": 85}, {"time": 1507, "pitch": 71, "duration": 3, "velocity": 107}, {"time": 1510, "pitch": 73, "duration": 4, "velocity": 99}, {"time": 1515, "pitch": 75, "duration": 2, "velocity": 96}, {"time": 1518, "pitch": 76, "duration": 3, "velocity": 97}, {"time": 1522, "pitch": 76, "duration": 4, "velocity": 100}, {"time": 1526, "pitch": 75, "duration": 4, "velocity": 100}, {"time": 1530, "pitch": 73, "duration": 3, "velocity": 94}, {"time": 1534, "pitch": 76, "duration": 4, "velocity": 98}, {"time": 1540, "pitch": 76, "duration": 6, "velocity": 104}, {"time": 1546, "pitch": 71, "duration": 4, "velocity": 104}, {"time": 1549, "pitch": 73, "duration": 3, "velocity": 97}, {"time": 1555, "pitch": 75, "duration": 3, "velocity": 104}, {"time": 1558, "pitch": 76, "duration": 14, "velocity": 99}, {"time": 1576, "pitch": 76, "duration": 5, "velocity": 95}, {"time": 1582, "pitch": 75, "duration": 5, "velocity": 97}, {"time": 1588, "pitch": 76, "duration": 3, "velocity": 99}, {"time": 1591, "pitch": 78, "duration": 8, "velocity": 97}, {"time": 1600, "pitch": 75, "duration": 6, "velocity": 97}, {"time": 1606, "pitch": 76, "duration": 14, "velocity": 98}, {"time": 1624, "pitch": 76, "duration": 5, "velocity": 99}, {"time": 1630, "pitch": 75, "duration": 5, "velocity": 97}, {"time": 1636, "pitch": 76, "duration": 2, "velocity": 97}, {"time": 1639, "pitch": 75, "duration": 5, "velocity": 100}, {"time": 1645, "pitch": 73, "duration": 2, "velocity": 95}, {"time": 1648, "pitch": 71, "duration": 6, "velocity": 100}, {"time": 1654, "pitch": 76, "duration": 13, "velocity": 99}, {"time": 1672, "pitch": 73, "duration": 2, "velocity": 93}, {"time": 1675, "pitch": 73, "duration": 3, "velocity": 93}, {"time": 1678, "pitch": 71, "duration": 6, "velocity": 104}, {"time": 1684, "pitch": 75, "duration": 2, "velocity": 99}, {"time": 1687, "pitch": 76, "duration": 8, "velocity": 85}, {"time": 1699, "pitch": 71, "duration": 3, "velocity": 107}, {"time": 1702, "pitch": 73, "duration": 4, "velocity": 99}, {"time": 1708, "pitch": 76, "duration": 2, "velocity": 97}, {"time": 1711, "pitch": 76, "duration": 8, "velocity": 96}, {"time": 1720, "pitch": 73, "duration": 2, "velocity": 97}, {"time": 1723, "pitch": 73, "duration": 2, "velocity": 95}, {"time": 1726, "pitch": 76, "duration": 4, "velocity": 100}, {"time": 1732, "pitch": 76, "duration": 5, "velocity": 97}, {"time": 1738, "pitch": 75, "duration": 4, "velocity": 104}, {"time": 1741, "pitch": 76, "duration": 2, "velocity": 102}, {"time": 1744, "pitch": 78, "duration": 4, "velocity": 95}, {"time": 1750, "pitch": 78, "duration": 6, "velocity": 99}, {"time": 1756, "pitch": 76, "duration": 40, "velocity": 104}, {"time": 2194, "pitch": 71, "duration": 2, "velocity": 93}, {"time": 2197, "pitch": 71, "duration": 2, "velocity": 94}, {"time": 2200, "pitch": 71, "duration": 2, "velocity": 93}, {"time": 2203, "pitch": 71, "duration": 2, "velocity": 93}, {"time": 2206, "pitch": 71, "duration": 5, "velocity": 93}, {"time": 2212, "pitch": 69, "duration": 6, "velocity": 88}, {"time": 2218, "pitch": 68, "duration": 8, "velocity": 93}, {"time": 2224, "pitch": 66, "duration": 5, "velocity": 93}, {"time": 2230, "pitch": 68, "duration": 27, "velocity": 94}, {"time": 2290, "pitch": 64, "duration": 2, "velocity": 94}, {"time": 2293, "pitch": 64, "duration": 2, "velocity": 93}, {"time": 2296, "pitch": 64, "duration": 2, "velocity": 93}, {"time": 2299, "pitch": 64, "duration": 2, "velocity": 91}, {"time": 2302, "pitch": 66, "duration": 7, "velocity": 93}, {"time": 2309, "pitch": 66, "duration": 3, "velocity": 93}, {"time": 2311, "pitch": 66, "duration": 1, "velocity": 90}, {"time": 2320, "pitch": 64, "duration": 5, "velocity": 95}, {"time": 2326, "pitch": 68, "duration": 5, "velocity": 95}, {"time": 2332, "pitch": 71, "duration": 38, "velocity": 85}, {"time": 2386, "pitch": 71, "duration": 2, "velocity": 94}, {"time": 2389, "pitch": 71, "duration": 2, "velocity": 94}, {"time": 2392, "pitch": 71, "duration": 2, "velocity": 94}, {"time": 2395, "pitch": 71, "duration": 7, "velocity": 96}, {"time": 2404, "pitch": 71, "duration": 5, "velocity": 99}, {"time": 2410, "pitch": 73, "duration": 5, "velocity": 94}, {"time": 2416, "pitch": 75, "duration": 2, "velocity": 94}, {"time": 2419, "pitch": 76, "duration": 25, "velocity": 94}, {"time": 2458, "pitch": 68, "duration": 5, "velocity": 97}, {"time": 2464, "pitch": 69, "duration": 2, "velocity": 94}, {"time": 2467, "pitch": 71, "duration": 8, "velocity": 95}, {"time": 2476, "pitch": 64, "duration": 5, "velocity": 100}, {"time": 2482, "pitch": 68, "duration": 5, "velocity": 94}, {"time": 2488, "pitch": 69, "duration": 2, "velocity": 93}, {"time": 2491, "pitch": 71, "duration": 8, "velocity": 92}, {"time": 2500, "pitch": 64, "duration": 6, "velocity": 97}, {"time": 2512, "pitch": 63, "duration": 3, "velocity": 93}, {"time": 2515, "pitch": 64, "duration": 2, "velocity": 95}, {"time": 2518, "pitch": 66, "duration": 6, "velocity": 97}, {"time": 2524, "pitch": 64, "duration": 30, "velocity": 95}, {"time": 2554, "pitch": 68, "duration": 4, "velocity": 99}, {"time": 2557, "pitch": 66, "duration": 4, "velocity": 98}, {"time": 2563, "pitch": 64, "duration": 3, "velocity": 97}, {"time": 2566, "pitch": 64, "duration": 8, "velocity": 100}, {"time": 2578, "pitch": 73, "duration": 5, "velocity": 97}, {"time": 2584, "pitch": 75, "duration": 2, "velocity": 93}, {"time": 2587, "pitch": 73, "duration": 9, "velocity": 100}, {"time": 2596, "pitch": 71, "duration": 8, "velocity": 97}, {"time": 2611, "pitch": 68, "duration": 2, "velocity": 97}, {"time": 2614, "pitch": 73, "duration": 10, "velocity": 94}, {"time": 2626, "pitch": 71, "duration": 6, "velocity": 93}, {"time": 2632, "pitch": 73, "duration": 3, "velocity": 97}, {"time": 2635, "pitch": 68, "duration": 13, "velocity": 89}, {"time": 2650, "pitch": 68, "duration": 4, "velocity": 95}, {"time": 2654, "pitch": 66, "duration": 3, "velocity": 93}, {"time": 2658, "pitch": 64, "duration": 2, "velocity": 97}, {"time": 2662, "pitch": 64, "duration": 9, "velocity": 99}, {"time": 2674, "pitch": 73, "duration": 5, "velocity": 97}, {"time": 2680, "pitch": 75, "duration": 2, "velocity": 97}, {"time": 2683, "pitch": 73, "duration": 9, "velocity": 100}, {"time": 2692, "pitch": 71, "duration": 12, "velocity": 97}, {"time": 2704, "pitch": 68, "duration": 3, "velocity": 97}, {"time": 2707, "pitch": 69, "duration": 2, "velocity": 94}, {"time": 2710, "pitch": 71, "duration": 4, "velocity": 104}, {"time": 2714, "pitch": 69, "duration": 4, "velocity": 99}, {"time": 2718, "pitch": 68, "duration": 3, "velocity": 95}, {"time": 2722, "pitch": 69, "duration": 3, "velocity": 94}, {"time": 2726, "pitch": 68, "duration": 4, "velocity": 95}, {"time": 2730, "pitch": 69, "duration": 3, "velocity": 94}, {"time": 2734, "pitch": 71, "duration": 3, "velocity": 95}, {"time": 2738, "pitch": 69, "duration": 3, "velocity": 94}, {"time": 2742, "pitch": 68, "duration": 3, "velocity": 97}, {"time": 2746, "pitch": 69, "duration": 4, "velocity": 96}, {"time": 2752, "pitch": 68, "duration": 3, "velocity": 102}, {"time": 2755, "pitch": 69, "duration": 2, "velocity": 94}, {"time": 2758, "pitch": 73, "duration": 6, "velocity": 100}, {"time": 2764, "pitch": 71, "duration": 2, "velocity": 97}, {"time": 2767, "pitch": 73, "duration": 7, "velocity": 97}, {"time": 2776, "pitch": 71, "duration": 26, "velocity": 99}, {"time": 2806, "pitch": 76, "duration": 10, "velocity": 100}, {"time": 2818, "pitch": 78, "duration": 10, "velocity": 97}, {"time": 2830, "pitch": 80, "duration": 5, "velocity": 99}, {"time": 2836, "pitch": 81, "duration": 2, "velocity": 94}, {"time": 2839, "pitch": 80, "duration": 9, "velocity": 99}, {"time": 2848, "pitch": 78, "duration": 5, "velocity": 94}, {"time": 2854, "pitch": 76, "duration": 14, "velocity": 99}, {"time": 2872, "pitch": 76, "duration": 5, "velocity": 95}, {"time": 2878, "pitch": 75, "duration": 5, "velocity": 97}, {"time": 2884, "pitch": 76, "duration": 3, "velocity": 99}, {"time": 2887, "pitch": 78, "duration": 8, "velocity": 97}, {"time": 2896, "pitch": 75, "duration": 6, "velocity": 97}, {"time": 2902, "pitch": 76, "duration": 14, "velocity": 98}, {"time": 2920, "pitch": 76, "duration": 5, "velocity": 99}, {"time": 2926, "pitch": 75, "duration": 5, "velocity": 97}, {"time": 2932, "pitch": 76, "duration": 2, "velocity": 97}, {"time": 2935, "pitch": 75, "duration": 5, "velocity": 100}, {"time": 2941, "pitch": 73, "duration": 2, "velocity": 95}, {"time": 2944, "pitch": 71, "duration": 6, "velocity": 100}, {"time": 2950, "pitch": 76, "duration": 13, "velocity": 99}, {"time": 2968, "pitch": 73, "duration": 2, "velocity": 93}, {"time": 2971, "pitch": 73, "duration": 3, "velocity": 93}, {"time": 2974, "pitch": 71, "duration": 6, "velocity": 104}, {"time": 2980, "pitch": 75, "duration": 2, "velocity": 99}, {"time": 2983, "pitch": 76, "duration": 8, "velocity": 85}, {"time": 2995, "pitch": 71, "duration": 3, "velocity": 107}, {"time": 2998, "pitch": 73, "duration": 4, "velocity": 99}, {"time": 3003, "pitch": 75, "duration": 2, "velocity": 96}, {"time": 3006, "pitch": 76, "duration": 3, "velocity": 97}, {"time": 3010, "pitch": 76, "duration": 4, "velocity": 100}, {"time": 3014, "pitch": 75, "duration": 4, "velocity": 100}, {"time": 3018, "pitch": 73, "duration": 3, "velocity": 94}, {"time": 3022, "pitch": 76, "duration": 4, "velocity": 98}, {"time": 3028, "pitch": 76, "duration": 6, "velocity": 104}, {"time": 3034, "pitch": 71, "duration": 4, "velocity": 104}, {"time": 3037, "pitch": 73, "duration": 3, "velocity": 97}, {"time": 3043, "pitch": 75, "duration": 3, "velocity": 104}, {"time": 3046, "pitch": 76, "duration": 14, "velocity": 99}, {"time": 3064, "pitch": 76, "duration": 5, "velocity": 95}, {"time": 3070, "pitch": 75, "duration": 5, "velocity": 97}, {"time": 3076, "pitch": 76, "duration": 3, "velocity": 99}, {"time": 3079, "pitch": 78, "duration": 8, "velocity": 97}, {"time": 3088, "pitch": 75, "duration": 6, "velocity": 97}, {"time": 3094, "pitch": 76, "duration": 14, "velocity": 98}, {"time": 3112, "pitch": 76, "duration": 5, "velocity": 99}, {"time": 3118, "pitch": 75, "duration": 5, "velocity": 97}, {"time": 3124, "pitch": 76, "duration": 2, "velocity": 97}, {"time": 3127, "pitch": 75, "duration": 5, "velocity": 100}, {"time": 3133, "pitch": 73, "duration": 2, "velocity": 95}, {"time": 3136, "pitch": 71, "duration": 6, "velocity": 100}, {"time": 3142, "pitch": 76, "duration": 13, "velocity": 99}, {"time": 3160, "pitch": 73, "duration": 2, "velocity": 93}, {"time": 3163, "pitch": 73, "duration": 3, "velocity": 93}, {"time": 3166, "pitch": 71, "duration": 6, "velocity": 104}, {"time": 3172, "pitch": 75, "duration": 2, "velocity": 99}, {"time": 3175, "pitch": 76, "duration": 8, "velocity": 85}, {"time": 3187, "pitch": 71, "duration": 3, "velocity": 107}, {"time": 3190, "pitch": 73, "duration": 4, "velocity": 99}, {"time": 3196, "pitch": 76, "duration": 2, "velocity": 97}, {"time": 3199, "pitch": 76, "duration": 8, "velocity": 96}, {"time": 3208, "pitch": 73, "duration": 2, "velocity": 97}, {"time": 3211, "pitch": 73, "duration": 2, "velocity": 95}, {"time": 3214, "pitch": 76, "duration": 4, "velocity": 100}, {"time": 3220, "pitch": 76, "duration": 5, "velocity": 97}, {"time": 3226, "pitch": 75, "duration": 4, "velocity": 104}, {"time": 3229, "pitch": 76, "duration": 2, "velocity": 102}, {"time": 3232, "pitch": 78, "duration": 4, "velocity": 95}, {"time": 3238, "pitch": 78, "duration": 6, "velocity": 99}, {"time": 3244, "pitch": 76, "duration": 40, "velocity": 104}, {"time": 3286, "pitch": 77, "duration": 14, "velocity": 99}, {"time": 3304, "pitch": 77, "duration": 5, "velocity": 95}, {"time": 3310, "pitch": 76, "duration": 5, "velocity": 97}, {"time": 3316, "pitch": 77, "duration": 3, "velocity": 99}, {"time": 3319, "pitch": 79, "duration": 8, "velocity": 97}, {"time": 3328, "pitch": 76, "duration": 6, "velocity": 97}, {"time": 3334, "pitch": 77, "duration": 14, "velocity": 98}, {"time": 3352, "pitch": 77, "duration": 5, "velocity": 99}, {"time": 3358, "pitch": 76, "duration": 5, "velocity": 97}, {"time": 3364, "pitch": 77, "duration": 2, "velocity": 97}, {"time": 3367, "pitch": 76, "duration": 5, "velocity": 100}, {"time": 3373, "pitch": 74, "duration": 2, "velocity": 95}, {"time": 3376, "pitch": 72, "duration": 6, "velocity": 100}, {"time": 3382, "pitch": 77, "duration": 13, "velocity": 99}, {"time": 3400, "pitch": 74, "duration": 2, "velocity": 93}, {"time": 3403, "pitch": 74, "duration": 3, "velocity": 93}, {"time": 3406, "pitch": 72, "duration": 6, "velocity": 104}, {"time": 3412, "pitch": 76, "duration": 2, "velocity": 99}, {"time": 3415, "pitch": 77, "duration": 8, "velocity": 85}, {"time": 3427, "pitch": 72, "duration": 3, "velocity": 107}, {"time": 3430, "pitch": 74, "duration": 4, "velocity": 99}, {"time": 3435, "pitch": 76, "duration": 2, "velocity": 96}, {"time": 3438, "pitch": 77, "duration": 3, "velocity": 97}, {"time": 3442, "pitch": 77, "duration": 4, "velocity": 100}, {"time": 3446, "pitch": 76, "duration": 4, "velocity": 100}, {"time": 3450, "pitch": 74, "duration": 3, "velocity": 94}, {"time": 3454, "pitch": 77, "duration": 4, "velocity": 98}, {"time": 3460, "pitch": 77, "duration": 6, "velocity": 104}, {"time": 3466, "pitch": 72, "duration": 4, "velocity": 104}, {"time": 3469, "pitch": 74, "duration": 3, "velocity": 97}, {"time": 3475, "pitch": 76, "duration": 3, "velocity": 104}, {"time": 3478, "pitch": 77, "duration": 14, "velocity": 99}, {"time": 3496, "pitch": 77, "duration": 5, "velocity": 95}, {"time": 3502, "pitch": 76, "duration": 5, "velocity": 97}, {"time": 3508, "pitch": 77, "duration": 3, "velocity": 99}, {"time": 3511, "pitch": 79, "duration": 8, "velocity": 97}, {"time": 3520, "pitch": 76, "duration": 6, "velocity": 97}, {"time": 3526, "pitch": 77, "duration": 14, "velocity": 98}, {"time": 3544, "pitch": 77, "duration": 5, "velocity": 99}, {"time": 3550, "pitch": 76, "duration": 5, "velocity": 97}, {"time": 3556, "pitch": 77, "duration": 2, "velocity": 97}, {"time": 3559, "pitch": 76, "duration": 5, "velocity": 100}, {"time": 3565, "pitch": 74, "duration": 2, "velocity": 95}, {"time": 3568, "pitch": 72, "duration": 6, "velocity": 100}, {"time": 3574, "pitch": 77, "duration": 13, "velocity": 99}, {"time": 3592, "pitch": 74, "duration": 2, "velocity": 93}, {"time": 3595, "pitch": 74, "duration": 3, "velocity": 93}, {"time": 3598, "pitch": 72, "duration": 6, "velocity": 104}, {"time": 3604, "pitch": 76, "duration": 2, "velocity": 99}, {"time": 3607, "pitch": 77, "duration": 8, "velocity": 85}, {"time": 3619, "pitch": 72, "duration": 3, "velocity": 107}, {"time": 3622, "pitch": 74, "duration": 4, "velocity": 99}, {"time": 3628, "pitch": 77, "duration": 2, "velocity": 97}, {"time": 3631, "pitch": 77, "duration": 8, "velocity": 96}, {"time": 3640, "pitch": 74, "duration": 2, "velocity": 97}, {"time": 3643, "pitch": 74, "duration": 2, "velocity": 95}, {"time": 3646, "pitch": 77, "duration": 4, "velocity": 100}, {"time": 3652, "pitch": 77, "duration": 5, "velocity": 97}, {"time": 3658, "pitch": 76, "duration": 4, "velocity": 104}, {"time": 3661, "pitch": 77, "duration": 2, "velocity": 102}, {"time": 3664, "pitch": 79, "duration": 4, "velocity": 95}, {"time": 3670, "pitch": 79, "duration": 6, "velocity": 99}, {"time": 3676, "pitch": 77, "duration": 40, "velocity": 104}]}, {"program": 0, "is_drum": false, "name": "PIANO", "notes": [{"time": 22, "pitch": 52, "duration": 15, "velocity": 86}, {"time": 22, "pitch": 64, "duration": 8, "velocity": 89}, {"time": 22, "pitch": 68, "duration": 11, "velocity": 82}, {"time": 28, "pitch": 59, "duration": 7, "velocity": 81}, {"time": 34, "pitch": 64, "duration": 6, "velocity": 91}, {"time": 40, "pitch": 59, "duration": 11, "velocity": 69}, {"time": 46, "pitch": 47, "duration": 15, "velocity": 92}, {"time": 46, "pitch": 63, "duration": 8, "velocity": 88}, {"time": 52, "pitch": 54, "duration": 10, "velocity": 81}, {"time": 58, "pitch": 63, "duration": 7, "velocity": 95}, {"time": 58, "pitch": 66, "duration": 6, "velocity": 88}, {"time": 64, "pitch": 59, "duration": 8, "velocity": 95}, {"time": 70, "pitch": 49, "duration": 16, "velocity": 87}, {"time": 70, "pitch": 61, "duration": 6, "velocity": 83}, {"time": 70, "pitch": 64, "duration": 10, "velocity": 89}, {"time": 76, "pitch": 56, "duration": 10, "velocity": 58}, {"time": 82, "pitch": 61, "duration": 5, "velocity": 92}, {"time": 82, "pitch": 64, "duration": 12, "velocity": 94}, {"time": 94, "pitch": 49, "duration": 5, "velocity": 94}, {"time": 94, "pitch": 61, "duration": 5, "velocity": 85}, {"time": 94, "pitch": 64, "duration": 4, "velocity": 95}, {"time": 94, "pitch": 68, "duration": 5, "velocity": 89}, {"time": 106, "pitch": 44, "duration": 6, "velocity": 92}, {"time": 106, "pitch": 56, "duration": 5, "velocity": 84}, {"time": 106, "pitch": 59, "duration": 5, "velocity": 92}, {"time": 106, "pitch": 63, "duration": 6, "velocity": 88}, {"time": 118, "pitch": 45, "duration": 17, "velocity": 93}, {"time": 118, "pitch": 57, "duration": 11, "velocity": 82}, {"time": 118, "pitch": 61, "duration": 10, "velocity": 82}, {"time": 118, "pitch": 64, "duration": 10, "velocity": 90}, {"time": 124, "pitch": 52, "duration": 11, "velocity": 86}, {"time": 130, "pitch": 61, "duration": 6, "velocity": 104}, {"time": 136, "pitch": 57, "duration": 2, "velocity": 98}, {"time": 142, "pitch": 44, "duration": 13, "velocity": 93}, {"time": 142, "pitch": 56, "duration": 13, "velocity": 86}, {"time": 142, "pitch": 59, "duration": 8, "velocity": 93}, {"time": 148, "pitch": 51, "duration": 8, "velocity": 76}, {"time": 154, "pitch": 59, "duration": 4, "velocity": 98}, {"time": 154, "pitch": 63, "duration": 6, "velocity": 94}, {"time": 166, "pitch": 38, "duration": 30, "velocity": 97}, {"time": 166, "pitch": 50, "duration": 8, "velocity": 85}, {"time": 166, "pitch": 54, "duration": 8, "velocity": 85}, {"time": 166, "pitch": 57, "duration": 30, "velocity": 79}, {"time": 172, "pitch": 45, "duration": 24, "velocity": 83}, {"time": 178, "pitch": 50, "duration": 18, "velocity": 100}, {"time": 184, "pitch": 54, "duration": 12, "velocity": 104}, {"time": 190, "pitch": 62, "duration": 9, "velocity": 94}, {"time": 208, "pitch": 50, "duration": 3, "velocity": 95}, {"time": 208, "pitch": 62, "duration": 4, "velocity": 93}, {"time": 211, "pitch": 49, "duration": 3, "velocity": 94}, {"time": 211, "pitch": 61, "duration": 3, "velocity": 96}, {"time": 214, "pitch": 47, "duration": 44, "velocity": 104}, {"time": 214, "pitch": 59, "duration": 13, "velocity": 95}, {"time": 220, "pitch": 54, "duration": 22, "velocity": 87}, {"time": 226, "pitch": 63, "duration": 8, "velocity": 102}, {"time": 232, "pitch": 66, "duration": 5, "velocity": 83}, {"time": 238, "pitch": 59, "duration": 9, "velocity": 91}, {"time": 238, "pitch": 63, "duration": 9, "velocity": 85}, {"time": 238, "pitch": 66, "duration": 13, "velocity": 89}, {"time": 238, "pitch": 71, "duration": 13, "velocity": 94}, {"time": 244, "pitch": 54, "duration": 12, "velocity": 81}, {"time": 250, "pitch": 63, "duration": 6, "velocity": 93}, {"time": 256, "pitch": 59, "duration": 5, "velocity": 85}, {"time": 262, "pitch": 47, "duration": 11, "velocity": 93}, {"time": 262, "pitch": 59, "duration": 4, "velocity": 87}, {"time": 262, "pitch": 63, "duration": 8, "velocity": 80}, {"time": 262, "pitch": 66, "duration": 8, "velocity": 83}, {"time": 268, "pitch": 59, "duration": 8, "velocity": 81}, {"time": 274, "pitch": 66, "duration": 10, "velocity": 82}, {"time": 280, "pitch": 59, "duration": 29, "velocity": 52}, {"time": 280, "pitch": 63, "duration": 4, "velocity": 76}, {"time": 286, "pitch": 63, "duration": 23, "velocity": 82}, {"time": 286, "pitch": 66, "duration": 23, "velocity": 73}, {"time": 286, "pitch": 71, "duration": 24, "velocity": 86}, {"time": 310, "pitch": 40, "duration": 15, "velocity": 88}, {"time": 310, "pitch": 64, "duration": 10, "velocity": 91}, {"time": 316, "pitch": 47, "duration": 8, "velocity": 77}, {"time": 316, "pitch": 59, "duration": 11, "velocity": 79}, {"time": 322, "pitch": 64, "duration": 4, "velocity": 88}, {"time": 322, "pitch": 68, "duration": 13, "velocity": 92}, {"time": 334, "pitch": 47, "duration": 16, "velocity": 93}, {"time": 334, "pitch": 63, "duration": 14, "velocity": 83}, {"time": 340, "pitch": 54, "duration": 9, "velocity": 80}, {"time": 346, "pitch": 66, "duration": 12, "velocity": 92}, {"time": 358, "pitch": 49, "duration": 15, "velocity": 94}, {"time": 358, "pitch": 64, "duration": 14, "velocity": 91}, {"time": 364, "pitch": 56, "duration": 12, "velocity": 77}, {"time": 370, "pitch": 61, "duration": 7, "velocity": 93}, {"time": 376, "pitch": 64, "duration": 15, "velocity": 82}, {"time": 394, "pitch": 61, "duration": 4, "velocity": 86}, {"time": 394, "pitch": 64, "duration": 11, "velocity": 93}, {"time": 406, "pitch": 45, "duration": 18, "velocity": 89}, {"time": 406, "pitch": 57, "duration": 11, "velocity": 77}, {"time": 406, "pitch": 61, "duration": 10, "velocity": 82}, {"time": 412, "pitch": 52, "duration": 13, "velocity": 77}, {"time": 418, "pitch": 61, "duration": 7, "velocity": 93}, {"time": 418, "pitch": 64, "duration": 9, "velocity": 94}, {"time": 424, "pitch": 57, "duration": 3, "velocity": 79}, {"time": 430, "pitch": 47, "duration": 15, "velocity": 87}, {"time": 430, "pitch": 59, "duration": 13, "velocity": 83}, {"time": 430, "pitch": 63, "duration": 13, "velocity": 82}, {"time": 436, "pitch": 54, "duration": 8, "velocity": 80}, {"time": 442, "pitch": 66, "duration": 5, "velocity": 87}, {"time": 454, "pitch": 40, "duration": 41, "velocity": 93}, {"time": 454, "pitch": 59, "duration": 8, "velocity": 78}, {"time": 454, "pitch": 64, "duration": 13, "velocity": 88}, {"time": 460, "pitch": 47, "duration": 10, "velocity": 76}, {"time": 466, "pitch": 59, "duration": 9, "velocity": 84}, {"time": 472, "pitch": 64, "duration": 3, "velocity": 89}, {"time": 478, "pitch": 59, "duration": 8, "velocity": 78}, {"time": 478, "pitch": 64, "duration": 7, "velocity": 86}, {"time": 478, "pitch": 68, "duration": 9, "velocity": 78}, {"time": 484, "pitch": 47, "duration": 9, "velocity": 55}, {"time": 490, "pitch": 64, "duration": 5, "velocity": 89}, {"time": 496, "pitch": 59, "duration": 7, "velocity": 67}, {"time": 502, "pitch": 40, "duration": 15, "velocity": 94}, {"time": 502, "pitch": 64, "duration": 7, "velocity": 92}, {"time": 502, "pitch": 68, "duration": 12, "velocity": 81}, {"time": 508, "pitch": 47, "duration": 8, "velocity": 71}, {"time": 514, "pitch": 59, "duration": 3, "velocity": 90}, {"time": 514, "pitch": 64, "duration": 6, "velocity": 93}, {"time": 520, "pitch": 59, "duration": 19, "velocity": 88}, {"time": 526, "pitch": 47, "duration": 18, "velocity": 92}, {"time": 526, "pitch": 63, "duration": 9, "velocity": 85}, {"time": 532, "pitch": 54, "duration": 9, "velocity": 79}, {"time": 538, "pitch": 63, "duration": 5, "velocity": 89}, {"time": 538, "pitch": 66, "duration": 5, "velocity": 86}, {"time": 544, "pitch": 59, "duration": 3, "velocity": 74}, {"time": 550, "pitch": 49, "duration": 37, "velocity": 96}, {"time": 550, "pitch": 61, "duration": 9, "velocity": 84}, {"time": 550, "pitch": 64, "duration": 9, "velocity": 94}, {"time": 556, "pitch": 56, "duration": 23, "velocity": 78}, {"time": 562, "pitch": 61, "duration": 10, "velocity": 94}, {"time": 568, "pitch": 64, "duration": 4, "velocity": 89}, {"time": 574, "pitch": 61, "duration": 2, "velocity": 64}, {"time": 574, "pitch": 64, "duration": 6, "velocity": 81}, {"time": 580, "pitch": 56, "duration": 7, "velocity": 56}, {"time": 586, "pitch": 61, "duration": 6, "velocity": 93}, {"time": 586, "pitch": 64, "duration": 13, "velocity": 94}, {"time": 592, "pitch": 44, "duration": 5, "velocity": 83}, {"time": 598, "pitch": 45, "duration": 21, "velocity": 86}, {"time": 598, "pitch": 57, "duration": 13, "velocity": 86}, {"time": 598, "pitch": 61, "duration": 9, "velocity": 88}, {"time": 604, "pitch": 52, "duration": 16, "velocity": 81}, {"time": 610, "pitch": 61, "duration": 9, "velocity": 81}, {"time": 610, "pitch": 64, "duration": 10, "velocity": 93}, {"time": 622, "pitch": 47, "duration": 15, "velocity": 94}, {"time": 622, "pitch": 59, "duration": 13, "velocity": 84}, {"time": 622, "pitch": 63, "duration": 9, "velocity": 81}, {"time": 628, "pitch": 54, "duration": 7, "velocity": 81}, {"time": 634, "pitch": 63, "duration": 9, "velocity": 93}, {"time": 634, "pitch": 66, "duration": 12, "velocity": 94}, {"time": 646, "pitch": 40, "duration": 47, "velocity": 94}, {"time": 646, "pitch": 59, "duration": 10, "velocity": 86}, {"time": 646, "pitch": 64, "duration": 10, "velocity": 89}, {"time": 652, "pitch": 47, "duration": 8, "velocity": 68}, {"time": 658, "pitch": 59, "duration": 7, "velocity": 83}, {"time": 658, "pitch": 64, "duration": 7, "velocity": 79}, {"time": 664, "pitch": 47, "duration": 8, "velocity": 70}, {"time": 670, "pitch": 64, "duration": 6, "velocity": 89}, {"time": 670, "pitch": 68, "duration": 7, "velocity": 84}, {"time": 676, "pitch": 47, "duration": 9, "velocity": 60}, {"time": 682, "pitch": 64, "duration": 12, "velocity": 97}, {"time": 682, "pitch": 68, "duration": 12, "velocity": 95}, {"time": 688, "pitch": 59, "duration": 7, "velocity": 94}, {"time": 694, "pitch": 40, "duration": 15, "velocity": 94}, {"time": 694, "pitch": 59, "duration": 1, "velocity": 91}, {"time": 694, "pitch": 64, "duration": 7, "velocity": 94}, {"time": 700, "pitch": 59, "duration": 7, "velocity": 86}, {"time": 706, "pitch": 64, "duration": 5, "velocity": 97}, {"time": 706, "pitch": 68, "duration": 8, "velocity": 95}, {"time": 712, "pitch": 59, "duration": 4, "velocity": 93}, {"time": 718, "pitch": 47, "duration": 17, "velocity": 94}, {"time": 718, "pitch": 59, "duration": 3, "velocity": 94}, {"time": 718, "pitch": 63, "duration": 8, "velocity": 93}, {"time": 724, "pitch": 59, "duration": 4, "velocity": 88}, {"time": 730, "pitch": 59, "duration": 3, "velocity": 95}, {"time": 730, "pitch": 63, "duration": 6, "velocity": 99}, {"time": 730, "pitch": 66, "duration": 6, "velocity": 95}, {"time": 736, "pitch": 59, "duration": 7, "velocity": 82}, {"time": 742, "pitch": 37, "duration": 22, "velocity": 92}, {"time": 742, "pitch": 61, "duration": 4, "velocity": 87}, {"time": 742, "pitch": 64, "duration": 11, "velocity": 94}, {"time": 754, "pitch": 61, "duration": 7, "velocity": 96}, {"time": 754, "pitch": 64, "duration": 7, "velocity": 98}, {"time": 760, "pitch": 56, "duration": 7, "velocity": 84}, {"time": 766, "pitch": 61, "duration": 8, "velocity": 95}, {"time": 766, "pitch": 64, "duration": 8, "velocity": 96}, {"time": 772, "pitch": 56, "duration": 7, "velocity": 85}, {"time": 778, "pitch": 44, "duration": 4, "velocity": 87}, {"time": 778, "pitch": 61, "duration": 7, "velocity": 88}, {"time": 778, "pitch": 64, "duration": 8, "velocity": 95}, {"time": 784, "pitch": 56, "duration": 1, "velocity": 74}, {"time": 790, "pitch": 45, "duration": 17, "velocity": 94}, {"time": 790, "pitch": 57, "duration": 11, "velocity": 84}, {"time": 790, "pitch": 61, "duration": 7, "velocity": 84}, {"time": 790, "pitch": 64, "duration": 9, "velocity": 93}, {"time": 796, "pitch": 52, "duration": 12, "velocity": 80}, {"time": 802, "pitch": 61, "duration": 6, "velocity": 102}, {"time": 802, "pitch": 64, "duration": 8, "velocity": 95}, {"time": 808, "pitch": 57, "duration": 2, "velocity": 82}, {"time": 814, "pitch": 47, "duration": 16, "velocity": 93}, {"time": 814, "pitch": 59, "duration": 10, "velocity": 93}, {"time": 814, "pitch": 63, "duration": 7, "velocity": 89}, {"time": 820, "pitch": 54, "duration": 8, "velocity": 83}, {"time": 826, "pitch": 63, "duration": 7, "velocity": 102}, {"time": 826, "pitch": 66, "duration": 9, "velocity": 94}, {"time": 832, "pitch": 59, "duration": 5, "velocity": 95}, {"time": 838, "pitch": 40, "duration": 43, "velocity": 95}, {"time": 838, "pitch": 59, "duration": 3, "velocity": 89}, {"time": 838, "pitch": 64, "duration": 12, "velocity": 93}, {"time": 844, "pitch": 47, "duration": 36, "velocity": 72}, {"time": 850, "pitch": 56, "duration": 5, "velocity": 88}, {"time": 850, "pitch": 59, "duration": 7, "velocity": 88}, {"time": 856, "pitch": 52, "duration": 7, "velocity": 81}, {"time": 862, "pitch": 56, "duration": 5, "velocity": 85}, {"time": 862, "pitch": 59, "duration": 8, "velocity": 88}, {"time": 868, "pitch": 52, "duration": 7, "velocity": 77}, {"time": 874, "pitch": 56, "duration": 8, "velocity": 97}, {"time": 874, "pitch": 59, "duration": 10, "velocity": 94}, {"time": 874, "pitch": 64, "duration": 10, "velocity": 96}, {"time": 880, "pitch": 52, "duration": 18, "velocity": 99}, {"time": 886, "pitch": 40, "duration": 15, "velocity": 95}, {"time": 886, "pitch": 56, "duration": 8, "velocity": 91}, {"time": 886, "pitch": 59, "duration": 8, "velocity": 91}, {"time": 892, "pitch": 47, "duration": 9, "velocity": 72}, {"time": 898, "pitch": 56, "duration": 6, "velocity": 95}, {"time": 898, "pitch": 59, "duration": 6, "velocity": 94}, {"time": 898, "pitch": 64, "duration": 9, "velocity": 94}, {"time": 904, "pitch": 52, "duration": 2, "velocity": 96}, {"time": 910, "pitch": 47, "duration": 16, "velocity": 96}, {"time": 910, "pitch": 59, "duration": 9, "velocity": 93}, {"time": 910, "pitch": 63, "duration": 8, "velocity": 90}, {"time": 916, "pitch": 54, "duration": 8, "velocity": 83}, {"time": 922, "pitch": 59, "duration": 3, "velocity": 94}, {"time": 922, "pitch": 63, "duration": 6, "velocity": 99}, {"time": 922, "pitch": 66, "duration": 6, "velocity": 93}, {"time": 928, "pitch": 59, "duration": 6, "velocity": 93}, {"time": 934, "pitch": 49, "duration": 15, "velocity": 100}, {"time": 934, "pitch": 61, "duration": 8, "velocity": 95}, {"time": 934, "pitch": 64, "duration": 9, "velocity": 94}, {"time": 940, "pitch": 56, "duration": 14, "velocity": 77}, {"time": 946, "pitch": 61, "duration": 4, "velocity": 107}, {"time": 946, "pitch": 64, "duration": 7, "velocity": 96}, {"time": 952, "pitch": 61, "duration": 5, "velocity": 95}, {"time": 958, "pitch": 61, "duration": 9, "velocity": 95}, {"time": 958, "pitch": 64, "duration": 10, "velocity": 96}, {"time": 964, "pitch": 49, "duration": 7, "velocity": 79}, {"time": 970, "pitch": 61, "duration": 7, "velocity": 107}, {"time": 970, "pitch": 64, "duration": 11, "velocity": 99}, {"time": 976, "pitch": 44, "duration": 6, "velocity": 93}, {"time": 982, "pitch": 45, "duration": 17, "velocity": 96}, {"time": 982, "pitch": 57, "duration": 10, "velocity": 85}, {"time": 982, "pitch": 61, "duration": 9, "velocity": 87}, {"time": 982, "pitch": 64, "duration": 10, "velocity": 95}, {"time": 988, "pitch": 52, "duration": 10, "velocity": 81}, {"time": 994, "pitch": 57, "duration": 3, "velocity": 98}, {"time": 994, "pitch": 61, "duration": 7, "velocity": 104}, {"time": 994, "pitch": 64, "duration": 7, "velocity": 100}, {"time": 1000, "pitch": 57, "duration": 2, "velocity": 93}, {"time": 1006, "pitch": 47, "duration": 16, "velocity": 97}, {"time": 1006, "pitch": 59, "duration": 8, "velocity": 95}, {"time": 1006, "pitch": 63, "duration": 8, "velocity": 94}, {"time": 1012, "pitch": 54, "duration": 8, "velocity": 77}, {"time": 1018, "pitch": 59, "duration": 3, "velocity": 97}, {"time": 1018, "pitch": 63, "duration": 6, "velocity": 104}, {"time": 1018, "pitch": 66, "duration": 7, "velocity": 95}, {"time": 1024, "pitch": 59, "duration": 6, "velocity": 102}, {"time": 1030, "pitch": 40, "duration": 41, "velocity": 97}, {"time": 1030, "pitch": 59, "duration": 2, "velocity": 75}, {"time": 1030, "pitch": 64, "duration": 7, "velocity": 94}, {"time": 1030, "pitch": 68, "duration": 7, "velocity": 88}, {"time": 1036, "pitch": 59, "duration": 7, "velocity": 83}, {"time": 1042, "pitch": 64, "duration": 3, "velocity": 97}, {"time": 1042, "pitch": 68, "duration": 8, "velocity": 97}, {"time": 1048, "pitch": 59, "duration": 7, "velocity": 82}, {"time": 1054, "pitch": 64, "duration": 8, "velocity": 96}, {"time": 1054, "pitch": 68, "duration": 7, "velocity": 99}, {"time": 1060, "pitch": 59, "duration": 3, "velocity": 76}, {"time": 1066, "pitch": 59, "duration": 3, "velocity": 100}, {"time": 1066, "pitch": 64, "duration": 7, "velocity": 110}, {"time": 1066, "pitch": 68, "duration": 6, "velocity": 109}, {"time": 1069, "pitch": 47, "duration": 3, "velocity": 96}, {"time": 1072, "pitch": 59, "duration": 4, "velocity": 104}, {"time": 1078, "pitch": 37, "duration": 17, "velocity": 94}, {"time": 1078, "pitch": 64, "duration": 7, "velocity": 96}, {"time": 1078, "pitch": 68, "duration": 8, "velocity": 93}, {"time": 1084, "pitch": 44, "duration": 12, "velocity": 73}, {"time": 1090, "pitch": 64, "duration": 6, "velocity": 104}, {"time": 1090, "pitch": 68, "duration": 7, "velocity": 99}, {"time": 1096, "pitch": 61, "duration": 1, "velocity": 94}, {"time": 1102, "pitch": 44, "duration": 14, "velocity": 100}, {"time": 1102, "pitch": 56, "duration": 9, "velocity": 99}, {"time": 1102, "pitch": 63, "duration": 9, "velocity": 91}, {"time": 1108, "pitch": 51, "duration": 11, "velocity": 77}, {"time": 1114, "pitch": 56, "duration": 4, "velocity": 94}, {"time": 1114, "pitch": 63, "duration": 4, "velocity": 95}, {"time": 1120, "pitch": 44, "duration": 4, "velocity": 104}, {"time": 1126, "pitch": 45, "duration": 17, "velocity": 94}, {"time": 1126, "pitch": 57, "duration": 10, "velocity": 88}, {"time": 1126, "pitch": 61, "duration": 9, "velocity": 87}, {"time": 1126, "pitch": 64, "duration": 9, "velocity": 94}, {"time": 1132, "pitch": 52, "duration": 11, "velocity": 79}, {"time": 1138, "pitch": 61, "duration": 7, "velocity": 104}, {"time": 1138, "pitch": 64, "duration": 7, "velocity": 99}, {"time": 1144, "pitch": 57, "duration": 2, "velocity": 95}, {"time": 1150, "pitch": 47, "duration": 15, "velocity": 94}, {"time": 1150, "pitch": 59, "duration": 9, "velocity": 94}, {"time": 1150, "pitch": 63, "duration": 8, "velocity": 91}, {"time": 1156, "pitch": 54, "duration": 9, "velocity": 81}, {"time": 1162, "pitch": 59, "duration": 5, "velocity": 98}, {"time": 1162, "pitch": 63, "duration": 5, "velocity": 98}, {"time": 1162, "pitch": 66, "duration": 6, "velocity": 93}, {"time": 1168, "pitch": 47, "duration": 2, "velocity": 97}, {"time": 1174, "pitch": 37, "duration": 14, "velocity": 97}, {"time": 1174, "pitch": 61, "duration": 10, "velocity": 90}, {"time": 1174, "pitch": 64, "duration": 8, "velocity": 98}, {"time": 1174, "pitch": 68, "duration": 8, "velocity": 90}, {"time": 1180, "pitch": 44, "duration": 9, "velocity": 77}, {"time": 1186, "pitch": 61, "duration": 3, "velocity": 94}, {"time": 1186, "pitch": 64, "duration": 6, "velocity": 107}, {"time": 1186, "pitch": 68, "duration": 7, "velocity": 99}, {"time": 1192, "pitch": 61, "duration": 2, "velocity": 94}, {"time": 1198, "pitch": 44, "duration": 15, "velocity": 98}, {"time": 1198, "pitch": 56, "duration": 8, "velocity": 93}, {"time": 1198, "pitch": 63, "duration": 8, "velocity": 91}, {"time": 1204, "pitch": 51, "duration": 11, "velocity": 77}, {"time": 1210, "pitch": 56, "duration": 3, "velocity": 95}, {"time": 1210, "pitch": 63, "duration": 4, "velocity": 96}, {"time": 1216, "pitch": 44, "duration": 4, "velocity": 100}, {"time": 1222, "pitch": 45, "duration": 15, "velocity": 94}, {"time": 1222, "pitch": 57, "duration": 10, "velocity": 89}, {"time": 1222, "pitch": 61, "duration": 9, "velocity": 89}, {"time": 1222, "pitch": 64, "duration": 10, "velocity": 94}, {"time": 1228, "pitch": 52, "duration": 10, "velocity": 83}, {"time": 1234, "pitch": 57, "duration": 3, "velocity": 94}, {"time": 1234, "pitch": 61, "duration": 3, "velocity": 98}, {"time": 1234, "pitch": 64, "duration": 3, "velocity": 99}, {"time": 1240, "pitch": 45, "duration": 3, "velocity": 94}, {"time": 1246, "pitch": 44, "duration": 15, "velocity": 94}, {"time": 1246, "pitch": 56, "duration": 10, "velocity": 90}, {"time": 1246, "pitch": 59, "duration": 8, "velocity": 94}, {"time": 1246, "pitch": 63, "duration": 8, "velocity": 92}, {"time": 1249, "pitch": 51, "duration": 11, "velocity": 82}, {"time": 1258, "pitch": 56, "duration": 5, "velocity": 98}, {"time": 1258, "pitch": 59, "duration": 4, "velocity": 100}, {"time": 1258, "pitch": 63, "duration": 6, "velocity": 95}, {"time": 1264, "pitch": 44, "duration": 4, "velocity": 104}, {"time": 1270, "pitch": 42, "duration": 15, "velocity": 96}, {"time": 1270, "pitch": 54, "duration": 8, "velocity": 89}, {"time": 1270, "pitch": 57, "duration": 7, "velocity": 91}, {"time": 1270, "pitch": 61, "duration": 7, "velocity": 89}, {"time": 1276, "pitch": 49, "duration": 11, "velocity": 77}, {"time": 1282, "pitch": 54, "duration": 5, "velocity": 102}, {"time": 1282, "pitch": 57, "duration": 5, "velocity": 102}, {"time": 1282, "pitch": 61, "duration": 7, "velocity": 98}, {"time": 1288, "pitch": 54, "duration": 4, "velocity": 95}, {"time": 1294, "pitch": 42, "duration": 18, "velocity": 99}, {"time": 1294, "pitch": 54, "duration": 6, "velocity": 98}, {"time": 1294, "pitch": 57, "duration": 5, "velocity": 94}, {"time": 1294, "pitch": 61, "duration": 5, "velocity": 87}, {"time": 1294, "pitch": 66, "duration": 7, "velocity": 90}, {"time": 1300, "pitch": 49, "duration": 12, "velocity": 83}, {"time": 1306, "pitch": 54, "duration": 4, "velocity": 104}, {"time": 1306, "pitch": 66, "duration": 5, "velocity": 94}, {"time": 1312, "pitch": 56, "duration": 2, "velocity": 93}, {"time": 1312, "pitch": 68, "duration": 2, "velocity": 88}, {"time": 1315, "pitch": 57, "duration": 2, "velocity": 91}, {"time": 1315, "pitch": 69, "duration": 2, "velocity": 92}, {"time": 1318, "pitch": 47, "duration": 22, "velocity": 99}, {"time": 1318, "pitch": 59, "duration": 5, "velocity": 96}, {"time": 1318, "pitch": 71, "duration": 7, "velocity": 95}, {"time": 1324, "pitch": 54, "duration": 9, "velocity": 88}, {"time": 1330, "pitch": 59, "duration": 4, "velocity": 100}, {"time": 1330, "pitch": 63, "duration": 7, "velocity": 109}, {"time": 1330, "pitch": 66, "duration": 7, "velocity": 102}, {"time": 1336, "pitch": 54, "duration": 4, "velocity": 83}, {"time": 1339, "pitch": 59, "duration": 2, "velocity": 95}, {"time": 1342, "pitch": 47, "duration": 12, "velocity": 102}, {"time": 1342, "pitch": 59, "duration": 6, "velocity": 104}, {"time": 1342, "pitch": 63, "duration": 6, "velocity": 107}, {"time": 1342, "pitch": 66, "duration": 7, "velocity": 98}, {"time": 1342, "pitch": 71, "duration": 7, "velocity": 95}, {"time": 1348, "pitch": 54, "duration": 6, "velocity": 87}, {"time": 1351, "pitch": 59, "duration": 2, "velocity": 98}, {"time": 1351, "pitch": 71, "duration": 1, "velocity": 92}, {"time": 1354, "pitch": 47, "duration": 11, "velocity": 94}, {"time": 1354, "pitch": 54, "duration": 10, "velocity": 99}, {"time": 1354, "pitch": 59, "duration": 2, "velocity": 107}, {"time": 1354, "pitch": 71, "duration": 2, "velocity": 98}, {"time": 1360, "pitch": 61, "duration": 1, "velocity": 99}, {"time": 1360, "pitch": 73, "duration": 2, "velocity": 89}, {"time": 1363, "pitch": 63, "duration": 1, "velocity": 98}, {"time": 1363, "pitch": 75, "duration": 2, "velocity": 86}, {"time": 1366, "pitch": 40, "duration": 14, "velocity": 97}, {"time": 1366, "pitch": 59, "duration": 4, "velocity": 95}, {"time": 1366, "pitch": 64, "duration": 7, "velocity": 95}, {"time": 1366, "pitch": 68, "duration": 7, "velocity": 90}, {"time": 1372, "pitch": 59, "duration": 4, "velocity": 97}, {"time": 1378, "pitch": 59, "duration": 3, "velocity": 99}, {"time": 1378, "pitch": 64, "duration": 7, "velocity": 104}, {"time": 1378, "pitch": 68, "duration": 7, "velocity": 98}, {"time": 1384, "pitch": 59, "duration": 4, "velocity": 94}, {"time": 1387, "pitch": 64, "duration": 2, "velocity": 92}, {"time": 1390, "pitch": 47, "duration": 16, "velocity": 95}, {"time": 1390, "pitch": 59, "duration": 5, "velocity": 95}, {"time": 1390, "pitch": 63, "duration": 7, "velocity": 104}, {"time": 1396, "pitch": 54, "duration": 10, "velocity": 84}, {"time": 1402, "pitch": 59, "duration": 3, "velocity": 98}, {"time": 1402, "pitch": 63, "duration": 7, "velocity": 107}, {"time": 1402, "pitch": 66, "duration": 7, "velocity": 97}, {"time": 1408, "pitch": 59, "duration": 4, "velocity": 95}, {"time": 1414, "pitch": 37, "duration": 13, "velocity": 95}, {"time": 1414, "pitch": 56, "duration": 4, "velocity": 88}, {"time": 1414, "pitch": 61, "duration": 8, "velocity": 86}, {"time": 1414, "pitch": 64, "duration": 10, "velocity": 97}, {"time": 1420, "pitch": 56, "duration": 4, "velocity": 93}, {"time": 1426, "pitch": 56, "duration": 3, "velocity": 97}, {"time": 1426, "pitch": 61, "duration": 6, "velocity": 100}, {"time": 1426, "pitch": 64, "duration": 7, "velocity": 98}, {"time": 1432, "pitch": 56, "duration": 5, "velocity": 98}, {"time": 1438, "pitch": 44, "duration": 16, "velocity": 100}, {"time": 1438, "pitch": 56, "duration": 6, "velocity": 93}, {"time": 1438, "pitch": 59, "duration": 9, "velocity": 93}, {"time": 1438, "pitch": 63, "duration": 10, "velocity": 93}, {"time": 1444, "pitch": 51, "duration": 8, "velocity": 84}, {"time": 1447, "pitch": 56, "duration": 2, "velocity": 88}, {"time": 1450, "pitch": 56, "duration": 3, "velocity": 98}, {"time": 1450, "pitch": 59, "duration": 3, "velocity": 104}, {"time": 1450, "pitch": 63, "duration": 4, "velocity": 98}, {"time": 1453, "pitch": 51, "duration": 3, "velocity": 95}, {"time": 1456, "pitch": 44, "duration": 4, "velocity": 94}, {"time": 1462, "pitch": 45, "duration": 19, "velocity": 95}, {"time": 1462, "pitch": 57, "duration": 9, "velocity": 87}, {"time": 1462, "pitch": 61, "duration": 8, "velocity": 87}, {"time": 1462, "pitch": 64, "duration": 8, "velocity": 93}, {"time": 1468, "pitch": 52, "duration": 8, "velocity": 87}, {"time": 1474, "pitch": 57, "duration": 6, "velocity": 102}, {"time": 1474, "pitch": 61, "duration": 6, "velocity": 109}, {"time": 1474, "pitch": 64, "duration": 6, "velocity": 104}, {"time": 1480, "pitch": 52, "duration": 2, "velocity": 96}, {"time": 1486, "pitch": 44, "duration": 15, "velocity": 104}, {"time": 1486, "pitch": 56, "duration": 6, "velocity": 98}, {"time": 1486, "pitch": 59, "duration": 7, "velocity": 98}, {"time": 1486, "pitch": 63, "duration": 7, "velocity": 93}, {"time": 1492, "pitch": 51, "duration": 8, "velocity": 75}, {"time": 1495, "pitch": 56, "duration": 2, "velocity": 95}, {"time": 1498, "pitch": 56, "duration": 6, "velocity": 102}, {"time": 1498, "pitch": 59, "duration": 5, "velocity": 107}, {"time": 1498, "pitch": 63, "duration": 6, "velocity": 93}, {"time": 1498, "pitch": 68, "duration": 7, "velocity": 90}, {"time": 1504, "pitch": 51, "duration": 2, "velocity": 95}, {"time": 1510, "pitch": 45, "duration": 9, "velocity": 96}, {"time": 1510, "pitch": 57, "duration": 5, "velocity": 94}, {"time": 1510, "pitch": 61, "duration": 7, "velocity": 95}, {"time": 1510, "pitch": 64, "duration": 7, "velocity": 99}, {"time": 1516, "pitch": 52, "duration": 4, "velocity": 83}, {"time": 1522, "pitch": 46, "duration": 6, "velocity": 110}, {"time": 1522, "pitch": 58, "duration": 6, "velocity": 94}, {"time": 1522, "pitch": 61, "duration": 6, "velocity": 94}, {"time": 1534, "pitch": 47, "duration": 13, "velocity": 97}, {"time": 1534, "pitch": 59, "duration": 3, "velocity": 99}, {"time": 1534, "pitch": 63, "duration": 4, "velocity": 99}, {"time": 1534, "pitch": 66, "duration": 5, "velocity": 94}, {"time": 1540, "pitch": 59, "duration": 4, "velocity": 94}, {"time": 1546, "pitch": 59, "duration": 4, "velocity": 107}, {"time": 1546, "pitch": 63, "duration": 4, "velocity": 119}, {"time": 1546, "pitch": 66, "duration": 4, "velocity": 100}, {"time": 1546, "pitch": 71, "duration": 4, "velocity": 94}, {"time": 1549, "pitch": 54, "duration": 4, "velocity": 95}, {"time": 1552, "pitch": 59, "duration": 2, "velocity": 98}, {"time": 1555, "pitch": 59, "duration": 2, "velocity": 82}, {"time": 1555, "pitch": 63, "duration": 4, "velocity": 107}, {"time": 1555, "pitch": 66, "duration": 1, "velocity": 81}, {"time": 1558, "pitch": 40, "duration": 14, "velocity": 97}, {"time": 1558, "pitch": 59, "duration": 4, "velocity": 95}, {"time": 1558, "pitch": 64, "duration": 7, "velocity": 95}, {"time": 1558, "pitch": 68, "duration": 7, "velocity": 90}, {"time": 1564, "pitch": 59, "duration": 4, "velocity": 97}, {"time": 1570, "pitch": 59, "duration": 3, "velocity": 99}, {"time": 1570, "pitch": 64, "duration": 7, "velocity": 104}, {"time": 1570, "pitch": 68, "duration": 7, "velocity": 98}, {"time": 1576, "pitch": 59, "duration": 4, "velocity": 94}, {"time": 1579, "pitch": 64, "duration": 2, "velocity": 92}, {"time": 1582, "pitch": 47, "duration": 16, "velocity": 95}, {"time": 1582, "pitch": 59, "duration": 5, "velocity": 95}, {"time": 1582, "pitch": 63, "duration": 7, "velocity": 104}, {"time": 1588, "pitch": 54, "duration": 10, "velocity": 84}, {"time": 1594, "pitch": 59, "duration": 3, "velocity": 98}, {"time": 1594, "pitch": 63, "duration": 7, "velocity": 107}, {"time": 1594, "pitch": 66, "duration": 7, "velocity": 97}, {"time": 1600, "pitch": 59, "duration": 4, "velocity": 95}, {"time": 1606, "pitch": 37, "duration": 13, "velocity": 95}, {"time": 1606, "pitch": 56, "duration": 4, "velocity": 88}, {"time": 1606, "pitch": 61, "duration": 8, "velocity": 86}, {"time": 1606, "pitch": 64, "duration": 10, "velocity": 97}, {"time": 1612, "pitch": 56, "duration": 4, "velocity": 93}, {"time": 1618, "pitch": 56, "duration": 3, "velocity": 97}, {"time": 1618, "pitch": 61, "duration": 6, "velocity": 100}, {"time": 1618, "pitch": 64, "duration": 7, "velocity": 98}, {"time": 1624, "pitch": 56, "duration": 5, "velocity": 98}, {"time": 1630, "pitch": 44, "duration": 16, "velocity": 100}, {"time": 1630, "pitch": 56, "duration": 6, "velocity": 93}, {"time": 1630, "pitch": 59, "duration": 9, "velocity": 93}, {"time": 1630, "pitch": 63, "duration": 10, "velocity": 93}, {"time": 1636, "pitch": 51, "duration": 8, "velocity": 84}, {"time": 1639, "pitch": 56, "duration": 2, "velocity": 88}, {"time": 1642, "pitch": 56, "duration": 3, "velocity": 98}, {"time": 1642, "pitch": 59, "duration": 3, "velocity": 104}, {"time": 1642, "pitch": 63, "duration": 4, "velocity": 98}, {"time": 1645, "pitch": 51, "duration": 3, "velocity": 95}, {"time": 1648, "pitch": 44, "duration": 4, "velocity": 94}, {"time": 1654, "pitch": 45, "duration": 19, "velocity": 95}, {"time": 1654, "pitch": 57, "duration": 9, "velocity": 87}, {"time": 1654, "pitch": 61, "duration": 8, "velocity": 87}, {"time": 1654, "pitch": 64, "duration": 8, "velocity": 93}, {"time": 1660, "pitch": 52, "duration": 8, "velocity": 87}, {"time": 1666, "pitch": 57, "duration": 6, "velocity": 102}, {"time": 1666, "pitch": 61, "duration": 6, "velocity": 109}, {"time": 1666, "pitch": 64, "duration": 6, "velocity": 104}, {"time": 1672, "pitch": 52, "duration": 2, "velocity": 96}, {"time": 1678, "pitch": 44, "duration": 15, "velocity": 104}, {"time": 1678, "pitch": 56, "duration": 6, "velocity": 98}, {"time": 1678, "pitch": 59, "duration": 7, "velocity": 98}, {"time": 1678, "pitch": 63, "duration": 7, "velocity": 93}, {"time": 1684, "pitch": 51, "duration": 8, "velocity": 75}, {"time": 1687, "pitch": 56, "duration": 2, "velocity": 95}, {"time": 1690, "pitch": 56, "duration": 6, "velocity": 102}, {"time": 1690, "pitch": 59, "duration": 5, "velocity": 107}, {"time": 1690, "pitch": 63, "duration": 6, "velocity": 93}, {"time": 1690, "pitch": 68, "duration": 7, "velocity": 90}, {"time": 1696, "pitch": 51, "duration": 2, "velocity": 95}, {"time": 1702, "pitch": 45, "duration": 9, "velocity": 96}, {"time": 1702, "pitch": 57, "duration": 5, "velocity": 94}, {"time": 1702, "pitch": 61, "duration": 7, "velocity": 95}, {"time": 1702, "pitch": 64, "duration": 7, "velocity": 99}, {"time": 1708, "pitch": 52, "duration": 4, "velocity": 83}, {"time": 1714, "pitch": 46, "duration": 6, "velocity": 110}, {"time": 1714, "pitch": 58, "duration": 6, "velocity": 94}, {"time": 1714, "pitch": 61, "duration": 6, "velocity": 94}, {"time": 1726, "pitch": 47, "duration": 13, "velocity": 97}, {"time": 1726, "pitch": 59, "duration": 3, "velocity": 99}, {"time": 1726, "pitch": 63, "duration": 4, "velocity": 99}, {"time": 1726, "pitch": 66, "duration": 5, "velocity": 94}, {"time": 1732, "pitch": 59, "duration": 4, "velocity": 94}, {"time": 1738, "pitch": 59, "duration": 4, "velocity": 107}, {"time": 1738, "pitch": 63, "duration": 4, "velocity": 119}, {"time": 1738, "pitch": 66, "duration": 4, "velocity": 100}, {"time": 1738, "pitch": 71, "duration": 4, "velocity": 94}, {"time": 1741, "pitch": 54, "duration": 4, "velocity": 95}, {"time": 1744, "pitch": 59, "duration": 2, "velocity": 98}, {"time": 1747, "pitch": 59, "duration": 2, "velocity": 82}, {"time": 1747, "pitch": 63, "duration": 4, "velocity": 107}, {"time": 1747, "pitch": 66, "duration": 1, "velocity": 81}, {"time": 1750, "pitch": 40, "duration": 22, "velocity": 100}, {"time": 1750, "pitch": 59, "duration": 4, "velocity": 94}, {"time": 1750, "pitch": 64, "duration": 7, "velocity": 95}, {"time": 1756, "pitch": 59, "duration": 4, "velocity": 93}, {"time": 1762, "pitch": 59, "duration": 7, "velocity": 99}, {"time": 1762, "pitch": 64, "duration": 10, "velocity": 100}, {"time": 1768, "pitch": 71, "duration": 4, "velocity": 99}, {"time": 1774, "pitch": 40, "duration": 25, "velocity": 95}, {"time": 1774, "pitch": 59, "duration": 4, "velocity": 84}, {"time": 1774, "pitch": 64, "duration": 5, "velocity": 93}, {"time": 1774, "pitch": 69, "duration": 5, "velocity": 93}, {"time": 1780, "pitch": 64, "duration": 1, "velocity": 75}, {"time": 1780, "pitch": 68, "duration": 6, "velocity": 104}, {"time": 1786, "pitch": 66, "duration": 8, "velocity": 99}, {"time": 1792, "pitch": 59, "duration": 1, "velocity": 78}, {"time": 1792, "pitch": 64, "duration": 6, "velocity": 98}, {"time": 1798, "pitch": 40, "duration": 1, "velocity": 97}, {"time": 1798, "pitch": 59, "duration": 4, "velocity": 94}, {"time": 1798, "pitch": 64, "duration": 16, "velocity": 98}, {"time": 1807, "pitch": 47, "duration": 6, "velocity": 88}, {"time": 1810, "pitch": 52, "duration": 6, "velocity": 98}, {"time": 1813, "pitch": 59, "duration": 4, "velocity": 94}, {"time": 1816, "pitch": 64, "duration": 2, "velocity": 100}, {"time": 1819, "pitch": 38, "duration": 20, "velocity": 99}, {"time": 1819, "pitch": 50, "duration": 10, "velocity": 94}, {"time": 1819, "pitch": 54, "duration": 10, "velocity": 89}, {"time": 1825, "pitch": 45, "duration": 8, "velocity": 82}, {"time": 1828, "pitch": 57, "duration": 3, "velocity": 89}, {"time": 1831, "pitch": 50, "duration": 6, "velocity": 94}, {"time": 1831, "pitch": 54, "duration": 7, "velocity": 94}, {"time": 1831, "pitch": 57, "duration": 8, "velocity": 93}, {"time": 1831, "pitch": 62, "duration": 9, "velocity": 95}, {"time": 1837, "pitch": 45, "duration": 2, "velocity": 96}, {"time": 1840, "pitch": 50, "duration": 2, "velocity": 99}, {"time": 1846, "pitch": 40, "duration": 19, "velocity": 98}, {"time": 1846, "pitch": 52, "duration": 9, "velocity": 97}, {"time": 1846, "pitch": 56, "duration": 10, "velocity": 96}, {"time": 1846, "pitch": 64, "duration": 13, "velocity": 95}, {"time": 1855, "pitch": 47, "duration": 9, "velocity": 83}, {"time": 1858, "pitch": 52, "duration": 7, "velocity": 95}, {"time": 1861, "pitch": 56, "duration": 4, "velocity": 78}, {"time": 1864, "pitch": 59, "duration": 2, "velocity": 94}, {"time": 1867, "pitch": 38, "duration": 20, "velocity": 99}, {"time": 1867, "pitch": 50, "duration": 11, "velocity": 94}, {"time": 1867, "pitch": 54, "duration": 11, "velocity": 93}, {"time": 1873, "pitch": 45, "duration": 8, "velocity": 84}, {"time": 1876, "pitch": 57, "duration": 2, "velocity": 89}, {"time": 1879, "pitch": 50, "duration": 4, "velocity": 102}, {"time": 1879, "pitch": 54, "duration": 4, "velocity": 95}, {"time": 1879, "pitch": 57, "duration": 5, "velocity": 94}, {"time": 1879, "pitch": 62, "duration": 5, "velocity": 96}, {"time": 1882, "pitch": 45, "duration": 5, "velocity": 94}, {"time": 1885, "pitch": 50, "duration": 3, "velocity": 99}, {"time": 1885, "pitch": 54, "duration": 4, "velocity": 95}, {"time": 1885, "pitch": 57, "duration": 4, "velocity": 96}, {"time": 1888, "pitch": 38, "duration": 2, "velocity": 97}, {"time": 1894, "pitch": 40, "duration": 19, "velocity": 97}, {"time": 1894, "pitch": 52, "duration": 7, "velocity": 93}, {"time": 1894, "pitch": 56, "duration": 8, "velocity": 94}, {"time": 1894, "pitch": 64, "duration": 11, "velocity": 96}, {"time": 1903, "pitch": 52, "duration": 1, "velocity": 79}, {"time": 1906, "pitch": 52, "duration": 4, "velocity": 109}, {"time": 1906, "pitch": 56, "duration": 4, "velocity": 104}, {"time": 1906, "pitch": 59, "duration": 5, "velocity": 97}, {"time": 1906, "pitch": 64, "duration": 1, "velocity": 91}, {"time": 1909, "pitch": 47, "duration": 3, "velocity": 91}, {"time": 1912, "pitch": 52, "duration": 1, "velocity": 97}, {"time": 1915, "pitch": 38, "duration": 22, "velocity": 100}, {"time": 1915, "pitch": 50, "duration": 12, "velocity": 102}, {"time": 1915, "pitch": 54, "duration": 8, "velocity": 99}, {"time": 1915, "pitch": 57, "duration": 10, "velocity": 95}, {"time": 1921, "pitch": 45, "duration": 8, "velocity": 87}, {"time": 1924, "pitch": 54, "duration": 2, "velocity": 81}, {"time": 1927, "pitch": 50, "duration": 4, "velocity": 89}, {"time": 1927, "pitch": 54, "duration": 4, "velocity": 93}, {"time": 1927, "pitch": 57, "duration": 4, "velocity": 97}, {"time": 1930, "pitch": 45, "duration": 4, "velocity": 90}, {"time": 1933, "pitch": 50, "duration": 3, "velocity": 102}, {"time": 1933, "pitch": 62, "duration": 7, "velocity": 95}, {"time": 1936, "pitch": 45, "duration": 2, "velocity": 95}, {"time": 1942, "pitch": 40, "duration": 19, "velocity": 96}, {"time": 1942, "pitch": 64, "duration": 5, "velocity": 98}, {"time": 1942, "pitch": 68, "duration": 5, "velocity": 94}, {"time": 1948, "pitch": 47, "duration": 4, "velocity": 80}, {"time": 1948, "pitch": 59, "duration": 5, "velocity": 96}, {"time": 1948, "pitch": 64, "duration": 5, "velocity": 100}, {"time": 1954, "pitch": 47, "duration": 4, "velocity": 82}, {"time": 1957, "pitch": 59, "duration": 3, "velocity": 97}, {"time": 1957, "pitch": 64, "duration": 4, "velocity": 99}, {"time": 1957, "pitch": 68, "duration": 4, "velocity": 100}, {"time": 1960, "pitch": 47, "duration": 1, "velocity": 83}, {"time": 1966, "pitch": 40, "duration": 5, "velocity": 102}, {"time": 1966, "pitch": 64, "duration": 4, "velocity": 102}, {"time": 1966, "pitch": 76, "duration": 4, "velocity": 97}, {"time": 1975, "pitch": 42, "duration": 3, "velocity": 98}, {"time": 1975, "pitch": 66, "duration": 3, "velocity": 95}, {"time": 1975, "pitch": 78, "duration": 4, "velocity": 96}, {"time": 1981, "pitch": 44, "duration": 2, "velocity": 100}, {"time": 1981, "pitch": 68, "duration": 2, "velocity": 95}, {"time": 1981, "pitch": 80, "duration": 2, "velocity": 94}, {"time": 1990, "pitch": 45, "duration": 23, "velocity": 95}, {"time": 1990, "pitch": 57, "duration": 8, "velocity": 93}, {"time": 1990, "pitch": 64, "duration": 9, "velocity": 94}, {"time": 1996, "pitch": 52, "duration": 17, "velocity": 85}, {"time": 1999, "pitch": 61, "duration": 4, "velocity": 107}, {"time": 2005, "pitch": 57, "duration": 2, "velocity": 94}, {"time": 2005, "pitch": 64, "duration": 4, "velocity": 99}, {"time": 2008, "pitch": 61, "duration": 3, "velocity": 95}, {"time": 2011, "pitch": 57, "duration": 6, "velocity": 95}, {"time": 2014, "pitch": 45, "duration": 23, "velocity": 94}, {"time": 2014, "pitch": 61, "duration": 4, "velocity": 89}, {"time": 2014, "pitch": 64, "duration": 4, "velocity": 97}, {"time": 2014, "pitch": 69, "duration": 5, "velocity": 96}, {"time": 2017, "pitch": 52, "duration": 7, "velocity": 85}, {"time": 2020, "pitch": 57, "duration": 2, "velocity": 89}, {"time": 2023, "pitch": 61, "duration": 3, "velocity": 85}, {"time": 2023, "pitch": 64, "duration": 4, "velocity": 93}, {"time": 2026, "pitch": 52, "duration": 11, "velocity": 87}, {"time": 2029, "pitch": 69, "duration": 4, "velocity": 93}, {"time": 2032, "pitch": 57, "duration": 8, "velocity": 93}, {"time": 2035, "pitch": 61, "duration": 5, "velocity": 91}, {"time": 2038, "pitch": 45, "duration": 23, "velocity": 95}, {"time": 2038, "pitch": 64, "duration": 9, "velocity": 92}, {"time": 2041, "pitch": 52, "duration": 14, "velocity": 84}, {"time": 2044, "pitch": 57, "duration": 7, "velocity": 82}, {"time": 2047, "pitch": 61, "duration": 2, "velocity": 91}, {"time": 2053, "pitch": 57, "duration": 3, "velocity": 90}, {"time": 2053, "pitch": 61, "duration": 4, "velocity": 99}, {"time": 2053, "pitch": 64, "duration": 4, "velocity": 97}, {"time": 2056, "pitch": 52, "duration": 5, "velocity": 86}, {"time": 2059, "pitch": 57, "duration": 2, "velocity": 85}, {"time": 2062, "pitch": 45, "duration": 16, "velocity": 95}, {"time": 2062, "pitch": 57, "duration": 4, "velocity": 87}, {"time": 2062, "pitch": 61, "duration": 4, "velocity": 79}, {"time": 2062, "pitch": 69, "duration": 6, "velocity": 93}, {"time": 2065, "pitch": 52, "duration": 7, "velocity": 86}, {"time": 2068, "pitch": 57, "duration": 2, "velocity": 90}, {"time": 2071, "pitch": 57, "duration": 4, "velocity": 98}, {"time": 2071, "pitch": 61, "duration": 4, "velocity": 100}, {"time": 2071, "pitch": 64, "duration": 4, "velocity": 99}, {"time": 2071, "pitch": 69, "duration": 4, "velocity": 94}, {"time": 2074, "pitch": 52, "duration": 4, "velocity": 93}, {"time": 2077, "pitch": 57, "duration": 3, "velocity": 100}, {"time": 2077, "pitch": 61, "duration": 3, "velocity": 107}, {"time": 2077, "pitch": 64, "duration": 3, "velocity": 104}, {"time": 2077, "pitch": 69, "duration": 4, "velocity": 94}, {"time": 2080, "pitch": 45, "duration": 2, "velocity": 94}, {"time": 2086, "pitch": 36, "duration": 22, "velocity": 93}, {"time": 2086, "pitch": 60, "duration": 7, "velocity": 97}, {"time": 2086, "pitch": 67, "duration": 9, "velocity": 95}, {"time": 2092, "pitch": 43, "duration": 10, "velocity": 90}, {"time": 2095, "pitch": 60, "duration": 2, "velocity": 99}, {"time": 2098, "pitch": 64, "duration": 1, "velocity": 95}, {"time": 2101, "pitch": 60, "duration": 5, "velocity": 104}, {"time": 2101, "pitch": 64, "duration": 1, "velocity": 100}, {"time": 2101, "pitch": 67, "duration": 5, "velocity": 99}, {"time": 2104, "pitch": 43, "duration": 5, "velocity": 95}, {"time": 2107, "pitch": 60, "duration": 2, "velocity": 95}, {"time": 2107, "pitch": 67, "duration": 2, "velocity": 93}, {"time": 2110, "pitch": 38, "duration": 15, "velocity": 97}, {"time": 2110, "pitch": 62, "duration": 3, "velocity": 94}, {"time": 2110, "pitch": 66, "duration": 4, "velocity": 96}, {"time": 2113, "pitch": 45, "duration": 7, "velocity": 89}, {"time": 2116, "pitch": 62, "duration": 1, "velocity": 95}, {"time": 2119, "pitch": 62, "duration": 5, "velocity": 100}, {"time": 2119, "pitch": 69, "duration": 5, "velocity": 99}, {"time": 2122, "pitch": 45, "duration": 3, "velocity": 94}, {"time": 2125, "pitch": 62, "duration": 4, "velocity": 97}, {"time": 2125, "pitch": 66, "duration": 3, "velocity": 107}, {"time": 2125, "pitch": 69, "duration": 3, "velocity": 99}, {"time": 2125, "pitch": 74, "duration": 3, "velocity": 96}, {"time": 2134, "pitch": 47, "duration": 37, "velocity": 96}, {"time": 2134, "pitch": 59, "duration": 3, "velocity": 96}, {"time": 2134, "pitch": 63, "duration": 7, "velocity": 94}, {"time": 2134, "pitch": 66, "duration": 8, "velocity": 90}, {"time": 2140, "pitch": 59, "duration": 3, "velocity": 93}, {"time": 2146, "pitch": 59, "duration": 4, "velocity": 98}, {"time": 2146, "pitch": 63, "duration": 5, "velocity": 97}, {"time": 2146, "pitch": 66, "duration": 7, "velocity": 95}, {"time": 2146, "pitch": 71, "duration": 7, "velocity": 94}, {"time": 2149, "pitch": 54, "duration": 24, "velocity": 87}, {"time": 2152, "pitch": 59, "duration": 4, "velocity": 91}, {"time": 2155, "pitch": 63, "duration": 2, "velocity": 89}, {"time": 2158, "pitch": 59, "duration": 18, "velocity": 93}, {"time": 2158, "pitch": 63, "duration": 17, "velocity": 94}, {"time": 2158, "pitch": 66, "duration": 18, "velocity": 89}, {"time": 2182, "pitch": 40, "duration": 15, "velocity": 94}, {"time": 2182, "pitch": 59, "duration": 4, "velocity": 91}, {"time": 2182, "pitch": 64, "duration": 7, "velocity": 94}, {"time": 2188, "pitch": 59, "duration": 7, "velocity": 86}, {"time": 2194, "pitch": 64, "duration": 5, "velocity": 97}, {"time": 2194, "pitch": 68, "duration": 8, "velocity": 95}, {"time": 2200, "pitch": 59, "duration": 4, "velocity": 93}, {"time": 2206, "pitch": 47, "duration": 17, "velocity": 94}, {"time": 2206, "pitch": 59, "duration": 3, "velocity": 94}, {"time": 2206, "pitch": 63, "duration": 8, "velocity": 93}, {"time": 2212, "pitch": 59, "duration": 4, "velocity": 88}, {"time": 2218, "pitch": 59, "duration": 3, "velocity": 95}, {"time": 2218, "pitch": 63, "duration": 6, "velocity": 99}, {"time": 2218, "pitch": 66, "duration": 6, "velocity": 95}, {"time": 2224, "pitch": 59, "duration": 7, "velocity": 82}, {"time": 2230, "pitch": 37, "duration": 22, "velocity": 92}, {"time": 2230, "pitch": 61, "duration": 4, "velocity": 87}, {"time": 2230, "pitch": 64, "duration": 11, "velocity": 94}, {"time": 2242, "pitch": 61, "duration": 7, "velocity": 96}, {"time": 2242, "pitch": 64, "duration": 7, "velocity": 98}, {"time": 2248, "pitch": 56, "duration": 7, "velocity": 84}, {"time": 2254, "pitch": 61, "duration": 8, "velocity": 95}, {"time": 2254, "pitch": 64, "duration": 8, "velocity": 96}, {"time": 2260, "pitch": 56, "duration": 7, "velocity": 85}, {"time": 2266, "pitch": 44, "duration": 4, "velocity": 87}, {"time": 2266, "pitch": 61, "duration": 7, "velocity": 88}, {"time": 2266, "pitch": 64, "duration": 8, "velocity": 95}, {"time": 2272, "pitch": 56, "duration": 1, "velocity": 74}, {"time": 2278, "pitch": 45, "duration": 17, "velocity": 94}, {"time": 2278, "pitch": 57, "duration": 11, "velocity": 84}, {"time": 2278, "pitch": 61, "duration": 7, "velocity": 84}, {"time": 2278, "pitch": 64, "duration": 9, "velocity": 93}, {"time": 2284, "pitch": 52, "duration": 12, "velocity": 80}, {"time": 2290, "pitch": 61, "duration": 6, "velocity": 102}, {"time": 2290, "pitch": 64, "duration": 8, "velocity": 95}, {"time": 2296, "pitch": 57, "duration": 2, "velocity": 82}, {"time": 2302, "pitch": 47, "duration": 16, "velocity": 93}, {"time": 2302, "pitch": 59, "duration": 10, "velocity": 93}, {"time": 2302, "pitch": 63, "duration": 7, "velocity": 89}, {"time": 2308, "pitch": 54, "duration": 8, "velocity": 83}, {"time": 2314, "pitch": 63, "duration": 7, "velocity": 102}, {"time": 2314, "pitch": 66, "duration": 9, "velocity": 94}, {"time": 2320, "pitch": 59, "duration": 5, "velocity": 95}, {"time": 2326, "pitch": 40, "duration": 43, "velocity": 95}, {"time": 2326, "pitch": 59, "duration": 3, "velocity": 89}, {"time": 2326, "pitch": 64, "duration": 12, "velocity": 93}, {"time": 2332, "pitch": 47, "duration": 36, "velocity": 72}, {"time": 2338, "pitch": 56, "duration": 5, "velocity": 88}, {"time": 2338, "pitch": 59, "duration": 7, "velocity": 88}, {"time": 2344, "pitch": 52, "duration": 7, "velocity": 81}, {"time": 2350, "pitch": 56, "duration": 5, "velocity": 85}, {"time": 2350, "pitch": 59, "duration": 8, "velocity": 88}, {"time": 2356, "pitch": 52, "duration": 7, "velocity": 77}, {"time": 2362, "pitch": 56, "duration": 8, "velocity": 97}, {"time": 2362, "pitch": 59, "duration": 10, "velocity": 94}, {"time": 2362, "pitch": 64, "duration": 10, "velocity": 96}, {"time": 2368, "pitch": 52, "duration": 18, "velocity": 99}, {"time": 2374, "pitch": 40, "duration": 15, "velocity": 95}, {"time": 2374, "pitch": 56, "duration": 8, "velocity": 91}, {"time": 2374, "pitch": 59, "duration": 8, "velocity": 91}, {"time": 2380, "pitch": 47, "duration": 9, "velocity": 72}, {"time": 2386, "pitch": 56, "duration": 6, "velocity": 95}, {"time": 2386, "pitch": 59, "duration": 6, "velocity": 94}, {"time": 2386, "pitch": 64, "duration": 9, "velocity": 94}, {"time": 2392, "pitch": 52, "duration": 2, "velocity": 96}, {"time": 2398, "pitch": 47, "duration": 16, "velocity": 96}, {"time": 2398, "pitch": 59, "duration": 9, "velocity": 93}, {"time": 2398, "pitch": 63, "duration": 8, "velocity": 90}, {"time": 2404, "pitch": 54, "duration": 8, "velocity": 83}, {"time": 2410, "pitch": 59, "duration": 3, "velocity": 94}, {"time": 2410, "pitch": 63, "duration": 6, "velocity": 99}, {"time": 2410, "pitch": 66, "duration": 6, "velocity": 93}, {"time": 2416, "pitch": 59, "duration": 6, "velocity": 93}, {"time": 2422, "pitch": 49, "duration": 15, "velocity": 100}, {"time": 2422, "pitch": 61, "duration": 8, "velocity": 95}, {"time": 2422, "pitch": 64, "duration": 9, "velocity": 94}, {"time": 2428, "pitch": 56, "duration": 14, "velocity": 77}, {"time": 2434, "pitch": 61, "duration": 4, "velocity": 107}, {"time": 2434, "pitch": 64, "duration": 7, "velocity": 96}, {"time": 2440, "pitch": 61, "duration": 5, "velocity": 95}, {"time": 2446, "pitch": 61, "duration": 9, "velocity": 95}, {"time": 2446, "pitch": 64, "duration": 10, "velocity": 96}, {"time": 2452, "pitch": 49, "duration": 7, "velocity": 79}, {"time": 2458, "pitch": 61, "duration": 7, "velocity": 107}, {"time": 2458, "pitch": 64, "duration": 11, "velocity": 99}, {"time": 2464, "pitch": 44, "duration": 6, "velocity": 93}, {"time": 2470, "pitch": 45, "duration": 17, "velocity": 96}, {"time": 2470, "pitch": 57, "duration": 10, "velocity": 85}, {"time": 2470, "pitch": 61, "duration": 9, "velocity": 87}, {"time": 2470, "pitch": 64, "duration": 10, "velocity": 95}, {"time": 2476, "pitch": 52, "duration": 10, "velocity": 81}, {"time": 2482, "pitch": 57, "duration": 3, "velocity": 98}, {"time": 2482, "pitch": 61, "duration": 7, "velocity": 104}, {"time": 2482, "pitch": 64, "duration": 7, "velocity": 100}, {"time": 2488, "pitch": 57, "duration": 2, "velocity": 93}, {"time": 2494, "pitch": 47, "duration": 16, "velocity": 97}, {"time": 2494, "pitch": 59, "duration": 8, "velocity": 95}, {"time": 2494, "pitch": 63, "duration": 8, "velocity": 94}, {"time": 2500, "pitch": 54, "duration": 8, "velocity": 77}, {"time": 2506, "pitch": 59, "duration": 3, "velocity": 97}, {"time": 2506, "pitch": 63, "duration": 6, "velocity": 104}, {"time": 2506, "pitch": 66, "duration": 7, "velocity": 95}, {"time": 2512, "pitch": 59, "duration": 6, "velocity": 102}, {"time": 2518, "pitch": 40, "duration": 41, "velocity": 97}, {"time": 2518, "pitch": 59, "duration": 2, "velocity": 75}, {"time": 2518, "pitch": 64, "duration": 7, "velocity": 94}, {"time": 2518, "pitch": 68, "duration": 7, "velocity": 88}, {"time": 2524, "pitch": 59, "duration": 7, "velocity": 83}, {"time": 2530, "pitch": 64, "duration": 3, "velocity": 97}, {"time": 2530, "pitch": 68, "duration": 8, "velocity": 97}, {"time": 2536, "pitch": 59, "duration": 7, "velocity": 82}, {"time": 2542, "pitch": 64, "duration": 8, "velocity": 96}, {"time": 2542, "pitch": 68, "duration": 7, "velocity": 99}, {"time": 2548, "pitch": 59, "duration": 3, "velocity": 76}, {"time": 2554, "pitch": 59, "duration": 3, "velocity": 100}, {"time": 2554, "pitch": 64, "duration": 7, "velocity": 110}, {"time": 2554, "pitch": 68, "duration": 6, "velocity": 109}, {"time": 2557, "pitch": 47, "duration": 3, "velocity": 96}, {"time": 2560, "pitch": 59, "duration": 4, "velocity": 104}, {"time": 2566, "pitch": 37, "duration": 17, "velocity": 94}, {"time": 2566, "pitch": 64, "duration": 7, "velocity": 96}, {"time": 2566, "pitch": 68, "duration": 8, "velocity": 93}, {"time": 2572, "pitch": 44, "duration": 12, "velocity": 73}, {"time": 2578, "pitch": 64, "duration": 6, "velocity": 104}, {"time": 2578, "pitch": 68, "duration": 7, "velocity": 99}, {"time": 2584, "pitch": 61, "duration": 1, "velocity": 94}, {"time": 2590, "pitch": 44, "duration": 14, "velocity": 100}, {"time": 2590, "pitch": 56, "duration": 9, "velocity": 99}, {"time": 2590, "pitch": 63, "duration": 9, "velocity": 91}, {"time": 2596, "pitch": 51, "duration": 11, "velocity": 77}, {"time": 2602, "pitch": 56, "duration": 4, "velocity": 94}, {"time": 2602, "pitch": 63, "duration": 4, "velocity": 95}, {"time": 2608, "pitch": 44, "duration": 4, "velocity": 104}, {"time": 2614, "pitch": 45, "duration": 17, "velocity": 94}, {"time": 2614, "pitch": 57, "duration": 10, "velocity": 88}, {"time": 2614, "pitch": 61, "duration": 9, "velocity": 87}, {"time": 2614, "pitch": 64, "duration": 9, "velocity": 94}, {"time": 2620, "pitch": 52, "duration": 11, "velocity": 79}, {"time": 2626, "pitch": 61, "duration": 7, "velocity": 104}, {"time": 2626, "pitch": 64, "duration": 7, "velocity": 99}, {"time": 2632, "pitch": 57, "duration": 2, "velocity": 95}, {"time": 2638, "pitch": 47, "duration": 15, "velocity": 94}, {"time": 2638, "pitch": 59, "duration": 9, "velocity": 94}, {"time": 2638, "pitch": 63, "duration": 8, "velocity": 91}, {"time": 2644, "pitch": 54, "duration": 9, "velocity": 81}, {"time": 2650, "pitch": 59, "duration": 5, "velocity": 98}, {"time": 2650, "pitch": 63, "duration": 5, "velocity": 98}, {"time": 2650, "pitch": 66, "duration": 6, "velocity": 93}, {"time": 2656, "pitch": 47, "duration": 2, "velocity": 97}, {"time": 2662, "pitch": 37, "duration": 14, "velocity": 97}, {"time": 2662, "pitch": 61, "duration": 10, "velocity": 90}, {"time": 2662, "pitch": 64, "duration": 8, "velocity": 98}, {"time": 2662, "pitch": 68, "duration": 8, "velocity": 90}, {"time": 2668, "pitch": 44, "duration": 9, "velocity": 77}, {"time": 2674, "pitch": 61, "duration": 3, "velocity": 94}, {"time": 2674, "pitch": 64, "duration": 6, "velocity": 107}, {"time": 2674, "pitch": 68, "duration": 7, "velocity": 99}, {"time": 2680, "pitch": 61, "duration": 2, "velocity": 94}, {"time": 2686, "pitch": 44, "duration": 15, "velocity": 98}, {"time": 2686, "pitch": 56, "duration": 8, "velocity": 93}, {"time": 2686, "pitch": 63, "duration": 8, "velocity": 91}, {"time": 2692, "pitch": 51, "duration": 11, "velocity": 77}, {"time": 2698, "pitch": 56, "duration": 3, "velocity": 95}, {"time": 2698, "pitch": 63, "duration": 4, "velocity": 96}, {"time": 2704, "pitch": 44, "duration": 4, "velocity": 100}, {"time": 2710, "pitch": 45, "duration": 15, "velocity": 94}, {"time": 2710, "pitch": 57, "duration": 10, "velocity": 89}, {"time": 2710, "pitch": 61, "duration": 9, "velocity": 89}, {"time": 2710, "pitch": 64, "duration": 10, "velocity": 94}, {"time": 2716, "pitch": 52, "duration": 10, "velocity": 83}, {"time": 2722, "pitch": 57, "duration": 3, "velocity": 94}, {"time": 2722, "pitch": 61, "duration": 3, "velocity": 98}, {"time": 2722, "pitch": 64, "duration": 3, "velocity": 99}, {"time": 2728, "pitch": 45, "duration": 3, "velocity": 94}, {"time": 2734, "pitch": 44, "duration": 15, "velocity": 94}, {"time": 2734, "pitch": 56, "duration": 10, "velocity": 90}, {"time": 2734, "pitch": 59, "duration": 8, "velocity": 94}, {"time": 2734, "pitch": 63, "duration": 8, "velocity": 92}, {"time": 2737, "pitch": 51, "duration": 11, "velocity": 82}, {"time": 2746, "pitch": 56, "duration": 5, "velocity": 98}, {"time": 2746, "pitch": 59, "duration": 4, "velocity": 100}, {"time": 2746, "pitch": 63, "duration": 6, "velocity": 95}, {"time": 2752, "pitch": 44, "duration": 4, "velocity": 104}, {"time": 2758, "pitch": 42, "duration": 15, "velocity": 96}, {"time": 2758, "pitch": 54, "duration": 8, "velocity": 89}, {"time": 2758, "pitch": 57, "duration": 7, "velocity": 91}, {"time": 2758, "pitch": 61, "duration": 7, "velocity": 89}, {"time": 2764, "pitch": 49, "duration": 11, "velocity": 77}, {"time": 2770, "pitch": 54, "duration": 5, "velocity": 102}, {"time": 2770, "pitch": 57, "duration": 5, "velocity": 102}, {"time": 2770, "pitch": 61, "duration": 7, "velocity": 98}, {"time": 2776, "pitch": 54, "duration": 4, "velocity": 95}, {"time": 2782, "pitch": 42, "duration": 18, "velocity": 99}, {"time": 2782, "pitch": 54, "duration": 6, "velocity": 98}, {"time": 2782, "pitch": 57, "duration": 5, "velocity": 94}, {"time": 2782, "pitch": 61, "duration": 5, "velocity": 87}, {"time": 2782, "pitch": 66, "duration": 7, "velocity": 90}, {"time": 2788, "pitch": 49, "duration": 12, "velocity": 83}, {"time": 2794, "pitch": 54, "duration": 4, "velocity": 104}, {"time": 2794, "pitch": 66, "duration": 5, "velocity": 94}, {"time": 2800, "pitch": 56, "duration": 2, "velocity": 93}, {"time": 2800, "pitch": 68, "duration": 2, "velocity": 88}, {"time": 2803, "pitch": 57, "duration": 2, "velocity": 91}, {"time": 2803, "pitch": 69, "duration": 2, "velocity": 92}, {"time": 2806, "pitch": 47, "duration": 22, "velocity": 99}, {"time": 2806, "pitch": 59, "duration": 5, "velocity": 96}, {"time": 2806, "pitch": 71, "duration": 7, "velocity": 95}, {"time": 2812, "pitch": 54, "duration": 9, "velocity": 88}, {"time": 2818, "pitch": 59, "duration": 4, "velocity": 100}, {"time": 2818, "pitch": 63, "duration": 7, "velocity": 109}, {"time": 2818, "pitch": 66, "duration": 7, "velocity": 102}, {"time": 2824, "pitch": 54, "duration": 4, "velocity": 83}, {"time": 2827, "pitch": 59, "duration": 2, "velocity": 95}, {"time": 2830, "pitch": 47, "duration": 12, "velocity": 102}, {"time": 2830, "pitch": 59, "duration": 6, "velocity": 104}, {"time": 2830, "pitch": 63, "duration": 6, "velocity": 107}, {"time": 2830, "pitch": 66, "duration": 7, "velocity": 98}, {"time": 2830, "pitch": 71, "duration": 7, "velocity": 95}, {"time": 2836, "pitch": 54, "duration": 6, "velocity": 87}, {"time": 2839, "pitch": 59, "duration": 2, "velocity": 98}, {"time": 2839, "pitch": 71, "duration": 1, "velocity": 92}, {"time": 2842, "pitch": 47, "duration": 11, "velocity": 94}, {"time": 2842, "pitch": 54, "duration": 10, "velocity": 99}, {"time": 2842, "pitch": 59, "duration": 2, "velocity": 107}, {"time": 2842, "pitch": 71, "duration": 2, "velocity": 98}, {"time": 2848, "pitch": 61, "duration": 1, "velocity": 99}, {"time": 2848, "pitch": 73, "duration": 2, "velocity": 89}, {"time": 2851, "pitch": 63, "duration": 1, "velocity": 98}, {"time": 2851, "pitch": 75, "duration": 2, "velocity": 86}, {"time": 2854, "pitch": 40, "duration": 14, "velocity": 97}, {"time": 2854, "pitch": 59, "duration": 4, "velocity": 95}, {"time": 2854, "pitch": 64, "duration": 7, "velocity": 95}, {"time": 2854, "pitch": 68, "duration": 7, "velocity": 90}, {"time": 2860, "pitch": 59, "duration": 4, "velocity": 97}, {"time": 2866, "pitch": 59, "duration": 3, "velocity": 99}, {"time": 2866, "pitch": 64, "duration": 7, "velocity": 104}, {"time": 2866, "pitch": 68, "duration": 7, "velocity": 98}, {"time": 2872, "pitch": 59, "duration": 4, "velocity": 94}, {"time": 2875, "pitch": 64, "duration": 2, "velocity": 92}, {"time": 2878, "pitch": 47, "duration": 16, "velocity": 95}, {"time": 2878, "pitch": 59, "duration": 5, "velocity": 95}, {"time": 2878, "pitch": 63, "duration": 7, "velocity": 104}, {"time": 2884, "pitch": 54, "duration": 10, "velocity": 84}, {"time": 2890, "pitch": 59, "duration": 3, "velocity": 98}, {"time": 2890, "pitch": 63, "duration": 7, "velocity": 107}, {"time": 2890, "pitch": 66, "duration": 7, "velocity": 97}, {"time": 2896, "pitch": 59, "duration": 4, "velocity": 95}, {"time": 2902, "pitch": 37, "duration": 13, "velocity": 95}, {"time": 2902, "pitch": 56, "duration": 4, "velocity": 88}, {"time": 2902, "pitch": 61, "duration": 8, "velocity": 86}, {"time": 2902, "pitch": 64, "duration": 10, "velocity": 97}, {"time": 2908, "pitch": 56, "duration": 4, "velocity": 93}, {"time": 2914, "pitch": 56, "duration": 3, "velocity": 97}, {"time": 2914, "pitch": 61, "duration": 6, "velocity": 100}, {"time": 2914, "pitch": 64, "duration": 7, "velocity": 98}, {"time": 2920, "pitch": 56, "duration": 5, "velocity": 98}, {"time": 2926, "pitch": 44, "duration": 16, "velocity": 100}, {"time": 2926, "pitch": 56, "duration": 6, "velocity": 93}, {"time": 2926, "pitch": 59, "duration": 9, "velocity": 93}, {"time": 2926, "pitch": 63, "duration": 10, "velocity": 93}, {"time": 2932, "pitch": 51, "duration": 8, "velocity": 84}, {"time": 2935, "pitch": 56, "duration": 2, "velocity": 88}, {"time": 2938, "pitch": 56, "duration": 3, "velocity": 98}, {"time": 2938, "pitch": 59, "duration": 3, "velocity": 104}, {"time": 2938, "pitch": 63, "duration": 4, "velocity": 98}, {"time": 2941, "pitch": 51, "duration": 3, "velocity": 95}, {"time": 2944, "pitch": 44, "duration": 4, "velocity": 94}, {"time": 2950, "pitch": 45, "duration": 19, "velocity": 95}, {"time": 2950, "pitch": 57, "duration": 9, "velocity": 87}, {"time": 2950, "pitch": 61, "duration": 8, "velocity": 87}, {"time": 2950, "pitch": 64, "duration": 8, "velocity": 93}, {"time": 2956, "pitch": 52, "duration": 8, "velocity": 87}, {"time": 2962, "pitch": 57, "duration": 6, "velocity": 102}, {"time": 2962, "pitch": 61, "duration": 6, "velocity": 109}, {"time": 2962, "pitch": 64, "duration": 6, "velocity": 104}, {"time": 2968, "pitch": 52, "duration": 2, "velocity": 96}, {"time": 2974, "pitch": 44, "duration": 15, "velocity": 104}, {"time": 2974, "pitch": 56, "duration": 6, "velocity": 98}, {"time": 2974, "pitch": 59, "duration": 7, "velocity": 98}, {"time": 2974, "pitch": 63, "duration": 7, "velocity": 93}, {"time": 2980, "pitch": 51, "duration": 8, "velocity": 75}, {"time": 2983, "pitch": 56, "duration": 2, "velocity": 95}, {"time": 2986, "pitch": 56, "duration": 6, "velocity": 102}, {"time": 2986, "pitch": 59, "duration": 5, "velocity": 107}, {"time": 2986, "pitch": 63, "duration": 6, "velocity": 93}, {"time": 2986, "pitch": 68, "duration": 7, "velocity": 90}, {"time": 2992, "pitch": 51, "duration": 2, "velocity": 95}, {"time": 2998, "pitch": 45, "duration": 9, "velocity": 96}, {"time": 2998, "pitch": 57, "duration": 5, "velocity": 94}, {"time": 2998, "pitch": 61, "duration": 7, "velocity": 95}, {"time": 2998, "pitch": 64, "duration": 7, "velocity": 99}, {"time": 3004, "pitch": 52, "duration": 4, "velocity": 83}, {"time": 3010, "pitch": 46, "duration": 6, "velocity": 110}, {"time": 3010, "pitch": 58, "duration": 6, "velocity": 94}, {"time": 3010, "pitch": 61, "duration": 6, "velocity": 94}, {"time": 3022, "pitch": 47, "duration": 13, "velocity": 97}, {"time": 3022, "pitch": 59, "duration": 3, "velocity": 99}, {"time": 3022, "pitch": 63, "duration": 4, "velocity": 99}, {"time": 3022, "pitch": 66, "duration": 5, "velocity": 94}, {"time": 3028, "pitch": 59, "duration": 4, "velocity": 94}, {"time": 3034, "pitch": 59, "duration": 4, "velocity": 107}, {"time": 3034, "pitch": 63, "duration": 4, "velocity": 119}, {"time": 3034, "pitch": 66, "duration": 4, "velocity": 100}, {"time": 3034, "pitch": 71, "duration": 4, "velocity": 94}, {"time": 3037, "pitch": 54, "duration": 4, "velocity": 95}, {"time": 3040, "pitch": 59, "duration": 2, "velocity": 98}, {"time": 3043, "pitch": 59, "duration": 2, "velocity": 82}, {"time": 3043, "pitch": 63, "duration": 4, "velocity": 107}, {"time": 3043, "pitch": 66, "duration": 1, "velocity": 81}, {"time": 3046, "pitch": 40, "duration": 14, "velocity": 97}, {"time": 3046, "pitch": 59, "duration": 4, "velocity": 95}, {"time": 3046, "pitch": 64, "duration": 7, "velocity": 95}, {"time": 3046, "pitch": 68, "duration": 7, "velocity": 90}, {"time": 3052, "pitch": 59, "duration": 4, "velocity": 97}, {"time": 3058, "pitch": 59, "duration": 3, "velocity": 99}, {"time": 3058, "pitch": 64, "duration": 7, "velocity": 104}, {"time": 3058, "pitch": 68, "duration": 7, "velocity": 98}, {"time": 3064, "pitch": 59, "duration": 4, "velocity": 94}, {"time": 3067, "pitch": 64, "duration": 2, "velocity": 92}, {"time": 3070, "pitch": 47, "duration": 16, "velocity": 95}, {"time": 3070, "pitch": 59, "duration": 5, "velocity": 95}, {"time": 3070, "pitch": 63, "duration": 7, "velocity": 104}, {"time": 3076, "pitch": 54, "duration": 10, "velocity": 84}, {"time": 3082, "pitch": 59, "duration": 3, "velocity": 98}, {"time": 3082, "pitch": 63, "duration": 7, "velocity": 107}, {"time": 3082, "pitch": 66, "duration": 7, "velocity": 97}, {"time": 3088, "pitch": 59, "duration": 4, "velocity": 95}, {"time": 3094, "pitch": 37, "duration": 13, "velocity": 95}, {"time": 3094, "pitch": 56, "duration": 4, "velocity": 88}, {"time": 3094, "pitch": 61, "duration": 8, "velocity": 86}, {"time": 3094, "pitch": 64, "duration": 10, "velocity": 97}, {"time": 3100, "pitch": 56, "duration": 4, "velocity": 93}, {"time": 3106, "pitch": 56, "duration": 3, "velocity": 97}, {"time": 3106, "pitch": 61, "duration": 6, "velocity": 100}, {"time": 3106, "pitch": 64, "duration": 7, "velocity": 98}, {"time": 3112, "pitch": 56, "duration": 5, "velocity": 98}, {"time": 3118, "pitch": 44, "duration": 16, "velocity": 100}, {"time": 3118, "pitch": 56, "duration": 6, "velocity": 93}, {"time": 3118, "pitch": 59, "duration": 9, "velocity": 93}, {"time": 3118, "pitch": 63, "duration": 10, "velocity": 93}, {"time": 3124, "pitch": 51, "duration": 8, "velocity": 84}, {"time": 3127, "pitch": 56, "duration": 2, "velocity": 88}, {"time": 3130, "pitch": 56, "duration": 3, "velocity": 98}, {"time": 3130, "pitch": 59, "duration": 3, "velocity": 104}, {"time": 3130, "pitch": 63, "duration": 4, "velocity": 98}, {"time": 3133, "pitch": 51, "duration": 3, "velocity": 95}, {"time": 3136, "pitch": 44, "duration": 4, "velocity": 94}, {"time": 3142, "pitch": 45, "duration": 19, "velocity": 95}, {"time": 3142, "pitch": 57, "duration": 9, "velocity": 87}, {"time": 3142, "pitch": 61, "duration": 8, "velocity": 87}, {"time": 3142, "pitch": 64, "duration": 8, "velocity": 93}, {"time": 3148, "pitch": 52, "duration": 8, "velocity": 87}, {"time": 3154, "pitch": 57, "duration": 6, "velocity": 102}, {"time": 3154, "pitch": 61, "duration": 6, "velocity": 109}, {"time": 3154, "pitch": 64, "duration": 6, "velocity": 104}, {"time": 3160, "pitch": 52, "duration": 2, "velocity": 96}, {"time": 3166, "pitch": 44, "duration": 15, "velocity": 104}, {"time": 3166, "pitch": 56, "duration": 6, "velocity": 98}, {"time": 3166, "pitch": 59, "duration": 7, "velocity": 98}, {"time": 3166, "pitch": 63, "duration": 7, "velocity": 93}, {"time": 3172, "pitch": 51, "duration": 8, "velocity": 75}, {"time": 3175, "pitch": 56, "duration": 2, "velocity": 95}, {"time": 3178, "pitch": 56, "duration": 6, "velocity": 102}, {"time": 3178, "pitch": 59, "duration": 5, "velocity": 107}, {"time": 3178, "pitch": 63, "duration": 6, "velocity": 93}, {"time": 3178, "pitch": 68, "duration": 7, "velocity": 90}, {"time": 3184, "pitch": 51, "duration": 2, "velocity": 95}, {"time": 3190, "pitch": 45, "duration": 9, "velocity": 96}, {"time": 3190, "pitch": 57, "duration": 5, "velocity": 94}, {"time": 3190, "pitch": 61, "duration": 7, "velocity": 95}, {"time": 3190, "pitch": 64, "duration": 7, "velocity": 99}, {"time": 3196, "pitch": 52, "duration": 4, "velocity": 83}, {"time": 3202, "pitch": 46, "duration": 6, "velocity": 110}, {"time": 3202, "pitch": 58, "duration": 6, "velocity": 94}, {"time": 3202, "pitch": 61, "duration": 6, "velocity": 94}, {"time": 3214, "pitch": 47, "duration": 13, "velocity": 97}, {"time": 3214, "pitch": 59, "duration": 3, "velocity": 99}, {"time": 3214, "pitch": 63, "duration": 4, "velocity": 99}, {"time": 3214, "pitch": 66, "duration": 5, "velocity": 94}, {"time": 3220, "pitch": 59, "duration": 4, "velocity": 94}, {"time": 3226, "pitch": 59, "duration": 4, "velocity": 107}, {"time": 3226, "pitch": 63, "duration": 4, "velocity": 119}, {"time": 3226, "pitch": 66, "duration": 4, "velocity": 100}, {"time": 3226, "pitch": 71, "duration": 4, "velocity": 94}, {"time": 3229, "pitch": 54, "duration": 4, "velocity": 95}, {"time": 3232, "pitch": 59, "duration": 2, "velocity": 98}, {"time": 3235, "pitch": 59, "duration": 2, "velocity": 82}, {"time": 3235, "pitch": 63, "duration": 4, "velocity": 107}, {"time": 3235, "pitch": 66, "duration": 1, "velocity": 81}, {"time": 3238, "pitch": 40, "duration": 21, "velocity": 98}, {"time": 3238, "pitch": 64, "duration": 8, "velocity": 92}, {"time": 3238, "pitch": 76, "duration": 7, "velocity": 94}, {"time": 3244, "pitch": 47, "duration": 9, "velocity": 87}, {"time": 3250, "pitch": 64, "duration": 7, "velocity": 100}, {"time": 3250, "pitch": 68, "duration": 7, "velocity": 98}, {"time": 3250, "pitch": 71, "duration": 7, "velocity": 95}, {"time": 3256, "pitch": 47, "duration": 4, "velocity": 85}, {"time": 3262, "pitch": 36, "duration": 4, "velocity": 92}, {"time": 3262, "pitch": 60, "duration": 4, "velocity": 87}, {"time": 3262, "pitch": 64, "duration": 4, "velocity": 93}, {"time": 3262, "pitch": 67, "duration": 4, "velocity": 81}, {"time": 3262, "pitch": 72, "duration": 4, "velocity": 77}, {"time": 3268, "pitch": 48, "duration": 4, "velocity": 95}, {"time": 3268, "pitch": 60, "duration": 5, "velocity": 86}, {"time": 3268, "pitch": 64, "duration": 4, "velocity": 89}, {"time": 3268, "pitch": 67, "duration": 5, "velocity": 86}, {"time": 3274, "pitch": 48, "duration": 4, "velocity": 98}, {"time": 3274, "pitch": 55, "duration": 5, "velocity": 95}, {"time": 3274, "pitch": 60, "duration": 12, "velocity": 93}, {"time": 3274, "pitch": 64, "duration": 12, "velocity": 96}, {"time": 3274, "pitch": 67, "duration": 12, "velocity": 94}, {"time": 3274, "pitch": 72, "duration": 12, "velocity": 92}, {"time": 3280, "pitch": 48, "duration": 7, "velocity": 97}, {"time": 3286, "pitch": 41, "duration": 14, "velocity": 97}, {"time": 3286, "pitch": 60, "duration": 4, "velocity": 95}, {"time": 3286, "pitch": 65, "duration": 7, "velocity": 95}, {"time": 3286, "pitch": 69, "duration": 7, "velocity": 90}, {"time": 3292, "pitch": 60, "duration": 4, "velocity": 97}, {"time": 3298, "pitch": 60, "duration": 3, "velocity": 99}, {"time": 3298, "pitch": 65, "duration": 7, "velocity": 104}, {"time": 3298, "pitch": 69, "duration": 7, "velocity": 98}, {"time": 3304, "pitch": 60, "duration": 4, "velocity": 94}, {"time": 3307, "pitch": 65, "duration": 2, "velocity": 92}, {"time": 3310, "pitch": 48, "duration": 16, "velocity": 95}, {"time": 3310, "pitch": 60, "duration": 5, "velocity": 95}, {"time": 3310, "pitch": 64, "duration": 7, "velocity": 104}, {"time": 3316, "pitch": 55, "duration": 10, "velocity": 84}, {"time": 3322, "pitch": 60, "duration": 3, "velocity": 98}, {"time": 3322, "pitch": 64, "duration": 7, "velocity": 107}, {"time": 3322, "pitch": 67, "duration": 7, "velocity": 97}, {"time": 3328, "pitch": 60, "duration": 4, "velocity": 95}, {"time": 3334, "pitch": 38, "duration": 13, "velocity": 95}, {"time": 3334, "pitch": 57, "duration": 4, "velocity": 88}, {"time": 3334, "pitch": 62, "duration": 8, "velocity": 86}, {"time": 3334, "pitch": 65, "duration": 10, "velocity": 97}, {"time": 3340, "pitch": 57, "duration": 4, "velocity": 93}, {"time": 3346, "pitch": 57, "duration": 3, "velocity": 97}, {"time": 3346, "pitch": 62, "duration": 6, "velocity": 100}, {"time": 3346, "pitch": 65, "duration": 7, "velocity": 98}, {"time": 3352, "pitch": 57, "duration": 5, "velocity": 98}, {"time": 3358, "pitch": 45, "duration": 16, "velocity": 100}, {"time": 3358, "pitch": 57, "duration": 6, "velocity": 93}, {"time": 3358, "pitch": 60, "duration": 9, "velocity": 93}, {"time": 3358, "pitch": 64, "duration": 10, "velocity": 93}, {"time": 3364, "pitch": 52, "duration": 8, "velocity": 84}, {"time": 3367, "pitch": 57, "duration": 2, "velocity": 88}, {"time": 3370, "pitch": 57, "duration": 3, "velocity": 98}, {"time": 3370, "pitch": 60, "duration": 3, "velocity": 104}, {"time": 3370, "pitch": 64, "duration": 4, "velocity": 98}, {"time": 3373, "pitch": 52, "duration": 3, "velocity": 95}, {"time": 3376, "pitch": 45, "duration": 4, "velocity": 94}, {"time": 3382, "pitch": 46, "duration": 19, "velocity": 95}, {"time": 3382, "pitch": 58, "duration": 9, "velocity": 87}, {"time": 3382, "pitch": 62, "duration": 8, "velocity": 87}, {"time": 3382, "pitch": 65, "duration": 8, "velocity": 93}, {"time": 3388, "pitch": 53, "duration": 8, "velocity": 87}, {"time": 3394, "pitch": 58, "duration": 6, "velocity": 102}, {"time": 3394, "pitch": 62, "duration": 6, "velocity": 109}, {"time": 3394, "pitch": 65, "duration": 6, "velocity": 104}, {"time": 3400, "pitch": 53, "duration": 2, "velocity": 96}, {"time": 3406, "pitch": 45, "duration": 15, "velocity": 104}, {"time": 3406, "pitch": 57, "duration": 6, "velocity": 98}, {"time": 3406, "pitch": 60, "duration": 7, "velocity": 98}, {"time": 3406, "pitch": 64, "duration": 7, "velocity": 93}, {"time": 3412, "pitch": 52, "duration": 8, "velocity": 75}, {"time": 3415, "pitch": 57, "duration": 2, "velocity": 95}, {"time": 3418, "pitch": 57, "duration": 6, "velocity": 102}, {"time": 3418, "pitch": 60, "duration": 5, "velocity": 107}, {"time": 3418, "pitch": 64, "duration": 6, "velocity": 93}, {"time": 3418, "pitch": 69, "duration": 7, "velocity": 90}, {"time": 3424, "pitch": 52, "duration": 2, "velocity": 95}, {"time": 3430, "pitch": 46, "duration": 9, "velocity": 96}, {"time": 3430, "pitch": 58, "duration": 5, "velocity": 94}, {"time": 3430, "pitch": 62, "duration": 7, "velocity": 95}, {"time": 3430, "pitch": 65, "duration": 7, "velocity": 99}, {"time": 3436, "pitch": 53, "duration": 4, "velocity": 83}, {"time": 3442, "pitch": 47, "duration": 6, "velocity": 110}, {"time": 3442, "pitch": 59, "duration": 6, "velocity": 94}, {"time": 3442, "pitch": 62, "duration": 6, "velocity": 94}, {"time": 3454, "pitch": 48, "duration": 13, "velocity": 97}, {"time": 3454, "pitch": 60, "duration": 3, "velocity": 99}, {"time": 3454, "pitch": 64, "duration": 4, "velocity": 99}, {"time": 3454, "pitch": 67, "duration": 5, "velocity": 94}, {"time": 3460, "pitch": 60, "duration": 4, "velocity": 94}, {"time": 3466, "pitch": 60, "duration": 4, "velocity": 107}, {"time": 3466, "pitch": 64, "duration": 4, "velocity": 119}, {"time": 3466, "pitch": 67, "duration": 4, "velocity": 100}, {"time": 3466, "pitch": 72, "duration": 4, "velocity": 94}, {"time": 3469, "pitch": 55, "duration": 4, "velocity": 95}, {"time": 3472, "pitch": 60, "duration": 2, "velocity": 98}, {"time": 3475, "pitch": 60, "duration": 2, "velocity": 82}, {"time": 3475, "pitch": 64, "duration": 4, "velocity": 107}, {"time": 3475, "pitch": 67, "duration": 1, "velocity": 81}, {"time": 3478, "pitch": 41, "duration": 14, "velocity": 97}, {"time": 3478, "pitch": 60, "duration": 4, "velocity": 95}, {"time": 3478, "pitch": 65, "duration": 7, "velocity": 95}, {"time": 3478, "pitch": 69, "duration": 7, "velocity": 90}, {"time": 3484, "pitch": 60, "duration": 4, "velocity": 97}, {"time": 3490, "pitch": 60, "duration": 3, "velocity": 99}, {"time": 3490, "pitch": 65, "duration": 7, "velocity": 104}, {"time": 3490, "pitch": 69, "duration": 7, "velocity": 98}, {"time": 3496, "pitch": 60, "duration": 4, "velocity": 94}, {"time": 3499, "pitch": 65, "duration": 2, "velocity": 92}, {"time": 3502, "pitch": 48, "duration": 16, "velocity": 95}, {"time": 3502, "pitch": 60, "duration": 5, "velocity": 95}, {"time": 3502, "pitch": 64, "duration": 7, "velocity": 104}, {"time": 3508, "pitch": 55, "duration": 10, "velocity": 84}, {"time": 3514, "pitch": 60, "duration": 3, "velocity": 98}, {"time": 3514, "pitch": 64, "duration": 7, "velocity": 107}, {"time": 3514, "pitch": 67, "duration": 7, "velocity": 97}, {"time": 3520, "pitch": 60, "duration": 4, "velocity": 95}, {"time": 3526, "pitch": 38, "duration": 13, "velocity": 95}, {"time": 3526, "pitch": 57, "duration": 4, "velocity": 88}, {"time": 3526, "pitch": 62, "duration": 8, "velocity": 86}, {"time": 3526, "pitch": 65, "duration": 10, "velocity": 97}, {"time": 3532, "pitch": 57, "duration": 4, "velocity": 93}, {"time": 3538, "pitch": 57, "duration": 3, "velocity": 97}, {"time": 3538, "pitch": 62, "duration": 6, "velocity": 100}, {"time": 3538, "pitch": 65, "duration": 7, "velocity": 98}, {"time": 3544, "pitch": 57, "duration": 5, "velocity": 98}, {"time": 3550, "pitch": 45, "duration": 16, "velocity": 100}, {"time": 3550, "pitch": 57, "duration": 6, "velocity": 93}, {"time": 3550, "pitch": 60, "duration": 9, "velocity": 93}, {"time": 3550, "pitch": 64, "duration": 10, "velocity": 93}, {"time": 3556, "pitch": 52, "duration": 8, "velocity": 84}, {"time": 3559, "pitch": 57, "duration": 2, "velocity": 88}, {"time": 3562, "pitch": 57, "duration": 3, "velocity": 98}, {"time": 3562, "pitch": 60, "duration": 3, "velocity": 104}, {"time": 3562, "pitch": 64, "duration": 4, "velocity": 98}, {"time": 3565, "pitch": 52, "duration": 3, "velocity": 95}, {"time": 3568, "pitch": 45, "duration": 4, "velocity": 94}, {"time": 3574, "pitch": 46, "duration": 19, "velocity": 95}, {"time": 3574, "pitch": 58, "duration": 9, "velocity": 87}, {"time": 3574, "pitch": 62, "duration": 8, "velocity": 87}, {"time": 3574, "pitch": 65, "duration": 8, "velocity": 93}, {"time": 3580, "pitch": 53, "duration": 8, "velocity": 87}, {"time": 3586, "pitch": 58, "duration": 6, "velocity": 102}, {"time": 3586, "pitch": 62, "duration": 6, "velocity": 109}, {"time": 3586, "pitch": 65, "duration": 6, "velocity": 104}, {"time": 3592, "pitch": 53, "duration": 2, "velocity": 96}, {"time": 3598, "pitch": 45, "duration": 15, "velocity": 104}, {"time": 3598, "pitch": 57, "duration": 6, "velocity": 98}, {"time": 3598, "pitch": 60, "duration": 7, "velocity": 98}, {"time": 3598, "pitch": 64, "duration": 7, "velocity": 93}, {"time": 3604, "pitch": 52, "duration": 8, "velocity": 75}, {"time": 3607, "pitch": 57, "duration": 2, "velocity": 95}, {"time": 3610, "pitch": 57, "duration": 6, "velocity": 102}, {"time": 3610, "pitch": 60, "duration": 5, "velocity": 107}, {"time": 3610, "pitch": 64, "duration": 6, "velocity": 93}, {"time": 3610, "pitch": 69, "duration": 7, "velocity": 90}, {"time": 3616, "pitch": 52, "duration": 2, "velocity": 95}, {"time": 3622, "pitch": 46, "duration": 9, "velocity": 96}, {"time": 3622, "pitch": 58, "duration": 5, "velocity": 94}, {"time": 3622, "pitch": 62, "duration": 7, "velocity": 95}, {"time": 3622, "pitch": 65, "duration": 7, "velocity": 99}, {"time": 3628, "pitch": 53, "duration": 4, "velocity": 83}, {"time": 3634, "pitch": 47, "duration": 6, "velocity": 110}, {"time": 3634, "pitch": 59, "duration": 6, "velocity": 94}, {"time": 3634, "pitch": 62, "duration": 6, "velocity": 94}, {"time": 3646, "pitch": 48, "duration": 13, "velocity": 97}, {"time": 3646, "pitch": 60, "duration": 3, "velocity": 99}, {"time": 3646, "pitch": 64, "duration": 4, "velocity": 99}, {"time": 3646, "pitch": 67, "duration": 5, "velocity": 94}, {"time": 3652, "pitch": 60, "duration": 4, "velocity": 94}, {"time": 3658, "pitch": 60, "duration": 4, "velocity": 107}, {"time": 3658, "pitch": 64, "duration": 4, "velocity": 119}, {"time": 3658, "pitch": 67, "duration": 4, "velocity": 100}, {"time": 3658, "pitch": 72, "duration": 4, "velocity": 94}, {"time": 3661, "pitch": 55, "duration": 4, "velocity": 95}, {"time": 3664, "pitch": 60, "duration": 2, "velocity": 98}, {"time": 3667, "pitch": 60, "duration": 2, "velocity": 82}, {"time": 3667, "pitch": 64, "duration": 4, "velocity": 107}, {"time": 3667, "pitch": 67, "duration": 1, "velocity": 81}, {"time": 3670, "pitch": 41, "duration": 46, "velocity": 93}, {"time": 3670, "pitch": 60, "duration": 9, "velocity": 82}, {"time": 3670, "pitch": 65, "duration": 12, "velocity": 82}, {"time": 3670, "pitch": 69, "duration": 13, "velocity": 80}, {"time": 3676, "pitch": 48, "duration": 9, "velocity": 81}, {"time": 3682, "pitch": 60, "duration": 9, "velocity": 96}, {"time": 3688, "pitch": 48, "duration": 27, "velocity": 79}, {"time": 3694, "pitch": 60, "duration": 22, "velocity": 88}, {"time": 3694, "pitch": 65, "duration": 22, "velocity": 87}, {"time": 3694, "pitch": 69, "duration": 22, "velocity": 85}, {"time": 3718, "pitch": 41, "duration": 40, "velocity": 87}, {"time": 3718, "pitch": 60, "duration": 9, "velocity": 83}, {"time": 3718, "pitch": 65, "duration": 9, "velocity": 84}, {"time": 3724, "pitch": 48, "duration": 11, "velocity": 72}, {"time": 3730, "pitch": 60, "duration": 8, "velocity": 81}, {"time": 3736, "pitch": 48, "duration": 22, "velocity": 52}, {"time": 3742, "pitch": 60, "duration": 14, "velocity": 77}, {"time": 3742, "pitch": 65, "duration": 14, "velocity": 77}, {"time": 3742, "pitch": 69, "duration": 15, "velocity": 56}, {"time": 3766, "pitch": 58, "duration": 8, "velocity": 80}, {"time": 3766, "pitch": 62, "duration": 8, "velocity": 85}, {"time": 3766, "pitch": 65, "duration": 8, "velocity": 81}, {"time": 3766, "pitch": 50, "duration": 49, "velocity": 90}, {"time": 3779, "pitch": 62, "duration": 4, "velocity": 85}, {"time": 3779, "pitch": 65, "duration": 4, "velocity": 82}, {"time": 3779, "pitch": 58, "duration": 3, "velocity": 78}, {"time": 3791, "pitch": 62, "duration": 4, "velocity": 84}, {"time": 3791, "pitch": 65, "duration": 4, "velocity": 81}, {"time": 3791, "pitch": 58, "duration": 4, "velocity": 75}, {"time": 3802, "pitch": 62, "duration": 12, "velocity": 84}, {"time": 3802, "pitch": 65, "duration": 12, "velocity": 83}, {"time": 3802, "pitch": 58, "duration": 3, "velocity": 76}, {"time": 3808, "pitch": 58, "duration": 6, "velocity": 81}, {"time": 3814, "pitch": 61, "duration": 9, "velocity": 81}, {"time": 3814, "pitch": 68, "duration": 8, "velocity": 84}, {"time": 3814, "pitch": 49, "duration": 17, "velocity": 95}, {"time": 3821, "pitch": 56, "duration": 11, "velocity": 60}, {"time": 3828, "pitch": 68, "duration": 5, "velocity": 90}, {"time": 3828, "pitch": 61, "duration": 4, "velocity": 92}, {"time": 3828, "pitch": 65, "duration": 4, "velocity": 91}, {"time": 3835, "pitch": 49, "duration": 1, "velocity": 85}, {"time": 3842, "pitch": 70, "duration": 11, "velocity": 87}, {"time": 3842, "pitch": 39, "duration": 19, "velocity": 90}, {"time": 3842, "pitch": 63, "duration": 11, "velocity": 88}, {"time": 3849, "pitch": 46, "duration": 11, "velocity": 62}, {"time": 3857, "pitch": 70, "duration": 25, "velocity": 90}, {"time": 3857, "pitch": 67, "duration": 22, "velocity": 89}, {"time": 3857, "pitch": 63, "duration": 24, "velocity": 92}, {"time": 3878, "pitch": 41, "duration": 71, "velocity": 94}, {"time": 3883, "pitch": 48, "duration": 65, "velocity": 78}, {"time": 3887, "pitch": 53, "duration": 4, "velocity": 75}, {"time": 3891, "pitch": 55, "duration": 3, "velocity": 89}, {"time": 3895, "pitch": 57, "duration": 6, "velocity": 88}, {"time": 3899, "pitch": 60, "duration": 4, "velocity": 92}, {"time": 3904, "pitch": 60, "duration": 2, "velocity": 87}, {"time": 3904, "pitch": 65, "duration": 3, "velocity": 91}, {"time": 3904, "pitch": 57, "duration": 2, "velocity": 85}, {"time": 3909, "pitch": 67, "duration": 2, "velocity": 79}, {"time": 3909, "pitch": 65, "duration": 2, "velocity": 80}, {"time": 3915, "pitch": 69, "duration": 3, "velocity": 85}, {"time": 3915, "pitch": 65, "duration": 3, "velocity": 80}, {"time": 3920, "pitch": 72, "duration": 2, "velocity": 84}, {"time": 3920, "pitch": 65, "duration": 2, "velocity": 79}, {"time": 3920, "pitch": 69, "duration": 2, "velocity": 79}, {"time": 3936, "pitch": 77, "duration": 2, "velocity": 64}, {"time": 3937, "pitch": 81, "duration": 1, "velocity": 82}], "annotations": [{"time": 22, "annotation": {"number": 64, "value": 127}, "group": "control_change"}, {"time": 23, "annotation": {"number": 64, "value": 0}, "group": "control_change"}, {"time": 23, "annotation": {"number": 64, "value": 127}, "group": "control_change"}, {"time": 45, "annotation": {"number": 64, "value": 0}, "group": "control_change"}, {"time": 48, "annotation": {"number": 64, "value": 127}, "group": "control_change"}, {"time": 68, "annotation": {"number": 64, "value": 0}, "group": "control_change"}, {"time": 71, "annotation": {"number": 64, "value": 127}, "group": "control_change"}, {"time": 93, "annotation": {"number": 64, "value": 0}, "group": "control_change"}, {"time": 94, "annotation": {"number": 64, "value": 127}, "group": "control_change"}, {"time": 105, "annotation": {"number": 64, "value": 0}, "group": "control_change"}, {"time": 107, "annotation": {"number": 64, "value": 127}, "group": "control_change"}, {"time": 119, "annotation": {"number": 64, "value": 0}, "group": "control_change"}, {"time": 124, "annotation": {"number": 64, "value": 127}, "group": "control_change"}, {"time": 143, "annotation": {"number": 64, "value": 0}, "group": "control_change"}, {"time": 148, "annotation": {"number": 64, "value": 127}, "group": "control_change"}, {"time": 165, "annotation": {"number": 64, "value": 0}, "group": "control_change"}, {"time": 167, "annotation": {"number": 64, "value": 127}, "group": "control_change"}, {"time": 187, "annotation": {"number": 64, "value": 0}, "group": "control_change"}, {"time": 189, "annotation": {"number": 64, "value": 127}, "group": "control_change"}, {"time": 209, "annotation": {"number": 64, "value": 0}, "group": "control_change"}, {"time": 216, "annotation": {"number": 64, "value": 127}, "group": "control_change"}, {"time": 261, "annotation": {"number": 64, "value": 0}, "group": "control_change"}, {"time": 263, "annotation": {"number": 64, "value": 127}, "group": "control_change"}, {"time": 308, "annotation": {"number": 64, "value": 0}, "group": "control_change"}, {"time": 311, "annotation": {"number": 64, "value": 127}, "group": "control_change"}, {"time": 311, "annotation": {"number": 64, "value": 0}, "group": "control_change"}, {"time": 334, "annotation": {"number": 64, "value": 0}, "group": "control_change"}, {"time": 340, "annotation": {"number": 64, "value": 127}, "group": "control_change"}, {"time": 360, "annotation": {"number": 64, "value": 0}, "group": "control_change"}, {"time": 365, "annotation": {"number": 64, "value": 127}, "group": "control_change"}, {"time": 406, "annotation": {"number": 64, "value": 0}, "group": "control_change"}, {"time": 412, "annotation": {"number": 64, "value": 127}, "group": "control_change"}, {"time": 430, "annotation": {"number": 64, "value": 0}, "group": "control_change"}, {"time": 436, "annotation": {"number": 64, "value": 127}, "group": "control_change"}, {"time": 453, "annotation": {"number": 64, "value": 0}, "group": "control_change"}, {"time": 459, "annotation": {"number": 64, "value": 127}, "group": "control_change"}, {"time": 501, "annotation": {"number": 64, "value": 0}, "group": "control_change"}, {"time": 507, "annotation": {"number": 64, "value": 127}, "group": "control_change"}, {"time": 525, "annotation": {"number": 64, "value": 0}, "group": "control_change"}, {"time": 531, "annotation": {"number": 64, "value": 127}, "group": "control_change"}, {"time": 550, "annotation": {"number": 64, "value": 0}, "group": "control_change"}, {"time": 555, "annotation": {"number": 64, "value": 127}, "group": "control_change"}, {"time": 597, "annotation": {"number": 64, "value": 0}, "group": "control_change"}, {"time": 603, "annotation": {"number": 64, "value": 127}, "group": "control_change"}, {"time": 621, "annotation": {"number": 64, "value": 0}, "group": "control_change"}, {"time": 627, "annotation": {"number": 64, "value": 127}, "group": "control_change"}, {"time": 644, "annotation": {"number": 64, "value": 0}, "group": "control_change"}, {"time": 651, "annotation": {"number": 64, "value": 127}, "group": "control_change"}, {"time": 693, "annotation": {"number": 64, "value": 0}, "group": "control_change"}, {"time": 695, "annotation": {"number": 64, "value": 127}, "group": "control_change"}, {"time": 717, "annotation": {"number": 64, "value": 0}, "group": "control_change"}, {"time": 721, "annotation": {"number": 64, "value": 127}, "group": "control_change"}, {"time": 741, "annotation": {"number": 64, "value": 0}, "group": "control_change"}, {"time": 744, "annotation": {"number": 64, "value": 127}, "group": "control_change"}, {"time": 764, "annotation": {"number": 64, "value": 0}, "group": "control_change"}, {"time": 765, "annotation": {"number": 64, "value": 127}, "group": "control_change"}, {"time": 789, "annotation": {"number": 64, "value": 0}, "group": "control_change"}, {"time": 795, "annotation": {"number": 64, "value": 127}, "group": "control_change"}, {"time": 814, "annotation": {"number": 64, "value": 0}, "group": "control_change"}, {"time": 819, "annotation": {"number": 64, "value": 127}, "group": "control_change"}, {"time": 837, "annotation": {"number": 64, "value": 0}, "group": "control_change"}, {"time": 841, "annotation": {"number": 64, "value": 127}, "group": "control_change"}, {"time": 884, "annotation": {"number": 64, "value": 0}, "group": "control_change"}, {"time": 890, "annotation": {"number": 64, "value": 127}, "group": "control_change"}, {"time": 910, "annotation": {"number": 64, "value": 0}, "group": "control_change"}, {"time": 915, "annotation": {"number": 64, "value": 127}, "group": "control_change"}, {"time": 934, "annotation": {"number": 64, "value": 0}, "group": "control_change"}, {"time": 937, "annotation": {"number": 64, "value": 127}, "group": "control_change"}, {"time": 980, "annotation": {"number": 64, "value": 0}, "group": "control_change"}, {"time": 987, "annotation": {"number": 64, "value": 127}, "group": "control_change"}, {"time": 1006, "annotation": {"number": 64, "value": 0}, "group": "control_change"}, {"time": 1011, "annotation": {"number": 64, "value": 127}, "group": "control_change"}, {"time": 1028, "annotation": {"number": 64, "value": 0}, "group": "control_change"}, {"time": 1031, "annotation": {"number": 64, "value": 127}, "group": "control_change"}, {"time": 1052, "annotation": {"number": 64, "value": 0}, "group": "control_change"}, {"time": 1053, "annotation": {"number": 64, "value": 127}, "group": "control_change"}, {"time": 1077, "annotation": {"number": 64, "value": 0}, "group": "control_change"}, {"time": 1078, "annotation": {"number": 64, "value": 127}, "group": "control_change"}, {"time": 1103, "annotation": {"number": 64, "value": 0}, "group": "control_change"}, {"time": 1108, "annotation": {"number": 64, "value": 127}, "group": "control_change"}, {"time": 1126, "annotation": {"number": 64, "value": 0}, "group": "control_change"}, {"time": 1131, "annotation": {"number": 64, "value": 127}, "group": "control_change"}, {"time": 1149, "annotation": {"number": 64, "value": 0}, "group": "control_change"}, {"time": 1155, "annotation": {"number": 64, "value": 127}, "group": "control_change"}, {"time": 1173, "annotation": {"number": 64, "value": 0}, "group": "control_change"}, {"time": 1178, "annotation": {"number": 64, "value": 127}, "group": "control_change"}, {"time": 1198, "annotation": {"number": 64, "value": 0}, "group": "control_change"}, {"time": 1203, "annotation": {"number": 64, "value": 127}, "group": "control_change"}, {"time": 1222, "annotation": {"number": 64, "value": 0}, "group": "control_change"}, {"time": 1227, "annotation": {"number": 64, "value": 127}, "group": "control_change"}, {"time": 1244, "annotation": {"number": 64, "value": 0}, "group": "control_change"}, {"time": 1250, "annotation": {"number": 64, "value": 127}, "group": "control_change"}, {"time": 1268, "annotation": {"number": 64, "value": 0}, "group": "control_change"}, {"time": 1273, "annotation": {"number": 64, "value": 127}, "group": "control_change"}, {"time": 1293, "annotation": {"number": 64, "value": 0}, "group": "control_change"}, {"time": 1296, "annotation": {"number": 64, "value": 127}, "group": "control_change"}, {"time": 1317, "annotation": {"number": 64, "value": 0}, "group": "control_change"}, {"time": 1320, "annotation": {"number": 64, "value": 127}, "group": "control_change"}, {"time": 1340, "annotation": {"number": 64, "value": 0}, "group": "control_change"}, {"time": 1342, "annotation": {"number": 64, "value": 127}, "group": "control_change"}, {"time": 1365, "annotation": {"number": 64, "value": 0}, "group": "control_change"}, {"time": 1367, "annotation": {"number": 64, "value": 127}, "group": "control_change"}, {"time": 1389, "annotation": {"number": 64, "value": 0}, "group": "control_change"}, {"time": 1392, "annotation": {"number": 64, "value": 127}, "group": "control_change"}, {"time": 1414, "annotation": {"number": 64, "value": 0}, "group": "control_change"}, {"time": 1415, "annotation": {"number": 64, "value": 127}, "group": "control_change"}, {"time": 1437, "annotation": {"number": 64, "value": 0}, "group": "control_change"}, {"time": 1442, "annotation": {"number": 64, "value": 127}, "group": "control_change"}, {"time": 1462, "annotation": {"number": 64, "value": 0}, "group": "control_change"}, {"time": 1467, "annotation": {"number": 64, "value": 127}, "group": "control_change"}, {"time": 1485, "annotation": {"number": 64, "value": 0}, "group": "control_change"}, {"time": 1491, "annotation": {"number": 64, "value": 127}, "group": "control_change"}, {"time": 1509, "annotation": {"number": 64, "value": 0}, "group": "control_change"}, {"time": 1513, "annotation": {"number": 64, "value": 127}, "group": "control_change"}, {"time": 1521, "annotation": {"number": 64, "value": 0}, "group": "control_change"}, {"time": 1523, "annotation": {"number": 64, "value": 127}, "group": "control_change"}, {"time": 1532, "annotation": {"number": 64, "value": 0}, "group": "control_change"}, {"time": 1536, "annotation": {"number": 64, "value": 127}, "group": "control_change"}, {"time": 1557, "annotation": {"number": 64, "value": 0}, "group": "control_change"}, {"time": 1559, "annotation": {"number": 64, "value": 127}, "group": "control_change"}, {"time": 1581, "annotation": {"number": 64, "value": 0}, "group": "control_change"}, {"time": 1584, "annotation": {"number": 64, "value": 127}, "group": "control_change"}, {"time": 1606, "annotation": {"number": 64, "value": 0}, "group": "control_change"}, {"time": 1607, "annotation": {"number": 64, "value": 127}, "group": "control_change"}, {"time": 1629, "annotation": {"number": 64, "value": 0}, "group": "control_change"}, {"time": 1634, "annotation": {"number": 64, "value": 127}, "group": "control_change"}, {"time": 1654, "annotation": {"number": 64, "value": 0}, "group": "control_change"}, {"time": 1659, "annotation": {"number": 64, "value": 127}, "group": "control_change"}, {"time": 1677, "annotation": {"number": 64, "value": 0}, "group": "control_change"}, {"time": 1683, "annotation": {"number": 64, "value": 127}, "group": "control_change"}, {"time": 1701, "annotation": {"number": 64, "value": 0}, "group": "control_change"}, {"time": 1705, "annotation": {"number": 64, "value": 127}, "group": "control_change"}, {"time": 1713, "annotation": {"number": 64, "value": 0}, "group": "control_change"}, {"time": 1715, "annotation": {"number": 64, "value": 127}, "group": "control_change"}, {"time": 1724, "annotation": {"number": 64, "value": 0}, "group": "control_change"}, {"time": 1728, "annotation": {"number": 64, "value": 127}, "group": "control_change"}, {"time": 1749, "annotation": {"number": 64, "value": 0}, "group": "control_change"}, {"time": 1749, "annotation": {"number": 64, "value": 127}, "group": "control_change"}, {"time": 1794, "annotation": {"number": 64, "value": 0}, "group": "control_change"}, {"time": 1799, "annotation": {"number": 64, "value": 127}, "group": "control_change"}, {"time": 1818, "annotation": {"number": 64, "value": 0}, "group": "control_change"}, {"time": 1824, "annotation": {"number": 64, "value": 127}, "group": "control_change"}, {"time": 1844, "annotation": {"number": 64, "value": 0}, "group": "control_change"}, {"time": 1851, "annotation": {"number": 64, "value": 127}, "group": "control_change"}, {"time": 1868, "annotation": {"number": 64, "value": 0}, "group": "control_change"}, {"time": 1873, "annotation": {"number": 64, "value": 127}, "group": "control_change"}, {"time": 1893, "annotation": {"number": 64, "value": 0}, "group": "control_change"}, {"time": 1899, "annotation": {"number": 64, "value": 127}, "group": "control_change"}, {"time": 1915, "annotation": {"number": 64, "value": 0}, "group": "control_change"}, {"time": 1921, "annotation": {"number": 64, "value": 127}, "group": "control_change"}, {"time": 1940, "annotation": {"number": 64, "value": 0}, "group": "control_change"}, {"time": 1943, "annotation": {"number": 64, "value": 127}, "group": "control_change"}, {"time": 1964, "annotation": {"number": 64, "value": 0}, "group": "control_change"}, {"time": 1966, "annotation": {"number": 64, "value": 127}, "group": "control_change"}, {"time": 1973, "annotation": {"number": 64, "value": 0}, "group": "control_change"}, {"time": 1974, "annotation": {"number": 64, "value": 127}, "group": "control_change"}, {"time": 1981, "annotation": {"number": 64, "value": 0}, "group": "control_change"}, {"time": 1982, "annotation": {"number": 64, "value": 127}, "group": "control_change"}, {"time": 1989, "annotation": {"number": 64, "value": 0}, "group": "control_change"}, {"time": 1991, "annotation": {"number": 64, "value": 127}, "group": "control_change"}, {"time": 1991, "annotation": {"number": 64, "value": 0}, "group": "control_change"}, {"time": 2012, "annotation": {"number": 64, "value": 0}, "group": "control_change"}, {"time": 2014, "annotation": {"number": 64, "value": 127}, "group": "control_change"}, {"time": 2037, "annotation": {"number": 64, "value": 0}, "group": "control_change"}, {"time": 2041, "annotation": {"number": 64, "value": 127}, "group": "control_change"}, {"time": 2062, "annotation": {"number": 64, "value": 0}, "group": "control_change"}, {"time": 2064, "annotation": {"number": 64, "value": 127}, "group": "control_change"}, {"time": 2085, "annotation": {"number": 64, "value": 0}, "group": "control_change"}, {"time": 2086, "annotation": {"number": 64, "value": 127}, "group": "control_change"}, {"time": 2086, "annotation": {"number": 64, "value": 0}, "group": "control_change"}, {"time": 2108, "annotation": {"number": 64, "value": 0}, "group": "control_change"}, {"time": 2111, "annotation": {"number": 64, "value": 127}, "group": "control_change"}, {"time": 2133, "annotation": {"number": 64, "value": 0}, "group": "control_change"}, {"time": 2137, "annotation": {"number": 64, "value": 127}, "group": "control_change"}, {"time": 2179, "annotation": {"number": 64, "value": 0}, "group": "control_change"}, {"time": 2183, "annotation": {"number": 64, "value": 127}, "group": "control_change"}, {"time": 2205, "annotation": {"number": 64, "value": 0}, "group": "control_change"}, {"time": 2209, "annotation": {"number": 64, "value": 127}, "group": "control_change"}, {"time": 2229, "annotation": {"number": 64, "value": 0}, "group": "control_change"}, {"time": 2232, "annotation": {"number": 64, "value": 127}, "group": "control_change"}, {"time": 2252, "annotation": {"number": 64, "value": 0}, "group": "control_change"}, {"time": 2253, "annotation": {"number": 64, "value": 127}, "group": "control_change"}, {"time": 2277, "annotation": {"number": 64, "value": 0}, "group": "control_change"}, {"time": 2283, "annotation": {"number": 64, "value": 127}, "group": "control_change"}, {"time": 2302, "annotation": {"number": 64, "value": 0}, "group": "control_change"}, {"time": 2307, "annotation": {"number": 64, "value": 127}, "group": "control_change"}, {"time": 2325, "annotation": {"number": 64, "value": 0}, "group": "control_change"}, {"time": 2329, "annotation": {"number": 64, "value": 127}, "group": "control_change"}, {"time": 2372, "annotation": {"number": 64, "value": 0}, "group": "control_change"}, {"time": 2378, "annotation": {"number": 64, "value": 127}, "group": "control_change"}, {"time": 2398, "annotation": {"number": 64, "value": 0}, "group": "control_change"}, {"time": 2403, "annotation": {"number": 64, "value": 127}, "group": "control_change"}, {"time": 2422, "annotation": {"number": 64, "value": 0}, "group": "control_change"}, {"time": 2425, "annotation": {"number": 64, "value": 127}, "group": "control_change"}, {"time": 2468, "annotation": {"number": 64, "value": 0}, "group": "control_change"}, {"time": 2475, "annotation": {"number": 64, "value": 127}, "group": "control_change"}, {"time": 2494, "annotation": {"number": 64, "value": 0}, "group": "control_change"}, {"time": 2499, "annotation": {"number": 64, "value": 127}, "group": "control_change"}, {"time": 2516, "annotation": {"number": 64, "value": 0}, "group": "control_change"}, {"time": 2519, "annotation": {"number": 64, "value": 127}, "group": "control_change"}, {"time": 2540, "annotation": {"number": 64, "value": 0}, "group": "control_change"}, {"time": 2541, "annotation": {"number": 64, "value": 127}, "group": "control_change"}, {"time": 2565, "annotation": {"number": 64, "value": 0}, "group": "control_change"}, {"time": 2566, "annotation": {"number": 64, "value": 127}, "group": "control_change"}, {"time": 2591, "annotation": {"number": 64, "value": 0}, "group": "control_change"}, {"time": 2596, "annotation": {"number": 64, "value": 127}, "group": "control_change"}, {"time": 2614, "annotation": {"number": 64, "value": 0}, "group": "control_change"}, {"time": 2619, "annotation": {"number": 64, "value": 127}, "group": "control_change"}, {"time": 2637, "annotation": {"number": 64, "value": 0}, "group": "control_change"}, {"time": 2643, "annotation": {"number": 64, "value": 127}, "group": "control_change"}, {"time": 2661, "annotation": {"number": 64, "value": 0}, "group": "control_change"}, {"time": 2666, "annotation": {"number": 64, "value": 127}, "group": "control_change"}, {"time": 2686, "annotation": {"number": 64, "value": 0}, "group": "control_change"}, {"time": 2691, "annotation": {"number": 64, "value": 127}, "group": "control_change"}, {"time": 2710, "annotation": {"number": 64, "value": 0}, "group": "control_change"}, {"time": 2715, "annotation": {"number": 64, "value": 127}, "group": "control_change"}, {"time": 2732, "annotation": {"number": 64, "value": 0}, "group": "control_change"}, {"time": 2738, "annotation": {"number": 64, "value": 127}, "group": "control_change"}, {"time": 2756, "annotation": {"number": 64, "value": 0}, "group": "control_change"}, {"time": 2761, "annotation": {"number": 64, "value": 127}, "group": "control_change"}, {"time": 2781, "annotation": {"number": 64, "value": 0}, "group": "control_change"}, {"time": 2784, "annotation": {"number": 64, "value": 127}, "group": "control_change"}, {"time": 2805, "annotation": {"number": 64, "value": 0}, "group": "control_change"}, {"time": 2808, "annotation": {"number": 64, "value": 127}, "group": "control_change"}, {"time": 2828, "annotation": {"number": 64, "value": 0}, "group": "control_change"}, {"time": 2830, "annotation": {"number": 64, "value": 127}, "group": "control_change"}, {"time": 2853, "annotation": {"number": 64, "value": 0}, "group": "control_change"}, {"time": 2855, "annotation": {"number": 64, "value": 127}, "group": "control_change"}, {"time": 2877, "annotation": {"number": 64, "value": 0}, "group": "control_change"}, {"time": 2880, "annotation": {"number": 64, "value": 127}, "group": "control_change"}, {"time": 2902, "annotation": {"number": 64, "value": 0}, "group": "control_change"}, {"time": 2903, "annotation": {"number": 64, "value": 127}, "group": "control_change"}, {"time": 2925, "annotation": {"number": 64, "value": 0}, "group": "control_change"}, {"time": 2930, "annotation": {"number": 64, "value": 127}, "group": "control_change"}, {"time": 2950, "annotation": {"number": 64, "value": 0}, "group": "control_change"}, {"time": 2955, "annotation": {"number": 64, "value": 127}, "group": "control_change"}, {"time": 2973, "annotation": {"number": 64, "value": 0}, "group": "control_change"}, {"time": 2979, "annotation": {"number": 64, "value": 127}, "group": "control_change"}, {"time": 2997, "annotation": {"number": 64, "value": 0}, "group": "control_change"}, {"time": 3001, "annotation": {"number": 64, "value": 127}, "group": "control_change"}, {"time": 3009, "annotation": {"number": 64, "value": 0}, "group": "control_change"}, {"time": 3011, "annotation": {"number": 64, "value": 127}, "group": "control_change"}, {"time": 3020, "annotation": {"number": 64, "value": 0}, "group": "control_change"}, {"time": 3024, "annotation": {"number": 64, "value": 127}, "group": "control_change"}, {"time": 3045, "annotation": {"number": 64, "value": 0}, "group": "control_change"}, {"time": 3047, "annotation": {"number": 64, "value": 127}, "group": "control_change"}, {"time": 3069, "annotation": {"number": 64, "value": 0}, "group": "control_change"}, {"time": 3072, "annotation": {"number": 64, "value": 127}, "group": "control_change"}, {"time": 3094, "annotation": {"number": 64, "value": 0}, "group": "control_change"}, {"time": 3095, "annotation": {"number": 64, "value": 127}, "group": "control_change"}, {"time": 3117, "annotation": {"number": 64, "value": 0}, "group": "control_change"}, {"time": 3122, "annotation": {"number": 64, "value": 127}, "group": "control_change"}, {"time": 3142, "annotation": {"number": 64, "value": 0}, "group": "control_change"}, {"time": 3147, "annotation": {"number": 64, "value": 127}, "group": "control_change"}, {"time": 3165, "annotation": {"number": 64, "value": 0}, "group": "control_change"}, {"time": 3171, "annotation": {"number": 64, "value": 127}, "group": "control_change"}, {"time": 3189, "annotation": {"number": 64, "value": 0}, "group": "control_change"}, {"time": 3193, "annotation": {"number": 64, "value": 127}, "group": "control_change"}, {"time": 3201, "annotation": {"number": 64, "value": 0}, "group": "control_change"}, {"time": 3203, "annotation": {"number": 64, "value": 127}, "group": "control_change"}, {"time": 3212, "annotation": {"number": 64, "value": 0}, "group": "control_change"}, {"time": 3216, "annotation": {"number": 64, "value": 127}, "group": "control_change"}, {"time": 3237, "annotation": {"number": 64, "value": 0}, "group": "control_change"}, {"time": 3237, "annotation": {"number": 64, "value": 127}, "group": "control_change"}, {"time": 3240, "annotation": {"number": 64, "value": 127}, "group": "control_change"}, {"time": 3249, "annotation": {"number": 64, "value": 0}, "group": "control_change"}, {"time": 3251, "annotation": {"number": 64, "value": 127}, "group": "control_change"}, {"time": 3261, "annotation": {"number": 64, "value": 0}, "group": "control_change"}, {"time": 3263, "annotation": {"number": 64, "value": 127}, "group": "control_change"}, {"time": 3281, "annotation": {"number": 64, "value": 0}, "group": "control_change"}, {"time": 3287, "annotation": {"number": 64, "value": 127}, "group": "control_change"}, {"time": 3309, "annotation": {"number": 64, "value": 0}, "group": "control_change"}, {"time": 3312, "annotation": {"number": 64, "value": 127}, "group": "control_change"}, {"time": 3334, "annotation": {"number": 64, "value": 0}, "group": "control_change"}, {"time": 3335, "annotation": {"number": 64, "value": 127}, "group": "control_change"}, {"time": 3357, "annotation": {"number": 64, "value": 0}, "group": "control_change"}, {"time": 3362, "annotation": {"number": 64, "value": 127}, "group": "control_change"}, {"time": 3382, "annotation": {"number": 64, "value": 0}, "group": "control_change"}, {"time": 3387, "annotation": {"number": 64, "value": 127}, "group": "control_change"}, {"time": 3405, "annotation": {"number": 64, "value": 0}, "group": "control_change"}, {"time": 3411, "annotation": {"number": 64, "value": 127}, "group": "control_change"}, {"time": 3429, "annotation": {"number": 64, "value": 0}, "group": "control_change"}, {"time": 3433, "annotation": {"number": 64, "value": 127}, "group": "control_change"}, {"time": 3441, "annotation": {"number": 64, "value": 0}, "group": "control_change"}, {"time": 3443, "annotation": {"number": 64, "value": 127}, "group": "control_change"}, {"time": 3452, "annotation": {"number": 64, "value": 0}, "group": "control_change"}, {"time": 3456, "annotation": {"number": 64, "value": 127}, "group": "control_change"}, {"time": 3477, "annotation": {"number": 64, "value": 0}, "group": "control_change"}, {"time": 3479, "annotation": {"number": 64, "value": 127}, "group": "control_change"}, {"time": 3501, "annotation": {"number": 64, "value": 0}, "group": "control_change"}, {"time": 3504, "annotation": {"number": 64, "value": 127}, "group": "control_change"}, {"time": 3526, "annotation": {"number": 64, "value": 0}, "group": "control_change"}, {"time": 3527, "annotation": {"number": 64, "value": 127}, "group": "control_change"}, {"time": 3549, "annotation": {"number": 64, "value": 0}, "group": "control_change"}, {"time": 3554, "annotation": {"number": 64, "value": 127}, "group": "control_change"}, {"time": 3574, "annotation": {"number": 64, "value": 0}, "group": "control_change"}, {"time": 3579, "annotation": {"number": 64, "value": 127}, "group": "control_change"}, {"time": 3597, "annotation": {"number": 64, "value": 0}, "group": "control_change"}, {"time": 3603, "annotation": {"number": 64, "value": 127}, "group": "control_change"}, {"time": 3621, "annotation": {"number": 64, "value": 0}, "group": "control_change"}, {"time": 3625, "annotation": {"number": 64, "value": 127}, "group": "control_change"}, {"time": 3633, "annotation": {"number": 64, "value": 0}, "group": "control_change"}, {"time": 3635, "annotation": {"number": 64, "value": 127}, "group": "control_change"}, {"time": 3644, "annotation": {"number": 64, "value": 0}, "group": "control_change"}, {"time": 3648, "annotation": {"number": 64, "value": 127}, "group": "control_change"}, {"time": 3669, "annotation": {"number": 64, "value": 0}, "group": "control_change"}, {"time": 3669, "annotation": {"number": 64, "value": 127}, "group": "control_change"}, {"time": 3670, "annotation": {"number": 64, "value": 127}, "group": "control_change"}, {"time": 3765, "annotation": {"number": 64, "value": 0}, "group": "control_change"}, {"time": 3766, "annotation": {"number": 64, "value": 127}, "group": "control_change"}, {"time": 3813, "annotation": {"number": 64, "value": 0}, "group": "control_change"}, {"time": 3815, "annotation": {"number": 64, "value": 127}, "group": "control_change"}, {"time": 3841, "annotation": {"number": 64, "value": 0}, "group": "control_change"}, {"time": 3844, "annotation": {"number": 64, "value": 127}, "group": "control_change"}, {"time": 3877, "annotation": {"number": 64, "value": 0}, "group": "control_change"}, {"time": 3881, "annotation": {"number": 64, "value": 127}, "group": "control_change"}, {"time": 3881, "annotation": {"number": 64, "value": 0}, "group": "control_change"}, {"time": 3980, "annotation": {"number": 64, "value": 0}, "group": "control_change"}]}]}