{"metadata": {"schema_version": "0.2", "title": "None", "source_filename": "440.mid", "source_format": "midi"}, "resolution": 12, "tempos": [{"time": 0, "qpm": 74.5000117958352}, {"time": 201, "qpm": 74.80000349066682}, {"time": 252, "qpm": 75.10007084440016}, {"time": 300, "qpm": 74.5000117958352}, {"time": 1164, "qpm": 74.90000848866762}, {"time": 1246, "qpm": 74.6000504793675}, {"time": 1296, "qpm": 74.5000117958352}, {"time": 2972, "qpm": 74.80000349066682}, {"time": 3091, "qpm": 74.5000117958352}], "time_signatures": [{"time": 0, "numerator": 1, "denominator": 4}], "tracks": [{"program": 0, "is_drum": false, "name": "MELODY", "notes": [{"time": 571, "pitch": 56, "duration": 6, "velocity": 90}, {"time": 577, "pitch": 56, "duration": 6, "velocity": 91}, {"time": 583, "pitch": 67, "duration": 6, "velocity": 93}, {"time": 589, "pitch": 68, "duration": 6, "velocity": 71}, {"time": 595, "pitch": 67, "duration": 6, "velocity": 90}, {"time": 601, "pitch": 68, "duration": 5, "velocity": 84}, {"time": 606, "pitch": 67, "duration": 7, "velocity": 88}, {"time": 613, "pitch": 63, "duration": 12, "velocity": 91}, {"time": 625, "pitch": 56, "duration": 48, "velocity": 87}, {"time": 673, "pitch": 56, "duration": 6, "velocity": 88}, {"time": 679, "pitch": 67, "duration": 6, "velocity": 90}, {"time": 685, "pitch": 68, "duration": 6, "velocity": 85}, {"time": 691, "pitch": 67, "duration": 6, "velocity": 91}, {"time": 697, "pitch": 68, "duration": 6, "velocity": 87}, {"time": 703, "pitch": 67, "duration": 6, "velocity": 93}, {"time": 709, "pitch": 63, "duration": 6, "velocity": 95}, {"time": 715, "pitch": 60, "duration": 6, "velocity": 90}, {"time": 721, "pitch": 65, "duration": 60, "velocity": 87}, {"time": 781, "pitch": 68, "duration": 6, "velocity": 82}, {"time": 787, "pitch": 68, "duration": 6, "velocity": 88}, {"time": 793, "pitch": 65, "duration": 6, "velocity": 90}, {"time": 799, "pitch": 68, "duration": 6, "velocity": 88}, {"time": 805, "pitch": 70, "duration": 6, "velocity": 87}, {"time": 811, "pitch": 72, "duration": 6, "velocity": 87}, {"time": 817, "pitch": 68, "duration": 24, "velocity": 89}, {"time": 841, "pitch": 65, "duration": 6, "velocity": 89}, {"time": 847, "pitch": 68, "duration": 6, "velocity": 89}, {"time": 853, "pitch": 70, "duration": 6, "velocity": 87}, {"time": 859, "pitch": 72, "duration": 6, "velocity": 89}, {"time": 865, "pitch": 73, "duration": 24, "velocity": 88}, {"time": 889, "pitch": 70, "duration": 6, "velocity": 87}, {"time": 895, "pitch": 70, "duration": 6, "velocity": 87}, {"time": 901, "pitch": 68, "duration": 6, "velocity": 86}, {"time": 907, "pitch": 67, "duration": 6, "velocity": 85}, {"time": 913, "pitch": 67, "duration": 12, "velocity": 87}, {"time": 925, "pitch": 63, "duration": 30, "velocity": 88}, {"time": 955, "pitch": 56, "duration": 6, "velocity": 90}, {"time": 961, "pitch": 56, "duration": 6, "velocity": 91}, {"time": 967, "pitch": 67, "duration": 6, "velocity": 93}, {"time": 973, "pitch": 68, "duration": 6, "velocity": 71}, {"time": 979, "pitch": 67, "duration": 6, "velocity": 90}, {"time": 985, "pitch": 68, "duration": 5, "velocity": 84}, {"time": 990, "pitch": 67, "duration": 7, "velocity": 88}, {"time": 997, "pitch": 63, "duration": 6, "velocity": 91}, {"time": 1003, "pitch": 58, "duration": 6, "velocity": 91}, {"time": 1009, "pitch": 56, "duration": 48, "velocity": 87}, {"time": 1057, "pitch": 56, "duration": 6, "velocity": 88}, {"time": 1063, "pitch": 67, "duration": 6, "velocity": 90}, {"time": 1069, "pitch": 68, "duration": 6, "velocity": 85}, {"time": 1075, "pitch": 67, "duration": 6, "velocity": 91}, {"time": 1081, "pitch": 68, "duration": 6, "velocity": 87}, {"time": 1087, "pitch": 70, "duration": 6, "velocity": 93}, {"time": 1093, "pitch": 72, "duration": 6, "velocity": 95}, {"time": 1099, "pitch": 65, "duration": 6, "velocity": 90}, {"time": 1105, "pitch": 68, "duration": 60, "velocity": 87}, {"time": 1165, "pitch": 68, "duration": 6, "velocity": 82}, {"time": 1171, "pitch": 68, "duration": 6, "velocity": 88}, {"time": 1177, "pitch": 65, "duration": 6, "velocity": 90}, {"time": 1183, "pitch": 68, "duration": 6, "velocity": 88}, {"time": 1189, "pitch": 70, "duration": 6, "velocity": 87}, {"time": 1195, "pitch": 72, "duration": 6, "velocity": 87}, {"time": 1201, "pitch": 68, "duration": 30, "velocity": 89}, {"time": 1231, "pitch": 68, "duration": 6, "velocity": 89}, {"time": 1237, "pitch": 70, "duration": 6, "velocity": 87}, {"time": 1243, "pitch": 72, "duration": 6, "velocity": 89}, {"time": 1249, "pitch": 73, "duration": 24, "velocity": 88}, {"time": 1273, "pitch": 68, "duration": 6, "velocity": 86}, {"time": 1279, "pitch": 68, "duration": 6, "velocity": 90}, {"time": 1285, "pitch": 70, "duration": 6, "velocity": 87}, {"time": 1291, "pitch": 72, "duration": 6, "velocity": 87}, {"time": 1297, "pitch": 72, "duration": 12, "velocity": 88}, {"time": 1309, "pitch": 70, "duration": 66, "velocity": 89}, {"time": 1375, "pitch": 68, "duration": 12, "velocity": 83}, {"time": 1387, "pitch": 70, "duration": 12, "velocity": 88}, {"time": 1399, "pitch": 77, "duration": 6, "velocity": 93}, {"time": 1405, "pitch": 75, "duration": 6, "velocity": 87}, {"time": 1411, "pitch": 75, "duration": 6, "velocity": 90}, {"time": 1417, "pitch": 73, "duration": 3, "velocity": 87}, {"time": 1420, "pitch": 73, "duration": 9, "velocity": 88}, {"time": 1429, "pitch": 72, "duration": 6, "velocity": 88}, {"time": 1435, "pitch": 68, "duration": 6, "velocity": 88}, {"time": 1441, "pitch": 77, "duration": 12, "velocity": 90}, {"time": 1453, "pitch": 75, "duration": 30, "velocity": 90}, {"time": 1483, "pitch": 68, "duration": 6, "velocity": 92}, {"time": 1489, "pitch": 70, "duration": 6, "velocity": 87}, {"time": 1495, "pitch": 77, "duration": 6, "velocity": 93}, {"time": 1501, "pitch": 75, "duration": 6, "velocity": 88}, {"time": 1507, "pitch": 75, "duration": 6, "velocity": 93}, {"time": 1513, "pitch": 73, "duration": 3, "velocity": 87}, {"time": 1516, "pitch": 73, "duration": 9, "velocity": 88}, {"time": 1525, "pitch": 72, "duration": 6, "velocity": 89}, {"time": 1531, "pitch": 70, "duration": 6, "velocity": 86}, {"time": 1537, "pitch": 68, "duration": 6, "velocity": 87}, {"time": 1543, "pitch": 67, "duration": 6, "velocity": 87}, {"time": 1549, "pitch": 72, "duration": 6, "velocity": 86}, {"time": 1555, "pitch": 72, "duration": 24, "velocity": 87}, {"time": 1579, "pitch": 68, "duration": 6, "velocity": 86}, {"time": 1585, "pitch": 67, "duration": 6, "velocity": 92}, {"time": 1591, "pitch": 65, "duration": 12, "velocity": 93}, {"time": 1603, "pitch": 77, "duration": 12, "velocity": 93}, {"time": 1615, "pitch": 75, "duration": 12, "velocity": 88}, {"time": 1627, "pitch": 72, "duration": 6, "velocity": 89}, {"time": 1633, "pitch": 73, "duration": 6, "velocity": 87}, {"time": 1639, "pitch": 75, "duration": 12, "velocity": 90}, {"time": 1651, "pitch": 72, "duration": 12, "velocity": 88}, {"time": 1663, "pitch": 68, "duration": 12, "velocity": 87}, {"time": 1675, "pitch": 65, "duration": 6, "velocity": 90}, {"time": 1681, "pitch": 68, "duration": 6, "velocity": 86}, {"time": 1687, "pitch": 73, "duration": 6, "velocity": 92}, {"time": 1693, "pitch": 72, "duration": 6, "velocity": 90}, {"time": 1699, "pitch": 68, "duration": 6, "velocity": 88}, {"time": 1705, "pitch": 68, "duration": 12, "velocity": 89}, {"time": 1717, "pitch": 72, "duration": 12, "velocity": 88}, {"time": 1729, "pitch": 70, "duration": 30, "velocity": 89}, {"time": 1759, "pitch": 68, "duration": 12, "velocity": 83}, {"time": 1771, "pitch": 70, "duration": 12, "velocity": 88}, {"time": 1783, "pitch": 77, "duration": 6, "velocity": 93}, {"time": 1789, "pitch": 75, "duration": 6, "velocity": 87}, {"time": 1795, "pitch": 75, "duration": 6, "velocity": 90}, {"time": 1801, "pitch": 73, "duration": 3, "velocity": 87}, {"time": 1804, "pitch": 73, "duration": 9, "velocity": 88}, {"time": 1813, "pitch": 72, "duration": 6, "velocity": 88}, {"time": 1819, "pitch": 70, "duration": 6, "velocity": 88}, {"time": 1825, "pitch": 68, "duration": 6, "velocity": 90}, {"time": 1831, "pitch": 70, "duration": 3, "velocity": 90}, {"time": 1834, "pitch": 75, "duration": 6, "velocity": 90}, {"time": 1840, "pitch": 75, "duration": 27, "velocity": 90}, {"time": 1867, "pitch": 68, "duration": 6, "velocity": 92}, {"time": 1873, "pitch": 70, "duration": 6, "velocity": 87}, {"time": 1879, "pitch": 77, "duration": 6, "velocity": 93}, {"time": 1885, "pitch": 75, "duration": 6, "velocity": 88}, {"time": 1891, "pitch": 75, "duration": 6, "velocity": 93}, {"time": 1897, "pitch": 73, "duration": 3, "velocity": 87}, {"time": 1900, "pitch": 73, "duration": 9, "velocity": 88}, {"time": 1909, "pitch": 72, "duration": 6, "velocity": 89}, {"time": 1915, "pitch": 70, "duration": 6, "velocity": 86}, {"time": 1921, "pitch": 68, "duration": 6, "velocity": 87}, {"time": 1927, "pitch": 67, "duration": 6, "velocity": 87}, {"time": 1933, "pitch": 72, "duration": 6, "velocity": 86}, {"time": 1939, "pitch": 72, "duration": 24, "velocity": 87}, {"time": 1963, "pitch": 68, "duration": 6, "velocity": 86}, {"time": 1969, "pitch": 67, "duration": 6, "velocity": 92}, {"time": 1975, "pitch": 65, "duration": 12, "velocity": 93}, {"time": 1987, "pitch": 73, "duration": 12, "velocity": 93}, {"time": 1999, "pitch": 73, "duration": 12, "velocity": 88}, {"time": 2011, "pitch": 63, "duration": 6, "velocity": 89}, {"time": 2017, "pitch": 65, "duration": 6, "velocity": 87}, {"time": 2023, "pitch": 72, "duration": 12, "velocity": 90}, {"time": 2035, "pitch": 70, "duration": 12, "velocity": 88}, {"time": 2047, "pitch": 68, "duration": 12, "velocity": 87}, {"time": 2059, "pitch": 65, "duration": 6, "velocity": 90}, {"time": 2065, "pitch": 68, "duration": 6, "velocity": 86}, {"time": 2071, "pitch": 73, "duration": 6, "velocity": 92}, {"time": 2077, "pitch": 72, "duration": 6, "velocity": 90}, {"time": 2083, "pitch": 68, "duration": 6, "velocity": 88}, {"time": 2089, "pitch": 68, "duration": 12, "velocity": 89}, {"time": 2101, "pitch": 65, "duration": 12, "velocity": 88}, {"time": 2113, "pitch": 70, "duration": 36, "velocity": 89}, {"time": 2149, "pitch": 68, "duration": 6, "velocity": 89}, {"time": 2155, "pitch": 67, "duration": 6, "velocity": 86}, {"time": 2161, "pitch": 68, "duration": 186, "velocity": 87}, {"time": 2347, "pitch": 56, "duration": 6, "velocity": 90}, {"time": 2353, "pitch": 56, "duration": 6, "velocity": 91}, {"time": 2359, "pitch": 67, "duration": 6, "velocity": 93}, {"time": 2365, "pitch": 68, "duration": 6, "velocity": 71}, {"time": 2371, "pitch": 67, "duration": 6, "velocity": 90}, {"time": 2377, "pitch": 68, "duration": 5, "velocity": 84}, {"time": 2382, "pitch": 67, "duration": 7, "velocity": 88}, {"time": 2389, "pitch": 63, "duration": 6, "velocity": 91}, {"time": 2395, "pitch": 58, "duration": 6, "velocity": 91}, {"time": 2401, "pitch": 56, "duration": 48, "velocity": 87}, {"time": 2449, "pitch": 56, "duration": 6, "velocity": 88}, {"time": 2455, "pitch": 67, "duration": 6, "velocity": 90}, {"time": 2461, "pitch": 68, "duration": 6, "velocity": 85}, {"time": 2467, "pitch": 67, "duration": 6, "velocity": 91}, {"time": 2473, "pitch": 68, "duration": 6, "velocity": 87}, {"time": 2479, "pitch": 70, "duration": 6, "velocity": 93}, {"time": 2485, "pitch": 72, "duration": 6, "velocity": 95}, {"time": 2491, "pitch": 65, "duration": 6, "velocity": 90}, {"time": 2497, "pitch": 68, "duration": 60, "velocity": 87}, {"time": 2557, "pitch": 68, "duration": 6, "velocity": 82}, {"time": 2563, "pitch": 68, "duration": 6, "velocity": 88}, {"time": 2569, "pitch": 65, "duration": 6, "velocity": 90}, {"time": 2575, "pitch": 68, "duration": 6, "velocity": 88}, {"time": 2581, "pitch": 70, "duration": 6, "velocity": 87}, {"time": 2587, "pitch": 72, "duration": 6, "velocity": 87}, {"time": 2593, "pitch": 68, "duration": 30, "velocity": 89}, {"time": 2623, "pitch": 68, "duration": 6, "velocity": 89}, {"time": 2629, "pitch": 70, "duration": 6, "velocity": 87}, {"time": 2635, "pitch": 72, "duration": 6, "velocity": 89}, {"time": 2641, "pitch": 73, "duration": 24, "velocity": 88}, {"time": 2665, "pitch": 68, "duration": 6, "velocity": 86}, {"time": 2671, "pitch": 68, "duration": 6, "velocity": 90}, {"time": 2677, "pitch": 70, "duration": 6, "velocity": 87}, {"time": 2683, "pitch": 72, "duration": 6, "velocity": 87}, {"time": 2689, "pitch": 72, "duration": 12, "velocity": 88}, {"time": 2701, "pitch": 70, "duration": 66, "velocity": 89}, {"time": 2767, "pitch": 68, "duration": 12, "velocity": 83}, {"time": 2779, "pitch": 70, "duration": 12, "velocity": 88}, {"time": 2791, "pitch": 77, "duration": 6, "velocity": 93}, {"time": 2797, "pitch": 75, "duration": 6, "velocity": 87}, {"time": 2803, "pitch": 75, "duration": 6, "velocity": 90}, {"time": 2809, "pitch": 73, "duration": 3, "velocity": 87}, {"time": 2812, "pitch": 73, "duration": 9, "velocity": 88}, {"time": 2821, "pitch": 72, "duration": 6, "velocity": 88}, {"time": 2827, "pitch": 68, "duration": 6, "velocity": 88}, {"time": 2833, "pitch": 77, "duration": 12, "velocity": 90}, {"time": 2845, "pitch": 75, "duration": 30, "velocity": 90}, {"time": 2875, "pitch": 68, "duration": 6, "velocity": 92}, {"time": 2881, "pitch": 70, "duration": 6, "velocity": 87}, {"time": 2887, "pitch": 77, "duration": 6, "velocity": 93}, {"time": 2893, "pitch": 75, "duration": 6, "velocity": 88}, {"time": 2899, "pitch": 75, "duration": 6, "velocity": 93}, {"time": 2905, "pitch": 73, "duration": 3, "velocity": 87}, {"time": 2908, "pitch": 73, "duration": 9, "velocity": 88}, {"time": 2917, "pitch": 72, "duration": 6, "velocity": 89}, {"time": 2923, "pitch": 70, "duration": 6, "velocity": 86}, {"time": 2929, "pitch": 68, "duration": 6, "velocity": 87}, {"time": 2935, "pitch": 67, "duration": 6, "velocity": 87}, {"time": 2941, "pitch": 72, "duration": 6, "velocity": 86}, {"time": 2947, "pitch": 72, "duration": 24, "velocity": 87}, {"time": 2971, "pitch": 68, "duration": 6, "velocity": 86}, {"time": 2977, "pitch": 67, "duration": 6, "velocity": 92}, {"time": 2983, "pitch": 65, "duration": 12, "velocity": 93}, {"time": 2995, "pitch": 77, "duration": 12, "velocity": 93}, {"time": 3007, "pitch": 75, "duration": 12, "velocity": 88}, {"time": 3019, "pitch": 72, "duration": 6, "velocity": 89}, {"time": 3025, "pitch": 73, "duration": 6, "velocity": 87}, {"time": 3031, "pitch": 75, "duration": 12, "velocity": 90}, {"time": 3043, "pitch": 72, "duration": 12, "velocity": 88}, {"time": 3055, "pitch": 68, "duration": 12, "velocity": 87}, {"time": 3067, "pitch": 65, "duration": 6, "velocity": 90}, {"time": 3073, "pitch": 68, "duration": 6, "velocity": 86}, {"time": 3079, "pitch": 73, "duration": 6, "velocity": 92}, {"time": 3085, "pitch": 72, "duration": 6, "velocity": 90}, {"time": 3091, "pitch": 68, "duration": 6, "velocity": 88}, {"time": 3097, "pitch": 68, "duration": 12, "velocity": 89}, {"time": 3109, "pitch": 72, "duration": 12, "velocity": 88}, {"time": 3121, "pitch": 70, "duration": 30, "velocity": 89}, {"time": 3151, "pitch": 68, "duration": 12, "velocity": 83}, {"time": 3163, "pitch": 70, "duration": 12, "velocity": 88}, {"time": 3175, "pitch": 77, "duration": 6, "velocity": 93}, {"time": 3181, "pitch": 75, "duration": 6, "velocity": 87}, {"time": 3187, "pitch": 75, "duration": 6, "velocity": 90}, {"time": 3193, "pitch": 73, "duration": 3, "velocity": 87}, {"time": 3196, "pitch": 73, "duration": 9, "velocity": 88}, {"time": 3205, "pitch": 72, "duration": 6, "velocity": 88}, {"time": 3211, "pitch": 70, "duration": 6, "velocity": 88}, {"time": 3217, "pitch": 68, "duration": 6, "velocity": 90}, {"time": 3223, "pitch": 70, "duration": 3, "velocity": 90}, {"time": 3226, "pitch": 75, "duration": 6, "velocity": 90}, {"time": 3232, "pitch": 75, "duration": 27, "velocity": 90}, {"time": 3259, "pitch": 68, "duration": 6, "velocity": 92}, {"time": 3265, "pitch": 70, "duration": 6, "velocity": 87}, {"time": 3271, "pitch": 77, "duration": 6, "velocity": 93}, {"time": 3277, "pitch": 75, "duration": 6, "velocity": 88}, {"time": 3283, "pitch": 75, "duration": 6, "velocity": 93}, {"time": 3289, "pitch": 73, "duration": 3, "velocity": 87}, {"time": 3292, "pitch": 73, "duration": 9, "velocity": 88}, {"time": 3301, "pitch": 72, "duration": 6, "velocity": 89}, {"time": 3307, "pitch": 70, "duration": 6, "velocity": 86}, {"time": 3313, "pitch": 68, "duration": 6, "velocity": 87}, {"time": 3319, "pitch": 67, "duration": 6, "velocity": 87}, {"time": 3325, "pitch": 72, "duration": 6, "velocity": 86}, {"time": 3331, "pitch": 72, "duration": 24, "velocity": 87}, {"time": 3355, "pitch": 68, "duration": 6, "velocity": 86}, {"time": 3361, "pitch": 67, "duration": 6, "velocity": 92}, {"time": 3367, "pitch": 65, "duration": 12, "velocity": 93}, {"time": 3379, "pitch": 73, "duration": 12, "velocity": 93}, {"time": 3391, "pitch": 73, "duration": 12, "velocity": 88}, {"time": 3403, "pitch": 63, "duration": 6, "velocity": 89}, {"time": 3409, "pitch": 65, "duration": 6, "velocity": 87}, {"time": 3415, "pitch": 72, "duration": 12, "velocity": 90}, {"time": 3427, "pitch": 70, "duration": 12, "velocity": 88}, {"time": 3439, "pitch": 68, "duration": 12, "velocity": 87}, {"time": 3451, "pitch": 65, "duration": 6, "velocity": 90}, {"time": 3457, "pitch": 68, "duration": 6, "velocity": 86}, {"time": 3463, "pitch": 73, "duration": 6, "velocity": 92}, {"time": 3469, "pitch": 72, "duration": 6, "velocity": 90}, {"time": 3475, "pitch": 68, "duration": 6, "velocity": 88}, {"time": 3481, "pitch": 68, "duration": 12, "velocity": 89}, {"time": 3493, "pitch": 65, "duration": 12, "velocity": 88}, {"time": 3505, "pitch": 70, "duration": 36, "velocity": 89}, {"time": 3541, "pitch": 68, "duration": 6, "velocity": 89}, {"time": 3547, "pitch": 67, "duration": 6, "velocity": 86}, {"time": 3553, "pitch": 68, "duration": 222, "velocity": 87}, {"time": 3775, "pitch": 68, "duration": 12, "velocity": 83}, {"time": 3787, "pitch": 70, "duration": 12, "velocity": 88}, {"time": 3799, "pitch": 77, "duration": 6, "velocity": 93}, {"time": 3805, "pitch": 75, "duration": 6, "velocity": 87}, {"time": 3811, "pitch": 75, "duration": 6, "velocity": 90}, {"time": 3817, "pitch": 73, "duration": 3, "velocity": 87}, {"time": 3820, "pitch": 73, "duration": 9, "velocity": 88}, {"time": 3829, "pitch": 72, "duration": 6, "velocity": 88}, {"time": 3835, "pitch": 70, "duration": 6, "velocity": 88}, {"time": 3841, "pitch": 68, "duration": 6, "velocity": 90}, {"time": 3847, "pitch": 70, "duration": 3, "velocity": 90}, {"time": 3850, "pitch": 75, "duration": 6, "velocity": 90}, {"time": 3856, "pitch": 75, "duration": 27, "velocity": 90}, {"time": 3883, "pitch": 68, "duration": 6, "velocity": 92}, {"time": 3889, "pitch": 70, "duration": 6, "velocity": 87}, {"time": 3895, "pitch": 77, "duration": 6, "velocity": 93}, {"time": 3901, "pitch": 75, "duration": 6, "velocity": 88}, {"time": 3907, "pitch": 75, "duration": 6, "velocity": 93}, {"time": 3913, "pitch": 73, "duration": 3, "velocity": 87}, {"time": 3916, "pitch": 73, "duration": 9, "velocity": 88}, {"time": 3925, "pitch": 72, "duration": 6, "velocity": 89}, {"time": 3931, "pitch": 70, "duration": 6, "velocity": 86}, {"time": 3937, "pitch": 68, "duration": 6, "velocity": 87}, {"time": 3943, "pitch": 67, "duration": 6, "velocity": 87}, {"time": 3949, "pitch": 72, "duration": 6, "velocity": 86}, {"time": 3955, "pitch": 72, "duration": 24, "velocity": 87}, {"time": 3979, "pitch": 68, "duration": 6, "velocity": 86}, {"time": 3985, "pitch": 67, "duration": 6, "velocity": 92}, {"time": 3991, "pitch": 65, "duration": 12, "velocity": 93}, {"time": 4003, "pitch": 73, "duration": 12, "velocity": 93}, {"time": 4015, "pitch": 73, "duration": 12, "velocity": 88}, {"time": 4027, "pitch": 63, "duration": 6, "velocity": 89}, {"time": 4033, "pitch": 65, "duration": 6, "velocity": 87}, {"time": 4039, "pitch": 72, "duration": 12, "velocity": 90}, {"time": 4051, "pitch": 70, "duration": 12, "velocity": 88}, {"time": 4063, "pitch": 68, "duration": 12, "velocity": 87}, {"time": 4075, "pitch": 65, "duration": 6, "velocity": 90}, {"time": 4081, "pitch": 68, "duration": 6, "velocity": 86}, {"time": 4087, "pitch": 73, "duration": 6, "velocity": 92}, {"time": 4093, "pitch": 72, "duration": 6, "velocity": 90}, {"time": 4099, "pitch": 68, "duration": 6, "velocity": 88}, {"time": 4105, "pitch": 68, "duration": 12, "velocity": 89}, {"time": 4117, "pitch": 65, "duration": 12, "velocity": 88}, {"time": 4129, "pitch": 70, "duration": 36, "velocity": 89}, {"time": 4165, "pitch": 68, "duration": 6, "velocity": 89}, {"time": 4171, "pitch": 67, "duration": 6, "velocity": 86}, {"time": 4177, "pitch": 68, "duration": 59, "velocity": 87}]}, {"program": 0, "is_drum": false, "name": "PIANO", "notes": [{"time": 7, "pitch": 54, "duration": 10, "velocity": 81}, {"time": 7, "pitch": 66, "duration": 7, "velocity": 77}, {"time": 7, "pitch": 70, "duration": 7, "velocity": 80}, {"time": 10, "pitch": 61, "duration": 4, "velocity": 73}, {"time": 19, "pitch": 59, "duration": 11, "velocity": 75}, {"time": 19, "pitch": 66, "duration": 8, "velocity": 79}, {"time": 19, "pitch": 71, "duration": 9, "velocity": 78}, {"time": 22, "pitch": 63, "duration": 6, "velocity": 75}, {"time": 28, "pitch": 54, "duration": 11, "velocity": 82}, {"time": 28, "pitch": 66, "duration": 8, "velocity": 79}, {"time": 28, "pitch": 70, "duration": 8, "velocity": 79}, {"time": 34, "pitch": 61, "duration": 4, "velocity": 73}, {"time": 43, "pitch": 59, "duration": 10, "velocity": 81}, {"time": 43, "pitch": 66, "duration": 12, "velocity": 81}, {"time": 43, "pitch": 71, "duration": 12, "velocity": 82}, {"time": 49, "pitch": 63, "duration": 6, "velocity": 76}, {"time": 55, "pitch": 47, "duration": 10, "velocity": 79}, {"time": 58, "pitch": 54, "duration": 9, "velocity": 58}, {"time": 61, "pitch": 59, "duration": 5, "velocity": 75}, {"time": 64, "pitch": 63, "duration": 11, "velocity": 82}, {"time": 67, "pitch": 46, "duration": 9, "velocity": 86}, {"time": 70, "pitch": 54, "duration": 7, "velocity": 76}, {"time": 73, "pitch": 58, "duration": 6, "velocity": 79}, {"time": 76, "pitch": 61, "duration": 7, "velocity": 85}, {"time": 79, "pitch": 44, "duration": 9, "velocity": 86}, {"time": 82, "pitch": 51, "duration": 7, "velocity": 73}, {"time": 85, "pitch": 56, "duration": 6, "velocity": 86}, {"time": 88, "pitch": 59, "duration": 4, "velocity": 87}, {"time": 91, "pitch": 42, "duration": 24, "velocity": 86}, {"time": 94, "pitch": 49, "duration": 20, "velocity": 73}, {"time": 97, "pitch": 54, "duration": 16, "velocity": 79}, {"time": 100, "pitch": 61, "duration": 14, "velocity": 82}, {"time": 103, "pitch": 66, "duration": 11, "velocity": 82}, {"time": 115, "pitch": 47, "duration": 23, "velocity": 77}, {"time": 115, "pitch": 59, "duration": 4, "velocity": 72}, {"time": 115, "pitch": 63, "duration": 8, "velocity": 81}, {"time": 121, "pitch": 59, "duration": 2, "velocity": 72}, {"time": 127, "pitch": 59, "duration": 2, "velocity": 70}, {"time": 127, "pitch": 63, "duration": 7, "velocity": 78}, {"time": 139, "pitch": 46, "duration": 23, "velocity": 75}, {"time": 139, "pitch": 58, "duration": 3, "velocity": 72}, {"time": 139, "pitch": 61, "duration": 9, "velocity": 77}, {"time": 145, "pitch": 58, "duration": 4, "velocity": 57}, {"time": 151, "pitch": 58, "duration": 3, "velocity": 77}, {"time": 151, "pitch": 61, "duration": 10, "velocity": 82}, {"time": 157, "pitch": 58, "duration": 5, "velocity": 82}, {"time": 162, "pitch": 56, "duration": 7, "velocity": 68}, {"time": 163, "pitch": 60, "duration": 5, "velocity": 79}, {"time": 163, "pitch": 44, "duration": 7, "velocity": 81}, {"time": 174, "pitch": 51, "duration": 6, "velocity": 68}, {"time": 175, "pitch": 39, "duration": 6, "velocity": 67}, {"time": 175, "pitch": 55, "duration": 5, "velocity": 73}, {"time": 176, "pitch": 58, "duration": 5, "velocity": 64}, {"time": 187, "pitch": 44, "duration": 63, "velocity": 86}, {"time": 190, "pitch": 51, "duration": 25, "velocity": 70}, {"time": 191, "pitch": 56, "duration": 63, "velocity": 72}, {"time": 192, "pitch": 60, "duration": 62, "velocity": 64}, {"time": 295, "pitch": 44, "duration": 45, "velocity": 73}, {"time": 307, "pitch": 56, "duration": 4, "velocity": 74}, {"time": 307, "pitch": 63, "duration": 4, "velocity": 65}, {"time": 343, "pitch": 44, "duration": 38, "velocity": 72}, {"time": 343, "pitch": 56, "duration": 5, "velocity": 59}, {"time": 343, "pitch": 63, "duration": 5, "velocity": 58}, {"time": 343, "pitch": 68, "duration": 6, "velocity": 61}, {"time": 349, "pitch": 51, "duration": 30, "velocity": 48}, {"time": 355, "pitch": 56, "duration": 18, "velocity": 65}, {"time": 355, "pitch": 63, "duration": 17, "velocity": 66}, {"time": 391, "pitch": 44, "duration": 46, "velocity": 84}, {"time": 391, "pitch": 56, "duration": 6, "velocity": 80}, {"time": 391, "pitch": 63, "duration": 10, "velocity": 82}, {"time": 397, "pitch": 51, "duration": 9, "velocity": 64}, {"time": 400, "pitch": 56, "duration": 3, "velocity": 72}, {"time": 403, "pitch": 60, "duration": 3, "velocity": 74}, {"time": 406, "pitch": 56, "duration": 3, "velocity": 79}, {"time": 409, "pitch": 51, "duration": 10, "velocity": 56}, {"time": 412, "pitch": 56, "duration": 2, "velocity": 76}, {"time": 421, "pitch": 51, "duration": 6, "velocity": 68}, {"time": 424, "pitch": 56, "duration": 1, "velocity": 78}, {"time": 427, "pitch": 56, "duration": 2, "velocity": 88}, {"time": 427, "pitch": 60, "duration": 3, "velocity": 97}, {"time": 430, "pitch": 51, "duration": 6, "velocity": 80}, {"time": 433, "pitch": 56, "duration": 3, "velocity": 83}, {"time": 436, "pitch": 60, "duration": 2, "velocity": 80}, {"time": 439, "pitch": 44, "duration": 46, "velocity": 86}, {"time": 439, "pitch": 56, "duration": 7, "velocity": 86}, {"time": 439, "pitch": 61, "duration": 9, "velocity": 87}, {"time": 445, "pitch": 51, "duration": 31, "velocity": 67}, {"time": 448, "pitch": 56, "duration": 3, "velocity": 79}, {"time": 454, "pitch": 61, "duration": 3, "velocity": 75}, {"time": 460, "pitch": 56, "duration": 1, "velocity": 69}, {"time": 463, "pitch": 56, "duration": 4, "velocity": 85}, {"time": 463, "pitch": 61, "duration": 6, "velocity": 82}, {"time": 475, "pitch": 56, "duration": 2, "velocity": 86}, {"time": 475, "pitch": 63, "duration": 4, "velocity": 86}, {"time": 478, "pitch": 51, "duration": 6, "velocity": 75}, {"time": 481, "pitch": 56, "duration": 3, "velocity": 79}, {"time": 487, "pitch": 44, "duration": 46, "velocity": 86}, {"time": 487, "pitch": 56, "duration": 6, "velocity": 82}, {"time": 487, "pitch": 60, "duration": 7, "velocity": 81}, {"time": 493, "pitch": 51, "duration": 20, "velocity": 61}, {"time": 496, "pitch": 56, "duration": 3, "velocity": 80}, {"time": 502, "pitch": 56, "duration": 2, "velocity": 81}, {"time": 502, "pitch": 63, "duration": 2, "velocity": 84}, {"time": 508, "pitch": 56, "duration": 1, "velocity": 72}, {"time": 511, "pitch": 56, "duration": 6, "velocity": 81}, {"time": 511, "pitch": 60, "duration": 6, "velocity": 82}, {"time": 517, "pitch": 51, "duration": 10, "velocity": 69}, {"time": 520, "pitch": 56, "duration": 2, "velocity": 76}, {"time": 526, "pitch": 56, "duration": 3, "velocity": 83}, {"time": 526, "pitch": 63, "duration": 3, "velocity": 86}, {"time": 529, "pitch": 51, "duration": 2, "velocity": 70}, {"time": 535, "pitch": 49, "duration": 41, "velocity": 86}, {"time": 535, "pitch": 56, "duration": 3, "velocity": 80}, {"time": 535, "pitch": 61, "duration": 6, "velocity": 81}, {"time": 541, "pitch": 56, "duration": 1, "velocity": 69}, {"time": 544, "pitch": 56, "duration": 3, "velocity": 85}, {"time": 544, "pitch": 61, "duration": 6, "velocity": 84}, {"time": 550, "pitch": 56, "duration": 3, "velocity": 73}, {"time": 556, "pitch": 56, "duration": 3, "velocity": 80}, {"time": 556, "pitch": 61, "duration": 6, "velocity": 84}, {"time": 568, "pitch": 56, "duration": 1, "velocity": 57}, {"time": 571, "pitch": 56, "duration": 11, "velocity": 83}, {"time": 571, "pitch": 61, "duration": 11, "velocity": 86}, {"time": 583, "pitch": 44, "duration": 46, "velocity": 86}, {"time": 583, "pitch": 56, "duration": 7, "velocity": 81}, {"time": 583, "pitch": 60, "duration": 6, "velocity": 84}, {"time": 595, "pitch": 56, "duration": 3, "velocity": 87}, {"time": 595, "pitch": 63, "duration": 3, "velocity": 86}, {"time": 604, "pitch": 56, "duration": 2, "velocity": 78}, {"time": 604, "pitch": 60, "duration": 2, "velocity": 81}, {"time": 607, "pitch": 51, "duration": 2, "velocity": 51}, {"time": 610, "pitch": 56, "duration": 2, "velocity": 77}, {"time": 610, "pitch": 63, "duration": 3, "velocity": 81}, {"time": 613, "pitch": 51, "duration": 13, "velocity": 71}, {"time": 616, "pitch": 56, "duration": 1, "velocity": 76}, {"time": 619, "pitch": 56, "duration": 4, "velocity": 84}, {"time": 619, "pitch": 60, "duration": 4, "velocity": 87}, {"time": 631, "pitch": 49, "duration": 40, "velocity": 79}, {"time": 631, "pitch": 56, "duration": 4, "velocity": 75}, {"time": 631, "pitch": 61, "duration": 7, "velocity": 77}, {"time": 643, "pitch": 56, "duration": 3, "velocity": 85}, {"time": 643, "pitch": 61, "duration": 2, "velocity": 86}, {"time": 643, "pitch": 65, "duration": 3, "velocity": 87}, {"time": 652, "pitch": 56, "duration": 1, "velocity": 72}, {"time": 652, "pitch": 61, "duration": 1, "velocity": 76}, {"time": 658, "pitch": 56, "duration": 2, "velocity": 80}, {"time": 661, "pitch": 61, "duration": 2, "velocity": 77}, {"time": 667, "pitch": 56, "duration": 3, "velocity": 87}, {"time": 667, "pitch": 61, "duration": 4, "velocity": 90}, {"time": 667, "pitch": 65, "duration": 6, "velocity": 92}, {"time": 673, "pitch": 56, "duration": 1, "velocity": 83}, {"time": 678, "pitch": 44, "duration": 16, "velocity": 85}, {"time": 678, "pitch": 56, "duration": 8, "velocity": 80}, {"time": 678, "pitch": 60, "duration": 7, "velocity": 82}, {"time": 685, "pitch": 51, "duration": 7, "velocity": 73}, {"time": 691, "pitch": 56, "duration": 5, "velocity": 86}, {"time": 691, "pitch": 60, "duration": 5, "velocity": 91}, {"time": 691, "pitch": 63, "duration": 5, "velocity": 87}, {"time": 700, "pitch": 56, "duration": 2, "velocity": 81}, {"time": 700, "pitch": 60, "duration": 1, "velocity": 86}, {"time": 700, "pitch": 63, "duration": 2, "velocity": 82}, {"time": 706, "pitch": 56, "duration": 3, "velocity": 87}, {"time": 706, "pitch": 63, "duration": 3, "velocity": 86}, {"time": 709, "pitch": 44, "duration": 9, "velocity": 86}, {"time": 715, "pitch": 56, "duration": 3, "velocity": 86}, {"time": 715, "pitch": 60, "duration": 3, "velocity": 89}, {"time": 715, "pitch": 63, "duration": 4, "velocity": 87}, {"time": 721, "pitch": 44, "duration": 5, "velocity": 84}, {"time": 727, "pitch": 49, "duration": 43, "velocity": 82}, {"time": 727, "pitch": 56, "duration": 3, "velocity": 81}, {"time": 727, "pitch": 61, "duration": 6, "velocity": 80}, {"time": 733, "pitch": 56, "duration": 1, "velocity": 68}, {"time": 739, "pitch": 56, "duration": 2, "velocity": 85}, {"time": 739, "pitch": 61, "duration": 2, "velocity": 86}, {"time": 739, "pitch": 65, "duration": 2, "velocity": 87}, {"time": 748, "pitch": 56, "duration": 2, "velocity": 81}, {"time": 748, "pitch": 65, "duration": 2, "velocity": 87}, {"time": 754, "pitch": 56, "duration": 3, "velocity": 82}, {"time": 754, "pitch": 61, "duration": 1, "velocity": 80}, {"time": 760, "pitch": 56, "duration": 2, "velocity": 79}, {"time": 763, "pitch": 56, "duration": 3, "velocity": 81}, {"time": 763, "pitch": 61, "duration": 3, "velocity": 89}, {"time": 769, "pitch": 56, "duration": 2, "velocity": 81}, {"time": 775, "pitch": 46, "duration": 39, "velocity": 80}, {"time": 775, "pitch": 58, "duration": 6, "velocity": 77}, {"time": 775, "pitch": 61, "duration": 6, "velocity": 82}, {"time": 781, "pitch": 53, "duration": 8, "velocity": 68}, {"time": 787, "pitch": 58, "duration": 2, "velocity": 81}, {"time": 787, "pitch": 61, "duration": 2, "velocity": 86}, {"time": 787, "pitch": 65, "duration": 2, "velocity": 85}, {"time": 796, "pitch": 58, "duration": 3, "velocity": 78}, {"time": 796, "pitch": 61, "duration": 3, "velocity": 85}, {"time": 799, "pitch": 53, "duration": 3, "velocity": 72}, {"time": 802, "pitch": 58, "duration": 3, "velocity": 80}, {"time": 805, "pitch": 53, "duration": 8, "velocity": 79}, {"time": 811, "pitch": 58, "duration": 4, "velocity": 87}, {"time": 811, "pitch": 61, "duration": 4, "velocity": 90}, {"time": 823, "pitch": 53, "duration": 38, "velocity": 88}, {"time": 823, "pitch": 65, "duration": 8, "velocity": 66}, {"time": 829, "pitch": 60, "duration": 4, "velocity": 76}, {"time": 835, "pitch": 60, "duration": 2, "velocity": 84}, {"time": 835, "pitch": 65, "duration": 3, "velocity": 92}, {"time": 835, "pitch": 68, "duration": 3, "velocity": 82}, {"time": 844, "pitch": 60, "duration": 2, "velocity": 86}, {"time": 844, "pitch": 68, "duration": 2, "velocity": 79}, {"time": 850, "pitch": 65, "duration": 2, "velocity": 77}, {"time": 853, "pitch": 60, "duration": 2, "velocity": 81}, {"time": 859, "pitch": 60, "duration": 2, "velocity": 88}, {"time": 859, "pitch": 68, "duration": 2, "velocity": 84}, {"time": 871, "pitch": 46, "duration": 40, "velocity": 85}, {"time": 871, "pitch": 58, "duration": 7, "velocity": 77}, {"time": 871, "pitch": 61, "duration": 8, "velocity": 80}, {"time": 877, "pitch": 53, "duration": 8, "velocity": 68}, {"time": 883, "pitch": 58, "duration": 4, "velocity": 86}, {"time": 883, "pitch": 61, "duration": 4, "velocity": 90}, {"time": 883, "pitch": 65, "duration": 4, "velocity": 89}, {"time": 889, "pitch": 53, "duration": 4, "velocity": 63}, {"time": 892, "pitch": 58, "duration": 2, "velocity": 79}, {"time": 892, "pitch": 61, "duration": 2, "velocity": 82}, {"time": 895, "pitch": 53, "duration": 3, "velocity": 65}, {"time": 898, "pitch": 58, "duration": 3, "velocity": 77}, {"time": 898, "pitch": 61, "duration": 4, "velocity": 80}, {"time": 901, "pitch": 53, "duration": 8, "velocity": 76}, {"time": 907, "pitch": 58, "duration": 3, "velocity": 87}, {"time": 907, "pitch": 61, "duration": 7, "velocity": 92}, {"time": 913, "pitch": 58, "duration": 3, "velocity": 75}, {"time": 919, "pitch": 39, "duration": 39, "velocity": 88}, {"time": 919, "pitch": 58, "duration": 2, "velocity": 80}, {"time": 919, "pitch": 63, "duration": 2, "velocity": 82}, {"time": 925, "pitch": 46, "duration": 7, "velocity": 69}, {"time": 931, "pitch": 55, "duration": 5, "velocity": 80}, {"time": 931, "pitch": 58, "duration": 5, "velocity": 83}, {"time": 937, "pitch": 46, "duration": 18, "velocity": 45}, {"time": 940, "pitch": 51, "duration": 2, "velocity": 88}, {"time": 940, "pitch": 63, "duration": 2, "velocity": 86}, {"time": 946, "pitch": 58, "duration": 4, "velocity": 85}, {"time": 949, "pitch": 51, "duration": 3, "velocity": 87}, {"time": 955, "pitch": 51, "duration": 4, "velocity": 87}, {"time": 955, "pitch": 55, "duration": 8, "velocity": 87}, {"time": 955, "pitch": 58, "duration": 12, "velocity": 87}, {"time": 961, "pitch": 39, "duration": 4, "velocity": 92}, {"time": 967, "pitch": 44, "duration": 46, "velocity": 86}, {"time": 967, "pitch": 56, "duration": 7, "velocity": 81}, {"time": 967, "pitch": 60, "duration": 6, "velocity": 84}, {"time": 979, "pitch": 56, "duration": 3, "velocity": 87}, {"time": 979, "pitch": 63, "duration": 3, "velocity": 86}, {"time": 988, "pitch": 56, "duration": 2, "velocity": 78}, {"time": 988, "pitch": 60, "duration": 2, "velocity": 81}, {"time": 991, "pitch": 51, "duration": 2, "velocity": 51}, {"time": 994, "pitch": 56, "duration": 2, "velocity": 77}, {"time": 994, "pitch": 63, "duration": 3, "velocity": 81}, {"time": 997, "pitch": 51, "duration": 13, "velocity": 71}, {"time": 1000, "pitch": 56, "duration": 1, "velocity": 76}, {"time": 1003, "pitch": 56, "duration": 4, "velocity": 84}, {"time": 1003, "pitch": 60, "duration": 4, "velocity": 87}, {"time": 1015, "pitch": 49, "duration": 40, "velocity": 79}, {"time": 1015, "pitch": 56, "duration": 4, "velocity": 75}, {"time": 1015, "pitch": 61, "duration": 7, "velocity": 77}, {"time": 1027, "pitch": 56, "duration": 3, "velocity": 85}, {"time": 1027, "pitch": 61, "duration": 2, "velocity": 86}, {"time": 1027, "pitch": 65, "duration": 3, "velocity": 87}, {"time": 1036, "pitch": 56, "duration": 1, "velocity": 72}, {"time": 1036, "pitch": 61, "duration": 1, "velocity": 76}, {"time": 1042, "pitch": 56, "duration": 2, "velocity": 80}, {"time": 1045, "pitch": 61, "duration": 2, "velocity": 77}, {"time": 1051, "pitch": 56, "duration": 3, "velocity": 87}, {"time": 1051, "pitch": 61, "duration": 4, "velocity": 90}, {"time": 1051, "pitch": 65, "duration": 6, "velocity": 92}, {"time": 1057, "pitch": 56, "duration": 1, "velocity": 83}, {"time": 1062, "pitch": 44, "duration": 16, "velocity": 85}, {"time": 1062, "pitch": 56, "duration": 8, "velocity": 80}, {"time": 1062, "pitch": 60, "duration": 7, "velocity": 82}, {"time": 1069, "pitch": 51, "duration": 7, "velocity": 73}, {"time": 1075, "pitch": 56, "duration": 5, "velocity": 86}, {"time": 1075, "pitch": 60, "duration": 5, "velocity": 91}, {"time": 1075, "pitch": 63, "duration": 5, "velocity": 87}, {"time": 1084, "pitch": 56, "duration": 2, "velocity": 81}, {"time": 1084, "pitch": 60, "duration": 1, "velocity": 86}, {"time": 1084, "pitch": 63, "duration": 2, "velocity": 82}, {"time": 1090, "pitch": 56, "duration": 3, "velocity": 87}, {"time": 1090, "pitch": 63, "duration": 3, "velocity": 86}, {"time": 1093, "pitch": 44, "duration": 9, "velocity": 86}, {"time": 1099, "pitch": 56, "duration": 3, "velocity": 86}, {"time": 1099, "pitch": 60, "duration": 3, "velocity": 89}, {"time": 1099, "pitch": 63, "duration": 4, "velocity": 87}, {"time": 1105, "pitch": 44, "duration": 5, "velocity": 84}, {"time": 1111, "pitch": 49, "duration": 43, "velocity": 82}, {"time": 1111, "pitch": 56, "duration": 3, "velocity": 81}, {"time": 1111, "pitch": 61, "duration": 6, "velocity": 80}, {"time": 1117, "pitch": 56, "duration": 1, "velocity": 68}, {"time": 1123, "pitch": 56, "duration": 2, "velocity": 85}, {"time": 1123, "pitch": 61, "duration": 2, "velocity": 86}, {"time": 1123, "pitch": 65, "duration": 2, "velocity": 87}, {"time": 1132, "pitch": 56, "duration": 2, "velocity": 81}, {"time": 1132, "pitch": 65, "duration": 2, "velocity": 87}, {"time": 1138, "pitch": 56, "duration": 3, "velocity": 82}, {"time": 1138, "pitch": 61, "duration": 1, "velocity": 80}, {"time": 1144, "pitch": 56, "duration": 2, "velocity": 79}, {"time": 1147, "pitch": 56, "duration": 3, "velocity": 81}, {"time": 1147, "pitch": 61, "duration": 3, "velocity": 89}, {"time": 1153, "pitch": 56, "duration": 2, "velocity": 81}, {"time": 1159, "pitch": 46, "duration": 39, "velocity": 80}, {"time": 1159, "pitch": 58, "duration": 6, "velocity": 77}, {"time": 1159, "pitch": 61, "duration": 6, "velocity": 82}, {"time": 1165, "pitch": 53, "duration": 8, "velocity": 68}, {"time": 1171, "pitch": 58, "duration": 2, "velocity": 81}, {"time": 1171, "pitch": 61, "duration": 2, "velocity": 86}, {"time": 1171, "pitch": 65, "duration": 2, "velocity": 85}, {"time": 1180, "pitch": 58, "duration": 3, "velocity": 78}, {"time": 1180, "pitch": 61, "duration": 3, "velocity": 85}, {"time": 1183, "pitch": 53, "duration": 3, "velocity": 72}, {"time": 1186, "pitch": 58, "duration": 3, "velocity": 80}, {"time": 1189, "pitch": 53, "duration": 8, "velocity": 79}, {"time": 1195, "pitch": 58, "duration": 4, "velocity": 87}, {"time": 1195, "pitch": 61, "duration": 4, "velocity": 90}, {"time": 1207, "pitch": 53, "duration": 38, "velocity": 88}, {"time": 1207, "pitch": 65, "duration": 8, "velocity": 66}, {"time": 1213, "pitch": 60, "duration": 4, "velocity": 76}, {"time": 1219, "pitch": 60, "duration": 2, "velocity": 84}, {"time": 1219, "pitch": 65, "duration": 3, "velocity": 92}, {"time": 1219, "pitch": 68, "duration": 3, "velocity": 82}, {"time": 1228, "pitch": 60, "duration": 2, "velocity": 86}, {"time": 1228, "pitch": 68, "duration": 2, "velocity": 79}, {"time": 1234, "pitch": 65, "duration": 2, "velocity": 77}, {"time": 1237, "pitch": 60, "duration": 2, "velocity": 81}, {"time": 1243, "pitch": 60, "duration": 2, "velocity": 88}, {"time": 1243, "pitch": 68, "duration": 2, "velocity": 84}, {"time": 1255, "pitch": 46, "duration": 40, "velocity": 85}, {"time": 1255, "pitch": 58, "duration": 7, "velocity": 77}, {"time": 1255, "pitch": 61, "duration": 8, "velocity": 80}, {"time": 1261, "pitch": 53, "duration": 8, "velocity": 68}, {"time": 1267, "pitch": 58, "duration": 4, "velocity": 86}, {"time": 1267, "pitch": 61, "duration": 4, "velocity": 90}, {"time": 1267, "pitch": 65, "duration": 4, "velocity": 89}, {"time": 1273, "pitch": 53, "duration": 4, "velocity": 63}, {"time": 1276, "pitch": 58, "duration": 2, "velocity": 79}, {"time": 1276, "pitch": 61, "duration": 2, "velocity": 82}, {"time": 1279, "pitch": 53, "duration": 3, "velocity": 65}, {"time": 1282, "pitch": 58, "duration": 3, "velocity": 77}, {"time": 1282, "pitch": 61, "duration": 4, "velocity": 80}, {"time": 1285, "pitch": 53, "duration": 8, "velocity": 76}, {"time": 1291, "pitch": 58, "duration": 3, "velocity": 87}, {"time": 1291, "pitch": 61, "duration": 7, "velocity": 92}, {"time": 1297, "pitch": 58, "duration": 3, "velocity": 75}, {"time": 1303, "pitch": 39, "duration": 39, "velocity": 88}, {"time": 1303, "pitch": 58, "duration": 2, "velocity": 80}, {"time": 1303, "pitch": 63, "duration": 2, "velocity": 82}, {"time": 1309, "pitch": 46, "duration": 7, "velocity": 69}, {"time": 1315, "pitch": 55, "duration": 5, "velocity": 80}, {"time": 1315, "pitch": 58, "duration": 5, "velocity": 83}, {"time": 1321, "pitch": 46, "duration": 18, "velocity": 45}, {"time": 1324, "pitch": 51, "duration": 2, "velocity": 88}, {"time": 1324, "pitch": 63, "duration": 2, "velocity": 86}, {"time": 1330, "pitch": 58, "duration": 4, "velocity": 85}, {"time": 1333, "pitch": 51, "duration": 3, "velocity": 87}, {"time": 1339, "pitch": 51, "duration": 4, "velocity": 87}, {"time": 1339, "pitch": 55, "duration": 8, "velocity": 87}, {"time": 1339, "pitch": 58, "duration": 12, "velocity": 87}, {"time": 1345, "pitch": 39, "duration": 4, "velocity": 92}, {"time": 1351, "pitch": 39, "duration": 39, "velocity": 88}, {"time": 1351, "pitch": 58, "duration": 2, "velocity": 80}, {"time": 1351, "pitch": 63, "duration": 2, "velocity": 82}, {"time": 1357, "pitch": 46, "duration": 7, "velocity": 69}, {"time": 1363, "pitch": 55, "duration": 5, "velocity": 80}, {"time": 1363, "pitch": 58, "duration": 5, "velocity": 83}, {"time": 1369, "pitch": 46, "duration": 18, "velocity": 45}, {"time": 1372, "pitch": 51, "duration": 2, "velocity": 88}, {"time": 1372, "pitch": 63, "duration": 2, "velocity": 86}, {"time": 1378, "pitch": 58, "duration": 4, "velocity": 85}, {"time": 1381, "pitch": 51, "duration": 3, "velocity": 87}, {"time": 1387, "pitch": 51, "duration": 4, "velocity": 87}, {"time": 1387, "pitch": 55, "duration": 8, "velocity": 87}, {"time": 1387, "pitch": 58, "duration": 12, "velocity": 87}, {"time": 1393, "pitch": 39, "duration": 4, "velocity": 92}, {"time": 1399, "pitch": 44, "duration": 39, "velocity": 87}, {"time": 1399, "pitch": 56, "duration": 6, "velocity": 87}, {"time": 1399, "pitch": 60, "duration": 6, "velocity": 87}, {"time": 1399, "pitch": 63, "duration": 6, "velocity": 87}, {"time": 1411, "pitch": 56, "duration": 2, "velocity": 89}, {"time": 1411, "pitch": 63, "duration": 2, "velocity": 90}, {"time": 1417, "pitch": 51, "duration": 4, "velocity": 72}, {"time": 1420, "pitch": 56, "duration": 2, "velocity": 88}, {"time": 1420, "pitch": 60, "duration": 3, "velocity": 91}, {"time": 1420, "pitch": 63, "duration": 3, "velocity": 91}, {"time": 1426, "pitch": 56, "duration": 2, "velocity": 84}, {"time": 1429, "pitch": 51, "duration": 8, "velocity": 77}, {"time": 1435, "pitch": 56, "duration": 3, "velocity": 88}, {"time": 1435, "pitch": 60, "duration": 3, "velocity": 88}, {"time": 1435, "pitch": 63, "duration": 4, "velocity": 90}, {"time": 1441, "pitch": 44, "duration": 2, "velocity": 89}, {"time": 1447, "pitch": 48, "duration": 15, "velocity": 88}, {"time": 1447, "pitch": 60, "duration": 8, "velocity": 86}, {"time": 1447, "pitch": 63, "duration": 7, "velocity": 87}, {"time": 1447, "pitch": 67, "duration": 7, "velocity": 81}, {"time": 1459, "pitch": 60, "duration": 5, "velocity": 90}, {"time": 1459, "pitch": 63, "duration": 4, "velocity": 92}, {"time": 1459, "pitch": 67, "duration": 5, "velocity": 91}, {"time": 1468, "pitch": 60, "duration": 3, "velocity": 86}, {"time": 1468, "pitch": 63, "duration": 2, "velocity": 86}, {"time": 1468, "pitch": 67, "duration": 3, "velocity": 86}, {"time": 1471, "pitch": 48, "duration": 13, "velocity": 73}, {"time": 1474, "pitch": 55, "duration": 10, "velocity": 76}, {"time": 1477, "pitch": 60, "duration": 3, "velocity": 89}, {"time": 1483, "pitch": 60, "duration": 4, "velocity": 88}, {"time": 1483, "pitch": 63, "duration": 4, "velocity": 87}, {"time": 1489, "pitch": 48, "duration": 2, "velocity": 87}, {"time": 1495, "pitch": 41, "duration": 21, "velocity": 88}, {"time": 1495, "pitch": 60, "duration": 6, "velocity": 82}, {"time": 1495, "pitch": 65, "duration": 6, "velocity": 86}, {"time": 1507, "pitch": 60, "duration": 3, "velocity": 92}, {"time": 1507, "pitch": 65, "duration": 3, "velocity": 97}, {"time": 1507, "pitch": 68, "duration": 3, "velocity": 90}, {"time": 1516, "pitch": 60, "duration": 4, "velocity": 87}, {"time": 1516, "pitch": 65, "duration": 4, "velocity": 88}, {"time": 1516, "pitch": 68, "duration": 5, "velocity": 83}, {"time": 1519, "pitch": 41, "duration": 15, "velocity": 87}, {"time": 1522, "pitch": 48, "duration": 10, "velocity": 73}, {"time": 1525, "pitch": 60, "duration": 3, "velocity": 89}, {"time": 1531, "pitch": 60, "duration": 2, "velocity": 91}, {"time": 1531, "pitch": 65, "duration": 3, "velocity": 89}, {"time": 1531, "pitch": 68, "duration": 5, "velocity": 86}, {"time": 1537, "pitch": 60, "duration": 1, "velocity": 78}, {"time": 1543, "pitch": 48, "duration": 15, "velocity": 88}, {"time": 1543, "pitch": 60, "duration": 4, "velocity": 83}, {"time": 1543, "pitch": 63, "duration": 5, "velocity": 82}, {"time": 1543, "pitch": 67, "duration": 6, "velocity": 81}, {"time": 1555, "pitch": 60, "duration": 3, "velocity": 87}, {"time": 1555, "pitch": 63, "duration": 3, "velocity": 88}, {"time": 1555, "pitch": 67, "duration": 4, "velocity": 86}, {"time": 1564, "pitch": 60, "duration": 4, "velocity": 87}, {"time": 1564, "pitch": 63, "duration": 4, "velocity": 87}, {"time": 1564, "pitch": 67, "duration": 4, "velocity": 86}, {"time": 1567, "pitch": 48, "duration": 14, "velocity": 81}, {"time": 1570, "pitch": 55, "duration": 10, "velocity": 71}, {"time": 1573, "pitch": 60, "duration": 3, "velocity": 87}, {"time": 1579, "pitch": 60, "duration": 3, "velocity": 88}, {"time": 1579, "pitch": 63, "duration": 3, "velocity": 89}, {"time": 1579, "pitch": 67, "duration": 4, "velocity": 88}, {"time": 1585, "pitch": 48, "duration": 3, "velocity": 87}, {"time": 1591, "pitch": 49, "duration": 12, "velocity": 92}, {"time": 1591, "pitch": 61, "duration": 6, "velocity": 83}, {"time": 1591, "pitch": 65, "duration": 6, "velocity": 87}, {"time": 1597, "pitch": 56, "duration": 5, "velocity": 73}, {"time": 1603, "pitch": 61, "duration": 3, "velocity": 92}, {"time": 1603, "pitch": 65, "duration": 7, "velocity": 100}, {"time": 1609, "pitch": 61, "duration": 2, "velocity": 81}, {"time": 1615, "pitch": 39, "duration": 13, "velocity": 91}, {"time": 1615, "pitch": 63, "duration": 4, "velocity": 86}, {"time": 1615, "pitch": 67, "duration": 4, "velocity": 89}, {"time": 1621, "pitch": 46, "duration": 7, "velocity": 71}, {"time": 1624, "pitch": 63, "duration": 1, "velocity": 77}, {"time": 1627, "pitch": 63, "duration": 3, "velocity": 88}, {"time": 1627, "pitch": 67, "duration": 3, "velocity": 89}, {"time": 1627, "pitch": 70, "duration": 3, "velocity": 88}, {"time": 1639, "pitch": 44, "duration": 6, "velocity": 88}, {"time": 1639, "pitch": 56, "duration": 2, "velocity": 86}, {"time": 1639, "pitch": 60, "duration": 6, "velocity": 87}, {"time": 1639, "pitch": 63, "duration": 7, "velocity": 88}, {"time": 1645, "pitch": 56, "duration": 2, "velocity": 87}, {"time": 1651, "pitch": 43, "duration": 5, "velocity": 91}, {"time": 1651, "pitch": 55, "duration": 3, "velocity": 87}, {"time": 1651, "pitch": 58, "duration": 7, "velocity": 85}, {"time": 1657, "pitch": 55, "duration": 1, "velocity": 88}, {"time": 1663, "pitch": 41, "duration": 1, "velocity": 91}, {"time": 1663, "pitch": 53, "duration": 2, "velocity": 86}, {"time": 1663, "pitch": 56, "duration": 3, "velocity": 86}, {"time": 1669, "pitch": 53, "duration": 9, "velocity": 88}, {"time": 1672, "pitch": 60, "duration": 4, "velocity": 88}, {"time": 1675, "pitch": 65, "duration": 5, "velocity": 93}, {"time": 1675, "pitch": 68, "duration": 6, "velocity": 92}, {"time": 1681, "pitch": 60, "duration": 1, "velocity": 87}, {"time": 1687, "pitch": 46, "duration": 21, "velocity": 87}, {"time": 1687, "pitch": 65, "duration": 2, "velocity": 87}, {"time": 1687, "pitch": 70, "duration": 2, "velocity": 87}, {"time": 1693, "pitch": 53, "duration": 8, "velocity": 74}, {"time": 1699, "pitch": 58, "duration": 4, "velocity": 88}, {"time": 1699, "pitch": 61, "duration": 4, "velocity": 90}, {"time": 1699, "pitch": 65, "duration": 4, "velocity": 92}, {"time": 1705, "pitch": 53, "duration": 1, "velocity": 41}, {"time": 1708, "pitch": 58, "duration": 5, "velocity": 87}, {"time": 1708, "pitch": 61, "duration": 6, "velocity": 92}, {"time": 1708, "pitch": 65, "duration": 6, "velocity": 91}, {"time": 1711, "pitch": 46, "duration": 14, "velocity": 87}, {"time": 1714, "pitch": 53, "duration": 10, "velocity": 78}, {"time": 1717, "pitch": 58, "duration": 3, "velocity": 87}, {"time": 1723, "pitch": 58, "duration": 4, "velocity": 88}, {"time": 1723, "pitch": 61, "duration": 3, "velocity": 92}, {"time": 1723, "pitch": 65, "duration": 4, "velocity": 97}, {"time": 1729, "pitch": 46, "duration": 1, "velocity": 85}, {"time": 1735, "pitch": 39, "duration": 1, "velocity": 90}, {"time": 1735, "pitch": 58, "duration": 3, "velocity": 85}, {"time": 1735, "pitch": 63, "duration": 3, "velocity": 86}, {"time": 1735, "pitch": 67, "duration": 4, "velocity": 85}, {"time": 1747, "pitch": 58, "duration": 5, "velocity": 88}, {"time": 1747, "pitch": 63, "duration": 5, "velocity": 92}, {"time": 1747, "pitch": 67, "duration": 5, "velocity": 92}, {"time": 1753, "pitch": 51, "duration": 1, "velocity": 68}, {"time": 1756, "pitch": 58, "duration": 2, "velocity": 87}, {"time": 1756, "pitch": 63, "duration": 2, "velocity": 89}, {"time": 1756, "pitch": 67, "duration": 3, "velocity": 89}, {"time": 1759, "pitch": 51, "duration": 1, "velocity": 75}, {"time": 1762, "pitch": 58, "duration": 1, "velocity": 87}, {"time": 1762, "pitch": 63, "duration": 2, "velocity": 89}, {"time": 1762, "pitch": 68, "duration": 3, "velocity": 86}, {"time": 1765, "pitch": 51, "duration": 1, "velocity": 80}, {"time": 1768, "pitch": 58, "duration": 3, "velocity": 87}, {"time": 1768, "pitch": 63, "duration": 3, "velocity": 89}, {"time": 1768, "pitch": 67, "duration": 4, "velocity": 93}, {"time": 1771, "pitch": 51, "duration": 13, "velocity": 84}, {"time": 1774, "pitch": 58, "duration": 1, "velocity": 86}, {"time": 1777, "pitch": 58, "duration": 5, "velocity": 90}, {"time": 1777, "pitch": 63, "duration": 4, "velocity": 100}, {"time": 1783, "pitch": 44, "duration": 39, "velocity": 87}, {"time": 1783, "pitch": 56, "duration": 6, "velocity": 87}, {"time": 1783, "pitch": 60, "duration": 6, "velocity": 87}, {"time": 1783, "pitch": 63, "duration": 6, "velocity": 87}, {"time": 1795, "pitch": 56, "duration": 2, "velocity": 89}, {"time": 1795, "pitch": 63, "duration": 2, "velocity": 90}, {"time": 1801, "pitch": 51, "duration": 4, "velocity": 72}, {"time": 1804, "pitch": 56, "duration": 2, "velocity": 88}, {"time": 1804, "pitch": 60, "duration": 3, "velocity": 91}, {"time": 1804, "pitch": 63, "duration": 3, "velocity": 91}, {"time": 1810, "pitch": 56, "duration": 2, "velocity": 84}, {"time": 1813, "pitch": 51, "duration": 8, "velocity": 77}, {"time": 1819, "pitch": 56, "duration": 3, "velocity": 88}, {"time": 1819, "pitch": 60, "duration": 3, "velocity": 88}, {"time": 1819, "pitch": 63, "duration": 4, "velocity": 90}, {"time": 1825, "pitch": 44, "duration": 2, "velocity": 89}, {"time": 1831, "pitch": 48, "duration": 15, "velocity": 88}, {"time": 1831, "pitch": 60, "duration": 8, "velocity": 86}, {"time": 1831, "pitch": 63, "duration": 7, "velocity": 87}, {"time": 1831, "pitch": 67, "duration": 7, "velocity": 81}, {"time": 1843, "pitch": 60, "duration": 5, "velocity": 90}, {"time": 1843, "pitch": 63, "duration": 4, "velocity": 92}, {"time": 1843, "pitch": 67, "duration": 5, "velocity": 91}, {"time": 1852, "pitch": 60, "duration": 3, "velocity": 86}, {"time": 1852, "pitch": 63, "duration": 2, "velocity": 86}, {"time": 1852, "pitch": 67, "duration": 3, "velocity": 86}, {"time": 1855, "pitch": 48, "duration": 13, "velocity": 73}, {"time": 1858, "pitch": 55, "duration": 10, "velocity": 76}, {"time": 1861, "pitch": 60, "duration": 3, "velocity": 89}, {"time": 1867, "pitch": 60, "duration": 4, "velocity": 88}, {"time": 1867, "pitch": 63, "duration": 4, "velocity": 87}, {"time": 1873, "pitch": 48, "duration": 2, "velocity": 87}, {"time": 1879, "pitch": 41, "duration": 21, "velocity": 88}, {"time": 1879, "pitch": 60, "duration": 6, "velocity": 82}, {"time": 1879, "pitch": 65, "duration": 6, "velocity": 86}, {"time": 1891, "pitch": 60, "duration": 3, "velocity": 92}, {"time": 1891, "pitch": 65, "duration": 3, "velocity": 97}, {"time": 1891, "pitch": 68, "duration": 3, "velocity": 90}, {"time": 1900, "pitch": 60, "duration": 4, "velocity": 87}, {"time": 1900, "pitch": 65, "duration": 4, "velocity": 88}, {"time": 1900, "pitch": 68, "duration": 5, "velocity": 83}, {"time": 1903, "pitch": 41, "duration": 15, "velocity": 87}, {"time": 1906, "pitch": 48, "duration": 10, "velocity": 73}, {"time": 1909, "pitch": 60, "duration": 3, "velocity": 89}, {"time": 1915, "pitch": 60, "duration": 2, "velocity": 91}, {"time": 1915, "pitch": 65, "duration": 3, "velocity": 89}, {"time": 1915, "pitch": 68, "duration": 5, "velocity": 86}, {"time": 1921, "pitch": 60, "duration": 1, "velocity": 78}, {"time": 1927, "pitch": 48, "duration": 15, "velocity": 88}, {"time": 1927, "pitch": 60, "duration": 4, "velocity": 83}, {"time": 1927, "pitch": 63, "duration": 5, "velocity": 82}, {"time": 1927, "pitch": 67, "duration": 6, "velocity": 81}, {"time": 1939, "pitch": 60, "duration": 3, "velocity": 87}, {"time": 1939, "pitch": 63, "duration": 3, "velocity": 88}, {"time": 1939, "pitch": 67, "duration": 4, "velocity": 86}, {"time": 1948, "pitch": 60, "duration": 4, "velocity": 87}, {"time": 1948, "pitch": 63, "duration": 4, "velocity": 87}, {"time": 1948, "pitch": 67, "duration": 4, "velocity": 86}, {"time": 1951, "pitch": 48, "duration": 14, "velocity": 81}, {"time": 1954, "pitch": 55, "duration": 10, "velocity": 71}, {"time": 1957, "pitch": 60, "duration": 3, "velocity": 87}, {"time": 1963, "pitch": 60, "duration": 3, "velocity": 88}, {"time": 1963, "pitch": 63, "duration": 3, "velocity": 89}, {"time": 1963, "pitch": 67, "duration": 4, "velocity": 88}, {"time": 1969, "pitch": 48, "duration": 3, "velocity": 87}, {"time": 1975, "pitch": 49, "duration": 12, "velocity": 92}, {"time": 1975, "pitch": 61, "duration": 6, "velocity": 83}, {"time": 1975, "pitch": 65, "duration": 6, "velocity": 87}, {"time": 1981, "pitch": 56, "duration": 5, "velocity": 73}, {"time": 1987, "pitch": 61, "duration": 3, "velocity": 92}, {"time": 1987, "pitch": 65, "duration": 7, "velocity": 100}, {"time": 1993, "pitch": 61, "duration": 2, "velocity": 81}, {"time": 1999, "pitch": 39, "duration": 13, "velocity": 91}, {"time": 1999, "pitch": 63, "duration": 4, "velocity": 86}, {"time": 1999, "pitch": 67, "duration": 4, "velocity": 89}, {"time": 2005, "pitch": 46, "duration": 7, "velocity": 71}, {"time": 2008, "pitch": 63, "duration": 1, "velocity": 77}, {"time": 2011, "pitch": 63, "duration": 3, "velocity": 88}, {"time": 2011, "pitch": 67, "duration": 3, "velocity": 89}, {"time": 2011, "pitch": 70, "duration": 3, "velocity": 88}, {"time": 2023, "pitch": 44, "duration": 6, "velocity": 88}, {"time": 2023, "pitch": 56, "duration": 2, "velocity": 86}, {"time": 2023, "pitch": 60, "duration": 6, "velocity": 87}, {"time": 2023, "pitch": 63, "duration": 7, "velocity": 88}, {"time": 2029, "pitch": 56, "duration": 2, "velocity": 87}, {"time": 2035, "pitch": 43, "duration": 5, "velocity": 91}, {"time": 2035, "pitch": 55, "duration": 3, "velocity": 87}, {"time": 2035, "pitch": 58, "duration": 7, "velocity": 85}, {"time": 2041, "pitch": 55, "duration": 1, "velocity": 88}, {"time": 2047, "pitch": 41, "duration": 1, "velocity": 91}, {"time": 2047, "pitch": 53, "duration": 2, "velocity": 86}, {"time": 2047, "pitch": 56, "duration": 3, "velocity": 86}, {"time": 2053, "pitch": 53, "duration": 9, "velocity": 88}, {"time": 2056, "pitch": 60, "duration": 4, "velocity": 88}, {"time": 2059, "pitch": 65, "duration": 5, "velocity": 93}, {"time": 2059, "pitch": 68, "duration": 6, "velocity": 92}, {"time": 2065, "pitch": 60, "duration": 1, "velocity": 87}, {"time": 2071, "pitch": 46, "duration": 21, "velocity": 87}, {"time": 2071, "pitch": 65, "duration": 2, "velocity": 87}, {"time": 2071, "pitch": 70, "duration": 2, "velocity": 87}, {"time": 2077, "pitch": 53, "duration": 8, "velocity": 74}, {"time": 2083, "pitch": 58, "duration": 4, "velocity": 88}, {"time": 2083, "pitch": 61, "duration": 4, "velocity": 90}, {"time": 2083, "pitch": 65, "duration": 4, "velocity": 92}, {"time": 2089, "pitch": 53, "duration": 1, "velocity": 41}, {"time": 2092, "pitch": 58, "duration": 5, "velocity": 87}, {"time": 2092, "pitch": 61, "duration": 6, "velocity": 92}, {"time": 2092, "pitch": 65, "duration": 6, "velocity": 91}, {"time": 2095, "pitch": 46, "duration": 14, "velocity": 87}, {"time": 2098, "pitch": 53, "duration": 10, "velocity": 78}, {"time": 2101, "pitch": 58, "duration": 3, "velocity": 87}, {"time": 2107, "pitch": 58, "duration": 4, "velocity": 88}, {"time": 2107, "pitch": 61, "duration": 3, "velocity": 92}, {"time": 2107, "pitch": 65, "duration": 4, "velocity": 97}, {"time": 2113, "pitch": 46, "duration": 1, "velocity": 85}, {"time": 2119, "pitch": 39, "duration": 1, "velocity": 90}, {"time": 2119, "pitch": 58, "duration": 3, "velocity": 85}, {"time": 2119, "pitch": 63, "duration": 3, "velocity": 86}, {"time": 2119, "pitch": 67, "duration": 4, "velocity": 85}, {"time": 2131, "pitch": 58, "duration": 5, "velocity": 88}, {"time": 2131, "pitch": 63, "duration": 5, "velocity": 92}, {"time": 2131, "pitch": 67, "duration": 5, "velocity": 92}, {"time": 2137, "pitch": 51, "duration": 1, "velocity": 68}, {"time": 2140, "pitch": 58, "duration": 2, "velocity": 87}, {"time": 2140, "pitch": 63, "duration": 2, "velocity": 89}, {"time": 2140, "pitch": 67, "duration": 3, "velocity": 89}, {"time": 2143, "pitch": 51, "duration": 1, "velocity": 75}, {"time": 2146, "pitch": 58, "duration": 1, "velocity": 87}, {"time": 2146, "pitch": 63, "duration": 2, "velocity": 89}, {"time": 2146, "pitch": 68, "duration": 3, "velocity": 86}, {"time": 2149, "pitch": 51, "duration": 1, "velocity": 80}, {"time": 2152, "pitch": 58, "duration": 3, "velocity": 87}, {"time": 2152, "pitch": 63, "duration": 3, "velocity": 89}, {"time": 2152, "pitch": 67, "duration": 4, "velocity": 93}, {"time": 2155, "pitch": 51, "duration": 13, "velocity": 84}, {"time": 2158, "pitch": 58, "duration": 1, "velocity": 86}, {"time": 2161, "pitch": 58, "duration": 5, "velocity": 90}, {"time": 2161, "pitch": 63, "duration": 4, "velocity": 100}, {"time": 2167, "pitch": 44, "duration": 38, "velocity": 87}, {"time": 2167, "pitch": 63, "duration": 7, "velocity": 88}, {"time": 2167, "pitch": 68, "duration": 7, "velocity": 85}, {"time": 2173, "pitch": 51, "duration": 22, "velocity": 71}, {"time": 2179, "pitch": 63, "duration": 4, "velocity": 90}, {"time": 2179, "pitch": 68, "duration": 3, "velocity": 89}, {"time": 2179, "pitch": 72, "duration": 4, "velocity": 91}, {"time": 2188, "pitch": 63, "duration": 1, "velocity": 88}, {"time": 2188, "pitch": 72, "duration": 2, "velocity": 88}, {"time": 2194, "pitch": 63, "duration": 2, "velocity": 87}, {"time": 2194, "pitch": 68, "duration": 3, "velocity": 87}, {"time": 2197, "pitch": 51, "duration": 8, "velocity": 76}, {"time": 2200, "pitch": 63, "duration": 1, "velocity": 87}, {"time": 2203, "pitch": 63, "duration": 3, "velocity": 92}, {"time": 2203, "pitch": 68, "duration": 6, "velocity": 90}, {"time": 2203, "pitch": 73, "duration": 1, "velocity": 74}, {"time": 2209, "pitch": 63, "duration": 2, "velocity": 86}, {"time": 2215, "pitch": 49, "duration": 40, "velocity": 89}, {"time": 2221, "pitch": 56, "duration": 8, "velocity": 73}, {"time": 2227, "pitch": 61, "duration": 4, "velocity": 87}, {"time": 2227, "pitch": 68, "duration": 4, "velocity": 86}, {"time": 2233, "pitch": 56, "duration": 4, "velocity": 59}, {"time": 2236, "pitch": 61, "duration": 2, "velocity": 82}, {"time": 2236, "pitch": 65, "duration": 2, "velocity": 84}, {"time": 2236, "pitch": 68, "duration": 2, "velocity": 82}, {"time": 2239, "pitch": 56, "duration": 2, "velocity": 56}, {"time": 2242, "pitch": 61, "duration": 4, "velocity": 86}, {"time": 2242, "pitch": 65, "duration": 5, "velocity": 88}, {"time": 2242, "pitch": 68, "duration": 5, "velocity": 85}, {"time": 2245, "pitch": 56, "duration": 8, "velocity": 74}, {"time": 2251, "pitch": 61, "duration": 2, "velocity": 87}, {"time": 2251, "pitch": 65, "duration": 5, "velocity": 92}, {"time": 2251, "pitch": 68, "duration": 5, "velocity": 87}, {"time": 2257, "pitch": 61, "duration": 1, "velocity": 85}, {"time": 2263, "pitch": 44, "duration": 39, "velocity": 87}, {"time": 2263, "pitch": 56, "duration": 7, "velocity": 81}, {"time": 2263, "pitch": 60, "duration": 6, "velocity": 82}, {"time": 2269, "pitch": 51, "duration": 7, "velocity": 69}, {"time": 2275, "pitch": 56, "duration": 4, "velocity": 86}, {"time": 2275, "pitch": 60, "duration": 3, "velocity": 87}, {"time": 2275, "pitch": 63, "duration": 4, "velocity": 87}, {"time": 2281, "pitch": 51, "duration": 20, "velocity": 46}, {"time": 2284, "pitch": 56, "duration": 2, "velocity": 87}, {"time": 2284, "pitch": 63, "duration": 2, "velocity": 87}, {"time": 2290, "pitch": 56, "duration": 3, "velocity": 86}, {"time": 2290, "pitch": 63, "duration": 3, "velocity": 86}, {"time": 2293, "pitch": 60, "duration": 3, "velocity": 73}, {"time": 2299, "pitch": 56, "duration": 3, "velocity": 88}, {"time": 2299, "pitch": 63, "duration": 4, "velocity": 87}, {"time": 2305, "pitch": 44, "duration": 3, "velocity": 87}, {"time": 2311, "pitch": 51, "duration": 35, "velocity": 91}, {"time": 2311, "pitch": 58, "duration": 3, "velocity": 73}, {"time": 2311, "pitch": 63, "duration": 8, "velocity": 83}, {"time": 2317, "pitch": 58, "duration": 3, "velocity": 73}, {"time": 2323, "pitch": 58, "duration": 3, "velocity": 87}, {"time": 2323, "pitch": 63, "duration": 4, "velocity": 88}, {"time": 2323, "pitch": 67, "duration": 4, "velocity": 88}, {"time": 2332, "pitch": 58, "duration": 3, "velocity": 82}, {"time": 2332, "pitch": 67, "duration": 3, "velocity": 81}, {"time": 2338, "pitch": 63, "duration": 4, "velocity": 80}, {"time": 2341, "pitch": 58, "duration": 4, "velocity": 85}, {"time": 2347, "pitch": 58, "duration": 3, "velocity": 88}, {"time": 2347, "pitch": 63, "duration": 10, "velocity": 91}, {"time": 2353, "pitch": 58, "duration": 4, "velocity": 82}, {"time": 2359, "pitch": 44, "duration": 46, "velocity": 86}, {"time": 2359, "pitch": 56, "duration": 7, "velocity": 81}, {"time": 2359, "pitch": 60, "duration": 6, "velocity": 84}, {"time": 2371, "pitch": 56, "duration": 3, "velocity": 87}, {"time": 2371, "pitch": 63, "duration": 3, "velocity": 86}, {"time": 2380, "pitch": 56, "duration": 2, "velocity": 78}, {"time": 2380, "pitch": 60, "duration": 2, "velocity": 81}, {"time": 2383, "pitch": 51, "duration": 2, "velocity": 51}, {"time": 2386, "pitch": 56, "duration": 2, "velocity": 77}, {"time": 2386, "pitch": 63, "duration": 3, "velocity": 81}, {"time": 2389, "pitch": 51, "duration": 13, "velocity": 71}, {"time": 2392, "pitch": 56, "duration": 1, "velocity": 76}, {"time": 2395, "pitch": 56, "duration": 4, "velocity": 84}, {"time": 2395, "pitch": 60, "duration": 4, "velocity": 87}, {"time": 2407, "pitch": 49, "duration": 40, "velocity": 79}, {"time": 2407, "pitch": 56, "duration": 4, "velocity": 75}, {"time": 2407, "pitch": 61, "duration": 7, "velocity": 77}, {"time": 2419, "pitch": 56, "duration": 3, "velocity": 85}, {"time": 2419, "pitch": 61, "duration": 2, "velocity": 86}, {"time": 2419, "pitch": 65, "duration": 3, "velocity": 87}, {"time": 2428, "pitch": 56, "duration": 1, "velocity": 72}, {"time": 2428, "pitch": 61, "duration": 1, "velocity": 76}, {"time": 2434, "pitch": 56, "duration": 2, "velocity": 80}, {"time": 2437, "pitch": 61, "duration": 2, "velocity": 77}, {"time": 2443, "pitch": 56, "duration": 3, "velocity": 87}, {"time": 2443, "pitch": 61, "duration": 4, "velocity": 90}, {"time": 2443, "pitch": 65, "duration": 6, "velocity": 92}, {"time": 2449, "pitch": 56, "duration": 1, "velocity": 83}, {"time": 2454, "pitch": 44, "duration": 16, "velocity": 85}, {"time": 2454, "pitch": 56, "duration": 8, "velocity": 80}, {"time": 2454, "pitch": 60, "duration": 7, "velocity": 82}, {"time": 2461, "pitch": 51, "duration": 7, "velocity": 73}, {"time": 2467, "pitch": 56, "duration": 5, "velocity": 86}, {"time": 2467, "pitch": 60, "duration": 5, "velocity": 91}, {"time": 2467, "pitch": 63, "duration": 5, "velocity": 87}, {"time": 2476, "pitch": 56, "duration": 2, "velocity": 81}, {"time": 2476, "pitch": 60, "duration": 1, "velocity": 86}, {"time": 2476, "pitch": 63, "duration": 2, "velocity": 82}, {"time": 2482, "pitch": 56, "duration": 3, "velocity": 87}, {"time": 2482, "pitch": 63, "duration": 3, "velocity": 86}, {"time": 2485, "pitch": 44, "duration": 9, "velocity": 86}, {"time": 2491, "pitch": 56, "duration": 3, "velocity": 86}, {"time": 2491, "pitch": 60, "duration": 3, "velocity": 89}, {"time": 2491, "pitch": 63, "duration": 4, "velocity": 87}, {"time": 2497, "pitch": 44, "duration": 5, "velocity": 84}, {"time": 2503, "pitch": 49, "duration": 43, "velocity": 82}, {"time": 2503, "pitch": 56, "duration": 3, "velocity": 81}, {"time": 2503, "pitch": 61, "duration": 6, "velocity": 80}, {"time": 2509, "pitch": 56, "duration": 1, "velocity": 68}, {"time": 2515, "pitch": 56, "duration": 2, "velocity": 85}, {"time": 2515, "pitch": 61, "duration": 2, "velocity": 86}, {"time": 2515, "pitch": 65, "duration": 2, "velocity": 87}, {"time": 2524, "pitch": 56, "duration": 2, "velocity": 81}, {"time": 2524, "pitch": 65, "duration": 2, "velocity": 87}, {"time": 2530, "pitch": 56, "duration": 3, "velocity": 82}, {"time": 2530, "pitch": 61, "duration": 1, "velocity": 80}, {"time": 2536, "pitch": 56, "duration": 2, "velocity": 79}, {"time": 2539, "pitch": 56, "duration": 3, "velocity": 81}, {"time": 2539, "pitch": 61, "duration": 3, "velocity": 89}, {"time": 2545, "pitch": 56, "duration": 2, "velocity": 81}, {"time": 2551, "pitch": 46, "duration": 39, "velocity": 80}, {"time": 2551, "pitch": 58, "duration": 6, "velocity": 77}, {"time": 2551, "pitch": 61, "duration": 6, "velocity": 82}, {"time": 2557, "pitch": 53, "duration": 8, "velocity": 68}, {"time": 2563, "pitch": 58, "duration": 2, "velocity": 81}, {"time": 2563, "pitch": 61, "duration": 2, "velocity": 86}, {"time": 2563, "pitch": 65, "duration": 2, "velocity": 85}, {"time": 2572, "pitch": 58, "duration": 3, "velocity": 78}, {"time": 2572, "pitch": 61, "duration": 3, "velocity": 85}, {"time": 2575, "pitch": 53, "duration": 3, "velocity": 72}, {"time": 2578, "pitch": 58, "duration": 3, "velocity": 80}, {"time": 2581, "pitch": 53, "duration": 8, "velocity": 79}, {"time": 2587, "pitch": 58, "duration": 4, "velocity": 87}, {"time": 2587, "pitch": 61, "duration": 4, "velocity": 90}, {"time": 2599, "pitch": 53, "duration": 38, "velocity": 88}, {"time": 2599, "pitch": 65, "duration": 8, "velocity": 66}, {"time": 2605, "pitch": 60, "duration": 4, "velocity": 76}, {"time": 2611, "pitch": 60, "duration": 2, "velocity": 84}, {"time": 2611, "pitch": 65, "duration": 3, "velocity": 92}, {"time": 2611, "pitch": 68, "duration": 3, "velocity": 82}, {"time": 2620, "pitch": 60, "duration": 2, "velocity": 86}, {"time": 2620, "pitch": 68, "duration": 2, "velocity": 79}, {"time": 2626, "pitch": 65, "duration": 2, "velocity": 77}, {"time": 2629, "pitch": 60, "duration": 2, "velocity": 81}, {"time": 2635, "pitch": 60, "duration": 2, "velocity": 88}, {"time": 2635, "pitch": 68, "duration": 2, "velocity": 84}, {"time": 2647, "pitch": 46, "duration": 40, "velocity": 85}, {"time": 2647, "pitch": 58, "duration": 7, "velocity": 77}, {"time": 2647, "pitch": 61, "duration": 8, "velocity": 80}, {"time": 2653, "pitch": 53, "duration": 8, "velocity": 68}, {"time": 2659, "pitch": 58, "duration": 4, "velocity": 86}, {"time": 2659, "pitch": 61, "duration": 4, "velocity": 90}, {"time": 2659, "pitch": 65, "duration": 4, "velocity": 89}, {"time": 2665, "pitch": 53, "duration": 4, "velocity": 63}, {"time": 2668, "pitch": 58, "duration": 2, "velocity": 79}, {"time": 2668, "pitch": 61, "duration": 2, "velocity": 82}, {"time": 2671, "pitch": 53, "duration": 3, "velocity": 65}, {"time": 2674, "pitch": 58, "duration": 3, "velocity": 77}, {"time": 2674, "pitch": 61, "duration": 4, "velocity": 80}, {"time": 2677, "pitch": 53, "duration": 8, "velocity": 76}, {"time": 2683, "pitch": 58, "duration": 3, "velocity": 87}, {"time": 2683, "pitch": 61, "duration": 7, "velocity": 92}, {"time": 2689, "pitch": 58, "duration": 3, "velocity": 75}, {"time": 2695, "pitch": 39, "duration": 39, "velocity": 88}, {"time": 2695, "pitch": 58, "duration": 2, "velocity": 80}, {"time": 2695, "pitch": 63, "duration": 2, "velocity": 82}, {"time": 2701, "pitch": 46, "duration": 7, "velocity": 69}, {"time": 2707, "pitch": 55, "duration": 5, "velocity": 80}, {"time": 2707, "pitch": 58, "duration": 5, "velocity": 83}, {"time": 2713, "pitch": 46, "duration": 18, "velocity": 45}, {"time": 2716, "pitch": 51, "duration": 2, "velocity": 88}, {"time": 2716, "pitch": 63, "duration": 2, "velocity": 86}, {"time": 2722, "pitch": 58, "duration": 4, "velocity": 85}, {"time": 2725, "pitch": 51, "duration": 3, "velocity": 87}, {"time": 2731, "pitch": 51, "duration": 4, "velocity": 87}, {"time": 2731, "pitch": 55, "duration": 8, "velocity": 87}, {"time": 2731, "pitch": 58, "duration": 12, "velocity": 87}, {"time": 2737, "pitch": 39, "duration": 4, "velocity": 92}, {"time": 2743, "pitch": 39, "duration": 39, "velocity": 88}, {"time": 2743, "pitch": 58, "duration": 2, "velocity": 80}, {"time": 2743, "pitch": 63, "duration": 2, "velocity": 82}, {"time": 2749, "pitch": 46, "duration": 7, "velocity": 69}, {"time": 2755, "pitch": 55, "duration": 5, "velocity": 80}, {"time": 2755, "pitch": 58, "duration": 5, "velocity": 83}, {"time": 2761, "pitch": 46, "duration": 18, "velocity": 45}, {"time": 2764, "pitch": 51, "duration": 2, "velocity": 88}, {"time": 2764, "pitch": 63, "duration": 2, "velocity": 86}, {"time": 2770, "pitch": 58, "duration": 4, "velocity": 85}, {"time": 2773, "pitch": 51, "duration": 3, "velocity": 87}, {"time": 2779, "pitch": 51, "duration": 4, "velocity": 87}, {"time": 2779, "pitch": 55, "duration": 8, "velocity": 87}, {"time": 2779, "pitch": 58, "duration": 12, "velocity": 87}, {"time": 2785, "pitch": 39, "duration": 4, "velocity": 92}, {"time": 2791, "pitch": 44, "duration": 39, "velocity": 87}, {"time": 2791, "pitch": 56, "duration": 6, "velocity": 87}, {"time": 2791, "pitch": 60, "duration": 6, "velocity": 87}, {"time": 2791, "pitch": 63, "duration": 6, "velocity": 87}, {"time": 2803, "pitch": 56, "duration": 2, "velocity": 89}, {"time": 2803, "pitch": 63, "duration": 2, "velocity": 90}, {"time": 2809, "pitch": 51, "duration": 4, "velocity": 72}, {"time": 2812, "pitch": 56, "duration": 2, "velocity": 88}, {"time": 2812, "pitch": 60, "duration": 3, "velocity": 91}, {"time": 2812, "pitch": 63, "duration": 3, "velocity": 91}, {"time": 2818, "pitch": 56, "duration": 2, "velocity": 84}, {"time": 2821, "pitch": 51, "duration": 8, "velocity": 77}, {"time": 2827, "pitch": 56, "duration": 3, "velocity": 88}, {"time": 2827, "pitch": 60, "duration": 3, "velocity": 88}, {"time": 2827, "pitch": 63, "duration": 4, "velocity": 90}, {"time": 2833, "pitch": 44, "duration": 2, "velocity": 89}, {"time": 2839, "pitch": 48, "duration": 15, "velocity": 88}, {"time": 2839, "pitch": 60, "duration": 8, "velocity": 86}, {"time": 2839, "pitch": 63, "duration": 7, "velocity": 87}, {"time": 2839, "pitch": 67, "duration": 7, "velocity": 81}, {"time": 2851, "pitch": 60, "duration": 5, "velocity": 90}, {"time": 2851, "pitch": 63, "duration": 4, "velocity": 92}, {"time": 2851, "pitch": 67, "duration": 5, "velocity": 91}, {"time": 2860, "pitch": 60, "duration": 3, "velocity": 86}, {"time": 2860, "pitch": 63, "duration": 2, "velocity": 86}, {"time": 2860, "pitch": 67, "duration": 3, "velocity": 86}, {"time": 2863, "pitch": 48, "duration": 13, "velocity": 73}, {"time": 2866, "pitch": 55, "duration": 10, "velocity": 76}, {"time": 2869, "pitch": 60, "duration": 3, "velocity": 89}, {"time": 2875, "pitch": 60, "duration": 4, "velocity": 88}, {"time": 2875, "pitch": 63, "duration": 4, "velocity": 87}, {"time": 2881, "pitch": 48, "duration": 2, "velocity": 87}, {"time": 2887, "pitch": 41, "duration": 21, "velocity": 88}, {"time": 2887, "pitch": 60, "duration": 6, "velocity": 82}, {"time": 2887, "pitch": 65, "duration": 6, "velocity": 86}, {"time": 2899, "pitch": 60, "duration": 3, "velocity": 92}, {"time": 2899, "pitch": 65, "duration": 3, "velocity": 97}, {"time": 2899, "pitch": 68, "duration": 3, "velocity": 90}, {"time": 2908, "pitch": 60, "duration": 4, "velocity": 87}, {"time": 2908, "pitch": 65, "duration": 4, "velocity": 88}, {"time": 2908, "pitch": 68, "duration": 5, "velocity": 83}, {"time": 2911, "pitch": 41, "duration": 15, "velocity": 87}, {"time": 2914, "pitch": 48, "duration": 10, "velocity": 73}, {"time": 2917, "pitch": 60, "duration": 3, "velocity": 89}, {"time": 2923, "pitch": 60, "duration": 2, "velocity": 91}, {"time": 2923, "pitch": 65, "duration": 3, "velocity": 89}, {"time": 2923, "pitch": 68, "duration": 5, "velocity": 86}, {"time": 2929, "pitch": 60, "duration": 1, "velocity": 78}, {"time": 2935, "pitch": 48, "duration": 15, "velocity": 88}, {"time": 2935, "pitch": 60, "duration": 4, "velocity": 83}, {"time": 2935, "pitch": 63, "duration": 5, "velocity": 82}, {"time": 2935, "pitch": 67, "duration": 6, "velocity": 81}, {"time": 2947, "pitch": 60, "duration": 3, "velocity": 87}, {"time": 2947, "pitch": 63, "duration": 3, "velocity": 88}, {"time": 2947, "pitch": 67, "duration": 4, "velocity": 86}, {"time": 2956, "pitch": 60, "duration": 4, "velocity": 87}, {"time": 2956, "pitch": 63, "duration": 4, "velocity": 87}, {"time": 2956, "pitch": 67, "duration": 4, "velocity": 86}, {"time": 2959, "pitch": 48, "duration": 14, "velocity": 81}, {"time": 2962, "pitch": 55, "duration": 10, "velocity": 71}, {"time": 2965, "pitch": 60, "duration": 3, "velocity": 87}, {"time": 2971, "pitch": 60, "duration": 3, "velocity": 88}, {"time": 2971, "pitch": 63, "duration": 3, "velocity": 89}, {"time": 2971, "pitch": 67, "duration": 4, "velocity": 88}, {"time": 2977, "pitch": 48, "duration": 3, "velocity": 87}, {"time": 2983, "pitch": 49, "duration": 12, "velocity": 92}, {"time": 2983, "pitch": 61, "duration": 6, "velocity": 83}, {"time": 2983, "pitch": 65, "duration": 6, "velocity": 87}, {"time": 2989, "pitch": 56, "duration": 5, "velocity": 73}, {"time": 2995, "pitch": 61, "duration": 3, "velocity": 92}, {"time": 2995, "pitch": 65, "duration": 7, "velocity": 100}, {"time": 3001, "pitch": 61, "duration": 2, "velocity": 81}, {"time": 3007, "pitch": 39, "duration": 13, "velocity": 91}, {"time": 3007, "pitch": 63, "duration": 4, "velocity": 86}, {"time": 3007, "pitch": 67, "duration": 4, "velocity": 89}, {"time": 3013, "pitch": 46, "duration": 7, "velocity": 71}, {"time": 3016, "pitch": 63, "duration": 1, "velocity": 77}, {"time": 3019, "pitch": 63, "duration": 3, "velocity": 88}, {"time": 3019, "pitch": 67, "duration": 3, "velocity": 89}, {"time": 3019, "pitch": 70, "duration": 3, "velocity": 88}, {"time": 3031, "pitch": 44, "duration": 6, "velocity": 88}, {"time": 3031, "pitch": 56, "duration": 2, "velocity": 86}, {"time": 3031, "pitch": 60, "duration": 6, "velocity": 87}, {"time": 3031, "pitch": 63, "duration": 7, "velocity": 88}, {"time": 3037, "pitch": 56, "duration": 2, "velocity": 87}, {"time": 3043, "pitch": 43, "duration": 5, "velocity": 91}, {"time": 3043, "pitch": 55, "duration": 3, "velocity": 87}, {"time": 3043, "pitch": 58, "duration": 7, "velocity": 85}, {"time": 3049, "pitch": 55, "duration": 1, "velocity": 88}, {"time": 3055, "pitch": 41, "duration": 1, "velocity": 91}, {"time": 3055, "pitch": 53, "duration": 2, "velocity": 86}, {"time": 3055, "pitch": 56, "duration": 3, "velocity": 86}, {"time": 3061, "pitch": 53, "duration": 9, "velocity": 88}, {"time": 3064, "pitch": 60, "duration": 4, "velocity": 88}, {"time": 3067, "pitch": 65, "duration": 5, "velocity": 93}, {"time": 3067, "pitch": 68, "duration": 6, "velocity": 92}, {"time": 3073, "pitch": 60, "duration": 1, "velocity": 87}, {"time": 3079, "pitch": 46, "duration": 21, "velocity": 87}, {"time": 3079, "pitch": 65, "duration": 2, "velocity": 87}, {"time": 3079, "pitch": 70, "duration": 2, "velocity": 87}, {"time": 3085, "pitch": 53, "duration": 8, "velocity": 74}, {"time": 3091, "pitch": 58, "duration": 4, "velocity": 88}, {"time": 3091, "pitch": 61, "duration": 4, "velocity": 90}, {"time": 3091, "pitch": 65, "duration": 4, "velocity": 92}, {"time": 3097, "pitch": 53, "duration": 1, "velocity": 41}, {"time": 3100, "pitch": 58, "duration": 5, "velocity": 87}, {"time": 3100, "pitch": 61, "duration": 6, "velocity": 92}, {"time": 3100, "pitch": 65, "duration": 6, "velocity": 91}, {"time": 3103, "pitch": 46, "duration": 14, "velocity": 87}, {"time": 3106, "pitch": 53, "duration": 10, "velocity": 78}, {"time": 3109, "pitch": 58, "duration": 3, "velocity": 87}, {"time": 3115, "pitch": 58, "duration": 4, "velocity": 88}, {"time": 3115, "pitch": 61, "duration": 3, "velocity": 92}, {"time": 3115, "pitch": 65, "duration": 4, "velocity": 97}, {"time": 3121, "pitch": 46, "duration": 1, "velocity": 85}, {"time": 3127, "pitch": 39, "duration": 1, "velocity": 90}, {"time": 3127, "pitch": 58, "duration": 3, "velocity": 85}, {"time": 3127, "pitch": 63, "duration": 3, "velocity": 86}, {"time": 3127, "pitch": 67, "duration": 4, "velocity": 85}, {"time": 3139, "pitch": 58, "duration": 5, "velocity": 88}, {"time": 3139, "pitch": 63, "duration": 5, "velocity": 92}, {"time": 3139, "pitch": 67, "duration": 5, "velocity": 92}, {"time": 3145, "pitch": 51, "duration": 1, "velocity": 68}, {"time": 3148, "pitch": 58, "duration": 2, "velocity": 87}, {"time": 3148, "pitch": 63, "duration": 2, "velocity": 89}, {"time": 3148, "pitch": 67, "duration": 3, "velocity": 89}, {"time": 3151, "pitch": 51, "duration": 1, "velocity": 75}, {"time": 3154, "pitch": 58, "duration": 1, "velocity": 87}, {"time": 3154, "pitch": 63, "duration": 2, "velocity": 89}, {"time": 3154, "pitch": 68, "duration": 3, "velocity": 86}, {"time": 3157, "pitch": 51, "duration": 1, "velocity": 80}, {"time": 3160, "pitch": 58, "duration": 3, "velocity": 87}, {"time": 3160, "pitch": 63, "duration": 3, "velocity": 89}, {"time": 3160, "pitch": 67, "duration": 4, "velocity": 93}, {"time": 3163, "pitch": 51, "duration": 13, "velocity": 84}, {"time": 3166, "pitch": 58, "duration": 1, "velocity": 86}, {"time": 3169, "pitch": 58, "duration": 5, "velocity": 90}, {"time": 3169, "pitch": 63, "duration": 4, "velocity": 100}, {"time": 3175, "pitch": 44, "duration": 39, "velocity": 87}, {"time": 3175, "pitch": 56, "duration": 6, "velocity": 87}, {"time": 3175, "pitch": 60, "duration": 6, "velocity": 87}, {"time": 3175, "pitch": 63, "duration": 6, "velocity": 87}, {"time": 3187, "pitch": 56, "duration": 2, "velocity": 89}, {"time": 3187, "pitch": 63, "duration": 2, "velocity": 90}, {"time": 3193, "pitch": 51, "duration": 4, "velocity": 72}, {"time": 3196, "pitch": 56, "duration": 2, "velocity": 88}, {"time": 3196, "pitch": 60, "duration": 3, "velocity": 91}, {"time": 3196, "pitch": 63, "duration": 3, "velocity": 91}, {"time": 3202, "pitch": 56, "duration": 2, "velocity": 84}, {"time": 3205, "pitch": 51, "duration": 8, "velocity": 77}, {"time": 3211, "pitch": 56, "duration": 3, "velocity": 88}, {"time": 3211, "pitch": 60, "duration": 3, "velocity": 88}, {"time": 3211, "pitch": 63, "duration": 4, "velocity": 90}, {"time": 3217, "pitch": 44, "duration": 2, "velocity": 89}, {"time": 3223, "pitch": 48, "duration": 15, "velocity": 88}, {"time": 3223, "pitch": 60, "duration": 8, "velocity": 86}, {"time": 3223, "pitch": 63, "duration": 7, "velocity": 87}, {"time": 3223, "pitch": 67, "duration": 7, "velocity": 81}, {"time": 3235, "pitch": 60, "duration": 5, "velocity": 90}, {"time": 3235, "pitch": 63, "duration": 4, "velocity": 92}, {"time": 3235, "pitch": 67, "duration": 5, "velocity": 91}, {"time": 3244, "pitch": 60, "duration": 3, "velocity": 86}, {"time": 3244, "pitch": 63, "duration": 2, "velocity": 86}, {"time": 3244, "pitch": 67, "duration": 3, "velocity": 86}, {"time": 3247, "pitch": 48, "duration": 13, "velocity": 73}, {"time": 3250, "pitch": 55, "duration": 10, "velocity": 76}, {"time": 3253, "pitch": 60, "duration": 3, "velocity": 89}, {"time": 3259, "pitch": 60, "duration": 4, "velocity": 88}, {"time": 3259, "pitch": 63, "duration": 4, "velocity": 87}, {"time": 3265, "pitch": 48, "duration": 2, "velocity": 87}, {"time": 3271, "pitch": 41, "duration": 21, "velocity": 88}, {"time": 3271, "pitch": 60, "duration": 6, "velocity": 82}, {"time": 3271, "pitch": 65, "duration": 6, "velocity": 86}, {"time": 3283, "pitch": 60, "duration": 3, "velocity": 92}, {"time": 3283, "pitch": 65, "duration": 3, "velocity": 97}, {"time": 3283, "pitch": 68, "duration": 3, "velocity": 90}, {"time": 3292, "pitch": 60, "duration": 4, "velocity": 87}, {"time": 3292, "pitch": 65, "duration": 4, "velocity": 88}, {"time": 3292, "pitch": 68, "duration": 5, "velocity": 83}, {"time": 3295, "pitch": 41, "duration": 15, "velocity": 87}, {"time": 3298, "pitch": 48, "duration": 10, "velocity": 73}, {"time": 3301, "pitch": 60, "duration": 3, "velocity": 89}, {"time": 3307, "pitch": 60, "duration": 2, "velocity": 91}, {"time": 3307, "pitch": 65, "duration": 3, "velocity": 89}, {"time": 3307, "pitch": 68, "duration": 5, "velocity": 86}, {"time": 3313, "pitch": 60, "duration": 1, "velocity": 78}, {"time": 3319, "pitch": 48, "duration": 15, "velocity": 88}, {"time": 3319, "pitch": 60, "duration": 4, "velocity": 83}, {"time": 3319, "pitch": 63, "duration": 5, "velocity": 82}, {"time": 3319, "pitch": 67, "duration": 6, "velocity": 81}, {"time": 3331, "pitch": 60, "duration": 3, "velocity": 87}, {"time": 3331, "pitch": 63, "duration": 3, "velocity": 88}, {"time": 3331, "pitch": 67, "duration": 4, "velocity": 86}, {"time": 3340, "pitch": 60, "duration": 4, "velocity": 87}, {"time": 3340, "pitch": 63, "duration": 4, "velocity": 87}, {"time": 3340, "pitch": 67, "duration": 4, "velocity": 86}, {"time": 3343, "pitch": 48, "duration": 14, "velocity": 81}, {"time": 3346, "pitch": 55, "duration": 10, "velocity": 71}, {"time": 3349, "pitch": 60, "duration": 3, "velocity": 87}, {"time": 3355, "pitch": 60, "duration": 3, "velocity": 88}, {"time": 3355, "pitch": 63, "duration": 3, "velocity": 89}, {"time": 3355, "pitch": 67, "duration": 4, "velocity": 88}, {"time": 3361, "pitch": 48, "duration": 3, "velocity": 87}, {"time": 3367, "pitch": 49, "duration": 12, "velocity": 92}, {"time": 3367, "pitch": 61, "duration": 6, "velocity": 83}, {"time": 3367, "pitch": 65, "duration": 6, "velocity": 87}, {"time": 3373, "pitch": 56, "duration": 5, "velocity": 73}, {"time": 3379, "pitch": 61, "duration": 3, "velocity": 92}, {"time": 3379, "pitch": 65, "duration": 7, "velocity": 100}, {"time": 3385, "pitch": 61, "duration": 2, "velocity": 81}, {"time": 3391, "pitch": 39, "duration": 13, "velocity": 91}, {"time": 3391, "pitch": 63, "duration": 4, "velocity": 86}, {"time": 3391, "pitch": 67, "duration": 4, "velocity": 89}, {"time": 3397, "pitch": 46, "duration": 7, "velocity": 71}, {"time": 3400, "pitch": 63, "duration": 1, "velocity": 77}, {"time": 3403, "pitch": 63, "duration": 3, "velocity": 88}, {"time": 3403, "pitch": 67, "duration": 3, "velocity": 89}, {"time": 3403, "pitch": 70, "duration": 3, "velocity": 88}, {"time": 3415, "pitch": 44, "duration": 6, "velocity": 88}, {"time": 3415, "pitch": 56, "duration": 2, "velocity": 86}, {"time": 3415, "pitch": 60, "duration": 6, "velocity": 87}, {"time": 3415, "pitch": 63, "duration": 7, "velocity": 88}, {"time": 3421, "pitch": 56, "duration": 2, "velocity": 87}, {"time": 3427, "pitch": 43, "duration": 5, "velocity": 91}, {"time": 3427, "pitch": 55, "duration": 3, "velocity": 87}, {"time": 3427, "pitch": 58, "duration": 7, "velocity": 85}, {"time": 3433, "pitch": 55, "duration": 1, "velocity": 88}, {"time": 3439, "pitch": 41, "duration": 1, "velocity": 91}, {"time": 3439, "pitch": 53, "duration": 2, "velocity": 86}, {"time": 3439, "pitch": 56, "duration": 3, "velocity": 86}, {"time": 3445, "pitch": 53, "duration": 9, "velocity": 88}, {"time": 3448, "pitch": 60, "duration": 4, "velocity": 88}, {"time": 3451, "pitch": 65, "duration": 5, "velocity": 93}, {"time": 3451, "pitch": 68, "duration": 6, "velocity": 92}, {"time": 3457, "pitch": 60, "duration": 1, "velocity": 87}, {"time": 3463, "pitch": 46, "duration": 21, "velocity": 87}, {"time": 3463, "pitch": 65, "duration": 2, "velocity": 87}, {"time": 3463, "pitch": 70, "duration": 2, "velocity": 87}, {"time": 3469, "pitch": 53, "duration": 8, "velocity": 74}, {"time": 3475, "pitch": 58, "duration": 4, "velocity": 88}, {"time": 3475, "pitch": 61, "duration": 4, "velocity": 90}, {"time": 3475, "pitch": 65, "duration": 4, "velocity": 92}, {"time": 3481, "pitch": 53, "duration": 1, "velocity": 41}, {"time": 3484, "pitch": 58, "duration": 5, "velocity": 87}, {"time": 3484, "pitch": 61, "duration": 6, "velocity": 92}, {"time": 3484, "pitch": 65, "duration": 6, "velocity": 91}, {"time": 3487, "pitch": 46, "duration": 14, "velocity": 87}, {"time": 3490, "pitch": 53, "duration": 10, "velocity": 78}, {"time": 3493, "pitch": 58, "duration": 3, "velocity": 87}, {"time": 3499, "pitch": 58, "duration": 4, "velocity": 88}, {"time": 3499, "pitch": 61, "duration": 3, "velocity": 92}, {"time": 3499, "pitch": 65, "duration": 4, "velocity": 97}, {"time": 3505, "pitch": 46, "duration": 1, "velocity": 85}, {"time": 3511, "pitch": 39, "duration": 1, "velocity": 90}, {"time": 3511, "pitch": 58, "duration": 3, "velocity": 85}, {"time": 3511, "pitch": 63, "duration": 3, "velocity": 86}, {"time": 3511, "pitch": 67, "duration": 4, "velocity": 85}, {"time": 3523, "pitch": 58, "duration": 5, "velocity": 88}, {"time": 3523, "pitch": 63, "duration": 5, "velocity": 92}, {"time": 3523, "pitch": 67, "duration": 5, "velocity": 92}, {"time": 3529, "pitch": 51, "duration": 1, "velocity": 68}, {"time": 3532, "pitch": 58, "duration": 2, "velocity": 87}, {"time": 3532, "pitch": 63, "duration": 2, "velocity": 89}, {"time": 3532, "pitch": 67, "duration": 3, "velocity": 89}, {"time": 3535, "pitch": 51, "duration": 1, "velocity": 75}, {"time": 3538, "pitch": 58, "duration": 1, "velocity": 87}, {"time": 3538, "pitch": 63, "duration": 2, "velocity": 89}, {"time": 3538, "pitch": 68, "duration": 3, "velocity": 86}, {"time": 3541, "pitch": 51, "duration": 1, "velocity": 80}, {"time": 3544, "pitch": 58, "duration": 3, "velocity": 87}, {"time": 3544, "pitch": 63, "duration": 3, "velocity": 89}, {"time": 3544, "pitch": 67, "duration": 4, "velocity": 93}, {"time": 3547, "pitch": 51, "duration": 13, "velocity": 84}, {"time": 3550, "pitch": 58, "duration": 1, "velocity": 86}, {"time": 3553, "pitch": 58, "duration": 5, "velocity": 90}, {"time": 3553, "pitch": 63, "duration": 4, "velocity": 100}, {"time": 3559, "pitch": 44, "duration": 39, "velocity": 88}, {"time": 3559, "pitch": 56, "duration": 7, "velocity": 85}, {"time": 3559, "pitch": 63, "duration": 5, "velocity": 87}, {"time": 3565, "pitch": 51, "duration": 16, "velocity": 74}, {"time": 3571, "pitch": 56, "duration": 3, "velocity": 87}, {"time": 3571, "pitch": 60, "duration": 2, "velocity": 88}, {"time": 3571, "pitch": 63, "duration": 3, "velocity": 88}, {"time": 3580, "pitch": 56, "duration": 2, "velocity": 91}, {"time": 3580, "pitch": 63, "duration": 3, "velocity": 89}, {"time": 3583, "pitch": 51, "duration": 3, "velocity": 71}, {"time": 3586, "pitch": 56, "duration": 3, "velocity": 93}, {"time": 3586, "pitch": 63, "duration": 3, "velocity": 93}, {"time": 3589, "pitch": 51, "duration": 8, "velocity": 78}, {"time": 3592, "pitch": 56, "duration": 2, "velocity": 80}, {"time": 3595, "pitch": 56, "duration": 2, "velocity": 89}, {"time": 3595, "pitch": 60, "duration": 2, "velocity": 95}, {"time": 3595, "pitch": 63, "duration": 3, "velocity": 89}, {"time": 3607, "pitch": 41, "duration": 41, "velocity": 90}, {"time": 3607, "pitch": 60, "duration": 5, "velocity": 87}, {"time": 3607, "pitch": 65, "duration": 6, "velocity": 91}, {"time": 3613, "pitch": 48, "duration": 22, "velocity": 68}, {"time": 3619, "pitch": 60, "duration": 1, "velocity": 91}, {"time": 3619, "pitch": 68, "duration": 1, "velocity": 87}, {"time": 3628, "pitch": 60, "duration": 2, "velocity": 87}, {"time": 3628, "pitch": 65, "duration": 2, "velocity": 90}, {"time": 3634, "pitch": 60, "duration": 4, "velocity": 88}, {"time": 3634, "pitch": 65, "duration": 6, "velocity": 95}, {"time": 3640, "pitch": 60, "duration": 1, "velocity": 87}, {"time": 3643, "pitch": 60, "duration": 3, "velocity": 93}, {"time": 3643, "pitch": 65, "duration": 5, "velocity": 100}, {"time": 3643, "pitch": 70, "duration": 1, "velocity": 73}, {"time": 3649, "pitch": 60, "duration": 2, "velocity": 81}, {"time": 3655, "pitch": 49, "duration": 15, "velocity": 91}, {"time": 3655, "pitch": 56, "duration": 4, "velocity": 73}, {"time": 3655, "pitch": 61, "duration": 7, "velocity": 84}, {"time": 3661, "pitch": 56, "duration": 3, "velocity": 78}, {"time": 3667, "pitch": 56, "duration": 2, "velocity": 88}, {"time": 3667, "pitch": 61, "duration": 1, "velocity": 91}, {"time": 3667, "pitch": 65, "duration": 2, "velocity": 92}, {"time": 3676, "pitch": 56, "duration": 2, "velocity": 83}, {"time": 3676, "pitch": 61, "duration": 2, "velocity": 86}, {"time": 3676, "pitch": 65, "duration": 2, "velocity": 87}, {"time": 3682, "pitch": 56, "duration": 1, "velocity": 82}, {"time": 3685, "pitch": 61, "duration": 2, "velocity": 77}, {"time": 3691, "pitch": 49, "duration": 3, "velocity": 88}, {"time": 3691, "pitch": 56, "duration": 3, "velocity": 87}, {"time": 3691, "pitch": 61, "duration": 3, "velocity": 90}, {"time": 3691, "pitch": 65, "duration": 4, "velocity": 90}, {"time": 3703, "pitch": 46, "duration": 5, "velocity": 88}, {"time": 3703, "pitch": 58, "duration": 4, "velocity": 83}, {"time": 3703, "pitch": 61, "duration": 4, "velocity": 87}, {"time": 3703, "pitch": 65, "duration": 4, "velocity": 89}, {"time": 3712, "pitch": 48, "duration": 5, "velocity": 90}, {"time": 3712, "pitch": 60, "duration": 5, "velocity": 87}, {"time": 3712, "pitch": 63, "duration": 5, "velocity": 88}, {"time": 3721, "pitch": 49, "duration": 8, "velocity": 91}, {"time": 3721, "pitch": 56, "duration": 7, "velocity": 87}, {"time": 3721, "pitch": 61, "duration": 8, "velocity": 88}, {"time": 3730, "pitch": 51, "duration": 8, "velocity": 102}, {"time": 3730, "pitch": 58, "duration": 8, "velocity": 87}, {"time": 3730, "pitch": 63, "duration": 8, "velocity": 85}, {"time": 3739, "pitch": 39, "duration": 4, "velocity": 88}, {"time": 3739, "pitch": 58, "duration": 4, "velocity": 75}, {"time": 3739, "pitch": 63, "duration": 4, "velocity": 82}, {"time": 3745, "pitch": 39, "duration": 3, "velocity": 88}, {"time": 3745, "pitch": 58, "duration": 4, "velocity": 82}, {"time": 3745, "pitch": 63, "duration": 4, "velocity": 84}, {"time": 3751, "pitch": 39, "duration": 21, "velocity": 95}, {"time": 3751, "pitch": 58, "duration": 10, "velocity": 87}, {"time": 3751, "pitch": 63, "duration": 10, "velocity": 87}, {"time": 3763, "pitch": 58, "duration": 2, "velocity": 91}, {"time": 3763, "pitch": 63, "duration": 3, "velocity": 92}, {"time": 3769, "pitch": 58, "duration": 2, "velocity": 78}, {"time": 3775, "pitch": 39, "duration": 3, "velocity": 80}, {"time": 3775, "pitch": 58, "duration": 3, "velocity": 70}, {"time": 3775, "pitch": 63, "duration": 3, "velocity": 70}, {"time": 3775, "pitch": 67, "duration": 2, "velocity": 34}, {"time": 3781, "pitch": 39, "duration": 3, "velocity": 89}, {"time": 3781, "pitch": 58, "duration": 3, "velocity": 82}, {"time": 3781, "pitch": 63, "duration": 2, "velocity": 84}, {"time": 3781, "pitch": 67, "duration": 3, "velocity": 75}, {"time": 3787, "pitch": 39, "duration": 4, "velocity": 92}, {"time": 3787, "pitch": 58, "duration": 4, "velocity": 85}, {"time": 3787, "pitch": 63, "duration": 3, "velocity": 88}, {"time": 3787, "pitch": 67, "duration": 4, "velocity": 87}, {"time": 3793, "pitch": 39, "duration": 5, "velocity": 93}, {"time": 3793, "pitch": 58, "duration": 5, "velocity": 85}, {"time": 3793, "pitch": 63, "duration": 5, "velocity": 87}, {"time": 3793, "pitch": 67, "duration": 5, "velocity": 86}, {"time": 3799, "pitch": 44, "duration": 39, "velocity": 87}, {"time": 3799, "pitch": 56, "duration": 6, "velocity": 87}, {"time": 3799, "pitch": 60, "duration": 6, "velocity": 87}, {"time": 3799, "pitch": 63, "duration": 6, "velocity": 87}, {"time": 3811, "pitch": 56, "duration": 2, "velocity": 89}, {"time": 3811, "pitch": 63, "duration": 2, "velocity": 90}, {"time": 3817, "pitch": 51, "duration": 4, "velocity": 72}, {"time": 3820, "pitch": 56, "duration": 2, "velocity": 88}, {"time": 3820, "pitch": 60, "duration": 3, "velocity": 91}, {"time": 3820, "pitch": 63, "duration": 3, "velocity": 91}, {"time": 3826, "pitch": 56, "duration": 2, "velocity": 84}, {"time": 3829, "pitch": 51, "duration": 8, "velocity": 77}, {"time": 3835, "pitch": 56, "duration": 3, "velocity": 88}, {"time": 3835, "pitch": 60, "duration": 3, "velocity": 88}, {"time": 3835, "pitch": 63, "duration": 4, "velocity": 90}, {"time": 3841, "pitch": 44, "duration": 2, "velocity": 89}, {"time": 3847, "pitch": 48, "duration": 15, "velocity": 88}, {"time": 3847, "pitch": 60, "duration": 8, "velocity": 86}, {"time": 3847, "pitch": 63, "duration": 7, "velocity": 87}, {"time": 3847, "pitch": 67, "duration": 7, "velocity": 81}, {"time": 3859, "pitch": 60, "duration": 5, "velocity": 90}, {"time": 3859, "pitch": 63, "duration": 4, "velocity": 92}, {"time": 3859, "pitch": 67, "duration": 5, "velocity": 91}, {"time": 3868, "pitch": 60, "duration": 3, "velocity": 86}, {"time": 3868, "pitch": 63, "duration": 2, "velocity": 86}, {"time": 3868, "pitch": 67, "duration": 3, "velocity": 86}, {"time": 3871, "pitch": 48, "duration": 13, "velocity": 73}, {"time": 3874, "pitch": 55, "duration": 10, "velocity": 76}, {"time": 3877, "pitch": 60, "duration": 3, "velocity": 89}, {"time": 3883, "pitch": 60, "duration": 4, "velocity": 88}, {"time": 3883, "pitch": 63, "duration": 4, "velocity": 87}, {"time": 3889, "pitch": 48, "duration": 2, "velocity": 87}, {"time": 3895, "pitch": 41, "duration": 21, "velocity": 88}, {"time": 3895, "pitch": 60, "duration": 6, "velocity": 82}, {"time": 3895, "pitch": 65, "duration": 6, "velocity": 86}, {"time": 3907, "pitch": 60, "duration": 3, "velocity": 92}, {"time": 3907, "pitch": 65, "duration": 3, "velocity": 97}, {"time": 3907, "pitch": 68, "duration": 3, "velocity": 90}, {"time": 3916, "pitch": 60, "duration": 4, "velocity": 87}, {"time": 3916, "pitch": 65, "duration": 4, "velocity": 88}, {"time": 3916, "pitch": 68, "duration": 5, "velocity": 83}, {"time": 3919, "pitch": 41, "duration": 15, "velocity": 87}, {"time": 3922, "pitch": 48, "duration": 10, "velocity": 73}, {"time": 3925, "pitch": 60, "duration": 3, "velocity": 89}, {"time": 3931, "pitch": 60, "duration": 2, "velocity": 91}, {"time": 3931, "pitch": 65, "duration": 3, "velocity": 89}, {"time": 3931, "pitch": 68, "duration": 5, "velocity": 86}, {"time": 3937, "pitch": 60, "duration": 1, "velocity": 78}, {"time": 3943, "pitch": 48, "duration": 15, "velocity": 88}, {"time": 3943, "pitch": 60, "duration": 4, "velocity": 83}, {"time": 3943, "pitch": 63, "duration": 5, "velocity": 82}, {"time": 3943, "pitch": 67, "duration": 6, "velocity": 81}, {"time": 3955, "pitch": 60, "duration": 3, "velocity": 87}, {"time": 3955, "pitch": 63, "duration": 3, "velocity": 88}, {"time": 3955, "pitch": 67, "duration": 4, "velocity": 86}, {"time": 3964, "pitch": 60, "duration": 4, "velocity": 87}, {"time": 3964, "pitch": 63, "duration": 4, "velocity": 87}, {"time": 3964, "pitch": 67, "duration": 4, "velocity": 86}, {"time": 3967, "pitch": 48, "duration": 14, "velocity": 81}, {"time": 3970, "pitch": 55, "duration": 10, "velocity": 71}, {"time": 3973, "pitch": 60, "duration": 3, "velocity": 87}, {"time": 3979, "pitch": 60, "duration": 3, "velocity": 88}, {"time": 3979, "pitch": 63, "duration": 3, "velocity": 89}, {"time": 3979, "pitch": 67, "duration": 4, "velocity": 88}, {"time": 3985, "pitch": 48, "duration": 3, "velocity": 87}, {"time": 3991, "pitch": 49, "duration": 12, "velocity": 92}, {"time": 3991, "pitch": 61, "duration": 6, "velocity": 83}, {"time": 3991, "pitch": 65, "duration": 6, "velocity": 87}, {"time": 3997, "pitch": 56, "duration": 5, "velocity": 73}, {"time": 4003, "pitch": 61, "duration": 3, "velocity": 92}, {"time": 4003, "pitch": 65, "duration": 7, "velocity": 100}, {"time": 4009, "pitch": 61, "duration": 2, "velocity": 81}, {"time": 4015, "pitch": 39, "duration": 13, "velocity": 91}, {"time": 4015, "pitch": 63, "duration": 4, "velocity": 86}, {"time": 4015, "pitch": 67, "duration": 4, "velocity": 89}, {"time": 4021, "pitch": 46, "duration": 7, "velocity": 71}, {"time": 4024, "pitch": 63, "duration": 1, "velocity": 77}, {"time": 4027, "pitch": 63, "duration": 3, "velocity": 88}, {"time": 4027, "pitch": 67, "duration": 3, "velocity": 89}, {"time": 4027, "pitch": 70, "duration": 3, "velocity": 88}, {"time": 4039, "pitch": 44, "duration": 6, "velocity": 88}, {"time": 4039, "pitch": 56, "duration": 2, "velocity": 86}, {"time": 4039, "pitch": 60, "duration": 6, "velocity": 87}, {"time": 4039, "pitch": 63, "duration": 7, "velocity": 88}, {"time": 4045, "pitch": 56, "duration": 2, "velocity": 87}, {"time": 4051, "pitch": 43, "duration": 5, "velocity": 91}, {"time": 4051, "pitch": 55, "duration": 3, "velocity": 87}, {"time": 4051, "pitch": 58, "duration": 7, "velocity": 85}, {"time": 4057, "pitch": 55, "duration": 1, "velocity": 88}, {"time": 4063, "pitch": 41, "duration": 1, "velocity": 91}, {"time": 4063, "pitch": 53, "duration": 2, "velocity": 86}, {"time": 4063, "pitch": 56, "duration": 3, "velocity": 86}, {"time": 4069, "pitch": 53, "duration": 9, "velocity": 88}, {"time": 4072, "pitch": 60, "duration": 4, "velocity": 88}, {"time": 4075, "pitch": 65, "duration": 5, "velocity": 93}, {"time": 4075, "pitch": 68, "duration": 6, "velocity": 92}, {"time": 4081, "pitch": 60, "duration": 1, "velocity": 87}, {"time": 4087, "pitch": 46, "duration": 21, "velocity": 87}, {"time": 4087, "pitch": 65, "duration": 2, "velocity": 87}, {"time": 4087, "pitch": 70, "duration": 2, "velocity": 87}, {"time": 4093, "pitch": 53, "duration": 8, "velocity": 74}, {"time": 4099, "pitch": 58, "duration": 4, "velocity": 88}, {"time": 4099, "pitch": 61, "duration": 4, "velocity": 90}, {"time": 4099, "pitch": 65, "duration": 4, "velocity": 92}, {"time": 4105, "pitch": 53, "duration": 1, "velocity": 41}, {"time": 4108, "pitch": 58, "duration": 5, "velocity": 87}, {"time": 4108, "pitch": 61, "duration": 6, "velocity": 92}, {"time": 4108, "pitch": 65, "duration": 6, "velocity": 91}, {"time": 4111, "pitch": 46, "duration": 14, "velocity": 87}, {"time": 4114, "pitch": 53, "duration": 10, "velocity": 78}, {"time": 4117, "pitch": 58, "duration": 3, "velocity": 87}, {"time": 4123, "pitch": 58, "duration": 4, "velocity": 88}, {"time": 4123, "pitch": 61, "duration": 3, "velocity": 92}, {"time": 4123, "pitch": 65, "duration": 4, "velocity": 97}, {"time": 4129, "pitch": 46, "duration": 1, "velocity": 85}, {"time": 4135, "pitch": 39, "duration": 1, "velocity": 90}, {"time": 4135, "pitch": 58, "duration": 3, "velocity": 85}, {"time": 4135, "pitch": 63, "duration": 3, "velocity": 86}, {"time": 4135, "pitch": 67, "duration": 4, "velocity": 85}, {"time": 4147, "pitch": 58, "duration": 5, "velocity": 88}, {"time": 4147, "pitch": 63, "duration": 5, "velocity": 92}, {"time": 4147, "pitch": 67, "duration": 5, "velocity": 92}, {"time": 4153, "pitch": 51, "duration": 1, "velocity": 68}, {"time": 4156, "pitch": 58, "duration": 2, "velocity": 87}, {"time": 4156, "pitch": 63, "duration": 2, "velocity": 89}, {"time": 4156, "pitch": 67, "duration": 3, "velocity": 89}, {"time": 4159, "pitch": 51, "duration": 1, "velocity": 75}, {"time": 4162, "pitch": 58, "duration": 1, "velocity": 87}, {"time": 4162, "pitch": 63, "duration": 2, "velocity": 89}, {"time": 4162, "pitch": 68, "duration": 3, "velocity": 86}, {"time": 4165, "pitch": 51, "duration": 1, "velocity": 80}, {"time": 4168, "pitch": 58, "duration": 3, "velocity": 87}, {"time": 4168, "pitch": 63, "duration": 3, "velocity": 89}, {"time": 4168, "pitch": 67, "duration": 4, "velocity": 93}, {"time": 4171, "pitch": 51, "duration": 13, "velocity": 84}, {"time": 4174, "pitch": 58, "duration": 1, "velocity": 86}, {"time": 4177, "pitch": 58, "duration": 5, "velocity": 90}, {"time": 4177, "pitch": 63, "duration": 4, "velocity": 100}, {"time": 4183, "pitch": 44, "duration": 38, "velocity": 87}, {"time": 4183, "pitch": 63, "duration": 7, "velocity": 88}, {"time": 4183, "pitch": 68, "duration": 7, "velocity": 85}, {"time": 4189, "pitch": 51, "duration": 22, "velocity": 71}, {"time": 4195, "pitch": 63, "duration": 4, "velocity": 90}, {"time": 4195, "pitch": 68, "duration": 3, "velocity": 89}, {"time": 4195, "pitch": 72, "duration": 4, "velocity": 91}, {"time": 4204, "pitch": 63, "duration": 1, "velocity": 88}, {"time": 4204, "pitch": 72, "duration": 2, "velocity": 88}, {"time": 4210, "pitch": 63, "duration": 2, "velocity": 87}, {"time": 4210, "pitch": 68, "duration": 3, "velocity": 87}, {"time": 4213, "pitch": 51, "duration": 8, "velocity": 76}, {"time": 4216, "pitch": 63, "duration": 1, "velocity": 87}, {"time": 4219, "pitch": 63, "duration": 3, "velocity": 92}, {"time": 4219, "pitch": 68, "duration": 6, "velocity": 90}, {"time": 4219, "pitch": 73, "duration": 1, "velocity": 74}, {"time": 4225, "pitch": 63, "duration": 2, "velocity": 86}, {"time": 4231, "pitch": 49, "duration": 40, "velocity": 89}, {"time": 4237, "pitch": 56, "duration": 8, "velocity": 73}, {"time": 4243, "pitch": 61, "duration": 4, "velocity": 87}, {"time": 4243, "pitch": 68, "duration": 4, "velocity": 86}, {"time": 4249, "pitch": 56, "duration": 4, "velocity": 59}, {"time": 4252, "pitch": 61, "duration": 2, "velocity": 82}, {"time": 4252, "pitch": 65, "duration": 2, "velocity": 84}, {"time": 4252, "pitch": 68, "duration": 2, "velocity": 82}, {"time": 4255, "pitch": 56, "duration": 2, "velocity": 56}, {"time": 4258, "pitch": 61, "duration": 4, "velocity": 86}, {"time": 4258, "pitch": 65, "duration": 5, "velocity": 88}, {"time": 4258, "pitch": 68, "duration": 5, "velocity": 85}, {"time": 4261, "pitch": 56, "duration": 8, "velocity": 74}, {"time": 4267, "pitch": 61, "duration": 2, "velocity": 87}, {"time": 4267, "pitch": 65, "duration": 5, "velocity": 92}, {"time": 4267, "pitch": 68, "duration": 5, "velocity": 87}, {"time": 4273, "pitch": 61, "duration": 1, "velocity": 85}, {"time": 4279, "pitch": 44, "duration": 39, "velocity": 87}, {"time": 4279, "pitch": 56, "duration": 7, "velocity": 81}, {"time": 4279, "pitch": 60, "duration": 6, "velocity": 82}, {"time": 4285, "pitch": 51, "duration": 7, "velocity": 69}, {"time": 4291, "pitch": 56, "duration": 4, "velocity": 86}, {"time": 4291, "pitch": 60, "duration": 3, "velocity": 87}, {"time": 4291, "pitch": 63, "duration": 4, "velocity": 87}, {"time": 4297, "pitch": 51, "duration": 20, "velocity": 46}, {"time": 4300, "pitch": 56, "duration": 2, "velocity": 87}, {"time": 4300, "pitch": 63, "duration": 2, "velocity": 87}, {"time": 4306, "pitch": 56, "duration": 3, "velocity": 86}, {"time": 4306, "pitch": 63, "duration": 3, "velocity": 86}, {"time": 4309, "pitch": 60, "duration": 3, "velocity": 73}, {"time": 4315, "pitch": 56, "duration": 3, "velocity": 88}, {"time": 4315, "pitch": 63, "duration": 4, "velocity": 87}, {"time": 4321, "pitch": 44, "duration": 3, "velocity": 87}, {"time": 4327, "pitch": 51, "duration": 35, "velocity": 91}, {"time": 4327, "pitch": 58, "duration": 3, "velocity": 73}, {"time": 4327, "pitch": 63, "duration": 8, "velocity": 83}, {"time": 4333, "pitch": 58, "duration": 3, "velocity": 73}, {"time": 4339, "pitch": 58, "duration": 3, "velocity": 87}, {"time": 4339, "pitch": 63, "duration": 4, "velocity": 88}, {"time": 4339, "pitch": 67, "duration": 4, "velocity": 88}, {"time": 4348, "pitch": 58, "duration": 3, "velocity": 82}, {"time": 4348, "pitch": 67, "duration": 3, "velocity": 81}, {"time": 4354, "pitch": 63, "duration": 4, "velocity": 80}, {"time": 4357, "pitch": 58, "duration": 4, "velocity": 85}, {"time": 4363, "pitch": 58, "duration": 3, "velocity": 88}, {"time": 4363, "pitch": 63, "duration": 10, "velocity": 91}, {"time": 4369, "pitch": 58, "duration": 4, "velocity": 82}, {"time": 4375, "pitch": 44, "duration": 38, "velocity": 87}, {"time": 4375, "pitch": 63, "duration": 7, "velocity": 88}, {"time": 4375, "pitch": 68, "duration": 7, "velocity": 85}, {"time": 4381, "pitch": 51, "duration": 22, "velocity": 71}, {"time": 4387, "pitch": 63, "duration": 4, "velocity": 90}, {"time": 4387, "pitch": 68, "duration": 3, "velocity": 89}, {"time": 4387, "pitch": 72, "duration": 4, "velocity": 91}, {"time": 4396, "pitch": 63, "duration": 1, "velocity": 88}, {"time": 4396, "pitch": 72, "duration": 2, "velocity": 88}, {"time": 4402, "pitch": 63, "duration": 2, "velocity": 87}, {"time": 4402, "pitch": 68, "duration": 3, "velocity": 87}, {"time": 4405, "pitch": 51, "duration": 8, "velocity": 76}, {"time": 4408, "pitch": 63, "duration": 1, "velocity": 87}, {"time": 4411, "pitch": 63, "duration": 3, "velocity": 92}, {"time": 4411, "pitch": 68, "duration": 6, "velocity": 90}, {"time": 4411, "pitch": 73, "duration": 1, "velocity": 74}, {"time": 4417, "pitch": 63, "duration": 2, "velocity": 86}, {"time": 4423, "pitch": 49, "duration": 40, "velocity": 89}, {"time": 4429, "pitch": 56, "duration": 8, "velocity": 73}, {"time": 4435, "pitch": 61, "duration": 4, "velocity": 87}, {"time": 4435, "pitch": 68, "duration": 4, "velocity": 86}, {"time": 4441, "pitch": 56, "duration": 4, "velocity": 59}, {"time": 4444, "pitch": 61, "duration": 2, "velocity": 82}, {"time": 4444, "pitch": 65, "duration": 2, "velocity": 84}, {"time": 4444, "pitch": 68, "duration": 2, "velocity": 82}, {"time": 4447, "pitch": 56, "duration": 2, "velocity": 56}, {"time": 4450, "pitch": 61, "duration": 4, "velocity": 86}, {"time": 4450, "pitch": 65, "duration": 5, "velocity": 88}, {"time": 4450, "pitch": 68, "duration": 5, "velocity": 85}, {"time": 4453, "pitch": 56, "duration": 8, "velocity": 74}, {"time": 4459, "pitch": 61, "duration": 2, "velocity": 87}, {"time": 4459, "pitch": 65, "duration": 5, "velocity": 92}, {"time": 4459, "pitch": 68, "duration": 5, "velocity": 87}, {"time": 4465, "pitch": 61, "duration": 1, "velocity": 85}, {"time": 4471, "pitch": 44, "duration": 39, "velocity": 87}, {"time": 4471, "pitch": 56, "duration": 7, "velocity": 81}, {"time": 4471, "pitch": 60, "duration": 6, "velocity": 82}, {"time": 4477, "pitch": 51, "duration": 7, "velocity": 69}, {"time": 4483, "pitch": 56, "duration": 4, "velocity": 86}, {"time": 4483, "pitch": 60, "duration": 3, "velocity": 87}, {"time": 4483, "pitch": 63, "duration": 4, "velocity": 87}, {"time": 4489, "pitch": 51, "duration": 20, "velocity": 46}, {"time": 4492, "pitch": 56, "duration": 2, "velocity": 87}, {"time": 4492, "pitch": 63, "duration": 2, "velocity": 87}, {"time": 4498, "pitch": 56, "duration": 3, "velocity": 86}, {"time": 4498, "pitch": 63, "duration": 3, "velocity": 86}, {"time": 4501, "pitch": 60, "duration": 3, "velocity": 73}, {"time": 4507, "pitch": 56, "duration": 3, "velocity": 88}, {"time": 4507, "pitch": 63, "duration": 4, "velocity": 87}, {"time": 4513, "pitch": 44, "duration": 3, "velocity": 87}, {"time": 4519, "pitch": 51, "duration": 35, "velocity": 91}, {"time": 4519, "pitch": 58, "duration": 3, "velocity": 73}, {"time": 4519, "pitch": 63, "duration": 8, "velocity": 83}, {"time": 4525, "pitch": 58, "duration": 3, "velocity": 73}, {"time": 4531, "pitch": 58, "duration": 3, "velocity": 87}, {"time": 4531, "pitch": 63, "duration": 4, "velocity": 88}, {"time": 4531, "pitch": 67, "duration": 4, "velocity": 88}, {"time": 4540, "pitch": 58, "duration": 3, "velocity": 82}, {"time": 4540, "pitch": 67, "duration": 3, "velocity": 81}, {"time": 4546, "pitch": 63, "duration": 4, "velocity": 80}, {"time": 4549, "pitch": 58, "duration": 4, "velocity": 85}, {"time": 4555, "pitch": 58, "duration": 3, "velocity": 88}, {"time": 4555, "pitch": 63, "duration": 10, "velocity": 91}, {"time": 4561, "pitch": 58, "duration": 4, "velocity": 82}, {"time": 4567, "pitch": 44, "duration": 57, "velocity": 70}, {"time": 4567, "pitch": 63, "duration": 57, "velocity": 67}, {"time": 4567, "pitch": 68, "duration": 57, "velocity": 69}], "annotations": [{"time": 8, "annotation": {"number": 64, "value": 127}, "group": "control_change"}, {"time": 16, "annotation": {"number": 64, "value": 0}, "group": "control_change"}, {"time": 23, "annotation": {"number": 64, "value": 127}, "group": "control_change"}, {"time": 28, "annotation": {"number": 64, "value": 0}, "group": "control_change"}, {"time": 34, "annotation": {"number": 64, "value": 127}, "group": "control_change"}, {"time": 39, "annotation": {"number": 64, "value": 0}, "group": "control_change"}, {"time": 59, "annotation": {"number": 64, "value": 127}, "group": "control_change"}, {"time": 60, "annotation": {"number": 64, "value": 0}, "group": "control_change"}, {"time": 60, "annotation": {"number": 64, "value": 127}, "group": "control_change"}, {"time": 64, "annotation": {"number": 64, "value": 0}, "group": "control_change"}, {"time": 117, "annotation": {"number": 64, "value": 127}, "group": "control_change"}, {"time": 140, "annotation": {"number": 64, "value": 0}, "group": "control_change"}, {"time": 144, "annotation": {"number": 64, "value": 127}, "group": "control_change"}, {"time": 160, "annotation": {"number": 64, "value": 0}, "group": "control_change"}, {"time": 165, "annotation": {"number": 64, "value": 127}, "group": "control_change"}, {"time": 175, "annotation": {"number": 64, "value": 0}, "group": "control_change"}, {"time": 179, "annotation": {"number": 64, "value": 127}, "group": "control_change"}, {"time": 186, "annotation": {"number": 64, "value": 0}, "group": "control_change"}, {"time": 190, "annotation": {"number": 64, "value": 127}, "group": "control_change"}, {"time": 292, "annotation": {"number": 64, "value": 0}, "group": "control_change"}, {"time": 298, "annotation": {"number": 64, "value": 127}, "group": "control_change"}, {"time": 299, "annotation": {"number": 64, "value": 0}, "group": "control_change"}, {"time": 299, "annotation": {"number": 64, "value": 127}, "group": "control_change"}, {"time": 343, "annotation": {"number": 64, "value": 0}, "group": "control_change"}, {"time": 346, "annotation": {"number": 64, "value": 127}, "group": "control_change"}, {"time": 387, "annotation": {"number": 64, "value": 0}, "group": "control_change"}, {"time": 392, "annotation": {"number": 64, "value": 127}, "group": "control_change"}, {"time": 437, "annotation": {"number": 64, "value": 0}, "group": "control_change"}, {"time": 444, "annotation": {"number": 64, "value": 127}, "group": "control_change"}, {"time": 486, "annotation": {"number": 64, "value": 0}, "group": "control_change"}, {"time": 492, "annotation": {"number": 64, "value": 127}, "group": "control_change"}, {"time": 536, "annotation": {"number": 64, "value": 127}, "group": "control_change"}, {"time": 580, "annotation": {"number": 64, "value": 0}, "group": "control_change"}, {"time": 584, "annotation": {"number": 64, "value": 127}, "group": "control_change"}, {"time": 630, "annotation": {"number": 64, "value": 0}, "group": "control_change"}, {"time": 633, "annotation": {"number": 64, "value": 127}, "group": "control_change"}, {"time": 676, "annotation": {"number": 64, "value": 0}, "group": "control_change"}, {"time": 683, "annotation": {"number": 64, "value": 127}, "group": "control_change"}, {"time": 724, "annotation": {"number": 64, "value": 0}, "group": "control_change"}, {"time": 728, "annotation": {"number": 64, "value": 127}, "group": "control_change"}, {"time": 728, "annotation": {"number": 64, "value": 0}, "group": "control_change"}, {"time": 773, "annotation": {"number": 64, "value": 0}, "group": "control_change"}, {"time": 778, "annotation": {"number": 64, "value": 127}, "group": "control_change"}, {"time": 821, "annotation": {"number": 64, "value": 0}, "group": "control_change"}, {"time": 826, "annotation": {"number": 64, "value": 127}, "group": "control_change"}, {"time": 869, "annotation": {"number": 64, "value": 0}, "group": "control_change"}, {"time": 875, "annotation": {"number": 64, "value": 127}, "group": "control_change"}, {"time": 916, "annotation": {"number": 64, "value": 0}, "group": "control_change"}, {"time": 919, "annotation": {"number": 64, "value": 127}, "group": "control_change"}, {"time": 964, "annotation": {"number": 64, "value": 0}, "group": "control_change"}, {"time": 968, "annotation": {"number": 64, "value": 127}, "group": "control_change"}, {"time": 1014, "annotation": {"number": 64, "value": 0}, "group": "control_change"}, {"time": 1017, "annotation": {"number": 64, "value": 127}, "group": "control_change"}, {"time": 1060, "annotation": {"number": 64, "value": 0}, "group": "control_change"}, {"time": 1067, "annotation": {"number": 64, "value": 127}, "group": "control_change"}, {"time": 1108, "annotation": {"number": 64, "value": 0}, "group": "control_change"}, {"time": 1112, "annotation": {"number": 64, "value": 127}, "group": "control_change"}, {"time": 1112, "annotation": {"number": 64, "value": 0}, "group": "control_change"}, {"time": 1157, "annotation": {"number": 64, "value": 0}, "group": "control_change"}, {"time": 1162, "annotation": {"number": 64, "value": 127}, "group": "control_change"}, {"time": 1205, "annotation": {"number": 64, "value": 0}, "group": "control_change"}, {"time": 1210, "annotation": {"number": 64, "value": 127}, "group": "control_change"}, {"time": 1253, "annotation": {"number": 64, "value": 0}, "group": "control_change"}, {"time": 1259, "annotation": {"number": 64, "value": 127}, "group": "control_change"}, {"time": 1300, "annotation": {"number": 64, "value": 0}, "group": "control_change"}, {"time": 1303, "annotation": {"number": 64, "value": 127}, "group": "control_change"}, {"time": 1348, "annotation": {"number": 64, "value": 0}, "group": "control_change"}, {"time": 1351, "annotation": {"number": 64, "value": 127}, "group": "control_change"}, {"time": 1396, "annotation": {"number": 64, "value": 0}, "group": "control_change"}, {"time": 1399, "annotation": {"number": 64, "value": 0}, "group": "control_change"}, {"time": 1399, "annotation": {"number": 64, "value": 127}, "group": "control_change"}, {"time": 1445, "annotation": {"number": 64, "value": 0}, "group": "control_change"}, {"time": 1448, "annotation": {"number": 64, "value": 127}, "group": "control_change"}, {"time": 1493, "annotation": {"number": 64, "value": 0}, "group": "control_change"}, {"time": 1495, "annotation": {"number": 64, "value": 127}, "group": "control_change"}, {"time": 1517, "annotation": {"number": 64, "value": 0}, "group": "control_change"}, {"time": 1519, "annotation": {"number": 64, "value": 127}, "group": "control_change"}, {"time": 1541, "annotation": {"number": 64, "value": 0}, "group": "control_change"}, {"time": 1544, "annotation": {"number": 64, "value": 127}, "group": "control_change"}, {"time": 1588, "annotation": {"number": 64, "value": 0}, "group": "control_change"}, {"time": 1591, "annotation": {"number": 64, "value": 127}, "group": "control_change"}, {"time": 1612, "annotation": {"number": 64, "value": 0}, "group": "control_change"}, {"time": 1615, "annotation": {"number": 64, "value": 127}, "group": "control_change"}, {"time": 1637, "annotation": {"number": 64, "value": 0}, "group": "control_change"}, {"time": 1638, "annotation": {"number": 64, "value": 127}, "group": "control_change"}, {"time": 1650, "annotation": {"number": 64, "value": 0}, "group": "control_change"}, {"time": 1651, "annotation": {"number": 64, "value": 127}, "group": "control_change"}, {"time": 1661, "annotation": {"number": 64, "value": 0}, "group": "control_change"}, {"time": 1663, "annotation": {"number": 64, "value": 127}, "group": "control_change"}, {"time": 1685, "annotation": {"number": 64, "value": 0}, "group": "control_change"}, {"time": 1687, "annotation": {"number": 64, "value": 127}, "group": "control_change"}, {"time": 1708, "annotation": {"number": 64, "value": 0}, "group": "control_change"}, {"time": 1710, "annotation": {"number": 64, "value": 127}, "group": "control_change"}, {"time": 1732, "annotation": {"number": 64, "value": 0}, "group": "control_change"}, {"time": 1733, "annotation": {"number": 64, "value": 127}, "group": "control_change"}, {"time": 1780, "annotation": {"number": 64, "value": 0}, "group": "control_change"}, {"time": 1783, "annotation": {"number": 64, "value": 0}, "group": "control_change"}, {"time": 1783, "annotation": {"number": 64, "value": 127}, "group": "control_change"}, {"time": 1829, "annotation": {"number": 64, "value": 0}, "group": "control_change"}, {"time": 1832, "annotation": {"number": 64, "value": 127}, "group": "control_change"}, {"time": 1877, "annotation": {"number": 64, "value": 0}, "group": "control_change"}, {"time": 1879, "annotation": {"number": 64, "value": 127}, "group": "control_change"}, {"time": 1901, "annotation": {"number": 64, "value": 0}, "group": "control_change"}, {"time": 1903, "annotation": {"number": 64, "value": 127}, "group": "control_change"}, {"time": 1925, "annotation": {"number": 64, "value": 0}, "group": "control_change"}, {"time": 1928, "annotation": {"number": 64, "value": 127}, "group": "control_change"}, {"time": 1972, "annotation": {"number": 64, "value": 0}, "group": "control_change"}, {"time": 1975, "annotation": {"number": 64, "value": 127}, "group": "control_change"}, {"time": 1996, "annotation": {"number": 64, "value": 0}, "group": "control_change"}, {"time": 1999, "annotation": {"number": 64, "value": 127}, "group": "control_change"}, {"time": 2021, "annotation": {"number": 64, "value": 0}, "group": "control_change"}, {"time": 2022, "annotation": {"number": 64, "value": 127}, "group": "control_change"}, {"time": 2034, "annotation": {"number": 64, "value": 0}, "group": "control_change"}, {"time": 2035, "annotation": {"number": 64, "value": 127}, "group": "control_change"}, {"time": 2045, "annotation": {"number": 64, "value": 0}, "group": "control_change"}, {"time": 2047, "annotation": {"number": 64, "value": 127}, "group": "control_change"}, {"time": 2069, "annotation": {"number": 64, "value": 0}, "group": "control_change"}, {"time": 2071, "annotation": {"number": 64, "value": 127}, "group": "control_change"}, {"time": 2092, "annotation": {"number": 64, "value": 0}, "group": "control_change"}, {"time": 2094, "annotation": {"number": 64, "value": 127}, "group": "control_change"}, {"time": 2116, "annotation": {"number": 64, "value": 0}, "group": "control_change"}, {"time": 2117, "annotation": {"number": 64, "value": 127}, "group": "control_change"}, {"time": 2164, "annotation": {"number": 64, "value": 0}, "group": "control_change"}, {"time": 2167, "annotation": {"number": 64, "value": 127}, "group": "control_change"}, {"time": 2215, "annotation": {"number": 64, "value": 0}, "group": "control_change"}, {"time": 2217, "annotation": {"number": 64, "value": 127}, "group": "control_change"}, {"time": 2262, "annotation": {"number": 64, "value": 0}, "group": "control_change"}, {"time": 2266, "annotation": {"number": 64, "value": 127}, "group": "control_change"}, {"time": 2309, "annotation": {"number": 64, "value": 0}, "group": "control_change"}, {"time": 2312, "annotation": {"number": 64, "value": 127}, "group": "control_change"}, {"time": 2355, "annotation": {"number": 64, "value": 0}, "group": "control_change"}, {"time": 2360, "annotation": {"number": 64, "value": 127}, "group": "control_change"}, {"time": 2406, "annotation": {"number": 64, "value": 0}, "group": "control_change"}, {"time": 2409, "annotation": {"number": 64, "value": 127}, "group": "control_change"}, {"time": 2452, "annotation": {"number": 64, "value": 0}, "group": "control_change"}, {"time": 2459, "annotation": {"number": 64, "value": 127}, "group": "control_change"}, {"time": 2500, "annotation": {"number": 64, "value": 0}, "group": "control_change"}, {"time": 2504, "annotation": {"number": 64, "value": 127}, "group": "control_change"}, {"time": 2504, "annotation": {"number": 64, "value": 0}, "group": "control_change"}, {"time": 2549, "annotation": {"number": 64, "value": 0}, "group": "control_change"}, {"time": 2554, "annotation": {"number": 64, "value": 127}, "group": "control_change"}, {"time": 2597, "annotation": {"number": 64, "value": 0}, "group": "control_change"}, {"time": 2602, "annotation": {"number": 64, "value": 127}, "group": "control_change"}, {"time": 2645, "annotation": {"number": 64, "value": 0}, "group": "control_change"}, {"time": 2651, "annotation": {"number": 64, "value": 127}, "group": "control_change"}, {"time": 2692, "annotation": {"number": 64, "value": 0}, "group": "control_change"}, {"time": 2695, "annotation": {"number": 64, "value": 127}, "group": "control_change"}, {"time": 2740, "annotation": {"number": 64, "value": 0}, "group": "control_change"}, {"time": 2743, "annotation": {"number": 64, "value": 127}, "group": "control_change"}, {"time": 2788, "annotation": {"number": 64, "value": 0}, "group": "control_change"}, {"time": 2791, "annotation": {"number": 64, "value": 0}, "group": "control_change"}, {"time": 2791, "annotation": {"number": 64, "value": 127}, "group": "control_change"}, {"time": 2837, "annotation": {"number": 64, "value": 0}, "group": "control_change"}, {"time": 2840, "annotation": {"number": 64, "value": 127}, "group": "control_change"}, {"time": 2885, "annotation": {"number": 64, "value": 0}, "group": "control_change"}, {"time": 2887, "annotation": {"number": 64, "value": 127}, "group": "control_change"}, {"time": 2909, "annotation": {"number": 64, "value": 0}, "group": "control_change"}, {"time": 2911, "annotation": {"number": 64, "value": 127}, "group": "control_change"}, {"time": 2933, "annotation": {"number": 64, "value": 0}, "group": "control_change"}, {"time": 2936, "annotation": {"number": 64, "value": 127}, "group": "control_change"}, {"time": 2980, "annotation": {"number": 64, "value": 0}, "group": "control_change"}, {"time": 2983, "annotation": {"number": 64, "value": 127}, "group": "control_change"}, {"time": 3004, "annotation": {"number": 64, "value": 0}, "group": "control_change"}, {"time": 3007, "annotation": {"number": 64, "value": 127}, "group": "control_change"}, {"time": 3029, "annotation": {"number": 64, "value": 0}, "group": "control_change"}, {"time": 3030, "annotation": {"number": 64, "value": 127}, "group": "control_change"}, {"time": 3042, "annotation": {"number": 64, "value": 0}, "group": "control_change"}, {"time": 3043, "annotation": {"number": 64, "value": 127}, "group": "control_change"}, {"time": 3053, "annotation": {"number": 64, "value": 0}, "group": "control_change"}, {"time": 3055, "annotation": {"number": 64, "value": 127}, "group": "control_change"}, {"time": 3077, "annotation": {"number": 64, "value": 0}, "group": "control_change"}, {"time": 3079, "annotation": {"number": 64, "value": 127}, "group": "control_change"}, {"time": 3100, "annotation": {"number": 64, "value": 0}, "group": "control_change"}, {"time": 3102, "annotation": {"number": 64, "value": 127}, "group": "control_change"}, {"time": 3124, "annotation": {"number": 64, "value": 0}, "group": "control_change"}, {"time": 3125, "annotation": {"number": 64, "value": 127}, "group": "control_change"}, {"time": 3172, "annotation": {"number": 64, "value": 0}, "group": "control_change"}, {"time": 3175, "annotation": {"number": 64, "value": 0}, "group": "control_change"}, {"time": 3175, "annotation": {"number": 64, "value": 127}, "group": "control_change"}, {"time": 3221, "annotation": {"number": 64, "value": 0}, "group": "control_change"}, {"time": 3224, "annotation": {"number": 64, "value": 127}, "group": "control_change"}, {"time": 3269, "annotation": {"number": 64, "value": 0}, "group": "control_change"}, {"time": 3271, "annotation": {"number": 64, "value": 127}, "group": "control_change"}, {"time": 3293, "annotation": {"number": 64, "value": 0}, "group": "control_change"}, {"time": 3295, "annotation": {"number": 64, "value": 127}, "group": "control_change"}, {"time": 3317, "annotation": {"number": 64, "value": 0}, "group": "control_change"}, {"time": 3320, "annotation": {"number": 64, "value": 127}, "group": "control_change"}, {"time": 3364, "annotation": {"number": 64, "value": 0}, "group": "control_change"}, {"time": 3367, "annotation": {"number": 64, "value": 127}, "group": "control_change"}, {"time": 3388, "annotation": {"number": 64, "value": 0}, "group": "control_change"}, {"time": 3391, "annotation": {"number": 64, "value": 127}, "group": "control_change"}, {"time": 3413, "annotation": {"number": 64, "value": 0}, "group": "control_change"}, {"time": 3414, "annotation": {"number": 64, "value": 127}, "group": "control_change"}, {"time": 3426, "annotation": {"number": 64, "value": 0}, "group": "control_change"}, {"time": 3427, "annotation": {"number": 64, "value": 127}, "group": "control_change"}, {"time": 3437, "annotation": {"number": 64, "value": 0}, "group": "control_change"}, {"time": 3439, "annotation": {"number": 64, "value": 127}, "group": "control_change"}, {"time": 3461, "annotation": {"number": 64, "value": 0}, "group": "control_change"}, {"time": 3463, "annotation": {"number": 64, "value": 127}, "group": "control_change"}, {"time": 3484, "annotation": {"number": 64, "value": 0}, "group": "control_change"}, {"time": 3486, "annotation": {"number": 64, "value": 127}, "group": "control_change"}, {"time": 3508, "annotation": {"number": 64, "value": 0}, "group": "control_change"}, {"time": 3509, "annotation": {"number": 64, "value": 127}, "group": "control_change"}, {"time": 3556, "annotation": {"number": 64, "value": 0}, "group": "control_change"}, {"time": 3605, "annotation": {"number": 64, "value": 0}, "group": "control_change"}, {"time": 3609, "annotation": {"number": 64, "value": 127}, "group": "control_change"}, {"time": 3654, "annotation": {"number": 64, "value": 0}, "group": "control_change"}, {"time": 3657, "annotation": {"number": 64, "value": 127}, "group": "control_change"}, {"time": 3700, "annotation": {"number": 64, "value": 0}, "group": "control_change"}, {"time": 3703, "annotation": {"number": 64, "value": 127}, "group": "control_change"}, {"time": 3709, "annotation": {"number": 64, "value": 0}, "group": "control_change"}, {"time": 3711, "annotation": {"number": 64, "value": 127}, "group": "control_change"}, {"time": 3720, "annotation": {"number": 64, "value": 0}, "group": "control_change"}, {"time": 3739, "annotation": {"number": 64, "value": 127}, "group": "control_change"}, {"time": 3794, "annotation": {"number": 64, "value": 0}, "group": "control_change"}, {"time": 3799, "annotation": {"number": 64, "value": 0}, "group": "control_change"}, {"time": 3799, "annotation": {"number": 64, "value": 127}, "group": "control_change"}, {"time": 3845, "annotation": {"number": 64, "value": 0}, "group": "control_change"}, {"time": 3848, "annotation": {"number": 64, "value": 127}, "group": "control_change"}, {"time": 3893, "annotation": {"number": 64, "value": 0}, "group": "control_change"}, {"time": 3895, "annotation": {"number": 64, "value": 127}, "group": "control_change"}, {"time": 3917, "annotation": {"number": 64, "value": 0}, "group": "control_change"}, {"time": 3919, "annotation": {"number": 64, "value": 127}, "group": "control_change"}, {"time": 3941, "annotation": {"number": 64, "value": 0}, "group": "control_change"}, {"time": 3944, "annotation": {"number": 64, "value": 127}, "group": "control_change"}, {"time": 3988, "annotation": {"number": 64, "value": 0}, "group": "control_change"}, {"time": 3991, "annotation": {"number": 64, "value": 127}, "group": "control_change"}, {"time": 4012, "annotation": {"number": 64, "value": 0}, "group": "control_change"}, {"time": 4015, "annotation": {"number": 64, "value": 127}, "group": "control_change"}, {"time": 4037, "annotation": {"number": 64, "value": 0}, "group": "control_change"}, {"time": 4038, "annotation": {"number": 64, "value": 127}, "group": "control_change"}, {"time": 4050, "annotation": {"number": 64, "value": 0}, "group": "control_change"}, {"time": 4051, "annotation": {"number": 64, "value": 127}, "group": "control_change"}, {"time": 4061, "annotation": {"number": 64, "value": 0}, "group": "control_change"}, {"time": 4063, "annotation": {"number": 64, "value": 127}, "group": "control_change"}, {"time": 4085, "annotation": {"number": 64, "value": 0}, "group": "control_change"}, {"time": 4087, "annotation": {"number": 64, "value": 127}, "group": "control_change"}, {"time": 4108, "annotation": {"number": 64, "value": 0}, "group": "control_change"}, {"time": 4110, "annotation": {"number": 64, "value": 127}, "group": "control_change"}, {"time": 4132, "annotation": {"number": 64, "value": 0}, "group": "control_change"}, {"time": 4133, "annotation": {"number": 64, "value": 127}, "group": "control_change"}, {"time": 4180, "annotation": {"number": 64, "value": 0}, "group": "control_change"}, {"time": 4183, "annotation": {"number": 64, "value": 127}, "group": "control_change"}, {"time": 4231, "annotation": {"number": 64, "value": 0}, "group": "control_change"}, {"time": 4233, "annotation": {"number": 64, "value": 127}, "group": "control_change"}, {"time": 4278, "annotation": {"number": 64, "value": 0}, "group": "control_change"}, {"time": 4282, "annotation": {"number": 64, "value": 127}, "group": "control_change"}, {"time": 4325, "annotation": {"number": 64, "value": 0}, "group": "control_change"}, {"time": 4328, "annotation": {"number": 64, "value": 127}, "group": "control_change"}, {"time": 4371, "annotation": {"number": 64, "value": 0}, "group": "control_change"}, {"time": 4375, "annotation": {"number": 64, "value": 127}, "group": "control_change"}, {"time": 4423, "annotation": {"number": 64, "value": 0}, "group": "control_change"}, {"time": 4425, "annotation": {"number": 64, "value": 127}, "group": "control_change"}, {"time": 4470, "annotation": {"number": 64, "value": 0}, "group": "control_change"}, {"time": 4474, "annotation": {"number": 64, "value": 127}, "group": "control_change"}, {"time": 4517, "annotation": {"number": 64, "value": 0}, "group": "control_change"}, {"time": 4520, "annotation": {"number": 64, "value": 127}, "group": "control_change"}, {"time": 4563, "annotation": {"number": 64, "value": 0}, "group": "control_change"}]}]}