{"metadata": {"schema_version": "0.2", "title": "None", "source_filename": "441.mid", "source_format": "midi"}, "resolution": 12, "tempos": [{"time": 0, "qpm": 72.60011253017443}, {"time": 396, "qpm": 72.40002461600837}, {"time": 716, "qpm": 72.50001812500453}, {"time": 816, "qpm": 72.60011253017443}, {"time": 1163, "qpm": 72.50001812500453}, {"time": 1224, "qpm": 72.40002461600837}, {"time": 1372, "qpm": 72.60011253017443}, {"time": 1716, "qpm": 72.40002461600837}, {"time": 1920, "qpm": 72.60011253017443}, {"time": 2064, "qpm": 72.50001812500453}], "time_signatures": [{"time": 0, "numerator": 1, "denominator": 4}], "tracks": [{"program": 0, "is_drum": false, "name": "MELODY", "notes": [{"time": 426, "pitch": 80, "duration": 5, "velocity": 94}, {"time": 432, "pitch": 79, "duration": 4, "velocity": 100}, {"time": 438, "pitch": 77, "duration": 5, "velocity": 97}, {"time": 444, "pitch": 75, "duration": 3, "velocity": 98}, {"time": 447, "pitch": 72, "duration": 7, "velocity": 97}, {"time": 456, "pitch": 70, "duration": 5, "velocity": 93}, {"time": 462, "pitch": 72, "duration": 5, "velocity": 93}, {"time": 468, "pitch": 75, "duration": 2, "velocity": 98}, {"time": 471, "pitch": 72, "duration": 27, "velocity": 95}, {"time": 522, "pitch": 80, "duration": 5, "velocity": 97}, {"time": 528, "pitch": 79, "duration": 2, "velocity": 98}, {"time": 531, "pitch": 79, "duration": 3, "velocity": 107}, {"time": 534, "pitch": 77, "duration": 6, "velocity": 102}, {"time": 540, "pitch": 75, "duration": 2, "velocity": 96}, {"time": 543, "pitch": 72, "duration": 9, "velocity": 93}, {"time": 552, "pitch": 72, "duration": 6, "velocity": 93}, {"time": 558, "pitch": 72, "duration": 3, "velocity": 92}, {"time": 561, "pitch": 77, "duration": 9, "velocity": 98}, {"time": 570, "pitch": 75, "duration": 35, "velocity": 102}, {"time": 618, "pitch": 68, "duration": 2, "velocity": 76}, {"time": 621, "pitch": 68, "duration": 4, "velocity": 90}, {"time": 627, "pitch": 68, "duration": 2, "velocity": 86}, {"time": 630, "pitch": 68, "duration": 6, "velocity": 91}, {"time": 636, "pitch": 65, "duration": 6, "velocity": 93}, {"time": 642, "pitch": 68, "duration": 13, "velocity": 91}, {"time": 660, "pitch": 77, "duration": 5, "velocity": 93}, {"time": 666, "pitch": 75, "duration": 10, "velocity": 100}, {"time": 678, "pitch": 75, "duration": 9, "velocity": 96}, {"time": 687, "pitch": 77, "duration": 4, "velocity": 88}, {"time": 690, "pitch": 72, "duration": 19, "velocity": 97}, {"time": 714, "pitch": 72, "duration": 3, "velocity": 92}, {"time": 717, "pitch": 70, "duration": 2, "velocity": 87}, {"time": 720, "pitch": 70, "duration": 2, "velocity": 90}, {"time": 723, "pitch": 70, "duration": 22, "velocity": 89}, {"time": 747, "pitch": 77, "duration": 2, "velocity": 87}, {"time": 750, "pitch": 77, "duration": 5, "velocity": 95}, {"time": 756, "pitch": 77, "duration": 3, "velocity": 94}, {"time": 759, "pitch": 72, "duration": 4, "velocity": 98}, {"time": 762, "pitch": 77, "duration": 7, "velocity": 94}, {"time": 771, "pitch": 75, "duration": 27, "velocity": 95}, {"time": 810, "pitch": 80, "duration": 5, "velocity": 94}, {"time": 816, "pitch": 79, "duration": 4, "velocity": 100}, {"time": 822, "pitch": 77, "duration": 5, "velocity": 97}, {"time": 828, "pitch": 75, "duration": 3, "velocity": 98}, {"time": 831, "pitch": 72, "duration": 7, "velocity": 97}, {"time": 840, "pitch": 70, "duration": 5, "velocity": 93}, {"time": 846, "pitch": 72, "duration": 5, "velocity": 93}, {"time": 852, "pitch": 75, "duration": 2, "velocity": 98}, {"time": 855, "pitch": 72, "duration": 27, "velocity": 95}, {"time": 906, "pitch": 80, "duration": 5, "velocity": 97}, {"time": 912, "pitch": 79, "duration": 2, "velocity": 98}, {"time": 915, "pitch": 79, "duration": 3, "velocity": 107}, {"time": 918, "pitch": 77, "duration": 6, "velocity": 102}, {"time": 924, "pitch": 75, "duration": 2, "velocity": 96}, {"time": 927, "pitch": 72, "duration": 9, "velocity": 93}, {"time": 936, "pitch": 72, "duration": 6, "velocity": 93}, {"time": 942, "pitch": 72, "duration": 3, "velocity": 92}, {"time": 945, "pitch": 77, "duration": 9, "velocity": 98}, {"time": 954, "pitch": 75, "duration": 35, "velocity": 102}, {"time": 1002, "pitch": 68, "duration": 2, "velocity": 76}, {"time": 1005, "pitch": 68, "duration": 4, "velocity": 90}, {"time": 1011, "pitch": 68, "duration": 2, "velocity": 86}, {"time": 1014, "pitch": 68, "duration": 6, "velocity": 91}, {"time": 1020, "pitch": 65, "duration": 6, "velocity": 93}, {"time": 1026, "pitch": 68, "duration": 13, "velocity": 91}, {"time": 1044, "pitch": 77, "duration": 5, "velocity": 93}, {"time": 1050, "pitch": 75, "duration": 10, "velocity": 100}, {"time": 1062, "pitch": 75, "duration": 9, "velocity": 96}, {"time": 1071, "pitch": 77, "duration": 4, "velocity": 88}, {"time": 1074, "pitch": 72, "duration": 19, "velocity": 97}, {"time": 1098, "pitch": 72, "duration": 3, "velocity": 92}, {"time": 1101, "pitch": 70, "duration": 2, "velocity": 87}, {"time": 1104, "pitch": 70, "duration": 2, "velocity": 90}, {"time": 1110, "pitch": 70, "duration": 6, "velocity": 91}, {"time": 1116, "pitch": 68, "duration": 2, "velocity": 91}, {"time": 1119, "pitch": 70, "duration": 12, "velocity": 92}, {"time": 1134, "pitch": 72, "duration": 5, "velocity": 94}, {"time": 1140, "pitch": 70, "duration": 6, "velocity": 92}, {"time": 1146, "pitch": 68, "duration": 49, "velocity": 92}, {"time": 1233, "pitch": 75, "duration": 2, "velocity": 102}, {"time": 1236, "pitch": 75, "duration": 2, "velocity": 102}, {"time": 1239, "pitch": 75, "duration": 3, "velocity": 98}, {"time": 1242, "pitch": 82, "duration": 5, "velocity": 93}, {"time": 1248, "pitch": 80, "duration": 4, "velocity": 95}, {"time": 1254, "pitch": 82, "duration": 6, "velocity": 96}, {"time": 1260, "pitch": 80, "duration": 2, "velocity": 92}, {"time": 1263, "pitch": 82, "duration": 8, "velocity": 97}, {"time": 1272, "pitch": 80, "duration": 5, "velocity": 98}, {"time": 1278, "pitch": 82, "duration": 3, "velocity": 92}, {"time": 1281, "pitch": 84, "duration": 8, "velocity": 94}, {"time": 1290, "pitch": 75, "duration": 26, "velocity": 102}, {"time": 1329, "pitch": 72, "duration": 2, "velocity": 93}, {"time": 1332, "pitch": 72, "duration": 2, "velocity": 93}, {"time": 1335, "pitch": 75, "duration": 2, "velocity": 100}, {"time": 1338, "pitch": 82, "duration": 4, "velocity": 92}, {"time": 1344, "pitch": 80, "duration": 4, "velocity": 92}, {"time": 1350, "pitch": 82, "duration": 4, "velocity": 94}, {"time": 1356, "pitch": 80, "duration": 2, "velocity": 87}, {"time": 1359, "pitch": 82, "duration": 8, "velocity": 93}, {"time": 1368, "pitch": 80, "duration": 5, "velocity": 97}, {"time": 1374, "pitch": 80, "duration": 3, "velocity": 92}, {"time": 1377, "pitch": 72, "duration": 6, "velocity": 92}, {"time": 1386, "pitch": 75, "duration": 36, "velocity": 97}, {"time": 1434, "pitch": 77, "duration": 5, "velocity": 94}, {"time": 1440, "pitch": 77, "duration": 4, "velocity": 95}, {"time": 1446, "pitch": 77, "duration": 5, "velocity": 95}, {"time": 1452, "pitch": 72, "duration": 2, "velocity": 97}, {"time": 1455, "pitch": 72, "duration": 17, "velocity": 96}, {"time": 1476, "pitch": 70, "duration": 3, "velocity": 95}, {"time": 1479, "pitch": 68, "duration": 2, "velocity": 92}, {"time": 1482, "pitch": 72, "duration": 4, "velocity": 95}, {"time": 1488, "pitch": 75, "duration": 4, "velocity": 100}, {"time": 1494, "pitch": 75, "duration": 2, "velocity": 96}, {"time": 1497, "pitch": 77, "duration": 8, "velocity": 95}, {"time": 1506, "pitch": 72, "duration": 18, "velocity": 93}, {"time": 1530, "pitch": 72, "duration": 3, "velocity": 97}, {"time": 1533, "pitch": 70, "duration": 2, "velocity": 87}, {"time": 1536, "pitch": 70, "duration": 2, "velocity": 91}, {"time": 1539, "pitch": 70, "duration": 2, "velocity": 91}, {"time": 1542, "pitch": 70, "duration": 5, "velocity": 91}, {"time": 1548, "pitch": 68, "duration": 2, "velocity": 90}, {"time": 1551, "pitch": 70, "duration": 7, "velocity": 92}, {"time": 1560, "pitch": 70, "duration": 4, "velocity": 92}, {"time": 1566, "pitch": 70, "duration": 2, "velocity": 92}, {"time": 1569, "pitch": 72, "duration": 8, "velocity": 93}, {"time": 1578, "pitch": 68, "duration": 47, "velocity": 93}, {"time": 1914, "pitch": 80, "duration": 5, "velocity": 94}, {"time": 1920, "pitch": 79, "duration": 4, "velocity": 100}, {"time": 1926, "pitch": 77, "duration": 5, "velocity": 97}, {"time": 1932, "pitch": 75, "duration": 3, "velocity": 98}, {"time": 1935, "pitch": 72, "duration": 7, "velocity": 97}, {"time": 1944, "pitch": 70, "duration": 5, "velocity": 93}, {"time": 1950, "pitch": 72, "duration": 5, "velocity": 93}, {"time": 1956, "pitch": 75, "duration": 2, "velocity": 98}, {"time": 1959, "pitch": 72, "duration": 27, "velocity": 95}, {"time": 2010, "pitch": 80, "duration": 5, "velocity": 97}, {"time": 2016, "pitch": 79, "duration": 2, "velocity": 98}, {"time": 2019, "pitch": 79, "duration": 3, "velocity": 107}, {"time": 2022, "pitch": 77, "duration": 6, "velocity": 102}, {"time": 2028, "pitch": 75, "duration": 2, "velocity": 96}, {"time": 2031, "pitch": 72, "duration": 9, "velocity": 93}, {"time": 2040, "pitch": 72, "duration": 6, "velocity": 93}, {"time": 2046, "pitch": 72, "duration": 3, "velocity": 92}, {"time": 2049, "pitch": 77, "duration": 9, "velocity": 98}, {"time": 2058, "pitch": 75, "duration": 35, "velocity": 102}, {"time": 2106, "pitch": 68, "duration": 2, "velocity": 76}, {"time": 2109, "pitch": 68, "duration": 4, "velocity": 90}, {"time": 2115, "pitch": 68, "duration": 2, "velocity": 86}, {"time": 2118, "pitch": 68, "duration": 6, "velocity": 91}, {"time": 2124, "pitch": 65, "duration": 6, "velocity": 93}, {"time": 2130, "pitch": 68, "duration": 13, "velocity": 91}, {"time": 2148, "pitch": 77, "duration": 5, "velocity": 93}, {"time": 2154, "pitch": 75, "duration": 10, "velocity": 100}, {"time": 2166, "pitch": 75, "duration": 9, "velocity": 96}, {"time": 2175, "pitch": 77, "duration": 4, "velocity": 88}, {"time": 2178, "pitch": 72, "duration": 19, "velocity": 97}, {"time": 2202, "pitch": 72, "duration": 3, "velocity": 92}, {"time": 2205, "pitch": 70, "duration": 2, "velocity": 87}, {"time": 2208, "pitch": 70, "duration": 2, "velocity": 90}, {"time": 2211, "pitch": 70, "duration": 22, "velocity": 89}, {"time": 2235, "pitch": 77, "duration": 2, "velocity": 87}, {"time": 2238, "pitch": 77, "duration": 5, "velocity": 95}, {"time": 2244, "pitch": 77, "duration": 3, "velocity": 94}, {"time": 2247, "pitch": 72, "duration": 4, "velocity": 98}, {"time": 2250, "pitch": 77, "duration": 7, "velocity": 94}, {"time": 2259, "pitch": 75, "duration": 27, "velocity": 95}, {"time": 2298, "pitch": 80, "duration": 5, "velocity": 94}, {"time": 2304, "pitch": 79, "duration": 4, "velocity": 100}, {"time": 2310, "pitch": 77, "duration": 5, "velocity": 97}, {"time": 2316, "pitch": 75, "duration": 3, "velocity": 98}, {"time": 2319, "pitch": 72, "duration": 7, "velocity": 97}, {"time": 2328, "pitch": 70, "duration": 5, "velocity": 93}, {"time": 2334, "pitch": 72, "duration": 5, "velocity": 93}, {"time": 2340, "pitch": 75, "duration": 2, "velocity": 98}, {"time": 2343, "pitch": 72, "duration": 27, "velocity": 95}, {"time": 2394, "pitch": 80, "duration": 5, "velocity": 97}, {"time": 2400, "pitch": 79, "duration": 2, "velocity": 98}, {"time": 2403, "pitch": 79, "duration": 3, "velocity": 107}, {"time": 2406, "pitch": 77, "duration": 6, "velocity": 102}, {"time": 2412, "pitch": 75, "duration": 2, "velocity": 96}, {"time": 2415, "pitch": 72, "duration": 9, "velocity": 93}, {"time": 2424, "pitch": 72, "duration": 6, "velocity": 93}, {"time": 2430, "pitch": 72, "duration": 3, "velocity": 92}, {"time": 2433, "pitch": 77, "duration": 9, "velocity": 98}, {"time": 2442, "pitch": 75, "duration": 35, "velocity": 102}, {"time": 2490, "pitch": 68, "duration": 2, "velocity": 76}, {"time": 2493, "pitch": 68, "duration": 4, "velocity": 90}, {"time": 2499, "pitch": 68, "duration": 2, "velocity": 86}, {"time": 2502, "pitch": 68, "duration": 6, "velocity": 91}, {"time": 2508, "pitch": 65, "duration": 6, "velocity": 93}, {"time": 2514, "pitch": 68, "duration": 13, "velocity": 91}, {"time": 2532, "pitch": 77, "duration": 5, "velocity": 93}, {"time": 2538, "pitch": 75, "duration": 10, "velocity": 100}, {"time": 2550, "pitch": 75, "duration": 9, "velocity": 96}, {"time": 2559, "pitch": 77, "duration": 4, "velocity": 88}, {"time": 2562, "pitch": 72, "duration": 19, "velocity": 97}, {"time": 2586, "pitch": 72, "duration": 3, "velocity": 92}, {"time": 2589, "pitch": 70, "duration": 2, "velocity": 87}, {"time": 2592, "pitch": 70, "duration": 2, "velocity": 90}, {"time": 2598, "pitch": 70, "duration": 6, "velocity": 91}, {"time": 2604, "pitch": 68, "duration": 2, "velocity": 91}, {"time": 2607, "pitch": 70, "duration": 12, "velocity": 92}, {"time": 2622, "pitch": 72, "duration": 5, "velocity": 94}, {"time": 2628, "pitch": 70, "duration": 6, "velocity": 92}, {"time": 2634, "pitch": 68, "duration": 49, "velocity": 92}, {"time": 2721, "pitch": 75, "duration": 2, "velocity": 102}, {"time": 2724, "pitch": 75, "duration": 2, "velocity": 102}, {"time": 2727, "pitch": 75, "duration": 3, "velocity": 98}, {"time": 2730, "pitch": 82, "duration": 5, "velocity": 93}, {"time": 2736, "pitch": 80, "duration": 4, "velocity": 95}, {"time": 2742, "pitch": 82, "duration": 6, "velocity": 96}, {"time": 2748, "pitch": 80, "duration": 2, "velocity": 92}, {"time": 2751, "pitch": 82, "duration": 8, "velocity": 97}, {"time": 2760, "pitch": 80, "duration": 5, "velocity": 98}, {"time": 2766, "pitch": 82, "duration": 3, "velocity": 92}, {"time": 2769, "pitch": 84, "duration": 8, "velocity": 94}, {"time": 2778, "pitch": 75, "duration": 26, "velocity": 102}, {"time": 2817, "pitch": 72, "duration": 2, "velocity": 93}, {"time": 2820, "pitch": 72, "duration": 2, "velocity": 93}, {"time": 2823, "pitch": 75, "duration": 2, "velocity": 100}, {"time": 2826, "pitch": 82, "duration": 4, "velocity": 92}, {"time": 2832, "pitch": 80, "duration": 4, "velocity": 92}, {"time": 2838, "pitch": 82, "duration": 4, "velocity": 94}, {"time": 2844, "pitch": 80, "duration": 2, "velocity": 87}, {"time": 2847, "pitch": 82, "duration": 8, "velocity": 93}, {"time": 2856, "pitch": 80, "duration": 5, "velocity": 97}, {"time": 2862, "pitch": 80, "duration": 3, "velocity": 92}, {"time": 2865, "pitch": 72, "duration": 6, "velocity": 92}, {"time": 2874, "pitch": 75, "duration": 36, "velocity": 97}, {"time": 2922, "pitch": 77, "duration": 5, "velocity": 94}, {"time": 2928, "pitch": 77, "duration": 4, "velocity": 95}, {"time": 2934, "pitch": 77, "duration": 5, "velocity": 95}, {"time": 2940, "pitch": 72, "duration": 2, "velocity": 97}, {"time": 2943, "pitch": 72, "duration": 17, "velocity": 96}, {"time": 2964, "pitch": 70, "duration": 3, "velocity": 95}, {"time": 2967, "pitch": 68, "duration": 2, "velocity": 92}, {"time": 2970, "pitch": 72, "duration": 4, "velocity": 95}, {"time": 2976, "pitch": 75, "duration": 4, "velocity": 100}, {"time": 2982, "pitch": 75, "duration": 2, "velocity": 96}, {"time": 2985, "pitch": 77, "duration": 8, "velocity": 95}, {"time": 2994, "pitch": 72, "duration": 18, "velocity": 93}, {"time": 3018, "pitch": 72, "duration": 3, "velocity": 97}, {"time": 3021, "pitch": 70, "duration": 2, "velocity": 87}, {"time": 3024, "pitch": 70, "duration": 2, "velocity": 91}, {"time": 3027, "pitch": 70, "duration": 2, "velocity": 91}, {"time": 3030, "pitch": 70, "duration": 5, "velocity": 91}, {"time": 3036, "pitch": 68, "duration": 2, "velocity": 90}, {"time": 3039, "pitch": 70, "duration": 7, "velocity": 92}, {"time": 3048, "pitch": 70, "duration": 4, "velocity": 92}, {"time": 3054, "pitch": 70, "duration": 2, "velocity": 92}, {"time": 3057, "pitch": 72, "duration": 8, "velocity": 93}, {"time": 3066, "pitch": 68, "duration": 47, "velocity": 93}, {"time": 3153, "pitch": 75, "duration": 2, "velocity": 102}, {"time": 3156, "pitch": 75, "duration": 2, "velocity": 102}, {"time": 3159, "pitch": 75, "duration": 3, "velocity": 98}, {"time": 3162, "pitch": 82, "duration": 5, "velocity": 93}, {"time": 3168, "pitch": 80, "duration": 4, "velocity": 95}, {"time": 3174, "pitch": 82, "duration": 6, "velocity": 96}, {"time": 3180, "pitch": 80, "duration": 2, "velocity": 92}, {"time": 3183, "pitch": 82, "duration": 8, "velocity": 97}, {"time": 3192, "pitch": 80, "duration": 5, "velocity": 98}, {"time": 3198, "pitch": 82, "duration": 3, "velocity": 92}, {"time": 3201, "pitch": 84, "duration": 8, "velocity": 94}, {"time": 3210, "pitch": 75, "duration": 26, "velocity": 102}, {"time": 3249, "pitch": 72, "duration": 2, "velocity": 93}, {"time": 3252, "pitch": 72, "duration": 2, "velocity": 93}, {"time": 3255, "pitch": 75, "duration": 2, "velocity": 100}, {"time": 3258, "pitch": 82, "duration": 4, "velocity": 92}, {"time": 3264, "pitch": 80, "duration": 4, "velocity": 92}, {"time": 3270, "pitch": 82, "duration": 4, "velocity": 94}, {"time": 3276, "pitch": 80, "duration": 2, "velocity": 87}, {"time": 3279, "pitch": 82, "duration": 8, "velocity": 93}, {"time": 3288, "pitch": 80, "duration": 5, "velocity": 97}, {"time": 3294, "pitch": 80, "duration": 3, "velocity": 92}, {"time": 3297, "pitch": 72, "duration": 6, "velocity": 92}, {"time": 3306, "pitch": 75, "duration": 36, "velocity": 97}, {"time": 3354, "pitch": 77, "duration": 5, "velocity": 94}, {"time": 3360, "pitch": 77, "duration": 4, "velocity": 95}, {"time": 3366, "pitch": 77, "duration": 5, "velocity": 95}, {"time": 3372, "pitch": 72, "duration": 2, "velocity": 97}, {"time": 3375, "pitch": 72, "duration": 17, "velocity": 96}, {"time": 3396, "pitch": 70, "duration": 3, "velocity": 95}, {"time": 3399, "pitch": 68, "duration": 2, "velocity": 92}, {"time": 3402, "pitch": 72, "duration": 4, "velocity": 95}, {"time": 3408, "pitch": 75, "duration": 4, "velocity": 100}, {"time": 3414, "pitch": 75, "duration": 2, "velocity": 96}, {"time": 3417, "pitch": 77, "duration": 8, "velocity": 95}, {"time": 3426, "pitch": 72, "duration": 18, "velocity": 93}, {"time": 3450, "pitch": 72, "duration": 3, "velocity": 97}, {"time": 3453, "pitch": 70, "duration": 2, "velocity": 87}, {"time": 3456, "pitch": 70, "duration": 2, "velocity": 91}, {"time": 3459, "pitch": 70, "duration": 2, "velocity": 91}, {"time": 3462, "pitch": 70, "duration": 5, "velocity": 91}, {"time": 3468, "pitch": 68, "duration": 2, "velocity": 90}, {"time": 3471, "pitch": 70, "duration": 7, "velocity": 92}, {"time": 3480, "pitch": 70, "duration": 4, "velocity": 92}, {"time": 3486, "pitch": 70, "duration": 2, "velocity": 92}, {"time": 3489, "pitch": 72, "duration": 8, "velocity": 93}, {"time": 3498, "pitch": 68, "duration": 47, "velocity": 93}, {"time": 3585, "pitch": 75, "duration": 2, "velocity": 102}, {"time": 3588, "pitch": 75, "duration": 2, "velocity": 102}, {"time": 3591, "pitch": 75, "duration": 3, "velocity": 98}, {"time": 3594, "pitch": 82, "duration": 5, "velocity": 93}, {"time": 3600, "pitch": 80, "duration": 4, "velocity": 95}, {"time": 3606, "pitch": 82, "duration": 6, "velocity": 96}, {"time": 3612, "pitch": 80, "duration": 2, "velocity": 92}, {"time": 3615, "pitch": 82, "duration": 8, "velocity": 97}, {"time": 3624, "pitch": 80, "duration": 5, "velocity": 98}, {"time": 3630, "pitch": 82, "duration": 3, "velocity": 92}, {"time": 3633, "pitch": 84, "duration": 8, "velocity": 94}, {"time": 3642, "pitch": 75, "duration": 26, "velocity": 102}, {"time": 3681, "pitch": 72, "duration": 2, "velocity": 93}, {"time": 3684, "pitch": 72, "duration": 2, "velocity": 93}, {"time": 3687, "pitch": 75, "duration": 2, "velocity": 100}, {"time": 3690, "pitch": 82, "duration": 4, "velocity": 92}, {"time": 3696, "pitch": 80, "duration": 4, "velocity": 92}, {"time": 3702, "pitch": 82, "duration": 4, "velocity": 94}, {"time": 3708, "pitch": 80, "duration": 2, "velocity": 87}, {"time": 3711, "pitch": 82, "duration": 8, "velocity": 93}, {"time": 3720, "pitch": 80, "duration": 5, "velocity": 97}, {"time": 3726, "pitch": 80, "duration": 3, "velocity": 92}, {"time": 3729, "pitch": 72, "duration": 6, "velocity": 92}, {"time": 3738, "pitch": 75, "duration": 36, "velocity": 97}]}, {"program": 0, "is_drum": false, "name": "BRIDGE", "notes": [{"time": 36, "pitch": 75, "duration": 5, "velocity": 108}, {"time": 42, "pitch": 82, "duration": 5, "velocity": 96}, {"time": 48, "pitch": 80, "duration": 5, "velocity": 96}, {"time": 54, "pitch": 82, "duration": 5, "velocity": 97}, {"time": 60, "pitch": 84, "duration": 3, "velocity": 95}, {"time": 63, "pitch": 75, "duration": 21, "velocity": 102}, {"time": 87, "pitch": 75, "duration": 2, "velocity": 93}, {"time": 90, "pitch": 82, "duration": 5, "velocity": 102}, {"time": 96, "pitch": 80, "duration": 5, "velocity": 94}, {"time": 102, "pitch": 82, "duration": 5, "velocity": 95}, {"time": 108, "pitch": 87, "duration": 3, "velocity": 96}, {"time": 111, "pitch": 84, "duration": 18, "velocity": 92}, {"time": 132, "pitch": 75, "duration": 5, "velocity": 105}, {"time": 138, "pitch": 77, "duration": 5, "velocity": 95}, {"time": 144, "pitch": 80, "duration": 4, "velocity": 92}, {"time": 150, "pitch": 80, "duration": 5, "velocity": 96}, {"time": 156, "pitch": 75, "duration": 2, "velocity": 100}, {"time": 159, "pitch": 75, "duration": 2, "velocity": 93}, {"time": 162, "pitch": 77, "duration": 6, "velocity": 97}, {"time": 168, "pitch": 80, "duration": 2, "velocity": 94}, {"time": 171, "pitch": 80, "duration": 7, "velocity": 96}, {"time": 177, "pitch": 77, "duration": 3, "velocity": 95}, {"time": 180, "pitch": 80, "duration": 3, "velocity": 92}, {"time": 183, "pitch": 77, "duration": 2, "velocity": 98}, {"time": 186, "pitch": 84, "duration": 5, "velocity": 98}, {"time": 192, "pitch": 82, "duration": 4, "velocity": 97}, {"time": 198, "pitch": 82, "duration": 6, "velocity": 94}, {"time": 204, "pitch": 80, "duration": 2, "velocity": 93}, {"time": 207, "pitch": 82, "duration": 18, "velocity": 98}, {"time": 228, "pitch": 75, "duration": 2, "velocity": 98}, {"time": 231, "pitch": 75, "duration": 3, "velocity": 95}, {"time": 234, "pitch": 82, "duration": 5, "velocity": 95}, {"time": 240, "pitch": 80, "duration": 5, "velocity": 95}, {"time": 246, "pitch": 82, "duration": 5, "velocity": 97}, {"time": 252, "pitch": 84, "duration": 2, "velocity": 93}, {"time": 255, "pitch": 75, "duration": 17, "velocity": 102}, {"time": 276, "pitch": 75, "duration": 2, "velocity": 108}, {"time": 279, "pitch": 75, "duration": 3, "velocity": 96}, {"time": 282, "pitch": 82, "duration": 5, "velocity": 95}, {"time": 288, "pitch": 80, "duration": 5, "velocity": 93}, {"time": 294, "pitch": 82, "duration": 5, "velocity": 95}, {"time": 300, "pitch": 87, "duration": 2, "velocity": 93}, {"time": 303, "pitch": 84, "duration": 16, "velocity": 97}, {"time": 324, "pitch": 75, "duration": 2, "velocity": 98}, {"time": 327, "pitch": 75, "duration": 3, "velocity": 95}, {"time": 330, "pitch": 77, "duration": 6, "velocity": 96}, {"time": 336, "pitch": 80, "duration": 5, "velocity": 94}, {"time": 342, "pitch": 80, "duration": 5, "velocity": 97}, {"time": 348, "pitch": 77, "duration": 2, "velocity": 95}, {"time": 351, "pitch": 80, "duration": 2, "velocity": 93}, {"time": 354, "pitch": 85, "duration": 5, "velocity": 98}, {"time": 360, "pitch": 84, "duration": 5, "velocity": 98}, {"time": 366, "pitch": 82, "duration": 12, "velocity": 95}, {"time": 378, "pitch": 80, "duration": 46, "velocity": 95}, {"time": 510, "pitch": 79, "duration": 4, "velocity": 95}, {"time": 513, "pitch": 80, "duration": 4, "velocity": 91}, {"time": 516, "pitch": 79, "duration": 3, "velocity": 105}, {"time": 519, "pitch": 75, "duration": 3, "velocity": 92}, {"time": 522, "pitch": 77, "duration": 19, "velocity": 91}, {"time": 606, "pitch": 82, "duration": 5, "velocity": 93}, {"time": 612, "pitch": 84, "duration": 6, "velocity": 93}, {"time": 618, "pitch": 80, "duration": 31, "velocity": 93}, {"time": 702, "pitch": 79, "duration": 4, "velocity": 95}, {"time": 705, "pitch": 80, "duration": 4, "velocity": 94}, {"time": 708, "pitch": 79, "duration": 3, "velocity": 97}, {"time": 711, "pitch": 75, "duration": 3, "velocity": 102}, {"time": 714, "pitch": 77, "duration": 31, "velocity": 95}, {"time": 798, "pitch": 87, "duration": 6, "velocity": 97}, {"time": 804, "pitch": 82, "duration": 7, "velocity": 92}, {"time": 810, "pitch": 84, "duration": 48, "velocity": 93}, {"time": 858, "pitch": 87, "duration": 22, "velocity": 92}, {"time": 882, "pitch": 79, "duration": 6, "velocity": 88}, {"time": 888, "pitch": 80, "duration": 4, "velocity": 86}, {"time": 891, "pitch": 82, "duration": 4, "velocity": 85}, {"time": 894, "pitch": 84, "duration": 5, "velocity": 90}, {"time": 897, "pitch": 92, "duration": 3, "velocity": 96}, {"time": 900, "pitch": 91, "duration": 3, "velocity": 92}, {"time": 903, "pitch": 87, "duration": 3, "velocity": 92}, {"time": 906, "pitch": 89, "duration": 45, "velocity": 92}, {"time": 966, "pitch": 79, "duration": 14, "velocity": 92}, {"time": 978, "pitch": 80, "duration": 9, "velocity": 88}, {"time": 990, "pitch": 82, "duration": 11, "velocity": 92}, {"time": 1002, "pitch": 80, "duration": 38, "velocity": 89}, {"time": 1050, "pitch": 84, "duration": 27, "velocity": 92}, {"time": 1080, "pitch": 82, "duration": 6, "velocity": 91}, {"time": 1086, "pitch": 80, "duration": 6, "velocity": 93}, {"time": 1092, "pitch": 79, "duration": 5, "velocity": 93}, {"time": 1098, "pitch": 77, "duration": 24, "velocity": 93}, {"time": 1122, "pitch": 79, "duration": 22, "velocity": 87}, {"time": 1146, "pitch": 80, "duration": 36, "velocity": 91}, {"time": 1182, "pitch": 89, "duration": 10, "velocity": 93}, {"time": 1188, "pitch": 63, "duration": 4, "velocity": 91}, {"time": 1190, "pitch": 65, "duration": 3, "velocity": 92}, {"time": 1192, "pitch": 67, "duration": 3, "velocity": 79}, {"time": 1194, "pitch": 68, "duration": 3, "velocity": 87}, {"time": 1194, "pitch": 87, "duration": 36, "velocity": 97}, {"time": 1200, "pitch": 67, "duration": 2, "velocity": 87}, {"time": 1202, "pitch": 68, "duration": 3, "velocity": 76}, {"time": 1204, "pitch": 70, "duration": 2, "velocity": 84}, {"time": 1206, "pitch": 72, "duration": 2, "velocity": 92}, {"time": 1212, "pitch": 68, "duration": 3, "velocity": 81}, {"time": 1214, "pitch": 70, "duration": 3, "velocity": 84}, {"time": 1216, "pitch": 72, "duration": 2, "velocity": 89}, {"time": 1218, "pitch": 75, "duration": 2, "velocity": 93}, {"time": 1220, "pitch": 73, "duration": 3, "velocity": 69}, {"time": 1222, "pitch": 72, "duration": 2, "velocity": 81}, {"time": 1224, "pitch": 75, "duration": 2, "velocity": 85}, {"time": 1226, "pitch": 77, "duration": 3, "velocity": 87}, {"time": 1228, "pitch": 79, "duration": 2, "velocity": 87}, {"time": 1230, "pitch": 80, "duration": 2, "velocity": 91}, {"time": 1232, "pitch": 79, "duration": 2, "velocity": 92}, {"time": 1234, "pitch": 77, "duration": 3, "velocity": 87}, {"time": 1236, "pitch": 79, "duration": 3, "velocity": 79}, {"time": 1238, "pitch": 80, "duration": 3, "velocity": 80}, {"time": 1240, "pitch": 82, "duration": 2, "velocity": 83}, {"time": 1242, "pitch": 84, "duration": 48, "velocity": 84}, {"time": 1302, "pitch": 87, "duration": 10, "velocity": 95}, {"time": 1314, "pitch": 84, "duration": 10, "velocity": 97}, {"time": 1326, "pitch": 82, "duration": 10, "velocity": 98}, {"time": 1338, "pitch": 80, "duration": 47, "velocity": 93}, {"time": 1386, "pitch": 79, "duration": 19, "velocity": 94}, {"time": 1404, "pitch": 75, "duration": 8, "velocity": 93}, {"time": 1410, "pitch": 72, "duration": 8, "velocity": 91}, {"time": 1416, "pitch": 75, "duration": 7, "velocity": 92}, {"time": 1422, "pitch": 80, "duration": 7, "velocity": 89}, {"time": 1428, "pitch": 79, "duration": 6, "velocity": 88}, {"time": 1434, "pitch": 77, "duration": 30, "velocity": 98}, {"time": 1482, "pitch": 79, "duration": 22, "velocity": 92}, {"time": 1506, "pitch": 80, "duration": 24, "velocity": 91}, {"time": 1530, "pitch": 82, "duration": 44, "velocity": 91}, {"time": 1578, "pitch": 75, "duration": 31, "velocity": 82}, {"time": 1578, "pitch": 80, "duration": 39, "velocity": 82}, {"time": 1614, "pitch": 70, "duration": 4, "velocity": 93}, {"time": 1617, "pitch": 72, "duration": 4, "velocity": 93}, {"time": 1620, "pitch": 73, "duration": 4, "velocity": 94}, {"time": 1623, "pitch": 75, "duration": 5, "velocity": 92}, {"time": 1626, "pitch": 77, "duration": 5, "velocity": 97}, {"time": 1632, "pitch": 80, "duration": 2, "velocity": 93}, {"time": 1635, "pitch": 80, "duration": 32, "velocity": 92}, {"time": 1668, "pitch": 79, "duration": 3, "velocity": 96}, {"time": 1671, "pitch": 77, "duration": 3, "velocity": 93}, {"time": 1674, "pitch": 79, "duration": 17, "velocity": 100}, {"time": 1692, "pitch": 82, "duration": 7, "velocity": 93}, {"time": 1698, "pitch": 75, "duration": 15, "velocity": 102}, {"time": 1713, "pitch": 72, "duration": 4, "velocity": 93}, {"time": 1716, "pitch": 73, "duration": 3, "velocity": 92}, {"time": 1719, "pitch": 75, "duration": 4, "velocity": 93}, {"time": 1722, "pitch": 77, "duration": 6, "velocity": 96}, {"time": 1728, "pitch": 80, "duration": 2, "velocity": 93}, {"time": 1731, "pitch": 80, "duration": 21, "velocity": 93}, {"time": 1752, "pitch": 77, "duration": 7, "velocity": 95}, {"time": 1758, "pitch": 80, "duration": 7, "velocity": 94}, {"time": 1764, "pitch": 84, "duration": 7, "velocity": 96}, {"time": 1770, "pitch": 82, "duration": 24, "velocity": 92}, {"time": 1794, "pitch": 80, "duration": 7, "velocity": 91}, {"time": 1800, "pitch": 79, "duration": 13, "velocity": 91}, {"time": 1812, "pitch": 77, "duration": 4, "velocity": 94}, {"time": 1815, "pitch": 79, "duration": 4, "velocity": 93}, {"time": 1818, "pitch": 80, "duration": 96, "velocity": 96}, {"time": 1998, "pitch": 79, "duration": 4, "velocity": 95}, {"time": 2001, "pitch": 80, "duration": 4, "velocity": 91}, {"time": 2004, "pitch": 79, "duration": 3, "velocity": 105}, {"time": 2007, "pitch": 75, "duration": 3, "velocity": 92}, {"time": 2010, "pitch": 77, "duration": 19, "velocity": 91}, {"time": 2094, "pitch": 82, "duration": 5, "velocity": 93}, {"time": 2100, "pitch": 84, "duration": 6, "velocity": 93}, {"time": 2106, "pitch": 80, "duration": 31, "velocity": 93}, {"time": 2190, "pitch": 79, "duration": 4, "velocity": 95}, {"time": 2193, "pitch": 80, "duration": 4, "velocity": 94}, {"time": 2196, "pitch": 79, "duration": 3, "velocity": 97}, {"time": 2199, "pitch": 75, "duration": 3, "velocity": 102}, {"time": 2202, "pitch": 77, "duration": 31, "velocity": 95}, {"time": 2286, "pitch": 87, "duration": 6, "velocity": 97}, {"time": 2292, "pitch": 82, "duration": 7, "velocity": 92}, {"time": 2298, "pitch": 84, "duration": 48, "velocity": 93}, {"time": 2346, "pitch": 87, "duration": 22, "velocity": 92}, {"time": 2370, "pitch": 79, "duration": 6, "velocity": 88}, {"time": 2376, "pitch": 80, "duration": 4, "velocity": 86}, {"time": 2379, "pitch": 82, "duration": 4, "velocity": 85}, {"time": 2382, "pitch": 84, "duration": 5, "velocity": 90}, {"time": 2385, "pitch": 92, "duration": 3, "velocity": 96}, {"time": 2388, "pitch": 91, "duration": 3, "velocity": 92}, {"time": 2391, "pitch": 87, "duration": 3, "velocity": 92}, {"time": 2394, "pitch": 89, "duration": 45, "velocity": 92}, {"time": 2454, "pitch": 79, "duration": 14, "velocity": 92}, {"time": 2466, "pitch": 80, "duration": 9, "velocity": 88}, {"time": 2478, "pitch": 82, "duration": 11, "velocity": 92}, {"time": 2490, "pitch": 80, "duration": 38, "velocity": 89}, {"time": 2538, "pitch": 84, "duration": 27, "velocity": 92}, {"time": 2568, "pitch": 82, "duration": 6, "velocity": 91}, {"time": 2574, "pitch": 80, "duration": 6, "velocity": 93}, {"time": 2580, "pitch": 79, "duration": 5, "velocity": 93}, {"time": 2586, "pitch": 77, "duration": 24, "velocity": 93}, {"time": 2610, "pitch": 79, "duration": 22, "velocity": 87}, {"time": 2634, "pitch": 80, "duration": 36, "velocity": 91}, {"time": 2670, "pitch": 89, "duration": 10, "velocity": 93}, {"time": 2676, "pitch": 63, "duration": 4, "velocity": 91}, {"time": 2678, "pitch": 65, "duration": 3, "velocity": 92}, {"time": 2680, "pitch": 67, "duration": 3, "velocity": 79}, {"time": 2682, "pitch": 68, "duration": 3, "velocity": 87}, {"time": 2682, "pitch": 87, "duration": 36, "velocity": 97}, {"time": 2688, "pitch": 67, "duration": 2, "velocity": 87}, {"time": 2690, "pitch": 68, "duration": 3, "velocity": 76}, {"time": 2692, "pitch": 70, "duration": 2, "velocity": 84}, {"time": 2694, "pitch": 72, "duration": 2, "velocity": 92}, {"time": 2700, "pitch": 68, "duration": 3, "velocity": 81}, {"time": 2702, "pitch": 70, "duration": 3, "velocity": 84}, {"time": 2704, "pitch": 72, "duration": 2, "velocity": 89}, {"time": 2706, "pitch": 75, "duration": 2, "velocity": 93}, {"time": 2708, "pitch": 73, "duration": 3, "velocity": 69}, {"time": 2710, "pitch": 72, "duration": 2, "velocity": 81}, {"time": 2712, "pitch": 75, "duration": 2, "velocity": 85}, {"time": 2714, "pitch": 77, "duration": 3, "velocity": 87}, {"time": 2716, "pitch": 79, "duration": 2, "velocity": 87}, {"time": 2718, "pitch": 80, "duration": 2, "velocity": 91}, {"time": 2720, "pitch": 79, "duration": 2, "velocity": 92}, {"time": 2722, "pitch": 77, "duration": 3, "velocity": 87}, {"time": 2724, "pitch": 79, "duration": 3, "velocity": 79}, {"time": 2726, "pitch": 80, "duration": 3, "velocity": 80}, {"time": 2728, "pitch": 82, "duration": 2, "velocity": 83}, {"time": 2730, "pitch": 84, "duration": 48, "velocity": 84}, {"time": 2790, "pitch": 87, "duration": 10, "velocity": 95}, {"time": 2802, "pitch": 84, "duration": 10, "velocity": 97}, {"time": 2814, "pitch": 82, "duration": 10, "velocity": 98}, {"time": 2826, "pitch": 80, "duration": 47, "velocity": 93}, {"time": 2874, "pitch": 79, "duration": 19, "velocity": 94}, {"time": 2892, "pitch": 75, "duration": 8, "velocity": 93}, {"time": 2898, "pitch": 72, "duration": 8, "velocity": 91}, {"time": 2904, "pitch": 75, "duration": 7, "velocity": 92}, {"time": 2910, "pitch": 80, "duration": 7, "velocity": 89}, {"time": 2916, "pitch": 79, "duration": 6, "velocity": 88}, {"time": 2922, "pitch": 77, "duration": 30, "velocity": 98}, {"time": 2970, "pitch": 79, "duration": 22, "velocity": 92}, {"time": 2994, "pitch": 80, "duration": 24, "velocity": 91}, {"time": 3018, "pitch": 82, "duration": 44, "velocity": 91}, {"time": 3066, "pitch": 75, "duration": 31, "velocity": 82}, {"time": 3066, "pitch": 80, "duration": 39, "velocity": 82}, {"time": 3102, "pitch": 89, "duration": 10, "velocity": 93}, {"time": 3114, "pitch": 87, "duration": 5, "velocity": 95}, {"time": 3114, "pitch": 87, "duration": 5, "velocity": 97}, {"time": 3120, "pitch": 85, "duration": 6, "velocity": 100}, {"time": 3126, "pitch": 84, "duration": 6, "velocity": 102}, {"time": 3132, "pitch": 82, "duration": 3, "velocity": 95}, {"time": 3135, "pitch": 80, "duration": 3, "velocity": 96}, {"time": 3138, "pitch": 75, "duration": 2, "velocity": 93}, {"time": 3140, "pitch": 73, "duration": 3, "velocity": 69}, {"time": 3142, "pitch": 72, "duration": 2, "velocity": 81}, {"time": 3144, "pitch": 75, "duration": 2, "velocity": 85}, {"time": 3146, "pitch": 77, "duration": 3, "velocity": 87}, {"time": 3148, "pitch": 79, "duration": 2, "velocity": 87}, {"time": 3150, "pitch": 80, "duration": 2, "velocity": 91}, {"time": 3152, "pitch": 79, "duration": 2, "velocity": 92}, {"time": 3154, "pitch": 77, "duration": 3, "velocity": 87}, {"time": 3156, "pitch": 79, "duration": 3, "velocity": 79}, {"time": 3158, "pitch": 80, "duration": 3, "velocity": 80}, {"time": 3160, "pitch": 82, "duration": 2, "velocity": 83}, {"time": 3162, "pitch": 84, "duration": 48, "velocity": 84}, {"time": 3222, "pitch": 87, "duration": 10, "velocity": 95}, {"time": 3234, "pitch": 84, "duration": 10, "velocity": 97}, {"time": 3246, "pitch": 82, "duration": 10, "velocity": 98}, {"time": 3258, "pitch": 80, "duration": 47, "velocity": 93}, {"time": 3306, "pitch": 79, "duration": 19, "velocity": 94}, {"time": 3324, "pitch": 75, "duration": 8, "velocity": 93}, {"time": 3330, "pitch": 72, "duration": 8, "velocity": 91}, {"time": 3336, "pitch": 75, "duration": 7, "velocity": 92}, {"time": 3342, "pitch": 80, "duration": 7, "velocity": 89}, {"time": 3348, "pitch": 79, "duration": 6, "velocity": 88}, {"time": 3354, "pitch": 77, "duration": 30, "velocity": 98}, {"time": 3402, "pitch": 79, "duration": 22, "velocity": 92}, {"time": 3426, "pitch": 80, "duration": 24, "velocity": 91}, {"time": 3450, "pitch": 82, "duration": 44, "velocity": 91}, {"time": 3498, "pitch": 75, "duration": 31, "velocity": 82}, {"time": 3498, "pitch": 80, "duration": 39, "velocity": 82}, {"time": 3546, "pitch": 87, "duration": 5, "velocity": 95}, {"time": 3552, "pitch": 85, "duration": 6, "velocity": 100}, {"time": 3558, "pitch": 84, "duration": 6, "velocity": 102}, {"time": 3564, "pitch": 82, "duration": 3, "velocity": 95}, {"time": 3567, "pitch": 80, "duration": 3, "velocity": 96}, {"time": 3594, "pitch": 84, "duration": 48, "velocity": 84}, {"time": 3654, "pitch": 87, "duration": 10, "velocity": 95}, {"time": 3666, "pitch": 84, "duration": 10, "velocity": 97}, {"time": 3678, "pitch": 82, "duration": 10, "velocity": 98}, {"time": 3690, "pitch": 80, "duration": 47, "velocity": 93}, {"time": 3738, "pitch": 79, "duration": 19, "velocity": 94}, {"time": 3756, "pitch": 75, "duration": 8, "velocity": 93}, {"time": 3762, "pitch": 72, "duration": 8, "velocity": 91}, {"time": 3768, "pitch": 75, "duration": 7, "velocity": 92}, {"time": 3774, "pitch": 80, "duration": 7, "velocity": 89}, {"time": 3780, "pitch": 79, "duration": 6, "velocity": 88}, {"time": 3786, "pitch": 77, "duration": 30, "velocity": 98}, {"time": 3834, "pitch": 79, "duration": 22, "velocity": 35}, {"time": 3858, "pitch": 80, "duration": 24, "velocity": 5}, {"time": 3882, "pitch": 82, "duration": 44, "velocity": 1}]}, {"program": 0, "is_drum": false, "name": "PIANO", "notes": [{"time": 42, "pitch": 44, "duration": 41, "velocity": 92}, {"time": 42, "pitch": 63, "duration": 7, "velocity": 91}, {"time": 42, "pitch": 68, "duration": 7, "velocity": 90}, {"time": 48, "pitch": 51, "duration": 35, "velocity": 74}, {"time": 54, "pitch": 63, "duration": 2, "velocity": 92}, {"time": 54, "pitch": 68, "duration": 3, "velocity": 93}, {"time": 54, "pitch": 72, "duration": 3, "velocity": 93}, {"time": 66, "pitch": 63, "duration": 3, "velocity": 80}, {"time": 66, "pitch": 68, "duration": 8, "velocity": 79}, {"time": 66, "pitch": 72, "duration": 8, "velocity": 87}, {"time": 72, "pitch": 63, "duration": 4, "velocity": 67}, {"time": 78, "pitch": 63, "duration": 4, "velocity": 94}, {"time": 78, "pitch": 68, "duration": 5, "velocity": 93}, {"time": 78, "pitch": 72, "duration": 6, "velocity": 93}, {"time": 90, "pitch": 41, "duration": 4, "velocity": 93}, {"time": 90, "pitch": 65, "duration": 4, "velocity": 90}, {"time": 90, "pitch": 68, "duration": 7, "velocity": 86}, {"time": 90, "pitch": 72, "duration": 9, "velocity": 91}, {"time": 96, "pitch": 65, "duration": 2, "velocity": 78}, {"time": 102, "pitch": 65, "duration": 3, "velocity": 92}, {"time": 102, "pitch": 68, "duration": 4, "velocity": 89}, {"time": 114, "pitch": 53, "duration": 17, "velocity": 91}, {"time": 114, "pitch": 60, "duration": 2, "velocity": 74}, {"time": 114, "pitch": 65, "duration": 10, "velocity": 91}, {"time": 114, "pitch": 70, "duration": 2, "velocity": 76}, {"time": 120, "pitch": 60, "duration": 5, "velocity": 86}, {"time": 126, "pitch": 60, "duration": 3, "velocity": 93}, {"time": 126, "pitch": 65, "duration": 8, "velocity": 94}, {"time": 126, "pitch": 72, "duration": 8, "velocity": 90}, {"time": 132, "pitch": 60, "duration": 3, "velocity": 91}, {"time": 138, "pitch": 49, "duration": 39, "velocity": 95}, {"time": 144, "pitch": 61, "duration": 3, "velocity": 83}, {"time": 150, "pitch": 61, "duration": 6, "velocity": 92}, {"time": 150, "pitch": 65, "duration": 7, "velocity": 97}, {"time": 150, "pitch": 68, "duration": 8, "velocity": 92}, {"time": 156, "pitch": 56, "duration": 10, "velocity": 81}, {"time": 162, "pitch": 61, "duration": 4, "velocity": 76}, {"time": 162, "pitch": 65, "duration": 4, "velocity": 86}, {"time": 162, "pitch": 68, "duration": 4, "velocity": 80}, {"time": 174, "pitch": 61, "duration": 4, "velocity": 94}, {"time": 174, "pitch": 65, "duration": 3, "velocity": 105}, {"time": 174, "pitch": 68, "duration": 4, "velocity": 93}, {"time": 180, "pitch": 49, "duration": 2, "velocity": 93}, {"time": 186, "pitch": 46, "duration": 19, "velocity": 92}, {"time": 186, "pitch": 58, "duration": 6, "velocity": 84}, {"time": 186, "pitch": 61, "duration": 6, "velocity": 87}, {"time": 186, "pitch": 65, "duration": 6, "velocity": 91}, {"time": 192, "pitch": 53, "duration": 13, "velocity": 81}, {"time": 198, "pitch": 58, "duration": 3, "velocity": 92}, {"time": 198, "pitch": 61, "duration": 4, "velocity": 94}, {"time": 198, "pitch": 65, "duration": 4, "velocity": 97}, {"time": 210, "pitch": 51, "duration": 17, "velocity": 93}, {"time": 210, "pitch": 58, "duration": 3, "velocity": 91}, {"time": 210, "pitch": 63, "duration": 7, "velocity": 92}, {"time": 210, "pitch": 67, "duration": 7, "velocity": 88}, {"time": 216, "pitch": 58, "duration": 3, "velocity": 79}, {"time": 222, "pitch": 58, "duration": 4, "velocity": 94}, {"time": 222, "pitch": 67, "duration": 4, "velocity": 96}, {"time": 225, "pitch": 63, "duration": 3, "velocity": 88}, {"time": 228, "pitch": 58, "duration": 2, "velocity": 93}, {"time": 234, "pitch": 44, "duration": 43, "velocity": 92}, {"time": 234, "pitch": 56, "duration": 6, "velocity": 90}, {"time": 234, "pitch": 60, "duration": 5, "velocity": 91}, {"time": 240, "pitch": 51, "duration": 10, "velocity": 74}, {"time": 246, "pitch": 56, "duration": 6, "velocity": 91}, {"time": 246, "pitch": 60, "duration": 7, "velocity": 96}, {"time": 246, "pitch": 63, "duration": 8, "velocity": 92}, {"time": 252, "pitch": 51, "duration": 9, "velocity": 78}, {"time": 255, "pitch": 56, "duration": 2, "velocity": 82}, {"time": 258, "pitch": 56, "duration": 1, "velocity": 82}, {"time": 258, "pitch": 60, "duration": 7, "velocity": 94}, {"time": 258, "pitch": 63, "duration": 7, "velocity": 92}, {"time": 258, "pitch": 68, "duration": 7, "velocity": 90}, {"time": 264, "pitch": 51, "duration": 11, "velocity": 78}, {"time": 267, "pitch": 56, "duration": 2, "velocity": 85}, {"time": 270, "pitch": 56, "duration": 2, "velocity": 86}, {"time": 270, "pitch": 60, "duration": 2, "velocity": 94}, {"time": 270, "pitch": 63, "duration": 2, "velocity": 92}, {"time": 270, "pitch": 68, "duration": 4, "velocity": 91}, {"time": 276, "pitch": 67, "duration": 2, "velocity": 105}, {"time": 282, "pitch": 41, "duration": 22, "velocity": 95}, {"time": 282, "pitch": 65, "duration": 7, "velocity": 91}, {"time": 282, "pitch": 68, "duration": 7, "velocity": 86}, {"time": 288, "pitch": 48, "duration": 15, "velocity": 72}, {"time": 294, "pitch": 65, "duration": 2, "velocity": 93}, {"time": 294, "pitch": 68, "duration": 2, "velocity": 92}, {"time": 303, "pitch": 60, "duration": 3, "velocity": 84}, {"time": 306, "pitch": 41, "duration": 17, "velocity": 92}, {"time": 306, "pitch": 60, "duration": 6, "velocity": 80}, {"time": 306, "pitch": 65, "duration": 6, "velocity": 91}, {"time": 306, "pitch": 68, "duration": 7, "velocity": 87}, {"time": 312, "pitch": 48, "duration": 10, "velocity": 74}, {"time": 315, "pitch": 60, "duration": 2, "velocity": 85}, {"time": 318, "pitch": 60, "duration": 3, "velocity": 92}, {"time": 318, "pitch": 65, "duration": 3, "velocity": 96}, {"time": 318, "pitch": 68, "duration": 7, "velocity": 92}, {"time": 324, "pitch": 67, "duration": 3, "velocity": 94}, {"time": 330, "pitch": 49, "duration": 14, "velocity": 93}, {"time": 330, "pitch": 61, "duration": 7, "velocity": 85}, {"time": 330, "pitch": 65, "duration": 7, "velocity": 91}, {"time": 336, "pitch": 56, "duration": 8, "velocity": 81}, {"time": 342, "pitch": 61, "duration": 4, "velocity": 91}, {"time": 342, "pitch": 65, "duration": 3, "velocity": 97}, {"time": 342, "pitch": 68, "duration": 10, "velocity": 91}, {"time": 348, "pitch": 61, "duration": 3, "velocity": 87}, {"time": 354, "pitch": 39, "duration": 2, "velocity": 95}, {"time": 354, "pitch": 63, "duration": 10, "velocity": 86}, {"time": 354, "pitch": 67, "duration": 10, "velocity": 91}, {"time": 360, "pitch": 51, "duration": 9, "velocity": 90}, {"time": 363, "pitch": 58, "duration": 6, "velocity": 89}, {"time": 366, "pitch": 63, "duration": 4, "velocity": 93}, {"time": 369, "pitch": 67, "duration": 2, "velocity": 105}, {"time": 372, "pitch": 63, "duration": 2, "velocity": 85}, {"time": 378, "pitch": 44, "duration": 42, "velocity": 92}, {"time": 378, "pitch": 63, "duration": 6, "velocity": 87}, {"time": 378, "pitch": 68, "duration": 6, "velocity": 86}, {"time": 384, "pitch": 51, "duration": 33, "velocity": 73}, {"time": 390, "pitch": 63, "duration": 3, "velocity": 89}, {"time": 390, "pitch": 68, "duration": 4, "velocity": 92}, {"time": 390, "pitch": 72, "duration": 6, "velocity": 93}, {"time": 396, "pitch": 63, "duration": 2, "velocity": 80}, {"time": 399, "pitch": 70, "duration": 3, "velocity": 81}, {"time": 402, "pitch": 68, "duration": 6, "velocity": 82}, {"time": 408, "pitch": 63, "duration": 3, "velocity": 62}, {"time": 426, "pitch": 44, "duration": 41, "velocity": 92}, {"time": 432, "pitch": 51, "duration": 34, "velocity": 71}, {"time": 438, "pitch": 63, "duration": 26, "velocity": 84}, {"time": 444, "pitch": 56, "duration": 18, "velocity": 74}, {"time": 450, "pitch": 68, "duration": 23, "velocity": 82}, {"time": 474, "pitch": 48, "duration": 41, "velocity": 88}, {"time": 474, "pitch": 63, "duration": 17, "velocity": 85}, {"time": 480, "pitch": 55, "duration": 9, "velocity": 81}, {"time": 486, "pitch": 60, "duration": 8, "velocity": 88}, {"time": 492, "pitch": 55, "duration": 19, "velocity": 68}, {"time": 498, "pitch": 60, "duration": 15, "velocity": 84}, {"time": 498, "pitch": 67, "duration": 15, "velocity": 82}, {"time": 522, "pitch": 41, "duration": 38, "velocity": 93}, {"time": 522, "pitch": 65, "duration": 14, "velocity": 88}, {"time": 528, "pitch": 48, "duration": 31, "velocity": 74}, {"time": 534, "pitch": 60, "duration": 8, "velocity": 92}, {"time": 540, "pitch": 65, "duration": 4, "velocity": 85}, {"time": 546, "pitch": 60, "duration": 12, "velocity": 81}, {"time": 546, "pitch": 68, "duration": 14, "velocity": 83}, {"time": 570, "pitch": 48, "duration": 41, "velocity": 91}, {"time": 570, "pitch": 63, "duration": 16, "velocity": 88}, {"time": 576, "pitch": 55, "duration": 10, "velocity": 83}, {"time": 582, "pitch": 60, "duration": 26, "velocity": 92}, {"time": 588, "pitch": 55, "duration": 19, "velocity": 64}, {"time": 594, "pitch": 63, "duration": 15, "velocity": 79}, {"time": 594, "pitch": 67, "duration": 16, "velocity": 81}, {"time": 618, "pitch": 49, "duration": 42, "velocity": 93}, {"time": 618, "pitch": 61, "duration": 9, "velocity": 80}, {"time": 618, "pitch": 65, "duration": 13, "velocity": 86}, {"time": 624, "pitch": 56, "duration": 36, "velocity": 73}, {"time": 630, "pitch": 61, "duration": 9, "velocity": 85}, {"time": 642, "pitch": 61, "duration": 4, "velocity": 79}, {"time": 642, "pitch": 65, "duration": 5, "velocity": 88}, {"time": 654, "pitch": 61, "duration": 5, "velocity": 80}, {"time": 654, "pitch": 68, "duration": 6, "velocity": 82}, {"time": 666, "pitch": 48, "duration": 14, "velocity": 92}, {"time": 666, "pitch": 60, "duration": 9, "velocity": 87}, {"time": 666, "pitch": 63, "duration": 13, "velocity": 86}, {"time": 672, "pitch": 55, "duration": 7, "velocity": 71}, {"time": 678, "pitch": 60, "duration": 6, "velocity": 91}, {"time": 690, "pitch": 41, "duration": 16, "velocity": 86}, {"time": 690, "pitch": 65, "duration": 14, "velocity": 88}, {"time": 696, "pitch": 48, "duration": 9, "velocity": 70}, {"time": 702, "pitch": 60, "duration": 5, "velocity": 87}, {"time": 714, "pitch": 46, "duration": 42, "velocity": 83}, {"time": 714, "pitch": 58, "duration": 8, "velocity": 79}, {"time": 714, "pitch": 61, "duration": 13, "velocity": 83}, {"time": 720, "pitch": 53, "duration": 10, "velocity": 77}, {"time": 726, "pitch": 58, "duration": 8, "velocity": 87}, {"time": 729, "pitch": 53, "duration": 1, "velocity": 69}, {"time": 738, "pitch": 61, "duration": 16, "velocity": 75}, {"time": 738, "pitch": 65, "duration": 17, "velocity": 85}, {"time": 762, "pitch": 39, "duration": 41, "velocity": 93}, {"time": 762, "pitch": 58, "duration": 8, "velocity": 78}, {"time": 762, "pitch": 63, "duration": 13, "velocity": 84}, {"time": 768, "pitch": 46, "duration": 35, "velocity": 73}, {"time": 774, "pitch": 58, "duration": 8, "velocity": 84}, {"time": 780, "pitch": 63, "duration": 4, "velocity": 86}, {"time": 786, "pitch": 58, "duration": 4, "velocity": 82}, {"time": 786, "pitch": 67, "duration": 8, "velocity": 83}, {"time": 798, "pitch": 58, "duration": 6, "velocity": 81}, {"time": 798, "pitch": 63, "duration": 5, "velocity": 86}, {"time": 810, "pitch": 44, "duration": 39, "velocity": 92}, {"time": 810, "pitch": 56, "duration": 7, "velocity": 87}, {"time": 810, "pitch": 60, "duration": 7, "velocity": 86}, {"time": 816, "pitch": 51, "duration": 33, "velocity": 76}, {"time": 822, "pitch": 56, "duration": 3, "velocity": 91}, {"time": 822, "pitch": 63, "duration": 6, "velocity": 91}, {"time": 828, "pitch": 56, "duration": 5, "velocity": 86}, {"time": 834, "pitch": 60, "duration": 7, "velocity": 74}, {"time": 840, "pitch": 56, "duration": 3, "velocity": 78}, {"time": 846, "pitch": 56, "duration": 3, "velocity": 92}, {"time": 846, "pitch": 60, "duration": 3, "velocity": 93}, {"time": 846, "pitch": 63, "duration": 4, "velocity": 92}, {"time": 852, "pitch": 44, "duration": 3, "velocity": 92}, {"time": 858, "pitch": 48, "duration": 40, "velocity": 92}, {"time": 858, "pitch": 60, "duration": 10, "velocity": 88}, {"time": 858, "pitch": 63, "duration": 10, "velocity": 91}, {"time": 864, "pitch": 55, "duration": 10, "velocity": 78}, {"time": 870, "pitch": 60, "duration": 8, "velocity": 91}, {"time": 870, "pitch": 67, "duration": 11, "velocity": 85}, {"time": 876, "pitch": 55, "duration": 8, "velocity": 68}, {"time": 882, "pitch": 60, "duration": 7, "velocity": 81}, {"time": 882, "pitch": 63, "duration": 6, "velocity": 83}, {"time": 888, "pitch": 55, "duration": 7, "velocity": 62}, {"time": 894, "pitch": 60, "duration": 3, "velocity": 91}, {"time": 894, "pitch": 63, "duration": 5, "velocity": 92}, {"time": 894, "pitch": 67, "duration": 6, "velocity": 92}, {"time": 900, "pitch": 60, "duration": 14, "velocity": 84}, {"time": 906, "pitch": 41, "duration": 37, "velocity": 91}, {"time": 906, "pitch": 65, "duration": 8, "velocity": 90}, {"time": 906, "pitch": 68, "duration": 8, "velocity": 86}, {"time": 912, "pitch": 48, "duration": 31, "velocity": 73}, {"time": 918, "pitch": 60, "duration": 2, "velocity": 84}, {"time": 918, "pitch": 65, "duration": 7, "velocity": 91}, {"time": 924, "pitch": 60, "duration": 7, "velocity": 80}, {"time": 930, "pitch": 65, "duration": 7, "velocity": 91}, {"time": 930, "pitch": 68, "duration": 7, "velocity": 85}, {"time": 936, "pitch": 60, "duration": 4, "velocity": 75}, {"time": 942, "pitch": 65, "duration": 6, "velocity": 94}, {"time": 942, "pitch": 68, "duration": 8, "velocity": 93}, {"time": 948, "pitch": 60, "duration": 4, "velocity": 88}, {"time": 954, "pitch": 48, "duration": 39, "velocity": 92}, {"time": 954, "pitch": 60, "duration": 10, "velocity": 88}, {"time": 954, "pitch": 63, "duration": 10, "velocity": 89}, {"time": 960, "pitch": 55, "duration": 21, "velocity": 79}, {"time": 966, "pitch": 63, "duration": 7, "velocity": 91}, {"time": 966, "pitch": 67, "duration": 8, "velocity": 88}, {"time": 972, "pitch": 60, "duration": 3, "velocity": 50}, {"time": 978, "pitch": 60, "duration": 4, "velocity": 83}, {"time": 978, "pitch": 63, "duration": 6, "velocity": 86}, {"time": 984, "pitch": 55, "duration": 7, "velocity": 71}, {"time": 990, "pitch": 60, "duration": 7, "velocity": 91}, {"time": 990, "pitch": 63, "duration": 7, "velocity": 93}, {"time": 1002, "pitch": 49, "duration": 40, "velocity": 94}, {"time": 1002, "pitch": 56, "duration": 4, "velocity": 85}, {"time": 1002, "pitch": 61, "duration": 8, "velocity": 85}, {"time": 1008, "pitch": 56, "duration": 8, "velocity": 85}, {"time": 1014, "pitch": 61, "duration": 7, "velocity": 92}, {"time": 1014, "pitch": 65, "duration": 7, "velocity": 95}, {"time": 1020, "pitch": 56, "duration": 2, "velocity": 72}, {"time": 1026, "pitch": 56, "duration": 3, "velocity": 78}, {"time": 1026, "pitch": 61, "duration": 6, "velocity": 81}, {"time": 1038, "pitch": 56, "duration": 3, "velocity": 91}, {"time": 1038, "pitch": 61, "duration": 6, "velocity": 94}, {"time": 1038, "pitch": 65, "duration": 6, "velocity": 96}, {"time": 1050, "pitch": 48, "duration": 14, "velocity": 94}, {"time": 1050, "pitch": 60, "duration": 9, "velocity": 86}, {"time": 1050, "pitch": 63, "duration": 9, "velocity": 88}, {"time": 1056, "pitch": 55, "duration": 7, "velocity": 83}, {"time": 1062, "pitch": 60, "duration": 3, "velocity": 88}, {"time": 1062, "pitch": 63, "duration": 6, "velocity": 93}, {"time": 1062, "pitch": 67, "duration": 6, "velocity": 91}, {"time": 1068, "pitch": 60, "duration": 5, "velocity": 80}, {"time": 1074, "pitch": 41, "duration": 15, "velocity": 93}, {"time": 1074, "pitch": 60, "duration": 6, "velocity": 85}, {"time": 1074, "pitch": 68, "duration": 10, "velocity": 87}, {"time": 1080, "pitch": 48, "duration": 8, "velocity": 76}, {"time": 1086, "pitch": 60, "duration": 3, "velocity": 92}, {"time": 1086, "pitch": 65, "duration": 6, "velocity": 94}, {"time": 1092, "pitch": 60, "duration": 4, "velocity": 92}, {"time": 1098, "pitch": 46, "duration": 19, "velocity": 92}, {"time": 1098, "pitch": 58, "duration": 13, "velocity": 86}, {"time": 1098, "pitch": 61, "duration": 9, "velocity": 91}, {"time": 1104, "pitch": 53, "duration": 12, "velocity": 75}, {"time": 1110, "pitch": 61, "duration": 6, "velocity": 92}, {"time": 1110, "pitch": 65, "duration": 6, "velocity": 92}, {"time": 1116, "pitch": 58, "duration": 5, "velocity": 83}, {"time": 1122, "pitch": 39, "duration": 15, "velocity": 95}, {"time": 1122, "pitch": 58, "duration": 7, "velocity": 90}, {"time": 1122, "pitch": 63, "duration": 9, "velocity": 91}, {"time": 1128, "pitch": 46, "duration": 8, "velocity": 74}, {"time": 1134, "pitch": 58, "duration": 3, "velocity": 87}, {"time": 1134, "pitch": 63, "duration": 7, "velocity": 91}, {"time": 1134, "pitch": 67, "duration": 6, "velocity": 87}, {"time": 1140, "pitch": 58, "duration": 2, "velocity": 86}, {"time": 1146, "pitch": 44, "duration": 48, "velocity": 91}, {"time": 1146, "pitch": 56, "duration": 8, "velocity": 86}, {"time": 1146, "pitch": 60, "duration": 7, "velocity": 86}, {"time": 1152, "pitch": 51, "duration": 9, "velocity": 75}, {"time": 1158, "pitch": 56, "duration": 4, "velocity": 91}, {"time": 1158, "pitch": 60, "duration": 4, "velocity": 91}, {"time": 1158, "pitch": 63, "duration": 4, "velocity": 91}, {"time": 1164, "pitch": 51, "duration": 9, "velocity": 70}, {"time": 1167, "pitch": 56, "duration": 2, "velocity": 83}, {"time": 1170, "pitch": 56, "duration": 6, "velocity": 91}, {"time": 1170, "pitch": 60, "duration": 6, "velocity": 93}, {"time": 1170, "pitch": 63, "duration": 7, "velocity": 92}, {"time": 1176, "pitch": 51, "duration": 8, "velocity": 76}, {"time": 1179, "pitch": 56, "duration": 2, "velocity": 78}, {"time": 1182, "pitch": 56, "duration": 3, "velocity": 86}, {"time": 1182, "pitch": 60, "duration": 13, "velocity": 94}, {"time": 1182, "pitch": 63, "duration": 13, "velocity": 94}, {"time": 1182, "pitch": 68, "duration": 13, "velocity": 91}, {"time": 1188, "pitch": 51, "duration": 6, "velocity": 91}, {"time": 1194, "pitch": 44, "duration": 22, "velocity": 91}, {"time": 1200, "pitch": 51, "duration": 10, "velocity": 85}, {"time": 1206, "pitch": 60, "duration": 8, "velocity": 94}, {"time": 1206, "pitch": 63, "duration": 8, "velocity": 93}, {"time": 1212, "pitch": 51, "duration": 4, "velocity": 78}, {"time": 1215, "pitch": 56, "duration": 2, "velocity": 80}, {"time": 1218, "pitch": 44, "duration": 5, "velocity": 93}, {"time": 1218, "pitch": 56, "duration": 4, "velocity": 91}, {"time": 1218, "pitch": 60, "duration": 4, "velocity": 92}, {"time": 1218, "pitch": 63, "duration": 4, "velocity": 92}, {"time": 1224, "pitch": 44, "duration": 3, "velocity": 76}, {"time": 1224, "pitch": 51, "duration": 3, "velocity": 80}, {"time": 1224, "pitch": 56, "duration": 3, "velocity": 76}, {"time": 1224, "pitch": 60, "duration": 3, "velocity": 72}, {"time": 1224, "pitch": 63, "duration": 3, "velocity": 71}, {"time": 1224, "pitch": 68, "duration": 3, "velocity": 61}, {"time": 1230, "pitch": 44, "duration": 12, "velocity": 95}, {"time": 1230, "pitch": 51, "duration": 12, "velocity": 100}, {"time": 1230, "pitch": 56, "duration": 5, "velocity": 96}, {"time": 1230, "pitch": 60, "duration": 11, "velocity": 102}, {"time": 1230, "pitch": 63, "duration": 11, "velocity": 98}, {"time": 1230, "pitch": 68, "duration": 12, "velocity": 92}, {"time": 1236, "pitch": 56, "duration": 5, "velocity": 91}, {"time": 1242, "pitch": 44, "duration": 23, "velocity": 92}, {"time": 1242, "pitch": 56, "duration": 10, "velocity": 91}, {"time": 1242, "pitch": 60, "duration": 10, "velocity": 90}, {"time": 1242, "pitch": 63, "duration": 10, "velocity": 91}, {"time": 1248, "pitch": 51, "duration": 17, "velocity": 84}, {"time": 1254, "pitch": 56, "duration": 6, "velocity": 94}, {"time": 1254, "pitch": 60, "duration": 6, "velocity": 98}, {"time": 1254, "pitch": 63, "duration": 6, "velocity": 96}, {"time": 1266, "pitch": 44, "duration": 14, "velocity": 91}, {"time": 1266, "pitch": 56, "duration": 6, "velocity": 87}, {"time": 1266, "pitch": 60, "duration": 7, "velocity": 92}, {"time": 1266, "pitch": 63, "duration": 7, "velocity": 91}, {"time": 1272, "pitch": 51, "duration": 8, "velocity": 81}, {"time": 1275, "pitch": 56, "duration": 2, "velocity": 91}, {"time": 1278, "pitch": 56, "duration": 3, "velocity": 95}, {"time": 1278, "pitch": 60, "duration": 3, "velocity": 100}, {"time": 1278, "pitch": 63, "duration": 4, "velocity": 95}, {"time": 1290, "pitch": 48, "duration": 21, "velocity": 92}, {"time": 1290, "pitch": 60, "duration": 7, "velocity": 91}, {"time": 1290, "pitch": 63, "duration": 7, "velocity": 92}, {"time": 1290, "pitch": 67, "duration": 7, "velocity": 91}, {"time": 1296, "pitch": 55, "duration": 9, "velocity": 80}, {"time": 1302, "pitch": 60, "duration": 3, "velocity": 96}, {"time": 1302, "pitch": 63, "duration": 4, "velocity": 97}, {"time": 1302, "pitch": 67, "duration": 4, "velocity": 96}, {"time": 1308, "pitch": 55, "duration": 4, "velocity": 73}, {"time": 1311, "pitch": 60, "duration": 2, "velocity": 89}, {"time": 1314, "pitch": 48, "duration": 15, "velocity": 92}, {"time": 1314, "pitch": 60, "duration": 6, "velocity": 92}, {"time": 1314, "pitch": 63, "duration": 6, "velocity": 91}, {"time": 1314, "pitch": 67, "duration": 6, "velocity": 87}, {"time": 1320, "pitch": 55, "duration": 8, "velocity": 80}, {"time": 1326, "pitch": 60, "duration": 4, "velocity": 93}, {"time": 1326, "pitch": 63, "duration": 6, "velocity": 96}, {"time": 1326, "pitch": 67, "duration": 6, "velocity": 97}, {"time": 1332, "pitch": 48, "duration": 3, "velocity": 93}, {"time": 1332, "pitch": 60, "duration": 5, "velocity": 85}, {"time": 1338, "pitch": 41, "duration": 22, "velocity": 93}, {"time": 1338, "pitch": 60, "duration": 6, "velocity": 86}, {"time": 1338, "pitch": 65, "duration": 7, "velocity": 92}, {"time": 1344, "pitch": 48, "duration": 11, "velocity": 73}, {"time": 1350, "pitch": 60, "duration": 4, "velocity": 94}, {"time": 1350, "pitch": 65, "duration": 4, "velocity": 98}, {"time": 1350, "pitch": 68, "duration": 5, "velocity": 92}, {"time": 1359, "pitch": 60, "duration": 3, "velocity": 91}, {"time": 1362, "pitch": 41, "duration": 15, "velocity": 94}, {"time": 1362, "pitch": 60, "duration": 7, "velocity": 91}, {"time": 1362, "pitch": 65, "duration": 7, "velocity": 95}, {"time": 1362, "pitch": 68, "duration": 7, "velocity": 91}, {"time": 1368, "pitch": 48, "duration": 9, "velocity": 81}, {"time": 1374, "pitch": 60, "duration": 3, "velocity": 94}, {"time": 1374, "pitch": 65, "duration": 4, "velocity": 102}, {"time": 1374, "pitch": 68, "duration": 9, "velocity": 96}, {"time": 1380, "pitch": 60, "duration": 4, "velocity": 97}, {"time": 1386, "pitch": 48, "duration": 20, "velocity": 92}, {"time": 1386, "pitch": 60, "duration": 7, "velocity": 92}, {"time": 1386, "pitch": 63, "duration": 7, "velocity": 91}, {"time": 1386, "pitch": 67, "duration": 6, "velocity": 92}, {"time": 1392, "pitch": 55, "duration": 9, "velocity": 74}, {"time": 1398, "pitch": 60, "duration": 6, "velocity": 93}, {"time": 1398, "pitch": 63, "duration": 7, "velocity": 97}, {"time": 1398, "pitch": 67, "duration": 9, "velocity": 94}, {"time": 1404, "pitch": 55, "duration": 5, "velocity": 78}, {"time": 1407, "pitch": 60, "duration": 10, "velocity": 93}, {"time": 1410, "pitch": 48, "duration": 18, "velocity": 93}, {"time": 1410, "pitch": 63, "duration": 10, "velocity": 92}, {"time": 1410, "pitch": 67, "duration": 11, "velocity": 92}, {"time": 1416, "pitch": 55, "duration": 7, "velocity": 82}, {"time": 1419, "pitch": 60, "duration": 2, "velocity": 86}, {"time": 1422, "pitch": 60, "duration": 4, "velocity": 96}, {"time": 1422, "pitch": 63, "duration": 7, "velocity": 94}, {"time": 1425, "pitch": 55, "duration": 2, "velocity": 85}, {"time": 1428, "pitch": 60, "duration": 4, "velocity": 94}, {"time": 1434, "pitch": 41, "duration": 23, "velocity": 95}, {"time": 1434, "pitch": 60, "duration": 9, "velocity": 92}, {"time": 1434, "pitch": 65, "duration": 8, "velocity": 94}, {"time": 1440, "pitch": 48, "duration": 17, "velocity": 79}, {"time": 1446, "pitch": 60, "duration": 4, "velocity": 97}, {"time": 1446, "pitch": 65, "duration": 5, "velocity": 100}, {"time": 1446, "pitch": 68, "duration": 5, "velocity": 92}, {"time": 1455, "pitch": 60, "duration": 2, "velocity": 84}, {"time": 1458, "pitch": 41, "duration": 16, "velocity": 92}, {"time": 1458, "pitch": 60, "duration": 9, "velocity": 93}, {"time": 1458, "pitch": 65, "duration": 9, "velocity": 97}, {"time": 1464, "pitch": 48, "duration": 9, "velocity": 76}, {"time": 1470, "pitch": 60, "duration": 3, "velocity": 96}, {"time": 1470, "pitch": 65, "duration": 5, "velocity": 98}, {"time": 1470, "pitch": 68, "duration": 8, "velocity": 94}, {"time": 1476, "pitch": 60, "duration": 5, "velocity": 96}, {"time": 1482, "pitch": 48, "duration": 16, "velocity": 91}, {"time": 1482, "pitch": 60, "duration": 9, "velocity": 91}, {"time": 1482, "pitch": 63, "duration": 8, "velocity": 91}, {"time": 1482, "pitch": 67, "duration": 8, "velocity": 92}, {"time": 1488, "pitch": 55, "duration": 8, "velocity": 79}, {"time": 1494, "pitch": 60, "duration": 3, "velocity": 94}, {"time": 1494, "pitch": 63, "duration": 7, "velocity": 96}, {"time": 1494, "pitch": 67, "duration": 7, "velocity": 93}, {"time": 1500, "pitch": 60, "duration": 8, "velocity": 92}, {"time": 1506, "pitch": 41, "duration": 19, "velocity": 93}, {"time": 1506, "pitch": 65, "duration": 7, "velocity": 92}, {"time": 1506, "pitch": 68, "duration": 6, "velocity": 88}, {"time": 1512, "pitch": 48, "duration": 8, "velocity": 75}, {"time": 1515, "pitch": 60, "duration": 2, "velocity": 87}, {"time": 1518, "pitch": 60, "duration": 4, "velocity": 97}, {"time": 1518, "pitch": 65, "duration": 5, "velocity": 100}, {"time": 1518, "pitch": 68, "duration": 4, "velocity": 93}, {"time": 1524, "pitch": 48, "duration": 2, "velocity": 90}, {"time": 1530, "pitch": 46, "duration": 15, "velocity": 93}, {"time": 1530, "pitch": 58, "duration": 8, "velocity": 89}, {"time": 1530, "pitch": 61, "duration": 8, "velocity": 90}, {"time": 1536, "pitch": 53, "duration": 8, "velocity": 80}, {"time": 1542, "pitch": 58, "duration": 5, "velocity": 92}, {"time": 1542, "pitch": 61, "duration": 6, "velocity": 97}, {"time": 1542, "pitch": 65, "duration": 6, "velocity": 97}, {"time": 1548, "pitch": 46, "duration": 2, "velocity": 91}, {"time": 1554, "pitch": 39, "duration": 2, "velocity": 97}, {"time": 1554, "pitch": 58, "duration": 7, "velocity": 92}, {"time": 1554, "pitch": 63, "duration": 10, "velocity": 93}, {"time": 1560, "pitch": 51, "duration": 13, "velocity": 91}, {"time": 1563, "pitch": 58, "duration": 2, "velocity": 92}, {"time": 1566, "pitch": 58, "duration": 4, "velocity": 97}, {"time": 1566, "pitch": 63, "duration": 6, "velocity": 97}, {"time": 1566, "pitch": 67, "duration": 6, "velocity": 94}, {"time": 1572, "pitch": 58, "duration": 2, "velocity": 96}, {"time": 1578, "pitch": 44, "duration": 39, "velocity": 91}, {"time": 1578, "pitch": 56, "duration": 14, "velocity": 84}, {"time": 1578, "pitch": 60, "duration": 9, "velocity": 86}, {"time": 1584, "pitch": 51, "duration": 10, "velocity": 75}, {"time": 1590, "pitch": 60, "duration": 8, "velocity": 86}, {"time": 1590, "pitch": 63, "duration": 9, "velocity": 86}, {"time": 1596, "pitch": 51, "duration": 20, "velocity": 76}, {"time": 1599, "pitch": 56, "duration": 4, "velocity": 61}, {"time": 1602, "pitch": 60, "duration": 7, "velocity": 90}, {"time": 1602, "pitch": 63, "duration": 8, "velocity": 82}, {"time": 1602, "pitch": 68, "duration": 6, "velocity": 85}, {"time": 1608, "pitch": 56, "duration": 4, "velocity": 76}, {"time": 1614, "pitch": 56, "duration": 8, "velocity": 86}, {"time": 1614, "pitch": 60, "duration": 8, "velocity": 87}, {"time": 1614, "pitch": 63, "duration": 9, "velocity": 88}, {"time": 1626, "pitch": 49, "duration": 42, "velocity": 92}, {"time": 1626, "pitch": 61, "duration": 14, "velocity": 84}, {"time": 1626, "pitch": 65, "duration": 9, "velocity": 92}, {"time": 1632, "pitch": 56, "duration": 36, "velocity": 71}, {"time": 1638, "pitch": 65, "duration": 4, "velocity": 85}, {"time": 1638, "pitch": 68, "duration": 3, "velocity": 80}, {"time": 1650, "pitch": 61, "duration": 3, "velocity": 87}, {"time": 1650, "pitch": 68, "duration": 11, "velocity": 83}, {"time": 1656, "pitch": 61, "duration": 10, "velocity": 82}, {"time": 1662, "pitch": 65, "duration": 4, "velocity": 83}, {"time": 1674, "pitch": 48, "duration": 41, "velocity": 87}, {"time": 1674, "pitch": 60, "duration": 7, "velocity": 83}, {"time": 1674, "pitch": 63, "duration": 8, "velocity": 86}, {"time": 1680, "pitch": 55, "duration": 32, "velocity": 76}, {"time": 1686, "pitch": 67, "duration": 8, "velocity": 95}, {"time": 1689, "pitch": 60, "duration": 15, "velocity": 89}, {"time": 1692, "pitch": 63, "duration": 12, "velocity": 89}, {"time": 1695, "pitch": 67, "duration": 8, "velocity": 79}, {"time": 1698, "pitch": 72, "duration": 7, "velocity": 90}, {"time": 1710, "pitch": 60, "duration": 5, "velocity": 86}, {"time": 1710, "pitch": 67, "duration": 6, "velocity": 80}, {"time": 1722, "pitch": 49, "duration": 38, "velocity": 93}, {"time": 1722, "pitch": 61, "duration": 7, "velocity": 83}, {"time": 1722, "pitch": 65, "duration": 7, "velocity": 88}, {"time": 1728, "pitch": 56, "duration": 31, "velocity": 77}, {"time": 1731, "pitch": 61, "duration": 7, "velocity": 92}, {"time": 1737, "pitch": 68, "duration": 7, "velocity": 83}, {"time": 1740, "pitch": 61, "duration": 4, "velocity": 83}, {"time": 1746, "pitch": 61, "duration": 10, "velocity": 75}, {"time": 1746, "pitch": 65, "duration": 6, "velocity": 82}, {"time": 1746, "pitch": 68, "duration": 7, "velocity": 78}, {"time": 1758, "pitch": 65, "duration": 7, "velocity": 91}, {"time": 1758, "pitch": 68, "duration": 7, "velocity": 87}, {"time": 1758, "pitch": 73, "duration": 6, "velocity": 92}, {"time": 1764, "pitch": 61, "duration": 2, "velocity": 92}, {"time": 1770, "pitch": 42, "duration": 19, "velocity": 92}, {"time": 1770, "pitch": 54, "duration": 7, "velocity": 91}, {"time": 1770, "pitch": 58, "duration": 10, "velocity": 89}, {"time": 1776, "pitch": 49, "duration": 12, "velocity": 80}, {"time": 1779, "pitch": 54, "duration": 7, "velocity": 90}, {"time": 1785, "pitch": 61, "duration": 5, "velocity": 88}, {"time": 1788, "pitch": 54, "duration": 2, "velocity": 87}, {"time": 1794, "pitch": 39, "duration": 17, "velocity": 94}, {"time": 1794, "pitch": 56, "duration": 4, "velocity": 80}, {"time": 1794, "pitch": 58, "duration": 4, "velocity": 78}, {"time": 1794, "pitch": 63, "duration": 10, "velocity": 84}, {"time": 1800, "pitch": 46, "duration": 10, "velocity": 78}, {"time": 1806, "pitch": 58, "duration": 5, "velocity": 89}, {"time": 1806, "pitch": 63, "duration": 8, "velocity": 92}, {"time": 1818, "pitch": 44, "duration": 45, "velocity": 91}, {"time": 1818, "pitch": 56, "duration": 13, "velocity": 81}, {"time": 1818, "pitch": 60, "duration": 8, "velocity": 86}, {"time": 1824, "pitch": 51, "duration": 19, "velocity": 77}, {"time": 1830, "pitch": 58, "duration": 7, "velocity": 80}, {"time": 1836, "pitch": 56, "duration": 5, "velocity": 70}, {"time": 1842, "pitch": 56, "duration": 10, "velocity": 82}, {"time": 1842, "pitch": 60, "duration": 8, "velocity": 84}, {"time": 1854, "pitch": 63, "duration": 8, "velocity": 92}, {"time": 1857, "pitch": 51, "duration": 10, "velocity": 83}, {"time": 1860, "pitch": 56, "duration": 9, "velocity": 86}, {"time": 1866, "pitch": 44, "duration": 44, "velocity": 92}, {"time": 1866, "pitch": 60, "duration": 12, "velocity": 83}, {"time": 1872, "pitch": 51, "duration": 38, "velocity": 75}, {"time": 1878, "pitch": 56, "duration": 16, "velocity": 88}, {"time": 1884, "pitch": 63, "duration": 14, "velocity": 79}, {"time": 1890, "pitch": 68, "duration": 8, "velocity": 82}, {"time": 1896, "pitch": 56, "duration": 4, "velocity": 75}, {"time": 1902, "pitch": 60, "duration": 12, "velocity": 81}, {"time": 1902, "pitch": 63, "duration": 13, "velocity": 84}, {"time": 1914, "pitch": 44, "duration": 41, "velocity": 92}, {"time": 1920, "pitch": 51, "duration": 34, "velocity": 71}, {"time": 1926, "pitch": 63, "duration": 26, "velocity": 84}, {"time": 1932, "pitch": 56, "duration": 18, "velocity": 74}, {"time": 1938, "pitch": 68, "duration": 23, "velocity": 82}, {"time": 1962, "pitch": 48, "duration": 41, "velocity": 88}, {"time": 1962, "pitch": 63, "duration": 17, "velocity": 85}, {"time": 1968, "pitch": 55, "duration": 9, "velocity": 81}, {"time": 1974, "pitch": 60, "duration": 8, "velocity": 88}, {"time": 1980, "pitch": 55, "duration": 19, "velocity": 68}, {"time": 1986, "pitch": 60, "duration": 15, "velocity": 84}, {"time": 1986, "pitch": 67, "duration": 15, "velocity": 82}, {"time": 2010, "pitch": 41, "duration": 38, "velocity": 93}, {"time": 2010, "pitch": 65, "duration": 14, "velocity": 88}, {"time": 2016, "pitch": 48, "duration": 31, "velocity": 74}, {"time": 2022, "pitch": 60, "duration": 8, "velocity": 92}, {"time": 2028, "pitch": 65, "duration": 4, "velocity": 85}, {"time": 2034, "pitch": 60, "duration": 12, "velocity": 81}, {"time": 2034, "pitch": 68, "duration": 14, "velocity": 83}, {"time": 2058, "pitch": 48, "duration": 41, "velocity": 91}, {"time": 2058, "pitch": 63, "duration": 16, "velocity": 88}, {"time": 2064, "pitch": 55, "duration": 10, "velocity": 83}, {"time": 2070, "pitch": 60, "duration": 26, "velocity": 92}, {"time": 2076, "pitch": 55, "duration": 19, "velocity": 64}, {"time": 2082, "pitch": 63, "duration": 15, "velocity": 79}, {"time": 2082, "pitch": 67, "duration": 16, "velocity": 81}, {"time": 2106, "pitch": 49, "duration": 42, "velocity": 93}, {"time": 2106, "pitch": 61, "duration": 9, "velocity": 80}, {"time": 2106, "pitch": 65, "duration": 13, "velocity": 86}, {"time": 2112, "pitch": 56, "duration": 36, "velocity": 73}, {"time": 2118, "pitch": 61, "duration": 9, "velocity": 85}, {"time": 2130, "pitch": 61, "duration": 4, "velocity": 79}, {"time": 2130, "pitch": 65, "duration": 5, "velocity": 88}, {"time": 2142, "pitch": 61, "duration": 5, "velocity": 80}, {"time": 2142, "pitch": 68, "duration": 6, "velocity": 82}, {"time": 2154, "pitch": 48, "duration": 14, "velocity": 92}, {"time": 2154, "pitch": 60, "duration": 9, "velocity": 87}, {"time": 2154, "pitch": 63, "duration": 13, "velocity": 86}, {"time": 2160, "pitch": 55, "duration": 7, "velocity": 71}, {"time": 2166, "pitch": 60, "duration": 6, "velocity": 91}, {"time": 2178, "pitch": 41, "duration": 16, "velocity": 86}, {"time": 2178, "pitch": 65, "duration": 14, "velocity": 88}, {"time": 2184, "pitch": 48, "duration": 9, "velocity": 70}, {"time": 2190, "pitch": 60, "duration": 5, "velocity": 87}, {"time": 2202, "pitch": 46, "duration": 42, "velocity": 83}, {"time": 2202, "pitch": 58, "duration": 8, "velocity": 79}, {"time": 2202, "pitch": 61, "duration": 13, "velocity": 83}, {"time": 2208, "pitch": 53, "duration": 10, "velocity": 77}, {"time": 2214, "pitch": 58, "duration": 8, "velocity": 87}, {"time": 2217, "pitch": 53, "duration": 1, "velocity": 69}, {"time": 2226, "pitch": 61, "duration": 16, "velocity": 75}, {"time": 2226, "pitch": 65, "duration": 17, "velocity": 85}, {"time": 2250, "pitch": 39, "duration": 41, "velocity": 93}, {"time": 2250, "pitch": 58, "duration": 8, "velocity": 78}, {"time": 2250, "pitch": 63, "duration": 13, "velocity": 84}, {"time": 2256, "pitch": 46, "duration": 35, "velocity": 73}, {"time": 2262, "pitch": 58, "duration": 8, "velocity": 84}, {"time": 2268, "pitch": 63, "duration": 4, "velocity": 86}, {"time": 2274, "pitch": 58, "duration": 4, "velocity": 82}, {"time": 2274, "pitch": 67, "duration": 8, "velocity": 83}, {"time": 2286, "pitch": 58, "duration": 6, "velocity": 81}, {"time": 2286, "pitch": 63, "duration": 5, "velocity": 86}, {"time": 2298, "pitch": 44, "duration": 39, "velocity": 92}, {"time": 2298, "pitch": 56, "duration": 7, "velocity": 87}, {"time": 2298, "pitch": 60, "duration": 7, "velocity": 86}, {"time": 2304, "pitch": 51, "duration": 33, "velocity": 76}, {"time": 2310, "pitch": 56, "duration": 3, "velocity": 91}, {"time": 2310, "pitch": 63, "duration": 6, "velocity": 91}, {"time": 2316, "pitch": 56, "duration": 5, "velocity": 86}, {"time": 2322, "pitch": 60, "duration": 7, "velocity": 74}, {"time": 2328, "pitch": 56, "duration": 3, "velocity": 78}, {"time": 2334, "pitch": 56, "duration": 3, "velocity": 92}, {"time": 2334, "pitch": 60, "duration": 3, "velocity": 93}, {"time": 2334, "pitch": 63, "duration": 4, "velocity": 92}, {"time": 2340, "pitch": 44, "duration": 3, "velocity": 92}, {"time": 2346, "pitch": 48, "duration": 40, "velocity": 92}, {"time": 2346, "pitch": 60, "duration": 10, "velocity": 88}, {"time": 2346, "pitch": 63, "duration": 10, "velocity": 91}, {"time": 2352, "pitch": 55, "duration": 10, "velocity": 78}, {"time": 2358, "pitch": 60, "duration": 8, "velocity": 91}, {"time": 2358, "pitch": 67, "duration": 11, "velocity": 85}, {"time": 2364, "pitch": 55, "duration": 8, "velocity": 68}, {"time": 2370, "pitch": 60, "duration": 7, "velocity": 81}, {"time": 2370, "pitch": 63, "duration": 6, "velocity": 83}, {"time": 2376, "pitch": 55, "duration": 7, "velocity": 62}, {"time": 2382, "pitch": 60, "duration": 3, "velocity": 91}, {"time": 2382, "pitch": 63, "duration": 5, "velocity": 92}, {"time": 2382, "pitch": 67, "duration": 6, "velocity": 92}, {"time": 2388, "pitch": 60, "duration": 14, "velocity": 84}, {"time": 2394, "pitch": 41, "duration": 37, "velocity": 91}, {"time": 2394, "pitch": 65, "duration": 8, "velocity": 90}, {"time": 2394, "pitch": 68, "duration": 8, "velocity": 86}, {"time": 2400, "pitch": 48, "duration": 31, "velocity": 73}, {"time": 2406, "pitch": 60, "duration": 2, "velocity": 84}, {"time": 2406, "pitch": 65, "duration": 7, "velocity": 91}, {"time": 2412, "pitch": 60, "duration": 7, "velocity": 80}, {"time": 2418, "pitch": 65, "duration": 7, "velocity": 91}, {"time": 2418, "pitch": 68, "duration": 7, "velocity": 85}, {"time": 2424, "pitch": 60, "duration": 4, "velocity": 75}, {"time": 2430, "pitch": 65, "duration": 6, "velocity": 94}, {"time": 2430, "pitch": 68, "duration": 8, "velocity": 93}, {"time": 2436, "pitch": 60, "duration": 4, "velocity": 88}, {"time": 2442, "pitch": 48, "duration": 39, "velocity": 92}, {"time": 2442, "pitch": 60, "duration": 10, "velocity": 88}, {"time": 2442, "pitch": 63, "duration": 10, "velocity": 89}, {"time": 2448, "pitch": 55, "duration": 21, "velocity": 79}, {"time": 2454, "pitch": 63, "duration": 7, "velocity": 91}, {"time": 2454, "pitch": 67, "duration": 8, "velocity": 88}, {"time": 2460, "pitch": 60, "duration": 3, "velocity": 50}, {"time": 2466, "pitch": 60, "duration": 4, "velocity": 83}, {"time": 2466, "pitch": 63, "duration": 6, "velocity": 86}, {"time": 2472, "pitch": 55, "duration": 7, "velocity": 71}, {"time": 2478, "pitch": 60, "duration": 7, "velocity": 91}, {"time": 2478, "pitch": 63, "duration": 7, "velocity": 93}, {"time": 2490, "pitch": 49, "duration": 40, "velocity": 94}, {"time": 2490, "pitch": 56, "duration": 4, "velocity": 85}, {"time": 2490, "pitch": 61, "duration": 8, "velocity": 85}, {"time": 2496, "pitch": 56, "duration": 8, "velocity": 85}, {"time": 2502, "pitch": 61, "duration": 7, "velocity": 92}, {"time": 2502, "pitch": 65, "duration": 7, "velocity": 95}, {"time": 2508, "pitch": 56, "duration": 2, "velocity": 72}, {"time": 2514, "pitch": 56, "duration": 3, "velocity": 78}, {"time": 2514, "pitch": 61, "duration": 6, "velocity": 81}, {"time": 2526, "pitch": 56, "duration": 3, "velocity": 91}, {"time": 2526, "pitch": 61, "duration": 6, "velocity": 94}, {"time": 2526, "pitch": 65, "duration": 6, "velocity": 96}, {"time": 2538, "pitch": 48, "duration": 14, "velocity": 94}, {"time": 2538, "pitch": 60, "duration": 9, "velocity": 86}, {"time": 2538, "pitch": 63, "duration": 9, "velocity": 88}, {"time": 2544, "pitch": 55, "duration": 7, "velocity": 83}, {"time": 2550, "pitch": 60, "duration": 3, "velocity": 88}, {"time": 2550, "pitch": 63, "duration": 6, "velocity": 93}, {"time": 2550, "pitch": 67, "duration": 6, "velocity": 91}, {"time": 2556, "pitch": 60, "duration": 5, "velocity": 80}, {"time": 2562, "pitch": 41, "duration": 15, "velocity": 93}, {"time": 2562, "pitch": 60, "duration": 6, "velocity": 85}, {"time": 2562, "pitch": 68, "duration": 10, "velocity": 87}, {"time": 2568, "pitch": 48, "duration": 8, "velocity": 76}, {"time": 2574, "pitch": 60, "duration": 3, "velocity": 92}, {"time": 2574, "pitch": 65, "duration": 6, "velocity": 94}, {"time": 2580, "pitch": 60, "duration": 4, "velocity": 92}, {"time": 2586, "pitch": 46, "duration": 19, "velocity": 92}, {"time": 2586, "pitch": 58, "duration": 13, "velocity": 86}, {"time": 2586, "pitch": 61, "duration": 9, "velocity": 91}, {"time": 2592, "pitch": 53, "duration": 12, "velocity": 75}, {"time": 2598, "pitch": 61, "duration": 6, "velocity": 92}, {"time": 2598, "pitch": 65, "duration": 6, "velocity": 92}, {"time": 2604, "pitch": 58, "duration": 5, "velocity": 83}, {"time": 2610, "pitch": 39, "duration": 15, "velocity": 95}, {"time": 2610, "pitch": 58, "duration": 7, "velocity": 90}, {"time": 2610, "pitch": 63, "duration": 9, "velocity": 91}, {"time": 2616, "pitch": 46, "duration": 8, "velocity": 74}, {"time": 2622, "pitch": 58, "duration": 3, "velocity": 87}, {"time": 2622, "pitch": 63, "duration": 7, "velocity": 91}, {"time": 2622, "pitch": 67, "duration": 6, "velocity": 87}, {"time": 2628, "pitch": 58, "duration": 2, "velocity": 86}, {"time": 2634, "pitch": 44, "duration": 48, "velocity": 91}, {"time": 2634, "pitch": 56, "duration": 8, "velocity": 86}, {"time": 2634, "pitch": 60, "duration": 7, "velocity": 86}, {"time": 2640, "pitch": 51, "duration": 9, "velocity": 75}, {"time": 2646, "pitch": 56, "duration": 4, "velocity": 91}, {"time": 2646, "pitch": 60, "duration": 4, "velocity": 91}, {"time": 2646, "pitch": 63, "duration": 4, "velocity": 91}, {"time": 2652, "pitch": 51, "duration": 9, "velocity": 70}, {"time": 2655, "pitch": 56, "duration": 2, "velocity": 83}, {"time": 2658, "pitch": 56, "duration": 6, "velocity": 91}, {"time": 2658, "pitch": 60, "duration": 6, "velocity": 93}, {"time": 2658, "pitch": 63, "duration": 7, "velocity": 92}, {"time": 2664, "pitch": 51, "duration": 8, "velocity": 76}, {"time": 2667, "pitch": 56, "duration": 2, "velocity": 78}, {"time": 2670, "pitch": 56, "duration": 3, "velocity": 86}, {"time": 2670, "pitch": 60, "duration": 13, "velocity": 94}, {"time": 2670, "pitch": 63, "duration": 13, "velocity": 94}, {"time": 2670, "pitch": 68, "duration": 13, "velocity": 91}, {"time": 2676, "pitch": 51, "duration": 6, "velocity": 91}, {"time": 2682, "pitch": 44, "duration": 22, "velocity": 91}, {"time": 2688, "pitch": 51, "duration": 10, "velocity": 85}, {"time": 2694, "pitch": 60, "duration": 8, "velocity": 94}, {"time": 2694, "pitch": 63, "duration": 8, "velocity": 93}, {"time": 2700, "pitch": 51, "duration": 4, "velocity": 78}, {"time": 2703, "pitch": 56, "duration": 2, "velocity": 80}, {"time": 2706, "pitch": 44, "duration": 5, "velocity": 93}, {"time": 2706, "pitch": 56, "duration": 4, "velocity": 91}, {"time": 2706, "pitch": 60, "duration": 4, "velocity": 92}, {"time": 2706, "pitch": 63, "duration": 4, "velocity": 92}, {"time": 2712, "pitch": 44, "duration": 3, "velocity": 76}, {"time": 2712, "pitch": 51, "duration": 3, "velocity": 80}, {"time": 2712, "pitch": 56, "duration": 3, "velocity": 76}, {"time": 2712, "pitch": 60, "duration": 3, "velocity": 72}, {"time": 2712, "pitch": 63, "duration": 3, "velocity": 71}, {"time": 2712, "pitch": 68, "duration": 3, "velocity": 61}, {"time": 2718, "pitch": 44, "duration": 12, "velocity": 95}, {"time": 2718, "pitch": 51, "duration": 12, "velocity": 100}, {"time": 2718, "pitch": 56, "duration": 5, "velocity": 96}, {"time": 2718, "pitch": 60, "duration": 11, "velocity": 102}, {"time": 2718, "pitch": 63, "duration": 11, "velocity": 98}, {"time": 2718, "pitch": 68, "duration": 12, "velocity": 92}, {"time": 2724, "pitch": 56, "duration": 5, "velocity": 91}, {"time": 2730, "pitch": 44, "duration": 23, "velocity": 92}, {"time": 2730, "pitch": 56, "duration": 10, "velocity": 91}, {"time": 2730, "pitch": 60, "duration": 10, "velocity": 90}, {"time": 2730, "pitch": 63, "duration": 10, "velocity": 91}, {"time": 2736, "pitch": 51, "duration": 17, "velocity": 84}, {"time": 2742, "pitch": 56, "duration": 6, "velocity": 94}, {"time": 2742, "pitch": 60, "duration": 6, "velocity": 98}, {"time": 2742, "pitch": 63, "duration": 6, "velocity": 96}, {"time": 2754, "pitch": 44, "duration": 14, "velocity": 91}, {"time": 2754, "pitch": 56, "duration": 6, "velocity": 87}, {"time": 2754, "pitch": 60, "duration": 7, "velocity": 92}, {"time": 2754, "pitch": 63, "duration": 7, "velocity": 91}, {"time": 2760, "pitch": 51, "duration": 8, "velocity": 81}, {"time": 2763, "pitch": 56, "duration": 2, "velocity": 91}, {"time": 2766, "pitch": 56, "duration": 3, "velocity": 95}, {"time": 2766, "pitch": 60, "duration": 3, "velocity": 100}, {"time": 2766, "pitch": 63, "duration": 4, "velocity": 95}, {"time": 2778, "pitch": 48, "duration": 21, "velocity": 92}, {"time": 2778, "pitch": 60, "duration": 7, "velocity": 91}, {"time": 2778, "pitch": 63, "duration": 7, "velocity": 92}, {"time": 2778, "pitch": 67, "duration": 7, "velocity": 91}, {"time": 2784, "pitch": 55, "duration": 9, "velocity": 80}, {"time": 2790, "pitch": 60, "duration": 3, "velocity": 96}, {"time": 2790, "pitch": 63, "duration": 4, "velocity": 97}, {"time": 2790, "pitch": 67, "duration": 4, "velocity": 96}, {"time": 2796, "pitch": 55, "duration": 4, "velocity": 73}, {"time": 2799, "pitch": 60, "duration": 2, "velocity": 89}, {"time": 2802, "pitch": 48, "duration": 15, "velocity": 92}, {"time": 2802, "pitch": 60, "duration": 6, "velocity": 92}, {"time": 2802, "pitch": 63, "duration": 6, "velocity": 91}, {"time": 2802, "pitch": 67, "duration": 6, "velocity": 87}, {"time": 2808, "pitch": 55, "duration": 8, "velocity": 80}, {"time": 2814, "pitch": 60, "duration": 4, "velocity": 93}, {"time": 2814, "pitch": 63, "duration": 6, "velocity": 96}, {"time": 2814, "pitch": 67, "duration": 6, "velocity": 97}, {"time": 2820, "pitch": 48, "duration": 3, "velocity": 93}, {"time": 2820, "pitch": 60, "duration": 5, "velocity": 85}, {"time": 2826, "pitch": 41, "duration": 22, "velocity": 93}, {"time": 2826, "pitch": 60, "duration": 6, "velocity": 86}, {"time": 2826, "pitch": 65, "duration": 7, "velocity": 92}, {"time": 2832, "pitch": 48, "duration": 11, "velocity": 73}, {"time": 2838, "pitch": 60, "duration": 4, "velocity": 94}, {"time": 2838, "pitch": 65, "duration": 4, "velocity": 98}, {"time": 2838, "pitch": 68, "duration": 5, "velocity": 92}, {"time": 2847, "pitch": 60, "duration": 3, "velocity": 91}, {"time": 2850, "pitch": 41, "duration": 15, "velocity": 94}, {"time": 2850, "pitch": 60, "duration": 7, "velocity": 91}, {"time": 2850, "pitch": 65, "duration": 7, "velocity": 95}, {"time": 2850, "pitch": 68, "duration": 7, "velocity": 91}, {"time": 2856, "pitch": 48, "duration": 9, "velocity": 81}, {"time": 2862, "pitch": 60, "duration": 3, "velocity": 94}, {"time": 2862, "pitch": 65, "duration": 4, "velocity": 102}, {"time": 2862, "pitch": 68, "duration": 9, "velocity": 96}, {"time": 2868, "pitch": 60, "duration": 4, "velocity": 97}, {"time": 2874, "pitch": 48, "duration": 20, "velocity": 92}, {"time": 2874, "pitch": 60, "duration": 7, "velocity": 92}, {"time": 2874, "pitch": 63, "duration": 7, "velocity": 91}, {"time": 2874, "pitch": 67, "duration": 6, "velocity": 92}, {"time": 2880, "pitch": 55, "duration": 9, "velocity": 74}, {"time": 2886, "pitch": 60, "duration": 6, "velocity": 93}, {"time": 2886, "pitch": 63, "duration": 7, "velocity": 97}, {"time": 2886, "pitch": 67, "duration": 9, "velocity": 94}, {"time": 2892, "pitch": 55, "duration": 5, "velocity": 78}, {"time": 2895, "pitch": 60, "duration": 10, "velocity": 93}, {"time": 2898, "pitch": 48, "duration": 18, "velocity": 93}, {"time": 2898, "pitch": 63, "duration": 10, "velocity": 92}, {"time": 2898, "pitch": 67, "duration": 11, "velocity": 92}, {"time": 2904, "pitch": 55, "duration": 7, "velocity": 82}, {"time": 2907, "pitch": 60, "duration": 2, "velocity": 86}, {"time": 2910, "pitch": 60, "duration": 4, "velocity": 96}, {"time": 2910, "pitch": 63, "duration": 7, "velocity": 94}, {"time": 2913, "pitch": 55, "duration": 2, "velocity": 85}, {"time": 2916, "pitch": 60, "duration": 4, "velocity": 94}, {"time": 2922, "pitch": 41, "duration": 23, "velocity": 95}, {"time": 2922, "pitch": 60, "duration": 9, "velocity": 92}, {"time": 2922, "pitch": 65, "duration": 8, "velocity": 94}, {"time": 2928, "pitch": 48, "duration": 17, "velocity": 79}, {"time": 2934, "pitch": 60, "duration": 4, "velocity": 97}, {"time": 2934, "pitch": 65, "duration": 5, "velocity": 100}, {"time": 2934, "pitch": 68, "duration": 5, "velocity": 92}, {"time": 2943, "pitch": 60, "duration": 2, "velocity": 84}, {"time": 2946, "pitch": 41, "duration": 16, "velocity": 92}, {"time": 2946, "pitch": 60, "duration": 9, "velocity": 93}, {"time": 2946, "pitch": 65, "duration": 9, "velocity": 97}, {"time": 2952, "pitch": 48, "duration": 9, "velocity": 76}, {"time": 2958, "pitch": 60, "duration": 3, "velocity": 96}, {"time": 2958, "pitch": 65, "duration": 5, "velocity": 98}, {"time": 2958, "pitch": 68, "duration": 8, "velocity": 94}, {"time": 2964, "pitch": 60, "duration": 5, "velocity": 96}, {"time": 2970, "pitch": 48, "duration": 16, "velocity": 91}, {"time": 2970, "pitch": 60, "duration": 9, "velocity": 91}, {"time": 2970, "pitch": 63, "duration": 8, "velocity": 91}, {"time": 2970, "pitch": 67, "duration": 8, "velocity": 92}, {"time": 2976, "pitch": 55, "duration": 8, "velocity": 79}, {"time": 2982, "pitch": 60, "duration": 3, "velocity": 94}, {"time": 2982, "pitch": 63, "duration": 7, "velocity": 96}, {"time": 2982, "pitch": 67, "duration": 7, "velocity": 93}, {"time": 2988, "pitch": 60, "duration": 8, "velocity": 92}, {"time": 2994, "pitch": 41, "duration": 19, "velocity": 93}, {"time": 2994, "pitch": 65, "duration": 7, "velocity": 92}, {"time": 2994, "pitch": 68, "duration": 6, "velocity": 88}, {"time": 3000, "pitch": 48, "duration": 8, "velocity": 75}, {"time": 3003, "pitch": 60, "duration": 2, "velocity": 87}, {"time": 3006, "pitch": 60, "duration": 4, "velocity": 97}, {"time": 3006, "pitch": 65, "duration": 5, "velocity": 100}, {"time": 3006, "pitch": 68, "duration": 4, "velocity": 93}, {"time": 3012, "pitch": 48, "duration": 2, "velocity": 90}, {"time": 3018, "pitch": 46, "duration": 15, "velocity": 93}, {"time": 3018, "pitch": 58, "duration": 8, "velocity": 89}, {"time": 3018, "pitch": 61, "duration": 8, "velocity": 90}, {"time": 3024, "pitch": 53, "duration": 8, "velocity": 80}, {"time": 3030, "pitch": 58, "duration": 5, "velocity": 92}, {"time": 3030, "pitch": 61, "duration": 6, "velocity": 97}, {"time": 3030, "pitch": 65, "duration": 6, "velocity": 97}, {"time": 3036, "pitch": 46, "duration": 2, "velocity": 91}, {"time": 3042, "pitch": 39, "duration": 2, "velocity": 97}, {"time": 3042, "pitch": 58, "duration": 7, "velocity": 92}, {"time": 3042, "pitch": 63, "duration": 10, "velocity": 93}, {"time": 3048, "pitch": 51, "duration": 13, "velocity": 91}, {"time": 3051, "pitch": 58, "duration": 2, "velocity": 92}, {"time": 3054, "pitch": 58, "duration": 4, "velocity": 97}, {"time": 3054, "pitch": 63, "duration": 6, "velocity": 97}, {"time": 3054, "pitch": 67, "duration": 6, "velocity": 94}, {"time": 3060, "pitch": 58, "duration": 2, "velocity": 96}, {"time": 3066, "pitch": 44, "duration": 41, "velocity": 92}, {"time": 3066, "pitch": 56, "duration": 10, "velocity": 91}, {"time": 3066, "pitch": 60, "duration": 7, "velocity": 92}, {"time": 3072, "pitch": 51, "duration": 9, "velocity": 80}, {"time": 3078, "pitch": 56, "duration": 7, "velocity": 92}, {"time": 3078, "pitch": 60, "duration": 8, "velocity": 94}, {"time": 3078, "pitch": 63, "duration": 10, "velocity": 93}, {"time": 3084, "pitch": 51, "duration": 10, "velocity": 80}, {"time": 3087, "pitch": 56, "duration": 13, "velocity": 87}, {"time": 3090, "pitch": 60, "duration": 8, "velocity": 95}, {"time": 3090, "pitch": 63, "duration": 10, "velocity": 92}, {"time": 3096, "pitch": 51, "duration": 9, "velocity": 76}, {"time": 3102, "pitch": 56, "duration": 1, "velocity": 82}, {"time": 3102, "pitch": 60, "duration": 4, "velocity": 96}, {"time": 3102, "pitch": 63, "duration": 4, "velocity": 93}, {"time": 3102, "pitch": 68, "duration": 5, "velocity": 89}, {"time": 3108, "pitch": 56, "duration": 4, "velocity": 80}, {"time": 3114, "pitch": 39, "duration": 4, "velocity": 93}, {"time": 3120, "pitch": 39, "duration": 3, "velocity": 95}, {"time": 3120, "pitch": 51, "duration": 4, "velocity": 83}, {"time": 3120, "pitch": 55, "duration": 3, "velocity": 76}, {"time": 3120, "pitch": 58, "duration": 4, "velocity": 82}, {"time": 3126, "pitch": 39, "duration": 3, "velocity": 98}, {"time": 3126, "pitch": 51, "duration": 3, "velocity": 92}, {"time": 3126, "pitch": 55, "duration": 3, "velocity": 88}, {"time": 3126, "pitch": 58, "duration": 3, "velocity": 92}, {"time": 3126, "pitch": 63, "duration": 3, "velocity": 91}, {"time": 3132, "pitch": 39, "duration": 4, "velocity": 95}, {"time": 3132, "pitch": 51, "duration": 4, "velocity": 91}, {"time": 3132, "pitch": 55, "duration": 4, "velocity": 91}, {"time": 3132, "pitch": 58, "duration": 4, "velocity": 92}, {"time": 3132, "pitch": 63, "duration": 4, "velocity": 91}, {"time": 3138, "pitch": 39, "duration": 14, "velocity": 102}, {"time": 3138, "pitch": 51, "duration": 6, "velocity": 94}, {"time": 3138, "pitch": 55, "duration": 7, "velocity": 95}, {"time": 3138, "pitch": 58, "duration": 10, "velocity": 94}, {"time": 3138, "pitch": 63, "duration": 10, "velocity": 92}, {"time": 3144, "pitch": 46, "duration": 7, "velocity": 92}, {"time": 3147, "pitch": 51, "duration": 2, "velocity": 92}, {"time": 3150, "pitch": 51, "duration": 4, "velocity": 107}, {"time": 3150, "pitch": 55, "duration": 5, "velocity": 102}, {"time": 3150, "pitch": 58, "duration": 5, "velocity": 102}, {"time": 3150, "pitch": 63, "duration": 6, "velocity": 93}, {"time": 3153, "pitch": 39, "duration": 1, "velocity": 81}, {"time": 3153, "pitch": 46, "duration": 7, "velocity": 97}, {"time": 3153, "pitch": 58, "duration": 2, "velocity": 72}, {"time": 3156, "pitch": 51, "duration": 5, "velocity": 107}, {"time": 3156, "pitch": 63, "duration": 4, "velocity": 56}, {"time": 3159, "pitch": 55, "duration": 3, "velocity": 87}, {"time": 3162, "pitch": 44, "duration": 23, "velocity": 92}, {"time": 3162, "pitch": 56, "duration": 10, "velocity": 91}, {"time": 3162, "pitch": 60, "duration": 10, "velocity": 90}, {"time": 3162, "pitch": 63, "duration": 10, "velocity": 91}, {"time": 3168, "pitch": 51, "duration": 17, "velocity": 84}, {"time": 3174, "pitch": 56, "duration": 6, "velocity": 94}, {"time": 3174, "pitch": 60, "duration": 6, "velocity": 98}, {"time": 3174, "pitch": 63, "duration": 6, "velocity": 96}, {"time": 3186, "pitch": 44, "duration": 14, "velocity": 91}, {"time": 3186, "pitch": 56, "duration": 6, "velocity": 87}, {"time": 3186, "pitch": 60, "duration": 7, "velocity": 92}, {"time": 3186, "pitch": 63, "duration": 7, "velocity": 91}, {"time": 3192, "pitch": 51, "duration": 8, "velocity": 81}, {"time": 3195, "pitch": 56, "duration": 2, "velocity": 91}, {"time": 3198, "pitch": 56, "duration": 3, "velocity": 95}, {"time": 3198, "pitch": 60, "duration": 3, "velocity": 100}, {"time": 3198, "pitch": 63, "duration": 4, "velocity": 95}, {"time": 3210, "pitch": 48, "duration": 21, "velocity": 92}, {"time": 3210, "pitch": 60, "duration": 7, "velocity": 91}, {"time": 3210, "pitch": 63, "duration": 7, "velocity": 92}, {"time": 3210, "pitch": 67, "duration": 7, "velocity": 91}, {"time": 3216, "pitch": 55, "duration": 9, "velocity": 80}, {"time": 3222, "pitch": 60, "duration": 3, "velocity": 96}, {"time": 3222, "pitch": 63, "duration": 4, "velocity": 97}, {"time": 3222, "pitch": 67, "duration": 4, "velocity": 96}, {"time": 3228, "pitch": 55, "duration": 4, "velocity": 73}, {"time": 3231, "pitch": 60, "duration": 2, "velocity": 89}, {"time": 3234, "pitch": 48, "duration": 15, "velocity": 92}, {"time": 3234, "pitch": 60, "duration": 6, "velocity": 92}, {"time": 3234, "pitch": 63, "duration": 6, "velocity": 91}, {"time": 3234, "pitch": 67, "duration": 6, "velocity": 87}, {"time": 3240, "pitch": 55, "duration": 8, "velocity": 80}, {"time": 3246, "pitch": 60, "duration": 4, "velocity": 93}, {"time": 3246, "pitch": 63, "duration": 6, "velocity": 96}, {"time": 3246, "pitch": 67, "duration": 6, "velocity": 97}, {"time": 3252, "pitch": 48, "duration": 3, "velocity": 93}, {"time": 3252, "pitch": 60, "duration": 5, "velocity": 85}, {"time": 3258, "pitch": 41, "duration": 22, "velocity": 93}, {"time": 3258, "pitch": 60, "duration": 6, "velocity": 86}, {"time": 3258, "pitch": 65, "duration": 7, "velocity": 92}, {"time": 3264, "pitch": 48, "duration": 11, "velocity": 73}, {"time": 3270, "pitch": 60, "duration": 4, "velocity": 94}, {"time": 3270, "pitch": 65, "duration": 4, "velocity": 98}, {"time": 3270, "pitch": 68, "duration": 5, "velocity": 92}, {"time": 3279, "pitch": 60, "duration": 3, "velocity": 91}, {"time": 3282, "pitch": 41, "duration": 15, "velocity": 94}, {"time": 3282, "pitch": 60, "duration": 7, "velocity": 91}, {"time": 3282, "pitch": 65, "duration": 7, "velocity": 95}, {"time": 3282, "pitch": 68, "duration": 7, "velocity": 91}, {"time": 3288, "pitch": 48, "duration": 9, "velocity": 81}, {"time": 3294, "pitch": 60, "duration": 3, "velocity": 94}, {"time": 3294, "pitch": 65, "duration": 4, "velocity": 102}, {"time": 3294, "pitch": 68, "duration": 9, "velocity": 96}, {"time": 3300, "pitch": 60, "duration": 4, "velocity": 97}, {"time": 3306, "pitch": 48, "duration": 20, "velocity": 92}, {"time": 3306, "pitch": 60, "duration": 7, "velocity": 92}, {"time": 3306, "pitch": 63, "duration": 7, "velocity": 91}, {"time": 3306, "pitch": 67, "duration": 6, "velocity": 92}, {"time": 3312, "pitch": 55, "duration": 9, "velocity": 74}, {"time": 3318, "pitch": 60, "duration": 6, "velocity": 93}, {"time": 3318, "pitch": 63, "duration": 7, "velocity": 97}, {"time": 3318, "pitch": 67, "duration": 9, "velocity": 94}, {"time": 3324, "pitch": 55, "duration": 5, "velocity": 78}, {"time": 3327, "pitch": 60, "duration": 10, "velocity": 93}, {"time": 3330, "pitch": 48, "duration": 18, "velocity": 93}, {"time": 3330, "pitch": 63, "duration": 10, "velocity": 92}, {"time": 3330, "pitch": 67, "duration": 11, "velocity": 92}, {"time": 3336, "pitch": 55, "duration": 7, "velocity": 82}, {"time": 3339, "pitch": 60, "duration": 2, "velocity": 86}, {"time": 3342, "pitch": 60, "duration": 4, "velocity": 96}, {"time": 3342, "pitch": 63, "duration": 7, "velocity": 94}, {"time": 3345, "pitch": 55, "duration": 2, "velocity": 85}, {"time": 3348, "pitch": 60, "duration": 4, "velocity": 94}, {"time": 3354, "pitch": 41, "duration": 23, "velocity": 95}, {"time": 3354, "pitch": 60, "duration": 9, "velocity": 92}, {"time": 3354, "pitch": 65, "duration": 8, "velocity": 94}, {"time": 3360, "pitch": 48, "duration": 17, "velocity": 79}, {"time": 3366, "pitch": 60, "duration": 4, "velocity": 97}, {"time": 3366, "pitch": 65, "duration": 5, "velocity": 100}, {"time": 3366, "pitch": 68, "duration": 5, "velocity": 92}, {"time": 3375, "pitch": 60, "duration": 2, "velocity": 84}, {"time": 3378, "pitch": 41, "duration": 16, "velocity": 92}, {"time": 3378, "pitch": 60, "duration": 9, "velocity": 93}, {"time": 3378, "pitch": 65, "duration": 9, "velocity": 97}, {"time": 3384, "pitch": 48, "duration": 9, "velocity": 76}, {"time": 3390, "pitch": 60, "duration": 3, "velocity": 96}, {"time": 3390, "pitch": 65, "duration": 5, "velocity": 98}, {"time": 3390, "pitch": 68, "duration": 8, "velocity": 94}, {"time": 3396, "pitch": 60, "duration": 5, "velocity": 96}, {"time": 3402, "pitch": 48, "duration": 16, "velocity": 91}, {"time": 3402, "pitch": 60, "duration": 9, "velocity": 91}, {"time": 3402, "pitch": 63, "duration": 8, "velocity": 91}, {"time": 3402, "pitch": 67, "duration": 8, "velocity": 92}, {"time": 3408, "pitch": 55, "duration": 8, "velocity": 79}, {"time": 3414, "pitch": 60, "duration": 3, "velocity": 94}, {"time": 3414, "pitch": 63, "duration": 7, "velocity": 96}, {"time": 3414, "pitch": 67, "duration": 7, "velocity": 93}, {"time": 3420, "pitch": 60, "duration": 8, "velocity": 92}, {"time": 3426, "pitch": 41, "duration": 19, "velocity": 93}, {"time": 3426, "pitch": 65, "duration": 7, "velocity": 92}, {"time": 3426, "pitch": 68, "duration": 6, "velocity": 88}, {"time": 3432, "pitch": 48, "duration": 8, "velocity": 75}, {"time": 3435, "pitch": 60, "duration": 2, "velocity": 87}, {"time": 3438, "pitch": 60, "duration": 4, "velocity": 97}, {"time": 3438, "pitch": 65, "duration": 5, "velocity": 100}, {"time": 3438, "pitch": 68, "duration": 4, "velocity": 93}, {"time": 3444, "pitch": 48, "duration": 2, "velocity": 90}, {"time": 3450, "pitch": 46, "duration": 15, "velocity": 93}, {"time": 3450, "pitch": 58, "duration": 8, "velocity": 89}, {"time": 3450, "pitch": 61, "duration": 8, "velocity": 90}, {"time": 3456, "pitch": 53, "duration": 8, "velocity": 80}, {"time": 3462, "pitch": 58, "duration": 5, "velocity": 92}, {"time": 3462, "pitch": 61, "duration": 6, "velocity": 97}, {"time": 3462, "pitch": 65, "duration": 6, "velocity": 97}, {"time": 3468, "pitch": 46, "duration": 2, "velocity": 91}, {"time": 3474, "pitch": 39, "duration": 2, "velocity": 97}, {"time": 3474, "pitch": 58, "duration": 7, "velocity": 92}, {"time": 3474, "pitch": 63, "duration": 10, "velocity": 93}, {"time": 3480, "pitch": 51, "duration": 13, "velocity": 91}, {"time": 3483, "pitch": 58, "duration": 2, "velocity": 92}, {"time": 3486, "pitch": 58, "duration": 4, "velocity": 97}, {"time": 3486, "pitch": 63, "duration": 6, "velocity": 97}, {"time": 3486, "pitch": 67, "duration": 6, "velocity": 94}, {"time": 3492, "pitch": 58, "duration": 2, "velocity": 96}, {"time": 3498, "pitch": 44, "duration": 41, "velocity": 92}, {"time": 3498, "pitch": 56, "duration": 10, "velocity": 91}, {"time": 3498, "pitch": 60, "duration": 7, "velocity": 92}, {"time": 3504, "pitch": 51, "duration": 9, "velocity": 80}, {"time": 3510, "pitch": 56, "duration": 7, "velocity": 92}, {"time": 3510, "pitch": 60, "duration": 8, "velocity": 94}, {"time": 3510, "pitch": 63, "duration": 10, "velocity": 93}, {"time": 3516, "pitch": 51, "duration": 10, "velocity": 80}, {"time": 3519, "pitch": 56, "duration": 13, "velocity": 87}, {"time": 3522, "pitch": 60, "duration": 8, "velocity": 95}, {"time": 3522, "pitch": 63, "duration": 10, "velocity": 92}, {"time": 3528, "pitch": 51, "duration": 9, "velocity": 76}, {"time": 3534, "pitch": 56, "duration": 1, "velocity": 82}, {"time": 3534, "pitch": 60, "duration": 4, "velocity": 96}, {"time": 3534, "pitch": 63, "duration": 4, "velocity": 93}, {"time": 3534, "pitch": 68, "duration": 5, "velocity": 89}, {"time": 3540, "pitch": 56, "duration": 4, "velocity": 80}, {"time": 3546, "pitch": 39, "duration": 4, "velocity": 93}, {"time": 3552, "pitch": 39, "duration": 3, "velocity": 95}, {"time": 3552, "pitch": 51, "duration": 4, "velocity": 83}, {"time": 3552, "pitch": 55, "duration": 3, "velocity": 76}, {"time": 3552, "pitch": 58, "duration": 4, "velocity": 82}, {"time": 3558, "pitch": 39, "duration": 3, "velocity": 98}, {"time": 3558, "pitch": 51, "duration": 3, "velocity": 92}, {"time": 3558, "pitch": 55, "duration": 3, "velocity": 88}, {"time": 3558, "pitch": 58, "duration": 3, "velocity": 92}, {"time": 3558, "pitch": 63, "duration": 3, "velocity": 91}, {"time": 3564, "pitch": 39, "duration": 4, "velocity": 95}, {"time": 3564, "pitch": 51, "duration": 4, "velocity": 91}, {"time": 3564, "pitch": 55, "duration": 4, "velocity": 91}, {"time": 3564, "pitch": 58, "duration": 4, "velocity": 92}, {"time": 3564, "pitch": 63, "duration": 4, "velocity": 91}, {"time": 3570, "pitch": 39, "duration": 14, "velocity": 102}, {"time": 3570, "pitch": 51, "duration": 6, "velocity": 94}, {"time": 3570, "pitch": 55, "duration": 7, "velocity": 95}, {"time": 3570, "pitch": 58, "duration": 10, "velocity": 94}, {"time": 3570, "pitch": 63, "duration": 10, "velocity": 92}, {"time": 3576, "pitch": 46, "duration": 7, "velocity": 92}, {"time": 3579, "pitch": 51, "duration": 2, "velocity": 92}, {"time": 3582, "pitch": 51, "duration": 4, "velocity": 107}, {"time": 3582, "pitch": 55, "duration": 5, "velocity": 102}, {"time": 3582, "pitch": 58, "duration": 5, "velocity": 102}, {"time": 3582, "pitch": 63, "duration": 6, "velocity": 93}, {"time": 3585, "pitch": 39, "duration": 1, "velocity": 81}, {"time": 3585, "pitch": 46, "duration": 7, "velocity": 97}, {"time": 3585, "pitch": 58, "duration": 2, "velocity": 72}, {"time": 3588, "pitch": 51, "duration": 5, "velocity": 107}, {"time": 3588, "pitch": 63, "duration": 4, "velocity": 56}, {"time": 3591, "pitch": 55, "duration": 3, "velocity": 87}, {"time": 3594, "pitch": 44, "duration": 23, "velocity": 92}, {"time": 3594, "pitch": 56, "duration": 10, "velocity": 91}, {"time": 3594, "pitch": 60, "duration": 10, "velocity": 90}, {"time": 3594, "pitch": 63, "duration": 10, "velocity": 91}, {"time": 3600, "pitch": 51, "duration": 17, "velocity": 84}, {"time": 3606, "pitch": 56, "duration": 6, "velocity": 94}, {"time": 3606, "pitch": 60, "duration": 6, "velocity": 98}, {"time": 3606, "pitch": 63, "duration": 6, "velocity": 96}, {"time": 3618, "pitch": 44, "duration": 14, "velocity": 91}, {"time": 3618, "pitch": 56, "duration": 6, "velocity": 87}, {"time": 3618, "pitch": 60, "duration": 7, "velocity": 92}, {"time": 3618, "pitch": 63, "duration": 7, "velocity": 91}, {"time": 3624, "pitch": 51, "duration": 8, "velocity": 81}, {"time": 3627, "pitch": 56, "duration": 2, "velocity": 91}, {"time": 3630, "pitch": 56, "duration": 3, "velocity": 95}, {"time": 3630, "pitch": 60, "duration": 3, "velocity": 100}, {"time": 3630, "pitch": 63, "duration": 4, "velocity": 95}, {"time": 3642, "pitch": 48, "duration": 21, "velocity": 92}, {"time": 3642, "pitch": 60, "duration": 7, "velocity": 91}, {"time": 3642, "pitch": 63, "duration": 7, "velocity": 92}, {"time": 3642, "pitch": 67, "duration": 7, "velocity": 91}, {"time": 3648, "pitch": 55, "duration": 9, "velocity": 80}, {"time": 3654, "pitch": 60, "duration": 3, "velocity": 96}, {"time": 3654, "pitch": 63, "duration": 4, "velocity": 97}, {"time": 3654, "pitch": 67, "duration": 4, "velocity": 96}, {"time": 3660, "pitch": 55, "duration": 4, "velocity": 73}, {"time": 3663, "pitch": 60, "duration": 2, "velocity": 89}, {"time": 3666, "pitch": 48, "duration": 15, "velocity": 92}, {"time": 3666, "pitch": 60, "duration": 6, "velocity": 92}, {"time": 3666, "pitch": 63, "duration": 6, "velocity": 91}, {"time": 3666, "pitch": 67, "duration": 6, "velocity": 87}, {"time": 3672, "pitch": 55, "duration": 8, "velocity": 80}, {"time": 3678, "pitch": 60, "duration": 4, "velocity": 93}, {"time": 3678, "pitch": 63, "duration": 6, "velocity": 96}, {"time": 3678, "pitch": 67, "duration": 6, "velocity": 97}, {"time": 3684, "pitch": 48, "duration": 3, "velocity": 93}, {"time": 3684, "pitch": 60, "duration": 5, "velocity": 85}, {"time": 3690, "pitch": 41, "duration": 22, "velocity": 93}, {"time": 3690, "pitch": 60, "duration": 6, "velocity": 86}, {"time": 3690, "pitch": 65, "duration": 7, "velocity": 92}, {"time": 3696, "pitch": 48, "duration": 11, "velocity": 73}, {"time": 3702, "pitch": 60, "duration": 4, "velocity": 94}, {"time": 3702, "pitch": 65, "duration": 4, "velocity": 98}, {"time": 3702, "pitch": 68, "duration": 5, "velocity": 92}, {"time": 3711, "pitch": 60, "duration": 3, "velocity": 91}, {"time": 3714, "pitch": 41, "duration": 15, "velocity": 94}, {"time": 3714, "pitch": 60, "duration": 7, "velocity": 91}, {"time": 3714, "pitch": 65, "duration": 7, "velocity": 95}, {"time": 3714, "pitch": 68, "duration": 7, "velocity": 91}, {"time": 3720, "pitch": 48, "duration": 9, "velocity": 81}, {"time": 3726, "pitch": 60, "duration": 3, "velocity": 94}, {"time": 3726, "pitch": 65, "duration": 4, "velocity": 102}, {"time": 3726, "pitch": 68, "duration": 9, "velocity": 96}, {"time": 3732, "pitch": 60, "duration": 4, "velocity": 97}, {"time": 3738, "pitch": 48, "duration": 20, "velocity": 92}, {"time": 3738, "pitch": 60, "duration": 7, "velocity": 92}, {"time": 3738, "pitch": 63, "duration": 7, "velocity": 91}, {"time": 3738, "pitch": 67, "duration": 6, "velocity": 92}, {"time": 3744, "pitch": 55, "duration": 9, "velocity": 74}, {"time": 3750, "pitch": 60, "duration": 6, "velocity": 93}, {"time": 3750, "pitch": 63, "duration": 7, "velocity": 97}, {"time": 3750, "pitch": 67, "duration": 9, "velocity": 94}, {"time": 3756, "pitch": 55, "duration": 5, "velocity": 78}, {"time": 3759, "pitch": 60, "duration": 10, "velocity": 93}, {"time": 3762, "pitch": 48, "duration": 18, "velocity": 93}, {"time": 3762, "pitch": 63, "duration": 10, "velocity": 92}, {"time": 3762, "pitch": 67, "duration": 11, "velocity": 92}, {"time": 3768, "pitch": 55, "duration": 7, "velocity": 82}, {"time": 3771, "pitch": 60, "duration": 2, "velocity": 86}, {"time": 3774, "pitch": 60, "duration": 4, "velocity": 96}, {"time": 3774, "pitch": 63, "duration": 7, "velocity": 94}, {"time": 3777, "pitch": 55, "duration": 2, "velocity": 85}, {"time": 3780, "pitch": 60, "duration": 4, "velocity": 94}, {"time": 3786, "pitch": 41, "duration": 23, "velocity": 95}, {"time": 3786, "pitch": 60, "duration": 9, "velocity": 92}, {"time": 3786, "pitch": 65, "duration": 8, "velocity": 94}, {"time": 3792, "pitch": 48, "duration": 17, "velocity": 79}, {"time": 3798, "pitch": 60, "duration": 4, "velocity": 97}, {"time": 3798, "pitch": 65, "duration": 5, "velocity": 100}, {"time": 3798, "pitch": 68, "duration": 5, "velocity": 92}, {"time": 3807, "pitch": 60, "duration": 2, "velocity": 93}, {"time": 3810, "pitch": 41, "duration": 16, "velocity": 88}, {"time": 3810, "pitch": 60, "duration": 9, "velocity": 88}, {"time": 3810, "pitch": 65, "duration": 9, "velocity": 88}, {"time": 3816, "pitch": 48, "duration": 9, "velocity": 82}, {"time": 3822, "pitch": 60, "duration": 3, "velocity": 74}, {"time": 3822, "pitch": 65, "duration": 5, "velocity": 74}, {"time": 3822, "pitch": 68, "duration": 8, "velocity": 74}, {"time": 3828, "pitch": 60, "duration": 5, "velocity": 66}, {"time": 3834, "pitch": 48, "duration": 16, "velocity": 60}, {"time": 3834, "pitch": 60, "duration": 9, "velocity": 60}, {"time": 3834, "pitch": 63, "duration": 8, "velocity": 60}, {"time": 3834, "pitch": 67, "duration": 8, "velocity": 60}, {"time": 3840, "pitch": 55, "duration": 8, "velocity": 52}, {"time": 3846, "pitch": 60, "duration": 3, "velocity": 44}, {"time": 3846, "pitch": 63, "duration": 7, "velocity": 44}, {"time": 3846, "pitch": 67, "duration": 7, "velocity": 44}, {"time": 3852, "pitch": 60, "duration": 8, "velocity": 35}, {"time": 3858, "pitch": 41, "duration": 19, "velocity": 30}, {"time": 3858, "pitch": 65, "duration": 7, "velocity": 30}, {"time": 3858, "pitch": 68, "duration": 6, "velocity": 30}, {"time": 3864, "pitch": 48, "duration": 8, "velocity": 22}, {"time": 3867, "pitch": 60, "duration": 2, "velocity": 19}, {"time": 3870, "pitch": 60, "duration": 4, "velocity": 13}, {"time": 3870, "pitch": 65, "duration": 5, "velocity": 13}, {"time": 3870, "pitch": 68, "duration": 4, "velocity": 13}, {"time": 3876, "pitch": 48, "duration": 2, "velocity": 8}, {"time": 3882, "pitch": 46, "duration": 15, "velocity": 1}, {"time": 3882, "pitch": 58, "duration": 8, "velocity": 1}, {"time": 3882, "pitch": 61, "duration": 8, "velocity": 1}, {"time": 3888, "pitch": 53, "duration": 8, "velocity": 1}], "annotations": [{"time": 42, "annotation": {"number": 64, "value": 127}, "group": "control_change"}, {"time": 88, "annotation": {"number": 64, "value": 0}, "group": "control_change"}, {"time": 90, "annotation": {"number": 64, "value": 127}, "group": "control_change"}, {"time": 139, "annotation": {"number": 64, "value": 0}, "group": "control_change"}, {"time": 141, "annotation": {"number": 64, "value": 127}, "group": "control_change"}, {"time": 185, "annotation": {"number": 64, "value": 0}, "group": "control_change"}, {"time": 187, "annotation": {"number": 64, "value": 127}, "group": "control_change"}, {"time": 209, "annotation": {"number": 64, "value": 0}, "group": "control_change"}, {"time": 211, "annotation": {"number": 64, "value": 127}, "group": "control_change"}, {"time": 233, "annotation": {"number": 64, "value": 0}, "group": "control_change"}, {"time": 236, "annotation": {"number": 64, "value": 127}, "group": "control_change"}, {"time": 280, "annotation": {"number": 64, "value": 0}, "group": "control_change"}, {"time": 282, "annotation": {"number": 64, "value": 127}, "group": "control_change"}, {"time": 305, "annotation": {"number": 64, "value": 0}, "group": "control_change"}, {"time": 307, "annotation": {"number": 64, "value": 127}, "group": "control_change"}, {"time": 330, "annotation": {"number": 64, "value": 0}, "group": "control_change"}, {"time": 332, "annotation": {"number": 64, "value": 127}, "group": "control_change"}, {"time": 353, "annotation": {"number": 64, "value": 0}, "group": "control_change"}, {"time": 355, "annotation": {"number": 64, "value": 127}, "group": "control_change"}, {"time": 377, "annotation": {"number": 64, "value": 0}, "group": "control_change"}, {"time": 379, "annotation": {"number": 64, "value": 127}, "group": "control_change"}, {"time": 425, "annotation": {"number": 64, "value": 0}, "group": "control_change"}, {"time": 428, "annotation": {"number": 64, "value": 127}, "group": "control_change"}, {"time": 474, "annotation": {"number": 64, "value": 0}, "group": "control_change"}, {"time": 482, "annotation": {"number": 64, "value": 127}, "group": "control_change"}, {"time": 482, "annotation": {"number": 64, "value": 0}, "group": "control_change"}, {"time": 483, "annotation": {"number": 64, "value": 127}, "group": "control_change"}, {"time": 483, "annotation": {"number": 64, "value": 0}, "group": "control_change"}, {"time": 485, "annotation": {"number": 64, "value": 127}, "group": "control_change"}, {"time": 520, "annotation": {"number": 64, "value": 0}, "group": "control_change"}, {"time": 528, "annotation": {"number": 64, "value": 127}, "group": "control_change"}, {"time": 568, "annotation": {"number": 64, "value": 0}, "group": "control_change"}, {"time": 582, "annotation": {"number": 64, "value": 127}, "group": "control_change"}, {"time": 616, "annotation": {"number": 64, "value": 0}, "group": "control_change"}, {"time": 623, "annotation": {"number": 64, "value": 127}, "group": "control_change"}, {"time": 665, "annotation": {"number": 64, "value": 0}, "group": "control_change"}, {"time": 671, "annotation": {"number": 64, "value": 127}, "group": "control_change"}, {"time": 689, "annotation": {"number": 64, "value": 0}, "group": "control_change"}, {"time": 695, "annotation": {"number": 64, "value": 127}, "group": "control_change"}, {"time": 713, "annotation": {"number": 64, "value": 0}, "group": "control_change"}, {"time": 720, "annotation": {"number": 64, "value": 127}, "group": "control_change"}, {"time": 760, "annotation": {"number": 64, "value": 0}, "group": "control_change"}, {"time": 767, "annotation": {"number": 64, "value": 127}, "group": "control_change"}, {"time": 808, "annotation": {"number": 64, "value": 0}, "group": "control_change"}, {"time": 814, "annotation": {"number": 64, "value": 127}, "group": "control_change"}, {"time": 857, "annotation": {"number": 64, "value": 0}, "group": "control_change"}, {"time": 862, "annotation": {"number": 64, "value": 127}, "group": "control_change"}, {"time": 904, "annotation": {"number": 64, "value": 0}, "group": "control_change"}, {"time": 911, "annotation": {"number": 64, "value": 127}, "group": "control_change"}, {"time": 952, "annotation": {"number": 64, "value": 0}, "group": "control_change"}, {"time": 960, "annotation": {"number": 64, "value": 127}, "group": "control_change"}, {"time": 1001, "annotation": {"number": 64, "value": 0}, "group": "control_change"}, {"time": 1008, "annotation": {"number": 64, "value": 127}, "group": "control_change"}, {"time": 1050, "annotation": {"number": 64, "value": 0}, "group": "control_change"}, {"time": 1056, "annotation": {"number": 64, "value": 127}, "group": "control_change"}, {"time": 1073, "annotation": {"number": 64, "value": 0}, "group": "control_change"}, {"time": 1079, "annotation": {"number": 64, "value": 127}, "group": "control_change"}, {"time": 1099, "annotation": {"number": 64, "value": 0}, "group": "control_change"}, {"time": 1105, "annotation": {"number": 64, "value": 127}, "group": "control_change"}, {"time": 1121, "annotation": {"number": 64, "value": 0}, "group": "control_change"}, {"time": 1126, "annotation": {"number": 64, "value": 127}, "group": "control_change"}, {"time": 1146, "annotation": {"number": 64, "value": 0}, "group": "control_change"}, {"time": 1152, "annotation": {"number": 64, "value": 127}, "group": "control_change"}, {"time": 1202, "annotation": {"number": 64, "value": 0}, "group": "control_change"}, {"time": 1205, "annotation": {"number": 64, "value": 127}, "group": "control_change"}, {"time": 1239, "annotation": {"number": 64, "value": 0}, "group": "control_change"}, {"time": 1242, "annotation": {"number": 64, "value": 127}, "group": "control_change"}, {"time": 1265, "annotation": {"number": 64, "value": 0}, "group": "control_change"}, {"time": 1266, "annotation": {"number": 64, "value": 127}, "group": "control_change"}, {"time": 1288, "annotation": {"number": 64, "value": 0}, "group": "control_change"}, {"time": 1292, "annotation": {"number": 64, "value": 127}, "group": "control_change"}, {"time": 1313, "annotation": {"number": 64, "value": 0}, "group": "control_change"}, {"time": 1315, "annotation": {"number": 64, "value": 127}, "group": "control_change"}, {"time": 1336, "annotation": {"number": 64, "value": 0}, "group": "control_change"}, {"time": 1339, "annotation": {"number": 64, "value": 127}, "group": "control_change"}, {"time": 1361, "annotation": {"number": 64, "value": 0}, "group": "control_change"}, {"time": 1363, "annotation": {"number": 64, "value": 127}, "group": "control_change"}, {"time": 1384, "annotation": {"number": 64, "value": 0}, "group": "control_change"}, {"time": 1387, "annotation": {"number": 64, "value": 127}, "group": "control_change"}, {"time": 1409, "annotation": {"number": 64, "value": 0}, "group": "control_change"}, {"time": 1410, "annotation": {"number": 64, "value": 127}, "group": "control_change"}, {"time": 1433, "annotation": {"number": 64, "value": 0}, "group": "control_change"}, {"time": 1458, "annotation": {"number": 64, "value": 0}, "group": "control_change"}, {"time": 1460, "annotation": {"number": 64, "value": 127}, "group": "control_change"}, {"time": 1481, "annotation": {"number": 64, "value": 0}, "group": "control_change"}, {"time": 1484, "annotation": {"number": 64, "value": 127}, "group": "control_change"}, {"time": 1504, "annotation": {"number": 64, "value": 0}, "group": "control_change"}, {"time": 1507, "annotation": {"number": 64, "value": 127}, "group": "control_change"}, {"time": 1530, "annotation": {"number": 64, "value": 0}, "group": "control_change"}, {"time": 1535, "annotation": {"number": 64, "value": 127}, "group": "control_change"}, {"time": 1552, "annotation": {"number": 64, "value": 0}, "group": "control_change"}, {"time": 1554, "annotation": {"number": 64, "value": 127}, "group": "control_change"}, {"time": 1577, "annotation": {"number": 64, "value": 0}, "group": "control_change"}, {"time": 1579, "annotation": {"number": 64, "value": 127}, "group": "control_change"}, {"time": 1625, "annotation": {"number": 64, "value": 0}, "group": "control_change"}, {"time": 1632, "annotation": {"number": 64, "value": 127}, "group": "control_change"}, {"time": 1673, "annotation": {"number": 64, "value": 0}, "group": "control_change"}, {"time": 1676, "annotation": {"number": 64, "value": 127}, "group": "control_change"}, {"time": 1721, "annotation": {"number": 64, "value": 0}, "group": "control_change"}, {"time": 1727, "annotation": {"number": 64, "value": 127}, "group": "control_change"}, {"time": 1771, "annotation": {"number": 64, "value": 0}, "group": "control_change"}, {"time": 1776, "annotation": {"number": 64, "value": 127}, "group": "control_change"}, {"time": 1794, "annotation": {"number": 64, "value": 0}, "group": "control_change"}, {"time": 1797, "annotation": {"number": 64, "value": 127}, "group": "control_change"}, {"time": 1818, "annotation": {"number": 64, "value": 0}, "group": "control_change"}, {"time": 1824, "annotation": {"number": 64, "value": 127}, "group": "control_change"}, {"time": 1864, "annotation": {"number": 64, "value": 0}, "group": "control_change"}, {"time": 1888, "annotation": {"number": 64, "value": 127}, "group": "control_change"}, {"time": 1889, "annotation": {"number": 64, "value": 0}, "group": "control_change"}, {"time": 1889, "annotation": {"number": 64, "value": 127}, "group": "control_change"}, {"time": 1914, "annotation": {"number": 64, "value": 0}, "group": "control_change"}, {"time": 1916, "annotation": {"number": 64, "value": 127}, "group": "control_change"}, {"time": 1962, "annotation": {"number": 64, "value": 0}, "group": "control_change"}, {"time": 1970, "annotation": {"number": 64, "value": 127}, "group": "control_change"}, {"time": 1970, "annotation": {"number": 64, "value": 0}, "group": "control_change"}, {"time": 1971, "annotation": {"number": 64, "value": 127}, "group": "control_change"}, {"time": 1971, "annotation": {"number": 64, "value": 0}, "group": "control_change"}, {"time": 1973, "annotation": {"number": 64, "value": 127}, "group": "control_change"}, {"time": 2008, "annotation": {"number": 64, "value": 0}, "group": "control_change"}, {"time": 2016, "annotation": {"number": 64, "value": 127}, "group": "control_change"}, {"time": 2056, "annotation": {"number": 64, "value": 0}, "group": "control_change"}, {"time": 2070, "annotation": {"number": 64, "value": 127}, "group": "control_change"}, {"time": 2104, "annotation": {"number": 64, "value": 0}, "group": "control_change"}, {"time": 2111, "annotation": {"number": 64, "value": 127}, "group": "control_change"}, {"time": 2153, "annotation": {"number": 64, "value": 0}, "group": "control_change"}, {"time": 2159, "annotation": {"number": 64, "value": 127}, "group": "control_change"}, {"time": 2177, "annotation": {"number": 64, "value": 0}, "group": "control_change"}, {"time": 2183, "annotation": {"number": 64, "value": 127}, "group": "control_change"}, {"time": 2201, "annotation": {"number": 64, "value": 0}, "group": "control_change"}, {"time": 2208, "annotation": {"number": 64, "value": 127}, "group": "control_change"}, {"time": 2248, "annotation": {"number": 64, "value": 0}, "group": "control_change"}, {"time": 2255, "annotation": {"number": 64, "value": 127}, "group": "control_change"}, {"time": 2296, "annotation": {"number": 64, "value": 0}, "group": "control_change"}, {"time": 2302, "annotation": {"number": 64, "value": 127}, "group": "control_change"}, {"time": 2345, "annotation": {"number": 64, "value": 0}, "group": "control_change"}, {"time": 2350, "annotation": {"number": 64, "value": 127}, "group": "control_change"}, {"time": 2392, "annotation": {"number": 64, "value": 0}, "group": "control_change"}, {"time": 2399, "annotation": {"number": 64, "value": 127}, "group": "control_change"}, {"time": 2440, "annotation": {"number": 64, "value": 0}, "group": "control_change"}, {"time": 2448, "annotation": {"number": 64, "value": 127}, "group": "control_change"}, {"time": 2489, "annotation": {"number": 64, "value": 0}, "group": "control_change"}, {"time": 2496, "annotation": {"number": 64, "value": 127}, "group": "control_change"}, {"time": 2538, "annotation": {"number": 64, "value": 0}, "group": "control_change"}, {"time": 2544, "annotation": {"number": 64, "value": 127}, "group": "control_change"}, {"time": 2561, "annotation": {"number": 64, "value": 0}, "group": "control_change"}, {"time": 2567, "annotation": {"number": 64, "value": 127}, "group": "control_change"}, {"time": 2587, "annotation": {"number": 64, "value": 0}, "group": "control_change"}, {"time": 2593, "annotation": {"number": 64, "value": 127}, "group": "control_change"}, {"time": 2609, "annotation": {"number": 64, "value": 0}, "group": "control_change"}, {"time": 2614, "annotation": {"number": 64, "value": 127}, "group": "control_change"}, {"time": 2634, "annotation": {"number": 64, "value": 0}, "group": "control_change"}, {"time": 2640, "annotation": {"number": 64, "value": 127}, "group": "control_change"}, {"time": 2690, "annotation": {"number": 64, "value": 0}, "group": "control_change"}, {"time": 2693, "annotation": {"number": 64, "value": 127}, "group": "control_change"}, {"time": 2727, "annotation": {"number": 64, "value": 0}, "group": "control_change"}, {"time": 2730, "annotation": {"number": 64, "value": 127}, "group": "control_change"}, {"time": 2753, "annotation": {"number": 64, "value": 0}, "group": "control_change"}, {"time": 2754, "annotation": {"number": 64, "value": 127}, "group": "control_change"}, {"time": 2776, "annotation": {"number": 64, "value": 0}, "group": "control_change"}, {"time": 2780, "annotation": {"number": 64, "value": 127}, "group": "control_change"}, {"time": 2801, "annotation": {"number": 64, "value": 0}, "group": "control_change"}, {"time": 2803, "annotation": {"number": 64, "value": 127}, "group": "control_change"}, {"time": 2824, "annotation": {"number": 64, "value": 0}, "group": "control_change"}, {"time": 2827, "annotation": {"number": 64, "value": 127}, "group": "control_change"}, {"time": 2849, "annotation": {"number": 64, "value": 0}, "group": "control_change"}, {"time": 2851, "annotation": {"number": 64, "value": 127}, "group": "control_change"}, {"time": 2872, "annotation": {"number": 64, "value": 0}, "group": "control_change"}, {"time": 2875, "annotation": {"number": 64, "value": 127}, "group": "control_change"}, {"time": 2897, "annotation": {"number": 64, "value": 0}, "group": "control_change"}, {"time": 2898, "annotation": {"number": 64, "value": 127}, "group": "control_change"}, {"time": 2921, "annotation": {"number": 64, "value": 0}, "group": "control_change"}, {"time": 2946, "annotation": {"number": 64, "value": 0}, "group": "control_change"}, {"time": 2948, "annotation": {"number": 64, "value": 127}, "group": "control_change"}, {"time": 2969, "annotation": {"number": 64, "value": 0}, "group": "control_change"}, {"time": 2972, "annotation": {"number": 64, "value": 127}, "group": "control_change"}, {"time": 2992, "annotation": {"number": 64, "value": 0}, "group": "control_change"}, {"time": 2995, "annotation": {"number": 64, "value": 127}, "group": "control_change"}, {"time": 3018, "annotation": {"number": 64, "value": 0}, "group": "control_change"}, {"time": 3023, "annotation": {"number": 64, "value": 127}, "group": "control_change"}, {"time": 3040, "annotation": {"number": 64, "value": 0}, "group": "control_change"}, {"time": 3042, "annotation": {"number": 64, "value": 127}, "group": "control_change"}, {"time": 3065, "annotation": {"number": 64, "value": 0}, "group": "control_change"}, {"time": 3067, "annotation": {"number": 64, "value": 127}, "group": "control_change"}, {"time": 3112, "annotation": {"number": 64, "value": 0}, "group": "control_change"}, {"time": 3114, "annotation": {"number": 64, "value": 127}, "group": "control_change"}, {"time": 3137, "annotation": {"number": 64, "value": 0}, "group": "control_change"}, {"time": 3139, "annotation": {"number": 64, "value": 127}, "group": "control_change"}, {"time": 3160, "annotation": {"number": 64, "value": 0}, "group": "control_change"}, {"time": 3162, "annotation": {"number": 64, "value": 127}, "group": "control_change"}, {"time": 3185, "annotation": {"number": 64, "value": 0}, "group": "control_change"}, {"time": 3186, "annotation": {"number": 64, "value": 127}, "group": "control_change"}, {"time": 3208, "annotation": {"number": 64, "value": 0}, "group": "control_change"}, {"time": 3212, "annotation": {"number": 64, "value": 127}, "group": "control_change"}, {"time": 3233, "annotation": {"number": 64, "value": 0}, "group": "control_change"}, {"time": 3235, "annotation": {"number": 64, "value": 127}, "group": "control_change"}, {"time": 3256, "annotation": {"number": 64, "value": 0}, "group": "control_change"}, {"time": 3259, "annotation": {"number": 64, "value": 127}, "group": "control_change"}, {"time": 3281, "annotation": {"number": 64, "value": 0}, "group": "control_change"}, {"time": 3283, "annotation": {"number": 64, "value": 127}, "group": "control_change"}, {"time": 3304, "annotation": {"number": 64, "value": 0}, "group": "control_change"}, {"time": 3307, "annotation": {"number": 64, "value": 127}, "group": "control_change"}, {"time": 3329, "annotation": {"number": 64, "value": 0}, "group": "control_change"}, {"time": 3330, "annotation": {"number": 64, "value": 127}, "group": "control_change"}, {"time": 3353, "annotation": {"number": 64, "value": 0}, "group": "control_change"}, {"time": 3378, "annotation": {"number": 64, "value": 0}, "group": "control_change"}, {"time": 3380, "annotation": {"number": 64, "value": 127}, "group": "control_change"}, {"time": 3401, "annotation": {"number": 64, "value": 0}, "group": "control_change"}, {"time": 3404, "annotation": {"number": 64, "value": 127}, "group": "control_change"}, {"time": 3424, "annotation": {"number": 64, "value": 0}, "group": "control_change"}, {"time": 3427, "annotation": {"number": 64, "value": 127}, "group": "control_change"}, {"time": 3450, "annotation": {"number": 64, "value": 0}, "group": "control_change"}, {"time": 3455, "annotation": {"number": 64, "value": 127}, "group": "control_change"}, {"time": 3472, "annotation": {"number": 64, "value": 0}, "group": "control_change"}, {"time": 3474, "annotation": {"number": 64, "value": 127}, "group": "control_change"}, {"time": 3497, "annotation": {"number": 64, "value": 0}, "group": "control_change"}, {"time": 3499, "annotation": {"number": 64, "value": 127}, "group": "control_change"}, {"time": 3544, "annotation": {"number": 64, "value": 0}, "group": "control_change"}, {"time": 3546, "annotation": {"number": 64, "value": 127}, "group": "control_change"}, {"time": 3569, "annotation": {"number": 64, "value": 0}, "group": "control_change"}, {"time": 3571, "annotation": {"number": 64, "value": 127}, "group": "control_change"}, {"time": 3592, "annotation": {"number": 64, "value": 0}, "group": "control_change"}, {"time": 3594, "annotation": {"number": 64, "value": 127}, "group": "control_change"}, {"time": 3617, "annotation": {"number": 64, "value": 0}, "group": "control_change"}, {"time": 3618, "annotation": {"number": 64, "value": 127}, "group": "control_change"}, {"time": 3640, "annotation": {"number": 64, "value": 0}, "group": "control_change"}, {"time": 3644, "annotation": {"number": 64, "value": 127}, "group": "control_change"}, {"time": 3665, "annotation": {"number": 64, "value": 0}, "group": "control_change"}, {"time": 3667, "annotation": {"number": 64, "value": 127}, "group": "control_change"}, {"time": 3688, "annotation": {"number": 64, "value": 0}, "group": "control_change"}, {"time": 3691, "annotation": {"number": 64, "value": 127}, "group": "control_change"}, {"time": 3713, "annotation": {"number": 64, "value": 0}, "group": "control_change"}, {"time": 3715, "annotation": {"number": 64, "value": 127}, "group": "control_change"}, {"time": 3736, "annotation": {"number": 64, "value": 0}, "group": "control_change"}, {"time": 3739, "annotation": {"number": 64, "value": 127}, "group": "control_change"}, {"time": 3761, "annotation": {"number": 64, "value": 0}, "group": "control_change"}, {"time": 3762, "annotation": {"number": 64, "value": 127}, "group": "control_change"}, {"time": 3785, "annotation": {"number": 64, "value": 0}, "group": "control_change"}, {"time": 3810, "annotation": {"number": 64, "value": 0}, "group": "control_change"}, {"time": 3812, "annotation": {"number": 64, "value": 127}, "group": "control_change"}, {"time": 3833, "annotation": {"number": 64, "value": 0}, "group": "control_change"}, {"time": 3836, "annotation": {"number": 64, "value": 127}, "group": "control_change"}, {"time": 3856, "annotation": {"number": 64, "value": 0}, "group": "control_change"}, {"time": 3859, "annotation": {"number": 64, "value": 127}, "group": "control_change"}, {"time": 3882, "annotation": {"number": 64, "value": 0}, "group": "control_change"}, {"time": 3887, "annotation": {"number": 64, "value": 127}, "group": "control_change"}]}]}