{"metadata": {"schema_version": "0.2", "title": "None", "source_filename": "442.mid", "source_format": "midi"}, "resolution": 12, "tempos": [{"time": 0, "qpm": 135.70024720061699}, {"time": 648, "qpm": 135.8000660893655}, {"time": 720, "qpm": 136.0001450668214}, {"time": 1968, "qpm": 135.50013098345994}, {"time": 2352, "qpm": 136.0001450668214}], "time_signatures": [{"time": 0, "numerator": 1, "denominator": 4}], "tracks": [{"program": 0, "is_drum": false, "name": "MELODY", "notes": [{"time": 334, "pitch": 74, "duration": 7, "velocity": 95}, {"time": 346, "pitch": 74, "duration": 5, "velocity": 88}, {"time": 354, "pitch": 77, "duration": 2, "velocity": 83}, {"time": 358, "pitch": 70, "duration": 7, "velocity": 88}, {"time": 370, "pitch": 70, "duration": 4, "velocity": 86}, {"time": 378, "pitch": 74, "duration": 2, "velocity": 81}, {"time": 382, "pitch": 72, "duration": 4, "velocity": 79}, {"time": 390, "pitch": 72, "duration": 2, "velocity": 78}, {"time": 394, "pitch": 72, "duration": 4, "velocity": 80}, {"time": 402, "pitch": 74, "duration": 3, "velocity": 81}, {"time": 406, "pitch": 75, "duration": 7, "velocity": 88}, {"time": 418, "pitch": 72, "duration": 4, "velocity": 81}, {"time": 426, "pitch": 70, "duration": 2, "velocity": 88}, {"time": 430, "pitch": 69, "duration": 7, "velocity": 80}, {"time": 442, "pitch": 65, "duration": 7, "velocity": 83}, {"time": 454, "pitch": 69, "duration": 7, "velocity": 84}, {"time": 466, "pitch": 65, "duration": 6, "velocity": 84}, {"time": 478, "pitch": 70, "duration": 3, "velocity": 85}, {"time": 486, "pitch": 70, "duration": 2, "velocity": 83}, {"time": 490, "pitch": 70, "duration": 4, "velocity": 78}, {"time": 498, "pitch": 72, "duration": 2, "velocity": 79}, {"time": 502, "pitch": 74, "duration": 12, "velocity": 85}, {"time": 526, "pitch": 74, "duration": 7, "velocity": 95}, {"time": 538, "pitch": 74, "duration": 5, "velocity": 88}, {"time": 546, "pitch": 77, "duration": 2, "velocity": 83}, {"time": 550, "pitch": 70, "duration": 7, "velocity": 88}, {"time": 562, "pitch": 70, "duration": 4, "velocity": 86}, {"time": 570, "pitch": 74, "duration": 2, "velocity": 81}, {"time": 574, "pitch": 72, "duration": 4, "velocity": 79}, {"time": 582, "pitch": 72, "duration": 2, "velocity": 78}, {"time": 586, "pitch": 72, "duration": 4, "velocity": 80}, {"time": 594, "pitch": 74, "duration": 3, "velocity": 81}, {"time": 598, "pitch": 75, "duration": 7, "velocity": 88}, {"time": 610, "pitch": 72, "duration": 4, "velocity": 81}, {"time": 618, "pitch": 70, "duration": 2, "velocity": 88}, {"time": 622, "pitch": 69, "duration": 7, "velocity": 80}, {"time": 634, "pitch": 79, "duration": 8, "velocity": 84}, {"time": 646, "pitch": 77, "duration": 9, "velocity": 85}, {"time": 658, "pitch": 69, "duration": 6, "velocity": 83}, {"time": 670, "pitch": 70, "duration": 24, "velocity": 83}, {"time": 718, "pitch": 77, "duration": 4, "velocity": 83}, {"time": 726, "pitch": 75, "duration": 2, "velocity": 86}, {"time": 730, "pitch": 74, "duration": 3, "velocity": 85}, {"time": 738, "pitch": 72, "duration": 2, "velocity": 81}, {"time": 742, "pitch": 74, "duration": 3, "velocity": 86}, {"time": 750, "pitch": 74, "duration": 2, "velocity": 84}, {"time": 754, "pitch": 72, "duration": 3, "velocity": 80}, {"time": 762, "pitch": 70, "duration": 14, "velocity": 75}, {"time": 786, "pitch": 70, "duration": 2, "velocity": 80}, {"time": 790, "pitch": 70, "duration": 3, "velocity": 81}, {"time": 798, "pitch": 72, "duration": 2, "velocity": 79}, {"time": 802, "pitch": 74, "duration": 5, "velocity": 90}, {"time": 814, "pitch": 75, "duration": 3, "velocity": 82}, {"time": 822, "pitch": 75, "duration": 2, "velocity": 79}, {"time": 826, "pitch": 75, "duration": 3, "velocity": 73}, {"time": 834, "pitch": 75, "duration": 2, "velocity": 79}, {"time": 838, "pitch": 77, "duration": 4, "velocity": 74}, {"time": 846, "pitch": 75, "duration": 2, "velocity": 81}, {"time": 850, "pitch": 74, "duration": 3, "velocity": 84}, {"time": 858, "pitch": 72, "duration": 17, "velocity": 80}, {"time": 882, "pitch": 72, "duration": 2, "velocity": 83}, {"time": 886, "pitch": 72, "duration": 3, "velocity": 79}, {"time": 894, "pitch": 74, "duration": 2, "velocity": 83}, {"time": 898, "pitch": 75, "duration": 6, "velocity": 84}, {"time": 910, "pitch": 79, "duration": 2, "velocity": 83}, {"time": 918, "pitch": 79, "duration": 2, "velocity": 77}, {"time": 922, "pitch": 79, "duration": 36, "velocity": 81}, {"time": 958, "pitch": 77, "duration": 10, "velocity": 76}, {"time": 982, "pitch": 77, "duration": 8, "velocity": 81}, {"time": 994, "pitch": 77, "duration": 9, "velocity": 81}, {"time": 1006, "pitch": 74, "duration": 46, "velocity": 85}, {"time": 1102, "pitch": 77, "duration": 4, "velocity": 83}, {"time": 1110, "pitch": 75, "duration": 2, "velocity": 86}, {"time": 1114, "pitch": 74, "duration": 3, "velocity": 85}, {"time": 1122, "pitch": 72, "duration": 2, "velocity": 81}, {"time": 1126, "pitch": 74, "duration": 3, "velocity": 86}, {"time": 1134, "pitch": 74, "duration": 2, "velocity": 84}, {"time": 1138, "pitch": 72, "duration": 3, "velocity": 80}, {"time": 1146, "pitch": 70, "duration": 14, "velocity": 75}, {"time": 1170, "pitch": 70, "duration": 2, "velocity": 80}, {"time": 1174, "pitch": 70, "duration": 3, "velocity": 81}, {"time": 1182, "pitch": 72, "duration": 2, "velocity": 79}, {"time": 1186, "pitch": 74, "duration": 5, "velocity": 90}, {"time": 1198, "pitch": 75, "duration": 3, "velocity": 82}, {"time": 1206, "pitch": 75, "duration": 2, "velocity": 79}, {"time": 1210, "pitch": 75, "duration": 3, "velocity": 73}, {"time": 1218, "pitch": 75, "duration": 2, "velocity": 79}, {"time": 1222, "pitch": 77, "duration": 4, "velocity": 74}, {"time": 1230, "pitch": 75, "duration": 2, "velocity": 81}, {"time": 1234, "pitch": 74, "duration": 3, "velocity": 84}, {"time": 1242, "pitch": 72, "duration": 17, "velocity": 80}, {"time": 1266, "pitch": 72, "duration": 2, "velocity": 83}, {"time": 1270, "pitch": 72, "duration": 3, "velocity": 79}, {"time": 1278, "pitch": 74, "duration": 2, "velocity": 83}, {"time": 1282, "pitch": 75, "duration": 6, "velocity": 84}, {"time": 1294, "pitch": 79, "duration": 2, "velocity": 83}, {"time": 1302, "pitch": 79, "duration": 2, "velocity": 77}, {"time": 1306, "pitch": 79, "duration": 36, "velocity": 81}, {"time": 1342, "pitch": 77, "duration": 10, "velocity": 76}, {"time": 1366, "pitch": 77, "duration": 8, "velocity": 81}, {"time": 1378, "pitch": 69, "duration": 9, "velocity": 81}, {"time": 1390, "pitch": 70, "duration": 46, "velocity": 85}, {"time": 1486, "pitch": 82, "duration": 5, "velocity": 85}, {"time": 1498, "pitch": 82, "duration": 3, "velocity": 88}, {"time": 1506, "pitch": 82, "duration": 2, "velocity": 80}, {"time": 1510, "pitch": 82, "duration": 8, "velocity": 81}, {"time": 1522, "pitch": 81, "duration": 4, "velocity": 84}, {"time": 1530, "pitch": 79, "duration": 2, "velocity": 81}, {"time": 1534, "pitch": 81, "duration": 3, "velocity": 81}, {"time": 1542, "pitch": 81, "duration": 7, "velocity": 81}, {"time": 1554, "pitch": 81, "duration": 2, "velocity": 81}, {"time": 1558, "pitch": 81, "duration": 8, "velocity": 83}, {"time": 1570, "pitch": 79, "duration": 5, "velocity": 81}, {"time": 1578, "pitch": 77, "duration": 2, "velocity": 79}, {"time": 1582, "pitch": 79, "duration": 14, "velocity": 82}, {"time": 1602, "pitch": 79, "duration": 1, "velocity": 80}, {"time": 1606, "pitch": 79, "duration": 8, "velocity": 83}, {"time": 1618, "pitch": 82, "duration": 7, "velocity": 84}, {"time": 1630, "pitch": 79, "duration": 7, "velocity": 83}, {"time": 1642, "pitch": 79, "duration": 8, "velocity": 83}, {"time": 1654, "pitch": 77, "duration": 15, "velocity": 81}, {"time": 1678, "pitch": 82, "duration": 8, "velocity": 81}, {"time": 1690, "pitch": 82, "duration": 4, "velocity": 81}, {"time": 1698, "pitch": 82, "duration": 2, "velocity": 79}, {"time": 1702, "pitch": 82, "duration": 8, "velocity": 81}, {"time": 1714, "pitch": 81, "duration": 4, "velocity": 81}, {"time": 1722, "pitch": 79, "duration": 2, "velocity": 81}, {"time": 1726, "pitch": 81, "duration": 5, "velocity": 83}, {"time": 1734, "pitch": 81, "duration": 8, "velocity": 86}, {"time": 1746, "pitch": 81, "duration": 4, "velocity": 86}, {"time": 1750, "pitch": 81, "duration": 7, "velocity": 81}, {"time": 1762, "pitch": 79, "duration": 4, "velocity": 82}, {"time": 1770, "pitch": 77, "duration": 2, "velocity": 81}, {"time": 1774, "pitch": 79, "duration": 3, "velocity": 82}, {"time": 1782, "pitch": 79, "duration": 9, "velocity": 81}, {"time": 1794, "pitch": 79, "duration": 2, "velocity": 80}, {"time": 1798, "pitch": 79, "duration": 8, "velocity": 80}, {"time": 1810, "pitch": 82, "duration": 12, "velocity": 90}, {"time": 1846, "pitch": 82, "duration": 9, "velocity": 86}, {"time": 1858, "pitch": 81, "duration": 9, "velocity": 82}, {"time": 1870, "pitch": 82, "duration": 50, "velocity": 84}, {"time": 1966, "pitch": 74, "duration": 7, "velocity": 95}, {"time": 1978, "pitch": 74, "duration": 5, "velocity": 88}, {"time": 1986, "pitch": 77, "duration": 2, "velocity": 83}, {"time": 1990, "pitch": 70, "duration": 7, "velocity": 88}, {"time": 2002, "pitch": 70, "duration": 4, "velocity": 86}, {"time": 2010, "pitch": 74, "duration": 2, "velocity": 81}, {"time": 2014, "pitch": 72, "duration": 4, "velocity": 79}, {"time": 2022, "pitch": 72, "duration": 2, "velocity": 78}, {"time": 2026, "pitch": 72, "duration": 4, "velocity": 80}, {"time": 2034, "pitch": 74, "duration": 3, "velocity": 81}, {"time": 2038, "pitch": 75, "duration": 7, "velocity": 88}, {"time": 2050, "pitch": 72, "duration": 4, "velocity": 81}, {"time": 2058, "pitch": 70, "duration": 2, "velocity": 88}, {"time": 2062, "pitch": 69, "duration": 7, "velocity": 80}, {"time": 2074, "pitch": 65, "duration": 7, "velocity": 83}, {"time": 2086, "pitch": 69, "duration": 7, "velocity": 84}, {"time": 2098, "pitch": 65, "duration": 6, "velocity": 84}, {"time": 2110, "pitch": 70, "duration": 3, "velocity": 85}, {"time": 2118, "pitch": 70, "duration": 2, "velocity": 83}, {"time": 2122, "pitch": 70, "duration": 4, "velocity": 78}, {"time": 2130, "pitch": 72, "duration": 2, "velocity": 79}, {"time": 2134, "pitch": 74, "duration": 12, "velocity": 85}, {"time": 2158, "pitch": 74, "duration": 7, "velocity": 95}, {"time": 2170, "pitch": 74, "duration": 5, "velocity": 88}, {"time": 2178, "pitch": 77, "duration": 2, "velocity": 83}, {"time": 2182, "pitch": 70, "duration": 7, "velocity": 88}, {"time": 2194, "pitch": 70, "duration": 4, "velocity": 86}, {"time": 2202, "pitch": 74, "duration": 2, "velocity": 81}, {"time": 2206, "pitch": 72, "duration": 4, "velocity": 79}, {"time": 2214, "pitch": 72, "duration": 2, "velocity": 78}, {"time": 2218, "pitch": 72, "duration": 4, "velocity": 80}, {"time": 2226, "pitch": 74, "duration": 3, "velocity": 81}, {"time": 2230, "pitch": 75, "duration": 7, "velocity": 88}, {"time": 2242, "pitch": 72, "duration": 4, "velocity": 81}, {"time": 2250, "pitch": 70, "duration": 2, "velocity": 88}, {"time": 2254, "pitch": 69, "duration": 7, "velocity": 80}, {"time": 2266, "pitch": 79, "duration": 8, "velocity": 84}, {"time": 2278, "pitch": 77, "duration": 9, "velocity": 85}, {"time": 2290, "pitch": 69, "duration": 6, "velocity": 83}, {"time": 2302, "pitch": 70, "duration": 24, "velocity": 83}, {"time": 2350, "pitch": 77, "duration": 4, "velocity": 83}, {"time": 2358, "pitch": 75, "duration": 2, "velocity": 86}, {"time": 2362, "pitch": 74, "duration": 3, "velocity": 85}, {"time": 2370, "pitch": 72, "duration": 2, "velocity": 81}, {"time": 2374, "pitch": 74, "duration": 3, "velocity": 86}, {"time": 2382, "pitch": 74, "duration": 2, "velocity": 84}, {"time": 2386, "pitch": 72, "duration": 3, "velocity": 80}, {"time": 2394, "pitch": 70, "duration": 14, "velocity": 75}, {"time": 2418, "pitch": 70, "duration": 2, "velocity": 80}, {"time": 2422, "pitch": 70, "duration": 3, "velocity": 81}, {"time": 2430, "pitch": 72, "duration": 2, "velocity": 79}, {"time": 2434, "pitch": 74, "duration": 5, "velocity": 90}, {"time": 2446, "pitch": 75, "duration": 3, "velocity": 82}, {"time": 2454, "pitch": 75, "duration": 2, "velocity": 79}, {"time": 2458, "pitch": 75, "duration": 3, "velocity": 73}, {"time": 2466, "pitch": 75, "duration": 2, "velocity": 79}, {"time": 2470, "pitch": 77, "duration": 4, "velocity": 74}, {"time": 2478, "pitch": 75, "duration": 2, "velocity": 81}, {"time": 2482, "pitch": 74, "duration": 3, "velocity": 84}, {"time": 2490, "pitch": 72, "duration": 17, "velocity": 80}, {"time": 2514, "pitch": 72, "duration": 2, "velocity": 83}, {"time": 2518, "pitch": 72, "duration": 3, "velocity": 79}, {"time": 2526, "pitch": 74, "duration": 2, "velocity": 83}, {"time": 2530, "pitch": 75, "duration": 6, "velocity": 84}, {"time": 2542, "pitch": 79, "duration": 2, "velocity": 83}, {"time": 2550, "pitch": 79, "duration": 2, "velocity": 77}, {"time": 2554, "pitch": 79, "duration": 36, "velocity": 81}, {"time": 2590, "pitch": 77, "duration": 10, "velocity": 76}, {"time": 2614, "pitch": 77, "duration": 8, "velocity": 81}, {"time": 2626, "pitch": 77, "duration": 9, "velocity": 81}, {"time": 2638, "pitch": 74, "duration": 46, "velocity": 85}, {"time": 2734, "pitch": 77, "duration": 4, "velocity": 83}, {"time": 2742, "pitch": 75, "duration": 2, "velocity": 86}, {"time": 2746, "pitch": 74, "duration": 3, "velocity": 85}, {"time": 2754, "pitch": 72, "duration": 2, "velocity": 81}, {"time": 2758, "pitch": 74, "duration": 3, "velocity": 86}, {"time": 2766, "pitch": 74, "duration": 2, "velocity": 84}, {"time": 2770, "pitch": 72, "duration": 3, "velocity": 80}, {"time": 2778, "pitch": 70, "duration": 14, "velocity": 75}, {"time": 2802, "pitch": 70, "duration": 2, "velocity": 80}, {"time": 2806, "pitch": 70, "duration": 3, "velocity": 81}, {"time": 2814, "pitch": 72, "duration": 2, "velocity": 79}, {"time": 2818, "pitch": 74, "duration": 5, "velocity": 90}, {"time": 2830, "pitch": 75, "duration": 3, "velocity": 82}, {"time": 2838, "pitch": 75, "duration": 2, "velocity": 79}, {"time": 2842, "pitch": 75, "duration": 3, "velocity": 73}, {"time": 2850, "pitch": 75, "duration": 2, "velocity": 79}, {"time": 2854, "pitch": 77, "duration": 4, "velocity": 74}, {"time": 2862, "pitch": 75, "duration": 2, "velocity": 81}, {"time": 2866, "pitch": 74, "duration": 3, "velocity": 84}, {"time": 2874, "pitch": 72, "duration": 17, "velocity": 80}, {"time": 2898, "pitch": 72, "duration": 2, "velocity": 83}, {"time": 2902, "pitch": 72, "duration": 3, "velocity": 79}, {"time": 2910, "pitch": 74, "duration": 2, "velocity": 83}, {"time": 2914, "pitch": 75, "duration": 6, "velocity": 84}, {"time": 2926, "pitch": 79, "duration": 2, "velocity": 83}, {"time": 2934, "pitch": 79, "duration": 2, "velocity": 77}, {"time": 2938, "pitch": 79, "duration": 36, "velocity": 81}, {"time": 2974, "pitch": 77, "duration": 10, "velocity": 76}, {"time": 2998, "pitch": 77, "duration": 8, "velocity": 81}, {"time": 3010, "pitch": 69, "duration": 9, "velocity": 81}, {"time": 3022, "pitch": 70, "duration": 46, "velocity": 85}, {"time": 3118, "pitch": 82, "duration": 5, "velocity": 85}, {"time": 3130, "pitch": 82, "duration": 3, "velocity": 88}, {"time": 3138, "pitch": 82, "duration": 2, "velocity": 80}, {"time": 3142, "pitch": 82, "duration": 8, "velocity": 81}, {"time": 3154, "pitch": 81, "duration": 4, "velocity": 84}, {"time": 3162, "pitch": 79, "duration": 2, "velocity": 81}, {"time": 3166, "pitch": 81, "duration": 3, "velocity": 81}, {"time": 3174, "pitch": 81, "duration": 7, "velocity": 81}, {"time": 3186, "pitch": 81, "duration": 2, "velocity": 81}, {"time": 3190, "pitch": 81, "duration": 8, "velocity": 83}, {"time": 3202, "pitch": 79, "duration": 5, "velocity": 81}, {"time": 3210, "pitch": 77, "duration": 2, "velocity": 79}, {"time": 3214, "pitch": 79, "duration": 14, "velocity": 82}, {"time": 3234, "pitch": 79, "duration": 1, "velocity": 80}, {"time": 3238, "pitch": 79, "duration": 8, "velocity": 83}, {"time": 3250, "pitch": 82, "duration": 7, "velocity": 84}, {"time": 3262, "pitch": 79, "duration": 7, "velocity": 83}, {"time": 3274, "pitch": 79, "duration": 8, "velocity": 83}, {"time": 3286, "pitch": 77, "duration": 15, "velocity": 81}, {"time": 3310, "pitch": 82, "duration": 8, "velocity": 81}, {"time": 3322, "pitch": 82, "duration": 4, "velocity": 81}, {"time": 3330, "pitch": 82, "duration": 2, "velocity": 79}, {"time": 3334, "pitch": 82, "duration": 8, "velocity": 81}, {"time": 3346, "pitch": 81, "duration": 4, "velocity": 81}, {"time": 3354, "pitch": 79, "duration": 2, "velocity": 81}, {"time": 3358, "pitch": 81, "duration": 5, "velocity": 83}, {"time": 3366, "pitch": 81, "duration": 8, "velocity": 86}, {"time": 3378, "pitch": 81, "duration": 4, "velocity": 86}, {"time": 3382, "pitch": 81, "duration": 7, "velocity": 81}, {"time": 3394, "pitch": 79, "duration": 4, "velocity": 82}, {"time": 3402, "pitch": 77, "duration": 2, "velocity": 81}, {"time": 3406, "pitch": 79, "duration": 3, "velocity": 82}, {"time": 3414, "pitch": 79, "duration": 9, "velocity": 81}, {"time": 3426, "pitch": 79, "duration": 2, "velocity": 80}, {"time": 3430, "pitch": 79, "duration": 8, "velocity": 80}, {"time": 3442, "pitch": 82, "duration": 12, "velocity": 90}, {"time": 3478, "pitch": 82, "duration": 9, "velocity": 86}, {"time": 3490, "pitch": 81, "duration": 9, "velocity": 82}, {"time": 3502, "pitch": 82, "duration": 50, "velocity": 84}, {"time": 3598, "pitch": 82, "duration": 5, "velocity": 85}, {"time": 3610, "pitch": 82, "duration": 3, "velocity": 88}, {"time": 3618, "pitch": 82, "duration": 2, "velocity": 80}, {"time": 3622, "pitch": 82, "duration": 8, "velocity": 81}, {"time": 3634, "pitch": 81, "duration": 4, "velocity": 84}, {"time": 3642, "pitch": 79, "duration": 2, "velocity": 81}, {"time": 3646, "pitch": 81, "duration": 3, "velocity": 81}, {"time": 3654, "pitch": 81, "duration": 7, "velocity": 81}, {"time": 3666, "pitch": 81, "duration": 2, "velocity": 81}, {"time": 3670, "pitch": 81, "duration": 8, "velocity": 83}, {"time": 3682, "pitch": 79, "duration": 5, "velocity": 81}, {"time": 3690, "pitch": 77, "duration": 2, "velocity": 79}, {"time": 3694, "pitch": 79, "duration": 14, "velocity": 82}, {"time": 3714, "pitch": 79, "duration": 1, "velocity": 80}, {"time": 3718, "pitch": 79, "duration": 8, "velocity": 83}, {"time": 3730, "pitch": 82, "duration": 7, "velocity": 84}, {"time": 3742, "pitch": 79, "duration": 7, "velocity": 83}, {"time": 3754, "pitch": 79, "duration": 8, "velocity": 83}, {"time": 3766, "pitch": 77, "duration": 15, "velocity": 81}, {"time": 3790, "pitch": 82, "duration": 8, "velocity": 81}, {"time": 3802, "pitch": 82, "duration": 4, "velocity": 81}, {"time": 3810, "pitch": 82, "duration": 2, "velocity": 79}, {"time": 3814, "pitch": 82, "duration": 8, "velocity": 81}, {"time": 3826, "pitch": 81, "duration": 4, "velocity": 81}, {"time": 3834, "pitch": 79, "duration": 2, "velocity": 81}, {"time": 3838, "pitch": 81, "duration": 5, "velocity": 83}, {"time": 3846, "pitch": 81, "duration": 8, "velocity": 86}, {"time": 3858, "pitch": 81, "duration": 4, "velocity": 86}, {"time": 3862, "pitch": 81, "duration": 7, "velocity": 81}, {"time": 3874, "pitch": 79, "duration": 4, "velocity": 82}, {"time": 3882, "pitch": 77, "duration": 2, "velocity": 81}, {"time": 3886, "pitch": 79, "duration": 3, "velocity": 82}, {"time": 3894, "pitch": 79, "duration": 9, "velocity": 81}, {"time": 3906, "pitch": 79, "duration": 2, "velocity": 80}, {"time": 3910, "pitch": 79, "duration": 8, "velocity": 80}, {"time": 3922, "pitch": 82, "duration": 12, "velocity": 90}, {"time": 3958, "pitch": 82, "duration": 9, "velocity": 86}, {"time": 3970, "pitch": 81, "duration": 9, "velocity": 82}, {"time": 3982, "pitch": 82, "duration": 50, "velocity": 84}, {"time": 4078, "pitch": 74, "duration": 7, "velocity": 95}, {"time": 4090, "pitch": 74, "duration": 5, "velocity": 88}, {"time": 4098, "pitch": 77, "duration": 2, "velocity": 83}, {"time": 4102, "pitch": 70, "duration": 7, "velocity": 88}, {"time": 4114, "pitch": 70, "duration": 4, "velocity": 86}, {"time": 4122, "pitch": 74, "duration": 2, "velocity": 81}, {"time": 4126, "pitch": 72, "duration": 4, "velocity": 79}, {"time": 4134, "pitch": 72, "duration": 2, "velocity": 78}, {"time": 4138, "pitch": 72, "duration": 4, "velocity": 80}, {"time": 4146, "pitch": 74, "duration": 3, "velocity": 81}, {"time": 4150, "pitch": 75, "duration": 7, "velocity": 88}, {"time": 4162, "pitch": 72, "duration": 4, "velocity": 81}, {"time": 4170, "pitch": 70, "duration": 2, "velocity": 88}, {"time": 4174, "pitch": 69, "duration": 7, "velocity": 80}, {"time": 4186, "pitch": 65, "duration": 7, "velocity": 83}, {"time": 4198, "pitch": 69, "duration": 7, "velocity": 84}, {"time": 4210, "pitch": 65, "duration": 6, "velocity": 84}, {"time": 4222, "pitch": 70, "duration": 3, "velocity": 85}, {"time": 4230, "pitch": 70, "duration": 2, "velocity": 83}, {"time": 4234, "pitch": 70, "duration": 4, "velocity": 78}, {"time": 4242, "pitch": 72, "duration": 2, "velocity": 79}, {"time": 4246, "pitch": 74, "duration": 12, "velocity": 85}, {"time": 4270, "pitch": 74, "duration": 7, "velocity": 95}, {"time": 4282, "pitch": 74, "duration": 5, "velocity": 88}, {"time": 4290, "pitch": 77, "duration": 2, "velocity": 83}, {"time": 4294, "pitch": 70, "duration": 7, "velocity": 88}, {"time": 4306, "pitch": 70, "duration": 4, "velocity": 86}, {"time": 4314, "pitch": 74, "duration": 2, "velocity": 81}, {"time": 4318, "pitch": 72, "duration": 4, "velocity": 79}, {"time": 4326, "pitch": 72, "duration": 2, "velocity": 78}, {"time": 4330, "pitch": 72, "duration": 4, "velocity": 80}, {"time": 4338, "pitch": 74, "duration": 3, "velocity": 81}, {"time": 4342, "pitch": 75, "duration": 7, "velocity": 88}, {"time": 4354, "pitch": 72, "duration": 4, "velocity": 81}, {"time": 4362, "pitch": 70, "duration": 2, "velocity": 88}, {"time": 4366, "pitch": 69, "duration": 7, "velocity": 80}, {"time": 4378, "pitch": 79, "duration": 8, "velocity": 84}, {"time": 4390, "pitch": 77, "duration": 9, "velocity": 85}, {"time": 4402, "pitch": 69, "duration": 6, "velocity": 83}, {"time": 4414, "pitch": 70, "duration": 24, "velocity": 83}, {"time": 4450, "pitch": 72, "duration": 4, "velocity": 81}, {"time": 4458, "pitch": 70, "duration": 2, "velocity": 88}, {"time": 4462, "pitch": 69, "duration": 7, "velocity": 80}, {"time": 4474, "pitch": 79, "duration": 8, "velocity": 84}, {"time": 4486, "pitch": 77, "duration": 9, "velocity": 85}, {"time": 4498, "pitch": 69, "duration": 6, "velocity": 83}, {"time": 4510, "pitch": 70, "duration": 24, "velocity": 83}, {"time": 4546, "pitch": 72, "duration": 4, "velocity": 81}, {"time": 4554, "pitch": 70, "duration": 2, "velocity": 88}, {"time": 4558, "pitch": 69, "duration": 12, "velocity": 80}, {"time": 4582, "pitch": 79, "duration": 17, "velocity": 83}, {"time": 4606, "pitch": 77, "duration": 18, "velocity": 84}, {"time": 4630, "pitch": 69, "duration": 19, "velocity": 81}, {"time": 4654, "pitch": 70, "duration": 49, "velocity": 83}]}, {"program": 0, "is_drum": false, "name": "BRIDGE", "notes": [{"time": 334, "pitch": 77, "duration": 7, "velocity": 83}, {"time": 346, "pitch": 77, "duration": 3, "velocity": 86}, {"time": 354, "pitch": 82, "duration": 2, "velocity": 93}, {"time": 358, "pitch": 74, "duration": 4, "velocity": 90}, {"time": 370, "pitch": 74, "duration": 3, "velocity": 93}, {"time": 378, "pitch": 77, "duration": 2, "velocity": 83}, {"time": 382, "pitch": 75, "duration": 2, "velocity": 95}, {"time": 390, "pitch": 74, "duration": 5, "velocity": 62}, {"time": 394, "pitch": 75, "duration": 3, "velocity": 79}, {"time": 402, "pitch": 77, "duration": 2, "velocity": 80}, {"time": 406, "pitch": 79, "duration": 4, "velocity": 83}, {"time": 418, "pitch": 75, "duration": 3, "velocity": 93}, {"time": 426, "pitch": 74, "duration": 2, "velocity": 85}, {"time": 430, "pitch": 72, "duration": 5, "velocity": 79}, {"time": 442, "pitch": 69, "duration": 4, "velocity": 81}, {"time": 454, "pitch": 72, "duration": 3, "velocity": 81}, {"time": 466, "pitch": 69, "duration": 3, "velocity": 85}, {"time": 478, "pitch": 74, "duration": 2, "velocity": 90}, {"time": 486, "pitch": 73, "duration": 2, "velocity": 86}, {"time": 490, "pitch": 74, "duration": 2, "velocity": 85}, {"time": 498, "pitch": 75, "duration": 2, "velocity": 82}, {"time": 502, "pitch": 77, "duration": 2, "velocity": 80}, {"time": 526, "pitch": 77, "duration": 7, "velocity": 83}, {"time": 538, "pitch": 77, "duration": 3, "velocity": 86}, {"time": 546, "pitch": 82, "duration": 2, "velocity": 93}, {"time": 550, "pitch": 74, "duration": 4, "velocity": 90}, {"time": 562, "pitch": 74, "duration": 3, "velocity": 93}, {"time": 570, "pitch": 77, "duration": 2, "velocity": 83}, {"time": 574, "pitch": 75, "duration": 2, "velocity": 95}, {"time": 582, "pitch": 74, "duration": 5, "velocity": 62}, {"time": 586, "pitch": 75, "duration": 3, "velocity": 79}, {"time": 594, "pitch": 77, "duration": 2, "velocity": 80}, {"time": 598, "pitch": 79, "duration": 4, "velocity": 83}, {"time": 610, "pitch": 75, "duration": 3, "velocity": 93}, {"time": 618, "pitch": 74, "duration": 2, "velocity": 85}, {"time": 622, "pitch": 72, "duration": 5, "velocity": 79}, {"time": 634, "pitch": 72, "duration": 3, "velocity": 76}, {"time": 634, "pitch": 75, "duration": 2, "velocity": 80}, {"time": 646, "pitch": 70, "duration": 2, "velocity": 79}, {"time": 646, "pitch": 74, "duration": 3, "velocity": 84}, {"time": 658, "pitch": 69, "duration": 3, "velocity": 70}, {"time": 658, "pitch": 72, "duration": 2, "velocity": 77}, {"time": 670, "pitch": 65, "duration": 6, "velocity": 74}, {"time": 670, "pitch": 70, "duration": 6, "velocity": 74}, {"time": 682, "pitch": 70, "duration": 4, "velocity": 79}, {"time": 682, "pitch": 74, "duration": 3, "velocity": 84}, {"time": 694, "pitch": 65, "duration": 15, "velocity": 71}, {"time": 694, "pitch": 70, "duration": 16, "velocity": 73}, {"time": 870, "pitch": 65, "duration": 2, "velocity": 81}, {"time": 874, "pitch": 65, "duration": 4, "velocity": 79}, {"time": 882, "pitch": 69, "duration": 3, "velocity": 83}, {"time": 894, "pitch": 72, "duration": 2, "velocity": 79}, {"time": 898, "pitch": 77, "duration": 2, "velocity": 74}, {"time": 1014, "pitch": 65, "duration": 2, "velocity": 79}, {"time": 1018, "pitch": 65, "duration": 3, "velocity": 78}, {"time": 1026, "pitch": 65, "duration": 3, "velocity": 82}, {"time": 1026, "pitch": 70, "duration": 3, "velocity": 77}, {"time": 1038, "pitch": 70, "duration": 2, "velocity": 83}, {"time": 1042, "pitch": 67, "duration": 3, "velocity": 79}, {"time": 1054, "pitch": 65, "duration": 8, "velocity": 85}, {"time": 1062, "pitch": 53, "duration": 2, "velocity": 80}, {"time": 1066, "pitch": 55, "duration": 2, "velocity": 81}, {"time": 1074, "pitch": 57, "duration": 3, "velocity": 71}, {"time": 1078, "pitch": 58, "duration": 2, "velocity": 76}, {"time": 1086, "pitch": 60, "duration": 2, "velocity": 74}, {"time": 1090, "pitch": 62, "duration": 3, "velocity": 80}, {"time": 1098, "pitch": 63, "duration": 1, "velocity": 80}, {"time": 1102, "pitch": 62, "duration": 2, "velocity": 72}, {"time": 1110, "pitch": 65, "duration": 2, "velocity": 77}, {"time": 1114, "pitch": 65, "duration": 2, "velocity": 73}, {"time": 1122, "pitch": 70, "duration": 2, "velocity": 75}, {"time": 1126, "pitch": 70, "duration": 2, "velocity": 75}, {"time": 1134, "pitch": 72, "duration": 2, "velocity": 68}, {"time": 1138, "pitch": 74, "duration": 2, "velocity": 86}, {"time": 1158, "pitch": 65, "duration": 2, "velocity": 79}, {"time": 1162, "pitch": 65, "duration": 3, "velocity": 74}, {"time": 1170, "pitch": 70, "duration": 2, "velocity": 74}, {"time": 1174, "pitch": 70, "duration": 3, "velocity": 74}, {"time": 1182, "pitch": 72, "duration": 3, "velocity": 70}, {"time": 1186, "pitch": 74, "duration": 2, "velocity": 85}, {"time": 1206, "pitch": 67, "duration": 2, "velocity": 75}, {"time": 1210, "pitch": 67, "duration": 2, "velocity": 74}, {"time": 1218, "pitch": 72, "duration": 2, "velocity": 79}, {"time": 1222, "pitch": 72, "duration": 2, "velocity": 79}, {"time": 1230, "pitch": 74, "duration": 1, "velocity": 80}, {"time": 1234, "pitch": 75, "duration": 2, "velocity": 72}, {"time": 1254, "pitch": 65, "duration": 2, "velocity": 79}, {"time": 1258, "pitch": 65, "duration": 2, "velocity": 74}, {"time": 1266, "pitch": 69, "duration": 2, "velocity": 79}, {"time": 1270, "pitch": 69, "duration": 2, "velocity": 76}, {"time": 1278, "pitch": 72, "duration": 2, "velocity": 79}, {"time": 1282, "pitch": 75, "duration": 2, "velocity": 80}, {"time": 1302, "pitch": 63, "duration": 1, "velocity": 73}, {"time": 1306, "pitch": 63, "duration": 3, "velocity": 75}, {"time": 1314, "pitch": 67, "duration": 1, "velocity": 66}, {"time": 1318, "pitch": 67, "duration": 2, "velocity": 75}, {"time": 1326, "pitch": 70, "duration": 2, "velocity": 75}, {"time": 1330, "pitch": 70, "duration": 2, "velocity": 80}, {"time": 1350, "pitch": 65, "duration": 2, "velocity": 77}, {"time": 1354, "pitch": 65, "duration": 3, "velocity": 75}, {"time": 1362, "pitch": 69, "duration": 2, "velocity": 74}, {"time": 1366, "pitch": 69, "duration": 3, "velocity": 79}, {"time": 1374, "pitch": 72, "duration": 2, "velocity": 75}, {"time": 1378, "pitch": 72, "duration": 2, "velocity": 76}, {"time": 1386, "pitch": 77, "duration": 2, "velocity": 74}, {"time": 1398, "pitch": 65, "duration": 1, "velocity": 80}, {"time": 1402, "pitch": 65, "duration": 2, "velocity": 76}, {"time": 1410, "pitch": 70, "duration": 1, "velocity": 79}, {"time": 1414, "pitch": 70, "duration": 2, "velocity": 74}, {"time": 1422, "pitch": 74, "duration": 2, "velocity": 79}, {"time": 1426, "pitch": 77, "duration": 2, "velocity": 75}, {"time": 1446, "pitch": 58, "duration": 2, "velocity": 79}, {"time": 1450, "pitch": 60, "duration": 2, "velocity": 80}, {"time": 1458, "pitch": 62, "duration": 3, "velocity": 75}, {"time": 1462, "pitch": 63, "duration": 2, "velocity": 80}, {"time": 1470, "pitch": 65, "duration": 2, "velocity": 72}, {"time": 1474, "pitch": 67, "duration": 2, "velocity": 75}, {"time": 1482, "pitch": 68, "duration": 2, "velocity": 81}, {"time": 1486, "pitch": 70, "duration": 2, "velocity": 74}, {"time": 1510, "pitch": 67, "duration": 2, "velocity": 74}, {"time": 1522, "pitch": 70, "duration": 3, "velocity": 77}, {"time": 1534, "pitch": 69, "duration": 2, "velocity": 72}, {"time": 1558, "pitch": 65, "duration": 3, "velocity": 78}, {"time": 1570, "pitch": 62, "duration": 3, "velocity": 74}, {"time": 1590, "pitch": 72, "duration": 2, "velocity": 73}, {"time": 1594, "pitch": 72, "duration": 3, "velocity": 74}, {"time": 1602, "pitch": 75, "duration": 1, "velocity": 80}, {"time": 1606, "pitch": 75, "duration": 3, "velocity": 73}, {"time": 1614, "pitch": 79, "duration": 2, "velocity": 71}, {"time": 1618, "pitch": 79, "duration": 2, "velocity": 79}, {"time": 1630, "pitch": 75, "duration": 2, "velocity": 74}, {"time": 1630, "pitch": 79, "duration": 2, "velocity": 72}, {"time": 1642, "pitch": 75, "duration": 3, "velocity": 70}, {"time": 1642, "pitch": 79, "duration": 3, "velocity": 72}, {"time": 1654, "pitch": 72, "duration": 3, "velocity": 71}, {"time": 1654, "pitch": 77, "duration": 4, "velocity": 69}, {"time": 1678, "pitch": 82, "duration": 34, "velocity": 82}, {"time": 1714, "pitch": 79, "duration": 13, "velocity": 75}, {"time": 1726, "pitch": 81, "duration": 33, "velocity": 74}, {"time": 1762, "pitch": 77, "duration": 9, "velocity": 80}, {"time": 1774, "pitch": 79, "duration": 48, "velocity": 79}, {"time": 1822, "pitch": 82, "duration": 14, "velocity": 81}, {"time": 1846, "pitch": 82, "duration": 5, "velocity": 77}, {"time": 1858, "pitch": 81, "duration": 5, "velocity": 75}, {"time": 1870, "pitch": 82, "duration": 48, "velocity": 81}, {"time": 1882, "pitch": 65, "duration": 7, "velocity": 78}, {"time": 1894, "pitch": 67, "duration": 7, "velocity": 76}, {"time": 1906, "pitch": 68, "duration": 7, "velocity": 79}, {"time": 1918, "pitch": 69, "duration": 7, "velocity": 77}, {"time": 1930, "pitch": 67, "duration": 8, "velocity": 73}, {"time": 1942, "pitch": 65, "duration": 8, "velocity": 74}, {"time": 1954, "pitch": 74, "duration": 3, "velocity": 79}, {"time": 1962, "pitch": 72, "duration": 2, "velocity": 68}, {"time": 1966, "pitch": 77, "duration": 7, "velocity": 83}, {"time": 1978, "pitch": 77, "duration": 3, "velocity": 86}, {"time": 1986, "pitch": 82, "duration": 2, "velocity": 93}, {"time": 1990, "pitch": 74, "duration": 4, "velocity": 90}, {"time": 2002, "pitch": 74, "duration": 3, "velocity": 93}, {"time": 2010, "pitch": 77, "duration": 2, "velocity": 83}, {"time": 2014, "pitch": 75, "duration": 2, "velocity": 95}, {"time": 2022, "pitch": 74, "duration": 5, "velocity": 62}, {"time": 2026, "pitch": 75, "duration": 3, "velocity": 79}, {"time": 2034, "pitch": 77, "duration": 2, "velocity": 80}, {"time": 2038, "pitch": 79, "duration": 4, "velocity": 83}, {"time": 2050, "pitch": 75, "duration": 3, "velocity": 93}, {"time": 2058, "pitch": 74, "duration": 2, "velocity": 85}, {"time": 2062, "pitch": 72, "duration": 5, "velocity": 79}, {"time": 2074, "pitch": 69, "duration": 4, "velocity": 81}, {"time": 2086, "pitch": 72, "duration": 3, "velocity": 81}, {"time": 2098, "pitch": 69, "duration": 3, "velocity": 85}, {"time": 2110, "pitch": 74, "duration": 2, "velocity": 90}, {"time": 2118, "pitch": 73, "duration": 2, "velocity": 86}, {"time": 2122, "pitch": 74, "duration": 2, "velocity": 85}, {"time": 2130, "pitch": 75, "duration": 2, "velocity": 82}, {"time": 2134, "pitch": 77, "duration": 2, "velocity": 80}, {"time": 2158, "pitch": 77, "duration": 7, "velocity": 83}, {"time": 2170, "pitch": 77, "duration": 3, "velocity": 86}, {"time": 2178, "pitch": 82, "duration": 2, "velocity": 93}, {"time": 2182, "pitch": 74, "duration": 4, "velocity": 90}, {"time": 2194, "pitch": 74, "duration": 3, "velocity": 93}, {"time": 2202, "pitch": 77, "duration": 2, "velocity": 83}, {"time": 2206, "pitch": 75, "duration": 2, "velocity": 95}, {"time": 2214, "pitch": 74, "duration": 5, "velocity": 62}, {"time": 2218, "pitch": 75, "duration": 3, "velocity": 79}, {"time": 2226, "pitch": 77, "duration": 2, "velocity": 80}, {"time": 2230, "pitch": 79, "duration": 4, "velocity": 83}, {"time": 2242, "pitch": 75, "duration": 3, "velocity": 93}, {"time": 2250, "pitch": 74, "duration": 2, "velocity": 85}, {"time": 2254, "pitch": 72, "duration": 5, "velocity": 79}, {"time": 2266, "pitch": 72, "duration": 3, "velocity": 76}, {"time": 2266, "pitch": 75, "duration": 2, "velocity": 80}, {"time": 2278, "pitch": 70, "duration": 2, "velocity": 79}, {"time": 2278, "pitch": 74, "duration": 3, "velocity": 84}, {"time": 2290, "pitch": 69, "duration": 3, "velocity": 70}, {"time": 2290, "pitch": 72, "duration": 2, "velocity": 77}, {"time": 2302, "pitch": 65, "duration": 6, "velocity": 74}, {"time": 2302, "pitch": 70, "duration": 6, "velocity": 74}, {"time": 2314, "pitch": 70, "duration": 4, "velocity": 79}, {"time": 2314, "pitch": 74, "duration": 3, "velocity": 84}, {"time": 2326, "pitch": 65, "duration": 15, "velocity": 71}, {"time": 2326, "pitch": 70, "duration": 16, "velocity": 73}, {"time": 2502, "pitch": 65, "duration": 2, "velocity": 81}, {"time": 2506, "pitch": 65, "duration": 4, "velocity": 79}, {"time": 2514, "pitch": 69, "duration": 3, "velocity": 83}, {"time": 2526, "pitch": 72, "duration": 2, "velocity": 79}, {"time": 2530, "pitch": 77, "duration": 2, "velocity": 74}, {"time": 2646, "pitch": 65, "duration": 2, "velocity": 79}, {"time": 2650, "pitch": 65, "duration": 3, "velocity": 78}, {"time": 2658, "pitch": 65, "duration": 3, "velocity": 82}, {"time": 2658, "pitch": 70, "duration": 3, "velocity": 77}, {"time": 2670, "pitch": 70, "duration": 2, "velocity": 83}, {"time": 2674, "pitch": 67, "duration": 3, "velocity": 79}, {"time": 2686, "pitch": 65, "duration": 8, "velocity": 85}, {"time": 2694, "pitch": 53, "duration": 2, "velocity": 80}, {"time": 2698, "pitch": 55, "duration": 2, "velocity": 81}, {"time": 2706, "pitch": 57, "duration": 3, "velocity": 71}, {"time": 2710, "pitch": 58, "duration": 2, "velocity": 76}, {"time": 2718, "pitch": 60, "duration": 2, "velocity": 74}, {"time": 2722, "pitch": 62, "duration": 3, "velocity": 80}, {"time": 2730, "pitch": 63, "duration": 1, "velocity": 80}, {"time": 2734, "pitch": 62, "duration": 2, "velocity": 72}, {"time": 2742, "pitch": 65, "duration": 2, "velocity": 77}, {"time": 2746, "pitch": 65, "duration": 2, "velocity": 73}, {"time": 2754, "pitch": 70, "duration": 2, "velocity": 75}, {"time": 2758, "pitch": 70, "duration": 2, "velocity": 75}, {"time": 2766, "pitch": 72, "duration": 2, "velocity": 68}, {"time": 2770, "pitch": 74, "duration": 2, "velocity": 86}, {"time": 2790, "pitch": 65, "duration": 2, "velocity": 79}, {"time": 2794, "pitch": 65, "duration": 3, "velocity": 74}, {"time": 2802, "pitch": 70, "duration": 2, "velocity": 74}, {"time": 2806, "pitch": 70, "duration": 3, "velocity": 74}, {"time": 2814, "pitch": 72, "duration": 3, "velocity": 70}, {"time": 2818, "pitch": 74, "duration": 2, "velocity": 85}, {"time": 2838, "pitch": 67, "duration": 2, "velocity": 75}, {"time": 2842, "pitch": 67, "duration": 2, "velocity": 74}, {"time": 2850, "pitch": 72, "duration": 2, "velocity": 79}, {"time": 2854, "pitch": 72, "duration": 2, "velocity": 79}, {"time": 2862, "pitch": 74, "duration": 1, "velocity": 80}, {"time": 2866, "pitch": 75, "duration": 2, "velocity": 72}, {"time": 2886, "pitch": 65, "duration": 2, "velocity": 79}, {"time": 2890, "pitch": 65, "duration": 2, "velocity": 74}, {"time": 2898, "pitch": 69, "duration": 2, "velocity": 79}, {"time": 2902, "pitch": 69, "duration": 2, "velocity": 76}, {"time": 2910, "pitch": 72, "duration": 2, "velocity": 79}, {"time": 2914, "pitch": 75, "duration": 2, "velocity": 80}, {"time": 2934, "pitch": 63, "duration": 1, "velocity": 73}, {"time": 2938, "pitch": 63, "duration": 3, "velocity": 75}, {"time": 2946, "pitch": 67, "duration": 1, "velocity": 66}, {"time": 2950, "pitch": 67, "duration": 2, "velocity": 75}, {"time": 2958, "pitch": 70, "duration": 2, "velocity": 75}, {"time": 2962, "pitch": 70, "duration": 2, "velocity": 80}, {"time": 2982, "pitch": 65, "duration": 2, "velocity": 77}, {"time": 2986, "pitch": 65, "duration": 3, "velocity": 75}, {"time": 2994, "pitch": 69, "duration": 2, "velocity": 74}, {"time": 2998, "pitch": 69, "duration": 3, "velocity": 79}, {"time": 3006, "pitch": 72, "duration": 2, "velocity": 75}, {"time": 3010, "pitch": 72, "duration": 2, "velocity": 76}, {"time": 3018, "pitch": 77, "duration": 2, "velocity": 74}, {"time": 3030, "pitch": 65, "duration": 1, "velocity": 80}, {"time": 3034, "pitch": 65, "duration": 2, "velocity": 76}, {"time": 3042, "pitch": 70, "duration": 1, "velocity": 79}, {"time": 3046, "pitch": 70, "duration": 2, "velocity": 74}, {"time": 3054, "pitch": 74, "duration": 2, "velocity": 79}, {"time": 3058, "pitch": 77, "duration": 2, "velocity": 75}, {"time": 3078, "pitch": 58, "duration": 2, "velocity": 79}, {"time": 3082, "pitch": 60, "duration": 2, "velocity": 80}, {"time": 3090, "pitch": 62, "duration": 3, "velocity": 75}, {"time": 3094, "pitch": 63, "duration": 2, "velocity": 80}, {"time": 3102, "pitch": 65, "duration": 2, "velocity": 72}, {"time": 3106, "pitch": 67, "duration": 2, "velocity": 75}, {"time": 3114, "pitch": 68, "duration": 2, "velocity": 81}, {"time": 3118, "pitch": 70, "duration": 2, "velocity": 74}, {"time": 3142, "pitch": 67, "duration": 2, "velocity": 74}, {"time": 3154, "pitch": 70, "duration": 3, "velocity": 77}, {"time": 3166, "pitch": 69, "duration": 2, "velocity": 72}, {"time": 3190, "pitch": 65, "duration": 3, "velocity": 78}, {"time": 3202, "pitch": 62, "duration": 3, "velocity": 74}, {"time": 3222, "pitch": 72, "duration": 2, "velocity": 73}, {"time": 3226, "pitch": 72, "duration": 3, "velocity": 74}, {"time": 3234, "pitch": 75, "duration": 1, "velocity": 80}, {"time": 3238, "pitch": 75, "duration": 3, "velocity": 73}, {"time": 3246, "pitch": 79, "duration": 2, "velocity": 71}, {"time": 3250, "pitch": 79, "duration": 2, "velocity": 79}, {"time": 3262, "pitch": 75, "duration": 2, "velocity": 74}, {"time": 3262, "pitch": 79, "duration": 2, "velocity": 72}, {"time": 3274, "pitch": 75, "duration": 3, "velocity": 70}, {"time": 3274, "pitch": 79, "duration": 3, "velocity": 72}, {"time": 3286, "pitch": 72, "duration": 3, "velocity": 71}, {"time": 3286, "pitch": 77, "duration": 4, "velocity": 69}, {"time": 3310, "pitch": 82, "duration": 34, "velocity": 82}, {"time": 3346, "pitch": 79, "duration": 13, "velocity": 75}, {"time": 3358, "pitch": 81, "duration": 33, "velocity": 74}, {"time": 3394, "pitch": 77, "duration": 9, "velocity": 80}, {"time": 3406, "pitch": 79, "duration": 48, "velocity": 79}, {"time": 3454, "pitch": 82, "duration": 14, "velocity": 81}, {"time": 3478, "pitch": 82, "duration": 5, "velocity": 77}, {"time": 3490, "pitch": 81, "duration": 5, "velocity": 75}, {"time": 3502, "pitch": 82, "duration": 48, "velocity": 81}, {"time": 3514, "pitch": 65, "duration": 7, "velocity": 78}, {"time": 3526, "pitch": 67, "duration": 7, "velocity": 76}, {"time": 3538, "pitch": 68, "duration": 7, "velocity": 79}, {"time": 3550, "pitch": 69, "duration": 7, "velocity": 77}, {"time": 3562, "pitch": 67, "duration": 8, "velocity": 73}, {"time": 3574, "pitch": 65, "duration": 8, "velocity": 74}, {"time": 3586, "pitch": 74, "duration": 3, "velocity": 79}, {"time": 3594, "pitch": 72, "duration": 2, "velocity": 68}, {"time": 3598, "pitch": 70, "duration": 2, "velocity": 74}, {"time": 3622, "pitch": 67, "duration": 2, "velocity": 74}, {"time": 3634, "pitch": 70, "duration": 3, "velocity": 77}, {"time": 3646, "pitch": 69, "duration": 2, "velocity": 72}, {"time": 3670, "pitch": 65, "duration": 3, "velocity": 78}, {"time": 3682, "pitch": 62, "duration": 3, "velocity": 74}, {"time": 3702, "pitch": 72, "duration": 2, "velocity": 73}, {"time": 3706, "pitch": 72, "duration": 3, "velocity": 74}, {"time": 3714, "pitch": 75, "duration": 1, "velocity": 80}, {"time": 3718, "pitch": 75, "duration": 3, "velocity": 73}, {"time": 3726, "pitch": 79, "duration": 2, "velocity": 71}, {"time": 3730, "pitch": 79, "duration": 2, "velocity": 79}, {"time": 3742, "pitch": 75, "duration": 2, "velocity": 74}, {"time": 3742, "pitch": 79, "duration": 2, "velocity": 72}, {"time": 3754, "pitch": 75, "duration": 3, "velocity": 70}, {"time": 3754, "pitch": 79, "duration": 3, "velocity": 72}, {"time": 3766, "pitch": 72, "duration": 3, "velocity": 71}, {"time": 3766, "pitch": 77, "duration": 4, "velocity": 69}, {"time": 3790, "pitch": 82, "duration": 34, "velocity": 82}, {"time": 3826, "pitch": 79, "duration": 13, "velocity": 75}, {"time": 3838, "pitch": 81, "duration": 33, "velocity": 74}, {"time": 3874, "pitch": 77, "duration": 9, "velocity": 80}, {"time": 3886, "pitch": 79, "duration": 48, "velocity": 79}, {"time": 3934, "pitch": 82, "duration": 14, "velocity": 81}, {"time": 3958, "pitch": 82, "duration": 5, "velocity": 77}, {"time": 3970, "pitch": 81, "duration": 5, "velocity": 75}, {"time": 3982, "pitch": 82, "duration": 48, "velocity": 81}, {"time": 3994, "pitch": 65, "duration": 7, "velocity": 78}, {"time": 4006, "pitch": 67, "duration": 7, "velocity": 76}, {"time": 4018, "pitch": 68, "duration": 7, "velocity": 79}, {"time": 4030, "pitch": 69, "duration": 7, "velocity": 77}, {"time": 4038, "pitch": 65, "duration": 3, "velocity": 79}, {"time": 4042, "pitch": 64, "duration": 3, "velocity": 81}, {"time": 4050, "pitch": 65, "duration": 2, "velocity": 79}, {"time": 4054, "pitch": 67, "duration": 2, "velocity": 75}, {"time": 4062, "pitch": 69, "duration": 2, "velocity": 72}, {"time": 4066, "pitch": 70, "duration": 2, "velocity": 85}, {"time": 4074, "pitch": 72, "duration": 2, "velocity": 80}, {"time": 4078, "pitch": 77, "duration": 7, "velocity": 83}, {"time": 4090, "pitch": 77, "duration": 3, "velocity": 86}, {"time": 4098, "pitch": 82, "duration": 2, "velocity": 93}, {"time": 4102, "pitch": 74, "duration": 4, "velocity": 90}, {"time": 4114, "pitch": 74, "duration": 3, "velocity": 93}, {"time": 4122, "pitch": 77, "duration": 2, "velocity": 83}, {"time": 4126, "pitch": 75, "duration": 2, "velocity": 95}, {"time": 4134, "pitch": 74, "duration": 5, "velocity": 62}, {"time": 4138, "pitch": 75, "duration": 3, "velocity": 79}, {"time": 4146, "pitch": 77, "duration": 2, "velocity": 80}, {"time": 4150, "pitch": 79, "duration": 4, "velocity": 83}, {"time": 4162, "pitch": 75, "duration": 3, "velocity": 93}, {"time": 4170, "pitch": 74, "duration": 2, "velocity": 85}, {"time": 4174, "pitch": 72, "duration": 5, "velocity": 79}, {"time": 4186, "pitch": 69, "duration": 4, "velocity": 81}, {"time": 4198, "pitch": 72, "duration": 3, "velocity": 81}, {"time": 4210, "pitch": 69, "duration": 3, "velocity": 85}, {"time": 4222, "pitch": 74, "duration": 2, "velocity": 90}, {"time": 4230, "pitch": 73, "duration": 2, "velocity": 86}, {"time": 4234, "pitch": 74, "duration": 2, "velocity": 85}, {"time": 4242, "pitch": 75, "duration": 2, "velocity": 82}, {"time": 4246, "pitch": 77, "duration": 2, "velocity": 80}, {"time": 4270, "pitch": 77, "duration": 7, "velocity": 83}, {"time": 4282, "pitch": 77, "duration": 3, "velocity": 86}, {"time": 4290, "pitch": 82, "duration": 2, "velocity": 93}, {"time": 4294, "pitch": 74, "duration": 4, "velocity": 90}, {"time": 4306, "pitch": 74, "duration": 3, "velocity": 93}, {"time": 4314, "pitch": 77, "duration": 2, "velocity": 83}, {"time": 4318, "pitch": 75, "duration": 2, "velocity": 95}, {"time": 4326, "pitch": 74, "duration": 5, "velocity": 62}, {"time": 4330, "pitch": 75, "duration": 3, "velocity": 79}, {"time": 4338, "pitch": 77, "duration": 2, "velocity": 80}, {"time": 4342, "pitch": 79, "duration": 4, "velocity": 83}, {"time": 4354, "pitch": 75, "duration": 3, "velocity": 93}, {"time": 4362, "pitch": 74, "duration": 2, "velocity": 85}, {"time": 4366, "pitch": 72, "duration": 5, "velocity": 79}, {"time": 4378, "pitch": 72, "duration": 3, "velocity": 76}, {"time": 4378, "pitch": 75, "duration": 2, "velocity": 80}, {"time": 4390, "pitch": 70, "duration": 2, "velocity": 79}, {"time": 4390, "pitch": 74, "duration": 3, "velocity": 84}, {"time": 4402, "pitch": 69, "duration": 3, "velocity": 70}, {"time": 4402, "pitch": 72, "duration": 2, "velocity": 77}, {"time": 4414, "pitch": 65, "duration": 6, "velocity": 74}, {"time": 4414, "pitch": 70, "duration": 6, "velocity": 74}, {"time": 4426, "pitch": 70, "duration": 4, "velocity": 79}, {"time": 4426, "pitch": 74, "duration": 3, "velocity": 84}, {"time": 4438, "pitch": 65, "duration": 15, "velocity": 71}, {"time": 4438, "pitch": 70, "duration": 16, "velocity": 73}, {"time": 4462, "pitch": 65, "duration": 6, "velocity": 71}, {"time": 4462, "pitch": 69, "duration": 6, "velocity": 74}, {"time": 4486, "pitch": 69, "duration": 13, "velocity": 66}, {"time": 4486, "pitch": 72, "duration": 14, "velocity": 72}, {"time": 4510, "pitch": 65, "duration": 4, "velocity": 70}, {"time": 4510, "pitch": 70, "duration": 5, "velocity": 75}, {"time": 4522, "pitch": 65, "duration": 5, "velocity": 73}, {"time": 4534, "pitch": 65, "duration": 14, "velocity": 72}, {"time": 4534, "pitch": 70, "duration": 14, "velocity": 71}, {"time": 4558, "pitch": 65, "duration": 18, "velocity": 72}, {"time": 4558, "pitch": 69, "duration": 19, "velocity": 60}, {"time": 4582, "pitch": 69, "duration": 16, "velocity": 71}, {"time": 4582, "pitch": 72, "duration": 16, "velocity": 72}, {"time": 4606, "pitch": 72, "duration": 18, "velocity": 74}, {"time": 4606, "pitch": 77, "duration": 17, "velocity": 75}, {"time": 4630, "pitch": 69, "duration": 13, "velocity": 75}, {"time": 4630, "pitch": 72, "duration": 14, "velocity": 77}, {"time": 4654, "pitch": 70, "duration": 28, "velocity": 64}, {"time": 4654, "pitch": 74, "duration": 28, "velocity": 80}, {"time": 4662, "pitch": 65, "duration": 3, "velocity": 79}, {"time": 4666, "pitch": 64, "duration": 3, "velocity": 81}, {"time": 4674, "pitch": 65, "duration": 3, "velocity": 80}, {"time": 4678, "pitch": 66, "duration": 2, "velocity": 84}, {"time": 4686, "pitch": 67, "duration": 3, "velocity": 67}, {"time": 4690, "pitch": 68, "duration": 3, "velocity": 80}, {"time": 4698, "pitch": 69, "duration": 3, "velocity": 74}, {"time": 4702, "pitch": 70, "duration": 4, "velocity": 86}, {"time": 4720, "pitch": 65, "duration": 5, "velocity": 68}, {"time": 4720, "pitch": 77, "duration": 5, "velocity": 68}, {"time": 4722, "pitch": 67, "duration": 5, "velocity": 75}, {"time": 4722, "pitch": 79, "duration": 5, "velocity": 75}, {"time": 4724, "pitch": 69, "duration": 4, "velocity": 75}, {"time": 4724, "pitch": 81, "duration": 5, "velocity": 75}, {"time": 4726, "pitch": 70, "duration": 17, "velocity": 96}, {"time": 4726, "pitch": 82, "duration": 17, "velocity": 96}]}, {"program": 0, "is_drum": false, "name": "PIANO", "notes": [{"time": 238, "pitch": 46, "duration": 22, "velocity": 83}, {"time": 250, "pitch": 53, "duration": 2, "velocity": 75}, {"time": 250, "pitch": 58, "duration": 10, "velocity": 74}, {"time": 250, "pitch": 62, "duration": 11, "velocity": 79}, {"time": 258, "pitch": 53, "duration": 5, "velocity": 77}, {"time": 262, "pitch": 41, "duration": 21, "velocity": 73}, {"time": 274, "pitch": 53, "duration": 2, "velocity": 78}, {"time": 274, "pitch": 58, "duration": 8, "velocity": 83}, {"time": 274, "pitch": 62, "duration": 8, "velocity": 78}, {"time": 282, "pitch": 53, "duration": 2, "velocity": 75}, {"time": 286, "pitch": 46, "duration": 4, "velocity": 83}, {"time": 286, "pitch": 53, "duration": 3, "velocity": 75}, {"time": 286, "pitch": 58, "duration": 4, "velocity": 79}, {"time": 298, "pitch": 41, "duration": 9, "velocity": 79}, {"time": 298, "pitch": 53, "duration": 10, "velocity": 81}, {"time": 310, "pitch": 43, "duration": 9, "velocity": 81}, {"time": 310, "pitch": 55, "duration": 10, "velocity": 80}, {"time": 322, "pitch": 45, "duration": 8, "velocity": 73}, {"time": 322, "pitch": 57, "duration": 9, "velocity": 79}, {"time": 334, "pitch": 46, "duration": 23, "velocity": 86}, {"time": 346, "pitch": 53, "duration": 2, "velocity": 79}, {"time": 346, "pitch": 58, "duration": 13, "velocity": 81}, {"time": 346, "pitch": 62, "duration": 13, "velocity": 80}, {"time": 354, "pitch": 53, "duration": 6, "velocity": 72}, {"time": 358, "pitch": 41, "duration": 22, "velocity": 78}, {"time": 370, "pitch": 53, "duration": 2, "velocity": 80}, {"time": 370, "pitch": 58, "duration": 9, "velocity": 83}, {"time": 370, "pitch": 62, "duration": 14, "velocity": 80}, {"time": 378, "pitch": 53, "duration": 3, "velocity": 72}, {"time": 382, "pitch": 48, "duration": 23, "velocity": 80}, {"time": 394, "pitch": 55, "duration": 3, "velocity": 80}, {"time": 394, "pitch": 60, "duration": 12, "velocity": 80}, {"time": 394, "pitch": 63, "duration": 13, "velocity": 78}, {"time": 402, "pitch": 55, "duration": 4, "velocity": 69}, {"time": 406, "pitch": 43, "duration": 20, "velocity": 78}, {"time": 418, "pitch": 55, "duration": 2, "velocity": 82}, {"time": 418, "pitch": 60, "duration": 9, "velocity": 84}, {"time": 418, "pitch": 63, "duration": 10, "velocity": 82}, {"time": 426, "pitch": 55, "duration": 4, "velocity": 77}, {"time": 430, "pitch": 41, "duration": 17, "velocity": 81}, {"time": 442, "pitch": 53, "duration": 2, "velocity": 80}, {"time": 442, "pitch": 57, "duration": 4, "velocity": 81}, {"time": 442, "pitch": 60, "duration": 5, "velocity": 80}, {"time": 450, "pitch": 53, "duration": 12, "velocity": 79}, {"time": 454, "pitch": 48, "duration": 18, "velocity": 80}, {"time": 466, "pitch": 57, "duration": 7, "velocity": 79}, {"time": 466, "pitch": 60, "duration": 11, "velocity": 79}, {"time": 474, "pitch": 53, "duration": 3, "velocity": 71}, {"time": 478, "pitch": 46, "duration": 22, "velocity": 80}, {"time": 490, "pitch": 53, "duration": 2, "velocity": 79}, {"time": 490, "pitch": 58, "duration": 10, "velocity": 81}, {"time": 490, "pitch": 62, "duration": 11, "velocity": 80}, {"time": 498, "pitch": 53, "duration": 5, "velocity": 65}, {"time": 502, "pitch": 41, "duration": 18, "velocity": 81}, {"time": 514, "pitch": 53, "duration": 3, "velocity": 80}, {"time": 514, "pitch": 58, "duration": 4, "velocity": 85}, {"time": 514, "pitch": 62, "duration": 4, "velocity": 80}, {"time": 526, "pitch": 46, "duration": 17, "velocity": 86}, {"time": 538, "pitch": 53, "duration": 2, "velocity": 79}, {"time": 538, "pitch": 58, "duration": 4, "velocity": 86}, {"time": 538, "pitch": 62, "duration": 7, "velocity": 81}, {"time": 546, "pitch": 53, "duration": 4, "velocity": 83}, {"time": 546, "pitch": 62, "duration": 1, "velocity": 60}, {"time": 550, "pitch": 41, "duration": 17, "velocity": 80}, {"time": 562, "pitch": 53, "duration": 1, "velocity": 78}, {"time": 562, "pitch": 58, "duration": 4, "velocity": 83}, {"time": 562, "pitch": 62, "duration": 11, "velocity": 80}, {"time": 570, "pitch": 53, "duration": 3, "velocity": 75}, {"time": 574, "pitch": 48, "duration": 18, "velocity": 80}, {"time": 586, "pitch": 55, "duration": 3, "velocity": 78}, {"time": 586, "pitch": 60, "duration": 4, "velocity": 80}, {"time": 586, "pitch": 63, "duration": 5, "velocity": 79}, {"time": 594, "pitch": 55, "duration": 4, "velocity": 80}, {"time": 598, "pitch": 43, "duration": 20, "velocity": 81}, {"time": 610, "pitch": 55, "duration": 1, "velocity": 79}, {"time": 610, "pitch": 60, "duration": 10, "velocity": 85}, {"time": 610, "pitch": 63, "duration": 10, "velocity": 85}, {"time": 618, "pitch": 55, "duration": 3, "velocity": 73}, {"time": 622, "pitch": 41, "duration": 19, "velocity": 80}, {"time": 634, "pitch": 53, "duration": 3, "velocity": 74}, {"time": 634, "pitch": 57, "duration": 8, "velocity": 77}, {"time": 634, "pitch": 60, "duration": 8, "velocity": 80}, {"time": 642, "pitch": 53, "duration": 12, "velocity": 72}, {"time": 646, "pitch": 48, "duration": 20, "velocity": 79}, {"time": 658, "pitch": 57, "duration": 7, "velocity": 79}, {"time": 658, "pitch": 60, "duration": 8, "velocity": 80}, {"time": 658, "pitch": 65, "duration": 7, "velocity": 77}, {"time": 666, "pitch": 53, "duration": 1, "velocity": 65}, {"time": 670, "pitch": 46, "duration": 4, "velocity": 81}, {"time": 670, "pitch": 53, "duration": 4, "velocity": 75}, {"time": 670, "pitch": 58, "duration": 4, "velocity": 79}, {"time": 682, "pitch": 46, "duration": 2, "velocity": 80}, {"time": 682, "pitch": 53, "duration": 2, "velocity": 70}, {"time": 682, "pitch": 58, "duration": 3, "velocity": 72}, {"time": 682, "pitch": 62, "duration": 3, "velocity": 74}, {"time": 694, "pitch": 46, "duration": 18, "velocity": 82}, {"time": 694, "pitch": 53, "duration": 17, "velocity": 78}, {"time": 694, "pitch": 58, "duration": 17, "velocity": 78}, {"time": 694, "pitch": 62, "duration": 18, "velocity": 79}, {"time": 718, "pitch": 46, "duration": 20, "velocity": 86}, {"time": 730, "pitch": 53, "duration": 3, "velocity": 79}, {"time": 730, "pitch": 58, "duration": 10, "velocity": 82}, {"time": 730, "pitch": 62, "duration": 12, "velocity": 81}, {"time": 738, "pitch": 53, "duration": 5, "velocity": 74}, {"time": 742, "pitch": 41, "duration": 18, "velocity": 81}, {"time": 754, "pitch": 53, "duration": 2, "velocity": 79}, {"time": 754, "pitch": 58, "duration": 3, "velocity": 88}, {"time": 754, "pitch": 62, "duration": 9, "velocity": 80}, {"time": 762, "pitch": 53, "duration": 6, "velocity": 76}, {"time": 766, "pitch": 46, "duration": 21, "velocity": 79}, {"time": 778, "pitch": 53, "duration": 2, "velocity": 81}, {"time": 778, "pitch": 58, "duration": 3, "velocity": 84}, {"time": 778, "pitch": 62, "duration": 5, "velocity": 80}, {"time": 786, "pitch": 53, "duration": 4, "velocity": 76}, {"time": 790, "pitch": 41, "duration": 20, "velocity": 80}, {"time": 802, "pitch": 53, "duration": 2, "velocity": 80}, {"time": 802, "pitch": 58, "duration": 4, "velocity": 85}, {"time": 802, "pitch": 62, "duration": 11, "velocity": 80}, {"time": 810, "pitch": 53, "duration": 2, "velocity": 74}, {"time": 814, "pitch": 48, "duration": 22, "velocity": 90}, {"time": 826, "pitch": 55, "duration": 4, "velocity": 77}, {"time": 826, "pitch": 60, "duration": 15, "velocity": 80}, {"time": 826, "pitch": 63, "duration": 16, "velocity": 80}, {"time": 834, "pitch": 55, "duration": 9, "velocity": 76}, {"time": 838, "pitch": 43, "duration": 21, "velocity": 78}, {"time": 850, "pitch": 60, "duration": 10, "velocity": 82}, {"time": 850, "pitch": 63, "duration": 9, "velocity": 84}, {"time": 858, "pitch": 55, "duration": 4, "velocity": 75}, {"time": 862, "pitch": 41, "duration": 19, "velocity": 82}, {"time": 874, "pitch": 53, "duration": 1, "velocity": 69}, {"time": 874, "pitch": 57, "duration": 9, "velocity": 81}, {"time": 874, "pitch": 60, "duration": 10, "velocity": 80}, {"time": 882, "pitch": 53, "duration": 4, "velocity": 80}, {"time": 886, "pitch": 48, "duration": 18, "velocity": 79}, {"time": 898, "pitch": 57, "duration": 9, "velocity": 84}, {"time": 898, "pitch": 60, "duration": 10, "velocity": 85}, {"time": 906, "pitch": 53, "duration": 3, "velocity": 81}, {"time": 910, "pitch": 39, "duration": 16, "velocity": 86}, {"time": 922, "pitch": 51, "duration": 2, "velocity": 81}, {"time": 922, "pitch": 55, "duration": 2, "velocity": 80}, {"time": 922, "pitch": 58, "duration": 3, "velocity": 75}, {"time": 922, "pitch": 63, "duration": 4, "velocity": 79}, {"time": 930, "pitch": 51, "duration": 12, "velocity": 90}, {"time": 934, "pitch": 46, "duration": 15, "velocity": 77}, {"time": 946, "pitch": 51, "duration": 1, "velocity": 74}, {"time": 946, "pitch": 55, "duration": 9, "velocity": 84}, {"time": 946, "pitch": 58, "duration": 11, "velocity": 80}, {"time": 946, "pitch": 63, "duration": 10, "velocity": 81}, {"time": 954, "pitch": 51, "duration": 4, "velocity": 80}, {"time": 958, "pitch": 41, "duration": 19, "velocity": 84}, {"time": 970, "pitch": 53, "duration": 1, "velocity": 79}, {"time": 970, "pitch": 57, "duration": 11, "velocity": 83}, {"time": 970, "pitch": 60, "duration": 10, "velocity": 81}, {"time": 978, "pitch": 53, "duration": 12, "velocity": 80}, {"time": 982, "pitch": 48, "duration": 20, "velocity": 80}, {"time": 994, "pitch": 57, "duration": 8, "velocity": 82}, {"time": 994, "pitch": 60, "duration": 11, "velocity": 83}, {"time": 1002, "pitch": 53, "duration": 3, "velocity": 78}, {"time": 1006, "pitch": 46, "duration": 20, "velocity": 90}, {"time": 1018, "pitch": 53, "duration": 2, "velocity": 78}, {"time": 1018, "pitch": 58, "duration": 10, "velocity": 84}, {"time": 1018, "pitch": 62, "duration": 10, "velocity": 80}, {"time": 1026, "pitch": 53, "duration": 5, "velocity": 77}, {"time": 1030, "pitch": 41, "duration": 21, "velocity": 82}, {"time": 1042, "pitch": 58, "duration": 9, "velocity": 85}, {"time": 1042, "pitch": 62, "duration": 14, "velocity": 80}, {"time": 1050, "pitch": 53, "duration": 2, "velocity": 81}, {"time": 1054, "pitch": 41, "duration": 44, "velocity": 83}, {"time": 1054, "pitch": 53, "duration": 3, "velocity": 74}, {"time": 1054, "pitch": 57, "duration": 2, "velocity": 73}, {"time": 1066, "pitch": 53, "duration": 14, "velocity": 85}, {"time": 1066, "pitch": 57, "duration": 16, "velocity": 95}, {"time": 1078, "pitch": 48, "duration": 21, "velocity": 75}, {"time": 1086, "pitch": 53, "duration": 2, "velocity": 75}, {"time": 1090, "pitch": 53, "duration": 7, "velocity": 80}, {"time": 1090, "pitch": 57, "duration": 8, "velocity": 84}, {"time": 1090, "pitch": 60, "duration": 9, "velocity": 84}, {"time": 1102, "pitch": 46, "duration": 20, "velocity": 86}, {"time": 1114, "pitch": 53, "duration": 3, "velocity": 79}, {"time": 1114, "pitch": 58, "duration": 10, "velocity": 82}, {"time": 1114, "pitch": 62, "duration": 12, "velocity": 81}, {"time": 1122, "pitch": 53, "duration": 5, "velocity": 74}, {"time": 1126, "pitch": 41, "duration": 18, "velocity": 81}, {"time": 1138, "pitch": 53, "duration": 2, "velocity": 79}, {"time": 1138, "pitch": 58, "duration": 3, "velocity": 88}, {"time": 1138, "pitch": 62, "duration": 9, "velocity": 80}, {"time": 1146, "pitch": 53, "duration": 6, "velocity": 76}, {"time": 1150, "pitch": 46, "duration": 21, "velocity": 79}, {"time": 1162, "pitch": 53, "duration": 2, "velocity": 81}, {"time": 1162, "pitch": 58, "duration": 3, "velocity": 84}, {"time": 1162, "pitch": 62, "duration": 5, "velocity": 80}, {"time": 1170, "pitch": 53, "duration": 4, "velocity": 76}, {"time": 1174, "pitch": 41, "duration": 20, "velocity": 80}, {"time": 1186, "pitch": 53, "duration": 2, "velocity": 80}, {"time": 1186, "pitch": 58, "duration": 4, "velocity": 85}, {"time": 1186, "pitch": 62, "duration": 11, "velocity": 80}, {"time": 1194, "pitch": 53, "duration": 2, "velocity": 74}, {"time": 1198, "pitch": 48, "duration": 22, "velocity": 90}, {"time": 1210, "pitch": 55, "duration": 4, "velocity": 77}, {"time": 1210, "pitch": 60, "duration": 15, "velocity": 80}, {"time": 1210, "pitch": 63, "duration": 16, "velocity": 80}, {"time": 1218, "pitch": 55, "duration": 9, "velocity": 76}, {"time": 1222, "pitch": 43, "duration": 21, "velocity": 78}, {"time": 1234, "pitch": 60, "duration": 10, "velocity": 82}, {"time": 1234, "pitch": 63, "duration": 9, "velocity": 84}, {"time": 1242, "pitch": 55, "duration": 4, "velocity": 75}, {"time": 1246, "pitch": 41, "duration": 19, "velocity": 82}, {"time": 1258, "pitch": 53, "duration": 1, "velocity": 69}, {"time": 1258, "pitch": 57, "duration": 9, "velocity": 81}, {"time": 1258, "pitch": 60, "duration": 10, "velocity": 80}, {"time": 1266, "pitch": 53, "duration": 4, "velocity": 80}, {"time": 1270, "pitch": 48, "duration": 18, "velocity": 79}, {"time": 1282, "pitch": 57, "duration": 9, "velocity": 84}, {"time": 1282, "pitch": 60, "duration": 10, "velocity": 85}, {"time": 1290, "pitch": 53, "duration": 3, "velocity": 81}, {"time": 1294, "pitch": 39, "duration": 16, "velocity": 86}, {"time": 1306, "pitch": 51, "duration": 2, "velocity": 81}, {"time": 1306, "pitch": 55, "duration": 2, "velocity": 80}, {"time": 1306, "pitch": 58, "duration": 3, "velocity": 75}, {"time": 1306, "pitch": 63, "duration": 4, "velocity": 79}, {"time": 1314, "pitch": 51, "duration": 12, "velocity": 90}, {"time": 1318, "pitch": 46, "duration": 15, "velocity": 77}, {"time": 1330, "pitch": 51, "duration": 1, "velocity": 74}, {"time": 1330, "pitch": 55, "duration": 9, "velocity": 84}, {"time": 1330, "pitch": 58, "duration": 11, "velocity": 80}, {"time": 1330, "pitch": 63, "duration": 10, "velocity": 81}, {"time": 1338, "pitch": 51, "duration": 4, "velocity": 80}, {"time": 1342, "pitch": 41, "duration": 19, "velocity": 84}, {"time": 1354, "pitch": 53, "duration": 1, "velocity": 79}, {"time": 1354, "pitch": 57, "duration": 11, "velocity": 83}, {"time": 1354, "pitch": 60, "duration": 10, "velocity": 81}, {"time": 1362, "pitch": 53, "duration": 12, "velocity": 80}, {"time": 1366, "pitch": 48, "duration": 20, "velocity": 80}, {"time": 1378, "pitch": 57, "duration": 8, "velocity": 82}, {"time": 1378, "pitch": 60, "duration": 11, "velocity": 83}, {"time": 1386, "pitch": 53, "duration": 3, "velocity": 78}, {"time": 1390, "pitch": 46, "duration": 22, "velocity": 93}, {"time": 1402, "pitch": 53, "duration": 2, "velocity": 80}, {"time": 1402, "pitch": 58, "duration": 13, "velocity": 90}, {"time": 1402, "pitch": 62, "duration": 13, "velocity": 81}, {"time": 1410, "pitch": 53, "duration": 6, "velocity": 75}, {"time": 1414, "pitch": 41, "duration": 22, "velocity": 82}, {"time": 1426, "pitch": 53, "duration": 1, "velocity": 74}, {"time": 1426, "pitch": 58, "duration": 5, "velocity": 93}, {"time": 1426, "pitch": 62, "duration": 9, "velocity": 81}, {"time": 1434, "pitch": 53, "duration": 2, "velocity": 81}, {"time": 1438, "pitch": 46, "duration": 10, "velocity": 100}, {"time": 1438, "pitch": 53, "duration": 8, "velocity": 82}, {"time": 1438, "pitch": 58, "duration": 9, "velocity": 81}, {"time": 1450, "pitch": 46, "duration": 11, "velocity": 90}, {"time": 1450, "pitch": 53, "duration": 9, "velocity": 80}, {"time": 1450, "pitch": 58, "duration": 9, "velocity": 85}, {"time": 1462, "pitch": 48, "duration": 9, "velocity": 86}, {"time": 1462, "pitch": 60, "duration": 8, "velocity": 82}, {"time": 1474, "pitch": 50, "duration": 9, "velocity": 95}, {"time": 1474, "pitch": 62, "duration": 10, "velocity": 88}, {"time": 1486, "pitch": 39, "duration": 20, "velocity": 82}, {"time": 1486, "pitch": 51, "duration": 10, "velocity": 70}, {"time": 1486, "pitch": 55, "duration": 10, "velocity": 80}, {"time": 1498, "pitch": 51, "duration": 15, "velocity": 82}, {"time": 1498, "pitch": 55, "duration": 17, "velocity": 86}, {"time": 1498, "pitch": 58, "duration": 17, "velocity": 80}, {"time": 1510, "pitch": 46, "duration": 20, "velocity": 79}, {"time": 1518, "pitch": 51, "duration": 7, "velocity": 84}, {"time": 1522, "pitch": 55, "duration": 9, "velocity": 83}, {"time": 1522, "pitch": 58, "duration": 10, "velocity": 76}, {"time": 1522, "pitch": 63, "duration": 12, "velocity": 76}, {"time": 1530, "pitch": 51, "duration": 4, "velocity": 80}, {"time": 1534, "pitch": 38, "duration": 20, "velocity": 85}, {"time": 1546, "pitch": 53, "duration": 14, "velocity": 83}, {"time": 1546, "pitch": 57, "duration": 14, "velocity": 81}, {"time": 1554, "pitch": 50, "duration": 6, "velocity": 70}, {"time": 1558, "pitch": 45, "duration": 20, "velocity": 75}, {"time": 1566, "pitch": 50, "duration": 5, "velocity": 80}, {"time": 1570, "pitch": 53, "duration": 9, "velocity": 83}, {"time": 1570, "pitch": 57, "duration": 9, "velocity": 83}, {"time": 1570, "pitch": 62, "duration": 8, "velocity": 80}, {"time": 1578, "pitch": 50, "duration": 4, "velocity": 79}, {"time": 1582, "pitch": 36, "duration": 21, "velocity": 83}, {"time": 1594, "pitch": 51, "duration": 12, "velocity": 83}, {"time": 1594, "pitch": 55, "duration": 13, "velocity": 85}, {"time": 1594, "pitch": 60, "duration": 13, "velocity": 80}, {"time": 1602, "pitch": 48, "duration": 6, "velocity": 79}, {"time": 1606, "pitch": 43, "duration": 20, "velocity": 75}, {"time": 1618, "pitch": 51, "duration": 9, "velocity": 84}, {"time": 1618, "pitch": 55, "duration": 10, "velocity": 84}, {"time": 1618, "pitch": 60, "duration": 12, "velocity": 79}, {"time": 1626, "pitch": 48, "duration": 2, "velocity": 74}, {"time": 1630, "pitch": 39, "duration": 18, "velocity": 95}, {"time": 1642, "pitch": 51, "duration": 1, "velocity": 79}, {"time": 1642, "pitch": 55, "duration": 9, "velocity": 81}, {"time": 1642, "pitch": 58, "duration": 10, "velocity": 77}, {"time": 1642, "pitch": 63, "duration": 13, "velocity": 79}, {"time": 1650, "pitch": 51, "duration": 3, "velocity": 82}, {"time": 1654, "pitch": 41, "duration": 17, "velocity": 82}, {"time": 1666, "pitch": 57, "duration": 10, "velocity": 88}, {"time": 1666, "pitch": 60, "duration": 10, "velocity": 90}, {"time": 1666, "pitch": 65, "duration": 9, "velocity": 80}, {"time": 1674, "pitch": 53, "duration": 3, "velocity": 72}, {"time": 1678, "pitch": 39, "duration": 18, "velocity": 90}, {"time": 1690, "pitch": 51, "duration": 1, "velocity": 77}, {"time": 1690, "pitch": 55, "duration": 9, "velocity": 81}, {"time": 1690, "pitch": 58, "duration": 10, "velocity": 75}, {"time": 1690, "pitch": 63, "duration": 9, "velocity": 78}, {"time": 1698, "pitch": 51, "duration": 5, "velocity": 81}, {"time": 1702, "pitch": 46, "duration": 16, "velocity": 77}, {"time": 1710, "pitch": 51, "duration": 6, "velocity": 75}, {"time": 1714, "pitch": 55, "duration": 8, "velocity": 81}, {"time": 1714, "pitch": 58, "duration": 9, "velocity": 79}, {"time": 1714, "pitch": 63, "duration": 9, "velocity": 79}, {"time": 1722, "pitch": 51, "duration": 3, "velocity": 79}, {"time": 1726, "pitch": 38, "duration": 19, "velocity": 84}, {"time": 1738, "pitch": 53, "duration": 12, "velocity": 81}, {"time": 1738, "pitch": 57, "duration": 11, "velocity": 81}, {"time": 1738, "pitch": 62, "duration": 5, "velocity": 79}, {"time": 1746, "pitch": 50, "duration": 5, "velocity": 74}, {"time": 1750, "pitch": 45, "duration": 14, "velocity": 74}, {"time": 1758, "pitch": 50, "duration": 4, "velocity": 72}, {"time": 1758, "pitch": 53, "duration": 6, "velocity": 79}, {"time": 1758, "pitch": 57, "duration": 6, "velocity": 77}, {"time": 1762, "pitch": 38, "duration": 8, "velocity": 90}, {"time": 1770, "pitch": 53, "duration": 3, "velocity": 77}, {"time": 1770, "pitch": 57, "duration": 2, "velocity": 74}, {"time": 1774, "pitch": 36, "duration": 25, "velocity": 82}, {"time": 1786, "pitch": 51, "duration": 12, "velocity": 82}, {"time": 1786, "pitch": 55, "duration": 13, "velocity": 81}, {"time": 1794, "pitch": 48, "duration": 6, "velocity": 70}, {"time": 1798, "pitch": 43, "duration": 14, "velocity": 74}, {"time": 1806, "pitch": 48, "duration": 7, "velocity": 80}, {"time": 1806, "pitch": 55, "duration": 1, "velocity": 68}, {"time": 1810, "pitch": 36, "duration": 10, "velocity": 80}, {"time": 1818, "pitch": 51, "duration": 4, "velocity": 81}, {"time": 1818, "pitch": 55, "duration": 4, "velocity": 83}, {"time": 1818, "pitch": 60, "duration": 5, "velocity": 79}, {"time": 1822, "pitch": 41, "duration": 21, "velocity": 80}, {"time": 1822, "pitch": 53, "duration": 10, "velocity": 77}, {"time": 1822, "pitch": 57, "duration": 9, "velocity": 77}, {"time": 1834, "pitch": 53, "duration": 1, "velocity": 46}, {"time": 1834, "pitch": 57, "duration": 7, "velocity": 80}, {"time": 1834, "pitch": 60, "duration": 9, "velocity": 83}, {"time": 1842, "pitch": 53, "duration": 9, "velocity": 82}, {"time": 1846, "pitch": 48, "duration": 19, "velocity": 80}, {"time": 1858, "pitch": 57, "duration": 9, "velocity": 84}, {"time": 1858, "pitch": 60, "duration": 9, "velocity": 84}, {"time": 1858, "pitch": 65, "duration": 10, "velocity": 80}, {"time": 1866, "pitch": 53, "duration": 1, "velocity": 74}, {"time": 1870, "pitch": 46, "duration": 23, "velocity": 79}, {"time": 1870, "pitch": 53, "duration": 14, "velocity": 72}, {"time": 1870, "pitch": 58, "duration": 9, "velocity": 69}, {"time": 1882, "pitch": 58, "duration": 10, "velocity": 81}, {"time": 1882, "pitch": 62, "duration": 11, "velocity": 81}, {"time": 1890, "pitch": 53, "duration": 6, "velocity": 74}, {"time": 1894, "pitch": 41, "duration": 20, "velocity": 82}, {"time": 1902, "pitch": 53, "duration": 5, "velocity": 73}, {"time": 1906, "pitch": 58, "duration": 8, "velocity": 84}, {"time": 1906, "pitch": 62, "duration": 10, "velocity": 82}, {"time": 1914, "pitch": 53, "duration": 1, "velocity": 74}, {"time": 1918, "pitch": 41, "duration": 5, "velocity": 85}, {"time": 1918, "pitch": 53, "duration": 4, "velocity": 80}, {"time": 1918, "pitch": 57, "duration": 5, "velocity": 84}, {"time": 1930, "pitch": 41, "duration": 10, "velocity": 82}, {"time": 1930, "pitch": 53, "duration": 12, "velocity": 81}, {"time": 1942, "pitch": 43, "duration": 11, "velocity": 81}, {"time": 1942, "pitch": 55, "duration": 10, "velocity": 82}, {"time": 1954, "pitch": 45, "duration": 9, "velocity": 74}, {"time": 1954, "pitch": 53, "duration": 7, "velocity": 72}, {"time": 1954, "pitch": 57, "duration": 8, "velocity": 77}, {"time": 1966, "pitch": 46, "duration": 23, "velocity": 86}, {"time": 1978, "pitch": 53, "duration": 2, "velocity": 79}, {"time": 1978, "pitch": 58, "duration": 13, "velocity": 81}, {"time": 1978, "pitch": 62, "duration": 13, "velocity": 80}, {"time": 1986, "pitch": 53, "duration": 6, "velocity": 72}, {"time": 1990, "pitch": 41, "duration": 22, "velocity": 78}, {"time": 2002, "pitch": 53, "duration": 2, "velocity": 80}, {"time": 2002, "pitch": 58, "duration": 9, "velocity": 83}, {"time": 2002, "pitch": 62, "duration": 14, "velocity": 80}, {"time": 2010, "pitch": 53, "duration": 3, "velocity": 72}, {"time": 2014, "pitch": 48, "duration": 23, "velocity": 80}, {"time": 2026, "pitch": 55, "duration": 3, "velocity": 80}, {"time": 2026, "pitch": 60, "duration": 12, "velocity": 80}, {"time": 2026, "pitch": 63, "duration": 13, "velocity": 78}, {"time": 2034, "pitch": 55, "duration": 4, "velocity": 69}, {"time": 2038, "pitch": 43, "duration": 20, "velocity": 78}, {"time": 2050, "pitch": 55, "duration": 2, "velocity": 82}, {"time": 2050, "pitch": 60, "duration": 9, "velocity": 84}, {"time": 2050, "pitch": 63, "duration": 10, "velocity": 82}, {"time": 2058, "pitch": 55, "duration": 4, "velocity": 77}, {"time": 2062, "pitch": 41, "duration": 17, "velocity": 81}, {"time": 2074, "pitch": 53, "duration": 2, "velocity": 80}, {"time": 2074, "pitch": 57, "duration": 4, "velocity": 81}, {"time": 2074, "pitch": 60, "duration": 5, "velocity": 80}, {"time": 2082, "pitch": 53, "duration": 12, "velocity": 79}, {"time": 2086, "pitch": 48, "duration": 18, "velocity": 80}, {"time": 2098, "pitch": 57, "duration": 7, "velocity": 79}, {"time": 2098, "pitch": 60, "duration": 11, "velocity": 79}, {"time": 2106, "pitch": 53, "duration": 3, "velocity": 71}, {"time": 2110, "pitch": 46, "duration": 22, "velocity": 80}, {"time": 2122, "pitch": 53, "duration": 2, "velocity": 79}, {"time": 2122, "pitch": 58, "duration": 10, "velocity": 81}, {"time": 2122, "pitch": 62, "duration": 11, "velocity": 80}, {"time": 2130, "pitch": 53, "duration": 5, "velocity": 65}, {"time": 2134, "pitch": 41, "duration": 18, "velocity": 81}, {"time": 2146, "pitch": 53, "duration": 3, "velocity": 80}, {"time": 2146, "pitch": 58, "duration": 4, "velocity": 85}, {"time": 2146, "pitch": 62, "duration": 4, "velocity": 80}, {"time": 2158, "pitch": 46, "duration": 17, "velocity": 86}, {"time": 2170, "pitch": 53, "duration": 2, "velocity": 79}, {"time": 2170, "pitch": 58, "duration": 4, "velocity": 86}, {"time": 2170, "pitch": 62, "duration": 7, "velocity": 81}, {"time": 2178, "pitch": 53, "duration": 4, "velocity": 83}, {"time": 2178, "pitch": 62, "duration": 1, "velocity": 60}, {"time": 2182, "pitch": 41, "duration": 17, "velocity": 80}, {"time": 2194, "pitch": 53, "duration": 1, "velocity": 78}, {"time": 2194, "pitch": 58, "duration": 4, "velocity": 83}, {"time": 2194, "pitch": 62, "duration": 11, "velocity": 80}, {"time": 2202, "pitch": 53, "duration": 3, "velocity": 75}, {"time": 2206, "pitch": 48, "duration": 18, "velocity": 80}, {"time": 2218, "pitch": 55, "duration": 3, "velocity": 78}, {"time": 2218, "pitch": 60, "duration": 4, "velocity": 80}, {"time": 2218, "pitch": 63, "duration": 5, "velocity": 79}, {"time": 2226, "pitch": 55, "duration": 4, "velocity": 80}, {"time": 2230, "pitch": 43, "duration": 20, "velocity": 81}, {"time": 2242, "pitch": 55, "duration": 1, "velocity": 79}, {"time": 2242, "pitch": 60, "duration": 10, "velocity": 85}, {"time": 2242, "pitch": 63, "duration": 10, "velocity": 85}, {"time": 2250, "pitch": 55, "duration": 3, "velocity": 73}, {"time": 2254, "pitch": 41, "duration": 19, "velocity": 80}, {"time": 2266, "pitch": 53, "duration": 3, "velocity": 74}, {"time": 2266, "pitch": 57, "duration": 8, "velocity": 77}, {"time": 2266, "pitch": 60, "duration": 8, "velocity": 80}, {"time": 2274, "pitch": 53, "duration": 12, "velocity": 72}, {"time": 2278, "pitch": 48, "duration": 20, "velocity": 79}, {"time": 2290, "pitch": 57, "duration": 7, "velocity": 79}, {"time": 2290, "pitch": 60, "duration": 8, "velocity": 80}, {"time": 2290, "pitch": 65, "duration": 7, "velocity": 77}, {"time": 2298, "pitch": 53, "duration": 1, "velocity": 65}, {"time": 2302, "pitch": 46, "duration": 4, "velocity": 81}, {"time": 2302, "pitch": 53, "duration": 4, "velocity": 75}, {"time": 2302, "pitch": 58, "duration": 4, "velocity": 79}, {"time": 2314, "pitch": 46, "duration": 2, "velocity": 80}, {"time": 2314, "pitch": 53, "duration": 2, "velocity": 70}, {"time": 2314, "pitch": 58, "duration": 3, "velocity": 72}, {"time": 2314, "pitch": 62, "duration": 3, "velocity": 74}, {"time": 2326, "pitch": 46, "duration": 18, "velocity": 82}, {"time": 2326, "pitch": 53, "duration": 17, "velocity": 78}, {"time": 2326, "pitch": 58, "duration": 17, "velocity": 78}, {"time": 2326, "pitch": 62, "duration": 18, "velocity": 79}, {"time": 2350, "pitch": 46, "duration": 20, "velocity": 86}, {"time": 2362, "pitch": 53, "duration": 3, "velocity": 79}, {"time": 2362, "pitch": 58, "duration": 10, "velocity": 82}, {"time": 2362, "pitch": 62, "duration": 12, "velocity": 81}, {"time": 2370, "pitch": 53, "duration": 5, "velocity": 74}, {"time": 2374, "pitch": 41, "duration": 18, "velocity": 81}, {"time": 2386, "pitch": 53, "duration": 2, "velocity": 79}, {"time": 2386, "pitch": 58, "duration": 3, "velocity": 88}, {"time": 2386, "pitch": 62, "duration": 9, "velocity": 80}, {"time": 2394, "pitch": 53, "duration": 6, "velocity": 76}, {"time": 2398, "pitch": 46, "duration": 21, "velocity": 79}, {"time": 2410, "pitch": 53, "duration": 2, "velocity": 81}, {"time": 2410, "pitch": 58, "duration": 3, "velocity": 84}, {"time": 2410, "pitch": 62, "duration": 5, "velocity": 80}, {"time": 2418, "pitch": 53, "duration": 4, "velocity": 76}, {"time": 2422, "pitch": 41, "duration": 20, "velocity": 80}, {"time": 2434, "pitch": 53, "duration": 2, "velocity": 80}, {"time": 2434, "pitch": 58, "duration": 4, "velocity": 85}, {"time": 2434, "pitch": 62, "duration": 11, "velocity": 80}, {"time": 2442, "pitch": 53, "duration": 2, "velocity": 74}, {"time": 2446, "pitch": 48, "duration": 22, "velocity": 90}, {"time": 2458, "pitch": 55, "duration": 4, "velocity": 77}, {"time": 2458, "pitch": 60, "duration": 15, "velocity": 80}, {"time": 2458, "pitch": 63, "duration": 16, "velocity": 80}, {"time": 2466, "pitch": 55, "duration": 9, "velocity": 76}, {"time": 2470, "pitch": 43, "duration": 21, "velocity": 78}, {"time": 2482, "pitch": 60, "duration": 10, "velocity": 82}, {"time": 2482, "pitch": 63, "duration": 9, "velocity": 84}, {"time": 2490, "pitch": 55, "duration": 4, "velocity": 75}, {"time": 2494, "pitch": 41, "duration": 19, "velocity": 82}, {"time": 2506, "pitch": 53, "duration": 1, "velocity": 69}, {"time": 2506, "pitch": 57, "duration": 9, "velocity": 81}, {"time": 2506, "pitch": 60, "duration": 10, "velocity": 80}, {"time": 2514, "pitch": 53, "duration": 4, "velocity": 80}, {"time": 2518, "pitch": 48, "duration": 18, "velocity": 79}, {"time": 2530, "pitch": 57, "duration": 9, "velocity": 84}, {"time": 2530, "pitch": 60, "duration": 10, "velocity": 85}, {"time": 2538, "pitch": 53, "duration": 3, "velocity": 81}, {"time": 2542, "pitch": 39, "duration": 16, "velocity": 86}, {"time": 2554, "pitch": 51, "duration": 2, "velocity": 81}, {"time": 2554, "pitch": 55, "duration": 2, "velocity": 80}, {"time": 2554, "pitch": 58, "duration": 3, "velocity": 75}, {"time": 2554, "pitch": 63, "duration": 4, "velocity": 79}, {"time": 2562, "pitch": 51, "duration": 12, "velocity": 90}, {"time": 2566, "pitch": 46, "duration": 15, "velocity": 77}, {"time": 2578, "pitch": 51, "duration": 1, "velocity": 74}, {"time": 2578, "pitch": 55, "duration": 9, "velocity": 84}, {"time": 2578, "pitch": 58, "duration": 11, "velocity": 80}, {"time": 2578, "pitch": 63, "duration": 10, "velocity": 81}, {"time": 2586, "pitch": 51, "duration": 4, "velocity": 80}, {"time": 2590, "pitch": 41, "duration": 19, "velocity": 84}, {"time": 2602, "pitch": 53, "duration": 1, "velocity": 79}, {"time": 2602, "pitch": 57, "duration": 11, "velocity": 83}, {"time": 2602, "pitch": 60, "duration": 10, "velocity": 81}, {"time": 2610, "pitch": 53, "duration": 12, "velocity": 80}, {"time": 2614, "pitch": 48, "duration": 20, "velocity": 80}, {"time": 2626, "pitch": 57, "duration": 8, "velocity": 82}, {"time": 2626, "pitch": 60, "duration": 11, "velocity": 83}, {"time": 2634, "pitch": 53, "duration": 3, "velocity": 78}, {"time": 2638, "pitch": 46, "duration": 20, "velocity": 90}, {"time": 2650, "pitch": 53, "duration": 2, "velocity": 78}, {"time": 2650, "pitch": 58, "duration": 10, "velocity": 84}, {"time": 2650, "pitch": 62, "duration": 10, "velocity": 80}, {"time": 2658, "pitch": 53, "duration": 5, "velocity": 77}, {"time": 2662, "pitch": 41, "duration": 21, "velocity": 82}, {"time": 2674, "pitch": 58, "duration": 9, "velocity": 85}, {"time": 2674, "pitch": 62, "duration": 14, "velocity": 80}, {"time": 2682, "pitch": 53, "duration": 2, "velocity": 81}, {"time": 2686, "pitch": 41, "duration": 44, "velocity": 83}, {"time": 2686, "pitch": 53, "duration": 3, "velocity": 74}, {"time": 2686, "pitch": 57, "duration": 2, "velocity": 73}, {"time": 2698, "pitch": 53, "duration": 14, "velocity": 85}, {"time": 2698, "pitch": 57, "duration": 16, "velocity": 95}, {"time": 2710, "pitch": 48, "duration": 21, "velocity": 75}, {"time": 2718, "pitch": 53, "duration": 2, "velocity": 75}, {"time": 2722, "pitch": 53, "duration": 7, "velocity": 80}, {"time": 2722, "pitch": 57, "duration": 8, "velocity": 84}, {"time": 2722, "pitch": 60, "duration": 9, "velocity": 84}, {"time": 2734, "pitch": 46, "duration": 20, "velocity": 86}, {"time": 2746, "pitch": 53, "duration": 3, "velocity": 79}, {"time": 2746, "pitch": 58, "duration": 10, "velocity": 82}, {"time": 2746, "pitch": 62, "duration": 12, "velocity": 81}, {"time": 2754, "pitch": 53, "duration": 5, "velocity": 74}, {"time": 2758, "pitch": 41, "duration": 18, "velocity": 81}, {"time": 2770, "pitch": 53, "duration": 2, "velocity": 79}, {"time": 2770, "pitch": 58, "duration": 3, "velocity": 88}, {"time": 2770, "pitch": 62, "duration": 9, "velocity": 80}, {"time": 2778, "pitch": 53, "duration": 6, "velocity": 76}, {"time": 2782, "pitch": 46, "duration": 21, "velocity": 79}, {"time": 2794, "pitch": 53, "duration": 2, "velocity": 81}, {"time": 2794, "pitch": 58, "duration": 3, "velocity": 84}, {"time": 2794, "pitch": 62, "duration": 5, "velocity": 80}, {"time": 2802, "pitch": 53, "duration": 4, "velocity": 76}, {"time": 2806, "pitch": 41, "duration": 20, "velocity": 80}, {"time": 2818, "pitch": 53, "duration": 2, "velocity": 80}, {"time": 2818, "pitch": 58, "duration": 4, "velocity": 85}, {"time": 2818, "pitch": 62, "duration": 11, "velocity": 80}, {"time": 2826, "pitch": 53, "duration": 2, "velocity": 74}, {"time": 2830, "pitch": 48, "duration": 22, "velocity": 90}, {"time": 2842, "pitch": 55, "duration": 4, "velocity": 77}, {"time": 2842, "pitch": 60, "duration": 15, "velocity": 80}, {"time": 2842, "pitch": 63, "duration": 16, "velocity": 80}, {"time": 2850, "pitch": 55, "duration": 9, "velocity": 76}, {"time": 2854, "pitch": 43, "duration": 21, "velocity": 78}, {"time": 2866, "pitch": 60, "duration": 10, "velocity": 82}, {"time": 2866, "pitch": 63, "duration": 9, "velocity": 84}, {"time": 2874, "pitch": 55, "duration": 4, "velocity": 75}, {"time": 2878, "pitch": 41, "duration": 19, "velocity": 82}, {"time": 2890, "pitch": 53, "duration": 1, "velocity": 69}, {"time": 2890, "pitch": 57, "duration": 9, "velocity": 81}, {"time": 2890, "pitch": 60, "duration": 10, "velocity": 80}, {"time": 2898, "pitch": 53, "duration": 4, "velocity": 80}, {"time": 2902, "pitch": 48, "duration": 18, "velocity": 79}, {"time": 2914, "pitch": 57, "duration": 9, "velocity": 84}, {"time": 2914, "pitch": 60, "duration": 10, "velocity": 85}, {"time": 2922, "pitch": 53, "duration": 3, "velocity": 81}, {"time": 2926, "pitch": 39, "duration": 16, "velocity": 86}, {"time": 2938, "pitch": 51, "duration": 2, "velocity": 81}, {"time": 2938, "pitch": 55, "duration": 2, "velocity": 80}, {"time": 2938, "pitch": 58, "duration": 3, "velocity": 75}, {"time": 2938, "pitch": 63, "duration": 4, "velocity": 79}, {"time": 2946, "pitch": 51, "duration": 12, "velocity": 90}, {"time": 2950, "pitch": 46, "duration": 15, "velocity": 77}, {"time": 2962, "pitch": 51, "duration": 1, "velocity": 74}, {"time": 2962, "pitch": 55, "duration": 9, "velocity": 84}, {"time": 2962, "pitch": 58, "duration": 11, "velocity": 80}, {"time": 2962, "pitch": 63, "duration": 10, "velocity": 81}, {"time": 2970, "pitch": 51, "duration": 4, "velocity": 80}, {"time": 2974, "pitch": 41, "duration": 19, "velocity": 84}, {"time": 2986, "pitch": 53, "duration": 1, "velocity": 79}, {"time": 2986, "pitch": 57, "duration": 11, "velocity": 83}, {"time": 2986, "pitch": 60, "duration": 10, "velocity": 81}, {"time": 2994, "pitch": 53, "duration": 12, "velocity": 80}, {"time": 2998, "pitch": 48, "duration": 20, "velocity": 80}, {"time": 3010, "pitch": 57, "duration": 8, "velocity": 82}, {"time": 3010, "pitch": 60, "duration": 11, "velocity": 83}, {"time": 3018, "pitch": 53, "duration": 3, "velocity": 78}, {"time": 3022, "pitch": 46, "duration": 22, "velocity": 93}, {"time": 3034, "pitch": 53, "duration": 2, "velocity": 80}, {"time": 3034, "pitch": 58, "duration": 13, "velocity": 90}, {"time": 3034, "pitch": 62, "duration": 13, "velocity": 81}, {"time": 3042, "pitch": 53, "duration": 6, "velocity": 75}, {"time": 3046, "pitch": 41, "duration": 22, "velocity": 82}, {"time": 3058, "pitch": 53, "duration": 1, "velocity": 74}, {"time": 3058, "pitch": 58, "duration": 5, "velocity": 93}, {"time": 3058, "pitch": 62, "duration": 9, "velocity": 81}, {"time": 3066, "pitch": 53, "duration": 2, "velocity": 81}, {"time": 3070, "pitch": 46, "duration": 10, "velocity": 100}, {"time": 3070, "pitch": 53, "duration": 8, "velocity": 82}, {"time": 3070, "pitch": 58, "duration": 9, "velocity": 81}, {"time": 3082, "pitch": 46, "duration": 11, "velocity": 90}, {"time": 3082, "pitch": 53, "duration": 9, "velocity": 80}, {"time": 3082, "pitch": 58, "duration": 9, "velocity": 85}, {"time": 3094, "pitch": 48, "duration": 9, "velocity": 86}, {"time": 3094, "pitch": 60, "duration": 8, "velocity": 82}, {"time": 3106, "pitch": 50, "duration": 9, "velocity": 95}, {"time": 3106, "pitch": 62, "duration": 10, "velocity": 88}, {"time": 3118, "pitch": 39, "duration": 20, "velocity": 82}, {"time": 3118, "pitch": 51, "duration": 10, "velocity": 70}, {"time": 3118, "pitch": 55, "duration": 10, "velocity": 80}, {"time": 3130, "pitch": 51, "duration": 15, "velocity": 82}, {"time": 3130, "pitch": 55, "duration": 17, "velocity": 86}, {"time": 3130, "pitch": 58, "duration": 17, "velocity": 80}, {"time": 3142, "pitch": 46, "duration": 20, "velocity": 79}, {"time": 3150, "pitch": 51, "duration": 7, "velocity": 84}, {"time": 3154, "pitch": 55, "duration": 9, "velocity": 83}, {"time": 3154, "pitch": 58, "duration": 10, "velocity": 76}, {"time": 3154, "pitch": 63, "duration": 12, "velocity": 76}, {"time": 3162, "pitch": 51, "duration": 4, "velocity": 80}, {"time": 3166, "pitch": 38, "duration": 20, "velocity": 85}, {"time": 3178, "pitch": 53, "duration": 14, "velocity": 83}, {"time": 3178, "pitch": 57, "duration": 14, "velocity": 81}, {"time": 3186, "pitch": 50, "duration": 6, "velocity": 70}, {"time": 3190, "pitch": 45, "duration": 20, "velocity": 75}, {"time": 3198, "pitch": 50, "duration": 5, "velocity": 80}, {"time": 3202, "pitch": 53, "duration": 9, "velocity": 83}, {"time": 3202, "pitch": 57, "duration": 9, "velocity": 83}, {"time": 3202, "pitch": 62, "duration": 8, "velocity": 80}, {"time": 3210, "pitch": 50, "duration": 4, "velocity": 79}, {"time": 3214, "pitch": 36, "duration": 21, "velocity": 83}, {"time": 3226, "pitch": 51, "duration": 12, "velocity": 83}, {"time": 3226, "pitch": 55, "duration": 13, "velocity": 85}, {"time": 3226, "pitch": 60, "duration": 13, "velocity": 80}, {"time": 3234, "pitch": 48, "duration": 6, "velocity": 79}, {"time": 3238, "pitch": 43, "duration": 20, "velocity": 75}, {"time": 3250, "pitch": 51, "duration": 9, "velocity": 84}, {"time": 3250, "pitch": 55, "duration": 10, "velocity": 84}, {"time": 3250, "pitch": 60, "duration": 12, "velocity": 79}, {"time": 3258, "pitch": 48, "duration": 2, "velocity": 74}, {"time": 3262, "pitch": 39, "duration": 18, "velocity": 95}, {"time": 3274, "pitch": 51, "duration": 1, "velocity": 79}, {"time": 3274, "pitch": 55, "duration": 9, "velocity": 81}, {"time": 3274, "pitch": 58, "duration": 10, "velocity": 77}, {"time": 3274, "pitch": 63, "duration": 13, "velocity": 79}, {"time": 3282, "pitch": 51, "duration": 3, "velocity": 82}, {"time": 3286, "pitch": 41, "duration": 17, "velocity": 82}, {"time": 3298, "pitch": 57, "duration": 10, "velocity": 88}, {"time": 3298, "pitch": 60, "duration": 10, "velocity": 90}, {"time": 3298, "pitch": 65, "duration": 9, "velocity": 80}, {"time": 3306, "pitch": 53, "duration": 3, "velocity": 72}, {"time": 3310, "pitch": 39, "duration": 18, "velocity": 90}, {"time": 3322, "pitch": 51, "duration": 1, "velocity": 77}, {"time": 3322, "pitch": 55, "duration": 9, "velocity": 81}, {"time": 3322, "pitch": 58, "duration": 10, "velocity": 75}, {"time": 3322, "pitch": 63, "duration": 9, "velocity": 78}, {"time": 3330, "pitch": 51, "duration": 5, "velocity": 81}, {"time": 3334, "pitch": 46, "duration": 16, "velocity": 77}, {"time": 3342, "pitch": 51, "duration": 6, "velocity": 75}, {"time": 3346, "pitch": 55, "duration": 8, "velocity": 81}, {"time": 3346, "pitch": 58, "duration": 9, "velocity": 79}, {"time": 3346, "pitch": 63, "duration": 9, "velocity": 79}, {"time": 3354, "pitch": 51, "duration": 3, "velocity": 79}, {"time": 3358, "pitch": 38, "duration": 19, "velocity": 84}, {"time": 3370, "pitch": 53, "duration": 12, "velocity": 81}, {"time": 3370, "pitch": 57, "duration": 11, "velocity": 81}, {"time": 3370, "pitch": 62, "duration": 5, "velocity": 79}, {"time": 3378, "pitch": 50, "duration": 5, "velocity": 74}, {"time": 3382, "pitch": 45, "duration": 14, "velocity": 74}, {"time": 3390, "pitch": 50, "duration": 4, "velocity": 72}, {"time": 3390, "pitch": 53, "duration": 6, "velocity": 79}, {"time": 3390, "pitch": 57, "duration": 6, "velocity": 77}, {"time": 3394, "pitch": 38, "duration": 8, "velocity": 90}, {"time": 3402, "pitch": 53, "duration": 3, "velocity": 77}, {"time": 3402, "pitch": 57, "duration": 2, "velocity": 74}, {"time": 3406, "pitch": 36, "duration": 25, "velocity": 82}, {"time": 3418, "pitch": 51, "duration": 12, "velocity": 82}, {"time": 3418, "pitch": 55, "duration": 13, "velocity": 81}, {"time": 3426, "pitch": 48, "duration": 6, "velocity": 70}, {"time": 3430, "pitch": 43, "duration": 14, "velocity": 74}, {"time": 3438, "pitch": 48, "duration": 7, "velocity": 80}, {"time": 3438, "pitch": 55, "duration": 1, "velocity": 68}, {"time": 3442, "pitch": 36, "duration": 10, "velocity": 80}, {"time": 3450, "pitch": 51, "duration": 4, "velocity": 81}, {"time": 3450, "pitch": 55, "duration": 4, "velocity": 83}, {"time": 3450, "pitch": 60, "duration": 5, "velocity": 79}, {"time": 3454, "pitch": 41, "duration": 21, "velocity": 80}, {"time": 3454, "pitch": 53, "duration": 10, "velocity": 77}, {"time": 3454, "pitch": 57, "duration": 9, "velocity": 77}, {"time": 3466, "pitch": 53, "duration": 1, "velocity": 46}, {"time": 3466, "pitch": 57, "duration": 7, "velocity": 80}, {"time": 3466, "pitch": 60, "duration": 9, "velocity": 83}, {"time": 3474, "pitch": 53, "duration": 9, "velocity": 82}, {"time": 3478, "pitch": 48, "duration": 19, "velocity": 80}, {"time": 3490, "pitch": 57, "duration": 9, "velocity": 84}, {"time": 3490, "pitch": 60, "duration": 9, "velocity": 84}, {"time": 3490, "pitch": 65, "duration": 10, "velocity": 80}, {"time": 3498, "pitch": 53, "duration": 1, "velocity": 74}, {"time": 3502, "pitch": 46, "duration": 23, "velocity": 79}, {"time": 3502, "pitch": 53, "duration": 14, "velocity": 72}, {"time": 3502, "pitch": 58, "duration": 9, "velocity": 69}, {"time": 3514, "pitch": 58, "duration": 10, "velocity": 81}, {"time": 3514, "pitch": 62, "duration": 11, "velocity": 81}, {"time": 3522, "pitch": 53, "duration": 6, "velocity": 74}, {"time": 3526, "pitch": 41, "duration": 20, "velocity": 82}, {"time": 3534, "pitch": 53, "duration": 5, "velocity": 73}, {"time": 3538, "pitch": 58, "duration": 8, "velocity": 84}, {"time": 3538, "pitch": 62, "duration": 10, "velocity": 82}, {"time": 3546, "pitch": 53, "duration": 1, "velocity": 74}, {"time": 3550, "pitch": 41, "duration": 5, "velocity": 85}, {"time": 3550, "pitch": 53, "duration": 4, "velocity": 80}, {"time": 3550, "pitch": 57, "duration": 5, "velocity": 84}, {"time": 3562, "pitch": 41, "duration": 10, "velocity": 82}, {"time": 3562, "pitch": 53, "duration": 12, "velocity": 81}, {"time": 3574, "pitch": 43, "duration": 11, "velocity": 81}, {"time": 3574, "pitch": 55, "duration": 10, "velocity": 82}, {"time": 3586, "pitch": 45, "duration": 9, "velocity": 74}, {"time": 3586, "pitch": 53, "duration": 7, "velocity": 72}, {"time": 3586, "pitch": 57, "duration": 8, "velocity": 77}, {"time": 3598, "pitch": 39, "duration": 20, "velocity": 82}, {"time": 3598, "pitch": 51, "duration": 10, "velocity": 70}, {"time": 3598, "pitch": 55, "duration": 10, "velocity": 80}, {"time": 3610, "pitch": 51, "duration": 15, "velocity": 82}, {"time": 3610, "pitch": 55, "duration": 17, "velocity": 86}, {"time": 3610, "pitch": 58, "duration": 17, "velocity": 80}, {"time": 3622, "pitch": 46, "duration": 20, "velocity": 79}, {"time": 3630, "pitch": 51, "duration": 7, "velocity": 84}, {"time": 3634, "pitch": 55, "duration": 9, "velocity": 83}, {"time": 3634, "pitch": 58, "duration": 10, "velocity": 76}, {"time": 3634, "pitch": 63, "duration": 12, "velocity": 76}, {"time": 3642, "pitch": 51, "duration": 4, "velocity": 80}, {"time": 3646, "pitch": 38, "duration": 20, "velocity": 85}, {"time": 3658, "pitch": 53, "duration": 14, "velocity": 83}, {"time": 3658, "pitch": 57, "duration": 14, "velocity": 81}, {"time": 3666, "pitch": 50, "duration": 6, "velocity": 70}, {"time": 3670, "pitch": 45, "duration": 20, "velocity": 75}, {"time": 3678, "pitch": 50, "duration": 5, "velocity": 80}, {"time": 3682, "pitch": 53, "duration": 9, "velocity": 83}, {"time": 3682, "pitch": 57, "duration": 9, "velocity": 83}, {"time": 3682, "pitch": 62, "duration": 8, "velocity": 80}, {"time": 3690, "pitch": 50, "duration": 4, "velocity": 79}, {"time": 3694, "pitch": 36, "duration": 21, "velocity": 83}, {"time": 3706, "pitch": 51, "duration": 12, "velocity": 83}, {"time": 3706, "pitch": 55, "duration": 13, "velocity": 85}, {"time": 3706, "pitch": 60, "duration": 13, "velocity": 80}, {"time": 3714, "pitch": 48, "duration": 6, "velocity": 79}, {"time": 3718, "pitch": 43, "duration": 20, "velocity": 75}, {"time": 3730, "pitch": 51, "duration": 9, "velocity": 84}, {"time": 3730, "pitch": 55, "duration": 10, "velocity": 84}, {"time": 3730, "pitch": 60, "duration": 12, "velocity": 79}, {"time": 3738, "pitch": 48, "duration": 2, "velocity": 74}, {"time": 3742, "pitch": 39, "duration": 18, "velocity": 95}, {"time": 3754, "pitch": 51, "duration": 1, "velocity": 79}, {"time": 3754, "pitch": 55, "duration": 9, "velocity": 81}, {"time": 3754, "pitch": 58, "duration": 10, "velocity": 77}, {"time": 3754, "pitch": 63, "duration": 13, "velocity": 79}, {"time": 3762, "pitch": 51, "duration": 3, "velocity": 82}, {"time": 3766, "pitch": 41, "duration": 17, "velocity": 82}, {"time": 3778, "pitch": 57, "duration": 10, "velocity": 88}, {"time": 3778, "pitch": 60, "duration": 10, "velocity": 90}, {"time": 3778, "pitch": 65, "duration": 9, "velocity": 80}, {"time": 3786, "pitch": 53, "duration": 3, "velocity": 72}, {"time": 3790, "pitch": 39, "duration": 18, "velocity": 90}, {"time": 3802, "pitch": 51, "duration": 1, "velocity": 77}, {"time": 3802, "pitch": 55, "duration": 9, "velocity": 81}, {"time": 3802, "pitch": 58, "duration": 10, "velocity": 75}, {"time": 3802, "pitch": 63, "duration": 9, "velocity": 78}, {"time": 3810, "pitch": 51, "duration": 5, "velocity": 81}, {"time": 3814, "pitch": 46, "duration": 16, "velocity": 77}, {"time": 3822, "pitch": 51, "duration": 6, "velocity": 75}, {"time": 3826, "pitch": 55, "duration": 8, "velocity": 81}, {"time": 3826, "pitch": 58, "duration": 9, "velocity": 79}, {"time": 3826, "pitch": 63, "duration": 9, "velocity": 79}, {"time": 3834, "pitch": 51, "duration": 3, "velocity": 79}, {"time": 3838, "pitch": 38, "duration": 19, "velocity": 84}, {"time": 3850, "pitch": 53, "duration": 12, "velocity": 81}, {"time": 3850, "pitch": 57, "duration": 11, "velocity": 81}, {"time": 3850, "pitch": 62, "duration": 5, "velocity": 79}, {"time": 3858, "pitch": 50, "duration": 5, "velocity": 74}, {"time": 3862, "pitch": 45, "duration": 14, "velocity": 74}, {"time": 3870, "pitch": 50, "duration": 4, "velocity": 72}, {"time": 3870, "pitch": 53, "duration": 6, "velocity": 79}, {"time": 3870, "pitch": 57, "duration": 6, "velocity": 77}, {"time": 3874, "pitch": 38, "duration": 8, "velocity": 90}, {"time": 3882, "pitch": 53, "duration": 3, "velocity": 77}, {"time": 3882, "pitch": 57, "duration": 2, "velocity": 74}, {"time": 3886, "pitch": 36, "duration": 25, "velocity": 82}, {"time": 3898, "pitch": 51, "duration": 12, "velocity": 82}, {"time": 3898, "pitch": 55, "duration": 13, "velocity": 81}, {"time": 3906, "pitch": 48, "duration": 6, "velocity": 70}, {"time": 3910, "pitch": 43, "duration": 14, "velocity": 74}, {"time": 3918, "pitch": 48, "duration": 7, "velocity": 80}, {"time": 3918, "pitch": 55, "duration": 1, "velocity": 68}, {"time": 3922, "pitch": 36, "duration": 10, "velocity": 80}, {"time": 3930, "pitch": 51, "duration": 4, "velocity": 81}, {"time": 3930, "pitch": 55, "duration": 4, "velocity": 83}, {"time": 3930, "pitch": 60, "duration": 5, "velocity": 79}, {"time": 3934, "pitch": 41, "duration": 21, "velocity": 80}, {"time": 3934, "pitch": 53, "duration": 10, "velocity": 77}, {"time": 3934, "pitch": 57, "duration": 9, "velocity": 77}, {"time": 3946, "pitch": 53, "duration": 1, "velocity": 46}, {"time": 3946, "pitch": 57, "duration": 7, "velocity": 80}, {"time": 3946, "pitch": 60, "duration": 9, "velocity": 83}, {"time": 3954, "pitch": 53, "duration": 9, "velocity": 82}, {"time": 3958, "pitch": 48, "duration": 19, "velocity": 80}, {"time": 3970, "pitch": 57, "duration": 9, "velocity": 84}, {"time": 3970, "pitch": 60, "duration": 9, "velocity": 84}, {"time": 3970, "pitch": 65, "duration": 10, "velocity": 80}, {"time": 3978, "pitch": 53, "duration": 1, "velocity": 74}, {"time": 3982, "pitch": 46, "duration": 23, "velocity": 79}, {"time": 3982, "pitch": 53, "duration": 14, "velocity": 72}, {"time": 3982, "pitch": 58, "duration": 9, "velocity": 69}, {"time": 3994, "pitch": 58, "duration": 10, "velocity": 81}, {"time": 3994, "pitch": 62, "duration": 11, "velocity": 81}, {"time": 4002, "pitch": 53, "duration": 6, "velocity": 74}, {"time": 4006, "pitch": 41, "duration": 20, "velocity": 82}, {"time": 4014, "pitch": 53, "duration": 5, "velocity": 73}, {"time": 4018, "pitch": 58, "duration": 8, "velocity": 84}, {"time": 4018, "pitch": 62, "duration": 10, "velocity": 82}, {"time": 4026, "pitch": 53, "duration": 1, "velocity": 74}, {"time": 4030, "pitch": 41, "duration": 5, "velocity": 85}, {"time": 4030, "pitch": 53, "duration": 4, "velocity": 80}, {"time": 4030, "pitch": 57, "duration": 5, "velocity": 84}, {"time": 4042, "pitch": 41, "duration": 10, "velocity": 82}, {"time": 4042, "pitch": 53, "duration": 12, "velocity": 81}, {"time": 4054, "pitch": 43, "duration": 11, "velocity": 81}, {"time": 4054, "pitch": 55, "duration": 10, "velocity": 82}, {"time": 4066, "pitch": 45, "duration": 9, "velocity": 74}, {"time": 4066, "pitch": 53, "duration": 7, "velocity": 72}, {"time": 4066, "pitch": 57, "duration": 8, "velocity": 77}, {"time": 4078, "pitch": 46, "duration": 23, "velocity": 86}, {"time": 4090, "pitch": 53, "duration": 2, "velocity": 79}, {"time": 4090, "pitch": 58, "duration": 13, "velocity": 81}, {"time": 4090, "pitch": 62, "duration": 13, "velocity": 80}, {"time": 4098, "pitch": 53, "duration": 6, "velocity": 72}, {"time": 4102, "pitch": 41, "duration": 22, "velocity": 78}, {"time": 4114, "pitch": 53, "duration": 2, "velocity": 80}, {"time": 4114, "pitch": 58, "duration": 9, "velocity": 83}, {"time": 4114, "pitch": 62, "duration": 14, "velocity": 80}, {"time": 4122, "pitch": 53, "duration": 3, "velocity": 72}, {"time": 4126, "pitch": 48, "duration": 23, "velocity": 80}, {"time": 4138, "pitch": 55, "duration": 3, "velocity": 80}, {"time": 4138, "pitch": 60, "duration": 12, "velocity": 80}, {"time": 4138, "pitch": 63, "duration": 13, "velocity": 78}, {"time": 4146, "pitch": 55, "duration": 4, "velocity": 69}, {"time": 4150, "pitch": 43, "duration": 20, "velocity": 78}, {"time": 4162, "pitch": 55, "duration": 2, "velocity": 82}, {"time": 4162, "pitch": 60, "duration": 9, "velocity": 84}, {"time": 4162, "pitch": 63, "duration": 10, "velocity": 82}, {"time": 4170, "pitch": 55, "duration": 4, "velocity": 77}, {"time": 4174, "pitch": 41, "duration": 17, "velocity": 81}, {"time": 4186, "pitch": 53, "duration": 2, "velocity": 80}, {"time": 4186, "pitch": 57, "duration": 4, "velocity": 81}, {"time": 4186, "pitch": 60, "duration": 5, "velocity": 80}, {"time": 4194, "pitch": 53, "duration": 12, "velocity": 79}, {"time": 4198, "pitch": 48, "duration": 18, "velocity": 80}, {"time": 4210, "pitch": 57, "duration": 7, "velocity": 79}, {"time": 4210, "pitch": 60, "duration": 11, "velocity": 79}, {"time": 4218, "pitch": 53, "duration": 3, "velocity": 71}, {"time": 4222, "pitch": 46, "duration": 22, "velocity": 80}, {"time": 4234, "pitch": 53, "duration": 2, "velocity": 79}, {"time": 4234, "pitch": 58, "duration": 10, "velocity": 81}, {"time": 4234, "pitch": 62, "duration": 11, "velocity": 80}, {"time": 4242, "pitch": 53, "duration": 5, "velocity": 65}, {"time": 4246, "pitch": 41, "duration": 18, "velocity": 81}, {"time": 4258, "pitch": 53, "duration": 3, "velocity": 80}, {"time": 4258, "pitch": 58, "duration": 4, "velocity": 85}, {"time": 4258, "pitch": 62, "duration": 4, "velocity": 80}, {"time": 4270, "pitch": 46, "duration": 17, "velocity": 86}, {"time": 4282, "pitch": 53, "duration": 2, "velocity": 79}, {"time": 4282, "pitch": 58, "duration": 4, "velocity": 86}, {"time": 4282, "pitch": 62, "duration": 7, "velocity": 81}, {"time": 4290, "pitch": 53, "duration": 4, "velocity": 83}, {"time": 4290, "pitch": 62, "duration": 1, "velocity": 60}, {"time": 4294, "pitch": 41, "duration": 17, "velocity": 80}, {"time": 4306, "pitch": 53, "duration": 1, "velocity": 78}, {"time": 4306, "pitch": 58, "duration": 4, "velocity": 83}, {"time": 4306, "pitch": 62, "duration": 11, "velocity": 80}, {"time": 4314, "pitch": 53, "duration": 3, "velocity": 75}, {"time": 4318, "pitch": 48, "duration": 18, "velocity": 80}, {"time": 4330, "pitch": 55, "duration": 3, "velocity": 78}, {"time": 4330, "pitch": 60, "duration": 4, "velocity": 80}, {"time": 4330, "pitch": 63, "duration": 5, "velocity": 79}, {"time": 4338, "pitch": 55, "duration": 4, "velocity": 80}, {"time": 4342, "pitch": 43, "duration": 20, "velocity": 81}, {"time": 4354, "pitch": 55, "duration": 1, "velocity": 79}, {"time": 4354, "pitch": 60, "duration": 10, "velocity": 85}, {"time": 4354, "pitch": 63, "duration": 10, "velocity": 85}, {"time": 4362, "pitch": 55, "duration": 3, "velocity": 73}, {"time": 4366, "pitch": 41, "duration": 19, "velocity": 80}, {"time": 4378, "pitch": 53, "duration": 3, "velocity": 74}, {"time": 4378, "pitch": 57, "duration": 8, "velocity": 77}, {"time": 4378, "pitch": 60, "duration": 8, "velocity": 80}, {"time": 4386, "pitch": 53, "duration": 12, "velocity": 72}, {"time": 4390, "pitch": 48, "duration": 20, "velocity": 79}, {"time": 4402, "pitch": 57, "duration": 7, "velocity": 79}, {"time": 4402, "pitch": 60, "duration": 8, "velocity": 80}, {"time": 4402, "pitch": 65, "duration": 7, "velocity": 77}, {"time": 4410, "pitch": 53, "duration": 1, "velocity": 65}, {"time": 4414, "pitch": 46, "duration": 21, "velocity": 100}, {"time": 4426, "pitch": 53, "duration": 2, "velocity": 80}, {"time": 4426, "pitch": 58, "duration": 11, "velocity": 84}, {"time": 4426, "pitch": 62, "duration": 11, "velocity": 81}, {"time": 4434, "pitch": 53, "duration": 5, "velocity": 75}, {"time": 4438, "pitch": 41, "duration": 20, "velocity": 82}, {"time": 4450, "pitch": 53, "duration": 2, "velocity": 80}, {"time": 4450, "pitch": 58, "duration": 9, "velocity": 90}, {"time": 4450, "pitch": 62, "duration": 12, "velocity": 80}, {"time": 4458, "pitch": 53, "duration": 4, "velocity": 74}, {"time": 4462, "pitch": 41, "duration": 20, "velocity": 82}, {"time": 4474, "pitch": 57, "duration": 9, "velocity": 83}, {"time": 4474, "pitch": 60, "duration": 9, "velocity": 84}, {"time": 4482, "pitch": 53, "duration": 6, "velocity": 81}, {"time": 4486, "pitch": 48, "duration": 20, "velocity": 81}, {"time": 4494, "pitch": 53, "duration": 6, "velocity": 79}, {"time": 4498, "pitch": 57, "duration": 8, "velocity": 81}, {"time": 4498, "pitch": 60, "duration": 10, "velocity": 81}, {"time": 4506, "pitch": 53, "duration": 3, "velocity": 77}, {"time": 4510, "pitch": 46, "duration": 22, "velocity": 86}, {"time": 4522, "pitch": 58, "duration": 10, "velocity": 82}, {"time": 4522, "pitch": 62, "duration": 11, "velocity": 80}, {"time": 4530, "pitch": 53, "duration": 4, "velocity": 70}, {"time": 4534, "pitch": 41, "duration": 20, "velocity": 84}, {"time": 4546, "pitch": 58, "duration": 9, "velocity": 88}, {"time": 4546, "pitch": 62, "duration": 13, "velocity": 81}, {"time": 4554, "pitch": 53, "duration": 3, "velocity": 75}, {"time": 4558, "pitch": 41, "duration": 20, "velocity": 83}, {"time": 4570, "pitch": 57, "duration": 7, "velocity": 80}, {"time": 4570, "pitch": 60, "duration": 10, "velocity": 80}, {"time": 4578, "pitch": 53, "duration": 6, "velocity": 81}, {"time": 4582, "pitch": 48, "duration": 20, "velocity": 81}, {"time": 4594, "pitch": 57, "duration": 8, "velocity": 81}, {"time": 4594, "pitch": 60, "duration": 9, "velocity": 80}, {"time": 4602, "pitch": 53, "duration": 3, "velocity": 73}, {"time": 4606, "pitch": 41, "duration": 21, "velocity": 86}, {"time": 4606, "pitch": 53, "duration": 13, "velocity": 67}, {"time": 4606, "pitch": 57, "duration": 1, "velocity": 73}, {"time": 4606, "pitch": 60, "duration": 1, "velocity": 73}, {"time": 4618, "pitch": 57, "duration": 9, "velocity": 84}, {"time": 4618, "pitch": 60, "duration": 10, "velocity": 84}, {"time": 4626, "pitch": 53, "duration": 16, "velocity": 79}, {"time": 4630, "pitch": 48, "duration": 19, "velocity": 93}, {"time": 4642, "pitch": 57, "duration": 8, "velocity": 83}, {"time": 4642, "pitch": 60, "duration": 10, "velocity": 81}, {"time": 4642, "pitch": 65, "duration": 7, "velocity": 78}, {"time": 4650, "pitch": 53, "duration": 4, "velocity": 71}, {"time": 4654, "pitch": 46, "duration": 20, "velocity": 88}, {"time": 4666, "pitch": 58, "duration": 10, "velocity": 82}, {"time": 4666, "pitch": 62, "duration": 10, "velocity": 79}, {"time": 4674, "pitch": 53, "duration": 5, "velocity": 70}, {"time": 4678, "pitch": 41, "duration": 20, "velocity": 83}, {"time": 4690, "pitch": 53, "duration": 2, "velocity": 76}, {"time": 4690, "pitch": 57, "duration": 9, "velocity": 82}, {"time": 4690, "pitch": 60, "duration": 10, "velocity": 82}, {"time": 4698, "pitch": 53, "duration": 2, "velocity": 75}, {"time": 4702, "pitch": 46, "duration": 6, "velocity": 82}, {"time": 4702, "pitch": 53, "duration": 6, "velocity": 79}, {"time": 4702, "pitch": 58, "duration": 6, "velocity": 82}, {"time": 4714, "pitch": 41, "duration": 7, "velocity": 80}, {"time": 4714, "pitch": 53, "duration": 7, "velocity": 90}, {"time": 4726, "pitch": 46, "duration": 63, "velocity": 90}, {"time": 4726, "pitch": 53, "duration": 62, "velocity": 77}, {"time": 4726, "pitch": 58, "duration": 63, "velocity": 81}, {"time": 4726, "pitch": 62, "duration": 63, "velocity": 81}]}]}