{"metadata": {"schema_version": "0.2", "title": "None", "source_filename": "443.mid", "source_format": "midi"}, "resolution": 12, "tempos": [{"time": 0, "qpm": 66.000066000066}], "time_signatures": [{"time": 0, "numerator": 1, "denominator": 4}], "tracks": [{"program": 0, "is_drum": false, "name": "MELODY", "notes": [{"time": 248, "pitch": 69, "duration": 6, "velocity": 96}, {"time": 254, "pitch": 62, "duration": 5, "velocity": 88}, {"time": 260, "pitch": 62, "duration": 10, "velocity": 95}, {"time": 272, "pitch": 69, "duration": 6, "velocity": 100}, {"time": 278, "pitch": 71, "duration": 6, "velocity": 93}, {"time": 284, "pitch": 73, "duration": 6, "velocity": 100}, {"time": 290, "pitch": 69, "duration": 9, "velocity": 99}, {"time": 302, "pitch": 67, "duration": 6, "velocity": 117}, {"time": 308, "pitch": 69, "duration": 6, "velocity": 97}, {"time": 314, "pitch": 66, "duration": 23, "velocity": 95}, {"time": 344, "pitch": 69, "duration": 5, "velocity": 97}, {"time": 350, "pitch": 62, "duration": 5, "velocity": 93}, {"time": 356, "pitch": 62, "duration": 8, "velocity": 97}, {"time": 368, "pitch": 69, "duration": 6, "velocity": 112}, {"time": 374, "pitch": 71, "duration": 6, "velocity": 107}, {"time": 380, "pitch": 69, "duration": 7, "velocity": 112}, {"time": 386, "pitch": 67, "duration": 5, "velocity": 117}, {"time": 398, "pitch": 66, "duration": 5, "velocity": 100}, {"time": 404, "pitch": 67, "duration": 5, "velocity": 96}, {"time": 410, "pitch": 64, "duration": 19, "velocity": 95}, {"time": 440, "pitch": 69, "duration": 6, "velocity": 96}, {"time": 446, "pitch": 62, "duration": 5, "velocity": 88}, {"time": 452, "pitch": 62, "duration": 5, "velocity": 96}, {"time": 458, "pitch": 69, "duration": 10, "velocity": 100}, {"time": 470, "pitch": 71, "duration": 5, "velocity": 107}, {"time": 476, "pitch": 73, "duration": 5, "velocity": 112}, {"time": 482, "pitch": 69, "duration": 8, "velocity": 99}, {"time": 494, "pitch": 71, "duration": 4, "velocity": 97}, {"time": 500, "pitch": 73, "duration": 3, "velocity": 112}, {"time": 506, "pitch": 74, "duration": 11, "velocity": 100}, {"time": 533, "pitch": 62, "duration": 3, "velocity": 93}, {"time": 536, "pitch": 69, "duration": 5, "velocity": 97}, {"time": 542, "pitch": 62, "duration": 5, "velocity": 100}, {"time": 548, "pitch": 62, "duration": 4, "velocity": 102}, {"time": 554, "pitch": 69, "duration": 5, "velocity": 107}, {"time": 560, "pitch": 67, "duration": 4, "velocity": 112}, {"time": 566, "pitch": 66, "duration": 6, "velocity": 117}, {"time": 578, "pitch": 64, "duration": 8, "velocity": 102}, {"time": 590, "pitch": 62, "duration": 30, "velocity": 97}, {"time": 632, "pitch": 69, "duration": 6, "velocity": 96}, {"time": 638, "pitch": 62, "duration": 5, "velocity": 88}, {"time": 644, "pitch": 62, "duration": 10, "velocity": 95}, {"time": 651, "pitch": 69, "duration": 14, "velocity": 100}, {"time": 662, "pitch": 71, "duration": 6, "velocity": 93}, {"time": 668, "pitch": 73, "duration": 6, "velocity": 100}, {"time": 674, "pitch": 69, "duration": 9, "velocity": 99}, {"time": 686, "pitch": 67, "duration": 6, "velocity": 117}, {"time": 692, "pitch": 69, "duration": 6, "velocity": 97}, {"time": 698, "pitch": 66, "duration": 23, "velocity": 95}, {"time": 728, "pitch": 69, "duration": 5, "velocity": 97}, {"time": 734, "pitch": 62, "duration": 5, "velocity": 93}, {"time": 740, "pitch": 62, "duration": 8, "velocity": 97}, {"time": 752, "pitch": 69, "duration": 6, "velocity": 112}, {"time": 758, "pitch": 71, "duration": 6, "velocity": 107}, {"time": 764, "pitch": 69, "duration": 7, "velocity": 112}, {"time": 770, "pitch": 67, "duration": 5, "velocity": 117}, {"time": 782, "pitch": 66, "duration": 5, "velocity": 100}, {"time": 788, "pitch": 67, "duration": 5, "velocity": 96}, {"time": 794, "pitch": 64, "duration": 19, "velocity": 95}, {"time": 824, "pitch": 69, "duration": 6, "velocity": 96}, {"time": 830, "pitch": 62, "duration": 5, "velocity": 88}, {"time": 836, "pitch": 62, "duration": 5, "velocity": 96}, {"time": 842, "pitch": 69, "duration": 10, "velocity": 100}, {"time": 854, "pitch": 71, "duration": 5, "velocity": 107}, {"time": 860, "pitch": 73, "duration": 5, "velocity": 112}, {"time": 866, "pitch": 69, "duration": 8, "velocity": 99}, {"time": 878, "pitch": 71, "duration": 4, "velocity": 97}, {"time": 884, "pitch": 73, "duration": 3, "velocity": 112}, {"time": 890, "pitch": 74, "duration": 11, "velocity": 100}, {"time": 917, "pitch": 69, "duration": 2, "velocity": 102}, {"time": 920, "pitch": 69, "duration": 4, "velocity": 112}, {"time": 926, "pitch": 69, "duration": 5, "velocity": 112}, {"time": 932, "pitch": 69, "duration": 4, "velocity": 96}, {"time": 938, "pitch": 74, "duration": 9, "velocity": 127}, {"time": 950, "pitch": 69, "duration": 4, "velocity": 122}, {"time": 956, "pitch": 74, "duration": 4, "velocity": 127}, {"time": 962, "pitch": 76, "duration": 28, "velocity": 127}, {"time": 998, "pitch": 69, "duration": 4, "velocity": 107}, {"time": 1004, "pitch": 76, "duration": 7, "velocity": 122}, {"time": 1013, "pitch": 73, "duration": 3, "velocity": 122}, {"time": 1016, "pitch": 74, "duration": 10, "velocity": 127}, {"time": 1034, "pitch": 69, "duration": 5, "velocity": 127}, {"time": 1040, "pitch": 66, "duration": 5, "velocity": 122}, {"time": 1046, "pitch": 69, "duration": 5, "velocity": 122}, {"time": 1052, "pitch": 76, "duration": 7, "velocity": 122}, {"time": 1061, "pitch": 73, "duration": 2, "velocity": 127}, {"time": 1064, "pitch": 74, "duration": 15, "velocity": 127}, {"time": 1085, "pitch": 69, "duration": 3, "velocity": 100}, {"time": 1088, "pitch": 66, "duration": 6, "velocity": 112}, {"time": 1094, "pitch": 69, "duration": 4, "velocity": 107}, {"time": 1100, "pitch": 76, "duration": 6, "velocity": 99}, {"time": 1106, "pitch": 78, "duration": 6, "velocity": 127}, {"time": 1112, "pitch": 74, "duration": 12, "velocity": 127}, {"time": 1124, "pitch": 74, "duration": 4, "velocity": 122}, {"time": 1130, "pitch": 74, "duration": 3, "velocity": 95}, {"time": 1133, "pitch": 73, "duration": 7, "velocity": 127}, {"time": 1142, "pitch": 71, "duration": 4, "velocity": 117}, {"time": 1148, "pitch": 69, "duration": 5, "velocity": 102}, {"time": 1154, "pitch": 67, "duration": 6, "velocity": 102}, {"time": 1160, "pitch": 69, "duration": 17, "velocity": 127}, {"time": 1190, "pitch": 62, "duration": 4, "velocity": 112}, {"time": 1196, "pitch": 74, "duration": 5, "velocity": 127}, {"time": 1202, "pitch": 73, "duration": 5, "velocity": 127}, {"time": 1208, "pitch": 71, "duration": 9, "velocity": 127}, {"time": 1226, "pitch": 66, "duration": 4, "velocity": 127}, {"time": 1232, "pitch": 64, "duration": 6, "velocity": 127}, {"time": 1238, "pitch": 66, "duration": 6, "velocity": 122}, {"time": 1244, "pitch": 73, "duration": 7, "velocity": 127}, {"time": 1256, "pitch": 71, "duration": 6, "velocity": 127}, {"time": 1262, "pitch": 69, "duration": 7, "velocity": 112}, {"time": 1277, "pitch": 69, "duration": 4, "velocity": 89}, {"time": 1280, "pitch": 74, "duration": 5, "velocity": 127}, {"time": 1286, "pitch": 76, "duration": 2, "velocity": 127}, {"time": 1289, "pitch": 76, "duration": 4, "velocity": 96}, {"time": 1295, "pitch": 78, "duration": 7, "velocity": 127}, {"time": 1304, "pitch": 71, "duration": 5, "velocity": 122}, {"time": 1310, "pitch": 71, "duration": 2, "velocity": 127}, {"time": 1316, "pitch": 73, "duration": 2, "velocity": 127}, {"time": 1319, "pitch": 74, "duration": 5, "velocity": 127}, {"time": 1328, "pitch": 78, "duration": 4, "velocity": 127}, {"time": 1334, "pitch": 76, "duration": 2, "velocity": 107}, {"time": 1337, "pitch": 76, "duration": 6, "velocity": 127}, {"time": 1346, "pitch": 74, "duration": 1, "velocity": 112}, {"time": 1349, "pitch": 76, "duration": 23, "velocity": 127}, {"time": 1382, "pitch": 69, "duration": 4, "velocity": 107}, {"time": 1388, "pitch": 76, "duration": 7, "velocity": 122}, {"time": 1397, "pitch": 73, "duration": 3, "velocity": 122}, {"time": 1400, "pitch": 74, "duration": 10, "velocity": 127}, {"time": 1418, "pitch": 69, "duration": 5, "velocity": 127}, {"time": 1424, "pitch": 66, "duration": 5, "velocity": 122}, {"time": 1430, "pitch": 69, "duration": 5, "velocity": 122}, {"time": 1436, "pitch": 76, "duration": 7, "velocity": 122}, {"time": 1445, "pitch": 73, "duration": 2, "velocity": 127}, {"time": 1448, "pitch": 74, "duration": 15, "velocity": 127}, {"time": 1469, "pitch": 69, "duration": 3, "velocity": 100}, {"time": 1472, "pitch": 66, "duration": 6, "velocity": 112}, {"time": 1478, "pitch": 69, "duration": 4, "velocity": 107}, {"time": 1484, "pitch": 76, "duration": 6, "velocity": 99}, {"time": 1490, "pitch": 78, "duration": 6, "velocity": 127}, {"time": 1496, "pitch": 74, "duration": 12, "velocity": 127}, {"time": 1508, "pitch": 74, "duration": 4, "velocity": 122}, {"time": 1514, "pitch": 74, "duration": 3, "velocity": 95}, {"time": 1517, "pitch": 73, "duration": 7, "velocity": 127}, {"time": 1526, "pitch": 71, "duration": 4, "velocity": 117}, {"time": 1532, "pitch": 69, "duration": 5, "velocity": 102}, {"time": 1538, "pitch": 67, "duration": 6, "velocity": 102}, {"time": 1544, "pitch": 69, "duration": 17, "velocity": 127}, {"time": 1574, "pitch": 62, "duration": 4, "velocity": 112}, {"time": 1580, "pitch": 74, "duration": 5, "velocity": 127}, {"time": 1586, "pitch": 73, "duration": 5, "velocity": 127}, {"time": 1592, "pitch": 71, "duration": 9, "velocity": 127}, {"time": 1610, "pitch": 66, "duration": 4, "velocity": 127}, {"time": 1616, "pitch": 64, "duration": 6, "velocity": 127}, {"time": 1622, "pitch": 66, "duration": 6, "velocity": 122}, {"time": 1628, "pitch": 73, "duration": 7, "velocity": 127}, {"time": 1640, "pitch": 71, "duration": 6, "velocity": 127}, {"time": 1646, "pitch": 69, "duration": 7, "velocity": 112}, {"time": 1661, "pitch": 69, "duration": 4, "velocity": 89}, {"time": 1664, "pitch": 74, "duration": 5, "velocity": 127}, {"time": 1670, "pitch": 76, "duration": 2, "velocity": 127}, {"time": 1673, "pitch": 76, "duration": 4, "velocity": 96}, {"time": 1679, "pitch": 78, "duration": 7, "velocity": 127}, {"time": 1688, "pitch": 71, "duration": 5, "velocity": 122}, {"time": 1694, "pitch": 71, "duration": 2, "velocity": 127}, {"time": 1700, "pitch": 73, "duration": 2, "velocity": 127}, {"time": 1703, "pitch": 74, "duration": 5, "velocity": 127}, {"time": 1712, "pitch": 74, "duration": 9, "velocity": 127}, {"time": 1724, "pitch": 73, "duration": 5, "velocity": 122}, {"time": 1730, "pitch": 74, "duration": 26, "velocity": 107}, {"time": 1928, "pitch": 69, "duration": 6, "velocity": 96}, {"time": 1934, "pitch": 62, "duration": 5, "velocity": 88}, {"time": 1940, "pitch": 62, "duration": 10, "velocity": 95}, {"time": 1946, "pitch": 69, "duration": 13, "velocity": 100}, {"time": 1958, "pitch": 71, "duration": 6, "velocity": 93}, {"time": 1964, "pitch": 73, "duration": 6, "velocity": 100}, {"time": 1970, "pitch": 69, "duration": 9, "velocity": 99}, {"time": 1982, "pitch": 67, "duration": 6, "velocity": 117}, {"time": 1988, "pitch": 69, "duration": 6, "velocity": 97}, {"time": 1994, "pitch": 66, "duration": 23, "velocity": 95}, {"time": 2024, "pitch": 69, "duration": 5, "velocity": 97}, {"time": 2030, "pitch": 62, "duration": 5, "velocity": 93}, {"time": 2036, "pitch": 62, "duration": 8, "velocity": 97}, {"time": 2048, "pitch": 69, "duration": 6, "velocity": 112}, {"time": 2054, "pitch": 71, "duration": 6, "velocity": 107}, {"time": 2060, "pitch": 69, "duration": 7, "velocity": 112}, {"time": 2066, "pitch": 67, "duration": 5, "velocity": 117}, {"time": 2078, "pitch": 66, "duration": 5, "velocity": 100}, {"time": 2084, "pitch": 67, "duration": 5, "velocity": 96}, {"time": 2090, "pitch": 64, "duration": 19, "velocity": 95}, {"time": 2120, "pitch": 69, "duration": 6, "velocity": 96}, {"time": 2126, "pitch": 62, "duration": 5, "velocity": 88}, {"time": 2132, "pitch": 62, "duration": 5, "velocity": 96}, {"time": 2138, "pitch": 69, "duration": 10, "velocity": 100}, {"time": 2150, "pitch": 71, "duration": 5, "velocity": 107}, {"time": 2156, "pitch": 73, "duration": 5, "velocity": 112}, {"time": 2162, "pitch": 69, "duration": 8, "velocity": 99}, {"time": 2174, "pitch": 71, "duration": 4, "velocity": 97}, {"time": 2180, "pitch": 73, "duration": 3, "velocity": 112}, {"time": 2186, "pitch": 74, "duration": 11, "velocity": 100}, {"time": 2213, "pitch": 69, "duration": 2, "velocity": 102}, {"time": 2216, "pitch": 69, "duration": 4, "velocity": 112}, {"time": 2222, "pitch": 69, "duration": 5, "velocity": 112}, {"time": 2228, "pitch": 69, "duration": 4, "velocity": 96}, {"time": 2234, "pitch": 74, "duration": 9, "velocity": 127}, {"time": 2246, "pitch": 69, "duration": 4, "velocity": 122}, {"time": 2252, "pitch": 74, "duration": 4, "velocity": 127}, {"time": 2258, "pitch": 76, "duration": 28, "velocity": 127}, {"time": 2294, "pitch": 69, "duration": 4, "velocity": 107}, {"time": 2300, "pitch": 76, "duration": 7, "velocity": 122}, {"time": 2309, "pitch": 73, "duration": 3, "velocity": 122}, {"time": 2312, "pitch": 74, "duration": 10, "velocity": 127}, {"time": 2330, "pitch": 69, "duration": 5, "velocity": 127}, {"time": 2336, "pitch": 66, "duration": 5, "velocity": 122}, {"time": 2342, "pitch": 69, "duration": 5, "velocity": 122}, {"time": 2348, "pitch": 76, "duration": 7, "velocity": 122}, {"time": 2357, "pitch": 73, "duration": 2, "velocity": 127}, {"time": 2360, "pitch": 74, "duration": 15, "velocity": 127}, {"time": 2381, "pitch": 69, "duration": 3, "velocity": 100}, {"time": 2384, "pitch": 66, "duration": 6, "velocity": 112}, {"time": 2390, "pitch": 69, "duration": 4, "velocity": 107}, {"time": 2396, "pitch": 76, "duration": 6, "velocity": 99}, {"time": 2402, "pitch": 78, "duration": 6, "velocity": 127}, {"time": 2408, "pitch": 74, "duration": 12, "velocity": 127}, {"time": 2420, "pitch": 74, "duration": 4, "velocity": 122}, {"time": 2426, "pitch": 74, "duration": 3, "velocity": 95}, {"time": 2429, "pitch": 73, "duration": 7, "velocity": 127}, {"time": 2438, "pitch": 71, "duration": 4, "velocity": 117}, {"time": 2444, "pitch": 69, "duration": 5, "velocity": 102}, {"time": 2450, "pitch": 67, "duration": 6, "velocity": 102}, {"time": 2456, "pitch": 69, "duration": 17, "velocity": 127}, {"time": 2486, "pitch": 62, "duration": 4, "velocity": 112}, {"time": 2492, "pitch": 74, "duration": 5, "velocity": 127}, {"time": 2498, "pitch": 73, "duration": 5, "velocity": 127}, {"time": 2504, "pitch": 71, "duration": 9, "velocity": 127}, {"time": 2522, "pitch": 66, "duration": 4, "velocity": 127}, {"time": 2528, "pitch": 64, "duration": 6, "velocity": 127}, {"time": 2534, "pitch": 66, "duration": 6, "velocity": 122}, {"time": 2540, "pitch": 73, "duration": 7, "velocity": 127}, {"time": 2552, "pitch": 71, "duration": 6, "velocity": 127}, {"time": 2558, "pitch": 69, "duration": 7, "velocity": 112}, {"time": 2573, "pitch": 69, "duration": 4, "velocity": 89}, {"time": 2576, "pitch": 74, "duration": 5, "velocity": 127}, {"time": 2582, "pitch": 76, "duration": 2, "velocity": 127}, {"time": 2585, "pitch": 76, "duration": 4, "velocity": 96}, {"time": 2591, "pitch": 78, "duration": 7, "velocity": 127}, {"time": 2600, "pitch": 71, "duration": 5, "velocity": 122}, {"time": 2606, "pitch": 71, "duration": 2, "velocity": 127}, {"time": 2612, "pitch": 73, "duration": 2, "velocity": 127}, {"time": 2615, "pitch": 74, "duration": 5, "velocity": 127}, {"time": 2624, "pitch": 78, "duration": 4, "velocity": 127}, {"time": 2630, "pitch": 76, "duration": 2, "velocity": 107}, {"time": 2633, "pitch": 76, "duration": 6, "velocity": 127}, {"time": 2642, "pitch": 74, "duration": 1, "velocity": 112}, {"time": 2645, "pitch": 76, "duration": 23, "velocity": 127}, {"time": 2678, "pitch": 70, "duration": 4, "velocity": 107}, {"time": 2684, "pitch": 77, "duration": 7, "velocity": 122}, {"time": 2693, "pitch": 74, "duration": 3, "velocity": 122}, {"time": 2696, "pitch": 75, "duration": 10, "velocity": 127}, {"time": 2714, "pitch": 70, "duration": 5, "velocity": 127}, {"time": 2720, "pitch": 67, "duration": 5, "velocity": 122}, {"time": 2726, "pitch": 70, "duration": 5, "velocity": 122}, {"time": 2732, "pitch": 77, "duration": 7, "velocity": 122}, {"time": 2741, "pitch": 74, "duration": 2, "velocity": 127}, {"time": 2744, "pitch": 75, "duration": 15, "velocity": 127}, {"time": 2765, "pitch": 70, "duration": 3, "velocity": 100}, {"time": 2768, "pitch": 67, "duration": 6, "velocity": 112}, {"time": 2774, "pitch": 70, "duration": 4, "velocity": 107}, {"time": 2780, "pitch": 77, "duration": 6, "velocity": 99}, {"time": 2786, "pitch": 79, "duration": 6, "velocity": 127}, {"time": 2792, "pitch": 75, "duration": 12, "velocity": 127}, {"time": 2804, "pitch": 75, "duration": 4, "velocity": 122}, {"time": 2810, "pitch": 75, "duration": 3, "velocity": 95}, {"time": 2813, "pitch": 74, "duration": 7, "velocity": 127}, {"time": 2822, "pitch": 72, "duration": 4, "velocity": 117}, {"time": 2828, "pitch": 70, "duration": 5, "velocity": 102}, {"time": 2834, "pitch": 68, "duration": 6, "velocity": 102}, {"time": 2840, "pitch": 70, "duration": 17, "velocity": 127}, {"time": 2870, "pitch": 63, "duration": 4, "velocity": 112}, {"time": 2876, "pitch": 75, "duration": 5, "velocity": 127}, {"time": 2882, "pitch": 74, "duration": 5, "velocity": 127}, {"time": 2888, "pitch": 72, "duration": 9, "velocity": 127}, {"time": 2906, "pitch": 67, "duration": 4, "velocity": 127}, {"time": 2912, "pitch": 65, "duration": 6, "velocity": 127}, {"time": 2918, "pitch": 67, "duration": 6, "velocity": 122}, {"time": 2924, "pitch": 74, "duration": 7, "velocity": 127}, {"time": 2936, "pitch": 72, "duration": 6, "velocity": 127}, {"time": 2942, "pitch": 70, "duration": 7, "velocity": 112}, {"time": 2957, "pitch": 70, "duration": 4, "velocity": 89}, {"time": 2960, "pitch": 75, "duration": 5, "velocity": 127}, {"time": 2966, "pitch": 77, "duration": 2, "velocity": 127}, {"time": 2969, "pitch": 77, "duration": 4, "velocity": 96}, {"time": 2975, "pitch": 79, "duration": 7, "velocity": 127}, {"time": 2984, "pitch": 72, "duration": 5, "velocity": 122}, {"time": 2990, "pitch": 72, "duration": 2, "velocity": 127}, {"time": 2996, "pitch": 74, "duration": 2, "velocity": 127}, {"time": 2999, "pitch": 75, "duration": 5, "velocity": 127}, {"time": 3008, "pitch": 75, "duration": 9, "velocity": 127}, {"time": 3020, "pitch": 74, "duration": 5, "velocity": 122}, {"time": 3026, "pitch": 75, "duration": 26, "velocity": 107}, {"time": 3062, "pitch": 63, "duration": 4, "velocity": 112}, {"time": 3068, "pitch": 75, "duration": 5, "velocity": 127}, {"time": 3074, "pitch": 74, "duration": 5, "velocity": 127}, {"time": 3080, "pitch": 72, "duration": 9, "velocity": 127}, {"time": 3098, "pitch": 67, "duration": 4, "velocity": 127}, {"time": 3104, "pitch": 65, "duration": 6, "velocity": 127}, {"time": 3110, "pitch": 67, "duration": 6, "velocity": 122}, {"time": 3116, "pitch": 74, "duration": 7, "velocity": 127}, {"time": 3128, "pitch": 72, "duration": 6, "velocity": 127}, {"time": 3134, "pitch": 70, "duration": 7, "velocity": 112}, {"time": 3149, "pitch": 70, "duration": 4, "velocity": 89}, {"time": 3152, "pitch": 75, "duration": 5, "velocity": 127}, {"time": 3158, "pitch": 77, "duration": 2, "velocity": 127}, {"time": 3161, "pitch": 77, "duration": 4, "velocity": 96}, {"time": 3167, "pitch": 79, "duration": 7, "velocity": 127}, {"time": 3176, "pitch": 72, "duration": 5, "velocity": 122}, {"time": 3182, "pitch": 72, "duration": 2, "velocity": 127}, {"time": 3188, "pitch": 74, "duration": 2, "velocity": 127}, {"time": 3191, "pitch": 75, "duration": 5, "velocity": 127}, {"time": 3200, "pitch": 75, "duration": 9, "velocity": 127}, {"time": 3212, "pitch": 74, "duration": 31, "velocity": 97}, {"time": 3248, "pitch": 75, "duration": 59, "velocity": 127}]}, {"program": 0, "is_drum": false, "name": "PIANO", "notes": [{"time": 8, "pitch": 38, "duration": 14, "velocity": 63}, {"time": 14, "pitch": 45, "duration": 8, "velocity": 39}, {"time": 20, "pitch": 57, "duration": 7, "velocity": 72}, {"time": 26, "pitch": 54, "duration": 2, "velocity": 40}, {"time": 32, "pitch": 40, "duration": 15, "velocity": 66}, {"time": 38, "pitch": 47, "duration": 8, "velocity": 37}, {"time": 44, "pitch": 59, "duration": 12, "velocity": 25}, {"time": 44, "pitch": 62, "duration": 12, "velocity": 64}, {"time": 50, "pitch": 52, "duration": 5, "velocity": 44}, {"time": 56, "pitch": 42, "duration": 16, "velocity": 66}, {"time": 62, "pitch": 54, "duration": 13, "velocity": 47}, {"time": 68, "pitch": 61, "duration": 12, "velocity": 92}, {"time": 74, "pitch": 57, "duration": 7, "velocity": 68}, {"time": 80, "pitch": 47, "duration": 17, "velocity": 71}, {"time": 86, "pitch": 54, "duration": 8, "velocity": 44}, {"time": 92, "pitch": 66, "duration": 11, "velocity": 95}, {"time": 98, "pitch": 59, "duration": 6, "velocity": 65}, {"time": 104, "pitch": 40, "duration": 12, "velocity": 82}, {"time": 110, "pitch": 52, "duration": 6, "velocity": 71}, {"time": 116, "pitch": 42, "duration": 12, "velocity": 96}, {"time": 122, "pitch": 54, "duration": 6, "velocity": 88}, {"time": 128, "pitch": 37, "duration": 12, "velocity": 67}, {"time": 128, "pitch": 57, "duration": 12, "velocity": 86}, {"time": 128, "pitch": 61, "duration": 12, "velocity": 85}, {"time": 128, "pitch": 64, "duration": 12, "velocity": 78}, {"time": 140, "pitch": 38, "duration": 6, "velocity": 66}, {"time": 140, "pitch": 57, "duration": 8, "velocity": 86}, {"time": 140, "pitch": 62, "duration": 8, "velocity": 83}, {"time": 140, "pitch": 66, "duration": 8, "velocity": 79}, {"time": 152, "pitch": 36, "duration": 38, "velocity": 89}, {"time": 152, "pitch": 55, "duration": 41, "velocity": 90}, {"time": 152, "pitch": 60, "duration": 15, "velocity": 97}, {"time": 152, "pitch": 64, "duration": 18, "velocity": 95}, {"time": 158, "pitch": 43, "duration": 31, "velocity": 56}, {"time": 164, "pitch": 48, "duration": 24, "velocity": 89}, {"time": 170, "pitch": 60, "duration": 27, "velocity": 64}, {"time": 176, "pitch": 64, "duration": 19, "velocity": 92}, {"time": 200, "pitch": 45, "duration": 17, "velocity": 100}, {"time": 206, "pitch": 57, "duration": 7, "velocity": 82}, {"time": 212, "pitch": 64, "duration": 6, "velocity": 90}, {"time": 218, "pitch": 45, "duration": 24, "velocity": 69}, {"time": 218, "pitch": 57, "duration": 28, "velocity": 69}, {"time": 218, "pitch": 61, "duration": 26, "velocity": 78}, {"time": 218, "pitch": 64, "duration": 26, "velocity": 72}, {"time": 248, "pitch": 38, "duration": 14, "velocity": 78}, {"time": 254, "pitch": 45, "duration": 8, "velocity": 50}, {"time": 260, "pitch": 66, "duration": 13, "velocity": 107}, {"time": 266, "pitch": 62, "duration": 7, "velocity": 53}, {"time": 272, "pitch": 43, "duration": 14, "velocity": 72}, {"time": 278, "pitch": 50, "duration": 9, "velocity": 48}, {"time": 284, "pitch": 62, "duration": 12, "velocity": 96}, {"time": 290, "pitch": 59, "duration": 6, "velocity": 52}, {"time": 296, "pitch": 45, "duration": 24, "velocity": 75}, {"time": 302, "pitch": 57, "duration": 8, "velocity": 64}, {"time": 308, "pitch": 64, "duration": 12, "velocity": 93}, {"time": 314, "pitch": 57, "duration": 6, "velocity": 82}, {"time": 320, "pitch": 47, "duration": 12, "velocity": 92}, {"time": 326, "pitch": 59, "duration": 5, "velocity": 66}, {"time": 332, "pitch": 45, "duration": 11, "velocity": 79}, {"time": 338, "pitch": 64, "duration": 7, "velocity": 76}, {"time": 344, "pitch": 43, "duration": 15, "velocity": 90}, {"time": 350, "pitch": 50, "duration": 9, "velocity": 53}, {"time": 356, "pitch": 62, "duration": 13, "velocity": 92}, {"time": 362, "pitch": 59, "duration": 7, "velocity": 65}, {"time": 365, "pitch": 55, "duration": 3, "velocity": 60}, {"time": 368, "pitch": 40, "duration": 19, "velocity": 67}, {"time": 374, "pitch": 47, "duration": 13, "velocity": 55}, {"time": 380, "pitch": 52, "duration": 11, "velocity": 52}, {"time": 380, "pitch": 67, "duration": 13, "velocity": 86}, {"time": 386, "pitch": 64, "duration": 7, "velocity": 57}, {"time": 392, "pitch": 45, "duration": 23, "velocity": 70}, {"time": 398, "pitch": 52, "duration": 33, "velocity": 54}, {"time": 404, "pitch": 64, "duration": 22, "velocity": 90}, {"time": 410, "pitch": 61, "duration": 18, "velocity": 66}, {"time": 416, "pitch": 45, "duration": 16, "velocity": 51}, {"time": 416, "pitch": 57, "duration": 14, "velocity": 46}, {"time": 428, "pitch": 64, "duration": 8, "velocity": 97}, {"time": 431, "pitch": 61, "duration": 10, "velocity": 89}, {"time": 434, "pitch": 57, "duration": 8, "velocity": 77}, {"time": 440, "pitch": 38, "duration": 16, "velocity": 82}, {"time": 443, "pitch": 45, "duration": 13, "velocity": 46}, {"time": 446, "pitch": 50, "duration": 8, "velocity": 77}, {"time": 449, "pitch": 57, "duration": 16, "velocity": 58}, {"time": 452, "pitch": 66, "duration": 13, "velocity": 122}, {"time": 458, "pitch": 62, "duration": 7, "velocity": 65}, {"time": 464, "pitch": 43, "duration": 15, "velocity": 71}, {"time": 470, "pitch": 50, "duration": 9, "velocity": 58}, {"time": 476, "pitch": 62, "duration": 11, "velocity": 96}, {"time": 482, "pitch": 59, "duration": 5, "velocity": 62}, {"time": 488, "pitch": 45, "duration": 12, "velocity": 92}, {"time": 494, "pitch": 64, "duration": 5, "velocity": 95}, {"time": 500, "pitch": 46, "duration": 12, "velocity": 85}, {"time": 506, "pitch": 58, "duration": 7, "velocity": 74}, {"time": 512, "pitch": 47, "duration": 17, "velocity": 70}, {"time": 518, "pitch": 54, "duration": 9, "velocity": 78}, {"time": 524, "pitch": 66, "duration": 12, "velocity": 100}, {"time": 530, "pitch": 62, "duration": 6, "velocity": 55}, {"time": 533, "pitch": 59, "duration": 4, "velocity": 48}, {"time": 536, "pitch": 40, "duration": 14, "velocity": 70}, {"time": 542, "pitch": 47, "duration": 8, "velocity": 54}, {"time": 545, "pitch": 64, "duration": 2, "velocity": 23}, {"time": 548, "pitch": 67, "duration": 13, "velocity": 92}, {"time": 554, "pitch": 64, "duration": 7, "velocity": 47}, {"time": 560, "pitch": 45, "duration": 16, "velocity": 75}, {"time": 566, "pitch": 52, "duration": 10, "velocity": 58}, {"time": 572, "pitch": 64, "duration": 12, "velocity": 89}, {"time": 578, "pitch": 61, "duration": 6, "velocity": 62}, {"time": 584, "pitch": 43, "duration": 12, "velocity": 73}, {"time": 590, "pitch": 55, "duration": 10, "velocity": 66}, {"time": 596, "pitch": 59, "duration": 5, "velocity": 66}, {"time": 602, "pitch": 38, "duration": 25, "velocity": 74}, {"time": 602, "pitch": 57, "duration": 31, "velocity": 72}, {"time": 602, "pitch": 62, "duration": 30, "velocity": 67}, {"time": 602, "pitch": 66, "duration": 31, "velocity": 69}, {"time": 632, "pitch": 38, "duration": 14, "velocity": 66}, {"time": 638, "pitch": 45, "duration": 8, "velocity": 45}, {"time": 644, "pitch": 66, "duration": 14, "velocity": 117}, {"time": 650, "pitch": 62, "duration": 8, "velocity": 60}, {"time": 656, "pitch": 43, "duration": 15, "velocity": 73}, {"time": 662, "pitch": 50, "duration": 9, "velocity": 55}, {"time": 668, "pitch": 62, "duration": 12, "velocity": 97}, {"time": 674, "pitch": 59, "duration": 7, "velocity": 82}, {"time": 680, "pitch": 45, "duration": 24, "velocity": 82}, {"time": 686, "pitch": 57, "duration": 8, "velocity": 72}, {"time": 692, "pitch": 64, "duration": 11, "velocity": 93}, {"time": 698, "pitch": 57, "duration": 6, "velocity": 69}, {"time": 704, "pitch": 47, "duration": 15, "velocity": 95}, {"time": 710, "pitch": 54, "duration": 7, "velocity": 65}, {"time": 716, "pitch": 66, "duration": 13, "velocity": 97}, {"time": 722, "pitch": 62, "duration": 7, "velocity": 55}, {"time": 728, "pitch": 40, "duration": 38, "velocity": 92}, {"time": 734, "pitch": 47, "duration": 32, "velocity": 55}, {"time": 740, "pitch": 52, "duration": 17, "velocity": 82}, {"time": 746, "pitch": 55, "duration": 19, "velocity": 85}, {"time": 752, "pitch": 64, "duration": 24, "velocity": 95}, {"time": 758, "pitch": 52, "duration": 4, "velocity": 47}, {"time": 764, "pitch": 59, "duration": 12, "velocity": 93}, {"time": 770, "pitch": 55, "duration": 6, "velocity": 78}, {"time": 776, "pitch": 45, "duration": 23, "velocity": 83}, {"time": 782, "pitch": 52, "duration": 9, "velocity": 63}, {"time": 788, "pitch": 64, "duration": 11, "velocity": 100}, {"time": 794, "pitch": 61, "duration": 5, "velocity": 86}, {"time": 800, "pitch": 45, "duration": 12, "velocity": 93}, {"time": 806, "pitch": 57, "duration": 6, "velocity": 85}, {"time": 812, "pitch": 43, "duration": 8, "velocity": 107}, {"time": 818, "pitch": 55, "duration": 7, "velocity": 86}, {"time": 824, "pitch": 42, "duration": 18, "velocity": 97}, {"time": 830, "pitch": 54, "duration": 12, "velocity": 73}, {"time": 836, "pitch": 66, "duration": 13, "velocity": 102}, {"time": 842, "pitch": 61, "duration": 7, "velocity": 90}, {"time": 848, "pitch": 43, "duration": 18, "velocity": 83}, {"time": 854, "pitch": 50, "duration": 15, "velocity": 56}, {"time": 860, "pitch": 62, "duration": 11, "velocity": 100}, {"time": 866, "pitch": 59, "duration": 6, "velocity": 90}, {"time": 872, "pitch": 45, "duration": 12, "velocity": 88}, {"time": 878, "pitch": 57, "duration": 7, "velocity": 85}, {"time": 884, "pitch": 46, "duration": 8, "velocity": 95}, {"time": 890, "pitch": 58, "duration": 6, "velocity": 107}, {"time": 896, "pitch": 47, "duration": 16, "velocity": 85}, {"time": 902, "pitch": 54, "duration": 10, "velocity": 76}, {"time": 908, "pitch": 66, "duration": 11, "velocity": 112}, {"time": 914, "pitch": 62, "duration": 6, "velocity": 69}, {"time": 917, "pitch": 59, "duration": 3, "velocity": 59}, {"time": 920, "pitch": 40, "duration": 38, "velocity": 95}, {"time": 926, "pitch": 47, "duration": 33, "velocity": 60}, {"time": 932, "pitch": 52, "duration": 16, "velocity": 95}, {"time": 938, "pitch": 59, "duration": 14, "velocity": 83}, {"time": 944, "pitch": 67, "duration": 24, "velocity": 102}, {"time": 950, "pitch": 52, "duration": 12, "velocity": 63}, {"time": 956, "pitch": 64, "duration": 12, "velocity": 97}, {"time": 962, "pitch": 59, "duration": 7, "velocity": 88}, {"time": 968, "pitch": 45, "duration": 22, "velocity": 92}, {"time": 974, "pitch": 52, "duration": 8, "velocity": 90}, {"time": 980, "pitch": 64, "duration": 11, "velocity": 112}, {"time": 983, "pitch": 52, "duration": 9, "velocity": 68}, {"time": 986, "pitch": 61, "duration": 13, "velocity": 107}, {"time": 989, "pitch": 59, "duration": 3, "velocity": 64}, {"time": 992, "pitch": 45, "duration": 7, "velocity": 96}, {"time": 992, "pitch": 57, "duration": 7, "velocity": 70}, {"time": 992, "pitch": 64, "duration": 7, "velocity": 71}, {"time": 1016, "pitch": 38, "duration": 20, "velocity": 99}, {"time": 1019, "pitch": 45, "duration": 22, "velocity": 93}, {"time": 1022, "pitch": 50, "duration": 7, "velocity": 95}, {"time": 1025, "pitch": 57, "duration": 6, "velocity": 90}, {"time": 1028, "pitch": 66, "duration": 13, "velocity": 127}, {"time": 1031, "pitch": 50, "duration": 3, "velocity": 75}, {"time": 1034, "pitch": 62, "duration": 8, "velocity": 82}, {"time": 1037, "pitch": 57, "duration": 5, "velocity": 92}, {"time": 1040, "pitch": 38, "duration": 17, "velocity": 74}, {"time": 1043, "pitch": 45, "duration": 14, "velocity": 82}, {"time": 1046, "pitch": 50, "duration": 7, "velocity": 88}, {"time": 1049, "pitch": 57, "duration": 5, "velocity": 92}, {"time": 1052, "pitch": 66, "duration": 13, "velocity": 127}, {"time": 1055, "pitch": 50, "duration": 5, "velocity": 89}, {"time": 1058, "pitch": 61, "duration": 5, "velocity": 117}, {"time": 1061, "pitch": 62, "duration": 4, "velocity": 93}, {"time": 1064, "pitch": 47, "duration": 23, "velocity": 93}, {"time": 1067, "pitch": 54, "duration": 11, "velocity": 96}, {"time": 1070, "pitch": 59, "duration": 6, "velocity": 86}, {"time": 1073, "pitch": 61, "duration": 4, "velocity": 112}, {"time": 1076, "pitch": 66, "duration": 12, "velocity": 117}, {"time": 1079, "pitch": 54, "duration": 9, "velocity": 92}, {"time": 1082, "pitch": 62, "duration": 4, "velocity": 86}, {"time": 1085, "pitch": 61, "duration": 3, "velocity": 107}, {"time": 1088, "pitch": 47, "duration": 19, "velocity": 89}, {"time": 1091, "pitch": 54, "duration": 14, "velocity": 90}, {"time": 1094, "pitch": 59, "duration": 7, "velocity": 77}, {"time": 1097, "pitch": 62, "duration": 5, "velocity": 100}, {"time": 1100, "pitch": 71, "duration": 12, "velocity": 127}, {"time": 1103, "pitch": 59, "duration": 2, "velocity": 97}, {"time": 1106, "pitch": 66, "duration": 5, "velocity": 112}, {"time": 1109, "pitch": 62, "duration": 3, "velocity": 90}, {"time": 1112, "pitch": 43, "duration": 19, "velocity": 99}, {"time": 1115, "pitch": 50, "duration": 11, "velocity": 93}, {"time": 1118, "pitch": 55, "duration": 4, "velocity": 89}, {"time": 1121, "pitch": 59, "duration": 4, "velocity": 99}, {"time": 1124, "pitch": 62, "duration": 12, "velocity": 99}, {"time": 1127, "pitch": 50, "duration": 9, "velocity": 97}, {"time": 1130, "pitch": 59, "duration": 6, "velocity": 96}, {"time": 1133, "pitch": 55, "duration": 3, "velocity": 93}, {"time": 1136, "pitch": 45, "duration": 19, "velocity": 95}, {"time": 1139, "pitch": 52, "duration": 11, "velocity": 85}, {"time": 1142, "pitch": 57, "duration": 4, "velocity": 90}, {"time": 1145, "pitch": 64, "duration": 14, "velocity": 93}, {"time": 1148, "pitch": 61, "duration": 7, "velocity": 122}, {"time": 1151, "pitch": 52, "duration": 3, "velocity": 95}, {"time": 1154, "pitch": 57, "duration": 8, "velocity": 95}, {"time": 1157, "pitch": 61, "duration": 3, "velocity": 117}, {"time": 1160, "pitch": 38, "duration": 19, "velocity": 88}, {"time": 1163, "pitch": 45, "duration": 20, "velocity": 93}, {"time": 1166, "pitch": 50, "duration": 7, "velocity": 93}, {"time": 1169, "pitch": 57, "duration": 5, "velocity": 86}, {"time": 1172, "pitch": 66, "duration": 10, "velocity": 127}, {"time": 1175, "pitch": 50, "duration": 3, "velocity": 97}, {"time": 1178, "pitch": 62, "duration": 5, "velocity": 100}, {"time": 1181, "pitch": 57, "duration": 3, "velocity": 112}, {"time": 1184, "pitch": 40, "duration": 12, "velocity": 127}, {"time": 1187, "pitch": 52, "duration": 5, "velocity": 89}, {"time": 1190, "pitch": 59, "duration": 4, "velocity": 99}, {"time": 1193, "pitch": 52, "duration": 3, "velocity": 112}, {"time": 1196, "pitch": 42, "duration": 10, "velocity": 122}, {"time": 1199, "pitch": 54, "duration": 9, "velocity": 100}, {"time": 1208, "pitch": 43, "duration": 20, "velocity": 99}, {"time": 1211, "pitch": 50, "duration": 11, "velocity": 89}, {"time": 1214, "pitch": 55, "duration": 4, "velocity": 83}, {"time": 1217, "pitch": 59, "duration": 4, "velocity": 92}, {"time": 1220, "pitch": 62, "duration": 12, "velocity": 100}, {"time": 1223, "pitch": 50, "duration": 8, "velocity": 88}, {"time": 1226, "pitch": 55, "duration": 5, "velocity": 93}, {"time": 1229, "pitch": 59, "duration": 2, "velocity": 95}, {"time": 1232, "pitch": 43, "duration": 24, "velocity": 90}, {"time": 1235, "pitch": 52, "duration": 18, "velocity": 82}, {"time": 1238, "pitch": 57, "duration": 10, "velocity": 93}, {"time": 1241, "pitch": 61, "duration": 8, "velocity": 127}, {"time": 1244, "pitch": 64, "duration": 13, "velocity": 90}, {"time": 1247, "pitch": 67, "duration": 10, "velocity": 99}, {"time": 1250, "pitch": 57, "duration": 7, "velocity": 97}, {"time": 1253, "pitch": 61, "duration": 3, "velocity": 122}, {"time": 1256, "pitch": 42, "duration": 17, "velocity": 83}, {"time": 1259, "pitch": 49, "duration": 14, "velocity": 34}, {"time": 1262, "pitch": 54, "duration": 7, "velocity": 96}, {"time": 1265, "pitch": 57, "duration": 7, "velocity": 92}, {"time": 1268, "pitch": 66, "duration": 12, "velocity": 112}, {"time": 1271, "pitch": 54, "duration": 4, "velocity": 88}, {"time": 1274, "pitch": 61, "duration": 6, "velocity": 102}, {"time": 1277, "pitch": 57, "duration": 4, "velocity": 95}, {"time": 1280, "pitch": 47, "duration": 17, "velocity": 78}, {"time": 1283, "pitch": 54, "duration": 11, "velocity": 99}, {"time": 1286, "pitch": 59, "duration": 7, "velocity": 83}, {"time": 1289, "pitch": 62, "duration": 4, "velocity": 86}, {"time": 1292, "pitch": 66, "duration": 11, "velocity": 127}, {"time": 1295, "pitch": 54, "duration": 2, "velocity": 99}, {"time": 1298, "pitch": 62, "duration": 5, "velocity": 99}, {"time": 1301, "pitch": 59, "duration": 4, "velocity": 92}, {"time": 1304, "pitch": 40, "duration": 22, "velocity": 75}, {"time": 1307, "pitch": 47, "duration": 21, "velocity": 72}, {"time": 1310, "pitch": 52, "duration": 7, "velocity": 89}, {"time": 1313, "pitch": 59, "duration": 4, "velocity": 90}, {"time": 1316, "pitch": 67, "duration": 10, "velocity": 127}, {"time": 1319, "pitch": 52, "duration": 3, "velocity": 95}, {"time": 1322, "pitch": 64, "duration": 4, "velocity": 97}, {"time": 1325, "pitch": 59, "duration": 3, "velocity": 88}, {"time": 1328, "pitch": 40, "duration": 19, "velocity": 92}, {"time": 1331, "pitch": 47, "duration": 16, "velocity": 92}, {"time": 1334, "pitch": 52, "duration": 8, "velocity": 95}, {"time": 1337, "pitch": 56, "duration": 4, "velocity": 117}, {"time": 1340, "pitch": 59, "duration": 6, "velocity": 112}, {"time": 1343, "pitch": 52, "duration": 2, "velocity": 93}, {"time": 1346, "pitch": 56, "duration": 5, "velocity": 127}, {"time": 1349, "pitch": 59, "duration": 3, "velocity": 97}, {"time": 1352, "pitch": 36, "duration": 18, "velocity": 95}, {"time": 1355, "pitch": 43, "duration": 15, "velocity": 95}, {"time": 1358, "pitch": 48, "duration": 7, "velocity": 107}, {"time": 1361, "pitch": 55, "duration": 5, "velocity": 93}, {"time": 1364, "pitch": 64, "duration": 11, "velocity": 117}, {"time": 1367, "pitch": 48, "duration": 3, "velocity": 97}, {"time": 1370, "pitch": 60, "duration": 5, "velocity": 107}, {"time": 1373, "pitch": 55, "duration": 3, "velocity": 92}, {"time": 1376, "pitch": 45, "duration": 18, "velocity": 127}, {"time": 1379, "pitch": 49, "duration": 14, "velocity": 117}, {"time": 1382, "pitch": 52, "duration": 6, "velocity": 99}, {"time": 1385, "pitch": 57, "duration": 5, "velocity": 102}, {"time": 1388, "pitch": 64, "duration": 11, "velocity": 127}, {"time": 1391, "pitch": 52, "duration": 3, "velocity": 97}, {"time": 1394, "pitch": 61, "duration": 4, "velocity": 127}, {"time": 1397, "pitch": 57, "duration": 4, "velocity": 107}, {"time": 1400, "pitch": 38, "duration": 23, "velocity": 96}, {"time": 1403, "pitch": 45, "duration": 22, "velocity": 97}, {"time": 1406, "pitch": 50, "duration": 7, "velocity": 93}, {"time": 1409, "pitch": 57, "duration": 5, "velocity": 93}, {"time": 1412, "pitch": 66, "duration": 13, "velocity": 127}, {"time": 1415, "pitch": 50, "duration": 3, "velocity": 97}, {"time": 1418, "pitch": 62, "duration": 8, "velocity": 97}, {"time": 1421, "pitch": 57, "duration": 5, "velocity": 107}, {"time": 1424, "pitch": 38, "duration": 16, "velocity": 85}, {"time": 1427, "pitch": 45, "duration": 14, "velocity": 73}, {"time": 1430, "pitch": 50, "duration": 7, "velocity": 92}, {"time": 1433, "pitch": 57, "duration": 5, "velocity": 100}, {"time": 1436, "pitch": 66, "duration": 13, "velocity": 127}, {"time": 1439, "pitch": 50, "duration": 4, "velocity": 97}, {"time": 1442, "pitch": 61, "duration": 5, "velocity": 127}, {"time": 1445, "pitch": 62, "duration": 4, "velocity": 83}, {"time": 1448, "pitch": 47, "duration": 20, "velocity": 88}, {"time": 1451, "pitch": 54, "duration": 11, "velocity": 93}, {"time": 1454, "pitch": 59, "duration": 5, "velocity": 92}, {"time": 1457, "pitch": 61, "duration": 3, "velocity": 100}, {"time": 1460, "pitch": 66, "duration": 12, "velocity": 122}, {"time": 1463, "pitch": 54, "duration": 3, "velocity": 99}, {"time": 1466, "pitch": 61, "duration": 5, "velocity": 127}, {"time": 1469, "pitch": 59, "duration": 3, "velocity": 97}, {"time": 1472, "pitch": 38, "duration": 19, "velocity": 93}, {"time": 1475, "pitch": 45, "duration": 16, "velocity": 83}, {"time": 1478, "pitch": 50, "duration": 14, "velocity": 95}, {"time": 1481, "pitch": 57, "duration": 15, "velocity": 90}, {"time": 1484, "pitch": 66, "duration": 14, "velocity": 117}, {"time": 1487, "pitch": 60, "duration": 5, "velocity": 117}, {"time": 1490, "pitch": 62, "duration": 8, "velocity": 97}, {"time": 1493, "pitch": 60, "duration": 5, "velocity": 90}, {"time": 1496, "pitch": 43, "duration": 20, "velocity": 86}, {"time": 1499, "pitch": 50, "duration": 20, "velocity": 88}, {"time": 1502, "pitch": 55, "duration": 7, "velocity": 99}, {"time": 1505, "pitch": 59, "duration": 6, "velocity": 89}, {"time": 1508, "pitch": 67, "duration": 11, "velocity": 112}, {"time": 1511, "pitch": 55, "duration": 3, "velocity": 93}, {"time": 1514, "pitch": 62, "duration": 5, "velocity": 100}, {"time": 1517, "pitch": 59, "duration": 4, "velocity": 85}, {"time": 1520, "pitch": 45, "duration": 18, "velocity": 76}, {"time": 1523, "pitch": 52, "duration": 11, "velocity": 85}, {"time": 1526, "pitch": 57, "duration": 4, "velocity": 85}, {"time": 1529, "pitch": 61, "duration": 4, "velocity": 117}, {"time": 1532, "pitch": 64, "duration": 12, "velocity": 90}, {"time": 1535, "pitch": 52, "duration": 3, "velocity": 88}, {"time": 1538, "pitch": 61, "duration": 5, "velocity": 117}, {"time": 1541, "pitch": 57, "duration": 4, "velocity": 96}, {"time": 1544, "pitch": 38, "duration": 20, "velocity": 81}, {"time": 1547, "pitch": 45, "duration": 20, "velocity": 68}, {"time": 1550, "pitch": 50, "duration": 7, "velocity": 89}, {"time": 1553, "pitch": 57, "duration": 5, "velocity": 97}, {"time": 1556, "pitch": 66, "duration": 10, "velocity": 127}, {"time": 1559, "pitch": 50, "duration": 4, "velocity": 99}, {"time": 1562, "pitch": 57, "duration": 4, "velocity": 112}, {"time": 1565, "pitch": 62, "duration": 6, "velocity": 92}, {"time": 1568, "pitch": 40, "duration": 12, "velocity": 100}, {"time": 1571, "pitch": 59, "duration": 5, "velocity": 90}, {"time": 1574, "pitch": 64, "duration": 5, "velocity": 127}, {"time": 1577, "pitch": 59, "duration": 3, "velocity": 102}, {"time": 1580, "pitch": 42, "duration": 7, "velocity": 122}, {"time": 1583, "pitch": 54, "duration": 4, "velocity": 100}, {"time": 1586, "pitch": 61, "duration": 6, "velocity": 117}, {"time": 1589, "pitch": 54, "duration": 3, "velocity": 92}, {"time": 1592, "pitch": 43, "duration": 22, "velocity": 83}, {"time": 1595, "pitch": 50, "duration": 10, "velocity": 83}, {"time": 1598, "pitch": 55, "duration": 5, "velocity": 89}, {"time": 1601, "pitch": 59, "duration": 5, "velocity": 93}, {"time": 1604, "pitch": 62, "duration": 11, "velocity": 102}, {"time": 1607, "pitch": 50, "duration": 8, "velocity": 88}, {"time": 1610, "pitch": 59, "duration": 5, "velocity": 107}, {"time": 1613, "pitch": 55, "duration": 4, "velocity": 97}, {"time": 1616, "pitch": 43, "duration": 22, "velocity": 92}, {"time": 1619, "pitch": 57, "duration": 12, "velocity": 93}, {"time": 1622, "pitch": 61, "duration": 8, "velocity": 127}, {"time": 1625, "pitch": 64, "duration": 5, "velocity": 89}, {"time": 1628, "pitch": 67, "duration": 12, "velocity": 112}, {"time": 1631, "pitch": 64, "duration": 10, "velocity": 96}, {"time": 1634, "pitch": 61, "duration": 7, "velocity": 97}, {"time": 1637, "pitch": 57, "duration": 4, "velocity": 95}, {"time": 1640, "pitch": 42, "duration": 17, "velocity": 96}, {"time": 1643, "pitch": 54, "duration": 10, "velocity": 86}, {"time": 1646, "pitch": 57, "duration": 8, "velocity": 86}, {"time": 1649, "pitch": 61, "duration": 4, "velocity": 117}, {"time": 1652, "pitch": 66, "duration": 13, "velocity": 122}, {"time": 1655, "pitch": 54, "duration": 4, "velocity": 86}, {"time": 1658, "pitch": 57, "duration": 6, "velocity": 92}, {"time": 1661, "pitch": 61, "duration": 3, "velocity": 127}, {"time": 1664, "pitch": 47, "duration": 18, "velocity": 86}, {"time": 1667, "pitch": 54, "duration": 11, "velocity": 89}, {"time": 1670, "pitch": 59, "duration": 8, "velocity": 86}, {"time": 1673, "pitch": 62, "duration": 4, "velocity": 107}, {"time": 1676, "pitch": 66, "duration": 10, "velocity": 127}, {"time": 1679, "pitch": 54, "duration": 3, "velocity": 107}, {"time": 1682, "pitch": 62, "duration": 5, "velocity": 127}, {"time": 1685, "pitch": 59, "duration": 5, "velocity": 97}, {"time": 1688, "pitch": 40, "duration": 17, "velocity": 83}, {"time": 1691, "pitch": 47, "duration": 15, "velocity": 77}, {"time": 1694, "pitch": 52, "duration": 7, "velocity": 95}, {"time": 1697, "pitch": 59, "duration": 5, "velocity": 88}, {"time": 1700, "pitch": 67, "duration": 12, "velocity": 122}, {"time": 1703, "pitch": 52, "duration": 7, "velocity": 93}, {"time": 1706, "pitch": 64, "duration": 5, "velocity": 107}, {"time": 1709, "pitch": 59, "duration": 4, "velocity": 97}, {"time": 1712, "pitch": 45, "duration": 20, "velocity": 72}, {"time": 1715, "pitch": 52, "duration": 16, "velocity": 69}, {"time": 1718, "pitch": 57, "duration": 6, "velocity": 82}, {"time": 1721, "pitch": 61, "duration": 15, "velocity": 96}, {"time": 1724, "pitch": 64, "duration": 12, "velocity": 79}, {"time": 1736, "pitch": 43, "duration": 22, "velocity": 86}, {"time": 1736, "pitch": 74, "duration": 4, "velocity": 96}, {"time": 1739, "pitch": 73, "duration": 4, "velocity": 82}, {"time": 1742, "pitch": 50, "duration": 18, "velocity": 54}, {"time": 1742, "pitch": 69, "duration": 4, "velocity": 79}, {"time": 1745, "pitch": 74, "duration": 6, "velocity": 95}, {"time": 1748, "pitch": 55, "duration": 9, "velocity": 68}, {"time": 1751, "pitch": 73, "duration": 4, "velocity": 72}, {"time": 1754, "pitch": 59, "duration": 8, "velocity": 67}, {"time": 1754, "pitch": 69, "duration": 3, "velocity": 81}, {"time": 1757, "pitch": 74, "duration": 11, "velocity": 92}, {"time": 1760, "pitch": 45, "duration": 15, "velocity": 88}, {"time": 1763, "pitch": 73, "duration": 4, "velocity": 76}, {"time": 1766, "pitch": 52, "duration": 9, "velocity": 62}, {"time": 1766, "pitch": 69, "duration": 3, "velocity": 74}, {"time": 1769, "pitch": 74, "duration": 8, "velocity": 83}, {"time": 1772, "pitch": 64, "duration": 13, "velocity": 93}, {"time": 1775, "pitch": 73, "duration": 4, "velocity": 89}, {"time": 1778, "pitch": 69, "duration": 6, "velocity": 79}, {"time": 1784, "pitch": 47, "duration": 14, "velocity": 72}, {"time": 1784, "pitch": 74, "duration": 3, "velocity": 89}, {"time": 1787, "pitch": 73, "duration": 3, "velocity": 74}, {"time": 1790, "pitch": 54, "duration": 7, "velocity": 73}, {"time": 1790, "pitch": 69, "duration": 4, "velocity": 76}, {"time": 1793, "pitch": 74, "duration": 5, "velocity": 92}, {"time": 1796, "pitch": 66, "duration": 12, "velocity": 97}, {"time": 1799, "pitch": 73, "duration": 3, "velocity": 72}, {"time": 1802, "pitch": 59, "duration": 6, "velocity": 59}, {"time": 1802, "pitch": 69, "duration": 3, "velocity": 69}, {"time": 1805, "pitch": 74, "duration": 6, "velocity": 81}, {"time": 1808, "pitch": 42, "duration": 16, "velocity": 89}, {"time": 1811, "pitch": 73, "duration": 3, "velocity": 61}, {"time": 1814, "pitch": 49, "duration": 12, "velocity": 58}, {"time": 1814, "pitch": 69, "duration": 6, "velocity": 76}, {"time": 1817, "pitch": 74, "duration": 3, "velocity": 99}, {"time": 1820, "pitch": 66, "duration": 12, "velocity": 93}, {"time": 1823, "pitch": 73, "duration": 3, "velocity": 83}, {"time": 1826, "pitch": 61, "duration": 5, "velocity": 86}, {"time": 1826, "pitch": 74, "duration": 4, "velocity": 78}, {"time": 1829, "pitch": 81, "duration": 4, "velocity": 85}, {"time": 1832, "pitch": 43, "duration": 19, "velocity": 93}, {"time": 1832, "pitch": 74, "duration": 4, "velocity": 93}, {"time": 1835, "pitch": 73, "duration": 4, "velocity": 79}, {"time": 1838, "pitch": 50, "duration": 14, "velocity": 72}, {"time": 1838, "pitch": 69, "duration": 4, "velocity": 69}, {"time": 1841, "pitch": 55, "duration": 4, "velocity": 50}, {"time": 1841, "pitch": 74, "duration": 6, "velocity": 93}, {"time": 1844, "pitch": 62, "duration": 12, "velocity": 107}, {"time": 1847, "pitch": 73, "duration": 4, "velocity": 59}, {"time": 1850, "pitch": 59, "duration": 7, "velocity": 83}, {"time": 1850, "pitch": 69, "duration": 4, "velocity": 66}, {"time": 1853, "pitch": 55, "duration": 3, "velocity": 50}, {"time": 1853, "pitch": 74, "duration": 7, "velocity": 95}, {"time": 1856, "pitch": 45, "duration": 14, "velocity": 82}, {"time": 1859, "pitch": 73, "duration": 4, "velocity": 59}, {"time": 1862, "pitch": 52, "duration": 8, "velocity": 60}, {"time": 1862, "pitch": 69, "duration": 4, "velocity": 67}, {"time": 1865, "pitch": 74, "duration": 5, "velocity": 99}, {"time": 1868, "pitch": 64, "duration": 12, "velocity": 102}, {"time": 1874, "pitch": 61, "duration": 6, "velocity": 112}, {"time": 1880, "pitch": 36, "duration": 10, "velocity": 64}, {"time": 1880, "pitch": 48, "duration": 12, "velocity": 93}, {"time": 1880, "pitch": 60, "duration": 7, "velocity": 100}, {"time": 1880, "pitch": 64, "duration": 7, "velocity": 96}, {"time": 1880, "pitch": 72, "duration": 4, "velocity": 100}, {"time": 1883, "pitch": 71, "duration": 3, "velocity": 70}, {"time": 1886, "pitch": 55, "duration": 7, "velocity": 92}, {"time": 1886, "pitch": 67, "duration": 4, "velocity": 72}, {"time": 1889, "pitch": 72, "duration": 13, "velocity": 97}, {"time": 1892, "pitch": 60, "duration": 4, "velocity": 117}, {"time": 1898, "pitch": 45, "duration": 30, "velocity": 92}, {"time": 1898, "pitch": 52, "duration": 19, "velocity": 93}, {"time": 1898, "pitch": 57, "duration": 18, "velocity": 99}, {"time": 1898, "pitch": 61, "duration": 17, "velocity": 127}, {"time": 1898, "pitch": 64, "duration": 17, "velocity": 97}, {"time": 1916, "pitch": 61, "duration": 13, "velocity": 112}, {"time": 1916, "pitch": 64, "duration": 13, "velocity": 99}, {"time": 1922, "pitch": 57, "duration": 7, "velocity": 78}, {"time": 1928, "pitch": 38, "duration": 14, "velocity": 66}, {"time": 1934, "pitch": 45, "duration": 8, "velocity": 45}, {"time": 1940, "pitch": 66, "duration": 14, "velocity": 117}, {"time": 1946, "pitch": 62, "duration": 8, "velocity": 60}, {"time": 1952, "pitch": 43, "duration": 15, "velocity": 73}, {"time": 1958, "pitch": 50, "duration": 9, "velocity": 55}, {"time": 1964, "pitch": 62, "duration": 12, "velocity": 97}, {"time": 1970, "pitch": 59, "duration": 7, "velocity": 82}, {"time": 1976, "pitch": 45, "duration": 24, "velocity": 82}, {"time": 1982, "pitch": 57, "duration": 8, "velocity": 72}, {"time": 1988, "pitch": 64, "duration": 11, "velocity": 93}, {"time": 1994, "pitch": 57, "duration": 6, "velocity": 69}, {"time": 2000, "pitch": 47, "duration": 15, "velocity": 95}, {"time": 2006, "pitch": 54, "duration": 7, "velocity": 65}, {"time": 2012, "pitch": 66, "duration": 13, "velocity": 97}, {"time": 2018, "pitch": 62, "duration": 7, "velocity": 55}, {"time": 2024, "pitch": 40, "duration": 38, "velocity": 92}, {"time": 2030, "pitch": 47, "duration": 32, "velocity": 55}, {"time": 2036, "pitch": 52, "duration": 17, "velocity": 82}, {"time": 2042, "pitch": 55, "duration": 19, "velocity": 85}, {"time": 2048, "pitch": 64, "duration": 24, "velocity": 95}, {"time": 2054, "pitch": 52, "duration": 4, "velocity": 47}, {"time": 2060, "pitch": 59, "duration": 12, "velocity": 93}, {"time": 2066, "pitch": 55, "duration": 6, "velocity": 78}, {"time": 2072, "pitch": 45, "duration": 23, "velocity": 83}, {"time": 2078, "pitch": 52, "duration": 9, "velocity": 63}, {"time": 2084, "pitch": 64, "duration": 11, "velocity": 100}, {"time": 2090, "pitch": 61, "duration": 5, "velocity": 86}, {"time": 2096, "pitch": 45, "duration": 12, "velocity": 93}, {"time": 2102, "pitch": 57, "duration": 6, "velocity": 85}, {"time": 2108, "pitch": 43, "duration": 8, "velocity": 107}, {"time": 2114, "pitch": 55, "duration": 7, "velocity": 86}, {"time": 2120, "pitch": 42, "duration": 18, "velocity": 97}, {"time": 2126, "pitch": 54, "duration": 12, "velocity": 73}, {"time": 2132, "pitch": 66, "duration": 13, "velocity": 102}, {"time": 2138, "pitch": 61, "duration": 7, "velocity": 90}, {"time": 2144, "pitch": 43, "duration": 18, "velocity": 83}, {"time": 2150, "pitch": 50, "duration": 15, "velocity": 56}, {"time": 2156, "pitch": 62, "duration": 11, "velocity": 100}, {"time": 2162, "pitch": 59, "duration": 6, "velocity": 90}, {"time": 2168, "pitch": 45, "duration": 12, "velocity": 88}, {"time": 2174, "pitch": 57, "duration": 7, "velocity": 85}, {"time": 2180, "pitch": 46, "duration": 8, "velocity": 95}, {"time": 2186, "pitch": 58, "duration": 6, "velocity": 107}, {"time": 2192, "pitch": 47, "duration": 16, "velocity": 85}, {"time": 2198, "pitch": 54, "duration": 10, "velocity": 76}, {"time": 2204, "pitch": 66, "duration": 11, "velocity": 112}, {"time": 2210, "pitch": 62, "duration": 6, "velocity": 69}, {"time": 2213, "pitch": 59, "duration": 3, "velocity": 59}, {"time": 2216, "pitch": 40, "duration": 38, "velocity": 95}, {"time": 2222, "pitch": 47, "duration": 33, "velocity": 60}, {"time": 2228, "pitch": 52, "duration": 16, "velocity": 95}, {"time": 2234, "pitch": 59, "duration": 14, "velocity": 83}, {"time": 2240, "pitch": 67, "duration": 24, "velocity": 102}, {"time": 2246, "pitch": 52, "duration": 12, "velocity": 63}, {"time": 2252, "pitch": 64, "duration": 12, "velocity": 97}, {"time": 2258, "pitch": 59, "duration": 7, "velocity": 88}, {"time": 2264, "pitch": 45, "duration": 22, "velocity": 92}, {"time": 2270, "pitch": 52, "duration": 8, "velocity": 90}, {"time": 2276, "pitch": 64, "duration": 11, "velocity": 112}, {"time": 2279, "pitch": 52, "duration": 9, "velocity": 68}, {"time": 2282, "pitch": 61, "duration": 13, "velocity": 107}, {"time": 2285, "pitch": 59, "duration": 3, "velocity": 64}, {"time": 2288, "pitch": 45, "duration": 7, "velocity": 96}, {"time": 2288, "pitch": 57, "duration": 7, "velocity": 70}, {"time": 2288, "pitch": 64, "duration": 7, "velocity": 71}, {"time": 2312, "pitch": 38, "duration": 20, "velocity": 99}, {"time": 2315, "pitch": 45, "duration": 22, "velocity": 93}, {"time": 2318, "pitch": 50, "duration": 7, "velocity": 95}, {"time": 2321, "pitch": 57, "duration": 6, "velocity": 90}, {"time": 2324, "pitch": 66, "duration": 13, "velocity": 127}, {"time": 2327, "pitch": 50, "duration": 3, "velocity": 75}, {"time": 2330, "pitch": 62, "duration": 8, "velocity": 82}, {"time": 2333, "pitch": 57, "duration": 5, "velocity": 92}, {"time": 2336, "pitch": 38, "duration": 17, "velocity": 74}, {"time": 2339, "pitch": 45, "duration": 14, "velocity": 82}, {"time": 2342, "pitch": 50, "duration": 7, "velocity": 88}, {"time": 2345, "pitch": 57, "duration": 5, "velocity": 92}, {"time": 2348, "pitch": 66, "duration": 13, "velocity": 127}, {"time": 2351, "pitch": 50, "duration": 5, "velocity": 89}, {"time": 2354, "pitch": 61, "duration": 5, "velocity": 117}, {"time": 2357, "pitch": 62, "duration": 4, "velocity": 93}, {"time": 2360, "pitch": 47, "duration": 23, "velocity": 93}, {"time": 2363, "pitch": 54, "duration": 11, "velocity": 96}, {"time": 2366, "pitch": 59, "duration": 6, "velocity": 86}, {"time": 2369, "pitch": 61, "duration": 4, "velocity": 112}, {"time": 2372, "pitch": 66, "duration": 12, "velocity": 117}, {"time": 2375, "pitch": 54, "duration": 9, "velocity": 92}, {"time": 2378, "pitch": 62, "duration": 4, "velocity": 86}, {"time": 2381, "pitch": 61, "duration": 3, "velocity": 107}, {"time": 2384, "pitch": 47, "duration": 19, "velocity": 89}, {"time": 2387, "pitch": 54, "duration": 14, "velocity": 90}, {"time": 2390, "pitch": 59, "duration": 7, "velocity": 77}, {"time": 2393, "pitch": 62, "duration": 5, "velocity": 100}, {"time": 2396, "pitch": 71, "duration": 12, "velocity": 127}, {"time": 2399, "pitch": 59, "duration": 2, "velocity": 97}, {"time": 2402, "pitch": 66, "duration": 5, "velocity": 112}, {"time": 2405, "pitch": 62, "duration": 3, "velocity": 90}, {"time": 2408, "pitch": 43, "duration": 19, "velocity": 99}, {"time": 2411, "pitch": 50, "duration": 11, "velocity": 93}, {"time": 2414, "pitch": 55, "duration": 4, "velocity": 89}, {"time": 2417, "pitch": 59, "duration": 4, "velocity": 99}, {"time": 2420, "pitch": 62, "duration": 12, "velocity": 99}, {"time": 2423, "pitch": 50, "duration": 9, "velocity": 97}, {"time": 2426, "pitch": 59, "duration": 6, "velocity": 96}, {"time": 2429, "pitch": 55, "duration": 3, "velocity": 93}, {"time": 2432, "pitch": 45, "duration": 19, "velocity": 95}, {"time": 2435, "pitch": 52, "duration": 11, "velocity": 85}, {"time": 2438, "pitch": 57, "duration": 4, "velocity": 90}, {"time": 2441, "pitch": 64, "duration": 14, "velocity": 93}, {"time": 2444, "pitch": 61, "duration": 7, "velocity": 122}, {"time": 2447, "pitch": 52, "duration": 3, "velocity": 95}, {"time": 2450, "pitch": 57, "duration": 8, "velocity": 95}, {"time": 2453, "pitch": 61, "duration": 3, "velocity": 117}, {"time": 2456, "pitch": 38, "duration": 19, "velocity": 88}, {"time": 2459, "pitch": 45, "duration": 20, "velocity": 93}, {"time": 2462, "pitch": 50, "duration": 7, "velocity": 93}, {"time": 2465, "pitch": 57, "duration": 5, "velocity": 86}, {"time": 2468, "pitch": 66, "duration": 10, "velocity": 127}, {"time": 2471, "pitch": 50, "duration": 3, "velocity": 97}, {"time": 2474, "pitch": 62, "duration": 5, "velocity": 100}, {"time": 2477, "pitch": 57, "duration": 3, "velocity": 112}, {"time": 2480, "pitch": 40, "duration": 12, "velocity": 127}, {"time": 2483, "pitch": 52, "duration": 5, "velocity": 89}, {"time": 2486, "pitch": 59, "duration": 4, "velocity": 99}, {"time": 2489, "pitch": 52, "duration": 3, "velocity": 112}, {"time": 2492, "pitch": 42, "duration": 10, "velocity": 122}, {"time": 2495, "pitch": 54, "duration": 9, "velocity": 100}, {"time": 2504, "pitch": 43, "duration": 20, "velocity": 99}, {"time": 2507, "pitch": 50, "duration": 11, "velocity": 89}, {"time": 2510, "pitch": 55, "duration": 4, "velocity": 83}, {"time": 2513, "pitch": 59, "duration": 4, "velocity": 92}, {"time": 2516, "pitch": 62, "duration": 12, "velocity": 100}, {"time": 2519, "pitch": 50, "duration": 8, "velocity": 88}, {"time": 2522, "pitch": 55, "duration": 5, "velocity": 93}, {"time": 2525, "pitch": 59, "duration": 2, "velocity": 95}, {"time": 2528, "pitch": 43, "duration": 24, "velocity": 90}, {"time": 2531, "pitch": 52, "duration": 18, "velocity": 82}, {"time": 2534, "pitch": 57, "duration": 10, "velocity": 93}, {"time": 2537, "pitch": 61, "duration": 8, "velocity": 127}, {"time": 2540, "pitch": 64, "duration": 13, "velocity": 90}, {"time": 2543, "pitch": 67, "duration": 10, "velocity": 99}, {"time": 2546, "pitch": 57, "duration": 7, "velocity": 97}, {"time": 2549, "pitch": 61, "duration": 3, "velocity": 122}, {"time": 2552, "pitch": 42, "duration": 17, "velocity": 83}, {"time": 2555, "pitch": 49, "duration": 14, "velocity": 34}, {"time": 2558, "pitch": 54, "duration": 7, "velocity": 96}, {"time": 2561, "pitch": 57, "duration": 7, "velocity": 92}, {"time": 2564, "pitch": 66, "duration": 12, "velocity": 112}, {"time": 2567, "pitch": 54, "duration": 4, "velocity": 88}, {"time": 2570, "pitch": 61, "duration": 6, "velocity": 102}, {"time": 2573, "pitch": 57, "duration": 4, "velocity": 95}, {"time": 2576, "pitch": 47, "duration": 17, "velocity": 78}, {"time": 2579, "pitch": 54, "duration": 11, "velocity": 99}, {"time": 2582, "pitch": 59, "duration": 7, "velocity": 83}, {"time": 2585, "pitch": 62, "duration": 4, "velocity": 86}, {"time": 2588, "pitch": 66, "duration": 11, "velocity": 127}, {"time": 2591, "pitch": 54, "duration": 2, "velocity": 99}, {"time": 2594, "pitch": 62, "duration": 5, "velocity": 99}, {"time": 2597, "pitch": 59, "duration": 3, "velocity": 92}, {"time": 2600, "pitch": 40, "duration": 16, "velocity": 93}, {"time": 2603, "pitch": 47, "duration": 13, "velocity": 96}, {"time": 2606, "pitch": 52, "duration": 7, "velocity": 96}, {"time": 2609, "pitch": 55, "duration": 3, "velocity": 92}, {"time": 2612, "pitch": 59, "duration": 6, "velocity": 102}, {"time": 2615, "pitch": 52, "duration": 3, "velocity": 89}, {"time": 2618, "pitch": 55, "duration": 5, "velocity": 96}, {"time": 2621, "pitch": 59, "duration": 3, "velocity": 100}, {"time": 2624, "pitch": 40, "duration": 17, "velocity": 92}, {"time": 2624, "pitch": 64, "duration": 2, "velocity": 97}, {"time": 2624, "pitch": 64, "duration": 2, "velocity": 112}, {"time": 2624, "pitch": 68, "duration": 2, "velocity": 117}, {"time": 2624, "pitch": 68, "duration": 2, "velocity": 127}, {"time": 2624, "pitch": 71, "duration": 2, "velocity": 97}, {"time": 2624, "pitch": 71, "duration": 2, "velocity": 100}, {"time": 2627, "pitch": 47, "duration": 11, "velocity": 99}, {"time": 2630, "pitch": 52, "duration": 7, "velocity": 100}, {"time": 2633, "pitch": 56, "duration": 3, "velocity": 102}, {"time": 2636, "pitch": 59, "duration": 7, "velocity": 112}, {"time": 2639, "pitch": 47, "duration": 3, "velocity": 99}, {"time": 2642, "pitch": 56, "duration": 4, "velocity": 127}, {"time": 2645, "pitch": 59, "duration": 2, "velocity": 90}, {"time": 2648, "pitch": 43, "duration": 7, "velocity": 117}, {"time": 2648, "pitch": 57, "duration": 8, "velocity": 107}, {"time": 2648, "pitch": 61, "duration": 8, "velocity": 117}, {"time": 2648, "pitch": 64, "duration": 8, "velocity": 97}, {"time": 2657, "pitch": 43, "duration": 3, "velocity": 117}, {"time": 2657, "pitch": 57, "duration": 2, "velocity": 97}, {"time": 2657, "pitch": 64, "duration": 1, "velocity": 58}, {"time": 2660, "pitch": 45, "duration": 10, "velocity": 127}, {"time": 2660, "pitch": 57, "duration": 10, "velocity": 107}, {"time": 2660, "pitch": 61, "duration": 10, "velocity": 127}, {"time": 2660, "pitch": 64, "duration": 10, "velocity": 96}, {"time": 2660, "pitch": 67, "duration": 9, "velocity": 96}, {"time": 2672, "pitch": 46, "duration": 5, "velocity": 122}, {"time": 2672, "pitch": 58, "duration": 5, "velocity": 127}, {"time": 2672, "pitch": 62, "duration": 5, "velocity": 97}, {"time": 2672, "pitch": 65, "duration": 5, "velocity": 92}, {"time": 2696, "pitch": 39, "duration": 22, "velocity": 95}, {"time": 2696, "pitch": 39, "duration": 22, "velocity": 83}, {"time": 2699, "pitch": 51, "duration": 10, "velocity": 97}, {"time": 2699, "pitch": 46, "duration": 28, "velocity": 38}, {"time": 2702, "pitch": 55, "duration": 8, "velocity": 73}, {"time": 2702, "pitch": 51, "duration": 7, "velocity": 97}, {"time": 2705, "pitch": 58, "duration": 3, "velocity": 112}, {"time": 2705, "pitch": 55, "duration": 5, "velocity": 89}, {"time": 2708, "pitch": 63, "duration": 14, "velocity": 127}, {"time": 2711, "pitch": 51, "duration": 6, "velocity": 99}, {"time": 2711, "pitch": 51, "duration": 6, "velocity": 97}, {"time": 2714, "pitch": 58, "duration": 5, "velocity": 117}, {"time": 2717, "pitch": 55, "duration": 4, "velocity": 97}, {"time": 2717, "pitch": 55, "duration": 4, "velocity": 88}, {"time": 2720, "pitch": 39, "duration": 8, "velocity": 78}, {"time": 2720, "pitch": 51, "duration": 1, "velocity": 97}, {"time": 2723, "pitch": 51, "duration": 4, "velocity": 96}, {"time": 2723, "pitch": 58, "duration": 3, "velocity": 127}, {"time": 2726, "pitch": 55, "duration": 5, "velocity": 85}, {"time": 2726, "pitch": 55, "duration": 5, "velocity": 93}, {"time": 2729, "pitch": 58, "duration": 2, "velocity": 117}, {"time": 2729, "pitch": 58, "duration": 2, "velocity": 92}, {"time": 2732, "pitch": 63, "duration": 11, "velocity": 127}, {"time": 2732, "pitch": 43, "duration": 11, "velocity": 88}, {"time": 2732, "pitch": 55, "duration": 1, "velocity": 102}, {"time": 2732, "pitch": 59, "duration": 11, "velocity": 100}, {"time": 2732, "pitch": 62, "duration": 11, "velocity": 100}, {"time": 2735, "pitch": 51, "duration": 3, "velocity": 112}, {"time": 2738, "pitch": 55, "duration": 4, "velocity": 102}, {"time": 2741, "pitch": 58, "duration": 2, "velocity": 127}, {"time": 2744, "pitch": 48, "duration": 1, "velocity": 97}, {"time": 2744, "pitch": 36, "duration": 22, "velocity": 95}, {"time": 2747, "pitch": 43, "duration": 19, "velocity": 89}, {"time": 2750, "pitch": 48, "duration": 7, "velocity": 95}, {"time": 2753, "pitch": 60, "duration": 3, "velocity": 93}, {"time": 2756, "pitch": 60, "duration": 3, "velocity": 38}, {"time": 2756, "pitch": 67, "duration": 7, "velocity": 127}, {"time": 2759, "pitch": 48, "duration": 7, "velocity": 97}, {"time": 2762, "pitch": 60, "duration": 5, "velocity": 100}, {"time": 2765, "pitch": 67, "duration": 2, "velocity": 97}, {"time": 2768, "pitch": 36, "duration": 8, "velocity": 86}, {"time": 2768, "pitch": 43, "duration": 12, "velocity": 73}, {"time": 2768, "pitch": 48, "duration": 10, "velocity": 117}, {"time": 2768, "pitch": 60, "duration": 5, "velocity": 100}, {"time": 2768, "pitch": 67, "duration": 5, "velocity": 127}, {"time": 2774, "pitch": 60, "duration": 6, "velocity": 112}, {"time": 2774, "pitch": 67, "duration": 2, "velocity": 68}, {"time": 2780, "pitch": 37, "duration": 12, "velocity": 102}, {"time": 2780, "pitch": 61, "duration": 12, "velocity": 127}, {"time": 2792, "pitch": 44, "duration": 19, "velocity": 99}, {"time": 2795, "pitch": 51, "duration": 11, "velocity": 93}, {"time": 2798, "pitch": 56, "duration": 4, "velocity": 89}, {"time": 2801, "pitch": 60, "duration": 4, "velocity": 99}, {"time": 2804, "pitch": 63, "duration": 12, "velocity": 99}, {"time": 2807, "pitch": 51, "duration": 9, "velocity": 97}, {"time": 2810, "pitch": 60, "duration": 6, "velocity": 96}, {"time": 2813, "pitch": 56, "duration": 3, "velocity": 93}, {"time": 2816, "pitch": 46, "duration": 19, "velocity": 95}, {"time": 2819, "pitch": 53, "duration": 11, "velocity": 85}, {"time": 2822, "pitch": 58, "duration": 4, "velocity": 90}, {"time": 2825, "pitch": 65, "duration": 14, "velocity": 93}, {"time": 2828, "pitch": 62, "duration": 7, "velocity": 122}, {"time": 2831, "pitch": 53, "duration": 3, "velocity": 95}, {"time": 2834, "pitch": 58, "duration": 8, "velocity": 95}, {"time": 2837, "pitch": 62, "duration": 3, "velocity": 117}, {"time": 2840, "pitch": 37, "duration": 18, "velocity": 99}, {"time": 2840, "pitch": 61, "duration": 11, "velocity": 117}, {"time": 2840, "pitch": 65, "duration": 7, "velocity": 100}, {"time": 2840, "pitch": 68, "duration": 7, "velocity": 107}, {"time": 2846, "pitch": 49, "duration": 7, "velocity": 90}, {"time": 2852, "pitch": 61, "duration": 2, "velocity": 95}, {"time": 2852, "pitch": 65, "duration": 6, "velocity": 97}, {"time": 2852, "pitch": 68, "duration": 7, "velocity": 117}, {"time": 2855, "pitch": 49, "duration": 5, "velocity": 100}, {"time": 2858, "pitch": 61, "duration": 4, "velocity": 112}, {"time": 2861, "pitch": 63, "duration": 4, "velocity": 117}, {"time": 2864, "pitch": 39, "duration": 21, "velocity": 107}, {"time": 2867, "pitch": 51, "duration": 10, "velocity": 107}, {"time": 2870, "pitch": 63, "duration": 9, "velocity": 107}, {"time": 2873, "pitch": 70, "duration": 2, "velocity": 117}, {"time": 2876, "pitch": 70, "duration": 11, "velocity": 127}, {"time": 2879, "pitch": 51, "duration": 4, "velocity": 102}, {"time": 2882, "pitch": 63, "duration": 4, "velocity": 102}, {"time": 2888, "pitch": 44, "duration": 20, "velocity": 99}, {"time": 2891, "pitch": 51, "duration": 11, "velocity": 89}, {"time": 2894, "pitch": 56, "duration": 4, "velocity": 83}, {"time": 2897, "pitch": 60, "duration": 4, "velocity": 92}, {"time": 2900, "pitch": 63, "duration": 12, "velocity": 100}, {"time": 2903, "pitch": 51, "duration": 8, "velocity": 88}, {"time": 2906, "pitch": 56, "duration": 5, "velocity": 93}, {"time": 2909, "pitch": 60, "duration": 2, "velocity": 95}, {"time": 2912, "pitch": 44, "duration": 24, "velocity": 90}, {"time": 2915, "pitch": 53, "duration": 18, "velocity": 82}, {"time": 2918, "pitch": 58, "duration": 10, "velocity": 93}, {"time": 2921, "pitch": 62, "duration": 8, "velocity": 127}, {"time": 2924, "pitch": 65, "duration": 13, "velocity": 90}, {"time": 2927, "pitch": 68, "duration": 10, "velocity": 99}, {"time": 2930, "pitch": 58, "duration": 7, "velocity": 97}, {"time": 2933, "pitch": 62, "duration": 3, "velocity": 122}, {"time": 2936, "pitch": 43, "duration": 17, "velocity": 83}, {"time": 2939, "pitch": 50, "duration": 14, "velocity": 34}, {"time": 2942, "pitch": 55, "duration": 7, "velocity": 96}, {"time": 2945, "pitch": 58, "duration": 7, "velocity": 92}, {"time": 2948, "pitch": 67, "duration": 12, "velocity": 112}, {"time": 2951, "pitch": 55, "duration": 4, "velocity": 88}, {"time": 2954, "pitch": 62, "duration": 6, "velocity": 102}, {"time": 2957, "pitch": 58, "duration": 4, "velocity": 95}, {"time": 2960, "pitch": 48, "duration": 17, "velocity": 78}, {"time": 2963, "pitch": 55, "duration": 11, "velocity": 99}, {"time": 2966, "pitch": 60, "duration": 7, "velocity": 83}, {"time": 2969, "pitch": 63, "duration": 4, "velocity": 86}, {"time": 2972, "pitch": 67, "duration": 11, "velocity": 127}, {"time": 2975, "pitch": 55, "duration": 2, "velocity": 99}, {"time": 2978, "pitch": 63, "duration": 5, "velocity": 99}, {"time": 2981, "pitch": 60, "duration": 4, "velocity": 92}, {"time": 2984, "pitch": 41, "duration": 22, "velocity": 75}, {"time": 2987, "pitch": 48, "duration": 21, "velocity": 72}, {"time": 2990, "pitch": 53, "duration": 7, "velocity": 89}, {"time": 2993, "pitch": 60, "duration": 4, "velocity": 90}, {"time": 2996, "pitch": 68, "duration": 10, "velocity": 127}, {"time": 2999, "pitch": 53, "duration": 3, "velocity": 95}, {"time": 3002, "pitch": 65, "duration": 4, "velocity": 97}, {"time": 3005, "pitch": 60, "duration": 3, "velocity": 88}, {"time": 3008, "pitch": 46, "duration": 19, "velocity": 107}, {"time": 3011, "pitch": 53, "duration": 15, "velocity": 71}, {"time": 3014, "pitch": 58, "duration": 3, "velocity": 117}, {"time": 3017, "pitch": 62, "duration": 4, "velocity": 69}, {"time": 3020, "pitch": 65, "duration": 12, "velocity": 95}, {"time": 3023, "pitch": 62, "duration": 9, "velocity": 59}, {"time": 3026, "pitch": 58, "duration": 6, "velocity": 86}, {"time": 3032, "pitch": 39, "duration": 24, "velocity": 90}, {"time": 3035, "pitch": 46, "duration": 20, "velocity": 47}, {"time": 3038, "pitch": 51, "duration": 7, "velocity": 93}, {"time": 3041, "pitch": 55, "duration": 5, "velocity": 57}, {"time": 3044, "pitch": 63, "duration": 12, "velocity": 117}, {"time": 3047, "pitch": 51, "duration": 8, "velocity": 75}, {"time": 3050, "pitch": 58, "duration": 6, "velocity": 89}, {"time": 3053, "pitch": 55, "duration": 3, "velocity": 67}, {"time": 3056, "pitch": 36, "duration": 15, "velocity": 57}, {"time": 3059, "pitch": 43, "duration": 16, "velocity": 62}, {"time": 3062, "pitch": 48, "duration": 13, "velocity": 86}, {"time": 3065, "pitch": 55, "duration": 10, "velocity": 63}, {"time": 3068, "pitch": 63, "duration": 12, "velocity": 107}, {"time": 3074, "pitch": 60, "duration": 6, "velocity": 66}, {"time": 3080, "pitch": 63, "duration": 11, "velocity": 70}, {"time": 3080, "pitch": 44, "duration": 18, "velocity": 81}, {"time": 3080, "pitch": 68, "duration": 9, "velocity": 69}, {"time": 3086, "pitch": 51, "duration": 13, "velocity": 35}, {"time": 3092, "pitch": 68, "duration": 13, "velocity": 97}, {"time": 3092, "pitch": 56, "duration": 7, "velocity": 72}, {"time": 3098, "pitch": 63, "duration": 7, "velocity": 72}, {"time": 3104, "pitch": 46, "duration": 19, "velocity": 79}, {"time": 3110, "pitch": 53, "duration": 12, "velocity": 50}, {"time": 3116, "pitch": 58, "duration": 5, "velocity": 89}, {"time": 3116, "pitch": 65, "duration": 11, "velocity": 92}, {"time": 3122, "pitch": 62, "duration": 5, "velocity": 79}, {"time": 3128, "pitch": 43, "duration": 15, "velocity": 71}, {"time": 3134, "pitch": 55, "duration": 19, "velocity": 71}, {"time": 3140, "pitch": 62, "duration": 13, "velocity": 93}, {"time": 3146, "pitch": 58, "duration": 6, "velocity": 77}, {"time": 3152, "pitch": 36, "duration": 14, "velocity": 76}, {"time": 3158, "pitch": 43, "duration": 8, "velocity": 65}, {"time": 3164, "pitch": 63, "duration": 12, "velocity": 117}, {"time": 3170, "pitch": 60, "duration": 6, "velocity": 93}, {"time": 3175, "pitch": 41, "duration": 15, "velocity": 79}, {"time": 3182, "pitch": 48, "duration": 7, "velocity": 57}, {"time": 3188, "pitch": 60, "duration": 13, "velocity": 99}, {"time": 3194, "pitch": 56, "duration": 7, "velocity": 61}, {"time": 3201, "pitch": 34, "duration": 49, "velocity": 95}, {"time": 3208, "pitch": 46, "duration": 42, "velocity": 67}, {"time": 3215, "pitch": 62, "duration": 35, "velocity": 89}, {"time": 3223, "pitch": 58, "duration": 26, "velocity": 63}, {"time": 3232, "pitch": 53, "duration": 18, "velocity": 24}, {"time": 3248, "pitch": 63, "duration": 16, "velocity": 63}, {"time": 3248, "pitch": 51, "duration": 19, "velocity": 81}, {"time": 3248, "pitch": 70, "duration": 19, "velocity": 66}, {"time": 3248, "pitch": 67, "duration": 19, "velocity": 56}, {"time": 3254, "pitch": 55, "duration": 13, "velocity": 47}, {"time": 3260, "pitch": 58, "duration": 6, "velocity": 88}, {"time": 3266, "pitch": 63, "duration": 2, "velocity": 61}, {"time": 3272, "pitch": 72, "duration": 15, "velocity": 69}, {"time": 3272, "pitch": 65, "duration": 16, "velocity": 56}, {"time": 3272, "pitch": 69, "duration": 16, "velocity": 55}, {"time": 3272, "pitch": 62, "duration": 9, "velocity": 48}, {"time": 3272, "pitch": 50, "duration": 15, "velocity": 57}, {"time": 3289, "pitch": 62, "duration": 2, "velocity": 68}, {"time": 3295, "pitch": 58, "duration": 14, "velocity": 71}, {"time": 3295, "pitch": 62, "duration": 20, "velocity": 66}, {"time": 3295, "pitch": 43, "duration": 18, "velocity": 67}, {"time": 3302, "pitch": 50, "duration": 10, "velocity": 46}, {"time": 3308, "pitch": 55, "duration": 7, "velocity": 66}, {"time": 3314, "pitch": 58, "duration": 1, "velocity": 66}, {"time": 3319, "pitch": 58, "duration": 5, "velocity": 81}, {"time": 3319, "pitch": 42, "duration": 11, "velocity": 86}, {"time": 3319, "pitch": 61, "duration": 5, "velocity": 70}, {"time": 3331, "pitch": 56, "duration": 10, "velocity": 53}, {"time": 3331, "pitch": 60, "duration": 10, "velocity": 69}, {"time": 3332, "pitch": 44, "duration": 9, "velocity": 52}, {"time": 3332, "pitch": 63, "duration": 10, "velocity": 50}, {"time": 3353, "pitch": 64, "duration": 8, "velocity": 40}, {"time": 3353, "pitch": 67, "duration": 7, "velocity": 39}, {"time": 3354, "pitch": 60, "duration": 6, "velocity": 66}, {"time": 3356, "pitch": 55, "duration": 5, "velocity": 56}, {"time": 3356, "pitch": 36, "duration": 57, "velocity": 78}, {"time": 3363, "pitch": 43, "duration": 49, "velocity": 57}, {"time": 3366, "pitch": 48, "duration": 45, "velocity": 60}, {"time": 3368, "pitch": 52, "duration": 3, "velocity": 63}, {"time": 3371, "pitch": 55, "duration": 1, "velocity": 67}, {"time": 3373, "pitch": 60, "duration": 4, "velocity": 75}, {"time": 3376, "pitch": 64, "duration": 3, "velocity": 79}, {"time": 3379, "pitch": 67, "duration": 1, "velocity": 57}, {"time": 3382, "pitch": 72, "duration": 4, "velocity": 69}, {"time": 3385, "pitch": 76, "duration": 3, "velocity": 66}, {"time": 3388, "pitch": 79, "duration": 1, "velocity": 62}, {"time": 3391, "pitch": 84, "duration": 21, "velocity": 72}, {"time": 3395, "pitch": 88, "duration": 17, "velocity": 59}, {"time": 3399, "pitch": 91, "duration": 13, "velocity": 63}, {"time": 3404, "pitch": 96, "duration": 8, "velocity": 65}], "annotations": [{"time": 8, "annotation": {"number": 64, "value": 127}, "group": "control_change"}, {"time": 32, "annotation": {"number": 64, "value": 0}, "group": "control_change"}, {"time": 36, "annotation": {"number": 64, "value": 127}, "group": "control_change"}, {"time": 54, "annotation": {"number": 64, "value": 0}, "group": "control_change"}, {"time": 57, "annotation": {"number": 64, "value": 127}, "group": "control_change"}, {"time": 78, "annotation": {"number": 64, "value": 0}, "group": "control_change"}, {"time": 80, "annotation": {"number": 64, "value": 127}, "group": "control_change"}, {"time": 102, "annotation": {"number": 64, "value": 0}, "group": "control_change"}, {"time": 104, "annotation": {"number": 64, "value": 127}, "group": "control_change"}, {"time": 114, "annotation": {"number": 64, "value": 0}, "group": "control_change"}, {"time": 128, "annotation": {"number": 64, "value": 127}, "group": "control_change"}, {"time": 138, "annotation": {"number": 64, "value": 0}, "group": "control_change"}, {"time": 141, "annotation": {"number": 64, "value": 127}, "group": "control_change"}, {"time": 150, "annotation": {"number": 64, "value": 0}, "group": "control_change"}, {"time": 154, "annotation": {"number": 64, "value": 127}, "group": "control_change"}, {"time": 197, "annotation": {"number": 64, "value": 0}, "group": "control_change"}, {"time": 200, "annotation": {"number": 64, "value": 127}, "group": "control_change"}, {"time": 216, "annotation": {"number": 64, "value": 0}, "group": "control_change"}, {"time": 237, "annotation": {"number": 64, "value": 127}, "group": "control_change"}, {"time": 244, "annotation": {"number": 64, "value": 0}, "group": "control_change"}, {"time": 249, "annotation": {"number": 64, "value": 127}, "group": "control_change"}, {"time": 271, "annotation": {"number": 64, "value": 0}, "group": "control_change"}, {"time": 272, "annotation": {"number": 64, "value": 127}, "group": "control_change"}, {"time": 295, "annotation": {"number": 64, "value": 0}, "group": "control_change"}, {"time": 300, "annotation": {"number": 64, "value": 127}, "group": "control_change"}, {"time": 318, "annotation": {"number": 64, "value": 0}, "group": "control_change"}, {"time": 322, "annotation": {"number": 64, "value": 127}, "group": "control_change"}, {"time": 330, "annotation": {"number": 64, "value": 0}, "group": "control_change"}, {"time": 346, "annotation": {"number": 64, "value": 127}, "group": "control_change"}, {"time": 365, "annotation": {"number": 64, "value": 0}, "group": "control_change"}, {"time": 369, "annotation": {"number": 64, "value": 127}, "group": "control_change"}, {"time": 389, "annotation": {"number": 64, "value": 0}, "group": "control_change"}, {"time": 393, "annotation": {"number": 64, "value": 127}, "group": "control_change"}, {"time": 414, "annotation": {"number": 64, "value": 0}, "group": "control_change"}, {"time": 417, "annotation": {"number": 64, "value": 127}, "group": "control_change"}, {"time": 437, "annotation": {"number": 64, "value": 0}, "group": "control_change"}, {"time": 441, "annotation": {"number": 64, "value": 127}, "group": "control_change"}, {"time": 461, "annotation": {"number": 64, "value": 0}, "group": "control_change"}, {"time": 465, "annotation": {"number": 64, "value": 127}, "group": "control_change"}, {"time": 485, "annotation": {"number": 64, "value": 0}, "group": "control_change"}, {"time": 489, "annotation": {"number": 64, "value": 127}, "group": "control_change"}, {"time": 498, "annotation": {"number": 64, "value": 0}, "group": "control_change"}, {"time": 512, "annotation": {"number": 64, "value": 127}, "group": "control_change"}, {"time": 533, "annotation": {"number": 64, "value": 0}, "group": "control_change"}, {"time": 537, "annotation": {"number": 64, "value": 127}, "group": "control_change"}, {"time": 557, "annotation": {"number": 64, "value": 0}, "group": "control_change"}, {"time": 561, "annotation": {"number": 64, "value": 127}, "group": "control_change"}, {"time": 580, "annotation": {"number": 64, "value": 0}, "group": "control_change"}, {"time": 584, "annotation": {"number": 64, "value": 127}, "group": "control_change"}, {"time": 600, "annotation": {"number": 64, "value": 0}, "group": "control_change"}, {"time": 620, "annotation": {"number": 64, "value": 127}, "group": "control_change"}, {"time": 626, "annotation": {"number": 64, "value": 0}, "group": "control_change"}, {"time": 632, "annotation": {"number": 64, "value": 127}, "group": "control_change"}, {"time": 652, "annotation": {"number": 64, "value": 0}, "group": "control_change"}, {"time": 657, "annotation": {"number": 64, "value": 127}, "group": "control_change"}, {"time": 677, "annotation": {"number": 64, "value": 0}, "group": "control_change"}, {"time": 681, "annotation": {"number": 64, "value": 127}, "group": "control_change"}, {"time": 691, "annotation": {"number": 64, "value": 0}, "group": "control_change"}, {"time": 705, "annotation": {"number": 64, "value": 127}, "group": "control_change"}, {"time": 725, "annotation": {"number": 64, "value": 0}, "group": "control_change"}, {"time": 728, "annotation": {"number": 64, "value": 127}, "group": "control_change"}, {"time": 750, "annotation": {"number": 64, "value": 0}, "group": "control_change"}, {"time": 752, "annotation": {"number": 64, "value": 127}, "group": "control_change"}, {"time": 770, "annotation": {"number": 64, "value": 0}, "group": "control_change"}, {"time": 777, "annotation": {"number": 64, "value": 127}, "group": "control_change"}, {"time": 785, "annotation": {"number": 64, "value": 0}, "group": "control_change"}, {"time": 801, "annotation": {"number": 64, "value": 127}, "group": "control_change"}, {"time": 810, "annotation": {"number": 64, "value": 0}, "group": "control_change"}, {"time": 825, "annotation": {"number": 64, "value": 127}, "group": "control_change"}, {"time": 846, "annotation": {"number": 64, "value": 0}, "group": "control_change"}, {"time": 850, "annotation": {"number": 64, "value": 127}, "group": "control_change"}, {"time": 870, "annotation": {"number": 64, "value": 0}, "group": "control_change"}, {"time": 873, "annotation": {"number": 64, "value": 127}, "group": "control_change"}, {"time": 881, "annotation": {"number": 64, "value": 0}, "group": "control_change"}, {"time": 896, "annotation": {"number": 64, "value": 127}, "group": "control_change"}, {"time": 918, "annotation": {"number": 64, "value": 0}, "group": "control_change"}, {"time": 920, "annotation": {"number": 64, "value": 127}, "group": "control_change"}, {"time": 964, "annotation": {"number": 64, "value": 0}, "group": "control_change"}, {"time": 969, "annotation": {"number": 64, "value": 127}, "group": "control_change"}, {"time": 989, "annotation": {"number": 64, "value": 0}, "group": "control_change"}, {"time": 1016, "annotation": {"number": 64, "value": 127}, "group": "control_change"}, {"time": 1037, "annotation": {"number": 64, "value": 0}, "group": "control_change"}, {"time": 1040, "annotation": {"number": 64, "value": 127}, "group": "control_change"}, {"time": 1054, "annotation": {"number": 64, "value": 0}, "group": "control_change"}, {"time": 1064, "annotation": {"number": 64, "value": 127}, "group": "control_change"}, {"time": 1084, "annotation": {"number": 64, "value": 0}, "group": "control_change"}, {"time": 1088, "annotation": {"number": 64, "value": 127}, "group": "control_change"}, {"time": 1108, "annotation": {"number": 64, "value": 0}, "group": "control_change"}, {"time": 1113, "annotation": {"number": 64, "value": 127}, "group": "control_change"}, {"time": 1133, "annotation": {"number": 64, "value": 0}, "group": "control_change"}, {"time": 1137, "annotation": {"number": 64, "value": 127}, "group": "control_change"}, {"time": 1158, "annotation": {"number": 64, "value": 0}, "group": "control_change"}, {"time": 1161, "annotation": {"number": 64, "value": 127}, "group": "control_change"}, {"time": 1182, "annotation": {"number": 64, "value": 0}, "group": "control_change"}, {"time": 1185, "annotation": {"number": 64, "value": 127}, "group": "control_change"}, {"time": 1190, "annotation": {"number": 64, "value": 0}, "group": "control_change"}, {"time": 1201, "annotation": {"number": 64, "value": 127}, "group": "control_change"}, {"time": 1204, "annotation": {"number": 64, "value": 0}, "group": "control_change"}, {"time": 1209, "annotation": {"number": 64, "value": 127}, "group": "control_change"}, {"time": 1229, "annotation": {"number": 64, "value": 0}, "group": "control_change"}, {"time": 1232, "annotation": {"number": 64, "value": 127}, "group": "control_change"}, {"time": 1253, "annotation": {"number": 64, "value": 0}, "group": "control_change"}, {"time": 1257, "annotation": {"number": 64, "value": 127}, "group": "control_change"}, {"time": 1277, "annotation": {"number": 64, "value": 0}, "group": "control_change"}, {"time": 1281, "annotation": {"number": 64, "value": 127}, "group": "control_change"}, {"time": 1301, "annotation": {"number": 64, "value": 0}, "group": "control_change"}, {"time": 1304, "annotation": {"number": 64, "value": 127}, "group": "control_change"}, {"time": 1325, "annotation": {"number": 64, "value": 0}, "group": "control_change"}, {"time": 1328, "annotation": {"number": 64, "value": 127}, "group": "control_change"}, {"time": 1349, "annotation": {"number": 64, "value": 0}, "group": "control_change"}, {"time": 1353, "annotation": {"number": 64, "value": 127}, "group": "control_change"}, {"time": 1373, "annotation": {"number": 64, "value": 0}, "group": "control_change"}, {"time": 1377, "annotation": {"number": 64, "value": 127}, "group": "control_change"}, {"time": 1396, "annotation": {"number": 64, "value": 0}, "group": "control_change"}, {"time": 1400, "annotation": {"number": 64, "value": 127}, "group": "control_change"}, {"time": 1420, "annotation": {"number": 64, "value": 0}, "group": "control_change"}, {"time": 1424, "annotation": {"number": 64, "value": 127}, "group": "control_change"}, {"time": 1443, "annotation": {"number": 64, "value": 0}, "group": "control_change"}, {"time": 1448, "annotation": {"number": 64, "value": 127}, "group": "control_change"}, {"time": 1469, "annotation": {"number": 64, "value": 0}, "group": "control_change"}, {"time": 1472, "annotation": {"number": 64, "value": 127}, "group": "control_change"}, {"time": 1486, "annotation": {"number": 64, "value": 0}, "group": "control_change"}, {"time": 1486, "annotation": {"number": 64, "value": 127}, "group": "control_change"}, {"time": 1496, "annotation": {"number": 64, "value": 127}, "group": "control_change"}, {"time": 1499, "annotation": {"number": 64, "value": 0}, "group": "control_change"}, {"time": 1523, "annotation": {"number": 64, "value": 127}, "group": "control_change"}, {"time": 1527, "annotation": {"number": 64, "value": 0}, "group": "control_change"}, {"time": 1544, "annotation": {"number": 64, "value": 127}, "group": "control_change"}, {"time": 1564, "annotation": {"number": 64, "value": 0}, "group": "control_change"}, {"time": 1569, "annotation": {"number": 64, "value": 127}, "group": "control_change"}, {"time": 1579, "annotation": {"number": 64, "value": 0}, "group": "control_change"}, {"time": 1592, "annotation": {"number": 64, "value": 127}, "group": "control_change"}, {"time": 1604, "annotation": {"number": 64, "value": 0}, "group": "control_change"}, {"time": 1606, "annotation": {"number": 64, "value": 127}, "group": "control_change"}, {"time": 1612, "annotation": {"number": 64, "value": 0}, "group": "control_change"}, {"time": 1616, "annotation": {"number": 64, "value": 127}, "group": "control_change"}, {"time": 1638, "annotation": {"number": 64, "value": 0}, "group": "control_change"}, {"time": 1641, "annotation": {"number": 64, "value": 127}, "group": "control_change"}, {"time": 1661, "annotation": {"number": 64, "value": 0}, "group": "control_change"}, {"time": 1664, "annotation": {"number": 64, "value": 127}, "group": "control_change"}, {"time": 1685, "annotation": {"number": 64, "value": 0}, "group": "control_change"}, {"time": 1688, "annotation": {"number": 64, "value": 127}, "group": "control_change"}, {"time": 1708, "annotation": {"number": 64, "value": 0}, "group": "control_change"}, {"time": 1712, "annotation": {"number": 64, "value": 127}, "group": "control_change"}, {"time": 1733, "annotation": {"number": 64, "value": 0}, "group": "control_change"}, {"time": 1737, "annotation": {"number": 64, "value": 127}, "group": "control_change"}, {"time": 1757, "annotation": {"number": 64, "value": 0}, "group": "control_change"}, {"time": 1761, "annotation": {"number": 64, "value": 127}, "group": "control_change"}, {"time": 1780, "annotation": {"number": 64, "value": 0}, "group": "control_change"}, {"time": 1785, "annotation": {"number": 64, "value": 127}, "group": "control_change"}, {"time": 1804, "annotation": {"number": 64, "value": 0}, "group": "control_change"}, {"time": 1808, "annotation": {"number": 64, "value": 127}, "group": "control_change"}, {"time": 1829, "annotation": {"number": 64, "value": 0}, "group": "control_change"}, {"time": 1832, "annotation": {"number": 64, "value": 127}, "group": "control_change"}, {"time": 1853, "annotation": {"number": 64, "value": 0}, "group": "control_change"}, {"time": 1857, "annotation": {"number": 64, "value": 127}, "group": "control_change"}, {"time": 1877, "annotation": {"number": 64, "value": 0}, "group": "control_change"}, {"time": 1880, "annotation": {"number": 64, "value": 127}, "group": "control_change"}, {"time": 1896, "annotation": {"number": 64, "value": 0}, "group": "control_change"}, {"time": 1948, "annotation": {"number": 64, "value": 0}, "group": "control_change"}, {"time": 1953, "annotation": {"number": 64, "value": 127}, "group": "control_change"}, {"time": 1973, "annotation": {"number": 64, "value": 0}, "group": "control_change"}, {"time": 1977, "annotation": {"number": 64, "value": 127}, "group": "control_change"}, {"time": 1987, "annotation": {"number": 64, "value": 0}, "group": "control_change"}, {"time": 2001, "annotation": {"number": 64, "value": 127}, "group": "control_change"}, {"time": 2021, "annotation": {"number": 64, "value": 0}, "group": "control_change"}, {"time": 2024, "annotation": {"number": 64, "value": 127}, "group": "control_change"}, {"time": 2046, "annotation": {"number": 64, "value": 0}, "group": "control_change"}, {"time": 2048, "annotation": {"number": 64, "value": 127}, "group": "control_change"}, {"time": 2066, "annotation": {"number": 64, "value": 0}, "group": "control_change"}, {"time": 2073, "annotation": {"number": 64, "value": 127}, "group": "control_change"}, {"time": 2081, "annotation": {"number": 64, "value": 0}, "group": "control_change"}, {"time": 2097, "annotation": {"number": 64, "value": 127}, "group": "control_change"}, {"time": 2106, "annotation": {"number": 64, "value": 0}, "group": "control_change"}, {"time": 2121, "annotation": {"number": 64, "value": 127}, "group": "control_change"}, {"time": 2142, "annotation": {"number": 64, "value": 0}, "group": "control_change"}, {"time": 2146, "annotation": {"number": 64, "value": 127}, "group": "control_change"}, {"time": 2166, "annotation": {"number": 64, "value": 0}, "group": "control_change"}, {"time": 2169, "annotation": {"number": 64, "value": 127}, "group": "control_change"}, {"time": 2177, "annotation": {"number": 64, "value": 0}, "group": "control_change"}, {"time": 2192, "annotation": {"number": 64, "value": 127}, "group": "control_change"}, {"time": 2214, "annotation": {"number": 64, "value": 0}, "group": "control_change"}, {"time": 2216, "annotation": {"number": 64, "value": 127}, "group": "control_change"}, {"time": 2260, "annotation": {"number": 64, "value": 0}, "group": "control_change"}, {"time": 2265, "annotation": {"number": 64, "value": 127}, "group": "control_change"}, {"time": 2285, "annotation": {"number": 64, "value": 0}, "group": "control_change"}, {"time": 2312, "annotation": {"number": 64, "value": 127}, "group": "control_change"}, {"time": 2333, "annotation": {"number": 64, "value": 0}, "group": "control_change"}, {"time": 2336, "annotation": {"number": 64, "value": 127}, "group": "control_change"}, {"time": 2350, "annotation": {"number": 64, "value": 0}, "group": "control_change"}, {"time": 2360, "annotation": {"number": 64, "value": 127}, "group": "control_change"}, {"time": 2380, "annotation": {"number": 64, "value": 0}, "group": "control_change"}, {"time": 2384, "annotation": {"number": 64, "value": 127}, "group": "control_change"}, {"time": 2404, "annotation": {"number": 64, "value": 0}, "group": "control_change"}, {"time": 2409, "annotation": {"number": 64, "value": 127}, "group": "control_change"}, {"time": 2429, "annotation": {"number": 64, "value": 0}, "group": "control_change"}, {"time": 2433, "annotation": {"number": 64, "value": 127}, "group": "control_change"}, {"time": 2454, "annotation": {"number": 64, "value": 0}, "group": "control_change"}, {"time": 2457, "annotation": {"number": 64, "value": 127}, "group": "control_change"}, {"time": 2478, "annotation": {"number": 64, "value": 0}, "group": "control_change"}, {"time": 2481, "annotation": {"number": 64, "value": 127}, "group": "control_change"}, {"time": 2486, "annotation": {"number": 64, "value": 0}, "group": "control_change"}, {"time": 2497, "annotation": {"number": 64, "value": 127}, "group": "control_change"}, {"time": 2500, "annotation": {"number": 64, "value": 0}, "group": "control_change"}, {"time": 2505, "annotation": {"number": 64, "value": 127}, "group": "control_change"}, {"time": 2525, "annotation": {"number": 64, "value": 0}, "group": "control_change"}, {"time": 2528, "annotation": {"number": 64, "value": 127}, "group": "control_change"}, {"time": 2549, "annotation": {"number": 64, "value": 0}, "group": "control_change"}, {"time": 2553, "annotation": {"number": 64, "value": 127}, "group": "control_change"}, {"time": 2573, "annotation": {"number": 64, "value": 0}, "group": "control_change"}, {"time": 2577, "annotation": {"number": 64, "value": 127}, "group": "control_change"}, {"time": 2597, "annotation": {"number": 64, "value": 0}, "group": "control_change"}, {"time": 2600, "annotation": {"number": 64, "value": 127}, "group": "control_change"}, {"time": 2606, "annotation": {"number": 64, "value": 127}, "group": "control_change"}, {"time": 2621, "annotation": {"number": 64, "value": 0}, "group": "control_change"}, {"time": 2624, "annotation": {"number": 64, "value": 127}, "group": "control_change"}, {"time": 2645, "annotation": {"number": 64, "value": 0}, "group": "control_change"}, {"time": 2648, "annotation": {"number": 64, "value": 127}, "group": "control_change"}, {"time": 2654, "annotation": {"number": 64, "value": 0}, "group": "control_change"}, {"time": 2671, "annotation": {"number": 64, "value": 127}, "group": "control_change"}, {"time": 2674, "annotation": {"number": 64, "value": 0}, "group": "control_change"}, {"time": 2696, "annotation": {"number": 64, "value": 127}, "group": "control_change"}, {"time": 2697, "annotation": {"number": 64, "value": 127}, "group": "control_change"}, {"time": 2701, "annotation": {"number": 64, "value": 0}, "group": "control_change"}, {"time": 2702, "annotation": {"number": 64, "value": 127}, "group": "control_change"}, {"time": 2717, "annotation": {"number": 64, "value": 0}, "group": "control_change"}, {"time": 2730, "annotation": {"number": 64, "value": 127}, "group": "control_change"}, {"time": 2731, "annotation": {"number": 64, "value": 0}, "group": "control_change"}, {"time": 2741, "annotation": {"number": 64, "value": 0}, "group": "control_change"}, {"time": 2744, "annotation": {"number": 64, "value": 127}, "group": "control_change"}, {"time": 2745, "annotation": {"number": 64, "value": 127}, "group": "control_change"}, {"time": 2778, "annotation": {"number": 64, "value": 0}, "group": "control_change"}, {"time": 2793, "annotation": {"number": 64, "value": 127}, "group": "control_change"}, {"time": 2813, "annotation": {"number": 64, "value": 0}, "group": "control_change"}, {"time": 2817, "annotation": {"number": 64, "value": 127}, "group": "control_change"}, {"time": 2838, "annotation": {"number": 64, "value": 0}, "group": "control_change"}, {"time": 2840, "annotation": {"number": 64, "value": 127}, "group": "control_change"}, {"time": 2862, "annotation": {"number": 64, "value": 0}, "group": "control_change"}, {"time": 2864, "annotation": {"number": 64, "value": 127}, "group": "control_change"}, {"time": 2881, "annotation": {"number": 64, "value": 0}, "group": "control_change"}, {"time": 2889, "annotation": {"number": 64, "value": 127}, "group": "control_change"}, {"time": 2909, "annotation": {"number": 64, "value": 0}, "group": "control_change"}, {"time": 2912, "annotation": {"number": 64, "value": 127}, "group": "control_change"}, {"time": 2933, "annotation": {"number": 64, "value": 0}, "group": "control_change"}, {"time": 2937, "annotation": {"number": 64, "value": 127}, "group": "control_change"}, {"time": 2957, "annotation": {"number": 64, "value": 0}, "group": "control_change"}, {"time": 2961, "annotation": {"number": 64, "value": 127}, "group": "control_change"}, {"time": 2981, "annotation": {"number": 64, "value": 0}, "group": "control_change"}, {"time": 2984, "annotation": {"number": 64, "value": 127}, "group": "control_change"}, {"time": 3005, "annotation": {"number": 64, "value": 0}, "group": "control_change"}, {"time": 3008, "annotation": {"number": 64, "value": 127}, "group": "control_change"}, {"time": 3011, "annotation": {"number": 64, "value": 0}, "group": "control_change"}, {"time": 3014, "annotation": {"number": 64, "value": 127}, "group": "control_change"}, {"time": 3029, "annotation": {"number": 64, "value": 0}, "group": "control_change"}, {"time": 3033, "annotation": {"number": 64, "value": 127}, "group": "control_change"}, {"time": 3052, "annotation": {"number": 64, "value": 0}, "group": "control_change"}, {"time": 3056, "annotation": {"number": 64, "value": 127}, "group": "control_change"}, {"time": 3078, "annotation": {"number": 64, "value": 0}, "group": "control_change"}, {"time": 3080, "annotation": {"number": 64, "value": 127}, "group": "control_change"}, {"time": 3103, "annotation": {"number": 64, "value": 0}, "group": "control_change"}, {"time": 3105, "annotation": {"number": 64, "value": 127}, "group": "control_change"}, {"time": 3126, "annotation": {"number": 64, "value": 0}, "group": "control_change"}, {"time": 3130, "annotation": {"number": 64, "value": 127}, "group": "control_change"}, {"time": 3147, "annotation": {"number": 64, "value": 0}, "group": "control_change"}, {"time": 3153, "annotation": {"number": 64, "value": 127}, "group": "control_change"}, {"time": 3173, "annotation": {"number": 64, "value": 0}, "group": "control_change"}, {"time": 3177, "annotation": {"number": 64, "value": 127}, "group": "control_change"}, {"time": 3199, "annotation": {"number": 64, "value": 0}, "group": "control_change"}, {"time": 3203, "annotation": {"number": 64, "value": 127}, "group": "control_change"}, {"time": 3244, "annotation": {"number": 64, "value": 0}, "group": "control_change"}, {"time": 3248, "annotation": {"number": 64, "value": 127}, "group": "control_change"}, {"time": 3270, "annotation": {"number": 64, "value": 0}, "group": "control_change"}, {"time": 3273, "annotation": {"number": 64, "value": 127}, "group": "control_change"}, {"time": 3293, "annotation": {"number": 64, "value": 0}, "group": "control_change"}, {"time": 3296, "annotation": {"number": 64, "value": 127}, "group": "control_change"}, {"time": 3320, "annotation": {"number": 64, "value": 127}, "group": "control_change"}, {"time": 3329, "annotation": {"number": 64, "value": 0}, "group": "control_change"}, {"time": 3338, "annotation": {"number": 64, "value": 127}, "group": "control_change"}, {"time": 3353, "annotation": {"number": 64, "value": 0}, "group": "control_change"}, {"time": 3357, "annotation": {"number": 64, "value": 127}, "group": "control_change"}, {"time": 3446, "annotation": {"number": 64, "value": 0}, "group": "control_change"}]}]}