{"metadata": {"schema_version": "0.2", "title": "None", "source_filename": "444.mid", "source_format": "midi"}, "resolution": 12, "tempos": [{"time": 0, "qpm": 91.3001599274468}], "time_signatures": [{"time": 0, "numerator": 1, "denominator": 4}], "tracks": [{"program": 0, "is_drum": false, "name": "MELODY", "notes": [{"time": 445, "pitch": 59, "duration": 15, "velocity": 112}, {"time": 463, "pitch": 66, "duration": 5, "velocity": 102}, {"time": 469, "pitch": 64, "duration": 6, "velocity": 96}, {"time": 475, "pitch": 66, "duration": 4, "velocity": 112}, {"time": 481, "pitch": 62, "duration": 5, "velocity": 99}, {"time": 487, "pitch": 61, "duration": 4, "velocity": 95}, {"time": 493, "pitch": 59, "duration": 26, "velocity": 96}, {"time": 541, "pitch": 66, "duration": 5, "velocity": 117}, {"time": 547, "pitch": 71, "duration": 8, "velocity": 107}, {"time": 559, "pitch": 69, "duration": 4, "velocity": 102}, {"time": 565, "pitch": 66, "duration": 5, "velocity": 95}, {"time": 571, "pitch": 64, "duration": 3, "velocity": 99}, {"time": 577, "pitch": 62, "duration": 3, "velocity": 95}, {"time": 583, "pitch": 64, "duration": 3, "velocity": 89}, {"time": 589, "pitch": 66, "duration": 24, "velocity": 117}, {"time": 625, "pitch": 66, "duration": 4, "velocity": 117}, {"time": 631, "pitch": 69, "duration": 4, "velocity": 112}, {"time": 637, "pitch": 71, "duration": 12, "velocity": 127}, {"time": 655, "pitch": 74, "duration": 4, "velocity": 107}, {"time": 661, "pitch": 71, "duration": 7, "velocity": 107}, {"time": 667, "pitch": 69, "duration": 4, "velocity": 100}, {"time": 673, "pitch": 66, "duration": 4, "velocity": 117}, {"time": 679, "pitch": 64, "duration": 4, "velocity": 90}, {"time": 685, "pitch": 62, "duration": 4, "velocity": 99}, {"time": 691, "pitch": 62, "duration": 12, "velocity": 97}, {"time": 703, "pitch": 64, "duration": 4, "velocity": 96}, {"time": 709, "pitch": 66, "duration": 8, "velocity": 112}, {"time": 733, "pitch": 64, "duration": 13, "velocity": 117}, {"time": 751, "pitch": 66, "duration": 3, "velocity": 102}, {"time": 757, "pitch": 61, "duration": 6, "velocity": 107}, {"time": 763, "pitch": 59, "duration": 5, "velocity": 92}, {"time": 769, "pitch": 57, "duration": 11, "velocity": 100}, {"time": 781, "pitch": 59, "duration": 25, "velocity": 102}, {"time": 829, "pitch": 59, "duration": 15, "velocity": 112}, {"time": 847, "pitch": 66, "duration": 5, "velocity": 102}, {"time": 853, "pitch": 64, "duration": 6, "velocity": 96}, {"time": 859, "pitch": 66, "duration": 4, "velocity": 112}, {"time": 865, "pitch": 62, "duration": 5, "velocity": 99}, {"time": 871, "pitch": 61, "duration": 4, "velocity": 95}, {"time": 877, "pitch": 59, "duration": 26, "velocity": 96}, {"time": 925, "pitch": 66, "duration": 5, "velocity": 117}, {"time": 931, "pitch": 71, "duration": 8, "velocity": 107}, {"time": 943, "pitch": 69, "duration": 4, "velocity": 102}, {"time": 949, "pitch": 66, "duration": 5, "velocity": 95}, {"time": 955, "pitch": 64, "duration": 3, "velocity": 99}, {"time": 961, "pitch": 62, "duration": 3, "velocity": 95}, {"time": 967, "pitch": 64, "duration": 3, "velocity": 89}, {"time": 973, "pitch": 66, "duration": 24, "velocity": 117}, {"time": 1009, "pitch": 66, "duration": 4, "velocity": 117}, {"time": 1015, "pitch": 69, "duration": 4, "velocity": 112}, {"time": 1021, "pitch": 71, "duration": 12, "velocity": 127}, {"time": 1039, "pitch": 74, "duration": 4, "velocity": 107}, {"time": 1045, "pitch": 71, "duration": 7, "velocity": 107}, {"time": 1051, "pitch": 69, "duration": 4, "velocity": 116}, {"time": 1057, "pitch": 66, "duration": 4, "velocity": 117}, {"time": 1063, "pitch": 64, "duration": 4, "velocity": 90}, {"time": 1069, "pitch": 62, "duration": 4, "velocity": 99}, {"time": 1075, "pitch": 62, "duration": 12, "velocity": 97}, {"time": 1087, "pitch": 64, "duration": 4, "velocity": 96}, {"time": 1093, "pitch": 66, "duration": 8, "velocity": 112}, {"time": 1117, "pitch": 64, "duration": 13, "velocity": 117}, {"time": 1135, "pitch": 66, "duration": 3, "velocity": 102}, {"time": 1141, "pitch": 61, "duration": 6, "velocity": 107}, {"time": 1147, "pitch": 59, "duration": 5, "velocity": 92}, {"time": 1153, "pitch": 57, "duration": 11, "velocity": 100}, {"time": 1165, "pitch": 59, "duration": 25, "velocity": 102}, {"time": 1207, "pitch": 66, "duration": 3, "velocity": 127}, {"time": 1213, "pitch": 69, "duration": 14, "velocity": 122}, {"time": 1231, "pitch": 66, "duration": 3, "velocity": 127}, {"time": 1237, "pitch": 66, "duration": 10, "velocity": 127}, {"time": 1255, "pitch": 66, "duration": 3, "velocity": 112}, {"time": 1261, "pitch": 74, "duration": 9, "velocity": 127}, {"time": 1279, "pitch": 71, "duration": 3, "velocity": 127}, {"time": 1285, "pitch": 71, "duration": 5, "velocity": 127}, {"time": 1297, "pitch": 71, "duration": 4, "velocity": 122}, {"time": 1303, "pitch": 73, "duration": 3, "velocity": 122}, {"time": 1309, "pitch": 71, "duration": 9, "velocity": 127}, {"time": 1321, "pitch": 69, "duration": 10, "velocity": 115}, {"time": 1333, "pitch": 62, "duration": 6, "velocity": 127}, {"time": 1345, "pitch": 64, "duration": 6, "velocity": 122}, {"time": 1351, "pitch": 62, "duration": 6, "velocity": 96}, {"time": 1357, "pitch": 66, "duration": 23, "velocity": 127}, {"time": 1399, "pitch": 66, "duration": 3, "velocity": 117}, {"time": 1405, "pitch": 74, "duration": 12, "velocity": 127}, {"time": 1423, "pitch": 71, "duration": 4, "velocity": 127}, {"time": 1429, "pitch": 71, "duration": 11, "velocity": 127}, {"time": 1447, "pitch": 71, "duration": 4, "velocity": 112}, {"time": 1453, "pitch": 74, "duration": 14, "velocity": 127}, {"time": 1471, "pitch": 76, "duration": 4, "velocity": 127}, {"time": 1477, "pitch": 78, "duration": 30, "velocity": 127}, {"time": 1513, "pitch": 78, "duration": 5, "velocity": 127}, {"time": 1519, "pitch": 76, "duration": 4, "velocity": 93}, {"time": 1525, "pitch": 73, "duration": 12, "velocity": 112}, {"time": 1543, "pitch": 69, "duration": 5, "velocity": 107}, {"time": 1549, "pitch": 71, "duration": 26, "velocity": 117}, {"time": 1597, "pitch": 59, "duration": 15, "velocity": 112}, {"time": 1615, "pitch": 66, "duration": 5, "velocity": 102}, {"time": 1621, "pitch": 64, "duration": 6, "velocity": 96}, {"time": 1627, "pitch": 66, "duration": 4, "velocity": 112}, {"time": 1633, "pitch": 62, "duration": 5, "velocity": 99}, {"time": 1639, "pitch": 61, "duration": 4, "velocity": 95}, {"time": 1645, "pitch": 59, "duration": 26, "velocity": 96}, {"time": 1693, "pitch": 66, "duration": 5, "velocity": 117}, {"time": 1699, "pitch": 71, "duration": 8, "velocity": 107}, {"time": 1711, "pitch": 69, "duration": 4, "velocity": 102}, {"time": 1717, "pitch": 66, "duration": 5, "velocity": 95}, {"time": 1723, "pitch": 64, "duration": 3, "velocity": 99}, {"time": 1729, "pitch": 62, "duration": 3, "velocity": 95}, {"time": 1735, "pitch": 64, "duration": 3, "velocity": 89}, {"time": 1741, "pitch": 66, "duration": 24, "velocity": 117}, {"time": 1777, "pitch": 66, "duration": 4, "velocity": 117}, {"time": 1783, "pitch": 69, "duration": 4, "velocity": 112}, {"time": 1789, "pitch": 71, "duration": 12, "velocity": 127}, {"time": 1807, "pitch": 74, "duration": 4, "velocity": 107}, {"time": 1813, "pitch": 71, "duration": 7, "velocity": 107}, {"time": 1819, "pitch": 69, "duration": 4, "velocity": 100}, {"time": 1825, "pitch": 66, "duration": 4, "velocity": 117}, {"time": 1831, "pitch": 64, "duration": 4, "velocity": 90}, {"time": 1837, "pitch": 62, "duration": 4, "velocity": 99}, {"time": 1843, "pitch": 62, "duration": 12, "velocity": 97}, {"time": 1855, "pitch": 64, "duration": 4, "velocity": 96}, {"time": 1861, "pitch": 66, "duration": 8, "velocity": 112}, {"time": 1885, "pitch": 64, "duration": 13, "velocity": 117}, {"time": 1903, "pitch": 66, "duration": 3, "velocity": 102}, {"time": 1909, "pitch": 61, "duration": 6, "velocity": 107}, {"time": 1915, "pitch": 59, "duration": 5, "velocity": 92}, {"time": 1921, "pitch": 57, "duration": 11, "velocity": 100}, {"time": 1933, "pitch": 59, "duration": 25, "velocity": 102}, {"time": 2359, "pitch": 66, "duration": 3, "velocity": 127}, {"time": 2365, "pitch": 69, "duration": 14, "velocity": 122}, {"time": 2383, "pitch": 66, "duration": 3, "velocity": 127}, {"time": 2389, "pitch": 66, "duration": 10, "velocity": 127}, {"time": 2407, "pitch": 66, "duration": 3, "velocity": 112}, {"time": 2413, "pitch": 74, "duration": 9, "velocity": 127}, {"time": 2431, "pitch": 71, "duration": 3, "velocity": 127}, {"time": 2437, "pitch": 71, "duration": 5, "velocity": 127}, {"time": 2449, "pitch": 71, "duration": 4, "velocity": 122}, {"time": 2455, "pitch": 73, "duration": 3, "velocity": 122}, {"time": 2461, "pitch": 71, "duration": 9, "velocity": 127}, {"time": 2473, "pitch": 69, "duration": 10, "velocity": 115}, {"time": 2485, "pitch": 62, "duration": 6, "velocity": 127}, {"time": 2497, "pitch": 64, "duration": 6, "velocity": 122}, {"time": 2503, "pitch": 62, "duration": 6, "velocity": 96}, {"time": 2509, "pitch": 66, "duration": 23, "velocity": 127}, {"time": 2551, "pitch": 66, "duration": 3, "velocity": 117}, {"time": 2557, "pitch": 74, "duration": 12, "velocity": 127}, {"time": 2575, "pitch": 71, "duration": 4, "velocity": 127}, {"time": 2581, "pitch": 71, "duration": 11, "velocity": 127}, {"time": 2599, "pitch": 71, "duration": 4, "velocity": 112}, {"time": 2605, "pitch": 74, "duration": 14, "velocity": 127}, {"time": 2623, "pitch": 76, "duration": 4, "velocity": 127}, {"time": 2629, "pitch": 78, "duration": 30, "velocity": 127}, {"time": 2665, "pitch": 78, "duration": 5, "velocity": 127}, {"time": 2671, "pitch": 76, "duration": 4, "velocity": 93}, {"time": 2677, "pitch": 73, "duration": 12, "velocity": 112}, {"time": 2695, "pitch": 69, "duration": 5, "velocity": 107}, {"time": 2701, "pitch": 71, "duration": 26, "velocity": 117}, {"time": 2749, "pitch": 59, "duration": 15, "velocity": 112}, {"time": 2767, "pitch": 66, "duration": 5, "velocity": 102}, {"time": 2773, "pitch": 64, "duration": 6, "velocity": 96}, {"time": 2779, "pitch": 66, "duration": 4, "velocity": 112}, {"time": 2785, "pitch": 62, "duration": 5, "velocity": 99}, {"time": 2791, "pitch": 61, "duration": 4, "velocity": 95}, {"time": 2797, "pitch": 59, "duration": 26, "velocity": 96}, {"time": 2845, "pitch": 66, "duration": 5, "velocity": 117}, {"time": 2851, "pitch": 71, "duration": 8, "velocity": 107}, {"time": 2863, "pitch": 69, "duration": 4, "velocity": 102}, {"time": 2869, "pitch": 66, "duration": 5, "velocity": 95}, {"time": 2875, "pitch": 64, "duration": 3, "velocity": 99}, {"time": 2881, "pitch": 62, "duration": 3, "velocity": 95}, {"time": 2887, "pitch": 64, "duration": 3, "velocity": 89}, {"time": 2893, "pitch": 66, "duration": 24, "velocity": 117}, {"time": 2929, "pitch": 66, "duration": 4, "velocity": 117}, {"time": 2935, "pitch": 69, "duration": 4, "velocity": 112}, {"time": 2941, "pitch": 71, "duration": 12, "velocity": 127}, {"time": 2959, "pitch": 74, "duration": 4, "velocity": 107}, {"time": 2965, "pitch": 71, "duration": 7, "velocity": 107}, {"time": 2971, "pitch": 69, "duration": 4, "velocity": 100}, {"time": 2977, "pitch": 66, "duration": 4, "velocity": 117}, {"time": 2983, "pitch": 64, "duration": 4, "velocity": 90}, {"time": 2989, "pitch": 62, "duration": 4, "velocity": 99}, {"time": 2995, "pitch": 62, "duration": 12, "velocity": 97}, {"time": 3007, "pitch": 64, "duration": 4, "velocity": 96}, {"time": 3013, "pitch": 66, "duration": 8, "velocity": 112}, {"time": 3037, "pitch": 64, "duration": 13, "velocity": 117}, {"time": 3055, "pitch": 66, "duration": 3, "velocity": 102}, {"time": 3061, "pitch": 73, "duration": 6, "velocity": 107}, {"time": 3067, "pitch": 71, "duration": 5, "velocity": 92}, {"time": 3073, "pitch": 69, "duration": 11, "velocity": 100}, {"time": 3085, "pitch": 71, "duration": 25, "velocity": 102}]}, {"program": 0, "is_drum": false, "name": "PIANO", "notes": [{"time": 61, "pitch": 47, "duration": 72, "velocity": 67}, {"time": 61, "pitch": 59, "duration": 93, "velocity": 72}, {"time": 61, "pitch": 62, "duration": 93, "velocity": 74}, {"time": 61, "pitch": 66, "duration": 93, "velocity": 72}, {"time": 157, "pitch": 47, "duration": 87, "velocity": 51}, {"time": 157, "pitch": 59, "duration": 2, "velocity": 27}, {"time": 157, "pitch": 59, "duration": 2, "velocity": 107}, {"time": 157, "pitch": 62, "duration": 91, "velocity": 58}, {"time": 157, "pitch": 66, "duration": 2, "velocity": 58}, {"time": 157, "pitch": 66, "duration": 2, "velocity": 127}, {"time": 160, "pitch": 59, "duration": 2, "velocity": 89}, {"time": 160, "pitch": 66, "duration": 2, "velocity": 97}, {"time": 163, "pitch": 59, "duration": 3, "velocity": 100}, {"time": 163, "pitch": 66, "duration": 3, "velocity": 117}, {"time": 175, "pitch": 59, "duration": 2, "velocity": 107}, {"time": 175, "pitch": 66, "duration": 2, "velocity": 127}, {"time": 178, "pitch": 59, "duration": 2, "velocity": 97}, {"time": 178, "pitch": 66, "duration": 2, "velocity": 117}, {"time": 181, "pitch": 59, "duration": 3, "velocity": 107}, {"time": 181, "pitch": 66, "duration": 3, "velocity": 117}, {"time": 205, "pitch": 59, "duration": 2, "velocity": 117}, {"time": 205, "pitch": 66, "duration": 2, "velocity": 122}, {"time": 208, "pitch": 59, "duration": 2, "velocity": 107}, {"time": 208, "pitch": 66, "duration": 2, "velocity": 107}, {"time": 211, "pitch": 59, "duration": 3, "velocity": 99}, {"time": 211, "pitch": 66, "duration": 3, "velocity": 107}, {"time": 223, "pitch": 59, "duration": 2, "velocity": 112}, {"time": 223, "pitch": 66, "duration": 2, "velocity": 127}, {"time": 226, "pitch": 59, "duration": 2, "velocity": 95}, {"time": 226, "pitch": 66, "duration": 2, "velocity": 102}, {"time": 229, "pitch": 59, "duration": 3, "velocity": 99}, {"time": 229, "pitch": 66, "duration": 3, "velocity": 127}, {"time": 253, "pitch": 42, "duration": 85, "velocity": 63}, {"time": 253, "pitch": 54, "duration": 87, "velocity": 66}, {"time": 253, "pitch": 58, "duration": 87, "velocity": 72}, {"time": 253, "pitch": 61, "duration": 86, "velocity": 73}, {"time": 253, "pitch": 66, "duration": 86, "velocity": 76}, {"time": 349, "pitch": 47, "duration": 95, "velocity": 65}, {"time": 349, "pitch": 59, "duration": 2, "velocity": 63}, {"time": 349, "pitch": 59, "duration": 2, "velocity": 112}, {"time": 349, "pitch": 62, "duration": 94, "velocity": 69}, {"time": 349, "pitch": 66, "duration": 2, "velocity": 62}, {"time": 349, "pitch": 66, "duration": 2, "velocity": 127}, {"time": 352, "pitch": 59, "duration": 2, "velocity": 90}, {"time": 352, "pitch": 66, "duration": 2, "velocity": 93}, {"time": 355, "pitch": 59, "duration": 2, "velocity": 107}, {"time": 355, "pitch": 66, "duration": 2, "velocity": 127}, {"time": 367, "pitch": 59, "duration": 2, "velocity": 107}, {"time": 367, "pitch": 66, "duration": 2, "velocity": 122}, {"time": 370, "pitch": 59, "duration": 2, "velocity": 95}, {"time": 370, "pitch": 66, "duration": 2, "velocity": 107}, {"time": 373, "pitch": 59, "duration": 2, "velocity": 96}, {"time": 373, "pitch": 66, "duration": 3, "velocity": 117}, {"time": 397, "pitch": 59, "duration": 2, "velocity": 99}, {"time": 397, "pitch": 66, "duration": 2, "velocity": 112}, {"time": 400, "pitch": 59, "duration": 2, "velocity": 97}, {"time": 400, "pitch": 66, "duration": 2, "velocity": 97}, {"time": 403, "pitch": 59, "duration": 2, "velocity": 100}, {"time": 403, "pitch": 66, "duration": 2, "velocity": 117}, {"time": 415, "pitch": 59, "duration": 2, "velocity": 100}, {"time": 415, "pitch": 66, "duration": 2, "velocity": 127}, {"time": 418, "pitch": 59, "duration": 2, "velocity": 89}, {"time": 418, "pitch": 66, "duration": 2, "velocity": 112}, {"time": 421, "pitch": 59, "duration": 2, "velocity": 112}, {"time": 421, "pitch": 66, "duration": 3, "velocity": 127}, {"time": 445, "pitch": 47, "duration": 47, "velocity": 74}, {"time": 451, "pitch": 54, "duration": 19, "velocity": 46}, {"time": 457, "pitch": 59, "duration": 17, "velocity": 47}, {"time": 463, "pitch": 66, "duration": 30, "velocity": 95}, {"time": 475, "pitch": 54, "duration": 20, "velocity": 56}, {"time": 481, "pitch": 62, "duration": 9, "velocity": 96}, {"time": 487, "pitch": 61, "duration": 8, "velocity": 64}, {"time": 493, "pitch": 47, "duration": 41, "velocity": 64}, {"time": 499, "pitch": 54, "duration": 19, "velocity": 56}, {"time": 505, "pitch": 59, "duration": 17, "velocity": 47}, {"time": 511, "pitch": 66, "duration": 30, "velocity": 96}, {"time": 523, "pitch": 54, "duration": 18, "velocity": 52}, {"time": 529, "pitch": 62, "duration": 12, "velocity": 96}, {"time": 535, "pitch": 61, "duration": 6, "velocity": 60}, {"time": 541, "pitch": 38, "duration": 45, "velocity": 82}, {"time": 547, "pitch": 45, "duration": 43, "velocity": 65}, {"time": 553, "pitch": 50, "duration": 15, "velocity": 69}, {"time": 559, "pitch": 57, "duration": 14, "velocity": 63}, {"time": 565, "pitch": 66, "duration": 32, "velocity": 112}, {"time": 571, "pitch": 50, "duration": 21, "velocity": 54}, {"time": 577, "pitch": 62, "duration": 28, "velocity": 61}, {"time": 583, "pitch": 57, "duration": 16, "velocity": 76}, {"time": 589, "pitch": 38, "duration": 35, "velocity": 56}, {"time": 595, "pitch": 45, "duration": 30, "velocity": 52}, {"time": 601, "pitch": 50, "duration": 16, "velocity": 55}, {"time": 607, "pitch": 57, "duration": 11, "velocity": 53}, {"time": 613, "pitch": 66, "duration": 22, "velocity": 127}, {"time": 619, "pitch": 50, "duration": 7, "velocity": 60}, {"time": 625, "pitch": 62, "duration": 12, "velocity": 86}, {"time": 631, "pitch": 57, "duration": 6, "velocity": 82}, {"time": 637, "pitch": 43, "duration": 14, "velocity": 85}, {"time": 643, "pitch": 55, "duration": 8, "velocity": 72}, {"time": 649, "pitch": 62, "duration": 11, "velocity": 112}, {"time": 655, "pitch": 59, "duration": 6, "velocity": 72}, {"time": 661, "pitch": 40, "duration": 15, "velocity": 85}, {"time": 667, "pitch": 47, "duration": 11, "velocity": 45}, {"time": 673, "pitch": 59, "duration": 12, "velocity": 82}, {"time": 679, "pitch": 67, "duration": 7, "velocity": 92}, {"time": 685, "pitch": 47, "duration": 39, "velocity": 77}, {"time": 691, "pitch": 54, "duration": 22, "velocity": 55}, {"time": 697, "pitch": 59, "duration": 8, "velocity": 67}, {"time": 703, "pitch": 66, "duration": 7, "velocity": 102}, {"time": 709, "pitch": 62, "duration": 10, "velocity": 86}, {"time": 715, "pitch": 54, "duration": 8, "velocity": 67}, {"time": 721, "pitch": 62, "duration": 7, "velocity": 81}, {"time": 727, "pitch": 61, "duration": 8, "velocity": 66}, {"time": 733, "pitch": 45, "duration": 38, "velocity": 70}, {"time": 739, "pitch": 52, "duration": 16, "velocity": 63}, {"time": 745, "pitch": 57, "duration": 14, "velocity": 69}, {"time": 751, "pitch": 64, "duration": 30, "velocity": 81}, {"time": 757, "pitch": 61, "duration": 13, "velocity": 92}, {"time": 763, "pitch": 52, "duration": 6, "velocity": 45}, {"time": 769, "pitch": 57, "duration": 12, "velocity": 83}, {"time": 775, "pitch": 61, "duration": 6, "velocity": 45}, {"time": 781, "pitch": 47, "duration": 37, "velocity": 86}, {"time": 787, "pitch": 54, "duration": 19, "velocity": 89}, {"time": 793, "pitch": 61, "duration": 7, "velocity": 73}, {"time": 799, "pitch": 66, "duration": 16, "velocity": 90}, {"time": 811, "pitch": 54, "duration": 17, "velocity": 62}, {"time": 817, "pitch": 62, "duration": 6, "velocity": 97}, {"time": 823, "pitch": 61, "duration": 9, "velocity": 67}, {"time": 829, "pitch": 47, "duration": 4, "velocity": 92}, {"time": 835, "pitch": 47, "duration": 37, "velocity": 99}, {"time": 841, "pitch": 59, "duration": 14, "velocity": 74}, {"time": 847, "pitch": 54, "duration": 10, "velocity": 71}, {"time": 853, "pitch": 66, "duration": 20, "velocity": 100}, {"time": 859, "pitch": 54, "duration": 17, "velocity": 81}, {"time": 865, "pitch": 62, "duration": 6, "velocity": 100}, {"time": 871, "pitch": 61, "duration": 19, "velocity": 83}, {"time": 877, "pitch": 47, "duration": 2, "velocity": 82}, {"time": 883, "pitch": 47, "duration": 33, "velocity": 88}, {"time": 883, "pitch": 66, "duration": 6, "velocity": 1}, {"time": 889, "pitch": 54, "duration": 17, "velocity": 95}, {"time": 895, "pitch": 59, "duration": 9, "velocity": 63}, {"time": 901, "pitch": 66, "duration": 26, "velocity": 112}, {"time": 907, "pitch": 54, "duration": 6, "velocity": 100}, {"time": 913, "pitch": 59, "duration": 8, "velocity": 78}, {"time": 919, "pitch": 61, "duration": 16, "velocity": 107}, {"time": 925, "pitch": 38, "duration": 3, "velocity": 93}, {"time": 931, "pitch": 38, "duration": 39, "velocity": 86}, {"time": 937, "pitch": 57, "duration": 18, "velocity": 93}, {"time": 943, "pitch": 45, "duration": 10, "velocity": 58}, {"time": 949, "pitch": 66, "duration": 32, "velocity": 117}, {"time": 955, "pitch": 45, "duration": 17, "velocity": 89}, {"time": 961, "pitch": 62, "duration": 20, "velocity": 66}, {"time": 967, "pitch": 57, "duration": 15, "velocity": 90}, {"time": 973, "pitch": 38, "duration": 2, "velocity": 93}, {"time": 979, "pitch": 38, "duration": 30, "velocity": 89}, {"time": 985, "pitch": 45, "duration": 25, "velocity": 82}, {"time": 991, "pitch": 50, "duration": 9, "velocity": 52}, {"time": 997, "pitch": 66, "duration": 20, "velocity": 117}, {"time": 1003, "pitch": 50, "duration": 10, "velocity": 63}, {"time": 1009, "pitch": 62, "duration": 10, "velocity": 92}, {"time": 1015, "pitch": 57, "duration": 8, "velocity": 93}, {"time": 1021, "pitch": 43, "duration": 3, "velocity": 93}, {"time": 1027, "pitch": 43, "duration": 13, "velocity": 74}, {"time": 1033, "pitch": 62, "duration": 12, "velocity": 100}, {"time": 1039, "pitch": 59, "duration": 7, "velocity": 83}, {"time": 1045, "pitch": 40, "duration": 16, "velocity": 86}, {"time": 1051, "pitch": 47, "duration": 10, "velocity": 52}, {"time": 1057, "pitch": 64, "duration": 12, "velocity": 90}, {"time": 1063, "pitch": 55, "duration": 6, "velocity": 93}, {"time": 1069, "pitch": 47, "duration": 3, "velocity": 85}, {"time": 1075, "pitch": 47, "duration": 32, "velocity": 63}, {"time": 1081, "pitch": 54, "duration": 16, "velocity": 83}, {"time": 1087, "pitch": 59, "duration": 14, "velocity": 54}, {"time": 1093, "pitch": 66, "duration": 18, "velocity": 122}, {"time": 1099, "pitch": 54, "duration": 7, "velocity": 92}, {"time": 1105, "pitch": 62, "duration": 10, "velocity": 83}, {"time": 1111, "pitch": 59, "duration": 6, "velocity": 100}, {"time": 1117, "pitch": 45, "duration": 39, "velocity": 89}, {"time": 1123, "pitch": 52, "duration": 21, "velocity": 72}, {"time": 1129, "pitch": 57, "duration": 11, "velocity": 75}, {"time": 1135, "pitch": 64, "duration": 31, "velocity": 93}, {"time": 1141, "pitch": 61, "duration": 14, "velocity": 117}, {"time": 1147, "pitch": 52, "duration": 12, "velocity": 72}, {"time": 1153, "pitch": 57, "duration": 9, "velocity": 90}, {"time": 1159, "pitch": 61, "duration": 6, "velocity": 100}, {"time": 1165, "pitch": 47, "duration": 3, "velocity": 93}, {"time": 1171, "pitch": 47, "duration": 41, "velocity": 93}, {"time": 1177, "pitch": 54, "duration": 17, "velocity": 63}, {"time": 1183, "pitch": 59, "duration": 10, "velocity": 45}, {"time": 1189, "pitch": 66, "duration": 24, "velocity": 122}, {"time": 1195, "pitch": 54, "duration": 17, "velocity": 93}, {"time": 1201, "pitch": 62, "duration": 12, "velocity": 62}, {"time": 1207, "pitch": 59, "duration": 6, "velocity": 58}, {"time": 1213, "pitch": 38, "duration": 19, "velocity": 95}, {"time": 1219, "pitch": 45, "duration": 15, "velocity": 69}, {"time": 1225, "pitch": 66, "duration": 8, "velocity": 112}, {"time": 1231, "pitch": 62, "duration": 5, "velocity": 65}, {"time": 1237, "pitch": 38, "duration": 3, "velocity": 78}, {"time": 1237, "pitch": 57, "duration": 3, "velocity": 81}, {"time": 1237, "pitch": 62, "duration": 2, "velocity": 93}, {"time": 1237, "pitch": 66, "duration": 3, "velocity": 99}, {"time": 1243, "pitch": 38, "duration": 2, "velocity": 63}, {"time": 1243, "pitch": 57, "duration": 2, "velocity": 68}, {"time": 1243, "pitch": 62, "duration": 2, "velocity": 75}, {"time": 1243, "pitch": 66, "duration": 2, "velocity": 73}, {"time": 1249, "pitch": 38, "duration": 5, "velocity": 93}, {"time": 1249, "pitch": 57, "duration": 8, "velocity": 93}, {"time": 1249, "pitch": 62, "duration": 8, "velocity": 99}, {"time": 1249, "pitch": 66, "duration": 9, "velocity": 122}, {"time": 1261, "pitch": 47, "duration": 22, "velocity": 92}, {"time": 1267, "pitch": 54, "duration": 17, "velocity": 99}, {"time": 1273, "pitch": 66, "duration": 9, "velocity": 127}, {"time": 1279, "pitch": 62, "duration": 5, "velocity": 97}, {"time": 1285, "pitch": 47, "duration": 2, "velocity": 52}, {"time": 1285, "pitch": 54, "duration": 3, "velocity": 88}, {"time": 1285, "pitch": 59, "duration": 2, "velocity": 66}, {"time": 1285, "pitch": 62, "duration": 2, "velocity": 69}, {"time": 1285, "pitch": 66, "duration": 3, "velocity": 83}, {"time": 1291, "pitch": 47, "duration": 2, "velocity": 70}, {"time": 1291, "pitch": 54, "duration": 2, "velocity": 97}, {"time": 1291, "pitch": 59, "duration": 2, "velocity": 75}, {"time": 1291, "pitch": 62, "duration": 2, "velocity": 83}, {"time": 1291, "pitch": 66, "duration": 2, "velocity": 92}, {"time": 1297, "pitch": 47, "duration": 10, "velocity": 85}, {"time": 1297, "pitch": 54, "duration": 10, "velocity": 100}, {"time": 1297, "pitch": 59, "duration": 12, "velocity": 89}, {"time": 1297, "pitch": 62, "duration": 11, "velocity": 99}, {"time": 1297, "pitch": 66, "duration": 12, "velocity": 117}, {"time": 1309, "pitch": 45, "duration": 15, "velocity": 96}, {"time": 1315, "pitch": 52, "duration": 12, "velocity": 53}, {"time": 1321, "pitch": 64, "duration": 19, "velocity": 102}, {"time": 1327, "pitch": 61, "duration": 14, "velocity": 99}, {"time": 1333, "pitch": 45, "duration": 18, "velocity": 85}, {"time": 1339, "pitch": 52, "duration": 11, "velocity": 97}, {"time": 1345, "pitch": 64, "duration": 13, "velocity": 102}, {"time": 1351, "pitch": 61, "duration": 6, "velocity": 122}, {"time": 1357, "pitch": 38, "duration": 22, "velocity": 89}, {"time": 1363, "pitch": 45, "duration": 17, "velocity": 88}, {"time": 1369, "pitch": 66, "duration": 21, "velocity": 117}, {"time": 1375, "pitch": 57, "duration": 15, "velocity": 93}, {"time": 1381, "pitch": 38, "duration": 3, "velocity": 86}, {"time": 1387, "pitch": 38, "duration": 3, "velocity": 82}, {"time": 1393, "pitch": 38, "duration": 7, "velocity": 100}, {"time": 1393, "pitch": 57, "duration": 2, "velocity": 69}, {"time": 1393, "pitch": 62, "duration": 13, "velocity": 102}, {"time": 1393, "pitch": 66, "duration": 15, "velocity": 127}, {"time": 1405, "pitch": 47, "duration": 22, "velocity": 92}, {"time": 1411, "pitch": 54, "duration": 17, "velocity": 97}, {"time": 1417, "pitch": 66, "duration": 27, "velocity": 127}, {"time": 1423, "pitch": 62, "duration": 20, "velocity": 100}, {"time": 1429, "pitch": 47, "duration": 3, "velocity": 79}, {"time": 1429, "pitch": 54, "duration": 3, "velocity": 96}, {"time": 1435, "pitch": 47, "duration": 2, "velocity": 78}, {"time": 1435, "pitch": 54, "duration": 3, "velocity": 107}, {"time": 1441, "pitch": 47, "duration": 9, "velocity": 96}, {"time": 1441, "pitch": 54, "duration": 9, "velocity": 127}, {"time": 1447, "pitch": 66, "duration": 6, "velocity": 127}, {"time": 1453, "pitch": 43, "duration": 15, "velocity": 102}, {"time": 1459, "pitch": 55, "duration": 9, "velocity": 58}, {"time": 1471, "pitch": 48, "duration": 4, "velocity": 117}, {"time": 1471, "pitch": 55, "duration": 4, "velocity": 97}, {"time": 1471, "pitch": 60, "duration": 4, "velocity": 107}, {"time": 1471, "pitch": 64, "duration": 3, "velocity": 96}, {"time": 1477, "pitch": 42, "duration": 69, "velocity": 71}, {"time": 1477, "pitch": 49, "duration": 69, "velocity": 100}, {"time": 1477, "pitch": 54, "duration": 70, "velocity": 90}, {"time": 1477, "pitch": 58, "duration": 70, "velocity": 97}, {"time": 1477, "pitch": 61, "duration": 70, "velocity": 107}, {"time": 1477, "pitch": 66, "duration": 70, "velocity": 88}, {"time": 1555, "pitch": 47, "duration": 4, "velocity": 56}, {"time": 1555, "pitch": 59, "duration": 4, "velocity": 55}, {"time": 1555, "pitch": 62, "duration": 4, "velocity": 63}, {"time": 1555, "pitch": 66, "duration": 4, "velocity": 56}, {"time": 1561, "pitch": 47, "duration": 4, "velocity": 66}, {"time": 1561, "pitch": 59, "duration": 5, "velocity": 63}, {"time": 1561, "pitch": 62, "duration": 5, "velocity": 65}, {"time": 1561, "pitch": 66, "duration": 5, "velocity": 63}, {"time": 1567, "pitch": 47, "duration": 4, "velocity": 79}, {"time": 1567, "pitch": 59, "duration": 4, "velocity": 69}, {"time": 1567, "pitch": 62, "duration": 4, "velocity": 67}, {"time": 1567, "pitch": 66, "duration": 4, "velocity": 66}, {"time": 1573, "pitch": 47, "duration": 4, "velocity": 93}, {"time": 1573, "pitch": 59, "duration": 4, "velocity": 85}, {"time": 1573, "pitch": 62, "duration": 4, "velocity": 95}, {"time": 1573, "pitch": 66, "duration": 4, "velocity": 82}, {"time": 1579, "pitch": 47, "duration": 3, "velocity": 85}, {"time": 1579, "pitch": 59, "duration": 4, "velocity": 74}, {"time": 1579, "pitch": 62, "duration": 4, "velocity": 81}, {"time": 1579, "pitch": 66, "duration": 4, "velocity": 72}, {"time": 1585, "pitch": 47, "duration": 3, "velocity": 99}, {"time": 1585, "pitch": 59, "duration": 4, "velocity": 88}, {"time": 1585, "pitch": 62, "duration": 4, "velocity": 96}, {"time": 1585, "pitch": 66, "duration": 4, "velocity": 95}, {"time": 1591, "pitch": 47, "duration": 4, "velocity": 107}, {"time": 1591, "pitch": 59, "duration": 4, "velocity": 85}, {"time": 1591, "pitch": 62, "duration": 4, "velocity": 95}, {"time": 1591, "pitch": 66, "duration": 4, "velocity": 99}, {"time": 1597, "pitch": 47, "duration": 16, "velocity": 93}, {"time": 1603, "pitch": 54, "duration": 11, "velocity": 86}, {"time": 1609, "pitch": 66, "duration": 18, "velocity": 122}, {"time": 1615, "pitch": 47, "duration": 3, "velocity": 74}, {"time": 1621, "pitch": 47, "duration": 22, "velocity": 99}, {"time": 1627, "pitch": 59, "duration": 19, "velocity": 72}, {"time": 1633, "pitch": 66, "duration": 14, "velocity": 112}, {"time": 1639, "pitch": 62, "duration": 8, "velocity": 93}, {"time": 1645, "pitch": 47, "duration": 16, "velocity": 90}, {"time": 1651, "pitch": 59, "duration": 20, "velocity": 57}, {"time": 1657, "pitch": 66, "duration": 15, "velocity": 112}, {"time": 1663, "pitch": 47, "duration": 3, "velocity": 81}, {"time": 1669, "pitch": 47, "duration": 11, "velocity": 93}, {"time": 1675, "pitch": 59, "duration": 12, "velocity": 96}, {"time": 1681, "pitch": 54, "duration": 12, "velocity": 86}, {"time": 1687, "pitch": 66, "duration": 8, "velocity": 112}, {"time": 1693, "pitch": 50, "duration": 15, "velocity": 96}, {"time": 1699, "pitch": 57, "duration": 20, "velocity": 76}, {"time": 1705, "pitch": 66, "duration": 14, "velocity": 112}, {"time": 1711, "pitch": 50, "duration": 3, "velocity": 89}, {"time": 1717, "pitch": 50, "duration": 15, "velocity": 97}, {"time": 1723, "pitch": 57, "duration": 21, "velocity": 79}, {"time": 1729, "pitch": 66, "duration": 9, "velocity": 117}, {"time": 1735, "pitch": 62, "duration": 7, "velocity": 97}, {"time": 1741, "pitch": 38, "duration": 15, "velocity": 81}, {"time": 1747, "pitch": 57, "duration": 26, "velocity": 69}, {"time": 1753, "pitch": 66, "duration": 20, "velocity": 127}, {"time": 1759, "pitch": 38, "duration": 3, "velocity": 83}, {"time": 1765, "pitch": 38, "duration": 7, "velocity": 77}, {"time": 1771, "pitch": 45, "duration": 10, "velocity": 95}, {"time": 1777, "pitch": 66, "duration": 12, "velocity": 122}, {"time": 1783, "pitch": 62, "duration": 6, "velocity": 93}, {"time": 1789, "pitch": 43, "duration": 16, "velocity": 83}, {"time": 1795, "pitch": 50, "duration": 10, "velocity": 57}, {"time": 1801, "pitch": 62, "duration": 12, "velocity": 117}, {"time": 1807, "pitch": 55, "duration": 9, "velocity": 99}, {"time": 1813, "pitch": 40, "duration": 15, "velocity": 86}, {"time": 1819, "pitch": 47, "duration": 11, "velocity": 65}, {"time": 1825, "pitch": 64, "duration": 11, "velocity": 100}, {"time": 1831, "pitch": 55, "duration": 6, "velocity": 99}, {"time": 1837, "pitch": 47, "duration": 16, "velocity": 82}, {"time": 1843, "pitch": 54, "duration": 11, "velocity": 90}, {"time": 1849, "pitch": 66, "duration": 21, "velocity": 117}, {"time": 1855, "pitch": 47, "duration": 3, "velocity": 97}, {"time": 1861, "pitch": 47, "duration": 17, "velocity": 72}, {"time": 1867, "pitch": 54, "duration": 11, "velocity": 66}, {"time": 1873, "pitch": 66, "duration": 12, "velocity": 117}, {"time": 1879, "pitch": 62, "duration": 7, "velocity": 88}, {"time": 1885, "pitch": 45, "duration": 22, "velocity": 76}, {"time": 1891, "pitch": 52, "duration": 17, "velocity": 70}, {"time": 1897, "pitch": 64, "duration": 14, "velocity": 96}, {"time": 1903, "pitch": 61, "duration": 9, "velocity": 100}, {"time": 1909, "pitch": 45, "duration": 15, "velocity": 92}, {"time": 1915, "pitch": 57, "duration": 15, "velocity": 88}, {"time": 1921, "pitch": 64, "duration": 12, "velocity": 107}, {"time": 1927, "pitch": 61, "duration": 6, "velocity": 96}, {"time": 1933, "pitch": 47, "duration": 46, "velocity": 69}, {"time": 1933, "pitch": 54, "duration": 47, "velocity": 92}, {"time": 1933, "pitch": 59, "duration": 48, "velocity": 90}, {"time": 1933, "pitch": 62, "duration": 48, "velocity": 107}, {"time": 1933, "pitch": 66, "duration": 48, "velocity": 99}, {"time": 1981, "pitch": 47, "duration": 2, "velocity": 61}, {"time": 1981, "pitch": 54, "duration": 3, "velocity": 73}, {"time": 1981, "pitch": 59, "duration": 2, "velocity": 78}, {"time": 1981, "pitch": 62, "duration": 2, "velocity": 88}, {"time": 1981, "pitch": 66, "duration": 2, "velocity": 86}, {"time": 1987, "pitch": 47, "duration": 39, "velocity": 71}, {"time": 1987, "pitch": 54, "duration": 40, "velocity": 95}, {"time": 1987, "pitch": 59, "duration": 32, "velocity": 81}, {"time": 1987, "pitch": 62, "duration": 40, "velocity": 97}, {"time": 1987, "pitch": 66, "duration": 32, "velocity": 95}, {"time": 2017, "pitch": 59, "duration": 2, "velocity": 112}, {"time": 2017, "pitch": 66, "duration": 2, "velocity": 122}, {"time": 2020, "pitch": 59, "duration": 2, "velocity": 76}, {"time": 2020, "pitch": 66, "duration": 2, "velocity": 97}, {"time": 2023, "pitch": 59, "duration": 2, "velocity": 85}, {"time": 2023, "pitch": 66, "duration": 2, "velocity": 99}, {"time": 2026, "pitch": 59, "duration": 1, "velocity": 89}, {"time": 2026, "pitch": 66, "duration": 1, "velocity": 117}, {"time": 2029, "pitch": 47, "duration": 2, "velocity": 55}, {"time": 2029, "pitch": 54, "duration": 3, "velocity": 69}, {"time": 2029, "pitch": 59, "duration": 2, "velocity": 71}, {"time": 2029, "pitch": 62, "duration": 2, "velocity": 85}, {"time": 2029, "pitch": 66, "duration": 2, "velocity": 86}, {"time": 2035, "pitch": 47, "duration": 30, "velocity": 75}, {"time": 2035, "pitch": 54, "duration": 29, "velocity": 99}, {"time": 2035, "pitch": 59, "duration": 32, "velocity": 83}, {"time": 2035, "pitch": 62, "duration": 40, "velocity": 96}, {"time": 2035, "pitch": 66, "duration": 32, "velocity": 96}, {"time": 2065, "pitch": 59, "duration": 2, "velocity": 107}, {"time": 2065, "pitch": 66, "duration": 2, "velocity": 122}, {"time": 2068, "pitch": 59, "duration": 2, "velocity": 79}, {"time": 2068, "pitch": 66, "duration": 2, "velocity": 82}, {"time": 2071, "pitch": 59, "duration": 2, "velocity": 81}, {"time": 2071, "pitch": 66, "duration": 2, "velocity": 96}, {"time": 2074, "pitch": 59, "duration": 2, "velocity": 99}, {"time": 2074, "pitch": 66, "duration": 2, "velocity": 100}, {"time": 2077, "pitch": 40, "duration": 3, "velocity": 72}, {"time": 2077, "pitch": 47, "duration": 3, "velocity": 86}, {"time": 2077, "pitch": 59, "duration": 2, "velocity": 76}, {"time": 2077, "pitch": 64, "duration": 3, "velocity": 79}, {"time": 2077, "pitch": 67, "duration": 2, "velocity": 76}, {"time": 2083, "pitch": 40, "duration": 39, "velocity": 66}, {"time": 2083, "pitch": 47, "duration": 39, "velocity": 78}, {"time": 2083, "pitch": 59, "duration": 40, "velocity": 88}, {"time": 2083, "pitch": 64, "duration": 32, "velocity": 90}, {"time": 2083, "pitch": 67, "duration": 40, "velocity": 89}, {"time": 2113, "pitch": 64, "duration": 2, "velocity": 102}, {"time": 2113, "pitch": 71, "duration": 2, "velocity": 97}, {"time": 2116, "pitch": 64, "duration": 2, "velocity": 78}, {"time": 2116, "pitch": 71, "duration": 2, "velocity": 78}, {"time": 2119, "pitch": 64, "duration": 2, "velocity": 82}, {"time": 2119, "pitch": 71, "duration": 2, "velocity": 92}, {"time": 2122, "pitch": 64, "duration": 1, "velocity": 95}, {"time": 2122, "pitch": 71, "duration": 2, "velocity": 97}, {"time": 2125, "pitch": 40, "duration": 2, "velocity": 62}, {"time": 2125, "pitch": 47, "duration": 2, "velocity": 67}, {"time": 2125, "pitch": 52, "duration": 2, "velocity": 77}, {"time": 2125, "pitch": 59, "duration": 2, "velocity": 81}, {"time": 2125, "pitch": 64, "duration": 2, "velocity": 82}, {"time": 2125, "pitch": 67, "duration": 2, "velocity": 79}, {"time": 2131, "pitch": 40, "duration": 30, "velocity": 66}, {"time": 2131, "pitch": 47, "duration": 31, "velocity": 76}, {"time": 2131, "pitch": 52, "duration": 23, "velocity": 76}, {"time": 2131, "pitch": 59, "duration": 36, "velocity": 85}, {"time": 2131, "pitch": 64, "duration": 32, "velocity": 86}, {"time": 2131, "pitch": 67, "duration": 36, "velocity": 83}, {"time": 2161, "pitch": 64, "duration": 2, "velocity": 99}, {"time": 2161, "pitch": 71, "duration": 2, "velocity": 100}, {"time": 2164, "pitch": 64, "duration": 2, "velocity": 83}, {"time": 2164, "pitch": 71, "duration": 2, "velocity": 85}, {"time": 2167, "pitch": 64, "duration": 2, "velocity": 89}, {"time": 2167, "pitch": 71, "duration": 2, "velocity": 92}, {"time": 2170, "pitch": 64, "duration": 2, "velocity": 95}, {"time": 2170, "pitch": 71, "duration": 2, "velocity": 97}, {"time": 2173, "pitch": 45, "duration": 3, "velocity": 95}, {"time": 2173, "pitch": 57, "duration": 3, "velocity": 76}, {"time": 2173, "pitch": 61, "duration": 3, "velocity": 92}, {"time": 2173, "pitch": 64, "duration": 3, "velocity": 82}, {"time": 2179, "pitch": 45, "duration": 39, "velocity": 86}, {"time": 2179, "pitch": 57, "duration": 21, "velocity": 76}, {"time": 2179, "pitch": 61, "duration": 27, "velocity": 93}, {"time": 2179, "pitch": 64, "duration": 27, "velocity": 82}, {"time": 2197, "pitch": 52, "duration": 23, "velocity": 64}, {"time": 2203, "pitch": 57, "duration": 8, "velocity": 46}, {"time": 2209, "pitch": 57, "duration": 2, "velocity": 95}, {"time": 2209, "pitch": 61, "duration": 1, "velocity": 117}, {"time": 2209, "pitch": 64, "duration": 2, "velocity": 96}, {"time": 2212, "pitch": 57, "duration": 2, "velocity": 79}, {"time": 2212, "pitch": 61, "duration": 2, "velocity": 90}, {"time": 2212, "pitch": 64, "duration": 2, "velocity": 75}, {"time": 2215, "pitch": 57, "duration": 2, "velocity": 88}, {"time": 2215, "pitch": 61, "duration": 1, "velocity": 33}, {"time": 2215, "pitch": 61, "duration": 1, "velocity": 95}, {"time": 2215, "pitch": 64, "duration": 2, "velocity": 83}, {"time": 2218, "pitch": 57, "duration": 2, "velocity": 96}, {"time": 2218, "pitch": 61, "duration": 1, "velocity": 107}, {"time": 2218, "pitch": 64, "duration": 1, "velocity": 90}, {"time": 2221, "pitch": 45, "duration": 2, "velocity": 60}, {"time": 2221, "pitch": 52, "duration": 2, "velocity": 63}, {"time": 2221, "pitch": 57, "duration": 2, "velocity": 77}, {"time": 2221, "pitch": 61, "duration": 3, "velocity": 69}, {"time": 2221, "pitch": 64, "duration": 3, "velocity": 67}, {"time": 2227, "pitch": 45, "duration": 31, "velocity": 73}, {"time": 2227, "pitch": 52, "duration": 34, "velocity": 85}, {"time": 2227, "pitch": 57, "duration": 29, "velocity": 82}, {"time": 2227, "pitch": 61, "duration": 29, "velocity": 99}, {"time": 2227, "pitch": 64, "duration": 28, "velocity": 79}, {"time": 2257, "pitch": 57, "duration": 1, "velocity": 34}, {"time": 2257, "pitch": 57, "duration": 1, "velocity": 100}, {"time": 2257, "pitch": 61, "duration": 1, "velocity": 122}, {"time": 2257, "pitch": 64, "duration": 1, "velocity": 96}, {"time": 2257, "pitch": 64, "duration": 1, "velocity": 99}, {"time": 2260, "pitch": 57, "duration": 2, "velocity": 81}, {"time": 2260, "pitch": 61, "duration": 2, "velocity": 92}, {"time": 2260, "pitch": 64, "duration": 2, "velocity": 73}, {"time": 2263, "pitch": 57, "duration": 2, "velocity": 78}, {"time": 2263, "pitch": 61, "duration": 2, "velocity": 82}, {"time": 2263, "pitch": 61, "duration": 2, "velocity": 88}, {"time": 2263, "pitch": 64, "duration": 1, "velocity": 78}, {"time": 2266, "pitch": 57, "duration": 2, "velocity": 93}, {"time": 2266, "pitch": 61, "duration": 2, "velocity": 107}, {"time": 2266, "pitch": 64, "duration": 2, "velocity": 90}, {"time": 2269, "pitch": 47, "duration": 2, "velocity": 47}, {"time": 2269, "pitch": 54, "duration": 2, "velocity": 92}, {"time": 2269, "pitch": 59, "duration": 2, "velocity": 78}, {"time": 2269, "pitch": 62, "duration": 2, "velocity": 88}, {"time": 2269, "pitch": 66, "duration": 2, "velocity": 96}, {"time": 2275, "pitch": 47, "duration": 39, "velocity": 61}, {"time": 2275, "pitch": 54, "duration": 40, "velocity": 89}, {"time": 2275, "pitch": 59, "duration": 32, "velocity": 82}, {"time": 2275, "pitch": 62, "duration": 27, "velocity": 97}, {"time": 2275, "pitch": 66, "duration": 27, "velocity": 97}, {"time": 2305, "pitch": 59, "duration": 2, "velocity": 102}, {"time": 2305, "pitch": 66, "duration": 2, "velocity": 95}, {"time": 2305, "pitch": 66, "duration": 2, "velocity": 112}, {"time": 2308, "pitch": 59, "duration": 2, "velocity": 82}, {"time": 2308, "pitch": 66, "duration": 2, "velocity": 78}, {"time": 2311, "pitch": 59, "duration": 2, "velocity": 82}, {"time": 2311, "pitch": 62, "duration": 5, "velocity": 78}, {"time": 2311, "pitch": 66, "duration": 2, "velocity": 93}, {"time": 2314, "pitch": 59, "duration": 2, "velocity": 93}, {"time": 2314, "pitch": 66, "duration": 2, "velocity": 112}, {"time": 2317, "pitch": 47, "duration": 2, "velocity": 67}, {"time": 2317, "pitch": 54, "duration": 2, "velocity": 96}, {"time": 2317, "pitch": 59, "duration": 2, "velocity": 78}, {"time": 2317, "pitch": 62, "duration": 2, "velocity": 68}, {"time": 2317, "pitch": 66, "duration": 2, "velocity": 76}, {"time": 2323, "pitch": 47, "duration": 38, "velocity": 82}, {"time": 2323, "pitch": 54, "duration": 38, "velocity": 107}, {"time": 2323, "pitch": 59, "duration": 38, "velocity": 92}, {"time": 2323, "pitch": 62, "duration": 38, "velocity": 99}, {"time": 2323, "pitch": 66, "duration": 38, "velocity": 100}, {"time": 2365, "pitch": 38, "duration": 19, "velocity": 92}, {"time": 2365, "pitch": 62, "duration": 2, "velocity": 96}, {"time": 2365, "pitch": 66, "duration": 1, "velocity": 102}, {"time": 2365, "pitch": 69, "duration": 2, "velocity": 90}, {"time": 2368, "pitch": 62, "duration": 2, "velocity": 75}, {"time": 2368, "pitch": 66, "duration": 2, "velocity": 72}, {"time": 2368, "pitch": 69, "duration": 2, "velocity": 71}, {"time": 2371, "pitch": 45, "duration": 13, "velocity": 78}, {"time": 2371, "pitch": 62, "duration": 3, "velocity": 95}, {"time": 2371, "pitch": 66, "duration": 2, "velocity": 122}, {"time": 2371, "pitch": 69, "duration": 2, "velocity": 95}, {"time": 2377, "pitch": 66, "duration": 8, "velocity": 127}, {"time": 2383, "pitch": 57, "duration": 6, "velocity": 93}, {"time": 2389, "pitch": 38, "duration": 1, "velocity": 38}, {"time": 2389, "pitch": 45, "duration": 2, "velocity": 69}, {"time": 2389, "pitch": 50, "duration": 2, "velocity": 72}, {"time": 2389, "pitch": 57, "duration": 3, "velocity": 58}, {"time": 2389, "pitch": 62, "duration": 2, "velocity": 89}, {"time": 2389, "pitch": 66, "duration": 3, "velocity": 96}, {"time": 2395, "pitch": 38, "duration": 1, "velocity": 40}, {"time": 2395, "pitch": 45, "duration": 3, "velocity": 81}, {"time": 2395, "pitch": 50, "duration": 2, "velocity": 82}, {"time": 2395, "pitch": 57, "duration": 3, "velocity": 83}, {"time": 2395, "pitch": 62, "duration": 2, "velocity": 92}, {"time": 2395, "pitch": 66, "duration": 2, "velocity": 83}, {"time": 2401, "pitch": 38, "duration": 3, "velocity": 59}, {"time": 2401, "pitch": 45, "duration": 4, "velocity": 96}, {"time": 2401, "pitch": 50, "duration": 6, "velocity": 95}, {"time": 2401, "pitch": 57, "duration": 8, "velocity": 93}, {"time": 2401, "pitch": 62, "duration": 8, "velocity": 107}, {"time": 2401, "pitch": 66, "duration": 10, "velocity": 117}, {"time": 2413, "pitch": 47, "duration": 20, "velocity": 93}, {"time": 2413, "pitch": 59, "duration": 1, "velocity": 97}, {"time": 2413, "pitch": 62, "duration": 1, "velocity": 95}, {"time": 2413, "pitch": 66, "duration": 1, "velocity": 112}, {"time": 2416, "pitch": 59, "duration": 2, "velocity": 79}, {"time": 2416, "pitch": 62, "duration": 2, "velocity": 89}, {"time": 2416, "pitch": 66, "duration": 2, "velocity": 86}, {"time": 2419, "pitch": 54, "duration": 15, "velocity": 95}, {"time": 2419, "pitch": 59, "duration": 2, "velocity": 86}, {"time": 2419, "pitch": 62, "duration": 2, "velocity": 102}, {"time": 2419, "pitch": 66, "duration": 2, "velocity": 107}, {"time": 2425, "pitch": 59, "duration": 9, "velocity": 97}, {"time": 2425, "pitch": 62, "duration": 8, "velocity": 97}, {"time": 2425, "pitch": 66, "duration": 7, "velocity": 99}, {"time": 2425, "pitch": 66, "duration": 7, "velocity": 127}, {"time": 2431, "pitch": 62, "duration": 2, "velocity": 112}, {"time": 2437, "pitch": 47, "duration": 2, "velocity": 67}, {"time": 2437, "pitch": 54, "duration": 3, "velocity": 99}, {"time": 2437, "pitch": 59, "duration": 3, "velocity": 85}, {"time": 2437, "pitch": 62, "duration": 2, "velocity": 75}, {"time": 2437, "pitch": 66, "duration": 3, "velocity": 88}, {"time": 2443, "pitch": 47, "duration": 2, "velocity": 68}, {"time": 2443, "pitch": 54, "duration": 2, "velocity": 102}, {"time": 2443, "pitch": 59, "duration": 2, "velocity": 86}, {"time": 2443, "pitch": 62, "duration": 2, "velocity": 86}, {"time": 2443, "pitch": 66, "duration": 2, "velocity": 88}, {"time": 2449, "pitch": 47, "duration": 9, "velocity": 77}, {"time": 2449, "pitch": 54, "duration": 9, "velocity": 112}, {"time": 2449, "pitch": 59, "duration": 12, "velocity": 93}, {"time": 2449, "pitch": 62, "duration": 12, "velocity": 122}, {"time": 2449, "pitch": 66, "duration": 12, "velocity": 122}, {"time": 2461, "pitch": 45, "duration": 16, "velocity": 93}, {"time": 2461, "pitch": 57, "duration": 2, "velocity": 99}, {"time": 2461, "pitch": 61, "duration": 1, "velocity": 107}, {"time": 2461, "pitch": 64, "duration": 2, "velocity": 92}, {"time": 2464, "pitch": 57, "duration": 2, "velocity": 81}, {"time": 2464, "pitch": 61, "duration": 2, "velocity": 85}, {"time": 2464, "pitch": 64, "duration": 2, "velocity": 73}, {"time": 2467, "pitch": 52, "duration": 9, "velocity": 82}, {"time": 2467, "pitch": 57, "duration": 2, "velocity": 107}, {"time": 2467, "pitch": 61, "duration": 2, "velocity": 117}, {"time": 2467, "pitch": 64, "duration": 2, "velocity": 96}, {"time": 2473, "pitch": 64, "duration": 18, "velocity": 96}, {"time": 2476, "pitch": 61, "duration": 12, "velocity": 61}, {"time": 2479, "pitch": 45, "duration": 2, "velocity": 57}, {"time": 2479, "pitch": 52, "duration": 3, "velocity": 90}, {"time": 2485, "pitch": 45, "duration": 14, "velocity": 75}, {"time": 2485, "pitch": 52, "duration": 13, "velocity": 86}, {"time": 2491, "pitch": 57, "duration": 20, "velocity": 79}, {"time": 2497, "pitch": 64, "duration": 11, "velocity": 102}, {"time": 2503, "pitch": 61, "duration": 4, "velocity": 107}, {"time": 2506, "pitch": 38, "duration": 22, "velocity": 90}, {"time": 2509, "pitch": 62, "duration": 2, "velocity": 102}, {"time": 2509, "pitch": 66, "duration": 1, "velocity": 122}, {"time": 2509, "pitch": 69, "duration": 2, "velocity": 99}, {"time": 2512, "pitch": 45, "duration": 16, "velocity": 54}, {"time": 2512, "pitch": 62, "duration": 2, "velocity": 88}, {"time": 2512, "pitch": 66, "duration": 1, "velocity": 92}, {"time": 2512, "pitch": 69, "duration": 2, "velocity": 81}, {"time": 2515, "pitch": 62, "duration": 2, "velocity": 96}, {"time": 2515, "pitch": 66, "duration": 2, "velocity": 107}, {"time": 2515, "pitch": 69, "duration": 2, "velocity": 99}, {"time": 2518, "pitch": 50, "duration": 10, "velocity": 86}, {"time": 2518, "pitch": 66, "duration": 7, "velocity": 90}, {"time": 2524, "pitch": 57, "duration": 5, "velocity": 95}, {"time": 2533, "pitch": 38, "duration": 2, "velocity": 51}, {"time": 2533, "pitch": 45, "duration": 3, "velocity": 83}, {"time": 2533, "pitch": 50, "duration": 2, "velocity": 85}, {"time": 2533, "pitch": 57, "duration": 3, "velocity": 85}, {"time": 2533, "pitch": 62, "duration": 2, "velocity": 93}, {"time": 2533, "pitch": 66, "duration": 3, "velocity": 99}, {"time": 2539, "pitch": 38, "duration": 2, "velocity": 56}, {"time": 2539, "pitch": 45, "duration": 2, "velocity": 83}, {"time": 2539, "pitch": 50, "duration": 2, "velocity": 86}, {"time": 2539, "pitch": 57, "duration": 3, "velocity": 86}, {"time": 2539, "pitch": 62, "duration": 2, "velocity": 96}, {"time": 2539, "pitch": 66, "duration": 2, "velocity": 90}, {"time": 2545, "pitch": 38, "duration": 2, "velocity": 42}, {"time": 2545, "pitch": 45, "duration": 4, "velocity": 90}, {"time": 2545, "pitch": 50, "duration": 5, "velocity": 96}, {"time": 2545, "pitch": 57, "duration": 11, "velocity": 99}, {"time": 2545, "pitch": 62, "duration": 11, "velocity": 112}, {"time": 2545, "pitch": 66, "duration": 13, "velocity": 107}, {"time": 2557, "pitch": 47, "duration": 16, "velocity": 97}, {"time": 2557, "pitch": 59, "duration": 1, "velocity": 97}, {"time": 2557, "pitch": 62, "duration": 1, "velocity": 112}, {"time": 2557, "pitch": 66, "duration": 1, "velocity": 117}, {"time": 2560, "pitch": 59, "duration": 2, "velocity": 78}, {"time": 2560, "pitch": 62, "duration": 2, "velocity": 83}, {"time": 2560, "pitch": 66, "duration": 2, "velocity": 83}, {"time": 2563, "pitch": 54, "duration": 10, "velocity": 86}, {"time": 2563, "pitch": 59, "duration": 2, "velocity": 97}, {"time": 2563, "pitch": 62, "duration": 2, "velocity": 112}, {"time": 2563, "pitch": 66, "duration": 2, "velocity": 112}, {"time": 2569, "pitch": 66, "duration": 9, "velocity": 127}, {"time": 2575, "pitch": 47, "duration": 2, "velocity": 57}, {"time": 2575, "pitch": 54, "duration": 2, "velocity": 96}, {"time": 2575, "pitch": 59, "duration": 3, "velocity": 82}, {"time": 2581, "pitch": 47, "duration": 2, "velocity": 79}, {"time": 2581, "pitch": 54, "duration": 2, "velocity": 102}, {"time": 2581, "pitch": 59, "duration": 2, "velocity": 66}, {"time": 2581, "pitch": 62, "duration": 2, "velocity": 63}, {"time": 2581, "pitch": 66, "duration": 2, "velocity": 69}, {"time": 2587, "pitch": 47, "duration": 2, "velocity": 72}, {"time": 2587, "pitch": 54, "duration": 2, "velocity": 97}, {"time": 2587, "pitch": 59, "duration": 2, "velocity": 83}, {"time": 2587, "pitch": 62, "duration": 2, "velocity": 96}, {"time": 2587, "pitch": 66, "duration": 2, "velocity": 95}, {"time": 2593, "pitch": 47, "duration": 5, "velocity": 82}, {"time": 2593, "pitch": 54, "duration": 5, "velocity": 122}, {"time": 2593, "pitch": 59, "duration": 7, "velocity": 92}, {"time": 2593, "pitch": 62, "duration": 5, "velocity": 112}, {"time": 2593, "pitch": 66, "duration": 5, "velocity": 122}, {"time": 2599, "pitch": 62, "duration": 1, "velocity": 38}, {"time": 2602, "pitch": 43, "duration": 13, "velocity": 92}, {"time": 2605, "pitch": 55, "duration": 17, "velocity": 99}, {"time": 2605, "pitch": 59, "duration": 17, "velocity": 99}, {"time": 2605, "pitch": 62, "duration": 13, "velocity": 97}, {"time": 2617, "pitch": 43, "duration": 4, "velocity": 72}, {"time": 2623, "pitch": 48, "duration": 3, "velocity": 117}, {"time": 2623, "pitch": 55, "duration": 2, "velocity": 99}, {"time": 2623, "pitch": 60, "duration": 2, "velocity": 112}, {"time": 2623, "pitch": 64, "duration": 1, "velocity": 72}, {"time": 2629, "pitch": 42, "duration": 67, "velocity": 127}, {"time": 2629, "pitch": 54, "duration": 67, "velocity": 97}, {"time": 2629, "pitch": 58, "duration": 68, "velocity": 112}, {"time": 2629, "pitch": 61, "duration": 68, "velocity": 122}, {"time": 2707, "pitch": 47, "duration": 3, "velocity": 66}, {"time": 2707, "pitch": 59, "duration": 3, "velocity": 67}, {"time": 2707, "pitch": 62, "duration": 3, "velocity": 71}, {"time": 2707, "pitch": 66, "duration": 3, "velocity": 61}, {"time": 2713, "pitch": 47, "duration": 4, "velocity": 62}, {"time": 2713, "pitch": 59, "duration": 3, "velocity": 41}, {"time": 2713, "pitch": 62, "duration": 3, "velocity": 54}, {"time": 2713, "pitch": 66, "duration": 4, "velocity": 44}, {"time": 2719, "pitch": 47, "duration": 4, "velocity": 82}, {"time": 2719, "pitch": 59, "duration": 3, "velocity": 72}, {"time": 2719, "pitch": 62, "duration": 3, "velocity": 73}, {"time": 2719, "pitch": 66, "duration": 4, "velocity": 67}, {"time": 2725, "pitch": 47, "duration": 3, "velocity": 93}, {"time": 2725, "pitch": 59, "duration": 4, "velocity": 79}, {"time": 2725, "pitch": 62, "duration": 3, "velocity": 88}, {"time": 2725, "pitch": 66, "duration": 4, "velocity": 96}, {"time": 2731, "pitch": 47, "duration": 3, "velocity": 100}, {"time": 2731, "pitch": 59, "duration": 4, "velocity": 83}, {"time": 2731, "pitch": 62, "duration": 3, "velocity": 86}, {"time": 2731, "pitch": 66, "duration": 4, "velocity": 96}, {"time": 2737, "pitch": 47, "duration": 3, "velocity": 112}, {"time": 2737, "pitch": 59, "duration": 3, "velocity": 88}, {"time": 2737, "pitch": 62, "duration": 3, "velocity": 93}, {"time": 2737, "pitch": 66, "duration": 3, "velocity": 102}, {"time": 2743, "pitch": 47, "duration": 2, "velocity": 117}, {"time": 2743, "pitch": 59, "duration": 3, "velocity": 83}, {"time": 2743, "pitch": 62, "duration": 3, "velocity": 96}, {"time": 2743, "pitch": 66, "duration": 3, "velocity": 107}, {"time": 2749, "pitch": 47, "duration": 16, "velocity": 93}, {"time": 2755, "pitch": 54, "duration": 11, "velocity": 86}, {"time": 2761, "pitch": 66, "duration": 18, "velocity": 122}, {"time": 2767, "pitch": 47, "duration": 3, "velocity": 74}, {"time": 2773, "pitch": 47, "duration": 22, "velocity": 99}, {"time": 2779, "pitch": 59, "duration": 19, "velocity": 72}, {"time": 2785, "pitch": 66, "duration": 14, "velocity": 112}, {"time": 2791, "pitch": 62, "duration": 8, "velocity": 93}, {"time": 2797, "pitch": 47, "duration": 16, "velocity": 90}, {"time": 2803, "pitch": 59, "duration": 20, "velocity": 57}, {"time": 2809, "pitch": 66, "duration": 15, "velocity": 112}, {"time": 2815, "pitch": 47, "duration": 3, "velocity": 81}, {"time": 2821, "pitch": 47, "duration": 11, "velocity": 93}, {"time": 2827, "pitch": 59, "duration": 12, "velocity": 96}, {"time": 2833, "pitch": 54, "duration": 12, "velocity": 86}, {"time": 2839, "pitch": 66, "duration": 8, "velocity": 112}, {"time": 2845, "pitch": 50, "duration": 15, "velocity": 96}, {"time": 2851, "pitch": 57, "duration": 20, "velocity": 76}, {"time": 2857, "pitch": 66, "duration": 14, "velocity": 112}, {"time": 2863, "pitch": 50, "duration": 3, "velocity": 89}, {"time": 2869, "pitch": 50, "duration": 15, "velocity": 97}, {"time": 2875, "pitch": 57, "duration": 21, "velocity": 79}, {"time": 2881, "pitch": 66, "duration": 9, "velocity": 117}, {"time": 2887, "pitch": 62, "duration": 7, "velocity": 97}, {"time": 2893, "pitch": 38, "duration": 15, "velocity": 81}, {"time": 2899, "pitch": 57, "duration": 26, "velocity": 69}, {"time": 2905, "pitch": 66, "duration": 20, "velocity": 127}, {"time": 2911, "pitch": 38, "duration": 3, "velocity": 83}, {"time": 2917, "pitch": 38, "duration": 7, "velocity": 77}, {"time": 2923, "pitch": 45, "duration": 10, "velocity": 95}, {"time": 2929, "pitch": 66, "duration": 12, "velocity": 122}, {"time": 2935, "pitch": 62, "duration": 6, "velocity": 93}, {"time": 2941, "pitch": 43, "duration": 16, "velocity": 83}, {"time": 2947, "pitch": 50, "duration": 10, "velocity": 57}, {"time": 2953, "pitch": 62, "duration": 12, "velocity": 117}, {"time": 2959, "pitch": 55, "duration": 9, "velocity": 99}, {"time": 2965, "pitch": 40, "duration": 15, "velocity": 86}, {"time": 2971, "pitch": 47, "duration": 11, "velocity": 65}, {"time": 2977, "pitch": 64, "duration": 11, "velocity": 100}, {"time": 2983, "pitch": 55, "duration": 6, "velocity": 99}, {"time": 2989, "pitch": 47, "duration": 16, "velocity": 82}, {"time": 2995, "pitch": 54, "duration": 11, "velocity": 90}, {"time": 3001, "pitch": 66, "duration": 21, "velocity": 117}, {"time": 3007, "pitch": 47, "duration": 3, "velocity": 97}, {"time": 3013, "pitch": 47, "duration": 17, "velocity": 72}, {"time": 3019, "pitch": 54, "duration": 11, "velocity": 66}, {"time": 3025, "pitch": 66, "duration": 12, "velocity": 117}, {"time": 3031, "pitch": 62, "duration": 7, "velocity": 88}, {"time": 3037, "pitch": 45, "duration": 22, "velocity": 76}, {"time": 3043, "pitch": 52, "duration": 17, "velocity": 70}, {"time": 3049, "pitch": 64, "duration": 14, "velocity": 96}, {"time": 3055, "pitch": 61, "duration": 9, "velocity": 100}, {"time": 3061, "pitch": 45, "duration": 15, "velocity": 92}, {"time": 3067, "pitch": 57, "duration": 15, "velocity": 88}, {"time": 3073, "pitch": 64, "duration": 12, "velocity": 107}, {"time": 3079, "pitch": 61, "duration": 6, "velocity": 96}, {"time": 3085, "pitch": 47, "duration": 46, "velocity": 69}, {"time": 3085, "pitch": 54, "duration": 47, "velocity": 92}, {"time": 3085, "pitch": 59, "duration": 48, "velocity": 90}, {"time": 3085, "pitch": 62, "duration": 48, "velocity": 107}, {"time": 3085, "pitch": 66, "duration": 48, "velocity": 99}, {"time": 3133, "pitch": 47, "duration": 69, "velocity": 75}, {"time": 3133, "pitch": 59, "duration": 68, "velocity": 100}, {"time": 3133, "pitch": 62, "duration": 68, "velocity": 112}, {"time": 3133, "pitch": 66, "duration": 67, "velocity": 117}, {"time": 3205, "pitch": 47, "duration": 3, "velocity": 99}, {"time": 3205, "pitch": 59, "duration": 3, "velocity": 97}, {"time": 3211, "pitch": 49, "duration": 3, "velocity": 112}, {"time": 3211, "pitch": 61, "duration": 4, "velocity": 127}, {"time": 3217, "pitch": 50, "duration": 3, "velocity": 100}, {"time": 3217, "pitch": 62, "duration": 3, "velocity": 100}, {"time": 3223, "pitch": 47, "duration": 5, "velocity": 117}, {"time": 3223, "pitch": 59, "duration": 5, "velocity": 112}, {"time": 3229, "pitch": 42, "duration": 67, "velocity": 97}, {"time": 3229, "pitch": 54, "duration": 66, "velocity": 100}, {"time": 3229, "pitch": 61, "duration": 66, "velocity": 107}, {"time": 3229, "pitch": 66, "duration": 66, "velocity": 102}, {"time": 3229, "pitch": 70, "duration": 67, "velocity": 100}, {"time": 3301, "pitch": 42, "duration": 3, "velocity": 117}, {"time": 3301, "pitch": 66, "duration": 3, "velocity": 127}, {"time": 3307, "pitch": 43, "duration": 4, "velocity": 100}, {"time": 3307, "pitch": 67, "duration": 4, "velocity": 100}, {"time": 3313, "pitch": 45, "duration": 3, "velocity": 127}, {"time": 3313, "pitch": 69, "duration": 3, "velocity": 112}, {"time": 3319, "pitch": 42, "duration": 3, "velocity": 112}, {"time": 3319, "pitch": 66, "duration": 3, "velocity": 122}, {"time": 3325, "pitch": 47, "duration": 96, "velocity": 69}, {"time": 3325, "pitch": 54, "duration": 97, "velocity": 107}, {"time": 3325, "pitch": 59, "duration": 97, "velocity": 102}, {"time": 3325, "pitch": 63, "duration": 97, "velocity": 127}, {"time": 3325, "pitch": 66, "duration": 97, "velocity": 107}], "annotations": [{"time": 445, "annotation": {"number": 64, "value": 127}, "group": "control_change"}, {"time": 489, "annotation": {"number": 64, "value": 0}, "group": "control_change"}, {"time": 493, "annotation": {"number": 64, "value": 127}, "group": "control_change"}, {"time": 536, "annotation": {"number": 64, "value": 0}, "group": "control_change"}, {"time": 541, "annotation": {"number": 64, "value": 127}, "group": "control_change"}, {"time": 585, "annotation": {"number": 64, "value": 0}, "group": "control_change"}, {"time": 590, "annotation": {"number": 64, "value": 127}, "group": "control_change"}, {"time": 635, "annotation": {"number": 64, "value": 0}, "group": "control_change"}, {"time": 638, "annotation": {"number": 64, "value": 127}, "group": "control_change"}, {"time": 658, "annotation": {"number": 64, "value": 0}, "group": "control_change"}, {"time": 662, "annotation": {"number": 64, "value": 127}, "group": "control_change"}, {"time": 682, "annotation": {"number": 64, "value": 0}, "group": "control_change"}, {"time": 686, "annotation": {"number": 64, "value": 127}, "group": "control_change"}, {"time": 729, "annotation": {"number": 64, "value": 0}, "group": "control_change"}, {"time": 733, "annotation": {"number": 64, "value": 127}, "group": "control_change"}, {"time": 777, "annotation": {"number": 64, "value": 0}, "group": "control_change"}, {"time": 781, "annotation": {"number": 64, "value": 127}, "group": "control_change"}, {"time": 826, "annotation": {"number": 64, "value": 0}, "group": "control_change"}, {"time": 835, "annotation": {"number": 64, "value": 127}, "group": "control_change"}, {"time": 875, "annotation": {"number": 64, "value": 0}, "group": "control_change"}, {"time": 877, "annotation": {"number": 64, "value": 127}, "group": "control_change"}, {"time": 922, "annotation": {"number": 64, "value": 0}, "group": "control_change"}, {"time": 925, "annotation": {"number": 64, "value": 127}, "group": "control_change"}, {"time": 938, "annotation": {"number": 64, "value": 0}, "group": "control_change"}, {"time": 940, "annotation": {"number": 64, "value": 127}, "group": "control_change"}, {"time": 942, "annotation": {"number": 64, "value": 0}, "group": "control_change"}, {"time": 949, "annotation": {"number": 64, "value": 127}, "group": "control_change"}, {"time": 970, "annotation": {"number": 64, "value": 0}, "group": "control_change"}, {"time": 973, "annotation": {"number": 64, "value": 127}, "group": "control_change"}, {"time": 982, "annotation": {"number": 64, "value": 0}, "group": "control_change"}, {"time": 985, "annotation": {"number": 64, "value": 127}, "group": "control_change"}, {"time": 1018, "annotation": {"number": 64, "value": 0}, "group": "control_change"}, {"time": 1021, "annotation": {"number": 64, "value": 127}, "group": "control_change"}, {"time": 1031, "annotation": {"number": 64, "value": 0}, "group": "control_change"}, {"time": 1045, "annotation": {"number": 64, "value": 127}, "group": "control_change"}, {"time": 1055, "annotation": {"number": 64, "value": 0}, "group": "control_change"}, {"time": 1070, "annotation": {"number": 64, "value": 127}, "group": "control_change"}, {"time": 1072, "annotation": {"number": 64, "value": 0}, "group": "control_change"}, {"time": 1093, "annotation": {"number": 64, "value": 127}, "group": "control_change"}, {"time": 1108, "annotation": {"number": 64, "value": 0}, "group": "control_change"}, {"time": 1117, "annotation": {"number": 64, "value": 127}, "group": "control_change"}, {"time": 1121, "annotation": {"number": 64, "value": 0}, "group": "control_change"}, {"time": 1165, "annotation": {"number": 64, "value": 127}, "group": "control_change"}, {"time": 1167, "annotation": {"number": 64, "value": 0}, "group": "control_change"}, {"time": 1214, "annotation": {"number": 64, "value": 127}, "group": "control_change"}, {"time": 1216, "annotation": {"number": 64, "value": 0}, "group": "control_change"}, {"time": 1236, "annotation": {"number": 64, "value": 127}, "group": "control_change"}, {"time": 1236, "annotation": {"number": 64, "value": 0}, "group": "control_change"}, {"time": 1261, "annotation": {"number": 64, "value": 127}, "group": "control_change"}, {"time": 1262, "annotation": {"number": 64, "value": 0}, "group": "control_change"}, {"time": 1309, "annotation": {"number": 64, "value": 127}, "group": "control_change"}, {"time": 1310, "annotation": {"number": 64, "value": 0}, "group": "control_change"}, {"time": 1491, "annotation": {"number": 64, "value": 127}, "group": "control_change"}, {"time": 1540, "annotation": {"number": 64, "value": 0}, "group": "control_change"}, {"time": 1628, "annotation": {"number": 64, "value": 127}, "group": "control_change"}, {"time": 1638, "annotation": {"number": 64, "value": 0}, "group": "control_change"}, {"time": 1693, "annotation": {"number": 64, "value": 127}, "group": "control_change"}, {"time": 1695, "annotation": {"number": 64, "value": 0}, "group": "control_change"}, {"time": 1699, "annotation": {"number": 64, "value": 127}, "group": "control_change"}, {"time": 1705, "annotation": {"number": 64, "value": 0}, "group": "control_change"}, {"time": 1718, "annotation": {"number": 64, "value": 127}, "group": "control_change"}, {"time": 1726, "annotation": {"number": 64, "value": 0}, "group": "control_change"}, {"time": 1741, "annotation": {"number": 64, "value": 127}, "group": "control_change"}, {"time": 1750, "annotation": {"number": 64, "value": 0}, "group": "control_change"}, {"time": 1751, "annotation": {"number": 64, "value": 127}, "group": "control_change"}, {"time": 1751, "annotation": {"number": 64, "value": 0}, "group": "control_change"}, {"time": 1766, "annotation": {"number": 64, "value": 127}, "group": "control_change"}, {"time": 1785, "annotation": {"number": 64, "value": 0}, "group": "control_change"}, {"time": 1790, "annotation": {"number": 64, "value": 127}, "group": "control_change"}, {"time": 1797, "annotation": {"number": 64, "value": 0}, "group": "control_change"}, {"time": 1798, "annotation": {"number": 64, "value": 127}, "group": "control_change"}, {"time": 1798, "annotation": {"number": 64, "value": 0}, "group": "control_change"}, {"time": 1807, "annotation": {"number": 64, "value": 127}, "group": "control_change"}, {"time": 1809, "annotation": {"number": 64, "value": 0}, "group": "control_change"}, {"time": 1814, "annotation": {"number": 64, "value": 127}, "group": "control_change"}, {"time": 1819, "annotation": {"number": 64, "value": 0}, "group": "control_change"}, {"time": 1837, "annotation": {"number": 64, "value": 127}, "group": "control_change"}, {"time": 1840, "annotation": {"number": 64, "value": 0}, "group": "control_change"}, {"time": 1862, "annotation": {"number": 64, "value": 127}, "group": "control_change"}, {"time": 1881, "annotation": {"number": 64, "value": 0}, "group": "control_change"}, {"time": 1886, "annotation": {"number": 64, "value": 127}, "group": "control_change"}, {"time": 1902, "annotation": {"number": 64, "value": 0}, "group": "control_change"}, {"time": 1933, "annotation": {"number": 64, "value": 127}, "group": "control_change"}, {"time": 1981, "annotation": {"number": 64, "value": 127}, "group": "control_change"}, {"time": 1983, "annotation": {"number": 64, "value": 0}, "group": "control_change"}, {"time": 1993, "annotation": {"number": 64, "value": 127}, "group": "control_change"}, {"time": 2024, "annotation": {"number": 64, "value": 0}, "group": "control_change"}, {"time": 2054, "annotation": {"number": 64, "value": 127}, "group": "control_change"}, {"time": 2072, "annotation": {"number": 64, "value": 0}, "group": "control_change"}, {"time": 2090, "annotation": {"number": 64, "value": 127}, "group": "control_change"}, {"time": 2121, "annotation": {"number": 64, "value": 0}, "group": "control_change"}, {"time": 2138, "annotation": {"number": 64, "value": 127}, "group": "control_change"}, {"time": 2169, "annotation": {"number": 64, "value": 0}, "group": "control_change"}, {"time": 2178, "annotation": {"number": 64, "value": 127}, "group": "control_change"}, {"time": 2215, "annotation": {"number": 64, "value": 0}, "group": "control_change"}, {"time": 2221, "annotation": {"number": 64, "value": 127}, "group": "control_change"}, {"time": 2222, "annotation": {"number": 64, "value": 0}, "group": "control_change"}, {"time": 2234, "annotation": {"number": 64, "value": 127}, "group": "control_change"}, {"time": 2264, "annotation": {"number": 64, "value": 0}, "group": "control_change"}, {"time": 2270, "annotation": {"number": 64, "value": 127}, "group": "control_change"}, {"time": 2270, "annotation": {"number": 64, "value": 0}, "group": "control_change"}, {"time": 2282, "annotation": {"number": 64, "value": 127}, "group": "control_change"}, {"time": 2311, "annotation": {"number": 64, "value": 0}, "group": "control_change"}, {"time": 2317, "annotation": {"number": 64, "value": 127}, "group": "control_change"}, {"time": 2318, "annotation": {"number": 64, "value": 0}, "group": "control_change"}, {"time": 2330, "annotation": {"number": 64, "value": 127}, "group": "control_change"}, {"time": 2355, "annotation": {"number": 64, "value": 0}, "group": "control_change"}, {"time": 2367, "annotation": {"number": 64, "value": 127}, "group": "control_change"}, {"time": 2384, "annotation": {"number": 64, "value": 0}, "group": "control_change"}, {"time": 2412, "annotation": {"number": 64, "value": 127}, "group": "control_change"}, {"time": 2430, "annotation": {"number": 64, "value": 0}, "group": "control_change"}, {"time": 2448, "annotation": {"number": 64, "value": 127}, "group": "control_change"}, {"time": 2451, "annotation": {"number": 64, "value": 0}, "group": "control_change"}, {"time": 2495, "annotation": {"number": 64, "value": 127}, "group": "control_change"}, {"time": 2498, "annotation": {"number": 64, "value": 0}, "group": "control_change"}, {"time": 2533, "annotation": {"number": 64, "value": 127}, "group": "control_change"}, {"time": 2534, "annotation": {"number": 64, "value": 0}, "group": "control_change"}, {"time": 2544, "annotation": {"number": 64, "value": 127}, "group": "control_change"}, {"time": 2550, "annotation": {"number": 64, "value": 0}, "group": "control_change"}, {"time": 2557, "annotation": {"number": 64, "value": 127}, "group": "control_change"}, {"time": 2559, "annotation": {"number": 64, "value": 0}, "group": "control_change"}, {"time": 2604, "annotation": {"number": 64, "value": 127}, "group": "control_change"}, {"time": 2606, "annotation": {"number": 64, "value": 0}, "group": "control_change"}, {"time": 2701, "annotation": {"number": 64, "value": 127}, "group": "control_change"}, {"time": 2701, "annotation": {"number": 64, "value": 0}, "group": "control_change"}, {"time": 2780, "annotation": {"number": 64, "value": 127}, "group": "control_change"}, {"time": 2790, "annotation": {"number": 64, "value": 0}, "group": "control_change"}, {"time": 2845, "annotation": {"number": 64, "value": 127}, "group": "control_change"}, {"time": 2847, "annotation": {"number": 64, "value": 0}, "group": "control_change"}, {"time": 2851, "annotation": {"number": 64, "value": 127}, "group": "control_change"}, {"time": 2857, "annotation": {"number": 64, "value": 0}, "group": "control_change"}, {"time": 2870, "annotation": {"number": 64, "value": 127}, "group": "control_change"}, {"time": 2878, "annotation": {"number": 64, "value": 0}, "group": "control_change"}, {"time": 2893, "annotation": {"number": 64, "value": 127}, "group": "control_change"}, {"time": 2902, "annotation": {"number": 64, "value": 0}, "group": "control_change"}, {"time": 2903, "annotation": {"number": 64, "value": 127}, "group": "control_change"}, {"time": 2903, "annotation": {"number": 64, "value": 0}, "group": "control_change"}, {"time": 2918, "annotation": {"number": 64, "value": 127}, "group": "control_change"}, {"time": 2937, "annotation": {"number": 64, "value": 0}, "group": "control_change"}, {"time": 2942, "annotation": {"number": 64, "value": 127}, "group": "control_change"}, {"time": 2949, "annotation": {"number": 64, "value": 0}, "group": "control_change"}, {"time": 2950, "annotation": {"number": 64, "value": 127}, "group": "control_change"}, {"time": 2950, "annotation": {"number": 64, "value": 0}, "group": "control_change"}, {"time": 2959, "annotation": {"number": 64, "value": 127}, "group": "control_change"}, {"time": 2961, "annotation": {"number": 64, "value": 0}, "group": "control_change"}, {"time": 2966, "annotation": {"number": 64, "value": 127}, "group": "control_change"}, {"time": 2971, "annotation": {"number": 64, "value": 0}, "group": "control_change"}, {"time": 2989, "annotation": {"number": 64, "value": 127}, "group": "control_change"}, {"time": 2992, "annotation": {"number": 64, "value": 0}, "group": "control_change"}, {"time": 3014, "annotation": {"number": 64, "value": 127}, "group": "control_change"}, {"time": 3033, "annotation": {"number": 64, "value": 0}, "group": "control_change"}, {"time": 3038, "annotation": {"number": 64, "value": 127}, "group": "control_change"}, {"time": 3054, "annotation": {"number": 64, "value": 0}, "group": "control_change"}, {"time": 3085, "annotation": {"number": 64, "value": 127}, "group": "control_change"}, {"time": 3133, "annotation": {"number": 64, "value": 127}, "group": "control_change"}, {"time": 3150, "annotation": {"number": 64, "value": 127}, "group": "control_change"}, {"time": 3197, "annotation": {"number": 64, "value": 0}, "group": "control_change"}]}]}