{"metadata": {"schema_version": "0.2", "title": "None", "source_filename": "445.mid", "source_format": "midi"}, "resolution": 12, "tempos": [{"time": 0, "qpm": 78.000078000078}], "time_signatures": [{"time": 0, "numerator": 1, "denominator": 4}], "tracks": [{"program": 0, "is_drum": false, "name": "MELODY", "notes": [{"time": 424, "pitch": 63, "duration": 2, "velocity": 127}, {"time": 430, "pitch": 63, "duration": 2, "velocity": 122}, {"time": 436, "pitch": 63, "duration": 3, "velocity": 117}, {"time": 442, "pitch": 63, "duration": 3, "velocity": 122}, {"time": 448, "pitch": 62, "duration": 5, "velocity": 112}, {"time": 454, "pitch": 65, "duration": 4, "velocity": 117}, {"time": 460, "pitch": 65, "duration": 4, "velocity": 117}, {"time": 466, "pitch": 63, "duration": 6, "velocity": 97}, {"time": 472, "pitch": 60, "duration": 14, "velocity": 97}, {"time": 520, "pitch": 60, "duration": 4, "velocity": 100}, {"time": 526, "pitch": 60, "duration": 4, "velocity": 117}, {"time": 532, "pitch": 60, "duration": 4, "velocity": 117}, {"time": 538, "pitch": 67, "duration": 4, "velocity": 117}, {"time": 544, "pitch": 65, "duration": 4, "velocity": 122}, {"time": 550, "pitch": 65, "duration": 4, "velocity": 112}, {"time": 556, "pitch": 65, "duration": 4, "velocity": 117}, {"time": 562, "pitch": 60, "duration": 5, "velocity": 112}, {"time": 568, "pitch": 67, "duration": 13, "velocity": 127}, {"time": 604, "pitch": 67, "duration": 5, "velocity": 127}, {"time": 610, "pitch": 65, "duration": 4, "velocity": 122}, {"time": 616, "pitch": 67, "duration": 4, "velocity": 117}, {"time": 622, "pitch": 60, "duration": 4, "velocity": 117}, {"time": 628, "pitch": 60, "duration": 4, "velocity": 102}, {"time": 634, "pitch": 67, "duration": 4, "velocity": 112}, {"time": 640, "pitch": 65, "duration": 7, "velocity": 122}, {"time": 652, "pitch": 63, "duration": 4, "velocity": 122}, {"time": 658, "pitch": 65, "duration": 4, "velocity": 96}, {"time": 664, "pitch": 67, "duration": 4, "velocity": 117}, {"time": 670, "pitch": 60, "duration": 4, "velocity": 97}, {"time": 676, "pitch": 60, "duration": 3, "velocity": 107}, {"time": 682, "pitch": 58, "duration": 4, "velocity": 112}, {"time": 688, "pitch": 60, "duration": 5, "velocity": 127}, {"time": 712, "pitch": 63, "duration": 4, "velocity": 127}, {"time": 718, "pitch": 62, "duration": 4, "velocity": 102}, {"time": 724, "pitch": 60, "duration": 4, "velocity": 99}, {"time": 730, "pitch": 58, "duration": 4, "velocity": 107}, {"time": 736, "pitch": 62, "duration": 6, "velocity": 127}, {"time": 745, "pitch": 63, "duration": 4, "velocity": 112}, {"time": 754, "pitch": 62, "duration": 7, "velocity": 107}, {"time": 766, "pitch": 60, "duration": 33, "velocity": 99}, {"time": 808, "pitch": 63, "duration": 3, "velocity": 127}, {"time": 814, "pitch": 63, "duration": 3, "velocity": 127}, {"time": 820, "pitch": 63, "duration": 3, "velocity": 122}, {"time": 826, "pitch": 63, "duration": 3, "velocity": 127}, {"time": 832, "pitch": 65, "duration": 5, "velocity": 117}, {"time": 838, "pitch": 63, "duration": 3, "velocity": 112}, {"time": 844, "pitch": 63, "duration": 5, "velocity": 122}, {"time": 850, "pitch": 60, "duration": 4, "velocity": 99}, {"time": 856, "pitch": 60, "duration": 36, "velocity": 112}, {"time": 904, "pitch": 60, "duration": 4, "velocity": 107}, {"time": 910, "pitch": 60, "duration": 4, "velocity": 100}, {"time": 916, "pitch": 60, "duration": 4, "velocity": 107}, {"time": 922, "pitch": 67, "duration": 5, "velocity": 107}, {"time": 928, "pitch": 65, "duration": 4, "velocity": 112}, {"time": 934, "pitch": 65, "duration": 5, "velocity": 112}, {"time": 940, "pitch": 65, "duration": 4, "velocity": 99}, {"time": 946, "pitch": 58, "duration": 6, "velocity": 100}, {"time": 952, "pitch": 67, "duration": 14, "velocity": 112}, {"time": 988, "pitch": 67, "duration": 5, "velocity": 122}, {"time": 994, "pitch": 65, "duration": 4, "velocity": 112}, {"time": 1000, "pitch": 63, "duration": 5, "velocity": 122}, {"time": 1006, "pitch": 63, "duration": 3, "velocity": 122}, {"time": 1009, "pitch": 60, "duration": 3, "velocity": 102}, {"time": 1012, "pitch": 60, "duration": 4, "velocity": 107}, {"time": 1018, "pitch": 63, "duration": 5, "velocity": 112}, {"time": 1024, "pitch": 65, "duration": 4, "velocity": 127}, {"time": 1036, "pitch": 63, "duration": 4, "velocity": 127}, {"time": 1042, "pitch": 65, "duration": 4, "velocity": 122}, {"time": 1048, "pitch": 67, "duration": 5, "velocity": 127}, {"time": 1054, "pitch": 60, "duration": 4, "velocity": 117}, {"time": 1060, "pitch": 60, "duration": 4, "velocity": 100}, {"time": 1066, "pitch": 58, "duration": 5, "velocity": 102}, {"time": 1072, "pitch": 60, "duration": 12, "velocity": 112}, {"time": 1096, "pitch": 63, "duration": 5, "velocity": 127}, {"time": 1102, "pitch": 62, "duration": 5, "velocity": 97}, {"time": 1108, "pitch": 60, "duration": 5, "velocity": 112}, {"time": 1114, "pitch": 70, "duration": 6, "velocity": 127}, {"time": 1120, "pitch": 62, "duration": 11, "velocity": 112}, {"time": 1129, "pitch": 63, "duration": 7, "velocity": 117}, {"time": 1138, "pitch": 62, "duration": 8, "velocity": 112}, {"time": 1150, "pitch": 60, "duration": 25, "velocity": 112}, {"time": 1180, "pitch": 63, "duration": 5, "velocity": 122}, {"time": 1186, "pitch": 65, "duration": 4, "velocity": 117}, {"time": 1192, "pitch": 67, "duration": 11, "velocity": 127}, {"time": 1204, "pitch": 70, "duration": 4, "velocity": 127}, {"time": 1210, "pitch": 72, "duration": 4, "velocity": 122}, {"time": 1216, "pitch": 70, "duration": 4, "velocity": 127}, {"time": 1222, "pitch": 67, "duration": 4, "velocity": 122}, {"time": 1228, "pitch": 65, "duration": 4, "velocity": 122}, {"time": 1234, "pitch": 63, "duration": 5, "velocity": 127}, {"time": 1240, "pitch": 67, "duration": 25, "velocity": 117}, {"time": 1276, "pitch": 63, "duration": 5, "velocity": 127}, {"time": 1282, "pitch": 65, "duration": 4, "velocity": 127}, {"time": 1288, "pitch": 67, "duration": 8, "velocity": 127}, {"time": 1300, "pitch": 70, "duration": 4, "velocity": 127}, {"time": 1306, "pitch": 72, "duration": 4, "velocity": 127}, {"time": 1312, "pitch": 70, "duration": 3, "velocity": 127}, {"time": 1318, "pitch": 67, "duration": 4, "velocity": 127}, {"time": 1324, "pitch": 65, "duration": 4, "velocity": 127}, {"time": 1330, "pitch": 63, "duration": 5, "velocity": 122}, {"time": 1336, "pitch": 60, "duration": 21, "velocity": 117}, {"time": 1372, "pitch": 63, "duration": 4, "velocity": 127}, {"time": 1378, "pitch": 65, "duration": 4, "velocity": 122}, {"time": 1384, "pitch": 67, "duration": 5, "velocity": 127}, {"time": 1390, "pitch": 65, "duration": 4, "velocity": 102}, {"time": 1396, "pitch": 65, "duration": 4, "velocity": 112}, {"time": 1402, "pitch": 63, "duration": 4, "velocity": 117}, {"time": 1408, "pitch": 65, "duration": 6, "velocity": 117}, {"time": 1420, "pitch": 63, "duration": 5, "velocity": 127}, {"time": 1426, "pitch": 65, "duration": 5, "velocity": 112}, {"time": 1432, "pitch": 67, "duration": 4, "velocity": 117}, {"time": 1438, "pitch": 60, "duration": 4, "velocity": 102}, {"time": 1444, "pitch": 60, "duration": 4, "velocity": 117}, {"time": 1450, "pitch": 58, "duration": 4, "velocity": 102}, {"time": 1456, "pitch": 60, "duration": 7, "velocity": 127}, {"time": 1480, "pitch": 63, "duration": 5, "velocity": 127}, {"time": 1486, "pitch": 62, "duration": 5, "velocity": 127}, {"time": 1492, "pitch": 60, "duration": 4, "velocity": 112}, {"time": 1498, "pitch": 70, "duration": 4, "velocity": 127}, {"time": 1504, "pitch": 62, "duration": 11, "velocity": 122}, {"time": 1513, "pitch": 63, "duration": 4, "velocity": 122}, {"time": 1522, "pitch": 65, "duration": 4, "velocity": 107}, {"time": 1528, "pitch": 63, "duration": 30, "velocity": 127}, {"time": 1564, "pitch": 63, "duration": 5, "velocity": 122}, {"time": 1570, "pitch": 65, "duration": 4, "velocity": 117}, {"time": 1576, "pitch": 67, "duration": 11, "velocity": 127}, {"time": 1588, "pitch": 70, "duration": 4, "velocity": 127}, {"time": 1594, "pitch": 72, "duration": 4, "velocity": 122}, {"time": 1600, "pitch": 70, "duration": 4, "velocity": 127}, {"time": 1606, "pitch": 67, "duration": 4, "velocity": 122}, {"time": 1612, "pitch": 65, "duration": 4, "velocity": 122}, {"time": 1618, "pitch": 63, "duration": 5, "velocity": 127}, {"time": 1624, "pitch": 67, "duration": 25, "velocity": 117}, {"time": 1660, "pitch": 63, "duration": 5, "velocity": 127}, {"time": 1666, "pitch": 65, "duration": 4, "velocity": 127}, {"time": 1672, "pitch": 67, "duration": 8, "velocity": 127}, {"time": 1684, "pitch": 70, "duration": 4, "velocity": 127}, {"time": 1690, "pitch": 72, "duration": 4, "velocity": 127}, {"time": 1696, "pitch": 70, "duration": 3, "velocity": 127}, {"time": 1702, "pitch": 67, "duration": 4, "velocity": 127}, {"time": 1708, "pitch": 65, "duration": 4, "velocity": 127}, {"time": 1714, "pitch": 63, "duration": 5, "velocity": 122}, {"time": 1720, "pitch": 60, "duration": 30, "velocity": 117}, {"time": 1756, "pitch": 63, "duration": 4, "velocity": 127}, {"time": 1762, "pitch": 65, "duration": 4, "velocity": 122}, {"time": 1768, "pitch": 67, "duration": 5, "velocity": 127}, {"time": 1774, "pitch": 65, "duration": 4, "velocity": 102}, {"time": 1780, "pitch": 65, "duration": 4, "velocity": 112}, {"time": 1786, "pitch": 63, "duration": 4, "velocity": 117}, {"time": 1792, "pitch": 65, "duration": 6, "velocity": 117}, {"time": 1804, "pitch": 63, "duration": 5, "velocity": 127}, {"time": 1810, "pitch": 65, "duration": 5, "velocity": 112}, {"time": 1816, "pitch": 67, "duration": 4, "velocity": 117}, {"time": 1822, "pitch": 60, "duration": 4, "velocity": 102}, {"time": 1828, "pitch": 60, "duration": 4, "velocity": 117}, {"time": 1834, "pitch": 58, "duration": 4, "velocity": 102}, {"time": 1840, "pitch": 60, "duration": 7, "velocity": 127}, {"time": 1864, "pitch": 63, "duration": 5, "velocity": 127}, {"time": 1870, "pitch": 62, "duration": 5, "velocity": 127}, {"time": 1876, "pitch": 60, "duration": 4, "velocity": 112}, {"time": 1882, "pitch": 70, "duration": 4, "velocity": 127}, {"time": 1888, "pitch": 62, "duration": 11, "velocity": 122}, {"time": 1906, "pitch": 58, "duration": 10, "velocity": 107}, {"time": 1918, "pitch": 60, "duration": 29, "velocity": 97}, {"time": 2152, "pitch": 63, "duration": 3, "velocity": 127}, {"time": 2158, "pitch": 63, "duration": 3, "velocity": 127}, {"time": 2164, "pitch": 63, "duration": 3, "velocity": 122}, {"time": 2170, "pitch": 63, "duration": 3, "velocity": 127}, {"time": 2176, "pitch": 65, "duration": 5, "velocity": 117}, {"time": 2182, "pitch": 63, "duration": 3, "velocity": 112}, {"time": 2188, "pitch": 63, "duration": 5, "velocity": 122}, {"time": 2194, "pitch": 60, "duration": 4, "velocity": 99}, {"time": 2200, "pitch": 60, "duration": 36, "velocity": 112}, {"time": 2248, "pitch": 60, "duration": 4, "velocity": 107}, {"time": 2254, "pitch": 60, "duration": 4, "velocity": 100}, {"time": 2260, "pitch": 60, "duration": 4, "velocity": 107}, {"time": 2266, "pitch": 67, "duration": 5, "velocity": 107}, {"time": 2272, "pitch": 65, "duration": 4, "velocity": 112}, {"time": 2278, "pitch": 65, "duration": 5, "velocity": 112}, {"time": 2284, "pitch": 65, "duration": 4, "velocity": 99}, {"time": 2290, "pitch": 58, "duration": 6, "velocity": 100}, {"time": 2296, "pitch": 67, "duration": 14, "velocity": 112}, {"time": 2332, "pitch": 67, "duration": 5, "velocity": 122}, {"time": 2338, "pitch": 65, "duration": 4, "velocity": 112}, {"time": 2344, "pitch": 63, "duration": 5, "velocity": 122}, {"time": 2350, "pitch": 63, "duration": 3, "velocity": 122}, {"time": 2353, "pitch": 60, "duration": 3, "velocity": 102}, {"time": 2356, "pitch": 60, "duration": 4, "velocity": 107}, {"time": 2362, "pitch": 63, "duration": 5, "velocity": 112}, {"time": 2368, "pitch": 65, "duration": 4, "velocity": 127}, {"time": 2380, "pitch": 63, "duration": 4, "velocity": 127}, {"time": 2386, "pitch": 65, "duration": 4, "velocity": 122}, {"time": 2392, "pitch": 67, "duration": 5, "velocity": 127}, {"time": 2398, "pitch": 60, "duration": 4, "velocity": 117}, {"time": 2404, "pitch": 60, "duration": 4, "velocity": 100}, {"time": 2410, "pitch": 58, "duration": 5, "velocity": 102}, {"time": 2416, "pitch": 60, "duration": 12, "velocity": 112}, {"time": 2440, "pitch": 63, "duration": 5, "velocity": 127}, {"time": 2446, "pitch": 62, "duration": 5, "velocity": 97}, {"time": 2452, "pitch": 60, "duration": 5, "velocity": 112}, {"time": 2458, "pitch": 70, "duration": 6, "velocity": 127}, {"time": 2464, "pitch": 62, "duration": 11, "velocity": 112}, {"time": 2473, "pitch": 63, "duration": 7, "velocity": 117}, {"time": 2482, "pitch": 62, "duration": 8, "velocity": 112}, {"time": 2494, "pitch": 60, "duration": 25, "velocity": 112}, {"time": 2524, "pitch": 63, "duration": 5, "velocity": 122}, {"time": 2530, "pitch": 65, "duration": 4, "velocity": 117}, {"time": 2536, "pitch": 67, "duration": 11, "velocity": 127}, {"time": 2548, "pitch": 70, "duration": 4, "velocity": 127}, {"time": 2554, "pitch": 72, "duration": 4, "velocity": 122}, {"time": 2560, "pitch": 70, "duration": 4, "velocity": 127}, {"time": 2566, "pitch": 67, "duration": 4, "velocity": 122}, {"time": 2572, "pitch": 65, "duration": 4, "velocity": 122}, {"time": 2578, "pitch": 63, "duration": 5, "velocity": 127}, {"time": 2584, "pitch": 67, "duration": 25, "velocity": 117}, {"time": 2620, "pitch": 63, "duration": 5, "velocity": 127}, {"time": 2626, "pitch": 65, "duration": 4, "velocity": 127}, {"time": 2632, "pitch": 67, "duration": 8, "velocity": 127}, {"time": 2644, "pitch": 70, "duration": 4, "velocity": 127}, {"time": 2650, "pitch": 72, "duration": 4, "velocity": 127}, {"time": 2656, "pitch": 70, "duration": 3, "velocity": 127}, {"time": 2662, "pitch": 67, "duration": 4, "velocity": 127}, {"time": 2668, "pitch": 65, "duration": 4, "velocity": 127}, {"time": 2674, "pitch": 63, "duration": 5, "velocity": 122}, {"time": 2680, "pitch": 60, "duration": 21, "velocity": 117}, {"time": 2716, "pitch": 63, "duration": 4, "velocity": 127}, {"time": 2722, "pitch": 65, "duration": 4, "velocity": 122}, {"time": 2728, "pitch": 67, "duration": 5, "velocity": 127}, {"time": 2734, "pitch": 65, "duration": 4, "velocity": 102}, {"time": 2740, "pitch": 65, "duration": 4, "velocity": 112}, {"time": 2746, "pitch": 63, "duration": 4, "velocity": 117}, {"time": 2752, "pitch": 65, "duration": 6, "velocity": 117}, {"time": 2764, "pitch": 63, "duration": 5, "velocity": 127}, {"time": 2770, "pitch": 65, "duration": 5, "velocity": 112}, {"time": 2776, "pitch": 67, "duration": 4, "velocity": 117}, {"time": 2782, "pitch": 60, "duration": 4, "velocity": 102}, {"time": 2788, "pitch": 60, "duration": 4, "velocity": 117}, {"time": 2794, "pitch": 58, "duration": 4, "velocity": 102}, {"time": 2800, "pitch": 60, "duration": 7, "velocity": 127}, {"time": 2824, "pitch": 63, "duration": 5, "velocity": 127}, {"time": 2830, "pitch": 62, "duration": 5, "velocity": 127}, {"time": 2836, "pitch": 60, "duration": 4, "velocity": 112}, {"time": 2842, "pitch": 70, "duration": 4, "velocity": 127}, {"time": 2848, "pitch": 62, "duration": 11, "velocity": 122}, {"time": 2857, "pitch": 63, "duration": 4, "velocity": 122}, {"time": 2866, "pitch": 65, "duration": 4, "velocity": 107}, {"time": 2872, "pitch": 63, "duration": 30, "velocity": 127}, {"time": 2908, "pitch": 63, "duration": 5, "velocity": 122}, {"time": 2914, "pitch": 65, "duration": 4, "velocity": 117}, {"time": 2920, "pitch": 67, "duration": 11, "velocity": 127}, {"time": 2932, "pitch": 70, "duration": 4, "velocity": 127}, {"time": 2938, "pitch": 72, "duration": 4, "velocity": 122}, {"time": 2944, "pitch": 70, "duration": 4, "velocity": 127}, {"time": 2950, "pitch": 67, "duration": 4, "velocity": 122}, {"time": 2956, "pitch": 65, "duration": 4, "velocity": 122}, {"time": 2962, "pitch": 63, "duration": 5, "velocity": 127}, {"time": 2968, "pitch": 67, "duration": 25, "velocity": 117}, {"time": 3004, "pitch": 63, "duration": 5, "velocity": 127}, {"time": 3010, "pitch": 65, "duration": 4, "velocity": 127}, {"time": 3016, "pitch": 67, "duration": 8, "velocity": 127}, {"time": 3028, "pitch": 70, "duration": 4, "velocity": 127}, {"time": 3034, "pitch": 72, "duration": 4, "velocity": 127}, {"time": 3040, "pitch": 70, "duration": 3, "velocity": 127}, {"time": 3046, "pitch": 67, "duration": 4, "velocity": 127}, {"time": 3052, "pitch": 65, "duration": 4, "velocity": 127}, {"time": 3058, "pitch": 63, "duration": 5, "velocity": 122}, {"time": 3064, "pitch": 60, "duration": 30, "velocity": 117}, {"time": 3100, "pitch": 63, "duration": 4, "velocity": 127}, {"time": 3106, "pitch": 65, "duration": 4, "velocity": 122}, {"time": 3112, "pitch": 67, "duration": 5, "velocity": 127}, {"time": 3118, "pitch": 65, "duration": 4, "velocity": 102}, {"time": 3124, "pitch": 65, "duration": 4, "velocity": 112}, {"time": 3130, "pitch": 63, "duration": 4, "velocity": 117}, {"time": 3136, "pitch": 65, "duration": 6, "velocity": 117}, {"time": 3148, "pitch": 63, "duration": 5, "velocity": 127}, {"time": 3154, "pitch": 65, "duration": 5, "velocity": 112}, {"time": 3160, "pitch": 67, "duration": 4, "velocity": 117}, {"time": 3166, "pitch": 60, "duration": 4, "velocity": 102}, {"time": 3172, "pitch": 60, "duration": 4, "velocity": 117}, {"time": 3178, "pitch": 58, "duration": 4, "velocity": 102}, {"time": 3184, "pitch": 60, "duration": 7, "velocity": 127}, {"time": 3208, "pitch": 63, "duration": 5, "velocity": 127}, {"time": 3214, "pitch": 62, "duration": 5, "velocity": 127}, {"time": 3220, "pitch": 60, "duration": 4, "velocity": 112}, {"time": 3226, "pitch": 70, "duration": 4, "velocity": 127}, {"time": 3232, "pitch": 62, "duration": 11, "velocity": 122}, {"time": 3250, "pitch": 58, "duration": 10, "velocity": 107}, {"time": 3262, "pitch": 60, "duration": 29, "velocity": 97}, {"time": 3292, "pitch": 63, "duration": 5, "velocity": 122}, {"time": 3298, "pitch": 65, "duration": 4, "velocity": 117}, {"time": 3304, "pitch": 67, "duration": 11, "velocity": 127}, {"time": 3316, "pitch": 70, "duration": 4, "velocity": 127}, {"time": 3322, "pitch": 72, "duration": 4, "velocity": 122}, {"time": 3328, "pitch": 70, "duration": 4, "velocity": 127}, {"time": 3334, "pitch": 67, "duration": 4, "velocity": 122}, {"time": 3340, "pitch": 65, "duration": 4, "velocity": 122}, {"time": 3346, "pitch": 63, "duration": 5, "velocity": 127}, {"time": 3352, "pitch": 67, "duration": 25, "velocity": 117}, {"time": 3388, "pitch": 63, "duration": 5, "velocity": 127}, {"time": 3394, "pitch": 65, "duration": 4, "velocity": 127}, {"time": 3400, "pitch": 67, "duration": 8, "velocity": 127}, {"time": 3412, "pitch": 70, "duration": 4, "velocity": 127}, {"time": 3418, "pitch": 72, "duration": 4, "velocity": 127}, {"time": 3424, "pitch": 70, "duration": 3, "velocity": 127}, {"time": 3430, "pitch": 67, "duration": 4, "velocity": 127}, {"time": 3436, "pitch": 65, "duration": 4, "velocity": 127}, {"time": 3442, "pitch": 63, "duration": 5, "velocity": 122}, {"time": 3448, "pitch": 60, "duration": 21, "velocity": 117}, {"time": 3484, "pitch": 63, "duration": 4, "velocity": 127}, {"time": 3490, "pitch": 65, "duration": 4, "velocity": 122}, {"time": 3496, "pitch": 67, "duration": 5, "velocity": 127}, {"time": 3502, "pitch": 65, "duration": 4, "velocity": 102}, {"time": 3508, "pitch": 65, "duration": 4, "velocity": 112}, {"time": 3514, "pitch": 63, "duration": 4, "velocity": 117}, {"time": 3520, "pitch": 65, "duration": 6, "velocity": 117}, {"time": 3532, "pitch": 63, "duration": 5, "velocity": 127}, {"time": 3538, "pitch": 65, "duration": 5, "velocity": 112}, {"time": 3544, "pitch": 67, "duration": 4, "velocity": 117}, {"time": 3550, "pitch": 60, "duration": 4, "velocity": 102}, {"time": 3556, "pitch": 60, "duration": 4, "velocity": 117}, {"time": 3562, "pitch": 58, "duration": 4, "velocity": 102}, {"time": 3568, "pitch": 60, "duration": 7, "velocity": 127}, {"time": 3592, "pitch": 63, "duration": 5, "velocity": 127}, {"time": 3598, "pitch": 62, "duration": 5, "velocity": 127}, {"time": 3604, "pitch": 60, "duration": 4, "velocity": 112}, {"time": 3610, "pitch": 70, "duration": 4, "velocity": 127}, {"time": 3616, "pitch": 62, "duration": 11, "velocity": 122}, {"time": 3625, "pitch": 63, "duration": 4, "velocity": 122}, {"time": 3634, "pitch": 65, "duration": 4, "velocity": 107}, {"time": 3640, "pitch": 63, "duration": 30, "velocity": 127}, {"time": 3676, "pitch": 63, "duration": 5, "velocity": 122}, {"time": 3682, "pitch": 65, "duration": 4, "velocity": 117}, {"time": 3688, "pitch": 67, "duration": 11, "velocity": 127}, {"time": 3700, "pitch": 70, "duration": 4, "velocity": 127}, {"time": 3706, "pitch": 72, "duration": 4, "velocity": 122}, {"time": 3712, "pitch": 70, "duration": 4, "velocity": 127}, {"time": 3718, "pitch": 67, "duration": 4, "velocity": 122}, {"time": 3724, "pitch": 65, "duration": 4, "velocity": 122}, {"time": 3730, "pitch": 63, "duration": 5, "velocity": 127}, {"time": 3736, "pitch": 67, "duration": 25, "velocity": 117}, {"time": 3772, "pitch": 63, "duration": 5, "velocity": 127}, {"time": 3778, "pitch": 65, "duration": 4, "velocity": 127}, {"time": 3784, "pitch": 67, "duration": 8, "velocity": 127}, {"time": 3796, "pitch": 70, "duration": 4, "velocity": 127}, {"time": 3802, "pitch": 72, "duration": 4, "velocity": 127}, {"time": 3808, "pitch": 70, "duration": 3, "velocity": 127}, {"time": 3814, "pitch": 67, "duration": 4, "velocity": 127}, {"time": 3820, "pitch": 65, "duration": 4, "velocity": 127}, {"time": 3826, "pitch": 63, "duration": 5, "velocity": 122}, {"time": 3832, "pitch": 60, "duration": 30, "velocity": 117}, {"time": 3868, "pitch": 63, "duration": 4, "velocity": 127}, {"time": 3874, "pitch": 65, "duration": 4, "velocity": 122}, {"time": 3880, "pitch": 67, "duration": 5, "velocity": 127}, {"time": 3886, "pitch": 65, "duration": 4, "velocity": 102}, {"time": 3892, "pitch": 65, "duration": 4, "velocity": 112}, {"time": 3898, "pitch": 63, "duration": 4, "velocity": 117}, {"time": 3904, "pitch": 65, "duration": 6, "velocity": 117}, {"time": 3916, "pitch": 63, "duration": 5, "velocity": 127}, {"time": 3922, "pitch": 65, "duration": 5, "velocity": 112}, {"time": 3928, "pitch": 67, "duration": 4, "velocity": 117}, {"time": 3934, "pitch": 60, "duration": 4, "velocity": 102}, {"time": 3940, "pitch": 60, "duration": 4, "velocity": 117}, {"time": 3946, "pitch": 58, "duration": 4, "velocity": 102}, {"time": 3952, "pitch": 60, "duration": 7, "velocity": 127}, {"time": 3976, "pitch": 63, "duration": 5, "velocity": 127}, {"time": 3982, "pitch": 62, "duration": 5, "velocity": 127}, {"time": 3988, "pitch": 60, "duration": 4, "velocity": 112}, {"time": 3994, "pitch": 70, "duration": 4, "velocity": 127}, {"time": 4000, "pitch": 62, "duration": 11, "velocity": 122}, {"time": 4018, "pitch": 58, "duration": 10, "velocity": 107}, {"time": 4030, "pitch": 60, "duration": 29, "velocity": 97}]}, {"program": 0, "is_drum": false, "name": "PIANO", "notes": [{"time": 40, "pitch": 51, "duration": 20, "velocity": 89}, {"time": 46, "pitch": 58, "duration": 12, "velocity": 58}, {"time": 52, "pitch": 63, "duration": 5, "velocity": 83}, {"time": 52, "pitch": 70, "duration": 13, "velocity": 97}, {"time": 58, "pitch": 67, "duration": 7, "velocity": 76}, {"time": 64, "pitch": 46, "duration": 15, "velocity": 97}, {"time": 70, "pitch": 58, "duration": 9, "velocity": 65}, {"time": 76, "pitch": 65, "duration": 13, "velocity": 68}, {"time": 82, "pitch": 62, "duration": 8, "velocity": 66}, {"time": 88, "pitch": 48, "duration": 39, "velocity": 69}, {"time": 94, "pitch": 55, "duration": 11, "velocity": 65}, {"time": 100, "pitch": 60, "duration": 14, "velocity": 71}, {"time": 106, "pitch": 55, "duration": 9, "velocity": 55}, {"time": 112, "pitch": 63, "duration": 11, "velocity": 89}, {"time": 118, "pitch": 55, "duration": 8, "velocity": 44}, {"time": 124, "pitch": 63, "duration": 13, "velocity": 86}, {"time": 124, "pitch": 67, "duration": 11, "velocity": 89}, {"time": 130, "pitch": 60, "duration": 8, "velocity": 86}, {"time": 136, "pitch": 44, "duration": 16, "velocity": 83}, {"time": 142, "pitch": 51, "duration": 10, "velocity": 35}, {"time": 148, "pitch": 56, "duration": 5, "velocity": 66}, {"time": 148, "pitch": 68, "duration": 13, "velocity": 96}, {"time": 154, "pitch": 60, "duration": 7, "velocity": 82}, {"time": 160, "pitch": 46, "duration": 17, "velocity": 90}, {"time": 166, "pitch": 53, "duration": 12, "velocity": 53}, {"time": 172, "pitch": 58, "duration": 5, "velocity": 79}, {"time": 172, "pitch": 65, "duration": 9, "velocity": 83}, {"time": 178, "pitch": 62, "duration": 7, "velocity": 71}, {"time": 184, "pitch": 48, "duration": 35, "velocity": 83}, {"time": 190, "pitch": 55, "duration": 9, "velocity": 65}, {"time": 196, "pitch": 60, "duration": 13, "velocity": 85}, {"time": 202, "pitch": 55, "duration": 9, "velocity": 67}, {"time": 208, "pitch": 63, "duration": 14, "velocity": 107}, {"time": 208, "pitch": 67, "duration": 19, "velocity": 92}, {"time": 214, "pitch": 55, "duration": 5, "velocity": 74}, {"time": 220, "pitch": 62, "duration": 7, "velocity": 90}, {"time": 226, "pitch": 63, "duration": 7, "velocity": 102}, {"time": 232, "pitch": 39, "duration": 18, "velocity": 83}, {"time": 238, "pitch": 46, "duration": 12, "velocity": 32}, {"time": 244, "pitch": 51, "duration": 7, "velocity": 82}, {"time": 250, "pitch": 58, "duration": 6, "velocity": 86}, {"time": 256, "pitch": 46, "duration": 18, "velocity": 117}, {"time": 262, "pitch": 58, "duration": 10, "velocity": 71}, {"time": 268, "pitch": 65, "duration": 14, "velocity": 99}, {"time": 274, "pitch": 62, "duration": 8, "velocity": 85}, {"time": 280, "pitch": 36, "duration": 40, "velocity": 76}, {"time": 286, "pitch": 43, "duration": 35, "velocity": 53}, {"time": 292, "pitch": 48, "duration": 15, "velocity": 78}, {"time": 298, "pitch": 55, "duration": 9, "velocity": 75}, {"time": 304, "pitch": 63, "duration": 10, "velocity": 100}, {"time": 310, "pitch": 48, "duration": 8, "velocity": 69}, {"time": 316, "pitch": 60, "duration": 12, "velocity": 89}, {"time": 316, "pitch": 63, "duration": 12, "velocity": 117}, {"time": 322, "pitch": 55, "duration": 6, "velocity": 82}, {"time": 328, "pitch": 44, "duration": 17, "velocity": 97}, {"time": 334, "pitch": 56, "duration": 17, "velocity": 66}, {"time": 340, "pitch": 63, "duration": 12, "velocity": 102}, {"time": 346, "pitch": 60, "duration": 7, "velocity": 93}, {"time": 352, "pitch": 46, "duration": 17, "velocity": 90}, {"time": 358, "pitch": 58, "duration": 8, "velocity": 75}, {"time": 364, "pitch": 65, "duration": 13, "velocity": 102}, {"time": 370, "pitch": 62, "duration": 8, "velocity": 96}, {"time": 376, "pitch": 36, "duration": 42, "velocity": 74}, {"time": 382, "pitch": 43, "duration": 37, "velocity": 62}, {"time": 388, "pitch": 48, "duration": 15, "velocity": 67}, {"time": 394, "pitch": 55, "duration": 7, "velocity": 78}, {"time": 400, "pitch": 60, "duration": 13, "velocity": 74}, {"time": 400, "pitch": 63, "duration": 6, "velocity": 68}, {"time": 406, "pitch": 48, "duration": 11, "velocity": 49}, {"time": 412, "pitch": 63, "duration": 12, "velocity": 74}, {"time": 412, "pitch": 67, "duration": 12, "velocity": 61}, {"time": 424, "pitch": 51, "duration": 20, "velocity": 82}, {"time": 430, "pitch": 58, "duration": 14, "velocity": 45}, {"time": 436, "pitch": 63, "duration": 7, "velocity": 74}, {"time": 442, "pitch": 70, "duration": 7, "velocity": 59}, {"time": 448, "pitch": 46, "duration": 17, "velocity": 86}, {"time": 454, "pitch": 58, "duration": 8, "velocity": 35}, {"time": 460, "pitch": 65, "duration": 12, "velocity": 81}, {"time": 466, "pitch": 62, "duration": 7, "velocity": 53}, {"time": 472, "pitch": 48, "duration": 40, "velocity": 67}, {"time": 478, "pitch": 55, "duration": 34, "velocity": 62}, {"time": 484, "pitch": 60, "duration": 16, "velocity": 72}, {"time": 490, "pitch": 63, "duration": 7, "velocity": 53}, {"time": 496, "pitch": 67, "duration": 24, "velocity": 69}, {"time": 502, "pitch": 60, "duration": 6, "velocity": 55}, {"time": 508, "pitch": 63, "duration": 14, "velocity": 79}, {"time": 514, "pitch": 62, "duration": 7, "velocity": 58}, {"time": 520, "pitch": 44, "duration": 15, "velocity": 72}, {"time": 526, "pitch": 51, "duration": 10, "velocity": 54}, {"time": 532, "pitch": 63, "duration": 8, "velocity": 97}, {"time": 538, "pitch": 60, "duration": 8, "velocity": 65}, {"time": 544, "pitch": 46, "duration": 15, "velocity": 77}, {"time": 550, "pitch": 53, "duration": 9, "velocity": 58}, {"time": 556, "pitch": 65, "duration": 10, "velocity": 99}, {"time": 562, "pitch": 62, "duration": 7, "velocity": 63}, {"time": 568, "pitch": 48, "duration": 47, "velocity": 67}, {"time": 574, "pitch": 55, "duration": 22, "velocity": 58}, {"time": 580, "pitch": 63, "duration": 13, "velocity": 75}, {"time": 586, "pitch": 60, "duration": 9, "velocity": 42}, {"time": 592, "pitch": 67, "duration": 23, "velocity": 77}, {"time": 598, "pitch": 55, "duration": 14, "velocity": 63}, {"time": 604, "pitch": 63, "duration": 10, "velocity": 83}, {"time": 610, "pitch": 60, "duration": 5, "velocity": 68}, {"time": 616, "pitch": 51, "duration": 20, "velocity": 82}, {"time": 622, "pitch": 58, "duration": 14, "velocity": 45}, {"time": 628, "pitch": 63, "duration": 7, "velocity": 74}, {"time": 634, "pitch": 70, "duration": 7, "velocity": 59}, {"time": 640, "pitch": 46, "duration": 17, "velocity": 86}, {"time": 646, "pitch": 58, "duration": 8, "velocity": 35}, {"time": 652, "pitch": 65, "duration": 12, "velocity": 81}, {"time": 658, "pitch": 62, "duration": 7, "velocity": 53}, {"time": 664, "pitch": 48, "duration": 40, "velocity": 67}, {"time": 670, "pitch": 55, "duration": 34, "velocity": 62}, {"time": 676, "pitch": 60, "duration": 16, "velocity": 72}, {"time": 682, "pitch": 63, "duration": 7, "velocity": 53}, {"time": 688, "pitch": 67, "duration": 24, "velocity": 69}, {"time": 694, "pitch": 60, "duration": 6, "velocity": 55}, {"time": 700, "pitch": 63, "duration": 14, "velocity": 79}, {"time": 706, "pitch": 62, "duration": 7, "velocity": 58}, {"time": 712, "pitch": 44, "duration": 15, "velocity": 72}, {"time": 718, "pitch": 51, "duration": 10, "velocity": 54}, {"time": 724, "pitch": 63, "duration": 8, "velocity": 97}, {"time": 730, "pitch": 60, "duration": 8, "velocity": 65}, {"time": 736, "pitch": 46, "duration": 15, "velocity": 77}, {"time": 742, "pitch": 53, "duration": 9, "velocity": 58}, {"time": 748, "pitch": 65, "duration": 10, "velocity": 99}, {"time": 754, "pitch": 62, "duration": 7, "velocity": 63}, {"time": 760, "pitch": 48, "duration": 24, "velocity": 67}, {"time": 766, "pitch": 55, "duration": 18, "velocity": 58}, {"time": 772, "pitch": 63, "duration": 12, "velocity": 75}, {"time": 778, "pitch": 60, "duration": 6, "velocity": 42}, {"time": 808, "pitch": 51, "duration": 20, "velocity": 82}, {"time": 814, "pitch": 58, "duration": 14, "velocity": 45}, {"time": 820, "pitch": 63, "duration": 7, "velocity": 74}, {"time": 826, "pitch": 70, "duration": 7, "velocity": 59}, {"time": 832, "pitch": 46, "duration": 17, "velocity": 86}, {"time": 838, "pitch": 58, "duration": 8, "velocity": 35}, {"time": 844, "pitch": 65, "duration": 12, "velocity": 81}, {"time": 850, "pitch": 62, "duration": 7, "velocity": 53}, {"time": 856, "pitch": 48, "duration": 40, "velocity": 67}, {"time": 862, "pitch": 55, "duration": 34, "velocity": 62}, {"time": 868, "pitch": 60, "duration": 16, "velocity": 72}, {"time": 874, "pitch": 63, "duration": 7, "velocity": 53}, {"time": 880, "pitch": 67, "duration": 24, "velocity": 69}, {"time": 886, "pitch": 60, "duration": 6, "velocity": 55}, {"time": 892, "pitch": 63, "duration": 14, "velocity": 79}, {"time": 898, "pitch": 62, "duration": 7, "velocity": 58}, {"time": 904, "pitch": 44, "duration": 15, "velocity": 72}, {"time": 910, "pitch": 51, "duration": 10, "velocity": 54}, {"time": 916, "pitch": 63, "duration": 8, "velocity": 97}, {"time": 922, "pitch": 60, "duration": 8, "velocity": 65}, {"time": 928, "pitch": 46, "duration": 15, "velocity": 77}, {"time": 934, "pitch": 53, "duration": 9, "velocity": 58}, {"time": 940, "pitch": 65, "duration": 10, "velocity": 99}, {"time": 946, "pitch": 62, "duration": 7, "velocity": 63}, {"time": 952, "pitch": 48, "duration": 47, "velocity": 67}, {"time": 958, "pitch": 55, "duration": 22, "velocity": 58}, {"time": 964, "pitch": 63, "duration": 13, "velocity": 75}, {"time": 970, "pitch": 60, "duration": 9, "velocity": 42}, {"time": 976, "pitch": 67, "duration": 23, "velocity": 77}, {"time": 982, "pitch": 55, "duration": 14, "velocity": 63}, {"time": 988, "pitch": 63, "duration": 10, "velocity": 83}, {"time": 994, "pitch": 60, "duration": 5, "velocity": 68}, {"time": 1000, "pitch": 51, "duration": 20, "velocity": 82}, {"time": 1006, "pitch": 58, "duration": 14, "velocity": 45}, {"time": 1012, "pitch": 63, "duration": 7, "velocity": 74}, {"time": 1018, "pitch": 70, "duration": 7, "velocity": 59}, {"time": 1024, "pitch": 46, "duration": 17, "velocity": 86}, {"time": 1030, "pitch": 58, "duration": 8, "velocity": 35}, {"time": 1036, "pitch": 65, "duration": 12, "velocity": 81}, {"time": 1042, "pitch": 62, "duration": 7, "velocity": 53}, {"time": 1048, "pitch": 48, "duration": 40, "velocity": 67}, {"time": 1054, "pitch": 55, "duration": 34, "velocity": 62}, {"time": 1060, "pitch": 60, "duration": 16, "velocity": 72}, {"time": 1066, "pitch": 63, "duration": 7, "velocity": 53}, {"time": 1072, "pitch": 67, "duration": 24, "velocity": 69}, {"time": 1078, "pitch": 60, "duration": 6, "velocity": 55}, {"time": 1084, "pitch": 63, "duration": 14, "velocity": 79}, {"time": 1090, "pitch": 62, "duration": 7, "velocity": 58}, {"time": 1096, "pitch": 44, "duration": 15, "velocity": 72}, {"time": 1102, "pitch": 51, "duration": 10, "velocity": 54}, {"time": 1108, "pitch": 63, "duration": 8, "velocity": 97}, {"time": 1114, "pitch": 60, "duration": 8, "velocity": 65}, {"time": 1120, "pitch": 46, "duration": 15, "velocity": 77}, {"time": 1126, "pitch": 53, "duration": 9, "velocity": 58}, {"time": 1132, "pitch": 65, "duration": 10, "velocity": 99}, {"time": 1138, "pitch": 62, "duration": 7, "velocity": 63}, {"time": 1144, "pitch": 48, "duration": 47, "velocity": 67}, {"time": 1150, "pitch": 55, "duration": 22, "velocity": 58}, {"time": 1156, "pitch": 63, "duration": 13, "velocity": 75}, {"time": 1162, "pitch": 60, "duration": 9, "velocity": 42}, {"time": 1168, "pitch": 67, "duration": 23, "velocity": 77}, {"time": 1174, "pitch": 55, "duration": 14, "velocity": 63}, {"time": 1180, "pitch": 63, "duration": 10, "velocity": 83}, {"time": 1186, "pitch": 60, "duration": 5, "velocity": 68}, {"time": 1192, "pitch": 39, "duration": 16, "velocity": 95}, {"time": 1195, "pitch": 46, "duration": 12, "velocity": 55}, {"time": 1198, "pitch": 51, "duration": 6, "velocity": 92}, {"time": 1201, "pitch": 55, "duration": 6, "velocity": 69}, {"time": 1204, "pitch": 63, "duration": 10, "velocity": 112}, {"time": 1207, "pitch": 51, "duration": 2, "velocity": 85}, {"time": 1210, "pitch": 58, "duration": 5, "velocity": 99}, {"time": 1213, "pitch": 55, "duration": 3, "velocity": 85}, {"time": 1216, "pitch": 46, "duration": 17, "velocity": 86}, {"time": 1219, "pitch": 53, "duration": 13, "velocity": 60}, {"time": 1222, "pitch": 58, "duration": 6, "velocity": 100}, {"time": 1225, "pitch": 62, "duration": 3, "velocity": 82}, {"time": 1228, "pitch": 65, "duration": 7, "velocity": 96}, {"time": 1231, "pitch": 58, "duration": 3, "velocity": 100}, {"time": 1234, "pitch": 62, "duration": 4, "velocity": 93}, {"time": 1237, "pitch": 65, "duration": 3, "velocity": 96}, {"time": 1240, "pitch": 48, "duration": 23, "velocity": 81}, {"time": 1243, "pitch": 55, "duration": 10, "velocity": 64}, {"time": 1246, "pitch": 60, "duration": 4, "velocity": 93}, {"time": 1249, "pitch": 63, "duration": 3, "velocity": 93}, {"time": 1252, "pitch": 67, "duration": 9, "velocity": 95}, {"time": 1255, "pitch": 55, "duration": 9, "velocity": 89}, {"time": 1258, "pitch": 65, "duration": 4, "velocity": 74}, {"time": 1261, "pitch": 63, "duration": 4, "velocity": 93}, {"time": 1264, "pitch": 48, "duration": 16, "velocity": 73}, {"time": 1267, "pitch": 55, "duration": 10, "velocity": 69}, {"time": 1270, "pitch": 60, "duration": 3, "velocity": 92}, {"time": 1273, "pitch": 63, "duration": 3, "velocity": 86}, {"time": 1276, "pitch": 67, "duration": 11, "velocity": 96}, {"time": 1279, "pitch": 55, "duration": 2, "velocity": 82}, {"time": 1282, "pitch": 63, "duration": 4, "velocity": 107}, {"time": 1285, "pitch": 60, "duration": 2, "velocity": 85}, {"time": 1288, "pitch": 44, "duration": 17, "velocity": 86}, {"time": 1291, "pitch": 51, "duration": 12, "velocity": 37}, {"time": 1294, "pitch": 56, "duration": 7, "velocity": 89}, {"time": 1297, "pitch": 60, "duration": 5, "velocity": 81}, {"time": 1300, "pitch": 68, "duration": 10, "velocity": 107}, {"time": 1303, "pitch": 56, "duration": 4, "velocity": 77}, {"time": 1306, "pitch": 63, "duration": 5, "velocity": 97}, {"time": 1309, "pitch": 60, "duration": 3, "velocity": 89}, {"time": 1312, "pitch": 46, "duration": 18, "velocity": 83}, {"time": 1315, "pitch": 53, "duration": 14, "velocity": 65}, {"time": 1318, "pitch": 58, "duration": 7, "velocity": 97}, {"time": 1321, "pitch": 62, "duration": 3, "velocity": 71}, {"time": 1324, "pitch": 65, "duration": 6, "velocity": 96}, {"time": 1327, "pitch": 58, "duration": 2, "velocity": 96}, {"time": 1330, "pitch": 62, "duration": 4, "velocity": 97}, {"time": 1333, "pitch": 65, "duration": 4, "velocity": 92}, {"time": 1336, "pitch": 36, "duration": 22, "velocity": 77}, {"time": 1339, "pitch": 43, "duration": 22, "velocity": 71}, {"time": 1342, "pitch": 48, "duration": 7, "velocity": 82}, {"time": 1345, "pitch": 55, "duration": 5, "velocity": 72}, {"time": 1348, "pitch": 63, "duration": 7, "velocity": 122}, {"time": 1351, "pitch": 48, "duration": 3, "velocity": 79}, {"time": 1354, "pitch": 62, "duration": 4, "velocity": 81}, {"time": 1357, "pitch": 60, "duration": 4, "velocity": 66}, {"time": 1360, "pitch": 36, "duration": 21, "velocity": 71}, {"time": 1363, "pitch": 43, "duration": 18, "velocity": 67}, {"time": 1366, "pitch": 48, "duration": 7, "velocity": 88}, {"time": 1369, "pitch": 55, "duration": 5, "velocity": 83}, {"time": 1372, "pitch": 63, "duration": 11, "velocity": 127}, {"time": 1375, "pitch": 48, "duration": 5, "velocity": 92}, {"time": 1378, "pitch": 60, "duration": 5, "velocity": 95}, {"time": 1381, "pitch": 55, "duration": 3, "velocity": 92}, {"time": 1384, "pitch": 44, "duration": 17, "velocity": 92}, {"time": 1387, "pitch": 51, "duration": 13, "velocity": 67}, {"time": 1390, "pitch": 56, "duration": 7, "velocity": 99}, {"time": 1393, "pitch": 60, "duration": 4, "velocity": 78}, {"time": 1396, "pitch": 68, "duration": 10, "velocity": 100}, {"time": 1399, "pitch": 56, "duration": 7, "velocity": 97}, {"time": 1402, "pitch": 63, "duration": 5, "velocity": 99}, {"time": 1405, "pitch": 60, "duration": 3, "velocity": 90}, {"time": 1408, "pitch": 46, "duration": 18, "velocity": 97}, {"time": 1411, "pitch": 53, "duration": 14, "velocity": 52}, {"time": 1414, "pitch": 58, "duration": 6, "velocity": 102}, {"time": 1417, "pitch": 62, "duration": 3, "velocity": 92}, {"time": 1420, "pitch": 65, "duration": 6, "velocity": 112}, {"time": 1423, "pitch": 58, "duration": 2, "velocity": 99}, {"time": 1426, "pitch": 62, "duration": 4, "velocity": 99}, {"time": 1429, "pitch": 65, "duration": 5, "velocity": 99}, {"time": 1432, "pitch": 36, "duration": 22, "velocity": 78}, {"time": 1435, "pitch": 43, "duration": 22, "velocity": 70}, {"time": 1438, "pitch": 48, "duration": 7, "velocity": 90}, {"time": 1441, "pitch": 55, "duration": 4, "velocity": 82}, {"time": 1444, "pitch": 63, "duration": 6, "velocity": 117}, {"time": 1447, "pitch": 48, "duration": 3, "velocity": 85}, {"time": 1450, "pitch": 62, "duration": 4, "velocity": 92}, {"time": 1453, "pitch": 60, "duration": 3, "velocity": 79}, {"time": 1456, "pitch": 36, "duration": 15, "velocity": 69}, {"time": 1459, "pitch": 43, "duration": 13, "velocity": 69}, {"time": 1462, "pitch": 48, "duration": 7, "velocity": 93}, {"time": 1465, "pitch": 60, "duration": 4, "velocity": 85}, {"time": 1468, "pitch": 67, "duration": 10, "velocity": 117}, {"time": 1471, "pitch": 48, "duration": 2, "velocity": 88}, {"time": 1474, "pitch": 63, "duration": 4, "velocity": 107}, {"time": 1477, "pitch": 60, "duration": 3, "velocity": 92}, {"time": 1480, "pitch": 44, "duration": 17, "velocity": 88}, {"time": 1483, "pitch": 51, "duration": 13, "velocity": 35}, {"time": 1486, "pitch": 56, "duration": 7, "velocity": 99}, {"time": 1489, "pitch": 60, "duration": 5, "velocity": 81}, {"time": 1492, "pitch": 68, "duration": 9, "velocity": 127}, {"time": 1495, "pitch": 56, "duration": 4, "velocity": 95}, {"time": 1498, "pitch": 63, "duration": 4, "velocity": 100}, {"time": 1501, "pitch": 60, "duration": 3, "velocity": 100}, {"time": 1504, "pitch": 46, "duration": 18, "velocity": 74}, {"time": 1507, "pitch": 53, "duration": 14, "velocity": 74}, {"time": 1510, "pitch": 58, "duration": 7, "velocity": 95}, {"time": 1513, "pitch": 62, "duration": 3, "velocity": 86}, {"time": 1516, "pitch": 65, "duration": 7, "velocity": 102}, {"time": 1519, "pitch": 58, "duration": 3, "velocity": 100}, {"time": 1522, "pitch": 62, "duration": 4, "velocity": 97}, {"time": 1525, "pitch": 65, "duration": 3, "velocity": 99}, {"time": 1528, "pitch": 48, "duration": 20, "velocity": 63}, {"time": 1531, "pitch": 55, "duration": 10, "velocity": 85}, {"time": 1534, "pitch": 60, "duration": 5, "velocity": 86}, {"time": 1537, "pitch": 63, "duration": 3, "velocity": 97}, {"time": 1540, "pitch": 67, "duration": 12, "velocity": 99}, {"time": 1543, "pitch": 55, "duration": 4, "velocity": 89}, {"time": 1546, "pitch": 63, "duration": 4, "velocity": 117}, {"time": 1549, "pitch": 62, "duration": 3, "velocity": 93}, {"time": 1552, "pitch": 36, "duration": 21, "velocity": 75}, {"time": 1555, "pitch": 43, "duration": 17, "velocity": 92}, {"time": 1558, "pitch": 48, "duration": 7, "velocity": 93}, {"time": 1561, "pitch": 55, "duration": 6, "velocity": 89}, {"time": 1564, "pitch": 63, "duration": 11, "velocity": 127}, {"time": 1567, "pitch": 48, "duration": 4, "velocity": 96}, {"time": 1570, "pitch": 60, "duration": 5, "velocity": 97}, {"time": 1573, "pitch": 55, "duration": 3, "velocity": 99}, {"time": 1576, "pitch": 39, "duration": 16, "velocity": 95}, {"time": 1579, "pitch": 46, "duration": 12, "velocity": 55}, {"time": 1582, "pitch": 51, "duration": 6, "velocity": 92}, {"time": 1585, "pitch": 55, "duration": 6, "velocity": 69}, {"time": 1588, "pitch": 63, "duration": 10, "velocity": 112}, {"time": 1591, "pitch": 51, "duration": 2, "velocity": 85}, {"time": 1594, "pitch": 58, "duration": 5, "velocity": 99}, {"time": 1597, "pitch": 55, "duration": 3, "velocity": 85}, {"time": 1600, "pitch": 46, "duration": 17, "velocity": 86}, {"time": 1603, "pitch": 53, "duration": 13, "velocity": 60}, {"time": 1606, "pitch": 58, "duration": 6, "velocity": 100}, {"time": 1609, "pitch": 62, "duration": 3, "velocity": 82}, {"time": 1612, "pitch": 65, "duration": 7, "velocity": 96}, {"time": 1615, "pitch": 58, "duration": 3, "velocity": 100}, {"time": 1618, "pitch": 62, "duration": 4, "velocity": 93}, {"time": 1621, "pitch": 65, "duration": 3, "velocity": 96}, {"time": 1624, "pitch": 48, "duration": 23, "velocity": 81}, {"time": 1627, "pitch": 55, "duration": 10, "velocity": 64}, {"time": 1630, "pitch": 60, "duration": 4, "velocity": 93}, {"time": 1633, "pitch": 63, "duration": 3, "velocity": 93}, {"time": 1636, "pitch": 67, "duration": 9, "velocity": 95}, {"time": 1639, "pitch": 55, "duration": 9, "velocity": 89}, {"time": 1642, "pitch": 65, "duration": 4, "velocity": 74}, {"time": 1645, "pitch": 63, "duration": 4, "velocity": 93}, {"time": 1648, "pitch": 48, "duration": 16, "velocity": 73}, {"time": 1651, "pitch": 55, "duration": 10, "velocity": 69}, {"time": 1654, "pitch": 60, "duration": 3, "velocity": 92}, {"time": 1657, "pitch": 63, "duration": 3, "velocity": 86}, {"time": 1660, "pitch": 67, "duration": 11, "velocity": 96}, {"time": 1663, "pitch": 55, "duration": 2, "velocity": 82}, {"time": 1666, "pitch": 63, "duration": 4, "velocity": 107}, {"time": 1669, "pitch": 60, "duration": 2, "velocity": 85}, {"time": 1672, "pitch": 44, "duration": 17, "velocity": 86}, {"time": 1675, "pitch": 51, "duration": 12, "velocity": 37}, {"time": 1678, "pitch": 56, "duration": 7, "velocity": 89}, {"time": 1681, "pitch": 60, "duration": 5, "velocity": 81}, {"time": 1684, "pitch": 68, "duration": 10, "velocity": 107}, {"time": 1687, "pitch": 56, "duration": 4, "velocity": 77}, {"time": 1690, "pitch": 63, "duration": 5, "velocity": 97}, {"time": 1693, "pitch": 60, "duration": 3, "velocity": 89}, {"time": 1696, "pitch": 46, "duration": 18, "velocity": 83}, {"time": 1699, "pitch": 53, "duration": 14, "velocity": 65}, {"time": 1702, "pitch": 58, "duration": 7, "velocity": 97}, {"time": 1705, "pitch": 62, "duration": 3, "velocity": 71}, {"time": 1708, "pitch": 65, "duration": 6, "velocity": 96}, {"time": 1711, "pitch": 58, "duration": 2, "velocity": 96}, {"time": 1714, "pitch": 62, "duration": 4, "velocity": 97}, {"time": 1717, "pitch": 65, "duration": 4, "velocity": 92}, {"time": 1720, "pitch": 36, "duration": 22, "velocity": 77}, {"time": 1723, "pitch": 43, "duration": 22, "velocity": 71}, {"time": 1726, "pitch": 48, "duration": 7, "velocity": 82}, {"time": 1729, "pitch": 55, "duration": 5, "velocity": 72}, {"time": 1732, "pitch": 63, "duration": 7, "velocity": 122}, {"time": 1735, "pitch": 48, "duration": 3, "velocity": 79}, {"time": 1738, "pitch": 62, "duration": 4, "velocity": 81}, {"time": 1741, "pitch": 60, "duration": 4, "velocity": 66}, {"time": 1744, "pitch": 36, "duration": 21, "velocity": 71}, {"time": 1747, "pitch": 43, "duration": 18, "velocity": 67}, {"time": 1750, "pitch": 48, "duration": 7, "velocity": 88}, {"time": 1753, "pitch": 55, "duration": 5, "velocity": 83}, {"time": 1756, "pitch": 63, "duration": 11, "velocity": 127}, {"time": 1759, "pitch": 48, "duration": 5, "velocity": 92}, {"time": 1762, "pitch": 60, "duration": 5, "velocity": 95}, {"time": 1765, "pitch": 55, "duration": 3, "velocity": 92}, {"time": 1768, "pitch": 44, "duration": 17, "velocity": 92}, {"time": 1771, "pitch": 51, "duration": 13, "velocity": 67}, {"time": 1774, "pitch": 56, "duration": 7, "velocity": 99}, {"time": 1777, "pitch": 60, "duration": 4, "velocity": 78}, {"time": 1780, "pitch": 68, "duration": 10, "velocity": 100}, {"time": 1783, "pitch": 56, "duration": 7, "velocity": 97}, {"time": 1786, "pitch": 63, "duration": 5, "velocity": 99}, {"time": 1789, "pitch": 60, "duration": 3, "velocity": 90}, {"time": 1792, "pitch": 46, "duration": 18, "velocity": 97}, {"time": 1795, "pitch": 53, "duration": 14, "velocity": 52}, {"time": 1798, "pitch": 58, "duration": 6, "velocity": 102}, {"time": 1801, "pitch": 62, "duration": 3, "velocity": 92}, {"time": 1804, "pitch": 65, "duration": 6, "velocity": 112}, {"time": 1807, "pitch": 58, "duration": 2, "velocity": 99}, {"time": 1810, "pitch": 62, "duration": 4, "velocity": 99}, {"time": 1813, "pitch": 65, "duration": 5, "velocity": 99}, {"time": 1816, "pitch": 36, "duration": 22, "velocity": 78}, {"time": 1819, "pitch": 43, "duration": 22, "velocity": 70}, {"time": 1822, "pitch": 48, "duration": 7, "velocity": 90}, {"time": 1825, "pitch": 55, "duration": 4, "velocity": 82}, {"time": 1828, "pitch": 63, "duration": 6, "velocity": 117}, {"time": 1831, "pitch": 48, "duration": 3, "velocity": 85}, {"time": 1834, "pitch": 62, "duration": 4, "velocity": 92}, {"time": 1837, "pitch": 60, "duration": 3, "velocity": 79}, {"time": 1840, "pitch": 36, "duration": 15, "velocity": 69}, {"time": 1843, "pitch": 43, "duration": 13, "velocity": 69}, {"time": 1846, "pitch": 48, "duration": 7, "velocity": 93}, {"time": 1849, "pitch": 60, "duration": 4, "velocity": 85}, {"time": 1852, "pitch": 67, "duration": 10, "velocity": 117}, {"time": 1855, "pitch": 48, "duration": 2, "velocity": 88}, {"time": 1858, "pitch": 63, "duration": 4, "velocity": 107}, {"time": 1861, "pitch": 60, "duration": 3, "velocity": 92}, {"time": 1864, "pitch": 44, "duration": 17, "velocity": 88}, {"time": 1867, "pitch": 51, "duration": 13, "velocity": 35}, {"time": 1870, "pitch": 56, "duration": 7, "velocity": 99}, {"time": 1873, "pitch": 60, "duration": 5, "velocity": 81}, {"time": 1876, "pitch": 68, "duration": 9, "velocity": 127}, {"time": 1879, "pitch": 56, "duration": 4, "velocity": 95}, {"time": 1882, "pitch": 63, "duration": 4, "velocity": 100}, {"time": 1885, "pitch": 60, "duration": 3, "velocity": 100}, {"time": 1888, "pitch": 46, "duration": 18, "velocity": 74}, {"time": 1891, "pitch": 53, "duration": 14, "velocity": 74}, {"time": 1894, "pitch": 58, "duration": 7, "velocity": 95}, {"time": 1897, "pitch": 62, "duration": 3, "velocity": 86}, {"time": 1900, "pitch": 65, "duration": 7, "velocity": 102}, {"time": 1903, "pitch": 58, "duration": 3, "velocity": 100}, {"time": 1906, "pitch": 62, "duration": 4, "velocity": 97}, {"time": 1909, "pitch": 65, "duration": 3, "velocity": 99}, {"time": 1912, "pitch": 48, "duration": 20, "velocity": 63}, {"time": 1915, "pitch": 55, "duration": 10, "velocity": 85}, {"time": 1918, "pitch": 60, "duration": 5, "velocity": 86}, {"time": 1921, "pitch": 63, "duration": 3, "velocity": 97}, {"time": 1924, "pitch": 67, "duration": 12, "velocity": 99}, {"time": 1927, "pitch": 55, "duration": 4, "velocity": 89}, {"time": 1930, "pitch": 63, "duration": 4, "velocity": 117}, {"time": 1933, "pitch": 62, "duration": 3, "velocity": 93}, {"time": 1936, "pitch": 36, "duration": 21, "velocity": 75}, {"time": 1939, "pitch": 43, "duration": 17, "velocity": 92}, {"time": 1942, "pitch": 48, "duration": 7, "velocity": 93}, {"time": 1945, "pitch": 55, "duration": 6, "velocity": 89}, {"time": 1948, "pitch": 63, "duration": 11, "velocity": 127}, {"time": 1951, "pitch": 48, "duration": 4, "velocity": 96}, {"time": 1954, "pitch": 60, "duration": 5, "velocity": 97}, {"time": 1957, "pitch": 55, "duration": 3, "velocity": 99}, {"time": 1960, "pitch": 39, "duration": 18, "velocity": 90}, {"time": 1966, "pitch": 46, "duration": 12, "velocity": 66}, {"time": 1972, "pitch": 51, "duration": 7, "velocity": 59}, {"time": 1972, "pitch": 58, "duration": 7, "velocity": 96}, {"time": 1978, "pitch": 55, "duration": 6, "velocity": 82}, {"time": 1984, "pitch": 46, "duration": 17, "velocity": 74}, {"time": 1990, "pitch": 53, "duration": 18, "velocity": 75}, {"time": 1996, "pitch": 62, "duration": 12, "velocity": 97}, {"time": 2002, "pitch": 58, "duration": 6, "velocity": 112}, {"time": 2008, "pitch": 36, "duration": 36, "velocity": 78}, {"time": 2014, "pitch": 43, "duration": 31, "velocity": 63}, {"time": 2020, "pitch": 48, "duration": 15, "velocity": 89}, {"time": 2026, "pitch": 55, "duration": 14, "velocity": 77}, {"time": 2032, "pitch": 63, "duration": 24, "velocity": 122}, {"time": 2038, "pitch": 48, "duration": 9, "velocity": 49}, {"time": 2044, "pitch": 60, "duration": 12, "velocity": 102}, {"time": 2050, "pitch": 55, "duration": 6, "velocity": 86}, {"time": 2056, "pitch": 44, "duration": 20, "velocity": 86}, {"time": 2062, "pitch": 51, "duration": 17, "velocity": 39}, {"time": 2068, "pitch": 56, "duration": 12, "velocity": 97}, {"time": 2068, "pitch": 63, "duration": 7, "velocity": 73}, {"time": 2074, "pitch": 60, "duration": 8, "velocity": 85}, {"time": 2080, "pitch": 46, "duration": 16, "velocity": 85}, {"time": 2086, "pitch": 58, "duration": 7, "velocity": 93}, {"time": 2092, "pitch": 65, "duration": 8, "velocity": 102}, {"time": 2098, "pitch": 62, "duration": 6, "velocity": 99}, {"time": 2104, "pitch": 36, "duration": 44, "velocity": 88}, {"time": 2110, "pitch": 43, "duration": 38, "velocity": 53}, {"time": 2116, "pitch": 48, "duration": 15, "velocity": 88}, {"time": 2122, "pitch": 55, "duration": 8, "velocity": 79}, {"time": 2128, "pitch": 63, "duration": 13, "velocity": 107}, {"time": 2134, "pitch": 48, "duration": 9, "velocity": 66}, {"time": 2140, "pitch": 62, "duration": 7, "velocity": 92}, {"time": 2146, "pitch": 63, "duration": 7, "velocity": 86}, {"time": 2152, "pitch": 51, "duration": 20, "velocity": 82}, {"time": 2158, "pitch": 58, "duration": 14, "velocity": 45}, {"time": 2164, "pitch": 63, "duration": 7, "velocity": 74}, {"time": 2170, "pitch": 70, "duration": 7, "velocity": 59}, {"time": 2176, "pitch": 46, "duration": 17, "velocity": 86}, {"time": 2182, "pitch": 58, "duration": 8, "velocity": 35}, {"time": 2188, "pitch": 65, "duration": 12, "velocity": 81}, {"time": 2194, "pitch": 62, "duration": 7, "velocity": 53}, {"time": 2200, "pitch": 48, "duration": 40, "velocity": 67}, {"time": 2206, "pitch": 55, "duration": 34, "velocity": 62}, {"time": 2212, "pitch": 60, "duration": 16, "velocity": 72}, {"time": 2218, "pitch": 63, "duration": 7, "velocity": 53}, {"time": 2224, "pitch": 67, "duration": 24, "velocity": 69}, {"time": 2230, "pitch": 60, "duration": 6, "velocity": 55}, {"time": 2236, "pitch": 63, "duration": 14, "velocity": 79}, {"time": 2242, "pitch": 62, "duration": 7, "velocity": 58}, {"time": 2248, "pitch": 44, "duration": 15, "velocity": 72}, {"time": 2254, "pitch": 51, "duration": 10, "velocity": 54}, {"time": 2260, "pitch": 63, "duration": 8, "velocity": 97}, {"time": 2266, "pitch": 60, "duration": 8, "velocity": 65}, {"time": 2272, "pitch": 46, "duration": 15, "velocity": 77}, {"time": 2278, "pitch": 53, "duration": 9, "velocity": 58}, {"time": 2284, "pitch": 65, "duration": 10, "velocity": 99}, {"time": 2290, "pitch": 62, "duration": 7, "velocity": 63}, {"time": 2296, "pitch": 48, "duration": 47, "velocity": 67}, {"time": 2302, "pitch": 55, "duration": 22, "velocity": 58}, {"time": 2308, "pitch": 63, "duration": 13, "velocity": 75}, {"time": 2314, "pitch": 60, "duration": 9, "velocity": 42}, {"time": 2320, "pitch": 67, "duration": 23, "velocity": 77}, {"time": 2326, "pitch": 55, "duration": 14, "velocity": 63}, {"time": 2332, "pitch": 63, "duration": 10, "velocity": 83}, {"time": 2338, "pitch": 60, "duration": 5, "velocity": 68}, {"time": 2344, "pitch": 51, "duration": 20, "velocity": 82}, {"time": 2350, "pitch": 58, "duration": 14, "velocity": 45}, {"time": 2356, "pitch": 63, "duration": 7, "velocity": 74}, {"time": 2362, "pitch": 70, "duration": 7, "velocity": 59}, {"time": 2368, "pitch": 46, "duration": 17, "velocity": 86}, {"time": 2374, "pitch": 58, "duration": 8, "velocity": 35}, {"time": 2380, "pitch": 65, "duration": 12, "velocity": 81}, {"time": 2386, "pitch": 62, "duration": 7, "velocity": 53}, {"time": 2392, "pitch": 48, "duration": 40, "velocity": 67}, {"time": 2398, "pitch": 55, "duration": 34, "velocity": 62}, {"time": 2404, "pitch": 60, "duration": 16, "velocity": 72}, {"time": 2410, "pitch": 63, "duration": 7, "velocity": 53}, {"time": 2416, "pitch": 67, "duration": 24, "velocity": 69}, {"time": 2422, "pitch": 60, "duration": 6, "velocity": 55}, {"time": 2428, "pitch": 63, "duration": 14, "velocity": 79}, {"time": 2434, "pitch": 62, "duration": 7, "velocity": 58}, {"time": 2440, "pitch": 44, "duration": 15, "velocity": 72}, {"time": 2446, "pitch": 51, "duration": 10, "velocity": 54}, {"time": 2452, "pitch": 63, "duration": 8, "velocity": 97}, {"time": 2458, "pitch": 60, "duration": 8, "velocity": 65}, {"time": 2464, "pitch": 46, "duration": 15, "velocity": 77}, {"time": 2470, "pitch": 53, "duration": 9, "velocity": 58}, {"time": 2476, "pitch": 65, "duration": 10, "velocity": 99}, {"time": 2482, "pitch": 62, "duration": 7, "velocity": 63}, {"time": 2488, "pitch": 48, "duration": 47, "velocity": 67}, {"time": 2494, "pitch": 55, "duration": 22, "velocity": 58}, {"time": 2500, "pitch": 63, "duration": 13, "velocity": 75}, {"time": 2506, "pitch": 60, "duration": 9, "velocity": 42}, {"time": 2512, "pitch": 67, "duration": 23, "velocity": 77}, {"time": 2518, "pitch": 55, "duration": 14, "velocity": 63}, {"time": 2524, "pitch": 63, "duration": 10, "velocity": 83}, {"time": 2530, "pitch": 60, "duration": 5, "velocity": 68}, {"time": 2536, "pitch": 39, "duration": 16, "velocity": 95}, {"time": 2539, "pitch": 46, "duration": 12, "velocity": 55}, {"time": 2542, "pitch": 51, "duration": 6, "velocity": 92}, {"time": 2545, "pitch": 55, "duration": 6, "velocity": 69}, {"time": 2548, "pitch": 63, "duration": 10, "velocity": 112}, {"time": 2551, "pitch": 51, "duration": 2, "velocity": 85}, {"time": 2554, "pitch": 58, "duration": 5, "velocity": 99}, {"time": 2557, "pitch": 55, "duration": 3, "velocity": 85}, {"time": 2560, "pitch": 46, "duration": 17, "velocity": 86}, {"time": 2563, "pitch": 53, "duration": 13, "velocity": 60}, {"time": 2566, "pitch": 58, "duration": 6, "velocity": 100}, {"time": 2569, "pitch": 62, "duration": 3, "velocity": 82}, {"time": 2572, "pitch": 65, "duration": 7, "velocity": 96}, {"time": 2575, "pitch": 58, "duration": 3, "velocity": 100}, {"time": 2578, "pitch": 62, "duration": 4, "velocity": 93}, {"time": 2581, "pitch": 65, "duration": 3, "velocity": 96}, {"time": 2584, "pitch": 48, "duration": 23, "velocity": 81}, {"time": 2587, "pitch": 55, "duration": 10, "velocity": 64}, {"time": 2590, "pitch": 60, "duration": 4, "velocity": 93}, {"time": 2593, "pitch": 63, "duration": 3, "velocity": 93}, {"time": 2596, "pitch": 67, "duration": 9, "velocity": 95}, {"time": 2599, "pitch": 55, "duration": 9, "velocity": 89}, {"time": 2602, "pitch": 65, "duration": 4, "velocity": 74}, {"time": 2605, "pitch": 63, "duration": 4, "velocity": 93}, {"time": 2608, "pitch": 48, "duration": 16, "velocity": 73}, {"time": 2611, "pitch": 55, "duration": 10, "velocity": 69}, {"time": 2614, "pitch": 60, "duration": 3, "velocity": 92}, {"time": 2617, "pitch": 63, "duration": 3, "velocity": 86}, {"time": 2620, "pitch": 67, "duration": 11, "velocity": 96}, {"time": 2623, "pitch": 55, "duration": 2, "velocity": 82}, {"time": 2626, "pitch": 63, "duration": 4, "velocity": 107}, {"time": 2629, "pitch": 60, "duration": 2, "velocity": 85}, {"time": 2632, "pitch": 44, "duration": 17, "velocity": 86}, {"time": 2635, "pitch": 51, "duration": 12, "velocity": 37}, {"time": 2638, "pitch": 56, "duration": 7, "velocity": 89}, {"time": 2641, "pitch": 60, "duration": 5, "velocity": 81}, {"time": 2644, "pitch": 68, "duration": 10, "velocity": 107}, {"time": 2647, "pitch": 56, "duration": 4, "velocity": 77}, {"time": 2650, "pitch": 63, "duration": 5, "velocity": 97}, {"time": 2653, "pitch": 60, "duration": 3, "velocity": 89}, {"time": 2656, "pitch": 46, "duration": 18, "velocity": 83}, {"time": 2659, "pitch": 53, "duration": 14, "velocity": 65}, {"time": 2662, "pitch": 58, "duration": 7, "velocity": 97}, {"time": 2665, "pitch": 62, "duration": 3, "velocity": 71}, {"time": 2668, "pitch": 65, "duration": 6, "velocity": 96}, {"time": 2671, "pitch": 58, "duration": 2, "velocity": 96}, {"time": 2674, "pitch": 62, "duration": 4, "velocity": 97}, {"time": 2677, "pitch": 65, "duration": 4, "velocity": 92}, {"time": 2680, "pitch": 36, "duration": 22, "velocity": 77}, {"time": 2683, "pitch": 43, "duration": 22, "velocity": 71}, {"time": 2686, "pitch": 48, "duration": 7, "velocity": 82}, {"time": 2689, "pitch": 55, "duration": 5, "velocity": 72}, {"time": 2692, "pitch": 63, "duration": 7, "velocity": 122}, {"time": 2695, "pitch": 48, "duration": 3, "velocity": 79}, {"time": 2698, "pitch": 62, "duration": 4, "velocity": 81}, {"time": 2701, "pitch": 60, "duration": 4, "velocity": 66}, {"time": 2704, "pitch": 36, "duration": 21, "velocity": 71}, {"time": 2707, "pitch": 43, "duration": 18, "velocity": 67}, {"time": 2710, "pitch": 48, "duration": 7, "velocity": 88}, {"time": 2713, "pitch": 55, "duration": 5, "velocity": 83}, {"time": 2716, "pitch": 63, "duration": 11, "velocity": 127}, {"time": 2719, "pitch": 48, "duration": 5, "velocity": 92}, {"time": 2722, "pitch": 60, "duration": 5, "velocity": 95}, {"time": 2725, "pitch": 55, "duration": 3, "velocity": 92}, {"time": 2728, "pitch": 44, "duration": 17, "velocity": 92}, {"time": 2731, "pitch": 51, "duration": 13, "velocity": 67}, {"time": 2734, "pitch": 56, "duration": 7, "velocity": 99}, {"time": 2737, "pitch": 60, "duration": 4, "velocity": 78}, {"time": 2740, "pitch": 68, "duration": 10, "velocity": 100}, {"time": 2743, "pitch": 56, "duration": 7, "velocity": 97}, {"time": 2746, "pitch": 63, "duration": 5, "velocity": 99}, {"time": 2749, "pitch": 60, "duration": 3, "velocity": 90}, {"time": 2752, "pitch": 46, "duration": 18, "velocity": 97}, {"time": 2755, "pitch": 53, "duration": 14, "velocity": 52}, {"time": 2758, "pitch": 58, "duration": 6, "velocity": 102}, {"time": 2761, "pitch": 62, "duration": 3, "velocity": 92}, {"time": 2764, "pitch": 65, "duration": 6, "velocity": 112}, {"time": 2767, "pitch": 58, "duration": 2, "velocity": 99}, {"time": 2770, "pitch": 62, "duration": 4, "velocity": 99}, {"time": 2773, "pitch": 65, "duration": 5, "velocity": 99}, {"time": 2776, "pitch": 36, "duration": 22, "velocity": 78}, {"time": 2779, "pitch": 43, "duration": 22, "velocity": 70}, {"time": 2782, "pitch": 48, "duration": 7, "velocity": 90}, {"time": 2785, "pitch": 55, "duration": 4, "velocity": 82}, {"time": 2788, "pitch": 63, "duration": 6, "velocity": 117}, {"time": 2791, "pitch": 48, "duration": 3, "velocity": 85}, {"time": 2794, "pitch": 62, "duration": 4, "velocity": 92}, {"time": 2797, "pitch": 60, "duration": 3, "velocity": 79}, {"time": 2800, "pitch": 36, "duration": 15, "velocity": 69}, {"time": 2803, "pitch": 43, "duration": 13, "velocity": 69}, {"time": 2806, "pitch": 48, "duration": 7, "velocity": 93}, {"time": 2809, "pitch": 60, "duration": 4, "velocity": 85}, {"time": 2812, "pitch": 67, "duration": 10, "velocity": 117}, {"time": 2815, "pitch": 48, "duration": 2, "velocity": 88}, {"time": 2818, "pitch": 63, "duration": 4, "velocity": 107}, {"time": 2821, "pitch": 60, "duration": 3, "velocity": 92}, {"time": 2824, "pitch": 44, "duration": 17, "velocity": 88}, {"time": 2827, "pitch": 51, "duration": 13, "velocity": 35}, {"time": 2830, "pitch": 56, "duration": 7, "velocity": 99}, {"time": 2833, "pitch": 60, "duration": 5, "velocity": 81}, {"time": 2836, "pitch": 68, "duration": 9, "velocity": 127}, {"time": 2839, "pitch": 56, "duration": 4, "velocity": 95}, {"time": 2842, "pitch": 63, "duration": 4, "velocity": 100}, {"time": 2845, "pitch": 60, "duration": 3, "velocity": 100}, {"time": 2848, "pitch": 46, "duration": 18, "velocity": 74}, {"time": 2851, "pitch": 53, "duration": 14, "velocity": 74}, {"time": 2854, "pitch": 58, "duration": 7, "velocity": 95}, {"time": 2857, "pitch": 62, "duration": 3, "velocity": 86}, {"time": 2860, "pitch": 65, "duration": 7, "velocity": 102}, {"time": 2863, "pitch": 58, "duration": 3, "velocity": 100}, {"time": 2866, "pitch": 62, "duration": 4, "velocity": 97}, {"time": 2869, "pitch": 65, "duration": 3, "velocity": 99}, {"time": 2872, "pitch": 48, "duration": 20, "velocity": 63}, {"time": 2875, "pitch": 55, "duration": 10, "velocity": 85}, {"time": 2878, "pitch": 60, "duration": 5, "velocity": 86}, {"time": 2881, "pitch": 63, "duration": 3, "velocity": 97}, {"time": 2884, "pitch": 67, "duration": 12, "velocity": 99}, {"time": 2887, "pitch": 55, "duration": 4, "velocity": 89}, {"time": 2890, "pitch": 63, "duration": 4, "velocity": 117}, {"time": 2893, "pitch": 62, "duration": 3, "velocity": 93}, {"time": 2896, "pitch": 36, "duration": 21, "velocity": 75}, {"time": 2899, "pitch": 43, "duration": 17, "velocity": 92}, {"time": 2902, "pitch": 48, "duration": 7, "velocity": 93}, {"time": 2905, "pitch": 55, "duration": 6, "velocity": 89}, {"time": 2908, "pitch": 63, "duration": 11, "velocity": 127}, {"time": 2911, "pitch": 48, "duration": 4, "velocity": 96}, {"time": 2914, "pitch": 60, "duration": 5, "velocity": 97}, {"time": 2917, "pitch": 55, "duration": 3, "velocity": 99}, {"time": 2920, "pitch": 39, "duration": 16, "velocity": 95}, {"time": 2923, "pitch": 46, "duration": 12, "velocity": 55}, {"time": 2926, "pitch": 51, "duration": 6, "velocity": 92}, {"time": 2929, "pitch": 55, "duration": 6, "velocity": 69}, {"time": 2932, "pitch": 63, "duration": 10, "velocity": 112}, {"time": 2935, "pitch": 51, "duration": 2, "velocity": 85}, {"time": 2938, "pitch": 58, "duration": 5, "velocity": 99}, {"time": 2941, "pitch": 55, "duration": 3, "velocity": 85}, {"time": 2944, "pitch": 46, "duration": 17, "velocity": 86}, {"time": 2947, "pitch": 53, "duration": 13, "velocity": 60}, {"time": 2950, "pitch": 58, "duration": 6, "velocity": 100}, {"time": 2953, "pitch": 62, "duration": 3, "velocity": 82}, {"time": 2956, "pitch": 65, "duration": 7, "velocity": 96}, {"time": 2959, "pitch": 58, "duration": 3, "velocity": 100}, {"time": 2962, "pitch": 62, "duration": 4, "velocity": 93}, {"time": 2965, "pitch": 65, "duration": 3, "velocity": 96}, {"time": 2968, "pitch": 48, "duration": 23, "velocity": 81}, {"time": 2971, "pitch": 55, "duration": 10, "velocity": 64}, {"time": 2974, "pitch": 60, "duration": 4, "velocity": 93}, {"time": 2977, "pitch": 63, "duration": 3, "velocity": 93}, {"time": 2980, "pitch": 67, "duration": 9, "velocity": 95}, {"time": 2983, "pitch": 55, "duration": 9, "velocity": 89}, {"time": 2986, "pitch": 65, "duration": 4, "velocity": 74}, {"time": 2989, "pitch": 63, "duration": 4, "velocity": 93}, {"time": 2992, "pitch": 48, "duration": 16, "velocity": 73}, {"time": 2995, "pitch": 55, "duration": 10, "velocity": 69}, {"time": 2998, "pitch": 60, "duration": 3, "velocity": 92}, {"time": 3001, "pitch": 63, "duration": 3, "velocity": 86}, {"time": 3004, "pitch": 67, "duration": 11, "velocity": 96}, {"time": 3007, "pitch": 55, "duration": 2, "velocity": 82}, {"time": 3010, "pitch": 63, "duration": 4, "velocity": 107}, {"time": 3013, "pitch": 60, "duration": 2, "velocity": 85}, {"time": 3016, "pitch": 44, "duration": 17, "velocity": 86}, {"time": 3019, "pitch": 51, "duration": 12, "velocity": 37}, {"time": 3022, "pitch": 56, "duration": 7, "velocity": 89}, {"time": 3025, "pitch": 60, "duration": 5, "velocity": 81}, {"time": 3028, "pitch": 68, "duration": 10, "velocity": 107}, {"time": 3031, "pitch": 56, "duration": 4, "velocity": 77}, {"time": 3034, "pitch": 63, "duration": 5, "velocity": 97}, {"time": 3037, "pitch": 60, "duration": 3, "velocity": 89}, {"time": 3040, "pitch": 46, "duration": 18, "velocity": 83}, {"time": 3043, "pitch": 53, "duration": 14, "velocity": 65}, {"time": 3046, "pitch": 58, "duration": 7, "velocity": 97}, {"time": 3049, "pitch": 62, "duration": 3, "velocity": 71}, {"time": 3052, "pitch": 65, "duration": 6, "velocity": 96}, {"time": 3055, "pitch": 58, "duration": 2, "velocity": 96}, {"time": 3058, "pitch": 62, "duration": 4, "velocity": 97}, {"time": 3061, "pitch": 65, "duration": 4, "velocity": 92}, {"time": 3064, "pitch": 36, "duration": 22, "velocity": 77}, {"time": 3067, "pitch": 43, "duration": 22, "velocity": 71}, {"time": 3070, "pitch": 48, "duration": 7, "velocity": 82}, {"time": 3073, "pitch": 55, "duration": 5, "velocity": 72}, {"time": 3076, "pitch": 63, "duration": 7, "velocity": 122}, {"time": 3079, "pitch": 48, "duration": 3, "velocity": 79}, {"time": 3082, "pitch": 62, "duration": 4, "velocity": 81}, {"time": 3085, "pitch": 60, "duration": 4, "velocity": 66}, {"time": 3088, "pitch": 36, "duration": 21, "velocity": 71}, {"time": 3091, "pitch": 43, "duration": 18, "velocity": 67}, {"time": 3094, "pitch": 48, "duration": 7, "velocity": 88}, {"time": 3097, "pitch": 55, "duration": 5, "velocity": 83}, {"time": 3100, "pitch": 63, "duration": 11, "velocity": 127}, {"time": 3103, "pitch": 48, "duration": 5, "velocity": 92}, {"time": 3106, "pitch": 60, "duration": 5, "velocity": 95}, {"time": 3109, "pitch": 55, "duration": 3, "velocity": 92}, {"time": 3112, "pitch": 44, "duration": 17, "velocity": 92}, {"time": 3115, "pitch": 51, "duration": 13, "velocity": 67}, {"time": 3118, "pitch": 56, "duration": 7, "velocity": 99}, {"time": 3121, "pitch": 60, "duration": 4, "velocity": 78}, {"time": 3124, "pitch": 68, "duration": 10, "velocity": 100}, {"time": 3127, "pitch": 56, "duration": 7, "velocity": 97}, {"time": 3130, "pitch": 63, "duration": 5, "velocity": 99}, {"time": 3133, "pitch": 60, "duration": 3, "velocity": 90}, {"time": 3136, "pitch": 46, "duration": 18, "velocity": 97}, {"time": 3139, "pitch": 53, "duration": 14, "velocity": 52}, {"time": 3142, "pitch": 58, "duration": 6, "velocity": 102}, {"time": 3145, "pitch": 62, "duration": 3, "velocity": 92}, {"time": 3148, "pitch": 65, "duration": 6, "velocity": 112}, {"time": 3151, "pitch": 58, "duration": 2, "velocity": 99}, {"time": 3154, "pitch": 62, "duration": 4, "velocity": 99}, {"time": 3157, "pitch": 65, "duration": 5, "velocity": 99}, {"time": 3160, "pitch": 36, "duration": 22, "velocity": 78}, {"time": 3163, "pitch": 43, "duration": 22, "velocity": 70}, {"time": 3166, "pitch": 48, "duration": 7, "velocity": 90}, {"time": 3169, "pitch": 55, "duration": 4, "velocity": 82}, {"time": 3172, "pitch": 63, "duration": 6, "velocity": 117}, {"time": 3175, "pitch": 48, "duration": 3, "velocity": 85}, {"time": 3178, "pitch": 62, "duration": 4, "velocity": 92}, {"time": 3181, "pitch": 60, "duration": 3, "velocity": 79}, {"time": 3184, "pitch": 36, "duration": 15, "velocity": 69}, {"time": 3187, "pitch": 43, "duration": 13, "velocity": 69}, {"time": 3190, "pitch": 48, "duration": 7, "velocity": 93}, {"time": 3193, "pitch": 60, "duration": 4, "velocity": 85}, {"time": 3196, "pitch": 67, "duration": 10, "velocity": 117}, {"time": 3199, "pitch": 48, "duration": 2, "velocity": 88}, {"time": 3202, "pitch": 63, "duration": 4, "velocity": 107}, {"time": 3205, "pitch": 60, "duration": 3, "velocity": 92}, {"time": 3208, "pitch": 44, "duration": 17, "velocity": 88}, {"time": 3211, "pitch": 51, "duration": 13, "velocity": 35}, {"time": 3214, "pitch": 56, "duration": 7, "velocity": 99}, {"time": 3217, "pitch": 60, "duration": 5, "velocity": 81}, {"time": 3220, "pitch": 68, "duration": 9, "velocity": 127}, {"time": 3223, "pitch": 56, "duration": 4, "velocity": 95}, {"time": 3226, "pitch": 63, "duration": 4, "velocity": 100}, {"time": 3229, "pitch": 60, "duration": 3, "velocity": 100}, {"time": 3232, "pitch": 46, "duration": 18, "velocity": 74}, {"time": 3235, "pitch": 53, "duration": 14, "velocity": 74}, {"time": 3238, "pitch": 58, "duration": 7, "velocity": 95}, {"time": 3241, "pitch": 62, "duration": 3, "velocity": 86}, {"time": 3244, "pitch": 65, "duration": 7, "velocity": 102}, {"time": 3247, "pitch": 58, "duration": 3, "velocity": 100}, {"time": 3250, "pitch": 62, "duration": 4, "velocity": 97}, {"time": 3253, "pitch": 65, "duration": 3, "velocity": 99}, {"time": 3256, "pitch": 48, "duration": 20, "velocity": 63}, {"time": 3259, "pitch": 55, "duration": 10, "velocity": 85}, {"time": 3262, "pitch": 60, "duration": 5, "velocity": 86}, {"time": 3265, "pitch": 63, "duration": 3, "velocity": 97}, {"time": 3268, "pitch": 67, "duration": 12, "velocity": 99}, {"time": 3271, "pitch": 55, "duration": 4, "velocity": 89}, {"time": 3274, "pitch": 63, "duration": 4, "velocity": 117}, {"time": 3277, "pitch": 62, "duration": 3, "velocity": 93}, {"time": 3280, "pitch": 36, "duration": 21, "velocity": 75}, {"time": 3283, "pitch": 43, "duration": 17, "velocity": 92}, {"time": 3286, "pitch": 48, "duration": 7, "velocity": 93}, {"time": 3289, "pitch": 55, "duration": 6, "velocity": 89}, {"time": 3292, "pitch": 63, "duration": 11, "velocity": 127}, {"time": 3295, "pitch": 48, "duration": 4, "velocity": 96}, {"time": 3298, "pitch": 60, "duration": 5, "velocity": 97}, {"time": 3301, "pitch": 55, "duration": 3, "velocity": 99}, {"time": 3304, "pitch": 39, "duration": 16, "velocity": 95}, {"time": 3307, "pitch": 46, "duration": 12, "velocity": 55}, {"time": 3310, "pitch": 51, "duration": 6, "velocity": 92}, {"time": 3313, "pitch": 55, "duration": 6, "velocity": 69}, {"time": 3316, "pitch": 63, "duration": 10, "velocity": 112}, {"time": 3319, "pitch": 51, "duration": 2, "velocity": 85}, {"time": 3322, "pitch": 58, "duration": 5, "velocity": 99}, {"time": 3325, "pitch": 55, "duration": 3, "velocity": 85}, {"time": 3328, "pitch": 46, "duration": 17, "velocity": 86}, {"time": 3331, "pitch": 53, "duration": 13, "velocity": 60}, {"time": 3334, "pitch": 58, "duration": 6, "velocity": 100}, {"time": 3337, "pitch": 62, "duration": 3, "velocity": 82}, {"time": 3340, "pitch": 65, "duration": 7, "velocity": 96}, {"time": 3343, "pitch": 58, "duration": 3, "velocity": 100}, {"time": 3346, "pitch": 62, "duration": 4, "velocity": 93}, {"time": 3349, "pitch": 65, "duration": 3, "velocity": 96}, {"time": 3352, "pitch": 48, "duration": 23, "velocity": 81}, {"time": 3355, "pitch": 55, "duration": 10, "velocity": 64}, {"time": 3358, "pitch": 60, "duration": 4, "velocity": 93}, {"time": 3361, "pitch": 63, "duration": 3, "velocity": 93}, {"time": 3364, "pitch": 67, "duration": 9, "velocity": 95}, {"time": 3367, "pitch": 55, "duration": 9, "velocity": 89}, {"time": 3370, "pitch": 65, "duration": 4, "velocity": 74}, {"time": 3373, "pitch": 63, "duration": 4, "velocity": 93}, {"time": 3376, "pitch": 48, "duration": 16, "velocity": 73}, {"time": 3379, "pitch": 55, "duration": 10, "velocity": 69}, {"time": 3382, "pitch": 60, "duration": 3, "velocity": 92}, {"time": 3385, "pitch": 63, "duration": 3, "velocity": 86}, {"time": 3388, "pitch": 67, "duration": 11, "velocity": 96}, {"time": 3391, "pitch": 55, "duration": 2, "velocity": 82}, {"time": 3394, "pitch": 63, "duration": 4, "velocity": 107}, {"time": 3397, "pitch": 60, "duration": 2, "velocity": 85}, {"time": 3400, "pitch": 44, "duration": 17, "velocity": 86}, {"time": 3403, "pitch": 51, "duration": 12, "velocity": 37}, {"time": 3406, "pitch": 56, "duration": 7, "velocity": 89}, {"time": 3409, "pitch": 60, "duration": 5, "velocity": 81}, {"time": 3412, "pitch": 68, "duration": 10, "velocity": 107}, {"time": 3415, "pitch": 56, "duration": 4, "velocity": 77}, {"time": 3418, "pitch": 63, "duration": 5, "velocity": 97}, {"time": 3421, "pitch": 60, "duration": 3, "velocity": 89}, {"time": 3424, "pitch": 46, "duration": 18, "velocity": 83}, {"time": 3427, "pitch": 53, "duration": 14, "velocity": 65}, {"time": 3430, "pitch": 58, "duration": 7, "velocity": 97}, {"time": 3433, "pitch": 62, "duration": 3, "velocity": 71}, {"time": 3436, "pitch": 65, "duration": 6, "velocity": 96}, {"time": 3439, "pitch": 58, "duration": 2, "velocity": 96}, {"time": 3442, "pitch": 62, "duration": 4, "velocity": 97}, {"time": 3445, "pitch": 65, "duration": 4, "velocity": 92}, {"time": 3448, "pitch": 36, "duration": 22, "velocity": 77}, {"time": 3451, "pitch": 43, "duration": 22, "velocity": 71}, {"time": 3454, "pitch": 48, "duration": 7, "velocity": 82}, {"time": 3457, "pitch": 55, "duration": 5, "velocity": 72}, {"time": 3460, "pitch": 63, "duration": 7, "velocity": 122}, {"time": 3463, "pitch": 48, "duration": 3, "velocity": 79}, {"time": 3466, "pitch": 62, "duration": 4, "velocity": 81}, {"time": 3469, "pitch": 60, "duration": 4, "velocity": 66}, {"time": 3472, "pitch": 36, "duration": 21, "velocity": 71}, {"time": 3475, "pitch": 43, "duration": 18, "velocity": 67}, {"time": 3478, "pitch": 48, "duration": 7, "velocity": 88}, {"time": 3481, "pitch": 55, "duration": 5, "velocity": 83}, {"time": 3484, "pitch": 63, "duration": 11, "velocity": 127}, {"time": 3487, "pitch": 48, "duration": 5, "velocity": 92}, {"time": 3490, "pitch": 60, "duration": 5, "velocity": 95}, {"time": 3493, "pitch": 55, "duration": 3, "velocity": 92}, {"time": 3496, "pitch": 44, "duration": 17, "velocity": 92}, {"time": 3499, "pitch": 51, "duration": 13, "velocity": 67}, {"time": 3502, "pitch": 56, "duration": 7, "velocity": 99}, {"time": 3505, "pitch": 60, "duration": 4, "velocity": 78}, {"time": 3508, "pitch": 68, "duration": 10, "velocity": 100}, {"time": 3511, "pitch": 56, "duration": 7, "velocity": 97}, {"time": 3514, "pitch": 63, "duration": 5, "velocity": 99}, {"time": 3517, "pitch": 60, "duration": 3, "velocity": 90}, {"time": 3520, "pitch": 46, "duration": 18, "velocity": 97}, {"time": 3523, "pitch": 53, "duration": 14, "velocity": 52}, {"time": 3526, "pitch": 58, "duration": 6, "velocity": 102}, {"time": 3529, "pitch": 62, "duration": 3, "velocity": 92}, {"time": 3532, "pitch": 65, "duration": 6, "velocity": 112}, {"time": 3535, "pitch": 58, "duration": 2, "velocity": 99}, {"time": 3538, "pitch": 62, "duration": 4, "velocity": 99}, {"time": 3541, "pitch": 65, "duration": 5, "velocity": 99}, {"time": 3544, "pitch": 36, "duration": 22, "velocity": 78}, {"time": 3547, "pitch": 43, "duration": 22, "velocity": 70}, {"time": 3550, "pitch": 48, "duration": 7, "velocity": 90}, {"time": 3553, "pitch": 55, "duration": 4, "velocity": 82}, {"time": 3556, "pitch": 63, "duration": 6, "velocity": 117}, {"time": 3559, "pitch": 48, "duration": 3, "velocity": 85}, {"time": 3562, "pitch": 62, "duration": 4, "velocity": 92}, {"time": 3565, "pitch": 60, "duration": 3, "velocity": 79}, {"time": 3568, "pitch": 36, "duration": 15, "velocity": 69}, {"time": 3571, "pitch": 43, "duration": 13, "velocity": 69}, {"time": 3574, "pitch": 48, "duration": 7, "velocity": 93}, {"time": 3577, "pitch": 60, "duration": 4, "velocity": 85}, {"time": 3580, "pitch": 67, "duration": 10, "velocity": 117}, {"time": 3583, "pitch": 48, "duration": 2, "velocity": 88}, {"time": 3586, "pitch": 63, "duration": 4, "velocity": 107}, {"time": 3589, "pitch": 60, "duration": 3, "velocity": 92}, {"time": 3592, "pitch": 44, "duration": 17, "velocity": 88}, {"time": 3595, "pitch": 51, "duration": 13, "velocity": 35}, {"time": 3598, "pitch": 56, "duration": 7, "velocity": 99}, {"time": 3601, "pitch": 60, "duration": 5, "velocity": 81}, {"time": 3604, "pitch": 68, "duration": 9, "velocity": 127}, {"time": 3607, "pitch": 56, "duration": 4, "velocity": 95}, {"time": 3610, "pitch": 63, "duration": 4, "velocity": 100}, {"time": 3613, "pitch": 60, "duration": 3, "velocity": 100}, {"time": 3616, "pitch": 46, "duration": 18, "velocity": 74}, {"time": 3619, "pitch": 53, "duration": 14, "velocity": 74}, {"time": 3622, "pitch": 58, "duration": 7, "velocity": 95}, {"time": 3625, "pitch": 62, "duration": 3, "velocity": 86}, {"time": 3628, "pitch": 65, "duration": 7, "velocity": 102}, {"time": 3631, "pitch": 58, "duration": 3, "velocity": 100}, {"time": 3634, "pitch": 62, "duration": 4, "velocity": 97}, {"time": 3637, "pitch": 65, "duration": 3, "velocity": 99}, {"time": 3640, "pitch": 48, "duration": 20, "velocity": 63}, {"time": 3643, "pitch": 55, "duration": 10, "velocity": 85}, {"time": 3646, "pitch": 60, "duration": 5, "velocity": 86}, {"time": 3649, "pitch": 63, "duration": 3, "velocity": 97}, {"time": 3652, "pitch": 67, "duration": 12, "velocity": 99}, {"time": 3655, "pitch": 55, "duration": 4, "velocity": 89}, {"time": 3658, "pitch": 63, "duration": 4, "velocity": 117}, {"time": 3661, "pitch": 62, "duration": 3, "velocity": 93}, {"time": 3664, "pitch": 36, "duration": 21, "velocity": 75}, {"time": 3667, "pitch": 43, "duration": 17, "velocity": 92}, {"time": 3670, "pitch": 48, "duration": 7, "velocity": 93}, {"time": 3673, "pitch": 55, "duration": 6, "velocity": 89}, {"time": 3676, "pitch": 63, "duration": 11, "velocity": 127}, {"time": 3679, "pitch": 48, "duration": 4, "velocity": 96}, {"time": 3682, "pitch": 60, "duration": 5, "velocity": 97}, {"time": 3685, "pitch": 55, "duration": 3, "velocity": 99}, {"time": 3688, "pitch": 39, "duration": 16, "velocity": 95}, {"time": 3691, "pitch": 46, "duration": 12, "velocity": 55}, {"time": 3694, "pitch": 51, "duration": 6, "velocity": 92}, {"time": 3697, "pitch": 55, "duration": 6, "velocity": 69}, {"time": 3700, "pitch": 63, "duration": 10, "velocity": 112}, {"time": 3703, "pitch": 51, "duration": 2, "velocity": 85}, {"time": 3706, "pitch": 58, "duration": 5, "velocity": 99}, {"time": 3709, "pitch": 55, "duration": 3, "velocity": 85}, {"time": 3712, "pitch": 46, "duration": 17, "velocity": 86}, {"time": 3715, "pitch": 53, "duration": 13, "velocity": 60}, {"time": 3718, "pitch": 58, "duration": 6, "velocity": 100}, {"time": 3721, "pitch": 62, "duration": 3, "velocity": 82}, {"time": 3724, "pitch": 65, "duration": 7, "velocity": 96}, {"time": 3727, "pitch": 58, "duration": 3, "velocity": 100}, {"time": 3730, "pitch": 62, "duration": 4, "velocity": 93}, {"time": 3733, "pitch": 65, "duration": 3, "velocity": 96}, {"time": 3736, "pitch": 48, "duration": 23, "velocity": 81}, {"time": 3739, "pitch": 55, "duration": 10, "velocity": 64}, {"time": 3742, "pitch": 60, "duration": 4, "velocity": 93}, {"time": 3745, "pitch": 63, "duration": 3, "velocity": 93}, {"time": 3748, "pitch": 67, "duration": 9, "velocity": 95}, {"time": 3751, "pitch": 55, "duration": 9, "velocity": 89}, {"time": 3754, "pitch": 65, "duration": 4, "velocity": 74}, {"time": 3757, "pitch": 63, "duration": 4, "velocity": 93}, {"time": 3760, "pitch": 48, "duration": 16, "velocity": 73}, {"time": 3763, "pitch": 55, "duration": 10, "velocity": 69}, {"time": 3766, "pitch": 60, "duration": 3, "velocity": 92}, {"time": 3769, "pitch": 63, "duration": 3, "velocity": 86}, {"time": 3772, "pitch": 67, "duration": 11, "velocity": 96}, {"time": 3775, "pitch": 55, "duration": 2, "velocity": 82}, {"time": 3778, "pitch": 63, "duration": 4, "velocity": 107}, {"time": 3781, "pitch": 60, "duration": 2, "velocity": 85}, {"time": 3784, "pitch": 44, "duration": 17, "velocity": 86}, {"time": 3787, "pitch": 51, "duration": 12, "velocity": 37}, {"time": 3790, "pitch": 56, "duration": 7, "velocity": 89}, {"time": 3793, "pitch": 60, "duration": 5, "velocity": 81}, {"time": 3796, "pitch": 68, "duration": 10, "velocity": 107}, {"time": 3799, "pitch": 56, "duration": 4, "velocity": 77}, {"time": 3802, "pitch": 63, "duration": 5, "velocity": 97}, {"time": 3805, "pitch": 60, "duration": 3, "velocity": 89}, {"time": 3808, "pitch": 46, "duration": 18, "velocity": 83}, {"time": 3811, "pitch": 53, "duration": 14, "velocity": 65}, {"time": 3814, "pitch": 58, "duration": 7, "velocity": 97}, {"time": 3817, "pitch": 62, "duration": 3, "velocity": 71}, {"time": 3820, "pitch": 65, "duration": 6, "velocity": 96}, {"time": 3823, "pitch": 58, "duration": 2, "velocity": 96}, {"time": 3826, "pitch": 62, "duration": 4, "velocity": 97}, {"time": 3829, "pitch": 65, "duration": 4, "velocity": 92}, {"time": 3832, "pitch": 36, "duration": 22, "velocity": 77}, {"time": 3835, "pitch": 43, "duration": 22, "velocity": 71}, {"time": 3838, "pitch": 48, "duration": 7, "velocity": 82}, {"time": 3841, "pitch": 55, "duration": 5, "velocity": 72}, {"time": 3844, "pitch": 63, "duration": 7, "velocity": 122}, {"time": 3847, "pitch": 48, "duration": 3, "velocity": 79}, {"time": 3850, "pitch": 62, "duration": 4, "velocity": 81}, {"time": 3853, "pitch": 60, "duration": 4, "velocity": 66}, {"time": 3856, "pitch": 36, "duration": 21, "velocity": 71}, {"time": 3859, "pitch": 43, "duration": 18, "velocity": 67}, {"time": 3862, "pitch": 48, "duration": 7, "velocity": 88}, {"time": 3865, "pitch": 55, "duration": 5, "velocity": 83}, {"time": 3868, "pitch": 63, "duration": 11, "velocity": 127}, {"time": 3871, "pitch": 48, "duration": 5, "velocity": 92}, {"time": 3874, "pitch": 60, "duration": 5, "velocity": 95}, {"time": 3877, "pitch": 55, "duration": 3, "velocity": 92}, {"time": 3880, "pitch": 44, "duration": 17, "velocity": 92}, {"time": 3883, "pitch": 51, "duration": 13, "velocity": 67}, {"time": 3886, "pitch": 56, "duration": 7, "velocity": 99}, {"time": 3889, "pitch": 60, "duration": 4, "velocity": 78}, {"time": 3892, "pitch": 68, "duration": 10, "velocity": 100}, {"time": 3895, "pitch": 56, "duration": 7, "velocity": 97}, {"time": 3898, "pitch": 63, "duration": 5, "velocity": 99}, {"time": 3901, "pitch": 60, "duration": 3, "velocity": 90}, {"time": 3904, "pitch": 46, "duration": 18, "velocity": 97}, {"time": 3907, "pitch": 53, "duration": 14, "velocity": 52}, {"time": 3910, "pitch": 58, "duration": 6, "velocity": 102}, {"time": 3913, "pitch": 62, "duration": 3, "velocity": 92}, {"time": 3916, "pitch": 65, "duration": 6, "velocity": 112}, {"time": 3919, "pitch": 58, "duration": 2, "velocity": 99}, {"time": 3922, "pitch": 62, "duration": 4, "velocity": 99}, {"time": 3925, "pitch": 65, "duration": 5, "velocity": 99}, {"time": 3928, "pitch": 36, "duration": 22, "velocity": 78}, {"time": 3931, "pitch": 43, "duration": 22, "velocity": 70}, {"time": 3934, "pitch": 48, "duration": 7, "velocity": 90}, {"time": 3937, "pitch": 55, "duration": 4, "velocity": 82}, {"time": 3940, "pitch": 63, "duration": 6, "velocity": 117}, {"time": 3943, "pitch": 48, "duration": 3, "velocity": 85}, {"time": 3946, "pitch": 62, "duration": 4, "velocity": 92}, {"time": 3949, "pitch": 60, "duration": 3, "velocity": 79}, {"time": 3952, "pitch": 36, "duration": 15, "velocity": 69}, {"time": 3955, "pitch": 43, "duration": 13, "velocity": 69}, {"time": 3958, "pitch": 48, "duration": 7, "velocity": 93}, {"time": 3961, "pitch": 60, "duration": 4, "velocity": 85}, {"time": 3964, "pitch": 67, "duration": 10, "velocity": 117}, {"time": 3967, "pitch": 48, "duration": 2, "velocity": 88}, {"time": 3970, "pitch": 63, "duration": 4, "velocity": 107}, {"time": 3973, "pitch": 60, "duration": 3, "velocity": 92}, {"time": 3976, "pitch": 44, "duration": 17, "velocity": 88}, {"time": 3979, "pitch": 51, "duration": 13, "velocity": 35}, {"time": 3982, "pitch": 56, "duration": 7, "velocity": 99}, {"time": 3985, "pitch": 60, "duration": 5, "velocity": 81}, {"time": 3988, "pitch": 68, "duration": 9, "velocity": 127}, {"time": 3991, "pitch": 56, "duration": 4, "velocity": 95}, {"time": 3994, "pitch": 63, "duration": 4, "velocity": 100}, {"time": 3997, "pitch": 60, "duration": 3, "velocity": 100}, {"time": 4000, "pitch": 46, "duration": 18, "velocity": 74}, {"time": 4003, "pitch": 53, "duration": 14, "velocity": 74}, {"time": 4006, "pitch": 58, "duration": 7, "velocity": 95}, {"time": 4009, "pitch": 62, "duration": 3, "velocity": 86}, {"time": 4012, "pitch": 65, "duration": 7, "velocity": 102}, {"time": 4015, "pitch": 58, "duration": 3, "velocity": 100}, {"time": 4018, "pitch": 62, "duration": 4, "velocity": 97}, {"time": 4021, "pitch": 65, "duration": 3, "velocity": 99}, {"time": 4024, "pitch": 48, "duration": 20, "velocity": 63}, {"time": 4027, "pitch": 55, "duration": 10, "velocity": 85}, {"time": 4030, "pitch": 60, "duration": 5, "velocity": 86}, {"time": 4033, "pitch": 63, "duration": 3, "velocity": 97}, {"time": 4036, "pitch": 67, "duration": 12, "velocity": 99}, {"time": 4039, "pitch": 55, "duration": 4, "velocity": 89}, {"time": 4042, "pitch": 63, "duration": 4, "velocity": 117}, {"time": 4045, "pitch": 62, "duration": 3, "velocity": 93}, {"time": 4048, "pitch": 36, "duration": 21, "velocity": 75}, {"time": 4051, "pitch": 43, "duration": 17, "velocity": 92}, {"time": 4054, "pitch": 48, "duration": 7, "velocity": 93}, {"time": 4057, "pitch": 55, "duration": 6, "velocity": 89}, {"time": 4060, "pitch": 63, "duration": 11, "velocity": 127}, {"time": 4063, "pitch": 48, "duration": 4, "velocity": 96}, {"time": 4066, "pitch": 60, "duration": 5, "velocity": 97}, {"time": 4069, "pitch": 55, "duration": 3, "velocity": 99}, {"time": 4072, "pitch": 39, "duration": 16, "velocity": 88}, {"time": 4078, "pitch": 46, "duration": 9, "velocity": 52}, {"time": 4084, "pitch": 51, "duration": 5, "velocity": 48}, {"time": 4084, "pitch": 58, "duration": 12, "velocity": 102}, {"time": 4090, "pitch": 55, "duration": 7, "velocity": 78}, {"time": 4096, "pitch": 46, "duration": 21, "velocity": 86}, {"time": 4102, "pitch": 53, "duration": 12, "velocity": 43}, {"time": 4108, "pitch": 58, "duration": 6, "velocity": 76}, {"time": 4108, "pitch": 65, "duration": 11, "velocity": 95}, {"time": 4114, "pitch": 62, "duration": 5, "velocity": 79}, {"time": 4120, "pitch": 48, "duration": 22, "velocity": 96}, {"time": 4126, "pitch": 55, "duration": 18, "velocity": 64}, {"time": 4132, "pitch": 67, "duration": 21, "velocity": 92}, {"time": 4138, "pitch": 63, "duration": 17, "velocity": 85}, {"time": 4144, "pitch": 48, "duration": 14, "velocity": 72}, {"time": 4150, "pitch": 55, "duration": 7, "velocity": 77}, {"time": 4156, "pitch": 67, "duration": 11, "velocity": 107}, {"time": 4162, "pitch": 63, "duration": 8, "velocity": 99}, {"time": 4168, "pitch": 44, "duration": 15, "velocity": 88}, {"time": 4174, "pitch": 51, "duration": 9, "velocity": 58}, {"time": 4180, "pitch": 63, "duration": 7, "velocity": 107}, {"time": 4186, "pitch": 60, "duration": 8, "velocity": 89}, {"time": 4192, "pitch": 46, "duration": 17, "velocity": 88}, {"time": 4198, "pitch": 53, "duration": 10, "velocity": 66}, {"time": 4204, "pitch": 58, "duration": 5, "velocity": 81}, {"time": 4204, "pitch": 65, "duration": 14, "velocity": 100}, {"time": 4210, "pitch": 62, "duration": 8, "velocity": 81}, {"time": 4216, "pitch": 36, "duration": 46, "velocity": 78}, {"time": 4222, "pitch": 43, "duration": 80, "velocity": 61}, {"time": 4228, "pitch": 48, "duration": 27, "velocity": 86}, {"time": 4234, "pitch": 51, "duration": 7, "velocity": 66}, {"time": 4240, "pitch": 55, "duration": 1, "velocity": 72}, {"time": 4246, "pitch": 63, "duration": 7, "velocity": 81}, {"time": 4252, "pitch": 67, "duration": 11, "velocity": 76}, {"time": 4258, "pitch": 63, "duration": 44, "velocity": 52}, {"time": 4264, "pitch": 36, "duration": 38, "velocity": 50}, {"time": 4264, "pitch": 60, "duration": 38, "velocity": 56}, {"time": 4264, "pitch": 67, "duration": 38, "velocity": 59}], "annotations": [{"time": 40, "annotation": {"number": 64, "value": 127}, "group": "control_change"}, {"time": 62, "annotation": {"number": 64, "value": 0}, "group": "control_change"}, {"time": 64, "annotation": {"number": 64, "value": 127}, "group": "control_change"}, {"time": 86, "annotation": {"number": 64, "value": 0}, "group": "control_change"}, {"time": 88, "annotation": {"number": 64, "value": 127}, "group": "control_change"}, {"time": 116, "annotation": {"number": 64, "value": 0}, "group": "control_change"}, {"time": 118, "annotation": {"number": 64, "value": 127}, "group": "control_change"}, {"time": 127, "annotation": {"number": 64, "value": 0}, "group": "control_change"}, {"time": 137, "annotation": {"number": 64, "value": 127}, "group": "control_change"}, {"time": 157, "annotation": {"number": 64, "value": 0}, "group": "control_change"}, {"time": 161, "annotation": {"number": 64, "value": 127}, "group": "control_change"}, {"time": 179, "annotation": {"number": 64, "value": 0}, "group": "control_change"}, {"time": 196, "annotation": {"number": 64, "value": 127}, "group": "control_change"}, {"time": 207, "annotation": {"number": 64, "value": 0}, "group": "control_change"}, {"time": 210, "annotation": {"number": 64, "value": 127}, "group": "control_change"}, {"time": 230, "annotation": {"number": 64, "value": 0}, "group": "control_change"}, {"time": 232, "annotation": {"number": 64, "value": 127}, "group": "control_change"}, {"time": 254, "annotation": {"number": 64, "value": 0}, "group": "control_change"}, {"time": 256, "annotation": {"number": 64, "value": 127}, "group": "control_change"}, {"time": 278, "annotation": {"number": 64, "value": 0}, "group": "control_change"}, {"time": 280, "annotation": {"number": 64, "value": 127}, "group": "control_change"}, {"time": 326, "annotation": {"number": 64, "value": 0}, "group": "control_change"}, {"time": 328, "annotation": {"number": 64, "value": 127}, "group": "control_change"}, {"time": 350, "annotation": {"number": 64, "value": 0}, "group": "control_change"}, {"time": 352, "annotation": {"number": 64, "value": 127}, "group": "control_change"}, {"time": 374, "annotation": {"number": 64, "value": 0}, "group": "control_change"}, {"time": 377, "annotation": {"number": 64, "value": 127}, "group": "control_change"}, {"time": 400, "annotation": {"number": 64, "value": 0}, "group": "control_change"}, {"time": 400, "annotation": {"number": 64, "value": 127}, "group": "control_change"}, {"time": 420, "annotation": {"number": 64, "value": 0}, "group": "control_change"}, {"time": 426, "annotation": {"number": 64, "value": 127}, "group": "control_change"}, {"time": 448, "annotation": {"number": 64, "value": 0}, "group": "control_change"}, {"time": 450, "annotation": {"number": 64, "value": 127}, "group": "control_change"}, {"time": 469, "annotation": {"number": 64, "value": 0}, "group": "control_change"}, {"time": 472, "annotation": {"number": 64, "value": 127}, "group": "control_change"}, {"time": 517, "annotation": {"number": 64, "value": 0}, "group": "control_change"}, {"time": 521, "annotation": {"number": 64, "value": 127}, "group": "control_change"}, {"time": 541, "annotation": {"number": 64, "value": 0}, "group": "control_change"}, {"time": 544, "annotation": {"number": 64, "value": 127}, "group": "control_change"}, {"time": 565, "annotation": {"number": 64, "value": 0}, "group": "control_change"}, {"time": 569, "annotation": {"number": 64, "value": 127}, "group": "control_change"}, {"time": 613, "annotation": {"number": 64, "value": 0}, "group": "control_change"}, {"time": 618, "annotation": {"number": 64, "value": 127}, "group": "control_change"}, {"time": 640, "annotation": {"number": 64, "value": 0}, "group": "control_change"}, {"time": 642, "annotation": {"number": 64, "value": 127}, "group": "control_change"}, {"time": 661, "annotation": {"number": 64, "value": 0}, "group": "control_change"}, {"time": 664, "annotation": {"number": 64, "value": 127}, "group": "control_change"}, {"time": 709, "annotation": {"number": 64, "value": 0}, "group": "control_change"}, {"time": 713, "annotation": {"number": 64, "value": 127}, "group": "control_change"}, {"time": 733, "annotation": {"number": 64, "value": 0}, "group": "control_change"}, {"time": 736, "annotation": {"number": 64, "value": 127}, "group": "control_change"}, {"time": 757, "annotation": {"number": 64, "value": 0}, "group": "control_change"}, {"time": 761, "annotation": {"number": 64, "value": 127}, "group": "control_change"}, {"time": 810, "annotation": {"number": 64, "value": 127}, "group": "control_change"}, {"time": 832, "annotation": {"number": 64, "value": 0}, "group": "control_change"}, {"time": 834, "annotation": {"number": 64, "value": 127}, "group": "control_change"}, {"time": 853, "annotation": {"number": 64, "value": 0}, "group": "control_change"}, {"time": 856, "annotation": {"number": 64, "value": 127}, "group": "control_change"}, {"time": 901, "annotation": {"number": 64, "value": 0}, "group": "control_change"}, {"time": 905, "annotation": {"number": 64, "value": 127}, "group": "control_change"}, {"time": 925, "annotation": {"number": 64, "value": 0}, "group": "control_change"}, {"time": 928, "annotation": {"number": 64, "value": 127}, "group": "control_change"}, {"time": 949, "annotation": {"number": 64, "value": 0}, "group": "control_change"}, {"time": 953, "annotation": {"number": 64, "value": 127}, "group": "control_change"}, {"time": 997, "annotation": {"number": 64, "value": 0}, "group": "control_change"}, {"time": 1002, "annotation": {"number": 64, "value": 127}, "group": "control_change"}, {"time": 1024, "annotation": {"number": 64, "value": 0}, "group": "control_change"}, {"time": 1026, "annotation": {"number": 64, "value": 127}, "group": "control_change"}, {"time": 1045, "annotation": {"number": 64, "value": 0}, "group": "control_change"}, {"time": 1048, "annotation": {"number": 64, "value": 127}, "group": "control_change"}, {"time": 1093, "annotation": {"number": 64, "value": 0}, "group": "control_change"}, {"time": 1097, "annotation": {"number": 64, "value": 127}, "group": "control_change"}, {"time": 1117, "annotation": {"number": 64, "value": 0}, "group": "control_change"}, {"time": 1120, "annotation": {"number": 64, "value": 127}, "group": "control_change"}, {"time": 1141, "annotation": {"number": 64, "value": 0}, "group": "control_change"}, {"time": 1145, "annotation": {"number": 64, "value": 127}, "group": "control_change"}, {"time": 1189, "annotation": {"number": 64, "value": 0}, "group": "control_change"}, {"time": 1192, "annotation": {"number": 64, "value": 127}, "group": "control_change"}, {"time": 1214, "annotation": {"number": 64, "value": 0}, "group": "control_change"}, {"time": 1217, "annotation": {"number": 64, "value": 127}, "group": "control_change"}, {"time": 1238, "annotation": {"number": 64, "value": 0}, "group": "control_change"}, {"time": 1241, "annotation": {"number": 64, "value": 127}, "group": "control_change"}, {"time": 1262, "annotation": {"number": 64, "value": 0}, "group": "control_change"}, {"time": 1265, "annotation": {"number": 64, "value": 127}, "group": "control_change"}, {"time": 1286, "annotation": {"number": 64, "value": 0}, "group": "control_change"}, {"time": 1288, "annotation": {"number": 64, "value": 127}, "group": "control_change"}, {"time": 1310, "annotation": {"number": 64, "value": 0}, "group": "control_change"}, {"time": 1312, "annotation": {"number": 64, "value": 127}, "group": "control_change"}, {"time": 1334, "annotation": {"number": 64, "value": 0}, "group": "control_change"}, {"time": 1336, "annotation": {"number": 64, "value": 127}, "group": "control_change"}, {"time": 1357, "annotation": {"number": 64, "value": 0}, "group": "control_change"}, {"time": 1360, "annotation": {"number": 64, "value": 127}, "group": "control_change"}, {"time": 1380, "annotation": {"number": 64, "value": 0}, "group": "control_change"}, {"time": 1385, "annotation": {"number": 64, "value": 127}, "group": "control_change"}, {"time": 1406, "annotation": {"number": 64, "value": 0}, "group": "control_change"}, {"time": 1408, "annotation": {"number": 64, "value": 127}, "group": "control_change"}, {"time": 1430, "annotation": {"number": 64, "value": 0}, "group": "control_change"}, {"time": 1433, "annotation": {"number": 64, "value": 127}, "group": "control_change"}, {"time": 1454, "annotation": {"number": 64, "value": 0}, "group": "control_change"}, {"time": 1457, "annotation": {"number": 64, "value": 127}, "group": "control_change"}, {"time": 1478, "annotation": {"number": 64, "value": 0}, "group": "control_change"}, {"time": 1481, "annotation": {"number": 64, "value": 127}, "group": "control_change"}, {"time": 1501, "annotation": {"number": 64, "value": 0}, "group": "control_change"}, {"time": 1504, "annotation": {"number": 64, "value": 127}, "group": "control_change"}, {"time": 1525, "annotation": {"number": 64, "value": 0}, "group": "control_change"}, {"time": 1529, "annotation": {"number": 64, "value": 127}, "group": "control_change"}, {"time": 1549, "annotation": {"number": 64, "value": 0}, "group": "control_change"}, {"time": 1553, "annotation": {"number": 64, "value": 127}, "group": "control_change"}, {"time": 1568, "annotation": {"number": 64, "value": 0}, "group": "control_change"}, {"time": 1598, "annotation": {"number": 64, "value": 0}, "group": "control_change"}, {"time": 1601, "annotation": {"number": 64, "value": 127}, "group": "control_change"}, {"time": 1622, "annotation": {"number": 64, "value": 0}, "group": "control_change"}, {"time": 1625, "annotation": {"number": 64, "value": 127}, "group": "control_change"}, {"time": 1646, "annotation": {"number": 64, "value": 0}, "group": "control_change"}, {"time": 1649, "annotation": {"number": 64, "value": 127}, "group": "control_change"}, {"time": 1670, "annotation": {"number": 64, "value": 0}, "group": "control_change"}, {"time": 1672, "annotation": {"number": 64, "value": 127}, "group": "control_change"}, {"time": 1694, "annotation": {"number": 64, "value": 0}, "group": "control_change"}, {"time": 1696, "annotation": {"number": 64, "value": 127}, "group": "control_change"}, {"time": 1718, "annotation": {"number": 64, "value": 0}, "group": "control_change"}, {"time": 1720, "annotation": {"number": 64, "value": 127}, "group": "control_change"}, {"time": 1741, "annotation": {"number": 64, "value": 0}, "group": "control_change"}, {"time": 1744, "annotation": {"number": 64, "value": 127}, "group": "control_change"}, {"time": 1764, "annotation": {"number": 64, "value": 0}, "group": "control_change"}, {"time": 1769, "annotation": {"number": 64, "value": 127}, "group": "control_change"}, {"time": 1790, "annotation": {"number": 64, "value": 0}, "group": "control_change"}, {"time": 1792, "annotation": {"number": 64, "value": 127}, "group": "control_change"}, {"time": 1814, "annotation": {"number": 64, "value": 0}, "group": "control_change"}, {"time": 1817, "annotation": {"number": 64, "value": 127}, "group": "control_change"}, {"time": 1838, "annotation": {"number": 64, "value": 0}, "group": "control_change"}, {"time": 1841, "annotation": {"number": 64, "value": 127}, "group": "control_change"}, {"time": 1862, "annotation": {"number": 64, "value": 0}, "group": "control_change"}, {"time": 1865, "annotation": {"number": 64, "value": 127}, "group": "control_change"}, {"time": 1885, "annotation": {"number": 64, "value": 0}, "group": "control_change"}, {"time": 1888, "annotation": {"number": 64, "value": 127}, "group": "control_change"}, {"time": 1909, "annotation": {"number": 64, "value": 0}, "group": "control_change"}, {"time": 1913, "annotation": {"number": 64, "value": 127}, "group": "control_change"}, {"time": 1933, "annotation": {"number": 64, "value": 0}, "group": "control_change"}, {"time": 1937, "annotation": {"number": 64, "value": 127}, "group": "control_change"}, {"time": 1952, "annotation": {"number": 64, "value": 0}, "group": "control_change"}, {"time": 1992, "annotation": {"number": 64, "value": 127}, "group": "control_change"}, {"time": 2005, "annotation": {"number": 64, "value": 0}, "group": "control_change"}, {"time": 2082, "annotation": {"number": 64, "value": 127}, "group": "control_change"}, {"time": 2102, "annotation": {"number": 64, "value": 0}, "group": "control_change"}, {"time": 2105, "annotation": {"number": 64, "value": 127}, "group": "control_change"}, {"time": 2149, "annotation": {"number": 64, "value": 0}, "group": "control_change"}, {"time": 2154, "annotation": {"number": 64, "value": 127}, "group": "control_change"}, {"time": 2176, "annotation": {"number": 64, "value": 0}, "group": "control_change"}, {"time": 2178, "annotation": {"number": 64, "value": 127}, "group": "control_change"}, {"time": 2197, "annotation": {"number": 64, "value": 0}, "group": "control_change"}, {"time": 2200, "annotation": {"number": 64, "value": 127}, "group": "control_change"}, {"time": 2245, "annotation": {"number": 64, "value": 0}, "group": "control_change"}, {"time": 2249, "annotation": {"number": 64, "value": 127}, "group": "control_change"}, {"time": 2269, "annotation": {"number": 64, "value": 0}, "group": "control_change"}, {"time": 2272, "annotation": {"number": 64, "value": 127}, "group": "control_change"}, {"time": 2293, "annotation": {"number": 64, "value": 0}, "group": "control_change"}, {"time": 2297, "annotation": {"number": 64, "value": 127}, "group": "control_change"}, {"time": 2341, "annotation": {"number": 64, "value": 0}, "group": "control_change"}, {"time": 2346, "annotation": {"number": 64, "value": 127}, "group": "control_change"}, {"time": 2368, "annotation": {"number": 64, "value": 0}, "group": "control_change"}, {"time": 2370, "annotation": {"number": 64, "value": 127}, "group": "control_change"}, {"time": 2389, "annotation": {"number": 64, "value": 0}, "group": "control_change"}, {"time": 2392, "annotation": {"number": 64, "value": 127}, "group": "control_change"}, {"time": 2437, "annotation": {"number": 64, "value": 0}, "group": "control_change"}, {"time": 2441, "annotation": {"number": 64, "value": 127}, "group": "control_change"}, {"time": 2461, "annotation": {"number": 64, "value": 0}, "group": "control_change"}, {"time": 2464, "annotation": {"number": 64, "value": 127}, "group": "control_change"}, {"time": 2485, "annotation": {"number": 64, "value": 0}, "group": "control_change"}, {"time": 2489, "annotation": {"number": 64, "value": 127}, "group": "control_change"}, {"time": 2533, "annotation": {"number": 64, "value": 0}, "group": "control_change"}, {"time": 2536, "annotation": {"number": 64, "value": 127}, "group": "control_change"}, {"time": 2558, "annotation": {"number": 64, "value": 0}, "group": "control_change"}, {"time": 2561, "annotation": {"number": 64, "value": 127}, "group": "control_change"}, {"time": 2582, "annotation": {"number": 64, "value": 0}, "group": "control_change"}, {"time": 2585, "annotation": {"number": 64, "value": 127}, "group": "control_change"}, {"time": 2606, "annotation": {"number": 64, "value": 0}, "group": "control_change"}, {"time": 2609, "annotation": {"number": 64, "value": 127}, "group": "control_change"}, {"time": 2630, "annotation": {"number": 64, "value": 0}, "group": "control_change"}, {"time": 2632, "annotation": {"number": 64, "value": 127}, "group": "control_change"}, {"time": 2654, "annotation": {"number": 64, "value": 0}, "group": "control_change"}, {"time": 2656, "annotation": {"number": 64, "value": 127}, "group": "control_change"}, {"time": 2678, "annotation": {"number": 64, "value": 0}, "group": "control_change"}, {"time": 2680, "annotation": {"number": 64, "value": 127}, "group": "control_change"}, {"time": 2701, "annotation": {"number": 64, "value": 0}, "group": "control_change"}, {"time": 2704, "annotation": {"number": 64, "value": 127}, "group": "control_change"}, {"time": 2724, "annotation": {"number": 64, "value": 0}, "group": "control_change"}, {"time": 2729, "annotation": {"number": 64, "value": 127}, "group": "control_change"}, {"time": 2750, "annotation": {"number": 64, "value": 0}, "group": "control_change"}, {"time": 2752, "annotation": {"number": 64, "value": 127}, "group": "control_change"}, {"time": 2774, "annotation": {"number": 64, "value": 0}, "group": "control_change"}, {"time": 2777, "annotation": {"number": 64, "value": 127}, "group": "control_change"}, {"time": 2798, "annotation": {"number": 64, "value": 0}, "group": "control_change"}, {"time": 2801, "annotation": {"number": 64, "value": 127}, "group": "control_change"}, {"time": 2822, "annotation": {"number": 64, "value": 0}, "group": "control_change"}, {"time": 2825, "annotation": {"number": 64, "value": 127}, "group": "control_change"}, {"time": 2845, "annotation": {"number": 64, "value": 0}, "group": "control_change"}, {"time": 2848, "annotation": {"number": 64, "value": 127}, "group": "control_change"}, {"time": 2869, "annotation": {"number": 64, "value": 0}, "group": "control_change"}, {"time": 2873, "annotation": {"number": 64, "value": 127}, "group": "control_change"}, {"time": 2893, "annotation": {"number": 64, "value": 0}, "group": "control_change"}, {"time": 2897, "annotation": {"number": 64, "value": 127}, "group": "control_change"}, {"time": 2912, "annotation": {"number": 64, "value": 0}, "group": "control_change"}, {"time": 2942, "annotation": {"number": 64, "value": 0}, "group": "control_change"}, {"time": 2945, "annotation": {"number": 64, "value": 127}, "group": "control_change"}, {"time": 2966, "annotation": {"number": 64, "value": 0}, "group": "control_change"}, {"time": 2969, "annotation": {"number": 64, "value": 127}, "group": "control_change"}, {"time": 2990, "annotation": {"number": 64, "value": 0}, "group": "control_change"}, {"time": 2993, "annotation": {"number": 64, "value": 127}, "group": "control_change"}, {"time": 3014, "annotation": {"number": 64, "value": 0}, "group": "control_change"}, {"time": 3016, "annotation": {"number": 64, "value": 127}, "group": "control_change"}, {"time": 3038, "annotation": {"number": 64, "value": 0}, "group": "control_change"}, {"time": 3040, "annotation": {"number": 64, "value": 127}, "group": "control_change"}, {"time": 3062, "annotation": {"number": 64, "value": 0}, "group": "control_change"}, {"time": 3064, "annotation": {"number": 64, "value": 127}, "group": "control_change"}, {"time": 3085, "annotation": {"number": 64, "value": 0}, "group": "control_change"}, {"time": 3088, "annotation": {"number": 64, "value": 127}, "group": "control_change"}, {"time": 3108, "annotation": {"number": 64, "value": 0}, "group": "control_change"}, {"time": 3113, "annotation": {"number": 64, "value": 127}, "group": "control_change"}, {"time": 3134, "annotation": {"number": 64, "value": 0}, "group": "control_change"}, {"time": 3136, "annotation": {"number": 64, "value": 127}, "group": "control_change"}, {"time": 3158, "annotation": {"number": 64, "value": 0}, "group": "control_change"}, {"time": 3161, "annotation": {"number": 64, "value": 127}, "group": "control_change"}, {"time": 3182, "annotation": {"number": 64, "value": 0}, "group": "control_change"}, {"time": 3185, "annotation": {"number": 64, "value": 127}, "group": "control_change"}, {"time": 3206, "annotation": {"number": 64, "value": 0}, "group": "control_change"}, {"time": 3209, "annotation": {"number": 64, "value": 127}, "group": "control_change"}, {"time": 3229, "annotation": {"number": 64, "value": 0}, "group": "control_change"}, {"time": 3232, "annotation": {"number": 64, "value": 127}, "group": "control_change"}, {"time": 3253, "annotation": {"number": 64, "value": 0}, "group": "control_change"}, {"time": 3257, "annotation": {"number": 64, "value": 127}, "group": "control_change"}, {"time": 3277, "annotation": {"number": 64, "value": 0}, "group": "control_change"}, {"time": 3281, "annotation": {"number": 64, "value": 127}, "group": "control_change"}, {"time": 3296, "annotation": {"number": 64, "value": 0}, "group": "control_change"}, {"time": 3326, "annotation": {"number": 64, "value": 0}, "group": "control_change"}, {"time": 3329, "annotation": {"number": 64, "value": 127}, "group": "control_change"}, {"time": 3350, "annotation": {"number": 64, "value": 0}, "group": "control_change"}, {"time": 3353, "annotation": {"number": 64, "value": 127}, "group": "control_change"}, {"time": 3374, "annotation": {"number": 64, "value": 0}, "group": "control_change"}, {"time": 3377, "annotation": {"number": 64, "value": 127}, "group": "control_change"}, {"time": 3398, "annotation": {"number": 64, "value": 0}, "group": "control_change"}, {"time": 3400, "annotation": {"number": 64, "value": 127}, "group": "control_change"}, {"time": 3422, "annotation": {"number": 64, "value": 0}, "group": "control_change"}, {"time": 3424, "annotation": {"number": 64, "value": 127}, "group": "control_change"}, {"time": 3446, "annotation": {"number": 64, "value": 0}, "group": "control_change"}, {"time": 3448, "annotation": {"number": 64, "value": 127}, "group": "control_change"}, {"time": 3469, "annotation": {"number": 64, "value": 0}, "group": "control_change"}, {"time": 3472, "annotation": {"number": 64, "value": 127}, "group": "control_change"}, {"time": 3492, "annotation": {"number": 64, "value": 0}, "group": "control_change"}, {"time": 3497, "annotation": {"number": 64, "value": 127}, "group": "control_change"}, {"time": 3518, "annotation": {"number": 64, "value": 0}, "group": "control_change"}, {"time": 3520, "annotation": {"number": 64, "value": 127}, "group": "control_change"}, {"time": 3542, "annotation": {"number": 64, "value": 0}, "group": "control_change"}, {"time": 3545, "annotation": {"number": 64, "value": 127}, "group": "control_change"}, {"time": 3566, "annotation": {"number": 64, "value": 0}, "group": "control_change"}, {"time": 3569, "annotation": {"number": 64, "value": 127}, "group": "control_change"}, {"time": 3590, "annotation": {"number": 64, "value": 0}, "group": "control_change"}, {"time": 3593, "annotation": {"number": 64, "value": 127}, "group": "control_change"}, {"time": 3613, "annotation": {"number": 64, "value": 0}, "group": "control_change"}, {"time": 3616, "annotation": {"number": 64, "value": 127}, "group": "control_change"}, {"time": 3637, "annotation": {"number": 64, "value": 0}, "group": "control_change"}, {"time": 3641, "annotation": {"number": 64, "value": 127}, "group": "control_change"}, {"time": 3661, "annotation": {"number": 64, "value": 0}, "group": "control_change"}, {"time": 3665, "annotation": {"number": 64, "value": 127}, "group": "control_change"}, {"time": 3680, "annotation": {"number": 64, "value": 0}, "group": "control_change"}, {"time": 3710, "annotation": {"number": 64, "value": 0}, "group": "control_change"}, {"time": 3713, "annotation": {"number": 64, "value": 127}, "group": "control_change"}, {"time": 3734, "annotation": {"number": 64, "value": 0}, "group": "control_change"}, {"time": 3737, "annotation": {"number": 64, "value": 127}, "group": "control_change"}, {"time": 3758, "annotation": {"number": 64, "value": 0}, "group": "control_change"}, {"time": 3761, "annotation": {"number": 64, "value": 127}, "group": "control_change"}, {"time": 3782, "annotation": {"number": 64, "value": 0}, "group": "control_change"}, {"time": 3784, "annotation": {"number": 64, "value": 127}, "group": "control_change"}, {"time": 3806, "annotation": {"number": 64, "value": 0}, "group": "control_change"}, {"time": 3808, "annotation": {"number": 64, "value": 127}, "group": "control_change"}, {"time": 3830, "annotation": {"number": 64, "value": 0}, "group": "control_change"}, {"time": 3832, "annotation": {"number": 64, "value": 127}, "group": "control_change"}, {"time": 3853, "annotation": {"number": 64, "value": 0}, "group": "control_change"}, {"time": 3856, "annotation": {"number": 64, "value": 127}, "group": "control_change"}, {"time": 3876, "annotation": {"number": 64, "value": 0}, "group": "control_change"}, {"time": 3881, "annotation": {"number": 64, "value": 127}, "group": "control_change"}, {"time": 3902, "annotation": {"number": 64, "value": 0}, "group": "control_change"}, {"time": 3904, "annotation": {"number": 64, "value": 127}, "group": "control_change"}, {"time": 3926, "annotation": {"number": 64, "value": 0}, "group": "control_change"}, {"time": 3929, "annotation": {"number": 64, "value": 127}, "group": "control_change"}, {"time": 3950, "annotation": {"number": 64, "value": 0}, "group": "control_change"}, {"time": 3953, "annotation": {"number": 64, "value": 127}, "group": "control_change"}, {"time": 3974, "annotation": {"number": 64, "value": 0}, "group": "control_change"}, {"time": 3977, "annotation": {"number": 64, "value": 127}, "group": "control_change"}, {"time": 3997, "annotation": {"number": 64, "value": 0}, "group": "control_change"}, {"time": 4000, "annotation": {"number": 64, "value": 127}, "group": "control_change"}, {"time": 4021, "annotation": {"number": 64, "value": 0}, "group": "control_change"}, {"time": 4025, "annotation": {"number": 64, "value": 127}, "group": "control_change"}, {"time": 4045, "annotation": {"number": 64, "value": 0}, "group": "control_change"}, {"time": 4049, "annotation": {"number": 64, "value": 127}, "group": "control_change"}, {"time": 4064, "annotation": {"number": 64, "value": 0}, "group": "control_change"}, {"time": 4073, "annotation": {"number": 64, "value": 127}, "group": "control_change"}, {"time": 4095, "annotation": {"number": 64, "value": 0}, "group": "control_change"}, {"time": 4098, "annotation": {"number": 64, "value": 127}, "group": "control_change"}, {"time": 4118, "annotation": {"number": 64, "value": 0}, "group": "control_change"}, {"time": 4122, "annotation": {"number": 64, "value": 127}, "group": "control_change"}, {"time": 4165, "annotation": {"number": 64, "value": 0}, "group": "control_change"}, {"time": 4168, "annotation": {"number": 64, "value": 127}, "group": "control_change"}, {"time": 4189, "annotation": {"number": 64, "value": 0}, "group": "control_change"}, {"time": 4193, "annotation": {"number": 64, "value": 127}, "group": "control_change"}, {"time": 4214, "annotation": {"number": 64, "value": 0}, "group": "control_change"}, {"time": 4217, "annotation": {"number": 64, "value": 127}, "group": "control_change"}, {"time": 4263, "annotation": {"number": 64, "value": 0}, "group": "control_change"}, {"time": 4294, "annotation": {"number": 64, "value": 127}, "group": "control_change"}, {"time": 4313, "annotation": {"number": 64, "value": 0}, "group": "control_change"}, {"time": 4314, "annotation": {"number": 64, "value": 127}, "group": "control_change"}, {"time": 4315, "annotation": {"number": 64, "value": 0}, "group": "control_change"}, {"time": 4316, "annotation": {"number": 64, "value": 127}, "group": "control_change"}, {"time": 4318, "annotation": {"number": 64, "value": 0}, "group": "control_change"}]}]}