{"metadata": {"schema_version": "0.2", "title": "None", "source_filename": "446.mid", "source_format": "midi"}, "resolution": 12, "tempos": [{"time": 0, "qpm": 70.00007000007}], "time_signatures": [{"time": 0, "numerator": 1, "denominator": 4}], "tracks": [{"program": 0, "is_drum": false, "name": "MELODY", "notes": [{"time": 445, "pitch": 53, "duration": 2, "velocity": 93}, {"time": 448, "pitch": 53, "duration": 2, "velocity": 89}, {"time": 451, "pitch": 53, "duration": 1, "velocity": 92}, {"time": 454, "pitch": 53, "duration": 3, "velocity": 122}, {"time": 460, "pitch": 50, "duration": 2, "velocity": 93}, {"time": 463, "pitch": 57, "duration": 3, "velocity": 96}, {"time": 466, "pitch": 55, "duration": 12, "velocity": 107}, {"time": 481, "pitch": 53, "duration": 3, "velocity": 96}, {"time": 484, "pitch": 55, "duration": 3, "velocity": 86}, {"time": 487, "pitch": 60, "duration": 3, "velocity": 100}, {"time": 490, "pitch": 57, "duration": 5, "velocity": 99}, {"time": 499, "pitch": 57, "duration": 3, "velocity": 100}, {"time": 505, "pitch": 48, "duration": 3, "velocity": 88}, {"time": 508, "pitch": 50, "duration": 8, "velocity": 100}, {"time": 529, "pitch": 50, "duration": 3, "velocity": 95}, {"time": 532, "pitch": 48, "duration": 3, "velocity": 69}, {"time": 535, "pitch": 50, "duration": 3, "velocity": 95}, {"time": 538, "pitch": 53, "duration": 3, "velocity": 99}, {"time": 541, "pitch": 55, "duration": 4, "velocity": 90}, {"time": 544, "pitch": 53, "duration": 9, "velocity": 89}, {"time": 553, "pitch": 50, "duration": 3, "velocity": 89}, {"time": 556, "pitch": 53, "duration": 4, "velocity": 79}, {"time": 559, "pitch": 55, "duration": 2, "velocity": 79}, {"time": 562, "pitch": 55, "duration": 4, "velocity": 95}, {"time": 568, "pitch": 55, "duration": 2, "velocity": 70}, {"time": 571, "pitch": 55, "duration": 3, "velocity": 107}, {"time": 577, "pitch": 53, "duration": 2, "velocity": 86}, {"time": 580, "pitch": 57, "duration": 13, "velocity": 97}, {"time": 625, "pitch": 57, "duration": 3, "velocity": 112}, {"time": 628, "pitch": 60, "duration": 3, "velocity": 83}, {"time": 631, "pitch": 62, "duration": 2, "velocity": 97}, {"time": 634, "pitch": 62, "duration": 4, "velocity": 102}, {"time": 643, "pitch": 60, "duration": 3, "velocity": 117}, {"time": 649, "pitch": 57, "duration": 2, "velocity": 100}, {"time": 652, "pitch": 55, "duration": 10, "velocity": 102}, {"time": 673, "pitch": 53, "duration": 3, "velocity": 96}, {"time": 676, "pitch": 55, "duration": 3, "velocity": 95}, {"time": 679, "pitch": 60, "duration": 3, "velocity": 99}, {"time": 682, "pitch": 57, "duration": 3, "velocity": 127}, {"time": 688, "pitch": 57, "duration": 2, "velocity": 100}, {"time": 691, "pitch": 57, "duration": 3, "velocity": 107}, {"time": 697, "pitch": 48, "duration": 3, "velocity": 102}, {"time": 700, "pitch": 50, "duration": 14, "velocity": 112}, {"time": 721, "pitch": 50, "duration": 3, "velocity": 95}, {"time": 724, "pitch": 48, "duration": 3, "velocity": 86}, {"time": 727, "pitch": 55, "duration": 3, "velocity": 100}, {"time": 730, "pitch": 53, "duration": 4, "velocity": 112}, {"time": 751, "pitch": 57, "duration": 3, "velocity": 107}, {"time": 754, "pitch": 55, "duration": 2, "velocity": 96}, {"time": 763, "pitch": 53, "duration": 3, "velocity": 100}, {"time": 769, "pitch": 52, "duration": 2, "velocity": 99}, {"time": 772, "pitch": 50, "duration": 17, "velocity": 99}, {"time": 829, "pitch": 53, "duration": 2, "velocity": 93}, {"time": 832, "pitch": 53, "duration": 2, "velocity": 89}, {"time": 835, "pitch": 53, "duration": 1, "velocity": 92}, {"time": 838, "pitch": 53, "duration": 3, "velocity": 122}, {"time": 841, "pitch": 53, "duration": 3, "velocity": 107}, {"time": 844, "pitch": 50, "duration": 2, "velocity": 93}, {"time": 847, "pitch": 57, "duration": 3, "velocity": 96}, {"time": 850, "pitch": 55, "duration": 12, "velocity": 107}, {"time": 865, "pitch": 53, "duration": 3, "velocity": 96}, {"time": 868, "pitch": 55, "duration": 3, "velocity": 86}, {"time": 871, "pitch": 60, "duration": 3, "velocity": 100}, {"time": 874, "pitch": 57, "duration": 5, "velocity": 99}, {"time": 883, "pitch": 57, "duration": 3, "velocity": 100}, {"time": 889, "pitch": 48, "duration": 3, "velocity": 88}, {"time": 892, "pitch": 50, "duration": 8, "velocity": 100}, {"time": 913, "pitch": 50, "duration": 3, "velocity": 95}, {"time": 916, "pitch": 48, "duration": 3, "velocity": 69}, {"time": 919, "pitch": 50, "duration": 3, "velocity": 95}, {"time": 922, "pitch": 53, "duration": 3, "velocity": 99}, {"time": 925, "pitch": 55, "duration": 4, "velocity": 90}, {"time": 928, "pitch": 53, "duration": 9, "velocity": 89}, {"time": 937, "pitch": 50, "duration": 3, "velocity": 89}, {"time": 940, "pitch": 53, "duration": 4, "velocity": 79}, {"time": 943, "pitch": 55, "duration": 2, "velocity": 79}, {"time": 946, "pitch": 55, "duration": 4, "velocity": 95}, {"time": 952, "pitch": 55, "duration": 2, "velocity": 70}, {"time": 955, "pitch": 55, "duration": 3, "velocity": 107}, {"time": 961, "pitch": 53, "duration": 2, "velocity": 86}, {"time": 964, "pitch": 57, "duration": 13, "velocity": 97}, {"time": 1009, "pitch": 57, "duration": 3, "velocity": 112}, {"time": 1012, "pitch": 60, "duration": 3, "velocity": 83}, {"time": 1015, "pitch": 62, "duration": 2, "velocity": 97}, {"time": 1018, "pitch": 62, "duration": 4, "velocity": 102}, {"time": 1027, "pitch": 53, "duration": 3, "velocity": 117}, {"time": 1033, "pitch": 57, "duration": 2, "velocity": 100}, {"time": 1036, "pitch": 55, "duration": 10, "velocity": 102}, {"time": 1057, "pitch": 53, "duration": 3, "velocity": 96}, {"time": 1060, "pitch": 55, "duration": 3, "velocity": 95}, {"time": 1063, "pitch": 60, "duration": 3, "velocity": 99}, {"time": 1069, "pitch": 57, "duration": 3, "velocity": 102}, {"time": 1075, "pitch": 60, "duration": 2, "velocity": 117}, {"time": 1078, "pitch": 62, "duration": 3, "velocity": 100}, {"time": 1084, "pitch": 53, "duration": 12, "velocity": 102}, {"time": 1105, "pitch": 50, "duration": 3, "velocity": 95}, {"time": 1108, "pitch": 48, "duration": 3, "velocity": 86}, {"time": 1111, "pitch": 55, "duration": 3, "velocity": 100}, {"time": 1114, "pitch": 53, "duration": 4, "velocity": 112}, {"time": 1132, "pitch": 57, "duration": 2, "velocity": 96}, {"time": 1135, "pitch": 60, "duration": 4, "velocity": 127}, {"time": 1141, "pitch": 60, "duration": 3, "velocity": 117}, {"time": 1147, "pitch": 60, "duration": 1, "velocity": 112}, {"time": 1153, "pitch": 57, "duration": 3, "velocity": 102}, {"time": 1156, "pitch": 62, "duration": 27, "velocity": 127}, {"time": 1195, "pitch": 69, "duration": 4, "velocity": 117}, {"time": 1201, "pitch": 72, "duration": 5, "velocity": 127}, {"time": 1207, "pitch": 74, "duration": 4, "velocity": 122}, {"time": 1213, "pitch": 74, "duration": 4, "velocity": 122}, {"time": 1219, "pitch": 76, "duration": 4, "velocity": 127}, {"time": 1225, "pitch": 77, "duration": 4, "velocity": 117}, {"time": 1231, "pitch": 81, "duration": 4, "velocity": 127}, {"time": 1237, "pitch": 79, "duration": 4, "velocity": 127}, {"time": 1243, "pitch": 79, "duration": 4, "velocity": 127}, {"time": 1249, "pitch": 72, "duration": 4, "velocity": 112}, {"time": 1255, "pitch": 72, "duration": 4, "velocity": 112}, {"time": 1261, "pitch": 74, "duration": 4, "velocity": 127}, {"time": 1267, "pitch": 76, "duration": 4, "velocity": 117}, {"time": 1273, "pitch": 72, "duration": 4, "velocity": 112}, {"time": 1279, "pitch": 74, "duration": 9, "velocity": 127}, {"time": 1291, "pitch": 69, "duration": 5, "velocity": 112}, {"time": 1297, "pitch": 72, "duration": 5, "velocity": 127}, {"time": 1303, "pitch": 74, "duration": 4, "velocity": 100}, {"time": 1309, "pitch": 74, "duration": 5, "velocity": 99}, {"time": 1315, "pitch": 76, "duration": 4, "velocity": 117}, {"time": 1321, "pitch": 77, "duration": 4, "velocity": 127}, {"time": 1327, "pitch": 76, "duration": 5, "velocity": 127}, {"time": 1333, "pitch": 76, "duration": 3, "velocity": 117}, {"time": 1336, "pitch": 74, "duration": 3, "velocity": 99}, {"time": 1339, "pitch": 72, "duration": 4, "velocity": 122}, {"time": 1345, "pitch": 74, "duration": 3, "velocity": 122}, {"time": 1351, "pitch": 69, "duration": 3, "velocity": 102}, {"time": 1354, "pitch": 72, "duration": 3, "velocity": 107}, {"time": 1357, "pitch": 69, "duration": 12, "velocity": 112}, {"time": 1387, "pitch": 69, "duration": 5, "velocity": 112}, {"time": 1393, "pitch": 72, "duration": 5, "velocity": 127}, {"time": 1399, "pitch": 74, "duration": 5, "velocity": 127}, {"time": 1405, "pitch": 74, "duration": 4, "velocity": 117}, {"time": 1411, "pitch": 76, "duration": 4, "velocity": 127}, {"time": 1417, "pitch": 77, "duration": 4, "velocity": 117}, {"time": 1423, "pitch": 81, "duration": 3, "velocity": 127}, {"time": 1429, "pitch": 79, "duration": 4, "velocity": 122}, {"time": 1435, "pitch": 79, "duration": 4, "velocity": 122}, {"time": 1441, "pitch": 72, "duration": 4, "velocity": 127}, {"time": 1447, "pitch": 81, "duration": 4, "velocity": 127}, {"time": 1453, "pitch": 81, "duration": 4, "velocity": 107}, {"time": 1459, "pitch": 84, "duration": 4, "velocity": 117}, {"time": 1465, "pitch": 81, "duration": 3, "velocity": 127}, {"time": 1468, "pitch": 79, "duration": 3, "velocity": 107}, {"time": 1471, "pitch": 77, "duration": 6, "velocity": 127}, {"time": 1483, "pitch": 81, "duration": 4, "velocity": 127}, {"time": 1489, "pitch": 79, "duration": 2, "velocity": 127}, {"time": 1492, "pitch": 81, "duration": 3, "velocity": 122}, {"time": 1498, "pitch": 74, "duration": 11, "velocity": 112}, {"time": 1519, "pitch": 76, "duration": 4, "velocity": 122}, {"time": 1525, "pitch": 74, "duration": 1, "velocity": 117}, {"time": 1528, "pitch": 74, "duration": 5, "velocity": 107}, {"time": 1534, "pitch": 72, "duration": 5, "velocity": 117}, {"time": 1540, "pitch": 74, "duration": 2, "velocity": 100}, {"time": 1543, "pitch": 74, "duration": 10, "velocity": 127}, {"time": 1981, "pitch": 53, "duration": 2, "velocity": 93}, {"time": 1984, "pitch": 53, "duration": 2, "velocity": 89}, {"time": 1987, "pitch": 53, "duration": 1, "velocity": 92}, {"time": 1990, "pitch": 53, "duration": 3, "velocity": 122}, {"time": 1996, "pitch": 50, "duration": 2, "velocity": 93}, {"time": 1999, "pitch": 57, "duration": 3, "velocity": 96}, {"time": 2002, "pitch": 55, "duration": 12, "velocity": 107}, {"time": 2017, "pitch": 53, "duration": 3, "velocity": 96}, {"time": 2020, "pitch": 55, "duration": 3, "velocity": 86}, {"time": 2023, "pitch": 60, "duration": 3, "velocity": 100}, {"time": 2026, "pitch": 57, "duration": 5, "velocity": 99}, {"time": 2035, "pitch": 57, "duration": 3, "velocity": 100}, {"time": 2041, "pitch": 48, "duration": 3, "velocity": 88}, {"time": 2044, "pitch": 50, "duration": 8, "velocity": 100}, {"time": 2065, "pitch": 50, "duration": 3, "velocity": 95}, {"time": 2068, "pitch": 48, "duration": 3, "velocity": 69}, {"time": 2071, "pitch": 50, "duration": 3, "velocity": 95}, {"time": 2074, "pitch": 53, "duration": 3, "velocity": 99}, {"time": 2077, "pitch": 55, "duration": 4, "velocity": 90}, {"time": 2080, "pitch": 53, "duration": 9, "velocity": 89}, {"time": 2089, "pitch": 50, "duration": 3, "velocity": 89}, {"time": 2092, "pitch": 53, "duration": 4, "velocity": 79}, {"time": 2095, "pitch": 55, "duration": 2, "velocity": 79}, {"time": 2098, "pitch": 55, "duration": 4, "velocity": 95}, {"time": 2104, "pitch": 55, "duration": 2, "velocity": 70}, {"time": 2107, "pitch": 55, "duration": 3, "velocity": 107}, {"time": 2113, "pitch": 53, "duration": 2, "velocity": 86}, {"time": 2116, "pitch": 57, "duration": 13, "velocity": 97}, {"time": 2161, "pitch": 57, "duration": 3, "velocity": 112}, {"time": 2164, "pitch": 60, "duration": 3, "velocity": 83}, {"time": 2167, "pitch": 62, "duration": 2, "velocity": 97}, {"time": 2170, "pitch": 62, "duration": 4, "velocity": 102}, {"time": 2179, "pitch": 60, "duration": 3, "velocity": 117}, {"time": 2185, "pitch": 57, "duration": 2, "velocity": 100}, {"time": 2188, "pitch": 55, "duration": 10, "velocity": 102}, {"time": 2209, "pitch": 53, "duration": 3, "velocity": 96}, {"time": 2212, "pitch": 55, "duration": 3, "velocity": 95}, {"time": 2215, "pitch": 60, "duration": 3, "velocity": 99}, {"time": 2218, "pitch": 57, "duration": 3, "velocity": 127}, {"time": 2224, "pitch": 57, "duration": 2, "velocity": 100}, {"time": 2227, "pitch": 57, "duration": 3, "velocity": 107}, {"time": 2233, "pitch": 48, "duration": 3, "velocity": 102}, {"time": 2236, "pitch": 50, "duration": 14, "velocity": 112}, {"time": 2257, "pitch": 50, "duration": 3, "velocity": 95}, {"time": 2260, "pitch": 48, "duration": 3, "velocity": 86}, {"time": 2263, "pitch": 55, "duration": 3, "velocity": 100}, {"time": 2266, "pitch": 53, "duration": 4, "velocity": 112}, {"time": 2287, "pitch": 57, "duration": 3, "velocity": 107}, {"time": 2290, "pitch": 55, "duration": 2, "velocity": 96}, {"time": 2299, "pitch": 53, "duration": 3, "velocity": 100}, {"time": 2305, "pitch": 52, "duration": 2, "velocity": 99}, {"time": 2308, "pitch": 50, "duration": 17, "velocity": 99}, {"time": 2365, "pitch": 53, "duration": 2, "velocity": 93}, {"time": 2368, "pitch": 53, "duration": 2, "velocity": 89}, {"time": 2371, "pitch": 53, "duration": 1, "velocity": 92}, {"time": 2374, "pitch": 53, "duration": 3, "velocity": 122}, {"time": 2377, "pitch": 53, "duration": 3, "velocity": 107}, {"time": 2380, "pitch": 50, "duration": 2, "velocity": 93}, {"time": 2383, "pitch": 57, "duration": 3, "velocity": 96}, {"time": 2386, "pitch": 55, "duration": 12, "velocity": 107}, {"time": 2401, "pitch": 53, "duration": 3, "velocity": 96}, {"time": 2404, "pitch": 55, "duration": 3, "velocity": 86}, {"time": 2407, "pitch": 60, "duration": 3, "velocity": 100}, {"time": 2410, "pitch": 57, "duration": 5, "velocity": 99}, {"time": 2419, "pitch": 57, "duration": 3, "velocity": 100}, {"time": 2425, "pitch": 48, "duration": 3, "velocity": 88}, {"time": 2428, "pitch": 50, "duration": 8, "velocity": 100}, {"time": 2449, "pitch": 50, "duration": 3, "velocity": 95}, {"time": 2452, "pitch": 48, "duration": 3, "velocity": 69}, {"time": 2455, "pitch": 50, "duration": 3, "velocity": 95}, {"time": 2458, "pitch": 53, "duration": 3, "velocity": 99}, {"time": 2461, "pitch": 55, "duration": 4, "velocity": 90}, {"time": 2464, "pitch": 53, "duration": 9, "velocity": 89}, {"time": 2473, "pitch": 50, "duration": 3, "velocity": 89}, {"time": 2476, "pitch": 53, "duration": 4, "velocity": 79}, {"time": 2479, "pitch": 55, "duration": 2, "velocity": 79}, {"time": 2482, "pitch": 55, "duration": 4, "velocity": 95}, {"time": 2488, "pitch": 55, "duration": 2, "velocity": 70}, {"time": 2491, "pitch": 55, "duration": 3, "velocity": 107}, {"time": 2497, "pitch": 53, "duration": 2, "velocity": 86}, {"time": 2500, "pitch": 57, "duration": 13, "velocity": 97}, {"time": 2545, "pitch": 57, "duration": 3, "velocity": 112}, {"time": 2548, "pitch": 60, "duration": 3, "velocity": 83}, {"time": 2551, "pitch": 62, "duration": 2, "velocity": 97}, {"time": 2554, "pitch": 62, "duration": 4, "velocity": 102}, {"time": 2563, "pitch": 53, "duration": 3, "velocity": 117}, {"time": 2569, "pitch": 57, "duration": 2, "velocity": 100}, {"time": 2572, "pitch": 55, "duration": 10, "velocity": 102}, {"time": 2593, "pitch": 53, "duration": 3, "velocity": 96}, {"time": 2596, "pitch": 55, "duration": 3, "velocity": 95}, {"time": 2599, "pitch": 60, "duration": 3, "velocity": 99}, {"time": 2605, "pitch": 57, "duration": 3, "velocity": 102}, {"time": 2611, "pitch": 60, "duration": 2, "velocity": 117}, {"time": 2614, "pitch": 62, "duration": 3, "velocity": 100}, {"time": 2620, "pitch": 53, "duration": 12, "velocity": 102}, {"time": 2641, "pitch": 50, "duration": 3, "velocity": 95}, {"time": 2644, "pitch": 48, "duration": 3, "velocity": 86}, {"time": 2647, "pitch": 55, "duration": 3, "velocity": 100}, {"time": 2650, "pitch": 53, "duration": 4, "velocity": 112}, {"time": 2668, "pitch": 57, "duration": 2, "velocity": 96}, {"time": 2671, "pitch": 60, "duration": 4, "velocity": 127}, {"time": 2677, "pitch": 60, "duration": 3, "velocity": 117}, {"time": 2683, "pitch": 60, "duration": 1, "velocity": 112}, {"time": 2689, "pitch": 57, "duration": 3, "velocity": 102}, {"time": 2692, "pitch": 62, "duration": 27, "velocity": 127}, {"time": 2731, "pitch": 69, "duration": 4, "velocity": 117}, {"time": 2737, "pitch": 72, "duration": 5, "velocity": 127}, {"time": 2743, "pitch": 74, "duration": 4, "velocity": 122}, {"time": 2749, "pitch": 74, "duration": 4, "velocity": 122}, {"time": 2755, "pitch": 76, "duration": 4, "velocity": 127}, {"time": 2761, "pitch": 77, "duration": 4, "velocity": 117}, {"time": 2767, "pitch": 81, "duration": 4, "velocity": 127}, {"time": 2773, "pitch": 79, "duration": 4, "velocity": 127}, {"time": 2779, "pitch": 79, "duration": 4, "velocity": 127}, {"time": 2785, "pitch": 72, "duration": 4, "velocity": 112}, {"time": 2791, "pitch": 72, "duration": 4, "velocity": 112}, {"time": 2797, "pitch": 74, "duration": 4, "velocity": 127}, {"time": 2803, "pitch": 76, "duration": 4, "velocity": 117}, {"time": 2809, "pitch": 72, "duration": 4, "velocity": 112}, {"time": 2815, "pitch": 74, "duration": 9, "velocity": 127}, {"time": 2827, "pitch": 69, "duration": 5, "velocity": 112}, {"time": 2833, "pitch": 72, "duration": 5, "velocity": 127}, {"time": 2839, "pitch": 74, "duration": 4, "velocity": 100}, {"time": 2845, "pitch": 74, "duration": 5, "velocity": 99}, {"time": 2851, "pitch": 76, "duration": 4, "velocity": 117}, {"time": 2857, "pitch": 77, "duration": 4, "velocity": 127}, {"time": 2863, "pitch": 76, "duration": 5, "velocity": 127}, {"time": 2869, "pitch": 76, "duration": 3, "velocity": 117}, {"time": 2872, "pitch": 74, "duration": 3, "velocity": 99}, {"time": 2875, "pitch": 72, "duration": 4, "velocity": 122}, {"time": 2881, "pitch": 74, "duration": 3, "velocity": 122}, {"time": 2887, "pitch": 69, "duration": 3, "velocity": 102}, {"time": 2890, "pitch": 72, "duration": 3, "velocity": 107}, {"time": 2893, "pitch": 69, "duration": 12, "velocity": 112}, {"time": 2923, "pitch": 69, "duration": 5, "velocity": 112}, {"time": 2929, "pitch": 72, "duration": 5, "velocity": 127}, {"time": 2935, "pitch": 74, "duration": 5, "velocity": 127}, {"time": 2941, "pitch": 74, "duration": 4, "velocity": 117}, {"time": 2947, "pitch": 76, "duration": 4, "velocity": 127}, {"time": 2953, "pitch": 77, "duration": 4, "velocity": 117}, {"time": 2959, "pitch": 81, "duration": 3, "velocity": 127}, {"time": 2965, "pitch": 79, "duration": 4, "velocity": 122}, {"time": 2971, "pitch": 79, "duration": 4, "velocity": 122}, {"time": 2977, "pitch": 72, "duration": 4, "velocity": 127}, {"time": 2983, "pitch": 81, "duration": 4, "velocity": 127}, {"time": 2989, "pitch": 81, "duration": 4, "velocity": 107}, {"time": 2995, "pitch": 84, "duration": 4, "velocity": 117}, {"time": 3001, "pitch": 81, "duration": 3, "velocity": 127}, {"time": 3004, "pitch": 79, "duration": 3, "velocity": 107}, {"time": 3007, "pitch": 77, "duration": 6, "velocity": 127}, {"time": 3019, "pitch": 81, "duration": 4, "velocity": 127}, {"time": 3025, "pitch": 79, "duration": 2, "velocity": 127}, {"time": 3028, "pitch": 81, "duration": 3, "velocity": 122}, {"time": 3034, "pitch": 74, "duration": 11, "velocity": 112}, {"time": 3055, "pitch": 76, "duration": 4, "velocity": 122}, {"time": 3061, "pitch": 74, "duration": 1, "velocity": 117}, {"time": 3064, "pitch": 74, "duration": 5, "velocity": 107}, {"time": 3070, "pitch": 72, "duration": 5, "velocity": 117}, {"time": 3076, "pitch": 74, "duration": 2, "velocity": 100}, {"time": 3079, "pitch": 74, "duration": 10, "velocity": 127}, {"time": 3115, "pitch": 69, "duration": 4, "velocity": 117}, {"time": 3121, "pitch": 72, "duration": 5, "velocity": 127}, {"time": 3127, "pitch": 74, "duration": 4, "velocity": 122}, {"time": 3133, "pitch": 74, "duration": 4, "velocity": 122}, {"time": 3139, "pitch": 76, "duration": 4, "velocity": 127}, {"time": 3145, "pitch": 77, "duration": 4, "velocity": 117}, {"time": 3151, "pitch": 81, "duration": 4, "velocity": 127}, {"time": 3157, "pitch": 79, "duration": 4, "velocity": 127}, {"time": 3163, "pitch": 79, "duration": 4, "velocity": 127}, {"time": 3169, "pitch": 72, "duration": 4, "velocity": 112}, {"time": 3175, "pitch": 72, "duration": 4, "velocity": 112}, {"time": 3181, "pitch": 74, "duration": 4, "velocity": 127}, {"time": 3187, "pitch": 76, "duration": 4, "velocity": 117}, {"time": 3193, "pitch": 72, "duration": 4, "velocity": 112}, {"time": 3199, "pitch": 74, "duration": 9, "velocity": 127}, {"time": 3211, "pitch": 69, "duration": 5, "velocity": 112}, {"time": 3217, "pitch": 72, "duration": 5, "velocity": 127}, {"time": 3223, "pitch": 74, "duration": 4, "velocity": 100}, {"time": 3229, "pitch": 74, "duration": 5, "velocity": 99}, {"time": 3235, "pitch": 76, "duration": 4, "velocity": 117}, {"time": 3241, "pitch": 77, "duration": 4, "velocity": 127}, {"time": 3247, "pitch": 76, "duration": 5, "velocity": 127}, {"time": 3253, "pitch": 76, "duration": 3, "velocity": 117}, {"time": 3256, "pitch": 74, "duration": 3, "velocity": 99}, {"time": 3259, "pitch": 72, "duration": 4, "velocity": 122}, {"time": 3265, "pitch": 74, "duration": 3, "velocity": 122}, {"time": 3271, "pitch": 69, "duration": 3, "velocity": 102}, {"time": 3274, "pitch": 72, "duration": 3, "velocity": 107}, {"time": 3277, "pitch": 69, "duration": 12, "velocity": 112}, {"time": 3307, "pitch": 69, "duration": 5, "velocity": 112}, {"time": 3313, "pitch": 72, "duration": 5, "velocity": 127}, {"time": 3319, "pitch": 74, "duration": 5, "velocity": 127}, {"time": 3325, "pitch": 74, "duration": 4, "velocity": 117}, {"time": 3331, "pitch": 76, "duration": 4, "velocity": 127}, {"time": 3337, "pitch": 77, "duration": 4, "velocity": 117}, {"time": 3343, "pitch": 81, "duration": 3, "velocity": 127}, {"time": 3349, "pitch": 79, "duration": 4, "velocity": 122}, {"time": 3355, "pitch": 79, "duration": 4, "velocity": 122}, {"time": 3361, "pitch": 72, "duration": 4, "velocity": 127}, {"time": 3367, "pitch": 81, "duration": 4, "velocity": 127}, {"time": 3373, "pitch": 81, "duration": 4, "velocity": 107}, {"time": 3379, "pitch": 84, "duration": 4, "velocity": 117}, {"time": 3385, "pitch": 81, "duration": 3, "velocity": 127}, {"time": 3388, "pitch": 79, "duration": 3, "velocity": 107}, {"time": 3391, "pitch": 77, "duration": 6, "velocity": 127}, {"time": 3403, "pitch": 81, "duration": 4, "velocity": 127}, {"time": 3409, "pitch": 79, "duration": 2, "velocity": 127}, {"time": 3412, "pitch": 81, "duration": 3, "velocity": 122}, {"time": 3418, "pitch": 74, "duration": 11, "velocity": 112}, {"time": 3439, "pitch": 76, "duration": 4, "velocity": 122}, {"time": 3445, "pitch": 74, "duration": 1, "velocity": 117}, {"time": 3448, "pitch": 74, "duration": 5, "velocity": 107}, {"time": 3454, "pitch": 72, "duration": 5, "velocity": 117}, {"time": 3460, "pitch": 74, "duration": 2, "velocity": 100}, {"time": 3463, "pitch": 74, "duration": 10, "velocity": 127}, {"time": 3499, "pitch": 81, "duration": 4, "velocity": 127}, {"time": 3505, "pitch": 79, "duration": 2, "velocity": 127}, {"time": 3508, "pitch": 81, "duration": 3, "velocity": 122}, {"time": 3514, "pitch": 74, "duration": 11, "velocity": 112}, {"time": 3535, "pitch": 76, "duration": 4, "velocity": 122}, {"time": 3541, "pitch": 74, "duration": 1, "velocity": 117}, {"time": 3544, "pitch": 74, "duration": 5, "velocity": 107}, {"time": 3550, "pitch": 72, "duration": 5, "velocity": 117}, {"time": 3556, "pitch": 74, "duration": 2, "velocity": 100}, {"time": 3559, "pitch": 74, "duration": 77, "velocity": 127}]}, {"program": 0, "is_drum": false, "name": "BRIDGE", "notes": [{"time": 7, "pitch": 62, "duration": 16, "velocity": 67}, {"time": 16, "pitch": 69, "duration": 9, "velocity": 86}, {"time": 25, "pitch": 77, "duration": 6, "velocity": 85}, {"time": 31, "pitch": 74, "duration": 12, "velocity": 71}, {"time": 43, "pitch": 57, "duration": 5, "velocity": 107}, {"time": 49, "pitch": 60, "duration": 3, "velocity": 107}, {"time": 55, "pitch": 62, "duration": 17, "velocity": 122}, {"time": 73, "pitch": 65, "duration": 6, "velocity": 112}, {"time": 79, "pitch": 64, "duration": 11, "velocity": 112}, {"time": 91, "pitch": 60, "duration": 5, "velocity": 117}, {"time": 97, "pitch": 62, "duration": 4, "velocity": 92}, {"time": 103, "pitch": 60, "duration": 4, "velocity": 122}, {"time": 109, "pitch": 57, "duration": 3, "velocity": 93}, {"time": 112, "pitch": 60, "duration": 5, "velocity": 107}, {"time": 121, "pitch": 64, "duration": 6, "velocity": 97}, {"time": 127, "pitch": 62, "duration": 12, "velocity": 127}, {"time": 139, "pitch": 57, "duration": 6, "velocity": 95}, {"time": 145, "pitch": 60, "duration": 3, "velocity": 100}, {"time": 151, "pitch": 62, "duration": 4, "velocity": 107}, {"time": 157, "pitch": 62, "duration": 2, "velocity": 92}, {"time": 160, "pitch": 64, "duration": 7, "velocity": 102}, {"time": 169, "pitch": 65, "duration": 3, "velocity": 100}, {"time": 175, "pitch": 64, "duration": 11, "velocity": 112}, {"time": 187, "pitch": 60, "duration": 5, "velocity": 112}, {"time": 193, "pitch": 62, "duration": 4, "velocity": 86}, {"time": 199, "pitch": 57, "duration": 3, "velocity": 92}, {"time": 202, "pitch": 60, "duration": 3, "velocity": 86}, {"time": 205, "pitch": 57, "duration": 21, "velocity": 97}, {"time": 235, "pitch": 57, "duration": 5, "velocity": 107}, {"time": 241, "pitch": 60, "duration": 3, "velocity": 107}, {"time": 247, "pitch": 62, "duration": 17, "velocity": 122}, {"time": 265, "pitch": 65, "duration": 6, "velocity": 112}, {"time": 265, "pitch": 69, "duration": 4, "velocity": 117}, {"time": 271, "pitch": 64, "duration": 11, "velocity": 112}, {"time": 271, "pitch": 67, "duration": 11, "velocity": 112}, {"time": 283, "pitch": 60, "duration": 5, "velocity": 117}, {"time": 289, "pitch": 62, "duration": 4, "velocity": 92}, {"time": 295, "pitch": 60, "duration": 4, "velocity": 122}, {"time": 295, "pitch": 67, "duration": 3, "velocity": 117}, {"time": 301, "pitch": 57, "duration": 3, "velocity": 93}, {"time": 301, "pitch": 67, "duration": 2, "velocity": 100}, {"time": 304, "pitch": 60, "duration": 5, "velocity": 107}, {"time": 304, "pitch": 67, "duration": 3, "velocity": 107}, {"time": 313, "pitch": 64, "duration": 6, "velocity": 97}, {"time": 313, "pitch": 67, "duration": 5, "velocity": 127}, {"time": 319, "pitch": 62, "duration": 12, "velocity": 127}, {"time": 319, "pitch": 65, "duration": 12, "velocity": 112}, {"time": 349, "pitch": 60, "duration": 3, "velocity": 90}, {"time": 352, "pitch": 62, "duration": 3, "velocity": 95}, {"time": 355, "pitch": 64, "duration": 6, "velocity": 102}, {"time": 361, "pitch": 65, "duration": 3, "velocity": 112}, {"time": 364, "pitch": 67, "duration": 3, "velocity": 90}, {"time": 367, "pitch": 69, "duration": 7, "velocity": 122}, {"time": 376, "pitch": 67, "duration": 9, "velocity": 117}, {"time": 385, "pitch": 64, "duration": 6, "velocity": 117}, {"time": 391, "pitch": 62, "duration": 26, "velocity": 97}, {"time": 589, "pitch": 76, "duration": 3, "velocity": 95}, {"time": 592, "pitch": 72, "duration": 4, "velocity": 90}, {"time": 598, "pitch": 72, "duration": 8, "velocity": 93}, {"time": 607, "pitch": 69, "duration": 17, "velocity": 75}, {"time": 799, "pitch": 74, "duration": 3, "velocity": 127}, {"time": 802, "pitch": 72, "duration": 2, "velocity": 86}, {"time": 805, "pitch": 69, "duration": 3, "velocity": 95}, {"time": 808, "pitch": 67, "duration": 2, "velocity": 81}, {"time": 814, "pitch": 65, "duration": 8, "velocity": 99}, {"time": 823, "pitch": 62, "duration": 10, "velocity": 93}, {"time": 901, "pitch": 81, "duration": 2, "velocity": 107}, {"time": 904, "pitch": 80, "duration": 1, "velocity": 78}, {"time": 904, "pitch": 81, "duration": 11, "velocity": 100}, {"time": 976, "pitch": 77, "duration": 2, "velocity": 83}, {"time": 979, "pitch": 76, "duration": 2, "velocity": 89}, {"time": 982, "pitch": 72, "duration": 9, "velocity": 86}, {"time": 991, "pitch": 69, "duration": 17, "velocity": 79}, {"time": 1174, "pitch": 77, "duration": 5, "velocity": 97}, {"time": 1174, "pitch": 89, "duration": 4, "velocity": 96}, {"time": 1180, "pitch": 76, "duration": 8, "velocity": 96}, {"time": 1180, "pitch": 88, "duration": 8, "velocity": 96}, {"time": 1189, "pitch": 72, "duration": 12, "velocity": 96}, {"time": 1189, "pitch": 84, "duration": 12, "velocity": 88}, {"time": 1591, "pitch": 81, "duration": 19, "velocity": 127}, {"time": 1612, "pitch": 79, "duration": 2, "velocity": 127}, {"time": 1614, "pitch": 77, "duration": 2, "velocity": 100}, {"time": 1615, "pitch": 79, "duration": 15, "velocity": 107}, {"time": 1630, "pitch": 81, "duration": 11, "velocity": 127}, {"time": 1643, "pitch": 81, "duration": 3, "velocity": 117}, {"time": 1648, "pitch": 81, "duration": 2, "velocity": 122}, {"time": 1652, "pitch": 81, "duration": 3, "velocity": 117}, {"time": 1655, "pitch": 81, "duration": 2, "velocity": 127}, {"time": 1660, "pitch": 81, "duration": 2, "velocity": 127}, {"time": 1664, "pitch": 81, "duration": 2, "velocity": 122}, {"time": 1667, "pitch": 79, "duration": 3, "velocity": 127}, {"time": 1672, "pitch": 79, "duration": 2, "velocity": 127}, {"time": 1676, "pitch": 79, "duration": 2, "velocity": 117}, {"time": 1678, "pitch": 81, "duration": 4, "velocity": 122}, {"time": 1684, "pitch": 79, "duration": 2, "velocity": 112}, {"time": 1686, "pitch": 77, "duration": 1, "velocity": 102}, {"time": 1688, "pitch": 77, "duration": 13, "velocity": 127}, {"time": 1705, "pitch": 79, "duration": 3, "velocity": 107}, {"time": 1708, "pitch": 77, "duration": 3, "velocity": 97}, {"time": 1711, "pitch": 76, "duration": 22, "velocity": 112}, {"time": 1738, "pitch": 69, "duration": 3, "velocity": 95}, {"time": 1741, "pitch": 67, "duration": 2, "velocity": 97}, {"time": 1744, "pitch": 69, "duration": 5, "velocity": 117}, {"time": 1750, "pitch": 67, "duration": 2, "velocity": 90}, {"time": 1753, "pitch": 67, "duration": 3, "velocity": 102}, {"time": 1756, "pitch": 65, "duration": 6, "velocity": 122}, {"time": 1762, "pitch": 65, "duration": 1, "velocity": 99}, {"time": 1765, "pitch": 65, "duration": 2, "velocity": 107}, {"time": 1768, "pitch": 64, "duration": 5, "velocity": 97}, {"time": 1775, "pitch": 60, "duration": 8, "velocity": 117}, {"time": 1786, "pitch": 62, "duration": 4, "velocity": 99}, {"time": 1789, "pitch": 60, "duration": 4, "velocity": 88}, {"time": 1792, "pitch": 62, "duration": 3, "velocity": 99}, {"time": 1795, "pitch": 65, "duration": 5, "velocity": 99}, {"time": 1801, "pitch": 67, "duration": 3, "velocity": 122}, {"time": 1804, "pitch": 65, "duration": 5, "velocity": 107}, {"time": 1810, "pitch": 62, "duration": 3, "velocity": 102}, {"time": 1813, "pitch": 60, "duration": 3, "velocity": 88}, {"time": 1816, "pitch": 62, "duration": 2, "velocity": 99}, {"time": 1819, "pitch": 65, "duration": 5, "velocity": 117}, {"time": 1823, "pitch": 67, "duration": 2, "velocity": 127}, {"time": 1827, "pitch": 65, "duration": 3, "velocity": 102}, {"time": 1831, "pitch": 69, "duration": 4, "velocity": 122}, {"time": 1834, "pitch": 72, "duration": 10, "velocity": 99}, {"time": 1843, "pitch": 74, "duration": 2, "velocity": 117}, {"time": 1846, "pitch": 77, "duration": 5, "velocity": 117}, {"time": 1852, "pitch": 77, "duration": 3, "velocity": 107}, {"time": 1855, "pitch": 79, "duration": 3, "velocity": 102}, {"time": 1858, "pitch": 77, "duration": 8, "velocity": 112}, {"time": 1864, "pitch": 79, "duration": 3, "velocity": 117}, {"time": 1868, "pitch": 81, "duration": 11, "velocity": 117}, {"time": 1880, "pitch": 81, "duration": 2, "velocity": 112}, {"time": 1884, "pitch": 86, "duration": 14, "velocity": 127}, {"time": 1900, "pitch": 81, "duration": 3, "velocity": 100}, {"time": 1903, "pitch": 84, "duration": 18, "velocity": 127}, {"time": 1921, "pitch": 86, "duration": 5, "velocity": 122}, {"time": 1927, "pitch": 86, "duration": 41, "velocity": 127}, {"time": 1949, "pitch": 89, "duration": 2, "velocity": 127}, {"time": 1952, "pitch": 88, "duration": 3, "velocity": 127}, {"time": 1954, "pitch": 84, "duration": 3, "velocity": 112}, {"time": 1957, "pitch": 79, "duration": 5, "velocity": 99}, {"time": 1960, "pitch": 77, "duration": 3, "velocity": 117}, {"time": 1963, "pitch": 76, "duration": 3, "velocity": 95}, {"time": 1966, "pitch": 72, "duration": 5, "velocity": 99}, {"time": 1969, "pitch": 67, "duration": 5, "velocity": 97}, {"time": 1972, "pitch": 64, "duration": 3, "velocity": 90}, {"time": 1975, "pitch": 65, "duration": 22, "velocity": 96}, {"time": 2125, "pitch": 76, "duration": 3, "velocity": 95}, {"time": 2128, "pitch": 72, "duration": 4, "velocity": 90}, {"time": 2134, "pitch": 72, "duration": 8, "velocity": 93}, {"time": 2143, "pitch": 69, "duration": 17, "velocity": 75}, {"time": 2335, "pitch": 74, "duration": 3, "velocity": 127}, {"time": 2338, "pitch": 72, "duration": 2, "velocity": 86}, {"time": 2341, "pitch": 69, "duration": 3, "velocity": 95}, {"time": 2344, "pitch": 67, "duration": 2, "velocity": 81}, {"time": 2350, "pitch": 65, "duration": 8, "velocity": 99}, {"time": 2359, "pitch": 62, "duration": 10, "velocity": 93}, {"time": 2437, "pitch": 81, "duration": 2, "velocity": 107}, {"time": 2440, "pitch": 80, "duration": 1, "velocity": 78}, {"time": 2440, "pitch": 81, "duration": 11, "velocity": 100}, {"time": 2512, "pitch": 77, "duration": 2, "velocity": 83}, {"time": 2515, "pitch": 76, "duration": 2, "velocity": 89}, {"time": 2518, "pitch": 72, "duration": 9, "velocity": 86}, {"time": 2527, "pitch": 69, "duration": 17, "velocity": 79}, {"time": 2710, "pitch": 77, "duration": 5, "velocity": 97}, {"time": 2710, "pitch": 89, "duration": 4, "velocity": 96}, {"time": 2716, "pitch": 76, "duration": 8, "velocity": 96}, {"time": 2716, "pitch": 88, "duration": 8, "velocity": 96}, {"time": 2725, "pitch": 72, "duration": 12, "velocity": 96}, {"time": 2725, "pitch": 84, "duration": 12, "velocity": 88}, {"time": 3082, "pitch": 57, "duration": 3, "velocity": 100}, {"time": 3085, "pitch": 60, "duration": 4, "velocity": 97}, {"time": 3088, "pitch": 62, "duration": 2, "velocity": 96}, {"time": 3091, "pitch": 62, "duration": 6, "velocity": 100}, {"time": 3095, "pitch": 65, "duration": 4, "velocity": 97}, {"time": 3100, "pitch": 65, "duration": 4, "velocity": 97}, {"time": 3106, "pitch": 69, "duration": 7, "velocity": 127}, {"time": 3113, "pitch": 67, "duration": 1, "velocity": 107}, {"time": 3114, "pitch": 65, "duration": 2, "velocity": 78}, {"time": 3116, "pitch": 69, "duration": 5, "velocity": 102}, {"time": 3119, "pitch": 72, "duration": 3, "velocity": 117}, {"time": 3122, "pitch": 69, "duration": 3, "velocity": 95}, {"time": 3124, "pitch": 65, "duration": 4, "velocity": 96}, {"time": 3128, "pitch": 62, "duration": 10, "velocity": 89}, {"time": 3457, "pitch": 81, "duration": 3, "velocity": 112}, {"time": 3460, "pitch": 86, "duration": 2, "velocity": 107}, {"time": 3463, "pitch": 86, "duration": 4, "velocity": 122}, {"time": 3469, "pitch": 86, "duration": 2, "velocity": 117}, {"time": 3472, "pitch": 86, "duration": 2, "velocity": 100}, {"time": 3475, "pitch": 86, "duration": 2, "velocity": 100}, {"time": 3478, "pitch": 84, "duration": 4, "velocity": 127}, {"time": 3484, "pitch": 86, "duration": 8, "velocity": 127}, {"time": 3595, "pitch": 57, "duration": 4, "velocity": 102}, {"time": 3601, "pitch": 60, "duration": 5, "velocity": 112}, {"time": 3607, "pitch": 62, "duration": 13, "velocity": 102}, {"time": 3625, "pitch": 65, "duration": 5, "velocity": 102}, {"time": 3631, "pitch": 64, "duration": 17, "velocity": 117}, {"time": 3655, "pitch": 60, "duration": 5, "velocity": 107}, {"time": 3661, "pitch": 57, "duration": 3, "velocity": 89}, {"time": 3664, "pitch": 60, "duration": 6, "velocity": 99}, {"time": 3673, "pitch": 64, "duration": 6, "velocity": 107}, {"time": 3679, "pitch": 62, "duration": 23, "velocity": 96}, {"time": 3709, "pitch": 60, "duration": 3, "velocity": 85}, {"time": 3712, "pitch": 62, "duration": 4, "velocity": 90}, {"time": 3715, "pitch": 64, "duration": 5, "velocity": 102}, {"time": 3720, "pitch": 65, "duration": 3, "velocity": 112}, {"time": 3724, "pitch": 67, "duration": 5, "velocity": 102}, {"time": 3728, "pitch": 69, "duration": 7, "velocity": 102}, {"time": 3736, "pitch": 67, "duration": 6, "velocity": 112}, {"time": 3746, "pitch": 64, "duration": 2, "velocity": 96}, {"time": 3751, "pitch": 62, "duration": 46, "velocity": 100}]}, {"program": 0, "is_drum": false, "name": "PIANO", "notes": [{"time": 55, "pitch": 46, "duration": 17, "velocity": 72}, {"time": 61, "pitch": 53, "duration": 11, "velocity": 44}, {"time": 64, "pitch": 65, "duration": 10, "velocity": 89}, {"time": 73, "pitch": 62, "duration": 7, "velocity": 66}, {"time": 79, "pitch": 48, "duration": 15, "velocity": 66}, {"time": 85, "pitch": 55, "duration": 11, "velocity": 54}, {"time": 88, "pitch": 64, "duration": 9, "velocity": 75}, {"time": 97, "pitch": 60, "duration": 7, "velocity": 67}, {"time": 103, "pitch": 50, "duration": 23, "velocity": 66}, {"time": 109, "pitch": 57, "duration": 7, "velocity": 56}, {"time": 112, "pitch": 65, "duration": 9, "velocity": 92}, {"time": 121, "pitch": 64, "duration": 7, "velocity": 67}, {"time": 127, "pitch": 50, "duration": 14, "velocity": 71}, {"time": 133, "pitch": 57, "duration": 7, "velocity": 58}, {"time": 139, "pitch": 65, "duration": 7, "velocity": 93}, {"time": 145, "pitch": 62, "duration": 6, "velocity": 59}, {"time": 151, "pitch": 46, "duration": 15, "velocity": 65}, {"time": 157, "pitch": 53, "duration": 8, "velocity": 43}, {"time": 160, "pitch": 65, "duration": 11, "velocity": 82}, {"time": 169, "pitch": 62, "duration": 6, "velocity": 61}, {"time": 175, "pitch": 48, "duration": 17, "velocity": 64}, {"time": 181, "pitch": 55, "duration": 12, "velocity": 51}, {"time": 184, "pitch": 64, "duration": 16, "velocity": 75}, {"time": 193, "pitch": 60, "duration": 7, "velocity": 62}, {"time": 199, "pitch": 50, "duration": 22, "velocity": 73}, {"time": 205, "pitch": 57, "duration": 18, "velocity": 41}, {"time": 208, "pitch": 65, "duration": 9, "velocity": 42}, {"time": 217, "pitch": 64, "duration": 7, "velocity": 69}, {"time": 223, "pitch": 50, "duration": 18, "velocity": 53}, {"time": 229, "pitch": 57, "duration": 11, "velocity": 52}, {"time": 232, "pitch": 65, "duration": 10, "velocity": 75}, {"time": 241, "pitch": 64, "duration": 7, "velocity": 81}, {"time": 247, "pitch": 46, "duration": 18, "velocity": 72}, {"time": 253, "pitch": 53, "duration": 7, "velocity": 37}, {"time": 256, "pitch": 65, "duration": 10, "velocity": 100}, {"time": 262, "pitch": 53, "duration": 3, "velocity": 40}, {"time": 265, "pitch": 62, "duration": 5, "velocity": 92}, {"time": 268, "pitch": 65, "duration": 3, "velocity": 63}, {"time": 271, "pitch": 48, "duration": 21, "velocity": 75}, {"time": 277, "pitch": 55, "duration": 11, "velocity": 46}, {"time": 283, "pitch": 67, "duration": 11, "velocity": 93}, {"time": 289, "pitch": 64, "duration": 5, "velocity": 76}, {"time": 295, "pitch": 45, "duration": 19, "velocity": 78}, {"time": 301, "pitch": 52, "duration": 6, "velocity": 52}, {"time": 304, "pitch": 64, "duration": 14, "velocity": 99}, {"time": 310, "pitch": 52, "duration": 4, "velocity": 54}, {"time": 313, "pitch": 60, "duration": 5, "velocity": 97}, {"time": 316, "pitch": 57, "duration": 3, "velocity": 73}, {"time": 319, "pitch": 50, "duration": 16, "velocity": 74}, {"time": 325, "pitch": 57, "duration": 7, "velocity": 59}, {"time": 328, "pitch": 65, "duration": 15, "velocity": 97}, {"time": 334, "pitch": 57, "duration": 2, "velocity": 38}, {"time": 337, "pitch": 62, "duration": 6, "velocity": 74}, {"time": 343, "pitch": 46, "duration": 18, "velocity": 83}, {"time": 346, "pitch": 53, "duration": 14, "velocity": 48}, {"time": 352, "pitch": 65, "duration": 14, "velocity": 90}, {"time": 361, "pitch": 62, "duration": 6, "velocity": 71}, {"time": 367, "pitch": 48, "duration": 17, "velocity": 77}, {"time": 370, "pitch": 55, "duration": 14, "velocity": 42}, {"time": 373, "pitch": 60, "duration": 4, "velocity": 71}, {"time": 376, "pitch": 64, "duration": 16, "velocity": 95}, {"time": 385, "pitch": 60, "duration": 7, "velocity": 78}, {"time": 391, "pitch": 38, "duration": 44, "velocity": 69}, {"time": 394, "pitch": 45, "duration": 44, "velocity": 50}, {"time": 397, "pitch": 50, "duration": 7, "velocity": 77}, {"time": 400, "pitch": 65, "duration": 10, "velocity": 96}, {"time": 406, "pitch": 50, "duration": 22, "velocity": 53}, {"time": 409, "pitch": 64, "duration": 7, "velocity": 74}, {"time": 415, "pitch": 62, "duration": 32, "velocity": 73}, {"time": 439, "pitch": 38, "duration": 18, "velocity": 77}, {"time": 445, "pitch": 45, "duration": 12, "velocity": 46}, {"time": 448, "pitch": 62, "duration": 2, "velocity": 29}, {"time": 451, "pitch": 65, "duration": 12, "velocity": 92}, {"time": 457, "pitch": 62, "duration": 7, "velocity": 67}, {"time": 463, "pitch": 36, "duration": 13, "velocity": 69}, {"time": 469, "pitch": 43, "duration": 9, "velocity": 42}, {"time": 475, "pitch": 64, "duration": 13, "velocity": 79}, {"time": 487, "pitch": 45, "duration": 17, "velocity": 66}, {"time": 493, "pitch": 52, "duration": 9, "velocity": 50}, {"time": 499, "pitch": 64, "duration": 12, "velocity": 92}, {"time": 505, "pitch": 60, "duration": 6, "velocity": 60}, {"time": 508, "pitch": 57, "duration": 4, "velocity": 51}, {"time": 511, "pitch": 38, "duration": 17, "velocity": 59}, {"time": 517, "pitch": 45, "duration": 11, "velocity": 41}, {"time": 520, "pitch": 57, "duration": 4, "velocity": 54}, {"time": 523, "pitch": 65, "duration": 6, "velocity": 83}, {"time": 526, "pitch": 64, "duration": 5, "velocity": 86}, {"time": 529, "pitch": 62, "duration": 6, "velocity": 71}, {"time": 532, "pitch": 57, "duration": 4, "velocity": 48}, {"time": 535, "pitch": 46, "duration": 17, "velocity": 66}, {"time": 541, "pitch": 53, "duration": 11, "velocity": 57}, {"time": 547, "pitch": 65, "duration": 11, "velocity": 97}, {"time": 553, "pitch": 62, "duration": 5, "velocity": 79}, {"time": 559, "pitch": 48, "duration": 19, "velocity": 66}, {"time": 565, "pitch": 55, "duration": 18, "velocity": 63}, {"time": 571, "pitch": 64, "duration": 11, "velocity": 89}, {"time": 577, "pitch": 60, "duration": 5, "velocity": 73}, {"time": 583, "pitch": 41, "duration": 22, "velocity": 75}, {"time": 589, "pitch": 48, "duration": 18, "velocity": 50}, {"time": 595, "pitch": 60, "duration": 13, "velocity": 90}, {"time": 601, "pitch": 57, "duration": 6, "velocity": 48}, {"time": 607, "pitch": 41, "duration": 18, "velocity": 72}, {"time": 610, "pitch": 48, "duration": 15, "velocity": 52}, {"time": 613, "pitch": 53, "duration": 14, "velocity": 73}, {"time": 616, "pitch": 69, "duration": 16, "velocity": 100}, {"time": 625, "pitch": 65, "duration": 6, "velocity": 73}, {"time": 631, "pitch": 46, "duration": 18, "velocity": 66}, {"time": 634, "pitch": 53, "duration": 13, "velocity": 47}, {"time": 637, "pitch": 58, "duration": 10, "velocity": 92}, {"time": 640, "pitch": 65, "duration": 14, "velocity": 74}, {"time": 649, "pitch": 62, "duration": 6, "velocity": 59}, {"time": 655, "pitch": 48, "duration": 17, "velocity": 66}, {"time": 661, "pitch": 55, "duration": 17, "velocity": 46}, {"time": 667, "pitch": 64, "duration": 14, "velocity": 85}, {"time": 673, "pitch": 60, "duration": 9, "velocity": 64}, {"time": 679, "pitch": 45, "duration": 16, "velocity": 70}, {"time": 685, "pitch": 52, "duration": 10, "velocity": 50}, {"time": 688, "pitch": 64, "duration": 12, "velocity": 97}, {"time": 697, "pitch": 60, "duration": 4, "velocity": 60}, {"time": 700, "pitch": 57, "duration": 8, "velocity": 52}, {"time": 703, "pitch": 38, "duration": 17, "velocity": 58}, {"time": 706, "pitch": 45, "duration": 14, "velocity": 46}, {"time": 709, "pitch": 50, "duration": 8, "velocity": 67}, {"time": 712, "pitch": 65, "duration": 14, "velocity": 93}, {"time": 718, "pitch": 50, "duration": 3, "velocity": 59}, {"time": 721, "pitch": 62, "duration": 5, "velocity": 53}, {"time": 724, "pitch": 57, "duration": 4, "velocity": 61}, {"time": 727, "pitch": 46, "duration": 19, "velocity": 89}, {"time": 733, "pitch": 58, "duration": 6, "velocity": 61}, {"time": 739, "pitch": 62, "duration": 12, "velocity": 86}, {"time": 745, "pitch": 58, "duration": 5, "velocity": 68}, {"time": 751, "pitch": 48, "duration": 15, "velocity": 65}, {"time": 757, "pitch": 55, "duration": 17, "velocity": 55}, {"time": 763, "pitch": 64, "duration": 12, "velocity": 85}, {"time": 769, "pitch": 60, "duration": 6, "velocity": 66}, {"time": 775, "pitch": 38, "duration": 23, "velocity": 70}, {"time": 778, "pitch": 45, "duration": 45, "velocity": 58}, {"time": 781, "pitch": 50, "duration": 7, "velocity": 69}, {"time": 784, "pitch": 57, "duration": 39, "velocity": 69}, {"time": 787, "pitch": 65, "duration": 22, "velocity": 81}, {"time": 790, "pitch": 50, "duration": 22, "velocity": 53}, {"time": 793, "pitch": 64, "duration": 7, "velocity": 50}, {"time": 799, "pitch": 38, "duration": 21, "velocity": 48}, {"time": 799, "pitch": 62, "duration": 12, "velocity": 55}, {"time": 811, "pitch": 65, "duration": 12, "velocity": 81}, {"time": 814, "pitch": 50, "duration": 3, "velocity": 44}, {"time": 817, "pitch": 64, "duration": 6, "velocity": 65}, {"time": 820, "pitch": 62, "duration": 3, "velocity": 73}, {"time": 823, "pitch": 38, "duration": 18, "velocity": 77}, {"time": 829, "pitch": 45, "duration": 12, "velocity": 46}, {"time": 832, "pitch": 62, "duration": 2, "velocity": 29}, {"time": 835, "pitch": 65, "duration": 12, "velocity": 92}, {"time": 841, "pitch": 62, "duration": 7, "velocity": 67}, {"time": 847, "pitch": 36, "duration": 13, "velocity": 69}, {"time": 853, "pitch": 43, "duration": 9, "velocity": 42}, {"time": 859, "pitch": 64, "duration": 13, "velocity": 79}, {"time": 871, "pitch": 45, "duration": 17, "velocity": 66}, {"time": 877, "pitch": 52, "duration": 9, "velocity": 50}, {"time": 883, "pitch": 64, "duration": 12, "velocity": 92}, {"time": 889, "pitch": 60, "duration": 6, "velocity": 60}, {"time": 892, "pitch": 57, "duration": 4, "velocity": 51}, {"time": 895, "pitch": 38, "duration": 17, "velocity": 59}, {"time": 901, "pitch": 45, "duration": 11, "velocity": 41}, {"time": 904, "pitch": 57, "duration": 4, "velocity": 54}, {"time": 907, "pitch": 65, "duration": 6, "velocity": 83}, {"time": 910, "pitch": 64, "duration": 5, "velocity": 86}, {"time": 913, "pitch": 62, "duration": 6, "velocity": 71}, {"time": 916, "pitch": 57, "duration": 4, "velocity": 48}, {"time": 919, "pitch": 46, "duration": 17, "velocity": 66}, {"time": 925, "pitch": 53, "duration": 11, "velocity": 57}, {"time": 931, "pitch": 65, "duration": 11, "velocity": 97}, {"time": 937, "pitch": 62, "duration": 5, "velocity": 79}, {"time": 943, "pitch": 48, "duration": 19, "velocity": 66}, {"time": 949, "pitch": 55, "duration": 18, "velocity": 63}, {"time": 955, "pitch": 64, "duration": 11, "velocity": 89}, {"time": 961, "pitch": 60, "duration": 5, "velocity": 73}, {"time": 967, "pitch": 41, "duration": 22, "velocity": 75}, {"time": 973, "pitch": 48, "duration": 18, "velocity": 50}, {"time": 979, "pitch": 60, "duration": 13, "velocity": 90}, {"time": 985, "pitch": 57, "duration": 6, "velocity": 48}, {"time": 991, "pitch": 41, "duration": 18, "velocity": 72}, {"time": 994, "pitch": 48, "duration": 15, "velocity": 52}, {"time": 997, "pitch": 53, "duration": 14, "velocity": 73}, {"time": 1000, "pitch": 69, "duration": 16, "velocity": 100}, {"time": 1009, "pitch": 65, "duration": 6, "velocity": 73}, {"time": 1015, "pitch": 46, "duration": 18, "velocity": 66}, {"time": 1018, "pitch": 53, "duration": 13, "velocity": 47}, {"time": 1021, "pitch": 58, "duration": 10, "velocity": 92}, {"time": 1024, "pitch": 65, "duration": 14, "velocity": 74}, {"time": 1033, "pitch": 62, "duration": 6, "velocity": 59}, {"time": 1039, "pitch": 48, "duration": 17, "velocity": 66}, {"time": 1045, "pitch": 55, "duration": 17, "velocity": 46}, {"time": 1051, "pitch": 64, "duration": 14, "velocity": 85}, {"time": 1057, "pitch": 60, "duration": 9, "velocity": 64}, {"time": 1063, "pitch": 45, "duration": 16, "velocity": 70}, {"time": 1069, "pitch": 52, "duration": 10, "velocity": 50}, {"time": 1072, "pitch": 64, "duration": 12, "velocity": 97}, {"time": 1081, "pitch": 60, "duration": 4, "velocity": 60}, {"time": 1084, "pitch": 57, "duration": 8, "velocity": 52}, {"time": 1087, "pitch": 38, "duration": 17, "velocity": 58}, {"time": 1090, "pitch": 45, "duration": 14, "velocity": 46}, {"time": 1093, "pitch": 50, "duration": 8, "velocity": 67}, {"time": 1096, "pitch": 65, "duration": 14, "velocity": 93}, {"time": 1102, "pitch": 50, "duration": 3, "velocity": 59}, {"time": 1105, "pitch": 62, "duration": 5, "velocity": 53}, {"time": 1108, "pitch": 57, "duration": 4, "velocity": 61}, {"time": 1111, "pitch": 46, "duration": 19, "velocity": 89}, {"time": 1117, "pitch": 58, "duration": 6, "velocity": 61}, {"time": 1123, "pitch": 62, "duration": 12, "velocity": 86}, {"time": 1129, "pitch": 58, "duration": 5, "velocity": 68}, {"time": 1135, "pitch": 48, "duration": 15, "velocity": 65}, {"time": 1141, "pitch": 55, "duration": 17, "velocity": 55}, {"time": 1147, "pitch": 64, "duration": 12, "velocity": 85}, {"time": 1153, "pitch": 60, "duration": 6, "velocity": 66}, {"time": 1159, "pitch": 38, "duration": 22, "velocity": 88}, {"time": 1165, "pitch": 45, "duration": 19, "velocity": 55}, {"time": 1168, "pitch": 65, "duration": 15, "velocity": 117}, {"time": 1177, "pitch": 64, "duration": 4, "velocity": 75}, {"time": 1180, "pitch": 62, "duration": 9, "velocity": 89}, {"time": 1183, "pitch": 38, "duration": 11, "velocity": 95}, {"time": 1186, "pitch": 45, "duration": 8, "velocity": 79}, {"time": 1189, "pitch": 50, "duration": 4, "velocity": 92}, {"time": 1191, "pitch": 57, "duration": 2, "velocity": 50}, {"time": 1195, "pitch": 65, "duration": 5, "velocity": 112}, {"time": 1195, "pitch": 62, "duration": 5, "velocity": 107}, {"time": 1195, "pitch": 57, "duration": 5, "velocity": 127}, {"time": 1195, "pitch": 50, "duration": 8, "velocity": 107}, {"time": 1201, "pitch": 62, "duration": 5, "velocity": 92}, {"time": 1201, "pitch": 65, "duration": 6, "velocity": 96}, {"time": 1201, "pitch": 57, "duration": 5, "velocity": 82}, {"time": 1207, "pitch": 46, "duration": 1, "velocity": 79}, {"time": 1207, "pitch": 38, "duration": 19, "velocity": 93}, {"time": 1210, "pitch": 45, "duration": 16, "velocity": 107}, {"time": 1213, "pitch": 50, "duration": 7, "velocity": 100}, {"time": 1216, "pitch": 57, "duration": 5, "velocity": 102}, {"time": 1219, "pitch": 65, "duration": 10, "velocity": 117}, {"time": 1222, "pitch": 50, "duration": 3, "velocity": 102}, {"time": 1225, "pitch": 62, "duration": 6, "velocity": 127}, {"time": 1228, "pitch": 57, "duration": 4, "velocity": 117}, {"time": 1231, "pitch": 36, "duration": 18, "velocity": 78}, {"time": 1234, "pitch": 43, "duration": 15, "velocity": 96}, {"time": 1237, "pitch": 48, "duration": 7, "velocity": 95}, {"time": 1240, "pitch": 55, "duration": 6, "velocity": 95}, {"time": 1243, "pitch": 64, "duration": 11, "velocity": 102}, {"time": 1246, "pitch": 48, "duration": 5, "velocity": 100}, {"time": 1249, "pitch": 60, "duration": 5, "velocity": 99}, {"time": 1252, "pitch": 55, "duration": 2, "velocity": 93}, {"time": 1255, "pitch": 45, "duration": 17, "velocity": 78}, {"time": 1258, "pitch": 52, "duration": 10, "velocity": 79}, {"time": 1261, "pitch": 57, "duration": 3, "velocity": 96}, {"time": 1264, "pitch": 60, "duration": 3, "velocity": 107}, {"time": 1267, "pitch": 64, "duration": 9, "velocity": 112}, {"time": 1270, "pitch": 52, "duration": 2, "velocity": 88}, {"time": 1273, "pitch": 60, "duration": 3, "velocity": 100}, {"time": 1276, "pitch": 57, "duration": 3, "velocity": 92}, {"time": 1279, "pitch": 38, "duration": 10, "velocity": 92}, {"time": 1282, "pitch": 45, "duration": 5, "velocity": 88}, {"time": 1285, "pitch": 50, "duration": 6, "velocity": 107}, {"time": 1288, "pitch": 57, "duration": 3, "velocity": 122}, {"time": 1291, "pitch": 48, "duration": 6, "velocity": 102}, {"time": 1291, "pitch": 60, "duration": 12, "velocity": 117}, {"time": 1291, "pitch": 64, "duration": 11, "velocity": 107}, {"time": 1303, "pitch": 46, "duration": 19, "velocity": 82}, {"time": 1306, "pitch": 53, "duration": 13, "velocity": 47}, {"time": 1309, "pitch": 58, "duration": 7, "velocity": 99}, {"time": 1312, "pitch": 62, "duration": 3, "velocity": 97}, {"time": 1315, "pitch": 65, "duration": 6, "velocity": 117}, {"time": 1318, "pitch": 58, "duration": 3, "velocity": 99}, {"time": 1321, "pitch": 62, "duration": 4, "velocity": 102}, {"time": 1324, "pitch": 65, "duration": 3, "velocity": 107}, {"time": 1327, "pitch": 48, "duration": 21, "velocity": 70}, {"time": 1330, "pitch": 55, "duration": 11, "velocity": 93}, {"time": 1333, "pitch": 60, "duration": 4, "velocity": 95}, {"time": 1336, "pitch": 64, "duration": 3, "velocity": 97}, {"time": 1339, "pitch": 67, "duration": 10, "velocity": 107}, {"time": 1342, "pitch": 55, "duration": 5, "velocity": 76}, {"time": 1345, "pitch": 64, "duration": 4, "velocity": 122}, {"time": 1348, "pitch": 60, "duration": 3, "velocity": 93}, {"time": 1351, "pitch": 41, "duration": 23, "velocity": 88}, {"time": 1354, "pitch": 48, "duration": 22, "velocity": 77}, {"time": 1357, "pitch": 53, "duration": 7, "velocity": 85}, {"time": 1360, "pitch": 57, "duration": 5, "velocity": 86}, {"time": 1363, "pitch": 65, "duration": 12, "velocity": 102}, {"time": 1366, "pitch": 53, "duration": 3, "velocity": 92}, {"time": 1369, "pitch": 60, "duration": 7, "velocity": 97}, {"time": 1372, "pitch": 57, "duration": 5, "velocity": 102}, {"time": 1375, "pitch": 41, "duration": 19, "velocity": 79}, {"time": 1378, "pitch": 48, "duration": 16, "velocity": 75}, {"time": 1381, "pitch": 53, "duration": 7, "velocity": 81}, {"time": 1384, "pitch": 57, "duration": 5, "velocity": 89}, {"time": 1387, "pitch": 65, "duration": 11, "velocity": 122}, {"time": 1390, "pitch": 53, "duration": 3, "velocity": 107}, {"time": 1393, "pitch": 60, "duration": 4, "velocity": 127}, {"time": 1396, "pitch": 57, "duration": 4, "velocity": 100}, {"time": 1399, "pitch": 38, "duration": 18, "velocity": 79}, {"time": 1402, "pitch": 45, "duration": 15, "velocity": 78}, {"time": 1405, "pitch": 50, "duration": 7, "velocity": 96}, {"time": 1408, "pitch": 57, "duration": 7, "velocity": 92}, {"time": 1411, "pitch": 65, "duration": 10, "velocity": 117}, {"time": 1414, "pitch": 50, "duration": 2, "velocity": 95}, {"time": 1417, "pitch": 62, "duration": 4, "velocity": 100}, {"time": 1420, "pitch": 57, "duration": 4, "velocity": 99}, {"time": 1423, "pitch": 36, "duration": 16, "velocity": 73}, {"time": 1426, "pitch": 43, "duration": 14, "velocity": 65}, {"time": 1429, "pitch": 48, "duration": 7, "velocity": 96}, {"time": 1432, "pitch": 55, "duration": 4, "velocity": 86}, {"time": 1435, "pitch": 64, "duration": 11, "velocity": 102}, {"time": 1438, "pitch": 48, "duration": 3, "velocity": 96}, {"time": 1441, "pitch": 60, "duration": 5, "velocity": 107}, {"time": 1444, "pitch": 55, "duration": 2, "velocity": 89}, {"time": 1447, "pitch": 45, "duration": 18, "velocity": 77}, {"time": 1450, "pitch": 52, "duration": 10, "velocity": 76}, {"time": 1453, "pitch": 57, "duration": 3, "velocity": 93}, {"time": 1456, "pitch": 60, "duration": 3, "velocity": 107}, {"time": 1459, "pitch": 64, "duration": 9, "velocity": 122}, {"time": 1462, "pitch": 52, "duration": 3, "velocity": 92}, {"time": 1465, "pitch": 60, "duration": 3, "velocity": 112}, {"time": 1468, "pitch": 57, "duration": 4, "velocity": 96}, {"time": 1471, "pitch": 38, "duration": 13, "velocity": 77}, {"time": 1474, "pitch": 45, "duration": 10, "velocity": 82}, {"time": 1477, "pitch": 50, "duration": 8, "velocity": 93}, {"time": 1480, "pitch": 57, "duration": 8, "velocity": 93}, {"time": 1483, "pitch": 65, "duration": 4, "velocity": 127}, {"time": 1486, "pitch": 48, "duration": 5, "velocity": 92}, {"time": 1489, "pitch": 60, "duration": 4, "velocity": 117}, {"time": 1492, "pitch": 57, "duration": 4, "velocity": 99}, {"time": 1495, "pitch": 46, "duration": 17, "velocity": 97}, {"time": 1498, "pitch": 53, "duration": 11, "velocity": 43}, {"time": 1501, "pitch": 58, "duration": 6, "velocity": 107}, {"time": 1504, "pitch": 62, "duration": 2, "velocity": 85}, {"time": 1507, "pitch": 65, "duration": 6, "velocity": 112}, {"time": 1510, "pitch": 58, "duration": 3, "velocity": 112}, {"time": 1513, "pitch": 62, "duration": 4, "velocity": 100}, {"time": 1516, "pitch": 65, "duration": 3, "velocity": 96}, {"time": 1519, "pitch": 48, "duration": 18, "velocity": 76}, {"time": 1522, "pitch": 55, "duration": 11, "velocity": 79}, {"time": 1525, "pitch": 60, "duration": 4, "velocity": 89}, {"time": 1528, "pitch": 64, "duration": 3, "velocity": 100}, {"time": 1531, "pitch": 67, "duration": 10, "velocity": 117}, {"time": 1534, "pitch": 55, "duration": 2, "velocity": 89}, {"time": 1537, "pitch": 64, "duration": 4, "velocity": 117}, {"time": 1540, "pitch": 60, "duration": 3, "velocity": 102}, {"time": 1543, "pitch": 38, "duration": 23, "velocity": 81}, {"time": 1546, "pitch": 45, "duration": 22, "velocity": 86}, {"time": 1549, "pitch": 50, "duration": 7, "velocity": 72}, {"time": 1552, "pitch": 57, "duration": 5, "velocity": 112}, {"time": 1555, "pitch": 65, "duration": 11, "velocity": 112}, {"time": 1558, "pitch": 50, "duration": 4, "velocity": 92}, {"time": 1561, "pitch": 64, "duration": 4, "velocity": 90}, {"time": 1564, "pitch": 62, "duration": 11, "velocity": 117}, {"time": 1567, "pitch": 38, "duration": 16, "velocity": 89}, {"time": 1570, "pitch": 45, "duration": 13, "velocity": 83}, {"time": 1573, "pitch": 50, "duration": 7, "velocity": 78}, {"time": 1576, "pitch": 57, "duration": 5, "velocity": 88}, {"time": 1579, "pitch": 65, "duration": 11, "velocity": 102}, {"time": 1582, "pitch": 50, "duration": 4, "velocity": 90}, {"time": 1585, "pitch": 62, "duration": 4, "velocity": 100}, {"time": 1588, "pitch": 57, "duration": 3, "velocity": 102}, {"time": 1591, "pitch": 46, "duration": 18, "velocity": 76}, {"time": 1594, "pitch": 53, "duration": 12, "velocity": 44}, {"time": 1597, "pitch": 58, "duration": 7, "velocity": 96}, {"time": 1600, "pitch": 62, "duration": 3, "velocity": 90}, {"time": 1603, "pitch": 65, "duration": 6, "velocity": 102}, {"time": 1606, "pitch": 58, "duration": 3, "velocity": 102}, {"time": 1609, "pitch": 62, "duration": 4, "velocity": 99}, {"time": 1612, "pitch": 65, "duration": 3, "velocity": 100}, {"time": 1615, "pitch": 48, "duration": 18, "velocity": 74}, {"time": 1618, "pitch": 55, "duration": 11, "velocity": 72}, {"time": 1621, "pitch": 60, "duration": 4, "velocity": 90}, {"time": 1624, "pitch": 64, "duration": 3, "velocity": 96}, {"time": 1627, "pitch": 67, "duration": 10, "velocity": 107}, {"time": 1630, "pitch": 55, "duration": 2, "velocity": 72}, {"time": 1633, "pitch": 64, "duration": 4, "velocity": 102}, {"time": 1636, "pitch": 60, "duration": 3, "velocity": 100}, {"time": 1639, "pitch": 38, "duration": 22, "velocity": 77}, {"time": 1642, "pitch": 45, "duration": 22, "velocity": 79}, {"time": 1645, "pitch": 50, "duration": 7, "velocity": 96}, {"time": 1648, "pitch": 57, "duration": 5, "velocity": 93}, {"time": 1651, "pitch": 65, "duration": 9, "velocity": 122}, {"time": 1654, "pitch": 50, "duration": 4, "velocity": 99}, {"time": 1657, "pitch": 62, "duration": 10, "velocity": 99}, {"time": 1660, "pitch": 57, "duration": 11, "velocity": 102}, {"time": 1663, "pitch": 38, "duration": 16, "velocity": 83}, {"time": 1666, "pitch": 45, "duration": 12, "velocity": 96}, {"time": 1669, "pitch": 50, "duration": 7, "velocity": 92}, {"time": 1672, "pitch": 57, "duration": 1, "velocity": 28}, {"time": 1672, "pitch": 62, "duration": 2, "velocity": 89}, {"time": 1672, "pitch": 65, "duration": 2, "velocity": 107}, {"time": 1675, "pitch": 62, "duration": 6, "velocity": 107}, {"time": 1675, "pitch": 65, "duration": 7, "velocity": 117}, {"time": 1678, "pitch": 50, "duration": 3, "velocity": 97}, {"time": 1681, "pitch": 57, "duration": 4, "velocity": 112}, {"time": 1684, "pitch": 62, "duration": 4, "velocity": 122}, {"time": 1687, "pitch": 46, "duration": 16, "velocity": 93}, {"time": 1690, "pitch": 53, "duration": 13, "velocity": 63}, {"time": 1693, "pitch": 58, "duration": 7, "velocity": 107}, {"time": 1696, "pitch": 62, "duration": 3, "velocity": 102}, {"time": 1699, "pitch": 65, "duration": 6, "velocity": 102}, {"time": 1702, "pitch": 58, "duration": 3, "velocity": 102}, {"time": 1705, "pitch": 62, "duration": 4, "velocity": 100}, {"time": 1708, "pitch": 65, "duration": 3, "velocity": 97}, {"time": 1711, "pitch": 48, "duration": 18, "velocity": 72}, {"time": 1714, "pitch": 55, "duration": 11, "velocity": 61}, {"time": 1717, "pitch": 60, "duration": 3, "velocity": 92}, {"time": 1720, "pitch": 64, "duration": 3, "velocity": 93}, {"time": 1723, "pitch": 67, "duration": 11, "velocity": 95}, {"time": 1726, "pitch": 55, "duration": 3, "velocity": 82}, {"time": 1729, "pitch": 64, "duration": 4, "velocity": 95}, {"time": 1732, "pitch": 60, "duration": 3, "velocity": 95}, {"time": 1735, "pitch": 41, "duration": 23, "velocity": 72}, {"time": 1738, "pitch": 48, "duration": 22, "velocity": 85}, {"time": 1741, "pitch": 53, "duration": 14, "velocity": 93}, {"time": 1744, "pitch": 57, "duration": 4, "velocity": 85}, {"time": 1747, "pitch": 60, "duration": 2, "velocity": 90}, {"time": 1750, "pitch": 65, "duration": 4, "velocity": 92}, {"time": 1753, "pitch": 69, "duration": 4, "velocity": 95}, {"time": 1756, "pitch": 72, "duration": 3, "velocity": 100}, {"time": 1759, "pitch": 41, "duration": 18, "velocity": 95}, {"time": 1762, "pitch": 48, "duration": 16, "velocity": 86}, {"time": 1765, "pitch": 53, "duration": 8, "velocity": 92}, {"time": 1768, "pitch": 57, "duration": 10, "velocity": 92}, {"time": 1771, "pitch": 60, "duration": 5, "velocity": 96}, {"time": 1774, "pitch": 53, "duration": 3, "velocity": 93}, {"time": 1777, "pitch": 60, "duration": 4, "velocity": 66}, {"time": 1777, "pitch": 65, "duration": 6, "velocity": 102}, {"time": 1780, "pitch": 57, "duration": 3, "velocity": 86}, {"time": 1783, "pitch": 46, "duration": 17, "velocity": 90}, {"time": 1786, "pitch": 53, "duration": 12, "velocity": 31}, {"time": 1789, "pitch": 58, "duration": 8, "velocity": 97}, {"time": 1792, "pitch": 62, "duration": 4, "velocity": 89}, {"time": 1795, "pitch": 65, "duration": 6, "velocity": 112}, {"time": 1798, "pitch": 58, "duration": 3, "velocity": 107}, {"time": 1801, "pitch": 62, "duration": 4, "velocity": 112}, {"time": 1804, "pitch": 65, "duration": 3, "velocity": 107}, {"time": 1807, "pitch": 48, "duration": 19, "velocity": 89}, {"time": 1810, "pitch": 55, "duration": 11, "velocity": 92}, {"time": 1813, "pitch": 60, "duration": 6, "velocity": 81}, {"time": 1816, "pitch": 64, "duration": 4, "velocity": 96}, {"time": 1819, "pitch": 67, "duration": 10, "velocity": 117}, {"time": 1822, "pitch": 55, "duration": 3, "velocity": 83}, {"time": 1825, "pitch": 64, "duration": 4, "velocity": 127}, {"time": 1828, "pitch": 60, "duration": 3, "velocity": 100}, {"time": 1831, "pitch": 45, "duration": 17, "velocity": 85}, {"time": 1834, "pitch": 52, "duration": 11, "velocity": 70}, {"time": 1837, "pitch": 57, "duration": 4, "velocity": 99}, {"time": 1840, "pitch": 60, "duration": 4, "velocity": 112}, {"time": 1843, "pitch": 64, "duration": 11, "velocity": 117}, {"time": 1846, "pitch": 52, "duration": 2, "velocity": 73}, {"time": 1849, "pitch": 60, "duration": 4, "velocity": 90}, {"time": 1852, "pitch": 57, "duration": 3, "velocity": 93}, {"time": 1855, "pitch": 38, "duration": 18, "velocity": 85}, {"time": 1858, "pitch": 45, "duration": 13, "velocity": 86}, {"time": 1861, "pitch": 50, "duration": 7, "velocity": 96}, {"time": 1864, "pitch": 57, "duration": 4, "velocity": 92}, {"time": 1867, "pitch": 62, "duration": 4, "velocity": 117}, {"time": 1867, "pitch": 65, "duration": 4, "velocity": 127}, {"time": 1870, "pitch": 45, "duration": 1, "velocity": 43}, {"time": 1870, "pitch": 50, "duration": 3, "velocity": 122}, {"time": 1873, "pitch": 62, "duration": 5, "velocity": 97}, {"time": 1873, "pitch": 65, "duration": 6, "velocity": 93}, {"time": 1873, "pitch": 67, "duration": 2, "velocity": 93}, {"time": 1876, "pitch": 57, "duration": 3, "velocity": 102}, {"time": 1879, "pitch": 46, "duration": 18, "velocity": 81}, {"time": 1882, "pitch": 53, "duration": 13, "velocity": 82}, {"time": 1885, "pitch": 58, "duration": 7, "velocity": 97}, {"time": 1888, "pitch": 62, "duration": 3, "velocity": 99}, {"time": 1891, "pitch": 65, "duration": 6, "velocity": 107}, {"time": 1894, "pitch": 58, "duration": 3, "velocity": 102}, {"time": 1897, "pitch": 62, "duration": 4, "velocity": 122}, {"time": 1900, "pitch": 65, "duration": 3, "velocity": 99}, {"time": 1903, "pitch": 48, "duration": 17, "velocity": 82}, {"time": 1906, "pitch": 55, "duration": 10, "velocity": 89}, {"time": 1909, "pitch": 60, "duration": 6, "velocity": 79}, {"time": 1912, "pitch": 64, "duration": 4, "velocity": 85}, {"time": 1915, "pitch": 67, "duration": 10, "velocity": 107}, {"time": 1918, "pitch": 55, "duration": 2, "velocity": 95}, {"time": 1921, "pitch": 64, "duration": 4, "velocity": 122}, {"time": 1924, "pitch": 60, "duration": 3, "velocity": 96}, {"time": 1927, "pitch": 38, "duration": 48, "velocity": 82}, {"time": 1930, "pitch": 45, "duration": 18, "velocity": 82}, {"time": 1933, "pitch": 50, "duration": 7, "velocity": 92}, {"time": 1936, "pitch": 57, "duration": 10, "velocity": 82}, {"time": 1939, "pitch": 65, "duration": 36, "velocity": 96}, {"time": 1942, "pitch": 50, "duration": 33, "velocity": 82}, {"time": 1945, "pitch": 64, "duration": 24, "velocity": 81}, {"time": 1948, "pitch": 57, "duration": 27, "velocity": 66}, {"time": 1951, "pitch": 62, "duration": 24, "velocity": 69}, {"time": 1975, "pitch": 38, "duration": 18, "velocity": 77}, {"time": 1981, "pitch": 45, "duration": 12, "velocity": 46}, {"time": 1984, "pitch": 62, "duration": 2, "velocity": 29}, {"time": 1987, "pitch": 65, "duration": 12, "velocity": 92}, {"time": 1993, "pitch": 62, "duration": 7, "velocity": 67}, {"time": 1999, "pitch": 36, "duration": 13, "velocity": 69}, {"time": 2005, "pitch": 43, "duration": 9, "velocity": 42}, {"time": 2011, "pitch": 64, "duration": 13, "velocity": 79}, {"time": 2023, "pitch": 45, "duration": 17, "velocity": 66}, {"time": 2029, "pitch": 52, "duration": 9, "velocity": 50}, {"time": 2035, "pitch": 64, "duration": 12, "velocity": 92}, {"time": 2041, "pitch": 60, "duration": 6, "velocity": 60}, {"time": 2044, "pitch": 57, "duration": 4, "velocity": 51}, {"time": 2047, "pitch": 38, "duration": 17, "velocity": 59}, {"time": 2053, "pitch": 45, "duration": 11, "velocity": 41}, {"time": 2056, "pitch": 57, "duration": 4, "velocity": 54}, {"time": 2059, "pitch": 65, "duration": 6, "velocity": 83}, {"time": 2062, "pitch": 64, "duration": 5, "velocity": 86}, {"time": 2065, "pitch": 62, "duration": 6, "velocity": 71}, {"time": 2068, "pitch": 57, "duration": 4, "velocity": 48}, {"time": 2071, "pitch": 46, "duration": 17, "velocity": 66}, {"time": 2077, "pitch": 53, "duration": 11, "velocity": 57}, {"time": 2083, "pitch": 65, "duration": 11, "velocity": 97}, {"time": 2089, "pitch": 62, "duration": 5, "velocity": 79}, {"time": 2095, "pitch": 48, "duration": 19, "velocity": 66}, {"time": 2101, "pitch": 55, "duration": 18, "velocity": 63}, {"time": 2107, "pitch": 64, "duration": 11, "velocity": 89}, {"time": 2113, "pitch": 60, "duration": 5, "velocity": 73}, {"time": 2119, "pitch": 41, "duration": 22, "velocity": 75}, {"time": 2125, "pitch": 48, "duration": 18, "velocity": 50}, {"time": 2131, "pitch": 60, "duration": 13, "velocity": 90}, {"time": 2137, "pitch": 57, "duration": 6, "velocity": 48}, {"time": 2143, "pitch": 41, "duration": 18, "velocity": 72}, {"time": 2146, "pitch": 48, "duration": 15, "velocity": 52}, {"time": 2149, "pitch": 53, "duration": 14, "velocity": 73}, {"time": 2152, "pitch": 69, "duration": 16, "velocity": 100}, {"time": 2161, "pitch": 65, "duration": 6, "velocity": 73}, {"time": 2167, "pitch": 46, "duration": 18, "velocity": 66}, {"time": 2170, "pitch": 53, "duration": 13, "velocity": 47}, {"time": 2173, "pitch": 58, "duration": 10, "velocity": 92}, {"time": 2176, "pitch": 65, "duration": 14, "velocity": 74}, {"time": 2185, "pitch": 62, "duration": 6, "velocity": 59}, {"time": 2191, "pitch": 48, "duration": 17, "velocity": 66}, {"time": 2197, "pitch": 55, "duration": 17, "velocity": 46}, {"time": 2203, "pitch": 64, "duration": 14, "velocity": 85}, {"time": 2209, "pitch": 60, "duration": 9, "velocity": 64}, {"time": 2215, "pitch": 45, "duration": 16, "velocity": 70}, {"time": 2221, "pitch": 52, "duration": 10, "velocity": 50}, {"time": 2224, "pitch": 64, "duration": 12, "velocity": 97}, {"time": 2233, "pitch": 60, "duration": 4, "velocity": 60}, {"time": 2236, "pitch": 57, "duration": 8, "velocity": 52}, {"time": 2239, "pitch": 38, "duration": 17, "velocity": 58}, {"time": 2242, "pitch": 45, "duration": 14, "velocity": 46}, {"time": 2245, "pitch": 50, "duration": 8, "velocity": 67}, {"time": 2248, "pitch": 65, "duration": 14, "velocity": 93}, {"time": 2254, "pitch": 50, "duration": 3, "velocity": 59}, {"time": 2257, "pitch": 62, "duration": 5, "velocity": 53}, {"time": 2260, "pitch": 57, "duration": 4, "velocity": 61}, {"time": 2263, "pitch": 46, "duration": 19, "velocity": 89}, {"time": 2269, "pitch": 58, "duration": 6, "velocity": 61}, {"time": 2275, "pitch": 62, "duration": 12, "velocity": 86}, {"time": 2281, "pitch": 58, "duration": 5, "velocity": 68}, {"time": 2287, "pitch": 48, "duration": 15, "velocity": 65}, {"time": 2293, "pitch": 55, "duration": 17, "velocity": 55}, {"time": 2299, "pitch": 64, "duration": 12, "velocity": 85}, {"time": 2305, "pitch": 60, "duration": 6, "velocity": 66}, {"time": 2311, "pitch": 38, "duration": 23, "velocity": 70}, {"time": 2314, "pitch": 45, "duration": 45, "velocity": 58}, {"time": 2317, "pitch": 50, "duration": 7, "velocity": 69}, {"time": 2320, "pitch": 57, "duration": 39, "velocity": 69}, {"time": 2323, "pitch": 65, "duration": 22, "velocity": 81}, {"time": 2326, "pitch": 50, "duration": 22, "velocity": 53}, {"time": 2329, "pitch": 64, "duration": 7, "velocity": 50}, {"time": 2335, "pitch": 38, "duration": 21, "velocity": 48}, {"time": 2335, "pitch": 62, "duration": 12, "velocity": 55}, {"time": 2347, "pitch": 65, "duration": 12, "velocity": 81}, {"time": 2350, "pitch": 50, "duration": 3, "velocity": 44}, {"time": 2353, "pitch": 64, "duration": 6, "velocity": 65}, {"time": 2356, "pitch": 62, "duration": 3, "velocity": 73}, {"time": 2359, "pitch": 38, "duration": 18, "velocity": 77}, {"time": 2365, "pitch": 45, "duration": 12, "velocity": 46}, {"time": 2368, "pitch": 62, "duration": 2, "velocity": 29}, {"time": 2371, "pitch": 65, "duration": 12, "velocity": 92}, {"time": 2377, "pitch": 62, "duration": 7, "velocity": 67}, {"time": 2383, "pitch": 36, "duration": 13, "velocity": 69}, {"time": 2389, "pitch": 43, "duration": 9, "velocity": 42}, {"time": 2395, "pitch": 64, "duration": 13, "velocity": 79}, {"time": 2407, "pitch": 45, "duration": 17, "velocity": 66}, {"time": 2413, "pitch": 52, "duration": 9, "velocity": 50}, {"time": 2419, "pitch": 64, "duration": 12, "velocity": 92}, {"time": 2425, "pitch": 60, "duration": 6, "velocity": 60}, {"time": 2428, "pitch": 57, "duration": 4, "velocity": 51}, {"time": 2431, "pitch": 38, "duration": 17, "velocity": 59}, {"time": 2437, "pitch": 45, "duration": 11, "velocity": 41}, {"time": 2440, "pitch": 57, "duration": 4, "velocity": 54}, {"time": 2443, "pitch": 65, "duration": 6, "velocity": 83}, {"time": 2446, "pitch": 64, "duration": 5, "velocity": 86}, {"time": 2449, "pitch": 62, "duration": 6, "velocity": 71}, {"time": 2452, "pitch": 57, "duration": 4, "velocity": 48}, {"time": 2455, "pitch": 46, "duration": 17, "velocity": 66}, {"time": 2461, "pitch": 53, "duration": 11, "velocity": 57}, {"time": 2467, "pitch": 65, "duration": 11, "velocity": 97}, {"time": 2473, "pitch": 62, "duration": 5, "velocity": 79}, {"time": 2479, "pitch": 48, "duration": 19, "velocity": 66}, {"time": 2485, "pitch": 55, "duration": 18, "velocity": 63}, {"time": 2491, "pitch": 64, "duration": 11, "velocity": 89}, {"time": 2497, "pitch": 60, "duration": 5, "velocity": 73}, {"time": 2503, "pitch": 41, "duration": 22, "velocity": 75}, {"time": 2509, "pitch": 48, "duration": 18, "velocity": 50}, {"time": 2515, "pitch": 60, "duration": 13, "velocity": 90}, {"time": 2521, "pitch": 57, "duration": 6, "velocity": 48}, {"time": 2527, "pitch": 41, "duration": 18, "velocity": 72}, {"time": 2530, "pitch": 48, "duration": 15, "velocity": 52}, {"time": 2533, "pitch": 53, "duration": 14, "velocity": 73}, {"time": 2536, "pitch": 69, "duration": 16, "velocity": 100}, {"time": 2545, "pitch": 65, "duration": 6, "velocity": 73}, {"time": 2551, "pitch": 46, "duration": 18, "velocity": 66}, {"time": 2554, "pitch": 53, "duration": 13, "velocity": 47}, {"time": 2557, "pitch": 58, "duration": 10, "velocity": 92}, {"time": 2560, "pitch": 65, "duration": 14, "velocity": 74}, {"time": 2569, "pitch": 62, "duration": 6, "velocity": 59}, {"time": 2575, "pitch": 48, "duration": 17, "velocity": 66}, {"time": 2581, "pitch": 55, "duration": 17, "velocity": 46}, {"time": 2587, "pitch": 64, "duration": 14, "velocity": 85}, {"time": 2593, "pitch": 60, "duration": 9, "velocity": 64}, {"time": 2599, "pitch": 45, "duration": 16, "velocity": 70}, {"time": 2605, "pitch": 52, "duration": 10, "velocity": 50}, {"time": 2608, "pitch": 64, "duration": 12, "velocity": 97}, {"time": 2617, "pitch": 60, "duration": 4, "velocity": 60}, {"time": 2620, "pitch": 57, "duration": 8, "velocity": 52}, {"time": 2623, "pitch": 38, "duration": 17, "velocity": 58}, {"time": 2626, "pitch": 45, "duration": 14, "velocity": 46}, {"time": 2629, "pitch": 50, "duration": 8, "velocity": 67}, {"time": 2632, "pitch": 65, "duration": 14, "velocity": 93}, {"time": 2638, "pitch": 50, "duration": 3, "velocity": 59}, {"time": 2641, "pitch": 62, "duration": 5, "velocity": 53}, {"time": 2644, "pitch": 57, "duration": 4, "velocity": 61}, {"time": 2647, "pitch": 46, "duration": 19, "velocity": 89}, {"time": 2653, "pitch": 58, "duration": 6, "velocity": 61}, {"time": 2659, "pitch": 62, "duration": 12, "velocity": 86}, {"time": 2665, "pitch": 58, "duration": 5, "velocity": 68}, {"time": 2671, "pitch": 48, "duration": 15, "velocity": 65}, {"time": 2677, "pitch": 55, "duration": 17, "velocity": 55}, {"time": 2683, "pitch": 64, "duration": 12, "velocity": 85}, {"time": 2689, "pitch": 60, "duration": 6, "velocity": 66}, {"time": 2695, "pitch": 38, "duration": 22, "velocity": 88}, {"time": 2701, "pitch": 45, "duration": 19, "velocity": 55}, {"time": 2704, "pitch": 65, "duration": 15, "velocity": 117}, {"time": 2713, "pitch": 64, "duration": 4, "velocity": 75}, {"time": 2716, "pitch": 62, "duration": 9, "velocity": 89}, {"time": 2719, "pitch": 38, "duration": 11, "velocity": 95}, {"time": 2722, "pitch": 45, "duration": 8, "velocity": 79}, {"time": 2725, "pitch": 50, "duration": 4, "velocity": 92}, {"time": 2727, "pitch": 57, "duration": 2, "velocity": 50}, {"time": 2731, "pitch": 65, "duration": 5, "velocity": 112}, {"time": 2731, "pitch": 62, "duration": 5, "velocity": 107}, {"time": 2731, "pitch": 57, "duration": 5, "velocity": 127}, {"time": 2731, "pitch": 50, "duration": 8, "velocity": 107}, {"time": 2737, "pitch": 62, "duration": 5, "velocity": 92}, {"time": 2737, "pitch": 65, "duration": 6, "velocity": 96}, {"time": 2737, "pitch": 57, "duration": 5, "velocity": 82}, {"time": 2743, "pitch": 46, "duration": 1, "velocity": 79}, {"time": 2743, "pitch": 38, "duration": 19, "velocity": 93}, {"time": 2746, "pitch": 45, "duration": 16, "velocity": 107}, {"time": 2749, "pitch": 50, "duration": 7, "velocity": 100}, {"time": 2752, "pitch": 57, "duration": 5, "velocity": 102}, {"time": 2755, "pitch": 65, "duration": 10, "velocity": 117}, {"time": 2758, "pitch": 50, "duration": 3, "velocity": 102}, {"time": 2761, "pitch": 62, "duration": 6, "velocity": 127}, {"time": 2764, "pitch": 57, "duration": 4, "velocity": 117}, {"time": 2767, "pitch": 36, "duration": 18, "velocity": 78}, {"time": 2770, "pitch": 43, "duration": 15, "velocity": 96}, {"time": 2773, "pitch": 48, "duration": 7, "velocity": 95}, {"time": 2776, "pitch": 55, "duration": 6, "velocity": 95}, {"time": 2779, "pitch": 64, "duration": 11, "velocity": 102}, {"time": 2782, "pitch": 48, "duration": 5, "velocity": 100}, {"time": 2785, "pitch": 60, "duration": 5, "velocity": 99}, {"time": 2788, "pitch": 55, "duration": 2, "velocity": 93}, {"time": 2791, "pitch": 45, "duration": 17, "velocity": 78}, {"time": 2794, "pitch": 52, "duration": 10, "velocity": 79}, {"time": 2797, "pitch": 57, "duration": 3, "velocity": 96}, {"time": 2800, "pitch": 60, "duration": 3, "velocity": 107}, {"time": 2803, "pitch": 64, "duration": 9, "velocity": 112}, {"time": 2806, "pitch": 52, "duration": 2, "velocity": 88}, {"time": 2809, "pitch": 60, "duration": 3, "velocity": 100}, {"time": 2812, "pitch": 57, "duration": 3, "velocity": 92}, {"time": 2815, "pitch": 38, "duration": 10, "velocity": 92}, {"time": 2818, "pitch": 45, "duration": 5, "velocity": 88}, {"time": 2821, "pitch": 50, "duration": 6, "velocity": 107}, {"time": 2824, "pitch": 57, "duration": 3, "velocity": 122}, {"time": 2827, "pitch": 48, "duration": 6, "velocity": 102}, {"time": 2827, "pitch": 60, "duration": 12, "velocity": 117}, {"time": 2827, "pitch": 64, "duration": 11, "velocity": 107}, {"time": 2839, "pitch": 46, "duration": 19, "velocity": 82}, {"time": 2842, "pitch": 53, "duration": 13, "velocity": 47}, {"time": 2845, "pitch": 58, "duration": 7, "velocity": 99}, {"time": 2848, "pitch": 62, "duration": 3, "velocity": 97}, {"time": 2851, "pitch": 65, "duration": 6, "velocity": 117}, {"time": 2854, "pitch": 58, "duration": 3, "velocity": 99}, {"time": 2857, "pitch": 62, "duration": 4, "velocity": 102}, {"time": 2860, "pitch": 65, "duration": 3, "velocity": 107}, {"time": 2863, "pitch": 48, "duration": 21, "velocity": 70}, {"time": 2866, "pitch": 55, "duration": 11, "velocity": 93}, {"time": 2869, "pitch": 60, "duration": 4, "velocity": 95}, {"time": 2872, "pitch": 64, "duration": 3, "velocity": 97}, {"time": 2875, "pitch": 67, "duration": 10, "velocity": 107}, {"time": 2878, "pitch": 55, "duration": 5, "velocity": 76}, {"time": 2881, "pitch": 64, "duration": 4, "velocity": 122}, {"time": 2884, "pitch": 60, "duration": 3, "velocity": 93}, {"time": 2887, "pitch": 41, "duration": 23, "velocity": 88}, {"time": 2890, "pitch": 48, "duration": 22, "velocity": 77}, {"time": 2893, "pitch": 53, "duration": 7, "velocity": 85}, {"time": 2896, "pitch": 57, "duration": 5, "velocity": 86}, {"time": 2899, "pitch": 65, "duration": 12, "velocity": 102}, {"time": 2902, "pitch": 53, "duration": 3, "velocity": 92}, {"time": 2905, "pitch": 60, "duration": 7, "velocity": 97}, {"time": 2908, "pitch": 57, "duration": 5, "velocity": 102}, {"time": 2911, "pitch": 41, "duration": 19, "velocity": 79}, {"time": 2914, "pitch": 48, "duration": 16, "velocity": 75}, {"time": 2917, "pitch": 53, "duration": 7, "velocity": 81}, {"time": 2920, "pitch": 57, "duration": 5, "velocity": 89}, {"time": 2923, "pitch": 65, "duration": 11, "velocity": 122}, {"time": 2926, "pitch": 53, "duration": 3, "velocity": 107}, {"time": 2929, "pitch": 60, "duration": 4, "velocity": 127}, {"time": 2932, "pitch": 57, "duration": 4, "velocity": 100}, {"time": 2935, "pitch": 38, "duration": 18, "velocity": 79}, {"time": 2938, "pitch": 45, "duration": 15, "velocity": 78}, {"time": 2941, "pitch": 50, "duration": 7, "velocity": 96}, {"time": 2944, "pitch": 57, "duration": 7, "velocity": 92}, {"time": 2947, "pitch": 65, "duration": 10, "velocity": 117}, {"time": 2950, "pitch": 50, "duration": 2, "velocity": 95}, {"time": 2953, "pitch": 62, "duration": 4, "velocity": 100}, {"time": 2956, "pitch": 57, "duration": 4, "velocity": 99}, {"time": 2959, "pitch": 36, "duration": 16, "velocity": 73}, {"time": 2962, "pitch": 43, "duration": 14, "velocity": 65}, {"time": 2965, "pitch": 48, "duration": 7, "velocity": 96}, {"time": 2968, "pitch": 55, "duration": 4, "velocity": 86}, {"time": 2971, "pitch": 64, "duration": 11, "velocity": 102}, {"time": 2974, "pitch": 48, "duration": 3, "velocity": 96}, {"time": 2977, "pitch": 60, "duration": 5, "velocity": 107}, {"time": 2980, "pitch": 55, "duration": 2, "velocity": 89}, {"time": 2983, "pitch": 45, "duration": 18, "velocity": 77}, {"time": 2986, "pitch": 52, "duration": 10, "velocity": 76}, {"time": 2989, "pitch": 57, "duration": 3, "velocity": 93}, {"time": 2992, "pitch": 60, "duration": 3, "velocity": 107}, {"time": 2995, "pitch": 64, "duration": 9, "velocity": 122}, {"time": 2998, "pitch": 52, "duration": 3, "velocity": 92}, {"time": 3001, "pitch": 60, "duration": 3, "velocity": 112}, {"time": 3004, "pitch": 57, "duration": 4, "velocity": 96}, {"time": 3007, "pitch": 38, "duration": 13, "velocity": 77}, {"time": 3010, "pitch": 45, "duration": 10, "velocity": 82}, {"time": 3013, "pitch": 50, "duration": 8, "velocity": 93}, {"time": 3016, "pitch": 57, "duration": 8, "velocity": 93}, {"time": 3019, "pitch": 65, "duration": 4, "velocity": 127}, {"time": 3022, "pitch": 48, "duration": 5, "velocity": 92}, {"time": 3025, "pitch": 60, "duration": 4, "velocity": 117}, {"time": 3028, "pitch": 57, "duration": 4, "velocity": 99}, {"time": 3031, "pitch": 46, "duration": 17, "velocity": 97}, {"time": 3034, "pitch": 53, "duration": 11, "velocity": 43}, {"time": 3037, "pitch": 58, "duration": 6, "velocity": 107}, {"time": 3040, "pitch": 62, "duration": 2, "velocity": 85}, {"time": 3043, "pitch": 65, "duration": 6, "velocity": 112}, {"time": 3046, "pitch": 58, "duration": 3, "velocity": 112}, {"time": 3049, "pitch": 62, "duration": 4, "velocity": 100}, {"time": 3052, "pitch": 65, "duration": 3, "velocity": 96}, {"time": 3055, "pitch": 48, "duration": 18, "velocity": 76}, {"time": 3058, "pitch": 55, "duration": 11, "velocity": 79}, {"time": 3061, "pitch": 60, "duration": 4, "velocity": 89}, {"time": 3064, "pitch": 64, "duration": 3, "velocity": 100}, {"time": 3067, "pitch": 67, "duration": 10, "velocity": 117}, {"time": 3070, "pitch": 55, "duration": 2, "velocity": 89}, {"time": 3073, "pitch": 64, "duration": 4, "velocity": 117}, {"time": 3076, "pitch": 60, "duration": 3, "velocity": 102}, {"time": 3079, "pitch": 38, "duration": 19, "velocity": 88}, {"time": 3082, "pitch": 45, "duration": 17, "velocity": 83}, {"time": 3085, "pitch": 50, "duration": 13, "velocity": 95}, {"time": 3088, "pitch": 62, "duration": 4, "velocity": 79}, {"time": 3091, "pitch": 69, "duration": 5, "velocity": 112}, {"time": 3094, "pitch": 65, "duration": 4, "velocity": 97}, {"time": 3097, "pitch": 62, "duration": 2, "velocity": 93}, {"time": 3100, "pitch": 38, "duration": 5, "velocity": 83}, {"time": 3100, "pitch": 50, "duration": 4, "velocity": 102}, {"time": 3100, "pitch": 62, "duration": 4, "velocity": 100}, {"time": 3100, "pitch": 65, "duration": 4, "velocity": 97}, {"time": 3100, "pitch": 69, "duration": 4, "velocity": 95}, {"time": 3127, "pitch": 38, "duration": 23, "velocity": 93}, {"time": 3133, "pitch": 45, "duration": 17, "velocity": 59}, {"time": 3139, "pitch": 65, "duration": 12, "velocity": 112}, {"time": 3145, "pitch": 62, "duration": 6, "velocity": 97}, {"time": 3151, "pitch": 36, "duration": 12, "velocity": 86}, {"time": 3157, "pitch": 55, "duration": 11, "velocity": 76}, {"time": 3163, "pitch": 64, "duration": 9, "velocity": 96}, {"time": 3169, "pitch": 60, "duration": 7, "velocity": 78}, {"time": 3175, "pitch": 45, "duration": 18, "velocity": 78}, {"time": 3181, "pitch": 52, "duration": 9, "velocity": 59}, {"time": 3187, "pitch": 64, "duration": 11, "velocity": 127}, {"time": 3193, "pitch": 60, "duration": 5, "velocity": 117}, {"time": 3199, "pitch": 38, "duration": 14, "velocity": 77}, {"time": 3205, "pitch": 45, "duration": 8, "velocity": 70}, {"time": 3211, "pitch": 65, "duration": 9, "velocity": 112}, {"time": 3217, "pitch": 62, "duration": 7, "velocity": 100}, {"time": 3223, "pitch": 46, "duration": 14, "velocity": 82}, {"time": 3229, "pitch": 53, "duration": 10, "velocity": 48}, {"time": 3235, "pitch": 65, "duration": 9, "velocity": 117}, {"time": 3241, "pitch": 62, "duration": 6, "velocity": 88}, {"time": 3247, "pitch": 48, "duration": 16, "velocity": 81}, {"time": 3253, "pitch": 60, "duration": 9, "velocity": 83}, {"time": 3259, "pitch": 67, "duration": 11, "velocity": 97}, {"time": 3265, "pitch": 64, "duration": 6, "velocity": 102}, {"time": 3271, "pitch": 41, "duration": 23, "velocity": 83}, {"time": 3277, "pitch": 48, "duration": 17, "velocity": 59}, {"time": 3283, "pitch": 57, "duration": 6, "velocity": 122}, {"time": 3289, "pitch": 60, "duration": 6, "velocity": 102}, {"time": 3295, "pitch": 41, "duration": 14, "velocity": 82}, {"time": 3298, "pitch": 48, "duration": 11, "velocity": 93}, {"time": 3301, "pitch": 53, "duration": 7, "velocity": 112}, {"time": 3304, "pitch": 65, "duration": 2, "velocity": 90}, {"time": 3304, "pitch": 69, "duration": 2, "velocity": 97}, {"time": 3304, "pitch": 72, "duration": 2, "velocity": 97}, {"time": 3307, "pitch": 65, "duration": 5, "velocity": 107}, {"time": 3307, "pitch": 69, "duration": 2, "velocity": 102}, {"time": 3307, "pitch": 72, "duration": 2, "velocity": 99}, {"time": 3310, "pitch": 41, "duration": 8, "velocity": 76}, {"time": 3310, "pitch": 48, "duration": 7, "velocity": 95}, {"time": 3310, "pitch": 53, "duration": 7, "velocity": 122}, {"time": 3310, "pitch": 69, "duration": 1, "velocity": 53}, {"time": 3313, "pitch": 60, "duration": 3, "velocity": 117}, {"time": 3313, "pitch": 65, "duration": 2, "velocity": 85}, {"time": 3313, "pitch": 69, "duration": 2, "velocity": 85}, {"time": 3316, "pitch": 60, "duration": 3, "velocity": 90}, {"time": 3316, "pitch": 65, "duration": 3, "velocity": 95}, {"time": 3316, "pitch": 69, "duration": 3, "velocity": 95}, {"time": 3319, "pitch": 38, "duration": 18, "velocity": 79}, {"time": 3322, "pitch": 45, "duration": 15, "velocity": 78}, {"time": 3325, "pitch": 50, "duration": 7, "velocity": 96}, {"time": 3328, "pitch": 57, "duration": 7, "velocity": 92}, {"time": 3331, "pitch": 65, "duration": 10, "velocity": 117}, {"time": 3334, "pitch": 50, "duration": 2, "velocity": 95}, {"time": 3337, "pitch": 62, "duration": 4, "velocity": 100}, {"time": 3340, "pitch": 57, "duration": 4, "velocity": 99}, {"time": 3343, "pitch": 36, "duration": 16, "velocity": 73}, {"time": 3346, "pitch": 43, "duration": 14, "velocity": 65}, {"time": 3349, "pitch": 48, "duration": 7, "velocity": 96}, {"time": 3352, "pitch": 55, "duration": 4, "velocity": 86}, {"time": 3355, "pitch": 64, "duration": 11, "velocity": 102}, {"time": 3358, "pitch": 48, "duration": 3, "velocity": 96}, {"time": 3361, "pitch": 60, "duration": 5, "velocity": 107}, {"time": 3364, "pitch": 55, "duration": 2, "velocity": 89}, {"time": 3367, "pitch": 45, "duration": 18, "velocity": 77}, {"time": 3370, "pitch": 52, "duration": 10, "velocity": 76}, {"time": 3373, "pitch": 57, "duration": 3, "velocity": 93}, {"time": 3376, "pitch": 60, "duration": 3, "velocity": 107}, {"time": 3379, "pitch": 64, "duration": 9, "velocity": 122}, {"time": 3382, "pitch": 52, "duration": 3, "velocity": 92}, {"time": 3385, "pitch": 60, "duration": 3, "velocity": 112}, {"time": 3388, "pitch": 57, "duration": 4, "velocity": 96}, {"time": 3391, "pitch": 38, "duration": 13, "velocity": 77}, {"time": 3394, "pitch": 45, "duration": 10, "velocity": 82}, {"time": 3397, "pitch": 50, "duration": 8, "velocity": 93}, {"time": 3400, "pitch": 57, "duration": 8, "velocity": 93}, {"time": 3403, "pitch": 65, "duration": 4, "velocity": 127}, {"time": 3406, "pitch": 48, "duration": 5, "velocity": 92}, {"time": 3409, "pitch": 60, "duration": 4, "velocity": 117}, {"time": 3412, "pitch": 57, "duration": 4, "velocity": 99}, {"time": 3415, "pitch": 46, "duration": 17, "velocity": 97}, {"time": 3418, "pitch": 53, "duration": 11, "velocity": 43}, {"time": 3421, "pitch": 58, "duration": 6, "velocity": 107}, {"time": 3424, "pitch": 62, "duration": 2, "velocity": 85}, {"time": 3427, "pitch": 65, "duration": 6, "velocity": 112}, {"time": 3430, "pitch": 58, "duration": 3, "velocity": 112}, {"time": 3433, "pitch": 62, "duration": 4, "velocity": 100}, {"time": 3436, "pitch": 65, "duration": 3, "velocity": 96}, {"time": 3439, "pitch": 48, "duration": 18, "velocity": 76}, {"time": 3442, "pitch": 55, "duration": 11, "velocity": 79}, {"time": 3445, "pitch": 60, "duration": 4, "velocity": 89}, {"time": 3448, "pitch": 64, "duration": 3, "velocity": 100}, {"time": 3451, "pitch": 67, "duration": 10, "velocity": 117}, {"time": 3454, "pitch": 55, "duration": 2, "velocity": 89}, {"time": 3457, "pitch": 64, "duration": 4, "velocity": 117}, {"time": 3460, "pitch": 60, "duration": 3, "velocity": 102}, {"time": 3463, "pitch": 38, "duration": 14, "velocity": 75}, {"time": 3466, "pitch": 45, "duration": 10, "velocity": 50}, {"time": 3469, "pitch": 50, "duration": 6, "velocity": 96}, {"time": 3472, "pitch": 57, "duration": 4, "velocity": 72}, {"time": 3475, "pitch": 65, "duration": 1, "velocity": 96}, {"time": 3478, "pitch": 36, "duration": 6, "velocity": 107}, {"time": 3478, "pitch": 60, "duration": 3, "velocity": 107}, {"time": 3478, "pitch": 64, "duration": 3, "velocity": 127}, {"time": 3484, "pitch": 38, "duration": 5, "velocity": 107}, {"time": 3484, "pitch": 57, "duration": 5, "velocity": 99}, {"time": 3484, "pitch": 62, "duration": 5, "velocity": 97}, {"time": 3484, "pitch": 65, "duration": 5, "velocity": 99}, {"time": 3511, "pitch": 46, "duration": 17, "velocity": 89}, {"time": 3517, "pitch": 53, "duration": 10, "velocity": 41}, {"time": 3523, "pitch": 62, "duration": 15, "velocity": 68}, {"time": 3523, "pitch": 65, "duration": 11, "velocity": 67}, {"time": 3535, "pitch": 48, "duration": 19, "velocity": 75}, {"time": 3541, "pitch": 55, "duration": 12, "velocity": 52}, {"time": 3547, "pitch": 64, "duration": 11, "velocity": 75}, {"time": 3553, "pitch": 60, "duration": 5, "velocity": 63}, {"time": 3559, "pitch": 38, "duration": 36, "velocity": 69}, {"time": 3565, "pitch": 45, "duration": 29, "velocity": 61}, {"time": 3571, "pitch": 50, "duration": 23, "velocity": 57}, {"time": 3577, "pitch": 65, "duration": 30, "velocity": 77}, {"time": 3583, "pitch": 57, "duration": 20, "velocity": 23}, {"time": 3583, "pitch": 62, "duration": 24, "velocity": 63}, {"time": 3607, "pitch": 46, "duration": 18, "velocity": 92}, {"time": 3613, "pitch": 53, "duration": 11, "velocity": 39}, {"time": 3616, "pitch": 65, "duration": 15, "velocity": 97}, {"time": 3622, "pitch": 58, "duration": 3, "velocity": 64}, {"time": 3625, "pitch": 62, "duration": 7, "velocity": 83}, {"time": 3631, "pitch": 48, "duration": 16, "velocity": 69}, {"time": 3637, "pitch": 55, "duration": 9, "velocity": 44}, {"time": 3640, "pitch": 67, "duration": 15, "velocity": 93}, {"time": 3649, "pitch": 64, "duration": 6, "velocity": 79}, {"time": 3655, "pitch": 38, "duration": 40, "velocity": 78}, {"time": 3661, "pitch": 45, "duration": 34, "velocity": 42}, {"time": 3664, "pitch": 65, "duration": 25, "velocity": 99}, {"time": 3670, "pitch": 50, "duration": 12, "velocity": 38}, {"time": 3676, "pitch": 57, "duration": 19, "velocity": 53}, {"time": 3679, "pitch": 62, "duration": 10, "velocity": 89}, {"time": 3688, "pitch": 50, "duration": 4, "velocity": 40}, {"time": 3691, "pitch": 65, "duration": 12, "velocity": 96}, {"time": 3694, "pitch": 50, "duration": 3, "velocity": 59}, {"time": 3697, "pitch": 62, "duration": 6, "velocity": 66}, {"time": 3700, "pitch": 57, "duration": 3, "velocity": 58}, {"time": 3703, "pitch": 46, "duration": 17, "velocity": 75}, {"time": 3709, "pitch": 53, "duration": 11, "velocity": 35}, {"time": 3712, "pitch": 65, "duration": 15, "velocity": 96}, {"time": 3721, "pitch": 62, "duration": 6, "velocity": 50}, {"time": 3727, "pitch": 48, "duration": 19, "velocity": 75}, {"time": 3733, "pitch": 55, "duration": 12, "velocity": 43}, {"time": 3736, "pitch": 67, "duration": 18, "velocity": 95}, {"time": 3745, "pitch": 64, "duration": 9, "velocity": 64}, {"time": 3752, "pitch": 38, "duration": 67, "velocity": 86}, {"time": 3758, "pitch": 45, "duration": 60, "velocity": 53}, {"time": 3765, "pitch": 50, "duration": 53, "velocity": 85}, {"time": 3771, "pitch": 57, "duration": 8, "velocity": 79}, {"time": 3778, "pitch": 62, "duration": 7, "velocity": 76}, {"time": 3785, "pitch": 64, "duration": 8, "velocity": 78}, {"time": 3792, "pitch": 65, "duration": 26, "velocity": 39}], "annotations": [{"time": 55, "annotation": {"number": 64, "value": 127}, "group": "control_change"}, {"time": 76, "annotation": {"number": 64, "value": 0}, "group": "control_change"}, {"time": 81, "annotation": {"number": 64, "value": 127}, "group": "control_change"}, {"time": 99, "annotation": {"number": 64, "value": 0}, "group": "control_change"}, {"time": 104, "annotation": {"number": 64, "value": 127}, "group": "control_change"}, {"time": 124, "annotation": {"number": 64, "value": 0}, "group": "control_change"}, {"time": 128, "annotation": {"number": 64, "value": 127}, "group": "control_change"}, {"time": 148, "annotation": {"number": 64, "value": 0}, "group": "control_change"}, {"time": 153, "annotation": {"number": 64, "value": 127}, "group": "control_change"}, {"time": 173, "annotation": {"number": 64, "value": 0}, "group": "control_change"}, {"time": 176, "annotation": {"number": 64, "value": 127}, "group": "control_change"}, {"time": 195, "annotation": {"number": 64, "value": 0}, "group": "control_change"}, {"time": 200, "annotation": {"number": 64, "value": 127}, "group": "control_change"}, {"time": 220, "annotation": {"number": 64, "value": 0}, "group": "control_change"}, {"time": 224, "annotation": {"number": 64, "value": 127}, "group": "control_change"}, {"time": 244, "annotation": {"number": 64, "value": 0}, "group": "control_change"}, {"time": 249, "annotation": {"number": 64, "value": 127}, "group": "control_change"}, {"time": 268, "annotation": {"number": 64, "value": 0}, "group": "control_change"}, {"time": 273, "annotation": {"number": 64, "value": 127}, "group": "control_change"}, {"time": 293, "annotation": {"number": 64, "value": 0}, "group": "control_change"}, {"time": 297, "annotation": {"number": 64, "value": 127}, "group": "control_change"}, {"time": 317, "annotation": {"number": 64, "value": 0}, "group": "control_change"}, {"time": 321, "annotation": {"number": 64, "value": 127}, "group": "control_change"}, {"time": 340, "annotation": {"number": 64, "value": 0}, "group": "control_change"}, {"time": 344, "annotation": {"number": 64, "value": 127}, "group": "control_change"}, {"time": 364, "annotation": {"number": 64, "value": 0}, "group": "control_change"}, {"time": 368, "annotation": {"number": 64, "value": 127}, "group": "control_change"}, {"time": 389, "annotation": {"number": 64, "value": 0}, "group": "control_change"}, {"time": 392, "annotation": {"number": 64, "value": 127}, "group": "control_change"}, {"time": 414, "annotation": {"number": 64, "value": 0}, "group": "control_change"}, {"time": 441, "annotation": {"number": 64, "value": 127}, "group": "control_change"}, {"time": 460, "annotation": {"number": 64, "value": 0}, "group": "control_change"}, {"time": 464, "annotation": {"number": 64, "value": 127}, "group": "control_change"}, {"time": 485, "annotation": {"number": 64, "value": 0}, "group": "control_change"}, {"time": 488, "annotation": {"number": 64, "value": 127}, "group": "control_change"}, {"time": 508, "annotation": {"number": 64, "value": 0}, "group": "control_change"}, {"time": 512, "annotation": {"number": 64, "value": 127}, "group": "control_change"}, {"time": 532, "annotation": {"number": 64, "value": 0}, "group": "control_change"}, {"time": 537, "annotation": {"number": 64, "value": 127}, "group": "control_change"}, {"time": 557, "annotation": {"number": 64, "value": 0}, "group": "control_change"}, {"time": 560, "annotation": {"number": 64, "value": 127}, "group": "control_change"}, {"time": 580, "annotation": {"number": 64, "value": 0}, "group": "control_change"}, {"time": 584, "annotation": {"number": 64, "value": 127}, "group": "control_change"}, {"time": 605, "annotation": {"number": 64, "value": 0}, "group": "control_change"}, {"time": 608, "annotation": {"number": 64, "value": 127}, "group": "control_change"}, {"time": 628, "annotation": {"number": 64, "value": 0}, "group": "control_change"}, {"time": 632, "annotation": {"number": 64, "value": 127}, "group": "control_change"}, {"time": 653, "annotation": {"number": 64, "value": 0}, "group": "control_change"}, {"time": 656, "annotation": {"number": 64, "value": 127}, "group": "control_change"}, {"time": 676, "annotation": {"number": 64, "value": 0}, "group": "control_change"}, {"time": 680, "annotation": {"number": 64, "value": 127}, "group": "control_change"}, {"time": 700, "annotation": {"number": 64, "value": 0}, "group": "control_change"}, {"time": 705, "annotation": {"number": 64, "value": 127}, "group": "control_change"}, {"time": 724, "annotation": {"number": 64, "value": 0}, "group": "control_change"}, {"time": 729, "annotation": {"number": 64, "value": 127}, "group": "control_change"}, {"time": 749, "annotation": {"number": 64, "value": 0}, "group": "control_change"}, {"time": 753, "annotation": {"number": 64, "value": 127}, "group": "control_change"}, {"time": 772, "annotation": {"number": 64, "value": 0}, "group": "control_change"}, {"time": 776, "annotation": {"number": 64, "value": 127}, "group": "control_change"}, {"time": 797, "annotation": {"number": 64, "value": 0}, "group": "control_change"}, {"time": 800, "annotation": {"number": 64, "value": 127}, "group": "control_change"}, {"time": 820, "annotation": {"number": 64, "value": 0}, "group": "control_change"}, {"time": 825, "annotation": {"number": 64, "value": 127}, "group": "control_change"}, {"time": 844, "annotation": {"number": 64, "value": 0}, "group": "control_change"}, {"time": 848, "annotation": {"number": 64, "value": 127}, "group": "control_change"}, {"time": 869, "annotation": {"number": 64, "value": 0}, "group": "control_change"}, {"time": 872, "annotation": {"number": 64, "value": 127}, "group": "control_change"}, {"time": 892, "annotation": {"number": 64, "value": 0}, "group": "control_change"}, {"time": 896, "annotation": {"number": 64, "value": 127}, "group": "control_change"}, {"time": 916, "annotation": {"number": 64, "value": 0}, "group": "control_change"}, {"time": 921, "annotation": {"number": 64, "value": 127}, "group": "control_change"}, {"time": 941, "annotation": {"number": 64, "value": 0}, "group": "control_change"}, {"time": 944, "annotation": {"number": 64, "value": 127}, "group": "control_change"}, {"time": 964, "annotation": {"number": 64, "value": 0}, "group": "control_change"}, {"time": 968, "annotation": {"number": 64, "value": 127}, "group": "control_change"}, {"time": 989, "annotation": {"number": 64, "value": 0}, "group": "control_change"}, {"time": 992, "annotation": {"number": 64, "value": 127}, "group": "control_change"}, {"time": 1012, "annotation": {"number": 64, "value": 0}, "group": "control_change"}, {"time": 1016, "annotation": {"number": 64, "value": 127}, "group": "control_change"}, {"time": 1037, "annotation": {"number": 64, "value": 0}, "group": "control_change"}, {"time": 1040, "annotation": {"number": 64, "value": 127}, "group": "control_change"}, {"time": 1060, "annotation": {"number": 64, "value": 0}, "group": "control_change"}, {"time": 1064, "annotation": {"number": 64, "value": 127}, "group": "control_change"}, {"time": 1084, "annotation": {"number": 64, "value": 0}, "group": "control_change"}, {"time": 1089, "annotation": {"number": 64, "value": 127}, "group": "control_change"}, {"time": 1108, "annotation": {"number": 64, "value": 0}, "group": "control_change"}, {"time": 1113, "annotation": {"number": 64, "value": 127}, "group": "control_change"}, {"time": 1133, "annotation": {"number": 64, "value": 0}, "group": "control_change"}, {"time": 1137, "annotation": {"number": 64, "value": 127}, "group": "control_change"}, {"time": 1156, "annotation": {"number": 64, "value": 0}, "group": "control_change"}, {"time": 1160, "annotation": {"number": 64, "value": 127}, "group": "control_change"}, {"time": 1181, "annotation": {"number": 64, "value": 0}, "group": "control_change"}, {"time": 1184, "annotation": {"number": 64, "value": 127}, "group": "control_change"}, {"time": 1196, "annotation": {"number": 64, "value": 0}, "group": "control_change"}, {"time": 1208, "annotation": {"number": 64, "value": 127}, "group": "control_change"}, {"time": 1228, "annotation": {"number": 64, "value": 0}, "group": "control_change"}, {"time": 1231, "annotation": {"number": 64, "value": 127}, "group": "control_change"}, {"time": 1252, "annotation": {"number": 64, "value": 0}, "group": "control_change"}, {"time": 1256, "annotation": {"number": 64, "value": 127}, "group": "control_change"}, {"time": 1276, "annotation": {"number": 64, "value": 0}, "group": "control_change"}, {"time": 1279, "annotation": {"number": 64, "value": 127}, "group": "control_change"}, {"time": 1290, "annotation": {"number": 64, "value": 0}, "group": "control_change"}, {"time": 1304, "annotation": {"number": 64, "value": 127}, "group": "control_change"}, {"time": 1324, "annotation": {"number": 64, "value": 0}, "group": "control_change"}, {"time": 1330, "annotation": {"number": 64, "value": 127}, "group": "control_change"}, {"time": 1348, "annotation": {"number": 64, "value": 0}, "group": "control_change"}, {"time": 1352, "annotation": {"number": 64, "value": 127}, "group": "control_change"}, {"time": 1372, "annotation": {"number": 64, "value": 0}, "group": "control_change"}, {"time": 1376, "annotation": {"number": 64, "value": 127}, "group": "control_change"}, {"time": 1396, "annotation": {"number": 64, "value": 0}, "group": "control_change"}, {"time": 1400, "annotation": {"number": 64, "value": 127}, "group": "control_change"}, {"time": 1420, "annotation": {"number": 64, "value": 0}, "group": "control_change"}, {"time": 1424, "annotation": {"number": 64, "value": 127}, "group": "control_change"}, {"time": 1444, "annotation": {"number": 64, "value": 0}, "group": "control_change"}, {"time": 1448, "annotation": {"number": 64, "value": 127}, "group": "control_change"}, {"time": 1467, "annotation": {"number": 64, "value": 0}, "group": "control_change"}, {"time": 1472, "annotation": {"number": 64, "value": 127}, "group": "control_change"}, {"time": 1488, "annotation": {"number": 64, "value": 0}, "group": "control_change"}, {"time": 1496, "annotation": {"number": 64, "value": 127}, "group": "control_change"}, {"time": 1516, "annotation": {"number": 64, "value": 0}, "group": "control_change"}, {"time": 1519, "annotation": {"number": 64, "value": 127}, "group": "control_change"}, {"time": 1540, "annotation": {"number": 64, "value": 0}, "group": "control_change"}, {"time": 1544, "annotation": {"number": 64, "value": 127}, "group": "control_change"}, {"time": 1564, "annotation": {"number": 64, "value": 0}, "group": "control_change"}, {"time": 1568, "annotation": {"number": 64, "value": 127}, "group": "control_change"}, {"time": 1589, "annotation": {"number": 64, "value": 0}, "group": "control_change"}, {"time": 1592, "annotation": {"number": 64, "value": 127}, "group": "control_change"}, {"time": 1612, "annotation": {"number": 64, "value": 0}, "group": "control_change"}, {"time": 1616, "annotation": {"number": 64, "value": 127}, "group": "control_change"}, {"time": 1636, "annotation": {"number": 64, "value": 0}, "group": "control_change"}, {"time": 1640, "annotation": {"number": 64, "value": 127}, "group": "control_change"}, {"time": 1660, "annotation": {"number": 64, "value": 0}, "group": "control_change"}, {"time": 1664, "annotation": {"number": 64, "value": 127}, "group": "control_change"}, {"time": 1685, "annotation": {"number": 64, "value": 0}, "group": "control_change"}, {"time": 1688, "annotation": {"number": 64, "value": 127}, "group": "control_change"}, {"time": 1707, "annotation": {"number": 64, "value": 0}, "group": "control_change"}, {"time": 1712, "annotation": {"number": 64, "value": 127}, "group": "control_change"}, {"time": 1733, "annotation": {"number": 64, "value": 0}, "group": "control_change"}, {"time": 1736, "annotation": {"number": 64, "value": 127}, "group": "control_change"}, {"time": 1781, "annotation": {"number": 64, "value": 0}, "group": "control_change"}, {"time": 1784, "annotation": {"number": 64, "value": 127}, "group": "control_change"}, {"time": 1804, "annotation": {"number": 64, "value": 0}, "group": "control_change"}, {"time": 1808, "annotation": {"number": 64, "value": 127}, "group": "control_change"}, {"time": 1828, "annotation": {"number": 64, "value": 0}, "group": "control_change"}, {"time": 1832, "annotation": {"number": 64, "value": 127}, "group": "control_change"}, {"time": 1853, "annotation": {"number": 64, "value": 0}, "group": "control_change"}, {"time": 1855, "annotation": {"number": 64, "value": 127}, "group": "control_change"}, {"time": 1877, "annotation": {"number": 64, "value": 0}, "group": "control_change"}, {"time": 1880, "annotation": {"number": 64, "value": 127}, "group": "control_change"}, {"time": 1900, "annotation": {"number": 64, "value": 0}, "group": "control_change"}, {"time": 1904, "annotation": {"number": 64, "value": 127}, "group": "control_change"}, {"time": 1924, "annotation": {"number": 64, "value": 0}, "group": "control_change"}, {"time": 1928, "annotation": {"number": 64, "value": 127}, "group": "control_change"}, {"time": 1963, "annotation": {"number": 64, "value": 0}, "group": "control_change"}, {"time": 1977, "annotation": {"number": 64, "value": 127}, "group": "control_change"}, {"time": 1996, "annotation": {"number": 64, "value": 0}, "group": "control_change"}, {"time": 2000, "annotation": {"number": 64, "value": 127}, "group": "control_change"}, {"time": 2021, "annotation": {"number": 64, "value": 0}, "group": "control_change"}, {"time": 2024, "annotation": {"number": 64, "value": 127}, "group": "control_change"}, {"time": 2044, "annotation": {"number": 64, "value": 0}, "group": "control_change"}, {"time": 2048, "annotation": {"number": 64, "value": 127}, "group": "control_change"}, {"time": 2068, "annotation": {"number": 64, "value": 0}, "group": "control_change"}, {"time": 2073, "annotation": {"number": 64, "value": 127}, "group": "control_change"}, {"time": 2093, "annotation": {"number": 64, "value": 0}, "group": "control_change"}, {"time": 2096, "annotation": {"number": 64, "value": 127}, "group": "control_change"}, {"time": 2116, "annotation": {"number": 64, "value": 0}, "group": "control_change"}, {"time": 2120, "annotation": {"number": 64, "value": 127}, "group": "control_change"}, {"time": 2141, "annotation": {"number": 64, "value": 0}, "group": "control_change"}, {"time": 2144, "annotation": {"number": 64, "value": 127}, "group": "control_change"}, {"time": 2164, "annotation": {"number": 64, "value": 0}, "group": "control_change"}, {"time": 2168, "annotation": {"number": 64, "value": 127}, "group": "control_change"}, {"time": 2189, "annotation": {"number": 64, "value": 0}, "group": "control_change"}, {"time": 2192, "annotation": {"number": 64, "value": 127}, "group": "control_change"}, {"time": 2212, "annotation": {"number": 64, "value": 0}, "group": "control_change"}, {"time": 2216, "annotation": {"number": 64, "value": 127}, "group": "control_change"}, {"time": 2236, "annotation": {"number": 64, "value": 0}, "group": "control_change"}, {"time": 2241, "annotation": {"number": 64, "value": 127}, "group": "control_change"}, {"time": 2260, "annotation": {"number": 64, "value": 0}, "group": "control_change"}, {"time": 2265, "annotation": {"number": 64, "value": 127}, "group": "control_change"}, {"time": 2285, "annotation": {"number": 64, "value": 0}, "group": "control_change"}, {"time": 2289, "annotation": {"number": 64, "value": 127}, "group": "control_change"}, {"time": 2308, "annotation": {"number": 64, "value": 0}, "group": "control_change"}, {"time": 2312, "annotation": {"number": 64, "value": 127}, "group": "control_change"}, {"time": 2333, "annotation": {"number": 64, "value": 0}, "group": "control_change"}, {"time": 2336, "annotation": {"number": 64, "value": 127}, "group": "control_change"}, {"time": 2356, "annotation": {"number": 64, "value": 0}, "group": "control_change"}, {"time": 2361, "annotation": {"number": 64, "value": 127}, "group": "control_change"}, {"time": 2380, "annotation": {"number": 64, "value": 0}, "group": "control_change"}, {"time": 2384, "annotation": {"number": 64, "value": 127}, "group": "control_change"}, {"time": 2405, "annotation": {"number": 64, "value": 0}, "group": "control_change"}, {"time": 2408, "annotation": {"number": 64, "value": 127}, "group": "control_change"}, {"time": 2428, "annotation": {"number": 64, "value": 0}, "group": "control_change"}, {"time": 2432, "annotation": {"number": 64, "value": 127}, "group": "control_change"}, {"time": 2452, "annotation": {"number": 64, "value": 0}, "group": "control_change"}, {"time": 2457, "annotation": {"number": 64, "value": 127}, "group": "control_change"}, {"time": 2477, "annotation": {"number": 64, "value": 0}, "group": "control_change"}, {"time": 2480, "annotation": {"number": 64, "value": 127}, "group": "control_change"}, {"time": 2500, "annotation": {"number": 64, "value": 0}, "group": "control_change"}, {"time": 2504, "annotation": {"number": 64, "value": 127}, "group": "control_change"}, {"time": 2525, "annotation": {"number": 64, "value": 0}, "group": "control_change"}, {"time": 2528, "annotation": {"number": 64, "value": 127}, "group": "control_change"}, {"time": 2548, "annotation": {"number": 64, "value": 0}, "group": "control_change"}, {"time": 2552, "annotation": {"number": 64, "value": 127}, "group": "control_change"}, {"time": 2573, "annotation": {"number": 64, "value": 0}, "group": "control_change"}, {"time": 2576, "annotation": {"number": 64, "value": 127}, "group": "control_change"}, {"time": 2596, "annotation": {"number": 64, "value": 0}, "group": "control_change"}, {"time": 2600, "annotation": {"number": 64, "value": 127}, "group": "control_change"}, {"time": 2620, "annotation": {"number": 64, "value": 0}, "group": "control_change"}, {"time": 2625, "annotation": {"number": 64, "value": 127}, "group": "control_change"}, {"time": 2644, "annotation": {"number": 64, "value": 0}, "group": "control_change"}, {"time": 2649, "annotation": {"number": 64, "value": 127}, "group": "control_change"}, {"time": 2669, "annotation": {"number": 64, "value": 0}, "group": "control_change"}, {"time": 2673, "annotation": {"number": 64, "value": 127}, "group": "control_change"}, {"time": 2692, "annotation": {"number": 64, "value": 0}, "group": "control_change"}, {"time": 2696, "annotation": {"number": 64, "value": 127}, "group": "control_change"}, {"time": 2717, "annotation": {"number": 64, "value": 0}, "group": "control_change"}, {"time": 2720, "annotation": {"number": 64, "value": 127}, "group": "control_change"}, {"time": 2732, "annotation": {"number": 64, "value": 0}, "group": "control_change"}, {"time": 2744, "annotation": {"number": 64, "value": 127}, "group": "control_change"}, {"time": 2764, "annotation": {"number": 64, "value": 0}, "group": "control_change"}, {"time": 2767, "annotation": {"number": 64, "value": 127}, "group": "control_change"}, {"time": 2788, "annotation": {"number": 64, "value": 0}, "group": "control_change"}, {"time": 2792, "annotation": {"number": 64, "value": 127}, "group": "control_change"}, {"time": 2812, "annotation": {"number": 64, "value": 0}, "group": "control_change"}, {"time": 2815, "annotation": {"number": 64, "value": 127}, "group": "control_change"}, {"time": 2826, "annotation": {"number": 64, "value": 0}, "group": "control_change"}, {"time": 2840, "annotation": {"number": 64, "value": 127}, "group": "control_change"}, {"time": 2860, "annotation": {"number": 64, "value": 0}, "group": "control_change"}, {"time": 2866, "annotation": {"number": 64, "value": 127}, "group": "control_change"}, {"time": 2884, "annotation": {"number": 64, "value": 0}, "group": "control_change"}, {"time": 2888, "annotation": {"number": 64, "value": 127}, "group": "control_change"}, {"time": 2908, "annotation": {"number": 64, "value": 0}, "group": "control_change"}, {"time": 2912, "annotation": {"number": 64, "value": 127}, "group": "control_change"}, {"time": 2932, "annotation": {"number": 64, "value": 0}, "group": "control_change"}, {"time": 2936, "annotation": {"number": 64, "value": 127}, "group": "control_change"}, {"time": 2956, "annotation": {"number": 64, "value": 0}, "group": "control_change"}, {"time": 2960, "annotation": {"number": 64, "value": 127}, "group": "control_change"}, {"time": 2980, "annotation": {"number": 64, "value": 0}, "group": "control_change"}, {"time": 2984, "annotation": {"number": 64, "value": 127}, "group": "control_change"}, {"time": 3003, "annotation": {"number": 64, "value": 0}, "group": "control_change"}, {"time": 3008, "annotation": {"number": 64, "value": 127}, "group": "control_change"}, {"time": 3024, "annotation": {"number": 64, "value": 0}, "group": "control_change"}, {"time": 3032, "annotation": {"number": 64, "value": 127}, "group": "control_change"}, {"time": 3052, "annotation": {"number": 64, "value": 0}, "group": "control_change"}, {"time": 3055, "annotation": {"number": 64, "value": 127}, "group": "control_change"}, {"time": 3076, "annotation": {"number": 64, "value": 0}, "group": "control_change"}, {"time": 3080, "annotation": {"number": 64, "value": 127}, "group": "control_change"}, {"time": 3097, "annotation": {"number": 64, "value": 0}, "group": "control_change"}, {"time": 3128, "annotation": {"number": 64, "value": 127}, "group": "control_change"}, {"time": 3149, "annotation": {"number": 64, "value": 0}, "group": "control_change"}, {"time": 3152, "annotation": {"number": 64, "value": 127}, "group": "control_change"}, {"time": 3173, "annotation": {"number": 64, "value": 0}, "group": "control_change"}, {"time": 3176, "annotation": {"number": 64, "value": 127}, "group": "control_change"}, {"time": 3196, "annotation": {"number": 64, "value": 0}, "group": "control_change"}, {"time": 3202, "annotation": {"number": 64, "value": 127}, "group": "control_change"}, {"time": 3221, "annotation": {"number": 64, "value": 0}, "group": "control_change"}, {"time": 3224, "annotation": {"number": 64, "value": 127}, "group": "control_change"}, {"time": 3244, "annotation": {"number": 64, "value": 0}, "group": "control_change"}, {"time": 3248, "annotation": {"number": 64, "value": 127}, "group": "control_change"}, {"time": 3268, "annotation": {"number": 64, "value": 0}, "group": "control_change"}, {"time": 3271, "annotation": {"number": 64, "value": 127}, "group": "control_change"}, {"time": 3316, "annotation": {"number": 64, "value": 0}, "group": "control_change"}, {"time": 3320, "annotation": {"number": 64, "value": 127}, "group": "control_change"}, {"time": 3340, "annotation": {"number": 64, "value": 0}, "group": "control_change"}, {"time": 3344, "annotation": {"number": 64, "value": 127}, "group": "control_change"}, {"time": 3364, "annotation": {"number": 64, "value": 0}, "group": "control_change"}, {"time": 3368, "annotation": {"number": 64, "value": 127}, "group": "control_change"}, {"time": 3387, "annotation": {"number": 64, "value": 0}, "group": "control_change"}, {"time": 3392, "annotation": {"number": 64, "value": 127}, "group": "control_change"}, {"time": 3408, "annotation": {"number": 64, "value": 0}, "group": "control_change"}, {"time": 3416, "annotation": {"number": 64, "value": 127}, "group": "control_change"}, {"time": 3436, "annotation": {"number": 64, "value": 0}, "group": "control_change"}, {"time": 3439, "annotation": {"number": 64, "value": 127}, "group": "control_change"}, {"time": 3460, "annotation": {"number": 64, "value": 0}, "group": "control_change"}, {"time": 3464, "annotation": {"number": 64, "value": 127}, "group": "control_change"}, {"time": 3478, "annotation": {"number": 64, "value": 0}, "group": "control_change"}, {"time": 3512, "annotation": {"number": 64, "value": 127}, "group": "control_change"}, {"time": 3533, "annotation": {"number": 64, "value": 0}, "group": "control_change"}, {"time": 3537, "annotation": {"number": 64, "value": 127}, "group": "control_change"}, {"time": 3557, "annotation": {"number": 64, "value": 0}, "group": "control_change"}, {"time": 3559, "annotation": {"number": 64, "value": 127}, "group": "control_change"}, {"time": 3604, "annotation": {"number": 64, "value": 0}, "group": "control_change"}, {"time": 3609, "annotation": {"number": 64, "value": 127}, "group": "control_change"}, {"time": 3629, "annotation": {"number": 64, "value": 0}, "group": "control_change"}, {"time": 3632, "annotation": {"number": 64, "value": 127}, "group": "control_change"}, {"time": 3654, "annotation": {"number": 64, "value": 0}, "group": "control_change"}, {"time": 3656, "annotation": {"number": 64, "value": 127}, "group": "control_change"}, {"time": 3701, "annotation": {"number": 64, "value": 0}, "group": "control_change"}, {"time": 3704, "annotation": {"number": 64, "value": 127}, "group": "control_change"}, {"time": 3724, "annotation": {"number": 64, "value": 0}, "group": "control_change"}, {"time": 3729, "annotation": {"number": 64, "value": 127}, "group": "control_change"}, {"time": 3750, "annotation": {"number": 64, "value": 0}, "group": "control_change"}, {"time": 3755, "annotation": {"number": 64, "value": 127}, "group": "control_change"}, {"time": 3826, "annotation": {"number": 64, "value": 0}, "group": "control_change"}, {"time": 3827, "annotation": {"number": 64, "value": 127}, "group": "control_change"}, {"time": 3828, "annotation": {"number": 64, "value": 0}, "group": "control_change"}, {"time": 3831, "annotation": {"number": 64, "value": 127}, "group": "control_change"}, {"time": 3832, "annotation": {"number": 64, "value": 0}, "group": "control_change"}]}]}