{"metadata": {"schema_version": "0.2", "title": "None", "source_filename": "447.mid", "source_format": "midi"}, "resolution": 12, "tempos": [{"time": 0, "qpm": 90.0002250005625}], "time_signatures": [{"time": 0, "numerator": 1, "denominator": 4}], "tracks": [{"program": 0, "is_drum": false, "name": "MELODY", "notes": [{"time": 101, "pitch": 69, "duration": 4, "velocity": 127}, {"time": 107, "pitch": 72, "duration": 3, "velocity": 96}, {"time": 113, "pitch": 67, "duration": 4, "velocity": 117}, {"time": 119, "pitch": 67, "duration": 3, "velocity": 102}, {"time": 125, "pitch": 65, "duration": 16, "velocity": 122}, {"time": 149, "pitch": 69, "duration": 3, "velocity": 102}, {"time": 155, "pitch": 69, "duration": 3, "velocity": 112}, {"time": 158, "pitch": 72, "duration": 3, "velocity": 107}, {"time": 161, "pitch": 74, "duration": 3, "velocity": 127}, {"time": 167, "pitch": 74, "duration": 3, "velocity": 122}, {"time": 173, "pitch": 72, "duration": 16, "velocity": 122}, {"time": 197, "pitch": 67, "duration": 6, "velocity": 102}, {"time": 203, "pitch": 69, "duration": 5, "velocity": 112}, {"time": 209, "pitch": 72, "duration": 4, "velocity": 112}, {"time": 215, "pitch": 74, "duration": 4, "velocity": 127}, {"time": 221, "pitch": 69, "duration": 4, "velocity": 122}, {"time": 227, "pitch": 67, "duration": 4, "velocity": 97}, {"time": 233, "pitch": 69, "duration": 8, "velocity": 127}, {"time": 245, "pitch": 72, "duration": 4, "velocity": 102}, {"time": 251, "pitch": 62, "duration": 4, "velocity": 102}, {"time": 257, "pitch": 72, "duration": 3, "velocity": 117}, {"time": 263, "pitch": 69, "duration": 3, "velocity": 127}, {"time": 269, "pitch": 67, "duration": 15, "velocity": 112}, {"time": 293, "pitch": 69, "duration": 5, "velocity": 122}, {"time": 302, "pitch": 69, "duration": 2, "velocity": 117}, {"time": 305, "pitch": 69, "duration": 2, "velocity": 122}, {"time": 311, "pitch": 67, "duration": 3, "velocity": 100}, {"time": 317, "pitch": 65, "duration": 3, "velocity": 127}, {"time": 323, "pitch": 62, "duration": 3, "velocity": 92}, {"time": 329, "pitch": 60, "duration": 5, "velocity": 100}, {"time": 341, "pitch": 69, "duration": 6, "velocity": 122}, {"time": 350, "pitch": 69, "duration": 2, "velocity": 99}, {"time": 353, "pitch": 69, "duration": 2, "velocity": 90}, {"time": 359, "pitch": 67, "duration": 3, "velocity": 117}, {"time": 365, "pitch": 65, "duration": 2, "velocity": 100}, {"time": 371, "pitch": 62, "duration": 3, "velocity": 107}, {"time": 377, "pitch": 60, "duration": 4, "velocity": 112}, {"time": 389, "pitch": 60, "duration": 5, "velocity": 112}, {"time": 395, "pitch": 62, "duration": 4, "velocity": 112}, {"time": 401, "pitch": 65, "duration": 4, "velocity": 107}, {"time": 407, "pitch": 67, "duration": 4, "velocity": 97}, {"time": 413, "pitch": 69, "duration": 18, "velocity": 112}, {"time": 437, "pitch": 72, "duration": 3, "velocity": 127}, {"time": 443, "pitch": 69, "duration": 2, "velocity": 102}, {"time": 446, "pitch": 72, "duration": 2, "velocity": 107}, {"time": 449, "pitch": 74, "duration": 2, "velocity": 100}, {"time": 455, "pitch": 74, "duration": 2, "velocity": 107}, {"time": 461, "pitch": 72, "duration": 2, "velocity": 127}, {"time": 467, "pitch": 69, "duration": 3, "velocity": 102}, {"time": 473, "pitch": 67, "duration": 5, "velocity": 107}, {"time": 485, "pitch": 72, "duration": 3, "velocity": 112}, {"time": 491, "pitch": 69, "duration": 3, "velocity": 92}, {"time": 494, "pitch": 72, "duration": 3, "velocity": 90}, {"time": 497, "pitch": 74, "duration": 2, "velocity": 112}, {"time": 503, "pitch": 74, "duration": 3, "velocity": 112}, {"time": 509, "pitch": 72, "duration": 3, "velocity": 117}, {"time": 515, "pitch": 69, "duration": 3, "velocity": 100}, {"time": 521, "pitch": 67, "duration": 4, "velocity": 127}, {"time": 533, "pitch": 60, "duration": 4, "velocity": 117}, {"time": 539, "pitch": 69, "duration": 3, "velocity": 107}, {"time": 545, "pitch": 69, "duration": 4, "velocity": 112}, {"time": 551, "pitch": 67, "duration": 3, "velocity": 127}, {"time": 557, "pitch": 65, "duration": 17, "velocity": 127}, {"time": 581, "pitch": 69, "duration": 14, "velocity": 127}, {"time": 599, "pitch": 72, "duration": 4, "velocity": 127}, {"time": 605, "pitch": 67, "duration": 9, "velocity": 102}, {"time": 617, "pitch": 67, "duration": 8, "velocity": 122}, {"time": 629, "pitch": 65, "duration": 26, "velocity": 112}, {"time": 749, "pitch": 69, "duration": 4, "velocity": 127}, {"time": 755, "pitch": 72, "duration": 3, "velocity": 96}, {"time": 761, "pitch": 67, "duration": 4, "velocity": 117}, {"time": 767, "pitch": 67, "duration": 3, "velocity": 102}, {"time": 773, "pitch": 65, "duration": 16, "velocity": 122}, {"time": 797, "pitch": 69, "duration": 3, "velocity": 102}, {"time": 803, "pitch": 69, "duration": 3, "velocity": 112}, {"time": 806, "pitch": 72, "duration": 3, "velocity": 107}, {"time": 809, "pitch": 74, "duration": 3, "velocity": 127}, {"time": 815, "pitch": 74, "duration": 3, "velocity": 122}, {"time": 821, "pitch": 72, "duration": 16, "velocity": 122}, {"time": 845, "pitch": 67, "duration": 6, "velocity": 102}, {"time": 851, "pitch": 69, "duration": 5, "velocity": 112}, {"time": 857, "pitch": 72, "duration": 4, "velocity": 112}, {"time": 863, "pitch": 74, "duration": 4, "velocity": 127}, {"time": 869, "pitch": 69, "duration": 4, "velocity": 122}, {"time": 875, "pitch": 67, "duration": 4, "velocity": 97}, {"time": 881, "pitch": 69, "duration": 8, "velocity": 127}, {"time": 893, "pitch": 72, "duration": 4, "velocity": 102}, {"time": 899, "pitch": 62, "duration": 4, "velocity": 102}, {"time": 905, "pitch": 72, "duration": 3, "velocity": 117}, {"time": 911, "pitch": 69, "duration": 3, "velocity": 127}, {"time": 917, "pitch": 67, "duration": 15, "velocity": 112}, {"time": 941, "pitch": 69, "duration": 5, "velocity": 122}, {"time": 950, "pitch": 69, "duration": 2, "velocity": 117}, {"time": 953, "pitch": 69, "duration": 2, "velocity": 122}, {"time": 959, "pitch": 67, "duration": 3, "velocity": 100}, {"time": 965, "pitch": 65, "duration": 3, "velocity": 127}, {"time": 971, "pitch": 62, "duration": 3, "velocity": 92}, {"time": 977, "pitch": 60, "duration": 5, "velocity": 100}, {"time": 989, "pitch": 69, "duration": 6, "velocity": 122}, {"time": 998, "pitch": 69, "duration": 2, "velocity": 99}, {"time": 1001, "pitch": 69, "duration": 2, "velocity": 90}, {"time": 1007, "pitch": 67, "duration": 3, "velocity": 117}, {"time": 1013, "pitch": 65, "duration": 2, "velocity": 100}, {"time": 1019, "pitch": 62, "duration": 3, "velocity": 107}, {"time": 1025, "pitch": 60, "duration": 4, "velocity": 112}, {"time": 1037, "pitch": 60, "duration": 5, "velocity": 112}, {"time": 1043, "pitch": 62, "duration": 4, "velocity": 112}, {"time": 1049, "pitch": 65, "duration": 4, "velocity": 107}, {"time": 1055, "pitch": 67, "duration": 4, "velocity": 97}, {"time": 1061, "pitch": 69, "duration": 18, "velocity": 112}, {"time": 1085, "pitch": 72, "duration": 3, "velocity": 127}, {"time": 1091, "pitch": 69, "duration": 2, "velocity": 102}, {"time": 1094, "pitch": 72, "duration": 2, "velocity": 107}, {"time": 1097, "pitch": 74, "duration": 2, "velocity": 100}, {"time": 1103, "pitch": 74, "duration": 2, "velocity": 107}, {"time": 1109, "pitch": 72, "duration": 2, "velocity": 127}, {"time": 1115, "pitch": 69, "duration": 3, "velocity": 102}, {"time": 1121, "pitch": 67, "duration": 5, "velocity": 107}, {"time": 1133, "pitch": 72, "duration": 3, "velocity": 112}, {"time": 1139, "pitch": 69, "duration": 3, "velocity": 92}, {"time": 1142, "pitch": 72, "duration": 3, "velocity": 90}, {"time": 1145, "pitch": 74, "duration": 2, "velocity": 112}, {"time": 1151, "pitch": 74, "duration": 3, "velocity": 112}, {"time": 1157, "pitch": 72, "duration": 3, "velocity": 117}, {"time": 1163, "pitch": 69, "duration": 3, "velocity": 100}, {"time": 1169, "pitch": 67, "duration": 4, "velocity": 127}, {"time": 1181, "pitch": 60, "duration": 4, "velocity": 117}, {"time": 1187, "pitch": 69, "duration": 3, "velocity": 107}, {"time": 1193, "pitch": 69, "duration": 4, "velocity": 112}, {"time": 1199, "pitch": 67, "duration": 3, "velocity": 127}, {"time": 1205, "pitch": 65, "duration": 17, "velocity": 127}, {"time": 1229, "pitch": 69, "duration": 14, "velocity": 127}, {"time": 1247, "pitch": 72, "duration": 4, "velocity": 127}, {"time": 1253, "pitch": 67, "duration": 9, "velocity": 102}, {"time": 1265, "pitch": 67, "duration": 8, "velocity": 122}, {"time": 1277, "pitch": 65, "duration": 26, "velocity": 112}]}, {"program": 0, "is_drum": false, "name": "BRIDGE", "notes": [{"time": 5, "pitch": 60, "duration": 4, "velocity": 122}, {"time": 8, "pitch": 72, "duration": 2, "velocity": 122}, {"time": 11, "pitch": 72, "duration": 2, "velocity": 93}, {"time": 14, "pitch": 72, "duration": 2, "velocity": 112}, {"time": 17, "pitch": 74, "duration": 5, "velocity": 117}, {"time": 23, "pitch": 72, "duration": 3, "velocity": 122}, {"time": 29, "pitch": 69, "duration": 3, "velocity": 117}, {"time": 35, "pitch": 69, "duration": 2, "velocity": 122}, {"time": 38, "pitch": 69, "duration": 2, "velocity": 93}, {"time": 41, "pitch": 69, "duration": 6, "velocity": 117}, {"time": 53, "pitch": 60, "duration": 5, "velocity": 107}, {"time": 59, "pitch": 69, "duration": 2, "velocity": 102}, {"time": 62, "pitch": 69, "duration": 2, "velocity": 88}, {"time": 65, "pitch": 69, "duration": 3, "velocity": 97}, {"time": 71, "pitch": 67, "duration": 4, "velocity": 112}, {"time": 77, "pitch": 65, "duration": 8, "velocity": 102}, {"time": 86, "pitch": 84, "duration": 3, "velocity": 64}, {"time": 87, "pitch": 86, "duration": 3, "velocity": 88}, {"time": 89, "pitch": 89, "duration": 4, "velocity": 100}, {"time": 179, "pitch": 67, "duration": 1, "velocity": 102}, {"time": 182, "pitch": 67, "duration": 2, "velocity": 86}, {"time": 185, "pitch": 72, "duration": 5, "velocity": 117}, {"time": 275, "pitch": 67, "duration": 1, "velocity": 82}, {"time": 275, "pitch": 70, "duration": 1, "velocity": 107}, {"time": 275, "pitch": 74, "duration": 1, "velocity": 76}, {"time": 278, "pitch": 67, "duration": 2, "velocity": 69}, {"time": 278, "pitch": 70, "duration": 1, "velocity": 95}, {"time": 278, "pitch": 74, "duration": 1, "velocity": 69}, {"time": 281, "pitch": 67, "duration": 2, "velocity": 86}, {"time": 281, "pitch": 70, "duration": 2, "velocity": 96}, {"time": 281, "pitch": 74, "duration": 2, "velocity": 82}, {"time": 419, "pitch": 65, "duration": 1, "velocity": 76}, {"time": 419, "pitch": 69, "duration": 1, "velocity": 89}, {"time": 419, "pitch": 72, "duration": 2, "velocity": 79}, {"time": 422, "pitch": 69, "duration": 1, "velocity": 56}, {"time": 422, "pitch": 72, "duration": 2, "velocity": 63}, {"time": 425, "pitch": 65, "duration": 2, "velocity": 71}, {"time": 425, "pitch": 69, "duration": 2, "velocity": 79}, {"time": 425, "pitch": 72, "duration": 2, "velocity": 79}, {"time": 431, "pitch": 65, "duration": 2, "velocity": 74}, {"time": 431, "pitch": 69, "duration": 2, "velocity": 82}, {"time": 431, "pitch": 72, "duration": 2, "velocity": 74}, {"time": 587, "pitch": 65, "duration": 2, "velocity": 68}, {"time": 587, "pitch": 69, "duration": 2, "velocity": 73}, {"time": 587, "pitch": 72, "duration": 2, "velocity": 61}, {"time": 593, "pitch": 65, "duration": 2, "velocity": 71}, {"time": 593, "pitch": 69, "duration": 2, "velocity": 73}, {"time": 593, "pitch": 72, "duration": 2, "velocity": 67}, {"time": 599, "pitch": 65, "duration": 2, "velocity": 78}, {"time": 599, "pitch": 69, "duration": 2, "velocity": 85}, {"time": 599, "pitch": 72, "duration": 2, "velocity": 73}, {"time": 605, "pitch": 64, "duration": 3, "velocity": 93}, {"time": 605, "pitch": 67, "duration": 3, "velocity": 96}, {"time": 617, "pitch": 64, "duration": 3, "velocity": 93}, {"time": 617, "pitch": 67, "duration": 3, "velocity": 88}, {"time": 653, "pitch": 60, "duration": 4, "velocity": 122}, {"time": 656, "pitch": 72, "duration": 2, "velocity": 122}, {"time": 659, "pitch": 72, "duration": 2, "velocity": 93}, {"time": 662, "pitch": 72, "duration": 2, "velocity": 112}, {"time": 665, "pitch": 74, "duration": 5, "velocity": 117}, {"time": 671, "pitch": 72, "duration": 3, "velocity": 122}, {"time": 677, "pitch": 69, "duration": 3, "velocity": 117}, {"time": 683, "pitch": 69, "duration": 2, "velocity": 122}, {"time": 686, "pitch": 69, "duration": 2, "velocity": 93}, {"time": 689, "pitch": 69, "duration": 6, "velocity": 117}, {"time": 701, "pitch": 60, "duration": 5, "velocity": 107}, {"time": 707, "pitch": 69, "duration": 2, "velocity": 102}, {"time": 710, "pitch": 69, "duration": 2, "velocity": 88}, {"time": 713, "pitch": 69, "duration": 3, "velocity": 97}, {"time": 719, "pitch": 67, "duration": 4, "velocity": 112}, {"time": 725, "pitch": 65, "duration": 8, "velocity": 102}, {"time": 734, "pitch": 84, "duration": 3, "velocity": 64}, {"time": 735, "pitch": 86, "duration": 3, "velocity": 88}, {"time": 737, "pitch": 89, "duration": 4, "velocity": 100}, {"time": 827, "pitch": 67, "duration": 1, "velocity": 102}, {"time": 830, "pitch": 67, "duration": 2, "velocity": 86}, {"time": 833, "pitch": 72, "duration": 5, "velocity": 117}, {"time": 923, "pitch": 67, "duration": 1, "velocity": 82}, {"time": 923, "pitch": 70, "duration": 1, "velocity": 107}, {"time": 923, "pitch": 74, "duration": 1, "velocity": 76}, {"time": 926, "pitch": 67, "duration": 2, "velocity": 69}, {"time": 926, "pitch": 70, "duration": 1, "velocity": 95}, {"time": 926, "pitch": 74, "duration": 1, "velocity": 69}, {"time": 929, "pitch": 67, "duration": 2, "velocity": 86}, {"time": 929, "pitch": 70, "duration": 2, "velocity": 96}, {"time": 929, "pitch": 74, "duration": 2, "velocity": 82}, {"time": 1067, "pitch": 65, "duration": 1, "velocity": 76}, {"time": 1067, "pitch": 69, "duration": 1, "velocity": 89}, {"time": 1067, "pitch": 72, "duration": 2, "velocity": 79}, {"time": 1070, "pitch": 69, "duration": 1, "velocity": 56}, {"time": 1070, "pitch": 72, "duration": 2, "velocity": 63}, {"time": 1073, "pitch": 65, "duration": 2, "velocity": 71}, {"time": 1073, "pitch": 69, "duration": 2, "velocity": 79}, {"time": 1073, "pitch": 72, "duration": 2, "velocity": 79}, {"time": 1079, "pitch": 65, "duration": 2, "velocity": 74}, {"time": 1079, "pitch": 69, "duration": 2, "velocity": 82}, {"time": 1079, "pitch": 72, "duration": 2, "velocity": 74}, {"time": 1235, "pitch": 65, "duration": 2, "velocity": 68}, {"time": 1235, "pitch": 69, "duration": 2, "velocity": 73}, {"time": 1235, "pitch": 72, "duration": 2, "velocity": 61}, {"time": 1241, "pitch": 65, "duration": 2, "velocity": 71}, {"time": 1241, "pitch": 69, "duration": 2, "velocity": 73}, {"time": 1241, "pitch": 72, "duration": 2, "velocity": 67}, {"time": 1247, "pitch": 65, "duration": 2, "velocity": 78}, {"time": 1247, "pitch": 69, "duration": 2, "velocity": 85}, {"time": 1247, "pitch": 72, "duration": 2, "velocity": 73}, {"time": 1253, "pitch": 64, "duration": 3, "velocity": 93}, {"time": 1253, "pitch": 67, "duration": 3, "velocity": 96}, {"time": 1265, "pitch": 64, "duration": 3, "velocity": 93}, {"time": 1265, "pitch": 67, "duration": 3, "velocity": 88}, {"time": 1295, "pitch": 72, "duration": 2, "velocity": 93}, {"time": 1295, "pitch": 76, "duration": 2, "velocity": 93}, {"time": 1295, "pitch": 79, "duration": 3, "velocity": 88}, {"time": 1301, "pitch": 72, "duration": 3, "velocity": 99}, {"time": 1301, "pitch": 77, "duration": 4, "velocity": 112}, {"time": 1301, "pitch": 81, "duration": 4, "velocity": 112}]}, {"program": 0, "is_drum": false, "name": "PIANO", "notes": [{"time": 5, "pitch": 41, "duration": 8, "velocity": 90}, {"time": 11, "pitch": 60, "duration": 2, "velocity": 89}, {"time": 11, "pitch": 65, "duration": 2, "velocity": 88}, {"time": 11, "pitch": 69, "duration": 2, "velocity": 79}, {"time": 17, "pitch": 36, "duration": 7, "velocity": 90}, {"time": 23, "pitch": 60, "duration": 2, "velocity": 86}, {"time": 23, "pitch": 65, "duration": 2, "velocity": 90}, {"time": 23, "pitch": 69, "duration": 2, "velocity": 81}, {"time": 29, "pitch": 41, "duration": 7, "velocity": 90}, {"time": 35, "pitch": 60, "duration": 2, "velocity": 89}, {"time": 35, "pitch": 65, "duration": 2, "velocity": 89}, {"time": 35, "pitch": 69, "duration": 2, "velocity": 81}, {"time": 41, "pitch": 36, "duration": 8, "velocity": 89}, {"time": 47, "pitch": 60, "duration": 2, "velocity": 88}, {"time": 47, "pitch": 65, "duration": 2, "velocity": 90}, {"time": 47, "pitch": 69, "duration": 2, "velocity": 79}, {"time": 53, "pitch": 43, "duration": 8, "velocity": 92}, {"time": 59, "pitch": 62, "duration": 2, "velocity": 88}, {"time": 59, "pitch": 67, "duration": 2, "velocity": 96}, {"time": 59, "pitch": 70, "duration": 2, "velocity": 92}, {"time": 65, "pitch": 36, "duration": 8, "velocity": 90}, {"time": 71, "pitch": 60, "duration": 2, "velocity": 78}, {"time": 71, "pitch": 64, "duration": 2, "velocity": 90}, {"time": 71, "pitch": 67, "duration": 2, "velocity": 85}, {"time": 77, "pitch": 41, "duration": 2, "velocity": 99}, {"time": 77, "pitch": 65, "duration": 2, "velocity": 102}, {"time": 77, "pitch": 69, "duration": 2, "velocity": 95}, {"time": 83, "pitch": 36, "duration": 3, "velocity": 88}, {"time": 83, "pitch": 60, "duration": 2, "velocity": 81}, {"time": 83, "pitch": 64, "duration": 2, "velocity": 76}, {"time": 83, "pitch": 67, "duration": 2, "velocity": 74}, {"time": 89, "pitch": 41, "duration": 4, "velocity": 90}, {"time": 89, "pitch": 60, "duration": 3, "velocity": 86}, {"time": 89, "pitch": 65, "duration": 4, "velocity": 100}, {"time": 89, "pitch": 69, "duration": 3, "velocity": 93}, {"time": 101, "pitch": 41, "duration": 9, "velocity": 93}, {"time": 107, "pitch": 60, "duration": 2, "velocity": 79}, {"time": 107, "pitch": 65, "duration": 2, "velocity": 83}, {"time": 107, "pitch": 69, "duration": 2, "velocity": 78}, {"time": 113, "pitch": 36, "duration": 8, "velocity": 93}, {"time": 119, "pitch": 60, "duration": 2, "velocity": 77}, {"time": 119, "pitch": 65, "duration": 2, "velocity": 78}, {"time": 119, "pitch": 69, "duration": 2, "velocity": 71}, {"time": 125, "pitch": 41, "duration": 3, "velocity": 92}, {"time": 125, "pitch": 60, "duration": 2, "velocity": 81}, {"time": 125, "pitch": 65, "duration": 2, "velocity": 93}, {"time": 125, "pitch": 69, "duration": 2, "velocity": 89}, {"time": 131, "pitch": 36, "duration": 4, "velocity": 90}, {"time": 131, "pitch": 60, "duration": 2, "velocity": 88}, {"time": 131, "pitch": 64, "duration": 2, "velocity": 89}, {"time": 131, "pitch": 67, "duration": 3, "velocity": 86}, {"time": 137, "pitch": 41, "duration": 4, "velocity": 107}, {"time": 137, "pitch": 60, "duration": 3, "velocity": 93}, {"time": 137, "pitch": 65, "duration": 3, "velocity": 99}, {"time": 137, "pitch": 69, "duration": 3, "velocity": 95}, {"time": 149, "pitch": 41, "duration": 5, "velocity": 89}, {"time": 155, "pitch": 60, "duration": 2, "velocity": 90}, {"time": 155, "pitch": 65, "duration": 2, "velocity": 88}, {"time": 155, "pitch": 69, "duration": 2, "velocity": 74}, {"time": 161, "pitch": 46, "duration": 8, "velocity": 69}, {"time": 167, "pitch": 58, "duration": 2, "velocity": 100}, {"time": 167, "pitch": 62, "duration": 2, "velocity": 92}, {"time": 167, "pitch": 65, "duration": 2, "velocity": 85}, {"time": 173, "pitch": 48, "duration": 2, "velocity": 81}, {"time": 173, "pitch": 55, "duration": 2, "velocity": 74}, {"time": 173, "pitch": 60, "duration": 2, "velocity": 88}, {"time": 173, "pitch": 64, "duration": 2, "velocity": 79}, {"time": 179, "pitch": 43, "duration": 3, "velocity": 88}, {"time": 179, "pitch": 55, "duration": 3, "velocity": 90}, {"time": 185, "pitch": 48, "duration": 5, "velocity": 95}, {"time": 185, "pitch": 55, "duration": 5, "velocity": 86}, {"time": 185, "pitch": 60, "duration": 5, "velocity": 95}, {"time": 185, "pitch": 64, "duration": 5, "velocity": 86}, {"time": 197, "pitch": 48, "duration": 7, "velocity": 93}, {"time": 203, "pitch": 55, "duration": 2, "velocity": 83}, {"time": 203, "pitch": 60, "duration": 2, "velocity": 93}, {"time": 203, "pitch": 64, "duration": 2, "velocity": 82}, {"time": 209, "pitch": 48, "duration": 7, "velocity": 86}, {"time": 215, "pitch": 55, "duration": 2, "velocity": 82}, {"time": 215, "pitch": 60, "duration": 2, "velocity": 89}, {"time": 215, "pitch": 64, "duration": 2, "velocity": 85}, {"time": 221, "pitch": 41, "duration": 8, "velocity": 76}, {"time": 227, "pitch": 60, "duration": 2, "velocity": 89}, {"time": 227, "pitch": 65, "duration": 2, "velocity": 95}, {"time": 227, "pitch": 69, "duration": 2, "velocity": 88}, {"time": 233, "pitch": 41, "duration": 7, "velocity": 93}, {"time": 239, "pitch": 60, "duration": 2, "velocity": 88}, {"time": 239, "pitch": 65, "duration": 2, "velocity": 93}, {"time": 239, "pitch": 69, "duration": 2, "velocity": 85}, {"time": 245, "pitch": 50, "duration": 6, "velocity": 95}, {"time": 251, "pitch": 57, "duration": 2, "velocity": 83}, {"time": 251, "pitch": 62, "duration": 2, "velocity": 96}, {"time": 251, "pitch": 65, "duration": 2, "velocity": 86}, {"time": 257, "pitch": 41, "duration": 8, "velocity": 88}, {"time": 263, "pitch": 60, "duration": 2, "velocity": 92}, {"time": 263, "pitch": 65, "duration": 2, "velocity": 100}, {"time": 263, "pitch": 69, "duration": 2, "velocity": 90}, {"time": 269, "pitch": 43, "duration": 2, "velocity": 99}, {"time": 269, "pitch": 67, "duration": 2, "velocity": 93}, {"time": 269, "pitch": 62, "duration": 3, "velocity": 79}, {"time": 269, "pitch": 43, "duration": 2, "velocity": 107}, {"time": 269, "pitch": 67, "duration": 2, "velocity": 92}, {"time": 269, "pitch": 70, "duration": 1, "velocity": 102}, {"time": 269, "pitch": 70, "duration": 1, "velocity": 42}, {"time": 275, "pitch": 38, "duration": 3, "velocity": 86}, {"time": 275, "pitch": 65, "duration": 2, "velocity": 82}, {"time": 275, "pitch": 62, "duration": 2, "velocity": 79}, {"time": 275, "pitch": 69, "duration": 3, "velocity": 85}, {"time": 275, "pitch": 38, "duration": 3, "velocity": 93}, {"time": 275, "pitch": 62, "duration": 2, "velocity": 100}, {"time": 281, "pitch": 43, "duration": 4, "velocity": 117}, {"time": 281, "pitch": 62, "duration": 4, "velocity": 96}, {"time": 281, "pitch": 67, "duration": 4, "velocity": 97}, {"time": 281, "pitch": 70, "duration": 4, "velocity": 117}, {"time": 281, "pitch": 62, "duration": 4, "velocity": 89}, {"time": 281, "pitch": 70, "duration": 4, "velocity": 107}, {"time": 282, "pitch": 67, "duration": 3, "velocity": 99}, {"time": 282, "pitch": 43, "duration": 3, "velocity": 112}, {"time": 293, "pitch": 41, "duration": 7, "velocity": 96}, {"time": 299, "pitch": 60, "duration": 2, "velocity": 85}, {"time": 299, "pitch": 65, "duration": 2, "velocity": 77}, {"time": 299, "pitch": 69, "duration": 2, "velocity": 66}, {"time": 305, "pitch": 41, "duration": 8, "velocity": 92}, {"time": 311, "pitch": 60, "duration": 2, "velocity": 72}, {"time": 311, "pitch": 65, "duration": 2, "velocity": 73}, {"time": 311, "pitch": 69, "duration": 2, "velocity": 66}, {"time": 317, "pitch": 43, "duration": 3, "velocity": 100}, {"time": 317, "pitch": 67, "duration": 3, "velocity": 117}, {"time": 317, "pitch": 71, "duration": 2, "velocity": 93}, {"time": 323, "pitch": 43, "duration": 2, "velocity": 107}, {"time": 323, "pitch": 62, "duration": 3, "velocity": 82}, {"time": 323, "pitch": 67, "duration": 2, "velocity": 85}, {"time": 323, "pitch": 71, "duration": 2, "velocity": 76}, {"time": 329, "pitch": 36, "duration": 4, "velocity": 95}, {"time": 329, "pitch": 60, "duration": 4, "velocity": 90}, {"time": 329, "pitch": 64, "duration": 4, "velocity": 93}, {"time": 329, "pitch": 67, "duration": 4, "velocity": 88}, {"time": 341, "pitch": 41, "duration": 7, "velocity": 93}, {"time": 347, "pitch": 60, "duration": 2, "velocity": 93}, {"time": 347, "pitch": 65, "duration": 2, "velocity": 93}, {"time": 347, "pitch": 69, "duration": 2, "velocity": 88}, {"time": 353, "pitch": 41, "duration": 7, "velocity": 99}, {"time": 359, "pitch": 60, "duration": 2, "velocity": 85}, {"time": 359, "pitch": 65, "duration": 2, "velocity": 89}, {"time": 359, "pitch": 69, "duration": 2, "velocity": 75}, {"time": 365, "pitch": 43, "duration": 2, "velocity": 99}, {"time": 365, "pitch": 62, "duration": 2, "velocity": 96}, {"time": 365, "pitch": 67, "duration": 2, "velocity": 96}, {"time": 365, "pitch": 71, "duration": 2, "velocity": 96}, {"time": 371, "pitch": 43, "duration": 2, "velocity": 107}, {"time": 371, "pitch": 62, "duration": 2, "velocity": 92}, {"time": 371, "pitch": 67, "duration": 3, "velocity": 97}, {"time": 377, "pitch": 36, "duration": 4, "velocity": 95}, {"time": 377, "pitch": 60, "duration": 3, "velocity": 92}, {"time": 377, "pitch": 64, "duration": 3, "velocity": 93}, {"time": 377, "pitch": 67, "duration": 3, "velocity": 92}, {"time": 389, "pitch": 41, "duration": 8, "velocity": 102}, {"time": 395, "pitch": 60, "duration": 2, "velocity": 93}, {"time": 395, "pitch": 65, "duration": 2, "velocity": 92}, {"time": 395, "pitch": 69, "duration": 2, "velocity": 85}, {"time": 401, "pitch": 36, "duration": 8, "velocity": 97}, {"time": 407, "pitch": 60, "duration": 2, "velocity": 88}, {"time": 407, "pitch": 65, "duration": 2, "velocity": 90}, {"time": 407, "pitch": 69, "duration": 2, "velocity": 83}, {"time": 413, "pitch": 41, "duration": 8, "velocity": 96}, {"time": 419, "pitch": 60, "duration": 2, "velocity": 93}, {"time": 419, "pitch": 65, "duration": 2, "velocity": 95}, {"time": 419, "pitch": 69, "duration": 2, "velocity": 92}, {"time": 425, "pitch": 36, "duration": 8, "velocity": 88}, {"time": 431, "pitch": 60, "duration": 2, "velocity": 93}, {"time": 431, "pitch": 65, "duration": 2, "velocity": 92}, {"time": 431, "pitch": 69, "duration": 2, "velocity": 85}, {"time": 437, "pitch": 41, "duration": 8, "velocity": 99}, {"time": 443, "pitch": 65, "duration": 2, "velocity": 93}, {"time": 443, "pitch": 69, "duration": 2, "velocity": 81}, {"time": 449, "pitch": 38, "duration": 4, "velocity": 89}, {"time": 455, "pitch": 57, "duration": 3, "velocity": 83}, {"time": 455, "pitch": 62, "duration": 2, "velocity": 86}, {"time": 455, "pitch": 65, "duration": 3, "velocity": 82}, {"time": 461, "pitch": 38, "duration": 3, "velocity": 93}, {"time": 461, "pitch": 62, "duration": 3, "velocity": 112}, {"time": 467, "pitch": 41, "duration": 3, "velocity": 92}, {"time": 467, "pitch": 65, "duration": 3, "velocity": 107}, {"time": 473, "pitch": 43, "duration": 3, "velocity": 122}, {"time": 473, "pitch": 67, "duration": 4, "velocity": 112}, {"time": 479, "pitch": 62, "duration": 3, "velocity": 99}, {"time": 479, "pitch": 67, "duration": 3, "velocity": 96}, {"time": 479, "pitch": 70, "duration": 3, "velocity": 95}, {"time": 485, "pitch": 41, "duration": 7, "velocity": 99}, {"time": 491, "pitch": 60, "duration": 2, "velocity": 93}, {"time": 491, "pitch": 65, "duration": 2, "velocity": 96}, {"time": 491, "pitch": 69, "duration": 2, "velocity": 88}, {"time": 497, "pitch": 38, "duration": 6, "velocity": 93}, {"time": 503, "pitch": 62, "duration": 2, "velocity": 82}, {"time": 503, "pitch": 65, "duration": 2, "velocity": 95}, {"time": 503, "pitch": 69, "duration": 2, "velocity": 92}, {"time": 509, "pitch": 38, "duration": 4, "velocity": 99}, {"time": 509, "pitch": 62, "duration": 3, "velocity": 97}, {"time": 509, "pitch": 65, "duration": 3, "velocity": 96}, {"time": 515, "pitch": 41, "duration": 3, "velocity": 97}, {"time": 515, "pitch": 65, "duration": 2, "velocity": 97}, {"time": 515, "pitch": 69, "duration": 3, "velocity": 93}, {"time": 521, "pitch": 43, "duration": 3, "velocity": 112}, {"time": 521, "pitch": 62, "duration": 2, "velocity": 83}, {"time": 521, "pitch": 67, "duration": 2, "velocity": 93}, {"time": 521, "pitch": 70, "duration": 2, "velocity": 112}, {"time": 527, "pitch": 62, "duration": 2, "velocity": 90}, {"time": 527, "pitch": 67, "duration": 2, "velocity": 99}, {"time": 527, "pitch": 70, "duration": 2, "velocity": 102}, {"time": 533, "pitch": 43, "duration": 8, "velocity": 99}, {"time": 539, "pitch": 62, "duration": 2, "velocity": 89}, {"time": 539, "pitch": 67, "duration": 2, "velocity": 96}, {"time": 539, "pitch": 70, "duration": 1, "velocity": 95}, {"time": 545, "pitch": 36, "duration": 7, "velocity": 102}, {"time": 551, "pitch": 60, "duration": 2, "velocity": 86}, {"time": 551, "pitch": 64, "duration": 2, "velocity": 93}, {"time": 551, "pitch": 67, "duration": 2, "velocity": 86}, {"time": 557, "pitch": 41, "duration": 3, "velocity": 95}, {"time": 557, "pitch": 65, "duration": 2, "velocity": 107}, {"time": 557, "pitch": 69, "duration": 2, "velocity": 99}, {"time": 563, "pitch": 36, "duration": 3, "velocity": 88}, {"time": 563, "pitch": 60, "duration": 2, "velocity": 89}, {"time": 563, "pitch": 64, "duration": 2, "velocity": 90}, {"time": 563, "pitch": 67, "duration": 2, "velocity": 89}, {"time": 569, "pitch": 41, "duration": 7, "velocity": 102}, {"time": 569, "pitch": 60, "duration": 6, "velocity": 95}, {"time": 569, "pitch": 65, "duration": 7, "velocity": 107}, {"time": 569, "pitch": 69, "duration": 6, "velocity": 102}, {"time": 581, "pitch": 36, "duration": 4, "velocity": 96}, {"time": 587, "pitch": 60, "duration": 2, "velocity": 72}, {"time": 587, "pitch": 65, "duration": 2, "velocity": 75}, {"time": 587, "pitch": 69, "duration": 2, "velocity": 76}, {"time": 593, "pitch": 60, "duration": 2, "velocity": 77}, {"time": 593, "pitch": 65, "duration": 2, "velocity": 74}, {"time": 593, "pitch": 69, "duration": 2, "velocity": 69}, {"time": 599, "pitch": 60, "duration": 2, "velocity": 81}, {"time": 599, "pitch": 65, "duration": 2, "velocity": 79}, {"time": 599, "pitch": 69, "duration": 2, "velocity": 72}, {"time": 605, "pitch": 36, "duration": 3, "velocity": 93}, {"time": 605, "pitch": 60, "duration": 3, "velocity": 92}, {"time": 605, "pitch": 64, "duration": 4, "velocity": 88}, {"time": 617, "pitch": 36, "duration": 3, "velocity": 79}, {"time": 617, "pitch": 55, "duration": 1, "velocity": 63}, {"time": 617, "pitch": 60, "duration": 3, "velocity": 96}, {"time": 617, "pitch": 64, "duration": 3, "velocity": 86}, {"time": 629, "pitch": 41, "duration": 25, "velocity": 93}, {"time": 629, "pitch": 60, "duration": 25, "velocity": 90}, {"time": 629, "pitch": 65, "duration": 25, "velocity": 90}, {"time": 629, "pitch": 69, "duration": 25, "velocity": 85}, {"time": 653, "pitch": 41, "duration": 1, "velocity": 90}, {"time": 665, "pitch": 36, "duration": 8, "velocity": 103}, {"time": 677, "pitch": 41, "duration": 9, "velocity": 103}, {"time": 689, "pitch": 36, "duration": 7, "velocity": 100}, {"time": 701, "pitch": 43, "duration": 9, "velocity": 98}, {"time": 713, "pitch": 36, "duration": 10, "velocity": 96}, {"time": 725, "pitch": 41, "duration": 3, "velocity": 94}, {"time": 731, "pitch": 36, "duration": 4, "velocity": 92}, {"time": 737, "pitch": 41, "duration": 7, "velocity": 91}, {"time": 749, "pitch": 41, "duration": 9, "velocity": 93}, {"time": 755, "pitch": 60, "duration": 2, "velocity": 79}, {"time": 755, "pitch": 65, "duration": 2, "velocity": 83}, {"time": 755, "pitch": 69, "duration": 2, "velocity": 78}, {"time": 761, "pitch": 36, "duration": 8, "velocity": 93}, {"time": 767, "pitch": 60, "duration": 2, "velocity": 77}, {"time": 767, "pitch": 65, "duration": 2, "velocity": 78}, {"time": 767, "pitch": 69, "duration": 2, "velocity": 71}, {"time": 773, "pitch": 41, "duration": 3, "velocity": 92}, {"time": 773, "pitch": 60, "duration": 2, "velocity": 81}, {"time": 773, "pitch": 65, "duration": 2, "velocity": 93}, {"time": 773, "pitch": 69, "duration": 2, "velocity": 89}, {"time": 779, "pitch": 36, "duration": 4, "velocity": 90}, {"time": 779, "pitch": 60, "duration": 2, "velocity": 88}, {"time": 779, "pitch": 64, "duration": 2, "velocity": 89}, {"time": 779, "pitch": 67, "duration": 3, "velocity": 86}, {"time": 785, "pitch": 41, "duration": 4, "velocity": 107}, {"time": 785, "pitch": 60, "duration": 3, "velocity": 93}, {"time": 785, "pitch": 65, "duration": 3, "velocity": 99}, {"time": 785, "pitch": 69, "duration": 3, "velocity": 95}, {"time": 797, "pitch": 41, "duration": 5, "velocity": 89}, {"time": 803, "pitch": 60, "duration": 2, "velocity": 90}, {"time": 803, "pitch": 65, "duration": 2, "velocity": 88}, {"time": 803, "pitch": 69, "duration": 2, "velocity": 74}, {"time": 809, "pitch": 46, "duration": 8, "velocity": 69}, {"time": 815, "pitch": 58, "duration": 2, "velocity": 100}, {"time": 815, "pitch": 62, "duration": 2, "velocity": 92}, {"time": 815, "pitch": 65, "duration": 2, "velocity": 85}, {"time": 821, "pitch": 48, "duration": 2, "velocity": 81}, {"time": 821, "pitch": 55, "duration": 2, "velocity": 74}, {"time": 821, "pitch": 60, "duration": 2, "velocity": 88}, {"time": 821, "pitch": 64, "duration": 2, "velocity": 79}, {"time": 827, "pitch": 43, "duration": 3, "velocity": 88}, {"time": 827, "pitch": 55, "duration": 3, "velocity": 90}, {"time": 833, "pitch": 48, "duration": 5, "velocity": 95}, {"time": 833, "pitch": 55, "duration": 5, "velocity": 86}, {"time": 833, "pitch": 60, "duration": 5, "velocity": 95}, {"time": 833, "pitch": 64, "duration": 5, "velocity": 86}, {"time": 845, "pitch": 48, "duration": 7, "velocity": 93}, {"time": 851, "pitch": 55, "duration": 2, "velocity": 83}, {"time": 851, "pitch": 60, "duration": 2, "velocity": 93}, {"time": 851, "pitch": 64, "duration": 2, "velocity": 82}, {"time": 857, "pitch": 48, "duration": 7, "velocity": 86}, {"time": 863, "pitch": 55, "duration": 2, "velocity": 82}, {"time": 863, "pitch": 60, "duration": 2, "velocity": 89}, {"time": 863, "pitch": 64, "duration": 2, "velocity": 85}, {"time": 869, "pitch": 41, "duration": 8, "velocity": 76}, {"time": 875, "pitch": 60, "duration": 2, "velocity": 89}, {"time": 875, "pitch": 65, "duration": 2, "velocity": 95}, {"time": 875, "pitch": 69, "duration": 2, "velocity": 88}, {"time": 881, "pitch": 41, "duration": 7, "velocity": 93}, {"time": 887, "pitch": 60, "duration": 2, "velocity": 88}, {"time": 887, "pitch": 65, "duration": 2, "velocity": 93}, {"time": 887, "pitch": 69, "duration": 2, "velocity": 85}, {"time": 893, "pitch": 50, "duration": 6, "velocity": 95}, {"time": 899, "pitch": 57, "duration": 2, "velocity": 83}, {"time": 899, "pitch": 62, "duration": 2, "velocity": 96}, {"time": 899, "pitch": 65, "duration": 2, "velocity": 86}, {"time": 905, "pitch": 41, "duration": 8, "velocity": 88}, {"time": 911, "pitch": 60, "duration": 2, "velocity": 92}, {"time": 911, "pitch": 65, "duration": 2, "velocity": 100}, {"time": 911, "pitch": 69, "duration": 2, "velocity": 90}, {"time": 917, "pitch": 43, "duration": 2, "velocity": 99}, {"time": 917, "pitch": 67, "duration": 2, "velocity": 93}, {"time": 917, "pitch": 62, "duration": 3, "velocity": 79}, {"time": 917, "pitch": 43, "duration": 2, "velocity": 107}, {"time": 917, "pitch": 67, "duration": 2, "velocity": 92}, {"time": 917, "pitch": 70, "duration": 1, "velocity": 102}, {"time": 917, "pitch": 70, "duration": 1, "velocity": 42}, {"time": 923, "pitch": 38, "duration": 3, "velocity": 86}, {"time": 923, "pitch": 65, "duration": 2, "velocity": 82}, {"time": 923, "pitch": 62, "duration": 2, "velocity": 79}, {"time": 923, "pitch": 69, "duration": 3, "velocity": 85}, {"time": 923, "pitch": 38, "duration": 3, "velocity": 93}, {"time": 923, "pitch": 62, "duration": 2, "velocity": 100}, {"time": 929, "pitch": 43, "duration": 4, "velocity": 117}, {"time": 929, "pitch": 62, "duration": 4, "velocity": 96}, {"time": 929, "pitch": 67, "duration": 4, "velocity": 97}, {"time": 929, "pitch": 70, "duration": 4, "velocity": 117}, {"time": 929, "pitch": 62, "duration": 4, "velocity": 89}, {"time": 929, "pitch": 70, "duration": 4, "velocity": 107}, {"time": 930, "pitch": 67, "duration": 3, "velocity": 99}, {"time": 930, "pitch": 43, "duration": 3, "velocity": 112}, {"time": 941, "pitch": 41, "duration": 7, "velocity": 96}, {"time": 947, "pitch": 60, "duration": 2, "velocity": 85}, {"time": 947, "pitch": 65, "duration": 2, "velocity": 77}, {"time": 947, "pitch": 69, "duration": 2, "velocity": 66}, {"time": 953, "pitch": 41, "duration": 8, "velocity": 92}, {"time": 959, "pitch": 60, "duration": 2, "velocity": 72}, {"time": 959, "pitch": 65, "duration": 2, "velocity": 73}, {"time": 959, "pitch": 69, "duration": 2, "velocity": 66}, {"time": 965, "pitch": 43, "duration": 3, "velocity": 100}, {"time": 965, "pitch": 67, "duration": 3, "velocity": 117}, {"time": 965, "pitch": 71, "duration": 2, "velocity": 93}, {"time": 971, "pitch": 43, "duration": 2, "velocity": 107}, {"time": 971, "pitch": 62, "duration": 3, "velocity": 82}, {"time": 971, "pitch": 67, "duration": 2, "velocity": 85}, {"time": 971, "pitch": 71, "duration": 2, "velocity": 76}, {"time": 977, "pitch": 36, "duration": 4, "velocity": 95}, {"time": 977, "pitch": 60, "duration": 4, "velocity": 90}, {"time": 977, "pitch": 64, "duration": 4, "velocity": 93}, {"time": 977, "pitch": 67, "duration": 4, "velocity": 88}, {"time": 989, "pitch": 41, "duration": 7, "velocity": 93}, {"time": 995, "pitch": 60, "duration": 2, "velocity": 93}, {"time": 995, "pitch": 65, "duration": 2, "velocity": 93}, {"time": 995, "pitch": 69, "duration": 2, "velocity": 88}, {"time": 1001, "pitch": 41, "duration": 7, "velocity": 99}, {"time": 1007, "pitch": 60, "duration": 2, "velocity": 85}, {"time": 1007, "pitch": 65, "duration": 2, "velocity": 89}, {"time": 1007, "pitch": 69, "duration": 2, "velocity": 75}, {"time": 1013, "pitch": 43, "duration": 2, "velocity": 99}, {"time": 1013, "pitch": 62, "duration": 2, "velocity": 96}, {"time": 1013, "pitch": 67, "duration": 2, "velocity": 96}, {"time": 1013, "pitch": 71, "duration": 2, "velocity": 96}, {"time": 1019, "pitch": 43, "duration": 2, "velocity": 107}, {"time": 1019, "pitch": 62, "duration": 2, "velocity": 92}, {"time": 1019, "pitch": 67, "duration": 3, "velocity": 97}, {"time": 1025, "pitch": 36, "duration": 4, "velocity": 95}, {"time": 1025, "pitch": 60, "duration": 3, "velocity": 92}, {"time": 1025, "pitch": 64, "duration": 3, "velocity": 93}, {"time": 1025, "pitch": 67, "duration": 3, "velocity": 92}, {"time": 1037, "pitch": 41, "duration": 8, "velocity": 102}, {"time": 1043, "pitch": 60, "duration": 2, "velocity": 93}, {"time": 1043, "pitch": 65, "duration": 2, "velocity": 92}, {"time": 1043, "pitch": 69, "duration": 2, "velocity": 85}, {"time": 1049, "pitch": 36, "duration": 8, "velocity": 97}, {"time": 1055, "pitch": 60, "duration": 2, "velocity": 88}, {"time": 1055, "pitch": 65, "duration": 2, "velocity": 90}, {"time": 1055, "pitch": 69, "duration": 2, "velocity": 83}, {"time": 1061, "pitch": 41, "duration": 8, "velocity": 96}, {"time": 1067, "pitch": 60, "duration": 2, "velocity": 93}, {"time": 1067, "pitch": 65, "duration": 2, "velocity": 95}, {"time": 1067, "pitch": 69, "duration": 2, "velocity": 92}, {"time": 1073, "pitch": 36, "duration": 8, "velocity": 88}, {"time": 1079, "pitch": 60, "duration": 2, "velocity": 93}, {"time": 1079, "pitch": 65, "duration": 2, "velocity": 92}, {"time": 1079, "pitch": 69, "duration": 2, "velocity": 85}, {"time": 1085, "pitch": 41, "duration": 8, "velocity": 99}, {"time": 1091, "pitch": 65, "duration": 2, "velocity": 93}, {"time": 1091, "pitch": 69, "duration": 2, "velocity": 81}, {"time": 1097, "pitch": 38, "duration": 4, "velocity": 89}, {"time": 1103, "pitch": 57, "duration": 3, "velocity": 83}, {"time": 1103, "pitch": 62, "duration": 2, "velocity": 86}, {"time": 1103, "pitch": 65, "duration": 3, "velocity": 82}, {"time": 1109, "pitch": 38, "duration": 3, "velocity": 93}, {"time": 1109, "pitch": 62, "duration": 3, "velocity": 112}, {"time": 1115, "pitch": 41, "duration": 3, "velocity": 92}, {"time": 1115, "pitch": 65, "duration": 3, "velocity": 107}, {"time": 1121, "pitch": 43, "duration": 3, "velocity": 122}, {"time": 1121, "pitch": 67, "duration": 4, "velocity": 112}, {"time": 1127, "pitch": 62, "duration": 3, "velocity": 99}, {"time": 1127, "pitch": 67, "duration": 3, "velocity": 96}, {"time": 1127, "pitch": 70, "duration": 3, "velocity": 95}, {"time": 1133, "pitch": 41, "duration": 7, "velocity": 99}, {"time": 1139, "pitch": 60, "duration": 2, "velocity": 93}, {"time": 1139, "pitch": 65, "duration": 2, "velocity": 96}, {"time": 1139, "pitch": 69, "duration": 2, "velocity": 88}, {"time": 1145, "pitch": 38, "duration": 6, "velocity": 93}, {"time": 1151, "pitch": 62, "duration": 2, "velocity": 82}, {"time": 1151, "pitch": 65, "duration": 2, "velocity": 95}, {"time": 1151, "pitch": 69, "duration": 2, "velocity": 92}, {"time": 1157, "pitch": 38, "duration": 4, "velocity": 99}, {"time": 1157, "pitch": 62, "duration": 3, "velocity": 97}, {"time": 1157, "pitch": 65, "duration": 3, "velocity": 96}, {"time": 1163, "pitch": 41, "duration": 3, "velocity": 97}, {"time": 1163, "pitch": 65, "duration": 2, "velocity": 97}, {"time": 1163, "pitch": 69, "duration": 3, "velocity": 93}, {"time": 1169, "pitch": 43, "duration": 3, "velocity": 112}, {"time": 1169, "pitch": 62, "duration": 2, "velocity": 83}, {"time": 1169, "pitch": 67, "duration": 2, "velocity": 93}, {"time": 1169, "pitch": 70, "duration": 2, "velocity": 112}, {"time": 1175, "pitch": 62, "duration": 2, "velocity": 90}, {"time": 1175, "pitch": 67, "duration": 2, "velocity": 99}, {"time": 1175, "pitch": 70, "duration": 2, "velocity": 102}, {"time": 1181, "pitch": 43, "duration": 8, "velocity": 99}, {"time": 1187, "pitch": 62, "duration": 2, "velocity": 89}, {"time": 1187, "pitch": 67, "duration": 2, "velocity": 96}, {"time": 1187, "pitch": 70, "duration": 1, "velocity": 95}, {"time": 1193, "pitch": 36, "duration": 7, "velocity": 102}, {"time": 1199, "pitch": 60, "duration": 2, "velocity": 86}, {"time": 1199, "pitch": 64, "duration": 2, "velocity": 93}, {"time": 1199, "pitch": 67, "duration": 2, "velocity": 86}, {"time": 1205, "pitch": 41, "duration": 3, "velocity": 95}, {"time": 1205, "pitch": 65, "duration": 2, "velocity": 107}, {"time": 1205, "pitch": 69, "duration": 2, "velocity": 99}, {"time": 1211, "pitch": 36, "duration": 3, "velocity": 88}, {"time": 1211, "pitch": 60, "duration": 2, "velocity": 89}, {"time": 1211, "pitch": 64, "duration": 2, "velocity": 90}, {"time": 1211, "pitch": 67, "duration": 2, "velocity": 89}, {"time": 1217, "pitch": 41, "duration": 7, "velocity": 102}, {"time": 1217, "pitch": 60, "duration": 6, "velocity": 95}, {"time": 1217, "pitch": 65, "duration": 7, "velocity": 107}, {"time": 1217, "pitch": 69, "duration": 6, "velocity": 102}, {"time": 1229, "pitch": 36, "duration": 4, "velocity": 96}, {"time": 1235, "pitch": 60, "duration": 2, "velocity": 72}, {"time": 1235, "pitch": 65, "duration": 2, "velocity": 75}, {"time": 1235, "pitch": 69, "duration": 2, "velocity": 76}, {"time": 1241, "pitch": 60, "duration": 2, "velocity": 77}, {"time": 1241, "pitch": 65, "duration": 2, "velocity": 74}, {"time": 1241, "pitch": 69, "duration": 2, "velocity": 69}, {"time": 1247, "pitch": 60, "duration": 2, "velocity": 81}, {"time": 1247, "pitch": 65, "duration": 2, "velocity": 79}, {"time": 1247, "pitch": 69, "duration": 2, "velocity": 72}, {"time": 1253, "pitch": 36, "duration": 3, "velocity": 93}, {"time": 1253, "pitch": 60, "duration": 3, "velocity": 92}, {"time": 1253, "pitch": 64, "duration": 4, "velocity": 88}, {"time": 1265, "pitch": 36, "duration": 3, "velocity": 79}, {"time": 1265, "pitch": 55, "duration": 1, "velocity": 63}, {"time": 1265, "pitch": 60, "duration": 3, "velocity": 96}, {"time": 1265, "pitch": 64, "duration": 3, "velocity": 86}, {"time": 1277, "pitch": 41, "duration": 16, "velocity": 93}, {"time": 1277, "pitch": 60, "duration": 16, "velocity": 90}, {"time": 1277, "pitch": 65, "duration": 16, "velocity": 90}, {"time": 1277, "pitch": 69, "duration": 16, "velocity": 85}, {"time": 1295, "pitch": 48, "duration": 2, "velocity": 99}, {"time": 1295, "pitch": 60, "duration": 2, "velocity": 89}, {"time": 1295, "pitch": 64, "duration": 2, "velocity": 92}, {"time": 1295, "pitch": 67, "duration": 2, "velocity": 86}, {"time": 1301, "pitch": 41, "duration": 5, "velocity": 55}, {"time": 1301, "pitch": 53, "duration": 5, "velocity": 107}, {"time": 1301, "pitch": 60, "duration": 5, "velocity": 102}, {"time": 1301, "pitch": 65, "duration": 5, "velocity": 102}, {"time": 1301, "pitch": 69, "duration": 5, "velocity": 102}]}]}