{"metadata": {"schema_version": "0.2", "title": "None", "source_filename": "448.mid", "source_format": "midi"}, "resolution": 12, "tempos": [{"time": 0, "qpm": 93.000186000372}], "time_signatures": [{"time": 0, "numerator": 1, "denominator": 4}], "tracks": [{"program": 0, "is_drum": false, "name": "MELODY", "notes": [{"time": 86, "pitch": 62, "duration": 5, "velocity": 95}, {"time": 93, "pitch": 70, "duration": 4, "velocity": 97}, {"time": 99, "pitch": 70, "duration": 5, "velocity": 99}, {"time": 107, "pitch": 69, "duration": 6, "velocity": 83}, {"time": 115, "pitch": 70, "duration": 28, "velocity": 99}, {"time": 157, "pitch": 62, "duration": 5, "velocity": 95}, {"time": 163, "pitch": 69, "duration": 4, "velocity": 89}, {"time": 170, "pitch": 69, "duration": 5, "velocity": 97}, {"time": 178, "pitch": 67, "duration": 4, "velocity": 95}, {"time": 186, "pitch": 69, "duration": 27, "velocity": 99}, {"time": 606, "pitch": 62, "duration": 6, "velocity": 99}, {"time": 612, "pitch": 62, "duration": 6, "velocity": 96}, {"time": 618, "pitch": 62, "duration": 6, "velocity": 97}, {"time": 624, "pitch": 62, "duration": 6, "velocity": 100}, {"time": 630, "pitch": 62, "duration": 6, "velocity": 99}, {"time": 636, "pitch": 63, "duration": 6, "velocity": 102}, {"time": 642, "pitch": 62, "duration": 12, "velocity": 107}, {"time": 654, "pitch": 62, "duration": 6, "velocity": 97}, {"time": 660, "pitch": 63, "duration": 6, "velocity": 117}, {"time": 666, "pitch": 62, "duration": 12, "velocity": 122}, {"time": 678, "pitch": 60, "duration": 6, "velocity": 117}, {"time": 684, "pitch": 58, "duration": 18, "velocity": 107}, {"time": 702, "pitch": 67, "duration": 6, "velocity": 122}, {"time": 708, "pitch": 67, "duration": 6, "velocity": 107}, {"time": 714, "pitch": 67, "duration": 6, "velocity": 107}, {"time": 720, "pitch": 67, "duration": 9, "velocity": 117}, {"time": 729, "pitch": 65, "duration": 9, "velocity": 117}, {"time": 738, "pitch": 60, "duration": 12, "velocity": 100}, {"time": 750, "pitch": 62, "duration": 48, "velocity": 117}, {"time": 798, "pitch": 63, "duration": 6, "velocity": 112}, {"time": 804, "pitch": 63, "duration": 6, "velocity": 117}, {"time": 810, "pitch": 63, "duration": 6, "velocity": 117}, {"time": 816, "pitch": 63, "duration": 6, "velocity": 127}, {"time": 822, "pitch": 62, "duration": 6, "velocity": 122}, {"time": 828, "pitch": 60, "duration": 18, "velocity": 117}, {"time": 846, "pitch": 62, "duration": 6, "velocity": 122}, {"time": 852, "pitch": 62, "duration": 6, "velocity": 97}, {"time": 858, "pitch": 62, "duration": 6, "velocity": 107}, {"time": 864, "pitch": 62, "duration": 6, "velocity": 117}, {"time": 870, "pitch": 60, "duration": 6, "velocity": 107}, {"time": 876, "pitch": 58, "duration": 18, "velocity": 112}, {"time": 894, "pitch": 58, "duration": 6, "velocity": 99}, {"time": 900, "pitch": 58, "duration": 6, "velocity": 97}, {"time": 906, "pitch": 58, "duration": 6, "velocity": 99}, {"time": 912, "pitch": 58, "duration": 6, "velocity": 112}, {"time": 918, "pitch": 60, "duration": 18, "velocity": 99}, {"time": 936, "pitch": 58, "duration": 9, "velocity": 107}, {"time": 945, "pitch": 57, "duration": 45, "velocity": 99}, {"time": 990, "pitch": 62, "duration": 6, "velocity": 99}, {"time": 996, "pitch": 62, "duration": 6, "velocity": 96}, {"time": 1002, "pitch": 62, "duration": 6, "velocity": 97}, {"time": 1008, "pitch": 62, "duration": 6, "velocity": 100}, {"time": 1014, "pitch": 62, "duration": 6, "velocity": 99}, {"time": 1020, "pitch": 63, "duration": 6, "velocity": 102}, {"time": 1026, "pitch": 62, "duration": 12, "velocity": 107}, {"time": 1038, "pitch": 62, "duration": 6, "velocity": 97}, {"time": 1044, "pitch": 63, "duration": 6, "velocity": 117}, {"time": 1050, "pitch": 62, "duration": 12, "velocity": 122}, {"time": 1062, "pitch": 60, "duration": 6, "velocity": 117}, {"time": 1068, "pitch": 58, "duration": 18, "velocity": 107}, {"time": 1086, "pitch": 67, "duration": 6, "velocity": 122}, {"time": 1092, "pitch": 67, "duration": 6, "velocity": 102}, {"time": 1098, "pitch": 67, "duration": 6, "velocity": 112}, {"time": 1104, "pitch": 70, "duration": 9, "velocity": 117}, {"time": 1113, "pitch": 69, "duration": 9, "velocity": 122}, {"time": 1122, "pitch": 62, "duration": 12, "velocity": 122}, {"time": 1134, "pitch": 65, "duration": 48, "velocity": 117}, {"time": 1182, "pitch": 63, "duration": 6, "velocity": 112}, {"time": 1188, "pitch": 63, "duration": 6, "velocity": 117}, {"time": 1194, "pitch": 63, "duration": 6, "velocity": 117}, {"time": 1200, "pitch": 63, "duration": 6, "velocity": 127}, {"time": 1206, "pitch": 67, "duration": 6, "velocity": 102}, {"time": 1212, "pitch": 69, "duration": 7, "velocity": 127}, {"time": 1218, "pitch": 70, "duration": 12, "velocity": 122}, {"time": 1230, "pitch": 62, "duration": 6, "velocity": 122}, {"time": 1236, "pitch": 62, "duration": 6, "velocity": 97}, {"time": 1242, "pitch": 62, "duration": 6, "velocity": 107}, {"time": 1248, "pitch": 62, "duration": 6, "velocity": 117}, {"time": 1254, "pitch": 67, "duration": 6, "velocity": 127}, {"time": 1260, "pitch": 69, "duration": 6, "velocity": 127}, {"time": 1266, "pitch": 70, "duration": 12, "velocity": 127}, {"time": 1278, "pitch": 70, "duration": 6, "velocity": 127}, {"time": 1284, "pitch": 70, "duration": 6, "velocity": 112}, {"time": 1290, "pitch": 70, "duration": 6, "velocity": 117}, {"time": 1296, "pitch": 70, "duration": 6, "velocity": 122}, {"time": 1302, "pitch": 72, "duration": 6, "velocity": 117}, {"time": 1308, "pitch": 70, "duration": 6, "velocity": 102}, {"time": 1314, "pitch": 70, "duration": 12, "velocity": 122}, {"time": 1326, "pitch": 69, "duration": 42, "velocity": 127}, {"time": 1368, "pitch": 62, "duration": 6, "velocity": 102}, {"time": 1374, "pitch": 70, "duration": 6, "velocity": 127}, {"time": 1380, "pitch": 70, "duration": 6, "velocity": 127}, {"time": 1386, "pitch": 69, "duration": 6, "velocity": 96}, {"time": 1392, "pitch": 70, "duration": 24, "velocity": 127}, {"time": 1416, "pitch": 62, "duration": 6, "velocity": 122}, {"time": 1422, "pitch": 69, "duration": 6, "velocity": 100}, {"time": 1428, "pitch": 69, "duration": 6, "velocity": 90}, {"time": 1434, "pitch": 67, "duration": 6, "velocity": 127}, {"time": 1440, "pitch": 69, "duration": 24, "velocity": 127}, {"time": 1464, "pitch": 67, "duration": 6, "velocity": 122}, {"time": 1470, "pitch": 65, "duration": 6, "velocity": 97}, {"time": 1476, "pitch": 67, "duration": 6, "velocity": 122}, {"time": 1482, "pitch": 69, "duration": 6, "velocity": 112}, {"time": 1488, "pitch": 70, "duration": 12, "velocity": 127}, {"time": 1500, "pitch": 67, "duration": 6, "velocity": 122}, {"time": 1506, "pitch": 65, "duration": 48, "velocity": 127}, {"time": 1554, "pitch": 62, "duration": 6, "velocity": 107}, {"time": 1560, "pitch": 63, "duration": 6, "velocity": 127}, {"time": 1566, "pitch": 62, "duration": 6, "velocity": 117}, {"time": 1572, "pitch": 60, "duration": 6, "velocity": 102}, {"time": 1578, "pitch": 62, "duration": 6, "velocity": 95}, {"time": 1584, "pitch": 63, "duration": 18, "velocity": 117}, {"time": 1602, "pitch": 67, "duration": 12, "velocity": 122}, {"time": 1614, "pitch": 62, "duration": 6, "velocity": 127}, {"time": 1620, "pitch": 62, "duration": 6, "velocity": 112}, {"time": 1626, "pitch": 60, "duration": 6, "velocity": 96}, {"time": 1632, "pitch": 62, "duration": 21, "velocity": 127}, {"time": 1653, "pitch": 62, "duration": 3, "velocity": 86}, {"time": 1656, "pitch": 67, "duration": 6, "velocity": 100}, {"time": 1662, "pitch": 62, "duration": 6, "velocity": 99}, {"time": 1668, "pitch": 67, "duration": 6, "velocity": 117}, {"time": 1674, "pitch": 69, "duration": 6, "velocity": 112}, {"time": 1680, "pitch": 72, "duration": 6, "velocity": 117}, {"time": 1686, "pitch": 70, "duration": 6, "velocity": 112}, {"time": 1692, "pitch": 69, "duration": 6, "velocity": 102}, {"time": 1698, "pitch": 67, "duration": 12, "velocity": 112}, {"time": 1710, "pitch": 69, "duration": 42, "velocity": 127}, {"time": 1752, "pitch": 62, "duration": 6, "velocity": 102}, {"time": 1758, "pitch": 70, "duration": 6, "velocity": 127}, {"time": 1764, "pitch": 70, "duration": 6, "velocity": 127}, {"time": 1770, "pitch": 69, "duration": 6, "velocity": 96}, {"time": 1776, "pitch": 70, "duration": 24, "velocity": 127}, {"time": 1800, "pitch": 72, "duration": 6, "velocity": 117}, {"time": 1806, "pitch": 69, "duration": 6, "velocity": 127}, {"time": 1812, "pitch": 67, "duration": 6, "velocity": 122}, {"time": 1818, "pitch": 65, "duration": 6, "velocity": 107}, {"time": 1824, "pitch": 69, "duration": 24, "velocity": 122}, {"time": 1848, "pitch": 67, "duration": 6, "velocity": 122}, {"time": 1854, "pitch": 65, "duration": 6, "velocity": 97}, {"time": 1860, "pitch": 67, "duration": 6, "velocity": 122}, {"time": 1866, "pitch": 69, "duration": 6, "velocity": 112}, {"time": 1872, "pitch": 70, "duration": 12, "velocity": 127}, {"time": 1884, "pitch": 75, "duration": 6, "velocity": 127}, {"time": 1890, "pitch": 74, "duration": 48, "velocity": 122}, {"time": 1938, "pitch": 74, "duration": 6, "velocity": 127}, {"time": 1944, "pitch": 75, "duration": 6, "velocity": 127}, {"time": 1950, "pitch": 74, "duration": 6, "velocity": 117}, {"time": 1956, "pitch": 74, "duration": 6, "velocity": 127}, {"time": 1962, "pitch": 72, "duration": 6, "velocity": 97}, {"time": 1968, "pitch": 72, "duration": 18, "velocity": 122}, {"time": 1986, "pitch": 74, "duration": 12, "velocity": 127}, {"time": 1998, "pitch": 72, "duration": 6, "velocity": 122}, {"time": 2004, "pitch": 72, "duration": 6, "velocity": 122}, {"time": 2010, "pitch": 70, "duration": 6, "velocity": 127}, {"time": 2016, "pitch": 70, "duration": 24, "velocity": 127}, {"time": 2040, "pitch": 70, "duration": 6, "velocity": 127}, {"time": 2046, "pitch": 70, "duration": 6, "velocity": 127}, {"time": 2052, "pitch": 70, "duration": 6, "velocity": 127}, {"time": 2058, "pitch": 70, "duration": 6, "velocity": 122}, {"time": 2064, "pitch": 70, "duration": 6, "velocity": 117}, {"time": 2070, "pitch": 72, "duration": 6, "velocity": 127}, {"time": 2076, "pitch": 70, "duration": 6, "velocity": 122}, {"time": 2082, "pitch": 70, "duration": 12, "velocity": 122}, {"time": 2094, "pitch": 69, "duration": 18, "velocity": 107}, {"time": 2112, "pitch": 70, "duration": 12, "velocity": 127}, {"time": 2124, "pitch": 69, "duration": 6, "velocity": 112}, {"time": 2130, "pitch": 69, "duration": 12, "velocity": 127}, {"time": 2142, "pitch": 67, "duration": 42, "velocity": 107}, {"time": 2574, "pitch": 62, "duration": 6, "velocity": 99}, {"time": 2580, "pitch": 62, "duration": 6, "velocity": 96}, {"time": 2586, "pitch": 62, "duration": 6, "velocity": 97}, {"time": 2592, "pitch": 62, "duration": 6, "velocity": 100}, {"time": 2598, "pitch": 62, "duration": 6, "velocity": 99}, {"time": 2604, "pitch": 63, "duration": 6, "velocity": 102}, {"time": 2610, "pitch": 62, "duration": 12, "velocity": 107}, {"time": 2622, "pitch": 62, "duration": 6, "velocity": 97}, {"time": 2628, "pitch": 63, "duration": 6, "velocity": 117}, {"time": 2634, "pitch": 62, "duration": 12, "velocity": 122}, {"time": 2646, "pitch": 60, "duration": 6, "velocity": 117}, {"time": 2652, "pitch": 58, "duration": 18, "velocity": 107}, {"time": 2670, "pitch": 67, "duration": 6, "velocity": 122}, {"time": 2676, "pitch": 67, "duration": 6, "velocity": 107}, {"time": 2682, "pitch": 67, "duration": 6, "velocity": 107}, {"time": 2688, "pitch": 67, "duration": 9, "velocity": 117}, {"time": 2697, "pitch": 65, "duration": 9, "velocity": 117}, {"time": 2706, "pitch": 60, "duration": 12, "velocity": 100}, {"time": 2718, "pitch": 62, "duration": 48, "velocity": 117}, {"time": 2766, "pitch": 63, "duration": 6, "velocity": 112}, {"time": 2772, "pitch": 63, "duration": 6, "velocity": 117}, {"time": 2778, "pitch": 63, "duration": 6, "velocity": 117}, {"time": 2784, "pitch": 63, "duration": 6, "velocity": 127}, {"time": 2790, "pitch": 62, "duration": 6, "velocity": 122}, {"time": 2796, "pitch": 60, "duration": 18, "velocity": 117}, {"time": 2814, "pitch": 62, "duration": 6, "velocity": 122}, {"time": 2820, "pitch": 62, "duration": 6, "velocity": 97}, {"time": 2826, "pitch": 62, "duration": 6, "velocity": 107}, {"time": 2832, "pitch": 62, "duration": 6, "velocity": 117}, {"time": 2838, "pitch": 60, "duration": 6, "velocity": 107}, {"time": 2844, "pitch": 58, "duration": 18, "velocity": 112}, {"time": 2862, "pitch": 58, "duration": 6, "velocity": 99}, {"time": 2868, "pitch": 58, "duration": 6, "velocity": 97}, {"time": 2874, "pitch": 58, "duration": 6, "velocity": 99}, {"time": 2880, "pitch": 58, "duration": 6, "velocity": 112}, {"time": 2886, "pitch": 60, "duration": 18, "velocity": 99}, {"time": 2904, "pitch": 58, "duration": 9, "velocity": 107}, {"time": 2913, "pitch": 57, "duration": 45, "velocity": 99}, {"time": 2958, "pitch": 62, "duration": 6, "velocity": 99}, {"time": 2964, "pitch": 62, "duration": 6, "velocity": 96}, {"time": 2970, "pitch": 62, "duration": 6, "velocity": 97}, {"time": 2976, "pitch": 62, "duration": 6, "velocity": 100}, {"time": 2982, "pitch": 62, "duration": 6, "velocity": 99}, {"time": 2988, "pitch": 63, "duration": 6, "velocity": 102}, {"time": 2994, "pitch": 62, "duration": 12, "velocity": 107}, {"time": 3006, "pitch": 62, "duration": 6, "velocity": 97}, {"time": 3012, "pitch": 63, "duration": 6, "velocity": 117}, {"time": 3018, "pitch": 62, "duration": 12, "velocity": 122}, {"time": 3030, "pitch": 60, "duration": 6, "velocity": 117}, {"time": 3036, "pitch": 58, "duration": 18, "velocity": 107}, {"time": 3054, "pitch": 67, "duration": 6, "velocity": 122}, {"time": 3060, "pitch": 67, "duration": 6, "velocity": 102}, {"time": 3066, "pitch": 67, "duration": 6, "velocity": 112}, {"time": 3072, "pitch": 70, "duration": 9, "velocity": 117}, {"time": 3081, "pitch": 69, "duration": 9, "velocity": 122}, {"time": 3090, "pitch": 62, "duration": 12, "velocity": 122}, {"time": 3102, "pitch": 65, "duration": 48, "velocity": 117}, {"time": 3150, "pitch": 63, "duration": 6, "velocity": 112}, {"time": 3156, "pitch": 63, "duration": 6, "velocity": 117}, {"time": 3162, "pitch": 63, "duration": 6, "velocity": 117}, {"time": 3168, "pitch": 63, "duration": 6, "velocity": 127}, {"time": 3174, "pitch": 67, "duration": 6, "velocity": 102}, {"time": 3180, "pitch": 69, "duration": 7, "velocity": 127}, {"time": 3186, "pitch": 70, "duration": 12, "velocity": 122}, {"time": 3198, "pitch": 62, "duration": 6, "velocity": 122}, {"time": 3204, "pitch": 62, "duration": 6, "velocity": 97}, {"time": 3210, "pitch": 62, "duration": 6, "velocity": 107}, {"time": 3216, "pitch": 62, "duration": 6, "velocity": 117}, {"time": 3222, "pitch": 67, "duration": 6, "velocity": 127}, {"time": 3228, "pitch": 69, "duration": 6, "velocity": 127}, {"time": 3234, "pitch": 70, "duration": 12, "velocity": 127}, {"time": 3246, "pitch": 70, "duration": 6, "velocity": 127}, {"time": 3252, "pitch": 70, "duration": 6, "velocity": 112}, {"time": 3258, "pitch": 70, "duration": 6, "velocity": 117}, {"time": 3264, "pitch": 70, "duration": 6, "velocity": 122}, {"time": 3270, "pitch": 72, "duration": 6, "velocity": 117}, {"time": 3276, "pitch": 70, "duration": 6, "velocity": 102}, {"time": 3282, "pitch": 70, "duration": 12, "velocity": 122}, {"time": 3294, "pitch": 69, "duration": 42, "velocity": 127}, {"time": 3336, "pitch": 62, "duration": 6, "velocity": 102}, {"time": 3342, "pitch": 70, "duration": 6, "velocity": 127}, {"time": 3348, "pitch": 70, "duration": 6, "velocity": 127}, {"time": 3354, "pitch": 69, "duration": 6, "velocity": 96}, {"time": 3360, "pitch": 70, "duration": 24, "velocity": 127}, {"time": 3384, "pitch": 62, "duration": 6, "velocity": 122}, {"time": 3390, "pitch": 69, "duration": 6, "velocity": 100}, {"time": 3396, "pitch": 69, "duration": 6, "velocity": 90}, {"time": 3402, "pitch": 67, "duration": 6, "velocity": 127}, {"time": 3408, "pitch": 69, "duration": 24, "velocity": 127}, {"time": 3432, "pitch": 67, "duration": 6, "velocity": 122}, {"time": 3438, "pitch": 65, "duration": 6, "velocity": 97}, {"time": 3444, "pitch": 67, "duration": 6, "velocity": 122}, {"time": 3450, "pitch": 69, "duration": 6, "velocity": 112}, {"time": 3456, "pitch": 70, "duration": 12, "velocity": 127}, {"time": 3468, "pitch": 67, "duration": 6, "velocity": 122}, {"time": 3474, "pitch": 65, "duration": 48, "velocity": 127}, {"time": 3522, "pitch": 62, "duration": 6, "velocity": 107}, {"time": 3528, "pitch": 63, "duration": 6, "velocity": 127}, {"time": 3534, "pitch": 62, "duration": 6, "velocity": 117}, {"time": 3540, "pitch": 60, "duration": 6, "velocity": 102}, {"time": 3546, "pitch": 62, "duration": 6, "velocity": 95}, {"time": 3552, "pitch": 63, "duration": 18, "velocity": 117}, {"time": 3570, "pitch": 67, "duration": 12, "velocity": 122}, {"time": 3582, "pitch": 62, "duration": 6, "velocity": 127}, {"time": 3588, "pitch": 62, "duration": 6, "velocity": 112}, {"time": 3594, "pitch": 60, "duration": 6, "velocity": 96}, {"time": 3600, "pitch": 62, "duration": 21, "velocity": 127}, {"time": 3621, "pitch": 62, "duration": 3, "velocity": 86}, {"time": 3624, "pitch": 67, "duration": 6, "velocity": 100}, {"time": 3630, "pitch": 62, "duration": 6, "velocity": 99}, {"time": 3636, "pitch": 67, "duration": 6, "velocity": 117}, {"time": 3642, "pitch": 69, "duration": 6, "velocity": 112}, {"time": 3648, "pitch": 72, "duration": 6, "velocity": 117}, {"time": 3654, "pitch": 70, "duration": 6, "velocity": 112}, {"time": 3660, "pitch": 69, "duration": 6, "velocity": 102}, {"time": 3666, "pitch": 67, "duration": 12, "velocity": 112}, {"time": 3678, "pitch": 69, "duration": 42, "velocity": 127}, {"time": 3720, "pitch": 62, "duration": 6, "velocity": 102}, {"time": 3726, "pitch": 70, "duration": 6, "velocity": 127}, {"time": 3732, "pitch": 70, "duration": 6, "velocity": 127}, {"time": 3738, "pitch": 69, "duration": 6, "velocity": 96}, {"time": 3744, "pitch": 70, "duration": 24, "velocity": 127}, {"time": 3768, "pitch": 72, "duration": 6, "velocity": 117}, {"time": 3774, "pitch": 69, "duration": 6, "velocity": 127}, {"time": 3780, "pitch": 67, "duration": 6, "velocity": 122}, {"time": 3786, "pitch": 65, "duration": 6, "velocity": 107}, {"time": 3792, "pitch": 69, "duration": 24, "velocity": 122}, {"time": 3816, "pitch": 67, "duration": 6, "velocity": 122}, {"time": 3822, "pitch": 65, "duration": 6, "velocity": 97}, {"time": 3828, "pitch": 67, "duration": 6, "velocity": 122}, {"time": 3834, "pitch": 69, "duration": 6, "velocity": 112}, {"time": 3840, "pitch": 70, "duration": 12, "velocity": 127}, {"time": 3852, "pitch": 75, "duration": 6, "velocity": 127}, {"time": 3858, "pitch": 74, "duration": 48, "velocity": 122}, {"time": 3906, "pitch": 74, "duration": 6, "velocity": 127}, {"time": 3912, "pitch": 75, "duration": 6, "velocity": 127}, {"time": 3918, "pitch": 74, "duration": 6, "velocity": 117}, {"time": 3924, "pitch": 74, "duration": 6, "velocity": 127}, {"time": 3930, "pitch": 72, "duration": 6, "velocity": 97}, {"time": 3936, "pitch": 72, "duration": 18, "velocity": 122}, {"time": 3954, "pitch": 74, "duration": 12, "velocity": 127}, {"time": 3966, "pitch": 72, "duration": 6, "velocity": 122}, {"time": 3972, "pitch": 72, "duration": 6, "velocity": 122}, {"time": 3978, "pitch": 70, "duration": 6, "velocity": 127}, {"time": 3984, "pitch": 70, "duration": 24, "velocity": 127}, {"time": 4008, "pitch": 70, "duration": 6, "velocity": 127}, {"time": 4014, "pitch": 70, "duration": 6, "velocity": 127}, {"time": 4020, "pitch": 70, "duration": 6, "velocity": 127}, {"time": 4026, "pitch": 70, "duration": 6, "velocity": 122}, {"time": 4032, "pitch": 70, "duration": 6, "velocity": 117}, {"time": 4038, "pitch": 72, "duration": 6, "velocity": 127}, {"time": 4044, "pitch": 70, "duration": 6, "velocity": 122}, {"time": 4050, "pitch": 70, "duration": 12, "velocity": 127}, {"time": 4062, "pitch": 69, "duration": 12, "velocity": 127}, {"time": 4074, "pitch": 62, "duration": 6, "velocity": 112}, {"time": 4080, "pitch": 70, "duration": 12, "velocity": 127}, {"time": 4092, "pitch": 69, "duration": 6, "velocity": 112}, {"time": 4098, "pitch": 69, "duration": 12, "velocity": 127}, {"time": 4110, "pitch": 67, "duration": 90, "velocity": 107}, {"time": 4200, "pitch": 62, "duration": 6, "velocity": 102}, {"time": 4206, "pitch": 70, "duration": 6, "velocity": 127}, {"time": 4212, "pitch": 70, "duration": 6, "velocity": 127}, {"time": 4218, "pitch": 69, "duration": 6, "velocity": 96}, {"time": 4224, "pitch": 70, "duration": 24, "velocity": 127}, {"time": 4248, "pitch": 62, "duration": 6, "velocity": 122}, {"time": 4254, "pitch": 69, "duration": 6, "velocity": 100}, {"time": 4260, "pitch": 69, "duration": 6, "velocity": 90}, {"time": 4266, "pitch": 67, "duration": 6, "velocity": 127}, {"time": 4272, "pitch": 69, "duration": 24, "velocity": 127}, {"time": 4296, "pitch": 67, "duration": 6, "velocity": 122}, {"time": 4302, "pitch": 65, "duration": 6, "velocity": 97}, {"time": 4308, "pitch": 67, "duration": 6, "velocity": 122}, {"time": 4314, "pitch": 69, "duration": 6, "velocity": 112}, {"time": 4320, "pitch": 70, "duration": 12, "velocity": 127}, {"time": 4332, "pitch": 67, "duration": 6, "velocity": 122}, {"time": 4338, "pitch": 65, "duration": 48, "velocity": 127}, {"time": 4386, "pitch": 62, "duration": 6, "velocity": 107}, {"time": 4392, "pitch": 63, "duration": 6, "velocity": 127}, {"time": 4398, "pitch": 62, "duration": 6, "velocity": 117}, {"time": 4404, "pitch": 60, "duration": 6, "velocity": 102}, {"time": 4410, "pitch": 62, "duration": 6, "velocity": 95}, {"time": 4416, "pitch": 63, "duration": 18, "velocity": 117}, {"time": 4434, "pitch": 67, "duration": 12, "velocity": 122}, {"time": 4446, "pitch": 62, "duration": 6, "velocity": 127}, {"time": 4452, "pitch": 62, "duration": 6, "velocity": 112}, {"time": 4458, "pitch": 60, "duration": 6, "velocity": 96}, {"time": 4464, "pitch": 62, "duration": 21, "velocity": 127}, {"time": 4485, "pitch": 62, "duration": 3, "velocity": 86}, {"time": 4488, "pitch": 67, "duration": 6, "velocity": 100}, {"time": 4494, "pitch": 62, "duration": 6, "velocity": 99}, {"time": 4500, "pitch": 67, "duration": 6, "velocity": 117}, {"time": 4506, "pitch": 69, "duration": 6, "velocity": 112}, {"time": 4512, "pitch": 72, "duration": 6, "velocity": 117}, {"time": 4518, "pitch": 70, "duration": 6, "velocity": 112}, {"time": 4524, "pitch": 69, "duration": 6, "velocity": 102}, {"time": 4530, "pitch": 67, "duration": 12, "velocity": 112}, {"time": 4542, "pitch": 69, "duration": 42, "velocity": 127}, {"time": 4584, "pitch": 62, "duration": 6, "velocity": 102}, {"time": 4590, "pitch": 70, "duration": 6, "velocity": 127}, {"time": 4596, "pitch": 70, "duration": 6, "velocity": 127}, {"time": 4602, "pitch": 69, "duration": 6, "velocity": 96}, {"time": 4608, "pitch": 70, "duration": 24, "velocity": 127}, {"time": 4632, "pitch": 72, "duration": 6, "velocity": 117}, {"time": 4638, "pitch": 69, "duration": 6, "velocity": 127}, {"time": 4644, "pitch": 67, "duration": 6, "velocity": 122}, {"time": 4650, "pitch": 65, "duration": 6, "velocity": 107}, {"time": 4656, "pitch": 69, "duration": 24, "velocity": 122}, {"time": 4680, "pitch": 67, "duration": 6, "velocity": 122}, {"time": 4686, "pitch": 65, "duration": 6, "velocity": 97}, {"time": 4692, "pitch": 67, "duration": 6, "velocity": 122}, {"time": 4698, "pitch": 69, "duration": 6, "velocity": 112}, {"time": 4704, "pitch": 70, "duration": 12, "velocity": 127}, {"time": 4716, "pitch": 75, "duration": 6, "velocity": 127}, {"time": 4722, "pitch": 74, "duration": 48, "velocity": 122}, {"time": 4770, "pitch": 74, "duration": 6, "velocity": 127}, {"time": 4776, "pitch": 75, "duration": 6, "velocity": 127}, {"time": 4782, "pitch": 74, "duration": 6, "velocity": 117}, {"time": 4788, "pitch": 74, "duration": 6, "velocity": 127}, {"time": 4794, "pitch": 72, "duration": 6, "velocity": 97}, {"time": 4800, "pitch": 72, "duration": 18, "velocity": 122}, {"time": 4818, "pitch": 74, "duration": 12, "velocity": 127}, {"time": 4830, "pitch": 72, "duration": 6, "velocity": 122}, {"time": 4836, "pitch": 72, "duration": 6, "velocity": 122}, {"time": 4842, "pitch": 70, "duration": 6, "velocity": 127}, {"time": 4848, "pitch": 70, "duration": 24, "velocity": 127}, {"time": 4872, "pitch": 70, "duration": 6, "velocity": 127}, {"time": 4878, "pitch": 70, "duration": 6, "velocity": 127}, {"time": 4884, "pitch": 70, "duration": 6, "velocity": 127}, {"time": 4890, "pitch": 70, "duration": 6, "velocity": 122}, {"time": 4896, "pitch": 70, "duration": 6, "velocity": 117}, {"time": 4902, "pitch": 72, "duration": 6, "velocity": 127}, {"time": 4908, "pitch": 70, "duration": 6, "velocity": 122}, {"time": 4914, "pitch": 70, "duration": 12, "velocity": 127}, {"time": 4926, "pitch": 69, "duration": 18, "velocity": 127}, {"time": 4944, "pitch": 70, "duration": 12, "velocity": 127}, {"time": 4956, "pitch": 69, "duration": 6, "velocity": 112}, {"time": 4962, "pitch": 69, "duration": 12, "velocity": 127}, {"time": 4974, "pitch": 67, "duration": 42, "velocity": 107}]}, {"program": 0, "is_drum": false, "name": "PIANO", "notes": [{"time": 216, "pitch": 43, "duration": 32, "velocity": 53}, {"time": 222, "pitch": 50, "duration": 28, "velocity": 51}, {"time": 228, "pitch": 55, "duration": 21, "velocity": 37}, {"time": 234, "pitch": 70, "duration": 14, "velocity": 79}, {"time": 246, "pitch": 67, "duration": 8, "velocity": 50}, {"time": 252, "pitch": 70, "duration": 5, "velocity": 77}, {"time": 258, "pitch": 72, "duration": 8, "velocity": 67}, {"time": 264, "pitch": 53, "duration": 30, "velocity": 66}, {"time": 264, "pitch": 69, "duration": 9, "velocity": 63}, {"time": 270, "pitch": 60, "duration": 22, "velocity": 58}, {"time": 276, "pitch": 65, "duration": 7, "velocity": 50}, {"time": 282, "pitch": 72, "duration": 19, "velocity": 68}, {"time": 294, "pitch": 69, "duration": 7, "velocity": 54}, {"time": 300, "pitch": 65, "duration": 11, "velocity": 42}, {"time": 312, "pitch": 51, "duration": 13, "velocity": 72}, {"time": 318, "pitch": 63, "duration": 8, "velocity": 64}, {"time": 324, "pitch": 67, "duration": 11, "velocity": 68}, {"time": 324, "pitch": 70, "duration": 12, "velocity": 60}, {"time": 330, "pitch": 63, "duration": 7, "velocity": 59}, {"time": 336, "pitch": 53, "duration": 14, "velocity": 60}, {"time": 342, "pitch": 60, "duration": 8, "velocity": 56}, {"time": 348, "pitch": 72, "duration": 14, "velocity": 81}, {"time": 354, "pitch": 69, "duration": 8, "velocity": 59}, {"time": 360, "pitch": 46, "duration": 36, "velocity": 50}, {"time": 366, "pitch": 53, "duration": 30, "velocity": 38}, {"time": 372, "pitch": 58, "duration": 15, "velocity": 52}, {"time": 378, "pitch": 62, "duration": 11, "velocity": 51}, {"time": 384, "pitch": 70, "duration": 23, "velocity": 102}, {"time": 390, "pitch": 58, "duration": 6, "velocity": 72}, {"time": 396, "pitch": 65, "duration": 13, "velocity": 78}, {"time": 402, "pitch": 62, "duration": 7, "velocity": 76}, {"time": 408, "pitch": 48, "duration": 35, "velocity": 69}, {"time": 414, "pitch": 55, "duration": 22, "velocity": 63}, {"time": 420, "pitch": 60, "duration": 12, "velocity": 66}, {"time": 426, "pitch": 67, "duration": 32, "velocity": 73}, {"time": 432, "pitch": 63, "duration": 13, "velocity": 95}, {"time": 444, "pitch": 62, "duration": 13, "velocity": 75}, {"time": 450, "pitch": 63, "duration": 7, "velocity": 88}, {"time": 456, "pitch": 43, "duration": 38, "velocity": 72}, {"time": 462, "pitch": 50, "duration": 33, "velocity": 59}, {"time": 468, "pitch": 55, "duration": 25, "velocity": 74}, {"time": 474, "pitch": 70, "duration": 6, "velocity": 107}, {"time": 480, "pitch": 74, "duration": 9, "velocity": 95}, {"time": 486, "pitch": 72, "duration": 9, "velocity": 77}, {"time": 492, "pitch": 70, "duration": 7, "velocity": 69}, {"time": 498, "pitch": 69, "duration": 7, "velocity": 63}, {"time": 504, "pitch": 46, "duration": 40, "velocity": 77}, {"time": 510, "pitch": 53, "duration": 32, "velocity": 54}, {"time": 516, "pitch": 58, "duration": 26, "velocity": 41}, {"time": 522, "pitch": 62, "duration": 21, "velocity": 50}, {"time": 528, "pitch": 65, "duration": 25, "velocity": 67}, {"time": 540, "pitch": 70, "duration": 13, "velocity": 83}, {"time": 552, "pitch": 38, "duration": 37, "velocity": 66}, {"time": 558, "pitch": 45, "duration": 32, "velocity": 55}, {"time": 564, "pitch": 50, "duration": 17, "velocity": 66}, {"time": 570, "pitch": 62, "duration": 8, "velocity": 58}, {"time": 576, "pitch": 66, "duration": 23, "velocity": 107}, {"time": 576, "pitch": 69, "duration": 22, "velocity": 99}, {"time": 588, "pitch": 62, "duration": 10, "velocity": 85}, {"time": 600, "pitch": 43, "duration": 44, "velocity": 96}, {"time": 606, "pitch": 50, "duration": 26, "velocity": 40}, {"time": 612, "pitch": 55, "duration": 19, "velocity": 86}, {"time": 618, "pitch": 62, "duration": 11, "velocity": 74}, {"time": 624, "pitch": 70, "duration": 24, "velocity": 127}, {"time": 630, "pitch": 67, "duration": 8, "velocity": 61}, {"time": 636, "pitch": 62, "duration": 13, "velocity": 63}, {"time": 642, "pitch": 67, "duration": 7, "velocity": 65}, {"time": 648, "pitch": 41, "duration": 32, "velocity": 68}, {"time": 654, "pitch": 48, "duration": 24, "velocity": 60}, {"time": 660, "pitch": 53, "duration": 15, "velocity": 71}, {"time": 666, "pitch": 60, "duration": 19, "velocity": 66}, {"time": 672, "pitch": 69, "duration": 24, "velocity": 102}, {"time": 684, "pitch": 65, "duration": 12, "velocity": 69}, {"time": 696, "pitch": 39, "duration": 16, "velocity": 71}, {"time": 702, "pitch": 46, "duration": 12, "velocity": 63}, {"time": 708, "pitch": 51, "duration": 6, "velocity": 74}, {"time": 711, "pitch": 58, "duration": 3, "velocity": 24}, {"time": 714, "pitch": 63, "duration": 6, "velocity": 96}, {"time": 720, "pitch": 41, "duration": 9, "velocity": 73}, {"time": 726, "pitch": 53, "duration": 8, "velocity": 71}, {"time": 732, "pitch": 60, "duration": 12, "velocity": 92}, {"time": 738, "pitch": 57, "duration": 6, "velocity": 66}, {"time": 744, "pitch": 46, "duration": 39, "velocity": 72}, {"time": 750, "pitch": 53, "duration": 32, "velocity": 51}, {"time": 756, "pitch": 58, "duration": 8, "velocity": 69}, {"time": 762, "pitch": 62, "duration": 6, "velocity": 92}, {"time": 768, "pitch": 65, "duration": 7, "velocity": 95}, {"time": 774, "pitch": 62, "duration": 8, "velocity": 78}, {"time": 780, "pitch": 58, "duration": 12, "velocity": 89}, {"time": 792, "pitch": 36, "duration": 32, "velocity": 66}, {"time": 798, "pitch": 43, "duration": 27, "velocity": 41}, {"time": 804, "pitch": 48, "duration": 19, "velocity": 62}, {"time": 810, "pitch": 55, "duration": 10, "velocity": 48}, {"time": 816, "pitch": 63, "duration": 24, "velocity": 107}, {"time": 822, "pitch": 60, "duration": 18, "velocity": 72}, {"time": 834, "pitch": 55, "duration": 6, "velocity": 73}, {"time": 840, "pitch": 43, "duration": 35, "velocity": 76}, {"time": 846, "pitch": 50, "duration": 28, "velocity": 48}, {"time": 852, "pitch": 55, "duration": 16, "velocity": 72}, {"time": 858, "pitch": 62, "duration": 15, "velocity": 81}, {"time": 864, "pitch": 70, "duration": 6, "velocity": 122}, {"time": 870, "pitch": 69, "duration": 8, "velocity": 83}, {"time": 876, "pitch": 67, "duration": 13, "velocity": 79}, {"time": 882, "pitch": 62, "duration": 7, "velocity": 72}, {"time": 888, "pitch": 39, "duration": 38, "velocity": 71}, {"time": 894, "pitch": 46, "duration": 30, "velocity": 47}, {"time": 900, "pitch": 51, "duration": 14, "velocity": 73}, {"time": 906, "pitch": 55, "duration": 21, "velocity": 63}, {"time": 912, "pitch": 63, "duration": 24, "velocity": 122}, {"time": 918, "pitch": 51, "duration": 6, "velocity": 75}, {"time": 924, "pitch": 58, "duration": 12, "velocity": 102}, {"time": 930, "pitch": 55, "duration": 7, "velocity": 64}, {"time": 936, "pitch": 38, "duration": 35, "velocity": 71}, {"time": 942, "pitch": 45, "duration": 30, "velocity": 56}, {"time": 948, "pitch": 50, "duration": 18, "velocity": 75}, {"time": 954, "pitch": 57, "duration": 8, "velocity": 75}, {"time": 960, "pitch": 66, "duration": 7, "velocity": 127}, {"time": 966, "pitch": 62, "duration": 6, "velocity": 122}, {"time": 972, "pitch": 57, "duration": 7, "velocity": 100}, {"time": 978, "pitch": 58, "duration": 11, "velocity": 107}, {"time": 984, "pitch": 43, "duration": 40, "velocity": 81}, {"time": 984, "pitch": 55, "duration": 5, "velocity": 78}, {"time": 990, "pitch": 50, "duration": 29, "velocity": 72}, {"time": 996, "pitch": 55, "duration": 14, "velocity": 78}, {"time": 1002, "pitch": 67, "duration": 5, "velocity": 55}, {"time": 1002, "pitch": 70, "duration": 4, "velocity": 58}, {"time": 1008, "pitch": 67, "duration": 15, "velocity": 99}, {"time": 1008, "pitch": 70, "duration": 14, "velocity": 122}, {"time": 1014, "pitch": 55, "duration": 3, "velocity": 71}, {"time": 1020, "pitch": 62, "duration": 11, "velocity": 75}, {"time": 1026, "pitch": 67, "duration": 5, "velocity": 79}, {"time": 1032, "pitch": 41, "duration": 37, "velocity": 53}, {"time": 1038, "pitch": 48, "duration": 30, "velocity": 53}, {"time": 1044, "pitch": 53, "duration": 18, "velocity": 71}, {"time": 1050, "pitch": 60, "duration": 20, "velocity": 79}, {"time": 1056, "pitch": 69, "duration": 9, "velocity": 122}, {"time": 1068, "pitch": 65, "duration": 13, "velocity": 82}, {"time": 1068, "pitch": 69, "duration": 13, "velocity": 92}, {"time": 1074, "pitch": 60, "duration": 8, "velocity": 77}, {"time": 1080, "pitch": 39, "duration": 22, "velocity": 93}, {"time": 1086, "pitch": 46, "duration": 17, "velocity": 63}, {"time": 1092, "pitch": 51, "duration": 11, "velocity": 86}, {"time": 1098, "pitch": 55, "duration": 6, "velocity": 73}, {"time": 1104, "pitch": 41, "duration": 16, "velocity": 85}, {"time": 1110, "pitch": 48, "duration": 10, "velocity": 69}, {"time": 1116, "pitch": 53, "duration": 8, "velocity": 99}, {"time": 1122, "pitch": 69, "duration": 7, "velocity": 97}, {"time": 1128, "pitch": 46, "duration": 37, "velocity": 83}, {"time": 1134, "pitch": 53, "duration": 30, "velocity": 62}, {"time": 1140, "pitch": 58, "duration": 15, "velocity": 96}, {"time": 1146, "pitch": 62, "duration": 8, "velocity": 71}, {"time": 1152, "pitch": 70, "duration": 25, "velocity": 127}, {"time": 1158, "pitch": 58, "duration": 6, "velocity": 72}, {"time": 1164, "pitch": 65, "duration": 13, "velocity": 95}, {"time": 1170, "pitch": 62, "duration": 7, "velocity": 96}, {"time": 1176, "pitch": 36, "duration": 33, "velocity": 85}, {"time": 1182, "pitch": 43, "duration": 27, "velocity": 56}, {"time": 1188, "pitch": 48, "duration": 15, "velocity": 78}, {"time": 1194, "pitch": 55, "duration": 11, "velocity": 79}, {"time": 1200, "pitch": 63, "duration": 23, "velocity": 127}, {"time": 1206, "pitch": 48, "duration": 6, "velocity": 55}, {"time": 1212, "pitch": 60, "duration": 11, "velocity": 97}, {"time": 1218, "pitch": 55, "duration": 5, "velocity": 79}, {"time": 1224, "pitch": 43, "duration": 35, "velocity": 79}, {"time": 1230, "pitch": 50, "duration": 28, "velocity": 56}, {"time": 1236, "pitch": 55, "duration": 16, "velocity": 86}, {"time": 1242, "pitch": 62, "duration": 13, "velocity": 78}, {"time": 1248, "pitch": 70, "duration": 16, "velocity": 127}, {"time": 1254, "pitch": 55, "duration": 3, "velocity": 78}, {"time": 1260, "pitch": 67, "duration": 8, "velocity": 107}, {"time": 1266, "pitch": 65, "duration": 7, "velocity": 82}, {"time": 1272, "pitch": 39, "duration": 37, "velocity": 72}, {"time": 1278, "pitch": 46, "duration": 30, "velocity": 44}, {"time": 1284, "pitch": 51, "duration": 14, "velocity": 96}, {"time": 1290, "pitch": 55, "duration": 13, "velocity": 73}, {"time": 1296, "pitch": 63, "duration": 23, "velocity": 127}, {"time": 1302, "pitch": 51, "duration": 5, "velocity": 92}, {"time": 1308, "pitch": 58, "duration": 11, "velocity": 127}, {"time": 1314, "pitch": 55, "duration": 5, "velocity": 92}, {"time": 1320, "pitch": 38, "duration": 12, "velocity": 97}, {"time": 1326, "pitch": 45, "duration": 6, "velocity": 79}, {"time": 1332, "pitch": 50, "duration": 6, "velocity": 97}, {"time": 1338, "pitch": 54, "duration": 9, "velocity": 97}, {"time": 1344, "pitch": 50, "duration": 3, "velocity": 97}, {"time": 1344, "pitch": 57, "duration": 12, "velocity": 97}, {"time": 1344, "pitch": 62, "duration": 12, "velocity": 97}, {"time": 1362, "pitch": 54, "duration": 6, "velocity": 97}, {"time": 1368, "pitch": 43, "duration": 9, "velocity": 97}, {"time": 1380, "pitch": 50, "duration": 3, "velocity": 97}, {"time": 1386, "pitch": 55, "duration": 6, "velocity": 97}, {"time": 1392, "pitch": 58, "duration": 9, "velocity": 97}, {"time": 1392, "pitch": 62, "duration": 9, "velocity": 97}, {"time": 1404, "pitch": 67, "duration": 7, "velocity": 97}, {"time": 1410, "pitch": 62, "duration": 4, "velocity": 97}, {"time": 1413, "pitch": 67, "duration": 3, "velocity": 79}, {"time": 1416, "pitch": 41, "duration": 41, "velocity": 95}, {"time": 1419, "pitch": 48, "duration": 38, "velocity": 95}, {"time": 1422, "pitch": 53, "duration": 14, "velocity": 85}, {"time": 1425, "pitch": 60, "duration": 3, "velocity": 93}, {"time": 1428, "pitch": 65, "duration": 17, "velocity": 102}, {"time": 1434, "pitch": 69, "duration": 9, "velocity": 102}, {"time": 1440, "pitch": 53, "duration": 13, "velocity": 102}, {"time": 1446, "pitch": 60, "duration": 9, "velocity": 99}, {"time": 1452, "pitch": 69, "duration": 11, "velocity": 127}, {"time": 1455, "pitch": 53, "duration": 2, "velocity": 99}, {"time": 1458, "pitch": 65, "duration": 6, "velocity": 107}, {"time": 1461, "pitch": 60, "duration": 4, "velocity": 93}, {"time": 1464, "pitch": 39, "duration": 17, "velocity": 92}, {"time": 1470, "pitch": 46, "duration": 12, "velocity": 40}, {"time": 1473, "pitch": 51, "duration": 4, "velocity": 96}, {"time": 1476, "pitch": 55, "duration": 9, "velocity": 95}, {"time": 1479, "pitch": 51, "duration": 4, "velocity": 97}, {"time": 1482, "pitch": 63, "duration": 5, "velocity": 107}, {"time": 1485, "pitch": 58, "duration": 3, "velocity": 102}, {"time": 1488, "pitch": 41, "duration": 18, "velocity": 75}, {"time": 1491, "pitch": 48, "duration": 14, "velocity": 72}, {"time": 1494, "pitch": 53, "duration": 9, "velocity": 86}, {"time": 1497, "pitch": 60, "duration": 5, "velocity": 82}, {"time": 1500, "pitch": 69, "duration": 12, "velocity": 102}, {"time": 1506, "pitch": 65, "duration": 7, "velocity": 89}, {"time": 1512, "pitch": 46, "duration": 36, "velocity": 99}, {"time": 1518, "pitch": 53, "duration": 29, "velocity": 59}, {"time": 1521, "pitch": 58, "duration": 9, "velocity": 97}, {"time": 1524, "pitch": 62, "duration": 14, "velocity": 82}, {"time": 1530, "pitch": 65, "duration": 5, "velocity": 107}, {"time": 1533, "pitch": 58, "duration": 4, "velocity": 96}, {"time": 1536, "pitch": 70, "duration": 8, "velocity": 127}, {"time": 1539, "pitch": 58, "duration": 3, "velocity": 96}, {"time": 1542, "pitch": 65, "duration": 6, "velocity": 107}, {"time": 1545, "pitch": 58, "duration": 3, "velocity": 81}, {"time": 1548, "pitch": 62, "duration": 6, "velocity": 117}, {"time": 1554, "pitch": 63, "duration": 4, "velocity": 117}, {"time": 1557, "pitch": 62, "duration": 3, "velocity": 89}, {"time": 1560, "pitch": 36, "duration": 31, "velocity": 81}, {"time": 1560, "pitch": 60, "duration": 13, "velocity": 97}, {"time": 1566, "pitch": 43, "duration": 26, "velocity": 61}, {"time": 1572, "pitch": 48, "duration": 14, "velocity": 97}, {"time": 1578, "pitch": 60, "duration": 8, "velocity": 82}, {"time": 1584, "pitch": 67, "duration": 10, "velocity": 127}, {"time": 1590, "pitch": 63, "duration": 7, "velocity": 117}, {"time": 1596, "pitch": 60, "duration": 7, "velocity": 107}, {"time": 1602, "pitch": 62, "duration": 4, "velocity": 93}, {"time": 1605, "pitch": 58, "duration": 4, "velocity": 97}, {"time": 1608, "pitch": 43, "duration": 32, "velocity": 85}, {"time": 1614, "pitch": 50, "duration": 22, "velocity": 64}, {"time": 1620, "pitch": 55, "duration": 8, "velocity": 97}, {"time": 1626, "pitch": 62, "duration": 11, "velocity": 72}, {"time": 1632, "pitch": 70, "duration": 25, "velocity": 127}, {"time": 1638, "pitch": 50, "duration": 3, "velocity": 83}, {"time": 1644, "pitch": 65, "duration": 7, "velocity": 92}, {"time": 1650, "pitch": 67, "duration": 8, "velocity": 82}, {"time": 1656, "pitch": 39, "duration": 36, "velocity": 77}, {"time": 1662, "pitch": 46, "duration": 29, "velocity": 35}, {"time": 1668, "pitch": 51, "duration": 14, "velocity": 96}, {"time": 1674, "pitch": 55, "duration": 14, "velocity": 88}, {"time": 1680, "pitch": 63, "duration": 22, "velocity": 127}, {"time": 1686, "pitch": 51, "duration": 4, "velocity": 99}, {"time": 1692, "pitch": 58, "duration": 11, "velocity": 127}, {"time": 1698, "pitch": 55, "duration": 4, "velocity": 93}, {"time": 1704, "pitch": 38, "duration": 46, "velocity": 83}, {"time": 1710, "pitch": 45, "duration": 37, "velocity": 53}, {"time": 1710, "pitch": 62, "duration": 10, "velocity": 107}, {"time": 1710, "pitch": 74, "duration": 5, "velocity": 97}, {"time": 1716, "pitch": 50, "duration": 14, "velocity": 79}, {"time": 1722, "pitch": 62, "duration": 5, "velocity": 69}, {"time": 1722, "pitch": 66, "duration": 5, "velocity": 90}, {"time": 1722, "pitch": 69, "duration": 4, "velocity": 89}, {"time": 1728, "pitch": 66, "duration": 10, "velocity": 127}, {"time": 1728, "pitch": 69, "duration": 9, "velocity": 127}, {"time": 1734, "pitch": 50, "duration": 7, "velocity": 92}, {"time": 1740, "pitch": 66, "duration": 12, "velocity": 127}, {"time": 1740, "pitch": 69, "duration": 12, "velocity": 122}, {"time": 1746, "pitch": 62, "duration": 6, "velocity": 100}, {"time": 1752, "pitch": 43, "duration": 42, "velocity": 97}, {"time": 1758, "pitch": 50, "duration": 36, "velocity": 85}, {"time": 1761, "pitch": 55, "duration": 6, "velocity": 92}, {"time": 1764, "pitch": 62, "duration": 14, "velocity": 93}, {"time": 1770, "pitch": 55, "duration": 7, "velocity": 99}, {"time": 1776, "pitch": 70, "duration": 8, "velocity": 127}, {"time": 1782, "pitch": 55, "duration": 7, "velocity": 100}, {"time": 1788, "pitch": 67, "duration": 7, "velocity": 97}, {"time": 1794, "pitch": 62, "duration": 4, "velocity": 97}, {"time": 1797, "pitch": 67, "duration": 3, "velocity": 79}, {"time": 1800, "pitch": 41, "duration": 41, "velocity": 95}, {"time": 1803, "pitch": 48, "duration": 38, "velocity": 95}, {"time": 1806, "pitch": 53, "duration": 14, "velocity": 85}, {"time": 1809, "pitch": 60, "duration": 3, "velocity": 93}, {"time": 1812, "pitch": 65, "duration": 17, "velocity": 102}, {"time": 1818, "pitch": 69, "duration": 9, "velocity": 102}, {"time": 1824, "pitch": 53, "duration": 13, "velocity": 102}, {"time": 1830, "pitch": 60, "duration": 9, "velocity": 99}, {"time": 1836, "pitch": 69, "duration": 11, "velocity": 127}, {"time": 1839, "pitch": 53, "duration": 2, "velocity": 99}, {"time": 1842, "pitch": 65, "duration": 6, "velocity": 107}, {"time": 1845, "pitch": 60, "duration": 4, "velocity": 93}, {"time": 1848, "pitch": 39, "duration": 17, "velocity": 92}, {"time": 1854, "pitch": 46, "duration": 12, "velocity": 40}, {"time": 1857, "pitch": 51, "duration": 4, "velocity": 96}, {"time": 1860, "pitch": 55, "duration": 9, "velocity": 95}, {"time": 1863, "pitch": 51, "duration": 4, "velocity": 97}, {"time": 1866, "pitch": 63, "duration": 5, "velocity": 107}, {"time": 1869, "pitch": 58, "duration": 3, "velocity": 102}, {"time": 1872, "pitch": 41, "duration": 18, "velocity": 75}, {"time": 1875, "pitch": 48, "duration": 14, "velocity": 72}, {"time": 1878, "pitch": 53, "duration": 9, "velocity": 86}, {"time": 1881, "pitch": 60, "duration": 5, "velocity": 82}, {"time": 1884, "pitch": 69, "duration": 12, "velocity": 102}, {"time": 1890, "pitch": 65, "duration": 7, "velocity": 89}, {"time": 1896, "pitch": 46, "duration": 36, "velocity": 99}, {"time": 1902, "pitch": 53, "duration": 29, "velocity": 59}, {"time": 1905, "pitch": 58, "duration": 9, "velocity": 97}, {"time": 1908, "pitch": 62, "duration": 14, "velocity": 82}, {"time": 1914, "pitch": 65, "duration": 5, "velocity": 107}, {"time": 1917, "pitch": 58, "duration": 4, "velocity": 96}, {"time": 1920, "pitch": 70, "duration": 8, "velocity": 127}, {"time": 1923, "pitch": 58, "duration": 3, "velocity": 96}, {"time": 1926, "pitch": 65, "duration": 6, "velocity": 107}, {"time": 1929, "pitch": 58, "duration": 3, "velocity": 81}, {"time": 1932, "pitch": 62, "duration": 6, "velocity": 117}, {"time": 1938, "pitch": 63, "duration": 4, "velocity": 117}, {"time": 1941, "pitch": 62, "duration": 3, "velocity": 89}, {"time": 1944, "pitch": 36, "duration": 31, "velocity": 81}, {"time": 1944, "pitch": 60, "duration": 13, "velocity": 97}, {"time": 1950, "pitch": 43, "duration": 26, "velocity": 61}, {"time": 1956, "pitch": 48, "duration": 14, "velocity": 97}, {"time": 1962, "pitch": 60, "duration": 8, "velocity": 82}, {"time": 1968, "pitch": 67, "duration": 10, "velocity": 127}, {"time": 1974, "pitch": 63, "duration": 7, "velocity": 117}, {"time": 1980, "pitch": 60, "duration": 7, "velocity": 107}, {"time": 1986, "pitch": 62, "duration": 4, "velocity": 93}, {"time": 1989, "pitch": 58, "duration": 4, "velocity": 97}, {"time": 1992, "pitch": 43, "duration": 32, "velocity": 85}, {"time": 1998, "pitch": 50, "duration": 22, "velocity": 64}, {"time": 2004, "pitch": 55, "duration": 8, "velocity": 97}, {"time": 2010, "pitch": 62, "duration": 11, "velocity": 72}, {"time": 2016, "pitch": 70, "duration": 25, "velocity": 127}, {"time": 2022, "pitch": 50, "duration": 3, "velocity": 83}, {"time": 2028, "pitch": 65, "duration": 7, "velocity": 92}, {"time": 2034, "pitch": 67, "duration": 8, "velocity": 82}, {"time": 2040, "pitch": 39, "duration": 36, "velocity": 77}, {"time": 2046, "pitch": 46, "duration": 29, "velocity": 35}, {"time": 2052, "pitch": 51, "duration": 14, "velocity": 96}, {"time": 2058, "pitch": 55, "duration": 14, "velocity": 88}, {"time": 2064, "pitch": 63, "duration": 22, "velocity": 127}, {"time": 2070, "pitch": 51, "duration": 4, "velocity": 99}, {"time": 2076, "pitch": 58, "duration": 11, "velocity": 127}, {"time": 2082, "pitch": 55, "duration": 4, "velocity": 93}, {"time": 2088, "pitch": 38, "duration": 46, "velocity": 83}, {"time": 2094, "pitch": 45, "duration": 37, "velocity": 53}, {"time": 2094, "pitch": 62, "duration": 10, "velocity": 107}, {"time": 2094, "pitch": 74, "duration": 5, "velocity": 97}, {"time": 2100, "pitch": 50, "duration": 14, "velocity": 79}, {"time": 2106, "pitch": 62, "duration": 5, "velocity": 69}, {"time": 2106, "pitch": 66, "duration": 5, "velocity": 90}, {"time": 2106, "pitch": 69, "duration": 4, "velocity": 89}, {"time": 2112, "pitch": 66, "duration": 10, "velocity": 127}, {"time": 2112, "pitch": 69, "duration": 9, "velocity": 127}, {"time": 2118, "pitch": 50, "duration": 7, "velocity": 92}, {"time": 2124, "pitch": 66, "duration": 12, "velocity": 127}, {"time": 2124, "pitch": 69, "duration": 12, "velocity": 122}, {"time": 2130, "pitch": 62, "duration": 6, "velocity": 100}, {"time": 2136, "pitch": 43, "duration": 42, "velocity": 96}, {"time": 2142, "pitch": 50, "duration": 36, "velocity": 67}, {"time": 2148, "pitch": 55, "duration": 15, "velocity": 96}, {"time": 2154, "pitch": 62, "duration": 10, "velocity": 81}, {"time": 2160, "pitch": 70, "duration": 23, "velocity": 127}, {"time": 2166, "pitch": 55, "duration": 6, "velocity": 83}, {"time": 2172, "pitch": 67, "duration": 12, "velocity": 97}, {"time": 2178, "pitch": 62, "duration": 6, "velocity": 81}, {"time": 2184, "pitch": 41, "duration": 32, "velocity": 83}, {"time": 2190, "pitch": 48, "duration": 27, "velocity": 63}, {"time": 2196, "pitch": 53, "duration": 15, "velocity": 93}, {"time": 2202, "pitch": 60, "duration": 15, "velocity": 85}, {"time": 2208, "pitch": 69, "duration": 24, "velocity": 127}, {"time": 2214, "pitch": 53, "duration": 2, "velocity": 92}, {"time": 2220, "pitch": 65, "duration": 12, "velocity": 100}, {"time": 2226, "pitch": 60, "duration": 6, "velocity": 92}, {"time": 2232, "pitch": 39, "duration": 18, "velocity": 93}, {"time": 2238, "pitch": 46, "duration": 13, "velocity": 58}, {"time": 2244, "pitch": 51, "duration": 7, "velocity": 100}, {"time": 2250, "pitch": 58, "duration": 7, "velocity": 117}, {"time": 2256, "pitch": 41, "duration": 13, "velocity": 77}, {"time": 2262, "pitch": 48, "duration": 9, "velocity": 72}, {"time": 2268, "pitch": 60, "duration": 8, "velocity": 107}, {"time": 2274, "pitch": 57, "duration": 6, "velocity": 82}, {"time": 2280, "pitch": 46, "duration": 38, "velocity": 96}, {"time": 2286, "pitch": 53, "duration": 30, "velocity": 60}, {"time": 2292, "pitch": 58, "duration": 7, "velocity": 102}, {"time": 2298, "pitch": 62, "duration": 6, "velocity": 112}, {"time": 2304, "pitch": 65, "duration": 5, "velocity": 107}, {"time": 2310, "pitch": 62, "duration": 2, "velocity": 93}, {"time": 2316, "pitch": 58, "duration": 7, "velocity": 122}, {"time": 2322, "pitch": 55, "duration": 7, "velocity": 99}, {"time": 2328, "pitch": 36, "duration": 34, "velocity": 81}, {"time": 2334, "pitch": 43, "duration": 28, "velocity": 58}, {"time": 2340, "pitch": 48, "duration": 19, "velocity": 90}, {"time": 2346, "pitch": 55, "duration": 6, "velocity": 92}, {"time": 2352, "pitch": 63, "duration": 5, "velocity": 127}, {"time": 2358, "pitch": 62, "duration": 3, "velocity": 93}, {"time": 2364, "pitch": 60, "duration": 6, "velocity": 99}, {"time": 2370, "pitch": 58, "duration": 7, "velocity": 90}, {"time": 2376, "pitch": 43, "duration": 34, "velocity": 79}, {"time": 2382, "pitch": 50, "duration": 21, "velocity": 70}, {"time": 2388, "pitch": 55, "duration": 7, "velocity": 74}, {"time": 2394, "pitch": 67, "duration": 5, "velocity": 77}, {"time": 2394, "pitch": 70, "duration": 4, "velocity": 77}, {"time": 2400, "pitch": 67, "duration": 12, "velocity": 99}, {"time": 2400, "pitch": 70, "duration": 11, "velocity": 127}, {"time": 2406, "pitch": 50, "duration": 3, "velocity": 72}, {"time": 2412, "pitch": 62, "duration": 9, "velocity": 102}, {"time": 2418, "pitch": 67, "duration": 7, "velocity": 92}, {"time": 2424, "pitch": 39, "duration": 38, "velocity": 86}, {"time": 2430, "pitch": 46, "duration": 30, "velocity": 65}, {"time": 2436, "pitch": 51, "duration": 14, "velocity": 90}, {"time": 2442, "pitch": 55, "duration": 13, "velocity": 77}, {"time": 2448, "pitch": 63, "duration": 21, "velocity": 127}, {"time": 2454, "pitch": 51, "duration": 6, "velocity": 71}, {"time": 2460, "pitch": 58, "duration": 11, "velocity": 122}, {"time": 2466, "pitch": 55, "duration": 7, "velocity": 88}, {"time": 2472, "pitch": 38, "duration": 42, "velocity": 89}, {"time": 2478, "pitch": 45, "duration": 36, "velocity": 68}, {"time": 2484, "pitch": 50, "duration": 14, "velocity": 79}, {"time": 2490, "pitch": 57, "duration": 10, "velocity": 79}, {"time": 2496, "pitch": 66, "duration": 13, "velocity": 127}, {"time": 2502, "pitch": 50, "duration": 13, "velocity": 95}, {"time": 2508, "pitch": 57, "duration": 8, "velocity": 100}, {"time": 2514, "pitch": 66, "duration": 5, "velocity": 107}, {"time": 2520, "pitch": 38, "duration": 49, "velocity": 63}, {"time": 2520, "pitch": 45, "duration": 48, "velocity": 72}, {"time": 2520, "pitch": 50, "duration": 48, "velocity": 95}, {"time": 2520, "pitch": 57, "duration": 49, "velocity": 88}, {"time": 2520, "pitch": 62, "duration": 49, "velocity": 90}, {"time": 2520, "pitch": 66, "duration": 49, "velocity": 89}, {"time": 2568, "pitch": 43, "duration": 25, "velocity": 53}, {"time": 2568, "pitch": 50, "duration": 1, "velocity": 54}, {"time": 2568, "pitch": 55, "duration": 26, "velocity": 48}, {"time": 2568, "pitch": 74, "duration": 37, "velocity": 57}, {"time": 2568, "pitch": 79, "duration": 38, "velocity": 68}, {"time": 2568, "pitch": 82, "duration": 31, "velocity": 79}, {"time": 2616, "pitch": 53, "duration": 24, "velocity": 41}, {"time": 2616, "pitch": 60, "duration": 23, "velocity": 44}, {"time": 2616, "pitch": 65, "duration": 15, "velocity": 51}, {"time": 2616, "pitch": 72, "duration": 29, "velocity": 41}, {"time": 2616, "pitch": 77, "duration": 26, "velocity": 60}, {"time": 2616, "pitch": 81, "duration": 26, "velocity": 56}, {"time": 2664, "pitch": 51, "duration": 10, "velocity": 63}, {"time": 2664, "pitch": 75, "duration": 13, "velocity": 88}, {"time": 2664, "pitch": 79, "duration": 12, "velocity": 48}, {"time": 2664, "pitch": 82, "duration": 10, "velocity": 73}, {"time": 2688, "pitch": 53, "duration": 15, "velocity": 52}, {"time": 2688, "pitch": 60, "duration": 15, "velocity": 57}, {"time": 2688, "pitch": 72, "duration": 18, "velocity": 72}, {"time": 2688, "pitch": 77, "duration": 16, "velocity": 75}, {"time": 2688, "pitch": 81, "duration": 16, "velocity": 75}, {"time": 2712, "pitch": 58, "duration": 36, "velocity": 51}, {"time": 2712, "pitch": 65, "duration": 18, "velocity": 40}, {"time": 2712, "pitch": 70, "duration": 25, "velocity": 54}, {"time": 2712, "pitch": 74, "duration": 26, "velocity": 49}, {"time": 2712, "pitch": 77, "duration": 25, "velocity": 52}, {"time": 2736, "pitch": 69, "duration": 6, "velocity": 90}, {"time": 2742, "pitch": 70, "duration": 6, "velocity": 107}, {"time": 2748, "pitch": 69, "duration": 2, "velocity": 58}, {"time": 2760, "pitch": 48, "duration": 36, "velocity": 45}, {"time": 2760, "pitch": 55, "duration": 34, "velocity": 54}, {"time": 2760, "pitch": 60, "duration": 38, "velocity": 71}, {"time": 2760, "pitch": 63, "duration": 37, "velocity": 67}, {"time": 2760, "pitch": 67, "duration": 36, "velocity": 63}, {"time": 2808, "pitch": 43, "duration": 28, "velocity": 43}, {"time": 2808, "pitch": 50, "duration": 28, "velocity": 53}, {"time": 2808, "pitch": 62, "duration": 31, "velocity": 64}, {"time": 2808, "pitch": 67, "duration": 32, "velocity": 61}, {"time": 2808, "pitch": 70, "duration": 33, "velocity": 61}, {"time": 2856, "pitch": 46, "duration": 32, "velocity": 53}, {"time": 2856, "pitch": 58, "duration": 31, "velocity": 59}, {"time": 2856, "pitch": 65, "duration": 27, "velocity": 56}, {"time": 2856, "pitch": 70, "duration": 29, "velocity": 59}, {"time": 2856, "pitch": 74, "duration": 29, "velocity": 65}, {"time": 2904, "pitch": 50, "duration": 48, "velocity": 61}, {"time": 2904, "pitch": 54, "duration": 38, "velocity": 66}, {"time": 2904, "pitch": 57, "duration": 25, "velocity": 54}, {"time": 2904, "pitch": 62, "duration": 15, "velocity": 61}, {"time": 2904, "pitch": 66, "duration": 22, "velocity": 75}, {"time": 2904, "pitch": 69, "duration": 20, "velocity": 70}, {"time": 2922, "pitch": 62, "duration": 8, "velocity": 67}, {"time": 2928, "pitch": 69, "duration": 24, "velocity": 127}, {"time": 2934, "pitch": 57, "duration": 8, "velocity": 62}, {"time": 2940, "pitch": 66, "duration": 12, "velocity": 127}, {"time": 2946, "pitch": 62, "duration": 6, "velocity": 100}, {"time": 2952, "pitch": 43, "duration": 40, "velocity": 81}, {"time": 2952, "pitch": 55, "duration": 5, "velocity": 78}, {"time": 2958, "pitch": 50, "duration": 29, "velocity": 72}, {"time": 2964, "pitch": 55, "duration": 14, "velocity": 78}, {"time": 2970, "pitch": 67, "duration": 5, "velocity": 55}, {"time": 2970, "pitch": 70, "duration": 4, "velocity": 58}, {"time": 2976, "pitch": 67, "duration": 15, "velocity": 99}, {"time": 2976, "pitch": 70, "duration": 14, "velocity": 122}, {"time": 2982, "pitch": 55, "duration": 3, "velocity": 71}, {"time": 2988, "pitch": 62, "duration": 11, "velocity": 75}, {"time": 2994, "pitch": 67, "duration": 5, "velocity": 79}, {"time": 3000, "pitch": 41, "duration": 37, "velocity": 53}, {"time": 3006, "pitch": 48, "duration": 30, "velocity": 53}, {"time": 3012, "pitch": 53, "duration": 18, "velocity": 71}, {"time": 3018, "pitch": 60, "duration": 20, "velocity": 79}, {"time": 3024, "pitch": 69, "duration": 9, "velocity": 122}, {"time": 3036, "pitch": 65, "duration": 13, "velocity": 82}, {"time": 3036, "pitch": 69, "duration": 13, "velocity": 92}, {"time": 3042, "pitch": 60, "duration": 8, "velocity": 77}, {"time": 3048, "pitch": 39, "duration": 22, "velocity": 93}, {"time": 3054, "pitch": 46, "duration": 17, "velocity": 63}, {"time": 3060, "pitch": 51, "duration": 11, "velocity": 86}, {"time": 3066, "pitch": 55, "duration": 6, "velocity": 73}, {"time": 3072, "pitch": 41, "duration": 16, "velocity": 85}, {"time": 3078, "pitch": 48, "duration": 10, "velocity": 69}, {"time": 3084, "pitch": 53, "duration": 8, "velocity": 99}, {"time": 3090, "pitch": 69, "duration": 7, "velocity": 97}, {"time": 3096, "pitch": 46, "duration": 37, "velocity": 83}, {"time": 3102, "pitch": 53, "duration": 30, "velocity": 62}, {"time": 3108, "pitch": 58, "duration": 15, "velocity": 96}, {"time": 3114, "pitch": 62, "duration": 8, "velocity": 71}, {"time": 3120, "pitch": 70, "duration": 25, "velocity": 127}, {"time": 3126, "pitch": 58, "duration": 6, "velocity": 72}, {"time": 3132, "pitch": 65, "duration": 13, "velocity": 95}, {"time": 3138, "pitch": 62, "duration": 7, "velocity": 96}, {"time": 3144, "pitch": 36, "duration": 33, "velocity": 85}, {"time": 3150, "pitch": 43, "duration": 27, "velocity": 56}, {"time": 3156, "pitch": 48, "duration": 15, "velocity": 78}, {"time": 3162, "pitch": 55, "duration": 11, "velocity": 79}, {"time": 3168, "pitch": 63, "duration": 23, "velocity": 127}, {"time": 3174, "pitch": 48, "duration": 6, "velocity": 55}, {"time": 3180, "pitch": 60, "duration": 11, "velocity": 97}, {"time": 3186, "pitch": 55, "duration": 5, "velocity": 79}, {"time": 3192, "pitch": 43, "duration": 35, "velocity": 79}, {"time": 3198, "pitch": 50, "duration": 28, "velocity": 56}, {"time": 3204, "pitch": 55, "duration": 16, "velocity": 86}, {"time": 3210, "pitch": 62, "duration": 13, "velocity": 78}, {"time": 3216, "pitch": 70, "duration": 16, "velocity": 127}, {"time": 3222, "pitch": 55, "duration": 3, "velocity": 78}, {"time": 3228, "pitch": 67, "duration": 8, "velocity": 107}, {"time": 3234, "pitch": 65, "duration": 7, "velocity": 82}, {"time": 3240, "pitch": 39, "duration": 37, "velocity": 72}, {"time": 3246, "pitch": 46, "duration": 30, "velocity": 44}, {"time": 3252, "pitch": 51, "duration": 14, "velocity": 96}, {"time": 3258, "pitch": 55, "duration": 13, "velocity": 73}, {"time": 3264, "pitch": 63, "duration": 23, "velocity": 127}, {"time": 3270, "pitch": 51, "duration": 5, "velocity": 92}, {"time": 3276, "pitch": 58, "duration": 11, "velocity": 127}, {"time": 3282, "pitch": 55, "duration": 5, "velocity": 92}, {"time": 3288, "pitch": 38, "duration": 38, "velocity": 97}, {"time": 3294, "pitch": 45, "duration": 32, "velocity": 79}, {"time": 3300, "pitch": 50, "duration": 14, "velocity": 99}, {"time": 3306, "pitch": 66, "duration": 5, "velocity": 117}, {"time": 3306, "pitch": 69, "duration": 4, "velocity": 96}, {"time": 3312, "pitch": 66, "duration": 10, "velocity": 127}, {"time": 3312, "pitch": 69, "duration": 10, "velocity": 122}, {"time": 3318, "pitch": 50, "duration": 10, "velocity": 102}, {"time": 3324, "pitch": 66, "duration": 10, "velocity": 127}, {"time": 3324, "pitch": 69, "duration": 6, "velocity": 127}, {"time": 3330, "pitch": 62, "duration": 6, "velocity": 95}, {"time": 3336, "pitch": 43, "duration": 42, "velocity": 97}, {"time": 3342, "pitch": 50, "duration": 36, "velocity": 85}, {"time": 3345, "pitch": 55, "duration": 6, "velocity": 92}, {"time": 3348, "pitch": 62, "duration": 14, "velocity": 93}, {"time": 3354, "pitch": 55, "duration": 7, "velocity": 99}, {"time": 3360, "pitch": 70, "duration": 8, "velocity": 127}, {"time": 3366, "pitch": 55, "duration": 7, "velocity": 100}, {"time": 3372, "pitch": 67, "duration": 7, "velocity": 97}, {"time": 3378, "pitch": 62, "duration": 4, "velocity": 97}, {"time": 3381, "pitch": 67, "duration": 3, "velocity": 79}, {"time": 3384, "pitch": 41, "duration": 41, "velocity": 95}, {"time": 3387, "pitch": 48, "duration": 38, "velocity": 95}, {"time": 3390, "pitch": 53, "duration": 14, "velocity": 85}, {"time": 3393, "pitch": 60, "duration": 3, "velocity": 93}, {"time": 3396, "pitch": 65, "duration": 17, "velocity": 102}, {"time": 3402, "pitch": 69, "duration": 9, "velocity": 102}, {"time": 3408, "pitch": 53, "duration": 13, "velocity": 102}, {"time": 3414, "pitch": 60, "duration": 9, "velocity": 99}, {"time": 3420, "pitch": 69, "duration": 11, "velocity": 127}, {"time": 3423, "pitch": 53, "duration": 2, "velocity": 99}, {"time": 3426, "pitch": 65, "duration": 6, "velocity": 107}, {"time": 3429, "pitch": 60, "duration": 4, "velocity": 93}, {"time": 3432, "pitch": 39, "duration": 17, "velocity": 92}, {"time": 3438, "pitch": 46, "duration": 12, "velocity": 40}, {"time": 3441, "pitch": 51, "duration": 4, "velocity": 96}, {"time": 3444, "pitch": 55, "duration": 9, "velocity": 95}, {"time": 3447, "pitch": 51, "duration": 4, "velocity": 97}, {"time": 3450, "pitch": 63, "duration": 5, "velocity": 107}, {"time": 3453, "pitch": 58, "duration": 3, "velocity": 102}, {"time": 3456, "pitch": 41, "duration": 18, "velocity": 75}, {"time": 3459, "pitch": 48, "duration": 14, "velocity": 72}, {"time": 3462, "pitch": 53, "duration": 9, "velocity": 86}, {"time": 3465, "pitch": 60, "duration": 5, "velocity": 82}, {"time": 3468, "pitch": 69, "duration": 12, "velocity": 102}, {"time": 3474, "pitch": 65, "duration": 7, "velocity": 89}, {"time": 3480, "pitch": 46, "duration": 36, "velocity": 99}, {"time": 3486, "pitch": 53, "duration": 29, "velocity": 59}, {"time": 3489, "pitch": 58, "duration": 9, "velocity": 97}, {"time": 3492, "pitch": 62, "duration": 14, "velocity": 82}, {"time": 3498, "pitch": 65, "duration": 5, "velocity": 107}, {"time": 3501, "pitch": 58, "duration": 4, "velocity": 96}, {"time": 3504, "pitch": 70, "duration": 8, "velocity": 127}, {"time": 3507, "pitch": 58, "duration": 3, "velocity": 96}, {"time": 3510, "pitch": 65, "duration": 6, "velocity": 107}, {"time": 3513, "pitch": 58, "duration": 3, "velocity": 81}, {"time": 3516, "pitch": 62, "duration": 6, "velocity": 117}, {"time": 3522, "pitch": 63, "duration": 4, "velocity": 117}, {"time": 3525, "pitch": 62, "duration": 3, "velocity": 89}, {"time": 3528, "pitch": 36, "duration": 31, "velocity": 81}, {"time": 3528, "pitch": 60, "duration": 13, "velocity": 97}, {"time": 3534, "pitch": 43, "duration": 26, "velocity": 61}, {"time": 3540, "pitch": 48, "duration": 14, "velocity": 97}, {"time": 3546, "pitch": 60, "duration": 8, "velocity": 82}, {"time": 3552, "pitch": 67, "duration": 10, "velocity": 127}, {"time": 3558, "pitch": 63, "duration": 7, "velocity": 117}, {"time": 3564, "pitch": 60, "duration": 7, "velocity": 107}, {"time": 3570, "pitch": 62, "duration": 4, "velocity": 93}, {"time": 3573, "pitch": 58, "duration": 4, "velocity": 97}, {"time": 3576, "pitch": 43, "duration": 32, "velocity": 85}, {"time": 3582, "pitch": 50, "duration": 22, "velocity": 64}, {"time": 3588, "pitch": 55, "duration": 8, "velocity": 97}, {"time": 3594, "pitch": 62, "duration": 11, "velocity": 72}, {"time": 3600, "pitch": 70, "duration": 25, "velocity": 127}, {"time": 3606, "pitch": 50, "duration": 3, "velocity": 83}, {"time": 3612, "pitch": 65, "duration": 7, "velocity": 92}, {"time": 3618, "pitch": 67, "duration": 8, "velocity": 82}, {"time": 3624, "pitch": 39, "duration": 36, "velocity": 77}, {"time": 3630, "pitch": 46, "duration": 29, "velocity": 35}, {"time": 3636, "pitch": 51, "duration": 14, "velocity": 96}, {"time": 3642, "pitch": 55, "duration": 14, "velocity": 88}, {"time": 3648, "pitch": 63, "duration": 22, "velocity": 127}, {"time": 3654, "pitch": 51, "duration": 4, "velocity": 99}, {"time": 3660, "pitch": 58, "duration": 11, "velocity": 127}, {"time": 3666, "pitch": 55, "duration": 4, "velocity": 93}, {"time": 3672, "pitch": 38, "duration": 46, "velocity": 83}, {"time": 3678, "pitch": 45, "duration": 37, "velocity": 53}, {"time": 3678, "pitch": 62, "duration": 10, "velocity": 107}, {"time": 3678, "pitch": 74, "duration": 5, "velocity": 97}, {"time": 3684, "pitch": 50, "duration": 14, "velocity": 79}, {"time": 3690, "pitch": 62, "duration": 5, "velocity": 69}, {"time": 3690, "pitch": 66, "duration": 5, "velocity": 90}, {"time": 3690, "pitch": 69, "duration": 4, "velocity": 89}, {"time": 3696, "pitch": 66, "duration": 10, "velocity": 127}, {"time": 3696, "pitch": 69, "duration": 9, "velocity": 127}, {"time": 3702, "pitch": 50, "duration": 7, "velocity": 92}, {"time": 3708, "pitch": 66, "duration": 12, "velocity": 127}, {"time": 3708, "pitch": 69, "duration": 12, "velocity": 122}, {"time": 3714, "pitch": 62, "duration": 6, "velocity": 100}, {"time": 3720, "pitch": 43, "duration": 42, "velocity": 97}, {"time": 3726, "pitch": 50, "duration": 36, "velocity": 85}, {"time": 3729, "pitch": 55, "duration": 6, "velocity": 92}, {"time": 3732, "pitch": 62, "duration": 14, "velocity": 93}, {"time": 3738, "pitch": 55, "duration": 7, "velocity": 99}, {"time": 3744, "pitch": 70, "duration": 8, "velocity": 127}, {"time": 3750, "pitch": 55, "duration": 7, "velocity": 100}, {"time": 3756, "pitch": 67, "duration": 7, "velocity": 97}, {"time": 3762, "pitch": 62, "duration": 4, "velocity": 97}, {"time": 3765, "pitch": 67, "duration": 3, "velocity": 79}, {"time": 3768, "pitch": 41, "duration": 41, "velocity": 95}, {"time": 3771, "pitch": 48, "duration": 38, "velocity": 95}, {"time": 3774, "pitch": 53, "duration": 14, "velocity": 85}, {"time": 3777, "pitch": 60, "duration": 3, "velocity": 93}, {"time": 3780, "pitch": 65, "duration": 17, "velocity": 102}, {"time": 3786, "pitch": 69, "duration": 9, "velocity": 102}, {"time": 3792, "pitch": 53, "duration": 13, "velocity": 102}, {"time": 3798, "pitch": 60, "duration": 9, "velocity": 99}, {"time": 3804, "pitch": 69, "duration": 11, "velocity": 127}, {"time": 3807, "pitch": 53, "duration": 2, "velocity": 99}, {"time": 3810, "pitch": 65, "duration": 6, "velocity": 107}, {"time": 3813, "pitch": 60, "duration": 4, "velocity": 93}, {"time": 3816, "pitch": 39, "duration": 17, "velocity": 92}, {"time": 3822, "pitch": 46, "duration": 12, "velocity": 40}, {"time": 3825, "pitch": 51, "duration": 4, "velocity": 96}, {"time": 3828, "pitch": 55, "duration": 9, "velocity": 95}, {"time": 3831, "pitch": 51, "duration": 4, "velocity": 97}, {"time": 3834, "pitch": 63, "duration": 5, "velocity": 107}, {"time": 3837, "pitch": 58, "duration": 3, "velocity": 102}, {"time": 3840, "pitch": 41, "duration": 18, "velocity": 75}, {"time": 3843, "pitch": 48, "duration": 14, "velocity": 72}, {"time": 3846, "pitch": 53, "duration": 9, "velocity": 86}, {"time": 3849, "pitch": 60, "duration": 5, "velocity": 82}, {"time": 3852, "pitch": 69, "duration": 12, "velocity": 102}, {"time": 3858, "pitch": 65, "duration": 7, "velocity": 89}, {"time": 3864, "pitch": 46, "duration": 36, "velocity": 99}, {"time": 3870, "pitch": 53, "duration": 29, "velocity": 59}, {"time": 3873, "pitch": 58, "duration": 9, "velocity": 97}, {"time": 3876, "pitch": 62, "duration": 14, "velocity": 82}, {"time": 3882, "pitch": 65, "duration": 5, "velocity": 107}, {"time": 3885, "pitch": 58, "duration": 4, "velocity": 96}, {"time": 3888, "pitch": 70, "duration": 8, "velocity": 127}, {"time": 3891, "pitch": 58, "duration": 3, "velocity": 96}, {"time": 3894, "pitch": 65, "duration": 6, "velocity": 107}, {"time": 3897, "pitch": 58, "duration": 3, "velocity": 81}, {"time": 3900, "pitch": 62, "duration": 6, "velocity": 117}, {"time": 3906, "pitch": 63, "duration": 4, "velocity": 117}, {"time": 3909, "pitch": 62, "duration": 3, "velocity": 89}, {"time": 3912, "pitch": 36, "duration": 31, "velocity": 81}, {"time": 3912, "pitch": 60, "duration": 13, "velocity": 97}, {"time": 3918, "pitch": 43, "duration": 26, "velocity": 61}, {"time": 3924, "pitch": 48, "duration": 14, "velocity": 97}, {"time": 3930, "pitch": 60, "duration": 8, "velocity": 82}, {"time": 3936, "pitch": 67, "duration": 10, "velocity": 127}, {"time": 3942, "pitch": 63, "duration": 7, "velocity": 117}, {"time": 3948, "pitch": 60, "duration": 7, "velocity": 107}, {"time": 3954, "pitch": 62, "duration": 4, "velocity": 93}, {"time": 3957, "pitch": 58, "duration": 4, "velocity": 97}, {"time": 3960, "pitch": 43, "duration": 32, "velocity": 85}, {"time": 3966, "pitch": 50, "duration": 22, "velocity": 64}, {"time": 3972, "pitch": 55, "duration": 8, "velocity": 97}, {"time": 3978, "pitch": 62, "duration": 11, "velocity": 72}, {"time": 3984, "pitch": 70, "duration": 25, "velocity": 127}, {"time": 3990, "pitch": 50, "duration": 3, "velocity": 83}, {"time": 3996, "pitch": 65, "duration": 7, "velocity": 92}, {"time": 4002, "pitch": 67, "duration": 8, "velocity": 82}, {"time": 4008, "pitch": 39, "duration": 36, "velocity": 77}, {"time": 4014, "pitch": 46, "duration": 29, "velocity": 35}, {"time": 4020, "pitch": 51, "duration": 14, "velocity": 96}, {"time": 4026, "pitch": 55, "duration": 14, "velocity": 88}, {"time": 4032, "pitch": 63, "duration": 22, "velocity": 127}, {"time": 4038, "pitch": 51, "duration": 4, "velocity": 99}, {"time": 4044, "pitch": 58, "duration": 11, "velocity": 127}, {"time": 4050, "pitch": 55, "duration": 4, "velocity": 93}, {"time": 4056, "pitch": 38, "duration": 46, "velocity": 83}, {"time": 4062, "pitch": 45, "duration": 37, "velocity": 53}, {"time": 4062, "pitch": 62, "duration": 10, "velocity": 107}, {"time": 4062, "pitch": 74, "duration": 5, "velocity": 97}, {"time": 4068, "pitch": 50, "duration": 14, "velocity": 79}, {"time": 4074, "pitch": 62, "duration": 5, "velocity": 69}, {"time": 4074, "pitch": 66, "duration": 5, "velocity": 90}, {"time": 4074, "pitch": 69, "duration": 4, "velocity": 89}, {"time": 4080, "pitch": 66, "duration": 10, "velocity": 127}, {"time": 4080, "pitch": 69, "duration": 9, "velocity": 127}, {"time": 4086, "pitch": 50, "duration": 7, "velocity": 92}, {"time": 4092, "pitch": 66, "duration": 12, "velocity": 127}, {"time": 4092, "pitch": 69, "duration": 12, "velocity": 122}, {"time": 4098, "pitch": 62, "duration": 6, "velocity": 100}, {"time": 4104, "pitch": 43, "duration": 3, "velocity": 74}, {"time": 4104, "pitch": 55, "duration": 2, "velocity": 92}, {"time": 4116, "pitch": 43, "duration": 3, "velocity": 74}, {"time": 4116, "pitch": 55, "duration": 3, "velocity": 79}, {"time": 4128, "pitch": 42, "duration": 2, "velocity": 69}, {"time": 4128, "pitch": 54, "duration": 2, "velocity": 96}, {"time": 4140, "pitch": 42, "duration": 2, "velocity": 79}, {"time": 4140, "pitch": 54, "duration": 2, "velocity": 85}, {"time": 4152, "pitch": 43, "duration": 3, "velocity": 76}, {"time": 4152, "pitch": 55, "duration": 3, "velocity": 96}, {"time": 4152, "pitch": 62, "duration": 3, "velocity": 78}, {"time": 4164, "pitch": 43, "duration": 3, "velocity": 86}, {"time": 4164, "pitch": 55, "duration": 3, "velocity": 93}, {"time": 4164, "pitch": 62, "duration": 4, "velocity": 89}, {"time": 4176, "pitch": 43, "duration": 3, "velocity": 107}, {"time": 4176, "pitch": 55, "duration": 3, "velocity": 99}, {"time": 4176, "pitch": 62, "duration": 3, "velocity": 102}, {"time": 4188, "pitch": 43, "duration": 3, "velocity": 127}, {"time": 4188, "pitch": 55, "duration": 3, "velocity": 100}, {"time": 4188, "pitch": 62, "duration": 3, "velocity": 112}, {"time": 4194, "pitch": 43, "duration": 2, "velocity": 100}, {"time": 4194, "pitch": 55, "duration": 3, "velocity": 92}, {"time": 4194, "pitch": 62, "duration": 3, "velocity": 89}, {"time": 4200, "pitch": 43, "duration": 5, "velocity": 127}, {"time": 4200, "pitch": 55, "duration": 5, "velocity": 112}, {"time": 4200, "pitch": 62, "duration": 5, "velocity": 102}, {"time": 4242, "pitch": 39, "duration": 5, "velocity": 112}, {"time": 4242, "pitch": 51, "duration": 5, "velocity": 112}, {"time": 4242, "pitch": 63, "duration": 5, "velocity": 127}, {"time": 4242, "pitch": 67, "duration": 4, "velocity": 102}, {"time": 4248, "pitch": 41, "duration": 6, "velocity": 107}, {"time": 4248, "pitch": 53, "duration": 7, "velocity": 117}, {"time": 4248, "pitch": 60, "duration": 6, "velocity": 96}, {"time": 4248, "pitch": 65, "duration": 6, "velocity": 112}, {"time": 4248, "pitch": 69, "duration": 6, "velocity": 102}, {"time": 4296, "pitch": 39, "duration": 17, "velocity": 92}, {"time": 4302, "pitch": 46, "duration": 12, "velocity": 40}, {"time": 4305, "pitch": 51, "duration": 4, "velocity": 96}, {"time": 4308, "pitch": 55, "duration": 9, "velocity": 95}, {"time": 4311, "pitch": 51, "duration": 4, "velocity": 97}, {"time": 4314, "pitch": 63, "duration": 5, "velocity": 107}, {"time": 4317, "pitch": 58, "duration": 3, "velocity": 102}, {"time": 4320, "pitch": 41, "duration": 18, "velocity": 75}, {"time": 4323, "pitch": 48, "duration": 14, "velocity": 72}, {"time": 4326, "pitch": 53, "duration": 9, "velocity": 86}, {"time": 4329, "pitch": 60, "duration": 5, "velocity": 82}, {"time": 4332, "pitch": 69, "duration": 12, "velocity": 102}, {"time": 4338, "pitch": 65, "duration": 7, "velocity": 89}, {"time": 4344, "pitch": 46, "duration": 36, "velocity": 99}, {"time": 4350, "pitch": 53, "duration": 29, "velocity": 59}, {"time": 4353, "pitch": 58, "duration": 9, "velocity": 97}, {"time": 4356, "pitch": 62, "duration": 14, "velocity": 82}, {"time": 4362, "pitch": 65, "duration": 5, "velocity": 107}, {"time": 4365, "pitch": 58, "duration": 4, "velocity": 96}, {"time": 4368, "pitch": 70, "duration": 8, "velocity": 127}, {"time": 4371, "pitch": 58, "duration": 3, "velocity": 96}, {"time": 4374, "pitch": 65, "duration": 6, "velocity": 107}, {"time": 4377, "pitch": 58, "duration": 3, "velocity": 81}, {"time": 4380, "pitch": 62, "duration": 6, "velocity": 117}, {"time": 4386, "pitch": 63, "duration": 4, "velocity": 117}, {"time": 4389, "pitch": 62, "duration": 3, "velocity": 89}, {"time": 4392, "pitch": 36, "duration": 31, "velocity": 81}, {"time": 4392, "pitch": 60, "duration": 13, "velocity": 97}, {"time": 4398, "pitch": 43, "duration": 26, "velocity": 61}, {"time": 4404, "pitch": 48, "duration": 14, "velocity": 97}, {"time": 4410, "pitch": 60, "duration": 8, "velocity": 82}, {"time": 4416, "pitch": 67, "duration": 10, "velocity": 127}, {"time": 4422, "pitch": 63, "duration": 7, "velocity": 117}, {"time": 4428, "pitch": 60, "duration": 7, "velocity": 107}, {"time": 4434, "pitch": 62, "duration": 4, "velocity": 93}, {"time": 4437, "pitch": 58, "duration": 4, "velocity": 97}, {"time": 4440, "pitch": 43, "duration": 32, "velocity": 85}, {"time": 4446, "pitch": 50, "duration": 22, "velocity": 64}, {"time": 4452, "pitch": 55, "duration": 8, "velocity": 97}, {"time": 4458, "pitch": 62, "duration": 11, "velocity": 72}, {"time": 4464, "pitch": 70, "duration": 25, "velocity": 127}, {"time": 4470, "pitch": 50, "duration": 3, "velocity": 83}, {"time": 4476, "pitch": 65, "duration": 7, "velocity": 92}, {"time": 4482, "pitch": 67, "duration": 8, "velocity": 82}, {"time": 4488, "pitch": 39, "duration": 36, "velocity": 77}, {"time": 4494, "pitch": 46, "duration": 29, "velocity": 35}, {"time": 4500, "pitch": 51, "duration": 14, "velocity": 96}, {"time": 4506, "pitch": 55, "duration": 14, "velocity": 88}, {"time": 4512, "pitch": 63, "duration": 22, "velocity": 127}, {"time": 4518, "pitch": 51, "duration": 4, "velocity": 99}, {"time": 4524, "pitch": 58, "duration": 11, "velocity": 127}, {"time": 4530, "pitch": 55, "duration": 4, "velocity": 93}, {"time": 4536, "pitch": 38, "duration": 46, "velocity": 83}, {"time": 4542, "pitch": 45, "duration": 37, "velocity": 53}, {"time": 4542, "pitch": 62, "duration": 10, "velocity": 107}, {"time": 4542, "pitch": 74, "duration": 5, "velocity": 97}, {"time": 4548, "pitch": 50, "duration": 14, "velocity": 79}, {"time": 4554, "pitch": 62, "duration": 5, "velocity": 69}, {"time": 4554, "pitch": 66, "duration": 5, "velocity": 90}, {"time": 4554, "pitch": 69, "duration": 4, "velocity": 89}, {"time": 4560, "pitch": 66, "duration": 10, "velocity": 127}, {"time": 4560, "pitch": 69, "duration": 9, "velocity": 127}, {"time": 4566, "pitch": 50, "duration": 7, "velocity": 92}, {"time": 4572, "pitch": 66, "duration": 12, "velocity": 127}, {"time": 4572, "pitch": 69, "duration": 12, "velocity": 122}, {"time": 4578, "pitch": 62, "duration": 6, "velocity": 100}, {"time": 4584, "pitch": 43, "duration": 42, "velocity": 97}, {"time": 4590, "pitch": 50, "duration": 36, "velocity": 85}, {"time": 4593, "pitch": 55, "duration": 6, "velocity": 92}, {"time": 4596, "pitch": 62, "duration": 14, "velocity": 93}, {"time": 4602, "pitch": 55, "duration": 7, "velocity": 99}, {"time": 4608, "pitch": 70, "duration": 8, "velocity": 127}, {"time": 4614, "pitch": 55, "duration": 7, "velocity": 100}, {"time": 4620, "pitch": 67, "duration": 7, "velocity": 97}, {"time": 4626, "pitch": 62, "duration": 4, "velocity": 97}, {"time": 4629, "pitch": 67, "duration": 3, "velocity": 79}, {"time": 4632, "pitch": 41, "duration": 41, "velocity": 95}, {"time": 4635, "pitch": 48, "duration": 38, "velocity": 95}, {"time": 4638, "pitch": 53, "duration": 14, "velocity": 85}, {"time": 4641, "pitch": 60, "duration": 3, "velocity": 93}, {"time": 4644, "pitch": 65, "duration": 17, "velocity": 102}, {"time": 4650, "pitch": 69, "duration": 9, "velocity": 102}, {"time": 4656, "pitch": 53, "duration": 13, "velocity": 102}, {"time": 4662, "pitch": 60, "duration": 9, "velocity": 99}, {"time": 4668, "pitch": 69, "duration": 11, "velocity": 127}, {"time": 4671, "pitch": 53, "duration": 2, "velocity": 99}, {"time": 4674, "pitch": 65, "duration": 6, "velocity": 107}, {"time": 4677, "pitch": 60, "duration": 4, "velocity": 93}, {"time": 4680, "pitch": 39, "duration": 17, "velocity": 92}, {"time": 4686, "pitch": 46, "duration": 12, "velocity": 40}, {"time": 4689, "pitch": 51, "duration": 4, "velocity": 96}, {"time": 4692, "pitch": 55, "duration": 9, "velocity": 95}, {"time": 4695, "pitch": 51, "duration": 4, "velocity": 97}, {"time": 4698, "pitch": 63, "duration": 5, "velocity": 107}, {"time": 4701, "pitch": 58, "duration": 3, "velocity": 102}, {"time": 4704, "pitch": 41, "duration": 18, "velocity": 75}, {"time": 4707, "pitch": 48, "duration": 14, "velocity": 72}, {"time": 4710, "pitch": 53, "duration": 9, "velocity": 86}, {"time": 4713, "pitch": 60, "duration": 5, "velocity": 82}, {"time": 4716, "pitch": 69, "duration": 12, "velocity": 102}, {"time": 4722, "pitch": 65, "duration": 7, "velocity": 89}, {"time": 4728, "pitch": 46, "duration": 36, "velocity": 99}, {"time": 4734, "pitch": 53, "duration": 29, "velocity": 59}, {"time": 4737, "pitch": 58, "duration": 9, "velocity": 97}, {"time": 4740, "pitch": 62, "duration": 14, "velocity": 82}, {"time": 4746, "pitch": 65, "duration": 5, "velocity": 107}, {"time": 4749, "pitch": 58, "duration": 4, "velocity": 96}, {"time": 4752, "pitch": 70, "duration": 8, "velocity": 127}, {"time": 4755, "pitch": 58, "duration": 3, "velocity": 96}, {"time": 4758, "pitch": 65, "duration": 6, "velocity": 107}, {"time": 4761, "pitch": 58, "duration": 3, "velocity": 81}, {"time": 4764, "pitch": 62, "duration": 6, "velocity": 117}, {"time": 4770, "pitch": 63, "duration": 4, "velocity": 117}, {"time": 4773, "pitch": 62, "duration": 3, "velocity": 89}, {"time": 4776, "pitch": 36, "duration": 31, "velocity": 81}, {"time": 4776, "pitch": 60, "duration": 13, "velocity": 97}, {"time": 4782, "pitch": 43, "duration": 26, "velocity": 61}, {"time": 4788, "pitch": 48, "duration": 14, "velocity": 97}, {"time": 4794, "pitch": 60, "duration": 8, "velocity": 82}, {"time": 4800, "pitch": 67, "duration": 10, "velocity": 127}, {"time": 4806, "pitch": 63, "duration": 7, "velocity": 117}, {"time": 4812, "pitch": 60, "duration": 7, "velocity": 107}, {"time": 4818, "pitch": 62, "duration": 4, "velocity": 93}, {"time": 4821, "pitch": 58, "duration": 4, "velocity": 97}, {"time": 4824, "pitch": 43, "duration": 32, "velocity": 85}, {"time": 4830, "pitch": 50, "duration": 22, "velocity": 64}, {"time": 4836, "pitch": 55, "duration": 8, "velocity": 97}, {"time": 4842, "pitch": 62, "duration": 11, "velocity": 72}, {"time": 4848, "pitch": 70, "duration": 25, "velocity": 127}, {"time": 4854, "pitch": 50, "duration": 3, "velocity": 83}, {"time": 4860, "pitch": 65, "duration": 7, "velocity": 92}, {"time": 4866, "pitch": 67, "duration": 8, "velocity": 82}, {"time": 4872, "pitch": 39, "duration": 36, "velocity": 77}, {"time": 4878, "pitch": 46, "duration": 29, "velocity": 35}, {"time": 4884, "pitch": 51, "duration": 14, "velocity": 96}, {"time": 4890, "pitch": 55, "duration": 14, "velocity": 88}, {"time": 4896, "pitch": 63, "duration": 22, "velocity": 127}, {"time": 4902, "pitch": 51, "duration": 4, "velocity": 99}, {"time": 4908, "pitch": 58, "duration": 11, "velocity": 127}, {"time": 4914, "pitch": 55, "duration": 4, "velocity": 93}, {"time": 4920, "pitch": 38, "duration": 36, "velocity": 96}, {"time": 4926, "pitch": 45, "duration": 31, "velocity": 72}, {"time": 4932, "pitch": 50, "duration": 15, "velocity": 97}, {"time": 4938, "pitch": 57, "duration": 7, "velocity": 85}, {"time": 4944, "pitch": 62, "duration": 14, "velocity": 107}, {"time": 4944, "pitch": 66, "duration": 7, "velocity": 117}, {"time": 4950, "pitch": 50, "duration": 13, "velocity": 79}, {"time": 4956, "pitch": 66, "duration": 7, "velocity": 127}, {"time": 4962, "pitch": 62, "duration": 8, "velocity": 93}, {"time": 4968, "pitch": 43, "duration": 38, "velocity": 96}, {"time": 4974, "pitch": 50, "duration": 21, "velocity": 66}, {"time": 4980, "pitch": 55, "duration": 9, "velocity": 92}, {"time": 4986, "pitch": 62, "duration": 13, "velocity": 88}, {"time": 4992, "pitch": 70, "duration": 18, "velocity": 122}, {"time": 4998, "pitch": 50, "duration": 8, "velocity": 76}, {"time": 5004, "pitch": 67, "duration": 13, "velocity": 99}, {"time": 5010, "pitch": 62, "duration": 6, "velocity": 100}, {"time": 5016, "pitch": 41, "duration": 35, "velocity": 89}, {"time": 5022, "pitch": 48, "duration": 21, "velocity": 43}, {"time": 5028, "pitch": 53, "duration": 12, "velocity": 82}, {"time": 5034, "pitch": 60, "duration": 14, "velocity": 74}, {"time": 5040, "pitch": 69, "duration": 25, "velocity": 122}, {"time": 5046, "pitch": 48, "duration": 4, "velocity": 56}, {"time": 5052, "pitch": 65, "duration": 13, "velocity": 100}, {"time": 5058, "pitch": 60, "duration": 7, "velocity": 96}, {"time": 5064, "pitch": 39, "duration": 21, "velocity": 86}, {"time": 5070, "pitch": 46, "duration": 15, "velocity": 38}, {"time": 5076, "pitch": 51, "duration": 10, "velocity": 89}, {"time": 5082, "pitch": 63, "duration": 4, "velocity": 71}, {"time": 5088, "pitch": 41, "duration": 17, "velocity": 83}, {"time": 5094, "pitch": 48, "duration": 11, "velocity": 93}, {"time": 5100, "pitch": 53, "duration": 8, "velocity": 102}, {"time": 5106, "pitch": 65, "duration": 8, "velocity": 93}, {"time": 5112, "pitch": 46, "duration": 36, "velocity": 75}, {"time": 5118, "pitch": 53, "duration": 22, "velocity": 59}, {"time": 5124, "pitch": 58, "duration": 7, "velocity": 95}, {"time": 5130, "pitch": 62, "duration": 6, "velocity": 102}, {"time": 5136, "pitch": 65, "duration": 7, "velocity": 112}, {"time": 5142, "pitch": 53, "duration": 4, "velocity": 40}, {"time": 5142, "pitch": 62, "duration": 6, "velocity": 112}, {"time": 5148, "pitch": 58, "duration": 7, "velocity": 86}, {"time": 5154, "pitch": 55, "duration": 7, "velocity": 92}, {"time": 5160, "pitch": 36, "duration": 36, "velocity": 76}, {"time": 5166, "pitch": 43, "duration": 30, "velocity": 71}, {"time": 5172, "pitch": 48, "duration": 15, "velocity": 86}, {"time": 5178, "pitch": 55, "duration": 12, "velocity": 89}, {"time": 5184, "pitch": 63, "duration": 22, "velocity": 127}, {"time": 5190, "pitch": 48, "duration": 9, "velocity": 70}, {"time": 5196, "pitch": 60, "duration": 12, "velocity": 100}, {"time": 5202, "pitch": 55, "duration": 5, "velocity": 89}, {"time": 5208, "pitch": 43, "duration": 30, "velocity": 92}, {"time": 5214, "pitch": 50, "duration": 21, "velocity": 62}, {"time": 5220, "pitch": 55, "duration": 8, "velocity": 90}, {"time": 5226, "pitch": 62, "duration": 10, "velocity": 92}, {"time": 5232, "pitch": 70, "duration": 21, "velocity": 127}, {"time": 5238, "pitch": 67, "duration": 7, "velocity": 89}, {"time": 5244, "pitch": 62, "duration": 7, "velocity": 92}, {"time": 5250, "pitch": 67, "duration": 7, "velocity": 92}, {"time": 5256, "pitch": 39, "duration": 38, "velocity": 82}, {"time": 5262, "pitch": 46, "duration": 31, "velocity": 62}, {"time": 5268, "pitch": 51, "duration": 15, "velocity": 95}, {"time": 5274, "pitch": 55, "duration": 14, "velocity": 82}, {"time": 5280, "pitch": 63, "duration": 25, "velocity": 127}, {"time": 5286, "pitch": 51, "duration": 7, "velocity": 93}, {"time": 5292, "pitch": 58, "duration": 12, "velocity": 122}, {"time": 5298, "pitch": 55, "duration": 6, "velocity": 90}, {"time": 5304, "pitch": 38, "duration": 36, "velocity": 99}, {"time": 5310, "pitch": 45, "duration": 31, "velocity": 78}, {"time": 5316, "pitch": 50, "duration": 15, "velocity": 96}, {"time": 5322, "pitch": 62, "duration": 10, "velocity": 95}, {"time": 5328, "pitch": 69, "duration": 21, "velocity": 107}, {"time": 5334, "pitch": 50, "duration": 16, "velocity": 102}, {"time": 5340, "pitch": 66, "duration": 8, "velocity": 127}, {"time": 5346, "pitch": 62, "duration": 7, "velocity": 107}, {"time": 5352, "pitch": 43, "duration": 39, "velocity": 93}, {"time": 5358, "pitch": 50, "duration": 21, "velocity": 85}, {"time": 5364, "pitch": 55, "duration": 8, "velocity": 97}, {"time": 5370, "pitch": 62, "duration": 9, "velocity": 90}, {"time": 5376, "pitch": 70, "duration": 24, "velocity": 127}, {"time": 5382, "pitch": 50, "duration": 7, "velocity": 96}, {"time": 5388, "pitch": 67, "duration": 13, "velocity": 96}, {"time": 5394, "pitch": 62, "duration": 7, "velocity": 97}, {"time": 5400, "pitch": 41, "duration": 36, "velocity": 89}, {"time": 5406, "pitch": 48, "duration": 22, "velocity": 85}, {"time": 5412, "pitch": 53, "duration": 8, "velocity": 95}, {"time": 5418, "pitch": 60, "duration": 9, "velocity": 95}, {"time": 5424, "pitch": 69, "duration": 24, "velocity": 102}, {"time": 5430, "pitch": 48, "duration": 6, "velocity": 74}, {"time": 5436, "pitch": 65, "duration": 12, "velocity": 102}, {"time": 5442, "pitch": 60, "duration": 6, "velocity": 95}, {"time": 5448, "pitch": 39, "duration": 17, "velocity": 93}, {"time": 5454, "pitch": 46, "duration": 12, "velocity": 97}, {"time": 5460, "pitch": 51, "duration": 5, "velocity": 99}, {"time": 5466, "pitch": 63, "duration": 5, "velocity": 127}, {"time": 5472, "pitch": 41, "duration": 16, "velocity": 81}, {"time": 5478, "pitch": 48, "duration": 12, "velocity": 79}, {"time": 5484, "pitch": 53, "duration": 8, "velocity": 97}, {"time": 5490, "pitch": 69, "duration": 12, "velocity": 112}, {"time": 5496, "pitch": 46, "duration": 38, "velocity": 58}, {"time": 5502, "pitch": 53, "duration": 30, "velocity": 72}, {"time": 5508, "pitch": 58, "duration": 15, "velocity": 100}, {"time": 5514, "pitch": 62, "duration": 7, "velocity": 90}, {"time": 5520, "pitch": 65, "duration": 13, "velocity": 117}, {"time": 5526, "pitch": 58, "duration": 5, "velocity": 92}, {"time": 5532, "pitch": 62, "duration": 9, "velocity": 99}, {"time": 5538, "pitch": 65, "duration": 6, "velocity": 107}, {"time": 5544, "pitch": 36, "duration": 36, "velocity": 90}, {"time": 5550, "pitch": 43, "duration": 30, "velocity": 54}, {"time": 5556, "pitch": 48, "duration": 15, "velocity": 93}, {"time": 5562, "pitch": 60, "duration": 8, "velocity": 90}, {"time": 5568, "pitch": 67, "duration": 21, "velocity": 117}, {"time": 5574, "pitch": 48, "duration": 10, "velocity": 89}, {"time": 5580, "pitch": 63, "duration": 8, "velocity": 117}, {"time": 5586, "pitch": 62, "duration": 9, "velocity": 93}, {"time": 5592, "pitch": 43, "duration": 36, "velocity": 90}, {"time": 5598, "pitch": 50, "duration": 22, "velocity": 79}, {"time": 5604, "pitch": 55, "duration": 10, "velocity": 96}, {"time": 5610, "pitch": 62, "duration": 10, "velocity": 93}, {"time": 5616, "pitch": 70, "duration": 25, "velocity": 127}, {"time": 5622, "pitch": 50, "duration": 6, "velocity": 77}, {"time": 5628, "pitch": 67, "duration": 8, "velocity": 99}, {"time": 5634, "pitch": 62, "duration": 6, "velocity": 96}, {"time": 5640, "pitch": 39, "duration": 38, "velocity": 83}, {"time": 5646, "pitch": 46, "duration": 29, "velocity": 34}, {"time": 5652, "pitch": 51, "duration": 14, "velocity": 92}, {"time": 5658, "pitch": 63, "duration": 8, "velocity": 97}, {"time": 5664, "pitch": 70, "duration": 14, "velocity": 127}, {"time": 5670, "pitch": 51, "duration": 5, "velocity": 88}, {"time": 5676, "pitch": 63, "duration": 12, "velocity": 99}, {"time": 5682, "pitch": 70, "duration": 6, "velocity": 102}, {"time": 5688, "pitch": 38, "duration": 37, "velocity": 83}, {"time": 5694, "pitch": 45, "duration": 31, "velocity": 42}, {"time": 5700, "pitch": 50, "duration": 29, "velocity": 90}, {"time": 5706, "pitch": 62, "duration": 25, "velocity": 81}, {"time": 5712, "pitch": 69, "duration": 16, "velocity": 107}, {"time": 5724, "pitch": 66, "duration": 5, "velocity": 95}, {"time": 5736, "pitch": 45, "duration": 31, "velocity": 79}, {"time": 5736, "pitch": 57, "duration": 37, "velocity": 89}, {"time": 5736, "pitch": 62, "duration": 34, "velocity": 96}, {"time": 5736, "pitch": 50, "duration": 35, "velocity": 89}, {"time": 5736, "pitch": 66, "duration": 30, "velocity": 96}, {"time": 5736, "pitch": 38, "duration": 31, "velocity": 59}, {"time": 5824, "pitch": 62, "duration": 16, "velocity": 72}, {"time": 5825, "pitch": 59, "duration": 14, "velocity": 69}, {"time": 5826, "pitch": 43, "duration": 93, "velocity": 81}, {"time": 5827, "pitch": 55, "duration": 11, "velocity": 72}, {"time": 5837, "pitch": 50, "duration": 81, "velocity": 58}, {"time": 5843, "pitch": 55, "duration": 75, "velocity": 66}, {"time": 5849, "pitch": 67, "duration": 68, "velocity": 60}, {"time": 5856, "pitch": 71, "duration": 61, "velocity": 64}, {"time": 5864, "pitch": 74, "duration": 48, "velocity": 51}, {"time": 5875, "pitch": 79, "duration": 32, "velocity": 65}], "annotations": [{"time": 216, "annotation": {"number": 64, "value": 127}, "group": "control_change"}, {"time": 261, "annotation": {"number": 64, "value": 0}, "group": "control_change"}, {"time": 265, "annotation": {"number": 64, "value": 127}, "group": "control_change"}, {"time": 308, "annotation": {"number": 64, "value": 0}, "group": "control_change"}, {"time": 314, "annotation": {"number": 64, "value": 127}, "group": "control_change"}, {"time": 332, "annotation": {"number": 64, "value": 0}, "group": "control_change"}, {"time": 338, "annotation": {"number": 64, "value": 127}, "group": "control_change"}, {"time": 358, "annotation": {"number": 64, "value": 0}, "group": "control_change"}, {"time": 361, "annotation": {"number": 64, "value": 127}, "group": "control_change"}, {"time": 403, "annotation": {"number": 64, "value": 0}, "group": "control_change"}, {"time": 409, "annotation": {"number": 64, "value": 127}, "group": "control_change"}, {"time": 453, "annotation": {"number": 64, "value": 0}, "group": "control_change"}, {"time": 457, "annotation": {"number": 64, "value": 127}, "group": "control_change"}, {"time": 500, "annotation": {"number": 64, "value": 0}, "group": "control_change"}, {"time": 504, "annotation": {"number": 64, "value": 127}, "group": "control_change"}, {"time": 547, "annotation": {"number": 64, "value": 0}, "group": "control_change"}, {"time": 553, "annotation": {"number": 64, "value": 127}, "group": "control_change"}, {"time": 594, "annotation": {"number": 64, "value": 0}, "group": "control_change"}, {"time": 602, "annotation": {"number": 64, "value": 127}, "group": "control_change"}, {"time": 645, "annotation": {"number": 64, "value": 0}, "group": "control_change"}, {"time": 649, "annotation": {"number": 64, "value": 127}, "group": "control_change"}, {"time": 692, "annotation": {"number": 64, "value": 0}, "group": "control_change"}, {"time": 696, "annotation": {"number": 64, "value": 127}, "group": "control_change"}, {"time": 718, "annotation": {"number": 64, "value": 0}, "group": "control_change"}, {"time": 722, "annotation": {"number": 64, "value": 127}, "group": "control_change"}, {"time": 741, "annotation": {"number": 64, "value": 0}, "group": "control_change"}, {"time": 744, "annotation": {"number": 64, "value": 127}, "group": "control_change"}, {"time": 790, "annotation": {"number": 64, "value": 0}, "group": "control_change"}, {"time": 793, "annotation": {"number": 64, "value": 127}, "group": "control_change"}, {"time": 836, "annotation": {"number": 64, "value": 0}, "group": "control_change"}, {"time": 840, "annotation": {"number": 64, "value": 127}, "group": "control_change"}, {"time": 884, "annotation": {"number": 64, "value": 0}, "group": "control_change"}, {"time": 888, "annotation": {"number": 64, "value": 127}, "group": "control_change"}, {"time": 934, "annotation": {"number": 64, "value": 0}, "group": "control_change"}, {"time": 937, "annotation": {"number": 64, "value": 127}, "group": "control_change"}, {"time": 978, "annotation": {"number": 64, "value": 0}, "group": "control_change"}, {"time": 984, "annotation": {"number": 64, "value": 127}, "group": "control_change"}, {"time": 1029, "annotation": {"number": 64, "value": 0}, "group": "control_change"}, {"time": 1033, "annotation": {"number": 64, "value": 127}, "group": "control_change"}, {"time": 1077, "annotation": {"number": 64, "value": 0}, "group": "control_change"}, {"time": 1080, "annotation": {"number": 64, "value": 127}, "group": "control_change"}, {"time": 1104, "annotation": {"number": 64, "value": 0}, "group": "control_change"}, {"time": 1104, "annotation": {"number": 64, "value": 127}, "group": "control_change"}, {"time": 1124, "annotation": {"number": 64, "value": 0}, "group": "control_change"}, {"time": 1129, "annotation": {"number": 64, "value": 127}, "group": "control_change"}, {"time": 1173, "annotation": {"number": 64, "value": 0}, "group": "control_change"}, {"time": 1177, "annotation": {"number": 64, "value": 127}, "group": "control_change"}, {"time": 1218, "annotation": {"number": 64, "value": 0}, "group": "control_change"}, {"time": 1224, "annotation": {"number": 64, "value": 127}, "group": "control_change"}, {"time": 1268, "annotation": {"number": 64, "value": 0}, "group": "control_change"}, {"time": 1273, "annotation": {"number": 64, "value": 127}, "group": "control_change"}, {"time": 1318, "annotation": {"number": 64, "value": 0}, "group": "control_change"}, {"time": 1321, "annotation": {"number": 64, "value": 127}, "group": "control_change"}, {"time": 1413, "annotation": {"number": 64, "value": 0}, "group": "control_change"}, {"time": 1416, "annotation": {"number": 64, "value": 127}, "group": "control_change"}, {"time": 1462, "annotation": {"number": 64, "value": 0}, "group": "control_change"}, {"time": 1464, "annotation": {"number": 64, "value": 127}, "group": "control_change"}, {"time": 1486, "annotation": {"number": 64, "value": 0}, "group": "control_change"}, {"time": 1488, "annotation": {"number": 64, "value": 127}, "group": "control_change"}, {"time": 1510, "annotation": {"number": 64, "value": 0}, "group": "control_change"}, {"time": 1512, "annotation": {"number": 64, "value": 127}, "group": "control_change"}, {"time": 1558, "annotation": {"number": 64, "value": 0}, "group": "control_change"}, {"time": 1560, "annotation": {"number": 64, "value": 127}, "group": "control_change"}, {"time": 1604, "annotation": {"number": 64, "value": 0}, "group": "control_change"}, {"time": 1608, "annotation": {"number": 64, "value": 127}, "group": "control_change"}, {"time": 1652, "annotation": {"number": 64, "value": 0}, "group": "control_change"}, {"time": 1656, "annotation": {"number": 64, "value": 127}, "group": "control_change"}, {"time": 1701, "annotation": {"number": 64, "value": 0}, "group": "control_change"}, {"time": 1704, "annotation": {"number": 64, "value": 127}, "group": "control_change"}, {"time": 1727, "annotation": {"number": 64, "value": 0}, "group": "control_change"}, {"time": 1728, "annotation": {"number": 64, "value": 127}, "group": "control_change"}, {"time": 1748, "annotation": {"number": 64, "value": 0}, "group": "control_change"}, {"time": 1752, "annotation": {"number": 64, "value": 127}, "group": "control_change"}, {"time": 1797, "annotation": {"number": 64, "value": 0}, "group": "control_change"}, {"time": 1800, "annotation": {"number": 64, "value": 127}, "group": "control_change"}, {"time": 1846, "annotation": {"number": 64, "value": 0}, "group": "control_change"}, {"time": 1848, "annotation": {"number": 64, "value": 127}, "group": "control_change"}, {"time": 1870, "annotation": {"number": 64, "value": 0}, "group": "control_change"}, {"time": 1872, "annotation": {"number": 64, "value": 127}, "group": "control_change"}, {"time": 1894, "annotation": {"number": 64, "value": 0}, "group": "control_change"}, {"time": 1896, "annotation": {"number": 64, "value": 127}, "group": "control_change"}, {"time": 1942, "annotation": {"number": 64, "value": 0}, "group": "control_change"}, {"time": 1944, "annotation": {"number": 64, "value": 127}, "group": "control_change"}, {"time": 1988, "annotation": {"number": 64, "value": 0}, "group": "control_change"}, {"time": 1992, "annotation": {"number": 64, "value": 127}, "group": "control_change"}, {"time": 2036, "annotation": {"number": 64, "value": 0}, "group": "control_change"}, {"time": 2040, "annotation": {"number": 64, "value": 127}, "group": "control_change"}, {"time": 2085, "annotation": {"number": 64, "value": 0}, "group": "control_change"}, {"time": 2088, "annotation": {"number": 64, "value": 127}, "group": "control_change"}, {"time": 2111, "annotation": {"number": 64, "value": 0}, "group": "control_change"}, {"time": 2112, "annotation": {"number": 64, "value": 127}, "group": "control_change"}, {"time": 2132, "annotation": {"number": 64, "value": 0}, "group": "control_change"}, {"time": 2136, "annotation": {"number": 64, "value": 127}, "group": "control_change"}, {"time": 2180, "annotation": {"number": 64, "value": 0}, "group": "control_change"}, {"time": 2185, "annotation": {"number": 64, "value": 127}, "group": "control_change"}, {"time": 2230, "annotation": {"number": 64, "value": 0}, "group": "control_change"}, {"time": 2232, "annotation": {"number": 64, "value": 127}, "group": "control_change"}, {"time": 2233, "annotation": {"number": 64, "value": 127}, "group": "control_change"}, {"time": 2253, "annotation": {"number": 64, "value": 0}, "group": "control_change"}, {"time": 2258, "annotation": {"number": 64, "value": 127}, "group": "control_change"}, {"time": 2278, "annotation": {"number": 64, "value": 0}, "group": "control_change"}, {"time": 2280, "annotation": {"number": 64, "value": 127}, "group": "control_change"}, {"time": 2326, "annotation": {"number": 64, "value": 0}, "group": "control_change"}, {"time": 2329, "annotation": {"number": 64, "value": 127}, "group": "control_change"}, {"time": 2373, "annotation": {"number": 64, "value": 0}, "group": "control_change"}, {"time": 2376, "annotation": {"number": 64, "value": 127}, "group": "control_change"}, {"time": 2420, "annotation": {"number": 64, "value": 0}, "group": "control_change"}, {"time": 2424, "annotation": {"number": 64, "value": 127}, "group": "control_change"}, {"time": 2469, "annotation": {"number": 64, "value": 0}, "group": "control_change"}, {"time": 2473, "annotation": {"number": 64, "value": 127}, "group": "control_change"}, {"time": 2517, "annotation": {"number": 64, "value": 0}, "group": "control_change"}, {"time": 2578, "annotation": {"number": 64, "value": 127}, "group": "control_change"}, {"time": 2614, "annotation": {"number": 64, "value": 0}, "group": "control_change"}, {"time": 2630, "annotation": {"number": 64, "value": 127}, "group": "control_change"}, {"time": 2660, "annotation": {"number": 64, "value": 0}, "group": "control_change"}, {"time": 2666, "annotation": {"number": 64, "value": 127}, "group": "control_change"}, {"time": 2688, "annotation": {"number": 64, "value": 0}, "group": "control_change"}, {"time": 2712, "annotation": {"number": 64, "value": 127}, "group": "control_change"}, {"time": 2760, "annotation": {"number": 64, "value": 127}, "group": "control_change"}, {"time": 2807, "annotation": {"number": 64, "value": 0}, "group": "control_change"}, {"time": 2819, "annotation": {"number": 64, "value": 127}, "group": "control_change"}, {"time": 2854, "annotation": {"number": 64, "value": 0}, "group": "control_change"}, {"time": 2871, "annotation": {"number": 64, "value": 127}, "group": "control_change"}, {"time": 2902, "annotation": {"number": 64, "value": 0}, "group": "control_change"}, {"time": 2914, "annotation": {"number": 64, "value": 127}, "group": "control_change"}, {"time": 2948, "annotation": {"number": 64, "value": 0}, "group": "control_change"}, {"time": 2952, "annotation": {"number": 64, "value": 127}, "group": "control_change"}, {"time": 2997, "annotation": {"number": 64, "value": 0}, "group": "control_change"}, {"time": 3001, "annotation": {"number": 64, "value": 127}, "group": "control_change"}, {"time": 3045, "annotation": {"number": 64, "value": 0}, "group": "control_change"}, {"time": 3048, "annotation": {"number": 64, "value": 127}, "group": "control_change"}, {"time": 3072, "annotation": {"number": 64, "value": 0}, "group": "control_change"}, {"time": 3072, "annotation": {"number": 64, "value": 127}, "group": "control_change"}, {"time": 3092, "annotation": {"number": 64, "value": 0}, "group": "control_change"}, {"time": 3097, "annotation": {"number": 64, "value": 127}, "group": "control_change"}, {"time": 3141, "annotation": {"number": 64, "value": 0}, "group": "control_change"}, {"time": 3145, "annotation": {"number": 64, "value": 127}, "group": "control_change"}, {"time": 3186, "annotation": {"number": 64, "value": 0}, "group": "control_change"}, {"time": 3192, "annotation": {"number": 64, "value": 127}, "group": "control_change"}, {"time": 3236, "annotation": {"number": 64, "value": 0}, "group": "control_change"}, {"time": 3241, "annotation": {"number": 64, "value": 127}, "group": "control_change"}, {"time": 3286, "annotation": {"number": 64, "value": 0}, "group": "control_change"}, {"time": 3289, "annotation": {"number": 64, "value": 127}, "group": "control_change"}, {"time": 3331, "annotation": {"number": 64, "value": 0}, "group": "control_change"}, {"time": 3336, "annotation": {"number": 64, "value": 127}, "group": "control_change"}, {"time": 3381, "annotation": {"number": 64, "value": 0}, "group": "control_change"}, {"time": 3384, "annotation": {"number": 64, "value": 127}, "group": "control_change"}, {"time": 3430, "annotation": {"number": 64, "value": 0}, "group": "control_change"}, {"time": 3432, "annotation": {"number": 64, "value": 127}, "group": "control_change"}, {"time": 3454, "annotation": {"number": 64, "value": 0}, "group": "control_change"}, {"time": 3456, "annotation": {"number": 64, "value": 127}, "group": "control_change"}, {"time": 3478, "annotation": {"number": 64, "value": 0}, "group": "control_change"}, {"time": 3480, "annotation": {"number": 64, "value": 127}, "group": "control_change"}, {"time": 3526, "annotation": {"number": 64, "value": 0}, "group": "control_change"}, {"time": 3528, "annotation": {"number": 64, "value": 127}, "group": "control_change"}, {"time": 3572, "annotation": {"number": 64, "value": 0}, "group": "control_change"}, {"time": 3576, "annotation": {"number": 64, "value": 127}, "group": "control_change"}, {"time": 3620, "annotation": {"number": 64, "value": 0}, "group": "control_change"}, {"time": 3624, "annotation": {"number": 64, "value": 127}, "group": "control_change"}, {"time": 3669, "annotation": {"number": 64, "value": 0}, "group": "control_change"}, {"time": 3672, "annotation": {"number": 64, "value": 127}, "group": "control_change"}, {"time": 3695, "annotation": {"number": 64, "value": 0}, "group": "control_change"}, {"time": 3696, "annotation": {"number": 64, "value": 127}, "group": "control_change"}, {"time": 3716, "annotation": {"number": 64, "value": 0}, "group": "control_change"}, {"time": 3720, "annotation": {"number": 64, "value": 127}, "group": "control_change"}, {"time": 3765, "annotation": {"number": 64, "value": 0}, "group": "control_change"}, {"time": 3768, "annotation": {"number": 64, "value": 127}, "group": "control_change"}, {"time": 3814, "annotation": {"number": 64, "value": 0}, "group": "control_change"}, {"time": 3816, "annotation": {"number": 64, "value": 127}, "group": "control_change"}, {"time": 3838, "annotation": {"number": 64, "value": 0}, "group": "control_change"}, {"time": 3840, "annotation": {"number": 64, "value": 127}, "group": "control_change"}, {"time": 3862, "annotation": {"number": 64, "value": 0}, "group": "control_change"}, {"time": 3864, "annotation": {"number": 64, "value": 127}, "group": "control_change"}, {"time": 3910, "annotation": {"number": 64, "value": 0}, "group": "control_change"}, {"time": 3912, "annotation": {"number": 64, "value": 127}, "group": "control_change"}, {"time": 3956, "annotation": {"number": 64, "value": 0}, "group": "control_change"}, {"time": 3960, "annotation": {"number": 64, "value": 127}, "group": "control_change"}, {"time": 4004, "annotation": {"number": 64, "value": 0}, "group": "control_change"}, {"time": 4008, "annotation": {"number": 64, "value": 127}, "group": "control_change"}, {"time": 4053, "annotation": {"number": 64, "value": 0}, "group": "control_change"}, {"time": 4056, "annotation": {"number": 64, "value": 127}, "group": "control_change"}, {"time": 4079, "annotation": {"number": 64, "value": 0}, "group": "control_change"}, {"time": 4080, "annotation": {"number": 64, "value": 127}, "group": "control_change"}, {"time": 4100, "annotation": {"number": 64, "value": 0}, "group": "control_change"}, {"time": 4296, "annotation": {"number": 64, "value": 127}, "group": "control_change"}, {"time": 4318, "annotation": {"number": 64, "value": 0}, "group": "control_change"}, {"time": 4320, "annotation": {"number": 64, "value": 127}, "group": "control_change"}, {"time": 4342, "annotation": {"number": 64, "value": 0}, "group": "control_change"}, {"time": 4344, "annotation": {"number": 64, "value": 127}, "group": "control_change"}, {"time": 4390, "annotation": {"number": 64, "value": 0}, "group": "control_change"}, {"time": 4392, "annotation": {"number": 64, "value": 127}, "group": "control_change"}, {"time": 4436, "annotation": {"number": 64, "value": 0}, "group": "control_change"}, {"time": 4440, "annotation": {"number": 64, "value": 127}, "group": "control_change"}, {"time": 4484, "annotation": {"number": 64, "value": 0}, "group": "control_change"}, {"time": 4488, "annotation": {"number": 64, "value": 127}, "group": "control_change"}, {"time": 4533, "annotation": {"number": 64, "value": 0}, "group": "control_change"}, {"time": 4536, "annotation": {"number": 64, "value": 127}, "group": "control_change"}, {"time": 4559, "annotation": {"number": 64, "value": 0}, "group": "control_change"}, {"time": 4560, "annotation": {"number": 64, "value": 127}, "group": "control_change"}, {"time": 4580, "annotation": {"number": 64, "value": 0}, "group": "control_change"}, {"time": 4584, "annotation": {"number": 64, "value": 127}, "group": "control_change"}, {"time": 4629, "annotation": {"number": 64, "value": 0}, "group": "control_change"}, {"time": 4632, "annotation": {"number": 64, "value": 127}, "group": "control_change"}, {"time": 4678, "annotation": {"number": 64, "value": 0}, "group": "control_change"}, {"time": 4680, "annotation": {"number": 64, "value": 127}, "group": "control_change"}, {"time": 4702, "annotation": {"number": 64, "value": 0}, "group": "control_change"}, {"time": 4704, "annotation": {"number": 64, "value": 127}, "group": "control_change"}, {"time": 4726, "annotation": {"number": 64, "value": 0}, "group": "control_change"}, {"time": 4728, "annotation": {"number": 64, "value": 127}, "group": "control_change"}, {"time": 4774, "annotation": {"number": 64, "value": 0}, "group": "control_change"}, {"time": 4776, "annotation": {"number": 64, "value": 127}, "group": "control_change"}, {"time": 4820, "annotation": {"number": 64, "value": 0}, "group": "control_change"}, {"time": 4824, "annotation": {"number": 64, "value": 127}, "group": "control_change"}, {"time": 4868, "annotation": {"number": 64, "value": 0}, "group": "control_change"}, {"time": 4872, "annotation": {"number": 64, "value": 127}, "group": "control_change"}, {"time": 4917, "annotation": {"number": 64, "value": 0}, "group": "control_change"}, {"time": 4920, "annotation": {"number": 64, "value": 127}, "group": "control_change"}, {"time": 4921, "annotation": {"number": 64, "value": 127}, "group": "control_change"}, {"time": 4963, "annotation": {"number": 64, "value": 0}, "group": "control_change"}, {"time": 4969, "annotation": {"number": 64, "value": 127}, "group": "control_change"}, {"time": 5014, "annotation": {"number": 64, "value": 0}, "group": "control_change"}, {"time": 5017, "annotation": {"number": 64, "value": 127}, "group": "control_change"}, {"time": 5061, "annotation": {"number": 64, "value": 0}, "group": "control_change"}, {"time": 5064, "annotation": {"number": 64, "value": 127}, "group": "control_change"}, {"time": 5086, "annotation": {"number": 64, "value": 0}, "group": "control_change"}, {"time": 5099, "annotation": {"number": 64, "value": 127}, "group": "control_change"}, {"time": 5110, "annotation": {"number": 64, "value": 0}, "group": "control_change"}, {"time": 5112, "annotation": {"number": 64, "value": 127}, "group": "control_change"}, {"time": 5156, "annotation": {"number": 64, "value": 0}, "group": "control_change"}, {"time": 5160, "annotation": {"number": 64, "value": 127}, "group": "control_change"}, {"time": 5183, "annotation": {"number": 64, "value": 0}, "group": "control_change"}, {"time": 5186, "annotation": {"number": 64, "value": 127}, "group": "control_change"}, {"time": 5205, "annotation": {"number": 64, "value": 0}, "group": "control_change"}, {"time": 5209, "annotation": {"number": 64, "value": 127}, "group": "control_change"}, {"time": 5252, "annotation": {"number": 64, "value": 0}, "group": "control_change"}, {"time": 5256, "annotation": {"number": 64, "value": 127}, "group": "control_change"}, {"time": 5300, "annotation": {"number": 64, "value": 0}, "group": "control_change"}, {"time": 5305, "annotation": {"number": 64, "value": 127}, "group": "control_change"}, {"time": 5347, "annotation": {"number": 64, "value": 0}, "group": "control_change"}, {"time": 5353, "annotation": {"number": 64, "value": 127}, "group": "control_change"}, {"time": 5395, "annotation": {"number": 64, "value": 0}, "group": "control_change"}, {"time": 5401, "annotation": {"number": 64, "value": 127}, "group": "control_change"}, {"time": 5444, "annotation": {"number": 64, "value": 0}, "group": "control_change"}, {"time": 5448, "annotation": {"number": 64, "value": 127}, "group": "control_change"}, {"time": 5468, "annotation": {"number": 64, "value": 0}, "group": "control_change"}, {"time": 5472, "annotation": {"number": 64, "value": 127}, "group": "control_change"}, {"time": 5492, "annotation": {"number": 64, "value": 0}, "group": "control_change"}, {"time": 5496, "annotation": {"number": 64, "value": 127}, "group": "control_change"}, {"time": 5541, "annotation": {"number": 64, "value": 0}, "group": "control_change"}, {"time": 5545, "annotation": {"number": 64, "value": 127}, "group": "control_change"}, {"time": 5588, "annotation": {"number": 64, "value": 0}, "group": "control_change"}, {"time": 5592, "annotation": {"number": 64, "value": 127}, "group": "control_change"}, {"time": 5635, "annotation": {"number": 64, "value": 0}, "group": "control_change"}, {"time": 5640, "annotation": {"number": 64, "value": 127}, "group": "control_change"}, {"time": 5682, "annotation": {"number": 64, "value": 0}, "group": "control_change"}, {"time": 5688, "annotation": {"number": 64, "value": 127}, "group": "control_change"}, {"time": 5730, "annotation": {"number": 64, "value": 0}, "group": "control_change"}, {"time": 5739, "annotation": {"number": 64, "value": 127}, "group": "control_change"}]}]}