{"metadata": {"schema_version": "0.2", "title": "None", "source_filename": "449.mid", "source_format": "midi"}, "resolution": 12, "tempos": [{"time": 0, "qpm": 77.00017581706811}], "time_signatures": [{"time": 0, "numerator": 1, "denominator": 4}], "tracks": [{"program": 0, "is_drum": false, "name": "MELODY", "notes": [{"time": 435, "pitch": 71, "duration": 4, "velocity": 127}, {"time": 441, "pitch": 71, "duration": 4, "velocity": 127}, {"time": 447, "pitch": 71, "duration": 5, "velocity": 122}, {"time": 453, "pitch": 69, "duration": 5, "velocity": 127}, {"time": 459, "pitch": 71, "duration": 5, "velocity": 127}, {"time": 465, "pitch": 69, "duration": 4, "velocity": 122}, {"time": 471, "pitch": 62, "duration": 5, "velocity": 107}, {"time": 477, "pitch": 64, "duration": 5, "velocity": 102}, {"time": 483, "pitch": 67, "duration": 12, "velocity": 127}, {"time": 531, "pitch": 67, "duration": 4, "velocity": 127}, {"time": 537, "pitch": 67, "duration": 4, "velocity": 122}, {"time": 543, "pitch": 67, "duration": 4, "velocity": 127}, {"time": 549, "pitch": 64, "duration": 4, "velocity": 117}, {"time": 555, "pitch": 76, "duration": 8, "velocity": 107}, {"time": 561, "pitch": 74, "duration": 4, "velocity": 117}, {"time": 567, "pitch": 74, "duration": 4, "velocity": 122}, {"time": 573, "pitch": 69, "duration": 6, "velocity": 127}, {"time": 579, "pitch": 71, "duration": 26, "velocity": 127}, {"time": 627, "pitch": 71, "duration": 4, "velocity": 127}, {"time": 633, "pitch": 71, "duration": 6, "velocity": 127}, {"time": 639, "pitch": 69, "duration": 5, "velocity": 107}, {"time": 645, "pitch": 71, "duration": 5, "velocity": 127}, {"time": 651, "pitch": 74, "duration": 18, "velocity": 127}, {"time": 675, "pitch": 71, "duration": 4, "velocity": 127}, {"time": 681, "pitch": 69, "duration": 4, "velocity": 127}, {"time": 687, "pitch": 69, "duration": 4, "velocity": 127}, {"time": 693, "pitch": 67, "duration": 4, "velocity": 127}, {"time": 699, "pitch": 64, "duration": 13, "velocity": 127}, {"time": 723, "pitch": 69, "duration": 3, "velocity": 127}, {"time": 729, "pitch": 69, "duration": 1, "velocity": 122}, {"time": 732, "pitch": 69, "duration": 1, "velocity": 112}, {"time": 735, "pitch": 69, "duration": 4, "velocity": 122}, {"time": 741, "pitch": 67, "duration": 5, "velocity": 112}, {"time": 747, "pitch": 69, "duration": 4, "velocity": 127}, {"time": 753, "pitch": 71, "duration": 8, "velocity": 122}, {"time": 765, "pitch": 64, "duration": 5, "velocity": 127}, {"time": 771, "pitch": 62, "duration": 27, "velocity": 107}, {"time": 819, "pitch": 71, "duration": 3, "velocity": 127}, {"time": 825, "pitch": 71, "duration": 3, "velocity": 127}, {"time": 831, "pitch": 71, "duration": 3, "velocity": 127}, {"time": 837, "pitch": 69, "duration": 4, "velocity": 117}, {"time": 843, "pitch": 71, "duration": 4, "velocity": 117}, {"time": 849, "pitch": 69, "duration": 4, "velocity": 127}, {"time": 852, "pitch": 71, "duration": 2, "velocity": 112}, {"time": 855, "pitch": 62, "duration": 5, "velocity": 122}, {"time": 861, "pitch": 64, "duration": 5, "velocity": 112}, {"time": 867, "pitch": 67, "duration": 17, "velocity": 127}, {"time": 915, "pitch": 67, "duration": 6, "velocity": 127}, {"time": 924, "pitch": 67, "duration": 1, "velocity": 122}, {"time": 927, "pitch": 67, "duration": 4, "velocity": 99}, {"time": 933, "pitch": 64, "duration": 5, "velocity": 112}, {"time": 939, "pitch": 76, "duration": 5, "velocity": 127}, {"time": 945, "pitch": 74, "duration": 4, "velocity": 117}, {"time": 951, "pitch": 74, "duration": 4, "velocity": 127}, {"time": 963, "pitch": 69, "duration": 7, "velocity": 122}, {"time": 972, "pitch": 71, "duration": 30, "velocity": 127}, {"time": 1011, "pitch": 71, "duration": 4, "velocity": 122}, {"time": 1017, "pitch": 71, "duration": 6, "velocity": 117}, {"time": 1023, "pitch": 69, "duration": 5, "velocity": 107}, {"time": 1029, "pitch": 71, "duration": 5, "velocity": 127}, {"time": 1035, "pitch": 74, "duration": 16, "velocity": 127}, {"time": 1059, "pitch": 71, "duration": 4, "velocity": 127}, {"time": 1065, "pitch": 69, "duration": 4, "velocity": 127}, {"time": 1071, "pitch": 69, "duration": 4, "velocity": 127}, {"time": 1077, "pitch": 67, "duration": 4, "velocity": 127}, {"time": 1083, "pitch": 64, "duration": 18, "velocity": 107}, {"time": 1107, "pitch": 69, "duration": 6, "velocity": 127}, {"time": 1116, "pitch": 69, "duration": 1, "velocity": 127}, {"time": 1119, "pitch": 69, "duration": 3, "velocity": 112}, {"time": 1125, "pitch": 67, "duration": 4, "velocity": 117}, {"time": 1131, "pitch": 69, "duration": 3, "velocity": 127}, {"time": 1137, "pitch": 69, "duration": 3, "velocity": 127}, {"time": 1140, "pitch": 67, "duration": 2, "velocity": 112}, {"time": 1143, "pitch": 62, "duration": 6, "velocity": 117}, {"time": 1149, "pitch": 64, "duration": 5, "velocity": 122}, {"time": 1155, "pitch": 67, "duration": 31, "velocity": 127}, {"time": 1203, "pitch": 74, "duration": 6, "velocity": 127}, {"time": 1212, "pitch": 74, "duration": 2, "velocity": 112}, {"time": 1215, "pitch": 74, "duration": 4, "velocity": 122}, {"time": 1221, "pitch": 76, "duration": 4, "velocity": 127}, {"time": 1227, "pitch": 79, "duration": 7, "velocity": 127}, {"time": 1236, "pitch": 79, "duration": 6, "velocity": 127}, {"time": 1248, "pitch": 71, "duration": 6, "velocity": 117}, {"time": 1257, "pitch": 74, "duration": 31, "velocity": 127}, {"time": 1299, "pitch": 76, "duration": 5, "velocity": 127}, {"time": 1305, "pitch": 79, "duration": 4, "velocity": 127}, {"time": 1311, "pitch": 76, "duration": 4, "velocity": 127}, {"time": 1317, "pitch": 74, "duration": 4, "velocity": 112}, {"time": 1323, "pitch": 76, "duration": 6, "velocity": 127}, {"time": 1329, "pitch": 74, "duration": 4, "velocity": 127}, {"time": 1335, "pitch": 71, "duration": 5, "velocity": 127}, {"time": 1347, "pitch": 67, "duration": 5, "velocity": 127}, {"time": 1353, "pitch": 64, "duration": 5, "velocity": 107}, {"time": 1359, "pitch": 71, "duration": 5, "velocity": 127}, {"time": 1365, "pitch": 67, "duration": 4, "velocity": 127}, {"time": 1371, "pitch": 69, "duration": 18, "velocity": 127}, {"time": 1395, "pitch": 71, "duration": 4, "velocity": 127}, {"time": 1401, "pitch": 71, "duration": 5, "velocity": 127}, {"time": 1407, "pitch": 69, "duration": 5, "velocity": 112}, {"time": 1413, "pitch": 71, "duration": 6, "velocity": 127}, {"time": 1419, "pitch": 74, "duration": 15, "velocity": 127}, {"time": 1443, "pitch": 69, "duration": 5, "velocity": 127}, {"time": 1449, "pitch": 71, "duration": 4, "velocity": 127}, {"time": 1455, "pitch": 69, "duration": 4, "velocity": 127}, {"time": 1461, "pitch": 67, "duration": 5, "velocity": 127}, {"time": 1467, "pitch": 64, "duration": 19, "velocity": 117}, {"time": 1491, "pitch": 69, "duration": 6, "velocity": 127}, {"time": 1500, "pitch": 69, "duration": 2, "velocity": 107}, {"time": 1503, "pitch": 69, "duration": 4, "velocity": 127}, {"time": 1509, "pitch": 71, "duration": 4, "velocity": 127}, {"time": 1515, "pitch": 69, "duration": 5, "velocity": 127}, {"time": 1521, "pitch": 67, "duration": 4, "velocity": 127}, {"time": 1527, "pitch": 64, "duration": 8, "velocity": 127}, {"time": 1539, "pitch": 76, "duration": 5, "velocity": 127}, {"time": 1545, "pitch": 79, "duration": 4, "velocity": 127}, {"time": 1551, "pitch": 79, "duration": 3, "velocity": 127}, {"time": 1557, "pitch": 71, "duration": 5, "velocity": 127}, {"time": 1563, "pitch": 74, "duration": 21, "velocity": 127}, {"time": 1587, "pitch": 74, "duration": 6, "velocity": 127}, {"time": 1596, "pitch": 74, "duration": 2, "velocity": 112}, {"time": 1599, "pitch": 74, "duration": 4, "velocity": 122}, {"time": 1605, "pitch": 76, "duration": 4, "velocity": 127}, {"time": 1611, "pitch": 79, "duration": 7, "velocity": 127}, {"time": 1620, "pitch": 79, "duration": 6, "velocity": 127}, {"time": 1632, "pitch": 71, "duration": 6, "velocity": 117}, {"time": 1641, "pitch": 74, "duration": 31, "velocity": 127}, {"time": 1683, "pitch": 76, "duration": 5, "velocity": 127}, {"time": 1689, "pitch": 79, "duration": 4, "velocity": 127}, {"time": 1695, "pitch": 76, "duration": 4, "velocity": 127}, {"time": 1701, "pitch": 74, "duration": 4, "velocity": 112}, {"time": 1707, "pitch": 76, "duration": 6, "velocity": 127}, {"time": 1713, "pitch": 74, "duration": 4, "velocity": 127}, {"time": 1719, "pitch": 71, "duration": 10, "velocity": 127}, {"time": 1731, "pitch": 67, "duration": 5, "velocity": 127}, {"time": 1737, "pitch": 64, "duration": 5, "velocity": 107}, {"time": 1743, "pitch": 71, "duration": 5, "velocity": 127}, {"time": 1749, "pitch": 67, "duration": 4, "velocity": 127}, {"time": 1755, "pitch": 69, "duration": 18, "velocity": 127}, {"time": 1779, "pitch": 71, "duration": 4, "velocity": 127}, {"time": 1785, "pitch": 71, "duration": 5, "velocity": 127}, {"time": 1791, "pitch": 69, "duration": 5, "velocity": 112}, {"time": 1797, "pitch": 71, "duration": 6, "velocity": 127}, {"time": 1803, "pitch": 74, "duration": 15, "velocity": 127}, {"time": 1827, "pitch": 69, "duration": 5, "velocity": 127}, {"time": 1833, "pitch": 71, "duration": 4, "velocity": 127}, {"time": 1839, "pitch": 69, "duration": 4, "velocity": 127}, {"time": 1845, "pitch": 67, "duration": 5, "velocity": 127}, {"time": 1851, "pitch": 64, "duration": 19, "velocity": 117}, {"time": 1875, "pitch": 62, "duration": 3, "velocity": 107}, {"time": 1881, "pitch": 64, "duration": 4, "velocity": 127}, {"time": 1887, "pitch": 64, "duration": 4, "velocity": 127}, {"time": 1893, "pitch": 62, "duration": 4, "velocity": 127}, {"time": 1899, "pitch": 76, "duration": 5, "velocity": 127}, {"time": 1905, "pitch": 74, "duration": 4, "velocity": 127}, {"time": 1911, "pitch": 71, "duration": 5, "velocity": 127}, {"time": 1923, "pitch": 69, "duration": 5, "velocity": 127}, {"time": 1929, "pitch": 71, "duration": 4, "velocity": 127}, {"time": 1935, "pitch": 62, "duration": 5, "velocity": 122}, {"time": 1941, "pitch": 64, "duration": 4, "velocity": 127}, {"time": 1947, "pitch": 67, "duration": 23, "velocity": 127}, {"time": 2355, "pitch": 71, "duration": 3, "velocity": 127}, {"time": 2361, "pitch": 71, "duration": 3, "velocity": 127}, {"time": 2367, "pitch": 71, "duration": 3, "velocity": 127}, {"time": 2373, "pitch": 69, "duration": 4, "velocity": 117}, {"time": 2379, "pitch": 71, "duration": 4, "velocity": 117}, {"time": 2385, "pitch": 69, "duration": 4, "velocity": 127}, {"time": 2388, "pitch": 71, "duration": 2, "velocity": 112}, {"time": 2391, "pitch": 62, "duration": 5, "velocity": 122}, {"time": 2397, "pitch": 64, "duration": 5, "velocity": 112}, {"time": 2403, "pitch": 67, "duration": 17, "velocity": 127}, {"time": 2451, "pitch": 67, "duration": 6, "velocity": 127}, {"time": 2460, "pitch": 67, "duration": 1, "velocity": 122}, {"time": 2463, "pitch": 67, "duration": 4, "velocity": 99}, {"time": 2469, "pitch": 64, "duration": 5, "velocity": 112}, {"time": 2475, "pitch": 76, "duration": 5, "velocity": 127}, {"time": 2481, "pitch": 74, "duration": 4, "velocity": 117}, {"time": 2487, "pitch": 74, "duration": 4, "velocity": 127}, {"time": 2499, "pitch": 69, "duration": 7, "velocity": 122}, {"time": 2508, "pitch": 71, "duration": 30, "velocity": 127}, {"time": 2547, "pitch": 71, "duration": 4, "velocity": 122}, {"time": 2553, "pitch": 71, "duration": 6, "velocity": 117}, {"time": 2559, "pitch": 69, "duration": 5, "velocity": 107}, {"time": 2565, "pitch": 71, "duration": 5, "velocity": 127}, {"time": 2571, "pitch": 74, "duration": 16, "velocity": 127}, {"time": 2595, "pitch": 71, "duration": 4, "velocity": 127}, {"time": 2601, "pitch": 69, "duration": 4, "velocity": 127}, {"time": 2607, "pitch": 69, "duration": 4, "velocity": 127}, {"time": 2613, "pitch": 67, "duration": 4, "velocity": 127}, {"time": 2619, "pitch": 64, "duration": 18, "velocity": 107}, {"time": 2643, "pitch": 69, "duration": 6, "velocity": 127}, {"time": 2652, "pitch": 69, "duration": 1, "velocity": 127}, {"time": 2655, "pitch": 69, "duration": 3, "velocity": 112}, {"time": 2661, "pitch": 67, "duration": 4, "velocity": 117}, {"time": 2667, "pitch": 69, "duration": 3, "velocity": 127}, {"time": 2673, "pitch": 69, "duration": 3, "velocity": 127}, {"time": 2676, "pitch": 67, "duration": 2, "velocity": 112}, {"time": 2679, "pitch": 62, "duration": 6, "velocity": 117}, {"time": 2685, "pitch": 64, "duration": 5, "velocity": 122}, {"time": 2691, "pitch": 67, "duration": 31, "velocity": 127}, {"time": 2739, "pitch": 74, "duration": 6, "velocity": 127}, {"time": 2748, "pitch": 74, "duration": 2, "velocity": 112}, {"time": 2751, "pitch": 74, "duration": 4, "velocity": 122}, {"time": 2757, "pitch": 76, "duration": 4, "velocity": 127}, {"time": 2763, "pitch": 79, "duration": 7, "velocity": 127}, {"time": 2772, "pitch": 79, "duration": 6, "velocity": 127}, {"time": 2784, "pitch": 71, "duration": 6, "velocity": 117}, {"time": 2793, "pitch": 74, "duration": 31, "velocity": 127}, {"time": 2835, "pitch": 76, "duration": 5, "velocity": 127}, {"time": 2841, "pitch": 79, "duration": 4, "velocity": 127}, {"time": 2847, "pitch": 76, "duration": 4, "velocity": 127}, {"time": 2853, "pitch": 74, "duration": 4, "velocity": 112}, {"time": 2859, "pitch": 76, "duration": 6, "velocity": 127}, {"time": 2865, "pitch": 74, "duration": 4, "velocity": 127}, {"time": 2871, "pitch": 71, "duration": 5, "velocity": 127}, {"time": 2883, "pitch": 67, "duration": 5, "velocity": 127}, {"time": 2889, "pitch": 64, "duration": 5, "velocity": 107}, {"time": 2895, "pitch": 71, "duration": 5, "velocity": 127}, {"time": 2901, "pitch": 67, "duration": 4, "velocity": 127}, {"time": 2907, "pitch": 69, "duration": 18, "velocity": 127}, {"time": 2931, "pitch": 71, "duration": 4, "velocity": 127}, {"time": 2937, "pitch": 71, "duration": 5, "velocity": 127}, {"time": 2943, "pitch": 69, "duration": 5, "velocity": 112}, {"time": 2949, "pitch": 71, "duration": 6, "velocity": 127}, {"time": 2955, "pitch": 74, "duration": 15, "velocity": 127}, {"time": 2979, "pitch": 69, "duration": 5, "velocity": 127}, {"time": 2985, "pitch": 71, "duration": 4, "velocity": 127}, {"time": 2991, "pitch": 69, "duration": 4, "velocity": 127}, {"time": 2997, "pitch": 67, "duration": 5, "velocity": 127}, {"time": 3003, "pitch": 64, "duration": 19, "velocity": 117}, {"time": 3027, "pitch": 69, "duration": 6, "velocity": 127}, {"time": 3036, "pitch": 69, "duration": 2, "velocity": 107}, {"time": 3039, "pitch": 69, "duration": 4, "velocity": 127}, {"time": 3045, "pitch": 71, "duration": 4, "velocity": 127}, {"time": 3051, "pitch": 69, "duration": 5, "velocity": 127}, {"time": 3057, "pitch": 67, "duration": 4, "velocity": 127}, {"time": 3063, "pitch": 64, "duration": 8, "velocity": 127}, {"time": 3075, "pitch": 76, "duration": 5, "velocity": 127}, {"time": 3081, "pitch": 79, "duration": 4, "velocity": 127}, {"time": 3087, "pitch": 79, "duration": 3, "velocity": 127}, {"time": 3093, "pitch": 71, "duration": 5, "velocity": 127}, {"time": 3099, "pitch": 74, "duration": 21, "velocity": 127}, {"time": 3123, "pitch": 74, "duration": 6, "velocity": 127}, {"time": 3132, "pitch": 74, "duration": 2, "velocity": 112}, {"time": 3135, "pitch": 74, "duration": 4, "velocity": 122}, {"time": 3141, "pitch": 76, "duration": 4, "velocity": 127}, {"time": 3147, "pitch": 79, "duration": 7, "velocity": 127}, {"time": 3156, "pitch": 79, "duration": 6, "velocity": 127}, {"time": 3168, "pitch": 71, "duration": 6, "velocity": 117}, {"time": 3177, "pitch": 74, "duration": 31, "velocity": 127}, {"time": 3219, "pitch": 76, "duration": 5, "velocity": 127}, {"time": 3225, "pitch": 79, "duration": 4, "velocity": 127}, {"time": 3231, "pitch": 76, "duration": 4, "velocity": 127}, {"time": 3237, "pitch": 74, "duration": 4, "velocity": 112}, {"time": 3243, "pitch": 76, "duration": 6, "velocity": 127}, {"time": 3249, "pitch": 74, "duration": 4, "velocity": 127}, {"time": 3255, "pitch": 71, "duration": 10, "velocity": 127}, {"time": 3267, "pitch": 67, "duration": 5, "velocity": 127}, {"time": 3273, "pitch": 64, "duration": 5, "velocity": 107}, {"time": 3279, "pitch": 71, "duration": 5, "velocity": 127}, {"time": 3285, "pitch": 67, "duration": 4, "velocity": 127}, {"time": 3291, "pitch": 69, "duration": 18, "velocity": 127}, {"time": 3315, "pitch": 71, "duration": 4, "velocity": 127}, {"time": 3321, "pitch": 71, "duration": 5, "velocity": 127}, {"time": 3327, "pitch": 69, "duration": 5, "velocity": 112}, {"time": 3333, "pitch": 71, "duration": 6, "velocity": 127}, {"time": 3339, "pitch": 74, "duration": 15, "velocity": 127}, {"time": 3363, "pitch": 69, "duration": 5, "velocity": 127}, {"time": 3369, "pitch": 71, "duration": 4, "velocity": 127}, {"time": 3375, "pitch": 69, "duration": 4, "velocity": 127}, {"time": 3381, "pitch": 67, "duration": 5, "velocity": 127}, {"time": 3387, "pitch": 64, "duration": 19, "velocity": 117}, {"time": 3411, "pitch": 62, "duration": 3, "velocity": 107}, {"time": 3417, "pitch": 64, "duration": 4, "velocity": 127}, {"time": 3423, "pitch": 64, "duration": 4, "velocity": 127}, {"time": 3429, "pitch": 62, "duration": 4, "velocity": 127}, {"time": 3435, "pitch": 76, "duration": 5, "velocity": 127}, {"time": 3441, "pitch": 74, "duration": 4, "velocity": 127}, {"time": 3447, "pitch": 71, "duration": 5, "velocity": 127}, {"time": 3459, "pitch": 69, "duration": 5, "velocity": 127}, {"time": 3465, "pitch": 71, "duration": 4, "velocity": 127}, {"time": 3471, "pitch": 62, "duration": 5, "velocity": 122}, {"time": 3477, "pitch": 64, "duration": 4, "velocity": 127}, {"time": 3483, "pitch": 67, "duration": 23, "velocity": 127}, {"time": 3507, "pitch": 74, "duration": 6, "velocity": 127}, {"time": 3516, "pitch": 74, "duration": 2, "velocity": 112}, {"time": 3519, "pitch": 74, "duration": 4, "velocity": 122}, {"time": 3525, "pitch": 76, "duration": 4, "velocity": 127}, {"time": 3531, "pitch": 79, "duration": 7, "velocity": 127}, {"time": 3540, "pitch": 79, "duration": 6, "velocity": 127}, {"time": 3552, "pitch": 71, "duration": 6, "velocity": 117}, {"time": 3561, "pitch": 74, "duration": 31, "velocity": 127}, {"time": 3603, "pitch": 76, "duration": 5, "velocity": 127}, {"time": 3609, "pitch": 79, "duration": 4, "velocity": 127}, {"time": 3615, "pitch": 76, "duration": 4, "velocity": 127}, {"time": 3621, "pitch": 74, "duration": 4, "velocity": 112}, {"time": 3627, "pitch": 76, "duration": 6, "velocity": 127}, {"time": 3633, "pitch": 74, "duration": 4, "velocity": 127}, {"time": 3639, "pitch": 71, "duration": 5, "velocity": 127}, {"time": 3651, "pitch": 67, "duration": 5, "velocity": 127}, {"time": 3657, "pitch": 64, "duration": 5, "velocity": 107}, {"time": 3663, "pitch": 71, "duration": 5, "velocity": 127}, {"time": 3669, "pitch": 67, "duration": 4, "velocity": 127}, {"time": 3675, "pitch": 69, "duration": 18, "velocity": 127}, {"time": 3699, "pitch": 71, "duration": 4, "velocity": 127}, {"time": 3705, "pitch": 71, "duration": 5, "velocity": 127}, {"time": 3711, "pitch": 69, "duration": 5, "velocity": 112}, {"time": 3717, "pitch": 71, "duration": 6, "velocity": 127}, {"time": 3723, "pitch": 74, "duration": 15, "velocity": 127}, {"time": 3747, "pitch": 69, "duration": 5, "velocity": 127}, {"time": 3753, "pitch": 71, "duration": 4, "velocity": 127}, {"time": 3759, "pitch": 69, "duration": 4, "velocity": 127}, {"time": 3765, "pitch": 67, "duration": 5, "velocity": 127}, {"time": 3771, "pitch": 64, "duration": 19, "velocity": 117}, {"time": 3795, "pitch": 69, "duration": 6, "velocity": 127}, {"time": 3804, "pitch": 69, "duration": 2, "velocity": 107}, {"time": 3807, "pitch": 69, "duration": 4, "velocity": 127}, {"time": 3813, "pitch": 71, "duration": 4, "velocity": 127}, {"time": 3819, "pitch": 69, "duration": 5, "velocity": 127}, {"time": 3825, "pitch": 67, "duration": 4, "velocity": 127}, {"time": 3831, "pitch": 64, "duration": 8, "velocity": 127}, {"time": 3843, "pitch": 76, "duration": 5, "velocity": 127}, {"time": 3849, "pitch": 79, "duration": 4, "velocity": 127}, {"time": 3855, "pitch": 79, "duration": 3, "velocity": 127}, {"time": 3861, "pitch": 71, "duration": 5, "velocity": 127}, {"time": 3867, "pitch": 74, "duration": 21, "velocity": 127}, {"time": 3891, "pitch": 74, "duration": 6, "velocity": 127}, {"time": 3900, "pitch": 74, "duration": 2, "velocity": 112}, {"time": 3903, "pitch": 74, "duration": 4, "velocity": 122}, {"time": 3909, "pitch": 76, "duration": 4, "velocity": 127}, {"time": 3915, "pitch": 79, "duration": 7, "velocity": 127}, {"time": 3924, "pitch": 79, "duration": 6, "velocity": 127}, {"time": 3936, "pitch": 71, "duration": 6, "velocity": 117}, {"time": 3945, "pitch": 74, "duration": 31, "velocity": 127}, {"time": 3987, "pitch": 76, "duration": 5, "velocity": 127}, {"time": 3993, "pitch": 79, "duration": 4, "velocity": 127}, {"time": 3999, "pitch": 76, "duration": 4, "velocity": 127}, {"time": 4005, "pitch": 74, "duration": 4, "velocity": 112}, {"time": 4011, "pitch": 76, "duration": 6, "velocity": 127}, {"time": 4017, "pitch": 74, "duration": 4, "velocity": 127}, {"time": 4023, "pitch": 71, "duration": 10, "velocity": 127}, {"time": 4034, "pitch": 74, "duration": 6, "velocity": 127}, {"time": 4041, "pitch": 76, "duration": 5, "velocity": 107}, {"time": 4047, "pitch": 76, "duration": 5, "velocity": 127}, {"time": 4053, "pitch": 67, "duration": 4, "velocity": 127}, {"time": 4059, "pitch": 69, "duration": 18, "velocity": 127}, {"time": 4083, "pitch": 71, "duration": 4, "velocity": 127}, {"time": 4089, "pitch": 71, "duration": 5, "velocity": 127}, {"time": 4095, "pitch": 69, "duration": 5, "velocity": 112}, {"time": 4101, "pitch": 71, "duration": 6, "velocity": 127}, {"time": 4107, "pitch": 74, "duration": 15, "velocity": 127}, {"time": 4131, "pitch": 69, "duration": 5, "velocity": 127}, {"time": 4137, "pitch": 71, "duration": 4, "velocity": 127}, {"time": 4143, "pitch": 69, "duration": 4, "velocity": 127}, {"time": 4149, "pitch": 67, "duration": 5, "velocity": 127}, {"time": 4155, "pitch": 64, "duration": 19, "velocity": 117}, {"time": 4179, "pitch": 62, "duration": 3, "velocity": 107}, {"time": 4185, "pitch": 64, "duration": 4, "velocity": 127}, {"time": 4191, "pitch": 64, "duration": 4, "velocity": 127}, {"time": 4197, "pitch": 62, "duration": 4, "velocity": 127}, {"time": 4203, "pitch": 76, "duration": 5, "velocity": 127}, {"time": 4209, "pitch": 74, "duration": 4, "velocity": 127}, {"time": 4215, "pitch": 71, "duration": 5, "velocity": 127}, {"time": 4227, "pitch": 69, "duration": 5, "velocity": 127}, {"time": 4233, "pitch": 71, "duration": 4, "velocity": 127}, {"time": 4239, "pitch": 62, "duration": 5, "velocity": 122}, {"time": 4245, "pitch": 64, "duration": 4, "velocity": 127}, {"time": 4251, "pitch": 67, "duration": 23, "velocity": 127}, {"time": 4299, "pitch": 64, "duration": 4, "velocity": 107}, {"time": 4305, "pitch": 67, "duration": 4, "velocity": 122}, {"time": 4311, "pitch": 67, "duration": 4, "velocity": 112}, {"time": 4317, "pitch": 64, "duration": 4, "velocity": 117}, {"time": 4323, "pitch": 76, "duration": 5, "velocity": 122}, {"time": 4329, "pitch": 74, "duration": 6, "velocity": 127}, {"time": 4335, "pitch": 71, "duration": 7, "velocity": 122}, {"time": 4347, "pitch": 69, "duration": 9, "velocity": 127}, {"time": 4359, "pitch": 71, "duration": 6, "velocity": 127}, {"time": 4395, "pitch": 62, "duration": 12, "velocity": 112}, {"time": 4407, "pitch": 64, "duration": 12, "velocity": 100}, {"time": 4419, "pitch": 67, "duration": 37, "velocity": 127}]}, {"program": 0, "is_drum": false, "name": "BRIDGE", "notes": [{"time": 1, "pitch": 100, "duration": 1, "velocity": 78}, {"time": 2, "pitch": 98, "duration": 1, "velocity": 78}, {"time": 3, "pitch": 95, "duration": 2, "velocity": 78}, {"time": 4, "pitch": 93, "duration": 2, "velocity": 78}, {"time": 5, "pitch": 91, "duration": 2, "velocity": 78}, {"time": 6, "pitch": 88, "duration": 2, "velocity": 78}, {"time": 7, "pitch": 86, "duration": 1, "velocity": 78}, {"time": 9, "pitch": 83, "duration": 1, "velocity": 78}, {"time": 9, "pitch": 81, "duration": 2, "velocity": 78}, {"time": 10, "pitch": 79, "duration": 2, "velocity": 78}, {"time": 11, "pitch": 76, "duration": 2, "velocity": 78}, {"time": 12, "pitch": 74, "duration": 2, "velocity": 77}, {"time": 13, "pitch": 71, "duration": 1, "velocity": 77}, {"time": 14, "pitch": 69, "duration": 1, "velocity": 77}, {"time": 14, "pitch": 67, "duration": 1, "velocity": 76}, {"time": 14, "pitch": 69, "duration": 1, "velocity": 76}, {"time": 15, "pitch": 67, "duration": 1, "velocity": 76}, {"time": 15, "pitch": 88, "duration": 2, "velocity": 76}, {"time": 16, "pitch": 86, "duration": 2, "velocity": 76}, {"time": 17, "pitch": 83, "duration": 2, "velocity": 76}, {"time": 18, "pitch": 81, "duration": 1, "velocity": 76}, {"time": 18, "pitch": 79, "duration": 2, "velocity": 76}, {"time": 19, "pitch": 76, "duration": 2, "velocity": 76}, {"time": 20, "pitch": 74, "duration": 2, "velocity": 76}, {"time": 21, "pitch": 71, "duration": 2, "velocity": 76}, {"time": 22, "pitch": 69, "duration": 2, "velocity": 76}, {"time": 23, "pitch": 67, "duration": 1, "velocity": 76}, {"time": 24, "pitch": 64, "duration": 1, "velocity": 76}, {"time": 24, "pitch": 62, "duration": 2, "velocity": 76}, {"time": 25, "pitch": 59, "duration": 2, "velocity": 76}, {"time": 26, "pitch": 57, "duration": 1, "velocity": 76}, {"time": 27, "pitch": 55, "duration": 1, "velocity": 76}, {"time": 28, "pitch": 47, "duration": 2, "velocity": 76}, {"time": 28, "pitch": 50, "duration": 2, "velocity": 76}, {"time": 29, "pitch": 52, "duration": 2, "velocity": 76}, {"time": 30, "pitch": 55, "duration": 2, "velocity": 76}, {"time": 31, "pitch": 57, "duration": 2, "velocity": 76}, {"time": 32, "pitch": 59, "duration": 2, "velocity": 76}, {"time": 33, "pitch": 62, "duration": 2, "velocity": 76}, {"time": 34, "pitch": 64, "duration": 2, "velocity": 76}, {"time": 35, "pitch": 67, "duration": 2, "velocity": 76}, {"time": 36, "pitch": 69, "duration": 2, "velocity": 76}, {"time": 37, "pitch": 71, "duration": 1, "velocity": 76}, {"time": 37, "pitch": 74, "duration": 2, "velocity": 76}, {"time": 38, "pitch": 47, "duration": 2, "velocity": 76}, {"time": 38, "pitch": 50, "duration": 2, "velocity": 76}, {"time": 40, "pitch": 52, "duration": 1, "velocity": 76}, {"time": 40, "pitch": 55, "duration": 2, "velocity": 76}, {"time": 41, "pitch": 57, "duration": 2, "velocity": 76}, {"time": 42, "pitch": 59, "duration": 1, "velocity": 76}, {"time": 42, "pitch": 62, "duration": 2, "velocity": 76}, {"time": 43, "pitch": 64, "duration": 2, "velocity": 76}, {"time": 44, "pitch": 67, "duration": 2, "velocity": 76}, {"time": 45, "pitch": 69, "duration": 1, "velocity": 77}, {"time": 45, "pitch": 71, "duration": 2, "velocity": 77}, {"time": 46, "pitch": 74, "duration": 2, "velocity": 77}, {"time": 47, "pitch": 76, "duration": 1, "velocity": 77}, {"time": 48, "pitch": 79, "duration": 2, "velocity": 78}, {"time": 49, "pitch": 81, "duration": 1, "velocity": 78}, {"time": 49, "pitch": 83, "duration": 2, "velocity": 78}, {"time": 50, "pitch": 86, "duration": 2, "velocity": 78}, {"time": 51, "pitch": 71, "duration": 6, "velocity": 127}, {"time": 60, "pitch": 71, "duration": 2, "velocity": 112}, {"time": 63, "pitch": 71, "duration": 4, "velocity": 117}, {"time": 69, "pitch": 69, "duration": 5, "velocity": 127}, {"time": 75, "pitch": 71, "duration": 4, "velocity": 127}, {"time": 81, "pitch": 69, "duration": 4, "velocity": 122}, {"time": 87, "pitch": 67, "duration": 6, "velocity": 127}, {"time": 93, "pitch": 64, "duration": 6, "velocity": 117}, {"time": 99, "pitch": 67, "duration": 46, "velocity": 127}, {"time": 147, "pitch": 67, "duration": 6, "velocity": 127}, {"time": 156, "pitch": 67, "duration": 2, "velocity": 100}, {"time": 159, "pitch": 67, "duration": 5, "velocity": 127}, {"time": 165, "pitch": 64, "duration": 5, "velocity": 112}, {"time": 171, "pitch": 76, "duration": 6, "velocity": 127}, {"time": 177, "pitch": 74, "duration": 4, "velocity": 107}, {"time": 183, "pitch": 74, "duration": 5, "velocity": 127}, {"time": 189, "pitch": 69, "duration": 5, "velocity": 122}, {"time": 195, "pitch": 71, "duration": 34, "velocity": 127}, {"time": 225, "pitch": 62, "duration": 3, "velocity": 102}, {"time": 228, "pitch": 64, "duration": 3, "velocity": 100}, {"time": 231, "pitch": 67, "duration": 3, "velocity": 122}, {"time": 234, "pitch": 66, "duration": 4, "velocity": 112}, {"time": 237, "pitch": 67, "duration": 3, "velocity": 117}, {"time": 240, "pitch": 69, "duration": 4, "velocity": 117}, {"time": 243, "pitch": 71, "duration": 6, "velocity": 127}, {"time": 249, "pitch": 74, "duration": 4, "velocity": 127}, {"time": 252, "pitch": 71, "duration": 3, "velocity": 122}, {"time": 255, "pitch": 69, "duration": 5, "velocity": 117}, {"time": 261, "pitch": 71, "duration": 6, "velocity": 127}, {"time": 267, "pitch": 74, "duration": 20, "velocity": 127}, {"time": 285, "pitch": 76, "duration": 4, "velocity": 127}, {"time": 291, "pitch": 71, "duration": 4, "velocity": 127}, {"time": 297, "pitch": 69, "duration": 3, "velocity": 127}, {"time": 300, "pitch": 71, "duration": 3, "velocity": 100}, {"time": 303, "pitch": 69, "duration": 6, "velocity": 127}, {"time": 309, "pitch": 67, "duration": 6, "velocity": 93}, {"time": 315, "pitch": 64, "duration": 16, "velocity": 112}, {"time": 339, "pitch": 69, "duration": 10, "velocity": 107}, {"time": 348, "pitch": 71, "duration": 3, "velocity": 127}, {"time": 351, "pitch": 74, "duration": 6, "velocity": 107}, {"time": 357, "pitch": 76, "duration": 6, "velocity": 127}, {"time": 363, "pitch": 74, "duration": 5, "velocity": 127}, {"time": 369, "pitch": 71, "duration": 7, "velocity": 127}, {"time": 375, "pitch": 69, "duration": 6, "velocity": 117}, {"time": 381, "pitch": 64, "duration": 6, "velocity": 107}, {"time": 387, "pitch": 67, "duration": 33, "velocity": 127}, {"time": 409, "pitch": 76, "duration": 1, "velocity": 96}, {"time": 410, "pitch": 74, "duration": 1, "velocity": 95}, {"time": 411, "pitch": 71, "duration": 7, "velocity": 96}, {"time": 420, "pitch": 74, "duration": 2, "velocity": 78}, {"time": 421, "pitch": 71, "duration": 2, "velocity": 93}, {"time": 423, "pitch": 69, "duration": 7, "velocity": 95}, {"time": 429, "pitch": 64, "duration": 6, "velocity": 127}, {"time": 435, "pitch": 62, "duration": 27, "velocity": 100}, {"time": 489, "pitch": 62, "duration": 3, "velocity": 93}, {"time": 492, "pitch": 64, "duration": 3, "velocity": 107}, {"time": 495, "pitch": 67, "duration": 6, "velocity": 127}, {"time": 501, "pitch": 69, "duration": 6, "velocity": 122}, {"time": 507, "pitch": 71, "duration": 18, "velocity": 122}, {"time": 519, "pitch": 69, "duration": 6, "velocity": 127}, {"time": 525, "pitch": 67, "duration": 6, "velocity": 112}, {"time": 531, "pitch": 64, "duration": 23, "velocity": 107}, {"time": 588, "pitch": 76, "duration": 2, "velocity": 74}, {"time": 589, "pitch": 74, "duration": 2, "velocity": 100}, {"time": 591, "pitch": 71, "duration": 5, "velocity": 112}, {"time": 597, "pitch": 69, "duration": 7, "velocity": 86}, {"time": 603, "pitch": 71, "duration": 10, "velocity": 122}, {"time": 609, "pitch": 74, "duration": 5, "velocity": 127}, {"time": 615, "pitch": 76, "duration": 5, "velocity": 100}, {"time": 621, "pitch": 71, "duration": 6, "velocity": 117}, {"time": 627, "pitch": 74, "duration": 20, "velocity": 127}, {"time": 657, "pitch": 71, "duration": 6, "velocity": 117}, {"time": 663, "pitch": 69, "duration": 6, "velocity": 102}, {"time": 669, "pitch": 71, "duration": 6, "velocity": 100}, {"time": 675, "pitch": 67, "duration": 19, "velocity": 96}, {"time": 705, "pitch": 69, "duration": 6, "velocity": 99}, {"time": 711, "pitch": 71, "duration": 6, "velocity": 107}, {"time": 717, "pitch": 74, "duration": 6, "velocity": 112}, {"time": 723, "pitch": 76, "duration": 25, "velocity": 117}, {"time": 777, "pitch": 86, "duration": 1, "velocity": 117}, {"time": 780, "pitch": 86, "duration": 2, "velocity": 107}, {"time": 783, "pitch": 88, "duration": 1, "velocity": 99}, {"time": 786, "pitch": 88, "duration": 3, "velocity": 96}, {"time": 789, "pitch": 83, "duration": 2, "velocity": 99}, {"time": 792, "pitch": 83, "duration": 3, "velocity": 89}, {"time": 795, "pitch": 81, "duration": 2, "velocity": 90}, {"time": 798, "pitch": 81, "duration": 3, "velocity": 127}, {"time": 801, "pitch": 83, "duration": 2, "velocity": 96}, {"time": 804, "pitch": 83, "duration": 2, "velocity": 92}, {"time": 807, "pitch": 79, "duration": 1, "velocity": 112}, {"time": 810, "pitch": 79, "duration": 2, "velocity": 85}, {"time": 813, "pitch": 76, "duration": 2, "velocity": 97}, {"time": 816, "pitch": 76, "duration": 2, "velocity": 93}, {"time": 819, "pitch": 74, "duration": 24, "velocity": 112}, {"time": 873, "pitch": 64, "duration": 6, "velocity": 107}, {"time": 879, "pitch": 67, "duration": 6, "velocity": 122}, {"time": 885, "pitch": 69, "duration": 6, "velocity": 112}, {"time": 891, "pitch": 71, "duration": 11, "velocity": 100}, {"time": 903, "pitch": 69, "duration": 6, "velocity": 127}, {"time": 909, "pitch": 67, "duration": 6, "velocity": 107}, {"time": 915, "pitch": 64, "duration": 27, "velocity": 102}, {"time": 969, "pitch": 74, "duration": 5, "velocity": 127}, {"time": 975, "pitch": 76, "duration": 5, "velocity": 127}, {"time": 981, "pitch": 69, "duration": 6, "velocity": 117}, {"time": 987, "pitch": 71, "duration": 23, "velocity": 127}, {"time": 1035, "pitch": 74, "duration": 7, "velocity": 127}, {"time": 1044, "pitch": 74, "duration": 3, "velocity": 100}, {"time": 1047, "pitch": 71, "duration": 8, "velocity": 117}, {"time": 1092, "pitch": 71, "duration": 3, "velocity": 86}, {"time": 1095, "pitch": 67, "duration": 9, "velocity": 100}, {"time": 1168, "pitch": 93, "duration": 2, "velocity": 78}, {"time": 1169, "pitch": 91, "duration": 2, "velocity": 78}, {"time": 1170, "pitch": 88, "duration": 2, "velocity": 78}, {"time": 1171, "pitch": 86, "duration": 1, "velocity": 78}, {"time": 1173, "pitch": 83, "duration": 1, "velocity": 78}, {"time": 1173, "pitch": 81, "duration": 2, "velocity": 78}, {"time": 1174, "pitch": 79, "duration": 2, "velocity": 78}, {"time": 1175, "pitch": 76, "duration": 2, "velocity": 78}, {"time": 1176, "pitch": 74, "duration": 2, "velocity": 77}, {"time": 1177, "pitch": 71, "duration": 1, "velocity": 77}, {"time": 1178, "pitch": 69, "duration": 1, "velocity": 77}, {"time": 1178, "pitch": 67, "duration": 1, "velocity": 76}, {"time": 1178, "pitch": 69, "duration": 1, "velocity": 76}, {"time": 1179, "pitch": 67, "duration": 1, "velocity": 76}, {"time": 1179, "pitch": 88, "duration": 2, "velocity": 76}, {"time": 1180, "pitch": 86, "duration": 2, "velocity": 76}, {"time": 1181, "pitch": 83, "duration": 2, "velocity": 76}, {"time": 1182, "pitch": 81, "duration": 1, "velocity": 76}, {"time": 1182, "pitch": 79, "duration": 2, "velocity": 76}, {"time": 1183, "pitch": 76, "duration": 2, "velocity": 76}, {"time": 1184, "pitch": 74, "duration": 2, "velocity": 76}, {"time": 1185, "pitch": 71, "duration": 2, "velocity": 76}, {"time": 1186, "pitch": 69, "duration": 2, "velocity": 76}, {"time": 1187, "pitch": 67, "duration": 1, "velocity": 76}, {"time": 1188, "pitch": 64, "duration": 1, "velocity": 76}, {"time": 1188, "pitch": 62, "duration": 2, "velocity": 76}, {"time": 1189, "pitch": 59, "duration": 2, "velocity": 76}, {"time": 1190, "pitch": 57, "duration": 1, "velocity": 76}, {"time": 1191, "pitch": 55, "duration": 1, "velocity": 76}, {"time": 1192, "pitch": 47, "duration": 2, "velocity": 76}, {"time": 1192, "pitch": 50, "duration": 2, "velocity": 76}, {"time": 1193, "pitch": 52, "duration": 2, "velocity": 76}, {"time": 1194, "pitch": 55, "duration": 2, "velocity": 76}, {"time": 1195, "pitch": 57, "duration": 2, "velocity": 76}, {"time": 1196, "pitch": 59, "duration": 2, "velocity": 76}, {"time": 1197, "pitch": 62, "duration": 2, "velocity": 76}, {"time": 1198, "pitch": 64, "duration": 2, "velocity": 76}, {"time": 1199, "pitch": 67, "duration": 2, "velocity": 76}, {"time": 1200, "pitch": 69, "duration": 2, "velocity": 76}, {"time": 1201, "pitch": 71, "duration": 1, "velocity": 76}, {"time": 1201, "pitch": 74, "duration": 2, "velocity": 76}, {"time": 1257, "pitch": 71, "duration": 4, "velocity": 97}, {"time": 1260, "pitch": 74, "duration": 4, "velocity": 122}, {"time": 1263, "pitch": 76, "duration": 6, "velocity": 112}, {"time": 1269, "pitch": 71, "duration": 7, "velocity": 112}, {"time": 1275, "pitch": 74, "duration": 22, "velocity": 127}, {"time": 1281, "pitch": 71, "duration": 6, "velocity": 127}, {"time": 1287, "pitch": 67, "duration": 5, "velocity": 38}, {"time": 1293, "pitch": 64, "duration": 5, "velocity": 97}, {"time": 1299, "pitch": 67, "duration": 10, "velocity": 127}, {"time": 1377, "pitch": 71, "duration": 5, "velocity": 117}, {"time": 1383, "pitch": 74, "duration": 6, "velocity": 127}, {"time": 1389, "pitch": 76, "duration": 6, "velocity": 117}, {"time": 1395, "pitch": 74, "duration": 25, "velocity": 127}, {"time": 1419, "pitch": 71, "duration": 7, "velocity": 122}, {"time": 1425, "pitch": 74, "duration": 6, "velocity": 122}, {"time": 1431, "pitch": 71, "duration": 8, "velocity": 112}, {"time": 1467, "pitch": 69, "duration": 10, "velocity": 127}, {"time": 1476, "pitch": 71, "duration": 3, "velocity": 92}, {"time": 1479, "pitch": 67, "duration": 10, "velocity": 112}, {"time": 1569, "pitch": 74, "duration": 4, "velocity": 99}, {"time": 1572, "pitch": 76, "duration": 3, "velocity": 100}, {"time": 1575, "pitch": 79, "duration": 2, "velocity": 112}, {"time": 1578, "pitch": 76, "duration": 4, "velocity": 97}, {"time": 1581, "pitch": 79, "duration": 3, "velocity": 122}, {"time": 1584, "pitch": 81, "duration": 3, "velocity": 127}, {"time": 1587, "pitch": 79, "duration": 20, "velocity": 127}, {"time": 1641, "pitch": 74, "duration": 5, "velocity": 127}, {"time": 1647, "pitch": 76, "duration": 6, "velocity": 127}, {"time": 1653, "pitch": 74, "duration": 5, "velocity": 117}, {"time": 1659, "pitch": 71, "duration": 7, "velocity": 122}, {"time": 1665, "pitch": 69, "duration": 5, "velocity": 122}, {"time": 1671, "pitch": 71, "duration": 5, "velocity": 127}, {"time": 1677, "pitch": 64, "duration": 6, "velocity": 102}, {"time": 1683, "pitch": 67, "duration": 22, "velocity": 127}, {"time": 1731, "pitch": 64, "duration": 11, "velocity": 112}, {"time": 1743, "pitch": 71, "duration": 12, "velocity": 122}, {"time": 1755, "pitch": 69, "duration": 7, "velocity": 127}, {"time": 1761, "pitch": 71, "duration": 5, "velocity": 122}, {"time": 1767, "pitch": 74, "duration": 6, "velocity": 127}, {"time": 1773, "pitch": 76, "duration": 5, "velocity": 127}, {"time": 1779, "pitch": 74, "duration": 15, "velocity": 117}, {"time": 1803, "pitch": 71, "duration": 9, "velocity": 127}, {"time": 1812, "pitch": 74, "duration": 3, "velocity": 112}, {"time": 1815, "pitch": 71, "duration": 10, "velocity": 117}, {"time": 1851, "pitch": 67, "duration": 9, "velocity": 127}, {"time": 1860, "pitch": 66, "duration": 3, "velocity": 117}, {"time": 1863, "pitch": 64, "duration": 11, "velocity": 117}, {"time": 1959, "pitch": 62, "duration": 4, "velocity": 117}, {"time": 1962, "pitch": 64, "duration": 3, "velocity": 100}, {"time": 1965, "pitch": 67, "duration": 4, "velocity": 107}, {"time": 1968, "pitch": 69, "duration": 4, "velocity": 93}, {"time": 1971, "pitch": 71, "duration": 4, "velocity": 127}, {"time": 1977, "pitch": 74, "duration": 5, "velocity": 127}, {"time": 1983, "pitch": 76, "duration": 5, "velocity": 127}, {"time": 1986, "pitch": 74, "duration": 3, "velocity": 96}, {"time": 1989, "pitch": 71, "duration": 7, "velocity": 112}, {"time": 1995, "pitch": 74, "duration": 19, "velocity": 122}, {"time": 2019, "pitch": 71, "duration": 4, "velocity": 127}, {"time": 2025, "pitch": 69, "duration": 3, "velocity": 112}, {"time": 2028, "pitch": 71, "duration": 3, "velocity": 97}, {"time": 2031, "pitch": 69, "duration": 3, "velocity": 107}, {"time": 2034, "pitch": 67, "duration": 3, "velocity": 99}, {"time": 2037, "pitch": 64, "duration": 6, "velocity": 112}, {"time": 2043, "pitch": 67, "duration": 17, "velocity": 127}, {"time": 2067, "pitch": 76, "duration": 5, "velocity": 127}, {"time": 2073, "pitch": 79, "duration": 5, "velocity": 127}, {"time": 2079, "pitch": 81, "duration": 5, "velocity": 107}, {"time": 2085, "pitch": 79, "duration": 5, "velocity": 127}, {"time": 2091, "pitch": 76, "duration": 5, "velocity": 122}, {"time": 2097, "pitch": 74, "duration": 3, "velocity": 127}, {"time": 2100, "pitch": 71, "duration": 2, "velocity": 97}, {"time": 2103, "pitch": 69, "duration": 4, "velocity": 112}, {"time": 2106, "pitch": 71, "duration": 3, "velocity": 117}, {"time": 2109, "pitch": 74, "duration": 3, "velocity": 127}, {"time": 2112, "pitch": 76, "duration": 3, "velocity": 102}, {"time": 2115, "pitch": 74, "duration": 19, "velocity": 127}, {"time": 2145, "pitch": 62, "duration": 2, "velocity": 97}, {"time": 2148, "pitch": 64, "duration": 3, "velocity": 107}, {"time": 2151, "pitch": 67, "duration": 3, "velocity": 100}, {"time": 2154, "pitch": 66, "duration": 2, "velocity": 112}, {"time": 2157, "pitch": 67, "duration": 3, "velocity": 112}, {"time": 2160, "pitch": 69, "duration": 3, "velocity": 122}, {"time": 2163, "pitch": 71, "duration": 6, "velocity": 117}, {"time": 2169, "pitch": 74, "duration": 3, "velocity": 89}, {"time": 2172, "pitch": 71, "duration": 3, "velocity": 112}, {"time": 2175, "pitch": 69, "duration": 6, "velocity": 102}, {"time": 2181, "pitch": 71, "duration": 6, "velocity": 127}, {"time": 2187, "pitch": 74, "duration": 15, "velocity": 127}, {"time": 2205, "pitch": 76, "duration": 5, "velocity": 127}, {"time": 2211, "pitch": 71, "duration": 4, "velocity": 122}, {"time": 2217, "pitch": 69, "duration": 3, "velocity": 127}, {"time": 2220, "pitch": 71, "duration": 3, "velocity": 102}, {"time": 2223, "pitch": 69, "duration": 6, "velocity": 127}, {"time": 2229, "pitch": 67, "duration": 6, "velocity": 100}, {"time": 2235, "pitch": 64, "duration": 20, "velocity": 117}, {"time": 2259, "pitch": 69, "duration": 4, "velocity": 112}, {"time": 2265, "pitch": 69, "duration": 4, "velocity": 95}, {"time": 2268, "pitch": 71, "duration": 3, "velocity": 112}, {"time": 2271, "pitch": 74, "duration": 5, "velocity": 117}, {"time": 2277, "pitch": 76, "duration": 6, "velocity": 122}, {"time": 2283, "pitch": 74, "duration": 7, "velocity": 117}, {"time": 2289, "pitch": 71, "duration": 5, "velocity": 127}, {"time": 2295, "pitch": 69, "duration": 5, "velocity": 117}, {"time": 2301, "pitch": 64, "duration": 6, "velocity": 112}, {"time": 2307, "pitch": 67, "duration": 40, "velocity": 127}, {"time": 2313, "pitch": 86, "duration": 1, "velocity": 122}, {"time": 2316, "pitch": 86, "duration": 2, "velocity": 102}, {"time": 2319, "pitch": 88, "duration": 1, "velocity": 97}, {"time": 2322, "pitch": 88, "duration": 2, "velocity": 88}, {"time": 2325, "pitch": 83, "duration": 1, "velocity": 95}, {"time": 2328, "pitch": 83, "duration": 2, "velocity": 100}, {"time": 2331, "pitch": 81, "duration": 1, "velocity": 97}, {"time": 2334, "pitch": 81, "duration": 2, "velocity": 112}, {"time": 2337, "pitch": 83, "duration": 1, "velocity": 112}, {"time": 2340, "pitch": 83, "duration": 2, "velocity": 97}, {"time": 2343, "pitch": 79, "duration": 2, "velocity": 100}, {"time": 2346, "pitch": 79, "duration": 1, "velocity": 100}, {"time": 2349, "pitch": 76, "duration": 2, "velocity": 112}, {"time": 2352, "pitch": 76, "duration": 2, "velocity": 99}, {"time": 2355, "pitch": 74, "duration": 24, "velocity": 112}, {"time": 2409, "pitch": 64, "duration": 6, "velocity": 107}, {"time": 2415, "pitch": 67, "duration": 6, "velocity": 122}, {"time": 2421, "pitch": 69, "duration": 6, "velocity": 112}, {"time": 2427, "pitch": 71, "duration": 11, "velocity": 100}, {"time": 2439, "pitch": 69, "duration": 6, "velocity": 127}, {"time": 2445, "pitch": 67, "duration": 6, "velocity": 107}, {"time": 2451, "pitch": 64, "duration": 27, "velocity": 102}, {"time": 2505, "pitch": 74, "duration": 5, "velocity": 127}, {"time": 2511, "pitch": 76, "duration": 5, "velocity": 127}, {"time": 2517, "pitch": 69, "duration": 6, "velocity": 117}, {"time": 2523, "pitch": 71, "duration": 23, "velocity": 127}, {"time": 2571, "pitch": 74, "duration": 7, "velocity": 127}, {"time": 2580, "pitch": 74, "duration": 3, "velocity": 100}, {"time": 2583, "pitch": 71, "duration": 8, "velocity": 117}, {"time": 2619, "pitch": 69, "duration": 9, "velocity": 127}, {"time": 2628, "pitch": 71, "duration": 3, "velocity": 86}, {"time": 2631, "pitch": 67, "duration": 9, "velocity": 100}, {"time": 2704, "pitch": 93, "duration": 2, "velocity": 78}, {"time": 2705, "pitch": 91, "duration": 2, "velocity": 78}, {"time": 2706, "pitch": 88, "duration": 2, "velocity": 78}, {"time": 2707, "pitch": 86, "duration": 1, "velocity": 78}, {"time": 2709, "pitch": 83, "duration": 1, "velocity": 78}, {"time": 2709, "pitch": 81, "duration": 2, "velocity": 78}, {"time": 2710, "pitch": 79, "duration": 2, "velocity": 78}, {"time": 2711, "pitch": 76, "duration": 2, "velocity": 78}, {"time": 2712, "pitch": 74, "duration": 2, "velocity": 77}, {"time": 2713, "pitch": 71, "duration": 1, "velocity": 77}, {"time": 2714, "pitch": 69, "duration": 1, "velocity": 77}, {"time": 2714, "pitch": 67, "duration": 1, "velocity": 76}, {"time": 2714, "pitch": 69, "duration": 1, "velocity": 76}, {"time": 2715, "pitch": 67, "duration": 1, "velocity": 76}, {"time": 2715, "pitch": 88, "duration": 2, "velocity": 76}, {"time": 2716, "pitch": 86, "duration": 2, "velocity": 76}, {"time": 2717, "pitch": 83, "duration": 2, "velocity": 76}, {"time": 2718, "pitch": 81, "duration": 1, "velocity": 76}, {"time": 2718, "pitch": 79, "duration": 2, "velocity": 76}, {"time": 2719, "pitch": 76, "duration": 2, "velocity": 76}, {"time": 2720, "pitch": 74, "duration": 2, "velocity": 76}, {"time": 2721, "pitch": 71, "duration": 2, "velocity": 76}, {"time": 2722, "pitch": 69, "duration": 2, "velocity": 76}, {"time": 2723, "pitch": 67, "duration": 1, "velocity": 76}, {"time": 2724, "pitch": 64, "duration": 1, "velocity": 76}, {"time": 2724, "pitch": 62, "duration": 2, "velocity": 76}, {"time": 2725, "pitch": 59, "duration": 2, "velocity": 76}, {"time": 2726, "pitch": 57, "duration": 1, "velocity": 76}, {"time": 2727, "pitch": 55, "duration": 1, "velocity": 76}, {"time": 2728, "pitch": 47, "duration": 2, "velocity": 76}, {"time": 2728, "pitch": 50, "duration": 2, "velocity": 76}, {"time": 2729, "pitch": 52, "duration": 2, "velocity": 76}, {"time": 2730, "pitch": 55, "duration": 2, "velocity": 76}, {"time": 2731, "pitch": 57, "duration": 2, "velocity": 76}, {"time": 2732, "pitch": 59, "duration": 2, "velocity": 76}, {"time": 2733, "pitch": 62, "duration": 2, "velocity": 76}, {"time": 2734, "pitch": 64, "duration": 2, "velocity": 76}, {"time": 2735, "pitch": 67, "duration": 2, "velocity": 76}, {"time": 2736, "pitch": 69, "duration": 2, "velocity": 76}, {"time": 2737, "pitch": 71, "duration": 1, "velocity": 76}, {"time": 2737, "pitch": 74, "duration": 2, "velocity": 76}, {"time": 2793, "pitch": 71, "duration": 4, "velocity": 97}, {"time": 2796, "pitch": 74, "duration": 4, "velocity": 122}, {"time": 2799, "pitch": 76, "duration": 6, "velocity": 112}, {"time": 2805, "pitch": 71, "duration": 7, "velocity": 112}, {"time": 2811, "pitch": 74, "duration": 22, "velocity": 127}, {"time": 2817, "pitch": 71, "duration": 6, "velocity": 127}, {"time": 2823, "pitch": 67, "duration": 5, "velocity": 38}, {"time": 2829, "pitch": 64, "duration": 5, "velocity": 97}, {"time": 2835, "pitch": 67, "duration": 10, "velocity": 127}, {"time": 2913, "pitch": 71, "duration": 5, "velocity": 117}, {"time": 2919, "pitch": 74, "duration": 6, "velocity": 127}, {"time": 2925, "pitch": 76, "duration": 6, "velocity": 117}, {"time": 2931, "pitch": 74, "duration": 25, "velocity": 127}, {"time": 2955, "pitch": 71, "duration": 7, "velocity": 122}, {"time": 2961, "pitch": 74, "duration": 6, "velocity": 122}, {"time": 2967, "pitch": 71, "duration": 8, "velocity": 112}, {"time": 3003, "pitch": 69, "duration": 10, "velocity": 127}, {"time": 3012, "pitch": 71, "duration": 3, "velocity": 92}, {"time": 3015, "pitch": 67, "duration": 10, "velocity": 112}, {"time": 3105, "pitch": 74, "duration": 4, "velocity": 99}, {"time": 3108, "pitch": 76, "duration": 3, "velocity": 100}, {"time": 3111, "pitch": 79, "duration": 2, "velocity": 112}, {"time": 3114, "pitch": 76, "duration": 4, "velocity": 97}, {"time": 3117, "pitch": 79, "duration": 3, "velocity": 122}, {"time": 3120, "pitch": 81, "duration": 3, "velocity": 127}, {"time": 3123, "pitch": 79, "duration": 20, "velocity": 127}, {"time": 3177, "pitch": 74, "duration": 5, "velocity": 127}, {"time": 3183, "pitch": 76, "duration": 6, "velocity": 127}, {"time": 3189, "pitch": 74, "duration": 5, "velocity": 117}, {"time": 3195, "pitch": 71, "duration": 7, "velocity": 122}, {"time": 3201, "pitch": 69, "duration": 5, "velocity": 122}, {"time": 3207, "pitch": 71, "duration": 5, "velocity": 127}, {"time": 3213, "pitch": 64, "duration": 6, "velocity": 102}, {"time": 3219, "pitch": 67, "duration": 22, "velocity": 127}, {"time": 3267, "pitch": 64, "duration": 11, "velocity": 112}, {"time": 3279, "pitch": 71, "duration": 12, "velocity": 122}, {"time": 3291, "pitch": 69, "duration": 7, "velocity": 127}, {"time": 3297, "pitch": 71, "duration": 5, "velocity": 122}, {"time": 3303, "pitch": 74, "duration": 6, "velocity": 127}, {"time": 3309, "pitch": 76, "duration": 5, "velocity": 127}, {"time": 3315, "pitch": 74, "duration": 15, "velocity": 117}, {"time": 3339, "pitch": 71, "duration": 9, "velocity": 127}, {"time": 3348, "pitch": 74, "duration": 3, "velocity": 112}, {"time": 3351, "pitch": 71, "duration": 10, "velocity": 117}, {"time": 3387, "pitch": 67, "duration": 9, "velocity": 127}, {"time": 3396, "pitch": 66, "duration": 3, "velocity": 117}, {"time": 3399, "pitch": 64, "duration": 11, "velocity": 117}, {"time": 3489, "pitch": 74, "duration": 3, "velocity": 127}, {"time": 3492, "pitch": 76, "duration": 2, "velocity": 100}, {"time": 3495, "pitch": 76, "duration": 6, "velocity": 127}, {"time": 3501, "pitch": 74, "duration": 4, "velocity": 117}, {"time": 3504, "pitch": 76, "duration": 3, "velocity": 107}, {"time": 3507, "pitch": 79, "duration": 13, "velocity": 122}, {"time": 3561, "pitch": 71, "duration": 4, "velocity": 97}, {"time": 3564, "pitch": 74, "duration": 4, "velocity": 122}, {"time": 3567, "pitch": 76, "duration": 6, "velocity": 112}, {"time": 3573, "pitch": 71, "duration": 7, "velocity": 112}, {"time": 3579, "pitch": 74, "duration": 22, "velocity": 127}, {"time": 3585, "pitch": 71, "duration": 6, "velocity": 127}, {"time": 3591, "pitch": 67, "duration": 5, "velocity": 38}, {"time": 3597, "pitch": 64, "duration": 5, "velocity": 97}, {"time": 3603, "pitch": 67, "duration": 10, "velocity": 127}, {"time": 3681, "pitch": 71, "duration": 5, "velocity": 117}, {"time": 3687, "pitch": 74, "duration": 6, "velocity": 127}, {"time": 3693, "pitch": 76, "duration": 6, "velocity": 117}, {"time": 3699, "pitch": 74, "duration": 25, "velocity": 127}, {"time": 3723, "pitch": 71, "duration": 7, "velocity": 122}, {"time": 3729, "pitch": 74, "duration": 6, "velocity": 122}, {"time": 3735, "pitch": 71, "duration": 8, "velocity": 112}, {"time": 3771, "pitch": 69, "duration": 10, "velocity": 127}, {"time": 3780, "pitch": 71, "duration": 3, "velocity": 92}, {"time": 3783, "pitch": 67, "duration": 10, "velocity": 112}, {"time": 3873, "pitch": 74, "duration": 4, "velocity": 99}, {"time": 3876, "pitch": 76, "duration": 3, "velocity": 100}, {"time": 3879, "pitch": 79, "duration": 2, "velocity": 112}, {"time": 3882, "pitch": 76, "duration": 4, "velocity": 97}, {"time": 3885, "pitch": 79, "duration": 3, "velocity": 122}, {"time": 3888, "pitch": 81, "duration": 3, "velocity": 127}, {"time": 3891, "pitch": 79, "duration": 20, "velocity": 127}, {"time": 3945, "pitch": 74, "duration": 5, "velocity": 127}, {"time": 3951, "pitch": 76, "duration": 6, "velocity": 127}, {"time": 3957, "pitch": 74, "duration": 5, "velocity": 117}, {"time": 3963, "pitch": 71, "duration": 7, "velocity": 122}, {"time": 3969, "pitch": 69, "duration": 5, "velocity": 122}, {"time": 3975, "pitch": 71, "duration": 5, "velocity": 127}, {"time": 3981, "pitch": 64, "duration": 6, "velocity": 102}, {"time": 3987, "pitch": 67, "duration": 22, "velocity": 127}, {"time": 4035, "pitch": 64, "duration": 11, "velocity": 112}, {"time": 4047, "pitch": 71, "duration": 12, "velocity": 122}, {"time": 4059, "pitch": 69, "duration": 7, "velocity": 127}, {"time": 4065, "pitch": 71, "duration": 5, "velocity": 122}, {"time": 4071, "pitch": 74, "duration": 6, "velocity": 127}, {"time": 4077, "pitch": 76, "duration": 5, "velocity": 127}, {"time": 4083, "pitch": 74, "duration": 15, "velocity": 117}, {"time": 4107, "pitch": 71, "duration": 9, "velocity": 127}, {"time": 4116, "pitch": 74, "duration": 3, "velocity": 112}, {"time": 4119, "pitch": 71, "duration": 10, "velocity": 117}, {"time": 4155, "pitch": 67, "duration": 9, "velocity": 127}, {"time": 4164, "pitch": 66, "duration": 3, "velocity": 117}, {"time": 4167, "pitch": 64, "duration": 11, "velocity": 117}, {"time": 4347, "pitch": 69, "duration": 12, "velocity": 127}, {"time": 4359, "pitch": 71, "duration": 34, "velocity": 107}, {"time": 4431, "pitch": 88, "duration": 11, "velocity": 127}, {"time": 4443, "pitch": 86, "duration": 12, "velocity": 127}, {"time": 4455, "pitch": 83, "duration": 12, "velocity": 107}, {"time": 4467, "pitch": 81, "duration": 21, "velocity": 117}, {"time": 4479, "pitch": 83, "duration": 10, "velocity": 122}, {"time": 4491, "pitch": 74, "duration": 14, "velocity": 107}, {"time": 4503, "pitch": 76, "duration": 24, "velocity": 107}, {"time": 4527, "pitch": 79, "duration": 54, "velocity": 102}], "annotations": [{"time": 8, "annotation": {"number": 64, "value": 127}, "group": "control_change"}, {"time": 14, "annotation": {"number": 64, "value": 0}, "group": "control_change"}, {"time": 1172, "annotation": {"number": 64, "value": 127}, "group": "control_change"}, {"time": 1178, "annotation": {"number": 64, "value": 0}, "group": "control_change"}, {"time": 2708, "annotation": {"number": 64, "value": 127}, "group": "control_change"}, {"time": 2714, "annotation": {"number": 64, "value": 0}, "group": "control_change"}]}, {"program": 0, "is_drum": false, "name": "PIANO", "notes": [{"time": 51, "pitch": 43, "duration": 22, "velocity": 97}, {"time": 57, "pitch": 50, "duration": 17, "velocity": 78}, {"time": 63, "pitch": 62, "duration": 12, "velocity": 117}, {"time": 69, "pitch": 55, "duration": 6, "velocity": 102}, {"time": 75, "pitch": 43, "duration": 17, "velocity": 92}, {"time": 81, "pitch": 50, "duration": 11, "velocity": 75}, {"time": 87, "pitch": 71, "duration": 12, "velocity": 122}, {"time": 93, "pitch": 67, "duration": 7, "velocity": 96}, {"time": 99, "pitch": 40, "duration": 22, "velocity": 97}, {"time": 105, "pitch": 47, "duration": 18, "velocity": 63}, {"time": 111, "pitch": 59, "duration": 11, "velocity": 100}, {"time": 117, "pitch": 55, "duration": 5, "velocity": 88}, {"time": 123, "pitch": 40, "duration": 17, "velocity": 86}, {"time": 129, "pitch": 47, "duration": 11, "velocity": 52}, {"time": 135, "pitch": 52, "duration": 5, "velocity": 70}, {"time": 135, "pitch": 67, "duration": 12, "velocity": 97}, {"time": 135, "pitch": 71, "duration": 13, "velocity": 97}, {"time": 141, "pitch": 64, "duration": 6, "velocity": 86}, {"time": 147, "pitch": 36, "duration": 18, "velocity": 86}, {"time": 153, "pitch": 43, "duration": 12, "velocity": 59}, {"time": 159, "pitch": 60, "duration": 11, "velocity": 89}, {"time": 159, "pitch": 64, "duration": 11, "velocity": 95}, {"time": 165, "pitch": 55, "duration": 7, "velocity": 88}, {"time": 171, "pitch": 38, "duration": 17, "velocity": 86}, {"time": 177, "pitch": 45, "duration": 11, "velocity": 71}, {"time": 183, "pitch": 50, "duration": 10, "velocity": 72}, {"time": 183, "pitch": 66, "duration": 13, "velocity": 127}, {"time": 189, "pitch": 62, "duration": 6, "velocity": 82}, {"time": 195, "pitch": 43, "duration": 39, "velocity": 86}, {"time": 201, "pitch": 50, "duration": 35, "velocity": 59}, {"time": 207, "pitch": 55, "duration": 15, "velocity": 97}, {"time": 213, "pitch": 62, "duration": 11, "velocity": 99}, {"time": 219, "pitch": 71, "duration": 10, "velocity": 122}, {"time": 225, "pitch": 55, "duration": 6, "velocity": 88}, {"time": 231, "pitch": 67, "duration": 11, "velocity": 97}, {"time": 231, "pitch": 71, "duration": 12, "velocity": 112}, {"time": 237, "pitch": 62, "duration": 6, "velocity": 112}, {"time": 243, "pitch": 47, "duration": 22, "velocity": 97}, {"time": 246, "pitch": 54, "duration": 10, "velocity": 95}, {"time": 249, "pitch": 59, "duration": 4, "velocity": 99}, {"time": 252, "pitch": 62, "duration": 2, "velocity": 102}, {"time": 255, "pitch": 66, "duration": 12, "velocity": 127}, {"time": 258, "pitch": 54, "duration": 8, "velocity": 90}, {"time": 261, "pitch": 62, "duration": 5, "velocity": 99}, {"time": 264, "pitch": 59, "duration": 3, "velocity": 93}, {"time": 267, "pitch": 47, "duration": 18, "velocity": 77}, {"time": 270, "pitch": 54, "duration": 14, "velocity": 81}, {"time": 273, "pitch": 59, "duration": 7, "velocity": 90}, {"time": 276, "pitch": 62, "duration": 3, "velocity": 100}, {"time": 276, "pitch": 66, "duration": 1, "velocity": 37}, {"time": 279, "pitch": 71, "duration": 11, "velocity": 112}, {"time": 282, "pitch": 59, "duration": 2, "velocity": 86}, {"time": 285, "pitch": 66, "duration": 5, "velocity": 117}, {"time": 288, "pitch": 62, "duration": 3, "velocity": 102}, {"time": 291, "pitch": 40, "duration": 17, "velocity": 75}, {"time": 294, "pitch": 47, "duration": 14, "velocity": 86}, {"time": 297, "pitch": 52, "duration": 7, "velocity": 92}, {"time": 300, "pitch": 64, "duration": 3, "velocity": 96}, {"time": 303, "pitch": 67, "duration": 9, "velocity": 122}, {"time": 306, "pitch": 52, "duration": 2, "velocity": 95}, {"time": 309, "pitch": 64, "duration": 4, "velocity": 112}, {"time": 312, "pitch": 62, "duration": 2, "velocity": 93}, {"time": 315, "pitch": 37, "duration": 17, "velocity": 102}, {"time": 318, "pitch": 49, "duration": 11, "velocity": 86}, {"time": 321, "pitch": 61, "duration": 7, "velocity": 96}, {"time": 324, "pitch": 64, "duration": 4, "velocity": 65}, {"time": 327, "pitch": 67, "duration": 12, "velocity": 54}, {"time": 330, "pitch": 49, "duration": 3, "velocity": 67}, {"time": 333, "pitch": 61, "duration": 6, "velocity": 95}, {"time": 336, "pitch": 64, "duration": 3, "velocity": 55}, {"time": 339, "pitch": 45, "duration": 16, "velocity": 76}, {"time": 342, "pitch": 52, "duration": 13, "velocity": 63}, {"time": 345, "pitch": 57, "duration": 5, "velocity": 90}, {"time": 348, "pitch": 60, "duration": 4, "velocity": 81}, {"time": 351, "pitch": 64, "duration": 10, "velocity": 89}, {"time": 357, "pitch": 60, "duration": 6, "velocity": 95}, {"time": 363, "pitch": 38, "duration": 14, "velocity": 66}, {"time": 363, "pitch": 62, "duration": 24, "velocity": 83}, {"time": 375, "pitch": 66, "duration": 13, "velocity": 93}, {"time": 381, "pitch": 57, "duration": 6, "velocity": 83}, {"time": 387, "pitch": 43, "duration": 22, "velocity": 85}, {"time": 390, "pitch": 50, "duration": 21, "velocity": 67}, {"time": 393, "pitch": 55, "duration": 7, "velocity": 79}, {"time": 396, "pitch": 59, "duration": 4, "velocity": 72}, {"time": 399, "pitch": 67, "duration": 22, "velocity": 90}, {"time": 402, "pitch": 55, "duration": 3, "velocity": 71}, {"time": 405, "pitch": 62, "duration": 31, "velocity": 81}, {"time": 411, "pitch": 43, "duration": 23, "velocity": 72}, {"time": 411, "pitch": 59, "duration": 14, "velocity": 66}, {"time": 417, "pitch": 50, "duration": 17, "velocity": 44}, {"time": 423, "pitch": 67, "duration": 13, "velocity": 92}, {"time": 429, "pitch": 59, "duration": 6, "velocity": 54}, {"time": 435, "pitch": 43, "duration": 22, "velocity": 79}, {"time": 441, "pitch": 50, "duration": 19, "velocity": 69}, {"time": 447, "pitch": 67, "duration": 19, "velocity": 100}, {"time": 453, "pitch": 62, "duration": 16, "velocity": 97}, {"time": 459, "pitch": 43, "duration": 15, "velocity": 85}, {"time": 465, "pitch": 50, "duration": 8, "velocity": 92}, {"time": 471, "pitch": 62, "duration": 13, "velocity": 92}, {"time": 471, "pitch": 67, "duration": 13, "velocity": 96}, {"time": 477, "pitch": 59, "duration": 6, "velocity": 90}, {"time": 483, "pitch": 40, "duration": 41, "velocity": 92}, {"time": 489, "pitch": 47, "duration": 34, "velocity": 88}, {"time": 495, "pitch": 52, "duration": 15, "velocity": 93}, {"time": 501, "pitch": 59, "duration": 19, "velocity": 88}, {"time": 507, "pitch": 67, "duration": 9, "velocity": 97}, {"time": 513, "pitch": 52, "duration": 5, "velocity": 71}, {"time": 519, "pitch": 64, "duration": 13, "velocity": 89}, {"time": 519, "pitch": 67, "duration": 13, "velocity": 89}, {"time": 525, "pitch": 59, "duration": 7, "velocity": 89}, {"time": 531, "pitch": 36, "duration": 21, "velocity": 74}, {"time": 537, "pitch": 43, "duration": 17, "velocity": 48}, {"time": 543, "pitch": 64, "duration": 12, "velocity": 107}, {"time": 549, "pitch": 55, "duration": 8, "velocity": 93}, {"time": 555, "pitch": 38, "duration": 17, "velocity": 79}, {"time": 561, "pitch": 45, "duration": 12, "velocity": 62}, {"time": 567, "pitch": 50, "duration": 10, "velocity": 82}, {"time": 567, "pitch": 62, "duration": 12, "velocity": 83}, {"time": 567, "pitch": 66, "duration": 12, "velocity": 122}, {"time": 573, "pitch": 57, "duration": 7, "velocity": 89}, {"time": 579, "pitch": 43, "duration": 23, "velocity": 83}, {"time": 585, "pitch": 50, "duration": 8, "velocity": 59}, {"time": 591, "pitch": 55, "duration": 7, "velocity": 96}, {"time": 591, "pitch": 59, "duration": 22, "velocity": 88}, {"time": 597, "pitch": 50, "duration": 7, "velocity": 64}, {"time": 603, "pitch": 43, "duration": 19, "velocity": 75}, {"time": 603, "pitch": 62, "duration": 9, "velocity": 79}, {"time": 603, "pitch": 67, "duration": 9, "velocity": 95}, {"time": 609, "pitch": 50, "duration": 15, "velocity": 37}, {"time": 615, "pitch": 55, "duration": 5, "velocity": 93}, {"time": 615, "pitch": 62, "duration": 11, "velocity": 89}, {"time": 615, "pitch": 67, "duration": 9, "velocity": 95}, {"time": 621, "pitch": 59, "duration": 6, "velocity": 96}, {"time": 627, "pitch": 47, "duration": 23, "velocity": 72}, {"time": 633, "pitch": 54, "duration": 18, "velocity": 85}, {"time": 639, "pitch": 62, "duration": 12, "velocity": 97}, {"time": 639, "pitch": 66, "duration": 13, "velocity": 122}, {"time": 645, "pitch": 59, "duration": 7, "velocity": 85}, {"time": 651, "pitch": 47, "duration": 17, "velocity": 82}, {"time": 657, "pitch": 54, "duration": 8, "velocity": 99}, {"time": 663, "pitch": 66, "duration": 6, "velocity": 127}, {"time": 666, "pitch": 62, "duration": 9, "velocity": 97}, {"time": 669, "pitch": 59, "duration": 43, "velocity": 82}, {"time": 675, "pitch": 40, "duration": 21, "velocity": 78}, {"time": 681, "pitch": 47, "duration": 18, "velocity": 63}, {"time": 687, "pitch": 67, "duration": 20, "velocity": 92}, {"time": 693, "pitch": 64, "duration": 15, "velocity": 97}, {"time": 699, "pitch": 40, "duration": 18, "velocity": 93}, {"time": 705, "pitch": 47, "duration": 13, "velocity": 86}, {"time": 711, "pitch": 52, "duration": 11, "velocity": 92}, {"time": 711, "pitch": 67, "duration": 12, "velocity": 93}, {"time": 717, "pitch": 64, "duration": 6, "velocity": 96}, {"time": 723, "pitch": 45, "duration": 22, "velocity": 92}, {"time": 729, "pitch": 52, "duration": 18, "velocity": 53}, {"time": 735, "pitch": 64, "duration": 19, "velocity": 107}, {"time": 741, "pitch": 60, "duration": 15, "velocity": 96}, {"time": 744, "pitch": 57, "duration": 14, "velocity": 72}, {"time": 747, "pitch": 45, "duration": 15, "velocity": 88}, {"time": 753, "pitch": 52, "duration": 8, "velocity": 59}, {"time": 759, "pitch": 64, "duration": 11, "velocity": 100}, {"time": 765, "pitch": 60, "duration": 5, "velocity": 86}, {"time": 771, "pitch": 38, "duration": 37, "velocity": 76}, {"time": 777, "pitch": 45, "duration": 32, "velocity": 58}, {"time": 783, "pitch": 50, "duration": 34, "velocity": 100}, {"time": 789, "pitch": 57, "duration": 8, "velocity": 99}, {"time": 795, "pitch": 66, "duration": 7, "velocity": 127}, {"time": 801, "pitch": 62, "duration": 6, "velocity": 112}, {"time": 807, "pitch": 57, "duration": 7, "velocity": 102}, {"time": 813, "pitch": 59, "duration": 3, "velocity": 85}, {"time": 816, "pitch": 57, "duration": 4, "velocity": 82}, {"time": 819, "pitch": 43, "duration": 23, "velocity": 88}, {"time": 825, "pitch": 50, "duration": 20, "velocity": 51}, {"time": 831, "pitch": 55, "duration": 8, "velocity": 90}, {"time": 831, "pitch": 71, "duration": 22, "velocity": 88}, {"time": 837, "pitch": 67, "duration": 16, "velocity": 67}, {"time": 843, "pitch": 43, "duration": 17, "velocity": 81}, {"time": 849, "pitch": 50, "duration": 10, "velocity": 47}, {"time": 855, "pitch": 55, "duration": 4, "velocity": 81}, {"time": 855, "pitch": 67, "duration": 12, "velocity": 97}, {"time": 855, "pitch": 71, "duration": 12, "velocity": 100}, {"time": 861, "pitch": 62, "duration": 7, "velocity": 86}, {"time": 867, "pitch": 40, "duration": 41, "velocity": 82}, {"time": 873, "pitch": 47, "duration": 35, "velocity": 44}, {"time": 879, "pitch": 52, "duration": 23, "velocity": 88}, {"time": 885, "pitch": 59, "duration": 8, "velocity": 90}, {"time": 891, "pitch": 67, "duration": 11, "velocity": 117}, {"time": 897, "pitch": 64, "duration": 6, "velocity": 95}, {"time": 903, "pitch": 59, "duration": 7, "velocity": 96}, {"time": 909, "pitch": 55, "duration": 5, "velocity": 85}, {"time": 915, "pitch": 36, "duration": 22, "velocity": 93}, {"time": 921, "pitch": 43, "duration": 18, "velocity": 66}, {"time": 921, "pitch": 55, "duration": 13, "velocity": 81}, {"time": 927, "pitch": 48, "duration": 5, "velocity": 75}, {"time": 927, "pitch": 64, "duration": 12, "velocity": 102}, {"time": 933, "pitch": 60, "duration": 6, "velocity": 99}, {"time": 939, "pitch": 38, "duration": 17, "velocity": 74}, {"time": 945, "pitch": 45, "duration": 11, "velocity": 44}, {"time": 951, "pitch": 50, "duration": 11, "velocity": 78}, {"time": 951, "pitch": 66, "duration": 12, "velocity": 127}, {"time": 957, "pitch": 62, "duration": 7, "velocity": 97}, {"time": 963, "pitch": 43, "duration": 40, "velocity": 82}, {"time": 969, "pitch": 50, "duration": 35, "velocity": 69}, {"time": 975, "pitch": 55, "duration": 10, "velocity": 88}, {"time": 981, "pitch": 59, "duration": 7, "velocity": 92}, {"time": 987, "pitch": 62, "duration": 8, "velocity": 107}, {"time": 987, "pitch": 67, "duration": 8, "velocity": 112}, {"time": 993, "pitch": 55, "duration": 14, "velocity": 100}, {"time": 999, "pitch": 67, "duration": 8, "velocity": 102}, {"time": 1005, "pitch": 62, "duration": 7, "velocity": 102}, {"time": 1011, "pitch": 47, "duration": 23, "velocity": 82}, {"time": 1017, "pitch": 54, "duration": 19, "velocity": 90}, {"time": 1023, "pitch": 66, "duration": 19, "velocity": 127}, {"time": 1029, "pitch": 62, "duration": 15, "velocity": 112}, {"time": 1035, "pitch": 47, "duration": 21, "velocity": 78}, {"time": 1041, "pitch": 54, "duration": 10, "velocity": 92}, {"time": 1047, "pitch": 66, "duration": 11, "velocity": 127}, {"time": 1053, "pitch": 62, "duration": 6, "velocity": 96}, {"time": 1059, "pitch": 40, "duration": 18, "velocity": 85}, {"time": 1065, "pitch": 47, "duration": 12, "velocity": 74}, {"time": 1071, "pitch": 52, "duration": 6, "velocity": 99}, {"time": 1077, "pitch": 55, "duration": 7, "velocity": 107}, {"time": 1083, "pitch": 37, "duration": 17, "velocity": 94}, {"time": 1089, "pitch": 49, "duration": 13, "velocity": 92}, {"time": 1095, "pitch": 67, "duration": 12, "velocity": 77}, {"time": 1101, "pitch": 57, "duration": 7, "velocity": 100}, {"time": 1107, "pitch": 45, "duration": 16, "velocity": 82}, {"time": 1113, "pitch": 52, "duration": 9, "velocity": 57}, {"time": 1119, "pitch": 60, "duration": 12, "velocity": 99}, {"time": 1119, "pitch": 64, "duration": 9, "velocity": 97}, {"time": 1125, "pitch": 57, "duration": 9, "velocity": 85}, {"time": 1131, "pitch": 38, "duration": 16, "velocity": 86}, {"time": 1137, "pitch": 45, "duration": 10, "velocity": 54}, {"time": 1143, "pitch": 50, "duration": 7, "velocity": 62}, {"time": 1143, "pitch": 62, "duration": 13, "velocity": 97}, {"time": 1143, "pitch": 66, "duration": 13, "velocity": 112}, {"time": 1149, "pitch": 57, "duration": 7, "velocity": 72}, {"time": 1155, "pitch": 43, "duration": 46, "velocity": 96}, {"time": 1161, "pitch": 50, "duration": 41, "velocity": 69}, {"time": 1164, "pitch": 55, "duration": 17, "velocity": 96}, {"time": 1167, "pitch": 59, "duration": 3, "velocity": 112}, {"time": 1170, "pitch": 62, "duration": 1, "velocity": 99}, {"time": 1173, "pitch": 67, "duration": 2, "velocity": 117}, {"time": 1176, "pitch": 71, "duration": 3, "velocity": 127}, {"time": 1179, "pitch": 74, "duration": 4, "velocity": 122}, {"time": 1182, "pitch": 71, "duration": 3, "velocity": 117}, {"time": 1185, "pitch": 67, "duration": 1, "velocity": 112}, {"time": 1188, "pitch": 62, "duration": 3, "velocity": 95}, {"time": 1191, "pitch": 59, "duration": 3, "velocity": 99}, {"time": 1194, "pitch": 57, "duration": 3, "velocity": 95}, {"time": 1197, "pitch": 59, "duration": 3, "velocity": 117}, {"time": 1200, "pitch": 55, "duration": 2, "velocity": 102}, {"time": 1203, "pitch": 43, "duration": 21, "velocity": 102}, {"time": 1206, "pitch": 50, "duration": 20, "velocity": 99}, {"time": 1209, "pitch": 55, "duration": 7, "velocity": 107}, {"time": 1212, "pitch": 62, "duration": 4, "velocity": 97}, {"time": 1215, "pitch": 71, "duration": 11, "velocity": 127}, {"time": 1218, "pitch": 55, "duration": 3, "velocity": 112}, {"time": 1221, "pitch": 67, "duration": 7, "velocity": 97}, {"time": 1224, "pitch": 62, "duration": 6, "velocity": 112}, {"time": 1227, "pitch": 43, "duration": 17, "velocity": 96}, {"time": 1230, "pitch": 50, "duration": 14, "velocity": 89}, {"time": 1233, "pitch": 55, "duration": 7, "velocity": 97}, {"time": 1236, "pitch": 62, "duration": 4, "velocity": 96}, {"time": 1239, "pitch": 71, "duration": 10, "velocity": 122}, {"time": 1242, "pitch": 55, "duration": 4, "velocity": 107}, {"time": 1245, "pitch": 67, "duration": 4, "velocity": 107}, {"time": 1248, "pitch": 62, "duration": 3, "velocity": 100}, {"time": 1251, "pitch": 47, "duration": 22, "velocity": 83}, {"time": 1254, "pitch": 54, "duration": 10, "velocity": 93}, {"time": 1257, "pitch": 59, "duration": 5, "velocity": 96}, {"time": 1260, "pitch": 62, "duration": 2, "velocity": 102}, {"time": 1263, "pitch": 66, "duration": 12, "velocity": 127}, {"time": 1266, "pitch": 54, "duration": 8, "velocity": 96}, {"time": 1269, "pitch": 62, "duration": 5, "velocity": 100}, {"time": 1272, "pitch": 59, "duration": 2, "velocity": 93}, {"time": 1275, "pitch": 47, "duration": 19, "velocity": 79}, {"time": 1278, "pitch": 54, "duration": 15, "velocity": 85}, {"time": 1281, "pitch": 59, "duration": 7, "velocity": 97}, {"time": 1284, "pitch": 71, "duration": 2, "velocity": 100}, {"time": 1287, "pitch": 74, "duration": 5, "velocity": 69}, {"time": 1287, "pitch": 78, "duration": 11, "velocity": 127}, {"time": 1290, "pitch": 59, "duration": 2, "velocity": 112}, {"time": 1293, "pitch": 71, "duration": 6, "velocity": 95}, {"time": 1296, "pitch": 74, "duration": 3, "velocity": 127}, {"time": 1299, "pitch": 40, "duration": 21, "velocity": 86}, {"time": 1302, "pitch": 47, "duration": 21, "velocity": 78}, {"time": 1305, "pitch": 52, "duration": 7, "velocity": 102}, {"time": 1308, "pitch": 59, "duration": 4, "velocity": 70}, {"time": 1311, "pitch": 64, "duration": 7, "velocity": 99}, {"time": 1311, "pitch": 67, "duration": 7, "velocity": 122}, {"time": 1314, "pitch": 52, "duration": 3, "velocity": 93}, {"time": 1317, "pitch": 59, "duration": 5, "velocity": 92}, {"time": 1320, "pitch": 64, "duration": 2, "velocity": 96}, {"time": 1320, "pitch": 67, "duration": 3, "velocity": 95}, {"time": 1323, "pitch": 40, "duration": 16, "velocity": 95}, {"time": 1326, "pitch": 47, "duration": 13, "velocity": 95}, {"time": 1329, "pitch": 52, "duration": 7, "velocity": 95}, {"time": 1332, "pitch": 71, "duration": 5, "velocity": 78}, {"time": 1335, "pitch": 79, "duration": 12, "velocity": 127}, {"time": 1338, "pitch": 52, "duration": 5, "velocity": 95}, {"time": 1341, "pitch": 76, "duration": 6, "velocity": 99}, {"time": 1344, "pitch": 71, "duration": 4, "velocity": 85}, {"time": 1347, "pitch": 45, "duration": 19, "velocity": 88}, {"time": 1350, "pitch": 52, "duration": 11, "velocity": 81}, {"time": 1353, "pitch": 57, "duration": 5, "velocity": 93}, {"time": 1356, "pitch": 60, "duration": 2, "velocity": 93}, {"time": 1359, "pitch": 64, "duration": 10, "velocity": 100}, {"time": 1362, "pitch": 52, "duration": 2, "velocity": 89}, {"time": 1365, "pitch": 60, "duration": 3, "velocity": 122}, {"time": 1368, "pitch": 57, "duration": 4, "velocity": 96}, {"time": 1371, "pitch": 38, "duration": 19, "velocity": 89}, {"time": 1374, "pitch": 45, "duration": 16, "velocity": 100}, {"time": 1377, "pitch": 50, "duration": 7, "velocity": 112}, {"time": 1380, "pitch": 57, "duration": 5, "velocity": 102}, {"time": 1383, "pitch": 66, "duration": 10, "velocity": 127}, {"time": 1386, "pitch": 50, "duration": 8, "velocity": 100}, {"time": 1389, "pitch": 62, "duration": 5, "velocity": 127}, {"time": 1392, "pitch": 57, "duration": 2, "velocity": 112}, {"time": 1395, "pitch": 47, "duration": 23, "velocity": 90}, {"time": 1398, "pitch": 54, "duration": 10, "velocity": 102}, {"time": 1401, "pitch": 59, "duration": 4, "velocity": 89}, {"time": 1404, "pitch": 62, "duration": 3, "velocity": 117}, {"time": 1407, "pitch": 66, "duration": 12, "velocity": 127}, {"time": 1410, "pitch": 54, "duration": 8, "velocity": 95}, {"time": 1413, "pitch": 62, "duration": 6, "velocity": 122}, {"time": 1416, "pitch": 59, "duration": 3, "velocity": 95}, {"time": 1419, "pitch": 47, "duration": 17, "velocity": 79}, {"time": 1422, "pitch": 54, "duration": 10, "velocity": 86}, {"time": 1425, "pitch": 59, "duration": 4, "velocity": 95}, {"time": 1428, "pitch": 62, "duration": 2, "velocity": 122}, {"time": 1431, "pitch": 66, "duration": 8, "velocity": 127}, {"time": 1434, "pitch": 54, "duration": 1, "velocity": 107}, {"time": 1437, "pitch": 62, "duration": 4, "velocity": 127}, {"time": 1440, "pitch": 59, "duration": 4, "velocity": 102}, {"time": 1443, "pitch": 40, "duration": 18, "velocity": 81}, {"time": 1446, "pitch": 47, "duration": 14, "velocity": 93}, {"time": 1449, "pitch": 52, "duration": 7, "velocity": 93}, {"time": 1452, "pitch": 59, "duration": 4, "velocity": 100}, {"time": 1455, "pitch": 67, "duration": 10, "velocity": 117}, {"time": 1458, "pitch": 52, "duration": 2, "velocity": 95}, {"time": 1461, "pitch": 62, "duration": 4, "velocity": 102}, {"time": 1464, "pitch": 64, "duration": 4, "velocity": 107}, {"time": 1467, "pitch": 36, "duration": 16, "velocity": 86}, {"time": 1470, "pitch": 43, "duration": 13, "velocity": 82}, {"time": 1473, "pitch": 48, "duration": 7, "velocity": 93}, {"time": 1476, "pitch": 60, "duration": 3, "velocity": 96}, {"time": 1479, "pitch": 67, "duration": 10, "velocity": 127}, {"time": 1482, "pitch": 48, "duration": 2, "velocity": 96}, {"time": 1485, "pitch": 64, "duration": 4, "velocity": 117}, {"time": 1488, "pitch": 60, "duration": 3, "velocity": 100}, {"time": 1491, "pitch": 45, "duration": 22, "velocity": 81}, {"time": 1494, "pitch": 52, "duration": 11, "velocity": 89}, {"time": 1497, "pitch": 57, "duration": 4, "velocity": 89}, {"time": 1500, "pitch": 60, "duration": 2, "velocity": 99}, {"time": 1503, "pitch": 64, "duration": 11, "velocity": 112}, {"time": 1506, "pitch": 52, "duration": 8, "velocity": 88}, {"time": 1509, "pitch": 60, "duration": 5, "velocity": 112}, {"time": 1512, "pitch": 57, "duration": 3, "velocity": 102}, {"time": 1515, "pitch": 45, "duration": 16, "velocity": 88}, {"time": 1518, "pitch": 52, "duration": 11, "velocity": 72}, {"time": 1521, "pitch": 57, "duration": 4, "velocity": 107}, {"time": 1524, "pitch": 64, "duration": 3, "velocity": 107}, {"time": 1527, "pitch": 72, "duration": 11, "velocity": 127}, {"time": 1530, "pitch": 69, "duration": 3, "velocity": 99}, {"time": 1533, "pitch": 64, "duration": 6, "velocity": 86}, {"time": 1536, "pitch": 69, "duration": 3, "velocity": 122}, {"time": 1539, "pitch": 36, "duration": 21, "velocity": 88}, {"time": 1542, "pitch": 43, "duration": 19, "velocity": 89}, {"time": 1545, "pitch": 48, "duration": 6, "velocity": 97}, {"time": 1548, "pitch": 55, "duration": 4, "velocity": 95}, {"time": 1551, "pitch": 64, "duration": 10, "velocity": 127}, {"time": 1554, "pitch": 48, "duration": 3, "velocity": 102}, {"time": 1557, "pitch": 60, "duration": 4, "velocity": 102}, {"time": 1560, "pitch": 55, "duration": 2, "velocity": 97}, {"time": 1563, "pitch": 38, "duration": 17, "velocity": 88}, {"time": 1566, "pitch": 45, "duration": 14, "velocity": 95}, {"time": 1569, "pitch": 50, "duration": 7, "velocity": 100}, {"time": 1572, "pitch": 66, "duration": 2, "velocity": 122}, {"time": 1572, "pitch": 69, "duration": 2, "velocity": 100}, {"time": 1575, "pitch": 66, "duration": 6, "velocity": 127}, {"time": 1575, "pitch": 69, "duration": 11, "velocity": 127}, {"time": 1578, "pitch": 50, "duration": 4, "velocity": 112}, {"time": 1581, "pitch": 62, "duration": 6, "velocity": 112}, {"time": 1584, "pitch": 66, "duration": 3, "velocity": 127}, {"time": 1587, "pitch": 43, "duration": 23, "velocity": 89}, {"time": 1590, "pitch": 50, "duration": 22, "velocity": 79}, {"time": 1593, "pitch": 55, "duration": 7, "velocity": 95}, {"time": 1596, "pitch": 62, "duration": 5, "velocity": 99}, {"time": 1599, "pitch": 71, "duration": 12, "velocity": 117}, {"time": 1602, "pitch": 55, "duration": 3, "velocity": 95}, {"time": 1605, "pitch": 67, "duration": 9, "velocity": 112}, {"time": 1608, "pitch": 62, "duration": 6, "velocity": 112}, {"time": 1611, "pitch": 43, "duration": 17, "velocity": 89}, {"time": 1614, "pitch": 50, "duration": 14, "velocity": 83}, {"time": 1617, "pitch": 55, "duration": 7, "velocity": 92}, {"time": 1620, "pitch": 62, "duration": 4, "velocity": 100}, {"time": 1623, "pitch": 71, "duration": 10, "velocity": 122}, {"time": 1626, "pitch": 55, "duration": 5, "velocity": 95}, {"time": 1629, "pitch": 67, "duration": 4, "velocity": 127}, {"time": 1632, "pitch": 62, "duration": 3, "velocity": 127}, {"time": 1635, "pitch": 47, "duration": 22, "velocity": 85}, {"time": 1638, "pitch": 54, "duration": 10, "velocity": 86}, {"time": 1641, "pitch": 59, "duration": 6, "velocity": 95}, {"time": 1644, "pitch": 62, "duration": 2, "velocity": 117}, {"time": 1647, "pitch": 66, "duration": 7, "velocity": 122}, {"time": 1650, "pitch": 54, "duration": 8, "velocity": 99}, {"time": 1653, "pitch": 62, "duration": 9, "velocity": 107}, {"time": 1656, "pitch": 59, "duration": 5, "velocity": 97}, {"time": 1659, "pitch": 47, "duration": 17, "velocity": 85}, {"time": 1662, "pitch": 54, "duration": 10, "velocity": 95}, {"time": 1665, "pitch": 59, "duration": 3, "velocity": 77}, {"time": 1668, "pitch": 62, "duration": 2, "velocity": 102}, {"time": 1668, "pitch": 66, "duration": 2, "velocity": 117}, {"time": 1671, "pitch": 62, "duration": 6, "velocity": 99}, {"time": 1671, "pitch": 66, "duration": 9, "velocity": 122}, {"time": 1674, "pitch": 54, "duration": 2, "velocity": 112}, {"time": 1677, "pitch": 59, "duration": 7, "velocity": 107}, {"time": 1680, "pitch": 62, "duration": 3, "velocity": 100}, {"time": 1683, "pitch": 40, "duration": 22, "velocity": 86}, {"time": 1686, "pitch": 47, "duration": 21, "velocity": 63}, {"time": 1689, "pitch": 52, "duration": 7, "velocity": 88}, {"time": 1692, "pitch": 59, "duration": 5, "velocity": 96}, {"time": 1695, "pitch": 67, "duration": 12, "velocity": 107}, {"time": 1698, "pitch": 52, "duration": 3, "velocity": 93}, {"time": 1701, "pitch": 64, "duration": 7, "velocity": 99}, {"time": 1704, "pitch": 59, "duration": 4, "velocity": 107}, {"time": 1707, "pitch": 40, "duration": 16, "velocity": 76}, {"time": 1710, "pitch": 47, "duration": 13, "velocity": 79}, {"time": 1713, "pitch": 52, "duration": 7, "velocity": 90}, {"time": 1716, "pitch": 59, "duration": 4, "velocity": 82}, {"time": 1719, "pitch": 67, "duration": 11, "velocity": 127}, {"time": 1722, "pitch": 52, "duration": 3, "velocity": 90}, {"time": 1725, "pitch": 64, "duration": 5, "velocity": 117}, {"time": 1728, "pitch": 59, "duration": 3, "velocity": 97}, {"time": 1731, "pitch": 45, "duration": 17, "velocity": 74}, {"time": 1734, "pitch": 52, "duration": 10, "velocity": 75}, {"time": 1737, "pitch": 57, "duration": 4, "velocity": 81}, {"time": 1740, "pitch": 60, "duration": 3, "velocity": 100}, {"time": 1743, "pitch": 64, "duration": 10, "velocity": 117}, {"time": 1746, "pitch": 52, "duration": 2, "velocity": 90}, {"time": 1749, "pitch": 60, "duration": 4, "velocity": 112}, {"time": 1752, "pitch": 57, "duration": 4, "velocity": 99}, {"time": 1755, "pitch": 38, "duration": 17, "velocity": 78}, {"time": 1758, "pitch": 45, "duration": 14, "velocity": 81}, {"time": 1761, "pitch": 50, "duration": 7, "velocity": 100}, {"time": 1764, "pitch": 57, "duration": 3, "velocity": 102}, {"time": 1767, "pitch": 66, "duration": 10, "velocity": 127}, {"time": 1770, "pitch": 50, "duration": 3, "velocity": 100}, {"time": 1773, "pitch": 62, "duration": 3, "velocity": 99}, {"time": 1776, "pitch": 64, "duration": 4, "velocity": 92}, {"time": 1779, "pitch": 47, "duration": 22, "velocity": 82}, {"time": 1782, "pitch": 54, "duration": 10, "velocity": 78}, {"time": 1785, "pitch": 59, "duration": 4, "velocity": 90}, {"time": 1788, "pitch": 62, "duration": 3, "velocity": 112}, {"time": 1791, "pitch": 66, "duration": 11, "velocity": 127}, {"time": 1794, "pitch": 54, "duration": 8, "velocity": 86}, {"time": 1797, "pitch": 62, "duration": 6, "velocity": 102}, {"time": 1800, "pitch": 59, "duration": 3, "velocity": 107}, {"time": 1803, "pitch": 47, "duration": 17, "velocity": 79}, {"time": 1806, "pitch": 54, "duration": 10, "velocity": 78}, {"time": 1809, "pitch": 59, "duration": 4, "velocity": 90}, {"time": 1812, "pitch": 62, "duration": 2, "velocity": 100}, {"time": 1815, "pitch": 66, "duration": 8, "velocity": 122}, {"time": 1818, "pitch": 54, "duration": 2, "velocity": 100}, {"time": 1821, "pitch": 62, "duration": 4, "velocity": 112}, {"time": 1824, "pitch": 59, "duration": 4, "velocity": 99}, {"time": 1827, "pitch": 40, "duration": 17, "velocity": 81}, {"time": 1830, "pitch": 47, "duration": 14, "velocity": 90}, {"time": 1833, "pitch": 52, "duration": 7, "velocity": 92}, {"time": 1836, "pitch": 59, "duration": 5, "velocity": 96}, {"time": 1839, "pitch": 67, "duration": 11, "velocity": 117}, {"time": 1842, "pitch": 52, "duration": 2, "velocity": 107}, {"time": 1845, "pitch": 64, "duration": 6, "velocity": 102}, {"time": 1848, "pitch": 59, "duration": 3, "velocity": 100}, {"time": 1851, "pitch": 36, "duration": 16, "velocity": 88}, {"time": 1854, "pitch": 43, "duration": 13, "velocity": 66}, {"time": 1857, "pitch": 48, "duration": 7, "velocity": 97}, {"time": 1860, "pitch": 60, "duration": 3, "velocity": 86}, {"time": 1863, "pitch": 67, "duration": 10, "velocity": 117}, {"time": 1866, "pitch": 48, "duration": 2, "velocity": 102}, {"time": 1869, "pitch": 64, "duration": 4, "velocity": 117}, {"time": 1872, "pitch": 60, "duration": 3, "velocity": 102}, {"time": 1875, "pitch": 47, "duration": 17, "velocity": 85}, {"time": 1878, "pitch": 54, "duration": 10, "velocity": 85}, {"time": 1881, "pitch": 59, "duration": 5, "velocity": 92}, {"time": 1884, "pitch": 62, "duration": 2, "velocity": 95}, {"time": 1887, "pitch": 66, "duration": 8, "velocity": 122}, {"time": 1890, "pitch": 54, "duration": 2, "velocity": 93}, {"time": 1893, "pitch": 62, "duration": 4, "velocity": 99}, {"time": 1896, "pitch": 59, "duration": 3, "velocity": 97}, {"time": 1899, "pitch": 40, "duration": 17, "velocity": 73}, {"time": 1902, "pitch": 47, "duration": 13, "velocity": 90}, {"time": 1905, "pitch": 52, "duration": 7, "velocity": 97}, {"time": 1908, "pitch": 59, "duration": 3, "velocity": 93}, {"time": 1911, "pitch": 67, "duration": 9, "velocity": 122}, {"time": 1914, "pitch": 52, "duration": 3, "velocity": 97}, {"time": 1917, "pitch": 64, "duration": 3, "velocity": 112}, {"time": 1920, "pitch": 59, "duration": 2, "velocity": 99}, {"time": 1923, "pitch": 45, "duration": 3, "velocity": 93}, {"time": 1923, "pitch": 60, "duration": 9, "velocity": 100}, {"time": 1923, "pitch": 64, "duration": 7, "velocity": 97}, {"time": 1929, "pitch": 57, "duration": 5, "velocity": 99}, {"time": 1935, "pitch": 38, "duration": 4, "velocity": 79}, {"time": 1935, "pitch": 62, "duration": 12, "velocity": 99}, {"time": 1935, "pitch": 66, "duration": 12, "velocity": 127}, {"time": 1947, "pitch": 43, "duration": 23, "velocity": 81}, {"time": 1950, "pitch": 50, "duration": 21, "velocity": 65}, {"time": 1953, "pitch": 55, "duration": 7, "velocity": 92}, {"time": 1956, "pitch": 59, "duration": 4, "velocity": 71}, {"time": 1959, "pitch": 62, "duration": 7, "velocity": 100}, {"time": 1962, "pitch": 55, "duration": 3, "velocity": 85}, {"time": 1965, "pitch": 59, "duration": 4, "velocity": 88}, {"time": 1968, "pitch": 62, "duration": 2, "velocity": 83}, {"time": 1971, "pitch": 43, "duration": 22, "velocity": 97}, {"time": 1977, "pitch": 50, "duration": 17, "velocity": 78}, {"time": 1983, "pitch": 62, "duration": 12, "velocity": 117}, {"time": 1989, "pitch": 55, "duration": 6, "velocity": 102}, {"time": 1995, "pitch": 43, "duration": 17, "velocity": 92}, {"time": 2001, "pitch": 50, "duration": 11, "velocity": 75}, {"time": 2007, "pitch": 71, "duration": 12, "velocity": 122}, {"time": 2013, "pitch": 67, "duration": 7, "velocity": 96}, {"time": 2019, "pitch": 40, "duration": 22, "velocity": 97}, {"time": 2025, "pitch": 47, "duration": 18, "velocity": 63}, {"time": 2031, "pitch": 59, "duration": 11, "velocity": 100}, {"time": 2037, "pitch": 55, "duration": 5, "velocity": 88}, {"time": 2043, "pitch": 40, "duration": 17, "velocity": 86}, {"time": 2049, "pitch": 47, "duration": 11, "velocity": 52}, {"time": 2055, "pitch": 52, "duration": 5, "velocity": 70}, {"time": 2055, "pitch": 67, "duration": 12, "velocity": 97}, {"time": 2055, "pitch": 71, "duration": 13, "velocity": 97}, {"time": 2061, "pitch": 64, "duration": 6, "velocity": 86}, {"time": 2067, "pitch": 36, "duration": 18, "velocity": 86}, {"time": 2073, "pitch": 43, "duration": 12, "velocity": 59}, {"time": 2079, "pitch": 60, "duration": 11, "velocity": 89}, {"time": 2079, "pitch": 64, "duration": 11, "velocity": 95}, {"time": 2085, "pitch": 55, "duration": 7, "velocity": 88}, {"time": 2091, "pitch": 38, "duration": 17, "velocity": 86}, {"time": 2097, "pitch": 45, "duration": 11, "velocity": 71}, {"time": 2103, "pitch": 50, "duration": 10, "velocity": 72}, {"time": 2103, "pitch": 66, "duration": 13, "velocity": 127}, {"time": 2109, "pitch": 62, "duration": 6, "velocity": 82}, {"time": 2115, "pitch": 43, "duration": 39, "velocity": 86}, {"time": 2121, "pitch": 50, "duration": 35, "velocity": 59}, {"time": 2127, "pitch": 55, "duration": 15, "velocity": 97}, {"time": 2133, "pitch": 62, "duration": 11, "velocity": 99}, {"time": 2139, "pitch": 71, "duration": 10, "velocity": 122}, {"time": 2145, "pitch": 55, "duration": 6, "velocity": 88}, {"time": 2151, "pitch": 67, "duration": 11, "velocity": 97}, {"time": 2151, "pitch": 71, "duration": 12, "velocity": 112}, {"time": 2157, "pitch": 62, "duration": 6, "velocity": 112}, {"time": 2163, "pitch": 47, "duration": 22, "velocity": 97}, {"time": 2166, "pitch": 54, "duration": 10, "velocity": 95}, {"time": 2169, "pitch": 59, "duration": 4, "velocity": 99}, {"time": 2172, "pitch": 62, "duration": 2, "velocity": 102}, {"time": 2175, "pitch": 66, "duration": 12, "velocity": 127}, {"time": 2178, "pitch": 54, "duration": 8, "velocity": 90}, {"time": 2181, "pitch": 62, "duration": 5, "velocity": 99}, {"time": 2184, "pitch": 59, "duration": 3, "velocity": 93}, {"time": 2187, "pitch": 47, "duration": 18, "velocity": 77}, {"time": 2190, "pitch": 54, "duration": 14, "velocity": 81}, {"time": 2193, "pitch": 59, "duration": 7, "velocity": 90}, {"time": 2196, "pitch": 62, "duration": 3, "velocity": 100}, {"time": 2196, "pitch": 66, "duration": 1, "velocity": 37}, {"time": 2199, "pitch": 71, "duration": 11, "velocity": 112}, {"time": 2202, "pitch": 59, "duration": 2, "velocity": 86}, {"time": 2205, "pitch": 66, "duration": 5, "velocity": 117}, {"time": 2208, "pitch": 62, "duration": 3, "velocity": 102}, {"time": 2211, "pitch": 40, "duration": 17, "velocity": 75}, {"time": 2214, "pitch": 47, "duration": 14, "velocity": 86}, {"time": 2217, "pitch": 52, "duration": 7, "velocity": 92}, {"time": 2220, "pitch": 64, "duration": 3, "velocity": 96}, {"time": 2223, "pitch": 67, "duration": 9, "velocity": 122}, {"time": 2226, "pitch": 52, "duration": 2, "velocity": 95}, {"time": 2229, "pitch": 64, "duration": 4, "velocity": 112}, {"time": 2232, "pitch": 62, "duration": 2, "velocity": 93}, {"time": 2235, "pitch": 37, "duration": 17, "velocity": 102}, {"time": 2238, "pitch": 49, "duration": 11, "velocity": 86}, {"time": 2241, "pitch": 61, "duration": 7, "velocity": 96}, {"time": 2244, "pitch": 64, "duration": 4, "velocity": 65}, {"time": 2247, "pitch": 67, "duration": 12, "velocity": 54}, {"time": 2250, "pitch": 49, "duration": 3, "velocity": 67}, {"time": 2253, "pitch": 61, "duration": 6, "velocity": 95}, {"time": 2256, "pitch": 64, "duration": 3, "velocity": 55}, {"time": 2259, "pitch": 45, "duration": 16, "velocity": 76}, {"time": 2262, "pitch": 52, "duration": 13, "velocity": 63}, {"time": 2265, "pitch": 57, "duration": 5, "velocity": 90}, {"time": 2268, "pitch": 60, "duration": 4, "velocity": 81}, {"time": 2271, "pitch": 64, "duration": 10, "velocity": 89}, {"time": 2277, "pitch": 60, "duration": 6, "velocity": 95}, {"time": 2283, "pitch": 38, "duration": 14, "velocity": 66}, {"time": 2283, "pitch": 62, "duration": 24, "velocity": 83}, {"time": 2295, "pitch": 66, "duration": 13, "velocity": 93}, {"time": 2301, "pitch": 57, "duration": 6, "velocity": 83}, {"time": 2307, "pitch": 43, "duration": 22, "velocity": 85}, {"time": 2310, "pitch": 50, "duration": 21, "velocity": 67}, {"time": 2313, "pitch": 55, "duration": 7, "velocity": 79}, {"time": 2316, "pitch": 59, "duration": 4, "velocity": 72}, {"time": 2319, "pitch": 67, "duration": 22, "velocity": 90}, {"time": 2322, "pitch": 55, "duration": 3, "velocity": 71}, {"time": 2325, "pitch": 62, "duration": 30, "velocity": 81}, {"time": 2331, "pitch": 43, "duration": 23, "velocity": 72}, {"time": 2331, "pitch": 59, "duration": 14, "velocity": 66}, {"time": 2337, "pitch": 50, "duration": 17, "velocity": 44}, {"time": 2343, "pitch": 67, "duration": 12, "velocity": 92}, {"time": 2349, "pitch": 59, "duration": 6, "velocity": 54}, {"time": 2355, "pitch": 43, "duration": 23, "velocity": 88}, {"time": 2361, "pitch": 50, "duration": 20, "velocity": 51}, {"time": 2367, "pitch": 55, "duration": 8, "velocity": 90}, {"time": 2367, "pitch": 71, "duration": 22, "velocity": 88}, {"time": 2373, "pitch": 67, "duration": 16, "velocity": 67}, {"time": 2379, "pitch": 43, "duration": 17, "velocity": 81}, {"time": 2385, "pitch": 50, "duration": 10, "velocity": 47}, {"time": 2391, "pitch": 55, "duration": 4, "velocity": 81}, {"time": 2391, "pitch": 67, "duration": 12, "velocity": 97}, {"time": 2391, "pitch": 71, "duration": 12, "velocity": 100}, {"time": 2397, "pitch": 62, "duration": 7, "velocity": 86}, {"time": 2403, "pitch": 40, "duration": 41, "velocity": 82}, {"time": 2409, "pitch": 47, "duration": 35, "velocity": 44}, {"time": 2415, "pitch": 52, "duration": 23, "velocity": 88}, {"time": 2421, "pitch": 59, "duration": 8, "velocity": 90}, {"time": 2427, "pitch": 67, "duration": 11, "velocity": 117}, {"time": 2433, "pitch": 64, "duration": 6, "velocity": 95}, {"time": 2439, "pitch": 59, "duration": 7, "velocity": 96}, {"time": 2445, "pitch": 55, "duration": 5, "velocity": 85}, {"time": 2451, "pitch": 36, "duration": 22, "velocity": 93}, {"time": 2457, "pitch": 43, "duration": 18, "velocity": 66}, {"time": 2457, "pitch": 55, "duration": 13, "velocity": 81}, {"time": 2463, "pitch": 48, "duration": 5, "velocity": 75}, {"time": 2463, "pitch": 64, "duration": 12, "velocity": 102}, {"time": 2469, "pitch": 60, "duration": 6, "velocity": 99}, {"time": 2475, "pitch": 38, "duration": 17, "velocity": 74}, {"time": 2481, "pitch": 45, "duration": 11, "velocity": 44}, {"time": 2487, "pitch": 50, "duration": 11, "velocity": 78}, {"time": 2487, "pitch": 66, "duration": 12, "velocity": 127}, {"time": 2493, "pitch": 62, "duration": 7, "velocity": 97}, {"time": 2499, "pitch": 43, "duration": 40, "velocity": 82}, {"time": 2505, "pitch": 50, "duration": 35, "velocity": 69}, {"time": 2511, "pitch": 55, "duration": 10, "velocity": 88}, {"time": 2517, "pitch": 59, "duration": 7, "velocity": 92}, {"time": 2523, "pitch": 62, "duration": 8, "velocity": 107}, {"time": 2523, "pitch": 67, "duration": 8, "velocity": 112}, {"time": 2529, "pitch": 55, "duration": 14, "velocity": 100}, {"time": 2535, "pitch": 67, "duration": 8, "velocity": 102}, {"time": 2541, "pitch": 62, "duration": 7, "velocity": 102}, {"time": 2547, "pitch": 47, "duration": 23, "velocity": 82}, {"time": 2553, "pitch": 54, "duration": 19, "velocity": 90}, {"time": 2559, "pitch": 66, "duration": 19, "velocity": 127}, {"time": 2565, "pitch": 62, "duration": 15, "velocity": 112}, {"time": 2571, "pitch": 47, "duration": 21, "velocity": 78}, {"time": 2577, "pitch": 54, "duration": 10, "velocity": 92}, {"time": 2583, "pitch": 66, "duration": 11, "velocity": 127}, {"time": 2589, "pitch": 62, "duration": 6, "velocity": 96}, {"time": 2595, "pitch": 40, "duration": 18, "velocity": 85}, {"time": 2601, "pitch": 47, "duration": 12, "velocity": 74}, {"time": 2607, "pitch": 52, "duration": 6, "velocity": 99}, {"time": 2613, "pitch": 55, "duration": 7, "velocity": 107}, {"time": 2619, "pitch": 37, "duration": 17, "velocity": 117}, {"time": 2625, "pitch": 49, "duration": 13, "velocity": 92}, {"time": 2631, "pitch": 67, "duration": 12, "velocity": 77}, {"time": 2637, "pitch": 61, "duration": 7, "velocity": 100}, {"time": 2643, "pitch": 45, "duration": 16, "velocity": 82}, {"time": 2649, "pitch": 52, "duration": 9, "velocity": 57}, {"time": 2655, "pitch": 60, "duration": 12, "velocity": 99}, {"time": 2655, "pitch": 64, "duration": 9, "velocity": 97}, {"time": 2661, "pitch": 57, "duration": 9, "velocity": 85}, {"time": 2667, "pitch": 38, "duration": 16, "velocity": 86}, {"time": 2673, "pitch": 45, "duration": 10, "velocity": 54}, {"time": 2679, "pitch": 50, "duration": 7, "velocity": 62}, {"time": 2679, "pitch": 62, "duration": 13, "velocity": 97}, {"time": 2679, "pitch": 66, "duration": 13, "velocity": 112}, {"time": 2685, "pitch": 57, "duration": 7, "velocity": 72}, {"time": 2691, "pitch": 43, "duration": 46, "velocity": 96}, {"time": 2697, "pitch": 50, "duration": 41, "velocity": 69}, {"time": 2700, "pitch": 55, "duration": 17, "velocity": 96}, {"time": 2703, "pitch": 59, "duration": 3, "velocity": 112}, {"time": 2706, "pitch": 62, "duration": 1, "velocity": 99}, {"time": 2709, "pitch": 67, "duration": 2, "velocity": 117}, {"time": 2712, "pitch": 71, "duration": 3, "velocity": 127}, {"time": 2715, "pitch": 74, "duration": 4, "velocity": 122}, {"time": 2718, "pitch": 71, "duration": 3, "velocity": 117}, {"time": 2721, "pitch": 67, "duration": 1, "velocity": 112}, {"time": 2724, "pitch": 62, "duration": 3, "velocity": 95}, {"time": 2727, "pitch": 59, "duration": 3, "velocity": 99}, {"time": 2730, "pitch": 57, "duration": 3, "velocity": 95}, {"time": 2733, "pitch": 59, "duration": 3, "velocity": 117}, {"time": 2736, "pitch": 55, "duration": 2, "velocity": 102}, {"time": 2739, "pitch": 43, "duration": 21, "velocity": 102}, {"time": 2742, "pitch": 50, "duration": 20, "velocity": 99}, {"time": 2745, "pitch": 55, "duration": 7, "velocity": 107}, {"time": 2748, "pitch": 62, "duration": 4, "velocity": 97}, {"time": 2751, "pitch": 71, "duration": 11, "velocity": 127}, {"time": 2754, "pitch": 55, "duration": 3, "velocity": 112}, {"time": 2757, "pitch": 67, "duration": 7, "velocity": 97}, {"time": 2760, "pitch": 62, "duration": 6, "velocity": 112}, {"time": 2763, "pitch": 43, "duration": 17, "velocity": 96}, {"time": 2766, "pitch": 50, "duration": 14, "velocity": 89}, {"time": 2769, "pitch": 55, "duration": 7, "velocity": 97}, {"time": 2772, "pitch": 62, "duration": 4, "velocity": 96}, {"time": 2775, "pitch": 71, "duration": 10, "velocity": 122}, {"time": 2778, "pitch": 55, "duration": 4, "velocity": 107}, {"time": 2781, "pitch": 67, "duration": 4, "velocity": 107}, {"time": 2784, "pitch": 62, "duration": 3, "velocity": 100}, {"time": 2787, "pitch": 47, "duration": 22, "velocity": 83}, {"time": 2790, "pitch": 54, "duration": 10, "velocity": 93}, {"time": 2793, "pitch": 59, "duration": 5, "velocity": 96}, {"time": 2796, "pitch": 62, "duration": 2, "velocity": 102}, {"time": 2799, "pitch": 66, "duration": 12, "velocity": 127}, {"time": 2802, "pitch": 54, "duration": 8, "velocity": 96}, {"time": 2805, "pitch": 62, "duration": 5, "velocity": 100}, {"time": 2808, "pitch": 59, "duration": 2, "velocity": 93}, {"time": 2811, "pitch": 47, "duration": 19, "velocity": 79}, {"time": 2814, "pitch": 54, "duration": 15, "velocity": 85}, {"time": 2817, "pitch": 59, "duration": 7, "velocity": 97}, {"time": 2820, "pitch": 71, "duration": 2, "velocity": 100}, {"time": 2823, "pitch": 74, "duration": 5, "velocity": 69}, {"time": 2823, "pitch": 78, "duration": 11, "velocity": 127}, {"time": 2826, "pitch": 59, "duration": 2, "velocity": 112}, {"time": 2829, "pitch": 71, "duration": 6, "velocity": 95}, {"time": 2832, "pitch": 74, "duration": 3, "velocity": 127}, {"time": 2835, "pitch": 40, "duration": 21, "velocity": 86}, {"time": 2838, "pitch": 47, "duration": 21, "velocity": 78}, {"time": 2841, "pitch": 52, "duration": 7, "velocity": 102}, {"time": 2844, "pitch": 59, "duration": 4, "velocity": 70}, {"time": 2847, "pitch": 64, "duration": 7, "velocity": 99}, {"time": 2847, "pitch": 67, "duration": 7, "velocity": 122}, {"time": 2850, "pitch": 52, "duration": 3, "velocity": 93}, {"time": 2853, "pitch": 59, "duration": 5, "velocity": 92}, {"time": 2856, "pitch": 64, "duration": 2, "velocity": 96}, {"time": 2856, "pitch": 67, "duration": 3, "velocity": 95}, {"time": 2859, "pitch": 40, "duration": 16, "velocity": 95}, {"time": 2862, "pitch": 47, "duration": 13, "velocity": 95}, {"time": 2865, "pitch": 52, "duration": 7, "velocity": 95}, {"time": 2868, "pitch": 71, "duration": 5, "velocity": 78}, {"time": 2871, "pitch": 79, "duration": 12, "velocity": 127}, {"time": 2874, "pitch": 52, "duration": 5, "velocity": 95}, {"time": 2877, "pitch": 76, "duration": 6, "velocity": 99}, {"time": 2880, "pitch": 71, "duration": 4, "velocity": 85}, {"time": 2883, "pitch": 45, "duration": 19, "velocity": 88}, {"time": 2886, "pitch": 52, "duration": 11, "velocity": 81}, {"time": 2889, "pitch": 57, "duration": 5, "velocity": 93}, {"time": 2892, "pitch": 60, "duration": 2, "velocity": 93}, {"time": 2895, "pitch": 64, "duration": 10, "velocity": 100}, {"time": 2898, "pitch": 52, "duration": 2, "velocity": 89}, {"time": 2901, "pitch": 60, "duration": 3, "velocity": 122}, {"time": 2904, "pitch": 57, "duration": 4, "velocity": 96}, {"time": 2907, "pitch": 38, "duration": 19, "velocity": 89}, {"time": 2910, "pitch": 45, "duration": 16, "velocity": 100}, {"time": 2913, "pitch": 50, "duration": 7, "velocity": 112}, {"time": 2916, "pitch": 57, "duration": 5, "velocity": 102}, {"time": 2919, "pitch": 66, "duration": 10, "velocity": 127}, {"time": 2922, "pitch": 50, "duration": 8, "velocity": 100}, {"time": 2925, "pitch": 62, "duration": 5, "velocity": 127}, {"time": 2928, "pitch": 57, "duration": 2, "velocity": 112}, {"time": 2931, "pitch": 47, "duration": 23, "velocity": 90}, {"time": 2934, "pitch": 54, "duration": 10, "velocity": 102}, {"time": 2937, "pitch": 59, "duration": 4, "velocity": 89}, {"time": 2940, "pitch": 62, "duration": 3, "velocity": 117}, {"time": 2943, "pitch": 66, "duration": 12, "velocity": 127}, {"time": 2946, "pitch": 54, "duration": 8, "velocity": 95}, {"time": 2949, "pitch": 62, "duration": 6, "velocity": 122}, {"time": 2952, "pitch": 59, "duration": 3, "velocity": 95}, {"time": 2955, "pitch": 47, "duration": 17, "velocity": 79}, {"time": 2958, "pitch": 54, "duration": 10, "velocity": 86}, {"time": 2961, "pitch": 59, "duration": 4, "velocity": 95}, {"time": 2964, "pitch": 62, "duration": 2, "velocity": 122}, {"time": 2967, "pitch": 66, "duration": 8, "velocity": 127}, {"time": 2970, "pitch": 54, "duration": 1, "velocity": 107}, {"time": 2973, "pitch": 62, "duration": 4, "velocity": 127}, {"time": 2976, "pitch": 59, "duration": 4, "velocity": 102}, {"time": 2979, "pitch": 40, "duration": 18, "velocity": 81}, {"time": 2982, "pitch": 47, "duration": 14, "velocity": 93}, {"time": 2985, "pitch": 52, "duration": 7, "velocity": 93}, {"time": 2988, "pitch": 59, "duration": 4, "velocity": 100}, {"time": 2991, "pitch": 67, "duration": 10, "velocity": 117}, {"time": 2994, "pitch": 52, "duration": 2, "velocity": 95}, {"time": 2997, "pitch": 62, "duration": 4, "velocity": 102}, {"time": 3000, "pitch": 64, "duration": 4, "velocity": 107}, {"time": 3003, "pitch": 36, "duration": 16, "velocity": 86}, {"time": 3006, "pitch": 43, "duration": 13, "velocity": 82}, {"time": 3009, "pitch": 48, "duration": 7, "velocity": 93}, {"time": 3012, "pitch": 60, "duration": 3, "velocity": 96}, {"time": 3015, "pitch": 67, "duration": 10, "velocity": 127}, {"time": 3018, "pitch": 48, "duration": 2, "velocity": 96}, {"time": 3021, "pitch": 64, "duration": 4, "velocity": 117}, {"time": 3024, "pitch": 60, "duration": 3, "velocity": 100}, {"time": 3027, "pitch": 45, "duration": 22, "velocity": 81}, {"time": 3030, "pitch": 52, "duration": 11, "velocity": 89}, {"time": 3033, "pitch": 57, "duration": 4, "velocity": 89}, {"time": 3036, "pitch": 60, "duration": 2, "velocity": 99}, {"time": 3039, "pitch": 64, "duration": 11, "velocity": 112}, {"time": 3042, "pitch": 52, "duration": 8, "velocity": 88}, {"time": 3045, "pitch": 60, "duration": 5, "velocity": 112}, {"time": 3048, "pitch": 57, "duration": 3, "velocity": 102}, {"time": 3051, "pitch": 45, "duration": 16, "velocity": 88}, {"time": 3054, "pitch": 52, "duration": 11, "velocity": 72}, {"time": 3057, "pitch": 57, "duration": 4, "velocity": 107}, {"time": 3060, "pitch": 64, "duration": 3, "velocity": 107}, {"time": 3063, "pitch": 72, "duration": 11, "velocity": 127}, {"time": 3066, "pitch": 69, "duration": 3, "velocity": 99}, {"time": 3069, "pitch": 64, "duration": 6, "velocity": 86}, {"time": 3072, "pitch": 69, "duration": 3, "velocity": 122}, {"time": 3075, "pitch": 36, "duration": 21, "velocity": 88}, {"time": 3078, "pitch": 43, "duration": 19, "velocity": 89}, {"time": 3081, "pitch": 48, "duration": 6, "velocity": 97}, {"time": 3084, "pitch": 55, "duration": 4, "velocity": 95}, {"time": 3087, "pitch": 64, "duration": 10, "velocity": 127}, {"time": 3090, "pitch": 48, "duration": 3, "velocity": 102}, {"time": 3093, "pitch": 60, "duration": 4, "velocity": 102}, {"time": 3096, "pitch": 55, "duration": 2, "velocity": 97}, {"time": 3099, "pitch": 38, "duration": 17, "velocity": 88}, {"time": 3102, "pitch": 45, "duration": 14, "velocity": 95}, {"time": 3105, "pitch": 50, "duration": 7, "velocity": 100}, {"time": 3108, "pitch": 66, "duration": 2, "velocity": 122}, {"time": 3108, "pitch": 69, "duration": 2, "velocity": 100}, {"time": 3111, "pitch": 66, "duration": 6, "velocity": 127}, {"time": 3111, "pitch": 69, "duration": 11, "velocity": 127}, {"time": 3114, "pitch": 50, "duration": 4, "velocity": 112}, {"time": 3117, "pitch": 62, "duration": 6, "velocity": 112}, {"time": 3120, "pitch": 66, "duration": 3, "velocity": 127}, {"time": 3123, "pitch": 43, "duration": 23, "velocity": 89}, {"time": 3126, "pitch": 50, "duration": 22, "velocity": 79}, {"time": 3129, "pitch": 55, "duration": 7, "velocity": 95}, {"time": 3132, "pitch": 62, "duration": 5, "velocity": 99}, {"time": 3135, "pitch": 71, "duration": 12, "velocity": 117}, {"time": 3138, "pitch": 55, "duration": 3, "velocity": 95}, {"time": 3141, "pitch": 67, "duration": 9, "velocity": 112}, {"time": 3144, "pitch": 62, "duration": 6, "velocity": 112}, {"time": 3147, "pitch": 43, "duration": 17, "velocity": 89}, {"time": 3150, "pitch": 50, "duration": 14, "velocity": 83}, {"time": 3153, "pitch": 55, "duration": 7, "velocity": 92}, {"time": 3156, "pitch": 62, "duration": 4, "velocity": 100}, {"time": 3159, "pitch": 71, "duration": 10, "velocity": 122}, {"time": 3162, "pitch": 55, "duration": 5, "velocity": 95}, {"time": 3165, "pitch": 67, "duration": 4, "velocity": 127}, {"time": 3168, "pitch": 62, "duration": 3, "velocity": 127}, {"time": 3171, "pitch": 47, "duration": 22, "velocity": 85}, {"time": 3174, "pitch": 54, "duration": 10, "velocity": 86}, {"time": 3177, "pitch": 59, "duration": 6, "velocity": 95}, {"time": 3180, "pitch": 62, "duration": 2, "velocity": 117}, {"time": 3183, "pitch": 66, "duration": 7, "velocity": 122}, {"time": 3186, "pitch": 54, "duration": 8, "velocity": 99}, {"time": 3189, "pitch": 62, "duration": 9, "velocity": 107}, {"time": 3192, "pitch": 59, "duration": 5, "velocity": 97}, {"time": 3195, "pitch": 47, "duration": 17, "velocity": 85}, {"time": 3198, "pitch": 54, "duration": 10, "velocity": 95}, {"time": 3201, "pitch": 59, "duration": 3, "velocity": 77}, {"time": 3204, "pitch": 62, "duration": 2, "velocity": 102}, {"time": 3204, "pitch": 66, "duration": 2, "velocity": 117}, {"time": 3207, "pitch": 62, "duration": 6, "velocity": 99}, {"time": 3207, "pitch": 66, "duration": 9, "velocity": 122}, {"time": 3210, "pitch": 54, "duration": 2, "velocity": 112}, {"time": 3213, "pitch": 59, "duration": 7, "velocity": 107}, {"time": 3216, "pitch": 62, "duration": 3, "velocity": 100}, {"time": 3219, "pitch": 40, "duration": 22, "velocity": 86}, {"time": 3222, "pitch": 47, "duration": 21, "velocity": 63}, {"time": 3225, "pitch": 52, "duration": 7, "velocity": 88}, {"time": 3228, "pitch": 59, "duration": 5, "velocity": 96}, {"time": 3231, "pitch": 67, "duration": 12, "velocity": 107}, {"time": 3234, "pitch": 52, "duration": 3, "velocity": 93}, {"time": 3237, "pitch": 64, "duration": 7, "velocity": 99}, {"time": 3240, "pitch": 59, "duration": 4, "velocity": 107}, {"time": 3243, "pitch": 40, "duration": 16, "velocity": 76}, {"time": 3246, "pitch": 47, "duration": 13, "velocity": 79}, {"time": 3249, "pitch": 52, "duration": 7, "velocity": 90}, {"time": 3252, "pitch": 59, "duration": 4, "velocity": 82}, {"time": 3255, "pitch": 67, "duration": 11, "velocity": 127}, {"time": 3258, "pitch": 52, "duration": 3, "velocity": 90}, {"time": 3261, "pitch": 64, "duration": 5, "velocity": 117}, {"time": 3264, "pitch": 59, "duration": 3, "velocity": 97}, {"time": 3267, "pitch": 45, "duration": 17, "velocity": 74}, {"time": 3270, "pitch": 52, "duration": 10, "velocity": 75}, {"time": 3273, "pitch": 57, "duration": 4, "velocity": 81}, {"time": 3276, "pitch": 60, "duration": 3, "velocity": 100}, {"time": 3279, "pitch": 64, "duration": 10, "velocity": 117}, {"time": 3282, "pitch": 52, "duration": 2, "velocity": 90}, {"time": 3285, "pitch": 60, "duration": 4, "velocity": 112}, {"time": 3288, "pitch": 57, "duration": 4, "velocity": 99}, {"time": 3291, "pitch": 38, "duration": 17, "velocity": 78}, {"time": 3294, "pitch": 45, "duration": 14, "velocity": 81}, {"time": 3297, "pitch": 50, "duration": 7, "velocity": 100}, {"time": 3300, "pitch": 57, "duration": 3, "velocity": 102}, {"time": 3303, "pitch": 66, "duration": 10, "velocity": 127}, {"time": 3306, "pitch": 50, "duration": 3, "velocity": 100}, {"time": 3309, "pitch": 62, "duration": 3, "velocity": 99}, {"time": 3312, "pitch": 64, "duration": 4, "velocity": 92}, {"time": 3315, "pitch": 47, "duration": 22, "velocity": 82}, {"time": 3318, "pitch": 54, "duration": 10, "velocity": 78}, {"time": 3321, "pitch": 59, "duration": 4, "velocity": 90}, {"time": 3324, "pitch": 62, "duration": 3, "velocity": 112}, {"time": 3327, "pitch": 66, "duration": 11, "velocity": 127}, {"time": 3330, "pitch": 54, "duration": 8, "velocity": 86}, {"time": 3333, "pitch": 62, "duration": 6, "velocity": 102}, {"time": 3336, "pitch": 59, "duration": 3, "velocity": 107}, {"time": 3339, "pitch": 47, "duration": 17, "velocity": 79}, {"time": 3342, "pitch": 54, "duration": 10, "velocity": 78}, {"time": 3345, "pitch": 59, "duration": 4, "velocity": 90}, {"time": 3348, "pitch": 62, "duration": 2, "velocity": 100}, {"time": 3351, "pitch": 66, "duration": 8, "velocity": 122}, {"time": 3354, "pitch": 54, "duration": 2, "velocity": 100}, {"time": 3357, "pitch": 62, "duration": 4, "velocity": 112}, {"time": 3360, "pitch": 59, "duration": 4, "velocity": 99}, {"time": 3363, "pitch": 40, "duration": 17, "velocity": 81}, {"time": 3366, "pitch": 47, "duration": 14, "velocity": 90}, {"time": 3369, "pitch": 52, "duration": 7, "velocity": 92}, {"time": 3372, "pitch": 59, "duration": 5, "velocity": 96}, {"time": 3375, "pitch": 67, "duration": 11, "velocity": 117}, {"time": 3378, "pitch": 52, "duration": 2, "velocity": 107}, {"time": 3381, "pitch": 64, "duration": 6, "velocity": 102}, {"time": 3384, "pitch": 59, "duration": 3, "velocity": 100}, {"time": 3387, "pitch": 36, "duration": 16, "velocity": 88}, {"time": 3390, "pitch": 43, "duration": 13, "velocity": 66}, {"time": 3393, "pitch": 48, "duration": 7, "velocity": 97}, {"time": 3396, "pitch": 60, "duration": 3, "velocity": 86}, {"time": 3399, "pitch": 67, "duration": 10, "velocity": 117}, {"time": 3402, "pitch": 48, "duration": 2, "velocity": 102}, {"time": 3405, "pitch": 64, "duration": 4, "velocity": 117}, {"time": 3408, "pitch": 60, "duration": 3, "velocity": 102}, {"time": 3411, "pitch": 47, "duration": 17, "velocity": 85}, {"time": 3414, "pitch": 54, "duration": 10, "velocity": 85}, {"time": 3417, "pitch": 59, "duration": 5, "velocity": 92}, {"time": 3420, "pitch": 62, "duration": 2, "velocity": 95}, {"time": 3423, "pitch": 66, "duration": 8, "velocity": 122}, {"time": 3426, "pitch": 54, "duration": 2, "velocity": 93}, {"time": 3429, "pitch": 62, "duration": 4, "velocity": 99}, {"time": 3432, "pitch": 59, "duration": 3, "velocity": 97}, {"time": 3435, "pitch": 40, "duration": 17, "velocity": 73}, {"time": 3438, "pitch": 47, "duration": 13, "velocity": 90}, {"time": 3441, "pitch": 52, "duration": 7, "velocity": 97}, {"time": 3444, "pitch": 59, "duration": 3, "velocity": 93}, {"time": 3447, "pitch": 67, "duration": 9, "velocity": 122}, {"time": 3450, "pitch": 52, "duration": 3, "velocity": 97}, {"time": 3453, "pitch": 64, "duration": 3, "velocity": 112}, {"time": 3456, "pitch": 59, "duration": 2, "velocity": 99}, {"time": 3459, "pitch": 45, "duration": 3, "velocity": 93}, {"time": 3459, "pitch": 60, "duration": 9, "velocity": 100}, {"time": 3459, "pitch": 64, "duration": 7, "velocity": 97}, {"time": 3465, "pitch": 57, "duration": 5, "velocity": 99}, {"time": 3471, "pitch": 38, "duration": 4, "velocity": 79}, {"time": 3471, "pitch": 62, "duration": 12, "velocity": 99}, {"time": 3471, "pitch": 66, "duration": 12, "velocity": 127}, {"time": 3483, "pitch": 43, "duration": 23, "velocity": 81}, {"time": 3486, "pitch": 50, "duration": 21, "velocity": 65}, {"time": 3489, "pitch": 55, "duration": 7, "velocity": 92}, {"time": 3492, "pitch": 59, "duration": 4, "velocity": 71}, {"time": 3495, "pitch": 62, "duration": 7, "velocity": 100}, {"time": 3498, "pitch": 55, "duration": 3, "velocity": 85}, {"time": 3501, "pitch": 59, "duration": 4, "velocity": 88}, {"time": 3504, "pitch": 62, "duration": 2, "velocity": 83}, {"time": 3507, "pitch": 43, "duration": 21, "velocity": 102}, {"time": 3510, "pitch": 50, "duration": 20, "velocity": 99}, {"time": 3513, "pitch": 55, "duration": 7, "velocity": 107}, {"time": 3516, "pitch": 62, "duration": 4, "velocity": 97}, {"time": 3519, "pitch": 71, "duration": 11, "velocity": 127}, {"time": 3522, "pitch": 55, "duration": 3, "velocity": 112}, {"time": 3525, "pitch": 67, "duration": 7, "velocity": 97}, {"time": 3528, "pitch": 62, "duration": 6, "velocity": 112}, {"time": 3531, "pitch": 43, "duration": 17, "velocity": 96}, {"time": 3534, "pitch": 50, "duration": 14, "velocity": 89}, {"time": 3537, "pitch": 55, "duration": 7, "velocity": 97}, {"time": 3540, "pitch": 62, "duration": 4, "velocity": 96}, {"time": 3543, "pitch": 71, "duration": 10, "velocity": 122}, {"time": 3546, "pitch": 55, "duration": 4, "velocity": 107}, {"time": 3549, "pitch": 67, "duration": 4, "velocity": 107}, {"time": 3552, "pitch": 62, "duration": 3, "velocity": 100}, {"time": 3555, "pitch": 47, "duration": 22, "velocity": 83}, {"time": 3558, "pitch": 54, "duration": 10, "velocity": 93}, {"time": 3561, "pitch": 59, "duration": 5, "velocity": 96}, {"time": 3564, "pitch": 62, "duration": 2, "velocity": 102}, {"time": 3567, "pitch": 66, "duration": 12, "velocity": 127}, {"time": 3570, "pitch": 54, "duration": 8, "velocity": 96}, {"time": 3573, "pitch": 62, "duration": 5, "velocity": 100}, {"time": 3576, "pitch": 59, "duration": 2, "velocity": 93}, {"time": 3579, "pitch": 47, "duration": 19, "velocity": 79}, {"time": 3582, "pitch": 54, "duration": 15, "velocity": 85}, {"time": 3585, "pitch": 59, "duration": 7, "velocity": 97}, {"time": 3588, "pitch": 71, "duration": 2, "velocity": 100}, {"time": 3591, "pitch": 74, "duration": 5, "velocity": 69}, {"time": 3591, "pitch": 78, "duration": 11, "velocity": 127}, {"time": 3594, "pitch": 59, "duration": 2, "velocity": 112}, {"time": 3597, "pitch": 71, "duration": 6, "velocity": 95}, {"time": 3600, "pitch": 74, "duration": 3, "velocity": 127}, {"time": 3603, "pitch": 40, "duration": 21, "velocity": 86}, {"time": 3606, "pitch": 47, "duration": 21, "velocity": 78}, {"time": 3609, "pitch": 52, "duration": 7, "velocity": 102}, {"time": 3612, "pitch": 59, "duration": 4, "velocity": 70}, {"time": 3615, "pitch": 64, "duration": 7, "velocity": 99}, {"time": 3615, "pitch": 67, "duration": 7, "velocity": 122}, {"time": 3618, "pitch": 52, "duration": 3, "velocity": 93}, {"time": 3621, "pitch": 59, "duration": 5, "velocity": 92}, {"time": 3624, "pitch": 64, "duration": 2, "velocity": 96}, {"time": 3624, "pitch": 67, "duration": 3, "velocity": 95}, {"time": 3627, "pitch": 40, "duration": 16, "velocity": 95}, {"time": 3630, "pitch": 47, "duration": 13, "velocity": 95}, {"time": 3633, "pitch": 52, "duration": 7, "velocity": 95}, {"time": 3636, "pitch": 71, "duration": 5, "velocity": 78}, {"time": 3639, "pitch": 79, "duration": 12, "velocity": 127}, {"time": 3642, "pitch": 52, "duration": 5, "velocity": 95}, {"time": 3645, "pitch": 76, "duration": 6, "velocity": 99}, {"time": 3648, "pitch": 71, "duration": 4, "velocity": 85}, {"time": 3651, "pitch": 45, "duration": 19, "velocity": 88}, {"time": 3654, "pitch": 52, "duration": 11, "velocity": 81}, {"time": 3657, "pitch": 57, "duration": 5, "velocity": 93}, {"time": 3660, "pitch": 60, "duration": 2, "velocity": 93}, {"time": 3663, "pitch": 64, "duration": 10, "velocity": 100}, {"time": 3666, "pitch": 52, "duration": 2, "velocity": 89}, {"time": 3669, "pitch": 60, "duration": 3, "velocity": 122}, {"time": 3672, "pitch": 57, "duration": 4, "velocity": 96}, {"time": 3675, "pitch": 38, "duration": 19, "velocity": 89}, {"time": 3678, "pitch": 45, "duration": 16, "velocity": 100}, {"time": 3681, "pitch": 50, "duration": 7, "velocity": 112}, {"time": 3684, "pitch": 57, "duration": 5, "velocity": 102}, {"time": 3687, "pitch": 66, "duration": 10, "velocity": 127}, {"time": 3690, "pitch": 50, "duration": 8, "velocity": 100}, {"time": 3693, "pitch": 62, "duration": 5, "velocity": 127}, {"time": 3696, "pitch": 57, "duration": 2, "velocity": 112}, {"time": 3699, "pitch": 47, "duration": 23, "velocity": 90}, {"time": 3702, "pitch": 54, "duration": 10, "velocity": 102}, {"time": 3705, "pitch": 59, "duration": 4, "velocity": 89}, {"time": 3708, "pitch": 62, "duration": 3, "velocity": 117}, {"time": 3711, "pitch": 66, "duration": 12, "velocity": 127}, {"time": 3714, "pitch": 54, "duration": 8, "velocity": 95}, {"time": 3717, "pitch": 62, "duration": 6, "velocity": 122}, {"time": 3720, "pitch": 59, "duration": 3, "velocity": 95}, {"time": 3723, "pitch": 47, "duration": 17, "velocity": 79}, {"time": 3726, "pitch": 54, "duration": 10, "velocity": 86}, {"time": 3729, "pitch": 59, "duration": 4, "velocity": 95}, {"time": 3732, "pitch": 62, "duration": 2, "velocity": 122}, {"time": 3735, "pitch": 66, "duration": 8, "velocity": 127}, {"time": 3738, "pitch": 54, "duration": 1, "velocity": 107}, {"time": 3741, "pitch": 62, "duration": 4, "velocity": 127}, {"time": 3744, "pitch": 59, "duration": 4, "velocity": 102}, {"time": 3747, "pitch": 40, "duration": 18, "velocity": 81}, {"time": 3750, "pitch": 47, "duration": 14, "velocity": 93}, {"time": 3753, "pitch": 52, "duration": 7, "velocity": 93}, {"time": 3756, "pitch": 59, "duration": 4, "velocity": 100}, {"time": 3759, "pitch": 67, "duration": 10, "velocity": 117}, {"time": 3762, "pitch": 52, "duration": 2, "velocity": 95}, {"time": 3765, "pitch": 62, "duration": 4, "velocity": 102}, {"time": 3768, "pitch": 64, "duration": 4, "velocity": 107}, {"time": 3771, "pitch": 36, "duration": 16, "velocity": 86}, {"time": 3774, "pitch": 43, "duration": 13, "velocity": 82}, {"time": 3777, "pitch": 48, "duration": 7, "velocity": 93}, {"time": 3780, "pitch": 60, "duration": 3, "velocity": 96}, {"time": 3783, "pitch": 67, "duration": 10, "velocity": 127}, {"time": 3786, "pitch": 48, "duration": 2, "velocity": 96}, {"time": 3789, "pitch": 64, "duration": 4, "velocity": 117}, {"time": 3792, "pitch": 60, "duration": 3, "velocity": 100}, {"time": 3795, "pitch": 45, "duration": 22, "velocity": 81}, {"time": 3798, "pitch": 52, "duration": 11, "velocity": 89}, {"time": 3801, "pitch": 57, "duration": 4, "velocity": 89}, {"time": 3804, "pitch": 60, "duration": 2, "velocity": 99}, {"time": 3807, "pitch": 64, "duration": 11, "velocity": 112}, {"time": 3810, "pitch": 52, "duration": 8, "velocity": 88}, {"time": 3813, "pitch": 60, "duration": 5, "velocity": 112}, {"time": 3816, "pitch": 57, "duration": 3, "velocity": 102}, {"time": 3819, "pitch": 45, "duration": 16, "velocity": 88}, {"time": 3822, "pitch": 52, "duration": 11, "velocity": 72}, {"time": 3825, "pitch": 57, "duration": 4, "velocity": 107}, {"time": 3828, "pitch": 64, "duration": 3, "velocity": 107}, {"time": 3831, "pitch": 72, "duration": 11, "velocity": 127}, {"time": 3834, "pitch": 69, "duration": 3, "velocity": 99}, {"time": 3837, "pitch": 64, "duration": 6, "velocity": 86}, {"time": 3840, "pitch": 69, "duration": 3, "velocity": 122}, {"time": 3843, "pitch": 36, "duration": 21, "velocity": 88}, {"time": 3846, "pitch": 43, "duration": 19, "velocity": 89}, {"time": 3849, "pitch": 48, "duration": 6, "velocity": 97}, {"time": 3852, "pitch": 55, "duration": 4, "velocity": 95}, {"time": 3855, "pitch": 64, "duration": 10, "velocity": 127}, {"time": 3858, "pitch": 48, "duration": 3, "velocity": 102}, {"time": 3861, "pitch": 60, "duration": 4, "velocity": 102}, {"time": 3864, "pitch": 55, "duration": 2, "velocity": 97}, {"time": 3867, "pitch": 38, "duration": 17, "velocity": 88}, {"time": 3870, "pitch": 45, "duration": 14, "velocity": 95}, {"time": 3873, "pitch": 50, "duration": 7, "velocity": 100}, {"time": 3876, "pitch": 66, "duration": 2, "velocity": 122}, {"time": 3876, "pitch": 69, "duration": 2, "velocity": 100}, {"time": 3879, "pitch": 66, "duration": 6, "velocity": 127}, {"time": 3879, "pitch": 69, "duration": 11, "velocity": 127}, {"time": 3882, "pitch": 50, "duration": 4, "velocity": 112}, {"time": 3885, "pitch": 62, "duration": 6, "velocity": 112}, {"time": 3888, "pitch": 66, "duration": 3, "velocity": 127}, {"time": 3891, "pitch": 43, "duration": 23, "velocity": 89}, {"time": 3894, "pitch": 50, "duration": 22, "velocity": 79}, {"time": 3897, "pitch": 55, "duration": 7, "velocity": 95}, {"time": 3900, "pitch": 62, "duration": 5, "velocity": 99}, {"time": 3903, "pitch": 71, "duration": 12, "velocity": 117}, {"time": 3906, "pitch": 55, "duration": 3, "velocity": 95}, {"time": 3909, "pitch": 67, "duration": 9, "velocity": 112}, {"time": 3912, "pitch": 62, "duration": 6, "velocity": 112}, {"time": 3915, "pitch": 43, "duration": 17, "velocity": 89}, {"time": 3918, "pitch": 50, "duration": 14, "velocity": 83}, {"time": 3921, "pitch": 55, "duration": 7, "velocity": 92}, {"time": 3924, "pitch": 62, "duration": 4, "velocity": 100}, {"time": 3927, "pitch": 71, "duration": 10, "velocity": 122}, {"time": 3930, "pitch": 55, "duration": 5, "velocity": 95}, {"time": 3933, "pitch": 67, "duration": 4, "velocity": 127}, {"time": 3936, "pitch": 62, "duration": 3, "velocity": 127}, {"time": 3939, "pitch": 47, "duration": 22, "velocity": 85}, {"time": 3942, "pitch": 54, "duration": 10, "velocity": 86}, {"time": 3945, "pitch": 59, "duration": 6, "velocity": 95}, {"time": 3948, "pitch": 62, "duration": 2, "velocity": 117}, {"time": 3951, "pitch": 66, "duration": 7, "velocity": 122}, {"time": 3954, "pitch": 54, "duration": 8, "velocity": 99}, {"time": 3957, "pitch": 62, "duration": 9, "velocity": 107}, {"time": 3960, "pitch": 59, "duration": 5, "velocity": 97}, {"time": 3963, "pitch": 47, "duration": 17, "velocity": 85}, {"time": 3966, "pitch": 54, "duration": 10, "velocity": 95}, {"time": 3969, "pitch": 59, "duration": 3, "velocity": 77}, {"time": 3972, "pitch": 62, "duration": 2, "velocity": 102}, {"time": 3972, "pitch": 66, "duration": 2, "velocity": 117}, {"time": 3975, "pitch": 62, "duration": 6, "velocity": 99}, {"time": 3975, "pitch": 66, "duration": 9, "velocity": 122}, {"time": 3978, "pitch": 54, "duration": 2, "velocity": 112}, {"time": 3981, "pitch": 59, "duration": 7, "velocity": 107}, {"time": 3984, "pitch": 62, "duration": 3, "velocity": 100}, {"time": 3987, "pitch": 40, "duration": 22, "velocity": 86}, {"time": 3990, "pitch": 47, "duration": 21, "velocity": 63}, {"time": 3993, "pitch": 52, "duration": 7, "velocity": 88}, {"time": 3996, "pitch": 59, "duration": 5, "velocity": 96}, {"time": 3999, "pitch": 67, "duration": 12, "velocity": 107}, {"time": 4002, "pitch": 52, "duration": 3, "velocity": 93}, {"time": 4005, "pitch": 64, "duration": 7, "velocity": 99}, {"time": 4008, "pitch": 59, "duration": 4, "velocity": 107}, {"time": 4011, "pitch": 40, "duration": 16, "velocity": 76}, {"time": 4014, "pitch": 47, "duration": 13, "velocity": 79}, {"time": 4017, "pitch": 52, "duration": 7, "velocity": 90}, {"time": 4020, "pitch": 59, "duration": 4, "velocity": 82}, {"time": 4023, "pitch": 67, "duration": 11, "velocity": 127}, {"time": 4026, "pitch": 52, "duration": 3, "velocity": 90}, {"time": 4029, "pitch": 64, "duration": 5, "velocity": 117}, {"time": 4032, "pitch": 59, "duration": 3, "velocity": 97}, {"time": 4035, "pitch": 45, "duration": 17, "velocity": 74}, {"time": 4038, "pitch": 52, "duration": 10, "velocity": 75}, {"time": 4041, "pitch": 57, "duration": 4, "velocity": 81}, {"time": 4044, "pitch": 60, "duration": 3, "velocity": 100}, {"time": 4047, "pitch": 64, "duration": 10, "velocity": 117}, {"time": 4050, "pitch": 52, "duration": 2, "velocity": 90}, {"time": 4053, "pitch": 60, "duration": 4, "velocity": 112}, {"time": 4056, "pitch": 57, "duration": 4, "velocity": 99}, {"time": 4059, "pitch": 38, "duration": 17, "velocity": 78}, {"time": 4062, "pitch": 45, "duration": 14, "velocity": 81}, {"time": 4065, "pitch": 50, "duration": 7, "velocity": 100}, {"time": 4068, "pitch": 57, "duration": 3, "velocity": 102}, {"time": 4071, "pitch": 66, "duration": 10, "velocity": 127}, {"time": 4074, "pitch": 50, "duration": 3, "velocity": 100}, {"time": 4077, "pitch": 62, "duration": 3, "velocity": 99}, {"time": 4080, "pitch": 64, "duration": 4, "velocity": 92}, {"time": 4083, "pitch": 47, "duration": 22, "velocity": 82}, {"time": 4086, "pitch": 54, "duration": 10, "velocity": 78}, {"time": 4089, "pitch": 59, "duration": 4, "velocity": 90}, {"time": 4092, "pitch": 62, "duration": 3, "velocity": 112}, {"time": 4095, "pitch": 66, "duration": 11, "velocity": 127}, {"time": 4098, "pitch": 54, "duration": 8, "velocity": 86}, {"time": 4101, "pitch": 62, "duration": 6, "velocity": 102}, {"time": 4104, "pitch": 59, "duration": 3, "velocity": 107}, {"time": 4107, "pitch": 47, "duration": 17, "velocity": 79}, {"time": 4110, "pitch": 54, "duration": 10, "velocity": 78}, {"time": 4113, "pitch": 59, "duration": 4, "velocity": 90}, {"time": 4116, "pitch": 62, "duration": 2, "velocity": 100}, {"time": 4119, "pitch": 66, "duration": 8, "velocity": 122}, {"time": 4122, "pitch": 54, "duration": 2, "velocity": 100}, {"time": 4125, "pitch": 62, "duration": 4, "velocity": 112}, {"time": 4128, "pitch": 59, "duration": 4, "velocity": 99}, {"time": 4131, "pitch": 40, "duration": 17, "velocity": 81}, {"time": 4134, "pitch": 47, "duration": 14, "velocity": 90}, {"time": 4137, "pitch": 52, "duration": 7, "velocity": 92}, {"time": 4140, "pitch": 59, "duration": 5, "velocity": 96}, {"time": 4143, "pitch": 67, "duration": 11, "velocity": 117}, {"time": 4146, "pitch": 52, "duration": 2, "velocity": 107}, {"time": 4149, "pitch": 64, "duration": 6, "velocity": 102}, {"time": 4152, "pitch": 59, "duration": 3, "velocity": 100}, {"time": 4155, "pitch": 36, "duration": 16, "velocity": 88}, {"time": 4158, "pitch": 43, "duration": 13, "velocity": 66}, {"time": 4161, "pitch": 48, "duration": 7, "velocity": 97}, {"time": 4164, "pitch": 60, "duration": 3, "velocity": 86}, {"time": 4167, "pitch": 67, "duration": 10, "velocity": 117}, {"time": 4170, "pitch": 48, "duration": 2, "velocity": 102}, {"time": 4173, "pitch": 64, "duration": 4, "velocity": 117}, {"time": 4176, "pitch": 60, "duration": 3, "velocity": 102}, {"time": 4179, "pitch": 47, "duration": 17, "velocity": 85}, {"time": 4182, "pitch": 54, "duration": 10, "velocity": 85}, {"time": 4185, "pitch": 59, "duration": 5, "velocity": 92}, {"time": 4188, "pitch": 62, "duration": 2, "velocity": 95}, {"time": 4191, "pitch": 66, "duration": 8, "velocity": 122}, {"time": 4194, "pitch": 54, "duration": 2, "velocity": 93}, {"time": 4197, "pitch": 62, "duration": 4, "velocity": 99}, {"time": 4200, "pitch": 59, "duration": 3, "velocity": 97}, {"time": 4203, "pitch": 40, "duration": 17, "velocity": 73}, {"time": 4206, "pitch": 47, "duration": 13, "velocity": 90}, {"time": 4209, "pitch": 52, "duration": 7, "velocity": 97}, {"time": 4212, "pitch": 59, "duration": 3, "velocity": 93}, {"time": 4215, "pitch": 67, "duration": 9, "velocity": 122}, {"time": 4218, "pitch": 52, "duration": 3, "velocity": 97}, {"time": 4221, "pitch": 64, "duration": 3, "velocity": 112}, {"time": 4224, "pitch": 59, "duration": 2, "velocity": 99}, {"time": 4227, "pitch": 45, "duration": 3, "velocity": 93}, {"time": 4227, "pitch": 60, "duration": 9, "velocity": 100}, {"time": 4227, "pitch": 64, "duration": 7, "velocity": 97}, {"time": 4233, "pitch": 57, "duration": 5, "velocity": 99}, {"time": 4239, "pitch": 38, "duration": 4, "velocity": 79}, {"time": 4239, "pitch": 62, "duration": 12, "velocity": 99}, {"time": 4239, "pitch": 66, "duration": 12, "velocity": 127}, {"time": 4251, "pitch": 43, "duration": 23, "velocity": 81}, {"time": 4254, "pitch": 50, "duration": 21, "velocity": 65}, {"time": 4257, "pitch": 55, "duration": 7, "velocity": 92}, {"time": 4260, "pitch": 59, "duration": 4, "velocity": 71}, {"time": 4263, "pitch": 62, "duration": 7, "velocity": 100}, {"time": 4266, "pitch": 55, "duration": 3, "velocity": 85}, {"time": 4269, "pitch": 59, "duration": 4, "velocity": 88}, {"time": 4272, "pitch": 62, "duration": 2, "velocity": 83}, {"time": 4275, "pitch": 43, "duration": 16, "velocity": 77}, {"time": 4275, "pitch": 62, "duration": 22, "velocity": 88}, {"time": 4275, "pitch": 67, "duration": 22, "velocity": 89}, {"time": 4275, "pitch": 71, "duration": 22, "velocity": 81}, {"time": 4299, "pitch": 36, "duration": 12, "velocity": 72}, {"time": 4299, "pitch": 60, "duration": 18, "velocity": 86}, {"time": 4299, "pitch": 64, "duration": 15, "velocity": 90}, {"time": 4299, "pitch": 67, "duration": 15, "velocity": 81}, {"time": 4299, "pitch": 71, "duration": 15, "velocity": 76}, {"time": 4305, "pitch": 43, "duration": 6, "velocity": 38}, {"time": 4311, "pitch": 48, "duration": 2, "velocity": 51}, {"time": 4323, "pitch": 47, "duration": 20, "velocity": 58}, {"time": 4323, "pitch": 59, "duration": 18, "velocity": 86}, {"time": 4323, "pitch": 62, "duration": 18, "velocity": 89}, {"time": 4323, "pitch": 66, "duration": 17, "velocity": 99}, {"time": 4323, "pitch": 69, "duration": 18, "velocity": 76}, {"time": 4347, "pitch": 45, "duration": 8, "velocity": 95}, {"time": 4347, "pitch": 57, "duration": 6, "velocity": 93}, {"time": 4347, "pitch": 60, "duration": 6, "velocity": 95}, {"time": 4347, "pitch": 64, "duration": 6, "velocity": 89}, {"time": 4359, "pitch": 50, "duration": 25, "velocity": 92}, {"time": 4359, "pitch": 57, "duration": 25, "velocity": 99}, {"time": 4359, "pitch": 62, "duration": 26, "velocity": 122}, {"time": 4359, "pitch": 66, "duration": 25, "velocity": 117}, {"time": 4419, "pitch": 60, "duration": 1, "velocity": 34}, {"time": 4419, "pitch": 64, "duration": 19, "velocity": 57}, {"time": 4419, "pitch": 36, "duration": 34, "velocity": 65}, {"time": 4419, "pitch": 67, "duration": 14, "velocity": 57}, {"time": 4425, "pitch": 43, "duration": 27, "velocity": 47}, {"time": 4430, "pitch": 48, "duration": 15, "velocity": 81}, {"time": 4436, "pitch": 60, "duration": 14, "velocity": 64}, {"time": 4443, "pitch": 67, "duration": 13, "velocity": 95}, {"time": 4455, "pitch": 64, "duration": 1, "velocity": 48}, {"time": 4464, "pitch": 57, "duration": 19, "velocity": 50}, {"time": 4465, "pitch": 62, "duration": 21, "velocity": 44}, {"time": 4466, "pitch": 66, "duration": 18, "velocity": 76}, {"time": 4467, "pitch": 38, "duration": 27, "velocity": 65}, {"time": 4472, "pitch": 45, "duration": 21, "velocity": 34}, {"time": 4479, "pitch": 50, "duration": 9, "velocity": 89}, {"time": 4485, "pitch": 57, "duration": 21, "velocity": 76}, {"time": 4492, "pitch": 66, "duration": 15, "velocity": 122}, {"time": 4506, "pitch": 62, "duration": 1, "velocity": 86}, {"time": 4523, "pitch": 67, "duration": 11, "velocity": 44}, {"time": 4524, "pitch": 71, "duration": 10, "velocity": 53}, {"time": 4526, "pitch": 74, "duration": 8, "velocity": 79}, {"time": 4526, "pitch": 43, "duration": 88, "velocity": 66}, {"time": 4534, "pitch": 50, "duration": 80, "velocity": 57}, {"time": 4539, "pitch": 55, "duration": 74, "velocity": 76}, {"time": 4543, "pitch": 59, "duration": 5, "velocity": 66}, {"time": 4546, "pitch": 62, "duration": 3, "velocity": 68}, {"time": 4549, "pitch": 67, "duration": 1, "velocity": 65}, {"time": 4552, "pitch": 71, "duration": 3, "velocity": 73}, {"time": 4556, "pitch": 74, "duration": 1, "velocity": 39}, {"time": 4559, "pitch": 79, "duration": 7, "velocity": 66}, {"time": 4563, "pitch": 83, "duration": 4, "velocity": 64}, {"time": 4567, "pitch": 86, "duration": 1, "velocity": 93}, {"time": 4572, "pitch": 91, "duration": 41, "velocity": 72}, {"time": 4578, "pitch": 95, "duration": 35, "velocity": 49}, {"time": 4584, "pitch": 98, "duration": 29, "velocity": 68}], "annotations": [{"time": 55, "annotation": {"number": 64, "value": 127}, "group": "control_change"}, {"time": 58, "annotation": {"number": 64, "value": 0}, "group": "control_change"}, {"time": 61, "annotation": {"number": 64, "value": 127}, "group": "control_change"}, {"time": 62, "annotation": {"number": 64, "value": 0}, "group": "control_change"}, {"time": 62, "annotation": {"number": 64, "value": 127}, "group": "control_change"}, {"time": 96, "annotation": {"number": 64, "value": 0}, "group": "control_change"}, {"time": 101, "annotation": {"number": 64, "value": 127}, "group": "control_change"}, {"time": 145, "annotation": {"number": 64, "value": 0}, "group": "control_change"}, {"time": 149, "annotation": {"number": 64, "value": 127}, "group": "control_change"}, {"time": 166, "annotation": {"number": 64, "value": 0}, "group": "control_change"}, {"time": 172, "annotation": {"number": 64, "value": 127}, "group": "control_change"}, {"time": 194, "annotation": {"number": 64, "value": 0}, "group": "control_change"}, {"time": 195, "annotation": {"number": 64, "value": 127}, "group": "control_change"}, {"time": 216, "annotation": {"number": 64, "value": 0}, "group": "control_change"}, {"time": 219, "annotation": {"number": 64, "value": 127}, "group": "control_change"}, {"time": 226, "annotation": {"number": 64, "value": 0}, "group": "control_change"}, {"time": 227, "annotation": {"number": 64, "value": 127}, "group": "control_change"}, {"time": 227, "annotation": {"number": 64, "value": 0}, "group": "control_change"}, {"time": 228, "annotation": {"number": 64, "value": 127}, "group": "control_change"}, {"time": 239, "annotation": {"number": 64, "value": 0}, "group": "control_change"}, {"time": 244, "annotation": {"number": 64, "value": 127}, "group": "control_change"}, {"time": 262, "annotation": {"number": 64, "value": 0}, "group": "control_change"}, {"time": 267, "annotation": {"number": 64, "value": 127}, "group": "control_change"}, {"time": 289, "annotation": {"number": 64, "value": 0}, "group": "control_change"}, {"time": 292, "annotation": {"number": 64, "value": 127}, "group": "control_change"}, {"time": 313, "annotation": {"number": 64, "value": 0}, "group": "control_change"}, {"time": 315, "annotation": {"number": 64, "value": 127}, "group": "control_change"}, {"time": 321, "annotation": {"number": 64, "value": 0}, "group": "control_change"}, {"time": 322, "annotation": {"number": 64, "value": 127}, "group": "control_change"}, {"time": 324, "annotation": {"number": 64, "value": 0}, "group": "control_change"}, {"time": 325, "annotation": {"number": 64, "value": 127}, "group": "control_change"}, {"time": 332, "annotation": {"number": 64, "value": 0}, "group": "control_change"}, {"time": 334, "annotation": {"number": 64, "value": 127}, "group": "control_change"}, {"time": 337, "annotation": {"number": 64, "value": 0}, "group": "control_change"}, {"time": 339, "annotation": {"number": 64, "value": 127}, "group": "control_change"}, {"time": 340, "annotation": {"number": 64, "value": 0}, "group": "control_change"}, {"time": 345, "annotation": {"number": 64, "value": 127}, "group": "control_change"}, {"time": 360, "annotation": {"number": 64, "value": 0}, "group": "control_change"}, {"time": 363, "annotation": {"number": 64, "value": 127}, "group": "control_change"}, {"time": 383, "annotation": {"number": 64, "value": 0}, "group": "control_change"}, {"time": 390, "annotation": {"number": 64, "value": 127}, "group": "control_change"}, {"time": 407, "annotation": {"number": 64, "value": 0}, "group": "control_change"}, {"time": 440, "annotation": {"number": 64, "value": 127}, "group": "control_change"}, {"time": 447, "annotation": {"number": 64, "value": 0}, "group": "control_change"}, {"time": 460, "annotation": {"number": 64, "value": 127}, "group": "control_change"}, {"time": 478, "annotation": {"number": 64, "value": 0}, "group": "control_change"}, {"time": 484, "annotation": {"number": 64, "value": 127}, "group": "control_change"}, {"time": 504, "annotation": {"number": 64, "value": 0}, "group": "control_change"}, {"time": 507, "annotation": {"number": 64, "value": 127}, "group": "control_change"}, {"time": 526, "annotation": {"number": 64, "value": 0}, "group": "control_change"}, {"time": 531, "annotation": {"number": 64, "value": 127}, "group": "control_change"}, {"time": 550, "annotation": {"number": 64, "value": 0}, "group": "control_change"}, {"time": 555, "annotation": {"number": 64, "value": 127}, "group": "control_change"}, {"time": 575, "annotation": {"number": 64, "value": 0}, "group": "control_change"}, {"time": 579, "annotation": {"number": 64, "value": 127}, "group": "control_change"}, {"time": 599, "annotation": {"number": 64, "value": 0}, "group": "control_change"}, {"time": 606, "annotation": {"number": 64, "value": 127}, "group": "control_change"}, {"time": 623, "annotation": {"number": 64, "value": 0}, "group": "control_change"}, {"time": 627, "annotation": {"number": 64, "value": 127}, "group": "control_change"}, {"time": 646, "annotation": {"number": 64, "value": 0}, "group": "control_change"}, {"time": 654, "annotation": {"number": 64, "value": 127}, "group": "control_change"}, {"time": 672, "annotation": {"number": 64, "value": 0}, "group": "control_change"}, {"time": 676, "annotation": {"number": 64, "value": 127}, "group": "control_change"}, {"time": 693, "annotation": {"number": 64, "value": 0}, "group": "control_change"}, {"time": 700, "annotation": {"number": 64, "value": 127}, "group": "control_change"}, {"time": 720, "annotation": {"number": 64, "value": 0}, "group": "control_change"}, {"time": 724, "annotation": {"number": 64, "value": 127}, "group": "control_change"}, {"time": 742, "annotation": {"number": 64, "value": 0}, "group": "control_change"}, {"time": 748, "annotation": {"number": 64, "value": 127}, "group": "control_change"}, {"time": 768, "annotation": {"number": 64, "value": 0}, "group": "control_change"}, {"time": 772, "annotation": {"number": 64, "value": 127}, "group": "control_change"}, {"time": 792, "annotation": {"number": 64, "value": 0}, "group": "control_change"}, {"time": 807, "annotation": {"number": 64, "value": 127}, "group": "control_change"}, {"time": 811, "annotation": {"number": 64, "value": 0}, "group": "control_change"}, {"time": 819, "annotation": {"number": 64, "value": 127}, "group": "control_change"}, {"time": 864, "annotation": {"number": 64, "value": 0}, "group": "control_change"}, {"time": 867, "annotation": {"number": 64, "value": 127}, "group": "control_change"}, {"time": 888, "annotation": {"number": 64, "value": 0}, "group": "control_change"}, {"time": 891, "annotation": {"number": 64, "value": 127}, "group": "control_change"}, {"time": 912, "annotation": {"number": 64, "value": 0}, "group": "control_change"}, {"time": 915, "annotation": {"number": 64, "value": 127}, "group": "control_change"}, {"time": 936, "annotation": {"number": 64, "value": 0}, "group": "control_change"}, {"time": 939, "annotation": {"number": 64, "value": 127}, "group": "control_change"}, {"time": 959, "annotation": {"number": 64, "value": 0}, "group": "control_change"}, {"time": 963, "annotation": {"number": 64, "value": 127}, "group": "control_change"}, {"time": 985, "annotation": {"number": 64, "value": 0}, "group": "control_change"}, {"time": 987, "annotation": {"number": 64, "value": 127}, "group": "control_change"}, {"time": 1008, "annotation": {"number": 64, "value": 0}, "group": "control_change"}, {"time": 1011, "annotation": {"number": 64, "value": 127}, "group": "control_change"}, {"time": 1031, "annotation": {"number": 64, "value": 0}, "group": "control_change"}, {"time": 1038, "annotation": {"number": 64, "value": 127}, "group": "control_change"}, {"time": 1056, "annotation": {"number": 64, "value": 0}, "group": "control_change"}, {"time": 1083, "annotation": {"number": 64, "value": 127}, "group": "control_change"}, {"time": 1103, "annotation": {"number": 64, "value": 0}, "group": "control_change"}, {"time": 1108, "annotation": {"number": 64, "value": 127}, "group": "control_change"}, {"time": 1123, "annotation": {"number": 64, "value": 0}, "group": "control_change"}, {"time": 1124, "annotation": {"number": 64, "value": 127}, "group": "control_change"}, {"time": 1124, "annotation": {"number": 64, "value": 0}, "group": "control_change"}, {"time": 1131, "annotation": {"number": 64, "value": 127}, "group": "control_change"}, {"time": 1149, "annotation": {"number": 64, "value": 0}, "group": "control_change"}, {"time": 1156, "annotation": {"number": 64, "value": 127}, "group": "control_change"}, {"time": 1201, "annotation": {"number": 64, "value": 0}, "group": "control_change"}, {"time": 1203, "annotation": {"number": 64, "value": 127}, "group": "control_change"}, {"time": 1223, "annotation": {"number": 64, "value": 0}, "group": "control_change"}, {"time": 1226, "annotation": {"number": 64, "value": 127}, "group": "control_change"}, {"time": 1248, "annotation": {"number": 64, "value": 0}, "group": "control_change"}, {"time": 1250, "annotation": {"number": 64, "value": 127}, "group": "control_change"}, {"time": 1272, "annotation": {"number": 64, "value": 0}, "group": "control_change"}, {"time": 1274, "annotation": {"number": 64, "value": 127}, "group": "control_change"}, {"time": 1297, "annotation": {"number": 64, "value": 0}, "group": "control_change"}, {"time": 1299, "annotation": {"number": 64, "value": 127}, "group": "control_change"}, {"time": 1301, "annotation": {"number": 64, "value": 0}, "group": "control_change"}, {"time": 1302, "annotation": {"number": 64, "value": 127}, "group": "control_change"}, {"time": 1320, "annotation": {"number": 64, "value": 0}, "group": "control_change"}, {"time": 1322, "annotation": {"number": 64, "value": 127}, "group": "control_change"}, {"time": 1339, "annotation": {"number": 64, "value": 0}, "group": "control_change"}, {"time": 1339, "annotation": {"number": 64, "value": 127}, "group": "control_change"}, {"time": 1344, "annotation": {"number": 64, "value": 0}, "group": "control_change"}, {"time": 1346, "annotation": {"number": 64, "value": 127}, "group": "control_change"}, {"time": 1368, "annotation": {"number": 64, "value": 0}, "group": "control_change"}, {"time": 1370, "annotation": {"number": 64, "value": 127}, "group": "control_change"}, {"time": 1381, "annotation": {"number": 64, "value": 0}, "group": "control_change"}, {"time": 1383, "annotation": {"number": 64, "value": 127}, "group": "control_change"}, {"time": 1391, "annotation": {"number": 64, "value": 0}, "group": "control_change"}, {"time": 1395, "annotation": {"number": 64, "value": 127}, "group": "control_change"}, {"time": 1416, "annotation": {"number": 64, "value": 0}, "group": "control_change"}, {"time": 1419, "annotation": {"number": 64, "value": 127}, "group": "control_change"}, {"time": 1440, "annotation": {"number": 64, "value": 0}, "group": "control_change"}, {"time": 1443, "annotation": {"number": 64, "value": 127}, "group": "control_change"}, {"time": 1465, "annotation": {"number": 64, "value": 0}, "group": "control_change"}, {"time": 1467, "annotation": {"number": 64, "value": 127}, "group": "control_change"}, {"time": 1488, "annotation": {"number": 64, "value": 0}, "group": "control_change"}, {"time": 1491, "annotation": {"number": 64, "value": 127}, "group": "control_change"}, {"time": 1511, "annotation": {"number": 64, "value": 0}, "group": "control_change"}, {"time": 1514, "annotation": {"number": 64, "value": 127}, "group": "control_change"}, {"time": 1517, "annotation": {"number": 64, "value": 0}, "group": "control_change"}, {"time": 1519, "annotation": {"number": 64, "value": 127}, "group": "control_change"}, {"time": 1525, "annotation": {"number": 64, "value": 0}, "group": "control_change"}, {"time": 1526, "annotation": {"number": 64, "value": 127}, "group": "control_change"}, {"time": 1537, "annotation": {"number": 64, "value": 0}, "group": "control_change"}, {"time": 1540, "annotation": {"number": 64, "value": 127}, "group": "control_change"}, {"time": 1541, "annotation": {"number": 64, "value": 0}, "group": "control_change"}, {"time": 1543, "annotation": {"number": 64, "value": 127}, "group": "control_change"}, {"time": 1550, "annotation": {"number": 64, "value": 0}, "group": "control_change"}, {"time": 1550, "annotation": {"number": 64, "value": 127}, "group": "control_change"}, {"time": 1559, "annotation": {"number": 64, "value": 0}, "group": "control_change"}, {"time": 1561, "annotation": {"number": 64, "value": 127}, "group": "control_change"}, {"time": 1584, "annotation": {"number": 64, "value": 0}, "group": "control_change"}, {"time": 1586, "annotation": {"number": 64, "value": 127}, "group": "control_change"}, {"time": 1608, "annotation": {"number": 64, "value": 0}, "group": "control_change"}, {"time": 1610, "annotation": {"number": 64, "value": 127}, "group": "control_change"}, {"time": 1631, "annotation": {"number": 64, "value": 0}, "group": "control_change"}, {"time": 1635, "annotation": {"number": 64, "value": 127}, "group": "control_change"}, {"time": 1656, "annotation": {"number": 64, "value": 0}, "group": "control_change"}, {"time": 1658, "annotation": {"number": 64, "value": 127}, "group": "control_change"}, {"time": 1680, "annotation": {"number": 64, "value": 0}, "group": "control_change"}, {"time": 1682, "annotation": {"number": 64, "value": 127}, "group": "control_change"}, {"time": 1703, "annotation": {"number": 64, "value": 0}, "group": "control_change"}, {"time": 1706, "annotation": {"number": 64, "value": 127}, "group": "control_change"}, {"time": 1728, "annotation": {"number": 64, "value": 0}, "group": "control_change"}, {"time": 1731, "annotation": {"number": 64, "value": 127}, "group": "control_change"}, {"time": 1752, "annotation": {"number": 64, "value": 0}, "group": "control_change"}, {"time": 1755, "annotation": {"number": 64, "value": 127}, "group": "control_change"}, {"time": 1776, "annotation": {"number": 64, "value": 0}, "group": "control_change"}, {"time": 1779, "annotation": {"number": 64, "value": 127}, "group": "control_change"}, {"time": 1799, "annotation": {"number": 64, "value": 0}, "group": "control_change"}, {"time": 1802, "annotation": {"number": 64, "value": 127}, "group": "control_change"}, {"time": 1825, "annotation": {"number": 64, "value": 0}, "group": "control_change"}, {"time": 1827, "annotation": {"number": 64, "value": 127}, "group": "control_change"}, {"time": 1848, "annotation": {"number": 64, "value": 0}, "group": "control_change"}, {"time": 1851, "annotation": {"number": 64, "value": 127}, "group": "control_change"}, {"time": 1872, "annotation": {"number": 64, "value": 0}, "group": "control_change"}, {"time": 1875, "annotation": {"number": 64, "value": 127}, "group": "control_change"}, {"time": 1878, "annotation": {"number": 64, "value": 0}, "group": "control_change"}, {"time": 1879, "annotation": {"number": 64, "value": 127}, "group": "control_change"}, {"time": 1881, "annotation": {"number": 64, "value": 0}, "group": "control_change"}, {"time": 1883, "annotation": {"number": 64, "value": 127}, "group": "control_change"}, {"time": 1896, "annotation": {"number": 64, "value": 0}, "group": "control_change"}, {"time": 1899, "annotation": {"number": 64, "value": 127}, "group": "control_change"}, {"time": 1920, "annotation": {"number": 64, "value": 0}, "group": "control_change"}, {"time": 1922, "annotation": {"number": 64, "value": 127}, "group": "control_change"}, {"time": 1932, "annotation": {"number": 64, "value": 0}, "group": "control_change"}, {"time": 1934, "annotation": {"number": 64, "value": 127}, "group": "control_change"}, {"time": 1944, "annotation": {"number": 64, "value": 0}, "group": "control_change"}, {"time": 1947, "annotation": {"number": 64, "value": 127}, "group": "control_change"}, {"time": 1968, "annotation": {"number": 64, "value": 0}, "group": "control_change"}, {"time": 1975, "annotation": {"number": 64, "value": 127}, "group": "control_change"}, {"time": 1978, "annotation": {"number": 64, "value": 0}, "group": "control_change"}, {"time": 1981, "annotation": {"number": 64, "value": 127}, "group": "control_change"}, {"time": 1982, "annotation": {"number": 64, "value": 0}, "group": "control_change"}, {"time": 1982, "annotation": {"number": 64, "value": 127}, "group": "control_change"}, {"time": 2016, "annotation": {"number": 64, "value": 0}, "group": "control_change"}, {"time": 2021, "annotation": {"number": 64, "value": 127}, "group": "control_change"}, {"time": 2065, "annotation": {"number": 64, "value": 0}, "group": "control_change"}, {"time": 2069, "annotation": {"number": 64, "value": 127}, "group": "control_change"}, {"time": 2086, "annotation": {"number": 64, "value": 0}, "group": "control_change"}, {"time": 2092, "annotation": {"number": 64, "value": 127}, "group": "control_change"}, {"time": 2114, "annotation": {"number": 64, "value": 0}, "group": "control_change"}, {"time": 2115, "annotation": {"number": 64, "value": 127}, "group": "control_change"}, {"time": 2136, "annotation": {"number": 64, "value": 0}, "group": "control_change"}, {"time": 2139, "annotation": {"number": 64, "value": 127}, "group": "control_change"}, {"time": 2146, "annotation": {"number": 64, "value": 0}, "group": "control_change"}, {"time": 2147, "annotation": {"number": 64, "value": 127}, "group": "control_change"}, {"time": 2147, "annotation": {"number": 64, "value": 0}, "group": "control_change"}, {"time": 2148, "annotation": {"number": 64, "value": 127}, "group": "control_change"}, {"time": 2159, "annotation": {"number": 64, "value": 0}, "group": "control_change"}, {"time": 2164, "annotation": {"number": 64, "value": 127}, "group": "control_change"}, {"time": 2182, "annotation": {"number": 64, "value": 0}, "group": "control_change"}, {"time": 2187, "annotation": {"number": 64, "value": 127}, "group": "control_change"}, {"time": 2209, "annotation": {"number": 64, "value": 0}, "group": "control_change"}, {"time": 2212, "annotation": {"number": 64, "value": 127}, "group": "control_change"}, {"time": 2233, "annotation": {"number": 64, "value": 0}, "group": "control_change"}, {"time": 2235, "annotation": {"number": 64, "value": 127}, "group": "control_change"}, {"time": 2241, "annotation": {"number": 64, "value": 0}, "group": "control_change"}, {"time": 2242, "annotation": {"number": 64, "value": 127}, "group": "control_change"}, {"time": 2244, "annotation": {"number": 64, "value": 0}, "group": "control_change"}, {"time": 2245, "annotation": {"number": 64, "value": 127}, "group": "control_change"}, {"time": 2252, "annotation": {"number": 64, "value": 0}, "group": "control_change"}, {"time": 2254, "annotation": {"number": 64, "value": 127}, "group": "control_change"}, {"time": 2257, "annotation": {"number": 64, "value": 0}, "group": "control_change"}, {"time": 2259, "annotation": {"number": 64, "value": 127}, "group": "control_change"}, {"time": 2260, "annotation": {"number": 64, "value": 0}, "group": "control_change"}, {"time": 2265, "annotation": {"number": 64, "value": 127}, "group": "control_change"}, {"time": 2280, "annotation": {"number": 64, "value": 0}, "group": "control_change"}, {"time": 2283, "annotation": {"number": 64, "value": 127}, "group": "control_change"}, {"time": 2303, "annotation": {"number": 64, "value": 0}, "group": "control_change"}, {"time": 2310, "annotation": {"number": 64, "value": 127}, "group": "control_change"}, {"time": 2327, "annotation": {"number": 64, "value": 0}, "group": "control_change"}, {"time": 2355, "annotation": {"number": 64, "value": 127}, "group": "control_change"}, {"time": 2400, "annotation": {"number": 64, "value": 0}, "group": "control_change"}, {"time": 2403, "annotation": {"number": 64, "value": 127}, "group": "control_change"}, {"time": 2424, "annotation": {"number": 64, "value": 0}, "group": "control_change"}, {"time": 2427, "annotation": {"number": 64, "value": 127}, "group": "control_change"}, {"time": 2448, "annotation": {"number": 64, "value": 0}, "group": "control_change"}, {"time": 2451, "annotation": {"number": 64, "value": 127}, "group": "control_change"}, {"time": 2472, "annotation": {"number": 64, "value": 0}, "group": "control_change"}, {"time": 2475, "annotation": {"number": 64, "value": 127}, "group": "control_change"}, {"time": 2495, "annotation": {"number": 64, "value": 0}, "group": "control_change"}, {"time": 2499, "annotation": {"number": 64, "value": 127}, "group": "control_change"}, {"time": 2521, "annotation": {"number": 64, "value": 0}, "group": "control_change"}, {"time": 2523, "annotation": {"number": 64, "value": 127}, "group": "control_change"}, {"time": 2544, "annotation": {"number": 64, "value": 0}, "group": "control_change"}, {"time": 2547, "annotation": {"number": 64, "value": 127}, "group": "control_change"}, {"time": 2567, "annotation": {"number": 64, "value": 0}, "group": "control_change"}, {"time": 2574, "annotation": {"number": 64, "value": 127}, "group": "control_change"}, {"time": 2592, "annotation": {"number": 64, "value": 0}, "group": "control_change"}, {"time": 2619, "annotation": {"number": 64, "value": 127}, "group": "control_change"}, {"time": 2639, "annotation": {"number": 64, "value": 0}, "group": "control_change"}, {"time": 2644, "annotation": {"number": 64, "value": 127}, "group": "control_change"}, {"time": 2659, "annotation": {"number": 64, "value": 0}, "group": "control_change"}, {"time": 2660, "annotation": {"number": 64, "value": 127}, "group": "control_change"}, {"time": 2660, "annotation": {"number": 64, "value": 0}, "group": "control_change"}, {"time": 2667, "annotation": {"number": 64, "value": 127}, "group": "control_change"}, {"time": 2685, "annotation": {"number": 64, "value": 0}, "group": "control_change"}, {"time": 2692, "annotation": {"number": 64, "value": 127}, "group": "control_change"}, {"time": 2737, "annotation": {"number": 64, "value": 0}, "group": "control_change"}, {"time": 2739, "annotation": {"number": 64, "value": 127}, "group": "control_change"}, {"time": 2759, "annotation": {"number": 64, "value": 0}, "group": "control_change"}, {"time": 2762, "annotation": {"number": 64, "value": 127}, "group": "control_change"}, {"time": 2784, "annotation": {"number": 64, "value": 0}, "group": "control_change"}, {"time": 2786, "annotation": {"number": 64, "value": 127}, "group": "control_change"}, {"time": 2808, "annotation": {"number": 64, "value": 0}, "group": "control_change"}, {"time": 2810, "annotation": {"number": 64, "value": 127}, "group": "control_change"}, {"time": 2833, "annotation": {"number": 64, "value": 0}, "group": "control_change"}, {"time": 2835, "annotation": {"number": 64, "value": 127}, "group": "control_change"}, {"time": 2837, "annotation": {"number": 64, "value": 0}, "group": "control_change"}, {"time": 2838, "annotation": {"number": 64, "value": 127}, "group": "control_change"}, {"time": 2856, "annotation": {"number": 64, "value": 0}, "group": "control_change"}, {"time": 2858, "annotation": {"number": 64, "value": 127}, "group": "control_change"}, {"time": 2875, "annotation": {"number": 64, "value": 0}, "group": "control_change"}, {"time": 2875, "annotation": {"number": 64, "value": 127}, "group": "control_change"}, {"time": 2880, "annotation": {"number": 64, "value": 0}, "group": "control_change"}, {"time": 2882, "annotation": {"number": 64, "value": 127}, "group": "control_change"}, {"time": 2904, "annotation": {"number": 64, "value": 0}, "group": "control_change"}, {"time": 2906, "annotation": {"number": 64, "value": 127}, "group": "control_change"}, {"time": 2917, "annotation": {"number": 64, "value": 0}, "group": "control_change"}, {"time": 2919, "annotation": {"number": 64, "value": 127}, "group": "control_change"}, {"time": 2927, "annotation": {"number": 64, "value": 0}, "group": "control_change"}, {"time": 2931, "annotation": {"number": 64, "value": 127}, "group": "control_change"}, {"time": 2952, "annotation": {"number": 64, "value": 0}, "group": "control_change"}, {"time": 2955, "annotation": {"number": 64, "value": 127}, "group": "control_change"}, {"time": 2976, "annotation": {"number": 64, "value": 0}, "group": "control_change"}, {"time": 2979, "annotation": {"number": 64, "value": 127}, "group": "control_change"}, {"time": 3001, "annotation": {"number": 64, "value": 0}, "group": "control_change"}, {"time": 3003, "annotation": {"number": 64, "value": 127}, "group": "control_change"}, {"time": 3024, "annotation": {"number": 64, "value": 0}, "group": "control_change"}, {"time": 3027, "annotation": {"number": 64, "value": 127}, "group": "control_change"}, {"time": 3047, "annotation": {"number": 64, "value": 0}, "group": "control_change"}, {"time": 3050, "annotation": {"number": 64, "value": 127}, "group": "control_change"}, {"time": 3053, "annotation": {"number": 64, "value": 0}, "group": "control_change"}, {"time": 3055, "annotation": {"number": 64, "value": 127}, "group": "control_change"}, {"time": 3061, "annotation": {"number": 64, "value": 0}, "group": "control_change"}, {"time": 3062, "annotation": {"number": 64, "value": 127}, "group": "control_change"}, {"time": 3073, "annotation": {"number": 64, "value": 0}, "group": "control_change"}, {"time": 3076, "annotation": {"number": 64, "value": 127}, "group": "control_change"}, {"time": 3077, "annotation": {"number": 64, "value": 0}, "group": "control_change"}, {"time": 3079, "annotation": {"number": 64, "value": 127}, "group": "control_change"}, {"time": 3086, "annotation": {"number": 64, "value": 0}, "group": "control_change"}, {"time": 3086, "annotation": {"number": 64, "value": 127}, "group": "control_change"}, {"time": 3095, "annotation": {"number": 64, "value": 0}, "group": "control_change"}, {"time": 3097, "annotation": {"number": 64, "value": 127}, "group": "control_change"}, {"time": 3120, "annotation": {"number": 64, "value": 0}, "group": "control_change"}, {"time": 3122, "annotation": {"number": 64, "value": 127}, "group": "control_change"}, {"time": 3144, "annotation": {"number": 64, "value": 0}, "group": "control_change"}, {"time": 3146, "annotation": {"number": 64, "value": 127}, "group": "control_change"}, {"time": 3167, "annotation": {"number": 64, "value": 0}, "group": "control_change"}, {"time": 3171, "annotation": {"number": 64, "value": 127}, "group": "control_change"}, {"time": 3192, "annotation": {"number": 64, "value": 0}, "group": "control_change"}, {"time": 3194, "annotation": {"number": 64, "value": 127}, "group": "control_change"}, {"time": 3216, "annotation": {"number": 64, "value": 0}, "group": "control_change"}, {"time": 3218, "annotation": {"number": 64, "value": 127}, "group": "control_change"}, {"time": 3239, "annotation": {"number": 64, "value": 0}, "group": "control_change"}, {"time": 3242, "annotation": {"number": 64, "value": 127}, "group": "control_change"}, {"time": 3264, "annotation": {"number": 64, "value": 0}, "group": "control_change"}, {"time": 3267, "annotation": {"number": 64, "value": 127}, "group": "control_change"}, {"time": 3288, "annotation": {"number": 64, "value": 0}, "group": "control_change"}, {"time": 3291, "annotation": {"number": 64, "value": 127}, "group": "control_change"}, {"time": 3312, "annotation": {"number": 64, "value": 0}, "group": "control_change"}, {"time": 3315, "annotation": {"number": 64, "value": 127}, "group": "control_change"}, {"time": 3335, "annotation": {"number": 64, "value": 0}, "group": "control_change"}, {"time": 3338, "annotation": {"number": 64, "value": 127}, "group": "control_change"}, {"time": 3361, "annotation": {"number": 64, "value": 0}, "group": "control_change"}, {"time": 3363, "annotation": {"number": 64, "value": 127}, "group": "control_change"}, {"time": 3384, "annotation": {"number": 64, "value": 0}, "group": "control_change"}, {"time": 3387, "annotation": {"number": 64, "value": 127}, "group": "control_change"}, {"time": 3408, "annotation": {"number": 64, "value": 0}, "group": "control_change"}, {"time": 3411, "annotation": {"number": 64, "value": 127}, "group": "control_change"}, {"time": 3414, "annotation": {"number": 64, "value": 0}, "group": "control_change"}, {"time": 3415, "annotation": {"number": 64, "value": 127}, "group": "control_change"}, {"time": 3417, "annotation": {"number": 64, "value": 0}, "group": "control_change"}, {"time": 3419, "annotation": {"number": 64, "value": 127}, "group": "control_change"}, {"time": 3432, "annotation": {"number": 64, "value": 0}, "group": "control_change"}, {"time": 3435, "annotation": {"number": 64, "value": 127}, "group": "control_change"}, {"time": 3456, "annotation": {"number": 64, "value": 0}, "group": "control_change"}, {"time": 3458, "annotation": {"number": 64, "value": 127}, "group": "control_change"}, {"time": 3468, "annotation": {"number": 64, "value": 0}, "group": "control_change"}, {"time": 3470, "annotation": {"number": 64, "value": 127}, "group": "control_change"}, {"time": 3480, "annotation": {"number": 64, "value": 0}, "group": "control_change"}, {"time": 3483, "annotation": {"number": 64, "value": 127}, "group": "control_change"}, {"time": 3504, "annotation": {"number": 64, "value": 0}, "group": "control_change"}, {"time": 3507, "annotation": {"number": 64, "value": 127}, "group": "control_change"}, {"time": 3527, "annotation": {"number": 64, "value": 0}, "group": "control_change"}, {"time": 3530, "annotation": {"number": 64, "value": 127}, "group": "control_change"}, {"time": 3552, "annotation": {"number": 64, "value": 0}, "group": "control_change"}, {"time": 3554, "annotation": {"number": 64, "value": 127}, "group": "control_change"}, {"time": 3576, "annotation": {"number": 64, "value": 0}, "group": "control_change"}, {"time": 3578, "annotation": {"number": 64, "value": 127}, "group": "control_change"}, {"time": 3601, "annotation": {"number": 64, "value": 0}, "group": "control_change"}, {"time": 3603, "annotation": {"number": 64, "value": 127}, "group": "control_change"}, {"time": 3605, "annotation": {"number": 64, "value": 0}, "group": "control_change"}, {"time": 3606, "annotation": {"number": 64, "value": 127}, "group": "control_change"}, {"time": 3624, "annotation": {"number": 64, "value": 0}, "group": "control_change"}, {"time": 3626, "annotation": {"number": 64, "value": 127}, "group": "control_change"}, {"time": 3643, "annotation": {"number": 64, "value": 0}, "group": "control_change"}, {"time": 3643, "annotation": {"number": 64, "value": 127}, "group": "control_change"}, {"time": 3648, "annotation": {"number": 64, "value": 0}, "group": "control_change"}, {"time": 3650, "annotation": {"number": 64, "value": 127}, "group": "control_change"}, {"time": 3672, "annotation": {"number": 64, "value": 0}, "group": "control_change"}, {"time": 3674, "annotation": {"number": 64, "value": 127}, "group": "control_change"}, {"time": 3685, "annotation": {"number": 64, "value": 0}, "group": "control_change"}, {"time": 3687, "annotation": {"number": 64, "value": 127}, "group": "control_change"}, {"time": 3695, "annotation": {"number": 64, "value": 0}, "group": "control_change"}, {"time": 3699, "annotation": {"number": 64, "value": 127}, "group": "control_change"}, {"time": 3720, "annotation": {"number": 64, "value": 0}, "group": "control_change"}, {"time": 3723, "annotation": {"number": 64, "value": 127}, "group": "control_change"}, {"time": 3744, "annotation": {"number": 64, "value": 0}, "group": "control_change"}, {"time": 3747, "annotation": {"number": 64, "value": 127}, "group": "control_change"}, {"time": 3769, "annotation": {"number": 64, "value": 0}, "group": "control_change"}, {"time": 3771, "annotation": {"number": 64, "value": 127}, "group": "control_change"}, {"time": 3792, "annotation": {"number": 64, "value": 0}, "group": "control_change"}, {"time": 3795, "annotation": {"number": 64, "value": 127}, "group": "control_change"}, {"time": 3815, "annotation": {"number": 64, "value": 0}, "group": "control_change"}, {"time": 3818, "annotation": {"number": 64, "value": 127}, "group": "control_change"}, {"time": 3821, "annotation": {"number": 64, "value": 0}, "group": "control_change"}, {"time": 3823, "annotation": {"number": 64, "value": 127}, "group": "control_change"}, {"time": 3829, "annotation": {"number": 64, "value": 0}, "group": "control_change"}, {"time": 3830, "annotation": {"number": 64, "value": 127}, "group": "control_change"}, {"time": 3841, "annotation": {"number": 64, "value": 0}, "group": "control_change"}, {"time": 3844, "annotation": {"number": 64, "value": 127}, "group": "control_change"}, {"time": 3845, "annotation": {"number": 64, "value": 0}, "group": "control_change"}, {"time": 3847, "annotation": {"number": 64, "value": 127}, "group": "control_change"}, {"time": 3854, "annotation": {"number": 64, "value": 0}, "group": "control_change"}, {"time": 3854, "annotation": {"number": 64, "value": 127}, "group": "control_change"}, {"time": 3863, "annotation": {"number": 64, "value": 0}, "group": "control_change"}, {"time": 3865, "annotation": {"number": 64, "value": 127}, "group": "control_change"}, {"time": 3888, "annotation": {"number": 64, "value": 0}, "group": "control_change"}, {"time": 3890, "annotation": {"number": 64, "value": 127}, "group": "control_change"}, {"time": 3912, "annotation": {"number": 64, "value": 0}, "group": "control_change"}, {"time": 3914, "annotation": {"number": 64, "value": 127}, "group": "control_change"}, {"time": 3935, "annotation": {"number": 64, "value": 0}, "group": "control_change"}, {"time": 3939, "annotation": {"number": 64, "value": 127}, "group": "control_change"}, {"time": 3960, "annotation": {"number": 64, "value": 0}, "group": "control_change"}, {"time": 3962, "annotation": {"number": 64, "value": 127}, "group": "control_change"}, {"time": 3984, "annotation": {"number": 64, "value": 0}, "group": "control_change"}, {"time": 3986, "annotation": {"number": 64, "value": 127}, "group": "control_change"}, {"time": 4007, "annotation": {"number": 64, "value": 0}, "group": "control_change"}, {"time": 4010, "annotation": {"number": 64, "value": 127}, "group": "control_change"}, {"time": 4032, "annotation": {"number": 64, "value": 0}, "group": "control_change"}, {"time": 4035, "annotation": {"number": 64, "value": 127}, "group": "control_change"}, {"time": 4056, "annotation": {"number": 64, "value": 0}, "group": "control_change"}, {"time": 4059, "annotation": {"number": 64, "value": 127}, "group": "control_change"}, {"time": 4080, "annotation": {"number": 64, "value": 0}, "group": "control_change"}, {"time": 4083, "annotation": {"number": 64, "value": 127}, "group": "control_change"}, {"time": 4103, "annotation": {"number": 64, "value": 0}, "group": "control_change"}, {"time": 4106, "annotation": {"number": 64, "value": 127}, "group": "control_change"}, {"time": 4129, "annotation": {"number": 64, "value": 0}, "group": "control_change"}, {"time": 4131, "annotation": {"number": 64, "value": 127}, "group": "control_change"}, {"time": 4152, "annotation": {"number": 64, "value": 0}, "group": "control_change"}, {"time": 4155, "annotation": {"number": 64, "value": 127}, "group": "control_change"}, {"time": 4176, "annotation": {"number": 64, "value": 0}, "group": "control_change"}, {"time": 4179, "annotation": {"number": 64, "value": 127}, "group": "control_change"}, {"time": 4182, "annotation": {"number": 64, "value": 0}, "group": "control_change"}, {"time": 4183, "annotation": {"number": 64, "value": 127}, "group": "control_change"}, {"time": 4185, "annotation": {"number": 64, "value": 0}, "group": "control_change"}, {"time": 4187, "annotation": {"number": 64, "value": 127}, "group": "control_change"}, {"time": 4200, "annotation": {"number": 64, "value": 0}, "group": "control_change"}, {"time": 4203, "annotation": {"number": 64, "value": 127}, "group": "control_change"}, {"time": 4224, "annotation": {"number": 64, "value": 0}, "group": "control_change"}, {"time": 4226, "annotation": {"number": 64, "value": 127}, "group": "control_change"}, {"time": 4236, "annotation": {"number": 64, "value": 0}, "group": "control_change"}, {"time": 4238, "annotation": {"number": 64, "value": 127}, "group": "control_change"}, {"time": 4248, "annotation": {"number": 64, "value": 0}, "group": "control_change"}, {"time": 4251, "annotation": {"number": 64, "value": 127}, "group": "control_change"}, {"time": 4272, "annotation": {"number": 64, "value": 0}, "group": "control_change"}, {"time": 4275, "annotation": {"number": 64, "value": 127}, "group": "control_change"}, {"time": 4297, "annotation": {"number": 64, "value": 0}, "group": "control_change"}, {"time": 4300, "annotation": {"number": 64, "value": 127}, "group": "control_change"}, {"time": 4322, "annotation": {"number": 64, "value": 0}, "group": "control_change"}, {"time": 4367, "annotation": {"number": 64, "value": 127}, "group": "control_change"}, {"time": 4415, "annotation": {"number": 64, "value": 0}, "group": "control_change"}, {"time": 4421, "annotation": {"number": 64, "value": 127}, "group": "control_change"}, {"time": 4462, "annotation": {"number": 64, "value": 0}, "group": "control_change"}, {"time": 4469, "annotation": {"number": 64, "value": 127}, "group": "control_change"}, {"time": 4630, "annotation": {"number": 64, "value": 0}, "group": "control_change"}, {"time": 4631, "annotation": {"number": 64, "value": 127}, "group": "control_change"}, {"time": 4634, "annotation": {"number": 64, "value": 0}, "group": "control_change"}, {"time": 4635, "annotation": {"number": 64, "value": 127}, "group": "control_change"}, {"time": 4638, "annotation": {"number": 64, "value": 0}, "group": "control_change"}, {"time": 4638, "annotation": {"number": 64, "value": 127}, "group": "control_change"}, {"time": 4640, "annotation": {"number": 64, "value": 0}, "group": "control_change"}]}]}