{"metadata": {"schema_version": "0.2", "title": "None", "source_filename": "450.mid", "source_format": "midi"}, "resolution": 12, "tempos": [{"time": 0, "qpm": 73.00007178340392}], "time_signatures": [{"time": 0, "numerator": 1, "denominator": 4}], "tracks": [{"program": 4, "is_drum": false, "name": "MELODY", "notes": [{"time": 436, "pitch": 69, "duration": 5, "velocity": 108}, {"time": 442, "pitch": 71, "duration": 7, "velocity": 88}, {"time": 448, "pitch": 66, "duration": 16, "velocity": 103}, {"time": 466, "pitch": 69, "duration": 6, "velocity": 108}, {"time": 472, "pitch": 71, "duration": 5, "velocity": 93}, {"time": 478, "pitch": 66, "duration": 5, "velocity": 93}, {"time": 484, "pitch": 64, "duration": 5, "velocity": 93}, {"time": 490, "pitch": 66, "duration": 6, "velocity": 93}, {"time": 496, "pitch": 62, "duration": 15, "velocity": 88}, {"time": 532, "pitch": 62, "duration": 6, "velocity": 78}, {"time": 538, "pitch": 64, "duration": 5, "velocity": 73}, {"time": 544, "pitch": 66, "duration": 8, "velocity": 108}, {"time": 562, "pitch": 74, "duration": 6, "velocity": 108}, {"time": 568, "pitch": 71, "duration": 6, "velocity": 103}, {"time": 574, "pitch": 69, "duration": 4, "velocity": 103}, {"time": 580, "pitch": 69, "duration": 3, "velocity": 108}, {"time": 586, "pitch": 66, "duration": 6, "velocity": 108}, {"time": 592, "pitch": 64, "duration": 21, "velocity": 108}, {"time": 628, "pitch": 64, "duration": 6, "velocity": 93}, {"time": 634, "pitch": 66, "duration": 6, "velocity": 98}, {"time": 640, "pitch": 69, "duration": 13, "velocity": 98}, {"time": 658, "pitch": 66, "duration": 5, "velocity": 98}, {"time": 664, "pitch": 69, "duration": 15, "velocity": 98}, {"time": 688, "pitch": 74, "duration": 5, "velocity": 108}, {"time": 694, "pitch": 76, "duration": 4, "velocity": 98}, {"time": 700, "pitch": 76, "duration": 5, "velocity": 93}, {"time": 706, "pitch": 73, "duration": 5, "velocity": 98}, {"time": 712, "pitch": 71, "duration": 11, "velocity": 108}, {"time": 724, "pitch": 71, "duration": 5, "velocity": 98}, {"time": 730, "pitch": 74, "duration": 5, "velocity": 98}, {"time": 736, "pitch": 76, "duration": 4, "velocity": 98}, {"time": 742, "pitch": 76, "duration": 9, "velocity": 108}, {"time": 754, "pitch": 73, "duration": 4, "velocity": 108}, {"time": 760, "pitch": 71, "duration": 6, "velocity": 98}, {"time": 766, "pitch": 73, "duration": 10, "velocity": 103}, {"time": 778, "pitch": 71, "duration": 5, "velocity": 108}, {"time": 784, "pitch": 69, "duration": 24, "velocity": 80}, {"time": 820, "pitch": 69, "duration": 5, "velocity": 108}, {"time": 826, "pitch": 71, "duration": 7, "velocity": 88}, {"time": 832, "pitch": 66, "duration": 16, "velocity": 103}, {"time": 850, "pitch": 69, "duration": 6, "velocity": 108}, {"time": 856, "pitch": 71, "duration": 5, "velocity": 93}, {"time": 862, "pitch": 66, "duration": 5, "velocity": 93}, {"time": 868, "pitch": 64, "duration": 5, "velocity": 93}, {"time": 874, "pitch": 66, "duration": 6, "velocity": 93}, {"time": 880, "pitch": 62, "duration": 30, "velocity": 88}, {"time": 916, "pitch": 62, "duration": 6, "velocity": 78}, {"time": 922, "pitch": 64, "duration": 5, "velocity": 73}, {"time": 928, "pitch": 66, "duration": 8, "velocity": 108}, {"time": 946, "pitch": 74, "duration": 6, "velocity": 108}, {"time": 952, "pitch": 71, "duration": 6, "velocity": 103}, {"time": 958, "pitch": 69, "duration": 4, "velocity": 103}, {"time": 964, "pitch": 69, "duration": 3, "velocity": 108}, {"time": 970, "pitch": 66, "duration": 6, "velocity": 108}, {"time": 976, "pitch": 64, "duration": 29, "velocity": 108}, {"time": 1012, "pitch": 64, "duration": 6, "velocity": 93}, {"time": 1018, "pitch": 66, "duration": 6, "velocity": 98}, {"time": 1024, "pitch": 69, "duration": 13, "velocity": 98}, {"time": 1042, "pitch": 66, "duration": 5, "velocity": 98}, {"time": 1048, "pitch": 69, "duration": 24, "velocity": 98}, {"time": 1072, "pitch": 74, "duration": 5, "velocity": 108}, {"time": 1078, "pitch": 76, "duration": 4, "velocity": 98}, {"time": 1084, "pitch": 76, "duration": 5, "velocity": 93}, {"time": 1090, "pitch": 73, "duration": 5, "velocity": 98}, {"time": 1096, "pitch": 71, "duration": 11, "velocity": 108}, {"time": 1108, "pitch": 71, "duration": 5, "velocity": 98}, {"time": 1114, "pitch": 74, "duration": 5, "velocity": 98}, {"time": 1120, "pitch": 76, "duration": 4, "velocity": 98}, {"time": 1126, "pitch": 76, "duration": 3, "velocity": 108}, {"time": 1132, "pitch": 76, "duration": 3, "velocity": 103}, {"time": 1138, "pitch": 73, "duration": 4, "velocity": 108}, {"time": 1144, "pitch": 71, "duration": 6, "velocity": 98}, {"time": 1150, "pitch": 71, "duration": 4, "velocity": 93}, {"time": 1153, "pitch": 73, "duration": 6, "velocity": 83}, {"time": 1162, "pitch": 71, "duration": 5, "velocity": 108}, {"time": 1168, "pitch": 74, "duration": 24, "velocity": 80}, {"time": 1204, "pitch": 74, "duration": 4, "velocity": 98}, {"time": 1210, "pitch": 76, "duration": 4, "velocity": 108}, {"time": 1216, "pitch": 78, "duration": 12, "velocity": 108}, {"time": 1234, "pitch": 76, "duration": 5, "velocity": 108}, {"time": 1240, "pitch": 78, "duration": 6, "velocity": 108}, {"time": 1246, "pitch": 76, "duration": 5, "velocity": 98}, {"time": 1252, "pitch": 66, "duration": 6, "velocity": 88}, {"time": 1258, "pitch": 69, "duration": 5, "velocity": 103}, {"time": 1264, "pitch": 71, "duration": 8, "velocity": 108}, {"time": 1300, "pitch": 76, "duration": 6, "velocity": 108}, {"time": 1306, "pitch": 74, "duration": 4, "velocity": 108}, {"time": 1312, "pitch": 76, "duration": 11, "velocity": 108}, {"time": 1330, "pitch": 74, "duration": 4, "velocity": 108}, {"time": 1336, "pitch": 66, "duration": 5, "velocity": 108}, {"time": 1342, "pitch": 66, "duration": 5, "velocity": 108}, {"time": 1348, "pitch": 73, "duration": 4, "velocity": 108}, {"time": 1354, "pitch": 71, "duration": 5, "velocity": 76}, {"time": 1360, "pitch": 69, "duration": 36, "velocity": 108}, {"time": 1396, "pitch": 62, "duration": 5, "velocity": 108}, {"time": 1402, "pitch": 64, "duration": 4, "velocity": 108}, {"time": 1408, "pitch": 66, "duration": 13, "velocity": 108}, {"time": 1426, "pitch": 69, "duration": 4, "velocity": 103}, {"time": 1432, "pitch": 69, "duration": 5, "velocity": 108}, {"time": 1444, "pitch": 69, "duration": 4, "velocity": 108}, {"time": 1450, "pitch": 66, "duration": 4, "velocity": 108}, {"time": 1456, "pitch": 71, "duration": 6, "velocity": 108}, {"time": 1462, "pitch": 74, "duration": 9, "velocity": 108}, {"time": 1474, "pitch": 73, "duration": 3, "velocity": 108}, {"time": 1480, "pitch": 71, "duration": 5, "velocity": 108}, {"time": 1492, "pitch": 69, "duration": 5, "velocity": 98}, {"time": 1498, "pitch": 71, "duration": 5, "velocity": 108}, {"time": 1504, "pitch": 74, "duration": 11, "velocity": 108}, {"time": 1522, "pitch": 74, "duration": 4, "velocity": 108}, {"time": 1528, "pitch": 74, "duration": 5, "velocity": 108}, {"time": 1534, "pitch": 71, "duration": 4, "velocity": 98}, {"time": 1540, "pitch": 78, "duration": 3, "velocity": 108}, {"time": 1543, "pitch": 76, "duration": 3, "velocity": 108}, {"time": 1546, "pitch": 74, "duration": 5, "velocity": 108}, {"time": 1552, "pitch": 76, "duration": 23, "velocity": 108}, {"time": 1588, "pitch": 74, "duration": 4, "velocity": 98}, {"time": 1594, "pitch": 76, "duration": 4, "velocity": 108}, {"time": 1600, "pitch": 78, "duration": 12, "velocity": 108}, {"time": 1618, "pitch": 76, "duration": 5, "velocity": 108}, {"time": 1624, "pitch": 78, "duration": 6, "velocity": 108}, {"time": 1630, "pitch": 76, "duration": 5, "velocity": 98}, {"time": 1636, "pitch": 66, "duration": 6, "velocity": 88}, {"time": 1642, "pitch": 69, "duration": 5, "velocity": 103}, {"time": 1648, "pitch": 71, "duration": 29, "velocity": 108}, {"time": 1684, "pitch": 76, "duration": 6, "velocity": 108}, {"time": 1690, "pitch": 74, "duration": 4, "velocity": 108}, {"time": 1696, "pitch": 76, "duration": 11, "velocity": 108}, {"time": 1714, "pitch": 74, "duration": 4, "velocity": 108}, {"time": 1720, "pitch": 66, "duration": 5, "velocity": 108}, {"time": 1726, "pitch": 66, "duration": 5, "velocity": 108}, {"time": 1732, "pitch": 73, "duration": 4, "velocity": 108}, {"time": 1738, "pitch": 71, "duration": 5, "velocity": 76}, {"time": 1744, "pitch": 69, "duration": 36, "velocity": 108}, {"time": 1780, "pitch": 62, "duration": 5, "velocity": 108}, {"time": 1786, "pitch": 64, "duration": 4, "velocity": 108}, {"time": 1792, "pitch": 66, "duration": 13, "velocity": 108}, {"time": 1810, "pitch": 69, "duration": 4, "velocity": 103}, {"time": 1816, "pitch": 69, "duration": 5, "velocity": 108}, {"time": 1828, "pitch": 69, "duration": 4, "velocity": 108}, {"time": 1834, "pitch": 66, "duration": 4, "velocity": 108}, {"time": 1840, "pitch": 71, "duration": 6, "velocity": 108}, {"time": 1846, "pitch": 74, "duration": 9, "velocity": 108}, {"time": 1858, "pitch": 73, "duration": 3, "velocity": 108}, {"time": 1864, "pitch": 71, "duration": 5, "velocity": 108}, {"time": 1876, "pitch": 69, "duration": 5, "velocity": 98}, {"time": 1882, "pitch": 71, "duration": 5, "velocity": 108}, {"time": 1888, "pitch": 74, "duration": 11, "velocity": 108}, {"time": 1900, "pitch": 74, "duration": 4, "velocity": 103}, {"time": 1906, "pitch": 78, "duration": 3, "velocity": 108}, {"time": 1912, "pitch": 76, "duration": 5, "velocity": 103}, {"time": 1918, "pitch": 74, "duration": 8, "velocity": 108}, {"time": 1930, "pitch": 71, "duration": 5, "velocity": 93}, {"time": 1936, "pitch": 74, "duration": 24, "velocity": 108}, {"time": 2356, "pitch": 69, "duration": 5, "velocity": 108}, {"time": 2362, "pitch": 71, "duration": 7, "velocity": 88}, {"time": 2368, "pitch": 66, "duration": 16, "velocity": 103}, {"time": 2386, "pitch": 69, "duration": 6, "velocity": 108}, {"time": 2392, "pitch": 71, "duration": 5, "velocity": 93}, {"time": 2398, "pitch": 66, "duration": 5, "velocity": 93}, {"time": 2404, "pitch": 64, "duration": 5, "velocity": 93}, {"time": 2410, "pitch": 66, "duration": 6, "velocity": 93}, {"time": 2416, "pitch": 62, "duration": 30, "velocity": 88}, {"time": 2452, "pitch": 62, "duration": 6, "velocity": 78}, {"time": 2458, "pitch": 64, "duration": 5, "velocity": 73}, {"time": 2464, "pitch": 66, "duration": 8, "velocity": 108}, {"time": 2482, "pitch": 74, "duration": 6, "velocity": 108}, {"time": 2488, "pitch": 71, "duration": 6, "velocity": 103}, {"time": 2494, "pitch": 69, "duration": 4, "velocity": 103}, {"time": 2500, "pitch": 69, "duration": 3, "velocity": 108}, {"time": 2506, "pitch": 66, "duration": 6, "velocity": 108}, {"time": 2512, "pitch": 64, "duration": 29, "velocity": 108}, {"time": 2548, "pitch": 64, "duration": 6, "velocity": 93}, {"time": 2554, "pitch": 66, "duration": 6, "velocity": 98}, {"time": 2560, "pitch": 69, "duration": 13, "velocity": 98}, {"time": 2578, "pitch": 66, "duration": 5, "velocity": 98}, {"time": 2584, "pitch": 69, "duration": 24, "velocity": 98}, {"time": 2608, "pitch": 74, "duration": 5, "velocity": 108}, {"time": 2614, "pitch": 76, "duration": 4, "velocity": 98}, {"time": 2620, "pitch": 76, "duration": 5, "velocity": 93}, {"time": 2626, "pitch": 73, "duration": 5, "velocity": 98}, {"time": 2632, "pitch": 71, "duration": 11, "velocity": 108}, {"time": 2644, "pitch": 71, "duration": 5, "velocity": 98}, {"time": 2650, "pitch": 74, "duration": 5, "velocity": 98}, {"time": 2656, "pitch": 76, "duration": 4, "velocity": 98}, {"time": 2662, "pitch": 76, "duration": 3, "velocity": 108}, {"time": 2668, "pitch": 76, "duration": 3, "velocity": 103}, {"time": 2674, "pitch": 73, "duration": 4, "velocity": 108}, {"time": 2680, "pitch": 71, "duration": 6, "velocity": 98}, {"time": 2686, "pitch": 71, "duration": 4, "velocity": 93}, {"time": 2689, "pitch": 73, "duration": 6, "velocity": 83}, {"time": 2698, "pitch": 71, "duration": 5, "velocity": 108}, {"time": 2704, "pitch": 74, "duration": 24, "velocity": 80}, {"time": 2740, "pitch": 74, "duration": 4, "velocity": 98}, {"time": 2746, "pitch": 76, "duration": 4, "velocity": 108}, {"time": 2752, "pitch": 78, "duration": 12, "velocity": 108}, {"time": 2770, "pitch": 76, "duration": 5, "velocity": 108}, {"time": 2776, "pitch": 78, "duration": 6, "velocity": 108}, {"time": 2782, "pitch": 76, "duration": 5, "velocity": 98}, {"time": 2788, "pitch": 66, "duration": 6, "velocity": 88}, {"time": 2794, "pitch": 69, "duration": 5, "velocity": 103}, {"time": 2800, "pitch": 71, "duration": 8, "velocity": 108}, {"time": 2836, "pitch": 76, "duration": 6, "velocity": 108}, {"time": 2842, "pitch": 74, "duration": 4, "velocity": 108}, {"time": 2848, "pitch": 76, "duration": 11, "velocity": 108}, {"time": 2866, "pitch": 74, "duration": 4, "velocity": 108}, {"time": 2872, "pitch": 66, "duration": 5, "velocity": 108}, {"time": 2878, "pitch": 66, "duration": 5, "velocity": 108}, {"time": 2884, "pitch": 73, "duration": 4, "velocity": 108}, {"time": 2890, "pitch": 71, "duration": 5, "velocity": 76}, {"time": 2896, "pitch": 69, "duration": 36, "velocity": 108}, {"time": 2932, "pitch": 62, "duration": 5, "velocity": 108}, {"time": 2938, "pitch": 64, "duration": 4, "velocity": 108}, {"time": 2944, "pitch": 66, "duration": 13, "velocity": 108}, {"time": 2962, "pitch": 69, "duration": 4, "velocity": 103}, {"time": 2968, "pitch": 69, "duration": 5, "velocity": 108}, {"time": 2980, "pitch": 69, "duration": 4, "velocity": 108}, {"time": 2986, "pitch": 66, "duration": 4, "velocity": 108}, {"time": 2992, "pitch": 71, "duration": 6, "velocity": 108}, {"time": 2998, "pitch": 74, "duration": 9, "velocity": 108}, {"time": 3010, "pitch": 73, "duration": 3, "velocity": 108}, {"time": 3016, "pitch": 71, "duration": 5, "velocity": 108}, {"time": 3028, "pitch": 69, "duration": 5, "velocity": 98}, {"time": 3034, "pitch": 71, "duration": 5, "velocity": 108}, {"time": 3040, "pitch": 74, "duration": 11, "velocity": 108}, {"time": 3058, "pitch": 74, "duration": 4, "velocity": 108}, {"time": 3064, "pitch": 74, "duration": 5, "velocity": 108}, {"time": 3070, "pitch": 71, "duration": 4, "velocity": 98}, {"time": 3076, "pitch": 78, "duration": 3, "velocity": 108}, {"time": 3079, "pitch": 76, "duration": 3, "velocity": 108}, {"time": 3082, "pitch": 74, "duration": 5, "velocity": 108}, {"time": 3088, "pitch": 76, "duration": 23, "velocity": 108}, {"time": 3124, "pitch": 74, "duration": 4, "velocity": 98}, {"time": 3130, "pitch": 76, "duration": 4, "velocity": 108}, {"time": 3136, "pitch": 78, "duration": 12, "velocity": 108}, {"time": 3154, "pitch": 76, "duration": 5, "velocity": 108}, {"time": 3160, "pitch": 78, "duration": 6, "velocity": 108}, {"time": 3166, "pitch": 76, "duration": 5, "velocity": 98}, {"time": 3172, "pitch": 66, "duration": 6, "velocity": 88}, {"time": 3178, "pitch": 69, "duration": 5, "velocity": 103}, {"time": 3184, "pitch": 71, "duration": 29, "velocity": 108}, {"time": 3220, "pitch": 76, "duration": 6, "velocity": 108}, {"time": 3226, "pitch": 74, "duration": 4, "velocity": 108}, {"time": 3232, "pitch": 76, "duration": 11, "velocity": 108}, {"time": 3250, "pitch": 74, "duration": 4, "velocity": 108}, {"time": 3256, "pitch": 66, "duration": 5, "velocity": 108}, {"time": 3262, "pitch": 66, "duration": 5, "velocity": 108}, {"time": 3268, "pitch": 73, "duration": 4, "velocity": 108}, {"time": 3274, "pitch": 71, "duration": 5, "velocity": 76}, {"time": 3280, "pitch": 69, "duration": 36, "velocity": 108}, {"time": 3316, "pitch": 62, "duration": 5, "velocity": 108}, {"time": 3322, "pitch": 64, "duration": 4, "velocity": 108}, {"time": 3328, "pitch": 66, "duration": 13, "velocity": 108}, {"time": 3346, "pitch": 69, "duration": 4, "velocity": 103}, {"time": 3352, "pitch": 69, "duration": 5, "velocity": 108}, {"time": 3364, "pitch": 69, "duration": 4, "velocity": 108}, {"time": 3370, "pitch": 66, "duration": 4, "velocity": 108}, {"time": 3376, "pitch": 71, "duration": 6, "velocity": 108}, {"time": 3382, "pitch": 74, "duration": 9, "velocity": 108}, {"time": 3394, "pitch": 73, "duration": 3, "velocity": 108}, {"time": 3400, "pitch": 71, "duration": 5, "velocity": 108}, {"time": 3412, "pitch": 69, "duration": 5, "velocity": 98}, {"time": 3418, "pitch": 71, "duration": 5, "velocity": 108}, {"time": 3424, "pitch": 74, "duration": 11, "velocity": 108}, {"time": 3436, "pitch": 74, "duration": 4, "velocity": 103}, {"time": 3442, "pitch": 78, "duration": 3, "velocity": 108}, {"time": 3448, "pitch": 76, "duration": 5, "velocity": 103}, {"time": 3454, "pitch": 74, "duration": 8, "velocity": 108}, {"time": 3466, "pitch": 71, "duration": 5, "velocity": 93}, {"time": 3472, "pitch": 74, "duration": 24, "velocity": 108}, {"time": 3508, "pitch": 69, "duration": 5, "velocity": 98}, {"time": 3514, "pitch": 71, "duration": 5, "velocity": 108}, {"time": 3520, "pitch": 74, "duration": 11, "velocity": 108}, {"time": 3532, "pitch": 74, "duration": 4, "velocity": 103}, {"time": 3538, "pitch": 78, "duration": 3, "velocity": 108}, {"time": 3544, "pitch": 76, "duration": 5, "velocity": 103}, {"time": 3550, "pitch": 74, "duration": 11, "velocity": 108}, {"time": 3559, "pitch": 71, "duration": 35, "velocity": 80}, {"time": 3595, "pitch": 74, "duration": 63, "velocity": 98}]}, {"program": 0, "is_drum": false, "name": "PIANO", "notes": [{"time": 64, "pitch": 38, "duration": 37, "velocity": 89}, {"time": 70, "pitch": 45, "duration": 31, "velocity": 61}, {"time": 76, "pitch": 50, "duration": 15, "velocity": 72}, {"time": 82, "pitch": 57, "duration": 20, "velocity": 63}, {"time": 88, "pitch": 66, "duration": 25, "velocity": 88}, {"time": 94, "pitch": 50, "duration": 8, "velocity": 60}, {"time": 100, "pitch": 62, "duration": 13, "velocity": 93}, {"time": 106, "pitch": 61, "duration": 7, "velocity": 63}, {"time": 112, "pitch": 47, "duration": 39, "velocity": 71}, {"time": 118, "pitch": 54, "duration": 22, "velocity": 67}, {"time": 124, "pitch": 59, "duration": 18, "velocity": 73}, {"time": 130, "pitch": 62, "duration": 8, "velocity": 64}, {"time": 136, "pitch": 66, "duration": 24, "velocity": 127}, {"time": 142, "pitch": 54, "duration": 7, "velocity": 99}, {"time": 148, "pitch": 62, "duration": 14, "velocity": 88}, {"time": 154, "pitch": 59, "duration": 8, "velocity": 75}, {"time": 160, "pitch": 40, "duration": 37, "velocity": 81}, {"time": 166, "pitch": 47, "duration": 31, "velocity": 56}, {"time": 172, "pitch": 52, "duration": 16, "velocity": 78}, {"time": 178, "pitch": 55, "duration": 19, "velocity": 79}, {"time": 184, "pitch": 64, "duration": 25, "velocity": 92}, {"time": 190, "pitch": 52, "duration": 8, "velocity": 71}, {"time": 196, "pitch": 59, "duration": 13, "velocity": 76}, {"time": 202, "pitch": 55, "duration": 6, "velocity": 73}, {"time": 208, "pitch": 45, "duration": 39, "velocity": 81}, {"time": 214, "pitch": 52, "duration": 32, "velocity": 69}, {"time": 220, "pitch": 57, "duration": 21, "velocity": 93}, {"time": 226, "pitch": 61, "duration": 7, "velocity": 93}, {"time": 232, "pitch": 64, "duration": 2, "velocity": 90}, {"time": 238, "pitch": 69, "duration": 6, "velocity": 76}, {"time": 250, "pitch": 69, "duration": 7, "velocity": 95}, {"time": 256, "pitch": 42, "duration": 38, "velocity": 93}, {"time": 262, "pitch": 49, "duration": 32, "velocity": 64}, {"time": 268, "pitch": 54, "duration": 16, "velocity": 92}, {"time": 274, "pitch": 57, "duration": 20, "velocity": 93}, {"time": 280, "pitch": 66, "duration": 24, "velocity": 117}, {"time": 286, "pitch": 54, "duration": 9, "velocity": 90}, {"time": 292, "pitch": 61, "duration": 12, "velocity": 122}, {"time": 298, "pitch": 57, "duration": 6, "velocity": 93}, {"time": 304, "pitch": 47, "duration": 38, "velocity": 89}, {"time": 310, "pitch": 54, "duration": 31, "velocity": 73}, {"time": 316, "pitch": 59, "duration": 16, "velocity": 90}, {"time": 322, "pitch": 62, "duration": 17, "velocity": 95}, {"time": 328, "pitch": 71, "duration": 25, "velocity": 99}, {"time": 334, "pitch": 59, "duration": 6, "velocity": 92}, {"time": 340, "pitch": 66, "duration": 13, "velocity": 107}, {"time": 346, "pitch": 62, "duration": 7, "velocity": 96}, {"time": 352, "pitch": 40, "duration": 18, "velocity": 93}, {"time": 358, "pitch": 47, "duration": 11, "velocity": 47}, {"time": 364, "pitch": 52, "duration": 8, "velocity": 99}, {"time": 370, "pitch": 55, "duration": 7, "velocity": 100}, {"time": 376, "pitch": 45, "duration": 18, "velocity": 96}, {"time": 382, "pitch": 52, "duration": 11, "velocity": 72}, {"time": 388, "pitch": 57, "duration": 4, "velocity": 85}, {"time": 388, "pitch": 64, "duration": 14, "velocity": 97}, {"time": 394, "pitch": 61, "duration": 7, "velocity": 96}, {"time": 400, "pitch": 38, "duration": 47, "velocity": 81}, {"time": 406, "pitch": 45, "duration": 42, "velocity": 59}, {"time": 412, "pitch": 50, "duration": 29, "velocity": 93}, {"time": 418, "pitch": 57, "duration": 30, "velocity": 93}, {"time": 424, "pitch": 62, "duration": 23, "velocity": 88}, {"time": 424, "pitch": 66, "duration": 23, "velocity": 79}, {"time": 448, "pitch": 38, "duration": 34, "velocity": 83}, {"time": 454, "pitch": 45, "duration": 29, "velocity": 49}, {"time": 460, "pitch": 50, "duration": 15, "velocity": 85}, {"time": 466, "pitch": 57, "duration": 18, "velocity": 75}, {"time": 472, "pitch": 66, "duration": 25, "velocity": 97}, {"time": 478, "pitch": 50, "duration": 7, "velocity": 82}, {"time": 484, "pitch": 62, "duration": 13, "velocity": 59}, {"time": 490, "pitch": 57, "duration": 6, "velocity": 69}, {"time": 496, "pitch": 47, "duration": 38, "velocity": 74}, {"time": 502, "pitch": 54, "duration": 22, "velocity": 58}, {"time": 508, "pitch": 59, "duration": 9, "velocity": 83}, {"time": 514, "pitch": 62, "duration": 7, "velocity": 62}, {"time": 520, "pitch": 66, "duration": 24, "velocity": 102}, {"time": 526, "pitch": 54, "duration": 6, "velocity": 73}, {"time": 532, "pitch": 62, "duration": 13, "velocity": 88}, {"time": 538, "pitch": 59, "duration": 7, "velocity": 72}, {"time": 544, "pitch": 43, "duration": 39, "velocity": 82}, {"time": 550, "pitch": 50, "duration": 34, "velocity": 46}, {"time": 556, "pitch": 55, "duration": 16, "velocity": 81}, {"time": 562, "pitch": 59, "duration": 19, "velocity": 76}, {"time": 568, "pitch": 67, "duration": 24, "velocity": 95}, {"time": 574, "pitch": 55, "duration": 4, "velocity": 75}, {"time": 580, "pitch": 62, "duration": 13, "velocity": 77}, {"time": 586, "pitch": 59, "duration": 7, "velocity": 76}, {"time": 592, "pitch": 45, "duration": 38, "velocity": 74}, {"time": 598, "pitch": 52, "duration": 21, "velocity": 61}, {"time": 604, "pitch": 57, "duration": 8, "velocity": 89}, {"time": 610, "pitch": 61, "duration": 6, "velocity": 96}, {"time": 616, "pitch": 64, "duration": 25, "velocity": 99}, {"time": 622, "pitch": 52, "duration": 7, "velocity": 82}, {"time": 628, "pitch": 61, "duration": 13, "velocity": 122}, {"time": 634, "pitch": 59, "duration": 7, "velocity": 70}, {"time": 640, "pitch": 42, "duration": 36, "velocity": 95}, {"time": 646, "pitch": 49, "duration": 30, "velocity": 66}, {"time": 652, "pitch": 54, "duration": 15, "velocity": 89}, {"time": 658, "pitch": 57, "duration": 19, "velocity": 76}, {"time": 664, "pitch": 66, "duration": 24, "velocity": 107}, {"time": 670, "pitch": 54, "duration": 7, "velocity": 78}, {"time": 676, "pitch": 61, "duration": 13, "velocity": 107}, {"time": 682, "pitch": 57, "duration": 6, "velocity": 85}, {"time": 688, "pitch": 47, "duration": 20, "velocity": 82}, {"time": 694, "pitch": 54, "duration": 13, "velocity": 73}, {"time": 700, "pitch": 59, "duration": 7, "velocity": 89}, {"time": 706, "pitch": 62, "duration": 6, "velocity": 99}, {"time": 712, "pitch": 44, "duration": 16, "velocity": 99}, {"time": 718, "pitch": 56, "duration": 8, "velocity": 79}, {"time": 724, "pitch": 59, "duration": 13, "velocity": 88}, {"time": 730, "pitch": 62, "duration": 7, "velocity": 86}, {"time": 736, "pitch": 40, "duration": 37, "velocity": 72}, {"time": 742, "pitch": 47, "duration": 30, "velocity": 65}, {"time": 748, "pitch": 52, "duration": 17, "velocity": 70}, {"time": 754, "pitch": 55, "duration": 19, "velocity": 75}, {"time": 760, "pitch": 64, "duration": 28, "velocity": 89}, {"time": 766, "pitch": 52, "duration": 4, "velocity": 53}, {"time": 772, "pitch": 59, "duration": 15, "velocity": 78}, {"time": 778, "pitch": 55, "duration": 8, "velocity": 83}, {"time": 784, "pitch": 33, "duration": 18, "velocity": 88}, {"time": 790, "pitch": 40, "duration": 12, "velocity": 58}, {"time": 796, "pitch": 45, "duration": 14, "velocity": 86}, {"time": 802, "pitch": 52, "duration": 16, "velocity": 95}, {"time": 808, "pitch": 61, "duration": 24, "velocity": 107}, {"time": 814, "pitch": 49, "duration": 10, "velocity": 56}, {"time": 820, "pitch": 57, "duration": 12, "velocity": 77}, {"time": 826, "pitch": 52, "duration": 6, "velocity": 79}, {"time": 832, "pitch": 38, "duration": 22, "velocity": 97}, {"time": 838, "pitch": 45, "duration": 19, "velocity": 43}, {"time": 844, "pitch": 50, "duration": 13, "velocity": 88}, {"time": 844, "pitch": 66, "duration": 37, "velocity": 112}, {"time": 850, "pitch": 62, "duration": 15, "velocity": 78}, {"time": 856, "pitch": 38, "duration": 14, "velocity": 88}, {"time": 862, "pitch": 45, "duration": 9, "velocity": 58}, {"time": 868, "pitch": 50, "duration": 6, "velocity": 66}, {"time": 868, "pitch": 62, "duration": 14, "velocity": 89}, {"time": 874, "pitch": 57, "duration": 7, "velocity": 79}, {"time": 880, "pitch": 47, "duration": 23, "velocity": 78}, {"time": 886, "pitch": 54, "duration": 19, "velocity": 75}, {"time": 892, "pitch": 66, "duration": 21, "velocity": 102}, {"time": 898, "pitch": 59, "duration": 14, "velocity": 90}, {"time": 904, "pitch": 47, "duration": 15, "velocity": 86}, {"time": 910, "pitch": 54, "duration": 6, "velocity": 90}, {"time": 916, "pitch": 66, "duration": 12, "velocity": 112}, {"time": 922, "pitch": 45, "duration": 6, "velocity": 112}, {"time": 928, "pitch": 43, "duration": 23, "velocity": 67}, {"time": 934, "pitch": 50, "duration": 19, "velocity": 74}, {"time": 940, "pitch": 62, "duration": 16, "velocity": 86}, {"time": 946, "pitch": 55, "duration": 7, "velocity": 82}, {"time": 952, "pitch": 43, "duration": 15, "velocity": 89}, {"time": 958, "pitch": 50, "duration": 12, "velocity": 69}, {"time": 964, "pitch": 62, "duration": 11, "velocity": 99}, {"time": 970, "pitch": 55, "duration": 6, "velocity": 95}, {"time": 976, "pitch": 45, "duration": 23, "velocity": 93}, {"time": 982, "pitch": 52, "duration": 19, "velocity": 81}, {"time": 988, "pitch": 64, "duration": 36, "velocity": 96}, {"time": 994, "pitch": 57, "duration": 13, "velocity": 92}, {"time": 997, "pitch": 50, "duration": 2, "velocity": 33}, {"time": 1000, "pitch": 45, "duration": 14, "velocity": 83}, {"time": 1006, "pitch": 52, "duration": 8, "velocity": 86}, {"time": 1012, "pitch": 61, "duration": 14, "velocity": 102}, {"time": 1018, "pitch": 57, "duration": 41, "velocity": 95}, {"time": 1024, "pitch": 42, "duration": 23, "velocity": 99}, {"time": 1030, "pitch": 49, "duration": 19, "velocity": 70}, {"time": 1036, "pitch": 54, "duration": 13, "velocity": 88}, {"time": 1036, "pitch": 66, "duration": 22, "velocity": 97}, {"time": 1042, "pitch": 61, "duration": 17, "velocity": 97}, {"time": 1048, "pitch": 42, "duration": 18, "velocity": 82}, {"time": 1054, "pitch": 49, "duration": 12, "velocity": 55}, {"time": 1060, "pitch": 54, "duration": 7, "velocity": 81}, {"time": 1060, "pitch": 66, "duration": 14, "velocity": 107}, {"time": 1066, "pitch": 57, "duration": 6, "velocity": 97}, {"time": 1072, "pitch": 47, "duration": 22, "velocity": 95}, {"time": 1078, "pitch": 54, "duration": 19, "velocity": 93}, {"time": 1084, "pitch": 66, "duration": 21, "velocity": 122}, {"time": 1090, "pitch": 62, "duration": 15, "velocity": 93}, {"time": 1096, "pitch": 47, "duration": 16, "velocity": 95}, {"time": 1102, "pitch": 54, "duration": 8, "velocity": 97}, {"time": 1108, "pitch": 66, "duration": 10, "velocity": 127}, {"time": 1114, "pitch": 59, "duration": 7, "velocity": 102}, {"time": 1120, "pitch": 40, "duration": 14, "velocity": 97}, {"time": 1126, "pitch": 47, "duration": 8, "velocity": 73}, {"time": 1132, "pitch": 55, "duration": 11, "velocity": 92}, {"time": 1132, "pitch": 59, "duration": 11, "velocity": 93}, {"time": 1138, "pitch": 52, "duration": 12, "velocity": 100}, {"time": 1144, "pitch": 33, "duration": 14, "velocity": 95}, {"time": 1150, "pitch": 40, "duration": 9, "velocity": 62}, {"time": 1156, "pitch": 45, "duration": 5, "velocity": 89}, {"time": 1156, "pitch": 57, "duration": 12, "velocity": 99}, {"time": 1156, "pitch": 61, "duration": 12, "velocity": 117}, {"time": 1162, "pitch": 52, "duration": 6, "velocity": 96}, {"time": 1168, "pitch": 38, "duration": 22, "velocity": 107}, {"time": 1174, "pitch": 45, "duration": 19, "velocity": 88}, {"time": 1180, "pitch": 52, "duration": 9, "velocity": 112}, {"time": 1183, "pitch": 50, "duration": 4, "velocity": 96}, {"time": 1186, "pitch": 54, "duration": 4, "velocity": 117}, {"time": 1189, "pitch": 52, "duration": 1, "velocity": 33}, {"time": 1189, "pitch": 57, "duration": 3, "velocity": 102}, {"time": 1192, "pitch": 38, "duration": 22, "velocity": 102}, {"time": 1195, "pitch": 45, "duration": 21, "velocity": 97}, {"time": 1198, "pitch": 50, "duration": 7, "velocity": 97}, {"time": 1201, "pitch": 57, "duration": 7, "velocity": 100}, {"time": 1204, "pitch": 66, "duration": 11, "velocity": 127}, {"time": 1207, "pitch": 50, "duration": 3, "velocity": 122}, {"time": 1210, "pitch": 62, "duration": 6, "velocity": 117}, {"time": 1213, "pitch": 57, "duration": 4, "velocity": 107}, {"time": 1216, "pitch": 38, "duration": 22, "velocity": 82}, {"time": 1222, "pitch": 45, "duration": 18, "velocity": 45}, {"time": 1228, "pitch": 50, "duration": 10, "velocity": 78}, {"time": 1228, "pitch": 62, "duration": 21, "velocity": 102}, {"time": 1228, "pitch": 66, "duration": 21, "velocity": 112}, {"time": 1234, "pitch": 57, "duration": 15, "velocity": 93}, {"time": 1240, "pitch": 38, "duration": 16, "velocity": 88}, {"time": 1246, "pitch": 45, "duration": 10, "velocity": 48}, {"time": 1252, "pitch": 50, "duration": 6, "velocity": 89}, {"time": 1252, "pitch": 62, "duration": 12, "velocity": 100}, {"time": 1252, "pitch": 66, "duration": 13, "velocity": 117}, {"time": 1258, "pitch": 57, "duration": 6, "velocity": 86}, {"time": 1264, "pitch": 47, "duration": 16, "velocity": 95}, {"time": 1270, "pitch": 54, "duration": 11, "velocity": 83}, {"time": 1276, "pitch": 59, "duration": 20, "velocity": 95}, {"time": 1276, "pitch": 62, "duration": 20, "velocity": 107}, {"time": 1276, "pitch": 66, "duration": 21, "velocity": 100}, {"time": 1282, "pitch": 47, "duration": 3, "velocity": 69}, {"time": 1282, "pitch": 54, "duration": 1, "velocity": 50}, {"time": 1288, "pitch": 47, "duration": 15, "velocity": 95}, {"time": 1294, "pitch": 54, "duration": 8, "velocity": 95}, {"time": 1300, "pitch": 62, "duration": 13, "velocity": 96}, {"time": 1300, "pitch": 66, "duration": 10, "velocity": 122}, {"time": 1306, "pitch": 59, "duration": 9, "velocity": 97}, {"time": 1312, "pitch": 40, "duration": 19, "velocity": 90}, {"time": 1318, "pitch": 47, "duration": 18, "velocity": 57}, {"time": 1324, "pitch": 52, "duration": 7, "velocity": 76}, {"time": 1324, "pitch": 64, "duration": 19, "velocity": 93}, {"time": 1324, "pitch": 67, "duration": 19, "velocity": 90}, {"time": 1330, "pitch": 59, "duration": 14, "velocity": 96}, {"time": 1336, "pitch": 40, "duration": 19, "velocity": 88}, {"time": 1342, "pitch": 47, "duration": 14, "velocity": 51}, {"time": 1348, "pitch": 52, "duration": 11, "velocity": 85}, {"time": 1348, "pitch": 64, "duration": 13, "velocity": 96}, {"time": 1348, "pitch": 67, "duration": 13, "velocity": 92}, {"time": 1354, "pitch": 59, "duration": 7, "velocity": 79}, {"time": 1360, "pitch": 45, "duration": 15, "velocity": 92}, {"time": 1366, "pitch": 52, "duration": 11, "velocity": 88}, {"time": 1372, "pitch": 57, "duration": 14, "velocity": 86}, {"time": 1372, "pitch": 61, "duration": 17, "velocity": 127}, {"time": 1372, "pitch": 64, "duration": 18, "velocity": 96}, {"time": 1378, "pitch": 45, "duration": 4, "velocity": 86}, {"time": 1384, "pitch": 45, "duration": 14, "velocity": 89}, {"time": 1390, "pitch": 52, "duration": 8, "velocity": 93}, {"time": 1396, "pitch": 61, "duration": 13, "velocity": 127}, {"time": 1396, "pitch": 64, "duration": 11, "velocity": 97}, {"time": 1402, "pitch": 57, "duration": 7, "velocity": 89}, {"time": 1408, "pitch": 42, "duration": 22, "velocity": 69}, {"time": 1414, "pitch": 49, "duration": 18, "velocity": 56}, {"time": 1420, "pitch": 54, "duration": 13, "velocity": 89}, {"time": 1420, "pitch": 61, "duration": 21, "velocity": 117}, {"time": 1420, "pitch": 66, "duration": 22, "velocity": 107}, {"time": 1426, "pitch": 57, "duration": 15, "velocity": 102}, {"time": 1432, "pitch": 42, "duration": 15, "velocity": 96}, {"time": 1438, "pitch": 49, "duration": 11, "velocity": 52}, {"time": 1444, "pitch": 54, "duration": 4, "velocity": 90}, {"time": 1444, "pitch": 61, "duration": 12, "velocity": 122}, {"time": 1444, "pitch": 66, "duration": 15, "velocity": 100}, {"time": 1450, "pitch": 42, "duration": 5, "velocity": 95}, {"time": 1456, "pitch": 47, "duration": 22, "velocity": 95}, {"time": 1462, "pitch": 54, "duration": 19, "velocity": 89}, {"time": 1468, "pitch": 62, "duration": 21, "velocity": 97}, {"time": 1468, "pitch": 66, "duration": 22, "velocity": 100}, {"time": 1474, "pitch": 59, "duration": 7, "velocity": 95}, {"time": 1480, "pitch": 47, "duration": 16, "velocity": 86}, {"time": 1486, "pitch": 54, "duration": 9, "velocity": 90}, {"time": 1492, "pitch": 62, "duration": 13, "velocity": 99}, {"time": 1492, "pitch": 66, "duration": 12, "velocity": 107}, {"time": 1498, "pitch": 59, "duration": 8, "velocity": 93}, {"time": 1504, "pitch": 43, "duration": 22, "velocity": 78}, {"time": 1510, "pitch": 50, "duration": 19, "velocity": 44}, {"time": 1516, "pitch": 55, "duration": 7, "velocity": 73}, {"time": 1516, "pitch": 62, "duration": 19, "velocity": 92}, {"time": 1516, "pitch": 67, "duration": 19, "velocity": 90}, {"time": 1522, "pitch": 59, "duration": 8, "velocity": 93}, {"time": 1528, "pitch": 43, "duration": 18, "velocity": 93}, {"time": 1534, "pitch": 50, "duration": 12, "velocity": 63}, {"time": 1540, "pitch": 55, "duration": 4, "velocity": 92}, {"time": 1540, "pitch": 62, "duration": 13, "velocity": 95}, {"time": 1540, "pitch": 67, "duration": 13, "velocity": 93}, {"time": 1546, "pitch": 59, "duration": 7, "velocity": 95}, {"time": 1552, "pitch": 45, "duration": 23, "velocity": 90}, {"time": 1558, "pitch": 52, "duration": 7, "velocity": 102}, {"time": 1564, "pitch": 57, "duration": 1, "velocity": 81}, {"time": 1564, "pitch": 61, "duration": 7, "velocity": 127}, {"time": 1564, "pitch": 64, "duration": 14, "velocity": 102}, {"time": 1567, "pitch": 52, "duration": 10, "velocity": 93}, {"time": 1570, "pitch": 57, "duration": 7, "velocity": 117}, {"time": 1573, "pitch": 61, "duration": 5, "velocity": 127}, {"time": 1576, "pitch": 45, "duration": 18, "velocity": 96}, {"time": 1579, "pitch": 52, "duration": 10, "velocity": 99}, {"time": 1582, "pitch": 57, "duration": 7, "velocity": 93}, {"time": 1585, "pitch": 61, "duration": 4, "velocity": 122}, {"time": 1588, "pitch": 64, "duration": 12, "velocity": 93}, {"time": 1591, "pitch": 52, "duration": 3, "velocity": 72}, {"time": 1594, "pitch": 61, "duration": 6, "velocity": 100}, {"time": 1597, "pitch": 57, "duration": 4, "velocity": 89}, {"time": 1600, "pitch": 38, "duration": 20, "velocity": 83}, {"time": 1606, "pitch": 45, "duration": 18, "velocity": 52}, {"time": 1612, "pitch": 50, "duration": 5, "velocity": 88}, {"time": 1612, "pitch": 62, "duration": 19, "velocity": 97}, {"time": 1612, "pitch": 66, "duration": 20, "velocity": 112}, {"time": 1618, "pitch": 57, "duration": 7, "velocity": 99}, {"time": 1624, "pitch": 38, "duration": 14, "velocity": 90}, {"time": 1630, "pitch": 45, "duration": 8, "velocity": 50}, {"time": 1636, "pitch": 50, "duration": 5, "velocity": 79}, {"time": 1636, "pitch": 62, "duration": 12, "velocity": 96}, {"time": 1636, "pitch": 66, "duration": 13, "velocity": 107}, {"time": 1642, "pitch": 57, "duration": 6, "velocity": 93}, {"time": 1648, "pitch": 47, "duration": 23, "velocity": 71}, {"time": 1654, "pitch": 54, "duration": 19, "velocity": 93}, {"time": 1660, "pitch": 62, "duration": 20, "velocity": 102}, {"time": 1660, "pitch": 66, "duration": 20, "velocity": 100}, {"time": 1666, "pitch": 59, "duration": 15, "velocity": 99}, {"time": 1672, "pitch": 47, "duration": 15, "velocity": 77}, {"time": 1678, "pitch": 54, "duration": 7, "velocity": 92}, {"time": 1684, "pitch": 62, "duration": 13, "velocity": 95}, {"time": 1684, "pitch": 66, "duration": 13, "velocity": 102}, {"time": 1690, "pitch": 59, "duration": 8, "velocity": 97}, {"time": 1696, "pitch": 40, "duration": 22, "velocity": 86}, {"time": 1702, "pitch": 47, "duration": 18, "velocity": 36}, {"time": 1708, "pitch": 52, "duration": 5, "velocity": 86}, {"time": 1708, "pitch": 64, "duration": 22, "velocity": 96}, {"time": 1708, "pitch": 67, "duration": 22, "velocity": 90}, {"time": 1714, "pitch": 59, "duration": 17, "velocity": 92}, {"time": 1720, "pitch": 40, "duration": 16, "velocity": 70}, {"time": 1726, "pitch": 47, "duration": 11, "velocity": 61}, {"time": 1732, "pitch": 52, "duration": 7, "velocity": 93}, {"time": 1732, "pitch": 64, "duration": 13, "velocity": 97}, {"time": 1732, "pitch": 67, "duration": 13, "velocity": 93}, {"time": 1738, "pitch": 59, "duration": 8, "velocity": 95}, {"time": 1744, "pitch": 45, "duration": 22, "velocity": 82}, {"time": 1750, "pitch": 52, "duration": 19, "velocity": 89}, {"time": 1756, "pitch": 61, "duration": 22, "velocity": 117}, {"time": 1756, "pitch": 64, "duration": 22, "velocity": 96}, {"time": 1762, "pitch": 57, "duration": 15, "velocity": 107}, {"time": 1768, "pitch": 45, "duration": 17, "velocity": 72}, {"time": 1774, "pitch": 52, "duration": 11, "velocity": 90}, {"time": 1780, "pitch": 61, "duration": 13, "velocity": 100}, {"time": 1780, "pitch": 64, "duration": 13, "velocity": 85}, {"time": 1786, "pitch": 57, "duration": 8, "velocity": 95}, {"time": 1792, "pitch": 42, "duration": 21, "velocity": 76}, {"time": 1798, "pitch": 49, "duration": 18, "velocity": 42}, {"time": 1804, "pitch": 54, "duration": 14, "velocity": 78}, {"time": 1804, "pitch": 61, "duration": 22, "velocity": 100}, {"time": 1804, "pitch": 66, "duration": 22, "velocity": 96}, {"time": 1810, "pitch": 57, "duration": 15, "velocity": 96}, {"time": 1816, "pitch": 42, "duration": 16, "velocity": 88}, {"time": 1822, "pitch": 49, "duration": 9, "velocity": 35}, {"time": 1828, "pitch": 54, "duration": 5, "velocity": 95}, {"time": 1828, "pitch": 61, "duration": 12, "velocity": 112}, {"time": 1828, "pitch": 66, "duration": 13, "velocity": 96}, {"time": 1834, "pitch": 57, "duration": 7, "velocity": 72}, {"time": 1840, "pitch": 47, "duration": 22, "velocity": 88}, {"time": 1846, "pitch": 54, "duration": 19, "velocity": 92}, {"time": 1852, "pitch": 62, "duration": 20, "velocity": 100}, {"time": 1852, "pitch": 66, "duration": 20, "velocity": 122}, {"time": 1858, "pitch": 59, "duration": 12, "velocity": 97}, {"time": 1864, "pitch": 47, "duration": 15, "velocity": 85}, {"time": 1870, "pitch": 54, "duration": 8, "velocity": 96}, {"time": 1876, "pitch": 62, "duration": 11, "velocity": 97}, {"time": 1876, "pitch": 66, "duration": 11, "velocity": 122}, {"time": 1882, "pitch": 59, "duration": 8, "velocity": 100}, {"time": 1888, "pitch": 43, "duration": 16, "velocity": 89}, {"time": 1894, "pitch": 50, "duration": 18, "velocity": 89}, {"time": 1900, "pitch": 59, "duration": 12, "velocity": 96}, {"time": 1900, "pitch": 62, "duration": 11, "velocity": 99}, {"time": 1906, "pitch": 55, "duration": 6, "velocity": 90}, {"time": 1912, "pitch": 45, "duration": 16, "velocity": 78}, {"time": 1918, "pitch": 52, "duration": 9, "velocity": 73}, {"time": 1924, "pitch": 61, "duration": 12, "velocity": 122}, {"time": 1924, "pitch": 64, "duration": 12, "velocity": 93}, {"time": 1930, "pitch": 57, "duration": 6, "velocity": 99}, {"time": 1936, "pitch": 38, "duration": 21, "velocity": 81}, {"time": 1942, "pitch": 45, "duration": 42, "velocity": 66}, {"time": 1948, "pitch": 62, "duration": 7, "velocity": 93}, {"time": 1948, "pitch": 66, "duration": 8, "velocity": 99}, {"time": 1951, "pitch": 50, "duration": 5, "velocity": 78}, {"time": 1954, "pitch": 57, "duration": 6, "velocity": 95}, {"time": 1957, "pitch": 62, "duration": 3, "velocity": 88}, {"time": 1960, "pitch": 38, "duration": 23, "velocity": 58}, {"time": 1960, "pitch": 50, "duration": 24, "velocity": 90}, {"time": 1960, "pitch": 57, "duration": 1, "velocity": 64}, {"time": 1960, "pitch": 62, "duration": 24, "velocity": 82}, {"time": 1960, "pitch": 66, "duration": 24, "velocity": 99}, {"time": 1984, "pitch": 38, "duration": 45, "velocity": 89}, {"time": 1990, "pitch": 45, "duration": 39, "velocity": 66}, {"time": 1996, "pitch": 50, "duration": 16, "velocity": 93}, {"time": 2002, "pitch": 57, "duration": 20, "velocity": 75}, {"time": 2008, "pitch": 62, "duration": 24, "velocity": 72}, {"time": 2014, "pitch": 50, "duration": 16, "velocity": 53}, {"time": 2020, "pitch": 66, "duration": 12, "velocity": 93}, {"time": 2026, "pitch": 57, "duration": 6, "velocity": 73}, {"time": 2032, "pitch": 43, "duration": 41, "velocity": 81}, {"time": 2038, "pitch": 50, "duration": 22, "velocity": 54}, {"time": 2044, "pitch": 55, "duration": 9, "velocity": 89}, {"time": 2050, "pitch": 59, "duration": 22, "velocity": 73}, {"time": 2056, "pitch": 62, "duration": 25, "velocity": 89}, {"time": 2062, "pitch": 50, "duration": 11, "velocity": 77}, {"time": 2068, "pitch": 55, "duration": 13, "velocity": 97}, {"time": 2074, "pitch": 59, "duration": 7, "velocity": 82}, {"time": 2080, "pitch": 38, "duration": 40, "velocity": 82}, {"time": 2086, "pitch": 45, "duration": 34, "velocity": 65}, {"time": 2092, "pitch": 50, "duration": 16, "velocity": 90}, {"time": 2098, "pitch": 57, "duration": 20, "velocity": 81}, {"time": 2104, "pitch": 66, "duration": 26, "velocity": 99}, {"time": 2110, "pitch": 50, "duration": 8, "velocity": 61}, {"time": 2116, "pitch": 62, "duration": 14, "velocity": 89}, {"time": 2122, "pitch": 57, "duration": 10, "velocity": 88}, {"time": 2128, "pitch": 33, "duration": 48, "velocity": 85}, {"time": 2134, "pitch": 40, "duration": 42, "velocity": 60}, {"time": 2140, "pitch": 45, "duration": 15, "velocity": 74}, {"time": 2146, "pitch": 52, "duration": 19, "velocity": 78}, {"time": 2152, "pitch": 61, "duration": 25, "velocity": 117}, {"time": 2158, "pitch": 45, "duration": 13, "velocity": 82}, {"time": 2164, "pitch": 57, "duration": 13, "velocity": 102}, {"time": 2170, "pitch": 52, "duration": 6, "velocity": 102}, {"time": 2176, "pitch": 42, "duration": 38, "velocity": 93}, {"time": 2182, "pitch": 49, "duration": 32, "velocity": 64}, {"time": 2188, "pitch": 54, "duration": 16, "velocity": 92}, {"time": 2194, "pitch": 57, "duration": 20, "velocity": 93}, {"time": 2200, "pitch": 66, "duration": 24, "velocity": 117}, {"time": 2206, "pitch": 54, "duration": 9, "velocity": 90}, {"time": 2212, "pitch": 61, "duration": 12, "velocity": 122}, {"time": 2218, "pitch": 57, "duration": 6, "velocity": 93}, {"time": 2224, "pitch": 47, "duration": 38, "velocity": 89}, {"time": 2230, "pitch": 54, "duration": 31, "velocity": 73}, {"time": 2236, "pitch": 59, "duration": 16, "velocity": 90}, {"time": 2242, "pitch": 62, "duration": 17, "velocity": 95}, {"time": 2248, "pitch": 71, "duration": 25, "velocity": 99}, {"time": 2254, "pitch": 59, "duration": 6, "velocity": 92}, {"time": 2260, "pitch": 66, "duration": 13, "velocity": 107}, {"time": 2266, "pitch": 62, "duration": 7, "velocity": 96}, {"time": 2272, "pitch": 40, "duration": 18, "velocity": 93}, {"time": 2278, "pitch": 47, "duration": 11, "velocity": 47}, {"time": 2284, "pitch": 52, "duration": 8, "velocity": 99}, {"time": 2290, "pitch": 55, "duration": 7, "velocity": 100}, {"time": 2296, "pitch": 45, "duration": 18, "velocity": 96}, {"time": 2302, "pitch": 52, "duration": 11, "velocity": 72}, {"time": 2308, "pitch": 57, "duration": 4, "velocity": 85}, {"time": 2308, "pitch": 64, "duration": 14, "velocity": 97}, {"time": 2314, "pitch": 61, "duration": 7, "velocity": 96}, {"time": 2320, "pitch": 38, "duration": 47, "velocity": 81}, {"time": 2326, "pitch": 45, "duration": 42, "velocity": 59}, {"time": 2332, "pitch": 50, "duration": 29, "velocity": 93}, {"time": 2338, "pitch": 57, "duration": 30, "velocity": 93}, {"time": 2344, "pitch": 62, "duration": 23, "velocity": 88}, {"time": 2344, "pitch": 66, "duration": 23, "velocity": 79}, {"time": 2368, "pitch": 38, "duration": 22, "velocity": 97}, {"time": 2374, "pitch": 45, "duration": 19, "velocity": 43}, {"time": 2380, "pitch": 50, "duration": 13, "velocity": 88}, {"time": 2380, "pitch": 66, "duration": 37, "velocity": 112}, {"time": 2386, "pitch": 62, "duration": 15, "velocity": 78}, {"time": 2392, "pitch": 38, "duration": 14, "velocity": 88}, {"time": 2398, "pitch": 45, "duration": 9, "velocity": 58}, {"time": 2404, "pitch": 50, "duration": 6, "velocity": 66}, {"time": 2404, "pitch": 62, "duration": 14, "velocity": 89}, {"time": 2410, "pitch": 57, "duration": 7, "velocity": 79}, {"time": 2416, "pitch": 47, "duration": 23, "velocity": 78}, {"time": 2422, "pitch": 54, "duration": 19, "velocity": 75}, {"time": 2428, "pitch": 66, "duration": 21, "velocity": 102}, {"time": 2434, "pitch": 59, "duration": 14, "velocity": 90}, {"time": 2440, "pitch": 47, "duration": 15, "velocity": 86}, {"time": 2446, "pitch": 54, "duration": 6, "velocity": 90}, {"time": 2452, "pitch": 66, "duration": 12, "velocity": 112}, {"time": 2458, "pitch": 45, "duration": 6, "velocity": 112}, {"time": 2464, "pitch": 43, "duration": 23, "velocity": 67}, {"time": 2470, "pitch": 50, "duration": 19, "velocity": 74}, {"time": 2476, "pitch": 62, "duration": 16, "velocity": 86}, {"time": 2482, "pitch": 55, "duration": 7, "velocity": 82}, {"time": 2488, "pitch": 43, "duration": 15, "velocity": 89}, {"time": 2494, "pitch": 50, "duration": 12, "velocity": 69}, {"time": 2500, "pitch": 62, "duration": 11, "velocity": 99}, {"time": 2506, "pitch": 55, "duration": 6, "velocity": 95}, {"time": 2512, "pitch": 45, "duration": 23, "velocity": 93}, {"time": 2518, "pitch": 52, "duration": 19, "velocity": 81}, {"time": 2524, "pitch": 64, "duration": 36, "velocity": 96}, {"time": 2530, "pitch": 57, "duration": 13, "velocity": 92}, {"time": 2536, "pitch": 45, "duration": 14, "velocity": 83}, {"time": 2542, "pitch": 52, "duration": 8, "velocity": 86}, {"time": 2548, "pitch": 61, "duration": 14, "velocity": 102}, {"time": 2554, "pitch": 57, "duration": 41, "velocity": 95}, {"time": 2560, "pitch": 42, "duration": 23, "velocity": 99}, {"time": 2566, "pitch": 49, "duration": 19, "velocity": 70}, {"time": 2572, "pitch": 54, "duration": 13, "velocity": 88}, {"time": 2572, "pitch": 66, "duration": 22, "velocity": 97}, {"time": 2578, "pitch": 61, "duration": 17, "velocity": 97}, {"time": 2584, "pitch": 42, "duration": 18, "velocity": 82}, {"time": 2590, "pitch": 49, "duration": 12, "velocity": 55}, {"time": 2596, "pitch": 54, "duration": 7, "velocity": 81}, {"time": 2596, "pitch": 66, "duration": 14, "velocity": 107}, {"time": 2602, "pitch": 57, "duration": 6, "velocity": 97}, {"time": 2608, "pitch": 47, "duration": 22, "velocity": 95}, {"time": 2614, "pitch": 54, "duration": 19, "velocity": 93}, {"time": 2620, "pitch": 66, "duration": 21, "velocity": 122}, {"time": 2626, "pitch": 62, "duration": 15, "velocity": 93}, {"time": 2632, "pitch": 47, "duration": 16, "velocity": 95}, {"time": 2638, "pitch": 54, "duration": 8, "velocity": 97}, {"time": 2644, "pitch": 66, "duration": 10, "velocity": 127}, {"time": 2650, "pitch": 59, "duration": 7, "velocity": 102}, {"time": 2656, "pitch": 40, "duration": 14, "velocity": 97}, {"time": 2662, "pitch": 47, "duration": 8, "velocity": 73}, {"time": 2668, "pitch": 55, "duration": 11, "velocity": 92}, {"time": 2668, "pitch": 59, "duration": 11, "velocity": 93}, {"time": 2674, "pitch": 52, "duration": 12, "velocity": 100}, {"time": 2680, "pitch": 33, "duration": 14, "velocity": 95}, {"time": 2686, "pitch": 40, "duration": 9, "velocity": 62}, {"time": 2692, "pitch": 45, "duration": 5, "velocity": 89}, {"time": 2692, "pitch": 57, "duration": 12, "velocity": 99}, {"time": 2692, "pitch": 61, "duration": 12, "velocity": 117}, {"time": 2698, "pitch": 52, "duration": 6, "velocity": 96}, {"time": 2704, "pitch": 38, "duration": 22, "velocity": 107}, {"time": 2710, "pitch": 45, "duration": 19, "velocity": 88}, {"time": 2716, "pitch": 52, "duration": 9, "velocity": 112}, {"time": 2719, "pitch": 50, "duration": 4, "velocity": 96}, {"time": 2722, "pitch": 54, "duration": 4, "velocity": 117}, {"time": 2725, "pitch": 57, "duration": 3, "velocity": 102}, {"time": 2728, "pitch": 38, "duration": 22, "velocity": 102}, {"time": 2731, "pitch": 45, "duration": 21, "velocity": 97}, {"time": 2734, "pitch": 50, "duration": 7, "velocity": 97}, {"time": 2737, "pitch": 57, "duration": 7, "velocity": 100}, {"time": 2740, "pitch": 66, "duration": 11, "velocity": 127}, {"time": 2743, "pitch": 50, "duration": 3, "velocity": 122}, {"time": 2746, "pitch": 62, "duration": 6, "velocity": 117}, {"time": 2749, "pitch": 57, "duration": 4, "velocity": 107}, {"time": 2752, "pitch": 38, "duration": 22, "velocity": 82}, {"time": 2758, "pitch": 45, "duration": 18, "velocity": 45}, {"time": 2764, "pitch": 50, "duration": 10, "velocity": 78}, {"time": 2764, "pitch": 62, "duration": 21, "velocity": 102}, {"time": 2764, "pitch": 66, "duration": 21, "velocity": 112}, {"time": 2770, "pitch": 57, "duration": 15, "velocity": 93}, {"time": 2776, "pitch": 38, "duration": 16, "velocity": 88}, {"time": 2782, "pitch": 45, "duration": 10, "velocity": 48}, {"time": 2788, "pitch": 50, "duration": 6, "velocity": 89}, {"time": 2788, "pitch": 62, "duration": 12, "velocity": 100}, {"time": 2788, "pitch": 66, "duration": 13, "velocity": 117}, {"time": 2794, "pitch": 57, "duration": 6, "velocity": 86}, {"time": 2800, "pitch": 47, "duration": 16, "velocity": 95}, {"time": 2806, "pitch": 54, "duration": 11, "velocity": 83}, {"time": 2812, "pitch": 59, "duration": 20, "velocity": 95}, {"time": 2812, "pitch": 62, "duration": 20, "velocity": 107}, {"time": 2812, "pitch": 66, "duration": 21, "velocity": 100}, {"time": 2818, "pitch": 47, "duration": 3, "velocity": 69}, {"time": 2818, "pitch": 54, "duration": 1, "velocity": 50}, {"time": 2824, "pitch": 47, "duration": 15, "velocity": 95}, {"time": 2830, "pitch": 54, "duration": 8, "velocity": 95}, {"time": 2836, "pitch": 62, "duration": 13, "velocity": 96}, {"time": 2836, "pitch": 66, "duration": 10, "velocity": 122}, {"time": 2842, "pitch": 59, "duration": 9, "velocity": 97}, {"time": 2848, "pitch": 40, "duration": 19, "velocity": 90}, {"time": 2854, "pitch": 47, "duration": 18, "velocity": 57}, {"time": 2860, "pitch": 52, "duration": 7, "velocity": 76}, {"time": 2860, "pitch": 64, "duration": 19, "velocity": 93}, {"time": 2860, "pitch": 67, "duration": 19, "velocity": 90}, {"time": 2866, "pitch": 59, "duration": 14, "velocity": 96}, {"time": 2872, "pitch": 40, "duration": 19, "velocity": 88}, {"time": 2878, "pitch": 47, "duration": 14, "velocity": 51}, {"time": 2884, "pitch": 52, "duration": 11, "velocity": 85}, {"time": 2884, "pitch": 64, "duration": 13, "velocity": 96}, {"time": 2884, "pitch": 67, "duration": 13, "velocity": 92}, {"time": 2890, "pitch": 59, "duration": 7, "velocity": 79}, {"time": 2896, "pitch": 45, "duration": 15, "velocity": 92}, {"time": 2902, "pitch": 52, "duration": 11, "velocity": 88}, {"time": 2908, "pitch": 57, "duration": 14, "velocity": 86}, {"time": 2908, "pitch": 61, "duration": 17, "velocity": 127}, {"time": 2908, "pitch": 64, "duration": 18, "velocity": 96}, {"time": 2914, "pitch": 45, "duration": 4, "velocity": 86}, {"time": 2920, "pitch": 45, "duration": 14, "velocity": 89}, {"time": 2926, "pitch": 52, "duration": 8, "velocity": 93}, {"time": 2932, "pitch": 61, "duration": 13, "velocity": 127}, {"time": 2932, "pitch": 64, "duration": 11, "velocity": 97}, {"time": 2938, "pitch": 57, "duration": 7, "velocity": 89}, {"time": 2944, "pitch": 42, "duration": 22, "velocity": 69}, {"time": 2950, "pitch": 49, "duration": 18, "velocity": 56}, {"time": 2956, "pitch": 54, "duration": 13, "velocity": 89}, {"time": 2956, "pitch": 61, "duration": 21, "velocity": 117}, {"time": 2956, "pitch": 66, "duration": 22, "velocity": 107}, {"time": 2962, "pitch": 57, "duration": 15, "velocity": 102}, {"time": 2968, "pitch": 42, "duration": 15, "velocity": 96}, {"time": 2974, "pitch": 49, "duration": 11, "velocity": 52}, {"time": 2980, "pitch": 54, "duration": 4, "velocity": 90}, {"time": 2980, "pitch": 61, "duration": 12, "velocity": 122}, {"time": 2980, "pitch": 66, "duration": 15, "velocity": 100}, {"time": 2986, "pitch": 42, "duration": 5, "velocity": 95}, {"time": 2992, "pitch": 47, "duration": 22, "velocity": 95}, {"time": 2998, "pitch": 54, "duration": 19, "velocity": 89}, {"time": 3004, "pitch": 62, "duration": 21, "velocity": 97}, {"time": 3004, "pitch": 66, "duration": 22, "velocity": 100}, {"time": 3010, "pitch": 59, "duration": 7, "velocity": 95}, {"time": 3016, "pitch": 47, "duration": 16, "velocity": 86}, {"time": 3022, "pitch": 54, "duration": 9, "velocity": 90}, {"time": 3028, "pitch": 62, "duration": 13, "velocity": 99}, {"time": 3028, "pitch": 66, "duration": 12, "velocity": 107}, {"time": 3034, "pitch": 59, "duration": 8, "velocity": 93}, {"time": 3040, "pitch": 43, "duration": 22, "velocity": 78}, {"time": 3046, "pitch": 50, "duration": 19, "velocity": 44}, {"time": 3052, "pitch": 55, "duration": 7, "velocity": 73}, {"time": 3052, "pitch": 62, "duration": 19, "velocity": 92}, {"time": 3052, "pitch": 67, "duration": 19, "velocity": 90}, {"time": 3058, "pitch": 59, "duration": 8, "velocity": 93}, {"time": 3064, "pitch": 43, "duration": 18, "velocity": 93}, {"time": 3070, "pitch": 50, "duration": 12, "velocity": 63}, {"time": 3076, "pitch": 55, "duration": 4, "velocity": 92}, {"time": 3076, "pitch": 62, "duration": 13, "velocity": 95}, {"time": 3076, "pitch": 67, "duration": 13, "velocity": 93}, {"time": 3082, "pitch": 59, "duration": 7, "velocity": 95}, {"time": 3088, "pitch": 45, "duration": 23, "velocity": 90}, {"time": 3094, "pitch": 52, "duration": 7, "velocity": 102}, {"time": 3100, "pitch": 57, "duration": 1, "velocity": 81}, {"time": 3100, "pitch": 61, "duration": 7, "velocity": 127}, {"time": 3100, "pitch": 64, "duration": 14, "velocity": 102}, {"time": 3103, "pitch": 52, "duration": 10, "velocity": 93}, {"time": 3106, "pitch": 57, "duration": 7, "velocity": 117}, {"time": 3109, "pitch": 61, "duration": 5, "velocity": 127}, {"time": 3112, "pitch": 45, "duration": 18, "velocity": 96}, {"time": 3115, "pitch": 52, "duration": 10, "velocity": 99}, {"time": 3118, "pitch": 57, "duration": 7, "velocity": 93}, {"time": 3121, "pitch": 61, "duration": 4, "velocity": 122}, {"time": 3124, "pitch": 64, "duration": 12, "velocity": 93}, {"time": 3127, "pitch": 52, "duration": 3, "velocity": 72}, {"time": 3130, "pitch": 61, "duration": 6, "velocity": 100}, {"time": 3133, "pitch": 57, "duration": 4, "velocity": 89}, {"time": 3136, "pitch": 38, "duration": 20, "velocity": 83}, {"time": 3142, "pitch": 45, "duration": 18, "velocity": 52}, {"time": 3148, "pitch": 50, "duration": 5, "velocity": 88}, {"time": 3148, "pitch": 62, "duration": 19, "velocity": 97}, {"time": 3148, "pitch": 66, "duration": 20, "velocity": 112}, {"time": 3154, "pitch": 57, "duration": 7, "velocity": 99}, {"time": 3160, "pitch": 38, "duration": 14, "velocity": 90}, {"time": 3166, "pitch": 45, "duration": 8, "velocity": 50}, {"time": 3172, "pitch": 50, "duration": 5, "velocity": 79}, {"time": 3172, "pitch": 62, "duration": 12, "velocity": 96}, {"time": 3172, "pitch": 66, "duration": 13, "velocity": 107}, {"time": 3178, "pitch": 57, "duration": 6, "velocity": 93}, {"time": 3184, "pitch": 47, "duration": 23, "velocity": 71}, {"time": 3190, "pitch": 54, "duration": 19, "velocity": 93}, {"time": 3196, "pitch": 62, "duration": 20, "velocity": 102}, {"time": 3196, "pitch": 66, "duration": 20, "velocity": 100}, {"time": 3202, "pitch": 59, "duration": 15, "velocity": 99}, {"time": 3208, "pitch": 47, "duration": 15, "velocity": 77}, {"time": 3214, "pitch": 54, "duration": 7, "velocity": 92}, {"time": 3220, "pitch": 62, "duration": 13, "velocity": 95}, {"time": 3220, "pitch": 66, "duration": 13, "velocity": 102}, {"time": 3226, "pitch": 59, "duration": 8, "velocity": 97}, {"time": 3232, "pitch": 40, "duration": 22, "velocity": 86}, {"time": 3238, "pitch": 47, "duration": 18, "velocity": 36}, {"time": 3244, "pitch": 52, "duration": 5, "velocity": 86}, {"time": 3244, "pitch": 64, "duration": 22, "velocity": 96}, {"time": 3244, "pitch": 67, "duration": 22, "velocity": 90}, {"time": 3250, "pitch": 59, "duration": 17, "velocity": 92}, {"time": 3256, "pitch": 40, "duration": 16, "velocity": 70}, {"time": 3262, "pitch": 47, "duration": 11, "velocity": 61}, {"time": 3268, "pitch": 52, "duration": 7, "velocity": 93}, {"time": 3268, "pitch": 64, "duration": 13, "velocity": 97}, {"time": 3268, "pitch": 67, "duration": 13, "velocity": 93}, {"time": 3274, "pitch": 59, "duration": 8, "velocity": 95}, {"time": 3280, "pitch": 45, "duration": 22, "velocity": 82}, {"time": 3286, "pitch": 52, "duration": 19, "velocity": 89}, {"time": 3292, "pitch": 61, "duration": 22, "velocity": 117}, {"time": 3292, "pitch": 64, "duration": 22, "velocity": 96}, {"time": 3298, "pitch": 57, "duration": 15, "velocity": 107}, {"time": 3304, "pitch": 45, "duration": 17, "velocity": 72}, {"time": 3310, "pitch": 52, "duration": 11, "velocity": 90}, {"time": 3316, "pitch": 61, "duration": 13, "velocity": 100}, {"time": 3316, "pitch": 64, "duration": 13, "velocity": 85}, {"time": 3322, "pitch": 57, "duration": 8, "velocity": 95}, {"time": 3328, "pitch": 42, "duration": 21, "velocity": 76}, {"time": 3334, "pitch": 49, "duration": 18, "velocity": 42}, {"time": 3340, "pitch": 54, "duration": 14, "velocity": 78}, {"time": 3340, "pitch": 61, "duration": 22, "velocity": 100}, {"time": 3340, "pitch": 66, "duration": 22, "velocity": 96}, {"time": 3346, "pitch": 57, "duration": 15, "velocity": 96}, {"time": 3352, "pitch": 42, "duration": 16, "velocity": 88}, {"time": 3358, "pitch": 49, "duration": 9, "velocity": 35}, {"time": 3364, "pitch": 54, "duration": 5, "velocity": 95}, {"time": 3364, "pitch": 61, "duration": 12, "velocity": 112}, {"time": 3364, "pitch": 66, "duration": 13, "velocity": 96}, {"time": 3370, "pitch": 57, "duration": 7, "velocity": 72}, {"time": 3376, "pitch": 47, "duration": 22, "velocity": 88}, {"time": 3382, "pitch": 54, "duration": 19, "velocity": 92}, {"time": 3388, "pitch": 62, "duration": 20, "velocity": 100}, {"time": 3388, "pitch": 66, "duration": 20, "velocity": 122}, {"time": 3394, "pitch": 59, "duration": 12, "velocity": 97}, {"time": 3400, "pitch": 47, "duration": 15, "velocity": 85}, {"time": 3406, "pitch": 54, "duration": 8, "velocity": 96}, {"time": 3412, "pitch": 62, "duration": 11, "velocity": 97}, {"time": 3412, "pitch": 66, "duration": 11, "velocity": 122}, {"time": 3418, "pitch": 59, "duration": 6, "velocity": 100}, {"time": 3424, "pitch": 43, "duration": 20, "velocity": 95}, {"time": 3430, "pitch": 50, "duration": 19, "velocity": 61}, {"time": 3436, "pitch": 55, "duration": 5, "velocity": 86}, {"time": 3436, "pitch": 67, "duration": 11, "velocity": 93}, {"time": 3436, "pitch": 71, "duration": 7, "velocity": 89}, {"time": 3442, "pitch": 62, "duration": 5, "velocity": 82}, {"time": 3448, "pitch": 45, "duration": 17, "velocity": 83}, {"time": 3448, "pitch": 64, "duration": 15, "velocity": 97}, {"time": 3448, "pitch": 69, "duration": 14, "velocity": 97}, {"time": 3448, "pitch": 73, "duration": 14, "velocity": 100}, {"time": 3472, "pitch": 38, "duration": 48, "velocity": 88}, {"time": 3478, "pitch": 45, "duration": 41, "velocity": 75}, {"time": 3484, "pitch": 57, "duration": 2, "velocity": 75}, {"time": 3484, "pitch": 62, "duration": 36, "velocity": 99}, {"time": 3484, "pitch": 66, "duration": 36, "velocity": 99}, {"time": 3490, "pitch": 50, "duration": 30, "velocity": 78}, {"time": 3496, "pitch": 57, "duration": 24, "velocity": 96}, {"time": 3520, "pitch": 43, "duration": 20, "velocity": 93}, {"time": 3524, "pitch": 50, "duration": 20, "velocity": 89}, {"time": 3526, "pitch": 55, "duration": 12, "velocity": 62}, {"time": 3530, "pitch": 59, "duration": 16, "velocity": 66}, {"time": 3533, "pitch": 67, "duration": 13, "velocity": 96}, {"time": 3539, "pitch": 62, "duration": 7, "velocity": 72}, {"time": 3545, "pitch": 45, "duration": 56, "velocity": 79}, {"time": 3548, "pitch": 52, "duration": 51, "velocity": 55}, {"time": 3551, "pitch": 57, "duration": 43, "velocity": 93}, {"time": 3555, "pitch": 61, "duration": 4, "velocity": 65}, {"time": 3558, "pitch": 64, "duration": 2, "velocity": 76}, {"time": 3565, "pitch": 69, "duration": 2, "velocity": 77}, {"time": 3576, "pitch": 69, "duration": 30, "velocity": 62}, {"time": 3577, "pitch": 73, "duration": 29, "velocity": 56}, {"time": 3578, "pitch": 76, "duration": 28, "velocity": 63}, {"time": 3580, "pitch": 81, "duration": 26, "velocity": 72}, {"time": 3616, "pitch": 46, "duration": 20, "velocity": 93}, {"time": 3622, "pitch": 53, "duration": 13, "velocity": 66}, {"time": 3628, "pitch": 58, "duration": 6, "velocity": 72}, {"time": 3634, "pitch": 62, "duration": 7, "velocity": 76}, {"time": 3640, "pitch": 36, "duration": 26, "velocity": 79}, {"time": 3647, "pitch": 43, "duration": 20, "velocity": 55}, {"time": 3653, "pitch": 48, "duration": 9, "velocity": 64}, {"time": 3654, "pitch": 64, "duration": 16, "velocity": 86}, {"time": 3660, "pitch": 60, "duration": 10, "velocity": 77}, {"time": 3685, "pitch": 57, "duration": 17, "velocity": 92}, {"time": 3686, "pitch": 54, "duration": 14, "velocity": 70}, {"time": 3687, "pitch": 50, "duration": 8, "velocity": 73}, {"time": 3687, "pitch": 38, "duration": 101, "velocity": 95}, {"time": 3694, "pitch": 45, "duration": 90, "velocity": 40}, {"time": 3697, "pitch": 50, "duration": 90, "velocity": 44}, {"time": 3700, "pitch": 52, "duration": 5, "velocity": 53}, {"time": 3702, "pitch": 54, "duration": 4, "velocity": 64}, {"time": 3705, "pitch": 57, "duration": 1, "velocity": 70}, {"time": 3708, "pitch": 62, "duration": 8, "velocity": 67}, {"time": 3712, "pitch": 64, "duration": 5, "velocity": 37}, {"time": 3714, "pitch": 66, "duration": 4, "velocity": 58}, {"time": 3717, "pitch": 69, "duration": 1, "velocity": 51}, {"time": 3720, "pitch": 74, "duration": 11, "velocity": 75}, {"time": 3724, "pitch": 76, "duration": 7, "velocity": 44}, {"time": 3727, "pitch": 78, "duration": 5, "velocity": 39}, {"time": 3731, "pitch": 81, "duration": 1, "velocity": 63}, {"time": 3739, "pitch": 86, "duration": 49, "velocity": 31}, {"time": 3740, "pitch": 90, "duration": 48, "velocity": 48}, {"time": 3741, "pitch": 93, "duration": 47, "velocity": 40}, {"time": 3743, "pitch": 98, "duration": 45, "velocity": 39}], "annotations": [{"time": 65, "annotation": {"number": 64, "value": 127}, "group": "control_change"}, {"time": 110, "annotation": {"number": 64, "value": 0}, "group": "control_change"}, {"time": 112, "annotation": {"number": 64, "value": 127}, "group": "control_change"}, {"time": 159, "annotation": {"number": 64, "value": 0}, "group": "control_change"}, {"time": 160, "annotation": {"number": 64, "value": 127}, "group": "control_change"}, {"time": 207, "annotation": {"number": 64, "value": 0}, "group": "control_change"}, {"time": 209, "annotation": {"number": 64, "value": 127}, "group": "control_change"}, {"time": 255, "annotation": {"number": 64, "value": 0}, "group": "control_change"}, {"time": 256, "annotation": {"number": 64, "value": 127}, "group": "control_change"}, {"time": 303, "annotation": {"number": 64, "value": 0}, "group": "control_change"}, {"time": 305, "annotation": {"number": 64, "value": 127}, "group": "control_change"}, {"time": 350, "annotation": {"number": 64, "value": 0}, "group": "control_change"}, {"time": 352, "annotation": {"number": 64, "value": 127}, "group": "control_change"}, {"time": 374, "annotation": {"number": 64, "value": 0}, "group": "control_change"}, {"time": 376, "annotation": {"number": 64, "value": 127}, "group": "control_change"}, {"time": 398, "annotation": {"number": 64, "value": 0}, "group": "control_change"}, {"time": 400, "annotation": {"number": 64, "value": 127}, "group": "control_change"}, {"time": 446, "annotation": {"number": 64, "value": 0}, "group": "control_change"}, {"time": 448, "annotation": {"number": 64, "value": 127}, "group": "control_change"}, {"time": 495, "annotation": {"number": 64, "value": 0}, "group": "control_change"}, {"time": 496, "annotation": {"number": 64, "value": 127}, "group": "control_change"}, {"time": 541, "annotation": {"number": 64, "value": 0}, "group": "control_change"}, {"time": 543, "annotation": {"number": 64, "value": 127}, "group": "control_change"}, {"time": 590, "annotation": {"number": 64, "value": 0}, "group": "control_change"}, {"time": 592, "annotation": {"number": 64, "value": 127}, "group": "control_change"}, {"time": 639, "annotation": {"number": 64, "value": 0}, "group": "control_change"}, {"time": 640, "annotation": {"number": 64, "value": 127}, "group": "control_change"}, {"time": 686, "annotation": {"number": 64, "value": 0}, "group": "control_change"}, {"time": 688, "annotation": {"number": 64, "value": 127}, "group": "control_change"}, {"time": 710, "annotation": {"number": 64, "value": 0}, "group": "control_change"}, {"time": 712, "annotation": {"number": 64, "value": 127}, "group": "control_change"}, {"time": 734, "annotation": {"number": 64, "value": 0}, "group": "control_change"}, {"time": 736, "annotation": {"number": 64, "value": 127}, "group": "control_change"}, {"time": 781, "annotation": {"number": 64, "value": 0}, "group": "control_change"}, {"time": 784, "annotation": {"number": 64, "value": 127}, "group": "control_change"}, {"time": 830, "annotation": {"number": 64, "value": 0}, "group": "control_change"}, {"time": 832, "annotation": {"number": 64, "value": 127}, "group": "control_change"}, {"time": 833, "annotation": {"number": 64, "value": 127}, "group": "control_change"}, {"time": 854, "annotation": {"number": 64, "value": 0}, "group": "control_change"}, {"time": 856, "annotation": {"number": 64, "value": 127}, "group": "control_change"}, {"time": 878, "annotation": {"number": 64, "value": 0}, "group": "control_change"}, {"time": 880, "annotation": {"number": 64, "value": 127}, "group": "control_change"}, {"time": 902, "annotation": {"number": 64, "value": 0}, "group": "control_change"}, {"time": 904, "annotation": {"number": 64, "value": 127}, "group": "control_change"}, {"time": 926, "annotation": {"number": 64, "value": 0}, "group": "control_change"}, {"time": 928, "annotation": {"number": 64, "value": 127}, "group": "control_change"}, {"time": 949, "annotation": {"number": 64, "value": 0}, "group": "control_change"}, {"time": 952, "annotation": {"number": 64, "value": 127}, "group": "control_change"}, {"time": 974, "annotation": {"number": 64, "value": 0}, "group": "control_change"}, {"time": 976, "annotation": {"number": 64, "value": 127}, "group": "control_change"}, {"time": 998, "annotation": {"number": 64, "value": 0}, "group": "control_change"}, {"time": 1000, "annotation": {"number": 64, "value": 127}, "group": "control_change"}, {"time": 1022, "annotation": {"number": 64, "value": 0}, "group": "control_change"}, {"time": 1024, "annotation": {"number": 64, "value": 127}, "group": "control_change"}, {"time": 1046, "annotation": {"number": 64, "value": 0}, "group": "control_change"}, {"time": 1048, "annotation": {"number": 64, "value": 127}, "group": "control_change"}, {"time": 1071, "annotation": {"number": 64, "value": 0}, "group": "control_change"}, {"time": 1073, "annotation": {"number": 64, "value": 127}, "group": "control_change"}, {"time": 1094, "annotation": {"number": 64, "value": 0}, "group": "control_change"}, {"time": 1096, "annotation": {"number": 64, "value": 127}, "group": "control_change"}, {"time": 1118, "annotation": {"number": 64, "value": 0}, "group": "control_change"}, {"time": 1120, "annotation": {"number": 64, "value": 127}, "group": "control_change"}, {"time": 1141, "annotation": {"number": 64, "value": 0}, "group": "control_change"}, {"time": 1144, "annotation": {"number": 64, "value": 127}, "group": "control_change"}, {"time": 1166, "annotation": {"number": 64, "value": 0}, "group": "control_change"}, {"time": 1168, "annotation": {"number": 64, "value": 127}, "group": "control_change"}, {"time": 1190, "annotation": {"number": 64, "value": 0}, "group": "control_change"}, {"time": 1192, "annotation": {"number": 64, "value": 127}, "group": "control_change"}, {"time": 1209, "annotation": {"number": 64, "value": 0}, "group": "control_change"}, {"time": 1216, "annotation": {"number": 64, "value": 127}, "group": "control_change"}, {"time": 1217, "annotation": {"number": 64, "value": 127}, "group": "control_change"}, {"time": 1237, "annotation": {"number": 64, "value": 0}, "group": "control_change"}, {"time": 1241, "annotation": {"number": 64, "value": 127}, "group": "control_change"}, {"time": 1256, "annotation": {"number": 64, "value": 0}, "group": "control_change"}, {"time": 1257, "annotation": {"number": 64, "value": 127}, "group": "control_change"}, {"time": 1262, "annotation": {"number": 64, "value": 0}, "group": "control_change"}, {"time": 1264, "annotation": {"number": 64, "value": 127}, "group": "control_change"}, {"time": 1279, "annotation": {"number": 64, "value": 0}, "group": "control_change"}, {"time": 1283, "annotation": {"number": 64, "value": 127}, "group": "control_change"}, {"time": 1285, "annotation": {"number": 64, "value": 0}, "group": "control_change"}, {"time": 1288, "annotation": {"number": 64, "value": 127}, "group": "control_change"}, {"time": 1309, "annotation": {"number": 64, "value": 0}, "group": "control_change"}, {"time": 1312, "annotation": {"number": 64, "value": 127}, "group": "control_change"}, {"time": 1325, "annotation": {"number": 64, "value": 0}, "group": "control_change"}, {"time": 1329, "annotation": {"number": 64, "value": 127}, "group": "control_change"}, {"time": 1333, "annotation": {"number": 64, "value": 0}, "group": "control_change"}, {"time": 1336, "annotation": {"number": 64, "value": 127}, "group": "control_change"}, {"time": 1357, "annotation": {"number": 64, "value": 0}, "group": "control_change"}, {"time": 1360, "annotation": {"number": 64, "value": 127}, "group": "control_change"}, {"time": 1375, "annotation": {"number": 64, "value": 0}, "group": "control_change"}, {"time": 1378, "annotation": {"number": 64, "value": 127}, "group": "control_change"}, {"time": 1381, "annotation": {"number": 64, "value": 0}, "group": "control_change"}, {"time": 1384, "annotation": {"number": 64, "value": 127}, "group": "control_change"}, {"time": 1405, "annotation": {"number": 64, "value": 0}, "group": "control_change"}, {"time": 1408, "annotation": {"number": 64, "value": 127}, "group": "control_change"}, {"time": 1427, "annotation": {"number": 64, "value": 0}, "group": "control_change"}, {"time": 1432, "annotation": {"number": 64, "value": 127}, "group": "control_change"}, {"time": 1452, "annotation": {"number": 64, "value": 0}, "group": "control_change"}, {"time": 1456, "annotation": {"number": 64, "value": 127}, "group": "control_change"}, {"time": 1471, "annotation": {"number": 64, "value": 0}, "group": "control_change"}, {"time": 1480, "annotation": {"number": 64, "value": 127}, "group": "control_change"}, {"time": 1501, "annotation": {"number": 64, "value": 0}, "group": "control_change"}, {"time": 1504, "annotation": {"number": 64, "value": 127}, "group": "control_change"}, {"time": 1524, "annotation": {"number": 64, "value": 0}, "group": "control_change"}, {"time": 1528, "annotation": {"number": 64, "value": 127}, "group": "control_change"}, {"time": 1549, "annotation": {"number": 64, "value": 0}, "group": "control_change"}, {"time": 1552, "annotation": {"number": 64, "value": 127}, "group": "control_change"}, {"time": 1574, "annotation": {"number": 64, "value": 0}, "group": "control_change"}, {"time": 1576, "annotation": {"number": 64, "value": 127}, "group": "control_change"}, {"time": 1599, "annotation": {"number": 64, "value": 0}, "group": "control_change"}, {"time": 1601, "annotation": {"number": 64, "value": 127}, "group": "control_change"}, {"time": 1620, "annotation": {"number": 64, "value": 0}, "group": "control_change"}, {"time": 1624, "annotation": {"number": 64, "value": 127}, "group": "control_change"}, {"time": 1645, "annotation": {"number": 64, "value": 0}, "group": "control_change"}, {"time": 1648, "annotation": {"number": 64, "value": 127}, "group": "control_change"}, {"time": 1668, "annotation": {"number": 64, "value": 0}, "group": "control_change"}, {"time": 1672, "annotation": {"number": 64, "value": 127}, "group": "control_change"}, {"time": 1692, "annotation": {"number": 64, "value": 0}, "group": "control_change"}, {"time": 1696, "annotation": {"number": 64, "value": 127}, "group": "control_change"}, {"time": 1716, "annotation": {"number": 64, "value": 0}, "group": "control_change"}, {"time": 1720, "annotation": {"number": 64, "value": 127}, "group": "control_change"}, {"time": 1740, "annotation": {"number": 64, "value": 0}, "group": "control_change"}, {"time": 1744, "annotation": {"number": 64, "value": 127}, "group": "control_change"}, {"time": 1762, "annotation": {"number": 64, "value": 0}, "group": "control_change"}, {"time": 1768, "annotation": {"number": 64, "value": 127}, "group": "control_change"}, {"time": 1787, "annotation": {"number": 64, "value": 0}, "group": "control_change"}, {"time": 1792, "annotation": {"number": 64, "value": 127}, "group": "control_change"}, {"time": 1810, "annotation": {"number": 64, "value": 0}, "group": "control_change"}, {"time": 1816, "annotation": {"number": 64, "value": 127}, "group": "control_change"}, {"time": 1836, "annotation": {"number": 64, "value": 0}, "group": "control_change"}, {"time": 1840, "annotation": {"number": 64, "value": 127}, "group": "control_change"}, {"time": 1859, "annotation": {"number": 64, "value": 0}, "group": "control_change"}, {"time": 1864, "annotation": {"number": 64, "value": 127}, "group": "control_change"}, {"time": 1883, "annotation": {"number": 64, "value": 0}, "group": "control_change"}, {"time": 1888, "annotation": {"number": 64, "value": 127}, "group": "control_change"}, {"time": 1908, "annotation": {"number": 64, "value": 0}, "group": "control_change"}, {"time": 1912, "annotation": {"number": 64, "value": 127}, "group": "control_change"}, {"time": 1930, "annotation": {"number": 64, "value": 0}, "group": "control_change"}, {"time": 1936, "annotation": {"number": 64, "value": 127}, "group": "control_change"}, {"time": 1959, "annotation": {"number": 64, "value": 0}, "group": "control_change"}, {"time": 2032, "annotation": {"number": 64, "value": 127}, "group": "control_change"}, {"time": 2078, "annotation": {"number": 64, "value": 0}, "group": "control_change"}, {"time": 2080, "annotation": {"number": 64, "value": 127}, "group": "control_change"}, {"time": 2126, "annotation": {"number": 64, "value": 0}, "group": "control_change"}, {"time": 2128, "annotation": {"number": 64, "value": 127}, "group": "control_change"}, {"time": 2173, "annotation": {"number": 64, "value": 0}, "group": "control_change"}, {"time": 2223, "annotation": {"number": 64, "value": 0}, "group": "control_change"}, {"time": 2225, "annotation": {"number": 64, "value": 127}, "group": "control_change"}, {"time": 2270, "annotation": {"number": 64, "value": 0}, "group": "control_change"}, {"time": 2272, "annotation": {"number": 64, "value": 127}, "group": "control_change"}, {"time": 2294, "annotation": {"number": 64, "value": 0}, "group": "control_change"}, {"time": 2296, "annotation": {"number": 64, "value": 127}, "group": "control_change"}, {"time": 2318, "annotation": {"number": 64, "value": 0}, "group": "control_change"}, {"time": 2320, "annotation": {"number": 64, "value": 127}, "group": "control_change"}, {"time": 2366, "annotation": {"number": 64, "value": 0}, "group": "control_change"}, {"time": 2369, "annotation": {"number": 64, "value": 127}, "group": "control_change"}, {"time": 2390, "annotation": {"number": 64, "value": 0}, "group": "control_change"}, {"time": 2392, "annotation": {"number": 64, "value": 127}, "group": "control_change"}, {"time": 2414, "annotation": {"number": 64, "value": 0}, "group": "control_change"}, {"time": 2416, "annotation": {"number": 64, "value": 127}, "group": "control_change"}, {"time": 2438, "annotation": {"number": 64, "value": 0}, "group": "control_change"}, {"time": 2440, "annotation": {"number": 64, "value": 127}, "group": "control_change"}, {"time": 2462, "annotation": {"number": 64, "value": 0}, "group": "control_change"}, {"time": 2464, "annotation": {"number": 64, "value": 127}, "group": "control_change"}, {"time": 2485, "annotation": {"number": 64, "value": 0}, "group": "control_change"}, {"time": 2488, "annotation": {"number": 64, "value": 127}, "group": "control_change"}, {"time": 2510, "annotation": {"number": 64, "value": 0}, "group": "control_change"}, {"time": 2512, "annotation": {"number": 64, "value": 127}, "group": "control_change"}, {"time": 2534, "annotation": {"number": 64, "value": 0}, "group": "control_change"}, {"time": 2536, "annotation": {"number": 64, "value": 127}, "group": "control_change"}, {"time": 2558, "annotation": {"number": 64, "value": 0}, "group": "control_change"}, {"time": 2560, "annotation": {"number": 64, "value": 127}, "group": "control_change"}, {"time": 2582, "annotation": {"number": 64, "value": 0}, "group": "control_change"}, {"time": 2584, "annotation": {"number": 64, "value": 127}, "group": "control_change"}, {"time": 2607, "annotation": {"number": 64, "value": 0}, "group": "control_change"}, {"time": 2609, "annotation": {"number": 64, "value": 127}, "group": "control_change"}, {"time": 2630, "annotation": {"number": 64, "value": 0}, "group": "control_change"}, {"time": 2632, "annotation": {"number": 64, "value": 127}, "group": "control_change"}, {"time": 2654, "annotation": {"number": 64, "value": 0}, "group": "control_change"}, {"time": 2656, "annotation": {"number": 64, "value": 127}, "group": "control_change"}, {"time": 2677, "annotation": {"number": 64, "value": 0}, "group": "control_change"}, {"time": 2680, "annotation": {"number": 64, "value": 127}, "group": "control_change"}, {"time": 2702, "annotation": {"number": 64, "value": 0}, "group": "control_change"}, {"time": 2704, "annotation": {"number": 64, "value": 127}, "group": "control_change"}, {"time": 2726, "annotation": {"number": 64, "value": 0}, "group": "control_change"}, {"time": 2728, "annotation": {"number": 64, "value": 127}, "group": "control_change"}, {"time": 2745, "annotation": {"number": 64, "value": 0}, "group": "control_change"}, {"time": 2752, "annotation": {"number": 64, "value": 127}, "group": "control_change"}, {"time": 2753, "annotation": {"number": 64, "value": 127}, "group": "control_change"}, {"time": 2773, "annotation": {"number": 64, "value": 0}, "group": "control_change"}, {"time": 2777, "annotation": {"number": 64, "value": 127}, "group": "control_change"}, {"time": 2792, "annotation": {"number": 64, "value": 0}, "group": "control_change"}, {"time": 2793, "annotation": {"number": 64, "value": 127}, "group": "control_change"}, {"time": 2798, "annotation": {"number": 64, "value": 0}, "group": "control_change"}, {"time": 2800, "annotation": {"number": 64, "value": 127}, "group": "control_change"}, {"time": 2815, "annotation": {"number": 64, "value": 0}, "group": "control_change"}, {"time": 2819, "annotation": {"number": 64, "value": 127}, "group": "control_change"}, {"time": 2821, "annotation": {"number": 64, "value": 0}, "group": "control_change"}, {"time": 2824, "annotation": {"number": 64, "value": 127}, "group": "control_change"}, {"time": 2845, "annotation": {"number": 64, "value": 0}, "group": "control_change"}, {"time": 2848, "annotation": {"number": 64, "value": 127}, "group": "control_change"}, {"time": 2861, "annotation": {"number": 64, "value": 0}, "group": "control_change"}, {"time": 2865, "annotation": {"number": 64, "value": 127}, "group": "control_change"}, {"time": 2869, "annotation": {"number": 64, "value": 0}, "group": "control_change"}, {"time": 2872, "annotation": {"number": 64, "value": 127}, "group": "control_change"}, {"time": 2893, "annotation": {"number": 64, "value": 0}, "group": "control_change"}, {"time": 2896, "annotation": {"number": 64, "value": 127}, "group": "control_change"}, {"time": 2911, "annotation": {"number": 64, "value": 0}, "group": "control_change"}, {"time": 2914, "annotation": {"number": 64, "value": 127}, "group": "control_change"}, {"time": 2917, "annotation": {"number": 64, "value": 0}, "group": "control_change"}, {"time": 2920, "annotation": {"number": 64, "value": 127}, "group": "control_change"}, {"time": 2941, "annotation": {"number": 64, "value": 0}, "group": "control_change"}, {"time": 2944, "annotation": {"number": 64, "value": 127}, "group": "control_change"}, {"time": 2963, "annotation": {"number": 64, "value": 0}, "group": "control_change"}, {"time": 2968, "annotation": {"number": 64, "value": 127}, "group": "control_change"}, {"time": 2988, "annotation": {"number": 64, "value": 0}, "group": "control_change"}, {"time": 2992, "annotation": {"number": 64, "value": 127}, "group": "control_change"}, {"time": 3007, "annotation": {"number": 64, "value": 0}, "group": "control_change"}, {"time": 3016, "annotation": {"number": 64, "value": 127}, "group": "control_change"}, {"time": 3037, "annotation": {"number": 64, "value": 0}, "group": "control_change"}, {"time": 3040, "annotation": {"number": 64, "value": 127}, "group": "control_change"}, {"time": 3060, "annotation": {"number": 64, "value": 0}, "group": "control_change"}, {"time": 3064, "annotation": {"number": 64, "value": 127}, "group": "control_change"}, {"time": 3085, "annotation": {"number": 64, "value": 0}, "group": "control_change"}, {"time": 3088, "annotation": {"number": 64, "value": 127}, "group": "control_change"}, {"time": 3110, "annotation": {"number": 64, "value": 0}, "group": "control_change"}, {"time": 3112, "annotation": {"number": 64, "value": 127}, "group": "control_change"}, {"time": 3135, "annotation": {"number": 64, "value": 0}, "group": "control_change"}, {"time": 3137, "annotation": {"number": 64, "value": 127}, "group": "control_change"}, {"time": 3156, "annotation": {"number": 64, "value": 0}, "group": "control_change"}, {"time": 3160, "annotation": {"number": 64, "value": 127}, "group": "control_change"}, {"time": 3181, "annotation": {"number": 64, "value": 0}, "group": "control_change"}, {"time": 3184, "annotation": {"number": 64, "value": 127}, "group": "control_change"}, {"time": 3204, "annotation": {"number": 64, "value": 0}, "group": "control_change"}, {"time": 3208, "annotation": {"number": 64, "value": 127}, "group": "control_change"}, {"time": 3228, "annotation": {"number": 64, "value": 0}, "group": "control_change"}, {"time": 3232, "annotation": {"number": 64, "value": 127}, "group": "control_change"}, {"time": 3252, "annotation": {"number": 64, "value": 0}, "group": "control_change"}, {"time": 3256, "annotation": {"number": 64, "value": 127}, "group": "control_change"}, {"time": 3276, "annotation": {"number": 64, "value": 0}, "group": "control_change"}, {"time": 3280, "annotation": {"number": 64, "value": 127}, "group": "control_change"}, {"time": 3298, "annotation": {"number": 64, "value": 0}, "group": "control_change"}, {"time": 3304, "annotation": {"number": 64, "value": 127}, "group": "control_change"}, {"time": 3323, "annotation": {"number": 64, "value": 0}, "group": "control_change"}, {"time": 3328, "annotation": {"number": 64, "value": 127}, "group": "control_change"}, {"time": 3346, "annotation": {"number": 64, "value": 0}, "group": "control_change"}, {"time": 3352, "annotation": {"number": 64, "value": 127}, "group": "control_change"}, {"time": 3372, "annotation": {"number": 64, "value": 0}, "group": "control_change"}, {"time": 3376, "annotation": {"number": 64, "value": 127}, "group": "control_change"}, {"time": 3395, "annotation": {"number": 64, "value": 0}, "group": "control_change"}, {"time": 3400, "annotation": {"number": 64, "value": 127}, "group": "control_change"}, {"time": 3419, "annotation": {"number": 64, "value": 0}, "group": "control_change"}, {"time": 3424, "annotation": {"number": 64, "value": 127}, "group": "control_change"}, {"time": 3448, "annotation": {"number": 64, "value": 127}, "group": "control_change"}, {"time": 3470, "annotation": {"number": 64, "value": 0}, "group": "control_change"}, {"time": 3472, "annotation": {"number": 64, "value": 127}, "group": "control_change"}, {"time": 3518, "annotation": {"number": 64, "value": 0}, "group": "control_change"}, {"time": 3527, "annotation": {"number": 64, "value": 127}, "group": "control_change"}, {"time": 3542, "annotation": {"number": 64, "value": 0}, "group": "control_change"}, {"time": 3545, "annotation": {"number": 64, "value": 127}, "group": "control_change"}, {"time": 3616, "annotation": {"number": 64, "value": 127}, "group": "control_change"}, {"time": 3623, "annotation": {"number": 64, "value": 0}, "group": "control_change"}, {"time": 3639, "annotation": {"number": 64, "value": 0}, "group": "control_change"}, {"time": 3641, "annotation": {"number": 64, "value": 127}, "group": "control_change"}, {"time": 3687, "annotation": {"number": 64, "value": 0}, "group": "control_change"}, {"time": 3691, "annotation": {"number": 64, "value": 127}, "group": "control_change"}, {"time": 3757, "annotation": {"number": 64, "value": 0}, "group": "control_change"}, {"time": 3786, "annotation": {"number": 64, "value": 127}, "group": "control_change"}, {"time": 3789, "annotation": {"number": 64, "value": 0}, "group": "control_change"}, {"time": 3790, "annotation": {"number": 64, "value": 127}, "group": "control_change"}, {"time": 3792, "annotation": {"number": 64, "value": 0}, "group": "control_change"}]}]}