{"metadata": {"schema_version": "0.2", "title": "None", "source_filename": "451.mid", "source_format": "midi"}, "resolution": 12, "tempos": [{"time": 0, "qpm": 80.0}], "time_signatures": [{"time": 0, "numerator": 1, "denominator": 4}], "tracks": [{"program": 0, "is_drum": false, "name": "MELODY", "notes": [{"time": 573, "pitch": 57, "duration": 4, "velocity": 93}, {"time": 579, "pitch": 57, "duration": 5, "velocity": 90}, {"time": 585, "pitch": 65, "duration": 5, "velocity": 100}, {"time": 591, "pitch": 65, "duration": 4, "velocity": 95}, {"time": 597, "pitch": 65, "duration": 4, "velocity": 99}, {"time": 603, "pitch": 65, "duration": 4, "velocity": 93}, {"time": 609, "pitch": 62, "duration": 4, "velocity": 97}, {"time": 615, "pitch": 62, "duration": 3, "velocity": 93}, {"time": 621, "pitch": 62, "duration": 3, "velocity": 93}, {"time": 627, "pitch": 60, "duration": 33, "velocity": 97}, {"time": 669, "pitch": 57, "duration": 4, "velocity": 97}, {"time": 675, "pitch": 57, "duration": 5, "velocity": 93}, {"time": 681, "pitch": 62, "duration": 4, "velocity": 97}, {"time": 687, "pitch": 62, "duration": 4, "velocity": 95}, {"time": 693, "pitch": 62, "duration": 4, "velocity": 99}, {"time": 699, "pitch": 62, "duration": 3, "velocity": 86}, {"time": 705, "pitch": 60, "duration": 4, "velocity": 112}, {"time": 714, "pitch": 57, "duration": 5, "velocity": 73}, {"time": 813, "pitch": 57, "duration": 3, "velocity": 83}, {"time": 819, "pitch": 57, "duration": 4, "velocity": 81}, {"time": 825, "pitch": 65, "duration": 10, "velocity": 95}, {"time": 837, "pitch": 65, "duration": 8, "velocity": 107}, {"time": 849, "pitch": 65, "duration": 4, "velocity": 89}, {"time": 855, "pitch": 67, "duration": 4, "velocity": 97}, {"time": 861, "pitch": 67, "duration": 5, "velocity": 93}, {"time": 867, "pitch": 69, "duration": 5, "velocity": 97}, {"time": 873, "pitch": 67, "duration": 5, "velocity": 97}, {"time": 879, "pitch": 67, "duration": 4, "velocity": 100}, {"time": 885, "pitch": 67, "duration": 4, "velocity": 96}, {"time": 891, "pitch": 65, "duration": 17, "velocity": 100}, {"time": 909, "pitch": 60, "duration": 5, "velocity": 100}, {"time": 915, "pitch": 57, "duration": 5, "velocity": 81}, {"time": 921, "pitch": 62, "duration": 4, "velocity": 96}, {"time": 927, "pitch": 62, "duration": 3, "velocity": 92}, {"time": 933, "pitch": 62, "duration": 3, "velocity": 100}, {"time": 939, "pitch": 62, "duration": 2, "velocity": 97}, {"time": 945, "pitch": 60, "duration": 4, "velocity": 107}, {"time": 951, "pitch": 62, "duration": 3, "velocity": 89}, {"time": 957, "pitch": 60, "duration": 4, "velocity": 92}, {"time": 963, "pitch": 57, "duration": 25, "velocity": 79}, {"time": 1053, "pitch": 57, "duration": 4, "velocity": 81}, {"time": 1059, "pitch": 57, "duration": 4, "velocity": 89}, {"time": 1065, "pitch": 65, "duration": 4, "velocity": 89}, {"time": 1071, "pitch": 65, "duration": 3, "velocity": 82}, {"time": 1077, "pitch": 65, "duration": 2, "velocity": 95}, {"time": 1083, "pitch": 65, "duration": 4, "velocity": 96}, {"time": 1089, "pitch": 62, "duration": 3, "velocity": 89}, {"time": 1095, "pitch": 62, "duration": 3, "velocity": 90}, {"time": 1101, "pitch": 62, "duration": 5, "velocity": 99}, {"time": 1110, "pitch": 60, "duration": 23, "velocity": 97}, {"time": 1149, "pitch": 60, "duration": 5, "velocity": 117}, {"time": 1155, "pitch": 57, "duration": 6, "velocity": 89}, {"time": 1161, "pitch": 62, "duration": 4, "velocity": 102}, {"time": 1167, "pitch": 62, "duration": 4, "velocity": 102}, {"time": 1173, "pitch": 62, "duration": 4, "velocity": 99}, {"time": 1179, "pitch": 62, "duration": 6, "velocity": 122}, {"time": 1185, "pitch": 62, "duration": 6, "velocity": 99}, {"time": 1191, "pitch": 65, "duration": 4, "velocity": 99}, {"time": 1197, "pitch": 60, "duration": 5, "velocity": 112}, {"time": 1203, "pitch": 57, "duration": 20, "velocity": 100}, {"time": 1293, "pitch": 57, "duration": 3, "velocity": 102}, {"time": 1299, "pitch": 57, "duration": 6, "velocity": 100}, {"time": 1305, "pitch": 65, "duration": 8, "velocity": 117}, {"time": 1317, "pitch": 65, "duration": 7, "velocity": 127}, {"time": 1329, "pitch": 65, "duration": 5, "velocity": 107}, {"time": 1335, "pitch": 67, "duration": 9, "velocity": 102}, {"time": 1347, "pitch": 69, "duration": 5, "velocity": 102}, {"time": 1353, "pitch": 67, "duration": 5, "velocity": 122}, {"time": 1359, "pitch": 67, "duration": 3, "velocity": 122}, {"time": 1365, "pitch": 67, "duration": 4, "velocity": 112}, {"time": 1371, "pitch": 65, "duration": 16, "velocity": 100}, {"time": 1389, "pitch": 60, "duration": 4, "velocity": 99}, {"time": 1395, "pitch": 57, "duration": 6, "velocity": 96}, {"time": 1401, "pitch": 62, "duration": 4, "velocity": 100}, {"time": 1407, "pitch": 62, "duration": 3, "velocity": 96}, {"time": 1413, "pitch": 62, "duration": 3, "velocity": 102}, {"time": 1419, "pitch": 62, "duration": 3, "velocity": 102}, {"time": 1425, "pitch": 60, "duration": 6, "velocity": 112}, {"time": 1431, "pitch": 62, "duration": 7, "velocity": 112}, {"time": 1437, "pitch": 60, "duration": 11, "velocity": 117}, {"time": 1449, "pitch": 57, "duration": 31, "velocity": 97}, {"time": 1533, "pitch": 65, "duration": 5, "velocity": 112}, {"time": 1539, "pitch": 67, "duration": 6, "velocity": 122}, {"time": 1545, "pitch": 69, "duration": 4, "velocity": 117}, {"time": 1551, "pitch": 69, "duration": 4, "velocity": 117}, {"time": 1557, "pitch": 69, "duration": 3, "velocity": 100}, {"time": 1563, "pitch": 69, "duration": 3, "velocity": 102}, {"time": 1569, "pitch": 69, "duration": 3, "velocity": 122}, {"time": 1575, "pitch": 69, "duration": 4, "velocity": 112}, {"time": 1581, "pitch": 67, "duration": 3, "velocity": 122}, {"time": 1587, "pitch": 65, "duration": 3, "velocity": 112}, {"time": 1593, "pitch": 67, "duration": 4, "velocity": 122}, {"time": 1599, "pitch": 67, "duration": 4, "velocity": 122}, {"time": 1605, "pitch": 69, "duration": 4, "velocity": 127}, {"time": 1611, "pitch": 67, "duration": 12, "velocity": 127}, {"time": 1629, "pitch": 65, "duration": 3, "velocity": 112}, {"time": 1635, "pitch": 67, "duration": 4, "velocity": 122}, {"time": 1641, "pitch": 69, "duration": 4, "velocity": 117}, {"time": 1647, "pitch": 72, "duration": 4, "velocity": 122}, {"time": 1653, "pitch": 72, "duration": 3, "velocity": 127}, {"time": 1659, "pitch": 72, "duration": 4, "velocity": 117}, {"time": 1665, "pitch": 72, "duration": 3, "velocity": 127}, {"time": 1671, "pitch": 72, "duration": 3, "velocity": 127}, {"time": 1677, "pitch": 72, "duration": 3, "velocity": 127}, {"time": 1683, "pitch": 74, "duration": 3, "velocity": 122}, {"time": 1689, "pitch": 74, "duration": 2, "velocity": 127}, {"time": 1695, "pitch": 72, "duration": 6, "velocity": 127}, {"time": 1701, "pitch": 69, "duration": 3, "velocity": 95}, {"time": 1707, "pitch": 69, "duration": 12, "velocity": 112}, {"time": 1725, "pitch": 65, "duration": 8, "velocity": 117}, {"time": 1737, "pitch": 72, "duration": 3, "velocity": 122}, {"time": 1743, "pitch": 74, "duration": 3, "velocity": 112}, {"time": 1749, "pitch": 74, "duration": 3, "velocity": 127}, {"time": 1755, "pitch": 74, "duration": 3, "velocity": 122}, {"time": 1761, "pitch": 74, "duration": 4, "velocity": 127}, {"time": 1767, "pitch": 72, "duration": 7, "velocity": 127}, {"time": 1779, "pitch": 69, "duration": 3, "velocity": 122}, {"time": 1785, "pitch": 69, "duration": 5, "velocity": 117}, {"time": 1794, "pitch": 67, "duration": 9, "velocity": 95}, {"time": 1803, "pitch": 65, "duration": 5, "velocity": 102}, {"time": 1809, "pitch": 62, "duration": 9, "velocity": 102}, {"time": 1821, "pitch": 62, "duration": 5, "velocity": 117}, {"time": 1827, "pitch": 65, "duration": 5, "velocity": 127}, {"time": 1833, "pitch": 67, "duration": 4, "velocity": 127}, {"time": 1839, "pitch": 67, "duration": 4, "velocity": 117}, {"time": 1845, "pitch": 67, "duration": 3, "velocity": 122}, {"time": 1851, "pitch": 67, "duration": 8, "velocity": 127}, {"time": 1863, "pitch": 65, "duration": 11, "velocity": 112}, {"time": 1875, "pitch": 62, "duration": 6, "velocity": 112}, {"time": 1881, "pitch": 60, "duration": 24, "velocity": 97}, {"time": 1917, "pitch": 65, "duration": 3, "velocity": 112}, {"time": 1923, "pitch": 67, "duration": 4, "velocity": 127}, {"time": 1929, "pitch": 69, "duration": 3, "velocity": 127}, {"time": 1935, "pitch": 69, "duration": 4, "velocity": 127}, {"time": 1941, "pitch": 69, "duration": 3, "velocity": 127}, {"time": 1947, "pitch": 69, "duration": 3, "velocity": 122}, {"time": 1953, "pitch": 69, "duration": 3, "velocity": 127}, {"time": 1959, "pitch": 72, "duration": 3, "velocity": 127}, {"time": 1965, "pitch": 72, "duration": 3, "velocity": 127}, {"time": 1971, "pitch": 69, "duration": 5, "velocity": 122}, {"time": 1977, "pitch": 67, "duration": 4, "velocity": 127}, {"time": 1983, "pitch": 67, "duration": 3, "velocity": 117}, {"time": 1989, "pitch": 69, "duration": 5, "velocity": 112}, {"time": 1995, "pitch": 65, "duration": 12, "velocity": 127}, {"time": 2013, "pitch": 65, "duration": 4, "velocity": 122}, {"time": 2019, "pitch": 67, "duration": 5, "velocity": 122}, {"time": 2025, "pitch": 69, "duration": 4, "velocity": 107}, {"time": 2031, "pitch": 72, "duration": 3, "velocity": 122}, {"time": 2037, "pitch": 72, "duration": 3, "velocity": 127}, {"time": 2043, "pitch": 72, "duration": 3, "velocity": 127}, {"time": 2049, "pitch": 72, "duration": 3, "velocity": 127}, {"time": 2055, "pitch": 74, "duration": 3, "velocity": 127}, {"time": 2061, "pitch": 74, "duration": 3, "velocity": 127}, {"time": 2067, "pitch": 74, "duration": 3, "velocity": 122}, {"time": 2073, "pitch": 74, "duration": 3, "velocity": 127}, {"time": 2079, "pitch": 72, "duration": 8, "velocity": 122}, {"time": 2091, "pitch": 69, "duration": 5, "velocity": 102}, {"time": 2109, "pitch": 65, "duration": 9, "velocity": 117}, {"time": 2121, "pitch": 74, "duration": 4, "velocity": 127}, {"time": 2127, "pitch": 74, "duration": 4, "velocity": 127}, {"time": 2133, "pitch": 74, "duration": 4, "velocity": 127}, {"time": 2139, "pitch": 74, "duration": 4, "velocity": 117}, {"time": 2145, "pitch": 74, "duration": 3, "velocity": 127}, {"time": 2154, "pitch": 72, "duration": 6, "velocity": 127}, {"time": 2163, "pitch": 69, "duration": 4, "velocity": 112}, {"time": 2169, "pitch": 69, "duration": 7, "velocity": 127}, {"time": 2181, "pitch": 67, "duration": 6, "velocity": 122}, {"time": 2187, "pitch": 65, "duration": 5, "velocity": 102}, {"time": 2193, "pitch": 62, "duration": 11, "velocity": 102}, {"time": 2205, "pitch": 65, "duration": 4, "velocity": 127}, {"time": 2211, "pitch": 62, "duration": 4, "velocity": 112}, {"time": 2217, "pitch": 67, "duration": 4, "velocity": 127}, {"time": 2223, "pitch": 69, "duration": 3, "velocity": 127}, {"time": 2229, "pitch": 69, "duration": 3, "velocity": 122}, {"time": 2235, "pitch": 69, "duration": 4, "velocity": 127}, {"time": 2247, "pitch": 72, "duration": 6, "velocity": 127}, {"time": 2253, "pitch": 74, "duration": 6, "velocity": 122}, {"time": 2259, "pitch": 72, "duration": 5, "velocity": 117}, {"time": 2265, "pitch": 69, "duration": 50, "velocity": 117}, {"time": 2349, "pitch": 72, "duration": 4, "velocity": 97}, {"time": 2355, "pitch": 74, "duration": 5, "velocity": 127}, {"time": 2361, "pitch": 77, "duration": 3, "velocity": 127}, {"time": 2367, "pitch": 77, "duration": 4, "velocity": 127}, {"time": 2373, "pitch": 77, "duration": 4, "velocity": 127}, {"time": 2379, "pitch": 77, "duration": 4, "velocity": 117}, {"time": 2385, "pitch": 77, "duration": 6, "velocity": 127}, {"time": 2397, "pitch": 74, "duration": 9, "velocity": 127}, {"time": 2409, "pitch": 72, "duration": 5, "velocity": 127}, {"time": 2415, "pitch": 74, "duration": 4, "velocity": 127}, {"time": 2421, "pitch": 74, "duration": 3, "velocity": 127}, {"time": 2427, "pitch": 72, "duration": 4, "velocity": 127}, {"time": 2433, "pitch": 74, "duration": 7, "velocity": 127}, {"time": 2445, "pitch": 72, "duration": 4, "velocity": 112}, {"time": 2451, "pitch": 74, "duration": 4, "velocity": 127}, {"time": 2457, "pitch": 77, "duration": 4, "velocity": 127}, {"time": 2463, "pitch": 77, "duration": 4, "velocity": 127}, {"time": 2469, "pitch": 77, "duration": 3, "velocity": 122}, {"time": 2475, "pitch": 77, "duration": 3, "velocity": 127}, {"time": 2481, "pitch": 77, "duration": 4, "velocity": 127}, {"time": 2487, "pitch": 77, "duration": 3, "velocity": 127}, {"time": 2493, "pitch": 74, "duration": 4, "velocity": 127}, {"time": 2499, "pitch": 72, "duration": 3, "velocity": 127}, {"time": 2505, "pitch": 72, "duration": 3, "velocity": 127}, {"time": 2511, "pitch": 72, "duration": 7, "velocity": 127}, {"time": 2517, "pitch": 74, "duration": 5, "velocity": 107}, {"time": 2523, "pitch": 69, "duration": 15, "velocity": 107}, {"time": 2541, "pitch": 62, "duration": 4, "velocity": 112}, {"time": 2547, "pitch": 65, "duration": 4, "velocity": 127}, {"time": 2553, "pitch": 67, "duration": 4, "velocity": 127}, {"time": 2559, "pitch": 67, "duration": 4, "velocity": 112}, {"time": 2565, "pitch": 67, "duration": 3, "velocity": 112}, {"time": 2571, "pitch": 67, "duration": 3, "velocity": 112}, {"time": 2577, "pitch": 65, "duration": 3, "velocity": 127}, {"time": 2583, "pitch": 62, "duration": 4, "velocity": 112}, {"time": 2589, "pitch": 62, "duration": 5, "velocity": 122}, {"time": 2595, "pitch": 65, "duration": 5, "velocity": 127}, {"time": 2601, "pitch": 67, "duration": 20, "velocity": 127}, {"time": 2637, "pitch": 65, "duration": 4, "velocity": 112}, {"time": 2643, "pitch": 67, "duration": 5, "velocity": 127}, {"time": 2649, "pitch": 69, "duration": 9, "velocity": 127}, {"time": 2661, "pitch": 72, "duration": 9, "velocity": 127}, {"time": 2721, "pitch": 67, "duration": 5, "velocity": 127}, {"time": 2727, "pitch": 69, "duration": 5, "velocity": 107}, {"time": 2733, "pitch": 67, "duration": 6, "velocity": 127}, {"time": 2739, "pitch": 65, "duration": 5, "velocity": 112}, {"time": 2745, "pitch": 62, "duration": 50, "velocity": 122}, {"time": 3117, "pitch": 57, "duration": 4, "velocity": 81}, {"time": 3123, "pitch": 57, "duration": 4, "velocity": 89}, {"time": 3129, "pitch": 65, "duration": 4, "velocity": 89}, {"time": 3135, "pitch": 65, "duration": 3, "velocity": 82}, {"time": 3141, "pitch": 65, "duration": 2, "velocity": 95}, {"time": 3147, "pitch": 65, "duration": 4, "velocity": 96}, {"time": 3153, "pitch": 62, "duration": 3, "velocity": 89}, {"time": 3159, "pitch": 62, "duration": 3, "velocity": 90}, {"time": 3165, "pitch": 62, "duration": 5, "velocity": 99}, {"time": 3174, "pitch": 60, "duration": 23, "velocity": 97}, {"time": 3213, "pitch": 60, "duration": 5, "velocity": 117}, {"time": 3219, "pitch": 57, "duration": 6, "velocity": 89}, {"time": 3225, "pitch": 62, "duration": 4, "velocity": 102}, {"time": 3231, "pitch": 62, "duration": 4, "velocity": 102}, {"time": 3237, "pitch": 62, "duration": 4, "velocity": 99}, {"time": 3243, "pitch": 62, "duration": 6, "velocity": 122}, {"time": 3249, "pitch": 62, "duration": 6, "velocity": 99}, {"time": 3255, "pitch": 65, "duration": 4, "velocity": 99}, {"time": 3261, "pitch": 60, "duration": 5, "velocity": 112}, {"time": 3267, "pitch": 57, "duration": 20, "velocity": 100}, {"time": 3357, "pitch": 57, "duration": 3, "velocity": 102}, {"time": 3363, "pitch": 57, "duration": 6, "velocity": 100}, {"time": 3369, "pitch": 65, "duration": 8, "velocity": 117}, {"time": 3381, "pitch": 65, "duration": 7, "velocity": 127}, {"time": 3393, "pitch": 65, "duration": 5, "velocity": 107}, {"time": 3399, "pitch": 67, "duration": 9, "velocity": 102}, {"time": 3411, "pitch": 69, "duration": 5, "velocity": 102}, {"time": 3417, "pitch": 67, "duration": 5, "velocity": 122}, {"time": 3423, "pitch": 67, "duration": 3, "velocity": 122}, {"time": 3429, "pitch": 67, "duration": 4, "velocity": 112}, {"time": 3435, "pitch": 65, "duration": 16, "velocity": 100}, {"time": 3453, "pitch": 60, "duration": 4, "velocity": 99}, {"time": 3459, "pitch": 57, "duration": 6, "velocity": 96}, {"time": 3465, "pitch": 62, "duration": 4, "velocity": 100}, {"time": 3471, "pitch": 62, "duration": 3, "velocity": 96}, {"time": 3477, "pitch": 62, "duration": 3, "velocity": 102}, {"time": 3483, "pitch": 62, "duration": 3, "velocity": 102}, {"time": 3489, "pitch": 60, "duration": 6, "velocity": 112}, {"time": 3495, "pitch": 62, "duration": 7, "velocity": 112}, {"time": 3501, "pitch": 60, "duration": 11, "velocity": 117}, {"time": 3513, "pitch": 57, "duration": 31, "velocity": 97}, {"time": 3597, "pitch": 65, "duration": 5, "velocity": 112}, {"time": 3603, "pitch": 67, "duration": 6, "velocity": 122}, {"time": 3609, "pitch": 69, "duration": 4, "velocity": 117}, {"time": 3615, "pitch": 69, "duration": 4, "velocity": 117}, {"time": 3621, "pitch": 69, "duration": 3, "velocity": 100}, {"time": 3627, "pitch": 69, "duration": 3, "velocity": 102}, {"time": 3633, "pitch": 69, "duration": 3, "velocity": 122}, {"time": 3639, "pitch": 69, "duration": 4, "velocity": 112}, {"time": 3645, "pitch": 67, "duration": 3, "velocity": 122}, {"time": 3651, "pitch": 65, "duration": 3, "velocity": 112}, {"time": 3657, "pitch": 67, "duration": 4, "velocity": 122}, {"time": 3663, "pitch": 67, "duration": 4, "velocity": 122}, {"time": 3669, "pitch": 69, "duration": 4, "velocity": 127}, {"time": 3675, "pitch": 67, "duration": 12, "velocity": 127}, {"time": 3693, "pitch": 65, "duration": 3, "velocity": 112}, {"time": 3699, "pitch": 67, "duration": 4, "velocity": 122}, {"time": 3705, "pitch": 69, "duration": 4, "velocity": 117}, {"time": 3711, "pitch": 72, "duration": 4, "velocity": 122}, {"time": 3717, "pitch": 72, "duration": 3, "velocity": 127}, {"time": 3723, "pitch": 72, "duration": 4, "velocity": 117}, {"time": 3729, "pitch": 72, "duration": 3, "velocity": 127}, {"time": 3735, "pitch": 72, "duration": 3, "velocity": 127}, {"time": 3741, "pitch": 72, "duration": 3, "velocity": 127}, {"time": 3747, "pitch": 74, "duration": 3, "velocity": 122}, {"time": 3753, "pitch": 74, "duration": 2, "velocity": 127}, {"time": 3759, "pitch": 72, "duration": 6, "velocity": 127}, {"time": 3765, "pitch": 69, "duration": 3, "velocity": 95}, {"time": 3771, "pitch": 69, "duration": 12, "velocity": 112}, {"time": 3789, "pitch": 65, "duration": 8, "velocity": 117}, {"time": 3801, "pitch": 72, "duration": 3, "velocity": 122}, {"time": 3807, "pitch": 74, "duration": 3, "velocity": 112}, {"time": 3813, "pitch": 74, "duration": 3, "velocity": 127}, {"time": 3819, "pitch": 74, "duration": 3, "velocity": 122}, {"time": 3825, "pitch": 74, "duration": 4, "velocity": 127}, {"time": 3831, "pitch": 72, "duration": 7, "velocity": 127}, {"time": 3843, "pitch": 69, "duration": 3, "velocity": 122}, {"time": 3849, "pitch": 69, "duration": 5, "velocity": 117}, {"time": 3858, "pitch": 67, "duration": 9, "velocity": 95}, {"time": 3867, "pitch": 65, "duration": 5, "velocity": 102}, {"time": 3873, "pitch": 62, "duration": 9, "velocity": 102}, {"time": 3885, "pitch": 62, "duration": 5, "velocity": 117}, {"time": 3891, "pitch": 65, "duration": 5, "velocity": 127}, {"time": 3897, "pitch": 67, "duration": 4, "velocity": 127}, {"time": 3903, "pitch": 67, "duration": 4, "velocity": 117}, {"time": 3909, "pitch": 67, "duration": 3, "velocity": 122}, {"time": 3915, "pitch": 67, "duration": 8, "velocity": 127}, {"time": 3927, "pitch": 65, "duration": 11, "velocity": 112}, {"time": 3939, "pitch": 62, "duration": 6, "velocity": 112}, {"time": 3945, "pitch": 60, "duration": 24, "velocity": 97}, {"time": 3981, "pitch": 65, "duration": 3, "velocity": 112}, {"time": 3987, "pitch": 67, "duration": 4, "velocity": 127}, {"time": 3993, "pitch": 69, "duration": 3, "velocity": 127}, {"time": 3999, "pitch": 69, "duration": 4, "velocity": 127}, {"time": 4005, "pitch": 69, "duration": 3, "velocity": 127}, {"time": 4011, "pitch": 69, "duration": 3, "velocity": 122}, {"time": 4017, "pitch": 69, "duration": 3, "velocity": 127}, {"time": 4023, "pitch": 72, "duration": 3, "velocity": 127}, {"time": 4029, "pitch": 72, "duration": 3, "velocity": 127}, {"time": 4035, "pitch": 69, "duration": 5, "velocity": 122}, {"time": 4041, "pitch": 67, "duration": 4, "velocity": 127}, {"time": 4047, "pitch": 67, "duration": 3, "velocity": 117}, {"time": 4053, "pitch": 69, "duration": 5, "velocity": 112}, {"time": 4059, "pitch": 65, "duration": 12, "velocity": 127}, {"time": 4077, "pitch": 65, "duration": 4, "velocity": 122}, {"time": 4083, "pitch": 67, "duration": 5, "velocity": 122}, {"time": 4089, "pitch": 69, "duration": 4, "velocity": 107}, {"time": 4095, "pitch": 72, "duration": 3, "velocity": 122}, {"time": 4101, "pitch": 72, "duration": 3, "velocity": 127}, {"time": 4107, "pitch": 72, "duration": 3, "velocity": 127}, {"time": 4113, "pitch": 72, "duration": 3, "velocity": 127}, {"time": 4119, "pitch": 74, "duration": 3, "velocity": 127}, {"time": 4125, "pitch": 74, "duration": 3, "velocity": 127}, {"time": 4131, "pitch": 74, "duration": 3, "velocity": 122}, {"time": 4137, "pitch": 74, "duration": 3, "velocity": 127}, {"time": 4143, "pitch": 72, "duration": 8, "velocity": 122}, {"time": 4155, "pitch": 69, "duration": 5, "velocity": 102}, {"time": 4173, "pitch": 65, "duration": 9, "velocity": 117}, {"time": 4185, "pitch": 74, "duration": 4, "velocity": 127}, {"time": 4191, "pitch": 74, "duration": 4, "velocity": 127}, {"time": 4197, "pitch": 74, "duration": 4, "velocity": 127}, {"time": 4203, "pitch": 74, "duration": 4, "velocity": 117}, {"time": 4209, "pitch": 74, "duration": 3, "velocity": 127}, {"time": 4218, "pitch": 72, "duration": 6, "velocity": 127}, {"time": 4227, "pitch": 69, "duration": 4, "velocity": 112}, {"time": 4233, "pitch": 69, "duration": 7, "velocity": 127}, {"time": 4245, "pitch": 67, "duration": 6, "velocity": 122}, {"time": 4251, "pitch": 65, "duration": 5, "velocity": 102}, {"time": 4257, "pitch": 62, "duration": 11, "velocity": 102}, {"time": 4269, "pitch": 65, "duration": 4, "velocity": 127}, {"time": 4275, "pitch": 62, "duration": 4, "velocity": 112}, {"time": 4281, "pitch": 67, "duration": 4, "velocity": 127}, {"time": 4287, "pitch": 69, "duration": 3, "velocity": 127}, {"time": 4293, "pitch": 69, "duration": 3, "velocity": 122}, {"time": 4299, "pitch": 69, "duration": 4, "velocity": 127}, {"time": 4311, "pitch": 72, "duration": 6, "velocity": 127}, {"time": 4317, "pitch": 74, "duration": 6, "velocity": 122}, {"time": 4323, "pitch": 72, "duration": 5, "velocity": 117}, {"time": 4329, "pitch": 69, "duration": 50, "velocity": 117}, {"time": 4413, "pitch": 72, "duration": 4, "velocity": 97}, {"time": 4419, "pitch": 74, "duration": 5, "velocity": 127}, {"time": 4425, "pitch": 77, "duration": 3, "velocity": 127}, {"time": 4431, "pitch": 77, "duration": 4, "velocity": 127}, {"time": 4437, "pitch": 77, "duration": 4, "velocity": 127}, {"time": 4443, "pitch": 77, "duration": 4, "velocity": 117}, {"time": 4449, "pitch": 77, "duration": 6, "velocity": 127}, {"time": 4461, "pitch": 74, "duration": 9, "velocity": 127}, {"time": 4473, "pitch": 72, "duration": 5, "velocity": 127}, {"time": 4479, "pitch": 74, "duration": 4, "velocity": 127}, {"time": 4485, "pitch": 74, "duration": 3, "velocity": 127}, {"time": 4491, "pitch": 72, "duration": 4, "velocity": 127}, {"time": 4497, "pitch": 74, "duration": 7, "velocity": 127}, {"time": 4509, "pitch": 72, "duration": 4, "velocity": 112}, {"time": 4515, "pitch": 74, "duration": 4, "velocity": 127}, {"time": 4521, "pitch": 77, "duration": 4, "velocity": 127}, {"time": 4527, "pitch": 77, "duration": 4, "velocity": 127}, {"time": 4533, "pitch": 77, "duration": 3, "velocity": 122}, {"time": 4539, "pitch": 77, "duration": 3, "velocity": 127}, {"time": 4545, "pitch": 77, "duration": 4, "velocity": 127}, {"time": 4551, "pitch": 77, "duration": 3, "velocity": 127}, {"time": 4557, "pitch": 74, "duration": 4, "velocity": 127}, {"time": 4563, "pitch": 72, "duration": 3, "velocity": 127}, {"time": 4569, "pitch": 72, "duration": 3, "velocity": 127}, {"time": 4575, "pitch": 72, "duration": 7, "velocity": 127}, {"time": 4581, "pitch": 74, "duration": 5, "velocity": 107}, {"time": 4587, "pitch": 69, "duration": 15, "velocity": 107}, {"time": 4605, "pitch": 62, "duration": 4, "velocity": 112}, {"time": 4611, "pitch": 65, "duration": 4, "velocity": 127}, {"time": 4617, "pitch": 67, "duration": 4, "velocity": 127}, {"time": 4623, "pitch": 67, "duration": 4, "velocity": 112}, {"time": 4629, "pitch": 67, "duration": 3, "velocity": 112}, {"time": 4635, "pitch": 67, "duration": 3, "velocity": 112}, {"time": 4641, "pitch": 65, "duration": 3, "velocity": 127}, {"time": 4647, "pitch": 62, "duration": 4, "velocity": 112}, {"time": 4653, "pitch": 62, "duration": 5, "velocity": 122}, {"time": 4659, "pitch": 65, "duration": 5, "velocity": 127}, {"time": 4665, "pitch": 67, "duration": 20, "velocity": 127}, {"time": 4701, "pitch": 65, "duration": 4, "velocity": 112}, {"time": 4707, "pitch": 67, "duration": 5, "velocity": 127}, {"time": 4713, "pitch": 69, "duration": 9, "velocity": 127}, {"time": 4725, "pitch": 72, "duration": 53, "velocity": 127}, {"time": 4785, "pitch": 67, "duration": 5, "velocity": 127}, {"time": 4791, "pitch": 69, "duration": 5, "velocity": 107}, {"time": 4797, "pitch": 67, "duration": 6, "velocity": 127}, {"time": 4803, "pitch": 65, "duration": 5, "velocity": 112}, {"time": 4809, "pitch": 62, "duration": 50, "velocity": 122}]}, {"program": 0, "is_drum": false, "name": "BRIDGE", "notes": [{"time": 9, "pitch": 77, "duration": 6, "velocity": 107}, {"time": 15, "pitch": 79, "duration": 6, "velocity": 93}, {"time": 21, "pitch": 81, "duration": 28, "velocity": 112}, {"time": 51, "pitch": 88, "duration": 4, "velocity": 89}, {"time": 54, "pitch": 89, "duration": 2, "velocity": 92}, {"time": 57, "pitch": 96, "duration": 35, "velocity": 95}, {"time": 87, "pitch": 72, "duration": 5, "velocity": 92}, {"time": 93, "pitch": 74, "duration": 6, "velocity": 95}, {"time": 99, "pitch": 77, "duration": 19, "velocity": 90}, {"time": 111, "pitch": 79, "duration": 6, "velocity": 90}, {"time": 117, "pitch": 81, "duration": 5, "velocity": 93}, {"time": 123, "pitch": 74, "duration": 35, "velocity": 95}, {"time": 147, "pitch": 84, "duration": 5, "velocity": 90}, {"time": 153, "pitch": 76, "duration": 29, "velocity": 86}, {"time": 201, "pitch": 77, "duration": 7, "velocity": 92}, {"time": 207, "pitch": 79, "duration": 6, "velocity": 77}, {"time": 213, "pitch": 81, "duration": 5, "velocity": 85}, {"time": 219, "pitch": 74, "duration": 20, "velocity": 70}, {"time": 243, "pitch": 81, "duration": 6, "velocity": 97}, {"time": 249, "pitch": 82, "duration": 9, "velocity": 99}, {"time": 258, "pitch": 84, "duration": 9, "velocity": 92}, {"time": 267, "pitch": 81, "duration": 18, "velocity": 92}, {"time": 291, "pitch": 79, "duration": 3, "velocity": 89}, {"time": 294, "pitch": 81, "duration": 2, "velocity": 73}, {"time": 297, "pitch": 82, "duration": 13, "velocity": 102}, {"time": 321, "pitch": 74, "duration": 16, "velocity": 92}, {"time": 333, "pitch": 82, "duration": 5, "velocity": 117}, {"time": 339, "pitch": 81, "duration": 2, "velocity": 92}, {"time": 342, "pitch": 79, "duration": 3, "velocity": 82}, {"time": 345, "pitch": 81, "duration": 33, "velocity": 97}, {"time": 387, "pitch": 74, "duration": 5, "velocity": 95}, {"time": 393, "pitch": 77, "duration": 7, "velocity": 99}, {"time": 399, "pitch": 79, "duration": 6, "velocity": 88}, {"time": 405, "pitch": 81, "duration": 6, "velocity": 89}, {"time": 411, "pitch": 74, "duration": 11, "velocity": 82}, {"time": 417, "pitch": 69, "duration": 13, "velocity": 75}, {"time": 429, "pitch": 81, "duration": 6, "velocity": 97}, {"time": 435, "pitch": 82, "duration": 5, "velocity": 107}, {"time": 441, "pitch": 81, "duration": 16, "velocity": 99}, {"time": 483, "pitch": 82, "duration": 2, "velocity": 102}, {"time": 486, "pitch": 81, "duration": 3, "velocity": 85}, {"time": 489, "pitch": 82, "duration": 6, "velocity": 102}, {"time": 495, "pitch": 77, "duration": 6, "velocity": 89}, {"time": 507, "pitch": 82, "duration": 7, "velocity": 100}, {"time": 513, "pitch": 84, "duration": 22, "velocity": 107}, {"time": 531, "pitch": 77, "duration": 5, "velocity": 90}, {"time": 537, "pitch": 86, "duration": 24, "velocity": 97}, {"time": 657, "pitch": 84, "duration": 7, "velocity": 89}, {"time": 663, "pitch": 76, "duration": 6, "velocity": 82}, {"time": 669, "pitch": 72, "duration": 14, "velocity": 86}, {"time": 735, "pitch": 72, "duration": 8, "velocity": 90}, {"time": 747, "pitch": 81, "duration": 19, "velocity": 100}, {"time": 759, "pitch": 72, "duration": 12, "velocity": 71}, {"time": 771, "pitch": 69, "duration": 30, "velocity": 75}, {"time": 813, "pitch": 81, "duration": 13, "velocity": 78}, {"time": 999, "pitch": 79, "duration": 6, "velocity": 85}, {"time": 1005, "pitch": 81, "duration": 6, "velocity": 86}, {"time": 1011, "pitch": 84, "duration": 17, "velocity": 107}, {"time": 1017, "pitch": 76, "duration": 22, "velocity": 76}, {"time": 1233, "pitch": 84, "duration": 10, "velocity": 69}, {"time": 1242, "pitch": 81, "duration": 31, "velocity": 79}, {"time": 1287, "pitch": 72, "duration": 6, "velocity": 89}, {"time": 1293, "pitch": 79, "duration": 5, "velocity": 100}, {"time": 1299, "pitch": 81, "duration": 6, "velocity": 77}, {"time": 1305, "pitch": 74, "duration": 23, "velocity": 81}, {"time": 1449, "pitch": 88, "duration": 8, "velocity": 112}, {"time": 1458, "pitch": 84, "duration": 8, "velocity": 107}, {"time": 1467, "pitch": 81, "duration": 5, "velocity": 97}, {"time": 1473, "pitch": 77, "duration": 9, "velocity": 83}, {"time": 1482, "pitch": 76, "duration": 9, "velocity": 66}, {"time": 1491, "pitch": 72, "duration": 11, "velocity": 92}, {"time": 1497, "pitch": 84, "duration": 15, "velocity": 97}, {"time": 1893, "pitch": 89, "duration": 2, "velocity": 127}, {"time": 1896, "pitch": 88, "duration": 3, "velocity": 79}, {"time": 1899, "pitch": 89, "duration": 3, "velocity": 93}, {"time": 1902, "pitch": 88, "duration": 3, "velocity": 93}, {"time": 1905, "pitch": 84, "duration": 3, "velocity": 102}, {"time": 1908, "pitch": 79, "duration": 3, "velocity": 95}, {"time": 1911, "pitch": 76, "duration": 3, "velocity": 93}, {"time": 1914, "pitch": 74, "duration": 2, "velocity": 90}, {"time": 1917, "pitch": 72, "duration": 10, "velocity": 89}, {"time": 2103, "pitch": 88, "duration": 3, "velocity": 107}, {"time": 2109, "pitch": 88, "duration": 8, "velocity": 127}, {"time": 2265, "pitch": 83, "duration": 2, "velocity": 117}, {"time": 2271, "pitch": 83, "duration": 2, "velocity": 127}, {"time": 2277, "pitch": 71, "duration": 3, "velocity": 127}, {"time": 2280, "pitch": 72, "duration": 3, "velocity": 96}, {"time": 2283, "pitch": 71, "duration": 4, "velocity": 127}, {"time": 2289, "pitch": 71, "duration": 3, "velocity": 127}, {"time": 2292, "pitch": 72, "duration": 3, "velocity": 96}, {"time": 2295, "pitch": 71, "duration": 5, "velocity": 93}, {"time": 2307, "pitch": 59, "duration": 3, "velocity": 85}, {"time": 2307, "pitch": 71, "duration": 4, "velocity": 112}, {"time": 2310, "pitch": 60, "duration": 2, "velocity": 86}, {"time": 2310, "pitch": 72, "duration": 3, "velocity": 89}, {"time": 2313, "pitch": 67, "duration": 2, "velocity": 97}, {"time": 2313, "pitch": 74, "duration": 2, "velocity": 93}, {"time": 2322, "pitch": 67, "duration": 2, "velocity": 99}, {"time": 2322, "pitch": 74, "duration": 1, "velocity": 90}, {"time": 2331, "pitch": 67, "duration": 2, "velocity": 96}, {"time": 2331, "pitch": 74, "duration": 2, "velocity": 100}, {"time": 2340, "pitch": 69, "duration": 3, "velocity": 90}, {"time": 2340, "pitch": 76, "duration": 3, "velocity": 99}, {"time": 2349, "pitch": 69, "duration": 2, "velocity": 93}, {"time": 2349, "pitch": 76, "duration": 2, "velocity": 102}, {"time": 2751, "pitch": 76, "duration": 3, "velocity": 39}, {"time": 2754, "pitch": 77, "duration": 2, "velocity": 73}, {"time": 2757, "pitch": 77, "duration": 5, "velocity": 102}, {"time": 2763, "pitch": 76, "duration": 1, "velocity": 79}, {"time": 2766, "pitch": 76, "duration": 2, "velocity": 73}, {"time": 2769, "pitch": 69, "duration": 7, "velocity": 99}, {"time": 2775, "pitch": 76, "duration": 3, "velocity": 112}, {"time": 2778, "pitch": 77, "duration": 3, "velocity": 82}, {"time": 2781, "pitch": 76, "duration": 4, "velocity": 107}, {"time": 2787, "pitch": 72, "duration": 1, "velocity": 96}, {"time": 2790, "pitch": 72, "duration": 3, "velocity": 81}, {"time": 2793, "pitch": 69, "duration": 6, "velocity": 100}, {"time": 2799, "pitch": 67, "duration": 3, "velocity": 112}, {"time": 2802, "pitch": 69, "duration": 2, "velocity": 85}, {"time": 2805, "pitch": 65, "duration": 12, "velocity": 81}, {"time": 2814, "pitch": 69, "duration": 19, "velocity": 102}, {"time": 2841, "pitch": 69, "duration": 3, "velocity": 96}, {"time": 2844, "pitch": 72, "duration": 3, "velocity": 96}, {"time": 2847, "pitch": 76, "duration": 1, "velocity": 77}, {"time": 2850, "pitch": 81, "duration": 4, "velocity": 117}, {"time": 2856, "pitch": 79, "duration": 3, "velocity": 122}, {"time": 2862, "pitch": 76, "duration": 5, "velocity": 112}, {"time": 2868, "pitch": 72, "duration": 3, "velocity": 107}, {"time": 2874, "pitch": 69, "duration": 4, "velocity": 95}, {"time": 2883, "pitch": 74, "duration": 3, "velocity": 127}, {"time": 2886, "pitch": 76, "duration": 2, "velocity": 90}, {"time": 2889, "pitch": 77, "duration": 5, "velocity": 127}, {"time": 2895, "pitch": 76, "duration": 3, "velocity": 96}, {"time": 2898, "pitch": 77, "duration": 4, "velocity": 122}, {"time": 2904, "pitch": 79, "duration": 5, "velocity": 127}, {"time": 2910, "pitch": 76, "duration": 8, "velocity": 102}, {"time": 2919, "pitch": 74, "duration": 3, "velocity": 112}, {"time": 2922, "pitch": 72, "duration": 3, "velocity": 95}, {"time": 2925, "pitch": 69, "duration": 4, "velocity": 97}, {"time": 2928, "pitch": 72, "duration": 2, "velocity": 88}, {"time": 2931, "pitch": 77, "duration": 3, "velocity": 93}, {"time": 2934, "pitch": 76, "duration": 3, "velocity": 93}, {"time": 2937, "pitch": 74, "duration": 3, "velocity": 107}, {"time": 2940, "pitch": 76, "duration": 4, "velocity": 97}, {"time": 2943, "pitch": 77, "duration": 2, "velocity": 122}, {"time": 2946, "pitch": 76, "duration": 4, "velocity": 112}, {"time": 2949, "pitch": 77, "duration": 3, "velocity": 122}, {"time": 2952, "pitch": 79, "duration": 3, "velocity": 96}, {"time": 2955, "pitch": 81, "duration": 2, "velocity": 127}, {"time": 2958, "pitch": 79, "duration": 4, "velocity": 117}, {"time": 2961, "pitch": 81, "duration": 2, "velocity": 107}, {"time": 2964, "pitch": 84, "duration": 2, "velocity": 122}, {"time": 2967, "pitch": 81, "duration": 4, "velocity": 102}, {"time": 2970, "pitch": 84, "duration": 4, "velocity": 127}, {"time": 2973, "pitch": 86, "duration": 4, "velocity": 122}, {"time": 2976, "pitch": 88, "duration": 4, "velocity": 122}, {"time": 2979, "pitch": 86, "duration": 2, "velocity": 112}, {"time": 2982, "pitch": 84, "duration": 1, "velocity": 100}, {"time": 2985, "pitch": 84, "duration": 5, "velocity": 127}, {"time": 2991, "pitch": 81, "duration": 1, "velocity": 88}, {"time": 2994, "pitch": 81, "duration": 6, "velocity": 127}, {"time": 3000, "pitch": 79, "duration": 4, "velocity": 122}, {"time": 3006, "pitch": 79, "duration": 5, "velocity": 112}, {"time": 3012, "pitch": 76, "duration": 4, "velocity": 100}, {"time": 3018, "pitch": 76, "duration": 5, "velocity": 95}, {"time": 3024, "pitch": 79, "duration": 3, "velocity": 117}, {"time": 3033, "pitch": 77, "duration": 3, "velocity": 127}, {"time": 3036, "pitch": 76, "duration": 3, "velocity": 93}, {"time": 3039, "pitch": 74, "duration": 3, "velocity": 99}, {"time": 3042, "pitch": 77, "duration": 5, "velocity": 117}, {"time": 3048, "pitch": 76, "duration": 5, "velocity": 122}, {"time": 3054, "pitch": 74, "duration": 3, "velocity": 92}, {"time": 3057, "pitch": 76, "duration": 6, "velocity": 112}, {"time": 3063, "pitch": 74, "duration": 3, "velocity": 112}, {"time": 3066, "pitch": 72, "duration": 3, "velocity": 117}, {"time": 3069, "pitch": 69, "duration": 3, "velocity": 99}, {"time": 3072, "pitch": 67, "duration": 3, "velocity": 99}, {"time": 3075, "pitch": 65, "duration": 5, "velocity": 97}, {"time": 3081, "pitch": 62, "duration": 3, "velocity": 112}, {"time": 3084, "pitch": 64, "duration": 4, "velocity": 85}, {"time": 3087, "pitch": 65, "duration": 2, "velocity": 66}, {"time": 3090, "pitch": 64, "duration": 3, "velocity": 67}, {"time": 3093, "pitch": 65, "duration": 4, "velocity": 79}, {"time": 3096, "pitch": 67, "duration": 3, "velocity": 78}, {"time": 3099, "pitch": 69, "duration": 1, "velocity": 99}, {"time": 3102, "pitch": 74, "duration": 27, "velocity": 97}, {"time": 3102, "pitch": 88, "duration": 3, "velocity": 81}, {"time": 3104, "pitch": 93, "duration": 1, "velocity": 92}, {"time": 3105, "pitch": 96, "duration": 27, "velocity": 100}, {"time": 3297, "pitch": 84, "duration": 10, "velocity": 69}, {"time": 3306, "pitch": 81, "duration": 31, "velocity": 79}, {"time": 3351, "pitch": 72, "duration": 6, "velocity": 89}, {"time": 3357, "pitch": 79, "duration": 5, "velocity": 100}, {"time": 3363, "pitch": 81, "duration": 6, "velocity": 77}, {"time": 3369, "pitch": 74, "duration": 23, "velocity": 81}, {"time": 3513, "pitch": 88, "duration": 8, "velocity": 112}, {"time": 3522, "pitch": 84, "duration": 8, "velocity": 107}, {"time": 3531, "pitch": 81, "duration": 5, "velocity": 97}, {"time": 3537, "pitch": 77, "duration": 9, "velocity": 83}, {"time": 3546, "pitch": 76, "duration": 9, "velocity": 66}, {"time": 3555, "pitch": 72, "duration": 11, "velocity": 92}, {"time": 3561, "pitch": 84, "duration": 15, "velocity": 97}, {"time": 3957, "pitch": 89, "duration": 2, "velocity": 127}, {"time": 3960, "pitch": 88, "duration": 3, "velocity": 79}, {"time": 3963, "pitch": 89, "duration": 3, "velocity": 93}, {"time": 3966, "pitch": 88, "duration": 3, "velocity": 93}, {"time": 3969, "pitch": 84, "duration": 3, "velocity": 102}, {"time": 3972, "pitch": 79, "duration": 3, "velocity": 95}, {"time": 3975, "pitch": 76, "duration": 3, "velocity": 93}, {"time": 3978, "pitch": 74, "duration": 2, "velocity": 90}, {"time": 3981, "pitch": 72, "duration": 10, "velocity": 89}, {"time": 4167, "pitch": 88, "duration": 3, "velocity": 107}, {"time": 4173, "pitch": 88, "duration": 8, "velocity": 127}, {"time": 4329, "pitch": 83, "duration": 2, "velocity": 117}, {"time": 4335, "pitch": 83, "duration": 2, "velocity": 127}, {"time": 4341, "pitch": 71, "duration": 3, "velocity": 127}, {"time": 4344, "pitch": 72, "duration": 3, "velocity": 96}, {"time": 4347, "pitch": 71, "duration": 4, "velocity": 127}, {"time": 4353, "pitch": 71, "duration": 3, "velocity": 127}, {"time": 4356, "pitch": 72, "duration": 3, "velocity": 96}, {"time": 4359, "pitch": 71, "duration": 5, "velocity": 93}, {"time": 4371, "pitch": 59, "duration": 3, "velocity": 85}, {"time": 4371, "pitch": 71, "duration": 4, "velocity": 112}, {"time": 4374, "pitch": 60, "duration": 2, "velocity": 86}, {"time": 4374, "pitch": 72, "duration": 3, "velocity": 89}, {"time": 4377, "pitch": 67, "duration": 2, "velocity": 97}, {"time": 4377, "pitch": 74, "duration": 2, "velocity": 93}, {"time": 4386, "pitch": 67, "duration": 2, "velocity": 99}, {"time": 4386, "pitch": 74, "duration": 1, "velocity": 90}, {"time": 4395, "pitch": 67, "duration": 2, "velocity": 96}, {"time": 4395, "pitch": 74, "duration": 2, "velocity": 100}, {"time": 4404, "pitch": 69, "duration": 3, "velocity": 90}, {"time": 4404, "pitch": 76, "duration": 3, "velocity": 99}, {"time": 4413, "pitch": 69, "duration": 2, "velocity": 93}, {"time": 4413, "pitch": 76, "duration": 2, "velocity": 102}, {"time": 4815, "pitch": 76, "duration": 3, "velocity": 39}, {"time": 4818, "pitch": 77, "duration": 2, "velocity": 73}, {"time": 4821, "pitch": 77, "duration": 5, "velocity": 102}, {"time": 4827, "pitch": 76, "duration": 1, "velocity": 79}, {"time": 4830, "pitch": 76, "duration": 2, "velocity": 73}, {"time": 4833, "pitch": 69, "duration": 7, "velocity": 99}, {"time": 4839, "pitch": 76, "duration": 3, "velocity": 112}, {"time": 4842, "pitch": 77, "duration": 3, "velocity": 82}, {"time": 4845, "pitch": 76, "duration": 4, "velocity": 107}, {"time": 4851, "pitch": 72, "duration": 1, "velocity": 96}, {"time": 4854, "pitch": 72, "duration": 3, "velocity": 81}, {"time": 4857, "pitch": 69, "duration": 6, "velocity": 100}, {"time": 4863, "pitch": 67, "duration": 3, "velocity": 112}, {"time": 4866, "pitch": 69, "duration": 2, "velocity": 85}, {"time": 4869, "pitch": 65, "duration": 12, "velocity": 81}, {"time": 4878, "pitch": 69, "duration": 19, "velocity": 102}, {"time": 4905, "pitch": 69, "duration": 3, "velocity": 96}, {"time": 4908, "pitch": 72, "duration": 3, "velocity": 96}, {"time": 4911, "pitch": 76, "duration": 1, "velocity": 77}, {"time": 4914, "pitch": 81, "duration": 4, "velocity": 117}, {"time": 4920, "pitch": 79, "duration": 3, "velocity": 122}, {"time": 4926, "pitch": 76, "duration": 5, "velocity": 112}, {"time": 4932, "pitch": 72, "duration": 3, "velocity": 107}, {"time": 4938, "pitch": 69, "duration": 4, "velocity": 95}, {"time": 4947, "pitch": 74, "duration": 3, "velocity": 127}, {"time": 4950, "pitch": 76, "duration": 2, "velocity": 90}, {"time": 4953, "pitch": 77, "duration": 5, "velocity": 127}, {"time": 4959, "pitch": 76, "duration": 3, "velocity": 96}, {"time": 4962, "pitch": 77, "duration": 4, "velocity": 122}, {"time": 4968, "pitch": 79, "duration": 5, "velocity": 127}, {"time": 4974, "pitch": 76, "duration": 8, "velocity": 102}, {"time": 4983, "pitch": 74, "duration": 3, "velocity": 112}, {"time": 4986, "pitch": 72, "duration": 3, "velocity": 95}, {"time": 4989, "pitch": 69, "duration": 4, "velocity": 97}, {"time": 4992, "pitch": 72, "duration": 2, "velocity": 88}, {"time": 4995, "pitch": 77, "duration": 3, "velocity": 93}, {"time": 4998, "pitch": 76, "duration": 3, "velocity": 93}, {"time": 5001, "pitch": 74, "duration": 3, "velocity": 107}, {"time": 5004, "pitch": 76, "duration": 4, "velocity": 97}, {"time": 5007, "pitch": 77, "duration": 2, "velocity": 122}, {"time": 5010, "pitch": 76, "duration": 4, "velocity": 112}, {"time": 5013, "pitch": 77, "duration": 3, "velocity": 122}, {"time": 5016, "pitch": 79, "duration": 3, "velocity": 96}, {"time": 5019, "pitch": 81, "duration": 2, "velocity": 127}, {"time": 5022, "pitch": 79, "duration": 4, "velocity": 117}, {"time": 5025, "pitch": 81, "duration": 2, "velocity": 107}, {"time": 5028, "pitch": 84, "duration": 2, "velocity": 122}, {"time": 5031, "pitch": 81, "duration": 4, "velocity": 102}, {"time": 5034, "pitch": 84, "duration": 4, "velocity": 127}, {"time": 5037, "pitch": 86, "duration": 4, "velocity": 122}, {"time": 5040, "pitch": 88, "duration": 4, "velocity": 122}, {"time": 5043, "pitch": 86, "duration": 2, "velocity": 112}, {"time": 5046, "pitch": 84, "duration": 1, "velocity": 100}, {"time": 5049, "pitch": 84, "duration": 5, "velocity": 127}, {"time": 5055, "pitch": 81, "duration": 1, "velocity": 88}, {"time": 5058, "pitch": 81, "duration": 6, "velocity": 127}, {"time": 5064, "pitch": 79, "duration": 4, "velocity": 122}, {"time": 5070, "pitch": 79, "duration": 5, "velocity": 112}, {"time": 5076, "pitch": 76, "duration": 4, "velocity": 100}, {"time": 5082, "pitch": 76, "duration": 5, "velocity": 95}, {"time": 5088, "pitch": 79, "duration": 3, "velocity": 117}, {"time": 5097, "pitch": 77, "duration": 3, "velocity": 127}, {"time": 5100, "pitch": 76, "duration": 3, "velocity": 93}, {"time": 5103, "pitch": 74, "duration": 3, "velocity": 99}, {"time": 5106, "pitch": 77, "duration": 5, "velocity": 117}, {"time": 5112, "pitch": 76, "duration": 5, "velocity": 122}, {"time": 5118, "pitch": 74, "duration": 3, "velocity": 92}, {"time": 5121, "pitch": 76, "duration": 6, "velocity": 112}, {"time": 5127, "pitch": 74, "duration": 3, "velocity": 112}, {"time": 5130, "pitch": 72, "duration": 3, "velocity": 117}, {"time": 5133, "pitch": 69, "duration": 3, "velocity": 99}, {"time": 5136, "pitch": 67, "duration": 3, "velocity": 99}, {"time": 5139, "pitch": 65, "duration": 5, "velocity": 97}, {"time": 5145, "pitch": 77, "duration": 6, "velocity": 127}, {"time": 5151, "pitch": 72, "duration": 6, "velocity": 82}, {"time": 5157, "pitch": 74, "duration": 6, "velocity": 66}, {"time": 5163, "pitch": 72, "duration": 6, "velocity": 58}, {"time": 5169, "pitch": 74, "duration": 8, "velocity": 52}, {"time": 5175, "pitch": 77, "duration": 2, "velocity": 100}, {"time": 5178, "pitch": 79, "duration": 3, "velocity": 82}, {"time": 5181, "pitch": 77, "duration": 3, "velocity": 102}, {"time": 5184, "pitch": 76, "duration": 2, "velocity": 81}, {"time": 5187, "pitch": 72, "duration": 18, "velocity": 82}]}, {"program": 0, "is_drum": false, "name": "PIANO", "notes": [{"time": 9, "pitch": 38, "duration": 94, "velocity": 75}, {"time": 15, "pitch": 45, "duration": 91, "velocity": 36}, {"time": 21, "pitch": 50, "duration": 83, "velocity": 43}, {"time": 27, "pitch": 57, "duration": 94, "velocity": 55}, {"time": 33, "pitch": 65, "duration": 89, "velocity": 34}, {"time": 105, "pitch": 38, "duration": 36, "velocity": 69}, {"time": 111, "pitch": 45, "duration": 30, "velocity": 40}, {"time": 117, "pitch": 50, "duration": 26, "velocity": 39}, {"time": 123, "pitch": 57, "duration": 31, "velocity": 68}, {"time": 141, "pitch": 65, "duration": 11, "velocity": 78}, {"time": 153, "pitch": 45, "duration": 37, "velocity": 69}, {"time": 159, "pitch": 52, "duration": 27, "velocity": 63}, {"time": 165, "pitch": 57, "duration": 37, "velocity": 62}, {"time": 171, "pitch": 64, "duration": 31, "velocity": 90}, {"time": 177, "pitch": 60, "duration": 24, "velocity": 69}, {"time": 201, "pitch": 38, "duration": 36, "velocity": 72}, {"time": 207, "pitch": 45, "duration": 29, "velocity": 56}, {"time": 213, "pitch": 50, "duration": 25, "velocity": 72}, {"time": 219, "pitch": 65, "duration": 31, "velocity": 89}, {"time": 237, "pitch": 62, "duration": 12, "velocity": 50}, {"time": 249, "pitch": 46, "duration": 36, "velocity": 73}, {"time": 255, "pitch": 53, "duration": 28, "velocity": 47}, {"time": 261, "pitch": 58, "duration": 22, "velocity": 78}, {"time": 267, "pitch": 65, "duration": 28, "velocity": 78}, {"time": 285, "pitch": 62, "duration": 13, "velocity": 65}, {"time": 294, "pitch": 43, "duration": 37, "velocity": 81}, {"time": 303, "pitch": 50, "duration": 30, "velocity": 59}, {"time": 309, "pitch": 55, "duration": 18, "velocity": 78}, {"time": 315, "pitch": 70, "duration": 27, "velocity": 107}, {"time": 333, "pitch": 67, "duration": 11, "velocity": 75}, {"time": 339, "pitch": 62, "duration": 6, "velocity": 53}, {"time": 345, "pitch": 38, "duration": 46, "velocity": 79}, {"time": 351, "pitch": 45, "duration": 43, "velocity": 53}, {"time": 357, "pitch": 50, "duration": 43, "velocity": 78}, {"time": 363, "pitch": 57, "duration": 66, "velocity": 79}, {"time": 369, "pitch": 65, "duration": 45, "velocity": 83}, {"time": 393, "pitch": 38, "duration": 22, "velocity": 59}, {"time": 399, "pitch": 45, "duration": 16, "velocity": 56}, {"time": 405, "pitch": 50, "duration": 10, "velocity": 69}, {"time": 411, "pitch": 62, "duration": 31, "velocity": 59}, {"time": 417, "pitch": 65, "duration": 16, "velocity": 74}, {"time": 429, "pitch": 57, "duration": 12, "velocity": 42}, {"time": 435, "pitch": 65, "duration": 8, "velocity": 53}, {"time": 441, "pitch": 45, "duration": 31, "velocity": 69}, {"time": 447, "pitch": 52, "duration": 22, "velocity": 62}, {"time": 453, "pitch": 57, "duration": 12, "velocity": 63}, {"time": 459, "pitch": 60, "duration": 30, "velocity": 57}, {"time": 465, "pitch": 64, "duration": 23, "velocity": 66}, {"time": 465, "pitch": 69, "duration": 24, "velocity": 63}, {"time": 489, "pitch": 46, "duration": 18, "velocity": 90}, {"time": 495, "pitch": 53, "duration": 12, "velocity": 45}, {"time": 501, "pitch": 58, "duration": 7, "velocity": 90}, {"time": 507, "pitch": 70, "duration": 7, "velocity": 90}, {"time": 513, "pitch": 48, "duration": 16, "velocity": 73}, {"time": 519, "pitch": 55, "duration": 10, "velocity": 65}, {"time": 525, "pitch": 67, "duration": 13, "velocity": 75}, {"time": 531, "pitch": 64, "duration": 7, "velocity": 46}, {"time": 537, "pitch": 38, "duration": 46, "velocity": 68}, {"time": 543, "pitch": 45, "duration": 42, "velocity": 53}, {"time": 549, "pitch": 50, "duration": 35, "velocity": 56}, {"time": 555, "pitch": 57, "duration": 31, "velocity": 55}, {"time": 561, "pitch": 62, "duration": 25, "velocity": 63}, {"time": 561, "pitch": 65, "duration": 25, "velocity": 61}, {"time": 585, "pitch": 38, "duration": 35, "velocity": 69}, {"time": 591, "pitch": 45, "duration": 30, "velocity": 56}, {"time": 597, "pitch": 50, "duration": 23, "velocity": 50}, {"time": 603, "pitch": 57, "duration": 7, "velocity": 58}, {"time": 609, "pitch": 62, "duration": 25, "velocity": 69}, {"time": 609, "pitch": 65, "duration": 25, "velocity": 78}, {"time": 621, "pitch": 57, "duration": 13, "velocity": 62}, {"time": 633, "pitch": 45, "duration": 37, "velocity": 70}, {"time": 639, "pitch": 52, "duration": 30, "velocity": 41}, {"time": 645, "pitch": 57, "duration": 18, "velocity": 71}, {"time": 651, "pitch": 60, "duration": 14, "velocity": 42}, {"time": 657, "pitch": 64, "duration": 14, "velocity": 59}, {"time": 657, "pitch": 69, "duration": 25, "velocity": 60}, {"time": 669, "pitch": 60, "duration": 14, "velocity": 72}, {"time": 675, "pitch": 64, "duration": 8, "velocity": 53}, {"time": 681, "pitch": 38, "duration": 37, "velocity": 75}, {"time": 687, "pitch": 45, "duration": 32, "velocity": 47}, {"time": 693, "pitch": 50, "duration": 25, "velocity": 67}, {"time": 699, "pitch": 57, "duration": 30, "velocity": 60}, {"time": 705, "pitch": 65, "duration": 25, "velocity": 72}, {"time": 717, "pitch": 62, "duration": 12, "velocity": 63}, {"time": 729, "pitch": 45, "duration": 45, "velocity": 53}, {"time": 735, "pitch": 52, "duration": 21, "velocity": 64}, {"time": 741, "pitch": 57, "duration": 14, "velocity": 73}, {"time": 747, "pitch": 60, "duration": 7, "velocity": 65}, {"time": 753, "pitch": 64, "duration": 42, "velocity": 67}, {"time": 753, "pitch": 69, "duration": 41, "velocity": 69}, {"time": 765, "pitch": 60, "duration": 24, "velocity": 51}, {"time": 777, "pitch": 45, "duration": 32, "velocity": 58}, {"time": 783, "pitch": 52, "duration": 21, "velocity": 50}, {"time": 789, "pitch": 57, "duration": 14, "velocity": 76}, {"time": 795, "pitch": 60, "duration": 7, "velocity": 59}, {"time": 801, "pitch": 64, "duration": 25, "velocity": 69}, {"time": 801, "pitch": 69, "duration": 24, "velocity": 82}, {"time": 807, "pitch": 52, "duration": 2, "velocity": 32}, {"time": 813, "pitch": 60, "duration": 14, "velocity": 65}, {"time": 825, "pitch": 38, "duration": 24, "velocity": 61}, {"time": 831, "pitch": 45, "duration": 18, "velocity": 38}, {"time": 837, "pitch": 50, "duration": 12, "velocity": 70}, {"time": 843, "pitch": 57, "duration": 6, "velocity": 64}, {"time": 873, "pitch": 36, "duration": 6, "velocity": 73}, {"time": 879, "pitch": 55, "duration": 6, "velocity": 75}, {"time": 885, "pitch": 60, "duration": 4, "velocity": 78}, {"time": 891, "pitch": 41, "duration": 21, "velocity": 58}, {"time": 891, "pitch": 48, "duration": 20, "velocity": 56}, {"time": 891, "pitch": 53, "duration": 19, "velocity": 59}, {"time": 891, "pitch": 60, "duration": 30, "velocity": 58}, {"time": 891, "pitch": 65, "duration": 30, "velocity": 78}, {"time": 891, "pitch": 69, "duration": 30, "velocity": 79}, {"time": 921, "pitch": 38, "duration": 30, "velocity": 71}, {"time": 927, "pitch": 45, "duration": 24, "velocity": 59}, {"time": 933, "pitch": 50, "duration": 18, "velocity": 73}, {"time": 939, "pitch": 57, "duration": 17, "velocity": 74}, {"time": 945, "pitch": 65, "duration": 24, "velocity": 88}, {"time": 957, "pitch": 62, "duration": 12, "velocity": 61}, {"time": 963, "pitch": 57, "duration": 6, "velocity": 51}, {"time": 969, "pitch": 45, "duration": 36, "velocity": 85}, {"time": 975, "pitch": 52, "duration": 29, "velocity": 55}, {"time": 981, "pitch": 57, "duration": 15, "velocity": 65}, {"time": 987, "pitch": 60, "duration": 15, "velocity": 64}, {"time": 993, "pitch": 64, "duration": 15, "velocity": 59}, {"time": 993, "pitch": 69, "duration": 25, "velocity": 48}, {"time": 1005, "pitch": 60, "duration": 12, "velocity": 78}, {"time": 1011, "pitch": 64, "duration": 7, "velocity": 63}, {"time": 1017, "pitch": 45, "duration": 31, "velocity": 71}, {"time": 1023, "pitch": 52, "duration": 24, "velocity": 54}, {"time": 1029, "pitch": 57, "duration": 13, "velocity": 81}, {"time": 1035, "pitch": 60, "duration": 7, "velocity": 55}, {"time": 1041, "pitch": 64, "duration": 13, "velocity": 61}, {"time": 1041, "pitch": 69, "duration": 23, "velocity": 62}, {"time": 1053, "pitch": 60, "duration": 13, "velocity": 57}, {"time": 1059, "pitch": 64, "duration": 6, "velocity": 48}, {"time": 1065, "pitch": 38, "duration": 33, "velocity": 73}, {"time": 1071, "pitch": 45, "duration": 29, "velocity": 56}, {"time": 1077, "pitch": 50, "duration": 15, "velocity": 88}, {"time": 1083, "pitch": 57, "duration": 19, "velocity": 66}, {"time": 1089, "pitch": 65, "duration": 24, "velocity": 100}, {"time": 1095, "pitch": 50, "duration": 6, "velocity": 57}, {"time": 1101, "pitch": 62, "duration": 12, "velocity": 77}, {"time": 1107, "pitch": 57, "duration": 6, "velocity": 60}, {"time": 1113, "pitch": 45, "duration": 37, "velocity": 81}, {"time": 1119, "pitch": 52, "duration": 21, "velocity": 42}, {"time": 1125, "pitch": 57, "duration": 19, "velocity": 88}, {"time": 1131, "pitch": 60, "duration": 7, "velocity": 71}, {"time": 1137, "pitch": 64, "duration": 13, "velocity": 76}, {"time": 1137, "pitch": 69, "duration": 24, "velocity": 89}, {"time": 1143, "pitch": 52, "duration": 6, "velocity": 63}, {"time": 1149, "pitch": 60, "duration": 13, "velocity": 93}, {"time": 1155, "pitch": 64, "duration": 7, "velocity": 99}, {"time": 1161, "pitch": 38, "duration": 36, "velocity": 74}, {"time": 1167, "pitch": 45, "duration": 30, "velocity": 48}, {"time": 1173, "pitch": 50, "duration": 15, "velocity": 81}, {"time": 1179, "pitch": 57, "duration": 7, "velocity": 70}, {"time": 1185, "pitch": 62, "duration": 13, "velocity": 83}, {"time": 1185, "pitch": 65, "duration": 24, "velocity": 83}, {"time": 1191, "pitch": 50, "duration": 9, "velocity": 27}, {"time": 1197, "pitch": 57, "duration": 11, "velocity": 83}, {"time": 1203, "pitch": 62, "duration": 6, "velocity": 85}, {"time": 1209, "pitch": 45, "duration": 43, "velocity": 76}, {"time": 1215, "pitch": 52, "duration": 20, "velocity": 55}, {"time": 1221, "pitch": 57, "duration": 13, "velocity": 99}, {"time": 1227, "pitch": 60, "duration": 7, "velocity": 82}, {"time": 1233, "pitch": 64, "duration": 14, "velocity": 73}, {"time": 1233, "pitch": 69, "duration": 26, "velocity": 89}, {"time": 1239, "pitch": 52, "duration": 19, "velocity": 47}, {"time": 1245, "pitch": 60, "duration": 13, "velocity": 78}, {"time": 1251, "pitch": 64, "duration": 8, "velocity": 58}, {"time": 1257, "pitch": 45, "duration": 34, "velocity": 88}, {"time": 1263, "pitch": 52, "duration": 28, "velocity": 52}, {"time": 1269, "pitch": 57, "duration": 18, "velocity": 92}, {"time": 1275, "pitch": 60, "duration": 7, "velocity": 66}, {"time": 1281, "pitch": 64, "duration": 13, "velocity": 77}, {"time": 1281, "pitch": 69, "duration": 23, "velocity": 88}, {"time": 1293, "pitch": 60, "duration": 12, "velocity": 79}, {"time": 1299, "pitch": 64, "duration": 6, "velocity": 77}, {"time": 1305, "pitch": 38, "duration": 40, "velocity": 67}, {"time": 1311, "pitch": 45, "duration": 33, "velocity": 39}, {"time": 1317, "pitch": 50, "duration": 15, "velocity": 82}, {"time": 1323, "pitch": 57, "duration": 7, "velocity": 56}, {"time": 1329, "pitch": 62, "duration": 22, "velocity": 76}, {"time": 1341, "pitch": 50, "duration": 2, "velocity": 23}, {"time": 1341, "pitch": 57, "duration": 12, "velocity": 38}, {"time": 1353, "pitch": 36, "duration": 6, "velocity": 66}, {"time": 1359, "pitch": 55, "duration": 9, "velocity": 72}, {"time": 1365, "pitch": 60, "duration": 2, "velocity": 65}, {"time": 1371, "pitch": 41, "duration": 21, "velocity": 63}, {"time": 1371, "pitch": 53, "duration": 19, "velocity": 88}, {"time": 1371, "pitch": 57, "duration": 16, "velocity": 73}, {"time": 1371, "pitch": 60, "duration": 30, "velocity": 69}, {"time": 1389, "pitch": 57, "duration": 12, "velocity": 63}, {"time": 1395, "pitch": 53, "duration": 6, "velocity": 50}, {"time": 1401, "pitch": 38, "duration": 36, "velocity": 59}, {"time": 1407, "pitch": 45, "duration": 31, "velocity": 52}, {"time": 1413, "pitch": 50, "duration": 13, "velocity": 81}, {"time": 1419, "pitch": 57, "duration": 19, "velocity": 58}, {"time": 1425, "pitch": 65, "duration": 23, "velocity": 90}, {"time": 1437, "pitch": 62, "duration": 11, "velocity": 69}, {"time": 1443, "pitch": 57, "duration": 6, "velocity": 58}, {"time": 1449, "pitch": 45, "duration": 41, "velocity": 68}, {"time": 1455, "pitch": 52, "duration": 22, "velocity": 55}, {"time": 1461, "pitch": 57, "duration": 36, "velocity": 58}, {"time": 1467, "pitch": 64, "duration": 16, "velocity": 85}, {"time": 1473, "pitch": 60, "duration": 11, "velocity": 60}, {"time": 1479, "pitch": 52, "duration": 9, "velocity": 51}, {"time": 1485, "pitch": 64, "duration": 12, "velocity": 63}, {"time": 1491, "pitch": 60, "duration": 6, "velocity": 55}, {"time": 1497, "pitch": 45, "duration": 36, "velocity": 88}, {"time": 1503, "pitch": 52, "duration": 20, "velocity": 66}, {"time": 1509, "pitch": 57, "duration": 16, "velocity": 72}, {"time": 1515, "pitch": 64, "duration": 25, "velocity": 96}, {"time": 1521, "pitch": 60, "duration": 12, "velocity": 69}, {"time": 1527, "pitch": 52, "duration": 5, "velocity": 54}, {"time": 1533, "pitch": 57, "duration": 10, "velocity": 127}, {"time": 1539, "pitch": 60, "duration": 4, "velocity": 112}, {"time": 1542, "pitch": 64, "duration": 2, "velocity": 92}, {"time": 1545, "pitch": 41, "duration": 21, "velocity": 92}, {"time": 1548, "pitch": 48, "duration": 21, "velocity": 83}, {"time": 1551, "pitch": 53, "duration": 5, "velocity": 96}, {"time": 1554, "pitch": 60, "duration": 4, "velocity": 88}, {"time": 1557, "pitch": 69, "duration": 11, "velocity": 117}, {"time": 1560, "pitch": 53, "duration": 3, "velocity": 93}, {"time": 1563, "pitch": 65, "duration": 6, "velocity": 95}, {"time": 1566, "pitch": 60, "duration": 4, "velocity": 97}, {"time": 1569, "pitch": 41, "duration": 17, "velocity": 79}, {"time": 1572, "pitch": 48, "duration": 10, "velocity": 52}, {"time": 1575, "pitch": 53, "duration": 4, "velocity": 72}, {"time": 1578, "pitch": 60, "duration": 9, "velocity": 66}, {"time": 1581, "pitch": 69, "duration": 9, "velocity": 100}, {"time": 1584, "pitch": 48, "duration": 2, "velocity": 78}, {"time": 1587, "pitch": 65, "duration": 3, "velocity": 93}, {"time": 1590, "pitch": 60, "duration": 4, "velocity": 82}, {"time": 1593, "pitch": 36, "duration": 22, "velocity": 63}, {"time": 1596, "pitch": 43, "duration": 21, "velocity": 63}, {"time": 1599, "pitch": 48, "duration": 6, "velocity": 88}, {"time": 1602, "pitch": 60, "duration": 4, "velocity": 76}, {"time": 1605, "pitch": 67, "duration": 12, "velocity": 127}, {"time": 1608, "pitch": 48, "duration": 3, "velocity": 99}, {"time": 1611, "pitch": 64, "duration": 7, "velocity": 97}, {"time": 1614, "pitch": 60, "duration": 4, "velocity": 99}, {"time": 1617, "pitch": 36, "duration": 16, "velocity": 71}, {"time": 1620, "pitch": 43, "duration": 13, "velocity": 73}, {"time": 1623, "pitch": 48, "duration": 6, "velocity": 85}, {"time": 1626, "pitch": 60, "duration": 4, "velocity": 85}, {"time": 1629, "pitch": 67, "duration": 7, "velocity": 127}, {"time": 1632, "pitch": 48, "duration": 4, "velocity": 100}, {"time": 1635, "pitch": 64, "duration": 3, "velocity": 107}, {"time": 1638, "pitch": 60, "duration": 4, "velocity": 97}, {"time": 1641, "pitch": 41, "duration": 22, "velocity": 83}, {"time": 1644, "pitch": 48, "duration": 21, "velocity": 77}, {"time": 1647, "pitch": 53, "duration": 6, "velocity": 96}, {"time": 1650, "pitch": 60, "duration": 4, "velocity": 96}, {"time": 1653, "pitch": 69, "duration": 15, "velocity": 127}, {"time": 1656, "pitch": 53, "duration": 2, "velocity": 97}, {"time": 1659, "pitch": 65, "duration": 14, "velocity": 83}, {"time": 1662, "pitch": 60, "duration": 10, "velocity": 95}, {"time": 1665, "pitch": 41, "duration": 18, "velocity": 71}, {"time": 1668, "pitch": 48, "duration": 13, "velocity": 82}, {"time": 1671, "pitch": 53, "duration": 6, "velocity": 92}, {"time": 1674, "pitch": 60, "duration": 2, "velocity": 81}, {"time": 1677, "pitch": 65, "duration": 6, "velocity": 90}, {"time": 1677, "pitch": 69, "duration": 7, "velocity": 122}, {"time": 1680, "pitch": 53, "duration": 2, "velocity": 99}, {"time": 1683, "pitch": 60, "duration": 4, "velocity": 100}, {"time": 1686, "pitch": 65, "duration": 4, "velocity": 107}, {"time": 1689, "pitch": 38, "duration": 21, "velocity": 76}, {"time": 1692, "pitch": 45, "duration": 20, "velocity": 86}, {"time": 1695, "pitch": 50, "duration": 6, "velocity": 97}, {"time": 1698, "pitch": 62, "duration": 4, "velocity": 89}, {"time": 1701, "pitch": 69, "duration": 10, "velocity": 117}, {"time": 1704, "pitch": 50, "duration": 3, "velocity": 93}, {"time": 1707, "pitch": 65, "duration": 6, "velocity": 95}, {"time": 1710, "pitch": 62, "duration": 7, "velocity": 99}, {"time": 1713, "pitch": 38, "duration": 15, "velocity": 66}, {"time": 1716, "pitch": 45, "duration": 12, "velocity": 68}, {"time": 1719, "pitch": 50, "duration": 6, "velocity": 83}, {"time": 1722, "pitch": 62, "duration": 3, "velocity": 90}, {"time": 1725, "pitch": 69, "duration": 7, "velocity": 112}, {"time": 1728, "pitch": 50, "duration": 2, "velocity": 92}, {"time": 1731, "pitch": 65, "duration": 3, "velocity": 96}, {"time": 1734, "pitch": 62, "duration": 3, "velocity": 99}, {"time": 1737, "pitch": 46, "duration": 20, "velocity": 76}, {"time": 1740, "pitch": 53, "duration": 20, "velocity": 61}, {"time": 1743, "pitch": 58, "duration": 6, "velocity": 112}, {"time": 1746, "pitch": 62, "duration": 4, "velocity": 89}, {"time": 1749, "pitch": 70, "duration": 9, "velocity": 127}, {"time": 1752, "pitch": 58, "duration": 11, "velocity": 102}, {"time": 1755, "pitch": 65, "duration": 5, "velocity": 100}, {"time": 1758, "pitch": 62, "duration": 5, "velocity": 95}, {"time": 1761, "pitch": 46, "duration": 17, "velocity": 88}, {"time": 1764, "pitch": 53, "duration": 13, "velocity": 67}, {"time": 1767, "pitch": 58, "duration": 7, "velocity": 99}, {"time": 1770, "pitch": 62, "duration": 4, "velocity": 69}, {"time": 1773, "pitch": 70, "duration": 9, "velocity": 127}, {"time": 1776, "pitch": 58, "duration": 2, "velocity": 96}, {"time": 1779, "pitch": 65, "duration": 4, "velocity": 97}, {"time": 1782, "pitch": 62, "duration": 2, "velocity": 99}, {"time": 1785, "pitch": 38, "duration": 21, "velocity": 52}, {"time": 1788, "pitch": 45, "duration": 22, "velocity": 79}, {"time": 1791, "pitch": 50, "duration": 6, "velocity": 89}, {"time": 1794, "pitch": 57, "duration": 4, "velocity": 99}, {"time": 1797, "pitch": 65, "duration": 10, "velocity": 102}, {"time": 1800, "pitch": 50, "duration": 4, "velocity": 86}, {"time": 1803, "pitch": 62, "duration": 5, "velocity": 100}, {"time": 1806, "pitch": 57, "duration": 4, "velocity": 97}, {"time": 1809, "pitch": 38, "duration": 15, "velocity": 72}, {"time": 1812, "pitch": 45, "duration": 13, "velocity": 88}, {"time": 1815, "pitch": 50, "duration": 6, "velocity": 95}, {"time": 1818, "pitch": 57, "duration": 4, "velocity": 107}, {"time": 1821, "pitch": 65, "duration": 11, "velocity": 100}, {"time": 1824, "pitch": 50, "duration": 2, "velocity": 97}, {"time": 1827, "pitch": 62, "duration": 5, "velocity": 100}, {"time": 1830, "pitch": 57, "duration": 2, "velocity": 100}, {"time": 1833, "pitch": 43, "duration": 21, "velocity": 86}, {"time": 1836, "pitch": 50, "duration": 20, "velocity": 76}, {"time": 1839, "pitch": 55, "duration": 6, "velocity": 95}, {"time": 1842, "pitch": 62, "duration": 4, "velocity": 97}, {"time": 1845, "pitch": 71, "duration": 12, "velocity": 117}, {"time": 1848, "pitch": 55, "duration": 3, "velocity": 92}, {"time": 1851, "pitch": 67, "duration": 12, "velocity": 88}, {"time": 1854, "pitch": 62, "duration": 5, "velocity": 92}, {"time": 1857, "pitch": 43, "duration": 17, "velocity": 48}, {"time": 1860, "pitch": 50, "duration": 10, "velocity": 73}, {"time": 1863, "pitch": 55, "duration": 6, "velocity": 92}, {"time": 1866, "pitch": 62, "duration": 3, "velocity": 86}, {"time": 1869, "pitch": 71, "duration": 10, "velocity": 117}, {"time": 1872, "pitch": 50, "duration": 1, "velocity": 79}, {"time": 1875, "pitch": 67, "duration": 4, "velocity": 97}, {"time": 1878, "pitch": 62, "duration": 3, "velocity": 102}, {"time": 1881, "pitch": 36, "duration": 20, "velocity": 72}, {"time": 1884, "pitch": 43, "duration": 20, "velocity": 88}, {"time": 1887, "pitch": 48, "duration": 6, "velocity": 93}, {"time": 1890, "pitch": 60, "duration": 4, "velocity": 97}, {"time": 1893, "pitch": 67, "duration": 12, "velocity": 127}, {"time": 1896, "pitch": 48, "duration": 3, "velocity": 100}, {"time": 1899, "pitch": 64, "duration": 6, "velocity": 127}, {"time": 1902, "pitch": 60, "duration": 7, "velocity": 102}, {"time": 1905, "pitch": 36, "duration": 15, "velocity": 85}, {"time": 1908, "pitch": 43, "duration": 13, "velocity": 102}, {"time": 1911, "pitch": 48, "duration": 6, "velocity": 117}, {"time": 1914, "pitch": 60, "duration": 2, "velocity": 93}, {"time": 1914, "pitch": 64, "duration": 1, "velocity": 95}, {"time": 1914, "pitch": 67, "duration": 2, "velocity": 93}, {"time": 1917, "pitch": 60, "duration": 1, "velocity": 64}, {"time": 1917, "pitch": 64, "duration": 4, "velocity": 100}, {"time": 1917, "pitch": 67, "duration": 8, "velocity": 112}, {"time": 1920, "pitch": 48, "duration": 2, "velocity": 92}, {"time": 1923, "pitch": 60, "duration": 6, "velocity": 127}, {"time": 1926, "pitch": 64, "duration": 2, "velocity": 127}, {"time": 1929, "pitch": 41, "duration": 21, "velocity": 82}, {"time": 1932, "pitch": 48, "duration": 21, "velocity": 92}, {"time": 1935, "pitch": 53, "duration": 6, "velocity": 96}, {"time": 1938, "pitch": 60, "duration": 4, "velocity": 100}, {"time": 1941, "pitch": 69, "duration": 10, "velocity": 112}, {"time": 1944, "pitch": 53, "duration": 2, "velocity": 93}, {"time": 1947, "pitch": 65, "duration": 8, "velocity": 100}, {"time": 1950, "pitch": 60, "duration": 4, "velocity": 99}, {"time": 1953, "pitch": 41, "duration": 17, "velocity": 66}, {"time": 1956, "pitch": 48, "duration": 13, "velocity": 86}, {"time": 1959, "pitch": 53, "duration": 6, "velocity": 102}, {"time": 1962, "pitch": 60, "duration": 4, "velocity": 92}, {"time": 1965, "pitch": 69, "duration": 9, "velocity": 127}, {"time": 1968, "pitch": 53, "duration": 1, "velocity": 93}, {"time": 1971, "pitch": 65, "duration": 3, "velocity": 127}, {"time": 1974, "pitch": 60, "duration": 3, "velocity": 107}, {"time": 1977, "pitch": 36, "duration": 6, "velocity": 99}, {"time": 1980, "pitch": 55, "duration": 7, "velocity": 89}, {"time": 1983, "pitch": 60, "duration": 3, "velocity": 97}, {"time": 1986, "pitch": 64, "duration": 3, "velocity": 93}, {"time": 1989, "pitch": 60, "duration": 2, "velocity": 122}, {"time": 1995, "pitch": 41, "duration": 22, "velocity": 76}, {"time": 1995, "pitch": 60, "duration": 14, "velocity": 102}, {"time": 1995, "pitch": 65, "duration": 15, "velocity": 102}, {"time": 1995, "pitch": 69, "duration": 15, "velocity": 112}, {"time": 2007, "pitch": 48, "duration": 12, "velocity": 83}, {"time": 2010, "pitch": 53, "duration": 4, "velocity": 93}, {"time": 2013, "pitch": 69, "duration": 10, "velocity": 112}, {"time": 2016, "pitch": 53, "duration": 8, "velocity": 95}, {"time": 2019, "pitch": 65, "duration": 5, "velocity": 102}, {"time": 2022, "pitch": 60, "duration": 3, "velocity": 96}, {"time": 2025, "pitch": 45, "duration": 21, "velocity": 72}, {"time": 2028, "pitch": 52, "duration": 9, "velocity": 63}, {"time": 2031, "pitch": 57, "duration": 4, "velocity": 93}, {"time": 2034, "pitch": 60, "duration": 2, "velocity": 95}, {"time": 2037, "pitch": 64, "duration": 12, "velocity": 102}, {"time": 2040, "pitch": 52, "duration": 9, "velocity": 82}, {"time": 2043, "pitch": 60, "duration": 6, "velocity": 97}, {"time": 2046, "pitch": 57, "duration": 3, "velocity": 92}, {"time": 2049, "pitch": 45, "duration": 17, "velocity": 76}, {"time": 2052, "pitch": 52, "duration": 13, "velocity": 69}, {"time": 2055, "pitch": 57, "duration": 6, "velocity": 88}, {"time": 2058, "pitch": 60, "duration": 4, "velocity": 89}, {"time": 2061, "pitch": 69, "duration": 10, "velocity": 100}, {"time": 2064, "pitch": 57, "duration": 1, "velocity": 89}, {"time": 2067, "pitch": 64, "duration": 5, "velocity": 97}, {"time": 2070, "pitch": 60, "duration": 2, "velocity": 93}, {"time": 2073, "pitch": 38, "duration": 16, "velocity": 67}, {"time": 2076, "pitch": 45, "duration": 13, "velocity": 78}, {"time": 2079, "pitch": 50, "duration": 12, "velocity": 92}, {"time": 2082, "pitch": 62, "duration": 3, "velocity": 73}, {"time": 2085, "pitch": 69, "duration": 10, "velocity": 122}, {"time": 2091, "pitch": 65, "duration": 5, "velocity": 102}, {"time": 2094, "pitch": 62, "duration": 3, "velocity": 95}, {"time": 2097, "pitch": 45, "duration": 16, "velocity": 71}, {"time": 2100, "pitch": 52, "duration": 10, "velocity": 75}, {"time": 2103, "pitch": 57, "duration": 3, "velocity": 93}, {"time": 2106, "pitch": 60, "duration": 2, "velocity": 97}, {"time": 2109, "pitch": 64, "duration": 10, "velocity": 112}, {"time": 2112, "pitch": 52, "duration": 1, "velocity": 92}, {"time": 2115, "pitch": 60, "duration": 4, "velocity": 117}, {"time": 2118, "pitch": 57, "duration": 2, "velocity": 107}, {"time": 2121, "pitch": 46, "duration": 22, "velocity": 83}, {"time": 2124, "pitch": 53, "duration": 20, "velocity": 66}, {"time": 2127, "pitch": 58, "duration": 6, "velocity": 107}, {"time": 2130, "pitch": 62, "duration": 2, "velocity": 93}, {"time": 2133, "pitch": 70, "duration": 12, "velocity": 117}, {"time": 2136, "pitch": 58, "duration": 11, "velocity": 102}, {"time": 2139, "pitch": 65, "duration": 13, "velocity": 89}, {"time": 2142, "pitch": 62, "duration": 7, "velocity": 97}, {"time": 2145, "pitch": 46, "duration": 17, "velocity": 89}, {"time": 2148, "pitch": 53, "duration": 13, "velocity": 36}, {"time": 2151, "pitch": 58, "duration": 7, "velocity": 100}, {"time": 2154, "pitch": 62, "duration": 4, "velocity": 95}, {"time": 2157, "pitch": 70, "duration": 10, "velocity": 127}, {"time": 2160, "pitch": 58, "duration": 2, "velocity": 102}, {"time": 2163, "pitch": 65, "duration": 4, "velocity": 99}, {"time": 2166, "pitch": 62, "duration": 2, "velocity": 102}, {"time": 2169, "pitch": 38, "duration": 21, "velocity": 76}, {"time": 2172, "pitch": 45, "duration": 21, "velocity": 85}, {"time": 2175, "pitch": 50, "duration": 6, "velocity": 85}, {"time": 2178, "pitch": 57, "duration": 4, "velocity": 88}, {"time": 2181, "pitch": 65, "duration": 13, "velocity": 100}, {"time": 2184, "pitch": 50, "duration": 2, "velocity": 93}, {"time": 2187, "pitch": 62, "duration": 8, "velocity": 99}, {"time": 2190, "pitch": 57, "duration": 5, "velocity": 88}, {"time": 2193, "pitch": 38, "duration": 15, "velocity": 59}, {"time": 2196, "pitch": 45, "duration": 12, "velocity": 57}, {"time": 2199, "pitch": 50, "duration": 6, "velocity": 93}, {"time": 2202, "pitch": 57, "duration": 3, "velocity": 93}, {"time": 2205, "pitch": 65, "duration": 11, "velocity": 117}, {"time": 2208, "pitch": 50, "duration": 5, "velocity": 92}, {"time": 2211, "pitch": 62, "duration": 5, "velocity": 100}, {"time": 2214, "pitch": 57, "duration": 2, "velocity": 93}, {"time": 2217, "pitch": 43, "duration": 21, "velocity": 79}, {"time": 2220, "pitch": 50, "duration": 20, "velocity": 88}, {"time": 2223, "pitch": 55, "duration": 6, "velocity": 96}, {"time": 2226, "pitch": 62, "duration": 4, "velocity": 97}, {"time": 2229, "pitch": 71, "duration": 10, "velocity": 107}, {"time": 2232, "pitch": 55, "duration": 9, "velocity": 97}, {"time": 2235, "pitch": 67, "duration": 5, "velocity": 107}, {"time": 2238, "pitch": 62, "duration": 3, "velocity": 97}, {"time": 2241, "pitch": 45, "duration": 21, "velocity": 89}, {"time": 2244, "pitch": 52, "duration": 21, "velocity": 77}, {"time": 2247, "pitch": 57, "duration": 7, "velocity": 93}, {"time": 2250, "pitch": 60, "duration": 4, "velocity": 92}, {"time": 2253, "pitch": 69, "duration": 10, "velocity": 102}, {"time": 2256, "pitch": 57, "duration": 2, "velocity": 93}, {"time": 2259, "pitch": 64, "duration": 5, "velocity": 85}, {"time": 2262, "pitch": 60, "duration": 3, "velocity": 102}, {"time": 2265, "pitch": 45, "duration": 21, "velocity": 79}, {"time": 2268, "pitch": 52, "duration": 21, "velocity": 71}, {"time": 2271, "pitch": 57, "duration": 6, "velocity": 93}, {"time": 2274, "pitch": 60, "duration": 4, "velocity": 75}, {"time": 2277, "pitch": 69, "duration": 14, "velocity": 99}, {"time": 2280, "pitch": 57, "duration": 10, "velocity": 90}, {"time": 2283, "pitch": 64, "duration": 7, "velocity": 93}, {"time": 2286, "pitch": 60, "duration": 7, "velocity": 100}, {"time": 2289, "pitch": 45, "duration": 20, "velocity": 78}, {"time": 2292, "pitch": 52, "duration": 21, "velocity": 67}, {"time": 2295, "pitch": 57, "duration": 6, "velocity": 99}, {"time": 2298, "pitch": 64, "duration": 2, "velocity": 88}, {"time": 2298, "pitch": 69, "duration": 1, "velocity": 96}, {"time": 2301, "pitch": 64, "duration": 5, "velocity": 93}, {"time": 2301, "pitch": 69, "duration": 7, "velocity": 112}, {"time": 2304, "pitch": 57, "duration": 2, "velocity": 99}, {"time": 2307, "pitch": 60, "duration": 4, "velocity": 93}, {"time": 2310, "pitch": 64, "duration": 1, "velocity": 75}, {"time": 2310, "pitch": 69, "duration": 1, "velocity": 56}, {"time": 2313, "pitch": 45, "duration": 40, "velocity": 96}, {"time": 2313, "pitch": 60, "duration": 8, "velocity": 93}, {"time": 2313, "pitch": 64, "duration": 6, "velocity": 100}, {"time": 2313, "pitch": 69, "duration": 8, "velocity": 99}, {"time": 2319, "pitch": 52, "duration": 23, "velocity": 82}, {"time": 2322, "pitch": 57, "duration": 4, "velocity": 72}, {"time": 2325, "pitch": 60, "duration": 7, "velocity": 107}, {"time": 2325, "pitch": 64, "duration": 7, "velocity": 107}, {"time": 2325, "pitch": 69, "duration": 7, "velocity": 107}, {"time": 2331, "pitch": 57, "duration": 8, "velocity": 100}, {"time": 2334, "pitch": 60, "duration": 4, "velocity": 117}, {"time": 2334, "pitch": 64, "duration": 4, "velocity": 100}, {"time": 2334, "pitch": 69, "duration": 4, "velocity": 102}, {"time": 2340, "pitch": 64, "duration": 6, "velocity": 95}, {"time": 2340, "pitch": 69, "duration": 6, "velocity": 100}, {"time": 2346, "pitch": 52, "duration": 4, "velocity": 96}, {"time": 2346, "pitch": 60, "duration": 1, "velocity": 27}, {"time": 2349, "pitch": 60, "duration": 4, "velocity": 83}, {"time": 2349, "pitch": 64, "duration": 3, "velocity": 102}, {"time": 2349, "pitch": 69, "duration": 4, "velocity": 117}, {"time": 2352, "pitch": 52, "duration": 1, "velocity": 92}, {"time": 2355, "pitch": 60, "duration": 1, "velocity": 63}, {"time": 2355, "pitch": 64, "duration": 1, "velocity": 107}, {"time": 2355, "pitch": 69, "duration": 1, "velocity": 82}, {"time": 2361, "pitch": 46, "duration": 22, "velocity": 122}, {"time": 2361, "pitch": 65, "duration": 7, "velocity": 93}, {"time": 2361, "pitch": 70, "duration": 2, "velocity": 117}, {"time": 2364, "pitch": 53, "duration": 22, "velocity": 35}, {"time": 2367, "pitch": 58, "duration": 6, "velocity": 122}, {"time": 2370, "pitch": 62, "duration": 2, "velocity": 117}, {"time": 2373, "pitch": 65, "duration": 5, "velocity": 102}, {"time": 2373, "pitch": 70, "duration": 6, "velocity": 127}, {"time": 2376, "pitch": 58, "duration": 15, "velocity": 117}, {"time": 2379, "pitch": 62, "duration": 2, "velocity": 95}, {"time": 2379, "pitch": 65, "duration": 1, "velocity": 35}, {"time": 2382, "pitch": 65, "duration": 7, "velocity": 96}, {"time": 2382, "pitch": 70, "duration": 8, "velocity": 127}, {"time": 2385, "pitch": 46, "duration": 16, "velocity": 62}, {"time": 2388, "pitch": 53, "duration": 12, "velocity": 71}, {"time": 2391, "pitch": 65, "duration": 4, "velocity": 97}, {"time": 2391, "pitch": 70, "duration": 3, "velocity": 127}, {"time": 2394, "pitch": 58, "duration": 4, "velocity": 117}, {"time": 2397, "pitch": 65, "duration": 4, "velocity": 97}, {"time": 2397, "pitch": 70, "duration": 4, "velocity": 127}, {"time": 2400, "pitch": 58, "duration": 1, "velocity": 122}, {"time": 2403, "pitch": 65, "duration": 2, "velocity": 107}, {"time": 2403, "pitch": 70, "duration": 3, "velocity": 127}, {"time": 2406, "pitch": 65, "duration": 2, "velocity": 66}, {"time": 2409, "pitch": 38, "duration": 30, "velocity": 95}, {"time": 2409, "pitch": 62, "duration": 5, "velocity": 117}, {"time": 2409, "pitch": 65, "duration": 4, "velocity": 112}, {"time": 2409, "pitch": 69, "duration": 4, "velocity": 127}, {"time": 2415, "pitch": 45, "duration": 27, "velocity": 83}, {"time": 2418, "pitch": 50, "duration": 4, "velocity": 96}, {"time": 2421, "pitch": 62, "duration": 6, "velocity": 112}, {"time": 2421, "pitch": 65, "duration": 6, "velocity": 112}, {"time": 2427, "pitch": 50, "duration": 4, "velocity": 97}, {"time": 2430, "pitch": 57, "duration": 7, "velocity": 96}, {"time": 2430, "pitch": 62, "duration": 7, "velocity": 102}, {"time": 2430, "pitch": 65, "duration": 7, "velocity": 97}, {"time": 2436, "pitch": 50, "duration": 4, "velocity": 107}, {"time": 2439, "pitch": 62, "duration": 4, "velocity": 107}, {"time": 2439, "pitch": 65, "duration": 3, "velocity": 96}, {"time": 2442, "pitch": 38, "duration": 9, "velocity": 102}, {"time": 2445, "pitch": 62, "duration": 4, "velocity": 102}, {"time": 2445, "pitch": 65, "duration": 4, "velocity": 102}, {"time": 2448, "pitch": 45, "duration": 3, "velocity": 83}, {"time": 2448, "pitch": 50, "duration": 4, "velocity": 100}, {"time": 2451, "pitch": 62, "duration": 4, "velocity": 107}, {"time": 2451, "pitch": 65, "duration": 4, "velocity": 112}, {"time": 2454, "pitch": 57, "duration": 1, "velocity": 100}, {"time": 2457, "pitch": 46, "duration": 20, "velocity": 107}, {"time": 2460, "pitch": 53, "duration": 20, "velocity": 56}, {"time": 2463, "pitch": 58, "duration": 5, "velocity": 122}, {"time": 2466, "pitch": 62, "duration": 2, "velocity": 95}, {"time": 2469, "pitch": 65, "duration": 4, "velocity": 97}, {"time": 2469, "pitch": 70, "duration": 4, "velocity": 127}, {"time": 2472, "pitch": 58, "duration": 10, "velocity": 127}, {"time": 2475, "pitch": 62, "duration": 7, "velocity": 100}, {"time": 2478, "pitch": 65, "duration": 5, "velocity": 96}, {"time": 2478, "pitch": 70, "duration": 7, "velocity": 127}, {"time": 2481, "pitch": 46, "duration": 17, "velocity": 99}, {"time": 2484, "pitch": 53, "duration": 13, "velocity": 72}, {"time": 2487, "pitch": 58, "duration": 7, "velocity": 127}, {"time": 2490, "pitch": 62, "duration": 3, "velocity": 97}, {"time": 2490, "pitch": 65, "duration": 1, "velocity": 39}, {"time": 2493, "pitch": 65, "duration": 5, "velocity": 97}, {"time": 2493, "pitch": 70, "duration": 10, "velocity": 127}, {"time": 2496, "pitch": 58, "duration": 2, "velocity": 122}, {"time": 2499, "pitch": 62, "duration": 5, "velocity": 117}, {"time": 2502, "pitch": 65, "duration": 2, "velocity": 100}, {"time": 2505, "pitch": 38, "duration": 22, "velocity": 77}, {"time": 2508, "pitch": 45, "duration": 21, "velocity": 85}, {"time": 2511, "pitch": 50, "duration": 7, "velocity": 107}, {"time": 2514, "pitch": 57, "duration": 2, "velocity": 112}, {"time": 2517, "pitch": 62, "duration": 7, "velocity": 107}, {"time": 2517, "pitch": 65, "duration": 7, "velocity": 117}, {"time": 2520, "pitch": 50, "duration": 4, "velocity": 92}, {"time": 2523, "pitch": 57, "duration": 2, "velocity": 88}, {"time": 2526, "pitch": 57, "duration": 4, "velocity": 66}, {"time": 2526, "pitch": 62, "duration": 10, "velocity": 102}, {"time": 2526, "pitch": 65, "duration": 10, "velocity": 100}, {"time": 2529, "pitch": 38, "duration": 16, "velocity": 82}, {"time": 2532, "pitch": 45, "duration": 13, "velocity": 90}, {"time": 2535, "pitch": 50, "duration": 6, "velocity": 112}, {"time": 2538, "pitch": 57, "duration": 4, "velocity": 99}, {"time": 2538, "pitch": 62, "duration": 1, "velocity": 44}, {"time": 2541, "pitch": 62, "duration": 5, "velocity": 107}, {"time": 2541, "pitch": 65, "duration": 5, "velocity": 127}, {"time": 2544, "pitch": 50, "duration": 7, "velocity": 117}, {"time": 2547, "pitch": 57, "duration": 4, "velocity": 77}, {"time": 2547, "pitch": 62, "duration": 1, "velocity": 34}, {"time": 2550, "pitch": 62, "duration": 2, "velocity": 102}, {"time": 2550, "pitch": 65, "duration": 3, "velocity": 102}, {"time": 2553, "pitch": 41, "duration": 22, "velocity": 83}, {"time": 2556, "pitch": 48, "duration": 21, "velocity": 93}, {"time": 2559, "pitch": 53, "duration": 7, "velocity": 90}, {"time": 2562, "pitch": 60, "duration": 4, "velocity": 89}, {"time": 2565, "pitch": 65, "duration": 6, "velocity": 102}, {"time": 2565, "pitch": 69, "duration": 6, "velocity": 112}, {"time": 2568, "pitch": 53, "duration": 2, "velocity": 97}, {"time": 2571, "pitch": 60, "duration": 12, "velocity": 92}, {"time": 2574, "pitch": 65, "duration": 10, "velocity": 99}, {"time": 2574, "pitch": 69, "duration": 6, "velocity": 117}, {"time": 2577, "pitch": 41, "duration": 21, "velocity": 72}, {"time": 2580, "pitch": 48, "duration": 20, "velocity": 82}, {"time": 2583, "pitch": 53, "duration": 6, "velocity": 96}, {"time": 2586, "pitch": 60, "duration": 4, "velocity": 96}, {"time": 2589, "pitch": 65, "duration": 4, "velocity": 107}, {"time": 2589, "pitch": 69, "duration": 4, "velocity": 112}, {"time": 2592, "pitch": 53, "duration": 3, "velocity": 102}, {"time": 2595, "pitch": 60, "duration": 4, "velocity": 100}, {"time": 2598, "pitch": 65, "duration": 3, "velocity": 107}, {"time": 2598, "pitch": 69, "duration": 2, "velocity": 100}, {"time": 2601, "pitch": 43, "duration": 21, "velocity": 83}, {"time": 2604, "pitch": 50, "duration": 21, "velocity": 89}, {"time": 2607, "pitch": 55, "duration": 6, "velocity": 97}, {"time": 2610, "pitch": 62, "duration": 4, "velocity": 79}, {"time": 2613, "pitch": 67, "duration": 7, "velocity": 122}, {"time": 2613, "pitch": 70, "duration": 7, "velocity": 127}, {"time": 2616, "pitch": 55, "duration": 3, "velocity": 102}, {"time": 2619, "pitch": 62, "duration": 13, "velocity": 97}, {"time": 2622, "pitch": 67, "duration": 11, "velocity": 99}, {"time": 2622, "pitch": 70, "duration": 11, "velocity": 117}, {"time": 2625, "pitch": 43, "duration": 21, "velocity": 86}, {"time": 2628, "pitch": 50, "duration": 20, "velocity": 95}, {"time": 2631, "pitch": 55, "duration": 6, "velocity": 102}, {"time": 2634, "pitch": 62, "duration": 3, "velocity": 107}, {"time": 2637, "pitch": 67, "duration": 6, "velocity": 97}, {"time": 2637, "pitch": 70, "duration": 6, "velocity": 117}, {"time": 2640, "pitch": 55, "duration": 8, "velocity": 97}, {"time": 2643, "pitch": 62, "duration": 5, "velocity": 100}, {"time": 2646, "pitch": 67, "duration": 2, "velocity": 100}, {"time": 2646, "pitch": 70, "duration": 2, "velocity": 117}, {"time": 2649, "pitch": 45, "duration": 22, "velocity": 92}, {"time": 2652, "pitch": 52, "duration": 21, "velocity": 90}, {"time": 2655, "pitch": 57, "duration": 6, "velocity": 99}, {"time": 2658, "pitch": 64, "duration": 2, "velocity": 82}, {"time": 2661, "pitch": 69, "duration": 6, "velocity": 95}, {"time": 2661, "pitch": 72, "duration": 6, "velocity": 112}, {"time": 2664, "pitch": 57, "duration": 3, "velocity": 100}, {"time": 2667, "pitch": 64, "duration": 8, "velocity": 99}, {"time": 2670, "pitch": 69, "duration": 5, "velocity": 100}, {"time": 2670, "pitch": 72, "duration": 10, "velocity": 100}, {"time": 2673, "pitch": 45, "duration": 17, "velocity": 85}, {"time": 2676, "pitch": 52, "duration": 13, "velocity": 96}, {"time": 2679, "pitch": 57, "duration": 6, "velocity": 107}, {"time": 2682, "pitch": 64, "duration": 2, "velocity": 93}, {"time": 2685, "pitch": 69, "duration": 4, "velocity": 112}, {"time": 2685, "pitch": 72, "duration": 6, "velocity": 117}, {"time": 2688, "pitch": 57, "duration": 2, "velocity": 97}, {"time": 2691, "pitch": 64, "duration": 5, "velocity": 102}, {"time": 2694, "pitch": 69, "duration": 2, "velocity": 107}, {"time": 2694, "pitch": 72, "duration": 2, "velocity": 107}, {"time": 2697, "pitch": 36, "duration": 22, "velocity": 74}, {"time": 2700, "pitch": 43, "duration": 20, "velocity": 89}, {"time": 2703, "pitch": 48, "duration": 6, "velocity": 96}, {"time": 2706, "pitch": 60, "duration": 2, "velocity": 85}, {"time": 2709, "pitch": 64, "duration": 5, "velocity": 100}, {"time": 2709, "pitch": 67, "duration": 5, "velocity": 102}, {"time": 2712, "pitch": 48, "duration": 6, "velocity": 96}, {"time": 2715, "pitch": 60, "duration": 5, "velocity": 90}, {"time": 2718, "pitch": 64, "duration": 9, "velocity": 99}, {"time": 2718, "pitch": 67, "duration": 10, "velocity": 99}, {"time": 2721, "pitch": 36, "duration": 21, "velocity": 76}, {"time": 2724, "pitch": 43, "duration": 18, "velocity": 95}, {"time": 2727, "pitch": 48, "duration": 6, "velocity": 102}, {"time": 2730, "pitch": 60, "duration": 4, "velocity": 96}, {"time": 2733, "pitch": 67, "duration": 8, "velocity": 127}, {"time": 2736, "pitch": 48, "duration": 3, "velocity": 96}, {"time": 2739, "pitch": 64, "duration": 3, "velocity": 117}, {"time": 2742, "pitch": 60, "duration": 3, "velocity": 112}, {"time": 2745, "pitch": 38, "duration": 22, "velocity": 85}, {"time": 2748, "pitch": 45, "duration": 20, "velocity": 97}, {"time": 2751, "pitch": 50, "duration": 6, "velocity": 96}, {"time": 2754, "pitch": 60, "duration": 2, "velocity": 72}, {"time": 2754, "pitch": 62, "duration": 2, "velocity": 69}, {"time": 2757, "pitch": 69, "duration": 11, "velocity": 122}, {"time": 2760, "pitch": 50, "duration": 3, "velocity": 100}, {"time": 2763, "pitch": 65, "duration": 8, "velocity": 117}, {"time": 2766, "pitch": 62, "duration": 10, "velocity": 112}, {"time": 2769, "pitch": 38, "duration": 21, "velocity": 61}, {"time": 2772, "pitch": 45, "duration": 21, "velocity": 100}, {"time": 2775, "pitch": 50, "duration": 6, "velocity": 107}, {"time": 2778, "pitch": 65, "duration": 2, "velocity": 97}, {"time": 2778, "pitch": 69, "duration": 2, "velocity": 112}, {"time": 2781, "pitch": 65, "duration": 5, "velocity": 107}, {"time": 2781, "pitch": 69, "duration": 5, "velocity": 117}, {"time": 2784, "pitch": 50, "duration": 4, "velocity": 102}, {"time": 2787, "pitch": 62, "duration": 4, "velocity": 117}, {"time": 2790, "pitch": 65, "duration": 2, "velocity": 100}, {"time": 2790, "pitch": 69, "duration": 2, "velocity": 102}, {"time": 2793, "pitch": 38, "duration": 22, "velocity": 100}, {"time": 2799, "pitch": 45, "duration": 17, "velocity": 88}, {"time": 2802, "pitch": 50, "duration": 4, "velocity": 102}, {"time": 2805, "pitch": 65, "duration": 4, "velocity": 112}, {"time": 2805, "pitch": 69, "duration": 4, "velocity": 112}, {"time": 2808, "pitch": 50, "duration": 3, "velocity": 99}, {"time": 2811, "pitch": 62, "duration": 4, "velocity": 92}, {"time": 2814, "pitch": 65, "duration": 11, "velocity": 112}, {"time": 2814, "pitch": 69, "duration": 11, "velocity": 107}, {"time": 2817, "pitch": 38, "duration": 15, "velocity": 60}, {"time": 2820, "pitch": 45, "duration": 13, "velocity": 102}, {"time": 2823, "pitch": 50, "duration": 7, "velocity": 99}, {"time": 2826, "pitch": 62, "duration": 3, "velocity": 85}, {"time": 2829, "pitch": 65, "duration": 6, "velocity": 97}, {"time": 2829, "pitch": 69, "duration": 6, "velocity": 127}, {"time": 2832, "pitch": 50, "duration": 3, "velocity": 99}, {"time": 2835, "pitch": 62, "duration": 5, "velocity": 100}, {"time": 2838, "pitch": 65, "duration": 2, "velocity": 99}, {"time": 2838, "pitch": 69, "duration": 2, "velocity": 100}, {"time": 2841, "pitch": 45, "duration": 22, "velocity": 81}, {"time": 2844, "pitch": 52, "duration": 21, "velocity": 96}, {"time": 2847, "pitch": 57, "duration": 6, "velocity": 107}, {"time": 2850, "pitch": 64, "duration": 2, "velocity": 92}, {"time": 2853, "pitch": 64, "duration": 1, "velocity": 51}, {"time": 2853, "pitch": 69, "duration": 7, "velocity": 100}, {"time": 2853, "pitch": 72, "duration": 7, "velocity": 112}, {"time": 2856, "pitch": 57, "duration": 3, "velocity": 107}, {"time": 2859, "pitch": 64, "duration": 8, "velocity": 83}, {"time": 2862, "pitch": 69, "duration": 9, "velocity": 100}, {"time": 2862, "pitch": 72, "duration": 7, "velocity": 102}, {"time": 2865, "pitch": 45, "duration": 16, "velocity": 96}, {"time": 2868, "pitch": 52, "duration": 13, "velocity": 122}, {"time": 2871, "pitch": 57, "duration": 6, "velocity": 127}, {"time": 2874, "pitch": 64, "duration": 5, "velocity": 100}, {"time": 2877, "pitch": 72, "duration": 10, "velocity": 127}, {"time": 2880, "pitch": 57, "duration": 2, "velocity": 112}, {"time": 2883, "pitch": 69, "duration": 4, "velocity": 127}, {"time": 2886, "pitch": 64, "duration": 3, "velocity": 112}, {"time": 2889, "pitch": 46, "duration": 18, "velocity": 73}, {"time": 2892, "pitch": 53, "duration": 13, "velocity": 79}, {"time": 2895, "pitch": 58, "duration": 6, "velocity": 122}, {"time": 2898, "pitch": 62, "duration": 3, "velocity": 100}, {"time": 2901, "pitch": 70, "duration": 10, "velocity": 127}, {"time": 2904, "pitch": 58, "duration": 4, "velocity": 127}, {"time": 2907, "pitch": 65, "duration": 4, "velocity": 127}, {"time": 2910, "pitch": 62, "duration": 2, "velocity": 112}, {"time": 2913, "pitch": 48, "duration": 17, "velocity": 86}, {"time": 2916, "pitch": 55, "duration": 9, "velocity": 107}, {"time": 2919, "pitch": 60, "duration": 3, "velocity": 107}, {"time": 2922, "pitch": 64, "duration": 3, "velocity": 117}, {"time": 2925, "pitch": 67, "duration": 9, "velocity": 117}, {"time": 2928, "pitch": 55, "duration": 2, "velocity": 97}, {"time": 2931, "pitch": 64, "duration": 4, "velocity": 117}, {"time": 2934, "pitch": 60, "duration": 3, "velocity": 117}, {"time": 2937, "pitch": 38, "duration": 22, "velocity": 78}, {"time": 2940, "pitch": 45, "duration": 21, "velocity": 99}, {"time": 2943, "pitch": 50, "duration": 6, "velocity": 99}, {"time": 2946, "pitch": 57, "duration": 5, "velocity": 97}, {"time": 2949, "pitch": 65, "duration": 6, "velocity": 122}, {"time": 2952, "pitch": 50, "duration": 2, "velocity": 107}, {"time": 2955, "pitch": 64, "duration": 3, "velocity": 102}, {"time": 2958, "pitch": 57, "duration": 9, "velocity": 93}, {"time": 2958, "pitch": 62, "duration": 10, "velocity": 89}, {"time": 2958, "pitch": 65, "duration": 10, "velocity": 60}, {"time": 2961, "pitch": 38, "duration": 16, "velocity": 92}, {"time": 2964, "pitch": 45, "duration": 14, "velocity": 107}, {"time": 2967, "pitch": 50, "duration": 7, "velocity": 107}, {"time": 2970, "pitch": 57, "duration": 4, "velocity": 107}, {"time": 2973, "pitch": 62, "duration": 4, "velocity": 107}, {"time": 2973, "pitch": 65, "duration": 4, "velocity": 117}, {"time": 2976, "pitch": 50, "duration": 3, "velocity": 112}, {"time": 2979, "pitch": 62, "duration": 4, "velocity": 107}, {"time": 2979, "pitch": 65, "duration": 4, "velocity": 107}, {"time": 2982, "pitch": 57, "duration": 2, "velocity": 107}, {"time": 2985, "pitch": 45, "duration": 21, "velocity": 69}, {"time": 2988, "pitch": 52, "duration": 21, "velocity": 99}, {"time": 2991, "pitch": 57, "duration": 6, "velocity": 100}, {"time": 2994, "pitch": 64, "duration": 5, "velocity": 97}, {"time": 2997, "pitch": 69, "duration": 6, "velocity": 97}, {"time": 2997, "pitch": 72, "duration": 6, "velocity": 100}, {"time": 3000, "pitch": 57, "duration": 3, "velocity": 107}, {"time": 3003, "pitch": 64, "duration": 13, "velocity": 92}, {"time": 3006, "pitch": 69, "duration": 10, "velocity": 102}, {"time": 3006, "pitch": 72, "duration": 10, "velocity": 107}, {"time": 3009, "pitch": 45, "duration": 16, "velocity": 75}, {"time": 3012, "pitch": 52, "duration": 13, "velocity": 96}, {"time": 3015, "pitch": 57, "duration": 6, "velocity": 102}, {"time": 3018, "pitch": 64, "duration": 2, "velocity": 107}, {"time": 3021, "pitch": 64, "duration": 4, "velocity": 88}, {"time": 3021, "pitch": 69, "duration": 4, "velocity": 112}, {"time": 3021, "pitch": 72, "duration": 4, "velocity": 127}, {"time": 3024, "pitch": 57, "duration": 1, "velocity": 102}, {"time": 3027, "pitch": 69, "duration": 2, "velocity": 117}, {"time": 3027, "pitch": 72, "duration": 4, "velocity": 127}, {"time": 3030, "pitch": 64, "duration": 3, "velocity": 107}, {"time": 3030, "pitch": 69, "duration": 1, "velocity": 45}, {"time": 3033, "pitch": 46, "duration": 17, "velocity": 92}, {"time": 3036, "pitch": 53, "duration": 14, "velocity": 64}, {"time": 3039, "pitch": 58, "duration": 6, "velocity": 127}, {"time": 3042, "pitch": 62, "duration": 2, "velocity": 88}, {"time": 3045, "pitch": 65, "duration": 4, "velocity": 96}, {"time": 3045, "pitch": 70, "duration": 7, "velocity": 127}, {"time": 3048, "pitch": 58, "duration": 3, "velocity": 107}, {"time": 3051, "pitch": 62, "duration": 5, "velocity": 107}, {"time": 3054, "pitch": 65, "duration": 2, "velocity": 93}, {"time": 3054, "pitch": 70, "duration": 3, "velocity": 117}, {"time": 3057, "pitch": 48, "duration": 17, "velocity": 81}, {"time": 3060, "pitch": 55, "duration": 10, "velocity": 97}, {"time": 3063, "pitch": 60, "duration": 3, "velocity": 99}, {"time": 3066, "pitch": 64, "duration": 2, "velocity": 89}, {"time": 3066, "pitch": 67, "duration": 1, "velocity": 96}, {"time": 3069, "pitch": 64, "duration": 4, "velocity": 97}, {"time": 3069, "pitch": 67, "duration": 4, "velocity": 100}, {"time": 3072, "pitch": 55, "duration": 1, "velocity": 85}, {"time": 3075, "pitch": 60, "duration": 5, "velocity": 102}, {"time": 3075, "pitch": 64, "duration": 1, "velocity": 42}, {"time": 3078, "pitch": 64, "duration": 2, "velocity": 89}, {"time": 3078, "pitch": 67, "duration": 2, "velocity": 93}, {"time": 3081, "pitch": 38, "duration": 22, "velocity": 73}, {"time": 3084, "pitch": 45, "duration": 22, "velocity": 85}, {"time": 3087, "pitch": 50, "duration": 6, "velocity": 86}, {"time": 3090, "pitch": 57, "duration": 40, "velocity": 66}, {"time": 3093, "pitch": 65, "duration": 19, "velocity": 89}, {"time": 3096, "pitch": 50, "duration": 8, "velocity": 78}, {"time": 3099, "pitch": 64, "duration": 13, "velocity": 71}, {"time": 3102, "pitch": 62, "duration": 13, "velocity": 64}, {"time": 3105, "pitch": 38, "duration": 23, "velocity": 64}, {"time": 3114, "pitch": 45, "duration": 15, "velocity": 48}, {"time": 3117, "pitch": 65, "duration": 13, "velocity": 69}, {"time": 3123, "pitch": 62, "duration": 7, "velocity": 49}, {"time": 3129, "pitch": 38, "duration": 33, "velocity": 73}, {"time": 3135, "pitch": 45, "duration": 29, "velocity": 56}, {"time": 3141, "pitch": 50, "duration": 15, "velocity": 88}, {"time": 3147, "pitch": 57, "duration": 19, "velocity": 66}, {"time": 3153, "pitch": 65, "duration": 24, "velocity": 100}, {"time": 3159, "pitch": 50, "duration": 6, "velocity": 57}, {"time": 3165, "pitch": 62, "duration": 12, "velocity": 77}, {"time": 3171, "pitch": 57, "duration": 6, "velocity": 60}, {"time": 3177, "pitch": 45, "duration": 37, "velocity": 81}, {"time": 3183, "pitch": 52, "duration": 21, "velocity": 42}, {"time": 3189, "pitch": 57, "duration": 19, "velocity": 88}, {"time": 3195, "pitch": 60, "duration": 7, "velocity": 71}, {"time": 3201, "pitch": 64, "duration": 13, "velocity": 76}, {"time": 3201, "pitch": 69, "duration": 24, "velocity": 89}, {"time": 3207, "pitch": 52, "duration": 6, "velocity": 63}, {"time": 3213, "pitch": 60, "duration": 13, "velocity": 93}, {"time": 3219, "pitch": 64, "duration": 7, "velocity": 99}, {"time": 3225, "pitch": 38, "duration": 36, "velocity": 74}, {"time": 3231, "pitch": 45, "duration": 30, "velocity": 48}, {"time": 3237, "pitch": 50, "duration": 15, "velocity": 81}, {"time": 3243, "pitch": 57, "duration": 7, "velocity": 70}, {"time": 3249, "pitch": 62, "duration": 13, "velocity": 83}, {"time": 3249, "pitch": 65, "duration": 24, "velocity": 83}, {"time": 3255, "pitch": 50, "duration": 9, "velocity": 27}, {"time": 3261, "pitch": 57, "duration": 11, "velocity": 83}, {"time": 3267, "pitch": 62, "duration": 6, "velocity": 85}, {"time": 3273, "pitch": 45, "duration": 43, "velocity": 76}, {"time": 3279, "pitch": 52, "duration": 20, "velocity": 55}, {"time": 3285, "pitch": 57, "duration": 13, "velocity": 99}, {"time": 3291, "pitch": 60, "duration": 7, "velocity": 82}, {"time": 3297, "pitch": 64, "duration": 14, "velocity": 73}, {"time": 3297, "pitch": 69, "duration": 26, "velocity": 89}, {"time": 3303, "pitch": 52, "duration": 19, "velocity": 47}, {"time": 3309, "pitch": 60, "duration": 13, "velocity": 78}, {"time": 3315, "pitch": 64, "duration": 8, "velocity": 58}, {"time": 3321, "pitch": 45, "duration": 34, "velocity": 88}, {"time": 3327, "pitch": 52, "duration": 28, "velocity": 52}, {"time": 3333, "pitch": 57, "duration": 18, "velocity": 92}, {"time": 3339, "pitch": 60, "duration": 7, "velocity": 66}, {"time": 3345, "pitch": 64, "duration": 13, "velocity": 77}, {"time": 3345, "pitch": 69, "duration": 23, "velocity": 88}, {"time": 3357, "pitch": 60, "duration": 12, "velocity": 79}, {"time": 3363, "pitch": 64, "duration": 6, "velocity": 77}, {"time": 3369, "pitch": 38, "duration": 40, "velocity": 67}, {"time": 3375, "pitch": 45, "duration": 33, "velocity": 39}, {"time": 3381, "pitch": 50, "duration": 15, "velocity": 82}, {"time": 3387, "pitch": 57, "duration": 7, "velocity": 56}, {"time": 3393, "pitch": 62, "duration": 22, "velocity": 76}, {"time": 3405, "pitch": 50, "duration": 2, "velocity": 23}, {"time": 3405, "pitch": 57, "duration": 12, "velocity": 38}, {"time": 3417, "pitch": 36, "duration": 6, "velocity": 66}, {"time": 3423, "pitch": 55, "duration": 9, "velocity": 72}, {"time": 3429, "pitch": 60, "duration": 2, "velocity": 65}, {"time": 3435, "pitch": 41, "duration": 21, "velocity": 63}, {"time": 3435, "pitch": 53, "duration": 19, "velocity": 88}, {"time": 3435, "pitch": 57, "duration": 16, "velocity": 73}, {"time": 3435, "pitch": 60, "duration": 30, "velocity": 69}, {"time": 3453, "pitch": 57, "duration": 12, "velocity": 63}, {"time": 3459, "pitch": 53, "duration": 6, "velocity": 50}, {"time": 3465, "pitch": 38, "duration": 36, "velocity": 59}, {"time": 3471, "pitch": 45, "duration": 31, "velocity": 52}, {"time": 3477, "pitch": 50, "duration": 13, "velocity": 81}, {"time": 3483, "pitch": 57, "duration": 19, "velocity": 58}, {"time": 3489, "pitch": 65, "duration": 23, "velocity": 90}, {"time": 3501, "pitch": 62, "duration": 11, "velocity": 69}, {"time": 3507, "pitch": 57, "duration": 6, "velocity": 58}, {"time": 3513, "pitch": 45, "duration": 41, "velocity": 68}, {"time": 3519, "pitch": 52, "duration": 22, "velocity": 55}, {"time": 3525, "pitch": 57, "duration": 36, "velocity": 58}, {"time": 3531, "pitch": 64, "duration": 16, "velocity": 85}, {"time": 3537, "pitch": 60, "duration": 11, "velocity": 60}, {"time": 3543, "pitch": 52, "duration": 9, "velocity": 51}, {"time": 3549, "pitch": 64, "duration": 12, "velocity": 63}, {"time": 3555, "pitch": 60, "duration": 6, "velocity": 55}, {"time": 3561, "pitch": 45, "duration": 36, "velocity": 88}, {"time": 3567, "pitch": 52, "duration": 20, "velocity": 66}, {"time": 3573, "pitch": 57, "duration": 16, "velocity": 72}, {"time": 3579, "pitch": 64, "duration": 25, "velocity": 96}, {"time": 3585, "pitch": 60, "duration": 12, "velocity": 69}, {"time": 3591, "pitch": 52, "duration": 5, "velocity": 54}, {"time": 3597, "pitch": 57, "duration": 10, "velocity": 127}, {"time": 3603, "pitch": 60, "duration": 4, "velocity": 112}, {"time": 3606, "pitch": 64, "duration": 2, "velocity": 92}, {"time": 3609, "pitch": 41, "duration": 21, "velocity": 92}, {"time": 3612, "pitch": 48, "duration": 21, "velocity": 83}, {"time": 3615, "pitch": 53, "duration": 5, "velocity": 96}, {"time": 3618, "pitch": 60, "duration": 4, "velocity": 88}, {"time": 3621, "pitch": 69, "duration": 11, "velocity": 117}, {"time": 3624, "pitch": 53, "duration": 3, "velocity": 93}, {"time": 3627, "pitch": 65, "duration": 6, "velocity": 95}, {"time": 3630, "pitch": 60, "duration": 4, "velocity": 97}, {"time": 3633, "pitch": 41, "duration": 17, "velocity": 79}, {"time": 3636, "pitch": 48, "duration": 10, "velocity": 52}, {"time": 3639, "pitch": 53, "duration": 4, "velocity": 72}, {"time": 3642, "pitch": 60, "duration": 9, "velocity": 66}, {"time": 3645, "pitch": 69, "duration": 9, "velocity": 100}, {"time": 3648, "pitch": 48, "duration": 2, "velocity": 78}, {"time": 3651, "pitch": 65, "duration": 3, "velocity": 93}, {"time": 3654, "pitch": 60, "duration": 4, "velocity": 82}, {"time": 3657, "pitch": 36, "duration": 22, "velocity": 63}, {"time": 3660, "pitch": 43, "duration": 21, "velocity": 63}, {"time": 3663, "pitch": 48, "duration": 6, "velocity": 88}, {"time": 3666, "pitch": 60, "duration": 4, "velocity": 76}, {"time": 3669, "pitch": 67, "duration": 12, "velocity": 127}, {"time": 3672, "pitch": 48, "duration": 3, "velocity": 99}, {"time": 3675, "pitch": 64, "duration": 7, "velocity": 97}, {"time": 3678, "pitch": 60, "duration": 4, "velocity": 99}, {"time": 3681, "pitch": 36, "duration": 16, "velocity": 71}, {"time": 3684, "pitch": 43, "duration": 13, "velocity": 73}, {"time": 3687, "pitch": 48, "duration": 6, "velocity": 85}, {"time": 3690, "pitch": 60, "duration": 4, "velocity": 85}, {"time": 3693, "pitch": 67, "duration": 7, "velocity": 127}, {"time": 3696, "pitch": 48, "duration": 4, "velocity": 100}, {"time": 3699, "pitch": 64, "duration": 3, "velocity": 107}, {"time": 3702, "pitch": 60, "duration": 4, "velocity": 97}, {"time": 3705, "pitch": 41, "duration": 22, "velocity": 83}, {"time": 3708, "pitch": 48, "duration": 21, "velocity": 77}, {"time": 3711, "pitch": 53, "duration": 6, "velocity": 96}, {"time": 3714, "pitch": 60, "duration": 4, "velocity": 96}, {"time": 3717, "pitch": 69, "duration": 15, "velocity": 127}, {"time": 3720, "pitch": 53, "duration": 2, "velocity": 97}, {"time": 3723, "pitch": 65, "duration": 14, "velocity": 83}, {"time": 3726, "pitch": 60, "duration": 10, "velocity": 95}, {"time": 3729, "pitch": 41, "duration": 18, "velocity": 71}, {"time": 3732, "pitch": 48, "duration": 13, "velocity": 82}, {"time": 3735, "pitch": 53, "duration": 6, "velocity": 92}, {"time": 3738, "pitch": 60, "duration": 2, "velocity": 81}, {"time": 3741, "pitch": 65, "duration": 6, "velocity": 90}, {"time": 3741, "pitch": 69, "duration": 7, "velocity": 122}, {"time": 3744, "pitch": 53, "duration": 2, "velocity": 99}, {"time": 3747, "pitch": 60, "duration": 4, "velocity": 100}, {"time": 3750, "pitch": 65, "duration": 4, "velocity": 107}, {"time": 3753, "pitch": 38, "duration": 21, "velocity": 76}, {"time": 3756, "pitch": 45, "duration": 20, "velocity": 86}, {"time": 3759, "pitch": 50, "duration": 6, "velocity": 97}, {"time": 3762, "pitch": 62, "duration": 4, "velocity": 89}, {"time": 3765, "pitch": 69, "duration": 10, "velocity": 117}, {"time": 3768, "pitch": 50, "duration": 3, "velocity": 93}, {"time": 3771, "pitch": 65, "duration": 6, "velocity": 95}, {"time": 3774, "pitch": 62, "duration": 7, "velocity": 99}, {"time": 3777, "pitch": 38, "duration": 15, "velocity": 66}, {"time": 3780, "pitch": 45, "duration": 12, "velocity": 68}, {"time": 3783, "pitch": 50, "duration": 6, "velocity": 83}, {"time": 3786, "pitch": 62, "duration": 3, "velocity": 90}, {"time": 3789, "pitch": 69, "duration": 7, "velocity": 112}, {"time": 3792, "pitch": 50, "duration": 2, "velocity": 92}, {"time": 3795, "pitch": 65, "duration": 3, "velocity": 96}, {"time": 3798, "pitch": 62, "duration": 3, "velocity": 99}, {"time": 3801, "pitch": 46, "duration": 20, "velocity": 76}, {"time": 3804, "pitch": 53, "duration": 20, "velocity": 61}, {"time": 3807, "pitch": 58, "duration": 6, "velocity": 112}, {"time": 3810, "pitch": 62, "duration": 4, "velocity": 89}, {"time": 3813, "pitch": 70, "duration": 9, "velocity": 127}, {"time": 3816, "pitch": 58, "duration": 11, "velocity": 102}, {"time": 3819, "pitch": 65, "duration": 5, "velocity": 100}, {"time": 3822, "pitch": 62, "duration": 5, "velocity": 95}, {"time": 3825, "pitch": 46, "duration": 17, "velocity": 88}, {"time": 3828, "pitch": 53, "duration": 13, "velocity": 67}, {"time": 3831, "pitch": 58, "duration": 7, "velocity": 99}, {"time": 3834, "pitch": 62, "duration": 4, "velocity": 69}, {"time": 3837, "pitch": 70, "duration": 9, "velocity": 127}, {"time": 3840, "pitch": 58, "duration": 2, "velocity": 96}, {"time": 3843, "pitch": 65, "duration": 4, "velocity": 97}, {"time": 3846, "pitch": 62, "duration": 2, "velocity": 99}, {"time": 3849, "pitch": 38, "duration": 21, "velocity": 52}, {"time": 3852, "pitch": 45, "duration": 22, "velocity": 79}, {"time": 3855, "pitch": 50, "duration": 6, "velocity": 89}, {"time": 3858, "pitch": 57, "duration": 4, "velocity": 99}, {"time": 3861, "pitch": 65, "duration": 10, "velocity": 102}, {"time": 3864, "pitch": 50, "duration": 4, "velocity": 86}, {"time": 3867, "pitch": 62, "duration": 5, "velocity": 100}, {"time": 3870, "pitch": 57, "duration": 4, "velocity": 97}, {"time": 3873, "pitch": 38, "duration": 15, "velocity": 72}, {"time": 3876, "pitch": 45, "duration": 13, "velocity": 88}, {"time": 3879, "pitch": 50, "duration": 6, "velocity": 95}, {"time": 3882, "pitch": 57, "duration": 4, "velocity": 107}, {"time": 3885, "pitch": 65, "duration": 11, "velocity": 100}, {"time": 3888, "pitch": 50, "duration": 2, "velocity": 97}, {"time": 3891, "pitch": 62, "duration": 5, "velocity": 100}, {"time": 3894, "pitch": 57, "duration": 2, "velocity": 100}, {"time": 3897, "pitch": 43, "duration": 21, "velocity": 86}, {"time": 3900, "pitch": 50, "duration": 20, "velocity": 76}, {"time": 3903, "pitch": 55, "duration": 6, "velocity": 95}, {"time": 3906, "pitch": 62, "duration": 4, "velocity": 97}, {"time": 3909, "pitch": 71, "duration": 12, "velocity": 117}, {"time": 3912, "pitch": 55, "duration": 3, "velocity": 92}, {"time": 3915, "pitch": 67, "duration": 12, "velocity": 88}, {"time": 3918, "pitch": 62, "duration": 5, "velocity": 92}, {"time": 3921, "pitch": 43, "duration": 17, "velocity": 48}, {"time": 3924, "pitch": 50, "duration": 10, "velocity": 73}, {"time": 3927, "pitch": 55, "duration": 6, "velocity": 92}, {"time": 3930, "pitch": 62, "duration": 3, "velocity": 86}, {"time": 3933, "pitch": 71, "duration": 10, "velocity": 117}, {"time": 3936, "pitch": 50, "duration": 1, "velocity": 79}, {"time": 3939, "pitch": 67, "duration": 4, "velocity": 97}, {"time": 3942, "pitch": 62, "duration": 3, "velocity": 102}, {"time": 3945, "pitch": 36, "duration": 20, "velocity": 72}, {"time": 3948, "pitch": 43, "duration": 20, "velocity": 88}, {"time": 3951, "pitch": 48, "duration": 6, "velocity": 93}, {"time": 3954, "pitch": 60, "duration": 4, "velocity": 97}, {"time": 3957, "pitch": 67, "duration": 12, "velocity": 127}, {"time": 3960, "pitch": 48, "duration": 3, "velocity": 100}, {"time": 3963, "pitch": 64, "duration": 6, "velocity": 127}, {"time": 3966, "pitch": 60, "duration": 7, "velocity": 102}, {"time": 3969, "pitch": 36, "duration": 15, "velocity": 85}, {"time": 3972, "pitch": 43, "duration": 13, "velocity": 102}, {"time": 3975, "pitch": 48, "duration": 6, "velocity": 117}, {"time": 3978, "pitch": 60, "duration": 2, "velocity": 93}, {"time": 3978, "pitch": 64, "duration": 1, "velocity": 95}, {"time": 3978, "pitch": 67, "duration": 2, "velocity": 93}, {"time": 3981, "pitch": 60, "duration": 1, "velocity": 64}, {"time": 3981, "pitch": 64, "duration": 4, "velocity": 100}, {"time": 3981, "pitch": 67, "duration": 8, "velocity": 112}, {"time": 3984, "pitch": 48, "duration": 2, "velocity": 92}, {"time": 3987, "pitch": 60, "duration": 6, "velocity": 127}, {"time": 3990, "pitch": 64, "duration": 2, "velocity": 127}, {"time": 3993, "pitch": 41, "duration": 21, "velocity": 82}, {"time": 3996, "pitch": 48, "duration": 21, "velocity": 92}, {"time": 3999, "pitch": 53, "duration": 6, "velocity": 96}, {"time": 4002, "pitch": 60, "duration": 4, "velocity": 100}, {"time": 4005, "pitch": 69, "duration": 10, "velocity": 112}, {"time": 4008, "pitch": 53, "duration": 2, "velocity": 93}, {"time": 4011, "pitch": 65, "duration": 8, "velocity": 100}, {"time": 4014, "pitch": 60, "duration": 4, "velocity": 99}, {"time": 4017, "pitch": 41, "duration": 17, "velocity": 66}, {"time": 4020, "pitch": 48, "duration": 13, "velocity": 86}, {"time": 4023, "pitch": 53, "duration": 6, "velocity": 102}, {"time": 4026, "pitch": 60, "duration": 4, "velocity": 92}, {"time": 4029, "pitch": 69, "duration": 9, "velocity": 127}, {"time": 4032, "pitch": 53, "duration": 1, "velocity": 93}, {"time": 4035, "pitch": 65, "duration": 3, "velocity": 127}, {"time": 4038, "pitch": 60, "duration": 3, "velocity": 107}, {"time": 4041, "pitch": 36, "duration": 6, "velocity": 99}, {"time": 4044, "pitch": 55, "duration": 7, "velocity": 89}, {"time": 4047, "pitch": 60, "duration": 3, "velocity": 97}, {"time": 4050, "pitch": 64, "duration": 3, "velocity": 93}, {"time": 4053, "pitch": 60, "duration": 2, "velocity": 122}, {"time": 4059, "pitch": 41, "duration": 22, "velocity": 76}, {"time": 4059, "pitch": 60, "duration": 14, "velocity": 102}, {"time": 4059, "pitch": 65, "duration": 15, "velocity": 102}, {"time": 4059, "pitch": 69, "duration": 15, "velocity": 112}, {"time": 4071, "pitch": 48, "duration": 12, "velocity": 83}, {"time": 4074, "pitch": 53, "duration": 4, "velocity": 93}, {"time": 4077, "pitch": 69, "duration": 10, "velocity": 112}, {"time": 4080, "pitch": 53, "duration": 8, "velocity": 95}, {"time": 4083, "pitch": 65, "duration": 5, "velocity": 102}, {"time": 4086, "pitch": 60, "duration": 3, "velocity": 96}, {"time": 4089, "pitch": 45, "duration": 21, "velocity": 72}, {"time": 4092, "pitch": 52, "duration": 9, "velocity": 63}, {"time": 4095, "pitch": 57, "duration": 4, "velocity": 93}, {"time": 4098, "pitch": 60, "duration": 2, "velocity": 95}, {"time": 4101, "pitch": 64, "duration": 12, "velocity": 102}, {"time": 4104, "pitch": 52, "duration": 9, "velocity": 82}, {"time": 4107, "pitch": 60, "duration": 6, "velocity": 97}, {"time": 4110, "pitch": 57, "duration": 3, "velocity": 92}, {"time": 4113, "pitch": 45, "duration": 17, "velocity": 76}, {"time": 4116, "pitch": 52, "duration": 13, "velocity": 69}, {"time": 4119, "pitch": 57, "duration": 6, "velocity": 88}, {"time": 4122, "pitch": 60, "duration": 4, "velocity": 89}, {"time": 4125, "pitch": 69, "duration": 10, "velocity": 100}, {"time": 4128, "pitch": 57, "duration": 1, "velocity": 89}, {"time": 4131, "pitch": 64, "duration": 5, "velocity": 97}, {"time": 4134, "pitch": 60, "duration": 2, "velocity": 93}, {"time": 4137, "pitch": 38, "duration": 16, "velocity": 67}, {"time": 4140, "pitch": 45, "duration": 13, "velocity": 78}, {"time": 4143, "pitch": 50, "duration": 12, "velocity": 92}, {"time": 4146, "pitch": 62, "duration": 3, "velocity": 73}, {"time": 4149, "pitch": 69, "duration": 10, "velocity": 122}, {"time": 4155, "pitch": 65, "duration": 5, "velocity": 102}, {"time": 4158, "pitch": 62, "duration": 3, "velocity": 95}, {"time": 4161, "pitch": 45, "duration": 16, "velocity": 71}, {"time": 4164, "pitch": 52, "duration": 10, "velocity": 75}, {"time": 4167, "pitch": 57, "duration": 3, "velocity": 93}, {"time": 4170, "pitch": 60, "duration": 2, "velocity": 97}, {"time": 4173, "pitch": 64, "duration": 10, "velocity": 112}, {"time": 4176, "pitch": 52, "duration": 1, "velocity": 92}, {"time": 4179, "pitch": 60, "duration": 4, "velocity": 117}, {"time": 4182, "pitch": 57, "duration": 2, "velocity": 107}, {"time": 4185, "pitch": 46, "duration": 22, "velocity": 83}, {"time": 4188, "pitch": 53, "duration": 20, "velocity": 66}, {"time": 4191, "pitch": 58, "duration": 6, "velocity": 107}, {"time": 4194, "pitch": 62, "duration": 2, "velocity": 93}, {"time": 4197, "pitch": 70, "duration": 12, "velocity": 117}, {"time": 4200, "pitch": 58, "duration": 11, "velocity": 102}, {"time": 4203, "pitch": 65, "duration": 13, "velocity": 89}, {"time": 4206, "pitch": 62, "duration": 7, "velocity": 97}, {"time": 4209, "pitch": 46, "duration": 17, "velocity": 89}, {"time": 4212, "pitch": 53, "duration": 13, "velocity": 36}, {"time": 4215, "pitch": 58, "duration": 7, "velocity": 100}, {"time": 4218, "pitch": 62, "duration": 4, "velocity": 95}, {"time": 4221, "pitch": 70, "duration": 10, "velocity": 127}, {"time": 4224, "pitch": 58, "duration": 2, "velocity": 102}, {"time": 4227, "pitch": 65, "duration": 4, "velocity": 99}, {"time": 4230, "pitch": 62, "duration": 2, "velocity": 102}, {"time": 4233, "pitch": 38, "duration": 21, "velocity": 76}, {"time": 4236, "pitch": 45, "duration": 21, "velocity": 85}, {"time": 4239, "pitch": 50, "duration": 6, "velocity": 85}, {"time": 4242, "pitch": 57, "duration": 4, "velocity": 88}, {"time": 4245, "pitch": 65, "duration": 13, "velocity": 100}, {"time": 4248, "pitch": 50, "duration": 2, "velocity": 93}, {"time": 4251, "pitch": 62, "duration": 8, "velocity": 99}, {"time": 4254, "pitch": 57, "duration": 5, "velocity": 88}, {"time": 4257, "pitch": 38, "duration": 15, "velocity": 59}, {"time": 4260, "pitch": 45, "duration": 12, "velocity": 57}, {"time": 4263, "pitch": 50, "duration": 6, "velocity": 93}, {"time": 4266, "pitch": 57, "duration": 3, "velocity": 93}, {"time": 4269, "pitch": 65, "duration": 11, "velocity": 117}, {"time": 4272, "pitch": 50, "duration": 5, "velocity": 92}, {"time": 4275, "pitch": 62, "duration": 5, "velocity": 100}, {"time": 4278, "pitch": 57, "duration": 2, "velocity": 93}, {"time": 4281, "pitch": 43, "duration": 21, "velocity": 79}, {"time": 4284, "pitch": 50, "duration": 20, "velocity": 88}, {"time": 4287, "pitch": 55, "duration": 6, "velocity": 96}, {"time": 4290, "pitch": 62, "duration": 4, "velocity": 97}, {"time": 4293, "pitch": 71, "duration": 10, "velocity": 107}, {"time": 4296, "pitch": 55, "duration": 9, "velocity": 97}, {"time": 4299, "pitch": 67, "duration": 5, "velocity": 107}, {"time": 4302, "pitch": 62, "duration": 3, "velocity": 97}, {"time": 4305, "pitch": 45, "duration": 21, "velocity": 89}, {"time": 4308, "pitch": 52, "duration": 21, "velocity": 77}, {"time": 4311, "pitch": 57, "duration": 7, "velocity": 93}, {"time": 4314, "pitch": 60, "duration": 4, "velocity": 92}, {"time": 4317, "pitch": 69, "duration": 10, "velocity": 102}, {"time": 4320, "pitch": 57, "duration": 2, "velocity": 93}, {"time": 4323, "pitch": 64, "duration": 5, "velocity": 85}, {"time": 4326, "pitch": 60, "duration": 3, "velocity": 102}, {"time": 4329, "pitch": 45, "duration": 21, "velocity": 79}, {"time": 4332, "pitch": 52, "duration": 21, "velocity": 71}, {"time": 4335, "pitch": 57, "duration": 6, "velocity": 93}, {"time": 4338, "pitch": 60, "duration": 4, "velocity": 75}, {"time": 4341, "pitch": 69, "duration": 14, "velocity": 99}, {"time": 4344, "pitch": 57, "duration": 10, "velocity": 90}, {"time": 4347, "pitch": 64, "duration": 7, "velocity": 93}, {"time": 4350, "pitch": 60, "duration": 7, "velocity": 100}, {"time": 4353, "pitch": 45, "duration": 20, "velocity": 78}, {"time": 4356, "pitch": 52, "duration": 21, "velocity": 67}, {"time": 4359, "pitch": 57, "duration": 6, "velocity": 99}, {"time": 4362, "pitch": 64, "duration": 2, "velocity": 88}, {"time": 4362, "pitch": 69, "duration": 1, "velocity": 96}, {"time": 4365, "pitch": 64, "duration": 5, "velocity": 93}, {"time": 4365, "pitch": 69, "duration": 7, "velocity": 112}, {"time": 4368, "pitch": 57, "duration": 2, "velocity": 99}, {"time": 4371, "pitch": 60, "duration": 4, "velocity": 93}, {"time": 4374, "pitch": 64, "duration": 1, "velocity": 75}, {"time": 4374, "pitch": 69, "duration": 1, "velocity": 56}, {"time": 4377, "pitch": 45, "duration": 40, "velocity": 96}, {"time": 4377, "pitch": 60, "duration": 8, "velocity": 93}, {"time": 4377, "pitch": 64, "duration": 6, "velocity": 100}, {"time": 4377, "pitch": 69, "duration": 8, "velocity": 99}, {"time": 4383, "pitch": 52, "duration": 23, "velocity": 82}, {"time": 4386, "pitch": 57, "duration": 4, "velocity": 72}, {"time": 4389, "pitch": 60, "duration": 7, "velocity": 107}, {"time": 4389, "pitch": 64, "duration": 7, "velocity": 107}, {"time": 4389, "pitch": 69, "duration": 7, "velocity": 107}, {"time": 4395, "pitch": 57, "duration": 8, "velocity": 100}, {"time": 4398, "pitch": 60, "duration": 4, "velocity": 117}, {"time": 4398, "pitch": 64, "duration": 4, "velocity": 100}, {"time": 4398, "pitch": 69, "duration": 4, "velocity": 102}, {"time": 4404, "pitch": 64, "duration": 6, "velocity": 95}, {"time": 4404, "pitch": 69, "duration": 6, "velocity": 100}, {"time": 4410, "pitch": 52, "duration": 4, "velocity": 96}, {"time": 4410, "pitch": 60, "duration": 1, "velocity": 27}, {"time": 4413, "pitch": 60, "duration": 4, "velocity": 83}, {"time": 4413, "pitch": 64, "duration": 3, "velocity": 102}, {"time": 4413, "pitch": 69, "duration": 4, "velocity": 117}, {"time": 4416, "pitch": 52, "duration": 1, "velocity": 92}, {"time": 4419, "pitch": 60, "duration": 1, "velocity": 63}, {"time": 4419, "pitch": 64, "duration": 1, "velocity": 107}, {"time": 4419, "pitch": 69, "duration": 1, "velocity": 82}, {"time": 4425, "pitch": 46, "duration": 22, "velocity": 122}, {"time": 4425, "pitch": 65, "duration": 7, "velocity": 93}, {"time": 4425, "pitch": 70, "duration": 2, "velocity": 117}, {"time": 4428, "pitch": 53, "duration": 22, "velocity": 35}, {"time": 4431, "pitch": 58, "duration": 6, "velocity": 122}, {"time": 4434, "pitch": 62, "duration": 2, "velocity": 117}, {"time": 4437, "pitch": 65, "duration": 5, "velocity": 102}, {"time": 4437, "pitch": 70, "duration": 6, "velocity": 127}, {"time": 4440, "pitch": 58, "duration": 15, "velocity": 117}, {"time": 4443, "pitch": 62, "duration": 2, "velocity": 95}, {"time": 4443, "pitch": 65, "duration": 1, "velocity": 35}, {"time": 4446, "pitch": 65, "duration": 7, "velocity": 96}, {"time": 4446, "pitch": 70, "duration": 8, "velocity": 127}, {"time": 4449, "pitch": 46, "duration": 16, "velocity": 62}, {"time": 4452, "pitch": 53, "duration": 12, "velocity": 71}, {"time": 4455, "pitch": 65, "duration": 4, "velocity": 97}, {"time": 4455, "pitch": 70, "duration": 3, "velocity": 127}, {"time": 4458, "pitch": 58, "duration": 4, "velocity": 117}, {"time": 4461, "pitch": 65, "duration": 4, "velocity": 97}, {"time": 4461, "pitch": 70, "duration": 4, "velocity": 127}, {"time": 4464, "pitch": 58, "duration": 1, "velocity": 122}, {"time": 4467, "pitch": 65, "duration": 2, "velocity": 107}, {"time": 4467, "pitch": 70, "duration": 3, "velocity": 127}, {"time": 4470, "pitch": 65, "duration": 2, "velocity": 66}, {"time": 4473, "pitch": 38, "duration": 30, "velocity": 95}, {"time": 4473, "pitch": 62, "duration": 5, "velocity": 117}, {"time": 4473, "pitch": 65, "duration": 4, "velocity": 112}, {"time": 4473, "pitch": 69, "duration": 4, "velocity": 127}, {"time": 4479, "pitch": 45, "duration": 27, "velocity": 83}, {"time": 4482, "pitch": 50, "duration": 4, "velocity": 96}, {"time": 4485, "pitch": 62, "duration": 6, "velocity": 112}, {"time": 4485, "pitch": 65, "duration": 6, "velocity": 112}, {"time": 4491, "pitch": 50, "duration": 4, "velocity": 97}, {"time": 4494, "pitch": 57, "duration": 7, "velocity": 96}, {"time": 4494, "pitch": 62, "duration": 7, "velocity": 102}, {"time": 4494, "pitch": 65, "duration": 7, "velocity": 97}, {"time": 4500, "pitch": 50, "duration": 4, "velocity": 107}, {"time": 4503, "pitch": 62, "duration": 4, "velocity": 107}, {"time": 4503, "pitch": 65, "duration": 3, "velocity": 96}, {"time": 4506, "pitch": 38, "duration": 9, "velocity": 102}, {"time": 4509, "pitch": 62, "duration": 4, "velocity": 102}, {"time": 4509, "pitch": 65, "duration": 4, "velocity": 102}, {"time": 4512, "pitch": 45, "duration": 3, "velocity": 83}, {"time": 4512, "pitch": 50, "duration": 4, "velocity": 100}, {"time": 4515, "pitch": 62, "duration": 4, "velocity": 107}, {"time": 4515, "pitch": 65, "duration": 4, "velocity": 112}, {"time": 4518, "pitch": 57, "duration": 1, "velocity": 100}, {"time": 4521, "pitch": 46, "duration": 20, "velocity": 107}, {"time": 4524, "pitch": 53, "duration": 20, "velocity": 56}, {"time": 4527, "pitch": 58, "duration": 5, "velocity": 122}, {"time": 4530, "pitch": 62, "duration": 2, "velocity": 95}, {"time": 4533, "pitch": 65, "duration": 4, "velocity": 97}, {"time": 4533, "pitch": 70, "duration": 4, "velocity": 127}, {"time": 4536, "pitch": 58, "duration": 10, "velocity": 127}, {"time": 4539, "pitch": 62, "duration": 7, "velocity": 100}, {"time": 4542, "pitch": 65, "duration": 5, "velocity": 96}, {"time": 4542, "pitch": 70, "duration": 7, "velocity": 127}, {"time": 4545, "pitch": 46, "duration": 17, "velocity": 99}, {"time": 4548, "pitch": 53, "duration": 13, "velocity": 72}, {"time": 4551, "pitch": 58, "duration": 7, "velocity": 127}, {"time": 4554, "pitch": 62, "duration": 3, "velocity": 97}, {"time": 4554, "pitch": 65, "duration": 1, "velocity": 39}, {"time": 4557, "pitch": 65, "duration": 5, "velocity": 97}, {"time": 4557, "pitch": 70, "duration": 10, "velocity": 127}, {"time": 4560, "pitch": 58, "duration": 2, "velocity": 122}, {"time": 4563, "pitch": 62, "duration": 5, "velocity": 117}, {"time": 4566, "pitch": 65, "duration": 2, "velocity": 100}, {"time": 4569, "pitch": 38, "duration": 22, "velocity": 77}, {"time": 4572, "pitch": 45, "duration": 21, "velocity": 85}, {"time": 4575, "pitch": 50, "duration": 7, "velocity": 107}, {"time": 4578, "pitch": 57, "duration": 2, "velocity": 112}, {"time": 4581, "pitch": 62, "duration": 7, "velocity": 107}, {"time": 4581, "pitch": 65, "duration": 7, "velocity": 117}, {"time": 4584, "pitch": 50, "duration": 4, "velocity": 92}, {"time": 4587, "pitch": 57, "duration": 2, "velocity": 88}, {"time": 4590, "pitch": 57, "duration": 4, "velocity": 66}, {"time": 4590, "pitch": 62, "duration": 10, "velocity": 102}, {"time": 4590, "pitch": 65, "duration": 10, "velocity": 100}, {"time": 4593, "pitch": 38, "duration": 16, "velocity": 82}, {"time": 4596, "pitch": 45, "duration": 13, "velocity": 90}, {"time": 4599, "pitch": 50, "duration": 6, "velocity": 112}, {"time": 4602, "pitch": 57, "duration": 4, "velocity": 99}, {"time": 4602, "pitch": 62, "duration": 1, "velocity": 44}, {"time": 4605, "pitch": 62, "duration": 5, "velocity": 107}, {"time": 4605, "pitch": 65, "duration": 5, "velocity": 127}, {"time": 4608, "pitch": 50, "duration": 7, "velocity": 117}, {"time": 4611, "pitch": 57, "duration": 4, "velocity": 77}, {"time": 4611, "pitch": 62, "duration": 1, "velocity": 34}, {"time": 4614, "pitch": 62, "duration": 2, "velocity": 102}, {"time": 4614, "pitch": 65, "duration": 3, "velocity": 102}, {"time": 4617, "pitch": 41, "duration": 22, "velocity": 83}, {"time": 4620, "pitch": 48, "duration": 21, "velocity": 93}, {"time": 4623, "pitch": 53, "duration": 7, "velocity": 90}, {"time": 4626, "pitch": 60, "duration": 4, "velocity": 89}, {"time": 4629, "pitch": 65, "duration": 6, "velocity": 102}, {"time": 4629, "pitch": 69, "duration": 6, "velocity": 112}, {"time": 4632, "pitch": 53, "duration": 2, "velocity": 97}, {"time": 4635, "pitch": 60, "duration": 12, "velocity": 92}, {"time": 4638, "pitch": 65, "duration": 10, "velocity": 99}, {"time": 4638, "pitch": 69, "duration": 6, "velocity": 117}, {"time": 4641, "pitch": 41, "duration": 21, "velocity": 72}, {"time": 4644, "pitch": 48, "duration": 20, "velocity": 82}, {"time": 4647, "pitch": 53, "duration": 6, "velocity": 96}, {"time": 4650, "pitch": 60, "duration": 4, "velocity": 96}, {"time": 4653, "pitch": 65, "duration": 4, "velocity": 107}, {"time": 4653, "pitch": 69, "duration": 4, "velocity": 112}, {"time": 4656, "pitch": 53, "duration": 3, "velocity": 102}, {"time": 4659, "pitch": 60, "duration": 4, "velocity": 100}, {"time": 4662, "pitch": 65, "duration": 3, "velocity": 107}, {"time": 4662, "pitch": 69, "duration": 2, "velocity": 100}, {"time": 4665, "pitch": 43, "duration": 21, "velocity": 83}, {"time": 4668, "pitch": 50, "duration": 21, "velocity": 89}, {"time": 4671, "pitch": 55, "duration": 6, "velocity": 97}, {"time": 4674, "pitch": 62, "duration": 4, "velocity": 79}, {"time": 4677, "pitch": 67, "duration": 7, "velocity": 122}, {"time": 4677, "pitch": 70, "duration": 7, "velocity": 127}, {"time": 4680, "pitch": 55, "duration": 3, "velocity": 102}, {"time": 4683, "pitch": 62, "duration": 13, "velocity": 97}, {"time": 4686, "pitch": 67, "duration": 11, "velocity": 99}, {"time": 4686, "pitch": 70, "duration": 11, "velocity": 117}, {"time": 4689, "pitch": 43, "duration": 21, "velocity": 86}, {"time": 4692, "pitch": 50, "duration": 20, "velocity": 95}, {"time": 4695, "pitch": 55, "duration": 6, "velocity": 102}, {"time": 4698, "pitch": 62, "duration": 3, "velocity": 107}, {"time": 4701, "pitch": 67, "duration": 6, "velocity": 97}, {"time": 4701, "pitch": 70, "duration": 6, "velocity": 117}, {"time": 4704, "pitch": 55, "duration": 8, "velocity": 97}, {"time": 4707, "pitch": 62, "duration": 5, "velocity": 100}, {"time": 4710, "pitch": 67, "duration": 2, "velocity": 100}, {"time": 4710, "pitch": 70, "duration": 2, "velocity": 117}, {"time": 4713, "pitch": 45, "duration": 22, "velocity": 92}, {"time": 4716, "pitch": 52, "duration": 21, "velocity": 90}, {"time": 4719, "pitch": 57, "duration": 6, "velocity": 99}, {"time": 4722, "pitch": 64, "duration": 2, "velocity": 82}, {"time": 4725, "pitch": 69, "duration": 6, "velocity": 95}, {"time": 4725, "pitch": 72, "duration": 6, "velocity": 112}, {"time": 4728, "pitch": 57, "duration": 3, "velocity": 100}, {"time": 4731, "pitch": 64, "duration": 8, "velocity": 99}, {"time": 4734, "pitch": 69, "duration": 5, "velocity": 100}, {"time": 4734, "pitch": 72, "duration": 10, "velocity": 100}, {"time": 4737, "pitch": 45, "duration": 17, "velocity": 85}, {"time": 4740, "pitch": 52, "duration": 13, "velocity": 96}, {"time": 4743, "pitch": 57, "duration": 6, "velocity": 107}, {"time": 4746, "pitch": 64, "duration": 2, "velocity": 93}, {"time": 4749, "pitch": 69, "duration": 4, "velocity": 112}, {"time": 4749, "pitch": 72, "duration": 6, "velocity": 117}, {"time": 4752, "pitch": 57, "duration": 2, "velocity": 97}, {"time": 4755, "pitch": 64, "duration": 5, "velocity": 102}, {"time": 4758, "pitch": 69, "duration": 2, "velocity": 107}, {"time": 4758, "pitch": 72, "duration": 2, "velocity": 107}, {"time": 4761, "pitch": 36, "duration": 22, "velocity": 74}, {"time": 4764, "pitch": 43, "duration": 20, "velocity": 89}, {"time": 4767, "pitch": 48, "duration": 6, "velocity": 96}, {"time": 4770, "pitch": 60, "duration": 2, "velocity": 85}, {"time": 4773, "pitch": 64, "duration": 5, "velocity": 100}, {"time": 4773, "pitch": 67, "duration": 5, "velocity": 102}, {"time": 4776, "pitch": 48, "duration": 6, "velocity": 96}, {"time": 4779, "pitch": 60, "duration": 5, "velocity": 90}, {"time": 4782, "pitch": 64, "duration": 9, "velocity": 99}, {"time": 4782, "pitch": 67, "duration": 10, "velocity": 99}, {"time": 4785, "pitch": 36, "duration": 21, "velocity": 76}, {"time": 4788, "pitch": 43, "duration": 18, "velocity": 95}, {"time": 4791, "pitch": 48, "duration": 6, "velocity": 102}, {"time": 4794, "pitch": 60, "duration": 4, "velocity": 96}, {"time": 4797, "pitch": 67, "duration": 8, "velocity": 127}, {"time": 4800, "pitch": 48, "duration": 3, "velocity": 96}, {"time": 4803, "pitch": 64, "duration": 3, "velocity": 117}, {"time": 4806, "pitch": 60, "duration": 3, "velocity": 112}, {"time": 4809, "pitch": 38, "duration": 22, "velocity": 85}, {"time": 4812, "pitch": 45, "duration": 20, "velocity": 97}, {"time": 4815, "pitch": 50, "duration": 6, "velocity": 96}, {"time": 4818, "pitch": 60, "duration": 2, "velocity": 72}, {"time": 4818, "pitch": 62, "duration": 2, "velocity": 69}, {"time": 4821, "pitch": 69, "duration": 11, "velocity": 122}, {"time": 4824, "pitch": 50, "duration": 3, "velocity": 100}, {"time": 4827, "pitch": 65, "duration": 8, "velocity": 117}, {"time": 4830, "pitch": 62, "duration": 10, "velocity": 112}, {"time": 4833, "pitch": 38, "duration": 21, "velocity": 61}, {"time": 4836, "pitch": 45, "duration": 21, "velocity": 100}, {"time": 4839, "pitch": 50, "duration": 6, "velocity": 107}, {"time": 4842, "pitch": 65, "duration": 2, "velocity": 97}, {"time": 4842, "pitch": 69, "duration": 2, "velocity": 112}, {"time": 4845, "pitch": 65, "duration": 5, "velocity": 107}, {"time": 4845, "pitch": 69, "duration": 5, "velocity": 117}, {"time": 4848, "pitch": 50, "duration": 4, "velocity": 102}, {"time": 4851, "pitch": 62, "duration": 4, "velocity": 117}, {"time": 4854, "pitch": 65, "duration": 2, "velocity": 100}, {"time": 4854, "pitch": 69, "duration": 2, "velocity": 102}, {"time": 4857, "pitch": 38, "duration": 22, "velocity": 100}, {"time": 4863, "pitch": 45, "duration": 17, "velocity": 88}, {"time": 4866, "pitch": 50, "duration": 4, "velocity": 102}, {"time": 4869, "pitch": 65, "duration": 4, "velocity": 112}, {"time": 4869, "pitch": 69, "duration": 4, "velocity": 112}, {"time": 4872, "pitch": 50, "duration": 3, "velocity": 99}, {"time": 4875, "pitch": 62, "duration": 4, "velocity": 92}, {"time": 4878, "pitch": 65, "duration": 11, "velocity": 112}, {"time": 4878, "pitch": 69, "duration": 11, "velocity": 107}, {"time": 4881, "pitch": 38, "duration": 15, "velocity": 60}, {"time": 4884, "pitch": 45, "duration": 13, "velocity": 102}, {"time": 4887, "pitch": 50, "duration": 7, "velocity": 99}, {"time": 4890, "pitch": 62, "duration": 3, "velocity": 85}, {"time": 4893, "pitch": 65, "duration": 6, "velocity": 97}, {"time": 4893, "pitch": 69, "duration": 6, "velocity": 127}, {"time": 4896, "pitch": 50, "duration": 3, "velocity": 99}, {"time": 4899, "pitch": 62, "duration": 5, "velocity": 100}, {"time": 4902, "pitch": 65, "duration": 2, "velocity": 99}, {"time": 4902, "pitch": 69, "duration": 2, "velocity": 100}, {"time": 4905, "pitch": 45, "duration": 22, "velocity": 81}, {"time": 4908, "pitch": 52, "duration": 21, "velocity": 96}, {"time": 4911, "pitch": 57, "duration": 6, "velocity": 107}, {"time": 4914, "pitch": 64, "duration": 2, "velocity": 92}, {"time": 4917, "pitch": 64, "duration": 1, "velocity": 51}, {"time": 4917, "pitch": 69, "duration": 7, "velocity": 100}, {"time": 4917, "pitch": 72, "duration": 7, "velocity": 112}, {"time": 4920, "pitch": 57, "duration": 3, "velocity": 107}, {"time": 4923, "pitch": 64, "duration": 8, "velocity": 83}, {"time": 4926, "pitch": 69, "duration": 9, "velocity": 100}, {"time": 4926, "pitch": 72, "duration": 7, "velocity": 102}, {"time": 4929, "pitch": 45, "duration": 16, "velocity": 96}, {"time": 4932, "pitch": 52, "duration": 13, "velocity": 122}, {"time": 4935, "pitch": 57, "duration": 6, "velocity": 127}, {"time": 4938, "pitch": 64, "duration": 5, "velocity": 100}, {"time": 4941, "pitch": 72, "duration": 10, "velocity": 127}, {"time": 4944, "pitch": 57, "duration": 2, "velocity": 112}, {"time": 4947, "pitch": 69, "duration": 4, "velocity": 127}, {"time": 4950, "pitch": 64, "duration": 3, "velocity": 112}, {"time": 4953, "pitch": 46, "duration": 18, "velocity": 73}, {"time": 4956, "pitch": 53, "duration": 13, "velocity": 79}, {"time": 4959, "pitch": 58, "duration": 6, "velocity": 122}, {"time": 4962, "pitch": 62, "duration": 3, "velocity": 100}, {"time": 4965, "pitch": 70, "duration": 10, "velocity": 127}, {"time": 4968, "pitch": 58, "duration": 4, "velocity": 127}, {"time": 4971, "pitch": 65, "duration": 4, "velocity": 127}, {"time": 4974, "pitch": 62, "duration": 2, "velocity": 112}, {"time": 4977, "pitch": 48, "duration": 17, "velocity": 86}, {"time": 4980, "pitch": 55, "duration": 9, "velocity": 107}, {"time": 4983, "pitch": 60, "duration": 3, "velocity": 107}, {"time": 4986, "pitch": 64, "duration": 3, "velocity": 117}, {"time": 4989, "pitch": 67, "duration": 9, "velocity": 117}, {"time": 4992, "pitch": 55, "duration": 2, "velocity": 97}, {"time": 4995, "pitch": 64, "duration": 4, "velocity": 117}, {"time": 4998, "pitch": 60, "duration": 3, "velocity": 117}, {"time": 5001, "pitch": 38, "duration": 22, "velocity": 78}, {"time": 5004, "pitch": 45, "duration": 21, "velocity": 99}, {"time": 5007, "pitch": 50, "duration": 6, "velocity": 99}, {"time": 5010, "pitch": 57, "duration": 5, "velocity": 97}, {"time": 5013, "pitch": 65, "duration": 6, "velocity": 122}, {"time": 5016, "pitch": 50, "duration": 2, "velocity": 107}, {"time": 5019, "pitch": 64, "duration": 3, "velocity": 102}, {"time": 5022, "pitch": 57, "duration": 9, "velocity": 93}, {"time": 5022, "pitch": 62, "duration": 10, "velocity": 89}, {"time": 5022, "pitch": 65, "duration": 10, "velocity": 60}, {"time": 5025, "pitch": 38, "duration": 16, "velocity": 92}, {"time": 5028, "pitch": 45, "duration": 14, "velocity": 107}, {"time": 5031, "pitch": 50, "duration": 7, "velocity": 107}, {"time": 5034, "pitch": 57, "duration": 4, "velocity": 107}, {"time": 5037, "pitch": 62, "duration": 4, "velocity": 107}, {"time": 5037, "pitch": 65, "duration": 4, "velocity": 117}, {"time": 5040, "pitch": 50, "duration": 3, "velocity": 112}, {"time": 5043, "pitch": 62, "duration": 4, "velocity": 107}, {"time": 5043, "pitch": 65, "duration": 4, "velocity": 107}, {"time": 5046, "pitch": 57, "duration": 2, "velocity": 107}, {"time": 5049, "pitch": 45, "duration": 21, "velocity": 69}, {"time": 5052, "pitch": 52, "duration": 21, "velocity": 99}, {"time": 5055, "pitch": 57, "duration": 6, "velocity": 100}, {"time": 5058, "pitch": 64, "duration": 5, "velocity": 97}, {"time": 5061, "pitch": 69, "duration": 6, "velocity": 97}, {"time": 5061, "pitch": 72, "duration": 6, "velocity": 100}, {"time": 5064, "pitch": 57, "duration": 3, "velocity": 107}, {"time": 5067, "pitch": 64, "duration": 13, "velocity": 92}, {"time": 5070, "pitch": 69, "duration": 10, "velocity": 102}, {"time": 5070, "pitch": 72, "duration": 10, "velocity": 107}, {"time": 5073, "pitch": 45, "duration": 16, "velocity": 75}, {"time": 5076, "pitch": 52, "duration": 13, "velocity": 96}, {"time": 5079, "pitch": 57, "duration": 6, "velocity": 102}, {"time": 5082, "pitch": 64, "duration": 2, "velocity": 107}, {"time": 5085, "pitch": 64, "duration": 4, "velocity": 88}, {"time": 5085, "pitch": 69, "duration": 4, "velocity": 112}, {"time": 5085, "pitch": 72, "duration": 4, "velocity": 127}, {"time": 5088, "pitch": 57, "duration": 1, "velocity": 102}, {"time": 5091, "pitch": 69, "duration": 2, "velocity": 117}, {"time": 5091, "pitch": 72, "duration": 4, "velocity": 127}, {"time": 5094, "pitch": 64, "duration": 3, "velocity": 107}, {"time": 5094, "pitch": 69, "duration": 1, "velocity": 45}, {"time": 5097, "pitch": 46, "duration": 17, "velocity": 92}, {"time": 5100, "pitch": 53, "duration": 14, "velocity": 64}, {"time": 5103, "pitch": 58, "duration": 6, "velocity": 127}, {"time": 5106, "pitch": 62, "duration": 2, "velocity": 88}, {"time": 5109, "pitch": 65, "duration": 4, "velocity": 96}, {"time": 5109, "pitch": 70, "duration": 7, "velocity": 127}, {"time": 5112, "pitch": 58, "duration": 3, "velocity": 107}, {"time": 5115, "pitch": 62, "duration": 5, "velocity": 107}, {"time": 5118, "pitch": 65, "duration": 2, "velocity": 93}, {"time": 5118, "pitch": 70, "duration": 3, "velocity": 117}, {"time": 5121, "pitch": 48, "duration": 17, "velocity": 81}, {"time": 5124, "pitch": 55, "duration": 10, "velocity": 97}, {"time": 5127, "pitch": 60, "duration": 3, "velocity": 99}, {"time": 5130, "pitch": 64, "duration": 2, "velocity": 89}, {"time": 5130, "pitch": 67, "duration": 1, "velocity": 96}, {"time": 5133, "pitch": 64, "duration": 4, "velocity": 97}, {"time": 5133, "pitch": 67, "duration": 4, "velocity": 100}, {"time": 5136, "pitch": 55, "duration": 1, "velocity": 85}, {"time": 5139, "pitch": 60, "duration": 5, "velocity": 102}, {"time": 5139, "pitch": 64, "duration": 1, "velocity": 42}, {"time": 5142, "pitch": 64, "duration": 2, "velocity": 89}, {"time": 5142, "pitch": 67, "duration": 2, "velocity": 93}, {"time": 5145, "pitch": 38, "duration": 34, "velocity": 95}, {"time": 5151, "pitch": 45, "duration": 58, "velocity": 59}, {"time": 5157, "pitch": 50, "duration": 13, "velocity": 90}, {"time": 5163, "pitch": 57, "duration": 17, "velocity": 62}, {"time": 5169, "pitch": 62, "duration": 10, "velocity": 76}, {"time": 5169, "pitch": 65, "duration": 10, "velocity": 81}, {"time": 5175, "pitch": 50, "duration": 5, "velocity": 42}, {"time": 5181, "pitch": 38, "duration": 28, "velocity": 59}, {"time": 5181, "pitch": 50, "duration": 27, "velocity": 73}, {"time": 5181, "pitch": 57, "duration": 27, "velocity": 76}, {"time": 5181, "pitch": 62, "duration": 27, "velocity": 89}, {"time": 5181, "pitch": 65, "duration": 28, "velocity": 81}], "annotations": [{"time": 9, "annotation": {"number": 64, "value": 127}, "group": "control_change"}, {"time": 102, "annotation": {"number": 64, "value": 0}, "group": "control_change"}, {"time": 105, "annotation": {"number": 64, "value": 127}, "group": "control_change"}, {"time": 150, "annotation": {"number": 64, "value": 0}, "group": "control_change"}, {"time": 152, "annotation": {"number": 64, "value": 127}, "group": "control_change"}, {"time": 198, "annotation": {"number": 64, "value": 0}, "group": "control_change"}, {"time": 200, "annotation": {"number": 64, "value": 127}, "group": "control_change"}, {"time": 246, "annotation": {"number": 64, "value": 0}, "group": "control_change"}, {"time": 249, "annotation": {"number": 64, "value": 127}, "group": "control_change"}, {"time": 294, "annotation": {"number": 64, "value": 0}, "group": "control_change"}, {"time": 296, "annotation": {"number": 64, "value": 127}, "group": "control_change"}, {"time": 343, "annotation": {"number": 64, "value": 0}, "group": "control_change"}, {"time": 344, "annotation": {"number": 64, "value": 127}, "group": "control_change"}, {"time": 439, "annotation": {"number": 64, "value": 0}, "group": "control_change"}, {"time": 441, "annotation": {"number": 64, "value": 127}, "group": "control_change"}, {"time": 486, "annotation": {"number": 64, "value": 0}, "group": "control_change"}, {"time": 488, "annotation": {"number": 64, "value": 127}, "group": "control_change"}, {"time": 511, "annotation": {"number": 64, "value": 0}, "group": "control_change"}, {"time": 513, "annotation": {"number": 64, "value": 127}, "group": "control_change"}, {"time": 535, "annotation": {"number": 64, "value": 0}, "group": "control_change"}, {"time": 538, "annotation": {"number": 64, "value": 127}, "group": "control_change"}, {"time": 583, "annotation": {"number": 64, "value": 0}, "group": "control_change"}, {"time": 586, "annotation": {"number": 64, "value": 127}, "group": "control_change"}, {"time": 631, "annotation": {"number": 64, "value": 0}, "group": "control_change"}, {"time": 633, "annotation": {"number": 64, "value": 127}, "group": "control_change"}, {"time": 680, "annotation": {"number": 64, "value": 0}, "group": "control_change"}, {"time": 681, "annotation": {"number": 64, "value": 127}, "group": "control_change"}, {"time": 727, "annotation": {"number": 64, "value": 0}, "group": "control_change"}, {"time": 729, "annotation": {"number": 64, "value": 127}, "group": "control_change"}, {"time": 775, "annotation": {"number": 64, "value": 0}, "group": "control_change"}, {"time": 777, "annotation": {"number": 64, "value": 127}, "group": "control_change"}, {"time": 822, "annotation": {"number": 64, "value": 0}, "group": "control_change"}, {"time": 825, "annotation": {"number": 64, "value": 127}, "group": "control_change"}, {"time": 873, "annotation": {"number": 64, "value": 127}, "group": "control_change"}, {"time": 890, "annotation": {"number": 64, "value": 0}, "group": "control_change"}, {"time": 907, "annotation": {"number": 64, "value": 127}, "group": "control_change"}, {"time": 919, "annotation": {"number": 64, "value": 0}, "group": "control_change"}, {"time": 921, "annotation": {"number": 64, "value": 127}, "group": "control_change"}, {"time": 965, "annotation": {"number": 64, "value": 0}, "group": "control_change"}, {"time": 969, "annotation": {"number": 64, "value": 127}, "group": "control_change"}, {"time": 1014, "annotation": {"number": 64, "value": 0}, "group": "control_change"}, {"time": 1017, "annotation": {"number": 64, "value": 127}, "group": "control_change"}, {"time": 1062, "annotation": {"number": 64, "value": 0}, "group": "control_change"}, {"time": 1065, "annotation": {"number": 64, "value": 127}, "group": "control_change"}, {"time": 1110, "annotation": {"number": 64, "value": 0}, "group": "control_change"}, {"time": 1113, "annotation": {"number": 64, "value": 127}, "group": "control_change"}, {"time": 1158, "annotation": {"number": 64, "value": 0}, "group": "control_change"}, {"time": 1161, "annotation": {"number": 64, "value": 127}, "group": "control_change"}, {"time": 1207, "annotation": {"number": 64, "value": 0}, "group": "control_change"}, {"time": 1209, "annotation": {"number": 64, "value": 127}, "group": "control_change"}, {"time": 1254, "annotation": {"number": 64, "value": 0}, "group": "control_change"}, {"time": 1257, "annotation": {"number": 64, "value": 127}, "group": "control_change"}, {"time": 1302, "annotation": {"number": 64, "value": 0}, "group": "control_change"}, {"time": 1306, "annotation": {"number": 64, "value": 127}, "group": "control_change"}, {"time": 1350, "annotation": {"number": 64, "value": 0}, "group": "control_change"}, {"time": 1353, "annotation": {"number": 64, "value": 127}, "group": "control_change"}, {"time": 1370, "annotation": {"number": 64, "value": 0}, "group": "control_change"}, {"time": 1376, "annotation": {"number": 64, "value": 127}, "group": "control_change"}, {"time": 1398, "annotation": {"number": 64, "value": 0}, "group": "control_change"}, {"time": 1401, "annotation": {"number": 64, "value": 127}, "group": "control_change"}, {"time": 1446, "annotation": {"number": 64, "value": 0}, "group": "control_change"}, {"time": 1449, "annotation": {"number": 64, "value": 127}, "group": "control_change"}, {"time": 1495, "annotation": {"number": 64, "value": 0}, "group": "control_change"}, {"time": 1499, "annotation": {"number": 64, "value": 127}, "group": "control_change"}, {"time": 1543, "annotation": {"number": 64, "value": 0}, "group": "control_change"}, {"time": 1545, "annotation": {"number": 64, "value": 127}, "group": "control_change"}, {"time": 1566, "annotation": {"number": 64, "value": 0}, "group": "control_change"}, {"time": 1568, "annotation": {"number": 64, "value": 127}, "group": "control_change"}, {"time": 1591, "annotation": {"number": 64, "value": 0}, "group": "control_change"}, {"time": 1593, "annotation": {"number": 64, "value": 127}, "group": "control_change"}, {"time": 1615, "annotation": {"number": 64, "value": 0}, "group": "control_change"}, {"time": 1617, "annotation": {"number": 64, "value": 127}, "group": "control_change"}, {"time": 1638, "annotation": {"number": 64, "value": 0}, "group": "control_change"}, {"time": 1640, "annotation": {"number": 64, "value": 127}, "group": "control_change"}, {"time": 1662, "annotation": {"number": 64, "value": 0}, "group": "control_change"}, {"time": 1665, "annotation": {"number": 64, "value": 127}, "group": "control_change"}, {"time": 1687, "annotation": {"number": 64, "value": 0}, "group": "control_change"}, {"time": 1689, "annotation": {"number": 64, "value": 127}, "group": "control_change"}, {"time": 1710, "annotation": {"number": 64, "value": 0}, "group": "control_change"}, {"time": 1712, "annotation": {"number": 64, "value": 127}, "group": "control_change"}, {"time": 1735, "annotation": {"number": 64, "value": 0}, "group": "control_change"}, {"time": 1737, "annotation": {"number": 64, "value": 127}, "group": "control_change"}, {"time": 1758, "annotation": {"number": 64, "value": 0}, "group": "control_change"}, {"time": 1760, "annotation": {"number": 64, "value": 127}, "group": "control_change"}, {"time": 1782, "annotation": {"number": 64, "value": 0}, "group": "control_change"}, {"time": 1785, "annotation": {"number": 64, "value": 127}, "group": "control_change"}, {"time": 1806, "annotation": {"number": 64, "value": 0}, "group": "control_change"}, {"time": 1809, "annotation": {"number": 64, "value": 127}, "group": "control_change"}, {"time": 1830, "annotation": {"number": 64, "value": 0}, "group": "control_change"}, {"time": 1832, "annotation": {"number": 64, "value": 127}, "group": "control_change"}, {"time": 1855, "annotation": {"number": 64, "value": 0}, "group": "control_change"}, {"time": 1857, "annotation": {"number": 64, "value": 127}, "group": "control_change"}, {"time": 1879, "annotation": {"number": 64, "value": 0}, "group": "control_change"}, {"time": 1881, "annotation": {"number": 64, "value": 127}, "group": "control_change"}, {"time": 1902, "annotation": {"number": 64, "value": 0}, "group": "control_change"}, {"time": 1904, "annotation": {"number": 64, "value": 127}, "group": "control_change"}, {"time": 1926, "annotation": {"number": 64, "value": 0}, "group": "control_change"}, {"time": 1929, "annotation": {"number": 64, "value": 127}, "group": "control_change"}, {"time": 1950, "annotation": {"number": 64, "value": 0}, "group": "control_change"}, {"time": 1952, "annotation": {"number": 64, "value": 127}, "group": "control_change"}, {"time": 1975, "annotation": {"number": 64, "value": 0}, "group": "control_change"}, {"time": 1978, "annotation": {"number": 64, "value": 127}, "group": "control_change"}, {"time": 1992, "annotation": {"number": 64, "value": 0}, "group": "control_change"}, {"time": 2000, "annotation": {"number": 64, "value": 127}, "group": "control_change"}, {"time": 2022, "annotation": {"number": 64, "value": 0}, "group": "control_change"}, {"time": 2025, "annotation": {"number": 64, "value": 127}, "group": "control_change"}, {"time": 2046, "annotation": {"number": 64, "value": 0}, "group": "control_change"}, {"time": 2049, "annotation": {"number": 64, "value": 127}, "group": "control_change"}, {"time": 2071, "annotation": {"number": 64, "value": 0}, "group": "control_change"}, {"time": 2073, "annotation": {"number": 64, "value": 127}, "group": "control_change"}, {"time": 2094, "annotation": {"number": 64, "value": 0}, "group": "control_change"}, {"time": 2097, "annotation": {"number": 64, "value": 127}, "group": "control_change"}, {"time": 2119, "annotation": {"number": 64, "value": 0}, "group": "control_change"}, {"time": 2121, "annotation": {"number": 64, "value": 127}, "group": "control_change"}, {"time": 2143, "annotation": {"number": 64, "value": 0}, "group": "control_change"}, {"time": 2145, "annotation": {"number": 64, "value": 127}, "group": "control_change"}, {"time": 2167, "annotation": {"number": 64, "value": 0}, "group": "control_change"}, {"time": 2169, "annotation": {"number": 64, "value": 127}, "group": "control_change"}, {"time": 2191, "annotation": {"number": 64, "value": 0}, "group": "control_change"}, {"time": 2193, "annotation": {"number": 64, "value": 127}, "group": "control_change"}, {"time": 2214, "annotation": {"number": 64, "value": 0}, "group": "control_change"}, {"time": 2217, "annotation": {"number": 64, "value": 127}, "group": "control_change"}, {"time": 2238, "annotation": {"number": 64, "value": 0}, "group": "control_change"}, {"time": 2241, "annotation": {"number": 64, "value": 127}, "group": "control_change"}, {"time": 2263, "annotation": {"number": 64, "value": 0}, "group": "control_change"}, {"time": 2265, "annotation": {"number": 64, "value": 127}, "group": "control_change"}, {"time": 2286, "annotation": {"number": 64, "value": 0}, "group": "control_change"}, {"time": 2289, "annotation": {"number": 64, "value": 127}, "group": "control_change"}, {"time": 2310, "annotation": {"number": 64, "value": 0}, "group": "control_change"}, {"time": 2313, "annotation": {"number": 64, "value": 127}, "group": "control_change"}, {"time": 2334, "annotation": {"number": 64, "value": 0}, "group": "control_change"}, {"time": 2337, "annotation": {"number": 64, "value": 127}, "group": "control_change"}, {"time": 2359, "annotation": {"number": 64, "value": 0}, "group": "control_change"}, {"time": 2362, "annotation": {"number": 64, "value": 127}, "group": "control_change"}, {"time": 2371, "annotation": {"number": 64, "value": 0}, "group": "control_change"}, {"time": 2373, "annotation": {"number": 64, "value": 127}, "group": "control_change"}, {"time": 2382, "annotation": {"number": 64, "value": 0}, "group": "control_change"}, {"time": 2385, "annotation": {"number": 64, "value": 127}, "group": "control_change"}, {"time": 2408, "annotation": {"number": 64, "value": 0}, "group": "control_change"}, {"time": 2410, "annotation": {"number": 64, "value": 127}, "group": "control_change"}, {"time": 2420, "annotation": {"number": 64, "value": 0}, "group": "control_change"}, {"time": 2422, "annotation": {"number": 64, "value": 127}, "group": "control_change"}, {"time": 2429, "annotation": {"number": 64, "value": 0}, "group": "control_change"}, {"time": 2431, "annotation": {"number": 64, "value": 127}, "group": "control_change"}, {"time": 2455, "annotation": {"number": 64, "value": 0}, "group": "control_change"}, {"time": 2458, "annotation": {"number": 64, "value": 127}, "group": "control_change"}, {"time": 2468, "annotation": {"number": 64, "value": 0}, "group": "control_change"}, {"time": 2470, "annotation": {"number": 64, "value": 127}, "group": "control_change"}, {"time": 2479, "annotation": {"number": 64, "value": 0}, "group": "control_change"}, {"time": 2481, "annotation": {"number": 64, "value": 127}, "group": "control_change"}, {"time": 2490, "annotation": {"number": 64, "value": 0}, "group": "control_change"}, {"time": 2493, "annotation": {"number": 64, "value": 127}, "group": "control_change"}, {"time": 2502, "annotation": {"number": 64, "value": 0}, "group": "control_change"}, {"time": 2505, "annotation": {"number": 64, "value": 127}, "group": "control_change"}, {"time": 2527, "annotation": {"number": 64, "value": 0}, "group": "control_change"}, {"time": 2529, "annotation": {"number": 64, "value": 127}, "group": "control_change"}, {"time": 2550, "annotation": {"number": 64, "value": 0}, "group": "control_change"}, {"time": 2553, "annotation": {"number": 64, "value": 127}, "group": "control_change"}, {"time": 2574, "annotation": {"number": 64, "value": 0}, "group": "control_change"}, {"time": 2577, "annotation": {"number": 64, "value": 127}, "group": "control_change"}, {"time": 2598, "annotation": {"number": 64, "value": 0}, "group": "control_change"}, {"time": 2601, "annotation": {"number": 64, "value": 127}, "group": "control_change"}, {"time": 2622, "annotation": {"number": 64, "value": 0}, "group": "control_change"}, {"time": 2625, "annotation": {"number": 64, "value": 127}, "group": "control_change"}, {"time": 2646, "annotation": {"number": 64, "value": 0}, "group": "control_change"}, {"time": 2649, "annotation": {"number": 64, "value": 127}, "group": "control_change"}, {"time": 2670, "annotation": {"number": 64, "value": 0}, "group": "control_change"}, {"time": 2673, "annotation": {"number": 64, "value": 127}, "group": "control_change"}, {"time": 2695, "annotation": {"number": 64, "value": 0}, "group": "control_change"}, {"time": 2697, "annotation": {"number": 64, "value": 127}, "group": "control_change"}, {"time": 2718, "annotation": {"number": 64, "value": 0}, "group": "control_change"}, {"time": 2721, "annotation": {"number": 64, "value": 127}, "group": "control_change"}, {"time": 2742, "annotation": {"number": 64, "value": 0}, "group": "control_change"}, {"time": 2745, "annotation": {"number": 64, "value": 127}, "group": "control_change"}, {"time": 2767, "annotation": {"number": 64, "value": 0}, "group": "control_change"}, {"time": 2769, "annotation": {"number": 64, "value": 127}, "group": "control_change"}, {"time": 2791, "annotation": {"number": 64, "value": 0}, "group": "control_change"}, {"time": 2794, "annotation": {"number": 64, "value": 127}, "group": "control_change"}, {"time": 2796, "annotation": {"number": 64, "value": 0}, "group": "control_change"}, {"time": 2797, "annotation": {"number": 64, "value": 127}, "group": "control_change"}, {"time": 2798, "annotation": {"number": 64, "value": 0}, "group": "control_change"}, {"time": 2801, "annotation": {"number": 64, "value": 127}, "group": "control_change"}, {"time": 2802, "annotation": {"number": 64, "value": 0}, "group": "control_change"}, {"time": 2804, "annotation": {"number": 64, "value": 127}, "group": "control_change"}, {"time": 2814, "annotation": {"number": 64, "value": 0}, "group": "control_change"}, {"time": 2817, "annotation": {"number": 64, "value": 127}, "group": "control_change"}, {"time": 2839, "annotation": {"number": 64, "value": 0}, "group": "control_change"}, {"time": 2842, "annotation": {"number": 64, "value": 127}, "group": "control_change"}, {"time": 2863, "annotation": {"number": 64, "value": 0}, "group": "control_change"}, {"time": 2865, "annotation": {"number": 64, "value": 127}, "group": "control_change"}, {"time": 2886, "annotation": {"number": 64, "value": 0}, "group": "control_change"}, {"time": 2889, "annotation": {"number": 64, "value": 127}, "group": "control_change"}, {"time": 2910, "annotation": {"number": 64, "value": 0}, "group": "control_change"}, {"time": 2913, "annotation": {"number": 64, "value": 127}, "group": "control_change"}, {"time": 2934, "annotation": {"number": 64, "value": 0}, "group": "control_change"}, {"time": 2937, "annotation": {"number": 64, "value": 127}, "group": "control_change"}, {"time": 2959, "annotation": {"number": 64, "value": 0}, "group": "control_change"}, {"time": 2961, "annotation": {"number": 64, "value": 127}, "group": "control_change"}, {"time": 2982, "annotation": {"number": 64, "value": 0}, "group": "control_change"}, {"time": 2985, "annotation": {"number": 64, "value": 127}, "group": "control_change"}, {"time": 3006, "annotation": {"number": 64, "value": 0}, "group": "control_change"}, {"time": 3008, "annotation": {"number": 64, "value": 127}, "group": "control_change"}, {"time": 3019, "annotation": {"number": 64, "value": 0}, "group": "control_change"}, {"time": 3021, "annotation": {"number": 64, "value": 127}, "group": "control_change"}, {"time": 3031, "annotation": {"number": 64, "value": 0}, "group": "control_change"}, {"time": 3034, "annotation": {"number": 64, "value": 127}, "group": "control_change"}, {"time": 3055, "annotation": {"number": 64, "value": 0}, "group": "control_change"}, {"time": 3057, "annotation": {"number": 64, "value": 127}, "group": "control_change"}, {"time": 3079, "annotation": {"number": 64, "value": 0}, "group": "control_change"}, {"time": 3082, "annotation": {"number": 64, "value": 127}, "group": "control_change"}, {"time": 3128, "annotation": {"number": 64, "value": 0}, "group": "control_change"}, {"time": 3129, "annotation": {"number": 64, "value": 127}, "group": "control_change"}, {"time": 3174, "annotation": {"number": 64, "value": 0}, "group": "control_change"}, {"time": 3177, "annotation": {"number": 64, "value": 127}, "group": "control_change"}, {"time": 3222, "annotation": {"number": 64, "value": 0}, "group": "control_change"}, {"time": 3225, "annotation": {"number": 64, "value": 127}, "group": "control_change"}, {"time": 3271, "annotation": {"number": 64, "value": 0}, "group": "control_change"}, {"time": 3273, "annotation": {"number": 64, "value": 127}, "group": "control_change"}, {"time": 3318, "annotation": {"number": 64, "value": 0}, "group": "control_change"}, {"time": 3321, "annotation": {"number": 64, "value": 127}, "group": "control_change"}, {"time": 3366, "annotation": {"number": 64, "value": 0}, "group": "control_change"}, {"time": 3370, "annotation": {"number": 64, "value": 127}, "group": "control_change"}, {"time": 3414, "annotation": {"number": 64, "value": 0}, "group": "control_change"}, {"time": 3417, "annotation": {"number": 64, "value": 127}, "group": "control_change"}, {"time": 3434, "annotation": {"number": 64, "value": 0}, "group": "control_change"}, {"time": 3440, "annotation": {"number": 64, "value": 127}, "group": "control_change"}, {"time": 3462, "annotation": {"number": 64, "value": 0}, "group": "control_change"}, {"time": 3465, "annotation": {"number": 64, "value": 127}, "group": "control_change"}, {"time": 3510, "annotation": {"number": 64, "value": 0}, "group": "control_change"}, {"time": 3513, "annotation": {"number": 64, "value": 127}, "group": "control_change"}, {"time": 3559, "annotation": {"number": 64, "value": 0}, "group": "control_change"}, {"time": 3563, "annotation": {"number": 64, "value": 127}, "group": "control_change"}, {"time": 3607, "annotation": {"number": 64, "value": 0}, "group": "control_change"}, {"time": 3609, "annotation": {"number": 64, "value": 127}, "group": "control_change"}, {"time": 3630, "annotation": {"number": 64, "value": 0}, "group": "control_change"}, {"time": 3632, "annotation": {"number": 64, "value": 127}, "group": "control_change"}, {"time": 3655, "annotation": {"number": 64, "value": 0}, "group": "control_change"}, {"time": 3657, "annotation": {"number": 64, "value": 127}, "group": "control_change"}, {"time": 3679, "annotation": {"number": 64, "value": 0}, "group": "control_change"}, {"time": 3681, "annotation": {"number": 64, "value": 127}, "group": "control_change"}, {"time": 3702, "annotation": {"number": 64, "value": 0}, "group": "control_change"}, {"time": 3704, "annotation": {"number": 64, "value": 127}, "group": "control_change"}, {"time": 3726, "annotation": {"number": 64, "value": 0}, "group": "control_change"}, {"time": 3729, "annotation": {"number": 64, "value": 127}, "group": "control_change"}, {"time": 3751, "annotation": {"number": 64, "value": 0}, "group": "control_change"}, {"time": 3753, "annotation": {"number": 64, "value": 127}, "group": "control_change"}, {"time": 3774, "annotation": {"number": 64, "value": 0}, "group": "control_change"}, {"time": 3776, "annotation": {"number": 64, "value": 127}, "group": "control_change"}, {"time": 3799, "annotation": {"number": 64, "value": 0}, "group": "control_change"}, {"time": 3801, "annotation": {"number": 64, "value": 127}, "group": "control_change"}, {"time": 3822, "annotation": {"number": 64, "value": 0}, "group": "control_change"}, {"time": 3824, "annotation": {"number": 64, "value": 127}, "group": "control_change"}, {"time": 3846, "annotation": {"number": 64, "value": 0}, "group": "control_change"}, {"time": 3849, "annotation": {"number": 64, "value": 127}, "group": "control_change"}, {"time": 3870, "annotation": {"number": 64, "value": 0}, "group": "control_change"}, {"time": 3873, "annotation": {"number": 64, "value": 127}, "group": "control_change"}, {"time": 3894, "annotation": {"number": 64, "value": 0}, "group": "control_change"}, {"time": 3896, "annotation": {"number": 64, "value": 127}, "group": "control_change"}, {"time": 3919, "annotation": {"number": 64, "value": 0}, "group": "control_change"}, {"time": 3921, "annotation": {"number": 64, "value": 127}, "group": "control_change"}, {"time": 3943, "annotation": {"number": 64, "value": 0}, "group": "control_change"}, {"time": 3945, "annotation": {"number": 64, "value": 127}, "group": "control_change"}, {"time": 3966, "annotation": {"number": 64, "value": 0}, "group": "control_change"}, {"time": 3968, "annotation": {"number": 64, "value": 127}, "group": "control_change"}, {"time": 3990, "annotation": {"number": 64, "value": 0}, "group": "control_change"}, {"time": 3993, "annotation": {"number": 64, "value": 127}, "group": "control_change"}, {"time": 4014, "annotation": {"number": 64, "value": 0}, "group": "control_change"}, {"time": 4016, "annotation": {"number": 64, "value": 127}, "group": "control_change"}, {"time": 4039, "annotation": {"number": 64, "value": 0}, "group": "control_change"}, {"time": 4042, "annotation": {"number": 64, "value": 127}, "group": "control_change"}, {"time": 4056, "annotation": {"number": 64, "value": 0}, "group": "control_change"}, {"time": 4064, "annotation": {"number": 64, "value": 127}, "group": "control_change"}, {"time": 4086, "annotation": {"number": 64, "value": 0}, "group": "control_change"}, {"time": 4089, "annotation": {"number": 64, "value": 127}, "group": "control_change"}, {"time": 4110, "annotation": {"number": 64, "value": 0}, "group": "control_change"}, {"time": 4113, "annotation": {"number": 64, "value": 127}, "group": "control_change"}, {"time": 4135, "annotation": {"number": 64, "value": 0}, "group": "control_change"}, {"time": 4137, "annotation": {"number": 64, "value": 127}, "group": "control_change"}, {"time": 4158, "annotation": {"number": 64, "value": 0}, "group": "control_change"}, {"time": 4161, "annotation": {"number": 64, "value": 127}, "group": "control_change"}, {"time": 4183, "annotation": {"number": 64, "value": 0}, "group": "control_change"}, {"time": 4185, "annotation": {"number": 64, "value": 127}, "group": "control_change"}, {"time": 4207, "annotation": {"number": 64, "value": 0}, "group": "control_change"}, {"time": 4209, "annotation": {"number": 64, "value": 127}, "group": "control_change"}, {"time": 4231, "annotation": {"number": 64, "value": 0}, "group": "control_change"}, {"time": 4233, "annotation": {"number": 64, "value": 127}, "group": "control_change"}, {"time": 4255, "annotation": {"number": 64, "value": 0}, "group": "control_change"}, {"time": 4257, "annotation": {"number": 64, "value": 127}, "group": "control_change"}, {"time": 4278, "annotation": {"number": 64, "value": 0}, "group": "control_change"}, {"time": 4281, "annotation": {"number": 64, "value": 127}, "group": "control_change"}, {"time": 4302, "annotation": {"number": 64, "value": 0}, "group": "control_change"}, {"time": 4305, "annotation": {"number": 64, "value": 127}, "group": "control_change"}, {"time": 4327, "annotation": {"number": 64, "value": 0}, "group": "control_change"}, {"time": 4329, "annotation": {"number": 64, "value": 127}, "group": "control_change"}, {"time": 4350, "annotation": {"number": 64, "value": 0}, "group": "control_change"}, {"time": 4353, "annotation": {"number": 64, "value": 127}, "group": "control_change"}, {"time": 4374, "annotation": {"number": 64, "value": 0}, "group": "control_change"}, {"time": 4377, "annotation": {"number": 64, "value": 127}, "group": "control_change"}, {"time": 4398, "annotation": {"number": 64, "value": 0}, "group": "control_change"}, {"time": 4401, "annotation": {"number": 64, "value": 127}, "group": "control_change"}, {"time": 4423, "annotation": {"number": 64, "value": 0}, "group": "control_change"}, {"time": 4426, "annotation": {"number": 64, "value": 127}, "group": "control_change"}, {"time": 4435, "annotation": {"number": 64, "value": 0}, "group": "control_change"}, {"time": 4437, "annotation": {"number": 64, "value": 127}, "group": "control_change"}, {"time": 4446, "annotation": {"number": 64, "value": 0}, "group": "control_change"}, {"time": 4449, "annotation": {"number": 64, "value": 127}, "group": "control_change"}, {"time": 4472, "annotation": {"number": 64, "value": 0}, "group": "control_change"}, {"time": 4474, "annotation": {"number": 64, "value": 127}, "group": "control_change"}, {"time": 4484, "annotation": {"number": 64, "value": 0}, "group": "control_change"}, {"time": 4486, "annotation": {"number": 64, "value": 127}, "group": "control_change"}, {"time": 4493, "annotation": {"number": 64, "value": 0}, "group": "control_change"}, {"time": 4495, "annotation": {"number": 64, "value": 127}, "group": "control_change"}, {"time": 4519, "annotation": {"number": 64, "value": 0}, "group": "control_change"}, {"time": 4522, "annotation": {"number": 64, "value": 127}, "group": "control_change"}, {"time": 4532, "annotation": {"number": 64, "value": 0}, "group": "control_change"}, {"time": 4534, "annotation": {"number": 64, "value": 127}, "group": "control_change"}, {"time": 4543, "annotation": {"number": 64, "value": 0}, "group": "control_change"}, {"time": 4545, "annotation": {"number": 64, "value": 127}, "group": "control_change"}, {"time": 4554, "annotation": {"number": 64, "value": 0}, "group": "control_change"}, {"time": 4557, "annotation": {"number": 64, "value": 127}, "group": "control_change"}, {"time": 4566, "annotation": {"number": 64, "value": 0}, "group": "control_change"}, {"time": 4569, "annotation": {"number": 64, "value": 127}, "group": "control_change"}, {"time": 4591, "annotation": {"number": 64, "value": 0}, "group": "control_change"}, {"time": 4593, "annotation": {"number": 64, "value": 127}, "group": "control_change"}, {"time": 4614, "annotation": {"number": 64, "value": 0}, "group": "control_change"}, {"time": 4617, "annotation": {"number": 64, "value": 127}, "group": "control_change"}, {"time": 4638, "annotation": {"number": 64, "value": 0}, "group": "control_change"}, {"time": 4641, "annotation": {"number": 64, "value": 127}, "group": "control_change"}, {"time": 4662, "annotation": {"number": 64, "value": 0}, "group": "control_change"}, {"time": 4665, "annotation": {"number": 64, "value": 127}, "group": "control_change"}, {"time": 4686, "annotation": {"number": 64, "value": 0}, "group": "control_change"}, {"time": 4689, "annotation": {"number": 64, "value": 127}, "group": "control_change"}, {"time": 4710, "annotation": {"number": 64, "value": 0}, "group": "control_change"}, {"time": 4713, "annotation": {"number": 64, "value": 127}, "group": "control_change"}, {"time": 4734, "annotation": {"number": 64, "value": 0}, "group": "control_change"}, {"time": 4737, "annotation": {"number": 64, "value": 127}, "group": "control_change"}, {"time": 4759, "annotation": {"number": 64, "value": 0}, "group": "control_change"}, {"time": 4761, "annotation": {"number": 64, "value": 127}, "group": "control_change"}, {"time": 4782, "annotation": {"number": 64, "value": 0}, "group": "control_change"}, {"time": 4785, "annotation": {"number": 64, "value": 127}, "group": "control_change"}, {"time": 4806, "annotation": {"number": 64, "value": 0}, "group": "control_change"}, {"time": 4809, "annotation": {"number": 64, "value": 127}, "group": "control_change"}, {"time": 4831, "annotation": {"number": 64, "value": 0}, "group": "control_change"}, {"time": 4833, "annotation": {"number": 64, "value": 127}, "group": "control_change"}, {"time": 4855, "annotation": {"number": 64, "value": 0}, "group": "control_change"}, {"time": 4858, "annotation": {"number": 64, "value": 127}, "group": "control_change"}, {"time": 4860, "annotation": {"number": 64, "value": 0}, "group": "control_change"}, {"time": 4861, "annotation": {"number": 64, "value": 127}, "group": "control_change"}, {"time": 4862, "annotation": {"number": 64, "value": 0}, "group": "control_change"}, {"time": 4865, "annotation": {"number": 64, "value": 127}, "group": "control_change"}, {"time": 4866, "annotation": {"number": 64, "value": 0}, "group": "control_change"}, {"time": 4868, "annotation": {"number": 64, "value": 127}, "group": "control_change"}, {"time": 4878, "annotation": {"number": 64, "value": 0}, "group": "control_change"}, {"time": 4881, "annotation": {"number": 64, "value": 127}, "group": "control_change"}, {"time": 4903, "annotation": {"number": 64, "value": 0}, "group": "control_change"}, {"time": 4906, "annotation": {"number": 64, "value": 127}, "group": "control_change"}, {"time": 4927, "annotation": {"number": 64, "value": 0}, "group": "control_change"}, {"time": 4929, "annotation": {"number": 64, "value": 127}, "group": "control_change"}, {"time": 4950, "annotation": {"number": 64, "value": 0}, "group": "control_change"}, {"time": 4953, "annotation": {"number": 64, "value": 127}, "group": "control_change"}, {"time": 4974, "annotation": {"number": 64, "value": 0}, "group": "control_change"}, {"time": 4977, "annotation": {"number": 64, "value": 127}, "group": "control_change"}, {"time": 4998, "annotation": {"number": 64, "value": 0}, "group": "control_change"}, {"time": 5001, "annotation": {"number": 64, "value": 127}, "group": "control_change"}, {"time": 5023, "annotation": {"number": 64, "value": 0}, "group": "control_change"}, {"time": 5025, "annotation": {"number": 64, "value": 127}, "group": "control_change"}, {"time": 5046, "annotation": {"number": 64, "value": 0}, "group": "control_change"}, {"time": 5049, "annotation": {"number": 64, "value": 127}, "group": "control_change"}, {"time": 5070, "annotation": {"number": 64, "value": 0}, "group": "control_change"}, {"time": 5072, "annotation": {"number": 64, "value": 127}, "group": "control_change"}, {"time": 5083, "annotation": {"number": 64, "value": 0}, "group": "control_change"}, {"time": 5085, "annotation": {"number": 64, "value": 127}, "group": "control_change"}, {"time": 5095, "annotation": {"number": 64, "value": 0}, "group": "control_change"}, {"time": 5098, "annotation": {"number": 64, "value": 127}, "group": "control_change"}, {"time": 5119, "annotation": {"number": 64, "value": 0}, "group": "control_change"}, {"time": 5121, "annotation": {"number": 64, "value": 127}, "group": "control_change"}, {"time": 5143, "annotation": {"number": 64, "value": 0}, "group": "control_change"}, {"time": 5146, "annotation": {"number": 64, "value": 127}, "group": "control_change"}, {"time": 5181, "annotation": {"number": 64, "value": 0}, "group": "control_change"}]}]}