{"metadata": {"schema_version": "0.2", "title": "None", "source_filename": "453.mid", "source_format": "midi"}, "resolution": 12, "tempos": [{"time": 0, "qpm": 69.50010888350391}, {"time": 348, "qpm": 71.00011951686785}, {"time": 396, "qpm": 70.00007000007}, {"time": 2412, "qpm": 58.00004253336452}, {"time": 2424, "qpm": 50.0}, {"time": 2436, "qpm": 67.00002903334591}, {"time": 2460, "qpm": 70.00007000007}, {"time": 3588, "qpm": 70.49998590000283}], "time_signatures": [{"time": 0, "numerator": 1, "denominator": 4}], "tracks": [{"program": 4, "is_drum": false, "name": "MELODY", "notes": [{"time": 260, "pitch": 59, "duration": 6, "velocity": 96}, {"time": 266, "pitch": 60, "duration": 5, "velocity": 97}, {"time": 272, "pitch": 62, "duration": 11, "velocity": 100}, {"time": 284, "pitch": 62, "duration": 5, "velocity": 107}, {"time": 290, "pitch": 67, "duration": 4, "velocity": 112}, {"time": 296, "pitch": 69, "duration": 9, "velocity": 117}, {"time": 308, "pitch": 67, "duration": 4, "velocity": 112}, {"time": 314, "pitch": 69, "duration": 4, "velocity": 107}, {"time": 320, "pitch": 71, "duration": 4, "velocity": 117}, {"time": 326, "pitch": 72, "duration": 4, "velocity": 122}, {"time": 332, "pitch": 74, "duration": 4, "velocity": 122}, {"time": 338, "pitch": 67, "duration": 4, "velocity": 102}, {"time": 344, "pitch": 69, "duration": 8, "velocity": 122}, {"time": 356, "pitch": 67, "duration": 5, "velocity": 107}, {"time": 362, "pitch": 66, "duration": 3, "velocity": 96}, {"time": 368, "pitch": 64, "duration": 8, "velocity": 93}, {"time": 380, "pitch": 66, "duration": 4, "velocity": 122}, {"time": 386, "pitch": 67, "duration": 4, "velocity": 100}, {"time": 392, "pitch": 62, "duration": 6, "velocity": 102}, {"time": 398, "pitch": 74, "duration": 3, "velocity": 117}, {"time": 401, "pitch": 76, "duration": 3, "velocity": 93}, {"time": 404, "pitch": 74, "duration": 3, "velocity": 96}, {"time": 410, "pitch": 72, "duration": 4, "velocity": 107}, {"time": 416, "pitch": 71, "duration": 5, "velocity": 122}, {"time": 428, "pitch": 72, "duration": 5, "velocity": 112}, {"time": 434, "pitch": 71, "duration": 4, "velocity": 102}, {"time": 440, "pitch": 69, "duration": 7, "velocity": 107}, {"time": 452, "pitch": 59, "duration": 5, "velocity": 95}, {"time": 458, "pitch": 60, "duration": 4, "velocity": 93}, {"time": 464, "pitch": 62, "duration": 8, "velocity": 102}, {"time": 476, "pitch": 62, "duration": 5, "velocity": 102}, {"time": 482, "pitch": 67, "duration": 5, "velocity": 107}, {"time": 488, "pitch": 69, "duration": 5, "velocity": 127}, {"time": 500, "pitch": 67, "duration": 4, "velocity": 97}, {"time": 506, "pitch": 69, "duration": 4, "velocity": 117}, {"time": 512, "pitch": 71, "duration": 4, "velocity": 122}, {"time": 518, "pitch": 72, "duration": 5, "velocity": 122}, {"time": 524, "pitch": 74, "duration": 4, "velocity": 127}, {"time": 530, "pitch": 67, "duration": 4, "velocity": 95}, {"time": 533, "pitch": 69, "duration": 2, "velocity": 93}, {"time": 536, "pitch": 69, "duration": 9, "velocity": 107}, {"time": 548, "pitch": 67, "duration": 6, "velocity": 96}, {"time": 554, "pitch": 66, "duration": 6, "velocity": 89}, {"time": 560, "pitch": 64, "duration": 6, "velocity": 95}, {"time": 572, "pitch": 76, "duration": 10, "velocity": 127}, {"time": 584, "pitch": 74, "duration": 5, "velocity": 127}, {"time": 602, "pitch": 69, "duration": 2, "velocity": 97}, {"time": 605, "pitch": 71, "duration": 2, "velocity": 89}, {"time": 608, "pitch": 72, "duration": 4, "velocity": 102}, {"time": 617, "pitch": 71, "duration": 4, "velocity": 127}, {"time": 626, "pitch": 69, "duration": 5, "velocity": 117}, {"time": 632, "pitch": 67, "duration": 28, "velocity": 97}, {"time": 668, "pitch": 67, "duration": 5, "velocity": 99}, {"time": 674, "pitch": 69, "duration": 4, "velocity": 100}, {"time": 680, "pitch": 71, "duration": 3, "velocity": 107}, {"time": 683, "pitch": 69, "duration": 2, "velocity": 82}, {"time": 686, "pitch": 71, "duration": 3, "velocity": 93}, {"time": 689, "pitch": 69, "duration": 2, "velocity": 89}, {"time": 692, "pitch": 71, "duration": 4, "velocity": 112}, {"time": 698, "pitch": 74, "duration": 4, "velocity": 122}, {"time": 704, "pitch": 69, "duration": 10, "velocity": 99}, {"time": 722, "pitch": 69, "duration": 3, "velocity": 99}, {"time": 725, "pitch": 71, "duration": 2, "velocity": 93}, {"time": 728, "pitch": 72, "duration": 3, "velocity": 102}, {"time": 731, "pitch": 71, "duration": 2, "velocity": 93}, {"time": 734, "pitch": 72, "duration": 3, "velocity": 96}, {"time": 737, "pitch": 71, "duration": 2, "velocity": 89}, {"time": 740, "pitch": 72, "duration": 3, "velocity": 117}, {"time": 746, "pitch": 76, "duration": 4, "velocity": 127}, {"time": 752, "pitch": 71, "duration": 6, "velocity": 117}, {"time": 770, "pitch": 71, "duration": 2, "velocity": 99}, {"time": 773, "pitch": 72, "duration": 1, "velocity": 95}, {"time": 776, "pitch": 74, "duration": 2, "velocity": 107}, {"time": 779, "pitch": 72, "duration": 2, "velocity": 107}, {"time": 782, "pitch": 71, "duration": 3, "velocity": 95}, {"time": 785, "pitch": 72, "duration": 2, "velocity": 102}, {"time": 788, "pitch": 74, "duration": 5, "velocity": 127}, {"time": 797, "pitch": 74, "duration": 2, "velocity": 122}, {"time": 800, "pitch": 72, "duration": 3, "velocity": 102}, {"time": 803, "pitch": 71, "duration": 2, "velocity": 89}, {"time": 806, "pitch": 69, "duration": 2, "velocity": 92}, {"time": 809, "pitch": 71, "duration": 2, "velocity": 99}, {"time": 812, "pitch": 72, "duration": 5, "velocity": 107}, {"time": 821, "pitch": 72, "duration": 2, "velocity": 117}, {"time": 824, "pitch": 71, "duration": 2, "velocity": 99}, {"time": 827, "pitch": 69, "duration": 2, "velocity": 89}, {"time": 830, "pitch": 67, "duration": 2, "velocity": 88}, {"time": 833, "pitch": 69, "duration": 2, "velocity": 92}, {"time": 836, "pitch": 71, "duration": 4, "velocity": 117}, {"time": 842, "pitch": 76, "duration": 4, "velocity": 122}, {"time": 848, "pitch": 74, "duration": 11, "velocity": 127}, {"time": 860, "pitch": 67, "duration": 5, "velocity": 99}, {"time": 866, "pitch": 69, "duration": 4, "velocity": 100}, {"time": 872, "pitch": 71, "duration": 3, "velocity": 107}, {"time": 875, "pitch": 69, "duration": 2, "velocity": 82}, {"time": 878, "pitch": 71, "duration": 3, "velocity": 93}, {"time": 881, "pitch": 69, "duration": 2, "velocity": 89}, {"time": 884, "pitch": 71, "duration": 4, "velocity": 112}, {"time": 890, "pitch": 74, "duration": 4, "velocity": 122}, {"time": 896, "pitch": 69, "duration": 10, "velocity": 99}, {"time": 914, "pitch": 69, "duration": 3, "velocity": 99}, {"time": 917, "pitch": 71, "duration": 2, "velocity": 93}, {"time": 920, "pitch": 72, "duration": 3, "velocity": 102}, {"time": 923, "pitch": 71, "duration": 2, "velocity": 93}, {"time": 926, "pitch": 72, "duration": 3, "velocity": 96}, {"time": 929, "pitch": 71, "duration": 2, "velocity": 89}, {"time": 932, "pitch": 72, "duration": 3, "velocity": 117}, {"time": 938, "pitch": 76, "duration": 4, "velocity": 127}, {"time": 944, "pitch": 71, "duration": 6, "velocity": 117}, {"time": 962, "pitch": 71, "duration": 2, "velocity": 99}, {"time": 965, "pitch": 72, "duration": 1, "velocity": 95}, {"time": 968, "pitch": 74, "duration": 2, "velocity": 107}, {"time": 971, "pitch": 72, "duration": 2, "velocity": 107}, {"time": 974, "pitch": 71, "duration": 3, "velocity": 95}, {"time": 977, "pitch": 72, "duration": 2, "velocity": 102}, {"time": 980, "pitch": 74, "duration": 5, "velocity": 127}, {"time": 989, "pitch": 74, "duration": 2, "velocity": 122}, {"time": 992, "pitch": 72, "duration": 3, "velocity": 102}, {"time": 995, "pitch": 71, "duration": 2, "velocity": 89}, {"time": 998, "pitch": 69, "duration": 2, "velocity": 92}, {"time": 1001, "pitch": 71, "duration": 2, "velocity": 99}, {"time": 1004, "pitch": 72, "duration": 5, "velocity": 107}, {"time": 1013, "pitch": 72, "duration": 2, "velocity": 117}, {"time": 1016, "pitch": 71, "duration": 2, "velocity": 99}, {"time": 1019, "pitch": 69, "duration": 2, "velocity": 89}, {"time": 1022, "pitch": 67, "duration": 2, "velocity": 88}, {"time": 1025, "pitch": 69, "duration": 2, "velocity": 92}, {"time": 1028, "pitch": 71, "duration": 4, "velocity": 117}, {"time": 1034, "pitch": 76, "duration": 4, "velocity": 122}, {"time": 1040, "pitch": 74, "duration": 11, "velocity": 127}, {"time": 1052, "pitch": 72, "duration": 3, "velocity": 127}, {"time": 1056, "pitch": 71, "duration": 3, "velocity": 100}, {"time": 1060, "pitch": 69, "duration": 2, "velocity": 99}, {"time": 1064, "pitch": 71, "duration": 46, "velocity": 122}, {"time": 1532, "pitch": 59, "duration": 6, "velocity": 96}, {"time": 1538, "pitch": 60, "duration": 5, "velocity": 97}, {"time": 1544, "pitch": 62, "duration": 11, "velocity": 100}, {"time": 1556, "pitch": 62, "duration": 5, "velocity": 107}, {"time": 1562, "pitch": 67, "duration": 4, "velocity": 112}, {"time": 1568, "pitch": 69, "duration": 9, "velocity": 117}, {"time": 1580, "pitch": 67, "duration": 4, "velocity": 112}, {"time": 1586, "pitch": 69, "duration": 4, "velocity": 107}, {"time": 1592, "pitch": 71, "duration": 4, "velocity": 117}, {"time": 1598, "pitch": 72, "duration": 4, "velocity": 122}, {"time": 1604, "pitch": 74, "duration": 4, "velocity": 122}, {"time": 1610, "pitch": 67, "duration": 4, "velocity": 102}, {"time": 1616, "pitch": 69, "duration": 8, "velocity": 122}, {"time": 1628, "pitch": 67, "duration": 5, "velocity": 107}, {"time": 1634, "pitch": 66, "duration": 3, "velocity": 96}, {"time": 1640, "pitch": 64, "duration": 8, "velocity": 93}, {"time": 1652, "pitch": 66, "duration": 4, "velocity": 122}, {"time": 1658, "pitch": 67, "duration": 4, "velocity": 100}, {"time": 1664, "pitch": 62, "duration": 6, "velocity": 102}, {"time": 1670, "pitch": 74, "duration": 3, "velocity": 117}, {"time": 1673, "pitch": 76, "duration": 3, "velocity": 93}, {"time": 1676, "pitch": 74, "duration": 3, "velocity": 96}, {"time": 1682, "pitch": 72, "duration": 4, "velocity": 107}, {"time": 1688, "pitch": 71, "duration": 5, "velocity": 122}, {"time": 1700, "pitch": 72, "duration": 5, "velocity": 112}, {"time": 1706, "pitch": 71, "duration": 4, "velocity": 102}, {"time": 1712, "pitch": 69, "duration": 7, "velocity": 107}, {"time": 1724, "pitch": 59, "duration": 5, "velocity": 95}, {"time": 1730, "pitch": 60, "duration": 4, "velocity": 93}, {"time": 1736, "pitch": 62, "duration": 8, "velocity": 102}, {"time": 1748, "pitch": 62, "duration": 5, "velocity": 102}, {"time": 1754, "pitch": 67, "duration": 5, "velocity": 107}, {"time": 1760, "pitch": 69, "duration": 5, "velocity": 127}, {"time": 1772, "pitch": 67, "duration": 4, "velocity": 97}, {"time": 1778, "pitch": 69, "duration": 4, "velocity": 117}, {"time": 1784, "pitch": 71, "duration": 4, "velocity": 122}, {"time": 1790, "pitch": 72, "duration": 5, "velocity": 122}, {"time": 1796, "pitch": 74, "duration": 4, "velocity": 127}, {"time": 1802, "pitch": 67, "duration": 4, "velocity": 95}, {"time": 1805, "pitch": 69, "duration": 2, "velocity": 93}, {"time": 1808, "pitch": 69, "duration": 9, "velocity": 107}, {"time": 1820, "pitch": 67, "duration": 6, "velocity": 96}, {"time": 1826, "pitch": 66, "duration": 6, "velocity": 89}, {"time": 1832, "pitch": 64, "duration": 6, "velocity": 95}, {"time": 1844, "pitch": 76, "duration": 10, "velocity": 127}, {"time": 1856, "pitch": 74, "duration": 5, "velocity": 127}, {"time": 1874, "pitch": 69, "duration": 2, "velocity": 97}, {"time": 1877, "pitch": 71, "duration": 2, "velocity": 89}, {"time": 1880, "pitch": 72, "duration": 4, "velocity": 102}, {"time": 1889, "pitch": 71, "duration": 4, "velocity": 127}, {"time": 1898, "pitch": 69, "duration": 5, "velocity": 117}, {"time": 1904, "pitch": 67, "duration": 28, "velocity": 97}, {"time": 1940, "pitch": 67, "duration": 5, "velocity": 99}, {"time": 1946, "pitch": 69, "duration": 4, "velocity": 100}, {"time": 1952, "pitch": 71, "duration": 3, "velocity": 107}, {"time": 1955, "pitch": 69, "duration": 2, "velocity": 82}, {"time": 1958, "pitch": 71, "duration": 3, "velocity": 93}, {"time": 1961, "pitch": 69, "duration": 2, "velocity": 89}, {"time": 1964, "pitch": 71, "duration": 4, "velocity": 112}, {"time": 1970, "pitch": 74, "duration": 4, "velocity": 122}, {"time": 1976, "pitch": 69, "duration": 10, "velocity": 99}, {"time": 1994, "pitch": 69, "duration": 3, "velocity": 99}, {"time": 1997, "pitch": 71, "duration": 2, "velocity": 93}, {"time": 2000, "pitch": 72, "duration": 3, "velocity": 102}, {"time": 2003, "pitch": 71, "duration": 2, "velocity": 93}, {"time": 2006, "pitch": 72, "duration": 3, "velocity": 96}, {"time": 2009, "pitch": 71, "duration": 2, "velocity": 89}, {"time": 2012, "pitch": 72, "duration": 3, "velocity": 117}, {"time": 2018, "pitch": 76, "duration": 4, "velocity": 127}, {"time": 2024, "pitch": 71, "duration": 6, "velocity": 117}, {"time": 2042, "pitch": 71, "duration": 2, "velocity": 99}, {"time": 2045, "pitch": 72, "duration": 1, "velocity": 95}, {"time": 2048, "pitch": 74, "duration": 2, "velocity": 107}, {"time": 2051, "pitch": 72, "duration": 2, "velocity": 107}, {"time": 2054, "pitch": 71, "duration": 3, "velocity": 95}, {"time": 2057, "pitch": 72, "duration": 2, "velocity": 102}, {"time": 2060, "pitch": 74, "duration": 5, "velocity": 127}, {"time": 2069, "pitch": 74, "duration": 2, "velocity": 122}, {"time": 2072, "pitch": 72, "duration": 3, "velocity": 102}, {"time": 2075, "pitch": 71, "duration": 2, "velocity": 89}, {"time": 2078, "pitch": 69, "duration": 2, "velocity": 92}, {"time": 2081, "pitch": 71, "duration": 2, "velocity": 99}, {"time": 2084, "pitch": 72, "duration": 5, "velocity": 107}, {"time": 2093, "pitch": 72, "duration": 2, "velocity": 117}, {"time": 2096, "pitch": 71, "duration": 2, "velocity": 99}, {"time": 2099, "pitch": 69, "duration": 2, "velocity": 89}, {"time": 2102, "pitch": 67, "duration": 2, "velocity": 88}, {"time": 2105, "pitch": 69, "duration": 2, "velocity": 92}, {"time": 2108, "pitch": 71, "duration": 4, "velocity": 117}, {"time": 2114, "pitch": 76, "duration": 4, "velocity": 122}, {"time": 2120, "pitch": 74, "duration": 11, "velocity": 127}, {"time": 2132, "pitch": 67, "duration": 5, "velocity": 99}, {"time": 2138, "pitch": 69, "duration": 4, "velocity": 100}, {"time": 2144, "pitch": 71, "duration": 3, "velocity": 107}, {"time": 2147, "pitch": 69, "duration": 2, "velocity": 82}, {"time": 2150, "pitch": 71, "duration": 3, "velocity": 93}, {"time": 2153, "pitch": 69, "duration": 2, "velocity": 89}, {"time": 2156, "pitch": 71, "duration": 4, "velocity": 112}, {"time": 2162, "pitch": 74, "duration": 4, "velocity": 122}, {"time": 2168, "pitch": 69, "duration": 10, "velocity": 99}, {"time": 2186, "pitch": 69, "duration": 3, "velocity": 99}, {"time": 2189, "pitch": 71, "duration": 2, "velocity": 93}, {"time": 2192, "pitch": 72, "duration": 3, "velocity": 102}, {"time": 2195, "pitch": 71, "duration": 2, "velocity": 93}, {"time": 2198, "pitch": 72, "duration": 3, "velocity": 96}, {"time": 2201, "pitch": 71, "duration": 2, "velocity": 89}, {"time": 2204, "pitch": 72, "duration": 3, "velocity": 117}, {"time": 2210, "pitch": 76, "duration": 4, "velocity": 127}, {"time": 2216, "pitch": 71, "duration": 6, "velocity": 117}, {"time": 2234, "pitch": 71, "duration": 2, "velocity": 99}, {"time": 2237, "pitch": 72, "duration": 1, "velocity": 95}, {"time": 2240, "pitch": 74, "duration": 2, "velocity": 107}, {"time": 2243, "pitch": 72, "duration": 2, "velocity": 107}, {"time": 2246, "pitch": 71, "duration": 3, "velocity": 95}, {"time": 2249, "pitch": 72, "duration": 2, "velocity": 102}, {"time": 2252, "pitch": 74, "duration": 5, "velocity": 127}, {"time": 2261, "pitch": 74, "duration": 2, "velocity": 122}, {"time": 2264, "pitch": 72, "duration": 3, "velocity": 102}, {"time": 2267, "pitch": 71, "duration": 2, "velocity": 89}, {"time": 2270, "pitch": 69, "duration": 2, "velocity": 92}, {"time": 2273, "pitch": 71, "duration": 2, "velocity": 99}, {"time": 2276, "pitch": 72, "duration": 5, "velocity": 107}, {"time": 2285, "pitch": 72, "duration": 2, "velocity": 117}, {"time": 2288, "pitch": 71, "duration": 2, "velocity": 99}, {"time": 2291, "pitch": 69, "duration": 2, "velocity": 89}, {"time": 2294, "pitch": 67, "duration": 2, "velocity": 88}, {"time": 2297, "pitch": 69, "duration": 2, "velocity": 92}, {"time": 2300, "pitch": 71, "duration": 4, "velocity": 117}, {"time": 2306, "pitch": 76, "duration": 4, "velocity": 122}, {"time": 2312, "pitch": 74, "duration": 11, "velocity": 127}, {"time": 2324, "pitch": 72, "duration": 3, "velocity": 127}, {"time": 2328, "pitch": 71, "duration": 3, "velocity": 100}, {"time": 2332, "pitch": 69, "duration": 2, "velocity": 99}, {"time": 2336, "pitch": 71, "duration": 46, "velocity": 122}, {"time": 2432, "pitch": 73, "duration": 3, "velocity": 107}, {"time": 2435, "pitch": 71, "duration": 2, "velocity": 82}, {"time": 2438, "pitch": 73, "duration": 3, "velocity": 93}, {"time": 2441, "pitch": 71, "duration": 2, "velocity": 89}, {"time": 2444, "pitch": 73, "duration": 4, "velocity": 112}, {"time": 2450, "pitch": 76, "duration": 4, "velocity": 122}, {"time": 2456, "pitch": 71, "duration": 10, "velocity": 99}, {"time": 2474, "pitch": 71, "duration": 3, "velocity": 99}, {"time": 2477, "pitch": 73, "duration": 2, "velocity": 93}, {"time": 2480, "pitch": 74, "duration": 3, "velocity": 102}, {"time": 2483, "pitch": 73, "duration": 2, "velocity": 93}, {"time": 2486, "pitch": 74, "duration": 3, "velocity": 96}, {"time": 2489, "pitch": 73, "duration": 2, "velocity": 89}, {"time": 2492, "pitch": 74, "duration": 3, "velocity": 117}, {"time": 2498, "pitch": 78, "duration": 4, "velocity": 127}, {"time": 2504, "pitch": 73, "duration": 6, "velocity": 117}, {"time": 2522, "pitch": 73, "duration": 2, "velocity": 99}, {"time": 2525, "pitch": 74, "duration": 1, "velocity": 95}, {"time": 2528, "pitch": 76, "duration": 2, "velocity": 107}, {"time": 2531, "pitch": 74, "duration": 2, "velocity": 107}, {"time": 2534, "pitch": 73, "duration": 3, "velocity": 95}, {"time": 2537, "pitch": 74, "duration": 2, "velocity": 102}, {"time": 2540, "pitch": 76, "duration": 5, "velocity": 127}, {"time": 2549, "pitch": 76, "duration": 2, "velocity": 122}, {"time": 2552, "pitch": 74, "duration": 3, "velocity": 102}, {"time": 2555, "pitch": 73, "duration": 2, "velocity": 89}, {"time": 2558, "pitch": 71, "duration": 2, "velocity": 92}, {"time": 2561, "pitch": 73, "duration": 2, "velocity": 99}, {"time": 2564, "pitch": 74, "duration": 5, "velocity": 107}, {"time": 2573, "pitch": 74, "duration": 2, "velocity": 117}, {"time": 2576, "pitch": 73, "duration": 2, "velocity": 99}, {"time": 2579, "pitch": 71, "duration": 2, "velocity": 89}, {"time": 2582, "pitch": 69, "duration": 2, "velocity": 88}, {"time": 2585, "pitch": 71, "duration": 2, "velocity": 92}, {"time": 2588, "pitch": 73, "duration": 4, "velocity": 117}, {"time": 2594, "pitch": 78, "duration": 4, "velocity": 122}, {"time": 2600, "pitch": 76, "duration": 11, "velocity": 127}, {"time": 2612, "pitch": 69, "duration": 5, "velocity": 99}, {"time": 2618, "pitch": 71, "duration": 4, "velocity": 100}, {"time": 2624, "pitch": 73, "duration": 3, "velocity": 107}, {"time": 2627, "pitch": 71, "duration": 2, "velocity": 82}, {"time": 2630, "pitch": 73, "duration": 3, "velocity": 93}, {"time": 2633, "pitch": 71, "duration": 2, "velocity": 89}, {"time": 2636, "pitch": 73, "duration": 4, "velocity": 112}, {"time": 2642, "pitch": 76, "duration": 4, "velocity": 122}, {"time": 2648, "pitch": 71, "duration": 10, "velocity": 99}, {"time": 2666, "pitch": 71, "duration": 3, "velocity": 99}, {"time": 2669, "pitch": 73, "duration": 2, "velocity": 93}, {"time": 2672, "pitch": 74, "duration": 3, "velocity": 102}, {"time": 2675, "pitch": 73, "duration": 2, "velocity": 93}, {"time": 2678, "pitch": 74, "duration": 3, "velocity": 96}, {"time": 2681, "pitch": 73, "duration": 2, "velocity": 89}, {"time": 2684, "pitch": 74, "duration": 3, "velocity": 117}, {"time": 2690, "pitch": 78, "duration": 4, "velocity": 127}, {"time": 2696, "pitch": 73, "duration": 6, "velocity": 117}, {"time": 2714, "pitch": 73, "duration": 2, "velocity": 99}, {"time": 2717, "pitch": 74, "duration": 1, "velocity": 95}, {"time": 2720, "pitch": 76, "duration": 2, "velocity": 107}, {"time": 2723, "pitch": 74, "duration": 2, "velocity": 107}, {"time": 2726, "pitch": 73, "duration": 3, "velocity": 95}, {"time": 2729, "pitch": 74, "duration": 2, "velocity": 102}, {"time": 2732, "pitch": 76, "duration": 5, "velocity": 127}, {"time": 2741, "pitch": 76, "duration": 2, "velocity": 122}, {"time": 2744, "pitch": 74, "duration": 3, "velocity": 102}, {"time": 2747, "pitch": 73, "duration": 2, "velocity": 89}, {"time": 2750, "pitch": 71, "duration": 2, "velocity": 92}, {"time": 2753, "pitch": 73, "duration": 2, "velocity": 99}, {"time": 2756, "pitch": 74, "duration": 5, "velocity": 107}, {"time": 2765, "pitch": 74, "duration": 2, "velocity": 117}, {"time": 2768, "pitch": 73, "duration": 2, "velocity": 99}, {"time": 2771, "pitch": 71, "duration": 2, "velocity": 89}, {"time": 2774, "pitch": 69, "duration": 2, "velocity": 88}, {"time": 2777, "pitch": 71, "duration": 2, "velocity": 92}, {"time": 2780, "pitch": 73, "duration": 4, "velocity": 117}, {"time": 2786, "pitch": 78, "duration": 4, "velocity": 122}, {"time": 2792, "pitch": 76, "duration": 11, "velocity": 127}, {"time": 2804, "pitch": 69, "duration": 6, "velocity": 122}, {"time": 2810, "pitch": 71, "duration": 5, "velocity": 122}, {"time": 2816, "pitch": 73, "duration": 3, "velocity": 107}, {"time": 2819, "pitch": 71, "duration": 2, "velocity": 82}, {"time": 2822, "pitch": 73, "duration": 3, "velocity": 93}, {"time": 2825, "pitch": 71, "duration": 2, "velocity": 89}, {"time": 2828, "pitch": 73, "duration": 4, "velocity": 112}, {"time": 2834, "pitch": 76, "duration": 4, "velocity": 122}, {"time": 2840, "pitch": 71, "duration": 10, "velocity": 99}, {"time": 2858, "pitch": 71, "duration": 3, "velocity": 99}, {"time": 2861, "pitch": 73, "duration": 2, "velocity": 93}, {"time": 2864, "pitch": 74, "duration": 3, "velocity": 102}, {"time": 2867, "pitch": 73, "duration": 2, "velocity": 93}, {"time": 2870, "pitch": 74, "duration": 3, "velocity": 96}, {"time": 2873, "pitch": 73, "duration": 2, "velocity": 89}, {"time": 2876, "pitch": 74, "duration": 3, "velocity": 117}, {"time": 2882, "pitch": 78, "duration": 4, "velocity": 127}, {"time": 2888, "pitch": 73, "duration": 6, "velocity": 117}, {"time": 2906, "pitch": 73, "duration": 2, "velocity": 99}, {"time": 2909, "pitch": 74, "duration": 1, "velocity": 95}, {"time": 2912, "pitch": 76, "duration": 2, "velocity": 107}, {"time": 2915, "pitch": 74, "duration": 2, "velocity": 107}, {"time": 2918, "pitch": 73, "duration": 3, "velocity": 95}, {"time": 2921, "pitch": 74, "duration": 2, "velocity": 102}, {"time": 2924, "pitch": 76, "duration": 5, "velocity": 127}, {"time": 2933, "pitch": 76, "duration": 2, "velocity": 122}, {"time": 2936, "pitch": 74, "duration": 3, "velocity": 102}, {"time": 2939, "pitch": 73, "duration": 2, "velocity": 89}, {"time": 2942, "pitch": 71, "duration": 2, "velocity": 92}, {"time": 2945, "pitch": 73, "duration": 2, "velocity": 99}, {"time": 2948, "pitch": 74, "duration": 5, "velocity": 107}, {"time": 2957, "pitch": 74, "duration": 2, "velocity": 117}, {"time": 2960, "pitch": 73, "duration": 2, "velocity": 99}, {"time": 2963, "pitch": 71, "duration": 2, "velocity": 89}, {"time": 2966, "pitch": 69, "duration": 2, "velocity": 88}, {"time": 2969, "pitch": 71, "duration": 2, "velocity": 92}, {"time": 2972, "pitch": 73, "duration": 4, "velocity": 117}, {"time": 2978, "pitch": 78, "duration": 4, "velocity": 122}, {"time": 2984, "pitch": 76, "duration": 11, "velocity": 127}, {"time": 2996, "pitch": 69, "duration": 5, "velocity": 99}, {"time": 3002, "pitch": 71, "duration": 4, "velocity": 100}, {"time": 3008, "pitch": 73, "duration": 3, "velocity": 107}, {"time": 3011, "pitch": 71, "duration": 2, "velocity": 82}, {"time": 3014, "pitch": 73, "duration": 3, "velocity": 93}, {"time": 3017, "pitch": 71, "duration": 2, "velocity": 89}, {"time": 3020, "pitch": 73, "duration": 4, "velocity": 112}, {"time": 3026, "pitch": 76, "duration": 4, "velocity": 122}, {"time": 3032, "pitch": 71, "duration": 10, "velocity": 99}, {"time": 3050, "pitch": 71, "duration": 3, "velocity": 99}, {"time": 3053, "pitch": 73, "duration": 2, "velocity": 93}, {"time": 3056, "pitch": 74, "duration": 3, "velocity": 102}, {"time": 3059, "pitch": 73, "duration": 2, "velocity": 93}, {"time": 3062, "pitch": 74, "duration": 3, "velocity": 96}, {"time": 3065, "pitch": 73, "duration": 2, "velocity": 89}, {"time": 3068, "pitch": 74, "duration": 3, "velocity": 117}, {"time": 3074, "pitch": 78, "duration": 4, "velocity": 127}, {"time": 3080, "pitch": 73, "duration": 6, "velocity": 117}, {"time": 3098, "pitch": 73, "duration": 2, "velocity": 99}, {"time": 3101, "pitch": 74, "duration": 1, "velocity": 95}, {"time": 3104, "pitch": 76, "duration": 2, "velocity": 107}, {"time": 3107, "pitch": 74, "duration": 2, "velocity": 107}, {"time": 3110, "pitch": 73, "duration": 3, "velocity": 95}, {"time": 3113, "pitch": 74, "duration": 2, "velocity": 102}, {"time": 3116, "pitch": 76, "duration": 5, "velocity": 127}, {"time": 3125, "pitch": 76, "duration": 2, "velocity": 122}, {"time": 3128, "pitch": 74, "duration": 3, "velocity": 102}, {"time": 3131, "pitch": 73, "duration": 2, "velocity": 89}, {"time": 3134, "pitch": 71, "duration": 2, "velocity": 92}, {"time": 3137, "pitch": 73, "duration": 2, "velocity": 99}, {"time": 3140, "pitch": 74, "duration": 5, "velocity": 107}, {"time": 3149, "pitch": 74, "duration": 2, "velocity": 117}, {"time": 3152, "pitch": 73, "duration": 2, "velocity": 99}, {"time": 3155, "pitch": 71, "duration": 2, "velocity": 89}, {"time": 3158, "pitch": 69, "duration": 2, "velocity": 88}, {"time": 3161, "pitch": 71, "duration": 2, "velocity": 92}, {"time": 3164, "pitch": 73, "duration": 4, "velocity": 117}, {"time": 3170, "pitch": 78, "duration": 4, "velocity": 122}, {"time": 3176, "pitch": 76, "duration": 8, "velocity": 127}, {"time": 3188, "pitch": 69, "duration": 5, "velocity": 122}, {"time": 3194, "pitch": 71, "duration": 7, "velocity": 127}, {"time": 3200, "pitch": 73, "duration": 3, "velocity": 107}, {"time": 3203, "pitch": 71, "duration": 2, "velocity": 82}, {"time": 3206, "pitch": 73, "duration": 3, "velocity": 93}, {"time": 3209, "pitch": 71, "duration": 2, "velocity": 89}, {"time": 3212, "pitch": 73, "duration": 4, "velocity": 112}, {"time": 3218, "pitch": 76, "duration": 4, "velocity": 122}, {"time": 3224, "pitch": 71, "duration": 10, "velocity": 99}, {"time": 3242, "pitch": 71, "duration": 3, "velocity": 99}, {"time": 3245, "pitch": 73, "duration": 2, "velocity": 93}, {"time": 3248, "pitch": 74, "duration": 3, "velocity": 102}, {"time": 3251, "pitch": 73, "duration": 2, "velocity": 93}, {"time": 3254, "pitch": 74, "duration": 3, "velocity": 96}, {"time": 3257, "pitch": 73, "duration": 2, "velocity": 89}, {"time": 3260, "pitch": 74, "duration": 3, "velocity": 117}, {"time": 3266, "pitch": 78, "duration": 4, "velocity": 127}, {"time": 3272, "pitch": 73, "duration": 6, "velocity": 117}, {"time": 3290, "pitch": 73, "duration": 2, "velocity": 99}, {"time": 3293, "pitch": 74, "duration": 1, "velocity": 95}, {"time": 3296, "pitch": 76, "duration": 2, "velocity": 107}, {"time": 3299, "pitch": 74, "duration": 2, "velocity": 107}, {"time": 3302, "pitch": 73, "duration": 3, "velocity": 95}, {"time": 3305, "pitch": 74, "duration": 2, "velocity": 102}, {"time": 3308, "pitch": 76, "duration": 5, "velocity": 127}, {"time": 3317, "pitch": 76, "duration": 2, "velocity": 122}, {"time": 3320, "pitch": 74, "duration": 3, "velocity": 102}, {"time": 3323, "pitch": 73, "duration": 2, "velocity": 89}, {"time": 3326, "pitch": 71, "duration": 2, "velocity": 92}, {"time": 3329, "pitch": 73, "duration": 2, "velocity": 99}, {"time": 3332, "pitch": 74, "duration": 5, "velocity": 107}, {"time": 3341, "pitch": 74, "duration": 2, "velocity": 117}, {"time": 3344, "pitch": 73, "duration": 2, "velocity": 99}, {"time": 3347, "pitch": 71, "duration": 2, "velocity": 89}, {"time": 3350, "pitch": 69, "duration": 2, "velocity": 88}, {"time": 3353, "pitch": 71, "duration": 2, "velocity": 92}, {"time": 3356, "pitch": 73, "duration": 4, "velocity": 117}, {"time": 3362, "pitch": 78, "duration": 4, "velocity": 122}, {"time": 3368, "pitch": 76, "duration": 11, "velocity": 127}, {"time": 3380, "pitch": 69, "duration": 5, "velocity": 99}, {"time": 3386, "pitch": 71, "duration": 4, "velocity": 100}, {"time": 3392, "pitch": 73, "duration": 3, "velocity": 107}, {"time": 3395, "pitch": 71, "duration": 2, "velocity": 82}, {"time": 3398, "pitch": 73, "duration": 3, "velocity": 93}, {"time": 3401, "pitch": 71, "duration": 2, "velocity": 89}, {"time": 3404, "pitch": 73, "duration": 4, "velocity": 112}, {"time": 3410, "pitch": 76, "duration": 4, "velocity": 122}, {"time": 3416, "pitch": 71, "duration": 10, "velocity": 99}, {"time": 3434, "pitch": 71, "duration": 3, "velocity": 99}, {"time": 3437, "pitch": 73, "duration": 2, "velocity": 93}, {"time": 3440, "pitch": 74, "duration": 3, "velocity": 102}, {"time": 3443, "pitch": 73, "duration": 2, "velocity": 93}, {"time": 3446, "pitch": 74, "duration": 3, "velocity": 120}, {"time": 3449, "pitch": 73, "duration": 2, "velocity": 119}, {"time": 3452, "pitch": 74, "duration": 3, "velocity": 116}, {"time": 3458, "pitch": 78, "duration": 4, "velocity": 116}, {"time": 3464, "pitch": 73, "duration": 6, "velocity": 113}, {"time": 3482, "pitch": 73, "duration": 2, "velocity": 113}, {"time": 3485, "pitch": 74, "duration": 1, "velocity": 113}, {"time": 3488, "pitch": 76, "duration": 2, "velocity": 113}, {"time": 3491, "pitch": 74, "duration": 2, "velocity": 111}, {"time": 3494, "pitch": 73, "duration": 3, "velocity": 111}, {"time": 3497, "pitch": 74, "duration": 2, "velocity": 112}, {"time": 3500, "pitch": 76, "duration": 5, "velocity": 111}, {"time": 3509, "pitch": 76, "duration": 2, "velocity": 110}, {"time": 3512, "pitch": 74, "duration": 3, "velocity": 110}, {"time": 3515, "pitch": 73, "duration": 2, "velocity": 110}, {"time": 3518, "pitch": 71, "duration": 2, "velocity": 109}, {"time": 3521, "pitch": 73, "duration": 2, "velocity": 109}, {"time": 3524, "pitch": 74, "duration": 5, "velocity": 108}, {"time": 3533, "pitch": 74, "duration": 2, "velocity": 108}, {"time": 3536, "pitch": 73, "duration": 2, "velocity": 107}, {"time": 3539, "pitch": 71, "duration": 2, "velocity": 106}, {"time": 3542, "pitch": 69, "duration": 2, "velocity": 106}, {"time": 3545, "pitch": 71, "duration": 2, "velocity": 100}, {"time": 3548, "pitch": 73, "duration": 4, "velocity": 100}, {"time": 3554, "pitch": 78, "duration": 4, "velocity": 100}, {"time": 3560, "pitch": 76, "duration": 8, "velocity": 100}, {"time": 3572, "pitch": 69, "duration": 5, "velocity": 101}, {"time": 3578, "pitch": 71, "duration": 7, "velocity": 101}, {"time": 3584, "pitch": 73, "duration": 3, "velocity": 101}, {"time": 3587, "pitch": 71, "duration": 2, "velocity": 101}, {"time": 3590, "pitch": 73, "duration": 3, "velocity": 101}, {"time": 3593, "pitch": 71, "duration": 2, "velocity": 101}, {"time": 3596, "pitch": 73, "duration": 4, "velocity": 101}, {"time": 3602, "pitch": 76, "duration": 4, "velocity": 101}, {"time": 3608, "pitch": 71, "duration": 10, "velocity": 102}, {"time": 3626, "pitch": 71, "duration": 3, "velocity": 103}, {"time": 3629, "pitch": 73, "duration": 2, "velocity": 103}, {"time": 3632, "pitch": 74, "duration": 3, "velocity": 103}, {"time": 3635, "pitch": 73, "duration": 2, "velocity": 103}, {"time": 3638, "pitch": 74, "duration": 3, "velocity": 103}, {"time": 3641, "pitch": 73, "duration": 2, "velocity": 103}, {"time": 3644, "pitch": 74, "duration": 3, "velocity": 104}, {"time": 3650, "pitch": 78, "duration": 4, "velocity": 104}, {"time": 3656, "pitch": 73, "duration": 6, "velocity": 104}, {"time": 3674, "pitch": 73, "duration": 2, "velocity": 106}, {"time": 3677, "pitch": 74, "duration": 1, "velocity": 106}, {"time": 3680, "pitch": 76, "duration": 2, "velocity": 106}, {"time": 3683, "pitch": 74, "duration": 2, "velocity": 107}, {"time": 3686, "pitch": 73, "duration": 3, "velocity": 107}, {"time": 3689, "pitch": 74, "duration": 2, "velocity": 107}, {"time": 3692, "pitch": 76, "duration": 5, "velocity": 109}, {"time": 3701, "pitch": 76, "duration": 2, "velocity": 109}, {"time": 3704, "pitch": 74, "duration": 3, "velocity": 109}, {"time": 3707, "pitch": 73, "duration": 2, "velocity": 109}, {"time": 3710, "pitch": 71, "duration": 2, "velocity": 109}, {"time": 3713, "pitch": 73, "duration": 2, "velocity": 109}, {"time": 3716, "pitch": 74, "duration": 5, "velocity": 109}, {"time": 3725, "pitch": 74, "duration": 2, "velocity": 111}, {"time": 3728, "pitch": 73, "duration": 2, "velocity": 111}, {"time": 3731, "pitch": 71, "duration": 2, "velocity": 111}, {"time": 3734, "pitch": 69, "duration": 2, "velocity": 111}, {"time": 3737, "pitch": 71, "duration": 2, "velocity": 112}, {"time": 3740, "pitch": 73, "duration": 4, "velocity": 112}, {"time": 3746, "pitch": 78, "duration": 4, "velocity": 113}, {"time": 3752, "pitch": 76, "duration": 11, "velocity": 114}, {"time": 3764, "pitch": 69, "duration": 5, "velocity": 116}, {"time": 3770, "pitch": 71, "duration": 4, "velocity": 116}, {"time": 3776, "pitch": 73, "duration": 3, "velocity": 116}, {"time": 3779, "pitch": 71, "duration": 2, "velocity": 116}, {"time": 3782, "pitch": 73, "duration": 3, "velocity": 116}, {"time": 3785, "pitch": 71, "duration": 2, "velocity": 116}, {"time": 3788, "pitch": 73, "duration": 4, "velocity": 103}, {"time": 3794, "pitch": 76, "duration": 4, "velocity": 101}, {"time": 3800, "pitch": 71, "duration": 10, "velocity": 92}, {"time": 3818, "pitch": 71, "duration": 3, "velocity": 92}, {"time": 3821, "pitch": 73, "duration": 2, "velocity": 89}, {"time": 3824, "pitch": 74, "duration": 3, "velocity": 86}, {"time": 3827, "pitch": 73, "duration": 2, "velocity": 86}, {"time": 3830, "pitch": 74, "duration": 3, "velocity": 86}, {"time": 3833, "pitch": 73, "duration": 2, "velocity": 83}, {"time": 3836, "pitch": 74, "duration": 3, "velocity": 83}, {"time": 3842, "pitch": 78, "duration": 4, "velocity": 80}, {"time": 3848, "pitch": 73, "duration": 6, "velocity": 73}, {"time": 3866, "pitch": 73, "duration": 2, "velocity": 73}, {"time": 3869, "pitch": 74, "duration": 1, "velocity": 70}, {"time": 3872, "pitch": 76, "duration": 2, "velocity": 70}, {"time": 3875, "pitch": 74, "duration": 2, "velocity": 69}, {"time": 3878, "pitch": 73, "duration": 3, "velocity": 69}, {"time": 3881, "pitch": 74, "duration": 2, "velocity": 67}, {"time": 3884, "pitch": 76, "duration": 5, "velocity": 63}, {"time": 3893, "pitch": 76, "duration": 2, "velocity": 45}]}, {"program": 0, "is_drum": false, "name": "PIANO", "notes": [{"time": 32, "pitch": 43, "duration": 18, "velocity": 92}, {"time": 35, "pitch": 50, "duration": 15, "velocity": 89}, {"time": 38, "pitch": 55, "duration": 7, "velocity": 97}, {"time": 41, "pitch": 62, "duration": 5, "velocity": 95}, {"time": 44, "pitch": 71, "duration": 13, "velocity": 112}, {"time": 47, "pitch": 55, "duration": 2, "velocity": 96}, {"time": 50, "pitch": 62, "duration": 10, "velocity": 89}, {"time": 53, "pitch": 67, "duration": 4, "velocity": 85}, {"time": 56, "pitch": 42, "duration": 19, "velocity": 96}, {"time": 59, "pitch": 54, "duration": 9, "velocity": 92}, {"time": 62, "pitch": 62, "duration": 8, "velocity": 89}, {"time": 65, "pitch": 66, "duration": 4, "velocity": 117}, {"time": 68, "pitch": 71, "duration": 13, "velocity": 97}, {"time": 71, "pitch": 54, "duration": 2, "velocity": 76}, {"time": 74, "pitch": 66, "duration": 7, "velocity": 89}, {"time": 77, "pitch": 62, "duration": 4, "velocity": 99}, {"time": 80, "pitch": 45, "duration": 17, "velocity": 83}, {"time": 83, "pitch": 52, "duration": 10, "velocity": 73}, {"time": 86, "pitch": 57, "duration": 4, "velocity": 88}, {"time": 89, "pitch": 60, "duration": 3, "velocity": 93}, {"time": 92, "pitch": 64, "duration": 12, "velocity": 100}, {"time": 95, "pitch": 52, "duration": 2, "velocity": 93}, {"time": 98, "pitch": 60, "duration": 5, "velocity": 97}, {"time": 101, "pitch": 57, "duration": 3, "velocity": 97}, {"time": 104, "pitch": 40, "duration": 16, "velocity": 76}, {"time": 107, "pitch": 47, "duration": 14, "velocity": 95}, {"time": 110, "pitch": 52, "duration": 7, "velocity": 88}, {"time": 113, "pitch": 59, "duration": 7, "velocity": 92}, {"time": 116, "pitch": 67, "duration": 12, "velocity": 117}, {"time": 119, "pitch": 52, "duration": 4, "velocity": 82}, {"time": 122, "pitch": 64, "duration": 4, "velocity": 97}, {"time": 125, "pitch": 59, "duration": 4, "velocity": 88}, {"time": 128, "pitch": 47, "duration": 21, "velocity": 81}, {"time": 131, "pitch": 54, "duration": 11, "velocity": 92}, {"time": 134, "pitch": 59, "duration": 8, "velocity": 74}, {"time": 137, "pitch": 62, "duration": 4, "velocity": 92}, {"time": 140, "pitch": 66, "duration": 12, "velocity": 127}, {"time": 143, "pitch": 54, "duration": 3, "velocity": 102}, {"time": 146, "pitch": 62, "duration": 6, "velocity": 102}, {"time": 149, "pitch": 59, "duration": 3, "velocity": 95}, {"time": 152, "pitch": 45, "duration": 18, "velocity": 89}, {"time": 155, "pitch": 52, "duration": 10, "velocity": 99}, {"time": 158, "pitch": 57, "duration": 4, "velocity": 88}, {"time": 161, "pitch": 60, "duration": 4, "velocity": 99}, {"time": 164, "pitch": 64, "duration": 11, "velocity": 100}, {"time": 167, "pitch": 52, "duration": 3, "velocity": 90}, {"time": 170, "pitch": 60, "duration": 5, "velocity": 117}, {"time": 173, "pitch": 57, "duration": 4, "velocity": 96}, {"time": 176, "pitch": 38, "duration": 21, "velocity": 74}, {"time": 179, "pitch": 45, "duration": 21, "velocity": 90}, {"time": 182, "pitch": 50, "duration": 7, "velocity": 89}, {"time": 185, "pitch": 57, "duration": 5, "velocity": 78}, {"time": 188, "pitch": 66, "duration": 9, "velocity": 112}, {"time": 191, "pitch": 50, "duration": 3, "velocity": 96}, {"time": 194, "pitch": 57, "duration": 5, "velocity": 93}, {"time": 197, "pitch": 62, "duration": 2, "velocity": 69}, {"time": 200, "pitch": 38, "duration": 23, "velocity": 97}, {"time": 206, "pitch": 45, "duration": 18, "velocity": 63}, {"time": 212, "pitch": 50, "duration": 11, "velocity": 89}, {"time": 218, "pitch": 57, "duration": 37, "velocity": 77}, {"time": 224, "pitch": 38, "duration": 26, "velocity": 57}, {"time": 224, "pitch": 45, "duration": 27, "velocity": 65}, {"time": 224, "pitch": 50, "duration": 26, "velocity": 57}, {"time": 224, "pitch": 62, "duration": 30, "velocity": 75}, {"time": 224, "pitch": 66, "duration": 31, "velocity": 88}, {"time": 272, "pitch": 43, "duration": 18, "velocity": 74}, {"time": 278, "pitch": 50, "duration": 12, "velocity": 35}, {"time": 284, "pitch": 55, "duration": 6, "velocity": 85}, {"time": 290, "pitch": 67, "duration": 15, "velocity": 77}, {"time": 296, "pitch": 42, "duration": 16, "velocity": 85}, {"time": 302, "pitch": 54, "duration": 7, "velocity": 61}, {"time": 308, "pitch": 67, "duration": 13, "velocity": 93}, {"time": 314, "pitch": 62, "duration": 5, "velocity": 76}, {"time": 317, "pitch": 59, "duration": 5, "velocity": 85}, {"time": 320, "pitch": 40, "duration": 18, "velocity": 66}, {"time": 326, "pitch": 47, "duration": 11, "velocity": 53}, {"time": 332, "pitch": 52, "duration": 3, "velocity": 59}, {"time": 332, "pitch": 67, "duration": 13, "velocity": 92}, {"time": 338, "pitch": 64, "duration": 6, "velocity": 72}, {"time": 344, "pitch": 38, "duration": 19, "velocity": 73}, {"time": 350, "pitch": 45, "duration": 12, "velocity": 46}, {"time": 356, "pitch": 50, "duration": 5, "velocity": 63}, {"time": 356, "pitch": 66, "duration": 13, "velocity": 102}, {"time": 362, "pitch": 62, "duration": 7, "velocity": 79}, {"time": 368, "pitch": 36, "duration": 17, "velocity": 76}, {"time": 374, "pitch": 43, "duration": 11, "velocity": 58}, {"time": 380, "pitch": 48, "duration": 7, "velocity": 58}, {"time": 380, "pitch": 64, "duration": 12, "velocity": 85}, {"time": 386, "pitch": 60, "duration": 7, "velocity": 85}, {"time": 392, "pitch": 47, "duration": 16, "velocity": 74}, {"time": 398, "pitch": 54, "duration": 10, "velocity": 58}, {"time": 404, "pitch": 66, "duration": 12, "velocity": 100}, {"time": 410, "pitch": 62, "duration": 6, "velocity": 77}, {"time": 416, "pitch": 45, "duration": 14, "velocity": 74}, {"time": 422, "pitch": 52, "duration": 7, "velocity": 58}, {"time": 428, "pitch": 64, "duration": 11, "velocity": 99}, {"time": 434, "pitch": 60, "duration": 5, "velocity": 79}, {"time": 437, "pitch": 57, "duration": 4, "velocity": 83}, {"time": 440, "pitch": 38, "duration": 17, "velocity": 78}, {"time": 443, "pitch": 45, "duration": 15, "velocity": 71}, {"time": 446, "pitch": 50, "duration": 8, "velocity": 75}, {"time": 449, "pitch": 57, "duration": 5, "velocity": 85}, {"time": 452, "pitch": 66, "duration": 12, "velocity": 117}, {"time": 455, "pitch": 50, "duration": 6, "velocity": 69}, {"time": 458, "pitch": 62, "duration": 6, "velocity": 78}, {"time": 461, "pitch": 57, "duration": 3, "velocity": 79}, {"time": 464, "pitch": 43, "duration": 16, "velocity": 70}, {"time": 470, "pitch": 50, "duration": 10, "velocity": 56}, {"time": 476, "pitch": 55, "duration": 4, "velocity": 67}, {"time": 476, "pitch": 71, "duration": 14, "velocity": 96}, {"time": 482, "pitch": 62, "duration": 7, "velocity": 96}, {"time": 488, "pitch": 42, "duration": 17, "velocity": 85}, {"time": 494, "pitch": 54, "duration": 7, "velocity": 48}, {"time": 500, "pitch": 66, "duration": 12, "velocity": 90}, {"time": 500, "pitch": 71, "duration": 12, "velocity": 82}, {"time": 506, "pitch": 62, "duration": 7, "velocity": 73}, {"time": 512, "pitch": 40, "duration": 19, "velocity": 69}, {"time": 518, "pitch": 47, "duration": 10, "velocity": 60}, {"time": 524, "pitch": 52, "duration": 4, "velocity": 68}, {"time": 524, "pitch": 67, "duration": 12, "velocity": 96}, {"time": 530, "pitch": 64, "duration": 6, "velocity": 82}, {"time": 536, "pitch": 38, "duration": 15, "velocity": 70}, {"time": 542, "pitch": 45, "duration": 8, "velocity": 59}, {"time": 548, "pitch": 66, "duration": 10, "velocity": 102}, {"time": 554, "pitch": 62, "duration": 7, "velocity": 62}, {"time": 560, "pitch": 36, "duration": 16, "velocity": 75}, {"time": 566, "pitch": 43, "duration": 9, "velocity": 41}, {"time": 572, "pitch": 48, "duration": 6, "velocity": 52}, {"time": 572, "pitch": 67, "duration": 11, "velocity": 96}, {"time": 578, "pitch": 60, "duration": 7, "velocity": 90}, {"time": 584, "pitch": 47, "duration": 24, "velocity": 78}, {"time": 590, "pitch": 59, "duration": 7, "velocity": 69}, {"time": 596, "pitch": 62, "duration": 7, "velocity": 65}, {"time": 596, "pitch": 66, "duration": 7, "velocity": 107}, {"time": 602, "pitch": 59, "duration": 4, "velocity": 70}, {"time": 608, "pitch": 45, "duration": 4, "velocity": 89}, {"time": 608, "pitch": 57, "duration": 4, "velocity": 86}, {"time": 608, "pitch": 60, "duration": 4, "velocity": 75}, {"time": 608, "pitch": 64, "duration": 4, "velocity": 78}, {"time": 617, "pitch": 50, "duration": 6, "velocity": 78}, {"time": 617, "pitch": 57, "duration": 6, "velocity": 75}, {"time": 617, "pitch": 62, "duration": 6, "velocity": 86}, {"time": 617, "pitch": 66, "duration": 6, "velocity": 86}, {"time": 632, "pitch": 43, "duration": 44, "velocity": 70}, {"time": 632, "pitch": 59, "duration": 19, "velocity": 72}, {"time": 632, "pitch": 62, "duration": 16, "velocity": 69}, {"time": 638, "pitch": 50, "duration": 40, "velocity": 59}, {"time": 644, "pitch": 55, "duration": 7, "velocity": 85}, {"time": 650, "pitch": 57, "duration": 8, "velocity": 78}, {"time": 656, "pitch": 59, "duration": 19, "velocity": 74}, {"time": 656, "pitch": 62, "duration": 19, "velocity": 83}, {"time": 680, "pitch": 43, "duration": 17, "velocity": 90}, {"time": 683, "pitch": 50, "duration": 14, "velocity": 72}, {"time": 686, "pitch": 55, "duration": 7, "velocity": 96}, {"time": 689, "pitch": 62, "duration": 5, "velocity": 95}, {"time": 692, "pitch": 71, "duration": 14, "velocity": 112}, {"time": 695, "pitch": 55, "duration": 2, "velocity": 92}, {"time": 698, "pitch": 62, "duration": 8, "velocity": 76}, {"time": 701, "pitch": 67, "duration": 3, "velocity": 86}, {"time": 704, "pitch": 42, "duration": 18, "velocity": 100}, {"time": 707, "pitch": 54, "duration": 11, "velocity": 85}, {"time": 710, "pitch": 62, "duration": 8, "velocity": 86}, {"time": 713, "pitch": 66, "duration": 4, "velocity": 97}, {"time": 716, "pitch": 71, "duration": 12, "velocity": 107}, {"time": 719, "pitch": 54, "duration": 3, "velocity": 83}, {"time": 722, "pitch": 66, "duration": 6, "velocity": 92}, {"time": 725, "pitch": 62, "duration": 3, "velocity": 97}, {"time": 728, "pitch": 45, "duration": 17, "velocity": 83}, {"time": 731, "pitch": 52, "duration": 10, "velocity": 77}, {"time": 734, "pitch": 57, "duration": 4, "velocity": 97}, {"time": 737, "pitch": 60, "duration": 3, "velocity": 82}, {"time": 740, "pitch": 64, "duration": 11, "velocity": 100}, {"time": 743, "pitch": 52, "duration": 2, "velocity": 78}, {"time": 746, "pitch": 60, "duration": 5, "velocity": 99}, {"time": 749, "pitch": 57, "duration": 3, "velocity": 89}, {"time": 752, "pitch": 40, "duration": 18, "velocity": 79}, {"time": 755, "pitch": 47, "duration": 16, "velocity": 79}, {"time": 758, "pitch": 52, "duration": 8, "velocity": 82}, {"time": 761, "pitch": 59, "duration": 5, "velocity": 81}, {"time": 764, "pitch": 67, "duration": 12, "velocity": 107}, {"time": 767, "pitch": 52, "duration": 5, "velocity": 82}, {"time": 770, "pitch": 64, "duration": 4, "velocity": 92}, {"time": 773, "pitch": 59, "duration": 4, "velocity": 89}, {"time": 776, "pitch": 47, "duration": 19, "velocity": 82}, {"time": 779, "pitch": 54, "duration": 10, "velocity": 92}, {"time": 782, "pitch": 59, "duration": 7, "velocity": 79}, {"time": 785, "pitch": 62, "duration": 3, "velocity": 102}, {"time": 788, "pitch": 66, "duration": 11, "velocity": 127}, {"time": 791, "pitch": 54, "duration": 4, "velocity": 95}, {"time": 794, "pitch": 62, "duration": 5, "velocity": 99}, {"time": 797, "pitch": 59, "duration": 3, "velocity": 90}, {"time": 797, "pitch": 60, "duration": 2, "velocity": 78}, {"time": 800, "pitch": 45, "duration": 18, "velocity": 70}, {"time": 803, "pitch": 52, "duration": 10, "velocity": 65}, {"time": 806, "pitch": 57, "duration": 4, "velocity": 89}, {"time": 809, "pitch": 60, "duration": 3, "velocity": 99}, {"time": 812, "pitch": 64, "duration": 10, "velocity": 102}, {"time": 815, "pitch": 52, "duration": 2, "velocity": 79}, {"time": 818, "pitch": 60, "duration": 4, "velocity": 92}, {"time": 821, "pitch": 57, "duration": 4, "velocity": 88}, {"time": 824, "pitch": 38, "duration": 22, "velocity": 72}, {"time": 827, "pitch": 45, "duration": 21, "velocity": 85}, {"time": 830, "pitch": 50, "duration": 7, "velocity": 82}, {"time": 833, "pitch": 57, "duration": 5, "velocity": 89}, {"time": 836, "pitch": 66, "duration": 14, "velocity": 127}, {"time": 839, "pitch": 50, "duration": 3, "velocity": 93}, {"time": 842, "pitch": 62, "duration": 7, "velocity": 99}, {"time": 845, "pitch": 57, "duration": 4, "velocity": 97}, {"time": 848, "pitch": 38, "duration": 18, "velocity": 86}, {"time": 851, "pitch": 45, "duration": 15, "velocity": 99}, {"time": 854, "pitch": 50, "duration": 8, "velocity": 100}, {"time": 857, "pitch": 57, "duration": 6, "velocity": 112}, {"time": 860, "pitch": 66, "duration": 12, "velocity": 127}, {"time": 863, "pitch": 50, "duration": 9, "velocity": 99}, {"time": 866, "pitch": 62, "duration": 6, "velocity": 122}, {"time": 869, "pitch": 57, "duration": 3, "velocity": 100}, {"time": 872, "pitch": 43, "duration": 17, "velocity": 83}, {"time": 875, "pitch": 50, "duration": 13, "velocity": 85}, {"time": 878, "pitch": 55, "duration": 7, "velocity": 93}, {"time": 881, "pitch": 62, "duration": 5, "velocity": 93}, {"time": 884, "pitch": 71, "duration": 12, "velocity": 122}, {"time": 887, "pitch": 55, "duration": 2, "velocity": 90}, {"time": 890, "pitch": 67, "duration": 4, "velocity": 100}, {"time": 893, "pitch": 62, "duration": 4, "velocity": 100}, {"time": 896, "pitch": 42, "duration": 17, "velocity": 99}, {"time": 899, "pitch": 54, "duration": 11, "velocity": 89}, {"time": 902, "pitch": 62, "duration": 8, "velocity": 83}, {"time": 905, "pitch": 66, "duration": 4, "velocity": 99}, {"time": 908, "pitch": 71, "duration": 12, "velocity": 100}, {"time": 911, "pitch": 54, "duration": 4, "velocity": 95}, {"time": 914, "pitch": 66, "duration": 6, "velocity": 112}, {"time": 917, "pitch": 62, "duration": 4, "velocity": 97}, {"time": 920, "pitch": 45, "duration": 18, "velocity": 79}, {"time": 923, "pitch": 52, "duration": 11, "velocity": 69}, {"time": 926, "pitch": 57, "duration": 4, "velocity": 89}, {"time": 929, "pitch": 60, "duration": 3, "velocity": 100}, {"time": 932, "pitch": 64, "duration": 12, "velocity": 97}, {"time": 935, "pitch": 52, "duration": 2, "velocity": 66}, {"time": 938, "pitch": 60, "duration": 5, "velocity": 99}, {"time": 941, "pitch": 57, "duration": 3, "velocity": 89}, {"time": 944, "pitch": 40, "duration": 17, "velocity": 72}, {"time": 947, "pitch": 47, "duration": 15, "velocity": 82}, {"time": 950, "pitch": 52, "duration": 8, "velocity": 76}, {"time": 953, "pitch": 59, "duration": 5, "velocity": 78}, {"time": 956, "pitch": 67, "duration": 11, "velocity": 117}, {"time": 959, "pitch": 52, "duration": 5, "velocity": 83}, {"time": 962, "pitch": 64, "duration": 5, "velocity": 96}, {"time": 965, "pitch": 59, "duration": 4, "velocity": 89}, {"time": 968, "pitch": 47, "duration": 19, "velocity": 83}, {"time": 971, "pitch": 54, "duration": 11, "velocity": 82}, {"time": 974, "pitch": 59, "duration": 7, "velocity": 71}, {"time": 977, "pitch": 62, "duration": 3, "velocity": 99}, {"time": 980, "pitch": 66, "duration": 11, "velocity": 127}, {"time": 983, "pitch": 54, "duration": 3, "velocity": 93}, {"time": 986, "pitch": 62, "duration": 5, "velocity": 100}, {"time": 989, "pitch": 59, "duration": 4, "velocity": 97}, {"time": 992, "pitch": 45, "duration": 18, "velocity": 77}, {"time": 995, "pitch": 52, "duration": 10, "velocity": 56}, {"time": 998, "pitch": 57, "duration": 7, "velocity": 89}, {"time": 1001, "pitch": 60, "duration": 3, "velocity": 93}, {"time": 1004, "pitch": 64, "duration": 11, "velocity": 102}, {"time": 1007, "pitch": 52, "duration": 3, "velocity": 88}, {"time": 1010, "pitch": 60, "duration": 4, "velocity": 102}, {"time": 1013, "pitch": 57, "duration": 4, "velocity": 95}, {"time": 1016, "pitch": 38, "duration": 22, "velocity": 73}, {"time": 1019, "pitch": 45, "duration": 21, "velocity": 66}, {"time": 1022, "pitch": 50, "duration": 7, "velocity": 83}, {"time": 1025, "pitch": 57, "duration": 6, "velocity": 77}, {"time": 1028, "pitch": 66, "duration": 9, "velocity": 122}, {"time": 1031, "pitch": 50, "duration": 3, "velocity": 77}, {"time": 1034, "pitch": 62, "duration": 5, "velocity": 97}, {"time": 1037, "pitch": 57, "duration": 10, "velocity": 83}, {"time": 1040, "pitch": 38, "duration": 22, "velocity": 89}, {"time": 1043, "pitch": 45, "duration": 21, "velocity": 72}, {"time": 1046, "pitch": 50, "duration": 7, "velocity": 78}, {"time": 1049, "pitch": 57, "duration": 6, "velocity": 81}, {"time": 1052, "pitch": 62, "duration": 3, "velocity": 79}, {"time": 1052, "pitch": 66, "duration": 8, "velocity": 127}, {"time": 1055, "pitch": 50, "duration": 3, "velocity": 90}, {"time": 1058, "pitch": 57, "duration": 4, "velocity": 102}, {"time": 1064, "pitch": 40, "duration": 15, "velocity": 66}, {"time": 1064, "pitch": 47, "duration": 15, "velocity": 81}, {"time": 1064, "pitch": 52, "duration": 6, "velocity": 92}, {"time": 1064, "pitch": 59, "duration": 10, "velocity": 93}, {"time": 1064, "pitch": 64, "duration": 10, "velocity": 100}, {"time": 1064, "pitch": 68, "duration": 10, "velocity": 112}, {"time": 1073, "pitch": 52, "duration": 7, "velocity": 77}, {"time": 1076, "pitch": 64, "duration": 4, "velocity": 117}, {"time": 1076, "pitch": 68, "duration": 4, "velocity": 127}, {"time": 1079, "pitch": 59, "duration": 2, "velocity": 96}, {"time": 1082, "pitch": 40, "duration": 20, "velocity": 72}, {"time": 1082, "pitch": 47, "duration": 20, "velocity": 88}, {"time": 1082, "pitch": 52, "duration": 19, "velocity": 95}, {"time": 1082, "pitch": 59, "duration": 15, "velocity": 99}, {"time": 1082, "pitch": 64, "duration": 16, "velocity": 99}, {"time": 1082, "pitch": 68, "duration": 16, "velocity": 112}, {"time": 1100, "pitch": 64, "duration": 10, "velocity": 127}, {"time": 1100, "pitch": 68, "duration": 10, "velocity": 127}, {"time": 1103, "pitch": 40, "duration": 7, "velocity": 47}, {"time": 1103, "pitch": 47, "duration": 7, "velocity": 69}, {"time": 1103, "pitch": 52, "duration": 7, "velocity": 86}, {"time": 1106, "pitch": 59, "duration": 4, "velocity": 93}, {"time": 1112, "pitch": 47, "duration": 16, "velocity": 77}, {"time": 1112, "pitch": 54, "duration": 7, "velocity": 112}, {"time": 1112, "pitch": 59, "duration": 10, "velocity": 102}, {"time": 1112, "pitch": 63, "duration": 10, "velocity": 127}, {"time": 1112, "pitch": 66, "duration": 10, "velocity": 112}, {"time": 1118, "pitch": 54, "duration": 1, "velocity": 117}, {"time": 1124, "pitch": 59, "duration": 18, "velocity": 97}, {"time": 1124, "pitch": 63, "duration": 4, "velocity": 127}, {"time": 1124, "pitch": 66, "duration": 4, "velocity": 127}, {"time": 1130, "pitch": 47, "duration": 24, "velocity": 76}, {"time": 1130, "pitch": 54, "duration": 19, "velocity": 127}, {"time": 1130, "pitch": 63, "duration": 15, "velocity": 127}, {"time": 1130, "pitch": 66, "duration": 14, "velocity": 127}, {"time": 1148, "pitch": 54, "duration": 1, "velocity": 82}, {"time": 1148, "pitch": 63, "duration": 7, "velocity": 127}, {"time": 1148, "pitch": 66, "duration": 8, "velocity": 127}, {"time": 1154, "pitch": 59, "duration": 4, "velocity": 117}, {"time": 1154, "pitch": 63, "duration": 1, "velocity": 38}, {"time": 1160, "pitch": 36, "duration": 17, "velocity": 100}, {"time": 1160, "pitch": 60, "duration": 10, "velocity": 107}, {"time": 1160, "pitch": 64, "duration": 10, "velocity": 102}, {"time": 1160, "pitch": 67, "duration": 10, "velocity": 96}, {"time": 1166, "pitch": 43, "duration": 8, "velocity": 72}, {"time": 1166, "pitch": 48, "duration": 8, "velocity": 73}, {"time": 1172, "pitch": 60, "duration": 2, "velocity": 96}, {"time": 1172, "pitch": 64, "duration": 4, "velocity": 112}, {"time": 1172, "pitch": 67, "duration": 4, "velocity": 112}, {"time": 1178, "pitch": 36, "duration": 24, "velocity": 75}, {"time": 1178, "pitch": 43, "duration": 25, "velocity": 90}, {"time": 1178, "pitch": 48, "duration": 20, "velocity": 99}, {"time": 1178, "pitch": 60, "duration": 14, "velocity": 107}, {"time": 1178, "pitch": 64, "duration": 14, "velocity": 117}, {"time": 1178, "pitch": 67, "duration": 14, "velocity": 100}, {"time": 1196, "pitch": 48, "duration": 2, "velocity": 46}, {"time": 1196, "pitch": 64, "duration": 9, "velocity": 127}, {"time": 1196, "pitch": 66, "duration": 1, "velocity": 99}, {"time": 1196, "pitch": 67, "duration": 10, "velocity": 127}, {"time": 1202, "pitch": 60, "duration": 4, "velocity": 96}, {"time": 1208, "pitch": 40, "duration": 16, "velocity": 93}, {"time": 1208, "pitch": 59, "duration": 10, "velocity": 97}, {"time": 1208, "pitch": 64, "duration": 10, "velocity": 122}, {"time": 1208, "pitch": 68, "duration": 10, "velocity": 122}, {"time": 1214, "pitch": 47, "duration": 7, "velocity": 82}, {"time": 1214, "pitch": 52, "duration": 6, "velocity": 92}, {"time": 1220, "pitch": 59, "duration": 18, "velocity": 99}, {"time": 1220, "pitch": 64, "duration": 4, "velocity": 127}, {"time": 1220, "pitch": 68, "duration": 4, "velocity": 127}, {"time": 1226, "pitch": 40, "duration": 25, "velocity": 75}, {"time": 1226, "pitch": 47, "duration": 25, "velocity": 97}, {"time": 1226, "pitch": 52, "duration": 20, "velocity": 100}, {"time": 1226, "pitch": 64, "duration": 16, "velocity": 122}, {"time": 1226, "pitch": 68, "duration": 16, "velocity": 127}, {"time": 1244, "pitch": 52, "duration": 2, "velocity": 83}, {"time": 1244, "pitch": 64, "duration": 11, "velocity": 127}, {"time": 1244, "pitch": 68, "duration": 11, "velocity": 127}, {"time": 1250, "pitch": 59, "duration": 5, "velocity": 122}, {"time": 1256, "pitch": 40, "duration": 17, "velocity": 75}, {"time": 1256, "pitch": 47, "duration": 18, "velocity": 88}, {"time": 1256, "pitch": 52, "duration": 8, "velocity": 99}, {"time": 1256, "pitch": 59, "duration": 11, "velocity": 99}, {"time": 1256, "pitch": 64, "duration": 11, "velocity": 112}, {"time": 1256, "pitch": 68, "duration": 11, "velocity": 122}, {"time": 1268, "pitch": 52, "duration": 4, "velocity": 86}, {"time": 1268, "pitch": 64, "duration": 5, "velocity": 107}, {"time": 1268, "pitch": 68, "duration": 5, "velocity": 127}, {"time": 1274, "pitch": 40, "duration": 28, "velocity": 78}, {"time": 1274, "pitch": 47, "duration": 30, "velocity": 95}, {"time": 1274, "pitch": 52, "duration": 2, "velocity": 95}, {"time": 1274, "pitch": 52, "duration": 2, "velocity": 112}, {"time": 1274, "pitch": 59, "duration": 16, "velocity": 112}, {"time": 1274, "pitch": 64, "duration": 17, "velocity": 99}, {"time": 1274, "pitch": 68, "duration": 16, "velocity": 127}, {"time": 1286, "pitch": 52, "duration": 6, "velocity": 61}, {"time": 1292, "pitch": 64, "duration": 7, "velocity": 107}, {"time": 1292, "pitch": 68, "duration": 7, "velocity": 127}, {"time": 1298, "pitch": 52, "duration": 3, "velocity": 97}, {"time": 1298, "pitch": 59, "duration": 4, "velocity": 97}, {"time": 1304, "pitch": 41, "duration": 16, "velocity": 95}, {"time": 1304, "pitch": 60, "duration": 10, "velocity": 117}, {"time": 1304, "pitch": 65, "duration": 10, "velocity": 117}, {"time": 1304, "pitch": 69, "duration": 10, "velocity": 117}, {"time": 1316, "pitch": 48, "duration": 8, "velocity": 88}, {"time": 1316, "pitch": 53, "duration": 7, "velocity": 92}, {"time": 1316, "pitch": 65, "duration": 4, "velocity": 127}, {"time": 1316, "pitch": 69, "duration": 4, "velocity": 117}, {"time": 1322, "pitch": 41, "duration": 24, "velocity": 71}, {"time": 1322, "pitch": 48, "duration": 2, "velocity": 86}, {"time": 1322, "pitch": 53, "duration": 1, "velocity": 90}, {"time": 1322, "pitch": 60, "duration": 2, "velocity": 75}, {"time": 1322, "pitch": 60, "duration": 2, "velocity": 102}, {"time": 1322, "pitch": 65, "duration": 16, "velocity": 127}, {"time": 1322, "pitch": 69, "duration": 16, "velocity": 107}, {"time": 1340, "pitch": 53, "duration": 5, "velocity": 54}, {"time": 1340, "pitch": 65, "duration": 7, "velocity": 127}, {"time": 1340, "pitch": 69, "duration": 7, "velocity": 122}, {"time": 1346, "pitch": 53, "duration": 3, "velocity": 100}, {"time": 1346, "pitch": 60, "duration": 4, "velocity": 112}, {"time": 1352, "pitch": 40, "duration": 16, "velocity": 66}, {"time": 1352, "pitch": 47, "duration": 16, "velocity": 69}, {"time": 1352, "pitch": 52, "duration": 6, "velocity": 100}, {"time": 1352, "pitch": 59, "duration": 10, "velocity": 122}, {"time": 1352, "pitch": 64, "duration": 10, "velocity": 97}, {"time": 1352, "pitch": 68, "duration": 10, "velocity": 112}, {"time": 1358, "pitch": 52, "duration": 7, "velocity": 107}, {"time": 1364, "pitch": 59, "duration": 2, "velocity": 100}, {"time": 1364, "pitch": 64, "duration": 4, "velocity": 127}, {"time": 1364, "pitch": 68, "duration": 4, "velocity": 122}, {"time": 1367, "pitch": 40, "duration": 1, "velocity": 66}, {"time": 1367, "pitch": 47, "duration": 1, "velocity": 82}, {"time": 1367, "pitch": 52, "duration": 11, "velocity": 95}, {"time": 1367, "pitch": 59, "duration": 16, "velocity": 100}, {"time": 1367, "pitch": 64, "duration": 1, "velocity": 122}, {"time": 1367, "pitch": 68, "duration": 1, "velocity": 127}, {"time": 1382, "pitch": 52, "duration": 5, "velocity": 65}, {"time": 1388, "pitch": 64, "duration": 7, "velocity": 107}, {"time": 1388, "pitch": 68, "duration": 7, "velocity": 122}, {"time": 1391, "pitch": 52, "duration": 3, "velocity": 95}, {"time": 1394, "pitch": 59, "duration": 4, "velocity": 102}, {"time": 1397, "pitch": 60, "duration": 11, "velocity": 100}, {"time": 1397, "pitch": 65, "duration": 10, "velocity": 112}, {"time": 1400, "pitch": 41, "duration": 16, "velocity": 96}, {"time": 1400, "pitch": 69, "duration": 10, "velocity": 102}, {"time": 1409, "pitch": 48, "duration": 7, "velocity": 81}, {"time": 1412, "pitch": 60, "duration": 2, "velocity": 102}, {"time": 1412, "pitch": 65, "duration": 4, "velocity": 122}, {"time": 1412, "pitch": 69, "duration": 3, "velocity": 117}, {"time": 1418, "pitch": 41, "duration": 24, "velocity": 72}, {"time": 1418, "pitch": 48, "duration": 24, "velocity": 79}, {"time": 1418, "pitch": 53, "duration": 10, "velocity": 102}, {"time": 1418, "pitch": 60, "duration": 16, "velocity": 102}, {"time": 1418, "pitch": 65, "duration": 16, "velocity": 112}, {"time": 1418, "pitch": 69, "duration": 16, "velocity": 100}, {"time": 1427, "pitch": 53, "duration": 1, "velocity": 73}, {"time": 1436, "pitch": 65, "duration": 7, "velocity": 127}, {"time": 1436, "pitch": 69, "duration": 8, "velocity": 127}, {"time": 1439, "pitch": 53, "duration": 2, "velocity": 93}, {"time": 1442, "pitch": 60, "duration": 4, "velocity": 122}, {"time": 1448, "pitch": 38, "duration": 89, "velocity": 72}, {"time": 1448, "pitch": 45, "duration": 88, "velocity": 95}, {"time": 1448, "pitch": 50, "duration": 88, "velocity": 107}, {"time": 1448, "pitch": 62, "duration": 88, "velocity": 117}, {"time": 1448, "pitch": 66, "duration": 88, "velocity": 127}, {"time": 1448, "pitch": 69, "duration": 88, "velocity": 102}, {"time": 1544, "pitch": 43, "duration": 18, "velocity": 74}, {"time": 1550, "pitch": 50, "duration": 12, "velocity": 35}, {"time": 1556, "pitch": 55, "duration": 6, "velocity": 85}, {"time": 1562, "pitch": 67, "duration": 15, "velocity": 77}, {"time": 1568, "pitch": 42, "duration": 16, "velocity": 85}, {"time": 1574, "pitch": 54, "duration": 7, "velocity": 61}, {"time": 1580, "pitch": 67, "duration": 13, "velocity": 93}, {"time": 1586, "pitch": 62, "duration": 5, "velocity": 76}, {"time": 1589, "pitch": 59, "duration": 5, "velocity": 85}, {"time": 1592, "pitch": 40, "duration": 18, "velocity": 66}, {"time": 1598, "pitch": 47, "duration": 11, "velocity": 53}, {"time": 1604, "pitch": 52, "duration": 3, "velocity": 59}, {"time": 1604, "pitch": 67, "duration": 13, "velocity": 92}, {"time": 1610, "pitch": 64, "duration": 6, "velocity": 72}, {"time": 1616, "pitch": 38, "duration": 19, "velocity": 73}, {"time": 1622, "pitch": 45, "duration": 12, "velocity": 46}, {"time": 1628, "pitch": 50, "duration": 5, "velocity": 63}, {"time": 1628, "pitch": 66, "duration": 13, "velocity": 102}, {"time": 1634, "pitch": 62, "duration": 7, "velocity": 79}, {"time": 1640, "pitch": 36, "duration": 17, "velocity": 76}, {"time": 1646, "pitch": 43, "duration": 11, "velocity": 58}, {"time": 1652, "pitch": 48, "duration": 7, "velocity": 58}, {"time": 1652, "pitch": 64, "duration": 12, "velocity": 85}, {"time": 1658, "pitch": 60, "duration": 7, "velocity": 85}, {"time": 1664, "pitch": 47, "duration": 16, "velocity": 74}, {"time": 1670, "pitch": 54, "duration": 10, "velocity": 58}, {"time": 1676, "pitch": 66, "duration": 12, "velocity": 100}, {"time": 1682, "pitch": 62, "duration": 6, "velocity": 77}, {"time": 1688, "pitch": 45, "duration": 14, "velocity": 74}, {"time": 1694, "pitch": 52, "duration": 7, "velocity": 58}, {"time": 1700, "pitch": 64, "duration": 11, "velocity": 99}, {"time": 1706, "pitch": 60, "duration": 5, "velocity": 79}, {"time": 1709, "pitch": 57, "duration": 4, "velocity": 83}, {"time": 1712, "pitch": 38, "duration": 17, "velocity": 78}, {"time": 1715, "pitch": 45, "duration": 15, "velocity": 71}, {"time": 1718, "pitch": 50, "duration": 8, "velocity": 75}, {"time": 1721, "pitch": 57, "duration": 5, "velocity": 85}, {"time": 1724, "pitch": 66, "duration": 12, "velocity": 117}, {"time": 1727, "pitch": 50, "duration": 6, "velocity": 69}, {"time": 1730, "pitch": 62, "duration": 6, "velocity": 78}, {"time": 1733, "pitch": 57, "duration": 3, "velocity": 79}, {"time": 1736, "pitch": 43, "duration": 16, "velocity": 70}, {"time": 1742, "pitch": 50, "duration": 10, "velocity": 56}, {"time": 1748, "pitch": 55, "duration": 4, "velocity": 67}, {"time": 1748, "pitch": 71, "duration": 14, "velocity": 96}, {"time": 1754, "pitch": 62, "duration": 7, "velocity": 96}, {"time": 1760, "pitch": 42, "duration": 17, "velocity": 85}, {"time": 1766, "pitch": 54, "duration": 7, "velocity": 48}, {"time": 1772, "pitch": 66, "duration": 12, "velocity": 90}, {"time": 1772, "pitch": 71, "duration": 12, "velocity": 82}, {"time": 1778, "pitch": 62, "duration": 7, "velocity": 73}, {"time": 1784, "pitch": 40, "duration": 19, "velocity": 69}, {"time": 1790, "pitch": 47, "duration": 10, "velocity": 60}, {"time": 1796, "pitch": 52, "duration": 4, "velocity": 68}, {"time": 1796, "pitch": 67, "duration": 12, "velocity": 96}, {"time": 1802, "pitch": 64, "duration": 6, "velocity": 82}, {"time": 1808, "pitch": 38, "duration": 15, "velocity": 70}, {"time": 1814, "pitch": 45, "duration": 8, "velocity": 59}, {"time": 1820, "pitch": 66, "duration": 10, "velocity": 102}, {"time": 1826, "pitch": 62, "duration": 7, "velocity": 62}, {"time": 1832, "pitch": 36, "duration": 16, "velocity": 75}, {"time": 1838, "pitch": 43, "duration": 9, "velocity": 41}, {"time": 1844, "pitch": 48, "duration": 6, "velocity": 52}, {"time": 1844, "pitch": 67, "duration": 11, "velocity": 96}, {"time": 1850, "pitch": 60, "duration": 7, "velocity": 90}, {"time": 1856, "pitch": 47, "duration": 24, "velocity": 78}, {"time": 1862, "pitch": 59, "duration": 7, "velocity": 69}, {"time": 1868, "pitch": 62, "duration": 7, "velocity": 65}, {"time": 1868, "pitch": 66, "duration": 7, "velocity": 107}, {"time": 1874, "pitch": 59, "duration": 4, "velocity": 70}, {"time": 1880, "pitch": 45, "duration": 4, "velocity": 89}, {"time": 1880, "pitch": 57, "duration": 4, "velocity": 86}, {"time": 1880, "pitch": 60, "duration": 4, "velocity": 75}, {"time": 1880, "pitch": 64, "duration": 4, "velocity": 78}, {"time": 1889, "pitch": 50, "duration": 6, "velocity": 78}, {"time": 1889, "pitch": 57, "duration": 6, "velocity": 75}, {"time": 1889, "pitch": 62, "duration": 6, "velocity": 86}, {"time": 1889, "pitch": 66, "duration": 6, "velocity": 86}, {"time": 1904, "pitch": 43, "duration": 44, "velocity": 70}, {"time": 1904, "pitch": 59, "duration": 19, "velocity": 72}, {"time": 1904, "pitch": 62, "duration": 16, "velocity": 69}, {"time": 1910, "pitch": 50, "duration": 40, "velocity": 59}, {"time": 1916, "pitch": 55, "duration": 7, "velocity": 85}, {"time": 1922, "pitch": 57, "duration": 8, "velocity": 78}, {"time": 1928, "pitch": 59, "duration": 19, "velocity": 74}, {"time": 1928, "pitch": 62, "duration": 19, "velocity": 83}, {"time": 1952, "pitch": 43, "duration": 17, "velocity": 90}, {"time": 1955, "pitch": 50, "duration": 14, "velocity": 72}, {"time": 1958, "pitch": 55, "duration": 7, "velocity": 96}, {"time": 1961, "pitch": 62, "duration": 5, "velocity": 95}, {"time": 1964, "pitch": 71, "duration": 14, "velocity": 112}, {"time": 1967, "pitch": 55, "duration": 2, "velocity": 92}, {"time": 1970, "pitch": 62, "duration": 8, "velocity": 76}, {"time": 1973, "pitch": 67, "duration": 3, "velocity": 86}, {"time": 1976, "pitch": 42, "duration": 18, "velocity": 100}, {"time": 1979, "pitch": 54, "duration": 11, "velocity": 85}, {"time": 1982, "pitch": 62, "duration": 8, "velocity": 86}, {"time": 1985, "pitch": 66, "duration": 4, "velocity": 97}, {"time": 1988, "pitch": 71, "duration": 12, "velocity": 107}, {"time": 1991, "pitch": 54, "duration": 3, "velocity": 83}, {"time": 1994, "pitch": 66, "duration": 6, "velocity": 92}, {"time": 1997, "pitch": 62, "duration": 3, "velocity": 97}, {"time": 2000, "pitch": 45, "duration": 17, "velocity": 83}, {"time": 2003, "pitch": 52, "duration": 10, "velocity": 77}, {"time": 2006, "pitch": 57, "duration": 4, "velocity": 97}, {"time": 2009, "pitch": 60, "duration": 3, "velocity": 82}, {"time": 2012, "pitch": 64, "duration": 11, "velocity": 100}, {"time": 2015, "pitch": 52, "duration": 2, "velocity": 78}, {"time": 2018, "pitch": 60, "duration": 5, "velocity": 99}, {"time": 2021, "pitch": 57, "duration": 3, "velocity": 89}, {"time": 2024, "pitch": 40, "duration": 18, "velocity": 79}, {"time": 2027, "pitch": 47, "duration": 16, "velocity": 79}, {"time": 2030, "pitch": 52, "duration": 8, "velocity": 82}, {"time": 2033, "pitch": 59, "duration": 5, "velocity": 81}, {"time": 2036, "pitch": 67, "duration": 12, "velocity": 107}, {"time": 2039, "pitch": 52, "duration": 5, "velocity": 82}, {"time": 2042, "pitch": 64, "duration": 4, "velocity": 92}, {"time": 2045, "pitch": 59, "duration": 4, "velocity": 89}, {"time": 2048, "pitch": 47, "duration": 19, "velocity": 82}, {"time": 2051, "pitch": 54, "duration": 10, "velocity": 92}, {"time": 2054, "pitch": 59, "duration": 7, "velocity": 79}, {"time": 2057, "pitch": 62, "duration": 3, "velocity": 102}, {"time": 2060, "pitch": 66, "duration": 11, "velocity": 127}, {"time": 2063, "pitch": 54, "duration": 4, "velocity": 95}, {"time": 2066, "pitch": 62, "duration": 5, "velocity": 99}, {"time": 2069, "pitch": 59, "duration": 3, "velocity": 90}, {"time": 2069, "pitch": 60, "duration": 2, "velocity": 78}, {"time": 2072, "pitch": 45, "duration": 18, "velocity": 70}, {"time": 2075, "pitch": 52, "duration": 10, "velocity": 65}, {"time": 2078, "pitch": 57, "duration": 4, "velocity": 89}, {"time": 2081, "pitch": 60, "duration": 3, "velocity": 99}, {"time": 2084, "pitch": 64, "duration": 10, "velocity": 102}, {"time": 2087, "pitch": 52, "duration": 2, "velocity": 79}, {"time": 2090, "pitch": 60, "duration": 4, "velocity": 92}, {"time": 2093, "pitch": 57, "duration": 4, "velocity": 88}, {"time": 2096, "pitch": 38, "duration": 22, "velocity": 72}, {"time": 2099, "pitch": 45, "duration": 21, "velocity": 85}, {"time": 2102, "pitch": 50, "duration": 7, "velocity": 82}, {"time": 2105, "pitch": 57, "duration": 5, "velocity": 89}, {"time": 2108, "pitch": 66, "duration": 14, "velocity": 127}, {"time": 2111, "pitch": 50, "duration": 3, "velocity": 93}, {"time": 2114, "pitch": 62, "duration": 7, "velocity": 99}, {"time": 2117, "pitch": 57, "duration": 4, "velocity": 97}, {"time": 2120, "pitch": 38, "duration": 18, "velocity": 86}, {"time": 2123, "pitch": 45, "duration": 15, "velocity": 99}, {"time": 2126, "pitch": 50, "duration": 8, "velocity": 100}, {"time": 2129, "pitch": 57, "duration": 6, "velocity": 112}, {"time": 2132, "pitch": 66, "duration": 12, "velocity": 127}, {"time": 2135, "pitch": 50, "duration": 9, "velocity": 99}, {"time": 2138, "pitch": 62, "duration": 6, "velocity": 122}, {"time": 2141, "pitch": 57, "duration": 3, "velocity": 100}, {"time": 2144, "pitch": 43, "duration": 17, "velocity": 83}, {"time": 2147, "pitch": 50, "duration": 13, "velocity": 85}, {"time": 2150, "pitch": 55, "duration": 7, "velocity": 93}, {"time": 2153, "pitch": 62, "duration": 5, "velocity": 93}, {"time": 2156, "pitch": 71, "duration": 12, "velocity": 122}, {"time": 2159, "pitch": 55, "duration": 2, "velocity": 90}, {"time": 2162, "pitch": 67, "duration": 4, "velocity": 100}, {"time": 2165, "pitch": 62, "duration": 4, "velocity": 100}, {"time": 2168, "pitch": 42, "duration": 17, "velocity": 99}, {"time": 2171, "pitch": 54, "duration": 11, "velocity": 89}, {"time": 2174, "pitch": 62, "duration": 8, "velocity": 83}, {"time": 2177, "pitch": 66, "duration": 4, "velocity": 99}, {"time": 2180, "pitch": 71, "duration": 12, "velocity": 100}, {"time": 2183, "pitch": 54, "duration": 4, "velocity": 95}, {"time": 2186, "pitch": 66, "duration": 6, "velocity": 112}, {"time": 2189, "pitch": 62, "duration": 4, "velocity": 97}, {"time": 2192, "pitch": 45, "duration": 18, "velocity": 79}, {"time": 2195, "pitch": 52, "duration": 11, "velocity": 69}, {"time": 2198, "pitch": 57, "duration": 4, "velocity": 89}, {"time": 2201, "pitch": 60, "duration": 3, "velocity": 100}, {"time": 2204, "pitch": 64, "duration": 12, "velocity": 97}, {"time": 2207, "pitch": 52, "duration": 2, "velocity": 66}, {"time": 2210, "pitch": 60, "duration": 5, "velocity": 99}, {"time": 2213, "pitch": 57, "duration": 3, "velocity": 89}, {"time": 2216, "pitch": 40, "duration": 17, "velocity": 72}, {"time": 2219, "pitch": 47, "duration": 15, "velocity": 82}, {"time": 2222, "pitch": 52, "duration": 8, "velocity": 76}, {"time": 2225, "pitch": 59, "duration": 5, "velocity": 78}, {"time": 2228, "pitch": 67, "duration": 11, "velocity": 117}, {"time": 2231, "pitch": 52, "duration": 5, "velocity": 83}, {"time": 2234, "pitch": 64, "duration": 5, "velocity": 96}, {"time": 2237, "pitch": 59, "duration": 4, "velocity": 89}, {"time": 2240, "pitch": 47, "duration": 19, "velocity": 83}, {"time": 2243, "pitch": 54, "duration": 11, "velocity": 82}, {"time": 2246, "pitch": 59, "duration": 7, "velocity": 71}, {"time": 2249, "pitch": 62, "duration": 3, "velocity": 99}, {"time": 2252, "pitch": 66, "duration": 11, "velocity": 127}, {"time": 2255, "pitch": 54, "duration": 3, "velocity": 93}, {"time": 2258, "pitch": 62, "duration": 5, "velocity": 100}, {"time": 2261, "pitch": 59, "duration": 4, "velocity": 97}, {"time": 2264, "pitch": 45, "duration": 18, "velocity": 77}, {"time": 2267, "pitch": 52, "duration": 10, "velocity": 56}, {"time": 2270, "pitch": 57, "duration": 7, "velocity": 89}, {"time": 2273, "pitch": 60, "duration": 3, "velocity": 93}, {"time": 2276, "pitch": 64, "duration": 11, "velocity": 102}, {"time": 2279, "pitch": 52, "duration": 3, "velocity": 88}, {"time": 2282, "pitch": 60, "duration": 4, "velocity": 102}, {"time": 2285, "pitch": 57, "duration": 4, "velocity": 95}, {"time": 2288, "pitch": 38, "duration": 22, "velocity": 73}, {"time": 2291, "pitch": 45, "duration": 21, "velocity": 66}, {"time": 2294, "pitch": 50, "duration": 7, "velocity": 83}, {"time": 2297, "pitch": 57, "duration": 6, "velocity": 77}, {"time": 2300, "pitch": 66, "duration": 9, "velocity": 122}, {"time": 2303, "pitch": 50, "duration": 3, "velocity": 77}, {"time": 2306, "pitch": 62, "duration": 5, "velocity": 97}, {"time": 2309, "pitch": 57, "duration": 3, "velocity": 83}, {"time": 2312, "pitch": 38, "duration": 9, "velocity": 75}, {"time": 2312, "pitch": 45, "duration": 9, "velocity": 93}, {"time": 2312, "pitch": 50, "duration": 9, "velocity": 100}, {"time": 2312, "pitch": 57, "duration": 9, "velocity": 95}, {"time": 2312, "pitch": 62, "duration": 9, "velocity": 99}, {"time": 2312, "pitch": 66, "duration": 9, "velocity": 99}, {"time": 2324, "pitch": 38, "duration": 2, "velocity": 77}, {"time": 2324, "pitch": 45, "duration": 3, "velocity": 107}, {"time": 2324, "pitch": 50, "duration": 2, "velocity": 107}, {"time": 2324, "pitch": 57, "duration": 3, "velocity": 117}, {"time": 2324, "pitch": 62, "duration": 3, "velocity": 112}, {"time": 2324, "pitch": 66, "duration": 3, "velocity": 127}, {"time": 2328, "pitch": 38, "duration": 2, "velocity": 69}, {"time": 2328, "pitch": 45, "duration": 2, "velocity": 95}, {"time": 2328, "pitch": 50, "duration": 2, "velocity": 102}, {"time": 2328, "pitch": 57, "duration": 2, "velocity": 112}, {"time": 2328, "pitch": 62, "duration": 3, "velocity": 102}, {"time": 2328, "pitch": 66, "duration": 3, "velocity": 102}, {"time": 2332, "pitch": 38, "duration": 4, "velocity": 89}, {"time": 2332, "pitch": 45, "duration": 4, "velocity": 100}, {"time": 2332, "pitch": 50, "duration": 4, "velocity": 107}, {"time": 2332, "pitch": 57, "duration": 4, "velocity": 102}, {"time": 2332, "pitch": 62, "duration": 4, "velocity": 107}, {"time": 2332, "pitch": 66, "duration": 5, "velocity": 117}, {"time": 2336, "pitch": 40, "duration": 24, "velocity": 72}, {"time": 2336, "pitch": 47, "duration": 24, "velocity": 97}, {"time": 2336, "pitch": 52, "duration": 15, "velocity": 100}, {"time": 2336, "pitch": 59, "duration": 11, "velocity": 100}, {"time": 2336, "pitch": 64, "duration": 12, "velocity": 102}, {"time": 2336, "pitch": 68, "duration": 12, "velocity": 100}, {"time": 2348, "pitch": 59, "duration": 8, "velocity": 100}, {"time": 2348, "pitch": 64, "duration": 8, "velocity": 102}, {"time": 2348, "pitch": 68, "duration": 8, "velocity": 117}, {"time": 2354, "pitch": 52, "duration": 6, "velocity": 93}, {"time": 2360, "pitch": 59, "duration": 5, "velocity": 112}, {"time": 2360, "pitch": 64, "duration": 6, "velocity": 107}, {"time": 2360, "pitch": 68, "duration": 5, "velocity": 112}, {"time": 2363, "pitch": 40, "duration": 7, "velocity": 72}, {"time": 2363, "pitch": 47, "duration": 8, "velocity": 102}, {"time": 2363, "pitch": 52, "duration": 7, "velocity": 117}, {"time": 2369, "pitch": 59, "duration": 2, "velocity": 78}, {"time": 2369, "pitch": 64, "duration": 2, "velocity": 83}, {"time": 2369, "pitch": 68, "duration": 2, "velocity": 81}, {"time": 2372, "pitch": 47, "duration": 7, "velocity": 96}, {"time": 2372, "pitch": 59, "duration": 4, "velocity": 102}, {"time": 2372, "pitch": 64, "duration": 5, "velocity": 117}, {"time": 2372, "pitch": 68, "duration": 5, "velocity": 122}, {"time": 2375, "pitch": 40, "duration": 7, "velocity": 74}, {"time": 2375, "pitch": 52, "duration": 7, "velocity": 107}, {"time": 2378, "pitch": 59, "duration": 2, "velocity": 88}, {"time": 2378, "pitch": 64, "duration": 4, "velocity": 97}, {"time": 2378, "pitch": 68, "duration": 4, "velocity": 122}, {"time": 2384, "pitch": 40, "duration": 22, "velocity": 92}, {"time": 2384, "pitch": 47, "duration": 23, "velocity": 107}, {"time": 2384, "pitch": 52, "duration": 22, "velocity": 117}, {"time": 2384, "pitch": 59, "duration": 11, "velocity": 127}, {"time": 2384, "pitch": 64, "duration": 11, "velocity": 107}, {"time": 2384, "pitch": 68, "duration": 11, "velocity": 117}, {"time": 2396, "pitch": 64, "duration": 8, "velocity": 122}, {"time": 2396, "pitch": 68, "duration": 8, "velocity": 127}, {"time": 2402, "pitch": 59, "duration": 4, "velocity": 102}, {"time": 2405, "pitch": 64, "duration": 2, "velocity": 53}, {"time": 2405, "pitch": 68, "duration": 1, "velocity": 40}, {"time": 2408, "pitch": 40, "duration": 10, "velocity": 99}, {"time": 2408, "pitch": 47, "duration": 11, "velocity": 122}, {"time": 2408, "pitch": 52, "duration": 10, "velocity": 122}, {"time": 2408, "pitch": 59, "duration": 10, "velocity": 122}, {"time": 2408, "pitch": 64, "duration": 11, "velocity": 127}, {"time": 2408, "pitch": 68, "duration": 11, "velocity": 127}, {"time": 2420, "pitch": 40, "duration": 13, "velocity": 85}, {"time": 2420, "pitch": 47, "duration": 13, "velocity": 102}, {"time": 2420, "pitch": 52, "duration": 13, "velocity": 102}, {"time": 2420, "pitch": 59, "duration": 13, "velocity": 107}, {"time": 2420, "pitch": 64, "duration": 13, "velocity": 112}, {"time": 2420, "pitch": 68, "duration": 13, "velocity": 127}, {"time": 2432, "pitch": 45, "duration": 17, "velocity": 90}, {"time": 2435, "pitch": 52, "duration": 14, "velocity": 72}, {"time": 2438, "pitch": 57, "duration": 7, "velocity": 96}, {"time": 2441, "pitch": 64, "duration": 5, "velocity": 95}, {"time": 2444, "pitch": 73, "duration": 14, "velocity": 112}, {"time": 2447, "pitch": 57, "duration": 2, "velocity": 92}, {"time": 2450, "pitch": 64, "duration": 8, "velocity": 76}, {"time": 2453, "pitch": 69, "duration": 3, "velocity": 86}, {"time": 2456, "pitch": 44, "duration": 18, "velocity": 100}, {"time": 2459, "pitch": 56, "duration": 11, "velocity": 85}, {"time": 2462, "pitch": 64, "duration": 8, "velocity": 86}, {"time": 2465, "pitch": 68, "duration": 4, "velocity": 97}, {"time": 2468, "pitch": 73, "duration": 12, "velocity": 107}, {"time": 2471, "pitch": 56, "duration": 3, "velocity": 83}, {"time": 2474, "pitch": 68, "duration": 6, "velocity": 92}, {"time": 2477, "pitch": 64, "duration": 3, "velocity": 97}, {"time": 2480, "pitch": 47, "duration": 17, "velocity": 83}, {"time": 2483, "pitch": 54, "duration": 10, "velocity": 77}, {"time": 2486, "pitch": 59, "duration": 4, "velocity": 97}, {"time": 2489, "pitch": 62, "duration": 3, "velocity": 82}, {"time": 2492, "pitch": 66, "duration": 11, "velocity": 100}, {"time": 2495, "pitch": 54, "duration": 2, "velocity": 78}, {"time": 2498, "pitch": 62, "duration": 5, "velocity": 99}, {"time": 2501, "pitch": 59, "duration": 3, "velocity": 89}, {"time": 2504, "pitch": 42, "duration": 18, "velocity": 79}, {"time": 2507, "pitch": 49, "duration": 16, "velocity": 79}, {"time": 2510, "pitch": 54, "duration": 8, "velocity": 82}, {"time": 2513, "pitch": 61, "duration": 5, "velocity": 81}, {"time": 2516, "pitch": 69, "duration": 12, "velocity": 107}, {"time": 2519, "pitch": 54, "duration": 5, "velocity": 82}, {"time": 2522, "pitch": 66, "duration": 4, "velocity": 92}, {"time": 2525, "pitch": 61, "duration": 4, "velocity": 89}, {"time": 2528, "pitch": 49, "duration": 19, "velocity": 82}, {"time": 2531, "pitch": 56, "duration": 10, "velocity": 92}, {"time": 2534, "pitch": 61, "duration": 7, "velocity": 79}, {"time": 2537, "pitch": 64, "duration": 3, "velocity": 102}, {"time": 2540, "pitch": 68, "duration": 11, "velocity": 127}, {"time": 2543, "pitch": 56, "duration": 4, "velocity": 95}, {"time": 2546, "pitch": 64, "duration": 5, "velocity": 99}, {"time": 2549, "pitch": 61, "duration": 3, "velocity": 90}, {"time": 2549, "pitch": 62, "duration": 2, "velocity": 78}, {"time": 2552, "pitch": 47, "duration": 18, "velocity": 70}, {"time": 2555, "pitch": 54, "duration": 10, "velocity": 65}, {"time": 2558, "pitch": 59, "duration": 4, "velocity": 89}, {"time": 2561, "pitch": 62, "duration": 3, "velocity": 99}, {"time": 2564, "pitch": 66, "duration": 10, "velocity": 102}, {"time": 2567, "pitch": 54, "duration": 2, "velocity": 79}, {"time": 2570, "pitch": 62, "duration": 4, "velocity": 92}, {"time": 2573, "pitch": 59, "duration": 4, "velocity": 88}, {"time": 2576, "pitch": 40, "duration": 22, "velocity": 72}, {"time": 2579, "pitch": 47, "duration": 21, "velocity": 85}, {"time": 2582, "pitch": 52, "duration": 7, "velocity": 82}, {"time": 2585, "pitch": 59, "duration": 5, "velocity": 89}, {"time": 2588, "pitch": 68, "duration": 14, "velocity": 127}, {"time": 2591, "pitch": 52, "duration": 3, "velocity": 93}, {"time": 2594, "pitch": 64, "duration": 7, "velocity": 99}, {"time": 2597, "pitch": 59, "duration": 4, "velocity": 97}, {"time": 2600, "pitch": 40, "duration": 18, "velocity": 86}, {"time": 2603, "pitch": 47, "duration": 15, "velocity": 99}, {"time": 2606, "pitch": 52, "duration": 8, "velocity": 100}, {"time": 2609, "pitch": 59, "duration": 6, "velocity": 112}, {"time": 2612, "pitch": 68, "duration": 12, "velocity": 127}, {"time": 2615, "pitch": 52, "duration": 9, "velocity": 99}, {"time": 2618, "pitch": 64, "duration": 6, "velocity": 122}, {"time": 2621, "pitch": 59, "duration": 3, "velocity": 100}, {"time": 2624, "pitch": 45, "duration": 17, "velocity": 83}, {"time": 2627, "pitch": 52, "duration": 13, "velocity": 85}, {"time": 2630, "pitch": 57, "duration": 7, "velocity": 93}, {"time": 2633, "pitch": 64, "duration": 5, "velocity": 93}, {"time": 2636, "pitch": 73, "duration": 12, "velocity": 122}, {"time": 2639, "pitch": 57, "duration": 2, "velocity": 90}, {"time": 2642, "pitch": 69, "duration": 4, "velocity": 100}, {"time": 2645, "pitch": 64, "duration": 4, "velocity": 100}, {"time": 2648, "pitch": 44, "duration": 17, "velocity": 99}, {"time": 2651, "pitch": 56, "duration": 11, "velocity": 89}, {"time": 2654, "pitch": 64, "duration": 8, "velocity": 83}, {"time": 2657, "pitch": 68, "duration": 4, "velocity": 99}, {"time": 2660, "pitch": 73, "duration": 12, "velocity": 100}, {"time": 2663, "pitch": 56, "duration": 4, "velocity": 95}, {"time": 2666, "pitch": 68, "duration": 6, "velocity": 112}, {"time": 2669, "pitch": 64, "duration": 4, "velocity": 97}, {"time": 2672, "pitch": 47, "duration": 18, "velocity": 79}, {"time": 2675, "pitch": 54, "duration": 11, "velocity": 69}, {"time": 2678, "pitch": 59, "duration": 4, "velocity": 89}, {"time": 2681, "pitch": 62, "duration": 3, "velocity": 100}, {"time": 2684, "pitch": 66, "duration": 12, "velocity": 97}, {"time": 2687, "pitch": 54, "duration": 2, "velocity": 66}, {"time": 2690, "pitch": 62, "duration": 5, "velocity": 99}, {"time": 2693, "pitch": 59, "duration": 3, "velocity": 89}, {"time": 2696, "pitch": 42, "duration": 17, "velocity": 72}, {"time": 2699, "pitch": 49, "duration": 15, "velocity": 82}, {"time": 2702, "pitch": 54, "duration": 8, "velocity": 76}, {"time": 2705, "pitch": 61, "duration": 5, "velocity": 78}, {"time": 2708, "pitch": 69, "duration": 11, "velocity": 117}, {"time": 2711, "pitch": 54, "duration": 5, "velocity": 83}, {"time": 2714, "pitch": 66, "duration": 5, "velocity": 96}, {"time": 2717, "pitch": 61, "duration": 4, "velocity": 89}, {"time": 2720, "pitch": 49, "duration": 19, "velocity": 83}, {"time": 2723, "pitch": 56, "duration": 11, "velocity": 82}, {"time": 2726, "pitch": 61, "duration": 7, "velocity": 71}, {"time": 2729, "pitch": 64, "duration": 3, "velocity": 99}, {"time": 2732, "pitch": 68, "duration": 11, "velocity": 127}, {"time": 2735, "pitch": 56, "duration": 3, "velocity": 93}, {"time": 2738, "pitch": 64, "duration": 5, "velocity": 100}, {"time": 2741, "pitch": 61, "duration": 4, "velocity": 97}, {"time": 2744, "pitch": 47, "duration": 18, "velocity": 77}, {"time": 2747, "pitch": 54, "duration": 10, "velocity": 56}, {"time": 2750, "pitch": 59, "duration": 7, "velocity": 89}, {"time": 2753, "pitch": 62, "duration": 3, "velocity": 93}, {"time": 2756, "pitch": 66, "duration": 11, "velocity": 102}, {"time": 2759, "pitch": 54, "duration": 3, "velocity": 88}, {"time": 2762, "pitch": 62, "duration": 4, "velocity": 102}, {"time": 2765, "pitch": 59, "duration": 4, "velocity": 95}, {"time": 2768, "pitch": 40, "duration": 22, "velocity": 73}, {"time": 2771, "pitch": 47, "duration": 21, "velocity": 66}, {"time": 2774, "pitch": 52, "duration": 7, "velocity": 83}, {"time": 2777, "pitch": 59, "duration": 6, "velocity": 77}, {"time": 2780, "pitch": 68, "duration": 9, "velocity": 122}, {"time": 2783, "pitch": 52, "duration": 3, "velocity": 77}, {"time": 2786, "pitch": 64, "duration": 5, "velocity": 97}, {"time": 2789, "pitch": 59, "duration": 3, "velocity": 83}, {"time": 2792, "pitch": 40, "duration": 25, "velocity": 99}, {"time": 2795, "pitch": 47, "duration": 22, "velocity": 112}, {"time": 2798, "pitch": 52, "duration": 8, "velocity": 100}, {"time": 2801, "pitch": 59, "duration": 6, "velocity": 122}, {"time": 2804, "pitch": 68, "duration": 13, "velocity": 127}, {"time": 2807, "pitch": 52, "duration": 4, "velocity": 102}, {"time": 2810, "pitch": 64, "duration": 7, "velocity": 96}, {"time": 2813, "pitch": 59, "duration": 4, "velocity": 95}, {"time": 2816, "pitch": 45, "duration": 17, "velocity": 90}, {"time": 2819, "pitch": 52, "duration": 14, "velocity": 72}, {"time": 2822, "pitch": 57, "duration": 7, "velocity": 96}, {"time": 2825, "pitch": 64, "duration": 5, "velocity": 95}, {"time": 2828, "pitch": 73, "duration": 14, "velocity": 112}, {"time": 2831, "pitch": 57, "duration": 2, "velocity": 92}, {"time": 2834, "pitch": 64, "duration": 8, "velocity": 76}, {"time": 2837, "pitch": 69, "duration": 3, "velocity": 86}, {"time": 2840, "pitch": 44, "duration": 18, "velocity": 100}, {"time": 2843, "pitch": 56, "duration": 11, "velocity": 85}, {"time": 2846, "pitch": 64, "duration": 8, "velocity": 86}, {"time": 2849, "pitch": 68, "duration": 4, "velocity": 97}, {"time": 2852, "pitch": 73, "duration": 12, "velocity": 107}, {"time": 2855, "pitch": 56, "duration": 3, "velocity": 83}, {"time": 2858, "pitch": 68, "duration": 6, "velocity": 92}, {"time": 2861, "pitch": 64, "duration": 3, "velocity": 97}, {"time": 2864, "pitch": 47, "duration": 17, "velocity": 83}, {"time": 2867, "pitch": 54, "duration": 10, "velocity": 77}, {"time": 2870, "pitch": 59, "duration": 4, "velocity": 97}, {"time": 2873, "pitch": 62, "duration": 3, "velocity": 82}, {"time": 2876, "pitch": 66, "duration": 11, "velocity": 100}, {"time": 2879, "pitch": 54, "duration": 2, "velocity": 78}, {"time": 2882, "pitch": 62, "duration": 5, "velocity": 99}, {"time": 2885, "pitch": 59, "duration": 3, "velocity": 89}, {"time": 2888, "pitch": 42, "duration": 18, "velocity": 79}, {"time": 2891, "pitch": 49, "duration": 16, "velocity": 79}, {"time": 2894, "pitch": 54, "duration": 8, "velocity": 82}, {"time": 2897, "pitch": 61, "duration": 5, "velocity": 81}, {"time": 2900, "pitch": 69, "duration": 12, "velocity": 107}, {"time": 2903, "pitch": 54, "duration": 5, "velocity": 82}, {"time": 2906, "pitch": 66, "duration": 4, "velocity": 92}, {"time": 2909, "pitch": 61, "duration": 4, "velocity": 89}, {"time": 2912, "pitch": 49, "duration": 19, "velocity": 82}, {"time": 2915, "pitch": 56, "duration": 10, "velocity": 92}, {"time": 2918, "pitch": 61, "duration": 7, "velocity": 79}, {"time": 2921, "pitch": 64, "duration": 3, "velocity": 102}, {"time": 2924, "pitch": 68, "duration": 11, "velocity": 127}, {"time": 2927, "pitch": 56, "duration": 4, "velocity": 95}, {"time": 2930, "pitch": 64, "duration": 5, "velocity": 99}, {"time": 2933, "pitch": 61, "duration": 3, "velocity": 90}, {"time": 2933, "pitch": 62, "duration": 2, "velocity": 78}, {"time": 2936, "pitch": 47, "duration": 18, "velocity": 70}, {"time": 2939, "pitch": 54, "duration": 10, "velocity": 65}, {"time": 2942, "pitch": 59, "duration": 4, "velocity": 89}, {"time": 2945, "pitch": 62, "duration": 3, "velocity": 99}, {"time": 2948, "pitch": 66, "duration": 10, "velocity": 102}, {"time": 2951, "pitch": 54, "duration": 2, "velocity": 79}, {"time": 2954, "pitch": 62, "duration": 4, "velocity": 92}, {"time": 2957, "pitch": 59, "duration": 4, "velocity": 88}, {"time": 2960, "pitch": 40, "duration": 22, "velocity": 72}, {"time": 2963, "pitch": 47, "duration": 21, "velocity": 85}, {"time": 2966, "pitch": 52, "duration": 7, "velocity": 82}, {"time": 2969, "pitch": 59, "duration": 5, "velocity": 89}, {"time": 2972, "pitch": 68, "duration": 14, "velocity": 127}, {"time": 2975, "pitch": 52, "duration": 3, "velocity": 93}, {"time": 2978, "pitch": 64, "duration": 7, "velocity": 99}, {"time": 2981, "pitch": 59, "duration": 4, "velocity": 97}, {"time": 2984, "pitch": 40, "duration": 18, "velocity": 86}, {"time": 2987, "pitch": 47, "duration": 15, "velocity": 99}, {"time": 2990, "pitch": 52, "duration": 8, "velocity": 100}, {"time": 2993, "pitch": 59, "duration": 6, "velocity": 112}, {"time": 2996, "pitch": 68, "duration": 12, "velocity": 127}, {"time": 2999, "pitch": 52, "duration": 9, "velocity": 99}, {"time": 3002, "pitch": 64, "duration": 6, "velocity": 122}, {"time": 3005, "pitch": 59, "duration": 3, "velocity": 100}, {"time": 3008, "pitch": 45, "duration": 17, "velocity": 83}, {"time": 3011, "pitch": 52, "duration": 13, "velocity": 85}, {"time": 3014, "pitch": 57, "duration": 7, "velocity": 93}, {"time": 3017, "pitch": 64, "duration": 5, "velocity": 93}, {"time": 3020, "pitch": 73, "duration": 12, "velocity": 122}, {"time": 3023, "pitch": 57, "duration": 2, "velocity": 90}, {"time": 3026, "pitch": 69, "duration": 4, "velocity": 100}, {"time": 3029, "pitch": 64, "duration": 4, "velocity": 100}, {"time": 3032, "pitch": 44, "duration": 17, "velocity": 99}, {"time": 3035, "pitch": 56, "duration": 11, "velocity": 89}, {"time": 3038, "pitch": 64, "duration": 8, "velocity": 83}, {"time": 3041, "pitch": 68, "duration": 4, "velocity": 99}, {"time": 3044, "pitch": 73, "duration": 12, "velocity": 100}, {"time": 3047, "pitch": 56, "duration": 4, "velocity": 95}, {"time": 3050, "pitch": 68, "duration": 6, "velocity": 112}, {"time": 3053, "pitch": 64, "duration": 4, "velocity": 97}, {"time": 3056, "pitch": 47, "duration": 18, "velocity": 79}, {"time": 3059, "pitch": 54, "duration": 11, "velocity": 69}, {"time": 3062, "pitch": 59, "duration": 4, "velocity": 89}, {"time": 3065, "pitch": 62, "duration": 3, "velocity": 100}, {"time": 3068, "pitch": 66, "duration": 12, "velocity": 97}, {"time": 3071, "pitch": 54, "duration": 2, "velocity": 66}, {"time": 3074, "pitch": 62, "duration": 5, "velocity": 99}, {"time": 3077, "pitch": 59, "duration": 3, "velocity": 89}, {"time": 3080, "pitch": 42, "duration": 17, "velocity": 72}, {"time": 3083, "pitch": 49, "duration": 15, "velocity": 82}, {"time": 3086, "pitch": 54, "duration": 8, "velocity": 76}, {"time": 3089, "pitch": 61, "duration": 5, "velocity": 78}, {"time": 3092, "pitch": 69, "duration": 11, "velocity": 117}, {"time": 3095, "pitch": 54, "duration": 5, "velocity": 83}, {"time": 3098, "pitch": 66, "duration": 5, "velocity": 96}, {"time": 3101, "pitch": 61, "duration": 4, "velocity": 89}, {"time": 3104, "pitch": 49, "duration": 19, "velocity": 83}, {"time": 3107, "pitch": 56, "duration": 11, "velocity": 82}, {"time": 3110, "pitch": 61, "duration": 7, "velocity": 71}, {"time": 3113, "pitch": 64, "duration": 3, "velocity": 99}, {"time": 3116, "pitch": 68, "duration": 11, "velocity": 127}, {"time": 3119, "pitch": 56, "duration": 3, "velocity": 93}, {"time": 3122, "pitch": 64, "duration": 5, "velocity": 100}, {"time": 3125, "pitch": 61, "duration": 4, "velocity": 97}, {"time": 3128, "pitch": 47, "duration": 18, "velocity": 77}, {"time": 3131, "pitch": 54, "duration": 10, "velocity": 56}, {"time": 3134, "pitch": 59, "duration": 7, "velocity": 89}, {"time": 3137, "pitch": 62, "duration": 3, "velocity": 93}, {"time": 3140, "pitch": 66, "duration": 11, "velocity": 102}, {"time": 3143, "pitch": 54, "duration": 3, "velocity": 88}, {"time": 3146, "pitch": 62, "duration": 4, "velocity": 102}, {"time": 3149, "pitch": 59, "duration": 4, "velocity": 95}, {"time": 3152, "pitch": 40, "duration": 22, "velocity": 73}, {"time": 3155, "pitch": 47, "duration": 21, "velocity": 66}, {"time": 3158, "pitch": 52, "duration": 7, "velocity": 83}, {"time": 3161, "pitch": 59, "duration": 6, "velocity": 77}, {"time": 3164, "pitch": 68, "duration": 9, "velocity": 122}, {"time": 3167, "pitch": 52, "duration": 3, "velocity": 77}, {"time": 3170, "pitch": 64, "duration": 5, "velocity": 97}, {"time": 3173, "pitch": 59, "duration": 3, "velocity": 83}, {"time": 3176, "pitch": 40, "duration": 25, "velocity": 99}, {"time": 3179, "pitch": 47, "duration": 22, "velocity": 112}, {"time": 3182, "pitch": 52, "duration": 8, "velocity": 100}, {"time": 3185, "pitch": 59, "duration": 6, "velocity": 122}, {"time": 3188, "pitch": 68, "duration": 13, "velocity": 127}, {"time": 3191, "pitch": 52, "duration": 4, "velocity": 102}, {"time": 3194, "pitch": 64, "duration": 7, "velocity": 96}, {"time": 3197, "pitch": 59, "duration": 4, "velocity": 95}, {"time": 3200, "pitch": 45, "duration": 17, "velocity": 90}, {"time": 3203, "pitch": 52, "duration": 14, "velocity": 72}, {"time": 3206, "pitch": 57, "duration": 7, "velocity": 96}, {"time": 3209, "pitch": 64, "duration": 5, "velocity": 95}, {"time": 3212, "pitch": 73, "duration": 14, "velocity": 112}, {"time": 3215, "pitch": 57, "duration": 2, "velocity": 92}, {"time": 3218, "pitch": 64, "duration": 8, "velocity": 76}, {"time": 3221, "pitch": 69, "duration": 3, "velocity": 86}, {"time": 3224, "pitch": 44, "duration": 18, "velocity": 100}, {"time": 3227, "pitch": 56, "duration": 11, "velocity": 85}, {"time": 3230, "pitch": 64, "duration": 8, "velocity": 86}, {"time": 3233, "pitch": 68, "duration": 4, "velocity": 97}, {"time": 3236, "pitch": 73, "duration": 12, "velocity": 107}, {"time": 3239, "pitch": 56, "duration": 3, "velocity": 83}, {"time": 3242, "pitch": 68, "duration": 6, "velocity": 92}, {"time": 3245, "pitch": 64, "duration": 3, "velocity": 97}, {"time": 3248, "pitch": 47, "duration": 17, "velocity": 83}, {"time": 3251, "pitch": 54, "duration": 10, "velocity": 77}, {"time": 3254, "pitch": 59, "duration": 4, "velocity": 97}, {"time": 3257, "pitch": 62, "duration": 3, "velocity": 82}, {"time": 3260, "pitch": 66, "duration": 11, "velocity": 100}, {"time": 3263, "pitch": 54, "duration": 2, "velocity": 78}, {"time": 3266, "pitch": 62, "duration": 5, "velocity": 99}, {"time": 3269, "pitch": 59, "duration": 3, "velocity": 89}, {"time": 3272, "pitch": 42, "duration": 18, "velocity": 79}, {"time": 3275, "pitch": 49, "duration": 16, "velocity": 79}, {"time": 3278, "pitch": 54, "duration": 8, "velocity": 82}, {"time": 3281, "pitch": 61, "duration": 5, "velocity": 81}, {"time": 3284, "pitch": 69, "duration": 12, "velocity": 107}, {"time": 3287, "pitch": 54, "duration": 5, "velocity": 82}, {"time": 3290, "pitch": 66, "duration": 4, "velocity": 92}, {"time": 3293, "pitch": 61, "duration": 4, "velocity": 89}, {"time": 3296, "pitch": 49, "duration": 19, "velocity": 82}, {"time": 3299, "pitch": 56, "duration": 10, "velocity": 92}, {"time": 3302, "pitch": 61, "duration": 7, "velocity": 79}, {"time": 3305, "pitch": 64, "duration": 3, "velocity": 102}, {"time": 3308, "pitch": 68, "duration": 11, "velocity": 127}, {"time": 3311, "pitch": 56, "duration": 4, "velocity": 95}, {"time": 3314, "pitch": 64, "duration": 5, "velocity": 99}, {"time": 3317, "pitch": 61, "duration": 3, "velocity": 90}, {"time": 3317, "pitch": 62, "duration": 2, "velocity": 78}, {"time": 3320, "pitch": 47, "duration": 18, "velocity": 70}, {"time": 3323, "pitch": 54, "duration": 10, "velocity": 65}, {"time": 3326, "pitch": 59, "duration": 4, "velocity": 89}, {"time": 3329, "pitch": 62, "duration": 3, "velocity": 99}, {"time": 3332, "pitch": 66, "duration": 10, "velocity": 102}, {"time": 3335, "pitch": 54, "duration": 2, "velocity": 79}, {"time": 3338, "pitch": 62, "duration": 4, "velocity": 92}, {"time": 3341, "pitch": 59, "duration": 4, "velocity": 88}, {"time": 3344, "pitch": 40, "duration": 22, "velocity": 72}, {"time": 3347, "pitch": 47, "duration": 21, "velocity": 85}, {"time": 3350, "pitch": 52, "duration": 7, "velocity": 82}, {"time": 3353, "pitch": 59, "duration": 5, "velocity": 89}, {"time": 3356, "pitch": 68, "duration": 14, "velocity": 127}, {"time": 3359, "pitch": 52, "duration": 3, "velocity": 93}, {"time": 3362, "pitch": 64, "duration": 7, "velocity": 99}, {"time": 3365, "pitch": 59, "duration": 4, "velocity": 97}, {"time": 3368, "pitch": 40, "duration": 18, "velocity": 86}, {"time": 3371, "pitch": 47, "duration": 15, "velocity": 99}, {"time": 3374, "pitch": 52, "duration": 8, "velocity": 100}, {"time": 3377, "pitch": 59, "duration": 6, "velocity": 112}, {"time": 3380, "pitch": 68, "duration": 12, "velocity": 127}, {"time": 3383, "pitch": 52, "duration": 9, "velocity": 99}, {"time": 3386, "pitch": 64, "duration": 6, "velocity": 122}, {"time": 3389, "pitch": 59, "duration": 3, "velocity": 100}, {"time": 3392, "pitch": 45, "duration": 17, "velocity": 83}, {"time": 3395, "pitch": 52, "duration": 13, "velocity": 85}, {"time": 3398, "pitch": 57, "duration": 7, "velocity": 93}, {"time": 3401, "pitch": 64, "duration": 5, "velocity": 93}, {"time": 3404, "pitch": 73, "duration": 12, "velocity": 122}, {"time": 3407, "pitch": 57, "duration": 2, "velocity": 90}, {"time": 3410, "pitch": 69, "duration": 4, "velocity": 100}, {"time": 3413, "pitch": 64, "duration": 4, "velocity": 100}, {"time": 3416, "pitch": 44, "duration": 17, "velocity": 99}, {"time": 3419, "pitch": 56, "duration": 11, "velocity": 89}, {"time": 3422, "pitch": 64, "duration": 8, "velocity": 83}, {"time": 3425, "pitch": 68, "duration": 4, "velocity": 99}, {"time": 3428, "pitch": 73, "duration": 12, "velocity": 100}, {"time": 3431, "pitch": 56, "duration": 4, "velocity": 95}, {"time": 3434, "pitch": 68, "duration": 6, "velocity": 112}, {"time": 3437, "pitch": 64, "duration": 4, "velocity": 97}, {"time": 3440, "pitch": 47, "duration": 18, "velocity": 79}, {"time": 3443, "pitch": 54, "duration": 11, "velocity": 69}, {"time": 3446, "pitch": 59, "duration": 4, "velocity": 89}, {"time": 3449, "pitch": 62, "duration": 3, "velocity": 100}, {"time": 3452, "pitch": 66, "duration": 12, "velocity": 97}, {"time": 3455, "pitch": 54, "duration": 2, "velocity": 66}, {"time": 3458, "pitch": 62, "duration": 5, "velocity": 99}, {"time": 3461, "pitch": 59, "duration": 3, "velocity": 89}, {"time": 3464, "pitch": 42, "duration": 17, "velocity": 72}, {"time": 3467, "pitch": 49, "duration": 15, "velocity": 82}, {"time": 3470, "pitch": 54, "duration": 8, "velocity": 76}, {"time": 3473, "pitch": 61, "duration": 5, "velocity": 78}, {"time": 3476, "pitch": 69, "duration": 11, "velocity": 117}, {"time": 3479, "pitch": 54, "duration": 5, "velocity": 83}, {"time": 3482, "pitch": 66, "duration": 5, "velocity": 96}, {"time": 3485, "pitch": 61, "duration": 4, "velocity": 89}, {"time": 3488, "pitch": 49, "duration": 19, "velocity": 83}, {"time": 3491, "pitch": 56, "duration": 11, "velocity": 82}, {"time": 3494, "pitch": 61, "duration": 7, "velocity": 71}, {"time": 3497, "pitch": 64, "duration": 3, "velocity": 99}, {"time": 3500, "pitch": 68, "duration": 11, "velocity": 127}, {"time": 3503, "pitch": 56, "duration": 3, "velocity": 93}, {"time": 3506, "pitch": 64, "duration": 5, "velocity": 100}, {"time": 3509, "pitch": 61, "duration": 4, "velocity": 97}, {"time": 3512, "pitch": 47, "duration": 18, "velocity": 77}, {"time": 3515, "pitch": 54, "duration": 10, "velocity": 56}, {"time": 3518, "pitch": 59, "duration": 7, "velocity": 89}, {"time": 3521, "pitch": 62, "duration": 3, "velocity": 93}, {"time": 3524, "pitch": 66, "duration": 11, "velocity": 102}, {"time": 3527, "pitch": 54, "duration": 3, "velocity": 88}, {"time": 3530, "pitch": 62, "duration": 4, "velocity": 102}, {"time": 3533, "pitch": 59, "duration": 4, "velocity": 95}, {"time": 3536, "pitch": 40, "duration": 22, "velocity": 73}, {"time": 3539, "pitch": 47, "duration": 21, "velocity": 66}, {"time": 3542, "pitch": 52, "duration": 7, "velocity": 83}, {"time": 3545, "pitch": 59, "duration": 6, "velocity": 77}, {"time": 3548, "pitch": 68, "duration": 9, "velocity": 122}, {"time": 3551, "pitch": 52, "duration": 3, "velocity": 77}, {"time": 3554, "pitch": 64, "duration": 5, "velocity": 97}, {"time": 3557, "pitch": 59, "duration": 3, "velocity": 83}, {"time": 3560, "pitch": 40, "duration": 25, "velocity": 99}, {"time": 3563, "pitch": 47, "duration": 22, "velocity": 112}, {"time": 3566, "pitch": 52, "duration": 8, "velocity": 100}, {"time": 3569, "pitch": 59, "duration": 6, "velocity": 122}, {"time": 3572, "pitch": 68, "duration": 13, "velocity": 127}, {"time": 3575, "pitch": 52, "duration": 4, "velocity": 102}, {"time": 3578, "pitch": 64, "duration": 7, "velocity": 96}, {"time": 3581, "pitch": 59, "duration": 4, "velocity": 95}, {"time": 3584, "pitch": 45, "duration": 17, "velocity": 90}, {"time": 3587, "pitch": 52, "duration": 14, "velocity": 72}, {"time": 3590, "pitch": 57, "duration": 7, "velocity": 96}, {"time": 3593, "pitch": 64, "duration": 5, "velocity": 95}, {"time": 3596, "pitch": 73, "duration": 14, "velocity": 112}, {"time": 3599, "pitch": 57, "duration": 2, "velocity": 92}, {"time": 3602, "pitch": 64, "duration": 8, "velocity": 76}, {"time": 3605, "pitch": 69, "duration": 3, "velocity": 86}, {"time": 3608, "pitch": 44, "duration": 18, "velocity": 100}, {"time": 3611, "pitch": 56, "duration": 11, "velocity": 85}, {"time": 3614, "pitch": 64, "duration": 8, "velocity": 86}, {"time": 3617, "pitch": 68, "duration": 4, "velocity": 97}, {"time": 3620, "pitch": 73, "duration": 12, "velocity": 107}, {"time": 3623, "pitch": 56, "duration": 3, "velocity": 83}, {"time": 3626, "pitch": 68, "duration": 6, "velocity": 92}, {"time": 3629, "pitch": 64, "duration": 3, "velocity": 97}, {"time": 3632, "pitch": 47, "duration": 17, "velocity": 83}, {"time": 3635, "pitch": 54, "duration": 10, "velocity": 77}, {"time": 3638, "pitch": 59, "duration": 4, "velocity": 97}, {"time": 3641, "pitch": 62, "duration": 3, "velocity": 82}, {"time": 3644, "pitch": 66, "duration": 11, "velocity": 100}, {"time": 3647, "pitch": 54, "duration": 2, "velocity": 78}, {"time": 3650, "pitch": 62, "duration": 5, "velocity": 99}, {"time": 3653, "pitch": 59, "duration": 3, "velocity": 89}, {"time": 3656, "pitch": 42, "duration": 18, "velocity": 79}, {"time": 3659, "pitch": 49, "duration": 16, "velocity": 79}, {"time": 3662, "pitch": 54, "duration": 8, "velocity": 82}, {"time": 3665, "pitch": 61, "duration": 5, "velocity": 81}, {"time": 3668, "pitch": 69, "duration": 12, "velocity": 107}, {"time": 3671, "pitch": 54, "duration": 5, "velocity": 82}, {"time": 3674, "pitch": 66, "duration": 4, "velocity": 92}, {"time": 3677, "pitch": 61, "duration": 4, "velocity": 89}, {"time": 3680, "pitch": 49, "duration": 19, "velocity": 82}, {"time": 3683, "pitch": 56, "duration": 10, "velocity": 92}, {"time": 3686, "pitch": 61, "duration": 7, "velocity": 79}, {"time": 3689, "pitch": 64, "duration": 3, "velocity": 102}, {"time": 3692, "pitch": 68, "duration": 11, "velocity": 127}, {"time": 3695, "pitch": 56, "duration": 4, "velocity": 99}, {"time": 3698, "pitch": 64, "duration": 5, "velocity": 98}, {"time": 3701, "pitch": 61, "duration": 3, "velocity": 98}, {"time": 3701, "pitch": 62, "duration": 2, "velocity": 98}, {"time": 3704, "pitch": 47, "duration": 18, "velocity": 97}, {"time": 3707, "pitch": 54, "duration": 10, "velocity": 96}, {"time": 3710, "pitch": 59, "duration": 4, "velocity": 95}, {"time": 3713, "pitch": 62, "duration": 3, "velocity": 95}, {"time": 3716, "pitch": 66, "duration": 10, "velocity": 95}, {"time": 3719, "pitch": 54, "duration": 2, "velocity": 93}, {"time": 3722, "pitch": 62, "duration": 4, "velocity": 93}, {"time": 3725, "pitch": 59, "duration": 4, "velocity": 93}, {"time": 3728, "pitch": 40, "duration": 22, "velocity": 92}, {"time": 3731, "pitch": 47, "duration": 21, "velocity": 92}, {"time": 3734, "pitch": 52, "duration": 7, "velocity": 90}, {"time": 3737, "pitch": 59, "duration": 5, "velocity": 90}, {"time": 3740, "pitch": 68, "duration": 14, "velocity": 90}, {"time": 3743, "pitch": 52, "duration": 3, "velocity": 90}, {"time": 3746, "pitch": 64, "duration": 7, "velocity": 88}, {"time": 3749, "pitch": 59, "duration": 4, "velocity": 88}, {"time": 3752, "pitch": 40, "duration": 18, "velocity": 87}, {"time": 3755, "pitch": 47, "duration": 15, "velocity": 87}, {"time": 3758, "pitch": 52, "duration": 8, "velocity": 86}, {"time": 3761, "pitch": 59, "duration": 6, "velocity": 86}, {"time": 3764, "pitch": 68, "duration": 12, "velocity": 86}, {"time": 3767, "pitch": 52, "duration": 9, "velocity": 83}, {"time": 3770, "pitch": 64, "duration": 6, "velocity": 83}, {"time": 3773, "pitch": 59, "duration": 3, "velocity": 83}, {"time": 3776, "pitch": 45, "duration": 17, "velocity": 81}, {"time": 3779, "pitch": 52, "duration": 13, "velocity": 81}, {"time": 3782, "pitch": 57, "duration": 7, "velocity": 81}, {"time": 3785, "pitch": 64, "duration": 5, "velocity": 81}, {"time": 3788, "pitch": 73, "duration": 12, "velocity": 79}, {"time": 3791, "pitch": 57, "duration": 2, "velocity": 79}, {"time": 3794, "pitch": 69, "duration": 4, "velocity": 79}, {"time": 3797, "pitch": 64, "duration": 4, "velocity": 79}, {"time": 3800, "pitch": 44, "duration": 17, "velocity": 79}, {"time": 3803, "pitch": 56, "duration": 11, "velocity": 79}, {"time": 3806, "pitch": 64, "duration": 8, "velocity": 79}, {"time": 3809, "pitch": 68, "duration": 4, "velocity": 78}, {"time": 3812, "pitch": 73, "duration": 12, "velocity": 77}, {"time": 3815, "pitch": 56, "duration": 4, "velocity": 77}, {"time": 3818, "pitch": 68, "duration": 6, "velocity": 77}, {"time": 3821, "pitch": 64, "duration": 4, "velocity": 76}, {"time": 3824, "pitch": 47, "duration": 18, "velocity": 75}, {"time": 3827, "pitch": 54, "duration": 11, "velocity": 75}, {"time": 3830, "pitch": 59, "duration": 4, "velocity": 75}, {"time": 3833, "pitch": 62, "duration": 3, "velocity": 75}, {"time": 3836, "pitch": 66, "duration": 12, "velocity": 74}, {"time": 3839, "pitch": 54, "duration": 2, "velocity": 74}, {"time": 3842, "pitch": 62, "duration": 5, "velocity": 73}, {"time": 3845, "pitch": 59, "duration": 3, "velocity": 73}, {"time": 3848, "pitch": 42, "duration": 17, "velocity": 72}, {"time": 3851, "pitch": 49, "duration": 15, "velocity": 72}, {"time": 3854, "pitch": 54, "duration": 8, "velocity": 71}, {"time": 3857, "pitch": 61, "duration": 5, "velocity": 71}, {"time": 3860, "pitch": 69, "duration": 11, "velocity": 70}, {"time": 3863, "pitch": 54, "duration": 5, "velocity": 70}, {"time": 3866, "pitch": 66, "duration": 5, "velocity": 69}, {"time": 3869, "pitch": 61, "duration": 4, "velocity": 69}, {"time": 3872, "pitch": 49, "duration": 19, "velocity": 68}, {"time": 3875, "pitch": 56, "duration": 11, "velocity": 68}, {"time": 3878, "pitch": 61, "duration": 7, "velocity": 68}, {"time": 3881, "pitch": 64, "duration": 3, "velocity": 67}, {"time": 3884, "pitch": 68, "duration": 11, "velocity": 67}, {"time": 3887, "pitch": 56, "duration": 3, "velocity": 65}, {"time": 3890, "pitch": 64, "duration": 5, "velocity": 65}, {"time": 3893, "pitch": 61, "duration": 4, "velocity": 61}], "annotations": [{"time": 33, "annotation": {"number": 64, "value": 127}, "group": "control_change"}, {"time": 54, "annotation": {"number": 64, "value": 0}, "group": "control_change"}, {"time": 56, "annotation": {"number": 64, "value": 127}, "group": "control_change"}, {"time": 61, "annotation": {"number": 64, "value": 0}, "group": "control_change"}, {"time": 63, "annotation": {"number": 64, "value": 127}, "group": "control_change"}, {"time": 69, "annotation": {"number": 64, "value": 0}, "group": "control_change"}, {"time": 70, "annotation": {"number": 64, "value": 127}, "group": "control_change"}, {"time": 78, "annotation": {"number": 64, "value": 0}, "group": "control_change"}, {"time": 81, "annotation": {"number": 64, "value": 127}, "group": "control_change"}, {"time": 99, "annotation": {"number": 64, "value": 0}, "group": "control_change"}, {"time": 105, "annotation": {"number": 64, "value": 127}, "group": "control_change"}, {"time": 123, "annotation": {"number": 64, "value": 0}, "group": "control_change"}, {"time": 129, "annotation": {"number": 64, "value": 127}, "group": "control_change"}, {"time": 134, "annotation": {"number": 64, "value": 0}, "group": "control_change"}, {"time": 159, "annotation": {"number": 64, "value": 127}, "group": "control_change"}, {"time": 170, "annotation": {"number": 64, "value": 0}, "group": "control_change"}, {"time": 177, "annotation": {"number": 64, "value": 127}, "group": "control_change"}, {"time": 196, "annotation": {"number": 64, "value": 0}, "group": "control_change"}, {"time": 201, "annotation": {"number": 64, "value": 127}, "group": "control_change"}, {"time": 222, "annotation": {"number": 64, "value": 0}, "group": "control_change"}, {"time": 244, "annotation": {"number": 64, "value": 127}, "group": "control_change"}, {"time": 269, "annotation": {"number": 64, "value": 0}, "group": "control_change"}, {"time": 274, "annotation": {"number": 64, "value": 127}, "group": "control_change"}, {"time": 291, "annotation": {"number": 64, "value": 0}, "group": "control_change"}, {"time": 296, "annotation": {"number": 64, "value": 127}, "group": "control_change"}, {"time": 318, "annotation": {"number": 64, "value": 0}, "group": "control_change"}, {"time": 320, "annotation": {"number": 64, "value": 127}, "group": "control_change"}, {"time": 341, "annotation": {"number": 64, "value": 0}, "group": "control_change"}, {"time": 344, "annotation": {"number": 64, "value": 127}, "group": "control_change"}, {"time": 365, "annotation": {"number": 64, "value": 0}, "group": "control_change"}, {"time": 369, "annotation": {"number": 64, "value": 127}, "group": "control_change"}, {"time": 390, "annotation": {"number": 64, "value": 0}, "group": "control_change"}, {"time": 392, "annotation": {"number": 64, "value": 127}, "group": "control_change"}, {"time": 412, "annotation": {"number": 64, "value": 0}, "group": "control_change"}, {"time": 416, "annotation": {"number": 64, "value": 127}, "group": "control_change"}, {"time": 437, "annotation": {"number": 64, "value": 0}, "group": "control_change"}, {"time": 440, "annotation": {"number": 64, "value": 127}, "group": "control_change"}, {"time": 460, "annotation": {"number": 64, "value": 0}, "group": "control_change"}, {"time": 465, "annotation": {"number": 64, "value": 127}, "group": "control_change"}, {"time": 486, "annotation": {"number": 64, "value": 0}, "group": "control_change"}, {"time": 488, "annotation": {"number": 64, "value": 127}, "group": "control_change"}, {"time": 510, "annotation": {"number": 64, "value": 0}, "group": "control_change"}, {"time": 512, "annotation": {"number": 64, "value": 127}, "group": "control_change"}, {"time": 534, "annotation": {"number": 64, "value": 0}, "group": "control_change"}, {"time": 536, "annotation": {"number": 64, "value": 127}, "group": "control_change"}, {"time": 558, "annotation": {"number": 64, "value": 0}, "group": "control_change"}, {"time": 560, "annotation": {"number": 64, "value": 127}, "group": "control_change"}, {"time": 582, "annotation": {"number": 64, "value": 0}, "group": "control_change"}, {"time": 584, "annotation": {"number": 64, "value": 127}, "group": "control_change"}, {"time": 606, "annotation": {"number": 64, "value": 0}, "group": "control_change"}, {"time": 608, "annotation": {"number": 64, "value": 127}, "group": "control_change"}, {"time": 611, "annotation": {"number": 64, "value": 0}, "group": "control_change"}, {"time": 633, "annotation": {"number": 64, "value": 127}, "group": "control_change"}, {"time": 655, "annotation": {"number": 64, "value": 0}, "group": "control_change"}, {"time": 680, "annotation": {"number": 64, "value": 127}, "group": "control_change"}, {"time": 701, "annotation": {"number": 64, "value": 0}, "group": "control_change"}, {"time": 703, "annotation": {"number": 64, "value": 127}, "group": "control_change"}, {"time": 726, "annotation": {"number": 64, "value": 0}, "group": "control_change"}, {"time": 728, "annotation": {"number": 64, "value": 127}, "group": "control_change"}, {"time": 749, "annotation": {"number": 64, "value": 0}, "group": "control_change"}, {"time": 751, "annotation": {"number": 64, "value": 127}, "group": "control_change"}, {"time": 774, "annotation": {"number": 64, "value": 0}, "group": "control_change"}, {"time": 776, "annotation": {"number": 64, "value": 127}, "group": "control_change"}, {"time": 797, "annotation": {"number": 64, "value": 0}, "group": "control_change"}, {"time": 799, "annotation": {"number": 64, "value": 127}, "group": "control_change"}, {"time": 821, "annotation": {"number": 64, "value": 0}, "group": "control_change"}, {"time": 823, "annotation": {"number": 64, "value": 127}, "group": "control_change"}, {"time": 845, "annotation": {"number": 64, "value": 0}, "group": "control_change"}, {"time": 847, "annotation": {"number": 64, "value": 127}, "group": "control_change"}, {"time": 870, "annotation": {"number": 64, "value": 0}, "group": "control_change"}, {"time": 873, "annotation": {"number": 64, "value": 127}, "group": "control_change"}, {"time": 894, "annotation": {"number": 64, "value": 0}, "group": "control_change"}, {"time": 896, "annotation": {"number": 64, "value": 127}, "group": "control_change"}, {"time": 917, "annotation": {"number": 64, "value": 0}, "group": "control_change"}, {"time": 920, "annotation": {"number": 64, "value": 127}, "group": "control_change"}, {"time": 941, "annotation": {"number": 64, "value": 0}, "group": "control_change"}, {"time": 944, "annotation": {"number": 64, "value": 127}, "group": "control_change"}, {"time": 966, "annotation": {"number": 64, "value": 0}, "group": "control_change"}, {"time": 968, "annotation": {"number": 64, "value": 127}, "group": "control_change"}, {"time": 990, "annotation": {"number": 64, "value": 0}, "group": "control_change"}, {"time": 992, "annotation": {"number": 64, "value": 127}, "group": "control_change"}, {"time": 1014, "annotation": {"number": 64, "value": 0}, "group": "control_change"}, {"time": 1016, "annotation": {"number": 64, "value": 127}, "group": "control_change"}, {"time": 1037, "annotation": {"number": 64, "value": 0}, "group": "control_change"}, {"time": 1040, "annotation": {"number": 64, "value": 127}, "group": "control_change"}, {"time": 1061, "annotation": {"number": 64, "value": 0}, "group": "control_change"}, {"time": 1489, "annotation": {"number": 64, "value": 127}, "group": "control_change"}, {"time": 1529, "annotation": {"number": 64, "value": 0}, "group": "control_change"}, {"time": 1546, "annotation": {"number": 64, "value": 127}, "group": "control_change"}, {"time": 1563, "annotation": {"number": 64, "value": 0}, "group": "control_change"}, {"time": 1568, "annotation": {"number": 64, "value": 127}, "group": "control_change"}, {"time": 1590, "annotation": {"number": 64, "value": 0}, "group": "control_change"}, {"time": 1592, "annotation": {"number": 64, "value": 127}, "group": "control_change"}, {"time": 1613, "annotation": {"number": 64, "value": 0}, "group": "control_change"}, {"time": 1616, "annotation": {"number": 64, "value": 127}, "group": "control_change"}, {"time": 1637, "annotation": {"number": 64, "value": 0}, "group": "control_change"}, {"time": 1641, "annotation": {"number": 64, "value": 127}, "group": "control_change"}, {"time": 1662, "annotation": {"number": 64, "value": 0}, "group": "control_change"}, {"time": 1664, "annotation": {"number": 64, "value": 127}, "group": "control_change"}, {"time": 1684, "annotation": {"number": 64, "value": 0}, "group": "control_change"}, {"time": 1688, "annotation": {"number": 64, "value": 127}, "group": "control_change"}, {"time": 1709, "annotation": {"number": 64, "value": 0}, "group": "control_change"}, {"time": 1712, "annotation": {"number": 64, "value": 127}, "group": "control_change"}, {"time": 1732, "annotation": {"number": 64, "value": 0}, "group": "control_change"}, {"time": 1737, "annotation": {"number": 64, "value": 127}, "group": "control_change"}, {"time": 1758, "annotation": {"number": 64, "value": 0}, "group": "control_change"}, {"time": 1760, "annotation": {"number": 64, "value": 127}, "group": "control_change"}, {"time": 1782, "annotation": {"number": 64, "value": 0}, "group": "control_change"}, {"time": 1784, "annotation": {"number": 64, "value": 127}, "group": "control_change"}, {"time": 1806, "annotation": {"number": 64, "value": 0}, "group": "control_change"}, {"time": 1808, "annotation": {"number": 64, "value": 127}, "group": "control_change"}, {"time": 1830, "annotation": {"number": 64, "value": 0}, "group": "control_change"}, {"time": 1832, "annotation": {"number": 64, "value": 127}, "group": "control_change"}, {"time": 1854, "annotation": {"number": 64, "value": 0}, "group": "control_change"}, {"time": 1856, "annotation": {"number": 64, "value": 127}, "group": "control_change"}, {"time": 1878, "annotation": {"number": 64, "value": 0}, "group": "control_change"}, {"time": 1880, "annotation": {"number": 64, "value": 127}, "group": "control_change"}, {"time": 1883, "annotation": {"number": 64, "value": 0}, "group": "control_change"}, {"time": 1905, "annotation": {"number": 64, "value": 127}, "group": "control_change"}, {"time": 1927, "annotation": {"number": 64, "value": 0}, "group": "control_change"}, {"time": 1952, "annotation": {"number": 64, "value": 127}, "group": "control_change"}, {"time": 1973, "annotation": {"number": 64, "value": 0}, "group": "control_change"}, {"time": 1975, "annotation": {"number": 64, "value": 127}, "group": "control_change"}, {"time": 1998, "annotation": {"number": 64, "value": 0}, "group": "control_change"}, {"time": 2000, "annotation": {"number": 64, "value": 127}, "group": "control_change"}, {"time": 2021, "annotation": {"number": 64, "value": 0}, "group": "control_change"}, {"time": 2023, "annotation": {"number": 64, "value": 127}, "group": "control_change"}, {"time": 2046, "annotation": {"number": 64, "value": 0}, "group": "control_change"}, {"time": 2048, "annotation": {"number": 64, "value": 127}, "group": "control_change"}, {"time": 2069, "annotation": {"number": 64, "value": 0}, "group": "control_change"}, {"time": 2071, "annotation": {"number": 64, "value": 127}, "group": "control_change"}, {"time": 2093, "annotation": {"number": 64, "value": 0}, "group": "control_change"}, {"time": 2095, "annotation": {"number": 64, "value": 127}, "group": "control_change"}, {"time": 2117, "annotation": {"number": 64, "value": 0}, "group": "control_change"}, {"time": 2119, "annotation": {"number": 64, "value": 127}, "group": "control_change"}, {"time": 2142, "annotation": {"number": 64, "value": 0}, "group": "control_change"}, {"time": 2145, "annotation": {"number": 64, "value": 127}, "group": "control_change"}, {"time": 2166, "annotation": {"number": 64, "value": 0}, "group": "control_change"}, {"time": 2168, "annotation": {"number": 64, "value": 127}, "group": "control_change"}, {"time": 2189, "annotation": {"number": 64, "value": 0}, "group": "control_change"}, {"time": 2192, "annotation": {"number": 64, "value": 127}, "group": "control_change"}, {"time": 2213, "annotation": {"number": 64, "value": 0}, "group": "control_change"}, {"time": 2216, "annotation": {"number": 64, "value": 127}, "group": "control_change"}, {"time": 2238, "annotation": {"number": 64, "value": 0}, "group": "control_change"}, {"time": 2240, "annotation": {"number": 64, "value": 127}, "group": "control_change"}, {"time": 2262, "annotation": {"number": 64, "value": 0}, "group": "control_change"}, {"time": 2264, "annotation": {"number": 64, "value": 127}, "group": "control_change"}, {"time": 2286, "annotation": {"number": 64, "value": 0}, "group": "control_change"}, {"time": 2288, "annotation": {"number": 64, "value": 127}, "group": "control_change"}, {"time": 2309, "annotation": {"number": 64, "value": 0}, "group": "control_change"}, {"time": 2312, "annotation": {"number": 64, "value": 127}, "group": "control_change"}, {"time": 2350, "annotation": {"number": 64, "value": 127}, "group": "control_change"}, {"time": 2356, "annotation": {"number": 64, "value": 0}, "group": "control_change"}, {"time": 2432, "annotation": {"number": 64, "value": 127}, "group": "control_change"}, {"time": 2453, "annotation": {"number": 64, "value": 0}, "group": "control_change"}, {"time": 2455, "annotation": {"number": 64, "value": 127}, "group": "control_change"}, {"time": 2478, "annotation": {"number": 64, "value": 0}, "group": "control_change"}, {"time": 2480, "annotation": {"number": 64, "value": 127}, "group": "control_change"}, {"time": 2501, "annotation": {"number": 64, "value": 0}, "group": "control_change"}, {"time": 2503, "annotation": {"number": 64, "value": 127}, "group": "control_change"}, {"time": 2526, "annotation": {"number": 64, "value": 0}, "group": "control_change"}, {"time": 2528, "annotation": {"number": 64, "value": 127}, "group": "control_change"}, {"time": 2549, "annotation": {"number": 64, "value": 0}, "group": "control_change"}, {"time": 2551, "annotation": {"number": 64, "value": 127}, "group": "control_change"}, {"time": 2573, "annotation": {"number": 64, "value": 0}, "group": "control_change"}, {"time": 2575, "annotation": {"number": 64, "value": 127}, "group": "control_change"}, {"time": 2597, "annotation": {"number": 64, "value": 0}, "group": "control_change"}, {"time": 2599, "annotation": {"number": 64, "value": 127}, "group": "control_change"}, {"time": 2622, "annotation": {"number": 64, "value": 0}, "group": "control_change"}, {"time": 2625, "annotation": {"number": 64, "value": 127}, "group": "control_change"}, {"time": 2646, "annotation": {"number": 64, "value": 0}, "group": "control_change"}, {"time": 2648, "annotation": {"number": 64, "value": 127}, "group": "control_change"}, {"time": 2669, "annotation": {"number": 64, "value": 0}, "group": "control_change"}, {"time": 2672, "annotation": {"number": 64, "value": 127}, "group": "control_change"}, {"time": 2693, "annotation": {"number": 64, "value": 0}, "group": "control_change"}, {"time": 2696, "annotation": {"number": 64, "value": 127}, "group": "control_change"}, {"time": 2718, "annotation": {"number": 64, "value": 0}, "group": "control_change"}, {"time": 2720, "annotation": {"number": 64, "value": 127}, "group": "control_change"}, {"time": 2742, "annotation": {"number": 64, "value": 0}, "group": "control_change"}, {"time": 2744, "annotation": {"number": 64, "value": 127}, "group": "control_change"}, {"time": 2766, "annotation": {"number": 64, "value": 0}, "group": "control_change"}, {"time": 2768, "annotation": {"number": 64, "value": 127}, "group": "control_change"}, {"time": 2789, "annotation": {"number": 64, "value": 0}, "group": "control_change"}, {"time": 2792, "annotation": {"number": 64, "value": 127}, "group": "control_change"}, {"time": 2811, "annotation": {"number": 64, "value": 0}, "group": "control_change"}, {"time": 2816, "annotation": {"number": 64, "value": 127}, "group": "control_change"}, {"time": 2837, "annotation": {"number": 64, "value": 0}, "group": "control_change"}, {"time": 2839, "annotation": {"number": 64, "value": 127}, "group": "control_change"}, {"time": 2862, "annotation": {"number": 64, "value": 0}, "group": "control_change"}, {"time": 2864, "annotation": {"number": 64, "value": 127}, "group": "control_change"}, {"time": 2885, "annotation": {"number": 64, "value": 0}, "group": "control_change"}, {"time": 2887, "annotation": {"number": 64, "value": 127}, "group": "control_change"}, {"time": 2910, "annotation": {"number": 64, "value": 0}, "group": "control_change"}, {"time": 2912, "annotation": {"number": 64, "value": 127}, "group": "control_change"}, {"time": 2933, "annotation": {"number": 64, "value": 0}, "group": "control_change"}, {"time": 2935, "annotation": {"number": 64, "value": 127}, "group": "control_change"}, {"time": 2957, "annotation": {"number": 64, "value": 0}, "group": "control_change"}, {"time": 2959, "annotation": {"number": 64, "value": 127}, "group": "control_change"}, {"time": 2981, "annotation": {"number": 64, "value": 0}, "group": "control_change"}, {"time": 2983, "annotation": {"number": 64, "value": 127}, "group": "control_change"}, {"time": 3006, "annotation": {"number": 64, "value": 0}, "group": "control_change"}, {"time": 3009, "annotation": {"number": 64, "value": 127}, "group": "control_change"}, {"time": 3030, "annotation": {"number": 64, "value": 0}, "group": "control_change"}, {"time": 3032, "annotation": {"number": 64, "value": 127}, "group": "control_change"}, {"time": 3053, "annotation": {"number": 64, "value": 0}, "group": "control_change"}, {"time": 3056, "annotation": {"number": 64, "value": 127}, "group": "control_change"}, {"time": 3077, "annotation": {"number": 64, "value": 0}, "group": "control_change"}, {"time": 3080, "annotation": {"number": 64, "value": 127}, "group": "control_change"}, {"time": 3102, "annotation": {"number": 64, "value": 0}, "group": "control_change"}, {"time": 3104, "annotation": {"number": 64, "value": 127}, "group": "control_change"}, {"time": 3126, "annotation": {"number": 64, "value": 0}, "group": "control_change"}, {"time": 3128, "annotation": {"number": 64, "value": 127}, "group": "control_change"}, {"time": 3150, "annotation": {"number": 64, "value": 0}, "group": "control_change"}, {"time": 3152, "annotation": {"number": 64, "value": 127}, "group": "control_change"}, {"time": 3173, "annotation": {"number": 64, "value": 0}, "group": "control_change"}, {"time": 3176, "annotation": {"number": 64, "value": 127}, "group": "control_change"}, {"time": 3195, "annotation": {"number": 64, "value": 0}, "group": "control_change"}, {"time": 3200, "annotation": {"number": 64, "value": 127}, "group": "control_change"}, {"time": 3221, "annotation": {"number": 64, "value": 0}, "group": "control_change"}, {"time": 3223, "annotation": {"number": 64, "value": 127}, "group": "control_change"}, {"time": 3246, "annotation": {"number": 64, "value": 0}, "group": "control_change"}, {"time": 3248, "annotation": {"number": 64, "value": 127}, "group": "control_change"}, {"time": 3269, "annotation": {"number": 64, "value": 0}, "group": "control_change"}, {"time": 3271, "annotation": {"number": 64, "value": 127}, "group": "control_change"}, {"time": 3294, "annotation": {"number": 64, "value": 0}, "group": "control_change"}, {"time": 3296, "annotation": {"number": 64, "value": 127}, "group": "control_change"}, {"time": 3317, "annotation": {"number": 64, "value": 0}, "group": "control_change"}, {"time": 3319, "annotation": {"number": 64, "value": 127}, "group": "control_change"}, {"time": 3341, "annotation": {"number": 64, "value": 0}, "group": "control_change"}, {"time": 3343, "annotation": {"number": 64, "value": 127}, "group": "control_change"}, {"time": 3365, "annotation": {"number": 64, "value": 0}, "group": "control_change"}, {"time": 3367, "annotation": {"number": 64, "value": 127}, "group": "control_change"}, {"time": 3390, "annotation": {"number": 64, "value": 0}, "group": "control_change"}, {"time": 3393, "annotation": {"number": 64, "value": 127}, "group": "control_change"}, {"time": 3414, "annotation": {"number": 64, "value": 0}, "group": "control_change"}, {"time": 3416, "annotation": {"number": 64, "value": 127}, "group": "control_change"}, {"time": 3437, "annotation": {"number": 64, "value": 0}, "group": "control_change"}, {"time": 3440, "annotation": {"number": 64, "value": 127}, "group": "control_change"}, {"time": 3461, "annotation": {"number": 64, "value": 0}, "group": "control_change"}, {"time": 3464, "annotation": {"number": 64, "value": 127}, "group": "control_change"}, {"time": 3486, "annotation": {"number": 64, "value": 0}, "group": "control_change"}, {"time": 3488, "annotation": {"number": 64, "value": 127}, "group": "control_change"}, {"time": 3510, "annotation": {"number": 64, "value": 0}, "group": "control_change"}, {"time": 3512, "annotation": {"number": 64, "value": 127}, "group": "control_change"}, {"time": 3534, "annotation": {"number": 64, "value": 0}, "group": "control_change"}, {"time": 3536, "annotation": {"number": 64, "value": 127}, "group": "control_change"}, {"time": 3557, "annotation": {"number": 64, "value": 0}, "group": "control_change"}, {"time": 3560, "annotation": {"number": 64, "value": 127}, "group": "control_change"}, {"time": 3579, "annotation": {"number": 64, "value": 0}, "group": "control_change"}, {"time": 3584, "annotation": {"number": 64, "value": 127}, "group": "control_change"}, {"time": 3605, "annotation": {"number": 64, "value": 0}, "group": "control_change"}, {"time": 3607, "annotation": {"number": 64, "value": 127}, "group": "control_change"}, {"time": 3630, "annotation": {"number": 64, "value": 0}, "group": "control_change"}, {"time": 3632, "annotation": {"number": 64, "value": 127}, "group": "control_change"}, {"time": 3653, "annotation": {"number": 64, "value": 0}, "group": "control_change"}, {"time": 3655, "annotation": {"number": 64, "value": 127}, "group": "control_change"}, {"time": 3678, "annotation": {"number": 64, "value": 0}, "group": "control_change"}, {"time": 3680, "annotation": {"number": 64, "value": 127}, "group": "control_change"}, {"time": 3701, "annotation": {"number": 64, "value": 0}, "group": "control_change"}, {"time": 3703, "annotation": {"number": 64, "value": 127}, "group": "control_change"}, {"time": 3725, "annotation": {"number": 64, "value": 0}, "group": "control_change"}, {"time": 3727, "annotation": {"number": 64, "value": 127}, "group": "control_change"}, {"time": 3749, "annotation": {"number": 64, "value": 0}, "group": "control_change"}, {"time": 3751, "annotation": {"number": 64, "value": 127}, "group": "control_change"}, {"time": 3774, "annotation": {"number": 64, "value": 0}, "group": "control_change"}, {"time": 3777, "annotation": {"number": 64, "value": 127}, "group": "control_change"}, {"time": 3798, "annotation": {"number": 64, "value": 0}, "group": "control_change"}, {"time": 3800, "annotation": {"number": 64, "value": 127}, "group": "control_change"}, {"time": 3821, "annotation": {"number": 64, "value": 0}, "group": "control_change"}, {"time": 3824, "annotation": {"number": 64, "value": 127}, "group": "control_change"}, {"time": 3845, "annotation": {"number": 64, "value": 0}, "group": "control_change"}, {"time": 3848, "annotation": {"number": 64, "value": 127}, "group": "control_change"}, {"time": 3870, "annotation": {"number": 64, "value": 0}, "group": "control_change"}, {"time": 3872, "annotation": {"number": 64, "value": 127}, "group": "control_change"}, {"time": 3894, "annotation": {"number": 64, "value": 0}, "group": "control_change"}, {"time": 3896, "annotation": {"number": 64, "value": 127}, "group": "control_change"}]}]}