{"metadata": {"schema_version": "0.2", "title": "None", "source_filename": "454.mid", "source_format": "midi"}, "resolution": 12, "tempos": [{"time": 0, "qpm": 112.00026880064512}], "key_signatures": [{"time": 0, "root": 0, "mode": "major"}], "time_signatures": [{"time": 0, "numerator": 4, "denominator": 4}, {"time": 0, "numerator": 1, "denominator": 4}], "tracks": [{"program": 0, "is_drum": false, "name": "MELODY", "notes": [{"time": 104, "pitch": 70, "duration": 6, "velocity": 127}, {"time": 110, "pitch": 72, "duration": 4, "velocity": 96}, {"time": 116, "pitch": 72, "duration": 10, "velocity": 127}, {"time": 128, "pitch": 70, "duration": 39, "velocity": 127}, {"time": 296, "pitch": 68, "duration": 9, "velocity": 127}, {"time": 308, "pitch": 70, "duration": 48, "velocity": 127}, {"time": 344, "pitch": 75, "duration": 9, "velocity": 127}, {"time": 356, "pitch": 72, "duration": 11, "velocity": 112}, {"time": 368, "pitch": 70, "duration": 30, "velocity": 122}, {"time": 404, "pitch": 58, "duration": 4, "velocity": 122}, {"time": 410, "pitch": 65, "duration": 8, "velocity": 112}, {"time": 416, "pitch": 67, "duration": 7, "velocity": 127}, {"time": 428, "pitch": 67, "duration": 6, "velocity": 127}, {"time": 440, "pitch": 65, "duration": 2, "velocity": 96}, {"time": 446, "pitch": 65, "duration": 3, "velocity": 100}, {"time": 452, "pitch": 65, "duration": 2, "velocity": 100}, {"time": 458, "pitch": 65, "duration": 3, "velocity": 102}, {"time": 464, "pitch": 63, "duration": 7, "velocity": 112}, {"time": 476, "pitch": 67, "duration": 16, "velocity": 117}, {"time": 500, "pitch": 62, "duration": 8, "velocity": 127}, {"time": 512, "pitch": 62, "duration": 2, "velocity": 117}, {"time": 518, "pitch": 62, "duration": 2, "velocity": 102}, {"time": 524, "pitch": 62, "duration": 2, "velocity": 97}, {"time": 530, "pitch": 62, "duration": 5, "velocity": 112}, {"time": 536, "pitch": 60, "duration": 5, "velocity": 86}, {"time": 542, "pitch": 62, "duration": 3, "velocity": 102}, {"time": 548, "pitch": 63, "duration": 15, "velocity": 117}, {"time": 596, "pitch": 60, "duration": 4, "velocity": 97}, {"time": 602, "pitch": 67, "duration": 6, "velocity": 127}, {"time": 608, "pitch": 68, "duration": 7, "velocity": 122}, {"time": 620, "pitch": 68, "duration": 9, "velocity": 127}, {"time": 632, "pitch": 67, "duration": 3, "velocity": 107}, {"time": 638, "pitch": 67, "duration": 3, "velocity": 102}, {"time": 644, "pitch": 67, "duration": 3, "velocity": 117}, {"time": 650, "pitch": 67, "duration": 4, "velocity": 127}, {"time": 656, "pitch": 65, "duration": 3, "velocity": 112}, {"time": 662, "pitch": 67, "duration": 3, "velocity": 112}, {"time": 668, "pitch": 68, "duration": 8, "velocity": 127}, {"time": 686, "pitch": 60, "duration": 5, "velocity": 107}, {"time": 692, "pitch": 62, "duration": 4, "velocity": 99}, {"time": 698, "pitch": 63, "duration": 8, "velocity": 117}, {"time": 710, "pitch": 63, "duration": 8, "velocity": 127}, {"time": 722, "pitch": 63, "duration": 5, "velocity": 127}, {"time": 728, "pitch": 62, "duration": 5, "velocity": 92}, {"time": 734, "pitch": 63, "duration": 4, "velocity": 112}, {"time": 740, "pitch": 65, "duration": 29, "velocity": 117}, {"time": 788, "pitch": 58, "duration": 4, "velocity": 122}, {"time": 794, "pitch": 65, "duration": 8, "velocity": 112}, {"time": 800, "pitch": 67, "duration": 7, "velocity": 127}, {"time": 812, "pitch": 67, "duration": 6, "velocity": 127}, {"time": 824, "pitch": 65, "duration": 2, "velocity": 96}, {"time": 830, "pitch": 65, "duration": 3, "velocity": 100}, {"time": 836, "pitch": 65, "duration": 2, "velocity": 100}, {"time": 842, "pitch": 65, "duration": 3, "velocity": 102}, {"time": 848, "pitch": 63, "duration": 7, "velocity": 112}, {"time": 860, "pitch": 67, "duration": 16, "velocity": 117}, {"time": 884, "pitch": 62, "duration": 8, "velocity": 127}, {"time": 896, "pitch": 62, "duration": 2, "velocity": 117}, {"time": 902, "pitch": 62, "duration": 2, "velocity": 102}, {"time": 908, "pitch": 62, "duration": 2, "velocity": 97}, {"time": 914, "pitch": 62, "duration": 5, "velocity": 112}, {"time": 920, "pitch": 60, "duration": 5, "velocity": 86}, {"time": 926, "pitch": 62, "duration": 3, "velocity": 102}, {"time": 932, "pitch": 63, "duration": 15, "velocity": 117}, {"time": 980, "pitch": 60, "duration": 4, "velocity": 97}, {"time": 986, "pitch": 67, "duration": 6, "velocity": 127}, {"time": 992, "pitch": 68, "duration": 7, "velocity": 122}, {"time": 1004, "pitch": 68, "duration": 9, "velocity": 127}, {"time": 1016, "pitch": 67, "duration": 3, "velocity": 107}, {"time": 1022, "pitch": 67, "duration": 3, "velocity": 102}, {"time": 1028, "pitch": 67, "duration": 3, "velocity": 117}, {"time": 1034, "pitch": 67, "duration": 4, "velocity": 127}, {"time": 1040, "pitch": 65, "duration": 3, "velocity": 112}, {"time": 1046, "pitch": 67, "duration": 3, "velocity": 112}, {"time": 1052, "pitch": 68, "duration": 8, "velocity": 127}, {"time": 1070, "pitch": 65, "duration": 3, "velocity": 122}, {"time": 1076, "pitch": 67, "duration": 3, "velocity": 117}, {"time": 1082, "pitch": 68, "duration": 7, "velocity": 127}, {"time": 1094, "pitch": 68, "duration": 7, "velocity": 122}, {"time": 1106, "pitch": 68, "duration": 4, "velocity": 127}, {"time": 1112, "pitch": 67, "duration": 3, "velocity": 95}, {"time": 1118, "pitch": 68, "duration": 2, "velocity": 122}, {"time": 1124, "pitch": 70, "duration": 43, "velocity": 127}, {"time": 1172, "pitch": 70, "duration": 2, "velocity": 127}, {"time": 1178, "pitch": 70, "duration": 4, "velocity": 127}, {"time": 1184, "pitch": 67, "duration": 2, "velocity": 117}, {"time": 1190, "pitch": 67, "duration": 4, "velocity": 127}, {"time": 1196, "pitch": 65, "duration": 2, "velocity": 93}, {"time": 1202, "pitch": 65, "duration": 4, "velocity": 112}, {"time": 1208, "pitch": 63, "duration": 5, "velocity": 107}, {"time": 1220, "pitch": 63, "duration": 3, "velocity": 127}, {"time": 1226, "pitch": 65, "duration": 2, "velocity": 107}, {"time": 1232, "pitch": 65, "duration": 3, "velocity": 99}, {"time": 1238, "pitch": 63, "duration": 3, "velocity": 117}, {"time": 1244, "pitch": 67, "duration": 17, "velocity": 117}, {"time": 1268, "pitch": 70, "duration": 2, "velocity": 127}, {"time": 1274, "pitch": 70, "duration": 2, "velocity": 127}, {"time": 1280, "pitch": 72, "duration": 2, "velocity": 122}, {"time": 1286, "pitch": 72, "duration": 2, "velocity": 112}, {"time": 1292, "pitch": 67, "duration": 2, "velocity": 127}, {"time": 1298, "pitch": 67, "duration": 2, "velocity": 122}, {"time": 1304, "pitch": 65, "duration": 2, "velocity": 99}, {"time": 1310, "pitch": 65, "duration": 2, "velocity": 102}, {"time": 1316, "pitch": 63, "duration": 2, "velocity": 127}, {"time": 1322, "pitch": 63, "duration": 23, "velocity": 127}, {"time": 1358, "pitch": 60, "duration": 3, "velocity": 107}, {"time": 1364, "pitch": 60, "duration": 4, "velocity": 100}, {"time": 1370, "pitch": 67, "duration": 6, "velocity": 127}, {"time": 1376, "pitch": 68, "duration": 2, "velocity": 122}, {"time": 1382, "pitch": 68, "duration": 3, "velocity": 127}, {"time": 1388, "pitch": 68, "duration": 9, "velocity": 127}, {"time": 1406, "pitch": 67, "duration": 3, "velocity": 122}, {"time": 1412, "pitch": 67, "duration": 2, "velocity": 96}, {"time": 1418, "pitch": 67, "duration": 3, "velocity": 122}, {"time": 1424, "pitch": 65, "duration": 3, "velocity": 99}, {"time": 1430, "pitch": 67, "duration": 2, "velocity": 127}, {"time": 1436, "pitch": 68, "duration": 7, "velocity": 127}, {"time": 1448, "pitch": 65, "duration": 2, "velocity": 112}, {"time": 1454, "pitch": 65, "duration": 2, "velocity": 117}, {"time": 1460, "pitch": 67, "duration": 2, "velocity": 127}, {"time": 1466, "pitch": 68, "duration": 7, "velocity": 127}, {"time": 1478, "pitch": 68, "duration": 2, "velocity": 127}, {"time": 1484, "pitch": 68, "duration": 2, "velocity": 127}, {"time": 1490, "pitch": 68, "duration": 4, "velocity": 127}, {"time": 1496, "pitch": 67, "duration": 5, "velocity": 112}, {"time": 1502, "pitch": 68, "duration": 3, "velocity": 127}, {"time": 1508, "pitch": 70, "duration": 39, "velocity": 127}, {"time": 1556, "pitch": 70, "duration": 2, "velocity": 127}, {"time": 1562, "pitch": 70, "duration": 4, "velocity": 127}, {"time": 1568, "pitch": 67, "duration": 2, "velocity": 117}, {"time": 1574, "pitch": 67, "duration": 4, "velocity": 127}, {"time": 1580, "pitch": 65, "duration": 2, "velocity": 93}, {"time": 1586, "pitch": 65, "duration": 4, "velocity": 112}, {"time": 1592, "pitch": 63, "duration": 5, "velocity": 107}, {"time": 1604, "pitch": 63, "duration": 3, "velocity": 127}, {"time": 1610, "pitch": 65, "duration": 2, "velocity": 107}, {"time": 1616, "pitch": 65, "duration": 3, "velocity": 99}, {"time": 1622, "pitch": 63, "duration": 3, "velocity": 117}, {"time": 1628, "pitch": 67, "duration": 17, "velocity": 117}, {"time": 1652, "pitch": 70, "duration": 2, "velocity": 127}, {"time": 1658, "pitch": 70, "duration": 2, "velocity": 127}, {"time": 1664, "pitch": 72, "duration": 2, "velocity": 122}, {"time": 1670, "pitch": 72, "duration": 2, "velocity": 112}, {"time": 1676, "pitch": 67, "duration": 2, "velocity": 127}, {"time": 1682, "pitch": 67, "duration": 2, "velocity": 122}, {"time": 1688, "pitch": 65, "duration": 2, "velocity": 99}, {"time": 1694, "pitch": 65, "duration": 2, "velocity": 102}, {"time": 1700, "pitch": 63, "duration": 2, "velocity": 127}, {"time": 1706, "pitch": 63, "duration": 23, "velocity": 127}, {"time": 1742, "pitch": 60, "duration": 3, "velocity": 107}, {"time": 1748, "pitch": 60, "duration": 4, "velocity": 100}, {"time": 1754, "pitch": 67, "duration": 6, "velocity": 127}, {"time": 1760, "pitch": 68, "duration": 2, "velocity": 122}, {"time": 1766, "pitch": 68, "duration": 3, "velocity": 127}, {"time": 1772, "pitch": 68, "duration": 9, "velocity": 127}, {"time": 1790, "pitch": 67, "duration": 3, "velocity": 122}, {"time": 1796, "pitch": 67, "duration": 2, "velocity": 96}, {"time": 1802, "pitch": 67, "duration": 3, "velocity": 122}, {"time": 1808, "pitch": 65, "duration": 3, "velocity": 99}, {"time": 1814, "pitch": 67, "duration": 2, "velocity": 127}, {"time": 1820, "pitch": 68, "duration": 7, "velocity": 127}, {"time": 1832, "pitch": 65, "duration": 2, "velocity": 112}, {"time": 1838, "pitch": 65, "duration": 2, "velocity": 117}, {"time": 1844, "pitch": 67, "duration": 2, "velocity": 127}, {"time": 1850, "pitch": 68, "duration": 7, "velocity": 127}, {"time": 1862, "pitch": 68, "duration": 2, "velocity": 127}, {"time": 1868, "pitch": 68, "duration": 2, "velocity": 127}, {"time": 1874, "pitch": 68, "duration": 4, "velocity": 127}, {"time": 1880, "pitch": 67, "duration": 5, "velocity": 112}, {"time": 1886, "pitch": 68, "duration": 3, "velocity": 127}, {"time": 1892, "pitch": 70, "duration": 18, "velocity": 127}, {"time": 1916, "pitch": 67, "duration": 2, "velocity": 117}, {"time": 1922, "pitch": 67, "duration": 5, "velocity": 122}, {"time": 1928, "pitch": 65, "duration": 4, "velocity": 112}, {"time": 1934, "pitch": 63, "duration": 2, "velocity": 117}, {"time": 1940, "pitch": 63, "duration": 50, "velocity": 127}, {"time": 2360, "pitch": 70, "duration": 6, "velocity": 122}, {"time": 2366, "pitch": 72, "duration": 3, "velocity": 83}, {"time": 2372, "pitch": 72, "duration": 12, "velocity": 127}, {"time": 2384, "pitch": 70, "duration": 45, "velocity": 122}, {"time": 2516, "pitch": 58, "duration": 4, "velocity": 122}, {"time": 2522, "pitch": 65, "duration": 8, "velocity": 112}, {"time": 2528, "pitch": 67, "duration": 7, "velocity": 127}, {"time": 2540, "pitch": 67, "duration": 6, "velocity": 127}, {"time": 2552, "pitch": 65, "duration": 2, "velocity": 96}, {"time": 2558, "pitch": 65, "duration": 3, "velocity": 100}, {"time": 2564, "pitch": 65, "duration": 2, "velocity": 100}, {"time": 2570, "pitch": 65, "duration": 3, "velocity": 102}, {"time": 2576, "pitch": 63, "duration": 7, "velocity": 112}, {"time": 2588, "pitch": 67, "duration": 16, "velocity": 117}, {"time": 2612, "pitch": 62, "duration": 8, "velocity": 127}, {"time": 2624, "pitch": 62, "duration": 2, "velocity": 117}, {"time": 2630, "pitch": 62, "duration": 2, "velocity": 102}, {"time": 2636, "pitch": 62, "duration": 2, "velocity": 97}, {"time": 2642, "pitch": 62, "duration": 5, "velocity": 112}, {"time": 2648, "pitch": 60, "duration": 5, "velocity": 86}, {"time": 2654, "pitch": 62, "duration": 3, "velocity": 102}, {"time": 2660, "pitch": 63, "duration": 15, "velocity": 117}, {"time": 2708, "pitch": 60, "duration": 4, "velocity": 97}, {"time": 2714, "pitch": 67, "duration": 6, "velocity": 127}, {"time": 2720, "pitch": 68, "duration": 7, "velocity": 122}, {"time": 2732, "pitch": 68, "duration": 9, "velocity": 127}, {"time": 2744, "pitch": 67, "duration": 3, "velocity": 107}, {"time": 2750, "pitch": 67, "duration": 3, "velocity": 102}, {"time": 2756, "pitch": 67, "duration": 3, "velocity": 117}, {"time": 2762, "pitch": 67, "duration": 4, "velocity": 127}, {"time": 2768, "pitch": 65, "duration": 3, "velocity": 112}, {"time": 2774, "pitch": 67, "duration": 3, "velocity": 112}, {"time": 2780, "pitch": 68, "duration": 8, "velocity": 127}, {"time": 2798, "pitch": 65, "duration": 3, "velocity": 122}, {"time": 2804, "pitch": 67, "duration": 3, "velocity": 117}, {"time": 2810, "pitch": 68, "duration": 7, "velocity": 127}, {"time": 2822, "pitch": 68, "duration": 7, "velocity": 122}, {"time": 2834, "pitch": 68, "duration": 4, "velocity": 127}, {"time": 2840, "pitch": 67, "duration": 3, "velocity": 95}, {"time": 2846, "pitch": 68, "duration": 2, "velocity": 122}, {"time": 2852, "pitch": 70, "duration": 43, "velocity": 127}, {"time": 2900, "pitch": 70, "duration": 2, "velocity": 127}, {"time": 2906, "pitch": 70, "duration": 4, "velocity": 127}, {"time": 2912, "pitch": 67, "duration": 2, "velocity": 117}, {"time": 2918, "pitch": 67, "duration": 4, "velocity": 127}, {"time": 2924, "pitch": 65, "duration": 2, "velocity": 93}, {"time": 2930, "pitch": 65, "duration": 4, "velocity": 112}, {"time": 2936, "pitch": 63, "duration": 5, "velocity": 107}, {"time": 2948, "pitch": 63, "duration": 3, "velocity": 127}, {"time": 2954, "pitch": 65, "duration": 2, "velocity": 107}, {"time": 2960, "pitch": 65, "duration": 3, "velocity": 99}, {"time": 2966, "pitch": 63, "duration": 3, "velocity": 117}, {"time": 2972, "pitch": 67, "duration": 17, "velocity": 117}, {"time": 2996, "pitch": 70, "duration": 2, "velocity": 127}, {"time": 3002, "pitch": 70, "duration": 2, "velocity": 127}, {"time": 3008, "pitch": 72, "duration": 2, "velocity": 122}, {"time": 3014, "pitch": 72, "duration": 2, "velocity": 112}, {"time": 3020, "pitch": 67, "duration": 2, "velocity": 127}, {"time": 3026, "pitch": 67, "duration": 2, "velocity": 122}, {"time": 3032, "pitch": 65, "duration": 2, "velocity": 99}, {"time": 3038, "pitch": 65, "duration": 2, "velocity": 102}, {"time": 3044, "pitch": 63, "duration": 2, "velocity": 127}, {"time": 3050, "pitch": 63, "duration": 23, "velocity": 127}, {"time": 3086, "pitch": 60, "duration": 3, "velocity": 107}, {"time": 3092, "pitch": 60, "duration": 4, "velocity": 100}, {"time": 3098, "pitch": 67, "duration": 6, "velocity": 127}, {"time": 3104, "pitch": 68, "duration": 2, "velocity": 122}, {"time": 3110, "pitch": 68, "duration": 3, "velocity": 127}, {"time": 3116, "pitch": 68, "duration": 9, "velocity": 127}, {"time": 3134, "pitch": 67, "duration": 3, "velocity": 122}, {"time": 3140, "pitch": 67, "duration": 2, "velocity": 96}, {"time": 3146, "pitch": 67, "duration": 3, "velocity": 122}, {"time": 3152, "pitch": 65, "duration": 3, "velocity": 99}, {"time": 3158, "pitch": 67, "duration": 2, "velocity": 127}, {"time": 3164, "pitch": 68, "duration": 7, "velocity": 127}, {"time": 3176, "pitch": 65, "duration": 2, "velocity": 112}, {"time": 3182, "pitch": 65, "duration": 2, "velocity": 117}, {"time": 3188, "pitch": 67, "duration": 2, "velocity": 127}, {"time": 3194, "pitch": 68, "duration": 7, "velocity": 127}, {"time": 3206, "pitch": 68, "duration": 2, "velocity": 127}, {"time": 3212, "pitch": 68, "duration": 2, "velocity": 127}, {"time": 3218, "pitch": 68, "duration": 4, "velocity": 127}, {"time": 3224, "pitch": 67, "duration": 5, "velocity": 112}, {"time": 3230, "pitch": 68, "duration": 3, "velocity": 127}, {"time": 3236, "pitch": 70, "duration": 39, "velocity": 127}, {"time": 3284, "pitch": 70, "duration": 2, "velocity": 127}, {"time": 3290, "pitch": 70, "duration": 4, "velocity": 127}, {"time": 3296, "pitch": 67, "duration": 2, "velocity": 117}, {"time": 3302, "pitch": 67, "duration": 4, "velocity": 127}, {"time": 3308, "pitch": 65, "duration": 2, "velocity": 93}, {"time": 3314, "pitch": 65, "duration": 4, "velocity": 112}, {"time": 3320, "pitch": 63, "duration": 5, "velocity": 107}, {"time": 3332, "pitch": 63, "duration": 3, "velocity": 127}, {"time": 3338, "pitch": 65, "duration": 2, "velocity": 107}, {"time": 3344, "pitch": 65, "duration": 3, "velocity": 99}, {"time": 3350, "pitch": 63, "duration": 3, "velocity": 117}, {"time": 3356, "pitch": 67, "duration": 17, "velocity": 117}, {"time": 3380, "pitch": 70, "duration": 2, "velocity": 127}, {"time": 3386, "pitch": 70, "duration": 2, "velocity": 127}, {"time": 3392, "pitch": 72, "duration": 2, "velocity": 122}, {"time": 3398, "pitch": 72, "duration": 2, "velocity": 112}, {"time": 3404, "pitch": 67, "duration": 2, "velocity": 127}, {"time": 3410, "pitch": 67, "duration": 2, "velocity": 122}, {"time": 3416, "pitch": 65, "duration": 2, "velocity": 99}, {"time": 3422, "pitch": 65, "duration": 2, "velocity": 102}, {"time": 3428, "pitch": 63, "duration": 2, "velocity": 127}, {"time": 3434, "pitch": 63, "duration": 23, "velocity": 127}, {"time": 3470, "pitch": 60, "duration": 3, "velocity": 107}, {"time": 3476, "pitch": 60, "duration": 4, "velocity": 100}, {"time": 3482, "pitch": 67, "duration": 6, "velocity": 127}, {"time": 3488, "pitch": 68, "duration": 2, "velocity": 122}, {"time": 3494, "pitch": 68, "duration": 3, "velocity": 127}, {"time": 3500, "pitch": 68, "duration": 9, "velocity": 127}, {"time": 3518, "pitch": 67, "duration": 3, "velocity": 122}, {"time": 3524, "pitch": 67, "duration": 2, "velocity": 96}, {"time": 3530, "pitch": 67, "duration": 3, "velocity": 122}, {"time": 3536, "pitch": 65, "duration": 3, "velocity": 99}, {"time": 3542, "pitch": 67, "duration": 2, "velocity": 127}, {"time": 3548, "pitch": 68, "duration": 7, "velocity": 127}, {"time": 3560, "pitch": 65, "duration": 2, "velocity": 112}, {"time": 3566, "pitch": 65, "duration": 2, "velocity": 117}, {"time": 3572, "pitch": 67, "duration": 2, "velocity": 127}, {"time": 3578, "pitch": 68, "duration": 7, "velocity": 127}, {"time": 3590, "pitch": 68, "duration": 2, "velocity": 127}, {"time": 3596, "pitch": 68, "duration": 2, "velocity": 127}, {"time": 3602, "pitch": 68, "duration": 4, "velocity": 127}, {"time": 3608, "pitch": 67, "duration": 5, "velocity": 112}, {"time": 3614, "pitch": 68, "duration": 3, "velocity": 127}, {"time": 3620, "pitch": 70, "duration": 18, "velocity": 127}, {"time": 3644, "pitch": 67, "duration": 2, "velocity": 117}, {"time": 3650, "pitch": 67, "duration": 5, "velocity": 122}, {"time": 3656, "pitch": 65, "duration": 4, "velocity": 112}, {"time": 3662, "pitch": 63, "duration": 2, "velocity": 117}, {"time": 3668, "pitch": 63, "duration": 50, "velocity": 127}, {"time": 3752, "pitch": 62, "duration": 2, "velocity": 107}, {"time": 3758, "pitch": 62, "duration": 3, "velocity": 97}, {"time": 3764, "pitch": 63, "duration": 57, "velocity": 127}, {"time": 3848, "pitch": 63, "duration": 2, "velocity": 127}, {"time": 3854, "pitch": 62, "duration": 3, "velocity": 102}, {"time": 3860, "pitch": 63, "duration": 58, "velocity": 127}, {"time": 3944, "pitch": 63, "duration": 3, "velocity": 102}, {"time": 3950, "pitch": 62, "duration": 3, "velocity": 99}, {"time": 3956, "pitch": 65, "duration": 13, "velocity": 99}, {"time": 3968, "pitch": 63, "duration": 40, "velocity": 95}, {"time": 4040, "pitch": 63, "duration": 2, "velocity": 112}, {"time": 4046, "pitch": 63, "duration": 3, "velocity": 107}, {"time": 4052, "pitch": 70, "duration": 51, "velocity": 127}, {"time": 4100, "pitch": 75, "duration": 24, "velocity": 127}, {"time": 4124, "pitch": 72, "duration": 21, "velocity": 127}, {"time": 4148, "pitch": 72, "duration": 3, "velocity": 112}, {"time": 4154, "pitch": 72, "duration": 4, "velocity": 112}, {"time": 4160, "pitch": 69, "duration": 2, "velocity": 112}, {"time": 4166, "pitch": 69, "duration": 5, "velocity": 117}, {"time": 4172, "pitch": 67, "duration": 2, "velocity": 79}, {"time": 4178, "pitch": 67, "duration": 5, "velocity": 127}, {"time": 4184, "pitch": 65, "duration": 5, "velocity": 107}, {"time": 4196, "pitch": 65, "duration": 3, "velocity": 99}, {"time": 4202, "pitch": 67, "duration": 3, "velocity": 112}, {"time": 4208, "pitch": 67, "duration": 3, "velocity": 99}, {"time": 4214, "pitch": 65, "duration": 4, "velocity": 95}, {"time": 4220, "pitch": 69, "duration": 8, "velocity": 127}, {"time": 4244, "pitch": 72, "duration": 2, "velocity": 127}, {"time": 4250, "pitch": 72, "duration": 2, "velocity": 127}, {"time": 4256, "pitch": 74, "duration": 2, "velocity": 122}, {"time": 4262, "pitch": 74, "duration": 2, "velocity": 112}, {"time": 4268, "pitch": 69, "duration": 2, "velocity": 127}, {"time": 4274, "pitch": 69, "duration": 2, "velocity": 122}, {"time": 4280, "pitch": 67, "duration": 2, "velocity": 99}, {"time": 4286, "pitch": 67, "duration": 2, "velocity": 102}, {"time": 4292, "pitch": 65, "duration": 2, "velocity": 127}, {"time": 4298, "pitch": 65, "duration": 23, "velocity": 127}, {"time": 4334, "pitch": 62, "duration": 3, "velocity": 107}, {"time": 4340, "pitch": 62, "duration": 4, "velocity": 100}, {"time": 4346, "pitch": 69, "duration": 6, "velocity": 127}, {"time": 4352, "pitch": 70, "duration": 2, "velocity": 122}, {"time": 4358, "pitch": 70, "duration": 3, "velocity": 127}, {"time": 4364, "pitch": 70, "duration": 9, "velocity": 127}, {"time": 4382, "pitch": 69, "duration": 3, "velocity": 122}, {"time": 4388, "pitch": 69, "duration": 2, "velocity": 96}, {"time": 4394, "pitch": 69, "duration": 3, "velocity": 122}, {"time": 4400, "pitch": 67, "duration": 3, "velocity": 99}, {"time": 4406, "pitch": 69, "duration": 2, "velocity": 127}, {"time": 4412, "pitch": 70, "duration": 7, "velocity": 127}, {"time": 4424, "pitch": 67, "duration": 2, "velocity": 112}, {"time": 4430, "pitch": 67, "duration": 2, "velocity": 117}, {"time": 4436, "pitch": 69, "duration": 2, "velocity": 127}, {"time": 4442, "pitch": 70, "duration": 7, "velocity": 127}, {"time": 4454, "pitch": 70, "duration": 2, "velocity": 127}, {"time": 4460, "pitch": 70, "duration": 2, "velocity": 127}, {"time": 4466, "pitch": 70, "duration": 4, "velocity": 127}, {"time": 4472, "pitch": 69, "duration": 5, "velocity": 112}, {"time": 4478, "pitch": 70, "duration": 3, "velocity": 127}, {"time": 4484, "pitch": 72, "duration": 39, "velocity": 127}, {"time": 4532, "pitch": 72, "duration": 2, "velocity": 127}, {"time": 4538, "pitch": 72, "duration": 4, "velocity": 127}, {"time": 4544, "pitch": 69, "duration": 2, "velocity": 117}, {"time": 4550, "pitch": 69, "duration": 4, "velocity": 127}, {"time": 4556, "pitch": 67, "duration": 2, "velocity": 93}, {"time": 4562, "pitch": 67, "duration": 4, "velocity": 112}, {"time": 4568, "pitch": 65, "duration": 5, "velocity": 107}, {"time": 4580, "pitch": 65, "duration": 3, "velocity": 127}, {"time": 4586, "pitch": 67, "duration": 2, "velocity": 107}, {"time": 4592, "pitch": 67, "duration": 3, "velocity": 99}, {"time": 4598, "pitch": 65, "duration": 3, "velocity": 117}, {"time": 4604, "pitch": 69, "duration": 17, "velocity": 117}, {"time": 4628, "pitch": 72, "duration": 2, "velocity": 127}, {"time": 4634, "pitch": 72, "duration": 2, "velocity": 127}, {"time": 4640, "pitch": 74, "duration": 2, "velocity": 122}, {"time": 4646, "pitch": 74, "duration": 2, "velocity": 112}, {"time": 4652, "pitch": 69, "duration": 2, "velocity": 127}, {"time": 4658, "pitch": 69, "duration": 2, "velocity": 122}, {"time": 4664, "pitch": 67, "duration": 2, "velocity": 99}, {"time": 4670, "pitch": 67, "duration": 2, "velocity": 102}, {"time": 4676, "pitch": 65, "duration": 2, "velocity": 127}, {"time": 4682, "pitch": 65, "duration": 23, "velocity": 127}, {"time": 4718, "pitch": 62, "duration": 3, "velocity": 107}, {"time": 4724, "pitch": 62, "duration": 4, "velocity": 100}, {"time": 4730, "pitch": 69, "duration": 6, "velocity": 127}, {"time": 4736, "pitch": 70, "duration": 2, "velocity": 122}, {"time": 4742, "pitch": 70, "duration": 3, "velocity": 127}, {"time": 4748, "pitch": 70, "duration": 9, "velocity": 127}, {"time": 4766, "pitch": 69, "duration": 3, "velocity": 122}, {"time": 4772, "pitch": 69, "duration": 2, "velocity": 96}, {"time": 4778, "pitch": 69, "duration": 3, "velocity": 122}, {"time": 4784, "pitch": 67, "duration": 3, "velocity": 99}, {"time": 4790, "pitch": 69, "duration": 2, "velocity": 127}, {"time": 4796, "pitch": 70, "duration": 7, "velocity": 127}, {"time": 4814, "pitch": 67, "duration": 2, "velocity": 117}, {"time": 4820, "pitch": 69, "duration": 2, "velocity": 127}, {"time": 4826, "pitch": 70, "duration": 7, "velocity": 127}, {"time": 4838, "pitch": 70, "duration": 2, "velocity": 127}, {"time": 4844, "pitch": 70, "duration": 2, "velocity": 127}, {"time": 4850, "pitch": 70, "duration": 4, "velocity": 127}, {"time": 4856, "pitch": 69, "duration": 5, "velocity": 112}, {"time": 4862, "pitch": 70, "duration": 3, "velocity": 127}, {"time": 4868, "pitch": 72, "duration": 18, "velocity": 127}, {"time": 4892, "pitch": 69, "duration": 2, "velocity": 117}, {"time": 4898, "pitch": 69, "duration": 5, "velocity": 122}, {"time": 4904, "pitch": 67, "duration": 4, "velocity": 112}, {"time": 4910, "pitch": 65, "duration": 2, "velocity": 117}, {"time": 4916, "pitch": 65, "duration": 50, "velocity": 127}, {"time": 4994, "pitch": 67, "duration": 14, "velocity": 127}, {"time": 5012, "pitch": 69, "duration": 4, "velocity": 127}, {"time": 5015, "pitch": 67, "duration": 3, "velocity": 95}, {"time": 5018, "pitch": 65, "duration": 70, "velocity": 117}, {"time": 5114, "pitch": 72, "duration": 90, "velocity": 122}]}, {"program": 0, "is_drum": false, "name": "BRIDGE", "notes": [{"time": 8, "pitch": 58, "duration": 7, "velocity": 100}, {"time": 14, "pitch": 63, "duration": 6, "velocity": 122}, {"time": 20, "pitch": 70, "duration": 5, "velocity": 107}, {"time": 26, "pitch": 67, "duration": 40, "velocity": 99}, {"time": 26, "pitch": 75, "duration": 6, "velocity": 127}, {"time": 32, "pitch": 70, "duration": 7, "velocity": 97}, {"time": 38, "pitch": 75, "duration": 6, "velocity": 122}, {"time": 44, "pitch": 77, "duration": 6, "velocity": 93}, {"time": 50, "pitch": 80, "duration": 7, "velocity": 100}, {"time": 56, "pitch": 79, "duration": 5, "velocity": 112}, {"time": 62, "pitch": 77, "duration": 5, "velocity": 100}, {"time": 68, "pitch": 75, "duration": 5, "velocity": 99}, {"time": 74, "pitch": 82, "duration": 5, "velocity": 127}, {"time": 80, "pitch": 80, "duration": 5, "velocity": 102}, {"time": 86, "pitch": 79, "duration": 6, "velocity": 97}, {"time": 92, "pitch": 77, "duration": 6, "velocity": 99}, {"time": 98, "pitch": 75, "duration": 5, "velocity": 127}, {"time": 104, "pitch": 74, "duration": 6, "velocity": 117}, {"time": 110, "pitch": 72, "duration": 6, "velocity": 100}, {"time": 116, "pitch": 70, "duration": 6, "velocity": 112}, {"time": 122, "pitch": 72, "duration": 18, "velocity": 112}, {"time": 134, "pitch": 74, "duration": 7, "velocity": 107}, {"time": 140, "pitch": 75, "duration": 3, "velocity": 107}, {"time": 146, "pitch": 77, "duration": 5, "velocity": 99}, {"time": 152, "pitch": 75, "duration": 3, "velocity": 102}, {"time": 158, "pitch": 74, "duration": 5, "velocity": 102}, {"time": 164, "pitch": 72, "duration": 6, "velocity": 99}, {"time": 176, "pitch": 75, "duration": 3, "velocity": 117}, {"time": 182, "pitch": 77, "duration": 7, "velocity": 112}, {"time": 188, "pitch": 75, "duration": 6, "velocity": 112}, {"time": 200, "pitch": 74, "duration": 6, "velocity": 117}, {"time": 206, "pitch": 75, "duration": 5, "velocity": 117}, {"time": 212, "pitch": 82, "duration": 6, "velocity": 117}, {"time": 218, "pitch": 80, "duration": 17, "velocity": 127}, {"time": 362, "pitch": 58, "duration": 8, "velocity": 112}, {"time": 362, "pitch": 65, "duration": 8, "velocity": 85}, {"time": 380, "pitch": 58, "duration": 6, "velocity": 117}, {"time": 380, "pitch": 65, "duration": 6, "velocity": 86}, {"time": 392, "pitch": 58, "duration": 13, "velocity": 102}, {"time": 392, "pitch": 65, "duration": 13, "velocity": 89}, {"time": 410, "pitch": 63, "duration": 48, "velocity": 122}, {"time": 410, "pitch": 70, "duration": 50, "velocity": 92}, {"time": 488, "pitch": 63, "duration": 7, "velocity": 102}, {"time": 488, "pitch": 70, "duration": 7, "velocity": 86}, {"time": 500, "pitch": 63, "duration": 3, "velocity": 122}, {"time": 500, "pitch": 70, "duration": 4, "velocity": 93}, {"time": 506, "pitch": 60, "duration": 2, "velocity": 81}, {"time": 506, "pitch": 67, "duration": 2, "velocity": 79}, {"time": 512, "pitch": 60, "duration": 2, "velocity": 82}, {"time": 512, "pitch": 67, "duration": 2, "velocity": 81}, {"time": 518, "pitch": 60, "duration": 2, "velocity": 81}, {"time": 518, "pitch": 67, "duration": 2, "velocity": 77}, {"time": 524, "pitch": 60, "duration": 2, "velocity": 96}, {"time": 524, "pitch": 67, "duration": 2, "velocity": 89}, {"time": 530, "pitch": 60, "duration": 2, "velocity": 88}, {"time": 530, "pitch": 67, "duration": 2, "velocity": 81}, {"time": 536, "pitch": 60, "duration": 2, "velocity": 71}, {"time": 536, "pitch": 67, "duration": 2, "velocity": 69}, {"time": 542, "pitch": 60, "duration": 2, "velocity": 82}, {"time": 542, "pitch": 67, "duration": 2, "velocity": 78}, {"time": 548, "pitch": 60, "duration": 2, "velocity": 88}, {"time": 548, "pitch": 67, "duration": 2, "velocity": 86}, {"time": 560, "pitch": 60, "duration": 8, "velocity": 90}, {"time": 560, "pitch": 67, "duration": 8, "velocity": 89}, {"time": 572, "pitch": 60, "duration": 2, "velocity": 88}, {"time": 572, "pitch": 67, "duration": 2, "velocity": 78}, {"time": 578, "pitch": 60, "duration": 2, "velocity": 85}, {"time": 578, "pitch": 67, "duration": 2, "velocity": 81}, {"time": 584, "pitch": 60, "duration": 8, "velocity": 85}, {"time": 584, "pitch": 67, "duration": 8, "velocity": 79}, {"time": 596, "pitch": 60, "duration": 2, "velocity": 95}, {"time": 596, "pitch": 67, "duration": 3, "velocity": 93}, {"time": 602, "pitch": 56, "duration": 2, "velocity": 73}, {"time": 602, "pitch": 63, "duration": 2, "velocity": 64}, {"time": 608, "pitch": 56, "duration": 2, "velocity": 74}, {"time": 608, "pitch": 63, "duration": 2, "velocity": 67}, {"time": 614, "pitch": 56, "duration": 2, "velocity": 83}, {"time": 614, "pitch": 63, "duration": 2, "velocity": 70}, {"time": 620, "pitch": 56, "duration": 2, "velocity": 83}, {"time": 620, "pitch": 63, "duration": 2, "velocity": 81}, {"time": 626, "pitch": 56, "duration": 2, "velocity": 86}, {"time": 626, "pitch": 63, "duration": 1, "velocity": 38}, {"time": 632, "pitch": 56, "duration": 2, "velocity": 90}, {"time": 632, "pitch": 63, "duration": 2, "velocity": 75}, {"time": 638, "pitch": 56, "duration": 2, "velocity": 88}, {"time": 638, "pitch": 63, "duration": 2, "velocity": 71}, {"time": 644, "pitch": 56, "duration": 2, "velocity": 89}, {"time": 644, "pitch": 63, "duration": 2, "velocity": 82}, {"time": 650, "pitch": 56, "duration": 2, "velocity": 85}, {"time": 650, "pitch": 63, "duration": 2, "velocity": 69}, {"time": 656, "pitch": 56, "duration": 2, "velocity": 82}, {"time": 656, "pitch": 63, "duration": 2, "velocity": 68}, {"time": 662, "pitch": 56, "duration": 2, "velocity": 85}, {"time": 662, "pitch": 63, "duration": 2, "velocity": 74}, {"time": 668, "pitch": 56, "duration": 2, "velocity": 85}, {"time": 668, "pitch": 63, "duration": 2, "velocity": 72}, {"time": 674, "pitch": 56, "duration": 2, "velocity": 90}, {"time": 674, "pitch": 63, "duration": 2, "velocity": 70}, {"time": 680, "pitch": 56, "duration": 8, "velocity": 107}, {"time": 680, "pitch": 63, "duration": 8, "velocity": 97}, {"time": 692, "pitch": 56, "duration": 2, "velocity": 99}, {"time": 692, "pitch": 63, "duration": 2, "velocity": 93}, {"time": 698, "pitch": 58, "duration": 2, "velocity": 97}, {"time": 698, "pitch": 65, "duration": 2, "velocity": 77}, {"time": 704, "pitch": 58, "duration": 2, "velocity": 85}, {"time": 704, "pitch": 65, "duration": 3, "velocity": 67}, {"time": 710, "pitch": 58, "duration": 2, "velocity": 90}, {"time": 710, "pitch": 65, "duration": 3, "velocity": 70}, {"time": 716, "pitch": 58, "duration": 2, "velocity": 93}, {"time": 716, "pitch": 65, "duration": 3, "velocity": 71}, {"time": 722, "pitch": 58, "duration": 2, "velocity": 89}, {"time": 722, "pitch": 65, "duration": 3, "velocity": 67}, {"time": 728, "pitch": 58, "duration": 2, "velocity": 90}, {"time": 728, "pitch": 65, "duration": 2, "velocity": 69}, {"time": 734, "pitch": 58, "duration": 2, "velocity": 93}, {"time": 734, "pitch": 65, "duration": 2, "velocity": 71}, {"time": 740, "pitch": 58, "duration": 2, "velocity": 102}, {"time": 740, "pitch": 65, "duration": 2, "velocity": 82}, {"time": 752, "pitch": 63, "duration": 9, "velocity": 102}, {"time": 752, "pitch": 70, "duration": 9, "velocity": 96}, {"time": 764, "pitch": 62, "duration": 2, "velocity": 93}, {"time": 764, "pitch": 70, "duration": 2, "velocity": 92}, {"time": 770, "pitch": 62, "duration": 2, "velocity": 89}, {"time": 770, "pitch": 70, "duration": 2, "velocity": 89}, {"time": 776, "pitch": 65, "duration": 4, "velocity": 106}, {"time": 776, "pitch": 72, "duration": 5, "velocity": 89}, {"time": 782, "pitch": 65, "duration": 5, "velocity": 115}, {"time": 782, "pitch": 72, "duration": 5, "velocity": 93}, {"time": 794, "pitch": 70, "duration": 47, "velocity": 97}, {"time": 794, "pitch": 63, "duration": 48, "velocity": 91}, {"time": 842, "pitch": 63, "duration": 2, "velocity": 89}, {"time": 842, "pitch": 70, "duration": 2, "velocity": 76}, {"time": 848, "pitch": 63, "duration": 2, "velocity": 78}, {"time": 848, "pitch": 70, "duration": 2, "velocity": 67}, {"time": 854, "pitch": 63, "duration": 2, "velocity": 82}, {"time": 854, "pitch": 70, "duration": 2, "velocity": 67}, {"time": 860, "pitch": 63, "duration": 2, "velocity": 82}, {"time": 860, "pitch": 70, "duration": 2, "velocity": 65}, {"time": 866, "pitch": 63, "duration": 2, "velocity": 90}, {"time": 866, "pitch": 70, "duration": 2, "velocity": 67}, {"time": 872, "pitch": 63, "duration": 10, "velocity": 127}, {"time": 872, "pitch": 70, "duration": 10, "velocity": 127}, {"time": 884, "pitch": 63, "duration": 3, "velocity": 112}, {"time": 884, "pitch": 70, "duration": 3, "velocity": 100}, {"time": 890, "pitch": 60, "duration": 2, "velocity": 78}, {"time": 890, "pitch": 67, "duration": 2, "velocity": 77}, {"time": 896, "pitch": 60, "duration": 2, "velocity": 75}, {"time": 896, "pitch": 67, "duration": 2, "velocity": 74}, {"time": 902, "pitch": 60, "duration": 2, "velocity": 74}, {"time": 902, "pitch": 67, "duration": 2, "velocity": 76}, {"time": 908, "pitch": 60, "duration": 2, "velocity": 82}, {"time": 908, "pitch": 67, "duration": 2, "velocity": 75}, {"time": 914, "pitch": 60, "duration": 2, "velocity": 78}, {"time": 914, "pitch": 67, "duration": 2, "velocity": 76}, {"time": 920, "pitch": 60, "duration": 2, "velocity": 85}, {"time": 920, "pitch": 67, "duration": 2, "velocity": 77}, {"time": 926, "pitch": 60, "duration": 2, "velocity": 90}, {"time": 926, "pitch": 67, "duration": 2, "velocity": 85}, {"time": 932, "pitch": 60, "duration": 2, "velocity": 90}, {"time": 932, "pitch": 67, "duration": 2, "velocity": 92}, {"time": 932, "pitch": 74, "duration": 9, "velocity": 122}, {"time": 944, "pitch": 75, "duration": 6, "velocity": 127}, {"time": 956, "pitch": 65, "duration": 10, "velocity": 102}, {"time": 956, "pitch": 74, "duration": 9, "velocity": 102}, {"time": 968, "pitch": 72, "duration": 6, "velocity": 122}, {"time": 974, "pitch": 70, "duration": 28, "velocity": 112}, {"time": 1136, "pitch": 63, "duration": 4, "velocity": 112}, {"time": 1142, "pitch": 63, "duration": 5, "velocity": 88}, {"time": 1148, "pitch": 65, "duration": 33, "velocity": 95}, {"time": 1328, "pitch": 65, "duration": 13, "velocity": 97}, {"time": 1340, "pitch": 70, "duration": 28, "velocity": 117}, {"time": 1922, "pitch": 58, "duration": 4, "velocity": 122}, {"time": 1928, "pitch": 58, "duration": 5, "velocity": 117}, {"time": 1934, "pitch": 63, "duration": 4, "velocity": 127}, {"time": 1940, "pitch": 65, "duration": 4, "velocity": 99}, {"time": 1946, "pitch": 67, "duration": 24, "velocity": 127}, {"time": 1958, "pitch": 63, "duration": 6, "velocity": 127}, {"time": 1964, "pitch": 65, "duration": 6, "velocity": 96}, {"time": 1970, "pitch": 63, "duration": 4, "velocity": 122}, {"time": 1976, "pitch": 70, "duration": 8, "velocity": 127}, {"time": 1988, "pitch": 70, "duration": 3, "velocity": 122}, {"time": 1994, "pitch": 70, "duration": 5, "velocity": 127}, {"time": 2000, "pitch": 68, "duration": 5, "velocity": 127}, {"time": 2006, "pitch": 67, "duration": 4, "velocity": 122}, {"time": 2012, "pitch": 65, "duration": 4, "velocity": 102}, {"time": 2018, "pitch": 63, "duration": 5, "velocity": 112}, {"time": 2024, "pitch": 62, "duration": 5, "velocity": 92}, {"time": 2030, "pitch": 60, "duration": 5, "velocity": 95}, {"time": 2036, "pitch": 58, "duration": 5, "velocity": 100}, {"time": 2042, "pitch": 60, "duration": 12, "velocity": 99}, {"time": 2054, "pitch": 62, "duration": 6, "velocity": 112}, {"time": 2060, "pitch": 63, "duration": 4, "velocity": 112}, {"time": 2066, "pitch": 65, "duration": 6, "velocity": 97}, {"time": 2072, "pitch": 63, "duration": 3, "velocity": 100}, {"time": 2078, "pitch": 62, "duration": 5, "velocity": 117}, {"time": 2084, "pitch": 60, "duration": 6, "velocity": 93}, {"time": 2090, "pitch": 55, "duration": 30, "velocity": 99}, {"time": 2120, "pitch": 62, "duration": 5, "velocity": 97}, {"time": 2126, "pitch": 63, "duration": 5, "velocity": 117}, {"time": 2132, "pitch": 70, "duration": 6, "velocity": 102}, {"time": 2138, "pitch": 68, "duration": 44, "velocity": 127}, {"time": 2150, "pitch": 62, "duration": 6, "velocity": 112}, {"time": 2168, "pitch": 63, "duration": 7, "velocity": 100}, {"time": 2186, "pitch": 70, "duration": 6, "velocity": 127}, {"time": 2204, "pitch": 68, "duration": 9, "velocity": 127}, {"time": 2216, "pitch": 67, "duration": 7, "velocity": 77}, {"time": 2222, "pitch": 68, "duration": 7, "velocity": 117}, {"time": 2228, "pitch": 70, "duration": 7, "velocity": 96}, {"time": 2234, "pitch": 77, "duration": 43, "velocity": 92}, {"time": 2318, "pitch": 70, "duration": 10, "velocity": 127}, {"time": 2330, "pitch": 75, "duration": 37, "velocity": 127}, {"time": 2360, "pitch": 58, "duration": 5, "velocity": 127}, {"time": 2366, "pitch": 60, "duration": 4, "velocity": 99}, {"time": 2372, "pitch": 67, "duration": 10, "velocity": 127}, {"time": 2384, "pitch": 65, "duration": 10, "velocity": 127}, {"time": 2396, "pitch": 65, "duration": 17, "velocity": 112}, {"time": 2408, "pitch": 63, "duration": 5, "velocity": 122}, {"time": 2414, "pitch": 62, "duration": 11, "velocity": 127}, {"time": 2426, "pitch": 60, "duration": 32, "velocity": 107}, {"time": 2456, "pitch": 63, "duration": 4, "velocity": 102}, {"time": 2462, "pitch": 72, "duration": 5, "velocity": 117}, {"time": 2468, "pitch": 70, "duration": 53, "velocity": 127}, {"time": 2666, "pitch": 75, "duration": 18, "velocity": 127}, {"time": 2684, "pitch": 74, "duration": 16, "velocity": 127}, {"time": 2702, "pitch": 70, "duration": 11, "velocity": 117}, {"time": 2714, "pitch": 72, "duration": 37, "velocity": 112}, {"time": 2864, "pitch": 65, "duration": 7, "velocity": 99}, {"time": 2870, "pitch": 63, "duration": 5, "velocity": 100}, {"time": 2876, "pitch": 65, "duration": 28, "velocity": 112}, {"time": 3644, "pitch": 70, "duration": 4, "velocity": 127}, {"time": 3650, "pitch": 70, "duration": 4, "velocity": 127}, {"time": 3656, "pitch": 70, "duration": 5, "velocity": 112}, {"time": 3662, "pitch": 70, "duration": 1, "velocity": 59}, {"time": 3662, "pitch": 72, "duration": 7, "velocity": 99}, {"time": 3668, "pitch": 70, "duration": 5, "velocity": 127}, {"time": 3674, "pitch": 67, "duration": 15, "velocity": 88}, {"time": 3692, "pitch": 65, "duration": 5, "velocity": 107}, {"time": 3698, "pitch": 67, "duration": 3, "velocity": 127}, {"time": 3704, "pitch": 67, "duration": 6, "velocity": 112}, {"time": 3710, "pitch": 65, "duration": 6, "velocity": 97}, {"time": 3716, "pitch": 70, "duration": 9, "velocity": 127}, {"time": 3728, "pitch": 63, "duration": 3, "velocity": 112}, {"time": 3734, "pitch": 63, "duration": 3, "velocity": 112}, {"time": 3740, "pitch": 63, "duration": 19, "velocity": 127}, {"time": 3782, "pitch": 62, "duration": 12, "velocity": 122}, {"time": 3794, "pitch": 60, "duration": 10, "velocity": 102}, {"time": 3806, "pitch": 58, "duration": 5, "velocity": 122}, {"time": 3812, "pitch": 63, "duration": 32, "velocity": 127}, {"time": 3878, "pitch": 63, "duration": 8, "velocity": 127}, {"time": 3890, "pitch": 60, "duration": 9, "velocity": 107}, {"time": 3902, "pitch": 58, "duration": 3, "velocity": 112}, {"time": 3908, "pitch": 63, "duration": 39, "velocity": 127}, {"time": 3968, "pitch": 63, "duration": 2, "velocity": 127}, {"time": 3974, "pitch": 62, "duration": 3, "velocity": 95}, {"time": 3980, "pitch": 65, "duration": 5, "velocity": 112}, {"time": 3989, "pitch": 63, "duration": 6, "velocity": 127}, {"time": 3998, "pitch": 62, "duration": 3, "velocity": 93}, {"time": 4004, "pitch": 67, "duration": 33, "velocity": 117}, {"time": 4040, "pitch": 63, "duration": 3, "velocity": 122}, {"time": 4046, "pitch": 63, "duration": 3, "velocity": 112}, {"time": 4052, "pitch": 75, "duration": 52, "velocity": 127}, {"time": 4928, "pitch": 60, "duration": 5, "velocity": 117}, {"time": 4934, "pitch": 65, "duration": 6, "velocity": 127}, {"time": 4940, "pitch": 67, "duration": 5, "velocity": 99}, {"time": 4946, "pitch": 70, "duration": 6, "velocity": 127}, {"time": 4952, "pitch": 69, "duration": 6, "velocity": 100}, {"time": 4958, "pitch": 67, "duration": 6, "velocity": 112}, {"time": 4964, "pitch": 65, "duration": 5, "velocity": 102}, {"time": 4970, "pitch": 67, "duration": 6, "velocity": 127}, {"time": 4976, "pitch": 70, "duration": 5, "velocity": 127}, {"time": 4982, "pitch": 69, "duration": 6, "velocity": 107}, {"time": 4988, "pitch": 67, "duration": 6, "velocity": 107}, {"time": 4994, "pitch": 65, "duration": 7, "velocity": 97}, {"time": 5000, "pitch": 65, "duration": 1, "velocity": 117}, {"time": 5006, "pitch": 64, "duration": 6, "velocity": 100}, {"time": 5012, "pitch": 60, "duration": 6, "velocity": 97}, {"time": 5018, "pitch": 62, "duration": 5, "velocity": 117}, {"time": 5024, "pitch": 62, "duration": 5, "velocity": 99}, {"time": 5030, "pitch": 67, "duration": 3, "velocity": 72}, {"time": 5036, "pitch": 67, "duration": 3, "velocity": 92}, {"time": 5042, "pitch": 67, "duration": 3, "velocity": 112}, {"time": 5048, "pitch": 67, "duration": 6, "velocity": 107}, {"time": 5054, "pitch": 65, "duration": 3, "velocity": 127}, {"time": 5060, "pitch": 69, "duration": 18, "velocity": 127}, {"time": 5096, "pitch": 64, "duration": 5, "velocity": 99}, {"time": 5102, "pitch": 65, "duration": 4, "velocity": 117}, {"time": 5108, "pitch": 72, "duration": 5, "velocity": 117}, {"time": 5120, "pitch": 62, "duration": 2, "velocity": 95}, {"time": 5126, "pitch": 67, "duration": 2, "velocity": 97}, {"time": 5132, "pitch": 67, "duration": 2, "velocity": 102}, {"time": 5138, "pitch": 69, "duration": 2, "velocity": 112}, {"time": 5144, "pitch": 65, "duration": 2, "velocity": 85}, {"time": 5150, "pitch": 67, "duration": 2, "velocity": 97}, {"time": 5156, "pitch": 69, "duration": 2, "velocity": 117}, {"time": 5162, "pitch": 67, "duration": 2, "velocity": 107}, {"time": 5168, "pitch": 67, "duration": 2, "velocity": 102}, {"time": 5174, "pitch": 65, "duration": 2, "velocity": 100}, {"time": 5180, "pitch": 69, "duration": 2, "velocity": 127}, {"time": 5192, "pitch": 69, "duration": 2, "velocity": 102}, {"time": 5198, "pitch": 67, "duration": 2, "velocity": 97}, {"time": 5204, "pitch": 69, "duration": 2, "velocity": 99}, {"time": 5210, "pitch": 62, "duration": 2, "velocity": 100}, {"time": 5216, "pitch": 60, "duration": 2, "velocity": 88}, {"time": 5222, "pitch": 62, "duration": 2, "velocity": 89}, {"time": 5228, "pitch": 67, "duration": 2, "velocity": 117}, {"time": 5240, "pitch": 69, "duration": 2, "velocity": 102}, {"time": 5246, "pitch": 67, "duration": 2, "velocity": 100}, {"time": 5252, "pitch": 65, "duration": 2, "velocity": 96}, {"time": 5258, "pitch": 67, "duration": 2, "velocity": 117}, {"time": 5264, "pitch": 67, "duration": 2, "velocity": 117}, {"time": 5270, "pitch": 65, "duration": 2, "velocity": 102}, {"time": 5276, "pitch": 67, "duration": 2, "velocity": 127}, {"time": 5288, "pitch": 64, "duration": 2, "velocity": 102}, {"time": 5294, "pitch": 65, "duration": 2, "velocity": 107}, {"time": 5300, "pitch": 67, "duration": 2, "velocity": 117}, {"time": 5306, "pitch": 65, "duration": 74, "velocity": 127}]}, {"program": 0, "is_drum": false, "name": "PIANO", "notes": [{"time": 26, "pitch": 39, "duration": 9, "velocity": 93}, {"time": 26, "pitch": 63, "duration": 4, "velocity": 112}, {"time": 26, "pitch": 67, "duration": 3, "velocity": 90}, {"time": 26, "pitch": 70, "duration": 3, "velocity": 95}, {"time": 32, "pitch": 63, "duration": 3, "velocity": 97}, {"time": 32, "pitch": 67, "duration": 3, "velocity": 90}, {"time": 32, "pitch": 70, "duration": 3, "velocity": 90}, {"time": 38, "pitch": 39, "duration": 9, "velocity": 112}, {"time": 38, "pitch": 63, "duration": 7, "velocity": 112}, {"time": 38, "pitch": 67, "duration": 6, "velocity": 92}, {"time": 38, "pitch": 70, "duration": 6, "velocity": 100}, {"time": 47, "pitch": 63, "duration": 5, "velocity": 102}, {"time": 47, "pitch": 67, "duration": 5, "velocity": 88}, {"time": 47, "pitch": 70, "duration": 4, "velocity": 107}, {"time": 50, "pitch": 39, "duration": 8, "velocity": 96}, {"time": 56, "pitch": 63, "duration": 8, "velocity": 127}, {"time": 56, "pitch": 67, "duration": 8, "velocity": 99}, {"time": 56, "pitch": 70, "duration": 7, "velocity": 100}, {"time": 62, "pitch": 39, "duration": 8, "velocity": 100}, {"time": 68, "pitch": 63, "duration": 4, "velocity": 122}, {"time": 68, "pitch": 67, "duration": 4, "velocity": 79}, {"time": 68, "pitch": 70, "duration": 4, "velocity": 97}, {"time": 74, "pitch": 39, "duration": 9, "velocity": 72}, {"time": 74, "pitch": 51, "duration": 8, "velocity": 122}, {"time": 80, "pitch": 63, "duration": 3, "velocity": 117}, {"time": 80, "pitch": 67, "duration": 3, "velocity": 92}, {"time": 80, "pitch": 70, "duration": 2, "velocity": 88}, {"time": 86, "pitch": 39, "duration": 9, "velocity": 102}, {"time": 86, "pitch": 63, "duration": 5, "velocity": 112}, {"time": 86, "pitch": 67, "duration": 5, "velocity": 93}, {"time": 86, "pitch": 70, "duration": 5, "velocity": 97}, {"time": 95, "pitch": 63, "duration": 4, "velocity": 117}, {"time": 95, "pitch": 67, "duration": 4, "velocity": 100}, {"time": 95, "pitch": 70, "duration": 4, "velocity": 102}, {"time": 98, "pitch": 39, "duration": 10, "velocity": 76}, {"time": 98, "pitch": 51, "duration": 9, "velocity": 102}, {"time": 104, "pitch": 63, "duration": 8, "velocity": 127}, {"time": 104, "pitch": 67, "duration": 8, "velocity": 95}, {"time": 104, "pitch": 70, "duration": 8, "velocity": 99}, {"time": 110, "pitch": 39, "duration": 9, "velocity": 102}, {"time": 116, "pitch": 63, "duration": 4, "velocity": 127}, {"time": 116, "pitch": 67, "duration": 4, "velocity": 96}, {"time": 122, "pitch": 36, "duration": 10, "velocity": 89}, {"time": 128, "pitch": 60, "duration": 3, "velocity": 95}, {"time": 128, "pitch": 63, "duration": 3, "velocity": 122}, {"time": 128, "pitch": 67, "duration": 3, "velocity": 89}, {"time": 134, "pitch": 43, "duration": 11, "velocity": 61}, {"time": 134, "pitch": 48, "duration": 10, "velocity": 86}, {"time": 134, "pitch": 60, "duration": 6, "velocity": 89}, {"time": 134, "pitch": 63, "duration": 5, "velocity": 117}, {"time": 134, "pitch": 67, "duration": 5, "velocity": 93}, {"time": 143, "pitch": 60, "duration": 4, "velocity": 92}, {"time": 143, "pitch": 63, "duration": 4, "velocity": 107}, {"time": 143, "pitch": 67, "duration": 4, "velocity": 90}, {"time": 146, "pitch": 36, "duration": 11, "velocity": 82}, {"time": 152, "pitch": 60, "duration": 6, "velocity": 93}, {"time": 152, "pitch": 63, "duration": 7, "velocity": 127}, {"time": 152, "pitch": 67, "duration": 7, "velocity": 92}, {"time": 158, "pitch": 43, "duration": 10, "velocity": 61}, {"time": 158, "pitch": 48, "duration": 10, "velocity": 85}, {"time": 164, "pitch": 60, "duration": 7, "velocity": 93}, {"time": 164, "pitch": 63, "duration": 6, "velocity": 122}, {"time": 164, "pitch": 67, "duration": 7, "velocity": 92}, {"time": 170, "pitch": 36, "duration": 12, "velocity": 90}, {"time": 176, "pitch": 60, "duration": 2, "velocity": 89}, {"time": 176, "pitch": 63, "duration": 2, "velocity": 117}, {"time": 176, "pitch": 67, "duration": 2, "velocity": 96}, {"time": 182, "pitch": 43, "duration": 10, "velocity": 58}, {"time": 182, "pitch": 48, "duration": 10, "velocity": 79}, {"time": 182, "pitch": 60, "duration": 6, "velocity": 93}, {"time": 182, "pitch": 63, "duration": 6, "velocity": 122}, {"time": 182, "pitch": 67, "duration": 6, "velocity": 93}, {"time": 191, "pitch": 60, "duration": 3, "velocity": 82}, {"time": 191, "pitch": 63, "duration": 3, "velocity": 122}, {"time": 191, "pitch": 67, "duration": 3, "velocity": 93}, {"time": 194, "pitch": 36, "duration": 14, "velocity": 76}, {"time": 200, "pitch": 60, "duration": 9, "velocity": 93}, {"time": 200, "pitch": 63, "duration": 8, "velocity": 122}, {"time": 200, "pitch": 67, "duration": 9, "velocity": 88}, {"time": 206, "pitch": 48, "duration": 10, "velocity": 100}, {"time": 212, "pitch": 60, "duration": 5, "velocity": 96}, {"time": 212, "pitch": 63, "duration": 4, "velocity": 99}, {"time": 212, "pitch": 68, "duration": 2, "velocity": 66}, {"time": 215, "pitch": 44, "duration": 12, "velocity": 99}, {"time": 224, "pitch": 60, "duration": 3, "velocity": 82}, {"time": 224, "pitch": 63, "duration": 3, "velocity": 117}, {"time": 224, "pitch": 68, "duration": 3, "velocity": 100}, {"time": 230, "pitch": 51, "duration": 10, "velocity": 76}, {"time": 230, "pitch": 60, "duration": 4, "velocity": 79}, {"time": 230, "pitch": 63, "duration": 4, "velocity": 117}, {"time": 230, "pitch": 68, "duration": 4, "velocity": 127}, {"time": 239, "pitch": 44, "duration": 15, "velocity": 82}, {"time": 239, "pitch": 60, "duration": 4, "velocity": 86}, {"time": 239, "pitch": 63, "duration": 3, "velocity": 112}, {"time": 239, "pitch": 68, "duration": 4, "velocity": 102}, {"time": 248, "pitch": 60, "duration": 3, "velocity": 89}, {"time": 248, "pitch": 63, "duration": 3, "velocity": 112}, {"time": 248, "pitch": 68, "duration": 3, "velocity": 102}, {"time": 254, "pitch": 56, "duration": 12, "velocity": 71}, {"time": 254, "pitch": 60, "duration": 3, "velocity": 82}, {"time": 254, "pitch": 63, "duration": 3, "velocity": 122}, {"time": 254, "pitch": 68, "duration": 3, "velocity": 112}, {"time": 257, "pitch": 51, "duration": 6, "velocity": 15}, {"time": 260, "pitch": 60, "duration": 7, "velocity": 92}, {"time": 260, "pitch": 63, "duration": 7, "velocity": 112}, {"time": 260, "pitch": 68, "duration": 7, "velocity": 93}, {"time": 266, "pitch": 44, "duration": 14, "velocity": 79}, {"time": 272, "pitch": 60, "duration": 3, "velocity": 86}, {"time": 272, "pitch": 63, "duration": 3, "velocity": 102}, {"time": 272, "pitch": 68, "duration": 2, "velocity": 92}, {"time": 278, "pitch": 51, "duration": 10, "velocity": 61}, {"time": 278, "pitch": 56, "duration": 11, "velocity": 86}, {"time": 278, "pitch": 60, "duration": 4, "velocity": 93}, {"time": 278, "pitch": 63, "duration": 4, "velocity": 127}, {"time": 278, "pitch": 68, "duration": 4, "velocity": 102}, {"time": 287, "pitch": 60, "duration": 4, "velocity": 77}, {"time": 287, "pitch": 63, "duration": 4, "velocity": 107}, {"time": 287, "pitch": 68, "duration": 5, "velocity": 100}, {"time": 290, "pitch": 44, "duration": 21, "velocity": 85}, {"time": 296, "pitch": 60, "duration": 8, "velocity": 85}, {"time": 296, "pitch": 63, "duration": 7, "velocity": 117}, {"time": 296, "pitch": 68, "duration": 7, "velocity": 102}, {"time": 302, "pitch": 56, "duration": 11, "velocity": 93}, {"time": 305, "pitch": 60, "duration": 8, "velocity": 88}, {"time": 305, "pitch": 63, "duration": 6, "velocity": 112}, {"time": 305, "pitch": 68, "duration": 7, "velocity": 66}, {"time": 314, "pitch": 46, "duration": 19, "velocity": 96}, {"time": 320, "pitch": 62, "duration": 3, "velocity": 76}, {"time": 320, "pitch": 65, "duration": 3, "velocity": 82}, {"time": 326, "pitch": 58, "duration": 11, "velocity": 100}, {"time": 326, "pitch": 62, "duration": 7, "velocity": 90}, {"time": 326, "pitch": 65, "duration": 7, "velocity": 96}, {"time": 326, "pitch": 70, "duration": 7, "velocity": 99}, {"time": 335, "pitch": 46, "duration": 22, "velocity": 86}, {"time": 335, "pitch": 62, "duration": 3, "velocity": 72}, {"time": 335, "pitch": 65, "duration": 3, "velocity": 83}, {"time": 335, "pitch": 70, "duration": 4, "velocity": 93}, {"time": 344, "pitch": 62, "duration": 8, "velocity": 93}, {"time": 344, "pitch": 65, "duration": 8, "velocity": 90}, {"time": 344, "pitch": 70, "duration": 8, "velocity": 99}, {"time": 350, "pitch": 58, "duration": 12, "velocity": 97}, {"time": 356, "pitch": 62, "duration": 7, "velocity": 97}, {"time": 356, "pitch": 65, "duration": 7, "velocity": 96}, {"time": 356, "pitch": 70, "duration": 8, "velocity": 102}, {"time": 362, "pitch": 46, "duration": 21, "velocity": 85}, {"time": 368, "pitch": 62, "duration": 2, "velocity": 95}, {"time": 368, "pitch": 65, "duration": 2, "velocity": 96}, {"time": 368, "pitch": 70, "duration": 2, "velocity": 102}, {"time": 374, "pitch": 53, "duration": 9, "velocity": 53}, {"time": 374, "pitch": 58, "duration": 12, "velocity": 99}, {"time": 374, "pitch": 62, "duration": 7, "velocity": 97}, {"time": 374, "pitch": 65, "duration": 7, "velocity": 96}, {"time": 374, "pitch": 70, "duration": 7, "velocity": 97}, {"time": 383, "pitch": 46, "duration": 14, "velocity": 79}, {"time": 383, "pitch": 62, "duration": 3, "velocity": 82}, {"time": 383, "pitch": 65, "duration": 3, "velocity": 88}, {"time": 383, "pitch": 70, "duration": 4, "velocity": 100}, {"time": 392, "pitch": 62, "duration": 8, "velocity": 97}, {"time": 392, "pitch": 65, "duration": 8, "velocity": 99}, {"time": 392, "pitch": 70, "duration": 8, "velocity": 102}, {"time": 395, "pitch": 58, "duration": 2, "velocity": 99}, {"time": 404, "pitch": 62, "duration": 6, "velocity": 95}, {"time": 404, "pitch": 65, "duration": 2, "velocity": 89}, {"time": 404, "pitch": 70, "duration": 3, "velocity": 97}, {"time": 410, "pitch": 39, "duration": 22, "velocity": 99}, {"time": 422, "pitch": 51, "duration": 11, "velocity": 99}, {"time": 422, "pitch": 63, "duration": 7, "velocity": 99}, {"time": 422, "pitch": 67, "duration": 6, "velocity": 89}, {"time": 422, "pitch": 70, "duration": 6, "velocity": 82}, {"time": 431, "pitch": 63, "duration": 3, "velocity": 86}, {"time": 431, "pitch": 67, "duration": 2, "velocity": 83}, {"time": 431, "pitch": 70, "duration": 3, "velocity": 89}, {"time": 434, "pitch": 39, "duration": 21, "velocity": 90}, {"time": 440, "pitch": 63, "duration": 8, "velocity": 93}, {"time": 440, "pitch": 67, "duration": 7, "velocity": 96}, {"time": 440, "pitch": 70, "duration": 8, "velocity": 90}, {"time": 446, "pitch": 51, "duration": 10, "velocity": 102}, {"time": 452, "pitch": 63, "duration": 7, "velocity": 95}, {"time": 452, "pitch": 67, "duration": 2, "velocity": 90}, {"time": 452, "pitch": 70, "duration": 8, "velocity": 88}, {"time": 458, "pitch": 39, "duration": 20, "velocity": 89}, {"time": 464, "pitch": 63, "duration": 3, "velocity": 79}, {"time": 464, "pitch": 70, "duration": 1, "velocity": 59}, {"time": 470, "pitch": 46, "duration": 11, "velocity": 35}, {"time": 470, "pitch": 51, "duration": 11, "velocity": 99}, {"time": 479, "pitch": 63, "duration": 4, "velocity": 89}, {"time": 479, "pitch": 67, "duration": 4, "velocity": 89}, {"time": 479, "pitch": 70, "duration": 4, "velocity": 86}, {"time": 482, "pitch": 39, "duration": 19, "velocity": 97}, {"time": 488, "pitch": 63, "duration": 9, "velocity": 92}, {"time": 488, "pitch": 67, "duration": 3, "velocity": 95}, {"time": 488, "pitch": 70, "duration": 8, "velocity": 90}, {"time": 491, "pitch": 67, "duration": 3, "velocity": 30}, {"time": 494, "pitch": 46, "duration": 2, "velocity": 53}, {"time": 494, "pitch": 51, "duration": 4, "velocity": 96}, {"time": 500, "pitch": 63, "duration": 6, "velocity": 99}, {"time": 500, "pitch": 67, "duration": 2, "velocity": 60}, {"time": 500, "pitch": 70, "duration": 3, "velocity": 86}, {"time": 506, "pitch": 36, "duration": 15, "velocity": 69}, {"time": 512, "pitch": 60, "duration": 4, "velocity": 89}, {"time": 512, "pitch": 63, "duration": 4, "velocity": 93}, {"time": 512, "pitch": 67, "duration": 4, "velocity": 69}, {"time": 518, "pitch": 43, "duration": 11, "velocity": 50}, {"time": 518, "pitch": 48, "duration": 11, "velocity": 85}, {"time": 518, "pitch": 60, "duration": 7, "velocity": 93}, {"time": 518, "pitch": 63, "duration": 7, "velocity": 102}, {"time": 518, "pitch": 67, "duration": 7, "velocity": 90}, {"time": 527, "pitch": 60, "duration": 3, "velocity": 79}, {"time": 527, "pitch": 63, "duration": 3, "velocity": 89}, {"time": 527, "pitch": 67, "duration": 3, "velocity": 82}, {"time": 530, "pitch": 36, "duration": 14, "velocity": 71}, {"time": 536, "pitch": 60, "duration": 7, "velocity": 83}, {"time": 536, "pitch": 63, "duration": 8, "velocity": 99}, {"time": 536, "pitch": 67, "duration": 8, "velocity": 82}, {"time": 542, "pitch": 43, "duration": 11, "velocity": 61}, {"time": 542, "pitch": 48, "duration": 11, "velocity": 85}, {"time": 548, "pitch": 60, "duration": 8, "velocity": 90}, {"time": 548, "pitch": 63, "duration": 8, "velocity": 107}, {"time": 548, "pitch": 67, "duration": 8, "velocity": 82}, {"time": 554, "pitch": 36, "duration": 14, "velocity": 81}, {"time": 560, "pitch": 60, "duration": 2, "velocity": 70}, {"time": 560, "pitch": 63, "duration": 2, "velocity": 85}, {"time": 560, "pitch": 67, "duration": 2, "velocity": 63}, {"time": 566, "pitch": 43, "duration": 11, "velocity": 56}, {"time": 566, "pitch": 48, "duration": 11, "velocity": 90}, {"time": 566, "pitch": 60, "duration": 7, "velocity": 88}, {"time": 566, "pitch": 63, "duration": 7, "velocity": 117}, {"time": 566, "pitch": 67, "duration": 7, "velocity": 86}, {"time": 575, "pitch": 36, "duration": 15, "velocity": 69}, {"time": 575, "pitch": 60, "duration": 2, "velocity": 71}, {"time": 575, "pitch": 63, "duration": 3, "velocity": 93}, {"time": 575, "pitch": 67, "duration": 3, "velocity": 79}, {"time": 584, "pitch": 60, "duration": 8, "velocity": 86}, {"time": 584, "pitch": 63, "duration": 9, "velocity": 107}, {"time": 584, "pitch": 67, "duration": 9, "velocity": 81}, {"time": 590, "pitch": 48, "duration": 8, "velocity": 100}, {"time": 596, "pitch": 60, "duration": 8, "velocity": 90}, {"time": 596, "pitch": 63, "duration": 7, "velocity": 117}, {"time": 596, "pitch": 67, "duration": 5, "velocity": 82}, {"time": 602, "pitch": 44, "duration": 17, "velocity": 72}, {"time": 608, "pitch": 60, "duration": 4, "velocity": 86}, {"time": 608, "pitch": 63, "duration": 3, "velocity": 100}, {"time": 608, "pitch": 68, "duration": 3, "velocity": 95}, {"time": 614, "pitch": 56, "duration": 11, "velocity": 112}, {"time": 614, "pitch": 60, "duration": 7, "velocity": 83}, {"time": 614, "pitch": 63, "duration": 7, "velocity": 107}, {"time": 614, "pitch": 68, "duration": 7, "velocity": 97}, {"time": 617, "pitch": 51, "duration": 5, "velocity": 24}, {"time": 623, "pitch": 44, "duration": 20, "velocity": 73}, {"time": 623, "pitch": 60, "duration": 3, "velocity": 74}, {"time": 623, "pitch": 63, "duration": 3, "velocity": 100}, {"time": 623, "pitch": 68, "duration": 3, "velocity": 93}, {"time": 632, "pitch": 60, "duration": 7, "velocity": 85}, {"time": 632, "pitch": 63, "duration": 7, "velocity": 127}, {"time": 632, "pitch": 68, "duration": 7, "velocity": 102}, {"time": 638, "pitch": 51, "duration": 9, "velocity": 39}, {"time": 638, "pitch": 56, "duration": 12, "velocity": 97}, {"time": 644, "pitch": 60, "duration": 8, "velocity": 88}, {"time": 644, "pitch": 63, "duration": 8, "velocity": 112}, {"time": 644, "pitch": 68, "duration": 8, "velocity": 92}, {"time": 650, "pitch": 44, "duration": 22, "velocity": 90}, {"time": 656, "pitch": 51, "duration": 3, "velocity": 63}, {"time": 656, "pitch": 56, "duration": 3, "velocity": 81}, {"time": 656, "pitch": 63, "duration": 2, "velocity": 52}, {"time": 662, "pitch": 51, "duration": 13, "velocity": 90}, {"time": 662, "pitch": 56, "duration": 3, "velocity": 90}, {"time": 662, "pitch": 63, "duration": 2, "velocity": 77}, {"time": 668, "pitch": 56, "duration": 7, "velocity": 97}, {"time": 668, "pitch": 63, "duration": 7, "velocity": 90}, {"time": 674, "pitch": 44, "duration": 21, "velocity": 88}, {"time": 680, "pitch": 56, "duration": 2, "velocity": 89}, {"time": 680, "pitch": 63, "duration": 3, "velocity": 68}, {"time": 686, "pitch": 51, "duration": 11, "velocity": 61}, {"time": 686, "pitch": 56, "duration": 3, "velocity": 95}, {"time": 686, "pitch": 63, "duration": 3, "velocity": 85}, {"time": 692, "pitch": 56, "duration": 3, "velocity": 107}, {"time": 692, "pitch": 63, "duration": 4, "velocity": 99}, {"time": 698, "pitch": 46, "duration": 16, "velocity": 90}, {"time": 704, "pitch": 58, "duration": 3, "velocity": 95}, {"time": 704, "pitch": 65, "duration": 3, "velocity": 70}, {"time": 710, "pitch": 58, "duration": 3, "velocity": 97}, {"time": 710, "pitch": 65, "duration": 3, "velocity": 82}, {"time": 716, "pitch": 46, "duration": 4, "velocity": 61}, {"time": 716, "pitch": 58, "duration": 3, "velocity": 95}, {"time": 716, "pitch": 65, "duration": 3, "velocity": 79}, {"time": 722, "pitch": 46, "duration": 3, "velocity": 61}, {"time": 722, "pitch": 58, "duration": 3, "velocity": 81}, {"time": 722, "pitch": 65, "duration": 3, "velocity": 65}, {"time": 728, "pitch": 46, "duration": 3, "velocity": 74}, {"time": 728, "pitch": 58, "duration": 2, "velocity": 93}, {"time": 728, "pitch": 65, "duration": 3, "velocity": 78}, {"time": 734, "pitch": 46, "duration": 3, "velocity": 82}, {"time": 734, "pitch": 58, "duration": 2, "velocity": 97}, {"time": 734, "pitch": 65, "duration": 3, "velocity": 82}, {"time": 740, "pitch": 46, "duration": 7, "velocity": 100}, {"time": 740, "pitch": 58, "duration": 5, "velocity": 102}, {"time": 740, "pitch": 65, "duration": 5, "velocity": 89}, {"time": 746, "pitch": 46, "duration": 1, "velocity": 107}, {"time": 746, "pitch": 58, "duration": 5, "velocity": 117}, {"time": 746, "pitch": 65, "duration": 5, "velocity": 92}, {"time": 752, "pitch": 46, "duration": 5, "velocity": 102}, {"time": 752, "pitch": 58, "duration": 3, "velocity": 97}, {"time": 752, "pitch": 65, "duration": 3, "velocity": 70}, {"time": 758, "pitch": 46, "duration": 3, "velocity": 73}, {"time": 758, "pitch": 58, "duration": 3, "velocity": 81}, {"time": 758, "pitch": 65, "duration": 3, "velocity": 69}, {"time": 764, "pitch": 46, "duration": 3, "velocity": 66}, {"time": 764, "pitch": 58, "duration": 3, "velocity": 93}, {"time": 764, "pitch": 65, "duration": 3, "velocity": 69}, {"time": 770, "pitch": 46, "duration": 3, "velocity": 75}, {"time": 770, "pitch": 58, "duration": 3, "velocity": 81}, {"time": 770, "pitch": 65, "duration": 3, "velocity": 66}, {"time": 776, "pitch": 46, "duration": 3, "velocity": 83}, {"time": 776, "pitch": 58, "duration": 3, "velocity": 88}, {"time": 776, "pitch": 65, "duration": 3, "velocity": 67}, {"time": 782, "pitch": 46, "duration": 2, "velocity": 100}, {"time": 782, "pitch": 58, "duration": 2, "velocity": 92}, {"time": 782, "pitch": 65, "duration": 2, "velocity": 69}, {"time": 788, "pitch": 46, "duration": 5, "velocity": 112}, {"time": 788, "pitch": 58, "duration": 5, "velocity": 100}, {"time": 788, "pitch": 65, "duration": 6, "velocity": 77}, {"time": 794, "pitch": 39, "duration": 12, "velocity": 97}, {"time": 800, "pitch": 63, "duration": 2, "velocity": 96}, {"time": 800, "pitch": 67, "duration": 1, "velocity": 89}, {"time": 800, "pitch": 70, "duration": 1, "velocity": 99}, {"time": 806, "pitch": 46, "duration": 9, "velocity": 59}, {"time": 806, "pitch": 51, "duration": 10, "velocity": 93}, {"time": 806, "pitch": 63, "duration": 6, "velocity": 107}, {"time": 806, "pitch": 67, "duration": 3, "velocity": 102}, {"time": 806, "pitch": 70, "duration": 6, "velocity": 122}, {"time": 815, "pitch": 63, "duration": 2, "velocity": 100}, {"time": 815, "pitch": 67, "duration": 1, "velocity": 102}, {"time": 815, "pitch": 70, "duration": 2, "velocity": 117}, {"time": 818, "pitch": 39, "duration": 17, "velocity": 83}, {"time": 824, "pitch": 63, "duration": 5, "velocity": 117}, {"time": 824, "pitch": 67, "duration": 2, "velocity": 112}, {"time": 824, "pitch": 70, "duration": 3, "velocity": 117}, {"time": 827, "pitch": 46, "duration": 12, "velocity": 65}, {"time": 827, "pitch": 51, "duration": 10, "velocity": 93}, {"time": 833, "pitch": 63, "duration": 4, "velocity": 112}, {"time": 833, "pitch": 67, "duration": 2, "velocity": 102}, {"time": 833, "pitch": 70, "duration": 3, "velocity": 127}, {"time": 842, "pitch": 39, "duration": 13, "velocity": 102}, {"time": 842, "pitch": 63, "duration": 4, "velocity": 107}, {"time": 842, "pitch": 67, "duration": 2, "velocity": 100}, {"time": 842, "pitch": 70, "duration": 4, "velocity": 107}, {"time": 848, "pitch": 63, "duration": 2, "velocity": 95}, {"time": 848, "pitch": 67, "duration": 1, "velocity": 96}, {"time": 848, "pitch": 70, "duration": 2, "velocity": 97}, {"time": 854, "pitch": 46, "duration": 9, "velocity": 36}, {"time": 854, "pitch": 51, "duration": 10, "velocity": 85}, {"time": 854, "pitch": 63, "duration": 6, "velocity": 107}, {"time": 854, "pitch": 67, "duration": 5, "velocity": 107}, {"time": 854, "pitch": 70, "duration": 5, "velocity": 112}, {"time": 863, "pitch": 39, "duration": 16, "velocity": 90}, {"time": 863, "pitch": 63, "duration": 4, "velocity": 96}, {"time": 863, "pitch": 67, "duration": 2, "velocity": 99}, {"time": 863, "pitch": 70, "duration": 4, "velocity": 107}, {"time": 869, "pitch": 63, "duration": 3, "velocity": 96}, {"time": 869, "pitch": 67, "duration": 2, "velocity": 102}, {"time": 869, "pitch": 70, "duration": 3, "velocity": 102}, {"time": 872, "pitch": 46, "duration": 5, "velocity": 37}, {"time": 872, "pitch": 51, "duration": 6, "velocity": 95}, {"time": 878, "pitch": 63, "duration": 3, "velocity": 99}, {"time": 878, "pitch": 67, "duration": 3, "velocity": 107}, {"time": 878, "pitch": 70, "duration": 3, "velocity": 127}, {"time": 884, "pitch": 63, "duration": 4, "velocity": 107}, {"time": 884, "pitch": 67, "duration": 2, "velocity": 93}, {"time": 884, "pitch": 70, "duration": 3, "velocity": 112}, {"time": 890, "pitch": 36, "duration": 12, "velocity": 89}, {"time": 896, "pitch": 60, "duration": 2, "velocity": 92}, {"time": 896, "pitch": 63, "duration": 3, "velocity": 100}, {"time": 896, "pitch": 67, "duration": 2, "velocity": 81}, {"time": 902, "pitch": 43, "duration": 10, "velocity": 50}, {"time": 902, "pitch": 48, "duration": 10, "velocity": 81}, {"time": 902, "pitch": 60, "duration": 6, "velocity": 97}, {"time": 902, "pitch": 63, "duration": 6, "velocity": 127}, {"time": 902, "pitch": 67, "duration": 6, "velocity": 89}, {"time": 911, "pitch": 36, "duration": 13, "velocity": 86}, {"time": 911, "pitch": 60, "duration": 3, "velocity": 93}, {"time": 911, "pitch": 63, "duration": 4, "velocity": 122}, {"time": 911, "pitch": 67, "duration": 4, "velocity": 96}, {"time": 920, "pitch": 60, "duration": 7, "velocity": 112}, {"time": 920, "pitch": 63, "duration": 7, "velocity": 127}, {"time": 920, "pitch": 67, "duration": 7, "velocity": 100}, {"time": 926, "pitch": 43, "duration": 10, "velocity": 72}, {"time": 926, "pitch": 48, "duration": 12, "velocity": 93}, {"time": 932, "pitch": 60, "duration": 7, "velocity": 99}, {"time": 932, "pitch": 63, "duration": 7, "velocity": 127}, {"time": 932, "pitch": 67, "duration": 7, "velocity": 93}, {"time": 938, "pitch": 36, "duration": 13, "velocity": 83}, {"time": 944, "pitch": 60, "duration": 2, "velocity": 89}, {"time": 944, "pitch": 63, "duration": 2, "velocity": 122}, {"time": 944, "pitch": 67, "duration": 2, "velocity": 88}, {"time": 950, "pitch": 43, "duration": 10, "velocity": 82}, {"time": 950, "pitch": 48, "duration": 10, "velocity": 95}, {"time": 950, "pitch": 60, "duration": 5, "velocity": 96}, {"time": 950, "pitch": 63, "duration": 6, "velocity": 122}, {"time": 950, "pitch": 67, "duration": 5, "velocity": 89}, {"time": 959, "pitch": 36, "duration": 15, "velocity": 95}, {"time": 959, "pitch": 60, "duration": 3, "velocity": 100}, {"time": 959, "pitch": 63, "duration": 3, "velocity": 127}, {"time": 959, "pitch": 67, "duration": 3, "velocity": 97}, {"time": 968, "pitch": 60, "duration": 2, "velocity": 95}, {"time": 968, "pitch": 63, "duration": 2, "velocity": 127}, {"time": 968, "pitch": 67, "duration": 2, "velocity": 99}, {"time": 974, "pitch": 48, "duration": 7, "velocity": 100}, {"time": 974, "pitch": 60, "duration": 2, "velocity": 99}, {"time": 974, "pitch": 63, "duration": 2, "velocity": 127}, {"time": 974, "pitch": 67, "duration": 2, "velocity": 100}, {"time": 980, "pitch": 60, "duration": 8, "velocity": 100}, {"time": 980, "pitch": 63, "duration": 5, "velocity": 127}, {"time": 980, "pitch": 67, "duration": 3, "velocity": 92}, {"time": 986, "pitch": 44, "duration": 17, "velocity": 102}, {"time": 992, "pitch": 60, "duration": 2, "velocity": 96}, {"time": 992, "pitch": 63, "duration": 2, "velocity": 127}, {"time": 992, "pitch": 68, "duration": 2, "velocity": 112}, {"time": 998, "pitch": 56, "duration": 12, "velocity": 90}, {"time": 998, "pitch": 60, "duration": 6, "velocity": 97}, {"time": 998, "pitch": 63, "duration": 6, "velocity": 127}, {"time": 998, "pitch": 68, "duration": 6, "velocity": 112}, {"time": 1001, "pitch": 51, "duration": 5, "velocity": 23}, {"time": 1007, "pitch": 60, "duration": 3, "velocity": 95}, {"time": 1007, "pitch": 63, "duration": 3, "velocity": 127}, {"time": 1007, "pitch": 68, "duration": 3, "velocity": 107}, {"time": 1010, "pitch": 44, "duration": 21, "velocity": 93}, {"time": 1016, "pitch": 60, "duration": 8, "velocity": 100}, {"time": 1016, "pitch": 63, "duration": 8, "velocity": 127}, {"time": 1016, "pitch": 68, "duration": 8, "velocity": 112}, {"time": 1022, "pitch": 51, "duration": 2, "velocity": 42}, {"time": 1022, "pitch": 56, "duration": 10, "velocity": 117}, {"time": 1028, "pitch": 51, "duration": 4, "velocity": 24}, {"time": 1028, "pitch": 60, "duration": 7, "velocity": 97}, {"time": 1028, "pitch": 63, "duration": 7, "velocity": 127}, {"time": 1028, "pitch": 68, "duration": 8, "velocity": 112}, {"time": 1034, "pitch": 44, "duration": 19, "velocity": 102}, {"time": 1040, "pitch": 60, "duration": 2, "velocity": 88}, {"time": 1040, "pitch": 63, "duration": 2, "velocity": 122}, {"time": 1040, "pitch": 68, "duration": 2, "velocity": 99}, {"time": 1046, "pitch": 51, "duration": 9, "velocity": 64}, {"time": 1046, "pitch": 56, "duration": 10, "velocity": 112}, {"time": 1046, "pitch": 60, "duration": 6, "velocity": 95}, {"time": 1046, "pitch": 63, "duration": 6, "velocity": 127}, {"time": 1046, "pitch": 68, "duration": 6, "velocity": 102}, {"time": 1055, "pitch": 44, "duration": 21, "velocity": 97}, {"time": 1055, "pitch": 60, "duration": 3, "velocity": 92}, {"time": 1055, "pitch": 63, "duration": 3, "velocity": 127}, {"time": 1055, "pitch": 68, "duration": 4, "velocity": 122}, {"time": 1064, "pitch": 60, "duration": 2, "velocity": 86}, {"time": 1064, "pitch": 63, "duration": 3, "velocity": 127}, {"time": 1064, "pitch": 68, "duration": 3, "velocity": 112}, {"time": 1070, "pitch": 51, "duration": 3, "velocity": 69}, {"time": 1070, "pitch": 56, "duration": 6, "velocity": 102}, {"time": 1070, "pitch": 60, "duration": 3, "velocity": 89}, {"time": 1070, "pitch": 63, "duration": 3, "velocity": 127}, {"time": 1070, "pitch": 68, "duration": 3, "velocity": 112}, {"time": 1076, "pitch": 60, "duration": 6, "velocity": 95}, {"time": 1076, "pitch": 63, "duration": 6, "velocity": 127}, {"time": 1076, "pitch": 68, "duration": 6, "velocity": 107}, {"time": 1082, "pitch": 41, "duration": 14, "velocity": 97}, {"time": 1088, "pitch": 60, "duration": 2, "velocity": 99}, {"time": 1088, "pitch": 65, "duration": 3, "velocity": 122}, {"time": 1088, "pitch": 68, "duration": 3, "velocity": 122}, {"time": 1094, "pitch": 48, "duration": 10, "velocity": 78}, {"time": 1094, "pitch": 53, "duration": 10, "velocity": 92}, {"time": 1094, "pitch": 60, "duration": 6, "velocity": 96}, {"time": 1094, "pitch": 65, "duration": 6, "velocity": 112}, {"time": 1094, "pitch": 68, "duration": 6, "velocity": 102}, {"time": 1103, "pitch": 41, "duration": 16, "velocity": 79}, {"time": 1103, "pitch": 60, "duration": 3, "velocity": 93}, {"time": 1103, "pitch": 65, "duration": 3, "velocity": 100}, {"time": 1103, "pitch": 68, "duration": 4, "velocity": 107}, {"time": 1112, "pitch": 60, "duration": 8, "velocity": 99}, {"time": 1112, "pitch": 65, "duration": 8, "velocity": 100}, {"time": 1112, "pitch": 68, "duration": 8, "velocity": 112}, {"time": 1118, "pitch": 53, "duration": 10, "velocity": 102}, {"time": 1124, "pitch": 60, "duration": 7, "velocity": 97}, {"time": 1124, "pitch": 65, "duration": 3, "velocity": 99}, {"time": 1124, "pitch": 68, "duration": 2, "velocity": 93}, {"time": 1130, "pitch": 46, "duration": 19, "velocity": 95}, {"time": 1136, "pitch": 62, "duration": 3, "velocity": 107}, {"time": 1136, "pitch": 65, "duration": 2, "velocity": 99}, {"time": 1136, "pitch": 70, "duration": 3, "velocity": 112}, {"time": 1142, "pitch": 53, "duration": 10, "velocity": 37}, {"time": 1142, "pitch": 58, "duration": 13, "velocity": 107}, {"time": 1142, "pitch": 62, "duration": 6, "velocity": 96}, {"time": 1142, "pitch": 65, "duration": 6, "velocity": 102}, {"time": 1142, "pitch": 70, "duration": 6, "velocity": 112}, {"time": 1151, "pitch": 46, "duration": 21, "velocity": 99}, {"time": 1151, "pitch": 62, "duration": 4, "velocity": 100}, {"time": 1151, "pitch": 65, "duration": 4, "velocity": 107}, {"time": 1151, "pitch": 70, "duration": 4, "velocity": 117}, {"time": 1160, "pitch": 53, "duration": 3, "velocity": 51}, {"time": 1160, "pitch": 58, "duration": 3, "velocity": 112}, {"time": 1160, "pitch": 62, "duration": 3, "velocity": 112}, {"time": 1160, "pitch": 65, "duration": 3, "velocity": 127}, {"time": 1160, "pitch": 70, "duration": 3, "velocity": 122}, {"time": 1166, "pitch": 53, "duration": 5, "velocity": 67}, {"time": 1166, "pitch": 58, "duration": 6, "velocity": 127}, {"time": 1166, "pitch": 62, "duration": 3, "velocity": 100}, {"time": 1166, "pitch": 65, "duration": 3, "velocity": 102}, {"time": 1166, "pitch": 70, "duration": 3, "velocity": 117}, {"time": 1172, "pitch": 62, "duration": 4, "velocity": 117}, {"time": 1172, "pitch": 65, "duration": 2, "velocity": 117}, {"time": 1172, "pitch": 70, "duration": 3, "velocity": 117}, {"time": 1178, "pitch": 39, "duration": 12, "velocity": 97}, {"time": 1184, "pitch": 63, "duration": 2, "velocity": 96}, {"time": 1184, "pitch": 67, "duration": 1, "velocity": 89}, {"time": 1184, "pitch": 70, "duration": 1, "velocity": 99}, {"time": 1190, "pitch": 46, "duration": 9, "velocity": 59}, {"time": 1190, "pitch": 51, "duration": 10, "velocity": 93}, {"time": 1190, "pitch": 63, "duration": 6, "velocity": 107}, {"time": 1190, "pitch": 67, "duration": 3, "velocity": 102}, {"time": 1190, "pitch": 70, "duration": 6, "velocity": 122}, {"time": 1199, "pitch": 63, "duration": 2, "velocity": 100}, {"time": 1199, "pitch": 67, "duration": 1, "velocity": 102}, {"time": 1199, "pitch": 70, "duration": 2, "velocity": 117}, {"time": 1202, "pitch": 39, "duration": 17, "velocity": 83}, {"time": 1208, "pitch": 63, "duration": 5, "velocity": 117}, {"time": 1208, "pitch": 67, "duration": 2, "velocity": 112}, {"time": 1208, "pitch": 70, "duration": 3, "velocity": 117}, {"time": 1211, "pitch": 46, "duration": 12, "velocity": 65}, {"time": 1211, "pitch": 51, "duration": 10, "velocity": 93}, {"time": 1217, "pitch": 63, "duration": 4, "velocity": 112}, {"time": 1217, "pitch": 67, "duration": 2, "velocity": 102}, {"time": 1217, "pitch": 70, "duration": 3, "velocity": 127}, {"time": 1226, "pitch": 39, "duration": 13, "velocity": 102}, {"time": 1226, "pitch": 63, "duration": 4, "velocity": 107}, {"time": 1226, "pitch": 67, "duration": 2, "velocity": 100}, {"time": 1226, "pitch": 70, "duration": 4, "velocity": 107}, {"time": 1232, "pitch": 63, "duration": 2, "velocity": 95}, {"time": 1232, "pitch": 67, "duration": 1, "velocity": 96}, {"time": 1232, "pitch": 70, "duration": 2, "velocity": 97}, {"time": 1238, "pitch": 46, "duration": 9, "velocity": 36}, {"time": 1238, "pitch": 51, "duration": 10, "velocity": 85}, {"time": 1238, "pitch": 63, "duration": 6, "velocity": 107}, {"time": 1238, "pitch": 67, "duration": 5, "velocity": 107}, {"time": 1238, "pitch": 70, "duration": 5, "velocity": 112}, {"time": 1247, "pitch": 39, "duration": 16, "velocity": 90}, {"time": 1247, "pitch": 63, "duration": 4, "velocity": 96}, {"time": 1247, "pitch": 67, "duration": 2, "velocity": 99}, {"time": 1247, "pitch": 70, "duration": 4, "velocity": 107}, {"time": 1253, "pitch": 63, "duration": 3, "velocity": 96}, {"time": 1253, "pitch": 67, "duration": 2, "velocity": 102}, {"time": 1253, "pitch": 70, "duration": 3, "velocity": 102}, {"time": 1256, "pitch": 46, "duration": 5, "velocity": 37}, {"time": 1256, "pitch": 51, "duration": 6, "velocity": 95}, {"time": 1262, "pitch": 63, "duration": 3, "velocity": 99}, {"time": 1262, "pitch": 67, "duration": 3, "velocity": 107}, {"time": 1262, "pitch": 70, "duration": 3, "velocity": 127}, {"time": 1268, "pitch": 63, "duration": 4, "velocity": 107}, {"time": 1268, "pitch": 67, "duration": 2, "velocity": 93}, {"time": 1268, "pitch": 70, "duration": 3, "velocity": 112}, {"time": 1274, "pitch": 36, "duration": 12, "velocity": 89}, {"time": 1280, "pitch": 60, "duration": 2, "velocity": 92}, {"time": 1280, "pitch": 63, "duration": 3, "velocity": 100}, {"time": 1280, "pitch": 67, "duration": 2, "velocity": 81}, {"time": 1286, "pitch": 43, "duration": 10, "velocity": 50}, {"time": 1286, "pitch": 48, "duration": 10, "velocity": 81}, {"time": 1286, "pitch": 60, "duration": 6, "velocity": 97}, {"time": 1286, "pitch": 63, "duration": 6, "velocity": 127}, {"time": 1286, "pitch": 67, "duration": 6, "velocity": 89}, {"time": 1295, "pitch": 36, "duration": 13, "velocity": 86}, {"time": 1295, "pitch": 60, "duration": 3, "velocity": 93}, {"time": 1295, "pitch": 63, "duration": 4, "velocity": 122}, {"time": 1295, "pitch": 67, "duration": 4, "velocity": 96}, {"time": 1304, "pitch": 60, "duration": 7, "velocity": 112}, {"time": 1304, "pitch": 63, "duration": 7, "velocity": 127}, {"time": 1304, "pitch": 67, "duration": 7, "velocity": 100}, {"time": 1310, "pitch": 43, "duration": 10, "velocity": 72}, {"time": 1310, "pitch": 48, "duration": 12, "velocity": 93}, {"time": 1316, "pitch": 60, "duration": 7, "velocity": 99}, {"time": 1316, "pitch": 63, "duration": 7, "velocity": 127}, {"time": 1316, "pitch": 67, "duration": 7, "velocity": 93}, {"time": 1322, "pitch": 36, "duration": 13, "velocity": 83}, {"time": 1328, "pitch": 60, "duration": 2, "velocity": 89}, {"time": 1328, "pitch": 63, "duration": 2, "velocity": 122}, {"time": 1328, "pitch": 67, "duration": 2, "velocity": 88}, {"time": 1334, "pitch": 43, "duration": 10, "velocity": 82}, {"time": 1334, "pitch": 48, "duration": 10, "velocity": 95}, {"time": 1334, "pitch": 60, "duration": 5, "velocity": 96}, {"time": 1334, "pitch": 63, "duration": 6, "velocity": 122}, {"time": 1334, "pitch": 67, "duration": 5, "velocity": 89}, {"time": 1343, "pitch": 36, "duration": 15, "velocity": 95}, {"time": 1343, "pitch": 60, "duration": 3, "velocity": 100}, {"time": 1343, "pitch": 63, "duration": 3, "velocity": 127}, {"time": 1343, "pitch": 67, "duration": 3, "velocity": 97}, {"time": 1352, "pitch": 60, "duration": 2, "velocity": 95}, {"time": 1352, "pitch": 63, "duration": 2, "velocity": 127}, {"time": 1352, "pitch": 67, "duration": 2, "velocity": 99}, {"time": 1358, "pitch": 48, "duration": 7, "velocity": 100}, {"time": 1358, "pitch": 60, "duration": 2, "velocity": 99}, {"time": 1358, "pitch": 63, "duration": 2, "velocity": 127}, {"time": 1358, "pitch": 67, "duration": 2, "velocity": 100}, {"time": 1364, "pitch": 60, "duration": 8, "velocity": 100}, {"time": 1364, "pitch": 63, "duration": 5, "velocity": 127}, {"time": 1364, "pitch": 67, "duration": 3, "velocity": 92}, {"time": 1370, "pitch": 44, "duration": 17, "velocity": 102}, {"time": 1376, "pitch": 60, "duration": 2, "velocity": 96}, {"time": 1376, "pitch": 63, "duration": 2, "velocity": 127}, {"time": 1376, "pitch": 68, "duration": 2, "velocity": 112}, {"time": 1382, "pitch": 56, "duration": 12, "velocity": 90}, {"time": 1382, "pitch": 60, "duration": 6, "velocity": 97}, {"time": 1382, "pitch": 63, "duration": 6, "velocity": 127}, {"time": 1382, "pitch": 68, "duration": 6, "velocity": 112}, {"time": 1385, "pitch": 51, "duration": 5, "velocity": 23}, {"time": 1391, "pitch": 60, "duration": 3, "velocity": 95}, {"time": 1391, "pitch": 63, "duration": 3, "velocity": 127}, {"time": 1391, "pitch": 68, "duration": 3, "velocity": 107}, {"time": 1394, "pitch": 44, "duration": 21, "velocity": 93}, {"time": 1400, "pitch": 60, "duration": 8, "velocity": 100}, {"time": 1400, "pitch": 63, "duration": 8, "velocity": 127}, {"time": 1400, "pitch": 68, "duration": 8, "velocity": 112}, {"time": 1406, "pitch": 51, "duration": 2, "velocity": 42}, {"time": 1406, "pitch": 56, "duration": 10, "velocity": 117}, {"time": 1412, "pitch": 51, "duration": 4, "velocity": 24}, {"time": 1412, "pitch": 60, "duration": 7, "velocity": 97}, {"time": 1412, "pitch": 63, "duration": 7, "velocity": 127}, {"time": 1412, "pitch": 68, "duration": 8, "velocity": 112}, {"time": 1418, "pitch": 44, "duration": 19, "velocity": 102}, {"time": 1424, "pitch": 60, "duration": 2, "velocity": 88}, {"time": 1424, "pitch": 63, "duration": 2, "velocity": 122}, {"time": 1424, "pitch": 68, "duration": 2, "velocity": 99}, {"time": 1430, "pitch": 51, "duration": 9, "velocity": 64}, {"time": 1430, "pitch": 56, "duration": 10, "velocity": 112}, {"time": 1430, "pitch": 60, "duration": 6, "velocity": 95}, {"time": 1430, "pitch": 63, "duration": 6, "velocity": 127}, {"time": 1430, "pitch": 68, "duration": 6, "velocity": 102}, {"time": 1439, "pitch": 44, "duration": 21, "velocity": 97}, {"time": 1439, "pitch": 60, "duration": 3, "velocity": 92}, {"time": 1439, "pitch": 63, "duration": 3, "velocity": 127}, {"time": 1439, "pitch": 68, "duration": 4, "velocity": 122}, {"time": 1448, "pitch": 60, "duration": 2, "velocity": 86}, {"time": 1448, "pitch": 63, "duration": 3, "velocity": 127}, {"time": 1448, "pitch": 68, "duration": 3, "velocity": 112}, {"time": 1454, "pitch": 51, "duration": 3, "velocity": 69}, {"time": 1454, "pitch": 56, "duration": 6, "velocity": 102}, {"time": 1454, "pitch": 60, "duration": 3, "velocity": 89}, {"time": 1454, "pitch": 63, "duration": 3, "velocity": 127}, {"time": 1454, "pitch": 68, "duration": 3, "velocity": 112}, {"time": 1460, "pitch": 60, "duration": 6, "velocity": 95}, {"time": 1460, "pitch": 63, "duration": 6, "velocity": 127}, {"time": 1460, "pitch": 68, "duration": 6, "velocity": 107}, {"time": 1466, "pitch": 41, "duration": 14, "velocity": 97}, {"time": 1472, "pitch": 60, "duration": 2, "velocity": 99}, {"time": 1472, "pitch": 65, "duration": 3, "velocity": 122}, {"time": 1472, "pitch": 68, "duration": 3, "velocity": 122}, {"time": 1478, "pitch": 48, "duration": 10, "velocity": 78}, {"time": 1478, "pitch": 53, "duration": 10, "velocity": 92}, {"time": 1478, "pitch": 60, "duration": 6, "velocity": 96}, {"time": 1478, "pitch": 65, "duration": 6, "velocity": 112}, {"time": 1478, "pitch": 68, "duration": 6, "velocity": 102}, {"time": 1487, "pitch": 41, "duration": 16, "velocity": 79}, {"time": 1487, "pitch": 60, "duration": 3, "velocity": 93}, {"time": 1487, "pitch": 65, "duration": 3, "velocity": 100}, {"time": 1487, "pitch": 68, "duration": 4, "velocity": 107}, {"time": 1496, "pitch": 60, "duration": 8, "velocity": 99}, {"time": 1496, "pitch": 65, "duration": 8, "velocity": 100}, {"time": 1496, "pitch": 68, "duration": 8, "velocity": 112}, {"time": 1502, "pitch": 53, "duration": 10, "velocity": 102}, {"time": 1508, "pitch": 60, "duration": 7, "velocity": 97}, {"time": 1508, "pitch": 65, "duration": 3, "velocity": 99}, {"time": 1508, "pitch": 68, "duration": 2, "velocity": 93}, {"time": 1514, "pitch": 46, "duration": 19, "velocity": 95}, {"time": 1520, "pitch": 62, "duration": 3, "velocity": 107}, {"time": 1520, "pitch": 65, "duration": 2, "velocity": 99}, {"time": 1520, "pitch": 70, "duration": 3, "velocity": 112}, {"time": 1526, "pitch": 53, "duration": 10, "velocity": 37}, {"time": 1526, "pitch": 58, "duration": 13, "velocity": 107}, {"time": 1526, "pitch": 62, "duration": 6, "velocity": 96}, {"time": 1526, "pitch": 65, "duration": 6, "velocity": 102}, {"time": 1526, "pitch": 70, "duration": 6, "velocity": 112}, {"time": 1535, "pitch": 46, "duration": 21, "velocity": 99}, {"time": 1535, "pitch": 62, "duration": 4, "velocity": 100}, {"time": 1535, "pitch": 65, "duration": 4, "velocity": 107}, {"time": 1535, "pitch": 70, "duration": 4, "velocity": 117}, {"time": 1544, "pitch": 53, "duration": 3, "velocity": 51}, {"time": 1544, "pitch": 58, "duration": 3, "velocity": 112}, {"time": 1544, "pitch": 62, "duration": 3, "velocity": 112}, {"time": 1544, "pitch": 65, "duration": 3, "velocity": 127}, {"time": 1544, "pitch": 70, "duration": 3, "velocity": 122}, {"time": 1550, "pitch": 53, "duration": 5, "velocity": 67}, {"time": 1550, "pitch": 58, "duration": 6, "velocity": 127}, {"time": 1550, "pitch": 62, "duration": 3, "velocity": 100}, {"time": 1550, "pitch": 65, "duration": 3, "velocity": 102}, {"time": 1550, "pitch": 70, "duration": 3, "velocity": 117}, {"time": 1556, "pitch": 62, "duration": 4, "velocity": 117}, {"time": 1556, "pitch": 65, "duration": 2, "velocity": 117}, {"time": 1556, "pitch": 70, "duration": 3, "velocity": 117}, {"time": 1562, "pitch": 39, "duration": 12, "velocity": 112}, {"time": 1568, "pitch": 63, "duration": 2, "velocity": 102}, {"time": 1568, "pitch": 67, "duration": 2, "velocity": 92}, {"time": 1568, "pitch": 70, "duration": 2, "velocity": 100}, {"time": 1574, "pitch": 46, "duration": 11, "velocity": 59}, {"time": 1574, "pitch": 51, "duration": 12, "velocity": 107}, {"time": 1574, "pitch": 63, "duration": 6, "velocity": 117}, {"time": 1574, "pitch": 67, "duration": 3, "velocity": 102}, {"time": 1574, "pitch": 70, "duration": 6, "velocity": 112}, {"time": 1577, "pitch": 67, "duration": 2, "velocity": 25}, {"time": 1583, "pitch": 63, "duration": 5, "velocity": 99}, {"time": 1583, "pitch": 67, "duration": 4, "velocity": 97}, {"time": 1583, "pitch": 70, "duration": 5, "velocity": 107}, {"time": 1586, "pitch": 39, "duration": 22, "velocity": 85}, {"time": 1592, "pitch": 63, "duration": 3, "velocity": 117}, {"time": 1592, "pitch": 67, "duration": 2, "velocity": 122}, {"time": 1592, "pitch": 70, "duration": 2, "velocity": 122}, {"time": 1598, "pitch": 46, "duration": 11, "velocity": 58}, {"time": 1598, "pitch": 51, "duration": 13, "velocity": 117}, {"time": 1604, "pitch": 63, "duration": 9, "velocity": 117}, {"time": 1604, "pitch": 67, "duration": 8, "velocity": 117}, {"time": 1604, "pitch": 70, "duration": 9, "velocity": 117}, {"time": 1610, "pitch": 39, "duration": 22, "velocity": 97}, {"time": 1616, "pitch": 63, "duration": 3, "velocity": 97}, {"time": 1616, "pitch": 67, "duration": 2, "velocity": 93}, {"time": 1616, "pitch": 70, "duration": 3, "velocity": 97}, {"time": 1622, "pitch": 51, "duration": 14, "velocity": 117}, {"time": 1622, "pitch": 63, "duration": 6, "velocity": 100}, {"time": 1622, "pitch": 66, "duration": 1, "velocity": 76}, {"time": 1622, "pitch": 67, "duration": 3, "velocity": 107}, {"time": 1622, "pitch": 70, "duration": 6, "velocity": 112}, {"time": 1628, "pitch": 46, "duration": 7, "velocity": 26}, {"time": 1631, "pitch": 63, "duration": 4, "velocity": 107}, {"time": 1631, "pitch": 67, "duration": 3, "velocity": 99}, {"time": 1631, "pitch": 70, "duration": 3, "velocity": 112}, {"time": 1634, "pitch": 39, "duration": 14, "velocity": 100}, {"time": 1640, "pitch": 63, "duration": 2, "velocity": 117}, {"time": 1640, "pitch": 67, "duration": 1, "velocity": 107}, {"time": 1640, "pitch": 70, "duration": 2, "velocity": 112}, {"time": 1646, "pitch": 46, "duration": 2, "velocity": 62}, {"time": 1646, "pitch": 51, "duration": 2, "velocity": 127}, {"time": 1646, "pitch": 63, "duration": 4, "velocity": 99}, {"time": 1646, "pitch": 67, "duration": 3, "velocity": 97}, {"time": 1646, "pitch": 70, "duration": 5, "velocity": 127}, {"time": 1652, "pitch": 38, "duration": 7, "velocity": 97}, {"time": 1658, "pitch": 36, "duration": 15, "velocity": 92}, {"time": 1658, "pitch": 60, "duration": 3, "velocity": 107}, {"time": 1658, "pitch": 63, "duration": 3, "velocity": 112}, {"time": 1658, "pitch": 67, "duration": 3, "velocity": 93}, {"time": 1664, "pitch": 60, "duration": 3, "velocity": 88}, {"time": 1664, "pitch": 63, "duration": 3, "velocity": 112}, {"time": 1664, "pitch": 67, "duration": 2, "velocity": 88}, {"time": 1670, "pitch": 43, "duration": 11, "velocity": 77}, {"time": 1670, "pitch": 48, "duration": 11, "velocity": 95}, {"time": 1670, "pitch": 60, "duration": 6, "velocity": 102}, {"time": 1670, "pitch": 63, "duration": 6, "velocity": 127}, {"time": 1670, "pitch": 67, "duration": 6, "velocity": 93}, {"time": 1679, "pitch": 60, "duration": 3, "velocity": 100}, {"time": 1679, "pitch": 63, "duration": 3, "velocity": 122}, {"time": 1679, "pitch": 67, "duration": 3, "velocity": 100}, {"time": 1682, "pitch": 36, "duration": 15, "velocity": 77}, {"time": 1688, "pitch": 60, "duration": 7, "velocity": 95}, {"time": 1688, "pitch": 63, "duration": 7, "velocity": 107}, {"time": 1688, "pitch": 67, "duration": 7, "velocity": 81}, {"time": 1694, "pitch": 43, "duration": 10, "velocity": 78}, {"time": 1694, "pitch": 48, "duration": 10, "velocity": 99}, {"time": 1700, "pitch": 60, "duration": 8, "velocity": 95}, {"time": 1700, "pitch": 63, "duration": 7, "velocity": 112}, {"time": 1700, "pitch": 67, "duration": 8, "velocity": 86}, {"time": 1706, "pitch": 36, "duration": 14, "velocity": 76}, {"time": 1712, "pitch": 60, "duration": 2, "velocity": 83}, {"time": 1712, "pitch": 63, "duration": 2, "velocity": 107}, {"time": 1712, "pitch": 67, "duration": 2, "velocity": 81}, {"time": 1718, "pitch": 43, "duration": 10, "velocity": 56}, {"time": 1718, "pitch": 48, "duration": 13, "velocity": 86}, {"time": 1718, "pitch": 60, "duration": 7, "velocity": 95}, {"time": 1718, "pitch": 63, "duration": 6, "velocity": 117}, {"time": 1718, "pitch": 67, "duration": 6, "velocity": 81}, {"time": 1727, "pitch": 60, "duration": 4, "velocity": 83}, {"time": 1727, "pitch": 63, "duration": 4, "velocity": 112}, {"time": 1727, "pitch": 67, "duration": 4, "velocity": 86}, {"time": 1730, "pitch": 36, "duration": 14, "velocity": 97}, {"time": 1736, "pitch": 60, "duration": 3, "velocity": 90}, {"time": 1736, "pitch": 63, "duration": 3, "velocity": 112}, {"time": 1736, "pitch": 67, "duration": 3, "velocity": 88}, {"time": 1742, "pitch": 48, "duration": 6, "velocity": 95}, {"time": 1742, "pitch": 60, "duration": 3, "velocity": 90}, {"time": 1742, "pitch": 63, "duration": 3, "velocity": 112}, {"time": 1742, "pitch": 67, "duration": 3, "velocity": 93}, {"time": 1748, "pitch": 60, "duration": 4, "velocity": 95}, {"time": 1748, "pitch": 63, "duration": 3, "velocity": 117}, {"time": 1748, "pitch": 67, "duration": 1, "velocity": 58}, {"time": 1754, "pitch": 44, "duration": 14, "velocity": 90}, {"time": 1754, "pitch": 60, "duration": 3, "velocity": 82}, {"time": 1754, "pitch": 63, "duration": 3, "velocity": 122}, {"time": 1754, "pitch": 68, "duration": 2, "velocity": 112}, {"time": 1760, "pitch": 60, "duration": 3, "velocity": 73}, {"time": 1760, "pitch": 63, "duration": 3, "velocity": 102}, {"time": 1760, "pitch": 68, "duration": 3, "velocity": 96}, {"time": 1766, "pitch": 51, "duration": 10, "velocity": 47}, {"time": 1766, "pitch": 56, "duration": 12, "velocity": 99}, {"time": 1766, "pitch": 60, "duration": 7, "velocity": 86}, {"time": 1766, "pitch": 63, "duration": 6, "velocity": 117}, {"time": 1766, "pitch": 68, "duration": 6, "velocity": 102}, {"time": 1775, "pitch": 60, "duration": 5, "velocity": 79}, {"time": 1775, "pitch": 63, "duration": 5, "velocity": 122}, {"time": 1775, "pitch": 68, "duration": 5, "velocity": 102}, {"time": 1778, "pitch": 44, "duration": 16, "velocity": 81}, {"time": 1784, "pitch": 60, "duration": 3, "velocity": 92}, {"time": 1784, "pitch": 63, "duration": 3, "velocity": 127}, {"time": 1784, "pitch": 68, "duration": 3, "velocity": 107}, {"time": 1790, "pitch": 51, "duration": 10, "velocity": 59}, {"time": 1790, "pitch": 56, "duration": 12, "velocity": 89}, {"time": 1790, "pitch": 60, "duration": 3, "velocity": 83}, {"time": 1790, "pitch": 63, "duration": 3, "velocity": 122}, {"time": 1790, "pitch": 68, "duration": 4, "velocity": 100}, {"time": 1796, "pitch": 60, "duration": 7, "velocity": 85}, {"time": 1796, "pitch": 63, "duration": 7, "velocity": 117}, {"time": 1796, "pitch": 68, "duration": 7, "velocity": 107}, {"time": 1802, "pitch": 44, "duration": 18, "velocity": 99}, {"time": 1808, "pitch": 60, "duration": 2, "velocity": 85}, {"time": 1808, "pitch": 63, "duration": 2, "velocity": 107}, {"time": 1808, "pitch": 68, "duration": 2, "velocity": 95}, {"time": 1814, "pitch": 51, "duration": 10, "velocity": 63}, {"time": 1814, "pitch": 56, "duration": 11, "velocity": 99}, {"time": 1814, "pitch": 60, "duration": 6, "velocity": 92}, {"time": 1814, "pitch": 63, "duration": 6, "velocity": 127}, {"time": 1814, "pitch": 68, "duration": 5, "velocity": 102}, {"time": 1823, "pitch": 60, "duration": 5, "velocity": 88}, {"time": 1823, "pitch": 63, "duration": 5, "velocity": 127}, {"time": 1823, "pitch": 68, "duration": 5, "velocity": 112}, {"time": 1826, "pitch": 44, "duration": 19, "velocity": 96}, {"time": 1832, "pitch": 60, "duration": 3, "velocity": 93}, {"time": 1832, "pitch": 63, "duration": 3, "velocity": 127}, {"time": 1832, "pitch": 68, "duration": 3, "velocity": 112}, {"time": 1838, "pitch": 56, "duration": 10, "velocity": 100}, {"time": 1838, "pitch": 60, "duration": 3, "velocity": 99}, {"time": 1838, "pitch": 63, "duration": 2, "velocity": 127}, {"time": 1838, "pitch": 68, "duration": 3, "velocity": 112}, {"time": 1844, "pitch": 60, "duration": 3, "velocity": 82}, {"time": 1844, "pitch": 63, "duration": 2, "velocity": 122}, {"time": 1844, "pitch": 68, "duration": 2, "velocity": 56}, {"time": 1847, "pitch": 46, "duration": 22, "velocity": 93}, {"time": 1850, "pitch": 62, "duration": 3, "velocity": 77}, {"time": 1850, "pitch": 65, "duration": 3, "velocity": 77}, {"time": 1850, "pitch": 70, "duration": 2, "velocity": 63}, {"time": 1856, "pitch": 62, "duration": 3, "velocity": 89}, {"time": 1856, "pitch": 65, "duration": 3, "velocity": 96}, {"time": 1856, "pitch": 70, "duration": 3, "velocity": 100}, {"time": 1862, "pitch": 58, "duration": 12, "velocity": 102}, {"time": 1862, "pitch": 62, "duration": 6, "velocity": 95}, {"time": 1862, "pitch": 65, "duration": 6, "velocity": 102}, {"time": 1862, "pitch": 70, "duration": 6, "velocity": 107}, {"time": 1871, "pitch": 62, "duration": 4, "velocity": 95}, {"time": 1871, "pitch": 65, "duration": 4, "velocity": 99}, {"time": 1871, "pitch": 70, "duration": 4, "velocity": 112}, {"time": 1874, "pitch": 46, "duration": 32, "velocity": 107}, {"time": 1880, "pitch": 62, "duration": 7, "velocity": 95}, {"time": 1880, "pitch": 65, "duration": 7, "velocity": 96}, {"time": 1880, "pitch": 70, "duration": 7, "velocity": 107}, {"time": 1886, "pitch": 58, "duration": 8, "velocity": 122}, {"time": 1892, "pitch": 62, "duration": 8, "velocity": 102}, {"time": 1892, "pitch": 65, "duration": 8, "velocity": 112}, {"time": 1892, "pitch": 70, "duration": 8, "velocity": 117}, {"time": 1898, "pitch": 58, "duration": 2, "velocity": 112}, {"time": 1904, "pitch": 53, "duration": 2, "velocity": 67}, {"time": 1904, "pitch": 58, "duration": 2, "velocity": 82}, {"time": 1904, "pitch": 62, "duration": 3, "velocity": 100}, {"time": 1904, "pitch": 65, "duration": 3, "velocity": 99}, {"time": 1904, "pitch": 70, "duration": 3, "velocity": 107}, {"time": 1910, "pitch": 46, "duration": 3, "velocity": 83}, {"time": 1910, "pitch": 53, "duration": 2, "velocity": 70}, {"time": 1910, "pitch": 58, "duration": 3, "velocity": 127}, {"time": 1910, "pitch": 62, "duration": 3, "velocity": 99}, {"time": 1910, "pitch": 65, "duration": 3, "velocity": 100}, {"time": 1910, "pitch": 70, "duration": 3, "velocity": 112}, {"time": 1916, "pitch": 46, "duration": 3, "velocity": 77}, {"time": 1916, "pitch": 53, "duration": 2, "velocity": 69}, {"time": 1916, "pitch": 58, "duration": 3, "velocity": 99}, {"time": 1916, "pitch": 62, "duration": 3, "velocity": 96}, {"time": 1916, "pitch": 65, "duration": 3, "velocity": 97}, {"time": 1916, "pitch": 70, "duration": 3, "velocity": 107}, {"time": 1922, "pitch": 46, "duration": 3, "velocity": 90}, {"time": 1922, "pitch": 53, "duration": 2, "velocity": 64}, {"time": 1922, "pitch": 58, "duration": 2, "velocity": 127}, {"time": 1922, "pitch": 62, "duration": 3, "velocity": 99}, {"time": 1922, "pitch": 65, "duration": 3, "velocity": 99}, {"time": 1922, "pitch": 70, "duration": 3, "velocity": 102}, {"time": 1928, "pitch": 46, "duration": 3, "velocity": 89}, {"time": 1928, "pitch": 53, "duration": 2, "velocity": 53}, {"time": 1928, "pitch": 58, "duration": 2, "velocity": 112}, {"time": 1928, "pitch": 62, "duration": 3, "velocity": 100}, {"time": 1928, "pitch": 65, "duration": 3, "velocity": 99}, {"time": 1928, "pitch": 70, "duration": 3, "velocity": 102}, {"time": 1934, "pitch": 46, "duration": 3, "velocity": 88}, {"time": 1934, "pitch": 53, "duration": 2, "velocity": 49}, {"time": 1934, "pitch": 58, "duration": 2, "velocity": 117}, {"time": 1934, "pitch": 62, "duration": 3, "velocity": 100}, {"time": 1934, "pitch": 65, "duration": 3, "velocity": 102}, {"time": 1934, "pitch": 70, "duration": 3, "velocity": 102}, {"time": 1940, "pitch": 46, "duration": 1, "velocity": 53}, {"time": 1940, "pitch": 58, "duration": 2, "velocity": 112}, {"time": 1940, "pitch": 62, "duration": 2, "velocity": 117}, {"time": 1940, "pitch": 70, "duration": 1, "velocity": 93}, {"time": 1946, "pitch": 39, "duration": 59, "velocity": 127}, {"time": 1946, "pitch": 63, "duration": 4, "velocity": 122}, {"time": 1946, "pitch": 67, "duration": 3, "velocity": 102}, {"time": 1946, "pitch": 70, "duration": 1, "velocity": 107}, {"time": 1952, "pitch": 63, "duration": 3, "velocity": 96}, {"time": 1952, "pitch": 67, "duration": 2, "velocity": 99}, {"time": 1952, "pitch": 70, "duration": 2, "velocity": 96}, {"time": 1958, "pitch": 51, "duration": 8, "velocity": 107}, {"time": 1958, "pitch": 63, "duration": 6, "velocity": 117}, {"time": 1958, "pitch": 67, "duration": 6, "velocity": 112}, {"time": 1958, "pitch": 70, "duration": 6, "velocity": 127}, {"time": 1967, "pitch": 63, "duration": 4, "velocity": 117}, {"time": 1967, "pitch": 67, "duration": 3, "velocity": 112}, {"time": 1967, "pitch": 70, "duration": 4, "velocity": 122}, {"time": 1970, "pitch": 51, "duration": 7, "velocity": 117}, {"time": 1976, "pitch": 63, "duration": 9, "velocity": 112}, {"time": 1976, "pitch": 67, "duration": 9, "velocity": 107}, {"time": 1976, "pitch": 70, "duration": 9, "velocity": 122}, {"time": 1982, "pitch": 51, "duration": 7, "velocity": 112}, {"time": 1988, "pitch": 63, "duration": 9, "velocity": 102}, {"time": 1988, "pitch": 67, "duration": 9, "velocity": 92}, {"time": 1988, "pitch": 70, "duration": 9, "velocity": 107}, {"time": 1994, "pitch": 51, "duration": 8, "velocity": 107}, {"time": 2000, "pitch": 63, "duration": 3, "velocity": 107}, {"time": 2000, "pitch": 67, "duration": 3, "velocity": 88}, {"time": 2000, "pitch": 70, "duration": 3, "velocity": 96}, {"time": 2006, "pitch": 39, "duration": 9, "velocity": 59}, {"time": 2006, "pitch": 51, "duration": 14, "velocity": 102}, {"time": 2006, "pitch": 63, "duration": 6, "velocity": 117}, {"time": 2006, "pitch": 67, "duration": 6, "velocity": 93}, {"time": 2006, "pitch": 70, "duration": 6, "velocity": 102}, {"time": 2015, "pitch": 63, "duration": 5, "velocity": 100}, {"time": 2015, "pitch": 67, "duration": 3, "velocity": 93}, {"time": 2015, "pitch": 70, "duration": 5, "velocity": 99}, {"time": 2018, "pitch": 39, "duration": 15, "velocity": 99}, {"time": 2024, "pitch": 63, "duration": 8, "velocity": 107}, {"time": 2024, "pitch": 67, "duration": 3, "velocity": 112}, {"time": 2024, "pitch": 70, "duration": 8, "velocity": 112}, {"time": 2030, "pitch": 51, "duration": 3, "velocity": 117}, {"time": 2036, "pitch": 63, "duration": 5, "velocity": 122}, {"time": 2036, "pitch": 70, "duration": 3, "velocity": 100}, {"time": 2042, "pitch": 36, "duration": 15, "velocity": 105}, {"time": 2042, "pitch": 63, "duration": 1, "velocity": 34}, {"time": 2048, "pitch": 60, "duration": 3, "velocity": 99}, {"time": 2048, "pitch": 63, "duration": 3, "velocity": 112}, {"time": 2048, "pitch": 67, "duration": 3, "velocity": 88}, {"time": 2054, "pitch": 43, "duration": 11, "velocity": 69}, {"time": 2054, "pitch": 48, "duration": 11, "velocity": 96}, {"time": 2054, "pitch": 60, "duration": 6, "velocity": 92}, {"time": 2054, "pitch": 63, "duration": 6, "velocity": 117}, {"time": 2054, "pitch": 67, "duration": 6, "velocity": 93}, {"time": 2063, "pitch": 60, "duration": 4, "velocity": 90}, {"time": 2063, "pitch": 63, "duration": 4, "velocity": 112}, {"time": 2063, "pitch": 67, "duration": 4, "velocity": 93}, {"time": 2066, "pitch": 36, "duration": 15, "velocity": 95}, {"time": 2072, "pitch": 60, "duration": 7, "velocity": 89}, {"time": 2072, "pitch": 63, "duration": 7, "velocity": 122}, {"time": 2072, "pitch": 67, "duration": 8, "velocity": 86}, {"time": 2078, "pitch": 43, "duration": 11, "velocity": 81}, {"time": 2078, "pitch": 48, "duration": 10, "velocity": 95}, {"time": 2084, "pitch": 60, "duration": 8, "velocity": 92}, {"time": 2084, "pitch": 63, "duration": 8, "velocity": 127}, {"time": 2084, "pitch": 67, "duration": 8, "velocity": 97}, {"time": 2090, "pitch": 36, "duration": 15, "velocity": 93}, {"time": 2096, "pitch": 60, "duration": 3, "velocity": 89}, {"time": 2096, "pitch": 63, "duration": 3, "velocity": 122}, {"time": 2096, "pitch": 67, "duration": 3, "velocity": 85}, {"time": 2102, "pitch": 43, "duration": 10, "velocity": 76}, {"time": 2102, "pitch": 48, "duration": 11, "velocity": 92}, {"time": 2102, "pitch": 60, "duration": 6, "velocity": 95}, {"time": 2102, "pitch": 63, "duration": 7, "velocity": 127}, {"time": 2102, "pitch": 67, "duration": 7, "velocity": 89}, {"time": 2111, "pitch": 60, "duration": 4, "velocity": 90}, {"time": 2111, "pitch": 63, "duration": 4, "velocity": 117}, {"time": 2111, "pitch": 67, "duration": 4, "velocity": 88}, {"time": 2114, "pitch": 36, "duration": 17, "velocity": 79}, {"time": 2120, "pitch": 43, "duration": 9, "velocity": 76}, {"time": 2120, "pitch": 48, "duration": 4, "velocity": 97}, {"time": 2120, "pitch": 60, "duration": 3, "velocity": 97}, {"time": 2120, "pitch": 63, "duration": 3, "velocity": 122}, {"time": 2120, "pitch": 67, "duration": 3, "velocity": 92}, {"time": 2126, "pitch": 48, "duration": 7, "velocity": 63}, {"time": 2126, "pitch": 60, "duration": 3, "velocity": 97}, {"time": 2126, "pitch": 63, "duration": 3, "velocity": 122}, {"time": 2126, "pitch": 67, "duration": 3, "velocity": 100}, {"time": 2132, "pitch": 60, "duration": 4, "velocity": 97}, {"time": 2132, "pitch": 63, "duration": 4, "velocity": 117}, {"time": 2132, "pitch": 67, "duration": 2, "velocity": 86}, {"time": 2138, "pitch": 44, "duration": 21, "velocity": 89}, {"time": 2144, "pitch": 51, "duration": 4, "velocity": 49}, {"time": 2144, "pitch": 60, "duration": 3, "velocity": 72}, {"time": 2144, "pitch": 63, "duration": 2, "velocity": 99}, {"time": 2144, "pitch": 68, "duration": 2, "velocity": 63}, {"time": 2150, "pitch": 51, "duration": 12, "velocity": 36}, {"time": 2150, "pitch": 56, "duration": 12, "velocity": 117}, {"time": 2150, "pitch": 60, "duration": 7, "velocity": 107}, {"time": 2150, "pitch": 63, "duration": 7, "velocity": 127}, {"time": 2150, "pitch": 68, "duration": 6, "velocity": 117}, {"time": 2159, "pitch": 60, "duration": 4, "velocity": 86}, {"time": 2159, "pitch": 63, "duration": 4, "velocity": 117}, {"time": 2159, "pitch": 68, "duration": 4, "velocity": 107}, {"time": 2162, "pitch": 44, "duration": 21, "velocity": 97}, {"time": 2168, "pitch": 60, "duration": 7, "velocity": 100}, {"time": 2168, "pitch": 63, "duration": 7, "velocity": 127}, {"time": 2168, "pitch": 68, "duration": 7, "velocity": 127}, {"time": 2174, "pitch": 51, "duration": 10, "velocity": 71}, {"time": 2174, "pitch": 56, "duration": 12, "velocity": 99}, {"time": 2180, "pitch": 60, "duration": 8, "velocity": 93}, {"time": 2180, "pitch": 63, "duration": 8, "velocity": 127}, {"time": 2180, "pitch": 68, "duration": 8, "velocity": 112}, {"time": 2186, "pitch": 44, "duration": 18, "velocity": 82}, {"time": 2192, "pitch": 60, "duration": 2, "velocity": 92}, {"time": 2192, "pitch": 63, "duration": 3, "velocity": 122}, {"time": 2192, "pitch": 68, "duration": 3, "velocity": 99}, {"time": 2198, "pitch": 56, "duration": 11, "velocity": 112}, {"time": 2198, "pitch": 60, "duration": 6, "velocity": 89}, {"time": 2198, "pitch": 63, "duration": 6, "velocity": 122}, {"time": 2198, "pitch": 68, "duration": 6, "velocity": 100}, {"time": 2201, "pitch": 51, "duration": 7, "velocity": 20}, {"time": 2207, "pitch": 44, "duration": 16, "velocity": 93}, {"time": 2207, "pitch": 60, "duration": 4, "velocity": 86}, {"time": 2207, "pitch": 63, "duration": 5, "velocity": 122}, {"time": 2207, "pitch": 68, "duration": 5, "velocity": 107}, {"time": 2216, "pitch": 60, "duration": 8, "velocity": 86}, {"time": 2216, "pitch": 63, "duration": 8, "velocity": 127}, {"time": 2216, "pitch": 68, "duration": 8, "velocity": 122}, {"time": 2222, "pitch": 51, "duration": 2, "velocity": 66}, {"time": 2222, "pitch": 56, "duration": 2, "velocity": 100}, {"time": 2228, "pitch": 60, "duration": 7, "velocity": 95}, {"time": 2228, "pitch": 63, "duration": 4, "velocity": 117}, {"time": 2228, "pitch": 68, "duration": 4, "velocity": 102}, {"time": 2234, "pitch": 34, "duration": 21, "velocity": 107}, {"time": 2240, "pitch": 58, "duration": 3, "velocity": 88}, {"time": 2240, "pitch": 62, "duration": 4, "velocity": 89}, {"time": 2246, "pitch": 46, "duration": 12, "velocity": 102}, {"time": 2246, "pitch": 58, "duration": 7, "velocity": 127}, {"time": 2246, "pitch": 62, "duration": 7, "velocity": 100}, {"time": 2246, "pitch": 65, "duration": 6, "velocity": 93}, {"time": 2255, "pitch": 58, "duration": 6, "velocity": 99}, {"time": 2255, "pitch": 62, "duration": 5, "velocity": 89}, {"time": 2255, "pitch": 65, "duration": 5, "velocity": 85}, {"time": 2258, "pitch": 34, "duration": 23, "velocity": 96}, {"time": 2264, "pitch": 58, "duration": 7, "velocity": 127}, {"time": 2264, "pitch": 62, "duration": 7, "velocity": 100}, {"time": 2264, "pitch": 65, "duration": 7, "velocity": 90}, {"time": 2270, "pitch": 46, "duration": 10, "velocity": 95}, {"time": 2276, "pitch": 58, "duration": 8, "velocity": 127}, {"time": 2276, "pitch": 62, "duration": 8, "velocity": 100}, {"time": 2276, "pitch": 65, "duration": 8, "velocity": 88}, {"time": 2282, "pitch": 34, "duration": 4, "velocity": 86}, {"time": 2282, "pitch": 46, "duration": 4, "velocity": 117}, {"time": 2288, "pitch": 58, "duration": 3, "velocity": 100}, {"time": 2288, "pitch": 62, "duration": 3, "velocity": 95}, {"time": 2288, "pitch": 65, "duration": 3, "velocity": 82}, {"time": 2294, "pitch": 34, "duration": 11, "velocity": 86}, {"time": 2294, "pitch": 46, "duration": 10, "velocity": 107}, {"time": 2294, "pitch": 58, "duration": 7, "velocity": 127}, {"time": 2294, "pitch": 62, "duration": 7, "velocity": 100}, {"time": 2294, "pitch": 65, "duration": 6, "velocity": 90}, {"time": 2303, "pitch": 58, "duration": 3, "velocity": 112}, {"time": 2303, "pitch": 62, "duration": 4, "velocity": 93}, {"time": 2303, "pitch": 65, "duration": 3, "velocity": 81}, {"time": 2306, "pitch": 34, "duration": 9, "velocity": 97}, {"time": 2306, "pitch": 46, "duration": 7, "velocity": 100}, {"time": 2312, "pitch": 58, "duration": 3, "velocity": 127}, {"time": 2312, "pitch": 62, "duration": 3, "velocity": 100}, {"time": 2312, "pitch": 65, "duration": 2, "velocity": 89}, {"time": 2318, "pitch": 34, "duration": 2, "velocity": 58}, {"time": 2318, "pitch": 46, "duration": 4, "velocity": 122}, {"time": 2318, "pitch": 58, "duration": 3, "velocity": 127}, {"time": 2318, "pitch": 62, "duration": 3, "velocity": 100}, {"time": 2318, "pitch": 65, "duration": 3, "velocity": 88}, {"time": 2324, "pitch": 58, "duration": 3, "velocity": 122}, {"time": 2324, "pitch": 62, "duration": 4, "velocity": 97}, {"time": 2330, "pitch": 39, "duration": 22, "velocity": 102}, {"time": 2336, "pitch": 63, "duration": 3, "velocity": 90}, {"time": 2336, "pitch": 67, "duration": 2, "velocity": 76}, {"time": 2336, "pitch": 70, "duration": 2, "velocity": 79}, {"time": 2342, "pitch": 51, "duration": 13, "velocity": 117}, {"time": 2342, "pitch": 63, "duration": 6, "velocity": 112}, {"time": 2342, "pitch": 67, "duration": 6, "velocity": 112}, {"time": 2342, "pitch": 70, "duration": 6, "velocity": 107}, {"time": 2351, "pitch": 63, "duration": 4, "velocity": 100}, {"time": 2351, "pitch": 67, "duration": 2, "velocity": 95}, {"time": 2351, "pitch": 70, "duration": 4, "velocity": 100}, {"time": 2354, "pitch": 39, "duration": 18, "velocity": 83}, {"time": 2360, "pitch": 63, "duration": 9, "velocity": 100}, {"time": 2360, "pitch": 67, "duration": 2, "velocity": 107}, {"time": 2360, "pitch": 70, "duration": 9, "velocity": 102}, {"time": 2366, "pitch": 51, "duration": 8, "velocity": 107}, {"time": 2372, "pitch": 63, "duration": 6, "velocity": 112}, {"time": 2372, "pitch": 67, "duration": 4, "velocity": 97}, {"time": 2372, "pitch": 70, "duration": 6, "velocity": 100}, {"time": 2378, "pitch": 43, "duration": 16, "velocity": 88}, {"time": 2384, "pitch": 62, "duration": 3, "velocity": 79}, {"time": 2384, "pitch": 67, "duration": 4, "velocity": 92}, {"time": 2384, "pitch": 70, "duration": 4, "velocity": 95}, {"time": 2390, "pitch": 50, "duration": 11, "velocity": 69}, {"time": 2390, "pitch": 55, "duration": 11, "velocity": 88}, {"time": 2390, "pitch": 62, "duration": 6, "velocity": 99}, {"time": 2390, "pitch": 67, "duration": 7, "velocity": 97}, {"time": 2390, "pitch": 70, "duration": 7, "velocity": 117}, {"time": 2399, "pitch": 62, "duration": 4, "velocity": 92}, {"time": 2399, "pitch": 67, "duration": 5, "velocity": 100}, {"time": 2399, "pitch": 70, "duration": 5, "velocity": 117}, {"time": 2402, "pitch": 43, "duration": 17, "velocity": 81}, {"time": 2408, "pitch": 62, "duration": 7, "velocity": 89}, {"time": 2408, "pitch": 67, "duration": 8, "velocity": 112}, {"time": 2408, "pitch": 70, "duration": 8, "velocity": 112}, {"time": 2414, "pitch": 50, "duration": 6, "velocity": 56}, {"time": 2414, "pitch": 55, "duration": 6, "velocity": 96}, {"time": 2420, "pitch": 62, "duration": 5, "velocity": 100}, {"time": 2420, "pitch": 67, "duration": 3, "velocity": 100}, {"time": 2420, "pitch": 70, "duration": 4, "velocity": 100}, {"time": 2426, "pitch": 44, "duration": 14, "velocity": 97}, {"time": 2432, "pitch": 60, "duration": 3, "velocity": 88}, {"time": 2432, "pitch": 63, "duration": 3, "velocity": 127}, {"time": 2432, "pitch": 68, "duration": 3, "velocity": 99}, {"time": 2438, "pitch": 51, "duration": 11, "velocity": 66}, {"time": 2438, "pitch": 56, "duration": 11, "velocity": 99}, {"time": 2438, "pitch": 60, "duration": 6, "velocity": 89}, {"time": 2438, "pitch": 63, "duration": 6, "velocity": 127}, {"time": 2438, "pitch": 68, "duration": 6, "velocity": 112}, {"time": 2447, "pitch": 60, "duration": 5, "velocity": 95}, {"time": 2447, "pitch": 63, "duration": 5, "velocity": 122}, {"time": 2447, "pitch": 68, "duration": 6, "velocity": 117}, {"time": 2450, "pitch": 44, "duration": 22, "velocity": 99}, {"time": 2456, "pitch": 60, "duration": 8, "velocity": 95}, {"time": 2456, "pitch": 63, "duration": 8, "velocity": 127}, {"time": 2456, "pitch": 68, "duration": 8, "velocity": 122}, {"time": 2462, "pitch": 51, "duration": 2, "velocity": 45}, {"time": 2462, "pitch": 56, "duration": 12, "velocity": 100}, {"time": 2468, "pitch": 60, "duration": 7, "velocity": 100}, {"time": 2468, "pitch": 63, "duration": 4, "velocity": 127}, {"time": 2468, "pitch": 68, "duration": 5, "velocity": 107}, {"time": 2474, "pitch": 46, "duration": 19, "velocity": 99}, {"time": 2480, "pitch": 62, "duration": 3, "velocity": 96}, {"time": 2480, "pitch": 65, "duration": 3, "velocity": 96}, {"time": 2480, "pitch": 70, "duration": 3, "velocity": 112}, {"time": 2486, "pitch": 53, "duration": 10, "velocity": 52}, {"time": 2486, "pitch": 58, "duration": 12, "velocity": 99}, {"time": 2486, "pitch": 62, "duration": 6, "velocity": 95}, {"time": 2486, "pitch": 65, "duration": 6, "velocity": 99}, {"time": 2486, "pitch": 70, "duration": 6, "velocity": 112}, {"time": 2495, "pitch": 62, "duration": 4, "velocity": 99}, {"time": 2495, "pitch": 65, "duration": 4, "velocity": 100}, {"time": 2495, "pitch": 70, "duration": 5, "velocity": 117}, {"time": 2498, "pitch": 46, "duration": 22, "velocity": 100}, {"time": 2504, "pitch": 62, "duration": 3, "velocity": 112}, {"time": 2504, "pitch": 65, "duration": 2, "velocity": 102}, {"time": 2504, "pitch": 70, "duration": 3, "velocity": 117}, {"time": 2510, "pitch": 53, "duration": 8, "velocity": 69}, {"time": 2510, "pitch": 58, "duration": 10, "velocity": 112}, {"time": 2510, "pitch": 62, "duration": 3, "velocity": 97}, {"time": 2510, "pitch": 65, "duration": 3, "velocity": 97}, {"time": 2510, "pitch": 70, "duration": 3, "velocity": 107}, {"time": 2516, "pitch": 62, "duration": 4, "velocity": 95}, {"time": 2516, "pitch": 65, "duration": 4, "velocity": 97}, {"time": 2516, "pitch": 70, "duration": 4, "velocity": 112}, {"time": 2522, "pitch": 39, "duration": 22, "velocity": 99}, {"time": 2534, "pitch": 51, "duration": 11, "velocity": 99}, {"time": 2534, "pitch": 63, "duration": 7, "velocity": 99}, {"time": 2534, "pitch": 67, "duration": 6, "velocity": 89}, {"time": 2534, "pitch": 70, "duration": 6, "velocity": 82}, {"time": 2543, "pitch": 63, "duration": 3, "velocity": 86}, {"time": 2543, "pitch": 67, "duration": 2, "velocity": 83}, {"time": 2543, "pitch": 70, "duration": 3, "velocity": 89}, {"time": 2546, "pitch": 39, "duration": 21, "velocity": 90}, {"time": 2552, "pitch": 63, "duration": 8, "velocity": 93}, {"time": 2552, "pitch": 67, "duration": 7, "velocity": 96}, {"time": 2552, "pitch": 70, "duration": 8, "velocity": 90}, {"time": 2558, "pitch": 51, "duration": 10, "velocity": 102}, {"time": 2564, "pitch": 63, "duration": 7, "velocity": 95}, {"time": 2564, "pitch": 67, "duration": 2, "velocity": 90}, {"time": 2564, "pitch": 70, "duration": 8, "velocity": 88}, {"time": 2570, "pitch": 39, "duration": 20, "velocity": 89}, {"time": 2576, "pitch": 63, "duration": 3, "velocity": 79}, {"time": 2576, "pitch": 70, "duration": 1, "velocity": 59}, {"time": 2582, "pitch": 46, "duration": 11, "velocity": 35}, {"time": 2582, "pitch": 51, "duration": 11, "velocity": 99}, {"time": 2591, "pitch": 63, "duration": 4, "velocity": 89}, {"time": 2591, "pitch": 67, "duration": 4, "velocity": 89}, {"time": 2591, "pitch": 70, "duration": 4, "velocity": 86}, {"time": 2594, "pitch": 39, "duration": 19, "velocity": 97}, {"time": 2600, "pitch": 63, "duration": 9, "velocity": 92}, {"time": 2600, "pitch": 67, "duration": 3, "velocity": 95}, {"time": 2600, "pitch": 70, "duration": 8, "velocity": 90}, {"time": 2603, "pitch": 67, "duration": 3, "velocity": 30}, {"time": 2606, "pitch": 46, "duration": 2, "velocity": 53}, {"time": 2606, "pitch": 51, "duration": 4, "velocity": 96}, {"time": 2612, "pitch": 63, "duration": 6, "velocity": 99}, {"time": 2612, "pitch": 67, "duration": 2, "velocity": 60}, {"time": 2612, "pitch": 70, "duration": 3, "velocity": 86}, {"time": 2618, "pitch": 36, "duration": 15, "velocity": 69}, {"time": 2624, "pitch": 60, "duration": 4, "velocity": 89}, {"time": 2624, "pitch": 63, "duration": 4, "velocity": 93}, {"time": 2624, "pitch": 67, "duration": 4, "velocity": 69}, {"time": 2630, "pitch": 43, "duration": 11, "velocity": 50}, {"time": 2630, "pitch": 48, "duration": 11, "velocity": 85}, {"time": 2630, "pitch": 60, "duration": 7, "velocity": 93}, {"time": 2630, "pitch": 63, "duration": 7, "velocity": 102}, {"time": 2630, "pitch": 67, "duration": 7, "velocity": 90}, {"time": 2639, "pitch": 60, "duration": 3, "velocity": 79}, {"time": 2639, "pitch": 63, "duration": 3, "velocity": 89}, {"time": 2639, "pitch": 67, "duration": 3, "velocity": 82}, {"time": 2642, "pitch": 36, "duration": 14, "velocity": 71}, {"time": 2648, "pitch": 60, "duration": 7, "velocity": 83}, {"time": 2648, "pitch": 63, "duration": 8, "velocity": 99}, {"time": 2648, "pitch": 67, "duration": 8, "velocity": 82}, {"time": 2654, "pitch": 43, "duration": 11, "velocity": 61}, {"time": 2654, "pitch": 48, "duration": 11, "velocity": 85}, {"time": 2660, "pitch": 60, "duration": 8, "velocity": 90}, {"time": 2660, "pitch": 63, "duration": 8, "velocity": 107}, {"time": 2660, "pitch": 67, "duration": 8, "velocity": 82}, {"time": 2666, "pitch": 36, "duration": 14, "velocity": 81}, {"time": 2672, "pitch": 60, "duration": 2, "velocity": 70}, {"time": 2672, "pitch": 63, "duration": 2, "velocity": 85}, {"time": 2672, "pitch": 67, "duration": 2, "velocity": 63}, {"time": 2678, "pitch": 43, "duration": 11, "velocity": 56}, {"time": 2678, "pitch": 48, "duration": 11, "velocity": 90}, {"time": 2678, "pitch": 60, "duration": 7, "velocity": 88}, {"time": 2678, "pitch": 63, "duration": 7, "velocity": 117}, {"time": 2678, "pitch": 67, "duration": 7, "velocity": 86}, {"time": 2687, "pitch": 36, "duration": 15, "velocity": 69}, {"time": 2687, "pitch": 60, "duration": 2, "velocity": 71}, {"time": 2687, "pitch": 63, "duration": 3, "velocity": 93}, {"time": 2687, "pitch": 67, "duration": 3, "velocity": 79}, {"time": 2696, "pitch": 60, "duration": 8, "velocity": 86}, {"time": 2696, "pitch": 63, "duration": 9, "velocity": 107}, {"time": 2696, "pitch": 67, "duration": 9, "velocity": 81}, {"time": 2702, "pitch": 48, "duration": 8, "velocity": 100}, {"time": 2708, "pitch": 60, "duration": 8, "velocity": 90}, {"time": 2708, "pitch": 63, "duration": 7, "velocity": 117}, {"time": 2708, "pitch": 67, "duration": 5, "velocity": 82}, {"time": 2714, "pitch": 44, "duration": 17, "velocity": 72}, {"time": 2720, "pitch": 60, "duration": 4, "velocity": 86}, {"time": 2720, "pitch": 63, "duration": 3, "velocity": 100}, {"time": 2720, "pitch": 68, "duration": 3, "velocity": 95}, {"time": 2726, "pitch": 56, "duration": 11, "velocity": 112}, {"time": 2726, "pitch": 60, "duration": 7, "velocity": 83}, {"time": 2726, "pitch": 63, "duration": 7, "velocity": 107}, {"time": 2726, "pitch": 68, "duration": 7, "velocity": 97}, {"time": 2729, "pitch": 51, "duration": 5, "velocity": 24}, {"time": 2735, "pitch": 44, "duration": 20, "velocity": 73}, {"time": 2735, "pitch": 60, "duration": 3, "velocity": 74}, {"time": 2735, "pitch": 63, "duration": 3, "velocity": 100}, {"time": 2735, "pitch": 68, "duration": 3, "velocity": 93}, {"time": 2744, "pitch": 60, "duration": 7, "velocity": 85}, {"time": 2744, "pitch": 63, "duration": 7, "velocity": 127}, {"time": 2744, "pitch": 68, "duration": 7, "velocity": 102}, {"time": 2750, "pitch": 51, "duration": 9, "velocity": 39}, {"time": 2750, "pitch": 56, "duration": 12, "velocity": 97}, {"time": 2756, "pitch": 60, "duration": 8, "velocity": 88}, {"time": 2756, "pitch": 63, "duration": 8, "velocity": 112}, {"time": 2756, "pitch": 68, "duration": 8, "velocity": 92}, {"time": 2762, "pitch": 44, "duration": 16, "velocity": 86}, {"time": 2768, "pitch": 60, "duration": 3, "velocity": 76}, {"time": 2768, "pitch": 63, "duration": 3, "velocity": 96}, {"time": 2768, "pitch": 68, "duration": 3, "velocity": 76}, {"time": 2774, "pitch": 51, "duration": 10, "velocity": 50}, {"time": 2774, "pitch": 56, "duration": 11, "velocity": 99}, {"time": 2774, "pitch": 60, "duration": 6, "velocity": 90}, {"time": 2774, "pitch": 63, "duration": 6, "velocity": 122}, {"time": 2774, "pitch": 68, "duration": 6, "velocity": 102}, {"time": 2783, "pitch": 44, "duration": 21, "velocity": 86}, {"time": 2783, "pitch": 60, "duration": 4, "velocity": 78}, {"time": 2783, "pitch": 63, "duration": 4, "velocity": 100}, {"time": 2783, "pitch": 68, "duration": 4, "velocity": 96}, {"time": 2792, "pitch": 60, "duration": 8, "velocity": 82}, {"time": 2792, "pitch": 63, "duration": 8, "velocity": 107}, {"time": 2792, "pitch": 68, "duration": 8, "velocity": 102}, {"time": 2798, "pitch": 56, "duration": 10, "velocity": 95}, {"time": 2804, "pitch": 60, "duration": 4, "velocity": 90}, {"time": 2804, "pitch": 63, "duration": 3, "velocity": 117}, {"time": 2804, "pitch": 68, "duration": 4, "velocity": 90}, {"time": 2807, "pitch": 46, "duration": 13, "velocity": 82}, {"time": 2816, "pitch": 62, "duration": 3, "velocity": 72}, {"time": 2816, "pitch": 65, "duration": 3, "velocity": 77}, {"time": 2816, "pitch": 70, "duration": 3, "velocity": 86}, {"time": 2822, "pitch": 58, "duration": 12, "velocity": 95}, {"time": 2822, "pitch": 62, "duration": 6, "velocity": 85}, {"time": 2822, "pitch": 65, "duration": 6, "velocity": 96}, {"time": 2822, "pitch": 70, "duration": 6, "velocity": 102}, {"time": 2828, "pitch": 53, "duration": 3, "velocity": 1}, {"time": 2831, "pitch": 46, "duration": 16, "velocity": 73}, {"time": 2831, "pitch": 62, "duration": 3, "velocity": 81}, {"time": 2831, "pitch": 65, "duration": 3, "velocity": 90}, {"time": 2831, "pitch": 70, "duration": 3, "velocity": 96}, {"time": 2840, "pitch": 62, "duration": 7, "velocity": 92}, {"time": 2840, "pitch": 65, "duration": 7, "velocity": 97}, {"time": 2840, "pitch": 70, "duration": 8, "velocity": 102}, {"time": 2846, "pitch": 53, "duration": 3, "velocity": 66}, {"time": 2846, "pitch": 58, "duration": 13, "velocity": 112}, {"time": 2852, "pitch": 62, "duration": 7, "velocity": 89}, {"time": 2852, "pitch": 65, "duration": 7, "velocity": 96}, {"time": 2852, "pitch": 70, "duration": 7, "velocity": 100}, {"time": 2855, "pitch": 46, "duration": 16, "velocity": 92}, {"time": 2864, "pitch": 62, "duration": 3, "velocity": 81}, {"time": 2864, "pitch": 65, "duration": 2, "velocity": 88}, {"time": 2864, "pitch": 70, "duration": 3, "velocity": 96}, {"time": 2870, "pitch": 53, "duration": 9, "velocity": 55}, {"time": 2870, "pitch": 58, "duration": 11, "velocity": 92}, {"time": 2870, "pitch": 62, "duration": 6, "velocity": 83}, {"time": 2870, "pitch": 65, "duration": 6, "velocity": 90}, {"time": 2870, "pitch": 70, "duration": 6, "velocity": 99}, {"time": 2879, "pitch": 46, "duration": 25, "velocity": 95}, {"time": 2879, "pitch": 62, "duration": 3, "velocity": 83}, {"time": 2879, "pitch": 65, "duration": 3, "velocity": 93}, {"time": 2879, "pitch": 70, "duration": 3, "velocity": 97}, {"time": 2888, "pitch": 62, "duration": 3, "velocity": 93}, {"time": 2888, "pitch": 65, "duration": 3, "velocity": 92}, {"time": 2888, "pitch": 70, "duration": 3, "velocity": 100}, {"time": 2894, "pitch": 53, "duration": 7, "velocity": 63}, {"time": 2894, "pitch": 58, "duration": 9, "velocity": 96}, {"time": 2894, "pitch": 62, "duration": 3, "velocity": 79}, {"time": 2894, "pitch": 65, "duration": 3, "velocity": 88}, {"time": 2894, "pitch": 70, "duration": 3, "velocity": 96}, {"time": 2900, "pitch": 62, "duration": 4, "velocity": 90}, {"time": 2900, "pitch": 65, "duration": 4, "velocity": 95}, {"time": 2900, "pitch": 70, "duration": 5, "velocity": 99}, {"time": 2906, "pitch": 39, "duration": 12, "velocity": 97}, {"time": 2912, "pitch": 63, "duration": 2, "velocity": 96}, {"time": 2912, "pitch": 67, "duration": 1, "velocity": 89}, {"time": 2912, "pitch": 70, "duration": 1, "velocity": 99}, {"time": 2918, "pitch": 46, "duration": 9, "velocity": 59}, {"time": 2918, "pitch": 51, "duration": 10, "velocity": 93}, {"time": 2918, "pitch": 63, "duration": 6, "velocity": 107}, {"time": 2918, "pitch": 67, "duration": 3, "velocity": 102}, {"time": 2918, "pitch": 70, "duration": 6, "velocity": 122}, {"time": 2927, "pitch": 63, "duration": 2, "velocity": 100}, {"time": 2927, "pitch": 67, "duration": 1, "velocity": 102}, {"time": 2927, "pitch": 70, "duration": 2, "velocity": 117}, {"time": 2930, "pitch": 39, "duration": 17, "velocity": 83}, {"time": 2936, "pitch": 63, "duration": 5, "velocity": 117}, {"time": 2936, "pitch": 67, "duration": 2, "velocity": 112}, {"time": 2936, "pitch": 70, "duration": 3, "velocity": 117}, {"time": 2939, "pitch": 46, "duration": 12, "velocity": 65}, {"time": 2939, "pitch": 51, "duration": 10, "velocity": 93}, {"time": 2945, "pitch": 63, "duration": 4, "velocity": 112}, {"time": 2945, "pitch": 67, "duration": 2, "velocity": 102}, {"time": 2945, "pitch": 70, "duration": 3, "velocity": 127}, {"time": 2954, "pitch": 39, "duration": 13, "velocity": 102}, {"time": 2954, "pitch": 63, "duration": 4, "velocity": 107}, {"time": 2954, "pitch": 67, "duration": 2, "velocity": 100}, {"time": 2954, "pitch": 70, "duration": 4, "velocity": 107}, {"time": 2960, "pitch": 63, "duration": 2, "velocity": 95}, {"time": 2960, "pitch": 67, "duration": 2, "velocity": 96}, {"time": 2960, "pitch": 70, "duration": 2, "velocity": 97}, {"time": 2966, "pitch": 46, "duration": 9, "velocity": 36}, {"time": 2966, "pitch": 51, "duration": 10, "velocity": 85}, {"time": 2966, "pitch": 63, "duration": 6, "velocity": 107}, {"time": 2966, "pitch": 67, "duration": 5, "velocity": 107}, {"time": 2966, "pitch": 70, "duration": 5, "velocity": 112}, {"time": 2975, "pitch": 39, "duration": 17, "velocity": 90}, {"time": 2975, "pitch": 63, "duration": 4, "velocity": 96}, {"time": 2975, "pitch": 67, "duration": 3, "velocity": 99}, {"time": 2975, "pitch": 70, "duration": 4, "velocity": 107}, {"time": 2981, "pitch": 63, "duration": 3, "velocity": 96}, {"time": 2981, "pitch": 67, "duration": 2, "velocity": 102}, {"time": 2981, "pitch": 70, "duration": 3, "velocity": 102}, {"time": 2984, "pitch": 46, "duration": 5, "velocity": 37}, {"time": 2984, "pitch": 51, "duration": 6, "velocity": 95}, {"time": 2990, "pitch": 63, "duration": 3, "velocity": 99}, {"time": 2990, "pitch": 67, "duration": 3, "velocity": 107}, {"time": 2990, "pitch": 70, "duration": 3, "velocity": 127}, {"time": 2996, "pitch": 63, "duration": 4, "velocity": 107}, {"time": 2996, "pitch": 67, "duration": 2, "velocity": 93}, {"time": 2996, "pitch": 70, "duration": 3, "velocity": 112}, {"time": 3002, "pitch": 36, "duration": 12, "velocity": 89}, {"time": 3008, "pitch": 60, "duration": 2, "velocity": 92}, {"time": 3008, "pitch": 63, "duration": 3, "velocity": 100}, {"time": 3008, "pitch": 67, "duration": 3, "velocity": 81}, {"time": 3014, "pitch": 43, "duration": 10, "velocity": 50}, {"time": 3014, "pitch": 48, "duration": 10, "velocity": 81}, {"time": 3014, "pitch": 60, "duration": 6, "velocity": 97}, {"time": 3014, "pitch": 63, "duration": 6, "velocity": 127}, {"time": 3014, "pitch": 67, "duration": 6, "velocity": 89}, {"time": 3023, "pitch": 36, "duration": 13, "velocity": 86}, {"time": 3023, "pitch": 60, "duration": 3, "velocity": 93}, {"time": 3023, "pitch": 63, "duration": 4, "velocity": 122}, {"time": 3023, "pitch": 67, "duration": 4, "velocity": 96}, {"time": 3032, "pitch": 60, "duration": 7, "velocity": 112}, {"time": 3032, "pitch": 63, "duration": 7, "velocity": 127}, {"time": 3032, "pitch": 67, "duration": 7, "velocity": 100}, {"time": 3038, "pitch": 43, "duration": 11, "velocity": 72}, {"time": 3038, "pitch": 48, "duration": 12, "velocity": 93}, {"time": 3044, "pitch": 60, "duration": 7, "velocity": 99}, {"time": 3044, "pitch": 63, "duration": 7, "velocity": 127}, {"time": 3044, "pitch": 67, "duration": 7, "velocity": 93}, {"time": 3050, "pitch": 36, "duration": 13, "velocity": 83}, {"time": 3056, "pitch": 60, "duration": 2, "velocity": 89}, {"time": 3056, "pitch": 63, "duration": 2, "velocity": 122}, {"time": 3056, "pitch": 67, "duration": 2, "velocity": 88}, {"time": 3062, "pitch": 43, "duration": 10, "velocity": 82}, {"time": 3062, "pitch": 48, "duration": 10, "velocity": 95}, {"time": 3062, "pitch": 60, "duration": 5, "velocity": 96}, {"time": 3062, "pitch": 63, "duration": 6, "velocity": 122}, {"time": 3062, "pitch": 67, "duration": 5, "velocity": 89}, {"time": 3071, "pitch": 36, "duration": 15, "velocity": 95}, {"time": 3071, "pitch": 60, "duration": 3, "velocity": 100}, {"time": 3071, "pitch": 63, "duration": 3, "velocity": 127}, {"time": 3071, "pitch": 67, "duration": 3, "velocity": 97}, {"time": 3080, "pitch": 60, "duration": 2, "velocity": 95}, {"time": 3080, "pitch": 63, "duration": 2, "velocity": 127}, {"time": 3080, "pitch": 67, "duration": 2, "velocity": 99}, {"time": 3086, "pitch": 48, "duration": 7, "velocity": 100}, {"time": 3086, "pitch": 60, "duration": 2, "velocity": 99}, {"time": 3086, "pitch": 63, "duration": 2, "velocity": 127}, {"time": 3086, "pitch": 67, "duration": 2, "velocity": 100}, {"time": 3092, "pitch": 60, "duration": 8, "velocity": 100}, {"time": 3092, "pitch": 63, "duration": 5, "velocity": 127}, {"time": 3092, "pitch": 67, "duration": 3, "velocity": 92}, {"time": 3098, "pitch": 44, "duration": 17, "velocity": 102}, {"time": 3104, "pitch": 60, "duration": 2, "velocity": 96}, {"time": 3104, "pitch": 63, "duration": 2, "velocity": 127}, {"time": 3104, "pitch": 68, "duration": 2, "velocity": 112}, {"time": 3110, "pitch": 56, "duration": 12, "velocity": 90}, {"time": 3110, "pitch": 60, "duration": 6, "velocity": 97}, {"time": 3110, "pitch": 63, "duration": 6, "velocity": 127}, {"time": 3110, "pitch": 68, "duration": 6, "velocity": 112}, {"time": 3113, "pitch": 51, "duration": 5, "velocity": 23}, {"time": 3119, "pitch": 60, "duration": 3, "velocity": 95}, {"time": 3119, "pitch": 63, "duration": 3, "velocity": 127}, {"time": 3119, "pitch": 68, "duration": 3, "velocity": 107}, {"time": 3122, "pitch": 44, "duration": 21, "velocity": 93}, {"time": 3128, "pitch": 60, "duration": 8, "velocity": 100}, {"time": 3128, "pitch": 63, "duration": 8, "velocity": 127}, {"time": 3128, "pitch": 68, "duration": 8, "velocity": 112}, {"time": 3134, "pitch": 51, "duration": 2, "velocity": 42}, {"time": 3134, "pitch": 56, "duration": 10, "velocity": 117}, {"time": 3140, "pitch": 51, "duration": 4, "velocity": 24}, {"time": 3140, "pitch": 60, "duration": 7, "velocity": 97}, {"time": 3140, "pitch": 63, "duration": 7, "velocity": 127}, {"time": 3140, "pitch": 68, "duration": 8, "velocity": 112}, {"time": 3146, "pitch": 44, "duration": 19, "velocity": 102}, {"time": 3152, "pitch": 60, "duration": 2, "velocity": 88}, {"time": 3152, "pitch": 63, "duration": 2, "velocity": 122}, {"time": 3152, "pitch": 68, "duration": 2, "velocity": 99}, {"time": 3158, "pitch": 51, "duration": 9, "velocity": 64}, {"time": 3158, "pitch": 56, "duration": 10, "velocity": 112}, {"time": 3158, "pitch": 60, "duration": 6, "velocity": 95}, {"time": 3158, "pitch": 63, "duration": 6, "velocity": 127}, {"time": 3158, "pitch": 68, "duration": 6, "velocity": 102}, {"time": 3167, "pitch": 44, "duration": 21, "velocity": 97}, {"time": 3167, "pitch": 60, "duration": 3, "velocity": 92}, {"time": 3167, "pitch": 63, "duration": 3, "velocity": 127}, {"time": 3167, "pitch": 68, "duration": 4, "velocity": 122}, {"time": 3176, "pitch": 60, "duration": 2, "velocity": 86}, {"time": 3176, "pitch": 63, "duration": 3, "velocity": 127}, {"time": 3176, "pitch": 68, "duration": 3, "velocity": 112}, {"time": 3182, "pitch": 51, "duration": 3, "velocity": 69}, {"time": 3182, "pitch": 56, "duration": 6, "velocity": 102}, {"time": 3182, "pitch": 60, "duration": 3, "velocity": 89}, {"time": 3182, "pitch": 63, "duration": 3, "velocity": 127}, {"time": 3182, "pitch": 68, "duration": 3, "velocity": 112}, {"time": 3188, "pitch": 60, "duration": 6, "velocity": 95}, {"time": 3188, "pitch": 63, "duration": 6, "velocity": 127}, {"time": 3188, "pitch": 68, "duration": 6, "velocity": 107}, {"time": 3194, "pitch": 41, "duration": 14, "velocity": 97}, {"time": 3200, "pitch": 60, "duration": 2, "velocity": 99}, {"time": 3200, "pitch": 65, "duration": 3, "velocity": 122}, {"time": 3200, "pitch": 68, "duration": 3, "velocity": 122}, {"time": 3206, "pitch": 48, "duration": 10, "velocity": 78}, {"time": 3206, "pitch": 53, "duration": 10, "velocity": 92}, {"time": 3206, "pitch": 60, "duration": 6, "velocity": 96}, {"time": 3206, "pitch": 65, "duration": 6, "velocity": 112}, {"time": 3206, "pitch": 68, "duration": 6, "velocity": 102}, {"time": 3215, "pitch": 41, "duration": 16, "velocity": 79}, {"time": 3215, "pitch": 60, "duration": 3, "velocity": 93}, {"time": 3215, "pitch": 65, "duration": 3, "velocity": 100}, {"time": 3215, "pitch": 68, "duration": 4, "velocity": 107}, {"time": 3224, "pitch": 60, "duration": 8, "velocity": 99}, {"time": 3224, "pitch": 65, "duration": 8, "velocity": 100}, {"time": 3224, "pitch": 68, "duration": 8, "velocity": 112}, {"time": 3230, "pitch": 53, "duration": 10, "velocity": 102}, {"time": 3236, "pitch": 60, "duration": 7, "velocity": 97}, {"time": 3236, "pitch": 65, "duration": 3, "velocity": 99}, {"time": 3236, "pitch": 68, "duration": 2, "velocity": 93}, {"time": 3242, "pitch": 46, "duration": 19, "velocity": 95}, {"time": 3248, "pitch": 62, "duration": 3, "velocity": 107}, {"time": 3248, "pitch": 65, "duration": 2, "velocity": 99}, {"time": 3248, "pitch": 70, "duration": 3, "velocity": 112}, {"time": 3254, "pitch": 53, "duration": 10, "velocity": 37}, {"time": 3254, "pitch": 58, "duration": 13, "velocity": 107}, {"time": 3254, "pitch": 62, "duration": 6, "velocity": 96}, {"time": 3254, "pitch": 65, "duration": 6, "velocity": 102}, {"time": 3254, "pitch": 70, "duration": 6, "velocity": 112}, {"time": 3263, "pitch": 46, "duration": 21, "velocity": 99}, {"time": 3263, "pitch": 62, "duration": 4, "velocity": 100}, {"time": 3263, "pitch": 65, "duration": 4, "velocity": 107}, {"time": 3263, "pitch": 70, "duration": 4, "velocity": 117}, {"time": 3272, "pitch": 53, "duration": 3, "velocity": 51}, {"time": 3272, "pitch": 58, "duration": 3, "velocity": 112}, {"time": 3272, "pitch": 62, "duration": 3, "velocity": 112}, {"time": 3272, "pitch": 65, "duration": 3, "velocity": 127}, {"time": 3272, "pitch": 70, "duration": 3, "velocity": 122}, {"time": 3278, "pitch": 53, "duration": 5, "velocity": 67}, {"time": 3278, "pitch": 58, "duration": 6, "velocity": 127}, {"time": 3278, "pitch": 62, "duration": 3, "velocity": 100}, {"time": 3278, "pitch": 65, "duration": 3, "velocity": 102}, {"time": 3278, "pitch": 70, "duration": 3, "velocity": 117}, {"time": 3284, "pitch": 62, "duration": 4, "velocity": 117}, {"time": 3284, "pitch": 65, "duration": 2, "velocity": 117}, {"time": 3284, "pitch": 70, "duration": 3, "velocity": 117}, {"time": 3290, "pitch": 39, "duration": 12, "velocity": 112}, {"time": 3296, "pitch": 63, "duration": 2, "velocity": 102}, {"time": 3296, "pitch": 67, "duration": 2, "velocity": 92}, {"time": 3296, "pitch": 70, "duration": 2, "velocity": 100}, {"time": 3302, "pitch": 46, "duration": 11, "velocity": 59}, {"time": 3302, "pitch": 51, "duration": 12, "velocity": 107}, {"time": 3302, "pitch": 63, "duration": 6, "velocity": 117}, {"time": 3302, "pitch": 67, "duration": 3, "velocity": 102}, {"time": 3302, "pitch": 70, "duration": 6, "velocity": 112}, {"time": 3305, "pitch": 67, "duration": 2, "velocity": 25}, {"time": 3311, "pitch": 63, "duration": 5, "velocity": 99}, {"time": 3311, "pitch": 67, "duration": 4, "velocity": 97}, {"time": 3311, "pitch": 70, "duration": 5, "velocity": 107}, {"time": 3314, "pitch": 39, "duration": 22, "velocity": 85}, {"time": 3320, "pitch": 63, "duration": 3, "velocity": 117}, {"time": 3320, "pitch": 67, "duration": 2, "velocity": 122}, {"time": 3320, "pitch": 70, "duration": 2, "velocity": 122}, {"time": 3326, "pitch": 46, "duration": 11, "velocity": 58}, {"time": 3326, "pitch": 51, "duration": 13, "velocity": 117}, {"time": 3332, "pitch": 63, "duration": 9, "velocity": 117}, {"time": 3332, "pitch": 67, "duration": 8, "velocity": 117}, {"time": 3332, "pitch": 70, "duration": 9, "velocity": 117}, {"time": 3338, "pitch": 39, "duration": 22, "velocity": 97}, {"time": 3344, "pitch": 63, "duration": 3, "velocity": 97}, {"time": 3344, "pitch": 67, "duration": 2, "velocity": 93}, {"time": 3344, "pitch": 70, "duration": 3, "velocity": 97}, {"time": 3350, "pitch": 51, "duration": 14, "velocity": 117}, {"time": 3350, "pitch": 63, "duration": 6, "velocity": 100}, {"time": 3350, "pitch": 66, "duration": 1, "velocity": 76}, {"time": 3350, "pitch": 67, "duration": 3, "velocity": 107}, {"time": 3350, "pitch": 70, "duration": 6, "velocity": 112}, {"time": 3356, "pitch": 46, "duration": 7, "velocity": 26}, {"time": 3359, "pitch": 63, "duration": 4, "velocity": 107}, {"time": 3359, "pitch": 67, "duration": 3, "velocity": 99}, {"time": 3359, "pitch": 70, "duration": 3, "velocity": 112}, {"time": 3362, "pitch": 39, "duration": 14, "velocity": 100}, {"time": 3368, "pitch": 63, "duration": 2, "velocity": 117}, {"time": 3368, "pitch": 67, "duration": 1, "velocity": 107}, {"time": 3368, "pitch": 70, "duration": 2, "velocity": 112}, {"time": 3374, "pitch": 46, "duration": 2, "velocity": 62}, {"time": 3374, "pitch": 51, "duration": 2, "velocity": 127}, {"time": 3374, "pitch": 63, "duration": 4, "velocity": 99}, {"time": 3374, "pitch": 67, "duration": 3, "velocity": 97}, {"time": 3374, "pitch": 70, "duration": 5, "velocity": 127}, {"time": 3380, "pitch": 38, "duration": 7, "velocity": 97}, {"time": 3386, "pitch": 36, "duration": 15, "velocity": 92}, {"time": 3386, "pitch": 60, "duration": 3, "velocity": 107}, {"time": 3386, "pitch": 63, "duration": 3, "velocity": 112}, {"time": 3386, "pitch": 67, "duration": 3, "velocity": 93}, {"time": 3392, "pitch": 60, "duration": 3, "velocity": 88}, {"time": 3392, "pitch": 63, "duration": 3, "velocity": 112}, {"time": 3392, "pitch": 67, "duration": 2, "velocity": 88}, {"time": 3398, "pitch": 43, "duration": 11, "velocity": 77}, {"time": 3398, "pitch": 48, "duration": 11, "velocity": 95}, {"time": 3398, "pitch": 60, "duration": 6, "velocity": 102}, {"time": 3398, "pitch": 63, "duration": 6, "velocity": 127}, {"time": 3398, "pitch": 67, "duration": 6, "velocity": 93}, {"time": 3407, "pitch": 60, "duration": 3, "velocity": 100}, {"time": 3407, "pitch": 63, "duration": 3, "velocity": 122}, {"time": 3407, "pitch": 67, "duration": 3, "velocity": 100}, {"time": 3410, "pitch": 36, "duration": 15, "velocity": 77}, {"time": 3416, "pitch": 60, "duration": 7, "velocity": 95}, {"time": 3416, "pitch": 63, "duration": 7, "velocity": 107}, {"time": 3416, "pitch": 67, "duration": 7, "velocity": 81}, {"time": 3422, "pitch": 43, "duration": 10, "velocity": 78}, {"time": 3422, "pitch": 48, "duration": 10, "velocity": 99}, {"time": 3428, "pitch": 60, "duration": 8, "velocity": 95}, {"time": 3428, "pitch": 63, "duration": 7, "velocity": 112}, {"time": 3428, "pitch": 67, "duration": 8, "velocity": 86}, {"time": 3434, "pitch": 36, "duration": 14, "velocity": 76}, {"time": 3440, "pitch": 60, "duration": 2, "velocity": 83}, {"time": 3440, "pitch": 63, "duration": 2, "velocity": 107}, {"time": 3440, "pitch": 67, "duration": 2, "velocity": 81}, {"time": 3446, "pitch": 43, "duration": 10, "velocity": 56}, {"time": 3446, "pitch": 48, "duration": 13, "velocity": 86}, {"time": 3446, "pitch": 60, "duration": 7, "velocity": 95}, {"time": 3446, "pitch": 63, "duration": 6, "velocity": 117}, {"time": 3446, "pitch": 67, "duration": 6, "velocity": 81}, {"time": 3455, "pitch": 60, "duration": 4, "velocity": 83}, {"time": 3455, "pitch": 63, "duration": 4, "velocity": 112}, {"time": 3455, "pitch": 67, "duration": 4, "velocity": 86}, {"time": 3458, "pitch": 36, "duration": 14, "velocity": 97}, {"time": 3464, "pitch": 60, "duration": 3, "velocity": 90}, {"time": 3464, "pitch": 63, "duration": 3, "velocity": 112}, {"time": 3464, "pitch": 67, "duration": 3, "velocity": 88}, {"time": 3470, "pitch": 48, "duration": 6, "velocity": 95}, {"time": 3470, "pitch": 60, "duration": 3, "velocity": 90}, {"time": 3470, "pitch": 63, "duration": 3, "velocity": 112}, {"time": 3470, "pitch": 67, "duration": 3, "velocity": 93}, {"time": 3476, "pitch": 60, "duration": 4, "velocity": 95}, {"time": 3476, "pitch": 63, "duration": 3, "velocity": 117}, {"time": 3476, "pitch": 67, "duration": 1, "velocity": 58}, {"time": 3482, "pitch": 44, "duration": 14, "velocity": 90}, {"time": 3482, "pitch": 60, "duration": 3, "velocity": 82}, {"time": 3482, "pitch": 63, "duration": 3, "velocity": 122}, {"time": 3482, "pitch": 68, "duration": 2, "velocity": 112}, {"time": 3488, "pitch": 60, "duration": 3, "velocity": 73}, {"time": 3488, "pitch": 63, "duration": 3, "velocity": 102}, {"time": 3488, "pitch": 68, "duration": 3, "velocity": 96}, {"time": 3494, "pitch": 51, "duration": 10, "velocity": 47}, {"time": 3494, "pitch": 56, "duration": 12, "velocity": 99}, {"time": 3494, "pitch": 60, "duration": 7, "velocity": 86}, {"time": 3494, "pitch": 63, "duration": 6, "velocity": 117}, {"time": 3494, "pitch": 68, "duration": 6, "velocity": 102}, {"time": 3503, "pitch": 60, "duration": 5, "velocity": 79}, {"time": 3503, "pitch": 63, "duration": 5, "velocity": 122}, {"time": 3503, "pitch": 68, "duration": 5, "velocity": 102}, {"time": 3506, "pitch": 44, "duration": 16, "velocity": 81}, {"time": 3512, "pitch": 60, "duration": 3, "velocity": 92}, {"time": 3512, "pitch": 63, "duration": 3, "velocity": 127}, {"time": 3512, "pitch": 68, "duration": 3, "velocity": 107}, {"time": 3518, "pitch": 51, "duration": 10, "velocity": 59}, {"time": 3518, "pitch": 56, "duration": 12, "velocity": 89}, {"time": 3518, "pitch": 60, "duration": 3, "velocity": 83}, {"time": 3518, "pitch": 63, "duration": 3, "velocity": 122}, {"time": 3518, "pitch": 68, "duration": 4, "velocity": 100}, {"time": 3524, "pitch": 60, "duration": 7, "velocity": 85}, {"time": 3524, "pitch": 63, "duration": 7, "velocity": 117}, {"time": 3524, "pitch": 68, "duration": 7, "velocity": 107}, {"time": 3530, "pitch": 44, "duration": 18, "velocity": 99}, {"time": 3536, "pitch": 60, "duration": 2, "velocity": 85}, {"time": 3536, "pitch": 63, "duration": 2, "velocity": 107}, {"time": 3536, "pitch": 68, "duration": 2, "velocity": 95}, {"time": 3542, "pitch": 51, "duration": 10, "velocity": 63}, {"time": 3542, "pitch": 56, "duration": 11, "velocity": 99}, {"time": 3542, "pitch": 60, "duration": 6, "velocity": 92}, {"time": 3542, "pitch": 63, "duration": 6, "velocity": 127}, {"time": 3542, "pitch": 68, "duration": 5, "velocity": 102}, {"time": 3551, "pitch": 60, "duration": 5, "velocity": 88}, {"time": 3551, "pitch": 63, "duration": 5, "velocity": 127}, {"time": 3551, "pitch": 68, "duration": 5, "velocity": 112}, {"time": 3554, "pitch": 44, "duration": 19, "velocity": 96}, {"time": 3560, "pitch": 60, "duration": 3, "velocity": 93}, {"time": 3560, "pitch": 63, "duration": 3, "velocity": 127}, {"time": 3560, "pitch": 68, "duration": 3, "velocity": 112}, {"time": 3566, "pitch": 56, "duration": 10, "velocity": 100}, {"time": 3566, "pitch": 60, "duration": 3, "velocity": 99}, {"time": 3566, "pitch": 63, "duration": 2, "velocity": 127}, {"time": 3566, "pitch": 68, "duration": 3, "velocity": 112}, {"time": 3572, "pitch": 60, "duration": 3, "velocity": 82}, {"time": 3572, "pitch": 63, "duration": 2, "velocity": 122}, {"time": 3572, "pitch": 68, "duration": 2, "velocity": 56}, {"time": 3575, "pitch": 46, "duration": 22, "velocity": 93}, {"time": 3578, "pitch": 62, "duration": 3, "velocity": 77}, {"time": 3578, "pitch": 65, "duration": 3, "velocity": 77}, {"time": 3578, "pitch": 70, "duration": 2, "velocity": 63}, {"time": 3584, "pitch": 62, "duration": 3, "velocity": 89}, {"time": 3584, "pitch": 65, "duration": 3, "velocity": 96}, {"time": 3584, "pitch": 70, "duration": 3, "velocity": 100}, {"time": 3590, "pitch": 58, "duration": 12, "velocity": 102}, {"time": 3590, "pitch": 62, "duration": 6, "velocity": 95}, {"time": 3590, "pitch": 65, "duration": 6, "velocity": 102}, {"time": 3590, "pitch": 70, "duration": 6, "velocity": 107}, {"time": 3599, "pitch": 62, "duration": 4, "velocity": 95}, {"time": 3599, "pitch": 65, "duration": 4, "velocity": 99}, {"time": 3599, "pitch": 70, "duration": 4, "velocity": 112}, {"time": 3602, "pitch": 46, "duration": 32, "velocity": 107}, {"time": 3608, "pitch": 62, "duration": 7, "velocity": 95}, {"time": 3608, "pitch": 65, "duration": 7, "velocity": 96}, {"time": 3608, "pitch": 70, "duration": 7, "velocity": 107}, {"time": 3614, "pitch": 58, "duration": 8, "velocity": 122}, {"time": 3620, "pitch": 62, "duration": 8, "velocity": 102}, {"time": 3620, "pitch": 65, "duration": 8, "velocity": 112}, {"time": 3620, "pitch": 70, "duration": 8, "velocity": 117}, {"time": 3626, "pitch": 58, "duration": 2, "velocity": 112}, {"time": 3632, "pitch": 53, "duration": 2, "velocity": 67}, {"time": 3632, "pitch": 58, "duration": 2, "velocity": 82}, {"time": 3632, "pitch": 62, "duration": 3, "velocity": 100}, {"time": 3632, "pitch": 65, "duration": 3, "velocity": 99}, {"time": 3632, "pitch": 70, "duration": 3, "velocity": 107}, {"time": 3638, "pitch": 46, "duration": 3, "velocity": 83}, {"time": 3638, "pitch": 53, "duration": 2, "velocity": 70}, {"time": 3638, "pitch": 58, "duration": 3, "velocity": 127}, {"time": 3638, "pitch": 62, "duration": 3, "velocity": 99}, {"time": 3638, "pitch": 65, "duration": 3, "velocity": 100}, {"time": 3638, "pitch": 70, "duration": 3, "velocity": 112}, {"time": 3644, "pitch": 46, "duration": 3, "velocity": 77}, {"time": 3644, "pitch": 53, "duration": 2, "velocity": 69}, {"time": 3644, "pitch": 58, "duration": 3, "velocity": 99}, {"time": 3644, "pitch": 62, "duration": 3, "velocity": 96}, {"time": 3644, "pitch": 65, "duration": 3, "velocity": 97}, {"time": 3644, "pitch": 70, "duration": 3, "velocity": 107}, {"time": 3650, "pitch": 46, "duration": 3, "velocity": 90}, {"time": 3650, "pitch": 53, "duration": 2, "velocity": 64}, {"time": 3650, "pitch": 58, "duration": 2, "velocity": 127}, {"time": 3650, "pitch": 62, "duration": 3, "velocity": 99}, {"time": 3650, "pitch": 65, "duration": 3, "velocity": 99}, {"time": 3650, "pitch": 70, "duration": 3, "velocity": 102}, {"time": 3656, "pitch": 46, "duration": 3, "velocity": 89}, {"time": 3656, "pitch": 53, "duration": 2, "velocity": 53}, {"time": 3656, "pitch": 58, "duration": 2, "velocity": 112}, {"time": 3656, "pitch": 62, "duration": 3, "velocity": 100}, {"time": 3656, "pitch": 65, "duration": 3, "velocity": 99}, {"time": 3656, "pitch": 70, "duration": 3, "velocity": 102}, {"time": 3662, "pitch": 46, "duration": 3, "velocity": 88}, {"time": 3662, "pitch": 53, "duration": 2, "velocity": 49}, {"time": 3662, "pitch": 58, "duration": 2, "velocity": 117}, {"time": 3662, "pitch": 62, "duration": 3, "velocity": 100}, {"time": 3662, "pitch": 65, "duration": 3, "velocity": 102}, {"time": 3662, "pitch": 70, "duration": 3, "velocity": 102}, {"time": 3668, "pitch": 46, "duration": 1, "velocity": 53}, {"time": 3668, "pitch": 58, "duration": 2, "velocity": 112}, {"time": 3668, "pitch": 62, "duration": 2, "velocity": 117}, {"time": 3668, "pitch": 70, "duration": 1, "velocity": 93}, {"time": 3674, "pitch": 39, "duration": 12, "velocity": 96}, {"time": 3680, "pitch": 63, "duration": 2, "velocity": 96}, {"time": 3680, "pitch": 67, "duration": 1, "velocity": 82}, {"time": 3680, "pitch": 70, "duration": 2, "velocity": 95}, {"time": 3686, "pitch": 46, "duration": 11, "velocity": 48}, {"time": 3686, "pitch": 51, "duration": 11, "velocity": 96}, {"time": 3686, "pitch": 63, "duration": 7, "velocity": 107}, {"time": 3686, "pitch": 67, "duration": 6, "velocity": 97}, {"time": 3686, "pitch": 70, "duration": 6, "velocity": 107}, {"time": 3695, "pitch": 63, "duration": 2, "velocity": 102}, {"time": 3695, "pitch": 67, "duration": 1, "velocity": 96}, {"time": 3695, "pitch": 70, "duration": 2, "velocity": 102}, {"time": 3698, "pitch": 39, "duration": 20, "velocity": 70}, {"time": 3704, "pitch": 63, "duration": 7, "velocity": 99}, {"time": 3704, "pitch": 67, "duration": 3, "velocity": 100}, {"time": 3704, "pitch": 70, "duration": 7, "velocity": 107}, {"time": 3710, "pitch": 46, "duration": 10, "velocity": 60}, {"time": 3710, "pitch": 51, "duration": 10, "velocity": 97}, {"time": 3716, "pitch": 63, "duration": 7, "velocity": 112}, {"time": 3716, "pitch": 67, "duration": 2, "velocity": 122}, {"time": 3716, "pitch": 70, "duration": 7, "velocity": 122}, {"time": 3722, "pitch": 39, "duration": 21, "velocity": 100}, {"time": 3728, "pitch": 63, "duration": 3, "velocity": 100}, {"time": 3728, "pitch": 67, "duration": 2, "velocity": 112}, {"time": 3728, "pitch": 70, "duration": 3, "velocity": 97}, {"time": 3734, "pitch": 46, "duration": 10, "velocity": 35}, {"time": 3734, "pitch": 51, "duration": 10, "velocity": 96}, {"time": 3734, "pitch": 63, "duration": 6, "velocity": 102}, {"time": 3734, "pitch": 67, "duration": 6, "velocity": 112}, {"time": 3734, "pitch": 70, "duration": 6, "velocity": 96}, {"time": 3743, "pitch": 63, "duration": 5, "velocity": 107}, {"time": 3743, "pitch": 67, "duration": 5, "velocity": 107}, {"time": 3743, "pitch": 70, "duration": 5, "velocity": 112}, {"time": 3746, "pitch": 39, "duration": 13, "velocity": 99}, {"time": 3752, "pitch": 63, "duration": 3, "velocity": 107}, {"time": 3752, "pitch": 67, "duration": 3, "velocity": 95}, {"time": 3752, "pitch": 70, "duration": 3, "velocity": 97}, {"time": 3758, "pitch": 51, "duration": 10, "velocity": 86}, {"time": 3758, "pitch": 63, "duration": 3, "velocity": 102}, {"time": 3758, "pitch": 67, "duration": 2, "velocity": 97}, {"time": 3758, "pitch": 70, "duration": 2, "velocity": 100}, {"time": 3764, "pitch": 63, "duration": 6, "velocity": 122}, {"time": 3764, "pitch": 67, "duration": 1, "velocity": 85}, {"time": 3764, "pitch": 70, "duration": 4, "velocity": 102}, {"time": 3770, "pitch": 44, "duration": 21, "velocity": 93}, {"time": 3776, "pitch": 60, "duration": 3, "velocity": 93}, {"time": 3776, "pitch": 63, "duration": 3, "velocity": 122}, {"time": 3776, "pitch": 68, "duration": 2, "velocity": 77}, {"time": 3782, "pitch": 51, "duration": 12, "velocity": 48}, {"time": 3782, "pitch": 56, "duration": 12, "velocity": 97}, {"time": 3782, "pitch": 60, "duration": 7, "velocity": 90}, {"time": 3782, "pitch": 63, "duration": 7, "velocity": 127}, {"time": 3782, "pitch": 68, "duration": 7, "velocity": 99}, {"time": 3791, "pitch": 60, "duration": 1, "velocity": 68}, {"time": 3791, "pitch": 63, "duration": 6, "velocity": 122}, {"time": 3791, "pitch": 68, "duration": 6, "velocity": 100}, {"time": 3794, "pitch": 44, "duration": 18, "velocity": 107}, {"time": 3800, "pitch": 60, "duration": 7, "velocity": 86}, {"time": 3800, "pitch": 63, "duration": 6, "velocity": 112}, {"time": 3800, "pitch": 68, "duration": 7, "velocity": 97}, {"time": 3806, "pitch": 51, "duration": 10, "velocity": 38}, {"time": 3806, "pitch": 56, "duration": 11, "velocity": 112}, {"time": 3812, "pitch": 60, "duration": 9, "velocity": 95}, {"time": 3812, "pitch": 63, "duration": 9, "velocity": 127}, {"time": 3812, "pitch": 68, "duration": 9, "velocity": 112}, {"time": 3818, "pitch": 44, "duration": 21, "velocity": 100}, {"time": 3824, "pitch": 60, "duration": 2, "velocity": 82}, {"time": 3824, "pitch": 63, "duration": 2, "velocity": 112}, {"time": 3824, "pitch": 68, "duration": 2, "velocity": 93}, {"time": 3830, "pitch": 51, "duration": 9, "velocity": 31}, {"time": 3830, "pitch": 56, "duration": 13, "velocity": 92}, {"time": 3830, "pitch": 60, "duration": 7, "velocity": 92}, {"time": 3830, "pitch": 63, "duration": 7, "velocity": 127}, {"time": 3830, "pitch": 68, "duration": 6, "velocity": 107}, {"time": 3839, "pitch": 60, "duration": 5, "velocity": 81}, {"time": 3839, "pitch": 63, "duration": 5, "velocity": 122}, {"time": 3839, "pitch": 68, "duration": 5, "velocity": 100}, {"time": 3842, "pitch": 44, "duration": 19, "velocity": 93}, {"time": 3848, "pitch": 60, "duration": 7, "velocity": 89}, {"time": 3848, "pitch": 63, "duration": 7, "velocity": 127}, {"time": 3848, "pitch": 68, "duration": 8, "velocity": 122}, {"time": 3854, "pitch": 51, "duration": 3, "velocity": 66}, {"time": 3854, "pitch": 56, "duration": 5, "velocity": 99}, {"time": 3860, "pitch": 60, "duration": 9, "velocity": 93}, {"time": 3860, "pitch": 63, "duration": 8, "velocity": 127}, {"time": 3860, "pitch": 68, "duration": 8, "velocity": 112}, {"time": 3866, "pitch": 36, "duration": 15, "velocity": 83}, {"time": 3872, "pitch": 60, "duration": 4, "velocity": 95}, {"time": 3872, "pitch": 63, "duration": 3, "velocity": 117}, {"time": 3872, "pitch": 67, "duration": 4, "velocity": 93}, {"time": 3878, "pitch": 43, "duration": 11, "velocity": 56}, {"time": 3878, "pitch": 48, "duration": 11, "velocity": 83}, {"time": 3878, "pitch": 60, "duration": 6, "velocity": 88}, {"time": 3878, "pitch": 63, "duration": 6, "velocity": 117}, {"time": 3878, "pitch": 67, "duration": 6, "velocity": 92}, {"time": 3887, "pitch": 60, "duration": 4, "velocity": 89}, {"time": 3887, "pitch": 63, "duration": 4, "velocity": 122}, {"time": 3887, "pitch": 67, "duration": 5, "velocity": 96}, {"time": 3890, "pitch": 36, "duration": 16, "velocity": 92}, {"time": 3896, "pitch": 60, "duration": 7, "velocity": 89}, {"time": 3896, "pitch": 63, "duration": 7, "velocity": 117}, {"time": 3896, "pitch": 67, "duration": 7, "velocity": 89}, {"time": 3902, "pitch": 43, "duration": 10, "velocity": 90}, {"time": 3902, "pitch": 48, "duration": 11, "velocity": 99}, {"time": 3908, "pitch": 60, "duration": 8, "velocity": 93}, {"time": 3908, "pitch": 63, "duration": 8, "velocity": 112}, {"time": 3908, "pitch": 67, "duration": 8, "velocity": 88}, {"time": 3914, "pitch": 36, "duration": 13, "velocity": 92}, {"time": 3920, "pitch": 60, "duration": 3, "velocity": 82}, {"time": 3920, "pitch": 63, "duration": 3, "velocity": 99}, {"time": 3920, "pitch": 67, "duration": 3, "velocity": 77}, {"time": 3926, "pitch": 43, "duration": 11, "velocity": 75}, {"time": 3926, "pitch": 48, "duration": 11, "velocity": 95}, {"time": 3926, "pitch": 60, "duration": 6, "velocity": 89}, {"time": 3926, "pitch": 63, "duration": 6, "velocity": 107}, {"time": 3926, "pitch": 67, "duration": 6, "velocity": 86}, {"time": 3935, "pitch": 36, "duration": 16, "velocity": 71}, {"time": 3935, "pitch": 60, "duration": 5, "velocity": 75}, {"time": 3935, "pitch": 63, "duration": 5, "velocity": 97}, {"time": 3935, "pitch": 67, "duration": 5, "velocity": 79}, {"time": 3944, "pitch": 48, "duration": 3, "velocity": 107}, {"time": 3944, "pitch": 60, "duration": 3, "velocity": 92}, {"time": 3944, "pitch": 63, "duration": 3, "velocity": 112}, {"time": 3944, "pitch": 67, "duration": 3, "velocity": 90}, {"time": 3950, "pitch": 48, "duration": 7, "velocity": 127}, {"time": 3950, "pitch": 60, "duration": 3, "velocity": 97}, {"time": 3950, "pitch": 63, "duration": 3, "velocity": 127}, {"time": 3950, "pitch": 67, "duration": 3, "velocity": 100}, {"time": 3956, "pitch": 60, "duration": 9, "velocity": 112}, {"time": 3956, "pitch": 63, "duration": 3, "velocity": 127}, {"time": 3956, "pitch": 67, "duration": 3, "velocity": 92}, {"time": 3962, "pitch": 44, "duration": 20, "velocity": 97}, {"time": 3968, "pitch": 51, "duration": 4, "velocity": 40}, {"time": 3968, "pitch": 60, "duration": 3, "velocity": 86}, {"time": 3968, "pitch": 63, "duration": 3, "velocity": 107}, {"time": 3968, "pitch": 68, "duration": 3, "velocity": 97}, {"time": 3974, "pitch": 51, "duration": 12, "velocity": 57}, {"time": 3974, "pitch": 56, "duration": 12, "velocity": 127}, {"time": 3974, "pitch": 60, "duration": 6, "velocity": 89}, {"time": 3974, "pitch": 63, "duration": 6, "velocity": 122}, {"time": 3974, "pitch": 68, "duration": 6, "velocity": 107}, {"time": 3983, "pitch": 60, "duration": 5, "velocity": 90}, {"time": 3983, "pitch": 63, "duration": 5, "velocity": 127}, {"time": 3983, "pitch": 68, "duration": 5, "velocity": 112}, {"time": 3986, "pitch": 44, "duration": 21, "velocity": 95}, {"time": 3992, "pitch": 60, "duration": 7, "velocity": 90}, {"time": 3992, "pitch": 63, "duration": 7, "velocity": 117}, {"time": 3992, "pitch": 68, "duration": 8, "velocity": 107}, {"time": 3998, "pitch": 51, "duration": 11, "velocity": 35}, {"time": 3998, "pitch": 56, "duration": 12, "velocity": 107}, {"time": 4004, "pitch": 60, "duration": 9, "velocity": 90}, {"time": 4004, "pitch": 63, "duration": 9, "velocity": 127}, {"time": 4004, "pitch": 68, "duration": 9, "velocity": 112}, {"time": 4010, "pitch": 44, "duration": 20, "velocity": 102}, {"time": 4016, "pitch": 60, "duration": 2, "velocity": 81}, {"time": 4016, "pitch": 63, "duration": 2, "velocity": 102}, {"time": 4016, "pitch": 68, "duration": 3, "velocity": 89}, {"time": 4022, "pitch": 56, "duration": 11, "velocity": 100}, {"time": 4022, "pitch": 60, "duration": 6, "velocity": 95}, {"time": 4022, "pitch": 63, "duration": 6, "velocity": 127}, {"time": 4022, "pitch": 68, "duration": 6, "velocity": 112}, {"time": 4025, "pitch": 51, "duration": 7, "velocity": 25}, {"time": 4031, "pitch": 60, "duration": 5, "velocity": 88}, {"time": 4031, "pitch": 63, "duration": 5, "velocity": 117}, {"time": 4031, "pitch": 68, "duration": 6, "velocity": 102}, {"time": 4034, "pitch": 44, "duration": 16, "velocity": 102}, {"time": 4040, "pitch": 60, "duration": 3, "velocity": 99}, {"time": 4040, "pitch": 63, "duration": 3, "velocity": 127}, {"time": 4040, "pitch": 68, "duration": 3, "velocity": 122}, {"time": 4046, "pitch": 51, "duration": 3, "velocity": 42}, {"time": 4046, "pitch": 56, "duration": 3, "velocity": 112}, {"time": 4046, "pitch": 60, "duration": 3, "velocity": 97}, {"time": 4046, "pitch": 63, "duration": 3, "velocity": 127}, {"time": 4046, "pitch": 68, "duration": 3, "velocity": 117}, {"time": 4052, "pitch": 37, "duration": 34, "velocity": 112}, {"time": 4052, "pitch": 61, "duration": 9, "velocity": 117}, {"time": 4052, "pitch": 65, "duration": 2, "velocity": 107}, {"time": 4052, "pitch": 68, "duration": 8, "velocity": 117}, {"time": 4064, "pitch": 49, "duration": 2, "velocity": 67}, {"time": 4064, "pitch": 61, "duration": 3, "velocity": 107}, {"time": 4064, "pitch": 65, "duration": 1, "velocity": 86}, {"time": 4064, "pitch": 68, "duration": 2, "velocity": 93}, {"time": 4070, "pitch": 44, "duration": 11, "velocity": 73}, {"time": 4070, "pitch": 49, "duration": 9, "velocity": 122}, {"time": 4070, "pitch": 61, "duration": 6, "velocity": 107}, {"time": 4070, "pitch": 65, "duration": 6, "velocity": 112}, {"time": 4070, "pitch": 68, "duration": 6, "velocity": 117}, {"time": 4079, "pitch": 61, "duration": 5, "velocity": 102}, {"time": 4079, "pitch": 65, "duration": 3, "velocity": 95}, {"time": 4079, "pitch": 68, "duration": 5, "velocity": 117}, {"time": 4082, "pitch": 44, "duration": 1, "velocity": 54}, {"time": 4082, "pitch": 49, "duration": 7, "velocity": 117}, {"time": 4088, "pitch": 65, "duration": 3, "velocity": 97}, {"time": 4088, "pitch": 68, "duration": 4, "velocity": 122}, {"time": 4089, "pitch": 61, "duration": 2, "velocity": 127}, {"time": 4100, "pitch": 46, "duration": 9, "velocity": 112}, {"time": 4100, "pitch": 58, "duration": 9, "velocity": 127}, {"time": 4100, "pitch": 62, "duration": 8, "velocity": 97}, {"time": 4100, "pitch": 65, "duration": 8, "velocity": 90}, {"time": 4112, "pitch": 46, "duration": 3, "velocity": 102}, {"time": 4112, "pitch": 58, "duration": 3, "velocity": 107}, {"time": 4112, "pitch": 62, "duration": 3, "velocity": 92}, {"time": 4112, "pitch": 65, "duration": 3, "velocity": 85}, {"time": 4118, "pitch": 46, "duration": 2, "velocity": 122}, {"time": 4118, "pitch": 58, "duration": 3, "velocity": 127}, {"time": 4118, "pitch": 62, "duration": 2, "velocity": 88}, {"time": 4124, "pitch": 36, "duration": 9, "velocity": 100}, {"time": 4124, "pitch": 55, "duration": 9, "velocity": 99}, {"time": 4124, "pitch": 60, "duration": 9, "velocity": 117}, {"time": 4124, "pitch": 64, "duration": 9, "velocity": 100}, {"time": 4136, "pitch": 36, "duration": 1, "velocity": 35}, {"time": 4136, "pitch": 43, "duration": 2, "velocity": 42}, {"time": 4136, "pitch": 48, "duration": 2, "velocity": 73}, {"time": 4136, "pitch": 55, "duration": 3, "velocity": 60}, {"time": 4136, "pitch": 60, "duration": 3, "velocity": 59}, {"time": 4136, "pitch": 64, "duration": 3, "velocity": 53}, {"time": 4142, "pitch": 36, "duration": 3, "velocity": 63}, {"time": 4142, "pitch": 48, "duration": 3, "velocity": 89}, {"time": 4142, "pitch": 55, "duration": 3, "velocity": 79}, {"time": 4142, "pitch": 60, "duration": 3, "velocity": 78}, {"time": 4142, "pitch": 64, "duration": 3, "velocity": 76}, {"time": 4148, "pitch": 36, "duration": 3, "velocity": 86}, {"time": 4148, "pitch": 48, "duration": 3, "velocity": 107}, {"time": 4148, "pitch": 55, "duration": 2, "velocity": 95}, {"time": 4148, "pitch": 60, "duration": 2, "velocity": 96}, {"time": 4148, "pitch": 64, "duration": 2, "velocity": 89}, {"time": 4160, "pitch": 41, "duration": 3, "velocity": 64}, {"time": 4160, "pitch": 48, "duration": 3, "velocity": 86}, {"time": 4160, "pitch": 53, "duration": 3, "velocity": 95}, {"time": 4160, "pitch": 60, "duration": 3, "velocity": 97}, {"time": 4160, "pitch": 65, "duration": 4, "velocity": 96}, {"time": 4160, "pitch": 69, "duration": 3, "velocity": 93}, {"time": 4166, "pitch": 41, "duration": 4, "velocity": 72}, {"time": 4166, "pitch": 48, "duration": 4, "velocity": 96}, {"time": 4166, "pitch": 53, "duration": 4, "velocity": 127}, {"time": 4166, "pitch": 60, "duration": 4, "velocity": 117}, {"time": 4166, "pitch": 65, "duration": 3, "velocity": 107}, {"time": 4166, "pitch": 69, "duration": 4, "velocity": 107}, {"time": 4178, "pitch": 41, "duration": 11, "velocity": 100}, {"time": 4184, "pitch": 60, "duration": 3, "velocity": 83}, {"time": 4184, "pitch": 65, "duration": 3, "velocity": 89}, {"time": 4184, "pitch": 69, "duration": 3, "velocity": 79}, {"time": 4190, "pitch": 53, "duration": 9, "velocity": 37}, {"time": 4190, "pitch": 60, "duration": 6, "velocity": 95}, {"time": 4190, "pitch": 65, "duration": 6, "velocity": 95}, {"time": 4190, "pitch": 69, "duration": 6, "velocity": 86}, {"time": 4199, "pitch": 60, "duration": 2, "velocity": 96}, {"time": 4199, "pitch": 65, "duration": 2, "velocity": 97}, {"time": 4199, "pitch": 69, "duration": 3, "velocity": 97}, {"time": 4202, "pitch": 41, "duration": 11, "velocity": 67}, {"time": 4208, "pitch": 60, "duration": 8, "velocity": 85}, {"time": 4208, "pitch": 65, "duration": 8, "velocity": 92}, {"time": 4208, "pitch": 69, "duration": 8, "velocity": 85}, {"time": 4214, "pitch": 53, "duration": 8, "velocity": 100}, {"time": 4220, "pitch": 60, "duration": 8, "velocity": 90}, {"time": 4220, "pitch": 65, "duration": 8, "velocity": 92}, {"time": 4220, "pitch": 69, "duration": 8, "velocity": 85}, {"time": 4223, "pitch": 41, "duration": 15, "velocity": 83}, {"time": 4232, "pitch": 60, "duration": 3, "velocity": 77}, {"time": 4232, "pitch": 65, "duration": 3, "velocity": 83}, {"time": 4232, "pitch": 69, "duration": 3, "velocity": 74}, {"time": 4238, "pitch": 48, "duration": 10, "velocity": 66}, {"time": 4238, "pitch": 53, "duration": 11, "velocity": 83}, {"time": 4238, "pitch": 60, "duration": 5, "velocity": 89}, {"time": 4238, "pitch": 65, "duration": 6, "velocity": 95}, {"time": 4238, "pitch": 69, "duration": 6, "velocity": 85}, {"time": 4247, "pitch": 60, "duration": 3, "velocity": 95}, {"time": 4247, "pitch": 65, "duration": 3, "velocity": 95}, {"time": 4247, "pitch": 69, "duration": 3, "velocity": 82}, {"time": 4250, "pitch": 38, "duration": 12, "velocity": 89}, {"time": 4256, "pitch": 62, "duration": 2, "velocity": 92}, {"time": 4256, "pitch": 65, "duration": 3, "velocity": 100}, {"time": 4256, "pitch": 69, "duration": 3, "velocity": 81}, {"time": 4262, "pitch": 45, "duration": 10, "velocity": 50}, {"time": 4262, "pitch": 50, "duration": 10, "velocity": 81}, {"time": 4262, "pitch": 62, "duration": 6, "velocity": 97}, {"time": 4262, "pitch": 65, "duration": 6, "velocity": 127}, {"time": 4262, "pitch": 69, "duration": 6, "velocity": 89}, {"time": 4271, "pitch": 38, "duration": 13, "velocity": 86}, {"time": 4271, "pitch": 62, "duration": 3, "velocity": 93}, {"time": 4271, "pitch": 65, "duration": 4, "velocity": 122}, {"time": 4271, "pitch": 69, "duration": 4, "velocity": 96}, {"time": 4280, "pitch": 62, "duration": 7, "velocity": 112}, {"time": 4280, "pitch": 65, "duration": 7, "velocity": 127}, {"time": 4280, "pitch": 69, "duration": 7, "velocity": 100}, {"time": 4286, "pitch": 45, "duration": 11, "velocity": 72}, {"time": 4286, "pitch": 50, "duration": 12, "velocity": 93}, {"time": 4292, "pitch": 62, "duration": 7, "velocity": 99}, {"time": 4292, "pitch": 65, "duration": 7, "velocity": 127}, {"time": 4292, "pitch": 69, "duration": 7, "velocity": 93}, {"time": 4298, "pitch": 38, "duration": 13, "velocity": 83}, {"time": 4304, "pitch": 62, "duration": 2, "velocity": 89}, {"time": 4304, "pitch": 65, "duration": 2, "velocity": 122}, {"time": 4304, "pitch": 69, "duration": 2, "velocity": 88}, {"time": 4310, "pitch": 45, "duration": 10, "velocity": 82}, {"time": 4310, "pitch": 50, "duration": 10, "velocity": 95}, {"time": 4310, "pitch": 62, "duration": 5, "velocity": 96}, {"time": 4310, "pitch": 65, "duration": 6, "velocity": 122}, {"time": 4310, "pitch": 69, "duration": 5, "velocity": 89}, {"time": 4319, "pitch": 38, "duration": 15, "velocity": 95}, {"time": 4319, "pitch": 62, "duration": 3, "velocity": 100}, {"time": 4319, "pitch": 65, "duration": 3, "velocity": 127}, {"time": 4319, "pitch": 69, "duration": 3, "velocity": 97}, {"time": 4328, "pitch": 62, "duration": 2, "velocity": 95}, {"time": 4328, "pitch": 65, "duration": 2, "velocity": 127}, {"time": 4328, "pitch": 69, "duration": 2, "velocity": 99}, {"time": 4334, "pitch": 50, "duration": 7, "velocity": 100}, {"time": 4334, "pitch": 62, "duration": 2, "velocity": 99}, {"time": 4334, "pitch": 65, "duration": 2, "velocity": 127}, {"time": 4334, "pitch": 69, "duration": 2, "velocity": 100}, {"time": 4340, "pitch": 62, "duration": 8, "velocity": 100}, {"time": 4340, "pitch": 65, "duration": 5, "velocity": 127}, {"time": 4340, "pitch": 69, "duration": 3, "velocity": 92}, {"time": 4346, "pitch": 46, "duration": 17, "velocity": 102}, {"time": 4352, "pitch": 62, "duration": 2, "velocity": 96}, {"time": 4352, "pitch": 65, "duration": 2, "velocity": 127}, {"time": 4352, "pitch": 70, "duration": 2, "velocity": 112}, {"time": 4358, "pitch": 58, "duration": 12, "velocity": 90}, {"time": 4358, "pitch": 62, "duration": 6, "velocity": 97}, {"time": 4358, "pitch": 65, "duration": 6, "velocity": 127}, {"time": 4358, "pitch": 70, "duration": 6, "velocity": 112}, {"time": 4361, "pitch": 53, "duration": 5, "velocity": 23}, {"time": 4367, "pitch": 62, "duration": 3, "velocity": 95}, {"time": 4367, "pitch": 65, "duration": 3, "velocity": 127}, {"time": 4367, "pitch": 70, "duration": 3, "velocity": 107}, {"time": 4370, "pitch": 46, "duration": 21, "velocity": 93}, {"time": 4376, "pitch": 62, "duration": 8, "velocity": 100}, {"time": 4376, "pitch": 65, "duration": 8, "velocity": 127}, {"time": 4376, "pitch": 70, "duration": 8, "velocity": 112}, {"time": 4382, "pitch": 53, "duration": 2, "velocity": 42}, {"time": 4382, "pitch": 58, "duration": 10, "velocity": 117}, {"time": 4388, "pitch": 53, "duration": 4, "velocity": 24}, {"time": 4388, "pitch": 62, "duration": 7, "velocity": 97}, {"time": 4388, "pitch": 65, "duration": 7, "velocity": 127}, {"time": 4388, "pitch": 70, "duration": 8, "velocity": 112}, {"time": 4394, "pitch": 46, "duration": 19, "velocity": 102}, {"time": 4400, "pitch": 62, "duration": 2, "velocity": 88}, {"time": 4400, "pitch": 65, "duration": 2, "velocity": 122}, {"time": 4400, "pitch": 70, "duration": 2, "velocity": 99}, {"time": 4406, "pitch": 53, "duration": 9, "velocity": 64}, {"time": 4406, "pitch": 58, "duration": 10, "velocity": 112}, {"time": 4406, "pitch": 62, "duration": 6, "velocity": 95}, {"time": 4406, "pitch": 65, "duration": 6, "velocity": 127}, {"time": 4406, "pitch": 70, "duration": 6, "velocity": 102}, {"time": 4415, "pitch": 46, "duration": 21, "velocity": 97}, {"time": 4415, "pitch": 62, "duration": 3, "velocity": 92}, {"time": 4415, "pitch": 65, "duration": 3, "velocity": 127}, {"time": 4415, "pitch": 70, "duration": 4, "velocity": 122}, {"time": 4424, "pitch": 62, "duration": 2, "velocity": 86}, {"time": 4424, "pitch": 65, "duration": 3, "velocity": 127}, {"time": 4424, "pitch": 70, "duration": 3, "velocity": 112}, {"time": 4430, "pitch": 53, "duration": 3, "velocity": 69}, {"time": 4430, "pitch": 58, "duration": 6, "velocity": 102}, {"time": 4430, "pitch": 62, "duration": 3, "velocity": 89}, {"time": 4430, "pitch": 65, "duration": 3, "velocity": 127}, {"time": 4430, "pitch": 70, "duration": 3, "velocity": 112}, {"time": 4436, "pitch": 62, "duration": 6, "velocity": 95}, {"time": 4436, "pitch": 65, "duration": 6, "velocity": 127}, {"time": 4436, "pitch": 70, "duration": 6, "velocity": 107}, {"time": 4442, "pitch": 43, "duration": 14, "velocity": 97}, {"time": 4448, "pitch": 62, "duration": 2, "velocity": 99}, {"time": 4448, "pitch": 67, "duration": 3, "velocity": 122}, {"time": 4448, "pitch": 70, "duration": 3, "velocity": 122}, {"time": 4454, "pitch": 50, "duration": 10, "velocity": 78}, {"time": 4454, "pitch": 55, "duration": 10, "velocity": 92}, {"time": 4454, "pitch": 62, "duration": 6, "velocity": 96}, {"time": 4454, "pitch": 67, "duration": 6, "velocity": 112}, {"time": 4454, "pitch": 70, "duration": 6, "velocity": 102}, {"time": 4463, "pitch": 43, "duration": 16, "velocity": 79}, {"time": 4463, "pitch": 62, "duration": 3, "velocity": 93}, {"time": 4463, "pitch": 67, "duration": 3, "velocity": 100}, {"time": 4463, "pitch": 70, "duration": 4, "velocity": 107}, {"time": 4472, "pitch": 62, "duration": 8, "velocity": 99}, {"time": 4472, "pitch": 67, "duration": 8, "velocity": 100}, {"time": 4472, "pitch": 70, "duration": 8, "velocity": 112}, {"time": 4478, "pitch": 55, "duration": 10, "velocity": 102}, {"time": 4484, "pitch": 62, "duration": 7, "velocity": 97}, {"time": 4484, "pitch": 67, "duration": 3, "velocity": 99}, {"time": 4484, "pitch": 70, "duration": 2, "velocity": 93}, {"time": 4490, "pitch": 48, "duration": 19, "velocity": 95}, {"time": 4496, "pitch": 64, "duration": 3, "velocity": 107}, {"time": 4496, "pitch": 67, "duration": 2, "velocity": 99}, {"time": 4496, "pitch": 72, "duration": 3, "velocity": 112}, {"time": 4502, "pitch": 55, "duration": 10, "velocity": 37}, {"time": 4502, "pitch": 60, "duration": 13, "velocity": 107}, {"time": 4502, "pitch": 64, "duration": 6, "velocity": 96}, {"time": 4502, "pitch": 67, "duration": 6, "velocity": 102}, {"time": 4502, "pitch": 72, "duration": 6, "velocity": 112}, {"time": 4511, "pitch": 48, "duration": 21, "velocity": 99}, {"time": 4511, "pitch": 64, "duration": 4, "velocity": 100}, {"time": 4511, "pitch": 67, "duration": 4, "velocity": 107}, {"time": 4511, "pitch": 72, "duration": 4, "velocity": 117}, {"time": 4520, "pitch": 55, "duration": 3, "velocity": 51}, {"time": 4520, "pitch": 60, "duration": 3, "velocity": 112}, {"time": 4520, "pitch": 64, "duration": 3, "velocity": 112}, {"time": 4520, "pitch": 67, "duration": 3, "velocity": 127}, {"time": 4520, "pitch": 72, "duration": 3, "velocity": 122}, {"time": 4526, "pitch": 55, "duration": 5, "velocity": 67}, {"time": 4526, "pitch": 60, "duration": 6, "velocity": 127}, {"time": 4526, "pitch": 64, "duration": 3, "velocity": 100}, {"time": 4526, "pitch": 67, "duration": 3, "velocity": 102}, {"time": 4526, "pitch": 72, "duration": 3, "velocity": 117}, {"time": 4532, "pitch": 64, "duration": 4, "velocity": 117}, {"time": 4532, "pitch": 67, "duration": 2, "velocity": 117}, {"time": 4532, "pitch": 72, "duration": 3, "velocity": 117}, {"time": 4538, "pitch": 41, "duration": 12, "velocity": 112}, {"time": 4544, "pitch": 65, "duration": 2, "velocity": 102}, {"time": 4544, "pitch": 69, "duration": 2, "velocity": 92}, {"time": 4544, "pitch": 72, "duration": 2, "velocity": 100}, {"time": 4550, "pitch": 48, "duration": 11, "velocity": 59}, {"time": 4550, "pitch": 53, "duration": 12, "velocity": 107}, {"time": 4550, "pitch": 65, "duration": 6, "velocity": 117}, {"time": 4550, "pitch": 69, "duration": 3, "velocity": 102}, {"time": 4550, "pitch": 72, "duration": 6, "velocity": 112}, {"time": 4553, "pitch": 69, "duration": 2, "velocity": 25}, {"time": 4559, "pitch": 65, "duration": 5, "velocity": 99}, {"time": 4559, "pitch": 69, "duration": 4, "velocity": 97}, {"time": 4559, "pitch": 72, "duration": 5, "velocity": 107}, {"time": 4562, "pitch": 41, "duration": 22, "velocity": 85}, {"time": 4568, "pitch": 65, "duration": 3, "velocity": 117}, {"time": 4568, "pitch": 69, "duration": 2, "velocity": 122}, {"time": 4568, "pitch": 72, "duration": 2, "velocity": 122}, {"time": 4574, "pitch": 48, "duration": 11, "velocity": 58}, {"time": 4574, "pitch": 53, "duration": 13, "velocity": 117}, {"time": 4580, "pitch": 65, "duration": 9, "velocity": 117}, {"time": 4580, "pitch": 69, "duration": 8, "velocity": 117}, {"time": 4580, "pitch": 72, "duration": 9, "velocity": 117}, {"time": 4586, "pitch": 41, "duration": 22, "velocity": 97}, {"time": 4592, "pitch": 65, "duration": 3, "velocity": 97}, {"time": 4592, "pitch": 69, "duration": 2, "velocity": 93}, {"time": 4592, "pitch": 72, "duration": 3, "velocity": 97}, {"time": 4598, "pitch": 53, "duration": 14, "velocity": 117}, {"time": 4598, "pitch": 65, "duration": 6, "velocity": 100}, {"time": 4598, "pitch": 68, "duration": 1, "velocity": 76}, {"time": 4598, "pitch": 69, "duration": 3, "velocity": 107}, {"time": 4598, "pitch": 72, "duration": 6, "velocity": 112}, {"time": 4604, "pitch": 48, "duration": 7, "velocity": 26}, {"time": 4607, "pitch": 65, "duration": 4, "velocity": 107}, {"time": 4607, "pitch": 69, "duration": 3, "velocity": 99}, {"time": 4607, "pitch": 72, "duration": 3, "velocity": 112}, {"time": 4610, "pitch": 41, "duration": 14, "velocity": 100}, {"time": 4616, "pitch": 65, "duration": 2, "velocity": 117}, {"time": 4616, "pitch": 69, "duration": 1, "velocity": 107}, {"time": 4616, "pitch": 72, "duration": 2, "velocity": 112}, {"time": 4622, "pitch": 48, "duration": 2, "velocity": 62}, {"time": 4622, "pitch": 53, "duration": 2, "velocity": 127}, {"time": 4622, "pitch": 65, "duration": 4, "velocity": 99}, {"time": 4622, "pitch": 69, "duration": 3, "velocity": 97}, {"time": 4622, "pitch": 72, "duration": 5, "velocity": 127}, {"time": 4628, "pitch": 40, "duration": 7, "velocity": 97}, {"time": 4634, "pitch": 38, "duration": 15, "velocity": 92}, {"time": 4634, "pitch": 62, "duration": 3, "velocity": 107}, {"time": 4634, "pitch": 65, "duration": 3, "velocity": 112}, {"time": 4634, "pitch": 69, "duration": 3, "velocity": 93}, {"time": 4640, "pitch": 62, "duration": 3, "velocity": 88}, {"time": 4640, "pitch": 65, "duration": 3, "velocity": 112}, {"time": 4640, "pitch": 69, "duration": 2, "velocity": 88}, {"time": 4646, "pitch": 45, "duration": 11, "velocity": 77}, {"time": 4646, "pitch": 50, "duration": 11, "velocity": 95}, {"time": 4646, "pitch": 62, "duration": 6, "velocity": 102}, {"time": 4646, "pitch": 65, "duration": 6, "velocity": 127}, {"time": 4646, "pitch": 69, "duration": 6, "velocity": 93}, {"time": 4655, "pitch": 62, "duration": 3, "velocity": 100}, {"time": 4655, "pitch": 65, "duration": 3, "velocity": 122}, {"time": 4655, "pitch": 69, "duration": 3, "velocity": 100}, {"time": 4658, "pitch": 38, "duration": 15, "velocity": 77}, {"time": 4664, "pitch": 62, "duration": 7, "velocity": 95}, {"time": 4664, "pitch": 65, "duration": 7, "velocity": 107}, {"time": 4664, "pitch": 69, "duration": 7, "velocity": 81}, {"time": 4670, "pitch": 45, "duration": 10, "velocity": 78}, {"time": 4670, "pitch": 50, "duration": 10, "velocity": 99}, {"time": 4676, "pitch": 62, "duration": 8, "velocity": 95}, {"time": 4676, "pitch": 65, "duration": 7, "velocity": 112}, {"time": 4676, "pitch": 69, "duration": 8, "velocity": 86}, {"time": 4682, "pitch": 38, "duration": 14, "velocity": 76}, {"time": 4688, "pitch": 62, "duration": 2, "velocity": 83}, {"time": 4688, "pitch": 65, "duration": 2, "velocity": 107}, {"time": 4688, "pitch": 69, "duration": 2, "velocity": 81}, {"time": 4694, "pitch": 45, "duration": 10, "velocity": 56}, {"time": 4694, "pitch": 50, "duration": 13, "velocity": 86}, {"time": 4694, "pitch": 62, "duration": 7, "velocity": 95}, {"time": 4694, "pitch": 65, "duration": 6, "velocity": 117}, {"time": 4694, "pitch": 69, "duration": 6, "velocity": 81}, {"time": 4703, "pitch": 62, "duration": 4, "velocity": 83}, {"time": 4703, "pitch": 65, "duration": 4, "velocity": 112}, {"time": 4703, "pitch": 69, "duration": 4, "velocity": 86}, {"time": 4706, "pitch": 38, "duration": 14, "velocity": 97}, {"time": 4712, "pitch": 62, "duration": 3, "velocity": 90}, {"time": 4712, "pitch": 65, "duration": 3, "velocity": 112}, {"time": 4712, "pitch": 69, "duration": 3, "velocity": 88}, {"time": 4718, "pitch": 50, "duration": 6, "velocity": 95}, {"time": 4718, "pitch": 62, "duration": 3, "velocity": 90}, {"time": 4718, "pitch": 65, "duration": 3, "velocity": 112}, {"time": 4718, "pitch": 69, "duration": 3, "velocity": 93}, {"time": 4724, "pitch": 62, "duration": 4, "velocity": 95}, {"time": 4724, "pitch": 65, "duration": 3, "velocity": 117}, {"time": 4724, "pitch": 69, "duration": 1, "velocity": 58}, {"time": 4730, "pitch": 46, "duration": 14, "velocity": 90}, {"time": 4730, "pitch": 62, "duration": 3, "velocity": 82}, {"time": 4730, "pitch": 65, "duration": 3, "velocity": 122}, {"time": 4730, "pitch": 70, "duration": 2, "velocity": 112}, {"time": 4736, "pitch": 62, "duration": 3, "velocity": 73}, {"time": 4736, "pitch": 65, "duration": 3, "velocity": 102}, {"time": 4736, "pitch": 70, "duration": 3, "velocity": 96}, {"time": 4742, "pitch": 53, "duration": 10, "velocity": 47}, {"time": 4742, "pitch": 58, "duration": 12, "velocity": 99}, {"time": 4742, "pitch": 62, "duration": 7, "velocity": 86}, {"time": 4742, "pitch": 65, "duration": 6, "velocity": 117}, {"time": 4742, "pitch": 70, "duration": 6, "velocity": 102}, {"time": 4751, "pitch": 62, "duration": 5, "velocity": 79}, {"time": 4751, "pitch": 65, "duration": 5, "velocity": 122}, {"time": 4751, "pitch": 70, "duration": 5, "velocity": 102}, {"time": 4754, "pitch": 46, "duration": 16, "velocity": 81}, {"time": 4760, "pitch": 62, "duration": 3, "velocity": 92}, {"time": 4760, "pitch": 65, "duration": 3, "velocity": 127}, {"time": 4760, "pitch": 70, "duration": 3, "velocity": 107}, {"time": 4766, "pitch": 53, "duration": 10, "velocity": 59}, {"time": 4766, "pitch": 58, "duration": 12, "velocity": 89}, {"time": 4766, "pitch": 62, "duration": 3, "velocity": 83}, {"time": 4766, "pitch": 65, "duration": 3, "velocity": 122}, {"time": 4766, "pitch": 70, "duration": 4, "velocity": 100}, {"time": 4772, "pitch": 62, "duration": 7, "velocity": 85}, {"time": 4772, "pitch": 65, "duration": 7, "velocity": 117}, {"time": 4772, "pitch": 70, "duration": 7, "velocity": 107}, {"time": 4778, "pitch": 46, "duration": 18, "velocity": 99}, {"time": 4784, "pitch": 62, "duration": 2, "velocity": 85}, {"time": 4784, "pitch": 65, "duration": 2, "velocity": 107}, {"time": 4784, "pitch": 70, "duration": 2, "velocity": 95}, {"time": 4790, "pitch": 53, "duration": 10, "velocity": 63}, {"time": 4790, "pitch": 58, "duration": 11, "velocity": 99}, {"time": 4790, "pitch": 62, "duration": 6, "velocity": 92}, {"time": 4790, "pitch": 65, "duration": 6, "velocity": 127}, {"time": 4790, "pitch": 70, "duration": 5, "velocity": 102}, {"time": 4799, "pitch": 62, "duration": 5, "velocity": 88}, {"time": 4799, "pitch": 65, "duration": 5, "velocity": 127}, {"time": 4799, "pitch": 70, "duration": 5, "velocity": 112}, {"time": 4802, "pitch": 46, "duration": 19, "velocity": 96}, {"time": 4808, "pitch": 62, "duration": 3, "velocity": 93}, {"time": 4808, "pitch": 65, "duration": 3, "velocity": 127}, {"time": 4808, "pitch": 70, "duration": 3, "velocity": 112}, {"time": 4814, "pitch": 58, "duration": 10, "velocity": 100}, {"time": 4814, "pitch": 62, "duration": 3, "velocity": 99}, {"time": 4814, "pitch": 65, "duration": 2, "velocity": 127}, {"time": 4814, "pitch": 70, "duration": 3, "velocity": 112}, {"time": 4820, "pitch": 62, "duration": 3, "velocity": 82}, {"time": 4820, "pitch": 65, "duration": 2, "velocity": 122}, {"time": 4820, "pitch": 70, "duration": 2, "velocity": 56}, {"time": 4823, "pitch": 48, "duration": 22, "velocity": 93}, {"time": 4826, "pitch": 64, "duration": 3, "velocity": 77}, {"time": 4826, "pitch": 67, "duration": 3, "velocity": 77}, {"time": 4826, "pitch": 72, "duration": 2, "velocity": 63}, {"time": 4832, "pitch": 64, "duration": 3, "velocity": 89}, {"time": 4832, "pitch": 67, "duration": 3, "velocity": 96}, {"time": 4832, "pitch": 72, "duration": 3, "velocity": 100}, {"time": 4838, "pitch": 60, "duration": 12, "velocity": 102}, {"time": 4838, "pitch": 64, "duration": 6, "velocity": 95}, {"time": 4838, "pitch": 67, "duration": 6, "velocity": 102}, {"time": 4838, "pitch": 72, "duration": 6, "velocity": 107}, {"time": 4847, "pitch": 64, "duration": 4, "velocity": 95}, {"time": 4847, "pitch": 67, "duration": 4, "velocity": 99}, {"time": 4847, "pitch": 72, "duration": 4, "velocity": 112}, {"time": 4850, "pitch": 48, "duration": 32, "velocity": 107}, {"time": 4856, "pitch": 64, "duration": 7, "velocity": 95}, {"time": 4856, "pitch": 67, "duration": 7, "velocity": 96}, {"time": 4856, "pitch": 72, "duration": 7, "velocity": 107}, {"time": 4862, "pitch": 60, "duration": 8, "velocity": 122}, {"time": 4868, "pitch": 64, "duration": 8, "velocity": 102}, {"time": 4868, "pitch": 67, "duration": 8, "velocity": 112}, {"time": 4868, "pitch": 72, "duration": 8, "velocity": 117}, {"time": 4874, "pitch": 60, "duration": 2, "velocity": 112}, {"time": 4880, "pitch": 55, "duration": 2, "velocity": 67}, {"time": 4880, "pitch": 60, "duration": 2, "velocity": 82}, {"time": 4880, "pitch": 64, "duration": 3, "velocity": 100}, {"time": 4880, "pitch": 67, "duration": 3, "velocity": 99}, {"time": 4880, "pitch": 72, "duration": 3, "velocity": 107}, {"time": 4886, "pitch": 48, "duration": 3, "velocity": 83}, {"time": 4886, "pitch": 55, "duration": 2, "velocity": 70}, {"time": 4886, "pitch": 60, "duration": 3, "velocity": 127}, {"time": 4886, "pitch": 64, "duration": 3, "velocity": 99}, {"time": 4886, "pitch": 67, "duration": 3, "velocity": 100}, {"time": 4886, "pitch": 72, "duration": 3, "velocity": 112}, {"time": 4892, "pitch": 48, "duration": 3, "velocity": 77}, {"time": 4892, "pitch": 55, "duration": 2, "velocity": 69}, {"time": 4892, "pitch": 60, "duration": 3, "velocity": 99}, {"time": 4892, "pitch": 64, "duration": 3, "velocity": 96}, {"time": 4892, "pitch": 67, "duration": 3, "velocity": 97}, {"time": 4892, "pitch": 72, "duration": 3, "velocity": 107}, {"time": 4898, "pitch": 48, "duration": 3, "velocity": 90}, {"time": 4898, "pitch": 55, "duration": 2, "velocity": 64}, {"time": 4898, "pitch": 60, "duration": 2, "velocity": 127}, {"time": 4898, "pitch": 64, "duration": 3, "velocity": 99}, {"time": 4898, "pitch": 67, "duration": 3, "velocity": 99}, {"time": 4898, "pitch": 72, "duration": 3, "velocity": 102}, {"time": 4904, "pitch": 48, "duration": 3, "velocity": 89}, {"time": 4904, "pitch": 55, "duration": 2, "velocity": 53}, {"time": 4904, "pitch": 60, "duration": 2, "velocity": 112}, {"time": 4904, "pitch": 64, "duration": 3, "velocity": 100}, {"time": 4904, "pitch": 67, "duration": 3, "velocity": 99}, {"time": 4904, "pitch": 72, "duration": 3, "velocity": 102}, {"time": 4910, "pitch": 48, "duration": 3, "velocity": 88}, {"time": 4910, "pitch": 55, "duration": 2, "velocity": 49}, {"time": 4910, "pitch": 60, "duration": 2, "velocity": 117}, {"time": 4910, "pitch": 64, "duration": 3, "velocity": 100}, {"time": 4910, "pitch": 67, "duration": 3, "velocity": 102}, {"time": 4910, "pitch": 72, "duration": 3, "velocity": 102}, {"time": 4916, "pitch": 48, "duration": 1, "velocity": 53}, {"time": 4916, "pitch": 60, "duration": 2, "velocity": 112}, {"time": 4916, "pitch": 64, "duration": 2, "velocity": 117}, {"time": 4916, "pitch": 72, "duration": 1, "velocity": 93}, {"time": 4922, "pitch": 41, "duration": 26, "velocity": 95}, {"time": 4928, "pitch": 60, "duration": 2, "velocity": 86}, {"time": 4928, "pitch": 65, "duration": 2, "velocity": 92}, {"time": 4928, "pitch": 69, "duration": 2, "velocity": 85}, {"time": 4934, "pitch": 48, "duration": 24, "velocity": 50}, {"time": 4934, "pitch": 53, "duration": 8, "velocity": 32}, {"time": 4934, "pitch": 60, "duration": 7, "velocity": 102}, {"time": 4934, "pitch": 65, "duration": 7, "velocity": 100}, {"time": 4934, "pitch": 69, "duration": 7, "velocity": 93}, {"time": 4943, "pitch": 60, "duration": 4, "velocity": 92}, {"time": 4943, "pitch": 65, "duration": 4, "velocity": 96}, {"time": 4943, "pitch": 69, "duration": 4, "velocity": 92}, {"time": 4946, "pitch": 53, "duration": 8, "velocity": 100}, {"time": 4952, "pitch": 65, "duration": 8, "velocity": 100}, {"time": 4952, "pitch": 69, "duration": 8, "velocity": 100}, {"time": 4958, "pitch": 41, "duration": 8, "velocity": 89}, {"time": 4964, "pitch": 60, "duration": 7, "velocity": 88}, {"time": 4964, "pitch": 65, "duration": 7, "velocity": 95}, {"time": 4964, "pitch": 69, "duration": 7, "velocity": 89}, {"time": 4970, "pitch": 41, "duration": 11, "velocity": 95}, {"time": 4976, "pitch": 48, "duration": 3, "velocity": 53}, {"time": 4976, "pitch": 53, "duration": 3, "velocity": 53}, {"time": 4976, "pitch": 60, "duration": 3, "velocity": 95}, {"time": 4976, "pitch": 65, "duration": 3, "velocity": 93}, {"time": 4976, "pitch": 69, "duration": 4, "velocity": 88}, {"time": 4982, "pitch": 48, "duration": 11, "velocity": 69}, {"time": 4982, "pitch": 53, "duration": 11, "velocity": 96}, {"time": 4982, "pitch": 60, "duration": 6, "velocity": 95}, {"time": 4982, "pitch": 65, "duration": 6, "velocity": 96}, {"time": 4982, "pitch": 69, "duration": 6, "velocity": 89}, {"time": 4991, "pitch": 41, "duration": 16, "velocity": 72}, {"time": 4991, "pitch": 60, "duration": 5, "velocity": 92}, {"time": 4991, "pitch": 65, "duration": 5, "velocity": 89}, {"time": 4991, "pitch": 69, "duration": 5, "velocity": 85}, {"time": 5000, "pitch": 60, "duration": 16, "velocity": 102}, {"time": 5000, "pitch": 65, "duration": 19, "velocity": 102}, {"time": 5000, "pitch": 69, "duration": 20, "velocity": 97}, {"time": 5006, "pitch": 48, "duration": 3, "velocity": 79}, {"time": 5006, "pitch": 53, "duration": 3, "velocity": 102}, {"time": 5012, "pitch": 40, "duration": 5, "velocity": 107}, {"time": 5018, "pitch": 38, "duration": 13, "velocity": 97}, {"time": 5024, "pitch": 62, "duration": 3, "velocity": 107}, {"time": 5024, "pitch": 65, "duration": 3, "velocity": 100}, {"time": 5024, "pitch": 69, "duration": 3, "velocity": 96}, {"time": 5030, "pitch": 45, "duration": 11, "velocity": 56}, {"time": 5030, "pitch": 50, "duration": 10, "velocity": 81}, {"time": 5030, "pitch": 62, "duration": 7, "velocity": 99}, {"time": 5030, "pitch": 65, "duration": 7, "velocity": 99}, {"time": 5030, "pitch": 69, "duration": 7, "velocity": 95}, {"time": 5039, "pitch": 62, "duration": 3, "velocity": 97}, {"time": 5039, "pitch": 65, "duration": 3, "velocity": 100}, {"time": 5039, "pitch": 69, "duration": 3, "velocity": 93}, {"time": 5042, "pitch": 38, "duration": 12, "velocity": 81}, {"time": 5048, "pitch": 62, "duration": 9, "velocity": 99}, {"time": 5048, "pitch": 65, "duration": 7, "velocity": 99}, {"time": 5048, "pitch": 69, "duration": 9, "velocity": 99}, {"time": 5054, "pitch": 45, "duration": 11, "velocity": 51}, {"time": 5054, "pitch": 50, "duration": 11, "velocity": 92}, {"time": 5060, "pitch": 62, "duration": 7, "velocity": 102}, {"time": 5060, "pitch": 65, "duration": 6, "velocity": 99}, {"time": 5060, "pitch": 69, "duration": 6, "velocity": 95}, {"time": 5066, "pitch": 38, "duration": 14, "velocity": 92}, {"time": 5072, "pitch": 57, "duration": 7, "velocity": 102}, {"time": 5072, "pitch": 62, "duration": 6, "velocity": 102}, {"time": 5072, "pitch": 65, "duration": 7, "velocity": 100}, {"time": 5078, "pitch": 45, "duration": 12, "velocity": 65}, {"time": 5078, "pitch": 50, "duration": 8, "velocity": 96}, {"time": 5081, "pitch": 57, "duration": 5, "velocity": 96}, {"time": 5081, "pitch": 62, "duration": 5, "velocity": 117}, {"time": 5081, "pitch": 65, "duration": 5, "velocity": 99}, {"time": 5090, "pitch": 38, "duration": 14, "velocity": 99}, {"time": 5090, "pitch": 57, "duration": 6, "velocity": 102}, {"time": 5090, "pitch": 62, "duration": 6, "velocity": 107}, {"time": 5090, "pitch": 65, "duration": 7, "velocity": 97}, {"time": 5099, "pitch": 57, "duration": 6, "velocity": 100}, {"time": 5099, "pitch": 62, "duration": 6, "velocity": 112}, {"time": 5099, "pitch": 65, "duration": 6, "velocity": 96}, {"time": 5102, "pitch": 50, "duration": 4, "velocity": 112}, {"time": 5108, "pitch": 57, "duration": 4, "velocity": 102}, {"time": 5108, "pitch": 62, "duration": 4, "velocity": 102}, {"time": 5108, "pitch": 65, "duration": 5, "velocity": 97}, {"time": 5114, "pitch": 46, "duration": 19, "velocity": 99}, {"time": 5120, "pitch": 62, "duration": 4, "velocity": 86}, {"time": 5120, "pitch": 65, "duration": 3, "velocity": 92}, {"time": 5120, "pitch": 70, "duration": 3, "velocity": 97}, {"time": 5126, "pitch": 58, "duration": 11, "velocity": 112}, {"time": 5126, "pitch": 62, "duration": 7, "velocity": 93}, {"time": 5126, "pitch": 65, "duration": 7, "velocity": 97}, {"time": 5126, "pitch": 70, "duration": 7, "velocity": 107}, {"time": 5132, "pitch": 53, "duration": 3, "velocity": 25}, {"time": 5135, "pitch": 46, "duration": 15, "velocity": 92}, {"time": 5135, "pitch": 62, "duration": 3, "velocity": 78}, {"time": 5135, "pitch": 65, "duration": 3, "velocity": 90}, {"time": 5135, "pitch": 70, "duration": 4, "velocity": 112}, {"time": 5144, "pitch": 62, "duration": 7, "velocity": 99}, {"time": 5144, "pitch": 65, "duration": 7, "velocity": 107}, {"time": 5144, "pitch": 70, "duration": 8, "velocity": 122}, {"time": 5150, "pitch": 53, "duration": 10, "velocity": 48}, {"time": 5150, "pitch": 58, "duration": 13, "velocity": 112}, {"time": 5156, "pitch": 62, "duration": 7, "velocity": 90}, {"time": 5156, "pitch": 65, "duration": 7, "velocity": 95}, {"time": 5156, "pitch": 70, "duration": 8, "velocity": 107}, {"time": 5162, "pitch": 46, "duration": 15, "velocity": 102}, {"time": 5168, "pitch": 62, "duration": 3, "velocity": 92}, {"time": 5168, "pitch": 65, "duration": 2, "velocity": 97}, {"time": 5168, "pitch": 70, "duration": 3, "velocity": 100}, {"time": 5174, "pitch": 53, "duration": 9, "velocity": 44}, {"time": 5174, "pitch": 58, "duration": 11, "velocity": 102}, {"time": 5174, "pitch": 62, "duration": 6, "velocity": 95}, {"time": 5174, "pitch": 65, "duration": 6, "velocity": 97}, {"time": 5174, "pitch": 70, "duration": 6, "velocity": 97}, {"time": 5183, "pitch": 46, "duration": 16, "velocity": 89}, {"time": 5183, "pitch": 62, "duration": 5, "velocity": 89}, {"time": 5183, "pitch": 65, "duration": 5, "velocity": 97}, {"time": 5183, "pitch": 70, "duration": 5, "velocity": 100}, {"time": 5192, "pitch": 62, "duration": 8, "velocity": 90}, {"time": 5192, "pitch": 65, "duration": 8, "velocity": 97}, {"time": 5192, "pitch": 70, "duration": 8, "velocity": 107}, {"time": 5198, "pitch": 58, "duration": 1, "velocity": 100}, {"time": 5204, "pitch": 62, "duration": 8, "velocity": 95}, {"time": 5204, "pitch": 65, "duration": 6, "velocity": 100}, {"time": 5204, "pitch": 70, "duration": 6, "velocity": 107}, {"time": 5210, "pitch": 36, "duration": 12, "velocity": 97}, {"time": 5216, "pitch": 60, "duration": 4, "velocity": 99}, {"time": 5216, "pitch": 64, "duration": 4, "velocity": 97}, {"time": 5216, "pitch": 67, "duration": 4, "velocity": 97}, {"time": 5222, "pitch": 43, "duration": 11, "velocity": 66}, {"time": 5222, "pitch": 48, "duration": 10, "velocity": 81}, {"time": 5222, "pitch": 60, "duration": 6, "velocity": 95}, {"time": 5222, "pitch": 64, "duration": 6, "velocity": 97}, {"time": 5222, "pitch": 67, "duration": 6, "velocity": 96}, {"time": 5231, "pitch": 36, "duration": 15, "velocity": 69}, {"time": 5231, "pitch": 60, "duration": 3, "velocity": 93}, {"time": 5231, "pitch": 64, "duration": 3, "velocity": 96}, {"time": 5231, "pitch": 67, "duration": 3, "velocity": 95}, {"time": 5240, "pitch": 60, "duration": 7, "velocity": 97}, {"time": 5240, "pitch": 64, "duration": 7, "velocity": 99}, {"time": 5240, "pitch": 67, "duration": 7, "velocity": 99}, {"time": 5246, "pitch": 43, "duration": 12, "velocity": 72}, {"time": 5246, "pitch": 48, "duration": 12, "velocity": 89}, {"time": 5252, "pitch": 60, "duration": 8, "velocity": 97}, {"time": 5252, "pitch": 64, "duration": 8, "velocity": 100}, {"time": 5252, "pitch": 67, "duration": 8, "velocity": 96}, {"time": 5258, "pitch": 36, "duration": 12, "velocity": 97}, {"time": 5264, "pitch": 60, "duration": 3, "velocity": 93}, {"time": 5264, "pitch": 64, "duration": 3, "velocity": 95}, {"time": 5264, "pitch": 67, "duration": 3, "velocity": 89}, {"time": 5270, "pitch": 43, "duration": 11, "velocity": 41}, {"time": 5270, "pitch": 48, "duration": 12, "velocity": 90}, {"time": 5270, "pitch": 60, "duration": 7, "velocity": 100}, {"time": 5270, "pitch": 64, "duration": 7, "velocity": 107}, {"time": 5270, "pitch": 67, "duration": 7, "velocity": 100}, {"time": 5279, "pitch": 36, "duration": 13, "velocity": 79}, {"time": 5279, "pitch": 60, "duration": 5, "velocity": 96}, {"time": 5279, "pitch": 64, "duration": 5, "velocity": 99}, {"time": 5279, "pitch": 67, "duration": 6, "velocity": 96}, {"time": 5288, "pitch": 43, "duration": 5, "velocity": 69}, {"time": 5288, "pitch": 48, "duration": 7, "velocity": 99}, {"time": 5288, "pitch": 60, "duration": 4, "velocity": 100}, {"time": 5288, "pitch": 64, "duration": 3, "velocity": 102}, {"time": 5288, "pitch": 67, "duration": 4, "velocity": 95}, {"time": 5294, "pitch": 60, "duration": 3, "velocity": 102}, {"time": 5294, "pitch": 64, "duration": 3, "velocity": 102}, {"time": 5294, "pitch": 67, "duration": 3, "velocity": 96}, {"time": 5300, "pitch": 60, "duration": 4, "velocity": 107}, {"time": 5300, "pitch": 64, "duration": 3, "velocity": 97}, {"time": 5300, "pitch": 67, "duration": 3, "velocity": 83}, {"time": 5306, "pitch": 41, "duration": 117, "velocity": 74}, {"time": 5306, "pitch": 48, "duration": 117, "velocity": 86}, {"time": 5306, "pitch": 53, "duration": 116, "velocity": 112}, {"time": 5306, "pitch": 60, "duration": 117, "velocity": 127}, {"time": 5306, "pitch": 65, "duration": 117, "velocity": 127}, {"time": 5306, "pitch": 69, "duration": 117, "velocity": 127}], "annotations": [{"time": 27, "annotation": {"number": 64, "value": 127}, "group": "control_change"}, {"time": 35, "annotation": {"number": 64, "value": 0}, "group": "control_change"}, {"time": 39, "annotation": {"number": 64, "value": 127}, "group": "control_change"}, {"time": 48, "annotation": {"number": 64, "value": 0}, "group": "control_change"}, {"time": 51, "annotation": {"number": 64, "value": 127}, "group": "control_change"}, {"time": 60, "annotation": {"number": 64, "value": 0}, "group": "control_change"}, {"time": 62, "annotation": {"number": 64, "value": 127}, "group": "control_change"}, {"time": 71, "annotation": {"number": 64, "value": 0}, "group": "control_change"}, {"time": 74, "annotation": {"number": 64, "value": 127}, "group": "control_change"}, {"time": 83, "annotation": {"number": 64, "value": 0}, "group": "control_change"}, {"time": 86, "annotation": {"number": 64, "value": 127}, "group": "control_change"}, {"time": 96, "annotation": {"number": 64, "value": 0}, "group": "control_change"}, {"time": 99, "annotation": {"number": 64, "value": 127}, "group": "control_change"}, {"time": 108, "annotation": {"number": 64, "value": 0}, "group": "control_change"}, {"time": 110, "annotation": {"number": 64, "value": 127}, "group": "control_change"}, {"time": 119, "annotation": {"number": 64, "value": 0}, "group": "control_change"}, {"time": 122, "annotation": {"number": 64, "value": 127}, "group": "control_change"}, {"time": 131, "annotation": {"number": 64, "value": 0}, "group": "control_change"}, {"time": 134, "annotation": {"number": 64, "value": 127}, "group": "control_change"}, {"time": 144, "annotation": {"number": 64, "value": 0}, "group": "control_change"}, {"time": 147, "annotation": {"number": 64, "value": 127}, "group": "control_change"}, {"time": 155, "annotation": {"number": 64, "value": 0}, "group": "control_change"}, {"time": 158, "annotation": {"number": 64, "value": 127}, "group": "control_change"}, {"time": 162, "annotation": {"number": 64, "value": 0}, "group": "control_change"}, {"time": 163, "annotation": {"number": 64, "value": 127}, "group": "control_change"}, {"time": 167, "annotation": {"number": 64, "value": 0}, "group": "control_change"}, {"time": 170, "annotation": {"number": 64, "value": 127}, "group": "control_change"}, {"time": 179, "annotation": {"number": 64, "value": 0}, "group": "control_change"}, {"time": 182, "annotation": {"number": 64, "value": 127}, "group": "control_change"}, {"time": 191, "annotation": {"number": 64, "value": 0}, "group": "control_change"}, {"time": 194, "annotation": {"number": 64, "value": 127}, "group": "control_change"}, {"time": 203, "annotation": {"number": 64, "value": 0}, "group": "control_change"}, {"time": 206, "annotation": {"number": 64, "value": 127}, "group": "control_change"}, {"time": 215, "annotation": {"number": 64, "value": 0}, "group": "control_change"}, {"time": 218, "annotation": {"number": 64, "value": 127}, "group": "control_change"}, {"time": 227, "annotation": {"number": 64, "value": 0}, "group": "control_change"}, {"time": 230, "annotation": {"number": 64, "value": 127}, "group": "control_change"}, {"time": 240, "annotation": {"number": 64, "value": 0}, "group": "control_change"}, {"time": 242, "annotation": {"number": 64, "value": 127}, "group": "control_change"}, {"time": 251, "annotation": {"number": 64, "value": 0}, "group": "control_change"}, {"time": 254, "annotation": {"number": 64, "value": 127}, "group": "control_change"}, {"time": 263, "annotation": {"number": 64, "value": 0}, "group": "control_change"}, {"time": 266, "annotation": {"number": 64, "value": 127}, "group": "control_change"}, {"time": 275, "annotation": {"number": 64, "value": 0}, "group": "control_change"}, {"time": 278, "annotation": {"number": 64, "value": 127}, "group": "control_change"}, {"time": 287, "annotation": {"number": 64, "value": 0}, "group": "control_change"}, {"time": 290, "annotation": {"number": 64, "value": 127}, "group": "control_change"}, {"time": 299, "annotation": {"number": 64, "value": 0}, "group": "control_change"}, {"time": 302, "annotation": {"number": 64, "value": 127}, "group": "control_change"}, {"time": 304, "annotation": {"number": 64, "value": 0}, "group": "control_change"}, {"time": 306, "annotation": {"number": 64, "value": 127}, "group": "control_change"}, {"time": 311, "annotation": {"number": 64, "value": 0}, "group": "control_change"}, {"time": 314, "annotation": {"number": 64, "value": 127}, "group": "control_change"}, {"time": 316, "annotation": {"number": 64, "value": 0}, "group": "control_change"}, {"time": 318, "annotation": {"number": 64, "value": 127}, "group": "control_change"}, {"time": 323, "annotation": {"number": 64, "value": 0}, "group": "control_change"}, {"time": 326, "annotation": {"number": 64, "value": 127}, "group": "control_change"}, {"time": 335, "annotation": {"number": 64, "value": 0}, "group": "control_change"}, {"time": 338, "annotation": {"number": 64, "value": 127}, "group": "control_change"}, {"time": 347, "annotation": {"number": 64, "value": 0}, "group": "control_change"}, {"time": 349, "annotation": {"number": 64, "value": 127}, "group": "control_change"}, {"time": 359, "annotation": {"number": 64, "value": 0}, "group": "control_change"}, {"time": 361, "annotation": {"number": 64, "value": 127}, "group": "control_change"}, {"time": 365, "annotation": {"number": 64, "value": 0}, "group": "control_change"}, {"time": 365, "annotation": {"number": 64, "value": 127}, "group": "control_change"}, {"time": 407, "annotation": {"number": 64, "value": 0}, "group": "control_change"}, {"time": 410, "annotation": {"number": 64, "value": 127}, "group": "control_change"}, {"time": 412, "annotation": {"number": 64, "value": 0}, "group": "control_change"}, {"time": 414, "annotation": {"number": 64, "value": 127}, "group": "control_change"}, {"time": 422, "annotation": {"number": 64, "value": 0}, "group": "control_change"}, {"time": 423, "annotation": {"number": 64, "value": 127}, "group": "control_change"}, {"time": 431, "annotation": {"number": 64, "value": 0}, "group": "control_change"}, {"time": 434, "annotation": {"number": 64, "value": 127}, "group": "control_change"}, {"time": 443, "annotation": {"number": 64, "value": 0}, "group": "control_change"}, {"time": 446, "annotation": {"number": 64, "value": 127}, "group": "control_change"}, {"time": 455, "annotation": {"number": 64, "value": 0}, "group": "control_change"}, {"time": 458, "annotation": {"number": 64, "value": 127}, "group": "control_change"}, {"time": 467, "annotation": {"number": 64, "value": 0}, "group": "control_change"}, {"time": 470, "annotation": {"number": 64, "value": 127}, "group": "control_change"}, {"time": 479, "annotation": {"number": 64, "value": 0}, "group": "control_change"}, {"time": 482, "annotation": {"number": 64, "value": 127}, "group": "control_change"}, {"time": 491, "annotation": {"number": 64, "value": 0}, "group": "control_change"}, {"time": 494, "annotation": {"number": 64, "value": 127}, "group": "control_change"}, {"time": 503, "annotation": {"number": 64, "value": 0}, "group": "control_change"}, {"time": 506, "annotation": {"number": 64, "value": 127}, "group": "control_change"}, {"time": 514, "annotation": {"number": 64, "value": 0}, "group": "control_change"}, {"time": 518, "annotation": {"number": 64, "value": 127}, "group": "control_change"}, {"time": 527, "annotation": {"number": 64, "value": 0}, "group": "control_change"}, {"time": 530, "annotation": {"number": 64, "value": 127}, "group": "control_change"}, {"time": 539, "annotation": {"number": 64, "value": 0}, "group": "control_change"}, {"time": 542, "annotation": {"number": 64, "value": 127}, "group": "control_change"}, {"time": 552, "annotation": {"number": 64, "value": 0}, "group": "control_change"}, {"time": 553, "annotation": {"number": 64, "value": 127}, "group": "control_change"}, {"time": 562, "annotation": {"number": 64, "value": 0}, "group": "control_change"}, {"time": 565, "annotation": {"number": 64, "value": 127}, "group": "control_change"}, {"time": 575, "annotation": {"number": 64, "value": 0}, "group": "control_change"}, {"time": 577, "annotation": {"number": 64, "value": 127}, "group": "control_change"}, {"time": 587, "annotation": {"number": 64, "value": 0}, "group": "control_change"}, {"time": 590, "annotation": {"number": 64, "value": 127}, "group": "control_change"}, {"time": 599, "annotation": {"number": 64, "value": 0}, "group": "control_change"}, {"time": 602, "annotation": {"number": 64, "value": 127}, "group": "control_change"}, {"time": 611, "annotation": {"number": 64, "value": 0}, "group": "control_change"}, {"time": 614, "annotation": {"number": 64, "value": 127}, "group": "control_change"}, {"time": 615, "annotation": {"number": 64, "value": 0}, "group": "control_change"}, {"time": 617, "annotation": {"number": 64, "value": 127}, "group": "control_change"}, {"time": 622, "annotation": {"number": 64, "value": 0}, "group": "control_change"}, {"time": 626, "annotation": {"number": 64, "value": 127}, "group": "control_change"}, {"time": 635, "annotation": {"number": 64, "value": 0}, "group": "control_change"}, {"time": 638, "annotation": {"number": 64, "value": 127}, "group": "control_change"}, {"time": 646, "annotation": {"number": 64, "value": 0}, "group": "control_change"}, {"time": 650, "annotation": {"number": 64, "value": 127}, "group": "control_change"}, {"time": 671, "annotation": {"number": 64, "value": 0}, "group": "control_change"}, {"time": 674, "annotation": {"number": 64, "value": 127}, "group": "control_change"}, {"time": 694, "annotation": {"number": 64, "value": 0}, "group": "control_change"}, {"time": 699, "annotation": {"number": 64, "value": 127}, "group": "control_change"}, {"time": 705, "annotation": {"number": 64, "value": 0}, "group": "control_change"}, {"time": 723, "annotation": {"number": 64, "value": 127}, "group": "control_change"}, {"time": 741, "annotation": {"number": 64, "value": 0}, "group": "control_change"}, {"time": 757, "annotation": {"number": 64, "value": 127}, "group": "control_change"}, {"time": 763, "annotation": {"number": 64, "value": 0}, "group": "control_change"}, {"time": 771, "annotation": {"number": 64, "value": 127}, "group": "control_change"}, {"time": 776, "annotation": {"number": 64, "value": 0}, "group": "control_change"}, {"time": 794, "annotation": {"number": 64, "value": 127}, "group": "control_change"}, {"time": 837, "annotation": {"number": 64, "value": 0}, "group": "control_change"}, {"time": 890, "annotation": {"number": 64, "value": 127}, "group": "control_change"}, {"time": 898, "annotation": {"number": 64, "value": 0}, "group": "control_change"}, {"time": 902, "annotation": {"number": 64, "value": 127}, "group": "control_change"}, {"time": 911, "annotation": {"number": 64, "value": 0}, "group": "control_change"}, {"time": 914, "annotation": {"number": 64, "value": 127}, "group": "control_change"}, {"time": 923, "annotation": {"number": 64, "value": 0}, "group": "control_change"}, {"time": 926, "annotation": {"number": 64, "value": 127}, "group": "control_change"}, {"time": 936, "annotation": {"number": 64, "value": 0}, "group": "control_change"}, {"time": 937, "annotation": {"number": 64, "value": 127}, "group": "control_change"}, {"time": 946, "annotation": {"number": 64, "value": 0}, "group": "control_change"}, {"time": 949, "annotation": {"number": 64, "value": 127}, "group": "control_change"}, {"time": 959, "annotation": {"number": 64, "value": 0}, "group": "control_change"}, {"time": 961, "annotation": {"number": 64, "value": 127}, "group": "control_change"}, {"time": 971, "annotation": {"number": 64, "value": 0}, "group": "control_change"}, {"time": 974, "annotation": {"number": 64, "value": 127}, "group": "control_change"}, {"time": 983, "annotation": {"number": 64, "value": 0}, "group": "control_change"}, {"time": 986, "annotation": {"number": 64, "value": 127}, "group": "control_change"}, {"time": 995, "annotation": {"number": 64, "value": 0}, "group": "control_change"}, {"time": 998, "annotation": {"number": 64, "value": 127}, "group": "control_change"}, {"time": 999, "annotation": {"number": 64, "value": 0}, "group": "control_change"}, {"time": 1001, "annotation": {"number": 64, "value": 127}, "group": "control_change"}, {"time": 1006, "annotation": {"number": 64, "value": 0}, "group": "control_change"}, {"time": 1010, "annotation": {"number": 64, "value": 127}, "group": "control_change"}, {"time": 1019, "annotation": {"number": 64, "value": 0}, "group": "control_change"}, {"time": 1022, "annotation": {"number": 64, "value": 127}, "group": "control_change"}, {"time": 1030, "annotation": {"number": 64, "value": 0}, "group": "control_change"}, {"time": 1034, "annotation": {"number": 64, "value": 127}, "group": "control_change"}, {"time": 1036, "annotation": {"number": 64, "value": 0}, "group": "control_change"}, {"time": 1038, "annotation": {"number": 64, "value": 127}, "group": "control_change"}, {"time": 1043, "annotation": {"number": 64, "value": 0}, "group": "control_change"}, {"time": 1046, "annotation": {"number": 64, "value": 127}, "group": "control_change"}, {"time": 1048, "annotation": {"number": 64, "value": 0}, "group": "control_change"}, {"time": 1050, "annotation": {"number": 64, "value": 127}, "group": "control_change"}, {"time": 1055, "annotation": {"number": 64, "value": 0}, "group": "control_change"}, {"time": 1058, "annotation": {"number": 64, "value": 127}, "group": "control_change"}, {"time": 1067, "annotation": {"number": 64, "value": 0}, "group": "control_change"}, {"time": 1070, "annotation": {"number": 64, "value": 127}, "group": "control_change"}, {"time": 1072, "annotation": {"number": 64, "value": 0}, "group": "control_change"}, {"time": 1074, "annotation": {"number": 64, "value": 127}, "group": "control_change"}, {"time": 1078, "annotation": {"number": 64, "value": 0}, "group": "control_change"}, {"time": 1082, "annotation": {"number": 64, "value": 127}, "group": "control_change"}, {"time": 1083, "annotation": {"number": 64, "value": 0}, "group": "control_change"}, {"time": 1086, "annotation": {"number": 64, "value": 127}, "group": "control_change"}, {"time": 1091, "annotation": {"number": 64, "value": 0}, "group": "control_change"}, {"time": 1094, "annotation": {"number": 64, "value": 127}, "group": "control_change"}, {"time": 1096, "annotation": {"number": 64, "value": 0}, "group": "control_change"}, {"time": 1098, "annotation": {"number": 64, "value": 127}, "group": "control_change"}, {"time": 1102, "annotation": {"number": 64, "value": 0}, "group": "control_change"}, {"time": 1106, "annotation": {"number": 64, "value": 127}, "group": "control_change"}, {"time": 1116, "annotation": {"number": 64, "value": 0}, "group": "control_change"}, {"time": 1117, "annotation": {"number": 64, "value": 127}, "group": "control_change"}, {"time": 1123, "annotation": {"number": 64, "value": 0}, "group": "control_change"}, {"time": 1131, "annotation": {"number": 64, "value": 127}, "group": "control_change"}, {"time": 1133, "annotation": {"number": 64, "value": 0}, "group": "control_change"}, {"time": 1142, "annotation": {"number": 64, "value": 127}, "group": "control_change"}, {"time": 1145, "annotation": {"number": 64, "value": 0}, "group": "control_change"}, {"time": 1166, "annotation": {"number": 64, "value": 127}, "group": "control_change"}, {"time": 1169, "annotation": {"number": 64, "value": 0}, "group": "control_change"}, {"time": 1179, "annotation": {"number": 64, "value": 127}, "group": "control_change"}, {"time": 1187, "annotation": {"number": 64, "value": 0}, "group": "control_change"}, {"time": 1191, "annotation": {"number": 64, "value": 127}, "group": "control_change"}, {"time": 1192, "annotation": {"number": 64, "value": 0}, "group": "control_change"}, {"time": 1194, "annotation": {"number": 64, "value": 127}, "group": "control_change"}, {"time": 1200, "annotation": {"number": 64, "value": 0}, "group": "control_change"}, {"time": 1203, "annotation": {"number": 64, "value": 127}, "group": "control_change"}, {"time": 1204, "annotation": {"number": 64, "value": 0}, "group": "control_change"}, {"time": 1207, "annotation": {"number": 64, "value": 127}, "group": "control_change"}, {"time": 1210, "annotation": {"number": 64, "value": 0}, "group": "control_change"}, {"time": 1214, "annotation": {"number": 64, "value": 127}, "group": "control_change"}, {"time": 1216, "annotation": {"number": 64, "value": 0}, "group": "control_change"}, {"time": 1217, "annotation": {"number": 64, "value": 127}, "group": "control_change"}, {"time": 1223, "annotation": {"number": 64, "value": 0}, "group": "control_change"}, {"time": 1226, "annotation": {"number": 64, "value": 127}, "group": "control_change"}, {"time": 1227, "annotation": {"number": 64, "value": 0}, "group": "control_change"}, {"time": 1229, "annotation": {"number": 64, "value": 127}, "group": "control_change"}, {"time": 1235, "annotation": {"number": 64, "value": 0}, "group": "control_change"}, {"time": 1238, "annotation": {"number": 64, "value": 127}, "group": "control_change"}, {"time": 1240, "annotation": {"number": 64, "value": 0}, "group": "control_change"}, {"time": 1242, "annotation": {"number": 64, "value": 127}, "group": "control_change"}, {"time": 1247, "annotation": {"number": 64, "value": 0}, "group": "control_change"}, {"time": 1250, "annotation": {"number": 64, "value": 127}, "group": "control_change"}, {"time": 1251, "annotation": {"number": 64, "value": 0}, "group": "control_change"}, {"time": 1254, "annotation": {"number": 64, "value": 127}, "group": "control_change"}, {"time": 1258, "annotation": {"number": 64, "value": 0}, "group": "control_change"}, {"time": 1262, "annotation": {"number": 64, "value": 127}, "group": "control_change"}, {"time": 1264, "annotation": {"number": 64, "value": 0}, "group": "control_change"}, {"time": 1265, "annotation": {"number": 64, "value": 127}, "group": "control_change"}, {"time": 1271, "annotation": {"number": 64, "value": 0}, "group": "control_change"}, {"time": 1274, "annotation": {"number": 64, "value": 127}, "group": "control_change"}, {"time": 1275, "annotation": {"number": 64, "value": 0}, "group": "control_change"}, {"time": 1278, "annotation": {"number": 64, "value": 127}, "group": "control_change"}, {"time": 1282, "annotation": {"number": 64, "value": 0}, "group": "control_change"}, {"time": 1286, "annotation": {"number": 64, "value": 127}, "group": "control_change"}, {"time": 1287, "annotation": {"number": 64, "value": 0}, "group": "control_change"}, {"time": 1290, "annotation": {"number": 64, "value": 127}, "group": "control_change"}, {"time": 1292, "annotation": {"number": 64, "value": 0}, "group": "control_change"}, {"time": 1293, "annotation": {"number": 64, "value": 127}, "group": "control_change"}, {"time": 1293, "annotation": {"number": 64, "value": 0}, "group": "control_change"}, {"time": 1297, "annotation": {"number": 64, "value": 127}, "group": "control_change"}, {"time": 1308, "annotation": {"number": 64, "value": 0}, "group": "control_change"}, {"time": 1358, "annotation": {"number": 64, "value": 127}, "group": "control_change"}, {"time": 1359, "annotation": {"number": 64, "value": 0}, "group": "control_change"}, {"time": 1370, "annotation": {"number": 64, "value": 127}, "group": "control_change"}, {"time": 1372, "annotation": {"number": 64, "value": 0}, "group": "control_change"}, {"time": 1395, "annotation": {"number": 64, "value": 127}, "group": "control_change"}, {"time": 1397, "annotation": {"number": 64, "value": 0}, "group": "control_change"}, {"time": 1454, "annotation": {"number": 64, "value": 127}, "group": "control_change"}, {"time": 1456, "annotation": {"number": 64, "value": 0}, "group": "control_change"}, {"time": 1502, "annotation": {"number": 64, "value": 127}, "group": "control_change"}, {"time": 1504, "annotation": {"number": 64, "value": 0}, "group": "control_change"}, {"time": 1551, "annotation": {"number": 64, "value": 127}, "group": "control_change"}, {"time": 1551, "annotation": {"number": 64, "value": 0}, "group": "control_change"}, {"time": 1563, "annotation": {"number": 64, "value": 127}, "group": "control_change"}, {"time": 1564, "annotation": {"number": 64, "value": 0}, "group": "control_change"}, {"time": 1586, "annotation": {"number": 64, "value": 127}, "group": "control_change"}, {"time": 1589, "annotation": {"number": 64, "value": 0}, "group": "control_change"}, {"time": 1618, "annotation": {"number": 64, "value": 127}, "group": "control_change"}, {"time": 1650, "annotation": {"number": 64, "value": 0}, "group": "control_change"}, {"time": 1659, "annotation": {"number": 64, "value": 127}, "group": "control_change"}, {"time": 1662, "annotation": {"number": 64, "value": 0}, "group": "control_change"}, {"time": 1670, "annotation": {"number": 64, "value": 127}, "group": "control_change"}, {"time": 1689, "annotation": {"number": 64, "value": 0}, "group": "control_change"}, {"time": 1693, "annotation": {"number": 64, "value": 127}, "group": "control_change"}, {"time": 1703, "annotation": {"number": 64, "value": 0}, "group": "control_change"}, {"time": 1705, "annotation": {"number": 64, "value": 127}, "group": "control_change"}, {"time": 1706, "annotation": {"number": 64, "value": 0}, "group": "control_change"}, {"time": 1717, "annotation": {"number": 64, "value": 127}, "group": "control_change"}, {"time": 1728, "annotation": {"number": 64, "value": 0}, "group": "control_change"}, {"time": 1729, "annotation": {"number": 64, "value": 127}, "group": "control_change"}, {"time": 1741, "annotation": {"number": 64, "value": 0}, "group": "control_change"}, {"time": 1742, "annotation": {"number": 64, "value": 127}, "group": "control_change"}, {"time": 1751, "annotation": {"number": 64, "value": 0}, "group": "control_change"}, {"time": 1754, "annotation": {"number": 64, "value": 127}, "group": "control_change"}, {"time": 1755, "annotation": {"number": 64, "value": 0}, "group": "control_change"}, {"time": 1758, "annotation": {"number": 64, "value": 127}, "group": "control_change"}, {"time": 1760, "annotation": {"number": 64, "value": 0}, "group": "control_change"}, {"time": 1766, "annotation": {"number": 64, "value": 127}, "group": "control_change"}, {"time": 1773, "annotation": {"number": 64, "value": 0}, "group": "control_change"}, {"time": 1779, "annotation": {"number": 64, "value": 127}, "group": "control_change"}, {"time": 1789, "annotation": {"number": 64, "value": 0}, "group": "control_change"}, {"time": 1790, "annotation": {"number": 64, "value": 127}, "group": "control_change"}, {"time": 1793, "annotation": {"number": 64, "value": 0}, "group": "control_change"}, {"time": 1794, "annotation": {"number": 64, "value": 127}, "group": "control_change"}, {"time": 1796, "annotation": {"number": 64, "value": 0}, "group": "control_change"}, {"time": 1803, "annotation": {"number": 64, "value": 127}, "group": "control_change"}, {"time": 1806, "annotation": {"number": 64, "value": 0}, "group": "control_change"}, {"time": 1813, "annotation": {"number": 64, "value": 127}, "group": "control_change"}, {"time": 1820, "annotation": {"number": 64, "value": 0}, "group": "control_change"}, {"time": 1826, "annotation": {"number": 64, "value": 127}, "group": "control_change"}, {"time": 1829, "annotation": {"number": 64, "value": 0}, "group": "control_change"}, {"time": 1838, "annotation": {"number": 64, "value": 127}, "group": "control_change"}, {"time": 1841, "annotation": {"number": 64, "value": 0}, "group": "control_change"}, {"time": 1850, "annotation": {"number": 64, "value": 127}, "group": "control_change"}, {"time": 1855, "annotation": {"number": 64, "value": 0}, "group": "control_change"}, {"time": 1862, "annotation": {"number": 64, "value": 127}, "group": "control_change"}, {"time": 1868, "annotation": {"number": 64, "value": 0}, "group": "control_change"}, {"time": 1876, "annotation": {"number": 64, "value": 127}, "group": "control_change"}, {"time": 1877, "annotation": {"number": 64, "value": 0}, "group": "control_change"}, {"time": 1888, "annotation": {"number": 64, "value": 127}, "group": "control_change"}, {"time": 1889, "annotation": {"number": 64, "value": 0}, "group": "control_change"}, {"time": 1959, "annotation": {"number": 64, "value": 127}, "group": "control_change"}, {"time": 1964, "annotation": {"number": 64, "value": 0}, "group": "control_change"}, {"time": 1969, "annotation": {"number": 64, "value": 127}, "group": "control_change"}, {"time": 1979, "annotation": {"number": 64, "value": 0}, "group": "control_change"}, {"time": 2007, "annotation": {"number": 64, "value": 127}, "group": "control_change"}, {"time": 2015, "annotation": {"number": 64, "value": 0}, "group": "control_change"}, {"time": 2018, "annotation": {"number": 64, "value": 127}, "group": "control_change"}, {"time": 2027, "annotation": {"number": 64, "value": 0}, "group": "control_change"}, {"time": 2030, "annotation": {"number": 64, "value": 127}, "group": "control_change"}, {"time": 2039, "annotation": {"number": 64, "value": 0}, "group": "control_change"}, {"time": 2042, "annotation": {"number": 64, "value": 127}, "group": "control_change"}, {"time": 2050, "annotation": {"number": 64, "value": 0}, "group": "control_change"}, {"time": 2053, "annotation": {"number": 64, "value": 127}, "group": "control_change"}, {"time": 2055, "annotation": {"number": 64, "value": 0}, "group": "control_change"}, {"time": 2058, "annotation": {"number": 64, "value": 127}, "group": "control_change"}, {"time": 2060, "annotation": {"number": 64, "value": 0}, "group": "control_change"}, {"time": 2066, "annotation": {"number": 64, "value": 127}, "group": "control_change"}, {"time": 2075, "annotation": {"number": 64, "value": 0}, "group": "control_change"}, {"time": 2078, "annotation": {"number": 64, "value": 127}, "group": "control_change"}, {"time": 2087, "annotation": {"number": 64, "value": 0}, "group": "control_change"}, {"time": 2089, "annotation": {"number": 64, "value": 127}, "group": "control_change"}, {"time": 2099, "annotation": {"number": 64, "value": 0}, "group": "control_change"}, {"time": 2102, "annotation": {"number": 64, "value": 127}, "group": "control_change"}, {"time": 2104, "annotation": {"number": 64, "value": 0}, "group": "control_change"}, {"time": 2105, "annotation": {"number": 64, "value": 127}, "group": "control_change"}, {"time": 2112, "annotation": {"number": 64, "value": 0}, "group": "control_change"}, {"time": 2114, "annotation": {"number": 64, "value": 127}, "group": "control_change"}, {"time": 2124, "annotation": {"number": 64, "value": 0}, "group": "control_change"}, {"time": 2126, "annotation": {"number": 64, "value": 127}, "group": "control_change"}, {"time": 2135, "annotation": {"number": 64, "value": 0}, "group": "control_change"}, {"time": 2138, "annotation": {"number": 64, "value": 127}, "group": "control_change"}, {"time": 2140, "annotation": {"number": 64, "value": 0}, "group": "control_change"}, {"time": 2142, "annotation": {"number": 64, "value": 127}, "group": "control_change"}, {"time": 2147, "annotation": {"number": 64, "value": 0}, "group": "control_change"}, {"time": 2150, "annotation": {"number": 64, "value": 127}, "group": "control_change"}, {"time": 2152, "annotation": {"number": 64, "value": 0}, "group": "control_change"}, {"time": 2154, "annotation": {"number": 64, "value": 127}, "group": "control_change"}, {"time": 2160, "annotation": {"number": 64, "value": 0}, "group": "control_change"}, {"time": 2162, "annotation": {"number": 64, "value": 127}, "group": "control_change"}, {"time": 2172, "annotation": {"number": 64, "value": 0}, "group": "control_change"}, {"time": 2175, "annotation": {"number": 64, "value": 127}, "group": "control_change"}, {"time": 2184, "annotation": {"number": 64, "value": 0}, "group": "control_change"}, {"time": 2186, "annotation": {"number": 64, "value": 127}, "group": "control_change"}, {"time": 2231, "annotation": {"number": 64, "value": 0}, "group": "control_change"}, {"time": 2233, "annotation": {"number": 64, "value": 127}, "group": "control_change"}, {"time": 2244, "annotation": {"number": 64, "value": 0}, "group": "control_change"}, {"time": 2246, "annotation": {"number": 64, "value": 127}, "group": "control_change"}, {"time": 2257, "annotation": {"number": 64, "value": 0}, "group": "control_change"}, {"time": 2258, "annotation": {"number": 64, "value": 127}, "group": "control_change"}, {"time": 2269, "annotation": {"number": 64, "value": 0}, "group": "control_change"}, {"time": 2270, "annotation": {"number": 64, "value": 127}, "group": "control_change"}, {"time": 2281, "annotation": {"number": 64, "value": 0}, "group": "control_change"}, {"time": 2282, "annotation": {"number": 64, "value": 127}, "group": "control_change"}, {"time": 2290, "annotation": {"number": 64, "value": 0}, "group": "control_change"}, {"time": 2294, "annotation": {"number": 64, "value": 127}, "group": "control_change"}, {"time": 2316, "annotation": {"number": 64, "value": 0}, "group": "control_change"}, {"time": 2318, "annotation": {"number": 64, "value": 127}, "group": "control_change"}, {"time": 2328, "annotation": {"number": 64, "value": 0}, "group": "control_change"}, {"time": 2330, "annotation": {"number": 64, "value": 127}, "group": "control_change"}, {"time": 2341, "annotation": {"number": 64, "value": 0}, "group": "control_change"}, {"time": 2342, "annotation": {"number": 64, "value": 127}, "group": "control_change"}, {"time": 2375, "annotation": {"number": 64, "value": 0}, "group": "control_change"}, {"time": 2378, "annotation": {"number": 64, "value": 127}, "group": "control_change"}, {"time": 2387, "annotation": {"number": 64, "value": 0}, "group": "control_change"}, {"time": 2390, "annotation": {"number": 64, "value": 127}, "group": "control_change"}, {"time": 2391, "annotation": {"number": 64, "value": 0}, "group": "control_change"}, {"time": 2393, "annotation": {"number": 64, "value": 127}, "group": "control_change"}, {"time": 2400, "annotation": {"number": 64, "value": 0}, "group": "control_change"}, {"time": 2402, "annotation": {"number": 64, "value": 127}, "group": "control_change"}, {"time": 2403, "annotation": {"number": 64, "value": 0}, "group": "control_change"}, {"time": 2405, "annotation": {"number": 64, "value": 127}, "group": "control_change"}, {"time": 2411, "annotation": {"number": 64, "value": 0}, "group": "control_change"}, {"time": 2414, "annotation": {"number": 64, "value": 127}, "group": "control_change"}, {"time": 2423, "annotation": {"number": 64, "value": 0}, "group": "control_change"}, {"time": 2426, "annotation": {"number": 64, "value": 127}, "group": "control_change"}, {"time": 2428, "annotation": {"number": 64, "value": 0}, "group": "control_change"}, {"time": 2429, "annotation": {"number": 64, "value": 127}, "group": "control_change"}, {"time": 2435, "annotation": {"number": 64, "value": 0}, "group": "control_change"}, {"time": 2438, "annotation": {"number": 64, "value": 127}, "group": "control_change"}, {"time": 2439, "annotation": {"number": 64, "value": 0}, "group": "control_change"}, {"time": 2441, "annotation": {"number": 64, "value": 127}, "group": "control_change"}, {"time": 2448, "annotation": {"number": 64, "value": 0}, "group": "control_change"}, {"time": 2450, "annotation": {"number": 64, "value": 127}, "group": "control_change"}, {"time": 2460, "annotation": {"number": 64, "value": 0}, "group": "control_change"}, {"time": 2462, "annotation": {"number": 64, "value": 127}, "group": "control_change"}, {"time": 2471, "annotation": {"number": 64, "value": 0}, "group": "control_change"}, {"time": 2474, "annotation": {"number": 64, "value": 127}, "group": "control_change"}, {"time": 2484, "annotation": {"number": 64, "value": 0}, "group": "control_change"}, {"time": 2486, "annotation": {"number": 64, "value": 127}, "group": "control_change"}, {"time": 2488, "annotation": {"number": 64, "value": 0}, "group": "control_change"}, {"time": 2490, "annotation": {"number": 64, "value": 127}, "group": "control_change"}, {"time": 2508, "annotation": {"number": 64, "value": 0}, "group": "control_change"}, {"time": 2509, "annotation": {"number": 64, "value": 127}, "group": "control_change"}, {"time": 2515, "annotation": {"number": 64, "value": 0}, "group": "control_change"}, {"time": 2522, "annotation": {"number": 64, "value": 127}, "group": "control_change"}, {"time": 2524, "annotation": {"number": 64, "value": 0}, "group": "control_change"}, {"time": 2526, "annotation": {"number": 64, "value": 127}, "group": "control_change"}, {"time": 2534, "annotation": {"number": 64, "value": 0}, "group": "control_change"}, {"time": 2535, "annotation": {"number": 64, "value": 127}, "group": "control_change"}, {"time": 2543, "annotation": {"number": 64, "value": 0}, "group": "control_change"}, {"time": 2546, "annotation": {"number": 64, "value": 127}, "group": "control_change"}, {"time": 2555, "annotation": {"number": 64, "value": 0}, "group": "control_change"}, {"time": 2558, "annotation": {"number": 64, "value": 127}, "group": "control_change"}, {"time": 2567, "annotation": {"number": 64, "value": 0}, "group": "control_change"}, {"time": 2570, "annotation": {"number": 64, "value": 127}, "group": "control_change"}, {"time": 2579, "annotation": {"number": 64, "value": 0}, "group": "control_change"}, {"time": 2582, "annotation": {"number": 64, "value": 127}, "group": "control_change"}, {"time": 2591, "annotation": {"number": 64, "value": 0}, "group": "control_change"}, {"time": 2594, "annotation": {"number": 64, "value": 127}, "group": "control_change"}, {"time": 2603, "annotation": {"number": 64, "value": 0}, "group": "control_change"}, {"time": 2606, "annotation": {"number": 64, "value": 127}, "group": "control_change"}, {"time": 2615, "annotation": {"number": 64, "value": 0}, "group": "control_change"}, {"time": 2618, "annotation": {"number": 64, "value": 127}, "group": "control_change"}, {"time": 2626, "annotation": {"number": 64, "value": 0}, "group": "control_change"}, {"time": 2630, "annotation": {"number": 64, "value": 127}, "group": "control_change"}, {"time": 2639, "annotation": {"number": 64, "value": 0}, "group": "control_change"}, {"time": 2642, "annotation": {"number": 64, "value": 127}, "group": "control_change"}, {"time": 2651, "annotation": {"number": 64, "value": 0}, "group": "control_change"}, {"time": 2654, "annotation": {"number": 64, "value": 127}, "group": "control_change"}, {"time": 2664, "annotation": {"number": 64, "value": 0}, "group": "control_change"}, {"time": 2665, "annotation": {"number": 64, "value": 127}, "group": "control_change"}, {"time": 2674, "annotation": {"number": 64, "value": 0}, "group": "control_change"}, {"time": 2677, "annotation": {"number": 64, "value": 127}, "group": "control_change"}, {"time": 2687, "annotation": {"number": 64, "value": 0}, "group": "control_change"}, {"time": 2689, "annotation": {"number": 64, "value": 127}, "group": "control_change"}, {"time": 2699, "annotation": {"number": 64, "value": 0}, "group": "control_change"}, {"time": 2702, "annotation": {"number": 64, "value": 127}, "group": "control_change"}, {"time": 2711, "annotation": {"number": 64, "value": 0}, "group": "control_change"}, {"time": 2714, "annotation": {"number": 64, "value": 127}, "group": "control_change"}, {"time": 2723, "annotation": {"number": 64, "value": 0}, "group": "control_change"}, {"time": 2726, "annotation": {"number": 64, "value": 127}, "group": "control_change"}, {"time": 2727, "annotation": {"number": 64, "value": 0}, "group": "control_change"}, {"time": 2729, "annotation": {"number": 64, "value": 127}, "group": "control_change"}, {"time": 2734, "annotation": {"number": 64, "value": 0}, "group": "control_change"}, {"time": 2738, "annotation": {"number": 64, "value": 127}, "group": "control_change"}, {"time": 2747, "annotation": {"number": 64, "value": 0}, "group": "control_change"}, {"time": 2750, "annotation": {"number": 64, "value": 127}, "group": "control_change"}, {"time": 2758, "annotation": {"number": 64, "value": 0}, "group": "control_change"}, {"time": 2762, "annotation": {"number": 64, "value": 127}, "group": "control_change"}, {"time": 2764, "annotation": {"number": 64, "value": 0}, "group": "control_change"}, {"time": 2766, "annotation": {"number": 64, "value": 127}, "group": "control_change"}, {"time": 2771, "annotation": {"number": 64, "value": 0}, "group": "control_change"}, {"time": 2774, "annotation": {"number": 64, "value": 127}, "group": "control_change"}, {"time": 2776, "annotation": {"number": 64, "value": 0}, "group": "control_change"}, {"time": 2778, "annotation": {"number": 64, "value": 127}, "group": "control_change"}, {"time": 2783, "annotation": {"number": 64, "value": 0}, "group": "control_change"}, {"time": 2786, "annotation": {"number": 64, "value": 127}, "group": "control_change"}, {"time": 2795, "annotation": {"number": 64, "value": 0}, "group": "control_change"}, {"time": 2798, "annotation": {"number": 64, "value": 127}, "group": "control_change"}, {"time": 2800, "annotation": {"number": 64, "value": 0}, "group": "control_change"}, {"time": 2802, "annotation": {"number": 64, "value": 127}, "group": "control_change"}, {"time": 2806, "annotation": {"number": 64, "value": 0}, "group": "control_change"}, {"time": 2810, "annotation": {"number": 64, "value": 127}, "group": "control_change"}, {"time": 2811, "annotation": {"number": 64, "value": 0}, "group": "control_change"}, {"time": 2814, "annotation": {"number": 64, "value": 127}, "group": "control_change"}, {"time": 2819, "annotation": {"number": 64, "value": 0}, "group": "control_change"}, {"time": 2822, "annotation": {"number": 64, "value": 127}, "group": "control_change"}, {"time": 2824, "annotation": {"number": 64, "value": 0}, "group": "control_change"}, {"time": 2826, "annotation": {"number": 64, "value": 127}, "group": "control_change"}, {"time": 2830, "annotation": {"number": 64, "value": 0}, "group": "control_change"}, {"time": 2834, "annotation": {"number": 64, "value": 127}, "group": "control_change"}, {"time": 2844, "annotation": {"number": 64, "value": 0}, "group": "control_change"}, {"time": 2845, "annotation": {"number": 64, "value": 127}, "group": "control_change"}, {"time": 2851, "annotation": {"number": 64, "value": 0}, "group": "control_change"}, {"time": 2859, "annotation": {"number": 64, "value": 127}, "group": "control_change"}, {"time": 2861, "annotation": {"number": 64, "value": 0}, "group": "control_change"}, {"time": 2870, "annotation": {"number": 64, "value": 127}, "group": "control_change"}, {"time": 2873, "annotation": {"number": 64, "value": 0}, "group": "control_change"}, {"time": 2894, "annotation": {"number": 64, "value": 127}, "group": "control_change"}, {"time": 2897, "annotation": {"number": 64, "value": 0}, "group": "control_change"}, {"time": 2907, "annotation": {"number": 64, "value": 127}, "group": "control_change"}, {"time": 2915, "annotation": {"number": 64, "value": 0}, "group": "control_change"}, {"time": 2919, "annotation": {"number": 64, "value": 127}, "group": "control_change"}, {"time": 2920, "annotation": {"number": 64, "value": 0}, "group": "control_change"}, {"time": 2922, "annotation": {"number": 64, "value": 127}, "group": "control_change"}, {"time": 2928, "annotation": {"number": 64, "value": 0}, "group": "control_change"}, {"time": 2931, "annotation": {"number": 64, "value": 127}, "group": "control_change"}, {"time": 2932, "annotation": {"number": 64, "value": 0}, "group": "control_change"}, {"time": 2935, "annotation": {"number": 64, "value": 127}, "group": "control_change"}, {"time": 2938, "annotation": {"number": 64, "value": 0}, "group": "control_change"}, {"time": 2942, "annotation": {"number": 64, "value": 127}, "group": "control_change"}, {"time": 2944, "annotation": {"number": 64, "value": 0}, "group": "control_change"}, {"time": 2945, "annotation": {"number": 64, "value": 127}, "group": "control_change"}, {"time": 2951, "annotation": {"number": 64, "value": 0}, "group": "control_change"}, {"time": 2954, "annotation": {"number": 64, "value": 127}, "group": "control_change"}, {"time": 2955, "annotation": {"number": 64, "value": 0}, "group": "control_change"}, {"time": 2957, "annotation": {"number": 64, "value": 127}, "group": "control_change"}, {"time": 2963, "annotation": {"number": 64, "value": 0}, "group": "control_change"}, {"time": 2966, "annotation": {"number": 64, "value": 127}, "group": "control_change"}, {"time": 2968, "annotation": {"number": 64, "value": 0}, "group": "control_change"}, {"time": 2970, "annotation": {"number": 64, "value": 127}, "group": "control_change"}, {"time": 2975, "annotation": {"number": 64, "value": 0}, "group": "control_change"}, {"time": 2978, "annotation": {"number": 64, "value": 127}, "group": "control_change"}, {"time": 2979, "annotation": {"number": 64, "value": 0}, "group": "control_change"}, {"time": 2982, "annotation": {"number": 64, "value": 127}, "group": "control_change"}, {"time": 2986, "annotation": {"number": 64, "value": 0}, "group": "control_change"}, {"time": 2990, "annotation": {"number": 64, "value": 127}, "group": "control_change"}, {"time": 2992, "annotation": {"number": 64, "value": 0}, "group": "control_change"}, {"time": 2993, "annotation": {"number": 64, "value": 127}, "group": "control_change"}, {"time": 2999, "annotation": {"number": 64, "value": 0}, "group": "control_change"}, {"time": 3002, "annotation": {"number": 64, "value": 127}, "group": "control_change"}, {"time": 3003, "annotation": {"number": 64, "value": 0}, "group": "control_change"}, {"time": 3006, "annotation": {"number": 64, "value": 127}, "group": "control_change"}, {"time": 3010, "annotation": {"number": 64, "value": 0}, "group": "control_change"}, {"time": 3014, "annotation": {"number": 64, "value": 127}, "group": "control_change"}, {"time": 3015, "annotation": {"number": 64, "value": 0}, "group": "control_change"}, {"time": 3018, "annotation": {"number": 64, "value": 127}, "group": "control_change"}, {"time": 3020, "annotation": {"number": 64, "value": 0}, "group": "control_change"}, {"time": 3021, "annotation": {"number": 64, "value": 127}, "group": "control_change"}, {"time": 3021, "annotation": {"number": 64, "value": 0}, "group": "control_change"}, {"time": 3025, "annotation": {"number": 64, "value": 127}, "group": "control_change"}, {"time": 3036, "annotation": {"number": 64, "value": 0}, "group": "control_change"}, {"time": 3086, "annotation": {"number": 64, "value": 127}, "group": "control_change"}, {"time": 3087, "annotation": {"number": 64, "value": 0}, "group": "control_change"}, {"time": 3098, "annotation": {"number": 64, "value": 127}, "group": "control_change"}, {"time": 3100, "annotation": {"number": 64, "value": 0}, "group": "control_change"}, {"time": 3123, "annotation": {"number": 64, "value": 127}, "group": "control_change"}, {"time": 3125, "annotation": {"number": 64, "value": 0}, "group": "control_change"}, {"time": 3182, "annotation": {"number": 64, "value": 127}, "group": "control_change"}, {"time": 3184, "annotation": {"number": 64, "value": 0}, "group": "control_change"}, {"time": 3230, "annotation": {"number": 64, "value": 127}, "group": "control_change"}, {"time": 3232, "annotation": {"number": 64, "value": 0}, "group": "control_change"}, {"time": 3279, "annotation": {"number": 64, "value": 127}, "group": "control_change"}, {"time": 3279, "annotation": {"number": 64, "value": 0}, "group": "control_change"}, {"time": 3291, "annotation": {"number": 64, "value": 127}, "group": "control_change"}, {"time": 3292, "annotation": {"number": 64, "value": 0}, "group": "control_change"}, {"time": 3314, "annotation": {"number": 64, "value": 127}, "group": "control_change"}, {"time": 3317, "annotation": {"number": 64, "value": 0}, "group": "control_change"}, {"time": 3346, "annotation": {"number": 64, "value": 127}, "group": "control_change"}, {"time": 3378, "annotation": {"number": 64, "value": 0}, "group": "control_change"}, {"time": 3387, "annotation": {"number": 64, "value": 127}, "group": "control_change"}, {"time": 3390, "annotation": {"number": 64, "value": 0}, "group": "control_change"}, {"time": 3398, "annotation": {"number": 64, "value": 127}, "group": "control_change"}, {"time": 3417, "annotation": {"number": 64, "value": 0}, "group": "control_change"}, {"time": 3421, "annotation": {"number": 64, "value": 127}, "group": "control_change"}, {"time": 3431, "annotation": {"number": 64, "value": 0}, "group": "control_change"}, {"time": 3433, "annotation": {"number": 64, "value": 127}, "group": "control_change"}, {"time": 3434, "annotation": {"number": 64, "value": 0}, "group": "control_change"}, {"time": 3445, "annotation": {"number": 64, "value": 127}, "group": "control_change"}, {"time": 3456, "annotation": {"number": 64, "value": 0}, "group": "control_change"}, {"time": 3457, "annotation": {"number": 64, "value": 127}, "group": "control_change"}, {"time": 3469, "annotation": {"number": 64, "value": 0}, "group": "control_change"}, {"time": 3470, "annotation": {"number": 64, "value": 127}, "group": "control_change"}, {"time": 3479, "annotation": {"number": 64, "value": 0}, "group": "control_change"}, {"time": 3482, "annotation": {"number": 64, "value": 127}, "group": "control_change"}, {"time": 3483, "annotation": {"number": 64, "value": 0}, "group": "control_change"}, {"time": 3486, "annotation": {"number": 64, "value": 127}, "group": "control_change"}, {"time": 3488, "annotation": {"number": 64, "value": 0}, "group": "control_change"}, {"time": 3494, "annotation": {"number": 64, "value": 127}, "group": "control_change"}, {"time": 3501, "annotation": {"number": 64, "value": 0}, "group": "control_change"}, {"time": 3507, "annotation": {"number": 64, "value": 127}, "group": "control_change"}, {"time": 3517, "annotation": {"number": 64, "value": 0}, "group": "control_change"}, {"time": 3518, "annotation": {"number": 64, "value": 127}, "group": "control_change"}, {"time": 3521, "annotation": {"number": 64, "value": 0}, "group": "control_change"}, {"time": 3522, "annotation": {"number": 64, "value": 127}, "group": "control_change"}, {"time": 3524, "annotation": {"number": 64, "value": 0}, "group": "control_change"}, {"time": 3531, "annotation": {"number": 64, "value": 127}, "group": "control_change"}, {"time": 3534, "annotation": {"number": 64, "value": 0}, "group": "control_change"}, {"time": 3541, "annotation": {"number": 64, "value": 127}, "group": "control_change"}, {"time": 3548, "annotation": {"number": 64, "value": 0}, "group": "control_change"}, {"time": 3554, "annotation": {"number": 64, "value": 127}, "group": "control_change"}, {"time": 3557, "annotation": {"number": 64, "value": 0}, "group": "control_change"}, {"time": 3566, "annotation": {"number": 64, "value": 127}, "group": "control_change"}, {"time": 3569, "annotation": {"number": 64, "value": 0}, "group": "control_change"}, {"time": 3578, "annotation": {"number": 64, "value": 127}, "group": "control_change"}, {"time": 3583, "annotation": {"number": 64, "value": 0}, "group": "control_change"}, {"time": 3590, "annotation": {"number": 64, "value": 127}, "group": "control_change"}, {"time": 3596, "annotation": {"number": 64, "value": 0}, "group": "control_change"}, {"time": 3604, "annotation": {"number": 64, "value": 127}, "group": "control_change"}, {"time": 3605, "annotation": {"number": 64, "value": 0}, "group": "control_change"}, {"time": 3616, "annotation": {"number": 64, "value": 127}, "group": "control_change"}, {"time": 3617, "annotation": {"number": 64, "value": 0}, "group": "control_change"}, {"time": 3675, "annotation": {"number": 64, "value": 127}, "group": "control_change"}, {"time": 3682, "annotation": {"number": 64, "value": 0}, "group": "control_change"}, {"time": 3685, "annotation": {"number": 64, "value": 127}, "group": "control_change"}, {"time": 3694, "annotation": {"number": 64, "value": 0}, "group": "control_change"}, {"time": 3697, "annotation": {"number": 64, "value": 127}, "group": "control_change"}, {"time": 3718, "annotation": {"number": 64, "value": 0}, "group": "control_change"}, {"time": 3720, "annotation": {"number": 64, "value": 127}, "group": "control_change"}, {"time": 3778, "annotation": {"number": 64, "value": 0}, "group": "control_change"}, {"time": 3780, "annotation": {"number": 64, "value": 127}, "group": "control_change"}, {"time": 3814, "annotation": {"number": 64, "value": 0}, "group": "control_change"}, {"time": 3817, "annotation": {"number": 64, "value": 127}, "group": "control_change"}, {"time": 3863, "annotation": {"number": 64, "value": 0}, "group": "control_change"}, {"time": 3866, "annotation": {"number": 64, "value": 127}, "group": "control_change"}, {"time": 3887, "annotation": {"number": 64, "value": 0}, "group": "control_change"}, {"time": 3891, "annotation": {"number": 64, "value": 127}, "group": "control_change"}, {"time": 3909, "annotation": {"number": 64, "value": 0}, "group": "control_change"}, {"time": 3914, "annotation": {"number": 64, "value": 127}, "group": "control_change"}, {"time": 3923, "annotation": {"number": 64, "value": 0}, "group": "control_change"}, {"time": 3927, "annotation": {"number": 64, "value": 127}, "group": "control_change"}, {"time": 3933, "annotation": {"number": 64, "value": 0}, "group": "control_change"}, {"time": 3937, "annotation": {"number": 64, "value": 127}, "group": "control_change"}, {"time": 3959, "annotation": {"number": 64, "value": 0}, "group": "control_change"}, {"time": 3962, "annotation": {"number": 64, "value": 127}, "group": "control_change"}, {"time": 3971, "annotation": {"number": 64, "value": 0}, "group": "control_change"}, {"time": 3974, "annotation": {"number": 64, "value": 127}, "group": "control_change"}, {"time": 4043, "annotation": {"number": 64, "value": 0}, "group": "control_change"}, {"time": 4045, "annotation": {"number": 64, "value": 127}, "group": "control_change"}, {"time": 4052, "annotation": {"number": 64, "value": 0}, "group": "control_change"}, {"time": 4057, "annotation": {"number": 64, "value": 127}, "group": "control_change"}, {"time": 4067, "annotation": {"number": 64, "value": 0}, "group": "control_change"}, {"time": 4070, "annotation": {"number": 64, "value": 127}, "group": "control_change"}, {"time": 4078, "annotation": {"number": 64, "value": 0}, "group": "control_change"}, {"time": 4081, "annotation": {"number": 64, "value": 127}, "group": "control_change"}, {"time": 4091, "annotation": {"number": 64, "value": 0}, "group": "control_change"}, {"time": 4094, "annotation": {"number": 64, "value": 127}, "group": "control_change"}, {"time": 4102, "annotation": {"number": 64, "value": 0}, "group": "control_change"}, {"time": 4105, "annotation": {"number": 64, "value": 127}, "group": "control_change"}, {"time": 4110, "annotation": {"number": 64, "value": 127}, "group": "control_change"}, {"time": 4114, "annotation": {"number": 64, "value": 0}, "group": "control_change"}, {"time": 4118, "annotation": {"number": 64, "value": 127}, "group": "control_change"}, {"time": 4121, "annotation": {"number": 64, "value": 0}, "group": "control_change"}, {"time": 4122, "annotation": {"number": 64, "value": 0}, "group": "control_change"}, {"time": 4129, "annotation": {"number": 64, "value": 127}, "group": "control_change"}, {"time": 4135, "annotation": {"number": 64, "value": 0}, "group": "control_change"}, {"time": 4190, "annotation": {"number": 64, "value": 127}, "group": "control_change"}, {"time": 4192, "annotation": {"number": 64, "value": 0}, "group": "control_change"}, {"time": 4250, "annotation": {"number": 64, "value": 127}, "group": "control_change"}, {"time": 4251, "annotation": {"number": 64, "value": 0}, "group": "control_change"}, {"time": 4254, "annotation": {"number": 64, "value": 127}, "group": "control_change"}, {"time": 4258, "annotation": {"number": 64, "value": 0}, "group": "control_change"}, {"time": 4262, "annotation": {"number": 64, "value": 127}, "group": "control_change"}, {"time": 4263, "annotation": {"number": 64, "value": 0}, "group": "control_change"}, {"time": 4266, "annotation": {"number": 64, "value": 127}, "group": "control_change"}, {"time": 4268, "annotation": {"number": 64, "value": 0}, "group": "control_change"}, {"time": 4269, "annotation": {"number": 64, "value": 127}, "group": "control_change"}, {"time": 4269, "annotation": {"number": 64, "value": 0}, "group": "control_change"}, {"time": 4273, "annotation": {"number": 64, "value": 127}, "group": "control_change"}, {"time": 4284, "annotation": {"number": 64, "value": 0}, "group": "control_change"}, {"time": 4334, "annotation": {"number": 64, "value": 127}, "group": "control_change"}, {"time": 4335, "annotation": {"number": 64, "value": 0}, "group": "control_change"}, {"time": 4346, "annotation": {"number": 64, "value": 127}, "group": "control_change"}, {"time": 4348, "annotation": {"number": 64, "value": 0}, "group": "control_change"}, {"time": 4371, "annotation": {"number": 64, "value": 127}, "group": "control_change"}, {"time": 4373, "annotation": {"number": 64, "value": 0}, "group": "control_change"}, {"time": 4430, "annotation": {"number": 64, "value": 127}, "group": "control_change"}, {"time": 4432, "annotation": {"number": 64, "value": 0}, "group": "control_change"}, {"time": 4478, "annotation": {"number": 64, "value": 127}, "group": "control_change"}, {"time": 4480, "annotation": {"number": 64, "value": 0}, "group": "control_change"}, {"time": 4527, "annotation": {"number": 64, "value": 127}, "group": "control_change"}, {"time": 4527, "annotation": {"number": 64, "value": 0}, "group": "control_change"}, {"time": 4539, "annotation": {"number": 64, "value": 127}, "group": "control_change"}, {"time": 4540, "annotation": {"number": 64, "value": 0}, "group": "control_change"}, {"time": 4562, "annotation": {"number": 64, "value": 127}, "group": "control_change"}, {"time": 4565, "annotation": {"number": 64, "value": 0}, "group": "control_change"}, {"time": 4594, "annotation": {"number": 64, "value": 127}, "group": "control_change"}, {"time": 4626, "annotation": {"number": 64, "value": 0}, "group": "control_change"}, {"time": 4635, "annotation": {"number": 64, "value": 127}, "group": "control_change"}, {"time": 4638, "annotation": {"number": 64, "value": 0}, "group": "control_change"}, {"time": 4646, "annotation": {"number": 64, "value": 127}, "group": "control_change"}, {"time": 4665, "annotation": {"number": 64, "value": 0}, "group": "control_change"}, {"time": 4669, "annotation": {"number": 64, "value": 127}, "group": "control_change"}, {"time": 4679, "annotation": {"number": 64, "value": 0}, "group": "control_change"}, {"time": 4681, "annotation": {"number": 64, "value": 127}, "group": "control_change"}, {"time": 4682, "annotation": {"number": 64, "value": 0}, "group": "control_change"}, {"time": 4693, "annotation": {"number": 64, "value": 127}, "group": "control_change"}, {"time": 4704, "annotation": {"number": 64, "value": 0}, "group": "control_change"}, {"time": 4705, "annotation": {"number": 64, "value": 127}, "group": "control_change"}, {"time": 4717, "annotation": {"number": 64, "value": 0}, "group": "control_change"}, {"time": 4718, "annotation": {"number": 64, "value": 127}, "group": "control_change"}, {"time": 4727, "annotation": {"number": 64, "value": 0}, "group": "control_change"}, {"time": 4730, "annotation": {"number": 64, "value": 127}, "group": "control_change"}, {"time": 4731, "annotation": {"number": 64, "value": 0}, "group": "control_change"}, {"time": 4734, "annotation": {"number": 64, "value": 127}, "group": "control_change"}, {"time": 4736, "annotation": {"number": 64, "value": 0}, "group": "control_change"}, {"time": 4742, "annotation": {"number": 64, "value": 127}, "group": "control_change"}, {"time": 4749, "annotation": {"number": 64, "value": 0}, "group": "control_change"}, {"time": 4755, "annotation": {"number": 64, "value": 127}, "group": "control_change"}, {"time": 4765, "annotation": {"number": 64, "value": 0}, "group": "control_change"}, {"time": 4766, "annotation": {"number": 64, "value": 127}, "group": "control_change"}, {"time": 4769, "annotation": {"number": 64, "value": 0}, "group": "control_change"}, {"time": 4770, "annotation": {"number": 64, "value": 127}, "group": "control_change"}, {"time": 4772, "annotation": {"number": 64, "value": 0}, "group": "control_change"}, {"time": 4779, "annotation": {"number": 64, "value": 127}, "group": "control_change"}, {"time": 4782, "annotation": {"number": 64, "value": 0}, "group": "control_change"}, {"time": 4789, "annotation": {"number": 64, "value": 127}, "group": "control_change"}, {"time": 4796, "annotation": {"number": 64, "value": 0}, "group": "control_change"}, {"time": 4802, "annotation": {"number": 64, "value": 127}, "group": "control_change"}, {"time": 4805, "annotation": {"number": 64, "value": 0}, "group": "control_change"}, {"time": 4814, "annotation": {"number": 64, "value": 127}, "group": "control_change"}, {"time": 4817, "annotation": {"number": 64, "value": 0}, "group": "control_change"}, {"time": 4826, "annotation": {"number": 64, "value": 127}, "group": "control_change"}, {"time": 4831, "annotation": {"number": 64, "value": 0}, "group": "control_change"}, {"time": 4838, "annotation": {"number": 64, "value": 127}, "group": "control_change"}, {"time": 4844, "annotation": {"number": 64, "value": 0}, "group": "control_change"}, {"time": 4852, "annotation": {"number": 64, "value": 127}, "group": "control_change"}, {"time": 4853, "annotation": {"number": 64, "value": 0}, "group": "control_change"}, {"time": 4864, "annotation": {"number": 64, "value": 127}, "group": "control_change"}, {"time": 4865, "annotation": {"number": 64, "value": 0}, "group": "control_change"}, {"time": 4923, "annotation": {"number": 64, "value": 127}, "group": "control_change"}, {"time": 4931, "annotation": {"number": 64, "value": 0}, "group": "control_change"}, {"time": 4934, "annotation": {"number": 64, "value": 127}, "group": "control_change"}, {"time": 4942, "annotation": {"number": 64, "value": 0}, "group": "control_change"}, {"time": 4945, "annotation": {"number": 64, "value": 127}, "group": "control_change"}, {"time": 4955, "annotation": {"number": 64, "value": 0}, "group": "control_change"}, {"time": 4958, "annotation": {"number": 64, "value": 127}, "group": "control_change"}, {"time": 4966, "annotation": {"number": 64, "value": 0}, "group": "control_change"}, {"time": 4969, "annotation": {"number": 64, "value": 127}, "group": "control_change"}, {"time": 4979, "annotation": {"number": 64, "value": 0}, "group": "control_change"}, {"time": 4982, "annotation": {"number": 64, "value": 127}, "group": "control_change"}, {"time": 4992, "annotation": {"number": 64, "value": 0}, "group": "control_change"}, {"time": 4994, "annotation": {"number": 64, "value": 127}, "group": "control_change"}, {"time": 5003, "annotation": {"number": 64, "value": 0}, "group": "control_change"}, {"time": 5006, "annotation": {"number": 64, "value": 127}, "group": "control_change"}, {"time": 5015, "annotation": {"number": 64, "value": 0}, "group": "control_change"}, {"time": 5018, "annotation": {"number": 64, "value": 127}, "group": "control_change"}, {"time": 5026, "annotation": {"number": 64, "value": 0}, "group": "control_change"}, {"time": 5030, "annotation": {"number": 64, "value": 127}, "group": "control_change"}, {"time": 5038, "annotation": {"number": 64, "value": 0}, "group": "control_change"}, {"time": 5041, "annotation": {"number": 64, "value": 127}, "group": "control_change"}, {"time": 5051, "annotation": {"number": 64, "value": 0}, "group": "control_change"}, {"time": 5054, "annotation": {"number": 64, "value": 127}, "group": "control_change"}, {"time": 5063, "annotation": {"number": 64, "value": 0}, "group": "control_change"}, {"time": 5066, "annotation": {"number": 64, "value": 127}, "group": "control_change"}, {"time": 5075, "annotation": {"number": 64, "value": 0}, "group": "control_change"}, {"time": 5078, "annotation": {"number": 64, "value": 127}, "group": "control_change"}, {"time": 5087, "annotation": {"number": 64, "value": 0}, "group": "control_change"}, {"time": 5090, "annotation": {"number": 64, "value": 127}, "group": "control_change"}, {"time": 5099, "annotation": {"number": 64, "value": 0}, "group": "control_change"}, {"time": 5102, "annotation": {"number": 64, "value": 127}, "group": "control_change"}, {"time": 5111, "annotation": {"number": 64, "value": 0}, "group": "control_change"}, {"time": 5114, "annotation": {"number": 64, "value": 127}, "group": "control_change"}, {"time": 5123, "annotation": {"number": 64, "value": 0}, "group": "control_change"}, {"time": 5126, "annotation": {"number": 64, "value": 127}, "group": "control_change"}, {"time": 5134, "annotation": {"number": 64, "value": 0}, "group": "control_change"}, {"time": 5137, "annotation": {"number": 64, "value": 127}, "group": "control_change"}, {"time": 5147, "annotation": {"number": 64, "value": 0}, "group": "control_change"}, {"time": 5150, "annotation": {"number": 64, "value": 127}, "group": "control_change"}, {"time": 5159, "annotation": {"number": 64, "value": 0}, "group": "control_change"}, {"time": 5162, "annotation": {"number": 64, "value": 127}, "group": "control_change"}, {"time": 5164, "annotation": {"number": 64, "value": 0}, "group": "control_change"}, {"time": 5166, "annotation": {"number": 64, "value": 127}, "group": "control_change"}, {"time": 5170, "annotation": {"number": 64, "value": 0}, "group": "control_change"}, {"time": 5174, "annotation": {"number": 64, "value": 127}, "group": "control_change"}, {"time": 5175, "annotation": {"number": 64, "value": 0}, "group": "control_change"}, {"time": 5178, "annotation": {"number": 64, "value": 127}, "group": "control_change"}, {"time": 5183, "annotation": {"number": 64, "value": 0}, "group": "control_change"}, {"time": 5185, "annotation": {"number": 64, "value": 127}, "group": "control_change"}, {"time": 5207, "annotation": {"number": 64, "value": 0}, "group": "control_change"}, {"time": 5210, "annotation": {"number": 64, "value": 127}, "group": "control_change"}, {"time": 5212, "annotation": {"number": 64, "value": 0}, "group": "control_change"}, {"time": 5214, "annotation": {"number": 64, "value": 127}, "group": "control_change"}, {"time": 5219, "annotation": {"number": 64, "value": 0}, "group": "control_change"}, {"time": 5222, "annotation": {"number": 64, "value": 127}, "group": "control_change"}, {"time": 5230, "annotation": {"number": 64, "value": 0}, "group": "control_change"}, {"time": 5233, "annotation": {"number": 64, "value": 127}, "group": "control_change"}, {"time": 5242, "annotation": {"number": 64, "value": 0}, "group": "control_change"}, {"time": 5245, "annotation": {"number": 64, "value": 127}, "group": "control_change"}, {"time": 5248, "annotation": {"number": 64, "value": 0}, "group": "control_change"}, {"time": 5249, "annotation": {"number": 64, "value": 127}, "group": "control_change"}, {"time": 5255, "annotation": {"number": 64, "value": 0}, "group": "control_change"}, {"time": 5258, "annotation": {"number": 64, "value": 127}, "group": "control_change"}, {"time": 5266, "annotation": {"number": 64, "value": 0}, "group": "control_change"}, {"time": 5269, "annotation": {"number": 64, "value": 127}, "group": "control_change"}, {"time": 5271, "annotation": {"number": 64, "value": 0}, "group": "control_change"}, {"time": 5273, "annotation": {"number": 64, "value": 127}, "group": "control_change"}, {"time": 5279, "annotation": {"number": 64, "value": 0}, "group": "control_change"}, {"time": 5282, "annotation": {"number": 64, "value": 127}, "group": "control_change"}, {"time": 5292, "annotation": {"number": 64, "value": 0}, "group": "control_change"}, {"time": 5295, "annotation": {"number": 64, "value": 127}, "group": "control_change"}, {"time": 5302, "annotation": {"number": 64, "value": 0}, "group": "control_change"}, {"time": 5416, "annotation": {"number": 64, "value": 127}, "group": "control_change"}, {"time": 5425, "annotation": {"number": 64, "value": 0}, "group": "control_change"}, {"time": 5427, "annotation": {"number": 64, "value": 127}, "group": "control_change"}, {"time": 5429, "annotation": {"number": 64, "value": 0}, "group": "control_change"}]}]}