{"metadata": {"schema_version": "0.2", "title": "None", "source_filename": "455.mid", "source_format": "midi"}, "resolution": 12, "tempos": [{"time": 0, "qpm": 72.00011520018433}, {"time": 300, "qpm": 73.00007178340392}, {"time": 360, "qpm": 75.99996960001216}, {"time": 384, "qpm": 72.50001812500453}, {"time": 468, "qpm": 73.00007178340392}, {"time": 540, "qpm": 75.0}, {"time": 576, "qpm": 73.00007178340392}, {"time": 744, "qpm": 72.00011520018433}, {"time": 756, "qpm": 73.00007178340392}, {"time": 1248, "qpm": 73.99998273333736}, {"time": 1344, "qpm": 73.00007178340392}, {"time": 1500, "qpm": 72.00011520018433}, {"time": 1536, "qpm": 72.50001812500453}, {"time": 1740, "qpm": 73.00007178340392}, {"time": 1752, "qpm": 73.99998273333736}, {"time": 1860, "qpm": 73.00007178340392}, {"time": 1920, "qpm": 72.50001812500453}, {"time": 1968, "qpm": 73.00007178340392}], "time_signatures": [{"time": 0, "numerator": 1, "denominator": 4}], "tracks": [{"program": 4, "is_drum": false, "name": "MELODY", "notes": [{"time": 9, "pitch": 52, "duration": 6, "velocity": 81}, {"time": 15, "pitch": 55, "duration": 7, "velocity": 89}, {"time": 22, "pitch": 52, "duration": 6, "velocity": 83}, {"time": 28, "pitch": 59, "duration": 6, "velocity": 90}, {"time": 34, "pitch": 57, "duration": 25, "velocity": 93}, {"time": 59, "pitch": 50, "duration": 6, "velocity": 72}, {"time": 65, "pitch": 54, "duration": 6, "velocity": 99}, {"time": 71, "pitch": 50, "duration": 5, "velocity": 82}, {"time": 76, "pitch": 57, "duration": 7, "velocity": 83}, {"time": 82, "pitch": 55, "duration": 22, "velocity": 72}, {"time": 103, "pitch": 52, "duration": 6, "velocity": 100}, {"time": 109, "pitch": 60, "duration": 6, "velocity": 99}, {"time": 115, "pitch": 59, "duration": 6, "velocity": 102}, {"time": 121, "pitch": 55, "duration": 6, "velocity": 96}, {"time": 127, "pitch": 52, "duration": 7, "velocity": 92}, {"time": 134, "pitch": 55, "duration": 12, "velocity": 95}, {"time": 146, "pitch": 57, "duration": 11, "velocity": 100}, {"time": 156, "pitch": 55, "duration": 30, "velocity": 83}, {"time": 383, "pitch": 52, "duration": 6, "velocity": 92}, {"time": 389, "pitch": 55, "duration": 7, "velocity": 112}, {"time": 395, "pitch": 52, "duration": 6, "velocity": 95}, {"time": 401, "pitch": 59, "duration": 7, "velocity": 102}, {"time": 407, "pitch": 57, "duration": 24, "velocity": 107}, {"time": 431, "pitch": 50, "duration": 6, "velocity": 92}, {"time": 437, "pitch": 54, "duration": 6, "velocity": 112}, {"time": 443, "pitch": 50, "duration": 6, "velocity": 100}, {"time": 449, "pitch": 57, "duration": 6, "velocity": 107}, {"time": 455, "pitch": 55, "duration": 24, "velocity": 117}, {"time": 479, "pitch": 52, "duration": 6, "velocity": 90}, {"time": 485, "pitch": 55, "duration": 6, "velocity": 97}, {"time": 491, "pitch": 52, "duration": 3, "velocity": 86}, {"time": 494, "pitch": 59, "duration": 9, "velocity": 100}, {"time": 503, "pitch": 57, "duration": 6, "velocity": 100}, {"time": 509, "pitch": 57, "duration": 6, "velocity": 112}, {"time": 515, "pitch": 55, "duration": 6, "velocity": 90}, {"time": 521, "pitch": 57, "duration": 12, "velocity": 100}, {"time": 533, "pitch": 62, "duration": 12, "velocity": 99}, {"time": 545, "pitch": 59, "duration": 30, "velocity": 96}, {"time": 575, "pitch": 52, "duration": 6, "velocity": 89}, {"time": 581, "pitch": 55, "duration": 6, "velocity": 99}, {"time": 587, "pitch": 52, "duration": 6, "velocity": 93}, {"time": 593, "pitch": 59, "duration": 6, "velocity": 107}, {"time": 599, "pitch": 57, "duration": 24, "velocity": 122}, {"time": 623, "pitch": 50, "duration": 6, "velocity": 93}, {"time": 629, "pitch": 54, "duration": 6, "velocity": 100}, {"time": 635, "pitch": 50, "duration": 6, "velocity": 95}, {"time": 641, "pitch": 57, "duration": 6, "velocity": 102}, {"time": 647, "pitch": 55, "duration": 12, "velocity": 107}, {"time": 659, "pitch": 52, "duration": 6, "velocity": 93}, {"time": 665, "pitch": 60, "duration": 6, "velocity": 102}, {"time": 671, "pitch": 59, "duration": 6, "velocity": 100}, {"time": 677, "pitch": 55, "duration": 6, "velocity": 102}, {"time": 683, "pitch": 52, "duration": 6, "velocity": 92}, {"time": 689, "pitch": 55, "duration": 12, "velocity": 99}, {"time": 701, "pitch": 57, "duration": 9, "velocity": 112}, {"time": 710, "pitch": 57, "duration": 8, "velocity": 102}, {"time": 716, "pitch": 55, "duration": 51, "velocity": 75}, {"time": 767, "pitch": 60, "duration": 6, "velocity": 99}, {"time": 773, "pitch": 60, "duration": 6, "velocity": 112}, {"time": 779, "pitch": 59, "duration": 6, "velocity": 86}, {"time": 785, "pitch": 59, "duration": 7, "velocity": 100}, {"time": 791, "pitch": 57, "duration": 24, "velocity": 93}, {"time": 815, "pitch": 57, "duration": 6, "velocity": 93}, {"time": 821, "pitch": 62, "duration": 6, "velocity": 100}, {"time": 827, "pitch": 57, "duration": 6, "velocity": 97}, {"time": 833, "pitch": 59, "duration": 6, "velocity": 99}, {"time": 839, "pitch": 59, "duration": 10, "velocity": 96}, {"time": 845, "pitch": 55, "duration": 18, "velocity": 96}, {"time": 863, "pitch": 60, "duration": 6, "velocity": 122}, {"time": 869, "pitch": 60, "duration": 6, "velocity": 112}, {"time": 875, "pitch": 59, "duration": 6, "velocity": 86}, {"time": 881, "pitch": 59, "duration": 6, "velocity": 122}, {"time": 887, "pitch": 57, "duration": 6, "velocity": 82}, {"time": 893, "pitch": 57, "duration": 6, "velocity": 100}, {"time": 899, "pitch": 55, "duration": 6, "velocity": 89}, {"time": 902, "pitch": 57, "duration": 3, "velocity": 92}, {"time": 905, "pitch": 59, "duration": 12, "velocity": 112}, {"time": 917, "pitch": 59, "duration": 6, "velocity": 122}, {"time": 923, "pitch": 60, "duration": 6, "velocity": 97}, {"time": 929, "pitch": 60, "duration": 7, "velocity": 117}, {"time": 935, "pitch": 59, "duration": 24, "velocity": 97}, {"time": 959, "pitch": 64, "duration": 6, "velocity": 127}, {"time": 965, "pitch": 64, "duration": 6, "velocity": 112}, {"time": 971, "pitch": 64, "duration": 6, "velocity": 112}, {"time": 977, "pitch": 64, "duration": 6, "velocity": 112}, {"time": 983, "pitch": 62, "duration": 6, "velocity": 100}, {"time": 989, "pitch": 57, "duration": 6, "velocity": 97}, {"time": 995, "pitch": 60, "duration": 6, "velocity": 122}, {"time": 1001, "pitch": 59, "duration": 12, "velocity": 117}, {"time": 1013, "pitch": 57, "duration": 12, "velocity": 100}, {"time": 1025, "pitch": 56, "duration": 21, "velocity": 107}, {"time": 1046, "pitch": 52, "duration": 4, "velocity": 85}, {"time": 1049, "pitch": 59, "duration": 7, "velocity": 95}, {"time": 1055, "pitch": 55, "duration": 6, "velocity": 83}, {"time": 1061, "pitch": 55, "duration": 30, "velocity": 83}, {"time": 1091, "pitch": 62, "duration": 6, "velocity": 102}, {"time": 1097, "pitch": 59, "duration": 6, "velocity": 100}, {"time": 1103, "pitch": 59, "duration": 6, "velocity": 74}, {"time": 1109, "pitch": 57, "duration": 42, "velocity": 85}, {"time": 1151, "pitch": 52, "duration": 6, "velocity": 97}, {"time": 1157, "pitch": 55, "duration": 6, "velocity": 100}, {"time": 1163, "pitch": 52, "duration": 6, "velocity": 100}, {"time": 1169, "pitch": 59, "duration": 6, "velocity": 127}, {"time": 1175, "pitch": 57, "duration": 24, "velocity": 127}, {"time": 1199, "pitch": 50, "duration": 6, "velocity": 90}, {"time": 1205, "pitch": 54, "duration": 6, "velocity": 107}, {"time": 1211, "pitch": 50, "duration": 6, "velocity": 96}, {"time": 1217, "pitch": 57, "duration": 9, "velocity": 112}, {"time": 1226, "pitch": 55, "duration": 21, "velocity": 102}, {"time": 1247, "pitch": 52, "duration": 6, "velocity": 92}, {"time": 1253, "pitch": 55, "duration": 6, "velocity": 99}, {"time": 1259, "pitch": 52, "duration": 3, "velocity": 97}, {"time": 1262, "pitch": 59, "duration": 9, "velocity": 100}, {"time": 1271, "pitch": 57, "duration": 6, "velocity": 112}, {"time": 1277, "pitch": 57, "duration": 6, "velocity": 112}, {"time": 1283, "pitch": 55, "duration": 6, "velocity": 97}, {"time": 1289, "pitch": 57, "duration": 12, "velocity": 127}, {"time": 1301, "pitch": 62, "duration": 12, "velocity": 127}, {"time": 1313, "pitch": 59, "duration": 30, "velocity": 117}, {"time": 1343, "pitch": 64, "duration": 6, "velocity": 127}, {"time": 1349, "pitch": 64, "duration": 6, "velocity": 127}, {"time": 1355, "pitch": 64, "duration": 6, "velocity": 100}, {"time": 1361, "pitch": 64, "duration": 7, "velocity": 122}, {"time": 1367, "pitch": 62, "duration": 12, "velocity": 107}, {"time": 1379, "pitch": 57, "duration": 6, "velocity": 122}, {"time": 1385, "pitch": 62, "duration": 6, "velocity": 117}, {"time": 1391, "pitch": 57, "duration": 6, "velocity": 112}, {"time": 1397, "pitch": 59, "duration": 6, "velocity": 107}, {"time": 1403, "pitch": 59, "duration": 12, "velocity": 107}, {"time": 1415, "pitch": 55, "duration": 14, "velocity": 77}, {"time": 1427, "pitch": 52, "duration": 6, "velocity": 97}, {"time": 1433, "pitch": 60, "duration": 6, "velocity": 100}, {"time": 1439, "pitch": 59, "duration": 6, "velocity": 100}, {"time": 1445, "pitch": 55, "duration": 6, "velocity": 117}, {"time": 1451, "pitch": 52, "duration": 6, "velocity": 97}, {"time": 1457, "pitch": 55, "duration": 12, "velocity": 99}, {"time": 1469, "pitch": 57, "duration": 13, "velocity": 99}, {"time": 1481, "pitch": 55, "duration": 43, "velocity": 92}, {"time": 1919, "pitch": 60, "duration": 6, "velocity": 99}, {"time": 1925, "pitch": 60, "duration": 6, "velocity": 112}, {"time": 1931, "pitch": 59, "duration": 6, "velocity": 86}, {"time": 1937, "pitch": 59, "duration": 7, "velocity": 100}, {"time": 1943, "pitch": 57, "duration": 24, "velocity": 93}, {"time": 1967, "pitch": 57, "duration": 6, "velocity": 93}, {"time": 1973, "pitch": 62, "duration": 6, "velocity": 100}, {"time": 1979, "pitch": 57, "duration": 6, "velocity": 97}, {"time": 1985, "pitch": 59, "duration": 6, "velocity": 99}, {"time": 1991, "pitch": 59, "duration": 10, "velocity": 96}, {"time": 1997, "pitch": 55, "duration": 18, "velocity": 96}, {"time": 2015, "pitch": 60, "duration": 6, "velocity": 122}, {"time": 2021, "pitch": 60, "duration": 6, "velocity": 112}, {"time": 2027, "pitch": 59, "duration": 6, "velocity": 86}, {"time": 2033, "pitch": 59, "duration": 6, "velocity": 122}, {"time": 2039, "pitch": 57, "duration": 6, "velocity": 82}, {"time": 2045, "pitch": 57, "duration": 6, "velocity": 100}, {"time": 2051, "pitch": 55, "duration": 6, "velocity": 89}, {"time": 2054, "pitch": 57, "duration": 3, "velocity": 92}, {"time": 2057, "pitch": 59, "duration": 12, "velocity": 112}, {"time": 2069, "pitch": 59, "duration": 6, "velocity": 122}, {"time": 2075, "pitch": 60, "duration": 6, "velocity": 97}, {"time": 2081, "pitch": 60, "duration": 7, "velocity": 117}, {"time": 2087, "pitch": 59, "duration": 24, "velocity": 97}, {"time": 2111, "pitch": 64, "duration": 6, "velocity": 127}, {"time": 2117, "pitch": 64, "duration": 6, "velocity": 112}, {"time": 2123, "pitch": 64, "duration": 6, "velocity": 112}, {"time": 2129, "pitch": 64, "duration": 6, "velocity": 112}, {"time": 2135, "pitch": 62, "duration": 6, "velocity": 100}, {"time": 2141, "pitch": 57, "duration": 6, "velocity": 97}, {"time": 2147, "pitch": 60, "duration": 6, "velocity": 122}, {"time": 2153, "pitch": 59, "duration": 12, "velocity": 117}, {"time": 2165, "pitch": 57, "duration": 12, "velocity": 100}, {"time": 2177, "pitch": 56, "duration": 21, "velocity": 107}, {"time": 2198, "pitch": 52, "duration": 4, "velocity": 85}, {"time": 2201, "pitch": 59, "duration": 7, "velocity": 95}, {"time": 2207, "pitch": 55, "duration": 6, "velocity": 83}, {"time": 2213, "pitch": 55, "duration": 30, "velocity": 83}, {"time": 2243, "pitch": 62, "duration": 6, "velocity": 102}, {"time": 2249, "pitch": 59, "duration": 6, "velocity": 100}, {"time": 2255, "pitch": 59, "duration": 6, "velocity": 74}, {"time": 2261, "pitch": 57, "duration": 42, "velocity": 85}, {"time": 2303, "pitch": 52, "duration": 6, "velocity": 97}, {"time": 2309, "pitch": 55, "duration": 6, "velocity": 100}, {"time": 2315, "pitch": 52, "duration": 6, "velocity": 100}, {"time": 2321, "pitch": 59, "duration": 6, "velocity": 127}, {"time": 2327, "pitch": 57, "duration": 24, "velocity": 127}, {"time": 2351, "pitch": 50, "duration": 6, "velocity": 90}, {"time": 2357, "pitch": 54, "duration": 6, "velocity": 107}, {"time": 2363, "pitch": 50, "duration": 6, "velocity": 96}, {"time": 2369, "pitch": 57, "duration": 9, "velocity": 112}, {"time": 2378, "pitch": 55, "duration": 21, "velocity": 102}, {"time": 2399, "pitch": 52, "duration": 6, "velocity": 92}, {"time": 2405, "pitch": 55, "duration": 6, "velocity": 99}, {"time": 2411, "pitch": 52, "duration": 3, "velocity": 97}, {"time": 2414, "pitch": 59, "duration": 9, "velocity": 100}, {"time": 2423, "pitch": 57, "duration": 6, "velocity": 112}, {"time": 2429, "pitch": 57, "duration": 6, "velocity": 112}, {"time": 2435, "pitch": 55, "duration": 6, "velocity": 97}, {"time": 2441, "pitch": 57, "duration": 12, "velocity": 127}, {"time": 2453, "pitch": 62, "duration": 12, "velocity": 127}, {"time": 2465, "pitch": 59, "duration": 30, "velocity": 117}, {"time": 2495, "pitch": 64, "duration": 6, "velocity": 127}, {"time": 2501, "pitch": 64, "duration": 6, "velocity": 127}, {"time": 2507, "pitch": 64, "duration": 6, "velocity": 100}, {"time": 2513, "pitch": 64, "duration": 7, "velocity": 122}, {"time": 2519, "pitch": 62, "duration": 12, "velocity": 107}, {"time": 2531, "pitch": 57, "duration": 6, "velocity": 122}, {"time": 2537, "pitch": 62, "duration": 6, "velocity": 117}, {"time": 2543, "pitch": 57, "duration": 6, "velocity": 112}, {"time": 2549, "pitch": 59, "duration": 6, "velocity": 107}, {"time": 2555, "pitch": 59, "duration": 12, "velocity": 107}, {"time": 2567, "pitch": 55, "duration": 14, "velocity": 77}, {"time": 2579, "pitch": 52, "duration": 6, "velocity": 97}, {"time": 2585, "pitch": 60, "duration": 6, "velocity": 100}, {"time": 2591, "pitch": 59, "duration": 6, "velocity": 100}, {"time": 2597, "pitch": 55, "duration": 6, "velocity": 117}, {"time": 2603, "pitch": 52, "duration": 6, "velocity": 97}, {"time": 2609, "pitch": 55, "duration": 12, "velocity": 99}, {"time": 2621, "pitch": 57, "duration": 13, "velocity": 99}, {"time": 2633, "pitch": 55, "duration": 52, "velocity": 92}, {"time": 2685, "pitch": 52, "duration": 7, "velocity": 70}, {"time": 2692, "pitch": 60, "duration": 7, "velocity": 102}, {"time": 2699, "pitch": 59, "duration": 8, "velocity": 117}, {"time": 2707, "pitch": 55, "duration": 8, "velocity": 100}, {"time": 2715, "pitch": 52, "duration": 7, "velocity": 96}, {"time": 2722, "pitch": 55, "duration": 14, "velocity": 96}, {"time": 2736, "pitch": 57, "duration": 10, "velocity": 107}, {"time": 2746, "pitch": 55, "duration": 16, "velocity": 97}, {"time": 2762, "pitch": 55, "duration": 58, "velocity": 89}]}, {"program": 0, "is_drum": false, "name": "PIANO", "notes": [{"time": 185, "pitch": 48, "duration": 23, "velocity": 79}, {"time": 191, "pitch": 55, "duration": 19, "velocity": 64}, {"time": 197, "pitch": 67, "duration": 13, "velocity": 90}, {"time": 203, "pitch": 60, "duration": 7, "velocity": 90}, {"time": 209, "pitch": 50, "duration": 17, "velocity": 76}, {"time": 215, "pitch": 57, "duration": 7, "velocity": 64}, {"time": 221, "pitch": 66, "duration": 13, "velocity": 97}, {"time": 227, "pitch": 62, "duration": 8, "velocity": 62}, {"time": 233, "pitch": 47, "duration": 13, "velocity": 72}, {"time": 239, "pitch": 59, "duration": 8, "velocity": 69}, {"time": 245, "pitch": 66, "duration": 12, "velocity": 117}, {"time": 251, "pitch": 59, "duration": 6, "velocity": 81}, {"time": 257, "pitch": 40, "duration": 18, "velocity": 74}, {"time": 263, "pitch": 47, "duration": 12, "velocity": 65}, {"time": 269, "pitch": 52, "duration": 11, "velocity": 63}, {"time": 269, "pitch": 64, "duration": 13, "velocity": 74}, {"time": 275, "pitch": 59, "duration": 7, "velocity": 69}, {"time": 281, "pitch": 45, "duration": 19, "velocity": 85}, {"time": 287, "pitch": 52, "duration": 12, "velocity": 75}, {"time": 293, "pitch": 64, "duration": 11, "velocity": 95}, {"time": 299, "pitch": 60, "duration": 6, "velocity": 81}, {"time": 305, "pitch": 50, "duration": 7, "velocity": 78}, {"time": 311, "pitch": 57, "duration": 13, "velocity": 73}, {"time": 317, "pitch": 66, "duration": 12, "velocity": 102}, {"time": 323, "pitch": 62, "duration": 7, "velocity": 61}, {"time": 326, "pitch": 57, "duration": 4, "velocity": 71}, {"time": 329, "pitch": 43, "duration": 23, "velocity": 73}, {"time": 335, "pitch": 50, "duration": 19, "velocity": 55}, {"time": 341, "pitch": 55, "duration": 6, "velocity": 88}, {"time": 344, "pitch": 62, "duration": 33, "velocity": 35}, {"time": 347, "pitch": 59, "duration": 29, "velocity": 63}, {"time": 353, "pitch": 43, "duration": 20, "velocity": 69}, {"time": 353, "pitch": 55, "duration": 23, "velocity": 43}, {"time": 377, "pitch": 48, "duration": 16, "velocity": 85}, {"time": 383, "pitch": 55, "duration": 9, "velocity": 60}, {"time": 389, "pitch": 67, "duration": 10, "velocity": 95}, {"time": 395, "pitch": 60, "duration": 6, "velocity": 89}, {"time": 401, "pitch": 50, "duration": 13, "velocity": 86}, {"time": 407, "pitch": 57, "duration": 18, "velocity": 72}, {"time": 413, "pitch": 66, "duration": 13, "velocity": 117}, {"time": 419, "pitch": 62, "duration": 9, "velocity": 59}, {"time": 422, "pitch": 54, "duration": 2, "velocity": 31}, {"time": 425, "pitch": 47, "duration": 15, "velocity": 82}, {"time": 431, "pitch": 54, "duration": 7, "velocity": 73}, {"time": 437, "pitch": 66, "duration": 12, "velocity": 122}, {"time": 443, "pitch": 59, "duration": 6, "velocity": 90}, {"time": 449, "pitch": 40, "duration": 19, "velocity": 95}, {"time": 455, "pitch": 47, "duration": 13, "velocity": 53}, {"time": 461, "pitch": 64, "duration": 13, "velocity": 72}, {"time": 467, "pitch": 55, "duration": 6, "velocity": 90}, {"time": 473, "pitch": 45, "duration": 23, "velocity": 77}, {"time": 479, "pitch": 52, "duration": 8, "velocity": 77}, {"time": 485, "pitch": 64, "duration": 12, "velocity": 93}, {"time": 491, "pitch": 60, "duration": 6, "velocity": 78}, {"time": 497, "pitch": 50, "duration": 12, "velocity": 96}, {"time": 503, "pitch": 57, "duration": 8, "velocity": 82}, {"time": 509, "pitch": 66, "duration": 11, "velocity": 122}, {"time": 515, "pitch": 62, "duration": 7, "velocity": 75}, {"time": 521, "pitch": 43, "duration": 46, "velocity": 93}, {"time": 527, "pitch": 50, "duration": 33, "velocity": 65}, {"time": 533, "pitch": 55, "duration": 15, "velocity": 92}, {"time": 539, "pitch": 59, "duration": 18, "velocity": 86}, {"time": 545, "pitch": 65, "duration": 13, "velocity": 95}, {"time": 551, "pitch": 55, "duration": 8, "velocity": 83}, {"time": 557, "pitch": 62, "duration": 12, "velocity": 127}, {"time": 560, "pitch": 50, "duration": 5, "velocity": 70}, {"time": 563, "pitch": 59, "duration": 7, "velocity": 90}, {"time": 569, "pitch": 48, "duration": 15, "velocity": 95}, {"time": 575, "pitch": 55, "duration": 10, "velocity": 82}, {"time": 581, "pitch": 64, "duration": 12, "velocity": 96}, {"time": 587, "pitch": 60, "duration": 6, "velocity": 88}, {"time": 593, "pitch": 50, "duration": 19, "velocity": 99}, {"time": 599, "pitch": 57, "duration": 11, "velocity": 83}, {"time": 605, "pitch": 66, "duration": 12, "velocity": 117}, {"time": 611, "pitch": 62, "duration": 7, "velocity": 77}, {"time": 617, "pitch": 47, "duration": 16, "velocity": 89}, {"time": 623, "pitch": 54, "duration": 9, "velocity": 74}, {"time": 629, "pitch": 66, "duration": 13, "velocity": 122}, {"time": 635, "pitch": 59, "duration": 6, "velocity": 89}, {"time": 641, "pitch": 40, "duration": 18, "velocity": 90}, {"time": 647, "pitch": 47, "duration": 12, "velocity": 56}, {"time": 653, "pitch": 52, "duration": 8, "velocity": 45}, {"time": 653, "pitch": 64, "duration": 13, "velocity": 92}, {"time": 659, "pitch": 59, "duration": 6, "velocity": 92}, {"time": 665, "pitch": 45, "duration": 21, "velocity": 78}, {"time": 671, "pitch": 52, "duration": 8, "velocity": 71}, {"time": 677, "pitch": 64, "duration": 12, "velocity": 107}, {"time": 683, "pitch": 60, "duration": 6, "velocity": 83}, {"time": 689, "pitch": 50, "duration": 15, "velocity": 100}, {"time": 695, "pitch": 57, "duration": 7, "velocity": 74}, {"time": 701, "pitch": 62, "duration": 13, "velocity": 90}, {"time": 701, "pitch": 66, "duration": 12, "velocity": 100}, {"time": 707, "pitch": 57, "duration": 6, "velocity": 82}, {"time": 713, "pitch": 43, "duration": 23, "velocity": 83}, {"time": 719, "pitch": 50, "duration": 19, "velocity": 66}, {"time": 725, "pitch": 55, "duration": 12, "velocity": 93}, {"time": 731, "pitch": 59, "duration": 17, "velocity": 81}, {"time": 737, "pitch": 43, "duration": 18, "velocity": 88}, {"time": 743, "pitch": 50, "duration": 12, "velocity": 51}, {"time": 743, "pitch": 62, "duration": 5, "velocity": 86}, {"time": 743, "pitch": 65, "duration": 5, "velocity": 88}, {"time": 749, "pitch": 55, "duration": 3, "velocity": 85}, {"time": 749, "pitch": 62, "duration": 12, "velocity": 97}, {"time": 749, "pitch": 65, "duration": 12, "velocity": 117}, {"time": 755, "pitch": 59, "duration": 7, "velocity": 100}, {"time": 761, "pitch": 36, "duration": 23, "velocity": 97}, {"time": 764, "pitch": 43, "duration": 21, "velocity": 72}, {"time": 767, "pitch": 48, "duration": 7, "velocity": 79}, {"time": 770, "pitch": 55, "duration": 6, "velocity": 81}, {"time": 773, "pitch": 64, "duration": 11, "velocity": 102}, {"time": 776, "pitch": 48, "duration": 3, "velocity": 86}, {"time": 779, "pitch": 60, "duration": 5, "velocity": 95}, {"time": 782, "pitch": 55, "duration": 4, "velocity": 95}, {"time": 785, "pitch": 38, "duration": 16, "velocity": 85}, {"time": 788, "pitch": 45, "duration": 13, "velocity": 70}, {"time": 791, "pitch": 50, "duration": 7, "velocity": 79}, {"time": 794, "pitch": 57, "duration": 5, "velocity": 100}, {"time": 797, "pitch": 66, "duration": 11, "velocity": 127}, {"time": 800, "pitch": 50, "duration": 3, "velocity": 81}, {"time": 803, "pitch": 62, "duration": 6, "velocity": 99}, {"time": 806, "pitch": 57, "duration": 3, "velocity": 82}, {"time": 809, "pitch": 47, "duration": 18, "velocity": 85}, {"time": 812, "pitch": 54, "duration": 11, "velocity": 82}, {"time": 815, "pitch": 59, "duration": 5, "velocity": 82}, {"time": 818, "pitch": 62, "duration": 3, "velocity": 99}, {"time": 821, "pitch": 66, "duration": 9, "velocity": 107}, {"time": 824, "pitch": 54, "duration": 2, "velocity": 96}, {"time": 827, "pitch": 62, "duration": 4, "velocity": 97}, {"time": 830, "pitch": 59, "duration": 4, "velocity": 97}, {"time": 833, "pitch": 40, "duration": 18, "velocity": 83}, {"time": 836, "pitch": 47, "duration": 15, "velocity": 76}, {"time": 839, "pitch": 52, "duration": 8, "velocity": 89}, {"time": 842, "pitch": 59, "duration": 5, "velocity": 99}, {"time": 845, "pitch": 67, "duration": 12, "velocity": 112}, {"time": 848, "pitch": 52, "duration": 5, "velocity": 79}, {"time": 851, "pitch": 64, "duration": 6, "velocity": 96}, {"time": 854, "pitch": 59, "duration": 4, "velocity": 96}, {"time": 857, "pitch": 45, "duration": 18, "velocity": 76}, {"time": 860, "pitch": 52, "duration": 11, "velocity": 72}, {"time": 863, "pitch": 57, "duration": 3, "velocity": 86}, {"time": 866, "pitch": 60, "duration": 4, "velocity": 100}, {"time": 869, "pitch": 64, "duration": 10, "velocity": 100}, {"time": 872, "pitch": 52, "duration": 2, "velocity": 78}, {"time": 875, "pitch": 60, "duration": 4, "velocity": 112}, {"time": 878, "pitch": 57, "duration": 4, "velocity": 99}, {"time": 881, "pitch": 38, "duration": 18, "velocity": 92}, {"time": 884, "pitch": 45, "duration": 15, "velocity": 83}, {"time": 887, "pitch": 50, "duration": 7, "velocity": 89}, {"time": 890, "pitch": 57, "duration": 5, "velocity": 96}, {"time": 893, "pitch": 66, "duration": 9, "velocity": 127}, {"time": 896, "pitch": 50, "duration": 4, "velocity": 96}, {"time": 899, "pitch": 62, "duration": 6, "velocity": 97}, {"time": 902, "pitch": 57, "duration": 3, "velocity": 97}, {"time": 905, "pitch": 43, "duration": 21, "velocity": 75}, {"time": 908, "pitch": 50, "duration": 21, "velocity": 88}, {"time": 911, "pitch": 55, "duration": 7, "velocity": 93}, {"time": 914, "pitch": 59, "duration": 3, "velocity": 97}, {"time": 917, "pitch": 62, "duration": 7, "velocity": 117}, {"time": 920, "pitch": 55, "duration": 2, "velocity": 92}, {"time": 923, "pitch": 59, "duration": 14, "velocity": 97}, {"time": 926, "pitch": 65, "duration": 2, "velocity": 96}, {"time": 929, "pitch": 43, "duration": 18, "velocity": 93}, {"time": 929, "pitch": 65, "duration": 8, "velocity": 117}, {"time": 932, "pitch": 50, "duration": 10, "velocity": 86}, {"time": 935, "pitch": 55, "duration": 5, "velocity": 99}, {"time": 938, "pitch": 59, "duration": 5, "velocity": 85}, {"time": 941, "pitch": 62, "duration": 8, "velocity": 122}, {"time": 944, "pitch": 50, "duration": 2, "velocity": 92}, {"time": 947, "pitch": 59, "duration": 6, "velocity": 99}, {"time": 950, "pitch": 65, "duration": 3, "velocity": 107}, {"time": 953, "pitch": 36, "duration": 23, "velocity": 93}, {"time": 956, "pitch": 43, "duration": 21, "velocity": 72}, {"time": 959, "pitch": 48, "duration": 7, "velocity": 93}, {"time": 962, "pitch": 55, "duration": 5, "velocity": 95}, {"time": 965, "pitch": 64, "duration": 12, "velocity": 100}, {"time": 968, "pitch": 48, "duration": 3, "velocity": 92}, {"time": 971, "pitch": 60, "duration": 5, "velocity": 66}, {"time": 974, "pitch": 55, "duration": 4, "velocity": 99}, {"time": 977, "pitch": 38, "duration": 17, "velocity": 85}, {"time": 980, "pitch": 45, "duration": 14, "velocity": 82}, {"time": 983, "pitch": 50, "duration": 7, "velocity": 93}, {"time": 986, "pitch": 57, "duration": 5, "velocity": 102}, {"time": 989, "pitch": 66, "duration": 12, "velocity": 127}, {"time": 992, "pitch": 50, "duration": 3, "velocity": 81}, {"time": 995, "pitch": 57, "duration": 4, "velocity": 102}, {"time": 998, "pitch": 62, "duration": 4, "velocity": 100}, {"time": 1001, "pitch": 47, "duration": 17, "velocity": 85}, {"time": 1004, "pitch": 54, "duration": 10, "velocity": 97}, {"time": 1007, "pitch": 59, "duration": 6, "velocity": 90}, {"time": 1010, "pitch": 62, "duration": 3, "velocity": 100}, {"time": 1013, "pitch": 66, "duration": 11, "velocity": 127}, {"time": 1016, "pitch": 54, "duration": 2, "velocity": 93}, {"time": 1019, "pitch": 62, "duration": 5, "velocity": 97}, {"time": 1022, "pitch": 59, "duration": 3, "velocity": 99}, {"time": 1025, "pitch": 40, "duration": 17, "velocity": 82}, {"time": 1028, "pitch": 47, "duration": 15, "velocity": 81}, {"time": 1031, "pitch": 52, "duration": 8, "velocity": 77}, {"time": 1034, "pitch": 56, "duration": 5, "velocity": 88}, {"time": 1037, "pitch": 64, "duration": 12, "velocity": 82}, {"time": 1040, "pitch": 52, "duration": 6, "velocity": 76}, {"time": 1043, "pitch": 56, "duration": 5, "velocity": 86}, {"time": 1046, "pitch": 59, "duration": 3, "velocity": 63}, {"time": 1049, "pitch": 45, "duration": 22, "velocity": 77}, {"time": 1052, "pitch": 52, "duration": 11, "velocity": 72}, {"time": 1055, "pitch": 57, "duration": 4, "velocity": 90}, {"time": 1058, "pitch": 64, "duration": 13, "velocity": 92}, {"time": 1061, "pitch": 60, "duration": 8, "velocity": 92}, {"time": 1064, "pitch": 52, "duration": 9, "velocity": 56}, {"time": 1067, "pitch": 57, "duration": 4, "velocity": 82}, {"time": 1070, "pitch": 60, "duration": 4, "velocity": 63}, {"time": 1073, "pitch": 45, "duration": 18, "velocity": 74}, {"time": 1076, "pitch": 52, "duration": 10, "velocity": 82}, {"time": 1079, "pitch": 57, "duration": 7, "velocity": 59}, {"time": 1082, "pitch": 60, "duration": 3, "velocity": 67}, {"time": 1085, "pitch": 64, "duration": 11, "velocity": 97}, {"time": 1088, "pitch": 52, "duration": 2, "velocity": 82}, {"time": 1091, "pitch": 60, "duration": 5, "velocity": 76}, {"time": 1094, "pitch": 57, "duration": 3, "velocity": 83}, {"time": 1097, "pitch": 38, "duration": 22, "velocity": 89}, {"time": 1100, "pitch": 45, "duration": 21, "velocity": 96}, {"time": 1103, "pitch": 50, "duration": 7, "velocity": 100}, {"time": 1106, "pitch": 57, "duration": 5, "velocity": 95}, {"time": 1109, "pitch": 66, "duration": 7, "velocity": 127}, {"time": 1112, "pitch": 50, "duration": 3, "velocity": 102}, {"time": 1115, "pitch": 57, "duration": 3, "velocity": 100}, {"time": 1118, "pitch": 57, "duration": 2, "velocity": 60}, {"time": 1118, "pitch": 62, "duration": 2, "velocity": 97}, {"time": 1118, "pitch": 66, "duration": 2, "velocity": 117}, {"time": 1121, "pitch": 38, "duration": 17, "velocity": 95}, {"time": 1121, "pitch": 57, "duration": 7, "velocity": 99}, {"time": 1121, "pitch": 62, "duration": 8, "velocity": 107}, {"time": 1121, "pitch": 66, "duration": 9, "velocity": 122}, {"time": 1124, "pitch": 45, "duration": 14, "velocity": 97}, {"time": 1127, "pitch": 50, "duration": 8, "velocity": 96}, {"time": 1130, "pitch": 57, "duration": 3, "velocity": 93}, {"time": 1133, "pitch": 62, "duration": 7, "velocity": 102}, {"time": 1133, "pitch": 66, "duration": 11, "velocity": 127}, {"time": 1136, "pitch": 50, "duration": 2, "velocity": 93}, {"time": 1139, "pitch": 57, "duration": 6, "velocity": 107}, {"time": 1142, "pitch": 62, "duration": 3, "velocity": 97}, {"time": 1145, "pitch": 36, "duration": 18, "velocity": 89}, {"time": 1148, "pitch": 43, "duration": 14, "velocity": 72}, {"time": 1151, "pitch": 48, "duration": 7, "velocity": 95}, {"time": 1154, "pitch": 55, "duration": 5, "velocity": 93}, {"time": 1157, "pitch": 64, "duration": 11, "velocity": 112}, {"time": 1160, "pitch": 48, "duration": 3, "velocity": 96}, {"time": 1163, "pitch": 60, "duration": 5, "velocity": 107}, {"time": 1166, "pitch": 55, "duration": 4, "velocity": 100}, {"time": 1169, "pitch": 38, "duration": 17, "velocity": 96}, {"time": 1172, "pitch": 45, "duration": 14, "velocity": 88}, {"time": 1175, "pitch": 50, "duration": 7, "velocity": 99}, {"time": 1178, "pitch": 57, "duration": 5, "velocity": 97}, {"time": 1181, "pitch": 66, "duration": 11, "velocity": 127}, {"time": 1184, "pitch": 50, "duration": 2, "velocity": 99}, {"time": 1187, "pitch": 62, "duration": 6, "velocity": 95}, {"time": 1190, "pitch": 57, "duration": 3, "velocity": 89}, {"time": 1193, "pitch": 47, "duration": 18, "velocity": 77}, {"time": 1196, "pitch": 54, "duration": 11, "velocity": 90}, {"time": 1199, "pitch": 59, "duration": 4, "velocity": 83}, {"time": 1202, "pitch": 62, "duration": 3, "velocity": 99}, {"time": 1205, "pitch": 66, "duration": 7, "velocity": 107}, {"time": 1208, "pitch": 54, "duration": 2, "velocity": 83}, {"time": 1211, "pitch": 62, "duration": 4, "velocity": 99}, {"time": 1214, "pitch": 59, "duration": 4, "velocity": 93}, {"time": 1217, "pitch": 40, "duration": 17, "velocity": 72}, {"time": 1220, "pitch": 47, "duration": 15, "velocity": 73}, {"time": 1223, "pitch": 52, "duration": 8, "velocity": 72}, {"time": 1226, "pitch": 59, "duration": 5, "velocity": 90}, {"time": 1229, "pitch": 67, "duration": 11, "velocity": 102}, {"time": 1232, "pitch": 52, "duration": 4, "velocity": 88}, {"time": 1235, "pitch": 64, "duration": 5, "velocity": 79}, {"time": 1238, "pitch": 59, "duration": 3, "velocity": 77}, {"time": 1241, "pitch": 45, "duration": 18, "velocity": 70}, {"time": 1244, "pitch": 52, "duration": 11, "velocity": 51}, {"time": 1247, "pitch": 57, "duration": 3, "velocity": 73}, {"time": 1250, "pitch": 60, "duration": 4, "velocity": 83}, {"time": 1253, "pitch": 64, "duration": 11, "velocity": 100}, {"time": 1256, "pitch": 52, "duration": 2, "velocity": 78}, {"time": 1259, "pitch": 60, "duration": 4, "velocity": 97}, {"time": 1262, "pitch": 57, "duration": 4, "velocity": 107}, {"time": 1265, "pitch": 38, "duration": 17, "velocity": 75}, {"time": 1268, "pitch": 45, "duration": 14, "velocity": 74}, {"time": 1271, "pitch": 50, "duration": 7, "velocity": 89}, {"time": 1274, "pitch": 57, "duration": 5, "velocity": 90}, {"time": 1277, "pitch": 66, "duration": 10, "velocity": 112}, {"time": 1280, "pitch": 50, "duration": 4, "velocity": 81}, {"time": 1283, "pitch": 62, "duration": 6, "velocity": 79}, {"time": 1286, "pitch": 57, "duration": 3, "velocity": 88}, {"time": 1289, "pitch": 43, "duration": 22, "velocity": 70}, {"time": 1292, "pitch": 50, "duration": 21, "velocity": 52}, {"time": 1295, "pitch": 55, "duration": 7, "velocity": 85}, {"time": 1298, "pitch": 59, "duration": 4, "velocity": 96}, {"time": 1301, "pitch": 62, "duration": 6, "velocity": 107}, {"time": 1304, "pitch": 55, "duration": 3, "velocity": 85}, {"time": 1307, "pitch": 59, "duration": 11, "velocity": 92}, {"time": 1310, "pitch": 65, "duration": 2, "velocity": 76}, {"time": 1313, "pitch": 43, "duration": 17, "velocity": 95}, {"time": 1313, "pitch": 65, "duration": 9, "velocity": 96}, {"time": 1316, "pitch": 50, "duration": 10, "velocity": 82}, {"time": 1319, "pitch": 55, "duration": 4, "velocity": 89}, {"time": 1322, "pitch": 59, "duration": 5, "velocity": 82}, {"time": 1325, "pitch": 65, "duration": 10, "velocity": 112}, {"time": 1328, "pitch": 50, "duration": 3, "velocity": 85}, {"time": 1331, "pitch": 62, "duration": 5, "velocity": 117}, {"time": 1334, "pitch": 59, "duration": 3, "velocity": 102}, {"time": 1337, "pitch": 36, "duration": 17, "velocity": 82}, {"time": 1340, "pitch": 43, "duration": 14, "velocity": 73}, {"time": 1343, "pitch": 48, "duration": 7, "velocity": 81}, {"time": 1346, "pitch": 55, "duration": 4, "velocity": 89}, {"time": 1349, "pitch": 64, "duration": 11, "velocity": 99}, {"time": 1352, "pitch": 48, "duration": 4, "velocity": 86}, {"time": 1355, "pitch": 55, "duration": 5, "velocity": 96}, {"time": 1358, "pitch": 60, "duration": 3, "velocity": 100}, {"time": 1361, "pitch": 38, "duration": 17, "velocity": 85}, {"time": 1364, "pitch": 45, "duration": 14, "velocity": 83}, {"time": 1367, "pitch": 50, "duration": 7, "velocity": 88}, {"time": 1370, "pitch": 57, "duration": 5, "velocity": 90}, {"time": 1373, "pitch": 66, "duration": 12, "velocity": 122}, {"time": 1376, "pitch": 50, "duration": 3, "velocity": 88}, {"time": 1379, "pitch": 57, "duration": 4, "velocity": 99}, {"time": 1382, "pitch": 62, "duration": 3, "velocity": 102}, {"time": 1385, "pitch": 47, "duration": 18, "velocity": 85}, {"time": 1388, "pitch": 54, "duration": 11, "velocity": 85}, {"time": 1391, "pitch": 59, "duration": 4, "velocity": 89}, {"time": 1394, "pitch": 62, "duration": 3, "velocity": 99}, {"time": 1397, "pitch": 66, "duration": 9, "velocity": 117}, {"time": 1400, "pitch": 54, "duration": 2, "velocity": 86}, {"time": 1403, "pitch": 62, "duration": 4, "velocity": 97}, {"time": 1406, "pitch": 59, "duration": 4, "velocity": 95}, {"time": 1409, "pitch": 40, "duration": 17, "velocity": 76}, {"time": 1412, "pitch": 47, "duration": 14, "velocity": 79}, {"time": 1415, "pitch": 52, "duration": 8, "velocity": 85}, {"time": 1418, "pitch": 59, "duration": 5, "velocity": 92}, {"time": 1421, "pitch": 67, "duration": 11, "velocity": 117}, {"time": 1424, "pitch": 52, "duration": 3, "velocity": 96}, {"time": 1427, "pitch": 64, "duration": 5, "velocity": 82}, {"time": 1430, "pitch": 59, "duration": 3, "velocity": 90}, {"time": 1433, "pitch": 45, "duration": 18, "velocity": 69}, {"time": 1436, "pitch": 52, "duration": 10, "velocity": 65}, {"time": 1439, "pitch": 57, "duration": 4, "velocity": 86}, {"time": 1442, "pitch": 60, "duration": 4, "velocity": 95}, {"time": 1445, "pitch": 64, "duration": 11, "velocity": 95}, {"time": 1448, "pitch": 52, "duration": 2, "velocity": 56}, {"time": 1451, "pitch": 60, "duration": 5, "velocity": 77}, {"time": 1454, "pitch": 57, "duration": 3, "velocity": 82}, {"time": 1457, "pitch": 38, "duration": 17, "velocity": 74}, {"time": 1460, "pitch": 45, "duration": 14, "velocity": 76}, {"time": 1463, "pitch": 50, "duration": 14, "velocity": 86}, {"time": 1466, "pitch": 57, "duration": 5, "velocity": 82}, {"time": 1469, "pitch": 66, "duration": 13, "velocity": 112}, {"time": 1475, "pitch": 62, "duration": 6, "velocity": 64}, {"time": 1478, "pitch": 57, "duration": 3, "velocity": 73}, {"time": 1481, "pitch": 43, "duration": 22, "velocity": 60}, {"time": 1484, "pitch": 50, "duration": 21, "velocity": 69}, {"time": 1487, "pitch": 55, "duration": 7, "velocity": 82}, {"time": 1490, "pitch": 59, "duration": 5, "velocity": 74}, {"time": 1493, "pitch": 62, "duration": 10, "velocity": 100}, {"time": 1496, "pitch": 55, "duration": 3, "velocity": 79}, {"time": 1499, "pitch": 59, "duration": 31, "velocity": 82}, {"time": 1502, "pitch": 62, "duration": 1, "velocity": 33}, {"time": 1502, "pitch": 67, "duration": 26, "velocity": 83}, {"time": 1505, "pitch": 43, "duration": 16, "velocity": 64}, {"time": 1529, "pitch": 36, "duration": 22, "velocity": 82}, {"time": 1535, "pitch": 43, "duration": 18, "velocity": 58}, {"time": 1541, "pitch": 64, "duration": 13, "velocity": 107}, {"time": 1547, "pitch": 55, "duration": 6, "velocity": 96}, {"time": 1553, "pitch": 38, "duration": 15, "velocity": 89}, {"time": 1559, "pitch": 45, "duration": 9, "velocity": 89}, {"time": 1559, "pitch": 57, "duration": 11, "velocity": 82}, {"time": 1565, "pitch": 66, "duration": 13, "velocity": 127}, {"time": 1571, "pitch": 62, "duration": 8, "velocity": 112}, {"time": 1577, "pitch": 47, "duration": 19, "velocity": 90}, {"time": 1583, "pitch": 54, "duration": 10, "velocity": 97}, {"time": 1589, "pitch": 62, "duration": 1, "velocity": 76}, {"time": 1589, "pitch": 66, "duration": 12, "velocity": 127}, {"time": 1595, "pitch": 62, "duration": 6, "velocity": 88}, {"time": 1598, "pitch": 59, "duration": 5, "velocity": 88}, {"time": 1601, "pitch": 40, "duration": 17, "velocity": 74}, {"time": 1607, "pitch": 47, "duration": 12, "velocity": 72}, {"time": 1613, "pitch": 52, "duration": 7, "velocity": 88}, {"time": 1613, "pitch": 67, "duration": 13, "velocity": 127}, {"time": 1616, "pitch": 64, "duration": 5, "velocity": 93}, {"time": 1619, "pitch": 59, "duration": 7, "velocity": 93}, {"time": 1622, "pitch": 64, "duration": 4, "velocity": 67}, {"time": 1625, "pitch": 45, "duration": 17, "velocity": 75}, {"time": 1631, "pitch": 52, "duration": 7, "velocity": 75}, {"time": 1637, "pitch": 64, "duration": 12, "velocity": 100}, {"time": 1640, "pitch": 52, "duration": 2, "velocity": 72}, {"time": 1643, "pitch": 60, "duration": 5, "velocity": 88}, {"time": 1646, "pitch": 57, "duration": 4, "velocity": 67}, {"time": 1649, "pitch": 38, "duration": 16, "velocity": 74}, {"time": 1655, "pitch": 45, "duration": 11, "velocity": 58}, {"time": 1661, "pitch": 50, "duration": 9, "velocity": 81}, {"time": 1661, "pitch": 66, "duration": 10, "velocity": 127}, {"time": 1667, "pitch": 62, "duration": 11, "velocity": 97}, {"time": 1673, "pitch": 43, "duration": 28, "velocity": 86}, {"time": 1679, "pitch": 50, "duration": 24, "velocity": 81}, {"time": 1685, "pitch": 59, "duration": 24, "velocity": 117}, {"time": 1691, "pitch": 55, "duration": 5, "velocity": 99}, {"time": 1697, "pitch": 62, "duration": 8, "velocity": 99}, {"time": 1697, "pitch": 65, "duration": 8, "velocity": 107}, {"time": 1703, "pitch": 43, "duration": 13, "velocity": 95}, {"time": 1709, "pitch": 65, "duration": 11, "velocity": 127}, {"time": 1712, "pitch": 50, "duration": 4, "velocity": 99}, {"time": 1715, "pitch": 62, "duration": 6, "velocity": 117}, {"time": 1718, "pitch": 59, "duration": 4, "velocity": 99}, {"time": 1721, "pitch": 36, "duration": 22, "velocity": 83}, {"time": 1727, "pitch": 43, "duration": 18, "velocity": 79}, {"time": 1733, "pitch": 64, "duration": 13, "velocity": 112}, {"time": 1739, "pitch": 60, "duration": 6, "velocity": 93}, {"time": 1745, "pitch": 38, "duration": 16, "velocity": 92}, {"time": 1751, "pitch": 45, "duration": 11, "velocity": 58}, {"time": 1751, "pitch": 57, "duration": 11, "velocity": 90}, {"time": 1757, "pitch": 66, "duration": 13, "velocity": 127}, {"time": 1763, "pitch": 62, "duration": 7, "velocity": 85}, {"time": 1766, "pitch": 57, "duration": 4, "velocity": 81}, {"time": 1769, "pitch": 47, "duration": 16, "velocity": 79}, {"time": 1775, "pitch": 54, "duration": 9, "velocity": 78}, {"time": 1781, "pitch": 66, "duration": 10, "velocity": 127}, {"time": 1787, "pitch": 62, "duration": 5, "velocity": 90}, {"time": 1790, "pitch": 59, "duration": 4, "velocity": 90}, {"time": 1793, "pitch": 40, "duration": 18, "velocity": 81}, {"time": 1799, "pitch": 47, "duration": 8, "velocity": 86}, {"time": 1805, "pitch": 67, "duration": 12, "velocity": 122}, {"time": 1808, "pitch": 47, "duration": 3, "velocity": 69}, {"time": 1811, "pitch": 64, "duration": 6, "velocity": 83}, {"time": 1814, "pitch": 59, "duration": 4, "velocity": 93}, {"time": 1817, "pitch": 45, "duration": 15, "velocity": 90}, {"time": 1823, "pitch": 52, "duration": 8, "velocity": 66}, {"time": 1829, "pitch": 64, "duration": 12, "velocity": 107}, {"time": 1835, "pitch": 60, "duration": 5, "velocity": 93}, {"time": 1841, "pitch": 38, "duration": 15, "velocity": 90}, {"time": 1847, "pitch": 45, "duration": 8, "velocity": 62}, {"time": 1853, "pitch": 62, "duration": 13, "velocity": 83}, {"time": 1853, "pitch": 66, "duration": 13, "velocity": 97}, {"time": 1865, "pitch": 43, "duration": 48, "velocity": 83}, {"time": 1871, "pitch": 50, "duration": 10, "velocity": 86}, {"time": 1877, "pitch": 55, "duration": 9, "velocity": 77}, {"time": 1877, "pitch": 62, "duration": 36, "velocity": 100}, {"time": 1883, "pitch": 50, "duration": 30, "velocity": 58}, {"time": 1889, "pitch": 55, "duration": 17, "velocity": 73}, {"time": 1889, "pitch": 59, "duration": 24, "velocity": 83}, {"time": 1907, "pitch": 55, "duration": 6, "velocity": 66}, {"time": 1913, "pitch": 36, "duration": 23, "velocity": 97}, {"time": 1916, "pitch": 43, "duration": 21, "velocity": 72}, {"time": 1919, "pitch": 48, "duration": 7, "velocity": 79}, {"time": 1922, "pitch": 55, "duration": 6, "velocity": 81}, {"time": 1925, "pitch": 64, "duration": 11, "velocity": 102}, {"time": 1928, "pitch": 48, "duration": 3, "velocity": 86}, {"time": 1931, "pitch": 60, "duration": 5, "velocity": 95}, {"time": 1934, "pitch": 55, "duration": 4, "velocity": 95}, {"time": 1937, "pitch": 38, "duration": 16, "velocity": 85}, {"time": 1940, "pitch": 45, "duration": 13, "velocity": 70}, {"time": 1943, "pitch": 50, "duration": 7, "velocity": 79}, {"time": 1946, "pitch": 57, "duration": 5, "velocity": 100}, {"time": 1949, "pitch": 66, "duration": 11, "velocity": 127}, {"time": 1952, "pitch": 50, "duration": 3, "velocity": 81}, {"time": 1955, "pitch": 62, "duration": 6, "velocity": 99}, {"time": 1958, "pitch": 57, "duration": 3, "velocity": 82}, {"time": 1961, "pitch": 47, "duration": 18, "velocity": 85}, {"time": 1964, "pitch": 54, "duration": 11, "velocity": 82}, {"time": 1967, "pitch": 59, "duration": 5, "velocity": 82}, {"time": 1970, "pitch": 62, "duration": 3, "velocity": 99}, {"time": 1973, "pitch": 66, "duration": 9, "velocity": 107}, {"time": 1976, "pitch": 54, "duration": 2, "velocity": 96}, {"time": 1979, "pitch": 62, "duration": 4, "velocity": 97}, {"time": 1982, "pitch": 59, "duration": 4, "velocity": 97}, {"time": 1985, "pitch": 40, "duration": 18, "velocity": 83}, {"time": 1988, "pitch": 47, "duration": 15, "velocity": 76}, {"time": 1991, "pitch": 52, "duration": 8, "velocity": 89}, {"time": 1994, "pitch": 59, "duration": 5, "velocity": 99}, {"time": 1997, "pitch": 67, "duration": 12, "velocity": 112}, {"time": 2000, "pitch": 52, "duration": 5, "velocity": 79}, {"time": 2003, "pitch": 64, "duration": 6, "velocity": 96}, {"time": 2006, "pitch": 59, "duration": 4, "velocity": 96}, {"time": 2009, "pitch": 45, "duration": 18, "velocity": 76}, {"time": 2012, "pitch": 52, "duration": 11, "velocity": 72}, {"time": 2015, "pitch": 57, "duration": 3, "velocity": 86}, {"time": 2018, "pitch": 60, "duration": 4, "velocity": 100}, {"time": 2021, "pitch": 64, "duration": 10, "velocity": 100}, {"time": 2024, "pitch": 52, "duration": 2, "velocity": 78}, {"time": 2027, "pitch": 60, "duration": 4, "velocity": 112}, {"time": 2030, "pitch": 57, "duration": 4, "velocity": 99}, {"time": 2033, "pitch": 38, "duration": 18, "velocity": 92}, {"time": 2036, "pitch": 45, "duration": 15, "velocity": 83}, {"time": 2039, "pitch": 50, "duration": 7, "velocity": 89}, {"time": 2042, "pitch": 57, "duration": 5, "velocity": 96}, {"time": 2045, "pitch": 66, "duration": 9, "velocity": 127}, {"time": 2048, "pitch": 50, "duration": 4, "velocity": 96}, {"time": 2051, "pitch": 62, "duration": 6, "velocity": 97}, {"time": 2054, "pitch": 57, "duration": 3, "velocity": 97}, {"time": 2057, "pitch": 43, "duration": 21, "velocity": 75}, {"time": 2060, "pitch": 50, "duration": 21, "velocity": 88}, {"time": 2063, "pitch": 55, "duration": 7, "velocity": 93}, {"time": 2066, "pitch": 59, "duration": 3, "velocity": 97}, {"time": 2069, "pitch": 62, "duration": 7, "velocity": 117}, {"time": 2072, "pitch": 55, "duration": 2, "velocity": 92}, {"time": 2075, "pitch": 59, "duration": 14, "velocity": 97}, {"time": 2078, "pitch": 65, "duration": 2, "velocity": 96}, {"time": 2081, "pitch": 43, "duration": 18, "velocity": 93}, {"time": 2081, "pitch": 65, "duration": 8, "velocity": 117}, {"time": 2084, "pitch": 50, "duration": 10, "velocity": 86}, {"time": 2087, "pitch": 55, "duration": 5, "velocity": 99}, {"time": 2090, "pitch": 59, "duration": 5, "velocity": 85}, {"time": 2093, "pitch": 62, "duration": 8, "velocity": 122}, {"time": 2096, "pitch": 50, "duration": 2, "velocity": 92}, {"time": 2099, "pitch": 59, "duration": 6, "velocity": 99}, {"time": 2102, "pitch": 65, "duration": 3, "velocity": 107}, {"time": 2105, "pitch": 36, "duration": 23, "velocity": 93}, {"time": 2108, "pitch": 43, "duration": 21, "velocity": 72}, {"time": 2111, "pitch": 48, "duration": 7, "velocity": 93}, {"time": 2114, "pitch": 55, "duration": 5, "velocity": 95}, {"time": 2117, "pitch": 64, "duration": 12, "velocity": 100}, {"time": 2120, "pitch": 48, "duration": 3, "velocity": 92}, {"time": 2123, "pitch": 60, "duration": 5, "velocity": 66}, {"time": 2126, "pitch": 55, "duration": 4, "velocity": 99}, {"time": 2129, "pitch": 38, "duration": 17, "velocity": 85}, {"time": 2132, "pitch": 45, "duration": 14, "velocity": 82}, {"time": 2135, "pitch": 50, "duration": 7, "velocity": 93}, {"time": 2138, "pitch": 57, "duration": 5, "velocity": 102}, {"time": 2141, "pitch": 66, "duration": 12, "velocity": 127}, {"time": 2144, "pitch": 50, "duration": 3, "velocity": 81}, {"time": 2147, "pitch": 57, "duration": 4, "velocity": 102}, {"time": 2150, "pitch": 62, "duration": 4, "velocity": 100}, {"time": 2153, "pitch": 47, "duration": 17, "velocity": 85}, {"time": 2156, "pitch": 54, "duration": 10, "velocity": 97}, {"time": 2159, "pitch": 59, "duration": 6, "velocity": 90}, {"time": 2162, "pitch": 62, "duration": 3, "velocity": 100}, {"time": 2165, "pitch": 66, "duration": 11, "velocity": 127}, {"time": 2168, "pitch": 54, "duration": 2, "velocity": 93}, {"time": 2171, "pitch": 62, "duration": 5, "velocity": 97}, {"time": 2174, "pitch": 59, "duration": 3, "velocity": 99}, {"time": 2177, "pitch": 40, "duration": 17, "velocity": 82}, {"time": 2180, "pitch": 47, "duration": 15, "velocity": 81}, {"time": 2183, "pitch": 52, "duration": 8, "velocity": 77}, {"time": 2186, "pitch": 56, "duration": 5, "velocity": 88}, {"time": 2189, "pitch": 64, "duration": 12, "velocity": 82}, {"time": 2192, "pitch": 52, "duration": 6, "velocity": 76}, {"time": 2195, "pitch": 56, "duration": 5, "velocity": 86}, {"time": 2198, "pitch": 59, "duration": 3, "velocity": 63}, {"time": 2201, "pitch": 45, "duration": 22, "velocity": 77}, {"time": 2204, "pitch": 52, "duration": 11, "velocity": 72}, {"time": 2207, "pitch": 57, "duration": 4, "velocity": 90}, {"time": 2210, "pitch": 64, "duration": 13, "velocity": 92}, {"time": 2213, "pitch": 60, "duration": 8, "velocity": 92}, {"time": 2216, "pitch": 52, "duration": 9, "velocity": 56}, {"time": 2219, "pitch": 57, "duration": 4, "velocity": 82}, {"time": 2222, "pitch": 60, "duration": 4, "velocity": 63}, {"time": 2225, "pitch": 45, "duration": 18, "velocity": 74}, {"time": 2228, "pitch": 52, "duration": 10, "velocity": 82}, {"time": 2231, "pitch": 57, "duration": 7, "velocity": 59}, {"time": 2234, "pitch": 60, "duration": 3, "velocity": 67}, {"time": 2237, "pitch": 64, "duration": 11, "velocity": 97}, {"time": 2240, "pitch": 52, "duration": 2, "velocity": 82}, {"time": 2243, "pitch": 60, "duration": 5, "velocity": 76}, {"time": 2246, "pitch": 57, "duration": 3, "velocity": 83}, {"time": 2249, "pitch": 38, "duration": 22, "velocity": 89}, {"time": 2252, "pitch": 45, "duration": 21, "velocity": 96}, {"time": 2255, "pitch": 50, "duration": 7, "velocity": 100}, {"time": 2258, "pitch": 57, "duration": 5, "velocity": 95}, {"time": 2261, "pitch": 66, "duration": 7, "velocity": 127}, {"time": 2264, "pitch": 50, "duration": 3, "velocity": 102}, {"time": 2267, "pitch": 57, "duration": 3, "velocity": 100}, {"time": 2270, "pitch": 57, "duration": 2, "velocity": 60}, {"time": 2270, "pitch": 62, "duration": 2, "velocity": 97}, {"time": 2270, "pitch": 66, "duration": 2, "velocity": 117}, {"time": 2273, "pitch": 38, "duration": 17, "velocity": 95}, {"time": 2273, "pitch": 57, "duration": 7, "velocity": 99}, {"time": 2273, "pitch": 62, "duration": 8, "velocity": 107}, {"time": 2273, "pitch": 66, "duration": 9, "velocity": 122}, {"time": 2276, "pitch": 45, "duration": 14, "velocity": 97}, {"time": 2279, "pitch": 50, "duration": 8, "velocity": 96}, {"time": 2282, "pitch": 57, "duration": 3, "velocity": 93}, {"time": 2285, "pitch": 62, "duration": 7, "velocity": 102}, {"time": 2285, "pitch": 66, "duration": 11, "velocity": 127}, {"time": 2288, "pitch": 50, "duration": 2, "velocity": 93}, {"time": 2291, "pitch": 57, "duration": 6, "velocity": 107}, {"time": 2294, "pitch": 62, "duration": 3, "velocity": 97}, {"time": 2297, "pitch": 36, "duration": 18, "velocity": 89}, {"time": 2300, "pitch": 43, "duration": 14, "velocity": 72}, {"time": 2303, "pitch": 48, "duration": 7, "velocity": 95}, {"time": 2306, "pitch": 55, "duration": 5, "velocity": 93}, {"time": 2309, "pitch": 64, "duration": 11, "velocity": 112}, {"time": 2312, "pitch": 48, "duration": 3, "velocity": 96}, {"time": 2315, "pitch": 60, "duration": 5, "velocity": 107}, {"time": 2318, "pitch": 55, "duration": 4, "velocity": 100}, {"time": 2321, "pitch": 38, "duration": 17, "velocity": 96}, {"time": 2324, "pitch": 45, "duration": 14, "velocity": 88}, {"time": 2327, "pitch": 50, "duration": 7, "velocity": 99}, {"time": 2330, "pitch": 57, "duration": 5, "velocity": 97}, {"time": 2333, "pitch": 66, "duration": 11, "velocity": 127}, {"time": 2336, "pitch": 50, "duration": 2, "velocity": 99}, {"time": 2339, "pitch": 62, "duration": 6, "velocity": 95}, {"time": 2342, "pitch": 57, "duration": 3, "velocity": 89}, {"time": 2345, "pitch": 47, "duration": 18, "velocity": 77}, {"time": 2348, "pitch": 54, "duration": 11, "velocity": 90}, {"time": 2351, "pitch": 59, "duration": 4, "velocity": 83}, {"time": 2354, "pitch": 62, "duration": 3, "velocity": 99}, {"time": 2357, "pitch": 66, "duration": 7, "velocity": 107}, {"time": 2360, "pitch": 54, "duration": 2, "velocity": 83}, {"time": 2363, "pitch": 62, "duration": 4, "velocity": 99}, {"time": 2366, "pitch": 59, "duration": 4, "velocity": 93}, {"time": 2369, "pitch": 40, "duration": 17, "velocity": 72}, {"time": 2372, "pitch": 47, "duration": 15, "velocity": 73}, {"time": 2375, "pitch": 52, "duration": 8, "velocity": 72}, {"time": 2378, "pitch": 59, "duration": 5, "velocity": 90}, {"time": 2381, "pitch": 67, "duration": 11, "velocity": 102}, {"time": 2384, "pitch": 52, "duration": 4, "velocity": 88}, {"time": 2387, "pitch": 64, "duration": 5, "velocity": 79}, {"time": 2390, "pitch": 59, "duration": 3, "velocity": 77}, {"time": 2393, "pitch": 45, "duration": 18, "velocity": 70}, {"time": 2396, "pitch": 52, "duration": 11, "velocity": 51}, {"time": 2399, "pitch": 57, "duration": 3, "velocity": 73}, {"time": 2402, "pitch": 60, "duration": 4, "velocity": 83}, {"time": 2405, "pitch": 64, "duration": 11, "velocity": 100}, {"time": 2408, "pitch": 52, "duration": 2, "velocity": 78}, {"time": 2411, "pitch": 60, "duration": 4, "velocity": 97}, {"time": 2414, "pitch": 57, "duration": 4, "velocity": 107}, {"time": 2417, "pitch": 38, "duration": 17, "velocity": 75}, {"time": 2420, "pitch": 45, "duration": 14, "velocity": 74}, {"time": 2423, "pitch": 50, "duration": 7, "velocity": 89}, {"time": 2426, "pitch": 57, "duration": 5, "velocity": 90}, {"time": 2429, "pitch": 66, "duration": 10, "velocity": 112}, {"time": 2432, "pitch": 50, "duration": 4, "velocity": 81}, {"time": 2435, "pitch": 62, "duration": 6, "velocity": 79}, {"time": 2438, "pitch": 57, "duration": 3, "velocity": 88}, {"time": 2441, "pitch": 43, "duration": 22, "velocity": 70}, {"time": 2444, "pitch": 50, "duration": 21, "velocity": 52}, {"time": 2447, "pitch": 55, "duration": 7, "velocity": 85}, {"time": 2450, "pitch": 59, "duration": 4, "velocity": 96}, {"time": 2453, "pitch": 62, "duration": 6, "velocity": 107}, {"time": 2456, "pitch": 55, "duration": 3, "velocity": 85}, {"time": 2459, "pitch": 59, "duration": 11, "velocity": 92}, {"time": 2462, "pitch": 65, "duration": 2, "velocity": 76}, {"time": 2465, "pitch": 43, "duration": 17, "velocity": 95}, {"time": 2465, "pitch": 65, "duration": 9, "velocity": 96}, {"time": 2468, "pitch": 50, "duration": 10, "velocity": 82}, {"time": 2471, "pitch": 55, "duration": 4, "velocity": 89}, {"time": 2474, "pitch": 59, "duration": 5, "velocity": 82}, {"time": 2477, "pitch": 65, "duration": 10, "velocity": 112}, {"time": 2480, "pitch": 50, "duration": 3, "velocity": 85}, {"time": 2483, "pitch": 62, "duration": 5, "velocity": 117}, {"time": 2486, "pitch": 59, "duration": 3, "velocity": 102}, {"time": 2489, "pitch": 36, "duration": 17, "velocity": 82}, {"time": 2492, "pitch": 43, "duration": 14, "velocity": 73}, {"time": 2495, "pitch": 48, "duration": 7, "velocity": 81}, {"time": 2498, "pitch": 55, "duration": 4, "velocity": 89}, {"time": 2501, "pitch": 64, "duration": 11, "velocity": 99}, {"time": 2504, "pitch": 48, "duration": 4, "velocity": 86}, {"time": 2507, "pitch": 55, "duration": 5, "velocity": 96}, {"time": 2510, "pitch": 60, "duration": 3, "velocity": 100}, {"time": 2513, "pitch": 38, "duration": 17, "velocity": 85}, {"time": 2516, "pitch": 45, "duration": 14, "velocity": 83}, {"time": 2519, "pitch": 50, "duration": 7, "velocity": 88}, {"time": 2522, "pitch": 57, "duration": 5, "velocity": 90}, {"time": 2525, "pitch": 66, "duration": 12, "velocity": 122}, {"time": 2528, "pitch": 50, "duration": 3, "velocity": 88}, {"time": 2531, "pitch": 57, "duration": 4, "velocity": 99}, {"time": 2534, "pitch": 62, "duration": 3, "velocity": 102}, {"time": 2537, "pitch": 47, "duration": 18, "velocity": 85}, {"time": 2540, "pitch": 54, "duration": 11, "velocity": 85}, {"time": 2543, "pitch": 59, "duration": 4, "velocity": 89}, {"time": 2546, "pitch": 62, "duration": 3, "velocity": 99}, {"time": 2549, "pitch": 66, "duration": 9, "velocity": 117}, {"time": 2552, "pitch": 54, "duration": 2, "velocity": 86}, {"time": 2555, "pitch": 62, "duration": 4, "velocity": 97}, {"time": 2558, "pitch": 59, "duration": 4, "velocity": 95}, {"time": 2561, "pitch": 40, "duration": 17, "velocity": 76}, {"time": 2564, "pitch": 47, "duration": 14, "velocity": 79}, {"time": 2567, "pitch": 52, "duration": 8, "velocity": 85}, {"time": 2570, "pitch": 59, "duration": 5, "velocity": 92}, {"time": 2573, "pitch": 67, "duration": 11, "velocity": 117}, {"time": 2576, "pitch": 52, "duration": 3, "velocity": 96}, {"time": 2579, "pitch": 64, "duration": 5, "velocity": 82}, {"time": 2582, "pitch": 59, "duration": 3, "velocity": 90}, {"time": 2585, "pitch": 45, "duration": 18, "velocity": 69}, {"time": 2588, "pitch": 52, "duration": 10, "velocity": 65}, {"time": 2591, "pitch": 57, "duration": 4, "velocity": 86}, {"time": 2594, "pitch": 60, "duration": 4, "velocity": 95}, {"time": 2597, "pitch": 64, "duration": 11, "velocity": 95}, {"time": 2600, "pitch": 52, "duration": 2, "velocity": 56}, {"time": 2603, "pitch": 60, "duration": 5, "velocity": 77}, {"time": 2606, "pitch": 57, "duration": 3, "velocity": 82}, {"time": 2609, "pitch": 38, "duration": 17, "velocity": 74}, {"time": 2612, "pitch": 45, "duration": 14, "velocity": 76}, {"time": 2615, "pitch": 50, "duration": 14, "velocity": 86}, {"time": 2618, "pitch": 57, "duration": 5, "velocity": 82}, {"time": 2621, "pitch": 66, "duration": 13, "velocity": 112}, {"time": 2627, "pitch": 62, "duration": 6, "velocity": 64}, {"time": 2630, "pitch": 57, "duration": 3, "velocity": 73}, {"time": 2633, "pitch": 43, "duration": 22, "velocity": 60}, {"time": 2636, "pitch": 50, "duration": 21, "velocity": 69}, {"time": 2639, "pitch": 55, "duration": 7, "velocity": 82}, {"time": 2642, "pitch": 59, "duration": 5, "velocity": 74}, {"time": 2645, "pitch": 62, "duration": 10, "velocity": 100}, {"time": 2648, "pitch": 55, "duration": 3, "velocity": 79}, {"time": 2651, "pitch": 59, "duration": 30, "velocity": 82}, {"time": 2654, "pitch": 62, "duration": 1, "velocity": 33}, {"time": 2654, "pitch": 67, "duration": 26, "velocity": 83}, {"time": 2657, "pitch": 43, "duration": 16, "velocity": 64}, {"time": 2690, "pitch": 52, "duration": 18, "velocity": 44}, {"time": 2690, "pitch": 57, "duration": 11, "velocity": 65}, {"time": 2690, "pitch": 45, "duration": 20, "velocity": 31}, {"time": 2691, "pitch": 60, "duration": 21, "velocity": 79}, {"time": 2692, "pitch": 64, "duration": 23, "velocity": 77}, {"time": 2693, "pitch": 67, "duration": 22, "velocity": 76}, {"time": 2706, "pitch": 57, "duration": 24, "velocity": 97}, {"time": 2713, "pitch": 60, "duration": 9, "velocity": 83}, {"time": 2721, "pitch": 62, "duration": 8, "velocity": 45}, {"time": 2722, "pitch": 66, "duration": 7, "velocity": 75}, {"time": 2722, "pitch": 38, "duration": 26, "velocity": 77}, {"time": 2729, "pitch": 45, "duration": 19, "velocity": 54}, {"time": 2737, "pitch": 50, "duration": 11, "velocity": 38}, {"time": 2737, "pitch": 54, "duration": 13, "velocity": 67}, {"time": 2747, "pitch": 57, "duration": 18, "velocity": 35}, {"time": 2765, "pitch": 36, "duration": 21, "velocity": 79}, {"time": 2772, "pitch": 43, "duration": 18, "velocity": 63}, {"time": 2779, "pitch": 64, "duration": 11, "velocity": 99}, {"time": 2785, "pitch": 60, "duration": 5, "velocity": 69}, {"time": 2790, "pitch": 38, "duration": 16, "velocity": 70}, {"time": 2796, "pitch": 45, "duration": 11, "velocity": 45}, {"time": 2802, "pitch": 66, "duration": 16, "velocity": 122}, {"time": 2807, "pitch": 62, "duration": 11, "velocity": 66}, {"time": 2814, "pitch": 47, "duration": 18, "velocity": 75}, {"time": 2820, "pitch": 54, "duration": 10, "velocity": 95}, {"time": 2827, "pitch": 66, "duration": 9, "velocity": 127}, {"time": 2832, "pitch": 62, "duration": 11, "velocity": 79}, {"time": 2839, "pitch": 40, "duration": 18, "velocity": 81}, {"time": 2845, "pitch": 47, "duration": 12, "velocity": 58}, {"time": 2851, "pitch": 52, "duration": 7, "velocity": 60}, {"time": 2851, "pitch": 64, "duration": 13, "velocity": 67}, {"time": 2851, "pitch": 67, "duration": 13, "velocity": 66}, {"time": 2857, "pitch": 59, "duration": 7, "velocity": 67}, {"time": 2863, "pitch": 45, "duration": 16, "velocity": 89}, {"time": 2869, "pitch": 52, "duration": 9, "velocity": 60}, {"time": 2874, "pitch": 64, "duration": 13, "velocity": 97}, {"time": 2880, "pitch": 60, "duration": 7, "velocity": 71}, {"time": 2886, "pitch": 38, "duration": 46, "velocity": 85}, {"time": 2894, "pitch": 45, "duration": 36, "velocity": 64}, {"time": 2901, "pitch": 50, "duration": 29, "velocity": 66}, {"time": 2901, "pitch": 62, "duration": 39, "velocity": 71}, {"time": 2913, "pitch": 57, "duration": 26, "velocity": 51}, {"time": 2914, "pitch": 66, "duration": 26, "velocity": 41}, {"time": 2938, "pitch": 43, "duration": 89, "velocity": 65}, {"time": 2943, "pitch": 50, "duration": 79, "velocity": 60}, {"time": 2948, "pitch": 55, "duration": 74, "velocity": 79}, {"time": 2953, "pitch": 59, "duration": 7, "velocity": 67}, {"time": 2957, "pitch": 62, "duration": 4, "velocity": 64}, {"time": 2964, "pitch": 67, "duration": 7, "velocity": 69}, {"time": 2968, "pitch": 71, "duration": 6, "velocity": 68}, {"time": 2973, "pitch": 74, "duration": 1, "velocity": 63}, {"time": 2979, "pitch": 79, "duration": 49, "velocity": 63}, {"time": 2986, "pitch": 83, "duration": 42, "velocity": 53}, {"time": 2993, "pitch": 86, "duration": 35, "velocity": 42}, {"time": 3009, "pitch": 91, "duration": 19, "velocity": 45}], "annotations": [{"time": 186, "annotation": {"number": 64, "value": 127}, "group": "control_change"}, {"time": 207, "annotation": {"number": 64, "value": 0}, "group": "control_change"}, {"time": 211, "annotation": {"number": 64, "value": 127}, "group": "control_change"}, {"time": 231, "annotation": {"number": 64, "value": 0}, "group": "control_change"}, {"time": 235, "annotation": {"number": 64, "value": 127}, "group": "control_change"}, {"time": 254, "annotation": {"number": 64, "value": 0}, "group": "control_change"}, {"time": 258, "annotation": {"number": 64, "value": 127}, "group": "control_change"}, {"time": 277, "annotation": {"number": 64, "value": 0}, "group": "control_change"}, {"time": 282, "annotation": {"number": 64, "value": 127}, "group": "control_change"}, {"time": 302, "annotation": {"number": 64, "value": 0}, "group": "control_change"}, {"time": 306, "annotation": {"number": 64, "value": 127}, "group": "control_change"}, {"time": 325, "annotation": {"number": 64, "value": 0}, "group": "control_change"}, {"time": 330, "annotation": {"number": 64, "value": 127}, "group": "control_change"}, {"time": 351, "annotation": {"number": 64, "value": 0}, "group": "control_change"}, {"time": 378, "annotation": {"number": 64, "value": 127}, "group": "control_change"}, {"time": 398, "annotation": {"number": 64, "value": 0}, "group": "control_change"}, {"time": 402, "annotation": {"number": 64, "value": 127}, "group": "control_change"}, {"time": 419, "annotation": {"number": 64, "value": 0}, "group": "control_change"}, {"time": 425, "annotation": {"number": 64, "value": 127}, "group": "control_change"}, {"time": 445, "annotation": {"number": 64, "value": 0}, "group": "control_change"}, {"time": 450, "annotation": {"number": 64, "value": 127}, "group": "control_change"}, {"time": 470, "annotation": {"number": 64, "value": 0}, "group": "control_change"}, {"time": 474, "annotation": {"number": 64, "value": 127}, "group": "control_change"}, {"time": 488, "annotation": {"number": 64, "value": 0}, "group": "control_change"}, {"time": 498, "annotation": {"number": 64, "value": 127}, "group": "control_change"}, {"time": 514, "annotation": {"number": 64, "value": 0}, "group": "control_change"}, {"time": 522, "annotation": {"number": 64, "value": 127}, "group": "control_change"}, {"time": 543, "annotation": {"number": 64, "value": 0}, "group": "control_change"}, {"time": 546, "annotation": {"number": 64, "value": 127}, "group": "control_change"}, {"time": 564, "annotation": {"number": 64, "value": 0}, "group": "control_change"}, {"time": 569, "annotation": {"number": 64, "value": 127}, "group": "control_change"}, {"time": 590, "annotation": {"number": 64, "value": 0}, "group": "control_change"}, {"time": 594, "annotation": {"number": 64, "value": 127}, "group": "control_change"}, {"time": 614, "annotation": {"number": 64, "value": 0}, "group": "control_change"}, {"time": 617, "annotation": {"number": 64, "value": 127}, "group": "control_change"}, {"time": 638, "annotation": {"number": 64, "value": 0}, "group": "control_change"}, {"time": 642, "annotation": {"number": 64, "value": 127}, "group": "control_change"}, {"time": 661, "annotation": {"number": 64, "value": 0}, "group": "control_change"}, {"time": 665, "annotation": {"number": 64, "value": 127}, "group": "control_change"}, {"time": 685, "annotation": {"number": 64, "value": 0}, "group": "control_change"}, {"time": 690, "annotation": {"number": 64, "value": 127}, "group": "control_change"}, {"time": 708, "annotation": {"number": 64, "value": 0}, "group": "control_change"}, {"time": 714, "annotation": {"number": 64, "value": 127}, "group": "control_change"}, {"time": 734, "annotation": {"number": 64, "value": 0}, "group": "control_change"}, {"time": 738, "annotation": {"number": 64, "value": 127}, "group": "control_change"}, {"time": 747, "annotation": {"number": 64, "value": 0}, "group": "control_change"}, {"time": 761, "annotation": {"number": 64, "value": 127}, "group": "control_change"}, {"time": 782, "annotation": {"number": 64, "value": 0}, "group": "control_change"}, {"time": 786, "annotation": {"number": 64, "value": 127}, "group": "control_change"}, {"time": 805, "annotation": {"number": 64, "value": 0}, "group": "control_change"}, {"time": 809, "annotation": {"number": 64, "value": 127}, "group": "control_change"}, {"time": 830, "annotation": {"number": 64, "value": 0}, "group": "control_change"}, {"time": 834, "annotation": {"number": 64, "value": 127}, "group": "control_change"}, {"time": 853, "annotation": {"number": 64, "value": 0}, "group": "control_change"}, {"time": 858, "annotation": {"number": 64, "value": 127}, "group": "control_change"}, {"time": 878, "annotation": {"number": 64, "value": 0}, "group": "control_change"}, {"time": 882, "annotation": {"number": 64, "value": 127}, "group": "control_change"}, {"time": 902, "annotation": {"number": 64, "value": 0}, "group": "control_change"}, {"time": 906, "annotation": {"number": 64, "value": 127}, "group": "control_change"}, {"time": 926, "annotation": {"number": 64, "value": 0}, "group": "control_change"}, {"time": 930, "annotation": {"number": 64, "value": 127}, "group": "control_change"}, {"time": 950, "annotation": {"number": 64, "value": 0}, "group": "control_change"}, {"time": 954, "annotation": {"number": 64, "value": 127}, "group": "control_change"}, {"time": 974, "annotation": {"number": 64, "value": 0}, "group": "control_change"}, {"time": 978, "annotation": {"number": 64, "value": 127}, "group": "control_change"}, {"time": 998, "annotation": {"number": 64, "value": 0}, "group": "control_change"}, {"time": 1002, "annotation": {"number": 64, "value": 127}, "group": "control_change"}, {"time": 1023, "annotation": {"number": 64, "value": 0}, "group": "control_change"}, {"time": 1026, "annotation": {"number": 64, "value": 127}, "group": "control_change"}, {"time": 1046, "annotation": {"number": 64, "value": 0}, "group": "control_change"}, {"time": 1050, "annotation": {"number": 64, "value": 127}, "group": "control_change"}, {"time": 1070, "annotation": {"number": 64, "value": 0}, "group": "control_change"}, {"time": 1073, "annotation": {"number": 64, "value": 127}, "group": "control_change"}, {"time": 1094, "annotation": {"number": 64, "value": 0}, "group": "control_change"}, {"time": 1098, "annotation": {"number": 64, "value": 127}, "group": "control_change"}, {"time": 1113, "annotation": {"number": 64, "value": 0}, "group": "control_change"}, {"time": 1113, "annotation": {"number": 64, "value": 127}, "group": "control_change"}, {"time": 1119, "annotation": {"number": 64, "value": 0}, "group": "control_change"}, {"time": 1121, "annotation": {"number": 64, "value": 127}, "group": "control_change"}, {"time": 1142, "annotation": {"number": 64, "value": 0}, "group": "control_change"}, {"time": 1146, "annotation": {"number": 64, "value": 127}, "group": "control_change"}, {"time": 1166, "annotation": {"number": 64, "value": 0}, "group": "control_change"}, {"time": 1169, "annotation": {"number": 64, "value": 127}, "group": "control_change"}, {"time": 1189, "annotation": {"number": 64, "value": 0}, "group": "control_change"}, {"time": 1193, "annotation": {"number": 64, "value": 127}, "group": "control_change"}, {"time": 1214, "annotation": {"number": 64, "value": 0}, "group": "control_change"}, {"time": 1217, "annotation": {"number": 64, "value": 127}, "group": "control_change"}, {"time": 1237, "annotation": {"number": 64, "value": 0}, "group": "control_change"}, {"time": 1241, "annotation": {"number": 64, "value": 127}, "group": "control_change"}, {"time": 1262, "annotation": {"number": 64, "value": 0}, "group": "control_change"}, {"time": 1266, "annotation": {"number": 64, "value": 127}, "group": "control_change"}, {"time": 1285, "annotation": {"number": 64, "value": 0}, "group": "control_change"}, {"time": 1289, "annotation": {"number": 64, "value": 127}, "group": "control_change"}, {"time": 1310, "annotation": {"number": 64, "value": 0}, "group": "control_change"}, {"time": 1313, "annotation": {"number": 64, "value": 127}, "group": "control_change"}, {"time": 1333, "annotation": {"number": 64, "value": 0}, "group": "control_change"}, {"time": 1337, "annotation": {"number": 64, "value": 127}, "group": "control_change"}, {"time": 1358, "annotation": {"number": 64, "value": 0}, "group": "control_change"}, {"time": 1362, "annotation": {"number": 64, "value": 127}, "group": "control_change"}, {"time": 1381, "annotation": {"number": 64, "value": 0}, "group": "control_change"}, {"time": 1385, "annotation": {"number": 64, "value": 127}, "group": "control_change"}, {"time": 1406, "annotation": {"number": 64, "value": 0}, "group": "control_change"}, {"time": 1410, "annotation": {"number": 64, "value": 127}, "group": "control_change"}, {"time": 1430, "annotation": {"number": 64, "value": 0}, "group": "control_change"}, {"time": 1434, "annotation": {"number": 64, "value": 127}, "group": "control_change"}, {"time": 1454, "annotation": {"number": 64, "value": 0}, "group": "control_change"}, {"time": 1458, "annotation": {"number": 64, "value": 127}, "group": "control_change"}, {"time": 1478, "annotation": {"number": 64, "value": 0}, "group": "control_change"}, {"time": 1482, "annotation": {"number": 64, "value": 127}, "group": "control_change"}, {"time": 1502, "annotation": {"number": 64, "value": 0}, "group": "control_change"}, {"time": 1506, "annotation": {"number": 64, "value": 127}, "group": "control_change"}, {"time": 1526, "annotation": {"number": 64, "value": 0}, "group": "control_change"}, {"time": 1530, "annotation": {"number": 64, "value": 127}, "group": "control_change"}, {"time": 1550, "annotation": {"number": 64, "value": 0}, "group": "control_change"}, {"time": 1553, "annotation": {"number": 64, "value": 127}, "group": "control_change"}, {"time": 1574, "annotation": {"number": 64, "value": 0}, "group": "control_change"}, {"time": 1577, "annotation": {"number": 64, "value": 127}, "group": "control_change"}, {"time": 1599, "annotation": {"number": 64, "value": 0}, "group": "control_change"}, {"time": 1602, "annotation": {"number": 64, "value": 127}, "group": "control_change"}, {"time": 1621, "annotation": {"number": 64, "value": 0}, "group": "control_change"}, {"time": 1626, "annotation": {"number": 64, "value": 127}, "group": "control_change"}, {"time": 1646, "annotation": {"number": 64, "value": 0}, "group": "control_change"}, {"time": 1650, "annotation": {"number": 64, "value": 127}, "group": "control_change"}, {"time": 1670, "annotation": {"number": 64, "value": 0}, "group": "control_change"}, {"time": 1674, "annotation": {"number": 64, "value": 127}, "group": "control_change"}, {"time": 1695, "annotation": {"number": 64, "value": 0}, "group": "control_change"}, {"time": 1697, "annotation": {"number": 64, "value": 127}, "group": "control_change"}, {"time": 1718, "annotation": {"number": 64, "value": 0}, "group": "control_change"}, {"time": 1721, "annotation": {"number": 64, "value": 127}, "group": "control_change"}, {"time": 1742, "annotation": {"number": 64, "value": 0}, "group": "control_change"}, {"time": 1745, "annotation": {"number": 64, "value": 127}, "group": "control_change"}, {"time": 1765, "annotation": {"number": 64, "value": 0}, "group": "control_change"}, {"time": 1769, "annotation": {"number": 64, "value": 127}, "group": "control_change"}, {"time": 1789, "annotation": {"number": 64, "value": 0}, "group": "control_change"}, {"time": 1793, "annotation": {"number": 64, "value": 127}, "group": "control_change"}, {"time": 1812, "annotation": {"number": 64, "value": 0}, "group": "control_change"}, {"time": 1817, "annotation": {"number": 64, "value": 127}, "group": "control_change"}, {"time": 1837, "annotation": {"number": 64, "value": 0}, "group": "control_change"}, {"time": 1841, "annotation": {"number": 64, "value": 127}, "group": "control_change"}, {"time": 1861, "annotation": {"number": 64, "value": 0}, "group": "control_change"}, {"time": 1866, "annotation": {"number": 64, "value": 127}, "group": "control_change"}, {"time": 1888, "annotation": {"number": 64, "value": 0}, "group": "control_change"}, {"time": 1901, "annotation": {"number": 64, "value": 127}, "group": "control_change"}, {"time": 1908, "annotation": {"number": 64, "value": 0}, "group": "control_change"}, {"time": 1913, "annotation": {"number": 64, "value": 127}, "group": "control_change"}, {"time": 1934, "annotation": {"number": 64, "value": 0}, "group": "control_change"}, {"time": 1938, "annotation": {"number": 64, "value": 127}, "group": "control_change"}, {"time": 1957, "annotation": {"number": 64, "value": 0}, "group": "control_change"}, {"time": 1961, "annotation": {"number": 64, "value": 127}, "group": "control_change"}, {"time": 1982, "annotation": {"number": 64, "value": 0}, "group": "control_change"}, {"time": 1986, "annotation": {"number": 64, "value": 127}, "group": "control_change"}, {"time": 2005, "annotation": {"number": 64, "value": 0}, "group": "control_change"}, {"time": 2010, "annotation": {"number": 64, "value": 127}, "group": "control_change"}, {"time": 2030, "annotation": {"number": 64, "value": 0}, "group": "control_change"}, {"time": 2034, "annotation": {"number": 64, "value": 127}, "group": "control_change"}, {"time": 2054, "annotation": {"number": 64, "value": 0}, "group": "control_change"}, {"time": 2058, "annotation": {"number": 64, "value": 127}, "group": "control_change"}, {"time": 2078, "annotation": {"number": 64, "value": 0}, "group": "control_change"}, {"time": 2082, "annotation": {"number": 64, "value": 127}, "group": "control_change"}, {"time": 2102, "annotation": {"number": 64, "value": 0}, "group": "control_change"}, {"time": 2106, "annotation": {"number": 64, "value": 127}, "group": "control_change"}, {"time": 2126, "annotation": {"number": 64, "value": 0}, "group": "control_change"}, {"time": 2130, "annotation": {"number": 64, "value": 127}, "group": "control_change"}, {"time": 2150, "annotation": {"number": 64, "value": 0}, "group": "control_change"}, {"time": 2154, "annotation": {"number": 64, "value": 127}, "group": "control_change"}, {"time": 2175, "annotation": {"number": 64, "value": 0}, "group": "control_change"}, {"time": 2178, "annotation": {"number": 64, "value": 127}, "group": "control_change"}, {"time": 2198, "annotation": {"number": 64, "value": 0}, "group": "control_change"}, {"time": 2202, "annotation": {"number": 64, "value": 127}, "group": "control_change"}, {"time": 2222, "annotation": {"number": 64, "value": 0}, "group": "control_change"}, {"time": 2225, "annotation": {"number": 64, "value": 127}, "group": "control_change"}, {"time": 2246, "annotation": {"number": 64, "value": 0}, "group": "control_change"}, {"time": 2250, "annotation": {"number": 64, "value": 127}, "group": "control_change"}, {"time": 2265, "annotation": {"number": 64, "value": 0}, "group": "control_change"}, {"time": 2265, "annotation": {"number": 64, "value": 127}, "group": "control_change"}, {"time": 2271, "annotation": {"number": 64, "value": 0}, "group": "control_change"}, {"time": 2273, "annotation": {"number": 64, "value": 127}, "group": "control_change"}, {"time": 2294, "annotation": {"number": 64, "value": 0}, "group": "control_change"}, {"time": 2298, "annotation": {"number": 64, "value": 127}, "group": "control_change"}, {"time": 2318, "annotation": {"number": 64, "value": 0}, "group": "control_change"}, {"time": 2321, "annotation": {"number": 64, "value": 127}, "group": "control_change"}, {"time": 2341, "annotation": {"number": 64, "value": 0}, "group": "control_change"}, {"time": 2345, "annotation": {"number": 64, "value": 127}, "group": "control_change"}, {"time": 2366, "annotation": {"number": 64, "value": 0}, "group": "control_change"}, {"time": 2369, "annotation": {"number": 64, "value": 127}, "group": "control_change"}, {"time": 2389, "annotation": {"number": 64, "value": 0}, "group": "control_change"}, {"time": 2393, "annotation": {"number": 64, "value": 127}, "group": "control_change"}, {"time": 2414, "annotation": {"number": 64, "value": 0}, "group": "control_change"}, {"time": 2418, "annotation": {"number": 64, "value": 127}, "group": "control_change"}, {"time": 2437, "annotation": {"number": 64, "value": 0}, "group": "control_change"}, {"time": 2441, "annotation": {"number": 64, "value": 127}, "group": "control_change"}, {"time": 2462, "annotation": {"number": 64, "value": 0}, "group": "control_change"}, {"time": 2465, "annotation": {"number": 64, "value": 127}, "group": "control_change"}, {"time": 2485, "annotation": {"number": 64, "value": 0}, "group": "control_change"}, {"time": 2489, "annotation": {"number": 64, "value": 127}, "group": "control_change"}, {"time": 2510, "annotation": {"number": 64, "value": 0}, "group": "control_change"}, {"time": 2514, "annotation": {"number": 64, "value": 127}, "group": "control_change"}, {"time": 2533, "annotation": {"number": 64, "value": 0}, "group": "control_change"}, {"time": 2537, "annotation": {"number": 64, "value": 127}, "group": "control_change"}, {"time": 2558, "annotation": {"number": 64, "value": 0}, "group": "control_change"}, {"time": 2562, "annotation": {"number": 64, "value": 127}, "group": "control_change"}, {"time": 2582, "annotation": {"number": 64, "value": 0}, "group": "control_change"}, {"time": 2586, "annotation": {"number": 64, "value": 127}, "group": "control_change"}, {"time": 2606, "annotation": {"number": 64, "value": 0}, "group": "control_change"}, {"time": 2610, "annotation": {"number": 64, "value": 127}, "group": "control_change"}, {"time": 2630, "annotation": {"number": 64, "value": 0}, "group": "control_change"}, {"time": 2634, "annotation": {"number": 64, "value": 127}, "group": "control_change"}, {"time": 2654, "annotation": {"number": 64, "value": 0}, "group": "control_change"}, {"time": 2658, "annotation": {"number": 64, "value": 127}, "group": "control_change"}, {"time": 2678, "annotation": {"number": 64, "value": 0}, "group": "control_change"}, {"time": 2705, "annotation": {"number": 64, "value": 127}, "group": "control_change"}, {"time": 2719, "annotation": {"number": 64, "value": 0}, "group": "control_change"}, {"time": 2724, "annotation": {"number": 64, "value": 127}, "group": "control_change"}, {"time": 2768, "annotation": {"number": 64, "value": 127}, "group": "control_change"}, {"time": 2785, "annotation": {"number": 64, "value": 0}, "group": "control_change"}, {"time": 2801, "annotation": {"number": 64, "value": 127}, "group": "control_change"}, {"time": 2812, "annotation": {"number": 64, "value": 0}, "group": "control_change"}, {"time": 2816, "annotation": {"number": 64, "value": 127}, "group": "control_change"}, {"time": 2835, "annotation": {"number": 64, "value": 0}, "group": "control_change"}, {"time": 2840, "annotation": {"number": 64, "value": 127}, "group": "control_change"}, {"time": 2860, "annotation": {"number": 64, "value": 0}, "group": "control_change"}, {"time": 2864, "annotation": {"number": 64, "value": 127}, "group": "control_change"}, {"time": 2882, "annotation": {"number": 64, "value": 0}, "group": "control_change"}, {"time": 2888, "annotation": {"number": 64, "value": 127}, "group": "control_change"}, {"time": 2939, "annotation": {"number": 64, "value": 0}, "group": "control_change"}, {"time": 2947, "annotation": {"number": 64, "value": 127}, "group": "control_change"}]}]}