{"metadata": {"schema_version": "0.2", "title": "None", "source_filename": "456.mid", "source_format": "midi"}, "resolution": 12, "tempos": [{"time": 0, "qpm": 61.99999586666694}, {"time": 144, "qpm": 50.0}, {"time": 156, "qpm": 48.0}, {"time": 168, "qpm": 58.00004253336452}, {"time": 180, "qpm": 62.99999685000016}, {"time": 192, "qpm": 62.5}, {"time": 216, "qpm": 62.99999685000016}, {"time": 630, "qpm": 62.5}, {"time": 906, "qpm": 61.99999586666694}, {"time": 1488, "qpm": 63.49999259166753}, {"time": 1734, "qpm": 64.0}, {"time": 1902, "qpm": 64.20009886815225}, {"time": 2370, "qpm": 63.79999128066786}, {"time": 2556, "qpm": 48.0}, {"time": 2568, "qpm": 62.99999685000016}, {"time": 2580, "qpm": 61.99999586666694}], "key_signatures": [{"time": 0, "root": 0, "mode": "major"}], "time_signatures": [{"time": 0, "numerator": 4, "denominator": 4}], "tracks": [{"program": 0, "is_drum": false, "name": "MELODY", "notes": [{"time": 38, "pitch": 70, "duration": 3, "velocity": 112}, {"time": 41, "pitch": 71, "duration": 4, "velocity": 97}, {"time": 44, "pitch": 70, "duration": 4, "velocity": 117}, {"time": 47, "pitch": 68, "duration": 2, "velocity": 112}, {"time": 50, "pitch": 66, "duration": 3, "velocity": 112}, {"time": 53, "pitch": 63, "duration": 9, "velocity": 112}, {"time": 62, "pitch": 68, "duration": 7, "velocity": 122}, {"time": 95, "pitch": 63, "duration": 4, "velocity": 127}, {"time": 101, "pitch": 66, "duration": 16, "velocity": 127}, {"time": 119, "pitch": 68, "duration": 5, "velocity": 107}, {"time": 125, "pitch": 63, "duration": 7, "velocity": 112}, {"time": 131, "pitch": 61, "duration": 4, "velocity": 90}, {"time": 134, "pitch": 63, "duration": 13, "velocity": 97}, {"time": 251, "pitch": 61, "duration": 5, "velocity": 107}, {"time": 257, "pitch": 56, "duration": 5, "velocity": 112}, {"time": 263, "pitch": 58, "duration": 23, "velocity": 97}, {"time": 299, "pitch": 65, "duration": 3, "velocity": 96}, {"time": 302, "pitch": 66, "duration": 4, "velocity": 82}, {"time": 305, "pitch": 61, "duration": 4, "velocity": 100}, {"time": 311, "pitch": 63, "duration": 17, "velocity": 100}, {"time": 350, "pitch": 58, "duration": 2, "velocity": 82}, {"time": 353, "pitch": 59, "duration": 3, "velocity": 85}, {"time": 356, "pitch": 58, "duration": 2, "velocity": 86}, {"time": 359, "pitch": 59, "duration": 3, "velocity": 78}, {"time": 362, "pitch": 58, "duration": 2, "velocity": 74}, {"time": 365, "pitch": 59, "duration": 9, "velocity": 82}, {"time": 389, "pitch": 66, "duration": 3, "velocity": 99}, {"time": 392, "pitch": 65, "duration": 3, "velocity": 99}, {"time": 401, "pitch": 56, "duration": 5, "velocity": 102}, {"time": 404, "pitch": 58, "duration": 21, "velocity": 92}, {"time": 449, "pitch": 63, "duration": 4, "velocity": 115}, {"time": 455, "pitch": 61, "duration": 3, "velocity": 110}, {"time": 458, "pitch": 63, "duration": 15, "velocity": 110}, {"time": 473, "pitch": 65, "duration": 6, "velocity": 95}, {"time": 479, "pitch": 66, "duration": 3, "velocity": 105}, {"time": 482, "pitch": 65, "duration": 6, "velocity": 110}, {"time": 488, "pitch": 63, "duration": 6, "velocity": 115}, {"time": 494, "pitch": 63, "duration": 6, "velocity": 115}, {"time": 500, "pitch": 61, "duration": 9, "velocity": 86}, {"time": 512, "pitch": 61, "duration": 2, "velocity": 93}, {"time": 515, "pitch": 61, "duration": 2, "velocity": 97}, {"time": 518, "pitch": 61, "duration": 2, "velocity": 99}, {"time": 521, "pitch": 63, "duration": 3, "velocity": 127}, {"time": 527, "pitch": 64, "duration": 2, "velocity": 96}, {"time": 530, "pitch": 63, "duration": 3, "velocity": 117}, {"time": 536, "pitch": 61, "duration": 4, "velocity": 112}, {"time": 542, "pitch": 61, "duration": 5, "velocity": 112}, {"time": 548, "pitch": 59, "duration": 10, "velocity": 81}, {"time": 560, "pitch": 59, "duration": 2, "velocity": 89}, {"time": 563, "pitch": 59, "duration": 2, "velocity": 81}, {"time": 566, "pitch": 59, "duration": 2, "velocity": 79}, {"time": 569, "pitch": 61, "duration": 3, "velocity": 117}, {"time": 572, "pitch": 62, "duration": 7, "velocity": 89}, {"time": 581, "pitch": 61, "duration": 3, "velocity": 127}, {"time": 584, "pitch": 59, "duration": 3, "velocity": 93}, {"time": 590, "pitch": 61, "duration": 2, "velocity": 102}, {"time": 593, "pitch": 58, "duration": 6, "velocity": 107}, {"time": 599, "pitch": 56, "duration": 18, "velocity": 89}, {"time": 635, "pitch": 61, "duration": 2, "velocity": 112}, {"time": 638, "pitch": 61, "duration": 2, "velocity": 99}, {"time": 641, "pitch": 56, "duration": 4, "velocity": 93}, {"time": 644, "pitch": 58, "duration": 20, "velocity": 82}, {"time": 680, "pitch": 65, "duration": 3, "velocity": 100}, {"time": 683, "pitch": 66, "duration": 3, "velocity": 112}, {"time": 689, "pitch": 61, "duration": 6, "velocity": 112}, {"time": 695, "pitch": 63, "duration": 27, "velocity": 92}, {"time": 734, "pitch": 58, "duration": 2, "velocity": 112}, {"time": 737, "pitch": 59, "duration": 2, "velocity": 99}, {"time": 740, "pitch": 58, "duration": 2, "velocity": 99}, {"time": 743, "pitch": 59, "duration": 2, "velocity": 92}, {"time": 746, "pitch": 58, "duration": 2, "velocity": 81}, {"time": 749, "pitch": 59, "duration": 13, "velocity": 112}, {"time": 773, "pitch": 65, "duration": 2, "velocity": 96}, {"time": 776, "pitch": 70, "duration": 6, "velocity": 122}, {"time": 785, "pitch": 63, "duration": 6, "velocity": 117}, {"time": 791, "pitch": 58, "duration": 4, "velocity": 59}, {"time": 794, "pitch": 63, "duration": 6, "velocity": 107}, {"time": 797, "pitch": 61, "duration": 20, "velocity": 102}, {"time": 827, "pitch": 61, "duration": 2, "velocity": 107}, {"time": 830, "pitch": 61, "duration": 2, "velocity": 102}, {"time": 833, "pitch": 63, "duration": 6, "velocity": 127}, {"time": 839, "pitch": 61, "duration": 4, "velocity": 112}, {"time": 842, "pitch": 63, "duration": 9, "velocity": 127}, {"time": 851, "pitch": 63, "duration": 2, "velocity": 112}, {"time": 854, "pitch": 63, "duration": 2, "velocity": 102}, {"time": 857, "pitch": 65, "duration": 2, "velocity": 97}, {"time": 860, "pitch": 65, "duration": 2, "velocity": 95}, {"time": 863, "pitch": 63, "duration": 2, "velocity": 100}, {"time": 866, "pitch": 65, "duration": 7, "velocity": 122}, {"time": 875, "pitch": 61, "duration": 2, "velocity": 107}, {"time": 878, "pitch": 61, "duration": 2, "velocity": 102}, {"time": 881, "pitch": 70, "duration": 6, "velocity": 117}, {"time": 887, "pitch": 68, "duration": 6, "velocity": 127}, {"time": 893, "pitch": 65, "duration": 6, "velocity": 95}, {"time": 893, "pitch": 66, "duration": 2, "velocity": 122}, {"time": 902, "pitch": 63, "duration": 7, "velocity": 112}, {"time": 908, "pitch": 58, "duration": 15, "velocity": 90}, {"time": 923, "pitch": 58, "duration": 2, "velocity": 107}, {"time": 926, "pitch": 58, "duration": 2, "velocity": 100}, {"time": 929, "pitch": 59, "duration": 4, "velocity": 112}, {"time": 935, "pitch": 58, "duration": 2, "velocity": 117}, {"time": 938, "pitch": 59, "duration": 7, "velocity": 102}, {"time": 944, "pitch": 61, "duration": 4, "velocity": 122}, {"time": 950, "pitch": 63, "duration": 5, "velocity": 127}, {"time": 956, "pitch": 66, "duration": 2, "velocity": 117}, {"time": 962, "pitch": 66, "duration": 4, "velocity": 107}, {"time": 968, "pitch": 70, "duration": 7, "velocity": 117}, {"time": 977, "pitch": 68, "duration": 4, "velocity": 127}, {"time": 980, "pitch": 66, "duration": 31, "velocity": 90}, {"time": 1010, "pitch": 70, "duration": 2, "velocity": 117}, {"time": 1013, "pitch": 71, "duration": 3, "velocity": 127}, {"time": 1016, "pitch": 70, "duration": 2, "velocity": 122}, {"time": 1019, "pitch": 68, "duration": 3, "velocity": 127}, {"time": 1022, "pitch": 66, "duration": 2, "velocity": 107}, {"time": 1025, "pitch": 63, "duration": 7, "velocity": 127}, {"time": 1034, "pitch": 68, "duration": 17, "velocity": 127}, {"time": 1058, "pitch": 68, "duration": 2, "velocity": 122}, {"time": 1061, "pitch": 70, "duration": 2, "velocity": 117}, {"time": 1064, "pitch": 68, "duration": 2, "velocity": 117}, {"time": 1067, "pitch": 66, "duration": 2, "velocity": 127}, {"time": 1070, "pitch": 63, "duration": 2, "velocity": 117}, {"time": 1073, "pitch": 61, "duration": 4, "velocity": 122}, {"time": 1076, "pitch": 61, "duration": 1, "velocity": 127}, {"time": 1079, "pitch": 61, "duration": 2, "velocity": 127}, {"time": 1082, "pitch": 61, "duration": 2, "velocity": 117}, {"time": 1085, "pitch": 61, "duration": 2, "velocity": 122}, {"time": 1088, "pitch": 61, "duration": 4, "velocity": 117}, {"time": 1094, "pitch": 58, "duration": 2, "velocity": 102}, {"time": 1097, "pitch": 68, "duration": 2, "velocity": 127}, {"time": 1100, "pitch": 66, "duration": 2, "velocity": 107}, {"time": 1103, "pitch": 66, "duration": 8, "velocity": 122}, {"time": 1115, "pitch": 66, "duration": 2, "velocity": 122}, {"time": 1118, "pitch": 65, "duration": 2, "velocity": 96}, {"time": 1121, "pitch": 66, "duration": 4, "velocity": 127}, {"time": 1127, "pitch": 59, "duration": 2, "velocity": 112}, {"time": 1130, "pitch": 59, "duration": 6, "velocity": 102}, {"time": 1139, "pitch": 66, "duration": 2, "velocity": 127}, {"time": 1142, "pitch": 68, "duration": 2, "velocity": 107}, {"time": 1145, "pitch": 66, "duration": 4, "velocity": 127}, {"time": 1151, "pitch": 61, "duration": 2, "velocity": 107}, {"time": 1154, "pitch": 61, "duration": 5, "velocity": 117}, {"time": 1160, "pitch": 61, "duration": 1, "velocity": 127}, {"time": 1163, "pitch": 61, "duration": 1, "velocity": 127}, {"time": 1166, "pitch": 61, "duration": 2, "velocity": 117}, {"time": 1169, "pitch": 63, "duration": 3, "velocity": 127}, {"time": 1172, "pitch": 66, "duration": 3, "velocity": 117}, {"time": 1178, "pitch": 66, "duration": 2, "velocity": 122}, {"time": 1181, "pitch": 70, "duration": 4, "velocity": 127}, {"time": 1184, "pitch": 68, "duration": 3, "velocity": 127}, {"time": 1190, "pitch": 66, "duration": 2, "velocity": 117}, {"time": 1193, "pitch": 68, "duration": 11, "velocity": 127}, {"time": 1202, "pitch": 70, "duration": 2, "velocity": 112}, {"time": 1205, "pitch": 71, "duration": 4, "velocity": 102}, {"time": 1208, "pitch": 70, "duration": 2, "velocity": 117}, {"time": 1211, "pitch": 68, "duration": 3, "velocity": 127}, {"time": 1214, "pitch": 66, "duration": 2, "velocity": 102}, {"time": 1217, "pitch": 63, "duration": 5, "velocity": 127}, {"time": 1223, "pitch": 70, "duration": 3, "velocity": 117}, {"time": 1226, "pitch": 68, "duration": 14, "velocity": 117}, {"time": 1250, "pitch": 68, "duration": 2, "velocity": 127}, {"time": 1253, "pitch": 70, "duration": 2, "velocity": 127}, {"time": 1256, "pitch": 68, "duration": 3, "velocity": 127}, {"time": 1259, "pitch": 66, "duration": 2, "velocity": 122}, {"time": 1262, "pitch": 63, "duration": 2, "velocity": 122}, {"time": 1265, "pitch": 61, "duration": 4, "velocity": 127}, {"time": 1268, "pitch": 60, "duration": 2, "velocity": 117}, {"time": 1271, "pitch": 61, "duration": 2, "velocity": 127}, {"time": 1274, "pitch": 60, "duration": 2, "velocity": 112}, {"time": 1277, "pitch": 61, "duration": 2, "velocity": 127}, {"time": 1286, "pitch": 73, "duration": 2, "velocity": 127}, {"time": 1289, "pitch": 68, "duration": 6, "velocity": 117}, {"time": 1295, "pitch": 70, "duration": 10, "velocity": 127}, {"time": 1307, "pitch": 68, "duration": 2, "velocity": 127}, {"time": 1310, "pitch": 70, "duration": 2, "velocity": 117}, {"time": 1313, "pitch": 71, "duration": 4, "velocity": 112}, {"time": 1319, "pitch": 70, "duration": 2, "velocity": 127}, {"time": 1322, "pitch": 71, "duration": 4, "velocity": 127}, {"time": 1331, "pitch": 70, "duration": 3, "velocity": 122}, {"time": 1334, "pitch": 71, "duration": 3, "velocity": 92}, {"time": 1337, "pitch": 73, "duration": 4, "velocity": 122}, {"time": 1343, "pitch": 66, "duration": 2, "velocity": 112}, {"time": 1346, "pitch": 66, "duration": 4, "velocity": 127}, {"time": 1352, "pitch": 61, "duration": 2, "velocity": 117}, {"time": 1355, "pitch": 61, "duration": 2, "velocity": 122}, {"time": 1358, "pitch": 61, "duration": 2, "velocity": 112}, {"time": 1361, "pitch": 63, "duration": 5, "velocity": 127}, {"time": 1367, "pitch": 66, "duration": 2, "velocity": 127}, {"time": 1370, "pitch": 66, "duration": 5, "velocity": 112}, {"time": 1385, "pitch": 70, "duration": 5, "velocity": 127}, {"time": 1391, "pitch": 68, "duration": 1, "velocity": 122}, {"time": 1394, "pitch": 66, "duration": 7, "velocity": 127}, {"time": 1400, "pitch": 65, "duration": 7, "velocity": 112}, {"time": 1409, "pitch": 66, "duration": 21, "velocity": 117}, {"time": 1547, "pitch": 61, "duration": 2, "velocity": 127}, {"time": 1550, "pitch": 61, "duration": 2, "velocity": 102}, {"time": 1553, "pitch": 56, "duration": 7, "velocity": 107}, {"time": 1559, "pitch": 58, "duration": 17, "velocity": 117}, {"time": 1595, "pitch": 65, "duration": 2, "velocity": 102}, {"time": 1598, "pitch": 66, "duration": 4, "velocity": 112}, {"time": 1604, "pitch": 61, "duration": 4, "velocity": 117}, {"time": 1610, "pitch": 63, "duration": 27, "velocity": 122}, {"time": 1646, "pitch": 58, "duration": 1, "velocity": 102}, {"time": 1649, "pitch": 59, "duration": 2, "velocity": 95}, {"time": 1652, "pitch": 58, "duration": 2, "velocity": 102}, {"time": 1655, "pitch": 59, "duration": 2, "velocity": 93}, {"time": 1658, "pitch": 58, "duration": 2, "velocity": 93}, {"time": 1661, "pitch": 59, "duration": 4, "velocity": 102}, {"time": 1685, "pitch": 65, "duration": 3, "velocity": 107}, {"time": 1688, "pitch": 70, "duration": 5, "velocity": 122}, {"time": 1697, "pitch": 63, "duration": 6, "velocity": 127}, {"time": 1703, "pitch": 58, "duration": 3, "velocity": 107}, {"time": 1706, "pitch": 63, "duration": 6, "velocity": 117}, {"time": 1712, "pitch": 61, "duration": 18, "velocity": 112}, {"time": 1739, "pitch": 61, "duration": 2, "velocity": 127}, {"time": 1742, "pitch": 61, "duration": 2, "velocity": 112}, {"time": 1745, "pitch": 63, "duration": 4, "velocity": 127}, {"time": 1751, "pitch": 61, "duration": 2, "velocity": 122}, {"time": 1754, "pitch": 63, "duration": 10, "velocity": 122}, {"time": 1763, "pitch": 63, "duration": 1, "velocity": 127}, {"time": 1766, "pitch": 63, "duration": 2, "velocity": 107}, {"time": 1769, "pitch": 65, "duration": 2, "velocity": 107}, {"time": 1772, "pitch": 65, "duration": 2, "velocity": 96}, {"time": 1775, "pitch": 63, "duration": 2, "velocity": 107}, {"time": 1778, "pitch": 65, "duration": 5, "velocity": 117}, {"time": 1787, "pitch": 61, "duration": 2, "velocity": 117}, {"time": 1790, "pitch": 61, "duration": 2, "velocity": 107}, {"time": 1793, "pitch": 70, "duration": 5, "velocity": 117}, {"time": 1799, "pitch": 68, "duration": 2, "velocity": 96}, {"time": 1805, "pitch": 66, "duration": 3, "velocity": 127}, {"time": 1808, "pitch": 65, "duration": 7, "velocity": 122}, {"time": 1817, "pitch": 63, "duration": 8, "velocity": 127}, {"time": 1823, "pitch": 58, "duration": 12, "velocity": 102}, {"time": 1835, "pitch": 58, "duration": 2, "velocity": 112}, {"time": 1838, "pitch": 58, "duration": 2, "velocity": 97}, {"time": 1841, "pitch": 59, "duration": 7, "velocity": 112}, {"time": 1847, "pitch": 58, "duration": 3, "velocity": 102}, {"time": 1850, "pitch": 59, "duration": 8, "velocity": 100}, {"time": 1856, "pitch": 61, "duration": 4, "velocity": 102}, {"time": 1862, "pitch": 63, "duration": 5, "velocity": 122}, {"time": 1871, "pitch": 66, "duration": 3, "velocity": 117}, {"time": 1874, "pitch": 66, "duration": 3, "velocity": 122}, {"time": 1880, "pitch": 70, "duration": 5, "velocity": 122}, {"time": 1886, "pitch": 66, "duration": 5, "velocity": 127}, {"time": 1892, "pitch": 68, "duration": 9, "velocity": 117}, {"time": 1901, "pitch": 66, "duration": 21, "velocity": 107}, {"time": 1922, "pitch": 70, "duration": 2, "velocity": 117}, {"time": 1925, "pitch": 71, "duration": 3, "velocity": 127}, {"time": 1928, "pitch": 70, "duration": 2, "velocity": 122}, {"time": 1931, "pitch": 68, "duration": 3, "velocity": 127}, {"time": 1934, "pitch": 66, "duration": 2, "velocity": 107}, {"time": 1937, "pitch": 63, "duration": 7, "velocity": 127}, {"time": 1946, "pitch": 68, "duration": 17, "velocity": 127}, {"time": 1970, "pitch": 68, "duration": 2, "velocity": 122}, {"time": 1973, "pitch": 70, "duration": 2, "velocity": 117}, {"time": 1976, "pitch": 68, "duration": 2, "velocity": 117}, {"time": 1979, "pitch": 66, "duration": 2, "velocity": 127}, {"time": 1982, "pitch": 63, "duration": 2, "velocity": 117}, {"time": 1985, "pitch": 61, "duration": 4, "velocity": 122}, {"time": 1988, "pitch": 61, "duration": 1, "velocity": 127}, {"time": 1991, "pitch": 61, "duration": 2, "velocity": 127}, {"time": 1994, "pitch": 61, "duration": 2, "velocity": 117}, {"time": 1997, "pitch": 61, "duration": 2, "velocity": 122}, {"time": 2000, "pitch": 61, "duration": 4, "velocity": 117}, {"time": 2006, "pitch": 58, "duration": 2, "velocity": 102}, {"time": 2009, "pitch": 68, "duration": 2, "velocity": 127}, {"time": 2012, "pitch": 66, "duration": 2, "velocity": 107}, {"time": 2015, "pitch": 66, "duration": 8, "velocity": 122}, {"time": 2027, "pitch": 66, "duration": 2, "velocity": 122}, {"time": 2030, "pitch": 65, "duration": 2, "velocity": 96}, {"time": 2033, "pitch": 66, "duration": 4, "velocity": 127}, {"time": 2039, "pitch": 59, "duration": 2, "velocity": 112}, {"time": 2042, "pitch": 59, "duration": 6, "velocity": 102}, {"time": 2051, "pitch": 66, "duration": 2, "velocity": 127}, {"time": 2054, "pitch": 68, "duration": 2, "velocity": 107}, {"time": 2057, "pitch": 66, "duration": 4, "velocity": 127}, {"time": 2063, "pitch": 61, "duration": 2, "velocity": 107}, {"time": 2066, "pitch": 61, "duration": 5, "velocity": 117}, {"time": 2072, "pitch": 61, "duration": 1, "velocity": 127}, {"time": 2075, "pitch": 61, "duration": 1, "velocity": 127}, {"time": 2078, "pitch": 61, "duration": 2, "velocity": 117}, {"time": 2081, "pitch": 63, "duration": 3, "velocity": 127}, {"time": 2084, "pitch": 66, "duration": 3, "velocity": 117}, {"time": 2090, "pitch": 66, "duration": 2, "velocity": 122}, {"time": 2093, "pitch": 70, "duration": 4, "velocity": 127}, {"time": 2096, "pitch": 68, "duration": 3, "velocity": 127}, {"time": 2102, "pitch": 66, "duration": 2, "velocity": 117}, {"time": 2105, "pitch": 68, "duration": 11, "velocity": 127}, {"time": 2114, "pitch": 70, "duration": 2, "velocity": 112}, {"time": 2117, "pitch": 71, "duration": 4, "velocity": 102}, {"time": 2120, "pitch": 70, "duration": 2, "velocity": 117}, {"time": 2123, "pitch": 68, "duration": 3, "velocity": 127}, {"time": 2126, "pitch": 66, "duration": 2, "velocity": 102}, {"time": 2129, "pitch": 63, "duration": 5, "velocity": 127}, {"time": 2135, "pitch": 70, "duration": 3, "velocity": 117}, {"time": 2138, "pitch": 68, "duration": 14, "velocity": 117}, {"time": 2162, "pitch": 68, "duration": 2, "velocity": 127}, {"time": 2165, "pitch": 70, "duration": 2, "velocity": 127}, {"time": 2168, "pitch": 68, "duration": 3, "velocity": 127}, {"time": 2171, "pitch": 66, "duration": 2, "velocity": 122}, {"time": 2174, "pitch": 63, "duration": 2, "velocity": 122}, {"time": 2177, "pitch": 61, "duration": 4, "velocity": 127}, {"time": 2180, "pitch": 60, "duration": 2, "velocity": 117}, {"time": 2183, "pitch": 61, "duration": 2, "velocity": 127}, {"time": 2186, "pitch": 60, "duration": 2, "velocity": 112}, {"time": 2189, "pitch": 61, "duration": 2, "velocity": 127}, {"time": 2198, "pitch": 73, "duration": 2, "velocity": 127}, {"time": 2201, "pitch": 68, "duration": 6, "velocity": 117}, {"time": 2207, "pitch": 70, "duration": 10, "velocity": 127}, {"time": 2219, "pitch": 68, "duration": 2, "velocity": 127}, {"time": 2222, "pitch": 70, "duration": 2, "velocity": 117}, {"time": 2225, "pitch": 71, "duration": 4, "velocity": 112}, {"time": 2231, "pitch": 70, "duration": 2, "velocity": 127}, {"time": 2234, "pitch": 71, "duration": 4, "velocity": 127}, {"time": 2243, "pitch": 70, "duration": 3, "velocity": 122}, {"time": 2246, "pitch": 71, "duration": 3, "velocity": 92}, {"time": 2249, "pitch": 73, "duration": 4, "velocity": 122}, {"time": 2255, "pitch": 66, "duration": 2, "velocity": 112}, {"time": 2258, "pitch": 66, "duration": 4, "velocity": 127}, {"time": 2264, "pitch": 61, "duration": 2, "velocity": 117}, {"time": 2267, "pitch": 61, "duration": 2, "velocity": 122}, {"time": 2270, "pitch": 61, "duration": 2, "velocity": 112}, {"time": 2273, "pitch": 63, "duration": 5, "velocity": 127}, {"time": 2279, "pitch": 66, "duration": 2, "velocity": 127}, {"time": 2282, "pitch": 66, "duration": 5, "velocity": 112}, {"time": 2297, "pitch": 70, "duration": 5, "velocity": 127}, {"time": 2303, "pitch": 68, "duration": 1, "velocity": 122}, {"time": 2306, "pitch": 66, "duration": 7, "velocity": 127}, {"time": 2312, "pitch": 65, "duration": 7, "velocity": 112}, {"time": 2321, "pitch": 66, "duration": 21, "velocity": 117}, {"time": 2375, "pitch": 63, "duration": 2, "velocity": 117}, {"time": 2378, "pitch": 63, "duration": 2, "velocity": 102}, {"time": 2381, "pitch": 63, "duration": 2, "velocity": 127}, {"time": 2384, "pitch": 65, "duration": 3, "velocity": 97}, {"time": 2387, "pitch": 66, "duration": 2, "velocity": 112}, {"time": 2393, "pitch": 65, "duration": 4, "velocity": 127}, {"time": 2399, "pitch": 65, "duration": 2, "velocity": 127}, {"time": 2402, "pitch": 65, "duration": 2, "velocity": 96}, {"time": 2405, "pitch": 65, "duration": 3, "velocity": 112}, {"time": 2408, "pitch": 66, "duration": 2, "velocity": 127}, {"time": 2411, "pitch": 68, "duration": 2, "velocity": 122}, {"time": 2417, "pitch": 70, "duration": 6, "velocity": 127}, {"time": 2432, "pitch": 73, "duration": 4, "velocity": 127}, {"time": 2438, "pitch": 70, "duration": 2, "velocity": 122}, {"time": 2441, "pitch": 70, "duration": 17, "velocity": 115}, {"time": 2471, "pitch": 66, "duration": 1, "velocity": 127}, {"time": 2474, "pitch": 66, "duration": 1, "velocity": 117}, {"time": 2477, "pitch": 66, "duration": 2, "velocity": 127}, {"time": 2480, "pitch": 68, "duration": 2, "velocity": 127}, {"time": 2483, "pitch": 70, "duration": 2, "velocity": 117}, {"time": 2489, "pitch": 70, "duration": 4, "velocity": 127}, {"time": 2495, "pitch": 70, "duration": 3, "velocity": 127}, {"time": 2501, "pitch": 70, "duration": 2, "velocity": 127}, {"time": 2504, "pitch": 75, "duration": 3, "velocity": 127}, {"time": 2510, "pitch": 70, "duration": 3, "velocity": 127}, {"time": 2513, "pitch": 70, "duration": 6, "velocity": 127}, {"time": 2522, "pitch": 68, "duration": 23, "velocity": 127}, {"time": 2546, "pitch": 70, "duration": 2, "velocity": 117}, {"time": 2549, "pitch": 71, "duration": 3, "velocity": 127}, {"time": 2552, "pitch": 70, "duration": 2, "velocity": 122}, {"time": 2555, "pitch": 68, "duration": 3, "velocity": 127}, {"time": 2558, "pitch": 66, "duration": 2, "velocity": 107}, {"time": 2561, "pitch": 63, "duration": 7, "velocity": 127}, {"time": 2570, "pitch": 68, "duration": 17, "velocity": 127}, {"time": 2594, "pitch": 68, "duration": 2, "velocity": 122}, {"time": 2597, "pitch": 70, "duration": 2, "velocity": 117}, {"time": 2600, "pitch": 68, "duration": 2, "velocity": 117}, {"time": 2603, "pitch": 66, "duration": 2, "velocity": 127}, {"time": 2606, "pitch": 63, "duration": 2, "velocity": 117}, {"time": 2609, "pitch": 61, "duration": 4, "velocity": 122}, {"time": 2612, "pitch": 61, "duration": 1, "velocity": 127}, {"time": 2615, "pitch": 61, "duration": 2, "velocity": 127}, {"time": 2618, "pitch": 61, "duration": 2, "velocity": 117}, {"time": 2621, "pitch": 61, "duration": 2, "velocity": 122}, {"time": 2624, "pitch": 61, "duration": 4, "velocity": 117}, {"time": 2630, "pitch": 58, "duration": 2, "velocity": 102}, {"time": 2633, "pitch": 68, "duration": 2, "velocity": 127}, {"time": 2636, "pitch": 66, "duration": 2, "velocity": 107}, {"time": 2639, "pitch": 66, "duration": 8, "velocity": 122}, {"time": 2651, "pitch": 66, "duration": 2, "velocity": 122}, {"time": 2654, "pitch": 65, "duration": 2, "velocity": 96}, {"time": 2657, "pitch": 66, "duration": 4, "velocity": 127}, {"time": 2663, "pitch": 59, "duration": 2, "velocity": 112}, {"time": 2666, "pitch": 59, "duration": 6, "velocity": 102}, {"time": 2675, "pitch": 66, "duration": 2, "velocity": 127}, {"time": 2678, "pitch": 68, "duration": 2, "velocity": 107}, {"time": 2681, "pitch": 66, "duration": 4, "velocity": 127}, {"time": 2687, "pitch": 61, "duration": 2, "velocity": 107}, {"time": 2690, "pitch": 61, "duration": 5, "velocity": 117}, {"time": 2696, "pitch": 61, "duration": 1, "velocity": 127}, {"time": 2699, "pitch": 61, "duration": 1, "velocity": 127}, {"time": 2702, "pitch": 61, "duration": 2, "velocity": 117}, {"time": 2705, "pitch": 63, "duration": 3, "velocity": 127}, {"time": 2708, "pitch": 66, "duration": 3, "velocity": 117}, {"time": 2714, "pitch": 66, "duration": 2, "velocity": 122}, {"time": 2717, "pitch": 70, "duration": 4, "velocity": 127}, {"time": 2720, "pitch": 73, "duration": 3, "velocity": 127}, {"time": 2726, "pitch": 70, "duration": 2, "velocity": 117}, {"time": 2729, "pitch": 68, "duration": 8, "velocity": 127}, {"time": 2738, "pitch": 70, "duration": 2, "velocity": 112}, {"time": 2741, "pitch": 71, "duration": 4, "velocity": 102}, {"time": 2744, "pitch": 70, "duration": 2, "velocity": 117}, {"time": 2747, "pitch": 68, "duration": 3, "velocity": 127}, {"time": 2750, "pitch": 66, "duration": 2, "velocity": 102}, {"time": 2753, "pitch": 63, "duration": 5, "velocity": 127}, {"time": 2759, "pitch": 75, "duration": 12, "velocity": 127}, {"time": 2774, "pitch": 73, "duration": 8, "velocity": 127}, {"time": 2786, "pitch": 68, "duration": 2, "velocity": 127}, {"time": 2789, "pitch": 70, "duration": 2, "velocity": 127}, {"time": 2792, "pitch": 68, "duration": 3, "velocity": 127}, {"time": 2795, "pitch": 66, "duration": 2, "velocity": 122}, {"time": 2798, "pitch": 63, "duration": 2, "velocity": 122}, {"time": 2801, "pitch": 61, "duration": 4, "velocity": 127}, {"time": 2804, "pitch": 60, "duration": 2, "velocity": 117}, {"time": 2807, "pitch": 61, "duration": 2, "velocity": 127}, {"time": 2810, "pitch": 60, "duration": 2, "velocity": 112}, {"time": 2813, "pitch": 61, "duration": 2, "velocity": 127}, {"time": 2822, "pitch": 73, "duration": 2, "velocity": 127}, {"time": 2825, "pitch": 68, "duration": 6, "velocity": 117}, {"time": 2831, "pitch": 70, "duration": 30, "velocity": 127}, {"time": 2867, "pitch": 68, "duration": 2, "velocity": 127}, {"time": 2870, "pitch": 70, "duration": 2, "velocity": 117}, {"time": 2873, "pitch": 71, "duration": 4, "velocity": 112}, {"time": 2879, "pitch": 70, "duration": 2, "velocity": 127}, {"time": 2882, "pitch": 71, "duration": 4, "velocity": 127}, {"time": 2891, "pitch": 70, "duration": 3, "velocity": 122}, {"time": 2894, "pitch": 71, "duration": 3, "velocity": 92}, {"time": 2897, "pitch": 73, "duration": 4, "velocity": 122}, {"time": 2903, "pitch": 66, "duration": 2, "velocity": 112}, {"time": 2906, "pitch": 66, "duration": 4, "velocity": 127}, {"time": 2912, "pitch": 61, "duration": 2, "velocity": 117}, {"time": 2915, "pitch": 61, "duration": 2, "velocity": 122}, {"time": 2918, "pitch": 61, "duration": 2, "velocity": 112}, {"time": 2921, "pitch": 63, "duration": 5, "velocity": 127}, {"time": 2927, "pitch": 66, "duration": 2, "velocity": 127}, {"time": 2930, "pitch": 66, "duration": 5, "velocity": 112}, {"time": 2945, "pitch": 70, "duration": 5, "velocity": 127}, {"time": 2951, "pitch": 68, "duration": 1, "velocity": 122}, {"time": 2954, "pitch": 66, "duration": 7, "velocity": 127}, {"time": 2960, "pitch": 65, "duration": 7, "velocity": 112}, {"time": 2969, "pitch": 73, "duration": 21, "velocity": 117}, {"time": 2993, "pitch": 72, "duration": 25, "velocity": 127}, {"time": 3017, "pitch": 71, "duration": 12, "velocity": 127}, {"time": 3032, "pitch": 73, "duration": 3, "velocity": 107}, {"time": 3035, "pitch": 68, "duration": 7, "velocity": 102}, {"time": 3041, "pitch": 70, "duration": 32, "velocity": 122}]}, {"program": 0, "is_drum": false, "name": "PIANO", "notes": [{"time": 53, "pitch": 40, "duration": 23, "velocity": 79}, {"time": 56, "pitch": 47, "duration": 23, "velocity": 58}, {"time": 59, "pitch": 52, "duration": 7, "velocity": 69}, {"time": 62, "pitch": 56, "duration": 2, "velocity": 55}, {"time": 62, "pitch": 59, "duration": 10, "velocity": 67}, {"time": 62, "pitch": 63, "duration": 23, "velocity": 69}, {"time": 68, "pitch": 52, "duration": 12, "velocity": 54}, {"time": 71, "pitch": 56, "duration": 14, "velocity": 61}, {"time": 74, "pitch": 59, "duration": 10, "velocity": 69}, {"time": 77, "pitch": 40, "duration": 24, "velocity": 66}, {"time": 80, "pitch": 47, "duration": 21, "velocity": 50}, {"time": 83, "pitch": 52, "duration": 8, "velocity": 73}, {"time": 86, "pitch": 56, "duration": 2, "velocity": 40}, {"time": 86, "pitch": 59, "duration": 11, "velocity": 72}, {"time": 86, "pitch": 63, "duration": 15, "velocity": 68}, {"time": 92, "pitch": 52, "duration": 4, "velocity": 46}, {"time": 95, "pitch": 56, "duration": 7, "velocity": 69}, {"time": 98, "pitch": 59, "duration": 2, "velocity": 33}, {"time": 101, "pitch": 39, "duration": 25, "velocity": 88}, {"time": 104, "pitch": 46, "duration": 22, "velocity": 34}, {"time": 107, "pitch": 51, "duration": 6, "velocity": 81}, {"time": 110, "pitch": 54, "duration": 7, "velocity": 82}, {"time": 110, "pitch": 58, "duration": 11, "velocity": 63}, {"time": 110, "pitch": 63, "duration": 16, "velocity": 71}, {"time": 116, "pitch": 51, "duration": 10, "velocity": 55}, {"time": 119, "pitch": 54, "duration": 7, "velocity": 76}, {"time": 125, "pitch": 44, "duration": 40, "velocity": 74}, {"time": 128, "pitch": 51, "duration": 36, "velocity": 54}, {"time": 131, "pitch": 56, "duration": 7, "velocity": 68}, {"time": 134, "pitch": 60, "duration": 30, "velocity": 62}, {"time": 134, "pitch": 63, "duration": 30, "velocity": 69}, {"time": 134, "pitch": 68, "duration": 30, "velocity": 63}, {"time": 140, "pitch": 56, "duration": 24, "velocity": 31}, {"time": 161, "pitch": 40, "duration": 7, "velocity": 69}, {"time": 161, "pitch": 47, "duration": 1, "velocity": 62}, {"time": 161, "pitch": 52, "duration": 7, "velocity": 79}, {"time": 161, "pitch": 59, "duration": 7, "velocity": 93}, {"time": 161, "pitch": 64, "duration": 7, "velocity": 86}, {"time": 161, "pitch": 68, "duration": 3, "velocity": 90}, {"time": 173, "pitch": 42, "duration": 6, "velocity": 54}, {"time": 173, "pitch": 54, "duration": 6, "velocity": 54}, {"time": 173, "pitch": 61, "duration": 6, "velocity": 93}, {"time": 173, "pitch": 66, "duration": 5, "velocity": 99}, {"time": 173, "pitch": 70, "duration": 6, "velocity": 97}, {"time": 185, "pitch": 38, "duration": 15, "velocity": 88}, {"time": 185, "pitch": 57, "duration": 15, "velocity": 102}, {"time": 185, "pitch": 62, "duration": 15, "velocity": 100}, {"time": 185, "pitch": 66, "duration": 15, "velocity": 100}, {"time": 191, "pitch": 45, "duration": 9, "velocity": 38}, {"time": 197, "pitch": 50, "duration": 3, "velocity": 38}, {"time": 209, "pitch": 37, "duration": 41, "velocity": 99}, {"time": 209, "pitch": 61, "duration": 10, "velocity": 100}, {"time": 209, "pitch": 65, "duration": 18, "velocity": 92}, {"time": 209, "pitch": 68, "duration": 22, "velocity": 99}, {"time": 215, "pitch": 49, "duration": 10, "velocity": 67}, {"time": 221, "pitch": 61, "duration": 11, "velocity": 92}, {"time": 227, "pitch": 49, "duration": 5, "velocity": 54}, {"time": 233, "pitch": 49, "duration": 20, "velocity": 56}, {"time": 233, "pitch": 61, "duration": 23, "velocity": 63}, {"time": 233, "pitch": 65, "duration": 21, "velocity": 69}, {"time": 233, "pitch": 68, "duration": 22, "velocity": 63}, {"time": 257, "pitch": 42, "duration": 38, "velocity": 92}, {"time": 263, "pitch": 54, "duration": 23, "velocity": 42}, {"time": 269, "pitch": 61, "duration": 2, "velocity": 30}, {"time": 269, "pitch": 70, "duration": 21, "velocity": 93}, {"time": 275, "pitch": 61, "duration": 19, "velocity": 59}, {"time": 281, "pitch": 66, "duration": 12, "velocity": 58}, {"time": 287, "pitch": 54, "duration": 12, "velocity": 48}, {"time": 293, "pitch": 70, "duration": 12, "velocity": 122}, {"time": 299, "pitch": 66, "duration": 6, "velocity": 58}, {"time": 305, "pitch": 47, "duration": 42, "velocity": 71}, {"time": 311, "pitch": 54, "duration": 11, "velocity": 53}, {"time": 317, "pitch": 59, "duration": 26, "velocity": 67}, {"time": 323, "pitch": 54, "duration": 21, "velocity": 38}, {"time": 326, "pitch": 66, "duration": 26, "velocity": 72}, {"time": 341, "pitch": 63, "duration": 13, "velocity": 102}, {"time": 344, "pitch": 54, "duration": 2, "velocity": 55}, {"time": 347, "pitch": 59, "duration": 7, "velocity": 59}, {"time": 353, "pitch": 44, "duration": 17, "velocity": 107}, {"time": 359, "pitch": 56, "duration": 9, "velocity": 45}, {"time": 365, "pitch": 59, "duration": 5, "velocity": 83}, {"time": 365, "pitch": 63, "duration": 4, "velocity": 112}, {"time": 368, "pitch": 56, "duration": 1, "velocity": 52}, {"time": 377, "pitch": 37, "duration": 16, "velocity": 85}, {"time": 383, "pitch": 49, "duration": 8, "velocity": 66}, {"time": 386, "pitch": 61, "duration": 7, "velocity": 66}, {"time": 389, "pitch": 68, "duration": 13, "velocity": 122}, {"time": 392, "pitch": 49, "duration": 4, "velocity": 61}, {"time": 395, "pitch": 65, "duration": 7, "velocity": 63}, {"time": 398, "pitch": 61, "duration": 4, "velocity": 63}, {"time": 401, "pitch": 42, "duration": 41, "velocity": 74}, {"time": 407, "pitch": 49, "duration": 34, "velocity": 38}, {"time": 410, "pitch": 54, "duration": 5, "velocity": 67}, {"time": 413, "pitch": 58, "duration": 24, "velocity": 83}, {"time": 416, "pitch": 54, "duration": 15, "velocity": 51}, {"time": 419, "pitch": 61, "duration": 18, "velocity": 41}, {"time": 425, "pitch": 66, "duration": 12, "velocity": 82}, {"time": 431, "pitch": 54, "duration": 7, "velocity": 33}, {"time": 437, "pitch": 58, "duration": 6, "velocity": 72}, {"time": 437, "pitch": 61, "duration": 6, "velocity": 107}, {"time": 437, "pitch": 66, "duration": 8, "velocity": 100}, {"time": 440, "pitch": 54, "duration": 3, "velocity": 62}, {"time": 449, "pitch": 47, "duration": 16, "velocity": 69}, {"time": 449, "pitch": 59, "duration": 11, "velocity": 83}, {"time": 449, "pitch": 63, "duration": 11, "velocity": 89}, {"time": 449, "pitch": 66, "duration": 11, "velocity": 83}, {"time": 455, "pitch": 54, "duration": 11, "velocity": 56}, {"time": 461, "pitch": 59, "duration": 8, "velocity": 73}, {"time": 461, "pitch": 63, "duration": 8, "velocity": 92}, {"time": 461, "pitch": 66, "duration": 12, "velocity": 79}, {"time": 467, "pitch": 54, "duration": 3, "velocity": 26}, {"time": 470, "pitch": 54, "duration": 2, "velocity": 19}, {"time": 473, "pitch": 47, "duration": 21, "velocity": 83}, {"time": 476, "pitch": 54, "duration": 12, "velocity": 63}, {"time": 479, "pitch": 59, "duration": 6, "velocity": 73}, {"time": 482, "pitch": 63, "duration": 15, "velocity": 70}, {"time": 482, "pitch": 66, "duration": 16, "velocity": 66}, {"time": 482, "pitch": 70, "duration": 15, "velocity": 53}, {"time": 488, "pitch": 54, "duration": 5, "velocity": 64}, {"time": 491, "pitch": 59, "duration": 6, "velocity": 85}, {"time": 497, "pitch": 46, "duration": 24, "velocity": 82}, {"time": 500, "pitch": 53, "duration": 12, "velocity": 64}, {"time": 503, "pitch": 58, "duration": 10, "velocity": 57}, {"time": 506, "pitch": 61, "duration": 11, "velocity": 75}, {"time": 509, "pitch": 65, "duration": 12, "velocity": 69}, {"time": 512, "pitch": 53, "duration": 8, "velocity": 58}, {"time": 515, "pitch": 58, "duration": 6, "velocity": 55}, {"time": 518, "pitch": 61, "duration": 3, "velocity": 65}, {"time": 521, "pitch": 39, "duration": 11, "velocity": 69}, {"time": 524, "pitch": 46, "duration": 12, "velocity": 63}, {"time": 527, "pitch": 51, "duration": 13, "velocity": 42}, {"time": 533, "pitch": 58, "duration": 12, "velocity": 112}, {"time": 533, "pitch": 63, "duration": 12, "velocity": 99}, {"time": 539, "pitch": 55, "duration": 6, "velocity": 83}, {"time": 545, "pitch": 44, "duration": 19, "velocity": 82}, {"time": 548, "pitch": 56, "duration": 10, "velocity": 72}, {"time": 551, "pitch": 59, "duration": 13, "velocity": 72}, {"time": 554, "pitch": 68, "duration": 14, "velocity": 107}, {"time": 560, "pitch": 56, "duration": 2, "velocity": 54}, {"time": 563, "pitch": 63, "duration": 5, "velocity": 90}, {"time": 566, "pitch": 59, "duration": 2, "velocity": 64}, {"time": 569, "pitch": 47, "duration": 19, "velocity": 82}, {"time": 569, "pitch": 59, "duration": 2, "velocity": 72}, {"time": 569, "pitch": 62, "duration": 4, "velocity": 92}, {"time": 569, "pitch": 66, "duration": 7, "velocity": 107}, {"time": 572, "pitch": 54, "duration": 11, "velocity": 82}, {"time": 575, "pitch": 59, "duration": 6, "velocity": 78}, {"time": 578, "pitch": 66, "duration": 16, "velocity": 122}, {"time": 584, "pitch": 54, "duration": 3, "velocity": 60}, {"time": 587, "pitch": 62, "duration": 7, "velocity": 100}, {"time": 590, "pitch": 59, "duration": 4, "velocity": 79}, {"time": 593, "pitch": 37, "duration": 22, "velocity": 96}, {"time": 596, "pitch": 49, "duration": 9, "velocity": 52}, {"time": 599, "pitch": 53, "duration": 8, "velocity": 63}, {"time": 602, "pitch": 56, "duration": 10, "velocity": 97}, {"time": 608, "pitch": 49, "duration": 27, "velocity": 57}, {"time": 611, "pitch": 53, "duration": 29, "velocity": 68}, {"time": 617, "pitch": 37, "duration": 23, "velocity": 81}, {"time": 617, "pitch": 56, "duration": 23, "velocity": 95}, {"time": 617, "pitch": 61, "duration": 23, "velocity": 93}, {"time": 641, "pitch": 42, "duration": 22, "velocity": 95}, {"time": 644, "pitch": 54, "duration": 8, "velocity": 89}, {"time": 647, "pitch": 58, "duration": 10, "velocity": 71}, {"time": 650, "pitch": 66, "duration": 21, "velocity": 102}, {"time": 653, "pitch": 54, "duration": 12, "velocity": 53}, {"time": 659, "pitch": 61, "duration": 17, "velocity": 69}, {"time": 662, "pitch": 58, "duration": 10, "velocity": 42}, {"time": 665, "pitch": 42, "duration": 16, "velocity": 81}, {"time": 671, "pitch": 54, "duration": 7, "velocity": 71}, {"time": 677, "pitch": 66, "duration": 13, "velocity": 117}, {"time": 680, "pitch": 54, "duration": 4, "velocity": 90}, {"time": 683, "pitch": 61, "duration": 6, "velocity": 71}, {"time": 686, "pitch": 58, "duration": 3, "velocity": 71}, {"time": 689, "pitch": 47, "duration": 23, "velocity": 72}, {"time": 695, "pitch": 54, "duration": 8, "velocity": 39}, {"time": 701, "pitch": 66, "duration": 14, "velocity": 122}, {"time": 704, "pitch": 54, "duration": 9, "velocity": 52}, {"time": 707, "pitch": 63, "duration": 8, "velocity": 65}, {"time": 710, "pitch": 59, "duration": 4, "velocity": 74}, {"time": 713, "pitch": 47, "duration": 17, "velocity": 59}, {"time": 716, "pitch": 54, "duration": 13, "velocity": 43}, {"time": 719, "pitch": 59, "duration": 7, "velocity": 63}, {"time": 725, "pitch": 66, "duration": 13, "velocity": 127}, {"time": 731, "pitch": 63, "duration": 7, "velocity": 97}, {"time": 734, "pitch": 59, "duration": 4, "velocity": 65}, {"time": 737, "pitch": 44, "duration": 18, "velocity": 100}, {"time": 743, "pitch": 56, "duration": 9, "velocity": 83}, {"time": 749, "pitch": 63, "duration": 12, "velocity": 122}, {"time": 755, "pitch": 59, "duration": 7, "velocity": 93}, {"time": 761, "pitch": 37, "duration": 18, "velocity": 99}, {"time": 767, "pitch": 49, "duration": 14, "velocity": 62}, {"time": 773, "pitch": 56, "duration": 12, "velocity": 107}, {"time": 779, "pitch": 53, "duration": 6, "velocity": 72}, {"time": 785, "pitch": 42, "duration": 23, "velocity": 96}, {"time": 791, "pitch": 54, "duration": 7, "velocity": 82}, {"time": 797, "pitch": 61, "duration": 7, "velocity": 122}, {"time": 797, "pitch": 66, "duration": 20, "velocity": 122}, {"time": 803, "pitch": 58, "duration": 15, "velocity": 68}, {"time": 806, "pitch": 54, "duration": 2, "velocity": 20}, {"time": 809, "pitch": 42, "duration": 16, "velocity": 112}, {"time": 815, "pitch": 54, "duration": 7, "velocity": 97}, {"time": 821, "pitch": 66, "duration": 12, "velocity": 127}, {"time": 824, "pitch": 54, "duration": 3, "velocity": 100}, {"time": 827, "pitch": 61, "duration": 6, "velocity": 112}, {"time": 830, "pitch": 58, "duration": 3, "velocity": 96}, {"time": 833, "pitch": 47, "duration": 22, "velocity": 88}, {"time": 839, "pitch": 54, "duration": 8, "velocity": 74}, {"time": 842, "pitch": 59, "duration": 4, "velocity": 86}, {"time": 845, "pitch": 66, "duration": 12, "velocity": 122}, {"time": 848, "pitch": 54, "duration": 5, "velocity": 66}, {"time": 851, "pitch": 63, "duration": 3, "velocity": 100}, {"time": 857, "pitch": 47, "duration": 23, "velocity": 74}, {"time": 857, "pitch": 59, "duration": 11, "velocity": 92}, {"time": 857, "pitch": 63, "duration": 11, "velocity": 92}, {"time": 857, "pitch": 66, "duration": 11, "velocity": 81}, {"time": 857, "pitch": 70, "duration": 8, "velocity": 100}, {"time": 863, "pitch": 54, "duration": 10, "velocity": 48}, {"time": 869, "pitch": 63, "duration": 12, "velocity": 127}, {"time": 869, "pitch": 66, "duration": 12, "velocity": 102}, {"time": 869, "pitch": 70, "duration": 12, "velocity": 99}, {"time": 875, "pitch": 59, "duration": 6, "velocity": 99}, {"time": 881, "pitch": 37, "duration": 3, "velocity": 95}, {"time": 881, "pitch": 61, "duration": 5, "velocity": 100}, {"time": 881, "pitch": 65, "duration": 1, "velocity": 107}, {"time": 881, "pitch": 68, "duration": 4, "velocity": 102}, {"time": 893, "pitch": 46, "duration": 5, "velocity": 117}, {"time": 893, "pitch": 58, "duration": 5, "velocity": 127}, {"time": 893, "pitch": 62, "duration": 5, "velocity": 102}, {"time": 893, "pitch": 65, "duration": 5, "velocity": 93}, {"time": 905, "pitch": 39, "duration": 17, "velocity": 97}, {"time": 905, "pitch": 63, "duration": 11, "velocity": 102}, {"time": 905, "pitch": 66, "duration": 11, "velocity": 127}, {"time": 905, "pitch": 70, "duration": 7, "velocity": 99}, {"time": 911, "pitch": 51, "duration": 12, "velocity": 93}, {"time": 917, "pitch": 70, "duration": 11, "velocity": 127}, {"time": 923, "pitch": 66, "duration": 6, "velocity": 122}, {"time": 929, "pitch": 44, "duration": 16, "velocity": 100}, {"time": 935, "pitch": 56, "duration": 7, "velocity": 83}, {"time": 941, "pitch": 63, "duration": 12, "velocity": 127}, {"time": 947, "pitch": 59, "duration": 6, "velocity": 96}, {"time": 953, "pitch": 37, "duration": 16, "velocity": 107}, {"time": 959, "pitch": 49, "duration": 13, "velocity": 92}, {"time": 965, "pitch": 68, "duration": 13, "velocity": 127}, {"time": 971, "pitch": 61, "duration": 8, "velocity": 85}, {"time": 977, "pitch": 42, "duration": 40, "velocity": 90}, {"time": 983, "pitch": 49, "duration": 34, "velocity": 67}, {"time": 989, "pitch": 54, "duration": 30, "velocity": 95}, {"time": 995, "pitch": 58, "duration": 25, "velocity": 92}, {"time": 1001, "pitch": 61, "duration": 18, "velocity": 97}, {"time": 1001, "pitch": 66, "duration": 18, "velocity": 100}, {"time": 1025, "pitch": 35, "duration": 16, "velocity": 88}, {"time": 1028, "pitch": 42, "duration": 14, "velocity": 85}, {"time": 1031, "pitch": 47, "duration": 7, "velocity": 97}, {"time": 1034, "pitch": 59, "duration": 6, "velocity": 88}, {"time": 1037, "pitch": 66, "duration": 12, "velocity": 127}, {"time": 1040, "pitch": 47, "duration": 3, "velocity": 99}, {"time": 1043, "pitch": 63, "duration": 7, "velocity": 112}, {"time": 1046, "pitch": 59, "duration": 4, "velocity": 99}, {"time": 1049, "pitch": 37, "duration": 17, "velocity": 83}, {"time": 1052, "pitch": 44, "duration": 14, "velocity": 66}, {"time": 1055, "pitch": 49, "duration": 7, "velocity": 96}, {"time": 1058, "pitch": 53, "duration": 5, "velocity": 90}, {"time": 1061, "pitch": 56, "duration": 7, "velocity": 127}, {"time": 1064, "pitch": 49, "duration": 4, "velocity": 97}, {"time": 1067, "pitch": 53, "duration": 5, "velocity": 96}, {"time": 1070, "pitch": 56, "duration": 3, "velocity": 127}, {"time": 1073, "pitch": 46, "duration": 18, "velocity": 86}, {"time": 1076, "pitch": 53, "duration": 13, "velocity": 70}, {"time": 1079, "pitch": 58, "duration": 7, "velocity": 112}, {"time": 1082, "pitch": 61, "duration": 3, "velocity": 89}, {"time": 1085, "pitch": 65, "duration": 8, "velocity": 122}, {"time": 1088, "pitch": 58, "duration": 2, "velocity": 95}, {"time": 1091, "pitch": 61, "duration": 5, "velocity": 102}, {"time": 1094, "pitch": 65, "duration": 4, "velocity": 89}, {"time": 1097, "pitch": 39, "duration": 17, "velocity": 77}, {"time": 1100, "pitch": 46, "duration": 14, "velocity": 63}, {"time": 1103, "pitch": 51, "duration": 8, "velocity": 92}, {"time": 1106, "pitch": 54, "duration": 6, "velocity": 96}, {"time": 1109, "pitch": 63, "duration": 11, "velocity": 112}, {"time": 1112, "pitch": 51, "duration": 3, "velocity": 93}, {"time": 1115, "pitch": 58, "duration": 5, "velocity": 68}, {"time": 1118, "pitch": 54, "duration": 3, "velocity": 99}, {"time": 1121, "pitch": 44, "duration": 17, "velocity": 92}, {"time": 1124, "pitch": 51, "duration": 13, "velocity": 34}, {"time": 1127, "pitch": 56, "duration": 7, "velocity": 96}, {"time": 1130, "pitch": 59, "duration": 9, "velocity": 82}, {"time": 1133, "pitch": 68, "duration": 12, "velocity": 117}, {"time": 1136, "pitch": 56, "duration": 2, "velocity": 95}, {"time": 1139, "pitch": 63, "duration": 6, "velocity": 102}, {"time": 1142, "pitch": 59, "duration": 3, "velocity": 95}, {"time": 1145, "pitch": 46, "duration": 23, "velocity": 97}, {"time": 1148, "pitch": 53, "duration": 19, "velocity": 73}, {"time": 1151, "pitch": 58, "duration": 8, "velocity": 100}, {"time": 1154, "pitch": 61, "duration": 3, "velocity": 100}, {"time": 1157, "pitch": 65, "duration": 7, "velocity": 89}, {"time": 1160, "pitch": 58, "duration": 6, "velocity": 99}, {"time": 1163, "pitch": 61, "duration": 4, "velocity": 107}, {"time": 1166, "pitch": 65, "duration": 4, "velocity": 100}, {"time": 1169, "pitch": 47, "duration": 11, "velocity": 107}, {"time": 1172, "pitch": 59, "duration": 5, "velocity": 107}, {"time": 1175, "pitch": 66, "duration": 6, "velocity": 127}, {"time": 1178, "pitch": 63, "duration": 3, "velocity": 122}, {"time": 1181, "pitch": 48, "duration": 6, "velocity": 100}, {"time": 1181, "pitch": 60, "duration": 7, "velocity": 117}, {"time": 1187, "pitch": 63, "duration": 6, "velocity": 127}, {"time": 1190, "pitch": 60, "duration": 4, "velocity": 99}, {"time": 1194, "pitch": 37, "duration": 14, "velocity": 94}, {"time": 1202, "pitch": 49, "duration": 4, "velocity": 85}, {"time": 1205, "pitch": 56, "duration": 4, "velocity": 108}, {"time": 1205, "pitch": 61, "duration": 6, "velocity": 90}, {"time": 1205, "pitch": 65, "duration": 5, "velocity": 95}, {"time": 1208, "pitch": 49, "duration": 4, "velocity": 79}, {"time": 1211, "pitch": 37, "duration": 1, "velocity": 85}, {"time": 1217, "pitch": 66, "duration": 5, "velocity": 68}, {"time": 1217, "pitch": 63, "duration": 5, "velocity": 72}, {"time": 1217, "pitch": 71, "duration": 5, "velocity": 73}, {"time": 1218, "pitch": 54, "duration": 4, "velocity": 67}, {"time": 1218, "pitch": 59, "duration": 4, "velocity": 71}, {"time": 1218, "pitch": 47, "duration": 7, "velocity": 63}, {"time": 1223, "pitch": 66, "duration": 4, "velocity": 62}, {"time": 1223, "pitch": 59, "duration": 3, "velocity": 38}, {"time": 1223, "pitch": 63, "duration": 4, "velocity": 63}, {"time": 1223, "pitch": 71, "duration": 3, "velocity": 47}, {"time": 1230, "pitch": 66, "duration": 4, "velocity": 64}, {"time": 1230, "pitch": 63, "duration": 4, "velocity": 67}, {"time": 1230, "pitch": 47, "duration": 1, "velocity": 77}, {"time": 1230, "pitch": 59, "duration": 3, "velocity": 75}, {"time": 1230, "pitch": 71, "duration": 3, "velocity": 76}, {"time": 1230, "pitch": 35, "duration": 7, "velocity": 79}, {"time": 1233, "pitch": 47, "duration": 3, "velocity": 53}, {"time": 1236, "pitch": 59, "duration": 1, "velocity": 81}, {"time": 1236, "pitch": 71, "duration": 1, "velocity": 79}, {"time": 1236, "pitch": 66, "duration": 1, "velocity": 75}, {"time": 1236, "pitch": 63, "duration": 1, "velocity": 74}, {"time": 1241, "pitch": 49, "duration": 9, "velocity": 75}, {"time": 1241, "pitch": 61, "duration": 6, "velocity": 80}, {"time": 1241, "pitch": 37, "duration": 17, "velocity": 85}, {"time": 1241, "pitch": 73, "duration": 5, "velocity": 82}, {"time": 1242, "pitch": 68, "duration": 5, "velocity": 79}, {"time": 1242, "pitch": 65, "duration": 5, "velocity": 66}, {"time": 1247, "pitch": 61, "duration": 3, "velocity": 65}, {"time": 1247, "pitch": 73, "duration": 3, "velocity": 71}, {"time": 1248, "pitch": 68, "duration": 2, "velocity": 66}, {"time": 1248, "pitch": 65, "duration": 2, "velocity": 60}, {"time": 1251, "pitch": 49, "duration": 3, "velocity": 81}, {"time": 1254, "pitch": 61, "duration": 3, "velocity": 104}, {"time": 1254, "pitch": 73, "duration": 3, "velocity": 101}, {"time": 1254, "pitch": 65, "duration": 3, "velocity": 76}, {"time": 1254, "pitch": 68, "duration": 3, "velocity": 84}, {"time": 1256, "pitch": 49, "duration": 4, "velocity": 75}, {"time": 1259, "pitch": 37, "duration": 1, "velocity": 84}, {"time": 1265, "pitch": 34, "duration": 18, "velocity": 92}, {"time": 1265, "pitch": 46, "duration": 9, "velocity": 95}, {"time": 1266, "pitch": 70, "duration": 2, "velocity": 76}, {"time": 1266, "pitch": 66, "duration": 2, "velocity": 56}, {"time": 1266, "pitch": 63, "duration": 3, "velocity": 51}, {"time": 1274, "pitch": 58, "duration": 4, "velocity": 104}, {"time": 1274, "pitch": 61, "duration": 4, "velocity": 88}, {"time": 1274, "pitch": 70, "duration": 4, "velocity": 99}, {"time": 1274, "pitch": 65, "duration": 4, "velocity": 78}, {"time": 1278, "pitch": 46, "duration": 3, "velocity": 95}, {"time": 1280, "pitch": 58, "duration": 4, "velocity": 102}, {"time": 1280, "pitch": 70, "duration": 4, "velocity": 92}, {"time": 1280, "pitch": 61, "duration": 4, "velocity": 79}, {"time": 1280, "pitch": 65, "duration": 4, "velocity": 79}, {"time": 1283, "pitch": 46, "duration": 3, "velocity": 87}, {"time": 1286, "pitch": 34, "duration": 1, "velocity": 90}, {"time": 1289, "pitch": 51, "duration": 8, "velocity": 99}, {"time": 1289, "pitch": 39, "duration": 16, "velocity": 94}, {"time": 1289, "pitch": 55, "duration": 4, "velocity": 88}, {"time": 1289, "pitch": 63, "duration": 4, "velocity": 85}, {"time": 1289, "pitch": 58, "duration": 4, "velocity": 75}, {"time": 1295, "pitch": 55, "duration": 4, "velocity": 100}, {"time": 1295, "pitch": 63, "duration": 3, "velocity": 87}, {"time": 1295, "pitch": 58, "duration": 4, "velocity": 92}, {"time": 1299, "pitch": 51, "duration": 3, "velocity": 92}, {"time": 1301, "pitch": 55, "duration": 4, "velocity": 108}, {"time": 1301, "pitch": 63, "duration": 5, "velocity": 106}, {"time": 1302, "pitch": 58, "duration": 4, "velocity": 79}, {"time": 1304, "pitch": 51, "duration": 4, "velocity": 90}, {"time": 1308, "pitch": 39, "duration": 1, "velocity": 88}, {"time": 1310, "pitch": 49, "duration": 1, "velocity": 90}, {"time": 1310, "pitch": 37, "duration": 1, "velocity": 90}, {"time": 1313, "pitch": 32, "duration": 19, "velocity": 99}, {"time": 1313, "pitch": 44, "duration": 11, "velocity": 92}, {"time": 1313, "pitch": 56, "duration": 5, "velocity": 97}, {"time": 1313, "pitch": 63, "duration": 5, "velocity": 95}, {"time": 1314, "pitch": 59, "duration": 4, "velocity": 41}, {"time": 1322, "pitch": 56, "duration": 7, "velocity": 110}, {"time": 1322, "pitch": 63, "duration": 7, "velocity": 104}, {"time": 1323, "pitch": 59, "duration": 6, "velocity": 95}, {"time": 1329, "pitch": 44, "duration": 6, "velocity": 97}, {"time": 1332, "pitch": 56, "duration": 1, "velocity": 91}, {"time": 1332, "pitch": 63, "duration": 2, "velocity": 92}, {"time": 1332, "pitch": 59, "duration": 2, "velocity": 80}, {"time": 1334, "pitch": 32, "duration": 1, "velocity": 100}, {"time": 1338, "pitch": 34, "duration": 18, "velocity": 94}, {"time": 1338, "pitch": 58, "duration": 4, "velocity": 97}, {"time": 1338, "pitch": 61, "duration": 4, "velocity": 85}, {"time": 1338, "pitch": 65, "duration": 4, "velocity": 86}, {"time": 1338, "pitch": 46, "duration": 12, "velocity": 102}, {"time": 1346, "pitch": 65, "duration": 7, "velocity": 84}, {"time": 1346, "pitch": 58, "duration": 7, "velocity": 88}, {"time": 1346, "pitch": 61, "duration": 7, "velocity": 81}, {"time": 1352, "pitch": 46, "duration": 6, "velocity": 108}, {"time": 1355, "pitch": 58, "duration": 2, "velocity": 100}, {"time": 1355, "pitch": 61, "duration": 3, "velocity": 84}, {"time": 1355, "pitch": 65, "duration": 3, "velocity": 92}, {"time": 1358, "pitch": 34, "duration": 1, "velocity": 91}, {"time": 1361, "pitch": 54, "duration": 3, "velocity": 102}, {"time": 1361, "pitch": 47, "duration": 9, "velocity": 97}, {"time": 1361, "pitch": 63, "duration": 3, "velocity": 99}, {"time": 1361, "pitch": 35, "duration": 10, "velocity": 96}, {"time": 1361, "pitch": 59, "duration": 3, "velocity": 79}, {"time": 1366, "pitch": 54, "duration": 2, "velocity": 84}, {"time": 1366, "pitch": 63, "duration": 2, "velocity": 74}, {"time": 1366, "pitch": 59, "duration": 2, "velocity": 75}, {"time": 1370, "pitch": 54, "duration": 4, "velocity": 97}, {"time": 1370, "pitch": 63, "duration": 5, "velocity": 92}, {"time": 1370, "pitch": 59, "duration": 5, "velocity": 84}, {"time": 1373, "pitch": 35, "duration": 4, "velocity": 20}, {"time": 1373, "pitch": 47, "duration": 7, "velocity": 100}, {"time": 1376, "pitch": 63, "duration": 5, "velocity": 87}, {"time": 1376, "pitch": 54, "duration": 4, "velocity": 97}, {"time": 1376, "pitch": 59, "duration": 4, "velocity": 75}, {"time": 1379, "pitch": 35, "duration": 4, "velocity": 103}, {"time": 1382, "pitch": 47, "duration": 1, "velocity": 100}, {"time": 1385, "pitch": 49, "duration": 12, "velocity": 92}, {"time": 1385, "pitch": 56, "duration": 4, "velocity": 104}, {"time": 1385, "pitch": 37, "duration": 17, "velocity": 90}, {"time": 1385, "pitch": 61, "duration": 4, "velocity": 91}, {"time": 1385, "pitch": 65, "duration": 4, "velocity": 92}, {"time": 1392, "pitch": 56, "duration": 1, "velocity": 81}, {"time": 1392, "pitch": 66, "duration": 1, "velocity": 94}, {"time": 1392, "pitch": 61, "duration": 2, "velocity": 67}, {"time": 1394, "pitch": 61, "duration": 4, "velocity": 72}, {"time": 1394, "pitch": 56, "duration": 5, "velocity": 97}, {"time": 1394, "pitch": 68, "duration": 5, "velocity": 91}, {"time": 1398, "pitch": 49, "duration": 6, "velocity": 80}, {"time": 1400, "pitch": 56, "duration": 4, "velocity": 94}, {"time": 1400, "pitch": 65, "duration": 5, "velocity": 87}, {"time": 1400, "pitch": 61, "duration": 4, "velocity": 79}, {"time": 1404, "pitch": 37, "duration": 1, "velocity": 80}, {"time": 1409, "pitch": 42, "duration": 15, "velocity": 69}, {"time": 1412, "pitch": 49, "duration": 11, "velocity": 56}, {"time": 1415, "pitch": 54, "duration": 7, "velocity": 93}, {"time": 1418, "pitch": 58, "duration": 11, "velocity": 99}, {"time": 1427, "pitch": 63, "duration": 6, "velocity": 107}, {"time": 1430, "pitch": 58, "duration": 2, "velocity": 54}, {"time": 1433, "pitch": 39, "duration": 15, "velocity": 90}, {"time": 1439, "pitch": 46, "duration": 9, "velocity": 51}, {"time": 1445, "pitch": 51, "duration": 4, "velocity": 53}, {"time": 1445, "pitch": 63, "duration": 11, "velocity": 78}, {"time": 1451, "pitch": 54, "duration": 4, "velocity": 69}, {"time": 1457, "pitch": 47, "duration": 15, "velocity": 76}, {"time": 1463, "pitch": 54, "duration": 8, "velocity": 62}, {"time": 1469, "pitch": 66, "duration": 11, "velocity": 117}, {"time": 1475, "pitch": 63, "duration": 6, "velocity": 79}, {"time": 1481, "pitch": 37, "duration": 17, "velocity": 117}, {"time": 1487, "pitch": 49, "duration": 8, "velocity": 72}, {"time": 1493, "pitch": 56, "duration": 12, "velocity": 127}, {"time": 1493, "pitch": 61, "duration": 12, "velocity": 122}, {"time": 1496, "pitch": 49, "duration": 3, "velocity": 99}, {"time": 1499, "pitch": 53, "duration": 6, "velocity": 97}, {"time": 1505, "pitch": 47, "duration": 11, "velocity": 88}, {"time": 1508, "pitch": 54, "duration": 7, "velocity": 73}, {"time": 1511, "pitch": 59, "duration": 5, "velocity": 85}, {"time": 1514, "pitch": 66, "duration": 5, "velocity": 122}, {"time": 1517, "pitch": 62, "duration": 2, "velocity": 127}, {"time": 1523, "pitch": 37, "duration": 28, "velocity": 71}, {"time": 1523, "pitch": 49, "duration": 26, "velocity": 74}, {"time": 1523, "pitch": 61, "duration": 27, "velocity": 112}, {"time": 1523, "pitch": 65, "duration": 27, "velocity": 107}, {"time": 1523, "pitch": 68, "duration": 27, "velocity": 99}, {"time": 1553, "pitch": 42, "duration": 22, "velocity": 95}, {"time": 1556, "pitch": 54, "duration": 8, "velocity": 89}, {"time": 1559, "pitch": 58, "duration": 10, "velocity": 71}, {"time": 1562, "pitch": 66, "duration": 21, "velocity": 102}, {"time": 1565, "pitch": 54, "duration": 12, "velocity": 53}, {"time": 1571, "pitch": 61, "duration": 17, "velocity": 69}, {"time": 1574, "pitch": 58, "duration": 10, "velocity": 42}, {"time": 1577, "pitch": 42, "duration": 16, "velocity": 81}, {"time": 1583, "pitch": 54, "duration": 7, "velocity": 71}, {"time": 1589, "pitch": 66, "duration": 13, "velocity": 117}, {"time": 1592, "pitch": 54, "duration": 4, "velocity": 90}, {"time": 1595, "pitch": 61, "duration": 6, "velocity": 71}, {"time": 1598, "pitch": 58, "duration": 3, "velocity": 71}, {"time": 1601, "pitch": 47, "duration": 23, "velocity": 72}, {"time": 1607, "pitch": 54, "duration": 8, "velocity": 39}, {"time": 1613, "pitch": 66, "duration": 14, "velocity": 122}, {"time": 1616, "pitch": 54, "duration": 9, "velocity": 52}, {"time": 1619, "pitch": 63, "duration": 8, "velocity": 65}, {"time": 1622, "pitch": 59, "duration": 4, "velocity": 74}, {"time": 1625, "pitch": 47, "duration": 17, "velocity": 59}, {"time": 1628, "pitch": 54, "duration": 13, "velocity": 43}, {"time": 1631, "pitch": 59, "duration": 7, "velocity": 63}, {"time": 1637, "pitch": 66, "duration": 13, "velocity": 127}, {"time": 1643, "pitch": 63, "duration": 7, "velocity": 97}, {"time": 1646, "pitch": 59, "duration": 4, "velocity": 65}, {"time": 1649, "pitch": 44, "duration": 18, "velocity": 100}, {"time": 1655, "pitch": 56, "duration": 9, "velocity": 83}, {"time": 1661, "pitch": 63, "duration": 12, "velocity": 122}, {"time": 1667, "pitch": 59, "duration": 7, "velocity": 93}, {"time": 1673, "pitch": 37, "duration": 18, "velocity": 99}, {"time": 1679, "pitch": 49, "duration": 14, "velocity": 62}, {"time": 1685, "pitch": 56, "duration": 12, "velocity": 107}, {"time": 1691, "pitch": 53, "duration": 6, "velocity": 72}, {"time": 1697, "pitch": 42, "duration": 23, "velocity": 96}, {"time": 1703, "pitch": 54, "duration": 7, "velocity": 82}, {"time": 1709, "pitch": 61, "duration": 7, "velocity": 122}, {"time": 1709, "pitch": 66, "duration": 20, "velocity": 122}, {"time": 1715, "pitch": 58, "duration": 15, "velocity": 68}, {"time": 1718, "pitch": 54, "duration": 2, "velocity": 20}, {"time": 1721, "pitch": 42, "duration": 16, "velocity": 112}, {"time": 1727, "pitch": 54, "duration": 7, "velocity": 97}, {"time": 1733, "pitch": 66, "duration": 12, "velocity": 127}, {"time": 1736, "pitch": 54, "duration": 3, "velocity": 100}, {"time": 1739, "pitch": 61, "duration": 6, "velocity": 112}, {"time": 1742, "pitch": 58, "duration": 3, "velocity": 96}, {"time": 1745, "pitch": 47, "duration": 22, "velocity": 88}, {"time": 1751, "pitch": 54, "duration": 8, "velocity": 74}, {"time": 1754, "pitch": 59, "duration": 4, "velocity": 86}, {"time": 1757, "pitch": 66, "duration": 12, "velocity": 122}, {"time": 1760, "pitch": 54, "duration": 5, "velocity": 66}, {"time": 1763, "pitch": 63, "duration": 3, "velocity": 100}, {"time": 1769, "pitch": 47, "duration": 23, "velocity": 74}, {"time": 1769, "pitch": 59, "duration": 11, "velocity": 92}, {"time": 1769, "pitch": 63, "duration": 11, "velocity": 92}, {"time": 1769, "pitch": 66, "duration": 11, "velocity": 81}, {"time": 1769, "pitch": 70, "duration": 8, "velocity": 100}, {"time": 1775, "pitch": 54, "duration": 10, "velocity": 48}, {"time": 1781, "pitch": 63, "duration": 12, "velocity": 127}, {"time": 1781, "pitch": 66, "duration": 12, "velocity": 102}, {"time": 1781, "pitch": 70, "duration": 12, "velocity": 99}, {"time": 1787, "pitch": 59, "duration": 6, "velocity": 99}, {"time": 1793, "pitch": 37, "duration": 3, "velocity": 95}, {"time": 1793, "pitch": 61, "duration": 5, "velocity": 100}, {"time": 1793, "pitch": 65, "duration": 1, "velocity": 107}, {"time": 1793, "pitch": 68, "duration": 4, "velocity": 102}, {"time": 1805, "pitch": 46, "duration": 5, "velocity": 117}, {"time": 1805, "pitch": 58, "duration": 5, "velocity": 127}, {"time": 1805, "pitch": 62, "duration": 5, "velocity": 102}, {"time": 1805, "pitch": 65, "duration": 5, "velocity": 93}, {"time": 1817, "pitch": 39, "duration": 17, "velocity": 97}, {"time": 1817, "pitch": 63, "duration": 11, "velocity": 102}, {"time": 1817, "pitch": 66, "duration": 11, "velocity": 127}, {"time": 1817, "pitch": 70, "duration": 7, "velocity": 99}, {"time": 1823, "pitch": 51, "duration": 12, "velocity": 93}, {"time": 1829, "pitch": 70, "duration": 11, "velocity": 127}, {"time": 1835, "pitch": 66, "duration": 6, "velocity": 122}, {"time": 1841, "pitch": 44, "duration": 16, "velocity": 100}, {"time": 1847, "pitch": 56, "duration": 7, "velocity": 83}, {"time": 1853, "pitch": 63, "duration": 12, "velocity": 127}, {"time": 1859, "pitch": 59, "duration": 6, "velocity": 96}, {"time": 1865, "pitch": 37, "duration": 16, "velocity": 107}, {"time": 1871, "pitch": 49, "duration": 13, "velocity": 92}, {"time": 1877, "pitch": 68, "duration": 13, "velocity": 127}, {"time": 1883, "pitch": 61, "duration": 8, "velocity": 85}, {"time": 1890, "pitch": 42, "duration": 18, "velocity": 87}, {"time": 1896, "pitch": 49, "duration": 9, "velocity": 47}, {"time": 1898, "pitch": 54, "duration": 4, "velocity": 64}, {"time": 1902, "pitch": 58, "duration": 6, "velocity": 100}, {"time": 1902, "pitch": 61, "duration": 5, "velocity": 87}, {"time": 1902, "pitch": 66, "duration": 6, "velocity": 95}, {"time": 1904, "pitch": 54, "duration": 4, "velocity": 44}, {"time": 1908, "pitch": 49, "duration": 1, "velocity": 36}, {"time": 1910, "pitch": 42, "duration": 19, "velocity": 69}, {"time": 1910, "pitch": 54, "duration": 7, "velocity": 72}, {"time": 1910, "pitch": 58, "duration": 4, "velocity": 100}, {"time": 1910, "pitch": 61, "duration": 4, "velocity": 91}, {"time": 1910, "pitch": 68, "duration": 4, "velocity": 103}, {"time": 1916, "pitch": 58, "duration": 5, "velocity": 88}, {"time": 1916, "pitch": 61, "duration": 4, "velocity": 68}, {"time": 1916, "pitch": 70, "duration": 4, "velocity": 95}, {"time": 1922, "pitch": 54, "duration": 4, "velocity": 72}, {"time": 1926, "pitch": 58, "duration": 3, "velocity": 99}, {"time": 1926, "pitch": 61, "duration": 3, "velocity": 88}, {"time": 1926, "pitch": 68, "duration": 3, "velocity": 103}, {"time": 1928, "pitch": 54, "duration": 6, "velocity": 88}, {"time": 1932, "pitch": 58, "duration": 1, "velocity": 97}, {"time": 1932, "pitch": 61, "duration": 2, "velocity": 92}, {"time": 1932, "pitch": 66, "duration": 2, "velocity": 94}, {"time": 1934, "pitch": 42, "duration": 1, "velocity": 61}, {"time": 1938, "pitch": 35, "duration": 19, "velocity": 103}, {"time": 1938, "pitch": 47, "duration": 6, "velocity": 102}, {"time": 1938, "pitch": 59, "duration": 3, "velocity": 76}, {"time": 1938, "pitch": 63, "duration": 4, "velocity": 75}, {"time": 1944, "pitch": 59, "duration": 2, "velocity": 91}, {"time": 1944, "pitch": 63, "duration": 2, "velocity": 55}, {"time": 1944, "pitch": 66, "duration": 2, "velocity": 76}, {"time": 1944, "pitch": 71, "duration": 2, "velocity": 82}, {"time": 1946, "pitch": 47, "duration": 5, "velocity": 97}, {"time": 1950, "pitch": 59, "duration": 2, "velocity": 108}, {"time": 1950, "pitch": 63, "duration": 2, "velocity": 106}, {"time": 1950, "pitch": 66, "duration": 2, "velocity": 105}, {"time": 1950, "pitch": 71, "duration": 2, "velocity": 108}, {"time": 1952, "pitch": 59, "duration": 3, "velocity": 100}, {"time": 1952, "pitch": 63, "duration": 3, "velocity": 57}, {"time": 1952, "pitch": 66, "duration": 3, "velocity": 62}, {"time": 1952, "pitch": 71, "duration": 3, "velocity": 99}, {"time": 1956, "pitch": 47, "duration": 1, "velocity": 64}, {"time": 1958, "pitch": 35, "duration": 1, "velocity": 59}, {"time": 1958, "pitch": 47, "duration": 1, "velocity": 59}, {"time": 1958, "pitch": 59, "duration": 1, "velocity": 97}, {"time": 1958, "pitch": 63, "duration": 1, "velocity": 79}, {"time": 1958, "pitch": 66, "duration": 1, "velocity": 80}, {"time": 1958, "pitch": 71, "duration": 2, "velocity": 87}, {"time": 1962, "pitch": 37, "duration": 14, "velocity": 92}, {"time": 1962, "pitch": 49, "duration": 5, "velocity": 81}, {"time": 1962, "pitch": 61, "duration": 2, "velocity": 100}, {"time": 1962, "pitch": 65, "duration": 2, "velocity": 75}, {"time": 1962, "pitch": 68, "duration": 2, "velocity": 86}, {"time": 1962, "pitch": 73, "duration": 2, "velocity": 95}, {"time": 1964, "pitch": 61, "duration": 3, "velocity": 90}, {"time": 1964, "pitch": 65, "duration": 3, "velocity": 63}, {"time": 1964, "pitch": 68, "duration": 3, "velocity": 73}, {"time": 1964, "pitch": 73, "duration": 3, "velocity": 101}, {"time": 1970, "pitch": 61, "duration": 5, "velocity": 104}, {"time": 1970, "pitch": 65, "duration": 5, "velocity": 80}, {"time": 1970, "pitch": 68, "duration": 6, "velocity": 78}, {"time": 1970, "pitch": 73, "duration": 5, "velocity": 105}, {"time": 1974, "pitch": 49, "duration": 6, "velocity": 102}, {"time": 1976, "pitch": 37, "duration": 2, "velocity": 94}, {"time": 1980, "pitch": 37, "duration": 1, "velocity": 100}, {"time": 1986, "pitch": 70, "duration": 2, "velocity": 101}, {"time": 1986, "pitch": 58, "duration": 2, "velocity": 95}, {"time": 1986, "pitch": 34, "duration": 15, "velocity": 104}, {"time": 1986, "pitch": 46, "duration": 5, "velocity": 106}, {"time": 1986, "pitch": 61, "duration": 3, "velocity": 80}, {"time": 1990, "pitch": 61, "duration": 3, "velocity": 53}, {"time": 1990, "pitch": 70, "duration": 2, "velocity": 91}, {"time": 1990, "pitch": 58, "duration": 2, "velocity": 97}, {"time": 1990, "pitch": 65, "duration": 2, "velocity": 73}, {"time": 1994, "pitch": 58, "duration": 4, "velocity": 95}, {"time": 1994, "pitch": 61, "duration": 5, "velocity": 59}, {"time": 1994, "pitch": 70, "duration": 4, "velocity": 92}, {"time": 1995, "pitch": 65, "duration": 3, "velocity": 73}, {"time": 1998, "pitch": 46, "duration": 9, "velocity": 106}, {"time": 2000, "pitch": 58, "duration": 2, "velocity": 95}, {"time": 2000, "pitch": 61, "duration": 5, "velocity": 51}, {"time": 2000, "pitch": 70, "duration": 3, "velocity": 92}, {"time": 2000, "pitch": 65, "duration": 4, "velocity": 63}, {"time": 2003, "pitch": 34, "duration": 4, "velocity": 79}, {"time": 2004, "pitch": 68, "duration": 2, "velocity": 89}, {"time": 2004, "pitch": 56, "duration": 1, "velocity": 84}, {"time": 2004, "pitch": 58, "duration": 1, "velocity": 63}, {"time": 2006, "pitch": 58, "duration": 2, "velocity": 88}, {"time": 2006, "pitch": 70, "duration": 2, "velocity": 89}, {"time": 2007, "pitch": 61, "duration": 1, "velocity": 20}, {"time": 2009, "pitch": 51, "duration": 3, "velocity": 97}, {"time": 2010, "pitch": 39, "duration": 16, "velocity": 94}, {"time": 2013, "pitch": 51, "duration": 6, "velocity": 110}, {"time": 2014, "pitch": 54, "duration": 1, "velocity": 69}, {"time": 2014, "pitch": 63, "duration": 1, "velocity": 45}, {"time": 2018, "pitch": 54, "duration": 5, "velocity": 97}, {"time": 2018, "pitch": 63, "duration": 5, "velocity": 95}, {"time": 2019, "pitch": 58, "duration": 4, "velocity": 81}, {"time": 2022, "pitch": 51, "duration": 3, "velocity": 92}, {"time": 2025, "pitch": 63, "duration": 3, "velocity": 88}, {"time": 2025, "pitch": 54, "duration": 3, "velocity": 97}, {"time": 2025, "pitch": 58, "duration": 1, "velocity": 81}, {"time": 2026, "pitch": 58, "duration": 2, "velocity": 24}, {"time": 2028, "pitch": 51, "duration": 1, "velocity": 91}, {"time": 2030, "pitch": 54, "duration": 1, "velocity": 90}, {"time": 2030, "pitch": 61, "duration": 2, "velocity": 87}, {"time": 2034, "pitch": 56, "duration": 3, "velocity": 99}, {"time": 2034, "pitch": 63, "duration": 3, "velocity": 94}, {"time": 2034, "pitch": 32, "duration": 15, "velocity": 100}, {"time": 2034, "pitch": 44, "duration": 9, "velocity": 97}, {"time": 2034, "pitch": 59, "duration": 3, "velocity": 84}, {"time": 2038, "pitch": 56, "duration": 2, "velocity": 81}, {"time": 2038, "pitch": 63, "duration": 2, "velocity": 72}, {"time": 2038, "pitch": 59, "duration": 2, "velocity": 76}, {"time": 2043, "pitch": 56, "duration": 4, "velocity": 104}, {"time": 2043, "pitch": 63, "duration": 4, "velocity": 85}, {"time": 2043, "pitch": 59, "duration": 4, "velocity": 87}, {"time": 2046, "pitch": 44, "duration": 6, "velocity": 106}, {"time": 2048, "pitch": 56, "duration": 4, "velocity": 87}, {"time": 2049, "pitch": 63, "duration": 4, "velocity": 77}, {"time": 2049, "pitch": 59, "duration": 3, "velocity": 80}, {"time": 2052, "pitch": 32, "duration": 3, "velocity": 90}, {"time": 2054, "pitch": 44, "duration": 1, "velocity": 102}, {"time": 2057, "pitch": 34, "duration": 19, "velocity": 95}, {"time": 2057, "pitch": 58, "duration": 3, "velocity": 102}, {"time": 2057, "pitch": 61, "duration": 3, "velocity": 90}, {"time": 2057, "pitch": 46, "duration": 6, "velocity": 102}, {"time": 2057, "pitch": 65, "duration": 3, "velocity": 89}, {"time": 2062, "pitch": 58, "duration": 2, "velocity": 100}, {"time": 2062, "pitch": 65, "duration": 2, "velocity": 90}, {"time": 2062, "pitch": 61, "duration": 3, "velocity": 84}, {"time": 2066, "pitch": 61, "duration": 5, "velocity": 50}, {"time": 2066, "pitch": 58, "duration": 4, "velocity": 97}, {"time": 2066, "pitch": 65, "duration": 5, "velocity": 80}, {"time": 2070, "pitch": 46, "duration": 4, "velocity": 99}, {"time": 2072, "pitch": 61, "duration": 5, "velocity": 67}, {"time": 2072, "pitch": 65, "duration": 4, "velocity": 76}, {"time": 2072, "pitch": 58, "duration": 5, "velocity": 108}, {"time": 2075, "pitch": 46, "duration": 3, "velocity": 91}, {"time": 2078, "pitch": 34, "duration": 1, "velocity": 77}, {"time": 2081, "pitch": 54, "duration": 3, "velocity": 106}, {"time": 2081, "pitch": 66, "duration": 3, "velocity": 99}, {"time": 2081, "pitch": 47, "duration": 11, "velocity": 90}, {"time": 2081, "pitch": 35, "duration": 18, "velocity": 95}, {"time": 2081, "pitch": 59, "duration": 3, "velocity": 88}, {"time": 2081, "pitch": 63, "duration": 3, "velocity": 91}, {"time": 2086, "pitch": 54, "duration": 2, "velocity": 99}, {"time": 2086, "pitch": 63, "duration": 2, "velocity": 61}, {"time": 2086, "pitch": 59, "duration": 2, "velocity": 63}, {"time": 2086, "pitch": 66, "duration": 2, "velocity": 99}, {"time": 2090, "pitch": 66, "duration": 5, "velocity": 107}, {"time": 2090, "pitch": 54, "duration": 6, "velocity": 108}, {"time": 2090, "pitch": 63, "duration": 5, "velocity": 85}, {"time": 2091, "pitch": 59, "duration": 5, "velocity": 88}, {"time": 2096, "pitch": 47, "duration": 7, "velocity": 110}, {"time": 2100, "pitch": 54, "duration": 1, "velocity": 110}, {"time": 2100, "pitch": 66, "duration": 1, "velocity": 109}, {"time": 2100, "pitch": 63, "duration": 2, "velocity": 94}, {"time": 2100, "pitch": 59, "duration": 1, "velocity": 83}, {"time": 2102, "pitch": 35, "duration": 1, "velocity": 98}, {"time": 2106, "pitch": 56, "duration": 4, "velocity": 108}, {"time": 2106, "pitch": 65, "duration": 6, "velocity": 93}, {"time": 2106, "pitch": 68, "duration": 3, "velocity": 105}, {"time": 2106, "pitch": 49, "duration": 6, "velocity": 104}, {"time": 2106, "pitch": 61, "duration": 5, "velocity": 90}, {"time": 2106, "pitch": 37, "duration": 18, "velocity": 100}, {"time": 2114, "pitch": 49, "duration": 4, "velocity": 97}, {"time": 2117, "pitch": 56, "duration": 2, "velocity": 110}, {"time": 2118, "pitch": 68, "duration": 1, "velocity": 105}, {"time": 2118, "pitch": 65, "duration": 2, "velocity": 75}, {"time": 2118, "pitch": 61, "duration": 1, "velocity": 68}, {"time": 2120, "pitch": 70, "duration": 2, "velocity": 109}, {"time": 2120, "pitch": 58, "duration": 2, "velocity": 106}, {"time": 2121, "pitch": 61, "duration": 1, "velocity": 20}, {"time": 2123, "pitch": 49, "duration": 4, "velocity": 79}, {"time": 2124, "pitch": 56, "duration": 1, "velocity": 102}, {"time": 2124, "pitch": 68, "duration": 1, "velocity": 91}, {"time": 2124, "pitch": 66, "duration": 1, "velocity": 34}, {"time": 2126, "pitch": 37, "duration": 1, "velocity": 92}, {"time": 2130, "pitch": 47, "duration": 9, "velocity": 87}, {"time": 2130, "pitch": 59, "duration": 2, "velocity": 97}, {"time": 2130, "pitch": 63, "duration": 2, "velocity": 91}, {"time": 2130, "pitch": 66, "duration": 2, "velocity": 89}, {"time": 2130, "pitch": 71, "duration": 2, "velocity": 92}, {"time": 2130, "pitch": 35, "duration": 14, "velocity": 85}, {"time": 2134, "pitch": 63, "duration": 2, "velocity": 63}, {"time": 2134, "pitch": 59, "duration": 2, "velocity": 92}, {"time": 2134, "pitch": 66, "duration": 2, "velocity": 64}, {"time": 2134, "pitch": 71, "duration": 2, "velocity": 89}, {"time": 2139, "pitch": 66, "duration": 4, "velocity": 94}, {"time": 2139, "pitch": 71, "duration": 4, "velocity": 99}, {"time": 2139, "pitch": 59, "duration": 4, "velocity": 104}, {"time": 2139, "pitch": 63, "duration": 4, "velocity": 91}, {"time": 2142, "pitch": 47, "duration": 6, "velocity": 99}, {"time": 2145, "pitch": 63, "duration": 2, "velocity": 68}, {"time": 2145, "pitch": 59, "duration": 2, "velocity": 99}, {"time": 2145, "pitch": 66, "duration": 2, "velocity": 64}, {"time": 2145, "pitch": 71, "duration": 2, "velocity": 86}, {"time": 2148, "pitch": 35, "duration": 1, "velocity": 96}, {"time": 2153, "pitch": 37, "duration": 16, "velocity": 97}, {"time": 2153, "pitch": 49, "duration": 6, "velocity": 102}, {"time": 2153, "pitch": 61, "duration": 3, "velocity": 100}, {"time": 2153, "pitch": 73, "duration": 3, "velocity": 101}, {"time": 2153, "pitch": 68, "duration": 3, "velocity": 86}, {"time": 2153, "pitch": 65, "duration": 3, "velocity": 76}, {"time": 2158, "pitch": 73, "duration": 2, "velocity": 107}, {"time": 2158, "pitch": 61, "duration": 2, "velocity": 102}, {"time": 2158, "pitch": 68, "duration": 8, "velocity": 82}, {"time": 2158, "pitch": 65, "duration": 3, "velocity": 71}, {"time": 2162, "pitch": 49, "duration": 2, "velocity": 90}, {"time": 2162, "pitch": 75, "duration": 3, "velocity": 97}, {"time": 2162, "pitch": 61, "duration": 3, "velocity": 94}, {"time": 2162, "pitch": 65, "duration": 4, "velocity": 25}, {"time": 2165, "pitch": 49, "duration": 7, "velocity": 69}, {"time": 2168, "pitch": 61, "duration": 3, "velocity": 104}, {"time": 2168, "pitch": 73, "duration": 2, "velocity": 103}, {"time": 2168, "pitch": 68, "duration": 1, "velocity": 51}, {"time": 2171, "pitch": 37, "duration": 1, "velocity": 94}, {"time": 2177, "pitch": 70, "duration": 3, "velocity": 101}, {"time": 2177, "pitch": 34, "duration": 16, "velocity": 95}, {"time": 2177, "pitch": 46, "duration": 7, "velocity": 99}, {"time": 2177, "pitch": 58, "duration": 3, "velocity": 100}, {"time": 2177, "pitch": 61, "duration": 3, "velocity": 84}, {"time": 2177, "pitch": 65, "duration": 3, "velocity": 79}, {"time": 2182, "pitch": 65, "duration": 3, "velocity": 53}, {"time": 2182, "pitch": 70, "duration": 2, "velocity": 99}, {"time": 2182, "pitch": 58, "duration": 2, "velocity": 99}, {"time": 2182, "pitch": 61, "duration": 3, "velocity": 59}, {"time": 2186, "pitch": 61, "duration": 5, "velocity": 69}, {"time": 2186, "pitch": 70, "duration": 4, "velocity": 105}, {"time": 2186, "pitch": 58, "duration": 4, "velocity": 100}, {"time": 2186, "pitch": 65, "duration": 5, "velocity": 56}, {"time": 2189, "pitch": 46, "duration": 7, "velocity": 100}, {"time": 2192, "pitch": 68, "duration": 2, "velocity": 83}, {"time": 2192, "pitch": 65, "duration": 4, "velocity": 35}, {"time": 2192, "pitch": 56, "duration": 2, "velocity": 76}, {"time": 2193, "pitch": 61, "duration": 1, "velocity": 56}, {"time": 2195, "pitch": 61, "duration": 1, "velocity": 27}, {"time": 2195, "pitch": 34, "duration": 2, "velocity": 85}, {"time": 2198, "pitch": 70, "duration": 1, "velocity": 89}, {"time": 2198, "pitch": 58, "duration": 1, "velocity": 87}, {"time": 2201, "pitch": 51, "duration": 10, "velocity": 100}, {"time": 2201, "pitch": 39, "duration": 14, "velocity": 94}, {"time": 2205, "pitch": 55, "duration": 1, "velocity": 85}, {"time": 2205, "pitch": 63, "duration": 1, "velocity": 87}, {"time": 2206, "pitch": 58, "duration": 1, "velocity": 55}, {"time": 2210, "pitch": 55, "duration": 6, "velocity": 100}, {"time": 2210, "pitch": 63, "duration": 5, "velocity": 100}, {"time": 2210, "pitch": 58, "duration": 6, "velocity": 91}, {"time": 2214, "pitch": 51, "duration": 3, "velocity": 102}, {"time": 2216, "pitch": 39, "duration": 2, "velocity": 92}, {"time": 2219, "pitch": 63, "duration": 2, "velocity": 91}, {"time": 2219, "pitch": 55, "duration": 1, "velocity": 85}, {"time": 2219, "pitch": 58, "duration": 1, "velocity": 72}, {"time": 2222, "pitch": 65, "duration": 1, "velocity": 66}, {"time": 2225, "pitch": 32, "duration": 14, "velocity": 100}, {"time": 2225, "pitch": 44, "duration": 10, "velocity": 102}, {"time": 2225, "pitch": 66, "duration": 4, "velocity": 87}, {"time": 2225, "pitch": 56, "duration": 4, "velocity": 72}, {"time": 2230, "pitch": 66, "duration": 3, "velocity": 82}, {"time": 2230, "pitch": 56, "duration": 3, "velocity": 87}, {"time": 2234, "pitch": 56, "duration": 5, "velocity": 90}, {"time": 2234, "pitch": 66, "duration": 5, "velocity": 95}, {"time": 2237, "pitch": 44, "duration": 7, "velocity": 97}, {"time": 2240, "pitch": 66, "duration": 4, "velocity": 80}, {"time": 2240, "pitch": 56, "duration": 3, "velocity": 81}, {"time": 2243, "pitch": 32, "duration": 1, "velocity": 97}, {"time": 2249, "pitch": 58, "duration": 3, "velocity": 100}, {"time": 2249, "pitch": 65, "duration": 4, "velocity": 90}, {"time": 2249, "pitch": 34, "duration": 16, "velocity": 94}, {"time": 2249, "pitch": 46, "duration": 7, "velocity": 92}, {"time": 2249, "pitch": 61, "duration": 3, "velocity": 85}, {"time": 2254, "pitch": 61, "duration": 3, "velocity": 67}, {"time": 2254, "pitch": 65, "duration": 4, "velocity": 89}, {"time": 2254, "pitch": 58, "duration": 3, "velocity": 87}, {"time": 2258, "pitch": 58, "duration": 5, "velocity": 92}, {"time": 2258, "pitch": 61, "duration": 5, "velocity": 87}, {"time": 2258, "pitch": 65, "duration": 5, "velocity": 86}, {"time": 2262, "pitch": 46, "duration": 7, "velocity": 102}, {"time": 2264, "pitch": 61, "duration": 4, "velocity": 67}, {"time": 2264, "pitch": 58, "duration": 4, "velocity": 85}, {"time": 2264, "pitch": 65, "duration": 4, "velocity": 80}, {"time": 2267, "pitch": 34, "duration": 2, "velocity": 99}, {"time": 2270, "pitch": 34, "duration": 2, "velocity": 63}, {"time": 2270, "pitch": 46, "duration": 1, "velocity": 46}, {"time": 2273, "pitch": 66, "duration": 4, "velocity": 92}, {"time": 2273, "pitch": 59, "duration": 4, "velocity": 102}, {"time": 2273, "pitch": 63, "duration": 4, "velocity": 92}, {"time": 2274, "pitch": 71, "duration": 7, "velocity": 99}, {"time": 2274, "pitch": 35, "duration": 16, "velocity": 89}, {"time": 2274, "pitch": 47, "duration": 13, "velocity": 84}, {"time": 2278, "pitch": 59, "duration": 3, "velocity": 97}, {"time": 2278, "pitch": 63, "duration": 3, "velocity": 90}, {"time": 2278, "pitch": 66, "duration": 3, "velocity": 75}, {"time": 2283, "pitch": 71, "duration": 2, "velocity": 90}, {"time": 2283, "pitch": 59, "duration": 1, "velocity": 111}, {"time": 2283, "pitch": 63, "duration": 1, "velocity": 91}, {"time": 2283, "pitch": 66, "duration": 1, "velocity": 97}, {"time": 2286, "pitch": 59, "duration": 3, "velocity": 108}, {"time": 2286, "pitch": 66, "duration": 3, "velocity": 83}, {"time": 2286, "pitch": 71, "duration": 3, "velocity": 100}, {"time": 2286, "pitch": 63, "duration": 3, "velocity": 90}, {"time": 2288, "pitch": 47, "duration": 6, "velocity": 95}, {"time": 2290, "pitch": 71, "duration": 2, "velocity": 102}, {"time": 2290, "pitch": 59, "duration": 2, "velocity": 108}, {"time": 2290, "pitch": 63, "duration": 2, "velocity": 94}, {"time": 2290, "pitch": 66, "duration": 2, "velocity": 89}, {"time": 2294, "pitch": 35, "duration": 1, "velocity": 95}, {"time": 2294, "pitch": 59, "duration": 1, "velocity": 99}, {"time": 2294, "pitch": 63, "duration": 1, "velocity": 75}, {"time": 2294, "pitch": 66, "duration": 1, "velocity": 71}, {"time": 2294, "pitch": 71, "duration": 1, "velocity": 90}, {"time": 2297, "pitch": 37, "duration": 1, "velocity": 100}, {"time": 2297, "pitch": 49, "duration": 2, "velocity": 104}, {"time": 2297, "pitch": 61, "duration": 2, "velocity": 102}, {"time": 2297, "pitch": 65, "duration": 2, "velocity": 82}, {"time": 2297, "pitch": 68, "duration": 2, "velocity": 94}, {"time": 2297, "pitch": 73, "duration": 2, "velocity": 103}, {"time": 2300, "pitch": 37, "duration": 1, "velocity": 63}, {"time": 2300, "pitch": 49, "duration": 1, "velocity": 84}, {"time": 2300, "pitch": 61, "duration": 1, "velocity": 80}, {"time": 2300, "pitch": 65, "duration": 1, "velocity": 64}, {"time": 2300, "pitch": 68, "duration": 1, "velocity": 56}, {"time": 2300, "pitch": 73, "duration": 1, "velocity": 80}, {"time": 2303, "pitch": 37, "duration": 13, "velocity": 88}, {"time": 2303, "pitch": 49, "duration": 10, "velocity": 111}, {"time": 2303, "pitch": 61, "duration": 7, "velocity": 102}, {"time": 2303, "pitch": 65, "duration": 6, "velocity": 71}, {"time": 2303, "pitch": 68, "duration": 7, "velocity": 80}, {"time": 2303, "pitch": 73, "duration": 6, "velocity": 87}, {"time": 2312, "pitch": 61, "duration": 6, "velocity": 97}, {"time": 2312, "pitch": 65, "duration": 6, "velocity": 76}, {"time": 2312, "pitch": 68, "duration": 6, "velocity": 83}, {"time": 2312, "pitch": 73, "duration": 5, "velocity": 101}, {"time": 2315, "pitch": 49, "duration": 3, "velocity": 88}, {"time": 2318, "pitch": 37, "duration": 1, "velocity": 79}, {"time": 2321, "pitch": 66, "duration": 5, "velocity": 91}, {"time": 2321, "pitch": 58, "duration": 5, "velocity": 94}, {"time": 2321, "pitch": 61, "duration": 5, "velocity": 83}, {"time": 2321, "pitch": 30, "duration": 1, "velocity": 84}, {"time": 2321, "pitch": 42, "duration": 1, "velocity": 79}, {"time": 2330, "pitch": 58, "duration": 5, "velocity": 94}, {"time": 2330, "pitch": 61, "duration": 6, "velocity": 85}, {"time": 2330, "pitch": 66, "duration": 5, "velocity": 95}, {"time": 2330, "pitch": 54, "duration": 10, "velocity": 84}, {"time": 2330, "pitch": 42, "duration": 27, "velocity": 71}, {"time": 2336, "pitch": 58, "duration": 4, "velocity": 84}, {"time": 2336, "pitch": 68, "duration": 3, "velocity": 95}, {"time": 2337, "pitch": 61, "duration": 2, "velocity": 74}, {"time": 2337, "pitch": 66, "duration": 1, "velocity": 43}, {"time": 2342, "pitch": 58, "duration": 5, "velocity": 90}, {"time": 2342, "pitch": 70, "duration": 3, "velocity": 89}, {"time": 2342, "pitch": 61, "duration": 4, "velocity": 72}, {"time": 2348, "pitch": 54, "duration": 4, "velocity": 102}, {"time": 2351, "pitch": 58, "duration": 2, "velocity": 99}, {"time": 2351, "pitch": 61, "duration": 3, "velocity": 84}, {"time": 2351, "pitch": 66, "duration": 1, "velocity": 95}, {"time": 2354, "pitch": 54, "duration": 7, "velocity": 104}, {"time": 2357, "pitch": 58, "duration": 2, "velocity": 106}, {"time": 2357, "pitch": 61, "duration": 3, "velocity": 90}, {"time": 2357, "pitch": 68, "duration": 2, "velocity": 103}, {"time": 2360, "pitch": 42, "duration": 1, "velocity": 99}, {"time": 2363, "pitch": 61, "duration": 2, "velocity": 72}, {"time": 2363, "pitch": 70, "duration": 2, "velocity": 109}, {"time": 2363, "pitch": 58, "duration": 1, "velocity": 102}, {"time": 2369, "pitch": 66, "duration": 3, "velocity": 87}, {"time": 2369, "pitch": 59, "duration": 3, "velocity": 100}, {"time": 2369, "pitch": 63, "duration": 3, "velocity": 90}, {"time": 2369, "pitch": 71, "duration": 4, "velocity": 95}, {"time": 2369, "pitch": 35, "duration": 19, "velocity": 95}, {"time": 2369, "pitch": 47, "duration": 11, "velocity": 91}, {"time": 2374, "pitch": 59, "duration": 2, "velocity": 91}, {"time": 2374, "pitch": 63, "duration": 2, "velocity": 67}, {"time": 2374, "pitch": 66, "duration": 2, "velocity": 67}, {"time": 2374, "pitch": 71, "duration": 3, "velocity": 83}, {"time": 2379, "pitch": 59, "duration": 6, "velocity": 108}, {"time": 2379, "pitch": 63, "duration": 6, "velocity": 102}, {"time": 2379, "pitch": 66, "duration": 6, "velocity": 103}, {"time": 2379, "pitch": 71, "duration": 6, "velocity": 108}, {"time": 2385, "pitch": 47, "duration": 6, "velocity": 102}, {"time": 2387, "pitch": 59, "duration": 4, "velocity": 106}, {"time": 2387, "pitch": 71, "duration": 4, "velocity": 102}, {"time": 2388, "pitch": 63, "duration": 3, "velocity": 94}, {"time": 2388, "pitch": 66, "duration": 2, "velocity": 92}, {"time": 2390, "pitch": 35, "duration": 1, "velocity": 79}, {"time": 2393, "pitch": 71, "duration": 3, "velocity": 96}, {"time": 2393, "pitch": 59, "duration": 3, "velocity": 102}, {"time": 2393, "pitch": 63, "duration": 3, "velocity": 92}, {"time": 2393, "pitch": 66, "duration": 3, "velocity": 94}, {"time": 2393, "pitch": 35, "duration": 18, "velocity": 92}, {"time": 2393, "pitch": 47, "duration": 10, "velocity": 99}, {"time": 2398, "pitch": 63, "duration": 3, "velocity": 83}, {"time": 2398, "pitch": 71, "duration": 2, "velocity": 86}, {"time": 2398, "pitch": 59, "duration": 2, "velocity": 102}, {"time": 2398, "pitch": 66, "duration": 3, "velocity": 78}, {"time": 2402, "pitch": 63, "duration": 7, "velocity": 67}, {"time": 2402, "pitch": 66, "duration": 7, "velocity": 67}, {"time": 2402, "pitch": 59, "duration": 7, "velocity": 106}, {"time": 2402, "pitch": 71, "duration": 7, "velocity": 99}, {"time": 2408, "pitch": 47, "duration": 6, "velocity": 104}, {"time": 2411, "pitch": 59, "duration": 1, "velocity": 108}, {"time": 2411, "pitch": 63, "duration": 2, "velocity": 100}, {"time": 2411, "pitch": 66, "duration": 1, "velocity": 97}, {"time": 2411, "pitch": 71, "duration": 1, "velocity": 102}, {"time": 2414, "pitch": 35, "duration": 1, "velocity": 87}, {"time": 2417, "pitch": 54, "duration": 3, "velocity": 95}, {"time": 2417, "pitch": 66, "duration": 3, "velocity": 89}, {"time": 2417, "pitch": 51, "duration": 10, "velocity": 102}, {"time": 2417, "pitch": 39, "duration": 20, "velocity": 102}, {"time": 2417, "pitch": 58, "duration": 3, "velocity": 83}, {"time": 2417, "pitch": 63, "duration": 3, "velocity": 77}, {"time": 2421, "pitch": 66, "duration": 3, "velocity": 56}, {"time": 2421, "pitch": 54, "duration": 3, "velocity": 77}, {"time": 2421, "pitch": 58, "duration": 3, "velocity": 67}, {"time": 2421, "pitch": 63, "duration": 3, "velocity": 58}, {"time": 2426, "pitch": 54, "duration": 7, "velocity": 104}, {"time": 2426, "pitch": 66, "duration": 6, "velocity": 103}, {"time": 2426, "pitch": 58, "duration": 7, "velocity": 92}, {"time": 2426, "pitch": 63, "duration": 6, "velocity": 88}, {"time": 2432, "pitch": 51, "duration": 5, "velocity": 99}, {"time": 2435, "pitch": 54, "duration": 2, "velocity": 95}, {"time": 2435, "pitch": 66, "duration": 2, "velocity": 89}, {"time": 2435, "pitch": 58, "duration": 2, "velocity": 83}, {"time": 2435, "pitch": 63, "duration": 2, "velocity": 74}, {"time": 2441, "pitch": 43, "duration": 3, "velocity": 110}, {"time": 2441, "pitch": 51, "duration": 3, "velocity": 111}, {"time": 2441, "pitch": 55, "duration": 3, "velocity": 100}, {"time": 2441, "pitch": 67, "duration": 3, "velocity": 101}, {"time": 2441, "pitch": 58, "duration": 3, "velocity": 92}, {"time": 2441, "pitch": 63, "duration": 3, "velocity": 91}, {"time": 2446, "pitch": 51, "duration": 6, "velocity": 83}, {"time": 2446, "pitch": 55, "duration": 2, "velocity": 88}, {"time": 2446, "pitch": 43, "duration": 13, "velocity": 90}, {"time": 2446, "pitch": 58, "duration": 2, "velocity": 59}, {"time": 2446, "pitch": 63, "duration": 2, "velocity": 62}, {"time": 2446, "pitch": 67, "duration": 2, "velocity": 86}, {"time": 2451, "pitch": 55, "duration": 2, "velocity": 94}, {"time": 2451, "pitch": 58, "duration": 2, "velocity": 84}, {"time": 2451, "pitch": 65, "duration": 1, "velocity": 86}, {"time": 2454, "pitch": 55, "duration": 3, "velocity": 79}, {"time": 2454, "pitch": 67, "duration": 3, "velocity": 107}, {"time": 2454, "pitch": 51, "duration": 1, "velocity": 100}, {"time": 2454, "pitch": 58, "duration": 4, "velocity": 88}, {"time": 2456, "pitch": 51, "duration": 7, "velocity": 99}, {"time": 2459, "pitch": 55, "duration": 2, "velocity": 94}, {"time": 2459, "pitch": 65, "duration": 3, "velocity": 90}, {"time": 2459, "pitch": 58, "duration": 3, "velocity": 77}, {"time": 2462, "pitch": 43, "duration": 1, "velocity": 84}, {"time": 2465, "pitch": 56, "duration": 3, "velocity": 106}, {"time": 2466, "pitch": 59, "duration": 2, "velocity": 97}, {"time": 2466, "pitch": 63, "duration": 2, "velocity": 100}, {"time": 2466, "pitch": 32, "duration": 21, "velocity": 100}, {"time": 2466, "pitch": 44, "duration": 5, "velocity": 102}, {"time": 2470, "pitch": 63, "duration": 2, "velocity": 76}, {"time": 2470, "pitch": 56, "duration": 3, "velocity": 88}, {"time": 2470, "pitch": 59, "duration": 2, "velocity": 72}, {"time": 2475, "pitch": 63, "duration": 4, "velocity": 84}, {"time": 2475, "pitch": 56, "duration": 4, "velocity": 94}, {"time": 2475, "pitch": 59, "duration": 4, "velocity": 88}, {"time": 2478, "pitch": 44, "duration": 4, "velocity": 111}, {"time": 2481, "pitch": 56, "duration": 4, "velocity": 113}, {"time": 2481, "pitch": 59, "duration": 4, "velocity": 75}, {"time": 2481, "pitch": 63, "duration": 3, "velocity": 67}, {"time": 2481, "pitch": 68, "duration": 3, "velocity": 103}, {"time": 2486, "pitch": 44, "duration": 1, "velocity": 90}, {"time": 2489, "pitch": 32, "duration": 20, "velocity": 97}, {"time": 2489, "pitch": 56, "duration": 3, "velocity": 106}, {"time": 2489, "pitch": 44, "duration": 5, "velocity": 99}, {"time": 2489, "pitch": 63, "duration": 3, "velocity": 95}, {"time": 2489, "pitch": 59, "duration": 3, "velocity": 91}, {"time": 2493, "pitch": 63, "duration": 4, "velocity": 69}, {"time": 2493, "pitch": 59, "duration": 4, "velocity": 77}, {"time": 2493, "pitch": 56, "duration": 4, "velocity": 85}, {"time": 2498, "pitch": 44, "duration": 4, "velocity": 104}, {"time": 2501, "pitch": 68, "duration": 2, "velocity": 103}, {"time": 2501, "pitch": 56, "duration": 2, "velocity": 106}, {"time": 2501, "pitch": 63, "duration": 2, "velocity": 87}, {"time": 2501, "pitch": 59, "duration": 1, "velocity": 79}, {"time": 2505, "pitch": 58, "duration": 2, "velocity": 99}, {"time": 2505, "pitch": 70, "duration": 2, "velocity": 103}, {"time": 2506, "pitch": 44, "duration": 3, "velocity": 88}, {"time": 2509, "pitch": 71, "duration": 1, "velocity": 92}, {"time": 2509, "pitch": 59, "duration": 1, "velocity": 88}, {"time": 2513, "pitch": 61, "duration": 3, "velocity": 102}, {"time": 2513, "pitch": 49, "duration": 8, "velocity": 102}, {"time": 2513, "pitch": 68, "duration": 3, "velocity": 94}, {"time": 2513, "pitch": 73, "duration": 3, "velocity": 105}, {"time": 2513, "pitch": 37, "duration": 22, "velocity": 99}, {"time": 2513, "pitch": 65, "duration": 3, "velocity": 76}, {"time": 2518, "pitch": 73, "duration": 3, "velocity": 74}, {"time": 2518, "pitch": 61, "duration": 7, "velocity": 79}, {"time": 2518, "pitch": 65, "duration": 7, "velocity": 66}, {"time": 2518, "pitch": 68, "duration": 7, "velocity": 73}, {"time": 2522, "pitch": 49, "duration": 7, "velocity": 63}, {"time": 2522, "pitch": 73, "duration": 2, "velocity": 15}, {"time": 2528, "pitch": 61, "duration": 2, "velocity": 106}, {"time": 2528, "pitch": 73, "duration": 2, "velocity": 107}, {"time": 2529, "pitch": 68, "duration": 2, "velocity": 86}, {"time": 2529, "pitch": 65, "duration": 2, "velocity": 78}, {"time": 2534, "pitch": 49, "duration": 1, "velocity": 72}, {"time": 2534, "pitch": 71, "duration": 4, "velocity": 93}, {"time": 2534, "pitch": 59, "duration": 4, "velocity": 91}, {"time": 2537, "pitch": 37, "duration": 15, "velocity": 102}, {"time": 2537, "pitch": 49, "duration": 5, "velocity": 106}, {"time": 2540, "pitch": 70, "duration": 4, "velocity": 103}, {"time": 2540, "pitch": 58, "duration": 5, "velocity": 99}, {"time": 2547, "pitch": 68, "duration": 10, "velocity": 66}, {"time": 2547, "pitch": 56, "duration": 7, "velocity": 72}, {"time": 2561, "pitch": 40, "duration": 49, "velocity": 89}, {"time": 2567, "pitch": 47, "duration": 42, "velocity": 69}, {"time": 2573, "pitch": 52, "duration": 36, "velocity": 77}, {"time": 2576, "pitch": 51, "duration": 33, "velocity": 64}, {"time": 2579, "pitch": 54, "duration": 29, "velocity": 69}, {"time": 2582, "pitch": 58, "duration": 20, "velocity": 69}, {"time": 2585, "pitch": 61, "duration": 22, "velocity": 79}, {"time": 2609, "pitch": 46, "duration": 17, "velocity": 74}, {"time": 2612, "pitch": 58, "duration": 10, "velocity": 64}, {"time": 2612, "pitch": 61, "duration": 5, "velocity": 64}, {"time": 2612, "pitch": 65, "duration": 4, "velocity": 64}, {"time": 2612, "pitch": 68, "duration": 5, "velocity": 64}, {"time": 2615, "pitch": 61, "duration": 2, "velocity": 72}, {"time": 2621, "pitch": 65, "duration": 12, "velocity": 99}, {"time": 2624, "pitch": 58, "duration": 2, "velocity": 95}, {"time": 2624, "pitch": 61, "duration": 5, "velocity": 127}, {"time": 2627, "pitch": 61, "duration": 2, "velocity": 88}, {"time": 2630, "pitch": 58, "duration": 7, "velocity": 127}, {"time": 2633, "pitch": 39, "duration": 17, "velocity": 96}, {"time": 2639, "pitch": 51, "duration": 8, "velocity": 71}, {"time": 2639, "pitch": 61, "duration": 3, "velocity": 48}, {"time": 2639, "pitch": 63, "duration": 2, "velocity": 102}, {"time": 2642, "pitch": 63, "duration": 4, "velocity": 122}, {"time": 2645, "pitch": 63, "duration": 1, "velocity": 127}, {"time": 2648, "pitch": 51, "duration": 4, "velocity": 75}, {"time": 2651, "pitch": 54, "duration": 5, "velocity": 86}, {"time": 2657, "pitch": 44, "duration": 18, "velocity": 102}, {"time": 2663, "pitch": 56, "duration": 8, "velocity": 92}, {"time": 2669, "pitch": 63, "duration": 13, "velocity": 100}, {"time": 2669, "pitch": 68, "duration": 12, "velocity": 107}, {"time": 2672, "pitch": 56, "duration": 5, "velocity": 81}, {"time": 2675, "pitch": 59, "duration": 7, "velocity": 72}, {"time": 2681, "pitch": 46, "duration": 17, "velocity": 117}, {"time": 2684, "pitch": 58, "duration": 10, "velocity": 96}, {"time": 2693, "pitch": 61, "duration": 5, "velocity": 127}, {"time": 2693, "pitch": 65, "duration": 8, "velocity": 112}, {"time": 2696, "pitch": 58, "duration": 3, "velocity": 71}, {"time": 2699, "pitch": 61, "duration": 5, "velocity": 122}, {"time": 2705, "pitch": 47, "duration": 3, "velocity": 117}, {"time": 2705, "pitch": 59, "duration": 3, "velocity": 90}, {"time": 2705, "pitch": 63, "duration": 3, "velocity": 122}, {"time": 2705, "pitch": 66, "duration": 3, "velocity": 107}, {"time": 2708, "pitch": 47, "duration": 3, "velocity": 117}, {"time": 2708, "pitch": 59, "duration": 3, "velocity": 96}, {"time": 2708, "pitch": 63, "duration": 3, "velocity": 122}, {"time": 2708, "pitch": 66, "duration": 3, "velocity": 112}, {"time": 2714, "pitch": 47, "duration": 3, "velocity": 100}, {"time": 2714, "pitch": 59, "duration": 2, "velocity": 96}, {"time": 2714, "pitch": 63, "duration": 2, "velocity": 127}, {"time": 2714, "pitch": 66, "duration": 3, "velocity": 117}, {"time": 2717, "pitch": 48, "duration": 3, "velocity": 122}, {"time": 2717, "pitch": 60, "duration": 3, "velocity": 117}, {"time": 2717, "pitch": 63, "duration": 3, "velocity": 127}, {"time": 2717, "pitch": 66, "duration": 3, "velocity": 122}, {"time": 2720, "pitch": 48, "duration": 3, "velocity": 112}, {"time": 2720, "pitch": 60, "duration": 3, "velocity": 102}, {"time": 2720, "pitch": 63, "duration": 3, "velocity": 127}, {"time": 2720, "pitch": 66, "duration": 3, "velocity": 127}, {"time": 2726, "pitch": 48, "duration": 2, "velocity": 117}, {"time": 2726, "pitch": 60, "duration": 2, "velocity": 112}, {"time": 2726, "pitch": 63, "duration": 2, "velocity": 127}, {"time": 2726, "pitch": 66, "duration": 2, "velocity": 117}, {"time": 2729, "pitch": 49, "duration": 5, "velocity": 127}, {"time": 2729, "pitch": 61, "duration": 4, "velocity": 127}, {"time": 2729, "pitch": 65, "duration": 4, "velocity": 127}, {"time": 2729, "pitch": 68, "duration": 4, "velocity": 127}, {"time": 2738, "pitch": 49, "duration": 2, "velocity": 127}, {"time": 2738, "pitch": 61, "duration": 2, "velocity": 102}, {"time": 2738, "pitch": 65, "duration": 2, "velocity": 107}, {"time": 2738, "pitch": 68, "duration": 2, "velocity": 117}, {"time": 2741, "pitch": 49, "duration": 2, "velocity": 127}, {"time": 2741, "pitch": 61, "duration": 2, "velocity": 117}, {"time": 2741, "pitch": 65, "duration": 2, "velocity": 100}, {"time": 2741, "pitch": 68, "duration": 2, "velocity": 122}, {"time": 2744, "pitch": 49, "duration": 2, "velocity": 127}, {"time": 2744, "pitch": 61, "duration": 2, "velocity": 127}, {"time": 2744, "pitch": 65, "duration": 2, "velocity": 117}, {"time": 2744, "pitch": 68, "duration": 2, "velocity": 127}, {"time": 2747, "pitch": 49, "duration": 2, "velocity": 122}, {"time": 2747, "pitch": 61, "duration": 2, "velocity": 122}, {"time": 2747, "pitch": 65, "duration": 2, "velocity": 99}, {"time": 2747, "pitch": 68, "duration": 2, "velocity": 112}, {"time": 2750, "pitch": 49, "duration": 3, "velocity": 127}, {"time": 2750, "pitch": 61, "duration": 4, "velocity": 127}, {"time": 2750, "pitch": 65, "duration": 3, "velocity": 102}, {"time": 2750, "pitch": 68, "duration": 4, "velocity": 127}, {"time": 2753, "pitch": 47, "duration": 22, "velocity": 90}, {"time": 2756, "pitch": 54, "duration": 11, "velocity": 107}, {"time": 2759, "pitch": 59, "duration": 6, "velocity": 107}, {"time": 2762, "pitch": 63, "duration": 5, "velocity": 127}, {"time": 2765, "pitch": 66, "duration": 11, "velocity": 127}, {"time": 2768, "pitch": 54, "duration": 7, "velocity": 97}, {"time": 2771, "pitch": 63, "duration": 5, "velocity": 127}, {"time": 2774, "pitch": 59, "duration": 3, "velocity": 96}, {"time": 2777, "pitch": 47, "duration": 15, "velocity": 102}, {"time": 2780, "pitch": 61, "duration": 5, "velocity": 127}, {"time": 2783, "pitch": 65, "duration": 13, "velocity": 69}, {"time": 2786, "pitch": 61, "duration": 5, "velocity": 112}, {"time": 2789, "pitch": 68, "duration": 12, "velocity": 89}, {"time": 2789, "pitch": 70, "duration": 4, "velocity": 95}, {"time": 2792, "pitch": 47, "duration": 4, "velocity": 92}, {"time": 2795, "pitch": 61, "duration": 5, "velocity": 117}, {"time": 2798, "pitch": 65, "duration": 4, "velocity": 74}, {"time": 2801, "pitch": 46, "duration": 19, "velocity": 122}, {"time": 2804, "pitch": 58, "duration": 11, "velocity": 100}, {"time": 2807, "pitch": 61, "duration": 8, "velocity": 107}, {"time": 2810, "pitch": 65, "duration": 8, "velocity": 74}, {"time": 2813, "pitch": 70, "duration": 10, "velocity": 99}, {"time": 2816, "pitch": 58, "duration": 3, "velocity": 100}, {"time": 2819, "pitch": 61, "duration": 6, "velocity": 122}, {"time": 2822, "pitch": 65, "duration": 3, "velocity": 58}, {"time": 2825, "pitch": 39, "duration": 37, "velocity": 99}, {"time": 2825, "pitch": 63, "duration": 38, "velocity": 112}, {"time": 2825, "pitch": 67, "duration": 37, "velocity": 95}, {"time": 2825, "pitch": 70, "duration": 38, "velocity": 107}, {"time": 2831, "pitch": 51, "duration": 31, "velocity": 36}, {"time": 2873, "pitch": 44, "duration": 17, "velocity": 92}, {"time": 2879, "pitch": 56, "duration": 14, "velocity": 50}, {"time": 2885, "pitch": 59, "duration": 1, "velocity": 43}, {"time": 2885, "pitch": 63, "duration": 13, "velocity": 81}, {"time": 2885, "pitch": 68, "duration": 12, "velocity": 92}, {"time": 2891, "pitch": 59, "duration": 8, "velocity": 49}, {"time": 2897, "pitch": 46, "duration": 19, "velocity": 77}, {"time": 2903, "pitch": 58, "duration": 8, "velocity": 67}, {"time": 2909, "pitch": 61, "duration": 11, "velocity": 100}, {"time": 2909, "pitch": 65, "duration": 11, "velocity": 86}, {"time": 2921, "pitch": 47, "duration": 18, "velocity": 86}, {"time": 2927, "pitch": 54, "duration": 12, "velocity": 53}, {"time": 2933, "pitch": 59, "duration": 4, "velocity": 90}, {"time": 2945, "pitch": 37, "duration": 28, "velocity": 97}, {"time": 2945, "pitch": 61, "duration": 28, "velocity": 77}, {"time": 2945, "pitch": 65, "duration": 28, "velocity": 65}, {"time": 2951, "pitch": 49, "duration": 21, "velocity": 30}, {"time": 2969, "pitch": 42, "duration": 23, "velocity": 78}, {"time": 2969, "pitch": 61, "duration": 4, "velocity": 67}, {"time": 2969, "pitch": 66, "duration": 11, "velocity": 63}, {"time": 2969, "pitch": 70, "duration": 7, "velocity": 65}, {"time": 2975, "pitch": 49, "duration": 18, "velocity": 31}, {"time": 2981, "pitch": 66, "duration": 7, "velocity": 55}, {"time": 2981, "pitch": 70, "duration": 8, "velocity": 89}, {"time": 2984, "pitch": 54, "duration": 10, "velocity": 55}, {"time": 2987, "pitch": 61, "duration": 22, "velocity": 62}, {"time": 2990, "pitch": 66, "duration": 3, "velocity": 46}, {"time": 2993, "pitch": 42, "duration": 23, "velocity": 83}, {"time": 2993, "pitch": 66, "duration": 11, "velocity": 54}, {"time": 2993, "pitch": 70, "duration": 11, "velocity": 68}, {"time": 2999, "pitch": 49, "duration": 18, "velocity": 27}, {"time": 3005, "pitch": 66, "duration": 7, "velocity": 58}, {"time": 3005, "pitch": 70, "duration": 11, "velocity": 66}, {"time": 3008, "pitch": 54, "duration": 15, "velocity": 42}, {"time": 3011, "pitch": 61, "duration": 6, "velocity": 62}, {"time": 3017, "pitch": 42, "duration": 23, "velocity": 76}, {"time": 3017, "pitch": 61, "duration": 17, "velocity": 59}, {"time": 3017, "pitch": 66, "duration": 12, "velocity": 63}, {"time": 3017, "pitch": 70, "duration": 11, "velocity": 66}, {"time": 3023, "pitch": 49, "duration": 18, "velocity": 40}, {"time": 3029, "pitch": 66, "duration": 7, "velocity": 59}, {"time": 3029, "pitch": 70, "duration": 21, "velocity": 93}, {"time": 3032, "pitch": 54, "duration": 23, "velocity": 48}, {"time": 3035, "pitch": 61, "duration": 22, "velocity": 58}, {"time": 3038, "pitch": 66, "duration": 14, "velocity": 48}, {"time": 3041, "pitch": 42, "duration": 23, "velocity": 77}, {"time": 3047, "pitch": 49, "duration": 18, "velocity": 29}, {"time": 3053, "pitch": 66, "duration": 1, "velocity": 43}, {"time": 3053, "pitch": 70, "duration": 22, "velocity": 90}, {"time": 3056, "pitch": 54, "duration": 96, "velocity": 39}, {"time": 3059, "pitch": 61, "duration": 20, "velocity": 64}, {"time": 3062, "pitch": 66, "duration": 14, "velocity": 51}, {"time": 3065, "pitch": 42, "duration": 22, "velocity": 71}, {"time": 3071, "pitch": 49, "duration": 42, "velocity": 28}, {"time": 3077, "pitch": 66, "duration": 22, "velocity": 58}, {"time": 3077, "pitch": 70, "duration": 21, "velocity": 74}, {"time": 3083, "pitch": 61, "duration": 12, "velocity": 47}, {"time": 3089, "pitch": 42, "duration": 23, "velocity": 63}, {"time": 3095, "pitch": 61, "duration": 10, "velocity": 51}, {"time": 3101, "pitch": 70, "duration": 50, "velocity": 65}, {"time": 3107, "pitch": 61, "duration": 27, "velocity": 48}, {"time": 3113, "pitch": 42, "duration": 37, "velocity": 56}, {"time": 3119, "pitch": 49, "duration": 30, "velocity": 55}, {"time": 3128, "pitch": 66, "duration": 23, "velocity": 53}, {"time": 3137, "pitch": 61, "duration": 12, "velocity": 52}, {"time": 3152, "pitch": 42, "duration": 60, "velocity": 47}, {"time": 3155, "pitch": 49, "duration": 56, "velocity": 38}, {"time": 3155, "pitch": 54, "duration": 56, "velocity": 60}, {"time": 3155, "pitch": 61, "duration": 57, "velocity": 57}, {"time": 3155, "pitch": 66, "duration": 56, "velocity": 51}, {"time": 3158, "pitch": 70, "duration": 55, "velocity": 42}], "annotations": [{"time": 53, "annotation": {"number": 64, "value": 127}, "group": "control_change"}, {"time": 75, "annotation": {"number": 64, "value": 0}, "group": "control_change"}, {"time": 77, "annotation": {"number": 64, "value": 127}, "group": "control_change"}, {"time": 98, "annotation": {"number": 64, "value": 0}, "group": "control_change"}, {"time": 103, "annotation": {"number": 64, "value": 127}, "group": "control_change"}, {"time": 121, "annotation": {"number": 64, "value": 0}, "group": "control_change"}, {"time": 125, "annotation": {"number": 64, "value": 127}, "group": "control_change"}, {"time": 159, "annotation": {"number": 64, "value": 0}, "group": "control_change"}, {"time": 164, "annotation": {"number": 64, "value": 127}, "group": "control_change"}, {"time": 173, "annotation": {"number": 64, "value": 0}, "group": "control_change"}, {"time": 176, "annotation": {"number": 64, "value": 127}, "group": "control_change"}, {"time": 184, "annotation": {"number": 64, "value": 0}, "group": "control_change"}, {"time": 187, "annotation": {"number": 64, "value": 127}, "group": "control_change"}, {"time": 208, "annotation": {"number": 64, "value": 0}, "group": "control_change"}, {"time": 210, "annotation": {"number": 64, "value": 127}, "group": "control_change"}, {"time": 232, "annotation": {"number": 64, "value": 0}, "group": "control_change"}, {"time": 265, "annotation": {"number": 64, "value": 127}, "group": "control_change"}, {"time": 303, "annotation": {"number": 64, "value": 0}, "group": "control_change"}, {"time": 306, "annotation": {"number": 64, "value": 127}, "group": "control_change"}, {"time": 351, "annotation": {"number": 64, "value": 0}, "group": "control_change"}, {"time": 353, "annotation": {"number": 64, "value": 127}, "group": "control_change"}, {"time": 375, "annotation": {"number": 64, "value": 0}, "group": "control_change"}, {"time": 378, "annotation": {"number": 64, "value": 127}, "group": "control_change"}, {"time": 399, "annotation": {"number": 64, "value": 0}, "group": "control_change"}, {"time": 402, "annotation": {"number": 64, "value": 127}, "group": "control_change"}, {"time": 423, "annotation": {"number": 64, "value": 0}, "group": "control_change"}, {"time": 425, "annotation": {"number": 64, "value": 127}, "group": "control_change"}, {"time": 448, "annotation": {"number": 64, "value": 0}, "group": "control_change"}, {"time": 450, "annotation": {"number": 64, "value": 127}, "group": "control_change"}, {"time": 471, "annotation": {"number": 64, "value": 0}, "group": "control_change"}, {"time": 498, "annotation": {"number": 64, "value": 127}, "group": "control_change"}, {"time": 543, "annotation": {"number": 64, "value": 0}, "group": "control_change"}, {"time": 546, "annotation": {"number": 64, "value": 127}, "group": "control_change"}, {"time": 569, "annotation": {"number": 64, "value": 127}, "group": "control_change"}, {"time": 591, "annotation": {"number": 64, "value": 0}, "group": "control_change"}, {"time": 594, "annotation": {"number": 64, "value": 127}, "group": "control_change"}, {"time": 615, "annotation": {"number": 64, "value": 0}, "group": "control_change"}, {"time": 642, "annotation": {"number": 64, "value": 127}, "group": "control_change"}, {"time": 686, "annotation": {"number": 64, "value": 0}, "group": "control_change"}, {"time": 689, "annotation": {"number": 64, "value": 127}, "group": "control_change"}, {"time": 710, "annotation": {"number": 64, "value": 0}, "group": "control_change"}, {"time": 713, "annotation": {"number": 64, "value": 127}, "group": "control_change"}, {"time": 733, "annotation": {"number": 64, "value": 0}, "group": "control_change"}, {"time": 737, "annotation": {"number": 64, "value": 127}, "group": "control_change"}, {"time": 758, "annotation": {"number": 64, "value": 0}, "group": "control_change"}, {"time": 761, "annotation": {"number": 64, "value": 127}, "group": "control_change"}, {"time": 782, "annotation": {"number": 64, "value": 0}, "group": "control_change"}, {"time": 785, "annotation": {"number": 64, "value": 127}, "group": "control_change"}, {"time": 807, "annotation": {"number": 64, "value": 0}, "group": "control_change"}, {"time": 809, "annotation": {"number": 64, "value": 127}, "group": "control_change"}, {"time": 829, "annotation": {"number": 64, "value": 0}, "group": "control_change"}, {"time": 833, "annotation": {"number": 64, "value": 127}, "group": "control_change"}, {"time": 854, "annotation": {"number": 64, "value": 0}, "group": "control_change"}, {"time": 857, "annotation": {"number": 64, "value": 127}, "group": "control_change"}, {"time": 878, "annotation": {"number": 64, "value": 0}, "group": "control_change"}, {"time": 881, "annotation": {"number": 64, "value": 127}, "group": "control_change"}, {"time": 891, "annotation": {"number": 64, "value": 0}, "group": "control_change"}, {"time": 894, "annotation": {"number": 64, "value": 127}, "group": "control_change"}, {"time": 902, "annotation": {"number": 64, "value": 0}, "group": "control_change"}, {"time": 905, "annotation": {"number": 64, "value": 127}, "group": "control_change"}, {"time": 926, "annotation": {"number": 64, "value": 0}, "group": "control_change"}, {"time": 929, "annotation": {"number": 64, "value": 127}, "group": "control_change"}, {"time": 949, "annotation": {"number": 64, "value": 0}, "group": "control_change"}, {"time": 954, "annotation": {"number": 64, "value": 127}, "group": "control_change"}, {"time": 973, "annotation": {"number": 64, "value": 0}, "group": "control_change"}, {"time": 977, "annotation": {"number": 64, "value": 127}, "group": "control_change"}, {"time": 999, "annotation": {"number": 64, "value": 0}, "group": "control_change"}, {"time": 1025, "annotation": {"number": 64, "value": 127}, "group": "control_change"}, {"time": 1047, "annotation": {"number": 64, "value": 0}, "group": "control_change"}, {"time": 1049, "annotation": {"number": 64, "value": 127}, "group": "control_change"}, {"time": 1071, "annotation": {"number": 64, "value": 0}, "group": "control_change"}, {"time": 1074, "annotation": {"number": 64, "value": 127}, "group": "control_change"}, {"time": 1095, "annotation": {"number": 64, "value": 0}, "group": "control_change"}, {"time": 1097, "annotation": {"number": 64, "value": 127}, "group": "control_change"}, {"time": 1119, "annotation": {"number": 64, "value": 0}, "group": "control_change"}, {"time": 1121, "annotation": {"number": 64, "value": 127}, "group": "control_change"}, {"time": 1143, "annotation": {"number": 64, "value": 0}, "group": "control_change"}, {"time": 1145, "annotation": {"number": 64, "value": 127}, "group": "control_change"}, {"time": 1146, "annotation": {"number": 64, "value": 127}, "group": "control_change"}, {"time": 1165, "annotation": {"number": 64, "value": 0}, "group": "control_change"}, {"time": 1169, "annotation": {"number": 64, "value": 127}, "group": "control_change"}, {"time": 1178, "annotation": {"number": 64, "value": 0}, "group": "control_change"}, {"time": 1181, "annotation": {"number": 64, "value": 127}, "group": "control_change"}, {"time": 1190, "annotation": {"number": 64, "value": 0}, "group": "control_change"}, {"time": 1194, "annotation": {"number": 64, "value": 71}, "group": "control_change"}, {"time": 1194, "annotation": {"number": 64, "value": 127}, "group": "control_change"}, {"time": 1217, "annotation": {"number": 64, "value": 0}, "group": "control_change"}, {"time": 1218, "annotation": {"number": 64, "value": 71}, "group": "control_change"}, {"time": 1218, "annotation": {"number": 64, "value": 127}, "group": "control_change"}, {"time": 1218, "annotation": {"number": 64, "value": 0}, "group": "control_change"}, {"time": 1240, "annotation": {"number": 64, "value": 71}, "group": "control_change"}, {"time": 1241, "annotation": {"number": 64, "value": 0}, "group": "control_change"}, {"time": 1243, "annotation": {"number": 64, "value": 71}, "group": "control_change"}, {"time": 1244, "annotation": {"number": 64, "value": 127}, "group": "control_change"}, {"time": 1266, "annotation": {"number": 64, "value": 71}, "group": "control_change"}, {"time": 1266, "annotation": {"number": 64, "value": 0}, "group": "control_change"}, {"time": 1268, "annotation": {"number": 64, "value": 71}, "group": "control_change"}, {"time": 1269, "annotation": {"number": 64, "value": 127}, "group": "control_change"}, {"time": 1290, "annotation": {"number": 64, "value": 71}, "group": "control_change"}, {"time": 1290, "annotation": {"number": 64, "value": 0}, "group": "control_change"}, {"time": 1292, "annotation": {"number": 64, "value": 71}, "group": "control_change"}, {"time": 1292, "annotation": {"number": 64, "value": 127}, "group": "control_change"}, {"time": 1314, "annotation": {"number": 64, "value": 71}, "group": "control_change"}, {"time": 1314, "annotation": {"number": 64, "value": 0}, "group": "control_change"}, {"time": 1317, "annotation": {"number": 64, "value": 71}, "group": "control_change"}, {"time": 1318, "annotation": {"number": 64, "value": 127}, "group": "control_change"}, {"time": 1337, "annotation": {"number": 64, "value": 71}, "group": "control_change"}, {"time": 1338, "annotation": {"number": 64, "value": 0}, "group": "control_change"}, {"time": 1340, "annotation": {"number": 64, "value": 71}, "group": "control_change"}, {"time": 1341, "annotation": {"number": 64, "value": 127}, "group": "control_change"}, {"time": 1361, "annotation": {"number": 64, "value": 71}, "group": "control_change"}, {"time": 1362, "annotation": {"number": 64, "value": 0}, "group": "control_change"}, {"time": 1364, "annotation": {"number": 64, "value": 71}, "group": "control_change"}, {"time": 1364, "annotation": {"number": 64, "value": 127}, "group": "control_change"}, {"time": 1385, "annotation": {"number": 64, "value": 71}, "group": "control_change"}, {"time": 1386, "annotation": {"number": 64, "value": 0}, "group": "control_change"}, {"time": 1387, "annotation": {"number": 64, "value": 71}, "group": "control_change"}, {"time": 1388, "annotation": {"number": 64, "value": 127}, "group": "control_change"}, {"time": 1409, "annotation": {"number": 64, "value": 0}, "group": "control_change"}, {"time": 1410, "annotation": {"number": 64, "value": 127}, "group": "control_change"}, {"time": 1431, "annotation": {"number": 64, "value": 0}, "group": "control_change"}, {"time": 1434, "annotation": {"number": 64, "value": 127}, "group": "control_change"}, {"time": 1455, "annotation": {"number": 64, "value": 0}, "group": "control_change"}, {"time": 1458, "annotation": {"number": 64, "value": 127}, "group": "control_change"}, {"time": 1479, "annotation": {"number": 64, "value": 0}, "group": "control_change"}, {"time": 1482, "annotation": {"number": 64, "value": 127}, "group": "control_change"}, {"time": 1502, "annotation": {"number": 64, "value": 0}, "group": "control_change"}, {"time": 1506, "annotation": {"number": 64, "value": 127}, "group": "control_change"}, {"time": 1520, "annotation": {"number": 64, "value": 0}, "group": "control_change"}, {"time": 1554, "annotation": {"number": 64, "value": 127}, "group": "control_change"}, {"time": 1598, "annotation": {"number": 64, "value": 0}, "group": "control_change"}, {"time": 1601, "annotation": {"number": 64, "value": 127}, "group": "control_change"}, {"time": 1622, "annotation": {"number": 64, "value": 0}, "group": "control_change"}, {"time": 1625, "annotation": {"number": 64, "value": 127}, "group": "control_change"}, {"time": 1645, "annotation": {"number": 64, "value": 0}, "group": "control_change"}, {"time": 1649, "annotation": {"number": 64, "value": 127}, "group": "control_change"}, {"time": 1670, "annotation": {"number": 64, "value": 0}, "group": "control_change"}, {"time": 1673, "annotation": {"number": 64, "value": 127}, "group": "control_change"}, {"time": 1694, "annotation": {"number": 64, "value": 0}, "group": "control_change"}, {"time": 1697, "annotation": {"number": 64, "value": 127}, "group": "control_change"}, {"time": 1719, "annotation": {"number": 64, "value": 0}, "group": "control_change"}, {"time": 1721, "annotation": {"number": 64, "value": 127}, "group": "control_change"}, {"time": 1741, "annotation": {"number": 64, "value": 0}, "group": "control_change"}, {"time": 1745, "annotation": {"number": 64, "value": 127}, "group": "control_change"}, {"time": 1766, "annotation": {"number": 64, "value": 0}, "group": "control_change"}, {"time": 1769, "annotation": {"number": 64, "value": 127}, "group": "control_change"}, {"time": 1790, "annotation": {"number": 64, "value": 0}, "group": "control_change"}, {"time": 1793, "annotation": {"number": 64, "value": 127}, "group": "control_change"}, {"time": 1803, "annotation": {"number": 64, "value": 0}, "group": "control_change"}, {"time": 1806, "annotation": {"number": 64, "value": 127}, "group": "control_change"}, {"time": 1814, "annotation": {"number": 64, "value": 0}, "group": "control_change"}, {"time": 1817, "annotation": {"number": 64, "value": 127}, "group": "control_change"}, {"time": 1838, "annotation": {"number": 64, "value": 0}, "group": "control_change"}, {"time": 1841, "annotation": {"number": 64, "value": 127}, "group": "control_change"}, {"time": 1861, "annotation": {"number": 64, "value": 0}, "group": "control_change"}, {"time": 1866, "annotation": {"number": 64, "value": 127}, "group": "control_change"}, {"time": 1885, "annotation": {"number": 64, "value": 0}, "group": "control_change"}, {"time": 1894, "annotation": {"number": 64, "value": 71}, "group": "control_change"}, {"time": 1895, "annotation": {"number": 64, "value": 127}, "group": "control_change"}, {"time": 1912, "annotation": {"number": 64, "value": 71}, "group": "control_change"}, {"time": 1912, "annotation": {"number": 64, "value": 0}, "group": "control_change"}, {"time": 1914, "annotation": {"number": 64, "value": 71}, "group": "control_change"}, {"time": 1914, "annotation": {"number": 64, "value": 127}, "group": "control_change"}, {"time": 1939, "annotation": {"number": 64, "value": 71}, "group": "control_change"}, {"time": 1939, "annotation": {"number": 64, "value": 0}, "group": "control_change"}, {"time": 1940, "annotation": {"number": 64, "value": 71}, "group": "control_change"}, {"time": 1941, "annotation": {"number": 64, "value": 127}, "group": "control_change"}, {"time": 1963, "annotation": {"number": 64, "value": 71}, "group": "control_change"}, {"time": 1963, "annotation": {"number": 64, "value": 0}, "group": "control_change"}, {"time": 1964, "annotation": {"number": 64, "value": 71}, "group": "control_change"}, {"time": 1964, "annotation": {"number": 64, "value": 127}, "group": "control_change"}, {"time": 1986, "annotation": {"number": 64, "value": 71}, "group": "control_change"}, {"time": 1986, "annotation": {"number": 64, "value": 0}, "group": "control_change"}, {"time": 1988, "annotation": {"number": 64, "value": 71}, "group": "control_change"}, {"time": 1988, "annotation": {"number": 64, "value": 127}, "group": "control_change"}, {"time": 2010, "annotation": {"number": 64, "value": 71}, "group": "control_change"}, {"time": 2010, "annotation": {"number": 64, "value": 0}, "group": "control_change"}, {"time": 2012, "annotation": {"number": 64, "value": 71}, "group": "control_change"}, {"time": 2012, "annotation": {"number": 64, "value": 127}, "group": "control_change"}, {"time": 2013, "annotation": {"number": 64, "value": 71}, "group": "control_change"}, {"time": 2013, "annotation": {"number": 64, "value": 0}, "group": "control_change"}, {"time": 2016, "annotation": {"number": 64, "value": 71}, "group": "control_change"}, {"time": 2017, "annotation": {"number": 64, "value": 127}, "group": "control_change"}, {"time": 2034, "annotation": {"number": 64, "value": 71}, "group": "control_change"}, {"time": 2034, "annotation": {"number": 64, "value": 0}, "group": "control_change"}, {"time": 2036, "annotation": {"number": 64, "value": 71}, "group": "control_change"}, {"time": 2036, "annotation": {"number": 64, "value": 127}, "group": "control_change"}, {"time": 2052, "annotation": {"number": 64, "value": 71}, "group": "control_change"}, {"time": 2053, "annotation": {"number": 64, "value": 127}, "group": "control_change"}, {"time": 2057, "annotation": {"number": 64, "value": 71}, "group": "control_change"}, {"time": 2058, "annotation": {"number": 64, "value": 0}, "group": "control_change"}, {"time": 2060, "annotation": {"number": 64, "value": 71}, "group": "control_change"}, {"time": 2060, "annotation": {"number": 64, "value": 127}, "group": "control_change"}, {"time": 2081, "annotation": {"number": 64, "value": 71}, "group": "control_change"}, {"time": 2081, "annotation": {"number": 64, "value": 0}, "group": "control_change"}, {"time": 2083, "annotation": {"number": 64, "value": 71}, "group": "control_change"}, {"time": 2083, "annotation": {"number": 64, "value": 127}, "group": "control_change"}, {"time": 2106, "annotation": {"number": 64, "value": 71}, "group": "control_change"}, {"time": 2106, "annotation": {"number": 64, "value": 0}, "group": "control_change"}, {"time": 2107, "annotation": {"number": 64, "value": 71}, "group": "control_change"}, {"time": 2108, "annotation": {"number": 64, "value": 127}, "group": "control_change"}, {"time": 2130, "annotation": {"number": 64, "value": 71}, "group": "control_change"}, {"time": 2130, "annotation": {"number": 64, "value": 0}, "group": "control_change"}, {"time": 2130, "annotation": {"number": 64, "value": 127}, "group": "control_change"}, {"time": 2133, "annotation": {"number": 64, "value": 71}, "group": "control_change"}, {"time": 2133, "annotation": {"number": 64, "value": 127}, "group": "control_change"}, {"time": 2136, "annotation": {"number": 64, "value": 71}, "group": "control_change"}, {"time": 2137, "annotation": {"number": 64, "value": 127}, "group": "control_change"}, {"time": 2139, "annotation": {"number": 64, "value": 71}, "group": "control_change"}, {"time": 2139, "annotation": {"number": 64, "value": 0}, "group": "control_change"}, {"time": 2153, "annotation": {"number": 64, "value": 71}, "group": "control_change"}, {"time": 2153, "annotation": {"number": 64, "value": 0}, "group": "control_change"}, {"time": 2155, "annotation": {"number": 64, "value": 71}, "group": "control_change"}, {"time": 2155, "annotation": {"number": 64, "value": 127}, "group": "control_change"}, {"time": 2177, "annotation": {"number": 64, "value": 71}, "group": "control_change"}, {"time": 2177, "annotation": {"number": 64, "value": 0}, "group": "control_change"}, {"time": 2179, "annotation": {"number": 64, "value": 71}, "group": "control_change"}, {"time": 2179, "annotation": {"number": 64, "value": 127}, "group": "control_change"}, {"time": 2202, "annotation": {"number": 64, "value": 71}, "group": "control_change"}, {"time": 2202, "annotation": {"number": 64, "value": 0}, "group": "control_change"}, {"time": 2204, "annotation": {"number": 64, "value": 71}, "group": "control_change"}, {"time": 2204, "annotation": {"number": 64, "value": 127}, "group": "control_change"}, {"time": 2225, "annotation": {"number": 64, "value": 71}, "group": "control_change"}, {"time": 2226, "annotation": {"number": 64, "value": 0}, "group": "control_change"}, {"time": 2228, "annotation": {"number": 64, "value": 71}, "group": "control_change"}, {"time": 2228, "annotation": {"number": 64, "value": 127}, "group": "control_change"}, {"time": 2243, "annotation": {"number": 64, "value": 71}, "group": "control_change"}, {"time": 2245, "annotation": {"number": 64, "value": 127}, "group": "control_change"}, {"time": 2249, "annotation": {"number": 64, "value": 71}, "group": "control_change"}, {"time": 2249, "annotation": {"number": 64, "value": 0}, "group": "control_change"}, {"time": 2251, "annotation": {"number": 64, "value": 71}, "group": "control_change"}, {"time": 2251, "annotation": {"number": 64, "value": 127}, "group": "control_change"}, {"time": 2269, "annotation": {"number": 64, "value": 71}, "group": "control_change"}, {"time": 2273, "annotation": {"number": 64, "value": 0}, "group": "control_change"}, {"time": 2275, "annotation": {"number": 64, "value": 71}, "group": "control_change"}, {"time": 2275, "annotation": {"number": 64, "value": 127}, "group": "control_change"}, {"time": 2290, "annotation": {"number": 64, "value": 71}, "group": "control_change"}, {"time": 2291, "annotation": {"number": 64, "value": 127}, "group": "control_change"}, {"time": 2291, "annotation": {"number": 64, "value": 71}, "group": "control_change"}, {"time": 2293, "annotation": {"number": 64, "value": 127}, "group": "control_change"}, {"time": 2297, "annotation": {"number": 64, "value": 71}, "group": "control_change"}, {"time": 2297, "annotation": {"number": 64, "value": 0}, "group": "control_change"}, {"time": 2299, "annotation": {"number": 64, "value": 71}, "group": "control_change"}, {"time": 2300, "annotation": {"number": 64, "value": 0}, "group": "control_change"}, {"time": 2303, "annotation": {"number": 64, "value": 71}, "group": "control_change"}, {"time": 2304, "annotation": {"number": 64, "value": 127}, "group": "control_change"}, {"time": 2321, "annotation": {"number": 64, "value": 71}, "group": "control_change"}, {"time": 2321, "annotation": {"number": 64, "value": 0}, "group": "control_change"}, {"time": 2322, "annotation": {"number": 64, "value": 71}, "group": "control_change"}, {"time": 2322, "annotation": {"number": 64, "value": 127}, "group": "control_change"}, {"time": 2369, "annotation": {"number": 64, "value": 71}, "group": "control_change"}, {"time": 2369, "annotation": {"number": 64, "value": 0}, "group": "control_change"}, {"time": 2370, "annotation": {"number": 64, "value": 71}, "group": "control_change"}, {"time": 2370, "annotation": {"number": 64, "value": 127}, "group": "control_change"}, {"time": 2393, "annotation": {"number": 64, "value": 71}, "group": "control_change"}, {"time": 2393, "annotation": {"number": 64, "value": 0}, "group": "control_change"}, {"time": 2395, "annotation": {"number": 64, "value": 71}, "group": "control_change"}, {"time": 2395, "annotation": {"number": 64, "value": 127}, "group": "control_change"}, {"time": 2418, "annotation": {"number": 64, "value": 71}, "group": "control_change"}, {"time": 2418, "annotation": {"number": 64, "value": 0}, "group": "control_change"}, {"time": 2421, "annotation": {"number": 64, "value": 71}, "group": "control_change"}, {"time": 2421, "annotation": {"number": 64, "value": 127}, "group": "control_change"}, {"time": 2441, "annotation": {"number": 64, "value": 71}, "group": "control_change"}, {"time": 2441, "annotation": {"number": 64, "value": 0}, "group": "control_change"}, {"time": 2443, "annotation": {"number": 64, "value": 71}, "group": "control_change"}, {"time": 2443, "annotation": {"number": 64, "value": 127}, "group": "control_change"}, {"time": 2465, "annotation": {"number": 64, "value": 71}, "group": "control_change"}, {"time": 2466, "annotation": {"number": 64, "value": 0}, "group": "control_change"}, {"time": 2467, "annotation": {"number": 64, "value": 71}, "group": "control_change"}, {"time": 2468, "annotation": {"number": 64, "value": 127}, "group": "control_change"}, {"time": 2489, "annotation": {"number": 64, "value": 71}, "group": "control_change"}, {"time": 2489, "annotation": {"number": 64, "value": 0}, "group": "control_change"}, {"time": 2491, "annotation": {"number": 64, "value": 71}, "group": "control_change"}, {"time": 2491, "annotation": {"number": 64, "value": 127}, "group": "control_change"}, {"time": 2513, "annotation": {"number": 64, "value": 71}, "group": "control_change"}, {"time": 2513, "annotation": {"number": 64, "value": 0}, "group": "control_change"}, {"time": 2515, "annotation": {"number": 64, "value": 71}, "group": "control_change"}, {"time": 2515, "annotation": {"number": 64, "value": 127}, "group": "control_change"}, {"time": 2538, "annotation": {"number": 64, "value": 71}, "group": "control_change"}, {"time": 2538, "annotation": {"number": 64, "value": 0}, "group": "control_change"}, {"time": 2540, "annotation": {"number": 64, "value": 71}, "group": "control_change"}, {"time": 2540, "annotation": {"number": 64, "value": 127}, "group": "control_change"}, {"time": 2560, "annotation": {"number": 64, "value": 71}, "group": "control_change"}, {"time": 2561, "annotation": {"number": 64, "value": 0}, "group": "control_change"}, {"time": 2561, "annotation": {"number": 64, "value": 127}, "group": "control_change"}, {"time": 2609, "annotation": {"number": 64, "value": 0}, "group": "control_change"}, {"time": 2610, "annotation": {"number": 64, "value": 127}, "group": "control_change"}, {"time": 2630, "annotation": {"number": 64, "value": 0}, "group": "control_change"}, {"time": 2633, "annotation": {"number": 64, "value": 127}, "group": "control_change"}, {"time": 2654, "annotation": {"number": 64, "value": 0}, "group": "control_change"}, {"time": 2658, "annotation": {"number": 64, "value": 127}, "group": "control_change"}, {"time": 2662, "annotation": {"number": 64, "value": 0}, "group": "control_change"}, {"time": 2682, "annotation": {"number": 64, "value": 127}, "group": "control_change"}, {"time": 2684, "annotation": {"number": 64, "value": 0}, "group": "control_change"}, {"time": 2754, "annotation": {"number": 64, "value": 127}, "group": "control_change"}, {"time": 2775, "annotation": {"number": 64, "value": 0}, "group": "control_change"}, {"time": 2777, "annotation": {"number": 64, "value": 127}, "group": "control_change"}, {"time": 2799, "annotation": {"number": 64, "value": 0}, "group": "control_change"}, {"time": 2801, "annotation": {"number": 64, "value": 127}, "group": "control_change"}, {"time": 2823, "annotation": {"number": 64, "value": 0}, "group": "control_change"}, {"time": 2825, "annotation": {"number": 64, "value": 127}, "group": "control_change"}, {"time": 2826, "annotation": {"number": 64, "value": 127}, "group": "control_change"}, {"time": 2871, "annotation": {"number": 64, "value": 0}, "group": "control_change"}, {"time": 2874, "annotation": {"number": 64, "value": 127}, "group": "control_change"}, {"time": 2894, "annotation": {"number": 64, "value": 0}, "group": "control_change"}, {"time": 2898, "annotation": {"number": 64, "value": 127}, "group": "control_change"}, {"time": 2921, "annotation": {"number": 64, "value": 0}, "group": "control_change"}, {"time": 2923, "annotation": {"number": 64, "value": 127}, "group": "control_change"}, {"time": 2945, "annotation": {"number": 64, "value": 0}, "group": "control_change"}, {"time": 2959, "annotation": {"number": 64, "value": 127}, "group": "control_change"}, {"time": 2966, "annotation": {"number": 64, "value": 0}, "group": "control_change"}, {"time": 2970, "annotation": {"number": 64, "value": 127}, "group": "control_change"}, {"time": 2991, "annotation": {"number": 64, "value": 0}, "group": "control_change"}, {"time": 2993, "annotation": {"number": 64, "value": 127}, "group": "control_change"}, {"time": 3014, "annotation": {"number": 64, "value": 0}, "group": "control_change"}, {"time": 3017, "annotation": {"number": 64, "value": 127}, "group": "control_change"}, {"time": 3038, "annotation": {"number": 64, "value": 0}, "group": "control_change"}, {"time": 3042, "annotation": {"number": 64, "value": 127}, "group": "control_change"}, {"time": 3062, "annotation": {"number": 64, "value": 0}, "group": "control_change"}, {"time": 3065, "annotation": {"number": 64, "value": 127}, "group": "control_change"}, {"time": 3084, "annotation": {"number": 64, "value": 0}, "group": "control_change"}, {"time": 3089, "annotation": {"number": 64, "value": 127}, "group": "control_change"}, {"time": 3100, "annotation": {"number": 64, "value": 0}, "group": "control_change"}, {"time": 3104, "annotation": {"number": 64, "value": 127}, "group": "control_change"}, {"time": 3108, "annotation": {"number": 64, "value": 0}, "group": "control_change"}, {"time": 3114, "annotation": {"number": 64, "value": 127}, "group": "control_change"}, {"time": 3153, "annotation": {"number": 64, "value": 0}, "group": "control_change"}, {"time": 3205, "annotation": {"number": 64, "value": 127}, "group": "control_change"}, {"time": 3228, "annotation": {"number": 64, "value": 0}, "group": "control_change"}, {"time": 3230, "annotation": {"number": 64, "value": 127}, "group": "control_change"}]}]}