{"metadata": {"schema_version": "0.2", "title": "None", "source_filename": "457.mid", "source_format": "midi"}, "resolution": 12, "tempos": [{"time": 0, "qpm": 72.00011520018433}, {"time": 2784, "qpm": 71.79996529668344}, {"time": 2928, "qpm": 72.00011520018433}, {"time": 3180, "qpm": 61.99999586666694}, {"time": 3192, "qpm": 71.00011951686785}], "time_signatures": [{"time": 0, "numerator": 1, "denominator": 4}], "tracks": [{"program": 0, "is_drum": false, "name": "MELODY", "notes": [{"time": 11, "pitch": 64, "duration": 1, "velocity": 96}, {"time": 13, "pitch": 64, "duration": 2, "velocity": 73}, {"time": 17, "pitch": 64, "duration": 4, "velocity": 100}, {"time": 23, "pitch": 67, "duration": 2, "velocity": 90}, {"time": 26, "pitch": 67, "duration": 2, "velocity": 88}, {"time": 30, "pitch": 67, "duration": 4, "velocity": 112}, {"time": 36, "pitch": 67, "duration": 2, "velocity": 112}, {"time": 39, "pitch": 69, "duration": 3, "velocity": 107}, {"time": 46, "pitch": 71, "duration": 5, "velocity": 122}, {"time": 54, "pitch": 69, "duration": 2, "velocity": 112}, {"time": 59, "pitch": 69, "duration": 2, "velocity": 122}, {"time": 66, "pitch": 69, "duration": 2, "velocity": 117}, {"time": 72, "pitch": 64, "duration": 3, "velocity": 97}, {"time": 76, "pitch": 69, "duration": 19, "velocity": 112}, {"time": 108, "pitch": 69, "duration": 1, "velocity": 97}, {"time": 111, "pitch": 69, "duration": 2, "velocity": 96}, {"time": 115, "pitch": 69, "duration": 2, "velocity": 117}, {"time": 120, "pitch": 69, "duration": 2, "velocity": 102}, {"time": 124, "pitch": 74, "duration": 4, "velocity": 127}, {"time": 131, "pitch": 74, "duration": 2, "velocity": 127}, {"time": 135, "pitch": 74, "duration": 2, "velocity": 117}, {"time": 139, "pitch": 74, "duration": 3, "velocity": 127}, {"time": 145, "pitch": 69, "duration": 4, "velocity": 127}, {"time": 152, "pitch": 67, "duration": 5, "velocity": 112}, {"time": 158, "pitch": 69, "duration": 5, "velocity": 127}, {"time": 167, "pitch": 67, "duration": 3, "velocity": 107}, {"time": 174, "pitch": 69, "duration": 1, "velocity": 127}, {"time": 177, "pitch": 71, "duration": 15, "velocity": 127}, {"time": 206, "pitch": 71, "duration": 2, "velocity": 127}, {"time": 210, "pitch": 71, "duration": 3, "velocity": 127}, {"time": 215, "pitch": 71, "duration": 3, "velocity": 112}, {"time": 218, "pitch": 76, "duration": 5, "velocity": 127}, {"time": 225, "pitch": 76, "duration": 2, "velocity": 127}, {"time": 229, "pitch": 76, "duration": 3, "velocity": 127}, {"time": 233, "pitch": 74, "duration": 4, "velocity": 112}, {"time": 239, "pitch": 74, "duration": 3, "velocity": 112}, {"time": 244, "pitch": 74, "duration": 5, "velocity": 127}, {"time": 251, "pitch": 72, "duration": 2, "velocity": 107}, {"time": 256, "pitch": 72, "duration": 9, "velocity": 127}, {"time": 267, "pitch": 71, "duration": 2, "velocity": 122}, {"time": 271, "pitch": 71, "duration": 5, "velocity": 122}, {"time": 279, "pitch": 69, "duration": 11, "velocity": 112}, {"time": 293, "pitch": 71, "duration": 3, "velocity": 122}, {"time": 296, "pitch": 69, "duration": 3, "velocity": 78}, {"time": 299, "pitch": 67, "duration": 2, "velocity": 93}, {"time": 302, "pitch": 64, "duration": 2, "velocity": 99}, {"time": 306, "pitch": 67, "duration": 2, "velocity": 112}, {"time": 309, "pitch": 64, "duration": 1, "velocity": 96}, {"time": 311, "pitch": 67, "duration": 4, "velocity": 127}, {"time": 317, "pitch": 71, "duration": 5, "velocity": 127}, {"time": 325, "pitch": 69, "duration": 8, "velocity": 127}, {"time": 344, "pitch": 64, "duration": 5, "velocity": 95}, {"time": 350, "pitch": 64, "duration": 29, "velocity": 95}, {"time": 404, "pitch": 64, "duration": 1, "velocity": 97}, {"time": 407, "pitch": 64, "duration": 1, "velocity": 92}, {"time": 410, "pitch": 64, "duration": 4, "velocity": 102}, {"time": 416, "pitch": 67, "duration": 1, "velocity": 107}, {"time": 419, "pitch": 67, "duration": 1, "velocity": 92}, {"time": 422, "pitch": 67, "duration": 5, "velocity": 107}, {"time": 428, "pitch": 67, "duration": 1, "velocity": 122}, {"time": 431, "pitch": 67, "duration": 1, "velocity": 99}, {"time": 434, "pitch": 69, "duration": 3, "velocity": 127}, {"time": 440, "pitch": 71, "duration": 3, "velocity": 127}, {"time": 446, "pitch": 69, "duration": 4, "velocity": 127}, {"time": 452, "pitch": 69, "duration": 8, "velocity": 127}, {"time": 464, "pitch": 71, "duration": 9, "velocity": 127}, {"time": 476, "pitch": 69, "duration": 13, "velocity": 117}, {"time": 500, "pitch": 69, "duration": 1, "velocity": 112}, {"time": 503, "pitch": 69, "duration": 1, "velocity": 99}, {"time": 506, "pitch": 69, "duration": 2, "velocity": 112}, {"time": 509, "pitch": 69, "duration": 2, "velocity": 107}, {"time": 515, "pitch": 69, "duration": 2, "velocity": 112}, {"time": 518, "pitch": 74, "duration": 5, "velocity": 127}, {"time": 524, "pitch": 74, "duration": 1, "velocity": 107}, {"time": 527, "pitch": 74, "duration": 1, "velocity": 107}, {"time": 530, "pitch": 74, "duration": 4, "velocity": 127}, {"time": 536, "pitch": 69, "duration": 4, "velocity": 127}, {"time": 542, "pitch": 67, "duration": 5, "velocity": 117}, {"time": 560, "pitch": 71, "duration": 8, "velocity": 122}, {"time": 572, "pitch": 71, "duration": 19, "velocity": 127}, {"time": 596, "pitch": 71, "duration": 1, "velocity": 127}, {"time": 599, "pitch": 71, "duration": 1, "velocity": 107}, {"time": 602, "pitch": 71, "duration": 3, "velocity": 122}, {"time": 608, "pitch": 71, "duration": 1, "velocity": 107}, {"time": 611, "pitch": 71, "duration": 2, "velocity": 102}, {"time": 614, "pitch": 76, "duration": 4, "velocity": 127}, {"time": 620, "pitch": 76, "duration": 1, "velocity": 127}, {"time": 623, "pitch": 76, "duration": 2, "velocity": 102}, {"time": 626, "pitch": 74, "duration": 4, "velocity": 127}, {"time": 632, "pitch": 74, "duration": 2, "velocity": 127}, {"time": 638, "pitch": 74, "duration": 4, "velocity": 127}, {"time": 644, "pitch": 72, "duration": 2, "velocity": 127}, {"time": 650, "pitch": 72, "duration": 3, "velocity": 127}, {"time": 656, "pitch": 71, "duration": 2, "velocity": 100}, {"time": 659, "pitch": 72, "duration": 6, "velocity": 127}, {"time": 668, "pitch": 69, "duration": 10, "velocity": 122}, {"time": 680, "pitch": 71, "duration": 2, "velocity": 127}, {"time": 683, "pitch": 69, "duration": 2, "velocity": 117}, {"time": 686, "pitch": 67, "duration": 2, "velocity": 93}, {"time": 689, "pitch": 64, "duration": 2, "velocity": 89}, {"time": 692, "pitch": 67, "duration": 2, "velocity": 96}, {"time": 695, "pitch": 64, "duration": 2, "velocity": 93}, {"time": 698, "pitch": 67, "duration": 4, "velocity": 127}, {"time": 704, "pitch": 71, "duration": 4, "velocity": 127}, {"time": 710, "pitch": 69, "duration": 4, "velocity": 127}, {"time": 716, "pitch": 69, "duration": 1, "velocity": 127}, {"time": 719, "pitch": 69, "duration": 1, "velocity": 96}, {"time": 722, "pitch": 69, "duration": 4, "velocity": 107}, {"time": 728, "pitch": 64, "duration": 9, "velocity": 112}, {"time": 740, "pitch": 64, "duration": 24, "velocity": 100}, {"time": 779, "pitch": 59, "duration": 3, "velocity": 89}, {"time": 782, "pitch": 71, "duration": 4, "velocity": 127}, {"time": 788, "pitch": 71, "duration": 4, "velocity": 117}, {"time": 794, "pitch": 71, "duration": 4, "velocity": 127}, {"time": 800, "pitch": 71, "duration": 1, "velocity": 112}, {"time": 803, "pitch": 71, "duration": 6, "velocity": 127}, {"time": 812, "pitch": 69, "duration": 8, "velocity": 127}, {"time": 821, "pitch": 69, "duration": 2, "velocity": 117}, {"time": 824, "pitch": 71, "duration": 2, "velocity": 112}, {"time": 827, "pitch": 69, "duration": 2, "velocity": 122}, {"time": 830, "pitch": 67, "duration": 3, "velocity": 122}, {"time": 836, "pitch": 64, "duration": 3, "velocity": 127}, {"time": 842, "pitch": 64, "duration": 3, "velocity": 127}, {"time": 848, "pitch": 62, "duration": 2, "velocity": 127}, {"time": 851, "pitch": 64, "duration": 15, "velocity": 122}, {"time": 875, "pitch": 59, "duration": 2, "velocity": 107}, {"time": 878, "pitch": 71, "duration": 3, "velocity": 112}, {"time": 884, "pitch": 71, "duration": 9, "velocity": 127}, {"time": 896, "pitch": 71, "duration": 2, "velocity": 127}, {"time": 902, "pitch": 71, "duration": 6, "velocity": 127}, {"time": 908, "pitch": 69, "duration": 8, "velocity": 127}, {"time": 917, "pitch": 69, "duration": 1, "velocity": 122}, {"time": 920, "pitch": 71, "duration": 2, "velocity": 112}, {"time": 923, "pitch": 69, "duration": 1, "velocity": 117}, {"time": 926, "pitch": 67, "duration": 5, "velocity": 127}, {"time": 932, "pitch": 64, "duration": 3, "velocity": 117}, {"time": 938, "pitch": 64, "duration": 2, "velocity": 107}, {"time": 941, "pitch": 67, "duration": 3, "velocity": 112}, {"time": 944, "pitch": 69, "duration": 3, "velocity": 97}, {"time": 947, "pitch": 71, "duration": 15, "velocity": 127}, {"time": 971, "pitch": 59, "duration": 3, "velocity": 107}, {"time": 974, "pitch": 71, "duration": 4, "velocity": 127}, {"time": 980, "pitch": 71, "duration": 4, "velocity": 127}, {"time": 986, "pitch": 71, "duration": 4, "velocity": 127}, {"time": 992, "pitch": 71, "duration": 1, "velocity": 122}, {"time": 995, "pitch": 71, "duration": 7, "velocity": 127}, {"time": 1004, "pitch": 69, "duration": 10, "velocity": 127}, {"time": 1013, "pitch": 69, "duration": 1, "velocity": 127}, {"time": 1016, "pitch": 71, "duration": 2, "velocity": 112}, {"time": 1019, "pitch": 69, "duration": 2, "velocity": 117}, {"time": 1022, "pitch": 67, "duration": 4, "velocity": 112}, {"time": 1028, "pitch": 64, "duration": 4, "velocity": 127}, {"time": 1034, "pitch": 64, "duration": 3, "velocity": 127}, {"time": 1040, "pitch": 62, "duration": 4, "velocity": 122}, {"time": 1043, "pitch": 64, "duration": 15, "velocity": 102}, {"time": 1067, "pitch": 59, "duration": 2, "velocity": 90}, {"time": 1070, "pitch": 71, "duration": 2, "velocity": 127}, {"time": 1073, "pitch": 71, "duration": 1, "velocity": 95}, {"time": 1076, "pitch": 71, "duration": 4, "velocity": 127}, {"time": 1082, "pitch": 71, "duration": 5, "velocity": 127}, {"time": 1088, "pitch": 71, "duration": 1, "velocity": 127}, {"time": 1091, "pitch": 71, "duration": 6, "velocity": 127}, {"time": 1100, "pitch": 69, "duration": 6, "velocity": 120}, {"time": 1109, "pitch": 69, "duration": 2, "velocity": 127}, {"time": 1112, "pitch": 71, "duration": 2, "velocity": 117}, {"time": 1115, "pitch": 69, "duration": 2, "velocity": 117}, {"time": 1118, "pitch": 67, "duration": 4, "velocity": 127}, {"time": 1124, "pitch": 64, "duration": 4, "velocity": 112}, {"time": 1130, "pitch": 67, "duration": 3, "velocity": 127}, {"time": 1136, "pitch": 69, "duration": 2, "velocity": 127}, {"time": 1142, "pitch": 71, "duration": 15, "velocity": 127}, {"time": 1160, "pitch": 71, "duration": 4, "velocity": 117}, {"time": 1166, "pitch": 76, "duration": 4, "velocity": 127}, {"time": 1172, "pitch": 76, "duration": 4, "velocity": 127}, {"time": 1178, "pitch": 78, "duration": 4, "velocity": 127}, {"time": 1184, "pitch": 76, "duration": 13, "velocity": 127}, {"time": 1208, "pitch": 71, "duration": 4, "velocity": 122}, {"time": 1214, "pitch": 76, "duration": 6, "velocity": 127}, {"time": 1220, "pitch": 76, "duration": 9, "velocity": 127}, {"time": 1232, "pitch": 74, "duration": 3, "velocity": 127}, {"time": 1235, "pitch": 72, "duration": 3, "velocity": 107}, {"time": 1241, "pitch": 74, "duration": 3, "velocity": 127}, {"time": 1244, "pitch": 72, "duration": 13, "velocity": 117}, {"time": 1268, "pitch": 72, "duration": 4, "velocity": 122}, {"time": 1274, "pitch": 74, "duration": 4, "velocity": 127}, {"time": 1280, "pitch": 76, "duration": 3, "velocity": 127}, {"time": 1286, "pitch": 76, "duration": 3, "velocity": 127}, {"time": 1289, "pitch": 74, "duration": 8, "velocity": 127}, {"time": 1304, "pitch": 67, "duration": 2, "velocity": 100}, {"time": 1310, "pitch": 74, "duration": 3, "velocity": 127}, {"time": 1313, "pitch": 72, "duration": 3, "velocity": 112}, {"time": 1316, "pitch": 71, "duration": 7, "velocity": 102}, {"time": 1325, "pitch": 69, "duration": 2, "velocity": 112}, {"time": 1328, "pitch": 67, "duration": 2, "velocity": 85}, {"time": 1331, "pitch": 69, "duration": 2, "velocity": 112}, {"time": 1334, "pitch": 71, "duration": 13, "velocity": 127}, {"time": 1355, "pitch": 71, "duration": 2, "velocity": 96}, {"time": 1358, "pitch": 76, "duration": 4, "velocity": 112}, {"time": 1364, "pitch": 76, "duration": 4, "velocity": 122}, {"time": 1370, "pitch": 78, "duration": 4, "velocity": 127}, {"time": 1376, "pitch": 78, "duration": 3, "velocity": 117}, {"time": 1379, "pitch": 76, "duration": 18, "velocity": 122}, {"time": 1400, "pitch": 71, "duration": 2, "velocity": 117}, {"time": 1406, "pitch": 76, "duration": 5, "velocity": 127}, {"time": 1412, "pitch": 76, "duration": 9, "velocity": 127}, {"time": 1424, "pitch": 74, "duration": 3, "velocity": 127}, {"time": 1427, "pitch": 72, "duration": 3, "velocity": 102}, {"time": 1433, "pitch": 74, "duration": 3, "velocity": 122}, {"time": 1436, "pitch": 72, "duration": 13, "velocity": 99}, {"time": 1460, "pitch": 67, "duration": 4, "velocity": 102}, {"time": 1466, "pitch": 67, "duration": 4, "velocity": 107}, {"time": 1472, "pitch": 67, "duration": 2, "velocity": 97}, {"time": 1478, "pitch": 71, "duration": 8, "velocity": 127}, {"time": 1484, "pitch": 69, "duration": 9, "velocity": 117}, {"time": 1496, "pitch": 66, "duration": 3, "velocity": 127}, {"time": 1502, "pitch": 67, "duration": 4, "velocity": 127}, {"time": 1505, "pitch": 66, "duration": 3, "velocity": 99}, {"time": 1508, "pitch": 64, "duration": 25, "velocity": 92}, {"time": 1652, "pitch": 64, "duration": 1, "velocity": 97}, {"time": 1655, "pitch": 64, "duration": 1, "velocity": 92}, {"time": 1658, "pitch": 64, "duration": 4, "velocity": 102}, {"time": 1664, "pitch": 67, "duration": 1, "velocity": 107}, {"time": 1667, "pitch": 67, "duration": 1, "velocity": 92}, {"time": 1670, "pitch": 67, "duration": 5, "velocity": 107}, {"time": 1676, "pitch": 67, "duration": 1, "velocity": 122}, {"time": 1679, "pitch": 67, "duration": 1, "velocity": 99}, {"time": 1682, "pitch": 69, "duration": 3, "velocity": 127}, {"time": 1688, "pitch": 71, "duration": 3, "velocity": 127}, {"time": 1694, "pitch": 69, "duration": 4, "velocity": 127}, {"time": 1700, "pitch": 69, "duration": 8, "velocity": 127}, {"time": 1712, "pitch": 71, "duration": 9, "velocity": 127}, {"time": 1724, "pitch": 69, "duration": 13, "velocity": 117}, {"time": 1748, "pitch": 69, "duration": 1, "velocity": 112}, {"time": 1751, "pitch": 69, "duration": 1, "velocity": 99}, {"time": 1754, "pitch": 69, "duration": 2, "velocity": 112}, {"time": 1757, "pitch": 69, "duration": 2, "velocity": 107}, {"time": 1763, "pitch": 69, "duration": 2, "velocity": 112}, {"time": 1766, "pitch": 74, "duration": 5, "velocity": 127}, {"time": 1772, "pitch": 74, "duration": 1, "velocity": 107}, {"time": 1775, "pitch": 74, "duration": 1, "velocity": 107}, {"time": 1778, "pitch": 74, "duration": 4, "velocity": 127}, {"time": 1784, "pitch": 69, "duration": 4, "velocity": 127}, {"time": 1790, "pitch": 67, "duration": 5, "velocity": 117}, {"time": 1808, "pitch": 71, "duration": 8, "velocity": 122}, {"time": 1820, "pitch": 71, "duration": 19, "velocity": 127}, {"time": 1844, "pitch": 71, "duration": 1, "velocity": 127}, {"time": 1847, "pitch": 71, "duration": 1, "velocity": 107}, {"time": 1850, "pitch": 71, "duration": 3, "velocity": 122}, {"time": 1856, "pitch": 71, "duration": 1, "velocity": 107}, {"time": 1859, "pitch": 71, "duration": 2, "velocity": 102}, {"time": 1862, "pitch": 76, "duration": 4, "velocity": 127}, {"time": 1868, "pitch": 76, "duration": 1, "velocity": 127}, {"time": 1871, "pitch": 76, "duration": 2, "velocity": 102}, {"time": 1874, "pitch": 74, "duration": 4, "velocity": 127}, {"time": 1880, "pitch": 74, "duration": 2, "velocity": 127}, {"time": 1886, "pitch": 74, "duration": 4, "velocity": 127}, {"time": 1892, "pitch": 72, "duration": 2, "velocity": 127}, {"time": 1898, "pitch": 72, "duration": 3, "velocity": 127}, {"time": 1904, "pitch": 71, "duration": 2, "velocity": 100}, {"time": 1907, "pitch": 72, "duration": 6, "velocity": 127}, {"time": 1916, "pitch": 69, "duration": 10, "velocity": 122}, {"time": 1928, "pitch": 71, "duration": 2, "velocity": 127}, {"time": 1931, "pitch": 69, "duration": 2, "velocity": 117}, {"time": 1934, "pitch": 67, "duration": 2, "velocity": 93}, {"time": 1937, "pitch": 64, "duration": 2, "velocity": 89}, {"time": 1940, "pitch": 67, "duration": 2, "velocity": 96}, {"time": 1943, "pitch": 64, "duration": 2, "velocity": 93}, {"time": 1946, "pitch": 67, "duration": 4, "velocity": 127}, {"time": 1952, "pitch": 71, "duration": 4, "velocity": 127}, {"time": 1958, "pitch": 69, "duration": 4, "velocity": 127}, {"time": 1964, "pitch": 69, "duration": 1, "velocity": 127}, {"time": 1967, "pitch": 69, "duration": 1, "velocity": 96}, {"time": 1970, "pitch": 69, "duration": 4, "velocity": 107}, {"time": 1976, "pitch": 64, "duration": 9, "velocity": 112}, {"time": 1988, "pitch": 64, "duration": 24, "velocity": 100}, {"time": 2027, "pitch": 59, "duration": 3, "velocity": 89}, {"time": 2030, "pitch": 71, "duration": 4, "velocity": 127}, {"time": 2036, "pitch": 71, "duration": 4, "velocity": 117}, {"time": 2042, "pitch": 71, "duration": 4, "velocity": 127}, {"time": 2048, "pitch": 71, "duration": 1, "velocity": 112}, {"time": 2051, "pitch": 71, "duration": 6, "velocity": 127}, {"time": 2060, "pitch": 69, "duration": 8, "velocity": 127}, {"time": 2069, "pitch": 69, "duration": 2, "velocity": 117}, {"time": 2072, "pitch": 71, "duration": 2, "velocity": 112}, {"time": 2075, "pitch": 69, "duration": 2, "velocity": 122}, {"time": 2078, "pitch": 67, "duration": 3, "velocity": 122}, {"time": 2084, "pitch": 64, "duration": 3, "velocity": 127}, {"time": 2090, "pitch": 64, "duration": 3, "velocity": 127}, {"time": 2096, "pitch": 62, "duration": 2, "velocity": 127}, {"time": 2099, "pitch": 64, "duration": 15, "velocity": 122}, {"time": 2123, "pitch": 59, "duration": 2, "velocity": 107}, {"time": 2126, "pitch": 71, "duration": 3, "velocity": 112}, {"time": 2132, "pitch": 71, "duration": 9, "velocity": 127}, {"time": 2144, "pitch": 71, "duration": 2, "velocity": 127}, {"time": 2150, "pitch": 71, "duration": 6, "velocity": 127}, {"time": 2156, "pitch": 69, "duration": 8, "velocity": 127}, {"time": 2165, "pitch": 69, "duration": 1, "velocity": 122}, {"time": 2168, "pitch": 71, "duration": 2, "velocity": 112}, {"time": 2171, "pitch": 69, "duration": 1, "velocity": 117}, {"time": 2174, "pitch": 67, "duration": 5, "velocity": 127}, {"time": 2180, "pitch": 64, "duration": 3, "velocity": 117}, {"time": 2186, "pitch": 64, "duration": 2, "velocity": 107}, {"time": 2189, "pitch": 67, "duration": 3, "velocity": 112}, {"time": 2192, "pitch": 69, "duration": 3, "velocity": 97}, {"time": 2195, "pitch": 71, "duration": 15, "velocity": 127}, {"time": 2219, "pitch": 59, "duration": 3, "velocity": 107}, {"time": 2222, "pitch": 71, "duration": 4, "velocity": 127}, {"time": 2228, "pitch": 71, "duration": 4, "velocity": 127}, {"time": 2234, "pitch": 71, "duration": 4, "velocity": 127}, {"time": 2240, "pitch": 71, "duration": 1, "velocity": 122}, {"time": 2243, "pitch": 71, "duration": 7, "velocity": 127}, {"time": 2252, "pitch": 69, "duration": 10, "velocity": 127}, {"time": 2261, "pitch": 69, "duration": 1, "velocity": 127}, {"time": 2264, "pitch": 71, "duration": 2, "velocity": 112}, {"time": 2267, "pitch": 69, "duration": 2, "velocity": 117}, {"time": 2270, "pitch": 67, "duration": 4, "velocity": 112}, {"time": 2276, "pitch": 64, "duration": 4, "velocity": 127}, {"time": 2282, "pitch": 64, "duration": 3, "velocity": 127}, {"time": 2288, "pitch": 62, "duration": 4, "velocity": 122}, {"time": 2291, "pitch": 64, "duration": 15, "velocity": 102}, {"time": 2315, "pitch": 59, "duration": 2, "velocity": 90}, {"time": 2318, "pitch": 71, "duration": 2, "velocity": 127}, {"time": 2321, "pitch": 71, "duration": 1, "velocity": 95}, {"time": 2324, "pitch": 71, "duration": 4, "velocity": 127}, {"time": 2330, "pitch": 71, "duration": 5, "velocity": 127}, {"time": 2336, "pitch": 71, "duration": 1, "velocity": 127}, {"time": 2339, "pitch": 71, "duration": 6, "velocity": 127}, {"time": 2348, "pitch": 69, "duration": 6, "velocity": 120}, {"time": 2357, "pitch": 69, "duration": 2, "velocity": 127}, {"time": 2360, "pitch": 71, "duration": 2, "velocity": 117}, {"time": 2363, "pitch": 69, "duration": 2, "velocity": 117}, {"time": 2366, "pitch": 67, "duration": 4, "velocity": 127}, {"time": 2372, "pitch": 64, "duration": 4, "velocity": 112}, {"time": 2378, "pitch": 67, "duration": 3, "velocity": 127}, {"time": 2384, "pitch": 69, "duration": 2, "velocity": 127}, {"time": 2390, "pitch": 71, "duration": 15, "velocity": 127}, {"time": 2408, "pitch": 71, "duration": 4, "velocity": 117}, {"time": 2414, "pitch": 76, "duration": 4, "velocity": 127}, {"time": 2420, "pitch": 76, "duration": 4, "velocity": 127}, {"time": 2426, "pitch": 78, "duration": 4, "velocity": 127}, {"time": 2432, "pitch": 76, "duration": 13, "velocity": 127}, {"time": 2456, "pitch": 71, "duration": 4, "velocity": 122}, {"time": 2462, "pitch": 76, "duration": 6, "velocity": 127}, {"time": 2468, "pitch": 76, "duration": 9, "velocity": 127}, {"time": 2480, "pitch": 74, "duration": 3, "velocity": 127}, {"time": 2483, "pitch": 72, "duration": 3, "velocity": 107}, {"time": 2489, "pitch": 74, "duration": 3, "velocity": 127}, {"time": 2492, "pitch": 72, "duration": 13, "velocity": 117}, {"time": 2516, "pitch": 72, "duration": 4, "velocity": 122}, {"time": 2522, "pitch": 74, "duration": 4, "velocity": 127}, {"time": 2528, "pitch": 76, "duration": 3, "velocity": 127}, {"time": 2534, "pitch": 76, "duration": 3, "velocity": 127}, {"time": 2537, "pitch": 74, "duration": 8, "velocity": 127}, {"time": 2552, "pitch": 67, "duration": 2, "velocity": 100}, {"time": 2558, "pitch": 74, "duration": 3, "velocity": 127}, {"time": 2561, "pitch": 72, "duration": 3, "velocity": 112}, {"time": 2564, "pitch": 71, "duration": 7, "velocity": 102}, {"time": 2573, "pitch": 69, "duration": 2, "velocity": 112}, {"time": 2576, "pitch": 67, "duration": 2, "velocity": 85}, {"time": 2579, "pitch": 69, "duration": 2, "velocity": 112}, {"time": 2582, "pitch": 71, "duration": 13, "velocity": 127}, {"time": 2603, "pitch": 71, "duration": 2, "velocity": 96}, {"time": 2606, "pitch": 76, "duration": 4, "velocity": 112}, {"time": 2612, "pitch": 76, "duration": 4, "velocity": 122}, {"time": 2618, "pitch": 78, "duration": 4, "velocity": 127}, {"time": 2624, "pitch": 78, "duration": 3, "velocity": 117}, {"time": 2627, "pitch": 76, "duration": 18, "velocity": 122}, {"time": 2648, "pitch": 71, "duration": 2, "velocity": 117}, {"time": 2654, "pitch": 76, "duration": 5, "velocity": 127}, {"time": 2660, "pitch": 76, "duration": 9, "velocity": 127}, {"time": 2672, "pitch": 74, "duration": 3, "velocity": 127}, {"time": 2675, "pitch": 72, "duration": 3, "velocity": 102}, {"time": 2681, "pitch": 74, "duration": 3, "velocity": 122}, {"time": 2684, "pitch": 72, "duration": 13, "velocity": 99}, {"time": 2708, "pitch": 67, "duration": 4, "velocity": 102}, {"time": 2714, "pitch": 67, "duration": 4, "velocity": 107}, {"time": 2720, "pitch": 67, "duration": 2, "velocity": 97}, {"time": 2726, "pitch": 71, "duration": 8, "velocity": 127}, {"time": 2732, "pitch": 69, "duration": 9, "velocity": 117}, {"time": 2744, "pitch": 66, "duration": 3, "velocity": 127}, {"time": 2750, "pitch": 67, "duration": 4, "velocity": 127}, {"time": 2753, "pitch": 66, "duration": 3, "velocity": 99}, {"time": 2756, "pitch": 64, "duration": 25, "velocity": 92}, {"time": 3176, "pitch": 71, "duration": 4, "velocity": 117}, {"time": 3182, "pitch": 76, "duration": 4, "velocity": 127}, {"time": 3188, "pitch": 76, "duration": 4, "velocity": 127}, {"time": 3194, "pitch": 78, "duration": 4, "velocity": 127}, {"time": 3200, "pitch": 76, "duration": 13, "velocity": 127}, {"time": 3224, "pitch": 71, "duration": 4, "velocity": 122}, {"time": 3230, "pitch": 76, "duration": 6, "velocity": 127}, {"time": 3236, "pitch": 76, "duration": 9, "velocity": 127}, {"time": 3248, "pitch": 74, "duration": 3, "velocity": 127}, {"time": 3251, "pitch": 72, "duration": 3, "velocity": 107}, {"time": 3257, "pitch": 74, "duration": 3, "velocity": 127}, {"time": 3260, "pitch": 72, "duration": 13, "velocity": 117}, {"time": 3284, "pitch": 72, "duration": 4, "velocity": 122}, {"time": 3290, "pitch": 74, "duration": 4, "velocity": 127}, {"time": 3296, "pitch": 76, "duration": 3, "velocity": 127}, {"time": 3302, "pitch": 76, "duration": 3, "velocity": 127}, {"time": 3305, "pitch": 74, "duration": 8, "velocity": 127}, {"time": 3320, "pitch": 67, "duration": 2, "velocity": 100}, {"time": 3326, "pitch": 74, "duration": 3, "velocity": 127}, {"time": 3329, "pitch": 72, "duration": 3, "velocity": 112}, {"time": 3332, "pitch": 71, "duration": 7, "velocity": 102}, {"time": 3341, "pitch": 69, "duration": 2, "velocity": 112}, {"time": 3344, "pitch": 67, "duration": 2, "velocity": 85}, {"time": 3347, "pitch": 69, "duration": 2, "velocity": 112}, {"time": 3350, "pitch": 71, "duration": 13, "velocity": 127}, {"time": 3371, "pitch": 71, "duration": 2, "velocity": 96}, {"time": 3374, "pitch": 76, "duration": 4, "velocity": 112}, {"time": 3380, "pitch": 76, "duration": 4, "velocity": 122}, {"time": 3386, "pitch": 78, "duration": 4, "velocity": 127}, {"time": 3392, "pitch": 78, "duration": 3, "velocity": 117}, {"time": 3395, "pitch": 76, "duration": 18, "velocity": 122}, {"time": 3416, "pitch": 71, "duration": 2, "velocity": 117}, {"time": 3422, "pitch": 76, "duration": 5, "velocity": 127}, {"time": 3428, "pitch": 76, "duration": 9, "velocity": 127}, {"time": 3440, "pitch": 74, "duration": 3, "velocity": 127}, {"time": 3443, "pitch": 72, "duration": 3, "velocity": 102}, {"time": 3449, "pitch": 74, "duration": 3, "velocity": 122}, {"time": 3452, "pitch": 72, "duration": 13, "velocity": 99}, {"time": 3476, "pitch": 67, "duration": 4, "velocity": 102}, {"time": 3482, "pitch": 67, "duration": 4, "velocity": 107}, {"time": 3488, "pitch": 67, "duration": 2, "velocity": 97}, {"time": 3494, "pitch": 71, "duration": 8, "velocity": 127}, {"time": 3500, "pitch": 69, "duration": 9, "velocity": 117}, {"time": 3512, "pitch": 66, "duration": 3, "velocity": 127}, {"time": 3518, "pitch": 67, "duration": 4, "velocity": 127}, {"time": 3521, "pitch": 66, "duration": 3, "velocity": 99}, {"time": 3524, "pitch": 64, "duration": 25, "velocity": 92}]}, {"program": 0, "is_drum": false, "name": "BRIDGE", "notes": [{"time": 482, "pitch": 66, "duration": 5, "velocity": 127}, {"time": 488, "pitch": 67, "duration": 7, "velocity": 96}, {"time": 494, "pitch": 69, "duration": 20, "velocity": 112}, {"time": 668, "pitch": 63, "duration": 6, "velocity": 90}, {"time": 674, "pitch": 64, "duration": 7, "velocity": 86}, {"time": 680, "pitch": 66, "duration": 6, "velocity": 112}, {"time": 686, "pitch": 67, "duration": 21, "velocity": 97}, {"time": 710, "pitch": 66, "duration": 22, "velocity": 127}, {"time": 734, "pitch": 64, "duration": 6, "velocity": 95}, {"time": 740, "pitch": 69, "duration": 6, "velocity": 97}, {"time": 746, "pitch": 71, "duration": 6, "velocity": 92}, {"time": 752, "pitch": 69, "duration": 6, "velocity": 85}, {"time": 758, "pitch": 68, "duration": 24, "velocity": 92}, {"time": 860, "pitch": 66, "duration": 6, "velocity": 100}, {"time": 866, "pitch": 67, "duration": 6, "velocity": 96}, {"time": 872, "pitch": 66, "duration": 6, "velocity": 112}, {"time": 878, "pitch": 64, "duration": 20, "velocity": 96}, {"time": 896, "pitch": 66, "duration": 3, "velocity": 107}, {"time": 899, "pitch": 67, "duration": 3, "velocity": 89}, {"time": 902, "pitch": 69, "duration": 18, "velocity": 107}, {"time": 920, "pitch": 71, "duration": 5, "velocity": 112}, {"time": 926, "pitch": 72, "duration": 16, "velocity": 99}, {"time": 938, "pitch": 74, "duration": 12, "velocity": 112}, {"time": 950, "pitch": 71, "duration": 18, "velocity": 99}, {"time": 962, "pitch": 69, "duration": 6, "velocity": 122}, {"time": 968, "pitch": 67, "duration": 2, "velocity": 93}, {"time": 971, "pitch": 66, "duration": 3, "velocity": 102}, {"time": 974, "pitch": 64, "duration": 22, "velocity": 100}, {"time": 1049, "pitch": 59, "duration": 3, "velocity": 96}, {"time": 1052, "pitch": 64, "duration": 4, "velocity": 82}, {"time": 1055, "pitch": 66, "duration": 3, "velocity": 96}, {"time": 1058, "pitch": 67, "duration": 4, "velocity": 96}, {"time": 1061, "pitch": 66, "duration": 4, "velocity": 107}, {"time": 1064, "pitch": 64, "duration": 3, "velocity": 107}, {"time": 1067, "pitch": 62, "duration": 3, "velocity": 93}, {"time": 1070, "pitch": 64, "duration": 8, "velocity": 127}, {"time": 1106, "pitch": 69, "duration": 5, "velocity": 127}, {"time": 1112, "pitch": 71, "duration": 5, "velocity": 100}, {"time": 1118, "pitch": 72, "duration": 7, "velocity": 122}, {"time": 1130, "pitch": 74, "duration": 11, "velocity": 127}, {"time": 1142, "pitch": 71, "duration": 12, "velocity": 122}, {"time": 1154, "pitch": 73, "duration": 6, "velocity": 117}, {"time": 1160, "pitch": 75, "duration": 5, "velocity": 122}, {"time": 1166, "pitch": 76, "duration": 22, "velocity": 100}, {"time": 1202, "pitch": 88, "duration": 5, "velocity": 122}, {"time": 1208, "pitch": 83, "duration": 6, "velocity": 97}, {"time": 1214, "pitch": 84, "duration": 24, "velocity": 127}, {"time": 1244, "pitch": 79, "duration": 6, "velocity": 99}, {"time": 1250, "pitch": 81, "duration": 7, "velocity": 127}, {"time": 1256, "pitch": 83, "duration": 7, "velocity": 102}, {"time": 1262, "pitch": 84, "duration": 21, "velocity": 127}, {"time": 1337, "pitch": 71, "duration": 3, "velocity": 107}, {"time": 1340, "pitch": 73, "duration": 3, "velocity": 112}, {"time": 1343, "pitch": 76, "duration": 2, "velocity": 112}, {"time": 1346, "pitch": 75, "duration": 3, "velocity": 122}, {"time": 1349, "pitch": 78, "duration": 3, "velocity": 127}, {"time": 1352, "pitch": 83, "duration": 2, "velocity": 107}, {"time": 1355, "pitch": 82, "duration": 3, "velocity": 122}, {"time": 1358, "pitch": 81, "duration": 23, "velocity": 127}, {"time": 1436, "pitch": 83, "duration": 6, "velocity": 95}, {"time": 1442, "pitch": 81, "duration": 6, "velocity": 112}, {"time": 1448, "pitch": 79, "duration": 6, "velocity": 100}, {"time": 1454, "pitch": 76, "duration": 23, "velocity": 102}, {"time": 1502, "pitch": 76, "duration": 23, "velocity": 112}, {"time": 1526, "pitch": 52, "duration": 10, "velocity": 99}, {"time": 1526, "pitch": 71, "duration": 12, "velocity": 95}, {"time": 1538, "pitch": 52, "duration": 10, "velocity": 112}, {"time": 1538, "pitch": 74, "duration": 12, "velocity": 127}, {"time": 1550, "pitch": 60, "duration": 21, "velocity": 122}, {"time": 1550, "pitch": 72, "duration": 26, "velocity": 122}, {"time": 1574, "pitch": 62, "duration": 6, "velocity": 122}, {"time": 1580, "pitch": 60, "duration": 6, "velocity": 95}, {"time": 1586, "pitch": 59, "duration": 6, "velocity": 112}, {"time": 1592, "pitch": 62, "duration": 7, "velocity": 112}, {"time": 1598, "pitch": 60, "duration": 8, "velocity": 127}, {"time": 1604, "pitch": 59, "duration": 6, "velocity": 96}, {"time": 1604, "pitch": 67, "duration": 7, "velocity": 127}, {"time": 1610, "pitch": 60, "duration": 6, "velocity": 100}, {"time": 1610, "pitch": 69, "duration": 5, "velocity": 127}, {"time": 1616, "pitch": 59, "duration": 6, "velocity": 107}, {"time": 1616, "pitch": 67, "duration": 6, "velocity": 117}, {"time": 1622, "pitch": 59, "duration": 1, "velocity": 107}, {"time": 1622, "pitch": 66, "duration": 14, "velocity": 127}, {"time": 1634, "pitch": 71, "duration": 12, "velocity": 127}, {"time": 1730, "pitch": 66, "duration": 5, "velocity": 127}, {"time": 1736, "pitch": 67, "duration": 7, "velocity": 96}, {"time": 1742, "pitch": 69, "duration": 20, "velocity": 112}, {"time": 1916, "pitch": 63, "duration": 6, "velocity": 90}, {"time": 1922, "pitch": 64, "duration": 7, "velocity": 86}, {"time": 1928, "pitch": 66, "duration": 6, "velocity": 112}, {"time": 1934, "pitch": 67, "duration": 21, "velocity": 97}, {"time": 1958, "pitch": 66, "duration": 22, "velocity": 127}, {"time": 1982, "pitch": 64, "duration": 6, "velocity": 95}, {"time": 1988, "pitch": 69, "duration": 6, "velocity": 97}, {"time": 1994, "pitch": 71, "duration": 6, "velocity": 92}, {"time": 2000, "pitch": 69, "duration": 6, "velocity": 85}, {"time": 2006, "pitch": 68, "duration": 24, "velocity": 92}, {"time": 2108, "pitch": 66, "duration": 6, "velocity": 100}, {"time": 2114, "pitch": 67, "duration": 6, "velocity": 96}, {"time": 2120, "pitch": 66, "duration": 6, "velocity": 112}, {"time": 2126, "pitch": 64, "duration": 20, "velocity": 96}, {"time": 2144, "pitch": 66, "duration": 3, "velocity": 107}, {"time": 2147, "pitch": 67, "duration": 3, "velocity": 89}, {"time": 2150, "pitch": 69, "duration": 18, "velocity": 107}, {"time": 2168, "pitch": 71, "duration": 5, "velocity": 112}, {"time": 2174, "pitch": 72, "duration": 16, "velocity": 99}, {"time": 2186, "pitch": 74, "duration": 12, "velocity": 112}, {"time": 2198, "pitch": 71, "duration": 18, "velocity": 99}, {"time": 2210, "pitch": 69, "duration": 6, "velocity": 122}, {"time": 2216, "pitch": 67, "duration": 2, "velocity": 93}, {"time": 2219, "pitch": 66, "duration": 3, "velocity": 102}, {"time": 2222, "pitch": 64, "duration": 22, "velocity": 100}, {"time": 2297, "pitch": 59, "duration": 3, "velocity": 96}, {"time": 2300, "pitch": 64, "duration": 4, "velocity": 82}, {"time": 2303, "pitch": 66, "duration": 3, "velocity": 96}, {"time": 2306, "pitch": 67, "duration": 4, "velocity": 96}, {"time": 2309, "pitch": 66, "duration": 4, "velocity": 107}, {"time": 2312, "pitch": 64, "duration": 3, "velocity": 107}, {"time": 2315, "pitch": 62, "duration": 3, "velocity": 93}, {"time": 2318, "pitch": 64, "duration": 8, "velocity": 127}, {"time": 2354, "pitch": 69, "duration": 5, "velocity": 127}, {"time": 2360, "pitch": 71, "duration": 5, "velocity": 100}, {"time": 2366, "pitch": 72, "duration": 7, "velocity": 122}, {"time": 2378, "pitch": 74, "duration": 11, "velocity": 127}, {"time": 2390, "pitch": 71, "duration": 12, "velocity": 122}, {"time": 2402, "pitch": 73, "duration": 7, "velocity": 127}, {"time": 2408, "pitch": 75, "duration": 6, "velocity": 127}, {"time": 2414, "pitch": 76, "duration": 21, "velocity": 100}, {"time": 2438, "pitch": 80, "duration": 18, "velocity": 127}, {"time": 2456, "pitch": 83, "duration": 6, "velocity": 127}, {"time": 2462, "pitch": 84, "duration": 24, "velocity": 127}, {"time": 2492, "pitch": 79, "duration": 6, "velocity": 99}, {"time": 2498, "pitch": 81, "duration": 7, "velocity": 127}, {"time": 2504, "pitch": 83, "duration": 7, "velocity": 102}, {"time": 2510, "pitch": 84, "duration": 21, "velocity": 127}, {"time": 2585, "pitch": 71, "duration": 3, "velocity": 107}, {"time": 2588, "pitch": 73, "duration": 3, "velocity": 112}, {"time": 2591, "pitch": 76, "duration": 2, "velocity": 112}, {"time": 2594, "pitch": 75, "duration": 3, "velocity": 122}, {"time": 2597, "pitch": 78, "duration": 3, "velocity": 127}, {"time": 2600, "pitch": 83, "duration": 2, "velocity": 107}, {"time": 2603, "pitch": 82, "duration": 3, "velocity": 122}, {"time": 2606, "pitch": 81, "duration": 23, "velocity": 127}, {"time": 2684, "pitch": 83, "duration": 6, "velocity": 95}, {"time": 2690, "pitch": 81, "duration": 6, "velocity": 112}, {"time": 2696, "pitch": 79, "duration": 6, "velocity": 100}, {"time": 2702, "pitch": 76, "duration": 23, "velocity": 102}, {"time": 2765, "pitch": 59, "duration": 1, "velocity": 117}, {"time": 2765, "pitch": 71, "duration": 1, "velocity": 127}, {"time": 2768, "pitch": 61, "duration": 1, "velocity": 127}, {"time": 2768, "pitch": 73, "duration": 1, "velocity": 127}, {"time": 2771, "pitch": 63, "duration": 1, "velocity": 127}, {"time": 2771, "pitch": 75, "duration": 1, "velocity": 127}, {"time": 2774, "pitch": 64, "duration": 2, "velocity": 127}, {"time": 2774, "pitch": 76, "duration": 3, "velocity": 127}, {"time": 2798, "pitch": 76, "duration": 30, "velocity": 127}, {"time": 2828, "pitch": 76, "duration": 1, "velocity": 127}, {"time": 2837, "pitch": 76, "duration": 7, "velocity": 127}, {"time": 2846, "pitch": 76, "duration": 5, "velocity": 127}, {"time": 2855, "pitch": 74, "duration": 1, "velocity": 117}, {"time": 2856, "pitch": 71, "duration": 2, "velocity": 96}, {"time": 2858, "pitch": 74, "duration": 2, "velocity": 112}, {"time": 2861, "pitch": 71, "duration": 2, "velocity": 127}, {"time": 2864, "pitch": 69, "duration": 2, "velocity": 100}, {"time": 2867, "pitch": 67, "duration": 1, "velocity": 117}, {"time": 2870, "pitch": 64, "duration": 3, "velocity": 117}, {"time": 2873, "pitch": 67, "duration": 2, "velocity": 99}, {"time": 2876, "pitch": 67, "duration": 2, "velocity": 93}, {"time": 2879, "pitch": 64, "duration": 2, "velocity": 102}, {"time": 2882, "pitch": 64, "duration": 7, "velocity": 117}, {"time": 2909, "pitch": 64, "duration": 2, "velocity": 127}, {"time": 2912, "pitch": 67, "duration": 2, "velocity": 127}, {"time": 2915, "pitch": 69, "duration": 2, "velocity": 127}, {"time": 2918, "pitch": 71, "duration": 5, "velocity": 127}, {"time": 2924, "pitch": 69, "duration": 3, "velocity": 127}, {"time": 2927, "pitch": 67, "duration": 2, "velocity": 112}, {"time": 2930, "pitch": 69, "duration": 3, "velocity": 127}, {"time": 2933, "pitch": 67, "duration": 2, "velocity": 107}, {"time": 2936, "pitch": 71, "duration": 7, "velocity": 127}, {"time": 2954, "pitch": 76, "duration": 3, "velocity": 127}, {"time": 2957, "pitch": 71, "duration": 3, "velocity": 102}, {"time": 2960, "pitch": 69, "duration": 3, "velocity": 112}, {"time": 2963, "pitch": 71, "duration": 2, "velocity": 117}, {"time": 2966, "pitch": 78, "duration": 15, "velocity": 127}, {"time": 2978, "pitch": 71, "duration": 11, "velocity": 127}, {"time": 2990, "pitch": 81, "duration": 17, "velocity": 127}, {"time": 3008, "pitch": 81, "duration": 3, "velocity": 127}, {"time": 3011, "pitch": 80, "duration": 3, "velocity": 117}, {"time": 3014, "pitch": 81, "duration": 5, "velocity": 127}, {"time": 3020, "pitch": 80, "duration": 3, "velocity": 127}, {"time": 3023, "pitch": 81, "duration": 2, "velocity": 102}, {"time": 3026, "pitch": 81, "duration": 5, "velocity": 127}, {"time": 3032, "pitch": 80, "duration": 3, "velocity": 127}, {"time": 3035, "pitch": 81, "duration": 3, "velocity": 100}, {"time": 3038, "pitch": 83, "duration": 8, "velocity": 127}, {"time": 3044, "pitch": 80, "duration": 6, "velocity": 127}, {"time": 3050, "pitch": 76, "duration": 6, "velocity": 122}, {"time": 3056, "pitch": 79, "duration": 3, "velocity": 122}, {"time": 3059, "pitch": 80, "duration": 2, "velocity": 127}, {"time": 3062, "pitch": 81, "duration": 3, "velocity": 122}, {"time": 3065, "pitch": 83, "duration": 4, "velocity": 127}, {"time": 3071, "pitch": 79, "duration": 3, "velocity": 127}, {"time": 3074, "pitch": 76, "duration": 4, "velocity": 117}, {"time": 3080, "pitch": 79, "duration": 9, "velocity": 127}, {"time": 3098, "pitch": 74, "duration": 5, "velocity": 127}, {"time": 3107, "pitch": 72, "duration": 3, "velocity": 112}, {"time": 3110, "pitch": 71, "duration": 4, "velocity": 107}, {"time": 3113, "pitch": 72, "duration": 3, "velocity": 117}, {"time": 3116, "pitch": 74, "duration": 4, "velocity": 127}, {"time": 3119, "pitch": 74, "duration": 1, "velocity": 127}, {"time": 3122, "pitch": 74, "duration": 2, "velocity": 127}, {"time": 3125, "pitch": 74, "duration": 2, "velocity": 127}, {"time": 3126, "pitch": 72, "duration": 2, "velocity": 93}, {"time": 3128, "pitch": 71, "duration": 2, "velocity": 99}, {"time": 3131, "pitch": 69, "duration": 2, "velocity": 122}, {"time": 3134, "pitch": 71, "duration": 9, "velocity": 127}, {"time": 3143, "pitch": 69, "duration": 3, "velocity": 127}, {"time": 3146, "pitch": 71, "duration": 6, "velocity": 127}, {"time": 3155, "pitch": 71, "duration": 2, "velocity": 127}, {"time": 3158, "pitch": 63, "duration": 3, "velocity": 127}, {"time": 3158, "pitch": 75, "duration": 3, "velocity": 127}, {"time": 3162, "pitch": 64, "duration": 3, "velocity": 122}, {"time": 3162, "pitch": 72, "duration": 3, "velocity": 127}, {"time": 3166, "pitch": 66, "duration": 3, "velocity": 127}, {"time": 3166, "pitch": 71, "duration": 3, "velocity": 127}, {"time": 3170, "pitch": 67, "duration": 3, "velocity": 127}, {"time": 3170, "pitch": 70, "duration": 4, "velocity": 127}, {"time": 3174, "pitch": 69, "duration": 2, "velocity": 127}, {"time": 3178, "pitch": 67, "duration": 2, "velocity": 122}, {"time": 3182, "pitch": 64, "duration": 12, "velocity": 122}, {"time": 3182, "pitch": 71, "duration": 12, "velocity": 127}, {"time": 3536, "pitch": 59, "duration": 4, "velocity": 100}, {"time": 3542, "pitch": 62, "duration": 16, "velocity": 127}, {"time": 3542, "pitch": 69, "duration": 16, "velocity": 117}, {"time": 3560, "pitch": 62, "duration": 6, "velocity": 102}, {"time": 3560, "pitch": 69, "duration": 6, "velocity": 117}, {"time": 3566, "pitch": 64, "duration": 34, "velocity": 112}, {"time": 3566, "pitch": 68, "duration": 26, "velocity": 112}]}, {"program": 0, "is_drum": false, "name": "PIANO", "notes": [{"time": 350, "pitch": 40, "duration": 47, "velocity": 79}, {"time": 350, "pitch": 64, "duration": 6, "velocity": 89}, {"time": 350, "pitch": 67, "duration": 7, "velocity": 92}, {"time": 356, "pitch": 47, "duration": 42, "velocity": 52}, {"time": 356, "pitch": 59, "duration": 7, "velocity": 76}, {"time": 362, "pitch": 52, "duration": 7, "velocity": 66}, {"time": 362, "pitch": 64, "duration": 6, "velocity": 88}, {"time": 362, "pitch": 67, "duration": 8, "velocity": 88}, {"time": 368, "pitch": 59, "duration": 7, "velocity": 73}, {"time": 374, "pitch": 52, "duration": 24, "velocity": 41}, {"time": 374, "pitch": 64, "duration": 10, "velocity": 75}, {"time": 374, "pitch": 67, "duration": 10, "velocity": 81}, {"time": 380, "pitch": 59, "duration": 7, "velocity": 58}, {"time": 386, "pitch": 64, "duration": 8, "velocity": 86}, {"time": 386, "pitch": 67, "duration": 9, "velocity": 89}, {"time": 392, "pitch": 59, "duration": 6, "velocity": 58}, {"time": 398, "pitch": 40, "duration": 42, "velocity": 76}, {"time": 398, "pitch": 64, "duration": 7, "velocity": 93}, {"time": 398, "pitch": 67, "duration": 7, "velocity": 92}, {"time": 404, "pitch": 47, "duration": 9, "velocity": 51}, {"time": 404, "pitch": 59, "duration": 7, "velocity": 75}, {"time": 410, "pitch": 52, "duration": 6, "velocity": 58}, {"time": 410, "pitch": 64, "duration": 7, "velocity": 86}, {"time": 410, "pitch": 67, "duration": 7, "velocity": 88}, {"time": 416, "pitch": 47, "duration": 4, "velocity": 49}, {"time": 416, "pitch": 59, "duration": 7, "velocity": 72}, {"time": 422, "pitch": 52, "duration": 6, "velocity": 66}, {"time": 422, "pitch": 64, "duration": 7, "velocity": 77}, {"time": 422, "pitch": 67, "duration": 8, "velocity": 77}, {"time": 428, "pitch": 47, "duration": 10, "velocity": 39}, {"time": 428, "pitch": 59, "duration": 6, "velocity": 69}, {"time": 434, "pitch": 52, "duration": 12, "velocity": 78}, {"time": 434, "pitch": 64, "duration": 7, "velocity": 92}, {"time": 434, "pitch": 67, "duration": 7, "velocity": 90}, {"time": 440, "pitch": 47, "duration": 1, "velocity": 34}, {"time": 440, "pitch": 59, "duration": 6, "velocity": 86}, {"time": 446, "pitch": 45, "duration": 41, "velocity": 68}, {"time": 446, "pitch": 61, "duration": 10, "velocity": 82}, {"time": 446, "pitch": 64, "duration": 10, "velocity": 82}, {"time": 452, "pitch": 52, "duration": 9, "velocity": 76}, {"time": 458, "pitch": 61, "duration": 2, "velocity": 117}, {"time": 458, "pitch": 64, "duration": 2, "velocity": 93}, {"time": 464, "pitch": 52, "duration": 7, "velocity": 70}, {"time": 470, "pitch": 57, "duration": 6, "velocity": 81}, {"time": 470, "pitch": 69, "duration": 10, "velocity": 96}, {"time": 470, "pitch": 73, "duration": 10, "velocity": 107}, {"time": 476, "pitch": 52, "duration": 10, "velocity": 76}, {"time": 482, "pitch": 69, "duration": 5, "velocity": 122}, {"time": 482, "pitch": 73, "duration": 6, "velocity": 127}, {"time": 485, "pitch": 57, "duration": 1, "velocity": 96}, {"time": 488, "pitch": 64, "duration": 4, "velocity": 102}, {"time": 494, "pitch": 42, "duration": 40, "velocity": 89}, {"time": 494, "pitch": 62, "duration": 9, "velocity": 97}, {"time": 494, "pitch": 66, "duration": 7, "velocity": 107}, {"time": 494, "pitch": 69, "duration": 8, "velocity": 95}, {"time": 500, "pitch": 50, "duration": 34, "velocity": 49}, {"time": 506, "pitch": 54, "duration": 5, "velocity": 49}, {"time": 506, "pitch": 62, "duration": 9, "velocity": 96}, {"time": 506, "pitch": 66, "duration": 8, "velocity": 122}, {"time": 506, "pitch": 69, "duration": 9, "velocity": 93}, {"time": 506, "pitch": 73, "duration": 6, "velocity": 82}, {"time": 512, "pitch": 54, "duration": 8, "velocity": 56}, {"time": 518, "pitch": 62, "duration": 8, "velocity": 102}, {"time": 518, "pitch": 66, "duration": 10, "velocity": 127}, {"time": 518, "pitch": 69, "duration": 10, "velocity": 95}, {"time": 518, "pitch": 73, "duration": 9, "velocity": 81}, {"time": 524, "pitch": 54, "duration": 10, "velocity": 59}, {"time": 530, "pitch": 66, "duration": 10, "velocity": 127}, {"time": 530, "pitch": 69, "duration": 8, "velocity": 96}, {"time": 536, "pitch": 62, "duration": 7, "velocity": 102}, {"time": 542, "pitch": 43, "duration": 18, "velocity": 79}, {"time": 542, "pitch": 67, "duration": 10, "velocity": 100}, {"time": 542, "pitch": 71, "duration": 10, "velocity": 112}, {"time": 548, "pitch": 50, "duration": 8, "velocity": 56}, {"time": 554, "pitch": 55, "duration": 6, "velocity": 74}, {"time": 554, "pitch": 67, "duration": 5, "velocity": 102}, {"time": 554, "pitch": 71, "duration": 5, "velocity": 100}, {"time": 560, "pitch": 50, "duration": 6, "velocity": 83}, {"time": 566, "pitch": 47, "duration": 16, "velocity": 58}, {"time": 566, "pitch": 59, "duration": 11, "velocity": 88}, {"time": 566, "pitch": 63, "duration": 11, "velocity": 93}, {"time": 566, "pitch": 66, "duration": 10, "velocity": 89}, {"time": 578, "pitch": 63, "duration": 7, "velocity": 127}, {"time": 578, "pitch": 66, "duration": 9, "velocity": 127}, {"time": 581, "pitch": 54, "duration": 1, "velocity": 90}, {"time": 584, "pitch": 59, "duration": 8, "velocity": 102}, {"time": 590, "pitch": 40, "duration": 39, "velocity": 88}, {"time": 590, "pitch": 64, "duration": 5, "velocity": 90}, {"time": 596, "pitch": 47, "duration": 7, "velocity": 88}, {"time": 602, "pitch": 52, "duration": 6, "velocity": 77}, {"time": 602, "pitch": 64, "duration": 10, "velocity": 89}, {"time": 602, "pitch": 67, "duration": 10, "velocity": 83}, {"time": 608, "pitch": 47, "duration": 7, "velocity": 69}, {"time": 614, "pitch": 52, "duration": 7, "velocity": 75}, {"time": 614, "pitch": 64, "duration": 11, "velocity": 99}, {"time": 614, "pitch": 67, "duration": 10, "velocity": 96}, {"time": 620, "pitch": 47, "duration": 10, "velocity": 40}, {"time": 626, "pitch": 52, "duration": 10, "velocity": 76}, {"time": 626, "pitch": 64, "duration": 11, "velocity": 97}, {"time": 626, "pitch": 67, "duration": 12, "velocity": 96}, {"time": 632, "pitch": 59, "duration": 6, "velocity": 79}, {"time": 638, "pitch": 45, "duration": 40, "velocity": 99}, {"time": 644, "pitch": 52, "duration": 7, "velocity": 59}, {"time": 650, "pitch": 57, "duration": 14, "velocity": 73}, {"time": 650, "pitch": 64, "duration": 11, "velocity": 82}, {"time": 650, "pitch": 69, "duration": 11, "velocity": 88}, {"time": 656, "pitch": 52, "duration": 21, "velocity": 42}, {"time": 662, "pitch": 64, "duration": 11, "velocity": 69}, {"time": 662, "pitch": 69, "duration": 11, "velocity": 79}, {"time": 662, "pitch": 72, "duration": 7, "velocity": 78}, {"time": 668, "pitch": 57, "duration": 7, "velocity": 85}, {"time": 674, "pitch": 64, "duration": 1, "velocity": 33}, {"time": 674, "pitch": 72, "duration": 7, "velocity": 122}, {"time": 680, "pitch": 69, "duration": 1, "velocity": 73}, {"time": 686, "pitch": 36, "duration": 13, "velocity": 74}, {"time": 686, "pitch": 60, "duration": 10, "velocity": 93}, {"time": 686, "pitch": 64, "duration": 10, "velocity": 90}, {"time": 686, "pitch": 67, "duration": 10, "velocity": 89}, {"time": 692, "pitch": 43, "duration": 7, "velocity": 44}, {"time": 698, "pitch": 48, "duration": 2, "velocity": 72}, {"time": 698, "pitch": 64, "duration": 7, "velocity": 96}, {"time": 698, "pitch": 67, "duration": 7, "velocity": 92}, {"time": 704, "pitch": 60, "duration": 2, "velocity": 89}, {"time": 710, "pitch": 47, "duration": 13, "velocity": 71}, {"time": 710, "pitch": 59, "duration": 11, "velocity": 89}, {"time": 710, "pitch": 62, "duration": 11, "velocity": 85}, {"time": 710, "pitch": 66, "duration": 11, "velocity": 97}, {"time": 716, "pitch": 54, "duration": 6, "velocity": 43}, {"time": 722, "pitch": 62, "duration": 5, "velocity": 102}, {"time": 722, "pitch": 66, "duration": 5, "velocity": 127}, {"time": 734, "pitch": 40, "duration": 24, "velocity": 68}, {"time": 734, "pitch": 64, "duration": 7, "velocity": 89}, {"time": 734, "pitch": 69, "duration": 7, "velocity": 90}, {"time": 734, "pitch": 71, "duration": 7, "velocity": 92}, {"time": 740, "pitch": 47, "duration": 7, "velocity": 45}, {"time": 743, "pitch": 69, "duration": 1, "velocity": 32}, {"time": 743, "pitch": 71, "duration": 1, "velocity": 27}, {"time": 746, "pitch": 64, "duration": 10, "velocity": 93}, {"time": 746, "pitch": 69, "duration": 7, "velocity": 96}, {"time": 746, "pitch": 71, "duration": 10, "velocity": 93}, {"time": 752, "pitch": 47, "duration": 6, "velocity": 93}, {"time": 758, "pitch": 44, "duration": 14, "velocity": 93}, {"time": 758, "pitch": 64, "duration": 23, "velocity": 88}, {"time": 758, "pitch": 68, "duration": 23, "velocity": 102}, {"time": 758, "pitch": 71, "duration": 23, "velocity": 85}, {"time": 782, "pitch": 40, "duration": 19, "velocity": 96}, {"time": 788, "pitch": 47, "duration": 14, "velocity": 61}, {"time": 794, "pitch": 59, "duration": 12, "velocity": 97}, {"time": 800, "pitch": 52, "duration": 6, "velocity": 54}, {"time": 806, "pitch": 45, "duration": 17, "velocity": 82}, {"time": 812, "pitch": 52, "duration": 10, "velocity": 73}, {"time": 818, "pitch": 64, "duration": 12, "velocity": 112}, {"time": 824, "pitch": 61, "duration": 6, "velocity": 100}, {"time": 830, "pitch": 36, "duration": 11, "velocity": 100}, {"time": 836, "pitch": 60, "duration": 6, "velocity": 102}, {"time": 842, "pitch": 38, "duration": 5, "velocity": 72}, {"time": 842, "pitch": 62, "duration": 11, "velocity": 127}, {"time": 848, "pitch": 59, "duration": 7, "velocity": 81}, {"time": 854, "pitch": 40, "duration": 22, "velocity": 79}, {"time": 860, "pitch": 47, "duration": 7, "velocity": 59}, {"time": 866, "pitch": 52, "duration": 6, "velocity": 83}, {"time": 866, "pitch": 67, "duration": 13, "velocity": 95}, {"time": 872, "pitch": 47, "duration": 7, "velocity": 79}, {"time": 872, "pitch": 59, "duration": 7, "velocity": 69}, {"time": 878, "pitch": 40, "duration": 15, "velocity": 95}, {"time": 884, "pitch": 47, "duration": 10, "velocity": 64}, {"time": 890, "pitch": 52, "duration": 7, "velocity": 83}, {"time": 890, "pitch": 67, "duration": 12, "velocity": 122}, {"time": 896, "pitch": 64, "duration": 6, "velocity": 86}, {"time": 902, "pitch": 45, "duration": 18, "velocity": 99}, {"time": 908, "pitch": 52, "duration": 10, "velocity": 66}, {"time": 914, "pitch": 64, "duration": 11, "velocity": 117}, {"time": 920, "pitch": 61, "duration": 5, "velocity": 100}, {"time": 926, "pitch": 36, "duration": 11, "velocity": 97}, {"time": 932, "pitch": 60, "duration": 6, "velocity": 122}, {"time": 938, "pitch": 38, "duration": 4, "velocity": 61}, {"time": 938, "pitch": 62, "duration": 13, "velocity": 102}, {"time": 950, "pitch": 43, "duration": 10, "velocity": 72}, {"time": 950, "pitch": 67, "duration": 5, "velocity": 100}, {"time": 956, "pitch": 50, "duration": 7, "velocity": 92}, {"time": 962, "pitch": 47, "duration": 6, "velocity": 68}, {"time": 962, "pitch": 63, "duration": 9, "velocity": 99}, {"time": 962, "pitch": 66, "duration": 9, "velocity": 96}, {"time": 968, "pitch": 59, "duration": 6, "velocity": 88}, {"time": 974, "pitch": 40, "duration": 18, "velocity": 95}, {"time": 980, "pitch": 47, "duration": 8, "velocity": 53}, {"time": 986, "pitch": 52, "duration": 6, "velocity": 95}, {"time": 986, "pitch": 67, "duration": 7, "velocity": 100}, {"time": 992, "pitch": 47, "duration": 4, "velocity": 85}, {"time": 992, "pitch": 64, "duration": 7, "velocity": 97}, {"time": 998, "pitch": 45, "duration": 16, "velocity": 86}, {"time": 1004, "pitch": 52, "duration": 10, "velocity": 85}, {"time": 1010, "pitch": 64, "duration": 11, "velocity": 102}, {"time": 1016, "pitch": 61, "duration": 5, "velocity": 100}, {"time": 1022, "pitch": 48, "duration": 12, "velocity": 97}, {"time": 1028, "pitch": 60, "duration": 6, "velocity": 99}, {"time": 1034, "pitch": 50, "duration": 5, "velocity": 79}, {"time": 1034, "pitch": 62, "duration": 11, "velocity": 99}, {"time": 1040, "pitch": 59, "duration": 8, "velocity": 88}, {"time": 1046, "pitch": 40, "duration": 21, "velocity": 95}, {"time": 1052, "pitch": 47, "duration": 7, "velocity": 60}, {"time": 1058, "pitch": 52, "duration": 5, "velocity": 90}, {"time": 1058, "pitch": 67, "duration": 12, "velocity": 99}, {"time": 1061, "pitch": 47, "duration": 8, "velocity": 73}, {"time": 1064, "pitch": 64, "duration": 6, "velocity": 92}, {"time": 1067, "pitch": 59, "duration": 4, "velocity": 75}, {"time": 1070, "pitch": 40, "duration": 18, "velocity": 88}, {"time": 1076, "pitch": 47, "duration": 7, "velocity": 65}, {"time": 1082, "pitch": 52, "duration": 6, "velocity": 71}, {"time": 1082, "pitch": 67, "duration": 12, "velocity": 102}, {"time": 1088, "pitch": 47, "duration": 2, "velocity": 65}, {"time": 1088, "pitch": 64, "duration": 6, "velocity": 96}, {"time": 1094, "pitch": 45, "duration": 17, "velocity": 79}, {"time": 1100, "pitch": 52, "duration": 8, "velocity": 59}, {"time": 1106, "pitch": 64, "duration": 16, "velocity": 102}, {"time": 1109, "pitch": 52, "duration": 2, "velocity": 85}, {"time": 1112, "pitch": 61, "duration": 4, "velocity": 117}, {"time": 1115, "pitch": 57, "duration": 2, "velocity": 88}, {"time": 1118, "pitch": 36, "duration": 11, "velocity": 99}, {"time": 1124, "pitch": 60, "duration": 6, "velocity": 100}, {"time": 1130, "pitch": 38, "duration": 5, "velocity": 90}, {"time": 1130, "pitch": 62, "duration": 7, "velocity": 112}, {"time": 1136, "pitch": 60, "duration": 6, "velocity": 127}, {"time": 1142, "pitch": 43, "duration": 7, "velocity": 81}, {"time": 1148, "pitch": 55, "duration": 3, "velocity": 95}, {"time": 1154, "pitch": 47, "duration": 7, "velocity": 93}, {"time": 1154, "pitch": 59, "duration": 1, "velocity": 86}, {"time": 1154, "pitch": 63, "duration": 11, "velocity": 112}, {"time": 1154, "pitch": 66, "duration": 10, "velocity": 112}, {"time": 1160, "pitch": 59, "duration": 5, "velocity": 97}, {"time": 1166, "pitch": 40, "duration": 22, "velocity": 69}, {"time": 1166, "pitch": 69, "duration": 10, "velocity": 100}, {"time": 1166, "pitch": 71, "duration": 10, "velocity": 102}, {"time": 1172, "pitch": 47, "duration": 7, "velocity": 59}, {"time": 1178, "pitch": 52, "duration": 9, "velocity": 88}, {"time": 1178, "pitch": 71, "duration": 10, "velocity": 112}, {"time": 1184, "pitch": 64, "duration": 7, "velocity": 100}, {"time": 1190, "pitch": 40, "duration": 18, "velocity": 82}, {"time": 1190, "pitch": 68, "duration": 10, "velocity": 122}, {"time": 1190, "pitch": 71, "duration": 10, "velocity": 96}, {"time": 1196, "pitch": 47, "duration": 7, "velocity": 59}, {"time": 1202, "pitch": 52, "duration": 6, "velocity": 81}, {"time": 1202, "pitch": 68, "duration": 13, "velocity": 127}, {"time": 1202, "pitch": 71, "duration": 13, "velocity": 107}, {"time": 1208, "pitch": 47, "duration": 1, "velocity": 86}, {"time": 1208, "pitch": 64, "duration": 7, "velocity": 85}, {"time": 1214, "pitch": 45, "duration": 22, "velocity": 86}, {"time": 1217, "pitch": 52, "duration": 11, "velocity": 82}, {"time": 1220, "pitch": 57, "duration": 3, "velocity": 112}, {"time": 1223, "pitch": 60, "duration": 2, "velocity": 117}, {"time": 1226, "pitch": 64, "duration": 12, "velocity": 102}, {"time": 1229, "pitch": 52, "duration": 9, "velocity": 100}, {"time": 1232, "pitch": 60, "duration": 6, "velocity": 112}, {"time": 1235, "pitch": 57, "duration": 3, "velocity": 97}, {"time": 1238, "pitch": 45, "duration": 17, "velocity": 92}, {"time": 1241, "pitch": 52, "duration": 10, "velocity": 90}, {"time": 1244, "pitch": 57, "duration": 3, "velocity": 93}, {"time": 1247, "pitch": 60, "duration": 2, "velocity": 112}, {"time": 1250, "pitch": 64, "duration": 11, "velocity": 117}, {"time": 1253, "pitch": 52, "duration": 2, "velocity": 102}, {"time": 1256, "pitch": 60, "duration": 4, "velocity": 117}, {"time": 1259, "pitch": 57, "duration": 3, "velocity": 99}, {"time": 1262, "pitch": 38, "duration": 21, "velocity": 83}, {"time": 1265, "pitch": 45, "duration": 21, "velocity": 69}, {"time": 1268, "pitch": 50, "duration": 7, "velocity": 97}, {"time": 1271, "pitch": 57, "duration": 6, "velocity": 102}, {"time": 1274, "pitch": 66, "duration": 10, "velocity": 127}, {"time": 1277, "pitch": 50, "duration": 2, "velocity": 100}, {"time": 1280, "pitch": 62, "duration": 6, "velocity": 97}, {"time": 1283, "pitch": 57, "duration": 3, "velocity": 92}, {"time": 1286, "pitch": 38, "duration": 17, "velocity": 82}, {"time": 1289, "pitch": 45, "duration": 14, "velocity": 70}, {"time": 1292, "pitch": 50, "duration": 7, "velocity": 93}, {"time": 1295, "pitch": 57, "duration": 3, "velocity": 100}, {"time": 1298, "pitch": 66, "duration": 9, "velocity": 127}, {"time": 1301, "pitch": 50, "duration": 7, "velocity": 95}, {"time": 1304, "pitch": 62, "duration": 5, "velocity": 93}, {"time": 1307, "pitch": 57, "duration": 3, "velocity": 99}, {"time": 1310, "pitch": 43, "duration": 17, "velocity": 79}, {"time": 1313, "pitch": 50, "duration": 15, "velocity": 90}, {"time": 1316, "pitch": 55, "duration": 7, "velocity": 99}, {"time": 1319, "pitch": 59, "duration": 4, "velocity": 107}, {"time": 1322, "pitch": 67, "duration": 10, "velocity": 117}, {"time": 1325, "pitch": 55, "duration": 5, "velocity": 112}, {"time": 1328, "pitch": 62, "duration": 4, "velocity": 100}, {"time": 1331, "pitch": 59, "duration": 3, "velocity": 112}, {"time": 1334, "pitch": 47, "duration": 18, "velocity": 89}, {"time": 1337, "pitch": 54, "duration": 11, "velocity": 100}, {"time": 1340, "pitch": 59, "duration": 4, "velocity": 99}, {"time": 1343, "pitch": 63, "duration": 3, "velocity": 127}, {"time": 1346, "pitch": 66, "duration": 9, "velocity": 127}, {"time": 1349, "pitch": 54, "duration": 2, "velocity": 107}, {"time": 1352, "pitch": 63, "duration": 5, "velocity": 127}, {"time": 1355, "pitch": 59, "duration": 3, "velocity": 122}, {"time": 1358, "pitch": 40, "duration": 22, "velocity": 97}, {"time": 1361, "pitch": 47, "duration": 21, "velocity": 83}, {"time": 1364, "pitch": 52, "duration": 7, "velocity": 95}, {"time": 1367, "pitch": 64, "duration": 4, "velocity": 112}, {"time": 1370, "pitch": 69, "duration": 6, "velocity": 127}, {"time": 1373, "pitch": 52, "duration": 2, "velocity": 100}, {"time": 1376, "pitch": 71, "duration": 6, "velocity": 117}, {"time": 1379, "pitch": 64, "duration": 3, "velocity": 73}, {"time": 1382, "pitch": 40, "duration": 18, "velocity": 78}, {"time": 1385, "pitch": 47, "duration": 16, "velocity": 90}, {"time": 1388, "pitch": 52, "duration": 18, "velocity": 100}, {"time": 1391, "pitch": 56, "duration": 5, "velocity": 102}, {"time": 1394, "pitch": 59, "duration": 3, "velocity": 78}, {"time": 1397, "pitch": 64, "duration": 8, "velocity": 96}, {"time": 1400, "pitch": 56, "duration": 4, "velocity": 117}, {"time": 1403, "pitch": 59, "duration": 2, "velocity": 75}, {"time": 1406, "pitch": 45, "duration": 22, "velocity": 75}, {"time": 1409, "pitch": 52, "duration": 10, "velocity": 82}, {"time": 1412, "pitch": 57, "duration": 4, "velocity": 97}, {"time": 1415, "pitch": 60, "duration": 2, "velocity": 117}, {"time": 1418, "pitch": 64, "duration": 11, "velocity": 117}, {"time": 1421, "pitch": 52, "duration": 8, "velocity": 96}, {"time": 1424, "pitch": 60, "duration": 5, "velocity": 93}, {"time": 1427, "pitch": 57, "duration": 2, "velocity": 95}, {"time": 1430, "pitch": 45, "duration": 17, "velocity": 71}, {"time": 1433, "pitch": 52, "duration": 11, "velocity": 61}, {"time": 1436, "pitch": 57, "duration": 5, "velocity": 89}, {"time": 1439, "pitch": 64, "duration": 4, "velocity": 92}, {"time": 1442, "pitch": 72, "duration": 10, "velocity": 127}, {"time": 1445, "pitch": 52, "duration": 2, "velocity": 74}, {"time": 1448, "pitch": 69, "duration": 5, "velocity": 86}, {"time": 1451, "pitch": 64, "duration": 3, "velocity": 93}, {"time": 1454, "pitch": 36, "duration": 15, "velocity": 97}, {"time": 1457, "pitch": 43, "duration": 13, "velocity": 88}, {"time": 1460, "pitch": 48, "duration": 7, "velocity": 96}, {"time": 1463, "pitch": 60, "duration": 4, "velocity": 100}, {"time": 1466, "pitch": 67, "duration": 10, "velocity": 117}, {"time": 1469, "pitch": 48, "duration": 3, "velocity": 85}, {"time": 1472, "pitch": 64, "duration": 4, "velocity": 102}, {"time": 1475, "pitch": 60, "duration": 3, "velocity": 107}, {"time": 1478, "pitch": 47, "duration": 16, "velocity": 75}, {"time": 1481, "pitch": 50, "duration": 14, "velocity": 68}, {"time": 1484, "pitch": 54, "duration": 7, "velocity": 100}, {"time": 1487, "pitch": 59, "duration": 4, "velocity": 95}, {"time": 1490, "pitch": 66, "duration": 8, "velocity": 127}, {"time": 1493, "pitch": 54, "duration": 2, "velocity": 102}, {"time": 1496, "pitch": 62, "duration": 4, "velocity": 102}, {"time": 1499, "pitch": 59, "duration": 4, "velocity": 92}, {"time": 1502, "pitch": 40, "duration": 22, "velocity": 90}, {"time": 1505, "pitch": 47, "duration": 22, "velocity": 65}, {"time": 1508, "pitch": 52, "duration": 6, "velocity": 90}, {"time": 1511, "pitch": 59, "duration": 16, "velocity": 85}, {"time": 1514, "pitch": 67, "duration": 13, "velocity": 99}, {"time": 1517, "pitch": 52, "duration": 2, "velocity": 85}, {"time": 1520, "pitch": 66, "duration": 7, "velocity": 86}, {"time": 1523, "pitch": 64, "duration": 4, "velocity": 67}, {"time": 1526, "pitch": 40, "duration": 22, "velocity": 86}, {"time": 1529, "pitch": 47, "duration": 20, "velocity": 86}, {"time": 1532, "pitch": 52, "duration": 7, "velocity": 85}, {"time": 1535, "pitch": 59, "duration": 7, "velocity": 100}, {"time": 1538, "pitch": 67, "duration": 11, "velocity": 117}, {"time": 1541, "pitch": 52, "duration": 2, "velocity": 97}, {"time": 1544, "pitch": 64, "duration": 5, "velocity": 100}, {"time": 1547, "pitch": 59, "duration": 3, "velocity": 100}, {"time": 1550, "pitch": 45, "duration": 22, "velocity": 100}, {"time": 1553, "pitch": 52, "duration": 21, "velocity": 97}, {"time": 1556, "pitch": 57, "duration": 6, "velocity": 99}, {"time": 1559, "pitch": 60, "duration": 4, "velocity": 107}, {"time": 1562, "pitch": 69, "duration": 11, "velocity": 122}, {"time": 1565, "pitch": 57, "duration": 2, "velocity": 107}, {"time": 1568, "pitch": 64, "duration": 6, "velocity": 89}, {"time": 1571, "pitch": 60, "duration": 3, "velocity": 107}, {"time": 1574, "pitch": 45, "duration": 17, "velocity": 75}, {"time": 1577, "pitch": 52, "duration": 10, "velocity": 69}, {"time": 1580, "pitch": 57, "duration": 3, "velocity": 99}, {"time": 1583, "pitch": 60, "duration": 4, "velocity": 100}, {"time": 1586, "pitch": 69, "duration": 9, "velocity": 122}, {"time": 1589, "pitch": 52, "duration": 2, "velocity": 100}, {"time": 1592, "pitch": 64, "duration": 4, "velocity": 107}, {"time": 1595, "pitch": 60, "duration": 3, "velocity": 122}, {"time": 1598, "pitch": 36, "duration": 18, "velocity": 79}, {"time": 1601, "pitch": 43, "duration": 15, "velocity": 83}, {"time": 1604, "pitch": 48, "duration": 7, "velocity": 112}, {"time": 1607, "pitch": 60, "duration": 3, "velocity": 107}, {"time": 1610, "pitch": 67, "duration": 10, "velocity": 127}, {"time": 1613, "pitch": 48, "duration": 7, "velocity": 102}, {"time": 1616, "pitch": 64, "duration": 4, "velocity": 127}, {"time": 1619, "pitch": 60, "duration": 3, "velocity": 107}, {"time": 1622, "pitch": 47, "duration": 17, "velocity": 93}, {"time": 1625, "pitch": 54, "duration": 10, "velocity": 100}, {"time": 1628, "pitch": 59, "duration": 4, "velocity": 96}, {"time": 1631, "pitch": 62, "duration": 3, "velocity": 122}, {"time": 1634, "pitch": 66, "duration": 10, "velocity": 127}, {"time": 1637, "pitch": 54, "duration": 2, "velocity": 96}, {"time": 1640, "pitch": 62, "duration": 4, "velocity": 112}, {"time": 1643, "pitch": 59, "duration": 3, "velocity": 100}, {"time": 1646, "pitch": 40, "duration": 22, "velocity": 90}, {"time": 1652, "pitch": 47, "duration": 8, "velocity": 85}, {"time": 1658, "pitch": 52, "duration": 6, "velocity": 95}, {"time": 1658, "pitch": 64, "duration": 11, "velocity": 96}, {"time": 1664, "pitch": 47, "duration": 7, "velocity": 90}, {"time": 1664, "pitch": 59, "duration": 7, "velocity": 66}, {"time": 1670, "pitch": 40, "duration": 18, "velocity": 81}, {"time": 1670, "pitch": 64, "duration": 7, "velocity": 79}, {"time": 1670, "pitch": 67, "duration": 14, "velocity": 92}, {"time": 1676, "pitch": 47, "duration": 9, "velocity": 71}, {"time": 1682, "pitch": 52, "duration": 6, "velocity": 81}, {"time": 1682, "pitch": 64, "duration": 12, "velocity": 122}, {"time": 1688, "pitch": 47, "duration": 1, "velocity": 74}, {"time": 1688, "pitch": 59, "duration": 6, "velocity": 90}, {"time": 1694, "pitch": 45, "duration": 28, "velocity": 81}, {"time": 1700, "pitch": 52, "duration": 9, "velocity": 86}, {"time": 1706, "pitch": 61, "duration": 12, "velocity": 127}, {"time": 1706, "pitch": 64, "duration": 13, "velocity": 96}, {"time": 1712, "pitch": 52, "duration": 12, "velocity": 90}, {"time": 1718, "pitch": 57, "duration": 12, "velocity": 99}, {"time": 1724, "pitch": 45, "duration": 11, "velocity": 90}, {"time": 1730, "pitch": 61, "duration": 11, "velocity": 102}, {"time": 1730, "pitch": 64, "duration": 11, "velocity": 93}, {"time": 1733, "pitch": 52, "duration": 2, "velocity": 79}, {"time": 1736, "pitch": 57, "duration": 6, "velocity": 107}, {"time": 1742, "pitch": 42, "duration": 38, "velocity": 107}, {"time": 1748, "pitch": 54, "duration": 8, "velocity": 82}, {"time": 1754, "pitch": 57, "duration": 10, "velocity": 92}, {"time": 1754, "pitch": 62, "duration": 6, "velocity": 102}, {"time": 1754, "pitch": 66, "duration": 8, "velocity": 102}, {"time": 1760, "pitch": 54, "duration": 7, "velocity": 58}, {"time": 1766, "pitch": 62, "duration": 10, "velocity": 107}, {"time": 1766, "pitch": 66, "duration": 9, "velocity": 122}, {"time": 1772, "pitch": 54, "duration": 8, "velocity": 93}, {"time": 1778, "pitch": 66, "duration": 10, "velocity": 127}, {"time": 1784, "pitch": 62, "duration": 5, "velocity": 100}, {"time": 1790, "pitch": 43, "duration": 17, "velocity": 86}, {"time": 1796, "pitch": 50, "duration": 11, "velocity": 58}, {"time": 1802, "pitch": 55, "duration": 8, "velocity": 83}, {"time": 1802, "pitch": 71, "duration": 11, "velocity": 112}, {"time": 1808, "pitch": 67, "duration": 6, "velocity": 85}, {"time": 1814, "pitch": 47, "duration": 18, "velocity": 74}, {"time": 1817, "pitch": 54, "duration": 10, "velocity": 93}, {"time": 1820, "pitch": 59, "duration": 6, "velocity": 97}, {"time": 1823, "pitch": 63, "duration": 4, "velocity": 102}, {"time": 1826, "pitch": 66, "duration": 12, "velocity": 122}, {"time": 1829, "pitch": 54, "duration": 2, "velocity": 86}, {"time": 1832, "pitch": 63, "duration": 6, "velocity": 92}, {"time": 1838, "pitch": 40, "duration": 23, "velocity": 86}, {"time": 1838, "pitch": 64, "duration": 10, "velocity": 78}, {"time": 1844, "pitch": 47, "duration": 8, "velocity": 40}, {"time": 1850, "pitch": 52, "duration": 6, "velocity": 78}, {"time": 1850, "pitch": 69, "duration": 10, "velocity": 117}, {"time": 1850, "pitch": 71, "duration": 10, "velocity": 112}, {"time": 1856, "pitch": 47, "duration": 6, "velocity": 40}, {"time": 1862, "pitch": 44, "duration": 6, "velocity": 85}, {"time": 1862, "pitch": 68, "duration": 10, "velocity": 127}, {"time": 1862, "pitch": 71, "duration": 10, "velocity": 97}, {"time": 1868, "pitch": 64, "duration": 7, "velocity": 79}, {"time": 1874, "pitch": 68, "duration": 11, "velocity": 127}, {"time": 1874, "pitch": 71, "duration": 11, "velocity": 112}, {"time": 1880, "pitch": 64, "duration": 5, "velocity": 83}, {"time": 1886, "pitch": 45, "duration": 41, "velocity": 90}, {"time": 1892, "pitch": 52, "duration": 6, "velocity": 63}, {"time": 1898, "pitch": 57, "duration": 6, "velocity": 73}, {"time": 1904, "pitch": 52, "duration": 9, "velocity": 90}, {"time": 1910, "pitch": 64, "duration": 24, "velocity": 122}, {"time": 1916, "pitch": 52, "duration": 7, "velocity": 93}, {"time": 1922, "pitch": 60, "duration": 12, "velocity": 127}, {"time": 1925, "pitch": 52, "duration": 2, "velocity": 75}, {"time": 1928, "pitch": 57, "duration": 4, "velocity": 93}, {"time": 1934, "pitch": 48, "duration": 16, "velocity": 93}, {"time": 1940, "pitch": 55, "duration": 8, "velocity": 89}, {"time": 1946, "pitch": 67, "duration": 11, "velocity": 112}, {"time": 1952, "pitch": 64, "duration": 6, "velocity": 96}, {"time": 1958, "pitch": 47, "duration": 16, "velocity": 82}, {"time": 1964, "pitch": 54, "duration": 7, "velocity": 85}, {"time": 1970, "pitch": 66, "duration": 10, "velocity": 127}, {"time": 1976, "pitch": 62, "duration": 6, "velocity": 95}, {"time": 1982, "pitch": 40, "duration": 22, "velocity": 81}, {"time": 1988, "pitch": 47, "duration": 8, "velocity": 55}, {"time": 1994, "pitch": 52, "duration": 5, "velocity": 35}, {"time": 1994, "pitch": 69, "duration": 11, "velocity": 100}, {"time": 1994, "pitch": 71, "duration": 11, "velocity": 102}, {"time": 2000, "pitch": 47, "duration": 6, "velocity": 56}, {"time": 2006, "pitch": 40, "duration": 21, "velocity": 88}, {"time": 2006, "pitch": 64, "duration": 11, "velocity": 90}, {"time": 2006, "pitch": 68, "duration": 11, "velocity": 95}, {"time": 2006, "pitch": 71, "duration": 11, "velocity": 77}, {"time": 2015, "pitch": 47, "duration": 4, "velocity": 59}, {"time": 2018, "pitch": 68, "duration": 7, "velocity": 127}, {"time": 2018, "pitch": 71, "duration": 11, "velocity": 112}, {"time": 2021, "pitch": 47, "duration": 9, "velocity": 100}, {"time": 2024, "pitch": 64, "duration": 6, "velocity": 93}, {"time": 2030, "pitch": 40, "duration": 18, "velocity": 97}, {"time": 2036, "pitch": 47, "duration": 7, "velocity": 70}, {"time": 2042, "pitch": 52, "duration": 6, "velocity": 85}, {"time": 2042, "pitch": 59, "duration": 11, "velocity": 117}, {"time": 2048, "pitch": 47, "duration": 1, "velocity": 78}, {"time": 2048, "pitch": 55, "duration": 6, "velocity": 99}, {"time": 2054, "pitch": 45, "duration": 17, "velocity": 99}, {"time": 2060, "pitch": 52, "duration": 8, "velocity": 82}, {"time": 2066, "pitch": 64, "duration": 11, "velocity": 127}, {"time": 2069, "pitch": 52, "duration": 1, "velocity": 35}, {"time": 2072, "pitch": 61, "duration": 5, "velocity": 112}, {"time": 2078, "pitch": 36, "duration": 9, "velocity": 99}, {"time": 2084, "pitch": 60, "duration": 5, "velocity": 107}, {"time": 2090, "pitch": 38, "duration": 6, "velocity": 92}, {"time": 2096, "pitch": 62, "duration": 6, "velocity": 100}, {"time": 2102, "pitch": 40, "duration": 22, "velocity": 82}, {"time": 2105, "pitch": 47, "duration": 10, "velocity": 82}, {"time": 2108, "pitch": 52, "duration": 5, "velocity": 96}, {"time": 2111, "pitch": 55, "duration": 3, "velocity": 107}, {"time": 2114, "pitch": 59, "duration": 7, "velocity": 102}, {"time": 2117, "pitch": 47, "duration": 9, "velocity": 95}, {"time": 2120, "pitch": 55, "duration": 5, "velocity": 97}, {"time": 2123, "pitch": 59, "duration": 3, "velocity": 55}, {"time": 2126, "pitch": 40, "duration": 16, "velocity": 97}, {"time": 2132, "pitch": 47, "duration": 8, "velocity": 37}, {"time": 2138, "pitch": 52, "duration": 6, "velocity": 93}, {"time": 2138, "pitch": 67, "duration": 12, "velocity": 117}, {"time": 2144, "pitch": 64, "duration": 6, "velocity": 95}, {"time": 2147, "pitch": 59, "duration": 3, "velocity": 78}, {"time": 2150, "pitch": 45, "duration": 17, "velocity": 88}, {"time": 2156, "pitch": 52, "duration": 7, "velocity": 78}, {"time": 2162, "pitch": 64, "duration": 18, "velocity": 117}, {"time": 2165, "pitch": 52, "duration": 2, "velocity": 88}, {"time": 2168, "pitch": 61, "duration": 4, "velocity": 112}, {"time": 2171, "pitch": 57, "duration": 2, "velocity": 82}, {"time": 2174, "pitch": 36, "duration": 11, "velocity": 93}, {"time": 2180, "pitch": 60, "duration": 5, "velocity": 107}, {"time": 2186, "pitch": 38, "duration": 3, "velocity": 72}, {"time": 2186, "pitch": 62, "duration": 11, "velocity": 102}, {"time": 2186, "pitch": 66, "duration": 10, "velocity": 117}, {"time": 2192, "pitch": 57, "duration": 6, "velocity": 95}, {"time": 2198, "pitch": 43, "duration": 13, "velocity": 78}, {"time": 2204, "pitch": 55, "duration": 3, "velocity": 95}, {"time": 2210, "pitch": 47, "duration": 6, "velocity": 70}, {"time": 2210, "pitch": 59, "duration": 2, "velocity": 79}, {"time": 2210, "pitch": 63, "duration": 11, "velocity": 107}, {"time": 2210, "pitch": 66, "duration": 11, "velocity": 107}, {"time": 2216, "pitch": 59, "duration": 10, "velocity": 76}, {"time": 2222, "pitch": 40, "duration": 14, "velocity": 93}, {"time": 2228, "pitch": 47, "duration": 9, "velocity": 77}, {"time": 2231, "pitch": 59, "duration": 2, "velocity": 27}, {"time": 2234, "pitch": 67, "duration": 12, "velocity": 122}, {"time": 2240, "pitch": 64, "duration": 6, "velocity": 92}, {"time": 2243, "pitch": 59, "duration": 4, "velocity": 96}, {"time": 2246, "pitch": 45, "duration": 17, "velocity": 78}, {"time": 2252, "pitch": 52, "duration": 7, "velocity": 69}, {"time": 2258, "pitch": 64, "duration": 13, "velocity": 127}, {"time": 2261, "pitch": 52, "duration": 2, "velocity": 92}, {"time": 2264, "pitch": 61, "duration": 4, "velocity": 99}, {"time": 2267, "pitch": 57, "duration": 3, "velocity": 95}, {"time": 2270, "pitch": 36, "duration": 10, "velocity": 95}, {"time": 2273, "pitch": 55, "duration": 7, "velocity": 95}, {"time": 2276, "pitch": 64, "duration": 5, "velocity": 99}, {"time": 2279, "pitch": 60, "duration": 5, "velocity": 112}, {"time": 2282, "pitch": 38, "duration": 7, "velocity": 85}, {"time": 2285, "pitch": 57, "duration": 4, "velocity": 89}, {"time": 2288, "pitch": 62, "duration": 5, "velocity": 107}, {"time": 2291, "pitch": 57, "duration": 3, "velocity": 90}, {"time": 2294, "pitch": 40, "duration": 21, "velocity": 74}, {"time": 2297, "pitch": 47, "duration": 22, "velocity": 61}, {"time": 2300, "pitch": 52, "duration": 7, "velocity": 73}, {"time": 2303, "pitch": 59, "duration": 5, "velocity": 99}, {"time": 2306, "pitch": 67, "duration": 7, "velocity": 112}, {"time": 2309, "pitch": 52, "duration": 3, "velocity": 85}, {"time": 2309, "pitch": 66, "duration": 7, "velocity": 122}, {"time": 2312, "pitch": 64, "duration": 4, "velocity": 79}, {"time": 2315, "pitch": 62, "duration": 4, "velocity": 83}, {"time": 2318, "pitch": 40, "duration": 17, "velocity": 77}, {"time": 2318, "pitch": 64, "duration": 10, "velocity": 55}, {"time": 2321, "pitch": 47, "duration": 14, "velocity": 77}, {"time": 2324, "pitch": 52, "duration": 7, "velocity": 78}, {"time": 2327, "pitch": 59, "duration": 4, "velocity": 81}, {"time": 2330, "pitch": 67, "duration": 11, "velocity": 112}, {"time": 2333, "pitch": 52, "duration": 3, "velocity": 79}, {"time": 2336, "pitch": 64, "duration": 5, "velocity": 97}, {"time": 2339, "pitch": 59, "duration": 3, "velocity": 96}, {"time": 2342, "pitch": 45, "duration": 19, "velocity": 72}, {"time": 2348, "pitch": 52, "duration": 7, "velocity": 86}, {"time": 2354, "pitch": 64, "duration": 14, "velocity": 122}, {"time": 2357, "pitch": 52, "duration": 2, "velocity": 96}, {"time": 2360, "pitch": 61, "duration": 4, "velocity": 112}, {"time": 2363, "pitch": 57, "duration": 3, "velocity": 88}, {"time": 2366, "pitch": 48, "duration": 11, "velocity": 99}, {"time": 2369, "pitch": 55, "duration": 7, "velocity": 97}, {"time": 2369, "pitch": 64, "duration": 1, "velocity": 36}, {"time": 2372, "pitch": 60, "duration": 6, "velocity": 112}, {"time": 2375, "pitch": 64, "duration": 3, "velocity": 85}, {"time": 2378, "pitch": 50, "duration": 12, "velocity": 100}, {"time": 2381, "pitch": 57, "duration": 7, "velocity": 81}, {"time": 2384, "pitch": 66, "duration": 5, "velocity": 117}, {"time": 2387, "pitch": 62, "duration": 3, "velocity": 102}, {"time": 2390, "pitch": 43, "duration": 11, "velocity": 71}, {"time": 2393, "pitch": 50, "duration": 8, "velocity": 93}, {"time": 2396, "pitch": 55, "duration": 3, "velocity": 97}, {"time": 2399, "pitch": 59, "duration": 1, "velocity": 100}, {"time": 2402, "pitch": 47, "duration": 8, "velocity": 99}, {"time": 2405, "pitch": 59, "duration": 7, "velocity": 107}, {"time": 2408, "pitch": 63, "duration": 5, "velocity": 117}, {"time": 2411, "pitch": 66, "duration": 3, "velocity": 127}, {"time": 2414, "pitch": 40, "duration": 20, "velocity": 97}, {"time": 2417, "pitch": 47, "duration": 21, "velocity": 102}, {"time": 2420, "pitch": 52, "duration": 7, "velocity": 107}, {"time": 2423, "pitch": 64, "duration": 5, "velocity": 112}, {"time": 2426, "pitch": 71, "duration": 7, "velocity": 127}, {"time": 2429, "pitch": 52, "duration": 2, "velocity": 112}, {"time": 2432, "pitch": 69, "duration": 4, "velocity": 127}, {"time": 2435, "pitch": 71, "duration": 3, "velocity": 107}, {"time": 2438, "pitch": 40, "duration": 18, "velocity": 89}, {"time": 2438, "pitch": 68, "duration": 8, "velocity": 127}, {"time": 2441, "pitch": 47, "duration": 15, "velocity": 96}, {"time": 2444, "pitch": 52, "duration": 7, "velocity": 107}, {"time": 2447, "pitch": 64, "duration": 5, "velocity": 89}, {"time": 2450, "pitch": 71, "duration": 10, "velocity": 127}, {"time": 2453, "pitch": 52, "duration": 8, "velocity": 122}, {"time": 2456, "pitch": 68, "duration": 4, "velocity": 127}, {"time": 2459, "pitch": 64, "duration": 3, "velocity": 112}, {"time": 2462, "pitch": 45, "duration": 22, "velocity": 85}, {"time": 2465, "pitch": 52, "duration": 21, "velocity": 92}, {"time": 2468, "pitch": 57, "duration": 6, "velocity": 112}, {"time": 2471, "pitch": 64, "duration": 7, "velocity": 102}, {"time": 2474, "pitch": 72, "duration": 9, "velocity": 127}, {"time": 2477, "pitch": 57, "duration": 3, "velocity": 100}, {"time": 2480, "pitch": 64, "duration": 2, "velocity": 35}, {"time": 2480, "pitch": 71, "duration": 5, "velocity": 122}, {"time": 2483, "pitch": 69, "duration": 3, "velocity": 93}, {"time": 2486, "pitch": 45, "duration": 17, "velocity": 88}, {"time": 2489, "pitch": 52, "duration": 10, "velocity": 92}, {"time": 2492, "pitch": 57, "duration": 3, "velocity": 100}, {"time": 2495, "pitch": 60, "duration": 3, "velocity": 122}, {"time": 2498, "pitch": 64, "duration": 8, "velocity": 122}, {"time": 2501, "pitch": 52, "duration": 2, "velocity": 97}, {"time": 2504, "pitch": 60, "duration": 3, "velocity": 127}, {"time": 2507, "pitch": 57, "duration": 3, "velocity": 102}, {"time": 2510, "pitch": 38, "duration": 20, "velocity": 95}, {"time": 2513, "pitch": 45, "duration": 21, "velocity": 100}, {"time": 2516, "pitch": 50, "duration": 6, "velocity": 102}, {"time": 2519, "pitch": 57, "duration": 6, "velocity": 112}, {"time": 2522, "pitch": 66, "duration": 11, "velocity": 127}, {"time": 2525, "pitch": 50, "duration": 2, "velocity": 100}, {"time": 2528, "pitch": 62, "duration": 6, "velocity": 127}, {"time": 2531, "pitch": 57, "duration": 4, "velocity": 107}, {"time": 2534, "pitch": 38, "duration": 17, "velocity": 82}, {"time": 2537, "pitch": 45, "duration": 14, "velocity": 81}, {"time": 2540, "pitch": 50, "duration": 7, "velocity": 92}, {"time": 2543, "pitch": 57, "duration": 4, "velocity": 100}, {"time": 2546, "pitch": 66, "duration": 8, "velocity": 127}, {"time": 2549, "pitch": 50, "duration": 7, "velocity": 96}, {"time": 2552, "pitch": 62, "duration": 6, "velocity": 107}, {"time": 2555, "pitch": 57, "duration": 3, "velocity": 99}, {"time": 2558, "pitch": 43, "duration": 17, "velocity": 82}, {"time": 2561, "pitch": 50, "duration": 14, "velocity": 93}, {"time": 2564, "pitch": 55, "duration": 7, "velocity": 107}, {"time": 2567, "pitch": 59, "duration": 4, "velocity": 100}, {"time": 2570, "pitch": 67, "duration": 10, "velocity": 122}, {"time": 2573, "pitch": 55, "duration": 6, "velocity": 102}, {"time": 2576, "pitch": 62, "duration": 4, "velocity": 99}, {"time": 2579, "pitch": 59, "duration": 3, "velocity": 107}, {"time": 2582, "pitch": 47, "duration": 18, "velocity": 79}, {"time": 2585, "pitch": 54, "duration": 10, "velocity": 112}, {"time": 2588, "pitch": 59, "duration": 4, "velocity": 112}, {"time": 2591, "pitch": 63, "duration": 3, "velocity": 127}, {"time": 2594, "pitch": 66, "duration": 10, "velocity": 127}, {"time": 2597, "pitch": 54, "duration": 2, "velocity": 117}, {"time": 2600, "pitch": 63, "duration": 6, "velocity": 127}, {"time": 2603, "pitch": 59, "duration": 4, "velocity": 96}, {"time": 2606, "pitch": 40, "duration": 22, "velocity": 77}, {"time": 2609, "pitch": 47, "duration": 21, "velocity": 93}, {"time": 2612, "pitch": 50, "duration": 1, "velocity": 70}, {"time": 2612, "pitch": 52, "duration": 7, "velocity": 79}, {"time": 2615, "pitch": 64, "duration": 6, "velocity": 99}, {"time": 2618, "pitch": 69, "duration": 5, "velocity": 127}, {"time": 2621, "pitch": 52, "duration": 3, "velocity": 102}, {"time": 2624, "pitch": 64, "duration": 3, "velocity": 35}, {"time": 2624, "pitch": 71, "duration": 5, "velocity": 112}, {"time": 2627, "pitch": 68, "duration": 13, "velocity": 127}, {"time": 2630, "pitch": 40, "duration": 16, "velocity": 97}, {"time": 2633, "pitch": 47, "duration": 14, "velocity": 97}, {"time": 2636, "pitch": 52, "duration": 7, "velocity": 107}, {"time": 2639, "pitch": 64, "duration": 5, "velocity": 102}, {"time": 2642, "pitch": 71, "duration": 10, "velocity": 117}, {"time": 2645, "pitch": 52, "duration": 7, "velocity": 102}, {"time": 2648, "pitch": 68, "duration": 4, "velocity": 127}, {"time": 2651, "pitch": 64, "duration": 10, "velocity": 107}, {"time": 2654, "pitch": 45, "duration": 22, "velocity": 90}, {"time": 2657, "pitch": 52, "duration": 22, "velocity": 88}, {"time": 2660, "pitch": 57, "duration": 6, "velocity": 102}, {"time": 2663, "pitch": 64, "duration": 5, "velocity": 102}, {"time": 2666, "pitch": 72, "duration": 11, "velocity": 127}, {"time": 2669, "pitch": 57, "duration": 3, "velocity": 99}, {"time": 2672, "pitch": 69, "duration": 14, "velocity": 100}, {"time": 2675, "pitch": 64, "duration": 10, "velocity": 102}, {"time": 2678, "pitch": 45, "duration": 19, "velocity": 83}, {"time": 2681, "pitch": 52, "duration": 20, "velocity": 79}, {"time": 2684, "pitch": 57, "duration": 7, "velocity": 97}, {"time": 2687, "pitch": 64, "duration": 4, "velocity": 100}, {"time": 2690, "pitch": 72, "duration": 11, "velocity": 127}, {"time": 2693, "pitch": 57, "duration": 3, "velocity": 102}, {"time": 2696, "pitch": 69, "duration": 5, "velocity": 96}, {"time": 2699, "pitch": 64, "duration": 3, "velocity": 99}, {"time": 2702, "pitch": 48, "duration": 18, "velocity": 83}, {"time": 2705, "pitch": 55, "duration": 10, "velocity": 93}, {"time": 2708, "pitch": 60, "duration": 3, "velocity": 99}, {"time": 2711, "pitch": 64, "duration": 2, "velocity": 127}, {"time": 2714, "pitch": 67, "duration": 6, "velocity": 122}, {"time": 2717, "pitch": 55, "duration": 2, "velocity": 112}, {"time": 2720, "pitch": 64, "duration": 5, "velocity": 117}, {"time": 2723, "pitch": 67, "duration": 3, "velocity": 95}, {"time": 2726, "pitch": 47, "duration": 17, "velocity": 92}, {"time": 2729, "pitch": 54, "duration": 10, "velocity": 95}, {"time": 2732, "pitch": 59, "duration": 4, "velocity": 93}, {"time": 2735, "pitch": 62, "duration": 2, "velocity": 122}, {"time": 2738, "pitch": 66, "duration": 11, "velocity": 122}, {"time": 2741, "pitch": 54, "duration": 2, "velocity": 117}, {"time": 2744, "pitch": 62, "duration": 4, "velocity": 102}, {"time": 2747, "pitch": 59, "duration": 3, "velocity": 99}, {"time": 2750, "pitch": 40, "duration": 23, "velocity": 76}, {"time": 2753, "pitch": 47, "duration": 21, "velocity": 78}, {"time": 2756, "pitch": 52, "duration": 7, "velocity": 95}, {"time": 2759, "pitch": 59, "duration": 4, "velocity": 90}, {"time": 2762, "pitch": 67, "duration": 5, "velocity": 127}, {"time": 2765, "pitch": 52, "duration": 3, "velocity": 102}, {"time": 2768, "pitch": 67, "duration": 4, "velocity": 117}, {"time": 2771, "pitch": 66, "duration": 2, "velocity": 117}, {"time": 2774, "pitch": 40, "duration": 4, "velocity": 64}, {"time": 2774, "pitch": 47, "duration": 4, "velocity": 81}, {"time": 2774, "pitch": 52, "duration": 4, "velocity": 97}, {"time": 2774, "pitch": 64, "duration": 4, "velocity": 122}, {"time": 2774, "pitch": 68, "duration": 4, "velocity": 127}, {"time": 2774, "pitch": 71, "duration": 4, "velocity": 127}, {"time": 2798, "pitch": 45, "duration": 41, "velocity": 66}, {"time": 2798, "pitch": 52, "duration": 41, "velocity": 81}, {"time": 2798, "pitch": 57, "duration": 17, "velocity": 99}, {"time": 2798, "pitch": 64, "duration": 12, "velocity": 99}, {"time": 2798, "pitch": 69, "duration": 12, "velocity": 100}, {"time": 2798, "pitch": 71, "duration": 12, "velocity": 99}, {"time": 2810, "pitch": 64, "duration": 10, "velocity": 112}, {"time": 2810, "pitch": 69, "duration": 10, "velocity": 122}, {"time": 2810, "pitch": 71, "duration": 9, "velocity": 112}, {"time": 2816, "pitch": 57, "duration": 9, "velocity": 77}, {"time": 2822, "pitch": 64, "duration": 9, "velocity": 117}, {"time": 2822, "pitch": 69, "duration": 9, "velocity": 117}, {"time": 2822, "pitch": 71, "duration": 9, "velocity": 117}, {"time": 2828, "pitch": 57, "duration": 8, "velocity": 112}, {"time": 2834, "pitch": 69, "duration": 7, "velocity": 127}, {"time": 2834, "pitch": 71, "duration": 7, "velocity": 127}, {"time": 2837, "pitch": 57, "duration": 1, "velocity": 107}, {"time": 2840, "pitch": 64, "duration": 4, "velocity": 122}, {"time": 2843, "pitch": 71, "duration": 2, "velocity": 25}, {"time": 2846, "pitch": 40, "duration": 21, "velocity": 85}, {"time": 2846, "pitch": 64, "duration": 10, "velocity": 122}, {"time": 2846, "pitch": 68, "duration": 10, "velocity": 122}, {"time": 2846, "pitch": 71, "duration": 10, "velocity": 100}, {"time": 2852, "pitch": 47, "duration": 8, "velocity": 55}, {"time": 2858, "pitch": 52, "duration": 6, "velocity": 93}, {"time": 2858, "pitch": 64, "duration": 10, "velocity": 100}, {"time": 2858, "pitch": 68, "duration": 10, "velocity": 127}, {"time": 2858, "pitch": 71, "duration": 9, "velocity": 107}, {"time": 2864, "pitch": 47, "duration": 6, "velocity": 83}, {"time": 2870, "pitch": 40, "duration": 18, "velocity": 95}, {"time": 2870, "pitch": 68, "duration": 8, "velocity": 127}, {"time": 2870, "pitch": 71, "duration": 8, "velocity": 127}, {"time": 2873, "pitch": 47, "duration": 15, "velocity": 96}, {"time": 2876, "pitch": 52, "duration": 7, "velocity": 117}, {"time": 2879, "pitch": 64, "duration": 5, "velocity": 127}, {"time": 2882, "pitch": 71, "duration": 12, "velocity": 127}, {"time": 2885, "pitch": 52, "duration": 7, "velocity": 102}, {"time": 2888, "pitch": 68, "duration": 6, "velocity": 127}, {"time": 2891, "pitch": 64, "duration": 3, "velocity": 122}, {"time": 2894, "pitch": 45, "duration": 22, "velocity": 93}, {"time": 2897, "pitch": 52, "duration": 10, "velocity": 99}, {"time": 2900, "pitch": 57, "duration": 4, "velocity": 107}, {"time": 2903, "pitch": 60, "duration": 4, "velocity": 127}, {"time": 2906, "pitch": 64, "duration": 12, "velocity": 112}, {"time": 2909, "pitch": 52, "duration": 9, "velocity": 90}, {"time": 2912, "pitch": 60, "duration": 6, "velocity": 92}, {"time": 2915, "pitch": 59, "duration": 3, "velocity": 83}, {"time": 2918, "pitch": 45, "duration": 17, "velocity": 90}, {"time": 2921, "pitch": 52, "duration": 14, "velocity": 90}, {"time": 2924, "pitch": 57, "duration": 7, "velocity": 89}, {"time": 2927, "pitch": 64, "duration": 5, "velocity": 92}, {"time": 2930, "pitch": 72, "duration": 6, "velocity": 127}, {"time": 2933, "pitch": 57, "duration": 2, "velocity": 100}, {"time": 2936, "pitch": 69, "duration": 6, "velocity": 107}, {"time": 2939, "pitch": 72, "duration": 3, "velocity": 107}, {"time": 2942, "pitch": 57, "duration": 10, "velocity": 93}, {"time": 2942, "pitch": 60, "duration": 10, "velocity": 99}, {"time": 2942, "pitch": 54, "duration": 15, "velocity": 100}, {"time": 2942, "pitch": 42, "duration": 15, "velocity": 122}, {"time": 2954, "pitch": 57, "duration": 8, "velocity": 100}, {"time": 2954, "pitch": 60, "duration": 10, "velocity": 112}, {"time": 2959, "pitch": 42, "duration": 7, "velocity": 112}, {"time": 2960, "pitch": 54, "duration": 5, "velocity": 117}, {"time": 2966, "pitch": 59, "duration": 10, "velocity": 95}, {"time": 2966, "pitch": 63, "duration": 10, "velocity": 127}, {"time": 2966, "pitch": 66, "duration": 10, "velocity": 107}, {"time": 2966, "pitch": 47, "duration": 4, "velocity": 117}, {"time": 2975, "pitch": 47, "duration": 2, "velocity": 90}, {"time": 2978, "pitch": 63, "duration": 11, "velocity": 122}, {"time": 2978, "pitch": 66, "duration": 11, "velocity": 117}, {"time": 2978, "pitch": 59, "duration": 11, "velocity": 96}, {"time": 2978, "pitch": 47, "duration": 4, "velocity": 102}, {"time": 2983, "pitch": 54, "duration": 6, "velocity": 72}, {"time": 2984, "pitch": 47, "duration": 6, "velocity": 117}, {"time": 2990, "pitch": 57, "duration": 7, "velocity": 79}, {"time": 2990, "pitch": 64, "duration": 11, "velocity": 112}, {"time": 2990, "pitch": 69, "duration": 11, "velocity": 127}, {"time": 2990, "pitch": 71, "duration": 11, "velocity": 127}, {"time": 2990, "pitch": 47, "duration": 15, "velocity": 127}, {"time": 2996, "pitch": 52, "duration": 7, "velocity": 49}, {"time": 3002, "pitch": 57, "duration": 14, "velocity": 96}, {"time": 3002, "pitch": 64, "duration": 10, "velocity": 117}, {"time": 3002, "pitch": 69, "duration": 10, "velocity": 102}, {"time": 3002, "pitch": 71, "duration": 10, "velocity": 127}, {"time": 3008, "pitch": 52, "duration": 22, "velocity": 58}, {"time": 3008, "pitch": 47, "duration": 2, "velocity": 102}, {"time": 3014, "pitch": 64, "duration": 10, "velocity": 117}, {"time": 3014, "pitch": 69, "duration": 7, "velocity": 117}, {"time": 3014, "pitch": 71, "duration": 7, "velocity": 112}, {"time": 3014, "pitch": 47, "duration": 2, "velocity": 112}, {"time": 3020, "pitch": 57, "duration": 7, "velocity": 96}, {"time": 3020, "pitch": 47, "duration": 13, "velocity": 112}, {"time": 3026, "pitch": 64, "duration": 1, "velocity": 95}, {"time": 3026, "pitch": 69, "duration": 7, "velocity": 127}, {"time": 3026, "pitch": 71, "duration": 7, "velocity": 117}, {"time": 3029, "pitch": 57, "duration": 2, "velocity": 99}, {"time": 3032, "pitch": 64, "duration": 5, "velocity": 127}, {"time": 3038, "pitch": 64, "duration": 6, "velocity": 112}, {"time": 3038, "pitch": 68, "duration": 8, "velocity": 117}, {"time": 3038, "pitch": 71, "duration": 8, "velocity": 97}, {"time": 3038, "pitch": 40, "duration": 15, "velocity": 112}, {"time": 3041, "pitch": 47, "duration": 21, "velocity": 102}, {"time": 3044, "pitch": 52, "duration": 7, "velocity": 100}, {"time": 3047, "pitch": 64, "duration": 4, "velocity": 100}, {"time": 3050, "pitch": 71, "duration": 11, "velocity": 127}, {"time": 3053, "pitch": 52, "duration": 4, "velocity": 117}, {"time": 3056, "pitch": 68, "duration": 5, "velocity": 127}, {"time": 3056, "pitch": 40, "duration": 3, "velocity": 117}, {"time": 3059, "pitch": 64, "duration": 3, "velocity": 100}, {"time": 3062, "pitch": 40, "duration": 3, "velocity": 127}, {"time": 3065, "pitch": 47, "duration": 14, "velocity": 93}, {"time": 3068, "pitch": 52, "duration": 7, "velocity": 97}, {"time": 3068, "pitch": 40, "duration": 10, "velocity": 122}, {"time": 3071, "pitch": 56, "duration": 4, "velocity": 112}, {"time": 3074, "pitch": 64, "duration": 12, "velocity": 88}, {"time": 3077, "pitch": 52, "duration": 7, "velocity": 99}, {"time": 3080, "pitch": 40, "duration": 6, "velocity": 117}, {"time": 3080, "pitch": 56, "duration": 4, "velocity": 112}, {"time": 3083, "pitch": 59, "duration": 3, "velocity": 86}, {"time": 3086, "pitch": 45, "duration": 23, "velocity": 83}, {"time": 3089, "pitch": 52, "duration": 21, "velocity": 97}, {"time": 3092, "pitch": 57, "duration": 7, "velocity": 102}, {"time": 3095, "pitch": 64, "duration": 7, "velocity": 102}, {"time": 3098, "pitch": 72, "duration": 10, "velocity": 127}, {"time": 3101, "pitch": 57, "duration": 2, "velocity": 112}, {"time": 3104, "pitch": 69, "duration": 14, "velocity": 107}, {"time": 3107, "pitch": 64, "duration": 10, "velocity": 102}, {"time": 3110, "pitch": 45, "duration": 18, "velocity": 86}, {"time": 3113, "pitch": 52, "duration": 19, "velocity": 95}, {"time": 3116, "pitch": 57, "duration": 7, "velocity": 112}, {"time": 3119, "pitch": 64, "duration": 4, "velocity": 107}, {"time": 3122, "pitch": 72, "duration": 11, "velocity": 127}, {"time": 3125, "pitch": 57, "duration": 2, "velocity": 102}, {"time": 3128, "pitch": 69, "duration": 5, "velocity": 127}, {"time": 3131, "pitch": 64, "duration": 2, "velocity": 122}, {"time": 3134, "pitch": 47, "duration": 22, "velocity": 90}, {"time": 3137, "pitch": 54, "duration": 10, "velocity": 117}, {"time": 3140, "pitch": 59, "duration": 5, "velocity": 107}, {"time": 3143, "pitch": 63, "duration": 4, "velocity": 127}, {"time": 3146, "pitch": 66, "duration": 6, "velocity": 127}, {"time": 3149, "pitch": 54, "duration": 8, "velocity": 122}, {"time": 3152, "pitch": 63, "duration": 5, "velocity": 127}, {"time": 3155, "pitch": 66, "duration": 2, "velocity": 97}, {"time": 3158, "pitch": 47, "duration": 3, "velocity": 122}, {"time": 3158, "pitch": 59, "duration": 4, "velocity": 100}, {"time": 3158, "pitch": 63, "duration": 4, "velocity": 127}, {"time": 3158, "pitch": 66, "duration": 3, "velocity": 100}, {"time": 3162, "pitch": 47, "duration": 2, "velocity": 100}, {"time": 3162, "pitch": 59, "duration": 2, "velocity": 88}, {"time": 3162, "pitch": 63, "duration": 3, "velocity": 89}, {"time": 3162, "pitch": 66, "duration": 2, "velocity": 92}, {"time": 3166, "pitch": 47, "duration": 2, "velocity": 122}, {"time": 3166, "pitch": 59, "duration": 2, "velocity": 97}, {"time": 3166, "pitch": 63, "duration": 3, "velocity": 107}, {"time": 3166, "pitch": 66, "duration": 2, "velocity": 122}, {"time": 3170, "pitch": 47, "duration": 2, "velocity": 127}, {"time": 3170, "pitch": 59, "duration": 2, "velocity": 93}, {"time": 3170, "pitch": 63, "duration": 3, "velocity": 117}, {"time": 3170, "pitch": 66, "duration": 3, "velocity": 127}, {"time": 3174, "pitch": 47, "duration": 2, "velocity": 127}, {"time": 3174, "pitch": 59, "duration": 3, "velocity": 93}, {"time": 3174, "pitch": 63, "duration": 3, "velocity": 122}, {"time": 3174, "pitch": 66, "duration": 3, "velocity": 122}, {"time": 3178, "pitch": 47, "duration": 3, "velocity": 127}, {"time": 3178, "pitch": 59, "duration": 3, "velocity": 99}, {"time": 3178, "pitch": 63, "duration": 3, "velocity": 117}, {"time": 3178, "pitch": 66, "duration": 3, "velocity": 122}, {"time": 3182, "pitch": 40, "duration": 22, "velocity": 107}, {"time": 3185, "pitch": 47, "duration": 22, "velocity": 102}, {"time": 3188, "pitch": 52, "duration": 8, "velocity": 95}, {"time": 3191, "pitch": 64, "duration": 5, "velocity": 102}, {"time": 3194, "pitch": 69, "duration": 8, "velocity": 100}, {"time": 3194, "pitch": 71, "duration": 8, "velocity": 127}, {"time": 3197, "pitch": 52, "duration": 3, "velocity": 122}, {"time": 3200, "pitch": 64, "duration": 5, "velocity": 122}, {"time": 3203, "pitch": 69, "duration": 2, "velocity": 47}, {"time": 3203, "pitch": 71, "duration": 2, "velocity": 68}, {"time": 3206, "pitch": 40, "duration": 16, "velocity": 102}, {"time": 3206, "pitch": 64, "duration": 1, "velocity": 77}, {"time": 3206, "pitch": 68, "duration": 1, "velocity": 117}, {"time": 3206, "pitch": 71, "duration": 2, "velocity": 102}, {"time": 3209, "pitch": 47, "duration": 11, "velocity": 100}, {"time": 3212, "pitch": 52, "duration": 3, "velocity": 112}, {"time": 3215, "pitch": 56, "duration": 2, "velocity": 127}, {"time": 3218, "pitch": 59, "duration": 10, "velocity": 127}, {"time": 3221, "pitch": 47, "duration": 1, "velocity": 112}, {"time": 3224, "pitch": 56, "duration": 4, "velocity": 127}, {"time": 3227, "pitch": 52, "duration": 2, "velocity": 93}, {"time": 3230, "pitch": 45, "duration": 22, "velocity": 90}, {"time": 3233, "pitch": 52, "duration": 21, "velocity": 112}, {"time": 3236, "pitch": 57, "duration": 7, "velocity": 117}, {"time": 3239, "pitch": 72, "duration": 2, "velocity": 107}, {"time": 3239, "pitch": 76, "duration": 2, "velocity": 122}, {"time": 3242, "pitch": 72, "duration": 5, "velocity": 117}, {"time": 3242, "pitch": 76, "duration": 5, "velocity": 127}, {"time": 3245, "pitch": 57, "duration": 2, "velocity": 127}, {"time": 3248, "pitch": 72, "duration": 2, "velocity": 77}, {"time": 3248, "pitch": 76, "duration": 1, "velocity": 74}, {"time": 3251, "pitch": 69, "duration": 3, "velocity": 127}, {"time": 3251, "pitch": 72, "duration": 3, "velocity": 102}, {"time": 3251, "pitch": 76, "duration": 3, "velocity": 102}, {"time": 3254, "pitch": 45, "duration": 17, "velocity": 96}, {"time": 3257, "pitch": 52, "duration": 10, "velocity": 95}, {"time": 3260, "pitch": 57, "duration": 2, "velocity": 117}, {"time": 3263, "pitch": 60, "duration": 2, "velocity": 117}, {"time": 3263, "pitch": 64, "duration": 2, "velocity": 117}, {"time": 3266, "pitch": 60, "duration": 6, "velocity": 122}, {"time": 3266, "pitch": 64, "duration": 9, "velocity": 122}, {"time": 3269, "pitch": 52, "duration": 2, "velocity": 112}, {"time": 3272, "pitch": 57, "duration": 7, "velocity": 122}, {"time": 3275, "pitch": 60, "duration": 2, "velocity": 99}, {"time": 3278, "pitch": 38, "duration": 22, "velocity": 85}, {"time": 3278, "pitch": 62, "duration": 2, "velocity": 122}, {"time": 3278, "pitch": 66, "duration": 2, "velocity": 127}, {"time": 3281, "pitch": 45, "duration": 21, "velocity": 107}, {"time": 3284, "pitch": 50, "duration": 7, "velocity": 112}, {"time": 3287, "pitch": 62, "duration": 2, "velocity": 100}, {"time": 3287, "pitch": 66, "duration": 1, "velocity": 63}, {"time": 3287, "pitch": 69, "duration": 1, "velocity": 58}, {"time": 3290, "pitch": 66, "duration": 7, "velocity": 127}, {"time": 3290, "pitch": 69, "duration": 7, "velocity": 122}, {"time": 3293, "pitch": 50, "duration": 3, "velocity": 102}, {"time": 3296, "pitch": 62, "duration": 9, "velocity": 100}, {"time": 3299, "pitch": 66, "duration": 6, "velocity": 127}, {"time": 3299, "pitch": 69, "duration": 9, "velocity": 122}, {"time": 3302, "pitch": 38, "duration": 17, "velocity": 93}, {"time": 3305, "pitch": 45, "duration": 14, "velocity": 100}, {"time": 3308, "pitch": 50, "duration": 7, "velocity": 102}, {"time": 3311, "pitch": 62, "duration": 2, "velocity": 100}, {"time": 3311, "pitch": 66, "duration": 1, "velocity": 52}, {"time": 3311, "pitch": 69, "duration": 1, "velocity": 50}, {"time": 3314, "pitch": 66, "duration": 7, "velocity": 127}, {"time": 3314, "pitch": 69, "duration": 9, "velocity": 122}, {"time": 3317, "pitch": 50, "duration": 7, "velocity": 107}, {"time": 3320, "pitch": 62, "duration": 5, "velocity": 127}, {"time": 3323, "pitch": 66, "duration": 2, "velocity": 127}, {"time": 3326, "pitch": 43, "duration": 18, "velocity": 96}, {"time": 3326, "pitch": 62, "duration": 1, "velocity": 81}, {"time": 3326, "pitch": 67, "duration": 3, "velocity": 127}, {"time": 3326, "pitch": 71, "duration": 3, "velocity": 127}, {"time": 3329, "pitch": 50, "duration": 11, "velocity": 117}, {"time": 3332, "pitch": 55, "duration": 4, "velocity": 122}, {"time": 3335, "pitch": 59, "duration": 3, "velocity": 112}, {"time": 3338, "pitch": 62, "duration": 5, "velocity": 127}, {"time": 3341, "pitch": 50, "duration": 4, "velocity": 112}, {"time": 3344, "pitch": 59, "duration": 4, "velocity": 122}, {"time": 3347, "pitch": 62, "duration": 3, "velocity": 107}, {"time": 3350, "pitch": 47, "duration": 18, "velocity": 96}, {"time": 3353, "pitch": 54, "duration": 10, "velocity": 127}, {"time": 3356, "pitch": 59, "duration": 4, "velocity": 107}, {"time": 3359, "pitch": 63, "duration": 2, "velocity": 127}, {"time": 3359, "pitch": 66, "duration": 1, "velocity": 107}, {"time": 3362, "pitch": 63, "duration": 6, "velocity": 127}, {"time": 3362, "pitch": 66, "duration": 5, "velocity": 127}, {"time": 3365, "pitch": 54, "duration": 2, "velocity": 122}, {"time": 3368, "pitch": 59, "duration": 5, "velocity": 117}, {"time": 3371, "pitch": 63, "duration": 2, "velocity": 127}, {"time": 3371, "pitch": 66, "duration": 2, "velocity": 127}, {"time": 3374, "pitch": 40, "duration": 22, "velocity": 99}, {"time": 3377, "pitch": 47, "duration": 21, "velocity": 100}, {"time": 3380, "pitch": 52, "duration": 7, "velocity": 95}, {"time": 3383, "pitch": 64, "duration": 4, "velocity": 117}, {"time": 3383, "pitch": 69, "duration": 1, "velocity": 40}, {"time": 3383, "pitch": 71, "duration": 1, "velocity": 44}, {"time": 3386, "pitch": 69, "duration": 7, "velocity": 127}, {"time": 3386, "pitch": 71, "duration": 7, "velocity": 117}, {"time": 3389, "pitch": 52, "duration": 2, "velocity": 117}, {"time": 3392, "pitch": 64, "duration": 13, "velocity": 97}, {"time": 3395, "pitch": 69, "duration": 2, "velocity": 88}, {"time": 3395, "pitch": 71, "duration": 2, "velocity": 112}, {"time": 3398, "pitch": 40, "duration": 16, "velocity": 99}, {"time": 3398, "pitch": 68, "duration": 8, "velocity": 127}, {"time": 3398, "pitch": 71, "duration": 8, "velocity": 63}, {"time": 3401, "pitch": 47, "duration": 14, "velocity": 85}, {"time": 3404, "pitch": 52, "duration": 7, "velocity": 89}, {"time": 3407, "pitch": 64, "duration": 4, "velocity": 112}, {"time": 3410, "pitch": 68, "duration": 7, "velocity": 127}, {"time": 3410, "pitch": 70, "duration": 1, "velocity": 100}, {"time": 3410, "pitch": 71, "duration": 12, "velocity": 122}, {"time": 3413, "pitch": 52, "duration": 4, "velocity": 107}, {"time": 3416, "pitch": 64, "duration": 6, "velocity": 117}, {"time": 3419, "pitch": 68, "duration": 3, "velocity": 127}, {"time": 3422, "pitch": 45, "duration": 21, "velocity": 90}, {"time": 3425, "pitch": 52, "duration": 10, "velocity": 96}, {"time": 3428, "pitch": 57, "duration": 3, "velocity": 112}, {"time": 3431, "pitch": 60, "duration": 5, "velocity": 122}, {"time": 3434, "pitch": 64, "duration": 11, "velocity": 127}, {"time": 3437, "pitch": 52, "duration": 9, "velocity": 102}, {"time": 3440, "pitch": 60, "duration": 5, "velocity": 97}, {"time": 3443, "pitch": 57, "duration": 3, "velocity": 112}, {"time": 3446, "pitch": 45, "duration": 18, "velocity": 97}, {"time": 3449, "pitch": 52, "duration": 17, "velocity": 96}, {"time": 3452, "pitch": 57, "duration": 6, "velocity": 107}, {"time": 3455, "pitch": 64, "duration": 6, "velocity": 99}, {"time": 3458, "pitch": 72, "duration": 11, "velocity": 127}, {"time": 3461, "pitch": 57, "duration": 2, "velocity": 112}, {"time": 3464, "pitch": 69, "duration": 5, "velocity": 117}, {"time": 3467, "pitch": 64, "duration": 3, "velocity": 127}, {"time": 3470, "pitch": 48, "duration": 18, "velocity": 89}, {"time": 3473, "pitch": 55, "duration": 10, "velocity": 96}, {"time": 3476, "pitch": 60, "duration": 3, "velocity": 107}, {"time": 3479, "pitch": 64, "duration": 2, "velocity": 122}, {"time": 3482, "pitch": 67, "duration": 6, "velocity": 127}, {"time": 3485, "pitch": 55, "duration": 3, "velocity": 107}, {"time": 3488, "pitch": 64, "duration": 5, "velocity": 127}, {"time": 3491, "pitch": 67, "duration": 3, "velocity": 100}, {"time": 3494, "pitch": 47, "duration": 17, "velocity": 89}, {"time": 3497, "pitch": 54, "duration": 10, "velocity": 107}, {"time": 3500, "pitch": 59, "duration": 3, "velocity": 102}, {"time": 3503, "pitch": 62, "duration": 3, "velocity": 127}, {"time": 3506, "pitch": 66, "duration": 10, "velocity": 127}, {"time": 3509, "pitch": 54, "duration": 1, "velocity": 117}, {"time": 3512, "pitch": 62, "duration": 4, "velocity": 122}, {"time": 3515, "pitch": 59, "duration": 3, "velocity": 107}, {"time": 3518, "pitch": 40, "duration": 22, "velocity": 92}, {"time": 3518, "pitch": 64, "duration": 10, "velocity": 92}, {"time": 3518, "pitch": 69, "duration": 10, "velocity": 102}, {"time": 3518, "pitch": 71, "duration": 10, "velocity": 107}, {"time": 3524, "pitch": 47, "duration": 19, "velocity": 96}, {"time": 3530, "pitch": 52, "duration": 2, "velocity": 43}, {"time": 3530, "pitch": 64, "duration": 10, "velocity": 107}, {"time": 3530, "pitch": 69, "duration": 11, "velocity": 122}, {"time": 3530, "pitch": 71, "duration": 10, "velocity": 117}, {"time": 3536, "pitch": 52, "duration": 19, "velocity": 85}, {"time": 3542, "pitch": 40, "duration": 23, "velocity": 78}, {"time": 3542, "pitch": 64, "duration": 10, "velocity": 100}, {"time": 3542, "pitch": 69, "duration": 10, "velocity": 97}, {"time": 3542, "pitch": 71, "duration": 10, "velocity": 97}, {"time": 3548, "pitch": 47, "duration": 17, "velocity": 48}, {"time": 3554, "pitch": 64, "duration": 11, "velocity": 112}, {"time": 3554, "pitch": 69, "duration": 11, "velocity": 122}, {"time": 3554, "pitch": 71, "duration": 11, "velocity": 112}, {"time": 3560, "pitch": 52, "duration": 4, "velocity": 92}, {"time": 3566, "pitch": 40, "duration": 39, "velocity": 66}, {"time": 3566, "pitch": 47, "duration": 37, "velocity": 78}, {"time": 3566, "pitch": 52, "duration": 36, "velocity": 89}, {"time": 3566, "pitch": 64, "duration": 40, "velocity": 100}, {"time": 3566, "pitch": 68, "duration": 41, "velocity": 112}, {"time": 3566, "pitch": 71, "duration": 42, "velocity": 92}, {"time": 3614, "pitch": 47, "duration": 21, "velocity": 59}, {"time": 3614, "pitch": 52, "duration": 46, "velocity": 66}, {"time": 3614, "pitch": 57, "duration": 16, "velocity": 78}, {"time": 3614, "pitch": 64, "duration": 10, "velocity": 95}, {"time": 3614, "pitch": 69, "duration": 10, "velocity": 93}, {"time": 3614, "pitch": 71, "duration": 10, "velocity": 99}, {"time": 3626, "pitch": 64, "duration": 10, "velocity": 100}, {"time": 3626, "pitch": 69, "duration": 10, "velocity": 99}, {"time": 3626, "pitch": 71, "duration": 10, "velocity": 99}, {"time": 3632, "pitch": 57, "duration": 5, "velocity": 59}, {"time": 3638, "pitch": 47, "duration": 20, "velocity": 74}, {"time": 3638, "pitch": 57, "duration": 17, "velocity": 70}, {"time": 3638, "pitch": 64, "duration": 10, "velocity": 95}, {"time": 3638, "pitch": 68, "duration": 10, "velocity": 99}, {"time": 3638, "pitch": 71, "duration": 10, "velocity": 83}, {"time": 3650, "pitch": 64, "duration": 4, "velocity": 45}, {"time": 3650, "pitch": 68, "duration": 11, "velocity": 122}, {"time": 3650, "pitch": 71, "duration": 11, "velocity": 99}, {"time": 3656, "pitch": 64, "duration": 5, "velocity": 75}, {"time": 3662, "pitch": 45, "duration": 40, "velocity": 95}, {"time": 3668, "pitch": 52, "duration": 34, "velocity": 54}, {"time": 3674, "pitch": 57, "duration": 16, "velocity": 107}, {"time": 3680, "pitch": 60, "duration": 20, "velocity": 89}, {"time": 3686, "pitch": 64, "duration": 11, "velocity": 85}, {"time": 3686, "pitch": 69, "duration": 10, "velocity": 97}, {"time": 3692, "pitch": 57, "duration": 5, "velocity": 69}, {"time": 3698, "pitch": 69, "duration": 6, "velocity": 117}, {"time": 3704, "pitch": 64, "duration": 5, "velocity": 92}, {"time": 3710, "pitch": 36, "duration": 24, "velocity": 78}, {"time": 3710, "pitch": 60, "duration": 11, "velocity": 92}, {"time": 3710, "pitch": 64, "duration": 11, "velocity": 77}, {"time": 3710, "pitch": 67, "duration": 11, "velocity": 83}, {"time": 3716, "pitch": 43, "duration": 10, "velocity": 47}, {"time": 3722, "pitch": 48, "duration": 4, "velocity": 74}, {"time": 3722, "pitch": 60, "duration": 2, "velocity": 45}, {"time": 3722, "pitch": 64, "duration": 7, "velocity": 79}, {"time": 3722, "pitch": 67, "duration": 7, "velocity": 92}, {"time": 3728, "pitch": 60, "duration": 5, "velocity": 78}, {"time": 3735, "pitch": 66, "duration": 14, "velocity": 122}, {"time": 3735, "pitch": 62, "duration": 14, "velocity": 100}, {"time": 3735, "pitch": 47, "duration": 13, "velocity": 75}, {"time": 3735, "pitch": 71, "duration": 13, "velocity": 97}, {"time": 3735, "pitch": 59, "duration": 12, "velocity": 92}, {"time": 3735, "pitch": 54, "duration": 13, "velocity": 63}, {"time": 3754, "pitch": 47, "duration": 13, "velocity": 68}, {"time": 3754, "pitch": 54, "duration": 12, "velocity": 90}, {"time": 3754, "pitch": 62, "duration": 14, "velocity": 112}, {"time": 3754, "pitch": 71, "duration": 13, "velocity": 100}, {"time": 3754, "pitch": 66, "duration": 13, "velocity": 122}, {"time": 3754, "pitch": 59, "duration": 11, "velocity": 81}, {"time": 3770, "pitch": 71, "duration": 40, "velocity": 90}, {"time": 3770, "pitch": 47, "duration": 40, "velocity": 92}, {"time": 3770, "pitch": 67, "duration": 40, "velocity": 95}, {"time": 3770, "pitch": 59, "duration": 41, "velocity": 99}, {"time": 3770, "pitch": 64, "duration": 41, "velocity": 102}, {"time": 3770, "pitch": 40, "duration": 40, "velocity": 85}, {"time": 3770, "pitch": 52, "duration": 39, "velocity": 93}], "annotations": [{"time": 350, "annotation": {"number": 64, "value": 127}, "group": "control_change"}, {"time": 393, "annotation": {"number": 64, "value": 0}, "group": "control_change"}, {"time": 398, "annotation": {"number": 64, "value": 127}, "group": "control_change"}, {"time": 443, "annotation": {"number": 64, "value": 0}, "group": "control_change"}, {"time": 446, "annotation": {"number": 64, "value": 127}, "group": "control_change"}, {"time": 466, "annotation": {"number": 64, "value": 0}, "group": "control_change"}, {"time": 470, "annotation": {"number": 64, "value": 127}, "group": "control_change"}, {"time": 490, "annotation": {"number": 64, "value": 0}, "group": "control_change"}, {"time": 494, "annotation": {"number": 64, "value": 127}, "group": "control_change"}, {"time": 503, "annotation": {"number": 64, "value": 0}, "group": "control_change"}, {"time": 505, "annotation": {"number": 64, "value": 127}, "group": "control_change"}, {"time": 538, "annotation": {"number": 64, "value": 0}, "group": "control_change"}, {"time": 542, "annotation": {"number": 64, "value": 127}, "group": "control_change"}, {"time": 563, "annotation": {"number": 64, "value": 0}, "group": "control_change"}, {"time": 566, "annotation": {"number": 64, "value": 127}, "group": "control_change"}, {"time": 588, "annotation": {"number": 64, "value": 0}, "group": "control_change"}, {"time": 591, "annotation": {"number": 64, "value": 127}, "group": "control_change"}, {"time": 633, "annotation": {"number": 64, "value": 0}, "group": "control_change"}, {"time": 638, "annotation": {"number": 64, "value": 127}, "group": "control_change"}, {"time": 684, "annotation": {"number": 64, "value": 0}, "group": "control_change"}, {"time": 686, "annotation": {"number": 64, "value": 127}, "group": "control_change"}, {"time": 707, "annotation": {"number": 64, "value": 0}, "group": "control_change"}, {"time": 710, "annotation": {"number": 64, "value": 127}, "group": "control_change"}, {"time": 732, "annotation": {"number": 64, "value": 0}, "group": "control_change"}, {"time": 735, "annotation": {"number": 64, "value": 127}, "group": "control_change"}, {"time": 755, "annotation": {"number": 64, "value": 0}, "group": "control_change"}, {"time": 759, "annotation": {"number": 64, "value": 127}, "group": "control_change"}, {"time": 779, "annotation": {"number": 64, "value": 0}, "group": "control_change"}, {"time": 782, "annotation": {"number": 64, "value": 127}, "group": "control_change"}, {"time": 803, "annotation": {"number": 64, "value": 0}, "group": "control_change"}, {"time": 806, "annotation": {"number": 64, "value": 127}, "group": "control_change"}, {"time": 826, "annotation": {"number": 64, "value": 0}, "group": "control_change"}, {"time": 831, "annotation": {"number": 64, "value": 127}, "group": "control_change"}, {"time": 839, "annotation": {"number": 64, "value": 0}, "group": "control_change"}, {"time": 842, "annotation": {"number": 64, "value": 127}, "group": "control_change"}, {"time": 851, "annotation": {"number": 64, "value": 0}, "group": "control_change"}, {"time": 854, "annotation": {"number": 64, "value": 127}, "group": "control_change"}, {"time": 875, "annotation": {"number": 64, "value": 0}, "group": "control_change"}, {"time": 878, "annotation": {"number": 64, "value": 127}, "group": "control_change"}, {"time": 899, "annotation": {"number": 64, "value": 0}, "group": "control_change"}, {"time": 902, "annotation": {"number": 64, "value": 127}, "group": "control_change"}, {"time": 924, "annotation": {"number": 64, "value": 0}, "group": "control_change"}, {"time": 926, "annotation": {"number": 64, "value": 127}, "group": "control_change"}, {"time": 935, "annotation": {"number": 64, "value": 0}, "group": "control_change"}, {"time": 938, "annotation": {"number": 64, "value": 127}, "group": "control_change"}, {"time": 947, "annotation": {"number": 64, "value": 0}, "group": "control_change"}, {"time": 950, "annotation": {"number": 64, "value": 127}, "group": "control_change"}, {"time": 960, "annotation": {"number": 64, "value": 0}, "group": "control_change"}, {"time": 963, "annotation": {"number": 64, "value": 127}, "group": "control_change"}, {"time": 970, "annotation": {"number": 64, "value": 0}, "group": "control_change"}, {"time": 974, "annotation": {"number": 64, "value": 127}, "group": "control_change"}, {"time": 994, "annotation": {"number": 64, "value": 0}, "group": "control_change"}, {"time": 998, "annotation": {"number": 64, "value": 127}, "group": "control_change"}, {"time": 1019, "annotation": {"number": 64, "value": 0}, "group": "control_change"}, {"time": 1022, "annotation": {"number": 64, "value": 127}, "group": "control_change"}, {"time": 1032, "annotation": {"number": 64, "value": 0}, "group": "control_change"}, {"time": 1034, "annotation": {"number": 64, "value": 127}, "group": "control_change"}, {"time": 1044, "annotation": {"number": 64, "value": 0}, "group": "control_change"}, {"time": 1046, "annotation": {"number": 64, "value": 127}, "group": "control_change"}, {"time": 1067, "annotation": {"number": 64, "value": 0}, "group": "control_change"}, {"time": 1070, "annotation": {"number": 64, "value": 127}, "group": "control_change"}, {"time": 1092, "annotation": {"number": 64, "value": 0}, "group": "control_change"}, {"time": 1094, "annotation": {"number": 64, "value": 127}, "group": "control_change"}, {"time": 1115, "annotation": {"number": 64, "value": 0}, "group": "control_change"}, {"time": 1118, "annotation": {"number": 64, "value": 127}, "group": "control_change"}, {"time": 1127, "annotation": {"number": 64, "value": 0}, "group": "control_change"}, {"time": 1130, "annotation": {"number": 64, "value": 127}, "group": "control_change"}, {"time": 1140, "annotation": {"number": 64, "value": 0}, "group": "control_change"}, {"time": 1142, "annotation": {"number": 64, "value": 127}, "group": "control_change"}, {"time": 1152, "annotation": {"number": 64, "value": 0}, "group": "control_change"}, {"time": 1155, "annotation": {"number": 64, "value": 127}, "group": "control_change"}, {"time": 1162, "annotation": {"number": 64, "value": 0}, "group": "control_change"}, {"time": 1166, "annotation": {"number": 64, "value": 127}, "group": "control_change"}, {"time": 1188, "annotation": {"number": 64, "value": 0}, "group": "control_change"}, {"time": 1190, "annotation": {"number": 64, "value": 127}, "group": "control_change"}, {"time": 1212, "annotation": {"number": 64, "value": 0}, "group": "control_change"}, {"time": 1214, "annotation": {"number": 64, "value": 127}, "group": "control_change"}, {"time": 1232, "annotation": {"number": 64, "value": 0}, "group": "control_change"}, {"time": 1239, "annotation": {"number": 64, "value": 127}, "group": "control_change"}, {"time": 1240, "annotation": {"number": 64, "value": 0}, "group": "control_change"}, {"time": 1262, "annotation": {"number": 64, "value": 127}, "group": "control_change"}, {"time": 1281, "annotation": {"number": 64, "value": 0}, "group": "control_change"}, {"time": 1286, "annotation": {"number": 64, "value": 127}, "group": "control_change"}, {"time": 1306, "annotation": {"number": 64, "value": 0}, "group": "control_change"}, {"time": 1309, "annotation": {"number": 64, "value": 127}, "group": "control_change"}, {"time": 1331, "annotation": {"number": 64, "value": 0}, "group": "control_change"}, {"time": 1334, "annotation": {"number": 64, "value": 127}, "group": "control_change"}, {"time": 1336, "annotation": {"number": 64, "value": 0}, "group": "control_change"}, {"time": 1337, "annotation": {"number": 64, "value": 127}, "group": "control_change"}, {"time": 1355, "annotation": {"number": 64, "value": 0}, "group": "control_change"}, {"time": 1358, "annotation": {"number": 64, "value": 127}, "group": "control_change"}, {"time": 1380, "annotation": {"number": 64, "value": 0}, "group": "control_change"}, {"time": 1382, "annotation": {"number": 64, "value": 127}, "group": "control_change"}, {"time": 1403, "annotation": {"number": 64, "value": 0}, "group": "control_change"}, {"time": 1407, "annotation": {"number": 64, "value": 127}, "group": "control_change"}, {"time": 1427, "annotation": {"number": 64, "value": 0}, "group": "control_change"}, {"time": 1430, "annotation": {"number": 64, "value": 127}, "group": "control_change"}, {"time": 1452, "annotation": {"number": 64, "value": 0}, "group": "control_change"}, {"time": 1454, "annotation": {"number": 64, "value": 127}, "group": "control_change"}, {"time": 1455, "annotation": {"number": 64, "value": 127}, "group": "control_change"}, {"time": 1476, "annotation": {"number": 64, "value": 0}, "group": "control_change"}, {"time": 1478, "annotation": {"number": 64, "value": 127}, "group": "control_change"}, {"time": 1499, "annotation": {"number": 64, "value": 0}, "group": "control_change"}, {"time": 1502, "annotation": {"number": 64, "value": 127}, "group": "control_change"}, {"time": 1524, "annotation": {"number": 64, "value": 0}, "group": "control_change"}, {"time": 1526, "annotation": {"number": 64, "value": 127}, "group": "control_change"}, {"time": 1545, "annotation": {"number": 64, "value": 0}, "group": "control_change"}, {"time": 1550, "annotation": {"number": 64, "value": 127}, "group": "control_change"}, {"time": 1571, "annotation": {"number": 64, "value": 0}, "group": "control_change"}, {"time": 1574, "annotation": {"number": 64, "value": 127}, "group": "control_change"}, {"time": 1596, "annotation": {"number": 64, "value": 0}, "group": "control_change"}, {"time": 1598, "annotation": {"number": 64, "value": 127}, "group": "control_change"}, {"time": 1620, "annotation": {"number": 64, "value": 0}, "group": "control_change"}, {"time": 1631, "annotation": {"number": 64, "value": 127}, "group": "control_change"}, {"time": 1643, "annotation": {"number": 64, "value": 0}, "group": "control_change"}, {"time": 1647, "annotation": {"number": 64, "value": 127}, "group": "control_change"}, {"time": 1668, "annotation": {"number": 64, "value": 0}, "group": "control_change"}, {"time": 1670, "annotation": {"number": 64, "value": 127}, "group": "control_change"}, {"time": 1692, "annotation": {"number": 64, "value": 0}, "group": "control_change"}, {"time": 1694, "annotation": {"number": 64, "value": 127}, "group": "control_change"}, {"time": 1727, "annotation": {"number": 64, "value": 0}, "group": "control_change"}, {"time": 1730, "annotation": {"number": 64, "value": 127}, "group": "control_change"}, {"time": 1737, "annotation": {"number": 64, "value": 0}, "group": "control_change"}, {"time": 1742, "annotation": {"number": 64, "value": 127}, "group": "control_change"}, {"time": 1743, "annotation": {"number": 64, "value": 127}, "group": "control_change"}, {"time": 1788, "annotation": {"number": 64, "value": 0}, "group": "control_change"}, {"time": 1790, "annotation": {"number": 64, "value": 127}, "group": "control_change"}, {"time": 1812, "annotation": {"number": 64, "value": 0}, "group": "control_change"}, {"time": 1814, "annotation": {"number": 64, "value": 127}, "group": "control_change"}, {"time": 1834, "annotation": {"number": 64, "value": 0}, "group": "control_change"}, {"time": 1844, "annotation": {"number": 64, "value": 127}, "group": "control_change"}, {"time": 1859, "annotation": {"number": 64, "value": 0}, "group": "control_change"}, {"time": 1862, "annotation": {"number": 64, "value": 127}, "group": "control_change"}, {"time": 1881, "annotation": {"number": 64, "value": 0}, "group": "control_change"}, {"time": 1887, "annotation": {"number": 64, "value": 127}, "group": "control_change"}, {"time": 1930, "annotation": {"number": 64, "value": 0}, "group": "control_change"}, {"time": 1935, "annotation": {"number": 64, "value": 127}, "group": "control_change"}, {"time": 1956, "annotation": {"number": 64, "value": 0}, "group": "control_change"}, {"time": 1958, "annotation": {"number": 64, "value": 127}, "group": "control_change"}, {"time": 1981, "annotation": {"number": 64, "value": 0}, "group": "control_change"}, {"time": 1982, "annotation": {"number": 64, "value": 127}, "group": "control_change"}, {"time": 2004, "annotation": {"number": 64, "value": 0}, "group": "control_change"}, {"time": 2006, "annotation": {"number": 64, "value": 127}, "group": "control_change"}, {"time": 2028, "annotation": {"number": 64, "value": 0}, "group": "control_change"}, {"time": 2030, "annotation": {"number": 64, "value": 127}, "group": "control_change"}, {"time": 2052, "annotation": {"number": 64, "value": 0}, "group": "control_change"}, {"time": 2054, "annotation": {"number": 64, "value": 127}, "group": "control_change"}, {"time": 2076, "annotation": {"number": 64, "value": 0}, "group": "control_change"}, {"time": 2078, "annotation": {"number": 64, "value": 127}, "group": "control_change"}, {"time": 2089, "annotation": {"number": 64, "value": 0}, "group": "control_change"}, {"time": 2091, "annotation": {"number": 64, "value": 127}, "group": "control_change"}, {"time": 2100, "annotation": {"number": 64, "value": 0}, "group": "control_change"}, {"time": 2102, "annotation": {"number": 64, "value": 127}, "group": "control_change"}, {"time": 2123, "annotation": {"number": 64, "value": 0}, "group": "control_change"}, {"time": 2126, "annotation": {"number": 64, "value": 127}, "group": "control_change"}, {"time": 2148, "annotation": {"number": 64, "value": 0}, "group": "control_change"}, {"time": 2150, "annotation": {"number": 64, "value": 127}, "group": "control_change"}, {"time": 2172, "annotation": {"number": 64, "value": 0}, "group": "control_change"}, {"time": 2174, "annotation": {"number": 64, "value": 127}, "group": "control_change"}, {"time": 2183, "annotation": {"number": 64, "value": 0}, "group": "control_change"}, {"time": 2186, "annotation": {"number": 64, "value": 127}, "group": "control_change"}, {"time": 2195, "annotation": {"number": 64, "value": 0}, "group": "control_change"}, {"time": 2198, "annotation": {"number": 64, "value": 127}, "group": "control_change"}, {"time": 2209, "annotation": {"number": 64, "value": 0}, "group": "control_change"}, {"time": 2211, "annotation": {"number": 64, "value": 127}, "group": "control_change"}, {"time": 2220, "annotation": {"number": 64, "value": 0}, "group": "control_change"}, {"time": 2222, "annotation": {"number": 64, "value": 127}, "group": "control_change"}, {"time": 2244, "annotation": {"number": 64, "value": 0}, "group": "control_change"}, {"time": 2246, "annotation": {"number": 64, "value": 127}, "group": "control_change"}, {"time": 2268, "annotation": {"number": 64, "value": 0}, "group": "control_change"}, {"time": 2270, "annotation": {"number": 64, "value": 127}, "group": "control_change"}, {"time": 2280, "annotation": {"number": 64, "value": 0}, "group": "control_change"}, {"time": 2282, "annotation": {"number": 64, "value": 127}, "group": "control_change"}, {"time": 2292, "annotation": {"number": 64, "value": 0}, "group": "control_change"}, {"time": 2294, "annotation": {"number": 64, "value": 127}, "group": "control_change"}, {"time": 2316, "annotation": {"number": 64, "value": 0}, "group": "control_change"}, {"time": 2318, "annotation": {"number": 64, "value": 127}, "group": "control_change"}, {"time": 2340, "annotation": {"number": 64, "value": 0}, "group": "control_change"}, {"time": 2342, "annotation": {"number": 64, "value": 127}, "group": "control_change"}, {"time": 2364, "annotation": {"number": 64, "value": 0}, "group": "control_change"}, {"time": 2366, "annotation": {"number": 64, "value": 127}, "group": "control_change"}, {"time": 2376, "annotation": {"number": 64, "value": 0}, "group": "control_change"}, {"time": 2378, "annotation": {"number": 64, "value": 127}, "group": "control_change"}, {"time": 2387, "annotation": {"number": 64, "value": 0}, "group": "control_change"}, {"time": 2390, "annotation": {"number": 64, "value": 127}, "group": "control_change"}, {"time": 2401, "annotation": {"number": 64, "value": 0}, "group": "control_change"}, {"time": 2403, "annotation": {"number": 64, "value": 127}, "group": "control_change"}, {"time": 2412, "annotation": {"number": 64, "value": 0}, "group": "control_change"}, {"time": 2414, "annotation": {"number": 64, "value": 127}, "group": "control_change"}, {"time": 2435, "annotation": {"number": 64, "value": 0}, "group": "control_change"}, {"time": 2438, "annotation": {"number": 64, "value": 127}, "group": "control_change"}, {"time": 2458, "annotation": {"number": 64, "value": 0}, "group": "control_change"}, {"time": 2462, "annotation": {"number": 64, "value": 127}, "group": "control_change"}, {"time": 2483, "annotation": {"number": 64, "value": 0}, "group": "control_change"}, {"time": 2485, "annotation": {"number": 64, "value": 127}, "group": "control_change"}, {"time": 2507, "annotation": {"number": 64, "value": 0}, "group": "control_change"}, {"time": 2510, "annotation": {"number": 64, "value": 127}, "group": "control_change"}, {"time": 2531, "annotation": {"number": 64, "value": 0}, "group": "control_change"}, {"time": 2533, "annotation": {"number": 64, "value": 127}, "group": "control_change"}, {"time": 2555, "annotation": {"number": 64, "value": 0}, "group": "control_change"}, {"time": 2558, "annotation": {"number": 64, "value": 127}, "group": "control_change"}, {"time": 2579, "annotation": {"number": 64, "value": 0}, "group": "control_change"}, {"time": 2582, "annotation": {"number": 64, "value": 127}, "group": "control_change"}, {"time": 2604, "annotation": {"number": 64, "value": 0}, "group": "control_change"}, {"time": 2606, "annotation": {"number": 64, "value": 127}, "group": "control_change"}, {"time": 2628, "annotation": {"number": 64, "value": 0}, "group": "control_change"}, {"time": 2630, "annotation": {"number": 64, "value": 127}, "group": "control_change"}, {"time": 2652, "annotation": {"number": 64, "value": 0}, "group": "control_change"}, {"time": 2654, "annotation": {"number": 64, "value": 127}, "group": "control_change"}, {"time": 2675, "annotation": {"number": 64, "value": 0}, "group": "control_change"}, {"time": 2678, "annotation": {"number": 64, "value": 127}, "group": "control_change"}, {"time": 2699, "annotation": {"number": 64, "value": 0}, "group": "control_change"}, {"time": 2702, "annotation": {"number": 64, "value": 127}, "group": "control_change"}, {"time": 2724, "annotation": {"number": 64, "value": 0}, "group": "control_change"}, {"time": 2726, "annotation": {"number": 64, "value": 127}, "group": "control_change"}, {"time": 2748, "annotation": {"number": 64, "value": 0}, "group": "control_change"}, {"time": 2750, "annotation": {"number": 64, "value": 127}, "group": "control_change"}, {"time": 2772, "annotation": {"number": 64, "value": 0}, "group": "control_change"}, {"time": 2810, "annotation": {"number": 64, "value": 127}, "group": "control_change"}, {"time": 2844, "annotation": {"number": 64, "value": 0}, "group": "control_change"}, {"time": 2846, "annotation": {"number": 64, "value": 127}, "group": "control_change"}, {"time": 2892, "annotation": {"number": 64, "value": 0}, "group": "control_change"}, {"time": 2894, "annotation": {"number": 64, "value": 127}, "group": "control_change"}, {"time": 2915, "annotation": {"number": 64, "value": 0}, "group": "control_change"}, {"time": 2918, "annotation": {"number": 64, "value": 127}, "group": "control_change"}, {"time": 2940, "annotation": {"number": 64, "value": 0}, "group": "control_change"}, {"time": 2942, "annotation": {"number": 64, "value": 127}, "group": "control_change"}, {"time": 2990, "annotation": {"number": 64, "value": 127}, "group": "control_change"}, {"time": 3036, "annotation": {"number": 64, "value": 0}, "group": "control_change"}, {"time": 3038, "annotation": {"number": 64, "value": 127}, "group": "control_change"}, {"time": 3059, "annotation": {"number": 64, "value": 0}, "group": "control_change"}, {"time": 3061, "annotation": {"number": 64, "value": 127}, "group": "control_change"}, {"time": 3083, "annotation": {"number": 64, "value": 0}, "group": "control_change"}, {"time": 3086, "annotation": {"number": 64, "value": 127}, "group": "control_change"}, {"time": 3107, "annotation": {"number": 64, "value": 0}, "group": "control_change"}, {"time": 3109, "annotation": {"number": 64, "value": 127}, "group": "control_change"}, {"time": 3132, "annotation": {"number": 64, "value": 0}, "group": "control_change"}, {"time": 3134, "annotation": {"number": 64, "value": 127}, "group": "control_change"}, {"time": 3155, "annotation": {"number": 64, "value": 0}, "group": "control_change"}, {"time": 3158, "annotation": {"number": 64, "value": 127}, "group": "control_change"}, {"time": 3181, "annotation": {"number": 64, "value": 127}, "group": "control_change"}, {"time": 3190, "annotation": {"number": 64, "value": 0}, "group": "control_change"}, {"time": 3192, "annotation": {"number": 64, "value": 127}, "group": "control_change"}, {"time": 3203, "annotation": {"number": 64, "value": 0}, "group": "control_change"}, {"time": 3205, "annotation": {"number": 64, "value": 127}, "group": "control_change"}, {"time": 3227, "annotation": {"number": 64, "value": 0}, "group": "control_change"}, {"time": 3229, "annotation": {"number": 64, "value": 127}, "group": "control_change"}, {"time": 3251, "annotation": {"number": 64, "value": 0}, "group": "control_change"}, {"time": 3253, "annotation": {"number": 64, "value": 127}, "group": "control_change"}, {"time": 3275, "annotation": {"number": 64, "value": 0}, "group": "control_change"}, {"time": 3277, "annotation": {"number": 64, "value": 127}, "group": "control_change"}, {"time": 3299, "annotation": {"number": 64, "value": 0}, "group": "control_change"}, {"time": 3301, "annotation": {"number": 64, "value": 127}, "group": "control_change"}, {"time": 3323, "annotation": {"number": 64, "value": 0}, "group": "control_change"}, {"time": 3325, "annotation": {"number": 64, "value": 127}, "group": "control_change"}, {"time": 3347, "annotation": {"number": 64, "value": 0}, "group": "control_change"}, {"time": 3350, "annotation": {"number": 64, "value": 127}, "group": "control_change"}, {"time": 3372, "annotation": {"number": 64, "value": 0}, "group": "control_change"}, {"time": 3374, "annotation": {"number": 64, "value": 127}, "group": "control_change"}, {"time": 3395, "annotation": {"number": 64, "value": 0}, "group": "control_change"}, {"time": 3397, "annotation": {"number": 64, "value": 127}, "group": "control_change"}, {"time": 3419, "annotation": {"number": 64, "value": 0}, "group": "control_change"}, {"time": 3422, "annotation": {"number": 64, "value": 127}, "group": "control_change"}, {"time": 3443, "annotation": {"number": 64, "value": 0}, "group": "control_change"}, {"time": 3445, "annotation": {"number": 64, "value": 127}, "group": "control_change"}, {"time": 3467, "annotation": {"number": 64, "value": 0}, "group": "control_change"}, {"time": 3470, "annotation": {"number": 64, "value": 127}, "group": "control_change"}, {"time": 3491, "annotation": {"number": 64, "value": 0}, "group": "control_change"}, {"time": 3493, "annotation": {"number": 64, "value": 127}, "group": "control_change"}, {"time": 3494, "annotation": {"number": 64, "value": 127}, "group": "control_change"}, {"time": 3515, "annotation": {"number": 64, "value": 0}, "group": "control_change"}, {"time": 3517, "annotation": {"number": 64, "value": 127}, "group": "control_change"}, {"time": 3519, "annotation": {"number": 64, "value": 127}, "group": "control_change"}, {"time": 3561, "annotation": {"number": 64, "value": 0}, "group": "control_change"}, {"time": 3578, "annotation": {"number": 64, "value": 127}, "group": "control_change"}, {"time": 3611, "annotation": {"number": 64, "value": 0}, "group": "control_change"}, {"time": 3615, "annotation": {"number": 64, "value": 127}, "group": "control_change"}, {"time": 3634, "annotation": {"number": 64, "value": 0}, "group": "control_change"}, {"time": 3639, "annotation": {"number": 64, "value": 127}, "group": "control_change"}, {"time": 3658, "annotation": {"number": 64, "value": 0}, "group": "control_change"}, {"time": 3662, "annotation": {"number": 64, "value": 127}, "group": "control_change"}, {"time": 3707, "annotation": {"number": 64, "value": 0}, "group": "control_change"}, {"time": 3710, "annotation": {"number": 64, "value": 127}, "group": "control_change"}, {"time": 3731, "annotation": {"number": 64, "value": 0}, "group": "control_change"}, {"time": 3736, "annotation": {"number": 64, "value": 127}, "group": "control_change"}, {"time": 3749, "annotation": {"number": 64, "value": 0}, "group": "control_change"}, {"time": 3756, "annotation": {"number": 64, "value": 127}, "group": "control_change"}, {"time": 3770, "annotation": {"number": 64, "value": 0}, "group": "control_change"}, {"time": 3784, "annotation": {"number": 64, "value": 127}, "group": "control_change"}, {"time": 3793, "annotation": {"number": 64, "value": 0}, "group": "control_change"}, {"time": 3794, "annotation": {"number": 64, "value": 127}, "group": "control_change"}, {"time": 3856, "annotation": {"number": 64, "value": 0}, "group": "control_change"}, {"time": 3857, "annotation": {"number": 64, "value": 127}, "group": "control_change"}, {"time": 3861, "annotation": {"number": 64, "value": 0}, "group": "control_change"}]}]}