{"metadata": {"schema_version": "0.2", "title": "None", "source_filename": "458.mid", "source_format": "midi"}, "resolution": 12, "tempos": [{"time": 0, "qpm": 92.00026986745827}], "time_signatures": [{"time": 0, "numerator": 1, "denominator": 4}], "tracks": [{"program": 0, "is_drum": false, "name": "MELODY", "notes": [{"time": 202, "pitch": 64, "duration": 7, "velocity": 127}, {"time": 214, "pitch": 59, "duration": 8, "velocity": 127}, {"time": 226, "pitch": 62, "duration": 6, "velocity": 127}, {"time": 238, "pitch": 59, "duration": 5, "velocity": 127}, {"time": 244, "pitch": 57, "duration": 8, "velocity": 127}, {"time": 256, "pitch": 55, "duration": 2, "velocity": 112}, {"time": 262, "pitch": 57, "duration": 5, "velocity": 127}, {"time": 268, "pitch": 55, "duration": 5, "velocity": 102}, {"time": 274, "pitch": 57, "duration": 6, "velocity": 127}, {"time": 280, "pitch": 57, "duration": 3, "velocity": 127}, {"time": 283, "pitch": 55, "duration": 3, "velocity": 100}, {"time": 286, "pitch": 57, "duration": 4, "velocity": 122}, {"time": 292, "pitch": 59, "duration": 3, "velocity": 112}, {"time": 292, "pitch": 59, "duration": 3, "velocity": 127}, {"time": 298, "pitch": 64, "duration": 8, "velocity": 122}, {"time": 310, "pitch": 59, "duration": 6, "velocity": 117}, {"time": 322, "pitch": 62, "duration": 7, "velocity": 127}, {"time": 334, "pitch": 59, "duration": 5, "velocity": 127}, {"time": 340, "pitch": 57, "duration": 5, "velocity": 102}, {"time": 352, "pitch": 55, "duration": 4, "velocity": 112}, {"time": 358, "pitch": 57, "duration": 4, "velocity": 117}, {"time": 364, "pitch": 55, "duration": 3, "velocity": 96}, {"time": 370, "pitch": 58, "duration": 4, "velocity": 127}, {"time": 376, "pitch": 57, "duration": 3, "velocity": 122}, {"time": 379, "pitch": 55, "duration": 3, "velocity": 99}, {"time": 382, "pitch": 57, "duration": 5, "velocity": 127}, {"time": 388, "pitch": 59, "duration": 4, "velocity": 127}, {"time": 394, "pitch": 52, "duration": 6, "velocity": 117}, {"time": 400, "pitch": 54, "duration": 6, "velocity": 122}, {"time": 406, "pitch": 55, "duration": 5, "velocity": 99}, {"time": 412, "pitch": 52, "duration": 6, "velocity": 112}, {"time": 418, "pitch": 58, "duration": 6, "velocity": 127}, {"time": 424, "pitch": 57, "duration": 6, "velocity": 122}, {"time": 430, "pitch": 55, "duration": 6, "velocity": 112}, {"time": 436, "pitch": 57, "duration": 6, "velocity": 122}, {"time": 442, "pitch": 57, "duration": 5, "velocity": 112}, {"time": 448, "pitch": 52, "duration": 7, "velocity": 102}, {"time": 586, "pitch": 64, "duration": 7, "velocity": 127}, {"time": 598, "pitch": 59, "duration": 8, "velocity": 127}, {"time": 610, "pitch": 62, "duration": 6, "velocity": 127}, {"time": 622, "pitch": 59, "duration": 5, "velocity": 127}, {"time": 628, "pitch": 57, "duration": 8, "velocity": 127}, {"time": 640, "pitch": 55, "duration": 2, "velocity": 112}, {"time": 646, "pitch": 57, "duration": 5, "velocity": 127}, {"time": 652, "pitch": 55, "duration": 5, "velocity": 102}, {"time": 658, "pitch": 57, "duration": 6, "velocity": 127}, {"time": 664, "pitch": 57, "duration": 3, "velocity": 127}, {"time": 667, "pitch": 55, "duration": 3, "velocity": 100}, {"time": 670, "pitch": 57, "duration": 4, "velocity": 122}, {"time": 676, "pitch": 59, "duration": 3, "velocity": 112}, {"time": 676, "pitch": 59, "duration": 3, "velocity": 127}, {"time": 682, "pitch": 64, "duration": 8, "velocity": 122}, {"time": 694, "pitch": 59, "duration": 6, "velocity": 117}, {"time": 706, "pitch": 62, "duration": 7, "velocity": 127}, {"time": 718, "pitch": 59, "duration": 5, "velocity": 127}, {"time": 724, "pitch": 57, "duration": 5, "velocity": 102}, {"time": 736, "pitch": 55, "duration": 4, "velocity": 112}, {"time": 742, "pitch": 57, "duration": 4, "velocity": 117}, {"time": 748, "pitch": 55, "duration": 3, "velocity": 96}, {"time": 754, "pitch": 58, "duration": 4, "velocity": 127}, {"time": 760, "pitch": 57, "duration": 3, "velocity": 122}, {"time": 763, "pitch": 55, "duration": 3, "velocity": 99}, {"time": 766, "pitch": 57, "duration": 5, "velocity": 127}, {"time": 772, "pitch": 59, "duration": 4, "velocity": 127}, {"time": 778, "pitch": 52, "duration": 6, "velocity": 117}, {"time": 784, "pitch": 54, "duration": 6, "velocity": 122}, {"time": 790, "pitch": 55, "duration": 5, "velocity": 99}, {"time": 796, "pitch": 52, "duration": 6, "velocity": 112}, {"time": 802, "pitch": 58, "duration": 6, "velocity": 127}, {"time": 808, "pitch": 57, "duration": 6, "velocity": 122}, {"time": 814, "pitch": 55, "duration": 6, "velocity": 112}, {"time": 820, "pitch": 57, "duration": 6, "velocity": 122}, {"time": 826, "pitch": 57, "duration": 5, "velocity": 112}, {"time": 832, "pitch": 52, "duration": 7, "velocity": 102}, {"time": 982, "pitch": 64, "duration": 3, "velocity": 127}, {"time": 988, "pitch": 64, "duration": 3, "velocity": 112}, {"time": 991, "pitch": 64, "duration": 1, "velocity": 127}, {"time": 1000, "pitch": 62, "duration": 4, "velocity": 112}, {"time": 1006, "pitch": 62, "duration": 4, "velocity": 127}, {"time": 1012, "pitch": 60, "duration": 10, "velocity": 127}, {"time": 1030, "pitch": 64, "duration": 4, "velocity": 117}, {"time": 1036, "pitch": 64, "duration": 1, "velocity": 112}, {"time": 1039, "pitch": 64, "duration": 5, "velocity": 117}, {"time": 1048, "pitch": 62, "duration": 4, "velocity": 122}, {"time": 1054, "pitch": 62, "duration": 3, "velocity": 122}, {"time": 1060, "pitch": 64, "duration": 4, "velocity": 127}, {"time": 1066, "pitch": 59, "duration": 25, "velocity": 117}, {"time": 1096, "pitch": 60, "duration": 6, "velocity": 127}, {"time": 1102, "pitch": 59, "duration": 6, "velocity": 96}, {"time": 1108, "pitch": 57, "duration": 27, "velocity": 102}, {"time": 1174, "pitch": 64, "duration": 2, "velocity": 127}, {"time": 1177, "pitch": 64, "duration": 3, "velocity": 127}, {"time": 1183, "pitch": 64, "duration": 4, "velocity": 127}, {"time": 1192, "pitch": 62, "duration": 3, "velocity": 122}, {"time": 1198, "pitch": 62, "duration": 4, "velocity": 127}, {"time": 1206, "pitch": 60, "duration": 12, "velocity": 112}, {"time": 1222, "pitch": 64, "duration": 2, "velocity": 127}, {"time": 1225, "pitch": 64, "duration": 3, "velocity": 102}, {"time": 1231, "pitch": 64, "duration": 4, "velocity": 127}, {"time": 1240, "pitch": 62, "duration": 3, "velocity": 117}, {"time": 1246, "pitch": 62, "duration": 3, "velocity": 127}, {"time": 1252, "pitch": 64, "duration": 2, "velocity": 122}, {"time": 1258, "pitch": 59, "duration": 18, "velocity": 127}, {"time": 1288, "pitch": 60, "duration": 5, "velocity": 127}, {"time": 1294, "pitch": 59, "duration": 6, "velocity": 127}, {"time": 1300, "pitch": 57, "duration": 25, "velocity": 97}, {"time": 1372, "pitch": 55, "duration": 2, "velocity": 97}, {"time": 1378, "pitch": 58, "duration": 3, "velocity": 96}, {"time": 1384, "pitch": 57, "duration": 2, "velocity": 95}, {"time": 1387, "pitch": 55, "duration": 2, "velocity": 76}, {"time": 1390, "pitch": 57, "duration": 5, "velocity": 127}, {"time": 1396, "pitch": 59, "duration": 6, "velocity": 127}, {"time": 1468, "pitch": 55, "duration": 3, "velocity": 107}, {"time": 1474, "pitch": 58, "duration": 3, "velocity": 127}, {"time": 1480, "pitch": 57, "duration": 3, "velocity": 112}, {"time": 1483, "pitch": 55, "duration": 2, "velocity": 96}, {"time": 1486, "pitch": 57, "duration": 5, "velocity": 127}, {"time": 1492, "pitch": 59, "duration": 5, "velocity": 127}, {"time": 1564, "pitch": 55, "duration": 2, "velocity": 117}, {"time": 1570, "pitch": 58, "duration": 4, "velocity": 127}, {"time": 1576, "pitch": 57, "duration": 3, "velocity": 99}, {"time": 1579, "pitch": 55, "duration": 3, "velocity": 102}, {"time": 1582, "pitch": 57, "duration": 5, "velocity": 127}, {"time": 1588, "pitch": 59, "duration": 6, "velocity": 102}, {"time": 1660, "pitch": 55, "duration": 3, "velocity": 102}, {"time": 1666, "pitch": 58, "duration": 4, "velocity": 127}, {"time": 1672, "pitch": 57, "duration": 3, "velocity": 127}, {"time": 1675, "pitch": 55, "duration": 2, "velocity": 95}, {"time": 1678, "pitch": 57, "duration": 4, "velocity": 127}, {"time": 1684, "pitch": 59, "duration": 4, "velocity": 127}, {"time": 1744, "pitch": 71, "duration": 37, "velocity": 127}, {"time": 1786, "pitch": 71, "duration": 4, "velocity": 127}, {"time": 1798, "pitch": 64, "duration": 4, "velocity": 127}, {"time": 1810, "pitch": 67, "duration": 4, "velocity": 127}, {"time": 1816, "pitch": 69, "duration": 3, "velocity": 127}, {"time": 1822, "pitch": 71, "duration": 4, "velocity": 127}, {"time": 1828, "pitch": 69, "duration": 5, "velocity": 127}, {"time": 1840, "pitch": 67, "duration": 3, "velocity": 122}, {"time": 1846, "pitch": 69, "duration": 3, "velocity": 127}, {"time": 1852, "pitch": 67, "duration": 3, "velocity": 117}, {"time": 1858, "pitch": 70, "duration": 4, "velocity": 127}, {"time": 1864, "pitch": 69, "duration": 3, "velocity": 127}, {"time": 1867, "pitch": 67, "duration": 2, "velocity": 102}, {"time": 1870, "pitch": 69, "duration": 5, "velocity": 127}, {"time": 1876, "pitch": 71, "duration": 4, "velocity": 127}, {"time": 1882, "pitch": 71, "duration": 4, "velocity": 127}, {"time": 1894, "pitch": 64, "duration": 5, "velocity": 122}, {"time": 1906, "pitch": 67, "duration": 4, "velocity": 127}, {"time": 1912, "pitch": 69, "duration": 3, "velocity": 127}, {"time": 1918, "pitch": 71, "duration": 4, "velocity": 127}, {"time": 1924, "pitch": 69, "duration": 5, "velocity": 127}, {"time": 1936, "pitch": 67, "duration": 3, "velocity": 117}, {"time": 1942, "pitch": 69, "duration": 4, "velocity": 127}, {"time": 1948, "pitch": 67, "duration": 4, "velocity": 112}, {"time": 1954, "pitch": 70, "duration": 4, "velocity": 127}, {"time": 1960, "pitch": 69, "duration": 3, "velocity": 127}, {"time": 1963, "pitch": 67, "duration": 3, "velocity": 100}, {"time": 1966, "pitch": 69, "duration": 4, "velocity": 127}, {"time": 1972, "pitch": 71, "duration": 4, "velocity": 127}, {"time": 1978, "pitch": 71, "duration": 5, "velocity": 122}, {"time": 1984, "pitch": 76, "duration": 8, "velocity": 127}, {"time": 1996, "pitch": 71, "duration": 6, "velocity": 122}, {"time": 2002, "pitch": 74, "duration": 7, "velocity": 127}, {"time": 2014, "pitch": 71, "duration": 5, "velocity": 127}, {"time": 2020, "pitch": 69, "duration": 9, "velocity": 117}, {"time": 2032, "pitch": 67, "duration": 4, "velocity": 112}, {"time": 2038, "pitch": 69, "duration": 4, "velocity": 127}, {"time": 2044, "pitch": 67, "duration": 3, "velocity": 102}, {"time": 2050, "pitch": 71, "duration": 6, "velocity": 127}, {"time": 2056, "pitch": 69, "duration": 3, "velocity": 122}, {"time": 2059, "pitch": 67, "duration": 2, "velocity": 107}, {"time": 2062, "pitch": 69, "duration": 5, "velocity": 127}, {"time": 2068, "pitch": 71, "duration": 4, "velocity": 127}, {"time": 2074, "pitch": 71, "duration": 6, "velocity": 117}, {"time": 2080, "pitch": 76, "duration": 11, "velocity": 127}, {"time": 2092, "pitch": 71, "duration": 6, "velocity": 122}, {"time": 2098, "pitch": 74, "duration": 7, "velocity": 127}, {"time": 2110, "pitch": 71, "duration": 6, "velocity": 127}, {"time": 2116, "pitch": 69, "duration": 6, "velocity": 127}, {"time": 2128, "pitch": 67, "duration": 3, "velocity": 112}, {"time": 2134, "pitch": 69, "duration": 4, "velocity": 122}, {"time": 2140, "pitch": 67, "duration": 3, "velocity": 112}, {"time": 2146, "pitch": 71, "duration": 5, "velocity": 127}, {"time": 2152, "pitch": 69, "duration": 3, "velocity": 117}, {"time": 2155, "pitch": 67, "duration": 2, "velocity": 102}, {"time": 2158, "pitch": 69, "duration": 4, "velocity": 127}, {"time": 2164, "pitch": 71, "duration": 5, "velocity": 122}, {"time": 2170, "pitch": 71, "duration": 5, "velocity": 127}, {"time": 2182, "pitch": 64, "duration": 6, "velocity": 122}, {"time": 2194, "pitch": 67, "duration": 4, "velocity": 127}, {"time": 2200, "pitch": 69, "duration": 4, "velocity": 127}, {"time": 2206, "pitch": 71, "duration": 4, "velocity": 127}, {"time": 2212, "pitch": 69, "duration": 6, "velocity": 127}, {"time": 2224, "pitch": 67, "duration": 3, "velocity": 127}, {"time": 2230, "pitch": 69, "duration": 3, "velocity": 122}, {"time": 2236, "pitch": 67, "duration": 3, "velocity": 112}, {"time": 2242, "pitch": 71, "duration": 4, "velocity": 127}, {"time": 2248, "pitch": 69, "duration": 2, "velocity": 117}, {"time": 2251, "pitch": 67, "duration": 2, "velocity": 99}, {"time": 2254, "pitch": 69, "duration": 4, "velocity": 127}, {"time": 2260, "pitch": 71, "duration": 3, "velocity": 127}, {"time": 2266, "pitch": 71, "duration": 5, "velocity": 122}, {"time": 2278, "pitch": 64, "duration": 5, "velocity": 122}, {"time": 2290, "pitch": 67, "duration": 4, "velocity": 127}, {"time": 2296, "pitch": 69, "duration": 3, "velocity": 127}, {"time": 2302, "pitch": 71, "duration": 4, "velocity": 127}, {"time": 2308, "pitch": 69, "duration": 6, "velocity": 127}, {"time": 2320, "pitch": 67, "duration": 3, "velocity": 127}, {"time": 2326, "pitch": 69, "duration": 4, "velocity": 127}, {"time": 2332, "pitch": 67, "duration": 3, "velocity": 127}, {"time": 2338, "pitch": 70, "duration": 4, "velocity": 127}, {"time": 2344, "pitch": 69, "duration": 3, "velocity": 127}, {"time": 2347, "pitch": 67, "duration": 3, "velocity": 112}, {"time": 2350, "pitch": 69, "duration": 4, "velocity": 127}, {"time": 2356, "pitch": 71, "duration": 3, "velocity": 127}, {"time": 2362, "pitch": 64, "duration": 6, "velocity": 127}, {"time": 2368, "pitch": 66, "duration": 5, "velocity": 127}, {"time": 2374, "pitch": 67, "duration": 5, "velocity": 122}, {"time": 2380, "pitch": 64, "duration": 5, "velocity": 107}, {"time": 2386, "pitch": 70, "duration": 5, "velocity": 127}, {"time": 2392, "pitch": 69, "duration": 6, "velocity": 122}, {"time": 2398, "pitch": 67, "duration": 5, "velocity": 122}, {"time": 2404, "pitch": 69, "duration": 4, "velocity": 127}, {"time": 2416, "pitch": 64, "duration": 22, "velocity": 112}, {"time": 2566, "pitch": 64, "duration": 2, "velocity": 127}, {"time": 2569, "pitch": 64, "duration": 3, "velocity": 127}, {"time": 2575, "pitch": 64, "duration": 4, "velocity": 127}, {"time": 2584, "pitch": 62, "duration": 3, "velocity": 122}, {"time": 2590, "pitch": 62, "duration": 4, "velocity": 127}, {"time": 2598, "pitch": 60, "duration": 12, "velocity": 112}, {"time": 2614, "pitch": 64, "duration": 2, "velocity": 127}, {"time": 2617, "pitch": 64, "duration": 3, "velocity": 102}, {"time": 2623, "pitch": 64, "duration": 4, "velocity": 127}, {"time": 2632, "pitch": 62, "duration": 3, "velocity": 117}, {"time": 2638, "pitch": 62, "duration": 3, "velocity": 127}, {"time": 2644, "pitch": 64, "duration": 2, "velocity": 122}, {"time": 2650, "pitch": 59, "duration": 18, "velocity": 127}, {"time": 2680, "pitch": 60, "duration": 5, "velocity": 127}, {"time": 2686, "pitch": 59, "duration": 6, "velocity": 127}, {"time": 2692, "pitch": 57, "duration": 25, "velocity": 97}, {"time": 2758, "pitch": 64, "duration": 2, "velocity": 127}, {"time": 2761, "pitch": 64, "duration": 3, "velocity": 127}, {"time": 2767, "pitch": 64, "duration": 4, "velocity": 127}, {"time": 2776, "pitch": 62, "duration": 3, "velocity": 122}, {"time": 2782, "pitch": 62, "duration": 4, "velocity": 127}, {"time": 2790, "pitch": 60, "duration": 12, "velocity": 112}, {"time": 2806, "pitch": 64, "duration": 2, "velocity": 127}, {"time": 2809, "pitch": 64, "duration": 3, "velocity": 102}, {"time": 2815, "pitch": 64, "duration": 4, "velocity": 127}, {"time": 2824, "pitch": 62, "duration": 3, "velocity": 117}, {"time": 2830, "pitch": 62, "duration": 3, "velocity": 127}, {"time": 2836, "pitch": 64, "duration": 2, "velocity": 122}, {"time": 2842, "pitch": 59, "duration": 18, "velocity": 127}, {"time": 2872, "pitch": 60, "duration": 5, "velocity": 127}, {"time": 2878, "pitch": 59, "duration": 6, "velocity": 127}, {"time": 2884, "pitch": 57, "duration": 25, "velocity": 97}, {"time": 2956, "pitch": 55, "duration": 2, "velocity": 97}, {"time": 2962, "pitch": 58, "duration": 3, "velocity": 96}, {"time": 2968, "pitch": 57, "duration": 2, "velocity": 95}, {"time": 2971, "pitch": 55, "duration": 2, "velocity": 76}, {"time": 2974, "pitch": 57, "duration": 5, "velocity": 127}, {"time": 2980, "pitch": 55, "duration": 6, "velocity": 127}, {"time": 3052, "pitch": 55, "duration": 3, "velocity": 107}, {"time": 3058, "pitch": 58, "duration": 3, "velocity": 127}, {"time": 3064, "pitch": 57, "duration": 3, "velocity": 112}, {"time": 3067, "pitch": 55, "duration": 2, "velocity": 96}, {"time": 3070, "pitch": 57, "duration": 5, "velocity": 127}, {"time": 3076, "pitch": 59, "duration": 5, "velocity": 127}, {"time": 3148, "pitch": 55, "duration": 2, "velocity": 117}, {"time": 3154, "pitch": 58, "duration": 4, "velocity": 127}, {"time": 3160, "pitch": 57, "duration": 3, "velocity": 99}, {"time": 3163, "pitch": 55, "duration": 3, "velocity": 102}, {"time": 3166, "pitch": 57, "duration": 5, "velocity": 127}, {"time": 3172, "pitch": 59, "duration": 6, "velocity": 102}, {"time": 3244, "pitch": 55, "duration": 3, "velocity": 102}, {"time": 3250, "pitch": 58, "duration": 4, "velocity": 127}, {"time": 3256, "pitch": 57, "duration": 3, "velocity": 127}, {"time": 3259, "pitch": 55, "duration": 2, "velocity": 95}, {"time": 3262, "pitch": 57, "duration": 4, "velocity": 127}, {"time": 3268, "pitch": 59, "duration": 4, "velocity": 127}, {"time": 3370, "pitch": 64, "duration": 7, "velocity": 127}, {"time": 3382, "pitch": 59, "duration": 8, "velocity": 127}, {"time": 3394, "pitch": 62, "duration": 6, "velocity": 127}, {"time": 3406, "pitch": 59, "duration": 5, "velocity": 127}, {"time": 3412, "pitch": 57, "duration": 8, "velocity": 127}, {"time": 3424, "pitch": 55, "duration": 2, "velocity": 112}, {"time": 3430, "pitch": 57, "duration": 5, "velocity": 127}, {"time": 3436, "pitch": 55, "duration": 5, "velocity": 102}, {"time": 3442, "pitch": 57, "duration": 6, "velocity": 127}, {"time": 3448, "pitch": 57, "duration": 3, "velocity": 127}, {"time": 3451, "pitch": 55, "duration": 3, "velocity": 100}, {"time": 3454, "pitch": 57, "duration": 4, "velocity": 122}, {"time": 3460, "pitch": 59, "duration": 3, "velocity": 112}, {"time": 3460, "pitch": 59, "duration": 3, "velocity": 127}, {"time": 3466, "pitch": 64, "duration": 8, "velocity": 122}, {"time": 3478, "pitch": 59, "duration": 6, "velocity": 117}, {"time": 3490, "pitch": 62, "duration": 7, "velocity": 127}, {"time": 3502, "pitch": 59, "duration": 5, "velocity": 127}, {"time": 3508, "pitch": 57, "duration": 5, "velocity": 102}, {"time": 3520, "pitch": 55, "duration": 4, "velocity": 112}, {"time": 3526, "pitch": 57, "duration": 4, "velocity": 117}, {"time": 3532, "pitch": 55, "duration": 3, "velocity": 96}, {"time": 3538, "pitch": 58, "duration": 4, "velocity": 127}, {"time": 3544, "pitch": 57, "duration": 3, "velocity": 122}, {"time": 3547, "pitch": 55, "duration": 3, "velocity": 99}, {"time": 3550, "pitch": 57, "duration": 5, "velocity": 127}, {"time": 3556, "pitch": 59, "duration": 4, "velocity": 127}, {"time": 3562, "pitch": 52, "duration": 6, "velocity": 117}, {"time": 3568, "pitch": 54, "duration": 6, "velocity": 122}, {"time": 3574, "pitch": 55, "duration": 5, "velocity": 99}, {"time": 3580, "pitch": 52, "duration": 6, "velocity": 112}, {"time": 3586, "pitch": 58, "duration": 6, "velocity": 127}, {"time": 3592, "pitch": 57, "duration": 6, "velocity": 122}, {"time": 3598, "pitch": 55, "duration": 6, "velocity": 112}, {"time": 3604, "pitch": 57, "duration": 6, "velocity": 122}, {"time": 3610, "pitch": 57, "duration": 5, "velocity": 112}, {"time": 3616, "pitch": 52, "duration": 7, "velocity": 102}, {"time": 3946, "pitch": 71, "duration": 4, "velocity": 127}, {"time": 3958, "pitch": 64, "duration": 4, "velocity": 127}, {"time": 3970, "pitch": 67, "duration": 4, "velocity": 127}, {"time": 3976, "pitch": 69, "duration": 3, "velocity": 127}, {"time": 3982, "pitch": 71, "duration": 4, "velocity": 127}, {"time": 3988, "pitch": 69, "duration": 5, "velocity": 127}, {"time": 4000, "pitch": 67, "duration": 3, "velocity": 122}, {"time": 4006, "pitch": 69, "duration": 3, "velocity": 127}, {"time": 4012, "pitch": 67, "duration": 3, "velocity": 117}, {"time": 4018, "pitch": 70, "duration": 4, "velocity": 127}, {"time": 4024, "pitch": 69, "duration": 3, "velocity": 127}, {"time": 4027, "pitch": 67, "duration": 2, "velocity": 102}, {"time": 4030, "pitch": 69, "duration": 5, "velocity": 127}, {"time": 4036, "pitch": 71, "duration": 4, "velocity": 127}, {"time": 4042, "pitch": 71, "duration": 4, "velocity": 127}, {"time": 4054, "pitch": 64, "duration": 5, "velocity": 122}, {"time": 4066, "pitch": 67, "duration": 4, "velocity": 127}, {"time": 4072, "pitch": 69, "duration": 3, "velocity": 127}, {"time": 4078, "pitch": 71, "duration": 4, "velocity": 127}, {"time": 4084, "pitch": 69, "duration": 5, "velocity": 127}, {"time": 4096, "pitch": 67, "duration": 3, "velocity": 117}, {"time": 4102, "pitch": 69, "duration": 4, "velocity": 127}, {"time": 4108, "pitch": 67, "duration": 4, "velocity": 112}, {"time": 4114, "pitch": 70, "duration": 4, "velocity": 127}, {"time": 4120, "pitch": 69, "duration": 3, "velocity": 127}, {"time": 4123, "pitch": 67, "duration": 3, "velocity": 100}, {"time": 4126, "pitch": 69, "duration": 4, "velocity": 127}, {"time": 4132, "pitch": 71, "duration": 4, "velocity": 127}, {"time": 4138, "pitch": 71, "duration": 5, "velocity": 122}, {"time": 4144, "pitch": 76, "duration": 8, "velocity": 127}, {"time": 4156, "pitch": 71, "duration": 6, "velocity": 122}, {"time": 4162, "pitch": 74, "duration": 7, "velocity": 127}, {"time": 4174, "pitch": 71, "duration": 5, "velocity": 127}, {"time": 4180, "pitch": 69, "duration": 9, "velocity": 117}, {"time": 4192, "pitch": 67, "duration": 4, "velocity": 112}, {"time": 4198, "pitch": 69, "duration": 4, "velocity": 127}, {"time": 4204, "pitch": 67, "duration": 3, "velocity": 102}, {"time": 4210, "pitch": 71, "duration": 6, "velocity": 127}, {"time": 4216, "pitch": 69, "duration": 3, "velocity": 122}, {"time": 4219, "pitch": 67, "duration": 2, "velocity": 107}, {"time": 4222, "pitch": 69, "duration": 5, "velocity": 127}, {"time": 4228, "pitch": 71, "duration": 4, "velocity": 127}, {"time": 4234, "pitch": 71, "duration": 6, "velocity": 117}, {"time": 4240, "pitch": 76, "duration": 11, "velocity": 127}, {"time": 4252, "pitch": 71, "duration": 6, "velocity": 122}, {"time": 4258, "pitch": 74, "duration": 7, "velocity": 127}, {"time": 4270, "pitch": 71, "duration": 6, "velocity": 127}, {"time": 4276, "pitch": 69, "duration": 6, "velocity": 127}, {"time": 4288, "pitch": 67, "duration": 3, "velocity": 112}, {"time": 4294, "pitch": 69, "duration": 4, "velocity": 122}, {"time": 4300, "pitch": 67, "duration": 3, "velocity": 112}, {"time": 4306, "pitch": 71, "duration": 5, "velocity": 127}, {"time": 4312, "pitch": 69, "duration": 3, "velocity": 117}, {"time": 4315, "pitch": 67, "duration": 2, "velocity": 102}, {"time": 4318, "pitch": 69, "duration": 4, "velocity": 127}, {"time": 4324, "pitch": 71, "duration": 5, "velocity": 122}, {"time": 4330, "pitch": 71, "duration": 5, "velocity": 127}, {"time": 4342, "pitch": 64, "duration": 6, "velocity": 122}, {"time": 4354, "pitch": 67, "duration": 4, "velocity": 127}, {"time": 4360, "pitch": 69, "duration": 4, "velocity": 127}, {"time": 4366, "pitch": 71, "duration": 4, "velocity": 127}, {"time": 4372, "pitch": 69, "duration": 6, "velocity": 127}, {"time": 4384, "pitch": 67, "duration": 3, "velocity": 127}, {"time": 4390, "pitch": 69, "duration": 3, "velocity": 122}, {"time": 4396, "pitch": 67, "duration": 3, "velocity": 112}, {"time": 4402, "pitch": 71, "duration": 4, "velocity": 127}, {"time": 4408, "pitch": 69, "duration": 2, "velocity": 117}, {"time": 4411, "pitch": 67, "duration": 2, "velocity": 99}, {"time": 4414, "pitch": 69, "duration": 4, "velocity": 127}, {"time": 4420, "pitch": 71, "duration": 3, "velocity": 127}, {"time": 4426, "pitch": 71, "duration": 5, "velocity": 122}, {"time": 4438, "pitch": 64, "duration": 5, "velocity": 122}, {"time": 4450, "pitch": 67, "duration": 4, "velocity": 127}, {"time": 4456, "pitch": 69, "duration": 3, "velocity": 127}, {"time": 4462, "pitch": 71, "duration": 4, "velocity": 127}, {"time": 4468, "pitch": 69, "duration": 6, "velocity": 127}, {"time": 4480, "pitch": 67, "duration": 3, "velocity": 127}, {"time": 4486, "pitch": 69, "duration": 4, "velocity": 127}, {"time": 4492, "pitch": 67, "duration": 3, "velocity": 127}, {"time": 4498, "pitch": 70, "duration": 4, "velocity": 127}, {"time": 4504, "pitch": 69, "duration": 3, "velocity": 127}, {"time": 4507, "pitch": 67, "duration": 3, "velocity": 112}, {"time": 4510, "pitch": 69, "duration": 4, "velocity": 127}, {"time": 4516, "pitch": 71, "duration": 3, "velocity": 127}, {"time": 4522, "pitch": 64, "duration": 6, "velocity": 127}, {"time": 4528, "pitch": 66, "duration": 5, "velocity": 127}, {"time": 4534, "pitch": 67, "duration": 5, "velocity": 122}, {"time": 4540, "pitch": 64, "duration": 5, "velocity": 107}, {"time": 4546, "pitch": 70, "duration": 5, "velocity": 127}, {"time": 4552, "pitch": 69, "duration": 6, "velocity": 122}, {"time": 4558, "pitch": 67, "duration": 5, "velocity": 122}, {"time": 4564, "pitch": 69, "duration": 4, "velocity": 127}, {"time": 4576, "pitch": 64, "duration": 22, "velocity": 112}, {"time": 4672, "pitch": 69, "duration": 13, "velocity": 122}, {"time": 4684, "pitch": 71, "duration": 133, "velocity": 122}]}, {"program": 0, "is_drum": false, "name": "BRIDGE", "notes": [{"time": 490, "pitch": 64, "duration": 6, "velocity": 100}, {"time": 496, "pitch": 66, "duration": 7, "velocity": 92}, {"time": 502, "pitch": 67, "duration": 6, "velocity": 89}, {"time": 508, "pitch": 64, "duration": 6, "velocity": 93}, {"time": 514, "pitch": 71, "duration": 6, "velocity": 112}, {"time": 520, "pitch": 69, "duration": 5, "velocity": 95}, {"time": 526, "pitch": 67, "duration": 6, "velocity": 102}, {"time": 532, "pitch": 69, "duration": 10, "velocity": 102}, {"time": 544, "pitch": 64, "duration": 27, "velocity": 107}, {"time": 874, "pitch": 64, "duration": 6, "velocity": 100}, {"time": 880, "pitch": 66, "duration": 7, "velocity": 92}, {"time": 886, "pitch": 67, "duration": 6, "velocity": 89}, {"time": 892, "pitch": 64, "duration": 6, "velocity": 93}, {"time": 898, "pitch": 71, "duration": 6, "velocity": 112}, {"time": 904, "pitch": 69, "duration": 5, "velocity": 95}, {"time": 910, "pitch": 67, "duration": 6, "velocity": 102}, {"time": 916, "pitch": 69, "duration": 10, "velocity": 102}, {"time": 928, "pitch": 64, "duration": 27, "velocity": 107}, {"time": 1402, "pitch": 64, "duration": 6, "velocity": 100}, {"time": 1408, "pitch": 66, "duration": 7, "velocity": 92}, {"time": 1414, "pitch": 67, "duration": 6, "velocity": 89}, {"time": 1420, "pitch": 64, "duration": 6, "velocity": 93}, {"time": 1426, "pitch": 71, "duration": 6, "velocity": 112}, {"time": 1432, "pitch": 69, "duration": 5, "velocity": 95}, {"time": 1438, "pitch": 67, "duration": 6, "velocity": 102}, {"time": 1444, "pitch": 69, "duration": 10, "velocity": 102}, {"time": 1456, "pitch": 64, "duration": 27, "velocity": 107}, {"time": 1498, "pitch": 64, "duration": 6, "velocity": 100}, {"time": 1504, "pitch": 66, "duration": 7, "velocity": 92}, {"time": 1510, "pitch": 67, "duration": 6, "velocity": 89}, {"time": 1516, "pitch": 64, "duration": 6, "velocity": 93}, {"time": 1522, "pitch": 71, "duration": 6, "velocity": 112}, {"time": 1528, "pitch": 69, "duration": 5, "velocity": 95}, {"time": 1534, "pitch": 67, "duration": 6, "velocity": 102}, {"time": 1540, "pitch": 69, "duration": 10, "velocity": 102}, {"time": 1552, "pitch": 64, "duration": 27, "velocity": 107}, {"time": 1594, "pitch": 64, "duration": 6, "velocity": 100}, {"time": 1600, "pitch": 66, "duration": 7, "velocity": 92}, {"time": 1606, "pitch": 67, "duration": 6, "velocity": 89}, {"time": 1612, "pitch": 64, "duration": 6, "velocity": 93}, {"time": 1618, "pitch": 71, "duration": 6, "velocity": 112}, {"time": 1624, "pitch": 69, "duration": 5, "velocity": 95}, {"time": 1630, "pitch": 67, "duration": 6, "velocity": 102}, {"time": 1636, "pitch": 69, "duration": 10, "velocity": 102}, {"time": 1648, "pitch": 64, "duration": 27, "velocity": 107}, {"time": 1690, "pitch": 64, "duration": 6, "velocity": 100}, {"time": 1696, "pitch": 66, "duration": 7, "velocity": 92}, {"time": 1702, "pitch": 67, "duration": 6, "velocity": 89}, {"time": 1708, "pitch": 64, "duration": 6, "velocity": 93}, {"time": 1714, "pitch": 71, "duration": 6, "velocity": 112}, {"time": 1720, "pitch": 69, "duration": 5, "velocity": 95}, {"time": 1726, "pitch": 67, "duration": 6, "velocity": 102}, {"time": 1732, "pitch": 69, "duration": 10, "velocity": 102}, {"time": 1744, "pitch": 64, "duration": 27, "velocity": 107}, {"time": 1786, "pitch": 52, "duration": 8, "velocity": 70}, {"time": 1786, "pitch": 59, "duration": 7, "velocity": 92}, {"time": 1786, "pitch": 64, "duration": 7, "velocity": 88}, {"time": 1786, "pitch": 67, "duration": 7, "velocity": 90}, {"time": 1786, "pitch": 71, "duration": 9, "velocity": 89}, {"time": 1798, "pitch": 52, "duration": 8, "velocity": 89}, {"time": 1798, "pitch": 59, "duration": 4, "velocity": 88}, {"time": 1798, "pitch": 64, "duration": 7, "velocity": 86}, {"time": 1798, "pitch": 67, "duration": 7, "velocity": 89}, {"time": 1798, "pitch": 71, "duration": 7, "velocity": 89}, {"time": 1810, "pitch": 55, "duration": 9, "velocity": 65}, {"time": 1810, "pitch": 62, "duration": 8, "velocity": 85}, {"time": 1810, "pitch": 67, "duration": 9, "velocity": 90}, {"time": 1810, "pitch": 71, "duration": 9, "velocity": 81}, {"time": 1822, "pitch": 55, "duration": 7, "velocity": 90}, {"time": 1822, "pitch": 62, "duration": 6, "velocity": 90}, {"time": 1822, "pitch": 67, "duration": 7, "velocity": 96}, {"time": 1822, "pitch": 71, "duration": 5, "velocity": 88}, {"time": 1834, "pitch": 57, "duration": 9, "velocity": 68}, {"time": 1834, "pitch": 64, "duration": 9, "velocity": 89}, {"time": 1834, "pitch": 69, "duration": 9, "velocity": 95}, {"time": 1834, "pitch": 73, "duration": 9, "velocity": 107}, {"time": 1846, "pitch": 57, "duration": 5, "velocity": 90}, {"time": 1846, "pitch": 64, "duration": 5, "velocity": 88}, {"time": 1846, "pitch": 69, "duration": 5, "velocity": 93}, {"time": 1846, "pitch": 73, "duration": 5, "velocity": 100}, {"time": 1858, "pitch": 59, "duration": 5, "velocity": 74}, {"time": 1858, "pitch": 71, "duration": 5, "velocity": 88}, {"time": 1858, "pitch": 75, "duration": 5, "velocity": 99}, {"time": 1858, "pitch": 78, "duration": 5, "velocity": 97}, {"time": 1870, "pitch": 59, "duration": 8, "velocity": 89}, {"time": 1870, "pitch": 71, "duration": 6, "velocity": 75}, {"time": 1870, "pitch": 75, "duration": 8, "velocity": 112}, {"time": 1870, "pitch": 78, "duration": 8, "velocity": 107}, {"time": 1882, "pitch": 52, "duration": 8, "velocity": 70}, {"time": 1882, "pitch": 59, "duration": 7, "velocity": 92}, {"time": 1882, "pitch": 64, "duration": 7, "velocity": 88}, {"time": 1882, "pitch": 67, "duration": 7, "velocity": 90}, {"time": 1882, "pitch": 71, "duration": 9, "velocity": 89}, {"time": 1894, "pitch": 52, "duration": 8, "velocity": 89}, {"time": 1894, "pitch": 59, "duration": 4, "velocity": 88}, {"time": 1894, "pitch": 64, "duration": 7, "velocity": 86}, {"time": 1894, "pitch": 67, "duration": 7, "velocity": 89}, {"time": 1894, "pitch": 71, "duration": 7, "velocity": 89}, {"time": 1906, "pitch": 55, "duration": 9, "velocity": 65}, {"time": 1906, "pitch": 62, "duration": 8, "velocity": 85}, {"time": 1906, "pitch": 67, "duration": 9, "velocity": 90}, {"time": 1906, "pitch": 71, "duration": 9, "velocity": 81}, {"time": 1918, "pitch": 55, "duration": 7, "velocity": 90}, {"time": 1918, "pitch": 62, "duration": 6, "velocity": 90}, {"time": 1918, "pitch": 67, "duration": 7, "velocity": 96}, {"time": 1918, "pitch": 71, "duration": 5, "velocity": 88}, {"time": 1930, "pitch": 57, "duration": 9, "velocity": 68}, {"time": 1930, "pitch": 64, "duration": 9, "velocity": 89}, {"time": 1930, "pitch": 69, "duration": 9, "velocity": 95}, {"time": 1930, "pitch": 73, "duration": 9, "velocity": 107}, {"time": 1942, "pitch": 57, "duration": 5, "velocity": 90}, {"time": 1942, "pitch": 64, "duration": 5, "velocity": 88}, {"time": 1942, "pitch": 69, "duration": 5, "velocity": 93}, {"time": 1942, "pitch": 73, "duration": 5, "velocity": 100}, {"time": 1954, "pitch": 59, "duration": 5, "velocity": 74}, {"time": 1954, "pitch": 71, "duration": 5, "velocity": 88}, {"time": 1954, "pitch": 75, "duration": 5, "velocity": 99}, {"time": 1954, "pitch": 78, "duration": 5, "velocity": 97}, {"time": 1966, "pitch": 59, "duration": 8, "velocity": 89}, {"time": 1966, "pitch": 71, "duration": 6, "velocity": 75}, {"time": 1966, "pitch": 75, "duration": 8, "velocity": 112}, {"time": 1966, "pitch": 78, "duration": 8, "velocity": 107}, {"time": 1978, "pitch": 52, "duration": 8, "velocity": 70}, {"time": 1978, "pitch": 59, "duration": 7, "velocity": 92}, {"time": 1978, "pitch": 64, "duration": 7, "velocity": 88}, {"time": 1978, "pitch": 67, "duration": 7, "velocity": 90}, {"time": 1978, "pitch": 71, "duration": 9, "velocity": 89}, {"time": 1990, "pitch": 52, "duration": 8, "velocity": 89}, {"time": 1990, "pitch": 59, "duration": 4, "velocity": 88}, {"time": 1990, "pitch": 64, "duration": 7, "velocity": 86}, {"time": 1990, "pitch": 67, "duration": 7, "velocity": 89}, {"time": 1990, "pitch": 71, "duration": 7, "velocity": 89}, {"time": 2002, "pitch": 55, "duration": 9, "velocity": 65}, {"time": 2002, "pitch": 62, "duration": 8, "velocity": 85}, {"time": 2002, "pitch": 67, "duration": 9, "velocity": 90}, {"time": 2002, "pitch": 71, "duration": 9, "velocity": 81}, {"time": 2014, "pitch": 55, "duration": 7, "velocity": 90}, {"time": 2014, "pitch": 62, "duration": 6, "velocity": 90}, {"time": 2014, "pitch": 67, "duration": 7, "velocity": 96}, {"time": 2014, "pitch": 71, "duration": 5, "velocity": 88}, {"time": 2026, "pitch": 57, "duration": 9, "velocity": 68}, {"time": 2026, "pitch": 64, "duration": 9, "velocity": 89}, {"time": 2026, "pitch": 69, "duration": 9, "velocity": 95}, {"time": 2026, "pitch": 73, "duration": 9, "velocity": 107}, {"time": 2038, "pitch": 57, "duration": 5, "velocity": 90}, {"time": 2038, "pitch": 64, "duration": 5, "velocity": 88}, {"time": 2038, "pitch": 69, "duration": 5, "velocity": 93}, {"time": 2038, "pitch": 73, "duration": 5, "velocity": 100}, {"time": 2050, "pitch": 59, "duration": 5, "velocity": 74}, {"time": 2050, "pitch": 71, "duration": 5, "velocity": 88}, {"time": 2050, "pitch": 75, "duration": 5, "velocity": 99}, {"time": 2050, "pitch": 78, "duration": 5, "velocity": 97}, {"time": 2062, "pitch": 59, "duration": 8, "velocity": 89}, {"time": 2062, "pitch": 71, "duration": 6, "velocity": 75}, {"time": 2062, "pitch": 75, "duration": 8, "velocity": 112}, {"time": 2062, "pitch": 78, "duration": 8, "velocity": 107}, {"time": 2074, "pitch": 52, "duration": 8, "velocity": 70}, {"time": 2074, "pitch": 59, "duration": 7, "velocity": 92}, {"time": 2074, "pitch": 64, "duration": 7, "velocity": 88}, {"time": 2074, "pitch": 67, "duration": 7, "velocity": 90}, {"time": 2074, "pitch": 71, "duration": 9, "velocity": 89}, {"time": 2086, "pitch": 52, "duration": 8, "velocity": 89}, {"time": 2086, "pitch": 59, "duration": 4, "velocity": 88}, {"time": 2086, "pitch": 64, "duration": 7, "velocity": 86}, {"time": 2086, "pitch": 67, "duration": 7, "velocity": 89}, {"time": 2086, "pitch": 71, "duration": 7, "velocity": 89}, {"time": 2098, "pitch": 55, "duration": 9, "velocity": 65}, {"time": 2098, "pitch": 62, "duration": 8, "velocity": 85}, {"time": 2098, "pitch": 67, "duration": 9, "velocity": 90}, {"time": 2098, "pitch": 71, "duration": 9, "velocity": 81}, {"time": 2110, "pitch": 55, "duration": 7, "velocity": 90}, {"time": 2110, "pitch": 62, "duration": 6, "velocity": 90}, {"time": 2110, "pitch": 67, "duration": 7, "velocity": 96}, {"time": 2110, "pitch": 71, "duration": 5, "velocity": 88}, {"time": 2122, "pitch": 57, "duration": 9, "velocity": 68}, {"time": 2122, "pitch": 64, "duration": 9, "velocity": 89}, {"time": 2122, "pitch": 69, "duration": 9, "velocity": 95}, {"time": 2122, "pitch": 73, "duration": 9, "velocity": 107}, {"time": 2134, "pitch": 57, "duration": 5, "velocity": 90}, {"time": 2134, "pitch": 64, "duration": 5, "velocity": 88}, {"time": 2134, "pitch": 69, "duration": 5, "velocity": 93}, {"time": 2134, "pitch": 73, "duration": 5, "velocity": 100}, {"time": 2146, "pitch": 59, "duration": 5, "velocity": 74}, {"time": 2146, "pitch": 71, "duration": 5, "velocity": 88}, {"time": 2146, "pitch": 75, "duration": 5, "velocity": 99}, {"time": 2146, "pitch": 78, "duration": 5, "velocity": 97}, {"time": 2158, "pitch": 59, "duration": 8, "velocity": 89}, {"time": 2158, "pitch": 71, "duration": 6, "velocity": 75}, {"time": 2158, "pitch": 75, "duration": 8, "velocity": 112}, {"time": 2158, "pitch": 78, "duration": 8, "velocity": 107}, {"time": 2170, "pitch": 52, "duration": 8, "velocity": 70}, {"time": 2170, "pitch": 59, "duration": 7, "velocity": 92}, {"time": 2170, "pitch": 64, "duration": 7, "velocity": 88}, {"time": 2170, "pitch": 67, "duration": 7, "velocity": 90}, {"time": 2170, "pitch": 71, "duration": 9, "velocity": 89}, {"time": 2182, "pitch": 52, "duration": 8, "velocity": 89}, {"time": 2182, "pitch": 59, "duration": 4, "velocity": 88}, {"time": 2182, "pitch": 64, "duration": 7, "velocity": 86}, {"time": 2182, "pitch": 67, "duration": 7, "velocity": 89}, {"time": 2182, "pitch": 71, "duration": 7, "velocity": 89}, {"time": 2194, "pitch": 55, "duration": 9, "velocity": 65}, {"time": 2194, "pitch": 62, "duration": 8, "velocity": 85}, {"time": 2194, "pitch": 67, "duration": 9, "velocity": 90}, {"time": 2194, "pitch": 71, "duration": 9, "velocity": 81}, {"time": 2206, "pitch": 55, "duration": 7, "velocity": 90}, {"time": 2206, "pitch": 62, "duration": 6, "velocity": 90}, {"time": 2206, "pitch": 67, "duration": 7, "velocity": 96}, {"time": 2206, "pitch": 71, "duration": 5, "velocity": 88}, {"time": 2218, "pitch": 57, "duration": 9, "velocity": 68}, {"time": 2218, "pitch": 64, "duration": 9, "velocity": 89}, {"time": 2218, "pitch": 69, "duration": 9, "velocity": 95}, {"time": 2218, "pitch": 73, "duration": 9, "velocity": 107}, {"time": 2230, "pitch": 57, "duration": 5, "velocity": 90}, {"time": 2230, "pitch": 64, "duration": 5, "velocity": 88}, {"time": 2230, "pitch": 69, "duration": 5, "velocity": 93}, {"time": 2230, "pitch": 73, "duration": 5, "velocity": 100}, {"time": 2242, "pitch": 59, "duration": 5, "velocity": 74}, {"time": 2242, "pitch": 71, "duration": 5, "velocity": 88}, {"time": 2242, "pitch": 75, "duration": 5, "velocity": 99}, {"time": 2242, "pitch": 78, "duration": 5, "velocity": 97}, {"time": 2254, "pitch": 59, "duration": 8, "velocity": 89}, {"time": 2254, "pitch": 71, "duration": 6, "velocity": 75}, {"time": 2254, "pitch": 75, "duration": 8, "velocity": 112}, {"time": 2254, "pitch": 78, "duration": 8, "velocity": 107}, {"time": 2266, "pitch": 52, "duration": 8, "velocity": 70}, {"time": 2266, "pitch": 59, "duration": 7, "velocity": 92}, {"time": 2266, "pitch": 64, "duration": 7, "velocity": 88}, {"time": 2266, "pitch": 67, "duration": 7, "velocity": 90}, {"time": 2266, "pitch": 71, "duration": 9, "velocity": 89}, {"time": 2278, "pitch": 52, "duration": 8, "velocity": 89}, {"time": 2278, "pitch": 59, "duration": 4, "velocity": 88}, {"time": 2278, "pitch": 64, "duration": 7, "velocity": 86}, {"time": 2278, "pitch": 67, "duration": 7, "velocity": 89}, {"time": 2278, "pitch": 71, "duration": 7, "velocity": 89}, {"time": 2290, "pitch": 55, "duration": 9, "velocity": 65}, {"time": 2290, "pitch": 62, "duration": 8, "velocity": 85}, {"time": 2290, "pitch": 67, "duration": 9, "velocity": 90}, {"time": 2290, "pitch": 71, "duration": 9, "velocity": 81}, {"time": 2302, "pitch": 55, "duration": 7, "velocity": 90}, {"time": 2302, "pitch": 62, "duration": 6, "velocity": 90}, {"time": 2302, "pitch": 67, "duration": 7, "velocity": 96}, {"time": 2302, "pitch": 71, "duration": 5, "velocity": 88}, {"time": 2314, "pitch": 57, "duration": 9, "velocity": 68}, {"time": 2314, "pitch": 64, "duration": 9, "velocity": 89}, {"time": 2314, "pitch": 69, "duration": 9, "velocity": 95}, {"time": 2314, "pitch": 73, "duration": 9, "velocity": 107}, {"time": 2326, "pitch": 57, "duration": 5, "velocity": 90}, {"time": 2326, "pitch": 64, "duration": 5, "velocity": 88}, {"time": 2326, "pitch": 69, "duration": 5, "velocity": 93}, {"time": 2326, "pitch": 73, "duration": 5, "velocity": 100}, {"time": 2338, "pitch": 59, "duration": 5, "velocity": 74}, {"time": 2338, "pitch": 71, "duration": 5, "velocity": 88}, {"time": 2338, "pitch": 75, "duration": 5, "velocity": 99}, {"time": 2338, "pitch": 78, "duration": 5, "velocity": 97}, {"time": 2350, "pitch": 59, "duration": 8, "velocity": 89}, {"time": 2350, "pitch": 71, "duration": 6, "velocity": 75}, {"time": 2350, "pitch": 75, "duration": 8, "velocity": 112}, {"time": 2350, "pitch": 78, "duration": 8, "velocity": 107}, {"time": 2362, "pitch": 64, "duration": 6, "velocity": 100}, {"time": 2368, "pitch": 66, "duration": 7, "velocity": 92}, {"time": 2374, "pitch": 67, "duration": 6, "velocity": 89}, {"time": 2380, "pitch": 64, "duration": 6, "velocity": 93}, {"time": 2386, "pitch": 71, "duration": 6, "velocity": 112}, {"time": 2392, "pitch": 69, "duration": 5, "velocity": 95}, {"time": 2398, "pitch": 67, "duration": 6, "velocity": 102}, {"time": 2404, "pitch": 69, "duration": 10, "velocity": 102}, {"time": 2416, "pitch": 64, "duration": 27, "velocity": 107}, {"time": 2458, "pitch": 64, "duration": 6, "velocity": 100}, {"time": 2464, "pitch": 66, "duration": 7, "velocity": 92}, {"time": 2470, "pitch": 67, "duration": 6, "velocity": 89}, {"time": 2476, "pitch": 64, "duration": 6, "velocity": 93}, {"time": 2482, "pitch": 71, "duration": 6, "velocity": 112}, {"time": 2488, "pitch": 69, "duration": 5, "velocity": 95}, {"time": 2494, "pitch": 67, "duration": 6, "velocity": 102}, {"time": 2500, "pitch": 69, "duration": 10, "velocity": 102}, {"time": 2512, "pitch": 64, "duration": 27, "velocity": 107}, {"time": 2668, "pitch": 62, "duration": 10, "velocity": 88}, {"time": 2680, "pitch": 57, "duration": 4, "velocity": 88}, {"time": 2680, "pitch": 60, "duration": 5, "velocity": 88}, {"time": 2686, "pitch": 59, "duration": 2, "velocity": 89}, {"time": 2686, "pitch": 55, "duration": 3, "velocity": 89}, {"time": 2692, "pitch": 57, "duration": 18, "velocity": 89}, {"time": 2692, "pitch": 54, "duration": 18, "velocity": 89}, {"time": 3658, "pitch": 64, "duration": 6, "velocity": 100}, {"time": 3664, "pitch": 66, "duration": 7, "velocity": 92}, {"time": 3670, "pitch": 67, "duration": 6, "velocity": 89}, {"time": 3676, "pitch": 64, "duration": 6, "velocity": 93}, {"time": 3682, "pitch": 71, "duration": 6, "velocity": 112}, {"time": 3688, "pitch": 69, "duration": 5, "velocity": 95}, {"time": 3694, "pitch": 67, "duration": 6, "velocity": 102}, {"time": 3700, "pitch": 69, "duration": 10, "velocity": 102}, {"time": 3712, "pitch": 64, "duration": 27, "velocity": 107}, {"time": 3904, "pitch": 75, "duration": 37, "velocity": 122}, {"time": 3946, "pitch": 52, "duration": 8, "velocity": 70}, {"time": 3946, "pitch": 59, "duration": 7, "velocity": 92}, {"time": 3946, "pitch": 64, "duration": 7, "velocity": 88}, {"time": 3946, "pitch": 67, "duration": 7, "velocity": 90}, {"time": 3946, "pitch": 71, "duration": 9, "velocity": 89}, {"time": 3958, "pitch": 52, "duration": 8, "velocity": 89}, {"time": 3958, "pitch": 59, "duration": 4, "velocity": 88}, {"time": 3958, "pitch": 64, "duration": 7, "velocity": 86}, {"time": 3958, "pitch": 67, "duration": 7, "velocity": 89}, {"time": 3958, "pitch": 71, "duration": 7, "velocity": 89}, {"time": 3970, "pitch": 55, "duration": 9, "velocity": 65}, {"time": 3970, "pitch": 62, "duration": 8, "velocity": 85}, {"time": 3970, "pitch": 67, "duration": 9, "velocity": 90}, {"time": 3970, "pitch": 71, "duration": 9, "velocity": 81}, {"time": 3982, "pitch": 55, "duration": 7, "velocity": 90}, {"time": 3982, "pitch": 62, "duration": 6, "velocity": 90}, {"time": 3982, "pitch": 67, "duration": 7, "velocity": 96}, {"time": 3982, "pitch": 71, "duration": 5, "velocity": 88}, {"time": 3994, "pitch": 57, "duration": 9, "velocity": 68}, {"time": 3994, "pitch": 64, "duration": 9, "velocity": 89}, {"time": 3994, "pitch": 69, "duration": 9, "velocity": 95}, {"time": 3994, "pitch": 73, "duration": 9, "velocity": 107}, {"time": 4006, "pitch": 57, "duration": 5, "velocity": 90}, {"time": 4006, "pitch": 64, "duration": 5, "velocity": 88}, {"time": 4006, "pitch": 69, "duration": 5, "velocity": 93}, {"time": 4006, "pitch": 73, "duration": 5, "velocity": 100}, {"time": 4018, "pitch": 59, "duration": 5, "velocity": 74}, {"time": 4018, "pitch": 71, "duration": 5, "velocity": 88}, {"time": 4018, "pitch": 75, "duration": 5, "velocity": 99}, {"time": 4018, "pitch": 78, "duration": 5, "velocity": 97}, {"time": 4030, "pitch": 59, "duration": 8, "velocity": 89}, {"time": 4030, "pitch": 71, "duration": 6, "velocity": 75}, {"time": 4030, "pitch": 75, "duration": 8, "velocity": 112}, {"time": 4030, "pitch": 78, "duration": 8, "velocity": 107}, {"time": 4042, "pitch": 52, "duration": 8, "velocity": 70}, {"time": 4042, "pitch": 59, "duration": 7, "velocity": 92}, {"time": 4042, "pitch": 64, "duration": 7, "velocity": 88}, {"time": 4042, "pitch": 67, "duration": 7, "velocity": 90}, {"time": 4042, "pitch": 71, "duration": 9, "velocity": 89}, {"time": 4054, "pitch": 52, "duration": 8, "velocity": 89}, {"time": 4054, "pitch": 59, "duration": 4, "velocity": 88}, {"time": 4054, "pitch": 64, "duration": 7, "velocity": 86}, {"time": 4054, "pitch": 67, "duration": 7, "velocity": 89}, {"time": 4054, "pitch": 71, "duration": 7, "velocity": 89}, {"time": 4066, "pitch": 55, "duration": 9, "velocity": 65}, {"time": 4066, "pitch": 62, "duration": 8, "velocity": 85}, {"time": 4066, "pitch": 67, "duration": 9, "velocity": 90}, {"time": 4066, "pitch": 71, "duration": 9, "velocity": 81}, {"time": 4078, "pitch": 55, "duration": 7, "velocity": 90}, {"time": 4078, "pitch": 62, "duration": 6, "velocity": 90}, {"time": 4078, "pitch": 67, "duration": 7, "velocity": 96}, {"time": 4078, "pitch": 71, "duration": 5, "velocity": 88}, {"time": 4090, "pitch": 57, "duration": 9, "velocity": 68}, {"time": 4090, "pitch": 64, "duration": 9, "velocity": 89}, {"time": 4090, "pitch": 69, "duration": 9, "velocity": 95}, {"time": 4090, "pitch": 73, "duration": 9, "velocity": 107}, {"time": 4102, "pitch": 57, "duration": 5, "velocity": 90}, {"time": 4102, "pitch": 64, "duration": 5, "velocity": 88}, {"time": 4102, "pitch": 69, "duration": 5, "velocity": 93}, {"time": 4102, "pitch": 73, "duration": 5, "velocity": 100}, {"time": 4114, "pitch": 59, "duration": 5, "velocity": 74}, {"time": 4114, "pitch": 71, "duration": 5, "velocity": 88}, {"time": 4114, "pitch": 75, "duration": 5, "velocity": 99}, {"time": 4114, "pitch": 78, "duration": 5, "velocity": 97}, {"time": 4126, "pitch": 59, "duration": 8, "velocity": 89}, {"time": 4126, "pitch": 71, "duration": 6, "velocity": 75}, {"time": 4126, "pitch": 75, "duration": 8, "velocity": 112}, {"time": 4126, "pitch": 78, "duration": 8, "velocity": 107}, {"time": 4138, "pitch": 52, "duration": 8, "velocity": 70}, {"time": 4138, "pitch": 59, "duration": 7, "velocity": 92}, {"time": 4138, "pitch": 64, "duration": 7, "velocity": 88}, {"time": 4138, "pitch": 67, "duration": 7, "velocity": 90}, {"time": 4138, "pitch": 71, "duration": 9, "velocity": 89}, {"time": 4150, "pitch": 52, "duration": 8, "velocity": 89}, {"time": 4150, "pitch": 59, "duration": 4, "velocity": 88}, {"time": 4150, "pitch": 64, "duration": 7, "velocity": 86}, {"time": 4150, "pitch": 67, "duration": 7, "velocity": 89}, {"time": 4150, "pitch": 71, "duration": 7, "velocity": 89}, {"time": 4162, "pitch": 55, "duration": 9, "velocity": 65}, {"time": 4162, "pitch": 62, "duration": 8, "velocity": 85}, {"time": 4162, "pitch": 67, "duration": 9, "velocity": 90}, {"time": 4162, "pitch": 71, "duration": 9, "velocity": 81}, {"time": 4174, "pitch": 55, "duration": 7, "velocity": 90}, {"time": 4174, "pitch": 62, "duration": 6, "velocity": 90}, {"time": 4174, "pitch": 67, "duration": 7, "velocity": 96}, {"time": 4174, "pitch": 71, "duration": 5, "velocity": 88}, {"time": 4186, "pitch": 57, "duration": 9, "velocity": 68}, {"time": 4186, "pitch": 64, "duration": 9, "velocity": 89}, {"time": 4186, "pitch": 69, "duration": 9, "velocity": 95}, {"time": 4186, "pitch": 73, "duration": 9, "velocity": 107}, {"time": 4198, "pitch": 57, "duration": 5, "velocity": 90}, {"time": 4198, "pitch": 64, "duration": 5, "velocity": 88}, {"time": 4198, "pitch": 69, "duration": 5, "velocity": 93}, {"time": 4198, "pitch": 73, "duration": 5, "velocity": 100}, {"time": 4210, "pitch": 59, "duration": 5, "velocity": 74}, {"time": 4210, "pitch": 71, "duration": 5, "velocity": 88}, {"time": 4210, "pitch": 75, "duration": 5, "velocity": 99}, {"time": 4210, "pitch": 78, "duration": 5, "velocity": 97}, {"time": 4222, "pitch": 59, "duration": 8, "velocity": 89}, {"time": 4222, "pitch": 71, "duration": 6, "velocity": 75}, {"time": 4222, "pitch": 75, "duration": 8, "velocity": 112}, {"time": 4222, "pitch": 78, "duration": 8, "velocity": 107}, {"time": 4234, "pitch": 52, "duration": 8, "velocity": 70}, {"time": 4234, "pitch": 59, "duration": 7, "velocity": 92}, {"time": 4234, "pitch": 64, "duration": 7, "velocity": 88}, {"time": 4234, "pitch": 67, "duration": 7, "velocity": 90}, {"time": 4234, "pitch": 71, "duration": 9, "velocity": 89}, {"time": 4246, "pitch": 52, "duration": 8, "velocity": 89}, {"time": 4246, "pitch": 59, "duration": 4, "velocity": 88}, {"time": 4246, "pitch": 64, "duration": 7, "velocity": 86}, {"time": 4246, "pitch": 67, "duration": 7, "velocity": 89}, {"time": 4246, "pitch": 71, "duration": 7, "velocity": 89}, {"time": 4258, "pitch": 55, "duration": 9, "velocity": 65}, {"time": 4258, "pitch": 62, "duration": 8, "velocity": 85}, {"time": 4258, "pitch": 67, "duration": 9, "velocity": 90}, {"time": 4258, "pitch": 71, "duration": 9, "velocity": 81}, {"time": 4270, "pitch": 55, "duration": 7, "velocity": 90}, {"time": 4270, "pitch": 62, "duration": 6, "velocity": 90}, {"time": 4270, "pitch": 67, "duration": 7, "velocity": 96}, {"time": 4270, "pitch": 71, "duration": 5, "velocity": 88}, {"time": 4282, "pitch": 57, "duration": 9, "velocity": 68}, {"time": 4282, "pitch": 64, "duration": 9, "velocity": 89}, {"time": 4282, "pitch": 69, "duration": 9, "velocity": 95}, {"time": 4282, "pitch": 73, "duration": 9, "velocity": 107}, {"time": 4294, "pitch": 57, "duration": 5, "velocity": 90}, {"time": 4294, "pitch": 64, "duration": 5, "velocity": 88}, {"time": 4294, "pitch": 69, "duration": 5, "velocity": 93}, {"time": 4294, "pitch": 73, "duration": 5, "velocity": 100}, {"time": 4306, "pitch": 59, "duration": 5, "velocity": 74}, {"time": 4306, "pitch": 71, "duration": 5, "velocity": 88}, {"time": 4306, "pitch": 75, "duration": 5, "velocity": 99}, {"time": 4306, "pitch": 78, "duration": 5, "velocity": 97}, {"time": 4318, "pitch": 59, "duration": 8, "velocity": 89}, {"time": 4318, "pitch": 71, "duration": 6, "velocity": 75}, {"time": 4318, "pitch": 75, "duration": 8, "velocity": 112}, {"time": 4318, "pitch": 78, "duration": 8, "velocity": 107}, {"time": 4330, "pitch": 52, "duration": 8, "velocity": 70}, {"time": 4330, "pitch": 59, "duration": 7, "velocity": 92}, {"time": 4330, "pitch": 64, "duration": 7, "velocity": 88}, {"time": 4330, "pitch": 67, "duration": 7, "velocity": 90}, {"time": 4330, "pitch": 71, "duration": 9, "velocity": 89}, {"time": 4342, "pitch": 52, "duration": 8, "velocity": 89}, {"time": 4342, "pitch": 59, "duration": 4, "velocity": 88}, {"time": 4342, "pitch": 64, "duration": 7, "velocity": 86}, {"time": 4342, "pitch": 67, "duration": 7, "velocity": 89}, {"time": 4342, "pitch": 71, "duration": 7, "velocity": 89}, {"time": 4354, "pitch": 55, "duration": 9, "velocity": 65}, {"time": 4354, "pitch": 62, "duration": 8, "velocity": 85}, {"time": 4354, "pitch": 67, "duration": 9, "velocity": 90}, {"time": 4354, "pitch": 71, "duration": 9, "velocity": 81}, {"time": 4366, "pitch": 55, "duration": 7, "velocity": 90}, {"time": 4366, "pitch": 62, "duration": 6, "velocity": 90}, {"time": 4366, "pitch": 67, "duration": 7, "velocity": 96}, {"time": 4366, "pitch": 71, "duration": 5, "velocity": 88}, {"time": 4378, "pitch": 57, "duration": 9, "velocity": 68}, {"time": 4378, "pitch": 64, "duration": 9, "velocity": 89}, {"time": 4378, "pitch": 69, "duration": 9, "velocity": 95}, {"time": 4378, "pitch": 73, "duration": 9, "velocity": 107}, {"time": 4390, "pitch": 57, "duration": 5, "velocity": 90}, {"time": 4390, "pitch": 64, "duration": 5, "velocity": 88}, {"time": 4390, "pitch": 69, "duration": 5, "velocity": 93}, {"time": 4390, "pitch": 73, "duration": 5, "velocity": 100}, {"time": 4402, "pitch": 59, "duration": 5, "velocity": 74}, {"time": 4402, "pitch": 71, "duration": 5, "velocity": 88}, {"time": 4402, "pitch": 75, "duration": 5, "velocity": 99}, {"time": 4402, "pitch": 78, "duration": 5, "velocity": 97}, {"time": 4414, "pitch": 59, "duration": 8, "velocity": 89}, {"time": 4414, "pitch": 71, "duration": 6, "velocity": 75}, {"time": 4414, "pitch": 75, "duration": 8, "velocity": 112}, {"time": 4414, "pitch": 78, "duration": 8, "velocity": 107}, {"time": 4426, "pitch": 52, "duration": 8, "velocity": 70}, {"time": 4426, "pitch": 59, "duration": 7, "velocity": 92}, {"time": 4426, "pitch": 64, "duration": 7, "velocity": 88}, {"time": 4426, "pitch": 67, "duration": 7, "velocity": 90}, {"time": 4426, "pitch": 71, "duration": 9, "velocity": 89}, {"time": 4438, "pitch": 52, "duration": 8, "velocity": 89}, {"time": 4438, "pitch": 59, "duration": 4, "velocity": 88}, {"time": 4438, "pitch": 64, "duration": 7, "velocity": 86}, {"time": 4438, "pitch": 67, "duration": 7, "velocity": 89}, {"time": 4438, "pitch": 71, "duration": 7, "velocity": 89}, {"time": 4450, "pitch": 55, "duration": 9, "velocity": 65}, {"time": 4450, "pitch": 62, "duration": 8, "velocity": 85}, {"time": 4450, "pitch": 67, "duration": 9, "velocity": 90}, {"time": 4450, "pitch": 71, "duration": 9, "velocity": 81}, {"time": 4462, "pitch": 55, "duration": 7, "velocity": 90}, {"time": 4462, "pitch": 62, "duration": 6, "velocity": 90}, {"time": 4462, "pitch": 67, "duration": 7, "velocity": 96}, {"time": 4462, "pitch": 71, "duration": 5, "velocity": 88}, {"time": 4474, "pitch": 57, "duration": 9, "velocity": 68}, {"time": 4474, "pitch": 64, "duration": 9, "velocity": 89}, {"time": 4474, "pitch": 69, "duration": 9, "velocity": 95}, {"time": 4474, "pitch": 73, "duration": 9, "velocity": 107}, {"time": 4486, "pitch": 57, "duration": 5, "velocity": 90}, {"time": 4486, "pitch": 64, "duration": 5, "velocity": 88}, {"time": 4486, "pitch": 69, "duration": 5, "velocity": 93}, {"time": 4486, "pitch": 73, "duration": 5, "velocity": 100}, {"time": 4498, "pitch": 59, "duration": 5, "velocity": 74}, {"time": 4498, "pitch": 71, "duration": 5, "velocity": 88}, {"time": 4498, "pitch": 75, "duration": 5, "velocity": 99}, {"time": 4498, "pitch": 78, "duration": 5, "velocity": 97}, {"time": 4510, "pitch": 59, "duration": 8, "velocity": 89}, {"time": 4510, "pitch": 71, "duration": 6, "velocity": 75}, {"time": 4510, "pitch": 75, "duration": 8, "velocity": 112}, {"time": 4510, "pitch": 78, "duration": 8, "velocity": 107}, {"time": 4522, "pitch": 52, "duration": 8, "velocity": 70}, {"time": 4522, "pitch": 59, "duration": 7, "velocity": 92}, {"time": 4522, "pitch": 64, "duration": 7, "velocity": 88}, {"time": 4522, "pitch": 67, "duration": 7, "velocity": 90}, {"time": 4522, "pitch": 71, "duration": 9, "velocity": 89}, {"time": 4534, "pitch": 52, "duration": 8, "velocity": 89}, {"time": 4534, "pitch": 59, "duration": 4, "velocity": 88}, {"time": 4534, "pitch": 64, "duration": 7, "velocity": 86}, {"time": 4534, "pitch": 67, "duration": 7, "velocity": 89}, {"time": 4534, "pitch": 71, "duration": 7, "velocity": 89}, {"time": 4546, "pitch": 55, "duration": 9, "velocity": 65}, {"time": 4546, "pitch": 62, "duration": 8, "velocity": 85}, {"time": 4546, "pitch": 67, "duration": 9, "velocity": 90}, {"time": 4546, "pitch": 71, "duration": 9, "velocity": 81}, {"time": 4558, "pitch": 55, "duration": 7, "velocity": 90}, {"time": 4558, "pitch": 62, "duration": 6, "velocity": 90}, {"time": 4558, "pitch": 67, "duration": 7, "velocity": 96}, {"time": 4558, "pitch": 71, "duration": 5, "velocity": 88}, {"time": 4570, "pitch": 57, "duration": 9, "velocity": 68}, {"time": 4570, "pitch": 64, "duration": 9, "velocity": 89}, {"time": 4570, "pitch": 69, "duration": 9, "velocity": 95}, {"time": 4570, "pitch": 73, "duration": 9, "velocity": 107}, {"time": 4582, "pitch": 57, "duration": 5, "velocity": 90}, {"time": 4582, "pitch": 64, "duration": 5, "velocity": 88}, {"time": 4582, "pitch": 69, "duration": 5, "velocity": 93}, {"time": 4582, "pitch": 73, "duration": 5, "velocity": 100}, {"time": 4594, "pitch": 59, "duration": 5, "velocity": 74}, {"time": 4594, "pitch": 71, "duration": 5, "velocity": 88}, {"time": 4594, "pitch": 75, "duration": 5, "velocity": 99}, {"time": 4594, "pitch": 78, "duration": 5, "velocity": 97}, {"time": 4606, "pitch": 59, "duration": 8, "velocity": 89}, {"time": 4606, "pitch": 71, "duration": 6, "velocity": 75}, {"time": 4606, "pitch": 75, "duration": 8, "velocity": 112}, {"time": 4606, "pitch": 78, "duration": 8, "velocity": 107}, {"time": 4618, "pitch": 52, "duration": 8, "velocity": 70}, {"time": 4618, "pitch": 59, "duration": 7, "velocity": 92}, {"time": 4618, "pitch": 64, "duration": 6, "velocity": 88}, {"time": 4618, "pitch": 64, "duration": 6, "velocity": 112}, {"time": 4618, "pitch": 67, "duration": 7, "velocity": 90}, {"time": 4618, "pitch": 71, "duration": 9, "velocity": 89}, {"time": 4624, "pitch": 66, "duration": 6, "velocity": 107}, {"time": 4630, "pitch": 52, "duration": 8, "velocity": 89}, {"time": 4630, "pitch": 59, "duration": 4, "velocity": 88}, {"time": 4630, "pitch": 64, "duration": 7, "velocity": 86}, {"time": 4630, "pitch": 67, "duration": 6, "velocity": 89}, {"time": 4630, "pitch": 67, "duration": 6, "velocity": 96}, {"time": 4630, "pitch": 71, "duration": 7, "velocity": 89}, {"time": 4636, "pitch": 64, "duration": 1, "velocity": 93}, {"time": 4642, "pitch": 55, "duration": 9, "velocity": 65}, {"time": 4642, "pitch": 62, "duration": 8, "velocity": 85}, {"time": 4642, "pitch": 67, "duration": 9, "velocity": 90}, {"time": 4642, "pitch": 71, "duration": 7, "velocity": 81}, {"time": 4642, "pitch": 71, "duration": 7, "velocity": 122}, {"time": 4648, "pitch": 69, "duration": 6, "velocity": 99}, {"time": 4654, "pitch": 55, "duration": 7, "velocity": 90}, {"time": 4654, "pitch": 62, "duration": 6, "velocity": 90}, {"time": 4654, "pitch": 67, "duration": 5, "velocity": 96}, {"time": 4654, "pitch": 67, "duration": 5, "velocity": 127}, {"time": 4654, "pitch": 71, "duration": 5, "velocity": 88}, {"time": 4660, "pitch": 69, "duration": 12, "velocity": 127}, {"time": 4666, "pitch": 57, "duration": 9, "velocity": 68}, {"time": 4666, "pitch": 64, "duration": 9, "velocity": 89}, {"time": 4666, "pitch": 69, "duration": 6, "velocity": 95}, {"time": 4666, "pitch": 73, "duration": 9, "velocity": 107}, {"time": 4672, "pitch": 64, "duration": 3, "velocity": 112}, {"time": 4678, "pitch": 57, "duration": 5, "velocity": 90}, {"time": 4678, "pitch": 64, "duration": 5, "velocity": 88}, {"time": 4678, "pitch": 69, "duration": 5, "velocity": 93}, {"time": 4678, "pitch": 73, "duration": 5, "velocity": 100}, {"time": 4690, "pitch": 59, "duration": 5, "velocity": 74}, {"time": 4690, "pitch": 71, "duration": 5, "velocity": 88}, {"time": 4690, "pitch": 75, "duration": 5, "velocity": 99}, {"time": 4690, "pitch": 78, "duration": 5, "velocity": 97}, {"time": 4702, "pitch": 59, "duration": 8, "velocity": 89}, {"time": 4702, "pitch": 71, "duration": 6, "velocity": 75}, {"time": 4702, "pitch": 75, "duration": 8, "velocity": 112}, {"time": 4702, "pitch": 78, "duration": 8, "velocity": 107}, {"time": 4714, "pitch": 52, "duration": 6, "velocity": 107}, {"time": 4714, "pitch": 64, "duration": 6, "velocity": 107}, {"time": 4720, "pitch": 54, "duration": 5, "velocity": 100}, {"time": 4720, "pitch": 66, "duration": 5, "velocity": 100}, {"time": 4726, "pitch": 55, "duration": 5, "velocity": 97}, {"time": 4726, "pitch": 67, "duration": 5, "velocity": 97}, {"time": 4732, "pitch": 52, "duration": 5, "velocity": 92}, {"time": 4732, "pitch": 64, "duration": 5, "velocity": 92}, {"time": 4738, "pitch": 58, "duration": 5, "velocity": 127}, {"time": 4738, "pitch": 70, "duration": 5, "velocity": 127}, {"time": 4744, "pitch": 57, "duration": 5, "velocity": 97}, {"time": 4744, "pitch": 69, "duration": 5, "velocity": 97}, {"time": 4750, "pitch": 55, "duration": 7, "velocity": 96}, {"time": 4750, "pitch": 67, "duration": 7, "velocity": 96}, {"time": 4756, "pitch": 57, "duration": 5, "velocity": 102}, {"time": 4756, "pitch": 69, "duration": 5, "velocity": 102}, {"time": 4762, "pitch": 52, "duration": 7, "velocity": 99}, {"time": 4762, "pitch": 64, "duration": 7, "velocity": 99}, {"time": 4768, "pitch": 54, "duration": 6, "velocity": 107}, {"time": 4768, "pitch": 66, "duration": 6, "velocity": 107}, {"time": 4774, "pitch": 55, "duration": 6, "velocity": 89}, {"time": 4774, "pitch": 67, "duration": 6, "velocity": 89}, {"time": 4780, "pitch": 52, "duration": 6, "velocity": 86}, {"time": 4780, "pitch": 64, "duration": 6, "velocity": 86}, {"time": 4786, "pitch": 58, "duration": 6, "velocity": 122}, {"time": 4786, "pitch": 70, "duration": 6, "velocity": 122}, {"time": 4792, "pitch": 57, "duration": 6, "velocity": 93}, {"time": 4792, "pitch": 69, "duration": 6, "velocity": 93}, {"time": 4798, "pitch": 55, "duration": 6, "velocity": 102}, {"time": 4798, "pitch": 67, "duration": 6, "velocity": 102}, {"time": 4804, "pitch": 57, "duration": 6, "velocity": 97}, {"time": 4804, "pitch": 69, "duration": 6, "velocity": 97}, {"time": 4810, "pitch": 52, "duration": 7, "velocity": 99}, {"time": 4810, "pitch": 64, "duration": 7, "velocity": 99}, {"time": 4816, "pitch": 54, "duration": 7, "velocity": 107}, {"time": 4816, "pitch": 66, "duration": 7, "velocity": 107}, {"time": 4822, "pitch": 55, "duration": 5, "velocity": 92}, {"time": 4822, "pitch": 67, "duration": 5, "velocity": 92}, {"time": 4828, "pitch": 52, "duration": 6, "velocity": 92}, {"time": 4828, "pitch": 64, "duration": 6, "velocity": 92}, {"time": 4834, "pitch": 58, "duration": 7, "velocity": 117}, {"time": 4834, "pitch": 70, "duration": 7, "velocity": 117}, {"time": 4840, "pitch": 57, "duration": 6, "velocity": 99}, {"time": 4840, "pitch": 69, "duration": 6, "velocity": 99}, {"time": 4846, "pitch": 55, "duration": 6, "velocity": 112}, {"time": 4846, "pitch": 67, "duration": 6, "velocity": 112}, {"time": 4852, "pitch": 57, "duration": 1, "velocity": 112}, {"time": 4852, "pitch": 69, "duration": 1, "velocity": 112}, {"time": 4855, "pitch": 57, "duration": 8, "velocity": 122}, {"time": 4855, "pitch": 69, "duration": 8, "velocity": 122}]}, {"program": 0, "is_drum": false, "name": "PIANO", "notes": [{"time": 10, "pitch": 38, "duration": 2, "velocity": 99}, {"time": 10, "pitch": 50, "duration": 2, "velocity": 99}, {"time": 13, "pitch": 40, "duration": 2, "velocity": 82}, {"time": 13, "pitch": 52, "duration": 2, "velocity": 82}, {"time": 16, "pitch": 40, "duration": 2, "velocity": 69}, {"time": 16, "pitch": 52, "duration": 2, "velocity": 69}, {"time": 19, "pitch": 40, "duration": 2, "velocity": 73}, {"time": 19, "pitch": 52, "duration": 2, "velocity": 73}, {"time": 22, "pitch": 40, "duration": 3, "velocity": 83}, {"time": 22, "pitch": 52, "duration": 3, "velocity": 79}, {"time": 22, "pitch": 52, "duration": 3, "velocity": 83}, {"time": 22, "pitch": 64, "duration": 14, "velocity": 82}, {"time": 22, "pitch": 67, "duration": 14, "velocity": 75}, {"time": 22, "pitch": 71, "duration": 15, "velocity": 78}, {"time": 28, "pitch": 40, "duration": 1, "velocity": 93}, {"time": 28, "pitch": 52, "duration": 1, "velocity": 93}, {"time": 31, "pitch": 40, "duration": 1, "velocity": 92}, {"time": 31, "pitch": 52, "duration": 1, "velocity": 92}, {"time": 34, "pitch": 40, "duration": 2, "velocity": 97}, {"time": 34, "pitch": 52, "duration": 1, "velocity": 97}, {"time": 37, "pitch": 43, "duration": 2, "velocity": 88}, {"time": 37, "pitch": 55, "duration": 2, "velocity": 88}, {"time": 40, "pitch": 43, "duration": 2, "velocity": 72}, {"time": 40, "pitch": 55, "duration": 2, "velocity": 72}, {"time": 43, "pitch": 43, "duration": 2, "velocity": 75}, {"time": 43, "pitch": 55, "duration": 2, "velocity": 75}, {"time": 46, "pitch": 43, "duration": 6, "velocity": 88}, {"time": 46, "pitch": 55, "duration": 6, "velocity": 74}, {"time": 46, "pitch": 55, "duration": 6, "velocity": 88}, {"time": 46, "pitch": 62, "duration": 16, "velocity": 75}, {"time": 46, "pitch": 67, "duration": 15, "velocity": 85}, {"time": 46, "pitch": 71, "duration": 16, "velocity": 92}, {"time": 46, "pitch": 74, "duration": 15, "velocity": 86}, {"time": 52, "pitch": 43, "duration": 1, "velocity": 92}, {"time": 52, "pitch": 55, "duration": 1, "velocity": 92}, {"time": 55, "pitch": 43, "duration": 2, "velocity": 82}, {"time": 55, "pitch": 55, "duration": 2, "velocity": 82}, {"time": 58, "pitch": 43, "duration": 2, "velocity": 97}, {"time": 58, "pitch": 55, "duration": 2, "velocity": 97}, {"time": 61, "pitch": 45, "duration": 2, "velocity": 95}, {"time": 61, "pitch": 57, "duration": 2, "velocity": 95}, {"time": 64, "pitch": 45, "duration": 2, "velocity": 85}, {"time": 64, "pitch": 57, "duration": 2, "velocity": 85}, {"time": 67, "pitch": 45, "duration": 2, "velocity": 78}, {"time": 67, "pitch": 57, "duration": 2, "velocity": 78}, {"time": 70, "pitch": 45, "duration": 5, "velocity": 90}, {"time": 70, "pitch": 57, "duration": 5, "velocity": 69}, {"time": 70, "pitch": 57, "duration": 5, "velocity": 90}, {"time": 70, "pitch": 61, "duration": 12, "velocity": 78}, {"time": 70, "pitch": 64, "duration": 13, "velocity": 58}, {"time": 70, "pitch": 69, "duration": 14, "velocity": 78}, {"time": 70, "pitch": 73, "duration": 13, "velocity": 97}, {"time": 70, "pitch": 76, "duration": 14, "velocity": 82}, {"time": 76, "pitch": 45, "duration": 1, "velocity": 93}, {"time": 76, "pitch": 57, "duration": 1, "velocity": 93}, {"time": 79, "pitch": 45, "duration": 1, "velocity": 72}, {"time": 79, "pitch": 57, "duration": 1, "velocity": 72}, {"time": 82, "pitch": 45, "duration": 2, "velocity": 95}, {"time": 82, "pitch": 57, "duration": 1, "velocity": 95}, {"time": 85, "pitch": 47, "duration": 2, "velocity": 88}, {"time": 85, "pitch": 59, "duration": 2, "velocity": 88}, {"time": 88, "pitch": 47, "duration": 2, "velocity": 79}, {"time": 88, "pitch": 59, "duration": 2, "velocity": 79}, {"time": 91, "pitch": 47, "duration": 2, "velocity": 76}, {"time": 91, "pitch": 59, "duration": 2, "velocity": 76}, {"time": 94, "pitch": 47, "duration": 5, "velocity": 88}, {"time": 94, "pitch": 59, "duration": 5, "velocity": 77}, {"time": 94, "pitch": 59, "duration": 5, "velocity": 88}, {"time": 94, "pitch": 66, "duration": 11, "velocity": 63}, {"time": 94, "pitch": 71, "duration": 12, "velocity": 78}, {"time": 94, "pitch": 75, "duration": 12, "velocity": 96}, {"time": 94, "pitch": 78, "duration": 12, "velocity": 90}, {"time": 100, "pitch": 47, "duration": 1, "velocity": 99}, {"time": 100, "pitch": 59, "duration": 1, "velocity": 99}, {"time": 103, "pitch": 47, "duration": 2, "velocity": 93}, {"time": 103, "pitch": 59, "duration": 2, "velocity": 93}, {"time": 106, "pitch": 38, "duration": 2, "velocity": 99}, {"time": 106, "pitch": 50, "duration": 2, "velocity": 99}, {"time": 109, "pitch": 40, "duration": 2, "velocity": 82}, {"time": 109, "pitch": 52, "duration": 2, "velocity": 82}, {"time": 112, "pitch": 40, "duration": 2, "velocity": 69}, {"time": 112, "pitch": 52, "duration": 2, "velocity": 69}, {"time": 115, "pitch": 40, "duration": 2, "velocity": 73}, {"time": 115, "pitch": 52, "duration": 2, "velocity": 73}, {"time": 118, "pitch": 40, "duration": 3, "velocity": 83}, {"time": 118, "pitch": 52, "duration": 3, "velocity": 76}, {"time": 118, "pitch": 52, "duration": 3, "velocity": 83}, {"time": 118, "pitch": 59, "duration": 11, "velocity": 74}, {"time": 118, "pitch": 64, "duration": 12, "velocity": 88}, {"time": 118, "pitch": 67, "duration": 12, "velocity": 89}, {"time": 118, "pitch": 71, "duration": 12, "velocity": 86}, {"time": 124, "pitch": 40, "duration": 1, "velocity": 93}, {"time": 124, "pitch": 52, "duration": 1, "velocity": 93}, {"time": 127, "pitch": 40, "duration": 1, "velocity": 92}, {"time": 127, "pitch": 52, "duration": 1, "velocity": 92}, {"time": 130, "pitch": 40, "duration": 2, "velocity": 97}, {"time": 130, "pitch": 52, "duration": 2, "velocity": 97}, {"time": 133, "pitch": 43, "duration": 2, "velocity": 88}, {"time": 133, "pitch": 55, "duration": 2, "velocity": 88}, {"time": 136, "pitch": 43, "duration": 2, "velocity": 72}, {"time": 136, "pitch": 55, "duration": 2, "velocity": 72}, {"time": 139, "pitch": 43, "duration": 2, "velocity": 75}, {"time": 139, "pitch": 55, "duration": 2, "velocity": 75}, {"time": 142, "pitch": 43, "duration": 6, "velocity": 88}, {"time": 142, "pitch": 55, "duration": 6, "velocity": 62}, {"time": 142, "pitch": 55, "duration": 6, "velocity": 88}, {"time": 142, "pitch": 59, "duration": 12, "velocity": 64}, {"time": 142, "pitch": 62, "duration": 13, "velocity": 57}, {"time": 142, "pitch": 67, "duration": 13, "velocity": 76}, {"time": 142, "pitch": 71, "duration": 13, "velocity": 82}, {"time": 142, "pitch": 74, "duration": 13, "velocity": 78}, {"time": 148, "pitch": 43, "duration": 1, "velocity": 92}, {"time": 148, "pitch": 55, "duration": 1, "velocity": 92}, {"time": 151, "pitch": 43, "duration": 2, "velocity": 82}, {"time": 151, "pitch": 55, "duration": 2, "velocity": 82}, {"time": 154, "pitch": 43, "duration": 2, "velocity": 97}, {"time": 154, "pitch": 55, "duration": 1, "velocity": 97}, {"time": 157, "pitch": 45, "duration": 2, "velocity": 95}, {"time": 157, "pitch": 57, "duration": 2, "velocity": 95}, {"time": 160, "pitch": 45, "duration": 2, "velocity": 85}, {"time": 160, "pitch": 57, "duration": 2, "velocity": 85}, {"time": 163, "pitch": 45, "duration": 2, "velocity": 78}, {"time": 163, "pitch": 57, "duration": 2, "velocity": 78}, {"time": 166, "pitch": 45, "duration": 5, "velocity": 90}, {"time": 166, "pitch": 57, "duration": 5, "velocity": 64}, {"time": 166, "pitch": 57, "duration": 5, "velocity": 90}, {"time": 166, "pitch": 61, "duration": 12, "velocity": 88}, {"time": 166, "pitch": 64, "duration": 12, "velocity": 66}, {"time": 166, "pitch": 69, "duration": 12, "velocity": 79}, {"time": 166, "pitch": 73, "duration": 12, "velocity": 93}, {"time": 166, "pitch": 76, "duration": 12, "velocity": 77}, {"time": 172, "pitch": 45, "duration": 1, "velocity": 93}, {"time": 172, "pitch": 57, "duration": 1, "velocity": 93}, {"time": 175, "pitch": 45, "duration": 1, "velocity": 72}, {"time": 175, "pitch": 57, "duration": 1, "velocity": 72}, {"time": 178, "pitch": 45, "duration": 2, "velocity": 95}, {"time": 178, "pitch": 57, "duration": 2, "velocity": 95}, {"time": 181, "pitch": 47, "duration": 2, "velocity": 88}, {"time": 181, "pitch": 59, "duration": 2, "velocity": 88}, {"time": 184, "pitch": 47, "duration": 2, "velocity": 79}, {"time": 184, "pitch": 59, "duration": 2, "velocity": 79}, {"time": 187, "pitch": 47, "duration": 2, "velocity": 76}, {"time": 187, "pitch": 59, "duration": 2, "velocity": 76}, {"time": 190, "pitch": 47, "duration": 5, "velocity": 88}, {"time": 190, "pitch": 59, "duration": 5, "velocity": 56}, {"time": 190, "pitch": 59, "duration": 5, "velocity": 88}, {"time": 190, "pitch": 63, "duration": 12, "velocity": 63}, {"time": 190, "pitch": 66, "duration": 12, "velocity": 55}, {"time": 190, "pitch": 71, "duration": 12, "velocity": 73}, {"time": 190, "pitch": 75, "duration": 12, "velocity": 93}, {"time": 190, "pitch": 78, "duration": 12, "velocity": 79}, {"time": 196, "pitch": 47, "duration": 1, "velocity": 99}, {"time": 196, "pitch": 59, "duration": 1, "velocity": 99}, {"time": 199, "pitch": 47, "duration": 2, "velocity": 93}, {"time": 199, "pitch": 59, "duration": 2, "velocity": 93}, {"time": 202, "pitch": 38, "duration": 2, "velocity": 99}, {"time": 202, "pitch": 50, "duration": 2, "velocity": 99}, {"time": 205, "pitch": 40, "duration": 2, "velocity": 82}, {"time": 205, "pitch": 52, "duration": 2, "velocity": 82}, {"time": 208, "pitch": 40, "duration": 2, "velocity": 69}, {"time": 208, "pitch": 52, "duration": 2, "velocity": 69}, {"time": 211, "pitch": 40, "duration": 2, "velocity": 73}, {"time": 211, "pitch": 52, "duration": 2, "velocity": 73}, {"time": 214, "pitch": 40, "duration": 3, "velocity": 83}, {"time": 214, "pitch": 52, "duration": 3, "velocity": 79}, {"time": 214, "pitch": 52, "duration": 3, "velocity": 83}, {"time": 214, "pitch": 64, "duration": 14, "velocity": 82}, {"time": 214, "pitch": 67, "duration": 14, "velocity": 75}, {"time": 214, "pitch": 71, "duration": 15, "velocity": 78}, {"time": 220, "pitch": 40, "duration": 1, "velocity": 93}, {"time": 220, "pitch": 52, "duration": 1, "velocity": 93}, {"time": 223, "pitch": 40, "duration": 1, "velocity": 92}, {"time": 223, "pitch": 52, "duration": 1, "velocity": 92}, {"time": 226, "pitch": 40, "duration": 2, "velocity": 97}, {"time": 226, "pitch": 52, "duration": 1, "velocity": 97}, {"time": 229, "pitch": 43, "duration": 2, "velocity": 88}, {"time": 229, "pitch": 55, "duration": 2, "velocity": 88}, {"time": 232, "pitch": 43, "duration": 2, "velocity": 72}, {"time": 232, "pitch": 55, "duration": 2, "velocity": 72}, {"time": 235, "pitch": 43, "duration": 2, "velocity": 75}, {"time": 235, "pitch": 55, "duration": 2, "velocity": 75}, {"time": 238, "pitch": 43, "duration": 6, "velocity": 88}, {"time": 238, "pitch": 55, "duration": 6, "velocity": 74}, {"time": 238, "pitch": 55, "duration": 6, "velocity": 88}, {"time": 238, "pitch": 62, "duration": 16, "velocity": 75}, {"time": 238, "pitch": 67, "duration": 15, "velocity": 85}, {"time": 238, "pitch": 71, "duration": 16, "velocity": 92}, {"time": 238, "pitch": 74, "duration": 15, "velocity": 86}, {"time": 244, "pitch": 43, "duration": 1, "velocity": 92}, {"time": 244, "pitch": 55, "duration": 1, "velocity": 92}, {"time": 247, "pitch": 43, "duration": 2, "velocity": 82}, {"time": 247, "pitch": 55, "duration": 2, "velocity": 82}, {"time": 250, "pitch": 43, "duration": 2, "velocity": 97}, {"time": 250, "pitch": 55, "duration": 2, "velocity": 97}, {"time": 253, "pitch": 45, "duration": 2, "velocity": 95}, {"time": 253, "pitch": 57, "duration": 2, "velocity": 95}, {"time": 256, "pitch": 45, "duration": 2, "velocity": 85}, {"time": 256, "pitch": 57, "duration": 2, "velocity": 85}, {"time": 259, "pitch": 45, "duration": 2, "velocity": 78}, {"time": 259, "pitch": 57, "duration": 2, "velocity": 78}, {"time": 262, "pitch": 45, "duration": 5, "velocity": 90}, {"time": 262, "pitch": 57, "duration": 5, "velocity": 69}, {"time": 262, "pitch": 57, "duration": 5, "velocity": 90}, {"time": 262, "pitch": 61, "duration": 12, "velocity": 78}, {"time": 262, "pitch": 64, "duration": 13, "velocity": 58}, {"time": 262, "pitch": 69, "duration": 14, "velocity": 78}, {"time": 262, "pitch": 73, "duration": 13, "velocity": 97}, {"time": 262, "pitch": 76, "duration": 14, "velocity": 82}, {"time": 268, "pitch": 45, "duration": 1, "velocity": 93}, {"time": 268, "pitch": 57, "duration": 1, "velocity": 93}, {"time": 271, "pitch": 45, "duration": 1, "velocity": 72}, {"time": 271, "pitch": 57, "duration": 1, "velocity": 72}, {"time": 274, "pitch": 45, "duration": 2, "velocity": 95}, {"time": 274, "pitch": 57, "duration": 1, "velocity": 95}, {"time": 277, "pitch": 47, "duration": 2, "velocity": 88}, {"time": 277, "pitch": 59, "duration": 2, "velocity": 88}, {"time": 280, "pitch": 47, "duration": 2, "velocity": 79}, {"time": 280, "pitch": 59, "duration": 2, "velocity": 79}, {"time": 283, "pitch": 47, "duration": 2, "velocity": 76}, {"time": 283, "pitch": 59, "duration": 2, "velocity": 76}, {"time": 286, "pitch": 47, "duration": 5, "velocity": 88}, {"time": 286, "pitch": 59, "duration": 5, "velocity": 77}, {"time": 286, "pitch": 59, "duration": 5, "velocity": 88}, {"time": 286, "pitch": 66, "duration": 11, "velocity": 63}, {"time": 286, "pitch": 71, "duration": 12, "velocity": 78}, {"time": 286, "pitch": 75, "duration": 12, "velocity": 96}, {"time": 286, "pitch": 78, "duration": 12, "velocity": 90}, {"time": 292, "pitch": 47, "duration": 1, "velocity": 99}, {"time": 292, "pitch": 59, "duration": 1, "velocity": 99}, {"time": 295, "pitch": 47, "duration": 2, "velocity": 93}, {"time": 295, "pitch": 59, "duration": 2, "velocity": 93}, {"time": 298, "pitch": 38, "duration": 2, "velocity": 99}, {"time": 298, "pitch": 50, "duration": 2, "velocity": 99}, {"time": 301, "pitch": 40, "duration": 2, "velocity": 82}, {"time": 301, "pitch": 52, "duration": 2, "velocity": 82}, {"time": 304, "pitch": 40, "duration": 2, "velocity": 69}, {"time": 304, "pitch": 52, "duration": 2, "velocity": 69}, {"time": 307, "pitch": 40, "duration": 2, "velocity": 73}, {"time": 307, "pitch": 52, "duration": 2, "velocity": 73}, {"time": 310, "pitch": 40, "duration": 3, "velocity": 83}, {"time": 310, "pitch": 52, "duration": 3, "velocity": 76}, {"time": 310, "pitch": 52, "duration": 3, "velocity": 83}, {"time": 310, "pitch": 59, "duration": 11, "velocity": 74}, {"time": 310, "pitch": 64, "duration": 12, "velocity": 88}, {"time": 310, "pitch": 67, "duration": 12, "velocity": 89}, {"time": 310, "pitch": 71, "duration": 12, "velocity": 86}, {"time": 316, "pitch": 40, "duration": 1, "velocity": 93}, {"time": 316, "pitch": 52, "duration": 1, "velocity": 93}, {"time": 319, "pitch": 40, "duration": 1, "velocity": 92}, {"time": 319, "pitch": 52, "duration": 1, "velocity": 92}, {"time": 322, "pitch": 40, "duration": 2, "velocity": 97}, {"time": 322, "pitch": 52, "duration": 2, "velocity": 97}, {"time": 325, "pitch": 43, "duration": 2, "velocity": 88}, {"time": 325, "pitch": 55, "duration": 2, "velocity": 88}, {"time": 328, "pitch": 43, "duration": 2, "velocity": 72}, {"time": 328, "pitch": 55, "duration": 2, "velocity": 72}, {"time": 331, "pitch": 43, "duration": 2, "velocity": 75}, {"time": 331, "pitch": 55, "duration": 2, "velocity": 75}, {"time": 334, "pitch": 43, "duration": 6, "velocity": 88}, {"time": 334, "pitch": 55, "duration": 6, "velocity": 62}, {"time": 334, "pitch": 55, "duration": 6, "velocity": 88}, {"time": 334, "pitch": 59, "duration": 12, "velocity": 64}, {"time": 334, "pitch": 62, "duration": 13, "velocity": 57}, {"time": 334, "pitch": 67, "duration": 13, "velocity": 76}, {"time": 334, "pitch": 71, "duration": 13, "velocity": 82}, {"time": 334, "pitch": 74, "duration": 13, "velocity": 78}, {"time": 340, "pitch": 43, "duration": 1, "velocity": 92}, {"time": 340, "pitch": 55, "duration": 1, "velocity": 92}, {"time": 343, "pitch": 43, "duration": 2, "velocity": 82}, {"time": 343, "pitch": 55, "duration": 2, "velocity": 82}, {"time": 346, "pitch": 43, "duration": 2, "velocity": 97}, {"time": 346, "pitch": 55, "duration": 1, "velocity": 97}, {"time": 349, "pitch": 45, "duration": 2, "velocity": 95}, {"time": 349, "pitch": 57, "duration": 2, "velocity": 95}, {"time": 352, "pitch": 45, "duration": 2, "velocity": 85}, {"time": 352, "pitch": 57, "duration": 2, "velocity": 85}, {"time": 355, "pitch": 45, "duration": 2, "velocity": 78}, {"time": 355, "pitch": 57, "duration": 2, "velocity": 78}, {"time": 358, "pitch": 45, "duration": 5, "velocity": 90}, {"time": 358, "pitch": 57, "duration": 5, "velocity": 64}, {"time": 358, "pitch": 57, "duration": 5, "velocity": 90}, {"time": 358, "pitch": 61, "duration": 12, "velocity": 88}, {"time": 358, "pitch": 64, "duration": 12, "velocity": 66}, {"time": 358, "pitch": 69, "duration": 12, "velocity": 79}, {"time": 358, "pitch": 73, "duration": 12, "velocity": 93}, {"time": 358, "pitch": 76, "duration": 12, "velocity": 77}, {"time": 364, "pitch": 45, "duration": 1, "velocity": 93}, {"time": 364, "pitch": 57, "duration": 1, "velocity": 93}, {"time": 367, "pitch": 45, "duration": 1, "velocity": 72}, {"time": 367, "pitch": 57, "duration": 1, "velocity": 72}, {"time": 370, "pitch": 45, "duration": 2, "velocity": 95}, {"time": 370, "pitch": 57, "duration": 2, "velocity": 95}, {"time": 373, "pitch": 47, "duration": 2, "velocity": 88}, {"time": 373, "pitch": 59, "duration": 2, "velocity": 88}, {"time": 376, "pitch": 47, "duration": 2, "velocity": 79}, {"time": 376, "pitch": 59, "duration": 2, "velocity": 79}, {"time": 379, "pitch": 47, "duration": 2, "velocity": 76}, {"time": 379, "pitch": 59, "duration": 2, "velocity": 76}, {"time": 382, "pitch": 47, "duration": 5, "velocity": 88}, {"time": 382, "pitch": 59, "duration": 5, "velocity": 56}, {"time": 382, "pitch": 59, "duration": 5, "velocity": 88}, {"time": 382, "pitch": 63, "duration": 12, "velocity": 63}, {"time": 382, "pitch": 66, "duration": 12, "velocity": 55}, {"time": 382, "pitch": 71, "duration": 12, "velocity": 73}, {"time": 382, "pitch": 75, "duration": 12, "velocity": 93}, {"time": 382, "pitch": 78, "duration": 12, "velocity": 79}, {"time": 388, "pitch": 47, "duration": 1, "velocity": 99}, {"time": 388, "pitch": 59, "duration": 1, "velocity": 99}, {"time": 391, "pitch": 47, "duration": 2, "velocity": 93}, {"time": 391, "pitch": 59, "duration": 2, "velocity": 93}, {"time": 394, "pitch": 38, "duration": 2, "velocity": 99}, {"time": 394, "pitch": 50, "duration": 2, "velocity": 99}, {"time": 397, "pitch": 40, "duration": 2, "velocity": 82}, {"time": 397, "pitch": 52, "duration": 2, "velocity": 82}, {"time": 400, "pitch": 40, "duration": 2, "velocity": 69}, {"time": 400, "pitch": 52, "duration": 2, "velocity": 69}, {"time": 403, "pitch": 40, "duration": 2, "velocity": 73}, {"time": 403, "pitch": 52, "duration": 2, "velocity": 73}, {"time": 406, "pitch": 40, "duration": 3, "velocity": 83}, {"time": 406, "pitch": 52, "duration": 3, "velocity": 79}, {"time": 406, "pitch": 52, "duration": 3, "velocity": 83}, {"time": 406, "pitch": 64, "duration": 14, "velocity": 82}, {"time": 406, "pitch": 67, "duration": 14, "velocity": 75}, {"time": 406, "pitch": 71, "duration": 15, "velocity": 78}, {"time": 412, "pitch": 40, "duration": 1, "velocity": 93}, {"time": 412, "pitch": 52, "duration": 1, "velocity": 93}, {"time": 415, "pitch": 40, "duration": 1, "velocity": 92}, {"time": 415, "pitch": 52, "duration": 1, "velocity": 92}, {"time": 418, "pitch": 40, "duration": 2, "velocity": 97}, {"time": 418, "pitch": 52, "duration": 1, "velocity": 97}, {"time": 421, "pitch": 43, "duration": 2, "velocity": 88}, {"time": 421, "pitch": 55, "duration": 2, "velocity": 88}, {"time": 424, "pitch": 43, "duration": 2, "velocity": 72}, {"time": 424, "pitch": 55, "duration": 2, "velocity": 72}, {"time": 427, "pitch": 43, "duration": 2, "velocity": 75}, {"time": 427, "pitch": 55, "duration": 2, "velocity": 75}, {"time": 430, "pitch": 43, "duration": 6, "velocity": 88}, {"time": 430, "pitch": 55, "duration": 6, "velocity": 74}, {"time": 430, "pitch": 55, "duration": 6, "velocity": 88}, {"time": 430, "pitch": 62, "duration": 16, "velocity": 75}, {"time": 430, "pitch": 67, "duration": 15, "velocity": 85}, {"time": 430, "pitch": 71, "duration": 16, "velocity": 92}, {"time": 430, "pitch": 74, "duration": 15, "velocity": 86}, {"time": 436, "pitch": 43, "duration": 1, "velocity": 92}, {"time": 436, "pitch": 55, "duration": 1, "velocity": 92}, {"time": 439, "pitch": 43, "duration": 2, "velocity": 82}, {"time": 439, "pitch": 55, "duration": 2, "velocity": 82}, {"time": 442, "pitch": 43, "duration": 2, "velocity": 97}, {"time": 442, "pitch": 55, "duration": 2, "velocity": 97}, {"time": 445, "pitch": 45, "duration": 2, "velocity": 95}, {"time": 445, "pitch": 57, "duration": 2, "velocity": 95}, {"time": 448, "pitch": 45, "duration": 2, "velocity": 85}, {"time": 448, "pitch": 57, "duration": 2, "velocity": 85}, {"time": 451, "pitch": 45, "duration": 2, "velocity": 78}, {"time": 451, "pitch": 57, "duration": 2, "velocity": 78}, {"time": 454, "pitch": 45, "duration": 5, "velocity": 90}, {"time": 454, "pitch": 57, "duration": 5, "velocity": 69}, {"time": 454, "pitch": 57, "duration": 5, "velocity": 90}, {"time": 454, "pitch": 61, "duration": 12, "velocity": 78}, {"time": 454, "pitch": 64, "duration": 13, "velocity": 58}, {"time": 454, "pitch": 69, "duration": 14, "velocity": 78}, {"time": 454, "pitch": 73, "duration": 13, "velocity": 97}, {"time": 454, "pitch": 76, "duration": 14, "velocity": 82}, {"time": 460, "pitch": 45, "duration": 1, "velocity": 93}, {"time": 460, "pitch": 57, "duration": 1, "velocity": 93}, {"time": 463, "pitch": 45, "duration": 1, "velocity": 72}, {"time": 463, "pitch": 57, "duration": 1, "velocity": 72}, {"time": 466, "pitch": 45, "duration": 2, "velocity": 95}, {"time": 466, "pitch": 57, "duration": 1, "velocity": 95}, {"time": 469, "pitch": 47, "duration": 2, "velocity": 88}, {"time": 469, "pitch": 59, "duration": 2, "velocity": 88}, {"time": 472, "pitch": 47, "duration": 2, "velocity": 79}, {"time": 472, "pitch": 59, "duration": 2, "velocity": 79}, {"time": 475, "pitch": 47, "duration": 2, "velocity": 76}, {"time": 475, "pitch": 59, "duration": 2, "velocity": 76}, {"time": 478, "pitch": 47, "duration": 5, "velocity": 88}, {"time": 478, "pitch": 59, "duration": 5, "velocity": 77}, {"time": 478, "pitch": 59, "duration": 5, "velocity": 88}, {"time": 478, "pitch": 66, "duration": 11, "velocity": 63}, {"time": 478, "pitch": 71, "duration": 12, "velocity": 78}, {"time": 478, "pitch": 75, "duration": 12, "velocity": 96}, {"time": 478, "pitch": 78, "duration": 12, "velocity": 90}, {"time": 484, "pitch": 47, "duration": 1, "velocity": 99}, {"time": 484, "pitch": 59, "duration": 1, "velocity": 99}, {"time": 487, "pitch": 47, "duration": 2, "velocity": 93}, {"time": 487, "pitch": 59, "duration": 2, "velocity": 93}, {"time": 490, "pitch": 38, "duration": 2, "velocity": 99}, {"time": 490, "pitch": 50, "duration": 2, "velocity": 99}, {"time": 493, "pitch": 40, "duration": 2, "velocity": 82}, {"time": 493, "pitch": 52, "duration": 2, "velocity": 82}, {"time": 496, "pitch": 40, "duration": 2, "velocity": 69}, {"time": 496, "pitch": 52, "duration": 2, "velocity": 69}, {"time": 499, "pitch": 40, "duration": 2, "velocity": 73}, {"time": 499, "pitch": 52, "duration": 2, "velocity": 73}, {"time": 502, "pitch": 40, "duration": 3, "velocity": 83}, {"time": 502, "pitch": 52, "duration": 3, "velocity": 76}, {"time": 502, "pitch": 52, "duration": 3, "velocity": 83}, {"time": 502, "pitch": 59, "duration": 11, "velocity": 74}, {"time": 502, "pitch": 64, "duration": 12, "velocity": 88}, {"time": 502, "pitch": 67, "duration": 12, "velocity": 89}, {"time": 502, "pitch": 71, "duration": 12, "velocity": 86}, {"time": 508, "pitch": 40, "duration": 1, "velocity": 93}, {"time": 508, "pitch": 52, "duration": 1, "velocity": 93}, {"time": 511, "pitch": 40, "duration": 1, "velocity": 92}, {"time": 511, "pitch": 52, "duration": 1, "velocity": 92}, {"time": 514, "pitch": 40, "duration": 2, "velocity": 97}, {"time": 514, "pitch": 52, "duration": 2, "velocity": 97}, {"time": 517, "pitch": 43, "duration": 2, "velocity": 88}, {"time": 517, "pitch": 55, "duration": 2, "velocity": 88}, {"time": 520, "pitch": 43, "duration": 2, "velocity": 72}, {"time": 520, "pitch": 55, "duration": 2, "velocity": 72}, {"time": 523, "pitch": 43, "duration": 2, "velocity": 75}, {"time": 523, "pitch": 55, "duration": 2, "velocity": 75}, {"time": 526, "pitch": 43, "duration": 6, "velocity": 88}, {"time": 526, "pitch": 55, "duration": 6, "velocity": 62}, {"time": 526, "pitch": 55, "duration": 6, "velocity": 88}, {"time": 526, "pitch": 59, "duration": 12, "velocity": 64}, {"time": 526, "pitch": 62, "duration": 13, "velocity": 57}, {"time": 526, "pitch": 67, "duration": 13, "velocity": 76}, {"time": 526, "pitch": 71, "duration": 13, "velocity": 82}, {"time": 526, "pitch": 74, "duration": 13, "velocity": 78}, {"time": 532, "pitch": 43, "duration": 1, "velocity": 92}, {"time": 532, "pitch": 55, "duration": 1, "velocity": 92}, {"time": 535, "pitch": 43, "duration": 2, "velocity": 82}, {"time": 535, "pitch": 55, "duration": 2, "velocity": 82}, {"time": 538, "pitch": 43, "duration": 2, "velocity": 97}, {"time": 538, "pitch": 55, "duration": 1, "velocity": 97}, {"time": 541, "pitch": 45, "duration": 2, "velocity": 95}, {"time": 541, "pitch": 57, "duration": 2, "velocity": 95}, {"time": 544, "pitch": 45, "duration": 2, "velocity": 85}, {"time": 544, "pitch": 57, "duration": 2, "velocity": 85}, {"time": 547, "pitch": 45, "duration": 2, "velocity": 78}, {"time": 547, "pitch": 57, "duration": 2, "velocity": 78}, {"time": 550, "pitch": 45, "duration": 5, "velocity": 90}, {"time": 550, "pitch": 57, "duration": 5, "velocity": 64}, {"time": 550, "pitch": 57, "duration": 5, "velocity": 90}, {"time": 550, "pitch": 61, "duration": 12, "velocity": 88}, {"time": 550, "pitch": 64, "duration": 12, "velocity": 66}, {"time": 550, "pitch": 69, "duration": 12, "velocity": 79}, {"time": 550, "pitch": 73, "duration": 12, "velocity": 93}, {"time": 550, "pitch": 76, "duration": 12, "velocity": 77}, {"time": 556, "pitch": 45, "duration": 1, "velocity": 93}, {"time": 556, "pitch": 57, "duration": 1, "velocity": 93}, {"time": 559, "pitch": 45, "duration": 1, "velocity": 72}, {"time": 559, "pitch": 57, "duration": 1, "velocity": 72}, {"time": 562, "pitch": 45, "duration": 2, "velocity": 95}, {"time": 562, "pitch": 57, "duration": 2, "velocity": 95}, {"time": 565, "pitch": 47, "duration": 2, "velocity": 88}, {"time": 565, "pitch": 59, "duration": 2, "velocity": 88}, {"time": 568, "pitch": 47, "duration": 2, "velocity": 79}, {"time": 568, "pitch": 59, "duration": 2, "velocity": 79}, {"time": 571, "pitch": 47, "duration": 2, "velocity": 76}, {"time": 571, "pitch": 59, "duration": 2, "velocity": 76}, {"time": 574, "pitch": 47, "duration": 5, "velocity": 88}, {"time": 574, "pitch": 59, "duration": 5, "velocity": 56}, {"time": 574, "pitch": 59, "duration": 5, "velocity": 88}, {"time": 574, "pitch": 63, "duration": 12, "velocity": 63}, {"time": 574, "pitch": 66, "duration": 12, "velocity": 55}, {"time": 574, "pitch": 71, "duration": 12, "velocity": 73}, {"time": 574, "pitch": 75, "duration": 12, "velocity": 93}, {"time": 574, "pitch": 78, "duration": 12, "velocity": 79}, {"time": 580, "pitch": 47, "duration": 1, "velocity": 99}, {"time": 580, "pitch": 59, "duration": 1, "velocity": 99}, {"time": 583, "pitch": 47, "duration": 2, "velocity": 93}, {"time": 583, "pitch": 59, "duration": 2, "velocity": 93}, {"time": 586, "pitch": 38, "duration": 2, "velocity": 99}, {"time": 586, "pitch": 50, "duration": 2, "velocity": 99}, {"time": 589, "pitch": 40, "duration": 2, "velocity": 82}, {"time": 589, "pitch": 52, "duration": 2, "velocity": 82}, {"time": 592, "pitch": 40, "duration": 2, "velocity": 69}, {"time": 592, "pitch": 52, "duration": 2, "velocity": 69}, {"time": 595, "pitch": 40, "duration": 2, "velocity": 73}, {"time": 595, "pitch": 52, "duration": 2, "velocity": 73}, {"time": 598, "pitch": 40, "duration": 3, "velocity": 83}, {"time": 598, "pitch": 52, "duration": 3, "velocity": 79}, {"time": 598, "pitch": 52, "duration": 3, "velocity": 83}, {"time": 598, "pitch": 64, "duration": 14, "velocity": 82}, {"time": 598, "pitch": 67, "duration": 14, "velocity": 75}, {"time": 598, "pitch": 71, "duration": 15, "velocity": 78}, {"time": 604, "pitch": 40, "duration": 1, "velocity": 93}, {"time": 604, "pitch": 52, "duration": 1, "velocity": 93}, {"time": 607, "pitch": 40, "duration": 1, "velocity": 92}, {"time": 607, "pitch": 52, "duration": 1, "velocity": 92}, {"time": 610, "pitch": 40, "duration": 2, "velocity": 97}, {"time": 610, "pitch": 52, "duration": 1, "velocity": 97}, {"time": 613, "pitch": 43, "duration": 2, "velocity": 88}, {"time": 613, "pitch": 55, "duration": 2, "velocity": 88}, {"time": 616, "pitch": 43, "duration": 2, "velocity": 72}, {"time": 616, "pitch": 55, "duration": 2, "velocity": 72}, {"time": 619, "pitch": 43, "duration": 2, "velocity": 75}, {"time": 619, "pitch": 55, "duration": 2, "velocity": 75}, {"time": 622, "pitch": 43, "duration": 6, "velocity": 88}, {"time": 622, "pitch": 55, "duration": 6, "velocity": 74}, {"time": 622, "pitch": 55, "duration": 6, "velocity": 88}, {"time": 622, "pitch": 62, "duration": 16, "velocity": 75}, {"time": 622, "pitch": 67, "duration": 15, "velocity": 85}, {"time": 622, "pitch": 71, "duration": 16, "velocity": 92}, {"time": 622, "pitch": 74, "duration": 15, "velocity": 86}, {"time": 628, "pitch": 43, "duration": 1, "velocity": 92}, {"time": 628, "pitch": 55, "duration": 1, "velocity": 92}, {"time": 631, "pitch": 43, "duration": 2, "velocity": 82}, {"time": 631, "pitch": 55, "duration": 2, "velocity": 82}, {"time": 634, "pitch": 43, "duration": 2, "velocity": 97}, {"time": 634, "pitch": 55, "duration": 2, "velocity": 97}, {"time": 637, "pitch": 45, "duration": 2, "velocity": 95}, {"time": 637, "pitch": 57, "duration": 2, "velocity": 95}, {"time": 640, "pitch": 45, "duration": 2, "velocity": 85}, {"time": 640, "pitch": 57, "duration": 2, "velocity": 85}, {"time": 643, "pitch": 45, "duration": 2, "velocity": 78}, {"time": 643, "pitch": 57, "duration": 2, "velocity": 78}, {"time": 646, "pitch": 45, "duration": 5, "velocity": 90}, {"time": 646, "pitch": 57, "duration": 5, "velocity": 69}, {"time": 646, "pitch": 57, "duration": 5, "velocity": 90}, {"time": 646, "pitch": 61, "duration": 12, "velocity": 78}, {"time": 646, "pitch": 64, "duration": 13, "velocity": 58}, {"time": 646, "pitch": 69, "duration": 14, "velocity": 78}, {"time": 646, "pitch": 73, "duration": 13, "velocity": 97}, {"time": 646, "pitch": 76, "duration": 14, "velocity": 82}, {"time": 652, "pitch": 45, "duration": 1, "velocity": 93}, {"time": 652, "pitch": 57, "duration": 1, "velocity": 93}, {"time": 655, "pitch": 45, "duration": 1, "velocity": 72}, {"time": 655, "pitch": 57, "duration": 1, "velocity": 72}, {"time": 658, "pitch": 45, "duration": 2, "velocity": 95}, {"time": 658, "pitch": 57, "duration": 1, "velocity": 95}, {"time": 661, "pitch": 47, "duration": 2, "velocity": 88}, {"time": 661, "pitch": 59, "duration": 2, "velocity": 88}, {"time": 664, "pitch": 47, "duration": 2, "velocity": 79}, {"time": 664, "pitch": 59, "duration": 2, "velocity": 79}, {"time": 667, "pitch": 47, "duration": 2, "velocity": 76}, {"time": 667, "pitch": 59, "duration": 2, "velocity": 76}, {"time": 670, "pitch": 47, "duration": 5, "velocity": 88}, {"time": 670, "pitch": 59, "duration": 5, "velocity": 77}, {"time": 670, "pitch": 59, "duration": 5, "velocity": 88}, {"time": 670, "pitch": 66, "duration": 11, "velocity": 63}, {"time": 670, "pitch": 71, "duration": 12, "velocity": 78}, {"time": 670, "pitch": 75, "duration": 12, "velocity": 96}, {"time": 670, "pitch": 78, "duration": 12, "velocity": 90}, {"time": 676, "pitch": 47, "duration": 1, "velocity": 99}, {"time": 676, "pitch": 59, "duration": 1, "velocity": 99}, {"time": 679, "pitch": 47, "duration": 2, "velocity": 93}, {"time": 679, "pitch": 59, "duration": 2, "velocity": 93}, {"time": 682, "pitch": 38, "duration": 2, "velocity": 99}, {"time": 682, "pitch": 50, "duration": 2, "velocity": 99}, {"time": 685, "pitch": 40, "duration": 2, "velocity": 82}, {"time": 685, "pitch": 52, "duration": 2, "velocity": 82}, {"time": 688, "pitch": 40, "duration": 2, "velocity": 69}, {"time": 688, "pitch": 52, "duration": 2, "velocity": 69}, {"time": 691, "pitch": 40, "duration": 2, "velocity": 73}, {"time": 691, "pitch": 52, "duration": 2, "velocity": 73}, {"time": 694, "pitch": 40, "duration": 3, "velocity": 83}, {"time": 694, "pitch": 52, "duration": 3, "velocity": 76}, {"time": 694, "pitch": 52, "duration": 3, "velocity": 83}, {"time": 694, "pitch": 59, "duration": 11, "velocity": 74}, {"time": 694, "pitch": 64, "duration": 12, "velocity": 88}, {"time": 694, "pitch": 67, "duration": 12, "velocity": 89}, {"time": 694, "pitch": 71, "duration": 12, "velocity": 86}, {"time": 700, "pitch": 40, "duration": 1, "velocity": 93}, {"time": 700, "pitch": 52, "duration": 1, "velocity": 93}, {"time": 703, "pitch": 40, "duration": 1, "velocity": 92}, {"time": 703, "pitch": 52, "duration": 1, "velocity": 92}, {"time": 706, "pitch": 40, "duration": 2, "velocity": 97}, {"time": 706, "pitch": 52, "duration": 2, "velocity": 97}, {"time": 709, "pitch": 43, "duration": 2, "velocity": 88}, {"time": 709, "pitch": 55, "duration": 2, "velocity": 88}, {"time": 712, "pitch": 43, "duration": 2, "velocity": 72}, {"time": 712, "pitch": 55, "duration": 2, "velocity": 72}, {"time": 715, "pitch": 43, "duration": 2, "velocity": 75}, {"time": 715, "pitch": 55, "duration": 2, "velocity": 75}, {"time": 718, "pitch": 43, "duration": 6, "velocity": 88}, {"time": 718, "pitch": 55, "duration": 6, "velocity": 62}, {"time": 718, "pitch": 55, "duration": 6, "velocity": 88}, {"time": 718, "pitch": 59, "duration": 12, "velocity": 64}, {"time": 718, "pitch": 62, "duration": 13, "velocity": 57}, {"time": 718, "pitch": 67, "duration": 13, "velocity": 76}, {"time": 718, "pitch": 71, "duration": 13, "velocity": 82}, {"time": 718, "pitch": 74, "duration": 13, "velocity": 78}, {"time": 724, "pitch": 43, "duration": 1, "velocity": 92}, {"time": 724, "pitch": 55, "duration": 1, "velocity": 92}, {"time": 727, "pitch": 43, "duration": 2, "velocity": 82}, {"time": 727, "pitch": 55, "duration": 2, "velocity": 82}, {"time": 730, "pitch": 43, "duration": 2, "velocity": 97}, {"time": 730, "pitch": 55, "duration": 1, "velocity": 97}, {"time": 733, "pitch": 45, "duration": 2, "velocity": 95}, {"time": 733, "pitch": 57, "duration": 2, "velocity": 95}, {"time": 736, "pitch": 45, "duration": 2, "velocity": 85}, {"time": 736, "pitch": 57, "duration": 2, "velocity": 85}, {"time": 739, "pitch": 45, "duration": 2, "velocity": 78}, {"time": 739, "pitch": 57, "duration": 2, "velocity": 78}, {"time": 742, "pitch": 45, "duration": 5, "velocity": 90}, {"time": 742, "pitch": 57, "duration": 5, "velocity": 64}, {"time": 742, "pitch": 57, "duration": 5, "velocity": 90}, {"time": 742, "pitch": 61, "duration": 12, "velocity": 88}, {"time": 742, "pitch": 64, "duration": 12, "velocity": 66}, {"time": 742, "pitch": 69, "duration": 12, "velocity": 79}, {"time": 742, "pitch": 73, "duration": 12, "velocity": 93}, {"time": 742, "pitch": 76, "duration": 12, "velocity": 77}, {"time": 748, "pitch": 45, "duration": 1, "velocity": 93}, {"time": 748, "pitch": 57, "duration": 1, "velocity": 93}, {"time": 751, "pitch": 45, "duration": 1, "velocity": 72}, {"time": 751, "pitch": 57, "duration": 1, "velocity": 72}, {"time": 754, "pitch": 45, "duration": 2, "velocity": 95}, {"time": 754, "pitch": 57, "duration": 2, "velocity": 95}, {"time": 757, "pitch": 47, "duration": 2, "velocity": 88}, {"time": 757, "pitch": 59, "duration": 2, "velocity": 88}, {"time": 760, "pitch": 47, "duration": 2, "velocity": 79}, {"time": 760, "pitch": 59, "duration": 2, "velocity": 79}, {"time": 763, "pitch": 47, "duration": 2, "velocity": 76}, {"time": 763, "pitch": 59, "duration": 2, "velocity": 76}, {"time": 766, "pitch": 47, "duration": 5, "velocity": 88}, {"time": 766, "pitch": 59, "duration": 5, "velocity": 56}, {"time": 766, "pitch": 59, "duration": 5, "velocity": 88}, {"time": 766, "pitch": 63, "duration": 12, "velocity": 63}, {"time": 766, "pitch": 66, "duration": 12, "velocity": 55}, {"time": 766, "pitch": 71, "duration": 12, "velocity": 73}, {"time": 766, "pitch": 75, "duration": 12, "velocity": 93}, {"time": 766, "pitch": 78, "duration": 12, "velocity": 79}, {"time": 772, "pitch": 47, "duration": 1, "velocity": 99}, {"time": 772, "pitch": 59, "duration": 1, "velocity": 99}, {"time": 775, "pitch": 47, "duration": 2, "velocity": 93}, {"time": 775, "pitch": 59, "duration": 2, "velocity": 93}, {"time": 778, "pitch": 38, "duration": 2, "velocity": 99}, {"time": 778, "pitch": 50, "duration": 2, "velocity": 99}, {"time": 781, "pitch": 40, "duration": 2, "velocity": 82}, {"time": 781, "pitch": 52, "duration": 2, "velocity": 82}, {"time": 784, "pitch": 40, "duration": 2, "velocity": 69}, {"time": 784, "pitch": 52, "duration": 2, "velocity": 69}, {"time": 787, "pitch": 40, "duration": 2, "velocity": 73}, {"time": 787, "pitch": 52, "duration": 2, "velocity": 73}, {"time": 790, "pitch": 40, "duration": 3, "velocity": 83}, {"time": 790, "pitch": 52, "duration": 3, "velocity": 79}, {"time": 790, "pitch": 52, "duration": 3, "velocity": 83}, {"time": 790, "pitch": 64, "duration": 14, "velocity": 82}, {"time": 790, "pitch": 67, "duration": 14, "velocity": 75}, {"time": 790, "pitch": 71, "duration": 15, "velocity": 78}, {"time": 796, "pitch": 40, "duration": 1, "velocity": 93}, {"time": 796, "pitch": 52, "duration": 1, "velocity": 93}, {"time": 799, "pitch": 40, "duration": 1, "velocity": 92}, {"time": 799, "pitch": 52, "duration": 1, "velocity": 92}, {"time": 802, "pitch": 40, "duration": 2, "velocity": 97}, {"time": 802, "pitch": 52, "duration": 1, "velocity": 97}, {"time": 805, "pitch": 43, "duration": 2, "velocity": 88}, {"time": 805, "pitch": 55, "duration": 2, "velocity": 88}, {"time": 808, "pitch": 43, "duration": 2, "velocity": 72}, {"time": 808, "pitch": 55, "duration": 2, "velocity": 72}, {"time": 811, "pitch": 43, "duration": 2, "velocity": 75}, {"time": 811, "pitch": 55, "duration": 2, "velocity": 75}, {"time": 814, "pitch": 43, "duration": 6, "velocity": 88}, {"time": 814, "pitch": 55, "duration": 6, "velocity": 74}, {"time": 814, "pitch": 55, "duration": 6, "velocity": 88}, {"time": 814, "pitch": 62, "duration": 16, "velocity": 75}, {"time": 814, "pitch": 67, "duration": 15, "velocity": 85}, {"time": 814, "pitch": 71, "duration": 16, "velocity": 92}, {"time": 814, "pitch": 74, "duration": 15, "velocity": 86}, {"time": 820, "pitch": 43, "duration": 1, "velocity": 92}, {"time": 820, "pitch": 55, "duration": 1, "velocity": 92}, {"time": 823, "pitch": 43, "duration": 2, "velocity": 82}, {"time": 823, "pitch": 55, "duration": 2, "velocity": 82}, {"time": 826, "pitch": 43, "duration": 2, "velocity": 97}, {"time": 826, "pitch": 55, "duration": 2, "velocity": 97}, {"time": 829, "pitch": 45, "duration": 2, "velocity": 95}, {"time": 829, "pitch": 57, "duration": 2, "velocity": 95}, {"time": 832, "pitch": 45, "duration": 2, "velocity": 85}, {"time": 832, "pitch": 57, "duration": 2, "velocity": 85}, {"time": 835, "pitch": 45, "duration": 2, "velocity": 78}, {"time": 835, "pitch": 57, "duration": 2, "velocity": 78}, {"time": 838, "pitch": 45, "duration": 5, "velocity": 90}, {"time": 838, "pitch": 57, "duration": 5, "velocity": 69}, {"time": 838, "pitch": 57, "duration": 5, "velocity": 90}, {"time": 838, "pitch": 61, "duration": 12, "velocity": 78}, {"time": 838, "pitch": 64, "duration": 13, "velocity": 58}, {"time": 838, "pitch": 69, "duration": 14, "velocity": 78}, {"time": 838, "pitch": 73, "duration": 13, "velocity": 97}, {"time": 838, "pitch": 76, "duration": 14, "velocity": 82}, {"time": 844, "pitch": 45, "duration": 1, "velocity": 93}, {"time": 844, "pitch": 57, "duration": 1, "velocity": 93}, {"time": 847, "pitch": 45, "duration": 1, "velocity": 72}, {"time": 847, "pitch": 57, "duration": 1, "velocity": 72}, {"time": 850, "pitch": 45, "duration": 2, "velocity": 95}, {"time": 850, "pitch": 57, "duration": 1, "velocity": 95}, {"time": 853, "pitch": 47, "duration": 2, "velocity": 88}, {"time": 853, "pitch": 59, "duration": 2, "velocity": 88}, {"time": 856, "pitch": 47, "duration": 2, "velocity": 79}, {"time": 856, "pitch": 59, "duration": 2, "velocity": 79}, {"time": 859, "pitch": 47, "duration": 2, "velocity": 76}, {"time": 859, "pitch": 59, "duration": 2, "velocity": 76}, {"time": 862, "pitch": 47, "duration": 5, "velocity": 88}, {"time": 862, "pitch": 59, "duration": 5, "velocity": 77}, {"time": 862, "pitch": 59, "duration": 5, "velocity": 88}, {"time": 862, "pitch": 66, "duration": 11, "velocity": 63}, {"time": 862, "pitch": 71, "duration": 12, "velocity": 78}, {"time": 862, "pitch": 75, "duration": 12, "velocity": 96}, {"time": 862, "pitch": 78, "duration": 12, "velocity": 90}, {"time": 868, "pitch": 47, "duration": 1, "velocity": 99}, {"time": 868, "pitch": 59, "duration": 1, "velocity": 99}, {"time": 871, "pitch": 47, "duration": 2, "velocity": 93}, {"time": 871, "pitch": 59, "duration": 2, "velocity": 93}, {"time": 874, "pitch": 38, "duration": 2, "velocity": 99}, {"time": 874, "pitch": 50, "duration": 2, "velocity": 99}, {"time": 877, "pitch": 40, "duration": 2, "velocity": 82}, {"time": 877, "pitch": 52, "duration": 2, "velocity": 82}, {"time": 880, "pitch": 40, "duration": 2, "velocity": 69}, {"time": 880, "pitch": 52, "duration": 2, "velocity": 69}, {"time": 883, "pitch": 40, "duration": 2, "velocity": 73}, {"time": 883, "pitch": 52, "duration": 2, "velocity": 73}, {"time": 886, "pitch": 40, "duration": 3, "velocity": 83}, {"time": 886, "pitch": 52, "duration": 3, "velocity": 76}, {"time": 886, "pitch": 52, "duration": 3, "velocity": 83}, {"time": 886, "pitch": 59, "duration": 11, "velocity": 74}, {"time": 886, "pitch": 64, "duration": 12, "velocity": 88}, {"time": 886, "pitch": 67, "duration": 12, "velocity": 89}, {"time": 886, "pitch": 71, "duration": 12, "velocity": 86}, {"time": 892, "pitch": 40, "duration": 1, "velocity": 93}, {"time": 892, "pitch": 52, "duration": 1, "velocity": 93}, {"time": 895, "pitch": 40, "duration": 1, "velocity": 92}, {"time": 895, "pitch": 52, "duration": 1, "velocity": 92}, {"time": 898, "pitch": 40, "duration": 2, "velocity": 97}, {"time": 898, "pitch": 52, "duration": 2, "velocity": 97}, {"time": 901, "pitch": 43, "duration": 2, "velocity": 88}, {"time": 901, "pitch": 55, "duration": 2, "velocity": 88}, {"time": 904, "pitch": 43, "duration": 2, "velocity": 72}, {"time": 904, "pitch": 55, "duration": 2, "velocity": 72}, {"time": 907, "pitch": 43, "duration": 2, "velocity": 75}, {"time": 907, "pitch": 55, "duration": 2, "velocity": 75}, {"time": 910, "pitch": 43, "duration": 6, "velocity": 88}, {"time": 910, "pitch": 55, "duration": 6, "velocity": 62}, {"time": 910, "pitch": 55, "duration": 6, "velocity": 88}, {"time": 910, "pitch": 59, "duration": 12, "velocity": 64}, {"time": 910, "pitch": 62, "duration": 13, "velocity": 57}, {"time": 910, "pitch": 67, "duration": 13, "velocity": 76}, {"time": 910, "pitch": 71, "duration": 13, "velocity": 82}, {"time": 910, "pitch": 74, "duration": 13, "velocity": 78}, {"time": 916, "pitch": 43, "duration": 1, "velocity": 92}, {"time": 916, "pitch": 55, "duration": 1, "velocity": 92}, {"time": 919, "pitch": 43, "duration": 2, "velocity": 82}, {"time": 919, "pitch": 55, "duration": 2, "velocity": 82}, {"time": 922, "pitch": 43, "duration": 2, "velocity": 97}, {"time": 922, "pitch": 55, "duration": 1, "velocity": 97}, {"time": 925, "pitch": 45, "duration": 2, "velocity": 95}, {"time": 925, "pitch": 57, "duration": 2, "velocity": 95}, {"time": 928, "pitch": 45, "duration": 2, "velocity": 85}, {"time": 928, "pitch": 57, "duration": 2, "velocity": 85}, {"time": 931, "pitch": 45, "duration": 2, "velocity": 78}, {"time": 931, "pitch": 57, "duration": 2, "velocity": 78}, {"time": 934, "pitch": 45, "duration": 5, "velocity": 90}, {"time": 934, "pitch": 57, "duration": 5, "velocity": 64}, {"time": 934, "pitch": 57, "duration": 5, "velocity": 90}, {"time": 934, "pitch": 61, "duration": 12, "velocity": 88}, {"time": 934, "pitch": 64, "duration": 12, "velocity": 66}, {"time": 934, "pitch": 69, "duration": 12, "velocity": 79}, {"time": 934, "pitch": 73, "duration": 12, "velocity": 93}, {"time": 934, "pitch": 76, "duration": 12, "velocity": 77}, {"time": 940, "pitch": 45, "duration": 1, "velocity": 93}, {"time": 940, "pitch": 57, "duration": 1, "velocity": 93}, {"time": 943, "pitch": 45, "duration": 1, "velocity": 72}, {"time": 943, "pitch": 57, "duration": 1, "velocity": 72}, {"time": 946, "pitch": 45, "duration": 2, "velocity": 95}, {"time": 946, "pitch": 57, "duration": 2, "velocity": 95}, {"time": 949, "pitch": 47, "duration": 2, "velocity": 88}, {"time": 949, "pitch": 59, "duration": 2, "velocity": 88}, {"time": 952, "pitch": 47, "duration": 2, "velocity": 79}, {"time": 952, "pitch": 59, "duration": 2, "velocity": 79}, {"time": 955, "pitch": 47, "duration": 2, "velocity": 76}, {"time": 955, "pitch": 59, "duration": 2, "velocity": 76}, {"time": 958, "pitch": 47, "duration": 5, "velocity": 88}, {"time": 958, "pitch": 59, "duration": 5, "velocity": 56}, {"time": 958, "pitch": 59, "duration": 5, "velocity": 88}, {"time": 958, "pitch": 63, "duration": 12, "velocity": 63}, {"time": 958, "pitch": 66, "duration": 12, "velocity": 55}, {"time": 958, "pitch": 71, "duration": 12, "velocity": 73}, {"time": 958, "pitch": 75, "duration": 12, "velocity": 93}, {"time": 958, "pitch": 78, "duration": 12, "velocity": 79}, {"time": 964, "pitch": 47, "duration": 1, "velocity": 99}, {"time": 964, "pitch": 59, "duration": 1, "velocity": 99}, {"time": 967, "pitch": 47, "duration": 2, "velocity": 93}, {"time": 967, "pitch": 59, "duration": 2, "velocity": 93}, {"time": 970, "pitch": 36, "duration": 45, "velocity": 95}, {"time": 976, "pitch": 43, "duration": 42, "velocity": 65}, {"time": 979, "pitch": 48, "duration": 6, "velocity": 86}, {"time": 982, "pitch": 55, "duration": 11, "velocity": 95}, {"time": 982, "pitch": 60, "duration": 11, "velocity": 96}, {"time": 982, "pitch": 64, "duration": 11, "velocity": 93}, {"time": 991, "pitch": 48, "duration": 6, "velocity": 59}, {"time": 994, "pitch": 55, "duration": 9, "velocity": 48}, {"time": 994, "pitch": 60, "duration": 8, "velocity": 79}, {"time": 994, "pitch": 64, "duration": 9, "velocity": 83}, {"time": 1000, "pitch": 48, "duration": 7, "velocity": 85}, {"time": 1006, "pitch": 60, "duration": 7, "velocity": 97}, {"time": 1006, "pitch": 64, "duration": 12, "velocity": 95}, {"time": 1009, "pitch": 48, "duration": 4, "velocity": 74}, {"time": 1012, "pitch": 55, "duration": 6, "velocity": 93}, {"time": 1015, "pitch": 60, "duration": 4, "velocity": 100}, {"time": 1018, "pitch": 36, "duration": 41, "velocity": 90}, {"time": 1024, "pitch": 43, "duration": 35, "velocity": 64}, {"time": 1030, "pitch": 55, "duration": 11, "velocity": 92}, {"time": 1030, "pitch": 60, "duration": 11, "velocity": 83}, {"time": 1030, "pitch": 64, "duration": 11, "velocity": 78}, {"time": 1039, "pitch": 48, "duration": 5, "velocity": 83}, {"time": 1042, "pitch": 60, "duration": 9, "velocity": 97}, {"time": 1042, "pitch": 64, "duration": 3, "velocity": 93}, {"time": 1048, "pitch": 48, "duration": 6, "velocity": 97}, {"time": 1054, "pitch": 60, "duration": 6, "velocity": 107}, {"time": 1054, "pitch": 64, "duration": 11, "velocity": 97}, {"time": 1057, "pitch": 48, "duration": 4, "velocity": 69}, {"time": 1060, "pitch": 55, "duration": 4, "velocity": 96}, {"time": 1063, "pitch": 60, "duration": 3, "velocity": 93}, {"time": 1066, "pitch": 43, "duration": 42, "velocity": 75}, {"time": 1072, "pitch": 50, "duration": 36, "velocity": 88}, {"time": 1078, "pitch": 62, "duration": 11, "velocity": 93}, {"time": 1078, "pitch": 67, "duration": 11, "velocity": 96}, {"time": 1078, "pitch": 71, "duration": 10, "velocity": 88}, {"time": 1087, "pitch": 55, "duration": 3, "velocity": 83}, {"time": 1090, "pitch": 62, "duration": 1, "velocity": 47}, {"time": 1090, "pitch": 67, "duration": 4, "velocity": 78}, {"time": 1090, "pitch": 71, "duration": 4, "velocity": 78}, {"time": 1093, "pitch": 55, "duration": 9, "velocity": 93}, {"time": 1096, "pitch": 62, "duration": 7, "velocity": 95}, {"time": 1102, "pitch": 67, "duration": 5, "velocity": 97}, {"time": 1102, "pitch": 71, "duration": 5, "velocity": 102}, {"time": 1105, "pitch": 55, "duration": 2, "velocity": 92}, {"time": 1108, "pitch": 67, "duration": 4, "velocity": 97}, {"time": 1108, "pitch": 71, "duration": 5, "velocity": 96}, {"time": 1111, "pitch": 62, "duration": 3, "velocity": 100}, {"time": 1114, "pitch": 42, "duration": 42, "velocity": 96}, {"time": 1114, "pitch": 62, "duration": 8, "velocity": 99}, {"time": 1114, "pitch": 66, "duration": 7, "velocity": 107}, {"time": 1120, "pitch": 54, "duration": 8, "velocity": 70}, {"time": 1126, "pitch": 62, "duration": 5, "velocity": 100}, {"time": 1126, "pitch": 66, "duration": 7, "velocity": 107}, {"time": 1132, "pitch": 57, "duration": 5, "velocity": 34}, {"time": 1135, "pitch": 54, "duration": 5, "velocity": 92}, {"time": 1138, "pitch": 62, "duration": 7, "velocity": 112}, {"time": 1138, "pitch": 66, "duration": 8, "velocity": 107}, {"time": 1144, "pitch": 54, "duration": 6, "velocity": 100}, {"time": 1150, "pitch": 66, "duration": 10, "velocity": 127}, {"time": 1153, "pitch": 54, "duration": 2, "velocity": 97}, {"time": 1156, "pitch": 62, "duration": 6, "velocity": 127}, {"time": 1159, "pitch": 57, "duration": 3, "velocity": 102}, {"time": 1162, "pitch": 36, "duration": 45, "velocity": 75}, {"time": 1168, "pitch": 43, "duration": 41, "velocity": 43}, {"time": 1174, "pitch": 55, "duration": 14, "velocity": 72}, {"time": 1174, "pitch": 60, "duration": 10, "velocity": 96}, {"time": 1174, "pitch": 64, "duration": 10, "velocity": 93}, {"time": 1183, "pitch": 48, "duration": 4, "velocity": 81}, {"time": 1186, "pitch": 64, "duration": 7, "velocity": 90}, {"time": 1189, "pitch": 48, "duration": 3, "velocity": 93}, {"time": 1192, "pitch": 55, "duration": 6, "velocity": 82}, {"time": 1195, "pitch": 48, "duration": 5, "velocity": 92}, {"time": 1198, "pitch": 60, "duration": 19, "velocity": 85}, {"time": 1198, "pitch": 64, "duration": 19, "velocity": 99}, {"time": 1204, "pitch": 55, "duration": 13, "velocity": 99}, {"time": 1210, "pitch": 36, "duration": 41, "velocity": 77}, {"time": 1216, "pitch": 43, "duration": 34, "velocity": 62}, {"time": 1219, "pitch": 48, "duration": 7, "velocity": 89}, {"time": 1222, "pitch": 55, "duration": 11, "velocity": 90}, {"time": 1222, "pitch": 60, "duration": 10, "velocity": 100}, {"time": 1222, "pitch": 64, "duration": 10, "velocity": 93}, {"time": 1231, "pitch": 48, "duration": 5, "velocity": 85}, {"time": 1234, "pitch": 60, "duration": 10, "velocity": 92}, {"time": 1234, "pitch": 64, "duration": 10, "velocity": 90}, {"time": 1240, "pitch": 48, "duration": 6, "velocity": 90}, {"time": 1246, "pitch": 60, "duration": 6, "velocity": 96}, {"time": 1246, "pitch": 64, "duration": 12, "velocity": 92}, {"time": 1249, "pitch": 48, "duration": 3, "velocity": 88}, {"time": 1252, "pitch": 55, "duration": 5, "velocity": 92}, {"time": 1255, "pitch": 60, "duration": 3, "velocity": 96}, {"time": 1258, "pitch": 43, "duration": 39, "velocity": 81}, {"time": 1264, "pitch": 50, "duration": 32, "velocity": 57}, {"time": 1270, "pitch": 62, "duration": 15, "velocity": 95}, {"time": 1270, "pitch": 67, "duration": 11, "velocity": 96}, {"time": 1279, "pitch": 55, "duration": 4, "velocity": 86}, {"time": 1282, "pitch": 71, "duration": 24, "velocity": 100}, {"time": 1285, "pitch": 55, "duration": 5, "velocity": 89}, {"time": 1288, "pitch": 62, "duration": 8, "velocity": 74}, {"time": 1294, "pitch": 67, "duration": 7, "velocity": 100}, {"time": 1300, "pitch": 62, "duration": 7, "velocity": 102}, {"time": 1303, "pitch": 67, "duration": 3, "velocity": 90}, {"time": 1306, "pitch": 42, "duration": 49, "velocity": 112}, {"time": 1312, "pitch": 54, "duration": 11, "velocity": 74}, {"time": 1318, "pitch": 62, "duration": 10, "velocity": 99}, {"time": 1318, "pitch": 66, "duration": 9, "velocity": 107}, {"time": 1321, "pitch": 57, "duration": 6, "velocity": 52}, {"time": 1327, "pitch": 54, "duration": 6, "velocity": 58}, {"time": 1330, "pitch": 62, "duration": 5, "velocity": 96}, {"time": 1330, "pitch": 66, "duration": 9, "velocity": 102}, {"time": 1333, "pitch": 57, "duration": 6, "velocity": 38}, {"time": 1336, "pitch": 54, "duration": 6, "velocity": 95}, {"time": 1342, "pitch": 62, "duration": 4, "velocity": 117}, {"time": 1342, "pitch": 66, "duration": 4, "velocity": 127}, {"time": 1345, "pitch": 54, "duration": 10, "velocity": 107}, {"time": 1348, "pitch": 57, "duration": 3, "velocity": 86}, {"time": 1348, "pitch": 62, "duration": 2, "velocity": 102}, {"time": 1348, "pitch": 66, "duration": 2, "velocity": 122}, {"time": 1351, "pitch": 57, "duration": 3, "velocity": 89}, {"time": 1351, "pitch": 62, "duration": 3, "velocity": 107}, {"time": 1351, "pitch": 66, "duration": 3, "velocity": 117}, {"time": 1402, "pitch": 38, "duration": 2, "velocity": 99}, {"time": 1402, "pitch": 50, "duration": 2, "velocity": 99}, {"time": 1405, "pitch": 40, "duration": 2, "velocity": 82}, {"time": 1405, "pitch": 52, "duration": 2, "velocity": 82}, {"time": 1408, "pitch": 40, "duration": 2, "velocity": 69}, {"time": 1408, "pitch": 52, "duration": 2, "velocity": 69}, {"time": 1411, "pitch": 40, "duration": 2, "velocity": 73}, {"time": 1411, "pitch": 52, "duration": 2, "velocity": 73}, {"time": 1414, "pitch": 40, "duration": 3, "velocity": 83}, {"time": 1414, "pitch": 52, "duration": 3, "velocity": 79}, {"time": 1414, "pitch": 52, "duration": 3, "velocity": 83}, {"time": 1414, "pitch": 64, "duration": 14, "velocity": 82}, {"time": 1414, "pitch": 67, "duration": 14, "velocity": 75}, {"time": 1414, "pitch": 71, "duration": 15, "velocity": 78}, {"time": 1420, "pitch": 40, "duration": 1, "velocity": 93}, {"time": 1420, "pitch": 52, "duration": 1, "velocity": 93}, {"time": 1423, "pitch": 40, "duration": 1, "velocity": 92}, {"time": 1423, "pitch": 52, "duration": 1, "velocity": 92}, {"time": 1426, "pitch": 40, "duration": 2, "velocity": 97}, {"time": 1426, "pitch": 52, "duration": 1, "velocity": 97}, {"time": 1429, "pitch": 43, "duration": 2, "velocity": 88}, {"time": 1429, "pitch": 55, "duration": 2, "velocity": 88}, {"time": 1432, "pitch": 43, "duration": 2, "velocity": 72}, {"time": 1432, "pitch": 55, "duration": 2, "velocity": 72}, {"time": 1435, "pitch": 43, "duration": 2, "velocity": 75}, {"time": 1435, "pitch": 55, "duration": 2, "velocity": 75}, {"time": 1438, "pitch": 43, "duration": 6, "velocity": 88}, {"time": 1438, "pitch": 55, "duration": 6, "velocity": 74}, {"time": 1438, "pitch": 55, "duration": 6, "velocity": 88}, {"time": 1438, "pitch": 62, "duration": 16, "velocity": 75}, {"time": 1438, "pitch": 67, "duration": 15, "velocity": 85}, {"time": 1438, "pitch": 71, "duration": 16, "velocity": 92}, {"time": 1438, "pitch": 74, "duration": 15, "velocity": 86}, {"time": 1444, "pitch": 43, "duration": 1, "velocity": 92}, {"time": 1444, "pitch": 55, "duration": 1, "velocity": 92}, {"time": 1447, "pitch": 43, "duration": 2, "velocity": 82}, {"time": 1447, "pitch": 55, "duration": 2, "velocity": 82}, {"time": 1450, "pitch": 43, "duration": 2, "velocity": 97}, {"time": 1450, "pitch": 55, "duration": 2, "velocity": 97}, {"time": 1453, "pitch": 45, "duration": 2, "velocity": 95}, {"time": 1453, "pitch": 57, "duration": 2, "velocity": 95}, {"time": 1456, "pitch": 45, "duration": 2, "velocity": 85}, {"time": 1456, "pitch": 57, "duration": 2, "velocity": 85}, {"time": 1459, "pitch": 45, "duration": 2, "velocity": 78}, {"time": 1459, "pitch": 57, "duration": 2, "velocity": 78}, {"time": 1462, "pitch": 45, "duration": 5, "velocity": 90}, {"time": 1462, "pitch": 57, "duration": 5, "velocity": 69}, {"time": 1462, "pitch": 57, "duration": 5, "velocity": 90}, {"time": 1462, "pitch": 61, "duration": 12, "velocity": 78}, {"time": 1462, "pitch": 64, "duration": 13, "velocity": 58}, {"time": 1462, "pitch": 69, "duration": 14, "velocity": 78}, {"time": 1462, "pitch": 73, "duration": 13, "velocity": 97}, {"time": 1462, "pitch": 76, "duration": 14, "velocity": 82}, {"time": 1468, "pitch": 45, "duration": 1, "velocity": 93}, {"time": 1468, "pitch": 57, "duration": 1, "velocity": 93}, {"time": 1471, "pitch": 45, "duration": 1, "velocity": 72}, {"time": 1471, "pitch": 57, "duration": 1, "velocity": 72}, {"time": 1474, "pitch": 45, "duration": 2, "velocity": 95}, {"time": 1474, "pitch": 57, "duration": 1, "velocity": 95}, {"time": 1477, "pitch": 47, "duration": 2, "velocity": 88}, {"time": 1477, "pitch": 59, "duration": 2, "velocity": 88}, {"time": 1480, "pitch": 47, "duration": 2, "velocity": 79}, {"time": 1480, "pitch": 59, "duration": 2, "velocity": 79}, {"time": 1483, "pitch": 47, "duration": 2, "velocity": 76}, {"time": 1483, "pitch": 59, "duration": 2, "velocity": 76}, {"time": 1486, "pitch": 47, "duration": 5, "velocity": 88}, {"time": 1486, "pitch": 59, "duration": 5, "velocity": 77}, {"time": 1486, "pitch": 59, "duration": 5, "velocity": 88}, {"time": 1486, "pitch": 66, "duration": 11, "velocity": 63}, {"time": 1486, "pitch": 71, "duration": 12, "velocity": 78}, {"time": 1486, "pitch": 75, "duration": 12, "velocity": 96}, {"time": 1486, "pitch": 78, "duration": 12, "velocity": 90}, {"time": 1492, "pitch": 47, "duration": 1, "velocity": 99}, {"time": 1492, "pitch": 59, "duration": 1, "velocity": 99}, {"time": 1495, "pitch": 47, "duration": 2, "velocity": 93}, {"time": 1495, "pitch": 59, "duration": 2, "velocity": 93}, {"time": 1498, "pitch": 38, "duration": 2, "velocity": 99}, {"time": 1498, "pitch": 50, "duration": 2, "velocity": 99}, {"time": 1501, "pitch": 40, "duration": 2, "velocity": 82}, {"time": 1501, "pitch": 52, "duration": 2, "velocity": 82}, {"time": 1504, "pitch": 40, "duration": 2, "velocity": 69}, {"time": 1504, "pitch": 52, "duration": 2, "velocity": 69}, {"time": 1507, "pitch": 40, "duration": 2, "velocity": 73}, {"time": 1507, "pitch": 52, "duration": 2, "velocity": 73}, {"time": 1510, "pitch": 40, "duration": 3, "velocity": 83}, {"time": 1510, "pitch": 52, "duration": 3, "velocity": 76}, {"time": 1510, "pitch": 52, "duration": 3, "velocity": 83}, {"time": 1510, "pitch": 59, "duration": 11, "velocity": 74}, {"time": 1510, "pitch": 64, "duration": 12, "velocity": 88}, {"time": 1510, "pitch": 67, "duration": 12, "velocity": 89}, {"time": 1510, "pitch": 71, "duration": 12, "velocity": 86}, {"time": 1516, "pitch": 40, "duration": 1, "velocity": 93}, {"time": 1516, "pitch": 52, "duration": 1, "velocity": 93}, {"time": 1519, "pitch": 40, "duration": 1, "velocity": 92}, {"time": 1519, "pitch": 52, "duration": 1, "velocity": 92}, {"time": 1522, "pitch": 40, "duration": 2, "velocity": 97}, {"time": 1522, "pitch": 52, "duration": 2, "velocity": 97}, {"time": 1525, "pitch": 43, "duration": 2, "velocity": 88}, {"time": 1525, "pitch": 55, "duration": 2, "velocity": 88}, {"time": 1528, "pitch": 43, "duration": 2, "velocity": 72}, {"time": 1528, "pitch": 55, "duration": 2, "velocity": 72}, {"time": 1531, "pitch": 43, "duration": 2, "velocity": 75}, {"time": 1531, "pitch": 55, "duration": 2, "velocity": 75}, {"time": 1534, "pitch": 43, "duration": 6, "velocity": 88}, {"time": 1534, "pitch": 55, "duration": 6, "velocity": 62}, {"time": 1534, "pitch": 55, "duration": 6, "velocity": 88}, {"time": 1534, "pitch": 59, "duration": 12, "velocity": 64}, {"time": 1534, "pitch": 62, "duration": 13, "velocity": 57}, {"time": 1534, "pitch": 67, "duration": 13, "velocity": 76}, {"time": 1534, "pitch": 71, "duration": 13, "velocity": 82}, {"time": 1534, "pitch": 74, "duration": 13, "velocity": 78}, {"time": 1540, "pitch": 43, "duration": 1, "velocity": 92}, {"time": 1540, "pitch": 55, "duration": 1, "velocity": 92}, {"time": 1543, "pitch": 43, "duration": 2, "velocity": 82}, {"time": 1543, "pitch": 55, "duration": 2, "velocity": 82}, {"time": 1546, "pitch": 43, "duration": 2, "velocity": 97}, {"time": 1546, "pitch": 55, "duration": 1, "velocity": 97}, {"time": 1549, "pitch": 45, "duration": 2, "velocity": 95}, {"time": 1549, "pitch": 57, "duration": 2, "velocity": 95}, {"time": 1552, "pitch": 45, "duration": 2, "velocity": 85}, {"time": 1552, "pitch": 57, "duration": 2, "velocity": 85}, {"time": 1555, "pitch": 45, "duration": 2, "velocity": 78}, {"time": 1555, "pitch": 57, "duration": 2, "velocity": 78}, {"time": 1558, "pitch": 45, "duration": 5, "velocity": 90}, {"time": 1558, "pitch": 57, "duration": 5, "velocity": 64}, {"time": 1558, "pitch": 57, "duration": 5, "velocity": 90}, {"time": 1558, "pitch": 61, "duration": 12, "velocity": 88}, {"time": 1558, "pitch": 64, "duration": 12, "velocity": 66}, {"time": 1558, "pitch": 69, "duration": 12, "velocity": 79}, {"time": 1558, "pitch": 73, "duration": 12, "velocity": 93}, {"time": 1558, "pitch": 76, "duration": 12, "velocity": 77}, {"time": 1564, "pitch": 45, "duration": 1, "velocity": 93}, {"time": 1564, "pitch": 57, "duration": 1, "velocity": 93}, {"time": 1567, "pitch": 45, "duration": 1, "velocity": 72}, {"time": 1567, "pitch": 57, "duration": 1, "velocity": 72}, {"time": 1570, "pitch": 45, "duration": 2, "velocity": 95}, {"time": 1570, "pitch": 57, "duration": 2, "velocity": 95}, {"time": 1573, "pitch": 47, "duration": 2, "velocity": 88}, {"time": 1573, "pitch": 59, "duration": 2, "velocity": 88}, {"time": 1576, "pitch": 47, "duration": 2, "velocity": 79}, {"time": 1576, "pitch": 59, "duration": 2, "velocity": 79}, {"time": 1579, "pitch": 47, "duration": 2, "velocity": 76}, {"time": 1579, "pitch": 59, "duration": 2, "velocity": 76}, {"time": 1582, "pitch": 47, "duration": 5, "velocity": 88}, {"time": 1582, "pitch": 59, "duration": 5, "velocity": 56}, {"time": 1582, "pitch": 59, "duration": 5, "velocity": 88}, {"time": 1582, "pitch": 63, "duration": 12, "velocity": 63}, {"time": 1582, "pitch": 66, "duration": 12, "velocity": 55}, {"time": 1582, "pitch": 71, "duration": 12, "velocity": 73}, {"time": 1582, "pitch": 75, "duration": 12, "velocity": 93}, {"time": 1582, "pitch": 78, "duration": 12, "velocity": 79}, {"time": 1588, "pitch": 47, "duration": 1, "velocity": 99}, {"time": 1588, "pitch": 59, "duration": 1, "velocity": 99}, {"time": 1591, "pitch": 47, "duration": 2, "velocity": 93}, {"time": 1591, "pitch": 59, "duration": 2, "velocity": 93}, {"time": 1594, "pitch": 38, "duration": 2, "velocity": 99}, {"time": 1594, "pitch": 50, "duration": 2, "velocity": 99}, {"time": 1597, "pitch": 40, "duration": 2, "velocity": 82}, {"time": 1597, "pitch": 52, "duration": 2, "velocity": 82}, {"time": 1600, "pitch": 40, "duration": 2, "velocity": 69}, {"time": 1600, "pitch": 52, "duration": 2, "velocity": 69}, {"time": 1603, "pitch": 40, "duration": 2, "velocity": 73}, {"time": 1603, "pitch": 52, "duration": 2, "velocity": 73}, {"time": 1606, "pitch": 40, "duration": 3, "velocity": 83}, {"time": 1606, "pitch": 52, "duration": 3, "velocity": 79}, {"time": 1606, "pitch": 52, "duration": 3, "velocity": 83}, {"time": 1606, "pitch": 64, "duration": 14, "velocity": 82}, {"time": 1606, "pitch": 67, "duration": 14, "velocity": 75}, {"time": 1606, "pitch": 71, "duration": 15, "velocity": 78}, {"time": 1612, "pitch": 40, "duration": 1, "velocity": 93}, {"time": 1612, "pitch": 52, "duration": 1, "velocity": 93}, {"time": 1615, "pitch": 40, "duration": 1, "velocity": 92}, {"time": 1615, "pitch": 52, "duration": 1, "velocity": 92}, {"time": 1618, "pitch": 40, "duration": 2, "velocity": 97}, {"time": 1618, "pitch": 52, "duration": 1, "velocity": 97}, {"time": 1621, "pitch": 43, "duration": 2, "velocity": 88}, {"time": 1621, "pitch": 55, "duration": 2, "velocity": 88}, {"time": 1624, "pitch": 43, "duration": 2, "velocity": 72}, {"time": 1624, "pitch": 55, "duration": 2, "velocity": 72}, {"time": 1627, "pitch": 43, "duration": 2, "velocity": 75}, {"time": 1627, "pitch": 55, "duration": 2, "velocity": 75}, {"time": 1630, "pitch": 43, "duration": 6, "velocity": 88}, {"time": 1630, "pitch": 55, "duration": 6, "velocity": 74}, {"time": 1630, "pitch": 55, "duration": 6, "velocity": 88}, {"time": 1630, "pitch": 62, "duration": 16, "velocity": 75}, {"time": 1630, "pitch": 67, "duration": 15, "velocity": 85}, {"time": 1630, "pitch": 71, "duration": 16, "velocity": 92}, {"time": 1630, "pitch": 74, "duration": 15, "velocity": 86}, {"time": 1636, "pitch": 43, "duration": 1, "velocity": 92}, {"time": 1636, "pitch": 55, "duration": 1, "velocity": 92}, {"time": 1639, "pitch": 43, "duration": 2, "velocity": 82}, {"time": 1639, "pitch": 55, "duration": 2, "velocity": 82}, {"time": 1642, "pitch": 43, "duration": 2, "velocity": 97}, {"time": 1642, "pitch": 55, "duration": 2, "velocity": 97}, {"time": 1645, "pitch": 45, "duration": 2, "velocity": 95}, {"time": 1645, "pitch": 57, "duration": 2, "velocity": 95}, {"time": 1648, "pitch": 45, "duration": 2, "velocity": 85}, {"time": 1648, "pitch": 57, "duration": 2, "velocity": 85}, {"time": 1651, "pitch": 45, "duration": 2, "velocity": 78}, {"time": 1651, "pitch": 57, "duration": 2, "velocity": 78}, {"time": 1654, "pitch": 45, "duration": 5, "velocity": 90}, {"time": 1654, "pitch": 57, "duration": 5, "velocity": 69}, {"time": 1654, "pitch": 57, "duration": 5, "velocity": 90}, {"time": 1654, "pitch": 61, "duration": 12, "velocity": 78}, {"time": 1654, "pitch": 64, "duration": 13, "velocity": 58}, {"time": 1654, "pitch": 69, "duration": 14, "velocity": 78}, {"time": 1654, "pitch": 73, "duration": 13, "velocity": 97}, {"time": 1654, "pitch": 76, "duration": 14, "velocity": 82}, {"time": 1660, "pitch": 45, "duration": 1, "velocity": 93}, {"time": 1660, "pitch": 57, "duration": 1, "velocity": 93}, {"time": 1663, "pitch": 45, "duration": 1, "velocity": 72}, {"time": 1663, "pitch": 57, "duration": 1, "velocity": 72}, {"time": 1666, "pitch": 45, "duration": 2, "velocity": 95}, {"time": 1666, "pitch": 57, "duration": 1, "velocity": 95}, {"time": 1669, "pitch": 47, "duration": 2, "velocity": 88}, {"time": 1669, "pitch": 59, "duration": 2, "velocity": 88}, {"time": 1672, "pitch": 47, "duration": 2, "velocity": 79}, {"time": 1672, "pitch": 59, "duration": 2, "velocity": 79}, {"time": 1675, "pitch": 47, "duration": 2, "velocity": 76}, {"time": 1675, "pitch": 59, "duration": 2, "velocity": 76}, {"time": 1678, "pitch": 47, "duration": 5, "velocity": 88}, {"time": 1678, "pitch": 59, "duration": 5, "velocity": 77}, {"time": 1678, "pitch": 59, "duration": 5, "velocity": 88}, {"time": 1678, "pitch": 66, "duration": 11, "velocity": 63}, {"time": 1678, "pitch": 71, "duration": 12, "velocity": 78}, {"time": 1678, "pitch": 75, "duration": 12, "velocity": 96}, {"time": 1678, "pitch": 78, "duration": 12, "velocity": 90}, {"time": 1684, "pitch": 47, "duration": 1, "velocity": 99}, {"time": 1684, "pitch": 59, "duration": 1, "velocity": 99}, {"time": 1687, "pitch": 47, "duration": 2, "velocity": 93}, {"time": 1687, "pitch": 59, "duration": 2, "velocity": 93}, {"time": 1690, "pitch": 38, "duration": 2, "velocity": 99}, {"time": 1690, "pitch": 50, "duration": 2, "velocity": 99}, {"time": 1693, "pitch": 40, "duration": 2, "velocity": 82}, {"time": 1693, "pitch": 52, "duration": 2, "velocity": 82}, {"time": 1696, "pitch": 40, "duration": 2, "velocity": 69}, {"time": 1696, "pitch": 52, "duration": 2, "velocity": 69}, {"time": 1699, "pitch": 40, "duration": 2, "velocity": 73}, {"time": 1699, "pitch": 52, "duration": 2, "velocity": 73}, {"time": 1702, "pitch": 40, "duration": 3, "velocity": 83}, {"time": 1702, "pitch": 52, "duration": 3, "velocity": 76}, {"time": 1702, "pitch": 52, "duration": 3, "velocity": 83}, {"time": 1702, "pitch": 59, "duration": 11, "velocity": 74}, {"time": 1702, "pitch": 64, "duration": 12, "velocity": 88}, {"time": 1702, "pitch": 67, "duration": 12, "velocity": 89}, {"time": 1702, "pitch": 71, "duration": 12, "velocity": 86}, {"time": 1708, "pitch": 40, "duration": 1, "velocity": 93}, {"time": 1708, "pitch": 52, "duration": 1, "velocity": 93}, {"time": 1711, "pitch": 40, "duration": 1, "velocity": 92}, {"time": 1711, "pitch": 52, "duration": 1, "velocity": 92}, {"time": 1714, "pitch": 40, "duration": 2, "velocity": 97}, {"time": 1714, "pitch": 52, "duration": 2, "velocity": 97}, {"time": 1717, "pitch": 43, "duration": 2, "velocity": 88}, {"time": 1717, "pitch": 55, "duration": 2, "velocity": 88}, {"time": 1720, "pitch": 43, "duration": 2, "velocity": 72}, {"time": 1720, "pitch": 55, "duration": 2, "velocity": 72}, {"time": 1723, "pitch": 43, "duration": 2, "velocity": 75}, {"time": 1723, "pitch": 55, "duration": 2, "velocity": 75}, {"time": 1726, "pitch": 43, "duration": 6, "velocity": 88}, {"time": 1726, "pitch": 55, "duration": 6, "velocity": 62}, {"time": 1726, "pitch": 55, "duration": 6, "velocity": 88}, {"time": 1726, "pitch": 59, "duration": 12, "velocity": 64}, {"time": 1726, "pitch": 62, "duration": 13, "velocity": 57}, {"time": 1726, "pitch": 67, "duration": 13, "velocity": 76}, {"time": 1726, "pitch": 71, "duration": 13, "velocity": 82}, {"time": 1726, "pitch": 74, "duration": 13, "velocity": 78}, {"time": 1732, "pitch": 43, "duration": 1, "velocity": 92}, {"time": 1732, "pitch": 55, "duration": 1, "velocity": 92}, {"time": 1735, "pitch": 43, "duration": 2, "velocity": 82}, {"time": 1735, "pitch": 55, "duration": 2, "velocity": 82}, {"time": 1738, "pitch": 43, "duration": 2, "velocity": 97}, {"time": 1738, "pitch": 55, "duration": 1, "velocity": 97}, {"time": 1741, "pitch": 45, "duration": 2, "velocity": 95}, {"time": 1741, "pitch": 57, "duration": 2, "velocity": 95}, {"time": 1744, "pitch": 45, "duration": 2, "velocity": 85}, {"time": 1744, "pitch": 57, "duration": 2, "velocity": 85}, {"time": 1747, "pitch": 45, "duration": 2, "velocity": 78}, {"time": 1747, "pitch": 57, "duration": 2, "velocity": 78}, {"time": 1750, "pitch": 45, "duration": 5, "velocity": 90}, {"time": 1750, "pitch": 57, "duration": 5, "velocity": 64}, {"time": 1750, "pitch": 57, "duration": 5, "velocity": 90}, {"time": 1750, "pitch": 61, "duration": 12, "velocity": 88}, {"time": 1750, "pitch": 64, "duration": 12, "velocity": 66}, {"time": 1750, "pitch": 69, "duration": 12, "velocity": 79}, {"time": 1750, "pitch": 73, "duration": 12, "velocity": 93}, {"time": 1750, "pitch": 76, "duration": 12, "velocity": 77}, {"time": 1756, "pitch": 45, "duration": 1, "velocity": 93}, {"time": 1756, "pitch": 57, "duration": 1, "velocity": 93}, {"time": 1759, "pitch": 45, "duration": 1, "velocity": 72}, {"time": 1759, "pitch": 57, "duration": 1, "velocity": 72}, {"time": 1762, "pitch": 45, "duration": 2, "velocity": 95}, {"time": 1762, "pitch": 57, "duration": 2, "velocity": 95}, {"time": 1765, "pitch": 47, "duration": 2, "velocity": 88}, {"time": 1765, "pitch": 59, "duration": 2, "velocity": 88}, {"time": 1768, "pitch": 47, "duration": 2, "velocity": 79}, {"time": 1768, "pitch": 59, "duration": 2, "velocity": 79}, {"time": 1771, "pitch": 47, "duration": 2, "velocity": 76}, {"time": 1771, "pitch": 59, "duration": 2, "velocity": 76}, {"time": 1774, "pitch": 47, "duration": 5, "velocity": 88}, {"time": 1774, "pitch": 59, "duration": 5, "velocity": 56}, {"time": 1774, "pitch": 59, "duration": 5, "velocity": 88}, {"time": 1774, "pitch": 63, "duration": 12, "velocity": 63}, {"time": 1774, "pitch": 66, "duration": 12, "velocity": 55}, {"time": 1774, "pitch": 71, "duration": 12, "velocity": 73}, {"time": 1774, "pitch": 75, "duration": 12, "velocity": 93}, {"time": 1774, "pitch": 78, "duration": 12, "velocity": 79}, {"time": 1780, "pitch": 47, "duration": 1, "velocity": 99}, {"time": 1780, "pitch": 59, "duration": 1, "velocity": 99}, {"time": 1783, "pitch": 47, "duration": 2, "velocity": 93}, {"time": 1783, "pitch": 59, "duration": 2, "velocity": 93}, {"time": 1786, "pitch": 38, "duration": 2, "velocity": 99}, {"time": 1786, "pitch": 50, "duration": 2, "velocity": 99}, {"time": 1789, "pitch": 40, "duration": 2, "velocity": 82}, {"time": 1789, "pitch": 52, "duration": 2, "velocity": 82}, {"time": 1792, "pitch": 40, "duration": 2, "velocity": 69}, {"time": 1792, "pitch": 52, "duration": 2, "velocity": 69}, {"time": 1795, "pitch": 40, "duration": 2, "velocity": 73}, {"time": 1795, "pitch": 52, "duration": 2, "velocity": 73}, {"time": 1798, "pitch": 40, "duration": 3, "velocity": 83}, {"time": 1798, "pitch": 52, "duration": 3, "velocity": 79}, {"time": 1798, "pitch": 52, "duration": 3, "velocity": 83}, {"time": 1798, "pitch": 64, "duration": 14, "velocity": 82}, {"time": 1798, "pitch": 67, "duration": 14, "velocity": 75}, {"time": 1798, "pitch": 71, "duration": 15, "velocity": 78}, {"time": 1804, "pitch": 40, "duration": 1, "velocity": 93}, {"time": 1804, "pitch": 52, "duration": 1, "velocity": 93}, {"time": 1807, "pitch": 40, "duration": 1, "velocity": 92}, {"time": 1807, "pitch": 52, "duration": 1, "velocity": 92}, {"time": 1810, "pitch": 40, "duration": 2, "velocity": 97}, {"time": 1810, "pitch": 52, "duration": 1, "velocity": 97}, {"time": 1813, "pitch": 43, "duration": 2, "velocity": 88}, {"time": 1813, "pitch": 55, "duration": 2, "velocity": 88}, {"time": 1816, "pitch": 43, "duration": 2, "velocity": 72}, {"time": 1816, "pitch": 55, "duration": 2, "velocity": 72}, {"time": 1819, "pitch": 43, "duration": 2, "velocity": 75}, {"time": 1819, "pitch": 55, "duration": 2, "velocity": 75}, {"time": 1822, "pitch": 43, "duration": 6, "velocity": 88}, {"time": 1822, "pitch": 55, "duration": 6, "velocity": 74}, {"time": 1822, "pitch": 55, "duration": 6, "velocity": 88}, {"time": 1822, "pitch": 62, "duration": 16, "velocity": 75}, {"time": 1822, "pitch": 67, "duration": 15, "velocity": 85}, {"time": 1822, "pitch": 71, "duration": 16, "velocity": 92}, {"time": 1822, "pitch": 74, "duration": 15, "velocity": 86}, {"time": 1828, "pitch": 43, "duration": 1, "velocity": 92}, {"time": 1828, "pitch": 55, "duration": 1, "velocity": 92}, {"time": 1831, "pitch": 43, "duration": 2, "velocity": 82}, {"time": 1831, "pitch": 55, "duration": 2, "velocity": 82}, {"time": 1834, "pitch": 43, "duration": 2, "velocity": 97}, {"time": 1834, "pitch": 55, "duration": 2, "velocity": 97}, {"time": 1837, "pitch": 45, "duration": 2, "velocity": 95}, {"time": 1837, "pitch": 57, "duration": 2, "velocity": 95}, {"time": 1840, "pitch": 45, "duration": 2, "velocity": 85}, {"time": 1840, "pitch": 57, "duration": 2, "velocity": 85}, {"time": 1843, "pitch": 45, "duration": 2, "velocity": 78}, {"time": 1843, "pitch": 57, "duration": 2, "velocity": 78}, {"time": 1846, "pitch": 45, "duration": 5, "velocity": 90}, {"time": 1846, "pitch": 57, "duration": 5, "velocity": 69}, {"time": 1846, "pitch": 57, "duration": 5, "velocity": 90}, {"time": 1846, "pitch": 61, "duration": 12, "velocity": 78}, {"time": 1846, "pitch": 64, "duration": 13, "velocity": 58}, {"time": 1846, "pitch": 69, "duration": 14, "velocity": 78}, {"time": 1846, "pitch": 73, "duration": 13, "velocity": 97}, {"time": 1846, "pitch": 76, "duration": 14, "velocity": 82}, {"time": 1852, "pitch": 45, "duration": 1, "velocity": 93}, {"time": 1852, "pitch": 57, "duration": 1, "velocity": 93}, {"time": 1855, "pitch": 45, "duration": 1, "velocity": 72}, {"time": 1855, "pitch": 57, "duration": 1, "velocity": 72}, {"time": 1858, "pitch": 45, "duration": 2, "velocity": 95}, {"time": 1858, "pitch": 57, "duration": 1, "velocity": 95}, {"time": 1861, "pitch": 47, "duration": 2, "velocity": 88}, {"time": 1861, "pitch": 59, "duration": 2, "velocity": 88}, {"time": 1864, "pitch": 47, "duration": 2, "velocity": 79}, {"time": 1864, "pitch": 59, "duration": 2, "velocity": 79}, {"time": 1867, "pitch": 47, "duration": 2, "velocity": 76}, {"time": 1867, "pitch": 59, "duration": 2, "velocity": 76}, {"time": 1870, "pitch": 47, "duration": 5, "velocity": 88}, {"time": 1870, "pitch": 59, "duration": 5, "velocity": 77}, {"time": 1870, "pitch": 59, "duration": 5, "velocity": 88}, {"time": 1870, "pitch": 66, "duration": 11, "velocity": 63}, {"time": 1870, "pitch": 71, "duration": 12, "velocity": 78}, {"time": 1870, "pitch": 75, "duration": 12, "velocity": 96}, {"time": 1870, "pitch": 78, "duration": 12, "velocity": 90}, {"time": 1876, "pitch": 47, "duration": 1, "velocity": 99}, {"time": 1876, "pitch": 59, "duration": 1, "velocity": 99}, {"time": 1879, "pitch": 47, "duration": 2, "velocity": 93}, {"time": 1879, "pitch": 59, "duration": 2, "velocity": 93}, {"time": 1882, "pitch": 38, "duration": 2, "velocity": 99}, {"time": 1882, "pitch": 50, "duration": 2, "velocity": 99}, {"time": 1885, "pitch": 40, "duration": 2, "velocity": 82}, {"time": 1885, "pitch": 52, "duration": 2, "velocity": 82}, {"time": 1888, "pitch": 40, "duration": 2, "velocity": 69}, {"time": 1888, "pitch": 52, "duration": 2, "velocity": 69}, {"time": 1891, "pitch": 40, "duration": 2, "velocity": 73}, {"time": 1891, "pitch": 52, "duration": 2, "velocity": 73}, {"time": 1894, "pitch": 40, "duration": 3, "velocity": 83}, {"time": 1894, "pitch": 52, "duration": 3, "velocity": 76}, {"time": 1894, "pitch": 52, "duration": 3, "velocity": 83}, {"time": 1894, "pitch": 59, "duration": 11, "velocity": 74}, {"time": 1894, "pitch": 64, "duration": 12, "velocity": 88}, {"time": 1894, "pitch": 67, "duration": 12, "velocity": 89}, {"time": 1894, "pitch": 71, "duration": 12, "velocity": 86}, {"time": 1900, "pitch": 40, "duration": 1, "velocity": 93}, {"time": 1900, "pitch": 52, "duration": 1, "velocity": 93}, {"time": 1903, "pitch": 40, "duration": 1, "velocity": 92}, {"time": 1903, "pitch": 52, "duration": 1, "velocity": 92}, {"time": 1906, "pitch": 40, "duration": 2, "velocity": 97}, {"time": 1906, "pitch": 52, "duration": 2, "velocity": 97}, {"time": 1909, "pitch": 43, "duration": 2, "velocity": 88}, {"time": 1909, "pitch": 55, "duration": 2, "velocity": 88}, {"time": 1912, "pitch": 43, "duration": 2, "velocity": 72}, {"time": 1912, "pitch": 55, "duration": 2, "velocity": 72}, {"time": 1915, "pitch": 43, "duration": 2, "velocity": 75}, {"time": 1915, "pitch": 55, "duration": 2, "velocity": 75}, {"time": 1918, "pitch": 43, "duration": 6, "velocity": 88}, {"time": 1918, "pitch": 55, "duration": 6, "velocity": 62}, {"time": 1918, "pitch": 55, "duration": 6, "velocity": 88}, {"time": 1918, "pitch": 59, "duration": 12, "velocity": 64}, {"time": 1918, "pitch": 62, "duration": 13, "velocity": 57}, {"time": 1918, "pitch": 67, "duration": 13, "velocity": 76}, {"time": 1918, "pitch": 71, "duration": 13, "velocity": 82}, {"time": 1918, "pitch": 74, "duration": 13, "velocity": 78}, {"time": 1924, "pitch": 43, "duration": 1, "velocity": 92}, {"time": 1924, "pitch": 55, "duration": 1, "velocity": 92}, {"time": 1927, "pitch": 43, "duration": 2, "velocity": 82}, {"time": 1927, "pitch": 55, "duration": 2, "velocity": 82}, {"time": 1930, "pitch": 43, "duration": 2, "velocity": 97}, {"time": 1930, "pitch": 55, "duration": 1, "velocity": 97}, {"time": 1933, "pitch": 45, "duration": 2, "velocity": 95}, {"time": 1933, "pitch": 57, "duration": 2, "velocity": 95}, {"time": 1936, "pitch": 45, "duration": 2, "velocity": 85}, {"time": 1936, "pitch": 57, "duration": 2, "velocity": 85}, {"time": 1939, "pitch": 45, "duration": 2, "velocity": 78}, {"time": 1939, "pitch": 57, "duration": 2, "velocity": 78}, {"time": 1942, "pitch": 45, "duration": 5, "velocity": 90}, {"time": 1942, "pitch": 57, "duration": 5, "velocity": 64}, {"time": 1942, "pitch": 57, "duration": 5, "velocity": 90}, {"time": 1942, "pitch": 61, "duration": 12, "velocity": 88}, {"time": 1942, "pitch": 64, "duration": 12, "velocity": 66}, {"time": 1942, "pitch": 69, "duration": 12, "velocity": 79}, {"time": 1942, "pitch": 73, "duration": 12, "velocity": 93}, {"time": 1942, "pitch": 76, "duration": 12, "velocity": 77}, {"time": 1948, "pitch": 45, "duration": 1, "velocity": 93}, {"time": 1948, "pitch": 57, "duration": 1, "velocity": 93}, {"time": 1951, "pitch": 45, "duration": 1, "velocity": 72}, {"time": 1951, "pitch": 57, "duration": 1, "velocity": 72}, {"time": 1954, "pitch": 45, "duration": 2, "velocity": 95}, {"time": 1954, "pitch": 57, "duration": 2, "velocity": 95}, {"time": 1957, "pitch": 47, "duration": 2, "velocity": 88}, {"time": 1957, "pitch": 59, "duration": 2, "velocity": 88}, {"time": 1960, "pitch": 47, "duration": 2, "velocity": 79}, {"time": 1960, "pitch": 59, "duration": 2, "velocity": 79}, {"time": 1963, "pitch": 47, "duration": 2, "velocity": 76}, {"time": 1963, "pitch": 59, "duration": 2, "velocity": 76}, {"time": 1966, "pitch": 47, "duration": 5, "velocity": 88}, {"time": 1966, "pitch": 59, "duration": 5, "velocity": 56}, {"time": 1966, "pitch": 59, "duration": 5, "velocity": 88}, {"time": 1966, "pitch": 63, "duration": 12, "velocity": 63}, {"time": 1966, "pitch": 66, "duration": 12, "velocity": 55}, {"time": 1966, "pitch": 71, "duration": 12, "velocity": 73}, {"time": 1966, "pitch": 75, "duration": 12, "velocity": 93}, {"time": 1966, "pitch": 78, "duration": 12, "velocity": 79}, {"time": 1972, "pitch": 47, "duration": 1, "velocity": 99}, {"time": 1972, "pitch": 59, "duration": 1, "velocity": 99}, {"time": 1975, "pitch": 47, "duration": 2, "velocity": 93}, {"time": 1975, "pitch": 59, "duration": 2, "velocity": 93}, {"time": 1978, "pitch": 38, "duration": 2, "velocity": 99}, {"time": 1978, "pitch": 50, "duration": 2, "velocity": 99}, {"time": 1981, "pitch": 40, "duration": 2, "velocity": 82}, {"time": 1981, "pitch": 52, "duration": 2, "velocity": 82}, {"time": 1984, "pitch": 40, "duration": 2, "velocity": 69}, {"time": 1984, "pitch": 52, "duration": 2, "velocity": 69}, {"time": 1987, "pitch": 40, "duration": 2, "velocity": 73}, {"time": 1987, "pitch": 52, "duration": 2, "velocity": 73}, {"time": 1990, "pitch": 40, "duration": 3, "velocity": 83}, {"time": 1990, "pitch": 52, "duration": 3, "velocity": 79}, {"time": 1990, "pitch": 52, "duration": 3, "velocity": 83}, {"time": 1990, "pitch": 64, "duration": 14, "velocity": 82}, {"time": 1990, "pitch": 67, "duration": 14, "velocity": 75}, {"time": 1990, "pitch": 71, "duration": 15, "velocity": 78}, {"time": 1996, "pitch": 40, "duration": 1, "velocity": 93}, {"time": 1996, "pitch": 52, "duration": 1, "velocity": 93}, {"time": 1999, "pitch": 40, "duration": 1, "velocity": 92}, {"time": 1999, "pitch": 52, "duration": 1, "velocity": 92}, {"time": 2002, "pitch": 40, "duration": 2, "velocity": 97}, {"time": 2002, "pitch": 52, "duration": 1, "velocity": 97}, {"time": 2005, "pitch": 43, "duration": 2, "velocity": 88}, {"time": 2005, "pitch": 55, "duration": 2, "velocity": 88}, {"time": 2008, "pitch": 43, "duration": 2, "velocity": 72}, {"time": 2008, "pitch": 55, "duration": 2, "velocity": 72}, {"time": 2011, "pitch": 43, "duration": 2, "velocity": 75}, {"time": 2011, "pitch": 55, "duration": 2, "velocity": 75}, {"time": 2014, "pitch": 43, "duration": 6, "velocity": 88}, {"time": 2014, "pitch": 55, "duration": 6, "velocity": 74}, {"time": 2014, "pitch": 55, "duration": 6, "velocity": 88}, {"time": 2014, "pitch": 62, "duration": 16, "velocity": 75}, {"time": 2014, "pitch": 67, "duration": 15, "velocity": 85}, {"time": 2014, "pitch": 71, "duration": 16, "velocity": 92}, {"time": 2014, "pitch": 74, "duration": 15, "velocity": 86}, {"time": 2020, "pitch": 43, "duration": 1, "velocity": 92}, {"time": 2020, "pitch": 55, "duration": 1, "velocity": 92}, {"time": 2023, "pitch": 43, "duration": 2, "velocity": 82}, {"time": 2023, "pitch": 55, "duration": 2, "velocity": 82}, {"time": 2026, "pitch": 43, "duration": 2, "velocity": 97}, {"time": 2026, "pitch": 55, "duration": 2, "velocity": 97}, {"time": 2029, "pitch": 45, "duration": 2, "velocity": 95}, {"time": 2029, "pitch": 57, "duration": 2, "velocity": 95}, {"time": 2032, "pitch": 45, "duration": 2, "velocity": 85}, {"time": 2032, "pitch": 57, "duration": 2, "velocity": 85}, {"time": 2035, "pitch": 45, "duration": 2, "velocity": 78}, {"time": 2035, "pitch": 57, "duration": 2, "velocity": 78}, {"time": 2038, "pitch": 45, "duration": 5, "velocity": 90}, {"time": 2038, "pitch": 57, "duration": 5, "velocity": 69}, {"time": 2038, "pitch": 57, "duration": 5, "velocity": 90}, {"time": 2038, "pitch": 61, "duration": 12, "velocity": 78}, {"time": 2038, "pitch": 64, "duration": 13, "velocity": 58}, {"time": 2038, "pitch": 69, "duration": 14, "velocity": 78}, {"time": 2038, "pitch": 73, "duration": 13, "velocity": 97}, {"time": 2038, "pitch": 76, "duration": 14, "velocity": 82}, {"time": 2044, "pitch": 45, "duration": 1, "velocity": 93}, {"time": 2044, "pitch": 57, "duration": 1, "velocity": 93}, {"time": 2047, "pitch": 45, "duration": 1, "velocity": 72}, {"time": 2047, "pitch": 57, "duration": 1, "velocity": 72}, {"time": 2050, "pitch": 45, "duration": 2, "velocity": 95}, {"time": 2050, "pitch": 57, "duration": 1, "velocity": 95}, {"time": 2053, "pitch": 47, "duration": 2, "velocity": 88}, {"time": 2053, "pitch": 59, "duration": 2, "velocity": 88}, {"time": 2056, "pitch": 47, "duration": 2, "velocity": 79}, {"time": 2056, "pitch": 59, "duration": 2, "velocity": 79}, {"time": 2059, "pitch": 47, "duration": 2, "velocity": 76}, {"time": 2059, "pitch": 59, "duration": 2, "velocity": 76}, {"time": 2062, "pitch": 47, "duration": 5, "velocity": 88}, {"time": 2062, "pitch": 59, "duration": 5, "velocity": 77}, {"time": 2062, "pitch": 59, "duration": 5, "velocity": 88}, {"time": 2062, "pitch": 66, "duration": 11, "velocity": 63}, {"time": 2062, "pitch": 71, "duration": 12, "velocity": 78}, {"time": 2062, "pitch": 75, "duration": 12, "velocity": 96}, {"time": 2062, "pitch": 78, "duration": 12, "velocity": 90}, {"time": 2068, "pitch": 47, "duration": 1, "velocity": 99}, {"time": 2068, "pitch": 59, "duration": 1, "velocity": 99}, {"time": 2071, "pitch": 47, "duration": 2, "velocity": 93}, {"time": 2071, "pitch": 59, "duration": 2, "velocity": 93}, {"time": 2074, "pitch": 38, "duration": 2, "velocity": 99}, {"time": 2074, "pitch": 50, "duration": 2, "velocity": 99}, {"time": 2077, "pitch": 40, "duration": 2, "velocity": 82}, {"time": 2077, "pitch": 52, "duration": 2, "velocity": 82}, {"time": 2080, "pitch": 40, "duration": 2, "velocity": 69}, {"time": 2080, "pitch": 52, "duration": 2, "velocity": 69}, {"time": 2083, "pitch": 40, "duration": 2, "velocity": 73}, {"time": 2083, "pitch": 52, "duration": 2, "velocity": 73}, {"time": 2086, "pitch": 40, "duration": 3, "velocity": 83}, {"time": 2086, "pitch": 52, "duration": 3, "velocity": 76}, {"time": 2086, "pitch": 52, "duration": 3, "velocity": 83}, {"time": 2086, "pitch": 59, "duration": 11, "velocity": 74}, {"time": 2086, "pitch": 64, "duration": 12, "velocity": 88}, {"time": 2086, "pitch": 67, "duration": 12, "velocity": 89}, {"time": 2086, "pitch": 71, "duration": 12, "velocity": 86}, {"time": 2092, "pitch": 40, "duration": 1, "velocity": 93}, {"time": 2092, "pitch": 52, "duration": 1, "velocity": 93}, {"time": 2095, "pitch": 40, "duration": 1, "velocity": 92}, {"time": 2095, "pitch": 52, "duration": 1, "velocity": 92}, {"time": 2098, "pitch": 40, "duration": 2, "velocity": 97}, {"time": 2098, "pitch": 52, "duration": 2, "velocity": 97}, {"time": 2101, "pitch": 43, "duration": 2, "velocity": 88}, {"time": 2101, "pitch": 55, "duration": 2, "velocity": 88}, {"time": 2104, "pitch": 43, "duration": 2, "velocity": 72}, {"time": 2104, "pitch": 55, "duration": 2, "velocity": 72}, {"time": 2107, "pitch": 43, "duration": 2, "velocity": 75}, {"time": 2107, "pitch": 55, "duration": 2, "velocity": 75}, {"time": 2110, "pitch": 43, "duration": 6, "velocity": 88}, {"time": 2110, "pitch": 55, "duration": 6, "velocity": 62}, {"time": 2110, "pitch": 55, "duration": 6, "velocity": 88}, {"time": 2110, "pitch": 59, "duration": 12, "velocity": 64}, {"time": 2110, "pitch": 62, "duration": 13, "velocity": 57}, {"time": 2110, "pitch": 67, "duration": 13, "velocity": 76}, {"time": 2110, "pitch": 71, "duration": 13, "velocity": 82}, {"time": 2110, "pitch": 74, "duration": 13, "velocity": 78}, {"time": 2116, "pitch": 43, "duration": 1, "velocity": 92}, {"time": 2116, "pitch": 55, "duration": 1, "velocity": 92}, {"time": 2119, "pitch": 43, "duration": 2, "velocity": 82}, {"time": 2119, "pitch": 55, "duration": 2, "velocity": 82}, {"time": 2122, "pitch": 43, "duration": 2, "velocity": 97}, {"time": 2122, "pitch": 55, "duration": 1, "velocity": 97}, {"time": 2125, "pitch": 45, "duration": 2, "velocity": 95}, {"time": 2125, "pitch": 57, "duration": 2, "velocity": 95}, {"time": 2128, "pitch": 45, "duration": 2, "velocity": 85}, {"time": 2128, "pitch": 57, "duration": 2, "velocity": 85}, {"time": 2131, "pitch": 45, "duration": 2, "velocity": 78}, {"time": 2131, "pitch": 57, "duration": 2, "velocity": 78}, {"time": 2134, "pitch": 45, "duration": 5, "velocity": 90}, {"time": 2134, "pitch": 57, "duration": 5, "velocity": 64}, {"time": 2134, "pitch": 57, "duration": 5, "velocity": 90}, {"time": 2134, "pitch": 61, "duration": 12, "velocity": 88}, {"time": 2134, "pitch": 64, "duration": 12, "velocity": 66}, {"time": 2134, "pitch": 69, "duration": 12, "velocity": 79}, {"time": 2134, "pitch": 73, "duration": 12, "velocity": 93}, {"time": 2134, "pitch": 76, "duration": 12, "velocity": 77}, {"time": 2140, "pitch": 45, "duration": 1, "velocity": 93}, {"time": 2140, "pitch": 57, "duration": 1, "velocity": 93}, {"time": 2143, "pitch": 45, "duration": 1, "velocity": 72}, {"time": 2143, "pitch": 57, "duration": 1, "velocity": 72}, {"time": 2146, "pitch": 45, "duration": 2, "velocity": 95}, {"time": 2146, "pitch": 57, "duration": 2, "velocity": 95}, {"time": 2149, "pitch": 47, "duration": 2, "velocity": 88}, {"time": 2149, "pitch": 59, "duration": 2, "velocity": 88}, {"time": 2152, "pitch": 47, "duration": 2, "velocity": 79}, {"time": 2152, "pitch": 59, "duration": 2, "velocity": 79}, {"time": 2155, "pitch": 47, "duration": 2, "velocity": 76}, {"time": 2155, "pitch": 59, "duration": 2, "velocity": 76}, {"time": 2158, "pitch": 47, "duration": 5, "velocity": 88}, {"time": 2158, "pitch": 59, "duration": 5, "velocity": 56}, {"time": 2158, "pitch": 59, "duration": 5, "velocity": 88}, {"time": 2158, "pitch": 63, "duration": 12, "velocity": 63}, {"time": 2158, "pitch": 66, "duration": 12, "velocity": 55}, {"time": 2158, "pitch": 71, "duration": 12, "velocity": 73}, {"time": 2158, "pitch": 75, "duration": 12, "velocity": 93}, {"time": 2158, "pitch": 78, "duration": 12, "velocity": 79}, {"time": 2164, "pitch": 47, "duration": 1, "velocity": 99}, {"time": 2164, "pitch": 59, "duration": 1, "velocity": 99}, {"time": 2167, "pitch": 47, "duration": 2, "velocity": 93}, {"time": 2167, "pitch": 59, "duration": 2, "velocity": 93}, {"time": 2170, "pitch": 38, "duration": 2, "velocity": 99}, {"time": 2170, "pitch": 50, "duration": 2, "velocity": 99}, {"time": 2173, "pitch": 40, "duration": 2, "velocity": 82}, {"time": 2173, "pitch": 52, "duration": 2, "velocity": 82}, {"time": 2176, "pitch": 40, "duration": 2, "velocity": 69}, {"time": 2176, "pitch": 52, "duration": 2, "velocity": 69}, {"time": 2179, "pitch": 40, "duration": 2, "velocity": 73}, {"time": 2179, "pitch": 52, "duration": 2, "velocity": 73}, {"time": 2182, "pitch": 40, "duration": 3, "velocity": 83}, {"time": 2182, "pitch": 52, "duration": 3, "velocity": 79}, {"time": 2182, "pitch": 52, "duration": 3, "velocity": 83}, {"time": 2182, "pitch": 64, "duration": 14, "velocity": 82}, {"time": 2182, "pitch": 67, "duration": 14, "velocity": 75}, {"time": 2182, "pitch": 71, "duration": 15, "velocity": 78}, {"time": 2188, "pitch": 40, "duration": 1, "velocity": 93}, {"time": 2188, "pitch": 52, "duration": 1, "velocity": 93}, {"time": 2191, "pitch": 40, "duration": 1, "velocity": 92}, {"time": 2191, "pitch": 52, "duration": 1, "velocity": 92}, {"time": 2194, "pitch": 40, "duration": 2, "velocity": 97}, {"time": 2194, "pitch": 52, "duration": 1, "velocity": 97}, {"time": 2197, "pitch": 43, "duration": 2, "velocity": 88}, {"time": 2197, "pitch": 55, "duration": 2, "velocity": 88}, {"time": 2200, "pitch": 43, "duration": 2, "velocity": 72}, {"time": 2200, "pitch": 55, "duration": 2, "velocity": 72}, {"time": 2203, "pitch": 43, "duration": 2, "velocity": 75}, {"time": 2203, "pitch": 55, "duration": 2, "velocity": 75}, {"time": 2206, "pitch": 43, "duration": 6, "velocity": 88}, {"time": 2206, "pitch": 55, "duration": 6, "velocity": 74}, {"time": 2206, "pitch": 55, "duration": 6, "velocity": 88}, {"time": 2206, "pitch": 62, "duration": 16, "velocity": 75}, {"time": 2206, "pitch": 67, "duration": 15, "velocity": 85}, {"time": 2206, "pitch": 71, "duration": 16, "velocity": 92}, {"time": 2206, "pitch": 74, "duration": 15, "velocity": 86}, {"time": 2212, "pitch": 43, "duration": 1, "velocity": 92}, {"time": 2212, "pitch": 55, "duration": 1, "velocity": 92}, {"time": 2215, "pitch": 43, "duration": 2, "velocity": 82}, {"time": 2215, "pitch": 55, "duration": 2, "velocity": 82}, {"time": 2218, "pitch": 43, "duration": 2, "velocity": 97}, {"time": 2218, "pitch": 55, "duration": 2, "velocity": 97}, {"time": 2221, "pitch": 45, "duration": 2, "velocity": 95}, {"time": 2221, "pitch": 57, "duration": 2, "velocity": 95}, {"time": 2224, "pitch": 45, "duration": 2, "velocity": 85}, {"time": 2224, "pitch": 57, "duration": 2, "velocity": 85}, {"time": 2227, "pitch": 45, "duration": 2, "velocity": 78}, {"time": 2227, "pitch": 57, "duration": 2, "velocity": 78}, {"time": 2230, "pitch": 45, "duration": 5, "velocity": 90}, {"time": 2230, "pitch": 57, "duration": 5, "velocity": 69}, {"time": 2230, "pitch": 57, "duration": 5, "velocity": 90}, {"time": 2230, "pitch": 61, "duration": 12, "velocity": 78}, {"time": 2230, "pitch": 64, "duration": 13, "velocity": 58}, {"time": 2230, "pitch": 69, "duration": 14, "velocity": 78}, {"time": 2230, "pitch": 73, "duration": 13, "velocity": 97}, {"time": 2230, "pitch": 76, "duration": 14, "velocity": 82}, {"time": 2236, "pitch": 45, "duration": 1, "velocity": 93}, {"time": 2236, "pitch": 57, "duration": 1, "velocity": 93}, {"time": 2239, "pitch": 45, "duration": 1, "velocity": 72}, {"time": 2239, "pitch": 57, "duration": 1, "velocity": 72}, {"time": 2242, "pitch": 45, "duration": 2, "velocity": 95}, {"time": 2242, "pitch": 57, "duration": 1, "velocity": 95}, {"time": 2245, "pitch": 47, "duration": 2, "velocity": 88}, {"time": 2245, "pitch": 59, "duration": 2, "velocity": 88}, {"time": 2248, "pitch": 47, "duration": 2, "velocity": 79}, {"time": 2248, "pitch": 59, "duration": 2, "velocity": 79}, {"time": 2251, "pitch": 47, "duration": 2, "velocity": 76}, {"time": 2251, "pitch": 59, "duration": 2, "velocity": 76}, {"time": 2254, "pitch": 47, "duration": 5, "velocity": 88}, {"time": 2254, "pitch": 59, "duration": 5, "velocity": 77}, {"time": 2254, "pitch": 59, "duration": 5, "velocity": 88}, {"time": 2254, "pitch": 66, "duration": 11, "velocity": 63}, {"time": 2254, "pitch": 71, "duration": 12, "velocity": 78}, {"time": 2254, "pitch": 75, "duration": 12, "velocity": 96}, {"time": 2254, "pitch": 78, "duration": 12, "velocity": 90}, {"time": 2260, "pitch": 47, "duration": 1, "velocity": 99}, {"time": 2260, "pitch": 59, "duration": 1, "velocity": 99}, {"time": 2263, "pitch": 47, "duration": 2, "velocity": 93}, {"time": 2263, "pitch": 59, "duration": 2, "velocity": 93}, {"time": 2266, "pitch": 38, "duration": 2, "velocity": 99}, {"time": 2266, "pitch": 50, "duration": 2, "velocity": 99}, {"time": 2269, "pitch": 40, "duration": 2, "velocity": 82}, {"time": 2269, "pitch": 52, "duration": 2, "velocity": 82}, {"time": 2272, "pitch": 40, "duration": 2, "velocity": 69}, {"time": 2272, "pitch": 52, "duration": 2, "velocity": 69}, {"time": 2275, "pitch": 40, "duration": 2, "velocity": 73}, {"time": 2275, "pitch": 52, "duration": 2, "velocity": 73}, {"time": 2278, "pitch": 40, "duration": 3, "velocity": 83}, {"time": 2278, "pitch": 52, "duration": 3, "velocity": 76}, {"time": 2278, "pitch": 52, "duration": 3, "velocity": 83}, {"time": 2278, "pitch": 59, "duration": 11, "velocity": 74}, {"time": 2278, "pitch": 64, "duration": 12, "velocity": 88}, {"time": 2278, "pitch": 67, "duration": 12, "velocity": 89}, {"time": 2278, "pitch": 71, "duration": 12, "velocity": 86}, {"time": 2284, "pitch": 40, "duration": 1, "velocity": 93}, {"time": 2284, "pitch": 52, "duration": 1, "velocity": 93}, {"time": 2287, "pitch": 40, "duration": 1, "velocity": 92}, {"time": 2287, "pitch": 52, "duration": 1, "velocity": 92}, {"time": 2290, "pitch": 40, "duration": 2, "velocity": 97}, {"time": 2290, "pitch": 52, "duration": 2, "velocity": 97}, {"time": 2293, "pitch": 43, "duration": 2, "velocity": 88}, {"time": 2293, "pitch": 55, "duration": 2, "velocity": 88}, {"time": 2296, "pitch": 43, "duration": 2, "velocity": 72}, {"time": 2296, "pitch": 55, "duration": 2, "velocity": 72}, {"time": 2299, "pitch": 43, "duration": 2, "velocity": 75}, {"time": 2299, "pitch": 55, "duration": 2, "velocity": 75}, {"time": 2302, "pitch": 43, "duration": 6, "velocity": 88}, {"time": 2302, "pitch": 55, "duration": 6, "velocity": 62}, {"time": 2302, "pitch": 55, "duration": 6, "velocity": 88}, {"time": 2302, "pitch": 59, "duration": 12, "velocity": 64}, {"time": 2302, "pitch": 62, "duration": 13, "velocity": 57}, {"time": 2302, "pitch": 67, "duration": 13, "velocity": 76}, {"time": 2302, "pitch": 71, "duration": 13, "velocity": 82}, {"time": 2302, "pitch": 74, "duration": 13, "velocity": 78}, {"time": 2308, "pitch": 43, "duration": 1, "velocity": 92}, {"time": 2308, "pitch": 55, "duration": 1, "velocity": 92}, {"time": 2311, "pitch": 43, "duration": 2, "velocity": 82}, {"time": 2311, "pitch": 55, "duration": 2, "velocity": 82}, {"time": 2314, "pitch": 43, "duration": 2, "velocity": 97}, {"time": 2314, "pitch": 55, "duration": 1, "velocity": 97}, {"time": 2317, "pitch": 45, "duration": 2, "velocity": 95}, {"time": 2317, "pitch": 57, "duration": 2, "velocity": 95}, {"time": 2320, "pitch": 45, "duration": 2, "velocity": 85}, {"time": 2320, "pitch": 57, "duration": 2, "velocity": 85}, {"time": 2323, "pitch": 45, "duration": 2, "velocity": 78}, {"time": 2323, "pitch": 57, "duration": 2, "velocity": 78}, {"time": 2326, "pitch": 45, "duration": 5, "velocity": 90}, {"time": 2326, "pitch": 57, "duration": 5, "velocity": 64}, {"time": 2326, "pitch": 57, "duration": 5, "velocity": 90}, {"time": 2326, "pitch": 61, "duration": 12, "velocity": 88}, {"time": 2326, "pitch": 64, "duration": 12, "velocity": 66}, {"time": 2326, "pitch": 69, "duration": 12, "velocity": 79}, {"time": 2326, "pitch": 73, "duration": 12, "velocity": 93}, {"time": 2326, "pitch": 76, "duration": 12, "velocity": 77}, {"time": 2332, "pitch": 45, "duration": 1, "velocity": 93}, {"time": 2332, "pitch": 57, "duration": 1, "velocity": 93}, {"time": 2335, "pitch": 45, "duration": 1, "velocity": 72}, {"time": 2335, "pitch": 57, "duration": 1, "velocity": 72}, {"time": 2338, "pitch": 45, "duration": 2, "velocity": 95}, {"time": 2338, "pitch": 57, "duration": 2, "velocity": 95}, {"time": 2341, "pitch": 47, "duration": 2, "velocity": 88}, {"time": 2341, "pitch": 59, "duration": 2, "velocity": 88}, {"time": 2344, "pitch": 47, "duration": 2, "velocity": 79}, {"time": 2344, "pitch": 59, "duration": 2, "velocity": 79}, {"time": 2347, "pitch": 47, "duration": 2, "velocity": 76}, {"time": 2347, "pitch": 59, "duration": 2, "velocity": 76}, {"time": 2350, "pitch": 47, "duration": 5, "velocity": 88}, {"time": 2350, "pitch": 59, "duration": 5, "velocity": 56}, {"time": 2350, "pitch": 59, "duration": 5, "velocity": 88}, {"time": 2350, "pitch": 63, "duration": 12, "velocity": 63}, {"time": 2350, "pitch": 66, "duration": 12, "velocity": 55}, {"time": 2350, "pitch": 71, "duration": 12, "velocity": 73}, {"time": 2350, "pitch": 75, "duration": 12, "velocity": 93}, {"time": 2350, "pitch": 78, "duration": 12, "velocity": 79}, {"time": 2356, "pitch": 47, "duration": 1, "velocity": 99}, {"time": 2356, "pitch": 59, "duration": 1, "velocity": 99}, {"time": 2359, "pitch": 47, "duration": 2, "velocity": 93}, {"time": 2359, "pitch": 59, "duration": 2, "velocity": 93}, {"time": 2362, "pitch": 38, "duration": 2, "velocity": 99}, {"time": 2362, "pitch": 50, "duration": 2, "velocity": 99}, {"time": 2365, "pitch": 40, "duration": 2, "velocity": 82}, {"time": 2365, "pitch": 52, "duration": 2, "velocity": 82}, {"time": 2368, "pitch": 40, "duration": 2, "velocity": 69}, {"time": 2368, "pitch": 52, "duration": 2, "velocity": 69}, {"time": 2371, "pitch": 40, "duration": 2, "velocity": 73}, {"time": 2371, "pitch": 52, "duration": 2, "velocity": 73}, {"time": 2374, "pitch": 40, "duration": 3, "velocity": 83}, {"time": 2374, "pitch": 52, "duration": 3, "velocity": 79}, {"time": 2374, "pitch": 52, "duration": 3, "velocity": 83}, {"time": 2374, "pitch": 64, "duration": 14, "velocity": 82}, {"time": 2374, "pitch": 67, "duration": 14, "velocity": 75}, {"time": 2374, "pitch": 71, "duration": 15, "velocity": 78}, {"time": 2380, "pitch": 40, "duration": 1, "velocity": 93}, {"time": 2380, "pitch": 52, "duration": 1, "velocity": 93}, {"time": 2383, "pitch": 40, "duration": 1, "velocity": 92}, {"time": 2383, "pitch": 52, "duration": 1, "velocity": 92}, {"time": 2386, "pitch": 40, "duration": 2, "velocity": 97}, {"time": 2386, "pitch": 52, "duration": 1, "velocity": 97}, {"time": 2389, "pitch": 43, "duration": 2, "velocity": 88}, {"time": 2389, "pitch": 55, "duration": 2, "velocity": 88}, {"time": 2392, "pitch": 43, "duration": 2, "velocity": 72}, {"time": 2392, "pitch": 55, "duration": 2, "velocity": 72}, {"time": 2395, "pitch": 43, "duration": 2, "velocity": 75}, {"time": 2395, "pitch": 55, "duration": 2, "velocity": 75}, {"time": 2398, "pitch": 43, "duration": 6, "velocity": 88}, {"time": 2398, "pitch": 55, "duration": 6, "velocity": 74}, {"time": 2398, "pitch": 55, "duration": 6, "velocity": 88}, {"time": 2398, "pitch": 62, "duration": 16, "velocity": 75}, {"time": 2398, "pitch": 67, "duration": 15, "velocity": 85}, {"time": 2398, "pitch": 71, "duration": 16, "velocity": 92}, {"time": 2398, "pitch": 74, "duration": 15, "velocity": 86}, {"time": 2404, "pitch": 43, "duration": 1, "velocity": 92}, {"time": 2404, "pitch": 55, "duration": 1, "velocity": 92}, {"time": 2407, "pitch": 43, "duration": 2, "velocity": 82}, {"time": 2407, "pitch": 55, "duration": 2, "velocity": 82}, {"time": 2410, "pitch": 43, "duration": 2, "velocity": 97}, {"time": 2410, "pitch": 55, "duration": 2, "velocity": 97}, {"time": 2413, "pitch": 45, "duration": 2, "velocity": 95}, {"time": 2413, "pitch": 57, "duration": 2, "velocity": 95}, {"time": 2416, "pitch": 45, "duration": 2, "velocity": 85}, {"time": 2416, "pitch": 57, "duration": 2, "velocity": 85}, {"time": 2419, "pitch": 45, "duration": 2, "velocity": 78}, {"time": 2419, "pitch": 57, "duration": 2, "velocity": 78}, {"time": 2422, "pitch": 45, "duration": 5, "velocity": 90}, {"time": 2422, "pitch": 57, "duration": 5, "velocity": 69}, {"time": 2422, "pitch": 57, "duration": 5, "velocity": 90}, {"time": 2422, "pitch": 61, "duration": 12, "velocity": 78}, {"time": 2422, "pitch": 64, "duration": 13, "velocity": 58}, {"time": 2422, "pitch": 69, "duration": 14, "velocity": 78}, {"time": 2422, "pitch": 73, "duration": 13, "velocity": 97}, {"time": 2422, "pitch": 76, "duration": 14, "velocity": 82}, {"time": 2428, "pitch": 45, "duration": 1, "velocity": 93}, {"time": 2428, "pitch": 57, "duration": 1, "velocity": 93}, {"time": 2431, "pitch": 45, "duration": 1, "velocity": 72}, {"time": 2431, "pitch": 57, "duration": 1, "velocity": 72}, {"time": 2434, "pitch": 45, "duration": 2, "velocity": 95}, {"time": 2434, "pitch": 57, "duration": 1, "velocity": 95}, {"time": 2437, "pitch": 47, "duration": 2, "velocity": 88}, {"time": 2437, "pitch": 59, "duration": 2, "velocity": 88}, {"time": 2440, "pitch": 47, "duration": 2, "velocity": 79}, {"time": 2440, "pitch": 59, "duration": 2, "velocity": 79}, {"time": 2443, "pitch": 47, "duration": 2, "velocity": 76}, {"time": 2443, "pitch": 59, "duration": 2, "velocity": 76}, {"time": 2446, "pitch": 47, "duration": 5, "velocity": 88}, {"time": 2446, "pitch": 59, "duration": 5, "velocity": 77}, {"time": 2446, "pitch": 59, "duration": 5, "velocity": 88}, {"time": 2446, "pitch": 66, "duration": 11, "velocity": 63}, {"time": 2446, "pitch": 71, "duration": 12, "velocity": 78}, {"time": 2446, "pitch": 75, "duration": 12, "velocity": 96}, {"time": 2446, "pitch": 78, "duration": 12, "velocity": 90}, {"time": 2452, "pitch": 47, "duration": 1, "velocity": 99}, {"time": 2452, "pitch": 59, "duration": 1, "velocity": 99}, {"time": 2455, "pitch": 47, "duration": 2, "velocity": 93}, {"time": 2455, "pitch": 59, "duration": 2, "velocity": 93}, {"time": 2458, "pitch": 38, "duration": 2, "velocity": 99}, {"time": 2458, "pitch": 50, "duration": 2, "velocity": 99}, {"time": 2461, "pitch": 40, "duration": 2, "velocity": 82}, {"time": 2461, "pitch": 52, "duration": 2, "velocity": 82}, {"time": 2464, "pitch": 40, "duration": 2, "velocity": 69}, {"time": 2464, "pitch": 52, "duration": 2, "velocity": 69}, {"time": 2467, "pitch": 40, "duration": 2, "velocity": 73}, {"time": 2467, "pitch": 52, "duration": 2, "velocity": 73}, {"time": 2470, "pitch": 40, "duration": 3, "velocity": 83}, {"time": 2470, "pitch": 52, "duration": 3, "velocity": 76}, {"time": 2470, "pitch": 52, "duration": 3, "velocity": 83}, {"time": 2470, "pitch": 59, "duration": 11, "velocity": 74}, {"time": 2470, "pitch": 64, "duration": 12, "velocity": 88}, {"time": 2470, "pitch": 67, "duration": 12, "velocity": 89}, {"time": 2470, "pitch": 71, "duration": 12, "velocity": 86}, {"time": 2476, "pitch": 40, "duration": 1, "velocity": 93}, {"time": 2476, "pitch": 52, "duration": 1, "velocity": 93}, {"time": 2479, "pitch": 40, "duration": 1, "velocity": 92}, {"time": 2479, "pitch": 52, "duration": 1, "velocity": 92}, {"time": 2482, "pitch": 40, "duration": 2, "velocity": 97}, {"time": 2482, "pitch": 52, "duration": 2, "velocity": 97}, {"time": 2485, "pitch": 43, "duration": 2, "velocity": 88}, {"time": 2485, "pitch": 55, "duration": 2, "velocity": 88}, {"time": 2488, "pitch": 43, "duration": 2, "velocity": 72}, {"time": 2488, "pitch": 55, "duration": 2, "velocity": 72}, {"time": 2491, "pitch": 43, "duration": 2, "velocity": 75}, {"time": 2491, "pitch": 55, "duration": 2, "velocity": 75}, {"time": 2494, "pitch": 43, "duration": 6, "velocity": 88}, {"time": 2494, "pitch": 55, "duration": 6, "velocity": 62}, {"time": 2494, "pitch": 55, "duration": 6, "velocity": 88}, {"time": 2494, "pitch": 59, "duration": 12, "velocity": 64}, {"time": 2494, "pitch": 62, "duration": 13, "velocity": 57}, {"time": 2494, "pitch": 67, "duration": 13, "velocity": 76}, {"time": 2494, "pitch": 71, "duration": 13, "velocity": 82}, {"time": 2494, "pitch": 74, "duration": 13, "velocity": 78}, {"time": 2500, "pitch": 43, "duration": 1, "velocity": 92}, {"time": 2500, "pitch": 55, "duration": 1, "velocity": 92}, {"time": 2503, "pitch": 43, "duration": 2, "velocity": 82}, {"time": 2503, "pitch": 55, "duration": 2, "velocity": 82}, {"time": 2506, "pitch": 43, "duration": 2, "velocity": 97}, {"time": 2506, "pitch": 55, "duration": 1, "velocity": 97}, {"time": 2509, "pitch": 45, "duration": 2, "velocity": 95}, {"time": 2509, "pitch": 57, "duration": 2, "velocity": 95}, {"time": 2512, "pitch": 45, "duration": 2, "velocity": 85}, {"time": 2512, "pitch": 57, "duration": 2, "velocity": 85}, {"time": 2515, "pitch": 45, "duration": 2, "velocity": 78}, {"time": 2515, "pitch": 57, "duration": 2, "velocity": 78}, {"time": 2518, "pitch": 45, "duration": 5, "velocity": 90}, {"time": 2518, "pitch": 57, "duration": 5, "velocity": 64}, {"time": 2518, "pitch": 57, "duration": 5, "velocity": 90}, {"time": 2518, "pitch": 61, "duration": 12, "velocity": 88}, {"time": 2518, "pitch": 64, "duration": 12, "velocity": 66}, {"time": 2518, "pitch": 69, "duration": 12, "velocity": 79}, {"time": 2518, "pitch": 73, "duration": 12, "velocity": 93}, {"time": 2518, "pitch": 76, "duration": 12, "velocity": 77}, {"time": 2524, "pitch": 45, "duration": 1, "velocity": 93}, {"time": 2524, "pitch": 57, "duration": 1, "velocity": 93}, {"time": 2527, "pitch": 45, "duration": 1, "velocity": 72}, {"time": 2527, "pitch": 57, "duration": 1, "velocity": 72}, {"time": 2530, "pitch": 45, "duration": 2, "velocity": 95}, {"time": 2530, "pitch": 57, "duration": 2, "velocity": 95}, {"time": 2533, "pitch": 47, "duration": 2, "velocity": 88}, {"time": 2533, "pitch": 59, "duration": 2, "velocity": 88}, {"time": 2536, "pitch": 47, "duration": 2, "velocity": 79}, {"time": 2536, "pitch": 59, "duration": 2, "velocity": 79}, {"time": 2539, "pitch": 47, "duration": 2, "velocity": 76}, {"time": 2539, "pitch": 59, "duration": 2, "velocity": 76}, {"time": 2542, "pitch": 47, "duration": 5, "velocity": 88}, {"time": 2542, "pitch": 59, "duration": 5, "velocity": 56}, {"time": 2542, "pitch": 59, "duration": 5, "velocity": 88}, {"time": 2542, "pitch": 63, "duration": 12, "velocity": 63}, {"time": 2542, "pitch": 66, "duration": 12, "velocity": 55}, {"time": 2542, "pitch": 71, "duration": 12, "velocity": 73}, {"time": 2542, "pitch": 75, "duration": 12, "velocity": 93}, {"time": 2542, "pitch": 78, "duration": 12, "velocity": 79}, {"time": 2548, "pitch": 47, "duration": 1, "velocity": 99}, {"time": 2548, "pitch": 59, "duration": 1, "velocity": 99}, {"time": 2551, "pitch": 47, "duration": 2, "velocity": 93}, {"time": 2551, "pitch": 59, "duration": 2, "velocity": 93}, {"time": 2554, "pitch": 36, "duration": 45, "velocity": 95}, {"time": 2560, "pitch": 43, "duration": 42, "velocity": 65}, {"time": 2563, "pitch": 48, "duration": 6, "velocity": 86}, {"time": 2566, "pitch": 55, "duration": 11, "velocity": 95}, {"time": 2566, "pitch": 60, "duration": 11, "velocity": 96}, {"time": 2566, "pitch": 64, "duration": 11, "velocity": 93}, {"time": 2575, "pitch": 48, "duration": 6, "velocity": 59}, {"time": 2578, "pitch": 55, "duration": 9, "velocity": 48}, {"time": 2578, "pitch": 60, "duration": 8, "velocity": 79}, {"time": 2578, "pitch": 64, "duration": 9, "velocity": 83}, {"time": 2584, "pitch": 48, "duration": 7, "velocity": 85}, {"time": 2590, "pitch": 60, "duration": 7, "velocity": 97}, {"time": 2590, "pitch": 64, "duration": 12, "velocity": 95}, {"time": 2593, "pitch": 48, "duration": 4, "velocity": 74}, {"time": 2596, "pitch": 55, "duration": 6, "velocity": 93}, {"time": 2599, "pitch": 60, "duration": 4, "velocity": 100}, {"time": 2602, "pitch": 36, "duration": 41, "velocity": 90}, {"time": 2608, "pitch": 43, "duration": 35, "velocity": 64}, {"time": 2614, "pitch": 55, "duration": 11, "velocity": 92}, {"time": 2614, "pitch": 60, "duration": 11, "velocity": 83}, {"time": 2614, "pitch": 64, "duration": 11, "velocity": 78}, {"time": 2623, "pitch": 48, "duration": 5, "velocity": 83}, {"time": 2626, "pitch": 60, "duration": 9, "velocity": 97}, {"time": 2626, "pitch": 64, "duration": 3, "velocity": 93}, {"time": 2632, "pitch": 48, "duration": 6, "velocity": 97}, {"time": 2638, "pitch": 60, "duration": 6, "velocity": 107}, {"time": 2638, "pitch": 64, "duration": 11, "velocity": 97}, {"time": 2641, "pitch": 48, "duration": 4, "velocity": 69}, {"time": 2644, "pitch": 55, "duration": 4, "velocity": 96}, {"time": 2647, "pitch": 60, "duration": 3, "velocity": 93}, {"time": 2650, "pitch": 43, "duration": 42, "velocity": 75}, {"time": 2656, "pitch": 50, "duration": 36, "velocity": 88}, {"time": 2662, "pitch": 62, "duration": 11, "velocity": 93}, {"time": 2662, "pitch": 67, "duration": 11, "velocity": 96}, {"time": 2662, "pitch": 71, "duration": 10, "velocity": 88}, {"time": 2671, "pitch": 55, "duration": 3, "velocity": 83}, {"time": 2674, "pitch": 62, "duration": 1, "velocity": 47}, {"time": 2674, "pitch": 67, "duration": 4, "velocity": 78}, {"time": 2674, "pitch": 71, "duration": 4, "velocity": 78}, {"time": 2680, "pitch": 62, "duration": 7, "velocity": 95}, {"time": 2689, "pitch": 55, "duration": 2, "velocity": 92}, {"time": 2695, "pitch": 62, "duration": 3, "velocity": 100}, {"time": 2698, "pitch": 42, "duration": 42, "velocity": 96}, {"time": 2698, "pitch": 62, "duration": 8, "velocity": 99}, {"time": 2698, "pitch": 66, "duration": 7, "velocity": 107}, {"time": 2704, "pitch": 54, "duration": 8, "velocity": 70}, {"time": 2710, "pitch": 62, "duration": 5, "velocity": 100}, {"time": 2710, "pitch": 66, "duration": 7, "velocity": 107}, {"time": 2716, "pitch": 57, "duration": 5, "velocity": 34}, {"time": 2719, "pitch": 54, "duration": 5, "velocity": 92}, {"time": 2722, "pitch": 62, "duration": 7, "velocity": 112}, {"time": 2722, "pitch": 66, "duration": 8, "velocity": 107}, {"time": 2728, "pitch": 54, "duration": 6, "velocity": 100}, {"time": 2734, "pitch": 66, "duration": 10, "velocity": 127}, {"time": 2737, "pitch": 54, "duration": 2, "velocity": 97}, {"time": 2740, "pitch": 62, "duration": 6, "velocity": 127}, {"time": 2743, "pitch": 57, "duration": 3, "velocity": 102}, {"time": 2746, "pitch": 36, "duration": 45, "velocity": 75}, {"time": 2752, "pitch": 43, "duration": 41, "velocity": 43}, {"time": 2758, "pitch": 55, "duration": 14, "velocity": 72}, {"time": 2758, "pitch": 60, "duration": 10, "velocity": 96}, {"time": 2758, "pitch": 64, "duration": 10, "velocity": 93}, {"time": 2767, "pitch": 48, "duration": 4, "velocity": 81}, {"time": 2770, "pitch": 64, "duration": 7, "velocity": 90}, {"time": 2773, "pitch": 48, "duration": 3, "velocity": 93}, {"time": 2776, "pitch": 55, "duration": 6, "velocity": 82}, {"time": 2779, "pitch": 48, "duration": 5, "velocity": 92}, {"time": 2782, "pitch": 60, "duration": 19, "velocity": 85}, {"time": 2782, "pitch": 64, "duration": 19, "velocity": 99}, {"time": 2788, "pitch": 55, "duration": 13, "velocity": 99}, {"time": 2794, "pitch": 36, "duration": 41, "velocity": 77}, {"time": 2800, "pitch": 43, "duration": 34, "velocity": 62}, {"time": 2803, "pitch": 48, "duration": 7, "velocity": 89}, {"time": 2806, "pitch": 55, "duration": 11, "velocity": 90}, {"time": 2806, "pitch": 60, "duration": 10, "velocity": 100}, {"time": 2806, "pitch": 64, "duration": 10, "velocity": 93}, {"time": 2815, "pitch": 48, "duration": 5, "velocity": 85}, {"time": 2818, "pitch": 60, "duration": 10, "velocity": 92}, {"time": 2818, "pitch": 64, "duration": 10, "velocity": 90}, {"time": 2824, "pitch": 48, "duration": 6, "velocity": 90}, {"time": 2830, "pitch": 60, "duration": 6, "velocity": 96}, {"time": 2830, "pitch": 64, "duration": 12, "velocity": 92}, {"time": 2833, "pitch": 48, "duration": 3, "velocity": 88}, {"time": 2836, "pitch": 55, "duration": 5, "velocity": 92}, {"time": 2839, "pitch": 60, "duration": 3, "velocity": 96}, {"time": 2842, "pitch": 43, "duration": 39, "velocity": 81}, {"time": 2848, "pitch": 50, "duration": 32, "velocity": 57}, {"time": 2854, "pitch": 62, "duration": 15, "velocity": 95}, {"time": 2854, "pitch": 67, "duration": 11, "velocity": 96}, {"time": 2863, "pitch": 55, "duration": 4, "velocity": 86}, {"time": 2866, "pitch": 71, "duration": 24, "velocity": 100}, {"time": 2869, "pitch": 55, "duration": 5, "velocity": 89}, {"time": 2872, "pitch": 62, "duration": 8, "velocity": 74}, {"time": 2878, "pitch": 67, "duration": 7, "velocity": 100}, {"time": 2884, "pitch": 62, "duration": 6, "velocity": 102}, {"time": 2887, "pitch": 67, "duration": 3, "velocity": 90}, {"time": 2891, "pitch": 38, "duration": 4, "velocity": 55}, {"time": 2891, "pitch": 45, "duration": 4, "velocity": 58}, {"time": 2891, "pitch": 50, "duration": 4, "velocity": 76}, {"time": 2891, "pitch": 57, "duration": 5, "velocity": 92}, {"time": 2891, "pitch": 62, "duration": 4, "velocity": 102}, {"time": 2891, "pitch": 66, "duration": 4, "velocity": 100}, {"time": 2897, "pitch": 38, "duration": 4, "velocity": 56}, {"time": 2897, "pitch": 45, "duration": 4, "velocity": 66}, {"time": 2897, "pitch": 50, "duration": 4, "velocity": 71}, {"time": 2897, "pitch": 57, "duration": 4, "velocity": 72}, {"time": 2897, "pitch": 62, "duration": 4, "velocity": 90}, {"time": 2897, "pitch": 66, "duration": 4, "velocity": 88}, {"time": 2903, "pitch": 38, "duration": 4, "velocity": 61}, {"time": 2903, "pitch": 45, "duration": 4, "velocity": 64}, {"time": 2903, "pitch": 50, "duration": 4, "velocity": 68}, {"time": 2903, "pitch": 57, "duration": 4, "velocity": 68}, {"time": 2903, "pitch": 62, "duration": 4, "velocity": 72}, {"time": 2903, "pitch": 66, "duration": 4, "velocity": 73}, {"time": 2909, "pitch": 38, "duration": 5, "velocity": 63}, {"time": 2909, "pitch": 45, "duration": 4, "velocity": 61}, {"time": 2909, "pitch": 50, "duration": 4, "velocity": 88}, {"time": 2909, "pitch": 57, "duration": 5, "velocity": 69}, {"time": 2909, "pitch": 62, "duration": 5, "velocity": 70}, {"time": 2909, "pitch": 66, "duration": 5, "velocity": 72}, {"time": 2915, "pitch": 38, "duration": 4, "velocity": 66}, {"time": 2915, "pitch": 45, "duration": 4, "velocity": 69}, {"time": 2915, "pitch": 50, "duration": 3, "velocity": 95}, {"time": 2915, "pitch": 57, "duration": 5, "velocity": 85}, {"time": 2915, "pitch": 62, "duration": 4, "velocity": 96}, {"time": 2915, "pitch": 66, "duration": 5, "velocity": 100}, {"time": 2921, "pitch": 36, "duration": 1, "velocity": 58}, {"time": 2921, "pitch": 38, "duration": 4, "velocity": 53}, {"time": 2921, "pitch": 45, "duration": 4, "velocity": 82}, {"time": 2921, "pitch": 50, "duration": 4, "velocity": 88}, {"time": 2921, "pitch": 57, "duration": 5, "velocity": 72}, {"time": 2921, "pitch": 62, "duration": 4, "velocity": 93}, {"time": 2921, "pitch": 66, "duration": 5, "velocity": 95}, {"time": 2927, "pitch": 38, "duration": 3, "velocity": 62}, {"time": 2927, "pitch": 45, "duration": 3, "velocity": 69}, {"time": 2927, "pitch": 50, "duration": 3, "velocity": 83}, {"time": 2927, "pitch": 57, "duration": 4, "velocity": 86}, {"time": 2927, "pitch": 62, "duration": 4, "velocity": 96}, {"time": 2927, "pitch": 66, "duration": 4, "velocity": 96}, {"time": 2933, "pitch": 38, "duration": 4, "velocity": 69}, {"time": 2933, "pitch": 45, "duration": 4, "velocity": 83}, {"time": 2933, "pitch": 50, "duration": 4, "velocity": 93}, {"time": 2933, "pitch": 57, "duration": 4, "velocity": 82}, {"time": 2933, "pitch": 62, "duration": 4, "velocity": 93}, {"time": 2933, "pitch": 66, "duration": 4, "velocity": 97}, {"time": 2939, "pitch": 38, "duration": 5, "velocity": 77}, {"time": 2939, "pitch": 45, "duration": 5, "velocity": 77}, {"time": 2939, "pitch": 50, "duration": 4, "velocity": 96}, {"time": 2939, "pitch": 57, "duration": 5, "velocity": 99}, {"time": 2939, "pitch": 62, "duration": 4, "velocity": 102}, {"time": 2939, "pitch": 66, "duration": 5, "velocity": 107}, {"time": 2986, "pitch": 38, "duration": 2, "velocity": 99}, {"time": 2986, "pitch": 50, "duration": 2, "velocity": 99}, {"time": 2989, "pitch": 40, "duration": 2, "velocity": 82}, {"time": 2989, "pitch": 52, "duration": 2, "velocity": 82}, {"time": 2992, "pitch": 40, "duration": 2, "velocity": 69}, {"time": 2992, "pitch": 52, "duration": 2, "velocity": 69}, {"time": 2995, "pitch": 40, "duration": 2, "velocity": 73}, {"time": 2995, "pitch": 52, "duration": 2, "velocity": 73}, {"time": 2998, "pitch": 40, "duration": 3, "velocity": 83}, {"time": 2998, "pitch": 52, "duration": 3, "velocity": 79}, {"time": 2998, "pitch": 52, "duration": 3, "velocity": 83}, {"time": 3004, "pitch": 40, "duration": 1, "velocity": 93}, {"time": 3004, "pitch": 52, "duration": 1, "velocity": 93}, {"time": 3007, "pitch": 40, "duration": 1, "velocity": 92}, {"time": 3007, "pitch": 52, "duration": 1, "velocity": 92}, {"time": 3010, "pitch": 40, "duration": 2, "velocity": 97}, {"time": 3010, "pitch": 52, "duration": 1, "velocity": 97}, {"time": 3013, "pitch": 43, "duration": 2, "velocity": 88}, {"time": 3013, "pitch": 55, "duration": 2, "velocity": 88}, {"time": 3016, "pitch": 43, "duration": 2, "velocity": 72}, {"time": 3016, "pitch": 55, "duration": 2, "velocity": 72}, {"time": 3019, "pitch": 43, "duration": 2, "velocity": 75}, {"time": 3019, "pitch": 55, "duration": 2, "velocity": 75}, {"time": 3022, "pitch": 43, "duration": 6, "velocity": 88}, {"time": 3022, "pitch": 55, "duration": 6, "velocity": 74}, {"time": 3022, "pitch": 55, "duration": 6, "velocity": 88}, {"time": 3028, "pitch": 43, "duration": 1, "velocity": 92}, {"time": 3028, "pitch": 55, "duration": 1, "velocity": 92}, {"time": 3031, "pitch": 43, "duration": 2, "velocity": 82}, {"time": 3031, "pitch": 55, "duration": 2, "velocity": 82}, {"time": 3034, "pitch": 43, "duration": 2, "velocity": 97}, {"time": 3034, "pitch": 55, "duration": 2, "velocity": 97}, {"time": 3037, "pitch": 45, "duration": 2, "velocity": 95}, {"time": 3037, "pitch": 57, "duration": 2, "velocity": 95}, {"time": 3040, "pitch": 45, "duration": 2, "velocity": 85}, {"time": 3040, "pitch": 57, "duration": 2, "velocity": 85}, {"time": 3043, "pitch": 45, "duration": 2, "velocity": 78}, {"time": 3043, "pitch": 57, "duration": 2, "velocity": 78}, {"time": 3046, "pitch": 45, "duration": 5, "velocity": 90}, {"time": 3046, "pitch": 57, "duration": 5, "velocity": 69}, {"time": 3046, "pitch": 57, "duration": 5, "velocity": 90}, {"time": 3052, "pitch": 45, "duration": 1, "velocity": 93}, {"time": 3052, "pitch": 57, "duration": 1, "velocity": 93}, {"time": 3055, "pitch": 45, "duration": 1, "velocity": 72}, {"time": 3055, "pitch": 57, "duration": 1, "velocity": 72}, {"time": 3058, "pitch": 45, "duration": 2, "velocity": 95}, {"time": 3058, "pitch": 57, "duration": 1, "velocity": 95}, {"time": 3061, "pitch": 47, "duration": 2, "velocity": 88}, {"time": 3061, "pitch": 59, "duration": 2, "velocity": 88}, {"time": 3064, "pitch": 47, "duration": 2, "velocity": 79}, {"time": 3064, "pitch": 59, "duration": 2, "velocity": 79}, {"time": 3067, "pitch": 47, "duration": 2, "velocity": 76}, {"time": 3067, "pitch": 59, "duration": 2, "velocity": 76}, {"time": 3070, "pitch": 47, "duration": 5, "velocity": 88}, {"time": 3070, "pitch": 59, "duration": 5, "velocity": 77}, {"time": 3070, "pitch": 59, "duration": 5, "velocity": 88}, {"time": 3076, "pitch": 47, "duration": 1, "velocity": 99}, {"time": 3076, "pitch": 59, "duration": 1, "velocity": 99}, {"time": 3079, "pitch": 47, "duration": 2, "velocity": 93}, {"time": 3079, "pitch": 59, "duration": 2, "velocity": 93}, {"time": 3082, "pitch": 38, "duration": 2, "velocity": 99}, {"time": 3082, "pitch": 50, "duration": 2, "velocity": 99}, {"time": 3085, "pitch": 40, "duration": 2, "velocity": 82}, {"time": 3085, "pitch": 52, "duration": 2, "velocity": 82}, {"time": 3088, "pitch": 40, "duration": 2, "velocity": 69}, {"time": 3088, "pitch": 52, "duration": 2, "velocity": 69}, {"time": 3091, "pitch": 40, "duration": 2, "velocity": 73}, {"time": 3091, "pitch": 52, "duration": 2, "velocity": 73}, {"time": 3094, "pitch": 40, "duration": 3, "velocity": 83}, {"time": 3094, "pitch": 52, "duration": 3, "velocity": 76}, {"time": 3094, "pitch": 52, "duration": 3, "velocity": 83}, {"time": 3100, "pitch": 40, "duration": 1, "velocity": 93}, {"time": 3100, "pitch": 52, "duration": 1, "velocity": 93}, {"time": 3103, "pitch": 40, "duration": 1, "velocity": 92}, {"time": 3103, "pitch": 52, "duration": 1, "velocity": 92}, {"time": 3106, "pitch": 40, "duration": 2, "velocity": 97}, {"time": 3106, "pitch": 52, "duration": 2, "velocity": 97}, {"time": 3109, "pitch": 43, "duration": 2, "velocity": 88}, {"time": 3109, "pitch": 55, "duration": 2, "velocity": 88}, {"time": 3112, "pitch": 43, "duration": 2, "velocity": 72}, {"time": 3112, "pitch": 55, "duration": 2, "velocity": 72}, {"time": 3115, "pitch": 43, "duration": 2, "velocity": 75}, {"time": 3115, "pitch": 55, "duration": 2, "velocity": 75}, {"time": 3118, "pitch": 43, "duration": 6, "velocity": 88}, {"time": 3118, "pitch": 55, "duration": 6, "velocity": 62}, {"time": 3118, "pitch": 55, "duration": 6, "velocity": 88}, {"time": 3124, "pitch": 43, "duration": 1, "velocity": 92}, {"time": 3124, "pitch": 55, "duration": 1, "velocity": 92}, {"time": 3127, "pitch": 43, "duration": 2, "velocity": 82}, {"time": 3127, "pitch": 55, "duration": 2, "velocity": 82}, {"time": 3130, "pitch": 43, "duration": 2, "velocity": 97}, {"time": 3130, "pitch": 55, "duration": 1, "velocity": 97}, {"time": 3133, "pitch": 45, "duration": 2, "velocity": 95}, {"time": 3133, "pitch": 57, "duration": 2, "velocity": 95}, {"time": 3136, "pitch": 45, "duration": 2, "velocity": 85}, {"time": 3136, "pitch": 57, "duration": 2, "velocity": 85}, {"time": 3139, "pitch": 45, "duration": 2, "velocity": 78}, {"time": 3139, "pitch": 57, "duration": 2, "velocity": 78}, {"time": 3142, "pitch": 45, "duration": 5, "velocity": 90}, {"time": 3142, "pitch": 57, "duration": 5, "velocity": 64}, {"time": 3142, "pitch": 57, "duration": 5, "velocity": 90}, {"time": 3148, "pitch": 45, "duration": 1, "velocity": 93}, {"time": 3148, "pitch": 57, "duration": 1, "velocity": 93}, {"time": 3151, "pitch": 45, "duration": 1, "velocity": 72}, {"time": 3151, "pitch": 57, "duration": 1, "velocity": 72}, {"time": 3154, "pitch": 45, "duration": 2, "velocity": 95}, {"time": 3154, "pitch": 57, "duration": 2, "velocity": 95}, {"time": 3157, "pitch": 47, "duration": 2, "velocity": 88}, {"time": 3157, "pitch": 59, "duration": 2, "velocity": 88}, {"time": 3160, "pitch": 47, "duration": 2, "velocity": 79}, {"time": 3160, "pitch": 59, "duration": 2, "velocity": 79}, {"time": 3163, "pitch": 47, "duration": 2, "velocity": 76}, {"time": 3163, "pitch": 59, "duration": 2, "velocity": 76}, {"time": 3166, "pitch": 47, "duration": 5, "velocity": 88}, {"time": 3166, "pitch": 59, "duration": 5, "velocity": 56}, {"time": 3166, "pitch": 59, "duration": 5, "velocity": 88}, {"time": 3172, "pitch": 47, "duration": 1, "velocity": 99}, {"time": 3172, "pitch": 59, "duration": 1, "velocity": 99}, {"time": 3175, "pitch": 47, "duration": 2, "velocity": 93}, {"time": 3175, "pitch": 59, "duration": 2, "velocity": 93}, {"time": 3178, "pitch": 38, "duration": 2, "velocity": 99}, {"time": 3178, "pitch": 50, "duration": 2, "velocity": 99}, {"time": 3181, "pitch": 40, "duration": 2, "velocity": 82}, {"time": 3181, "pitch": 52, "duration": 2, "velocity": 82}, {"time": 3184, "pitch": 40, "duration": 2, "velocity": 69}, {"time": 3184, "pitch": 52, "duration": 2, "velocity": 69}, {"time": 3187, "pitch": 40, "duration": 2, "velocity": 73}, {"time": 3187, "pitch": 52, "duration": 2, "velocity": 73}, {"time": 3190, "pitch": 40, "duration": 3, "velocity": 83}, {"time": 3190, "pitch": 52, "duration": 3, "velocity": 79}, {"time": 3190, "pitch": 52, "duration": 3, "velocity": 83}, {"time": 3196, "pitch": 40, "duration": 1, "velocity": 93}, {"time": 3196, "pitch": 52, "duration": 1, "velocity": 93}, {"time": 3199, "pitch": 40, "duration": 1, "velocity": 92}, {"time": 3199, "pitch": 52, "duration": 1, "velocity": 92}, {"time": 3202, "pitch": 40, "duration": 2, "velocity": 97}, {"time": 3202, "pitch": 52, "duration": 1, "velocity": 97}, {"time": 3205, "pitch": 43, "duration": 2, "velocity": 88}, {"time": 3205, "pitch": 55, "duration": 2, "velocity": 88}, {"time": 3208, "pitch": 43, "duration": 2, "velocity": 72}, {"time": 3208, "pitch": 55, "duration": 2, "velocity": 72}, {"time": 3211, "pitch": 43, "duration": 2, "velocity": 75}, {"time": 3211, "pitch": 55, "duration": 2, "velocity": 75}, {"time": 3214, "pitch": 43, "duration": 6, "velocity": 88}, {"time": 3214, "pitch": 55, "duration": 6, "velocity": 74}, {"time": 3214, "pitch": 55, "duration": 6, "velocity": 88}, {"time": 3220, "pitch": 43, "duration": 1, "velocity": 92}, {"time": 3220, "pitch": 55, "duration": 1, "velocity": 92}, {"time": 3223, "pitch": 43, "duration": 2, "velocity": 82}, {"time": 3223, "pitch": 55, "duration": 2, "velocity": 82}, {"time": 3226, "pitch": 43, "duration": 2, "velocity": 97}, {"time": 3226, "pitch": 55, "duration": 2, "velocity": 97}, {"time": 3229, "pitch": 45, "duration": 2, "velocity": 95}, {"time": 3229, "pitch": 57, "duration": 2, "velocity": 95}, {"time": 3232, "pitch": 45, "duration": 2, "velocity": 85}, {"time": 3232, "pitch": 57, "duration": 2, "velocity": 85}, {"time": 3235, "pitch": 45, "duration": 2, "velocity": 78}, {"time": 3235, "pitch": 57, "duration": 2, "velocity": 78}, {"time": 3238, "pitch": 45, "duration": 5, "velocity": 90}, {"time": 3238, "pitch": 57, "duration": 5, "velocity": 69}, {"time": 3238, "pitch": 57, "duration": 5, "velocity": 90}, {"time": 3244, "pitch": 45, "duration": 1, "velocity": 93}, {"time": 3244, "pitch": 57, "duration": 1, "velocity": 93}, {"time": 3247, "pitch": 45, "duration": 1, "velocity": 72}, {"time": 3247, "pitch": 57, "duration": 1, "velocity": 72}, {"time": 3250, "pitch": 45, "duration": 2, "velocity": 95}, {"time": 3250, "pitch": 57, "duration": 1, "velocity": 95}, {"time": 3253, "pitch": 47, "duration": 2, "velocity": 88}, {"time": 3253, "pitch": 59, "duration": 2, "velocity": 88}, {"time": 3256, "pitch": 47, "duration": 2, "velocity": 79}, {"time": 3256, "pitch": 59, "duration": 2, "velocity": 79}, {"time": 3259, "pitch": 47, "duration": 2, "velocity": 76}, {"time": 3259, "pitch": 59, "duration": 2, "velocity": 76}, {"time": 3262, "pitch": 47, "duration": 5, "velocity": 88}, {"time": 3262, "pitch": 59, "duration": 5, "velocity": 77}, {"time": 3262, "pitch": 59, "duration": 5, "velocity": 88}, {"time": 3268, "pitch": 47, "duration": 1, "velocity": 99}, {"time": 3268, "pitch": 59, "duration": 1, "velocity": 99}, {"time": 3271, "pitch": 47, "duration": 2, "velocity": 93}, {"time": 3271, "pitch": 59, "duration": 2, "velocity": 93}, {"time": 3274, "pitch": 38, "duration": 2, "velocity": 99}, {"time": 3274, "pitch": 50, "duration": 2, "velocity": 99}, {"time": 3277, "pitch": 40, "duration": 2, "velocity": 82}, {"time": 3277, "pitch": 52, "duration": 2, "velocity": 82}, {"time": 3280, "pitch": 40, "duration": 2, "velocity": 69}, {"time": 3280, "pitch": 52, "duration": 2, "velocity": 69}, {"time": 3283, "pitch": 40, "duration": 2, "velocity": 73}, {"time": 3283, "pitch": 52, "duration": 2, "velocity": 73}, {"time": 3286, "pitch": 40, "duration": 3, "velocity": 83}, {"time": 3286, "pitch": 52, "duration": 3, "velocity": 76}, {"time": 3286, "pitch": 52, "duration": 3, "velocity": 83}, {"time": 3292, "pitch": 40, "duration": 1, "velocity": 93}, {"time": 3292, "pitch": 52, "duration": 1, "velocity": 93}, {"time": 3295, "pitch": 40, "duration": 1, "velocity": 92}, {"time": 3295, "pitch": 52, "duration": 1, "velocity": 92}, {"time": 3298, "pitch": 40, "duration": 2, "velocity": 97}, {"time": 3298, "pitch": 52, "duration": 2, "velocity": 97}, {"time": 3301, "pitch": 43, "duration": 2, "velocity": 88}, {"time": 3301, "pitch": 55, "duration": 2, "velocity": 88}, {"time": 3304, "pitch": 43, "duration": 2, "velocity": 72}, {"time": 3304, "pitch": 55, "duration": 2, "velocity": 72}, {"time": 3307, "pitch": 43, "duration": 2, "velocity": 75}, {"time": 3307, "pitch": 55, "duration": 2, "velocity": 75}, {"time": 3310, "pitch": 43, "duration": 6, "velocity": 88}, {"time": 3310, "pitch": 55, "duration": 6, "velocity": 62}, {"time": 3310, "pitch": 55, "duration": 6, "velocity": 88}, {"time": 3316, "pitch": 43, "duration": 1, "velocity": 92}, {"time": 3316, "pitch": 55, "duration": 1, "velocity": 92}, {"time": 3319, "pitch": 43, "duration": 2, "velocity": 82}, {"time": 3319, "pitch": 55, "duration": 2, "velocity": 82}, {"time": 3322, "pitch": 43, "duration": 2, "velocity": 97}, {"time": 3322, "pitch": 55, "duration": 1, "velocity": 97}, {"time": 3325, "pitch": 45, "duration": 2, "velocity": 95}, {"time": 3325, "pitch": 57, "duration": 2, "velocity": 95}, {"time": 3328, "pitch": 45, "duration": 2, "velocity": 85}, {"time": 3328, "pitch": 57, "duration": 2, "velocity": 85}, {"time": 3331, "pitch": 45, "duration": 2, "velocity": 78}, {"time": 3331, "pitch": 57, "duration": 2, "velocity": 78}, {"time": 3334, "pitch": 45, "duration": 5, "velocity": 90}, {"time": 3334, "pitch": 57, "duration": 5, "velocity": 64}, {"time": 3334, "pitch": 57, "duration": 5, "velocity": 90}, {"time": 3340, "pitch": 45, "duration": 1, "velocity": 93}, {"time": 3340, "pitch": 57, "duration": 1, "velocity": 93}, {"time": 3343, "pitch": 45, "duration": 1, "velocity": 72}, {"time": 3343, "pitch": 57, "duration": 1, "velocity": 72}, {"time": 3346, "pitch": 45, "duration": 2, "velocity": 95}, {"time": 3346, "pitch": 57, "duration": 2, "velocity": 95}, {"time": 3349, "pitch": 47, "duration": 2, "velocity": 88}, {"time": 3349, "pitch": 59, "duration": 2, "velocity": 88}, {"time": 3352, "pitch": 47, "duration": 2, "velocity": 79}, {"time": 3352, "pitch": 59, "duration": 2, "velocity": 79}, {"time": 3355, "pitch": 47, "duration": 2, "velocity": 76}, {"time": 3355, "pitch": 59, "duration": 2, "velocity": 76}, {"time": 3358, "pitch": 47, "duration": 5, "velocity": 88}, {"time": 3358, "pitch": 59, "duration": 5, "velocity": 56}, {"time": 3358, "pitch": 59, "duration": 5, "velocity": 88}, {"time": 3364, "pitch": 47, "duration": 1, "velocity": 99}, {"time": 3364, "pitch": 59, "duration": 1, "velocity": 99}, {"time": 3367, "pitch": 47, "duration": 2, "velocity": 93}, {"time": 3367, "pitch": 59, "duration": 2, "velocity": 93}, {"time": 3370, "pitch": 40, "duration": 31, "velocity": 48}, {"time": 3370, "pitch": 52, "duration": 29, "velocity": 52}, {"time": 3370, "pitch": 59, "duration": 36, "velocity": 58}, {"time": 3370, "pitch": 64, "duration": 37, "velocity": 64}, {"time": 3370, "pitch": 67, "duration": 37, "velocity": 63}, {"time": 3418, "pitch": 45, "duration": 36, "velocity": 61}, {"time": 3418, "pitch": 57, "duration": 33, "velocity": 58}, {"time": 3418, "pitch": 61, "duration": 30, "velocity": 52}, {"time": 3418, "pitch": 64, "duration": 31, "velocity": 58}, {"time": 3454, "pitch": 57, "duration": 8, "velocity": 102}, {"time": 3460, "pitch": 55, "duration": 4, "velocity": 82}, {"time": 3463, "pitch": 54, "duration": 2, "velocity": 58}, {"time": 3466, "pitch": 40, "duration": 32, "velocity": 75}, {"time": 3466, "pitch": 52, "duration": 31, "velocity": 68}, {"time": 3478, "pitch": 55, "duration": 18, "velocity": 45}, {"time": 3478, "pitch": 59, "duration": 19, "velocity": 38}, {"time": 3514, "pitch": 45, "duration": 48, "velocity": 38}, {"time": 3514, "pitch": 52, "duration": 47, "velocity": 51}, {"time": 3514, "pitch": 57, "duration": 48, "velocity": 56}, {"time": 3514, "pitch": 61, "duration": 47, "velocity": 54}, {"time": 3514, "pitch": 64, "duration": 48, "velocity": 59}, {"time": 3562, "pitch": 38, "duration": 2, "velocity": 99}, {"time": 3562, "pitch": 50, "duration": 2, "velocity": 99}, {"time": 3565, "pitch": 40, "duration": 2, "velocity": 82}, {"time": 3565, "pitch": 52, "duration": 2, "velocity": 82}, {"time": 3568, "pitch": 40, "duration": 2, "velocity": 69}, {"time": 3568, "pitch": 52, "duration": 2, "velocity": 69}, {"time": 3571, "pitch": 40, "duration": 2, "velocity": 73}, {"time": 3571, "pitch": 52, "duration": 2, "velocity": 73}, {"time": 3574, "pitch": 40, "duration": 3, "velocity": 83}, {"time": 3574, "pitch": 52, "duration": 3, "velocity": 79}, {"time": 3574, "pitch": 52, "duration": 3, "velocity": 83}, {"time": 3580, "pitch": 40, "duration": 1, "velocity": 93}, {"time": 3580, "pitch": 52, "duration": 1, "velocity": 93}, {"time": 3583, "pitch": 40, "duration": 1, "velocity": 92}, {"time": 3583, "pitch": 52, "duration": 1, "velocity": 92}, {"time": 3586, "pitch": 40, "duration": 2, "velocity": 97}, {"time": 3586, "pitch": 52, "duration": 1, "velocity": 97}, {"time": 3589, "pitch": 43, "duration": 2, "velocity": 88}, {"time": 3589, "pitch": 55, "duration": 2, "velocity": 88}, {"time": 3592, "pitch": 43, "duration": 2, "velocity": 72}, {"time": 3592, "pitch": 55, "duration": 2, "velocity": 72}, {"time": 3595, "pitch": 43, "duration": 2, "velocity": 75}, {"time": 3595, "pitch": 55, "duration": 2, "velocity": 75}, {"time": 3598, "pitch": 43, "duration": 6, "velocity": 88}, {"time": 3598, "pitch": 55, "duration": 6, "velocity": 74}, {"time": 3598, "pitch": 55, "duration": 6, "velocity": 88}, {"time": 3604, "pitch": 43, "duration": 1, "velocity": 92}, {"time": 3604, "pitch": 55, "duration": 1, "velocity": 92}, {"time": 3607, "pitch": 43, "duration": 2, "velocity": 82}, {"time": 3607, "pitch": 55, "duration": 2, "velocity": 82}, {"time": 3610, "pitch": 43, "duration": 2, "velocity": 97}, {"time": 3610, "pitch": 55, "duration": 2, "velocity": 97}, {"time": 3613, "pitch": 45, "duration": 2, "velocity": 95}, {"time": 3613, "pitch": 57, "duration": 2, "velocity": 95}, {"time": 3616, "pitch": 45, "duration": 2, "velocity": 85}, {"time": 3616, "pitch": 57, "duration": 2, "velocity": 85}, {"time": 3619, "pitch": 45, "duration": 2, "velocity": 78}, {"time": 3619, "pitch": 57, "duration": 2, "velocity": 78}, {"time": 3622, "pitch": 45, "duration": 5, "velocity": 90}, {"time": 3622, "pitch": 57, "duration": 5, "velocity": 69}, {"time": 3622, "pitch": 57, "duration": 5, "velocity": 90}, {"time": 3628, "pitch": 45, "duration": 1, "velocity": 93}, {"time": 3628, "pitch": 57, "duration": 1, "velocity": 93}, {"time": 3631, "pitch": 45, "duration": 1, "velocity": 72}, {"time": 3631, "pitch": 57, "duration": 1, "velocity": 72}, {"time": 3634, "pitch": 45, "duration": 2, "velocity": 95}, {"time": 3634, "pitch": 57, "duration": 1, "velocity": 95}, {"time": 3637, "pitch": 47, "duration": 2, "velocity": 88}, {"time": 3637, "pitch": 59, "duration": 2, "velocity": 88}, {"time": 3640, "pitch": 47, "duration": 2, "velocity": 79}, {"time": 3640, "pitch": 59, "duration": 2, "velocity": 79}, {"time": 3643, "pitch": 47, "duration": 2, "velocity": 76}, {"time": 3643, "pitch": 59, "duration": 2, "velocity": 76}, {"time": 3646, "pitch": 47, "duration": 5, "velocity": 88}, {"time": 3646, "pitch": 59, "duration": 5, "velocity": 77}, {"time": 3646, "pitch": 59, "duration": 5, "velocity": 88}, {"time": 3652, "pitch": 47, "duration": 1, "velocity": 99}, {"time": 3652, "pitch": 59, "duration": 1, "velocity": 99}, {"time": 3655, "pitch": 47, "duration": 2, "velocity": 93}, {"time": 3655, "pitch": 59, "duration": 2, "velocity": 93}, {"time": 3658, "pitch": 38, "duration": 2, "velocity": 99}, {"time": 3658, "pitch": 50, "duration": 2, "velocity": 99}, {"time": 3661, "pitch": 40, "duration": 2, "velocity": 82}, {"time": 3661, "pitch": 52, "duration": 2, "velocity": 82}, {"time": 3664, "pitch": 40, "duration": 2, "velocity": 69}, {"time": 3664, "pitch": 52, "duration": 2, "velocity": 69}, {"time": 3667, "pitch": 40, "duration": 2, "velocity": 73}, {"time": 3667, "pitch": 52, "duration": 2, "velocity": 73}, {"time": 3670, "pitch": 40, "duration": 3, "velocity": 83}, {"time": 3670, "pitch": 52, "duration": 3, "velocity": 76}, {"time": 3670, "pitch": 52, "duration": 3, "velocity": 83}, {"time": 3676, "pitch": 40, "duration": 1, "velocity": 93}, {"time": 3676, "pitch": 52, "duration": 1, "velocity": 93}, {"time": 3679, "pitch": 40, "duration": 1, "velocity": 92}, {"time": 3679, "pitch": 52, "duration": 1, "velocity": 92}, {"time": 3682, "pitch": 40, "duration": 2, "velocity": 97}, {"time": 3682, "pitch": 52, "duration": 2, "velocity": 97}, {"time": 3685, "pitch": 43, "duration": 2, "velocity": 88}, {"time": 3685, "pitch": 55, "duration": 2, "velocity": 88}, {"time": 3688, "pitch": 43, "duration": 2, "velocity": 72}, {"time": 3688, "pitch": 55, "duration": 2, "velocity": 72}, {"time": 3691, "pitch": 43, "duration": 2, "velocity": 75}, {"time": 3691, "pitch": 55, "duration": 2, "velocity": 75}, {"time": 3694, "pitch": 43, "duration": 6, "velocity": 88}, {"time": 3694, "pitch": 55, "duration": 6, "velocity": 62}, {"time": 3694, "pitch": 55, "duration": 6, "velocity": 88}, {"time": 3700, "pitch": 43, "duration": 1, "velocity": 92}, {"time": 3700, "pitch": 55, "duration": 1, "velocity": 92}, {"time": 3703, "pitch": 43, "duration": 2, "velocity": 82}, {"time": 3703, "pitch": 55, "duration": 2, "velocity": 82}, {"time": 3706, "pitch": 43, "duration": 2, "velocity": 97}, {"time": 3706, "pitch": 55, "duration": 1, "velocity": 97}, {"time": 3709, "pitch": 45, "duration": 2, "velocity": 95}, {"time": 3709, "pitch": 57, "duration": 2, "velocity": 95}, {"time": 3712, "pitch": 45, "duration": 2, "velocity": 85}, {"time": 3712, "pitch": 57, "duration": 2, "velocity": 85}, {"time": 3715, "pitch": 45, "duration": 2, "velocity": 78}, {"time": 3715, "pitch": 57, "duration": 2, "velocity": 78}, {"time": 3718, "pitch": 45, "duration": 5, "velocity": 90}, {"time": 3718, "pitch": 57, "duration": 5, "velocity": 64}, {"time": 3718, "pitch": 57, "duration": 5, "velocity": 90}, {"time": 3724, "pitch": 45, "duration": 1, "velocity": 93}, {"time": 3724, "pitch": 57, "duration": 1, "velocity": 93}, {"time": 3727, "pitch": 45, "duration": 1, "velocity": 72}, {"time": 3727, "pitch": 57, "duration": 1, "velocity": 72}, {"time": 3730, "pitch": 45, "duration": 2, "velocity": 95}, {"time": 3730, "pitch": 57, "duration": 2, "velocity": 95}, {"time": 3733, "pitch": 47, "duration": 2, "velocity": 88}, {"time": 3733, "pitch": 59, "duration": 2, "velocity": 88}, {"time": 3736, "pitch": 47, "duration": 2, "velocity": 79}, {"time": 3736, "pitch": 59, "duration": 2, "velocity": 79}, {"time": 3739, "pitch": 47, "duration": 2, "velocity": 76}, {"time": 3739, "pitch": 59, "duration": 2, "velocity": 76}, {"time": 3742, "pitch": 47, "duration": 5, "velocity": 88}, {"time": 3742, "pitch": 59, "duration": 5, "velocity": 56}, {"time": 3742, "pitch": 59, "duration": 5, "velocity": 88}, {"time": 3748, "pitch": 47, "duration": 1, "velocity": 99}, {"time": 3748, "pitch": 59, "duration": 1, "velocity": 99}, {"time": 3751, "pitch": 47, "duration": 2, "velocity": 93}, {"time": 3751, "pitch": 59, "duration": 2, "velocity": 93}, {"time": 3754, "pitch": 47, "duration": 5, "velocity": 100}, {"time": 3754, "pitch": 59, "duration": 5, "velocity": 83}, {"time": 3754, "pitch": 63, "duration": 5, "velocity": 89}, {"time": 3754, "pitch": 66, "duration": 4, "velocity": 85}, {"time": 3760, "pitch": 47, "duration": 2, "velocity": 71}, {"time": 3760, "pitch": 59, "duration": 2, "velocity": 62}, {"time": 3760, "pitch": 63, "duration": 2, "velocity": 63}, {"time": 3760, "pitch": 66, "duration": 1, "velocity": 56}, {"time": 3763, "pitch": 47, "duration": 2, "velocity": 72}, {"time": 3763, "pitch": 59, "duration": 2, "velocity": 57}, {"time": 3763, "pitch": 63, "duration": 1, "velocity": 72}, {"time": 3763, "pitch": 66, "duration": 2, "velocity": 71}, {"time": 3766, "pitch": 47, "duration": 3, "velocity": 78}, {"time": 3766, "pitch": 59, "duration": 3, "velocity": 77}, {"time": 3766, "pitch": 63, "duration": 3, "velocity": 97}, {"time": 3766, "pitch": 66, "duration": 3, "velocity": 95}, {"time": 3772, "pitch": 47, "duration": 2, "velocity": 93}, {"time": 3772, "pitch": 59, "duration": 2, "velocity": 67}, {"time": 3772, "pitch": 63, "duration": 2, "velocity": 99}, {"time": 3772, "pitch": 66, "duration": 2, "velocity": 89}, {"time": 3775, "pitch": 47, "duration": 5, "velocity": 73}, {"time": 3775, "pitch": 59, "duration": 5, "velocity": 74}, {"time": 3775, "pitch": 63, "duration": 5, "velocity": 95}, {"time": 3775, "pitch": 66, "duration": 5, "velocity": 92}, {"time": 3781, "pitch": 47, "duration": 2, "velocity": 72}, {"time": 3781, "pitch": 59, "duration": 2, "velocity": 59}, {"time": 3781, "pitch": 63, "duration": 2, "velocity": 68}, {"time": 3781, "pitch": 66, "duration": 1, "velocity": 57}, {"time": 3784, "pitch": 47, "duration": 2, "velocity": 69}, {"time": 3784, "pitch": 59, "duration": 2, "velocity": 68}, {"time": 3784, "pitch": 63, "duration": 2, "velocity": 83}, {"time": 3784, "pitch": 66, "duration": 2, "velocity": 78}, {"time": 3790, "pitch": 47, "duration": 3, "velocity": 95}, {"time": 3790, "pitch": 59, "duration": 2, "velocity": 70}, {"time": 3790, "pitch": 63, "duration": 2, "velocity": 88}, {"time": 3790, "pitch": 66, "duration": 2, "velocity": 88}, {"time": 3796, "pitch": 47, "duration": 2, "velocity": 75}, {"time": 3796, "pitch": 59, "duration": 1, "velocity": 58}, {"time": 3796, "pitch": 63, "duration": 1, "velocity": 90}, {"time": 3796, "pitch": 66, "duration": 1, "velocity": 74}, {"time": 3799, "pitch": 47, "duration": 2, "velocity": 66}, {"time": 3799, "pitch": 59, "duration": 2, "velocity": 56}, {"time": 3799, "pitch": 63, "duration": 2, "velocity": 64}, {"time": 3799, "pitch": 66, "duration": 1, "velocity": 61}, {"time": 3802, "pitch": 47, "duration": 4, "velocity": 86}, {"time": 3802, "pitch": 59, "duration": 4, "velocity": 85}, {"time": 3802, "pitch": 63, "duration": 4, "velocity": 102}, {"time": 3802, "pitch": 66, "duration": 4, "velocity": 100}, {"time": 3808, "pitch": 47, "duration": 2, "velocity": 70}, {"time": 3808, "pitch": 59, "duration": 2, "velocity": 61}, {"time": 3808, "pitch": 63, "duration": 1, "velocity": 82}, {"time": 3808, "pitch": 66, "duration": 1, "velocity": 72}, {"time": 3811, "pitch": 47, "duration": 2, "velocity": 67}, {"time": 3811, "pitch": 59, "duration": 1, "velocity": 41}, {"time": 3811, "pitch": 63, "duration": 2, "velocity": 78}, {"time": 3811, "pitch": 66, "duration": 2, "velocity": 72}, {"time": 3814, "pitch": 47, "duration": 3, "velocity": 75}, {"time": 3814, "pitch": 59, "duration": 3, "velocity": 83}, {"time": 3814, "pitch": 63, "duration": 3, "velocity": 99}, {"time": 3814, "pitch": 66, "duration": 3, "velocity": 93}, {"time": 3820, "pitch": 47, "duration": 2, "velocity": 90}, {"time": 3820, "pitch": 59, "duration": 1, "velocity": 85}, {"time": 3820, "pitch": 63, "duration": 2, "velocity": 127}, {"time": 3820, "pitch": 66, "duration": 1, "velocity": 112}, {"time": 3823, "pitch": 47, "duration": 4, "velocity": 89}, {"time": 3823, "pitch": 59, "duration": 4, "velocity": 82}, {"time": 3823, "pitch": 63, "duration": 4, "velocity": 107}, {"time": 3823, "pitch": 66, "duration": 4, "velocity": 100}, {"time": 3829, "pitch": 47, "duration": 2, "velocity": 76}, {"time": 3829, "pitch": 59, "duration": 1, "velocity": 52}, {"time": 3829, "pitch": 63, "duration": 2, "velocity": 74}, {"time": 3829, "pitch": 66, "duration": 2, "velocity": 63}, {"time": 3832, "pitch": 47, "duration": 2, "velocity": 66}, {"time": 3832, "pitch": 59, "duration": 2, "velocity": 65}, {"time": 3832, "pitch": 63, "duration": 2, "velocity": 82}, {"time": 3832, "pitch": 66, "duration": 2, "velocity": 82}, {"time": 3838, "pitch": 47, "duration": 2, "velocity": 99}, {"time": 3838, "pitch": 59, "duration": 2, "velocity": 85}, {"time": 3838, "pitch": 63, "duration": 2, "velocity": 99}, {"time": 3838, "pitch": 66, "duration": 2, "velocity": 99}, {"time": 3844, "pitch": 47, "duration": 2, "velocity": 68}, {"time": 3844, "pitch": 59, "duration": 2, "velocity": 58}, {"time": 3844, "pitch": 63, "duration": 2, "velocity": 81}, {"time": 3844, "pitch": 66, "duration": 1, "velocity": 63}, {"time": 3847, "pitch": 47, "duration": 2, "velocity": 67}, {"time": 3847, "pitch": 63, "duration": 2, "velocity": 40}, {"time": 3847, "pitch": 66, "duration": 1, "velocity": 31}, {"time": 3850, "pitch": 47, "duration": 2, "velocity": 85}, {"time": 3850, "pitch": 59, "duration": 2, "velocity": 77}, {"time": 3850, "pitch": 63, "duration": 2, "velocity": 82}, {"time": 3850, "pitch": 66, "duration": 2, "velocity": 89}, {"time": 3856, "pitch": 47, "duration": 2, "velocity": 89}, {"time": 3856, "pitch": 59, "duration": 1, "velocity": 69}, {"time": 3856, "pitch": 63, "duration": 1, "velocity": 99}, {"time": 3856, "pitch": 66, "duration": 1, "velocity": 90}, {"time": 3859, "pitch": 47, "duration": 2, "velocity": 72}, {"time": 3859, "pitch": 59, "duration": 1, "velocity": 56}, {"time": 3859, "pitch": 63, "duration": 2, "velocity": 76}, {"time": 3859, "pitch": 66, "duration": 2, "velocity": 68}, {"time": 3862, "pitch": 47, "duration": 2, "velocity": 90}, {"time": 3862, "pitch": 59, "duration": 2, "velocity": 77}, {"time": 3862, "pitch": 63, "duration": 1, "velocity": 100}, {"time": 3862, "pitch": 66, "duration": 2, "velocity": 102}, {"time": 3868, "pitch": 47, "duration": 1, "velocity": 95}, {"time": 3868, "pitch": 59, "duration": 1, "velocity": 78}, {"time": 3868, "pitch": 63, "duration": 1, "velocity": 117}, {"time": 3868, "pitch": 66, "duration": 1, "velocity": 112}, {"time": 3871, "pitch": 47, "duration": 5, "velocity": 93}, {"time": 3871, "pitch": 59, "duration": 4, "velocity": 78}, {"time": 3871, "pitch": 63, "duration": 4, "velocity": 117}, {"time": 3871, "pitch": 66, "duration": 4, "velocity": 112}, {"time": 3877, "pitch": 47, "duration": 2, "velocity": 81}, {"time": 3877, "pitch": 59, "duration": 2, "velocity": 69}, {"time": 3877, "pitch": 63, "duration": 2, "velocity": 89}, {"time": 3877, "pitch": 66, "duration": 2, "velocity": 85}, {"time": 3880, "pitch": 47, "duration": 2, "velocity": 83}, {"time": 3880, "pitch": 59, "duration": 2, "velocity": 71}, {"time": 3880, "pitch": 63, "duration": 2, "velocity": 99}, {"time": 3880, "pitch": 66, "duration": 2, "velocity": 90}, {"time": 3886, "pitch": 47, "duration": 2, "velocity": 102}, {"time": 3886, "pitch": 59, "duration": 2, "velocity": 85}, {"time": 3886, "pitch": 63, "duration": 2, "velocity": 127}, {"time": 3886, "pitch": 66, "duration": 2, "velocity": 112}, {"time": 3892, "pitch": 47, "duration": 2, "velocity": 92}, {"time": 3892, "pitch": 59, "duration": 1, "velocity": 79}, {"time": 3892, "pitch": 63, "duration": 1, "velocity": 117}, {"time": 3892, "pitch": 66, "duration": 1, "velocity": 95}, {"time": 3895, "pitch": 47, "duration": 2, "velocity": 86}, {"time": 3895, "pitch": 59, "duration": 2, "velocity": 61}, {"time": 3895, "pitch": 63, "duration": 1, "velocity": 102}, {"time": 3895, "pitch": 66, "duration": 2, "velocity": 99}, {"time": 3898, "pitch": 47, "duration": 3, "velocity": 117}, {"time": 3898, "pitch": 59, "duration": 3, "velocity": 93}, {"time": 3898, "pitch": 63, "duration": 2, "velocity": 127}, {"time": 3898, "pitch": 66, "duration": 2, "velocity": 127}, {"time": 3904, "pitch": 47, "duration": 1, "velocity": 89}, {"time": 3904, "pitch": 59, "duration": 2, "velocity": 78}, {"time": 3904, "pitch": 63, "duration": 1, "velocity": 99}, {"time": 3904, "pitch": 66, "duration": 1, "velocity": 89}, {"time": 3907, "pitch": 47, "duration": 5, "velocity": 78}, {"time": 3907, "pitch": 59, "duration": 5, "velocity": 66}, {"time": 3907, "pitch": 63, "duration": 5, "velocity": 88}, {"time": 3907, "pitch": 66, "duration": 4, "velocity": 82}, {"time": 3913, "pitch": 47, "duration": 2, "velocity": 81}, {"time": 3913, "pitch": 59, "duration": 2, "velocity": 64}, {"time": 3913, "pitch": 63, "duration": 2, "velocity": 68}, {"time": 3913, "pitch": 66, "duration": 2, "velocity": 67}, {"time": 3916, "pitch": 47, "duration": 2, "velocity": 66}, {"time": 3916, "pitch": 59, "duration": 2, "velocity": 66}, {"time": 3916, "pitch": 63, "duration": 2, "velocity": 88}, {"time": 3916, "pitch": 66, "duration": 2, "velocity": 82}, {"time": 3922, "pitch": 47, "duration": 2, "velocity": 97}, {"time": 3922, "pitch": 59, "duration": 2, "velocity": 81}, {"time": 3922, "pitch": 63, "duration": 2, "velocity": 122}, {"time": 3922, "pitch": 66, "duration": 2, "velocity": 100}, {"time": 3934, "pitch": 46, "duration": 3, "velocity": 127}, {"time": 3934, "pitch": 58, "duration": 3, "velocity": 127}, {"time": 3934, "pitch": 70, "duration": 4, "velocity": 127}, {"time": 3937, "pitch": 45, "duration": 4, "velocity": 76}, {"time": 3937, "pitch": 57, "duration": 3, "velocity": 96}, {"time": 3937, "pitch": 69, "duration": 4, "velocity": 97}, {"time": 3940, "pitch": 43, "duration": 3, "velocity": 112}, {"time": 3940, "pitch": 55, "duration": 3, "velocity": 107}, {"time": 3940, "pitch": 67, "duration": 2, "velocity": 122}, {"time": 3943, "pitch": 38, "duration": 4, "velocity": 93}, {"time": 3943, "pitch": 50, "duration": 4, "velocity": 99}, {"time": 3943, "pitch": 62, "duration": 4, "velocity": 112}, {"time": 3946, "pitch": 38, "duration": 1, "velocity": 99}, {"time": 3946, "pitch": 40, "duration": 5, "velocity": 99}, {"time": 3946, "pitch": 50, "duration": 1, "velocity": 99}, {"time": 3946, "pitch": 52, "duration": 5, "velocity": 102}, {"time": 3946, "pitch": 64, "duration": 5, "velocity": 127}, {"time": 3949, "pitch": 40, "duration": 2, "velocity": 82}, {"time": 3949, "pitch": 52, "duration": 2, "velocity": 82}, {"time": 3952, "pitch": 40, "duration": 1, "velocity": 69}, {"time": 3952, "pitch": 52, "duration": 2, "velocity": 69}, {"time": 3955, "pitch": 40, "duration": 2, "velocity": 73}, {"time": 3955, "pitch": 52, "duration": 2, "velocity": 73}, {"time": 3958, "pitch": 40, "duration": 3, "velocity": 83}, {"time": 3958, "pitch": 52, "duration": 3, "velocity": 79}, {"time": 3958, "pitch": 52, "duration": 3, "velocity": 83}, {"time": 3958, "pitch": 64, "duration": 14, "velocity": 82}, {"time": 3958, "pitch": 67, "duration": 14, "velocity": 75}, {"time": 3958, "pitch": 71, "duration": 15, "velocity": 78}, {"time": 3964, "pitch": 40, "duration": 1, "velocity": 93}, {"time": 3964, "pitch": 52, "duration": 1, "velocity": 93}, {"time": 3967, "pitch": 40, "duration": 1, "velocity": 92}, {"time": 3967, "pitch": 52, "duration": 1, "velocity": 92}, {"time": 3970, "pitch": 40, "duration": 2, "velocity": 97}, {"time": 3970, "pitch": 52, "duration": 1, "velocity": 97}, {"time": 3973, "pitch": 43, "duration": 2, "velocity": 88}, {"time": 3973, "pitch": 55, "duration": 2, "velocity": 88}, {"time": 3976, "pitch": 43, "duration": 2, "velocity": 72}, {"time": 3976, "pitch": 55, "duration": 2, "velocity": 72}, {"time": 3979, "pitch": 43, "duration": 2, "velocity": 75}, {"time": 3979, "pitch": 55, "duration": 2, "velocity": 75}, {"time": 3982, "pitch": 43, "duration": 6, "velocity": 88}, {"time": 3982, "pitch": 55, "duration": 6, "velocity": 74}, {"time": 3982, "pitch": 55, "duration": 6, "velocity": 88}, {"time": 3982, "pitch": 62, "duration": 16, "velocity": 75}, {"time": 3982, "pitch": 67, "duration": 15, "velocity": 85}, {"time": 3982, "pitch": 71, "duration": 16, "velocity": 92}, {"time": 3982, "pitch": 74, "duration": 15, "velocity": 86}, {"time": 3988, "pitch": 43, "duration": 1, "velocity": 92}, {"time": 3988, "pitch": 55, "duration": 1, "velocity": 92}, {"time": 3991, "pitch": 43, "duration": 2, "velocity": 82}, {"time": 3991, "pitch": 55, "duration": 2, "velocity": 82}, {"time": 3994, "pitch": 43, "duration": 2, "velocity": 97}, {"time": 3994, "pitch": 55, "duration": 2, "velocity": 97}, {"time": 3997, "pitch": 45, "duration": 2, "velocity": 95}, {"time": 3997, "pitch": 57, "duration": 2, "velocity": 95}, {"time": 4000, "pitch": 45, "duration": 2, "velocity": 85}, {"time": 4000, "pitch": 57, "duration": 2, "velocity": 85}, {"time": 4003, "pitch": 45, "duration": 2, "velocity": 78}, {"time": 4003, "pitch": 57, "duration": 2, "velocity": 78}, {"time": 4006, "pitch": 45, "duration": 5, "velocity": 90}, {"time": 4006, "pitch": 57, "duration": 5, "velocity": 69}, {"time": 4006, "pitch": 57, "duration": 5, "velocity": 90}, {"time": 4006, "pitch": 61, "duration": 12, "velocity": 78}, {"time": 4006, "pitch": 64, "duration": 13, "velocity": 58}, {"time": 4006, "pitch": 69, "duration": 14, "velocity": 78}, {"time": 4006, "pitch": 73, "duration": 13, "velocity": 97}, {"time": 4006, "pitch": 76, "duration": 14, "velocity": 82}, {"time": 4012, "pitch": 45, "duration": 1, "velocity": 93}, {"time": 4012, "pitch": 57, "duration": 1, "velocity": 93}, {"time": 4015, "pitch": 45, "duration": 1, "velocity": 72}, {"time": 4015, "pitch": 57, "duration": 1, "velocity": 72}, {"time": 4018, "pitch": 45, "duration": 2, "velocity": 95}, {"time": 4018, "pitch": 57, "duration": 1, "velocity": 95}, {"time": 4021, "pitch": 47, "duration": 2, "velocity": 88}, {"time": 4021, "pitch": 59, "duration": 2, "velocity": 88}, {"time": 4024, "pitch": 47, "duration": 2, "velocity": 79}, {"time": 4024, "pitch": 59, "duration": 2, "velocity": 79}, {"time": 4027, "pitch": 47, "duration": 2, "velocity": 76}, {"time": 4027, "pitch": 59, "duration": 2, "velocity": 76}, {"time": 4030, "pitch": 47, "duration": 5, "velocity": 88}, {"time": 4030, "pitch": 59, "duration": 5, "velocity": 77}, {"time": 4030, "pitch": 59, "duration": 5, "velocity": 88}, {"time": 4030, "pitch": 66, "duration": 11, "velocity": 63}, {"time": 4030, "pitch": 71, "duration": 12, "velocity": 78}, {"time": 4030, "pitch": 75, "duration": 12, "velocity": 96}, {"time": 4030, "pitch": 78, "duration": 12, "velocity": 90}, {"time": 4036, "pitch": 47, "duration": 1, "velocity": 99}, {"time": 4036, "pitch": 59, "duration": 1, "velocity": 99}, {"time": 4039, "pitch": 47, "duration": 2, "velocity": 93}, {"time": 4039, "pitch": 59, "duration": 2, "velocity": 93}, {"time": 4042, "pitch": 38, "duration": 2, "velocity": 99}, {"time": 4042, "pitch": 50, "duration": 2, "velocity": 99}, {"time": 4045, "pitch": 40, "duration": 2, "velocity": 82}, {"time": 4045, "pitch": 52, "duration": 2, "velocity": 82}, {"time": 4048, "pitch": 40, "duration": 2, "velocity": 69}, {"time": 4048, "pitch": 52, "duration": 2, "velocity": 69}, {"time": 4051, "pitch": 40, "duration": 2, "velocity": 73}, {"time": 4051, "pitch": 52, "duration": 2, "velocity": 73}, {"time": 4054, "pitch": 40, "duration": 3, "velocity": 83}, {"time": 4054, "pitch": 52, "duration": 3, "velocity": 76}, {"time": 4054, "pitch": 52, "duration": 3, "velocity": 83}, {"time": 4054, "pitch": 59, "duration": 11, "velocity": 74}, {"time": 4054, "pitch": 64, "duration": 12, "velocity": 88}, {"time": 4054, "pitch": 67, "duration": 12, "velocity": 89}, {"time": 4054, "pitch": 71, "duration": 12, "velocity": 86}, {"time": 4060, "pitch": 40, "duration": 1, "velocity": 93}, {"time": 4060, "pitch": 52, "duration": 1, "velocity": 93}, {"time": 4063, "pitch": 40, "duration": 1, "velocity": 92}, {"time": 4063, "pitch": 52, "duration": 1, "velocity": 92}, {"time": 4066, "pitch": 40, "duration": 2, "velocity": 97}, {"time": 4066, "pitch": 52, "duration": 2, "velocity": 97}, {"time": 4069, "pitch": 43, "duration": 2, "velocity": 88}, {"time": 4069, "pitch": 55, "duration": 2, "velocity": 88}, {"time": 4072, "pitch": 43, "duration": 2, "velocity": 72}, {"time": 4072, "pitch": 55, "duration": 2, "velocity": 72}, {"time": 4075, "pitch": 43, "duration": 2, "velocity": 75}, {"time": 4075, "pitch": 55, "duration": 2, "velocity": 75}, {"time": 4078, "pitch": 43, "duration": 6, "velocity": 88}, {"time": 4078, "pitch": 55, "duration": 6, "velocity": 62}, {"time": 4078, "pitch": 55, "duration": 6, "velocity": 88}, {"time": 4078, "pitch": 59, "duration": 12, "velocity": 64}, {"time": 4078, "pitch": 62, "duration": 13, "velocity": 57}, {"time": 4078, "pitch": 67, "duration": 13, "velocity": 76}, {"time": 4078, "pitch": 71, "duration": 13, "velocity": 82}, {"time": 4078, "pitch": 74, "duration": 13, "velocity": 78}, {"time": 4084, "pitch": 43, "duration": 1, "velocity": 92}, {"time": 4084, "pitch": 55, "duration": 1, "velocity": 92}, {"time": 4087, "pitch": 43, "duration": 2, "velocity": 82}, {"time": 4087, "pitch": 55, "duration": 2, "velocity": 82}, {"time": 4090, "pitch": 43, "duration": 2, "velocity": 97}, {"time": 4090, "pitch": 55, "duration": 1, "velocity": 97}, {"time": 4093, "pitch": 45, "duration": 2, "velocity": 95}, {"time": 4093, "pitch": 57, "duration": 2, "velocity": 95}, {"time": 4096, "pitch": 45, "duration": 2, "velocity": 85}, {"time": 4096, "pitch": 57, "duration": 2, "velocity": 85}, {"time": 4099, "pitch": 45, "duration": 2, "velocity": 78}, {"time": 4099, "pitch": 57, "duration": 2, "velocity": 78}, {"time": 4102, "pitch": 45, "duration": 5, "velocity": 90}, {"time": 4102, "pitch": 57, "duration": 5, "velocity": 64}, {"time": 4102, "pitch": 57, "duration": 5, "velocity": 90}, {"time": 4102, "pitch": 61, "duration": 12, "velocity": 88}, {"time": 4102, "pitch": 64, "duration": 12, "velocity": 66}, {"time": 4102, "pitch": 69, "duration": 12, "velocity": 79}, {"time": 4102, "pitch": 73, "duration": 12, "velocity": 93}, {"time": 4102, "pitch": 76, "duration": 12, "velocity": 77}, {"time": 4108, "pitch": 45, "duration": 1, "velocity": 93}, {"time": 4108, "pitch": 57, "duration": 1, "velocity": 93}, {"time": 4111, "pitch": 45, "duration": 1, "velocity": 72}, {"time": 4111, "pitch": 57, "duration": 1, "velocity": 72}, {"time": 4114, "pitch": 45, "duration": 2, "velocity": 95}, {"time": 4114, "pitch": 57, "duration": 2, "velocity": 95}, {"time": 4117, "pitch": 47, "duration": 2, "velocity": 88}, {"time": 4117, "pitch": 59, "duration": 2, "velocity": 88}, {"time": 4120, "pitch": 47, "duration": 2, "velocity": 79}, {"time": 4120, "pitch": 59, "duration": 2, "velocity": 79}, {"time": 4123, "pitch": 47, "duration": 2, "velocity": 76}, {"time": 4123, "pitch": 59, "duration": 2, "velocity": 76}, {"time": 4126, "pitch": 47, "duration": 5, "velocity": 88}, {"time": 4126, "pitch": 59, "duration": 5, "velocity": 56}, {"time": 4126, "pitch": 59, "duration": 5, "velocity": 88}, {"time": 4126, "pitch": 63, "duration": 12, "velocity": 63}, {"time": 4126, "pitch": 66, "duration": 12, "velocity": 55}, {"time": 4126, "pitch": 71, "duration": 12, "velocity": 73}, {"time": 4126, "pitch": 75, "duration": 12, "velocity": 93}, {"time": 4126, "pitch": 78, "duration": 12, "velocity": 79}, {"time": 4132, "pitch": 47, "duration": 1, "velocity": 99}, {"time": 4132, "pitch": 59, "duration": 1, "velocity": 99}, {"time": 4135, "pitch": 47, "duration": 2, "velocity": 93}, {"time": 4135, "pitch": 59, "duration": 2, "velocity": 93}, {"time": 4138, "pitch": 38, "duration": 2, "velocity": 99}, {"time": 4138, "pitch": 50, "duration": 2, "velocity": 99}, {"time": 4141, "pitch": 40, "duration": 2, "velocity": 82}, {"time": 4141, "pitch": 52, "duration": 2, "velocity": 82}, {"time": 4144, "pitch": 40, "duration": 2, "velocity": 69}, {"time": 4144, "pitch": 52, "duration": 2, "velocity": 69}, {"time": 4147, "pitch": 40, "duration": 2, "velocity": 73}, {"time": 4147, "pitch": 52, "duration": 2, "velocity": 73}, {"time": 4150, "pitch": 40, "duration": 3, "velocity": 83}, {"time": 4150, "pitch": 52, "duration": 3, "velocity": 79}, {"time": 4150, "pitch": 52, "duration": 3, "velocity": 83}, {"time": 4150, "pitch": 64, "duration": 14, "velocity": 82}, {"time": 4150, "pitch": 67, "duration": 14, "velocity": 75}, {"time": 4150, "pitch": 71, "duration": 15, "velocity": 78}, {"time": 4156, "pitch": 40, "duration": 1, "velocity": 93}, {"time": 4156, "pitch": 52, "duration": 1, "velocity": 93}, {"time": 4159, "pitch": 40, "duration": 1, "velocity": 92}, {"time": 4159, "pitch": 52, "duration": 1, "velocity": 92}, {"time": 4162, "pitch": 40, "duration": 2, "velocity": 97}, {"time": 4162, "pitch": 52, "duration": 1, "velocity": 97}, {"time": 4165, "pitch": 43, "duration": 2, "velocity": 88}, {"time": 4165, "pitch": 55, "duration": 2, "velocity": 88}, {"time": 4168, "pitch": 43, "duration": 2, "velocity": 72}, {"time": 4168, "pitch": 55, "duration": 2, "velocity": 72}, {"time": 4171, "pitch": 43, "duration": 2, "velocity": 75}, {"time": 4171, "pitch": 55, "duration": 2, "velocity": 75}, {"time": 4174, "pitch": 43, "duration": 6, "velocity": 88}, {"time": 4174, "pitch": 55, "duration": 6, "velocity": 74}, {"time": 4174, "pitch": 55, "duration": 6, "velocity": 88}, {"time": 4174, "pitch": 62, "duration": 16, "velocity": 75}, {"time": 4174, "pitch": 67, "duration": 15, "velocity": 85}, {"time": 4174, "pitch": 71, "duration": 16, "velocity": 92}, {"time": 4174, "pitch": 74, "duration": 15, "velocity": 86}, {"time": 4180, "pitch": 43, "duration": 1, "velocity": 92}, {"time": 4180, "pitch": 55, "duration": 1, "velocity": 92}, {"time": 4183, "pitch": 43, "duration": 2, "velocity": 82}, {"time": 4183, "pitch": 55, "duration": 2, "velocity": 82}, {"time": 4186, "pitch": 43, "duration": 2, "velocity": 97}, {"time": 4186, "pitch": 55, "duration": 2, "velocity": 97}, {"time": 4189, "pitch": 45, "duration": 2, "velocity": 95}, {"time": 4189, "pitch": 57, "duration": 2, "velocity": 95}, {"time": 4192, "pitch": 45, "duration": 2, "velocity": 85}, {"time": 4192, "pitch": 57, "duration": 2, "velocity": 85}, {"time": 4195, "pitch": 45, "duration": 2, "velocity": 78}, {"time": 4195, "pitch": 57, "duration": 2, "velocity": 78}, {"time": 4198, "pitch": 45, "duration": 5, "velocity": 90}, {"time": 4198, "pitch": 57, "duration": 5, "velocity": 69}, {"time": 4198, "pitch": 57, "duration": 5, "velocity": 90}, {"time": 4198, "pitch": 61, "duration": 12, "velocity": 78}, {"time": 4198, "pitch": 64, "duration": 13, "velocity": 58}, {"time": 4198, "pitch": 69, "duration": 14, "velocity": 78}, {"time": 4198, "pitch": 73, "duration": 13, "velocity": 97}, {"time": 4198, "pitch": 76, "duration": 14, "velocity": 82}, {"time": 4204, "pitch": 45, "duration": 1, "velocity": 93}, {"time": 4204, "pitch": 57, "duration": 1, "velocity": 93}, {"time": 4207, "pitch": 45, "duration": 1, "velocity": 72}, {"time": 4207, "pitch": 57, "duration": 1, "velocity": 72}, {"time": 4210, "pitch": 45, "duration": 2, "velocity": 95}, {"time": 4210, "pitch": 57, "duration": 1, "velocity": 95}, {"time": 4213, "pitch": 47, "duration": 2, "velocity": 88}, {"time": 4213, "pitch": 59, "duration": 2, "velocity": 88}, {"time": 4216, "pitch": 47, "duration": 2, "velocity": 79}, {"time": 4216, "pitch": 59, "duration": 2, "velocity": 79}, {"time": 4219, "pitch": 47, "duration": 2, "velocity": 76}, {"time": 4219, "pitch": 59, "duration": 2, "velocity": 76}, {"time": 4222, "pitch": 47, "duration": 5, "velocity": 88}, {"time": 4222, "pitch": 59, "duration": 5, "velocity": 77}, {"time": 4222, "pitch": 59, "duration": 5, "velocity": 88}, {"time": 4222, "pitch": 66, "duration": 11, "velocity": 63}, {"time": 4222, "pitch": 71, "duration": 12, "velocity": 78}, {"time": 4222, "pitch": 75, "duration": 12, "velocity": 96}, {"time": 4222, "pitch": 78, "duration": 12, "velocity": 90}, {"time": 4228, "pitch": 47, "duration": 1, "velocity": 99}, {"time": 4228, "pitch": 59, "duration": 1, "velocity": 99}, {"time": 4231, "pitch": 47, "duration": 2, "velocity": 93}, {"time": 4231, "pitch": 59, "duration": 2, "velocity": 93}, {"time": 4234, "pitch": 38, "duration": 2, "velocity": 99}, {"time": 4234, "pitch": 50, "duration": 2, "velocity": 99}, {"time": 4237, "pitch": 40, "duration": 2, "velocity": 82}, {"time": 4237, "pitch": 52, "duration": 2, "velocity": 82}, {"time": 4240, "pitch": 40, "duration": 2, "velocity": 69}, {"time": 4240, "pitch": 52, "duration": 2, "velocity": 69}, {"time": 4243, "pitch": 40, "duration": 2, "velocity": 73}, {"time": 4243, "pitch": 52, "duration": 2, "velocity": 73}, {"time": 4246, "pitch": 40, "duration": 3, "velocity": 83}, {"time": 4246, "pitch": 52, "duration": 3, "velocity": 76}, {"time": 4246, "pitch": 52, "duration": 3, "velocity": 83}, {"time": 4246, "pitch": 59, "duration": 11, "velocity": 74}, {"time": 4246, "pitch": 64, "duration": 12, "velocity": 88}, {"time": 4246, "pitch": 67, "duration": 12, "velocity": 89}, {"time": 4246, "pitch": 71, "duration": 12, "velocity": 86}, {"time": 4252, "pitch": 40, "duration": 1, "velocity": 93}, {"time": 4252, "pitch": 52, "duration": 1, "velocity": 93}, {"time": 4255, "pitch": 40, "duration": 1, "velocity": 92}, {"time": 4255, "pitch": 52, "duration": 1, "velocity": 92}, {"time": 4258, "pitch": 40, "duration": 2, "velocity": 97}, {"time": 4258, "pitch": 52, "duration": 2, "velocity": 97}, {"time": 4261, "pitch": 43, "duration": 2, "velocity": 88}, {"time": 4261, "pitch": 55, "duration": 2, "velocity": 88}, {"time": 4264, "pitch": 43, "duration": 2, "velocity": 72}, {"time": 4264, "pitch": 55, "duration": 2, "velocity": 72}, {"time": 4267, "pitch": 43, "duration": 2, "velocity": 75}, {"time": 4267, "pitch": 55, "duration": 2, "velocity": 75}, {"time": 4270, "pitch": 43, "duration": 6, "velocity": 88}, {"time": 4270, "pitch": 55, "duration": 6, "velocity": 62}, {"time": 4270, "pitch": 55, "duration": 6, "velocity": 88}, {"time": 4270, "pitch": 59, "duration": 12, "velocity": 64}, {"time": 4270, "pitch": 62, "duration": 13, "velocity": 57}, {"time": 4270, "pitch": 67, "duration": 13, "velocity": 76}, {"time": 4270, "pitch": 71, "duration": 13, "velocity": 82}, {"time": 4270, "pitch": 74, "duration": 13, "velocity": 78}, {"time": 4276, "pitch": 43, "duration": 1, "velocity": 92}, {"time": 4276, "pitch": 55, "duration": 1, "velocity": 92}, {"time": 4279, "pitch": 43, "duration": 2, "velocity": 82}, {"time": 4279, "pitch": 55, "duration": 2, "velocity": 82}, {"time": 4282, "pitch": 43, "duration": 2, "velocity": 97}, {"time": 4282, "pitch": 55, "duration": 1, "velocity": 97}, {"time": 4285, "pitch": 45, "duration": 2, "velocity": 95}, {"time": 4285, "pitch": 57, "duration": 2, "velocity": 95}, {"time": 4288, "pitch": 45, "duration": 2, "velocity": 85}, {"time": 4288, "pitch": 57, "duration": 2, "velocity": 85}, {"time": 4291, "pitch": 45, "duration": 2, "velocity": 78}, {"time": 4291, "pitch": 57, "duration": 2, "velocity": 78}, {"time": 4294, "pitch": 45, "duration": 5, "velocity": 90}, {"time": 4294, "pitch": 57, "duration": 5, "velocity": 64}, {"time": 4294, "pitch": 57, "duration": 5, "velocity": 90}, {"time": 4294, "pitch": 61, "duration": 12, "velocity": 88}, {"time": 4294, "pitch": 64, "duration": 12, "velocity": 66}, {"time": 4294, "pitch": 69, "duration": 12, "velocity": 79}, {"time": 4294, "pitch": 73, "duration": 12, "velocity": 93}, {"time": 4294, "pitch": 76, "duration": 12, "velocity": 77}, {"time": 4300, "pitch": 45, "duration": 1, "velocity": 93}, {"time": 4300, "pitch": 57, "duration": 1, "velocity": 93}, {"time": 4303, "pitch": 45, "duration": 1, "velocity": 72}, {"time": 4303, "pitch": 57, "duration": 1, "velocity": 72}, {"time": 4306, "pitch": 45, "duration": 2, "velocity": 95}, {"time": 4306, "pitch": 57, "duration": 2, "velocity": 95}, {"time": 4309, "pitch": 47, "duration": 2, "velocity": 88}, {"time": 4309, "pitch": 59, "duration": 2, "velocity": 88}, {"time": 4312, "pitch": 47, "duration": 2, "velocity": 79}, {"time": 4312, "pitch": 59, "duration": 2, "velocity": 79}, {"time": 4315, "pitch": 47, "duration": 2, "velocity": 76}, {"time": 4315, "pitch": 59, "duration": 2, "velocity": 76}, {"time": 4318, "pitch": 47, "duration": 5, "velocity": 88}, {"time": 4318, "pitch": 59, "duration": 5, "velocity": 56}, {"time": 4318, "pitch": 59, "duration": 5, "velocity": 88}, {"time": 4318, "pitch": 63, "duration": 12, "velocity": 63}, {"time": 4318, "pitch": 66, "duration": 12, "velocity": 55}, {"time": 4318, "pitch": 71, "duration": 12, "velocity": 73}, {"time": 4318, "pitch": 75, "duration": 12, "velocity": 93}, {"time": 4318, "pitch": 78, "duration": 12, "velocity": 79}, {"time": 4324, "pitch": 47, "duration": 1, "velocity": 99}, {"time": 4324, "pitch": 59, "duration": 1, "velocity": 99}, {"time": 4327, "pitch": 47, "duration": 2, "velocity": 93}, {"time": 4327, "pitch": 59, "duration": 2, "velocity": 93}, {"time": 4330, "pitch": 38, "duration": 2, "velocity": 99}, {"time": 4330, "pitch": 50, "duration": 2, "velocity": 99}, {"time": 4333, "pitch": 40, "duration": 2, "velocity": 82}, {"time": 4333, "pitch": 52, "duration": 2, "velocity": 82}, {"time": 4336, "pitch": 40, "duration": 2, "velocity": 69}, {"time": 4336, "pitch": 52, "duration": 2, "velocity": 69}, {"time": 4339, "pitch": 40, "duration": 2, "velocity": 73}, {"time": 4339, "pitch": 52, "duration": 2, "velocity": 73}, {"time": 4342, "pitch": 40, "duration": 3, "velocity": 83}, {"time": 4342, "pitch": 52, "duration": 3, "velocity": 79}, {"time": 4342, "pitch": 52, "duration": 3, "velocity": 83}, {"time": 4342, "pitch": 64, "duration": 14, "velocity": 82}, {"time": 4342, "pitch": 67, "duration": 14, "velocity": 75}, {"time": 4342, "pitch": 71, "duration": 15, "velocity": 78}, {"time": 4348, "pitch": 40, "duration": 1, "velocity": 93}, {"time": 4348, "pitch": 52, "duration": 1, "velocity": 93}, {"time": 4351, "pitch": 40, "duration": 1, "velocity": 92}, {"time": 4351, "pitch": 52, "duration": 1, "velocity": 92}, {"time": 4354, "pitch": 40, "duration": 2, "velocity": 97}, {"time": 4354, "pitch": 52, "duration": 1, "velocity": 97}, {"time": 4357, "pitch": 43, "duration": 2, "velocity": 88}, {"time": 4357, "pitch": 55, "duration": 2, "velocity": 88}, {"time": 4360, "pitch": 43, "duration": 2, "velocity": 72}, {"time": 4360, "pitch": 55, "duration": 2, "velocity": 72}, {"time": 4363, "pitch": 43, "duration": 2, "velocity": 75}, {"time": 4363, "pitch": 55, "duration": 2, "velocity": 75}, {"time": 4366, "pitch": 43, "duration": 6, "velocity": 88}, {"time": 4366, "pitch": 55, "duration": 6, "velocity": 74}, {"time": 4366, "pitch": 55, "duration": 6, "velocity": 88}, {"time": 4366, "pitch": 62, "duration": 16, "velocity": 75}, {"time": 4366, "pitch": 67, "duration": 15, "velocity": 85}, {"time": 4366, "pitch": 71, "duration": 16, "velocity": 92}, {"time": 4366, "pitch": 74, "duration": 15, "velocity": 86}, {"time": 4372, "pitch": 43, "duration": 1, "velocity": 92}, {"time": 4372, "pitch": 55, "duration": 1, "velocity": 92}, {"time": 4375, "pitch": 43, "duration": 2, "velocity": 82}, {"time": 4375, "pitch": 55, "duration": 2, "velocity": 82}, {"time": 4378, "pitch": 43, "duration": 2, "velocity": 97}, {"time": 4378, "pitch": 55, "duration": 2, "velocity": 97}, {"time": 4381, "pitch": 45, "duration": 2, "velocity": 95}, {"time": 4381, "pitch": 57, "duration": 2, "velocity": 95}, {"time": 4384, "pitch": 45, "duration": 2, "velocity": 85}, {"time": 4384, "pitch": 57, "duration": 2, "velocity": 85}, {"time": 4387, "pitch": 45, "duration": 2, "velocity": 78}, {"time": 4387, "pitch": 57, "duration": 2, "velocity": 78}, {"time": 4390, "pitch": 45, "duration": 5, "velocity": 90}, {"time": 4390, "pitch": 57, "duration": 5, "velocity": 69}, {"time": 4390, "pitch": 57, "duration": 5, "velocity": 90}, {"time": 4390, "pitch": 61, "duration": 12, "velocity": 78}, {"time": 4390, "pitch": 64, "duration": 13, "velocity": 58}, {"time": 4390, "pitch": 69, "duration": 14, "velocity": 78}, {"time": 4390, "pitch": 73, "duration": 13, "velocity": 97}, {"time": 4390, "pitch": 76, "duration": 14, "velocity": 82}, {"time": 4396, "pitch": 45, "duration": 1, "velocity": 93}, {"time": 4396, "pitch": 57, "duration": 1, "velocity": 93}, {"time": 4399, "pitch": 45, "duration": 1, "velocity": 72}, {"time": 4399, "pitch": 57, "duration": 1, "velocity": 72}, {"time": 4402, "pitch": 45, "duration": 2, "velocity": 95}, {"time": 4402, "pitch": 57, "duration": 1, "velocity": 95}, {"time": 4405, "pitch": 47, "duration": 2, "velocity": 88}, {"time": 4405, "pitch": 59, "duration": 2, "velocity": 88}, {"time": 4408, "pitch": 47, "duration": 2, "velocity": 79}, {"time": 4408, "pitch": 59, "duration": 2, "velocity": 79}, {"time": 4411, "pitch": 47, "duration": 2, "velocity": 76}, {"time": 4411, "pitch": 59, "duration": 2, "velocity": 76}, {"time": 4414, "pitch": 47, "duration": 5, "velocity": 88}, {"time": 4414, "pitch": 59, "duration": 5, "velocity": 77}, {"time": 4414, "pitch": 59, "duration": 5, "velocity": 88}, {"time": 4414, "pitch": 66, "duration": 11, "velocity": 63}, {"time": 4414, "pitch": 71, "duration": 12, "velocity": 78}, {"time": 4414, "pitch": 75, "duration": 12, "velocity": 96}, {"time": 4414, "pitch": 78, "duration": 12, "velocity": 90}, {"time": 4420, "pitch": 47, "duration": 1, "velocity": 99}, {"time": 4420, "pitch": 59, "duration": 1, "velocity": 99}, {"time": 4423, "pitch": 47, "duration": 2, "velocity": 93}, {"time": 4423, "pitch": 59, "duration": 2, "velocity": 93}, {"time": 4426, "pitch": 38, "duration": 2, "velocity": 99}, {"time": 4426, "pitch": 50, "duration": 2, "velocity": 99}, {"time": 4429, "pitch": 40, "duration": 2, "velocity": 82}, {"time": 4429, "pitch": 52, "duration": 2, "velocity": 82}, {"time": 4432, "pitch": 40, "duration": 2, "velocity": 69}, {"time": 4432, "pitch": 52, "duration": 2, "velocity": 69}, {"time": 4435, "pitch": 40, "duration": 2, "velocity": 73}, {"time": 4435, "pitch": 52, "duration": 2, "velocity": 73}, {"time": 4438, "pitch": 40, "duration": 3, "velocity": 83}, {"time": 4438, "pitch": 52, "duration": 3, "velocity": 76}, {"time": 4438, "pitch": 52, "duration": 3, "velocity": 83}, {"time": 4438, "pitch": 59, "duration": 11, "velocity": 74}, {"time": 4438, "pitch": 64, "duration": 12, "velocity": 88}, {"time": 4438, "pitch": 67, "duration": 12, "velocity": 89}, {"time": 4438, "pitch": 71, "duration": 12, "velocity": 86}, {"time": 4444, "pitch": 40, "duration": 1, "velocity": 93}, {"time": 4444, "pitch": 52, "duration": 1, "velocity": 93}, {"time": 4447, "pitch": 40, "duration": 1, "velocity": 92}, {"time": 4447, "pitch": 52, "duration": 1, "velocity": 92}, {"time": 4450, "pitch": 40, "duration": 2, "velocity": 97}, {"time": 4450, "pitch": 52, "duration": 2, "velocity": 97}, {"time": 4453, "pitch": 43, "duration": 2, "velocity": 88}, {"time": 4453, "pitch": 55, "duration": 2, "velocity": 88}, {"time": 4456, "pitch": 43, "duration": 2, "velocity": 72}, {"time": 4456, "pitch": 55, "duration": 2, "velocity": 72}, {"time": 4459, "pitch": 43, "duration": 2, "velocity": 75}, {"time": 4459, "pitch": 55, "duration": 2, "velocity": 75}, {"time": 4462, "pitch": 43, "duration": 6, "velocity": 88}, {"time": 4462, "pitch": 55, "duration": 6, "velocity": 62}, {"time": 4462, "pitch": 55, "duration": 6, "velocity": 88}, {"time": 4462, "pitch": 59, "duration": 12, "velocity": 64}, {"time": 4462, "pitch": 62, "duration": 13, "velocity": 57}, {"time": 4462, "pitch": 67, "duration": 13, "velocity": 76}, {"time": 4462, "pitch": 71, "duration": 13, "velocity": 82}, {"time": 4462, "pitch": 74, "duration": 13, "velocity": 78}, {"time": 4468, "pitch": 43, "duration": 1, "velocity": 92}, {"time": 4468, "pitch": 55, "duration": 1, "velocity": 92}, {"time": 4471, "pitch": 43, "duration": 2, "velocity": 82}, {"time": 4471, "pitch": 55, "duration": 2, "velocity": 82}, {"time": 4474, "pitch": 43, "duration": 2, "velocity": 97}, {"time": 4474, "pitch": 55, "duration": 1, "velocity": 97}, {"time": 4477, "pitch": 45, "duration": 2, "velocity": 95}, {"time": 4477, "pitch": 57, "duration": 2, "velocity": 95}, {"time": 4480, "pitch": 45, "duration": 2, "velocity": 85}, {"time": 4480, "pitch": 57, "duration": 2, "velocity": 85}, {"time": 4483, "pitch": 45, "duration": 2, "velocity": 78}, {"time": 4483, "pitch": 57, "duration": 2, "velocity": 78}, {"time": 4486, "pitch": 45, "duration": 5, "velocity": 90}, {"time": 4486, "pitch": 57, "duration": 5, "velocity": 64}, {"time": 4486, "pitch": 57, "duration": 5, "velocity": 90}, {"time": 4486, "pitch": 61, "duration": 12, "velocity": 88}, {"time": 4486, "pitch": 64, "duration": 12, "velocity": 66}, {"time": 4486, "pitch": 69, "duration": 12, "velocity": 79}, {"time": 4486, "pitch": 73, "duration": 12, "velocity": 93}, {"time": 4486, "pitch": 76, "duration": 12, "velocity": 77}, {"time": 4492, "pitch": 45, "duration": 1, "velocity": 93}, {"time": 4492, "pitch": 57, "duration": 1, "velocity": 93}, {"time": 4495, "pitch": 45, "duration": 1, "velocity": 72}, {"time": 4495, "pitch": 57, "duration": 1, "velocity": 72}, {"time": 4498, "pitch": 45, "duration": 2, "velocity": 95}, {"time": 4498, "pitch": 57, "duration": 2, "velocity": 95}, {"time": 4501, "pitch": 47, "duration": 2, "velocity": 88}, {"time": 4501, "pitch": 59, "duration": 2, "velocity": 88}, {"time": 4504, "pitch": 47, "duration": 2, "velocity": 79}, {"time": 4504, "pitch": 59, "duration": 2, "velocity": 79}, {"time": 4507, "pitch": 47, "duration": 2, "velocity": 76}, {"time": 4507, "pitch": 59, "duration": 2, "velocity": 76}, {"time": 4510, "pitch": 47, "duration": 5, "velocity": 88}, {"time": 4510, "pitch": 59, "duration": 5, "velocity": 56}, {"time": 4510, "pitch": 59, "duration": 5, "velocity": 88}, {"time": 4510, "pitch": 63, "duration": 12, "velocity": 63}, {"time": 4510, "pitch": 66, "duration": 12, "velocity": 55}, {"time": 4510, "pitch": 71, "duration": 12, "velocity": 73}, {"time": 4510, "pitch": 75, "duration": 12, "velocity": 93}, {"time": 4510, "pitch": 78, "duration": 12, "velocity": 79}, {"time": 4516, "pitch": 47, "duration": 1, "velocity": 99}, {"time": 4516, "pitch": 59, "duration": 1, "velocity": 99}, {"time": 4519, "pitch": 47, "duration": 2, "velocity": 93}, {"time": 4519, "pitch": 59, "duration": 2, "velocity": 93}, {"time": 4522, "pitch": 38, "duration": 2, "velocity": 99}, {"time": 4522, "pitch": 50, "duration": 2, "velocity": 99}, {"time": 4525, "pitch": 40, "duration": 2, "velocity": 82}, {"time": 4525, "pitch": 52, "duration": 2, "velocity": 82}, {"time": 4528, "pitch": 40, "duration": 2, "velocity": 69}, {"time": 4528, "pitch": 52, "duration": 2, "velocity": 69}, {"time": 4531, "pitch": 40, "duration": 2, "velocity": 73}, {"time": 4531, "pitch": 52, "duration": 2, "velocity": 73}, {"time": 4534, "pitch": 40, "duration": 3, "velocity": 83}, {"time": 4534, "pitch": 52, "duration": 3, "velocity": 79}, {"time": 4534, "pitch": 52, "duration": 3, "velocity": 83}, {"time": 4534, "pitch": 64, "duration": 14, "velocity": 82}, {"time": 4534, "pitch": 67, "duration": 14, "velocity": 75}, {"time": 4534, "pitch": 71, "duration": 15, "velocity": 78}, {"time": 4540, "pitch": 40, "duration": 1, "velocity": 93}, {"time": 4540, "pitch": 52, "duration": 1, "velocity": 93}, {"time": 4543, "pitch": 40, "duration": 1, "velocity": 92}, {"time": 4543, "pitch": 52, "duration": 1, "velocity": 92}, {"time": 4546, "pitch": 40, "duration": 2, "velocity": 97}, {"time": 4546, "pitch": 52, "duration": 1, "velocity": 97}, {"time": 4549, "pitch": 43, "duration": 2, "velocity": 88}, {"time": 4549, "pitch": 55, "duration": 2, "velocity": 88}, {"time": 4552, "pitch": 43, "duration": 2, "velocity": 72}, {"time": 4552, "pitch": 55, "duration": 2, "velocity": 72}, {"time": 4555, "pitch": 43, "duration": 2, "velocity": 75}, {"time": 4555, "pitch": 55, "duration": 2, "velocity": 75}, {"time": 4558, "pitch": 43, "duration": 6, "velocity": 88}, {"time": 4558, "pitch": 55, "duration": 6, "velocity": 74}, {"time": 4558, "pitch": 55, "duration": 6, "velocity": 88}, {"time": 4558, "pitch": 62, "duration": 16, "velocity": 75}, {"time": 4558, "pitch": 67, "duration": 15, "velocity": 85}, {"time": 4558, "pitch": 71, "duration": 16, "velocity": 92}, {"time": 4558, "pitch": 74, "duration": 15, "velocity": 86}, {"time": 4564, "pitch": 43, "duration": 1, "velocity": 92}, {"time": 4564, "pitch": 55, "duration": 1, "velocity": 92}, {"time": 4567, "pitch": 43, "duration": 2, "velocity": 82}, {"time": 4567, "pitch": 55, "duration": 2, "velocity": 82}, {"time": 4570, "pitch": 43, "duration": 2, "velocity": 97}, {"time": 4570, "pitch": 55, "duration": 2, "velocity": 97}, {"time": 4573, "pitch": 45, "duration": 2, "velocity": 95}, {"time": 4573, "pitch": 57, "duration": 2, "velocity": 95}, {"time": 4576, "pitch": 45, "duration": 2, "velocity": 85}, {"time": 4576, "pitch": 57, "duration": 2, "velocity": 85}, {"time": 4579, "pitch": 45, "duration": 2, "velocity": 78}, {"time": 4579, "pitch": 57, "duration": 2, "velocity": 78}, {"time": 4582, "pitch": 45, "duration": 5, "velocity": 90}, {"time": 4582, "pitch": 57, "duration": 5, "velocity": 69}, {"time": 4582, "pitch": 57, "duration": 5, "velocity": 90}, {"time": 4582, "pitch": 61, "duration": 12, "velocity": 78}, {"time": 4582, "pitch": 64, "duration": 13, "velocity": 58}, {"time": 4582, "pitch": 69, "duration": 14, "velocity": 78}, {"time": 4582, "pitch": 73, "duration": 13, "velocity": 97}, {"time": 4582, "pitch": 76, "duration": 14, "velocity": 82}, {"time": 4588, "pitch": 45, "duration": 1, "velocity": 93}, {"time": 4588, "pitch": 57, "duration": 1, "velocity": 93}, {"time": 4591, "pitch": 45, "duration": 1, "velocity": 72}, {"time": 4591, "pitch": 57, "duration": 1, "velocity": 72}, {"time": 4594, "pitch": 45, "duration": 2, "velocity": 95}, {"time": 4594, "pitch": 57, "duration": 1, "velocity": 95}, {"time": 4597, "pitch": 47, "duration": 2, "velocity": 88}, {"time": 4597, "pitch": 59, "duration": 2, "velocity": 88}, {"time": 4600, "pitch": 47, "duration": 2, "velocity": 79}, {"time": 4600, "pitch": 59, "duration": 2, "velocity": 79}, {"time": 4603, "pitch": 47, "duration": 2, "velocity": 76}, {"time": 4603, "pitch": 59, "duration": 2, "velocity": 76}, {"time": 4606, "pitch": 47, "duration": 5, "velocity": 88}, {"time": 4606, "pitch": 59, "duration": 5, "velocity": 77}, {"time": 4606, "pitch": 59, "duration": 5, "velocity": 88}, {"time": 4606, "pitch": 66, "duration": 11, "velocity": 63}, {"time": 4606, "pitch": 71, "duration": 12, "velocity": 78}, {"time": 4606, "pitch": 75, "duration": 12, "velocity": 96}, {"time": 4606, "pitch": 78, "duration": 12, "velocity": 90}, {"time": 4612, "pitch": 47, "duration": 1, "velocity": 99}, {"time": 4612, "pitch": 59, "duration": 1, "velocity": 99}, {"time": 4615, "pitch": 47, "duration": 2, "velocity": 93}, {"time": 4615, "pitch": 59, "duration": 2, "velocity": 93}, {"time": 4618, "pitch": 38, "duration": 2, "velocity": 99}, {"time": 4618, "pitch": 50, "duration": 2, "velocity": 99}, {"time": 4621, "pitch": 40, "duration": 2, "velocity": 82}, {"time": 4621, "pitch": 52, "duration": 2, "velocity": 82}, {"time": 4624, "pitch": 40, "duration": 2, "velocity": 69}, {"time": 4624, "pitch": 52, "duration": 2, "velocity": 69}, {"time": 4627, "pitch": 40, "duration": 2, "velocity": 73}, {"time": 4627, "pitch": 52, "duration": 2, "velocity": 73}, {"time": 4630, "pitch": 40, "duration": 3, "velocity": 83}, {"time": 4630, "pitch": 52, "duration": 3, "velocity": 76}, {"time": 4630, "pitch": 52, "duration": 3, "velocity": 83}, {"time": 4630, "pitch": 59, "duration": 11, "velocity": 74}, {"time": 4630, "pitch": 64, "duration": 12, "velocity": 88}, {"time": 4630, "pitch": 67, "duration": 12, "velocity": 89}, {"time": 4630, "pitch": 71, "duration": 12, "velocity": 86}, {"time": 4636, "pitch": 40, "duration": 1, "velocity": 93}, {"time": 4636, "pitch": 52, "duration": 1, "velocity": 93}, {"time": 4639, "pitch": 40, "duration": 1, "velocity": 92}, {"time": 4639, "pitch": 52, "duration": 1, "velocity": 92}, {"time": 4642, "pitch": 40, "duration": 2, "velocity": 97}, {"time": 4642, "pitch": 52, "duration": 2, "velocity": 97}, {"time": 4645, "pitch": 43, "duration": 2, "velocity": 88}, {"time": 4645, "pitch": 55, "duration": 2, "velocity": 88}, {"time": 4648, "pitch": 43, "duration": 2, "velocity": 72}, {"time": 4648, "pitch": 55, "duration": 2, "velocity": 72}, {"time": 4651, "pitch": 43, "duration": 2, "velocity": 75}, {"time": 4651, "pitch": 55, "duration": 2, "velocity": 75}, {"time": 4654, "pitch": 43, "duration": 6, "velocity": 88}, {"time": 4654, "pitch": 55, "duration": 6, "velocity": 62}, {"time": 4654, "pitch": 55, "duration": 6, "velocity": 88}, {"time": 4654, "pitch": 59, "duration": 12, "velocity": 64}, {"time": 4654, "pitch": 62, "duration": 13, "velocity": 57}, {"time": 4654, "pitch": 67, "duration": 13, "velocity": 76}, {"time": 4654, "pitch": 71, "duration": 13, "velocity": 82}, {"time": 4654, "pitch": 74, "duration": 13, "velocity": 78}, {"time": 4660, "pitch": 43, "duration": 1, "velocity": 92}, {"time": 4660, "pitch": 55, "duration": 1, "velocity": 92}, {"time": 4663, "pitch": 43, "duration": 2, "velocity": 82}, {"time": 4663, "pitch": 55, "duration": 2, "velocity": 82}, {"time": 4666, "pitch": 43, "duration": 2, "velocity": 97}, {"time": 4666, "pitch": 55, "duration": 1, "velocity": 97}, {"time": 4669, "pitch": 45, "duration": 2, "velocity": 95}, {"time": 4669, "pitch": 57, "duration": 2, "velocity": 95}, {"time": 4672, "pitch": 45, "duration": 2, "velocity": 85}, {"time": 4672, "pitch": 57, "duration": 2, "velocity": 85}, {"time": 4675, "pitch": 45, "duration": 2, "velocity": 78}, {"time": 4675, "pitch": 57, "duration": 2, "velocity": 78}, {"time": 4678, "pitch": 45, "duration": 5, "velocity": 90}, {"time": 4678, "pitch": 57, "duration": 5, "velocity": 64}, {"time": 4678, "pitch": 57, "duration": 5, "velocity": 90}, {"time": 4678, "pitch": 61, "duration": 12, "velocity": 88}, {"time": 4678, "pitch": 64, "duration": 12, "velocity": 66}, {"time": 4678, "pitch": 69, "duration": 12, "velocity": 79}, {"time": 4678, "pitch": 73, "duration": 12, "velocity": 93}, {"time": 4678, "pitch": 76, "duration": 12, "velocity": 77}, {"time": 4684, "pitch": 45, "duration": 1, "velocity": 93}, {"time": 4684, "pitch": 57, "duration": 1, "velocity": 93}, {"time": 4687, "pitch": 45, "duration": 1, "velocity": 72}, {"time": 4687, "pitch": 57, "duration": 1, "velocity": 72}, {"time": 4690, "pitch": 45, "duration": 2, "velocity": 95}, {"time": 4690, "pitch": 57, "duration": 2, "velocity": 95}, {"time": 4693, "pitch": 47, "duration": 2, "velocity": 88}, {"time": 4693, "pitch": 59, "duration": 2, "velocity": 88}, {"time": 4696, "pitch": 47, "duration": 2, "velocity": 79}, {"time": 4696, "pitch": 59, "duration": 2, "velocity": 79}, {"time": 4699, "pitch": 47, "duration": 2, "velocity": 76}, {"time": 4699, "pitch": 59, "duration": 2, "velocity": 76}, {"time": 4702, "pitch": 47, "duration": 5, "velocity": 88}, {"time": 4702, "pitch": 59, "duration": 5, "velocity": 56}, {"time": 4702, "pitch": 59, "duration": 5, "velocity": 88}, {"time": 4702, "pitch": 63, "duration": 12, "velocity": 63}, {"time": 4702, "pitch": 66, "duration": 12, "velocity": 55}, {"time": 4702, "pitch": 71, "duration": 12, "velocity": 73}, {"time": 4702, "pitch": 75, "duration": 12, "velocity": 93}, {"time": 4702, "pitch": 78, "duration": 12, "velocity": 79}, {"time": 4708, "pitch": 47, "duration": 1, "velocity": 99}, {"time": 4708, "pitch": 59, "duration": 1, "velocity": 99}, {"time": 4711, "pitch": 47, "duration": 2, "velocity": 93}, {"time": 4711, "pitch": 59, "duration": 2, "velocity": 93}, {"time": 4714, "pitch": 28, "duration": 6, "velocity": 107}, {"time": 4714, "pitch": 40, "duration": 6, "velocity": 107}, {"time": 4720, "pitch": 30, "duration": 5, "velocity": 100}, {"time": 4720, "pitch": 42, "duration": 5, "velocity": 100}, {"time": 4726, "pitch": 31, "duration": 5, "velocity": 97}, {"time": 4726, "pitch": 43, "duration": 5, "velocity": 97}, {"time": 4732, "pitch": 28, "duration": 5, "velocity": 92}, {"time": 4732, "pitch": 40, "duration": 5, "velocity": 92}, {"time": 4738, "pitch": 34, "duration": 5, "velocity": 127}, {"time": 4738, "pitch": 46, "duration": 5, "velocity": 127}, {"time": 4744, "pitch": 33, "duration": 5, "velocity": 97}, {"time": 4744, "pitch": 45, "duration": 5, "velocity": 97}, {"time": 4750, "pitch": 31, "duration": 7, "velocity": 96}, {"time": 4750, "pitch": 43, "duration": 7, "velocity": 96}, {"time": 4756, "pitch": 33, "duration": 5, "velocity": 102}, {"time": 4756, "pitch": 45, "duration": 5, "velocity": 102}, {"time": 4762, "pitch": 28, "duration": 7, "velocity": 99}, {"time": 4762, "pitch": 40, "duration": 7, "velocity": 99}, {"time": 4768, "pitch": 30, "duration": 6, "velocity": 107}, {"time": 4768, "pitch": 42, "duration": 6, "velocity": 107}, {"time": 4774, "pitch": 31, "duration": 6, "velocity": 89}, {"time": 4774, "pitch": 43, "duration": 6, "velocity": 89}, {"time": 4780, "pitch": 28, "duration": 6, "velocity": 86}, {"time": 4780, "pitch": 40, "duration": 6, "velocity": 86}, {"time": 4786, "pitch": 34, "duration": 6, "velocity": 122}, {"time": 4786, "pitch": 46, "duration": 6, "velocity": 122}, {"time": 4792, "pitch": 33, "duration": 6, "velocity": 93}, {"time": 4792, "pitch": 45, "duration": 6, "velocity": 93}, {"time": 4798, "pitch": 31, "duration": 6, "velocity": 102}, {"time": 4798, "pitch": 43, "duration": 6, "velocity": 102}, {"time": 4804, "pitch": 33, "duration": 6, "velocity": 97}, {"time": 4804, "pitch": 45, "duration": 6, "velocity": 97}, {"time": 4810, "pitch": 28, "duration": 7, "velocity": 99}, {"time": 4810, "pitch": 40, "duration": 7, "velocity": 99}, {"time": 4816, "pitch": 30, "duration": 7, "velocity": 107}, {"time": 4816, "pitch": 42, "duration": 7, "velocity": 107}, {"time": 4822, "pitch": 31, "duration": 5, "velocity": 92}, {"time": 4822, "pitch": 43, "duration": 5, "velocity": 92}, {"time": 4828, "pitch": 28, "duration": 6, "velocity": 92}, {"time": 4828, "pitch": 40, "duration": 6, "velocity": 92}, {"time": 4834, "pitch": 34, "duration": 7, "velocity": 117}, {"time": 4834, "pitch": 46, "duration": 7, "velocity": 117}, {"time": 4840, "pitch": 33, "duration": 6, "velocity": 99}, {"time": 4840, "pitch": 45, "duration": 6, "velocity": 99}, {"time": 4846, "pitch": 31, "duration": 6, "velocity": 112}, {"time": 4846, "pitch": 43, "duration": 6, "velocity": 112}, {"time": 4852, "pitch": 33, "duration": 1, "velocity": 112}, {"time": 4852, "pitch": 45, "duration": 1, "velocity": 112}, {"time": 4855, "pitch": 33, "duration": 8, "velocity": 122}, {"time": 4855, "pitch": 45, "duration": 8, "velocity": 122}], "annotations": [{"time": 971, "annotation": {"number": 64, "value": 127}, "group": "control_change"}, {"time": 978, "annotation": {"number": 64, "value": 0}, "group": "control_change"}, {"time": 982, "annotation": {"number": 64, "value": 127}, "group": "control_change"}, {"time": 991, "annotation": {"number": 64, "value": 0}, "group": "control_change"}, {"time": 994, "annotation": {"number": 64, "value": 127}, "group": "control_change"}, {"time": 1002, "annotation": {"number": 64, "value": 0}, "group": "control_change"}, {"time": 1005, "annotation": {"number": 64, "value": 127}, "group": "control_change"}, {"time": 1014, "annotation": {"number": 64, "value": 0}, "group": "control_change"}, {"time": 1017, "annotation": {"number": 64, "value": 127}, "group": "control_change"}, {"time": 1027, "annotation": {"number": 64, "value": 0}, "group": "control_change"}, {"time": 1030, "annotation": {"number": 64, "value": 127}, "group": "control_change"}, {"time": 1039, "annotation": {"number": 64, "value": 0}, "group": "control_change"}, {"time": 1042, "annotation": {"number": 64, "value": 127}, "group": "control_change"}, {"time": 1051, "annotation": {"number": 64, "value": 0}, "group": "control_change"}, {"time": 1054, "annotation": {"number": 64, "value": 127}, "group": "control_change"}, {"time": 1063, "annotation": {"number": 64, "value": 0}, "group": "control_change"}, {"time": 1066, "annotation": {"number": 64, "value": 127}, "group": "control_change"}, {"time": 1075, "annotation": {"number": 64, "value": 0}, "group": "control_change"}, {"time": 1078, "annotation": {"number": 64, "value": 127}, "group": "control_change"}, {"time": 1087, "annotation": {"number": 64, "value": 0}, "group": "control_change"}, {"time": 1090, "annotation": {"number": 64, "value": 127}, "group": "control_change"}, {"time": 1111, "annotation": {"number": 64, "value": 0}, "group": "control_change"}, {"time": 1114, "annotation": {"number": 64, "value": 127}, "group": "control_change"}, {"time": 1124, "annotation": {"number": 64, "value": 0}, "group": "control_change"}, {"time": 1126, "annotation": {"number": 64, "value": 127}, "group": "control_change"}, {"time": 1135, "annotation": {"number": 64, "value": 0}, "group": "control_change"}, {"time": 1139, "annotation": {"number": 64, "value": 127}, "group": "control_change"}, {"time": 1159, "annotation": {"number": 64, "value": 0}, "group": "control_change"}, {"time": 1162, "annotation": {"number": 64, "value": 127}, "group": "control_change"}, {"time": 1183, "annotation": {"number": 64, "value": 0}, "group": "control_change"}, {"time": 1186, "annotation": {"number": 64, "value": 127}, "group": "control_change"}, {"time": 1207, "annotation": {"number": 64, "value": 0}, "group": "control_change"}, {"time": 1210, "annotation": {"number": 64, "value": 127}, "group": "control_change"}, {"time": 1232, "annotation": {"number": 64, "value": 0}, "group": "control_change"}, {"time": 1235, "annotation": {"number": 64, "value": 127}, "group": "control_change"}, {"time": 1255, "annotation": {"number": 64, "value": 0}, "group": "control_change"}, {"time": 1258, "annotation": {"number": 64, "value": 127}, "group": "control_change"}, {"time": 1280, "annotation": {"number": 64, "value": 0}, "group": "control_change"}, {"time": 1282, "annotation": {"number": 64, "value": 127}, "group": "control_change"}, {"time": 1304, "annotation": {"number": 64, "value": 0}, "group": "control_change"}, {"time": 1306, "annotation": {"number": 64, "value": 127}, "group": "control_change"}, {"time": 1327, "annotation": {"number": 64, "value": 0}, "group": "control_change"}, {"time": 1330, "annotation": {"number": 64, "value": 127}, "group": "control_change"}, {"time": 1350, "annotation": {"number": 64, "value": 0}, "group": "control_change"}, {"time": 1354, "annotation": {"number": 64, "value": 127}, "group": "control_change"}, {"time": 1356, "annotation": {"number": 64, "value": 0}, "group": "control_change"}, {"time": 2555, "annotation": {"number": 64, "value": 127}, "group": "control_change"}, {"time": 2562, "annotation": {"number": 64, "value": 0}, "group": "control_change"}, {"time": 2566, "annotation": {"number": 64, "value": 127}, "group": "control_change"}, {"time": 2575, "annotation": {"number": 64, "value": 0}, "group": "control_change"}, {"time": 2578, "annotation": {"number": 64, "value": 127}, "group": "control_change"}, {"time": 2586, "annotation": {"number": 64, "value": 0}, "group": "control_change"}, {"time": 2589, "annotation": {"number": 64, "value": 127}, "group": "control_change"}, {"time": 2598, "annotation": {"number": 64, "value": 0}, "group": "control_change"}, {"time": 2601, "annotation": {"number": 64, "value": 127}, "group": "control_change"}, {"time": 2611, "annotation": {"number": 64, "value": 0}, "group": "control_change"}, {"time": 2614, "annotation": {"number": 64, "value": 127}, "group": "control_change"}, {"time": 2623, "annotation": {"number": 64, "value": 0}, "group": "control_change"}, {"time": 2626, "annotation": {"number": 64, "value": 127}, "group": "control_change"}, {"time": 2635, "annotation": {"number": 64, "value": 0}, "group": "control_change"}, {"time": 2638, "annotation": {"number": 64, "value": 127}, "group": "control_change"}, {"time": 2647, "annotation": {"number": 64, "value": 0}, "group": "control_change"}, {"time": 2650, "annotation": {"number": 64, "value": 127}, "group": "control_change"}, {"time": 2659, "annotation": {"number": 64, "value": 0}, "group": "control_change"}, {"time": 2662, "annotation": {"number": 64, "value": 127}, "group": "control_change"}, {"time": 2671, "annotation": {"number": 64, "value": 0}, "group": "control_change"}, {"time": 2674, "annotation": {"number": 64, "value": 127}, "group": "control_change"}, {"time": 2695, "annotation": {"number": 64, "value": 0}, "group": "control_change"}, {"time": 2698, "annotation": {"number": 64, "value": 127}, "group": "control_change"}, {"time": 2708, "annotation": {"number": 64, "value": 0}, "group": "control_change"}, {"time": 2710, "annotation": {"number": 64, "value": 127}, "group": "control_change"}, {"time": 2719, "annotation": {"number": 64, "value": 0}, "group": "control_change"}, {"time": 2723, "annotation": {"number": 64, "value": 127}, "group": "control_change"}, {"time": 2743, "annotation": {"number": 64, "value": 0}, "group": "control_change"}, {"time": 2746, "annotation": {"number": 64, "value": 127}, "group": "control_change"}, {"time": 2767, "annotation": {"number": 64, "value": 0}, "group": "control_change"}, {"time": 2770, "annotation": {"number": 64, "value": 127}, "group": "control_change"}, {"time": 2791, "annotation": {"number": 64, "value": 0}, "group": "control_change"}, {"time": 2794, "annotation": {"number": 64, "value": 127}, "group": "control_change"}, {"time": 2816, "annotation": {"number": 64, "value": 0}, "group": "control_change"}, {"time": 2819, "annotation": {"number": 64, "value": 127}, "group": "control_change"}, {"time": 2839, "annotation": {"number": 64, "value": 0}, "group": "control_change"}, {"time": 2842, "annotation": {"number": 64, "value": 127}, "group": "control_change"}, {"time": 2864, "annotation": {"number": 64, "value": 0}, "group": "control_change"}, {"time": 2866, "annotation": {"number": 64, "value": 127}, "group": "control_change"}, {"time": 2888, "annotation": {"number": 64, "value": 0}, "group": "control_change"}, {"time": 2890, "annotation": {"number": 64, "value": 127}, "group": "control_change"}, {"time": 2897, "annotation": {"number": 64, "value": 0}, "group": "control_change"}, {"time": 2904, "annotation": {"number": 64, "value": 127}, "group": "control_change"}, {"time": 2907, "annotation": {"number": 64, "value": 0}, "group": "control_change"}, {"time": 2913, "annotation": {"number": 64, "value": 127}, "group": "control_change"}, {"time": 2924, "annotation": {"number": 64, "value": 0}, "group": "control_change"}, {"time": 2927, "annotation": {"number": 64, "value": 127}, "group": "control_change"}, {"time": 2930, "annotation": {"number": 64, "value": 0}, "group": "control_change"}, {"time": 2933, "annotation": {"number": 64, "value": 127}, "group": "control_change"}, {"time": 2937, "annotation": {"number": 64, "value": 0}, "group": "control_change"}, {"time": 3393, "annotation": {"number": 64, "value": 127}, "group": "control_change"}, {"time": 3417, "annotation": {"number": 64, "value": 0}, "group": "control_change"}, {"time": 3423, "annotation": {"number": 64, "value": 127}, "group": "control_change"}, {"time": 3460, "annotation": {"number": 64, "value": 0}, "group": "control_change"}, {"time": 3467, "annotation": {"number": 64, "value": 127}, "group": "control_change"}, {"time": 3514, "annotation": {"number": 64, "value": 0}, "group": "control_change"}, {"time": 3517, "annotation": {"number": 64, "value": 127}, "group": "control_change"}, {"time": 3560, "annotation": {"number": 64, "value": 0}, "group": "control_change"}, {"time": 3756, "annotation": {"number": 64, "value": 127}, "group": "control_change"}, {"time": 3768, "annotation": {"number": 64, "value": 0}, "group": "control_change"}, {"time": 3777, "annotation": {"number": 64, "value": 127}, "group": "control_change"}, {"time": 3789, "annotation": {"number": 64, "value": 0}, "group": "control_change"}, {"time": 3791, "annotation": {"number": 64, "value": 127}, "group": "control_change"}, {"time": 3799, "annotation": {"number": 64, "value": 0}, "group": "control_change"}, {"time": 3803, "annotation": {"number": 64, "value": 127}, "group": "control_change"}, {"time": 3813, "annotation": {"number": 64, "value": 0}, "group": "control_change"}, {"time": 3815, "annotation": {"number": 64, "value": 127}, "group": "control_change"}, {"time": 3823, "annotation": {"number": 64, "value": 0}, "group": "control_change"}, {"time": 3827, "annotation": {"number": 64, "value": 127}, "group": "control_change"}, {"time": 3848, "annotation": {"number": 64, "value": 0}, "group": "control_change"}, {"time": 3851, "annotation": {"number": 64, "value": 127}, "group": "control_change"}, {"time": 3872, "annotation": {"number": 64, "value": 0}, "group": "control_change"}, {"time": 3875, "annotation": {"number": 64, "value": 127}, "group": "control_change"}, {"time": 3896, "annotation": {"number": 64, "value": 0}, "group": "control_change"}, {"time": 3898, "annotation": {"number": 64, "value": 127}, "group": "control_change"}, {"time": 3899, "annotation": {"number": 64, "value": 127}, "group": "control_change"}, {"time": 3900, "annotation": {"number": 64, "value": 0}, "group": "control_change"}, {"time": 3903, "annotation": {"number": 64, "value": 0}, "group": "control_change"}, {"time": 3910, "annotation": {"number": 64, "value": 127}, "group": "control_change"}, {"time": 3917, "annotation": {"number": 64, "value": 0}, "group": "control_change"}]}]}