{"metadata": {"schema_version": "0.2", "title": "None", "source_filename": "459.mid", "source_format": "midi"}, "resolution": 12, "tempos": [{"time": 0, "qpm": 65.05009941823528}, {"time": 646, "qpm": 65.40008502011052}, {"time": 742, "qpm": 65.25001631250407}, {"time": 802, "qpm": 64.99999458333379}, {"time": 1510, "qpm": 65.14997524300941}, {"time": 2890, "qpm": 64.99999458333379}], "time_signatures": [{"time": 0, "numerator": 1, "denominator": 4}], "tracks": [{"program": 0, "is_drum": false, "name": "MELODY", "notes": [{"time": 478, "pitch": 64, "duration": 1, "velocity": 107}, {"time": 481, "pitch": 64, "duration": 3, "velocity": 97}, {"time": 484, "pitch": 62, "duration": 3, "velocity": 93}, {"time": 487, "pitch": 60, "duration": 3, "velocity": 74}, {"time": 490, "pitch": 55, "duration": 9, "velocity": 86}, {"time": 502, "pitch": 64, "duration": 1, "velocity": 127}, {"time": 505, "pitch": 64, "duration": 1, "velocity": 97}, {"time": 508, "pitch": 62, "duration": 2, "velocity": 100}, {"time": 511, "pitch": 60, "duration": 1, "velocity": 93}, {"time": 514, "pitch": 62, "duration": 1, "velocity": 100}, {"time": 517, "pitch": 62, "duration": 13, "velocity": 99}, {"time": 532, "pitch": 64, "duration": 2, "velocity": 97}, {"time": 535, "pitch": 67, "duration": 2, "velocity": 96}, {"time": 538, "pitch": 69, "duration": 6, "velocity": 102}, {"time": 547, "pitch": 69, "duration": 1, "velocity": 100}, {"time": 550, "pitch": 69, "duration": 3, "velocity": 102}, {"time": 553, "pitch": 64, "duration": 2, "velocity": 86}, {"time": 556, "pitch": 62, "duration": 3, "velocity": 100}, {"time": 559, "pitch": 64, "duration": 6, "velocity": 93}, {"time": 580, "pitch": 64, "duration": 3, "velocity": 92}, {"time": 583, "pitch": 67, "duration": 1, "velocity": 81}, {"time": 586, "pitch": 69, "duration": 1, "velocity": 99}, {"time": 589, "pitch": 69, "duration": 1, "velocity": 95}, {"time": 592, "pitch": 69, "duration": 1, "velocity": 96}, {"time": 595, "pitch": 69, "duration": 1, "velocity": 95}, {"time": 598, "pitch": 69, "duration": 2, "velocity": 122}, {"time": 601, "pitch": 69, "duration": 3, "velocity": 117}, {"time": 607, "pitch": 69, "duration": 1, "velocity": 112}, {"time": 610, "pitch": 67, "duration": 1, "velocity": 112}, {"time": 613, "pitch": 67, "duration": 2, "velocity": 112}, {"time": 619, "pitch": 67, "duration": 2, "velocity": 102}, {"time": 622, "pitch": 62, "duration": 3, "velocity": 100}, {"time": 625, "pitch": 60, "duration": 4, "velocity": 89}, {"time": 634, "pitch": 60, "duration": 4, "velocity": 95}, {"time": 640, "pitch": 60, "duration": 3, "velocity": 93}, {"time": 646, "pitch": 57, "duration": 2, "velocity": 96}, {"time": 649, "pitch": 64, "duration": 3, "velocity": 97}, {"time": 655, "pitch": 62, "duration": 12, "velocity": 93}, {"time": 670, "pitch": 64, "duration": 1, "velocity": 112}, {"time": 673, "pitch": 64, "duration": 3, "velocity": 97}, {"time": 679, "pitch": 62, "duration": 2, "velocity": 107}, {"time": 682, "pitch": 60, "duration": 3, "velocity": 95}, {"time": 685, "pitch": 55, "duration": 3, "velocity": 89}, {"time": 694, "pitch": 64, "duration": 1, "velocity": 99}, {"time": 697, "pitch": 64, "duration": 2, "velocity": 86}, {"time": 700, "pitch": 62, "duration": 2, "velocity": 83}, {"time": 703, "pitch": 60, "duration": 2, "velocity": 79}, {"time": 706, "pitch": 62, "duration": 2, "velocity": 97}, {"time": 709, "pitch": 62, "duration": 5, "velocity": 96}, {"time": 724, "pitch": 64, "duration": 2, "velocity": 96}, {"time": 727, "pitch": 67, "duration": 2, "velocity": 93}, {"time": 730, "pitch": 69, "duration": 5, "velocity": 122}, {"time": 742, "pitch": 69, "duration": 3, "velocity": 112}, {"time": 745, "pitch": 64, "duration": 2, "velocity": 92}, {"time": 748, "pitch": 62, "duration": 3, "velocity": 89}, {"time": 751, "pitch": 64, "duration": 11, "velocity": 100}, {"time": 772, "pitch": 64, "duration": 2, "velocity": 102}, {"time": 775, "pitch": 67, "duration": 2, "velocity": 102}, {"time": 778, "pitch": 69, "duration": 1, "velocity": 117}, {"time": 781, "pitch": 69, "duration": 1, "velocity": 95}, {"time": 784, "pitch": 69, "duration": 1, "velocity": 112}, {"time": 787, "pitch": 69, "duration": 2, "velocity": 112}, {"time": 790, "pitch": 69, "duration": 2, "velocity": 112}, {"time": 793, "pitch": 69, "duration": 1, "velocity": 117}, {"time": 796, "pitch": 69, "duration": 1, "velocity": 96}, {"time": 799, "pitch": 69, "duration": 1, "velocity": 102}, {"time": 802, "pitch": 67, "duration": 2, "velocity": 107}, {"time": 805, "pitch": 67, "duration": 1, "velocity": 92}, {"time": 808, "pitch": 67, "duration": 1, "velocity": 83}, {"time": 811, "pitch": 60, "duration": 12, "velocity": 97}, {"time": 826, "pitch": 62, "duration": 4, "velocity": 112}, {"time": 832, "pitch": 62, "duration": 10, "velocity": 99}, {"time": 844, "pitch": 60, "duration": 3, "velocity": 107}, {"time": 847, "pitch": 59, "duration": 3, "velocity": 72}, {"time": 850, "pitch": 60, "duration": 17, "velocity": 96}, {"time": 868, "pitch": 60, "duration": 2, "velocity": 117}, {"time": 871, "pitch": 62, "duration": 3, "velocity": 95}, {"time": 874, "pitch": 64, "duration": 2, "velocity": 107}, {"time": 877, "pitch": 67, "duration": 1, "velocity": 100}, {"time": 880, "pitch": 67, "duration": 1, "velocity": 97}, {"time": 883, "pitch": 67, "duration": 1, "velocity": 100}, {"time": 886, "pitch": 67, "duration": 1, "velocity": 107}, {"time": 889, "pitch": 67, "duration": 1, "velocity": 99}, {"time": 892, "pitch": 67, "duration": 2, "velocity": 102}, {"time": 895, "pitch": 64, "duration": 2, "velocity": 100}, {"time": 898, "pitch": 62, "duration": 1, "velocity": 97}, {"time": 901, "pitch": 62, "duration": 2, "velocity": 93}, {"time": 904, "pitch": 64, "duration": 2, "velocity": 97}, {"time": 907, "pitch": 62, "duration": 3, "velocity": 122}, {"time": 913, "pitch": 64, "duration": 3, "velocity": 96}, {"time": 919, "pitch": 62, "duration": 2, "velocity": 100}, {"time": 922, "pitch": 60, "duration": 1, "velocity": 107}, {"time": 925, "pitch": 60, "duration": 1, "velocity": 89}, {"time": 928, "pitch": 60, "duration": 3, "velocity": 96}, {"time": 931, "pitch": 57, "duration": 3, "velocity": 89}, {"time": 934, "pitch": 60, "duration": 2, "velocity": 117}, {"time": 937, "pitch": 60, "duration": 2, "velocity": 117}, {"time": 940, "pitch": 60, "duration": 2, "velocity": 107}, {"time": 943, "pitch": 57, "duration": 2, "velocity": 93}, {"time": 946, "pitch": 69, "duration": 2, "velocity": 100}, {"time": 949, "pitch": 67, "duration": 2, "velocity": 122}, {"time": 955, "pitch": 67, "duration": 2, "velocity": 112}, {"time": 958, "pitch": 64, "duration": 2, "velocity": 102}, {"time": 961, "pitch": 62, "duration": 2, "velocity": 99}, {"time": 964, "pitch": 64, "duration": 3, "velocity": 107}, {"time": 967, "pitch": 65, "duration": 2, "velocity": 102}, {"time": 970, "pitch": 67, "duration": 1, "velocity": 112}, {"time": 973, "pitch": 67, "duration": 1, "velocity": 100}, {"time": 976, "pitch": 67, "duration": 1, "velocity": 102}, {"time": 979, "pitch": 67, "duration": 1, "velocity": 102}, {"time": 982, "pitch": 67, "duration": 1, "velocity": 117}, {"time": 985, "pitch": 67, "duration": 1, "velocity": 127}, {"time": 991, "pitch": 64, "duration": 3, "velocity": 100}, {"time": 994, "pitch": 62, "duration": 1, "velocity": 96}, {"time": 997, "pitch": 62, "duration": 1, "velocity": 93}, {"time": 1000, "pitch": 64, "duration": 2, "velocity": 102}, {"time": 1003, "pitch": 62, "duration": 2, "velocity": 117}, {"time": 1009, "pitch": 64, "duration": 3, "velocity": 96}, {"time": 1015, "pitch": 62, "duration": 2, "velocity": 99}, {"time": 1018, "pitch": 60, "duration": 1, "velocity": 112}, {"time": 1019, "pitch": 57, "duration": 2, "velocity": 78}, {"time": 1021, "pitch": 60, "duration": 2, "velocity": 93}, {"time": 1023, "pitch": 57, "duration": 1, "velocity": 88}, {"time": 1024, "pitch": 60, "duration": 5, "velocity": 122}, {"time": 1039, "pitch": 57, "duration": 3, "velocity": 102}, {"time": 1042, "pitch": 69, "duration": 3, "velocity": 117}, {"time": 1045, "pitch": 67, "duration": 4, "velocity": 127}, {"time": 1054, "pitch": 69, "duration": 2, "velocity": 127}, {"time": 1057, "pitch": 67, "duration": 1, "velocity": 95}, {"time": 1060, "pitch": 67, "duration": 1, "velocity": 127}, {"time": 1063, "pitch": 67, "duration": 16, "velocity": 127}, {"time": 1078, "pitch": 60, "duration": 4, "velocity": 117}, {"time": 1084, "pitch": 62, "duration": 4, "velocity": 127}, {"time": 1090, "pitch": 64, "duration": 2, "velocity": 127}, {"time": 1093, "pitch": 67, "duration": 1, "velocity": 102}, {"time": 1096, "pitch": 67, "duration": 1, "velocity": 99}, {"time": 1099, "pitch": 67, "duration": 1, "velocity": 99}, {"time": 1102, "pitch": 67, "duration": 2, "velocity": 107}, {"time": 1105, "pitch": 64, "duration": 3, "velocity": 82}, {"time": 1108, "pitch": 69, "duration": 3, "velocity": 127}, {"time": 1111, "pitch": 67, "duration": 14, "velocity": 107}, {"time": 1135, "pitch": 67, "duration": 2, "velocity": 112}, {"time": 1138, "pitch": 69, "duration": 3, "velocity": 127}, {"time": 1141, "pitch": 72, "duration": 3, "velocity": 127}, {"time": 1147, "pitch": 72, "duration": 1, "velocity": 127}, {"time": 1150, "pitch": 72, "duration": 2, "velocity": 127}, {"time": 1156, "pitch": 64, "duration": 2, "velocity": 99}, {"time": 1159, "pitch": 67, "duration": 14, "velocity": 122}, {"time": 1186, "pitch": 60, "duration": 2, "velocity": 112}, {"time": 1189, "pitch": 60, "duration": 2, "velocity": 96}, {"time": 1195, "pitch": 60, "duration": 8, "velocity": 107}, {"time": 1210, "pitch": 67, "duration": 1, "velocity": 112}, {"time": 1213, "pitch": 67, "duration": 1, "velocity": 85}, {"time": 1216, "pitch": 67, "duration": 1, "velocity": 96}, {"time": 1219, "pitch": 60, "duration": 2, "velocity": 107}, {"time": 1225, "pitch": 60, "duration": 1, "velocity": 112}, {"time": 1228, "pitch": 60, "duration": 1, "velocity": 112}, {"time": 1231, "pitch": 57, "duration": 2, "velocity": 102}, {"time": 1234, "pitch": 60, "duration": 1, "velocity": 127}, {"time": 1237, "pitch": 60, "duration": 1, "velocity": 102}, {"time": 1240, "pitch": 60, "duration": 5, "velocity": 127}, {"time": 1246, "pitch": 60, "duration": 6, "velocity": 117}, {"time": 1258, "pitch": 67, "duration": 1, "velocity": 117}, {"time": 1261, "pitch": 67, "duration": 1, "velocity": 112}, {"time": 1264, "pitch": 64, "duration": 1, "velocity": 117}, {"time": 1267, "pitch": 62, "duration": 2, "velocity": 112}, {"time": 1273, "pitch": 64, "duration": 3, "velocity": 112}, {"time": 1279, "pitch": 65, "duration": 2, "velocity": 127}, {"time": 1282, "pitch": 67, "duration": 1, "velocity": 117}, {"time": 1285, "pitch": 67, "duration": 3, "velocity": 102}, {"time": 1291, "pitch": 67, "duration": 1, "velocity": 102}, {"time": 1294, "pitch": 67, "duration": 1, "velocity": 117}, {"time": 1297, "pitch": 64, "duration": 2, "velocity": 102}, {"time": 1300, "pitch": 69, "duration": 2, "velocity": 122}, {"time": 1303, "pitch": 67, "duration": 10, "velocity": 122}, {"time": 1327, "pitch": 67, "duration": 1, "velocity": 99}, {"time": 1330, "pitch": 69, "duration": 3, "velocity": 127}, {"time": 1333, "pitch": 72, "duration": 2, "velocity": 127}, {"time": 1339, "pitch": 72, "duration": 1, "velocity": 127}, {"time": 1342, "pitch": 72, "duration": 2, "velocity": 127}, {"time": 1348, "pitch": 64, "duration": 2, "velocity": 92}, {"time": 1351, "pitch": 67, "duration": 5, "velocity": 117}, {"time": 1360, "pitch": 69, "duration": 2, "velocity": 112}, {"time": 1363, "pitch": 67, "duration": 3, "velocity": 117}, {"time": 1378, "pitch": 60, "duration": 2, "velocity": 97}, {"time": 1381, "pitch": 60, "duration": 3, "velocity": 100}, {"time": 1387, "pitch": 60, "duration": 7, "velocity": 112}, {"time": 1402, "pitch": 67, "duration": 1, "velocity": 107}, {"time": 1405, "pitch": 67, "duration": 1, "velocity": 95}, {"time": 1408, "pitch": 67, "duration": 1, "velocity": 100}, {"time": 1411, "pitch": 60, "duration": 3, "velocity": 112}, {"time": 1417, "pitch": 60, "duration": 1, "velocity": 102}, {"time": 1420, "pitch": 60, "duration": 1, "velocity": 95}, {"time": 1423, "pitch": 57, "duration": 2, "velocity": 102}, {"time": 1426, "pitch": 60, "duration": 2, "velocity": 127}, {"time": 1429, "pitch": 60, "duration": 1, "velocity": 100}, {"time": 1432, "pitch": 60, "duration": 5, "velocity": 107}, {"time": 1438, "pitch": 60, "duration": 16, "velocity": 117}, {"time": 1462, "pitch": 60, "duration": 3, "velocity": 107}, {"time": 1468, "pitch": 60, "duration": 3, "velocity": 112}, {"time": 1474, "pitch": 62, "duration": 4, "velocity": 102}, {"time": 1480, "pitch": 60, "duration": 28, "velocity": 117}, {"time": 1516, "pitch": 60, "duration": 2, "velocity": 97}, {"time": 1519, "pitch": 62, "duration": 1, "velocity": 107}, {"time": 1522, "pitch": 64, "duration": 3, "velocity": 97}, {"time": 1525, "pitch": 67, "duration": 1, "velocity": 112}, {"time": 1528, "pitch": 67, "duration": 1, "velocity": 90}, {"time": 1531, "pitch": 67, "duration": 1, "velocity": 117}, {"time": 1534, "pitch": 67, "duration": 2, "velocity": 122}, {"time": 1537, "pitch": 67, "duration": 3, "velocity": 112}, {"time": 1543, "pitch": 64, "duration": 2, "velocity": 112}, {"time": 1546, "pitch": 62, "duration": 1, "velocity": 96}, {"time": 1549, "pitch": 62, "duration": 1, "velocity": 90}, {"time": 1552, "pitch": 64, "duration": 2, "velocity": 100}, {"time": 1555, "pitch": 60, "duration": 3, "velocity": 99}, {"time": 1567, "pitch": 57, "duration": 2, "velocity": 95}, {"time": 1570, "pitch": 60, "duration": 1, "velocity": 95}, {"time": 1572, "pitch": 57, "duration": 1, "velocity": 92}, {"time": 1574, "pitch": 60, "duration": 2, "velocity": 83}, {"time": 1576, "pitch": 57, "duration": 1, "velocity": 93}, {"time": 1578, "pitch": 60, "duration": 7, "velocity": 99}, {"time": 1591, "pitch": 55, "duration": 1, "velocity": 93}, {"time": 1594, "pitch": 62, "duration": 1, "velocity": 100}, {"time": 1597, "pitch": 62, "duration": 2, "velocity": 100}, {"time": 1603, "pitch": 62, "duration": 1, "velocity": 112}, {"time": 1606, "pitch": 62, "duration": 2, "velocity": 127}, {"time": 1609, "pitch": 60, "duration": 1, "velocity": 102}, {"time": 1612, "pitch": 59, "duration": 1, "velocity": 100}, {"time": 1615, "pitch": 60, "duration": 30, "velocity": 112}, {"time": 2038, "pitch": 64, "duration": 1, "velocity": 107}, {"time": 2041, "pitch": 64, "duration": 3, "velocity": 97}, {"time": 2044, "pitch": 62, "duration": 3, "velocity": 93}, {"time": 2047, "pitch": 60, "duration": 3, "velocity": 74}, {"time": 2050, "pitch": 55, "duration": 9, "velocity": 86}, {"time": 2062, "pitch": 64, "duration": 1, "velocity": 127}, {"time": 2065, "pitch": 64, "duration": 1, "velocity": 97}, {"time": 2068, "pitch": 62, "duration": 2, "velocity": 100}, {"time": 2071, "pitch": 60, "duration": 1, "velocity": 93}, {"time": 2074, "pitch": 62, "duration": 1, "velocity": 100}, {"time": 2077, "pitch": 62, "duration": 13, "velocity": 99}, {"time": 2092, "pitch": 64, "duration": 2, "velocity": 97}, {"time": 2095, "pitch": 67, "duration": 2, "velocity": 96}, {"time": 2098, "pitch": 69, "duration": 6, "velocity": 102}, {"time": 2107, "pitch": 69, "duration": 1, "velocity": 100}, {"time": 2110, "pitch": 69, "duration": 3, "velocity": 102}, {"time": 2113, "pitch": 64, "duration": 2, "velocity": 86}, {"time": 2116, "pitch": 62, "duration": 3, "velocity": 100}, {"time": 2119, "pitch": 64, "duration": 6, "velocity": 93}, {"time": 2140, "pitch": 64, "duration": 3, "velocity": 92}, {"time": 2143, "pitch": 67, "duration": 1, "velocity": 81}, {"time": 2146, "pitch": 69, "duration": 1, "velocity": 99}, {"time": 2149, "pitch": 69, "duration": 1, "velocity": 95}, {"time": 2152, "pitch": 69, "duration": 1, "velocity": 96}, {"time": 2155, "pitch": 69, "duration": 1, "velocity": 95}, {"time": 2158, "pitch": 69, "duration": 2, "velocity": 122}, {"time": 2161, "pitch": 69, "duration": 3, "velocity": 117}, {"time": 2167, "pitch": 69, "duration": 1, "velocity": 112}, {"time": 2170, "pitch": 67, "duration": 1, "velocity": 112}, {"time": 2173, "pitch": 67, "duration": 2, "velocity": 112}, {"time": 2179, "pitch": 67, "duration": 2, "velocity": 102}, {"time": 2182, "pitch": 62, "duration": 3, "velocity": 100}, {"time": 2185, "pitch": 60, "duration": 4, "velocity": 89}, {"time": 2194, "pitch": 60, "duration": 4, "velocity": 95}, {"time": 2200, "pitch": 60, "duration": 3, "velocity": 93}, {"time": 2206, "pitch": 57, "duration": 2, "velocity": 96}, {"time": 2209, "pitch": 64, "duration": 3, "velocity": 97}, {"time": 2215, "pitch": 62, "duration": 12, "velocity": 93}, {"time": 2230, "pitch": 64, "duration": 1, "velocity": 112}, {"time": 2233, "pitch": 64, "duration": 3, "velocity": 97}, {"time": 2239, "pitch": 62, "duration": 2, "velocity": 107}, {"time": 2242, "pitch": 60, "duration": 3, "velocity": 95}, {"time": 2245, "pitch": 55, "duration": 3, "velocity": 89}, {"time": 2254, "pitch": 64, "duration": 1, "velocity": 99}, {"time": 2257, "pitch": 64, "duration": 2, "velocity": 86}, {"time": 2260, "pitch": 62, "duration": 2, "velocity": 83}, {"time": 2263, "pitch": 60, "duration": 2, "velocity": 79}, {"time": 2266, "pitch": 62, "duration": 2, "velocity": 97}, {"time": 2269, "pitch": 62, "duration": 5, "velocity": 96}, {"time": 2284, "pitch": 64, "duration": 2, "velocity": 96}, {"time": 2287, "pitch": 67, "duration": 2, "velocity": 93}, {"time": 2290, "pitch": 69, "duration": 5, "velocity": 122}, {"time": 2302, "pitch": 69, "duration": 3, "velocity": 112}, {"time": 2305, "pitch": 64, "duration": 2, "velocity": 92}, {"time": 2308, "pitch": 62, "duration": 3, "velocity": 89}, {"time": 2311, "pitch": 64, "duration": 11, "velocity": 100}, {"time": 2332, "pitch": 64, "duration": 2, "velocity": 102}, {"time": 2335, "pitch": 67, "duration": 2, "velocity": 102}, {"time": 2338, "pitch": 69, "duration": 1, "velocity": 117}, {"time": 2341, "pitch": 69, "duration": 1, "velocity": 95}, {"time": 2344, "pitch": 69, "duration": 1, "velocity": 112}, {"time": 2347, "pitch": 69, "duration": 2, "velocity": 112}, {"time": 2350, "pitch": 69, "duration": 2, "velocity": 112}, {"time": 2353, "pitch": 69, "duration": 1, "velocity": 117}, {"time": 2356, "pitch": 69, "duration": 1, "velocity": 96}, {"time": 2359, "pitch": 69, "duration": 1, "velocity": 102}, {"time": 2362, "pitch": 67, "duration": 2, "velocity": 107}, {"time": 2365, "pitch": 67, "duration": 1, "velocity": 92}, {"time": 2368, "pitch": 67, "duration": 1, "velocity": 83}, {"time": 2371, "pitch": 60, "duration": 12, "velocity": 97}, {"time": 2386, "pitch": 62, "duration": 4, "velocity": 112}, {"time": 2392, "pitch": 62, "duration": 10, "velocity": 99}, {"time": 2404, "pitch": 60, "duration": 3, "velocity": 107}, {"time": 2407, "pitch": 59, "duration": 3, "velocity": 72}, {"time": 2410, "pitch": 60, "duration": 17, "velocity": 96}, {"time": 2428, "pitch": 60, "duration": 2, "velocity": 117}, {"time": 2431, "pitch": 62, "duration": 3, "velocity": 95}, {"time": 2434, "pitch": 64, "duration": 2, "velocity": 107}, {"time": 2437, "pitch": 67, "duration": 1, "velocity": 100}, {"time": 2440, "pitch": 67, "duration": 1, "velocity": 97}, {"time": 2443, "pitch": 67, "duration": 1, "velocity": 100}, {"time": 2446, "pitch": 67, "duration": 1, "velocity": 107}, {"time": 2449, "pitch": 67, "duration": 1, "velocity": 99}, {"time": 2452, "pitch": 67, "duration": 2, "velocity": 102}, {"time": 2455, "pitch": 64, "duration": 2, "velocity": 100}, {"time": 2458, "pitch": 62, "duration": 1, "velocity": 97}, {"time": 2461, "pitch": 62, "duration": 2, "velocity": 93}, {"time": 2464, "pitch": 64, "duration": 2, "velocity": 97}, {"time": 2467, "pitch": 62, "duration": 3, "velocity": 122}, {"time": 2473, "pitch": 64, "duration": 3, "velocity": 96}, {"time": 2479, "pitch": 62, "duration": 2, "velocity": 100}, {"time": 2482, "pitch": 60, "duration": 1, "velocity": 107}, {"time": 2485, "pitch": 60, "duration": 1, "velocity": 89}, {"time": 2488, "pitch": 60, "duration": 3, "velocity": 96}, {"time": 2491, "pitch": 57, "duration": 3, "velocity": 89}, {"time": 2494, "pitch": 60, "duration": 2, "velocity": 117}, {"time": 2497, "pitch": 60, "duration": 2, "velocity": 117}, {"time": 2500, "pitch": 60, "duration": 2, "velocity": 107}, {"time": 2503, "pitch": 57, "duration": 2, "velocity": 93}, {"time": 2506, "pitch": 69, "duration": 2, "velocity": 100}, {"time": 2509, "pitch": 67, "duration": 2, "velocity": 122}, {"time": 2515, "pitch": 67, "duration": 2, "velocity": 112}, {"time": 2518, "pitch": 64, "duration": 2, "velocity": 102}, {"time": 2521, "pitch": 62, "duration": 2, "velocity": 99}, {"time": 2524, "pitch": 64, "duration": 3, "velocity": 107}, {"time": 2527, "pitch": 65, "duration": 2, "velocity": 102}, {"time": 2530, "pitch": 67, "duration": 1, "velocity": 112}, {"time": 2533, "pitch": 67, "duration": 1, "velocity": 100}, {"time": 2536, "pitch": 67, "duration": 1, "velocity": 102}, {"time": 2539, "pitch": 67, "duration": 1, "velocity": 102}, {"time": 2542, "pitch": 67, "duration": 1, "velocity": 117}, {"time": 2545, "pitch": 67, "duration": 1, "velocity": 127}, {"time": 2551, "pitch": 64, "duration": 3, "velocity": 100}, {"time": 2554, "pitch": 62, "duration": 1, "velocity": 96}, {"time": 2557, "pitch": 62, "duration": 1, "velocity": 93}, {"time": 2560, "pitch": 64, "duration": 2, "velocity": 102}, {"time": 2563, "pitch": 62, "duration": 2, "velocity": 117}, {"time": 2569, "pitch": 64, "duration": 3, "velocity": 96}, {"time": 2575, "pitch": 62, "duration": 2, "velocity": 99}, {"time": 2578, "pitch": 60, "duration": 1, "velocity": 112}, {"time": 2579, "pitch": 57, "duration": 2, "velocity": 78}, {"time": 2581, "pitch": 60, "duration": 2, "velocity": 93}, {"time": 2583, "pitch": 57, "duration": 1, "velocity": 88}, {"time": 2584, "pitch": 60, "duration": 5, "velocity": 122}, {"time": 2599, "pitch": 57, "duration": 3, "velocity": 102}, {"time": 2602, "pitch": 69, "duration": 3, "velocity": 117}, {"time": 2605, "pitch": 67, "duration": 4, "velocity": 127}, {"time": 2614, "pitch": 69, "duration": 2, "velocity": 127}, {"time": 2617, "pitch": 67, "duration": 1, "velocity": 95}, {"time": 2620, "pitch": 67, "duration": 1, "velocity": 127}, {"time": 2623, "pitch": 67, "duration": 16, "velocity": 127}, {"time": 2638, "pitch": 60, "duration": 4, "velocity": 117}, {"time": 2644, "pitch": 62, "duration": 4, "velocity": 127}, {"time": 2650, "pitch": 64, "duration": 2, "velocity": 127}, {"time": 2653, "pitch": 67, "duration": 1, "velocity": 102}, {"time": 2656, "pitch": 67, "duration": 1, "velocity": 99}, {"time": 2659, "pitch": 67, "duration": 1, "velocity": 99}, {"time": 2662, "pitch": 67, "duration": 2, "velocity": 107}, {"time": 2665, "pitch": 64, "duration": 3, "velocity": 82}, {"time": 2668, "pitch": 69, "duration": 3, "velocity": 127}, {"time": 2671, "pitch": 67, "duration": 14, "velocity": 107}, {"time": 2695, "pitch": 67, "duration": 2, "velocity": 112}, {"time": 2698, "pitch": 69, "duration": 3, "velocity": 127}, {"time": 2701, "pitch": 72, "duration": 3, "velocity": 127}, {"time": 2707, "pitch": 72, "duration": 1, "velocity": 127}, {"time": 2710, "pitch": 72, "duration": 2, "velocity": 127}, {"time": 2716, "pitch": 64, "duration": 2, "velocity": 99}, {"time": 2719, "pitch": 67, "duration": 14, "velocity": 122}, {"time": 2746, "pitch": 60, "duration": 2, "velocity": 112}, {"time": 2749, "pitch": 60, "duration": 2, "velocity": 96}, {"time": 2755, "pitch": 60, "duration": 8, "velocity": 107}, {"time": 2770, "pitch": 67, "duration": 1, "velocity": 112}, {"time": 2773, "pitch": 67, "duration": 1, "velocity": 85}, {"time": 2776, "pitch": 67, "duration": 1, "velocity": 96}, {"time": 2779, "pitch": 60, "duration": 2, "velocity": 107}, {"time": 2785, "pitch": 60, "duration": 1, "velocity": 112}, {"time": 2788, "pitch": 60, "duration": 1, "velocity": 112}, {"time": 2791, "pitch": 57, "duration": 2, "velocity": 102}, {"time": 2794, "pitch": 60, "duration": 1, "velocity": 127}, {"time": 2797, "pitch": 60, "duration": 1, "velocity": 102}, {"time": 2800, "pitch": 60, "duration": 5, "velocity": 127}, {"time": 2806, "pitch": 60, "duration": 6, "velocity": 117}, {"time": 2818, "pitch": 67, "duration": 1, "velocity": 117}, {"time": 2821, "pitch": 67, "duration": 1, "velocity": 112}, {"time": 2824, "pitch": 64, "duration": 1, "velocity": 117}, {"time": 2827, "pitch": 62, "duration": 2, "velocity": 112}, {"time": 2833, "pitch": 64, "duration": 3, "velocity": 112}, {"time": 2839, "pitch": 65, "duration": 2, "velocity": 127}, {"time": 2842, "pitch": 67, "duration": 1, "velocity": 117}, {"time": 2845, "pitch": 67, "duration": 3, "velocity": 102}, {"time": 2851, "pitch": 67, "duration": 1, "velocity": 102}, {"time": 2854, "pitch": 67, "duration": 1, "velocity": 117}, {"time": 2857, "pitch": 64, "duration": 2, "velocity": 102}, {"time": 2860, "pitch": 69, "duration": 2, "velocity": 122}, {"time": 2863, "pitch": 67, "duration": 10, "velocity": 122}, {"time": 2887, "pitch": 67, "duration": 1, "velocity": 99}, {"time": 2890, "pitch": 69, "duration": 3, "velocity": 127}, {"time": 2893, "pitch": 72, "duration": 2, "velocity": 127}, {"time": 2899, "pitch": 72, "duration": 1, "velocity": 127}, {"time": 2902, "pitch": 72, "duration": 2, "velocity": 127}, {"time": 2908, "pitch": 64, "duration": 2, "velocity": 92}, {"time": 2911, "pitch": 67, "duration": 5, "velocity": 117}, {"time": 2920, "pitch": 69, "duration": 2, "velocity": 112}, {"time": 2923, "pitch": 67, "duration": 3, "velocity": 117}, {"time": 2938, "pitch": 60, "duration": 2, "velocity": 97}, {"time": 2941, "pitch": 60, "duration": 3, "velocity": 100}, {"time": 2947, "pitch": 60, "duration": 7, "velocity": 112}, {"time": 2962, "pitch": 67, "duration": 1, "velocity": 107}, {"time": 2965, "pitch": 67, "duration": 1, "velocity": 95}, {"time": 2968, "pitch": 67, "duration": 1, "velocity": 100}, {"time": 2971, "pitch": 60, "duration": 3, "velocity": 112}, {"time": 2977, "pitch": 60, "duration": 1, "velocity": 102}, {"time": 2980, "pitch": 60, "duration": 1, "velocity": 95}, {"time": 2983, "pitch": 57, "duration": 2, "velocity": 102}, {"time": 2986, "pitch": 60, "duration": 2, "velocity": 127}, {"time": 2989, "pitch": 60, "duration": 1, "velocity": 100}, {"time": 2992, "pitch": 60, "duration": 5, "velocity": 107}, {"time": 2998, "pitch": 60, "duration": 16, "velocity": 117}, {"time": 3022, "pitch": 60, "duration": 3, "velocity": 107}, {"time": 3028, "pitch": 60, "duration": 3, "velocity": 112}, {"time": 3034, "pitch": 62, "duration": 4, "velocity": 102}, {"time": 3040, "pitch": 60, "duration": 28, "velocity": 117}, {"time": 3070, "pitch": 60, "duration": 4, "velocity": 117}, {"time": 3076, "pitch": 62, "duration": 4, "velocity": 127}, {"time": 3082, "pitch": 64, "duration": 2, "velocity": 127}, {"time": 3085, "pitch": 67, "duration": 1, "velocity": 102}, {"time": 3088, "pitch": 67, "duration": 1, "velocity": 99}, {"time": 3091, "pitch": 67, "duration": 1, "velocity": 99}, {"time": 3094, "pitch": 67, "duration": 2, "velocity": 107}, {"time": 3097, "pitch": 64, "duration": 3, "velocity": 82}, {"time": 3100, "pitch": 69, "duration": 3, "velocity": 127}, {"time": 3103, "pitch": 67, "duration": 14, "velocity": 107}, {"time": 3127, "pitch": 67, "duration": 2, "velocity": 112}, {"time": 3130, "pitch": 69, "duration": 3, "velocity": 127}, {"time": 3133, "pitch": 72, "duration": 3, "velocity": 127}, {"time": 3139, "pitch": 72, "duration": 1, "velocity": 127}, {"time": 3142, "pitch": 72, "duration": 2, "velocity": 127}, {"time": 3148, "pitch": 64, "duration": 2, "velocity": 99}, {"time": 3151, "pitch": 67, "duration": 14, "velocity": 122}, {"time": 3178, "pitch": 60, "duration": 2, "velocity": 112}, {"time": 3181, "pitch": 60, "duration": 2, "velocity": 96}, {"time": 3187, "pitch": 60, "duration": 8, "velocity": 107}, {"time": 3202, "pitch": 67, "duration": 1, "velocity": 112}, {"time": 3205, "pitch": 67, "duration": 1, "velocity": 85}, {"time": 3208, "pitch": 67, "duration": 1, "velocity": 96}, {"time": 3211, "pitch": 60, "duration": 2, "velocity": 107}, {"time": 3217, "pitch": 60, "duration": 1, "velocity": 112}, {"time": 3220, "pitch": 60, "duration": 1, "velocity": 112}, {"time": 3223, "pitch": 57, "duration": 2, "velocity": 102}, {"time": 3226, "pitch": 60, "duration": 1, "velocity": 127}, {"time": 3229, "pitch": 60, "duration": 1, "velocity": 102}, {"time": 3232, "pitch": 60, "duration": 5, "velocity": 127}, {"time": 3238, "pitch": 60, "duration": 6, "velocity": 117}, {"time": 3250, "pitch": 67, "duration": 1, "velocity": 117}, {"time": 3253, "pitch": 67, "duration": 1, "velocity": 112}, {"time": 3256, "pitch": 64, "duration": 1, "velocity": 117}, {"time": 3259, "pitch": 62, "duration": 2, "velocity": 112}, {"time": 3265, "pitch": 64, "duration": 3, "velocity": 112}, {"time": 3271, "pitch": 65, "duration": 2, "velocity": 127}, {"time": 3274, "pitch": 67, "duration": 1, "velocity": 117}, {"time": 3277, "pitch": 67, "duration": 3, "velocity": 102}, {"time": 3283, "pitch": 67, "duration": 1, "velocity": 102}, {"time": 3286, "pitch": 67, "duration": 1, "velocity": 117}, {"time": 3289, "pitch": 64, "duration": 2, "velocity": 102}, {"time": 3292, "pitch": 69, "duration": 2, "velocity": 122}, {"time": 3295, "pitch": 67, "duration": 10, "velocity": 122}, {"time": 3319, "pitch": 67, "duration": 1, "velocity": 99}, {"time": 3322, "pitch": 69, "duration": 3, "velocity": 127}, {"time": 3325, "pitch": 72, "duration": 2, "velocity": 127}, {"time": 3331, "pitch": 72, "duration": 1, "velocity": 127}, {"time": 3334, "pitch": 72, "duration": 2, "velocity": 127}, {"time": 3340, "pitch": 64, "duration": 2, "velocity": 92}, {"time": 3343, "pitch": 67, "duration": 5, "velocity": 117}, {"time": 3352, "pitch": 69, "duration": 2, "velocity": 112}, {"time": 3355, "pitch": 67, "duration": 3, "velocity": 117}, {"time": 3370, "pitch": 60, "duration": 2, "velocity": 97}, {"time": 3373, "pitch": 60, "duration": 3, "velocity": 100}, {"time": 3379, "pitch": 60, "duration": 7, "velocity": 112}, {"time": 3394, "pitch": 67, "duration": 1, "velocity": 107}, {"time": 3397, "pitch": 67, "duration": 1, "velocity": 95}, {"time": 3400, "pitch": 67, "duration": 1, "velocity": 100}, {"time": 3403, "pitch": 60, "duration": 3, "velocity": 112}, {"time": 3409, "pitch": 60, "duration": 1, "velocity": 102}, {"time": 3412, "pitch": 60, "duration": 1, "velocity": 95}, {"time": 3415, "pitch": 57, "duration": 2, "velocity": 102}, {"time": 3418, "pitch": 60, "duration": 2, "velocity": 127}, {"time": 3421, "pitch": 60, "duration": 1, "velocity": 100}, {"time": 3424, "pitch": 60, "duration": 5, "velocity": 107}, {"time": 3430, "pitch": 60, "duration": 16, "velocity": 117}, {"time": 3454, "pitch": 60, "duration": 3, "velocity": 107}, {"time": 3460, "pitch": 60, "duration": 3, "velocity": 112}, {"time": 3466, "pitch": 62, "duration": 4, "velocity": 102}, {"time": 3472, "pitch": 60, "duration": 28, "velocity": 117}, {"time": 3508, "pitch": 60, "duration": 2, "velocity": 97}, {"time": 3511, "pitch": 62, "duration": 1, "velocity": 107}, {"time": 3514, "pitch": 64, "duration": 3, "velocity": 97}, {"time": 3517, "pitch": 67, "duration": 1, "velocity": 112}, {"time": 3520, "pitch": 67, "duration": 1, "velocity": 90}, {"time": 3523, "pitch": 67, "duration": 1, "velocity": 117}, {"time": 3526, "pitch": 67, "duration": 2, "velocity": 122}, {"time": 3529, "pitch": 67, "duration": 3, "velocity": 112}, {"time": 3535, "pitch": 64, "duration": 2, "velocity": 112}, {"time": 3538, "pitch": 62, "duration": 1, "velocity": 96}, {"time": 3541, "pitch": 62, "duration": 1, "velocity": 90}, {"time": 3544, "pitch": 64, "duration": 2, "velocity": 100}, {"time": 3547, "pitch": 60, "duration": 3, "velocity": 99}, {"time": 3559, "pitch": 57, "duration": 2, "velocity": 95}, {"time": 3562, "pitch": 60, "duration": 1, "velocity": 95}, {"time": 3564, "pitch": 57, "duration": 1, "velocity": 92}, {"time": 3566, "pitch": 60, "duration": 2, "velocity": 83}, {"time": 3568, "pitch": 57, "duration": 1, "velocity": 93}, {"time": 3570, "pitch": 60, "duration": 7, "velocity": 99}, {"time": 3583, "pitch": 55, "duration": 1, "velocity": 93}, {"time": 3586, "pitch": 62, "duration": 1, "velocity": 100}, {"time": 3589, "pitch": 62, "duration": 2, "velocity": 100}, {"time": 3595, "pitch": 62, "duration": 1, "velocity": 112}, {"time": 3598, "pitch": 62, "duration": 2, "velocity": 127}, {"time": 3601, "pitch": 60, "duration": 1, "velocity": 102}, {"time": 3604, "pitch": 59, "duration": 1, "velocity": 100}, {"time": 3607, "pitch": 60, "duration": 30, "velocity": 112}]}, {"program": 0, "is_drum": false, "name": "BRIDGE", "notes": [{"time": 11, "pitch": 76, "duration": 14, "velocity": 90}, {"time": 22, "pitch": 67, "duration": 3, "velocity": 77}, {"time": 25, "pitch": 72, "duration": 3, "velocity": 90}, {"time": 28, "pitch": 76, "duration": 3, "velocity": 85}, {"time": 31, "pitch": 74, "duration": 10, "velocity": 97}, {"time": 40, "pitch": 79, "duration": 9, "velocity": 100}, {"time": 52, "pitch": 71, "duration": 3, "velocity": 88}, {"time": 55, "pitch": 72, "duration": 36, "velocity": 97}, {"time": 106, "pitch": 79, "duration": 14, "velocity": 127}, {"time": 124, "pitch": 79, "duration": 1, "velocity": 127}, {"time": 127, "pitch": 79, "duration": 12, "velocity": 112}, {"time": 148, "pitch": 77, "duration": 3, "velocity": 100}, {"time": 151, "pitch": 76, "duration": 3, "velocity": 92}, {"time": 154, "pitch": 77, "duration": 13, "velocity": 107}, {"time": 172, "pitch": 79, "duration": 2, "velocity": 127}, {"time": 174, "pitch": 67, "duration": 28, "velocity": 112}, {"time": 202, "pitch": 81, "duration": 17, "velocity": 127}, {"time": 220, "pitch": 81, "duration": 1, "velocity": 127}, {"time": 223, "pitch": 81, "duration": 16, "velocity": 107}, {"time": 247, "pitch": 76, "duration": 3, "velocity": 95}, {"time": 250, "pitch": 81, "duration": 3, "velocity": 117}, {"time": 253, "pitch": 76, "duration": 3, "velocity": 97}, {"time": 259, "pitch": 71, "duration": 3, "velocity": 95}, {"time": 262, "pitch": 76, "duration": 6, "velocity": 122}, {"time": 265, "pitch": 81, "duration": 4, "velocity": 112}, {"time": 271, "pitch": 76, "duration": 3, "velocity": 99}, {"time": 274, "pitch": 71, "duration": 6, "velocity": 107}, {"time": 277, "pitch": 67, "duration": 5, "velocity": 112}, {"time": 283, "pitch": 64, "duration": 2, "velocity": 96}, {"time": 286, "pitch": 64, "duration": 10, "velocity": 102}, {"time": 295, "pitch": 62, "duration": 1, "velocity": 85}, {"time": 295, "pitch": 64, "duration": 1, "velocity": 96}, {"time": 298, "pitch": 65, "duration": 12, "velocity": 100}, {"time": 313, "pitch": 64, "duration": 4, "velocity": 93}, {"time": 319, "pitch": 65, "duration": 3, "velocity": 96}, {"time": 322, "pitch": 67, "duration": 13, "velocity": 112}, {"time": 341, "pitch": 67, "duration": 2, "velocity": 92}, {"time": 343, "pitch": 72, "duration": 3, "velocity": 99}, {"time": 346, "pitch": 79, "duration": 4, "velocity": 97}, {"time": 349, "pitch": 76, "duration": 3, "velocity": 127}, {"time": 355, "pitch": 71, "duration": 3, "velocity": 95}, {"time": 358, "pitch": 74, "duration": 7, "velocity": 122}, {"time": 361, "pitch": 79, "duration": 4, "velocity": 127}, {"time": 367, "pitch": 76, "duration": 3, "velocity": 102}, {"time": 370, "pitch": 74, "duration": 4, "velocity": 95}, {"time": 373, "pitch": 71, "duration": 4, "velocity": 100}, {"time": 379, "pitch": 69, "duration": 3, "velocity": 100}, {"time": 382, "pitch": 67, "duration": 5, "velocity": 96}, {"time": 391, "pitch": 59, "duration": 2, "velocity": 96}, {"time": 394, "pitch": 67, "duration": 4, "velocity": 107}, {"time": 397, "pitch": 64, "duration": 3, "velocity": 100}, {"time": 403, "pitch": 59, "duration": 2, "velocity": 102}, {"time": 406, "pitch": 62, "duration": 4, "velocity": 107}, {"time": 409, "pitch": 67, "duration": 4, "velocity": 107}, {"time": 415, "pitch": 64, "duration": 3, "velocity": 97}, {"time": 418, "pitch": 62, "duration": 3, "velocity": 99}, {"time": 421, "pitch": 59, "duration": 5, "velocity": 96}, {"time": 427, "pitch": 57, "duration": 3, "velocity": 96}, {"time": 430, "pitch": 55, "duration": 33, "velocity": 97}, {"time": 853, "pitch": 77, "duration": 4, "velocity": 97}, {"time": 859, "pitch": 76, "duration": 2, "velocity": 97}, {"time": 862, "pitch": 67, "duration": 4, "velocity": 89}, {"time": 865, "pitch": 67, "duration": 1, "velocity": 99}, {"time": 868, "pitch": 72, "duration": 4, "velocity": 93}, {"time": 871, "pitch": 74, "duration": 3, "velocity": 88}, {"time": 874, "pitch": 76, "duration": 15, "velocity": 117}, {"time": 952, "pitch": 67, "duration": 1, "velocity": 81}, {"time": 952, "pitch": 71, "duration": 1, "velocity": 97}, {"time": 952, "pitch": 74, "duration": 1, "velocity": 93}, {"time": 955, "pitch": 67, "duration": 3, "velocity": 88}, {"time": 955, "pitch": 71, "duration": 3, "velocity": 93}, {"time": 955, "pitch": 74, "duration": 3, "velocity": 85}, {"time": 1012, "pitch": 67, "duration": 1, "velocity": 93}, {"time": 1012, "pitch": 71, "duration": 1, "velocity": 100}, {"time": 1012, "pitch": 74, "duration": 1, "velocity": 96}, {"time": 1015, "pitch": 67, "duration": 2, "velocity": 86}, {"time": 1015, "pitch": 71, "duration": 2, "velocity": 85}, {"time": 1015, "pitch": 74, "duration": 2, "velocity": 77}, {"time": 1117, "pitch": 67, "duration": 3, "velocity": 83}, {"time": 1120, "pitch": 71, "duration": 3, "velocity": 88}, {"time": 1123, "pitch": 72, "duration": 2, "velocity": 82}, {"time": 1126, "pitch": 74, "duration": 6, "velocity": 100}, {"time": 1132, "pitch": 72, "duration": 3, "velocity": 96}, {"time": 1135, "pitch": 71, "duration": 3, "velocity": 72}, {"time": 1138, "pitch": 69, "duration": 16, "velocity": 95}, {"time": 1168, "pitch": 76, "duration": 1, "velocity": 96}, {"time": 1171, "pitch": 76, "duration": 2, "velocity": 92}, {"time": 1174, "pitch": 74, "duration": 6, "velocity": 102}, {"time": 1180, "pitch": 71, "duration": 6, "velocity": 89}, {"time": 1186, "pitch": 72, "duration": 12, "velocity": 95}, {"time": 1246, "pitch": 77, "duration": 3, "velocity": 107}, {"time": 1249, "pitch": 76, "duration": 3, "velocity": 75}, {"time": 1252, "pitch": 74, "duration": 3, "velocity": 86}, {"time": 1255, "pitch": 72, "duration": 3, "velocity": 68}, {"time": 1258, "pitch": 74, "duration": 19, "velocity": 82}, {"time": 1618, "pitch": 60, "duration": 15, "velocity": 117}, {"time": 1636, "pitch": 60, "duration": 3, "velocity": 112}, {"time": 1639, "pitch": 67, "duration": 19, "velocity": 127}, {"time": 1663, "pitch": 67, "duration": 2, "velocity": 102}, {"time": 1666, "pitch": 69, "duration": 1, "velocity": 122}, {"time": 1670, "pitch": 69, "duration": 2, "velocity": 117}, {"time": 1674, "pitch": 69, "duration": 1, "velocity": 122}, {"time": 1678, "pitch": 69, "duration": 3, "velocity": 127}, {"time": 1684, "pitch": 69, "duration": 3, "velocity": 127}, {"time": 1687, "pitch": 67, "duration": 2, "velocity": 89}, {"time": 1690, "pitch": 64, "duration": 3, "velocity": 112}, {"time": 1693, "pitch": 67, "duration": 3, "velocity": 112}, {"time": 1696, "pitch": 64, "duration": 3, "velocity": 107}, {"time": 1699, "pitch": 67, "duration": 2, "velocity": 102}, {"time": 1702, "pitch": 64, "duration": 8, "velocity": 107}, {"time": 1714, "pitch": 64, "duration": 3, "velocity": 122}, {"time": 1717, "pitch": 65, "duration": 3, "velocity": 102}, {"time": 1723, "pitch": 67, "duration": 2, "velocity": 100}, {"time": 1726, "pitch": 67, "duration": 4, "velocity": 117}, {"time": 1729, "pitch": 65, "duration": 3, "velocity": 102}, {"time": 1735, "pitch": 64, "duration": 3, "velocity": 112}, {"time": 1738, "pitch": 65, "duration": 3, "velocity": 117}, {"time": 1741, "pitch": 60, "duration": 4, "velocity": 100}, {"time": 1747, "pitch": 57, "duration": 3, "velocity": 93}, {"time": 1750, "pitch": 60, "duration": 9, "velocity": 117}, {"time": 1762, "pitch": 65, "duration": 4, "velocity": 127}, {"time": 1765, "pitch": 64, "duration": 4, "velocity": 100}, {"time": 1771, "pitch": 65, "duration": 3, "velocity": 117}, {"time": 1774, "pitch": 67, "duration": 4, "velocity": 122}, {"time": 1783, "pitch": 67, "duration": 1, "velocity": 97}, {"time": 1784, "pitch": 69, "duration": 2, "velocity": 92}, {"time": 1786, "pitch": 71, "duration": 4, "velocity": 112}, {"time": 1790, "pitch": 67, "duration": 4, "velocity": 102}, {"time": 1794, "pitch": 69, "duration": 4, "velocity": 102}, {"time": 1797, "pitch": 71, "duration": 5, "velocity": 112}, {"time": 1804, "pitch": 69, "duration": 3, "velocity": 107}, {"time": 1807, "pitch": 71, "duration": 3, "velocity": 99}, {"time": 1810, "pitch": 72, "duration": 4, "velocity": 127}, {"time": 1813, "pitch": 74, "duration": 4, "velocity": 117}, {"time": 1818, "pitch": 76, "duration": 3, "velocity": 127}, {"time": 1822, "pitch": 76, "duration": 8, "velocity": 127}, {"time": 1838, "pitch": 74, "duration": 4, "velocity": 127}, {"time": 1842, "pitch": 72, "duration": 4, "velocity": 102}, {"time": 1846, "pitch": 74, "duration": 12, "velocity": 127}, {"time": 1858, "pitch": 77, "duration": 3, "velocity": 122}, {"time": 1862, "pitch": 79, "duration": 4, "velocity": 117}, {"time": 1866, "pitch": 81, "duration": 3, "velocity": 102}, {"time": 1870, "pitch": 81, "duration": 21, "velocity": 127}, {"time": 1891, "pitch": 81, "duration": 2, "velocity": 101}, {"time": 1892, "pitch": 83, "duration": 2, "velocity": 100}, {"time": 1894, "pitch": 84, "duration": 1, "velocity": 100}, {"time": 1896, "pitch": 83, "duration": 2, "velocity": 99}, {"time": 1897, "pitch": 84, "duration": 2, "velocity": 99}, {"time": 1899, "pitch": 86, "duration": 1, "velocity": 98}, {"time": 1901, "pitch": 83, "duration": 2, "velocity": 96}, {"time": 1902, "pitch": 84, "duration": 1, "velocity": 96}, {"time": 1903, "pitch": 86, "duration": 1, "velocity": 96}, {"time": 1904, "pitch": 83, "duration": 1, "velocity": 96}, {"time": 1905, "pitch": 84, "duration": 1, "velocity": 96}, {"time": 1906, "pitch": 86, "duration": 3, "velocity": 96}, {"time": 1908, "pitch": 86, "duration": 1, "velocity": 96}, {"time": 1909, "pitch": 84, "duration": 2, "velocity": 95}, {"time": 1910, "pitch": 83, "duration": 2, "velocity": 95}, {"time": 1912, "pitch": 81, "duration": 1, "velocity": 95}, {"time": 1913, "pitch": 84, "duration": 2, "velocity": 95}, {"time": 1914, "pitch": 83, "duration": 2, "velocity": 95}, {"time": 1915, "pitch": 81, "duration": 2, "velocity": 95}, {"time": 1917, "pitch": 79, "duration": 1, "velocity": 95}, {"time": 1918, "pitch": 83, "duration": 2, "velocity": 95}, {"time": 1919, "pitch": 81, "duration": 2, "velocity": 95}, {"time": 1920, "pitch": 79, "duration": 2, "velocity": 95}, {"time": 1921, "pitch": 77, "duration": 2, "velocity": 96}, {"time": 1923, "pitch": 81, "duration": 2, "velocity": 96}, {"time": 1924, "pitch": 79, "duration": 2, "velocity": 96}, {"time": 1925, "pitch": 77, "duration": 1, "velocity": 96}, {"time": 1926, "pitch": 76, "duration": 1, "velocity": 96}, {"time": 1927, "pitch": 81, "duration": 2, "velocity": 96}, {"time": 1928, "pitch": 79, "duration": 2, "velocity": 97}, {"time": 1929, "pitch": 77, "duration": 1, "velocity": 97}, {"time": 1930, "pitch": 74, "duration": 1, "velocity": 97}, {"time": 1930, "pitch": 76, "duration": 1, "velocity": 97}, {"time": 1932, "pitch": 79, "duration": 1, "velocity": 97}, {"time": 1932, "pitch": 77, "duration": 2, "velocity": 97}, {"time": 1933, "pitch": 76, "duration": 1, "velocity": 97}, {"time": 1934, "pitch": 74, "duration": 2, "velocity": 98}, {"time": 1935, "pitch": 72, "duration": 1, "velocity": 98}, {"time": 1936, "pitch": 77, "duration": 1, "velocity": 98}, {"time": 1936, "pitch": 76, "duration": 2, "velocity": 98}, {"time": 1937, "pitch": 74, "duration": 1, "velocity": 99}, {"time": 1938, "pitch": 72, "duration": 2, "velocity": 99}, {"time": 1938, "pitch": 71, "duration": 2, "velocity": 99}, {"time": 1939, "pitch": 76, "duration": 2, "velocity": 99}, {"time": 1941, "pitch": 74, "duration": 1, "velocity": 99}, {"time": 1941, "pitch": 72, "duration": 2, "velocity": 99}, {"time": 1943, "pitch": 71, "duration": 1, "velocity": 99}, {"time": 1944, "pitch": 76, "duration": 2, "velocity": 99}, {"time": 1945, "pitch": 74, "duration": 1, "velocity": 99}, {"time": 1945, "pitch": 72, "duration": 1, "velocity": 99}, {"time": 1946, "pitch": 71, "duration": 2, "velocity": 99}, {"time": 1948, "pitch": 72, "duration": 1, "velocity": 99}, {"time": 1949, "pitch": 69, "duration": 2, "velocity": 99}, {"time": 1951, "pitch": 72, "duration": 2, "velocity": 99}, {"time": 1952, "pitch": 71, "duration": 1, "velocity": 99}, {"time": 1952, "pitch": 69, "duration": 2, "velocity": 99}, {"time": 1954, "pitch": 67, "duration": 16, "velocity": 99}, {"time": 1972, "pitch": 67, "duration": 4, "velocity": 117}, {"time": 1978, "pitch": 67, "duration": 21, "velocity": 112}, {"time": 2002, "pitch": 67, "duration": 40, "velocity": 112}, {"time": 2413, "pitch": 77, "duration": 4, "velocity": 97}, {"time": 2419, "pitch": 76, "duration": 2, "velocity": 97}, {"time": 2422, "pitch": 67, "duration": 4, "velocity": 89}, {"time": 2425, "pitch": 67, "duration": 1, "velocity": 99}, {"time": 2428, "pitch": 72, "duration": 4, "velocity": 93}, {"time": 2431, "pitch": 74, "duration": 3, "velocity": 88}, {"time": 2434, "pitch": 76, "duration": 15, "velocity": 117}, {"time": 2512, "pitch": 67, "duration": 1, "velocity": 81}, {"time": 2512, "pitch": 71, "duration": 1, "velocity": 97}, {"time": 2512, "pitch": 74, "duration": 1, "velocity": 93}, {"time": 2515, "pitch": 67, "duration": 3, "velocity": 88}, {"time": 2515, "pitch": 71, "duration": 3, "velocity": 93}, {"time": 2515, "pitch": 74, "duration": 3, "velocity": 85}, {"time": 2572, "pitch": 67, "duration": 1, "velocity": 93}, {"time": 2572, "pitch": 71, "duration": 1, "velocity": 100}, {"time": 2572, "pitch": 74, "duration": 1, "velocity": 96}, {"time": 2575, "pitch": 67, "duration": 2, "velocity": 86}, {"time": 2575, "pitch": 71, "duration": 2, "velocity": 85}, {"time": 2575, "pitch": 74, "duration": 2, "velocity": 77}, {"time": 2677, "pitch": 67, "duration": 3, "velocity": 83}, {"time": 2680, "pitch": 71, "duration": 3, "velocity": 88}, {"time": 2683, "pitch": 72, "duration": 2, "velocity": 82}, {"time": 2686, "pitch": 74, "duration": 6, "velocity": 100}, {"time": 2692, "pitch": 72, "duration": 3, "velocity": 96}, {"time": 2695, "pitch": 71, "duration": 3, "velocity": 72}, {"time": 2698, "pitch": 69, "duration": 16, "velocity": 95}, {"time": 2728, "pitch": 76, "duration": 1, "velocity": 96}, {"time": 2731, "pitch": 76, "duration": 2, "velocity": 92}, {"time": 2734, "pitch": 74, "duration": 6, "velocity": 102}, {"time": 2740, "pitch": 71, "duration": 6, "velocity": 89}, {"time": 2746, "pitch": 72, "duration": 12, "velocity": 95}, {"time": 2806, "pitch": 77, "duration": 3, "velocity": 107}, {"time": 2809, "pitch": 76, "duration": 3, "velocity": 75}, {"time": 2812, "pitch": 74, "duration": 3, "velocity": 86}, {"time": 2815, "pitch": 72, "duration": 3, "velocity": 68}, {"time": 2818, "pitch": 74, "duration": 19, "velocity": 82}, {"time": 3109, "pitch": 67, "duration": 3, "velocity": 83}, {"time": 3112, "pitch": 71, "duration": 3, "velocity": 88}, {"time": 3115, "pitch": 72, "duration": 2, "velocity": 82}, {"time": 3118, "pitch": 74, "duration": 6, "velocity": 100}, {"time": 3124, "pitch": 72, "duration": 3, "velocity": 96}, {"time": 3127, "pitch": 71, "duration": 3, "velocity": 72}, {"time": 3130, "pitch": 69, "duration": 16, "velocity": 95}, {"time": 3160, "pitch": 76, "duration": 1, "velocity": 96}, {"time": 3163, "pitch": 76, "duration": 2, "velocity": 92}, {"time": 3166, "pitch": 74, "duration": 6, "velocity": 102}, {"time": 3172, "pitch": 71, "duration": 6, "velocity": 89}, {"time": 3178, "pitch": 72, "duration": 12, "velocity": 95}, {"time": 3238, "pitch": 77, "duration": 3, "velocity": 107}, {"time": 3241, "pitch": 76, "duration": 3, "velocity": 75}, {"time": 3244, "pitch": 74, "duration": 3, "velocity": 86}, {"time": 3247, "pitch": 72, "duration": 3, "velocity": 68}, {"time": 3250, "pitch": 74, "duration": 19, "velocity": 82}]}, {"program": 0, "is_drum": false, "name": "PIANO", "notes": [{"time": 11, "pitch": 48, "duration": 13, "velocity": 69}, {"time": 12, "pitch": 60, "duration": 12, "velocity": 75}, {"time": 12, "pitch": 64, "duration": 17, "velocity": 69}, {"time": 12, "pitch": 67, "duration": 9, "velocity": 65}, {"time": 18, "pitch": 55, "duration": 6, "velocity": 37}, {"time": 23, "pitch": 67, "duration": 3, "velocity": 70}, {"time": 30, "pitch": 67, "duration": 11, "velocity": 64}, {"time": 30, "pitch": 50, "duration": 16, "velocity": 49}, {"time": 30, "pitch": 71, "duration": 11, "velocity": 69}, {"time": 30, "pitch": 62, "duration": 16, "velocity": 53}, {"time": 30, "pitch": 43, "duration": 19, "velocity": 34}, {"time": 42, "pitch": 71, "duration": 6, "velocity": 99}, {"time": 45, "pitch": 67, "duration": 9, "velocity": 79}, {"time": 48, "pitch": 62, "duration": 5, "velocity": 59}, {"time": 54, "pitch": 41, "duration": 38, "velocity": 27}, {"time": 54, "pitch": 69, "duration": 38, "velocity": 60}, {"time": 54, "pitch": 48, "duration": 38, "velocity": 37}, {"time": 54, "pitch": 65, "duration": 38, "velocity": 58}, {"time": 54, "pitch": 53, "duration": 38, "velocity": 40}, {"time": 54, "pitch": 60, "duration": 38, "velocity": 88}, {"time": 94, "pitch": 43, "duration": 10, "velocity": 102}, {"time": 94, "pitch": 62, "duration": 10, "velocity": 96}, {"time": 94, "pitch": 67, "duration": 10, "velocity": 97}, {"time": 94, "pitch": 71, "duration": 10, "velocity": 97}, {"time": 106, "pitch": 36, "duration": 15, "velocity": 90}, {"time": 109, "pitch": 43, "duration": 13, "velocity": 69}, {"time": 112, "pitch": 48, "duration": 6, "velocity": 96}, {"time": 115, "pitch": 60, "duration": 4, "velocity": 93}, {"time": 118, "pitch": 67, "duration": 11, "velocity": 127}, {"time": 121, "pitch": 48, "duration": 3, "velocity": 96}, {"time": 124, "pitch": 64, "duration": 6, "velocity": 112}, {"time": 127, "pitch": 60, "duration": 3, "velocity": 100}, {"time": 130, "pitch": 43, "duration": 23, "velocity": 89}, {"time": 133, "pitch": 50, "duration": 15, "velocity": 66}, {"time": 136, "pitch": 55, "duration": 7, "velocity": 86}, {"time": 139, "pitch": 62, "duration": 10, "velocity": 83}, {"time": 142, "pitch": 71, "duration": 11, "velocity": 127}, {"time": 145, "pitch": 55, "duration": 2, "velocity": 100}, {"time": 148, "pitch": 67, "duration": 5, "velocity": 102}, {"time": 151, "pitch": 62, "duration": 3, "velocity": 102}, {"time": 154, "pitch": 41, "duration": 20, "velocity": 86}, {"time": 157, "pitch": 48, "duration": 21, "velocity": 56}, {"time": 160, "pitch": 53, "duration": 7, "velocity": 81}, {"time": 163, "pitch": 60, "duration": 4, "velocity": 88}, {"time": 166, "pitch": 69, "duration": 7, "velocity": 117}, {"time": 169, "pitch": 53, "duration": 2, "velocity": 81}, {"time": 172, "pitch": 65, "duration": 7, "velocity": 99}, {"time": 175, "pitch": 41, "duration": 17, "velocity": 76}, {"time": 175, "pitch": 60, "duration": 13, "velocity": 90}, {"time": 175, "pitch": 65, "duration": 4, "velocity": 86}, {"time": 175, "pitch": 69, "duration": 1, "velocity": 78}, {"time": 184, "pitch": 48, "duration": 9, "velocity": 59}, {"time": 187, "pitch": 53, "duration": 4, "velocity": 36}, {"time": 190, "pitch": 60, "duration": 2, "velocity": 97}, {"time": 190, "pitch": 65, "duration": 2, "velocity": 99}, {"time": 193, "pitch": 43, "duration": 9, "velocity": 97}, {"time": 193, "pitch": 62, "duration": 8, "velocity": 45}, {"time": 193, "pitch": 65, "duration": 1, "velocity": 76}, {"time": 193, "pitch": 67, "duration": 9, "velocity": 117}, {"time": 202, "pitch": 45, "duration": 18, "velocity": 73}, {"time": 205, "pitch": 52, "duration": 10, "velocity": 68}, {"time": 208, "pitch": 57, "duration": 3, "velocity": 96}, {"time": 211, "pitch": 60, "duration": 4, "velocity": 72}, {"time": 214, "pitch": 64, "duration": 12, "velocity": 112}, {"time": 217, "pitch": 52, "duration": 2, "velocity": 97}, {"time": 220, "pitch": 41, "duration": 1, "velocity": 77}, {"time": 220, "pitch": 60, "duration": 1, "velocity": 82}, {"time": 220, "pitch": 60, "duration": 1, "velocity": 107}, {"time": 220, "pitch": 65, "duration": 1, "velocity": 79}, {"time": 220, "pitch": 69, "duration": 1, "velocity": 72}, {"time": 223, "pitch": 41, "duration": 19, "velocity": 89}, {"time": 223, "pitch": 57, "duration": 3, "velocity": 93}, {"time": 223, "pitch": 60, "duration": 3, "velocity": 97}, {"time": 223, "pitch": 65, "duration": 12, "velocity": 97}, {"time": 223, "pitch": 69, "duration": 12, "velocity": 97}, {"time": 232, "pitch": 48, "duration": 7, "velocity": 38}, {"time": 238, "pitch": 65, "duration": 6, "velocity": 117}, {"time": 238, "pitch": 69, "duration": 9, "velocity": 117}, {"time": 241, "pitch": 48, "duration": 2, "velocity": 90}, {"time": 244, "pitch": 60, "duration": 3, "velocity": 95}, {"time": 247, "pitch": 65, "duration": 3, "velocity": 82}, {"time": 250, "pitch": 40, "duration": 16, "velocity": 79}, {"time": 250, "pitch": 64, "duration": 8, "velocity": 66}, {"time": 250, "pitch": 67, "duration": 4, "velocity": 83}, {"time": 253, "pitch": 47, "duration": 14, "velocity": 70}, {"time": 256, "pitch": 52, "duration": 6, "velocity": 92}, {"time": 259, "pitch": 64, "duration": 4, "velocity": 83}, {"time": 262, "pitch": 71, "duration": 8, "velocity": 127}, {"time": 265, "pitch": 52, "duration": 8, "velocity": 81}, {"time": 268, "pitch": 67, "duration": 4, "velocity": 117}, {"time": 271, "pitch": 64, "duration": 9, "velocity": 92}, {"time": 274, "pitch": 45, "duration": 17, "velocity": 92}, {"time": 277, "pitch": 52, "duration": 10, "velocity": 49}, {"time": 280, "pitch": 57, "duration": 3, "velocity": 96}, {"time": 283, "pitch": 64, "duration": 5, "velocity": 81}, {"time": 286, "pitch": 72, "duration": 7, "velocity": 127}, {"time": 289, "pitch": 52, "duration": 2, "velocity": 96}, {"time": 292, "pitch": 69, "duration": 5, "velocity": 112}, {"time": 295, "pitch": 72, "duration": 1, "velocity": 59}, {"time": 298, "pitch": 41, "duration": 22, "velocity": 77}, {"time": 298, "pitch": 65, "duration": 13, "velocity": 95}, {"time": 298, "pitch": 69, "duration": 11, "velocity": 97}, {"time": 298, "pitch": 72, "duration": 10, "velocity": 97}, {"time": 304, "pitch": 48, "duration": 18, "velocity": 51}, {"time": 307, "pitch": 53, "duration": 3, "velocity": 74}, {"time": 310, "pitch": 72, "duration": 7, "velocity": 100}, {"time": 313, "pitch": 53, "duration": 2, "velocity": 90}, {"time": 316, "pitch": 65, "duration": 12, "velocity": 85}, {"time": 319, "pitch": 68, "duration": 12, "velocity": 112}, {"time": 319, "pitch": 72, "duration": 13, "velocity": 81}, {"time": 322, "pitch": 41, "duration": 22, "velocity": 77}, {"time": 325, "pitch": 48, "duration": 21, "velocity": 81}, {"time": 328, "pitch": 53, "duration": 7, "velocity": 88}, {"time": 331, "pitch": 65, "duration": 4, "velocity": 66}, {"time": 334, "pitch": 68, "duration": 5, "velocity": 112}, {"time": 334, "pitch": 72, "duration": 10, "velocity": 102}, {"time": 337, "pitch": 53, "duration": 2, "velocity": 95}, {"time": 340, "pitch": 65, "duration": 4, "velocity": 82}, {"time": 343, "pitch": 68, "duration": 1, "velocity": 89}, {"time": 346, "pitch": 43, "duration": 21, "velocity": 82}, {"time": 346, "pitch": 62, "duration": 7, "velocity": 96}, {"time": 346, "pitch": 67, "duration": 8, "velocity": 95}, {"time": 346, "pitch": 71, "duration": 8, "velocity": 88}, {"time": 349, "pitch": 50, "duration": 21, "velocity": 81}, {"time": 352, "pitch": 55, "duration": 6, "velocity": 92}, {"time": 355, "pitch": 62, "duration": 6, "velocity": 86}, {"time": 358, "pitch": 71, "duration": 9, "velocity": 112}, {"time": 361, "pitch": 55, "duration": 2, "velocity": 96}, {"time": 364, "pitch": 67, "duration": 15, "velocity": 92}, {"time": 367, "pitch": 62, "duration": 10, "velocity": 96}, {"time": 370, "pitch": 43, "duration": 22, "velocity": 86}, {"time": 373, "pitch": 50, "duration": 21, "velocity": 55}, {"time": 376, "pitch": 55, "duration": 7, "velocity": 90}, {"time": 379, "pitch": 62, "duration": 7, "velocity": 75}, {"time": 382, "pitch": 71, "duration": 8, "velocity": 127}, {"time": 385, "pitch": 55, "duration": 2, "velocity": 102}, {"time": 388, "pitch": 67, "duration": 3, "velocity": 112}, {"time": 391, "pitch": 62, "duration": 17, "velocity": 88}, {"time": 394, "pitch": 43, "duration": 23, "velocity": 99}, {"time": 394, "pitch": 67, "duration": 11, "velocity": 102}, {"time": 394, "pitch": 71, "duration": 10, "velocity": 102}, {"time": 400, "pitch": 50, "duration": 19, "velocity": 58}, {"time": 403, "pitch": 55, "duration": 4, "velocity": 74}, {"time": 406, "pitch": 71, "duration": 11, "velocity": 117}, {"time": 409, "pitch": 55, "duration": 2, "velocity": 70}, {"time": 412, "pitch": 62, "duration": 6, "velocity": 77}, {"time": 415, "pitch": 67, "duration": 2, "velocity": 77}, {"time": 418, "pitch": 43, "duration": 21, "velocity": 79}, {"time": 418, "pitch": 62, "duration": 1, "velocity": 73}, {"time": 418, "pitch": 67, "duration": 10, "velocity": 83}, {"time": 418, "pitch": 71, "duration": 10, "velocity": 82}, {"time": 424, "pitch": 50, "duration": 7, "velocity": 53}, {"time": 430, "pitch": 55, "duration": 10, "velocity": 90}, {"time": 430, "pitch": 62, "duration": 7, "velocity": 83}, {"time": 430, "pitch": 67, "duration": 9, "velocity": 93}, {"time": 430, "pitch": 71, "duration": 9, "velocity": 97}, {"time": 436, "pitch": 50, "duration": 5, "velocity": 85}, {"time": 439, "pitch": 62, "duration": 2, "velocity": 55}, {"time": 442, "pitch": 43, "duration": 29, "velocity": 77}, {"time": 442, "pitch": 50, "duration": 28, "velocity": 78}, {"time": 442, "pitch": 55, "duration": 26, "velocity": 86}, {"time": 442, "pitch": 62, "duration": 29, "velocity": 77}, {"time": 442, "pitch": 67, "duration": 29, "velocity": 93}, {"time": 442, "pitch": 71, "duration": 29, "velocity": 92}, {"time": 490, "pitch": 36, "duration": 16, "velocity": 83}, {"time": 496, "pitch": 43, "duration": 10, "velocity": 43}, {"time": 502, "pitch": 48, "duration": 7, "velocity": 63}, {"time": 502, "pitch": 64, "duration": 11, "velocity": 95}, {"time": 508, "pitch": 55, "duration": 7, "velocity": 93}, {"time": 514, "pitch": 43, "duration": 14, "velocity": 67}, {"time": 520, "pitch": 50, "duration": 9, "velocity": 63}, {"time": 526, "pitch": 62, "duration": 12, "velocity": 107}, {"time": 532, "pitch": 59, "duration": 6, "velocity": 74}, {"time": 538, "pitch": 45, "duration": 14, "velocity": 72}, {"time": 544, "pitch": 52, "duration": 7, "velocity": 50}, {"time": 550, "pitch": 64, "duration": 11, "velocity": 100}, {"time": 556, "pitch": 60, "duration": 5, "velocity": 86}, {"time": 562, "pitch": 40, "duration": 19, "velocity": 59}, {"time": 568, "pitch": 47, "duration": 17, "velocity": 53}, {"time": 574, "pitch": 52, "duration": 4, "velocity": 52}, {"time": 574, "pitch": 67, "duration": 12, "velocity": 90}, {"time": 580, "pitch": 64, "duration": 6, "velocity": 54}, {"time": 586, "pitch": 41, "duration": 23, "velocity": 73}, {"time": 592, "pitch": 48, "duration": 9, "velocity": 43}, {"time": 598, "pitch": 53, "duration": 3, "velocity": 79}, {"time": 598, "pitch": 69, "duration": 10, "velocity": 89}, {"time": 604, "pitch": 60, "duration": 4, "velocity": 77}, {"time": 610, "pitch": 40, "duration": 6, "velocity": 78}, {"time": 616, "pitch": 64, "duration": 6, "velocity": 77}, {"time": 622, "pitch": 45, "duration": 8, "velocity": 72}, {"time": 622, "pitch": 69, "duration": 12, "velocity": 68}, {"time": 622, "pitch": 72, "duration": 12, "velocity": 66}, {"time": 634, "pitch": 41, "duration": 19, "velocity": 81}, {"time": 640, "pitch": 48, "duration": 15, "velocity": 50}, {"time": 646, "pitch": 53, "duration": 4, "velocity": 70}, {"time": 646, "pitch": 65, "duration": 8, "velocity": 89}, {"time": 652, "pitch": 60, "duration": 2, "velocity": 70}, {"time": 655, "pitch": 43, "duration": 20, "velocity": 73}, {"time": 655, "pitch": 67, "duration": 13, "velocity": 74}, {"time": 655, "pitch": 71, "duration": 12, "velocity": 85}, {"time": 664, "pitch": 50, "duration": 11, "velocity": 44}, {"time": 670, "pitch": 71, "duration": 11, "velocity": 86}, {"time": 673, "pitch": 55, "duration": 2, "velocity": 67}, {"time": 676, "pitch": 67, "duration": 6, "velocity": 85}, {"time": 679, "pitch": 62, "duration": 3, "velocity": 67}, {"time": 682, "pitch": 36, "duration": 15, "velocity": 66}, {"time": 688, "pitch": 43, "duration": 8, "velocity": 45}, {"time": 694, "pitch": 48, "duration": 6, "velocity": 51}, {"time": 694, "pitch": 64, "duration": 12, "velocity": 92}, {"time": 700, "pitch": 60, "duration": 6, "velocity": 71}, {"time": 706, "pitch": 43, "duration": 21, "velocity": 70}, {"time": 712, "pitch": 50, "duration": 16, "velocity": 47}, {"time": 718, "pitch": 55, "duration": 4, "velocity": 70}, {"time": 718, "pitch": 71, "duration": 10, "velocity": 99}, {"time": 724, "pitch": 67, "duration": 3, "velocity": 72}, {"time": 730, "pitch": 45, "duration": 17, "velocity": 100}, {"time": 736, "pitch": 52, "duration": 10, "velocity": 42}, {"time": 742, "pitch": 57, "duration": 3, "velocity": 72}, {"time": 742, "pitch": 69, "duration": 12, "velocity": 95}, {"time": 748, "pitch": 64, "duration": 7, "velocity": 89}, {"time": 754, "pitch": 40, "duration": 19, "velocity": 72}, {"time": 760, "pitch": 47, "duration": 18, "velocity": 59}, {"time": 766, "pitch": 52, "duration": 4, "velocity": 56}, {"time": 766, "pitch": 71, "duration": 11, "velocity": 100}, {"time": 769, "pitch": 67, "duration": 8, "velocity": 65}, {"time": 772, "pitch": 64, "duration": 5, "velocity": 77}, {"time": 778, "pitch": 41, "duration": 23, "velocity": 75}, {"time": 784, "pitch": 48, "duration": 9, "velocity": 50}, {"time": 790, "pitch": 53, "duration": 3, "velocity": 70}, {"time": 790, "pitch": 69, "duration": 7, "velocity": 97}, {"time": 796, "pitch": 65, "duration": 5, "velocity": 79}, {"time": 802, "pitch": 40, "duration": 6, "velocity": 78}, {"time": 802, "pitch": 64, "duration": 10, "velocity": 77}, {"time": 802, "pitch": 67, "duration": 7, "velocity": 86}, {"time": 802, "pitch": 71, "duration": 7, "velocity": 81}, {"time": 814, "pitch": 45, "duration": 7, "velocity": 79}, {"time": 814, "pitch": 69, "duration": 9, "velocity": 99}, {"time": 820, "pitch": 64, "duration": 5, "velocity": 74}, {"time": 826, "pitch": 41, "duration": 9, "velocity": 81}, {"time": 826, "pitch": 65, "duration": 10, "velocity": 78}, {"time": 826, "pitch": 69, "duration": 6, "velocity": 75}, {"time": 838, "pitch": 43, "duration": 4, "velocity": 97}, {"time": 838, "pitch": 62, "duration": 9, "velocity": 95}, {"time": 838, "pitch": 67, "duration": 7, "velocity": 97}, {"time": 838, "pitch": 71, "duration": 6, "velocity": 99}, {"time": 850, "pitch": 36, "duration": 21, "velocity": 93}, {"time": 853, "pitch": 43, "duration": 20, "velocity": 78}, {"time": 856, "pitch": 48, "duration": 6, "velocity": 89}, {"time": 859, "pitch": 60, "duration": 3, "velocity": 71}, {"time": 862, "pitch": 67, "duration": 9, "velocity": 127}, {"time": 865, "pitch": 48, "duration": 2, "velocity": 97}, {"time": 868, "pitch": 60, "duration": 1, "velocity": 72}, {"time": 868, "pitch": 62, "duration": 3, "velocity": 88}, {"time": 871, "pitch": 64, "duration": 3, "velocity": 97}, {"time": 874, "pitch": 36, "duration": 18, "velocity": 90}, {"time": 877, "pitch": 43, "duration": 16, "velocity": 79}, {"time": 880, "pitch": 48, "duration": 7, "velocity": 88}, {"time": 883, "pitch": 60, "duration": 4, "velocity": 76}, {"time": 886, "pitch": 67, "duration": 7, "velocity": 100}, {"time": 889, "pitch": 48, "duration": 5, "velocity": 86}, {"time": 892, "pitch": 64, "duration": 2, "velocity": 117}, {"time": 895, "pitch": 64, "duration": 3, "velocity": 82}, {"time": 898, "pitch": 43, "duration": 21, "velocity": 74}, {"time": 901, "pitch": 50, "duration": 10, "velocity": 72}, {"time": 904, "pitch": 55, "duration": 4, "velocity": 85}, {"time": 907, "pitch": 62, "duration": 4, "velocity": 93}, {"time": 910, "pitch": 71, "duration": 10, "velocity": 127}, {"time": 913, "pitch": 50, "duration": 7, "velocity": 72}, {"time": 916, "pitch": 67, "duration": 4, "velocity": 117}, {"time": 919, "pitch": 62, "duration": 3, "velocity": 107}, {"time": 922, "pitch": 41, "duration": 22, "velocity": 70}, {"time": 925, "pitch": 48, "duration": 21, "velocity": 75}, {"time": 928, "pitch": 53, "duration": 6, "velocity": 75}, {"time": 931, "pitch": 60, "duration": 5, "velocity": 76}, {"time": 934, "pitch": 69, "duration": 10, "velocity": 122}, {"time": 937, "pitch": 53, "duration": 1, "velocity": 83}, {"time": 940, "pitch": 60, "duration": 4, "velocity": 96}, {"time": 943, "pitch": 65, "duration": 2, "velocity": 102}, {"time": 946, "pitch": 43, "duration": 17, "velocity": 73}, {"time": 949, "pitch": 50, "duration": 10, "velocity": 86}, {"time": 952, "pitch": 55, "duration": 4, "velocity": 93}, {"time": 955, "pitch": 62, "duration": 4, "velocity": 99}, {"time": 958, "pitch": 71, "duration": 10, "velocity": 127}, {"time": 961, "pitch": 50, "duration": 2, "velocity": 96}, {"time": 964, "pitch": 67, "duration": 4, "velocity": 122}, {"time": 967, "pitch": 62, "duration": 3, "velocity": 112}, {"time": 970, "pitch": 36, "duration": 16, "velocity": 88}, {"time": 973, "pitch": 43, "duration": 13, "velocity": 72}, {"time": 976, "pitch": 48, "duration": 7, "velocity": 79}, {"time": 979, "pitch": 60, "duration": 4, "velocity": 93}, {"time": 982, "pitch": 67, "duration": 11, "velocity": 117}, {"time": 985, "pitch": 48, "duration": 3, "velocity": 95}, {"time": 988, "pitch": 64, "duration": 5, "velocity": 122}, {"time": 991, "pitch": 60, "duration": 3, "velocity": 97}, {"time": 994, "pitch": 43, "duration": 22, "velocity": 86}, {"time": 997, "pitch": 50, "duration": 10, "velocity": 78}, {"time": 1000, "pitch": 55, "duration": 4, "velocity": 90}, {"time": 1003, "pitch": 62, "duration": 2, "velocity": 107}, {"time": 1006, "pitch": 71, "duration": 10, "velocity": 127}, {"time": 1009, "pitch": 50, "duration": 2, "velocity": 82}, {"time": 1012, "pitch": 67, "duration": 4, "velocity": 122}, {"time": 1015, "pitch": 62, "duration": 2, "velocity": 100}, {"time": 1018, "pitch": 38, "duration": 22, "velocity": 97}, {"time": 1024, "pitch": 45, "duration": 18, "velocity": 51}, {"time": 1030, "pitch": 69, "duration": 9, "velocity": 127}, {"time": 1033, "pitch": 50, "duration": 4, "velocity": 45}, {"time": 1036, "pitch": 62, "duration": 3, "velocity": 92}, {"time": 1039, "pitch": 65, "duration": 2, "velocity": 83}, {"time": 1042, "pitch": 40, "duration": 9, "velocity": 96}, {"time": 1042, "pitch": 64, "duration": 8, "velocity": 97}, {"time": 1042, "pitch": 67, "duration": 9, "velocity": 112}, {"time": 1042, "pitch": 71, "duration": 8, "velocity": 107}, {"time": 1054, "pitch": 41, "duration": 4, "velocity": 85}, {"time": 1054, "pitch": 60, "duration": 6, "velocity": 96}, {"time": 1054, "pitch": 65, "duration": 7, "velocity": 95}, {"time": 1054, "pitch": 69, "duration": 5, "velocity": 95}, {"time": 1063, "pitch": 43, "duration": 14, "velocity": 96}, {"time": 1063, "pitch": 62, "duration": 14, "velocity": 99}, {"time": 1063, "pitch": 67, "duration": 14, "velocity": 100}, {"time": 1063, "pitch": 71, "duration": 14, "velocity": 97}, {"time": 1078, "pitch": 41, "duration": 5, "velocity": 102}, {"time": 1078, "pitch": 65, "duration": 4, "velocity": 93}, {"time": 1078, "pitch": 69, "duration": 5, "velocity": 99}, {"time": 1078, "pitch": 72, "duration": 4, "velocity": 96}, {"time": 1084, "pitch": 43, "duration": 4, "velocity": 107}, {"time": 1084, "pitch": 67, "duration": 3, "velocity": 97}, {"time": 1084, "pitch": 71, "duration": 3, "velocity": 102}, {"time": 1084, "pitch": 74, "duration": 3, "velocity": 102}, {"time": 1090, "pitch": 36, "duration": 15, "velocity": 90}, {"time": 1093, "pitch": 43, "duration": 12, "velocity": 79}, {"time": 1096, "pitch": 48, "duration": 6, "velocity": 97}, {"time": 1099, "pitch": 60, "duration": 4, "velocity": 96}, {"time": 1102, "pitch": 67, "duration": 10, "velocity": 127}, {"time": 1105, "pitch": 48, "duration": 2, "velocity": 86}, {"time": 1108, "pitch": 64, "duration": 5, "velocity": 112}, {"time": 1111, "pitch": 60, "duration": 3, "velocity": 99}, {"time": 1114, "pitch": 43, "duration": 18, "velocity": 90}, {"time": 1117, "pitch": 50, "duration": 10, "velocity": 74}, {"time": 1120, "pitch": 55, "duration": 3, "velocity": 95}, {"time": 1123, "pitch": 62, "duration": 4, "velocity": 100}, {"time": 1126, "pitch": 71, "duration": 10, "velocity": 127}, {"time": 1129, "pitch": 50, "duration": 2, "velocity": 107}, {"time": 1132, "pitch": 67, "duration": 5, "velocity": 127}, {"time": 1135, "pitch": 62, "duration": 3, "velocity": 117}, {"time": 1138, "pitch": 41, "duration": 16, "velocity": 86}, {"time": 1141, "pitch": 48, "duration": 12, "velocity": 88}, {"time": 1144, "pitch": 53, "duration": 6, "velocity": 93}, {"time": 1147, "pitch": 60, "duration": 3, "velocity": 97}, {"time": 1150, "pitch": 69, "duration": 9, "velocity": 122}, {"time": 1153, "pitch": 53, "duration": 2, "velocity": 89}, {"time": 1156, "pitch": 65, "duration": 4, "velocity": 107}, {"time": 1159, "pitch": 60, "duration": 4, "velocity": 100}, {"time": 1162, "pitch": 48, "duration": 11, "velocity": 100}, {"time": 1165, "pitch": 60, "duration": 4, "velocity": 96}, {"time": 1168, "pitch": 67, "duration": 4, "velocity": 117}, {"time": 1171, "pitch": 64, "duration": 3, "velocity": 102}, {"time": 1174, "pitch": 47, "duration": 11, "velocity": 97}, {"time": 1177, "pitch": 60, "duration": 4, "velocity": 95}, {"time": 1180, "pitch": 67, "duration": 3, "velocity": 102}, {"time": 1183, "pitch": 64, "duration": 3, "velocity": 72}, {"time": 1186, "pitch": 45, "duration": 17, "velocity": 92}, {"time": 1189, "pitch": 52, "duration": 10, "velocity": 74}, {"time": 1192, "pitch": 57, "duration": 2, "velocity": 99}, {"time": 1195, "pitch": 60, "duration": 2, "velocity": 112}, {"time": 1198, "pitch": 64, "duration": 11, "velocity": 112}, {"time": 1201, "pitch": 52, "duration": 2, "velocity": 95}, {"time": 1204, "pitch": 60, "duration": 5, "velocity": 107}, {"time": 1207, "pitch": 55, "duration": 1, "velocity": 70}, {"time": 1207, "pitch": 57, "duration": 2, "velocity": 83}, {"time": 1210, "pitch": 40, "duration": 22, "velocity": 86}, {"time": 1213, "pitch": 47, "duration": 21, "velocity": 74}, {"time": 1216, "pitch": 52, "duration": 6, "velocity": 90}, {"time": 1219, "pitch": 59, "duration": 4, "velocity": 99}, {"time": 1222, "pitch": 67, "duration": 9, "velocity": 122}, {"time": 1225, "pitch": 52, "duration": 2, "velocity": 107}, {"time": 1228, "pitch": 64, "duration": 5, "velocity": 112}, {"time": 1231, "pitch": 59, "duration": 3, "velocity": 100}, {"time": 1234, "pitch": 41, "duration": 22, "velocity": 90}, {"time": 1237, "pitch": 48, "duration": 21, "velocity": 88}, {"time": 1240, "pitch": 53, "duration": 6, "velocity": 97}, {"time": 1243, "pitch": 60, "duration": 4, "velocity": 97}, {"time": 1246, "pitch": 69, "duration": 11, "velocity": 122}, {"time": 1249, "pitch": 53, "duration": 2, "velocity": 88}, {"time": 1252, "pitch": 60, "duration": 5, "velocity": 95}, {"time": 1255, "pitch": 65, "duration": 3, "velocity": 122}, {"time": 1258, "pitch": 43, "duration": 18, "velocity": 92}, {"time": 1261, "pitch": 50, "duration": 13, "velocity": 90}, {"time": 1264, "pitch": 55, "duration": 7, "velocity": 96}, {"time": 1267, "pitch": 62, "duration": 4, "velocity": 100}, {"time": 1270, "pitch": 71, "duration": 7, "velocity": 127}, {"time": 1273, "pitch": 55, "duration": 1, "velocity": 95}, {"time": 1273, "pitch": 67, "duration": 3, "velocity": 99}, {"time": 1276, "pitch": 62, "duration": 3, "velocity": 112}, {"time": 1279, "pitch": 64, "duration": 3, "velocity": 92}, {"time": 1282, "pitch": 36, "duration": 15, "velocity": 95}, {"time": 1285, "pitch": 43, "duration": 13, "velocity": 79}, {"time": 1288, "pitch": 48, "duration": 6, "velocity": 92}, {"time": 1291, "pitch": 60, "duration": 4, "velocity": 96}, {"time": 1294, "pitch": 67, "duration": 11, "velocity": 122}, {"time": 1297, "pitch": 48, "duration": 2, "velocity": 95}, {"time": 1300, "pitch": 60, "duration": 1, "velocity": 38}, {"time": 1300, "pitch": 64, "duration": 5, "velocity": 112}, {"time": 1303, "pitch": 60, "duration": 3, "velocity": 99}, {"time": 1306, "pitch": 43, "duration": 22, "velocity": 90}, {"time": 1309, "pitch": 50, "duration": 18, "velocity": 72}, {"time": 1312, "pitch": 55, "duration": 7, "velocity": 99}, {"time": 1315, "pitch": 62, "duration": 6, "velocity": 97}, {"time": 1318, "pitch": 71, "duration": 8, "velocity": 127}, {"time": 1321, "pitch": 55, "duration": 2, "velocity": 100}, {"time": 1324, "pitch": 67, "duration": 5, "velocity": 96}, {"time": 1327, "pitch": 62, "duration": 3, "velocity": 100}, {"time": 1330, "pitch": 41, "duration": 17, "velocity": 96}, {"time": 1333, "pitch": 48, "duration": 14, "velocity": 88}, {"time": 1336, "pitch": 53, "duration": 6, "velocity": 88}, {"time": 1339, "pitch": 60, "duration": 2, "velocity": 95}, {"time": 1342, "pitch": 69, "duration": 10, "velocity": 127}, {"time": 1345, "pitch": 53, "duration": 2, "velocity": 95}, {"time": 1348, "pitch": 65, "duration": 4, "velocity": 107}, {"time": 1351, "pitch": 60, "duration": 4, "velocity": 102}, {"time": 1354, "pitch": 48, "duration": 12, "velocity": 93}, {"time": 1357, "pitch": 60, "duration": 4, "velocity": 83}, {"time": 1360, "pitch": 67, "duration": 6, "velocity": 107}, {"time": 1363, "pitch": 60, "duration": 3, "velocity": 93}, {"time": 1366, "pitch": 47, "duration": 10, "velocity": 97}, {"time": 1369, "pitch": 59, "duration": 4, "velocity": 78}, {"time": 1372, "pitch": 60, "duration": 3, "velocity": 97}, {"time": 1375, "pitch": 64, "duration": 2, "velocity": 99}, {"time": 1378, "pitch": 45, "duration": 17, "velocity": 67}, {"time": 1381, "pitch": 52, "duration": 10, "velocity": 83}, {"time": 1384, "pitch": 57, "duration": 4, "velocity": 93}, {"time": 1387, "pitch": 64, "duration": 4, "velocity": 96}, {"time": 1390, "pitch": 72, "duration": 12, "velocity": 127}, {"time": 1393, "pitch": 52, "duration": 1, "velocity": 88}, {"time": 1396, "pitch": 69, "duration": 5, "velocity": 86}, {"time": 1399, "pitch": 64, "duration": 3, "velocity": 100}, {"time": 1402, "pitch": 40, "duration": 22, "velocity": 70}, {"time": 1405, "pitch": 47, "duration": 20, "velocity": 61}, {"time": 1408, "pitch": 52, "duration": 7, "velocity": 59}, {"time": 1411, "pitch": 59, "duration": 4, "velocity": 86}, {"time": 1414, "pitch": 67, "duration": 10, "velocity": 107}, {"time": 1417, "pitch": 52, "duration": 2, "velocity": 82}, {"time": 1420, "pitch": 64, "duration": 4, "velocity": 93}, {"time": 1423, "pitch": 59, "duration": 1, "velocity": 89}, {"time": 1426, "pitch": 41, "duration": 15, "velocity": 88}, {"time": 1429, "pitch": 48, "duration": 15, "velocity": 93}, {"time": 1432, "pitch": 53, "duration": 7, "velocity": 97}, {"time": 1435, "pitch": 60, "duration": 6, "velocity": 86}, {"time": 1438, "pitch": 69, "duration": 4, "velocity": 117}, {"time": 1441, "pitch": 65, "duration": 1, "velocity": 47}, {"time": 1444, "pitch": 43, "duration": 23, "velocity": 78}, {"time": 1444, "pitch": 62, "duration": 16, "velocity": 93}, {"time": 1444, "pitch": 67, "duration": 16, "velocity": 93}, {"time": 1444, "pitch": 71, "duration": 16, "velocity": 97}, {"time": 1456, "pitch": 50, "duration": 7, "velocity": 49}, {"time": 1462, "pitch": 67, "duration": 11, "velocity": 117}, {"time": 1465, "pitch": 50, "duration": 1, "velocity": 83}, {"time": 1468, "pitch": 62, "duration": 6, "velocity": 83}, {"time": 1474, "pitch": 36, "duration": 22, "velocity": 74}, {"time": 1477, "pitch": 43, "duration": 22, "velocity": 48}, {"time": 1480, "pitch": 48, "duration": 7, "velocity": 77}, {"time": 1483, "pitch": 60, "duration": 4, "velocity": 85}, {"time": 1486, "pitch": 67, "duration": 37, "velocity": 112}, {"time": 1489, "pitch": 48, "duration": 26, "velocity": 68}, {"time": 1492, "pitch": 64, "duration": 31, "velocity": 59}, {"time": 1495, "pitch": 60, "duration": 28, "velocity": 68}, {"time": 1498, "pitch": 36, "duration": 19, "velocity": 68}, {"time": 1522, "pitch": 36, "duration": 12, "velocity": 79}, {"time": 1525, "pitch": 43, "duration": 9, "velocity": 34}, {"time": 1528, "pitch": 48, "duration": 5, "velocity": 62}, {"time": 1531, "pitch": 60, "duration": 3, "velocity": 55}, {"time": 1534, "pitch": 64, "duration": 11, "velocity": 73}, {"time": 1534, "pitch": 67, "duration": 11, "velocity": 86}, {"time": 1540, "pitch": 60, "duration": 7, "velocity": 66}, {"time": 1546, "pitch": 43, "duration": 16, "velocity": 73}, {"time": 1552, "pitch": 50, "duration": 8, "velocity": 48}, {"time": 1558, "pitch": 55, "duration": 3, "velocity": 77}, {"time": 1558, "pitch": 71, "duration": 12, "velocity": 97}, {"time": 1564, "pitch": 67, "duration": 5, "velocity": 63}, {"time": 1570, "pitch": 41, "duration": 22, "velocity": 72}, {"time": 1576, "pitch": 48, "duration": 17, "velocity": 36}, {"time": 1582, "pitch": 53, "duration": 3, "velocity": 72}, {"time": 1582, "pitch": 69, "duration": 11, "velocity": 89}, {"time": 1588, "pitch": 60, "duration": 6, "velocity": 66}, {"time": 1594, "pitch": 43, "duration": 22, "velocity": 75}, {"time": 1600, "pitch": 50, "duration": 17, "velocity": 67}, {"time": 1603, "pitch": 55, "duration": 4, "velocity": 96}, {"time": 1606, "pitch": 62, "duration": 4, "velocity": 117}, {"time": 1606, "pitch": 67, "duration": 4, "velocity": 117}, {"time": 1606, "pitch": 71, "duration": 4, "velocity": 117}, {"time": 1609, "pitch": 55, "duration": 2, "velocity": 122}, {"time": 1612, "pitch": 67, "duration": 5, "velocity": 127}, {"time": 1612, "pitch": 71, "duration": 5, "velocity": 127}, {"time": 1615, "pitch": 62, "duration": 2, "velocity": 102}, {"time": 1618, "pitch": 36, "duration": 17, "velocity": 96}, {"time": 1621, "pitch": 43, "duration": 14, "velocity": 85}, {"time": 1624, "pitch": 48, "duration": 10, "velocity": 93}, {"time": 1627, "pitch": 60, "duration": 2, "velocity": 92}, {"time": 1630, "pitch": 67, "duration": 4, "velocity": 127}, {"time": 1633, "pitch": 64, "duration": 2, "velocity": 122}, {"time": 1636, "pitch": 36, "duration": 1, "velocity": 65}, {"time": 1636, "pitch": 43, "duration": 1, "velocity": 96}, {"time": 1636, "pitch": 48, "duration": 1, "velocity": 107}, {"time": 1636, "pitch": 60, "duration": 1, "velocity": 107}, {"time": 1636, "pitch": 64, "duration": 1, "velocity": 58}, {"time": 1636, "pitch": 67, "duration": 1, "velocity": 112}, {"time": 1639, "pitch": 36, "duration": 18, "velocity": 93}, {"time": 1639, "pitch": 43, "duration": 1, "velocity": 95}, {"time": 1639, "pitch": 48, "duration": 9, "velocity": 122}, {"time": 1639, "pitch": 60, "duration": 6, "velocity": 127}, {"time": 1639, "pitch": 64, "duration": 8, "velocity": 102}, {"time": 1639, "pitch": 67, "duration": 10, "velocity": 107}, {"time": 1645, "pitch": 43, "duration": 12, "velocity": 77}, {"time": 1648, "pitch": 60, "duration": 6, "velocity": 100}, {"time": 1651, "pitch": 48, "duration": 4, "velocity": 97}, {"time": 1654, "pitch": 67, "duration": 10, "velocity": 127}, {"time": 1657, "pitch": 48, "duration": 2, "velocity": 96}, {"time": 1660, "pitch": 64, "duration": 5, "velocity": 122}, {"time": 1663, "pitch": 45, "duration": 15, "velocity": 85}, {"time": 1663, "pitch": 60, "duration": 2, "velocity": 102}, {"time": 1666, "pitch": 52, "duration": 14, "velocity": 92}, {"time": 1672, "pitch": 57, "duration": 6, "velocity": 93}, {"time": 1675, "pitch": 64, "duration": 3, "velocity": 95}, {"time": 1678, "pitch": 64, "duration": 1, "velocity": 93}, {"time": 1678, "pitch": 72, "duration": 4, "velocity": 127}, {"time": 1684, "pitch": 45, "duration": 1, "velocity": 85}, {"time": 1684, "pitch": 64, "duration": 1, "velocity": 72}, {"time": 1684, "pitch": 69, "duration": 1, "velocity": 85}, {"time": 1684, "pitch": 72, "duration": 1, "velocity": 90}, {"time": 1687, "pitch": 45, "duration": 21, "velocity": 93}, {"time": 1687, "pitch": 64, "duration": 10, "velocity": 97}, {"time": 1687, "pitch": 69, "duration": 12, "velocity": 100}, {"time": 1687, "pitch": 72, "duration": 12, "velocity": 100}, {"time": 1696, "pitch": 52, "duration": 12, "velocity": 83}, {"time": 1699, "pitch": 57, "duration": 4, "velocity": 100}, {"time": 1702, "pitch": 72, "duration": 11, "velocity": 127}, {"time": 1705, "pitch": 57, "duration": 1, "velocity": 100}, {"time": 1708, "pitch": 69, "duration": 5, "velocity": 107}, {"time": 1711, "pitch": 64, "duration": 3, "velocity": 112}, {"time": 1714, "pitch": 41, "duration": 22, "velocity": 92}, {"time": 1717, "pitch": 48, "duration": 14, "velocity": 70}, {"time": 1720, "pitch": 53, "duration": 7, "velocity": 86}, {"time": 1723, "pitch": 60, "duration": 4, "velocity": 102}, {"time": 1729, "pitch": 53, "duration": 2, "velocity": 93}, {"time": 1732, "pitch": 60, "duration": 4, "velocity": 112}, {"time": 1738, "pitch": 40, "duration": 19, "velocity": 83}, {"time": 1741, "pitch": 47, "duration": 13, "velocity": 75}, {"time": 1744, "pitch": 52, "duration": 6, "velocity": 89}, {"time": 1747, "pitch": 64, "duration": 4, "velocity": 100}, {"time": 1750, "pitch": 71, "duration": 9, "velocity": 127}, {"time": 1753, "pitch": 52, "duration": 2, "velocity": 107}, {"time": 1756, "pitch": 67, "duration": 3, "velocity": 112}, {"time": 1759, "pitch": 64, "duration": 2, "velocity": 100}, {"time": 1762, "pitch": 38, "duration": 13, "velocity": 96}, {"time": 1768, "pitch": 45, "duration": 7, "velocity": 73}, {"time": 1768, "pitch": 62, "duration": 6, "velocity": 72}, {"time": 1774, "pitch": 50, "duration": 1, "velocity": 69}, {"time": 1780, "pitch": 40, "duration": 8, "velocity": 96}, {"time": 1780, "pitch": 64, "duration": 6, "velocity": 107}, {"time": 1780, "pitch": 67, "duration": 6, "velocity": 122}, {"time": 1780, "pitch": 71, "duration": 6, "velocity": 127}, {"time": 1792, "pitch": 41, "duration": 7, "velocity": 99}, {"time": 1792, "pitch": 60, "duration": 7, "velocity": 127}, {"time": 1792, "pitch": 65, "duration": 7, "velocity": 117}, {"time": 1792, "pitch": 69, "duration": 7, "velocity": 107}, {"time": 1801, "pitch": 43, "duration": 7, "velocity": 127}, {"time": 1801, "pitch": 62, "duration": 7, "velocity": 112}, {"time": 1801, "pitch": 67, "duration": 7, "velocity": 127}, {"time": 1801, "pitch": 71, "duration": 7, "velocity": 127}, {"time": 1810, "pitch": 60, "duration": 2, "velocity": 97}, {"time": 1810, "pitch": 65, "duration": 3, "velocity": 100}, {"time": 1810, "pitch": 69, "duration": 3, "velocity": 99}, {"time": 1810, "pitch": 41, "duration": 4, "velocity": 100}, {"time": 1814, "pitch": 62, "duration": 2, "velocity": 93}, {"time": 1814, "pitch": 67, "duration": 2, "velocity": 83}, {"time": 1814, "pitch": 71, "duration": 2, "velocity": 97}, {"time": 1814, "pitch": 43, "duration": 3, "velocity": 72}, {"time": 1818, "pitch": 45, "duration": 2, "velocity": 95}, {"time": 1818, "pitch": 69, "duration": 2, "velocity": 102}, {"time": 1818, "pitch": 72, "duration": 2, "velocity": 102}, {"time": 1822, "pitch": 45, "duration": 8, "velocity": 83}, {"time": 1822, "pitch": 45, "duration": 8, "velocity": 100}, {"time": 1825, "pitch": 52, "duration": 10, "velocity": 64}, {"time": 1828, "pitch": 57, "duration": 6, "velocity": 93}, {"time": 1831, "pitch": 64, "duration": 2, "velocity": 82}, {"time": 1834, "pitch": 69, "duration": 7, "velocity": 99}, {"time": 1834, "pitch": 72, "duration": 7, "velocity": 107}, {"time": 1837, "pitch": 52, "duration": 8, "velocity": 92}, {"time": 1840, "pitch": 64, "duration": 6, "velocity": 75}, {"time": 1843, "pitch": 69, "duration": 6, "velocity": 82}, {"time": 1843, "pitch": 72, "duration": 6, "velocity": 88}, {"time": 1846, "pitch": 45, "duration": 8, "velocity": 92}, {"time": 1849, "pitch": 64, "duration": 3, "velocity": 88}, {"time": 1852, "pitch": 69, "duration": 2, "velocity": 95}, {"time": 1852, "pitch": 72, "duration": 2, "velocity": 100}, {"time": 1856, "pitch": 41, "duration": 4, "velocity": 99}, {"time": 1858, "pitch": 60, "duration": 3, "velocity": 122}, {"time": 1858, "pitch": 65, "duration": 3, "velocity": 112}, {"time": 1858, "pitch": 69, "duration": 3, "velocity": 112}, {"time": 1861, "pitch": 43, "duration": 3, "velocity": 102}, {"time": 1862, "pitch": 62, "duration": 2, "velocity": 97}, {"time": 1862, "pitch": 67, "duration": 3, "velocity": 102}, {"time": 1862, "pitch": 71, "duration": 2, "velocity": 102}, {"time": 1865, "pitch": 45, "duration": 4, "velocity": 102}, {"time": 1866, "pitch": 64, "duration": 3, "velocity": 99}, {"time": 1866, "pitch": 69, "duration": 3, "velocity": 112}, {"time": 1866, "pitch": 72, "duration": 3, "velocity": 117}, {"time": 1870, "pitch": 45, "duration": 4, "velocity": 77}, {"time": 1870, "pitch": 52, "duration": 3, "velocity": 88}, {"time": 1870, "pitch": 57, "duration": 3, "velocity": 93}, {"time": 1870, "pitch": 64, "duration": 6, "velocity": 102}, {"time": 1870, "pitch": 69, "duration": 5, "velocity": 100}, {"time": 1870, "pitch": 72, "duration": 5, "velocity": 102}, {"time": 1882, "pitch": 38, "duration": 16, "velocity": 74}, {"time": 1882, "pitch": 45, "duration": 16, "velocity": 90}, {"time": 1882, "pitch": 50, "duration": 13, "velocity": 93}, {"time": 1882, "pitch": 62, "duration": 11, "velocity": 102}, {"time": 1882, "pitch": 66, "duration": 11, "velocity": 127}, {"time": 1882, "pitch": 69, "duration": 10, "velocity": 102}, {"time": 1894, "pitch": 66, "duration": 6, "velocity": 127}, {"time": 1894, "pitch": 69, "duration": 9, "velocity": 112}, {"time": 1897, "pitch": 50, "duration": 2, "velocity": 86}, {"time": 1900, "pitch": 62, "duration": 4, "velocity": 112}, {"time": 1903, "pitch": 66, "duration": 1, "velocity": 100}, {"time": 1906, "pitch": 43, "duration": 16, "velocity": 90}, {"time": 1906, "pitch": 62, "duration": 12, "velocity": 107}, {"time": 1906, "pitch": 67, "duration": 12, "velocity": 112}, {"time": 1906, "pitch": 71, "duration": 12, "velocity": 100}, {"time": 1912, "pitch": 50, "duration": 10, "velocity": 42}, {"time": 1918, "pitch": 55, "duration": 4, "velocity": 112}, {"time": 1924, "pitch": 43, "duration": 26, "velocity": 75}, {"time": 1924, "pitch": 50, "duration": 1, "velocity": 48}, {"time": 1924, "pitch": 55, "duration": 18, "velocity": 97}, {"time": 1924, "pitch": 62, "duration": 16, "velocity": 107}, {"time": 1924, "pitch": 67, "duration": 16, "velocity": 100}, {"time": 1924, "pitch": 71, "duration": 15, "velocity": 96}, {"time": 1936, "pitch": 50, "duration": 18, "velocity": 43}, {"time": 1942, "pitch": 71, "duration": 6, "velocity": 117}, {"time": 1945, "pitch": 55, "duration": 2, "velocity": 86}, {"time": 1948, "pitch": 69, "duration": 5, "velocity": 107}, {"time": 1954, "pitch": 43, "duration": 16, "velocity": 86}, {"time": 1954, "pitch": 62, "duration": 12, "velocity": 102}, {"time": 1954, "pitch": 67, "duration": 10, "velocity": 97}, {"time": 1954, "pitch": 71, "duration": 10, "velocity": 95}, {"time": 1960, "pitch": 50, "duration": 9, "velocity": 61}, {"time": 1966, "pitch": 71, "duration": 4, "velocity": 95}, {"time": 1972, "pitch": 43, "duration": 3, "velocity": 59}, {"time": 1972, "pitch": 50, "duration": 4, "velocity": 56}, {"time": 1972, "pitch": 55, "duration": 3, "velocity": 75}, {"time": 1972, "pitch": 62, "duration": 4, "velocity": 99}, {"time": 1972, "pitch": 67, "duration": 4, "velocity": 99}, {"time": 1972, "pitch": 71, "duration": 4, "velocity": 96}, {"time": 1978, "pitch": 43, "duration": 22, "velocity": 61}, {"time": 1978, "pitch": 50, "duration": 22, "velocity": 68}, {"time": 1978, "pitch": 55, "duration": 22, "velocity": 75}, {"time": 1978, "pitch": 62, "duration": 10, "velocity": 100}, {"time": 1978, "pitch": 67, "duration": 10, "velocity": 99}, {"time": 1978, "pitch": 71, "duration": 10, "velocity": 92}, {"time": 1990, "pitch": 62, "duration": 1, "velocity": 53}, {"time": 1990, "pitch": 67, "duration": 7, "velocity": 112}, {"time": 1990, "pitch": 71, "duration": 10, "velocity": 102}, {"time": 1996, "pitch": 62, "duration": 4, "velocity": 97}, {"time": 1999, "pitch": 67, "duration": 2, "velocity": 48}, {"time": 2002, "pitch": 43, "duration": 42, "velocity": 76}, {"time": 2002, "pitch": 50, "duration": 41, "velocity": 93}, {"time": 2002, "pitch": 55, "duration": 40, "velocity": 96}, {"time": 2002, "pitch": 62, "duration": 40, "velocity": 107}, {"time": 2002, "pitch": 67, "duration": 40, "velocity": 102}, {"time": 2002, "pitch": 71, "duration": 41, "velocity": 102}, {"time": 2050, "pitch": 36, "duration": 16, "velocity": 53}, {"time": 2056, "pitch": 43, "duration": 10, "velocity": 53}, {"time": 2062, "pitch": 48, "duration": 3, "velocity": 59}, {"time": 2062, "pitch": 55, "duration": 3, "velocity": 59}, {"time": 2062, "pitch": 60, "duration": 3, "velocity": 59}, {"time": 2062, "pitch": 64, "duration": 11, "velocity": 59}, {"time": 2068, "pitch": 48, "duration": 7, "velocity": 57}, {"time": 2074, "pitch": 43, "duration": 14, "velocity": 67}, {"time": 2080, "pitch": 50, "duration": 9, "velocity": 66}, {"time": 2086, "pitch": 55, "duration": 3, "velocity": 64}, {"time": 2086, "pitch": 59, "duration": 6, "velocity": 64}, {"time": 2086, "pitch": 62, "duration": 12, "velocity": 63}, {"time": 2092, "pitch": 43, "duration": 6, "velocity": 74}, {"time": 2098, "pitch": 45, "duration": 14, "velocity": 72}, {"time": 2104, "pitch": 52, "duration": 7, "velocity": 50}, {"time": 2110, "pitch": 57, "duration": 9, "velocity": 63}, {"time": 2110, "pitch": 60, "duration": 12, "velocity": 63}, {"time": 2110, "pitch": 64, "duration": 11, "velocity": 63}, {"time": 2116, "pitch": 45, "duration": 3, "velocity": 60}, {"time": 2122, "pitch": 40, "duration": 19, "velocity": 62}, {"time": 2128, "pitch": 47, "duration": 17, "velocity": 63}, {"time": 2134, "pitch": 52, "duration": 4, "velocity": 63}, {"time": 2134, "pitch": 59, "duration": 6, "velocity": 63}, {"time": 2134, "pitch": 64, "duration": 6, "velocity": 63}, {"time": 2134, "pitch": 67, "duration": 12, "velocity": 63}, {"time": 2140, "pitch": 52, "duration": 6, "velocity": 66}, {"time": 2146, "pitch": 41, "duration": 23, "velocity": 73}, {"time": 2152, "pitch": 48, "duration": 9, "velocity": 67}, {"time": 2158, "pitch": 53, "duration": 3, "velocity": 69}, {"time": 2158, "pitch": 60, "duration": 3, "velocity": 69}, {"time": 2158, "pitch": 65, "duration": 6, "velocity": 69}, {"time": 2158, "pitch": 69, "duration": 10, "velocity": 69}, {"time": 2164, "pitch": 53, "duration": 4, "velocity": 77}, {"time": 2170, "pitch": 40, "duration": 6, "velocity": 78}, {"time": 2176, "pitch": 64, "duration": 3, "velocity": 76}, {"time": 2182, "pitch": 45, "duration": 6, "velocity": 76}, {"time": 2182, "pitch": 64, "duration": 6, "velocity": 76}, {"time": 2182, "pitch": 69, "duration": 12, "velocity": 76}, {"time": 2182, "pitch": 72, "duration": 12, "velocity": 76}, {"time": 2188, "pitch": 57, "duration": 3, "velocity": 76}, {"time": 2194, "pitch": 41, "duration": 15, "velocity": 81}, {"time": 2200, "pitch": 48, "duration": 15, "velocity": 73}, {"time": 2206, "pitch": 53, "duration": 4, "velocity": 75}, {"time": 2206, "pitch": 60, "duration": 6, "velocity": 73}, {"time": 2206, "pitch": 65, "duration": 8, "velocity": 75}, {"time": 2212, "pitch": 41, "duration": 2, "velocity": 75}, {"time": 2218, "pitch": 43, "duration": 17, "velocity": 75}, {"time": 2218, "pitch": 55, "duration": 6, "velocity": 75}, {"time": 2218, "pitch": 67, "duration": 10, "velocity": 75}, {"time": 2218, "pitch": 71, "duration": 9, "velocity": 75}, {"time": 2224, "pitch": 50, "duration": 11, "velocity": 75}, {"time": 2230, "pitch": 55, "duration": 3, "velocity": 75}, {"time": 2230, "pitch": 67, "duration": 6, "velocity": 75}, {"time": 2230, "pitch": 71, "duration": 11, "velocity": 75}, {"time": 2236, "pitch": 55, "duration": 2, "velocity": 75}, {"time": 2236, "pitch": 67, "duration": 6, "velocity": 75}, {"time": 2239, "pitch": 62, "duration": 3, "velocity": 67}, {"time": 2242, "pitch": 36, "duration": 15, "velocity": 66}, {"time": 2248, "pitch": 43, "duration": 8, "velocity": 66}, {"time": 2254, "pitch": 48, "duration": 6, "velocity": 66}, {"time": 2254, "pitch": 55, "duration": 6, "velocity": 66}, {"time": 2254, "pitch": 60, "duration": 3, "velocity": 66}, {"time": 2254, "pitch": 64, "duration": 12, "velocity": 66}, {"time": 2260, "pitch": 48, "duration": 1, "velocity": 71}, {"time": 2266, "pitch": 43, "duration": 21, "velocity": 70}, {"time": 2272, "pitch": 50, "duration": 16, "velocity": 47}, {"time": 2278, "pitch": 55, "duration": 4, "velocity": 66}, {"time": 2278, "pitch": 62, "duration": 3, "velocity": 67}, {"time": 2278, "pitch": 67, "duration": 3, "velocity": 67}, {"time": 2278, "pitch": 71, "duration": 10, "velocity": 66}, {"time": 2284, "pitch": 55, "duration": 3, "velocity": 66}, {"time": 2290, "pitch": 45, "duration": 17, "velocity": 66}, {"time": 2296, "pitch": 52, "duration": 10, "velocity": 70}, {"time": 2302, "pitch": 57, "duration": 3, "velocity": 72}, {"time": 2302, "pitch": 64, "duration": 6, "velocity": 70}, {"time": 2302, "pitch": 69, "duration": 12, "velocity": 72}, {"time": 2308, "pitch": 57, "duration": 7, "velocity": 69}, {"time": 2314, "pitch": 40, "duration": 19, "velocity": 72}, {"time": 2320, "pitch": 47, "duration": 18, "velocity": 72}, {"time": 2326, "pitch": 52, "duration": 4, "velocity": 72}, {"time": 2326, "pitch": 59, "duration": 6, "velocity": 72}, {"time": 2326, "pitch": 64, "duration": 3, "velocity": 72}, {"time": 2326, "pitch": 67, "duration": 8, "velocity": 72}, {"time": 2326, "pitch": 71, "duration": 11, "velocity": 72}, {"time": 2332, "pitch": 52, "duration": 5, "velocity": 70}, {"time": 2338, "pitch": 41, "duration": 23, "velocity": 75}, {"time": 2344, "pitch": 48, "duration": 9, "velocity": 50}, {"time": 2350, "pitch": 53, "duration": 3, "velocity": 73}, {"time": 2350, "pitch": 60, "duration": 6, "velocity": 70}, {"time": 2350, "pitch": 65, "duration": 6, "velocity": 70}, {"time": 2350, "pitch": 69, "duration": 7, "velocity": 73}, {"time": 2356, "pitch": 53, "duration": 6, "velocity": 73}, {"time": 2356, "pitch": 65, "duration": 5, "velocity": 75}, {"time": 2362, "pitch": 40, "duration": 6, "velocity": 82}, {"time": 2362, "pitch": 64, "duration": 10, "velocity": 82}, {"time": 2362, "pitch": 67, "duration": 7, "velocity": 82}, {"time": 2362, "pitch": 71, "duration": 7, "velocity": 82}, {"time": 2374, "pitch": 45, "duration": 7, "velocity": 75}, {"time": 2374, "pitch": 60, "duration": 3, "velocity": 73}, {"time": 2374, "pitch": 64, "duration": 6, "velocity": 73}, {"time": 2374, "pitch": 69, "duration": 9, "velocity": 75}, {"time": 2380, "pitch": 57, "duration": 5, "velocity": 78}, {"time": 2386, "pitch": 41, "duration": 9, "velocity": 79}, {"time": 2386, "pitch": 65, "duration": 10, "velocity": 79}, {"time": 2386, "pitch": 69, "duration": 6, "velocity": 79}, {"time": 2398, "pitch": 43, "duration": 4, "velocity": 79}, {"time": 2398, "pitch": 62, "duration": 9, "velocity": 79}, {"time": 2398, "pitch": 67, "duration": 7, "velocity": 79}, {"time": 2398, "pitch": 71, "duration": 6, "velocity": 79}, {"time": 2410, "pitch": 36, "duration": 21, "velocity": 93}, {"time": 2413, "pitch": 43, "duration": 20, "velocity": 78}, {"time": 2416, "pitch": 48, "duration": 6, "velocity": 89}, {"time": 2419, "pitch": 60, "duration": 3, "velocity": 71}, {"time": 2422, "pitch": 67, "duration": 9, "velocity": 127}, {"time": 2425, "pitch": 48, "duration": 2, "velocity": 97}, {"time": 2428, "pitch": 62, "duration": 3, "velocity": 88}, {"time": 2431, "pitch": 64, "duration": 3, "velocity": 97}, {"time": 2434, "pitch": 36, "duration": 18, "velocity": 90}, {"time": 2437, "pitch": 43, "duration": 16, "velocity": 79}, {"time": 2440, "pitch": 48, "duration": 7, "velocity": 88}, {"time": 2443, "pitch": 60, "duration": 4, "velocity": 76}, {"time": 2446, "pitch": 67, "duration": 7, "velocity": 100}, {"time": 2449, "pitch": 48, "duration": 5, "velocity": 86}, {"time": 2452, "pitch": 64, "duration": 2, "velocity": 117}, {"time": 2455, "pitch": 64, "duration": 3, "velocity": 82}, {"time": 2458, "pitch": 43, "duration": 21, "velocity": 74}, {"time": 2461, "pitch": 50, "duration": 10, "velocity": 72}, {"time": 2464, "pitch": 55, "duration": 4, "velocity": 85}, {"time": 2467, "pitch": 62, "duration": 4, "velocity": 93}, {"time": 2470, "pitch": 71, "duration": 10, "velocity": 127}, {"time": 2473, "pitch": 50, "duration": 7, "velocity": 72}, {"time": 2476, "pitch": 67, "duration": 4, "velocity": 117}, {"time": 2479, "pitch": 62, "duration": 3, "velocity": 107}, {"time": 2482, "pitch": 41, "duration": 22, "velocity": 70}, {"time": 2485, "pitch": 48, "duration": 21, "velocity": 75}, {"time": 2488, "pitch": 53, "duration": 6, "velocity": 75}, {"time": 2491, "pitch": 60, "duration": 5, "velocity": 76}, {"time": 2494, "pitch": 69, "duration": 10, "velocity": 122}, {"time": 2497, "pitch": 53, "duration": 1, "velocity": 83}, {"time": 2500, "pitch": 60, "duration": 4, "velocity": 96}, {"time": 2503, "pitch": 65, "duration": 2, "velocity": 102}, {"time": 2506, "pitch": 43, "duration": 17, "velocity": 73}, {"time": 2509, "pitch": 50, "duration": 10, "velocity": 86}, {"time": 2512, "pitch": 55, "duration": 4, "velocity": 93}, {"time": 2515, "pitch": 62, "duration": 4, "velocity": 99}, {"time": 2518, "pitch": 71, "duration": 10, "velocity": 127}, {"time": 2521, "pitch": 50, "duration": 2, "velocity": 96}, {"time": 2524, "pitch": 67, "duration": 4, "velocity": 122}, {"time": 2527, "pitch": 62, "duration": 3, "velocity": 112}, {"time": 2530, "pitch": 36, "duration": 16, "velocity": 88}, {"time": 2533, "pitch": 43, "duration": 13, "velocity": 72}, {"time": 2536, "pitch": 48, "duration": 7, "velocity": 79}, {"time": 2539, "pitch": 60, "duration": 4, "velocity": 93}, {"time": 2542, "pitch": 67, "duration": 11, "velocity": 117}, {"time": 2545, "pitch": 48, "duration": 3, "velocity": 95}, {"time": 2548, "pitch": 64, "duration": 5, "velocity": 122}, {"time": 2551, "pitch": 60, "duration": 3, "velocity": 97}, {"time": 2554, "pitch": 43, "duration": 22, "velocity": 86}, {"time": 2557, "pitch": 50, "duration": 10, "velocity": 78}, {"time": 2560, "pitch": 55, "duration": 4, "velocity": 90}, {"time": 2563, "pitch": 62, "duration": 2, "velocity": 107}, {"time": 2566, "pitch": 71, "duration": 10, "velocity": 127}, {"time": 2569, "pitch": 50, "duration": 2, "velocity": 82}, {"time": 2572, "pitch": 67, "duration": 4, "velocity": 122}, {"time": 2575, "pitch": 62, "duration": 2, "velocity": 100}, {"time": 2578, "pitch": 38, "duration": 22, "velocity": 97}, {"time": 2584, "pitch": 45, "duration": 18, "velocity": 51}, {"time": 2590, "pitch": 69, "duration": 9, "velocity": 127}, {"time": 2593, "pitch": 50, "duration": 4, "velocity": 45}, {"time": 2596, "pitch": 62, "duration": 3, "velocity": 92}, {"time": 2599, "pitch": 65, "duration": 2, "velocity": 83}, {"time": 2602, "pitch": 40, "duration": 9, "velocity": 96}, {"time": 2602, "pitch": 64, "duration": 8, "velocity": 97}, {"time": 2602, "pitch": 67, "duration": 9, "velocity": 112}, {"time": 2602, "pitch": 71, "duration": 8, "velocity": 107}, {"time": 2614, "pitch": 41, "duration": 4, "velocity": 85}, {"time": 2614, "pitch": 60, "duration": 6, "velocity": 96}, {"time": 2614, "pitch": 65, "duration": 7, "velocity": 95}, {"time": 2614, "pitch": 69, "duration": 5, "velocity": 95}, {"time": 2623, "pitch": 43, "duration": 14, "velocity": 96}, {"time": 2623, "pitch": 62, "duration": 14, "velocity": 99}, {"time": 2623, "pitch": 67, "duration": 14, "velocity": 100}, {"time": 2623, "pitch": 71, "duration": 14, "velocity": 97}, {"time": 2638, "pitch": 41, "duration": 5, "velocity": 102}, {"time": 2638, "pitch": 65, "duration": 4, "velocity": 93}, {"time": 2638, "pitch": 69, "duration": 5, "velocity": 99}, {"time": 2638, "pitch": 72, "duration": 4, "velocity": 96}, {"time": 2644, "pitch": 43, "duration": 4, "velocity": 107}, {"time": 2644, "pitch": 67, "duration": 3, "velocity": 97}, {"time": 2644, "pitch": 71, "duration": 3, "velocity": 102}, {"time": 2644, "pitch": 74, "duration": 3, "velocity": 102}, {"time": 2650, "pitch": 36, "duration": 15, "velocity": 90}, {"time": 2653, "pitch": 43, "duration": 12, "velocity": 79}, {"time": 2656, "pitch": 48, "duration": 6, "velocity": 97}, {"time": 2659, "pitch": 60, "duration": 4, "velocity": 96}, {"time": 2662, "pitch": 67, "duration": 10, "velocity": 127}, {"time": 2665, "pitch": 48, "duration": 2, "velocity": 86}, {"time": 2668, "pitch": 64, "duration": 5, "velocity": 112}, {"time": 2671, "pitch": 60, "duration": 3, "velocity": 99}, {"time": 2674, "pitch": 43, "duration": 18, "velocity": 90}, {"time": 2677, "pitch": 50, "duration": 10, "velocity": 74}, {"time": 2680, "pitch": 55, "duration": 3, "velocity": 95}, {"time": 2683, "pitch": 62, "duration": 4, "velocity": 100}, {"time": 2686, "pitch": 71, "duration": 10, "velocity": 127}, {"time": 2689, "pitch": 50, "duration": 2, "velocity": 107}, {"time": 2692, "pitch": 67, "duration": 5, "velocity": 127}, {"time": 2695, "pitch": 62, "duration": 3, "velocity": 117}, {"time": 2698, "pitch": 41, "duration": 16, "velocity": 86}, {"time": 2701, "pitch": 48, "duration": 12, "velocity": 88}, {"time": 2704, "pitch": 53, "duration": 6, "velocity": 93}, {"time": 2707, "pitch": 60, "duration": 3, "velocity": 97}, {"time": 2710, "pitch": 69, "duration": 9, "velocity": 122}, {"time": 2713, "pitch": 53, "duration": 2, "velocity": 89}, {"time": 2716, "pitch": 65, "duration": 4, "velocity": 107}, {"time": 2719, "pitch": 60, "duration": 4, "velocity": 100}, {"time": 2722, "pitch": 48, "duration": 11, "velocity": 100}, {"time": 2725, "pitch": 60, "duration": 4, "velocity": 96}, {"time": 2728, "pitch": 67, "duration": 4, "velocity": 117}, {"time": 2731, "pitch": 64, "duration": 3, "velocity": 102}, {"time": 2734, "pitch": 47, "duration": 11, "velocity": 97}, {"time": 2737, "pitch": 60, "duration": 4, "velocity": 95}, {"time": 2740, "pitch": 67, "duration": 3, "velocity": 102}, {"time": 2743, "pitch": 64, "duration": 3, "velocity": 72}, {"time": 2746, "pitch": 45, "duration": 17, "velocity": 92}, {"time": 2749, "pitch": 52, "duration": 10, "velocity": 74}, {"time": 2752, "pitch": 57, "duration": 2, "velocity": 99}, {"time": 2755, "pitch": 60, "duration": 2, "velocity": 112}, {"time": 2758, "pitch": 64, "duration": 11, "velocity": 112}, {"time": 2761, "pitch": 52, "duration": 2, "velocity": 95}, {"time": 2764, "pitch": 60, "duration": 5, "velocity": 107}, {"time": 2767, "pitch": 55, "duration": 1, "velocity": 70}, {"time": 2767, "pitch": 57, "duration": 2, "velocity": 83}, {"time": 2770, "pitch": 40, "duration": 22, "velocity": 86}, {"time": 2773, "pitch": 47, "duration": 21, "velocity": 74}, {"time": 2776, "pitch": 52, "duration": 6, "velocity": 90}, {"time": 2779, "pitch": 59, "duration": 4, "velocity": 99}, {"time": 2782, "pitch": 67, "duration": 9, "velocity": 122}, {"time": 2785, "pitch": 52, "duration": 2, "velocity": 107}, {"time": 2788, "pitch": 64, "duration": 5, "velocity": 112}, {"time": 2791, "pitch": 59, "duration": 3, "velocity": 100}, {"time": 2794, "pitch": 41, "duration": 22, "velocity": 90}, {"time": 2797, "pitch": 48, "duration": 21, "velocity": 88}, {"time": 2800, "pitch": 53, "duration": 6, "velocity": 97}, {"time": 2803, "pitch": 60, "duration": 4, "velocity": 97}, {"time": 2806, "pitch": 69, "duration": 11, "velocity": 122}, {"time": 2809, "pitch": 53, "duration": 2, "velocity": 88}, {"time": 2812, "pitch": 60, "duration": 5, "velocity": 95}, {"time": 2815, "pitch": 65, "duration": 3, "velocity": 122}, {"time": 2818, "pitch": 43, "duration": 18, "velocity": 92}, {"time": 2821, "pitch": 50, "duration": 13, "velocity": 90}, {"time": 2824, "pitch": 55, "duration": 7, "velocity": 96}, {"time": 2827, "pitch": 62, "duration": 4, "velocity": 100}, {"time": 2830, "pitch": 71, "duration": 7, "velocity": 127}, {"time": 2833, "pitch": 55, "duration": 1, "velocity": 95}, {"time": 2833, "pitch": 67, "duration": 3, "velocity": 99}, {"time": 2836, "pitch": 62, "duration": 3, "velocity": 112}, {"time": 2839, "pitch": 64, "duration": 3, "velocity": 92}, {"time": 2842, "pitch": 36, "duration": 15, "velocity": 95}, {"time": 2845, "pitch": 43, "duration": 13, "velocity": 79}, {"time": 2848, "pitch": 48, "duration": 6, "velocity": 92}, {"time": 2851, "pitch": 60, "duration": 4, "velocity": 96}, {"time": 2854, "pitch": 67, "duration": 11, "velocity": 122}, {"time": 2857, "pitch": 48, "duration": 2, "velocity": 95}, {"time": 2860, "pitch": 60, "duration": 1, "velocity": 38}, {"time": 2860, "pitch": 64, "duration": 5, "velocity": 112}, {"time": 2863, "pitch": 60, "duration": 3, "velocity": 99}, {"time": 2866, "pitch": 43, "duration": 22, "velocity": 90}, {"time": 2869, "pitch": 50, "duration": 18, "velocity": 72}, {"time": 2872, "pitch": 55, "duration": 7, "velocity": 99}, {"time": 2875, "pitch": 62, "duration": 6, "velocity": 97}, {"time": 2878, "pitch": 71, "duration": 8, "velocity": 127}, {"time": 2881, "pitch": 55, "duration": 2, "velocity": 100}, {"time": 2884, "pitch": 67, "duration": 5, "velocity": 96}, {"time": 2887, "pitch": 62, "duration": 3, "velocity": 100}, {"time": 2890, "pitch": 41, "duration": 17, "velocity": 96}, {"time": 2893, "pitch": 48, "duration": 14, "velocity": 88}, {"time": 2896, "pitch": 53, "duration": 6, "velocity": 88}, {"time": 2899, "pitch": 60, "duration": 2, "velocity": 95}, {"time": 2902, "pitch": 69, "duration": 10, "velocity": 127}, {"time": 2905, "pitch": 53, "duration": 2, "velocity": 95}, {"time": 2908, "pitch": 65, "duration": 4, "velocity": 107}, {"time": 2911, "pitch": 60, "duration": 4, "velocity": 102}, {"time": 2914, "pitch": 48, "duration": 12, "velocity": 93}, {"time": 2917, "pitch": 60, "duration": 4, "velocity": 83}, {"time": 2920, "pitch": 67, "duration": 6, "velocity": 107}, {"time": 2923, "pitch": 60, "duration": 3, "velocity": 93}, {"time": 2926, "pitch": 47, "duration": 10, "velocity": 97}, {"time": 2929, "pitch": 59, "duration": 4, "velocity": 78}, {"time": 2932, "pitch": 60, "duration": 3, "velocity": 97}, {"time": 2935, "pitch": 64, "duration": 2, "velocity": 99}, {"time": 2938, "pitch": 45, "duration": 17, "velocity": 67}, {"time": 2941, "pitch": 52, "duration": 10, "velocity": 83}, {"time": 2944, "pitch": 57, "duration": 4, "velocity": 93}, {"time": 2947, "pitch": 64, "duration": 4, "velocity": 96}, {"time": 2950, "pitch": 72, "duration": 12, "velocity": 127}, {"time": 2953, "pitch": 52, "duration": 1, "velocity": 88}, {"time": 2956, "pitch": 69, "duration": 5, "velocity": 86}, {"time": 2959, "pitch": 64, "duration": 3, "velocity": 100}, {"time": 2962, "pitch": 40, "duration": 22, "velocity": 70}, {"time": 2965, "pitch": 47, "duration": 20, "velocity": 61}, {"time": 2968, "pitch": 52, "duration": 7, "velocity": 59}, {"time": 2971, "pitch": 59, "duration": 4, "velocity": 86}, {"time": 2974, "pitch": 67, "duration": 10, "velocity": 107}, {"time": 2977, "pitch": 52, "duration": 2, "velocity": 82}, {"time": 2980, "pitch": 64, "duration": 4, "velocity": 93}, {"time": 2983, "pitch": 59, "duration": 1, "velocity": 89}, {"time": 2986, "pitch": 41, "duration": 15, "velocity": 88}, {"time": 2989, "pitch": 48, "duration": 15, "velocity": 93}, {"time": 2992, "pitch": 53, "duration": 7, "velocity": 97}, {"time": 2995, "pitch": 60, "duration": 6, "velocity": 86}, {"time": 2998, "pitch": 69, "duration": 4, "velocity": 117}, {"time": 3001, "pitch": 65, "duration": 1, "velocity": 47}, {"time": 3004, "pitch": 43, "duration": 23, "velocity": 78}, {"time": 3004, "pitch": 62, "duration": 16, "velocity": 93}, {"time": 3004, "pitch": 67, "duration": 16, "velocity": 93}, {"time": 3004, "pitch": 71, "duration": 16, "velocity": 97}, {"time": 3016, "pitch": 50, "duration": 7, "velocity": 49}, {"time": 3022, "pitch": 67, "duration": 11, "velocity": 117}, {"time": 3025, "pitch": 50, "duration": 1, "velocity": 83}, {"time": 3028, "pitch": 62, "duration": 6, "velocity": 83}, {"time": 3034, "pitch": 36, "duration": 35, "velocity": 96}, {"time": 3040, "pitch": 43, "duration": 29, "velocity": 56}, {"time": 3046, "pitch": 60, "duration": 10, "velocity": 97}, {"time": 3046, "pitch": 64, "duration": 10, "velocity": 86}, {"time": 3052, "pitch": 48, "duration": 6, "velocity": 83}, {"time": 3058, "pitch": 64, "duration": 6, "velocity": 122}, {"time": 3058, "pitch": 67, "duration": 7, "velocity": 117}, {"time": 3061, "pitch": 48, "duration": 6, "velocity": 112}, {"time": 3064, "pitch": 60, "duration": 5, "velocity": 127}, {"time": 3067, "pitch": 64, "duration": 2, "velocity": 93}, {"time": 3067, "pitch": 67, "duration": 2, "velocity": 107}, {"time": 3070, "pitch": 41, "duration": 5, "velocity": 102}, {"time": 3070, "pitch": 65, "duration": 4, "velocity": 93}, {"time": 3070, "pitch": 69, "duration": 5, "velocity": 99}, {"time": 3070, "pitch": 72, "duration": 4, "velocity": 96}, {"time": 3076, "pitch": 43, "duration": 4, "velocity": 107}, {"time": 3076, "pitch": 67, "duration": 3, "velocity": 97}, {"time": 3076, "pitch": 71, "duration": 3, "velocity": 102}, {"time": 3076, "pitch": 74, "duration": 3, "velocity": 102}, {"time": 3082, "pitch": 36, "duration": 15, "velocity": 90}, {"time": 3085, "pitch": 43, "duration": 12, "velocity": 79}, {"time": 3088, "pitch": 48, "duration": 6, "velocity": 97}, {"time": 3091, "pitch": 60, "duration": 4, "velocity": 96}, {"time": 3094, "pitch": 67, "duration": 10, "velocity": 127}, {"time": 3097, "pitch": 48, "duration": 2, "velocity": 86}, {"time": 3100, "pitch": 64, "duration": 5, "velocity": 112}, {"time": 3103, "pitch": 60, "duration": 3, "velocity": 99}, {"time": 3106, "pitch": 43, "duration": 18, "velocity": 90}, {"time": 3109, "pitch": 50, "duration": 10, "velocity": 74}, {"time": 3112, "pitch": 55, "duration": 3, "velocity": 95}, {"time": 3115, "pitch": 62, "duration": 4, "velocity": 100}, {"time": 3118, "pitch": 71, "duration": 10, "velocity": 127}, {"time": 3121, "pitch": 50, "duration": 2, "velocity": 107}, {"time": 3124, "pitch": 67, "duration": 5, "velocity": 127}, {"time": 3127, "pitch": 62, "duration": 3, "velocity": 117}, {"time": 3130, "pitch": 41, "duration": 16, "velocity": 86}, {"time": 3133, "pitch": 48, "duration": 12, "velocity": 88}, {"time": 3136, "pitch": 53, "duration": 6, "velocity": 93}, {"time": 3139, "pitch": 60, "duration": 3, "velocity": 97}, {"time": 3142, "pitch": 69, "duration": 9, "velocity": 122}, {"time": 3145, "pitch": 53, "duration": 2, "velocity": 89}, {"time": 3148, "pitch": 65, "duration": 4, "velocity": 107}, {"time": 3151, "pitch": 60, "duration": 4, "velocity": 100}, {"time": 3154, "pitch": 48, "duration": 11, "velocity": 100}, {"time": 3157, "pitch": 60, "duration": 4, "velocity": 96}, {"time": 3160, "pitch": 67, "duration": 4, "velocity": 117}, {"time": 3163, "pitch": 64, "duration": 3, "velocity": 102}, {"time": 3166, "pitch": 47, "duration": 11, "velocity": 97}, {"time": 3169, "pitch": 60, "duration": 4, "velocity": 95}, {"time": 3172, "pitch": 67, "duration": 3, "velocity": 102}, {"time": 3175, "pitch": 64, "duration": 3, "velocity": 72}, {"time": 3178, "pitch": 45, "duration": 17, "velocity": 92}, {"time": 3181, "pitch": 52, "duration": 10, "velocity": 74}, {"time": 3184, "pitch": 57, "duration": 2, "velocity": 99}, {"time": 3187, "pitch": 60, "duration": 2, "velocity": 112}, {"time": 3190, "pitch": 64, "duration": 11, "velocity": 112}, {"time": 3193, "pitch": 52, "duration": 2, "velocity": 95}, {"time": 3196, "pitch": 60, "duration": 5, "velocity": 107}, {"time": 3199, "pitch": 55, "duration": 1, "velocity": 70}, {"time": 3199, "pitch": 57, "duration": 2, "velocity": 83}, {"time": 3202, "pitch": 40, "duration": 22, "velocity": 86}, {"time": 3205, "pitch": 47, "duration": 21, "velocity": 74}, {"time": 3208, "pitch": 52, "duration": 6, "velocity": 90}, {"time": 3211, "pitch": 59, "duration": 4, "velocity": 99}, {"time": 3214, "pitch": 67, "duration": 9, "velocity": 122}, {"time": 3217, "pitch": 52, "duration": 2, "velocity": 107}, {"time": 3220, "pitch": 64, "duration": 5, "velocity": 112}, {"time": 3223, "pitch": 59, "duration": 3, "velocity": 100}, {"time": 3226, "pitch": 41, "duration": 22, "velocity": 90}, {"time": 3229, "pitch": 48, "duration": 21, "velocity": 88}, {"time": 3232, "pitch": 53, "duration": 6, "velocity": 97}, {"time": 3235, "pitch": 60, "duration": 4, "velocity": 97}, {"time": 3238, "pitch": 69, "duration": 11, "velocity": 122}, {"time": 3241, "pitch": 53, "duration": 2, "velocity": 88}, {"time": 3244, "pitch": 60, "duration": 5, "velocity": 95}, {"time": 3247, "pitch": 65, "duration": 3, "velocity": 122}, {"time": 3250, "pitch": 43, "duration": 18, "velocity": 92}, {"time": 3253, "pitch": 50, "duration": 13, "velocity": 90}, {"time": 3256, "pitch": 55, "duration": 7, "velocity": 96}, {"time": 3259, "pitch": 62, "duration": 4, "velocity": 100}, {"time": 3262, "pitch": 71, "duration": 7, "velocity": 127}, {"time": 3265, "pitch": 55, "duration": 1, "velocity": 95}, {"time": 3265, "pitch": 67, "duration": 3, "velocity": 99}, {"time": 3268, "pitch": 62, "duration": 3, "velocity": 112}, {"time": 3271, "pitch": 64, "duration": 3, "velocity": 92}, {"time": 3274, "pitch": 36, "duration": 15, "velocity": 95}, {"time": 3277, "pitch": 43, "duration": 13, "velocity": 79}, {"time": 3280, "pitch": 48, "duration": 6, "velocity": 92}, {"time": 3283, "pitch": 60, "duration": 4, "velocity": 96}, {"time": 3286, "pitch": 67, "duration": 11, "velocity": 122}, {"time": 3289, "pitch": 48, "duration": 2, "velocity": 95}, {"time": 3292, "pitch": 60, "duration": 1, "velocity": 38}, {"time": 3292, "pitch": 64, "duration": 5, "velocity": 112}, {"time": 3295, "pitch": 60, "duration": 3, "velocity": 99}, {"time": 3298, "pitch": 43, "duration": 22, "velocity": 90}, {"time": 3301, "pitch": 50, "duration": 18, "velocity": 72}, {"time": 3304, "pitch": 55, "duration": 7, "velocity": 99}, {"time": 3307, "pitch": 62, "duration": 6, "velocity": 97}, {"time": 3310, "pitch": 71, "duration": 8, "velocity": 127}, {"time": 3313, "pitch": 55, "duration": 2, "velocity": 100}, {"time": 3316, "pitch": 67, "duration": 5, "velocity": 96}, {"time": 3319, "pitch": 62, "duration": 3, "velocity": 100}, {"time": 3322, "pitch": 41, "duration": 17, "velocity": 96}, {"time": 3325, "pitch": 48, "duration": 14, "velocity": 88}, {"time": 3328, "pitch": 53, "duration": 6, "velocity": 88}, {"time": 3331, "pitch": 60, "duration": 2, "velocity": 95}, {"time": 3334, "pitch": 69, "duration": 10, "velocity": 127}, {"time": 3337, "pitch": 53, "duration": 2, "velocity": 95}, {"time": 3340, "pitch": 65, "duration": 4, "velocity": 107}, {"time": 3343, "pitch": 60, "duration": 4, "velocity": 102}, {"time": 3346, "pitch": 48, "duration": 12, "velocity": 93}, {"time": 3349, "pitch": 60, "duration": 4, "velocity": 83}, {"time": 3352, "pitch": 67, "duration": 6, "velocity": 107}, {"time": 3355, "pitch": 60, "duration": 3, "velocity": 93}, {"time": 3358, "pitch": 47, "duration": 10, "velocity": 97}, {"time": 3361, "pitch": 59, "duration": 4, "velocity": 78}, {"time": 3364, "pitch": 60, "duration": 3, "velocity": 97}, {"time": 3367, "pitch": 64, "duration": 2, "velocity": 99}, {"time": 3370, "pitch": 45, "duration": 17, "velocity": 67}, {"time": 3373, "pitch": 52, "duration": 10, "velocity": 83}, {"time": 3376, "pitch": 57, "duration": 4, "velocity": 93}, {"time": 3379, "pitch": 64, "duration": 4, "velocity": 96}, {"time": 3382, "pitch": 72, "duration": 12, "velocity": 127}, {"time": 3385, "pitch": 52, "duration": 1, "velocity": 88}, {"time": 3388, "pitch": 69, "duration": 5, "velocity": 86}, {"time": 3391, "pitch": 64, "duration": 3, "velocity": 100}, {"time": 3394, "pitch": 40, "duration": 22, "velocity": 70}, {"time": 3397, "pitch": 47, "duration": 20, "velocity": 61}, {"time": 3400, "pitch": 52, "duration": 7, "velocity": 59}, {"time": 3403, "pitch": 59, "duration": 4, "velocity": 86}, {"time": 3406, "pitch": 67, "duration": 10, "velocity": 107}, {"time": 3409, "pitch": 52, "duration": 2, "velocity": 82}, {"time": 3412, "pitch": 64, "duration": 4, "velocity": 93}, {"time": 3415, "pitch": 59, "duration": 1, "velocity": 89}, {"time": 3418, "pitch": 41, "duration": 15, "velocity": 88}, {"time": 3421, "pitch": 48, "duration": 15, "velocity": 93}, {"time": 3424, "pitch": 53, "duration": 7, "velocity": 97}, {"time": 3427, "pitch": 60, "duration": 6, "velocity": 86}, {"time": 3430, "pitch": 69, "duration": 4, "velocity": 117}, {"time": 3433, "pitch": 65, "duration": 1, "velocity": 47}, {"time": 3436, "pitch": 43, "duration": 23, "velocity": 78}, {"time": 3436, "pitch": 62, "duration": 16, "velocity": 93}, {"time": 3436, "pitch": 67, "duration": 16, "velocity": 93}, {"time": 3436, "pitch": 71, "duration": 16, "velocity": 97}, {"time": 3448, "pitch": 50, "duration": 7, "velocity": 49}, {"time": 3454, "pitch": 67, "duration": 11, "velocity": 117}, {"time": 3457, "pitch": 50, "duration": 1, "velocity": 83}, {"time": 3460, "pitch": 62, "duration": 6, "velocity": 83}, {"time": 3466, "pitch": 36, "duration": 44, "velocity": 90}, {"time": 3472, "pitch": 43, "duration": 42, "velocity": 43}, {"time": 3478, "pitch": 60, "duration": 11, "velocity": 93}, {"time": 3484, "pitch": 48, "duration": 20, "velocity": 58}, {"time": 3490, "pitch": 60, "duration": 35, "velocity": 75}, {"time": 3490, "pitch": 64, "duration": 32, "velocity": 82}, {"time": 3514, "pitch": 36, "duration": 14, "velocity": 78}, {"time": 3520, "pitch": 43, "duration": 9, "velocity": 61}, {"time": 3526, "pitch": 64, "duration": 12, "velocity": 99}, {"time": 3532, "pitch": 60, "duration": 6, "velocity": 59}, {"time": 3538, "pitch": 43, "duration": 23, "velocity": 64}, {"time": 3544, "pitch": 50, "duration": 16, "velocity": 42}, {"time": 3550, "pitch": 55, "duration": 4, "velocity": 76}, {"time": 3556, "pitch": 67, "duration": 5, "velocity": 63}, {"time": 3562, "pitch": 41, "duration": 22, "velocity": 74}, {"time": 3568, "pitch": 48, "duration": 18, "velocity": 45}, {"time": 3574, "pitch": 53, "duration": 4, "velocity": 47}, {"time": 3574, "pitch": 69, "duration": 12, "velocity": 66}, {"time": 3579, "pitch": 60, "duration": 6, "velocity": 41}, {"time": 3585, "pitch": 43, "duration": 26, "velocity": 71}, {"time": 3591, "pitch": 50, "duration": 19, "velocity": 55}, {"time": 3597, "pitch": 55, "duration": 9, "velocity": 81}, {"time": 3597, "pitch": 67, "duration": 15, "velocity": 71}, {"time": 3604, "pitch": 62, "duration": 10, "velocity": 54}, {"time": 3618, "pitch": 67, "duration": 8, "velocity": 51}, {"time": 3619, "pitch": 65, "duration": 1, "velocity": 37}, {"time": 3619, "pitch": 64, "duration": 7, "velocity": 58}, {"time": 3620, "pitch": 60, "duration": 6, "velocity": 60}, {"time": 3620, "pitch": 36, "duration": 42, "velocity": 71}, {"time": 3626, "pitch": 43, "duration": 34, "velocity": 55}, {"time": 3630, "pitch": 48, "duration": 28, "velocity": 63}, {"time": 3632, "pitch": 52, "duration": 3, "velocity": 59}, {"time": 3635, "pitch": 55, "duration": 1, "velocity": 56}, {"time": 3637, "pitch": 60, "duration": 4, "velocity": 55}, {"time": 3640, "pitch": 64, "duration": 3, "velocity": 47}, {"time": 3643, "pitch": 67, "duration": 1, "velocity": 48}, {"time": 3646, "pitch": 72, "duration": 19, "velocity": 48}, {"time": 3650, "pitch": 76, "duration": 15, "velocity": 55}, {"time": 3653, "pitch": 79, "duration": 12, "velocity": 53}, {"time": 3657, "pitch": 84, "duration": 8, "velocity": 38}], "annotations": [{"time": 19, "annotation": {"number": 64, "value": 127}, "group": "control_change"}, {"time": 30, "annotation": {"number": 64, "value": 0}, "group": "control_change"}, {"time": 43, "annotation": {"number": 64, "value": 127}, "group": "control_change"}, {"time": 48, "annotation": {"number": 64, "value": 0}, "group": "control_change"}, {"time": 68, "annotation": {"number": 64, "value": 127}, "group": "control_change"}, {"time": 71, "annotation": {"number": 64, "value": 0}, "group": "control_change"}, {"time": 106, "annotation": {"number": 64, "value": 127}, "group": "control_change"}, {"time": 127, "annotation": {"number": 64, "value": 0}, "group": "control_change"}, {"time": 130, "annotation": {"number": 64, "value": 127}, "group": "control_change"}, {"time": 151, "annotation": {"number": 64, "value": 0}, "group": "control_change"}, {"time": 154, "annotation": {"number": 64, "value": 127}, "group": "control_change"}, {"time": 175, "annotation": {"number": 64, "value": 0}, "group": "control_change"}, {"time": 180, "annotation": {"number": 64, "value": 127}, "group": "control_change"}, {"time": 187, "annotation": {"number": 64, "value": 0}, "group": "control_change"}, {"time": 190, "annotation": {"number": 64, "value": 127}, "group": "control_change"}, {"time": 192, "annotation": {"number": 64, "value": 0}, "group": "control_change"}, {"time": 202, "annotation": {"number": 64, "value": 127}, "group": "control_change"}, {"time": 223, "annotation": {"number": 64, "value": 0}, "group": "control_change"}, {"time": 225, "annotation": {"number": 64, "value": 127}, "group": "control_change"}, {"time": 246, "annotation": {"number": 64, "value": 0}, "group": "control_change"}, {"time": 249, "annotation": {"number": 64, "value": 127}, "group": "control_change"}, {"time": 270, "annotation": {"number": 64, "value": 0}, "group": "control_change"}, {"time": 273, "annotation": {"number": 64, "value": 127}, "group": "control_change"}, {"time": 295, "annotation": {"number": 64, "value": 0}, "group": "control_change"}, {"time": 298, "annotation": {"number": 64, "value": 127}, "group": "control_change"}, {"time": 320, "annotation": {"number": 64, "value": 0}, "group": "control_change"}, {"time": 322, "annotation": {"number": 64, "value": 127}, "group": "control_change"}, {"time": 344, "annotation": {"number": 64, "value": 0}, "group": "control_change"}, {"time": 346, "annotation": {"number": 64, "value": 127}, "group": "control_change"}, {"time": 368, "annotation": {"number": 64, "value": 0}, "group": "control_change"}, {"time": 369, "annotation": {"number": 64, "value": 127}, "group": "control_change"}, {"time": 390, "annotation": {"number": 64, "value": 0}, "group": "control_change"}, {"time": 393, "annotation": {"number": 64, "value": 127}, "group": "control_change"}, {"time": 415, "annotation": {"number": 64, "value": 0}, "group": "control_change"}, {"time": 418, "annotation": {"number": 64, "value": 127}, "group": "control_change"}, {"time": 438, "annotation": {"number": 64, "value": 0}, "group": "control_change"}, {"time": 453, "annotation": {"number": 64, "value": 127}, "group": "control_change"}, {"time": 488, "annotation": {"number": 64, "value": 0}, "group": "control_change"}, {"time": 490, "annotation": {"number": 64, "value": 127}, "group": "control_change"}, {"time": 511, "annotation": {"number": 64, "value": 0}, "group": "control_change"}, {"time": 514, "annotation": {"number": 64, "value": 127}, "group": "control_change"}, {"time": 535, "annotation": {"number": 64, "value": 0}, "group": "control_change"}, {"time": 537, "annotation": {"number": 64, "value": 127}, "group": "control_change"}, {"time": 560, "annotation": {"number": 64, "value": 0}, "group": "control_change"}, {"time": 561, "annotation": {"number": 64, "value": 127}, "group": "control_change"}, {"time": 584, "annotation": {"number": 64, "value": 0}, "group": "control_change"}, {"time": 586, "annotation": {"number": 64, "value": 127}, "group": "control_change"}, {"time": 608, "annotation": {"number": 64, "value": 0}, "group": "control_change"}, {"time": 609, "annotation": {"number": 64, "value": 127}, "group": "control_change"}, {"time": 620, "annotation": {"number": 64, "value": 0}, "group": "control_change"}, {"time": 621, "annotation": {"number": 64, "value": 127}, "group": "control_change"}, {"time": 631, "annotation": {"number": 64, "value": 0}, "group": "control_change"}, {"time": 633, "annotation": {"number": 64, "value": 127}, "group": "control_change"}, {"time": 654, "annotation": {"number": 64, "value": 0}, "group": "control_change"}, {"time": 658, "annotation": {"number": 64, "value": 127}, "group": "control_change"}, {"time": 679, "annotation": {"number": 64, "value": 0}, "group": "control_change"}, {"time": 681, "annotation": {"number": 64, "value": 127}, "group": "control_change"}, {"time": 704, "annotation": {"number": 64, "value": 0}, "group": "control_change"}, {"time": 706, "annotation": {"number": 64, "value": 127}, "group": "control_change"}, {"time": 728, "annotation": {"number": 64, "value": 0}, "group": "control_change"}, {"time": 729, "annotation": {"number": 64, "value": 127}, "group": "control_change"}, {"time": 752, "annotation": {"number": 64, "value": 0}, "group": "control_change"}, {"time": 754, "annotation": {"number": 64, "value": 127}, "group": "control_change"}, {"time": 776, "annotation": {"number": 64, "value": 0}, "group": "control_change"}, {"time": 778, "annotation": {"number": 64, "value": 127}, "group": "control_change"}, {"time": 800, "annotation": {"number": 64, "value": 0}, "group": "control_change"}, {"time": 802, "annotation": {"number": 64, "value": 127}, "group": "control_change"}, {"time": 812, "annotation": {"number": 64, "value": 0}, "group": "control_change"}, {"time": 816, "annotation": {"number": 64, "value": 127}, "group": "control_change"}, {"time": 824, "annotation": {"number": 64, "value": 0}, "group": "control_change"}, {"time": 826, "annotation": {"number": 64, "value": 127}, "group": "control_change"}, {"time": 834, "annotation": {"number": 64, "value": 0}, "group": "control_change"}, {"time": 838, "annotation": {"number": 64, "value": 127}, "group": "control_change"}, {"time": 848, "annotation": {"number": 64, "value": 0}, "group": "control_change"}, {"time": 850, "annotation": {"number": 64, "value": 127}, "group": "control_change"}, {"time": 871, "annotation": {"number": 64, "value": 0}, "group": "control_change"}, {"time": 874, "annotation": {"number": 64, "value": 127}, "group": "control_change"}, {"time": 896, "annotation": {"number": 64, "value": 0}, "group": "control_change"}, {"time": 898, "annotation": {"number": 64, "value": 127}, "group": "control_change"}, {"time": 919, "annotation": {"number": 64, "value": 0}, "group": "control_change"}, {"time": 921, "annotation": {"number": 64, "value": 127}, "group": "control_change"}, {"time": 943, "annotation": {"number": 64, "value": 0}, "group": "control_change"}, {"time": 945, "annotation": {"number": 64, "value": 127}, "group": "control_change"}, {"time": 968, "annotation": {"number": 64, "value": 0}, "group": "control_change"}, {"time": 970, "annotation": {"number": 64, "value": 127}, "group": "control_change"}, {"time": 991, "annotation": {"number": 64, "value": 0}, "group": "control_change"}, {"time": 993, "annotation": {"number": 64, "value": 127}, "group": "control_change"}, {"time": 995, "annotation": {"number": 64, "value": 0}, "group": "control_change"}, {"time": 995, "annotation": {"number": 64, "value": 127}, "group": "control_change"}, {"time": 1016, "annotation": {"number": 64, "value": 0}, "group": "control_change"}, {"time": 1018, "annotation": {"number": 64, "value": 127}, "group": "control_change"}, {"time": 1040, "annotation": {"number": 64, "value": 0}, "group": "control_change"}, {"time": 1041, "annotation": {"number": 64, "value": 127}, "group": "control_change"}, {"time": 1054, "annotation": {"number": 64, "value": 127}, "group": "control_change"}, {"time": 1062, "annotation": {"number": 64, "value": 0}, "group": "control_change"}, {"time": 1065, "annotation": {"number": 64, "value": 127}, "group": "control_change"}, {"time": 1072, "annotation": {"number": 64, "value": 0}, "group": "control_change"}, {"time": 1089, "annotation": {"number": 64, "value": 127}, "group": "control_change"}, {"time": 1092, "annotation": {"number": 64, "value": 0}, "group": "control_change"}, {"time": 1092, "annotation": {"number": 64, "value": 127}, "group": "control_change"}, {"time": 1111, "annotation": {"number": 64, "value": 0}, "group": "control_change"}, {"time": 1113, "annotation": {"number": 64, "value": 127}, "group": "control_change"}, {"time": 1135, "annotation": {"number": 64, "value": 0}, "group": "control_change"}, {"time": 1137, "annotation": {"number": 64, "value": 127}, "group": "control_change"}, {"time": 1159, "annotation": {"number": 64, "value": 0}, "group": "control_change"}, {"time": 1161, "annotation": {"number": 64, "value": 127}, "group": "control_change"}, {"time": 1172, "annotation": {"number": 64, "value": 0}, "group": "control_change"}, {"time": 1176, "annotation": {"number": 64, "value": 127}, "group": "control_change"}, {"time": 1183, "annotation": {"number": 64, "value": 0}, "group": "control_change"}, {"time": 1185, "annotation": {"number": 64, "value": 127}, "group": "control_change"}, {"time": 1207, "annotation": {"number": 64, "value": 0}, "group": "control_change"}, {"time": 1209, "annotation": {"number": 64, "value": 127}, "group": "control_change"}, {"time": 1231, "annotation": {"number": 64, "value": 0}, "group": "control_change"}, {"time": 1233, "annotation": {"number": 64, "value": 127}, "group": "control_change"}, {"time": 1255, "annotation": {"number": 64, "value": 0}, "group": "control_change"}, {"time": 1258, "annotation": {"number": 64, "value": 127}, "group": "control_change"}, {"time": 1279, "annotation": {"number": 64, "value": 0}, "group": "control_change"}, {"time": 1281, "annotation": {"number": 64, "value": 127}, "group": "control_change"}, {"time": 1303, "annotation": {"number": 64, "value": 0}, "group": "control_change"}, {"time": 1305, "annotation": {"number": 64, "value": 127}, "group": "control_change"}, {"time": 1328, "annotation": {"number": 64, "value": 0}, "group": "control_change"}, {"time": 1329, "annotation": {"number": 64, "value": 127}, "group": "control_change"}, {"time": 1351, "annotation": {"number": 64, "value": 0}, "group": "control_change"}, {"time": 1353, "annotation": {"number": 64, "value": 127}, "group": "control_change"}, {"time": 1364, "annotation": {"number": 64, "value": 0}, "group": "control_change"}, {"time": 1366, "annotation": {"number": 64, "value": 127}, "group": "control_change"}, {"time": 1375, "annotation": {"number": 64, "value": 0}, "group": "control_change"}, {"time": 1377, "annotation": {"number": 64, "value": 127}, "group": "control_change"}, {"time": 1379, "annotation": {"number": 64, "value": 0}, "group": "control_change"}, {"time": 1380, "annotation": {"number": 64, "value": 127}, "group": "control_change"}, {"time": 1400, "annotation": {"number": 64, "value": 0}, "group": "control_change"}, {"time": 1401, "annotation": {"number": 64, "value": 127}, "group": "control_change"}, {"time": 1423, "annotation": {"number": 64, "value": 0}, "group": "control_change"}, {"time": 1425, "annotation": {"number": 64, "value": 127}, "group": "control_change"}, {"time": 1426, "annotation": {"number": 64, "value": 127}, "group": "control_change"}, {"time": 1441, "annotation": {"number": 64, "value": 0}, "group": "control_change"}, {"time": 1449, "annotation": {"number": 64, "value": 127}, "group": "control_change"}, {"time": 1471, "annotation": {"number": 64, "value": 0}, "group": "control_change"}, {"time": 1473, "annotation": {"number": 64, "value": 127}, "group": "control_change"}, {"time": 1520, "annotation": {"number": 64, "value": 0}, "group": "control_change"}, {"time": 1523, "annotation": {"number": 64, "value": 127}, "group": "control_change"}, {"time": 1525, "annotation": {"number": 64, "value": 0}, "group": "control_change"}, {"time": 1526, "annotation": {"number": 64, "value": 127}, "group": "control_change"}, {"time": 1544, "annotation": {"number": 64, "value": 0}, "group": "control_change"}, {"time": 1546, "annotation": {"number": 64, "value": 127}, "group": "control_change"}, {"time": 1568, "annotation": {"number": 64, "value": 0}, "group": "control_change"}, {"time": 1569, "annotation": {"number": 64, "value": 127}, "group": "control_change"}, {"time": 1591, "annotation": {"number": 64, "value": 0}, "group": "control_change"}, {"time": 1593, "annotation": {"number": 64, "value": 127}, "group": "control_change"}, {"time": 1596, "annotation": {"number": 64, "value": 0}, "group": "control_change"}, {"time": 1596, "annotation": {"number": 64, "value": 127}, "group": "control_change"}, {"time": 1615, "annotation": {"number": 64, "value": 0}, "group": "control_change"}, {"time": 1618, "annotation": {"number": 64, "value": 127}, "group": "control_change"}, {"time": 1637, "annotation": {"number": 64, "value": 0}, "group": "control_change"}, {"time": 1640, "annotation": {"number": 64, "value": 127}, "group": "control_change"}, {"time": 1642, "annotation": {"number": 64, "value": 0}, "group": "control_change"}, {"time": 1643, "annotation": {"number": 64, "value": 127}, "group": "control_change"}, {"time": 1663, "annotation": {"number": 64, "value": 0}, "group": "control_change"}, {"time": 1665, "annotation": {"number": 64, "value": 127}, "group": "control_change"}, {"time": 1667, "annotation": {"number": 64, "value": 0}, "group": "control_change"}, {"time": 1668, "annotation": {"number": 64, "value": 127}, "group": "control_change"}, {"time": 1685, "annotation": {"number": 64, "value": 0}, "group": "control_change"}, {"time": 1688, "annotation": {"number": 64, "value": 127}, "group": "control_change"}, {"time": 1691, "annotation": {"number": 64, "value": 0}, "group": "control_change"}, {"time": 1691, "annotation": {"number": 64, "value": 127}, "group": "control_change"}, {"time": 1711, "annotation": {"number": 64, "value": 0}, "group": "control_change"}, {"time": 1713, "annotation": {"number": 64, "value": 127}, "group": "control_change"}, {"time": 1734, "annotation": {"number": 64, "value": 0}, "group": "control_change"}, {"time": 1737, "annotation": {"number": 64, "value": 127}, "group": "control_change"}, {"time": 1760, "annotation": {"number": 64, "value": 0}, "group": "control_change"}, {"time": 1761, "annotation": {"number": 64, "value": 127}, "group": "control_change"}, {"time": 1762, "annotation": {"number": 64, "value": 127}, "group": "control_change"}, {"time": 1778, "annotation": {"number": 64, "value": 0}, "group": "control_change"}, {"time": 1786, "annotation": {"number": 64, "value": 127}, "group": "control_change"}, {"time": 1787, "annotation": {"number": 64, "value": 0}, "group": "control_change"}, {"time": 1811, "annotation": {"number": 64, "value": 127}, "group": "control_change"}, {"time": 1814, "annotation": {"number": 64, "value": 0}, "group": "control_change"}, {"time": 1822, "annotation": {"number": 64, "value": 127}, "group": "control_change"}, {"time": 1854, "annotation": {"number": 64, "value": 0}, "group": "control_change"}, {"time": 1857, "annotation": {"number": 64, "value": 127}, "group": "control_change"}, {"time": 1858, "annotation": {"number": 64, "value": 0}, "group": "control_change"}, {"time": 1868, "annotation": {"number": 64, "value": 127}, "group": "control_change"}, {"time": 1880, "annotation": {"number": 64, "value": 0}, "group": "control_change"}, {"time": 1884, "annotation": {"number": 64, "value": 127}, "group": "control_change"}, {"time": 1902, "annotation": {"number": 64, "value": 0}, "group": "control_change"}, {"time": 1906, "annotation": {"number": 64, "value": 127}, "group": "control_change"}, {"time": 1923, "annotation": {"number": 64, "value": 0}, "group": "control_change"}, {"time": 1929, "annotation": {"number": 64, "value": 127}, "group": "control_change"}, {"time": 1950, "annotation": {"number": 64, "value": 0}, "group": "control_change"}, {"time": 1953, "annotation": {"number": 64, "value": 127}, "group": "control_change"}, {"time": 1954, "annotation": {"number": 64, "value": 127}, "group": "control_change"}, {"time": 1971, "annotation": {"number": 64, "value": 0}, "group": "control_change"}, {"time": 1977, "annotation": {"number": 64, "value": 127}, "group": "control_change"}, {"time": 1997, "annotation": {"number": 64, "value": 0}, "group": "control_change"}, {"time": 2002, "annotation": {"number": 64, "value": 127}, "group": "control_change"}, {"time": 2036, "annotation": {"number": 64, "value": 0}, "group": "control_change"}, {"time": 2050, "annotation": {"number": 64, "value": 127}, "group": "control_change"}, {"time": 2071, "annotation": {"number": 64, "value": 0}, "group": "control_change"}, {"time": 2074, "annotation": {"number": 64, "value": 127}, "group": "control_change"}, {"time": 2095, "annotation": {"number": 64, "value": 0}, "group": "control_change"}, {"time": 2097, "annotation": {"number": 64, "value": 127}, "group": "control_change"}, {"time": 2120, "annotation": {"number": 64, "value": 0}, "group": "control_change"}, {"time": 2121, "annotation": {"number": 64, "value": 127}, "group": "control_change"}, {"time": 2144, "annotation": {"number": 64, "value": 0}, "group": "control_change"}, {"time": 2146, "annotation": {"number": 64, "value": 127}, "group": "control_change"}, {"time": 2168, "annotation": {"number": 64, "value": 0}, "group": "control_change"}, {"time": 2169, "annotation": {"number": 64, "value": 127}, "group": "control_change"}, {"time": 2180, "annotation": {"number": 64, "value": 0}, "group": "control_change"}, {"time": 2181, "annotation": {"number": 64, "value": 127}, "group": "control_change"}, {"time": 2191, "annotation": {"number": 64, "value": 0}, "group": "control_change"}, {"time": 2193, "annotation": {"number": 64, "value": 127}, "group": "control_change"}, {"time": 2214, "annotation": {"number": 64, "value": 0}, "group": "control_change"}, {"time": 2218, "annotation": {"number": 64, "value": 127}, "group": "control_change"}, {"time": 2239, "annotation": {"number": 64, "value": 0}, "group": "control_change"}, {"time": 2241, "annotation": {"number": 64, "value": 127}, "group": "control_change"}, {"time": 2264, "annotation": {"number": 64, "value": 0}, "group": "control_change"}, {"time": 2266, "annotation": {"number": 64, "value": 127}, "group": "control_change"}, {"time": 2288, "annotation": {"number": 64, "value": 0}, "group": "control_change"}, {"time": 2289, "annotation": {"number": 64, "value": 127}, "group": "control_change"}, {"time": 2312, "annotation": {"number": 64, "value": 0}, "group": "control_change"}, {"time": 2314, "annotation": {"number": 64, "value": 127}, "group": "control_change"}, {"time": 2336, "annotation": {"number": 64, "value": 0}, "group": "control_change"}, {"time": 2338, "annotation": {"number": 64, "value": 127}, "group": "control_change"}, {"time": 2360, "annotation": {"number": 64, "value": 0}, "group": "control_change"}, {"time": 2362, "annotation": {"number": 64, "value": 127}, "group": "control_change"}, {"time": 2372, "annotation": {"number": 64, "value": 0}, "group": "control_change"}, {"time": 2376, "annotation": {"number": 64, "value": 127}, "group": "control_change"}, {"time": 2384, "annotation": {"number": 64, "value": 0}, "group": "control_change"}, {"time": 2386, "annotation": {"number": 64, "value": 127}, "group": "control_change"}, {"time": 2394, "annotation": {"number": 64, "value": 0}, "group": "control_change"}, {"time": 2398, "annotation": {"number": 64, "value": 127}, "group": "control_change"}, {"time": 2408, "annotation": {"number": 64, "value": 0}, "group": "control_change"}, {"time": 2410, "annotation": {"number": 64, "value": 127}, "group": "control_change"}, {"time": 2431, "annotation": {"number": 64, "value": 0}, "group": "control_change"}, {"time": 2434, "annotation": {"number": 64, "value": 127}, "group": "control_change"}, {"time": 2456, "annotation": {"number": 64, "value": 0}, "group": "control_change"}, {"time": 2458, "annotation": {"number": 64, "value": 127}, "group": "control_change"}, {"time": 2479, "annotation": {"number": 64, "value": 0}, "group": "control_change"}, {"time": 2481, "annotation": {"number": 64, "value": 127}, "group": "control_change"}, {"time": 2503, "annotation": {"number": 64, "value": 0}, "group": "control_change"}, {"time": 2505, "annotation": {"number": 64, "value": 127}, "group": "control_change"}, {"time": 2528, "annotation": {"number": 64, "value": 0}, "group": "control_change"}, {"time": 2530, "annotation": {"number": 64, "value": 127}, "group": "control_change"}, {"time": 2551, "annotation": {"number": 64, "value": 0}, "group": "control_change"}, {"time": 2553, "annotation": {"number": 64, "value": 127}, "group": "control_change"}, {"time": 2555, "annotation": {"number": 64, "value": 0}, "group": "control_change"}, {"time": 2555, "annotation": {"number": 64, "value": 127}, "group": "control_change"}, {"time": 2576, "annotation": {"number": 64, "value": 0}, "group": "control_change"}, {"time": 2578, "annotation": {"number": 64, "value": 127}, "group": "control_change"}, {"time": 2600, "annotation": {"number": 64, "value": 0}, "group": "control_change"}, {"time": 2601, "annotation": {"number": 64, "value": 127}, "group": "control_change"}, {"time": 2614, "annotation": {"number": 64, "value": 127}, "group": "control_change"}, {"time": 2622, "annotation": {"number": 64, "value": 0}, "group": "control_change"}, {"time": 2625, "annotation": {"number": 64, "value": 127}, "group": "control_change"}, {"time": 2632, "annotation": {"number": 64, "value": 0}, "group": "control_change"}, {"time": 2649, "annotation": {"number": 64, "value": 127}, "group": "control_change"}, {"time": 2652, "annotation": {"number": 64, "value": 0}, "group": "control_change"}, {"time": 2652, "annotation": {"number": 64, "value": 127}, "group": "control_change"}, {"time": 2671, "annotation": {"number": 64, "value": 0}, "group": "control_change"}, {"time": 2673, "annotation": {"number": 64, "value": 127}, "group": "control_change"}, {"time": 2695, "annotation": {"number": 64, "value": 0}, "group": "control_change"}, {"time": 2697, "annotation": {"number": 64, "value": 127}, "group": "control_change"}, {"time": 2719, "annotation": {"number": 64, "value": 0}, "group": "control_change"}, {"time": 2721, "annotation": {"number": 64, "value": 127}, "group": "control_change"}, {"time": 2732, "annotation": {"number": 64, "value": 0}, "group": "control_change"}, {"time": 2736, "annotation": {"number": 64, "value": 127}, "group": "control_change"}, {"time": 2743, "annotation": {"number": 64, "value": 0}, "group": "control_change"}, {"time": 2745, "annotation": {"number": 64, "value": 127}, "group": "control_change"}, {"time": 2767, "annotation": {"number": 64, "value": 0}, "group": "control_change"}, {"time": 2769, "annotation": {"number": 64, "value": 127}, "group": "control_change"}, {"time": 2791, "annotation": {"number": 64, "value": 0}, "group": "control_change"}, {"time": 2793, "annotation": {"number": 64, "value": 127}, "group": "control_change"}, {"time": 2815, "annotation": {"number": 64, "value": 0}, "group": "control_change"}, {"time": 2818, "annotation": {"number": 64, "value": 127}, "group": "control_change"}, {"time": 2839, "annotation": {"number": 64, "value": 0}, "group": "control_change"}, {"time": 2841, "annotation": {"number": 64, "value": 127}, "group": "control_change"}, {"time": 2863, "annotation": {"number": 64, "value": 0}, "group": "control_change"}, {"time": 2865, "annotation": {"number": 64, "value": 127}, "group": "control_change"}, {"time": 2888, "annotation": {"number": 64, "value": 0}, "group": "control_change"}, {"time": 2889, "annotation": {"number": 64, "value": 127}, "group": "control_change"}, {"time": 2911, "annotation": {"number": 64, "value": 0}, "group": "control_change"}, {"time": 2913, "annotation": {"number": 64, "value": 127}, "group": "control_change"}, {"time": 2924, "annotation": {"number": 64, "value": 0}, "group": "control_change"}, {"time": 2926, "annotation": {"number": 64, "value": 127}, "group": "control_change"}, {"time": 2935, "annotation": {"number": 64, "value": 0}, "group": "control_change"}, {"time": 2937, "annotation": {"number": 64, "value": 127}, "group": "control_change"}, {"time": 2939, "annotation": {"number": 64, "value": 0}, "group": "control_change"}, {"time": 2940, "annotation": {"number": 64, "value": 127}, "group": "control_change"}, {"time": 2960, "annotation": {"number": 64, "value": 0}, "group": "control_change"}, {"time": 2961, "annotation": {"number": 64, "value": 127}, "group": "control_change"}, {"time": 2983, "annotation": {"number": 64, "value": 0}, "group": "control_change"}, {"time": 2985, "annotation": {"number": 64, "value": 127}, "group": "control_change"}, {"time": 2986, "annotation": {"number": 64, "value": 127}, "group": "control_change"}, {"time": 3001, "annotation": {"number": 64, "value": 0}, "group": "control_change"}, {"time": 3009, "annotation": {"number": 64, "value": 127}, "group": "control_change"}, {"time": 3031, "annotation": {"number": 64, "value": 0}, "group": "control_change"}, {"time": 3033, "annotation": {"number": 64, "value": 127}, "group": "control_change"}, {"time": 3034, "annotation": {"number": 64, "value": 127}, "group": "control_change"}, {"time": 3066, "annotation": {"number": 64, "value": 0}, "group": "control_change"}, {"time": 3081, "annotation": {"number": 64, "value": 127}, "group": "control_change"}, {"time": 3084, "annotation": {"number": 64, "value": 0}, "group": "control_change"}, {"time": 3084, "annotation": {"number": 64, "value": 127}, "group": "control_change"}, {"time": 3103, "annotation": {"number": 64, "value": 0}, "group": "control_change"}, {"time": 3105, "annotation": {"number": 64, "value": 127}, "group": "control_change"}, {"time": 3127, "annotation": {"number": 64, "value": 0}, "group": "control_change"}, {"time": 3129, "annotation": {"number": 64, "value": 127}, "group": "control_change"}, {"time": 3151, "annotation": {"number": 64, "value": 0}, "group": "control_change"}, {"time": 3153, "annotation": {"number": 64, "value": 127}, "group": "control_change"}, {"time": 3164, "annotation": {"number": 64, "value": 0}, "group": "control_change"}, {"time": 3168, "annotation": {"number": 64, "value": 127}, "group": "control_change"}, {"time": 3175, "annotation": {"number": 64, "value": 0}, "group": "control_change"}, {"time": 3177, "annotation": {"number": 64, "value": 127}, "group": "control_change"}, {"time": 3199, "annotation": {"number": 64, "value": 0}, "group": "control_change"}, {"time": 3201, "annotation": {"number": 64, "value": 127}, "group": "control_change"}, {"time": 3223, "annotation": {"number": 64, "value": 0}, "group": "control_change"}, {"time": 3225, "annotation": {"number": 64, "value": 127}, "group": "control_change"}, {"time": 3247, "annotation": {"number": 64, "value": 0}, "group": "control_change"}, {"time": 3250, "annotation": {"number": 64, "value": 127}, "group": "control_change"}, {"time": 3271, "annotation": {"number": 64, "value": 0}, "group": "control_change"}, {"time": 3273, "annotation": {"number": 64, "value": 127}, "group": "control_change"}, {"time": 3295, "annotation": {"number": 64, "value": 0}, "group": "control_change"}, {"time": 3297, "annotation": {"number": 64, "value": 127}, "group": "control_change"}, {"time": 3320, "annotation": {"number": 64, "value": 0}, "group": "control_change"}, {"time": 3321, "annotation": {"number": 64, "value": 127}, "group": "control_change"}, {"time": 3343, "annotation": {"number": 64, "value": 0}, "group": "control_change"}, {"time": 3345, "annotation": {"number": 64, "value": 127}, "group": "control_change"}, {"time": 3356, "annotation": {"number": 64, "value": 0}, "group": "control_change"}, {"time": 3358, "annotation": {"number": 64, "value": 127}, "group": "control_change"}, {"time": 3367, "annotation": {"number": 64, "value": 0}, "group": "control_change"}, {"time": 3369, "annotation": {"number": 64, "value": 127}, "group": "control_change"}, {"time": 3371, "annotation": {"number": 64, "value": 0}, "group": "control_change"}, {"time": 3372, "annotation": {"number": 64, "value": 127}, "group": "control_change"}, {"time": 3392, "annotation": {"number": 64, "value": 0}, "group": "control_change"}, {"time": 3393, "annotation": {"number": 64, "value": 127}, "group": "control_change"}, {"time": 3415, "annotation": {"number": 64, "value": 0}, "group": "control_change"}, {"time": 3417, "annotation": {"number": 64, "value": 127}, "group": "control_change"}, {"time": 3418, "annotation": {"number": 64, "value": 127}, "group": "control_change"}, {"time": 3433, "annotation": {"number": 64, "value": 0}, "group": "control_change"}, {"time": 3441, "annotation": {"number": 64, "value": 127}, "group": "control_change"}, {"time": 3463, "annotation": {"number": 64, "value": 0}, "group": "control_change"}, {"time": 3465, "annotation": {"number": 64, "value": 127}, "group": "control_change"}, {"time": 3510, "annotation": {"number": 64, "value": 0}, "group": "control_change"}, {"time": 3513, "annotation": {"number": 64, "value": 127}, "group": "control_change"}, {"time": 3534, "annotation": {"number": 64, "value": 0}, "group": "control_change"}, {"time": 3537, "annotation": {"number": 64, "value": 127}, "group": "control_change"}, {"time": 3559, "annotation": {"number": 64, "value": 0}, "group": "control_change"}, {"time": 3562, "annotation": {"number": 64, "value": 127}, "group": "control_change"}, {"time": 3582, "annotation": {"number": 64, "value": 0}, "group": "control_change"}, {"time": 3586, "annotation": {"number": 64, "value": 127}, "group": "control_change"}, {"time": 3620, "annotation": {"number": 64, "value": 0}, "group": "control_change"}, {"time": 3622, "annotation": {"number": 64, "value": 127}, "group": "control_change"}, {"time": 3676, "annotation": {"number": 64, "value": 0}, "group": "control_change"}, {"time": 3678, "annotation": {"number": 64, "value": 127}, "group": "control_change"}, {"time": 3683, "annotation": {"number": 64, "value": 0}, "group": "control_change"}]}]}