{"metadata": {"schema_version": "0.2", "title": "None", "source_filename": "460.mid", "source_format": "midi"}, "resolution": 12, "tempos": [{"time": 0, "qpm": 72.00011520018433}], "time_signatures": [{"time": 0, "numerator": 1, "denominator": 4}], "tracks": [{"program": 0, "is_drum": false, "name": "MELODY", "notes": [{"time": 238, "pitch": 63, "duration": 4, "velocity": 127}, {"time": 244, "pitch": 60, "duration": 8, "velocity": 112}, {"time": 253, "pitch": 60, "duration": 15, "velocity": 117}, {"time": 280, "pitch": 60, "duration": 3, "velocity": 100}, {"time": 283, "pitch": 55, "duration": 9, "velocity": 99}, {"time": 292, "pitch": 53, "duration": 20, "velocity": 90}, {"time": 334, "pitch": 58, "duration": 2, "velocity": 127}, {"time": 337, "pitch": 60, "duration": 2, "velocity": 102}, {"time": 340, "pitch": 63, "duration": 8, "velocity": 127}, {"time": 352, "pitch": 63, "duration": 9, "velocity": 127}, {"time": 376, "pitch": 58, "duration": 4, "velocity": 122}, {"time": 379, "pitch": 60, "duration": 7, "velocity": 95}, {"time": 388, "pitch": 60, "duration": 19, "velocity": 112}, {"time": 430, "pitch": 63, "duration": 2, "velocity": 127}, {"time": 436, "pitch": 60, "duration": 6, "velocity": 127}, {"time": 445, "pitch": 60, "duration": 14, "velocity": 127}, {"time": 472, "pitch": 58, "duration": 2, "velocity": 122}, {"time": 475, "pitch": 55, "duration": 8, "velocity": 107}, {"time": 484, "pitch": 53, "duration": 20, "velocity": 100}, {"time": 526, "pitch": 58, "duration": 2, "velocity": 122}, {"time": 529, "pitch": 60, "duration": 2, "velocity": 102}, {"time": 532, "pitch": 63, "duration": 8, "velocity": 127}, {"time": 544, "pitch": 63, "duration": 13, "velocity": 127}, {"time": 568, "pitch": 63, "duration": 2, "velocity": 122}, {"time": 571, "pitch": 60, "duration": 6, "velocity": 122}, {"time": 580, "pitch": 60, "duration": 28, "velocity": 122}, {"time": 622, "pitch": 63, "duration": 4, "velocity": 127}, {"time": 628, "pitch": 60, "duration": 8, "velocity": 112}, {"time": 637, "pitch": 60, "duration": 15, "velocity": 117}, {"time": 664, "pitch": 60, "duration": 3, "velocity": 100}, {"time": 667, "pitch": 55, "duration": 9, "velocity": 99}, {"time": 676, "pitch": 53, "duration": 20, "velocity": 90}, {"time": 718, "pitch": 58, "duration": 2, "velocity": 127}, {"time": 721, "pitch": 60, "duration": 2, "velocity": 102}, {"time": 724, "pitch": 63, "duration": 8, "velocity": 127}, {"time": 736, "pitch": 63, "duration": 9, "velocity": 127}, {"time": 760, "pitch": 63, "duration": 4, "velocity": 122}, {"time": 763, "pitch": 60, "duration": 7, "velocity": 95}, {"time": 772, "pitch": 60, "duration": 19, "velocity": 112}, {"time": 814, "pitch": 63, "duration": 2, "velocity": 127}, {"time": 820, "pitch": 60, "duration": 6, "velocity": 127}, {"time": 829, "pitch": 60, "duration": 14, "velocity": 127}, {"time": 856, "pitch": 58, "duration": 2, "velocity": 122}, {"time": 859, "pitch": 55, "duration": 8, "velocity": 107}, {"time": 868, "pitch": 53, "duration": 20, "velocity": 100}, {"time": 910, "pitch": 58, "duration": 2, "velocity": 122}, {"time": 913, "pitch": 60, "duration": 2, "velocity": 102}, {"time": 916, "pitch": 63, "duration": 8, "velocity": 127}, {"time": 928, "pitch": 63, "duration": 13, "velocity": 127}, {"time": 952, "pitch": 63, "duration": 2, "velocity": 122}, {"time": 955, "pitch": 60, "duration": 6, "velocity": 122}, {"time": 964, "pitch": 60, "duration": 28, "velocity": 122}, {"time": 1000, "pitch": 55, "duration": 6, "velocity": 112}, {"time": 1006, "pitch": 58, "duration": 5, "velocity": 122}, {"time": 1012, "pitch": 60, "duration": 18, "velocity": 122}, {"time": 1036, "pitch": 63, "duration": 5, "velocity": 127}, {"time": 1042, "pitch": 62, "duration": 6, "velocity": 127}, {"time": 1048, "pitch": 60, "duration": 5, "velocity": 102}, {"time": 1054, "pitch": 58, "duration": 4, "velocity": 112}, {"time": 1060, "pitch": 58, "duration": 20, "velocity": 127}, {"time": 1078, "pitch": 55, "duration": 3, "velocity": 102}, {"time": 1084, "pitch": 60, "duration": 18, "velocity": 122}, {"time": 1102, "pitch": 60, "duration": 2, "velocity": 112}, {"time": 1105, "pitch": 62, "duration": 2, "velocity": 107}, {"time": 1108, "pitch": 63, "duration": 15, "velocity": 127}, {"time": 1129, "pitch": 63, "duration": 2, "velocity": 127}, {"time": 1132, "pitch": 63, "duration": 5, "velocity": 127}, {"time": 1138, "pitch": 62, "duration": 4, "velocity": 100}, {"time": 1144, "pitch": 60, "duration": 3, "velocity": 97}, {"time": 1147, "pitch": 62, "duration": 8, "velocity": 97}, {"time": 1156, "pitch": 58, "duration": 22, "velocity": 117}, {"time": 1192, "pitch": 55, "duration": 5, "velocity": 102}, {"time": 1198, "pitch": 58, "duration": 6, "velocity": 127}, {"time": 1204, "pitch": 60, "duration": 15, "velocity": 127}, {"time": 1228, "pitch": 63, "duration": 6, "velocity": 127}, {"time": 1234, "pitch": 62, "duration": 6, "velocity": 122}, {"time": 1240, "pitch": 60, "duration": 5, "velocity": 102}, {"time": 1246, "pitch": 58, "duration": 5, "velocity": 112}, {"time": 1252, "pitch": 58, "duration": 6, "velocity": 117}, {"time": 1258, "pitch": 67, "duration": 9, "velocity": 127}, {"time": 1270, "pitch": 65, "duration": 5, "velocity": 127}, {"time": 1276, "pitch": 65, "duration": 6, "velocity": 99}, {"time": 1282, "pitch": 63, "duration": 12, "velocity": 112}, {"time": 1294, "pitch": 63, "duration": 4, "velocity": 127}, {"time": 1297, "pitch": 62, "duration": 2, "velocity": 86}, {"time": 1300, "pitch": 60, "duration": 14, "velocity": 122}, {"time": 1324, "pitch": 58, "duration": 5, "velocity": 127}, {"time": 1330, "pitch": 60, "duration": 4, "velocity": 100}, {"time": 1336, "pitch": 67, "duration": 4, "velocity": 127}, {"time": 1342, "pitch": 65, "duration": 31, "velocity": 127}, {"time": 1384, "pitch": 58, "duration": 3, "velocity": 127}, {"time": 1387, "pitch": 60, "duration": 3, "velocity": 96}, {"time": 1390, "pitch": 63, "duration": 4, "velocity": 127}, {"time": 1393, "pitch": 60, "duration": 3, "velocity": 96}, {"time": 1396, "pitch": 63, "duration": 29, "velocity": 127}, {"time": 1429, "pitch": 58, "duration": 1, "velocity": 112}, {"time": 1432, "pitch": 58, "duration": 2, "velocity": 122}, {"time": 1435, "pitch": 60, "duration": 2, "velocity": 100}, {"time": 1438, "pitch": 63, "duration": 3, "velocity": 122}, {"time": 1444, "pitch": 67, "duration": 34, "velocity": 127}, {"time": 1486, "pitch": 67, "duration": 3, "velocity": 122}, {"time": 1492, "pitch": 65, "duration": 17, "velocity": 127}, {"time": 1510, "pitch": 63, "duration": 3, "velocity": 127}, {"time": 1513, "pitch": 60, "duration": 14, "velocity": 117}, {"time": 1534, "pitch": 67, "duration": 5, "velocity": 112}, {"time": 1540, "pitch": 65, "duration": 17, "velocity": 127}, {"time": 1558, "pitch": 63, "duration": 4, "velocity": 122}, {"time": 1561, "pitch": 60, "duration": 3, "velocity": 96}, {"time": 1564, "pitch": 58, "duration": 10, "velocity": 122}, {"time": 1576, "pitch": 58, "duration": 3, "velocity": 127}, {"time": 1579, "pitch": 60, "duration": 3, "velocity": 102}, {"time": 1582, "pitch": 63, "duration": 4, "velocity": 117}, {"time": 1585, "pitch": 60, "duration": 3, "velocity": 97}, {"time": 1588, "pitch": 63, "duration": 23, "velocity": 117}, {"time": 1621, "pitch": 58, "duration": 2, "velocity": 122}, {"time": 1624, "pitch": 58, "duration": 2, "velocity": 127}, {"time": 1627, "pitch": 60, "duration": 3, "velocity": 117}, {"time": 1630, "pitch": 63, "duration": 4, "velocity": 127}, {"time": 1636, "pitch": 67, "duration": 17, "velocity": 127}, {"time": 1678, "pitch": 67, "duration": 7, "velocity": 117}, {"time": 1684, "pitch": 65, "duration": 18, "velocity": 127}, {"time": 1702, "pitch": 63, "duration": 4, "velocity": 127}, {"time": 1705, "pitch": 60, "duration": 17, "velocity": 96}, {"time": 1726, "pitch": 67, "duration": 4, "velocity": 127}, {"time": 1732, "pitch": 65, "duration": 33, "velocity": 127}, {"time": 2158, "pitch": 63, "duration": 4, "velocity": 127}, {"time": 2164, "pitch": 60, "duration": 8, "velocity": 112}, {"time": 2173, "pitch": 60, "duration": 15, "velocity": 117}, {"time": 2200, "pitch": 60, "duration": 3, "velocity": 100}, {"time": 2203, "pitch": 55, "duration": 9, "velocity": 99}, {"time": 2212, "pitch": 53, "duration": 20, "velocity": 90}, {"time": 2254, "pitch": 58, "duration": 2, "velocity": 127}, {"time": 2257, "pitch": 60, "duration": 2, "velocity": 102}, {"time": 2260, "pitch": 63, "duration": 8, "velocity": 127}, {"time": 2272, "pitch": 63, "duration": 9, "velocity": 127}, {"time": 2296, "pitch": 63, "duration": 4, "velocity": 122}, {"time": 2299, "pitch": 60, "duration": 7, "velocity": 95}, {"time": 2308, "pitch": 60, "duration": 19, "velocity": 112}, {"time": 2350, "pitch": 63, "duration": 2, "velocity": 127}, {"time": 2356, "pitch": 60, "duration": 6, "velocity": 127}, {"time": 2365, "pitch": 60, "duration": 14, "velocity": 127}, {"time": 2392, "pitch": 58, "duration": 2, "velocity": 122}, {"time": 2395, "pitch": 55, "duration": 8, "velocity": 107}, {"time": 2404, "pitch": 53, "duration": 20, "velocity": 100}, {"time": 2446, "pitch": 58, "duration": 2, "velocity": 122}, {"time": 2449, "pitch": 60, "duration": 2, "velocity": 102}, {"time": 2452, "pitch": 63, "duration": 8, "velocity": 127}, {"time": 2464, "pitch": 63, "duration": 13, "velocity": 127}, {"time": 2488, "pitch": 63, "duration": 2, "velocity": 122}, {"time": 2491, "pitch": 60, "duration": 6, "velocity": 122}, {"time": 2500, "pitch": 60, "duration": 28, "velocity": 122}, {"time": 2536, "pitch": 55, "duration": 6, "velocity": 112}, {"time": 2542, "pitch": 58, "duration": 5, "velocity": 122}, {"time": 2548, "pitch": 60, "duration": 18, "velocity": 122}, {"time": 2572, "pitch": 63, "duration": 5, "velocity": 127}, {"time": 2578, "pitch": 62, "duration": 6, "velocity": 127}, {"time": 2584, "pitch": 60, "duration": 5, "velocity": 102}, {"time": 2590, "pitch": 58, "duration": 4, "velocity": 112}, {"time": 2596, "pitch": 58, "duration": 20, "velocity": 127}, {"time": 2614, "pitch": 55, "duration": 3, "velocity": 102}, {"time": 2620, "pitch": 60, "duration": 18, "velocity": 122}, {"time": 2638, "pitch": 60, "duration": 2, "velocity": 112}, {"time": 2641, "pitch": 62, "duration": 2, "velocity": 107}, {"time": 2644, "pitch": 63, "duration": 15, "velocity": 127}, {"time": 2665, "pitch": 63, "duration": 2, "velocity": 127}, {"time": 2668, "pitch": 63, "duration": 5, "velocity": 127}, {"time": 2674, "pitch": 62, "duration": 4, "velocity": 100}, {"time": 2680, "pitch": 60, "duration": 3, "velocity": 97}, {"time": 2683, "pitch": 62, "duration": 8, "velocity": 97}, {"time": 2692, "pitch": 58, "duration": 22, "velocity": 117}, {"time": 2728, "pitch": 55, "duration": 5, "velocity": 102}, {"time": 2734, "pitch": 58, "duration": 6, "velocity": 127}, {"time": 2740, "pitch": 60, "duration": 15, "velocity": 127}, {"time": 2764, "pitch": 63, "duration": 6, "velocity": 127}, {"time": 2770, "pitch": 62, "duration": 6, "velocity": 122}, {"time": 2776, "pitch": 60, "duration": 5, "velocity": 102}, {"time": 2782, "pitch": 58, "duration": 5, "velocity": 112}, {"time": 2788, "pitch": 58, "duration": 6, "velocity": 117}, {"time": 2794, "pitch": 67, "duration": 9, "velocity": 127}, {"time": 2806, "pitch": 65, "duration": 5, "velocity": 127}, {"time": 2812, "pitch": 65, "duration": 6, "velocity": 99}, {"time": 2818, "pitch": 63, "duration": 12, "velocity": 112}, {"time": 2830, "pitch": 63, "duration": 4, "velocity": 127}, {"time": 2833, "pitch": 62, "duration": 2, "velocity": 86}, {"time": 2836, "pitch": 60, "duration": 14, "velocity": 122}, {"time": 2860, "pitch": 58, "duration": 5, "velocity": 127}, {"time": 2866, "pitch": 60, "duration": 4, "velocity": 100}, {"time": 2872, "pitch": 67, "duration": 4, "velocity": 127}, {"time": 2878, "pitch": 65, "duration": 31, "velocity": 127}, {"time": 2920, "pitch": 58, "duration": 3, "velocity": 127}, {"time": 2923, "pitch": 60, "duration": 3, "velocity": 96}, {"time": 2926, "pitch": 63, "duration": 4, "velocity": 127}, {"time": 2929, "pitch": 60, "duration": 3, "velocity": 96}, {"time": 2932, "pitch": 63, "duration": 29, "velocity": 127}, {"time": 2965, "pitch": 58, "duration": 1, "velocity": 112}, {"time": 2968, "pitch": 58, "duration": 2, "velocity": 122}, {"time": 2971, "pitch": 60, "duration": 2, "velocity": 100}, {"time": 2974, "pitch": 63, "duration": 3, "velocity": 122}, {"time": 2980, "pitch": 67, "duration": 34, "velocity": 127}, {"time": 3022, "pitch": 67, "duration": 3, "velocity": 122}, {"time": 3028, "pitch": 65, "duration": 17, "velocity": 127}, {"time": 3046, "pitch": 63, "duration": 3, "velocity": 127}, {"time": 3049, "pitch": 60, "duration": 14, "velocity": 117}, {"time": 3070, "pitch": 67, "duration": 5, "velocity": 112}, {"time": 3076, "pitch": 65, "duration": 17, "velocity": 127}, {"time": 3094, "pitch": 63, "duration": 4, "velocity": 122}, {"time": 3097, "pitch": 60, "duration": 3, "velocity": 96}, {"time": 3100, "pitch": 58, "duration": 10, "velocity": 122}, {"time": 3112, "pitch": 58, "duration": 3, "velocity": 127}, {"time": 3115, "pitch": 60, "duration": 3, "velocity": 102}, {"time": 3118, "pitch": 63, "duration": 4, "velocity": 117}, {"time": 3121, "pitch": 60, "duration": 3, "velocity": 97}, {"time": 3124, "pitch": 63, "duration": 23, "velocity": 117}, {"time": 3157, "pitch": 58, "duration": 2, "velocity": 122}, {"time": 3160, "pitch": 58, "duration": 2, "velocity": 127}, {"time": 3163, "pitch": 60, "duration": 3, "velocity": 117}, {"time": 3166, "pitch": 63, "duration": 4, "velocity": 127}, {"time": 3172, "pitch": 67, "duration": 17, "velocity": 127}, {"time": 3214, "pitch": 67, "duration": 7, "velocity": 117}, {"time": 3220, "pitch": 65, "duration": 18, "velocity": 127}, {"time": 3238, "pitch": 63, "duration": 4, "velocity": 127}, {"time": 3241, "pitch": 60, "duration": 17, "velocity": 96}, {"time": 3262, "pitch": 67, "duration": 4, "velocity": 127}, {"time": 3268, "pitch": 65, "duration": 33, "velocity": 127}, {"time": 3304, "pitch": 58, "duration": 3, "velocity": 127}, {"time": 3307, "pitch": 60, "duration": 3, "velocity": 96}, {"time": 3310, "pitch": 63, "duration": 4, "velocity": 127}, {"time": 3313, "pitch": 60, "duration": 3, "velocity": 96}, {"time": 3316, "pitch": 63, "duration": 29, "velocity": 127}, {"time": 3349, "pitch": 58, "duration": 1, "velocity": 112}, {"time": 3352, "pitch": 58, "duration": 2, "velocity": 122}, {"time": 3355, "pitch": 60, "duration": 2, "velocity": 100}, {"time": 3358, "pitch": 63, "duration": 3, "velocity": 122}, {"time": 3364, "pitch": 67, "duration": 34, "velocity": 127}, {"time": 3406, "pitch": 67, "duration": 3, "velocity": 122}, {"time": 3412, "pitch": 65, "duration": 17, "velocity": 127}, {"time": 3430, "pitch": 63, "duration": 3, "velocity": 127}, {"time": 3433, "pitch": 60, "duration": 14, "velocity": 117}, {"time": 3454, "pitch": 67, "duration": 5, "velocity": 112}, {"time": 3460, "pitch": 65, "duration": 17, "velocity": 127}, {"time": 3478, "pitch": 63, "duration": 4, "velocity": 122}, {"time": 3481, "pitch": 60, "duration": 3, "velocity": 96}, {"time": 3484, "pitch": 58, "duration": 10, "velocity": 122}, {"time": 3496, "pitch": 58, "duration": 3, "velocity": 127}, {"time": 3499, "pitch": 60, "duration": 3, "velocity": 102}, {"time": 3502, "pitch": 63, "duration": 4, "velocity": 117}, {"time": 3505, "pitch": 60, "duration": 3, "velocity": 97}, {"time": 3508, "pitch": 63, "duration": 23, "velocity": 117}, {"time": 3541, "pitch": 58, "duration": 2, "velocity": 122}, {"time": 3544, "pitch": 58, "duration": 2, "velocity": 127}, {"time": 3547, "pitch": 60, "duration": 3, "velocity": 117}, {"time": 3550, "pitch": 63, "duration": 4, "velocity": 127}, {"time": 3556, "pitch": 67, "duration": 17, "velocity": 127}, {"time": 3598, "pitch": 67, "duration": 7, "velocity": 117}, {"time": 3604, "pitch": 65, "duration": 18, "velocity": 127}, {"time": 3622, "pitch": 63, "duration": 4, "velocity": 127}, {"time": 3625, "pitch": 60, "duration": 17, "velocity": 96}, {"time": 3646, "pitch": 67, "duration": 4, "velocity": 127}, {"time": 3652, "pitch": 65, "duration": 33, "velocity": 127}, {"time": 3694, "pitch": 63, "duration": 4, "velocity": 102}, {"time": 3700, "pitch": 60, "duration": 9, "velocity": 100}, {"time": 3709, "pitch": 60, "duration": 26, "velocity": 95}, {"time": 3736, "pitch": 58, "duration": 2, "velocity": 127}, {"time": 3739, "pitch": 55, "duration": 9, "velocity": 107}, {"time": 3748, "pitch": 53, "duration": 32, "velocity": 95}, {"time": 3790, "pitch": 58, "duration": 3, "velocity": 112}, {"time": 3793, "pitch": 60, "duration": 2, "velocity": 100}, {"time": 3796, "pitch": 63, "duration": 8, "velocity": 122}, {"time": 3808, "pitch": 63, "duration": 11, "velocity": 127}, {"time": 3850, "pitch": 58, "duration": 5, "velocity": 97}, {"time": 3859, "pitch": 60, "duration": 27, "velocity": 96}, {"time": 3889, "pitch": 60, "duration": 89, "velocity": 86}]}, {"program": 0, "is_drum": false, "name": "PIANO", "notes": [{"time": 52, "pitch": 39, "duration": 36, "velocity": 77}, {"time": 52, "pitch": 63, "duration": 7, "velocity": 90}, {"time": 52, "pitch": 67, "duration": 6, "velocity": 93}, {"time": 52, "pitch": 70, "duration": 6, "velocity": 78}, {"time": 58, "pitch": 51, "duration": 8, "velocity": 64}, {"time": 64, "pitch": 63, "duration": 2, "velocity": 99}, {"time": 64, "pitch": 67, "duration": 1, "velocity": 102}, {"time": 64, "pitch": 70, "duration": 1, "velocity": 97}, {"time": 70, "pitch": 51, "duration": 11, "velocity": 55}, {"time": 73, "pitch": 63, "duration": 2, "velocity": 77}, {"time": 73, "pitch": 67, "duration": 1, "velocity": 75}, {"time": 73, "pitch": 70, "duration": 2, "velocity": 73}, {"time": 79, "pitch": 67, "duration": 2, "velocity": 100}, {"time": 79, "pitch": 70, "duration": 2, "velocity": 95}, {"time": 85, "pitch": 51, "duration": 5, "velocity": 48}, {"time": 88, "pitch": 63, "duration": 3, "velocity": 95}, {"time": 88, "pitch": 67, "duration": 2, "velocity": 102}, {"time": 88, "pitch": 70, "duration": 3, "velocity": 97}, {"time": 94, "pitch": 63, "duration": 2, "velocity": 102}, {"time": 94, "pitch": 70, "duration": 1, "velocity": 72}, {"time": 100, "pitch": 48, "duration": 36, "velocity": 70}, {"time": 100, "pitch": 60, "duration": 7, "velocity": 81}, {"time": 100, "pitch": 63, "duration": 6, "velocity": 85}, {"time": 100, "pitch": 67, "duration": 7, "velocity": 73}, {"time": 106, "pitch": 55, "duration": 8, "velocity": 56}, {"time": 112, "pitch": 60, "duration": 2, "velocity": 89}, {"time": 112, "pitch": 63, "duration": 2, "velocity": 117}, {"time": 112, "pitch": 67, "duration": 2, "velocity": 83}, {"time": 118, "pitch": 55, "duration": 11, "velocity": 56}, {"time": 121, "pitch": 60, "duration": 2, "velocity": 75}, {"time": 121, "pitch": 63, "duration": 2, "velocity": 93}, {"time": 121, "pitch": 67, "duration": 2, "velocity": 71}, {"time": 127, "pitch": 60, "duration": 1, "velocity": 66}, {"time": 127, "pitch": 63, "duration": 1, "velocity": 88}, {"time": 127, "pitch": 67, "duration": 1, "velocity": 67}, {"time": 133, "pitch": 55, "duration": 2, "velocity": 79}, {"time": 136, "pitch": 60, "duration": 2, "velocity": 70}, {"time": 136, "pitch": 63, "duration": 2, "velocity": 107}, {"time": 136, "pitch": 67, "duration": 2, "velocity": 83}, {"time": 142, "pitch": 63, "duration": 2, "velocity": 112}, {"time": 142, "pitch": 67, "duration": 2, "velocity": 86}, {"time": 148, "pitch": 46, "duration": 37, "velocity": 77}, {"time": 148, "pitch": 53, "duration": 36, "velocity": 78}, {"time": 148, "pitch": 58, "duration": 14, "velocity": 92}, {"time": 154, "pitch": 62, "duration": 6, "velocity": 73}, {"time": 160, "pitch": 62, "duration": 2, "velocity": 77}, {"time": 160, "pitch": 65, "duration": 1, "velocity": 89}, {"time": 160, "pitch": 70, "duration": 2, "velocity": 97}, {"time": 166, "pitch": 58, "duration": 12, "velocity": 67}, {"time": 169, "pitch": 62, "duration": 2, "velocity": 79}, {"time": 169, "pitch": 65, "duration": 1, "velocity": 88}, {"time": 169, "pitch": 70, "duration": 2, "velocity": 95}, {"time": 175, "pitch": 65, "duration": 2, "velocity": 86}, {"time": 175, "pitch": 70, "duration": 2, "velocity": 100}, {"time": 181, "pitch": 58, "duration": 4, "velocity": 76}, {"time": 184, "pitch": 65, "duration": 5, "velocity": 96}, {"time": 184, "pitch": 70, "duration": 10, "velocity": 102}, {"time": 190, "pitch": 62, "duration": 5, "velocity": 90}, {"time": 190, "pitch": 65, "duration": 1, "velocity": 39}, {"time": 193, "pitch": 65, "duration": 3, "velocity": 75}, {"time": 196, "pitch": 36, "duration": 38, "velocity": 82}, {"time": 202, "pitch": 43, "duration": 33, "velocity": 51}, {"time": 208, "pitch": 60, "duration": 2, "velocity": 89}, {"time": 208, "pitch": 63, "duration": 2, "velocity": 97}, {"time": 208, "pitch": 67, "duration": 2, "velocity": 77}, {"time": 214, "pitch": 48, "duration": 21, "velocity": 61}, {"time": 217, "pitch": 60, "duration": 2, "velocity": 86}, {"time": 217, "pitch": 63, "duration": 2, "velocity": 100}, {"time": 217, "pitch": 67, "duration": 2, "velocity": 79}, {"time": 244, "pitch": 48, "duration": 40, "velocity": 71}, {"time": 250, "pitch": 55, "duration": 9, "velocity": 56}, {"time": 256, "pitch": 60, "duration": 2, "velocity": 85}, {"time": 256, "pitch": 63, "duration": 2, "velocity": 97}, {"time": 256, "pitch": 67, "duration": 2, "velocity": 79}, {"time": 262, "pitch": 55, "duration": 8, "velocity": 59}, {"time": 265, "pitch": 60, "duration": 9, "velocity": 77}, {"time": 265, "pitch": 63, "duration": 9, "velocity": 96}, {"time": 265, "pitch": 67, "duration": 9, "velocity": 73}, {"time": 274, "pitch": 55, "duration": 7, "velocity": 70}, {"time": 280, "pitch": 63, "duration": 7, "velocity": 100}, {"time": 280, "pitch": 67, "duration": 12, "velocity": 72}, {"time": 283, "pitch": 55, "duration": 2, "velocity": 62}, {"time": 286, "pitch": 60, "duration": 6, "velocity": 93}, {"time": 289, "pitch": 63, "duration": 3, "velocity": 86}, {"time": 292, "pitch": 46, "duration": 36, "velocity": 85}, {"time": 298, "pitch": 53, "duration": 29, "velocity": 67}, {"time": 304, "pitch": 58, "duration": 4, "velocity": 69}, {"time": 304, "pitch": 62, "duration": 1, "velocity": 78}, {"time": 304, "pitch": 65, "duration": 1, "velocity": 82}, {"time": 304, "pitch": 70, "duration": 2, "velocity": 82}, {"time": 310, "pitch": 58, "duration": 11, "velocity": 52}, {"time": 313, "pitch": 62, "duration": 2, "velocity": 75}, {"time": 313, "pitch": 65, "duration": 2, "velocity": 82}, {"time": 313, "pitch": 70, "duration": 2, "velocity": 89}, {"time": 319, "pitch": 65, "duration": 1, "velocity": 79}, {"time": 319, "pitch": 70, "duration": 2, "velocity": 92}, {"time": 325, "pitch": 58, "duration": 3, "velocity": 82}, {"time": 328, "pitch": 65, "duration": 10, "velocity": 82}, {"time": 328, "pitch": 70, "duration": 12, "velocity": 92}, {"time": 334, "pitch": 62, "duration": 6, "velocity": 83}, {"time": 340, "pitch": 39, "duration": 39, "velocity": 79}, {"time": 346, "pitch": 46, "duration": 8, "velocity": 27}, {"time": 352, "pitch": 51, "duration": 12, "velocity": 71}, {"time": 352, "pitch": 63, "duration": 2, "velocity": 97}, {"time": 352, "pitch": 67, "duration": 1, "velocity": 92}, {"time": 352, "pitch": 70, "duration": 1, "velocity": 88}, {"time": 358, "pitch": 46, "duration": 20, "velocity": 36}, {"time": 361, "pitch": 63, "duration": 2, "velocity": 85}, {"time": 361, "pitch": 67, "duration": 2, "velocity": 82}, {"time": 361, "pitch": 70, "duration": 2, "velocity": 72}, {"time": 364, "pitch": 51, "duration": 3, "velocity": 26}, {"time": 367, "pitch": 63, "duration": 2, "velocity": 78}, {"time": 367, "pitch": 67, "duration": 1, "velocity": 83}, {"time": 367, "pitch": 70, "duration": 2, "velocity": 67}, {"time": 373, "pitch": 51, "duration": 4, "velocity": 74}, {"time": 376, "pitch": 51, "duration": 1, "velocity": 66}, {"time": 376, "pitch": 67, "duration": 2, "velocity": 99}, {"time": 376, "pitch": 70, "duration": 2, "velocity": 88}, {"time": 382, "pitch": 67, "duration": 2, "velocity": 100}, {"time": 382, "pitch": 70, "duration": 5, "velocity": 93}, {"time": 385, "pitch": 63, "duration": 2, "velocity": 86}, {"time": 388, "pitch": 48, "duration": 42, "velocity": 78}, {"time": 394, "pitch": 55, "duration": 9, "velocity": 52}, {"time": 400, "pitch": 60, "duration": 2, "velocity": 81}, {"time": 400, "pitch": 63, "duration": 2, "velocity": 93}, {"time": 400, "pitch": 67, "duration": 2, "velocity": 73}, {"time": 406, "pitch": 55, "duration": 12, "velocity": 63}, {"time": 409, "pitch": 60, "duration": 2, "velocity": 75}, {"time": 409, "pitch": 63, "duration": 1, "velocity": 92}, {"time": 409, "pitch": 67, "duration": 2, "velocity": 69}, {"time": 415, "pitch": 60, "duration": 2, "velocity": 74}, {"time": 415, "pitch": 63, "duration": 2, "velocity": 88}, {"time": 415, "pitch": 67, "duration": 2, "velocity": 69}, {"time": 421, "pitch": 55, "duration": 4, "velocity": 77}, {"time": 424, "pitch": 63, "duration": 7, "velocity": 117}, {"time": 424, "pitch": 67, "duration": 8, "velocity": 90}, {"time": 427, "pitch": 55, "duration": 3, "velocity": 86}, {"time": 430, "pitch": 60, "duration": 6, "velocity": 90}, {"time": 436, "pitch": 48, "duration": 38, "velocity": 89}, {"time": 442, "pitch": 55, "duration": 8, "velocity": 73}, {"time": 448, "pitch": 60, "duration": 2, "velocity": 82}, {"time": 448, "pitch": 63, "duration": 2, "velocity": 97}, {"time": 448, "pitch": 67, "duration": 2, "velocity": 74}, {"time": 454, "pitch": 55, "duration": 12, "velocity": 58}, {"time": 457, "pitch": 60, "duration": 2, "velocity": 69}, {"time": 457, "pitch": 63, "duration": 2, "velocity": 85}, {"time": 457, "pitch": 67, "duration": 2, "velocity": 65}, {"time": 463, "pitch": 63, "duration": 2, "velocity": 85}, {"time": 463, "pitch": 67, "duration": 2, "velocity": 65}, {"time": 469, "pitch": 55, "duration": 4, "velocity": 74}, {"time": 472, "pitch": 63, "duration": 4, "velocity": 100}, {"time": 472, "pitch": 67, "duration": 5, "velocity": 72}, {"time": 478, "pitch": 60, "duration": 7, "velocity": 68}, {"time": 478, "pitch": 63, "duration": 3, "velocity": 100}, {"time": 478, "pitch": 67, "duration": 5, "velocity": 69}, {"time": 484, "pitch": 46, "duration": 36, "velocity": 97}, {"time": 490, "pitch": 53, "duration": 29, "velocity": 48}, {"time": 496, "pitch": 62, "duration": 2, "velocity": 86}, {"time": 496, "pitch": 65, "duration": 2, "velocity": 89}, {"time": 496, "pitch": 70, "duration": 2, "velocity": 93}, {"time": 502, "pitch": 58, "duration": 6, "velocity": 79}, {"time": 505, "pitch": 62, "duration": 2, "velocity": 77}, {"time": 505, "pitch": 65, "duration": 2, "velocity": 88}, {"time": 505, "pitch": 70, "duration": 2, "velocity": 81}, {"time": 511, "pitch": 62, "duration": 2, "velocity": 70}, {"time": 511, "pitch": 65, "duration": 2, "velocity": 77}, {"time": 511, "pitch": 70, "duration": 2, "velocity": 77}, {"time": 517, "pitch": 58, "duration": 2, "velocity": 72}, {"time": 520, "pitch": 62, "duration": 2, "velocity": 79}, {"time": 520, "pitch": 65, "duration": 2, "velocity": 85}, {"time": 520, "pitch": 70, "duration": 2, "velocity": 85}, {"time": 526, "pitch": 62, "duration": 4, "velocity": 77}, {"time": 526, "pitch": 65, "duration": 2, "velocity": 78}, {"time": 526, "pitch": 70, "duration": 4, "velocity": 83}, {"time": 532, "pitch": 39, "duration": 41, "velocity": 73}, {"time": 538, "pitch": 46, "duration": 9, "velocity": 53}, {"time": 544, "pitch": 51, "duration": 17, "velocity": 57}, {"time": 544, "pitch": 63, "duration": 2, "velocity": 88}, {"time": 544, "pitch": 67, "duration": 2, "velocity": 90}, {"time": 544, "pitch": 70, "duration": 2, "velocity": 79}, {"time": 550, "pitch": 46, "duration": 22, "velocity": 36}, {"time": 553, "pitch": 63, "duration": 2, "velocity": 88}, {"time": 553, "pitch": 67, "duration": 1, "velocity": 97}, {"time": 553, "pitch": 70, "duration": 1, "velocity": 83}, {"time": 559, "pitch": 63, "duration": 2, "velocity": 74}, {"time": 559, "pitch": 67, "duration": 2, "velocity": 83}, {"time": 559, "pitch": 70, "duration": 2, "velocity": 59}, {"time": 565, "pitch": 51, "duration": 4, "velocity": 65}, {"time": 568, "pitch": 63, "duration": 2, "velocity": 89}, {"time": 568, "pitch": 67, "duration": 2, "velocity": 96}, {"time": 568, "pitch": 70, "duration": 2, "velocity": 90}, {"time": 571, "pitch": 51, "duration": 2, "velocity": 79}, {"time": 574, "pitch": 67, "duration": 2, "velocity": 93}, {"time": 574, "pitch": 70, "duration": 2, "velocity": 77}, {"time": 577, "pitch": 63, "duration": 2, "velocity": 90}, {"time": 580, "pitch": 36, "duration": 46, "velocity": 67}, {"time": 586, "pitch": 48, "duration": 25, "velocity": 58}, {"time": 592, "pitch": 60, "duration": 2, "velocity": 79}, {"time": 592, "pitch": 63, "duration": 2, "velocity": 95}, {"time": 592, "pitch": 67, "duration": 2, "velocity": 72}, {"time": 598, "pitch": 43, "duration": 27, "velocity": 43}, {"time": 601, "pitch": 60, "duration": 2, "velocity": 77}, {"time": 601, "pitch": 63, "duration": 2, "velocity": 96}, {"time": 601, "pitch": 67, "duration": 2, "velocity": 75}, {"time": 607, "pitch": 60, "duration": 2, "velocity": 72}, {"time": 607, "pitch": 63, "duration": 2, "velocity": 86}, {"time": 607, "pitch": 67, "duration": 2, "velocity": 69}, {"time": 613, "pitch": 48, "duration": 11, "velocity": 48}, {"time": 616, "pitch": 60, "duration": 2, "velocity": 79}, {"time": 616, "pitch": 63, "duration": 2, "velocity": 99}, {"time": 616, "pitch": 67, "duration": 2, "velocity": 76}, {"time": 622, "pitch": 60, "duration": 2, "velocity": 72}, {"time": 622, "pitch": 63, "duration": 1, "velocity": 88}, {"time": 622, "pitch": 67, "duration": 2, "velocity": 63}, {"time": 628, "pitch": 48, "duration": 40, "velocity": 71}, {"time": 634, "pitch": 55, "duration": 9, "velocity": 56}, {"time": 640, "pitch": 60, "duration": 2, "velocity": 85}, {"time": 640, "pitch": 63, "duration": 2, "velocity": 97}, {"time": 640, "pitch": 67, "duration": 2, "velocity": 79}, {"time": 646, "pitch": 55, "duration": 8, "velocity": 59}, {"time": 649, "pitch": 60, "duration": 9, "velocity": 77}, {"time": 649, "pitch": 63, "duration": 9, "velocity": 96}, {"time": 649, "pitch": 67, "duration": 9, "velocity": 73}, {"time": 658, "pitch": 55, "duration": 7, "velocity": 70}, {"time": 664, "pitch": 63, "duration": 7, "velocity": 100}, {"time": 664, "pitch": 67, "duration": 12, "velocity": 72}, {"time": 667, "pitch": 55, "duration": 2, "velocity": 62}, {"time": 670, "pitch": 60, "duration": 6, "velocity": 93}, {"time": 673, "pitch": 63, "duration": 3, "velocity": 86}, {"time": 676, "pitch": 46, "duration": 36, "velocity": 85}, {"time": 682, "pitch": 53, "duration": 29, "velocity": 67}, {"time": 688, "pitch": 58, "duration": 4, "velocity": 69}, {"time": 688, "pitch": 62, "duration": 1, "velocity": 78}, {"time": 688, "pitch": 65, "duration": 1, "velocity": 82}, {"time": 688, "pitch": 70, "duration": 2, "velocity": 82}, {"time": 694, "pitch": 58, "duration": 11, "velocity": 52}, {"time": 697, "pitch": 62, "duration": 2, "velocity": 75}, {"time": 697, "pitch": 65, "duration": 2, "velocity": 82}, {"time": 697, "pitch": 70, "duration": 2, "velocity": 89}, {"time": 703, "pitch": 65, "duration": 1, "velocity": 79}, {"time": 703, "pitch": 70, "duration": 2, "velocity": 92}, {"time": 709, "pitch": 58, "duration": 3, "velocity": 82}, {"time": 712, "pitch": 65, "duration": 10, "velocity": 82}, {"time": 712, "pitch": 70, "duration": 12, "velocity": 92}, {"time": 718, "pitch": 62, "duration": 6, "velocity": 83}, {"time": 724, "pitch": 39, "duration": 39, "velocity": 79}, {"time": 730, "pitch": 46, "duration": 8, "velocity": 27}, {"time": 736, "pitch": 51, "duration": 12, "velocity": 71}, {"time": 736, "pitch": 63, "duration": 2, "velocity": 97}, {"time": 736, "pitch": 67, "duration": 1, "velocity": 92}, {"time": 736, "pitch": 70, "duration": 1, "velocity": 88}, {"time": 742, "pitch": 46, "duration": 20, "velocity": 36}, {"time": 745, "pitch": 63, "duration": 2, "velocity": 85}, {"time": 745, "pitch": 67, "duration": 2, "velocity": 82}, {"time": 745, "pitch": 70, "duration": 2, "velocity": 72}, {"time": 748, "pitch": 51, "duration": 3, "velocity": 26}, {"time": 751, "pitch": 63, "duration": 2, "velocity": 78}, {"time": 751, "pitch": 67, "duration": 1, "velocity": 83}, {"time": 751, "pitch": 70, "duration": 2, "velocity": 67}, {"time": 757, "pitch": 51, "duration": 4, "velocity": 74}, {"time": 760, "pitch": 51, "duration": 1, "velocity": 66}, {"time": 760, "pitch": 67, "duration": 2, "velocity": 99}, {"time": 760, "pitch": 70, "duration": 2, "velocity": 88}, {"time": 766, "pitch": 67, "duration": 2, "velocity": 100}, {"time": 766, "pitch": 70, "duration": 5, "velocity": 93}, {"time": 769, "pitch": 63, "duration": 2, "velocity": 86}, {"time": 772, "pitch": 48, "duration": 42, "velocity": 78}, {"time": 778, "pitch": 55, "duration": 9, "velocity": 52}, {"time": 784, "pitch": 60, "duration": 2, "velocity": 81}, {"time": 784, "pitch": 63, "duration": 2, "velocity": 93}, {"time": 784, "pitch": 67, "duration": 2, "velocity": 73}, {"time": 790, "pitch": 55, "duration": 12, "velocity": 63}, {"time": 793, "pitch": 60, "duration": 2, "velocity": 75}, {"time": 793, "pitch": 63, "duration": 1, "velocity": 92}, {"time": 793, "pitch": 67, "duration": 2, "velocity": 69}, {"time": 799, "pitch": 60, "duration": 2, "velocity": 74}, {"time": 799, "pitch": 63, "duration": 2, "velocity": 88}, {"time": 799, "pitch": 67, "duration": 2, "velocity": 69}, {"time": 805, "pitch": 55, "duration": 4, "velocity": 77}, {"time": 808, "pitch": 63, "duration": 7, "velocity": 117}, {"time": 808, "pitch": 67, "duration": 8, "velocity": 90}, {"time": 811, "pitch": 55, "duration": 3, "velocity": 86}, {"time": 814, "pitch": 60, "duration": 6, "velocity": 90}, {"time": 820, "pitch": 48, "duration": 38, "velocity": 89}, {"time": 826, "pitch": 55, "duration": 8, "velocity": 73}, {"time": 832, "pitch": 60, "duration": 2, "velocity": 82}, {"time": 832, "pitch": 63, "duration": 2, "velocity": 97}, {"time": 832, "pitch": 67, "duration": 2, "velocity": 74}, {"time": 838, "pitch": 55, "duration": 12, "velocity": 58}, {"time": 841, "pitch": 60, "duration": 2, "velocity": 69}, {"time": 841, "pitch": 63, "duration": 2, "velocity": 85}, {"time": 841, "pitch": 67, "duration": 2, "velocity": 65}, {"time": 847, "pitch": 63, "duration": 2, "velocity": 85}, {"time": 847, "pitch": 67, "duration": 2, "velocity": 65}, {"time": 853, "pitch": 55, "duration": 4, "velocity": 74}, {"time": 856, "pitch": 63, "duration": 4, "velocity": 100}, {"time": 856, "pitch": 67, "duration": 5, "velocity": 72}, {"time": 862, "pitch": 60, "duration": 7, "velocity": 68}, {"time": 862, "pitch": 63, "duration": 3, "velocity": 100}, {"time": 862, "pitch": 67, "duration": 5, "velocity": 69}, {"time": 868, "pitch": 46, "duration": 36, "velocity": 97}, {"time": 874, "pitch": 53, "duration": 29, "velocity": 48}, {"time": 880, "pitch": 62, "duration": 2, "velocity": 86}, {"time": 880, "pitch": 65, "duration": 2, "velocity": 89}, {"time": 880, "pitch": 70, "duration": 2, "velocity": 93}, {"time": 886, "pitch": 58, "duration": 6, "velocity": 79}, {"time": 889, "pitch": 62, "duration": 2, "velocity": 77}, {"time": 889, "pitch": 65, "duration": 2, "velocity": 88}, {"time": 889, "pitch": 70, "duration": 2, "velocity": 81}, {"time": 895, "pitch": 62, "duration": 2, "velocity": 70}, {"time": 895, "pitch": 65, "duration": 2, "velocity": 77}, {"time": 895, "pitch": 70, "duration": 2, "velocity": 77}, {"time": 901, "pitch": 58, "duration": 2, "velocity": 72}, {"time": 904, "pitch": 62, "duration": 2, "velocity": 79}, {"time": 904, "pitch": 65, "duration": 2, "velocity": 85}, {"time": 904, "pitch": 70, "duration": 2, "velocity": 85}, {"time": 910, "pitch": 62, "duration": 4, "velocity": 77}, {"time": 910, "pitch": 65, "duration": 2, "velocity": 78}, {"time": 910, "pitch": 70, "duration": 4, "velocity": 83}, {"time": 916, "pitch": 39, "duration": 41, "velocity": 73}, {"time": 922, "pitch": 46, "duration": 9, "velocity": 53}, {"time": 928, "pitch": 51, "duration": 17, "velocity": 57}, {"time": 928, "pitch": 63, "duration": 2, "velocity": 88}, {"time": 928, "pitch": 67, "duration": 2, "velocity": 90}, {"time": 928, "pitch": 70, "duration": 2, "velocity": 79}, {"time": 934, "pitch": 46, "duration": 22, "velocity": 36}, {"time": 937, "pitch": 63, "duration": 2, "velocity": 88}, {"time": 937, "pitch": 67, "duration": 1, "velocity": 97}, {"time": 937, "pitch": 70, "duration": 1, "velocity": 83}, {"time": 943, "pitch": 63, "duration": 2, "velocity": 74}, {"time": 943, "pitch": 67, "duration": 2, "velocity": 83}, {"time": 943, "pitch": 70, "duration": 2, "velocity": 59}, {"time": 949, "pitch": 51, "duration": 4, "velocity": 65}, {"time": 952, "pitch": 63, "duration": 2, "velocity": 89}, {"time": 952, "pitch": 67, "duration": 2, "velocity": 96}, {"time": 952, "pitch": 70, "duration": 2, "velocity": 90}, {"time": 955, "pitch": 51, "duration": 2, "velocity": 79}, {"time": 958, "pitch": 67, "duration": 2, "velocity": 93}, {"time": 958, "pitch": 70, "duration": 2, "velocity": 77}, {"time": 961, "pitch": 63, "duration": 2, "velocity": 90}, {"time": 964, "pitch": 36, "duration": 46, "velocity": 67}, {"time": 970, "pitch": 48, "duration": 25, "velocity": 58}, {"time": 976, "pitch": 60, "duration": 2, "velocity": 79}, {"time": 976, "pitch": 63, "duration": 2, "velocity": 95}, {"time": 976, "pitch": 67, "duration": 2, "velocity": 72}, {"time": 982, "pitch": 43, "duration": 27, "velocity": 43}, {"time": 985, "pitch": 60, "duration": 2, "velocity": 77}, {"time": 985, "pitch": 63, "duration": 2, "velocity": 96}, {"time": 985, "pitch": 67, "duration": 2, "velocity": 75}, {"time": 991, "pitch": 60, "duration": 2, "velocity": 72}, {"time": 991, "pitch": 63, "duration": 2, "velocity": 86}, {"time": 991, "pitch": 67, "duration": 2, "velocity": 69}, {"time": 997, "pitch": 48, "duration": 11, "velocity": 48}, {"time": 1000, "pitch": 60, "duration": 2, "velocity": 79}, {"time": 1000, "pitch": 63, "duration": 2, "velocity": 99}, {"time": 1000, "pitch": 67, "duration": 2, "velocity": 76}, {"time": 1006, "pitch": 60, "duration": 2, "velocity": 72}, {"time": 1006, "pitch": 63, "duration": 1, "velocity": 88}, {"time": 1006, "pitch": 67, "duration": 2, "velocity": 63}, {"time": 1012, "pitch": 44, "duration": 39, "velocity": 89}, {"time": 1015, "pitch": 51, "duration": 35, "velocity": 50}, {"time": 1018, "pitch": 56, "duration": 24, "velocity": 96}, {"time": 1021, "pitch": 60, "duration": 10, "velocity": 76}, {"time": 1024, "pitch": 68, "duration": 7, "velocity": 122}, {"time": 1030, "pitch": 63, "duration": 2, "velocity": 83}, {"time": 1033, "pitch": 60, "duration": 3, "velocity": 90}, {"time": 1033, "pitch": 63, "duration": 3, "velocity": 102}, {"time": 1033, "pitch": 68, "duration": 4, "velocity": 92}, {"time": 1039, "pitch": 63, "duration": 5, "velocity": 102}, {"time": 1039, "pitch": 68, "duration": 7, "velocity": 89}, {"time": 1042, "pitch": 60, "duration": 4, "velocity": 45}, {"time": 1045, "pitch": 56, "duration": 5, "velocity": 72}, {"time": 1048, "pitch": 63, "duration": 6, "velocity": 117}, {"time": 1048, "pitch": 68, "duration": 6, "velocity": 102}, {"time": 1054, "pitch": 60, "duration": 5, "velocity": 86}, {"time": 1054, "pitch": 63, "duration": 5, "velocity": 86}, {"time": 1054, "pitch": 68, "duration": 4, "velocity": 54}, {"time": 1060, "pitch": 43, "duration": 18, "velocity": 78}, {"time": 1066, "pitch": 50, "duration": 11, "velocity": 56}, {"time": 1072, "pitch": 67, "duration": 7, "velocity": 97}, {"time": 1072, "pitch": 70, "duration": 7, "velocity": 102}, {"time": 1075, "pitch": 55, "duration": 1, "velocity": 37}, {"time": 1078, "pitch": 62, "duration": 4, "velocity": 89}, {"time": 1084, "pitch": 36, "duration": 16, "velocity": 73}, {"time": 1084, "pitch": 60, "duration": 8, "velocity": 93}, {"time": 1084, "pitch": 63, "duration": 8, "velocity": 85}, {"time": 1084, "pitch": 67, "duration": 9, "velocity": 72}, {"time": 1090, "pitch": 43, "duration": 10, "velocity": 61}, {"time": 1096, "pitch": 63, "duration": 6, "velocity": 102}, {"time": 1096, "pitch": 67, "duration": 9, "velocity": 85}, {"time": 1099, "pitch": 48, "duration": 2, "velocity": 86}, {"time": 1102, "pitch": 60, "duration": 6, "velocity": 93}, {"time": 1105, "pitch": 63, "duration": 3, "velocity": 92}, {"time": 1108, "pitch": 44, "duration": 17, "velocity": 75}, {"time": 1114, "pitch": 51, "duration": 8, "velocity": 54}, {"time": 1120, "pitch": 56, "duration": 4, "velocity": 85}, {"time": 1120, "pitch": 63, "duration": 7, "velocity": 112}, {"time": 1120, "pitch": 68, "duration": 11, "velocity": 112}, {"time": 1126, "pitch": 60, "duration": 7, "velocity": 89}, {"time": 1129, "pitch": 63, "duration": 3, "velocity": 97}, {"time": 1132, "pitch": 41, "duration": 14, "velocity": 77}, {"time": 1138, "pitch": 48, "duration": 8, "velocity": 48}, {"time": 1144, "pitch": 53, "duration": 2, "velocity": 75}, {"time": 1144, "pitch": 65, "duration": 8, "velocity": 102}, {"time": 1144, "pitch": 68, "duration": 12, "velocity": 122}, {"time": 1150, "pitch": 60, "duration": 6, "velocity": 86}, {"time": 1153, "pitch": 65, "duration": 2, "velocity": 42}, {"time": 1156, "pitch": 46, "duration": 22, "velocity": 72}, {"time": 1159, "pitch": 53, "duration": 22, "velocity": 54}, {"time": 1162, "pitch": 58, "duration": 7, "velocity": 95}, {"time": 1165, "pitch": 62, "duration": 4, "velocity": 68}, {"time": 1168, "pitch": 65, "duration": 7, "velocity": 77}, {"time": 1168, "pitch": 70, "duration": 19, "velocity": 95}, {"time": 1171, "pitch": 58, "duration": 21, "velocity": 95}, {"time": 1174, "pitch": 62, "duration": 12, "velocity": 82}, {"time": 1177, "pitch": 65, "duration": 10, "velocity": 73}, {"time": 1180, "pitch": 46, "duration": 12, "velocity": 99}, {"time": 1186, "pitch": 53, "duration": 6, "velocity": 31}, {"time": 1192, "pitch": 51, "duration": 6, "velocity": 117}, {"time": 1192, "pitch": 63, "duration": 4, "velocity": 122}, {"time": 1192, "pitch": 67, "duration": 3, "velocity": 92}, {"time": 1198, "pitch": 46, "duration": 5, "velocity": 93}, {"time": 1198, "pitch": 58, "duration": 5, "velocity": 117}, {"time": 1198, "pitch": 62, "duration": 6, "velocity": 76}, {"time": 1204, "pitch": 44, "duration": 48, "velocity": 93}, {"time": 1210, "pitch": 51, "duration": 9, "velocity": 41}, {"time": 1216, "pitch": 56, "duration": 15, "velocity": 83}, {"time": 1216, "pitch": 60, "duration": 10, "velocity": 82}, {"time": 1216, "pitch": 63, "duration": 7, "velocity": 117}, {"time": 1222, "pitch": 51, "duration": 28, "velocity": 41}, {"time": 1225, "pitch": 63, "duration": 11, "velocity": 78}, {"time": 1225, "pitch": 68, "duration": 11, "velocity": 92}, {"time": 1231, "pitch": 56, "duration": 9, "velocity": 58}, {"time": 1234, "pitch": 60, "duration": 4, "velocity": 58}, {"time": 1240, "pitch": 63, "duration": 11, "velocity": 102}, {"time": 1240, "pitch": 68, "duration": 11, "velocity": 102}, {"time": 1246, "pitch": 60, "duration": 5, "velocity": 88}, {"time": 1252, "pitch": 43, "duration": 14, "velocity": 99}, {"time": 1258, "pitch": 50, "duration": 8, "velocity": 43}, {"time": 1264, "pitch": 55, "duration": 2, "velocity": 78}, {"time": 1264, "pitch": 67, "duration": 6, "velocity": 102}, {"time": 1264, "pitch": 71, "duration": 7, "velocity": 99}, {"time": 1270, "pitch": 62, "duration": 6, "velocity": 83}, {"time": 1276, "pitch": 36, "duration": 16, "velocity": 78}, {"time": 1282, "pitch": 43, "duration": 10, "velocity": 58}, {"time": 1288, "pitch": 63, "duration": 7, "velocity": 122}, {"time": 1288, "pitch": 67, "duration": 13, "velocity": 93}, {"time": 1291, "pitch": 48, "duration": 2, "velocity": 86}, {"time": 1294, "pitch": 60, "duration": 8, "velocity": 93}, {"time": 1300, "pitch": 44, "duration": 19, "velocity": 79}, {"time": 1306, "pitch": 51, "duration": 9, "velocity": 55}, {"time": 1312, "pitch": 56, "duration": 6, "velocity": 83}, {"time": 1312, "pitch": 63, "duration": 8, "velocity": 96}, {"time": 1312, "pitch": 68, "duration": 13, "velocity": 102}, {"time": 1318, "pitch": 60, "duration": 7, "velocity": 86}, {"time": 1321, "pitch": 63, "duration": 3, "velocity": 56}, {"time": 1324, "pitch": 41, "duration": 16, "velocity": 75}, {"time": 1330, "pitch": 48, "duration": 10, "velocity": 36}, {"time": 1336, "pitch": 53, "duration": 6, "velocity": 88}, {"time": 1336, "pitch": 65, "duration": 12, "velocity": 122}, {"time": 1336, "pitch": 68, "duration": 12, "velocity": 127}, {"time": 1342, "pitch": 60, "duration": 6, "velocity": 89}, {"time": 1348, "pitch": 46, "duration": 5, "velocity": 71}, {"time": 1348, "pitch": 58, "duration": 5, "velocity": 95}, {"time": 1348, "pitch": 62, "duration": 5, "velocity": 99}, {"time": 1348, "pitch": 65, "duration": 5, "velocity": 92}, {"time": 1354, "pitch": 46, "duration": 4, "velocity": 86}, {"time": 1354, "pitch": 58, "duration": 4, "velocity": 93}, {"time": 1354, "pitch": 62, "duration": 5, "velocity": 90}, {"time": 1354, "pitch": 65, "duration": 5, "velocity": 81}, {"time": 1354, "pitch": 70, "duration": 5, "velocity": 92}, {"time": 1360, "pitch": 46, "duration": 4, "velocity": 99}, {"time": 1360, "pitch": 58, "duration": 4, "velocity": 99}, {"time": 1360, "pitch": 62, "duration": 4, "velocity": 97}, {"time": 1360, "pitch": 65, "duration": 5, "velocity": 88}, {"time": 1360, "pitch": 70, "duration": 4, "velocity": 95}, {"time": 1366, "pitch": 46, "duration": 5, "velocity": 88}, {"time": 1366, "pitch": 58, "duration": 5, "velocity": 95}, {"time": 1366, "pitch": 62, "duration": 5, "velocity": 107}, {"time": 1366, "pitch": 65, "duration": 5, "velocity": 90}, {"time": 1366, "pitch": 70, "duration": 5, "velocity": 100}, {"time": 1372, "pitch": 46, "duration": 3, "velocity": 100}, {"time": 1372, "pitch": 58, "duration": 3, "velocity": 97}, {"time": 1372, "pitch": 62, "duration": 3, "velocity": 107}, {"time": 1372, "pitch": 65, "duration": 4, "velocity": 96}, {"time": 1372, "pitch": 70, "duration": 4, "velocity": 107}, {"time": 1396, "pitch": 39, "duration": 23, "velocity": 100}, {"time": 1399, "pitch": 46, "duration": 21, "velocity": 127}, {"time": 1402, "pitch": 51, "duration": 7, "velocity": 97}, {"time": 1402, "pitch": 63, "duration": 4, "velocity": 88}, {"time": 1408, "pitch": 63, "duration": 3, "velocity": 117}, {"time": 1408, "pitch": 67, "duration": 1, "velocity": 112}, {"time": 1408, "pitch": 70, "duration": 5, "velocity": 127}, {"time": 1411, "pitch": 51, "duration": 17, "velocity": 122}, {"time": 1414, "pitch": 63, "duration": 2, "velocity": 99}, {"time": 1417, "pitch": 63, "duration": 7, "velocity": 122}, {"time": 1417, "pitch": 67, "duration": 2, "velocity": 117}, {"time": 1417, "pitch": 70, "duration": 8, "velocity": 122}, {"time": 1420, "pitch": 39, "duration": 2, "velocity": 40}, {"time": 1420, "pitch": 67, "duration": 4, "velocity": 31}, {"time": 1423, "pitch": 39, "duration": 16, "velocity": 70}, {"time": 1423, "pitch": 46, "duration": 13, "velocity": 66}, {"time": 1426, "pitch": 63, "duration": 5, "velocity": 117}, {"time": 1426, "pitch": 70, "duration": 3, "velocity": 85}, {"time": 1429, "pitch": 51, "duration": 5, "velocity": 112}, {"time": 1432, "pitch": 67, "duration": 4, "velocity": 122}, {"time": 1432, "pitch": 70, "duration": 5, "velocity": 127}, {"time": 1435, "pitch": 51, "duration": 2, "velocity": 100}, {"time": 1438, "pitch": 63, "duration": 6, "velocity": 102}, {"time": 1438, "pitch": 70, "duration": 5, "velocity": 35}, {"time": 1441, "pitch": 67, "duration": 3, "velocity": 93}, {"time": 1444, "pitch": 36, "duration": 40, "velocity": 83}, {"time": 1447, "pitch": 43, "duration": 37, "velocity": 60}, {"time": 1450, "pitch": 48, "duration": 7, "velocity": 95}, {"time": 1453, "pitch": 60, "duration": 3, "velocity": 77}, {"time": 1456, "pitch": 63, "duration": 7, "velocity": 127}, {"time": 1456, "pitch": 67, "duration": 7, "velocity": 107}, {"time": 1459, "pitch": 48, "duration": 3, "velocity": 97}, {"time": 1462, "pitch": 60, "duration": 4, "velocity": 96}, {"time": 1465, "pitch": 63, "duration": 4, "velocity": 127}, {"time": 1465, "pitch": 67, "duration": 4, "velocity": 100}, {"time": 1471, "pitch": 63, "duration": 2, "velocity": 127}, {"time": 1471, "pitch": 67, "duration": 2, "velocity": 100}, {"time": 1474, "pitch": 60, "duration": 1, "velocity": 76}, {"time": 1474, "pitch": 63, "duration": 2, "velocity": 127}, {"time": 1474, "pitch": 67, "duration": 2, "velocity": 97}, {"time": 1477, "pitch": 48, "duration": 4, "velocity": 107}, {"time": 1480, "pitch": 63, "duration": 4, "velocity": 127}, {"time": 1480, "pitch": 67, "duration": 5, "velocity": 97}, {"time": 1483, "pitch": 48, "duration": 3, "velocity": 99}, {"time": 1486, "pitch": 63, "duration": 5, "velocity": 127}, {"time": 1486, "pitch": 67, "duration": 5, "velocity": 89}, {"time": 1489, "pitch": 60, "duration": 4, "velocity": 100}, {"time": 1492, "pitch": 41, "duration": 18, "velocity": 85}, {"time": 1495, "pitch": 48, "duration": 15, "velocity": 93}, {"time": 1498, "pitch": 53, "duration": 7, "velocity": 112}, {"time": 1501, "pitch": 60, "duration": 3, "velocity": 97}, {"time": 1504, "pitch": 65, "duration": 6, "velocity": 107}, {"time": 1504, "pitch": 68, "duration": 7, "velocity": 127}, {"time": 1507, "pitch": 53, "duration": 4, "velocity": 100}, {"time": 1510, "pitch": 60, "duration": 7, "velocity": 96}, {"time": 1513, "pitch": 65, "duration": 3, "velocity": 97}, {"time": 1513, "pitch": 68, "duration": 3, "velocity": 112}, {"time": 1516, "pitch": 44, "duration": 22, "velocity": 82}, {"time": 1519, "pitch": 51, "duration": 19, "velocity": 96}, {"time": 1522, "pitch": 56, "duration": 7, "velocity": 117}, {"time": 1525, "pitch": 60, "duration": 5, "velocity": 93}, {"time": 1528, "pitch": 63, "duration": 4, "velocity": 117}, {"time": 1528, "pitch": 68, "duration": 4, "velocity": 117}, {"time": 1531, "pitch": 56, "duration": 5, "velocity": 117}, {"time": 1534, "pitch": 63, "duration": 4, "velocity": 122}, {"time": 1534, "pitch": 68, "duration": 4, "velocity": 122}, {"time": 1537, "pitch": 60, "duration": 2, "velocity": 99}, {"time": 1540, "pitch": 41, "duration": 23, "velocity": 92}, {"time": 1543, "pitch": 48, "duration": 19, "velocity": 90}, {"time": 1546, "pitch": 53, "duration": 8, "velocity": 100}, {"time": 1549, "pitch": 60, "duration": 2, "velocity": 96}, {"time": 1549, "pitch": 65, "duration": 1, "velocity": 56}, {"time": 1552, "pitch": 60, "duration": 1, "velocity": 86}, {"time": 1552, "pitch": 65, "duration": 5, "velocity": 102}, {"time": 1552, "pitch": 68, "duration": 7, "velocity": 107}, {"time": 1555, "pitch": 60, "duration": 3, "velocity": 52}, {"time": 1558, "pitch": 53, "duration": 4, "velocity": 102}, {"time": 1561, "pitch": 60, "duration": 1, "velocity": 93}, {"time": 1561, "pitch": 65, "duration": 2, "velocity": 112}, {"time": 1561, "pitch": 68, "duration": 2, "velocity": 107}, {"time": 1564, "pitch": 46, "duration": 19, "velocity": 100}, {"time": 1567, "pitch": 53, "duration": 15, "velocity": 58}, {"time": 1570, "pitch": 58, "duration": 7, "velocity": 102}, {"time": 1573, "pitch": 62, "duration": 2, "velocity": 89}, {"time": 1573, "pitch": 65, "duration": 2, "velocity": 95}, {"time": 1573, "pitch": 70, "duration": 2, "velocity": 96}, {"time": 1576, "pitch": 62, "duration": 3, "velocity": 99}, {"time": 1576, "pitch": 65, "duration": 4, "velocity": 117}, {"time": 1576, "pitch": 70, "duration": 4, "velocity": 117}, {"time": 1579, "pitch": 58, "duration": 3, "velocity": 112}, {"time": 1582, "pitch": 65, "duration": 2, "velocity": 112}, {"time": 1582, "pitch": 70, "duration": 2, "velocity": 127}, {"time": 1585, "pitch": 62, "duration": 2, "velocity": 107}, {"time": 1585, "pitch": 65, "duration": 3, "velocity": 92}, {"time": 1585, "pitch": 70, "duration": 3, "velocity": 107}, {"time": 1588, "pitch": 39, "duration": 41, "velocity": 96}, {"time": 1591, "pitch": 46, "duration": 37, "velocity": 92}, {"time": 1594, "pitch": 51, "duration": 7, "velocity": 102}, {"time": 1597, "pitch": 55, "duration": 3, "velocity": 70}, {"time": 1600, "pitch": 58, "duration": 2, "velocity": 127}, {"time": 1600, "pitch": 63, "duration": 2, "velocity": 127}, {"time": 1603, "pitch": 51, "duration": 8, "velocity": 100}, {"time": 1606, "pitch": 55, "duration": 2, "velocity": 61}, {"time": 1606, "pitch": 63, "duration": 1, "velocity": 50}, {"time": 1609, "pitch": 58, "duration": 1, "velocity": 127}, {"time": 1609, "pitch": 63, "duration": 2, "velocity": 117}, {"time": 1612, "pitch": 51, "duration": 7, "velocity": 85}, {"time": 1615, "pitch": 63, "duration": 2, "velocity": 93}, {"time": 1615, "pitch": 67, "duration": 2, "velocity": 92}, {"time": 1615, "pitch": 70, "duration": 1, "velocity": 78}, {"time": 1618, "pitch": 63, "duration": 2, "velocity": 112}, {"time": 1618, "pitch": 67, "duration": 1, "velocity": 122}, {"time": 1618, "pitch": 70, "duration": 2, "velocity": 117}, {"time": 1621, "pitch": 51, "duration": 4, "velocity": 85}, {"time": 1624, "pitch": 67, "duration": 2, "velocity": 112}, {"time": 1624, "pitch": 70, "duration": 5, "velocity": 117}, {"time": 1627, "pitch": 51, "duration": 2, "velocity": 97}, {"time": 1630, "pitch": 63, "duration": 3, "velocity": 107}, {"time": 1630, "pitch": 70, "duration": 2, "velocity": 40}, {"time": 1633, "pitch": 63, "duration": 2, "velocity": 58}, {"time": 1633, "pitch": 70, "duration": 2, "velocity": 102}, {"time": 1636, "pitch": 36, "duration": 40, "velocity": 82}, {"time": 1639, "pitch": 43, "duration": 37, "velocity": 85}, {"time": 1642, "pitch": 48, "duration": 7, "velocity": 93}, {"time": 1645, "pitch": 60, "duration": 3, "velocity": 93}, {"time": 1648, "pitch": 60, "duration": 2, "velocity": 71}, {"time": 1648, "pitch": 63, "duration": 2, "velocity": 127}, {"time": 1648, "pitch": 67, "duration": 2, "velocity": 117}, {"time": 1654, "pitch": 48, "duration": 5, "velocity": 88}, {"time": 1657, "pitch": 55, "duration": 2, "velocity": 99}, {"time": 1657, "pitch": 60, "duration": 1, "velocity": 102}, {"time": 1657, "pitch": 63, "duration": 1, "velocity": 117}, {"time": 1660, "pitch": 48, "duration": 5, "velocity": 61}, {"time": 1663, "pitch": 60, "duration": 7, "velocity": 117}, {"time": 1663, "pitch": 63, "duration": 7, "velocity": 122}, {"time": 1666, "pitch": 55, "duration": 4, "velocity": 82}, {"time": 1669, "pitch": 48, "duration": 4, "velocity": 89}, {"time": 1672, "pitch": 60, "duration": 5, "velocity": 122}, {"time": 1672, "pitch": 63, "duration": 5, "velocity": 127}, {"time": 1675, "pitch": 48, "duration": 3, "velocity": 88}, {"time": 1678, "pitch": 60, "duration": 5, "velocity": 112}, {"time": 1678, "pitch": 63, "duration": 5, "velocity": 117}, {"time": 1681, "pitch": 55, "duration": 2, "velocity": 100}, {"time": 1684, "pitch": 41, "duration": 17, "velocity": 88}, {"time": 1687, "pitch": 48, "duration": 13, "velocity": 77}, {"time": 1690, "pitch": 53, "duration": 7, "velocity": 93}, {"time": 1693, "pitch": 60, "duration": 3, "velocity": 85}, {"time": 1696, "pitch": 65, "duration": 7, "velocity": 117}, {"time": 1696, "pitch": 68, "duration": 7, "velocity": 127}, {"time": 1699, "pitch": 53, "duration": 3, "velocity": 97}, {"time": 1702, "pitch": 60, "duration": 6, "velocity": 102}, {"time": 1705, "pitch": 65, "duration": 3, "velocity": 107}, {"time": 1705, "pitch": 68, "duration": 3, "velocity": 127}, {"time": 1708, "pitch": 44, "duration": 21, "velocity": 88}, {"time": 1711, "pitch": 51, "duration": 18, "velocity": 66}, {"time": 1714, "pitch": 56, "duration": 7, "velocity": 99}, {"time": 1717, "pitch": 60, "duration": 2, "velocity": 69}, {"time": 1717, "pitch": 63, "duration": 2, "velocity": 78}, {"time": 1717, "pitch": 68, "duration": 2, "velocity": 52}, {"time": 1720, "pitch": 63, "duration": 4, "velocity": 122}, {"time": 1720, "pitch": 68, "duration": 4, "velocity": 127}, {"time": 1723, "pitch": 56, "duration": 4, "velocity": 102}, {"time": 1726, "pitch": 63, "duration": 4, "velocity": 127}, {"time": 1726, "pitch": 68, "duration": 5, "velocity": 122}, {"time": 1729, "pitch": 60, "duration": 3, "velocity": 107}, {"time": 1732, "pitch": 46, "duration": 22, "velocity": 90}, {"time": 1735, "pitch": 53, "duration": 19, "velocity": 55}, {"time": 1738, "pitch": 58, "duration": 8, "velocity": 99}, {"time": 1741, "pitch": 62, "duration": 2, "velocity": 72}, {"time": 1741, "pitch": 65, "duration": 2, "velocity": 68}, {"time": 1741, "pitch": 70, "duration": 2, "velocity": 61}, {"time": 1744, "pitch": 62, "duration": 4, "velocity": 95}, {"time": 1744, "pitch": 65, "duration": 3, "velocity": 99}, {"time": 1744, "pitch": 70, "duration": 4, "velocity": 117}, {"time": 1750, "pitch": 58, "duration": 5, "velocity": 102}, {"time": 1753, "pitch": 62, "duration": 2, "velocity": 92}, {"time": 1753, "pitch": 65, "duration": 2, "velocity": 79}, {"time": 1753, "pitch": 70, "duration": 2, "velocity": 58}, {"time": 1756, "pitch": 46, "duration": 12, "velocity": 81}, {"time": 1756, "pitch": 53, "duration": 11, "velocity": 68}, {"time": 1756, "pitch": 58, "duration": 11, "velocity": 99}, {"time": 1756, "pitch": 62, "duration": 12, "velocity": 97}, {"time": 1756, "pitch": 65, "duration": 11, "velocity": 99}, {"time": 1756, "pitch": 70, "duration": 12, "velocity": 117}, {"time": 1780, "pitch": 39, "duration": 40, "velocity": 95}, {"time": 1783, "pitch": 46, "duration": 36, "velocity": 50}, {"time": 1786, "pitch": 51, "duration": 9, "velocity": 93}, {"time": 1789, "pitch": 55, "duration": 3, "velocity": 69}, {"time": 1792, "pitch": 55, "duration": 1, "velocity": 52}, {"time": 1792, "pitch": 58, "duration": 1, "velocity": 127}, {"time": 1792, "pitch": 63, "duration": 2, "velocity": 127}, {"time": 1798, "pitch": 51, "duration": 12, "velocity": 82}, {"time": 1801, "pitch": 63, "duration": 2, "velocity": 112}, {"time": 1801, "pitch": 67, "duration": 2, "velocity": 107}, {"time": 1801, "pitch": 70, "duration": 2, "velocity": 97}, {"time": 1807, "pitch": 67, "duration": 3, "velocity": 117}, {"time": 1807, "pitch": 70, "duration": 7, "velocity": 102}, {"time": 1810, "pitch": 63, "duration": 3, "velocity": 76}, {"time": 1813, "pitch": 51, "duration": 4, "velocity": 83}, {"time": 1816, "pitch": 63, "duration": 4, "velocity": 112}, {"time": 1816, "pitch": 67, "duration": 1, "velocity": 127}, {"time": 1816, "pitch": 70, "duration": 4, "velocity": 112}, {"time": 1819, "pitch": 51, "duration": 2, "velocity": 93}, {"time": 1822, "pitch": 63, "duration": 1, "velocity": 86}, {"time": 1822, "pitch": 67, "duration": 2, "velocity": 117}, {"time": 1822, "pitch": 70, "duration": 2, "velocity": 117}, {"time": 1825, "pitch": 63, "duration": 3, "velocity": 117}, {"time": 1825, "pitch": 67, "duration": 2, "velocity": 51}, {"time": 1825, "pitch": 70, "duration": 2, "velocity": 66}, {"time": 1828, "pitch": 43, "duration": 35, "velocity": 82}, {"time": 1831, "pitch": 50, "duration": 32, "velocity": 75}, {"time": 1834, "pitch": 55, "duration": 9, "velocity": 97}, {"time": 1837, "pitch": 62, "duration": 2, "velocity": 86}, {"time": 1837, "pitch": 67, "duration": 2, "velocity": 89}, {"time": 1837, "pitch": 71, "duration": 2, "velocity": 78}, {"time": 1840, "pitch": 62, "duration": 2, "velocity": 102}, {"time": 1840, "pitch": 67, "duration": 2, "velocity": 100}, {"time": 1840, "pitch": 71, "duration": 2, "velocity": 92}, {"time": 1846, "pitch": 55, "duration": 11, "velocity": 86}, {"time": 1849, "pitch": 62, "duration": 2, "velocity": 100}, {"time": 1849, "pitch": 67, "duration": 2, "velocity": 96}, {"time": 1849, "pitch": 71, "duration": 2, "velocity": 89}, {"time": 1855, "pitch": 67, "duration": 7, "velocity": 97}, {"time": 1855, "pitch": 71, "duration": 7, "velocity": 93}, {"time": 1858, "pitch": 62, "duration": 4, "velocity": 81}, {"time": 1861, "pitch": 55, "duration": 2, "velocity": 88}, {"time": 1864, "pitch": 67, "duration": 4, "velocity": 102}, {"time": 1864, "pitch": 71, "duration": 4, "velocity": 99}, {"time": 1870, "pitch": 67, "duration": 3, "velocity": 99}, {"time": 1870, "pitch": 71, "duration": 5, "velocity": 97}, {"time": 1873, "pitch": 62, "duration": 3, "velocity": 107}, {"time": 1873, "pitch": 67, "duration": 2, "velocity": 41}, {"time": 1876, "pitch": 44, "duration": 41, "velocity": 79}, {"time": 1882, "pitch": 51, "duration": 34, "velocity": 8}, {"time": 1882, "pitch": 56, "duration": 9, "velocity": 102}, {"time": 1885, "pitch": 60, "duration": 2, "velocity": 76}, {"time": 1888, "pitch": 60, "duration": 3, "velocity": 82}, {"time": 1888, "pitch": 63, "duration": 3, "velocity": 127}, {"time": 1888, "pitch": 68, "duration": 3, "velocity": 117}, {"time": 1894, "pitch": 56, "duration": 13, "velocity": 99}, {"time": 1897, "pitch": 60, "duration": 4, "velocity": 83}, {"time": 1897, "pitch": 63, "duration": 4, "velocity": 117}, {"time": 1897, "pitch": 68, "duration": 4, "velocity": 96}, {"time": 1903, "pitch": 63, "duration": 7, "velocity": 122}, {"time": 1903, "pitch": 68, "duration": 7, "velocity": 107}, {"time": 1906, "pitch": 60, "duration": 3, "velocity": 89}, {"time": 1909, "pitch": 56, "duration": 5, "velocity": 92}, {"time": 1912, "pitch": 63, "duration": 4, "velocity": 127}, {"time": 1912, "pitch": 68, "duration": 4, "velocity": 112}, {"time": 1915, "pitch": 56, "duration": 2, "velocity": 93}, {"time": 1918, "pitch": 63, "duration": 4, "velocity": 117}, {"time": 1918, "pitch": 68, "duration": 5, "velocity": 117}, {"time": 1921, "pitch": 60, "duration": 3, "velocity": 100}, {"time": 1924, "pitch": 41, "duration": 15, "velocity": 97}, {"time": 1927, "pitch": 48, "duration": 11, "velocity": 85}, {"time": 1930, "pitch": 53, "duration": 7, "velocity": 96}, {"time": 1933, "pitch": 60, "duration": 3, "velocity": 83}, {"time": 1936, "pitch": 65, "duration": 5, "velocity": 102}, {"time": 1936, "pitch": 68, "duration": 7, "velocity": 122}, {"time": 1939, "pitch": 53, "duration": 3, "velocity": 107}, {"time": 1942, "pitch": 60, "duration": 5, "velocity": 107}, {"time": 1945, "pitch": 65, "duration": 2, "velocity": 100}, {"time": 1945, "pitch": 68, "duration": 3, "velocity": 122}, {"time": 1948, "pitch": 46, "duration": 17, "velocity": 88}, {"time": 1951, "pitch": 53, "duration": 13, "velocity": 40}, {"time": 1954, "pitch": 58, "duration": 7, "velocity": 99}, {"time": 1957, "pitch": 62, "duration": 2, "velocity": 89}, {"time": 1957, "pitch": 65, "duration": 2, "velocity": 96}, {"time": 1957, "pitch": 70, "duration": 2, "velocity": 97}, {"time": 1960, "pitch": 62, "duration": 4, "velocity": 90}, {"time": 1960, "pitch": 65, "duration": 4, "velocity": 100}, {"time": 1960, "pitch": 70, "duration": 4, "velocity": 117}, {"time": 1963, "pitch": 58, "duration": 3, "velocity": 112}, {"time": 1966, "pitch": 65, "duration": 3, "velocity": 107}, {"time": 1966, "pitch": 70, "duration": 5, "velocity": 127}, {"time": 1969, "pitch": 62, "duration": 2, "velocity": 117}, {"time": 1969, "pitch": 65, "duration": 2, "velocity": 47}, {"time": 1972, "pitch": 43, "duration": 36, "velocity": 76}, {"time": 1975, "pitch": 50, "duration": 33, "velocity": 79}, {"time": 1978, "pitch": 55, "duration": 7, "velocity": 102}, {"time": 1981, "pitch": 62, "duration": 2, "velocity": 79}, {"time": 1981, "pitch": 67, "duration": 2, "velocity": 93}, {"time": 1981, "pitch": 70, "duration": 2, "velocity": 90}, {"time": 1984, "pitch": 62, "duration": 2, "velocity": 97}, {"time": 1984, "pitch": 67, "duration": 2, "velocity": 107}, {"time": 1984, "pitch": 70, "duration": 2, "velocity": 127}, {"time": 1990, "pitch": 55, "duration": 12, "velocity": 92}, {"time": 1993, "pitch": 62, "duration": 2, "velocity": 93}, {"time": 1993, "pitch": 67, "duration": 2, "velocity": 112}, {"time": 1993, "pitch": 70, "duration": 2, "velocity": 117}, {"time": 1999, "pitch": 67, "duration": 7, "velocity": 112}, {"time": 1999, "pitch": 70, "duration": 7, "velocity": 127}, {"time": 2002, "pitch": 62, "duration": 4, "velocity": 89}, {"time": 2005, "pitch": 55, "duration": 3, "velocity": 112}, {"time": 2008, "pitch": 67, "duration": 5, "velocity": 100}, {"time": 2008, "pitch": 70, "duration": 5, "velocity": 117}, {"time": 2011, "pitch": 62, "duration": 4, "velocity": 83}, {"time": 2014, "pitch": 67, "duration": 5, "velocity": 95}, {"time": 2014, "pitch": 70, "duration": 5, "velocity": 107}, {"time": 2017, "pitch": 62, "duration": 3, "velocity": 100}, {"time": 2020, "pitch": 44, "duration": 37, "velocity": 92}, {"time": 2023, "pitch": 51, "duration": 32, "velocity": 31}, {"time": 2026, "pitch": 56, "duration": 9, "velocity": 95}, {"time": 2029, "pitch": 60, "duration": 2, "velocity": 88}, {"time": 2029, "pitch": 63, "duration": 2, "velocity": 86}, {"time": 2029, "pitch": 68, "duration": 2, "velocity": 61}, {"time": 2032, "pitch": 60, "duration": 3, "velocity": 90}, {"time": 2032, "pitch": 63, "duration": 3, "velocity": 127}, {"time": 2032, "pitch": 68, "duration": 3, "velocity": 117}, {"time": 2038, "pitch": 56, "duration": 13, "velocity": 89}, {"time": 2041, "pitch": 60, "duration": 3, "velocity": 86}, {"time": 2041, "pitch": 63, "duration": 2, "velocity": 117}, {"time": 2041, "pitch": 68, "duration": 3, "velocity": 112}, {"time": 2047, "pitch": 63, "duration": 3, "velocity": 107}, {"time": 2047, "pitch": 68, "duration": 7, "velocity": 112}, {"time": 2050, "pitch": 60, "duration": 3, "velocity": 86}, {"time": 2050, "pitch": 63, "duration": 2, "velocity": 34}, {"time": 2053, "pitch": 56, "duration": 5, "velocity": 93}, {"time": 2056, "pitch": 63, "duration": 4, "velocity": 127}, {"time": 2056, "pitch": 68, "duration": 4, "velocity": 127}, {"time": 2062, "pitch": 63, "duration": 4, "velocity": 127}, {"time": 2062, "pitch": 68, "duration": 5, "velocity": 122}, {"time": 2065, "pitch": 60, "duration": 3, "velocity": 100}, {"time": 2068, "pitch": 46, "duration": 2, "velocity": 122}, {"time": 2068, "pitch": 53, "duration": 2, "velocity": 74}, {"time": 2068, "pitch": 58, "duration": 2, "velocity": 89}, {"time": 2068, "pitch": 62, "duration": 2, "velocity": 78}, {"time": 2071, "pitch": 46, "duration": 2, "velocity": 100}, {"time": 2071, "pitch": 53, "duration": 1, "velocity": 43}, {"time": 2071, "pitch": 58, "duration": 2, "velocity": 75}, {"time": 2071, "pitch": 62, "duration": 2, "velocity": 72}, {"time": 2074, "pitch": 46, "duration": 2, "velocity": 100}, {"time": 2074, "pitch": 53, "duration": 2, "velocity": 72}, {"time": 2074, "pitch": 58, "duration": 2, "velocity": 90}, {"time": 2074, "pitch": 62, "duration": 2, "velocity": 76}, {"time": 2077, "pitch": 46, "duration": 2, "velocity": 77}, {"time": 2077, "pitch": 53, "duration": 2, "velocity": 69}, {"time": 2077, "pitch": 58, "duration": 2, "velocity": 92}, {"time": 2077, "pitch": 62, "duration": 2, "velocity": 78}, {"time": 2080, "pitch": 46, "duration": 2, "velocity": 127}, {"time": 2080, "pitch": 53, "duration": 1, "velocity": 78}, {"time": 2080, "pitch": 58, "duration": 1, "velocity": 90}, {"time": 2080, "pitch": 62, "duration": 1, "velocity": 75}, {"time": 2086, "pitch": 51, "duration": 2, "velocity": 112}, {"time": 2086, "pitch": 63, "duration": 2, "velocity": 127}, {"time": 2086, "pitch": 67, "duration": 2, "velocity": 95}, {"time": 2092, "pitch": 46, "duration": 3, "velocity": 107}, {"time": 2092, "pitch": 58, "duration": 3, "velocity": 127}, {"time": 2092, "pitch": 62, "duration": 3, "velocity": 99}, {"time": 2116, "pitch": 36, "duration": 20, "velocity": 62}, {"time": 2116, "pitch": 43, "duration": 20, "velocity": 82}, {"time": 2116, "pitch": 48, "duration": 22, "velocity": 85}, {"time": 2116, "pitch": 55, "duration": 23, "velocity": 102}, {"time": 2116, "pitch": 60, "duration": 24, "velocity": 107}, {"time": 2116, "pitch": 63, "duration": 26, "velocity": 102}, {"time": 2164, "pitch": 48, "duration": 40, "velocity": 71}, {"time": 2170, "pitch": 55, "duration": 9, "velocity": 56}, {"time": 2176, "pitch": 60, "duration": 2, "velocity": 85}, {"time": 2176, "pitch": 63, "duration": 2, "velocity": 97}, {"time": 2176, "pitch": 67, "duration": 2, "velocity": 79}, {"time": 2182, "pitch": 55, "duration": 8, "velocity": 59}, {"time": 2185, "pitch": 60, "duration": 9, "velocity": 77}, {"time": 2185, "pitch": 63, "duration": 9, "velocity": 96}, {"time": 2185, "pitch": 67, "duration": 9, "velocity": 73}, {"time": 2194, "pitch": 55, "duration": 7, "velocity": 70}, {"time": 2200, "pitch": 63, "duration": 7, "velocity": 100}, {"time": 2200, "pitch": 67, "duration": 12, "velocity": 72}, {"time": 2203, "pitch": 55, "duration": 2, "velocity": 62}, {"time": 2206, "pitch": 60, "duration": 6, "velocity": 93}, {"time": 2209, "pitch": 63, "duration": 3, "velocity": 86}, {"time": 2212, "pitch": 46, "duration": 36, "velocity": 85}, {"time": 2218, "pitch": 53, "duration": 29, "velocity": 67}, {"time": 2224, "pitch": 58, "duration": 4, "velocity": 69}, {"time": 2224, "pitch": 62, "duration": 1, "velocity": 78}, {"time": 2224, "pitch": 65, "duration": 1, "velocity": 82}, {"time": 2224, "pitch": 70, "duration": 2, "velocity": 82}, {"time": 2230, "pitch": 58, "duration": 11, "velocity": 52}, {"time": 2233, "pitch": 62, "duration": 2, "velocity": 75}, {"time": 2233, "pitch": 65, "duration": 2, "velocity": 82}, {"time": 2233, "pitch": 70, "duration": 2, "velocity": 89}, {"time": 2239, "pitch": 65, "duration": 1, "velocity": 79}, {"time": 2239, "pitch": 70, "duration": 2, "velocity": 92}, {"time": 2245, "pitch": 58, "duration": 3, "velocity": 82}, {"time": 2248, "pitch": 65, "duration": 10, "velocity": 82}, {"time": 2248, "pitch": 70, "duration": 12, "velocity": 92}, {"time": 2254, "pitch": 62, "duration": 6, "velocity": 83}, {"time": 2260, "pitch": 39, "duration": 39, "velocity": 79}, {"time": 2266, "pitch": 46, "duration": 8, "velocity": 27}, {"time": 2272, "pitch": 51, "duration": 12, "velocity": 71}, {"time": 2272, "pitch": 63, "duration": 2, "velocity": 97}, {"time": 2272, "pitch": 67, "duration": 1, "velocity": 92}, {"time": 2272, "pitch": 70, "duration": 1, "velocity": 88}, {"time": 2278, "pitch": 46, "duration": 20, "velocity": 36}, {"time": 2281, "pitch": 63, "duration": 2, "velocity": 85}, {"time": 2281, "pitch": 67, "duration": 2, "velocity": 82}, {"time": 2281, "pitch": 70, "duration": 2, "velocity": 72}, {"time": 2284, "pitch": 51, "duration": 3, "velocity": 26}, {"time": 2287, "pitch": 63, "duration": 2, "velocity": 78}, {"time": 2287, "pitch": 67, "duration": 1, "velocity": 83}, {"time": 2287, "pitch": 70, "duration": 2, "velocity": 67}, {"time": 2293, "pitch": 51, "duration": 4, "velocity": 74}, {"time": 2296, "pitch": 51, "duration": 1, "velocity": 66}, {"time": 2296, "pitch": 67, "duration": 2, "velocity": 99}, {"time": 2296, "pitch": 70, "duration": 2, "velocity": 88}, {"time": 2302, "pitch": 67, "duration": 2, "velocity": 100}, {"time": 2302, "pitch": 70, "duration": 5, "velocity": 93}, {"time": 2305, "pitch": 63, "duration": 2, "velocity": 86}, {"time": 2308, "pitch": 48, "duration": 42, "velocity": 78}, {"time": 2314, "pitch": 55, "duration": 9, "velocity": 52}, {"time": 2320, "pitch": 60, "duration": 2, "velocity": 81}, {"time": 2320, "pitch": 63, "duration": 2, "velocity": 93}, {"time": 2320, "pitch": 67, "duration": 2, "velocity": 73}, {"time": 2326, "pitch": 55, "duration": 12, "velocity": 63}, {"time": 2329, "pitch": 60, "duration": 2, "velocity": 75}, {"time": 2329, "pitch": 63, "duration": 1, "velocity": 92}, {"time": 2329, "pitch": 67, "duration": 2, "velocity": 69}, {"time": 2335, "pitch": 60, "duration": 2, "velocity": 74}, {"time": 2335, "pitch": 63, "duration": 2, "velocity": 88}, {"time": 2335, "pitch": 67, "duration": 2, "velocity": 69}, {"time": 2341, "pitch": 55, "duration": 4, "velocity": 77}, {"time": 2344, "pitch": 63, "duration": 7, "velocity": 117}, {"time": 2344, "pitch": 67, "duration": 8, "velocity": 90}, {"time": 2347, "pitch": 55, "duration": 3, "velocity": 86}, {"time": 2350, "pitch": 60, "duration": 6, "velocity": 90}, {"time": 2356, "pitch": 48, "duration": 38, "velocity": 89}, {"time": 2362, "pitch": 55, "duration": 8, "velocity": 73}, {"time": 2368, "pitch": 60, "duration": 2, "velocity": 82}, {"time": 2368, "pitch": 63, "duration": 2, "velocity": 97}, {"time": 2368, "pitch": 67, "duration": 2, "velocity": 74}, {"time": 2374, "pitch": 55, "duration": 12, "velocity": 58}, {"time": 2377, "pitch": 60, "duration": 2, "velocity": 69}, {"time": 2377, "pitch": 63, "duration": 2, "velocity": 85}, {"time": 2377, "pitch": 67, "duration": 2, "velocity": 65}, {"time": 2383, "pitch": 63, "duration": 2, "velocity": 85}, {"time": 2383, "pitch": 67, "duration": 2, "velocity": 65}, {"time": 2389, "pitch": 55, "duration": 4, "velocity": 74}, {"time": 2392, "pitch": 63, "duration": 4, "velocity": 100}, {"time": 2392, "pitch": 67, "duration": 5, "velocity": 72}, {"time": 2398, "pitch": 60, "duration": 7, "velocity": 68}, {"time": 2398, "pitch": 63, "duration": 3, "velocity": 100}, {"time": 2398, "pitch": 67, "duration": 5, "velocity": 69}, {"time": 2404, "pitch": 46, "duration": 36, "velocity": 97}, {"time": 2410, "pitch": 53, "duration": 29, "velocity": 48}, {"time": 2416, "pitch": 62, "duration": 2, "velocity": 86}, {"time": 2416, "pitch": 65, "duration": 2, "velocity": 89}, {"time": 2416, "pitch": 70, "duration": 2, "velocity": 93}, {"time": 2422, "pitch": 58, "duration": 6, "velocity": 79}, {"time": 2425, "pitch": 62, "duration": 2, "velocity": 77}, {"time": 2425, "pitch": 65, "duration": 2, "velocity": 88}, {"time": 2425, "pitch": 70, "duration": 2, "velocity": 81}, {"time": 2431, "pitch": 62, "duration": 2, "velocity": 70}, {"time": 2431, "pitch": 65, "duration": 2, "velocity": 77}, {"time": 2431, "pitch": 70, "duration": 2, "velocity": 77}, {"time": 2437, "pitch": 58, "duration": 2, "velocity": 72}, {"time": 2440, "pitch": 62, "duration": 2, "velocity": 79}, {"time": 2440, "pitch": 65, "duration": 2, "velocity": 85}, {"time": 2440, "pitch": 70, "duration": 2, "velocity": 85}, {"time": 2446, "pitch": 62, "duration": 4, "velocity": 77}, {"time": 2446, "pitch": 65, "duration": 2, "velocity": 78}, {"time": 2446, "pitch": 70, "duration": 4, "velocity": 83}, {"time": 2452, "pitch": 39, "duration": 41, "velocity": 73}, {"time": 2458, "pitch": 46, "duration": 9, "velocity": 53}, {"time": 2464, "pitch": 51, "duration": 17, "velocity": 57}, {"time": 2464, "pitch": 63, "duration": 2, "velocity": 88}, {"time": 2464, "pitch": 67, "duration": 2, "velocity": 90}, {"time": 2464, "pitch": 70, "duration": 2, "velocity": 79}, {"time": 2470, "pitch": 46, "duration": 22, "velocity": 36}, {"time": 2473, "pitch": 63, "duration": 2, "velocity": 88}, {"time": 2473, "pitch": 67, "duration": 1, "velocity": 97}, {"time": 2473, "pitch": 70, "duration": 1, "velocity": 83}, {"time": 2479, "pitch": 63, "duration": 2, "velocity": 74}, {"time": 2479, "pitch": 67, "duration": 2, "velocity": 83}, {"time": 2479, "pitch": 70, "duration": 2, "velocity": 59}, {"time": 2485, "pitch": 51, "duration": 4, "velocity": 65}, {"time": 2488, "pitch": 63, "duration": 2, "velocity": 89}, {"time": 2488, "pitch": 67, "duration": 2, "velocity": 96}, {"time": 2488, "pitch": 70, "duration": 2, "velocity": 90}, {"time": 2491, "pitch": 51, "duration": 2, "velocity": 79}, {"time": 2494, "pitch": 67, "duration": 2, "velocity": 93}, {"time": 2494, "pitch": 70, "duration": 2, "velocity": 77}, {"time": 2497, "pitch": 63, "duration": 2, "velocity": 90}, {"time": 2500, "pitch": 36, "duration": 46, "velocity": 67}, {"time": 2506, "pitch": 48, "duration": 25, "velocity": 58}, {"time": 2512, "pitch": 60, "duration": 2, "velocity": 79}, {"time": 2512, "pitch": 63, "duration": 2, "velocity": 95}, {"time": 2512, "pitch": 67, "duration": 2, "velocity": 72}, {"time": 2518, "pitch": 43, "duration": 27, "velocity": 43}, {"time": 2521, "pitch": 60, "duration": 2, "velocity": 77}, {"time": 2521, "pitch": 63, "duration": 2, "velocity": 96}, {"time": 2521, "pitch": 67, "duration": 2, "velocity": 75}, {"time": 2527, "pitch": 60, "duration": 2, "velocity": 72}, {"time": 2527, "pitch": 63, "duration": 2, "velocity": 86}, {"time": 2527, "pitch": 67, "duration": 2, "velocity": 69}, {"time": 2533, "pitch": 48, "duration": 11, "velocity": 48}, {"time": 2536, "pitch": 60, "duration": 2, "velocity": 79}, {"time": 2536, "pitch": 63, "duration": 2, "velocity": 99}, {"time": 2536, "pitch": 67, "duration": 2, "velocity": 76}, {"time": 2542, "pitch": 60, "duration": 2, "velocity": 72}, {"time": 2542, "pitch": 63, "duration": 1, "velocity": 88}, {"time": 2542, "pitch": 67, "duration": 2, "velocity": 63}, {"time": 2548, "pitch": 44, "duration": 39, "velocity": 89}, {"time": 2551, "pitch": 51, "duration": 35, "velocity": 50}, {"time": 2554, "pitch": 56, "duration": 24, "velocity": 96}, {"time": 2557, "pitch": 60, "duration": 10, "velocity": 76}, {"time": 2560, "pitch": 68, "duration": 7, "velocity": 122}, {"time": 2566, "pitch": 63, "duration": 2, "velocity": 83}, {"time": 2569, "pitch": 60, "duration": 3, "velocity": 90}, {"time": 2569, "pitch": 63, "duration": 3, "velocity": 102}, {"time": 2569, "pitch": 68, "duration": 4, "velocity": 92}, {"time": 2575, "pitch": 63, "duration": 5, "velocity": 102}, {"time": 2575, "pitch": 68, "duration": 7, "velocity": 89}, {"time": 2578, "pitch": 60, "duration": 4, "velocity": 45}, {"time": 2581, "pitch": 56, "duration": 5, "velocity": 72}, {"time": 2584, "pitch": 63, "duration": 6, "velocity": 117}, {"time": 2584, "pitch": 68, "duration": 6, "velocity": 102}, {"time": 2590, "pitch": 60, "duration": 5, "velocity": 86}, {"time": 2590, "pitch": 63, "duration": 5, "velocity": 86}, {"time": 2590, "pitch": 68, "duration": 4, "velocity": 54}, {"time": 2596, "pitch": 43, "duration": 18, "velocity": 78}, {"time": 2602, "pitch": 50, "duration": 11, "velocity": 56}, {"time": 2608, "pitch": 67, "duration": 7, "velocity": 97}, {"time": 2608, "pitch": 70, "duration": 7, "velocity": 102}, {"time": 2611, "pitch": 55, "duration": 1, "velocity": 37}, {"time": 2614, "pitch": 62, "duration": 4, "velocity": 89}, {"time": 2620, "pitch": 36, "duration": 16, "velocity": 73}, {"time": 2620, "pitch": 60, "duration": 8, "velocity": 93}, {"time": 2620, "pitch": 63, "duration": 8, "velocity": 85}, {"time": 2620, "pitch": 67, "duration": 9, "velocity": 72}, {"time": 2626, "pitch": 43, "duration": 10, "velocity": 61}, {"time": 2632, "pitch": 63, "duration": 6, "velocity": 102}, {"time": 2632, "pitch": 67, "duration": 9, "velocity": 85}, {"time": 2635, "pitch": 48, "duration": 2, "velocity": 86}, {"time": 2638, "pitch": 60, "duration": 6, "velocity": 93}, {"time": 2641, "pitch": 63, "duration": 3, "velocity": 92}, {"time": 2644, "pitch": 44, "duration": 17, "velocity": 75}, {"time": 2650, "pitch": 51, "duration": 8, "velocity": 54}, {"time": 2656, "pitch": 56, "duration": 4, "velocity": 85}, {"time": 2656, "pitch": 63, "duration": 7, "velocity": 112}, {"time": 2656, "pitch": 68, "duration": 11, "velocity": 112}, {"time": 2662, "pitch": 60, "duration": 7, "velocity": 89}, {"time": 2665, "pitch": 63, "duration": 3, "velocity": 97}, {"time": 2668, "pitch": 41, "duration": 14, "velocity": 77}, {"time": 2674, "pitch": 48, "duration": 8, "velocity": 48}, {"time": 2680, "pitch": 53, "duration": 2, "velocity": 75}, {"time": 2680, "pitch": 65, "duration": 8, "velocity": 102}, {"time": 2680, "pitch": 68, "duration": 12, "velocity": 122}, {"time": 2686, "pitch": 60, "duration": 6, "velocity": 86}, {"time": 2689, "pitch": 65, "duration": 2, "velocity": 42}, {"time": 2692, "pitch": 46, "duration": 22, "velocity": 72}, {"time": 2695, "pitch": 53, "duration": 22, "velocity": 54}, {"time": 2698, "pitch": 58, "duration": 7, "velocity": 95}, {"time": 2701, "pitch": 62, "duration": 4, "velocity": 68}, {"time": 2704, "pitch": 65, "duration": 7, "velocity": 77}, {"time": 2704, "pitch": 70, "duration": 19, "velocity": 95}, {"time": 2707, "pitch": 58, "duration": 21, "velocity": 95}, {"time": 2710, "pitch": 62, "duration": 12, "velocity": 82}, {"time": 2713, "pitch": 65, "duration": 10, "velocity": 73}, {"time": 2716, "pitch": 46, "duration": 12, "velocity": 99}, {"time": 2722, "pitch": 53, "duration": 6, "velocity": 31}, {"time": 2728, "pitch": 51, "duration": 6, "velocity": 117}, {"time": 2728, "pitch": 63, "duration": 4, "velocity": 122}, {"time": 2728, "pitch": 67, "duration": 3, "velocity": 92}, {"time": 2734, "pitch": 46, "duration": 5, "velocity": 93}, {"time": 2734, "pitch": 58, "duration": 5, "velocity": 117}, {"time": 2734, "pitch": 62, "duration": 6, "velocity": 76}, {"time": 2740, "pitch": 44, "duration": 48, "velocity": 93}, {"time": 2746, "pitch": 51, "duration": 9, "velocity": 41}, {"time": 2752, "pitch": 56, "duration": 15, "velocity": 83}, {"time": 2752, "pitch": 60, "duration": 10, "velocity": 82}, {"time": 2752, "pitch": 63, "duration": 7, "velocity": 117}, {"time": 2758, "pitch": 51, "duration": 28, "velocity": 41}, {"time": 2761, "pitch": 63, "duration": 11, "velocity": 78}, {"time": 2761, "pitch": 68, "duration": 11, "velocity": 92}, {"time": 2767, "pitch": 56, "duration": 9, "velocity": 58}, {"time": 2770, "pitch": 60, "duration": 4, "velocity": 58}, {"time": 2776, "pitch": 63, "duration": 11, "velocity": 102}, {"time": 2776, "pitch": 68, "duration": 11, "velocity": 102}, {"time": 2782, "pitch": 60, "duration": 5, "velocity": 88}, {"time": 2788, "pitch": 43, "duration": 14, "velocity": 99}, {"time": 2794, "pitch": 50, "duration": 8, "velocity": 43}, {"time": 2800, "pitch": 55, "duration": 2, "velocity": 78}, {"time": 2800, "pitch": 67, "duration": 6, "velocity": 102}, {"time": 2800, "pitch": 71, "duration": 7, "velocity": 99}, {"time": 2806, "pitch": 62, "duration": 6, "velocity": 83}, {"time": 2812, "pitch": 36, "duration": 16, "velocity": 78}, {"time": 2818, "pitch": 43, "duration": 10, "velocity": 58}, {"time": 2824, "pitch": 63, "duration": 7, "velocity": 122}, {"time": 2824, "pitch": 67, "duration": 13, "velocity": 93}, {"time": 2827, "pitch": 48, "duration": 2, "velocity": 86}, {"time": 2830, "pitch": 60, "duration": 8, "velocity": 93}, {"time": 2836, "pitch": 44, "duration": 19, "velocity": 79}, {"time": 2842, "pitch": 51, "duration": 9, "velocity": 55}, {"time": 2848, "pitch": 56, "duration": 6, "velocity": 83}, {"time": 2848, "pitch": 63, "duration": 8, "velocity": 96}, {"time": 2848, "pitch": 68, "duration": 13, "velocity": 102}, {"time": 2854, "pitch": 60, "duration": 7, "velocity": 86}, {"time": 2857, "pitch": 63, "duration": 3, "velocity": 56}, {"time": 2860, "pitch": 41, "duration": 16, "velocity": 75}, {"time": 2866, "pitch": 48, "duration": 10, "velocity": 36}, {"time": 2872, "pitch": 53, "duration": 6, "velocity": 88}, {"time": 2872, "pitch": 65, "duration": 12, "velocity": 122}, {"time": 2872, "pitch": 68, "duration": 12, "velocity": 127}, {"time": 2878, "pitch": 60, "duration": 6, "velocity": 89}, {"time": 2884, "pitch": 46, "duration": 5, "velocity": 71}, {"time": 2884, "pitch": 58, "duration": 5, "velocity": 95}, {"time": 2884, "pitch": 62, "duration": 5, "velocity": 99}, {"time": 2884, "pitch": 65, "duration": 5, "velocity": 92}, {"time": 2890, "pitch": 46, "duration": 4, "velocity": 86}, {"time": 2890, "pitch": 58, "duration": 4, "velocity": 93}, {"time": 2890, "pitch": 62, "duration": 5, "velocity": 90}, {"time": 2890, "pitch": 65, "duration": 5, "velocity": 81}, {"time": 2890, "pitch": 70, "duration": 5, "velocity": 92}, {"time": 2896, "pitch": 46, "duration": 4, "velocity": 99}, {"time": 2896, "pitch": 58, "duration": 4, "velocity": 99}, {"time": 2896, "pitch": 62, "duration": 4, "velocity": 97}, {"time": 2896, "pitch": 65, "duration": 5, "velocity": 88}, {"time": 2896, "pitch": 70, "duration": 4, "velocity": 95}, {"time": 2902, "pitch": 46, "duration": 5, "velocity": 88}, {"time": 2902, "pitch": 58, "duration": 5, "velocity": 95}, {"time": 2902, "pitch": 62, "duration": 5, "velocity": 107}, {"time": 2902, "pitch": 65, "duration": 5, "velocity": 90}, {"time": 2902, "pitch": 70, "duration": 5, "velocity": 100}, {"time": 2908, "pitch": 46, "duration": 3, "velocity": 100}, {"time": 2908, "pitch": 58, "duration": 3, "velocity": 97}, {"time": 2908, "pitch": 62, "duration": 3, "velocity": 107}, {"time": 2908, "pitch": 65, "duration": 4, "velocity": 96}, {"time": 2908, "pitch": 70, "duration": 4, "velocity": 107}, {"time": 2932, "pitch": 39, "duration": 23, "velocity": 100}, {"time": 2935, "pitch": 46, "duration": 21, "velocity": 127}, {"time": 2938, "pitch": 51, "duration": 7, "velocity": 97}, {"time": 2938, "pitch": 63, "duration": 4, "velocity": 88}, {"time": 2944, "pitch": 63, "duration": 3, "velocity": 117}, {"time": 2944, "pitch": 67, "duration": 1, "velocity": 112}, {"time": 2944, "pitch": 70, "duration": 5, "velocity": 127}, {"time": 2947, "pitch": 51, "duration": 17, "velocity": 122}, {"time": 2950, "pitch": 63, "duration": 2, "velocity": 99}, {"time": 2953, "pitch": 63, "duration": 7, "velocity": 122}, {"time": 2953, "pitch": 67, "duration": 2, "velocity": 117}, {"time": 2953, "pitch": 70, "duration": 8, "velocity": 122}, {"time": 2956, "pitch": 39, "duration": 2, "velocity": 40}, {"time": 2956, "pitch": 67, "duration": 4, "velocity": 31}, {"time": 2959, "pitch": 39, "duration": 16, "velocity": 70}, {"time": 2959, "pitch": 46, "duration": 13, "velocity": 66}, {"time": 2962, "pitch": 63, "duration": 5, "velocity": 117}, {"time": 2962, "pitch": 70, "duration": 3, "velocity": 85}, {"time": 2965, "pitch": 51, "duration": 5, "velocity": 112}, {"time": 2968, "pitch": 67, "duration": 4, "velocity": 122}, {"time": 2968, "pitch": 70, "duration": 5, "velocity": 127}, {"time": 2971, "pitch": 51, "duration": 2, "velocity": 100}, {"time": 2974, "pitch": 63, "duration": 6, "velocity": 102}, {"time": 2974, "pitch": 70, "duration": 5, "velocity": 35}, {"time": 2977, "pitch": 67, "duration": 3, "velocity": 93}, {"time": 2980, "pitch": 36, "duration": 40, "velocity": 83}, {"time": 2983, "pitch": 43, "duration": 37, "velocity": 60}, {"time": 2986, "pitch": 48, "duration": 7, "velocity": 95}, {"time": 2989, "pitch": 60, "duration": 3, "velocity": 77}, {"time": 2992, "pitch": 63, "duration": 7, "velocity": 127}, {"time": 2992, "pitch": 67, "duration": 7, "velocity": 107}, {"time": 2995, "pitch": 48, "duration": 3, "velocity": 97}, {"time": 2998, "pitch": 60, "duration": 4, "velocity": 96}, {"time": 3001, "pitch": 63, "duration": 4, "velocity": 127}, {"time": 3001, "pitch": 67, "duration": 4, "velocity": 100}, {"time": 3007, "pitch": 63, "duration": 2, "velocity": 127}, {"time": 3007, "pitch": 67, "duration": 2, "velocity": 100}, {"time": 3010, "pitch": 60, "duration": 1, "velocity": 76}, {"time": 3010, "pitch": 63, "duration": 2, "velocity": 127}, {"time": 3010, "pitch": 67, "duration": 2, "velocity": 97}, {"time": 3013, "pitch": 48, "duration": 4, "velocity": 107}, {"time": 3016, "pitch": 63, "duration": 4, "velocity": 127}, {"time": 3016, "pitch": 67, "duration": 5, "velocity": 97}, {"time": 3019, "pitch": 48, "duration": 3, "velocity": 99}, {"time": 3022, "pitch": 63, "duration": 5, "velocity": 127}, {"time": 3022, "pitch": 67, "duration": 5, "velocity": 89}, {"time": 3025, "pitch": 60, "duration": 4, "velocity": 100}, {"time": 3028, "pitch": 41, "duration": 18, "velocity": 85}, {"time": 3031, "pitch": 48, "duration": 15, "velocity": 93}, {"time": 3034, "pitch": 53, "duration": 7, "velocity": 112}, {"time": 3037, "pitch": 60, "duration": 3, "velocity": 97}, {"time": 3040, "pitch": 65, "duration": 6, "velocity": 107}, {"time": 3040, "pitch": 68, "duration": 7, "velocity": 127}, {"time": 3043, "pitch": 53, "duration": 4, "velocity": 100}, {"time": 3046, "pitch": 60, "duration": 7, "velocity": 96}, {"time": 3049, "pitch": 65, "duration": 3, "velocity": 97}, {"time": 3049, "pitch": 68, "duration": 3, "velocity": 112}, {"time": 3052, "pitch": 44, "duration": 22, "velocity": 82}, {"time": 3055, "pitch": 51, "duration": 19, "velocity": 96}, {"time": 3058, "pitch": 56, "duration": 7, "velocity": 117}, {"time": 3061, "pitch": 60, "duration": 5, "velocity": 93}, {"time": 3064, "pitch": 63, "duration": 4, "velocity": 117}, {"time": 3064, "pitch": 68, "duration": 4, "velocity": 117}, {"time": 3067, "pitch": 56, "duration": 5, "velocity": 117}, {"time": 3070, "pitch": 63, "duration": 4, "velocity": 122}, {"time": 3070, "pitch": 68, "duration": 4, "velocity": 122}, {"time": 3073, "pitch": 60, "duration": 2, "velocity": 99}, {"time": 3076, "pitch": 41, "duration": 23, "velocity": 92}, {"time": 3079, "pitch": 48, "duration": 19, "velocity": 90}, {"time": 3082, "pitch": 53, "duration": 8, "velocity": 100}, {"time": 3085, "pitch": 60, "duration": 2, "velocity": 96}, {"time": 3085, "pitch": 65, "duration": 1, "velocity": 56}, {"time": 3088, "pitch": 60, "duration": 1, "velocity": 86}, {"time": 3088, "pitch": 65, "duration": 5, "velocity": 102}, {"time": 3088, "pitch": 68, "duration": 7, "velocity": 107}, {"time": 3091, "pitch": 60, "duration": 3, "velocity": 52}, {"time": 3094, "pitch": 53, "duration": 4, "velocity": 102}, {"time": 3097, "pitch": 60, "duration": 1, "velocity": 93}, {"time": 3097, "pitch": 65, "duration": 2, "velocity": 112}, {"time": 3097, "pitch": 68, "duration": 2, "velocity": 107}, {"time": 3100, "pitch": 46, "duration": 19, "velocity": 100}, {"time": 3103, "pitch": 53, "duration": 15, "velocity": 58}, {"time": 3106, "pitch": 58, "duration": 7, "velocity": 102}, {"time": 3109, "pitch": 62, "duration": 2, "velocity": 89}, {"time": 3109, "pitch": 65, "duration": 2, "velocity": 95}, {"time": 3109, "pitch": 70, "duration": 2, "velocity": 96}, {"time": 3112, "pitch": 62, "duration": 3, "velocity": 99}, {"time": 3112, "pitch": 65, "duration": 4, "velocity": 117}, {"time": 3112, "pitch": 70, "duration": 4, "velocity": 117}, {"time": 3115, "pitch": 58, "duration": 3, "velocity": 112}, {"time": 3118, "pitch": 65, "duration": 2, "velocity": 112}, {"time": 3118, "pitch": 70, "duration": 2, "velocity": 127}, {"time": 3121, "pitch": 62, "duration": 2, "velocity": 107}, {"time": 3121, "pitch": 65, "duration": 3, "velocity": 92}, {"time": 3121, "pitch": 70, "duration": 3, "velocity": 107}, {"time": 3124, "pitch": 39, "duration": 41, "velocity": 96}, {"time": 3127, "pitch": 46, "duration": 37, "velocity": 92}, {"time": 3130, "pitch": 51, "duration": 7, "velocity": 102}, {"time": 3133, "pitch": 55, "duration": 3, "velocity": 70}, {"time": 3136, "pitch": 58, "duration": 2, "velocity": 127}, {"time": 3136, "pitch": 63, "duration": 2, "velocity": 127}, {"time": 3139, "pitch": 51, "duration": 8, "velocity": 100}, {"time": 3142, "pitch": 55, "duration": 2, "velocity": 61}, {"time": 3142, "pitch": 63, "duration": 1, "velocity": 50}, {"time": 3145, "pitch": 58, "duration": 1, "velocity": 127}, {"time": 3145, "pitch": 63, "duration": 2, "velocity": 117}, {"time": 3148, "pitch": 51, "duration": 7, "velocity": 85}, {"time": 3151, "pitch": 63, "duration": 2, "velocity": 93}, {"time": 3151, "pitch": 67, "duration": 2, "velocity": 92}, {"time": 3151, "pitch": 70, "duration": 1, "velocity": 78}, {"time": 3154, "pitch": 63, "duration": 2, "velocity": 112}, {"time": 3154, "pitch": 67, "duration": 1, "velocity": 122}, {"time": 3154, "pitch": 70, "duration": 2, "velocity": 117}, {"time": 3157, "pitch": 51, "duration": 4, "velocity": 85}, {"time": 3160, "pitch": 67, "duration": 2, "velocity": 112}, {"time": 3160, "pitch": 70, "duration": 5, "velocity": 117}, {"time": 3163, "pitch": 51, "duration": 2, "velocity": 97}, {"time": 3166, "pitch": 63, "duration": 3, "velocity": 107}, {"time": 3166, "pitch": 70, "duration": 2, "velocity": 40}, {"time": 3169, "pitch": 63, "duration": 2, "velocity": 58}, {"time": 3169, "pitch": 70, "duration": 2, "velocity": 102}, {"time": 3172, "pitch": 36, "duration": 40, "velocity": 82}, {"time": 3175, "pitch": 43, "duration": 37, "velocity": 85}, {"time": 3178, "pitch": 48, "duration": 7, "velocity": 93}, {"time": 3181, "pitch": 60, "duration": 3, "velocity": 93}, {"time": 3184, "pitch": 60, "duration": 2, "velocity": 71}, {"time": 3184, "pitch": 63, "duration": 2, "velocity": 127}, {"time": 3184, "pitch": 67, "duration": 2, "velocity": 117}, {"time": 3190, "pitch": 48, "duration": 5, "velocity": 88}, {"time": 3193, "pitch": 55, "duration": 2, "velocity": 99}, {"time": 3193, "pitch": 60, "duration": 1, "velocity": 102}, {"time": 3193, "pitch": 63, "duration": 1, "velocity": 117}, {"time": 3196, "pitch": 48, "duration": 5, "velocity": 61}, {"time": 3199, "pitch": 60, "duration": 7, "velocity": 117}, {"time": 3199, "pitch": 63, "duration": 7, "velocity": 122}, {"time": 3202, "pitch": 55, "duration": 4, "velocity": 82}, {"time": 3205, "pitch": 48, "duration": 4, "velocity": 89}, {"time": 3208, "pitch": 60, "duration": 5, "velocity": 122}, {"time": 3208, "pitch": 63, "duration": 5, "velocity": 127}, {"time": 3211, "pitch": 48, "duration": 3, "velocity": 88}, {"time": 3214, "pitch": 60, "duration": 5, "velocity": 112}, {"time": 3214, "pitch": 63, "duration": 5, "velocity": 117}, {"time": 3217, "pitch": 55, "duration": 2, "velocity": 100}, {"time": 3220, "pitch": 41, "duration": 17, "velocity": 88}, {"time": 3223, "pitch": 48, "duration": 13, "velocity": 77}, {"time": 3226, "pitch": 53, "duration": 7, "velocity": 93}, {"time": 3229, "pitch": 60, "duration": 3, "velocity": 85}, {"time": 3232, "pitch": 65, "duration": 7, "velocity": 117}, {"time": 3232, "pitch": 68, "duration": 7, "velocity": 127}, {"time": 3235, "pitch": 53, "duration": 3, "velocity": 97}, {"time": 3238, "pitch": 60, "duration": 6, "velocity": 102}, {"time": 3241, "pitch": 65, "duration": 3, "velocity": 107}, {"time": 3241, "pitch": 68, "duration": 3, "velocity": 127}, {"time": 3244, "pitch": 44, "duration": 21, "velocity": 88}, {"time": 3247, "pitch": 51, "duration": 18, "velocity": 66}, {"time": 3250, "pitch": 56, "duration": 7, "velocity": 99}, {"time": 3253, "pitch": 60, "duration": 2, "velocity": 69}, {"time": 3253, "pitch": 63, "duration": 2, "velocity": 78}, {"time": 3253, "pitch": 68, "duration": 2, "velocity": 52}, {"time": 3256, "pitch": 63, "duration": 4, "velocity": 122}, {"time": 3256, "pitch": 68, "duration": 4, "velocity": 127}, {"time": 3259, "pitch": 56, "duration": 4, "velocity": 102}, {"time": 3262, "pitch": 63, "duration": 4, "velocity": 127}, {"time": 3262, "pitch": 68, "duration": 5, "velocity": 122}, {"time": 3265, "pitch": 60, "duration": 3, "velocity": 107}, {"time": 3268, "pitch": 46, "duration": 22, "velocity": 90}, {"time": 3271, "pitch": 53, "duration": 19, "velocity": 55}, {"time": 3274, "pitch": 58, "duration": 8, "velocity": 99}, {"time": 3277, "pitch": 62, "duration": 2, "velocity": 72}, {"time": 3277, "pitch": 65, "duration": 2, "velocity": 68}, {"time": 3277, "pitch": 70, "duration": 2, "velocity": 61}, {"time": 3280, "pitch": 62, "duration": 4, "velocity": 95}, {"time": 3280, "pitch": 65, "duration": 3, "velocity": 99}, {"time": 3280, "pitch": 70, "duration": 4, "velocity": 117}, {"time": 3286, "pitch": 58, "duration": 5, "velocity": 102}, {"time": 3289, "pitch": 62, "duration": 2, "velocity": 92}, {"time": 3289, "pitch": 65, "duration": 2, "velocity": 79}, {"time": 3289, "pitch": 70, "duration": 2, "velocity": 58}, {"time": 3292, "pitch": 46, "duration": 12, "velocity": 81}, {"time": 3292, "pitch": 53, "duration": 11, "velocity": 68}, {"time": 3292, "pitch": 58, "duration": 11, "velocity": 99}, {"time": 3292, "pitch": 62, "duration": 12, "velocity": 97}, {"time": 3292, "pitch": 65, "duration": 11, "velocity": 99}, {"time": 3292, "pitch": 70, "duration": 12, "velocity": 117}, {"time": 3328, "pitch": 44, "duration": 5, "velocity": 122}, {"time": 3328, "pitch": 56, "duration": 7, "velocity": 117}, {"time": 3328, "pitch": 60, "duration": 6, "velocity": 127}, {"time": 3328, "pitch": 63, "duration": 7, "velocity": 127}, {"time": 3340, "pitch": 39, "duration": 18, "velocity": 90}, {"time": 3340, "pitch": 51, "duration": 14, "velocity": 97}, {"time": 3340, "pitch": 55, "duration": 11, "velocity": 102}, {"time": 3340, "pitch": 58, "duration": 10, "velocity": 127}, {"time": 3340, "pitch": 63, "duration": 11, "velocity": 102}, {"time": 3352, "pitch": 55, "duration": 6, "velocity": 100}, {"time": 3352, "pitch": 58, "duration": 11, "velocity": 127}, {"time": 3352, "pitch": 63, "duration": 12, "velocity": 127}, {"time": 3355, "pitch": 51, "duration": 3, "velocity": 89}, {"time": 3361, "pitch": 55, "duration": 4, "velocity": 96}, {"time": 3364, "pitch": 36, "duration": 40, "velocity": 69}, {"time": 3367, "pitch": 43, "duration": 38, "velocity": 69}, {"time": 3370, "pitch": 48, "duration": 7, "velocity": 107}, {"time": 3373, "pitch": 55, "duration": 5, "velocity": 93}, {"time": 3376, "pitch": 60, "duration": 8, "velocity": 117}, {"time": 3376, "pitch": 63, "duration": 8, "velocity": 127}, {"time": 3382, "pitch": 48, "duration": 13, "velocity": 92}, {"time": 3385, "pitch": 60, "duration": 5, "velocity": 99}, {"time": 3385, "pitch": 63, "duration": 5, "velocity": 112}, {"time": 3388, "pitch": 55, "duration": 2, "velocity": 32}, {"time": 3391, "pitch": 60, "duration": 7, "velocity": 117}, {"time": 3391, "pitch": 63, "duration": 7, "velocity": 117}, {"time": 3394, "pitch": 55, "duration": 4, "velocity": 74}, {"time": 3397, "pitch": 48, "duration": 4, "velocity": 88}, {"time": 3400, "pitch": 60, "duration": 4, "velocity": 117}, {"time": 3400, "pitch": 63, "duration": 5, "velocity": 127}, {"time": 3403, "pitch": 48, "duration": 4, "velocity": 89}, {"time": 3406, "pitch": 60, "duration": 5, "velocity": 122}, {"time": 3406, "pitch": 63, "duration": 6, "velocity": 100}, {"time": 3409, "pitch": 55, "duration": 3, "velocity": 102}, {"time": 3412, "pitch": 41, "duration": 18, "velocity": 92}, {"time": 3415, "pitch": 48, "duration": 15, "velocity": 88}, {"time": 3418, "pitch": 53, "duration": 7, "velocity": 95}, {"time": 3421, "pitch": 60, "duration": 2, "velocity": 95}, {"time": 3421, "pitch": 65, "duration": 2, "velocity": 88}, {"time": 3421, "pitch": 68, "duration": 2, "velocity": 86}, {"time": 3424, "pitch": 65, "duration": 6, "velocity": 117}, {"time": 3424, "pitch": 68, "duration": 8, "velocity": 127}, {"time": 3427, "pitch": 53, "duration": 3, "velocity": 107}, {"time": 3430, "pitch": 60, "duration": 6, "velocity": 112}, {"time": 3430, "pitch": 65, "duration": 2, "velocity": 38}, {"time": 3433, "pitch": 65, "duration": 3, "velocity": 99}, {"time": 3433, "pitch": 68, "duration": 3, "velocity": 112}, {"time": 3436, "pitch": 44, "duration": 17, "velocity": 90}, {"time": 3439, "pitch": 51, "duration": 13, "velocity": 34}, {"time": 3442, "pitch": 56, "duration": 7, "velocity": 102}, {"time": 3445, "pitch": 60, "duration": 3, "velocity": 90}, {"time": 3448, "pitch": 63, "duration": 7, "velocity": 127}, {"time": 3448, "pitch": 68, "duration": 7, "velocity": 127}, {"time": 3451, "pitch": 56, "duration": 2, "velocity": 122}, {"time": 3454, "pitch": 60, "duration": 7, "velocity": 112}, {"time": 3457, "pitch": 63, "duration": 3, "velocity": 117}, {"time": 3457, "pitch": 68, "duration": 3, "velocity": 122}, {"time": 3460, "pitch": 41, "duration": 16, "velocity": 76}, {"time": 3463, "pitch": 48, "duration": 12, "velocity": 75}, {"time": 3466, "pitch": 53, "duration": 7, "velocity": 100}, {"time": 3469, "pitch": 60, "duration": 2, "velocity": 82}, {"time": 3472, "pitch": 65, "duration": 7, "velocity": 117}, {"time": 3472, "pitch": 68, "duration": 7, "velocity": 122}, {"time": 3475, "pitch": 53, "duration": 3, "velocity": 100}, {"time": 3478, "pitch": 60, "duration": 6, "velocity": 122}, {"time": 3481, "pitch": 65, "duration": 3, "velocity": 107}, {"time": 3481, "pitch": 68, "duration": 3, "velocity": 127}, {"time": 3484, "pitch": 46, "duration": 21, "velocity": 88}, {"time": 3487, "pitch": 53, "duration": 17, "velocity": 42}, {"time": 3490, "pitch": 58, "duration": 8, "velocity": 117}, {"time": 3493, "pitch": 62, "duration": 2, "velocity": 72}, {"time": 3493, "pitch": 65, "duration": 2, "velocity": 83}, {"time": 3493, "pitch": 70, "duration": 2, "velocity": 90}, {"time": 3496, "pitch": 65, "duration": 5, "velocity": 112}, {"time": 3496, "pitch": 70, "duration": 5, "velocity": 127}, {"time": 3499, "pitch": 58, "duration": 4, "velocity": 117}, {"time": 3502, "pitch": 65, "duration": 5, "velocity": 117}, {"time": 3502, "pitch": 70, "duration": 5, "velocity": 127}, {"time": 3505, "pitch": 60, "duration": 1, "velocity": 96}, {"time": 3505, "pitch": 62, "duration": 3, "velocity": 102}, {"time": 3508, "pitch": 39, "duration": 22, "velocity": 100}, {"time": 3514, "pitch": 51, "duration": 8, "velocity": 97}, {"time": 3517, "pitch": 55, "duration": 4, "velocity": 96}, {"time": 3520, "pitch": 58, "duration": 7, "velocity": 127}, {"time": 3520, "pitch": 63, "duration": 7, "velocity": 122}, {"time": 3523, "pitch": 51, "duration": 9, "velocity": 102}, {"time": 3526, "pitch": 55, "duration": 5, "velocity": 83}, {"time": 3529, "pitch": 58, "duration": 2, "velocity": 107}, {"time": 3529, "pitch": 63, "duration": 2, "velocity": 127}, {"time": 3532, "pitch": 39, "duration": 17, "velocity": 102}, {"time": 3535, "pitch": 51, "duration": 10, "velocity": 112}, {"time": 3538, "pitch": 63, "duration": 5, "velocity": 86}, {"time": 3541, "pitch": 67, "duration": 2, "velocity": 77}, {"time": 3541, "pitch": 70, "duration": 2, "velocity": 96}, {"time": 3544, "pitch": 63, "duration": 4, "velocity": 112}, {"time": 3544, "pitch": 67, "duration": 4, "velocity": 122}, {"time": 3544, "pitch": 70, "duration": 4, "velocity": 122}, {"time": 3547, "pitch": 51, "duration": 2, "velocity": 100}, {"time": 3550, "pitch": 67, "duration": 2, "velocity": 107}, {"time": 3550, "pitch": 70, "duration": 4, "velocity": 122}, {"time": 3553, "pitch": 63, "duration": 3, "velocity": 122}, {"time": 3556, "pitch": 36, "duration": 40, "velocity": 64}, {"time": 3556, "pitch": 68, "duration": 1, "velocity": 31}, {"time": 3559, "pitch": 43, "duration": 37, "velocity": 63}, {"time": 3562, "pitch": 48, "duration": 7, "velocity": 89}, {"time": 3565, "pitch": 60, "duration": 5, "velocity": 97}, {"time": 3568, "pitch": 63, "duration": 4, "velocity": 127}, {"time": 3568, "pitch": 67, "duration": 7, "velocity": 112}, {"time": 3571, "pitch": 48, "duration": 8, "velocity": 78}, {"time": 3574, "pitch": 60, "duration": 8, "velocity": 96}, {"time": 3577, "pitch": 63, "duration": 4, "velocity": 112}, {"time": 3577, "pitch": 67, "duration": 4, "velocity": 97}, {"time": 3580, "pitch": 48, "duration": 7, "velocity": 54}, {"time": 3583, "pitch": 63, "duration": 7, "velocity": 127}, {"time": 3583, "pitch": 67, "duration": 7, "velocity": 99}, {"time": 3586, "pitch": 60, "duration": 4, "velocity": 89}, {"time": 3589, "pitch": 48, "duration": 4, "velocity": 81}, {"time": 3592, "pitch": 60, "duration": 4, "velocity": 85}, {"time": 3592, "pitch": 63, "duration": 4, "velocity": 122}, {"time": 3592, "pitch": 67, "duration": 4, "velocity": 96}, {"time": 3595, "pitch": 48, "duration": 4, "velocity": 76}, {"time": 3598, "pitch": 63, "duration": 6, "velocity": 127}, {"time": 3598, "pitch": 67, "duration": 5, "velocity": 99}, {"time": 3601, "pitch": 60, "duration": 3, "velocity": 99}, {"time": 3604, "pitch": 41, "duration": 17, "velocity": 90}, {"time": 3607, "pitch": 48, "duration": 14, "velocity": 82}, {"time": 3610, "pitch": 53, "duration": 7, "velocity": 90}, {"time": 3613, "pitch": 60, "duration": 3, "velocity": 82}, {"time": 3616, "pitch": 65, "duration": 5, "velocity": 117}, {"time": 3616, "pitch": 68, "duration": 6, "velocity": 127}, {"time": 3619, "pitch": 53, "duration": 3, "velocity": 95}, {"time": 3622, "pitch": 60, "duration": 6, "velocity": 97}, {"time": 3622, "pitch": 68, "duration": 1, "velocity": 41}, {"time": 3625, "pitch": 65, "duration": 3, "velocity": 102}, {"time": 3625, "pitch": 68, "duration": 3, "velocity": 112}, {"time": 3628, "pitch": 44, "duration": 21, "velocity": 85}, {"time": 3631, "pitch": 51, "duration": 18, "velocity": 73}, {"time": 3634, "pitch": 56, "duration": 7, "velocity": 99}, {"time": 3637, "pitch": 60, "duration": 2, "velocity": 77}, {"time": 3637, "pitch": 63, "duration": 2, "velocity": 99}, {"time": 3637, "pitch": 68, "duration": 2, "velocity": 78}, {"time": 3640, "pitch": 63, "duration": 4, "velocity": 127}, {"time": 3640, "pitch": 68, "duration": 4, "velocity": 122}, {"time": 3643, "pitch": 56, "duration": 5, "velocity": 97}, {"time": 3646, "pitch": 63, "duration": 5, "velocity": 127}, {"time": 3646, "pitch": 68, "duration": 5, "velocity": 127}, {"time": 3649, "pitch": 60, "duration": 2, "velocity": 107}, {"time": 3652, "pitch": 46, "duration": 22, "velocity": 95}, {"time": 3655, "pitch": 53, "duration": 20, "velocity": 56}, {"time": 3658, "pitch": 58, "duration": 7, "velocity": 99}, {"time": 3661, "pitch": 62, "duration": 2, "velocity": 81}, {"time": 3661, "pitch": 65, "duration": 2, "velocity": 63}, {"time": 3661, "pitch": 70, "duration": 1, "velocity": 44}, {"time": 3664, "pitch": 62, "duration": 3, "velocity": 107}, {"time": 3664, "pitch": 65, "duration": 2, "velocity": 127}, {"time": 3664, "pitch": 70, "duration": 4, "velocity": 127}, {"time": 3667, "pitch": 58, "duration": 7, "velocity": 95}, {"time": 3670, "pitch": 65, "duration": 2, "velocity": 96}, {"time": 3670, "pitch": 70, "duration": 2, "velocity": 112}, {"time": 3673, "pitch": 62, "duration": 2, "velocity": 99}, {"time": 3673, "pitch": 65, "duration": 2, "velocity": 55}, {"time": 3673, "pitch": 70, "duration": 2, "velocity": 51}, {"time": 3676, "pitch": 46, "duration": 8, "velocity": 82}, {"time": 3676, "pitch": 53, "duration": 7, "velocity": 69}, {"time": 3676, "pitch": 58, "duration": 6, "velocity": 100}, {"time": 3676, "pitch": 62, "duration": 5, "velocity": 100}, {"time": 3676, "pitch": 65, "duration": 6, "velocity": 100}, {"time": 3676, "pitch": 70, "duration": 6, "velocity": 112}, {"time": 3700, "pitch": 36, "duration": 35, "velocity": 96}, {"time": 3706, "pitch": 43, "duration": 29, "velocity": 64}, {"time": 3712, "pitch": 55, "duration": 2, "velocity": 88}, {"time": 3712, "pitch": 60, "duration": 2, "velocity": 90}, {"time": 3712, "pitch": 63, "duration": 2, "velocity": 90}, {"time": 3718, "pitch": 48, "duration": 12, "velocity": 60}, {"time": 3721, "pitch": 55, "duration": 2, "velocity": 76}, {"time": 3721, "pitch": 60, "duration": 2, "velocity": 82}, {"time": 3721, "pitch": 63, "duration": 2, "velocity": 82}, {"time": 3727, "pitch": 55, "duration": 2, "velocity": 70}, {"time": 3727, "pitch": 60, "duration": 2, "velocity": 63}, {"time": 3727, "pitch": 63, "duration": 2, "velocity": 54}, {"time": 3733, "pitch": 48, "duration": 4, "velocity": 45}, {"time": 3736, "pitch": 55, "duration": 2, "velocity": 77}, {"time": 3736, "pitch": 60, "duration": 2, "velocity": 89}, {"time": 3736, "pitch": 63, "duration": 2, "velocity": 90}, {"time": 3742, "pitch": 55, "duration": 2, "velocity": 72}, {"time": 3742, "pitch": 60, "duration": 2, "velocity": 82}, {"time": 3742, "pitch": 63, "duration": 2, "velocity": 85}, {"time": 3748, "pitch": 46, "duration": 36, "velocity": 79}, {"time": 3754, "pitch": 53, "duration": 29, "velocity": 38}, {"time": 3760, "pitch": 62, "duration": 2, "velocity": 69}, {"time": 3760, "pitch": 65, "duration": 2, "velocity": 75}, {"time": 3760, "pitch": 70, "duration": 2, "velocity": 74}, {"time": 3766, "pitch": 58, "duration": 12, "velocity": 58}, {"time": 3769, "pitch": 62, "duration": 2, "velocity": 68}, {"time": 3769, "pitch": 65, "duration": 2, "velocity": 72}, {"time": 3769, "pitch": 70, "duration": 2, "velocity": 76}, {"time": 3775, "pitch": 62, "duration": 2, "velocity": 69}, {"time": 3775, "pitch": 65, "duration": 1, "velocity": 76}, {"time": 3775, "pitch": 70, "duration": 2, "velocity": 76}, {"time": 3781, "pitch": 58, "duration": 3, "velocity": 76}, {"time": 3784, "pitch": 65, "duration": 4, "velocity": 64}, {"time": 3784, "pitch": 70, "duration": 4, "velocity": 86}, {"time": 3790, "pitch": 62, "duration": 2, "velocity": 70}, {"time": 3790, "pitch": 65, "duration": 2, "velocity": 88}, {"time": 3790, "pitch": 70, "duration": 2, "velocity": 92}, {"time": 3797, "pitch": 63, "duration": 10, "velocity": 100}, {"time": 3797, "pitch": 70, "duration": 9, "velocity": 79}, {"time": 3797, "pitch": 39, "duration": 22, "velocity": 56}, {"time": 3797, "pitch": 67, "duration": 10, "velocity": 88}, {"time": 3797, "pitch": 51, "duration": 23, "velocity": 89}, {"time": 3804, "pitch": 46, "duration": 16, "velocity": 34}, {"time": 3809, "pitch": 63, "duration": 11, "velocity": 100}, {"time": 3809, "pitch": 70, "duration": 10, "velocity": 83}, {"time": 3809, "pitch": 67, "duration": 10, "velocity": 86}, {"time": 3822, "pitch": 70, "duration": 31, "velocity": 96}, {"time": 3822, "pitch": 63, "duration": 31, "velocity": 102}, {"time": 3822, "pitch": 67, "duration": 31, "velocity": 88}, {"time": 3822, "pitch": 39, "duration": 31, "velocity": 52}, {"time": 3822, "pitch": 46, "duration": 31, "velocity": 66}, {"time": 3822, "pitch": 51, "duration": 31, "velocity": 69}, {"time": 3913, "pitch": 67, "duration": 9, "velocity": 58}, {"time": 3914, "pitch": 63, "duration": 8, "velocity": 71}, {"time": 3915, "pitch": 36, "duration": 86, "velocity": 74}, {"time": 3916, "pitch": 60, "duration": 7, "velocity": 66}, {"time": 3922, "pitch": 43, "duration": 78, "velocity": 51}, {"time": 3925, "pitch": 48, "duration": 75, "velocity": 55}, {"time": 3928, "pitch": 51, "duration": 2, "velocity": 59}, {"time": 3930, "pitch": 55, "duration": 1, "velocity": 64}, {"time": 3933, "pitch": 60, "duration": 4, "velocity": 86}, {"time": 3935, "pitch": 63, "duration": 3, "velocity": 60}, {"time": 3938, "pitch": 67, "duration": 1, "velocity": 71}, {"time": 3940, "pitch": 72, "duration": 61, "velocity": 46}, {"time": 3943, "pitch": 75, "duration": 58, "velocity": 69}, {"time": 3946, "pitch": 79, "duration": 55, "velocity": 66}, {"time": 3950, "pitch": 84, "duration": 50, "velocity": 42}], "annotations": [{"time": 52, "annotation": {"number": 64, "value": 127}, "group": "control_change"}, {"time": 98, "annotation": {"number": 64, "value": 0}, "group": "control_change"}, {"time": 100, "annotation": {"number": 64, "value": 127}, "group": "control_change"}, {"time": 147, "annotation": {"number": 64, "value": 0}, "group": "control_change"}, {"time": 149, "annotation": {"number": 64, "value": 127}, "group": "control_change"}, {"time": 195, "annotation": {"number": 64, "value": 0}, "group": "control_change"}, {"time": 197, "annotation": {"number": 64, "value": 127}, "group": "control_change"}, {"time": 242, "annotation": {"number": 64, "value": 0}, "group": "control_change"}, {"time": 245, "annotation": {"number": 64, "value": 127}, "group": "control_change"}, {"time": 291, "annotation": {"number": 64, "value": 0}, "group": "control_change"}, {"time": 293, "annotation": {"number": 64, "value": 127}, "group": "control_change"}, {"time": 339, "annotation": {"number": 64, "value": 0}, "group": "control_change"}, {"time": 341, "annotation": {"number": 64, "value": 127}, "group": "control_change"}, {"time": 387, "annotation": {"number": 64, "value": 0}, "group": "control_change"}, {"time": 388, "annotation": {"number": 64, "value": 127}, "group": "control_change"}, {"time": 434, "annotation": {"number": 64, "value": 0}, "group": "control_change"}, {"time": 436, "annotation": {"number": 64, "value": 127}, "group": "control_change"}, {"time": 483, "annotation": {"number": 64, "value": 0}, "group": "control_change"}, {"time": 484, "annotation": {"number": 64, "value": 127}, "group": "control_change"}, {"time": 543, "annotation": {"number": 64, "value": 0}, "group": "control_change"}, {"time": 544, "annotation": {"number": 64, "value": 127}, "group": "control_change"}, {"time": 579, "annotation": {"number": 64, "value": 0}, "group": "control_change"}, {"time": 580, "annotation": {"number": 64, "value": 127}, "group": "control_change"}, {"time": 626, "annotation": {"number": 64, "value": 0}, "group": "control_change"}, {"time": 629, "annotation": {"number": 64, "value": 127}, "group": "control_change"}, {"time": 675, "annotation": {"number": 64, "value": 0}, "group": "control_change"}, {"time": 677, "annotation": {"number": 64, "value": 127}, "group": "control_change"}, {"time": 723, "annotation": {"number": 64, "value": 0}, "group": "control_change"}, {"time": 725, "annotation": {"number": 64, "value": 127}, "group": "control_change"}, {"time": 771, "annotation": {"number": 64, "value": 0}, "group": "control_change"}, {"time": 772, "annotation": {"number": 64, "value": 127}, "group": "control_change"}, {"time": 818, "annotation": {"number": 64, "value": 0}, "group": "control_change"}, {"time": 820, "annotation": {"number": 64, "value": 127}, "group": "control_change"}, {"time": 867, "annotation": {"number": 64, "value": 0}, "group": "control_change"}, {"time": 868, "annotation": {"number": 64, "value": 127}, "group": "control_change"}, {"time": 927, "annotation": {"number": 64, "value": 0}, "group": "control_change"}, {"time": 928, "annotation": {"number": 64, "value": 127}, "group": "control_change"}, {"time": 963, "annotation": {"number": 64, "value": 0}, "group": "control_change"}, {"time": 964, "annotation": {"number": 64, "value": 127}, "group": "control_change"}, {"time": 1010, "annotation": {"number": 64, "value": 0}, "group": "control_change"}, {"time": 1013, "annotation": {"number": 64, "value": 127}, "group": "control_change"}, {"time": 1060, "annotation": {"number": 64, "value": 0}, "group": "control_change"}, {"time": 1060, "annotation": {"number": 64, "value": 127}, "group": "control_change"}, {"time": 1083, "annotation": {"number": 64, "value": 0}, "group": "control_change"}, {"time": 1085, "annotation": {"number": 64, "value": 127}, "group": "control_change"}, {"time": 1107, "annotation": {"number": 64, "value": 0}, "group": "control_change"}, {"time": 1109, "annotation": {"number": 64, "value": 127}, "group": "control_change"}, {"time": 1130, "annotation": {"number": 64, "value": 0}, "group": "control_change"}, {"time": 1132, "annotation": {"number": 64, "value": 127}, "group": "control_change"}, {"time": 1155, "annotation": {"number": 64, "value": 0}, "group": "control_change"}, {"time": 1157, "annotation": {"number": 64, "value": 127}, "group": "control_change"}, {"time": 1178, "annotation": {"number": 64, "value": 0}, "group": "control_change"}, {"time": 1180, "annotation": {"number": 64, "value": 127}, "group": "control_change"}, {"time": 1191, "annotation": {"number": 64, "value": 127}, "group": "control_change"}, {"time": 1197, "annotation": {"number": 64, "value": 0}, "group": "control_change"}, {"time": 1205, "annotation": {"number": 64, "value": 127}, "group": "control_change"}, {"time": 1215, "annotation": {"number": 64, "value": 0}, "group": "control_change"}, {"time": 1227, "annotation": {"number": 64, "value": 127}, "group": "control_change"}, {"time": 1247, "annotation": {"number": 64, "value": 0}, "group": "control_change"}, {"time": 1253, "annotation": {"number": 64, "value": 127}, "group": "control_change"}, {"time": 1275, "annotation": {"number": 64, "value": 0}, "group": "control_change"}, {"time": 1276, "annotation": {"number": 64, "value": 127}, "group": "control_change"}, {"time": 1299, "annotation": {"number": 64, "value": 0}, "group": "control_change"}, {"time": 1300, "annotation": {"number": 64, "value": 127}, "group": "control_change"}, {"time": 1323, "annotation": {"number": 64, "value": 0}, "group": "control_change"}, {"time": 1325, "annotation": {"number": 64, "value": 127}, "group": "control_change"}, {"time": 1347, "annotation": {"number": 64, "value": 0}, "group": "control_change"}, {"time": 1349, "annotation": {"number": 64, "value": 127}, "group": "control_change"}, {"time": 1369, "annotation": {"number": 64, "value": 0}, "group": "control_change"}, {"time": 1397, "annotation": {"number": 64, "value": 127}, "group": "control_change"}, {"time": 1417, "annotation": {"number": 64, "value": 0}, "group": "control_change"}, {"time": 1420, "annotation": {"number": 64, "value": 127}, "group": "control_change"}, {"time": 1426, "annotation": {"number": 64, "value": 0}, "group": "control_change"}, {"time": 1427, "annotation": {"number": 64, "value": 127}, "group": "control_change"}, {"time": 1443, "annotation": {"number": 64, "value": 0}, "group": "control_change"}, {"time": 1445, "annotation": {"number": 64, "value": 127}, "group": "control_change"}, {"time": 1465, "annotation": {"number": 64, "value": 0}, "group": "control_change"}, {"time": 1467, "annotation": {"number": 64, "value": 127}, "group": "control_change"}, {"time": 1490, "annotation": {"number": 64, "value": 0}, "group": "control_change"}, {"time": 1492, "annotation": {"number": 64, "value": 127}, "group": "control_change"}, {"time": 1495, "annotation": {"number": 64, "value": 0}, "group": "control_change"}, {"time": 1496, "annotation": {"number": 64, "value": 127}, "group": "control_change"}, {"time": 1515, "annotation": {"number": 64, "value": 0}, "group": "control_change"}, {"time": 1517, "annotation": {"number": 64, "value": 127}, "group": "control_change"}, {"time": 1519, "annotation": {"number": 64, "value": 0}, "group": "control_change"}, {"time": 1520, "annotation": {"number": 64, "value": 127}, "group": "control_change"}, {"time": 1527, "annotation": {"number": 64, "value": 0}, "group": "control_change"}, {"time": 1529, "annotation": {"number": 64, "value": 127}, "group": "control_change"}, {"time": 1538, "annotation": {"number": 64, "value": 0}, "group": "control_change"}, {"time": 1541, "annotation": {"number": 64, "value": 127}, "group": "control_change"}, {"time": 1561, "annotation": {"number": 64, "value": 0}, "group": "control_change"}, {"time": 1565, "annotation": {"number": 64, "value": 127}, "group": "control_change"}, {"time": 1586, "annotation": {"number": 64, "value": 0}, "group": "control_change"}, {"time": 1589, "annotation": {"number": 64, "value": 127}, "group": "control_change"}, {"time": 1634, "annotation": {"number": 64, "value": 0}, "group": "control_change"}, {"time": 1636, "annotation": {"number": 64, "value": 127}, "group": "control_change"}, {"time": 1657, "annotation": {"number": 64, "value": 0}, "group": "control_change"}, {"time": 1659, "annotation": {"number": 64, "value": 127}, "group": "control_change"}, {"time": 1683, "annotation": {"number": 64, "value": 0}, "group": "control_change"}, {"time": 1685, "annotation": {"number": 64, "value": 127}, "group": "control_change"}, {"time": 1707, "annotation": {"number": 64, "value": 0}, "group": "control_change"}, {"time": 1709, "annotation": {"number": 64, "value": 127}, "group": "control_change"}, {"time": 1730, "annotation": {"number": 64, "value": 0}, "group": "control_change"}, {"time": 1734, "annotation": {"number": 64, "value": 127}, "group": "control_change"}, {"time": 1755, "annotation": {"number": 64, "value": 0}, "group": "control_change"}, {"time": 1780, "annotation": {"number": 64, "value": 127}, "group": "control_change"}, {"time": 1827, "annotation": {"number": 64, "value": 0}, "group": "control_change"}, {"time": 1829, "annotation": {"number": 64, "value": 127}, "group": "control_change"}, {"time": 1850, "annotation": {"number": 64, "value": 0}, "group": "control_change"}, {"time": 1851, "annotation": {"number": 64, "value": 127}, "group": "control_change"}, {"time": 1875, "annotation": {"number": 64, "value": 0}, "group": "control_change"}, {"time": 1876, "annotation": {"number": 64, "value": 127}, "group": "control_change"}, {"time": 1879, "annotation": {"number": 64, "value": 0}, "group": "control_change"}, {"time": 1879, "annotation": {"number": 64, "value": 127}, "group": "control_change"}, {"time": 1923, "annotation": {"number": 64, "value": 0}, "group": "control_change"}, {"time": 1924, "annotation": {"number": 64, "value": 127}, "group": "control_change"}, {"time": 1925, "annotation": {"number": 64, "value": 127}, "group": "control_change"}, {"time": 1947, "annotation": {"number": 64, "value": 0}, "group": "control_change"}, {"time": 1949, "annotation": {"number": 64, "value": 127}, "group": "control_change"}, {"time": 1951, "annotation": {"number": 64, "value": 0}, "group": "control_change"}, {"time": 1952, "annotation": {"number": 64, "value": 127}, "group": "control_change"}, {"time": 1971, "annotation": {"number": 64, "value": 0}, "group": "control_change"}, {"time": 1973, "annotation": {"number": 64, "value": 127}, "group": "control_change"}, {"time": 1975, "annotation": {"number": 64, "value": 0}, "group": "control_change"}, {"time": 1976, "annotation": {"number": 64, "value": 127}, "group": "control_change"}, {"time": 2019, "annotation": {"number": 64, "value": 0}, "group": "control_change"}, {"time": 2020, "annotation": {"number": 64, "value": 127}, "group": "control_change"}, {"time": 2066, "annotation": {"number": 64, "value": 0}, "group": "control_change"}, {"time": 2068, "annotation": {"number": 64, "value": 127}, "group": "control_change"}, {"time": 2069, "annotation": {"number": 64, "value": 0}, "group": "control_change"}, {"time": 2075, "annotation": {"number": 64, "value": 127}, "group": "control_change"}, {"time": 2078, "annotation": {"number": 64, "value": 0}, "group": "control_change"}, {"time": 2079, "annotation": {"number": 64, "value": 127}, "group": "control_change"}, {"time": 2081, "annotation": {"number": 64, "value": 0}, "group": "control_change"}, {"time": 2129, "annotation": {"number": 64, "value": 127}, "group": "control_change"}, {"time": 2163, "annotation": {"number": 64, "value": 0}, "group": "control_change"}, {"time": 2165, "annotation": {"number": 64, "value": 127}, "group": "control_change"}, {"time": 2211, "annotation": {"number": 64, "value": 0}, "group": "control_change"}, {"time": 2213, "annotation": {"number": 64, "value": 127}, "group": "control_change"}, {"time": 2259, "annotation": {"number": 64, "value": 0}, "group": "control_change"}, {"time": 2261, "annotation": {"number": 64, "value": 127}, "group": "control_change"}, {"time": 2307, "annotation": {"number": 64, "value": 0}, "group": "control_change"}, {"time": 2308, "annotation": {"number": 64, "value": 127}, "group": "control_change"}, {"time": 2354, "annotation": {"number": 64, "value": 0}, "group": "control_change"}, {"time": 2356, "annotation": {"number": 64, "value": 127}, "group": "control_change"}, {"time": 2403, "annotation": {"number": 64, "value": 0}, "group": "control_change"}, {"time": 2404, "annotation": {"number": 64, "value": 127}, "group": "control_change"}, {"time": 2463, "annotation": {"number": 64, "value": 0}, "group": "control_change"}, {"time": 2464, "annotation": {"number": 64, "value": 127}, "group": "control_change"}, {"time": 2499, "annotation": {"number": 64, "value": 0}, "group": "control_change"}, {"time": 2500, "annotation": {"number": 64, "value": 127}, "group": "control_change"}, {"time": 2546, "annotation": {"number": 64, "value": 0}, "group": "control_change"}, {"time": 2549, "annotation": {"number": 64, "value": 127}, "group": "control_change"}, {"time": 2596, "annotation": {"number": 64, "value": 0}, "group": "control_change"}, {"time": 2596, "annotation": {"number": 64, "value": 127}, "group": "control_change"}, {"time": 2619, "annotation": {"number": 64, "value": 0}, "group": "control_change"}, {"time": 2621, "annotation": {"number": 64, "value": 127}, "group": "control_change"}, {"time": 2643, "annotation": {"number": 64, "value": 0}, "group": "control_change"}, {"time": 2645, "annotation": {"number": 64, "value": 127}, "group": "control_change"}, {"time": 2666, "annotation": {"number": 64, "value": 0}, "group": "control_change"}, {"time": 2668, "annotation": {"number": 64, "value": 127}, "group": "control_change"}, {"time": 2691, "annotation": {"number": 64, "value": 0}, "group": "control_change"}, {"time": 2693, "annotation": {"number": 64, "value": 127}, "group": "control_change"}, {"time": 2714, "annotation": {"number": 64, "value": 0}, "group": "control_change"}, {"time": 2716, "annotation": {"number": 64, "value": 127}, "group": "control_change"}, {"time": 2727, "annotation": {"number": 64, "value": 127}, "group": "control_change"}, {"time": 2733, "annotation": {"number": 64, "value": 0}, "group": "control_change"}, {"time": 2741, "annotation": {"number": 64, "value": 127}, "group": "control_change"}, {"time": 2751, "annotation": {"number": 64, "value": 0}, "group": "control_change"}, {"time": 2763, "annotation": {"number": 64, "value": 127}, "group": "control_change"}, {"time": 2783, "annotation": {"number": 64, "value": 0}, "group": "control_change"}, {"time": 2789, "annotation": {"number": 64, "value": 127}, "group": "control_change"}, {"time": 2811, "annotation": {"number": 64, "value": 0}, "group": "control_change"}, {"time": 2812, "annotation": {"number": 64, "value": 127}, "group": "control_change"}, {"time": 2835, "annotation": {"number": 64, "value": 0}, "group": "control_change"}, {"time": 2836, "annotation": {"number": 64, "value": 127}, "group": "control_change"}, {"time": 2859, "annotation": {"number": 64, "value": 0}, "group": "control_change"}, {"time": 2861, "annotation": {"number": 64, "value": 127}, "group": "control_change"}, {"time": 2883, "annotation": {"number": 64, "value": 0}, "group": "control_change"}, {"time": 2885, "annotation": {"number": 64, "value": 127}, "group": "control_change"}, {"time": 2905, "annotation": {"number": 64, "value": 0}, "group": "control_change"}, {"time": 2933, "annotation": {"number": 64, "value": 127}, "group": "control_change"}, {"time": 2953, "annotation": {"number": 64, "value": 0}, "group": "control_change"}, {"time": 2956, "annotation": {"number": 64, "value": 127}, "group": "control_change"}, {"time": 2962, "annotation": {"number": 64, "value": 0}, "group": "control_change"}, {"time": 2963, "annotation": {"number": 64, "value": 127}, "group": "control_change"}, {"time": 2979, "annotation": {"number": 64, "value": 0}, "group": "control_change"}, {"time": 2981, "annotation": {"number": 64, "value": 127}, "group": "control_change"}, {"time": 3001, "annotation": {"number": 64, "value": 0}, "group": "control_change"}, {"time": 3003, "annotation": {"number": 64, "value": 127}, "group": "control_change"}, {"time": 3026, "annotation": {"number": 64, "value": 0}, "group": "control_change"}, {"time": 3028, "annotation": {"number": 64, "value": 127}, "group": "control_change"}, {"time": 3031, "annotation": {"number": 64, "value": 0}, "group": "control_change"}, {"time": 3032, "annotation": {"number": 64, "value": 127}, "group": "control_change"}, {"time": 3051, "annotation": {"number": 64, "value": 0}, "group": "control_change"}, {"time": 3053, "annotation": {"number": 64, "value": 127}, "group": "control_change"}, {"time": 3055, "annotation": {"number": 64, "value": 0}, "group": "control_change"}, {"time": 3056, "annotation": {"number": 64, "value": 127}, "group": "control_change"}, {"time": 3063, "annotation": {"number": 64, "value": 0}, "group": "control_change"}, {"time": 3065, "annotation": {"number": 64, "value": 127}, "group": "control_change"}, {"time": 3074, "annotation": {"number": 64, "value": 0}, "group": "control_change"}, {"time": 3077, "annotation": {"number": 64, "value": 127}, "group": "control_change"}, {"time": 3097, "annotation": {"number": 64, "value": 0}, "group": "control_change"}, {"time": 3101, "annotation": {"number": 64, "value": 127}, "group": "control_change"}, {"time": 3122, "annotation": {"number": 64, "value": 0}, "group": "control_change"}, {"time": 3125, "annotation": {"number": 64, "value": 127}, "group": "control_change"}, {"time": 3170, "annotation": {"number": 64, "value": 0}, "group": "control_change"}, {"time": 3172, "annotation": {"number": 64, "value": 127}, "group": "control_change"}, {"time": 3193, "annotation": {"number": 64, "value": 0}, "group": "control_change"}, {"time": 3195, "annotation": {"number": 64, "value": 127}, "group": "control_change"}, {"time": 3219, "annotation": {"number": 64, "value": 0}, "group": "control_change"}, {"time": 3221, "annotation": {"number": 64, "value": 127}, "group": "control_change"}, {"time": 3243, "annotation": {"number": 64, "value": 0}, "group": "control_change"}, {"time": 3245, "annotation": {"number": 64, "value": 127}, "group": "control_change"}, {"time": 3266, "annotation": {"number": 64, "value": 0}, "group": "control_change"}, {"time": 3270, "annotation": {"number": 64, "value": 127}, "group": "control_change"}, {"time": 3291, "annotation": {"number": 64, "value": 0}, "group": "control_change"}, {"time": 3316, "annotation": {"number": 64, "value": 127}, "group": "control_change"}, {"time": 3324, "annotation": {"number": 64, "value": 0}, "group": "control_change"}, {"time": 3340, "annotation": {"number": 64, "value": 127}, "group": "control_change"}, {"time": 3345, "annotation": {"number": 64, "value": 0}, "group": "control_change"}, {"time": 3352, "annotation": {"number": 64, "value": 127}, "group": "control_change"}, {"time": 3354, "annotation": {"number": 64, "value": 0}, "group": "control_change"}, {"time": 3364, "annotation": {"number": 64, "value": 127}, "group": "control_change"}, {"time": 3368, "annotation": {"number": 64, "value": 0}, "group": "control_change"}, {"time": 3376, "annotation": {"number": 64, "value": 127}, "group": "control_change"}, {"time": 3378, "annotation": {"number": 64, "value": 0}, "group": "control_change"}, {"time": 3386, "annotation": {"number": 64, "value": 127}, "group": "control_change"}, {"time": 3409, "annotation": {"number": 64, "value": 0}, "group": "control_change"}, {"time": 3412, "annotation": {"number": 64, "value": 127}, "group": "control_change"}, {"time": 3434, "annotation": {"number": 64, "value": 0}, "group": "control_change"}, {"time": 3437, "annotation": {"number": 64, "value": 127}, "group": "control_change"}, {"time": 3459, "annotation": {"number": 64, "value": 0}, "group": "control_change"}, {"time": 3460, "annotation": {"number": 64, "value": 127}, "group": "control_change"}, {"time": 3463, "annotation": {"number": 64, "value": 0}, "group": "control_change"}, {"time": 3463, "annotation": {"number": 64, "value": 127}, "group": "control_change"}, {"time": 3482, "annotation": {"number": 64, "value": 0}, "group": "control_change"}, {"time": 3484, "annotation": {"number": 64, "value": 127}, "group": "control_change"}, {"time": 3487, "annotation": {"number": 64, "value": 0}, "group": "control_change"}, {"time": 3487, "annotation": {"number": 64, "value": 127}, "group": "control_change"}, {"time": 3506, "annotation": {"number": 64, "value": 0}, "group": "control_change"}, {"time": 3520, "annotation": {"number": 64, "value": 127}, "group": "control_change"}, {"time": 3555, "annotation": {"number": 64, "value": 0}, "group": "control_change"}, {"time": 3557, "annotation": {"number": 64, "value": 127}, "group": "control_change"}, {"time": 3577, "annotation": {"number": 64, "value": 0}, "group": "control_change"}, {"time": 3579, "annotation": {"number": 64, "value": 127}, "group": "control_change"}, {"time": 3602, "annotation": {"number": 64, "value": 0}, "group": "control_change"}, {"time": 3604, "annotation": {"number": 64, "value": 127}, "group": "control_change"}, {"time": 3607, "annotation": {"number": 64, "value": 0}, "group": "control_change"}, {"time": 3607, "annotation": {"number": 64, "value": 127}, "group": "control_change"}, {"time": 3627, "annotation": {"number": 64, "value": 0}, "group": "control_change"}, {"time": 3629, "annotation": {"number": 64, "value": 127}, "group": "control_change"}, {"time": 3631, "annotation": {"number": 64, "value": 0}, "group": "control_change"}, {"time": 3632, "annotation": {"number": 64, "value": 127}, "group": "control_change"}, {"time": 3651, "annotation": {"number": 64, "value": 0}, "group": "control_change"}, {"time": 3653, "annotation": {"number": 64, "value": 127}, "group": "control_change"}, {"time": 3674, "annotation": {"number": 64, "value": 0}, "group": "control_change"}, {"time": 3702, "annotation": {"number": 64, "value": 127}, "group": "control_change"}, {"time": 3747, "annotation": {"number": 64, "value": 0}, "group": "control_change"}, {"time": 3748, "annotation": {"number": 64, "value": 127}, "group": "control_change"}, {"time": 3795, "annotation": {"number": 64, "value": 0}, "group": "control_change"}, {"time": 3796, "annotation": {"number": 64, "value": 127}, "group": "control_change"}, {"time": 3797, "annotation": {"number": 64, "value": 127}, "group": "control_change"}, {"time": 3819, "annotation": {"number": 64, "value": 0}, "group": "control_change"}, {"time": 3915, "annotation": {"number": 64, "value": 127}, "group": "control_change"}, {"time": 4028, "annotation": {"number": 64, "value": 0}, "group": "control_change"}, {"time": 4029, "annotation": {"number": 64, "value": 127}, "group": "control_change"}, {"time": 4032, "annotation": {"number": 64, "value": 0}, "group": "control_change"}, {"time": 4033, "annotation": {"number": 64, "value": 127}, "group": "control_change"}, {"time": 4036, "annotation": {"number": 64, "value": 0}, "group": "control_change"}]}]}