{"metadata": {"schema_version": "0.2", "title": "None", "source_filename": "461.mid", "source_format": "midi"}, "resolution": 12, "tempos": [{"time": 0, "qpm": 80.0}], "time_signatures": [{"time": 0, "numerator": 1, "denominator": 4}], "tracks": [{"program": 4, "is_drum": false, "name": "MELODY", "notes": [{"time": 346, "pitch": 61, "duration": 6, "velocity": 112}, {"time": 352, "pitch": 60, "duration": 29, "velocity": 97}, {"time": 382, "pitch": 56, "duration": 4, "velocity": 97}, {"time": 388, "pitch": 58, "duration": 3, "velocity": 100}, {"time": 394, "pitch": 60, "duration": 3, "velocity": 100}, {"time": 400, "pitch": 58, "duration": 16, "velocity": 117}, {"time": 418, "pitch": 56, "duration": 12, "velocity": 93}, {"time": 433, "pitch": 56, "duration": 7, "velocity": 89}, {"time": 442, "pitch": 61, "duration": 6, "velocity": 95}, {"time": 448, "pitch": 60, "duration": 17, "velocity": 95}, {"time": 478, "pitch": 56, "duration": 4, "velocity": 95}, {"time": 484, "pitch": 58, "duration": 3, "velocity": 96}, {"time": 490, "pitch": 60, "duration": 3, "velocity": 90}, {"time": 496, "pitch": 58, "duration": 17, "velocity": 99}, {"time": 514, "pitch": 56, "duration": 16, "velocity": 86}, {"time": 532, "pitch": 63, "duration": 4, "velocity": 102}, {"time": 538, "pitch": 63, "duration": 7, "velocity": 107}, {"time": 544, "pitch": 60, "duration": 30, "velocity": 96}, {"time": 574, "pitch": 56, "duration": 4, "velocity": 89}, {"time": 580, "pitch": 58, "duration": 3, "velocity": 92}, {"time": 586, "pitch": 60, "duration": 3, "velocity": 89}, {"time": 592, "pitch": 58, "duration": 16, "velocity": 102}, {"time": 610, "pitch": 56, "duration": 16, "velocity": 75}, {"time": 628, "pitch": 56, "duration": 4, "velocity": 88}, {"time": 634, "pitch": 60, "duration": 4, "velocity": 83}, {"time": 640, "pitch": 63, "duration": 25, "velocity": 95}, {"time": 670, "pitch": 63, "duration": 4, "velocity": 89}, {"time": 676, "pitch": 68, "duration": 4, "velocity": 90}, {"time": 682, "pitch": 67, "duration": 4, "velocity": 90}, {"time": 688, "pitch": 68, "duration": 12, "velocity": 100}, {"time": 700, "pitch": 70, "duration": 5, "velocity": 107}, {"time": 709, "pitch": 68, "duration": 22, "velocity": 102}, {"time": 733, "pitch": 68, "duration": 3, "velocity": 88}, {"time": 736, "pitch": 67, "duration": 3, "velocity": 86}, {"time": 742, "pitch": 68, "duration": 23, "velocity": 99}, {"time": 766, "pitch": 65, "duration": 3, "velocity": 90}, {"time": 772, "pitch": 67, "duration": 3, "velocity": 97}, {"time": 778, "pitch": 68, "duration": 2, "velocity": 107}, {"time": 784, "pitch": 67, "duration": 8, "velocity": 102}, {"time": 796, "pitch": 67, "duration": 2, "velocity": 107}, {"time": 802, "pitch": 65, "duration": 2, "velocity": 96}, {"time": 805, "pitch": 63, "duration": 20, "velocity": 107}, {"time": 832, "pitch": 65, "duration": 17, "velocity": 100}, {"time": 856, "pitch": 63, "duration": 8, "velocity": 107}, {"time": 868, "pitch": 61, "duration": 12, "velocity": 97}, {"time": 880, "pitch": 60, "duration": 36, "velocity": 85}, {"time": 922, "pitch": 68, "duration": 3, "velocity": 117}, {"time": 925, "pitch": 67, "duration": 3, "velocity": 74}, {"time": 928, "pitch": 68, "duration": 26, "velocity": 102}, {"time": 958, "pitch": 65, "duration": 4, "velocity": 88}, {"time": 964, "pitch": 67, "duration": 4, "velocity": 95}, {"time": 970, "pitch": 68, "duration": 3, "velocity": 102}, {"time": 976, "pitch": 67, "duration": 8, "velocity": 100}, {"time": 985, "pitch": 67, "duration": 5, "velocity": 102}, {"time": 994, "pitch": 70, "duration": 5, "velocity": 107}, {"time": 1000, "pitch": 63, "duration": 12, "velocity": 102}, {"time": 1018, "pitch": 63, "duration": 4, "velocity": 122}, {"time": 1024, "pitch": 65, "duration": 4, "velocity": 112}, {"time": 1030, "pitch": 68, "duration": 3, "velocity": 127}, {"time": 1036, "pitch": 68, "duration": 3, "velocity": 127}, {"time": 1042, "pitch": 65, "duration": 4, "velocity": 96}, {"time": 1048, "pitch": 68, "duration": 6, "velocity": 112}, {"time": 1054, "pitch": 65, "duration": 7, "velocity": 102}, {"time": 1066, "pitch": 68, "duration": 4, "velocity": 122}, {"time": 1072, "pitch": 70, "duration": 26, "velocity": 127}, {"time": 1102, "pitch": 63, "duration": 5, "velocity": 107}, {"time": 1108, "pitch": 68, "duration": 4, "velocity": 127}, {"time": 1114, "pitch": 70, "duration": 4, "velocity": 127}, {"time": 1120, "pitch": 73, "duration": 10, "velocity": 122}, {"time": 1132, "pitch": 72, "duration": 7, "velocity": 127}, {"time": 1144, "pitch": 72, "duration": 4, "velocity": 122}, {"time": 1150, "pitch": 70, "duration": 4, "velocity": 112}, {"time": 1156, "pitch": 70, "duration": 4, "velocity": 127}, {"time": 1162, "pitch": 68, "duration": 3, "velocity": 122}, {"time": 1168, "pitch": 70, "duration": 8, "velocity": 127}, {"time": 1180, "pitch": 72, "duration": 6, "velocity": 102}, {"time": 1192, "pitch": 70, "duration": 4, "velocity": 117}, {"time": 1198, "pitch": 68, "duration": 3, "velocity": 102}, {"time": 1204, "pitch": 68, "duration": 4, "velocity": 117}, {"time": 1210, "pitch": 67, "duration": 3, "velocity": 100}, {"time": 1216, "pitch": 68, "duration": 4, "velocity": 122}, {"time": 1222, "pitch": 68, "duration": 3, "velocity": 127}, {"time": 1228, "pitch": 68, "duration": 3, "velocity": 122}, {"time": 1234, "pitch": 67, "duration": 4, "velocity": 107}, {"time": 1240, "pitch": 65, "duration": 4, "velocity": 107}, {"time": 1252, "pitch": 67, "duration": 8, "velocity": 102}, {"time": 1264, "pitch": 63, "duration": 25, "velocity": 100}, {"time": 1306, "pitch": 63, "duration": 4, "velocity": 122}, {"time": 1312, "pitch": 65, "duration": 4, "velocity": 97}, {"time": 1318, "pitch": 68, "duration": 3, "velocity": 112}, {"time": 1324, "pitch": 68, "duration": 4, "velocity": 127}, {"time": 1330, "pitch": 65, "duration": 11, "velocity": 117}, {"time": 1342, "pitch": 68, "duration": 11, "velocity": 122}, {"time": 1360, "pitch": 63, "duration": 4, "velocity": 117}, {"time": 1366, "pitch": 68, "duration": 3, "velocity": 117}, {"time": 1372, "pitch": 68, "duration": 3, "velocity": 117}, {"time": 1378, "pitch": 70, "duration": 9, "velocity": 127}, {"time": 1390, "pitch": 68, "duration": 9, "velocity": 127}, {"time": 1402, "pitch": 68, "duration": 2, "velocity": 122}, {"time": 1405, "pitch": 70, "duration": 2, "velocity": 117}, {"time": 1408, "pitch": 72, "duration": 4, "velocity": 107}, {"time": 1414, "pitch": 70, "duration": 3, "velocity": 127}, {"time": 1420, "pitch": 70, "duration": 4, "velocity": 127}, {"time": 1426, "pitch": 68, "duration": 4, "velocity": 107}, {"time": 1432, "pitch": 68, "duration": 4, "velocity": 127}, {"time": 1438, "pitch": 65, "duration": 7, "velocity": 100}, {"time": 1450, "pitch": 72, "duration": 8, "velocity": 112}, {"time": 1462, "pitch": 70, "duration": 4, "velocity": 127}, {"time": 1468, "pitch": 70, "duration": 3, "velocity": 127}, {"time": 1474, "pitch": 68, "duration": 3, "velocity": 112}, {"time": 1480, "pitch": 70, "duration": 8, "velocity": 127}, {"time": 1486, "pitch": 63, "duration": 5, "velocity": 112}, {"time": 1492, "pitch": 68, "duration": 4, "velocity": 122}, {"time": 1498, "pitch": 70, "duration": 4, "velocity": 127}, {"time": 1504, "pitch": 73, "duration": 8, "velocity": 127}, {"time": 1516, "pitch": 72, "duration": 4, "velocity": 122}, {"time": 1528, "pitch": 72, "duration": 4, "velocity": 107}, {"time": 1534, "pitch": 70, "duration": 4, "velocity": 122}, {"time": 1540, "pitch": 70, "duration": 4, "velocity": 127}, {"time": 1546, "pitch": 68, "duration": 4, "velocity": 122}, {"time": 1552, "pitch": 70, "duration": 9, "velocity": 117}, {"time": 1564, "pitch": 70, "duration": 8, "velocity": 127}, {"time": 1576, "pitch": 70, "duration": 4, "velocity": 127}, {"time": 1582, "pitch": 68, "duration": 3, "velocity": 127}, {"time": 1588, "pitch": 68, "duration": 4, "velocity": 122}, {"time": 1594, "pitch": 67, "duration": 4, "velocity": 102}, {"time": 1600, "pitch": 68, "duration": 5, "velocity": 127}, {"time": 1606, "pitch": 68, "duration": 3, "velocity": 127}, {"time": 1612, "pitch": 68, "duration": 4, "velocity": 122}, {"time": 1618, "pitch": 67, "duration": 4, "velocity": 122}, {"time": 1624, "pitch": 65, "duration": 6, "velocity": 112}, {"time": 1636, "pitch": 67, "duration": 9, "velocity": 112}, {"time": 1648, "pitch": 63, "duration": 23, "velocity": 117}, {"time": 1690, "pitch": 63, "duration": 3, "velocity": 127}, {"time": 1696, "pitch": 65, "duration": 4, "velocity": 102}, {"time": 1702, "pitch": 68, "duration": 3, "velocity": 127}, {"time": 1708, "pitch": 68, "duration": 3, "velocity": 127}, {"time": 1714, "pitch": 65, "duration": 9, "velocity": 112}, {"time": 1726, "pitch": 68, "duration": 6, "velocity": 127}, {"time": 1744, "pitch": 63, "duration": 3, "velocity": 127}, {"time": 1750, "pitch": 68, "duration": 2, "velocity": 127}, {"time": 1756, "pitch": 68, "duration": 3, "velocity": 127}, {"time": 1762, "pitch": 70, "duration": 9, "velocity": 127}, {"time": 1774, "pitch": 68, "duration": 7, "velocity": 127}, {"time": 1786, "pitch": 68, "duration": 3, "velocity": 112}, {"time": 1789, "pitch": 70, "duration": 2, "velocity": 107}, {"time": 1792, "pitch": 72, "duration": 4, "velocity": 122}, {"time": 1798, "pitch": 70, "duration": 3, "velocity": 127}, {"time": 1804, "pitch": 70, "duration": 5, "velocity": 127}, {"time": 1810, "pitch": 68, "duration": 4, "velocity": 122}, {"time": 1816, "pitch": 73, "duration": 6, "velocity": 127}, {"time": 1825, "pitch": 72, "duration": 7, "velocity": 127}, {"time": 1834, "pitch": 70, "duration": 6, "velocity": 127}, {"time": 1840, "pitch": 68, "duration": 42, "velocity": 127}, {"time": 2122, "pitch": 68, "duration": 3, "velocity": 127}, {"time": 2125, "pitch": 67, "duration": 3, "velocity": 96}, {"time": 2128, "pitch": 68, "duration": 23, "velocity": 99}, {"time": 2158, "pitch": 65, "duration": 3, "velocity": 90}, {"time": 2164, "pitch": 67, "duration": 3, "velocity": 97}, {"time": 2170, "pitch": 68, "duration": 2, "velocity": 107}, {"time": 2176, "pitch": 67, "duration": 8, "velocity": 102}, {"time": 2188, "pitch": 67, "duration": 2, "velocity": 107}, {"time": 2194, "pitch": 65, "duration": 2, "velocity": 96}, {"time": 2197, "pitch": 63, "duration": 20, "velocity": 107}, {"time": 2224, "pitch": 65, "duration": 17, "velocity": 100}, {"time": 2248, "pitch": 63, "duration": 8, "velocity": 107}, {"time": 2260, "pitch": 61, "duration": 12, "velocity": 97}, {"time": 2272, "pitch": 60, "duration": 36, "velocity": 85}, {"time": 2314, "pitch": 68, "duration": 3, "velocity": 117}, {"time": 2317, "pitch": 67, "duration": 3, "velocity": 74}, {"time": 2320, "pitch": 68, "duration": 26, "velocity": 102}, {"time": 2350, "pitch": 65, "duration": 4, "velocity": 88}, {"time": 2356, "pitch": 67, "duration": 4, "velocity": 95}, {"time": 2362, "pitch": 68, "duration": 3, "velocity": 102}, {"time": 2368, "pitch": 67, "duration": 8, "velocity": 100}, {"time": 2377, "pitch": 67, "duration": 5, "velocity": 102}, {"time": 2386, "pitch": 70, "duration": 5, "velocity": 107}, {"time": 2392, "pitch": 63, "duration": 12, "velocity": 102}, {"time": 2410, "pitch": 63, "duration": 4, "velocity": 122}, {"time": 2416, "pitch": 65, "duration": 4, "velocity": 112}, {"time": 2422, "pitch": 68, "duration": 3, "velocity": 127}, {"time": 2428, "pitch": 68, "duration": 3, "velocity": 127}, {"time": 2434, "pitch": 65, "duration": 4, "velocity": 96}, {"time": 2440, "pitch": 68, "duration": 6, "velocity": 112}, {"time": 2446, "pitch": 65, "duration": 7, "velocity": 102}, {"time": 2458, "pitch": 68, "duration": 4, "velocity": 122}, {"time": 2464, "pitch": 70, "duration": 26, "velocity": 127}, {"time": 2494, "pitch": 63, "duration": 5, "velocity": 107}, {"time": 2500, "pitch": 68, "duration": 4, "velocity": 127}, {"time": 2506, "pitch": 70, "duration": 4, "velocity": 127}, {"time": 2512, "pitch": 73, "duration": 10, "velocity": 122}, {"time": 2524, "pitch": 72, "duration": 7, "velocity": 127}, {"time": 2536, "pitch": 72, "duration": 4, "velocity": 122}, {"time": 2542, "pitch": 70, "duration": 4, "velocity": 112}, {"time": 2548, "pitch": 70, "duration": 4, "velocity": 127}, {"time": 2554, "pitch": 68, "duration": 3, "velocity": 122}, {"time": 2560, "pitch": 70, "duration": 8, "velocity": 127}, {"time": 2572, "pitch": 72, "duration": 6, "velocity": 102}, {"time": 2584, "pitch": 70, "duration": 4, "velocity": 117}, {"time": 2590, "pitch": 68, "duration": 3, "velocity": 102}, {"time": 2596, "pitch": 68, "duration": 4, "velocity": 117}, {"time": 2602, "pitch": 67, "duration": 3, "velocity": 100}, {"time": 2608, "pitch": 68, "duration": 4, "velocity": 122}, {"time": 2614, "pitch": 68, "duration": 3, "velocity": 127}, {"time": 2620, "pitch": 68, "duration": 3, "velocity": 122}, {"time": 2626, "pitch": 67, "duration": 4, "velocity": 107}, {"time": 2632, "pitch": 65, "duration": 4, "velocity": 107}, {"time": 2644, "pitch": 67, "duration": 8, "velocity": 102}, {"time": 2656, "pitch": 63, "duration": 25, "velocity": 100}, {"time": 2698, "pitch": 63, "duration": 4, "velocity": 122}, {"time": 2704, "pitch": 65, "duration": 4, "velocity": 97}, {"time": 2710, "pitch": 68, "duration": 3, "velocity": 112}, {"time": 2716, "pitch": 68, "duration": 4, "velocity": 127}, {"time": 2722, "pitch": 65, "duration": 11, "velocity": 117}, {"time": 2734, "pitch": 68, "duration": 11, "velocity": 122}, {"time": 2752, "pitch": 63, "duration": 4, "velocity": 117}, {"time": 2758, "pitch": 68, "duration": 3, "velocity": 117}, {"time": 2764, "pitch": 68, "duration": 3, "velocity": 117}, {"time": 2770, "pitch": 70, "duration": 9, "velocity": 127}, {"time": 2782, "pitch": 68, "duration": 9, "velocity": 127}, {"time": 2794, "pitch": 68, "duration": 2, "velocity": 122}, {"time": 2797, "pitch": 70, "duration": 2, "velocity": 117}, {"time": 2800, "pitch": 72, "duration": 4, "velocity": 107}, {"time": 2806, "pitch": 70, "duration": 3, "velocity": 127}, {"time": 2812, "pitch": 70, "duration": 4, "velocity": 127}, {"time": 2818, "pitch": 68, "duration": 4, "velocity": 107}, {"time": 2824, "pitch": 68, "duration": 4, "velocity": 127}, {"time": 2830, "pitch": 65, "duration": 7, "velocity": 100}, {"time": 2842, "pitch": 72, "duration": 8, "velocity": 112}, {"time": 2854, "pitch": 70, "duration": 4, "velocity": 127}, {"time": 2860, "pitch": 70, "duration": 3, "velocity": 127}, {"time": 2866, "pitch": 68, "duration": 3, "velocity": 112}, {"time": 2872, "pitch": 70, "duration": 8, "velocity": 127}, {"time": 2878, "pitch": 63, "duration": 5, "velocity": 112}, {"time": 2884, "pitch": 68, "duration": 4, "velocity": 122}, {"time": 2890, "pitch": 70, "duration": 4, "velocity": 127}, {"time": 2896, "pitch": 73, "duration": 8, "velocity": 127}, {"time": 2908, "pitch": 72, "duration": 4, "velocity": 122}, {"time": 2920, "pitch": 72, "duration": 4, "velocity": 107}, {"time": 2926, "pitch": 70, "duration": 4, "velocity": 122}, {"time": 2932, "pitch": 70, "duration": 4, "velocity": 127}, {"time": 2938, "pitch": 68, "duration": 4, "velocity": 122}, {"time": 2944, "pitch": 70, "duration": 9, "velocity": 117}, {"time": 2956, "pitch": 70, "duration": 8, "velocity": 127}, {"time": 2968, "pitch": 70, "duration": 4, "velocity": 127}, {"time": 2974, "pitch": 68, "duration": 3, "velocity": 127}, {"time": 2980, "pitch": 68, "duration": 4, "velocity": 122}, {"time": 2986, "pitch": 67, "duration": 4, "velocity": 102}, {"time": 2992, "pitch": 68, "duration": 5, "velocity": 127}, {"time": 2998, "pitch": 68, "duration": 3, "velocity": 127}, {"time": 3004, "pitch": 68, "duration": 4, "velocity": 122}, {"time": 3010, "pitch": 67, "duration": 4, "velocity": 122}, {"time": 3016, "pitch": 65, "duration": 6, "velocity": 112}, {"time": 3028, "pitch": 67, "duration": 9, "velocity": 112}, {"time": 3040, "pitch": 63, "duration": 23, "velocity": 117}, {"time": 3082, "pitch": 63, "duration": 3, "velocity": 127}, {"time": 3088, "pitch": 65, "duration": 4, "velocity": 102}, {"time": 3094, "pitch": 68, "duration": 3, "velocity": 127}, {"time": 3100, "pitch": 68, "duration": 3, "velocity": 127}, {"time": 3106, "pitch": 65, "duration": 9, "velocity": 112}, {"time": 3118, "pitch": 68, "duration": 6, "velocity": 127}, {"time": 3136, "pitch": 63, "duration": 3, "velocity": 127}, {"time": 3142, "pitch": 68, "duration": 2, "velocity": 127}, {"time": 3148, "pitch": 68, "duration": 3, "velocity": 127}, {"time": 3154, "pitch": 70, "duration": 9, "velocity": 127}, {"time": 3166, "pitch": 68, "duration": 7, "velocity": 127}, {"time": 3178, "pitch": 68, "duration": 3, "velocity": 112}, {"time": 3181, "pitch": 70, "duration": 2, "velocity": 107}, {"time": 3184, "pitch": 72, "duration": 4, "velocity": 122}, {"time": 3190, "pitch": 70, "duration": 3, "velocity": 127}, {"time": 3196, "pitch": 70, "duration": 5, "velocity": 127}, {"time": 3202, "pitch": 68, "duration": 4, "velocity": 122}, {"time": 3208, "pitch": 73, "duration": 6, "velocity": 127}, {"time": 3217, "pitch": 72, "duration": 7, "velocity": 127}, {"time": 3226, "pitch": 70, "duration": 6, "velocity": 127}, {"time": 3232, "pitch": 68, "duration": 24, "velocity": 127}, {"time": 3262, "pitch": 63, "duration": 5, "velocity": 112}, {"time": 3268, "pitch": 68, "duration": 4, "velocity": 122}, {"time": 3274, "pitch": 70, "duration": 4, "velocity": 127}, {"time": 3280, "pitch": 73, "duration": 8, "velocity": 127}, {"time": 3292, "pitch": 72, "duration": 4, "velocity": 122}, {"time": 3304, "pitch": 72, "duration": 4, "velocity": 107}, {"time": 3310, "pitch": 70, "duration": 4, "velocity": 122}, {"time": 3316, "pitch": 70, "duration": 4, "velocity": 127}, {"time": 3322, "pitch": 68, "duration": 4, "velocity": 122}, {"time": 3328, "pitch": 70, "duration": 9, "velocity": 117}, {"time": 3340, "pitch": 70, "duration": 8, "velocity": 127}, {"time": 3352, "pitch": 70, "duration": 4, "velocity": 127}, {"time": 3358, "pitch": 68, "duration": 3, "velocity": 127}, {"time": 3364, "pitch": 68, "duration": 4, "velocity": 122}, {"time": 3370, "pitch": 67, "duration": 4, "velocity": 102}, {"time": 3376, "pitch": 68, "duration": 5, "velocity": 127}, {"time": 3382, "pitch": 68, "duration": 3, "velocity": 127}, {"time": 3388, "pitch": 68, "duration": 4, "velocity": 122}, {"time": 3394, "pitch": 67, "duration": 4, "velocity": 122}, {"time": 3400, "pitch": 65, "duration": 6, "velocity": 112}, {"time": 3412, "pitch": 67, "duration": 9, "velocity": 112}, {"time": 3424, "pitch": 63, "duration": 23, "velocity": 117}, {"time": 3466, "pitch": 63, "duration": 3, "velocity": 127}, {"time": 3472, "pitch": 65, "duration": 4, "velocity": 102}, {"time": 3478, "pitch": 68, "duration": 3, "velocity": 127}, {"time": 3484, "pitch": 68, "duration": 3, "velocity": 127}, {"time": 3490, "pitch": 65, "duration": 9, "velocity": 112}, {"time": 3502, "pitch": 68, "duration": 6, "velocity": 127}, {"time": 3520, "pitch": 63, "duration": 3, "velocity": 127}, {"time": 3526, "pitch": 68, "duration": 2, "velocity": 127}, {"time": 3532, "pitch": 68, "duration": 3, "velocity": 127}, {"time": 3538, "pitch": 70, "duration": 9, "velocity": 127}, {"time": 3550, "pitch": 68, "duration": 7, "velocity": 127}, {"time": 3562, "pitch": 68, "duration": 3, "velocity": 112}, {"time": 3565, "pitch": 70, "duration": 2, "velocity": 107}, {"time": 3568, "pitch": 72, "duration": 4, "velocity": 122}, {"time": 3574, "pitch": 70, "duration": 3, "velocity": 127}, {"time": 3580, "pitch": 70, "duration": 5, "velocity": 127}, {"time": 3586, "pitch": 68, "duration": 4, "velocity": 122}, {"time": 3592, "pitch": 73, "duration": 6, "velocity": 127}, {"time": 3601, "pitch": 72, "duration": 7, "velocity": 127}, {"time": 3610, "pitch": 70, "duration": 6, "velocity": 127}, {"time": 3616, "pitch": 68, "duration": 24, "velocity": 127}, {"time": 3664, "pitch": 72, "duration": 39, "velocity": 117}, {"time": 3706, "pitch": 72, "duration": 4, "velocity": 127}, {"time": 3712, "pitch": 72, "duration": 6, "velocity": 99}, {"time": 3718, "pitch": 70, "duration": 37, "velocity": 96}, {"time": 3760, "pitch": 72, "duration": 6, "velocity": 99}, {"time": 3766, "pitch": 68, "duration": 5, "velocity": 96}, {"time": 3772, "pitch": 68, "duration": 6, "velocity": 93}, {"time": 3778, "pitch": 65, "duration": 5, "velocity": 89}, {"time": 3784, "pitch": 65, "duration": 16, "velocity": 83}, {"time": 3803, "pitch": 67, "duration": 30, "velocity": 70}, {"time": 3844, "pitch": 68, "duration": 118, "velocity": 100}]}, {"program": 0, "is_drum": false, "name": "PIANO", "notes": [{"time": 160, "pitch": 44, "duration": 33, "velocity": 69}, {"time": 166, "pitch": 51, "duration": 26, "velocity": 68}, {"time": 172, "pitch": 56, "duration": 15, "velocity": 82}, {"time": 178, "pitch": 60, "duration": 8, "velocity": 60}, {"time": 184, "pitch": 63, "duration": 14, "velocity": 69}, {"time": 184, "pitch": 68, "duration": 27, "velocity": 95}, {"time": 190, "pitch": 56, "duration": 2, "velocity": 61}, {"time": 196, "pitch": 60, "duration": 14, "velocity": 77}, {"time": 202, "pitch": 37, "duration": 3, "velocity": 32}, {"time": 202, "pitch": 63, "duration": 9, "velocity": 58}, {"time": 208, "pitch": 37, "duration": 37, "velocity": 74}, {"time": 214, "pitch": 44, "duration": 31, "velocity": 66}, {"time": 220, "pitch": 49, "duration": 18, "velocity": 55}, {"time": 226, "pitch": 52, "duration": 14, "velocity": 70}, {"time": 232, "pitch": 56, "duration": 14, "velocity": 75}, {"time": 232, "pitch": 61, "duration": 24, "velocity": 60}, {"time": 238, "pitch": 49, "duration": 1, "velocity": 60}, {"time": 244, "pitch": 52, "duration": 10, "velocity": 76}, {"time": 250, "pitch": 56, "duration": 6, "velocity": 55}, {"time": 256, "pitch": 44, "duration": 34, "velocity": 63}, {"time": 262, "pitch": 51, "duration": 26, "velocity": 76}, {"time": 268, "pitch": 56, "duration": 14, "velocity": 77}, {"time": 274, "pitch": 60, "duration": 7, "velocity": 50}, {"time": 280, "pitch": 63, "duration": 15, "velocity": 83}, {"time": 280, "pitch": 68, "duration": 25, "velocity": 90}, {"time": 286, "pitch": 56, "duration": 3, "velocity": 69}, {"time": 292, "pitch": 60, "duration": 13, "velocity": 75}, {"time": 298, "pitch": 63, "duration": 7, "velocity": 62}, {"time": 301, "pitch": 37, "duration": 36, "velocity": 82}, {"time": 310, "pitch": 44, "duration": 28, "velocity": 63}, {"time": 316, "pitch": 49, "duration": 23, "velocity": 54}, {"time": 322, "pitch": 52, "duration": 28, "velocity": 42}, {"time": 328, "pitch": 56, "duration": 22, "velocity": 48}, {"time": 328, "pitch": 61, "duration": 23, "velocity": 43}, {"time": 352, "pitch": 44, "duration": 35, "velocity": 72}, {"time": 358, "pitch": 51, "duration": 26, "velocity": 40}, {"time": 364, "pitch": 56, "duration": 19, "velocity": 44}, {"time": 370, "pitch": 60, "duration": 32, "velocity": 42}, {"time": 376, "pitch": 68, "duration": 26, "velocity": 54}, {"time": 388, "pitch": 63, "duration": 13, "velocity": 55}, {"time": 397, "pitch": 37, "duration": 37, "velocity": 64}, {"time": 406, "pitch": 44, "duration": 31, "velocity": 35}, {"time": 412, "pitch": 49, "duration": 29, "velocity": 36}, {"time": 418, "pitch": 52, "duration": 27, "velocity": 42}, {"time": 418, "pitch": 56, "duration": 20, "velocity": 50}, {"time": 418, "pitch": 61, "duration": 16, "velocity": 45}, {"time": 436, "pitch": 61, "duration": 11, "velocity": 63}, {"time": 442, "pitch": 56, "duration": 6, "velocity": 60}, {"time": 448, "pitch": 44, "duration": 31, "velocity": 70}, {"time": 454, "pitch": 51, "duration": 21, "velocity": 37}, {"time": 460, "pitch": 56, "duration": 15, "velocity": 53}, {"time": 466, "pitch": 60, "duration": 37, "velocity": 42}, {"time": 472, "pitch": 63, "duration": 31, "velocity": 63}, {"time": 472, "pitch": 68, "duration": 31, "velocity": 50}, {"time": 496, "pitch": 37, "duration": 38, "velocity": 59}, {"time": 502, "pitch": 44, "duration": 31, "velocity": 36}, {"time": 508, "pitch": 49, "duration": 28, "velocity": 52}, {"time": 514, "pitch": 52, "duration": 25, "velocity": 50}, {"time": 514, "pitch": 56, "duration": 17, "velocity": 64}, {"time": 514, "pitch": 61, "duration": 16, "velocity": 48}, {"time": 532, "pitch": 61, "duration": 12, "velocity": 88}, {"time": 538, "pitch": 56, "duration": 7, "velocity": 58}, {"time": 544, "pitch": 44, "duration": 35, "velocity": 69}, {"time": 550, "pitch": 51, "duration": 28, "velocity": 42}, {"time": 556, "pitch": 56, "duration": 15, "velocity": 76}, {"time": 562, "pitch": 60, "duration": 8, "velocity": 58}, {"time": 568, "pitch": 63, "duration": 14, "velocity": 85}, {"time": 568, "pitch": 68, "duration": 26, "velocity": 92}, {"time": 574, "pitch": 56, "duration": 3, "velocity": 58}, {"time": 580, "pitch": 60, "duration": 13, "velocity": 72}, {"time": 586, "pitch": 63, "duration": 7, "velocity": 48}, {"time": 592, "pitch": 37, "duration": 37, "velocity": 70}, {"time": 598, "pitch": 44, "duration": 31, "velocity": 39}, {"time": 604, "pitch": 49, "duration": 15, "velocity": 63}, {"time": 610, "pitch": 52, "duration": 25, "velocity": 41}, {"time": 610, "pitch": 56, "duration": 16, "velocity": 61}, {"time": 610, "pitch": 61, "duration": 16, "velocity": 55}, {"time": 622, "pitch": 49, "duration": 10, "velocity": 41}, {"time": 628, "pitch": 61, "duration": 13, "velocity": 112}, {"time": 634, "pitch": 56, "duration": 7, "velocity": 59}, {"time": 640, "pitch": 44, "duration": 35, "velocity": 72}, {"time": 646, "pitch": 51, "duration": 27, "velocity": 34}, {"time": 652, "pitch": 56, "duration": 15, "velocity": 73}, {"time": 658, "pitch": 60, "duration": 8, "velocity": 67}, {"time": 664, "pitch": 63, "duration": 14, "velocity": 65}, {"time": 664, "pitch": 68, "duration": 25, "velocity": 69}, {"time": 670, "pitch": 56, "duration": 3, "velocity": 53}, {"time": 676, "pitch": 60, "duration": 13, "velocity": 79}, {"time": 682, "pitch": 63, "duration": 7, "velocity": 46}, {"time": 688, "pitch": 37, "duration": 35, "velocity": 73}, {"time": 694, "pitch": 44, "duration": 28, "velocity": 36}, {"time": 700, "pitch": 49, "duration": 23, "velocity": 45}, {"time": 706, "pitch": 52, "duration": 29, "velocity": 64}, {"time": 706, "pitch": 56, "duration": 29, "velocity": 69}, {"time": 706, "pitch": 61, "duration": 30, "velocity": 65}, {"time": 736, "pitch": 41, "duration": 36, "velocity": 86}, {"time": 742, "pitch": 48, "duration": 30, "velocity": 60}, {"time": 745, "pitch": 53, "duration": 16, "velocity": 95}, {"time": 754, "pitch": 60, "duration": 20, "velocity": 36}, {"time": 760, "pitch": 68, "duration": 23, "velocity": 127}, {"time": 766, "pitch": 53, "duration": 4, "velocity": 78}, {"time": 772, "pitch": 65, "duration": 13, "velocity": 100}, {"time": 778, "pitch": 60, "duration": 7, "velocity": 79}, {"time": 784, "pitch": 36, "duration": 34, "velocity": 75}, {"time": 790, "pitch": 43, "duration": 29, "velocity": 63}, {"time": 796, "pitch": 48, "duration": 15, "velocity": 88}, {"time": 802, "pitch": 60, "duration": 14, "velocity": 71}, {"time": 808, "pitch": 67, "duration": 24, "velocity": 102}, {"time": 814, "pitch": 48, "duration": 3, "velocity": 60}, {"time": 820, "pitch": 63, "duration": 11, "velocity": 97}, {"time": 826, "pitch": 60, "duration": 6, "velocity": 86}, {"time": 832, "pitch": 37, "duration": 20, "velocity": 75}, {"time": 838, "pitch": 44, "duration": 17, "velocity": 50}, {"time": 844, "pitch": 49, "duration": 11, "velocity": 99}, {"time": 850, "pitch": 61, "duration": 5, "velocity": 96}, {"time": 856, "pitch": 39, "duration": 13, "velocity": 99}, {"time": 862, "pitch": 51, "duration": 12, "velocity": 88}, {"time": 868, "pitch": 63, "duration": 13, "velocity": 99}, {"time": 874, "pitch": 70, "duration": 6, "velocity": 93}, {"time": 880, "pitch": 44, "duration": 39, "velocity": 86}, {"time": 886, "pitch": 51, "duration": 31, "velocity": 48}, {"time": 892, "pitch": 56, "duration": 16, "velocity": 88}, {"time": 898, "pitch": 60, "duration": 18, "velocity": 76}, {"time": 904, "pitch": 68, "duration": 25, "velocity": 122}, {"time": 910, "pitch": 56, "duration": 7, "velocity": 92}, {"time": 916, "pitch": 63, "duration": 13, "velocity": 117}, {"time": 922, "pitch": 60, "duration": 7, "velocity": 76}, {"time": 928, "pitch": 41, "duration": 39, "velocity": 76}, {"time": 934, "pitch": 48, "duration": 32, "velocity": 59}, {"time": 940, "pitch": 53, "duration": 15, "velocity": 90}, {"time": 946, "pitch": 60, "duration": 19, "velocity": 81}, {"time": 952, "pitch": 68, "duration": 23, "velocity": 107}, {"time": 958, "pitch": 53, "duration": 5, "velocity": 75}, {"time": 964, "pitch": 65, "duration": 11, "velocity": 77}, {"time": 970, "pitch": 60, "duration": 7, "velocity": 81}, {"time": 976, "pitch": 36, "duration": 36, "velocity": 72}, {"time": 982, "pitch": 43, "duration": 31, "velocity": 62}, {"time": 988, "pitch": 48, "duration": 15, "velocity": 89}, {"time": 994, "pitch": 55, "duration": 10, "velocity": 72}, {"time": 1000, "pitch": 63, "duration": 13, "velocity": 122}, {"time": 1006, "pitch": 48, "duration": 6, "velocity": 86}, {"time": 1012, "pitch": 60, "duration": 8, "velocity": 100}, {"time": 1018, "pitch": 63, "duration": 6, "velocity": 107}, {"time": 1024, "pitch": 34, "duration": 39, "velocity": 89}, {"time": 1030, "pitch": 41, "duration": 33, "velocity": 72}, {"time": 1036, "pitch": 46, "duration": 14, "velocity": 99}, {"time": 1042, "pitch": 53, "duration": 8, "velocity": 82}, {"time": 1048, "pitch": 58, "duration": 13, "velocity": 96}, {"time": 1048, "pitch": 61, "duration": 14, "velocity": 99}, {"time": 1054, "pitch": 46, "duration": 12, "velocity": 89}, {"time": 1060, "pitch": 53, "duration": 12, "velocity": 95}, {"time": 1066, "pitch": 58, "duration": 6, "velocity": 97}, {"time": 1066, "pitch": 61, "duration": 6, "velocity": 112}, {"time": 1072, "pitch": 39, "duration": 21, "velocity": 88}, {"time": 1078, "pitch": 46, "duration": 14, "velocity": 66}, {"time": 1084, "pitch": 51, "duration": 8, "velocity": 96}, {"time": 1090, "pitch": 55, "duration": 3, "velocity": 102}, {"time": 1096, "pitch": 37, "duration": 12, "velocity": 117}, {"time": 1096, "pitch": 49, "duration": 10, "velocity": 112}, {"time": 1096, "pitch": 53, "duration": 11, "velocity": 99}, {"time": 1096, "pitch": 54, "duration": 1, "velocity": 36}, {"time": 1096, "pitch": 56, "duration": 9, "velocity": 63}, {"time": 1108, "pitch": 39, "duration": 11, "velocity": 102}, {"time": 1108, "pitch": 51, "duration": 11, "velocity": 92}, {"time": 1108, "pitch": 55, "duration": 11, "velocity": 83}, {"time": 1108, "pitch": 58, "duration": 11, "velocity": 89}, {"time": 1120, "pitch": 44, "duration": 43, "velocity": 97}, {"time": 1126, "pitch": 51, "duration": 35, "velocity": 60}, {"time": 1132, "pitch": 56, "duration": 14, "velocity": 112}, {"time": 1138, "pitch": 60, "duration": 13, "velocity": 88}, {"time": 1144, "pitch": 68, "duration": 23, "velocity": 117}, {"time": 1150, "pitch": 56, "duration": 7, "velocity": 73}, {"time": 1156, "pitch": 63, "duration": 6, "velocity": 127}, {"time": 1159, "pitch": 56, "duration": 2, "velocity": 86}, {"time": 1162, "pitch": 60, "duration": 6, "velocity": 97}, {"time": 1165, "pitch": 63, "duration": 3, "velocity": 88}, {"time": 1168, "pitch": 43, "duration": 28, "velocity": 77}, {"time": 1174, "pitch": 55, "duration": 7, "velocity": 69}, {"time": 1180, "pitch": 60, "duration": 7, "velocity": 93}, {"time": 1186, "pitch": 55, "duration": 12, "velocity": 79}, {"time": 1192, "pitch": 63, "duration": 23, "velocity": 107}, {"time": 1198, "pitch": 43, "duration": 14, "velocity": 63}, {"time": 1204, "pitch": 60, "duration": 11, "velocity": 93}, {"time": 1210, "pitch": 55, "duration": 6, "velocity": 89}, {"time": 1213, "pitch": 41, "duration": 45, "velocity": 74}, {"time": 1219, "pitch": 48, "duration": 11, "velocity": 71}, {"time": 1222, "pitch": 53, "duration": 5, "velocity": 71}, {"time": 1225, "pitch": 56, "duration": 3, "velocity": 65}, {"time": 1228, "pitch": 60, "duration": 21, "velocity": 96}, {"time": 1234, "pitch": 56, "duration": 16, "velocity": 79}, {"time": 1240, "pitch": 53, "duration": 14, "velocity": 85}, {"time": 1246, "pitch": 48, "duration": 14, "velocity": 59}, {"time": 1252, "pitch": 60, "duration": 12, "velocity": 95}, {"time": 1258, "pitch": 53, "duration": 5, "velocity": 85}, {"time": 1264, "pitch": 36, "duration": 21, "velocity": 66}, {"time": 1267, "pitch": 43, "duration": 22, "velocity": 61}, {"time": 1270, "pitch": 48, "duration": 7, "velocity": 77}, {"time": 1273, "pitch": 55, "duration": 5, "velocity": 66}, {"time": 1276, "pitch": 63, "duration": 12, "velocity": 100}, {"time": 1279, "pitch": 48, "duration": 3, "velocity": 82}, {"time": 1282, "pitch": 60, "duration": 6, "velocity": 88}, {"time": 1285, "pitch": 55, "duration": 3, "velocity": 78}, {"time": 1288, "pitch": 36, "duration": 16, "velocity": 75}, {"time": 1291, "pitch": 43, "duration": 14, "velocity": 58}, {"time": 1294, "pitch": 48, "duration": 6, "velocity": 81}, {"time": 1297, "pitch": 60, "duration": 4, "velocity": 83}, {"time": 1300, "pitch": 67, "duration": 12, "velocity": 112}, {"time": 1303, "pitch": 48, "duration": 2, "velocity": 89}, {"time": 1306, "pitch": 63, "duration": 6, "velocity": 107}, {"time": 1309, "pitch": 60, "duration": 3, "velocity": 93}, {"time": 1312, "pitch": 37, "duration": 22, "velocity": 72}, {"time": 1315, "pitch": 44, "duration": 20, "velocity": 31}, {"time": 1318, "pitch": 49, "duration": 7, "velocity": 89}, {"time": 1321, "pitch": 53, "duration": 4, "velocity": 74}, {"time": 1324, "pitch": 56, "duration": 7, "velocity": 112}, {"time": 1327, "pitch": 49, "duration": 9, "velocity": 93}, {"time": 1330, "pitch": 53, "duration": 6, "velocity": 71}, {"time": 1333, "pitch": 61, "duration": 4, "velocity": 100}, {"time": 1336, "pitch": 37, "duration": 20, "velocity": 77}, {"time": 1339, "pitch": 44, "duration": 15, "velocity": 62}, {"time": 1342, "pitch": 49, "duration": 7, "velocity": 78}, {"time": 1345, "pitch": 61, "duration": 2, "velocity": 66}, {"time": 1345, "pitch": 65, "duration": 1, "velocity": 70}, {"time": 1345, "pitch": 68, "duration": 2, "velocity": 65}, {"time": 1348, "pitch": 61, "duration": 2, "velocity": 75}, {"time": 1348, "pitch": 65, "duration": 5, "velocity": 89}, {"time": 1348, "pitch": 68, "duration": 6, "velocity": 86}, {"time": 1351, "pitch": 49, "duration": 5, "velocity": 99}, {"time": 1354, "pitch": 61, "duration": 5, "velocity": 107}, {"time": 1354, "pitch": 65, "duration": 1, "velocity": 33}, {"time": 1357, "pitch": 65, "duration": 3, "velocity": 76}, {"time": 1357, "pitch": 68, "duration": 3, "velocity": 99}, {"time": 1360, "pitch": 36, "duration": 22, "velocity": 73}, {"time": 1363, "pitch": 44, "duration": 21, "velocity": 75}, {"time": 1366, "pitch": 48, "duration": 6, "velocity": 74}, {"time": 1369, "pitch": 56, "duration": 2, "velocity": 93}, {"time": 1372, "pitch": 60, "duration": 7, "velocity": 95}, {"time": 1372, "pitch": 63, "duration": 8, "velocity": 117}, {"time": 1375, "pitch": 48, "duration": 9, "velocity": 72}, {"time": 1378, "pitch": 56, "duration": 14, "velocity": 85}, {"time": 1381, "pitch": 60, "duration": 12, "velocity": 63}, {"time": 1381, "pitch": 63, "duration": 11, "velocity": 76}, {"time": 1384, "pitch": 36, "duration": 15, "velocity": 69}, {"time": 1387, "pitch": 44, "duration": 13, "velocity": 73}, {"time": 1390, "pitch": 48, "duration": 7, "velocity": 79}, {"time": 1393, "pitch": 56, "duration": 3, "velocity": 86}, {"time": 1396, "pitch": 60, "duration": 6, "velocity": 117}, {"time": 1396, "pitch": 63, "duration": 8, "velocity": 127}, {"time": 1399, "pitch": 48, "duration": 1, "velocity": 75}, {"time": 1402, "pitch": 56, "duration": 6, "velocity": 97}, {"time": 1405, "pitch": 60, "duration": 3, "velocity": 66}, {"time": 1405, "pitch": 63, "duration": 3, "velocity": 58}, {"time": 1408, "pitch": 34, "duration": 22, "velocity": 81}, {"time": 1411, "pitch": 41, "duration": 21, "velocity": 52}, {"time": 1414, "pitch": 46, "duration": 7, "velocity": 95}, {"time": 1417, "pitch": 53, "duration": 4, "velocity": 81}, {"time": 1420, "pitch": 58, "duration": 8, "velocity": 73}, {"time": 1420, "pitch": 61, "duration": 7, "velocity": 107}, {"time": 1423, "pitch": 46, "duration": 11, "velocity": 89}, {"time": 1426, "pitch": 53, "duration": 13, "velocity": 75}, {"time": 1429, "pitch": 58, "duration": 10, "velocity": 70}, {"time": 1429, "pitch": 61, "duration": 10, "velocity": 85}, {"time": 1432, "pitch": 34, "duration": 17, "velocity": 58}, {"time": 1435, "pitch": 41, "duration": 13, "velocity": 66}, {"time": 1438, "pitch": 46, "duration": 8, "velocity": 85}, {"time": 1441, "pitch": 53, "duration": 2, "velocity": 62}, {"time": 1444, "pitch": 53, "duration": 1, "velocity": 59}, {"time": 1444, "pitch": 58, "duration": 8, "velocity": 112}, {"time": 1444, "pitch": 61, "duration": 12, "velocity": 107}, {"time": 1444, "pitch": 65, "duration": 12, "velocity": 96}, {"time": 1447, "pitch": 46, "duration": 3, "velocity": 96}, {"time": 1450, "pitch": 53, "duration": 6, "velocity": 85}, {"time": 1453, "pitch": 58, "duration": 3, "velocity": 107}, {"time": 1456, "pitch": 39, "duration": 22, "velocity": 83}, {"time": 1459, "pitch": 46, "duration": 20, "velocity": 71}, {"time": 1462, "pitch": 51, "duration": 6, "velocity": 95}, {"time": 1465, "pitch": 55, "duration": 6, "velocity": 72}, {"time": 1468, "pitch": 63, "duration": 9, "velocity": 117}, {"time": 1471, "pitch": 51, "duration": 13, "velocity": 96}, {"time": 1474, "pitch": 58, "duration": 4, "velocity": 99}, {"time": 1477, "pitch": 55, "duration": 2, "velocity": 93}, {"time": 1480, "pitch": 39, "duration": 17, "velocity": 100}, {"time": 1480, "pitch": 55, "duration": 8, "velocity": 83}, {"time": 1480, "pitch": 58, "duration": 8, "velocity": 127}, {"time": 1480, "pitch": 63, "duration": 8, "velocity": 112}, {"time": 1486, "pitch": 46, "duration": 10, "velocity": 38}, {"time": 1486, "pitch": 51, "duration": 7, "velocity": 102}, {"time": 1492, "pitch": 58, "duration": 7, "velocity": 127}, {"time": 1492, "pitch": 63, "duration": 11, "velocity": 127}, {"time": 1495, "pitch": 51, "duration": 3, "velocity": 107}, {"time": 1498, "pitch": 55, "duration": 4, "velocity": 100}, {"time": 1501, "pitch": 58, "duration": 2, "velocity": 127}, {"time": 1504, "pitch": 44, "duration": 41, "velocity": 100}, {"time": 1510, "pitch": 51, "duration": 34, "velocity": 39}, {"time": 1516, "pitch": 56, "duration": 13, "velocity": 122}, {"time": 1522, "pitch": 60, "duration": 13, "velocity": 93}, {"time": 1528, "pitch": 68, "duration": 23, "velocity": 127}, {"time": 1534, "pitch": 56, "duration": 7, "velocity": 89}, {"time": 1540, "pitch": 63, "duration": 6, "velocity": 100}, {"time": 1543, "pitch": 56, "duration": 2, "velocity": 92}, {"time": 1546, "pitch": 60, "duration": 6, "velocity": 97}, {"time": 1549, "pitch": 63, "duration": 3, "velocity": 89}, {"time": 1552, "pitch": 43, "duration": 37, "velocity": 96}, {"time": 1558, "pitch": 48, "duration": 10, "velocity": 73}, {"time": 1564, "pitch": 55, "duration": 19, "velocity": 97}, {"time": 1570, "pitch": 60, "duration": 9, "velocity": 81}, {"time": 1576, "pitch": 63, "duration": 24, "velocity": 127}, {"time": 1582, "pitch": 48, "duration": 11, "velocity": 89}, {"time": 1588, "pitch": 60, "duration": 13, "velocity": 117}, {"time": 1594, "pitch": 43, "duration": 5, "velocity": 99}, {"time": 1600, "pitch": 41, "duration": 44, "velocity": 93}, {"time": 1606, "pitch": 48, "duration": 38, "velocity": 56}, {"time": 1612, "pitch": 53, "duration": 14, "velocity": 92}, {"time": 1618, "pitch": 56, "duration": 10, "velocity": 100}, {"time": 1624, "pitch": 65, "duration": 23, "velocity": 73}, {"time": 1630, "pitch": 53, "duration": 14, "velocity": 77}, {"time": 1636, "pitch": 60, "duration": 11, "velocity": 77}, {"time": 1642, "pitch": 56, "duration": 5, "velocity": 95}, {"time": 1648, "pitch": 36, "duration": 21, "velocity": 69}, {"time": 1651, "pitch": 43, "duration": 21, "velocity": 69}, {"time": 1654, "pitch": 48, "duration": 6, "velocity": 93}, {"time": 1657, "pitch": 55, "duration": 4, "velocity": 78}, {"time": 1660, "pitch": 60, "duration": 6, "velocity": 100}, {"time": 1660, "pitch": 63, "duration": 12, "velocity": 117}, {"time": 1663, "pitch": 48, "duration": 3, "velocity": 90}, {"time": 1666, "pitch": 55, "duration": 5, "velocity": 95}, {"time": 1669, "pitch": 60, "duration": 3, "velocity": 86}, {"time": 1672, "pitch": 36, "duration": 16, "velocity": 74}, {"time": 1675, "pitch": 43, "duration": 13, "velocity": 70}, {"time": 1678, "pitch": 48, "duration": 6, "velocity": 85}, {"time": 1681, "pitch": 60, "duration": 5, "velocity": 86}, {"time": 1684, "pitch": 67, "duration": 13, "velocity": 112}, {"time": 1687, "pitch": 63, "duration": 4, "velocity": 102}, {"time": 1690, "pitch": 60, "duration": 5, "velocity": 90}, {"time": 1693, "pitch": 63, "duration": 4, "velocity": 82}, {"time": 1696, "pitch": 37, "duration": 23, "velocity": 71}, {"time": 1699, "pitch": 44, "duration": 21, "velocity": 37}, {"time": 1702, "pitch": 49, "duration": 7, "velocity": 95}, {"time": 1705, "pitch": 53, "duration": 4, "velocity": 64}, {"time": 1708, "pitch": 56, "duration": 7, "velocity": 107}, {"time": 1708, "pitch": 61, "duration": 14, "velocity": 100}, {"time": 1711, "pitch": 49, "duration": 10, "velocity": 86}, {"time": 1714, "pitch": 53, "duration": 7, "velocity": 85}, {"time": 1717, "pitch": 56, "duration": 8, "velocity": 92}, {"time": 1720, "pitch": 37, "duration": 21, "velocity": 78}, {"time": 1723, "pitch": 44, "duration": 15, "velocity": 37}, {"time": 1726, "pitch": 49, "duration": 6, "velocity": 86}, {"time": 1729, "pitch": 53, "duration": 5, "velocity": 77}, {"time": 1732, "pitch": 61, "duration": 12, "velocity": 122}, {"time": 1735, "pitch": 49, "duration": 7, "velocity": 97}, {"time": 1738, "pitch": 56, "duration": 6, "velocity": 99}, {"time": 1741, "pitch": 53, "duration": 3, "velocity": 86}, {"time": 1744, "pitch": 36, "duration": 22, "velocity": 71}, {"time": 1747, "pitch": 44, "duration": 21, "velocity": 92}, {"time": 1750, "pitch": 48, "duration": 7, "velocity": 78}, {"time": 1753, "pitch": 56, "duration": 3, "velocity": 92}, {"time": 1756, "pitch": 56, "duration": 1, "velocity": 38}, {"time": 1756, "pitch": 60, "duration": 6, "velocity": 97}, {"time": 1756, "pitch": 63, "duration": 7, "velocity": 112}, {"time": 1759, "pitch": 48, "duration": 10, "velocity": 82}, {"time": 1762, "pitch": 56, "duration": 14, "velocity": 90}, {"time": 1765, "pitch": 60, "duration": 12, "velocity": 78}, {"time": 1765, "pitch": 63, "duration": 13, "velocity": 102}, {"time": 1768, "pitch": 36, "duration": 23, "velocity": 66}, {"time": 1771, "pitch": 44, "duration": 20, "velocity": 73}, {"time": 1774, "pitch": 48, "duration": 7, "velocity": 77}, {"time": 1777, "pitch": 56, "duration": 2, "velocity": 69}, {"time": 1780, "pitch": 60, "duration": 7, "velocity": 112}, {"time": 1780, "pitch": 63, "duration": 7, "velocity": 112}, {"time": 1783, "pitch": 48, "duration": 7, "velocity": 95}, {"time": 1786, "pitch": 56, "duration": 6, "velocity": 93}, {"time": 1789, "pitch": 60, "duration": 4, "velocity": 67}, {"time": 1789, "pitch": 63, "duration": 4, "velocity": 99}, {"time": 1792, "pitch": 34, "duration": 17, "velocity": 76}, {"time": 1795, "pitch": 41, "duration": 13, "velocity": 53}, {"time": 1798, "pitch": 46, "duration": 7, "velocity": 95}, {"time": 1801, "pitch": 49, "duration": 3, "velocity": 75}, {"time": 1804, "pitch": 53, "duration": 5, "velocity": 85}, {"time": 1807, "pitch": 46, "duration": 7, "velocity": 100}, {"time": 1810, "pitch": 49, "duration": 4, "velocity": 107}, {"time": 1813, "pitch": 53, "duration": 2, "velocity": 73}, {"time": 1816, "pitch": 39, "duration": 19, "velocity": 92}, {"time": 1819, "pitch": 46, "duration": 16, "velocity": 35}, {"time": 1822, "pitch": 51, "duration": 8, "velocity": 97}, {"time": 1825, "pitch": 55, "duration": 4, "velocity": 88}, {"time": 1828, "pitch": 58, "duration": 12, "velocity": 102}, {"time": 1828, "pitch": 63, "duration": 12, "velocity": 112}, {"time": 1831, "pitch": 51, "duration": 4, "velocity": 54}, {"time": 1834, "pitch": 55, "duration": 6, "velocity": 90}, {"time": 1840, "pitch": 44, "duration": 45, "velocity": 89}, {"time": 1843, "pitch": 51, "duration": 16, "velocity": 34}, {"time": 1846, "pitch": 56, "duration": 6, "velocity": 96}, {"time": 1849, "pitch": 60, "duration": 5, "velocity": 68}, {"time": 1852, "pitch": 63, "duration": 6, "velocity": 102}, {"time": 1855, "pitch": 56, "duration": 7, "velocity": 93}, {"time": 1858, "pitch": 60, "duration": 30, "velocity": 82}, {"time": 1861, "pitch": 63, "duration": 2, "velocity": 82}, {"time": 1864, "pitch": 51, "duration": 22, "velocity": 72}, {"time": 1864, "pitch": 56, "duration": 22, "velocity": 99}, {"time": 1864, "pitch": 63, "duration": 24, "velocity": 96}, {"time": 1864, "pitch": 68, "duration": 10, "velocity": 89}, {"time": 1876, "pitch": 68, "duration": 12, "velocity": 27}, {"time": 1888, "pitch": 44, "duration": 40, "velocity": 53}, {"time": 1894, "pitch": 51, "duration": 33, "velocity": 42}, {"time": 1900, "pitch": 56, "duration": 14, "velocity": 82}, {"time": 1906, "pitch": 60, "duration": 15, "velocity": 68}, {"time": 1912, "pitch": 68, "duration": 22, "velocity": 99}, {"time": 1918, "pitch": 56, "duration": 7, "velocity": 67}, {"time": 1924, "pitch": 63, "duration": 15, "velocity": 76}, {"time": 1930, "pitch": 60, "duration": 8, "velocity": 63}, {"time": 1936, "pitch": 43, "duration": 34, "velocity": 65}, {"time": 1942, "pitch": 60, "duration": 9, "velocity": 56}, {"time": 1948, "pitch": 63, "duration": 13, "velocity": 83}, {"time": 1954, "pitch": 60, "duration": 8, "velocity": 45}, {"time": 1960, "pitch": 67, "duration": 26, "velocity": 90}, {"time": 1966, "pitch": 60, "duration": 7, "velocity": 44}, {"time": 1972, "pitch": 63, "duration": 14, "velocity": 68}, {"time": 1978, "pitch": 60, "duration": 9, "velocity": 64}, {"time": 1984, "pitch": 41, "duration": 33, "velocity": 58}, {"time": 1990, "pitch": 48, "duration": 28, "velocity": 54}, {"time": 1996, "pitch": 53, "duration": 15, "velocity": 63}, {"time": 2002, "pitch": 56, "duration": 10, "velocity": 56}, {"time": 2008, "pitch": 60, "duration": 14, "velocity": 67}, {"time": 2008, "pitch": 65, "duration": 13, "velocity": 65}, {"time": 2014, "pitch": 53, "duration": 3, "velocity": 83}, {"time": 2020, "pitch": 56, "duration": 11, "velocity": 95}, {"time": 2032, "pitch": 42, "duration": 38, "velocity": 102}, {"time": 2032, "pitch": 58, "duration": 42, "velocity": 122}, {"time": 2032, "pitch": 61, "duration": 42, "velocity": 107}, {"time": 2038, "pitch": 54, "duration": 24, "velocity": 66}, {"time": 2050, "pitch": 66, "duration": 22, "velocity": 26}, {"time": 2077, "pitch": 39, "duration": 14, "velocity": 63}, {"time": 2077, "pitch": 51, "duration": 16, "velocity": 71}, {"time": 2077, "pitch": 55, "duration": 17, "velocity": 88}, {"time": 2077, "pitch": 58, "duration": 14, "velocity": 100}, {"time": 2092, "pitch": 63, "duration": 5, "velocity": 79}, {"time": 2098, "pitch": 39, "duration": 17, "velocity": 74}, {"time": 2098, "pitch": 51, "duration": 7, "velocity": 63}, {"time": 2098, "pitch": 55, "duration": 17, "velocity": 81}, {"time": 2098, "pitch": 58, "duration": 10, "velocity": 100}, {"time": 2098, "pitch": 63, "duration": 11, "velocity": 92}, {"time": 2116, "pitch": 37, "duration": 11, "velocity": 69}, {"time": 2116, "pitch": 61, "duration": 11, "velocity": 100}, {"time": 2116, "pitch": 64, "duration": 11, "velocity": 92}, {"time": 2116, "pitch": 67, "duration": 11, "velocity": 81}, {"time": 2128, "pitch": 41, "duration": 36, "velocity": 86}, {"time": 2134, "pitch": 48, "duration": 30, "velocity": 80}, {"time": 2140, "pitch": 53, "duration": 13, "velocity": 95}, {"time": 2146, "pitch": 60, "duration": 20, "velocity": 70}, {"time": 2152, "pitch": 68, "duration": 23, "velocity": 127}, {"time": 2158, "pitch": 53, "duration": 4, "velocity": 78}, {"time": 2164, "pitch": 65, "duration": 13, "velocity": 100}, {"time": 2170, "pitch": 60, "duration": 7, "velocity": 79}, {"time": 2176, "pitch": 36, "duration": 34, "velocity": 75}, {"time": 2182, "pitch": 43, "duration": 29, "velocity": 63}, {"time": 2188, "pitch": 48, "duration": 15, "velocity": 88}, {"time": 2194, "pitch": 60, "duration": 14, "velocity": 71}, {"time": 2200, "pitch": 67, "duration": 24, "velocity": 102}, {"time": 2206, "pitch": 48, "duration": 3, "velocity": 60}, {"time": 2212, "pitch": 63, "duration": 11, "velocity": 97}, {"time": 2218, "pitch": 60, "duration": 6, "velocity": 86}, {"time": 2224, "pitch": 37, "duration": 20, "velocity": 75}, {"time": 2230, "pitch": 44, "duration": 17, "velocity": 50}, {"time": 2236, "pitch": 49, "duration": 11, "velocity": 99}, {"time": 2242, "pitch": 61, "duration": 5, "velocity": 96}, {"time": 2248, "pitch": 39, "duration": 13, "velocity": 99}, {"time": 2254, "pitch": 51, "duration": 12, "velocity": 88}, {"time": 2260, "pitch": 63, "duration": 13, "velocity": 99}, {"time": 2266, "pitch": 70, "duration": 6, "velocity": 93}, {"time": 2272, "pitch": 44, "duration": 39, "velocity": 86}, {"time": 2278, "pitch": 51, "duration": 31, "velocity": 48}, {"time": 2284, "pitch": 56, "duration": 16, "velocity": 88}, {"time": 2290, "pitch": 60, "duration": 18, "velocity": 76}, {"time": 2296, "pitch": 68, "duration": 25, "velocity": 122}, {"time": 2302, "pitch": 56, "duration": 7, "velocity": 92}, {"time": 2308, "pitch": 63, "duration": 13, "velocity": 117}, {"time": 2314, "pitch": 60, "duration": 7, "velocity": 76}, {"time": 2320, "pitch": 41, "duration": 39, "velocity": 76}, {"time": 2326, "pitch": 48, "duration": 32, "velocity": 59}, {"time": 2332, "pitch": 53, "duration": 15, "velocity": 90}, {"time": 2338, "pitch": 60, "duration": 19, "velocity": 81}, {"time": 2344, "pitch": 68, "duration": 23, "velocity": 107}, {"time": 2350, "pitch": 53, "duration": 5, "velocity": 75}, {"time": 2356, "pitch": 65, "duration": 11, "velocity": 77}, {"time": 2362, "pitch": 60, "duration": 7, "velocity": 81}, {"time": 2368, "pitch": 36, "duration": 36, "velocity": 72}, {"time": 2374, "pitch": 43, "duration": 31, "velocity": 62}, {"time": 2380, "pitch": 48, "duration": 15, "velocity": 89}, {"time": 2386, "pitch": 55, "duration": 10, "velocity": 72}, {"time": 2392, "pitch": 61, "duration": 1, "velocity": 63}, {"time": 2392, "pitch": 63, "duration": 13, "velocity": 122}, {"time": 2398, "pitch": 48, "duration": 6, "velocity": 86}, {"time": 2404, "pitch": 60, "duration": 8, "velocity": 100}, {"time": 2410, "pitch": 63, "duration": 6, "velocity": 107}, {"time": 2416, "pitch": 34, "duration": 39, "velocity": 89}, {"time": 2422, "pitch": 41, "duration": 33, "velocity": 72}, {"time": 2428, "pitch": 46, "duration": 14, "velocity": 99}, {"time": 2434, "pitch": 53, "duration": 8, "velocity": 82}, {"time": 2440, "pitch": 58, "duration": 13, "velocity": 96}, {"time": 2440, "pitch": 61, "duration": 14, "velocity": 99}, {"time": 2446, "pitch": 46, "duration": 12, "velocity": 89}, {"time": 2452, "pitch": 53, "duration": 12, "velocity": 95}, {"time": 2458, "pitch": 58, "duration": 6, "velocity": 97}, {"time": 2458, "pitch": 61, "duration": 6, "velocity": 112}, {"time": 2464, "pitch": 39, "duration": 21, "velocity": 88}, {"time": 2470, "pitch": 46, "duration": 14, "velocity": 66}, {"time": 2476, "pitch": 51, "duration": 8, "velocity": 96}, {"time": 2482, "pitch": 55, "duration": 3, "velocity": 102}, {"time": 2488, "pitch": 37, "duration": 12, "velocity": 117}, {"time": 2488, "pitch": 49, "duration": 10, "velocity": 112}, {"time": 2488, "pitch": 53, "duration": 11, "velocity": 99}, {"time": 2488, "pitch": 54, "duration": 1, "velocity": 36}, {"time": 2488, "pitch": 56, "duration": 9, "velocity": 63}, {"time": 2500, "pitch": 39, "duration": 11, "velocity": 102}, {"time": 2500, "pitch": 51, "duration": 11, "velocity": 92}, {"time": 2500, "pitch": 55, "duration": 11, "velocity": 83}, {"time": 2500, "pitch": 58, "duration": 11, "velocity": 89}, {"time": 2512, "pitch": 44, "duration": 22, "velocity": 82}, {"time": 2515, "pitch": 51, "duration": 19, "velocity": 41}, {"time": 2518, "pitch": 56, "duration": 7, "velocity": 92}, {"time": 2521, "pitch": 60, "duration": 5, "velocity": 71}, {"time": 2524, "pitch": 68, "duration": 19, "velocity": 112}, {"time": 2527, "pitch": 56, "duration": 10, "velocity": 100}, {"time": 2530, "pitch": 63, "duration": 10, "velocity": 96}, {"time": 2533, "pitch": 60, "duration": 10, "velocity": 90}, {"time": 2536, "pitch": 44, "duration": 19, "velocity": 72}, {"time": 2539, "pitch": 51, "duration": 15, "velocity": 63}, {"time": 2542, "pitch": 56, "duration": 6, "velocity": 76}, {"time": 2545, "pitch": 60, "duration": 4, "velocity": 88}, {"time": 2548, "pitch": 68, "duration": 14, "velocity": 107}, {"time": 2551, "pitch": 56, "duration": 3, "velocity": 85}, {"time": 2554, "pitch": 63, "duration": 7, "velocity": 107}, {"time": 2557, "pitch": 60, "duration": 4, "velocity": 93}, {"time": 2560, "pitch": 43, "duration": 21, "velocity": 70}, {"time": 2563, "pitch": 48, "duration": 10, "velocity": 64}, {"time": 2566, "pitch": 60, "duration": 8, "velocity": 92}, {"time": 2569, "pitch": 63, "duration": 3, "velocity": 88}, {"time": 2572, "pitch": 68, "duration": 20, "velocity": 117}, {"time": 2575, "pitch": 48, "duration": 9, "velocity": 55}, {"time": 2578, "pitch": 63, "duration": 13, "velocity": 97}, {"time": 2581, "pitch": 60, "duration": 7, "velocity": 86}, {"time": 2584, "pitch": 43, "duration": 18, "velocity": 66}, {"time": 2587, "pitch": 48, "duration": 15, "velocity": 46}, {"time": 2590, "pitch": 55, "duration": 7, "velocity": 41}, {"time": 2593, "pitch": 60, "duration": 7, "velocity": 83}, {"time": 2596, "pitch": 68, "duration": 11, "velocity": 117}, {"time": 2599, "pitch": 55, "duration": 3, "velocity": 83}, {"time": 2602, "pitch": 63, "duration": 5, "velocity": 99}, {"time": 2605, "pitch": 60, "duration": 4, "velocity": 85}, {"time": 2608, "pitch": 41, "duration": 22, "velocity": 65}, {"time": 2611, "pitch": 48, "duration": 21, "velocity": 53}, {"time": 2614, "pitch": 53, "duration": 7, "velocity": 86}, {"time": 2617, "pitch": 60, "duration": 4, "velocity": 73}, {"time": 2620, "pitch": 68, "duration": 15, "velocity": 102}, {"time": 2623, "pitch": 53, "duration": 3, "velocity": 72}, {"time": 2626, "pitch": 60, "duration": 8, "velocity": 75}, {"time": 2629, "pitch": 65, "duration": 8, "velocity": 68}, {"time": 2632, "pitch": 41, "duration": 17, "velocity": 59}, {"time": 2635, "pitch": 48, "duration": 11, "velocity": 67}, {"time": 2638, "pitch": 53, "duration": 5, "velocity": 75}, {"time": 2641, "pitch": 60, "duration": 6, "velocity": 82}, {"time": 2644, "pitch": 68, "duration": 9, "velocity": 117}, {"time": 2647, "pitch": 48, "duration": 2, "velocity": 72}, {"time": 2650, "pitch": 65, "duration": 4, "velocity": 83}, {"time": 2653, "pitch": 60, "duration": 4, "velocity": 88}, {"time": 2656, "pitch": 36, "duration": 21, "velocity": 66}, {"time": 2659, "pitch": 43, "duration": 22, "velocity": 61}, {"time": 2662, "pitch": 48, "duration": 7, "velocity": 77}, {"time": 2665, "pitch": 55, "duration": 5, "velocity": 66}, {"time": 2668, "pitch": 63, "duration": 12, "velocity": 100}, {"time": 2671, "pitch": 48, "duration": 3, "velocity": 82}, {"time": 2674, "pitch": 60, "duration": 6, "velocity": 88}, {"time": 2677, "pitch": 55, "duration": 3, "velocity": 78}, {"time": 2680, "pitch": 36, "duration": 16, "velocity": 75}, {"time": 2683, "pitch": 43, "duration": 14, "velocity": 58}, {"time": 2686, "pitch": 48, "duration": 6, "velocity": 81}, {"time": 2689, "pitch": 60, "duration": 4, "velocity": 83}, {"time": 2692, "pitch": 67, "duration": 12, "velocity": 112}, {"time": 2695, "pitch": 48, "duration": 2, "velocity": 89}, {"time": 2698, "pitch": 63, "duration": 6, "velocity": 107}, {"time": 2701, "pitch": 60, "duration": 3, "velocity": 93}, {"time": 2704, "pitch": 37, "duration": 22, "velocity": 72}, {"time": 2707, "pitch": 44, "duration": 20, "velocity": 31}, {"time": 2710, "pitch": 49, "duration": 7, "velocity": 89}, {"time": 2713, "pitch": 53, "duration": 4, "velocity": 74}, {"time": 2716, "pitch": 56, "duration": 7, "velocity": 112}, {"time": 2719, "pitch": 49, "duration": 9, "velocity": 93}, {"time": 2722, "pitch": 53, "duration": 6, "velocity": 71}, {"time": 2725, "pitch": 61, "duration": 4, "velocity": 100}, {"time": 2728, "pitch": 37, "duration": 20, "velocity": 77}, {"time": 2731, "pitch": 44, "duration": 15, "velocity": 62}, {"time": 2734, "pitch": 49, "duration": 7, "velocity": 78}, {"time": 2737, "pitch": 61, "duration": 2, "velocity": 66}, {"time": 2737, "pitch": 65, "duration": 1, "velocity": 70}, {"time": 2737, "pitch": 68, "duration": 2, "velocity": 65}, {"time": 2740, "pitch": 61, "duration": 2, "velocity": 75}, {"time": 2740, "pitch": 65, "duration": 5, "velocity": 89}, {"time": 2740, "pitch": 68, "duration": 6, "velocity": 86}, {"time": 2743, "pitch": 49, "duration": 5, "velocity": 99}, {"time": 2746, "pitch": 61, "duration": 5, "velocity": 107}, {"time": 2746, "pitch": 65, "duration": 1, "velocity": 33}, {"time": 2749, "pitch": 65, "duration": 3, "velocity": 76}, {"time": 2749, "pitch": 68, "duration": 3, "velocity": 99}, {"time": 2752, "pitch": 36, "duration": 22, "velocity": 73}, {"time": 2755, "pitch": 44, "duration": 21, "velocity": 75}, {"time": 2758, "pitch": 48, "duration": 6, "velocity": 74}, {"time": 2761, "pitch": 56, "duration": 2, "velocity": 93}, {"time": 2764, "pitch": 60, "duration": 7, "velocity": 95}, {"time": 2764, "pitch": 63, "duration": 8, "velocity": 117}, {"time": 2767, "pitch": 48, "duration": 9, "velocity": 72}, {"time": 2770, "pitch": 56, "duration": 14, "velocity": 85}, {"time": 2773, "pitch": 60, "duration": 12, "velocity": 63}, {"time": 2773, "pitch": 63, "duration": 11, "velocity": 76}, {"time": 2776, "pitch": 36, "duration": 15, "velocity": 69}, {"time": 2779, "pitch": 44, "duration": 13, "velocity": 73}, {"time": 2782, "pitch": 48, "duration": 7, "velocity": 79}, {"time": 2785, "pitch": 56, "duration": 3, "velocity": 86}, {"time": 2788, "pitch": 60, "duration": 6, "velocity": 117}, {"time": 2788, "pitch": 63, "duration": 8, "velocity": 127}, {"time": 2791, "pitch": 48, "duration": 1, "velocity": 75}, {"time": 2794, "pitch": 56, "duration": 6, "velocity": 97}, {"time": 2797, "pitch": 60, "duration": 3, "velocity": 66}, {"time": 2797, "pitch": 63, "duration": 3, "velocity": 58}, {"time": 2800, "pitch": 34, "duration": 22, "velocity": 81}, {"time": 2803, "pitch": 41, "duration": 21, "velocity": 52}, {"time": 2806, "pitch": 46, "duration": 7, "velocity": 95}, {"time": 2809, "pitch": 53, "duration": 4, "velocity": 81}, {"time": 2812, "pitch": 58, "duration": 8, "velocity": 73}, {"time": 2812, "pitch": 61, "duration": 7, "velocity": 107}, {"time": 2815, "pitch": 46, "duration": 11, "velocity": 89}, {"time": 2818, "pitch": 53, "duration": 13, "velocity": 75}, {"time": 2821, "pitch": 58, "duration": 10, "velocity": 70}, {"time": 2821, "pitch": 61, "duration": 10, "velocity": 85}, {"time": 2824, "pitch": 34, "duration": 17, "velocity": 58}, {"time": 2827, "pitch": 41, "duration": 13, "velocity": 66}, {"time": 2830, "pitch": 46, "duration": 8, "velocity": 85}, {"time": 2833, "pitch": 53, "duration": 2, "velocity": 62}, {"time": 2836, "pitch": 53, "duration": 1, "velocity": 59}, {"time": 2836, "pitch": 58, "duration": 8, "velocity": 112}, {"time": 2836, "pitch": 61, "duration": 12, "velocity": 107}, {"time": 2836, "pitch": 65, "duration": 12, "velocity": 96}, {"time": 2839, "pitch": 46, "duration": 3, "velocity": 96}, {"time": 2842, "pitch": 53, "duration": 6, "velocity": 85}, {"time": 2845, "pitch": 58, "duration": 3, "velocity": 107}, {"time": 2848, "pitch": 39, "duration": 22, "velocity": 83}, {"time": 2851, "pitch": 46, "duration": 20, "velocity": 71}, {"time": 2854, "pitch": 51, "duration": 6, "velocity": 95}, {"time": 2857, "pitch": 55, "duration": 6, "velocity": 72}, {"time": 2860, "pitch": 63, "duration": 9, "velocity": 117}, {"time": 2863, "pitch": 51, "duration": 13, "velocity": 96}, {"time": 2866, "pitch": 58, "duration": 4, "velocity": 99}, {"time": 2869, "pitch": 55, "duration": 2, "velocity": 93}, {"time": 2872, "pitch": 39, "duration": 17, "velocity": 100}, {"time": 2872, "pitch": 55, "duration": 8, "velocity": 83}, {"time": 2872, "pitch": 58, "duration": 8, "velocity": 127}, {"time": 2872, "pitch": 63, "duration": 8, "velocity": 112}, {"time": 2878, "pitch": 46, "duration": 10, "velocity": 38}, {"time": 2878, "pitch": 51, "duration": 7, "velocity": 102}, {"time": 2884, "pitch": 58, "duration": 7, "velocity": 127}, {"time": 2884, "pitch": 63, "duration": 11, "velocity": 127}, {"time": 2887, "pitch": 51, "duration": 3, "velocity": 107}, {"time": 2890, "pitch": 55, "duration": 4, "velocity": 100}, {"time": 2893, "pitch": 58, "duration": 2, "velocity": 127}, {"time": 2896, "pitch": 44, "duration": 22, "velocity": 85}, {"time": 2899, "pitch": 51, "duration": 20, "velocity": 35}, {"time": 2902, "pitch": 56, "duration": 6, "velocity": 97}, {"time": 2905, "pitch": 60, "duration": 4, "velocity": 69}, {"time": 2908, "pitch": 63, "duration": 5, "velocity": 100}, {"time": 2911, "pitch": 56, "duration": 11, "velocity": 100}, {"time": 2914, "pitch": 60, "duration": 13, "velocity": 86}, {"time": 2917, "pitch": 63, "duration": 11, "velocity": 93}, {"time": 2917, "pitch": 68, "duration": 12, "velocity": 117}, {"time": 2920, "pitch": 44, "duration": 19, "velocity": 81}, {"time": 2923, "pitch": 51, "duration": 14, "velocity": 34}, {"time": 2926, "pitch": 56, "duration": 6, "velocity": 95}, {"time": 2929, "pitch": 60, "duration": 4, "velocity": 89}, {"time": 2932, "pitch": 68, "duration": 12, "velocity": 127}, {"time": 2935, "pitch": 56, "duration": 3, "velocity": 99}, {"time": 2938, "pitch": 63, "duration": 7, "velocity": 112}, {"time": 2941, "pitch": 60, "duration": 4, "velocity": 90}, {"time": 2944, "pitch": 43, "duration": 23, "velocity": 72}, {"time": 2947, "pitch": 60, "duration": 4, "velocity": 92}, {"time": 2950, "pitch": 63, "duration": 4, "velocity": 112}, {"time": 2953, "pitch": 60, "duration": 5, "velocity": 93}, {"time": 2956, "pitch": 67, "duration": 19, "velocity": 117}, {"time": 2959, "pitch": 55, "duration": 9, "velocity": 79}, {"time": 2962, "pitch": 63, "duration": 12, "velocity": 99}, {"time": 2965, "pitch": 60, "duration": 8, "velocity": 93}, {"time": 2968, "pitch": 43, "duration": 17, "velocity": 73}, {"time": 2971, "pitch": 55, "duration": 10, "velocity": 67}, {"time": 2974, "pitch": 60, "duration": 7, "velocity": 88}, {"time": 2977, "pitch": 63, "duration": 3, "velocity": 97}, {"time": 2980, "pitch": 67, "duration": 11, "velocity": 99}, {"time": 2983, "pitch": 55, "duration": 2, "velocity": 92}, {"time": 2986, "pitch": 63, "duration": 5, "velocity": 102}, {"time": 2989, "pitch": 60, "duration": 3, "velocity": 85}, {"time": 2992, "pitch": 41, "duration": 22, "velocity": 76}, {"time": 2995, "pitch": 48, "duration": 21, "velocity": 49}, {"time": 2998, "pitch": 53, "duration": 7, "velocity": 85}, {"time": 3001, "pitch": 60, "duration": 6, "velocity": 90}, {"time": 3004, "pitch": 68, "duration": 10, "velocity": 122}, {"time": 3007, "pitch": 53, "duration": 3, "velocity": 83}, {"time": 3010, "pitch": 65, "duration": 8, "velocity": 96}, {"time": 3013, "pitch": 60, "duration": 6, "velocity": 97}, {"time": 3016, "pitch": 41, "duration": 17, "velocity": 62}, {"time": 3019, "pitch": 48, "duration": 11, "velocity": 63}, {"time": 3022, "pitch": 53, "duration": 4, "velocity": 89}, {"time": 3025, "pitch": 60, "duration": 3, "velocity": 81}, {"time": 3028, "pitch": 65, "duration": 6, "velocity": 97}, {"time": 3028, "pitch": 68, "duration": 11, "velocity": 112}, {"time": 3031, "pitch": 48, "duration": 2, "velocity": 58}, {"time": 3034, "pitch": 60, "duration": 6, "velocity": 100}, {"time": 3037, "pitch": 65, "duration": 3, "velocity": 89}, {"time": 3040, "pitch": 36, "duration": 21, "velocity": 69}, {"time": 3043, "pitch": 43, "duration": 21, "velocity": 69}, {"time": 3046, "pitch": 48, "duration": 6, "velocity": 93}, {"time": 3049, "pitch": 55, "duration": 4, "velocity": 78}, {"time": 3052, "pitch": 60, "duration": 6, "velocity": 100}, {"time": 3052, "pitch": 63, "duration": 12, "velocity": 117}, {"time": 3055, "pitch": 48, "duration": 3, "velocity": 90}, {"time": 3058, "pitch": 55, "duration": 5, "velocity": 95}, {"time": 3061, "pitch": 60, "duration": 3, "velocity": 86}, {"time": 3064, "pitch": 36, "duration": 16, "velocity": 74}, {"time": 3067, "pitch": 43, "duration": 13, "velocity": 70}, {"time": 3070, "pitch": 48, "duration": 6, "velocity": 85}, {"time": 3073, "pitch": 60, "duration": 5, "velocity": 86}, {"time": 3076, "pitch": 67, "duration": 13, "velocity": 112}, {"time": 3079, "pitch": 63, "duration": 4, "velocity": 102}, {"time": 3082, "pitch": 60, "duration": 5, "velocity": 90}, {"time": 3085, "pitch": 63, "duration": 4, "velocity": 82}, {"time": 3088, "pitch": 37, "duration": 23, "velocity": 71}, {"time": 3091, "pitch": 44, "duration": 21, "velocity": 37}, {"time": 3094, "pitch": 49, "duration": 7, "velocity": 95}, {"time": 3097, "pitch": 53, "duration": 4, "velocity": 64}, {"time": 3100, "pitch": 56, "duration": 7, "velocity": 107}, {"time": 3100, "pitch": 61, "duration": 14, "velocity": 100}, {"time": 3103, "pitch": 49, "duration": 10, "velocity": 86}, {"time": 3106, "pitch": 53, "duration": 7, "velocity": 85}, {"time": 3109, "pitch": 56, "duration": 8, "velocity": 92}, {"time": 3112, "pitch": 37, "duration": 21, "velocity": 78}, {"time": 3115, "pitch": 44, "duration": 15, "velocity": 37}, {"time": 3118, "pitch": 49, "duration": 6, "velocity": 86}, {"time": 3121, "pitch": 53, "duration": 5, "velocity": 77}, {"time": 3124, "pitch": 61, "duration": 12, "velocity": 122}, {"time": 3127, "pitch": 49, "duration": 7, "velocity": 97}, {"time": 3130, "pitch": 56, "duration": 6, "velocity": 99}, {"time": 3133, "pitch": 53, "duration": 3, "velocity": 86}, {"time": 3136, "pitch": 36, "duration": 22, "velocity": 71}, {"time": 3139, "pitch": 44, "duration": 21, "velocity": 92}, {"time": 3142, "pitch": 48, "duration": 7, "velocity": 78}, {"time": 3145, "pitch": 56, "duration": 3, "velocity": 92}, {"time": 3148, "pitch": 56, "duration": 1, "velocity": 38}, {"time": 3148, "pitch": 60, "duration": 6, "velocity": 97}, {"time": 3148, "pitch": 63, "duration": 7, "velocity": 112}, {"time": 3151, "pitch": 48, "duration": 10, "velocity": 82}, {"time": 3154, "pitch": 56, "duration": 14, "velocity": 90}, {"time": 3157, "pitch": 60, "duration": 12, "velocity": 78}, {"time": 3157, "pitch": 63, "duration": 13, "velocity": 102}, {"time": 3160, "pitch": 36, "duration": 23, "velocity": 66}, {"time": 3163, "pitch": 44, "duration": 20, "velocity": 73}, {"time": 3166, "pitch": 48, "duration": 7, "velocity": 77}, {"time": 3169, "pitch": 56, "duration": 2, "velocity": 69}, {"time": 3172, "pitch": 60, "duration": 7, "velocity": 112}, {"time": 3172, "pitch": 63, "duration": 7, "velocity": 112}, {"time": 3175, "pitch": 48, "duration": 7, "velocity": 95}, {"time": 3178, "pitch": 56, "duration": 6, "velocity": 93}, {"time": 3181, "pitch": 60, "duration": 4, "velocity": 67}, {"time": 3181, "pitch": 63, "duration": 4, "velocity": 99}, {"time": 3184, "pitch": 34, "duration": 17, "velocity": 76}, {"time": 3187, "pitch": 41, "duration": 13, "velocity": 53}, {"time": 3190, "pitch": 46, "duration": 7, "velocity": 95}, {"time": 3193, "pitch": 49, "duration": 3, "velocity": 75}, {"time": 3196, "pitch": 53, "duration": 5, "velocity": 85}, {"time": 3199, "pitch": 46, "duration": 7, "velocity": 100}, {"time": 3202, "pitch": 49, "duration": 4, "velocity": 107}, {"time": 3205, "pitch": 53, "duration": 2, "velocity": 73}, {"time": 3208, "pitch": 39, "duration": 19, "velocity": 92}, {"time": 3211, "pitch": 46, "duration": 16, "velocity": 35}, {"time": 3214, "pitch": 51, "duration": 8, "velocity": 97}, {"time": 3217, "pitch": 55, "duration": 4, "velocity": 88}, {"time": 3220, "pitch": 58, "duration": 12, "velocity": 102}, {"time": 3220, "pitch": 63, "duration": 12, "velocity": 112}, {"time": 3223, "pitch": 51, "duration": 4, "velocity": 54}, {"time": 3226, "pitch": 55, "duration": 6, "velocity": 90}, {"time": 3232, "pitch": 44, "duration": 45, "velocity": 89}, {"time": 3235, "pitch": 51, "duration": 16, "velocity": 34}, {"time": 3238, "pitch": 56, "duration": 6, "velocity": 96}, {"time": 3241, "pitch": 60, "duration": 5, "velocity": 68}, {"time": 3244, "pitch": 63, "duration": 6, "velocity": 102}, {"time": 3247, "pitch": 56, "duration": 7, "velocity": 93}, {"time": 3250, "pitch": 60, "duration": 30, "velocity": 82}, {"time": 3253, "pitch": 63, "duration": 2, "velocity": 82}, {"time": 3256, "pitch": 51, "duration": 22, "velocity": 72}, {"time": 3256, "pitch": 56, "duration": 22, "velocity": 99}, {"time": 3256, "pitch": 63, "duration": 24, "velocity": 96}, {"time": 3256, "pitch": 68, "duration": 10, "velocity": 89}, {"time": 3268, "pitch": 68, "duration": 12, "velocity": 27}, {"time": 3281, "pitch": 44, "duration": 37, "velocity": 72}, {"time": 3286, "pitch": 51, "duration": 39, "velocity": 68}, {"time": 3292, "pitch": 56, "duration": 13, "velocity": 86}, {"time": 3298, "pitch": 60, "duration": 18, "velocity": 68}, {"time": 3305, "pitch": 68, "duration": 23, "velocity": 107}, {"time": 3309, "pitch": 56, "duration": 5, "velocity": 52}, {"time": 3315, "pitch": 63, "duration": 20, "velocity": 67}, {"time": 3321, "pitch": 60, "duration": 9, "velocity": 48}, {"time": 3327, "pitch": 43, "duration": 38, "velocity": 67}, {"time": 3333, "pitch": 60, "duration": 9, "velocity": 50}, {"time": 3339, "pitch": 63, "duration": 13, "velocity": 82}, {"time": 3347, "pitch": 60, "duration": 19, "velocity": 47}, {"time": 3353, "pitch": 67, "duration": 19, "velocity": 85}, {"time": 3365, "pitch": 63, "duration": 10, "velocity": 85}, {"time": 3369, "pitch": 60, "duration": 6, "velocity": 55}, {"time": 3375, "pitch": 41, "duration": 35, "velocity": 63}, {"time": 3381, "pitch": 48, "duration": 27, "velocity": 55}, {"time": 3388, "pitch": 53, "duration": 19, "velocity": 61}, {"time": 3395, "pitch": 65, "duration": 8, "velocity": 62}, {"time": 3401, "pitch": 77, "duration": 24, "velocity": 93}, {"time": 3407, "pitch": 65, "duration": 18, "velocity": 57}, {"time": 3413, "pitch": 68, "duration": 4, "velocity": 69}, {"time": 3419, "pitch": 68, "duration": 6, "velocity": 58}, {"time": 3424, "pitch": 36, "duration": 22, "velocity": 93}, {"time": 3430, "pitch": 43, "duration": 17, "velocity": 58}, {"time": 3436, "pitch": 48, "duration": 10, "velocity": 88}, {"time": 3442, "pitch": 60, "duration": 5, "velocity": 58}, {"time": 3442, "pitch": 63, "duration": 5, "velocity": 57}, {"time": 3442, "pitch": 67, "duration": 5, "velocity": 48}, {"time": 3448, "pitch": 36, "duration": 5, "velocity": 67}, {"time": 3448, "pitch": 43, "duration": 5, "velocity": 72}, {"time": 3448, "pitch": 48, "duration": 5, "velocity": 100}, {"time": 3448, "pitch": 60, "duration": 5, "velocity": 100}, {"time": 3448, "pitch": 63, "duration": 5, "velocity": 127}, {"time": 3448, "pitch": 67, "duration": 5, "velocity": 100}, {"time": 3454, "pitch": 36, "duration": 4, "velocity": 68}, {"time": 3454, "pitch": 43, "duration": 5, "velocity": 69}, {"time": 3454, "pitch": 48, "duration": 5, "velocity": 122}, {"time": 3454, "pitch": 60, "duration": 4, "velocity": 117}, {"time": 3454, "pitch": 63, "duration": 4, "velocity": 127}, {"time": 3454, "pitch": 67, "duration": 4, "velocity": 107}, {"time": 3460, "pitch": 60, "duration": 4, "velocity": 122}, {"time": 3460, "pitch": 63, "duration": 4, "velocity": 127}, {"time": 3460, "pitch": 67, "duration": 4, "velocity": 122}, {"time": 3466, "pitch": 60, "duration": 6, "velocity": 112}, {"time": 3466, "pitch": 63, "duration": 5, "velocity": 127}, {"time": 3466, "pitch": 67, "duration": 5, "velocity": 107}, {"time": 3471, "pitch": 37, "duration": 21, "velocity": 95}, {"time": 3475, "pitch": 44, "duration": 19, "velocity": 69}, {"time": 3478, "pitch": 49, "duration": 6, "velocity": 92}, {"time": 3481, "pitch": 61, "duration": 5, "velocity": 90}, {"time": 3484, "pitch": 68, "duration": 9, "velocity": 122}, {"time": 3487, "pitch": 49, "duration": 11, "velocity": 96}, {"time": 3490, "pitch": 65, "duration": 16, "velocity": 61}, {"time": 3493, "pitch": 61, "duration": 11, "velocity": 93}, {"time": 3493, "pitch": 68, "duration": 2, "velocity": 27}, {"time": 3496, "pitch": 37, "duration": 17, "velocity": 83}, {"time": 3499, "pitch": 44, "duration": 13, "velocity": 53}, {"time": 3502, "pitch": 49, "duration": 7, "velocity": 92}, {"time": 3505, "pitch": 61, "duration": 4, "velocity": 97}, {"time": 3508, "pitch": 65, "duration": 5, "velocity": 93}, {"time": 3508, "pitch": 68, "duration": 5, "velocity": 122}, {"time": 3511, "pitch": 49, "duration": 3, "velocity": 102}, {"time": 3514, "pitch": 61, "duration": 6, "velocity": 117}, {"time": 3517, "pitch": 65, "duration": 2, "velocity": 69}, {"time": 3517, "pitch": 68, "duration": 2, "velocity": 100}, {"time": 3520, "pitch": 48, "duration": 23, "velocity": 102}, {"time": 3523, "pitch": 56, "duration": 4, "velocity": 100}, {"time": 3526, "pitch": 60, "duration": 10, "velocity": 72}, {"time": 3529, "pitch": 56, "duration": 4, "velocity": 97}, {"time": 3529, "pitch": 63, "duration": 2, "velocity": 27}, {"time": 3532, "pitch": 63, "duration": 5, "velocity": 64}, {"time": 3532, "pitch": 68, "duration": 5, "velocity": 100}, {"time": 3535, "pitch": 56, "duration": 10, "velocity": 83}, {"time": 3538, "pitch": 60, "duration": 10, "velocity": 69}, {"time": 3538, "pitch": 63, "duration": 11, "velocity": 34}, {"time": 3541, "pitch": 68, "duration": 7, "velocity": 92}, {"time": 3544, "pitch": 48, "duration": 12, "velocity": 88}, {"time": 3547, "pitch": 56, "duration": 4, "velocity": 90}, {"time": 3550, "pitch": 60, "duration": 7, "velocity": 69}, {"time": 3553, "pitch": 56, "duration": 4, "velocity": 96}, {"time": 3553, "pitch": 63, "duration": 1, "velocity": 29}, {"time": 3556, "pitch": 63, "duration": 12, "velocity": 35}, {"time": 3556, "pitch": 68, "duration": 3, "velocity": 107}, {"time": 3559, "pitch": 56, "duration": 4, "velocity": 99}, {"time": 3562, "pitch": 68, "duration": 6, "velocity": 100}, {"time": 3565, "pitch": 56, "duration": 3, "velocity": 112}, {"time": 3568, "pitch": 34, "duration": 16, "velocity": 95}, {"time": 3571, "pitch": 41, "duration": 12, "velocity": 66}, {"time": 3574, "pitch": 46, "duration": 6, "velocity": 96}, {"time": 3577, "pitch": 58, "duration": 2, "velocity": 90}, {"time": 3580, "pitch": 58, "duration": 4, "velocity": 81}, {"time": 3580, "pitch": 61, "duration": 5, "velocity": 117}, {"time": 3580, "pitch": 65, "duration": 7, "velocity": 92}, {"time": 3583, "pitch": 46, "duration": 4, "velocity": 112}, {"time": 3586, "pitch": 58, "duration": 2, "velocity": 122}, {"time": 3592, "pitch": 39, "duration": 16, "velocity": 100}, {"time": 3592, "pitch": 51, "duration": 14, "velocity": 83}, {"time": 3592, "pitch": 63, "duration": 10, "velocity": 117}, {"time": 3592, "pitch": 67, "duration": 9, "velocity": 100}, {"time": 3592, "pitch": 70, "duration": 10, "velocity": 100}, {"time": 3604, "pitch": 63, "duration": 4, "velocity": 112}, {"time": 3604, "pitch": 67, "duration": 7, "velocity": 127}, {"time": 3604, "pitch": 70, "duration": 13, "velocity": 122}, {"time": 3607, "pitch": 51, "duration": 2, "velocity": 85}, {"time": 3610, "pitch": 63, "duration": 6, "velocity": 122}, {"time": 3616, "pitch": 44, "duration": 22, "velocity": 72}, {"time": 3619, "pitch": 51, "duration": 20, "velocity": 34}, {"time": 3622, "pitch": 56, "duration": 7, "velocity": 93}, {"time": 3625, "pitch": 60, "duration": 4, "velocity": 62}, {"time": 3628, "pitch": 63, "duration": 6, "velocity": 102}, {"time": 3631, "pitch": 56, "duration": 9, "velocity": 89}, {"time": 3634, "pitch": 60, "duration": 31, "velocity": 77}, {"time": 3640, "pitch": 44, "duration": 25, "velocity": 64}, {"time": 3640, "pitch": 51, "duration": 24, "velocity": 65}, {"time": 3640, "pitch": 56, "duration": 24, "velocity": 65}, {"time": 3640, "pitch": 63, "duration": 24, "velocity": 70}, {"time": 3640, "pitch": 68, "duration": 25, "velocity": 75}, {"time": 3664, "pitch": 56, "duration": 1, "velocity": 65}, {"time": 3670, "pitch": 60, "duration": 35, "velocity": 55}, {"time": 3676, "pitch": 63, "duration": 14, "velocity": 78}, {"time": 3682, "pitch": 68, "duration": 10, "velocity": 66}, {"time": 3688, "pitch": 75, "duration": 24, "velocity": 83}, {"time": 3694, "pitch": 63, "duration": 9, "velocity": 64}, {"time": 3700, "pitch": 72, "duration": 26, "velocity": 67}, {"time": 3706, "pitch": 68, "duration": 6, "velocity": 43}, {"time": 3712, "pitch": 55, "duration": 36, "velocity": 61}, {"time": 3718, "pitch": 60, "duration": 31, "velocity": 51}, {"time": 3724, "pitch": 67, "duration": 14, "velocity": 58}, {"time": 3730, "pitch": 72, "duration": 8, "velocity": 60}, {"time": 3736, "pitch": 63, "duration": 7, "velocity": 55}, {"time": 3736, "pitch": 75, "duration": 23, "velocity": 97}, {"time": 3742, "pitch": 72, "duration": 18, "velocity": 61}, {"time": 3748, "pitch": 67, "duration": 12, "velocity": 38}, {"time": 3760, "pitch": 41, "duration": 13, "velocity": 57}, {"time": 3765, "pitch": 48, "duration": 7, "velocity": 55}, {"time": 3771, "pitch": 68, "duration": 13, "velocity": 83}, {"time": 3778, "pitch": 65, "duration": 2, "velocity": 33}, {"time": 3783, "pitch": 37, "duration": 15, "velocity": 73}, {"time": 3797, "pitch": 63, "duration": 35, "velocity": 42}, {"time": 3797, "pitch": 70, "duration": 34, "velocity": 56}, {"time": 3797, "pitch": 67, "duration": 34, "velocity": 63}, {"time": 3798, "pitch": 39, "duration": 29, "velocity": 56}, {"time": 3832, "pitch": 63, "duration": 20, "velocity": 58}, {"time": 3834, "pitch": 60, "duration": 22, "velocity": 53}, {"time": 3836, "pitch": 56, "duration": 12, "velocity": 39}, {"time": 3837, "pitch": 32, "duration": 1, "velocity": 93}, {"time": 3848, "pitch": 44, "duration": 63, "velocity": 62}, {"time": 3851, "pitch": 48, "duration": 62, "velocity": 55}, {"time": 3855, "pitch": 51, "duration": 58, "velocity": 58}, {"time": 3858, "pitch": 56, "duration": 4, "velocity": 72}, {"time": 3860, "pitch": 60, "duration": 3, "velocity": 68}, {"time": 3863, "pitch": 63, "duration": 1, "velocity": 63}, {"time": 3866, "pitch": 68, "duration": 10, "velocity": 89}, {"time": 3870, "pitch": 72, "duration": 6, "velocity": 65}, {"time": 3874, "pitch": 75, "duration": 3, "velocity": 64}, {"time": 3879, "pitch": 80, "duration": 10, "velocity": 74}, {"time": 3884, "pitch": 84, "duration": 6, "velocity": 69}, {"time": 3888, "pitch": 87, "duration": 2, "velocity": 60}, {"time": 3893, "pitch": 92, "duration": 22, "velocity": 90}, {"time": 3898, "pitch": 96, "duration": 16, "velocity": 73}, {"time": 3904, "pitch": 99, "duration": 9, "velocity": 82}, {"time": 3917, "pitch": 99, "duration": 71, "velocity": 38}, {"time": 3918, "pitch": 32, "duration": 64, "velocity": 61}, {"time": 3918, "pitch": 51, "duration": 64, "velocity": 34}, {"time": 3918, "pitch": 44, "duration": 65, "velocity": 35}, {"time": 3919, "pitch": 96, "duration": 69, "velocity": 50}, {"time": 3920, "pitch": 92, "duration": 68, "velocity": 82}], "annotations": [{"time": 160, "annotation": {"number": 64, "value": 127}, "group": "control_change"}, {"time": 206, "annotation": {"number": 64, "value": 0}, "group": "control_change"}, {"time": 209, "annotation": {"number": 64, "value": 127}, "group": "control_change"}, {"time": 254, "annotation": {"number": 64, "value": 0}, "group": "control_change"}, {"time": 256, "annotation": {"number": 64, "value": 127}, "group": "control_change"}, {"time": 301, "annotation": {"number": 64, "value": 0}, "group": "control_change"}, {"time": 304, "annotation": {"number": 64, "value": 127}, "group": "control_change"}, {"time": 348, "annotation": {"number": 64, "value": 0}, "group": "control_change"}, {"time": 352, "annotation": {"number": 64, "value": 127}, "group": "control_change"}, {"time": 396, "annotation": {"number": 64, "value": 0}, "group": "control_change"}, {"time": 399, "annotation": {"number": 64, "value": 127}, "group": "control_change"}, {"time": 446, "annotation": {"number": 64, "value": 0}, "group": "control_change"}, {"time": 448, "annotation": {"number": 64, "value": 127}, "group": "control_change"}, {"time": 734, "annotation": {"number": 64, "value": 0}, "group": "control_change"}, {"time": 736, "annotation": {"number": 64, "value": 127}, "group": "control_change"}, {"time": 782, "annotation": {"number": 64, "value": 0}, "group": "control_change"}, {"time": 783, "annotation": {"number": 64, "value": 127}, "group": "control_change"}, {"time": 853, "annotation": {"number": 64, "value": 0}, "group": "control_change"}, {"time": 856, "annotation": {"number": 64, "value": 127}, "group": "control_change"}, {"time": 877, "annotation": {"number": 64, "value": 0}, "group": "control_change"}, {"time": 879, "annotation": {"number": 64, "value": 127}, "group": "control_change"}, {"time": 926, "annotation": {"number": 64, "value": 0}, "group": "control_change"}, {"time": 928, "annotation": {"number": 64, "value": 127}, "group": "control_change"}, {"time": 1024, "annotation": {"number": 64, "value": 0}, "group": "control_change"}, {"time": 1024, "annotation": {"number": 64, "value": 127}, "group": "control_change"}, {"time": 1066, "annotation": {"number": 64, "value": 0}, "group": "control_change"}, {"time": 1072, "annotation": {"number": 64, "value": 127}, "group": "control_change"}, {"time": 1094, "annotation": {"number": 64, "value": 0}, "group": "control_change"}, {"time": 1119, "annotation": {"number": 64, "value": 127}, "group": "control_change"}, {"time": 1120, "annotation": {"number": 64, "value": 127}, "group": "control_change"}, {"time": 1166, "annotation": {"number": 64, "value": 0}, "group": "control_change"}, {"time": 1168, "annotation": {"number": 64, "value": 127}, "group": "control_change"}, {"time": 1213, "annotation": {"number": 64, "value": 0}, "group": "control_change"}, {"time": 1216, "annotation": {"number": 64, "value": 127}, "group": "control_change"}, {"time": 1260, "annotation": {"number": 64, "value": 0}, "group": "control_change"}, {"time": 1288, "annotation": {"number": 64, "value": 0}, "group": "control_change"}, {"time": 1291, "annotation": {"number": 64, "value": 127}, "group": "control_change"}, {"time": 1310, "annotation": {"number": 64, "value": 0}, "group": "control_change"}, {"time": 1311, "annotation": {"number": 64, "value": 127}, "group": "control_change"}, {"time": 1334, "annotation": {"number": 64, "value": 0}, "group": "control_change"}, {"time": 1335, "annotation": {"number": 64, "value": 127}, "group": "control_change"}, {"time": 1357, "annotation": {"number": 64, "value": 0}, "group": "control_change"}, {"time": 1360, "annotation": {"number": 64, "value": 127}, "group": "control_change"}, {"time": 1382, "annotation": {"number": 64, "value": 0}, "group": "control_change"}, {"time": 1384, "annotation": {"number": 64, "value": 127}, "group": "control_change"}, {"time": 1406, "annotation": {"number": 64, "value": 0}, "group": "control_change"}, {"time": 1408, "annotation": {"number": 64, "value": 127}, "group": "control_change"}, {"time": 1455, "annotation": {"number": 64, "value": 0}, "group": "control_change"}, {"time": 1456, "annotation": {"number": 64, "value": 127}, "group": "control_change"}, {"time": 1478, "annotation": {"number": 64, "value": 0}, "group": "control_change"}, {"time": 1480, "annotation": {"number": 64, "value": 127}, "group": "control_change"}, {"time": 1501, "annotation": {"number": 64, "value": 0}, "group": "control_change"}, {"time": 1504, "annotation": {"number": 64, "value": 127}, "group": "control_change"}, {"time": 1505, "annotation": {"number": 64, "value": 127}, "group": "control_change"}, {"time": 1595, "annotation": {"number": 64, "value": 0}, "group": "control_change"}, {"time": 1600, "annotation": {"number": 64, "value": 127}, "group": "control_change"}, {"time": 1644, "annotation": {"number": 64, "value": 0}, "group": "control_change"}, {"time": 1648, "annotation": {"number": 64, "value": 127}, "group": "control_change"}, {"time": 1670, "annotation": {"number": 64, "value": 0}, "group": "control_change"}, {"time": 1671, "annotation": {"number": 64, "value": 127}, "group": "control_change"}, {"time": 1694, "annotation": {"number": 64, "value": 0}, "group": "control_change"}, {"time": 1696, "annotation": {"number": 64, "value": 127}, "group": "control_change"}, {"time": 1718, "annotation": {"number": 64, "value": 0}, "group": "control_change"}, {"time": 1719, "annotation": {"number": 64, "value": 127}, "group": "control_change"}, {"time": 1740, "annotation": {"number": 64, "value": 0}, "group": "control_change"}, {"time": 1744, "annotation": {"number": 64, "value": 127}, "group": "control_change"}, {"time": 1765, "annotation": {"number": 64, "value": 0}, "group": "control_change"}, {"time": 1768, "annotation": {"number": 64, "value": 127}, "group": "control_change"}, {"time": 1788, "annotation": {"number": 64, "value": 0}, "group": "control_change"}, {"time": 1792, "annotation": {"number": 64, "value": 127}, "group": "control_change"}, {"time": 1814, "annotation": {"number": 64, "value": 0}, "group": "control_change"}, {"time": 1816, "annotation": {"number": 64, "value": 127}, "group": "control_change"}, {"time": 1836, "annotation": {"number": 64, "value": 0}, "group": "control_change"}, {"time": 1840, "annotation": {"number": 64, "value": 127}, "group": "control_change"}, {"time": 1861, "annotation": {"number": 64, "value": 0}, "group": "control_change"}, {"time": 1864, "annotation": {"number": 64, "value": 127}, "group": "control_change"}, {"time": 1884, "annotation": {"number": 64, "value": 0}, "group": "control_change"}, {"time": 1887, "annotation": {"number": 64, "value": 127}, "group": "control_change"}, {"time": 1888, "annotation": {"number": 64, "value": 127}, "group": "control_change"}, {"time": 1979, "annotation": {"number": 64, "value": 0}, "group": "control_change"}, {"time": 1983, "annotation": {"number": 64, "value": 127}, "group": "control_change"}, {"time": 2028, "annotation": {"number": 64, "value": 0}, "group": "control_change"}, {"time": 2031, "annotation": {"number": 64, "value": 127}, "group": "control_change"}, {"time": 2078, "annotation": {"number": 64, "value": 0}, "group": "control_change"}, {"time": 2079, "annotation": {"number": 64, "value": 127}, "group": "control_change"}, {"time": 2080, "annotation": {"number": 64, "value": 127}, "group": "control_change"}, {"time": 2091, "annotation": {"number": 64, "value": 0}, "group": "control_change"}, {"time": 2103, "annotation": {"number": 64, "value": 127}, "group": "control_change"}, {"time": 2114, "annotation": {"number": 64, "value": 0}, "group": "control_change"}, {"time": 2174, "annotation": {"number": 64, "value": 0}, "group": "control_change"}, {"time": 2175, "annotation": {"number": 64, "value": 127}, "group": "control_change"}, {"time": 2245, "annotation": {"number": 64, "value": 0}, "group": "control_change"}, {"time": 2248, "annotation": {"number": 64, "value": 127}, "group": "control_change"}, {"time": 2269, "annotation": {"number": 64, "value": 0}, "group": "control_change"}, {"time": 2271, "annotation": {"number": 64, "value": 127}, "group": "control_change"}, {"time": 2318, "annotation": {"number": 64, "value": 0}, "group": "control_change"}, {"time": 2320, "annotation": {"number": 64, "value": 127}, "group": "control_change"}, {"time": 2416, "annotation": {"number": 64, "value": 0}, "group": "control_change"}, {"time": 2416, "annotation": {"number": 64, "value": 127}, "group": "control_change"}, {"time": 2458, "annotation": {"number": 64, "value": 0}, "group": "control_change"}, {"time": 2464, "annotation": {"number": 64, "value": 127}, "group": "control_change"}, {"time": 2486, "annotation": {"number": 64, "value": 0}, "group": "control_change"}, {"time": 2511, "annotation": {"number": 64, "value": 127}, "group": "control_change"}, {"time": 2534, "annotation": {"number": 64, "value": 0}, "group": "control_change"}, {"time": 2535, "annotation": {"number": 64, "value": 127}, "group": "control_change"}, {"time": 2558, "annotation": {"number": 64, "value": 0}, "group": "control_change"}, {"time": 2560, "annotation": {"number": 64, "value": 127}, "group": "control_change"}, {"time": 2582, "annotation": {"number": 64, "value": 0}, "group": "control_change"}, {"time": 2583, "annotation": {"number": 64, "value": 127}, "group": "control_change"}, {"time": 2606, "annotation": {"number": 64, "value": 0}, "group": "control_change"}, {"time": 2608, "annotation": {"number": 64, "value": 127}, "group": "control_change"}, {"time": 2635, "annotation": {"number": 64, "value": 0}, "group": "control_change"}, {"time": 2638, "annotation": {"number": 64, "value": 127}, "group": "control_change"}, {"time": 2654, "annotation": {"number": 64, "value": 0}, "group": "control_change"}, {"time": 2656, "annotation": {"number": 64, "value": 127}, "group": "control_change"}, {"time": 2680, "annotation": {"number": 64, "value": 0}, "group": "control_change"}, {"time": 2683, "annotation": {"number": 64, "value": 127}, "group": "control_change"}, {"time": 2702, "annotation": {"number": 64, "value": 0}, "group": "control_change"}, {"time": 2703, "annotation": {"number": 64, "value": 127}, "group": "control_change"}, {"time": 2726, "annotation": {"number": 64, "value": 0}, "group": "control_change"}, {"time": 2727, "annotation": {"number": 64, "value": 127}, "group": "control_change"}, {"time": 2749, "annotation": {"number": 64, "value": 0}, "group": "control_change"}, {"time": 2752, "annotation": {"number": 64, "value": 127}, "group": "control_change"}, {"time": 2774, "annotation": {"number": 64, "value": 0}, "group": "control_change"}, {"time": 2776, "annotation": {"number": 64, "value": 127}, "group": "control_change"}, {"time": 2798, "annotation": {"number": 64, "value": 0}, "group": "control_change"}, {"time": 2800, "annotation": {"number": 64, "value": 127}, "group": "control_change"}, {"time": 2847, "annotation": {"number": 64, "value": 0}, "group": "control_change"}, {"time": 2848, "annotation": {"number": 64, "value": 127}, "group": "control_change"}, {"time": 2870, "annotation": {"number": 64, "value": 0}, "group": "control_change"}, {"time": 2872, "annotation": {"number": 64, "value": 127}, "group": "control_change"}, {"time": 2893, "annotation": {"number": 64, "value": 0}, "group": "control_change"}, {"time": 2896, "annotation": {"number": 64, "value": 127}, "group": "control_change"}, {"time": 2917, "annotation": {"number": 64, "value": 0}, "group": "control_change"}, {"time": 2920, "annotation": {"number": 64, "value": 127}, "group": "control_change"}, {"time": 2942, "annotation": {"number": 64, "value": 0}, "group": "control_change"}, {"time": 2943, "annotation": {"number": 64, "value": 127}, "group": "control_change"}, {"time": 2966, "annotation": {"number": 64, "value": 0}, "group": "control_change"}, {"time": 2968, "annotation": {"number": 64, "value": 127}, "group": "control_change"}, {"time": 2990, "annotation": {"number": 64, "value": 0}, "group": "control_change"}, {"time": 2992, "annotation": {"number": 64, "value": 127}, "group": "control_change"}, {"time": 3014, "annotation": {"number": 64, "value": 0}, "group": "control_change"}, {"time": 3015, "annotation": {"number": 64, "value": 127}, "group": "control_change"}, {"time": 3038, "annotation": {"number": 64, "value": 0}, "group": "control_change"}, {"time": 3040, "annotation": {"number": 64, "value": 127}, "group": "control_change"}, {"time": 3062, "annotation": {"number": 64, "value": 0}, "group": "control_change"}, {"time": 3063, "annotation": {"number": 64, "value": 127}, "group": "control_change"}, {"time": 3086, "annotation": {"number": 64, "value": 0}, "group": "control_change"}, {"time": 3088, "annotation": {"number": 64, "value": 127}, "group": "control_change"}, {"time": 3110, "annotation": {"number": 64, "value": 0}, "group": "control_change"}, {"time": 3111, "annotation": {"number": 64, "value": 127}, "group": "control_change"}, {"time": 3132, "annotation": {"number": 64, "value": 0}, "group": "control_change"}, {"time": 3136, "annotation": {"number": 64, "value": 127}, "group": "control_change"}, {"time": 3157, "annotation": {"number": 64, "value": 0}, "group": "control_change"}, {"time": 3160, "annotation": {"number": 64, "value": 127}, "group": "control_change"}, {"time": 3180, "annotation": {"number": 64, "value": 0}, "group": "control_change"}, {"time": 3184, "annotation": {"number": 64, "value": 127}, "group": "control_change"}, {"time": 3206, "annotation": {"number": 64, "value": 0}, "group": "control_change"}, {"time": 3208, "annotation": {"number": 64, "value": 127}, "group": "control_change"}, {"time": 3228, "annotation": {"number": 64, "value": 0}, "group": "control_change"}, {"time": 3232, "annotation": {"number": 64, "value": 127}, "group": "control_change"}, {"time": 3253, "annotation": {"number": 64, "value": 0}, "group": "control_change"}, {"time": 3256, "annotation": {"number": 64, "value": 127}, "group": "control_change"}, {"time": 3276, "annotation": {"number": 64, "value": 0}, "group": "control_change"}, {"time": 3279, "annotation": {"number": 64, "value": 127}, "group": "control_change"}, {"time": 3280, "annotation": {"number": 64, "value": 127}, "group": "control_change"}, {"time": 3374, "annotation": {"number": 64, "value": 0}, "group": "control_change"}, {"time": 3376, "annotation": {"number": 64, "value": 127}, "group": "control_change"}, {"time": 3423, "annotation": {"number": 64, "value": 127}, "group": "control_change"}, {"time": 3469, "annotation": {"number": 64, "value": 0}, "group": "control_change"}, {"time": 3471, "annotation": {"number": 64, "value": 127}, "group": "control_change"}, {"time": 3493, "annotation": {"number": 64, "value": 0}, "group": "control_change"}, {"time": 3495, "annotation": {"number": 64, "value": 127}, "group": "control_change"}, {"time": 3517, "annotation": {"number": 64, "value": 0}, "group": "control_change"}, {"time": 3520, "annotation": {"number": 64, "value": 127}, "group": "control_change"}, {"time": 3541, "annotation": {"number": 64, "value": 0}, "group": "control_change"}, {"time": 3544, "annotation": {"number": 64, "value": 127}, "group": "control_change"}, {"time": 3565, "annotation": {"number": 64, "value": 0}, "group": "control_change"}, {"time": 3568, "annotation": {"number": 64, "value": 127}, "group": "control_change"}, {"time": 3592, "annotation": {"number": 64, "value": 0}, "group": "control_change"}, {"time": 3594, "annotation": {"number": 64, "value": 127}, "group": "control_change"}, {"time": 3612, "annotation": {"number": 64, "value": 0}, "group": "control_change"}, {"time": 3615, "annotation": {"number": 64, "value": 127}, "group": "control_change"}, {"time": 3639, "annotation": {"number": 64, "value": 0}, "group": "control_change"}, {"time": 3652, "annotation": {"number": 64, "value": 127}, "group": "control_change"}, {"time": 3659, "annotation": {"number": 64, "value": 0}, "group": "control_change"}, {"time": 3664, "annotation": {"number": 64, "value": 127}, "group": "control_change"}, {"time": 3756, "annotation": {"number": 64, "value": 0}, "group": "control_change"}, {"time": 3760, "annotation": {"number": 64, "value": 127}, "group": "control_change"}, {"time": 3781, "annotation": {"number": 64, "value": 0}, "group": "control_change"}, {"time": 3786, "annotation": {"number": 64, "value": 127}, "group": "control_change"}, {"time": 3791, "annotation": {"number": 64, "value": 0}, "group": "control_change"}, {"time": 3800, "annotation": {"number": 64, "value": 127}, "group": "control_change"}, {"time": 3837, "annotation": {"number": 64, "value": 127}, "group": "control_change"}, {"time": 4000, "annotation": {"number": 64, "value": 0}, "group": "control_change"}, {"time": 4001, "annotation": {"number": 64, "value": 127}, "group": "control_change"}, {"time": 4002, "annotation": {"number": 64, "value": 0}, "group": "control_change"}, {"time": 4003, "annotation": {"number": 64, "value": 127}, "group": "control_change"}, {"time": 4006, "annotation": {"number": 64, "value": 0}, "group": "control_change"}]}]}