{"metadata": {"schema_version": "0.2", "title": "None", "source_filename": "462.mid", "source_format": "midi"}, "resolution": 12, "tempos": [{"time": 0, "qpm": 46.99999060000188}, {"time": 228, "qpm": 55.00000458333371}, {"time": 264, "qpm": 46.99999060000188}, {"time": 636, "qpm": 36.00001440000576}, {"time": 648, "qpm": 46.99999060000188}, {"time": 852, "qpm": 34.0000170000085}, {"time": 864, "qpm": 46.99999060000188}, {"time": 2268, "qpm": 40.0}, {"time": 2280, "qpm": 46.99999060000188}, {"time": 2412, "qpm": 40.0}, {"time": 2424, "qpm": 46.99999060000188}], "time_signatures": [{"time": 0, "numerator": 1, "denominator": 4}], "tracks": [{"program": 0, "is_drum": false, "name": "MELODY", "notes": [{"time": 256, "pitch": 62, "duration": 2, "velocity": 79}, {"time": 258, "pitch": 62, "duration": 2, "velocity": 66}, {"time": 262, "pitch": 62, "duration": 2, "velocity": 67}, {"time": 264, "pitch": 62, "duration": 3, "velocity": 85}, {"time": 268, "pitch": 62, "duration": 2, "velocity": 95}, {"time": 270, "pitch": 61, "duration": 3, "velocity": 92}, {"time": 274, "pitch": 59, "duration": 1, "velocity": 71}, {"time": 276, "pitch": 57, "duration": 13, "velocity": 61}, {"time": 288, "pitch": 62, "duration": 2, "velocity": 76}, {"time": 292, "pitch": 62, "duration": 1, "velocity": 88}, {"time": 294, "pitch": 61, "duration": 2, "velocity": 107}, {"time": 298, "pitch": 59, "duration": 2, "velocity": 88}, {"time": 300, "pitch": 57, "duration": 4, "velocity": 85}, {"time": 304, "pitch": 62, "duration": 1, "velocity": 92}, {"time": 306, "pitch": 62, "duration": 2, "velocity": 81}, {"time": 310, "pitch": 62, "duration": 1, "velocity": 75}, {"time": 312, "pitch": 62, "duration": 3, "velocity": 90}, {"time": 316, "pitch": 62, "duration": 1, "velocity": 81}, {"time": 318, "pitch": 64, "duration": 3, "velocity": 77}, {"time": 322, "pitch": 66, "duration": 1, "velocity": 96}, {"time": 324, "pitch": 66, "duration": 18, "velocity": 90}, {"time": 354, "pitch": 66, "duration": 2, "velocity": 76}, {"time": 358, "pitch": 66, "duration": 1, "velocity": 82}, {"time": 360, "pitch": 67, "duration": 3, "velocity": 83}, {"time": 364, "pitch": 66, "duration": 1, "velocity": 99}, {"time": 366, "pitch": 62, "duration": 2, "velocity": 79}, {"time": 370, "pitch": 64, "duration": 6, "velocity": 78}, {"time": 378, "pitch": 64, "duration": 2, "velocity": 78}, {"time": 382, "pitch": 64, "duration": 1, "velocity": 83}, {"time": 384, "pitch": 66, "duration": 2, "velocity": 99}, {"time": 388, "pitch": 64, "duration": 2, "velocity": 92}, {"time": 390, "pitch": 62, "duration": 2, "velocity": 78}, {"time": 394, "pitch": 62, "duration": 5, "velocity": 82}, {"time": 402, "pitch": 67, "duration": 2, "velocity": 86}, {"time": 406, "pitch": 67, "duration": 2, "velocity": 77}, {"time": 408, "pitch": 69, "duration": 2, "velocity": 71}, {"time": 412, "pitch": 66, "duration": 2, "velocity": 93}, {"time": 414, "pitch": 62, "duration": 2, "velocity": 75}, {"time": 418, "pitch": 66, "duration": 1, "velocity": 96}, {"time": 424, "pitch": 64, "duration": 22, "velocity": 78}, {"time": 448, "pitch": 62, "duration": 1, "velocity": 83}, {"time": 450, "pitch": 62, "duration": 2, "velocity": 85}, {"time": 454, "pitch": 62, "duration": 1, "velocity": 78}, {"time": 456, "pitch": 62, "duration": 2, "velocity": 81}, {"time": 460, "pitch": 62, "duration": 1, "velocity": 92}, {"time": 462, "pitch": 61, "duration": 2, "velocity": 99}, {"time": 466, "pitch": 59, "duration": 1, "velocity": 79}, {"time": 468, "pitch": 57, "duration": 12, "velocity": 85}, {"time": 480, "pitch": 62, "duration": 2, "velocity": 86}, {"time": 484, "pitch": 62, "duration": 2, "velocity": 93}, {"time": 486, "pitch": 61, "duration": 2, "velocity": 95}, {"time": 490, "pitch": 59, "duration": 1, "velocity": 79}, {"time": 492, "pitch": 57, "duration": 3, "velocity": 89}, {"time": 496, "pitch": 62, "duration": 1, "velocity": 96}, {"time": 498, "pitch": 62, "duration": 2, "velocity": 92}, {"time": 502, "pitch": 62, "duration": 1, "velocity": 93}, {"time": 504, "pitch": 62, "duration": 2, "velocity": 88}, {"time": 508, "pitch": 62, "duration": 1, "velocity": 99}, {"time": 510, "pitch": 64, "duration": 3, "velocity": 92}, {"time": 514, "pitch": 66, "duration": 1, "velocity": 93}, {"time": 516, "pitch": 66, "duration": 19, "velocity": 89}, {"time": 546, "pitch": 66, "duration": 2, "velocity": 100}, {"time": 550, "pitch": 66, "duration": 1, "velocity": 96}, {"time": 552, "pitch": 67, "duration": 3, "velocity": 96}, {"time": 556, "pitch": 66, "duration": 2, "velocity": 107}, {"time": 558, "pitch": 62, "duration": 3, "velocity": 92}, {"time": 562, "pitch": 64, "duration": 6, "velocity": 90}, {"time": 570, "pitch": 64, "duration": 2, "velocity": 95}, {"time": 574, "pitch": 64, "duration": 1, "velocity": 92}, {"time": 576, "pitch": 66, "duration": 3, "velocity": 112}, {"time": 580, "pitch": 64, "duration": 2, "velocity": 96}, {"time": 582, "pitch": 62, "duration": 3, "velocity": 89}, {"time": 586, "pitch": 62, "duration": 5, "velocity": 99}, {"time": 594, "pitch": 67, "duration": 2, "velocity": 100}, {"time": 598, "pitch": 67, "duration": 1, "velocity": 83}, {"time": 600, "pitch": 66, "duration": 2, "velocity": 99}, {"time": 604, "pitch": 64, "duration": 2, "velocity": 90}, {"time": 606, "pitch": 62, "duration": 2, "velocity": 95}, {"time": 610, "pitch": 61, "duration": 1, "velocity": 95}, {"time": 612, "pitch": 64, "duration": 7, "velocity": 95}, {"time": 618, "pitch": 62, "duration": 15, "velocity": 88}, {"time": 636, "pitch": 61, "duration": 3, "velocity": 100}, {"time": 640, "pitch": 59, "duration": 2, "velocity": 82}, {"time": 642, "pitch": 61, "duration": 4, "velocity": 95}, {"time": 646, "pitch": 62, "duration": 1, "velocity": 99}, {"time": 648, "pitch": 69, "duration": 3, "velocity": 107}, {"time": 652, "pitch": 69, "duration": 5, "velocity": 127}, {"time": 660, "pitch": 61, "duration": 3, "velocity": 127}, {"time": 664, "pitch": 59, "duration": 3, "velocity": 100}, {"time": 666, "pitch": 61, "duration": 3, "velocity": 112}, {"time": 670, "pitch": 62, "duration": 1, "velocity": 100}, {"time": 672, "pitch": 69, "duration": 3, "velocity": 79}, {"time": 676, "pitch": 69, "duration": 3, "velocity": 127}, {"time": 678, "pitch": 62, "duration": 4, "velocity": 92}, {"time": 682, "pitch": 64, "duration": 3, "velocity": 89}, {"time": 684, "pitch": 62, "duration": 8, "velocity": 88}, {"time": 694, "pitch": 59, "duration": 1, "velocity": 102}, {"time": 696, "pitch": 59, "duration": 2, "velocity": 90}, {"time": 700, "pitch": 59, "duration": 2, "velocity": 122}, {"time": 702, "pitch": 57, "duration": 2, "velocity": 90}, {"time": 706, "pitch": 57, "duration": 2, "velocity": 107}, {"time": 708, "pitch": 55, "duration": 3, "velocity": 85}, {"time": 712, "pitch": 57, "duration": 5, "velocity": 112}, {"time": 718, "pitch": 62, "duration": 2, "velocity": 107}, {"time": 720, "pitch": 64, "duration": 4, "velocity": 102}, {"time": 730, "pitch": 66, "duration": 1, "velocity": 112}, {"time": 732, "pitch": 66, "duration": 8, "velocity": 127}, {"time": 742, "pitch": 59, "duration": 2, "velocity": 92}, {"time": 744, "pitch": 61, "duration": 3, "velocity": 96}, {"time": 748, "pitch": 62, "duration": 2, "velocity": 96}, {"time": 750, "pitch": 69, "duration": 2, "velocity": 99}, {"time": 754, "pitch": 69, "duration": 6, "velocity": 122}, {"time": 766, "pitch": 59, "duration": 2, "velocity": 96}, {"time": 768, "pitch": 61, "duration": 3, "velocity": 122}, {"time": 772, "pitch": 62, "duration": 2, "velocity": 122}, {"time": 774, "pitch": 69, "duration": 3, "velocity": 97}, {"time": 778, "pitch": 69, "duration": 2, "velocity": 112}, {"time": 780, "pitch": 62, "duration": 3, "velocity": 95}, {"time": 784, "pitch": 66, "duration": 1, "velocity": 127}, {"time": 786, "pitch": 66, "duration": 2, "velocity": 107}, {"time": 790, "pitch": 66, "duration": 1, "velocity": 112}, {"time": 792, "pitch": 66, "duration": 2, "velocity": 127}, {"time": 796, "pitch": 66, "duration": 2, "velocity": 117}, {"time": 798, "pitch": 64, "duration": 3, "velocity": 97}, {"time": 802, "pitch": 64, "duration": 2, "velocity": 90}, {"time": 804, "pitch": 66, "duration": 4, "velocity": 112}, {"time": 808, "pitch": 67, "duration": 13, "velocity": 100}, {"time": 822, "pitch": 66, "duration": 3, "velocity": 99}, {"time": 826, "pitch": 66, "duration": 2, "velocity": 107}, {"time": 828, "pitch": 64, "duration": 15, "velocity": 95}, {"time": 852, "pitch": 66, "duration": 3, "velocity": 117}, {"time": 856, "pitch": 66, "duration": 4, "velocity": 127}, {"time": 862, "pitch": 71, "duration": 2, "velocity": 122}, {"time": 864, "pitch": 66, "duration": 4, "velocity": 127}, {"time": 874, "pitch": 64, "duration": 2, "velocity": 127}, {"time": 876, "pitch": 62, "duration": 2, "velocity": 99}, {"time": 880, "pitch": 61, "duration": 4, "velocity": 127}, {"time": 886, "pitch": 61, "duration": 1, "velocity": 122}, {"time": 888, "pitch": 62, "duration": 5, "velocity": 117}, {"time": 894, "pitch": 64, "duration": 5, "velocity": 112}, {"time": 900, "pitch": 64, "duration": 2, "velocity": 79}, {"time": 904, "pitch": 64, "duration": 4, "velocity": 117}, {"time": 910, "pitch": 69, "duration": 2, "velocity": 112}, {"time": 912, "pitch": 64, "duration": 7, "velocity": 117}, {"time": 922, "pitch": 62, "duration": 2, "velocity": 112}, {"time": 924, "pitch": 61, "duration": 3, "velocity": 112}, {"time": 928, "pitch": 64, "duration": 4, "velocity": 117}, {"time": 934, "pitch": 62, "duration": 2, "velocity": 99}, {"time": 936, "pitch": 62, "duration": 10, "velocity": 100}, {"time": 948, "pitch": 66, "duration": 3, "velocity": 112}, {"time": 952, "pitch": 66, "duration": 4, "velocity": 127}, {"time": 958, "pitch": 71, "duration": 3, "velocity": 127}, {"time": 960, "pitch": 66, "duration": 6, "velocity": 117}, {"time": 970, "pitch": 64, "duration": 2, "velocity": 102}, {"time": 972, "pitch": 62, "duration": 3, "velocity": 71}, {"time": 976, "pitch": 61, "duration": 5, "velocity": 107}, {"time": 982, "pitch": 62, "duration": 1, "velocity": 95}, {"time": 984, "pitch": 64, "duration": 5, "velocity": 97}, {"time": 990, "pitch": 57, "duration": 4, "velocity": 107}, {"time": 996, "pitch": 57, "duration": 3, "velocity": 102}, {"time": 1000, "pitch": 67, "duration": 4, "velocity": 127}, {"time": 1006, "pitch": 66, "duration": 1, "velocity": 102}, {"time": 1008, "pitch": 66, "duration": 14, "velocity": 117}, {"time": 1032, "pitch": 66, "duration": 2, "velocity": 112}, {"time": 1036, "pitch": 67, "duration": 2, "velocity": 100}, {"time": 1038, "pitch": 66, "duration": 2, "velocity": 107}, {"time": 1042, "pitch": 64, "duration": 1, "velocity": 117}, {"time": 1044, "pitch": 62, "duration": 2, "velocity": 96}, {"time": 1048, "pitch": 64, "duration": 4, "velocity": 127}, {"time": 1054, "pitch": 71, "duration": 2, "velocity": 112}, {"time": 1056, "pitch": 66, "duration": 6, "velocity": 117}, {"time": 1066, "pitch": 64, "duration": 2, "velocity": 107}, {"time": 1068, "pitch": 62, "duration": 2, "velocity": 95}, {"time": 1072, "pitch": 61, "duration": 4, "velocity": 117}, {"time": 1078, "pitch": 61, "duration": 2, "velocity": 107}, {"time": 1080, "pitch": 62, "duration": 6, "velocity": 112}, {"time": 1086, "pitch": 64, "duration": 5, "velocity": 117}, {"time": 1092, "pitch": 64, "duration": 2, "velocity": 127}, {"time": 1096, "pitch": 64, "duration": 4, "velocity": 102}, {"time": 1102, "pitch": 69, "duration": 2, "velocity": 97}, {"time": 1104, "pitch": 64, "duration": 6, "velocity": 102}, {"time": 1114, "pitch": 62, "duration": 1, "velocity": 127}, {"time": 1116, "pitch": 61, "duration": 2, "velocity": 112}, {"time": 1120, "pitch": 64, "duration": 4, "velocity": 107}, {"time": 1126, "pitch": 62, "duration": 1, "velocity": 107}, {"time": 1128, "pitch": 62, "duration": 6, "velocity": 127}, {"time": 1140, "pitch": 66, "duration": 2, "velocity": 107}, {"time": 1144, "pitch": 67, "duration": 2, "velocity": 112}, {"time": 1146, "pitch": 66, "duration": 3, "velocity": 117}, {"time": 1150, "pitch": 62, "duration": 3, "velocity": 107}, {"time": 1158, "pitch": 57, "duration": 3, "velocity": 95}, {"time": 1162, "pitch": 62, "duration": 2, "velocity": 100}, {"time": 1164, "pitch": 69, "duration": 3, "velocity": 96}, {"time": 1168, "pitch": 64, "duration": 8, "velocity": 99}, {"time": 1176, "pitch": 66, "duration": 4, "velocity": 122}, {"time": 1182, "pitch": 62, "duration": 3, "velocity": 92}, {"time": 1186, "pitch": 61, "duration": 1, "velocity": 99}, {"time": 1188, "pitch": 64, "duration": 5, "velocity": 102}, {"time": 1194, "pitch": 62, "duration": 22, "velocity": 117}, {"time": 1284, "pitch": 61, "duration": 3, "velocity": 100}, {"time": 1288, "pitch": 59, "duration": 2, "velocity": 82}, {"time": 1290, "pitch": 61, "duration": 4, "velocity": 95}, {"time": 1294, "pitch": 62, "duration": 1, "velocity": 99}, {"time": 1296, "pitch": 69, "duration": 3, "velocity": 107}, {"time": 1300, "pitch": 69, "duration": 5, "velocity": 127}, {"time": 1308, "pitch": 61, "duration": 3, "velocity": 127}, {"time": 1312, "pitch": 59, "duration": 3, "velocity": 100}, {"time": 1314, "pitch": 61, "duration": 3, "velocity": 112}, {"time": 1318, "pitch": 62, "duration": 1, "velocity": 100}, {"time": 1320, "pitch": 69, "duration": 3, "velocity": 79}, {"time": 1324, "pitch": 69, "duration": 3, "velocity": 127}, {"time": 1326, "pitch": 62, "duration": 4, "velocity": 92}, {"time": 1330, "pitch": 64, "duration": 3, "velocity": 89}, {"time": 1332, "pitch": 62, "duration": 8, "velocity": 88}, {"time": 1342, "pitch": 59, "duration": 1, "velocity": 102}, {"time": 1344, "pitch": 59, "duration": 2, "velocity": 90}, {"time": 1348, "pitch": 59, "duration": 2, "velocity": 122}, {"time": 1350, "pitch": 57, "duration": 2, "velocity": 90}, {"time": 1354, "pitch": 57, "duration": 2, "velocity": 107}, {"time": 1356, "pitch": 55, "duration": 3, "velocity": 85}, {"time": 1360, "pitch": 57, "duration": 5, "velocity": 112}, {"time": 1366, "pitch": 62, "duration": 2, "velocity": 107}, {"time": 1368, "pitch": 64, "duration": 4, "velocity": 102}, {"time": 1378, "pitch": 66, "duration": 1, "velocity": 112}, {"time": 1380, "pitch": 66, "duration": 8, "velocity": 127}, {"time": 1390, "pitch": 59, "duration": 2, "velocity": 92}, {"time": 1392, "pitch": 61, "duration": 3, "velocity": 96}, {"time": 1396, "pitch": 62, "duration": 2, "velocity": 96}, {"time": 1398, "pitch": 69, "duration": 2, "velocity": 99}, {"time": 1402, "pitch": 69, "duration": 6, "velocity": 122}, {"time": 1414, "pitch": 59, "duration": 2, "velocity": 96}, {"time": 1416, "pitch": 61, "duration": 3, "velocity": 122}, {"time": 1420, "pitch": 62, "duration": 2, "velocity": 122}, {"time": 1422, "pitch": 69, "duration": 3, "velocity": 97}, {"time": 1426, "pitch": 69, "duration": 2, "velocity": 112}, {"time": 1428, "pitch": 62, "duration": 3, "velocity": 95}, {"time": 1432, "pitch": 66, "duration": 1, "velocity": 127}, {"time": 1434, "pitch": 66, "duration": 2, "velocity": 107}, {"time": 1438, "pitch": 66, "duration": 1, "velocity": 112}, {"time": 1440, "pitch": 66, "duration": 2, "velocity": 127}, {"time": 1444, "pitch": 66, "duration": 2, "velocity": 117}, {"time": 1446, "pitch": 64, "duration": 3, "velocity": 97}, {"time": 1450, "pitch": 64, "duration": 2, "velocity": 90}, {"time": 1452, "pitch": 66, "duration": 4, "velocity": 112}, {"time": 1456, "pitch": 67, "duration": 13, "velocity": 100}, {"time": 1470, "pitch": 66, "duration": 3, "velocity": 99}, {"time": 1474, "pitch": 66, "duration": 2, "velocity": 107}, {"time": 1476, "pitch": 64, "duration": 15, "velocity": 95}, {"time": 1500, "pitch": 66, "duration": 3, "velocity": 117}, {"time": 1504, "pitch": 66, "duration": 4, "velocity": 127}, {"time": 1510, "pitch": 71, "duration": 2, "velocity": 122}, {"time": 1512, "pitch": 66, "duration": 4, "velocity": 127}, {"time": 1522, "pitch": 64, "duration": 2, "velocity": 127}, {"time": 1524, "pitch": 62, "duration": 2, "velocity": 99}, {"time": 1528, "pitch": 61, "duration": 4, "velocity": 127}, {"time": 1534, "pitch": 61, "duration": 1, "velocity": 122}, {"time": 1536, "pitch": 62, "duration": 5, "velocity": 117}, {"time": 1542, "pitch": 64, "duration": 5, "velocity": 112}, {"time": 1548, "pitch": 64, "duration": 2, "velocity": 79}, {"time": 1552, "pitch": 64, "duration": 4, "velocity": 117}, {"time": 1558, "pitch": 69, "duration": 2, "velocity": 112}, {"time": 1560, "pitch": 64, "duration": 7, "velocity": 117}, {"time": 1570, "pitch": 62, "duration": 2, "velocity": 112}, {"time": 1572, "pitch": 61, "duration": 3, "velocity": 112}, {"time": 1576, "pitch": 64, "duration": 4, "velocity": 117}, {"time": 1582, "pitch": 62, "duration": 2, "velocity": 99}, {"time": 1584, "pitch": 62, "duration": 10, "velocity": 100}, {"time": 1596, "pitch": 66, "duration": 3, "velocity": 112}, {"time": 1600, "pitch": 66, "duration": 4, "velocity": 127}, {"time": 1606, "pitch": 71, "duration": 3, "velocity": 127}, {"time": 1608, "pitch": 66, "duration": 6, "velocity": 117}, {"time": 1618, "pitch": 64, "duration": 2, "velocity": 102}, {"time": 1620, "pitch": 62, "duration": 3, "velocity": 71}, {"time": 1624, "pitch": 61, "duration": 5, "velocity": 107}, {"time": 1630, "pitch": 62, "duration": 1, "velocity": 95}, {"time": 1632, "pitch": 64, "duration": 5, "velocity": 97}, {"time": 1638, "pitch": 57, "duration": 4, "velocity": 107}, {"time": 1644, "pitch": 57, "duration": 3, "velocity": 102}, {"time": 1648, "pitch": 67, "duration": 4, "velocity": 127}, {"time": 1654, "pitch": 66, "duration": 1, "velocity": 102}, {"time": 1656, "pitch": 66, "duration": 14, "velocity": 117}, {"time": 1680, "pitch": 66, "duration": 2, "velocity": 112}, {"time": 1684, "pitch": 67, "duration": 2, "velocity": 100}, {"time": 1686, "pitch": 66, "duration": 2, "velocity": 107}, {"time": 1690, "pitch": 64, "duration": 1, "velocity": 117}, {"time": 1692, "pitch": 62, "duration": 2, "velocity": 96}, {"time": 1696, "pitch": 64, "duration": 4, "velocity": 127}, {"time": 1702, "pitch": 71, "duration": 2, "velocity": 112}, {"time": 1704, "pitch": 66, "duration": 6, "velocity": 117}, {"time": 1714, "pitch": 64, "duration": 2, "velocity": 107}, {"time": 1716, "pitch": 62, "duration": 2, "velocity": 95}, {"time": 1720, "pitch": 61, "duration": 4, "velocity": 117}, {"time": 1726, "pitch": 61, "duration": 2, "velocity": 107}, {"time": 1728, "pitch": 62, "duration": 6, "velocity": 112}, {"time": 1734, "pitch": 64, "duration": 5, "velocity": 117}, {"time": 1740, "pitch": 64, "duration": 2, "velocity": 127}, {"time": 1744, "pitch": 64, "duration": 4, "velocity": 102}, {"time": 1750, "pitch": 69, "duration": 2, "velocity": 97}, {"time": 1752, "pitch": 64, "duration": 6, "velocity": 102}, {"time": 1762, "pitch": 62, "duration": 1, "velocity": 127}, {"time": 1764, "pitch": 61, "duration": 2, "velocity": 112}, {"time": 1768, "pitch": 64, "duration": 4, "velocity": 107}, {"time": 1774, "pitch": 62, "duration": 1, "velocity": 107}, {"time": 1776, "pitch": 62, "duration": 6, "velocity": 127}, {"time": 1788, "pitch": 66, "duration": 2, "velocity": 107}, {"time": 1792, "pitch": 67, "duration": 2, "velocity": 112}, {"time": 1794, "pitch": 66, "duration": 3, "velocity": 117}, {"time": 1798, "pitch": 62, "duration": 3, "velocity": 107}, {"time": 1806, "pitch": 57, "duration": 3, "velocity": 95}, {"time": 1810, "pitch": 62, "duration": 2, "velocity": 100}, {"time": 1812, "pitch": 69, "duration": 3, "velocity": 96}, {"time": 1816, "pitch": 64, "duration": 8, "velocity": 99}, {"time": 1824, "pitch": 66, "duration": 4, "velocity": 122}, {"time": 1830, "pitch": 62, "duration": 3, "velocity": 92}, {"time": 1834, "pitch": 61, "duration": 1, "velocity": 99}, {"time": 1836, "pitch": 64, "duration": 5, "velocity": 102}, {"time": 1842, "pitch": 62, "duration": 22, "velocity": 117}, {"time": 1878, "pitch": 66, "duration": 3, "velocity": 127}, {"time": 1882, "pitch": 64, "duration": 2, "velocity": 95}, {"time": 1884, "pitch": 62, "duration": 4, "velocity": 97}, {"time": 1894, "pitch": 59, "duration": 1, "velocity": 100}, {"time": 1896, "pitch": 59, "duration": 2, "velocity": 100}, {"time": 1900, "pitch": 59, "duration": 1, "velocity": 93}, {"time": 1902, "pitch": 66, "duration": 5, "velocity": 127}, {"time": 1908, "pitch": 64, "duration": 2, "velocity": 122}, {"time": 1910, "pitch": 62, "duration": 1, "velocity": 102}, {"time": 1912, "pitch": 64, "duration": 5, "velocity": 122}, {"time": 1918, "pitch": 61, "duration": 1, "velocity": 112}, {"time": 1920, "pitch": 61, "duration": 2, "velocity": 107}, {"time": 1924, "pitch": 61, "duration": 1, "velocity": 107}, {"time": 1926, "pitch": 67, "duration": 5, "velocity": 127}, {"time": 1932, "pitch": 66, "duration": 2, "velocity": 127}, {"time": 1934, "pitch": 64, "duration": 1, "velocity": 96}, {"time": 1936, "pitch": 66, "duration": 7, "velocity": 127}, {"time": 1950, "pitch": 66, "duration": 5, "velocity": 127}, {"time": 1956, "pitch": 64, "duration": 2, "velocity": 122}, {"time": 1960, "pitch": 62, "duration": 4, "velocity": 117}, {"time": 1966, "pitch": 64, "duration": 4, "velocity": 127}, {"time": 1972, "pitch": 66, "duration": 4, "velocity": 127}, {"time": 1978, "pitch": 69, "duration": 6, "velocity": 127}, {"time": 1990, "pitch": 62, "duration": 1, "velocity": 112}, {"time": 1992, "pitch": 62, "duration": 2, "velocity": 102}, {"time": 1996, "pitch": 62, "duration": 1, "velocity": 117}, {"time": 1998, "pitch": 57, "duration": 3, "velocity": 112}, {"time": 2002, "pitch": 66, "duration": 2, "velocity": 127}, {"time": 2004, "pitch": 64, "duration": 2, "velocity": 100}, {"time": 2008, "pitch": 66, "duration": 4, "velocity": 127}, {"time": 2014, "pitch": 67, "duration": 1, "velocity": 127}, {"time": 2016, "pitch": 66, "duration": 4, "velocity": 127}, {"time": 2022, "pitch": 66, "duration": 2, "velocity": 117}, {"time": 2026, "pitch": 67, "duration": 3, "velocity": 127}, {"time": 2028, "pitch": 66, "duration": 15, "velocity": 127}, {"time": 2050, "pitch": 67, "duration": 2, "velocity": 127}, {"time": 2052, "pitch": 69, "duration": 4, "velocity": 112}, {"time": 2058, "pitch": 64, "duration": 10, "velocity": 112}, {"time": 2076, "pitch": 66, "duration": 3, "velocity": 127}, {"time": 2080, "pitch": 66, "duration": 4, "velocity": 127}, {"time": 2086, "pitch": 71, "duration": 2, "velocity": 122}, {"time": 2088, "pitch": 66, "duration": 4, "velocity": 127}, {"time": 2098, "pitch": 64, "duration": 2, "velocity": 127}, {"time": 2100, "pitch": 62, "duration": 2, "velocity": 99}, {"time": 2104, "pitch": 61, "duration": 4, "velocity": 127}, {"time": 2110, "pitch": 61, "duration": 1, "velocity": 122}, {"time": 2112, "pitch": 62, "duration": 5, "velocity": 117}, {"time": 2118, "pitch": 64, "duration": 5, "velocity": 112}, {"time": 2124, "pitch": 64, "duration": 2, "velocity": 79}, {"time": 2128, "pitch": 64, "duration": 4, "velocity": 117}, {"time": 2134, "pitch": 69, "duration": 2, "velocity": 112}, {"time": 2136, "pitch": 64, "duration": 7, "velocity": 117}, {"time": 2146, "pitch": 62, "duration": 2, "velocity": 112}, {"time": 2148, "pitch": 61, "duration": 3, "velocity": 112}, {"time": 2152, "pitch": 64, "duration": 4, "velocity": 117}, {"time": 2158, "pitch": 62, "duration": 2, "velocity": 99}, {"time": 2160, "pitch": 62, "duration": 10, "velocity": 100}, {"time": 2172, "pitch": 66, "duration": 3, "velocity": 112}, {"time": 2176, "pitch": 66, "duration": 4, "velocity": 127}, {"time": 2182, "pitch": 71, "duration": 3, "velocity": 127}, {"time": 2184, "pitch": 66, "duration": 6, "velocity": 117}, {"time": 2194, "pitch": 64, "duration": 2, "velocity": 102}, {"time": 2196, "pitch": 62, "duration": 3, "velocity": 71}, {"time": 2200, "pitch": 61, "duration": 5, "velocity": 107}, {"time": 2206, "pitch": 62, "duration": 1, "velocity": 95}, {"time": 2208, "pitch": 64, "duration": 5, "velocity": 97}, {"time": 2214, "pitch": 57, "duration": 4, "velocity": 107}, {"time": 2220, "pitch": 57, "duration": 3, "velocity": 102}, {"time": 2224, "pitch": 67, "duration": 4, "velocity": 127}, {"time": 2230, "pitch": 66, "duration": 1, "velocity": 102}, {"time": 2232, "pitch": 66, "duration": 4, "velocity": 117}, {"time": 2242, "pitch": 67, "duration": 2, "velocity": 107}, {"time": 2244, "pitch": 64, "duration": 5, "velocity": 117}, {"time": 2250, "pitch": 62, "duration": 6, "velocity": 107}, {"time": 2256, "pitch": 66, "duration": 2, "velocity": 112}, {"time": 2260, "pitch": 67, "duration": 2, "velocity": 100}, {"time": 2262, "pitch": 66, "duration": 2, "velocity": 107}, {"time": 2266, "pitch": 64, "duration": 1, "velocity": 117}, {"time": 2268, "pitch": 62, "duration": 2, "velocity": 96}, {"time": 2272, "pitch": 64, "duration": 4, "velocity": 127}, {"time": 2278, "pitch": 71, "duration": 2, "velocity": 112}, {"time": 2280, "pitch": 66, "duration": 6, "velocity": 117}, {"time": 2290, "pitch": 64, "duration": 2, "velocity": 107}, {"time": 2292, "pitch": 62, "duration": 2, "velocity": 95}, {"time": 2296, "pitch": 61, "duration": 4, "velocity": 117}, {"time": 2302, "pitch": 61, "duration": 2, "velocity": 107}, {"time": 2304, "pitch": 62, "duration": 6, "velocity": 112}, {"time": 2310, "pitch": 64, "duration": 5, "velocity": 117}, {"time": 2316, "pitch": 64, "duration": 2, "velocity": 127}, {"time": 2320, "pitch": 64, "duration": 4, "velocity": 102}, {"time": 2326, "pitch": 69, "duration": 2, "velocity": 97}, {"time": 2328, "pitch": 64, "duration": 6, "velocity": 102}, {"time": 2338, "pitch": 62, "duration": 1, "velocity": 127}, {"time": 2340, "pitch": 61, "duration": 2, "velocity": 112}, {"time": 2344, "pitch": 64, "duration": 4, "velocity": 107}, {"time": 2350, "pitch": 66, "duration": 2, "velocity": 127}, {"time": 2352, "pitch": 62, "duration": 6, "velocity": 102}, {"time": 2364, "pitch": 66, "duration": 2, "velocity": 107}, {"time": 2368, "pitch": 67, "duration": 2, "velocity": 112}, {"time": 2370, "pitch": 66, "duration": 3, "velocity": 117}, {"time": 2374, "pitch": 62, "duration": 3, "velocity": 107}, {"time": 2382, "pitch": 57, "duration": 3, "velocity": 95}, {"time": 2386, "pitch": 62, "duration": 2, "velocity": 100}, {"time": 2388, "pitch": 69, "duration": 3, "velocity": 96}, {"time": 2392, "pitch": 64, "duration": 8, "velocity": 99}, {"time": 2400, "pitch": 66, "duration": 4, "velocity": 122}, {"time": 2406, "pitch": 62, "duration": 3, "velocity": 92}, {"time": 2410, "pitch": 61, "duration": 1, "velocity": 99}, {"time": 2412, "pitch": 64, "duration": 5, "velocity": 102}, {"time": 2418, "pitch": 62, "duration": 22, "velocity": 117}, {"time": 2469, "pitch": 66, "duration": 2, "velocity": 85}, {"time": 2472, "pitch": 67, "duration": 2, "velocity": 96}, {"time": 2475, "pitch": 66, "duration": 3, "velocity": 93}, {"time": 2478, "pitch": 62, "duration": 9, "velocity": 99}, {"time": 2490, "pitch": 57, "duration": 2, "velocity": 81}, {"time": 2492, "pitch": 62, "duration": 3, "velocity": 88}, {"time": 2496, "pitch": 69, "duration": 3, "velocity": 90}, {"time": 2500, "pitch": 64, "duration": 11, "velocity": 93}, {"time": 2519, "pitch": 66, "duration": 3, "velocity": 99}, {"time": 2525, "pitch": 62, "duration": 3, "velocity": 95}, {"time": 2529, "pitch": 61, "duration": 3, "velocity": 93}, {"time": 2534, "pitch": 64, "duration": 5, "velocity": 96}, {"time": 2540, "pitch": 62, "duration": 42, "velocity": 100}]}, {"program": 0, "is_drum": false, "name": "PIANO", "notes": [{"time": 52, "pitch": 43, "duration": 22, "velocity": 72}, {"time": 54, "pitch": 50, "duration": 23, "velocity": 60}, {"time": 58, "pitch": 55, "duration": 22, "velocity": 83}, {"time": 60, "pitch": 59, "duration": 34, "velocity": 79}, {"time": 64, "pitch": 62, "duration": 28, "velocity": 83}, {"time": 66, "pitch": 66, "duration": 16, "velocity": 72}, {"time": 76, "pitch": 43, "duration": 17, "velocity": 66}, {"time": 78, "pitch": 50, "duration": 16, "velocity": 60}, {"time": 82, "pitch": 55, "duration": 11, "velocity": 58}, {"time": 84, "pitch": 66, "duration": 17, "velocity": 69}, {"time": 94, "pitch": 62, "duration": 6, "velocity": 77}, {"time": 96, "pitch": 59, "duration": 4, "velocity": 71}, {"time": 100, "pitch": 42, "duration": 22, "velocity": 66}, {"time": 102, "pitch": 49, "duration": 39, "velocity": 48}, {"time": 106, "pitch": 54, "duration": 8, "velocity": 69}, {"time": 108, "pitch": 57, "duration": 10, "velocity": 69}, {"time": 112, "pitch": 66, "duration": 22, "velocity": 77}, {"time": 114, "pitch": 54, "duration": 23, "velocity": 59}, {"time": 118, "pitch": 61, "duration": 17, "velocity": 62}, {"time": 120, "pitch": 57, "duration": 22, "velocity": 58}, {"time": 124, "pitch": 42, "duration": 17, "velocity": 51}, {"time": 136, "pitch": 66, "duration": 11, "velocity": 97}, {"time": 138, "pitch": 54, "duration": 3, "velocity": 41}, {"time": 142, "pitch": 61, "duration": 5, "velocity": 77}, {"time": 144, "pitch": 57, "duration": 4, "velocity": 72}, {"time": 148, "pitch": 43, "duration": 23, "velocity": 85}, {"time": 150, "pitch": 50, "duration": 22, "velocity": 85}, {"time": 154, "pitch": 55, "duration": 7, "velocity": 96}, {"time": 156, "pitch": 59, "duration": 23, "velocity": 93}, {"time": 160, "pitch": 67, "duration": 21, "velocity": 127}, {"time": 162, "pitch": 55, "duration": 9, "velocity": 88}, {"time": 166, "pitch": 62, "duration": 17, "velocity": 78}, {"time": 168, "pitch": 66, "duration": 14, "velocity": 69}, {"time": 172, "pitch": 43, "duration": 21, "velocity": 71}, {"time": 174, "pitch": 50, "duration": 22, "velocity": 45}, {"time": 178, "pitch": 55, "duration": 8, "velocity": 88}, {"time": 180, "pitch": 59, "duration": 16, "velocity": 77}, {"time": 184, "pitch": 67, "duration": 12, "velocity": 102}, {"time": 186, "pitch": 55, "duration": 3, "velocity": 89}, {"time": 190, "pitch": 66, "duration": 6, "velocity": 93}, {"time": 192, "pitch": 62, "duration": 4, "velocity": 77}, {"time": 196, "pitch": 45, "duration": 22, "velocity": 89}, {"time": 198, "pitch": 52, "duration": 21, "velocity": 72}, {"time": 202, "pitch": 57, "duration": 7, "velocity": 96}, {"time": 204, "pitch": 64, "duration": 5, "velocity": 71}, {"time": 208, "pitch": 69, "duration": 7, "velocity": 112}, {"time": 210, "pitch": 57, "duration": 41, "velocity": 85}, {"time": 214, "pitch": 64, "duration": 40, "velocity": 74}, {"time": 216, "pitch": 71, "duration": 4, "velocity": 74}, {"time": 220, "pitch": 45, "duration": 34, "velocity": 78}, {"time": 220, "pitch": 52, "duration": 32, "velocity": 43}, {"time": 220, "pitch": 69, "duration": 35, "velocity": 92}, {"time": 256, "pitch": 43, "duration": 15, "velocity": 67}, {"time": 258, "pitch": 50, "duration": 14, "velocity": 41}, {"time": 262, "pitch": 55, "duration": 6, "velocity": 70}, {"time": 264, "pitch": 62, "duration": 6, "velocity": 55}, {"time": 268, "pitch": 71, "duration": 12, "velocity": 92}, {"time": 270, "pitch": 67, "duration": 9, "velocity": 48}, {"time": 274, "pitch": 62, "duration": 5, "velocity": 54}, {"time": 280, "pitch": 42, "duration": 17, "velocity": 63}, {"time": 282, "pitch": 49, "duration": 14, "velocity": 32}, {"time": 286, "pitch": 54, "duration": 7, "velocity": 66}, {"time": 288, "pitch": 66, "duration": 10, "velocity": 82}, {"time": 292, "pitch": 73, "duration": 10, "velocity": 97}, {"time": 294, "pitch": 54, "duration": 3, "velocity": 51}, {"time": 298, "pitch": 69, "duration": 4, "velocity": 57}, {"time": 304, "pitch": 40, "duration": 6, "velocity": 78}, {"time": 306, "pitch": 64, "duration": 5, "velocity": 60}, {"time": 310, "pitch": 71, "duration": 6, "velocity": 82}, {"time": 312, "pitch": 64, "duration": 3, "velocity": 79}, {"time": 316, "pitch": 50, "duration": 6, "velocity": 70}, {"time": 318, "pitch": 62, "duration": 11, "velocity": 72}, {"time": 322, "pitch": 66, "duration": 6, "velocity": 81}, {"time": 324, "pitch": 69, "duration": 4, "velocity": 72}, {"time": 328, "pitch": 38, "duration": 17, "velocity": 66}, {"time": 330, "pitch": 45, "duration": 15, "velocity": 35}, {"time": 334, "pitch": 50, "duration": 14, "velocity": 77}, {"time": 336, "pitch": 57, "duration": 5, "velocity": 53}, {"time": 340, "pitch": 66, "duration": 12, "velocity": 107}, {"time": 342, "pitch": 62, "duration": 9, "velocity": 81}, {"time": 346, "pitch": 57, "duration": 5, "velocity": 69}, {"time": 352, "pitch": 43, "duration": 18, "velocity": 86}, {"time": 354, "pitch": 50, "duration": 16, "velocity": 61}, {"time": 358, "pitch": 55, "duration": 8, "velocity": 82}, {"time": 360, "pitch": 62, "duration": 16, "velocity": 66}, {"time": 364, "pitch": 71, "duration": 13, "velocity": 107}, {"time": 376, "pitch": 42, "duration": 19, "velocity": 81}, {"time": 378, "pitch": 49, "duration": 16, "velocity": 50}, {"time": 382, "pitch": 54, "duration": 12, "velocity": 58}, {"time": 384, "pitch": 66, "duration": 17, "velocity": 72}, {"time": 388, "pitch": 73, "duration": 12, "velocity": 95}, {"time": 396, "pitch": 69, "duration": 3, "velocity": 38}, {"time": 400, "pitch": 40, "duration": 16, "velocity": 74}, {"time": 402, "pitch": 47, "duration": 15, "velocity": 54}, {"time": 406, "pitch": 52, "duration": 16, "velocity": 69}, {"time": 408, "pitch": 64, "duration": 16, "velocity": 61}, {"time": 412, "pitch": 71, "duration": 12, "velocity": 92}, {"time": 424, "pitch": 45, "duration": 22, "velocity": 66}, {"time": 426, "pitch": 52, "duration": 20, "velocity": 35}, {"time": 430, "pitch": 62, "duration": 3, "velocity": 66}, {"time": 432, "pitch": 64, "duration": 15, "velocity": 59}, {"time": 436, "pitch": 57, "duration": 11, "velocity": 50}, {"time": 436, "pitch": 61, "duration": 10, "velocity": 55}, {"time": 448, "pitch": 43, "duration": 17, "velocity": 76}, {"time": 450, "pitch": 50, "duration": 14, "velocity": 35}, {"time": 454, "pitch": 55, "duration": 6, "velocity": 88}, {"time": 456, "pitch": 62, "duration": 17, "velocity": 54}, {"time": 460, "pitch": 71, "duration": 13, "velocity": 93}, {"time": 466, "pitch": 67, "duration": 6, "velocity": 38}, {"time": 472, "pitch": 42, "duration": 18, "velocity": 67}, {"time": 474, "pitch": 49, "duration": 16, "velocity": 30}, {"time": 478, "pitch": 54, "duration": 9, "velocity": 68}, {"time": 480, "pitch": 57, "duration": 9, "velocity": 61}, {"time": 484, "pitch": 66, "duration": 12, "velocity": 100}, {"time": 486, "pitch": 61, "duration": 10, "velocity": 85}, {"time": 492, "pitch": 57, "duration": 4, "velocity": 60}, {"time": 496, "pitch": 40, "duration": 10, "velocity": 76}, {"time": 498, "pitch": 47, "duration": 8, "velocity": 56}, {"time": 502, "pitch": 52, "duration": 3, "velocity": 79}, {"time": 502, "pitch": 59, "duration": 3, "velocity": 18}, {"time": 504, "pitch": 67, "duration": 4, "velocity": 99}, {"time": 508, "pitch": 38, "duration": 11, "velocity": 72}, {"time": 510, "pitch": 57, "duration": 9, "velocity": 63}, {"time": 514, "pitch": 66, "duration": 5, "velocity": 100}, {"time": 516, "pitch": 62, "duration": 3, "velocity": 59}, {"time": 520, "pitch": 38, "duration": 16, "velocity": 81}, {"time": 520, "pitch": 57, "duration": 7, "velocity": 69}, {"time": 520, "pitch": 62, "duration": 8, "velocity": 85}, {"time": 520, "pitch": 66, "duration": 8, "velocity": 95}, {"time": 522, "pitch": 45, "duration": 16, "velocity": 48}, {"time": 526, "pitch": 50, "duration": 17, "velocity": 99}, {"time": 528, "pitch": 57, "duration": 4, "velocity": 86}, {"time": 532, "pitch": 66, "duration": 4, "velocity": 122}, {"time": 534, "pitch": 64, "duration": 4, "velocity": 100}, {"time": 538, "pitch": 62, "duration": 6, "velocity": 107}, {"time": 544, "pitch": 43, "duration": 16, "velocity": 76}, {"time": 546, "pitch": 50, "duration": 14, "velocity": 63}, {"time": 550, "pitch": 55, "duration": 7, "velocity": 92}, {"time": 552, "pitch": 62, "duration": 16, "velocity": 79}, {"time": 556, "pitch": 71, "duration": 13, "velocity": 96}, {"time": 558, "pitch": 69, "duration": 9, "velocity": 34}, {"time": 562, "pitch": 67, "duration": 6, "velocity": 83}, {"time": 568, "pitch": 42, "duration": 19, "velocity": 67}, {"time": 570, "pitch": 49, "duration": 16, "velocity": 41}, {"time": 574, "pitch": 54, "duration": 7, "velocity": 96}, {"time": 576, "pitch": 66, "duration": 5, "velocity": 89}, {"time": 580, "pitch": 73, "duration": 11, "velocity": 117}, {"time": 582, "pitch": 54, "duration": 4, "velocity": 76}, {"time": 586, "pitch": 69, "duration": 5, "velocity": 69}, {"time": 588, "pitch": 66, "duration": 3, "velocity": 66}, {"time": 592, "pitch": 40, "duration": 7, "velocity": 74}, {"time": 594, "pitch": 47, "duration": 7, "velocity": 64}, {"time": 598, "pitch": 52, "duration": 6, "velocity": 65}, {"time": 600, "pitch": 67, "duration": 1, "velocity": 37}, {"time": 600, "pitch": 71, "duration": 4, "velocity": 73}, {"time": 604, "pitch": 45, "duration": 8, "velocity": 72}, {"time": 606, "pitch": 52, "duration": 7, "velocity": 58}, {"time": 610, "pitch": 57, "duration": 6, "velocity": 86}, {"time": 610, "pitch": 69, "duration": 7, "velocity": 69}, {"time": 610, "pitch": 73, "duration": 7, "velocity": 96}, {"time": 616, "pitch": 50, "duration": 15, "velocity": 72}, {"time": 618, "pitch": 57, "duration": 12, "velocity": 48}, {"time": 622, "pitch": 62, "duration": 3, "velocity": 102}, {"time": 624, "pitch": 66, "duration": 4, "velocity": 127}, {"time": 628, "pitch": 69, "duration": 5, "velocity": 122}, {"time": 630, "pitch": 66, "duration": 3, "velocity": 112}, {"time": 634, "pitch": 49, "duration": 6, "velocity": 100}, {"time": 640, "pitch": 47, "duration": 20, "velocity": 86}, {"time": 642, "pitch": 54, "duration": 16, "velocity": 79}, {"time": 646, "pitch": 59, "duration": 7, "velocity": 95}, {"time": 648, "pitch": 62, "duration": 9, "velocity": 83}, {"time": 652, "pitch": 71, "duration": 12, "velocity": 107}, {"time": 654, "pitch": 59, "duration": 3, "velocity": 75}, {"time": 658, "pitch": 66, "duration": 6, "velocity": 112}, {"time": 660, "pitch": 62, "duration": 4, "velocity": 76}, {"time": 664, "pitch": 45, "duration": 19, "velocity": 85}, {"time": 666, "pitch": 52, "duration": 17, "velocity": 64}, {"time": 670, "pitch": 57, "duration": 7, "velocity": 97}, {"time": 672, "pitch": 64, "duration": 10, "velocity": 82}, {"time": 676, "pitch": 73, "duration": 12, "velocity": 127}, {"time": 678, "pitch": 57, "duration": 3, "velocity": 42}, {"time": 682, "pitch": 69, "duration": 6, "velocity": 67}, {"time": 684, "pitch": 64, "duration": 5, "velocity": 66}, {"time": 688, "pitch": 43, "duration": 18, "velocity": 75}, {"time": 690, "pitch": 50, "duration": 16, "velocity": 50}, {"time": 694, "pitch": 55, "duration": 9, "velocity": 73}, {"time": 696, "pitch": 62, "duration": 16, "velocity": 74}, {"time": 700, "pitch": 71, "duration": 12, "velocity": 117}, {"time": 708, "pitch": 67, "duration": 4, "velocity": 88}, {"time": 712, "pitch": 38, "duration": 10, "velocity": 97}, {"time": 714, "pitch": 57, "duration": 5, "velocity": 82}, {"time": 718, "pitch": 66, "duration": 7, "velocity": 127}, {"time": 720, "pitch": 57, "duration": 4, "velocity": 85}, {"time": 724, "pitch": 37, "duration": 11, "velocity": 96}, {"time": 726, "pitch": 61, "duration": 4, "velocity": 71}, {"time": 730, "pitch": 66, "duration": 7, "velocity": 117}, {"time": 732, "pitch": 62, "duration": 6, "velocity": 44}, {"time": 736, "pitch": 35, "duration": 16, "velocity": 73}, {"time": 738, "pitch": 42, "duration": 14, "velocity": 59}, {"time": 742, "pitch": 47, "duration": 8, "velocity": 70}, {"time": 744, "pitch": 59, "duration": 14, "velocity": 72}, {"time": 748, "pitch": 66, "duration": 12, "velocity": 122}, {"time": 756, "pitch": 62, "duration": 4, "velocity": 77}, {"time": 760, "pitch": 45, "duration": 23, "velocity": 72}, {"time": 762, "pitch": 52, "duration": 15, "velocity": 40}, {"time": 766, "pitch": 57, "duration": 4, "velocity": 90}, {"time": 768, "pitch": 61, "duration": 4, "velocity": 112}, {"time": 772, "pitch": 64, "duration": 11, "velocity": 102}, {"time": 778, "pitch": 61, "duration": 5, "velocity": 100}, {"time": 780, "pitch": 57, "duration": 3, "velocity": 61}, {"time": 784, "pitch": 43, "duration": 18, "velocity": 79}, {"time": 786, "pitch": 50, "duration": 15, "velocity": 56}, {"time": 790, "pitch": 55, "duration": 10, "velocity": 100}, {"time": 792, "pitch": 62, "duration": 7, "velocity": 82}, {"time": 796, "pitch": 71, "duration": 12, "velocity": 117}, {"time": 802, "pitch": 67, "duration": 6, "velocity": 90}, {"time": 804, "pitch": 62, "duration": 4, "velocity": 92}, {"time": 808, "pitch": 36, "duration": 14, "velocity": 90}, {"time": 810, "pitch": 43, "duration": 13, "velocity": 57}, {"time": 814, "pitch": 48, "duration": 8, "velocity": 85}, {"time": 816, "pitch": 55, "duration": 9, "velocity": 58}, {"time": 820, "pitch": 64, "duration": 12, "velocity": 102}, {"time": 826, "pitch": 60, "duration": 6, "velocity": 79}, {"time": 832, "pitch": 45, "duration": 18, "velocity": 71}, {"time": 834, "pitch": 52, "duration": 11, "velocity": 38}, {"time": 838, "pitch": 57, "duration": 6, "velocity": 93}, {"time": 840, "pitch": 62, "duration": 4, "velocity": 117}, {"time": 844, "pitch": 64, "duration": 4, "velocity": 117}, {"time": 846, "pitch": 52, "duration": 4, "velocity": 61}, {"time": 850, "pitch": 62, "duration": 6, "velocity": 112}, {"time": 856, "pitch": 43, "duration": 22, "velocity": 97}, {"time": 858, "pitch": 50, "duration": 21, "velocity": 68}, {"time": 862, "pitch": 55, "duration": 6, "velocity": 112}, {"time": 864, "pitch": 59, "duration": 5, "velocity": 100}, {"time": 868, "pitch": 66, "duration": 1, "velocity": 90}, {"time": 868, "pitch": 67, "duration": 12, "velocity": 127}, {"time": 870, "pitch": 55, "duration": 3, "velocity": 112}, {"time": 874, "pitch": 62, "duration": 6, "velocity": 102}, {"time": 876, "pitch": 59, "duration": 4, "velocity": 100}, {"time": 880, "pitch": 43, "duration": 17, "velocity": 90}, {"time": 882, "pitch": 50, "duration": 15, "velocity": 93}, {"time": 886, "pitch": 55, "duration": 7, "velocity": 97}, {"time": 888, "pitch": 62, "duration": 6, "velocity": 96}, {"time": 892, "pitch": 71, "duration": 5, "velocity": 117}, {"time": 894, "pitch": 55, "duration": 3, "velocity": 96}, {"time": 898, "pitch": 67, "duration": 7, "velocity": 96}, {"time": 898, "pitch": 71, "duration": 7, "velocity": 74}, {"time": 900, "pitch": 62, "duration": 5, "velocity": 107}, {"time": 904, "pitch": 42, "duration": 16, "velocity": 89}, {"time": 906, "pitch": 49, "duration": 13, "velocity": 31}, {"time": 910, "pitch": 54, "duration": 7, "velocity": 92}, {"time": 912, "pitch": 57, "duration": 4, "velocity": 89}, {"time": 916, "pitch": 61, "duration": 6, "velocity": 102}, {"time": 916, "pitch": 66, "duration": 13, "velocity": 127}, {"time": 918, "pitch": 54, "duration": 4, "velocity": 92}, {"time": 922, "pitch": 57, "duration": 5, "velocity": 107}, {"time": 924, "pitch": 61, "duration": 3, "velocity": 127}, {"time": 928, "pitch": 47, "duration": 12, "velocity": 97}, {"time": 930, "pitch": 59, "duration": 4, "velocity": 90}, {"time": 930, "pitch": 62, "duration": 2, "velocity": 33}, {"time": 934, "pitch": 66, "duration": 7, "velocity": 127}, {"time": 936, "pitch": 59, "duration": 2, "velocity": 99}, {"time": 936, "pitch": 62, "duration": 6, "velocity": 102}, {"time": 940, "pitch": 45, "duration": 10, "velocity": 85}, {"time": 942, "pitch": 57, "duration": 7, "velocity": 95}, {"time": 946, "pitch": 66, "duration": 6, "velocity": 127}, {"time": 948, "pitch": 62, "duration": 4, "velocity": 96}, {"time": 952, "pitch": 43, "duration": 23, "velocity": 89}, {"time": 954, "pitch": 50, "duration": 22, "velocity": 77}, {"time": 958, "pitch": 55, "duration": 7, "velocity": 100}, {"time": 960, "pitch": 59, "duration": 7, "velocity": 99}, {"time": 964, "pitch": 67, "duration": 11, "velocity": 122}, {"time": 966, "pitch": 55, "duration": 3, "velocity": 96}, {"time": 970, "pitch": 62, "duration": 6, "velocity": 93}, {"time": 972, "pitch": 59, "duration": 4, "velocity": 93}, {"time": 976, "pitch": 45, "duration": 17, "velocity": 88}, {"time": 978, "pitch": 52, "duration": 11, "velocity": 66}, {"time": 982, "pitch": 57, "duration": 3, "velocity": 100}, {"time": 984, "pitch": 61, "duration": 4, "velocity": 122}, {"time": 988, "pitch": 64, "duration": 11, "velocity": 97}, {"time": 990, "pitch": 52, "duration": 3, "velocity": 90}, {"time": 994, "pitch": 61, "duration": 5, "velocity": 127}, {"time": 996, "pitch": 57, "duration": 3, "velocity": 102}, {"time": 1000, "pitch": 38, "duration": 22, "velocity": 92}, {"time": 1002, "pitch": 45, "duration": 22, "velocity": 77}, {"time": 1006, "pitch": 50, "duration": 6, "velocity": 102}, {"time": 1008, "pitch": 62, "duration": 5, "velocity": 96}, {"time": 1012, "pitch": 69, "duration": 11, "velocity": 127}, {"time": 1014, "pitch": 50, "duration": 3, "velocity": 99}, {"time": 1018, "pitch": 66, "duration": 4, "velocity": 127}, {"time": 1020, "pitch": 62, "duration": 3, "velocity": 99}, {"time": 1024, "pitch": 36, "duration": 13, "velocity": 90}, {"time": 1024, "pitch": 62, "duration": 11, "velocity": 96}, {"time": 1024, "pitch": 66, "duration": 10, "velocity": 122}, {"time": 1024, "pitch": 69, "duration": 10, "velocity": 97}, {"time": 1024, "pitch": 72, "duration": 10, "velocity": 86}, {"time": 1036, "pitch": 66, "duration": 6, "velocity": 127}, {"time": 1036, "pitch": 69, "duration": 10, "velocity": 102}, {"time": 1036, "pitch": 72, "duration": 8, "velocity": 96}, {"time": 1042, "pitch": 62, "duration": 6, "velocity": 117}, {"time": 1044, "pitch": 66, "duration": 3, "velocity": 102}, {"time": 1048, "pitch": 43, "duration": 21, "velocity": 96}, {"time": 1050, "pitch": 50, "duration": 22, "velocity": 88}, {"time": 1054, "pitch": 55, "duration": 6, "velocity": 117}, {"time": 1056, "pitch": 62, "duration": 7, "velocity": 96}, {"time": 1060, "pitch": 71, "duration": 22, "velocity": 127}, {"time": 1062, "pitch": 55, "duration": 3, "velocity": 88}, {"time": 1066, "pitch": 67, "duration": 3, "velocity": 95}, {"time": 1068, "pitch": 62, "duration": 11, "velocity": 97}, {"time": 1072, "pitch": 43, "duration": 17, "velocity": 81}, {"time": 1072, "pitch": 66, "duration": 9, "velocity": 100}, {"time": 1072, "pitch": 68, "duration": 1, "velocity": 58}, {"time": 1074, "pitch": 50, "duration": 15, "velocity": 71}, {"time": 1078, "pitch": 55, "duration": 8, "velocity": 96}, {"time": 1080, "pitch": 62, "duration": 9, "velocity": 99}, {"time": 1084, "pitch": 71, "duration": 12, "velocity": 100}, {"time": 1086, "pitch": 67, "duration": 11, "velocity": 112}, {"time": 1090, "pitch": 66, "duration": 6, "velocity": 122}, {"time": 1092, "pitch": 62, "duration": 4, "velocity": 93}, {"time": 1096, "pitch": 42, "duration": 16, "velocity": 93}, {"time": 1098, "pitch": 49, "duration": 13, "velocity": 46}, {"time": 1102, "pitch": 54, "duration": 7, "velocity": 90}, {"time": 1104, "pitch": 57, "duration": 7, "velocity": 82}, {"time": 1108, "pitch": 66, "duration": 11, "velocity": 127}, {"time": 1110, "pitch": 54, "duration": 3, "velocity": 86}, {"time": 1114, "pitch": 61, "duration": 4, "velocity": 93}, {"time": 1116, "pitch": 57, "duration": 4, "velocity": 95}, {"time": 1120, "pitch": 47, "duration": 11, "velocity": 112}, {"time": 1122, "pitch": 59, "duration": 4, "velocity": 83}, {"time": 1126, "pitch": 66, "duration": 4, "velocity": 127}, {"time": 1128, "pitch": 59, "duration": 4, "velocity": 102}, {"time": 1132, "pitch": 45, "duration": 10, "velocity": 92}, {"time": 1134, "pitch": 57, "duration": 4, "velocity": 93}, {"time": 1138, "pitch": 64, "duration": 6, "velocity": 100}, {"time": 1140, "pitch": 57, "duration": 4, "velocity": 93}, {"time": 1144, "pitch": 40, "duration": 16, "velocity": 93}, {"time": 1146, "pitch": 47, "duration": 15, "velocity": 70}, {"time": 1150, "pitch": 52, "duration": 7, "velocity": 90}, {"time": 1152, "pitch": 59, "duration": 8, "velocity": 79}, {"time": 1156, "pitch": 67, "duration": 12, "velocity": 122}, {"time": 1158, "pitch": 52, "duration": 5, "velocity": 69}, {"time": 1162, "pitch": 64, "duration": 6, "velocity": 95}, {"time": 1164, "pitch": 59, "duration": 4, "velocity": 55}, {"time": 1168, "pitch": 45, "duration": 17, "velocity": 75}, {"time": 1170, "pitch": 52, "duration": 15, "velocity": 59}, {"time": 1174, "pitch": 57, "duration": 5, "velocity": 76}, {"time": 1180, "pitch": 61, "duration": 10, "velocity": 99}, {"time": 1180, "pitch": 64, "duration": 10, "velocity": 83}, {"time": 1192, "pitch": 46, "duration": 18, "velocity": 122}, {"time": 1194, "pitch": 58, "duration": 11, "velocity": 112}, {"time": 1198, "pitch": 62, "duration": 3, "velocity": 90}, {"time": 1200, "pitch": 65, "duration": 10, "velocity": 122}, {"time": 1206, "pitch": 58, "duration": 3, "velocity": 66}, {"time": 1210, "pitch": 62, "duration": 5, "velocity": 117}, {"time": 1216, "pitch": 45, "duration": 17, "velocity": 86}, {"time": 1216, "pitch": 60, "duration": 6, "velocity": 92}, {"time": 1216, "pitch": 64, "duration": 6, "velocity": 100}, {"time": 1218, "pitch": 52, "duration": 11, "velocity": 59}, {"time": 1222, "pitch": 57, "duration": 4, "velocity": 95}, {"time": 1224, "pitch": 64, "duration": 10, "velocity": 127}, {"time": 1230, "pitch": 52, "duration": 3, "velocity": 51}, {"time": 1234, "pitch": 60, "duration": 1, "velocity": 75}, {"time": 1240, "pitch": 43, "duration": 19, "velocity": 83}, {"time": 1240, "pitch": 58, "duration": 1, "velocity": 107}, {"time": 1240, "pitch": 62, "duration": 1, "velocity": 88}, {"time": 1242, "pitch": 50, "duration": 17, "velocity": 74}, {"time": 1246, "pitch": 55, "duration": 7, "velocity": 89}, {"time": 1248, "pitch": 67, "duration": 10, "velocity": 90}, {"time": 1248, "pitch": 70, "duration": 10, "velocity": 107}, {"time": 1254, "pitch": 55, "duration": 2, "velocity": 79}, {"time": 1258, "pitch": 62, "duration": 1, "velocity": 69}, {"time": 1264, "pitch": 45, "duration": 23, "velocity": 75}, {"time": 1264, "pitch": 64, "duration": 2, "velocity": 82}, {"time": 1264, "pitch": 69, "duration": 2, "velocity": 89}, {"time": 1264, "pitch": 73, "duration": 2, "velocity": 99}, {"time": 1266, "pitch": 52, "duration": 11, "velocity": 49}, {"time": 1270, "pitch": 57, "duration": 2, "velocity": 85}, {"time": 1272, "pitch": 57, "duration": 3, "velocity": 58}, {"time": 1272, "pitch": 61, "duration": 3, "velocity": 59}, {"time": 1272, "pitch": 64, "duration": 3, "velocity": 63}, {"time": 1276, "pitch": 57, "duration": 4, "velocity": 117}, {"time": 1276, "pitch": 61, "duration": 4, "velocity": 127}, {"time": 1276, "pitch": 64, "duration": 4, "velocity": 127}, {"time": 1278, "pitch": 52, "duration": 7, "velocity": 117}, {"time": 1282, "pitch": 61, "duration": 5, "velocity": 127}, {"time": 1282, "pitch": 63, "duration": 1, "velocity": 100}, {"time": 1282, "pitch": 64, "duration": 5, "velocity": 122}, {"time": 1284, "pitch": 57, "duration": 4, "velocity": 100}, {"time": 1288, "pitch": 47, "duration": 20, "velocity": 86}, {"time": 1290, "pitch": 54, "duration": 16, "velocity": 79}, {"time": 1294, "pitch": 59, "duration": 7, "velocity": 95}, {"time": 1296, "pitch": 62, "duration": 9, "velocity": 83}, {"time": 1300, "pitch": 71, "duration": 12, "velocity": 107}, {"time": 1302, "pitch": 59, "duration": 3, "velocity": 75}, {"time": 1306, "pitch": 66, "duration": 6, "velocity": 112}, {"time": 1308, "pitch": 62, "duration": 4, "velocity": 76}, {"time": 1312, "pitch": 45, "duration": 19, "velocity": 85}, {"time": 1314, "pitch": 52, "duration": 17, "velocity": 64}, {"time": 1318, "pitch": 57, "duration": 7, "velocity": 97}, {"time": 1320, "pitch": 64, "duration": 10, "velocity": 82}, {"time": 1324, "pitch": 73, "duration": 12, "velocity": 127}, {"time": 1326, "pitch": 57, "duration": 3, "velocity": 42}, {"time": 1330, "pitch": 69, "duration": 6, "velocity": 67}, {"time": 1332, "pitch": 64, "duration": 5, "velocity": 66}, {"time": 1336, "pitch": 43, "duration": 18, "velocity": 75}, {"time": 1338, "pitch": 50, "duration": 16, "velocity": 50}, {"time": 1342, "pitch": 55, "duration": 9, "velocity": 73}, {"time": 1344, "pitch": 62, "duration": 16, "velocity": 74}, {"time": 1348, "pitch": 71, "duration": 12, "velocity": 117}, {"time": 1356, "pitch": 67, "duration": 4, "velocity": 88}, {"time": 1360, "pitch": 38, "duration": 10, "velocity": 97}, {"time": 1362, "pitch": 57, "duration": 5, "velocity": 82}, {"time": 1366, "pitch": 66, "duration": 7, "velocity": 127}, {"time": 1368, "pitch": 57, "duration": 4, "velocity": 85}, {"time": 1372, "pitch": 37, "duration": 11, "velocity": 96}, {"time": 1374, "pitch": 61, "duration": 4, "velocity": 71}, {"time": 1378, "pitch": 66, "duration": 7, "velocity": 117}, {"time": 1380, "pitch": 62, "duration": 6, "velocity": 44}, {"time": 1384, "pitch": 35, "duration": 16, "velocity": 73}, {"time": 1386, "pitch": 42, "duration": 14, "velocity": 59}, {"time": 1390, "pitch": 47, "duration": 8, "velocity": 70}, {"time": 1392, "pitch": 59, "duration": 14, "velocity": 72}, {"time": 1396, "pitch": 66, "duration": 12, "velocity": 122}, {"time": 1404, "pitch": 62, "duration": 4, "velocity": 77}, {"time": 1408, "pitch": 45, "duration": 23, "velocity": 72}, {"time": 1410, "pitch": 52, "duration": 15, "velocity": 40}, {"time": 1414, "pitch": 57, "duration": 4, "velocity": 90}, {"time": 1416, "pitch": 61, "duration": 4, "velocity": 112}, {"time": 1420, "pitch": 64, "duration": 11, "velocity": 102}, {"time": 1426, "pitch": 61, "duration": 5, "velocity": 100}, {"time": 1428, "pitch": 57, "duration": 3, "velocity": 61}, {"time": 1432, "pitch": 43, "duration": 18, "velocity": 79}, {"time": 1434, "pitch": 50, "duration": 15, "velocity": 56}, {"time": 1438, "pitch": 55, "duration": 10, "velocity": 100}, {"time": 1440, "pitch": 62, "duration": 7, "velocity": 82}, {"time": 1444, "pitch": 71, "duration": 12, "velocity": 117}, {"time": 1450, "pitch": 67, "duration": 6, "velocity": 90}, {"time": 1452, "pitch": 62, "duration": 4, "velocity": 92}, {"time": 1456, "pitch": 36, "duration": 14, "velocity": 90}, {"time": 1458, "pitch": 43, "duration": 13, "velocity": 57}, {"time": 1462, "pitch": 48, "duration": 8, "velocity": 85}, {"time": 1464, "pitch": 55, "duration": 9, "velocity": 58}, {"time": 1468, "pitch": 64, "duration": 12, "velocity": 102}, {"time": 1474, "pitch": 60, "duration": 6, "velocity": 79}, {"time": 1480, "pitch": 45, "duration": 18, "velocity": 71}, {"time": 1482, "pitch": 52, "duration": 11, "velocity": 38}, {"time": 1486, "pitch": 57, "duration": 6, "velocity": 93}, {"time": 1488, "pitch": 62, "duration": 4, "velocity": 117}, {"time": 1492, "pitch": 64, "duration": 4, "velocity": 117}, {"time": 1494, "pitch": 52, "duration": 4, "velocity": 61}, {"time": 1498, "pitch": 62, "duration": 6, "velocity": 112}, {"time": 1504, "pitch": 43, "duration": 22, "velocity": 97}, {"time": 1506, "pitch": 50, "duration": 21, "velocity": 68}, {"time": 1510, "pitch": 55, "duration": 6, "velocity": 112}, {"time": 1512, "pitch": 59, "duration": 5, "velocity": 100}, {"time": 1516, "pitch": 66, "duration": 1, "velocity": 90}, {"time": 1516, "pitch": 67, "duration": 12, "velocity": 127}, {"time": 1518, "pitch": 55, "duration": 3, "velocity": 112}, {"time": 1522, "pitch": 62, "duration": 6, "velocity": 102}, {"time": 1524, "pitch": 59, "duration": 4, "velocity": 100}, {"time": 1528, "pitch": 43, "duration": 17, "velocity": 90}, {"time": 1530, "pitch": 50, "duration": 15, "velocity": 93}, {"time": 1534, "pitch": 55, "duration": 7, "velocity": 97}, {"time": 1536, "pitch": 62, "duration": 6, "velocity": 96}, {"time": 1540, "pitch": 71, "duration": 5, "velocity": 117}, {"time": 1542, "pitch": 55, "duration": 3, "velocity": 96}, {"time": 1546, "pitch": 67, "duration": 7, "velocity": 96}, {"time": 1546, "pitch": 71, "duration": 7, "velocity": 74}, {"time": 1548, "pitch": 62, "duration": 5, "velocity": 107}, {"time": 1552, "pitch": 42, "duration": 16, "velocity": 89}, {"time": 1554, "pitch": 49, "duration": 13, "velocity": 31}, {"time": 1558, "pitch": 54, "duration": 7, "velocity": 92}, {"time": 1560, "pitch": 57, "duration": 4, "velocity": 89}, {"time": 1564, "pitch": 61, "duration": 6, "velocity": 102}, {"time": 1564, "pitch": 66, "duration": 13, "velocity": 127}, {"time": 1566, "pitch": 54, "duration": 4, "velocity": 92}, {"time": 1570, "pitch": 57, "duration": 5, "velocity": 107}, {"time": 1572, "pitch": 61, "duration": 3, "velocity": 127}, {"time": 1576, "pitch": 47, "duration": 12, "velocity": 97}, {"time": 1578, "pitch": 59, "duration": 4, "velocity": 90}, {"time": 1578, "pitch": 62, "duration": 2, "velocity": 33}, {"time": 1582, "pitch": 66, "duration": 7, "velocity": 127}, {"time": 1584, "pitch": 59, "duration": 2, "velocity": 99}, {"time": 1584, "pitch": 62, "duration": 6, "velocity": 102}, {"time": 1588, "pitch": 45, "duration": 10, "velocity": 85}, {"time": 1590, "pitch": 57, "duration": 7, "velocity": 95}, {"time": 1594, "pitch": 66, "duration": 6, "velocity": 127}, {"time": 1596, "pitch": 62, "duration": 4, "velocity": 96}, {"time": 1600, "pitch": 43, "duration": 23, "velocity": 89}, {"time": 1602, "pitch": 50, "duration": 22, "velocity": 77}, {"time": 1606, "pitch": 55, "duration": 7, "velocity": 100}, {"time": 1608, "pitch": 59, "duration": 7, "velocity": 99}, {"time": 1612, "pitch": 67, "duration": 11, "velocity": 122}, {"time": 1614, "pitch": 55, "duration": 3, "velocity": 96}, {"time": 1618, "pitch": 62, "duration": 6, "velocity": 93}, {"time": 1620, "pitch": 59, "duration": 4, "velocity": 93}, {"time": 1624, "pitch": 45, "duration": 17, "velocity": 88}, {"time": 1626, "pitch": 52, "duration": 11, "velocity": 66}, {"time": 1630, "pitch": 57, "duration": 3, "velocity": 100}, {"time": 1632, "pitch": 61, "duration": 4, "velocity": 122}, {"time": 1636, "pitch": 64, "duration": 11, "velocity": 97}, {"time": 1638, "pitch": 52, "duration": 3, "velocity": 90}, {"time": 1642, "pitch": 61, "duration": 5, "velocity": 127}, {"time": 1644, "pitch": 57, "duration": 3, "velocity": 102}, {"time": 1648, "pitch": 38, "duration": 22, "velocity": 92}, {"time": 1650, "pitch": 45, "duration": 22, "velocity": 77}, {"time": 1654, "pitch": 50, "duration": 6, "velocity": 102}, {"time": 1656, "pitch": 62, "duration": 5, "velocity": 96}, {"time": 1660, "pitch": 69, "duration": 11, "velocity": 127}, {"time": 1662, "pitch": 50, "duration": 3, "velocity": 99}, {"time": 1666, "pitch": 66, "duration": 4, "velocity": 127}, {"time": 1668, "pitch": 62, "duration": 3, "velocity": 99}, {"time": 1672, "pitch": 36, "duration": 13, "velocity": 90}, {"time": 1672, "pitch": 62, "duration": 11, "velocity": 96}, {"time": 1672, "pitch": 66, "duration": 10, "velocity": 122}, {"time": 1672, "pitch": 69, "duration": 10, "velocity": 97}, {"time": 1672, "pitch": 72, "duration": 10, "velocity": 86}, {"time": 1684, "pitch": 66, "duration": 6, "velocity": 127}, {"time": 1684, "pitch": 69, "duration": 10, "velocity": 102}, {"time": 1684, "pitch": 72, "duration": 8, "velocity": 96}, {"time": 1690, "pitch": 62, "duration": 6, "velocity": 117}, {"time": 1692, "pitch": 66, "duration": 3, "velocity": 102}, {"time": 1696, "pitch": 43, "duration": 21, "velocity": 96}, {"time": 1698, "pitch": 50, "duration": 22, "velocity": 88}, {"time": 1702, "pitch": 55, "duration": 6, "velocity": 117}, {"time": 1704, "pitch": 62, "duration": 7, "velocity": 96}, {"time": 1708, "pitch": 71, "duration": 22, "velocity": 127}, {"time": 1710, "pitch": 55, "duration": 3, "velocity": 88}, {"time": 1714, "pitch": 67, "duration": 3, "velocity": 95}, {"time": 1716, "pitch": 62, "duration": 11, "velocity": 97}, {"time": 1720, "pitch": 43, "duration": 17, "velocity": 81}, {"time": 1720, "pitch": 66, "duration": 9, "velocity": 100}, {"time": 1720, "pitch": 68, "duration": 1, "velocity": 58}, {"time": 1722, "pitch": 50, "duration": 15, "velocity": 71}, {"time": 1726, "pitch": 55, "duration": 8, "velocity": 96}, {"time": 1728, "pitch": 62, "duration": 9, "velocity": 99}, {"time": 1732, "pitch": 71, "duration": 12, "velocity": 100}, {"time": 1734, "pitch": 67, "duration": 11, "velocity": 112}, {"time": 1738, "pitch": 66, "duration": 6, "velocity": 122}, {"time": 1740, "pitch": 62, "duration": 4, "velocity": 93}, {"time": 1744, "pitch": 42, "duration": 16, "velocity": 93}, {"time": 1746, "pitch": 49, "duration": 13, "velocity": 46}, {"time": 1750, "pitch": 54, "duration": 7, "velocity": 90}, {"time": 1752, "pitch": 57, "duration": 7, "velocity": 82}, {"time": 1756, "pitch": 66, "duration": 11, "velocity": 127}, {"time": 1758, "pitch": 54, "duration": 3, "velocity": 86}, {"time": 1762, "pitch": 61, "duration": 4, "velocity": 93}, {"time": 1764, "pitch": 57, "duration": 4, "velocity": 95}, {"time": 1768, "pitch": 47, "duration": 11, "velocity": 112}, {"time": 1770, "pitch": 59, "duration": 4, "velocity": 83}, {"time": 1774, "pitch": 66, "duration": 4, "velocity": 127}, {"time": 1776, "pitch": 59, "duration": 4, "velocity": 102}, {"time": 1780, "pitch": 45, "duration": 10, "velocity": 92}, {"time": 1782, "pitch": 57, "duration": 4, "velocity": 93}, {"time": 1786, "pitch": 64, "duration": 6, "velocity": 100}, {"time": 1788, "pitch": 57, "duration": 4, "velocity": 93}, {"time": 1792, "pitch": 40, "duration": 16, "velocity": 93}, {"time": 1794, "pitch": 47, "duration": 15, "velocity": 70}, {"time": 1798, "pitch": 52, "duration": 7, "velocity": 90}, {"time": 1800, "pitch": 59, "duration": 8, "velocity": 79}, {"time": 1804, "pitch": 67, "duration": 12, "velocity": 122}, {"time": 1806, "pitch": 52, "duration": 5, "velocity": 69}, {"time": 1810, "pitch": 64, "duration": 6, "velocity": 95}, {"time": 1812, "pitch": 59, "duration": 4, "velocity": 55}, {"time": 1816, "pitch": 45, "duration": 17, "velocity": 75}, {"time": 1818, "pitch": 52, "duration": 15, "velocity": 59}, {"time": 1822, "pitch": 57, "duration": 5, "velocity": 76}, {"time": 1828, "pitch": 61, "duration": 10, "velocity": 99}, {"time": 1828, "pitch": 64, "duration": 10, "velocity": 83}, {"time": 1840, "pitch": 38, "duration": 8, "velocity": 89}, {"time": 1842, "pitch": 57, "duration": 7, "velocity": 72}, {"time": 1846, "pitch": 66, "duration": 3, "velocity": 127}, {"time": 1848, "pitch": 36, "duration": 10, "velocity": 95}, {"time": 1854, "pitch": 55, "duration": 4, "velocity": 58}, {"time": 1858, "pitch": 64, "duration": 5, "velocity": 127}, {"time": 1860, "pitch": 60, "duration": 3, "velocity": 112}, {"time": 1864, "pitch": 47, "duration": 8, "velocity": 107}, {"time": 1866, "pitch": 59, "duration": 6, "velocity": 96}, {"time": 1870, "pitch": 66, "duration": 3, "velocity": 127}, {"time": 1872, "pitch": 45, "duration": 14, "velocity": 112}, {"time": 1878, "pitch": 57, "duration": 3, "velocity": 100}, {"time": 1878, "pitch": 61, "duration": 3, "velocity": 61}, {"time": 1878, "pitch": 64, "duration": 2, "velocity": 53}, {"time": 1882, "pitch": 61, "duration": 4, "velocity": 127}, {"time": 1882, "pitch": 64, "duration": 4, "velocity": 127}, {"time": 1884, "pitch": 57, "duration": 3, "velocity": 92}, {"time": 1888, "pitch": 43, "duration": 21, "velocity": 107}, {"time": 1888, "pitch": 59, "duration": 2, "velocity": 122}, {"time": 1888, "pitch": 62, "duration": 2, "velocity": 112}, {"time": 1890, "pitch": 50, "duration": 12, "velocity": 100}, {"time": 1894, "pitch": 55, "duration": 6, "velocity": 117}, {"time": 1896, "pitch": 62, "duration": 3, "velocity": 72}, {"time": 1896, "pitch": 71, "duration": 1, "velocity": 27}, {"time": 1900, "pitch": 62, "duration": 3, "velocity": 77}, {"time": 1900, "pitch": 67, "duration": 6, "velocity": 127}, {"time": 1900, "pitch": 71, "duration": 6, "velocity": 122}, {"time": 1902, "pitch": 50, "duration": 9, "velocity": 37}, {"time": 1902, "pitch": 55, "duration": 3, "velocity": 96}, {"time": 1906, "pitch": 62, "duration": 4, "velocity": 88}, {"time": 1908, "pitch": 67, "duration": 2, "velocity": 41}, {"time": 1908, "pitch": 71, "duration": 2, "velocity": 45}, {"time": 1912, "pitch": 43, "duration": 5, "velocity": 97}, {"time": 1912, "pitch": 67, "duration": 6, "velocity": 122}, {"time": 1912, "pitch": 71, "duration": 7, "velocity": 122}, {"time": 1924, "pitch": 42, "duration": 5, "velocity": 95}, {"time": 1924, "pitch": 54, "duration": 7, "velocity": 77}, {"time": 1924, "pitch": 66, "duration": 2, "velocity": 122}, {"time": 1924, "pitch": 70, "duration": 6, "velocity": 127}, {"time": 1924, "pitch": 73, "duration": 6, "velocity": 127}, {"time": 1930, "pitch": 66, "duration": 1, "velocity": 112}, {"time": 1932, "pitch": 61, "duration": 3, "velocity": 127}, {"time": 1936, "pitch": 47, "duration": 19, "velocity": 78}, {"time": 1938, "pitch": 54, "duration": 15, "velocity": 85}, {"time": 1942, "pitch": 59, "duration": 6, "velocity": 107}, {"time": 1944, "pitch": 62, "duration": 5, "velocity": 96}, {"time": 1944, "pitch": 66, "duration": 2, "velocity": 33}, {"time": 1948, "pitch": 71, "duration": 12, "velocity": 127}, {"time": 1950, "pitch": 59, "duration": 3, "velocity": 112}, {"time": 1954, "pitch": 66, "duration": 6, "velocity": 122}, {"time": 1960, "pitch": 45, "duration": 18, "velocity": 93}, {"time": 1962, "pitch": 52, "duration": 11, "velocity": 93}, {"time": 1966, "pitch": 57, "duration": 4, "velocity": 82}, {"time": 1968, "pitch": 61, "duration": 3, "velocity": 95}, {"time": 1972, "pitch": 57, "duration": 4, "velocity": 117}, {"time": 1972, "pitch": 61, "duration": 4, "velocity": 127}, {"time": 1972, "pitch": 64, "duration": 4, "velocity": 117}, {"time": 1974, "pitch": 52, "duration": 3, "velocity": 112}, {"time": 1978, "pitch": 61, "duration": 6, "velocity": 127}, {"time": 1978, "pitch": 64, "duration": 6, "velocity": 112}, {"time": 1984, "pitch": 40, "duration": 17, "velocity": 100}, {"time": 1986, "pitch": 47, "duration": 16, "velocity": 56}, {"time": 1990, "pitch": 52, "duration": 7, "velocity": 107}, {"time": 1992, "pitch": 59, "duration": 6, "velocity": 96}, {"time": 1996, "pitch": 64, "duration": 7, "velocity": 99}, {"time": 1996, "pitch": 67, "duration": 12, "velocity": 127}, {"time": 1998, "pitch": 52, "duration": 9, "velocity": 99}, {"time": 2002, "pitch": 59, "duration": 5, "velocity": 107}, {"time": 2004, "pitch": 64, "duration": 4, "velocity": 127}, {"time": 2008, "pitch": 42, "duration": 16, "velocity": 95}, {"time": 2008, "pitch": 61, "duration": 7, "velocity": 102}, {"time": 2008, "pitch": 66, "duration": 7, "velocity": 99}, {"time": 2010, "pitch": 49, "duration": 14, "velocity": 58}, {"time": 2014, "pitch": 54, "duration": 6, "velocity": 107}, {"time": 2016, "pitch": 57, "duration": 4, "velocity": 83}, {"time": 2020, "pitch": 61, "duration": 6, "velocity": 127}, {"time": 2020, "pitch": 66, "duration": 6, "velocity": 127}, {"time": 2022, "pitch": 54, "duration": 3, "velocity": 97}, {"time": 2026, "pitch": 57, "duration": 1, "velocity": 117}, {"time": 2032, "pitch": 43, "duration": 22, "velocity": 82}, {"time": 2032, "pitch": 62, "duration": 7, "velocity": 92}, {"time": 2032, "pitch": 67, "duration": 4, "velocity": 86}, {"time": 2032, "pitch": 71, "duration": 7, "velocity": 83}, {"time": 2034, "pitch": 50, "duration": 22, "velocity": 74}, {"time": 2038, "pitch": 55, "duration": 6, "velocity": 112}, {"time": 2040, "pitch": 62, "duration": 8, "velocity": 93}, {"time": 2040, "pitch": 67, "duration": 1, "velocity": 30}, {"time": 2044, "pitch": 71, "duration": 8, "velocity": 122}, {"time": 2046, "pitch": 55, "duration": 3, "velocity": 102}, {"time": 2050, "pitch": 67, "duration": 4, "velocity": 127}, {"time": 2052, "pitch": 64, "duration": 8, "velocity": 78}, {"time": 2056, "pitch": 45, "duration": 19, "velocity": 90}, {"time": 2056, "pitch": 69, "duration": 4, "velocity": 97}, {"time": 2056, "pitch": 73, "duration": 3, "velocity": 117}, {"time": 2058, "pitch": 52, "duration": 11, "velocity": 78}, {"time": 2062, "pitch": 57, "duration": 2, "velocity": 102}, {"time": 2064, "pitch": 59, "duration": 4, "velocity": 88}, {"time": 2068, "pitch": 61, "duration": 6, "velocity": 127}, {"time": 2070, "pitch": 52, "duration": 5, "velocity": 117}, {"time": 2074, "pitch": 59, "duration": 4, "velocity": 112}, {"time": 2076, "pitch": 61, "duration": 3, "velocity": 102}, {"time": 2076, "pitch": 64, "duration": 3, "velocity": 97}, {"time": 2080, "pitch": 43, "duration": 22, "velocity": 83}, {"time": 2082, "pitch": 50, "duration": 22, "velocity": 63}, {"time": 2086, "pitch": 55, "duration": 7, "velocity": 67}, {"time": 2088, "pitch": 62, "duration": 7, "velocity": 38}, {"time": 2092, "pitch": 71, "duration": 36, "velocity": 74}, {"time": 2098, "pitch": 67, "duration": 6, "velocity": 64}, {"time": 2104, "pitch": 43, "duration": 17, "velocity": 39}, {"time": 2106, "pitch": 50, "duration": 14, "velocity": 44}, {"time": 2110, "pitch": 55, "duration": 7, "velocity": 81}, {"time": 2112, "pitch": 66, "duration": 16, "velocity": 72}, {"time": 2116, "pitch": 62, "duration": 1, "velocity": 1}, {"time": 2116, "pitch": 67, "duration": 12, "velocity": 63}, {"time": 2118, "pitch": 55, "duration": 2, "velocity": 38}, {"time": 2122, "pitch": 62, "duration": 6, "velocity": 61}, {"time": 2128, "pitch": 42, "duration": 17, "velocity": 65}, {"time": 2130, "pitch": 49, "duration": 15, "velocity": 35}, {"time": 2134, "pitch": 54, "duration": 7, "velocity": 58}, {"time": 2136, "pitch": 66, "duration": 16, "velocity": 95}, {"time": 2142, "pitch": 54, "duration": 4, "velocity": 56}, {"time": 2146, "pitch": 61, "duration": 5, "velocity": 41}, {"time": 2152, "pitch": 47, "duration": 11, "velocity": 77}, {"time": 2154, "pitch": 59, "duration": 5, "velocity": 58}, {"time": 2158, "pitch": 66, "duration": 7, "velocity": 93}, {"time": 2160, "pitch": 59, "duration": 4, "velocity": 59}, {"time": 2164, "pitch": 45, "duration": 7, "velocity": 77}, {"time": 2166, "pitch": 57, "duration": 4, "velocity": 65}, {"time": 2170, "pitch": 66, "duration": 6, "velocity": 112}, {"time": 2172, "pitch": 57, "duration": 4, "velocity": 53}, {"time": 2176, "pitch": 43, "duration": 22, "velocity": 89}, {"time": 2178, "pitch": 50, "duration": 22, "velocity": 67}, {"time": 2182, "pitch": 55, "duration": 7, "velocity": 89}, {"time": 2184, "pitch": 62, "duration": 5, "velocity": 66}, {"time": 2188, "pitch": 71, "duration": 12, "velocity": 127}, {"time": 2190, "pitch": 55, "duration": 3, "velocity": 81}, {"time": 2194, "pitch": 67, "duration": 6, "velocity": 79}, {"time": 2196, "pitch": 62, "duration": 4, "velocity": 66}, {"time": 2200, "pitch": 45, "duration": 19, "velocity": 75}, {"time": 2202, "pitch": 52, "duration": 16, "velocity": 56}, {"time": 2206, "pitch": 57, "duration": 7, "velocity": 95}, {"time": 2208, "pitch": 64, "duration": 6, "velocity": 82}, {"time": 2212, "pitch": 73, "duration": 11, "velocity": 127}, {"time": 2214, "pitch": 57, "duration": 4, "velocity": 89}, {"time": 2218, "pitch": 69, "duration": 6, "velocity": 93}, {"time": 2220, "pitch": 64, "duration": 5, "velocity": 81}, {"time": 2224, "pitch": 38, "duration": 23, "velocity": 100}, {"time": 2226, "pitch": 45, "duration": 17, "velocity": 92}, {"time": 2230, "pitch": 50, "duration": 7, "velocity": 107}, {"time": 2232, "pitch": 62, "duration": 7, "velocity": 86}, {"time": 2236, "pitch": 69, "duration": 11, "velocity": 122}, {"time": 2238, "pitch": 50, "duration": 4, "velocity": 102}, {"time": 2242, "pitch": 66, "duration": 4, "velocity": 127}, {"time": 2244, "pitch": 62, "duration": 3, "velocity": 100}, {"time": 2248, "pitch": 36, "duration": 14, "velocity": 86}, {"time": 2248, "pitch": 66, "duration": 4, "velocity": 127}, {"time": 2248, "pitch": 69, "duration": 7, "velocity": 112}, {"time": 2248, "pitch": 72, "duration": 5, "velocity": 117}, {"time": 2250, "pitch": 62, "duration": 4, "velocity": 67}, {"time": 2254, "pitch": 66, "duration": 1, "velocity": 107}, {"time": 2256, "pitch": 66, "duration": 3, "velocity": 127}, {"time": 2256, "pitch": 69, "duration": 3, "velocity": 107}, {"time": 2256, "pitch": 72, "duration": 2, "velocity": 102}, {"time": 2260, "pitch": 66, "duration": 3, "velocity": 127}, {"time": 2260, "pitch": 69, "duration": 3, "velocity": 107}, {"time": 2260, "pitch": 72, "duration": 3, "velocity": 100}, {"time": 2262, "pitch": 36, "duration": 7, "velocity": 74}, {"time": 2266, "pitch": 66, "duration": 7, "velocity": 127}, {"time": 2266, "pitch": 69, "duration": 7, "velocity": 107}, {"time": 2266, "pitch": 72, "duration": 7, "velocity": 100}, {"time": 2268, "pitch": 62, "duration": 5, "velocity": 97}, {"time": 2272, "pitch": 43, "duration": 22, "velocity": 107}, {"time": 2274, "pitch": 50, "duration": 22, "velocity": 95}, {"time": 2278, "pitch": 55, "duration": 6, "velocity": 107}, {"time": 2280, "pitch": 62, "duration": 6, "velocity": 96}, {"time": 2284, "pitch": 71, "duration": 20, "velocity": 127}, {"time": 2286, "pitch": 55, "duration": 4, "velocity": 96}, {"time": 2290, "pitch": 67, "duration": 6, "velocity": 127}, {"time": 2292, "pitch": 62, "duration": 17, "velocity": 102}, {"time": 2296, "pitch": 43, "duration": 17, "velocity": 100}, {"time": 2298, "pitch": 50, "duration": 15, "velocity": 95}, {"time": 2302, "pitch": 55, "duration": 7, "velocity": 100}, {"time": 2304, "pitch": 66, "duration": 4, "velocity": 127}, {"time": 2308, "pitch": 67, "duration": 11, "velocity": 100}, {"time": 2310, "pitch": 55, "duration": 3, "velocity": 102}, {"time": 2314, "pitch": 62, "duration": 1, "velocity": 34}, {"time": 2314, "pitch": 71, "duration": 5, "velocity": 100}, {"time": 2316, "pitch": 66, "duration": 4, "velocity": 127}, {"time": 2320, "pitch": 42, "duration": 17, "velocity": 85}, {"time": 2322, "pitch": 49, "duration": 14, "velocity": 77}, {"time": 2326, "pitch": 54, "duration": 6, "velocity": 97}, {"time": 2328, "pitch": 57, "duration": 11, "velocity": 96}, {"time": 2332, "pitch": 66, "duration": 10, "velocity": 127}, {"time": 2334, "pitch": 54, "duration": 3, "velocity": 93}, {"time": 2338, "pitch": 61, "duration": 3, "velocity": 127}, {"time": 2340, "pitch": 57, "duration": 4, "velocity": 93}, {"time": 2344, "pitch": 47, "duration": 11, "velocity": 112}, {"time": 2346, "pitch": 59, "duration": 4, "velocity": 97}, {"time": 2350, "pitch": 66, "duration": 7, "velocity": 127}, {"time": 2352, "pitch": 59, "duration": 4, "velocity": 95}, {"time": 2356, "pitch": 45, "duration": 9, "velocity": 100}, {"time": 2358, "pitch": 57, "duration": 5, "velocity": 85}, {"time": 2362, "pitch": 66, "duration": 5, "velocity": 127}, {"time": 2364, "pitch": 57, "duration": 3, "velocity": 93}, {"time": 2368, "pitch": 40, "duration": 18, "velocity": 93}, {"time": 2370, "pitch": 47, "duration": 16, "velocity": 83}, {"time": 2374, "pitch": 52, "duration": 7, "velocity": 99}, {"time": 2376, "pitch": 59, "duration": 7, "velocity": 97}, {"time": 2380, "pitch": 67, "duration": 12, "velocity": 127}, {"time": 2382, "pitch": 52, "duration": 7, "velocity": 99}, {"time": 2386, "pitch": 64, "duration": 6, "velocity": 127}, {"time": 2388, "pitch": 59, "duration": 4, "velocity": 95}, {"time": 2392, "pitch": 45, "duration": 18, "velocity": 92}, {"time": 2394, "pitch": 52, "duration": 11, "velocity": 93}, {"time": 2398, "pitch": 57, "duration": 3, "velocity": 100}, {"time": 2400, "pitch": 61, "duration": 3, "velocity": 127}, {"time": 2404, "pitch": 61, "duration": 10, "velocity": 64}, {"time": 2404, "pitch": 64, "duration": 10, "velocity": 122}, {"time": 2406, "pitch": 52, "duration": 4, "velocity": 90}, {"time": 2410, "pitch": 57, "duration": 5, "velocity": 102}, {"time": 2416, "pitch": 62, "duration": 7, "velocity": 37}, {"time": 2416, "pitch": 67, "duration": 9, "velocity": 65}, {"time": 2416, "pitch": 43, "duration": 21, "velocity": 73}, {"time": 2416, "pitch": 71, "duration": 8, "velocity": 46}, {"time": 2419, "pitch": 50, "duration": 18, "velocity": 44}, {"time": 2423, "pitch": 55, "duration": 14, "velocity": 61}, {"time": 2426, "pitch": 62, "duration": 20, "velocity": 53}, {"time": 2430, "pitch": 71, "duration": 16, "velocity": 82}, {"time": 2445, "pitch": 42, "duration": 24, "velocity": 73}, {"time": 2449, "pitch": 54, "duration": 19, "velocity": 56}, {"time": 2452, "pitch": 66, "duration": 11, "velocity": 64}, {"time": 2455, "pitch": 69, "duration": 18, "velocity": 48}, {"time": 2458, "pitch": 73, "duration": 15, "velocity": 79}, {"time": 2465, "pitch": 66, "duration": 8, "velocity": 44}, {"time": 2472, "pitch": 40, "duration": 21, "velocity": 65}, {"time": 2475, "pitch": 47, "duration": 18, "velocity": 59}, {"time": 2478, "pitch": 52, "duration": 16, "velocity": 53}, {"time": 2481, "pitch": 64, "duration": 16, "velocity": 57}, {"time": 2485, "pitch": 71, "duration": 12, "velocity": 90}, {"time": 2492, "pitch": 67, "duration": 7, "velocity": 54}, {"time": 2500, "pitch": 64, "duration": 14, "velocity": 69}, {"time": 2500, "pitch": 69, "duration": 8, "velocity": 68}, {"time": 2501, "pitch": 45, "duration": 27, "velocity": 72}, {"time": 2501, "pitch": 73, "duration": 8, "velocity": 85}, {"time": 2504, "pitch": 52, "duration": 23, "velocity": 54}, {"time": 2507, "pitch": 57, "duration": 14, "velocity": 72}, {"time": 2511, "pitch": 69, "duration": 15, "velocity": 54}, {"time": 2541, "pitch": 93, "duration": 6, "velocity": 52}, {"time": 2542, "pitch": 90, "duration": 5, "velocity": 40}, {"time": 2543, "pitch": 88, "duration": 4, "velocity": 39}, {"time": 2543, "pitch": 86, "duration": 4, "velocity": 24}, {"time": 2544, "pitch": 38, "duration": 43, "velocity": 75}, {"time": 2548, "pitch": 45, "duration": 38, "velocity": 72}, {"time": 2550, "pitch": 50, "duration": 36, "velocity": 85}, {"time": 2552, "pitch": 54, "duration": 2, "velocity": 69}, {"time": 2554, "pitch": 57, "duration": 1, "velocity": 71}, {"time": 2556, "pitch": 62, "duration": 4, "velocity": 64}, {"time": 2558, "pitch": 66, "duration": 2, "velocity": 53}, {"time": 2560, "pitch": 69, "duration": 1, "velocity": 42}, {"time": 2563, "pitch": 74, "duration": 5, "velocity": 29}, {"time": 2565, "pitch": 78, "duration": 4, "velocity": 63}, {"time": 2568, "pitch": 81, "duration": 1, "velocity": 56}, {"time": 2574, "pitch": 86, "duration": 13, "velocity": 33}, {"time": 2574, "pitch": 90, "duration": 12, "velocity": 44}, {"time": 2575, "pitch": 93, "duration": 11, "velocity": 41}, {"time": 2576, "pitch": 98, "duration": 10, "velocity": 41}], "annotations": [{"time": 51, "annotation": {"number": 64, "value": 127}, "group": "control_change"}, {"time": 75, "annotation": {"number": 64, "value": 0}, "group": "control_change"}, {"time": 76, "annotation": {"number": 64, "value": 127}, "group": "control_change"}, {"time": 98, "annotation": {"number": 64, "value": 0}, "group": "control_change"}, {"time": 99, "annotation": {"number": 64, "value": 127}, "group": "control_change"}, {"time": 122, "annotation": {"number": 64, "value": 0}, "group": "control_change"}, {"time": 124, "annotation": {"number": 64, "value": 127}, "group": "control_change"}, {"time": 146, "annotation": {"number": 64, "value": 0}, "group": "control_change"}, {"time": 147, "annotation": {"number": 64, "value": 127}, "group": "control_change"}, {"time": 195, "annotation": {"number": 64, "value": 0}, "group": "control_change"}, {"time": 196, "annotation": {"number": 64, "value": 127}, "group": "control_change"}, {"time": 217, "annotation": {"number": 64, "value": 0}, "group": "control_change"}, {"time": 221, "annotation": {"number": 64, "value": 127}, "group": "control_change"}, {"time": 256, "annotation": {"number": 64, "value": 127}, "group": "control_change"}, {"time": 277, "annotation": {"number": 64, "value": 0}, "group": "control_change"}, {"time": 279, "annotation": {"number": 64, "value": 127}, "group": "control_change"}, {"time": 302, "annotation": {"number": 64, "value": 0}, "group": "control_change"}, {"time": 304, "annotation": {"number": 64, "value": 127}, "group": "control_change"}, {"time": 313, "annotation": {"number": 64, "value": 0}, "group": "control_change"}, {"time": 316, "annotation": {"number": 64, "value": 127}, "group": "control_change"}, {"time": 326, "annotation": {"number": 64, "value": 0}, "group": "control_change"}, {"time": 328, "annotation": {"number": 64, "value": 127}, "group": "control_change"}, {"time": 350, "annotation": {"number": 64, "value": 0}, "group": "control_change"}, {"time": 352, "annotation": {"number": 64, "value": 127}, "group": "control_change"}, {"time": 373, "annotation": {"number": 64, "value": 0}, "group": "control_change"}, {"time": 376, "annotation": {"number": 64, "value": 127}, "group": "control_change"}, {"time": 397, "annotation": {"number": 64, "value": 0}, "group": "control_change"}, {"time": 400, "annotation": {"number": 64, "value": 127}, "group": "control_change"}, {"time": 422, "annotation": {"number": 64, "value": 0}, "group": "control_change"}, {"time": 424, "annotation": {"number": 64, "value": 127}, "group": "control_change"}, {"time": 445, "annotation": {"number": 64, "value": 0}, "group": "control_change"}, {"time": 447, "annotation": {"number": 64, "value": 127}, "group": "control_change"}, {"time": 470, "annotation": {"number": 64, "value": 0}, "group": "control_change"}, {"time": 472, "annotation": {"number": 64, "value": 127}, "group": "control_change"}, {"time": 494, "annotation": {"number": 64, "value": 0}, "group": "control_change"}, {"time": 496, "annotation": {"number": 64, "value": 127}, "group": "control_change"}, {"time": 506, "annotation": {"number": 64, "value": 0}, "group": "control_change"}, {"time": 510, "annotation": {"number": 64, "value": 127}, "group": "control_change"}, {"time": 517, "annotation": {"number": 64, "value": 0}, "group": "control_change"}, {"time": 520, "annotation": {"number": 64, "value": 127}, "group": "control_change"}, {"time": 541, "annotation": {"number": 64, "value": 0}, "group": "control_change"}, {"time": 545, "annotation": {"number": 64, "value": 127}, "group": "control_change"}, {"time": 566, "annotation": {"number": 64, "value": 0}, "group": "control_change"}, {"time": 568, "annotation": {"number": 64, "value": 127}, "group": "control_change"}, {"time": 590, "annotation": {"number": 64, "value": 0}, "group": "control_change"}, {"time": 592, "annotation": {"number": 64, "value": 127}, "group": "control_change"}, {"time": 602, "annotation": {"number": 64, "value": 0}, "group": "control_change"}, {"time": 604, "annotation": {"number": 64, "value": 127}, "group": "control_change"}, {"time": 614, "annotation": {"number": 64, "value": 0}, "group": "control_change"}, {"time": 616, "annotation": {"number": 64, "value": 127}, "group": "control_change"}, {"time": 633, "annotation": {"number": 64, "value": 0}, "group": "control_change"}, {"time": 664, "annotation": {"number": 64, "value": 127}, "group": "control_change"}, {"time": 685, "annotation": {"number": 64, "value": 0}, "group": "control_change"}, {"time": 688, "annotation": {"number": 64, "value": 127}, "group": "control_change"}, {"time": 709, "annotation": {"number": 64, "value": 0}, "group": "control_change"}, {"time": 712, "annotation": {"number": 64, "value": 127}, "group": "control_change"}, {"time": 722, "annotation": {"number": 64, "value": 0}, "group": "control_change"}, {"time": 736, "annotation": {"number": 64, "value": 127}, "group": "control_change"}, {"time": 757, "annotation": {"number": 64, "value": 0}, "group": "control_change"}, {"time": 760, "annotation": {"number": 64, "value": 127}, "group": "control_change"}, {"time": 781, "annotation": {"number": 64, "value": 0}, "group": "control_change"}, {"time": 784, "annotation": {"number": 64, "value": 127}, "group": "control_change"}, {"time": 805, "annotation": {"number": 64, "value": 0}, "group": "control_change"}, {"time": 808, "annotation": {"number": 64, "value": 127}, "group": "control_change"}, {"time": 830, "annotation": {"number": 64, "value": 0}, "group": "control_change"}, {"time": 832, "annotation": {"number": 64, "value": 127}, "group": "control_change"}, {"time": 856, "annotation": {"number": 64, "value": 0}, "group": "control_change"}, {"time": 863, "annotation": {"number": 64, "value": 127}, "group": "control_change"}, {"time": 878, "annotation": {"number": 64, "value": 0}, "group": "control_change"}, {"time": 880, "annotation": {"number": 64, "value": 127}, "group": "control_change"}, {"time": 902, "annotation": {"number": 64, "value": 0}, "group": "control_change"}, {"time": 903, "annotation": {"number": 64, "value": 127}, "group": "control_change"}, {"time": 926, "annotation": {"number": 64, "value": 0}, "group": "control_change"}, {"time": 928, "annotation": {"number": 64, "value": 127}, "group": "control_change"}, {"time": 938, "annotation": {"number": 64, "value": 0}, "group": "control_change"}, {"time": 941, "annotation": {"number": 64, "value": 127}, "group": "control_change"}, {"time": 949, "annotation": {"number": 64, "value": 0}, "group": "control_change"}, {"time": 952, "annotation": {"number": 64, "value": 127}, "group": "control_change"}, {"time": 972, "annotation": {"number": 64, "value": 0}, "group": "control_change"}, {"time": 976, "annotation": {"number": 64, "value": 127}, "group": "control_change"}, {"time": 998, "annotation": {"number": 64, "value": 0}, "group": "control_change"}, {"time": 999, "annotation": {"number": 64, "value": 127}, "group": "control_change"}, {"time": 1022, "annotation": {"number": 64, "value": 0}, "group": "control_change"}, {"time": 1024, "annotation": {"number": 64, "value": 127}, "group": "control_change"}, {"time": 1045, "annotation": {"number": 64, "value": 0}, "group": "control_change"}, {"time": 1048, "annotation": {"number": 64, "value": 127}, "group": "control_change"}, {"time": 1069, "annotation": {"number": 64, "value": 0}, "group": "control_change"}, {"time": 1071, "annotation": {"number": 64, "value": 127}, "group": "control_change"}, {"time": 1094, "annotation": {"number": 64, "value": 0}, "group": "control_change"}, {"time": 1096, "annotation": {"number": 64, "value": 127}, "group": "control_change"}, {"time": 1118, "annotation": {"number": 64, "value": 0}, "group": "control_change"}, {"time": 1119, "annotation": {"number": 64, "value": 127}, "group": "control_change"}, {"time": 1129, "annotation": {"number": 64, "value": 0}, "group": "control_change"}, {"time": 1133, "annotation": {"number": 64, "value": 127}, "group": "control_change"}, {"time": 1141, "annotation": {"number": 64, "value": 0}, "group": "control_change"}, {"time": 1144, "annotation": {"number": 64, "value": 127}, "group": "control_change"}, {"time": 1165, "annotation": {"number": 64, "value": 0}, "group": "control_change"}, {"time": 1168, "annotation": {"number": 64, "value": 127}, "group": "control_change"}, {"time": 1189, "annotation": {"number": 64, "value": 0}, "group": "control_change"}, {"time": 1192, "annotation": {"number": 64, "value": 127}, "group": "control_change"}, {"time": 1214, "annotation": {"number": 64, "value": 0}, "group": "control_change"}, {"time": 1216, "annotation": {"number": 64, "value": 127}, "group": "control_change"}, {"time": 1238, "annotation": {"number": 64, "value": 0}, "group": "control_change"}, {"time": 1240, "annotation": {"number": 64, "value": 127}, "group": "control_change"}, {"time": 1262, "annotation": {"number": 64, "value": 0}, "group": "control_change"}, {"time": 1264, "annotation": {"number": 64, "value": 127}, "group": "control_change"}, {"time": 1286, "annotation": {"number": 64, "value": 0}, "group": "control_change"}, {"time": 1312, "annotation": {"number": 64, "value": 127}, "group": "control_change"}, {"time": 1333, "annotation": {"number": 64, "value": 0}, "group": "control_change"}, {"time": 1336, "annotation": {"number": 64, "value": 127}, "group": "control_change"}, {"time": 1357, "annotation": {"number": 64, "value": 0}, "group": "control_change"}, {"time": 1360, "annotation": {"number": 64, "value": 127}, "group": "control_change"}, {"time": 1370, "annotation": {"number": 64, "value": 0}, "group": "control_change"}, {"time": 1384, "annotation": {"number": 64, "value": 127}, "group": "control_change"}, {"time": 1405, "annotation": {"number": 64, "value": 0}, "group": "control_change"}, {"time": 1408, "annotation": {"number": 64, "value": 127}, "group": "control_change"}, {"time": 1429, "annotation": {"number": 64, "value": 0}, "group": "control_change"}, {"time": 1432, "annotation": {"number": 64, "value": 127}, "group": "control_change"}, {"time": 1453, "annotation": {"number": 64, "value": 0}, "group": "control_change"}, {"time": 1456, "annotation": {"number": 64, "value": 127}, "group": "control_change"}, {"time": 1478, "annotation": {"number": 64, "value": 0}, "group": "control_change"}, {"time": 1480, "annotation": {"number": 64, "value": 127}, "group": "control_change"}, {"time": 1504, "annotation": {"number": 64, "value": 0}, "group": "control_change"}, {"time": 1511, "annotation": {"number": 64, "value": 127}, "group": "control_change"}, {"time": 1526, "annotation": {"number": 64, "value": 0}, "group": "control_change"}, {"time": 1528, "annotation": {"number": 64, "value": 127}, "group": "control_change"}, {"time": 1550, "annotation": {"number": 64, "value": 0}, "group": "control_change"}, {"time": 1551, "annotation": {"number": 64, "value": 127}, "group": "control_change"}, {"time": 1574, "annotation": {"number": 64, "value": 0}, "group": "control_change"}, {"time": 1576, "annotation": {"number": 64, "value": 127}, "group": "control_change"}, {"time": 1586, "annotation": {"number": 64, "value": 0}, "group": "control_change"}, {"time": 1589, "annotation": {"number": 64, "value": 127}, "group": "control_change"}, {"time": 1597, "annotation": {"number": 64, "value": 0}, "group": "control_change"}, {"time": 1600, "annotation": {"number": 64, "value": 127}, "group": "control_change"}, {"time": 1620, "annotation": {"number": 64, "value": 0}, "group": "control_change"}, {"time": 1624, "annotation": {"number": 64, "value": 127}, "group": "control_change"}, {"time": 1646, "annotation": {"number": 64, "value": 0}, "group": "control_change"}, {"time": 1647, "annotation": {"number": 64, "value": 127}, "group": "control_change"}, {"time": 1670, "annotation": {"number": 64, "value": 0}, "group": "control_change"}, {"time": 1672, "annotation": {"number": 64, "value": 127}, "group": "control_change"}, {"time": 1693, "annotation": {"number": 64, "value": 0}, "group": "control_change"}, {"time": 1696, "annotation": {"number": 64, "value": 127}, "group": "control_change"}, {"time": 1717, "annotation": {"number": 64, "value": 0}, "group": "control_change"}, {"time": 1719, "annotation": {"number": 64, "value": 127}, "group": "control_change"}, {"time": 1742, "annotation": {"number": 64, "value": 0}, "group": "control_change"}, {"time": 1744, "annotation": {"number": 64, "value": 127}, "group": "control_change"}, {"time": 1766, "annotation": {"number": 64, "value": 0}, "group": "control_change"}, {"time": 1767, "annotation": {"number": 64, "value": 127}, "group": "control_change"}, {"time": 1777, "annotation": {"number": 64, "value": 0}, "group": "control_change"}, {"time": 1781, "annotation": {"number": 64, "value": 127}, "group": "control_change"}, {"time": 1789, "annotation": {"number": 64, "value": 0}, "group": "control_change"}, {"time": 1792, "annotation": {"number": 64, "value": 127}, "group": "control_change"}, {"time": 1813, "annotation": {"number": 64, "value": 0}, "group": "control_change"}, {"time": 1816, "annotation": {"number": 64, "value": 127}, "group": "control_change"}, {"time": 1837, "annotation": {"number": 64, "value": 0}, "group": "control_change"}, {"time": 1839, "annotation": {"number": 64, "value": 127}, "group": "control_change"}, {"time": 1849, "annotation": {"number": 64, "value": 0}, "group": "control_change"}, {"time": 1857, "annotation": {"number": 64, "value": 127}, "group": "control_change"}, {"time": 1862, "annotation": {"number": 64, "value": 0}, "group": "control_change"}, {"time": 1864, "annotation": {"number": 64, "value": 127}, "group": "control_change"}, {"time": 1872, "annotation": {"number": 64, "value": 0}, "group": "control_change"}, {"time": 1879, "annotation": {"number": 64, "value": 127}, "group": "control_change"}, {"time": 1885, "annotation": {"number": 64, "value": 0}, "group": "control_change"}, {"time": 1888, "annotation": {"number": 64, "value": 127}, "group": "control_change"}, {"time": 1923, "annotation": {"number": 64, "value": 0}, "group": "control_change"}, {"time": 1924, "annotation": {"number": 64, "value": 127}, "group": "control_change"}, {"time": 1934, "annotation": {"number": 64, "value": 0}, "group": "control_change"}, {"time": 1935, "annotation": {"number": 64, "value": 127}, "group": "control_change"}, {"time": 1957, "annotation": {"number": 64, "value": 0}, "group": "control_change"}, {"time": 1960, "annotation": {"number": 64, "value": 127}, "group": "control_change"}, {"time": 1982, "annotation": {"number": 64, "value": 0}, "group": "control_change"}, {"time": 1984, "annotation": {"number": 64, "value": 127}, "group": "control_change"}, {"time": 2005, "annotation": {"number": 64, "value": 0}, "group": "control_change"}, {"time": 2008, "annotation": {"number": 64, "value": 127}, "group": "control_change"}, {"time": 2030, "annotation": {"number": 64, "value": 0}, "group": "control_change"}, {"time": 2032, "annotation": {"number": 64, "value": 127}, "group": "control_change"}, {"time": 2053, "annotation": {"number": 64, "value": 0}, "group": "control_change"}, {"time": 2056, "annotation": {"number": 64, "value": 127}, "group": "control_change"}, {"time": 2078, "annotation": {"number": 64, "value": 0}, "group": "control_change"}, {"time": 2087, "annotation": {"number": 64, "value": 127}, "group": "control_change"}, {"time": 2102, "annotation": {"number": 64, "value": 0}, "group": "control_change"}, {"time": 2104, "annotation": {"number": 64, "value": 127}, "group": "control_change"}, {"time": 2125, "annotation": {"number": 64, "value": 0}, "group": "control_change"}, {"time": 2128, "annotation": {"number": 64, "value": 127}, "group": "control_change"}, {"time": 2150, "annotation": {"number": 64, "value": 0}, "group": "control_change"}, {"time": 2152, "annotation": {"number": 64, "value": 127}, "group": "control_change"}, {"time": 2162, "annotation": {"number": 64, "value": 0}, "group": "control_change"}, {"time": 2165, "annotation": {"number": 64, "value": 127}, "group": "control_change"}, {"time": 2173, "annotation": {"number": 64, "value": 0}, "group": "control_change"}, {"time": 2176, "annotation": {"number": 64, "value": 127}, "group": "control_change"}, {"time": 2198, "annotation": {"number": 64, "value": 0}, "group": "control_change"}, {"time": 2202, "annotation": {"number": 64, "value": 127}, "group": "control_change"}, {"time": 2222, "annotation": {"number": 64, "value": 0}, "group": "control_change"}, {"time": 2224, "annotation": {"number": 64, "value": 127}, "group": "control_change"}, {"time": 2245, "annotation": {"number": 64, "value": 0}, "group": "control_change"}, {"time": 2248, "annotation": {"number": 64, "value": 127}, "group": "control_change"}, {"time": 2257, "annotation": {"number": 64, "value": 0}, "group": "control_change"}, {"time": 2260, "annotation": {"number": 64, "value": 127}, "group": "control_change"}, {"time": 2269, "annotation": {"number": 64, "value": 0}, "group": "control_change"}, {"time": 2273, "annotation": {"number": 64, "value": 127}, "group": "control_change"}, {"time": 2294, "annotation": {"number": 64, "value": 0}, "group": "control_change"}, {"time": 2296, "annotation": {"number": 64, "value": 127}, "group": "control_change"}, {"time": 2318, "annotation": {"number": 64, "value": 0}, "group": "control_change"}, {"time": 2320, "annotation": {"number": 64, "value": 127}, "group": "control_change"}, {"time": 2341, "annotation": {"number": 64, "value": 0}, "group": "control_change"}, {"time": 2344, "annotation": {"number": 64, "value": 127}, "group": "control_change"}, {"time": 2352, "annotation": {"number": 64, "value": 0}, "group": "control_change"}, {"time": 2356, "annotation": {"number": 64, "value": 127}, "group": "control_change"}, {"time": 2365, "annotation": {"number": 64, "value": 0}, "group": "control_change"}, {"time": 2367, "annotation": {"number": 64, "value": 127}, "group": "control_change"}, {"time": 2390, "annotation": {"number": 64, "value": 0}, "group": "control_change"}, {"time": 2392, "annotation": {"number": 64, "value": 127}, "group": "control_change"}, {"time": 2412, "annotation": {"number": 64, "value": 0}, "group": "control_change"}, {"time": 2418, "annotation": {"number": 64, "value": 127}, "group": "control_change"}, {"time": 2446, "annotation": {"number": 64, "value": 0}, "group": "control_change"}, {"time": 2451, "annotation": {"number": 64, "value": 127}, "group": "control_change"}, {"time": 2471, "annotation": {"number": 64, "value": 0}, "group": "control_change"}, {"time": 2473, "annotation": {"number": 64, "value": 127}, "group": "control_change"}, {"time": 2500, "annotation": {"number": 64, "value": 0}, "group": "control_change"}, {"time": 2503, "annotation": {"number": 64, "value": 127}, "group": "control_change"}, {"time": 2634, "annotation": {"number": 64, "value": 0}, "group": "control_change"}, {"time": 2635, "annotation": {"number": 64, "value": 127}, "group": "control_change"}, {"time": 2636, "annotation": {"number": 64, "value": 0}, "group": "control_change"}, {"time": 2636, "annotation": {"number": 64, "value": 127}, "group": "control_change"}]}]}