{"metadata": {"schema_version": "0.2", "title": "None", "source_filename": "463.mid", "source_format": "midi"}, "resolution": 12, "tempos": [{"time": 0, "qpm": 60.0}], "time_signatures": [{"time": 0, "numerator": 1, "denominator": 4}], "tracks": [{"program": 4, "is_drum": false, "name": "MELODY", "notes": [{"time": 315, "pitch": 69, "duration": 8, "velocity": 99}, {"time": 324, "pitch": 66, "duration": 8, "velocity": 93}, {"time": 333, "pitch": 71, "duration": 3, "velocity": 117}, {"time": 336, "pitch": 69, "duration": 2, "velocity": 83}, {"time": 339, "pitch": 68, "duration": 8, "velocity": 93}, {"time": 348, "pitch": 66, "duration": 6, "velocity": 112}, {"time": 357, "pitch": 71, "duration": 3, "velocity": 96}, {"time": 360, "pitch": 69, "duration": 1, "velocity": 74}, {"time": 363, "pitch": 68, "duration": 7, "velocity": 99}, {"time": 372, "pitch": 69, "duration": 6, "velocity": 96}, {"time": 378, "pitch": 71, "duration": 9, "velocity": 96}, {"time": 387, "pitch": 73, "duration": 18, "velocity": 90}, {"time": 411, "pitch": 66, "duration": 3, "velocity": 112}, {"time": 414, "pitch": 68, "duration": 5, "velocity": 86}, {"time": 420, "pitch": 69, "duration": 8, "velocity": 88}, {"time": 429, "pitch": 73, "duration": 3, "velocity": 107}, {"time": 432, "pitch": 71, "duration": 2, "velocity": 76}, {"time": 435, "pitch": 68, "duration": 8, "velocity": 89}, {"time": 444, "pitch": 69, "duration": 6, "velocity": 88}, {"time": 453, "pitch": 73, "duration": 3, "velocity": 107}, {"time": 456, "pitch": 71, "duration": 3, "velocity": 67}, {"time": 459, "pitch": 68, "duration": 6, "velocity": 90}, {"time": 465, "pitch": 71, "duration": 4, "velocity": 69}, {"time": 468, "pitch": 69, "duration": 11, "velocity": 76}, {"time": 495, "pitch": 69, "duration": 3, "velocity": 99}, {"time": 498, "pitch": 71, "duration": 2, "velocity": 92}, {"time": 501, "pitch": 73, "duration": 3, "velocity": 95}, {"time": 504, "pitch": 74, "duration": 3, "velocity": 82}, {"time": 507, "pitch": 73, "duration": 9, "velocity": 117}, {"time": 516, "pitch": 71, "duration": 6, "velocity": 95}, {"time": 525, "pitch": 76, "duration": 2, "velocity": 100}, {"time": 528, "pitch": 74, "duration": 2, "velocity": 88}, {"time": 531, "pitch": 73, "duration": 4, "velocity": 92}, {"time": 537, "pitch": 71, "duration": 1, "velocity": 86}, {"time": 540, "pitch": 73, "duration": 5, "velocity": 97}, {"time": 546, "pitch": 74, "duration": 6, "velocity": 95}, {"time": 555, "pitch": 76, "duration": 4, "velocity": 107}, {"time": 561, "pitch": 73, "duration": 3, "velocity": 96}, {"time": 567, "pitch": 76, "duration": 3, "velocity": 93}, {"time": 573, "pitch": 78, "duration": 3, "velocity": 107}, {"time": 579, "pitch": 69, "duration": 6, "velocity": 97}, {"time": 600, "pitch": 69, "duration": 2, "velocity": 90}, {"time": 602, "pitch": 68, "duration": 6, "velocity": 112}, {"time": 609, "pitch": 68, "duration": 3, "velocity": 93}, {"time": 612, "pitch": 69, "duration": 7, "velocity": 96}, {"time": 621, "pitch": 71, "duration": 3, "velocity": 97}, {"time": 627, "pitch": 73, "duration": 4, "velocity": 122}, {"time": 633, "pitch": 71, "duration": 1, "velocity": 93}, {"time": 636, "pitch": 69, "duration": 4, "velocity": 96}, {"time": 645, "pitch": 68, "duration": 2, "velocity": 100}, {"time": 648, "pitch": 71, "duration": 7, "velocity": 100}, {"time": 657, "pitch": 69, "duration": 19, "velocity": 102}, {"time": 681, "pitch": 73, "duration": 1, "velocity": 117}, {"time": 684, "pitch": 74, "duration": 6, "velocity": 99}, {"time": 693, "pitch": 73, "duration": 2, "velocity": 112}, {"time": 696, "pitch": 76, "duration": 8, "velocity": 112}, {"time": 705, "pitch": 73, "duration": 1, "velocity": 112}, {"time": 708, "pitch": 74, "duration": 6, "velocity": 102}, {"time": 717, "pitch": 73, "duration": 2, "velocity": 112}, {"time": 720, "pitch": 76, "duration": 8, "velocity": 112}, {"time": 729, "pitch": 69, "duration": 1, "velocity": 99}, {"time": 732, "pitch": 71, "duration": 7, "velocity": 122}, {"time": 741, "pitch": 69, "duration": 2, "velocity": 96}, {"time": 744, "pitch": 73, "duration": 6, "velocity": 127}, {"time": 753, "pitch": 69, "duration": 1, "velocity": 97}, {"time": 756, "pitch": 71, "duration": 6, "velocity": 122}, {"time": 765, "pitch": 69, "duration": 1, "velocity": 96}, {"time": 768, "pitch": 73, "duration": 6, "velocity": 117}, {"time": 780, "pitch": 69, "duration": 2, "velocity": 107}, {"time": 783, "pitch": 71, "duration": 5, "velocity": 122}, {"time": 789, "pitch": 69, "duration": 5, "velocity": 112}, {"time": 795, "pitch": 66, "duration": 6, "velocity": 100}, {"time": 801, "pitch": 78, "duration": 1, "velocity": 117}, {"time": 804, "pitch": 78, "duration": 8, "velocity": 122}, {"time": 813, "pitch": 76, "duration": 1, "velocity": 97}, {"time": 816, "pitch": 76, "duration": 6, "velocity": 102}, {"time": 825, "pitch": 69, "duration": 2, "velocity": 93}, {"time": 828, "pitch": 71, "duration": 6, "velocity": 122}, {"time": 834, "pitch": 73, "duration": 6, "velocity": 102}, {"time": 843, "pitch": 74, "duration": 3, "velocity": 100}, {"time": 849, "pitch": 66, "duration": 2, "velocity": 97}, {"time": 852, "pitch": 73, "duration": 6, "velocity": 97}, {"time": 861, "pitch": 69, "duration": 1, "velocity": 99}, {"time": 864, "pitch": 71, "duration": 8, "velocity": 117}, {"time": 873, "pitch": 73, "duration": 1, "velocity": 122}, {"time": 876, "pitch": 74, "duration": 6, "velocity": 117}, {"time": 885, "pitch": 73, "duration": 2, "velocity": 127}, {"time": 888, "pitch": 76, "duration": 7, "velocity": 112}, {"time": 897, "pitch": 73, "duration": 2, "velocity": 112}, {"time": 900, "pitch": 74, "duration": 6, "velocity": 107}, {"time": 909, "pitch": 73, "duration": 2, "velocity": 127}, {"time": 912, "pitch": 78, "duration": 5, "velocity": 127}, {"time": 918, "pitch": 76, "duration": 7, "velocity": 117}, {"time": 924, "pitch": 73, "duration": 2, "velocity": 95}, {"time": 927, "pitch": 74, "duration": 4, "velocity": 100}, {"time": 933, "pitch": 73, "duration": 4, "velocity": 122}, {"time": 939, "pitch": 81, "duration": 4, "velocity": 122}, {"time": 945, "pitch": 81, "duration": 2, "velocity": 107}, {"time": 948, "pitch": 80, "duration": 2, "velocity": 112}, {"time": 954, "pitch": 76, "duration": 3, "velocity": 99}, {"time": 960, "pitch": 73, "duration": 4, "velocity": 99}, {"time": 972, "pitch": 69, "duration": 2, "velocity": 112}, {"time": 975, "pitch": 71, "duration": 4, "velocity": 117}, {"time": 981, "pitch": 69, "duration": 3, "velocity": 122}, {"time": 987, "pitch": 66, "duration": 3, "velocity": 127}, {"time": 993, "pitch": 78, "duration": 1, "velocity": 127}, {"time": 996, "pitch": 78, "duration": 7, "velocity": 102}, {"time": 1005, "pitch": 76, "duration": 1, "velocity": 100}, {"time": 1008, "pitch": 76, "duration": 4, "velocity": 117}, {"time": 1017, "pitch": 69, "duration": 2, "velocity": 96}, {"time": 1020, "pitch": 71, "duration": 3, "velocity": 112}, {"time": 1026, "pitch": 73, "duration": 3, "velocity": 102}, {"time": 1032, "pitch": 74, "duration": 15, "velocity": 122}, {"time": 1056, "pitch": 69, "duration": 1, "velocity": 99}, {"time": 1059, "pitch": 69, "duration": 3, "velocity": 92}, {"time": 1065, "pitch": 66, "duration": 2, "velocity": 100}, {"time": 1068, "pitch": 73, "duration": 7, "velocity": 127}, {"time": 1080, "pitch": 68, "duration": 2, "velocity": 107}, {"time": 1083, "pitch": 71, "duration": 6, "velocity": 100}, {"time": 1089, "pitch": 69, "duration": 19, "velocity": 97}, {"time": 1263, "pitch": 69, "duration": 3, "velocity": 99}, {"time": 1266, "pitch": 71, "duration": 2, "velocity": 92}, {"time": 1269, "pitch": 73, "duration": 3, "velocity": 95}, {"time": 1272, "pitch": 74, "duration": 3, "velocity": 82}, {"time": 1275, "pitch": 73, "duration": 9, "velocity": 117}, {"time": 1284, "pitch": 71, "duration": 6, "velocity": 95}, {"time": 1293, "pitch": 76, "duration": 2, "velocity": 100}, {"time": 1296, "pitch": 74, "duration": 2, "velocity": 88}, {"time": 1299, "pitch": 73, "duration": 4, "velocity": 92}, {"time": 1305, "pitch": 71, "duration": 1, "velocity": 86}, {"time": 1308, "pitch": 73, "duration": 5, "velocity": 97}, {"time": 1314, "pitch": 74, "duration": 6, "velocity": 95}, {"time": 1323, "pitch": 76, "duration": 4, "velocity": 107}, {"time": 1329, "pitch": 73, "duration": 3, "velocity": 96}, {"time": 1335, "pitch": 76, "duration": 3, "velocity": 93}, {"time": 1341, "pitch": 78, "duration": 3, "velocity": 107}, {"time": 1347, "pitch": 69, "duration": 6, "velocity": 97}, {"time": 1368, "pitch": 69, "duration": 2, "velocity": 90}, {"time": 1371, "pitch": 66, "duration": 5, "velocity": 112}, {"time": 1377, "pitch": 68, "duration": 3, "velocity": 93}, {"time": 1380, "pitch": 69, "duration": 7, "velocity": 96}, {"time": 1389, "pitch": 71, "duration": 3, "velocity": 97}, {"time": 1395, "pitch": 73, "duration": 4, "velocity": 122}, {"time": 1401, "pitch": 71, "duration": 1, "velocity": 93}, {"time": 1404, "pitch": 69, "duration": 4, "velocity": 96}, {"time": 1413, "pitch": 68, "duration": 2, "velocity": 100}, {"time": 1416, "pitch": 71, "duration": 7, "velocity": 100}, {"time": 1425, "pitch": 69, "duration": 19, "velocity": 102}, {"time": 1449, "pitch": 73, "duration": 1, "velocity": 117}, {"time": 1452, "pitch": 74, "duration": 6, "velocity": 99}, {"time": 1461, "pitch": 73, "duration": 2, "velocity": 112}, {"time": 1464, "pitch": 76, "duration": 8, "velocity": 112}, {"time": 1473, "pitch": 73, "duration": 1, "velocity": 112}, {"time": 1476, "pitch": 74, "duration": 6, "velocity": 102}, {"time": 1485, "pitch": 73, "duration": 2, "velocity": 112}, {"time": 1488, "pitch": 76, "duration": 8, "velocity": 112}, {"time": 1497, "pitch": 69, "duration": 1, "velocity": 99}, {"time": 1500, "pitch": 71, "duration": 7, "velocity": 122}, {"time": 1509, "pitch": 69, "duration": 2, "velocity": 96}, {"time": 1512, "pitch": 73, "duration": 6, "velocity": 127}, {"time": 1521, "pitch": 69, "duration": 1, "velocity": 97}, {"time": 1524, "pitch": 71, "duration": 6, "velocity": 122}, {"time": 1533, "pitch": 69, "duration": 1, "velocity": 96}, {"time": 1536, "pitch": 73, "duration": 6, "velocity": 117}, {"time": 1548, "pitch": 69, "duration": 2, "velocity": 107}, {"time": 1551, "pitch": 71, "duration": 5, "velocity": 122}, {"time": 1557, "pitch": 69, "duration": 5, "velocity": 112}, {"time": 1563, "pitch": 66, "duration": 6, "velocity": 100}, {"time": 1569, "pitch": 78, "duration": 1, "velocity": 117}, {"time": 1572, "pitch": 78, "duration": 8, "velocity": 122}, {"time": 1581, "pitch": 76, "duration": 1, "velocity": 97}, {"time": 1584, "pitch": 76, "duration": 6, "velocity": 102}, {"time": 1593, "pitch": 69, "duration": 2, "velocity": 93}, {"time": 1596, "pitch": 71, "duration": 6, "velocity": 122}, {"time": 1602, "pitch": 73, "duration": 6, "velocity": 102}, {"time": 1611, "pitch": 74, "duration": 3, "velocity": 100}, {"time": 1617, "pitch": 66, "duration": 2, "velocity": 97}, {"time": 1620, "pitch": 73, "duration": 6, "velocity": 97}, {"time": 1629, "pitch": 69, "duration": 1, "velocity": 99}, {"time": 1632, "pitch": 71, "duration": 8, "velocity": 117}, {"time": 1641, "pitch": 73, "duration": 1, "velocity": 122}, {"time": 1644, "pitch": 74, "duration": 6, "velocity": 117}, {"time": 1653, "pitch": 73, "duration": 2, "velocity": 127}, {"time": 1656, "pitch": 76, "duration": 7, "velocity": 112}, {"time": 1665, "pitch": 73, "duration": 2, "velocity": 112}, {"time": 1668, "pitch": 74, "duration": 6, "velocity": 107}, {"time": 1677, "pitch": 73, "duration": 2, "velocity": 127}, {"time": 1680, "pitch": 78, "duration": 5, "velocity": 127}, {"time": 1686, "pitch": 76, "duration": 7, "velocity": 117}, {"time": 1692, "pitch": 73, "duration": 2, "velocity": 95}, {"time": 1695, "pitch": 74, "duration": 4, "velocity": 100}, {"time": 1701, "pitch": 73, "duration": 4, "velocity": 122}, {"time": 1707, "pitch": 81, "duration": 4, "velocity": 122}, {"time": 1713, "pitch": 81, "duration": 2, "velocity": 107}, {"time": 1716, "pitch": 80, "duration": 2, "velocity": 112}, {"time": 1722, "pitch": 76, "duration": 3, "velocity": 99}, {"time": 1728, "pitch": 73, "duration": 4, "velocity": 99}, {"time": 1740, "pitch": 69, "duration": 2, "velocity": 112}, {"time": 1743, "pitch": 71, "duration": 4, "velocity": 117}, {"time": 1749, "pitch": 69, "duration": 3, "velocity": 122}, {"time": 1755, "pitch": 66, "duration": 3, "velocity": 127}, {"time": 1761, "pitch": 78, "duration": 1, "velocity": 127}, {"time": 1764, "pitch": 78, "duration": 7, "velocity": 102}, {"time": 1773, "pitch": 76, "duration": 1, "velocity": 100}, {"time": 1776, "pitch": 76, "duration": 4, "velocity": 117}, {"time": 1785, "pitch": 69, "duration": 2, "velocity": 96}, {"time": 1788, "pitch": 71, "duration": 3, "velocity": 112}, {"time": 1794, "pitch": 73, "duration": 3, "velocity": 102}, {"time": 1800, "pitch": 74, "duration": 15, "velocity": 122}, {"time": 1824, "pitch": 69, "duration": 1, "velocity": 99}, {"time": 1827, "pitch": 69, "duration": 3, "velocity": 92}, {"time": 1833, "pitch": 66, "duration": 2, "velocity": 100}, {"time": 1836, "pitch": 73, "duration": 7, "velocity": 127}, {"time": 1848, "pitch": 68, "duration": 2, "velocity": 107}, {"time": 1851, "pitch": 71, "duration": 6, "velocity": 100}, {"time": 1857, "pitch": 69, "duration": 6, "velocity": 97}, {"time": 1866, "pitch": 73, "duration": 1, "velocity": 122}, {"time": 1869, "pitch": 78, "duration": 1, "velocity": 112}, {"time": 1872, "pitch": 76, "duration": 4, "velocity": 127}, {"time": 1878, "pitch": 73, "duration": 1, "velocity": 117}, {"time": 1881, "pitch": 78, "duration": 1, "velocity": 97}, {"time": 1884, "pitch": 76, "duration": 3, "velocity": 102}, {"time": 1890, "pitch": 73, "duration": 1, "velocity": 122}, {"time": 1893, "pitch": 78, "duration": 1, "velocity": 122}, {"time": 1896, "pitch": 76, "duration": 4, "velocity": 127}, {"time": 1917, "pitch": 74, "duration": 1, "velocity": 117}, {"time": 1920, "pitch": 73, "duration": 1, "velocity": 107}, {"time": 1923, "pitch": 74, "duration": 3, "velocity": 127}, {"time": 1929, "pitch": 74, "duration": 2, "velocity": 112}, {"time": 1932, "pitch": 71, "duration": 4, "velocity": 117}, {"time": 1938, "pitch": 69, "duration": 5, "velocity": 102}, {"time": 1944, "pitch": 73, "duration": 6, "velocity": 127}, {"time": 1950, "pitch": 71, "duration": 3, "velocity": 96}, {"time": 1953, "pitch": 69, "duration": 7, "velocity": 97}, {"time": 1965, "pitch": 78, "duration": 1, "velocity": 127}, {"time": 1968, "pitch": 80, "duration": 1, "velocity": 100}, {"time": 1971, "pitch": 81, "duration": 4, "velocity": 122}, {"time": 1977, "pitch": 80, "duration": 2, "velocity": 127}, {"time": 1980, "pitch": 78, "duration": 3, "velocity": 117}, {"time": 1986, "pitch": 76, "duration": 3, "velocity": 122}, {"time": 1992, "pitch": 78, "duration": 26, "velocity": 127}, {"time": 2037, "pitch": 73, "duration": 1, "velocity": 117}, {"time": 2040, "pitch": 74, "duration": 6, "velocity": 99}, {"time": 2049, "pitch": 73, "duration": 2, "velocity": 112}, {"time": 2052, "pitch": 76, "duration": 8, "velocity": 112}, {"time": 2061, "pitch": 73, "duration": 1, "velocity": 112}, {"time": 2064, "pitch": 74, "duration": 6, "velocity": 102}, {"time": 2073, "pitch": 73, "duration": 2, "velocity": 112}, {"time": 2076, "pitch": 76, "duration": 8, "velocity": 112}, {"time": 2085, "pitch": 69, "duration": 1, "velocity": 99}, {"time": 2088, "pitch": 71, "duration": 7, "velocity": 122}, {"time": 2097, "pitch": 69, "duration": 2, "velocity": 96}, {"time": 2100, "pitch": 73, "duration": 6, "velocity": 127}, {"time": 2109, "pitch": 69, "duration": 1, "velocity": 97}, {"time": 2112, "pitch": 71, "duration": 6, "velocity": 122}, {"time": 2121, "pitch": 69, "duration": 1, "velocity": 96}, {"time": 2124, "pitch": 73, "duration": 6, "velocity": 117}, {"time": 2136, "pitch": 69, "duration": 2, "velocity": 107}, {"time": 2139, "pitch": 71, "duration": 5, "velocity": 122}, {"time": 2145, "pitch": 69, "duration": 5, "velocity": 112}, {"time": 2151, "pitch": 66, "duration": 6, "velocity": 100}, {"time": 2157, "pitch": 78, "duration": 1, "velocity": 117}, {"time": 2160, "pitch": 78, "duration": 8, "velocity": 122}, {"time": 2169, "pitch": 76, "duration": 1, "velocity": 97}, {"time": 2172, "pitch": 76, "duration": 6, "velocity": 102}, {"time": 2181, "pitch": 69, "duration": 2, "velocity": 93}, {"time": 2184, "pitch": 71, "duration": 6, "velocity": 122}, {"time": 2190, "pitch": 73, "duration": 6, "velocity": 102}, {"time": 2199, "pitch": 74, "duration": 3, "velocity": 100}, {"time": 2205, "pitch": 66, "duration": 2, "velocity": 97}, {"time": 2208, "pitch": 73, "duration": 6, "velocity": 97}, {"time": 2217, "pitch": 69, "duration": 1, "velocity": 99}, {"time": 2220, "pitch": 71, "duration": 8, "velocity": 117}, {"time": 2229, "pitch": 73, "duration": 1, "velocity": 122}, {"time": 2232, "pitch": 74, "duration": 6, "velocity": 117}, {"time": 2241, "pitch": 73, "duration": 2, "velocity": 127}, {"time": 2244, "pitch": 76, "duration": 7, "velocity": 112}, {"time": 2253, "pitch": 73, "duration": 2, "velocity": 112}, {"time": 2256, "pitch": 74, "duration": 6, "velocity": 107}, {"time": 2265, "pitch": 73, "duration": 2, "velocity": 127}, {"time": 2268, "pitch": 78, "duration": 5, "velocity": 127}, {"time": 2274, "pitch": 76, "duration": 7, "velocity": 117}, {"time": 2280, "pitch": 73, "duration": 2, "velocity": 95}, {"time": 2283, "pitch": 74, "duration": 4, "velocity": 100}, {"time": 2289, "pitch": 73, "duration": 4, "velocity": 122}, {"time": 2295, "pitch": 81, "duration": 4, "velocity": 122}, {"time": 2301, "pitch": 81, "duration": 2, "velocity": 107}, {"time": 2304, "pitch": 80, "duration": 2, "velocity": 112}, {"time": 2310, "pitch": 76, "duration": 3, "velocity": 99}, {"time": 2316, "pitch": 73, "duration": 4, "velocity": 99}, {"time": 2328, "pitch": 69, "duration": 2, "velocity": 112}, {"time": 2331, "pitch": 71, "duration": 4, "velocity": 117}, {"time": 2337, "pitch": 69, "duration": 3, "velocity": 122}, {"time": 2343, "pitch": 66, "duration": 3, "velocity": 127}, {"time": 2349, "pitch": 78, "duration": 1, "velocity": 127}, {"time": 2352, "pitch": 78, "duration": 7, "velocity": 102}, {"time": 2361, "pitch": 76, "duration": 1, "velocity": 100}, {"time": 2364, "pitch": 76, "duration": 4, "velocity": 117}, {"time": 2373, "pitch": 69, "duration": 2, "velocity": 96}, {"time": 2376, "pitch": 71, "duration": 3, "velocity": 112}, {"time": 2382, "pitch": 73, "duration": 3, "velocity": 102}, {"time": 2388, "pitch": 74, "duration": 15, "velocity": 122}, {"time": 2412, "pitch": 69, "duration": 1, "velocity": 99}, {"time": 2415, "pitch": 69, "duration": 3, "velocity": 92}, {"time": 2421, "pitch": 66, "duration": 2, "velocity": 100}, {"time": 2424, "pitch": 73, "duration": 7, "velocity": 127}, {"time": 2436, "pitch": 68, "duration": 2, "velocity": 107}, {"time": 2439, "pitch": 71, "duration": 6, "velocity": 100}, {"time": 2445, "pitch": 69, "duration": 6, "velocity": 97}, {"time": 2472, "pitch": 69, "duration": 1, "velocity": 99}, {"time": 2475, "pitch": 71, "duration": 3, "velocity": 117}, {"time": 2481, "pitch": 69, "duration": 2, "velocity": 97}, {"time": 2485, "pitch": 66, "duration": 8, "velocity": 92}, {"time": 2495, "pitch": 78, "duration": 2, "velocity": 92}, {"time": 2498, "pitch": 78, "duration": 7, "velocity": 112}, {"time": 2507, "pitch": 76, "duration": 2, "velocity": 90}, {"time": 2511, "pitch": 76, "duration": 9, "velocity": 100}, {"time": 2521, "pitch": 69, "duration": 4, "velocity": 74}, {"time": 2525, "pitch": 71, "duration": 4, "velocity": 82}, {"time": 2532, "pitch": 73, "duration": 3, "velocity": 96}, {"time": 2537, "pitch": 74, "duration": 14, "velocity": 97}, {"time": 2560, "pitch": 69, "duration": 4, "velocity": 92}, {"time": 2565, "pitch": 69, "duration": 7, "velocity": 90}, {"time": 2572, "pitch": 71, "duration": 4, "velocity": 82}, {"time": 2576, "pitch": 73, "duration": 21, "velocity": 95}, {"time": 2606, "pitch": 71, "duration": 8, "velocity": 88}, {"time": 2614, "pitch": 69, "duration": 54, "velocity": 88}]}, {"program": 0, "is_drum": false, "name": "PIANO", "notes": [{"time": 27, "pitch": 42, "duration": 45, "velocity": 89}, {"time": 33, "pitch": 54, "duration": 21, "velocity": 39}, {"time": 39, "pitch": 57, "duration": 25, "velocity": 66}, {"time": 39, "pitch": 61, "duration": 22, "velocity": 67}, {"time": 51, "pitch": 66, "duration": 32, "velocity": 55}, {"time": 57, "pitch": 54, "duration": 19, "velocity": 46}, {"time": 63, "pitch": 61, "duration": 24, "velocity": 107}, {"time": 69, "pitch": 57, "duration": 48, "velocity": 65}, {"time": 75, "pitch": 42, "duration": 41, "velocity": 72}, {"time": 81, "pitch": 54, "duration": 22, "velocity": 55}, {"time": 87, "pitch": 66, "duration": 22, "velocity": 88}, {"time": 99, "pitch": 61, "duration": 11, "velocity": 53}, {"time": 105, "pitch": 54, "duration": 7, "velocity": 42}, {"time": 111, "pitch": 66, "duration": 11, "velocity": 122}, {"time": 114, "pitch": 54, "duration": 2, "velocity": 86}, {"time": 117, "pitch": 61, "duration": 6, "velocity": 107}, {"time": 120, "pitch": 57, "duration": 3, "velocity": 93}, {"time": 123, "pitch": 38, "duration": 18, "velocity": 73}, {"time": 126, "pitch": 45, "duration": 20, "velocity": 43}, {"time": 129, "pitch": 50, "duration": 6, "velocity": 83}, {"time": 132, "pitch": 62, "duration": 9, "velocity": 85}, {"time": 135, "pitch": 69, "duration": 12, "velocity": 99}, {"time": 141, "pitch": 66, "duration": 6, "velocity": 93}, {"time": 144, "pitch": 62, "duration": 3, "velocity": 66}, {"time": 147, "pitch": 40, "duration": 16, "velocity": 75}, {"time": 150, "pitch": 47, "duration": 14, "velocity": 63}, {"time": 153, "pitch": 52, "duration": 7, "velocity": 99}, {"time": 156, "pitch": 64, "duration": 5, "velocity": 79}, {"time": 159, "pitch": 71, "duration": 12, "velocity": 107}, {"time": 162, "pitch": 52, "duration": 2, "velocity": 92}, {"time": 165, "pitch": 68, "duration": 6, "velocity": 69}, {"time": 168, "pitch": 64, "duration": 4, "velocity": 76}, {"time": 171, "pitch": 42, "duration": 22, "velocity": 88}, {"time": 174, "pitch": 49, "duration": 20, "velocity": 64}, {"time": 177, "pitch": 54, "duration": 6, "velocity": 88}, {"time": 180, "pitch": 57, "duration": 9, "velocity": 92}, {"time": 183, "pitch": 66, "duration": 19, "velocity": 107}, {"time": 186, "pitch": 54, "duration": 10, "velocity": 89}, {"time": 189, "pitch": 61, "duration": 13, "velocity": 100}, {"time": 192, "pitch": 57, "duration": 10, "velocity": 83}, {"time": 195, "pitch": 42, "duration": 18, "velocity": 75}, {"time": 198, "pitch": 49, "duration": 13, "velocity": 35}, {"time": 201, "pitch": 54, "duration": 7, "velocity": 83}, {"time": 204, "pitch": 61, "duration": 2, "velocity": 100}, {"time": 204, "pitch": 66, "duration": 2, "velocity": 107}, {"time": 207, "pitch": 61, "duration": 6, "velocity": 97}, {"time": 207, "pitch": 66, "duration": 12, "velocity": 92}, {"time": 210, "pitch": 54, "duration": 2, "velocity": 85}, {"time": 213, "pitch": 57, "duration": 6, "velocity": 97}, {"time": 216, "pitch": 61, "duration": 3, "velocity": 112}, {"time": 219, "pitch": 38, "duration": 22, "velocity": 72}, {"time": 222, "pitch": 45, "duration": 21, "velocity": 58}, {"time": 225, "pitch": 50, "duration": 7, "velocity": 90}, {"time": 228, "pitch": 62, "duration": 1, "velocity": 40}, {"time": 228, "pitch": 66, "duration": 10, "velocity": 81}, {"time": 228, "pitch": 69, "duration": 15, "velocity": 90}, {"time": 234, "pitch": 50, "duration": 2, "velocity": 74}, {"time": 237, "pitch": 62, "duration": 5, "velocity": 86}, {"time": 240, "pitch": 66, "duration": 3, "velocity": 97}, {"time": 243, "pitch": 40, "duration": 16, "velocity": 76}, {"time": 246, "pitch": 47, "duration": 14, "velocity": 69}, {"time": 249, "pitch": 52, "duration": 7, "velocity": 90}, {"time": 252, "pitch": 64, "duration": 15, "velocity": 95}, {"time": 258, "pitch": 52, "duration": 3, "velocity": 57}, {"time": 261, "pitch": 71, "duration": 5, "velocity": 102}, {"time": 264, "pitch": 68, "duration": 3, "velocity": 96}, {"time": 267, "pitch": 42, "duration": 22, "velocity": 72}, {"time": 270, "pitch": 49, "duration": 19, "velocity": 34}, {"time": 273, "pitch": 54, "duration": 7, "velocity": 76}, {"time": 276, "pitch": 57, "duration": 10, "velocity": 92}, {"time": 282, "pitch": 54, "duration": 8, "velocity": 77}, {"time": 285, "pitch": 66, "duration": 29, "velocity": 100}, {"time": 288, "pitch": 57, "duration": 25, "velocity": 34}, {"time": 291, "pitch": 42, "duration": 16, "velocity": 60}, {"time": 291, "pitch": 49, "duration": 15, "velocity": 59}, {"time": 291, "pitch": 54, "duration": 13, "velocity": 58}, {"time": 291, "pitch": 61, "duration": 23, "velocity": 79}, {"time": 315, "pitch": 38, "duration": 21, "velocity": 67}, {"time": 318, "pitch": 45, "duration": 21, "velocity": 36}, {"time": 321, "pitch": 50, "duration": 8, "velocity": 71}, {"time": 324, "pitch": 69, "duration": 15, "velocity": 92}, {"time": 333, "pitch": 66, "duration": 6, "velocity": 45}, {"time": 339, "pitch": 40, "duration": 17, "velocity": 74}, {"time": 345, "pitch": 47, "duration": 12, "velocity": 44}, {"time": 351, "pitch": 52, "duration": 6, "velocity": 69}, {"time": 351, "pitch": 59, "duration": 1, "velocity": 40}, {"time": 351, "pitch": 68, "duration": 13, "velocity": 100}, {"time": 357, "pitch": 64, "duration": 6, "velocity": 59}, {"time": 363, "pitch": 42, "duration": 23, "velocity": 72}, {"time": 369, "pitch": 49, "duration": 35, "velocity": 63}, {"time": 375, "pitch": 66, "duration": 22, "velocity": 102}, {"time": 378, "pitch": 54, "duration": 22, "velocity": 73}, {"time": 381, "pitch": 61, "duration": 17, "velocity": 49}, {"time": 384, "pitch": 57, "duration": 18, "velocity": 59}, {"time": 396, "pitch": 42, "duration": 10, "velocity": 34}, {"time": 399, "pitch": 66, "duration": 12, "velocity": 112}, {"time": 402, "pitch": 54, "duration": 2, "velocity": 88}, {"time": 405, "pitch": 61, "duration": 6, "velocity": 90}, {"time": 408, "pitch": 57, "duration": 3, "velocity": 73}, {"time": 411, "pitch": 38, "duration": 20, "velocity": 81}, {"time": 417, "pitch": 45, "duration": 18, "velocity": 65}, {"time": 423, "pitch": 50, "duration": 4, "velocity": 63}, {"time": 423, "pitch": 69, "duration": 11, "velocity": 82}, {"time": 429, "pitch": 62, "duration": 6, "velocity": 65}, {"time": 435, "pitch": 40, "duration": 16, "velocity": 73}, {"time": 438, "pitch": 47, "duration": 14, "velocity": 42}, {"time": 441, "pitch": 52, "duration": 7, "velocity": 76}, {"time": 444, "pitch": 68, "duration": 15, "velocity": 96}, {"time": 450, "pitch": 52, "duration": 3, "velocity": 55}, {"time": 453, "pitch": 64, "duration": 5, "velocity": 62}, {"time": 459, "pitch": 42, "duration": 22, "velocity": 64}, {"time": 462, "pitch": 49, "duration": 20, "velocity": 37}, {"time": 465, "pitch": 54, "duration": 7, "velocity": 73}, {"time": 468, "pitch": 66, "duration": 23, "velocity": 88}, {"time": 474, "pitch": 54, "duration": 10, "velocity": 40}, {"time": 477, "pitch": 61, "duration": 17, "velocity": 71}, {"time": 480, "pitch": 57, "duration": 14, "velocity": 55}, {"time": 483, "pitch": 42, "duration": 18, "velocity": 66}, {"time": 489, "pitch": 49, "duration": 11, "velocity": 52}, {"time": 495, "pitch": 66, "duration": 11, "velocity": 127}, {"time": 498, "pitch": 54, "duration": 2, "velocity": 74}, {"time": 501, "pitch": 61, "duration": 4, "velocity": 117}, {"time": 504, "pitch": 57, "duration": 2, "velocity": 92}, {"time": 507, "pitch": 38, "duration": 22, "velocity": 92}, {"time": 510, "pitch": 45, "duration": 21, "velocity": 70}, {"time": 513, "pitch": 50, "duration": 7, "velocity": 79}, {"time": 516, "pitch": 69, "duration": 15, "velocity": 99}, {"time": 522, "pitch": 50, "duration": 2, "velocity": 66}, {"time": 525, "pitch": 66, "duration": 6, "velocity": 99}, {"time": 528, "pitch": 62, "duration": 3, "velocity": 77}, {"time": 531, "pitch": 40, "duration": 16, "velocity": 82}, {"time": 534, "pitch": 47, "duration": 13, "velocity": 78}, {"time": 537, "pitch": 52, "duration": 9, "velocity": 88}, {"time": 540, "pitch": 71, "duration": 15, "velocity": 112}, {"time": 549, "pitch": 68, "duration": 6, "velocity": 100}, {"time": 552, "pitch": 64, "duration": 3, "velocity": 68}, {"time": 555, "pitch": 37, "duration": 16, "velocity": 76}, {"time": 558, "pitch": 44, "duration": 13, "velocity": 42}, {"time": 561, "pitch": 49, "duration": 6, "velocity": 83}, {"time": 564, "pitch": 68, "duration": 14, "velocity": 112}, {"time": 570, "pitch": 49, "duration": 5, "velocity": 81}, {"time": 573, "pitch": 64, "duration": 5, "velocity": 54}, {"time": 576, "pitch": 61, "duration": 3, "velocity": 81}, {"time": 579, "pitch": 42, "duration": 17, "velocity": 73}, {"time": 582, "pitch": 49, "duration": 13, "velocity": 37}, {"time": 585, "pitch": 54, "duration": 6, "velocity": 90}, {"time": 588, "pitch": 66, "duration": 15, "velocity": 112}, {"time": 591, "pitch": 61, "duration": 12, "velocity": 107}, {"time": 594, "pitch": 54, "duration": 3, "velocity": 89}, {"time": 597, "pitch": 57, "duration": 6, "velocity": 79}, {"time": 603, "pitch": 47, "duration": 18, "velocity": 70}, {"time": 609, "pitch": 54, "duration": 8, "velocity": 90}, {"time": 615, "pitch": 66, "duration": 12, "velocity": 122}, {"time": 618, "pitch": 54, "duration": 3, "velocity": 90}, {"time": 621, "pitch": 62, "duration": 7, "velocity": 81}, {"time": 627, "pitch": 40, "duration": 18, "velocity": 75}, {"time": 633, "pitch": 47, "duration": 7, "velocity": 49}, {"time": 639, "pitch": 68, "duration": 11, "velocity": 107}, {"time": 642, "pitch": 47, "duration": 3, "velocity": 75}, {"time": 645, "pitch": 64, "duration": 5, "velocity": 73}, {"time": 648, "pitch": 59, "duration": 3, "velocity": 81}, {"time": 651, "pitch": 50, "duration": 10, "velocity": 85}, {"time": 651, "pitch": 62, "duration": 9, "velocity": 93}, {"time": 663, "pitch": 49, "duration": 5, "velocity": 97}, {"time": 663, "pitch": 61, "duration": 6, "velocity": 107}, {"time": 669, "pitch": 47, "duration": 5, "velocity": 93}, {"time": 669, "pitch": 59, "duration": 5, "velocity": 86}, {"time": 675, "pitch": 40, "duration": 17, "velocity": 93}, {"time": 678, "pitch": 47, "duration": 15, "velocity": 70}, {"time": 681, "pitch": 52, "duration": 7, "velocity": 90}, {"time": 684, "pitch": 59, "duration": 4, "velocity": 89}, {"time": 687, "pitch": 64, "duration": 11, "velocity": 107}, {"time": 687, "pitch": 68, "duration": 11, "velocity": 117}, {"time": 690, "pitch": 52, "duration": 4, "velocity": 68}, {"time": 693, "pitch": 59, "duration": 5, "velocity": 88}, {"time": 699, "pitch": 45, "duration": 17, "velocity": 95}, {"time": 702, "pitch": 52, "duration": 14, "velocity": 96}, {"time": 705, "pitch": 57, "duration": 7, "velocity": 102}, {"time": 708, "pitch": 64, "duration": 6, "velocity": 99}, {"time": 711, "pitch": 73, "duration": 17, "velocity": 127}, {"time": 714, "pitch": 57, "duration": 2, "velocity": 102}, {"time": 717, "pitch": 69, "duration": 4, "velocity": 100}, {"time": 720, "pitch": 64, "duration": 7, "velocity": 107}, {"time": 723, "pitch": 44, "duration": 18, "velocity": 69}, {"time": 726, "pitch": 56, "duration": 10, "velocity": 97}, {"time": 729, "pitch": 68, "duration": 6, "velocity": 127}, {"time": 732, "pitch": 73, "duration": 6, "velocity": 95}, {"time": 735, "pitch": 76, "duration": 8, "velocity": 90}, {"time": 738, "pitch": 56, "duration": 2, "velocity": 92}, {"time": 741, "pitch": 68, "duration": 5, "velocity": 97}, {"time": 744, "pitch": 73, "duration": 2, "velocity": 100}, {"time": 747, "pitch": 42, "duration": 16, "velocity": 92}, {"time": 750, "pitch": 54, "duration": 10, "velocity": 92}, {"time": 753, "pitch": 57, "duration": 9, "velocity": 92}, {"time": 756, "pitch": 61, "duration": 3, "velocity": 107}, {"time": 759, "pitch": 66, "duration": 12, "velocity": 122}, {"time": 762, "pitch": 54, "duration": 4, "velocity": 95}, {"time": 765, "pitch": 57, "duration": 4, "velocity": 95}, {"time": 768, "pitch": 61, "duration": 3, "velocity": 127}, {"time": 771, "pitch": 49, "duration": 17, "velocity": 81}, {"time": 774, "pitch": 56, "duration": 13, "velocity": 67}, {"time": 777, "pitch": 61, "duration": 7, "velocity": 102}, {"time": 780, "pitch": 64, "duration": 8, "velocity": 95}, {"time": 783, "pitch": 73, "duration": 11, "velocity": 127}, {"time": 786, "pitch": 61, "duration": 2, "velocity": 95}, {"time": 789, "pitch": 68, "duration": 5, "velocity": 127}, {"time": 792, "pitch": 64, "duration": 3, "velocity": 88}, {"time": 795, "pitch": 38, "duration": 16, "velocity": 72}, {"time": 798, "pitch": 45, "duration": 13, "velocity": 82}, {"time": 801, "pitch": 50, "duration": 7, "velocity": 86}, {"time": 804, "pitch": 57, "duration": 6, "velocity": 92}, {"time": 807, "pitch": 66, "duration": 11, "velocity": 117}, {"time": 810, "pitch": 50, "duration": 1, "velocity": 90}, {"time": 813, "pitch": 62, "duration": 5, "velocity": 93}, {"time": 816, "pitch": 57, "duration": 2, "velocity": 93}, {"time": 819, "pitch": 37, "duration": 6, "velocity": 86}, {"time": 822, "pitch": 49, "duration": 8, "velocity": 90}, {"time": 825, "pitch": 61, "duration": 5, "velocity": 100}, {"time": 828, "pitch": 68, "duration": 2, "velocity": 107}, {"time": 831, "pitch": 42, "duration": 8, "velocity": 83}, {"time": 834, "pitch": 54, "duration": 4, "velocity": 100}, {"time": 837, "pitch": 66, "duration": 6, "velocity": 96}, {"time": 840, "pitch": 73, "duration": 3, "velocity": 112}, {"time": 843, "pitch": 47, "duration": 17, "velocity": 85}, {"time": 846, "pitch": 54, "duration": 10, "velocity": 95}, {"time": 849, "pitch": 59, "duration": 3, "velocity": 93}, {"time": 852, "pitch": 62, "duration": 3, "velocity": 90}, {"time": 855, "pitch": 66, "duration": 11, "velocity": 117}, {"time": 858, "pitch": 54, "duration": 2, "velocity": 99}, {"time": 861, "pitch": 62, "duration": 6, "velocity": 99}, {"time": 864, "pitch": 59, "duration": 3, "velocity": 95}, {"time": 867, "pitch": 40, "duration": 16, "velocity": 93}, {"time": 870, "pitch": 47, "duration": 14, "velocity": 85}, {"time": 873, "pitch": 52, "duration": 6, "velocity": 99}, {"time": 876, "pitch": 64, "duration": 2, "velocity": 78}, {"time": 876, "pitch": 68, "duration": 2, "velocity": 76}, {"time": 876, "pitch": 71, "duration": 2, "velocity": 73}, {"time": 879, "pitch": 64, "duration": 1, "velocity": 71}, {"time": 879, "pitch": 68, "duration": 7, "velocity": 127}, {"time": 879, "pitch": 71, "duration": 12, "velocity": 107}, {"time": 882, "pitch": 52, "duration": 4, "velocity": 100}, {"time": 885, "pitch": 64, "duration": 7, "velocity": 107}, {"time": 888, "pitch": 68, "duration": 3, "velocity": 127}, {"time": 891, "pitch": 45, "duration": 17, "velocity": 95}, {"time": 894, "pitch": 52, "duration": 14, "velocity": 96}, {"time": 897, "pitch": 57, "duration": 7, "velocity": 102}, {"time": 900, "pitch": 64, "duration": 6, "velocity": 99}, {"time": 903, "pitch": 73, "duration": 17, "velocity": 127}, {"time": 906, "pitch": 57, "duration": 2, "velocity": 102}, {"time": 909, "pitch": 69, "duration": 4, "velocity": 100}, {"time": 912, "pitch": 64, "duration": 7, "velocity": 107}, {"time": 915, "pitch": 44, "duration": 18, "velocity": 69}, {"time": 918, "pitch": 56, "duration": 10, "velocity": 97}, {"time": 921, "pitch": 68, "duration": 6, "velocity": 127}, {"time": 924, "pitch": 73, "duration": 6, "velocity": 95}, {"time": 927, "pitch": 76, "duration": 8, "velocity": 90}, {"time": 930, "pitch": 56, "duration": 2, "velocity": 92}, {"time": 933, "pitch": 68, "duration": 5, "velocity": 97}, {"time": 936, "pitch": 73, "duration": 2, "velocity": 100}, {"time": 939, "pitch": 42, "duration": 16, "velocity": 92}, {"time": 942, "pitch": 54, "duration": 10, "velocity": 92}, {"time": 945, "pitch": 57, "duration": 9, "velocity": 92}, {"time": 948, "pitch": 61, "duration": 3, "velocity": 107}, {"time": 951, "pitch": 66, "duration": 12, "velocity": 122}, {"time": 954, "pitch": 54, "duration": 4, "velocity": 95}, {"time": 957, "pitch": 57, "duration": 4, "velocity": 95}, {"time": 960, "pitch": 61, "duration": 3, "velocity": 127}, {"time": 963, "pitch": 49, "duration": 17, "velocity": 81}, {"time": 966, "pitch": 56, "duration": 13, "velocity": 67}, {"time": 969, "pitch": 61, "duration": 7, "velocity": 102}, {"time": 972, "pitch": 64, "duration": 8, "velocity": 95}, {"time": 975, "pitch": 73, "duration": 11, "velocity": 127}, {"time": 978, "pitch": 61, "duration": 2, "velocity": 95}, {"time": 981, "pitch": 68, "duration": 5, "velocity": 127}, {"time": 984, "pitch": 64, "duration": 3, "velocity": 88}, {"time": 987, "pitch": 38, "duration": 16, "velocity": 72}, {"time": 990, "pitch": 45, "duration": 13, "velocity": 82}, {"time": 993, "pitch": 50, "duration": 7, "velocity": 86}, {"time": 996, "pitch": 57, "duration": 6, "velocity": 92}, {"time": 999, "pitch": 66, "duration": 11, "velocity": 117}, {"time": 1002, "pitch": 50, "duration": 1, "velocity": 90}, {"time": 1005, "pitch": 62, "duration": 5, "velocity": 93}, {"time": 1008, "pitch": 57, "duration": 2, "velocity": 93}, {"time": 1011, "pitch": 37, "duration": 6, "velocity": 86}, {"time": 1014, "pitch": 49, "duration": 8, "velocity": 90}, {"time": 1017, "pitch": 61, "duration": 5, "velocity": 100}, {"time": 1020, "pitch": 68, "duration": 2, "velocity": 107}, {"time": 1023, "pitch": 42, "duration": 8, "velocity": 83}, {"time": 1026, "pitch": 54, "duration": 4, "velocity": 100}, {"time": 1029, "pitch": 66, "duration": 6, "velocity": 96}, {"time": 1032, "pitch": 73, "duration": 3, "velocity": 112}, {"time": 1035, "pitch": 47, "duration": 17, "velocity": 85}, {"time": 1038, "pitch": 54, "duration": 10, "velocity": 95}, {"time": 1041, "pitch": 59, "duration": 3, "velocity": 93}, {"time": 1044, "pitch": 62, "duration": 3, "velocity": 90}, {"time": 1047, "pitch": 66, "duration": 11, "velocity": 117}, {"time": 1050, "pitch": 54, "duration": 2, "velocity": 99}, {"time": 1053, "pitch": 62, "duration": 6, "velocity": 99}, {"time": 1056, "pitch": 59, "duration": 3, "velocity": 95}, {"time": 1059, "pitch": 40, "duration": 16, "velocity": 93}, {"time": 1062, "pitch": 47, "duration": 14, "velocity": 85}, {"time": 1065, "pitch": 52, "duration": 6, "velocity": 99}, {"time": 1068, "pitch": 64, "duration": 2, "velocity": 78}, {"time": 1068, "pitch": 68, "duration": 2, "velocity": 76}, {"time": 1068, "pitch": 71, "duration": 2, "velocity": 73}, {"time": 1071, "pitch": 64, "duration": 1, "velocity": 71}, {"time": 1071, "pitch": 68, "duration": 7, "velocity": 127}, {"time": 1071, "pitch": 71, "duration": 12, "velocity": 107}, {"time": 1074, "pitch": 52, "duration": 4, "velocity": 100}, {"time": 1077, "pitch": 64, "duration": 6, "velocity": 107}, {"time": 1080, "pitch": 68, "duration": 3, "velocity": 127}, {"time": 1083, "pitch": 38, "duration": 23, "velocity": 66}, {"time": 1086, "pitch": 45, "duration": 21, "velocity": 53}, {"time": 1089, "pitch": 50, "duration": 11, "velocity": 86}, {"time": 1092, "pitch": 66, "duration": 15, "velocity": 97}, {"time": 1101, "pitch": 62, "duration": 7, "velocity": 57}, {"time": 1107, "pitch": 40, "duration": 15, "velocity": 64}, {"time": 1110, "pitch": 47, "duration": 13, "velocity": 58}, {"time": 1113, "pitch": 52, "duration": 10, "velocity": 79}, {"time": 1116, "pitch": 68, "duration": 15, "velocity": 100}, {"time": 1125, "pitch": 64, "duration": 6, "velocity": 61}, {"time": 1131, "pitch": 42, "duration": 23, "velocity": 71}, {"time": 1134, "pitch": 49, "duration": 20, "velocity": 27}, {"time": 1137, "pitch": 54, "duration": 19, "velocity": 82}, {"time": 1140, "pitch": 66, "duration": 20, "velocity": 99}, {"time": 1146, "pitch": 61, "duration": 17, "velocity": 82}, {"time": 1152, "pitch": 57, "duration": 7, "velocity": 50}, {"time": 1155, "pitch": 42, "duration": 18, "velocity": 71}, {"time": 1158, "pitch": 49, "duration": 14, "velocity": 63}, {"time": 1161, "pitch": 54, "duration": 6, "velocity": 90}, {"time": 1164, "pitch": 66, "duration": 15, "velocity": 112}, {"time": 1167, "pitch": 61, "duration": 12, "velocity": 112}, {"time": 1170, "pitch": 54, "duration": 2, "velocity": 71}, {"time": 1173, "pitch": 57, "duration": 7, "velocity": 73}, {"time": 1179, "pitch": 38, "duration": 22, "velocity": 69}, {"time": 1182, "pitch": 45, "duration": 21, "velocity": 44}, {"time": 1185, "pitch": 50, "duration": 10, "velocity": 61}, {"time": 1188, "pitch": 66, "duration": 14, "velocity": 99}, {"time": 1200, "pitch": 62, "duration": 4, "velocity": 71}, {"time": 1203, "pitch": 40, "duration": 17, "velocity": 72}, {"time": 1206, "pitch": 47, "duration": 15, "velocity": 52}, {"time": 1209, "pitch": 52, "duration": 13, "velocity": 68}, {"time": 1212, "pitch": 59, "duration": 16, "velocity": 61}, {"time": 1221, "pitch": 68, "duration": 5, "velocity": 90}, {"time": 1224, "pitch": 64, "duration": 3, "velocity": 52}, {"time": 1227, "pitch": 42, "duration": 22, "velocity": 69}, {"time": 1230, "pitch": 49, "duration": 38, "velocity": 50}, {"time": 1233, "pitch": 54, "duration": 6, "velocity": 77}, {"time": 1236, "pitch": 57, "duration": 12, "velocity": 82}, {"time": 1242, "pitch": 54, "duration": 25, "velocity": 60}, {"time": 1245, "pitch": 66, "duration": 30, "velocity": 100}, {"time": 1248, "pitch": 61, "duration": 27, "velocity": 44}, {"time": 1251, "pitch": 42, "duration": 18, "velocity": 83}, {"time": 1251, "pitch": 57, "duration": 23, "velocity": 62}, {"time": 1275, "pitch": 38, "duration": 22, "velocity": 92}, {"time": 1278, "pitch": 45, "duration": 21, "velocity": 70}, {"time": 1281, "pitch": 50, "duration": 7, "velocity": 79}, {"time": 1284, "pitch": 69, "duration": 15, "velocity": 99}, {"time": 1290, "pitch": 50, "duration": 2, "velocity": 66}, {"time": 1293, "pitch": 66, "duration": 6, "velocity": 99}, {"time": 1296, "pitch": 62, "duration": 3, "velocity": 77}, {"time": 1299, "pitch": 40, "duration": 16, "velocity": 82}, {"time": 1302, "pitch": 47, "duration": 13, "velocity": 78}, {"time": 1305, "pitch": 52, "duration": 9, "velocity": 88}, {"time": 1308, "pitch": 71, "duration": 15, "velocity": 112}, {"time": 1317, "pitch": 68, "duration": 6, "velocity": 100}, {"time": 1320, "pitch": 64, "duration": 3, "velocity": 68}, {"time": 1323, "pitch": 37, "duration": 16, "velocity": 76}, {"time": 1326, "pitch": 44, "duration": 13, "velocity": 42}, {"time": 1329, "pitch": 49, "duration": 6, "velocity": 83}, {"time": 1332, "pitch": 68, "duration": 14, "velocity": 112}, {"time": 1338, "pitch": 49, "duration": 5, "velocity": 81}, {"time": 1341, "pitch": 64, "duration": 5, "velocity": 54}, {"time": 1344, "pitch": 61, "duration": 3, "velocity": 81}, {"time": 1347, "pitch": 42, "duration": 17, "velocity": 73}, {"time": 1350, "pitch": 49, "duration": 13, "velocity": 37}, {"time": 1353, "pitch": 54, "duration": 6, "velocity": 90}, {"time": 1356, "pitch": 66, "duration": 15, "velocity": 112}, {"time": 1359, "pitch": 61, "duration": 12, "velocity": 107}, {"time": 1362, "pitch": 54, "duration": 3, "velocity": 89}, {"time": 1365, "pitch": 57, "duration": 6, "velocity": 79}, {"time": 1371, "pitch": 47, "duration": 18, "velocity": 70}, {"time": 1377, "pitch": 54, "duration": 8, "velocity": 90}, {"time": 1383, "pitch": 66, "duration": 12, "velocity": 122}, {"time": 1386, "pitch": 54, "duration": 3, "velocity": 90}, {"time": 1389, "pitch": 62, "duration": 7, "velocity": 81}, {"time": 1395, "pitch": 40, "duration": 18, "velocity": 75}, {"time": 1401, "pitch": 47, "duration": 7, "velocity": 49}, {"time": 1407, "pitch": 68, "duration": 11, "velocity": 107}, {"time": 1410, "pitch": 47, "duration": 3, "velocity": 75}, {"time": 1413, "pitch": 64, "duration": 5, "velocity": 73}, {"time": 1416, "pitch": 59, "duration": 3, "velocity": 81}, {"time": 1419, "pitch": 50, "duration": 10, "velocity": 85}, {"time": 1419, "pitch": 62, "duration": 9, "velocity": 93}, {"time": 1431, "pitch": 49, "duration": 5, "velocity": 97}, {"time": 1431, "pitch": 61, "duration": 6, "velocity": 107}, {"time": 1437, "pitch": 47, "duration": 5, "velocity": 93}, {"time": 1437, "pitch": 59, "duration": 5, "velocity": 86}, {"time": 1443, "pitch": 40, "duration": 17, "velocity": 93}, {"time": 1446, "pitch": 47, "duration": 15, "velocity": 70}, {"time": 1449, "pitch": 52, "duration": 7, "velocity": 90}, {"time": 1452, "pitch": 59, "duration": 4, "velocity": 89}, {"time": 1455, "pitch": 64, "duration": 11, "velocity": 107}, {"time": 1455, "pitch": 68, "duration": 11, "velocity": 117}, {"time": 1458, "pitch": 52, "duration": 4, "velocity": 68}, {"time": 1461, "pitch": 59, "duration": 5, "velocity": 88}, {"time": 1467, "pitch": 45, "duration": 17, "velocity": 95}, {"time": 1470, "pitch": 52, "duration": 14, "velocity": 96}, {"time": 1473, "pitch": 57, "duration": 7, "velocity": 102}, {"time": 1476, "pitch": 64, "duration": 6, "velocity": 99}, {"time": 1479, "pitch": 73, "duration": 17, "velocity": 127}, {"time": 1482, "pitch": 57, "duration": 2, "velocity": 102}, {"time": 1485, "pitch": 69, "duration": 4, "velocity": 100}, {"time": 1488, "pitch": 64, "duration": 7, "velocity": 107}, {"time": 1491, "pitch": 44, "duration": 18, "velocity": 69}, {"time": 1494, "pitch": 56, "duration": 10, "velocity": 97}, {"time": 1497, "pitch": 68, "duration": 6, "velocity": 127}, {"time": 1500, "pitch": 73, "duration": 6, "velocity": 95}, {"time": 1503, "pitch": 76, "duration": 8, "velocity": 90}, {"time": 1506, "pitch": 56, "duration": 2, "velocity": 92}, {"time": 1509, "pitch": 68, "duration": 5, "velocity": 97}, {"time": 1512, "pitch": 73, "duration": 2, "velocity": 100}, {"time": 1515, "pitch": 42, "duration": 16, "velocity": 92}, {"time": 1518, "pitch": 54, "duration": 10, "velocity": 92}, {"time": 1521, "pitch": 57, "duration": 9, "velocity": 92}, {"time": 1524, "pitch": 61, "duration": 3, "velocity": 107}, {"time": 1527, "pitch": 66, "duration": 12, "velocity": 122}, {"time": 1530, "pitch": 54, "duration": 4, "velocity": 95}, {"time": 1533, "pitch": 57, "duration": 4, "velocity": 95}, {"time": 1536, "pitch": 61, "duration": 3, "velocity": 127}, {"time": 1539, "pitch": 49, "duration": 17, "velocity": 81}, {"time": 1542, "pitch": 56, "duration": 13, "velocity": 67}, {"time": 1545, "pitch": 61, "duration": 7, "velocity": 102}, {"time": 1548, "pitch": 64, "duration": 8, "velocity": 95}, {"time": 1551, "pitch": 73, "duration": 11, "velocity": 127}, {"time": 1554, "pitch": 61, "duration": 2, "velocity": 95}, {"time": 1557, "pitch": 68, "duration": 5, "velocity": 127}, {"time": 1560, "pitch": 64, "duration": 3, "velocity": 88}, {"time": 1563, "pitch": 38, "duration": 16, "velocity": 72}, {"time": 1566, "pitch": 45, "duration": 13, "velocity": 82}, {"time": 1569, "pitch": 50, "duration": 7, "velocity": 86}, {"time": 1572, "pitch": 57, "duration": 6, "velocity": 92}, {"time": 1575, "pitch": 66, "duration": 11, "velocity": 117}, {"time": 1578, "pitch": 50, "duration": 1, "velocity": 90}, {"time": 1581, "pitch": 62, "duration": 5, "velocity": 93}, {"time": 1584, "pitch": 57, "duration": 2, "velocity": 93}, {"time": 1587, "pitch": 37, "duration": 6, "velocity": 86}, {"time": 1590, "pitch": 49, "duration": 8, "velocity": 90}, {"time": 1593, "pitch": 61, "duration": 5, "velocity": 100}, {"time": 1596, "pitch": 68, "duration": 2, "velocity": 107}, {"time": 1599, "pitch": 42, "duration": 8, "velocity": 83}, {"time": 1602, "pitch": 54, "duration": 4, "velocity": 100}, {"time": 1605, "pitch": 66, "duration": 6, "velocity": 96}, {"time": 1608, "pitch": 73, "duration": 3, "velocity": 112}, {"time": 1611, "pitch": 47, "duration": 17, "velocity": 85}, {"time": 1614, "pitch": 54, "duration": 10, "velocity": 95}, {"time": 1617, "pitch": 59, "duration": 3, "velocity": 93}, {"time": 1620, "pitch": 62, "duration": 3, "velocity": 90}, {"time": 1623, "pitch": 66, "duration": 11, "velocity": 117}, {"time": 1626, "pitch": 54, "duration": 2, "velocity": 99}, {"time": 1629, "pitch": 62, "duration": 6, "velocity": 99}, {"time": 1632, "pitch": 59, "duration": 3, "velocity": 95}, {"time": 1635, "pitch": 40, "duration": 16, "velocity": 93}, {"time": 1638, "pitch": 47, "duration": 14, "velocity": 85}, {"time": 1641, "pitch": 52, "duration": 6, "velocity": 99}, {"time": 1644, "pitch": 64, "duration": 2, "velocity": 78}, {"time": 1644, "pitch": 68, "duration": 2, "velocity": 76}, {"time": 1644, "pitch": 71, "duration": 2, "velocity": 73}, {"time": 1647, "pitch": 64, "duration": 1, "velocity": 71}, {"time": 1647, "pitch": 68, "duration": 7, "velocity": 127}, {"time": 1647, "pitch": 71, "duration": 12, "velocity": 107}, {"time": 1650, "pitch": 52, "duration": 4, "velocity": 100}, {"time": 1653, "pitch": 64, "duration": 7, "velocity": 107}, {"time": 1656, "pitch": 68, "duration": 3, "velocity": 127}, {"time": 1659, "pitch": 45, "duration": 17, "velocity": 95}, {"time": 1662, "pitch": 52, "duration": 14, "velocity": 96}, {"time": 1665, "pitch": 57, "duration": 7, "velocity": 102}, {"time": 1668, "pitch": 64, "duration": 6, "velocity": 99}, {"time": 1671, "pitch": 73, "duration": 17, "velocity": 127}, {"time": 1674, "pitch": 57, "duration": 2, "velocity": 102}, {"time": 1677, "pitch": 69, "duration": 4, "velocity": 100}, {"time": 1680, "pitch": 64, "duration": 7, "velocity": 107}, {"time": 1683, "pitch": 44, "duration": 18, "velocity": 69}, {"time": 1686, "pitch": 56, "duration": 10, "velocity": 97}, {"time": 1689, "pitch": 68, "duration": 6, "velocity": 127}, {"time": 1692, "pitch": 73, "duration": 6, "velocity": 95}, {"time": 1695, "pitch": 76, "duration": 8, "velocity": 90}, {"time": 1698, "pitch": 56, "duration": 2, "velocity": 92}, {"time": 1701, "pitch": 68, "duration": 5, "velocity": 97}, {"time": 1704, "pitch": 73, "duration": 2, "velocity": 100}, {"time": 1707, "pitch": 42, "duration": 16, "velocity": 92}, {"time": 1710, "pitch": 54, "duration": 10, "velocity": 92}, {"time": 1713, "pitch": 57, "duration": 9, "velocity": 92}, {"time": 1716, "pitch": 61, "duration": 3, "velocity": 107}, {"time": 1719, "pitch": 66, "duration": 12, "velocity": 122}, {"time": 1722, "pitch": 54, "duration": 4, "velocity": 95}, {"time": 1725, "pitch": 57, "duration": 4, "velocity": 95}, {"time": 1728, "pitch": 61, "duration": 3, "velocity": 127}, {"time": 1731, "pitch": 49, "duration": 17, "velocity": 81}, {"time": 1734, "pitch": 56, "duration": 13, "velocity": 67}, {"time": 1737, "pitch": 61, "duration": 7, "velocity": 102}, {"time": 1740, "pitch": 64, "duration": 8, "velocity": 95}, {"time": 1743, "pitch": 73, "duration": 11, "velocity": 127}, {"time": 1746, "pitch": 61, "duration": 2, "velocity": 95}, {"time": 1749, "pitch": 68, "duration": 5, "velocity": 127}, {"time": 1752, "pitch": 64, "duration": 3, "velocity": 88}, {"time": 1755, "pitch": 38, "duration": 16, "velocity": 72}, {"time": 1758, "pitch": 45, "duration": 13, "velocity": 82}, {"time": 1761, "pitch": 50, "duration": 7, "velocity": 86}, {"time": 1764, "pitch": 57, "duration": 6, "velocity": 92}, {"time": 1767, "pitch": 66, "duration": 11, "velocity": 117}, {"time": 1770, "pitch": 50, "duration": 1, "velocity": 90}, {"time": 1773, "pitch": 62, "duration": 5, "velocity": 93}, {"time": 1776, "pitch": 57, "duration": 2, "velocity": 93}, {"time": 1779, "pitch": 37, "duration": 6, "velocity": 86}, {"time": 1782, "pitch": 49, "duration": 8, "velocity": 90}, {"time": 1785, "pitch": 61, "duration": 5, "velocity": 100}, {"time": 1788, "pitch": 68, "duration": 2, "velocity": 107}, {"time": 1791, "pitch": 42, "duration": 8, "velocity": 83}, {"time": 1794, "pitch": 54, "duration": 4, "velocity": 100}, {"time": 1797, "pitch": 66, "duration": 6, "velocity": 96}, {"time": 1800, "pitch": 73, "duration": 3, "velocity": 112}, {"time": 1803, "pitch": 47, "duration": 17, "velocity": 85}, {"time": 1806, "pitch": 54, "duration": 10, "velocity": 95}, {"time": 1809, "pitch": 59, "duration": 3, "velocity": 93}, {"time": 1812, "pitch": 62, "duration": 3, "velocity": 90}, {"time": 1815, "pitch": 66, "duration": 11, "velocity": 117}, {"time": 1818, "pitch": 54, "duration": 2, "velocity": 99}, {"time": 1821, "pitch": 62, "duration": 6, "velocity": 99}, {"time": 1824, "pitch": 59, "duration": 3, "velocity": 95}, {"time": 1827, "pitch": 40, "duration": 16, "velocity": 93}, {"time": 1830, "pitch": 47, "duration": 14, "velocity": 85}, {"time": 1833, "pitch": 52, "duration": 6, "velocity": 99}, {"time": 1836, "pitch": 64, "duration": 2, "velocity": 78}, {"time": 1836, "pitch": 68, "duration": 2, "velocity": 76}, {"time": 1836, "pitch": 71, "duration": 2, "velocity": 73}, {"time": 1839, "pitch": 64, "duration": 1, "velocity": 71}, {"time": 1839, "pitch": 68, "duration": 7, "velocity": 127}, {"time": 1839, "pitch": 71, "duration": 12, "velocity": 107}, {"time": 1842, "pitch": 52, "duration": 4, "velocity": 100}, {"time": 1845, "pitch": 64, "duration": 6, "velocity": 107}, {"time": 1848, "pitch": 68, "duration": 3, "velocity": 127}, {"time": 1851, "pitch": 38, "duration": 21, "velocity": 77}, {"time": 1854, "pitch": 45, "duration": 20, "velocity": 102}, {"time": 1857, "pitch": 50, "duration": 7, "velocity": 89}, {"time": 1860, "pitch": 57, "duration": 8, "velocity": 60}, {"time": 1863, "pitch": 66, "duration": 11, "velocity": 117}, {"time": 1866, "pitch": 50, "duration": 2, "velocity": 85}, {"time": 1869, "pitch": 62, "duration": 6, "velocity": 95}, {"time": 1872, "pitch": 57, "duration": 3, "velocity": 78}, {"time": 1875, "pitch": 40, "duration": 16, "velocity": 88}, {"time": 1878, "pitch": 47, "duration": 13, "velocity": 76}, {"time": 1881, "pitch": 52, "duration": 5, "velocity": 99}, {"time": 1884, "pitch": 64, "duration": 9, "velocity": 88}, {"time": 1884, "pitch": 68, "duration": 14, "velocity": 117}, {"time": 1890, "pitch": 52, "duration": 2, "velocity": 102}, {"time": 1893, "pitch": 59, "duration": 6, "velocity": 112}, {"time": 1896, "pitch": 64, "duration": 2, "velocity": 97}, {"time": 1899, "pitch": 42, "duration": 18, "velocity": 102}, {"time": 1902, "pitch": 54, "duration": 8, "velocity": 95}, {"time": 1905, "pitch": 57, "duration": 8, "velocity": 92}, {"time": 1908, "pitch": 66, "duration": 14, "velocity": 127}, {"time": 1911, "pitch": 61, "duration": 7, "velocity": 102}, {"time": 1914, "pitch": 54, "duration": 4, "velocity": 99}, {"time": 1917, "pitch": 57, "duration": 5, "velocity": 107}, {"time": 1920, "pitch": 61, "duration": 3, "velocity": 127}, {"time": 1923, "pitch": 47, "duration": 7, "velocity": 117}, {"time": 1923, "pitch": 59, "duration": 7, "velocity": 122}, {"time": 1932, "pitch": 45, "duration": 4, "velocity": 122}, {"time": 1932, "pitch": 57, "duration": 4, "velocity": 127}, {"time": 1938, "pitch": 44, "duration": 7, "velocity": 92}, {"time": 1938, "pitch": 56, "duration": 8, "velocity": 127}, {"time": 1947, "pitch": 38, "duration": 21, "velocity": 107}, {"time": 1950, "pitch": 45, "duration": 20, "velocity": 56}, {"time": 1953, "pitch": 50, "duration": 6, "velocity": 95}, {"time": 1956, "pitch": 57, "duration": 7, "velocity": 88}, {"time": 1959, "pitch": 66, "duration": 10, "velocity": 127}, {"time": 1962, "pitch": 50, "duration": 3, "velocity": 89}, {"time": 1965, "pitch": 62, "duration": 5, "velocity": 102}, {"time": 1968, "pitch": 57, "duration": 3, "velocity": 99}, {"time": 1971, "pitch": 40, "duration": 23, "velocity": 85}, {"time": 1974, "pitch": 47, "duration": 20, "velocity": 73}, {"time": 1977, "pitch": 52, "duration": 7, "velocity": 93}, {"time": 1980, "pitch": 59, "duration": 2, "velocity": 88}, {"time": 1983, "pitch": 68, "duration": 11, "velocity": 127}, {"time": 1986, "pitch": 52, "duration": 3, "velocity": 100}, {"time": 1989, "pitch": 64, "duration": 5, "velocity": 117}, {"time": 1992, "pitch": 59, "duration": 2, "velocity": 100}, {"time": 1995, "pitch": 43, "duration": 7, "velocity": 85}, {"time": 1995, "pitch": 67, "duration": 7, "velocity": 99}, {"time": 1995, "pitch": 71, "duration": 7, "velocity": 99}, {"time": 1998, "pitch": 50, "duration": 4, "velocity": 85}, {"time": 2001, "pitch": 55, "duration": 1, "velocity": 93}, {"time": 2004, "pitch": 42, "duration": 2, "velocity": 112}, {"time": 2004, "pitch": 66, "duration": 2, "velocity": 127}, {"time": 2013, "pitch": 40, "duration": 42, "velocity": 61}, {"time": 2013, "pitch": 47, "duration": 43, "velocity": 55}, {"time": 2013, "pitch": 52, "duration": 42, "velocity": 81}, {"time": 2013, "pitch": 64, "duration": 42, "velocity": 95}, {"time": 2013, "pitch": 68, "duration": 42, "velocity": 117}, {"time": 2013, "pitch": 71, "duration": 42, "velocity": 95}, {"time": 2055, "pitch": 45, "duration": 19, "velocity": 75}, {"time": 2058, "pitch": 52, "duration": 16, "velocity": 51}, {"time": 2061, "pitch": 57, "duration": 4, "velocity": 86}, {"time": 2064, "pitch": 61, "duration": 15, "velocity": 64}, {"time": 2067, "pitch": 64, "duration": 12, "velocity": 75}, {"time": 2073, "pitch": 57, "duration": 5, "velocity": 48}, {"time": 2079, "pitch": 44, "duration": 17, "velocity": 72}, {"time": 2082, "pitch": 56, "duration": 9, "velocity": 77}, {"time": 2085, "pitch": 61, "duration": 3, "velocity": 42}, {"time": 2088, "pitch": 68, "duration": 11, "velocity": 89}, {"time": 2094, "pitch": 56, "duration": 2, "velocity": 50}, {"time": 2097, "pitch": 61, "duration": 5, "velocity": 66}, {"time": 2100, "pitch": 64, "duration": 2, "velocity": 54}, {"time": 2103, "pitch": 42, "duration": 17, "velocity": 77}, {"time": 2106, "pitch": 54, "duration": 8, "velocity": 78}, {"time": 2109, "pitch": 66, "duration": 6, "velocity": 86}, {"time": 2112, "pitch": 73, "duration": 9, "velocity": 117}, {"time": 2115, "pitch": 69, "duration": 11, "velocity": 44}, {"time": 2118, "pitch": 54, "duration": 4, "velocity": 69}, {"time": 2121, "pitch": 66, "duration": 5, "velocity": 64}, {"time": 2124, "pitch": 73, "duration": 3, "velocity": 59}, {"time": 2127, "pitch": 49, "duration": 18, "velocity": 78}, {"time": 2130, "pitch": 61, "duration": 9, "velocity": 81}, {"time": 2133, "pitch": 64, "duration": 7, "velocity": 78}, {"time": 2136, "pitch": 73, "duration": 14, "velocity": 127}, {"time": 2139, "pitch": 68, "duration": 7, "velocity": 99}, {"time": 2142, "pitch": 61, "duration": 3, "velocity": 77}, {"time": 2145, "pitch": 64, "duration": 5, "velocity": 77}, {"time": 2148, "pitch": 68, "duration": 2, "velocity": 97}, {"time": 2151, "pitch": 50, "duration": 16, "velocity": 70}, {"time": 2154, "pitch": 57, "duration": 13, "velocity": 38}, {"time": 2157, "pitch": 62, "duration": 6, "velocity": 89}, {"time": 2160, "pitch": 78, "duration": 14, "velocity": 107}, {"time": 2163, "pitch": 74, "duration": 7, "velocity": 70}, {"time": 2166, "pitch": 62, "duration": 2, "velocity": 78}, {"time": 2169, "pitch": 69, "duration": 6, "velocity": 81}, {"time": 2172, "pitch": 74, "duration": 2, "velocity": 60}, {"time": 2175, "pitch": 49, "duration": 10, "velocity": 56}, {"time": 2178, "pitch": 61, "duration": 7, "velocity": 70}, {"time": 2181, "pitch": 64, "duration": 5, "velocity": 72}, {"time": 2184, "pitch": 68, "duration": 1, "velocity": 68}, {"time": 2186, "pitch": 42, "duration": 12, "velocity": 76}, {"time": 2189, "pitch": 54, "duration": 8, "velocity": 58}, {"time": 2192, "pitch": 66, "duration": 6, "velocity": 69}, {"time": 2196, "pitch": 73, "duration": 2, "velocity": 93}, {"time": 2199, "pitch": 43, "duration": 8, "velocity": 77}, {"time": 2205, "pitch": 67, "duration": 2, "velocity": 74}, {"time": 2208, "pitch": 41, "duration": 12, "velocity": 72}, {"time": 2217, "pitch": 65, "duration": 3, "velocity": 58}, {"time": 2220, "pitch": 40, "duration": 8, "velocity": 97}, {"time": 2220, "pitch": 52, "duration": 6, "velocity": 86}, {"time": 2220, "pitch": 59, "duration": 6, "velocity": 85}, {"time": 2220, "pitch": 64, "duration": 6, "velocity": 92}, {"time": 2220, "pitch": 68, "duration": 6, "velocity": 88}, {"time": 2235, "pitch": 64, "duration": 3, "velocity": 96}, {"time": 2235, "pitch": 68, "duration": 7, "velocity": 127}, {"time": 2235, "pitch": 71, "duration": 11, "velocity": 99}, {"time": 2238, "pitch": 52, "duration": 1, "velocity": 88}, {"time": 2241, "pitch": 64, "duration": 5, "velocity": 81}, {"time": 2244, "pitch": 68, "duration": 2, "velocity": 78}, {"time": 2247, "pitch": 45, "duration": 16, "velocity": 89}, {"time": 2250, "pitch": 52, "duration": 10, "velocity": 86}, {"time": 2253, "pitch": 57, "duration": 3, "velocity": 95}, {"time": 2256, "pitch": 61, "duration": 3, "velocity": 127}, {"time": 2259, "pitch": 64, "duration": 10, "velocity": 97}, {"time": 2262, "pitch": 52, "duration": 1, "velocity": 93}, {"time": 2265, "pitch": 61, "duration": 4, "velocity": 122}, {"time": 2268, "pitch": 57, "duration": 2, "velocity": 99}, {"time": 2271, "pitch": 37, "duration": 12, "velocity": 83}, {"time": 2274, "pitch": 49, "duration": 3, "velocity": 97}, {"time": 2277, "pitch": 52, "duration": 5, "velocity": 92}, {"time": 2280, "pitch": 56, "duration": 3, "velocity": 117}, {"time": 2283, "pitch": 41, "duration": 6, "velocity": 112}, {"time": 2286, "pitch": 49, "duration": 3, "velocity": 76}, {"time": 2289, "pitch": 53, "duration": 3, "velocity": 69}, {"time": 2292, "pitch": 56, "duration": 3, "velocity": 78}, {"time": 2295, "pitch": 42, "duration": 17, "velocity": 127}, {"time": 2298, "pitch": 54, "duration": 10, "velocity": 83}, {"time": 2301, "pitch": 57, "duration": 5, "velocity": 90}, {"time": 2304, "pitch": 61, "duration": 2, "velocity": 117}, {"time": 2307, "pitch": 61, "duration": 6, "velocity": 122}, {"time": 2310, "pitch": 54, "duration": 4, "velocity": 97}, {"time": 2313, "pitch": 57, "duration": 5, "velocity": 96}, {"time": 2316, "pitch": 61, "duration": 2, "velocity": 117}, {"time": 2319, "pitch": 45, "duration": 17, "velocity": 74}, {"time": 2319, "pitch": 57, "duration": 2, "velocity": 70}, {"time": 2319, "pitch": 61, "duration": 6, "velocity": 82}, {"time": 2319, "pitch": 64, "duration": 7, "velocity": 89}, {"time": 2319, "pitch": 67, "duration": 7, "velocity": 100}, {"time": 2322, "pitch": 52, "duration": 10, "velocity": 79}, {"time": 2325, "pitch": 57, "duration": 3, "velocity": 97}, {"time": 2328, "pitch": 61, "duration": 2, "velocity": 76}, {"time": 2328, "pitch": 64, "duration": 2, "velocity": 58}, {"time": 2328, "pitch": 67, "duration": 2, "velocity": 50}, {"time": 2331, "pitch": 61, "duration": 7, "velocity": 82}, {"time": 2331, "pitch": 64, "duration": 10, "velocity": 82}, {"time": 2331, "pitch": 67, "duration": 9, "velocity": 77}, {"time": 2334, "pitch": 52, "duration": 1, "velocity": 89}, {"time": 2337, "pitch": 57, "duration": 6, "velocity": 99}, {"time": 2340, "pitch": 61, "duration": 3, "velocity": 102}, {"time": 2343, "pitch": 38, "duration": 18, "velocity": 69}, {"time": 2346, "pitch": 45, "duration": 16, "velocity": 64}, {"time": 2349, "pitch": 50, "duration": 6, "velocity": 89}, {"time": 2352, "pitch": 62, "duration": 2, "velocity": 79}, {"time": 2352, "pitch": 66, "duration": 2, "velocity": 93}, {"time": 2355, "pitch": 62, "duration": 7, "velocity": 96}, {"time": 2355, "pitch": 66, "duration": 11, "velocity": 112}, {"time": 2358, "pitch": 50, "duration": 3, "velocity": 88}, {"time": 2361, "pitch": 57, "duration": 4, "velocity": 90}, {"time": 2364, "pitch": 62, "duration": 2, "velocity": 89}, {"time": 2367, "pitch": 37, "duration": 6, "velocity": 85}, {"time": 2370, "pitch": 49, "duration": 7, "velocity": 99}, {"time": 2373, "pitch": 61, "duration": 6, "velocity": 97}, {"time": 2376, "pitch": 68, "duration": 2, "velocity": 112}, {"time": 2379, "pitch": 42, "duration": 8, "velocity": 93}, {"time": 2382, "pitch": 54, "duration": 5, "velocity": 95}, {"time": 2385, "pitch": 57, "duration": 5, "velocity": 88}, {"time": 2388, "pitch": 61, "duration": 2, "velocity": 127}, {"time": 2391, "pitch": 47, "duration": 17, "velocity": 79}, {"time": 2394, "pitch": 54, "duration": 10, "velocity": 86}, {"time": 2397, "pitch": 59, "duration": 3, "velocity": 86}, {"time": 2400, "pitch": 62, "duration": 3, "velocity": 92}, {"time": 2403, "pitch": 66, "duration": 8, "velocity": 102}, {"time": 2406, "pitch": 54, "duration": 2, "velocity": 93}, {"time": 2409, "pitch": 62, "duration": 4, "velocity": 89}, {"time": 2412, "pitch": 59, "duration": 1, "velocity": 83}, {"time": 2415, "pitch": 40, "duration": 26, "velocity": 72}, {"time": 2415, "pitch": 52, "duration": 25, "velocity": 97}, {"time": 2415, "pitch": 56, "duration": 25, "velocity": 112}, {"time": 2415, "pitch": 59, "duration": 25, "velocity": 78}, {"time": 2415, "pitch": 62, "duration": 25, "velocity": 82}, {"time": 2439, "pitch": 45, "duration": 12, "velocity": 77}, {"time": 2442, "pitch": 52, "duration": 8, "velocity": 47}, {"time": 2445, "pitch": 57, "duration": 5, "velocity": 67}, {"time": 2448, "pitch": 64, "duration": 2, "velocity": 69}, {"time": 2451, "pitch": 50, "duration": 12, "velocity": 54}, {"time": 2451, "pitch": 57, "duration": 12, "velocity": 69}, {"time": 2451, "pitch": 62, "duration": 12, "velocity": 69}, {"time": 2451, "pitch": 66, "duration": 12, "velocity": 69}, {"time": 2463, "pitch": 49, "duration": 24, "velocity": 54}, {"time": 2463, "pitch": 61, "duration": 24, "velocity": 59}, {"time": 2463, "pitch": 64, "duration": 23, "velocity": 63}, {"time": 2463, "pitch": 68, "duration": 24, "velocity": 66}, {"time": 2487, "pitch": 38, "duration": 21, "velocity": 69}, {"time": 2493, "pitch": 45, "duration": 16, "velocity": 54}, {"time": 2499, "pitch": 66, "duration": 14, "velocity": 63}, {"time": 2499, "pitch": 62, "duration": 13, "velocity": 69}, {"time": 2499, "pitch": 50, "duration": 9, "velocity": 38}, {"time": 2511, "pitch": 37, "duration": 19, "velocity": 56}, {"time": 2517, "pitch": 49, "duration": 14, "velocity": 54}, {"time": 2524, "pitch": 61, "duration": 14, "velocity": 55}, {"time": 2524, "pitch": 68, "duration": 14, "velocity": 78}, {"time": 2524, "pitch": 64, "duration": 14, "velocity": 63}, {"time": 2537, "pitch": 47, "duration": 23, "velocity": 63}, {"time": 2544, "pitch": 54, "duration": 15, "velocity": 55}, {"time": 2551, "pitch": 66, "duration": 14, "velocity": 83}, {"time": 2551, "pitch": 62, "duration": 19, "velocity": 68}, {"time": 2558, "pitch": 59, "duration": 13, "velocity": 69}, {"time": 2569, "pitch": 40, "duration": 56, "velocity": 72}, {"time": 2574, "pitch": 47, "duration": 51, "velocity": 40}, {"time": 2579, "pitch": 52, "duration": 33, "velocity": 58}, {"time": 2585, "pitch": 56, "duration": 39, "velocity": 51}, {"time": 2589, "pitch": 59, "duration": 35, "velocity": 39}, {"time": 2594, "pitch": 64, "duration": 31, "velocity": 35}, {"time": 2622, "pitch": 38, "duration": 21, "velocity": 71}, {"time": 2625, "pitch": 45, "duration": 22, "velocity": 36}, {"time": 2628, "pitch": 50, "duration": 8, "velocity": 82}, {"time": 2631, "pitch": 62, "duration": 16, "velocity": 83}, {"time": 2631, "pitch": 66, "duration": 16, "velocity": 90}, {"time": 2637, "pitch": 50, "duration": 3, "velocity": 47}, {"time": 2640, "pitch": 57, "duration": 7, "velocity": 68}, {"time": 2646, "pitch": 40, "duration": 20, "velocity": 85}, {"time": 2650, "pitch": 47, "duration": 16, "velocity": 44}, {"time": 2652, "pitch": 52, "duration": 8, "velocity": 79}, {"time": 2655, "pitch": 64, "duration": 16, "velocity": 86}, {"time": 2655, "pitch": 68, "duration": 16, "velocity": 90}, {"time": 2661, "pitch": 52, "duration": 6, "velocity": 49}, {"time": 2665, "pitch": 59, "duration": 7, "velocity": 93}, {"time": 2671, "pitch": 42, "duration": 23, "velocity": 83}, {"time": 2674, "pitch": 54, "duration": 8, "velocity": 69}, {"time": 2677, "pitch": 57, "duration": 5, "velocity": 68}, {"time": 2680, "pitch": 61, "duration": 10, "velocity": 77}, {"time": 2680, "pitch": 66, "duration": 22, "velocity": 107}, {"time": 2686, "pitch": 54, "duration": 10, "velocity": 55}, {"time": 2689, "pitch": 57, "duration": 11, "velocity": 71}, {"time": 2692, "pitch": 61, "duration": 10, "velocity": 57}, {"time": 2695, "pitch": 42, "duration": 19, "velocity": 50}, {"time": 2698, "pitch": 54, "duration": 10, "velocity": 56}, {"time": 2701, "pitch": 57, "duration": 5, "velocity": 55}, {"time": 2704, "pitch": 61, "duration": 3, "velocity": 93}, {"time": 2704, "pitch": 66, "duration": 3, "velocity": 127}, {"time": 2708, "pitch": 61, "duration": 12, "velocity": 93}, {"time": 2708, "pitch": 66, "duration": 12, "velocity": 88}, {"time": 2710, "pitch": 54, "duration": 3, "velocity": 72}, {"time": 2714, "pitch": 57, "duration": 6, "velocity": 83}, {"time": 2720, "pitch": 38, "duration": 21, "velocity": 75}, {"time": 2723, "pitch": 45, "duration": 22, "velocity": 42}, {"time": 2726, "pitch": 50, "duration": 5, "velocity": 81}, {"time": 2729, "pitch": 62, "duration": 2, "velocity": 58}, {"time": 2729, "pitch": 69, "duration": 16, "velocity": 77}, {"time": 2729, "pitch": 66, "duration": 17, "velocity": 95}, {"time": 2735, "pitch": 50, "duration": 2, "velocity": 41}, {"time": 2738, "pitch": 62, "duration": 8, "velocity": 75}, {"time": 2744, "pitch": 40, "duration": 23, "velocity": 72}, {"time": 2748, "pitch": 47, "duration": 19, "velocity": 61}, {"time": 2750, "pitch": 52, "duration": 18, "velocity": 83}, {"time": 2754, "pitch": 64, "duration": 5, "velocity": 69}, {"time": 2758, "pitch": 68, "duration": 28, "velocity": 75}, {"time": 2758, "pitch": 71, "duration": 28, "velocity": 78}, {"time": 2765, "pitch": 64, "duration": 20, "velocity": 78}, {"time": 2785, "pitch": 42, "duration": 98, "velocity": 82}, {"time": 2789, "pitch": 49, "duration": 93, "velocity": 55}, {"time": 2792, "pitch": 54, "duration": 90, "velocity": 81}, {"time": 2795, "pitch": 57, "duration": 5, "velocity": 82}, {"time": 2800, "pitch": 61, "duration": 1, "velocity": 90}, {"time": 2805, "pitch": 69, "duration": 1, "velocity": 79}, {"time": 2805, "pitch": 66, "duration": 3, "velocity": 88}, {"time": 2806, "pitch": 73, "duration": 1, "velocity": 99}, {"time": 2811, "pitch": 68, "duration": 1, "velocity": 82}, {"time": 2811, "pitch": 66, "duration": 1, "velocity": 42}, {"time": 2818, "pitch": 68, "duration": 1, "velocity": 72}, {"time": 2818, "pitch": 71, "duration": 1, "velocity": 73}, {"time": 2828, "pitch": 78, "duration": 1, "velocity": 72}, {"time": 2828, "pitch": 81, "duration": 1, "velocity": 61}, {"time": 2828, "pitch": 73, "duration": 1, "velocity": 52}, {"time": 2838, "pitch": 78, "duration": 46, "velocity": 29}, {"time": 2839, "pitch": 81, "duration": 44, "velocity": 34}, {"time": 2839, "pitch": 85, "duration": 45, "velocity": 40}, {"time": 2840, "pitch": 90, "duration": 43, "velocity": 58}], "annotations": [{"time": 27, "annotation": {"number": 64, "value": 127}, "group": "control_change"}, {"time": 73, "annotation": {"number": 64, "value": 0}, "group": "control_change"}, {"time": 75, "annotation": {"number": 64, "value": 127}, "group": "control_change"}, {"time": 122, "annotation": {"number": 64, "value": 0}, "group": "control_change"}, {"time": 123, "annotation": {"number": 64, "value": 127}, "group": "control_change"}, {"time": 146, "annotation": {"number": 64, "value": 0}, "group": "control_change"}, {"time": 147, "annotation": {"number": 64, "value": 127}, "group": "control_change"}, {"time": 170, "annotation": {"number": 64, "value": 0}, "group": "control_change"}, {"time": 171, "annotation": {"number": 64, "value": 127}, "group": "control_change"}, {"time": 193, "annotation": {"number": 64, "value": 0}, "group": "control_change"}, {"time": 194, "annotation": {"number": 64, "value": 127}, "group": "control_change"}, {"time": 218, "annotation": {"number": 64, "value": 0}, "group": "control_change"}, {"time": 219, "annotation": {"number": 64, "value": 127}, "group": "control_change"}, {"time": 242, "annotation": {"number": 64, "value": 0}, "group": "control_change"}, {"time": 244, "annotation": {"number": 64, "value": 127}, "group": "control_change"}, {"time": 250, "annotation": {"number": 64, "value": 0}, "group": "control_change"}, {"time": 253, "annotation": {"number": 64, "value": 127}, "group": "control_change"}, {"time": 265, "annotation": {"number": 64, "value": 0}, "group": "control_change"}, {"time": 267, "annotation": {"number": 64, "value": 127}, "group": "control_change"}, {"time": 291, "annotation": {"number": 64, "value": 0}, "group": "control_change"}, {"time": 302, "annotation": {"number": 64, "value": 127}, "group": "control_change"}, {"time": 313, "annotation": {"number": 64, "value": 0}, "group": "control_change"}, {"time": 315, "annotation": {"number": 64, "value": 127}, "group": "control_change"}, {"time": 336, "annotation": {"number": 64, "value": 0}, "group": "control_change"}, {"time": 338, "annotation": {"number": 64, "value": 127}, "group": "control_change"}, {"time": 361, "annotation": {"number": 64, "value": 0}, "group": "control_change"}, {"time": 363, "annotation": {"number": 64, "value": 127}, "group": "control_change"}, {"time": 384, "annotation": {"number": 64, "value": 0}, "group": "control_change"}, {"time": 386, "annotation": {"number": 64, "value": 127}, "group": "control_change"}, {"time": 409, "annotation": {"number": 64, "value": 0}, "group": "control_change"}, {"time": 411, "annotation": {"number": 64, "value": 127}, "group": "control_change"}, {"time": 433, "annotation": {"number": 64, "value": 0}, "group": "control_change"}, {"time": 435, "annotation": {"number": 64, "value": 127}, "group": "control_change"}, {"time": 457, "annotation": {"number": 64, "value": 0}, "group": "control_change"}, {"time": 458, "annotation": {"number": 64, "value": 127}, "group": "control_change"}, {"time": 505, "annotation": {"number": 64, "value": 0}, "group": "control_change"}, {"time": 507, "annotation": {"number": 64, "value": 127}, "group": "control_change"}, {"time": 528, "annotation": {"number": 64, "value": 0}, "group": "control_change"}, {"time": 531, "annotation": {"number": 64, "value": 127}, "group": "control_change"}, {"time": 554, "annotation": {"number": 64, "value": 0}, "group": "control_change"}, {"time": 555, "annotation": {"number": 64, "value": 127}, "group": "control_change"}, {"time": 578, "annotation": {"number": 64, "value": 0}, "group": "control_change"}, {"time": 579, "annotation": {"number": 64, "value": 127}, "group": "control_change"}, {"time": 601, "annotation": {"number": 64, "value": 0}, "group": "control_change"}, {"time": 603, "annotation": {"number": 64, "value": 127}, "group": "control_change"}, {"time": 626, "annotation": {"number": 64, "value": 0}, "group": "control_change"}, {"time": 627, "annotation": {"number": 64, "value": 127}, "group": "control_change"}, {"time": 649, "annotation": {"number": 64, "value": 0}, "group": "control_change"}, {"time": 675, "annotation": {"number": 64, "value": 127}, "group": "control_change"}, {"time": 698, "annotation": {"number": 64, "value": 0}, "group": "control_change"}, {"time": 699, "annotation": {"number": 64, "value": 127}, "group": "control_change"}, {"time": 721, "annotation": {"number": 64, "value": 0}, "group": "control_change"}, {"time": 722, "annotation": {"number": 64, "value": 127}, "group": "control_change"}, {"time": 745, "annotation": {"number": 64, "value": 0}, "group": "control_change"}, {"time": 746, "annotation": {"number": 64, "value": 127}, "group": "control_change"}, {"time": 769, "annotation": {"number": 64, "value": 0}, "group": "control_change"}, {"time": 770, "annotation": {"number": 64, "value": 127}, "group": "control_change"}, {"time": 793, "annotation": {"number": 64, "value": 0}, "group": "control_change"}, {"time": 795, "annotation": {"number": 64, "value": 127}, "group": "control_change"}, {"time": 817, "annotation": {"number": 64, "value": 0}, "group": "control_change"}, {"time": 818, "annotation": {"number": 64, "value": 127}, "group": "control_change"}, {"time": 829, "annotation": {"number": 64, "value": 0}, "group": "control_change"}, {"time": 830, "annotation": {"number": 64, "value": 127}, "group": "control_change"}, {"time": 842, "annotation": {"number": 64, "value": 0}, "group": "control_change"}, {"time": 843, "annotation": {"number": 64, "value": 127}, "group": "control_change"}, {"time": 864, "annotation": {"number": 64, "value": 0}, "group": "control_change"}, {"time": 866, "annotation": {"number": 64, "value": 127}, "group": "control_change"}, {"time": 888, "annotation": {"number": 64, "value": 0}, "group": "control_change"}, {"time": 891, "annotation": {"number": 64, "value": 127}, "group": "control_change"}, {"time": 913, "annotation": {"number": 64, "value": 0}, "group": "control_change"}, {"time": 914, "annotation": {"number": 64, "value": 127}, "group": "control_change"}, {"time": 937, "annotation": {"number": 64, "value": 0}, "group": "control_change"}, {"time": 938, "annotation": {"number": 64, "value": 127}, "group": "control_change"}, {"time": 961, "annotation": {"number": 64, "value": 0}, "group": "control_change"}, {"time": 962, "annotation": {"number": 64, "value": 127}, "group": "control_change"}, {"time": 985, "annotation": {"number": 64, "value": 0}, "group": "control_change"}, {"time": 987, "annotation": {"number": 64, "value": 127}, "group": "control_change"}, {"time": 1009, "annotation": {"number": 64, "value": 0}, "group": "control_change"}, {"time": 1010, "annotation": {"number": 64, "value": 127}, "group": "control_change"}, {"time": 1021, "annotation": {"number": 64, "value": 0}, "group": "control_change"}, {"time": 1022, "annotation": {"number": 64, "value": 127}, "group": "control_change"}, {"time": 1034, "annotation": {"number": 64, "value": 0}, "group": "control_change"}, {"time": 1035, "annotation": {"number": 64, "value": 127}, "group": "control_change"}, {"time": 1056, "annotation": {"number": 64, "value": 0}, "group": "control_change"}, {"time": 1058, "annotation": {"number": 64, "value": 127}, "group": "control_change"}, {"time": 1080, "annotation": {"number": 64, "value": 0}, "group": "control_change"}, {"time": 1082, "annotation": {"number": 64, "value": 127}, "group": "control_change"}, {"time": 1083, "annotation": {"number": 64, "value": 127}, "group": "control_change"}, {"time": 1105, "annotation": {"number": 64, "value": 0}, "group": "control_change"}, {"time": 1107, "annotation": {"number": 64, "value": 127}, "group": "control_change"}, {"time": 1128, "annotation": {"number": 64, "value": 0}, "group": "control_change"}, {"time": 1131, "annotation": {"number": 64, "value": 127}, "group": "control_change"}, {"time": 1153, "annotation": {"number": 64, "value": 0}, "group": "control_change"}, {"time": 1155, "annotation": {"number": 64, "value": 127}, "group": "control_change"}, {"time": 1175, "annotation": {"number": 64, "value": 0}, "group": "control_change"}, {"time": 1178, "annotation": {"number": 64, "value": 127}, "group": "control_change"}, {"time": 1200, "annotation": {"number": 64, "value": 0}, "group": "control_change"}, {"time": 1202, "annotation": {"number": 64, "value": 127}, "group": "control_change"}, {"time": 1224, "annotation": {"number": 64, "value": 0}, "group": "control_change"}, {"time": 1226, "annotation": {"number": 64, "value": 127}, "group": "control_change"}, {"time": 1273, "annotation": {"number": 64, "value": 0}, "group": "control_change"}, {"time": 1296, "annotation": {"number": 64, "value": 0}, "group": "control_change"}, {"time": 1299, "annotation": {"number": 64, "value": 127}, "group": "control_change"}, {"time": 1322, "annotation": {"number": 64, "value": 0}, "group": "control_change"}, {"time": 1323, "annotation": {"number": 64, "value": 127}, "group": "control_change"}, {"time": 1346, "annotation": {"number": 64, "value": 0}, "group": "control_change"}, {"time": 1347, "annotation": {"number": 64, "value": 127}, "group": "control_change"}, {"time": 1369, "annotation": {"number": 64, "value": 0}, "group": "control_change"}, {"time": 1371, "annotation": {"number": 64, "value": 127}, "group": "control_change"}, {"time": 1394, "annotation": {"number": 64, "value": 0}, "group": "control_change"}, {"time": 1395, "annotation": {"number": 64, "value": 127}, "group": "control_change"}, {"time": 1417, "annotation": {"number": 64, "value": 0}, "group": "control_change"}, {"time": 1443, "annotation": {"number": 64, "value": 127}, "group": "control_change"}, {"time": 1466, "annotation": {"number": 64, "value": 0}, "group": "control_change"}, {"time": 1467, "annotation": {"number": 64, "value": 127}, "group": "control_change"}, {"time": 1489, "annotation": {"number": 64, "value": 0}, "group": "control_change"}, {"time": 1490, "annotation": {"number": 64, "value": 127}, "group": "control_change"}, {"time": 1513, "annotation": {"number": 64, "value": 0}, "group": "control_change"}, {"time": 1514, "annotation": {"number": 64, "value": 127}, "group": "control_change"}, {"time": 1537, "annotation": {"number": 64, "value": 0}, "group": "control_change"}, {"time": 1538, "annotation": {"number": 64, "value": 127}, "group": "control_change"}, {"time": 1561, "annotation": {"number": 64, "value": 0}, "group": "control_change"}, {"time": 1563, "annotation": {"number": 64, "value": 127}, "group": "control_change"}, {"time": 1585, "annotation": {"number": 64, "value": 0}, "group": "control_change"}, {"time": 1586, "annotation": {"number": 64, "value": 127}, "group": "control_change"}, {"time": 1597, "annotation": {"number": 64, "value": 0}, "group": "control_change"}, {"time": 1598, "annotation": {"number": 64, "value": 127}, "group": "control_change"}, {"time": 1610, "annotation": {"number": 64, "value": 0}, "group": "control_change"}, {"time": 1611, "annotation": {"number": 64, "value": 127}, "group": "control_change"}, {"time": 1632, "annotation": {"number": 64, "value": 0}, "group": "control_change"}, {"time": 1634, "annotation": {"number": 64, "value": 127}, "group": "control_change"}, {"time": 1656, "annotation": {"number": 64, "value": 0}, "group": "control_change"}, {"time": 1659, "annotation": {"number": 64, "value": 127}, "group": "control_change"}, {"time": 1681, "annotation": {"number": 64, "value": 0}, "group": "control_change"}, {"time": 1682, "annotation": {"number": 64, "value": 127}, "group": "control_change"}, {"time": 1705, "annotation": {"number": 64, "value": 0}, "group": "control_change"}, {"time": 1706, "annotation": {"number": 64, "value": 127}, "group": "control_change"}, {"time": 1729, "annotation": {"number": 64, "value": 0}, "group": "control_change"}, {"time": 1730, "annotation": {"number": 64, "value": 127}, "group": "control_change"}, {"time": 1753, "annotation": {"number": 64, "value": 0}, "group": "control_change"}, {"time": 1755, "annotation": {"number": 64, "value": 127}, "group": "control_change"}, {"time": 1777, "annotation": {"number": 64, "value": 0}, "group": "control_change"}, {"time": 1778, "annotation": {"number": 64, "value": 127}, "group": "control_change"}, {"time": 1789, "annotation": {"number": 64, "value": 0}, "group": "control_change"}, {"time": 1790, "annotation": {"number": 64, "value": 127}, "group": "control_change"}, {"time": 1802, "annotation": {"number": 64, "value": 0}, "group": "control_change"}, {"time": 1803, "annotation": {"number": 64, "value": 127}, "group": "control_change"}, {"time": 1824, "annotation": {"number": 64, "value": 0}, "group": "control_change"}, {"time": 1826, "annotation": {"number": 64, "value": 127}, "group": "control_change"}, {"time": 1848, "annotation": {"number": 64, "value": 0}, "group": "control_change"}, {"time": 1850, "annotation": {"number": 64, "value": 127}, "group": "control_change"}, {"time": 1851, "annotation": {"number": 64, "value": 127}, "group": "control_change"}, {"time": 1852, "annotation": {"number": 64, "value": 127}, "group": "control_change"}, {"time": 1873, "annotation": {"number": 64, "value": 0}, "group": "control_change"}, {"time": 1875, "annotation": {"number": 64, "value": 127}, "group": "control_change"}, {"time": 1897, "annotation": {"number": 64, "value": 0}, "group": "control_change"}, {"time": 1899, "annotation": {"number": 64, "value": 127}, "group": "control_change"}, {"time": 1920, "annotation": {"number": 64, "value": 0}, "group": "control_change"}, {"time": 1922, "annotation": {"number": 64, "value": 127}, "group": "control_change"}, {"time": 1929, "annotation": {"number": 64, "value": 0}, "group": "control_change"}, {"time": 1948, "annotation": {"number": 64, "value": 127}, "group": "control_change"}, {"time": 1969, "annotation": {"number": 64, "value": 0}, "group": "control_change"}, {"time": 1971, "annotation": {"number": 64, "value": 127}, "group": "control_change"}, {"time": 1992, "annotation": {"number": 64, "value": 0}, "group": "control_change"}, {"time": 1994, "annotation": {"number": 64, "value": 127}, "group": "control_change"}, {"time": 2001, "annotation": {"number": 64, "value": 0}, "group": "control_change"}, {"time": 2056, "annotation": {"number": 64, "value": 127}, "group": "control_change"}, {"time": 2077, "annotation": {"number": 64, "value": 0}, "group": "control_change"}, {"time": 2079, "annotation": {"number": 64, "value": 127}, "group": "control_change"}, {"time": 2101, "annotation": {"number": 64, "value": 0}, "group": "control_change"}, {"time": 2102, "annotation": {"number": 64, "value": 127}, "group": "control_change"}, {"time": 2125, "annotation": {"number": 64, "value": 0}, "group": "control_change"}, {"time": 2127, "annotation": {"number": 64, "value": 127}, "group": "control_change"}, {"time": 2148, "annotation": {"number": 64, "value": 0}, "group": "control_change"}, {"time": 2151, "annotation": {"number": 64, "value": 127}, "group": "control_change"}, {"time": 2172, "annotation": {"number": 64, "value": 0}, "group": "control_change"}, {"time": 2174, "annotation": {"number": 64, "value": 127}, "group": "control_change"}, {"time": 2186, "annotation": {"number": 64, "value": 0}, "group": "control_change"}, {"time": 2187, "annotation": {"number": 64, "value": 127}, "group": "control_change"}, {"time": 2197, "annotation": {"number": 64, "value": 0}, "group": "control_change"}, {"time": 2199, "annotation": {"number": 64, "value": 127}, "group": "control_change"}, {"time": 2205, "annotation": {"number": 64, "value": 0}, "group": "control_change"}, {"time": 2223, "annotation": {"number": 64, "value": 127}, "group": "control_change"}, {"time": 2227, "annotation": {"number": 64, "value": 0}, "group": "control_change"}, {"time": 2249, "annotation": {"number": 64, "value": 127}, "group": "control_change"}, {"time": 2269, "annotation": {"number": 64, "value": 0}, "group": "control_change"}, {"time": 2271, "annotation": {"number": 64, "value": 127}, "group": "control_change"}, {"time": 2282, "annotation": {"number": 64, "value": 0}, "group": "control_change"}, {"time": 2295, "annotation": {"number": 64, "value": 127}, "group": "control_change"}, {"time": 2317, "annotation": {"number": 64, "value": 0}, "group": "control_change"}, {"time": 2319, "annotation": {"number": 64, "value": 127}, "group": "control_change"}, {"time": 2339, "annotation": {"number": 64, "value": 0}, "group": "control_change"}, {"time": 2343, "annotation": {"number": 64, "value": 127}, "group": "control_change"}, {"time": 2364, "annotation": {"number": 64, "value": 0}, "group": "control_change"}, {"time": 2367, "annotation": {"number": 64, "value": 127}, "group": "control_change"}, {"time": 2377, "annotation": {"number": 64, "value": 0}, "group": "control_change"}, {"time": 2379, "annotation": {"number": 64, "value": 127}, "group": "control_change"}, {"time": 2389, "annotation": {"number": 64, "value": 0}, "group": "control_change"}, {"time": 2391, "annotation": {"number": 64, "value": 127}, "group": "control_change"}, {"time": 2414, "annotation": {"number": 64, "value": 0}, "group": "control_change"}, {"time": 2439, "annotation": {"number": 64, "value": 127}, "group": "control_change"}, {"time": 2450, "annotation": {"number": 64, "value": 0}, "group": "control_change"}, {"time": 2488, "annotation": {"number": 64, "value": 127}, "group": "control_change"}, {"time": 2510, "annotation": {"number": 64, "value": 0}, "group": "control_change"}, {"time": 2513, "annotation": {"number": 64, "value": 127}, "group": "control_change"}, {"time": 2536, "annotation": {"number": 64, "value": 0}, "group": "control_change"}, {"time": 2539, "annotation": {"number": 64, "value": 127}, "group": "control_change"}, {"time": 2567, "annotation": {"number": 64, "value": 0}, "group": "control_change"}, {"time": 2572, "annotation": {"number": 64, "value": 127}, "group": "control_change"}, {"time": 2618, "annotation": {"number": 64, "value": 0}, "group": "control_change"}, {"time": 2622, "annotation": {"number": 64, "value": 127}, "group": "control_change"}, {"time": 2644, "annotation": {"number": 64, "value": 0}, "group": "control_change"}, {"time": 2647, "annotation": {"number": 64, "value": 127}, "group": "control_change"}, {"time": 2669, "annotation": {"number": 64, "value": 0}, "group": "control_change"}, {"time": 2672, "annotation": {"number": 64, "value": 127}, "group": "control_change"}, {"time": 2693, "annotation": {"number": 64, "value": 0}, "group": "control_change"}, {"time": 2695, "annotation": {"number": 64, "value": 127}, "group": "control_change"}, {"time": 2717, "annotation": {"number": 64, "value": 0}, "group": "control_change"}, {"time": 2721, "annotation": {"number": 64, "value": 127}, "group": "control_change"}, {"time": 2741, "annotation": {"number": 64, "value": 0}, "group": "control_change"}, {"time": 2745, "annotation": {"number": 64, "value": 127}, "group": "control_change"}, {"time": 2785, "annotation": {"number": 64, "value": 0}, "group": "control_change"}, {"time": 2788, "annotation": {"number": 64, "value": 127}, "group": "control_change"}, {"time": 2892, "annotation": {"number": 64, "value": 0}, "group": "control_change"}, {"time": 2893, "annotation": {"number": 64, "value": 127}, "group": "control_change"}, {"time": 2898, "annotation": {"number": 64, "value": 0}, "group": "control_change"}]}]}