{"metadata": {"schema_version": "0.2", "title": "None", "source_filename": "464.mid", "source_format": "midi"}, "resolution": 12, "tempos": [{"time": 0, "qpm": 63.93017120499849}], "time_signatures": [{"time": 0, "numerator": 1, "denominator": 4}], "tracks": [{"program": 0, "is_drum": false, "name": "MELODY", "notes": [{"time": 262, "pitch": 66, "duration": 3, "velocity": 99}, {"time": 265, "pitch": 69, "duration": 4, "velocity": 74}, {"time": 268, "pitch": 66, "duration": 3, "velocity": 76}, {"time": 271, "pitch": 69, "duration": 19, "velocity": 88}, {"time": 298, "pitch": 62, "duration": 2, "velocity": 102}, {"time": 301, "pitch": 64, "duration": 3, "velocity": 90}, {"time": 307, "pitch": 66, "duration": 2, "velocity": 107}, {"time": 313, "pitch": 64, "duration": 16, "velocity": 88}, {"time": 358, "pitch": 71, "duration": 3, "velocity": 117}, {"time": 361, "pitch": 69, "duration": 1, "velocity": 77}, {"time": 364, "pitch": 69, "duration": 2, "velocity": 82}, {"time": 367, "pitch": 66, "duration": 2, "velocity": 99}, {"time": 370, "pitch": 69, "duration": 10, "velocity": 93}, {"time": 382, "pitch": 71, "duration": 3, "velocity": 112}, {"time": 385, "pitch": 69, "duration": 3, "velocity": 88}, {"time": 391, "pitch": 66, "duration": 2, "velocity": 89}, {"time": 394, "pitch": 69, "duration": 4, "velocity": 88}, {"time": 397, "pitch": 66, "duration": 19, "velocity": 75}, {"time": 436, "pitch": 69, "duration": 1, "velocity": 102}, {"time": 439, "pitch": 69, "duration": 1, "velocity": 97}, {"time": 442, "pitch": 71, "duration": 4, "velocity": 117}, {"time": 448, "pitch": 71, "duration": 1, "velocity": 95}, {"time": 451, "pitch": 71, "duration": 1, "velocity": 92}, {"time": 454, "pitch": 71, "duration": 4, "velocity": 122}, {"time": 460, "pitch": 73, "duration": 2, "velocity": 112}, {"time": 463, "pitch": 74, "duration": 12, "velocity": 90}, {"time": 484, "pitch": 71, "duration": 2, "velocity": 102}, {"time": 487, "pitch": 74, "duration": 2, "velocity": 92}, {"time": 490, "pitch": 71, "duration": 3, "velocity": 102}, {"time": 493, "pitch": 69, "duration": 4, "velocity": 83}, {"time": 496, "pitch": 69, "duration": 1, "velocity": 100}, {"time": 499, "pitch": 69, "duration": 2, "velocity": 90}, {"time": 502, "pitch": 69, "duration": 3, "velocity": 102}, {"time": 508, "pitch": 71, "duration": 2, "velocity": 99}, {"time": 511, "pitch": 69, "duration": 7, "velocity": 102}, {"time": 532, "pitch": 66, "duration": 1, "velocity": 127}, {"time": 535, "pitch": 66, "duration": 1, "velocity": 95}, {"time": 538, "pitch": 66, "duration": 5, "velocity": 122}, {"time": 544, "pitch": 64, "duration": 1, "velocity": 82}, {"time": 547, "pitch": 64, "duration": 16, "velocity": 100}, {"time": 574, "pitch": 71, "duration": 7, "velocity": 127}, {"time": 580, "pitch": 69, "duration": 3, "velocity": 96}, {"time": 586, "pitch": 66, "duration": 6, "velocity": 117}, {"time": 592, "pitch": 64, "duration": 14, "velocity": 97}, {"time": 643, "pitch": 57, "duration": 1, "velocity": 112}, {"time": 646, "pitch": 66, "duration": 3, "velocity": 99}, {"time": 649, "pitch": 69, "duration": 4, "velocity": 74}, {"time": 652, "pitch": 66, "duration": 3, "velocity": 76}, {"time": 655, "pitch": 69, "duration": 19, "velocity": 88}, {"time": 679, "pitch": 57, "duration": 2, "velocity": 100}, {"time": 682, "pitch": 62, "duration": 2, "velocity": 102}, {"time": 685, "pitch": 64, "duration": 3, "velocity": 90}, {"time": 688, "pitch": 64, "duration": 2, "velocity": 102}, {"time": 691, "pitch": 66, "duration": 2, "velocity": 107}, {"time": 697, "pitch": 64, "duration": 16, "velocity": 88}, {"time": 739, "pitch": 71, "duration": 2, "velocity": 112}, {"time": 742, "pitch": 71, "duration": 3, "velocity": 117}, {"time": 745, "pitch": 69, "duration": 2, "velocity": 102}, {"time": 748, "pitch": 66, "duration": 2, "velocity": 107}, {"time": 751, "pitch": 69, "duration": 10, "velocity": 93}, {"time": 763, "pitch": 69, "duration": 2, "velocity": 76}, {"time": 766, "pitch": 71, "duration": 5, "velocity": 107}, {"time": 775, "pitch": 69, "duration": 2, "velocity": 97}, {"time": 778, "pitch": 66, "duration": 3, "velocity": 99}, {"time": 784, "pitch": 69, "duration": 2, "velocity": 112}, {"time": 787, "pitch": 66, "duration": 14, "velocity": 112}, {"time": 820, "pitch": 69, "duration": 1, "velocity": 102}, {"time": 823, "pitch": 69, "duration": 1, "velocity": 97}, {"time": 826, "pitch": 71, "duration": 4, "velocity": 117}, {"time": 832, "pitch": 71, "duration": 1, "velocity": 95}, {"time": 835, "pitch": 71, "duration": 1, "velocity": 92}, {"time": 841, "pitch": 71, "duration": 3, "velocity": 127}, {"time": 847, "pitch": 73, "duration": 1, "velocity": 102}, {"time": 850, "pitch": 74, "duration": 11, "velocity": 99}, {"time": 868, "pitch": 71, "duration": 2, "velocity": 102}, {"time": 871, "pitch": 74, "duration": 2, "velocity": 92}, {"time": 874, "pitch": 71, "duration": 3, "velocity": 102}, {"time": 880, "pitch": 69, "duration": 1, "velocity": 100}, {"time": 883, "pitch": 69, "duration": 2, "velocity": 90}, {"time": 886, "pitch": 69, "duration": 3, "velocity": 102}, {"time": 892, "pitch": 66, "duration": 2, "velocity": 112}, {"time": 895, "pitch": 74, "duration": 12, "velocity": 102}, {"time": 916, "pitch": 69, "duration": 1, "velocity": 93}, {"time": 919, "pitch": 69, "duration": 2, "velocity": 100}, {"time": 922, "pitch": 71, "duration": 4, "velocity": 122}, {"time": 928, "pitch": 71, "duration": 1, "velocity": 97}, {"time": 931, "pitch": 71, "duration": 1, "velocity": 96}, {"time": 934, "pitch": 71, "duration": 2, "velocity": 122}, {"time": 940, "pitch": 73, "duration": 2, "velocity": 117}, {"time": 943, "pitch": 74, "duration": 7, "velocity": 117}, {"time": 958, "pitch": 71, "duration": 4, "velocity": 117}, {"time": 964, "pitch": 74, "duration": 1, "velocity": 117}, {"time": 967, "pitch": 76, "duration": 23, "velocity": 117}, {"time": 1006, "pitch": 69, "duration": 3, "velocity": 112}, {"time": 1009, "pitch": 71, "duration": 3, "velocity": 122}, {"time": 1015, "pitch": 74, "duration": 2, "velocity": 117}, {"time": 1018, "pitch": 78, "duration": 8, "velocity": 127}, {"time": 1024, "pitch": 76, "duration": 1, "velocity": 122}, {"time": 1027, "pitch": 76, "duration": 1, "velocity": 112}, {"time": 1030, "pitch": 76, "duration": 3, "velocity": 122}, {"time": 1036, "pitch": 74, "duration": 1, "velocity": 122}, {"time": 1039, "pitch": 76, "duration": 9, "velocity": 127}, {"time": 1063, "pitch": 74, "duration": 1, "velocity": 97}, {"time": 1066, "pitch": 78, "duration": 5, "velocity": 127}, {"time": 1072, "pitch": 76, "duration": 4, "velocity": 122}, {"time": 1078, "pitch": 76, "duration": 4, "velocity": 127}, {"time": 1084, "pitch": 74, "duration": 1, "velocity": 122}, {"time": 1087, "pitch": 74, "duration": 8, "velocity": 127}, {"time": 1108, "pitch": 74, "duration": 1, "velocity": 112}, {"time": 1111, "pitch": 76, "duration": 3, "velocity": 122}, {"time": 1114, "pitch": 78, "duration": 2, "velocity": 99}, {"time": 1117, "pitch": 78, "duration": 1, "velocity": 107}, {"time": 1120, "pitch": 78, "duration": 1, "velocity": 122}, {"time": 1123, "pitch": 78, "duration": 1, "velocity": 122}, {"time": 1126, "pitch": 78, "duration": 3, "velocity": 127}, {"time": 1132, "pitch": 76, "duration": 2, "velocity": 127}, {"time": 1135, "pitch": 74, "duration": 1, "velocity": 97}, {"time": 1138, "pitch": 76, "duration": 5, "velocity": 122}, {"time": 1147, "pitch": 69, "duration": 1, "velocity": 96}, {"time": 1150, "pitch": 69, "duration": 2, "velocity": 97}, {"time": 1153, "pitch": 71, "duration": 2, "velocity": 107}, {"time": 1156, "pitch": 74, "duration": 2, "velocity": 107}, {"time": 1159, "pitch": 76, "duration": 1, "velocity": 127}, {"time": 1162, "pitch": 78, "duration": 3, "velocity": 127}, {"time": 1165, "pitch": 76, "duration": 2, "velocity": 112}, {"time": 1168, "pitch": 74, "duration": 1, "velocity": 99}, {"time": 1171, "pitch": 74, "duration": 1, "velocity": 127}, {"time": 1174, "pitch": 74, "duration": 3, "velocity": 127}, {"time": 1177, "pitch": 71, "duration": 3, "velocity": 112}, {"time": 1183, "pitch": 74, "duration": 2, "velocity": 102}, {"time": 1186, "pitch": 76, "duration": 6, "velocity": 127}, {"time": 1198, "pitch": 69, "duration": 2, "velocity": 112}, {"time": 1201, "pitch": 71, "duration": 2, "velocity": 117}, {"time": 1207, "pitch": 74, "duration": 1, "velocity": 117}, {"time": 1210, "pitch": 78, "duration": 4, "velocity": 127}, {"time": 1216, "pitch": 76, "duration": 1, "velocity": 117}, {"time": 1219, "pitch": 76, "duration": 1, "velocity": 112}, {"time": 1222, "pitch": 76, "duration": 2, "velocity": 122}, {"time": 1228, "pitch": 74, "duration": 1, "velocity": 127}, {"time": 1231, "pitch": 76, "duration": 4, "velocity": 127}, {"time": 1237, "pitch": 78, "duration": 7, "velocity": 127}, {"time": 1255, "pitch": 74, "duration": 1, "velocity": 112}, {"time": 1258, "pitch": 78, "duration": 3, "velocity": 127}, {"time": 1264, "pitch": 81, "duration": 2, "velocity": 122}, {"time": 1270, "pitch": 78, "duration": 2, "velocity": 127}, {"time": 1273, "pitch": 76, "duration": 2, "velocity": 112}, {"time": 1276, "pitch": 74, "duration": 1, "velocity": 117}, {"time": 1279, "pitch": 74, "duration": 8, "velocity": 127}, {"time": 1300, "pitch": 74, "duration": 1, "velocity": 112}, {"time": 1303, "pitch": 76, "duration": 1, "velocity": 112}, {"time": 1306, "pitch": 78, "duration": 1, "velocity": 127}, {"time": 1309, "pitch": 78, "duration": 1, "velocity": 99}, {"time": 1312, "pitch": 78, "duration": 1, "velocity": 112}, {"time": 1315, "pitch": 78, "duration": 1, "velocity": 122}, {"time": 1318, "pitch": 78, "duration": 2, "velocity": 127}, {"time": 1321, "pitch": 76, "duration": 2, "velocity": 122}, {"time": 1327, "pitch": 74, "duration": 1, "velocity": 112}, {"time": 1330, "pitch": 76, "duration": 6, "velocity": 127}, {"time": 1339, "pitch": 69, "duration": 1, "velocity": 99}, {"time": 1342, "pitch": 69, "duration": 2, "velocity": 112}, {"time": 1345, "pitch": 71, "duration": 2, "velocity": 107}, {"time": 1348, "pitch": 74, "duration": 2, "velocity": 117}, {"time": 1351, "pitch": 76, "duration": 1, "velocity": 127}, {"time": 1354, "pitch": 78, "duration": 1, "velocity": 127}, {"time": 1357, "pitch": 76, "duration": 2, "velocity": 127}, {"time": 1360, "pitch": 74, "duration": 1, "velocity": 97}, {"time": 1363, "pitch": 74, "duration": 3, "velocity": 127}, {"time": 1369, "pitch": 74, "duration": 6, "velocity": 122}, {"time": 1384, "pitch": 74, "duration": 1, "velocity": 122}, {"time": 1387, "pitch": 74, "duration": 1, "velocity": 107}, {"time": 1390, "pitch": 74, "duration": 3, "velocity": 122}, {"time": 1396, "pitch": 71, "duration": 2, "velocity": 117}, {"time": 1399, "pitch": 76, "duration": 19, "velocity": 127}, {"time": 1432, "pitch": 69, "duration": 1, "velocity": 96}, {"time": 1435, "pitch": 69, "duration": 1, "velocity": 92}, {"time": 1438, "pitch": 78, "duration": 3, "velocity": 127}, {"time": 1441, "pitch": 76, "duration": 2, "velocity": 117}, {"time": 1447, "pitch": 74, "duration": 3, "velocity": 117}, {"time": 1453, "pitch": 71, "duration": 2, "velocity": 112}, {"time": 1456, "pitch": 76, "duration": 5, "velocity": 112}, {"time": 1465, "pitch": 74, "duration": 23, "velocity": 117}, {"time": 1843, "pitch": 57, "duration": 1, "velocity": 107}, {"time": 1846, "pitch": 66, "duration": 3, "velocity": 99}, {"time": 1849, "pitch": 69, "duration": 4, "velocity": 74}, {"time": 1852, "pitch": 66, "duration": 3, "velocity": 76}, {"time": 1855, "pitch": 69, "duration": 19, "velocity": 88}, {"time": 1879, "pitch": 57, "duration": 2, "velocity": 100}, {"time": 1882, "pitch": 62, "duration": 2, "velocity": 102}, {"time": 1885, "pitch": 64, "duration": 3, "velocity": 90}, {"time": 1888, "pitch": 64, "duration": 2, "velocity": 102}, {"time": 1891, "pitch": 66, "duration": 2, "velocity": 107}, {"time": 1897, "pitch": 64, "duration": 16, "velocity": 88}, {"time": 1939, "pitch": 71, "duration": 2, "velocity": 112}, {"time": 1942, "pitch": 71, "duration": 3, "velocity": 117}, {"time": 1945, "pitch": 69, "duration": 2, "velocity": 102}, {"time": 1948, "pitch": 66, "duration": 2, "velocity": 107}, {"time": 1951, "pitch": 69, "duration": 10, "velocity": 93}, {"time": 1963, "pitch": 69, "duration": 2, "velocity": 76}, {"time": 1966, "pitch": 71, "duration": 5, "velocity": 107}, {"time": 1975, "pitch": 69, "duration": 2, "velocity": 97}, {"time": 1978, "pitch": 66, "duration": 3, "velocity": 99}, {"time": 1984, "pitch": 69, "duration": 2, "velocity": 112}, {"time": 1987, "pitch": 66, "duration": 14, "velocity": 112}, {"time": 2020, "pitch": 69, "duration": 1, "velocity": 102}, {"time": 2023, "pitch": 69, "duration": 1, "velocity": 97}, {"time": 2026, "pitch": 71, "duration": 4, "velocity": 117}, {"time": 2032, "pitch": 71, "duration": 1, "velocity": 95}, {"time": 2035, "pitch": 71, "duration": 1, "velocity": 92}, {"time": 2041, "pitch": 71, "duration": 3, "velocity": 127}, {"time": 2047, "pitch": 73, "duration": 1, "velocity": 102}, {"time": 2050, "pitch": 74, "duration": 11, "velocity": 99}, {"time": 2068, "pitch": 71, "duration": 2, "velocity": 102}, {"time": 2071, "pitch": 74, "duration": 2, "velocity": 92}, {"time": 2074, "pitch": 71, "duration": 3, "velocity": 102}, {"time": 2080, "pitch": 69, "duration": 1, "velocity": 100}, {"time": 2083, "pitch": 69, "duration": 2, "velocity": 90}, {"time": 2086, "pitch": 69, "duration": 3, "velocity": 102}, {"time": 2092, "pitch": 66, "duration": 2, "velocity": 112}, {"time": 2095, "pitch": 74, "duration": 12, "velocity": 102}, {"time": 2116, "pitch": 69, "duration": 1, "velocity": 93}, {"time": 2119, "pitch": 69, "duration": 2, "velocity": 100}, {"time": 2122, "pitch": 71, "duration": 4, "velocity": 122}, {"time": 2128, "pitch": 71, "duration": 1, "velocity": 97}, {"time": 2131, "pitch": 71, "duration": 1, "velocity": 96}, {"time": 2134, "pitch": 71, "duration": 2, "velocity": 122}, {"time": 2140, "pitch": 73, "duration": 2, "velocity": 117}, {"time": 2143, "pitch": 74, "duration": 7, "velocity": 117}, {"time": 2158, "pitch": 71, "duration": 4, "velocity": 117}, {"time": 2164, "pitch": 74, "duration": 1, "velocity": 117}, {"time": 2167, "pitch": 76, "duration": 23, "velocity": 117}, {"time": 2206, "pitch": 69, "duration": 3, "velocity": 112}, {"time": 2209, "pitch": 71, "duration": 3, "velocity": 122}, {"time": 2215, "pitch": 74, "duration": 2, "velocity": 117}, {"time": 2218, "pitch": 78, "duration": 8, "velocity": 127}, {"time": 2224, "pitch": 76, "duration": 1, "velocity": 122}, {"time": 2227, "pitch": 76, "duration": 1, "velocity": 112}, {"time": 2230, "pitch": 76, "duration": 3, "velocity": 122}, {"time": 2236, "pitch": 74, "duration": 1, "velocity": 122}, {"time": 2239, "pitch": 76, "duration": 9, "velocity": 127}, {"time": 2263, "pitch": 74, "duration": 1, "velocity": 97}, {"time": 2266, "pitch": 78, "duration": 5, "velocity": 127}, {"time": 2272, "pitch": 76, "duration": 4, "velocity": 122}, {"time": 2278, "pitch": 76, "duration": 4, "velocity": 127}, {"time": 2284, "pitch": 74, "duration": 1, "velocity": 122}, {"time": 2287, "pitch": 74, "duration": 8, "velocity": 127}, {"time": 2308, "pitch": 74, "duration": 1, "velocity": 112}, {"time": 2311, "pitch": 76, "duration": 3, "velocity": 122}, {"time": 2314, "pitch": 78, "duration": 2, "velocity": 99}, {"time": 2317, "pitch": 78, "duration": 1, "velocity": 107}, {"time": 2320, "pitch": 78, "duration": 1, "velocity": 122}, {"time": 2323, "pitch": 78, "duration": 1, "velocity": 122}, {"time": 2326, "pitch": 78, "duration": 3, "velocity": 127}, {"time": 2332, "pitch": 76, "duration": 2, "velocity": 127}, {"time": 2335, "pitch": 74, "duration": 1, "velocity": 97}, {"time": 2338, "pitch": 76, "duration": 5, "velocity": 122}, {"time": 2347, "pitch": 69, "duration": 1, "velocity": 96}, {"time": 2350, "pitch": 69, "duration": 2, "velocity": 97}, {"time": 2353, "pitch": 71, "duration": 2, "velocity": 107}, {"time": 2356, "pitch": 74, "duration": 2, "velocity": 107}, {"time": 2359, "pitch": 76, "duration": 1, "velocity": 127}, {"time": 2362, "pitch": 78, "duration": 3, "velocity": 127}, {"time": 2365, "pitch": 76, "duration": 2, "velocity": 112}, {"time": 2368, "pitch": 74, "duration": 1, "velocity": 99}, {"time": 2371, "pitch": 74, "duration": 1, "velocity": 127}, {"time": 2374, "pitch": 74, "duration": 3, "velocity": 127}, {"time": 2377, "pitch": 71, "duration": 3, "velocity": 112}, {"time": 2383, "pitch": 74, "duration": 2, "velocity": 102}, {"time": 2386, "pitch": 76, "duration": 6, "velocity": 127}, {"time": 2398, "pitch": 69, "duration": 2, "velocity": 112}, {"time": 2401, "pitch": 71, "duration": 2, "velocity": 117}, {"time": 2407, "pitch": 74, "duration": 1, "velocity": 117}, {"time": 2410, "pitch": 78, "duration": 4, "velocity": 127}, {"time": 2416, "pitch": 76, "duration": 1, "velocity": 117}, {"time": 2419, "pitch": 76, "duration": 1, "velocity": 112}, {"time": 2422, "pitch": 76, "duration": 2, "velocity": 122}, {"time": 2428, "pitch": 74, "duration": 1, "velocity": 127}, {"time": 2431, "pitch": 76, "duration": 4, "velocity": 127}, {"time": 2437, "pitch": 78, "duration": 7, "velocity": 127}, {"time": 2455, "pitch": 74, "duration": 1, "velocity": 112}, {"time": 2458, "pitch": 78, "duration": 3, "velocity": 127}, {"time": 2464, "pitch": 81, "duration": 2, "velocity": 122}, {"time": 2470, "pitch": 78, "duration": 2, "velocity": 127}, {"time": 2473, "pitch": 76, "duration": 2, "velocity": 112}, {"time": 2476, "pitch": 74, "duration": 1, "velocity": 117}, {"time": 2479, "pitch": 74, "duration": 8, "velocity": 127}, {"time": 2500, "pitch": 74, "duration": 1, "velocity": 112}, {"time": 2503, "pitch": 76, "duration": 1, "velocity": 112}, {"time": 2506, "pitch": 78, "duration": 1, "velocity": 127}, {"time": 2509, "pitch": 78, "duration": 1, "velocity": 99}, {"time": 2512, "pitch": 78, "duration": 1, "velocity": 112}, {"time": 2515, "pitch": 78, "duration": 1, "velocity": 122}, {"time": 2518, "pitch": 78, "duration": 2, "velocity": 127}, {"time": 2521, "pitch": 76, "duration": 2, "velocity": 122}, {"time": 2527, "pitch": 74, "duration": 1, "velocity": 112}, {"time": 2530, "pitch": 76, "duration": 6, "velocity": 127}, {"time": 2539, "pitch": 69, "duration": 1, "velocity": 99}, {"time": 2542, "pitch": 69, "duration": 2, "velocity": 112}, {"time": 2545, "pitch": 71, "duration": 2, "velocity": 107}, {"time": 2548, "pitch": 74, "duration": 2, "velocity": 117}, {"time": 2551, "pitch": 76, "duration": 1, "velocity": 127}, {"time": 2554, "pitch": 78, "duration": 1, "velocity": 127}, {"time": 2557, "pitch": 76, "duration": 2, "velocity": 127}, {"time": 2560, "pitch": 74, "duration": 1, "velocity": 97}, {"time": 2563, "pitch": 74, "duration": 3, "velocity": 127}, {"time": 2569, "pitch": 74, "duration": 6, "velocity": 122}, {"time": 2584, "pitch": 74, "duration": 1, "velocity": 122}, {"time": 2587, "pitch": 74, "duration": 1, "velocity": 107}, {"time": 2590, "pitch": 74, "duration": 3, "velocity": 122}, {"time": 2596, "pitch": 71, "duration": 2, "velocity": 117}, {"time": 2599, "pitch": 76, "duration": 19, "velocity": 127}, {"time": 2632, "pitch": 69, "duration": 1, "velocity": 96}, {"time": 2635, "pitch": 69, "duration": 1, "velocity": 92}, {"time": 2638, "pitch": 78, "duration": 3, "velocity": 127}, {"time": 2641, "pitch": 76, "duration": 2, "velocity": 117}, {"time": 2647, "pitch": 74, "duration": 3, "velocity": 117}, {"time": 2653, "pitch": 71, "duration": 2, "velocity": 112}, {"time": 2656, "pitch": 76, "duration": 5, "velocity": 112}, {"time": 2665, "pitch": 74, "duration": 9, "velocity": 117}, {"time": 2686, "pitch": 81, "duration": 2, "velocity": 127}, {"time": 2690, "pitch": 76, "duration": 2, "velocity": 117}, {"time": 2694, "pitch": 74, "duration": 1, "velocity": 100}, {"time": 2698, "pitch": 76, "duration": 5, "velocity": 127}, {"time": 2704, "pitch": 76, "duration": 1, "velocity": 102}, {"time": 2707, "pitch": 76, "duration": 3, "velocity": 127}, {"time": 2716, "pitch": 74, "duration": 1, "velocity": 122}, {"time": 2719, "pitch": 76, "duration": 8, "velocity": 127}, {"time": 2743, "pitch": 74, "duration": 1, "velocity": 97}, {"time": 2746, "pitch": 78, "duration": 5, "velocity": 127}, {"time": 2752, "pitch": 76, "duration": 4, "velocity": 122}, {"time": 2758, "pitch": 76, "duration": 4, "velocity": 127}, {"time": 2764, "pitch": 74, "duration": 1, "velocity": 122}, {"time": 2767, "pitch": 74, "duration": 8, "velocity": 127}, {"time": 2788, "pitch": 74, "duration": 1, "velocity": 112}, {"time": 2791, "pitch": 76, "duration": 3, "velocity": 122}, {"time": 2794, "pitch": 78, "duration": 2, "velocity": 99}, {"time": 2797, "pitch": 78, "duration": 1, "velocity": 107}, {"time": 2800, "pitch": 78, "duration": 1, "velocity": 122}, {"time": 2803, "pitch": 78, "duration": 1, "velocity": 122}, {"time": 2806, "pitch": 78, "duration": 3, "velocity": 127}, {"time": 2812, "pitch": 76, "duration": 2, "velocity": 127}, {"time": 2815, "pitch": 74, "duration": 1, "velocity": 97}, {"time": 2818, "pitch": 76, "duration": 5, "velocity": 122}, {"time": 2827, "pitch": 69, "duration": 1, "velocity": 96}, {"time": 2830, "pitch": 69, "duration": 2, "velocity": 97}, {"time": 2833, "pitch": 71, "duration": 2, "velocity": 107}, {"time": 2836, "pitch": 74, "duration": 2, "velocity": 107}, {"time": 2839, "pitch": 76, "duration": 1, "velocity": 127}, {"time": 2842, "pitch": 78, "duration": 3, "velocity": 127}, {"time": 2845, "pitch": 76, "duration": 2, "velocity": 112}, {"time": 2848, "pitch": 74, "duration": 1, "velocity": 99}, {"time": 2851, "pitch": 74, "duration": 1, "velocity": 127}, {"time": 2854, "pitch": 74, "duration": 3, "velocity": 127}, {"time": 2857, "pitch": 71, "duration": 3, "velocity": 112}, {"time": 2863, "pitch": 74, "duration": 2, "velocity": 102}, {"time": 2866, "pitch": 76, "duration": 6, "velocity": 127}, {"time": 2878, "pitch": 69, "duration": 2, "velocity": 112}, {"time": 2881, "pitch": 71, "duration": 2, "velocity": 117}, {"time": 2887, "pitch": 74, "duration": 1, "velocity": 117}, {"time": 2890, "pitch": 78, "duration": 4, "velocity": 127}, {"time": 2896, "pitch": 76, "duration": 1, "velocity": 117}, {"time": 2899, "pitch": 76, "duration": 1, "velocity": 112}, {"time": 2902, "pitch": 76, "duration": 2, "velocity": 122}, {"time": 2908, "pitch": 74, "duration": 1, "velocity": 127}, {"time": 2911, "pitch": 76, "duration": 4, "velocity": 127}, {"time": 2917, "pitch": 78, "duration": 7, "velocity": 127}, {"time": 2935, "pitch": 74, "duration": 1, "velocity": 112}, {"time": 2938, "pitch": 78, "duration": 3, "velocity": 127}, {"time": 2944, "pitch": 81, "duration": 2, "velocity": 122}, {"time": 2950, "pitch": 78, "duration": 2, "velocity": 127}, {"time": 2953, "pitch": 76, "duration": 2, "velocity": 112}, {"time": 2956, "pitch": 74, "duration": 1, "velocity": 117}, {"time": 2959, "pitch": 74, "duration": 8, "velocity": 127}, {"time": 2980, "pitch": 74, "duration": 1, "velocity": 112}, {"time": 2983, "pitch": 76, "duration": 1, "velocity": 112}, {"time": 2986, "pitch": 78, "duration": 1, "velocity": 127}, {"time": 2989, "pitch": 78, "duration": 1, "velocity": 99}, {"time": 2992, "pitch": 78, "duration": 1, "velocity": 112}, {"time": 2995, "pitch": 78, "duration": 1, "velocity": 122}, {"time": 2998, "pitch": 78, "duration": 2, "velocity": 127}, {"time": 3001, "pitch": 76, "duration": 2, "velocity": 122}, {"time": 3007, "pitch": 74, "duration": 1, "velocity": 112}, {"time": 3010, "pitch": 76, "duration": 6, "velocity": 127}, {"time": 3019, "pitch": 69, "duration": 1, "velocity": 99}, {"time": 3022, "pitch": 69, "duration": 2, "velocity": 112}, {"time": 3025, "pitch": 71, "duration": 2, "velocity": 107}, {"time": 3028, "pitch": 74, "duration": 2, "velocity": 117}, {"time": 3031, "pitch": 76, "duration": 1, "velocity": 127}, {"time": 3034, "pitch": 78, "duration": 1, "velocity": 127}, {"time": 3037, "pitch": 76, "duration": 2, "velocity": 127}, {"time": 3040, "pitch": 74, "duration": 1, "velocity": 97}, {"time": 3043, "pitch": 74, "duration": 3, "velocity": 127}, {"time": 3049, "pitch": 74, "duration": 6, "velocity": 122}, {"time": 3064, "pitch": 74, "duration": 1, "velocity": 122}, {"time": 3067, "pitch": 74, "duration": 1, "velocity": 107}, {"time": 3070, "pitch": 74, "duration": 3, "velocity": 122}, {"time": 3076, "pitch": 71, "duration": 2, "velocity": 117}, {"time": 3079, "pitch": 76, "duration": 19, "velocity": 127}, {"time": 3112, "pitch": 69, "duration": 1, "velocity": 96}, {"time": 3115, "pitch": 69, "duration": 1, "velocity": 92}, {"time": 3118, "pitch": 78, "duration": 3, "velocity": 127}, {"time": 3121, "pitch": 76, "duration": 2, "velocity": 117}, {"time": 3127, "pitch": 74, "duration": 3, "velocity": 117}, {"time": 3133, "pitch": 71, "duration": 2, "velocity": 112}, {"time": 3136, "pitch": 76, "duration": 5, "velocity": 112}, {"time": 3145, "pitch": 74, "duration": 9, "velocity": 117}]}, {"program": 0, "is_drum": false, "name": "BRIDGE", "notes": [{"time": 10, "pitch": 62, "duration": 3, "velocity": 99}, {"time": 13, "pitch": 57, "duration": 3, "velocity": 66}, {"time": 16, "pitch": 62, "duration": 3, "velocity": 64}, {"time": 19, "pitch": 64, "duration": 6, "velocity": 78}, {"time": 25, "pitch": 62, "duration": 6, "velocity": 90}, {"time": 31, "pitch": 67, "duration": 6, "velocity": 93}, {"time": 37, "pitch": 66, "duration": 6, "velocity": 77}, {"time": 43, "pitch": 64, "duration": 12, "velocity": 92}, {"time": 57, "pitch": 69, "duration": 6, "velocity": 97}, {"time": 57, "pitch": 57, "duration": 8, "velocity": 99}, {"time": 57, "pitch": 62, "duration": 8, "velocity": 95}, {"time": 57, "pitch": 66, "duration": 8, "velocity": 92}, {"time": 67, "pitch": 57, "duration": 3, "velocity": 92}, {"time": 67, "pitch": 69, "duration": 1, "velocity": 97}, {"time": 67, "pitch": 62, "duration": 3, "velocity": 93}, {"time": 67, "pitch": 66, "duration": 3, "velocity": 86}, {"time": 76, "pitch": 55, "duration": 27, "velocity": 70}, {"time": 76, "pitch": 59, "duration": 29, "velocity": 86}, {"time": 76, "pitch": 62, "duration": 28, "velocity": 97}, {"time": 76, "pitch": 67, "duration": 29, "velocity": 90}, {"time": 76, "pitch": 71, "duration": 26, "velocity": 97}, {"time": 106, "pitch": 62, "duration": 36, "velocity": 127}, {"time": 151, "pitch": 62, "duration": 2, "velocity": 82}, {"time": 153, "pitch": 61, "duration": 2, "velocity": 95}, {"time": 154, "pitch": 59, "duration": 24, "velocity": 100}, {"time": 178, "pitch": 61, "duration": 69, "velocity": 95}, {"time": 622, "pitch": 66, "duration": 3, "velocity": 127}, {"time": 625, "pitch": 64, "duration": 3, "velocity": 79}, {"time": 628, "pitch": 62, "duration": 2, "velocity": 95}, {"time": 631, "pitch": 64, "duration": 9, "velocity": 102}, {"time": 640, "pitch": 62, "duration": 20, "velocity": 88}, {"time": 721, "pitch": 62, "duration": 1, "velocity": 102}, {"time": 724, "pitch": 64, "duration": 6, "velocity": 100}, {"time": 730, "pitch": 69, "duration": 19, "velocity": 112}, {"time": 802, "pitch": 81, "duration": 12, "velocity": 122}, {"time": 814, "pitch": 76, "duration": 13, "velocity": 102}, {"time": 826, "pitch": 74, "duration": 22, "velocity": 99}, {"time": 1492, "pitch": 62, "duration": 4, "velocity": 127}, {"time": 1498, "pitch": 62, "duration": 17, "velocity": 127}, {"time": 1522, "pitch": 61, "duration": 5, "velocity": 127}, {"time": 1528, "pitch": 62, "duration": 4, "velocity": 127}, {"time": 1534, "pitch": 64, "duration": 10, "velocity": 127}, {"time": 1546, "pitch": 66, "duration": 19, "velocity": 127}, {"time": 1588, "pitch": 57, "duration": 6, "velocity": 102}, {"time": 1594, "pitch": 62, "duration": 21, "velocity": 127}, {"time": 1618, "pitch": 61, "duration": 5, "velocity": 127}, {"time": 1624, "pitch": 62, "duration": 5, "velocity": 117}, {"time": 1630, "pitch": 64, "duration": 11, "velocity": 117}, {"time": 1642, "pitch": 66, "duration": 30, "velocity": 127}, {"time": 1675, "pitch": 69, "duration": 3, "velocity": 96}, {"time": 1678, "pitch": 74, "duration": 3, "velocity": 127}, {"time": 1681, "pitch": 69, "duration": 4, "velocity": 117}, {"time": 1684, "pitch": 74, "duration": 3, "velocity": 127}, {"time": 1687, "pitch": 76, "duration": 3, "velocity": 100}, {"time": 1690, "pitch": 78, "duration": 16, "velocity": 127}, {"time": 1708, "pitch": 81, "duration": 5, "velocity": 127}, {"time": 1714, "pitch": 76, "duration": 18, "velocity": 117}, {"time": 1732, "pitch": 74, "duration": 5, "velocity": 127}, {"time": 1738, "pitch": 78, "duration": 6, "velocity": 122}, {"time": 1744, "pitch": 81, "duration": 3, "velocity": 127}, {"time": 1756, "pitch": 76, "duration": 41, "velocity": 127}, {"time": 1771, "pitch": 81, "duration": 3, "velocity": 45}, {"time": 1772, "pitch": 83, "duration": 2, "velocity": 62}, {"time": 1774, "pitch": 86, "duration": 3, "velocity": 107}, {"time": 1777, "pitch": 85, "duration": 3, "velocity": 127}, {"time": 1780, "pitch": 81, "duration": 9, "velocity": 99}, {"time": 1786, "pitch": 54, "duration": 24, "velocity": 67}, {"time": 1810, "pitch": 52, "duration": 12, "velocity": 45}, {"time": 1822, "pitch": 50, "duration": 23, "velocity": 66}, {"time": 1864, "pitch": 45, "duration": 3, "velocity": 38}, {"time": 1867, "pitch": 47, "duration": 3, "velocity": 77}, {"time": 1870, "pitch": 50, "duration": 12, "velocity": 88}, {"time": 1918, "pitch": 64, "duration": 3, "velocity": 107}, {"time": 1921, "pitch": 62, "duration": 3, "velocity": 81}, {"time": 1924, "pitch": 64, "duration": 6, "velocity": 93}, {"time": 1930, "pitch": 62, "duration": 19, "velocity": 78}, {"time": 2008, "pitch": 64, "duration": 3, "velocity": 99}, {"time": 2011, "pitch": 66, "duration": 3, "velocity": 88}, {"time": 2014, "pitch": 74, "duration": 12, "velocity": 102}, {"time": 2065, "pitch": 71, "duration": 9, "velocity": 100}, {"time": 2074, "pitch": 69, "duration": 20, "velocity": 92}, {"time": 2107, "pitch": 64, "duration": 3, "velocity": 92}, {"time": 2110, "pitch": 66, "duration": 3, "velocity": 97}, {"time": 2113, "pitch": 71, "duration": 3, "velocity": 93}, {"time": 2116, "pitch": 66, "duration": 3, "velocity": 99}, {"time": 2119, "pitch": 64, "duration": 3, "velocity": 79}, {"time": 2122, "pitch": 62, "duration": 17, "velocity": 95}, {"time": 2485, "pitch": 81, "duration": 1, "velocity": 102}, {"time": 2488, "pitch": 81, "duration": 1, "velocity": 99}, {"time": 2491, "pitch": 81, "duration": 3, "velocity": 107}, {"time": 2494, "pitch": 78, "duration": 3, "velocity": 100}, {"time": 2497, "pitch": 76, "duration": 3, "velocity": 82}, {"time": 2500, "pitch": 74, "duration": 12, "velocity": 96}, {"time": 2602, "pitch": 69, "duration": 25, "velocity": 127}, {"time": 2674, "pitch": 62, "duration": 3, "velocity": 122}, {"time": 2678, "pitch": 64, "duration": 3, "velocity": 127}, {"time": 2682, "pitch": 66, "duration": 2, "velocity": 127}, {"time": 2686, "pitch": 69, "duration": 3, "velocity": 127}, {"time": 2690, "pitch": 67, "duration": 3, "velocity": 112}, {"time": 2694, "pitch": 66, "duration": 3, "velocity": 107}, {"time": 2698, "pitch": 62, "duration": 20, "velocity": 127}, {"time": 2725, "pitch": 57, "duration": 2, "velocity": 122}, {"time": 2728, "pitch": 59, "duration": 3, "velocity": 117}, {"time": 2731, "pitch": 62, "duration": 3, "velocity": 112}, {"time": 2734, "pitch": 64, "duration": 4, "velocity": 117}, {"time": 2740, "pitch": 62, "duration": 3, "velocity": 102}, {"time": 2743, "pitch": 66, "duration": 20, "velocity": 127}, {"time": 3190, "pitch": 57, "duration": 4, "velocity": 97}, {"time": 3193, "pitch": 62, "duration": 4, "velocity": 92}, {"time": 3196, "pitch": 64, "duration": 2, "velocity": 86}, {"time": 3199, "pitch": 67, "duration": 6, "velocity": 107}, {"time": 3205, "pitch": 66, "duration": 10, "velocity": 97}, {"time": 3211, "pitch": 64, "duration": 6, "velocity": 97}, {"time": 3217, "pitch": 62, "duration": 8, "velocity": 97}, {"time": 3226, "pitch": 69, "duration": 7, "velocity": 122}, {"time": 3235, "pitch": 69, "duration": 8, "velocity": 112}, {"time": 3244, "pitch": 71, "duration": 56, "velocity": 127}, {"time": 3304, "pitch": 66, "duration": 45, "velocity": 82}]}, {"program": 0, "is_drum": false, "name": "PIANO", "notes": [{"time": 57, "pitch": 62, "duration": 8, "velocity": 127}, {"time": 57, "pitch": 66, "duration": 8, "velocity": 127}, {"time": 57, "pitch": 69, "duration": 8, "velocity": 127}, {"time": 67, "pitch": 62, "duration": 6, "velocity": 127}, {"time": 67, "pitch": 66, "duration": 6, "velocity": 127}, {"time": 67, "pitch": 69, "duration": 6, "velocity": 127}, {"time": 76, "pitch": 62, "duration": 19, "velocity": 127}, {"time": 76, "pitch": 67, "duration": 20, "velocity": 127}, {"time": 76, "pitch": 71, "duration": 20, "velocity": 127}, {"time": 106, "pitch": 62, "duration": 16, "velocity": 120}, {"time": 109, "pitch": 69, "duration": 13, "velocity": 106}, {"time": 112, "pitch": 74, "duration": 6, "velocity": 117}, {"time": 116, "pitch": 76, "duration": 6, "velocity": 127}, {"time": 121, "pitch": 74, "duration": 11, "velocity": 127}, {"time": 127, "pitch": 79, "duration": 6, "velocity": 127}, {"time": 134, "pitch": 78, "duration": 4, "velocity": 127}, {"time": 139, "pitch": 76, "duration": 5, "velocity": 127}, {"time": 145, "pitch": 74, "duration": 6, "velocity": 127}, {"time": 155, "pitch": 62, "duration": 22, "velocity": 121}, {"time": 157, "pitch": 69, "duration": 20, "velocity": 108}, {"time": 160, "pitch": 74, "duration": 18, "velocity": 118}, {"time": 163, "pitch": 76, "duration": 15, "velocity": 127}, {"time": 178, "pitch": 73, "duration": 3, "velocity": 115}, {"time": 181, "pitch": 61, "duration": 19, "velocity": 127}, {"time": 184, "pitch": 69, "duration": 16, "velocity": 108}, {"time": 187, "pitch": 73, "duration": 13, "velocity": 108}, {"time": 201, "pitch": 64, "duration": 19, "velocity": 96}, {"time": 202, "pitch": 69, "duration": 19, "velocity": 127}, {"time": 203, "pitch": 73, "duration": 18, "velocity": 127}, {"time": 250, "pitch": 50, "duration": 36, "velocity": 73}, {"time": 250, "pitch": 62, "duration": 7, "velocity": 53}, {"time": 250, "pitch": 66, "duration": 8, "velocity": 57}, {"time": 250, "pitch": 69, "duration": 7, "velocity": 52}, {"time": 256, "pitch": 57, "duration": 9, "velocity": 40}, {"time": 262, "pitch": 62, "duration": 6, "velocity": 67}, {"time": 262, "pitch": 66, "duration": 7, "velocity": 68}, {"time": 262, "pitch": 69, "duration": 7, "velocity": 66}, {"time": 268, "pitch": 57, "duration": 13, "velocity": 34}, {"time": 274, "pitch": 62, "duration": 7, "velocity": 62}, {"time": 274, "pitch": 66, "duration": 7, "velocity": 63}, {"time": 274, "pitch": 69, "duration": 7, "velocity": 65}, {"time": 286, "pitch": 66, "duration": 7, "velocity": 81}, {"time": 286, "pitch": 69, "duration": 7, "velocity": 67}, {"time": 292, "pitch": 62, "duration": 2, "velocity": 59}, {"time": 298, "pitch": 45, "duration": 40, "velocity": 71}, {"time": 298, "pitch": 57, "duration": 7, "velocity": 73}, {"time": 298, "pitch": 61, "duration": 6, "velocity": 78}, {"time": 298, "pitch": 64, "duration": 6, "velocity": 70}, {"time": 304, "pitch": 52, "duration": 7, "velocity": 42}, {"time": 310, "pitch": 57, "duration": 7, "velocity": 66}, {"time": 310, "pitch": 61, "duration": 7, "velocity": 63}, {"time": 310, "pitch": 64, "duration": 7, "velocity": 67}, {"time": 316, "pitch": 52, "duration": 10, "velocity": 40}, {"time": 322, "pitch": 57, "duration": 7, "velocity": 65}, {"time": 322, "pitch": 61, "duration": 7, "velocity": 67}, {"time": 322, "pitch": 64, "duration": 7, "velocity": 68}, {"time": 328, "pitch": 52, "duration": 8, "velocity": 34}, {"time": 334, "pitch": 61, "duration": 7, "velocity": 117}, {"time": 334, "pitch": 64, "duration": 7, "velocity": 88}, {"time": 340, "pitch": 57, "duration": 6, "velocity": 85}, {"time": 346, "pitch": 43, "duration": 16, "velocity": 79}, {"time": 346, "pitch": 59, "duration": 2, "velocity": 86}, {"time": 346, "pitch": 62, "duration": 2, "velocity": 81}, {"time": 352, "pitch": 50, "duration": 11, "velocity": 44}, {"time": 358, "pitch": 55, "duration": 3, "velocity": 58}, {"time": 358, "pitch": 62, "duration": 3, "velocity": 49}, {"time": 358, "pitch": 67, "duration": 6, "velocity": 90}, {"time": 358, "pitch": 71, "duration": 6, "velocity": 89}, {"time": 370, "pitch": 45, "duration": 13, "velocity": 65}, {"time": 370, "pitch": 57, "duration": 6, "velocity": 86}, {"time": 370, "pitch": 61, "duration": 10, "velocity": 86}, {"time": 370, "pitch": 64, "duration": 7, "velocity": 74}, {"time": 376, "pitch": 52, "duration": 7, "velocity": 42}, {"time": 382, "pitch": 61, "duration": 10, "velocity": 117}, {"time": 382, "pitch": 64, "duration": 7, "velocity": 88}, {"time": 388, "pitch": 57, "duration": 4, "velocity": 66}, {"time": 394, "pitch": 38, "duration": 1, "velocity": 67}, {"time": 394, "pitch": 57, "duration": 4, "velocity": 89}, {"time": 394, "pitch": 62, "duration": 6, "velocity": 81}, {"time": 394, "pitch": 66, "duration": 6, "velocity": 72}, {"time": 406, "pitch": 50, "duration": 29, "velocity": 46}, {"time": 406, "pitch": 57, "duration": 14, "velocity": 45}, {"time": 406, "pitch": 62, "duration": 6, "velocity": 71}, {"time": 406, "pitch": 66, "duration": 6, "velocity": 64}, {"time": 406, "pitch": 69, "duration": 6, "velocity": 66}, {"time": 412, "pitch": 54, "duration": 22, "velocity": 33}, {"time": 418, "pitch": 62, "duration": 7, "velocity": 83}, {"time": 418, "pitch": 66, "duration": 7, "velocity": 99}, {"time": 418, "pitch": 69, "duration": 7, "velocity": 89}, {"time": 424, "pitch": 57, "duration": 7, "velocity": 65}, {"time": 427, "pitch": 66, "duration": 2, "velocity": 63}, {"time": 427, "pitch": 69, "duration": 1, "velocity": 54}, {"time": 430, "pitch": 66, "duration": 7, "velocity": 127}, {"time": 430, "pitch": 69, "duration": 7, "velocity": 107}, {"time": 433, "pitch": 57, "duration": 2, "velocity": 90}, {"time": 436, "pitch": 62, "duration": 4, "velocity": 107}, {"time": 442, "pitch": 43, "duration": 41, "velocity": 85}, {"time": 442, "pitch": 62, "duration": 7, "velocity": 83}, {"time": 442, "pitch": 67, "duration": 7, "velocity": 76}, {"time": 442, "pitch": 71, "duration": 7, "velocity": 78}, {"time": 448, "pitch": 50, "duration": 31, "velocity": 30}, {"time": 454, "pitch": 62, "duration": 3, "velocity": 86}, {"time": 454, "pitch": 67, "duration": 4, "velocity": 93}, {"time": 454, "pitch": 71, "duration": 4, "velocity": 89}, {"time": 460, "pitch": 55, "duration": 9, "velocity": 68}, {"time": 466, "pitch": 62, "duration": 7, "velocity": 72}, {"time": 466, "pitch": 67, "duration": 6, "velocity": 71}, {"time": 466, "pitch": 71, "duration": 6, "velocity": 68}, {"time": 472, "pitch": 55, "duration": 7, "velocity": 57}, {"time": 478, "pitch": 67, "duration": 6, "velocity": 112}, {"time": 478, "pitch": 71, "duration": 7, "velocity": 99}, {"time": 481, "pitch": 50, "duration": 2, "velocity": 64}, {"time": 484, "pitch": 62, "duration": 1, "velocity": 85}, {"time": 490, "pitch": 42, "duration": 42, "velocity": 88}, {"time": 490, "pitch": 66, "duration": 10, "velocity": 81}, {"time": 490, "pitch": 69, "duration": 7, "velocity": 75}, {"time": 490, "pitch": 73, "duration": 7, "velocity": 73}, {"time": 496, "pitch": 54, "duration": 9, "velocity": 65}, {"time": 502, "pitch": 66, "duration": 7, "velocity": 75}, {"time": 502, "pitch": 69, "duration": 6, "velocity": 79}, {"time": 502, "pitch": 73, "duration": 6, "velocity": 82}, {"time": 508, "pitch": 54, "duration": 8, "velocity": 51}, {"time": 514, "pitch": 66, "duration": 7, "velocity": 70}, {"time": 514, "pitch": 69, "duration": 7, "velocity": 89}, {"time": 514, "pitch": 73, "duration": 7, "velocity": 88}, {"time": 520, "pitch": 54, "duration": 7, "velocity": 61}, {"time": 523, "pitch": 49, "duration": 7, "velocity": 17}, {"time": 523, "pitch": 66, "duration": 4, "velocity": 85}, {"time": 526, "pitch": 69, "duration": 6, "velocity": 64}, {"time": 526, "pitch": 73, "duration": 12, "velocity": 127}, {"time": 529, "pitch": 54, "duration": 2, "velocity": 86}, {"time": 532, "pitch": 66, "duration": 6, "velocity": 93}, {"time": 535, "pitch": 69, "duration": 3, "velocity": 49}, {"time": 538, "pitch": 40, "duration": 42, "velocity": 77}, {"time": 544, "pitch": 47, "duration": 36, "velocity": 49}, {"time": 550, "pitch": 64, "duration": 8, "velocity": 82}, {"time": 550, "pitch": 67, "duration": 8, "velocity": 79}, {"time": 550, "pitch": 71, "duration": 7, "velocity": 74}, {"time": 556, "pitch": 52, "duration": 8, "velocity": 35}, {"time": 562, "pitch": 64, "duration": 8, "velocity": 69}, {"time": 562, "pitch": 67, "duration": 8, "velocity": 71}, {"time": 562, "pitch": 71, "duration": 8, "velocity": 65}, {"time": 568, "pitch": 52, "duration": 7, "velocity": 39}, {"time": 574, "pitch": 67, "duration": 6, "velocity": 99}, {"time": 574, "pitch": 71, "duration": 6, "velocity": 96}, {"time": 577, "pitch": 52, "duration": 5, "velocity": 72}, {"time": 580, "pitch": 64, "duration": 1, "velocity": 83}, {"time": 586, "pitch": 45, "duration": 39, "velocity": 85}, {"time": 586, "pitch": 57, "duration": 10, "velocity": 88}, {"time": 586, "pitch": 61, "duration": 6, "velocity": 92}, {"time": 586, "pitch": 64, "duration": 8, "velocity": 77}, {"time": 592, "pitch": 52, "duration": 8, "velocity": 51}, {"time": 598, "pitch": 61, "duration": 7, "velocity": 85}, {"time": 598, "pitch": 64, "duration": 7, "velocity": 69}, {"time": 604, "pitch": 52, "duration": 8, "velocity": 49}, {"time": 607, "pitch": 57, "duration": 2, "velocity": 34}, {"time": 610, "pitch": 57, "duration": 13, "velocity": 88}, {"time": 610, "pitch": 61, "duration": 24, "velocity": 99}, {"time": 610, "pitch": 64, "duration": 24, "velocity": 86}, {"time": 628, "pitch": 57, "duration": 6, "velocity": 73}, {"time": 634, "pitch": 38, "duration": 23, "velocity": 72}, {"time": 640, "pitch": 45, "duration": 8, "velocity": 72}, {"time": 646, "pitch": 50, "duration": 7, "velocity": 70}, {"time": 646, "pitch": 62, "duration": 23, "velocity": 82}, {"time": 646, "pitch": 66, "duration": 22, "velocity": 93}, {"time": 652, "pitch": 45, "duration": 7, "velocity": 40}, {"time": 658, "pitch": 38, "duration": 17, "velocity": 64}, {"time": 664, "pitch": 45, "duration": 11, "velocity": 45}, {"time": 670, "pitch": 50, "duration": 8, "velocity": 85}, {"time": 670, "pitch": 62, "duration": 12, "velocity": 69}, {"time": 670, "pitch": 66, "duration": 12, "velocity": 112}, {"time": 676, "pitch": 57, "duration": 7, "velocity": 62}, {"time": 682, "pitch": 45, "duration": 23, "velocity": 82}, {"time": 688, "pitch": 52, "duration": 9, "velocity": 42}, {"time": 694, "pitch": 61, "duration": 20, "velocity": 90}, {"time": 694, "pitch": 64, "duration": 19, "velocity": 71}, {"time": 700, "pitch": 52, "duration": 5, "velocity": 19}, {"time": 700, "pitch": 57, "duration": 10, "velocity": 74}, {"time": 706, "pitch": 45, "duration": 19, "velocity": 70}, {"time": 712, "pitch": 52, "duration": 8, "velocity": 58}, {"time": 718, "pitch": 64, "duration": 12, "velocity": 102}, {"time": 721, "pitch": 52, "duration": 3, "velocity": 62}, {"time": 724, "pitch": 61, "duration": 6, "velocity": 100}, {"time": 727, "pitch": 57, "duration": 4, "velocity": 78}, {"time": 730, "pitch": 43, "duration": 21, "velocity": 78}, {"time": 736, "pitch": 50, "duration": 18, "velocity": 45}, {"time": 742, "pitch": 55, "duration": 4, "velocity": 79}, {"time": 742, "pitch": 67, "duration": 12, "velocity": 90}, {"time": 748, "pitch": 62, "duration": 6, "velocity": 68}, {"time": 754, "pitch": 45, "duration": 17, "velocity": 76}, {"time": 760, "pitch": 52, "duration": 9, "velocity": 58}, {"time": 766, "pitch": 61, "duration": 12, "velocity": 99}, {"time": 766, "pitch": 64, "duration": 12, "velocity": 90}, {"time": 772, "pitch": 57, "duration": 7, "velocity": 72}, {"time": 778, "pitch": 38, "duration": 41, "velocity": 82}, {"time": 784, "pitch": 45, "duration": 7, "velocity": 63}, {"time": 790, "pitch": 50, "duration": 7, "velocity": 79}, {"time": 790, "pitch": 62, "duration": 10, "velocity": 95}, {"time": 796, "pitch": 45, "duration": 8, "velocity": 61}, {"time": 802, "pitch": 50, "duration": 13, "velocity": 69}, {"time": 802, "pitch": 62, "duration": 10, "velocity": 88}, {"time": 802, "pitch": 66, "duration": 9, "velocity": 93}, {"time": 808, "pitch": 45, "duration": 11, "velocity": 47}, {"time": 814, "pitch": 62, "duration": 12, "velocity": 102}, {"time": 814, "pitch": 66, "duration": 12, "velocity": 122}, {"time": 817, "pitch": 50, "duration": 8, "velocity": 88}, {"time": 820, "pitch": 57, "duration": 6, "velocity": 90}, {"time": 826, "pitch": 43, "duration": 21, "velocity": 93}, {"time": 832, "pitch": 50, "duration": 8, "velocity": 59}, {"time": 838, "pitch": 55, "duration": 6, "velocity": 78}, {"time": 838, "pitch": 67, "duration": 22, "velocity": 96}, {"time": 838, "pitch": 71, "duration": 22, "velocity": 93}, {"time": 844, "pitch": 50, "duration": 6, "velocity": 72}, {"time": 847, "pitch": 62, "duration": 13, "velocity": 86}, {"time": 850, "pitch": 43, "duration": 19, "velocity": 88}, {"time": 856, "pitch": 50, "duration": 8, "velocity": 38}, {"time": 862, "pitch": 55, "duration": 6, "velocity": 90}, {"time": 862, "pitch": 62, "duration": 1, "velocity": 63}, {"time": 862, "pitch": 67, "duration": 12, "velocity": 99}, {"time": 862, "pitch": 71, "duration": 13, "velocity": 97}, {"time": 868, "pitch": 50, "duration": 1, "velocity": 62}, {"time": 871, "pitch": 62, "duration": 3, "velocity": 81}, {"time": 874, "pitch": 42, "duration": 16, "velocity": 107}, {"time": 880, "pitch": 54, "duration": 7, "velocity": 78}, {"time": 886, "pitch": 61, "duration": 12, "velocity": 127}, {"time": 886, "pitch": 66, "duration": 13, "velocity": 127}, {"time": 889, "pitch": 54, "duration": 2, "velocity": 93}, {"time": 892, "pitch": 57, "duration": 6, "velocity": 96}, {"time": 898, "pitch": 47, "duration": 18, "velocity": 85}, {"time": 904, "pitch": 54, "duration": 9, "velocity": 88}, {"time": 910, "pitch": 62, "duration": 12, "velocity": 100}, {"time": 910, "pitch": 66, "duration": 12, "velocity": 107}, {"time": 916, "pitch": 59, "duration": 6, "velocity": 90}, {"time": 922, "pitch": 43, "duration": 17, "velocity": 89}, {"time": 928, "pitch": 50, "duration": 8, "velocity": 61}, {"time": 934, "pitch": 59, "duration": 7, "velocity": 102}, {"time": 934, "pitch": 62, "duration": 7, "velocity": 100}, {"time": 940, "pitch": 55, "duration": 2, "velocity": 86}, {"time": 946, "pitch": 44, "duration": 14, "velocity": 78}, {"time": 946, "pitch": 52, "duration": 11, "velocity": 93}, {"time": 946, "pitch": 56, "duration": 11, "velocity": 89}, {"time": 946, "pitch": 59, "duration": 10, "velocity": 81}, {"time": 946, "pitch": 62, "duration": 6, "velocity": 72}, {"time": 958, "pitch": 56, "duration": 11, "velocity": 107}, {"time": 958, "pitch": 59, "duration": 12, "velocity": 88}, {"time": 958, "pitch": 62, "duration": 1, "velocity": 66}, {"time": 964, "pitch": 52, "duration": 5, "velocity": 76}, {"time": 970, "pitch": 45, "duration": 22, "velocity": 92}, {"time": 976, "pitch": 52, "duration": 8, "velocity": 96}, {"time": 982, "pitch": 62, "duration": 6, "velocity": 112}, {"time": 985, "pitch": 52, "duration": 9, "velocity": 97}, {"time": 988, "pitch": 64, "duration": 5, "velocity": 96}, {"time": 994, "pitch": 45, "duration": 5, "velocity": 93}, {"time": 994, "pitch": 57, "duration": 5, "velocity": 97}, {"time": 994, "pitch": 61, "duration": 5, "velocity": 127}, {"time": 994, "pitch": 64, "duration": 5, "velocity": 93}, {"time": 1006, "pitch": 45, "duration": 4, "velocity": 92}, {"time": 1006, "pitch": 52, "duration": 3, "velocity": 78}, {"time": 1006, "pitch": 57, "duration": 5, "velocity": 97}, {"time": 1006, "pitch": 61, "duration": 6, "velocity": 102}, {"time": 1006, "pitch": 64, "duration": 5, "velocity": 90}, {"time": 1018, "pitch": 38, "duration": 17, "velocity": 81}, {"time": 1018, "pitch": 57, "duration": 6, "velocity": 100}, {"time": 1018, "pitch": 62, "duration": 7, "velocity": 100}, {"time": 1018, "pitch": 66, "duration": 7, "velocity": 107}, {"time": 1021, "pitch": 45, "duration": 15, "velocity": 83}, {"time": 1024, "pitch": 50, "duration": 7, "velocity": 99}, {"time": 1027, "pitch": 57, "duration": 4, "velocity": 117}, {"time": 1030, "pitch": 62, "duration": 7, "velocity": 97}, {"time": 1030, "pitch": 66, "duration": 12, "velocity": 127}, {"time": 1033, "pitch": 50, "duration": 6, "velocity": 107}, {"time": 1036, "pitch": 57, "duration": 6, "velocity": 100}, {"time": 1039, "pitch": 62, "duration": 3, "velocity": 100}, {"time": 1042, "pitch": 45, "duration": 20, "velocity": 86}, {"time": 1045, "pitch": 52, "duration": 11, "velocity": 77}, {"time": 1048, "pitch": 57, "duration": 6, "velocity": 102}, {"time": 1051, "pitch": 64, "duration": 7, "velocity": 92}, {"time": 1054, "pitch": 73, "duration": 12, "velocity": 127}, {"time": 1057, "pitch": 52, "duration": 8, "velocity": 79}, {"time": 1060, "pitch": 69, "duration": 6, "velocity": 93}, {"time": 1063, "pitch": 64, "duration": 4, "velocity": 97}, {"time": 1066, "pitch": 47, "duration": 18, "velocity": 81}, {"time": 1069, "pitch": 54, "duration": 14, "velocity": 95}, {"time": 1072, "pitch": 59, "duration": 6, "velocity": 96}, {"time": 1075, "pitch": 62, "duration": 7, "velocity": 92}, {"time": 1078, "pitch": 71, "duration": 12, "velocity": 102}, {"time": 1081, "pitch": 59, "duration": 2, "velocity": 92}, {"time": 1084, "pitch": 66, "duration": 4, "velocity": 122}, {"time": 1087, "pitch": 62, "duration": 3, "velocity": 100}, {"time": 1090, "pitch": 43, "duration": 18, "velocity": 74}, {"time": 1093, "pitch": 50, "duration": 11, "velocity": 78}, {"time": 1096, "pitch": 55, "duration": 4, "velocity": 99}, {"time": 1099, "pitch": 62, "duration": 7, "velocity": 99}, {"time": 1102, "pitch": 71, "duration": 12, "velocity": 127}, {"time": 1105, "pitch": 50, "duration": 2, "velocity": 95}, {"time": 1108, "pitch": 67, "duration": 5, "velocity": 99}, {"time": 1111, "pitch": 62, "duration": 3, "velocity": 102}, {"time": 1114, "pitch": 38, "duration": 17, "velocity": 86}, {"time": 1117, "pitch": 45, "duration": 14, "velocity": 53}, {"time": 1120, "pitch": 50, "duration": 7, "velocity": 88}, {"time": 1123, "pitch": 57, "duration": 7, "velocity": 99}, {"time": 1126, "pitch": 66, "duration": 11, "velocity": 127}, {"time": 1129, "pitch": 50, "duration": 4, "velocity": 82}, {"time": 1132, "pitch": 62, "duration": 5, "velocity": 99}, {"time": 1135, "pitch": 57, "duration": 4, "velocity": 107}, {"time": 1138, "pitch": 45, "duration": 18, "velocity": 83}, {"time": 1141, "pitch": 52, "duration": 10, "velocity": 69}, {"time": 1144, "pitch": 57, "duration": 7, "velocity": 83}, {"time": 1147, "pitch": 61, "duration": 3, "velocity": 102}, {"time": 1150, "pitch": 64, "duration": 12, "velocity": 99}, {"time": 1153, "pitch": 52, "duration": 3, "velocity": 82}, {"time": 1156, "pitch": 61, "duration": 6, "velocity": 122}, {"time": 1159, "pitch": 57, "duration": 3, "velocity": 107}, {"time": 1162, "pitch": 43, "duration": 22, "velocity": 88}, {"time": 1165, "pitch": 50, "duration": 21, "velocity": 68}, {"time": 1168, "pitch": 55, "duration": 7, "velocity": 90}, {"time": 1171, "pitch": 62, "duration": 4, "velocity": 89}, {"time": 1174, "pitch": 67, "duration": 7, "velocity": 92}, {"time": 1174, "pitch": 71, "duration": 12, "velocity": 100}, {"time": 1177, "pitch": 55, "duration": 2, "velocity": 96}, {"time": 1180, "pitch": 62, "duration": 6, "velocity": 100}, {"time": 1183, "pitch": 67, "duration": 3, "velocity": 102}, {"time": 1186, "pitch": 45, "duration": 18, "velocity": 82}, {"time": 1189, "pitch": 52, "duration": 11, "velocity": 81}, {"time": 1192, "pitch": 57, "duration": 3, "velocity": 97}, {"time": 1195, "pitch": 61, "duration": 3, "velocity": 122}, {"time": 1198, "pitch": 64, "duration": 12, "velocity": 102}, {"time": 1201, "pitch": 52, "duration": 2, "velocity": 96}, {"time": 1204, "pitch": 61, "duration": 5, "velocity": 127}, {"time": 1207, "pitch": 57, "duration": 4, "velocity": 90}, {"time": 1210, "pitch": 38, "duration": 18, "velocity": 89}, {"time": 1213, "pitch": 45, "duration": 15, "velocity": 82}, {"time": 1216, "pitch": 50, "duration": 7, "velocity": 95}, {"time": 1219, "pitch": 57, "duration": 7, "velocity": 96}, {"time": 1222, "pitch": 66, "duration": 10, "velocity": 127}, {"time": 1225, "pitch": 50, "duration": 5, "velocity": 93}, {"time": 1228, "pitch": 62, "duration": 4, "velocity": 102}, {"time": 1231, "pitch": 57, "duration": 4, "velocity": 117}, {"time": 1234, "pitch": 45, "duration": 22, "velocity": 78}, {"time": 1237, "pitch": 52, "duration": 10, "velocity": 64}, {"time": 1240, "pitch": 57, "duration": 4, "velocity": 93}, {"time": 1243, "pitch": 61, "duration": 2, "velocity": 122}, {"time": 1246, "pitch": 64, "duration": 12, "velocity": 102}, {"time": 1249, "pitch": 52, "duration": 8, "velocity": 102}, {"time": 1252, "pitch": 61, "duration": 6, "velocity": 99}, {"time": 1255, "pitch": 57, "duration": 3, "velocity": 95}, {"time": 1258, "pitch": 47, "duration": 18, "velocity": 74}, {"time": 1261, "pitch": 54, "duration": 15, "velocity": 92}, {"time": 1264, "pitch": 59, "duration": 7, "velocity": 92}, {"time": 1267, "pitch": 62, "duration": 7, "velocity": 99}, {"time": 1270, "pitch": 71, "duration": 12, "velocity": 102}, {"time": 1273, "pitch": 59, "duration": 2, "velocity": 99}, {"time": 1276, "pitch": 66, "duration": 5, "velocity": 112}, {"time": 1279, "pitch": 62, "duration": 3, "velocity": 93}, {"time": 1282, "pitch": 43, "duration": 19, "velocity": 77}, {"time": 1285, "pitch": 50, "duration": 15, "velocity": 68}, {"time": 1288, "pitch": 55, "duration": 7, "velocity": 97}, {"time": 1291, "pitch": 62, "duration": 9, "velocity": 93}, {"time": 1294, "pitch": 71, "duration": 11, "velocity": 127}, {"time": 1297, "pitch": 55, "duration": 2, "velocity": 102}, {"time": 1300, "pitch": 67, "duration": 4, "velocity": 102}, {"time": 1303, "pitch": 62, "duration": 4, "velocity": 107}, {"time": 1306, "pitch": 38, "duration": 16, "velocity": 77}, {"time": 1309, "pitch": 45, "duration": 14, "velocity": 77}, {"time": 1312, "pitch": 50, "duration": 7, "velocity": 92}, {"time": 1315, "pitch": 57, "duration": 7, "velocity": 92}, {"time": 1318, "pitch": 66, "duration": 11, "velocity": 127}, {"time": 1321, "pitch": 50, "duration": 3, "velocity": 88}, {"time": 1324, "pitch": 62, "duration": 5, "velocity": 99}, {"time": 1327, "pitch": 57, "duration": 3, "velocity": 97}, {"time": 1330, "pitch": 45, "duration": 19, "velocity": 90}, {"time": 1333, "pitch": 52, "duration": 11, "velocity": 78}, {"time": 1336, "pitch": 57, "duration": 4, "velocity": 100}, {"time": 1339, "pitch": 64, "duration": 7, "velocity": 95}, {"time": 1342, "pitch": 73, "duration": 11, "velocity": 127}, {"time": 1345, "pitch": 52, "duration": 3, "velocity": 86}, {"time": 1348, "pitch": 69, "duration": 5, "velocity": 92}, {"time": 1351, "pitch": 64, "duration": 3, "velocity": 96}, {"time": 1354, "pitch": 43, "duration": 22, "velocity": 66}, {"time": 1357, "pitch": 50, "duration": 21, "velocity": 64}, {"time": 1360, "pitch": 55, "duration": 7, "velocity": 93}, {"time": 1363, "pitch": 62, "duration": 6, "velocity": 89}, {"time": 1366, "pitch": 71, "duration": 14, "velocity": 117}, {"time": 1369, "pitch": 55, "duration": 3, "velocity": 95}, {"time": 1372, "pitch": 67, "duration": 8, "velocity": 99}, {"time": 1375, "pitch": 62, "duration": 10, "velocity": 107}, {"time": 1378, "pitch": 43, "duration": 22, "velocity": 88}, {"time": 1381, "pitch": 50, "duration": 20, "velocity": 63}, {"time": 1384, "pitch": 55, "duration": 7, "velocity": 95}, {"time": 1387, "pitch": 62, "duration": 10, "velocity": 93}, {"time": 1390, "pitch": 71, "duration": 12, "velocity": 127}, {"time": 1393, "pitch": 55, "duration": 3, "velocity": 99}, {"time": 1396, "pitch": 67, "duration": 6, "velocity": 96}, {"time": 1399, "pitch": 62, "duration": 4, "velocity": 99}, {"time": 1402, "pitch": 45, "duration": 22, "velocity": 88}, {"time": 1405, "pitch": 52, "duration": 10, "velocity": 77}, {"time": 1408, "pitch": 57, "duration": 3, "velocity": 96}, {"time": 1411, "pitch": 61, "duration": 3, "velocity": 117}, {"time": 1414, "pitch": 64, "duration": 7, "velocity": 97}, {"time": 1417, "pitch": 52, "duration": 15, "velocity": 93}, {"time": 1420, "pitch": 61, "duration": 5, "velocity": 127}, {"time": 1423, "pitch": 64, "duration": 2, "velocity": 86}, {"time": 1426, "pitch": 45, "duration": 7, "velocity": 86}, {"time": 1426, "pitch": 57, "duration": 6, "velocity": 100}, {"time": 1426, "pitch": 61, "duration": 6, "velocity": 95}, {"time": 1426, "pitch": 64, "duration": 6, "velocity": 93}, {"time": 1450, "pitch": 38, "duration": 41, "velocity": 92}, {"time": 1450, "pitch": 57, "duration": 10, "velocity": 96}, {"time": 1450, "pitch": 62, "duration": 8, "velocity": 102}, {"time": 1450, "pitch": 66, "duration": 8, "velocity": 102}, {"time": 1456, "pitch": 45, "duration": 35, "velocity": 48}, {"time": 1459, "pitch": 50, "duration": 6, "velocity": 53}, {"time": 1462, "pitch": 57, "duration": 7, "velocity": 97}, {"time": 1462, "pitch": 62, "duration": 7, "velocity": 102}, {"time": 1462, "pitch": 66, "duration": 7, "velocity": 107}, {"time": 1468, "pitch": 50, "duration": 7, "velocity": 69}, {"time": 1471, "pitch": 57, "duration": 2, "velocity": 58}, {"time": 1471, "pitch": 62, "duration": 2, "velocity": 63}, {"time": 1471, "pitch": 66, "duration": 1, "velocity": 36}, {"time": 1474, "pitch": 57, "duration": 4, "velocity": 97}, {"time": 1474, "pitch": 62, "duration": 7, "velocity": 127}, {"time": 1474, "pitch": 66, "duration": 7, "velocity": 122}, {"time": 1477, "pitch": 50, "duration": 10, "velocity": 96}, {"time": 1480, "pitch": 57, "duration": 5, "velocity": 61}, {"time": 1483, "pitch": 62, "duration": 2, "velocity": 75}, {"time": 1483, "pitch": 66, "duration": 2, "velocity": 73}, {"time": 1486, "pitch": 57, "duration": 4, "velocity": 95}, {"time": 1486, "pitch": 62, "duration": 4, "velocity": 122}, {"time": 1486, "pitch": 66, "duration": 4, "velocity": 127}, {"time": 1489, "pitch": 50, "duration": 3, "velocity": 99}, {"time": 1492, "pitch": 57, "duration": 2, "velocity": 107}, {"time": 1492, "pitch": 62, "duration": 2, "velocity": 127}, {"time": 1492, "pitch": 66, "duration": 2, "velocity": 122}, {"time": 1495, "pitch": 57, "duration": 2, "velocity": 102}, {"time": 1495, "pitch": 62, "duration": 2, "velocity": 112}, {"time": 1495, "pitch": 66, "duration": 3, "velocity": 117}, {"time": 1498, "pitch": 47, "duration": 10, "velocity": 100}, {"time": 1498, "pitch": 59, "duration": 5, "velocity": 93}, {"time": 1498, "pitch": 62, "duration": 5, "velocity": 107}, {"time": 1498, "pitch": 66, "duration": 5, "velocity": 107}, {"time": 1504, "pitch": 54, "duration": 4, "velocity": 66}, {"time": 1504, "pitch": 59, "duration": 4, "velocity": 86}, {"time": 1504, "pitch": 62, "duration": 4, "velocity": 86}, {"time": 1504, "pitch": 66, "duration": 4, "velocity": 93}, {"time": 1510, "pitch": 47, "duration": 10, "velocity": 81}, {"time": 1510, "pitch": 54, "duration": 10, "velocity": 102}, {"time": 1510, "pitch": 59, "duration": 4, "velocity": 100}, {"time": 1510, "pitch": 62, "duration": 4, "velocity": 117}, {"time": 1510, "pitch": 66, "duration": 4, "velocity": 117}, {"time": 1516, "pitch": 59, "duration": 4, "velocity": 88}, {"time": 1516, "pitch": 62, "duration": 4, "velocity": 99}, {"time": 1516, "pitch": 66, "duration": 4, "velocity": 99}, {"time": 1522, "pitch": 45, "duration": 10, "velocity": 90}, {"time": 1522, "pitch": 57, "duration": 5, "velocity": 90}, {"time": 1522, "pitch": 61, "duration": 5, "velocity": 117}, {"time": 1522, "pitch": 64, "duration": 5, "velocity": 83}, {"time": 1528, "pitch": 57, "duration": 4, "velocity": 85}, {"time": 1528, "pitch": 61, "duration": 4, "velocity": 102}, {"time": 1528, "pitch": 64, "duration": 4, "velocity": 85}, {"time": 1534, "pitch": 45, "duration": 5, "velocity": 97}, {"time": 1534, "pitch": 57, "duration": 4, "velocity": 96}, {"time": 1534, "pitch": 61, "duration": 4, "velocity": 127}, {"time": 1534, "pitch": 64, "duration": 4, "velocity": 97}, {"time": 1540, "pitch": 57, "duration": 1, "velocity": 95}, {"time": 1540, "pitch": 61, "duration": 1, "velocity": 122}, {"time": 1540, "pitch": 64, "duration": 1, "velocity": 83}, {"time": 1546, "pitch": 43, "duration": 9, "velocity": 97}, {"time": 1546, "pitch": 55, "duration": 2, "velocity": 107}, {"time": 1546, "pitch": 59, "duration": 2, "velocity": 99}, {"time": 1546, "pitch": 62, "duration": 2, "velocity": 100}, {"time": 1558, "pitch": 43, "duration": 1, "velocity": 45}, {"time": 1558, "pitch": 50, "duration": 1, "velocity": 68}, {"time": 1558, "pitch": 55, "duration": 1, "velocity": 88}, {"time": 1558, "pitch": 62, "duration": 1, "velocity": 92}, {"time": 1558, "pitch": 67, "duration": 1, "velocity": 95}, {"time": 1558, "pitch": 71, "duration": 1, "velocity": 90}, {"time": 1564, "pitch": 43, "duration": 22, "velocity": 77}, {"time": 1564, "pitch": 50, "duration": 23, "velocity": 82}, {"time": 1564, "pitch": 55, "duration": 18, "velocity": 100}, {"time": 1564, "pitch": 62, "duration": 16, "velocity": 102}, {"time": 1564, "pitch": 67, "duration": 16, "velocity": 102}, {"time": 1564, "pitch": 71, "duration": 16, "velocity": 97}, {"time": 1582, "pitch": 67, "duration": 6, "velocity": 127}, {"time": 1582, "pitch": 71, "duration": 6, "velocity": 127}, {"time": 1585, "pitch": 55, "duration": 4, "velocity": 102}, {"time": 1588, "pitch": 62, "duration": 1, "velocity": 107}, {"time": 1594, "pitch": 47, "duration": 12, "velocity": 96}, {"time": 1597, "pitch": 54, "duration": 10, "velocity": 99}, {"time": 1600, "pitch": 59, "duration": 3, "velocity": 102}, {"time": 1603, "pitch": 62, "duration": 2, "velocity": 97}, {"time": 1606, "pitch": 62, "duration": 5, "velocity": 65}, {"time": 1606, "pitch": 66, "duration": 5, "velocity": 127}, {"time": 1609, "pitch": 47, "duration": 6, "velocity": 66}, {"time": 1609, "pitch": 54, "duration": 5, "velocity": 100}, {"time": 1612, "pitch": 62, "duration": 5, "velocity": 117}, {"time": 1612, "pitch": 66, "duration": 5, "velocity": 127}, {"time": 1615, "pitch": 59, "duration": 4, "velocity": 99}, {"time": 1618, "pitch": 45, "duration": 17, "velocity": 96}, {"time": 1621, "pitch": 52, "duration": 10, "velocity": 107}, {"time": 1624, "pitch": 57, "duration": 7, "velocity": 90}, {"time": 1627, "pitch": 61, "duration": 9, "velocity": 117}, {"time": 1630, "pitch": 64, "duration": 11, "velocity": 107}, {"time": 1633, "pitch": 52, "duration": 2, "velocity": 112}, {"time": 1636, "pitch": 57, "duration": 4, "velocity": 107}, {"time": 1639, "pitch": 61, "duration": 2, "velocity": 127}, {"time": 1642, "pitch": 43, "duration": 22, "velocity": 88}, {"time": 1642, "pitch": 59, "duration": 2, "velocity": 127}, {"time": 1645, "pitch": 50, "duration": 11, "velocity": 92}, {"time": 1648, "pitch": 55, "duration": 5, "velocity": 107}, {"time": 1651, "pitch": 62, "duration": 4, "velocity": 88}, {"time": 1654, "pitch": 67, "duration": 4, "velocity": 117}, {"time": 1654, "pitch": 71, "duration": 4, "velocity": 107}, {"time": 1657, "pitch": 50, "duration": 9, "velocity": 35}, {"time": 1657, "pitch": 55, "duration": 3, "velocity": 100}, {"time": 1660, "pitch": 67, "duration": 2, "velocity": 127}, {"time": 1660, "pitch": 71, "duration": 4, "velocity": 127}, {"time": 1663, "pitch": 62, "duration": 1, "velocity": 102}, {"time": 1663, "pitch": 67, "duration": 2, "velocity": 52}, {"time": 1666, "pitch": 45, "duration": 17, "velocity": 96}, {"time": 1666, "pitch": 64, "duration": 8, "velocity": 99}, {"time": 1666, "pitch": 69, "duration": 5, "velocity": 107}, {"time": 1669, "pitch": 52, "duration": 10, "velocity": 89}, {"time": 1672, "pitch": 57, "duration": 4, "velocity": 127}, {"time": 1675, "pitch": 64, "duration": 2, "velocity": 88}, {"time": 1678, "pitch": 69, "duration": 6, "velocity": 127}, {"time": 1678, "pitch": 73, "duration": 6, "velocity": 127}, {"time": 1681, "pitch": 52, "duration": 2, "velocity": 122}, {"time": 1684, "pitch": 64, "duration": 3, "velocity": 122}, {"time": 1687, "pitch": 66, "duration": 2, "velocity": 85}, {"time": 1690, "pitch": 38, "duration": 16, "velocity": 95}, {"time": 1690, "pitch": 57, "duration": 7, "velocity": 99}, {"time": 1690, "pitch": 62, "duration": 8, "velocity": 100}, {"time": 1693, "pitch": 45, "duration": 13, "velocity": 89}, {"time": 1696, "pitch": 50, "duration": 7, "velocity": 107}, {"time": 1699, "pitch": 57, "duration": 2, "velocity": 95}, {"time": 1699, "pitch": 62, "duration": 1, "velocity": 42}, {"time": 1702, "pitch": 66, "duration": 7, "velocity": 127}, {"time": 1705, "pitch": 50, "duration": 3, "velocity": 102}, {"time": 1708, "pitch": 62, "duration": 3, "velocity": 99}, {"time": 1711, "pitch": 57, "duration": 6, "velocity": 93}, {"time": 1714, "pitch": 42, "duration": 17, "velocity": 127}, {"time": 1714, "pitch": 61, "duration": 7, "velocity": 127}, {"time": 1717, "pitch": 54, "duration": 9, "velocity": 99}, {"time": 1720, "pitch": 57, "duration": 5, "velocity": 96}, {"time": 1723, "pitch": 61, "duration": 2, "velocity": 107}, {"time": 1726, "pitch": 61, "duration": 6, "velocity": 117}, {"time": 1726, "pitch": 66, "duration": 6, "velocity": 127}, {"time": 1729, "pitch": 54, "duration": 2, "velocity": 102}, {"time": 1732, "pitch": 57, "duration": 4, "velocity": 117}, {"time": 1738, "pitch": 43, "duration": 4, "velocity": 65}, {"time": 1738, "pitch": 50, "duration": 4, "velocity": 83}, {"time": 1738, "pitch": 55, "duration": 4, "velocity": 117}, {"time": 1738, "pitch": 62, "duration": 4, "velocity": 95}, {"time": 1738, "pitch": 67, "duration": 4, "velocity": 95}, {"time": 1738, "pitch": 71, "duration": 4, "velocity": 82}, {"time": 1744, "pitch": 43, "duration": 1, "velocity": 70}, {"time": 1744, "pitch": 50, "duration": 1, "velocity": 93}, {"time": 1744, "pitch": 55, "duration": 2, "velocity": 96}, {"time": 1744, "pitch": 62, "duration": 2, "velocity": 96}, {"time": 1744, "pitch": 67, "duration": 2, "velocity": 99}, {"time": 1744, "pitch": 71, "duration": 2, "velocity": 90}, {"time": 1756, "pitch": 43, "duration": 74, "velocity": 71}, {"time": 1756, "pitch": 50, "duration": 73, "velocity": 79}, {"time": 1756, "pitch": 55, "duration": 67, "velocity": 95}, {"time": 1756, "pitch": 62, "duration": 73, "velocity": 90}, {"time": 1756, "pitch": 67, "duration": 74, "velocity": 96}, {"time": 1756, "pitch": 71, "duration": 74, "velocity": 89}, {"time": 1834, "pitch": 38, "duration": 23, "velocity": 72}, {"time": 1840, "pitch": 45, "duration": 8, "velocity": 72}, {"time": 1846, "pitch": 50, "duration": 7, "velocity": 70}, {"time": 1846, "pitch": 62, "duration": 23, "velocity": 82}, {"time": 1846, "pitch": 66, "duration": 22, "velocity": 93}, {"time": 1852, "pitch": 45, "duration": 7, "velocity": 40}, {"time": 1858, "pitch": 38, "duration": 17, "velocity": 64}, {"time": 1864, "pitch": 45, "duration": 11, "velocity": 45}, {"time": 1870, "pitch": 50, "duration": 8, "velocity": 85}, {"time": 1870, "pitch": 62, "duration": 12, "velocity": 69}, {"time": 1870, "pitch": 66, "duration": 12, "velocity": 112}, {"time": 1876, "pitch": 57, "duration": 7, "velocity": 62}, {"time": 1882, "pitch": 45, "duration": 23, "velocity": 82}, {"time": 1888, "pitch": 52, "duration": 9, "velocity": 42}, {"time": 1894, "pitch": 61, "duration": 20, "velocity": 90}, {"time": 1894, "pitch": 64, "duration": 19, "velocity": 71}, {"time": 1900, "pitch": 52, "duration": 5, "velocity": 19}, {"time": 1900, "pitch": 57, "duration": 10, "velocity": 74}, {"time": 1906, "pitch": 45, "duration": 19, "velocity": 70}, {"time": 1912, "pitch": 52, "duration": 8, "velocity": 58}, {"time": 1918, "pitch": 64, "duration": 12, "velocity": 102}, {"time": 1921, "pitch": 52, "duration": 3, "velocity": 62}, {"time": 1924, "pitch": 61, "duration": 6, "velocity": 100}, {"time": 1927, "pitch": 57, "duration": 4, "velocity": 78}, {"time": 1930, "pitch": 43, "duration": 21, "velocity": 78}, {"time": 1936, "pitch": 50, "duration": 18, "velocity": 45}, {"time": 1942, "pitch": 55, "duration": 4, "velocity": 79}, {"time": 1942, "pitch": 67, "duration": 12, "velocity": 90}, {"time": 1948, "pitch": 62, "duration": 6, "velocity": 68}, {"time": 1954, "pitch": 45, "duration": 17, "velocity": 76}, {"time": 1960, "pitch": 52, "duration": 9, "velocity": 58}, {"time": 1966, "pitch": 61, "duration": 12, "velocity": 99}, {"time": 1966, "pitch": 64, "duration": 12, "velocity": 90}, {"time": 1972, "pitch": 57, "duration": 7, "velocity": 72}, {"time": 1978, "pitch": 38, "duration": 41, "velocity": 82}, {"time": 1984, "pitch": 45, "duration": 7, "velocity": 63}, {"time": 1990, "pitch": 50, "duration": 7, "velocity": 79}, {"time": 1990, "pitch": 62, "duration": 10, "velocity": 95}, {"time": 1996, "pitch": 45, "duration": 8, "velocity": 61}, {"time": 2002, "pitch": 50, "duration": 13, "velocity": 69}, {"time": 2002, "pitch": 62, "duration": 10, "velocity": 88}, {"time": 2002, "pitch": 66, "duration": 9, "velocity": 93}, {"time": 2008, "pitch": 45, "duration": 11, "velocity": 47}, {"time": 2014, "pitch": 62, "duration": 12, "velocity": 102}, {"time": 2014, "pitch": 66, "duration": 12, "velocity": 122}, {"time": 2017, "pitch": 50, "duration": 8, "velocity": 88}, {"time": 2020, "pitch": 57, "duration": 6, "velocity": 90}, {"time": 2026, "pitch": 43, "duration": 21, "velocity": 93}, {"time": 2032, "pitch": 50, "duration": 8, "velocity": 59}, {"time": 2038, "pitch": 55, "duration": 6, "velocity": 78}, {"time": 2038, "pitch": 67, "duration": 22, "velocity": 96}, {"time": 2038, "pitch": 71, "duration": 22, "velocity": 93}, {"time": 2044, "pitch": 50, "duration": 6, "velocity": 72}, {"time": 2047, "pitch": 62, "duration": 13, "velocity": 86}, {"time": 2050, "pitch": 43, "duration": 19, "velocity": 88}, {"time": 2056, "pitch": 50, "duration": 8, "velocity": 38}, {"time": 2062, "pitch": 55, "duration": 6, "velocity": 90}, {"time": 2062, "pitch": 62, "duration": 1, "velocity": 63}, {"time": 2062, "pitch": 67, "duration": 12, "velocity": 99}, {"time": 2062, "pitch": 71, "duration": 13, "velocity": 97}, {"time": 2068, "pitch": 50, "duration": 1, "velocity": 62}, {"time": 2071, "pitch": 62, "duration": 3, "velocity": 81}, {"time": 2074, "pitch": 42, "duration": 16, "velocity": 107}, {"time": 2080, "pitch": 54, "duration": 7, "velocity": 78}, {"time": 2086, "pitch": 61, "duration": 12, "velocity": 127}, {"time": 2086, "pitch": 66, "duration": 13, "velocity": 127}, {"time": 2089, "pitch": 54, "duration": 2, "velocity": 93}, {"time": 2092, "pitch": 57, "duration": 6, "velocity": 96}, {"time": 2098, "pitch": 47, "duration": 18, "velocity": 85}, {"time": 2104, "pitch": 54, "duration": 9, "velocity": 88}, {"time": 2110, "pitch": 62, "duration": 12, "velocity": 100}, {"time": 2110, "pitch": 66, "duration": 12, "velocity": 107}, {"time": 2116, "pitch": 59, "duration": 6, "velocity": 90}, {"time": 2122, "pitch": 43, "duration": 17, "velocity": 89}, {"time": 2128, "pitch": 50, "duration": 8, "velocity": 61}, {"time": 2134, "pitch": 59, "duration": 7, "velocity": 102}, {"time": 2134, "pitch": 62, "duration": 7, "velocity": 100}, {"time": 2140, "pitch": 55, "duration": 2, "velocity": 86}, {"time": 2146, "pitch": 44, "duration": 14, "velocity": 78}, {"time": 2146, "pitch": 52, "duration": 11, "velocity": 93}, {"time": 2146, "pitch": 56, "duration": 11, "velocity": 89}, {"time": 2146, "pitch": 59, "duration": 10, "velocity": 81}, {"time": 2146, "pitch": 62, "duration": 6, "velocity": 72}, {"time": 2158, "pitch": 56, "duration": 11, "velocity": 107}, {"time": 2158, "pitch": 59, "duration": 12, "velocity": 88}, {"time": 2158, "pitch": 62, "duration": 1, "velocity": 66}, {"time": 2164, "pitch": 52, "duration": 5, "velocity": 76}, {"time": 2170, "pitch": 45, "duration": 22, "velocity": 92}, {"time": 2176, "pitch": 52, "duration": 8, "velocity": 96}, {"time": 2182, "pitch": 62, "duration": 6, "velocity": 112}, {"time": 2185, "pitch": 52, "duration": 9, "velocity": 97}, {"time": 2188, "pitch": 64, "duration": 5, "velocity": 96}, {"time": 2194, "pitch": 45, "duration": 5, "velocity": 93}, {"time": 2194, "pitch": 57, "duration": 5, "velocity": 97}, {"time": 2194, "pitch": 61, "duration": 5, "velocity": 127}, {"time": 2194, "pitch": 64, "duration": 5, "velocity": 93}, {"time": 2206, "pitch": 45, "duration": 4, "velocity": 92}, {"time": 2206, "pitch": 52, "duration": 3, "velocity": 78}, {"time": 2206, "pitch": 57, "duration": 5, "velocity": 97}, {"time": 2206, "pitch": 61, "duration": 6, "velocity": 102}, {"time": 2206, "pitch": 64, "duration": 5, "velocity": 90}, {"time": 2218, "pitch": 38, "duration": 17, "velocity": 81}, {"time": 2218, "pitch": 57, "duration": 6, "velocity": 100}, {"time": 2218, "pitch": 62, "duration": 7, "velocity": 100}, {"time": 2218, "pitch": 66, "duration": 7, "velocity": 107}, {"time": 2221, "pitch": 45, "duration": 15, "velocity": 83}, {"time": 2224, "pitch": 50, "duration": 7, "velocity": 99}, {"time": 2227, "pitch": 57, "duration": 4, "velocity": 117}, {"time": 2230, "pitch": 62, "duration": 7, "velocity": 97}, {"time": 2230, "pitch": 66, "duration": 12, "velocity": 127}, {"time": 2233, "pitch": 50, "duration": 6, "velocity": 107}, {"time": 2236, "pitch": 57, "duration": 6, "velocity": 100}, {"time": 2239, "pitch": 62, "duration": 3, "velocity": 100}, {"time": 2242, "pitch": 45, "duration": 20, "velocity": 86}, {"time": 2245, "pitch": 52, "duration": 11, "velocity": 77}, {"time": 2248, "pitch": 57, "duration": 6, "velocity": 102}, {"time": 2251, "pitch": 64, "duration": 7, "velocity": 92}, {"time": 2254, "pitch": 73, "duration": 12, "velocity": 127}, {"time": 2257, "pitch": 52, "duration": 8, "velocity": 79}, {"time": 2260, "pitch": 69, "duration": 6, "velocity": 93}, {"time": 2263, "pitch": 64, "duration": 4, "velocity": 97}, {"time": 2266, "pitch": 47, "duration": 18, "velocity": 81}, {"time": 2269, "pitch": 54, "duration": 14, "velocity": 95}, {"time": 2272, "pitch": 59, "duration": 6, "velocity": 96}, {"time": 2275, "pitch": 62, "duration": 7, "velocity": 92}, {"time": 2278, "pitch": 71, "duration": 12, "velocity": 102}, {"time": 2281, "pitch": 59, "duration": 2, "velocity": 92}, {"time": 2284, "pitch": 66, "duration": 4, "velocity": 122}, {"time": 2287, "pitch": 62, "duration": 3, "velocity": 100}, {"time": 2290, "pitch": 43, "duration": 18, "velocity": 74}, {"time": 2293, "pitch": 50, "duration": 11, "velocity": 78}, {"time": 2296, "pitch": 55, "duration": 4, "velocity": 99}, {"time": 2299, "pitch": 62, "duration": 7, "velocity": 99}, {"time": 2302, "pitch": 71, "duration": 12, "velocity": 127}, {"time": 2305, "pitch": 50, "duration": 2, "velocity": 95}, {"time": 2308, "pitch": 67, "duration": 5, "velocity": 99}, {"time": 2311, "pitch": 62, "duration": 3, "velocity": 102}, {"time": 2314, "pitch": 38, "duration": 17, "velocity": 86}, {"time": 2317, "pitch": 45, "duration": 14, "velocity": 53}, {"time": 2320, "pitch": 50, "duration": 7, "velocity": 88}, {"time": 2323, "pitch": 57, "duration": 7, "velocity": 99}, {"time": 2326, "pitch": 66, "duration": 11, "velocity": 127}, {"time": 2329, "pitch": 50, "duration": 4, "velocity": 82}, {"time": 2332, "pitch": 62, "duration": 5, "velocity": 99}, {"time": 2335, "pitch": 57, "duration": 4, "velocity": 107}, {"time": 2338, "pitch": 45, "duration": 18, "velocity": 83}, {"time": 2341, "pitch": 52, "duration": 10, "velocity": 69}, {"time": 2344, "pitch": 57, "duration": 7, "velocity": 83}, {"time": 2347, "pitch": 61, "duration": 3, "velocity": 102}, {"time": 2350, "pitch": 64, "duration": 12, "velocity": 99}, {"time": 2353, "pitch": 52, "duration": 3, "velocity": 82}, {"time": 2356, "pitch": 61, "duration": 6, "velocity": 122}, {"time": 2359, "pitch": 57, "duration": 3, "velocity": 107}, {"time": 2362, "pitch": 43, "duration": 22, "velocity": 88}, {"time": 2365, "pitch": 50, "duration": 21, "velocity": 68}, {"time": 2368, "pitch": 55, "duration": 7, "velocity": 90}, {"time": 2371, "pitch": 62, "duration": 4, "velocity": 89}, {"time": 2374, "pitch": 67, "duration": 7, "velocity": 92}, {"time": 2374, "pitch": 71, "duration": 12, "velocity": 100}, {"time": 2377, "pitch": 55, "duration": 2, "velocity": 96}, {"time": 2380, "pitch": 62, "duration": 6, "velocity": 100}, {"time": 2383, "pitch": 67, "duration": 3, "velocity": 102}, {"time": 2386, "pitch": 45, "duration": 18, "velocity": 82}, {"time": 2389, "pitch": 52, "duration": 11, "velocity": 81}, {"time": 2392, "pitch": 57, "duration": 3, "velocity": 97}, {"time": 2395, "pitch": 61, "duration": 3, "velocity": 122}, {"time": 2398, "pitch": 64, "duration": 12, "velocity": 102}, {"time": 2401, "pitch": 52, "duration": 2, "velocity": 96}, {"time": 2404, "pitch": 61, "duration": 5, "velocity": 127}, {"time": 2407, "pitch": 57, "duration": 4, "velocity": 90}, {"time": 2410, "pitch": 38, "duration": 18, "velocity": 89}, {"time": 2413, "pitch": 45, "duration": 15, "velocity": 82}, {"time": 2416, "pitch": 50, "duration": 7, "velocity": 95}, {"time": 2419, "pitch": 57, "duration": 7, "velocity": 96}, {"time": 2422, "pitch": 66, "duration": 10, "velocity": 127}, {"time": 2425, "pitch": 50, "duration": 5, "velocity": 93}, {"time": 2428, "pitch": 62, "duration": 4, "velocity": 102}, {"time": 2431, "pitch": 57, "duration": 4, "velocity": 117}, {"time": 2434, "pitch": 45, "duration": 22, "velocity": 78}, {"time": 2437, "pitch": 52, "duration": 10, "velocity": 64}, {"time": 2440, "pitch": 57, "duration": 4, "velocity": 93}, {"time": 2443, "pitch": 61, "duration": 2, "velocity": 122}, {"time": 2446, "pitch": 64, "duration": 12, "velocity": 102}, {"time": 2449, "pitch": 52, "duration": 8, "velocity": 102}, {"time": 2452, "pitch": 61, "duration": 6, "velocity": 99}, {"time": 2455, "pitch": 57, "duration": 3, "velocity": 95}, {"time": 2458, "pitch": 47, "duration": 18, "velocity": 74}, {"time": 2461, "pitch": 54, "duration": 15, "velocity": 92}, {"time": 2464, "pitch": 59, "duration": 7, "velocity": 92}, {"time": 2467, "pitch": 62, "duration": 7, "velocity": 99}, {"time": 2470, "pitch": 71, "duration": 12, "velocity": 102}, {"time": 2473, "pitch": 59, "duration": 2, "velocity": 99}, {"time": 2476, "pitch": 66, "duration": 5, "velocity": 112}, {"time": 2479, "pitch": 62, "duration": 3, "velocity": 93}, {"time": 2482, "pitch": 43, "duration": 19, "velocity": 77}, {"time": 2485, "pitch": 50, "duration": 15, "velocity": 68}, {"time": 2488, "pitch": 55, "duration": 7, "velocity": 97}, {"time": 2491, "pitch": 62, "duration": 9, "velocity": 93}, {"time": 2494, "pitch": 71, "duration": 11, "velocity": 127}, {"time": 2497, "pitch": 55, "duration": 2, "velocity": 102}, {"time": 2500, "pitch": 67, "duration": 4, "velocity": 102}, {"time": 2503, "pitch": 62, "duration": 4, "velocity": 107}, {"time": 2506, "pitch": 38, "duration": 16, "velocity": 77}, {"time": 2509, "pitch": 45, "duration": 14, "velocity": 77}, {"time": 2512, "pitch": 50, "duration": 7, "velocity": 92}, {"time": 2515, "pitch": 57, "duration": 7, "velocity": 92}, {"time": 2518, "pitch": 66, "duration": 11, "velocity": 127}, {"time": 2521, "pitch": 50, "duration": 3, "velocity": 88}, {"time": 2524, "pitch": 62, "duration": 5, "velocity": 99}, {"time": 2527, "pitch": 57, "duration": 3, "velocity": 97}, {"time": 2530, "pitch": 45, "duration": 19, "velocity": 90}, {"time": 2533, "pitch": 52, "duration": 11, "velocity": 78}, {"time": 2536, "pitch": 57, "duration": 4, "velocity": 100}, {"time": 2539, "pitch": 64, "duration": 7, "velocity": 95}, {"time": 2542, "pitch": 73, "duration": 11, "velocity": 127}, {"time": 2545, "pitch": 52, "duration": 3, "velocity": 86}, {"time": 2548, "pitch": 69, "duration": 5, "velocity": 92}, {"time": 2551, "pitch": 64, "duration": 3, "velocity": 96}, {"time": 2554, "pitch": 43, "duration": 22, "velocity": 66}, {"time": 2557, "pitch": 50, "duration": 21, "velocity": 64}, {"time": 2560, "pitch": 55, "duration": 7, "velocity": 93}, {"time": 2563, "pitch": 62, "duration": 6, "velocity": 89}, {"time": 2566, "pitch": 71, "duration": 14, "velocity": 117}, {"time": 2569, "pitch": 55, "duration": 3, "velocity": 95}, {"time": 2572, "pitch": 67, "duration": 8, "velocity": 99}, {"time": 2575, "pitch": 62, "duration": 10, "velocity": 107}, {"time": 2578, "pitch": 43, "duration": 22, "velocity": 88}, {"time": 2581, "pitch": 50, "duration": 20, "velocity": 63}, {"time": 2584, "pitch": 55, "duration": 7, "velocity": 95}, {"time": 2587, "pitch": 62, "duration": 10, "velocity": 93}, {"time": 2590, "pitch": 71, "duration": 12, "velocity": 127}, {"time": 2593, "pitch": 55, "duration": 3, "velocity": 99}, {"time": 2596, "pitch": 67, "duration": 6, "velocity": 96}, {"time": 2599, "pitch": 62, "duration": 4, "velocity": 99}, {"time": 2602, "pitch": 45, "duration": 22, "velocity": 88}, {"time": 2605, "pitch": 52, "duration": 10, "velocity": 77}, {"time": 2608, "pitch": 57, "duration": 3, "velocity": 96}, {"time": 2611, "pitch": 61, "duration": 3, "velocity": 117}, {"time": 2614, "pitch": 64, "duration": 7, "velocity": 97}, {"time": 2617, "pitch": 52, "duration": 15, "velocity": 93}, {"time": 2620, "pitch": 61, "duration": 5, "velocity": 127}, {"time": 2623, "pitch": 64, "duration": 2, "velocity": 86}, {"time": 2626, "pitch": 45, "duration": 7, "velocity": 86}, {"time": 2626, "pitch": 57, "duration": 6, "velocity": 100}, {"time": 2626, "pitch": 61, "duration": 6, "velocity": 95}, {"time": 2626, "pitch": 64, "duration": 6, "velocity": 93}, {"time": 2650, "pitch": 38, "duration": 24, "velocity": 92}, {"time": 2650, "pitch": 57, "duration": 10, "velocity": 96}, {"time": 2650, "pitch": 62, "duration": 8, "velocity": 102}, {"time": 2650, "pitch": 66, "duration": 8, "velocity": 102}, {"time": 2656, "pitch": 45, "duration": 18, "velocity": 48}, {"time": 2659, "pitch": 50, "duration": 6, "velocity": 53}, {"time": 2662, "pitch": 57, "duration": 7, "velocity": 97}, {"time": 2662, "pitch": 62, "duration": 7, "velocity": 102}, {"time": 2662, "pitch": 66, "duration": 7, "velocity": 107}, {"time": 2668, "pitch": 50, "duration": 6, "velocity": 69}, {"time": 2671, "pitch": 57, "duration": 2, "velocity": 58}, {"time": 2671, "pitch": 62, "duration": 2, "velocity": 63}, {"time": 2671, "pitch": 66, "duration": 1, "velocity": 36}, {"time": 2674, "pitch": 45, "duration": 3, "velocity": 88}, {"time": 2674, "pitch": 52, "duration": 3, "velocity": 82}, {"time": 2674, "pitch": 57, "duration": 3, "velocity": 96}, {"time": 2674, "pitch": 61, "duration": 3, "velocity": 127}, {"time": 2674, "pitch": 64, "duration": 3, "velocity": 96}, {"time": 2678, "pitch": 45, "duration": 2, "velocity": 74}, {"time": 2678, "pitch": 52, "duration": 2, "velocity": 78}, {"time": 2678, "pitch": 57, "duration": 2, "velocity": 93}, {"time": 2678, "pitch": 61, "duration": 2, "velocity": 102}, {"time": 2678, "pitch": 64, "duration": 2, "velocity": 90}, {"time": 2682, "pitch": 45, "duration": 2, "velocity": 78}, {"time": 2682, "pitch": 52, "duration": 2, "velocity": 86}, {"time": 2682, "pitch": 57, "duration": 2, "velocity": 95}, {"time": 2682, "pitch": 61, "duration": 2, "velocity": 107}, {"time": 2682, "pitch": 64, "duration": 2, "velocity": 86}, {"time": 2686, "pitch": 45, "duration": 2, "velocity": 93}, {"time": 2686, "pitch": 52, "duration": 2, "velocity": 92}, {"time": 2686, "pitch": 57, "duration": 2, "velocity": 95}, {"time": 2686, "pitch": 61, "duration": 3, "velocity": 112}, {"time": 2686, "pitch": 64, "duration": 3, "velocity": 93}, {"time": 2690, "pitch": 45, "duration": 2, "velocity": 96}, {"time": 2690, "pitch": 52, "duration": 2, "velocity": 92}, {"time": 2690, "pitch": 57, "duration": 2, "velocity": 92}, {"time": 2690, "pitch": 61, "duration": 2, "velocity": 102}, {"time": 2690, "pitch": 64, "duration": 3, "velocity": 83}, {"time": 2694, "pitch": 45, "duration": 4, "velocity": 95}, {"time": 2694, "pitch": 52, "duration": 4, "velocity": 97}, {"time": 2694, "pitch": 57, "duration": 4, "velocity": 102}, {"time": 2694, "pitch": 61, "duration": 4, "velocity": 127}, {"time": 2694, "pitch": 64, "duration": 4, "velocity": 97}, {"time": 2698, "pitch": 38, "duration": 17, "velocity": 96}, {"time": 2701, "pitch": 45, "duration": 14, "velocity": 95}, {"time": 2704, "pitch": 50, "duration": 6, "velocity": 100}, {"time": 2707, "pitch": 57, "duration": 6, "velocity": 100}, {"time": 2710, "pitch": 66, "duration": 9, "velocity": 127}, {"time": 2713, "pitch": 50, "duration": 4, "velocity": 112}, {"time": 2716, "pitch": 62, "duration": 6, "velocity": 100}, {"time": 2719, "pitch": 57, "duration": 3, "velocity": 102}, {"time": 2722, "pitch": 45, "duration": 21, "velocity": 93}, {"time": 2725, "pitch": 52, "duration": 10, "velocity": 89}, {"time": 2728, "pitch": 57, "duration": 2, "velocity": 107}, {"time": 2731, "pitch": 61, "duration": 3, "velocity": 127}, {"time": 2734, "pitch": 64, "duration": 11, "velocity": 112}, {"time": 2737, "pitch": 52, "duration": 8, "velocity": 117}, {"time": 2740, "pitch": 61, "duration": 5, "velocity": 127}, {"time": 2743, "pitch": 57, "duration": 3, "velocity": 102}, {"time": 2746, "pitch": 47, "duration": 18, "velocity": 97}, {"time": 2749, "pitch": 54, "duration": 10, "velocity": 112}, {"time": 2752, "pitch": 59, "duration": 3, "velocity": 97}, {"time": 2755, "pitch": 62, "duration": 3, "velocity": 122}, {"time": 2758, "pitch": 66, "duration": 10, "velocity": 127}, {"time": 2761, "pitch": 54, "duration": 2, "velocity": 99}, {"time": 2764, "pitch": 62, "duration": 5, "velocity": 100}, {"time": 2767, "pitch": 59, "duration": 2, "velocity": 100}, {"time": 2770, "pitch": 43, "duration": 18, "velocity": 89}, {"time": 2773, "pitch": 50, "duration": 15, "velocity": 79}, {"time": 2776, "pitch": 55, "duration": 7, "velocity": 100}, {"time": 2779, "pitch": 62, "duration": 5, "velocity": 93}, {"time": 2782, "pitch": 71, "duration": 11, "velocity": 127}, {"time": 2785, "pitch": 55, "duration": 2, "velocity": 102}, {"time": 2788, "pitch": 67, "duration": 5, "velocity": 112}, {"time": 2791, "pitch": 62, "duration": 3, "velocity": 112}, {"time": 2794, "pitch": 38, "duration": 16, "velocity": 81}, {"time": 2797, "pitch": 45, "duration": 13, "velocity": 89}, {"time": 2800, "pitch": 50, "duration": 6, "velocity": 107}, {"time": 2803, "pitch": 57, "duration": 6, "velocity": 117}, {"time": 2806, "pitch": 66, "duration": 9, "velocity": 127}, {"time": 2809, "pitch": 50, "duration": 3, "velocity": 100}, {"time": 2812, "pitch": 62, "duration": 5, "velocity": 102}, {"time": 2815, "pitch": 57, "duration": 3, "velocity": 107}, {"time": 2818, "pitch": 45, "duration": 17, "velocity": 78}, {"time": 2821, "pitch": 52, "duration": 10, "velocity": 66}, {"time": 2824, "pitch": 57, "duration": 3, "velocity": 107}, {"time": 2827, "pitch": 61, "duration": 3, "velocity": 127}, {"time": 2830, "pitch": 64, "duration": 12, "velocity": 100}, {"time": 2833, "pitch": 52, "duration": 2, "velocity": 112}, {"time": 2836, "pitch": 61, "duration": 6, "velocity": 112}, {"time": 2839, "pitch": 57, "duration": 3, "velocity": 93}, {"time": 2842, "pitch": 43, "duration": 21, "velocity": 82}, {"time": 2845, "pitch": 50, "duration": 21, "velocity": 83}, {"time": 2848, "pitch": 55, "duration": 7, "velocity": 112}, {"time": 2851, "pitch": 62, "duration": 6, "velocity": 99}, {"time": 2854, "pitch": 71, "duration": 11, "velocity": 122}, {"time": 2857, "pitch": 55, "duration": 4, "velocity": 102}, {"time": 2860, "pitch": 67, "duration": 4, "velocity": 107}, {"time": 2863, "pitch": 62, "duration": 4, "velocity": 100}, {"time": 2866, "pitch": 45, "duration": 18, "velocity": 97}, {"time": 2869, "pitch": 52, "duration": 10, "velocity": 102}, {"time": 2872, "pitch": 57, "duration": 4, "velocity": 112}, {"time": 2875, "pitch": 64, "duration": 4, "velocity": 96}, {"time": 2878, "pitch": 69, "duration": 7, "velocity": 90}, {"time": 2878, "pitch": 73, "duration": 12, "velocity": 127}, {"time": 2881, "pitch": 52, "duration": 2, "velocity": 112}, {"time": 2884, "pitch": 64, "duration": 7, "velocity": 102}, {"time": 2887, "pitch": 69, "duration": 3, "velocity": 117}, {"time": 2890, "pitch": 38, "duration": 17, "velocity": 78}, {"time": 2893, "pitch": 45, "duration": 14, "velocity": 82}, {"time": 2896, "pitch": 50, "duration": 7, "velocity": 100}, {"time": 2899, "pitch": 57, "duration": 6, "velocity": 99}, {"time": 2902, "pitch": 66, "duration": 11, "velocity": 127}, {"time": 2905, "pitch": 50, "duration": 5, "velocity": 102}, {"time": 2908, "pitch": 62, "duration": 6, "velocity": 93}, {"time": 2911, "pitch": 57, "duration": 3, "velocity": 112}, {"time": 2914, "pitch": 45, "duration": 19, "velocity": 90}, {"time": 2917, "pitch": 52, "duration": 10, "velocity": 78}, {"time": 2920, "pitch": 57, "duration": 3, "velocity": 100}, {"time": 2923, "pitch": 61, "duration": 3, "velocity": 122}, {"time": 2926, "pitch": 64, "duration": 11, "velocity": 112}, {"time": 2929, "pitch": 52, "duration": 4, "velocity": 127}, {"time": 2932, "pitch": 61, "duration": 5, "velocity": 122}, {"time": 2935, "pitch": 57, "duration": 3, "velocity": 107}, {"time": 2938, "pitch": 47, "duration": 17, "velocity": 102}, {"time": 2941, "pitch": 54, "duration": 10, "velocity": 96}, {"time": 2944, "pitch": 59, "duration": 3, "velocity": 102}, {"time": 2947, "pitch": 62, "duration": 3, "velocity": 97}, {"time": 2950, "pitch": 66, "duration": 11, "velocity": 127}, {"time": 2953, "pitch": 54, "duration": 2, "velocity": 117}, {"time": 2956, "pitch": 62, "duration": 6, "velocity": 107}, {"time": 2959, "pitch": 59, "duration": 3, "velocity": 107}, {"time": 2962, "pitch": 43, "duration": 19, "velocity": 89}, {"time": 2965, "pitch": 50, "duration": 16, "velocity": 90}, {"time": 2968, "pitch": 55, "duration": 7, "velocity": 112}, {"time": 2971, "pitch": 62, "duration": 4, "velocity": 99}, {"time": 2974, "pitch": 67, "duration": 7, "velocity": 100}, {"time": 2974, "pitch": 71, "duration": 12, "velocity": 112}, {"time": 2977, "pitch": 55, "duration": 3, "velocity": 102}, {"time": 2980, "pitch": 62, "duration": 7, "velocity": 127}, {"time": 2983, "pitch": 67, "duration": 3, "velocity": 117}, {"time": 2986, "pitch": 38, "duration": 17, "velocity": 88}, {"time": 2989, "pitch": 45, "duration": 14, "velocity": 78}, {"time": 2992, "pitch": 50, "duration": 7, "velocity": 97}, {"time": 2995, "pitch": 57, "duration": 7, "velocity": 107}, {"time": 2998, "pitch": 66, "duration": 11, "velocity": 127}, {"time": 3001, "pitch": 50, "duration": 4, "velocity": 100}, {"time": 3004, "pitch": 62, "duration": 5, "velocity": 102}, {"time": 3007, "pitch": 57, "duration": 3, "velocity": 112}, {"time": 3010, "pitch": 45, "duration": 18, "velocity": 82}, {"time": 3013, "pitch": 52, "duration": 10, "velocity": 78}, {"time": 3016, "pitch": 57, "duration": 3, "velocity": 99}, {"time": 3019, "pitch": 61, "duration": 2, "velocity": 117}, {"time": 3022, "pitch": 64, "duration": 11, "velocity": 112}, {"time": 3025, "pitch": 52, "duration": 3, "velocity": 100}, {"time": 3028, "pitch": 61, "duration": 5, "velocity": 127}, {"time": 3031, "pitch": 57, "duration": 2, "velocity": 112}, {"time": 3034, "pitch": 43, "duration": 22, "velocity": 96}, {"time": 3037, "pitch": 50, "duration": 21, "velocity": 89}, {"time": 3040, "pitch": 55, "duration": 7, "velocity": 100}, {"time": 3043, "pitch": 62, "duration": 7, "velocity": 93}, {"time": 3046, "pitch": 71, "duration": 10, "velocity": 117}, {"time": 3049, "pitch": 55, "duration": 8, "velocity": 96}, {"time": 3052, "pitch": 67, "duration": 4, "velocity": 102}, {"time": 3055, "pitch": 62, "duration": 2, "velocity": 96}, {"time": 3058, "pitch": 43, "duration": 13, "velocity": 79}, {"time": 3058, "pitch": 55, "duration": 13, "velocity": 100}, {"time": 3058, "pitch": 62, "duration": 11, "velocity": 99}, {"time": 3058, "pitch": 67, "duration": 11, "velocity": 107}, {"time": 3058, "pitch": 71, "duration": 11, "velocity": 100}, {"time": 3067, "pitch": 50, "duration": 5, "velocity": 42}, {"time": 3070, "pitch": 62, "duration": 3, "velocity": 117}, {"time": 3070, "pitch": 67, "duration": 7, "velocity": 127}, {"time": 3070, "pitch": 71, "duration": 12, "velocity": 112}, {"time": 3073, "pitch": 43, "duration": 7, "velocity": 62}, {"time": 3073, "pitch": 50, "duration": 9, "velocity": 79}, {"time": 3073, "pitch": 55, "duration": 4, "velocity": 122}, {"time": 3076, "pitch": 62, "duration": 5, "velocity": 112}, {"time": 3079, "pitch": 67, "duration": 3, "velocity": 127}, {"time": 3082, "pitch": 45, "duration": 20, "velocity": 99}, {"time": 3085, "pitch": 52, "duration": 10, "velocity": 92}, {"time": 3088, "pitch": 57, "duration": 3, "velocity": 107}, {"time": 3091, "pitch": 61, "duration": 3, "velocity": 107}, {"time": 3094, "pitch": 64, "duration": 7, "velocity": 99}, {"time": 3097, "pitch": 52, "duration": 8, "velocity": 102}, {"time": 3100, "pitch": 61, "duration": 5, "velocity": 127}, {"time": 3103, "pitch": 64, "duration": 2, "velocity": 88}, {"time": 3106, "pitch": 45, "duration": 3, "velocity": 96}, {"time": 3106, "pitch": 52, "duration": 3, "velocity": 107}, {"time": 3106, "pitch": 57, "duration": 3, "velocity": 117}, {"time": 3106, "pitch": 61, "duration": 3, "velocity": 127}, {"time": 3106, "pitch": 64, "duration": 3, "velocity": 127}, {"time": 3130, "pitch": 38, "duration": 45, "velocity": 97}, {"time": 3130, "pitch": 57, "duration": 10, "velocity": 82}, {"time": 3130, "pitch": 62, "duration": 9, "velocity": 83}, {"time": 3130, "pitch": 66, "duration": 9, "velocity": 75}, {"time": 3136, "pitch": 45, "duration": 43, "velocity": 42}, {"time": 3139, "pitch": 50, "duration": 5, "velocity": 88}, {"time": 3142, "pitch": 62, "duration": 7, "velocity": 112}, {"time": 3142, "pitch": 66, "duration": 7, "velocity": 127}, {"time": 3148, "pitch": 50, "duration": 7, "velocity": 86}, {"time": 3151, "pitch": 57, "duration": 9, "velocity": 81}, {"time": 3151, "pitch": 62, "duration": 10, "velocity": 96}, {"time": 3151, "pitch": 66, "duration": 12, "velocity": 95}, {"time": 3157, "pitch": 50, "duration": 9, "velocity": 79}, {"time": 3163, "pitch": 57, "duration": 3, "velocity": 89}, {"time": 3163, "pitch": 62, "duration": 1, "velocity": 23}, {"time": 3166, "pitch": 62, "duration": 7, "velocity": 100}, {"time": 3166, "pitch": 66, "duration": 7, "velocity": 127}, {"time": 3169, "pitch": 50, "duration": 3, "velocity": 95}, {"time": 3172, "pitch": 57, "duration": 7, "velocity": 93}, {"time": 3175, "pitch": 62, "duration": 2, "velocity": 33}, {"time": 3178, "pitch": 38, "duration": 42, "velocity": 86}, {"time": 3184, "pitch": 45, "duration": 8, "velocity": 50}, {"time": 3190, "pitch": 50, "duration": 16, "velocity": 47}, {"time": 3190, "pitch": 66, "duration": 22, "velocity": 96}, {"time": 3196, "pitch": 45, "duration": 24, "velocity": 41}, {"time": 3202, "pitch": 62, "duration": 10, "velocity": 74}, {"time": 3208, "pitch": 50, "duration": 7, "velocity": 47}, {"time": 3214, "pitch": 62, "duration": 7, "velocity": 99}, {"time": 3214, "pitch": 66, "duration": 12, "velocity": 107}, {"time": 3217, "pitch": 50, "duration": 3, "velocity": 73}, {"time": 3220, "pitch": 57, "duration": 6, "velocity": 102}, {"time": 3223, "pitch": 62, "duration": 3, "velocity": 66}, {"time": 3226, "pitch": 42, "duration": 6, "velocity": 97}, {"time": 3226, "pitch": 54, "duration": 6, "velocity": 90}, {"time": 3226, "pitch": 57, "duration": 7, "velocity": 97}, {"time": 3226, "pitch": 61, "duration": 7, "velocity": 122}, {"time": 3226, "pitch": 66, "duration": 7, "velocity": 102}, {"time": 3235, "pitch": 42, "duration": 4, "velocity": 100}, {"time": 3235, "pitch": 54, "duration": 5, "velocity": 95}, {"time": 3235, "pitch": 57, "duration": 6, "velocity": 95}, {"time": 3235, "pitch": 61, "duration": 5, "velocity": 127}, {"time": 3235, "pitch": 66, "duration": 5, "velocity": 107}, {"time": 3244, "pitch": 43, "duration": 43, "velocity": 71}, {"time": 3244, "pitch": 50, "duration": 42, "velocity": 78}, {"time": 3244, "pitch": 55, "duration": 41, "velocity": 102}, {"time": 3244, "pitch": 59, "duration": 41, "velocity": 99}, {"time": 3244, "pitch": 62, "duration": 42, "velocity": 97}, {"time": 3299, "pitch": 62, "duration": 13, "velocity": 59}, {"time": 3300, "pitch": 66, "duration": 12, "velocity": 49}, {"time": 3302, "pitch": 69, "duration": 9, "velocity": 40}, {"time": 3302, "pitch": 38, "duration": 40, "velocity": 61}, {"time": 3303, "pitch": 74, "duration": 6, "velocity": 76}, {"time": 3308, "pitch": 45, "duration": 33, "velocity": 56}, {"time": 3311, "pitch": 50, "duration": 30, "velocity": 77}, {"time": 3314, "pitch": 62, "duration": 4, "velocity": 66}, {"time": 3316, "pitch": 66, "duration": 2, "velocity": 44}, {"time": 3318, "pitch": 69, "duration": 1, "velocity": 54}, {"time": 3321, "pitch": 74, "duration": 4, "velocity": 42}, {"time": 3323, "pitch": 78, "duration": 3, "velocity": 54}, {"time": 3326, "pitch": 81, "duration": 1, "velocity": 59}, {"time": 3329, "pitch": 86, "duration": 13, "velocity": 59}, {"time": 3332, "pitch": 90, "duration": 9, "velocity": 56}, {"time": 3334, "pitch": 93, "duration": 7, "velocity": 65}, {"time": 3336, "pitch": 98, "duration": 6, "velocity": 75}], "annotations": [{"time": 252, "annotation": {"number": 64, "value": 127}, "group": "control_change"}, {"time": 344, "annotation": {"number": 64, "value": 0}, "group": "control_change"}, {"time": 346, "annotation": {"number": 64, "value": 127}, "group": "control_change"}, {"time": 369, "annotation": {"number": 64, "value": 0}, "group": "control_change"}, {"time": 371, "annotation": {"number": 64, "value": 127}, "group": "control_change"}, {"time": 391, "annotation": {"number": 64, "value": 0}, "group": "control_change"}, {"time": 394, "annotation": {"number": 64, "value": 127}, "group": "control_change"}, {"time": 440, "annotation": {"number": 64, "value": 0}, "group": "control_change"}, {"time": 442, "annotation": {"number": 64, "value": 127}, "group": "control_change"}, {"time": 488, "annotation": {"number": 64, "value": 0}, "group": "control_change"}, {"time": 490, "annotation": {"number": 64, "value": 127}, "group": "control_change"}, {"time": 536, "annotation": {"number": 64, "value": 0}, "group": "control_change"}, {"time": 538, "annotation": {"number": 64, "value": 127}, "group": "control_change"}, {"time": 585, "annotation": {"number": 64, "value": 0}, "group": "control_change"}, {"time": 586, "annotation": {"number": 64, "value": 127}, "group": "control_change"}, {"time": 629, "annotation": {"number": 64, "value": 0}, "group": "control_change"}, {"time": 634, "annotation": {"number": 64, "value": 127}, "group": "control_change"}, {"time": 680, "annotation": {"number": 64, "value": 0}, "group": "control_change"}, {"time": 682, "annotation": {"number": 64, "value": 127}, "group": "control_change"}, {"time": 728, "annotation": {"number": 64, "value": 0}, "group": "control_change"}, {"time": 730, "annotation": {"number": 64, "value": 127}, "group": "control_change"}, {"time": 752, "annotation": {"number": 64, "value": 0}, "group": "control_change"}, {"time": 753, "annotation": {"number": 64, "value": 127}, "group": "control_change"}, {"time": 776, "annotation": {"number": 64, "value": 0}, "group": "control_change"}, {"time": 778, "annotation": {"number": 64, "value": 127}, "group": "control_change"}, {"time": 824, "annotation": {"number": 64, "value": 0}, "group": "control_change"}, {"time": 826, "annotation": {"number": 64, "value": 127}, "group": "control_change"}, {"time": 847, "annotation": {"number": 64, "value": 0}, "group": "control_change"}, {"time": 849, "annotation": {"number": 64, "value": 127}, "group": "control_change"}, {"time": 873, "annotation": {"number": 64, "value": 0}, "group": "control_change"}, {"time": 874, "annotation": {"number": 64, "value": 127}, "group": "control_change"}, {"time": 896, "annotation": {"number": 64, "value": 0}, "group": "control_change"}, {"time": 898, "annotation": {"number": 64, "value": 127}, "group": "control_change"}, {"time": 920, "annotation": {"number": 64, "value": 0}, "group": "control_change"}, {"time": 922, "annotation": {"number": 64, "value": 127}, "group": "control_change"}, {"time": 945, "annotation": {"number": 64, "value": 0}, "group": "control_change"}, {"time": 946, "annotation": {"number": 64, "value": 127}, "group": "control_change"}, {"time": 968, "annotation": {"number": 64, "value": 0}, "group": "control_change"}, {"time": 970, "annotation": {"number": 64, "value": 127}, "group": "control_change"}, {"time": 992, "annotation": {"number": 64, "value": 0}, "group": "control_change"}, {"time": 994, "annotation": {"number": 64, "value": 127}, "group": "control_change"}, {"time": 998, "annotation": {"number": 64, "value": 0}, "group": "control_change"}, {"time": 1006, "annotation": {"number": 64, "value": 127}, "group": "control_change"}, {"time": 1015, "annotation": {"number": 64, "value": 0}, "group": "control_change"}, {"time": 1019, "annotation": {"number": 64, "value": 127}, "group": "control_change"}, {"time": 1040, "annotation": {"number": 64, "value": 0}, "group": "control_change"}, {"time": 1042, "annotation": {"number": 64, "value": 127}, "group": "control_change"}, {"time": 1064, "annotation": {"number": 64, "value": 0}, "group": "control_change"}, {"time": 1066, "annotation": {"number": 64, "value": 127}, "group": "control_change"}, {"time": 1087, "annotation": {"number": 64, "value": 0}, "group": "control_change"}, {"time": 1090, "annotation": {"number": 64, "value": 127}, "group": "control_change"}, {"time": 1112, "annotation": {"number": 64, "value": 0}, "group": "control_change"}, {"time": 1114, "annotation": {"number": 64, "value": 127}, "group": "control_change"}, {"time": 1136, "annotation": {"number": 64, "value": 0}, "group": "control_change"}, {"time": 1137, "annotation": {"number": 64, "value": 127}, "group": "control_change"}, {"time": 1160, "annotation": {"number": 64, "value": 0}, "group": "control_change"}, {"time": 1161, "annotation": {"number": 64, "value": 127}, "group": "control_change"}, {"time": 1184, "annotation": {"number": 64, "value": 0}, "group": "control_change"}, {"time": 1185, "annotation": {"number": 64, "value": 127}, "group": "control_change"}, {"time": 1208, "annotation": {"number": 64, "value": 0}, "group": "control_change"}, {"time": 1210, "annotation": {"number": 64, "value": 127}, "group": "control_change"}, {"time": 1232, "annotation": {"number": 64, "value": 0}, "group": "control_change"}, {"time": 1234, "annotation": {"number": 64, "value": 127}, "group": "control_change"}, {"time": 1256, "annotation": {"number": 64, "value": 0}, "group": "control_change"}, {"time": 1258, "annotation": {"number": 64, "value": 127}, "group": "control_change"}, {"time": 1280, "annotation": {"number": 64, "value": 0}, "group": "control_change"}, {"time": 1281, "annotation": {"number": 64, "value": 127}, "group": "control_change"}, {"time": 1304, "annotation": {"number": 64, "value": 0}, "group": "control_change"}, {"time": 1306, "annotation": {"number": 64, "value": 127}, "group": "control_change"}, {"time": 1328, "annotation": {"number": 64, "value": 0}, "group": "control_change"}, {"time": 1329, "annotation": {"number": 64, "value": 127}, "group": "control_change"}, {"time": 1352, "annotation": {"number": 64, "value": 0}, "group": "control_change"}, {"time": 1354, "annotation": {"number": 64, "value": 127}, "group": "control_change"}, {"time": 1375, "annotation": {"number": 64, "value": 0}, "group": "control_change"}, {"time": 1377, "annotation": {"number": 64, "value": 127}, "group": "control_change"}, {"time": 1400, "annotation": {"number": 64, "value": 0}, "group": "control_change"}, {"time": 1401, "annotation": {"number": 64, "value": 127}, "group": "control_change"}, {"time": 1423, "annotation": {"number": 64, "value": 0}, "group": "control_change"}, {"time": 1450, "annotation": {"number": 64, "value": 127}, "group": "control_change"}, {"time": 1496, "annotation": {"number": 64, "value": 0}, "group": "control_change"}, {"time": 1498, "annotation": {"number": 64, "value": 127}, "group": "control_change"}, {"time": 1520, "annotation": {"number": 64, "value": 0}, "group": "control_change"}, {"time": 1521, "annotation": {"number": 64, "value": 127}, "group": "control_change"}, {"time": 1543, "annotation": {"number": 64, "value": 0}, "group": "control_change"}, {"time": 1545, "annotation": {"number": 64, "value": 127}, "group": "control_change"}, {"time": 1546, "annotation": {"number": 64, "value": 127}, "group": "control_change"}, {"time": 1558, "annotation": {"number": 64, "value": 0}, "group": "control_change"}, {"time": 1571, "annotation": {"number": 64, "value": 127}, "group": "control_change"}, {"time": 1590, "annotation": {"number": 64, "value": 0}, "group": "control_change"}, {"time": 1594, "annotation": {"number": 64, "value": 127}, "group": "control_change"}, {"time": 1616, "annotation": {"number": 64, "value": 0}, "group": "control_change"}, {"time": 1618, "annotation": {"number": 64, "value": 127}, "group": "control_change"}, {"time": 1639, "annotation": {"number": 64, "value": 0}, "group": "control_change"}, {"time": 1642, "annotation": {"number": 64, "value": 127}, "group": "control_change"}, {"time": 1663, "annotation": {"number": 64, "value": 0}, "group": "control_change"}, {"time": 1665, "annotation": {"number": 64, "value": 127}, "group": "control_change"}, {"time": 1688, "annotation": {"number": 64, "value": 0}, "group": "control_change"}, {"time": 1690, "annotation": {"number": 64, "value": 127}, "group": "control_change"}, {"time": 1712, "annotation": {"number": 64, "value": 0}, "group": "control_change"}, {"time": 1713, "annotation": {"number": 64, "value": 127}, "group": "control_change"}, {"time": 1737, "annotation": {"number": 64, "value": 0}, "group": "control_change"}, {"time": 1738, "annotation": {"number": 64, "value": 127}, "group": "control_change"}, {"time": 1741, "annotation": {"number": 64, "value": 0}, "group": "control_change"}, {"time": 1750, "annotation": {"number": 64, "value": 127}, "group": "control_change"}, {"time": 1754, "annotation": {"number": 64, "value": 0}, "group": "control_change"}, {"time": 1834, "annotation": {"number": 64, "value": 127}, "group": "control_change"}, {"time": 1880, "annotation": {"number": 64, "value": 0}, "group": "control_change"}, {"time": 1882, "annotation": {"number": 64, "value": 127}, "group": "control_change"}, {"time": 1928, "annotation": {"number": 64, "value": 0}, "group": "control_change"}, {"time": 1930, "annotation": {"number": 64, "value": 127}, "group": "control_change"}, {"time": 1952, "annotation": {"number": 64, "value": 0}, "group": "control_change"}, {"time": 1953, "annotation": {"number": 64, "value": 127}, "group": "control_change"}, {"time": 1976, "annotation": {"number": 64, "value": 0}, "group": "control_change"}, {"time": 1978, "annotation": {"number": 64, "value": 127}, "group": "control_change"}, {"time": 2024, "annotation": {"number": 64, "value": 0}, "group": "control_change"}, {"time": 2026, "annotation": {"number": 64, "value": 127}, "group": "control_change"}, {"time": 2047, "annotation": {"number": 64, "value": 0}, "group": "control_change"}, {"time": 2049, "annotation": {"number": 64, "value": 127}, "group": "control_change"}, {"time": 2073, "annotation": {"number": 64, "value": 0}, "group": "control_change"}, {"time": 2074, "annotation": {"number": 64, "value": 127}, "group": "control_change"}, {"time": 2096, "annotation": {"number": 64, "value": 0}, "group": "control_change"}, {"time": 2098, "annotation": {"number": 64, "value": 127}, "group": "control_change"}, {"time": 2120, "annotation": {"number": 64, "value": 0}, "group": "control_change"}, {"time": 2122, "annotation": {"number": 64, "value": 127}, "group": "control_change"}, {"time": 2145, "annotation": {"number": 64, "value": 0}, "group": "control_change"}, {"time": 2146, "annotation": {"number": 64, "value": 127}, "group": "control_change"}, {"time": 2168, "annotation": {"number": 64, "value": 0}, "group": "control_change"}, {"time": 2170, "annotation": {"number": 64, "value": 127}, "group": "control_change"}, {"time": 2192, "annotation": {"number": 64, "value": 0}, "group": "control_change"}, {"time": 2194, "annotation": {"number": 64, "value": 127}, "group": "control_change"}, {"time": 2198, "annotation": {"number": 64, "value": 0}, "group": "control_change"}, {"time": 2206, "annotation": {"number": 64, "value": 127}, "group": "control_change"}, {"time": 2215, "annotation": {"number": 64, "value": 0}, "group": "control_change"}, {"time": 2219, "annotation": {"number": 64, "value": 127}, "group": "control_change"}, {"time": 2240, "annotation": {"number": 64, "value": 0}, "group": "control_change"}, {"time": 2242, "annotation": {"number": 64, "value": 127}, "group": "control_change"}, {"time": 2264, "annotation": {"number": 64, "value": 0}, "group": "control_change"}, {"time": 2266, "annotation": {"number": 64, "value": 127}, "group": "control_change"}, {"time": 2287, "annotation": {"number": 64, "value": 0}, "group": "control_change"}, {"time": 2290, "annotation": {"number": 64, "value": 127}, "group": "control_change"}, {"time": 2312, "annotation": {"number": 64, "value": 0}, "group": "control_change"}, {"time": 2314, "annotation": {"number": 64, "value": 127}, "group": "control_change"}, {"time": 2336, "annotation": {"number": 64, "value": 0}, "group": "control_change"}, {"time": 2337, "annotation": {"number": 64, "value": 127}, "group": "control_change"}, {"time": 2360, "annotation": {"number": 64, "value": 0}, "group": "control_change"}, {"time": 2361, "annotation": {"number": 64, "value": 127}, "group": "control_change"}, {"time": 2384, "annotation": {"number": 64, "value": 0}, "group": "control_change"}, {"time": 2385, "annotation": {"number": 64, "value": 127}, "group": "control_change"}, {"time": 2408, "annotation": {"number": 64, "value": 0}, "group": "control_change"}, {"time": 2410, "annotation": {"number": 64, "value": 127}, "group": "control_change"}, {"time": 2432, "annotation": {"number": 64, "value": 0}, "group": "control_change"}, {"time": 2434, "annotation": {"number": 64, "value": 127}, "group": "control_change"}, {"time": 2456, "annotation": {"number": 64, "value": 0}, "group": "control_change"}, {"time": 2458, "annotation": {"number": 64, "value": 127}, "group": "control_change"}, {"time": 2480, "annotation": {"number": 64, "value": 0}, "group": "control_change"}, {"time": 2481, "annotation": {"number": 64, "value": 127}, "group": "control_change"}, {"time": 2504, "annotation": {"number": 64, "value": 0}, "group": "control_change"}, {"time": 2506, "annotation": {"number": 64, "value": 127}, "group": "control_change"}, {"time": 2528, "annotation": {"number": 64, "value": 0}, "group": "control_change"}, {"time": 2529, "annotation": {"number": 64, "value": 127}, "group": "control_change"}, {"time": 2552, "annotation": {"number": 64, "value": 0}, "group": "control_change"}, {"time": 2554, "annotation": {"number": 64, "value": 127}, "group": "control_change"}, {"time": 2575, "annotation": {"number": 64, "value": 0}, "group": "control_change"}, {"time": 2577, "annotation": {"number": 64, "value": 127}, "group": "control_change"}, {"time": 2600, "annotation": {"number": 64, "value": 0}, "group": "control_change"}, {"time": 2601, "annotation": {"number": 64, "value": 127}, "group": "control_change"}, {"time": 2623, "annotation": {"number": 64, "value": 0}, "group": "control_change"}, {"time": 2650, "annotation": {"number": 64, "value": 127}, "group": "control_change"}, {"time": 2686, "annotation": {"number": 64, "value": 127}, "group": "control_change"}, {"time": 2691, "annotation": {"number": 64, "value": 0}, "group": "control_change"}, {"time": 2698, "annotation": {"number": 64, "value": 127}, "group": "control_change"}, {"time": 2720, "annotation": {"number": 64, "value": 0}, "group": "control_change"}, {"time": 2722, "annotation": {"number": 64, "value": 127}, "group": "control_change"}, {"time": 2744, "annotation": {"number": 64, "value": 0}, "group": "control_change"}, {"time": 2746, "annotation": {"number": 64, "value": 127}, "group": "control_change"}, {"time": 2768, "annotation": {"number": 64, "value": 0}, "group": "control_change"}, {"time": 2770, "annotation": {"number": 64, "value": 127}, "group": "control_change"}, {"time": 2792, "annotation": {"number": 64, "value": 0}, "group": "control_change"}, {"time": 2794, "annotation": {"number": 64, "value": 127}, "group": "control_change"}, {"time": 2816, "annotation": {"number": 64, "value": 0}, "group": "control_change"}, {"time": 2817, "annotation": {"number": 64, "value": 127}, "group": "control_change"}, {"time": 2840, "annotation": {"number": 64, "value": 0}, "group": "control_change"}, {"time": 2842, "annotation": {"number": 64, "value": 127}, "group": "control_change"}, {"time": 2863, "annotation": {"number": 64, "value": 0}, "group": "control_change"}, {"time": 2865, "annotation": {"number": 64, "value": 127}, "group": "control_change"}, {"time": 2888, "annotation": {"number": 64, "value": 0}, "group": "control_change"}, {"time": 2890, "annotation": {"number": 64, "value": 127}, "group": "control_change"}, {"time": 2912, "annotation": {"number": 64, "value": 0}, "group": "control_change"}, {"time": 2914, "annotation": {"number": 64, "value": 127}, "group": "control_change"}, {"time": 2936, "annotation": {"number": 64, "value": 0}, "group": "control_change"}, {"time": 2938, "annotation": {"number": 64, "value": 127}, "group": "control_change"}, {"time": 2959, "annotation": {"number": 64, "value": 0}, "group": "control_change"}, {"time": 2961, "annotation": {"number": 64, "value": 127}, "group": "control_change"}, {"time": 2984, "annotation": {"number": 64, "value": 0}, "group": "control_change"}, {"time": 2986, "annotation": {"number": 64, "value": 127}, "group": "control_change"}, {"time": 3008, "annotation": {"number": 64, "value": 0}, "group": "control_change"}, {"time": 3010, "annotation": {"number": 64, "value": 127}, "group": "control_change"}, {"time": 3032, "annotation": {"number": 64, "value": 0}, "group": "control_change"}, {"time": 3034, "annotation": {"number": 64, "value": 127}, "group": "control_change"}, {"time": 3055, "annotation": {"number": 64, "value": 0}, "group": "control_change"}, {"time": 3059, "annotation": {"number": 64, "value": 127}, "group": "control_change"}, {"time": 3072, "annotation": {"number": 64, "value": 0}, "group": "control_change"}, {"time": 3082, "annotation": {"number": 64, "value": 127}, "group": "control_change"}, {"time": 3102, "annotation": {"number": 64, "value": 0}, "group": "control_change"}, {"time": 3130, "annotation": {"number": 64, "value": 127}, "group": "control_change"}, {"time": 3152, "annotation": {"number": 64, "value": 0}, "group": "control_change"}, {"time": 3153, "annotation": {"number": 64, "value": 127}, "group": "control_change"}, {"time": 3174, "annotation": {"number": 64, "value": 0}, "group": "control_change"}, {"time": 3178, "annotation": {"number": 64, "value": 127}, "group": "control_change"}, {"time": 3224, "annotation": {"number": 64, "value": 0}, "group": "control_change"}, {"time": 3226, "annotation": {"number": 64, "value": 127}, "group": "control_change"}, {"time": 3230, "annotation": {"number": 64, "value": 0}, "group": "control_change"}, {"time": 3252, "annotation": {"number": 64, "value": 127}, "group": "control_change"}]}]}