{"metadata": {"schema_version": "0.2", "title": "None", "source_filename": "465.mid", "source_format": "midi"}, "resolution": 12, "tempos": [{"time": 0, "qpm": 60.0}], "time_signatures": [{"time": 0, "numerator": 1, "denominator": 4}], "tracks": [{"program": 0, "is_drum": false, "name": "MELODY", "notes": [{"time": 260, "pitch": 62, "duration": 3, "velocity": 107}, {"time": 262, "pitch": 60, "duration": 3, "velocity": 71}, {"time": 266, "pitch": 59, "duration": 6, "velocity": 88}, {"time": 272, "pitch": 62, "duration": 5, "velocity": 96}, {"time": 278, "pitch": 67, "duration": 4, "velocity": 102}, {"time": 284, "pitch": 71, "duration": 2, "velocity": 95}, {"time": 286, "pitch": 72, "duration": 5, "velocity": 107}, {"time": 292, "pitch": 71, "duration": 11, "velocity": 112}, {"time": 302, "pitch": 62, "duration": 4, "velocity": 102}, {"time": 308, "pitch": 59, "duration": 1, "velocity": 88}, {"time": 310, "pitch": 62, "duration": 4, "velocity": 97}, {"time": 316, "pitch": 59, "duration": 15, "velocity": 95}, {"time": 356, "pitch": 64, "duration": 2, "velocity": 107}, {"time": 358, "pitch": 62, "duration": 3, "velocity": 69}, {"time": 362, "pitch": 60, "duration": 5, "velocity": 92}, {"time": 368, "pitch": 64, "duration": 4, "velocity": 93}, {"time": 374, "pitch": 67, "duration": 3, "velocity": 102}, {"time": 380, "pitch": 69, "duration": 2, "velocity": 99}, {"time": 382, "pitch": 72, "duration": 4, "velocity": 107}, {"time": 388, "pitch": 71, "duration": 7, "velocity": 107}, {"time": 398, "pitch": 64, "duration": 5, "velocity": 112}, {"time": 404, "pitch": 66, "duration": 2, "velocity": 95}, {"time": 406, "pitch": 64, "duration": 6, "velocity": 93}, {"time": 412, "pitch": 62, "duration": 20, "velocity": 95}, {"time": 452, "pitch": 67, "duration": 1, "velocity": 99}, {"time": 454, "pitch": 69, "duration": 2, "velocity": 102}, {"time": 458, "pitch": 70, "duration": 3, "velocity": 127}, {"time": 464, "pitch": 70, "duration": 3, "velocity": 127}, {"time": 470, "pitch": 70, "duration": 2, "velocity": 122}, {"time": 472, "pitch": 69, "duration": 2, "velocity": 102}, {"time": 476, "pitch": 67, "duration": 2, "velocity": 96}, {"time": 478, "pitch": 65, "duration": 3, "velocity": 99}, {"time": 482, "pitch": 67, "duration": 6, "velocity": 117}, {"time": 488, "pitch": 67, "duration": 1, "velocity": 102}, {"time": 494, "pitch": 67, "duration": 4, "velocity": 122}, {"time": 502, "pitch": 69, "duration": 2, "velocity": 112}, {"time": 506, "pitch": 70, "duration": 3, "velocity": 127}, {"time": 512, "pitch": 70, "duration": 3, "velocity": 127}, {"time": 518, "pitch": 70, "duration": 2, "velocity": 127}, {"time": 520, "pitch": 69, "duration": 2, "velocity": 102}, {"time": 524, "pitch": 67, "duration": 1, "velocity": 99}, {"time": 526, "pitch": 72, "duration": 3, "velocity": 127}, {"time": 530, "pitch": 71, "duration": 5, "velocity": 117}, {"time": 536, "pitch": 69, "duration": 4, "velocity": 127}, {"time": 542, "pitch": 67, "duration": 6, "velocity": 117}, {"time": 560, "pitch": 64, "duration": 4, "velocity": 100}, {"time": 566, "pitch": 67, "duration": 4, "velocity": 112}, {"time": 572, "pitch": 71, "duration": 3, "velocity": 100}, {"time": 578, "pitch": 64, "duration": 5, "velocity": 112}, {"time": 584, "pitch": 67, "duration": 6, "velocity": 117}, {"time": 596, "pitch": 67, "duration": 28, "velocity": 117}, {"time": 644, "pitch": 62, "duration": 3, "velocity": 107}, {"time": 646, "pitch": 60, "duration": 3, "velocity": 71}, {"time": 650, "pitch": 59, "duration": 6, "velocity": 88}, {"time": 656, "pitch": 62, "duration": 5, "velocity": 96}, {"time": 662, "pitch": 67, "duration": 4, "velocity": 102}, {"time": 668, "pitch": 71, "duration": 2, "velocity": 95}, {"time": 670, "pitch": 72, "duration": 5, "velocity": 107}, {"time": 676, "pitch": 71, "duration": 11, "velocity": 112}, {"time": 686, "pitch": 62, "duration": 4, "velocity": 102}, {"time": 692, "pitch": 59, "duration": 1, "velocity": 88}, {"time": 694, "pitch": 62, "duration": 4, "velocity": 97}, {"time": 700, "pitch": 59, "duration": 15, "velocity": 95}, {"time": 740, "pitch": 64, "duration": 2, "velocity": 107}, {"time": 742, "pitch": 62, "duration": 3, "velocity": 69}, {"time": 746, "pitch": 60, "duration": 5, "velocity": 92}, {"time": 752, "pitch": 64, "duration": 4, "velocity": 93}, {"time": 758, "pitch": 67, "duration": 3, "velocity": 102}, {"time": 764, "pitch": 69, "duration": 2, "velocity": 99}, {"time": 766, "pitch": 72, "duration": 4, "velocity": 107}, {"time": 772, "pitch": 71, "duration": 7, "velocity": 107}, {"time": 782, "pitch": 64, "duration": 5, "velocity": 112}, {"time": 788, "pitch": 66, "duration": 2, "velocity": 95}, {"time": 790, "pitch": 64, "duration": 6, "velocity": 93}, {"time": 796, "pitch": 62, "duration": 20, "velocity": 95}, {"time": 836, "pitch": 67, "duration": 1, "velocity": 99}, {"time": 838, "pitch": 69, "duration": 2, "velocity": 102}, {"time": 842, "pitch": 70, "duration": 3, "velocity": 127}, {"time": 848, "pitch": 70, "duration": 3, "velocity": 127}, {"time": 854, "pitch": 70, "duration": 2, "velocity": 122}, {"time": 856, "pitch": 69, "duration": 2, "velocity": 102}, {"time": 860, "pitch": 67, "duration": 2, "velocity": 96}, {"time": 862, "pitch": 65, "duration": 3, "velocity": 99}, {"time": 866, "pitch": 67, "duration": 4, "velocity": 117}, {"time": 872, "pitch": 67, "duration": 2, "velocity": 102}, {"time": 878, "pitch": 67, "duration": 4, "velocity": 122}, {"time": 886, "pitch": 69, "duration": 2, "velocity": 112}, {"time": 890, "pitch": 70, "duration": 3, "velocity": 127}, {"time": 896, "pitch": 70, "duration": 3, "velocity": 127}, {"time": 902, "pitch": 70, "duration": 2, "velocity": 127}, {"time": 904, "pitch": 69, "duration": 2, "velocity": 102}, {"time": 908, "pitch": 67, "duration": 1, "velocity": 99}, {"time": 910, "pitch": 72, "duration": 3, "velocity": 127}, {"time": 914, "pitch": 71, "duration": 5, "velocity": 117}, {"time": 920, "pitch": 69, "duration": 4, "velocity": 127}, {"time": 926, "pitch": 67, "duration": 6, "velocity": 117}, {"time": 944, "pitch": 74, "duration": 3, "velocity": 117}, {"time": 950, "pitch": 74, "duration": 4, "velocity": 127}, {"time": 956, "pitch": 71, "duration": 3, "velocity": 107}, {"time": 962, "pitch": 74, "duration": 2, "velocity": 122}, {"time": 964, "pitch": 71, "duration": 7, "velocity": 112}, {"time": 974, "pitch": 67, "duration": 4, "velocity": 100}, {"time": 980, "pitch": 69, "duration": 4, "velocity": 127}, {"time": 986, "pitch": 67, "duration": 2, "velocity": 112}, {"time": 988, "pitch": 69, "duration": 1, "velocity": 95}, {"time": 990, "pitch": 67, "duration": 24, "velocity": 102}, {"time": 1016, "pitch": 74, "duration": 3, "velocity": 127}, {"time": 1022, "pitch": 74, "duration": 3, "velocity": 117}, {"time": 1028, "pitch": 74, "duration": 2, "velocity": 127}, {"time": 1030, "pitch": 71, "duration": 4, "velocity": 107}, {"time": 1034, "pitch": 74, "duration": 4, "velocity": 127}, {"time": 1040, "pitch": 74, "duration": 4, "velocity": 127}, {"time": 1046, "pitch": 74, "duration": 4, "velocity": 127}, {"time": 1052, "pitch": 74, "duration": 3, "velocity": 122}, {"time": 1054, "pitch": 71, "duration": 4, "velocity": 99}, {"time": 1064, "pitch": 74, "duration": 3, "velocity": 117}, {"time": 1070, "pitch": 74, "duration": 3, "velocity": 127}, {"time": 1076, "pitch": 74, "duration": 2, "velocity": 107}, {"time": 1078, "pitch": 71, "duration": 4, "velocity": 100}, {"time": 1082, "pitch": 74, "duration": 4, "velocity": 127}, {"time": 1088, "pitch": 74, "duration": 3, "velocity": 122}, {"time": 1094, "pitch": 74, "duration": 4, "velocity": 127}, {"time": 1100, "pitch": 74, "duration": 2, "velocity": 97}, {"time": 1102, "pitch": 71, "duration": 4, "velocity": 112}, {"time": 1112, "pitch": 74, "duration": 3, "velocity": 107}, {"time": 1118, "pitch": 74, "duration": 3, "velocity": 112}, {"time": 1124, "pitch": 74, "duration": 2, "velocity": 112}, {"time": 1126, "pitch": 71, "duration": 3, "velocity": 100}, {"time": 1130, "pitch": 69, "duration": 3, "velocity": 100}, {"time": 1136, "pitch": 71, "duration": 4, "velocity": 122}, {"time": 1142, "pitch": 64, "duration": 4, "velocity": 117}, {"time": 1148, "pitch": 69, "duration": 5, "velocity": 127}, {"time": 1160, "pitch": 69, "duration": 3, "velocity": 127}, {"time": 1166, "pitch": 69, "duration": 3, "velocity": 127}, {"time": 1172, "pitch": 67, "duration": 4, "velocity": 112}, {"time": 1178, "pitch": 69, "duration": 3, "velocity": 127}, {"time": 1184, "pitch": 71, "duration": 4, "velocity": 122}, {"time": 1190, "pitch": 74, "duration": 3, "velocity": 127}, {"time": 1196, "pitch": 71, "duration": 6, "velocity": 127}, {"time": 1208, "pitch": 74, "duration": 3, "velocity": 127}, {"time": 1214, "pitch": 74, "duration": 3, "velocity": 122}, {"time": 1220, "pitch": 74, "duration": 2, "velocity": 127}, {"time": 1222, "pitch": 71, "duration": 4, "velocity": 107}, {"time": 1226, "pitch": 74, "duration": 4, "velocity": 127}, {"time": 1232, "pitch": 74, "duration": 3, "velocity": 127}, {"time": 1238, "pitch": 74, "duration": 4, "velocity": 127}, {"time": 1244, "pitch": 76, "duration": 5, "velocity": 127}, {"time": 1256, "pitch": 74, "duration": 3, "velocity": 122}, {"time": 1262, "pitch": 74, "duration": 4, "velocity": 127}, {"time": 1268, "pitch": 74, "duration": 2, "velocity": 122}, {"time": 1270, "pitch": 71, "duration": 4, "velocity": 96}, {"time": 1274, "pitch": 74, "duration": 3, "velocity": 127}, {"time": 1280, "pitch": 76, "duration": 5, "velocity": 102}, {"time": 1286, "pitch": 78, "duration": 4, "velocity": 100}, {"time": 1292, "pitch": 79, "duration": 10, "velocity": 107}, {"time": 1304, "pitch": 74, "duration": 4, "velocity": 102}, {"time": 1310, "pitch": 74, "duration": 3, "velocity": 99}, {"time": 1316, "pitch": 74, "duration": 2, "velocity": 107}, {"time": 1318, "pitch": 71, "duration": 3, "velocity": 99}, {"time": 1322, "pitch": 69, "duration": 4, "velocity": 107}, {"time": 1328, "pitch": 71, "duration": 3, "velocity": 122}, {"time": 1334, "pitch": 64, "duration": 4, "velocity": 102}, {"time": 1340, "pitch": 69, "duration": 6, "velocity": 127}, {"time": 1352, "pitch": 71, "duration": 4, "velocity": 127}, {"time": 1358, "pitch": 70, "duration": 5, "velocity": 122}, {"time": 1366, "pitch": 69, "duration": 7, "velocity": 127}, {"time": 1376, "pitch": 67, "duration": 30, "velocity": 127}, {"time": 1556, "pitch": 62, "duration": 3, "velocity": 107}, {"time": 1558, "pitch": 60, "duration": 3, "velocity": 71}, {"time": 1562, "pitch": 59, "duration": 6, "velocity": 88}, {"time": 1568, "pitch": 62, "duration": 5, "velocity": 96}, {"time": 1574, "pitch": 67, "duration": 4, "velocity": 102}, {"time": 1580, "pitch": 71, "duration": 2, "velocity": 95}, {"time": 1582, "pitch": 72, "duration": 5, "velocity": 107}, {"time": 1588, "pitch": 71, "duration": 11, "velocity": 112}, {"time": 1598, "pitch": 62, "duration": 4, "velocity": 102}, {"time": 1604, "pitch": 59, "duration": 1, "velocity": 88}, {"time": 1606, "pitch": 62, "duration": 4, "velocity": 97}, {"time": 1612, "pitch": 59, "duration": 15, "velocity": 95}, {"time": 1652, "pitch": 64, "duration": 2, "velocity": 107}, {"time": 1654, "pitch": 62, "duration": 3, "velocity": 69}, {"time": 1658, "pitch": 60, "duration": 5, "velocity": 92}, {"time": 1664, "pitch": 64, "duration": 4, "velocity": 93}, {"time": 1670, "pitch": 67, "duration": 3, "velocity": 102}, {"time": 1676, "pitch": 69, "duration": 2, "velocity": 99}, {"time": 1678, "pitch": 72, "duration": 4, "velocity": 107}, {"time": 1684, "pitch": 71, "duration": 7, "velocity": 107}, {"time": 1694, "pitch": 64, "duration": 5, "velocity": 112}, {"time": 1700, "pitch": 66, "duration": 2, "velocity": 95}, {"time": 1702, "pitch": 64, "duration": 6, "velocity": 93}, {"time": 1708, "pitch": 62, "duration": 20, "velocity": 95}, {"time": 1748, "pitch": 67, "duration": 1, "velocity": 99}, {"time": 1750, "pitch": 69, "duration": 2, "velocity": 102}, {"time": 1754, "pitch": 70, "duration": 3, "velocity": 127}, {"time": 1760, "pitch": 70, "duration": 3, "velocity": 127}, {"time": 1766, "pitch": 70, "duration": 2, "velocity": 122}, {"time": 1768, "pitch": 69, "duration": 2, "velocity": 102}, {"time": 1772, "pitch": 67, "duration": 2, "velocity": 96}, {"time": 1774, "pitch": 65, "duration": 3, "velocity": 99}, {"time": 1778, "pitch": 67, "duration": 4, "velocity": 117}, {"time": 1784, "pitch": 67, "duration": 2, "velocity": 102}, {"time": 1790, "pitch": 67, "duration": 4, "velocity": 122}, {"time": 1798, "pitch": 69, "duration": 2, "velocity": 112}, {"time": 1802, "pitch": 70, "duration": 3, "velocity": 127}, {"time": 1808, "pitch": 70, "duration": 3, "velocity": 127}, {"time": 1814, "pitch": 70, "duration": 2, "velocity": 127}, {"time": 1816, "pitch": 69, "duration": 2, "velocity": 102}, {"time": 1820, "pitch": 67, "duration": 1, "velocity": 99}, {"time": 1822, "pitch": 72, "duration": 3, "velocity": 127}, {"time": 1826, "pitch": 71, "duration": 5, "velocity": 117}, {"time": 1832, "pitch": 69, "duration": 4, "velocity": 127}, {"time": 1838, "pitch": 67, "duration": 6, "velocity": 117}, {"time": 1856, "pitch": 74, "duration": 3, "velocity": 117}, {"time": 1862, "pitch": 74, "duration": 4, "velocity": 127}, {"time": 1868, "pitch": 71, "duration": 3, "velocity": 107}, {"time": 1874, "pitch": 74, "duration": 2, "velocity": 122}, {"time": 1876, "pitch": 71, "duration": 7, "velocity": 112}, {"time": 1886, "pitch": 67, "duration": 4, "velocity": 100}, {"time": 1892, "pitch": 69, "duration": 4, "velocity": 127}, {"time": 1898, "pitch": 67, "duration": 2, "velocity": 112}, {"time": 1900, "pitch": 69, "duration": 1, "velocity": 95}, {"time": 1902, "pitch": 67, "duration": 24, "velocity": 102}, {"time": 1928, "pitch": 74, "duration": 3, "velocity": 127}, {"time": 1934, "pitch": 74, "duration": 3, "velocity": 117}, {"time": 1940, "pitch": 74, "duration": 2, "velocity": 127}, {"time": 1942, "pitch": 71, "duration": 4, "velocity": 107}, {"time": 1946, "pitch": 74, "duration": 4, "velocity": 127}, {"time": 1952, "pitch": 74, "duration": 4, "velocity": 127}, {"time": 1958, "pitch": 74, "duration": 4, "velocity": 127}, {"time": 1964, "pitch": 74, "duration": 3, "velocity": 122}, {"time": 1966, "pitch": 71, "duration": 4, "velocity": 99}, {"time": 1976, "pitch": 74, "duration": 3, "velocity": 117}, {"time": 1982, "pitch": 74, "duration": 3, "velocity": 127}, {"time": 1988, "pitch": 74, "duration": 2, "velocity": 107}, {"time": 1990, "pitch": 71, "duration": 4, "velocity": 100}, {"time": 1994, "pitch": 74, "duration": 4, "velocity": 127}, {"time": 2000, "pitch": 74, "duration": 3, "velocity": 122}, {"time": 2006, "pitch": 74, "duration": 4, "velocity": 127}, {"time": 2012, "pitch": 74, "duration": 2, "velocity": 97}, {"time": 2014, "pitch": 71, "duration": 4, "velocity": 112}, {"time": 2024, "pitch": 74, "duration": 3, "velocity": 107}, {"time": 2030, "pitch": 74, "duration": 3, "velocity": 112}, {"time": 2036, "pitch": 74, "duration": 2, "velocity": 112}, {"time": 2038, "pitch": 71, "duration": 3, "velocity": 100}, {"time": 2042, "pitch": 69, "duration": 3, "velocity": 100}, {"time": 2048, "pitch": 71, "duration": 4, "velocity": 122}, {"time": 2054, "pitch": 64, "duration": 4, "velocity": 117}, {"time": 2060, "pitch": 69, "duration": 5, "velocity": 127}, {"time": 2072, "pitch": 69, "duration": 3, "velocity": 127}, {"time": 2078, "pitch": 69, "duration": 3, "velocity": 127}, {"time": 2084, "pitch": 67, "duration": 4, "velocity": 112}, {"time": 2090, "pitch": 69, "duration": 3, "velocity": 127}, {"time": 2096, "pitch": 71, "duration": 4, "velocity": 122}, {"time": 2102, "pitch": 74, "duration": 3, "velocity": 127}, {"time": 2108, "pitch": 71, "duration": 6, "velocity": 127}, {"time": 2120, "pitch": 74, "duration": 3, "velocity": 127}, {"time": 2126, "pitch": 74, "duration": 3, "velocity": 122}, {"time": 2132, "pitch": 74, "duration": 2, "velocity": 127}, {"time": 2134, "pitch": 71, "duration": 4, "velocity": 107}, {"time": 2138, "pitch": 74, "duration": 4, "velocity": 127}, {"time": 2144, "pitch": 74, "duration": 3, "velocity": 127}, {"time": 2150, "pitch": 74, "duration": 4, "velocity": 127}, {"time": 2156, "pitch": 76, "duration": 5, "velocity": 127}, {"time": 2168, "pitch": 74, "duration": 3, "velocity": 122}, {"time": 2174, "pitch": 74, "duration": 4, "velocity": 127}, {"time": 2180, "pitch": 74, "duration": 2, "velocity": 122}, {"time": 2182, "pitch": 71, "duration": 4, "velocity": 96}, {"time": 2186, "pitch": 74, "duration": 3, "velocity": 127}, {"time": 2192, "pitch": 76, "duration": 5, "velocity": 102}, {"time": 2198, "pitch": 78, "duration": 4, "velocity": 100}, {"time": 2204, "pitch": 79, "duration": 10, "velocity": 107}, {"time": 2216, "pitch": 74, "duration": 4, "velocity": 102}, {"time": 2222, "pitch": 74, "duration": 3, "velocity": 99}, {"time": 2228, "pitch": 74, "duration": 2, "velocity": 107}, {"time": 2230, "pitch": 71, "duration": 3, "velocity": 99}, {"time": 2234, "pitch": 69, "duration": 4, "velocity": 107}, {"time": 2240, "pitch": 71, "duration": 3, "velocity": 122}, {"time": 2246, "pitch": 64, "duration": 4, "velocity": 102}, {"time": 2252, "pitch": 69, "duration": 6, "velocity": 127}, {"time": 2264, "pitch": 71, "duration": 4, "velocity": 127}, {"time": 2270, "pitch": 70, "duration": 5, "velocity": 122}, {"time": 2278, "pitch": 69, "duration": 7, "velocity": 127}, {"time": 2288, "pitch": 67, "duration": 30, "velocity": 127}, {"time": 2360, "pitch": 71, "duration": 4, "velocity": 127}, {"time": 2366, "pitch": 70, "duration": 7, "velocity": 127}, {"time": 2374, "pitch": 69, "duration": 8, "velocity": 127}, {"time": 2384, "pitch": 67, "duration": 36, "velocity": 127}, {"time": 2456, "pitch": 77, "duration": 4, "velocity": 127}, {"time": 2462, "pitch": 71, "duration": 6, "velocity": 127}, {"time": 2470, "pitch": 69, "duration": 5, "velocity": 122}, {"time": 2480, "pitch": 67, "duration": 20, "velocity": 127}, {"time": 2618, "pitch": 74, "duration": 5, "velocity": 112}, {"time": 2624, "pitch": 76, "duration": 3, "velocity": 117}, {"time": 2630, "pitch": 78, "duration": 3, "velocity": 117}, {"time": 2634, "pitch": 79, "duration": 3, "velocity": 112}, {"time": 2638, "pitch": 79, "duration": 2, "velocity": 112}, {"time": 2642, "pitch": 79, "duration": 12, "velocity": 127}, {"time": 2666, "pitch": 68, "duration": 2, "velocity": 127}, {"time": 2672, "pitch": 68, "duration": 2, "velocity": 127}, {"time": 2678, "pitch": 68, "duration": 2, "velocity": 127}, {"time": 2684, "pitch": 68, "duration": 4, "velocity": 127}, {"time": 2696, "pitch": 75, "duration": 3, "velocity": 127}, {"time": 2702, "pitch": 75, "duration": 3, "velocity": 117}, {"time": 2708, "pitch": 75, "duration": 2, "velocity": 127}, {"time": 2710, "pitch": 72, "duration": 4, "velocity": 107}, {"time": 2714, "pitch": 75, "duration": 4, "velocity": 127}, {"time": 2720, "pitch": 75, "duration": 4, "velocity": 127}, {"time": 2726, "pitch": 75, "duration": 4, "velocity": 127}, {"time": 2732, "pitch": 75, "duration": 3, "velocity": 122}, {"time": 2734, "pitch": 72, "duration": 4, "velocity": 99}, {"time": 2744, "pitch": 75, "duration": 3, "velocity": 117}, {"time": 2750, "pitch": 75, "duration": 3, "velocity": 127}, {"time": 2756, "pitch": 75, "duration": 2, "velocity": 107}, {"time": 2758, "pitch": 72, "duration": 4, "velocity": 100}, {"time": 2762, "pitch": 75, "duration": 4, "velocity": 127}, {"time": 2768, "pitch": 75, "duration": 3, "velocity": 122}, {"time": 2774, "pitch": 75, "duration": 4, "velocity": 127}, {"time": 2780, "pitch": 75, "duration": 2, "velocity": 97}, {"time": 2782, "pitch": 72, "duration": 4, "velocity": 112}, {"time": 2792, "pitch": 75, "duration": 3, "velocity": 107}, {"time": 2798, "pitch": 75, "duration": 3, "velocity": 112}, {"time": 2804, "pitch": 75, "duration": 2, "velocity": 112}, {"time": 2806, "pitch": 72, "duration": 3, "velocity": 100}, {"time": 2810, "pitch": 70, "duration": 3, "velocity": 100}, {"time": 2816, "pitch": 72, "duration": 4, "velocity": 122}, {"time": 2822, "pitch": 65, "duration": 4, "velocity": 117}, {"time": 2828, "pitch": 70, "duration": 5, "velocity": 127}, {"time": 2840, "pitch": 70, "duration": 3, "velocity": 127}, {"time": 2846, "pitch": 70, "duration": 3, "velocity": 127}, {"time": 2852, "pitch": 68, "duration": 4, "velocity": 112}, {"time": 2858, "pitch": 70, "duration": 3, "velocity": 127}, {"time": 2864, "pitch": 72, "duration": 4, "velocity": 122}, {"time": 2870, "pitch": 75, "duration": 3, "velocity": 127}, {"time": 2876, "pitch": 72, "duration": 6, "velocity": 127}, {"time": 2888, "pitch": 75, "duration": 3, "velocity": 127}, {"time": 2894, "pitch": 75, "duration": 3, "velocity": 122}, {"time": 2900, "pitch": 75, "duration": 2, "velocity": 127}, {"time": 2902, "pitch": 72, "duration": 4, "velocity": 107}, {"time": 2906, "pitch": 75, "duration": 4, "velocity": 127}, {"time": 2912, "pitch": 75, "duration": 3, "velocity": 127}, {"time": 2918, "pitch": 75, "duration": 4, "velocity": 127}, {"time": 2924, "pitch": 77, "duration": 5, "velocity": 127}, {"time": 2936, "pitch": 80, "duration": 3, "velocity": 127}, {"time": 2942, "pitch": 80, "duration": 3, "velocity": 127}, {"time": 2948, "pitch": 76, "duration": 4, "velocity": 122}, {"time": 2954, "pitch": 75, "duration": 3, "velocity": 127}, {"time": 2960, "pitch": 77, "duration": 4, "velocity": 107}, {"time": 2966, "pitch": 79, "duration": 3, "velocity": 117}, {"time": 2972, "pitch": 80, "duration": 52, "velocity": 127}, {"time": 3032, "pitch": 75, "duration": 4, "velocity": 127}, {"time": 3038, "pitch": 75, "duration": 3, "velocity": 122}, {"time": 3044, "pitch": 75, "duration": 3, "velocity": 127}, {"time": 3046, "pitch": 72, "duration": 4, "velocity": 92}, {"time": 3050, "pitch": 70, "duration": 6, "velocity": 112}, {"time": 3056, "pitch": 72, "duration": 5, "velocity": 102}, {"time": 3062, "pitch": 65, "duration": 6, "velocity": 93}, {"time": 3068, "pitch": 70, "duration": 11, "velocity": 97}, {"time": 3080, "pitch": 72, "duration": 4, "velocity": 112}, {"time": 3086, "pitch": 71, "duration": 7, "velocity": 97}, {"time": 3094, "pitch": 70, "duration": 9, "velocity": 112}, {"time": 3104, "pitch": 68, "duration": 35, "velocity": 99}]}, {"program": 0, "is_drum": false, "name": "PIANO", "notes": [{"time": 26, "pitch": 43, "duration": 16, "velocity": 90}, {"time": 26, "pitch": 55, "duration": 8, "velocity": 86}, {"time": 26, "pitch": 59, "duration": 8, "velocity": 93}, {"time": 26, "pitch": 62, "duration": 8, "velocity": 85}, {"time": 38, "pitch": 55, "duration": 9, "velocity": 89}, {"time": 38, "pitch": 59, "duration": 9, "velocity": 86}, {"time": 38, "pitch": 62, "duration": 10, "velocity": 82}, {"time": 44, "pitch": 43, "duration": 5, "velocity": 67}, {"time": 50, "pitch": 42, "duration": 16, "velocity": 59}, {"time": 50, "pitch": 55, "duration": 10, "velocity": 89}, {"time": 50, "pitch": 59, "duration": 10, "velocity": 89}, {"time": 50, "pitch": 62, "duration": 10, "velocity": 83}, {"time": 62, "pitch": 55, "duration": 9, "velocity": 89}, {"time": 62, "pitch": 59, "duration": 10, "velocity": 89}, {"time": 62, "pitch": 62, "duration": 9, "velocity": 92}, {"time": 68, "pitch": 42, "duration": 5, "velocity": 50}, {"time": 74, "pitch": 41, "duration": 16, "velocity": 50}, {"time": 74, "pitch": 55, "duration": 10, "velocity": 96}, {"time": 74, "pitch": 59, "duration": 10, "velocity": 95}, {"time": 74, "pitch": 62, "duration": 10, "velocity": 97}, {"time": 86, "pitch": 55, "duration": 10, "velocity": 97}, {"time": 86, "pitch": 59, "duration": 10, "velocity": 96}, {"time": 86, "pitch": 62, "duration": 10, "velocity": 96}, {"time": 92, "pitch": 41, "duration": 5, "velocity": 67}, {"time": 98, "pitch": 40, "duration": 16, "velocity": 74}, {"time": 98, "pitch": 55, "duration": 10, "velocity": 95}, {"time": 98, "pitch": 59, "duration": 10, "velocity": 93}, {"time": 98, "pitch": 62, "duration": 10, "velocity": 86}, {"time": 110, "pitch": 55, "duration": 11, "velocity": 93}, {"time": 110, "pitch": 59, "duration": 11, "velocity": 95}, {"time": 110, "pitch": 62, "duration": 11, "velocity": 92}, {"time": 116, "pitch": 40, "duration": 6, "velocity": 62}, {"time": 122, "pitch": 55, "duration": 10, "velocity": 69}, {"time": 122, "pitch": 39, "duration": 11, "velocity": 97}, {"time": 122, "pitch": 63, "duration": 10, "velocity": 97}, {"time": 122, "pitch": 60, "duration": 11, "velocity": 79}, {"time": 133, "pitch": 60, "duration": 11, "velocity": 65}, {"time": 133, "pitch": 63, "duration": 12, "velocity": 97}, {"time": 134, "pitch": 48, "duration": 11, "velocity": 64}, {"time": 134, "pitch": 55, "duration": 11, "velocity": 59}, {"time": 146, "pitch": 50, "duration": 23, "velocity": 47}, {"time": 146, "pitch": 57, "duration": 24, "velocity": 69}, {"time": 146, "pitch": 64, "duration": 23, "velocity": 74}, {"time": 170, "pitch": 43, "duration": 36, "velocity": 52}, {"time": 170, "pitch": 50, "duration": 36, "velocity": 58}, {"time": 170, "pitch": 55, "duration": 36, "velocity": 73}, {"time": 170, "pitch": 62, "duration": 10, "velocity": 86}, {"time": 170, "pitch": 67, "duration": 9, "velocity": 89}, {"time": 170, "pitch": 71, "duration": 7, "velocity": 81}, {"time": 182, "pitch": 62, "duration": 10, "velocity": 92}, {"time": 182, "pitch": 67, "duration": 10, "velocity": 97}, {"time": 182, "pitch": 71, "duration": 10, "velocity": 88}, {"time": 194, "pitch": 62, "duration": 10, "velocity": 90}, {"time": 194, "pitch": 67, "duration": 10, "velocity": 93}, {"time": 194, "pitch": 71, "duration": 8, "velocity": 78}, {"time": 218, "pitch": 55, "duration": 11, "velocity": 72}, {"time": 218, "pitch": 59, "duration": 11, "velocity": 76}, {"time": 218, "pitch": 62, "duration": 11, "velocity": 72}, {"time": 230, "pitch": 55, "duration": 7, "velocity": 69}, {"time": 230, "pitch": 59, "duration": 7, "velocity": 73}, {"time": 230, "pitch": 62, "duration": 7, "velocity": 68}, {"time": 236, "pitch": 50, "duration": 6, "velocity": 68}, {"time": 242, "pitch": 55, "duration": 21, "velocity": 68}, {"time": 242, "pitch": 59, "duration": 21, "velocity": 66}, {"time": 242, "pitch": 62, "duration": 21, "velocity": 65}, {"time": 266, "pitch": 43, "duration": 20, "velocity": 72}, {"time": 266, "pitch": 62, "duration": 10, "velocity": 93}, {"time": 266, "pitch": 67, "duration": 7, "velocity": 90}, {"time": 266, "pitch": 71, "duration": 10, "velocity": 82}, {"time": 272, "pitch": 50, "duration": 14, "velocity": 43}, {"time": 278, "pitch": 62, "duration": 10, "velocity": 97}, {"time": 278, "pitch": 67, "duration": 10, "velocity": 102}, {"time": 278, "pitch": 71, "duration": 10, "velocity": 99}, {"time": 284, "pitch": 55, "duration": 3, "velocity": 38}, {"time": 290, "pitch": 42, "duration": 16, "velocity": 56}, {"time": 290, "pitch": 62, "duration": 10, "velocity": 92}, {"time": 290, "pitch": 67, "duration": 10, "velocity": 93}, {"time": 290, "pitch": 71, "duration": 10, "velocity": 88}, {"time": 302, "pitch": 62, "duration": 10, "velocity": 86}, {"time": 302, "pitch": 67, "duration": 7, "velocity": 97}, {"time": 302, "pitch": 71, "duration": 10, "velocity": 95}, {"time": 314, "pitch": 40, "duration": 43, "velocity": 75}, {"time": 314, "pitch": 64, "duration": 10, "velocity": 93}, {"time": 314, "pitch": 67, "duration": 10, "velocity": 90}, {"time": 314, "pitch": 71, "duration": 10, "velocity": 88}, {"time": 326, "pitch": 64, "duration": 6, "velocity": 92}, {"time": 326, "pitch": 67, "duration": 6, "velocity": 97}, {"time": 326, "pitch": 71, "duration": 6, "velocity": 90}, {"time": 332, "pitch": 47, "duration": 21, "velocity": 39}, {"time": 338, "pitch": 64, "duration": 10, "velocity": 88}, {"time": 338, "pitch": 67, "duration": 10, "velocity": 86}, {"time": 338, "pitch": 71, "duration": 7, "velocity": 83}, {"time": 344, "pitch": 52, "duration": 7, "velocity": 39}, {"time": 346, "pitch": 71, "duration": 1, "velocity": 28}, {"time": 350, "pitch": 64, "duration": 8, "velocity": 95}, {"time": 350, "pitch": 67, "duration": 6, "velocity": 112}, {"time": 350, "pitch": 71, "duration": 6, "velocity": 100}, {"time": 356, "pitch": 47, "duration": 1, "velocity": 88}, {"time": 362, "pitch": 36, "duration": 22, "velocity": 74}, {"time": 362, "pitch": 60, "duration": 10, "velocity": 107}, {"time": 362, "pitch": 64, "duration": 10, "velocity": 99}, {"time": 362, "pitch": 67, "duration": 10, "velocity": 96}, {"time": 368, "pitch": 43, "duration": 18, "velocity": 41}, {"time": 374, "pitch": 64, "duration": 7, "velocity": 112}, {"time": 374, "pitch": 67, "duration": 10, "velocity": 112}, {"time": 380, "pitch": 48, "duration": 3, "velocity": 42}, {"time": 386, "pitch": 36, "duration": 19, "velocity": 72}, {"time": 386, "pitch": 60, "duration": 10, "velocity": 99}, {"time": 386, "pitch": 63, "duration": 10, "velocity": 100}, {"time": 386, "pitch": 67, "duration": 10, "velocity": 77}, {"time": 392, "pitch": 48, "duration": 7, "velocity": 45}, {"time": 398, "pitch": 60, "duration": 3, "velocity": 93}, {"time": 398, "pitch": 63, "duration": 6, "velocity": 127}, {"time": 398, "pitch": 67, "duration": 7, "velocity": 96}, {"time": 400, "pitch": 48, "duration": 3, "velocity": 83}, {"time": 404, "pitch": 60, "duration": 5, "velocity": 83}, {"time": 410, "pitch": 38, "duration": 40, "velocity": 71}, {"time": 410, "pitch": 62, "duration": 10, "velocity": 86}, {"time": 416, "pitch": 45, "duration": 34, "velocity": 51}, {"time": 422, "pitch": 57, "duration": 10, "velocity": 85}, {"time": 422, "pitch": 62, "duration": 10, "velocity": 99}, {"time": 422, "pitch": 66, "duration": 9, "velocity": 97}, {"time": 428, "pitch": 50, "duration": 9, "velocity": 51}, {"time": 434, "pitch": 57, "duration": 10, "velocity": 77}, {"time": 434, "pitch": 62, "duration": 10, "velocity": 95}, {"time": 434, "pitch": 66, "duration": 7, "velocity": 89}, {"time": 440, "pitch": 50, "duration": 6, "velocity": 61}, {"time": 446, "pitch": 62, "duration": 6, "velocity": 122}, {"time": 446, "pitch": 66, "duration": 6, "velocity": 127}, {"time": 448, "pitch": 50, "duration": 3, "velocity": 88}, {"time": 452, "pitch": 57, "duration": 1, "velocity": 96}, {"time": 458, "pitch": 39, "duration": 15, "velocity": 100}, {"time": 458, "pitch": 63, "duration": 10, "velocity": 112}, {"time": 458, "pitch": 67, "duration": 7, "velocity": 117}, {"time": 458, "pitch": 70, "duration": 8, "velocity": 96}, {"time": 464, "pitch": 51, "duration": 6, "velocity": 56}, {"time": 470, "pitch": 63, "duration": 2, "velocity": 99}, {"time": 470, "pitch": 67, "duration": 5, "velocity": 102}, {"time": 470, "pitch": 70, "duration": 5, "velocity": 112}, {"time": 472, "pitch": 51, "duration": 2, "velocity": 73}, {"time": 476, "pitch": 63, "duration": 1, "velocity": 76}, {"time": 482, "pitch": 38, "duration": 23, "velocity": 73}, {"time": 482, "pitch": 59, "duration": 6, "velocity": 96}, {"time": 482, "pitch": 62, "duration": 6, "velocity": 100}, {"time": 482, "pitch": 66, "duration": 6, "velocity": 112}, {"time": 494, "pitch": 50, "duration": 11, "velocity": 46}, {"time": 494, "pitch": 59, "duration": 11, "velocity": 93}, {"time": 494, "pitch": 62, "duration": 11, "velocity": 107}, {"time": 494, "pitch": 66, "duration": 11, "velocity": 117}, {"time": 506, "pitch": 39, "duration": 17, "velocity": 73}, {"time": 506, "pitch": 63, "duration": 6, "velocity": 107}, {"time": 506, "pitch": 67, "duration": 5, "velocity": 102}, {"time": 506, "pitch": 70, "duration": 5, "velocity": 100}, {"time": 512, "pitch": 51, "duration": 7, "velocity": 36}, {"time": 518, "pitch": 63, "duration": 5, "velocity": 112}, {"time": 518, "pitch": 67, "duration": 4, "velocity": 127}, {"time": 518, "pitch": 70, "duration": 5, "velocity": 122}, {"time": 524, "pitch": 51, "duration": 1, "velocity": 50}, {"time": 530, "pitch": 40, "duration": 17, "velocity": 61}, {"time": 530, "pitch": 52, "duration": 15, "velocity": 59}, {"time": 530, "pitch": 59, "duration": 10, "velocity": 93}, {"time": 530, "pitch": 64, "duration": 10, "velocity": 99}, {"time": 530, "pitch": 67, "duration": 10, "velocity": 90}, {"time": 542, "pitch": 59, "duration": 8, "velocity": 90}, {"time": 542, "pitch": 64, "duration": 6, "velocity": 97}, {"time": 542, "pitch": 67, "duration": 6, "velocity": 85}, {"time": 548, "pitch": 52, "duration": 3, "velocity": 55}, {"time": 554, "pitch": 45, "duration": 14, "velocity": 82}, {"time": 554, "pitch": 60, "duration": 6, "velocity": 96}, {"time": 554, "pitch": 64, "duration": 7, "velocity": 95}, {"time": 560, "pitch": 52, "duration": 7, "velocity": 55}, {"time": 566, "pitch": 60, "duration": 9, "velocity": 95}, {"time": 566, "pitch": 64, "duration": 6, "velocity": 90}, {"time": 572, "pitch": 57, "duration": 4, "velocity": 59}, {"time": 578, "pitch": 38, "duration": 14, "velocity": 74}, {"time": 578, "pitch": 57, "duration": 11, "velocity": 99}, {"time": 578, "pitch": 62, "duration": 11, "velocity": 99}, {"time": 578, "pitch": 66, "duration": 11, "velocity": 100}, {"time": 590, "pitch": 57, "duration": 1, "velocity": 47}, {"time": 590, "pitch": 62, "duration": 9, "velocity": 83}, {"time": 590, "pitch": 66, "duration": 9, "velocity": 83}, {"time": 596, "pitch": 57, "duration": 3, "velocity": 56}, {"time": 602, "pitch": 43, "duration": 44, "velocity": 74}, {"time": 602, "pitch": 62, "duration": 10, "velocity": 90}, {"time": 602, "pitch": 67, "duration": 10, "velocity": 85}, {"time": 602, "pitch": 71, "duration": 10, "velocity": 77}, {"time": 608, "pitch": 50, "duration": 33, "velocity": 53}, {"time": 614, "pitch": 62, "duration": 10, "velocity": 85}, {"time": 614, "pitch": 67, "duration": 7, "velocity": 88}, {"time": 614, "pitch": 71, "duration": 10, "velocity": 72}, {"time": 620, "pitch": 55, "duration": 9, "velocity": 64}, {"time": 622, "pitch": 67, "duration": 1, "velocity": 30}, {"time": 626, "pitch": 62, "duration": 10, "velocity": 97}, {"time": 626, "pitch": 67, "duration": 7, "velocity": 100}, {"time": 626, "pitch": 71, "duration": 9, "velocity": 93}, {"time": 632, "pitch": 55, "duration": 7, "velocity": 74}, {"time": 638, "pitch": 62, "duration": 9, "velocity": 102}, {"time": 638, "pitch": 67, "duration": 10, "velocity": 127}, {"time": 638, "pitch": 71, "duration": 10, "velocity": 122}, {"time": 644, "pitch": 50, "duration": 4, "velocity": 31}, {"time": 650, "pitch": 43, "duration": 17, "velocity": 82}, {"time": 650, "pitch": 59, "duration": 12, "velocity": 99}, {"time": 650, "pitch": 62, "duration": 12, "velocity": 99}, {"time": 656, "pitch": 50, "duration": 12, "velocity": 41}, {"time": 662, "pitch": 55, "duration": 5, "velocity": 93}, {"time": 662, "pitch": 66, "duration": 10, "velocity": 122}, {"time": 668, "pitch": 59, "duration": 20, "velocity": 90}, {"time": 674, "pitch": 42, "duration": 17, "velocity": 93}, {"time": 674, "pitch": 66, "duration": 10, "velocity": 100}, {"time": 680, "pitch": 54, "duration": 7, "velocity": 48}, {"time": 686, "pitch": 66, "duration": 6, "velocity": 122}, {"time": 692, "pitch": 62, "duration": 6, "velocity": 97}, {"time": 698, "pitch": 40, "duration": 41, "velocity": 72}, {"time": 698, "pitch": 59, "duration": 25, "velocity": 44}, {"time": 698, "pitch": 64, "duration": 6, "velocity": 97}, {"time": 704, "pitch": 47, "duration": 8, "velocity": 76}, {"time": 710, "pitch": 52, "duration": 7, "velocity": 68}, {"time": 710, "pitch": 67, "duration": 19, "velocity": 93}, {"time": 716, "pitch": 47, "duration": 7, "velocity": 52}, {"time": 722, "pitch": 52, "duration": 7, "velocity": 73}, {"time": 722, "pitch": 64, "duration": 7, "velocity": 89}, {"time": 728, "pitch": 47, "duration": 11, "velocity": 59}, {"time": 728, "pitch": 59, "duration": 6, "velocity": 83}, {"time": 734, "pitch": 52, "duration": 3, "velocity": 93}, {"time": 734, "pitch": 64, "duration": 7, "velocity": 107}, {"time": 734, "pitch": 67, "duration": 7, "velocity": 107}, {"time": 740, "pitch": 59, "duration": 4, "velocity": 99}, {"time": 746, "pitch": 36, "duration": 21, "velocity": 90}, {"time": 746, "pitch": 60, "duration": 13, "velocity": 95}, {"time": 746, "pitch": 64, "duration": 10, "velocity": 90}, {"time": 746, "pitch": 67, "duration": 9, "velocity": 88}, {"time": 752, "pitch": 43, "duration": 7, "velocity": 50}, {"time": 758, "pitch": 48, "duration": 6, "velocity": 86}, {"time": 758, "pitch": 67, "duration": 10, "velocity": 107}, {"time": 764, "pitch": 43, "duration": 6, "velocity": 62}, {"time": 770, "pitch": 36, "duration": 22, "velocity": 74}, {"time": 770, "pitch": 63, "duration": 10, "velocity": 117}, {"time": 770, "pitch": 67, "duration": 10, "velocity": 90}, {"time": 776, "pitch": 43, "duration": 9, "velocity": 49}, {"time": 782, "pitch": 48, "duration": 5, "velocity": 83}, {"time": 782, "pitch": 63, "duration": 6, "velocity": 107}, {"time": 782, "pitch": 67, "duration": 6, "velocity": 92}, {"time": 788, "pitch": 43, "duration": 6, "velocity": 66}, {"time": 788, "pitch": 60, "duration": 5, "velocity": 76}, {"time": 794, "pitch": 38, "duration": 21, "velocity": 83}, {"time": 794, "pitch": 62, "duration": 11, "velocity": 95}, {"time": 800, "pitch": 45, "duration": 7, "velocity": 41}, {"time": 806, "pitch": 50, "duration": 6, "velocity": 85}, {"time": 806, "pitch": 62, "duration": 22, "velocity": 96}, {"time": 806, "pitch": 66, "duration": 13, "velocity": 117}, {"time": 812, "pitch": 45, "duration": 6, "velocity": 71}, {"time": 818, "pitch": 38, "duration": 15, "velocity": 90}, {"time": 818, "pitch": 57, "duration": 12, "velocity": 112}, {"time": 820, "pitch": 66, "duration": 4, "velocity": 20}, {"time": 824, "pitch": 45, "duration": 10, "velocity": 82}, {"time": 830, "pitch": 50, "duration": 4, "velocity": 100}, {"time": 830, "pitch": 66, "duration": 11, "velocity": 127}, {"time": 832, "pitch": 62, "duration": 9, "velocity": 79}, {"time": 836, "pitch": 57, "duration": 6, "velocity": 97}, {"time": 842, "pitch": 39, "duration": 17, "velocity": 100}, {"time": 848, "pitch": 46, "duration": 10, "velocity": 28}, {"time": 854, "pitch": 51, "duration": 6, "velocity": 70}, {"time": 854, "pitch": 58, "duration": 7, "velocity": 117}, {"time": 854, "pitch": 63, "duration": 8, "velocity": 112}, {"time": 860, "pitch": 55, "duration": 4, "velocity": 88}, {"time": 866, "pitch": 38, "duration": 18, "velocity": 70}, {"time": 866, "pitch": 62, "duration": 6, "velocity": 112}, {"time": 866, "pitch": 66, "duration": 6, "velocity": 117}, {"time": 872, "pitch": 59, "duration": 6, "velocity": 73}, {"time": 878, "pitch": 50, "duration": 8, "velocity": 52}, {"time": 878, "pitch": 62, "duration": 12, "velocity": 66}, {"time": 878, "pitch": 66, "duration": 12, "velocity": 122}, {"time": 884, "pitch": 59, "duration": 6, "velocity": 90}, {"time": 890, "pitch": 39, "duration": 16, "velocity": 97}, {"time": 896, "pitch": 51, "duration": 7, "velocity": 66}, {"time": 902, "pitch": 58, "duration": 6, "velocity": 127}, {"time": 902, "pitch": 63, "duration": 5, "velocity": 112}, {"time": 904, "pitch": 51, "duration": 2, "velocity": 52}, {"time": 908, "pitch": 55, "duration": 1, "velocity": 73}, {"time": 914, "pitch": 40, "duration": 18, "velocity": 72}, {"time": 914, "pitch": 59, "duration": 10, "velocity": 95}, {"time": 914, "pitch": 64, "duration": 10, "velocity": 95}, {"time": 914, "pitch": 67, "duration": 10, "velocity": 89}, {"time": 920, "pitch": 47, "duration": 8, "velocity": 42}, {"time": 926, "pitch": 52, "duration": 5, "velocity": 81}, {"time": 926, "pitch": 64, "duration": 9, "velocity": 97}, {"time": 926, "pitch": 67, "duration": 9, "velocity": 92}, {"time": 932, "pitch": 47, "duration": 1, "velocity": 75}, {"time": 932, "pitch": 59, "duration": 5, "velocity": 86}, {"time": 938, "pitch": 45, "duration": 16, "velocity": 95}, {"time": 938, "pitch": 60, "duration": 7, "velocity": 99}, {"time": 938, "pitch": 64, "duration": 7, "velocity": 97}, {"time": 944, "pitch": 52, "duration": 8, "velocity": 90}, {"time": 950, "pitch": 64, "duration": 7, "velocity": 112}, {"time": 956, "pitch": 60, "duration": 5, "velocity": 100}, {"time": 962, "pitch": 38, "duration": 16, "velocity": 72}, {"time": 962, "pitch": 57, "duration": 10, "velocity": 78}, {"time": 962, "pitch": 62, "duration": 10, "velocity": 100}, {"time": 962, "pitch": 66, "duration": 10, "velocity": 112}, {"time": 968, "pitch": 45, "duration": 11, "velocity": 62}, {"time": 974, "pitch": 50, "duration": 7, "velocity": 85}, {"time": 974, "pitch": 62, "duration": 6, "velocity": 97}, {"time": 974, "pitch": 66, "duration": 5, "velocity": 122}, {"time": 980, "pitch": 57, "duration": 5, "velocity": 97}, {"time": 986, "pitch": 43, "duration": 22, "velocity": 82}, {"time": 986, "pitch": 59, "duration": 4, "velocity": 112}, {"time": 986, "pitch": 62, "duration": 4, "velocity": 100}, {"time": 992, "pitch": 50, "duration": 7, "velocity": 72}, {"time": 998, "pitch": 55, "duration": 5, "velocity": 99}, {"time": 998, "pitch": 62, "duration": 4, "velocity": 97}, {"time": 998, "pitch": 67, "duration": 10, "velocity": 122}, {"time": 998, "pitch": 71, "duration": 10, "velocity": 127}, {"time": 1004, "pitch": 50, "duration": 5, "velocity": 97}, {"time": 1004, "pitch": 62, "duration": 1, "velocity": 78}, {"time": 1006, "pitch": 62, "duration": 2, "velocity": 89}, {"time": 1010, "pitch": 43, "duration": 18, "velocity": 95}, {"time": 1010, "pitch": 62, "duration": 7, "velocity": 112}, {"time": 1010, "pitch": 65, "duration": 7, "velocity": 122}, {"time": 1010, "pitch": 67, "duration": 11, "velocity": 122}, {"time": 1010, "pitch": 71, "duration": 22, "velocity": 127}, {"time": 1012, "pitch": 50, "duration": 11, "velocity": 99}, {"time": 1016, "pitch": 55, "duration": 3, "velocity": 122}, {"time": 1018, "pitch": 62, "duration": 5, "velocity": 102}, {"time": 1022, "pitch": 65, "duration": 6, "velocity": 127}, {"time": 1022, "pitch": 67, "duration": 11, "velocity": 46}, {"time": 1024, "pitch": 50, "duration": 4, "velocity": 112}, {"time": 1028, "pitch": 62, "duration": 5, "velocity": 117}, {"time": 1030, "pitch": 65, "duration": 3, "velocity": 122}, {"time": 1034, "pitch": 36, "duration": 20, "velocity": 83}, {"time": 1036, "pitch": 43, "duration": 21, "velocity": 68}, {"time": 1040, "pitch": 48, "duration": 6, "velocity": 102}, {"time": 1042, "pitch": 60, "duration": 5, "velocity": 89}, {"time": 1046, "pitch": 67, "duration": 11, "velocity": 127}, {"time": 1048, "pitch": 48, "duration": 3, "velocity": 100}, {"time": 1052, "pitch": 64, "duration": 6, "velocity": 127}, {"time": 1054, "pitch": 60, "duration": 4, "velocity": 112}, {"time": 1058, "pitch": 36, "duration": 16, "velocity": 81}, {"time": 1060, "pitch": 43, "duration": 14, "velocity": 88}, {"time": 1064, "pitch": 48, "duration": 7, "velocity": 102}, {"time": 1066, "pitch": 55, "duration": 6, "velocity": 100}, {"time": 1070, "pitch": 64, "duration": 11, "velocity": 122}, {"time": 1072, "pitch": 48, "duration": 4, "velocity": 93}, {"time": 1076, "pitch": 60, "duration": 5, "velocity": 112}, {"time": 1078, "pitch": 55, "duration": 4, "velocity": 95}, {"time": 1082, "pitch": 47, "duration": 18, "velocity": 85}, {"time": 1084, "pitch": 54, "duration": 11, "velocity": 90}, {"time": 1088, "pitch": 59, "duration": 2, "velocity": 95}, {"time": 1090, "pitch": 62, "duration": 4, "velocity": 99}, {"time": 1094, "pitch": 66, "duration": 8, "velocity": 127}, {"time": 1096, "pitch": 54, "duration": 3, "velocity": 99}, {"time": 1100, "pitch": 62, "duration": 3, "velocity": 127}, {"time": 1102, "pitch": 59, "duration": 6, "velocity": 95}, {"time": 1106, "pitch": 40, "duration": 18, "velocity": 95}, {"time": 1108, "pitch": 47, "duration": 16, "velocity": 88}, {"time": 1112, "pitch": 52, "duration": 7, "velocity": 95}, {"time": 1114, "pitch": 59, "duration": 5, "velocity": 83}, {"time": 1118, "pitch": 67, "duration": 11, "velocity": 117}, {"time": 1120, "pitch": 52, "duration": 6, "velocity": 95}, {"time": 1124, "pitch": 64, "duration": 6, "velocity": 127}, {"time": 1126, "pitch": 59, "duration": 4, "velocity": 107}, {"time": 1130, "pitch": 45, "duration": 18, "velocity": 93}, {"time": 1132, "pitch": 52, "duration": 11, "velocity": 88}, {"time": 1136, "pitch": 57, "duration": 3, "velocity": 99}, {"time": 1138, "pitch": 60, "duration": 5, "velocity": 96}, {"time": 1142, "pitch": 69, "duration": 10, "velocity": 127}, {"time": 1144, "pitch": 52, "duration": 3, "velocity": 93}, {"time": 1148, "pitch": 64, "duration": 4, "velocity": 102}, {"time": 1150, "pitch": 60, "duration": 3, "velocity": 107}, {"time": 1154, "pitch": 38, "duration": 18, "velocity": 90}, {"time": 1156, "pitch": 45, "duration": 16, "velocity": 107}, {"time": 1160, "pitch": 50, "duration": 6, "velocity": 107}, {"time": 1162, "pitch": 57, "duration": 7, "velocity": 97}, {"time": 1166, "pitch": 66, "duration": 10, "velocity": 127}, {"time": 1168, "pitch": 50, "duration": 8, "velocity": 112}, {"time": 1172, "pitch": 62, "duration": 6, "velocity": 127}, {"time": 1174, "pitch": 57, "duration": 3, "velocity": 107}, {"time": 1178, "pitch": 43, "duration": 22, "velocity": 96}, {"time": 1180, "pitch": 50, "duration": 22, "velocity": 93}, {"time": 1184, "pitch": 55, "duration": 6, "velocity": 102}, {"time": 1186, "pitch": 59, "duration": 5, "velocity": 102}, {"time": 1190, "pitch": 62, "duration": 6, "velocity": 127}, {"time": 1192, "pitch": 55, "duration": 3, "velocity": 117}, {"time": 1196, "pitch": 59, "duration": 4, "velocity": 100}, {"time": 1198, "pitch": 62, "duration": 2, "velocity": 100}, {"time": 1198, "pitch": 65, "duration": 2, "velocity": 81}, {"time": 1202, "pitch": 43, "duration": 17, "velocity": 102}, {"time": 1202, "pitch": 59, "duration": 6, "velocity": 95}, {"time": 1202, "pitch": 62, "duration": 7, "velocity": 112}, {"time": 1202, "pitch": 65, "duration": 8, "velocity": 102}, {"time": 1204, "pitch": 50, "duration": 11, "velocity": 100}, {"time": 1208, "pitch": 55, "duration": 3, "velocity": 107}, {"time": 1210, "pitch": 59, "duration": 5, "velocity": 93}, {"time": 1210, "pitch": 62, "duration": 2, "velocity": 49}, {"time": 1210, "pitch": 65, "duration": 1, "velocity": 28}, {"time": 1214, "pitch": 65, "duration": 8, "velocity": 122}, {"time": 1216, "pitch": 50, "duration": 2, "velocity": 107}, {"time": 1220, "pitch": 62, "duration": 5, "velocity": 127}, {"time": 1222, "pitch": 59, "duration": 4, "velocity": 100}, {"time": 1226, "pitch": 36, "duration": 21, "velocity": 92}, {"time": 1228, "pitch": 43, "duration": 22, "velocity": 88}, {"time": 1232, "pitch": 48, "duration": 7, "velocity": 97}, {"time": 1234, "pitch": 55, "duration": 7, "velocity": 89}, {"time": 1238, "pitch": 64, "duration": 13, "velocity": 122}, {"time": 1240, "pitch": 48, "duration": 4, "velocity": 92}, {"time": 1244, "pitch": 60, "duration": 6, "velocity": 112}, {"time": 1246, "pitch": 55, "duration": 4, "velocity": 117}, {"time": 1250, "pitch": 36, "duration": 15, "velocity": 82}, {"time": 1252, "pitch": 43, "duration": 14, "velocity": 96}, {"time": 1256, "pitch": 48, "duration": 7, "velocity": 96}, {"time": 1258, "pitch": 60, "duration": 4, "velocity": 96}, {"time": 1262, "pitch": 64, "duration": 6, "velocity": 99}, {"time": 1262, "pitch": 67, "duration": 11, "velocity": 127}, {"time": 1264, "pitch": 48, "duration": 3, "velocity": 102}, {"time": 1268, "pitch": 60, "duration": 4, "velocity": 112}, {"time": 1270, "pitch": 64, "duration": 4, "velocity": 107}, {"time": 1274, "pitch": 47, "duration": 17, "velocity": 93}, {"time": 1276, "pitch": 54, "duration": 11, "velocity": 85}, {"time": 1280, "pitch": 59, "duration": 3, "velocity": 95}, {"time": 1282, "pitch": 62, "duration": 10, "velocity": 99}, {"time": 1286, "pitch": 66, "duration": 6, "velocity": 122}, {"time": 1288, "pitch": 54, "duration": 3, "velocity": 100}, {"time": 1292, "pitch": 59, "duration": 1, "velocity": 99}, {"time": 1298, "pitch": 41, "duration": 10, "velocity": 89}, {"time": 1298, "pitch": 60, "duration": 9, "velocity": 100}, {"time": 1298, "pitch": 65, "duration": 7, "velocity": 117}, {"time": 1298, "pitch": 69, "duration": 7, "velocity": 117}, {"time": 1310, "pitch": 40, "duration": 5, "velocity": 100}, {"time": 1310, "pitch": 64, "duration": 10, "velocity": 96}, {"time": 1310, "pitch": 68, "duration": 7, "velocity": 122}, {"time": 1310, "pitch": 71, "duration": 7, "velocity": 100}, {"time": 1322, "pitch": 45, "duration": 17, "velocity": 93}, {"time": 1322, "pitch": 64, "duration": 1, "velocity": 63}, {"time": 1322, "pitch": 69, "duration": 3, "velocity": 97}, {"time": 1324, "pitch": 52, "duration": 11, "velocity": 90}, {"time": 1328, "pitch": 57, "duration": 4, "velocity": 92}, {"time": 1330, "pitch": 60, "duration": 8, "velocity": 79}, {"time": 1334, "pitch": 69, "duration": 10, "velocity": 102}, {"time": 1336, "pitch": 52, "duration": 3, "velocity": 49}, {"time": 1340, "pitch": 64, "duration": 5, "velocity": 90}, {"time": 1342, "pitch": 60, "duration": 4, "velocity": 93}, {"time": 1346, "pitch": 38, "duration": 4, "velocity": 66}, {"time": 1346, "pitch": 45, "duration": 4, "velocity": 73}, {"time": 1346, "pitch": 50, "duration": 4, "velocity": 78}, {"time": 1346, "pitch": 57, "duration": 5, "velocity": 107}, {"time": 1346, "pitch": 62, "duration": 5, "velocity": 99}, {"time": 1346, "pitch": 66, "duration": 5, "velocity": 100}, {"time": 1370, "pitch": 43, "duration": 43, "velocity": 56}, {"time": 1370, "pitch": 50, "duration": 39, "velocity": 59}, {"time": 1370, "pitch": 55, "duration": 15, "velocity": 81}, {"time": 1370, "pitch": 62, "duration": 9, "velocity": 93}, {"time": 1370, "pitch": 67, "duration": 10, "velocity": 92}, {"time": 1370, "pitch": 71, "duration": 9, "velocity": 82}, {"time": 1382, "pitch": 62, "duration": 9, "velocity": 88}, {"time": 1382, "pitch": 67, "duration": 10, "velocity": 90}, {"time": 1382, "pitch": 71, "duration": 10, "velocity": 81}, {"time": 1388, "pitch": 55, "duration": 10, "velocity": 54}, {"time": 1394, "pitch": 62, "duration": 7, "velocity": 90}, {"time": 1394, "pitch": 67, "duration": 7, "velocity": 92}, {"time": 1394, "pitch": 71, "duration": 7, "velocity": 86}, {"time": 1400, "pitch": 55, "duration": 9, "velocity": 55}, {"time": 1406, "pitch": 67, "duration": 10, "velocity": 107}, {"time": 1406, "pitch": 71, "duration": 7, "velocity": 107}, {"time": 1412, "pitch": 50, "duration": 2, "velocity": 64}, {"time": 1418, "pitch": 40, "duration": 42, "velocity": 83}, {"time": 1418, "pitch": 64, "duration": 9, "velocity": 93}, {"time": 1418, "pitch": 67, "duration": 9, "velocity": 99}, {"time": 1418, "pitch": 71, "duration": 8, "velocity": 95}, {"time": 1424, "pitch": 47, "duration": 7, "velocity": 52}, {"time": 1430, "pitch": 52, "duration": 7, "velocity": 81}, {"time": 1430, "pitch": 64, "duration": 8, "velocity": 88}, {"time": 1430, "pitch": 67, "duration": 8, "velocity": 99}, {"time": 1430, "pitch": 71, "duration": 7, "velocity": 89}, {"time": 1436, "pitch": 47, "duration": 8, "velocity": 42}, {"time": 1442, "pitch": 52, "duration": 6, "velocity": 63}, {"time": 1442, "pitch": 64, "duration": 9, "velocity": 86}, {"time": 1442, "pitch": 67, "duration": 9, "velocity": 95}, {"time": 1442, "pitch": 71, "duration": 7, "velocity": 90}, {"time": 1448, "pitch": 47, "duration": 7, "velocity": 47}, {"time": 1454, "pitch": 52, "duration": 5, "velocity": 86}, {"time": 1454, "pitch": 67, "duration": 6, "velocity": 122}, {"time": 1454, "pitch": 71, "duration": 5, "velocity": 112}, {"time": 1460, "pitch": 47, "duration": 1, "velocity": 74}, {"time": 1466, "pitch": 39, "duration": 22, "velocity": 74}, {"time": 1466, "pitch": 63, "duration": 9, "velocity": 107}, {"time": 1466, "pitch": 67, "duration": 7, "velocity": 99}, {"time": 1466, "pitch": 70, "duration": 7, "velocity": 107}, {"time": 1472, "pitch": 46, "duration": 6, "velocity": 34}, {"time": 1478, "pitch": 51, "duration": 25, "velocity": 69}, {"time": 1478, "pitch": 63, "duration": 7, "velocity": 112}, {"time": 1478, "pitch": 67, "duration": 6, "velocity": 117}, {"time": 1478, "pitch": 70, "duration": 6, "velocity": 117}, {"time": 1484, "pitch": 46, "duration": 23, "velocity": 32}, {"time": 1490, "pitch": 39, "duration": 18, "velocity": 59}, {"time": 1490, "pitch": 63, "duration": 9, "velocity": 100}, {"time": 1490, "pitch": 67, "duration": 6, "velocity": 100}, {"time": 1490, "pitch": 70, "duration": 6, "velocity": 90}, {"time": 1502, "pitch": 63, "duration": 6, "velocity": 107}, {"time": 1502, "pitch": 67, "duration": 6, "velocity": 127}, {"time": 1502, "pitch": 70, "duration": 6, "velocity": 127}, {"time": 1508, "pitch": 51, "duration": 1, "velocity": 72}, {"time": 1514, "pitch": 38, "duration": 17, "velocity": 70}, {"time": 1514, "pitch": 57, "duration": 10, "velocity": 88}, {"time": 1514, "pitch": 62, "duration": 10, "velocity": 96}, {"time": 1514, "pitch": 66, "duration": 10, "velocity": 100}, {"time": 1520, "pitch": 45, "duration": 10, "velocity": 47}, {"time": 1526, "pitch": 50, "duration": 4, "velocity": 76}, {"time": 1526, "pitch": 57, "duration": 4, "velocity": 92}, {"time": 1526, "pitch": 62, "duration": 4, "velocity": 99}, {"time": 1526, "pitch": 66, "duration": 5, "velocity": 99}, {"time": 1562, "pitch": 43, "duration": 17, "velocity": 82}, {"time": 1562, "pitch": 59, "duration": 12, "velocity": 99}, {"time": 1562, "pitch": 62, "duration": 12, "velocity": 99}, {"time": 1568, "pitch": 50, "duration": 12, "velocity": 41}, {"time": 1574, "pitch": 55, "duration": 5, "velocity": 93}, {"time": 1574, "pitch": 66, "duration": 10, "velocity": 122}, {"time": 1580, "pitch": 59, "duration": 20, "velocity": 90}, {"time": 1586, "pitch": 42, "duration": 17, "velocity": 93}, {"time": 1586, "pitch": 66, "duration": 10, "velocity": 100}, {"time": 1592, "pitch": 54, "duration": 7, "velocity": 48}, {"time": 1598, "pitch": 66, "duration": 6, "velocity": 122}, {"time": 1604, "pitch": 62, "duration": 6, "velocity": 97}, {"time": 1610, "pitch": 40, "duration": 41, "velocity": 72}, {"time": 1610, "pitch": 59, "duration": 25, "velocity": 44}, {"time": 1610, "pitch": 64, "duration": 6, "velocity": 97}, {"time": 1616, "pitch": 47, "duration": 8, "velocity": 76}, {"time": 1622, "pitch": 52, "duration": 7, "velocity": 68}, {"time": 1622, "pitch": 67, "duration": 19, "velocity": 93}, {"time": 1628, "pitch": 47, "duration": 7, "velocity": 52}, {"time": 1634, "pitch": 52, "duration": 7, "velocity": 73}, {"time": 1634, "pitch": 64, "duration": 7, "velocity": 89}, {"time": 1640, "pitch": 47, "duration": 11, "velocity": 59}, {"time": 1640, "pitch": 59, "duration": 6, "velocity": 83}, {"time": 1646, "pitch": 52, "duration": 3, "velocity": 93}, {"time": 1646, "pitch": 64, "duration": 7, "velocity": 107}, {"time": 1646, "pitch": 67, "duration": 7, "velocity": 107}, {"time": 1652, "pitch": 59, "duration": 4, "velocity": 99}, {"time": 1658, "pitch": 36, "duration": 21, "velocity": 90}, {"time": 1658, "pitch": 60, "duration": 13, "velocity": 95}, {"time": 1658, "pitch": 64, "duration": 10, "velocity": 90}, {"time": 1658, "pitch": 67, "duration": 9, "velocity": 88}, {"time": 1664, "pitch": 43, "duration": 7, "velocity": 50}, {"time": 1670, "pitch": 48, "duration": 6, "velocity": 86}, {"time": 1670, "pitch": 67, "duration": 10, "velocity": 107}, {"time": 1676, "pitch": 43, "duration": 6, "velocity": 62}, {"time": 1682, "pitch": 36, "duration": 22, "velocity": 74}, {"time": 1682, "pitch": 63, "duration": 10, "velocity": 117}, {"time": 1682, "pitch": 67, "duration": 10, "velocity": 90}, {"time": 1688, "pitch": 43, "duration": 9, "velocity": 49}, {"time": 1694, "pitch": 48, "duration": 5, "velocity": 83}, {"time": 1694, "pitch": 63, "duration": 6, "velocity": 107}, {"time": 1694, "pitch": 67, "duration": 6, "velocity": 92}, {"time": 1700, "pitch": 43, "duration": 6, "velocity": 66}, {"time": 1700, "pitch": 60, "duration": 5, "velocity": 76}, {"time": 1706, "pitch": 38, "duration": 21, "velocity": 83}, {"time": 1706, "pitch": 62, "duration": 11, "velocity": 95}, {"time": 1712, "pitch": 45, "duration": 7, "velocity": 41}, {"time": 1718, "pitch": 50, "duration": 6, "velocity": 85}, {"time": 1718, "pitch": 62, "duration": 22, "velocity": 96}, {"time": 1718, "pitch": 66, "duration": 13, "velocity": 117}, {"time": 1724, "pitch": 45, "duration": 6, "velocity": 71}, {"time": 1730, "pitch": 38, "duration": 15, "velocity": 90}, {"time": 1730, "pitch": 57, "duration": 12, "velocity": 112}, {"time": 1732, "pitch": 66, "duration": 4, "velocity": 20}, {"time": 1736, "pitch": 45, "duration": 10, "velocity": 82}, {"time": 1742, "pitch": 50, "duration": 4, "velocity": 100}, {"time": 1742, "pitch": 66, "duration": 11, "velocity": 127}, {"time": 1744, "pitch": 62, "duration": 9, "velocity": 79}, {"time": 1748, "pitch": 57, "duration": 6, "velocity": 97}, {"time": 1754, "pitch": 39, "duration": 17, "velocity": 100}, {"time": 1760, "pitch": 46, "duration": 10, "velocity": 28}, {"time": 1766, "pitch": 51, "duration": 6, "velocity": 70}, {"time": 1766, "pitch": 58, "duration": 7, "velocity": 117}, {"time": 1766, "pitch": 63, "duration": 8, "velocity": 112}, {"time": 1772, "pitch": 55, "duration": 4, "velocity": 88}, {"time": 1778, "pitch": 38, "duration": 18, "velocity": 70}, {"time": 1778, "pitch": 62, "duration": 6, "velocity": 112}, {"time": 1778, "pitch": 66, "duration": 6, "velocity": 117}, {"time": 1784, "pitch": 59, "duration": 6, "velocity": 73}, {"time": 1790, "pitch": 50, "duration": 8, "velocity": 52}, {"time": 1790, "pitch": 62, "duration": 12, "velocity": 66}, {"time": 1790, "pitch": 66, "duration": 12, "velocity": 122}, {"time": 1796, "pitch": 59, "duration": 6, "velocity": 90}, {"time": 1802, "pitch": 39, "duration": 16, "velocity": 97}, {"time": 1808, "pitch": 51, "duration": 7, "velocity": 66}, {"time": 1814, "pitch": 58, "duration": 6, "velocity": 127}, {"time": 1814, "pitch": 63, "duration": 5, "velocity": 112}, {"time": 1816, "pitch": 51, "duration": 2, "velocity": 52}, {"time": 1820, "pitch": 55, "duration": 1, "velocity": 73}, {"time": 1826, "pitch": 40, "duration": 18, "velocity": 72}, {"time": 1826, "pitch": 59, "duration": 10, "velocity": 95}, {"time": 1826, "pitch": 64, "duration": 10, "velocity": 95}, {"time": 1826, "pitch": 67, "duration": 10, "velocity": 89}, {"time": 1832, "pitch": 47, "duration": 8, "velocity": 42}, {"time": 1838, "pitch": 52, "duration": 5, "velocity": 81}, {"time": 1838, "pitch": 64, "duration": 9, "velocity": 97}, {"time": 1838, "pitch": 67, "duration": 9, "velocity": 92}, {"time": 1844, "pitch": 47, "duration": 1, "velocity": 75}, {"time": 1844, "pitch": 59, "duration": 5, "velocity": 86}, {"time": 1850, "pitch": 45, "duration": 16, "velocity": 95}, {"time": 1850, "pitch": 60, "duration": 7, "velocity": 99}, {"time": 1850, "pitch": 64, "duration": 7, "velocity": 97}, {"time": 1856, "pitch": 52, "duration": 8, "velocity": 90}, {"time": 1862, "pitch": 64, "duration": 7, "velocity": 112}, {"time": 1868, "pitch": 60, "duration": 5, "velocity": 100}, {"time": 1874, "pitch": 38, "duration": 16, "velocity": 72}, {"time": 1874, "pitch": 57, "duration": 10, "velocity": 78}, {"time": 1874, "pitch": 62, "duration": 10, "velocity": 100}, {"time": 1874, "pitch": 66, "duration": 10, "velocity": 112}, {"time": 1880, "pitch": 45, "duration": 11, "velocity": 62}, {"time": 1886, "pitch": 50, "duration": 7, "velocity": 85}, {"time": 1886, "pitch": 62, "duration": 6, "velocity": 97}, {"time": 1886, "pitch": 66, "duration": 5, "velocity": 122}, {"time": 1892, "pitch": 57, "duration": 5, "velocity": 97}, {"time": 1898, "pitch": 43, "duration": 22, "velocity": 82}, {"time": 1898, "pitch": 59, "duration": 4, "velocity": 112}, {"time": 1898, "pitch": 62, "duration": 4, "velocity": 100}, {"time": 1904, "pitch": 50, "duration": 7, "velocity": 72}, {"time": 1910, "pitch": 55, "duration": 5, "velocity": 99}, {"time": 1910, "pitch": 62, "duration": 4, "velocity": 97}, {"time": 1910, "pitch": 67, "duration": 10, "velocity": 122}, {"time": 1910, "pitch": 71, "duration": 10, "velocity": 127}, {"time": 1916, "pitch": 50, "duration": 5, "velocity": 97}, {"time": 1916, "pitch": 62, "duration": 1, "velocity": 78}, {"time": 1918, "pitch": 62, "duration": 2, "velocity": 89}, {"time": 1922, "pitch": 43, "duration": 18, "velocity": 95}, {"time": 1922, "pitch": 62, "duration": 7, "velocity": 112}, {"time": 1922, "pitch": 65, "duration": 7, "velocity": 122}, {"time": 1922, "pitch": 67, "duration": 11, "velocity": 122}, {"time": 1922, "pitch": 71, "duration": 22, "velocity": 127}, {"time": 1924, "pitch": 50, "duration": 11, "velocity": 99}, {"time": 1928, "pitch": 55, "duration": 3, "velocity": 122}, {"time": 1930, "pitch": 62, "duration": 5, "velocity": 102}, {"time": 1934, "pitch": 65, "duration": 6, "velocity": 127}, {"time": 1934, "pitch": 67, "duration": 11, "velocity": 46}, {"time": 1936, "pitch": 50, "duration": 4, "velocity": 112}, {"time": 1940, "pitch": 62, "duration": 5, "velocity": 117}, {"time": 1942, "pitch": 65, "duration": 3, "velocity": 122}, {"time": 1946, "pitch": 36, "duration": 20, "velocity": 83}, {"time": 1948, "pitch": 43, "duration": 21, "velocity": 68}, {"time": 1952, "pitch": 48, "duration": 6, "velocity": 102}, {"time": 1954, "pitch": 60, "duration": 5, "velocity": 89}, {"time": 1958, "pitch": 67, "duration": 11, "velocity": 127}, {"time": 1960, "pitch": 48, "duration": 3, "velocity": 100}, {"time": 1964, "pitch": 64, "duration": 6, "velocity": 127}, {"time": 1966, "pitch": 60, "duration": 4, "velocity": 112}, {"time": 1970, "pitch": 36, "duration": 16, "velocity": 81}, {"time": 1972, "pitch": 43, "duration": 14, "velocity": 88}, {"time": 1976, "pitch": 48, "duration": 7, "velocity": 102}, {"time": 1978, "pitch": 55, "duration": 6, "velocity": 100}, {"time": 1982, "pitch": 64, "duration": 11, "velocity": 122}, {"time": 1984, "pitch": 48, "duration": 4, "velocity": 93}, {"time": 1988, "pitch": 60, "duration": 5, "velocity": 112}, {"time": 1990, "pitch": 55, "duration": 4, "velocity": 95}, {"time": 1994, "pitch": 47, "duration": 18, "velocity": 85}, {"time": 1996, "pitch": 54, "duration": 11, "velocity": 90}, {"time": 2000, "pitch": 59, "duration": 2, "velocity": 95}, {"time": 2002, "pitch": 62, "duration": 4, "velocity": 99}, {"time": 2006, "pitch": 66, "duration": 8, "velocity": 127}, {"time": 2008, "pitch": 54, "duration": 3, "velocity": 99}, {"time": 2012, "pitch": 62, "duration": 3, "velocity": 127}, {"time": 2014, "pitch": 59, "duration": 6, "velocity": 95}, {"time": 2018, "pitch": 40, "duration": 18, "velocity": 95}, {"time": 2020, "pitch": 47, "duration": 16, "velocity": 88}, {"time": 2024, "pitch": 52, "duration": 7, "velocity": 95}, {"time": 2026, "pitch": 59, "duration": 5, "velocity": 83}, {"time": 2030, "pitch": 67, "duration": 11, "velocity": 117}, {"time": 2032, "pitch": 52, "duration": 6, "velocity": 95}, {"time": 2036, "pitch": 64, "duration": 6, "velocity": 127}, {"time": 2038, "pitch": 59, "duration": 4, "velocity": 107}, {"time": 2042, "pitch": 45, "duration": 18, "velocity": 93}, {"time": 2044, "pitch": 52, "duration": 11, "velocity": 88}, {"time": 2048, "pitch": 57, "duration": 3, "velocity": 99}, {"time": 2050, "pitch": 60, "duration": 5, "velocity": 96}, {"time": 2054, "pitch": 69, "duration": 10, "velocity": 127}, {"time": 2056, "pitch": 52, "duration": 3, "velocity": 93}, {"time": 2060, "pitch": 64, "duration": 4, "velocity": 102}, {"time": 2062, "pitch": 60, "duration": 3, "velocity": 107}, {"time": 2066, "pitch": 38, "duration": 18, "velocity": 90}, {"time": 2068, "pitch": 45, "duration": 16, "velocity": 107}, {"time": 2072, "pitch": 50, "duration": 6, "velocity": 107}, {"time": 2074, "pitch": 57, "duration": 7, "velocity": 97}, {"time": 2078, "pitch": 66, "duration": 10, "velocity": 127}, {"time": 2080, "pitch": 50, "duration": 8, "velocity": 112}, {"time": 2084, "pitch": 62, "duration": 6, "velocity": 127}, {"time": 2086, "pitch": 57, "duration": 3, "velocity": 107}, {"time": 2090, "pitch": 43, "duration": 22, "velocity": 96}, {"time": 2092, "pitch": 50, "duration": 22, "velocity": 93}, {"time": 2096, "pitch": 55, "duration": 6, "velocity": 102}, {"time": 2098, "pitch": 59, "duration": 5, "velocity": 102}, {"time": 2102, "pitch": 62, "duration": 6, "velocity": 127}, {"time": 2104, "pitch": 55, "duration": 3, "velocity": 117}, {"time": 2108, "pitch": 59, "duration": 4, "velocity": 100}, {"time": 2110, "pitch": 62, "duration": 2, "velocity": 100}, {"time": 2110, "pitch": 65, "duration": 2, "velocity": 81}, {"time": 2114, "pitch": 43, "duration": 17, "velocity": 102}, {"time": 2114, "pitch": 59, "duration": 6, "velocity": 95}, {"time": 2114, "pitch": 62, "duration": 7, "velocity": 112}, {"time": 2114, "pitch": 65, "duration": 8, "velocity": 102}, {"time": 2116, "pitch": 50, "duration": 11, "velocity": 100}, {"time": 2120, "pitch": 55, "duration": 3, "velocity": 107}, {"time": 2122, "pitch": 59, "duration": 5, "velocity": 93}, {"time": 2122, "pitch": 62, "duration": 2, "velocity": 49}, {"time": 2122, "pitch": 65, "duration": 1, "velocity": 28}, {"time": 2126, "pitch": 65, "duration": 8, "velocity": 122}, {"time": 2128, "pitch": 50, "duration": 2, "velocity": 107}, {"time": 2132, "pitch": 62, "duration": 5, "velocity": 127}, {"time": 2134, "pitch": 59, "duration": 4, "velocity": 100}, {"time": 2138, "pitch": 36, "duration": 21, "velocity": 92}, {"time": 2140, "pitch": 43, "duration": 22, "velocity": 88}, {"time": 2144, "pitch": 48, "duration": 7, "velocity": 97}, {"time": 2146, "pitch": 55, "duration": 7, "velocity": 89}, {"time": 2150, "pitch": 64, "duration": 13, "velocity": 122}, {"time": 2152, "pitch": 48, "duration": 4, "velocity": 92}, {"time": 2156, "pitch": 60, "duration": 6, "velocity": 112}, {"time": 2158, "pitch": 55, "duration": 4, "velocity": 117}, {"time": 2162, "pitch": 36, "duration": 15, "velocity": 82}, {"time": 2164, "pitch": 43, "duration": 14, "velocity": 96}, {"time": 2168, "pitch": 48, "duration": 7, "velocity": 96}, {"time": 2170, "pitch": 60, "duration": 4, "velocity": 96}, {"time": 2174, "pitch": 64, "duration": 6, "velocity": 99}, {"time": 2174, "pitch": 67, "duration": 11, "velocity": 127}, {"time": 2176, "pitch": 48, "duration": 3, "velocity": 102}, {"time": 2180, "pitch": 60, "duration": 4, "velocity": 112}, {"time": 2182, "pitch": 64, "duration": 4, "velocity": 107}, {"time": 2186, "pitch": 47, "duration": 17, "velocity": 93}, {"time": 2188, "pitch": 54, "duration": 11, "velocity": 85}, {"time": 2192, "pitch": 59, "duration": 3, "velocity": 95}, {"time": 2194, "pitch": 62, "duration": 10, "velocity": 99}, {"time": 2198, "pitch": 66, "duration": 6, "velocity": 122}, {"time": 2200, "pitch": 54, "duration": 3, "velocity": 100}, {"time": 2204, "pitch": 59, "duration": 1, "velocity": 99}, {"time": 2210, "pitch": 41, "duration": 10, "velocity": 89}, {"time": 2210, "pitch": 60, "duration": 9, "velocity": 100}, {"time": 2210, "pitch": 65, "duration": 7, "velocity": 117}, {"time": 2210, "pitch": 69, "duration": 7, "velocity": 117}, {"time": 2222, "pitch": 40, "duration": 5, "velocity": 100}, {"time": 2222, "pitch": 64, "duration": 10, "velocity": 96}, {"time": 2222, "pitch": 68, "duration": 7, "velocity": 122}, {"time": 2222, "pitch": 71, "duration": 7, "velocity": 100}, {"time": 2234, "pitch": 45, "duration": 17, "velocity": 93}, {"time": 2234, "pitch": 64, "duration": 1, "velocity": 63}, {"time": 2234, "pitch": 69, "duration": 3, "velocity": 97}, {"time": 2236, "pitch": 52, "duration": 11, "velocity": 90}, {"time": 2240, "pitch": 57, "duration": 4, "velocity": 92}, {"time": 2242, "pitch": 60, "duration": 8, "velocity": 79}, {"time": 2246, "pitch": 69, "duration": 10, "velocity": 102}, {"time": 2248, "pitch": 52, "duration": 3, "velocity": 49}, {"time": 2252, "pitch": 64, "duration": 5, "velocity": 90}, {"time": 2254, "pitch": 60, "duration": 4, "velocity": 93}, {"time": 2258, "pitch": 38, "duration": 15, "velocity": 82}, {"time": 2258, "pitch": 57, "duration": 5, "velocity": 93}, {"time": 2258, "pitch": 62, "duration": 5, "velocity": 107}, {"time": 2258, "pitch": 66, "duration": 5, "velocity": 107}, {"time": 2264, "pitch": 45, "duration": 9, "velocity": 59}, {"time": 2264, "pitch": 57, "duration": 3, "velocity": 69}, {"time": 2264, "pitch": 62, "duration": 3, "velocity": 92}, {"time": 2264, "pitch": 66, "duration": 3, "velocity": 96}, {"time": 2270, "pitch": 50, "duration": 4, "velocity": 79}, {"time": 2270, "pitch": 62, "duration": 6, "velocity": 107}, {"time": 2270, "pitch": 66, "duration": 6, "velocity": 117}, {"time": 2276, "pitch": 57, "duration": 3, "velocity": 97}, {"time": 2282, "pitch": 39, "duration": 22, "velocity": 117}, {"time": 2282, "pitch": 55, "duration": 6, "velocity": 93}, {"time": 2282, "pitch": 58, "duration": 7, "velocity": 127}, {"time": 2288, "pitch": 51, "duration": 6, "velocity": 97}, {"time": 2290, "pitch": 55, "duration": 3, "velocity": 67}, {"time": 2294, "pitch": 58, "duration": 6, "velocity": 127}, {"time": 2294, "pitch": 63, "duration": 7, "velocity": 127}, {"time": 2296, "pitch": 51, "duration": 9, "velocity": 93}, {"time": 2300, "pitch": 55, "duration": 2, "velocity": 79}, {"time": 2302, "pitch": 55, "duration": 10, "velocity": 61}, {"time": 2302, "pitch": 58, "duration": 13, "velocity": 117}, {"time": 2302, "pitch": 63, "duration": 13, "velocity": 117}, {"time": 2306, "pitch": 39, "duration": 20, "velocity": 92}, {"time": 2312, "pitch": 51, "duration": 6, "velocity": 93}, {"time": 2318, "pitch": 63, "duration": 8, "velocity": 127}, {"time": 2320, "pitch": 51, "duration": 4, "velocity": 97}, {"time": 2324, "pitch": 58, "duration": 3, "velocity": 127}, {"time": 2326, "pitch": 55, "duration": 3, "velocity": 72}, {"time": 2330, "pitch": 38, "duration": 41, "velocity": 75}, {"time": 2330, "pitch": 55, "duration": 10, "velocity": 82}, {"time": 2330, "pitch": 59, "duration": 10, "velocity": 97}, {"time": 2330, "pitch": 62, "duration": 10, "velocity": 107}, {"time": 2342, "pitch": 59, "duration": 6, "velocity": 102}, {"time": 2342, "pitch": 61, "duration": 1, "velocity": 93}, {"time": 2342, "pitch": 62, "duration": 7, "velocity": 112}, {"time": 2348, "pitch": 55, "duration": 4, "velocity": 79}, {"time": 2350, "pitch": 59, "duration": 2, "velocity": 40}, {"time": 2350, "pitch": 62, "duration": 2, "velocity": 43}, {"time": 2354, "pitch": 59, "duration": 10, "velocity": 102}, {"time": 2354, "pitch": 62, "duration": 10, "velocity": 100}, {"time": 2360, "pitch": 50, "duration": 6, "velocity": 85}, {"time": 2366, "pitch": 59, "duration": 8, "velocity": 127}, {"time": 2366, "pitch": 62, "duration": 6, "velocity": 122}, {"time": 2368, "pitch": 50, "duration": 4, "velocity": 95}, {"time": 2372, "pitch": 55, "duration": 4, "velocity": 100}, {"time": 2378, "pitch": 39, "duration": 36, "velocity": 117}, {"time": 2378, "pitch": 55, "duration": 10, "velocity": 117}, {"time": 2378, "pitch": 60, "duration": 10, "velocity": 112}, {"time": 2378, "pitch": 63, "duration": 10, "velocity": 122}, {"time": 2384, "pitch": 51, "duration": 10, "velocity": 52}, {"time": 2390, "pitch": 55, "duration": 10, "velocity": 96}, {"time": 2390, "pitch": 60, "duration": 10, "velocity": 107}, {"time": 2390, "pitch": 63, "duration": 10, "velocity": 122}, {"time": 2396, "pitch": 51, "duration": 8, "velocity": 79}, {"time": 2402, "pitch": 60, "duration": 8, "velocity": 122}, {"time": 2402, "pitch": 63, "duration": 9, "velocity": 127}, {"time": 2408, "pitch": 51, "duration": 6, "velocity": 100}, {"time": 2410, "pitch": 55, "duration": 4, "velocity": 45}, {"time": 2414, "pitch": 39, "duration": 5, "velocity": 93}, {"time": 2414, "pitch": 55, "duration": 9, "velocity": 90}, {"time": 2414, "pitch": 60, "duration": 7, "velocity": 107}, {"time": 2414, "pitch": 63, "duration": 6, "velocity": 102}, {"time": 2426, "pitch": 38, "duration": 42, "velocity": 76}, {"time": 2426, "pitch": 55, "duration": 9, "velocity": 102}, {"time": 2426, "pitch": 59, "duration": 10, "velocity": 107}, {"time": 2426, "pitch": 62, "duration": 10, "velocity": 107}, {"time": 2438, "pitch": 55, "duration": 10, "velocity": 96}, {"time": 2438, "pitch": 59, "duration": 10, "velocity": 100}, {"time": 2438, "pitch": 62, "duration": 10, "velocity": 102}, {"time": 2450, "pitch": 47, "duration": 5, "velocity": 59}, {"time": 2450, "pitch": 55, "duration": 9, "velocity": 99}, {"time": 2450, "pitch": 59, "duration": 10, "velocity": 99}, {"time": 2450, "pitch": 62, "duration": 9, "velocity": 99}, {"time": 2456, "pitch": 47, "duration": 8, "velocity": 58}, {"time": 2462, "pitch": 55, "duration": 5, "velocity": 107}, {"time": 2462, "pitch": 59, "duration": 5, "velocity": 112}, {"time": 2462, "pitch": 62, "duration": 6, "velocity": 112}, {"time": 2468, "pitch": 47, "duration": 1, "velocity": 86}, {"time": 2474, "pitch": 41, "duration": 22, "velocity": 97}, {"time": 2474, "pitch": 60, "duration": 7, "velocity": 102}, {"time": 2474, "pitch": 65, "duration": 9, "velocity": 127}, {"time": 2474, "pitch": 69, "duration": 9, "velocity": 112}, {"time": 2476, "pitch": 48, "duration": 21, "velocity": 69}, {"time": 2480, "pitch": 53, "duration": 6, "velocity": 93}, {"time": 2482, "pitch": 60, "duration": 2, "velocity": 67}, {"time": 2486, "pitch": 60, "duration": 3, "velocity": 92}, {"time": 2486, "pitch": 65, "duration": 7, "velocity": 127}, {"time": 2486, "pitch": 69, "duration": 7, "velocity": 127}, {"time": 2488, "pitch": 53, "duration": 3, "velocity": 77}, {"time": 2492, "pitch": 60, "duration": 15, "velocity": 78}, {"time": 2494, "pitch": 65, "duration": 10, "velocity": 93}, {"time": 2494, "pitch": 69, "duration": 11, "velocity": 95}, {"time": 2498, "pitch": 41, "duration": 19, "velocity": 76}, {"time": 2504, "pitch": 48, "duration": 11, "velocity": 53}, {"time": 2506, "pitch": 53, "duration": 4, "velocity": 59}, {"time": 2506, "pitch": 65, "duration": 1, "velocity": 38}, {"time": 2506, "pitch": 69, "duration": 1, "velocity": 30}, {"time": 2510, "pitch": 60, "duration": 4, "velocity": 112}, {"time": 2510, "pitch": 65, "duration": 6, "velocity": 127}, {"time": 2510, "pitch": 69, "duration": 7, "velocity": 127}, {"time": 2512, "pitch": 53, "duration": 3, "velocity": 93}, {"time": 2516, "pitch": 60, "duration": 1, "velocity": 100}, {"time": 2522, "pitch": 40, "duration": 37, "velocity": 95}, {"time": 2522, "pitch": 64, "duration": 5, "velocity": 112}, {"time": 2522, "pitch": 67, "duration": 4, "velocity": 112}, {"time": 2522, "pitch": 71, "duration": 4, "velocity": 112}, {"time": 2528, "pitch": 47, "duration": 8, "velocity": 42}, {"time": 2534, "pitch": 52, "duration": 6, "velocity": 74}, {"time": 2534, "pitch": 59, "duration": 10, "velocity": 112}, {"time": 2534, "pitch": 64, "duration": 10, "velocity": 107}, {"time": 2534, "pitch": 67, "duration": 10, "velocity": 100}, {"time": 2540, "pitch": 47, "duration": 19, "velocity": 50}, {"time": 2542, "pitch": 52, "duration": 7, "velocity": 55}, {"time": 2546, "pitch": 59, "duration": 7, "velocity": 100}, {"time": 2546, "pitch": 64, "duration": 10, "velocity": 100}, {"time": 2546, "pitch": 67, "duration": 10, "velocity": 90}, {"time": 2552, "pitch": 52, "duration": 6, "velocity": 95}, {"time": 2558, "pitch": 59, "duration": 6, "velocity": 117}, {"time": 2558, "pitch": 64, "duration": 10, "velocity": 122}, {"time": 2558, "pitch": 67, "duration": 7, "velocity": 117}, {"time": 2560, "pitch": 40, "duration": 3, "velocity": 82}, {"time": 2564, "pitch": 38, "duration": 4, "velocity": 66}, {"time": 2570, "pitch": 36, "duration": 21, "velocity": 96}, {"time": 2570, "pitch": 55, "duration": 10, "velocity": 95}, {"time": 2570, "pitch": 60, "duration": 10, "velocity": 107}, {"time": 2570, "pitch": 63, "duration": 10, "velocity": 112}, {"time": 2576, "pitch": 43, "duration": 17, "velocity": 39}, {"time": 2578, "pitch": 48, "duration": 5, "velocity": 74}, {"time": 2582, "pitch": 60, "duration": 7, "velocity": 117}, {"time": 2582, "pitch": 63, "duration": 7, "velocity": 122}, {"time": 2584, "pitch": 48, "duration": 3, "velocity": 61}, {"time": 2588, "pitch": 55, "duration": 4, "velocity": 83}, {"time": 2590, "pitch": 60, "duration": 1, "velocity": 37}, {"time": 2594, "pitch": 36, "duration": 21, "velocity": 64}, {"time": 2594, "pitch": 55, "duration": 10, "velocity": 97}, {"time": 2594, "pitch": 60, "duration": 10, "velocity": 107}, {"time": 2594, "pitch": 63, "duration": 10, "velocity": 107}, {"time": 2600, "pitch": 43, "duration": 18, "velocity": 58}, {"time": 2602, "pitch": 48, "duration": 5, "velocity": 69}, {"time": 2606, "pitch": 55, "duration": 6, "velocity": 95}, {"time": 2606, "pitch": 60, "duration": 4, "velocity": 122}, {"time": 2606, "pitch": 63, "duration": 6, "velocity": 127}, {"time": 2608, "pitch": 48, "duration": 2, "velocity": 86}, {"time": 2612, "pitch": 60, "duration": 2, "velocity": 69}, {"time": 2618, "pitch": 38, "duration": 21, "velocity": 85}, {"time": 2618, "pitch": 57, "duration": 4, "velocity": 102}, {"time": 2618, "pitch": 62, "duration": 3, "velocity": 127}, {"time": 2618, "pitch": 66, "duration": 4, "velocity": 127}, {"time": 2624, "pitch": 45, "duration": 7, "velocity": 57}, {"time": 2630, "pitch": 50, "duration": 9, "velocity": 89}, {"time": 2630, "pitch": 57, "duration": 9, "velocity": 102}, {"time": 2630, "pitch": 62, "duration": 9, "velocity": 127}, {"time": 2630, "pitch": 66, "duration": 9, "velocity": 117}, {"time": 2636, "pitch": 45, "duration": 4, "velocity": 45}, {"time": 2642, "pitch": 38, "duration": 23, "velocity": 73}, {"time": 2642, "pitch": 45, "duration": 23, "velocity": 93}, {"time": 2642, "pitch": 50, "duration": 16, "velocity": 100}, {"time": 2642, "pitch": 57, "duration": 10, "velocity": 102}, {"time": 2642, "pitch": 62, "duration": 10, "velocity": 127}, {"time": 2642, "pitch": 66, "duration": 10, "velocity": 127}, {"time": 2654, "pitch": 57, "duration": 11, "velocity": 102}, {"time": 2654, "pitch": 62, "duration": 11, "velocity": 122}, {"time": 2654, "pitch": 66, "duration": 11, "velocity": 127}, {"time": 2660, "pitch": 50, "duration": 5, "velocity": 107}, {"time": 2666, "pitch": 39, "duration": 4, "velocity": 96}, {"time": 2666, "pitch": 51, "duration": 3, "velocity": 93}, {"time": 2666, "pitch": 63, "duration": 4, "velocity": 127}, {"time": 2666, "pitch": 67, "duration": 1, "velocity": 127}, {"time": 2666, "pitch": 70, "duration": 4, "velocity": 127}, {"time": 2668, "pitch": 67, "duration": 1, "velocity": 26}, {"time": 2672, "pitch": 39, "duration": 3, "velocity": 97}, {"time": 2672, "pitch": 51, "duration": 3, "velocity": 92}, {"time": 2672, "pitch": 63, "duration": 3, "velocity": 102}, {"time": 2672, "pitch": 67, "duration": 3, "velocity": 127}, {"time": 2672, "pitch": 70, "duration": 3, "velocity": 112}, {"time": 2678, "pitch": 39, "duration": 3, "velocity": 96}, {"time": 2678, "pitch": 51, "duration": 3, "velocity": 95}, {"time": 2678, "pitch": 63, "duration": 3, "velocity": 102}, {"time": 2678, "pitch": 67, "duration": 3, "velocity": 122}, {"time": 2678, "pitch": 70, "duration": 3, "velocity": 112}, {"time": 2684, "pitch": 39, "duration": 6, "velocity": 102}, {"time": 2684, "pitch": 51, "duration": 6, "velocity": 112}, {"time": 2684, "pitch": 63, "duration": 6, "velocity": 117}, {"time": 2684, "pitch": 67, "duration": 5, "velocity": 127}, {"time": 2684, "pitch": 70, "duration": 5, "velocity": 122}, {"time": 2714, "pitch": 60, "duration": 24, "velocity": 90}, {"time": 2714, "pitch": 68, "duration": 10, "velocity": 95}, {"time": 2714, "pitch": 72, "duration": 10, "velocity": 90}, {"time": 2714, "pitch": 75, "duration": 9, "velocity": 75}, {"time": 2726, "pitch": 68, "duration": 10, "velocity": 82}, {"time": 2726, "pitch": 72, "duration": 10, "velocity": 95}, {"time": 2726, "pitch": 75, "duration": 8, "velocity": 86}, {"time": 2738, "pitch": 58, "duration": 23, "velocity": 85}, {"time": 2738, "pitch": 63, "duration": 10, "velocity": 92}, {"time": 2738, "pitch": 67, "duration": 10, "velocity": 97}, {"time": 2738, "pitch": 70, "duration": 10, "velocity": 89}, {"time": 2750, "pitch": 63, "duration": 9, "velocity": 93}, {"time": 2750, "pitch": 67, "duration": 10, "velocity": 82}, {"time": 2750, "pitch": 70, "duration": 11, "velocity": 73}, {"time": 2762, "pitch": 60, "duration": 22, "velocity": 90}, {"time": 2762, "pitch": 70, "duration": 6, "velocity": 107}, {"time": 2768, "pitch": 67, "duration": 6, "velocity": 82}, {"time": 2774, "pitch": 70, "duration": 11, "velocity": 100}, {"time": 2780, "pitch": 72, "duration": 5, "velocity": 97}, {"time": 2782, "pitch": 68, "duration": 9, "velocity": 92}, {"time": 2786, "pitch": 53, "duration": 12, "velocity": 76}, {"time": 2786, "pitch": 63, "duration": 11, "velocity": 96}, {"time": 2786, "pitch": 72, "duration": 10, "velocity": 74}, {"time": 2798, "pitch": 53, "duration": 3, "velocity": 102}, {"time": 2798, "pitch": 60, "duration": 3, "velocity": 99}, {"time": 2810, "pitch": 46, "duration": 17, "velocity": 96}, {"time": 2812, "pitch": 53, "duration": 5, "velocity": 62}, {"time": 2816, "pitch": 58, "duration": 5, "velocity": 88}, {"time": 2818, "pitch": 53, "duration": 5, "velocity": 60}, {"time": 2822, "pitch": 58, "duration": 1, "velocity": 72}, {"time": 2822, "pitch": 61, "duration": 6, "velocity": 122}, {"time": 2822, "pitch": 65, "duration": 12, "velocity": 93}, {"time": 2824, "pitch": 53, "duration": 2, "velocity": 75}, {"time": 2828, "pitch": 58, "duration": 4, "velocity": 122}, {"time": 2830, "pitch": 61, "duration": 4, "velocity": 127}, {"time": 2833, "pitch": 39, "duration": 16, "velocity": 93}, {"time": 2836, "pitch": 46, "duration": 13, "velocity": 69}, {"time": 2839, "pitch": 51, "duration": 6, "velocity": 95}, {"time": 2842, "pitch": 55, "duration": 4, "velocity": 83}, {"time": 2845, "pitch": 63, "duration": 12, "velocity": 127}, {"time": 2845, "pitch": 58, "duration": 7, "velocity": 117}, {"time": 2848, "pitch": 51, "duration": 2, "velocity": 100}, {"time": 2851, "pitch": 55, "duration": 5, "velocity": 102}, {"time": 2854, "pitch": 58, "duration": 3, "velocity": 127}, {"time": 2857, "pitch": 44, "duration": 1, "velocity": 89}, {"time": 2858, "pitch": 44, "duration": 22, "velocity": 99}, {"time": 2860, "pitch": 51, "duration": 20, "velocity": 33}, {"time": 2864, "pitch": 56, "duration": 6, "velocity": 102}, {"time": 2866, "pitch": 60, "duration": 5, "velocity": 88}, {"time": 2870, "pitch": 63, "duration": 6, "velocity": 117}, {"time": 2870, "pitch": 68, "duration": 7, "velocity": 117}, {"time": 2872, "pitch": 56, "duration": 8, "velocity": 112}, {"time": 2876, "pitch": 60, "duration": 4, "velocity": 99}, {"time": 2878, "pitch": 63, "duration": 2, "velocity": 89}, {"time": 2882, "pitch": 44, "duration": 21, "velocity": 99}, {"time": 2882, "pitch": 60, "duration": 1, "velocity": 95}, {"time": 2882, "pitch": 63, "duration": 10, "velocity": 127}, {"time": 2882, "pitch": 66, "duration": 10, "velocity": 127}, {"time": 2884, "pitch": 51, "duration": 18, "velocity": 92}, {"time": 2888, "pitch": 56, "duration": 7, "velocity": 117}, {"time": 2890, "pitch": 60, "duration": 5, "velocity": 96}, {"time": 2894, "pitch": 63, "duration": 7, "velocity": 127}, {"time": 2894, "pitch": 66, "duration": 10, "velocity": 127}, {"time": 2896, "pitch": 56, "duration": 3, "velocity": 117}, {"time": 2900, "pitch": 60, "duration": 4, "velocity": 112}, {"time": 2902, "pitch": 63, "duration": 3, "velocity": 127}, {"time": 2906, "pitch": 37, "duration": 22, "velocity": 93}, {"time": 2906, "pitch": 61, "duration": 9, "velocity": 107}, {"time": 2906, "pitch": 65, "duration": 6, "velocity": 112}, {"time": 2906, "pitch": 68, "duration": 6, "velocity": 117}, {"time": 2912, "pitch": 49, "duration": 8, "velocity": 64}, {"time": 2918, "pitch": 61, "duration": 10, "velocity": 102}, {"time": 2918, "pitch": 65, "duration": 6, "velocity": 122}, {"time": 2918, "pitch": 68, "duration": 8, "velocity": 122}, {"time": 2924, "pitch": 49, "duration": 3, "velocity": 69}, {"time": 2930, "pitch": 40, "duration": 16, "velocity": 75}, {"time": 2930, "pitch": 61, "duration": 10, "velocity": 117}, {"time": 2930, "pitch": 64, "duration": 10, "velocity": 107}, {"time": 2930, "pitch": 68, "duration": 6, "velocity": 122}, {"time": 2942, "pitch": 61, "duration": 6, "velocity": 127}, {"time": 2942, "pitch": 64, "duration": 7, "velocity": 127}, {"time": 2942, "pitch": 68, "duration": 6, "velocity": 127}, {"time": 2948, "pitch": 40, "duration": 1, "velocity": 85}, {"time": 2954, "pitch": 41, "duration": 17, "velocity": 92}, {"time": 2954, "pitch": 60, "duration": 9, "velocity": 102}, {"time": 2954, "pitch": 65, "duration": 10, "velocity": 100}, {"time": 2954, "pitch": 68, "duration": 10, "velocity": 127}, {"time": 2960, "pitch": 48, "duration": 7, "velocity": 39}, {"time": 2966, "pitch": 53, "duration": 5, "velocity": 85}, {"time": 2966, "pitch": 65, "duration": 4, "velocity": 117}, {"time": 2966, "pitch": 68, "duration": 4, "velocity": 127}, {"time": 2968, "pitch": 70, "duration": 1, "velocity": 20}, {"time": 2972, "pitch": 40, "duration": 40, "velocity": 72}, {"time": 2972, "pitch": 52, "duration": 39, "velocity": 83}, {"time": 2972, "pitch": 64, "duration": 41, "velocity": 95}, {"time": 2972, "pitch": 67, "duration": 41, "velocity": 100}, {"time": 2972, "pitch": 70, "duration": 41, "velocity": 107}, {"time": 2972, "pitch": 73, "duration": 41, "velocity": 95}, {"time": 2998, "pitch": 70, "duration": 15, "velocity": 70}, {"time": 2998, "pitch": 73, "duration": 15, "velocity": 60}, {"time": 3002, "pitch": 76, "duration": 35, "velocity": 77}, {"time": 3050, "pitch": 46, "duration": 13, "velocity": 86}, {"time": 3050, "pitch": 58, "duration": 12, "velocity": 66}, {"time": 3050, "pitch": 65, "duration": 9, "velocity": 75}, {"time": 3050, "pitch": 70, "duration": 9, "velocity": 81}, {"time": 3050, "pitch": 73, "duration": 9, "velocity": 74}, {"time": 3062, "pitch": 65, "duration": 2, "velocity": 48}, {"time": 3062, "pitch": 70, "duration": 1, "velocity": 53}, {"time": 3062, "pitch": 73, "duration": 1, "velocity": 53}, {"time": 3074, "pitch": 37, "duration": 3, "velocity": 79}, {"time": 3074, "pitch": 49, "duration": 3, "velocity": 75}, {"time": 3074, "pitch": 61, "duration": 3, "velocity": 77}, {"time": 3074, "pitch": 65, "duration": 3, "velocity": 67}, {"time": 3074, "pitch": 68, "duration": 3, "velocity": 66}, {"time": 3098, "pitch": 44, "duration": 19, "velocity": 81}, {"time": 3104, "pitch": 51, "duration": 12, "velocity": 33}, {"time": 3110, "pitch": 56, "duration": 4, "velocity": 52}, {"time": 3110, "pitch": 63, "duration": 13, "velocity": 60}, {"time": 3110, "pitch": 68, "duration": 13, "velocity": 100}, {"time": 3116, "pitch": 60, "duration": 5, "velocity": 89}, {"time": 3122, "pitch": 43, "duration": 13, "velocity": 72}, {"time": 3128, "pitch": 60, "duration": 6, "velocity": 72}, {"time": 3134, "pitch": 63, "duration": 19, "velocity": 86}, {"time": 3134, "pitch": 68, "duration": 19, "velocity": 86}, {"time": 3140, "pitch": 60, "duration": 8, "velocity": 62}, {"time": 3146, "pitch": 42, "duration": 19, "velocity": 97}, {"time": 3152, "pitch": 54, "duration": 9, "velocity": 77}, {"time": 3158, "pitch": 63, "duration": 21, "velocity": 102}, {"time": 3164, "pitch": 60, "duration": 13, "velocity": 92}, {"time": 3170, "pitch": 41, "duration": 19, "velocity": 77}, {"time": 3176, "pitch": 53, "duration": 12, "velocity": 69}, {"time": 3182, "pitch": 60, "duration": 1, "velocity": 47}, {"time": 3182, "pitch": 68, "duration": 12, "velocity": 122}, {"time": 3188, "pitch": 60, "duration": 6, "velocity": 97}, {"time": 3194, "pitch": 40, "duration": 22, "velocity": 75}, {"time": 3194, "pitch": 61, "duration": 10, "velocity": 107}, {"time": 3194, "pitch": 64, "duration": 7, "velocity": 96}, {"time": 3194, "pitch": 68, "duration": 1, "velocity": 97}, {"time": 3200, "pitch": 52, "duration": 17, "velocity": 85}, {"time": 3206, "pitch": 64, "duration": 11, "velocity": 93}, {"time": 3206, "pitch": 68, "duration": 12, "velocity": 102}, {"time": 3212, "pitch": 61, "duration": 6, "velocity": 99}, {"time": 3217, "pitch": 61, "duration": 1, "velocity": 107}, {"time": 3217, "pitch": 56, "duration": 4, "velocity": 99}, {"time": 3218, "pitch": 39, "duration": 39, "velocity": 86}, {"time": 3218, "pitch": 65, "duration": 6, "velocity": 79}, {"time": 3223, "pitch": 56, "duration": 8, "velocity": 95}, {"time": 3230, "pitch": 61, "duration": 27, "velocity": 86}, {"time": 3230, "pitch": 65, "duration": 27, "velocity": 90}, {"time": 3237, "pitch": 56, "duration": 20, "velocity": 96}, {"time": 3254, "pitch": 56, "duration": 3, "velocity": 67}, {"time": 3255, "pitch": 60, "duration": 12, "velocity": 63}, {"time": 3256, "pitch": 63, "duration": 11, "velocity": 82}, {"time": 3257, "pitch": 32, "duration": 1, "velocity": 92}, {"time": 3262, "pitch": 44, "duration": 8, "velocity": 41}, {"time": 3265, "pitch": 48, "duration": 5, "velocity": 70}, {"time": 3267, "pitch": 51, "duration": 4, "velocity": 69}, {"time": 3269, "pitch": 56, "duration": 3, "velocity": 92}, {"time": 3272, "pitch": 60, "duration": 2, "velocity": 72}, {"time": 3274, "pitch": 63, "duration": 1, "velocity": 77}, {"time": 3278, "pitch": 44, "duration": 60, "velocity": 48}, {"time": 3278, "pitch": 51, "duration": 16, "velocity": 56}, {"time": 3278, "pitch": 56, "duration": 45, "velocity": 52}, {"time": 3278, "pitch": 60, "duration": 27, "velocity": 81}, {"time": 3278, "pitch": 78, "duration": 22, "velocity": 35}, {"time": 3284, "pitch": 63, "duration": 5, "velocity": 29}, {"time": 3285, "pitch": 71, "duration": 5, "velocity": 68}, {"time": 3289, "pitch": 63, "duration": 1, "velocity": 22}, {"time": 3293, "pitch": 70, "duration": 7, "velocity": 70}, {"time": 3297, "pitch": 63, "duration": 5, "velocity": 29}, {"time": 3300, "pitch": 51, "duration": 8, "velocity": 22}, {"time": 3300, "pitch": 68, "duration": 3, "velocity": 64}, {"time": 3306, "pitch": 63, "duration": 11, "velocity": 61}, {"time": 3310, "pitch": 60, "duration": 6, "velocity": 81}, {"time": 3317, "pitch": 59, "duration": 6, "velocity": 93}, {"time": 3322, "pitch": 58, "duration": 4, "velocity": 89}, {"time": 3327, "pitch": 56, "duration": 5, "velocity": 64}, {"time": 3331, "pitch": 51, "duration": 5, "velocity": 51}, {"time": 3335, "pitch": 48, "duration": 7, "velocity": 103}, {"time": 3341, "pitch": 47, "duration": 19, "velocity": 89}, {"time": 3355, "pitch": 39, "duration": 143, "velocity": 80}, {"time": 3361, "pitch": 48, "duration": 10, "velocity": 40}, {"time": 3368, "pitch": 44, "duration": 17, "velocity": 58}, {"time": 3368, "pitch": 51, "duration": 59, "velocity": 32}, {"time": 3378, "pitch": 58, "duration": 121, "velocity": 21}], "annotations": [{"time": 30, "annotation": {"number": 64, "value": 127}, "group": "control_change"}, {"time": 48, "annotation": {"number": 64, "value": 0}, "group": "control_change"}, {"time": 50, "annotation": {"number": 64, "value": 127}, "group": "control_change"}, {"time": 69, "annotation": {"number": 64, "value": 0}, "group": "control_change"}, {"time": 74, "annotation": {"number": 64, "value": 127}, "group": "control_change"}, {"time": 81, "annotation": {"number": 64, "value": 0}, "group": "control_change"}, {"time": 91, "annotation": {"number": 64, "value": 127}, "group": "control_change"}, {"time": 97, "annotation": {"number": 64, "value": 0}, "group": "control_change"}, {"time": 109, "annotation": {"number": 64, "value": 127}, "group": "control_change"}, {"time": 119, "annotation": {"number": 64, "value": 0}, "group": "control_change"}, {"time": 168, "annotation": {"number": 64, "value": 127}, "group": "control_change"}, {"time": 265, "annotation": {"number": 64, "value": 127}, "group": "control_change"}, {"time": 360, "annotation": {"number": 64, "value": 0}, "group": "control_change"}, {"time": 362, "annotation": {"number": 64, "value": 127}, "group": "control_change"}, {"time": 383, "annotation": {"number": 64, "value": 0}, "group": "control_change"}, {"time": 386, "annotation": {"number": 64, "value": 127}, "group": "control_change"}, {"time": 407, "annotation": {"number": 64, "value": 0}, "group": "control_change"}, {"time": 409, "annotation": {"number": 64, "value": 127}, "group": "control_change"}, {"time": 456, "annotation": {"number": 64, "value": 0}, "group": "control_change"}, {"time": 458, "annotation": {"number": 64, "value": 127}, "group": "control_change"}, {"time": 480, "annotation": {"number": 64, "value": 0}, "group": "control_change"}, {"time": 481, "annotation": {"number": 64, "value": 127}, "group": "control_change"}, {"time": 504, "annotation": {"number": 64, "value": 0}, "group": "control_change"}, {"time": 505, "annotation": {"number": 64, "value": 127}, "group": "control_change"}, {"time": 528, "annotation": {"number": 64, "value": 0}, "group": "control_change"}, {"time": 530, "annotation": {"number": 64, "value": 127}, "group": "control_change"}, {"time": 552, "annotation": {"number": 64, "value": 0}, "group": "control_change"}, {"time": 554, "annotation": {"number": 64, "value": 127}, "group": "control_change"}, {"time": 575, "annotation": {"number": 64, "value": 0}, "group": "control_change"}, {"time": 578, "annotation": {"number": 64, "value": 127}, "group": "control_change"}, {"time": 599, "annotation": {"number": 64, "value": 0}, "group": "control_change"}, {"time": 601, "annotation": {"number": 64, "value": 127}, "group": "control_change"}, {"time": 646, "annotation": {"number": 64, "value": 0}, "group": "control_change"}, {"time": 650, "annotation": {"number": 64, "value": 127}, "group": "control_change"}, {"time": 670, "annotation": {"number": 64, "value": 0}, "group": "control_change"}, {"time": 673, "annotation": {"number": 64, "value": 127}, "group": "control_change"}, {"time": 695, "annotation": {"number": 64, "value": 0}, "group": "control_change"}, {"time": 698, "annotation": {"number": 64, "value": 127}, "group": "control_change"}, {"time": 719, "annotation": {"number": 64, "value": 0}, "group": "control_change"}, {"time": 721, "annotation": {"number": 64, "value": 127}, "group": "control_change"}, {"time": 742, "annotation": {"number": 64, "value": 0}, "group": "control_change"}, {"time": 746, "annotation": {"number": 64, "value": 127}, "group": "control_change"}, {"time": 765, "annotation": {"number": 64, "value": 0}, "group": "control_change"}, {"time": 769, "annotation": {"number": 64, "value": 127}, "group": "control_change"}, {"time": 790, "annotation": {"number": 64, "value": 0}, "group": "control_change"}, {"time": 793, "annotation": {"number": 64, "value": 127}, "group": "control_change"}, {"time": 815, "annotation": {"number": 64, "value": 0}, "group": "control_change"}, {"time": 818, "annotation": {"number": 64, "value": 127}, "group": "control_change"}, {"time": 839, "annotation": {"number": 64, "value": 0}, "group": "control_change"}, {"time": 842, "annotation": {"number": 64, "value": 127}, "group": "control_change"}, {"time": 864, "annotation": {"number": 64, "value": 0}, "group": "control_change"}, {"time": 865, "annotation": {"number": 64, "value": 127}, "group": "control_change"}, {"time": 887, "annotation": {"number": 64, "value": 0}, "group": "control_change"}, {"time": 890, "annotation": {"number": 64, "value": 127}, "group": "control_change"}, {"time": 911, "annotation": {"number": 64, "value": 0}, "group": "control_change"}, {"time": 914, "annotation": {"number": 64, "value": 127}, "group": "control_change"}, {"time": 935, "annotation": {"number": 64, "value": 0}, "group": "control_change"}, {"time": 938, "annotation": {"number": 64, "value": 127}, "group": "control_change"}, {"time": 959, "annotation": {"number": 64, "value": 0}, "group": "control_change"}, {"time": 962, "annotation": {"number": 64, "value": 127}, "group": "control_change"}, {"time": 983, "annotation": {"number": 64, "value": 0}, "group": "control_change"}, {"time": 986, "annotation": {"number": 64, "value": 127}, "group": "control_change"}, {"time": 1006, "annotation": {"number": 64, "value": 0}, "group": "control_change"}, {"time": 1009, "annotation": {"number": 64, "value": 127}, "group": "control_change"}, {"time": 1030, "annotation": {"number": 64, "value": 0}, "group": "control_change"}, {"time": 1033, "annotation": {"number": 64, "value": 127}, "group": "control_change"}, {"time": 1055, "annotation": {"number": 64, "value": 0}, "group": "control_change"}, {"time": 1057, "annotation": {"number": 64, "value": 127}, "group": "control_change"}, {"time": 1080, "annotation": {"number": 64, "value": 0}, "group": "control_change"}, {"time": 1082, "annotation": {"number": 64, "value": 127}, "group": "control_change"}, {"time": 1102, "annotation": {"number": 64, "value": 0}, "group": "control_change"}, {"time": 1106, "annotation": {"number": 64, "value": 127}, "group": "control_change"}, {"time": 1126, "annotation": {"number": 64, "value": 0}, "group": "control_change"}, {"time": 1130, "annotation": {"number": 64, "value": 127}, "group": "control_change"}, {"time": 1149, "annotation": {"number": 64, "value": 0}, "group": "control_change"}, {"time": 1154, "annotation": {"number": 64, "value": 127}, "group": "control_change"}, {"time": 1175, "annotation": {"number": 64, "value": 0}, "group": "control_change"}, {"time": 1177, "annotation": {"number": 64, "value": 127}, "group": "control_change"}, {"time": 1198, "annotation": {"number": 64, "value": 0}, "group": "control_change"}, {"time": 1201, "annotation": {"number": 64, "value": 127}, "group": "control_change"}, {"time": 1223, "annotation": {"number": 64, "value": 0}, "group": "control_change"}, {"time": 1225, "annotation": {"number": 64, "value": 127}, "group": "control_change"}, {"time": 1247, "annotation": {"number": 64, "value": 0}, "group": "control_change"}, {"time": 1249, "annotation": {"number": 64, "value": 127}, "group": "control_change"}, {"time": 1271, "annotation": {"number": 64, "value": 0}, "group": "control_change"}, {"time": 1273, "annotation": {"number": 64, "value": 127}, "group": "control_change"}, {"time": 1294, "annotation": {"number": 64, "value": 0}, "group": "control_change"}, {"time": 1297, "annotation": {"number": 64, "value": 127}, "group": "control_change"}, {"time": 1307, "annotation": {"number": 64, "value": 0}, "group": "control_change"}, {"time": 1310, "annotation": {"number": 64, "value": 127}, "group": "control_change"}, {"time": 1318, "annotation": {"number": 64, "value": 0}, "group": "control_change"}, {"time": 1321, "annotation": {"number": 64, "value": 127}, "group": "control_change"}, {"time": 1343, "annotation": {"number": 64, "value": 0}, "group": "control_change"}, {"time": 1345, "annotation": {"number": 64, "value": 127}, "group": "control_change"}, {"time": 1346, "annotation": {"number": 64, "value": 127}, "group": "control_change"}, {"time": 1349, "annotation": {"number": 64, "value": 0}, "group": "control_change"}, {"time": 1370, "annotation": {"number": 64, "value": 127}, "group": "control_change"}, {"time": 1415, "annotation": {"number": 64, "value": 0}, "group": "control_change"}, {"time": 1417, "annotation": {"number": 64, "value": 127}, "group": "control_change"}, {"time": 1464, "annotation": {"number": 64, "value": 0}, "group": "control_change"}, {"time": 1466, "annotation": {"number": 64, "value": 127}, "group": "control_change"}, {"time": 1488, "annotation": {"number": 64, "value": 0}, "group": "control_change"}, {"time": 1489, "annotation": {"number": 64, "value": 127}, "group": "control_change"}, {"time": 1513, "annotation": {"number": 64, "value": 127}, "group": "control_change"}, {"time": 1524, "annotation": {"number": 64, "value": 0}, "group": "control_change"}, {"time": 1562, "annotation": {"number": 64, "value": 127}, "group": "control_change"}, {"time": 1582, "annotation": {"number": 64, "value": 0}, "group": "control_change"}, {"time": 1585, "annotation": {"number": 64, "value": 127}, "group": "control_change"}, {"time": 1607, "annotation": {"number": 64, "value": 0}, "group": "control_change"}, {"time": 1610, "annotation": {"number": 64, "value": 127}, "group": "control_change"}, {"time": 1631, "annotation": {"number": 64, "value": 0}, "group": "control_change"}, {"time": 1633, "annotation": {"number": 64, "value": 127}, "group": "control_change"}, {"time": 1654, "annotation": {"number": 64, "value": 0}, "group": "control_change"}, {"time": 1658, "annotation": {"number": 64, "value": 127}, "group": "control_change"}, {"time": 1677, "annotation": {"number": 64, "value": 0}, "group": "control_change"}, {"time": 1681, "annotation": {"number": 64, "value": 127}, "group": "control_change"}, {"time": 1702, "annotation": {"number": 64, "value": 0}, "group": "control_change"}, {"time": 1705, "annotation": {"number": 64, "value": 127}, "group": "control_change"}, {"time": 1727, "annotation": {"number": 64, "value": 0}, "group": "control_change"}, {"time": 1730, "annotation": {"number": 64, "value": 127}, "group": "control_change"}, {"time": 1751, "annotation": {"number": 64, "value": 0}, "group": "control_change"}, {"time": 1754, "annotation": {"number": 64, "value": 127}, "group": "control_change"}, {"time": 1776, "annotation": {"number": 64, "value": 0}, "group": "control_change"}, {"time": 1777, "annotation": {"number": 64, "value": 127}, "group": "control_change"}, {"time": 1799, "annotation": {"number": 64, "value": 0}, "group": "control_change"}, {"time": 1802, "annotation": {"number": 64, "value": 127}, "group": "control_change"}, {"time": 1823, "annotation": {"number": 64, "value": 0}, "group": "control_change"}, {"time": 1826, "annotation": {"number": 64, "value": 127}, "group": "control_change"}, {"time": 1847, "annotation": {"number": 64, "value": 0}, "group": "control_change"}, {"time": 1850, "annotation": {"number": 64, "value": 127}, "group": "control_change"}, {"time": 1871, "annotation": {"number": 64, "value": 0}, "group": "control_change"}, {"time": 1874, "annotation": {"number": 64, "value": 127}, "group": "control_change"}, {"time": 1895, "annotation": {"number": 64, "value": 0}, "group": "control_change"}, {"time": 1898, "annotation": {"number": 64, "value": 127}, "group": "control_change"}, {"time": 1918, "annotation": {"number": 64, "value": 0}, "group": "control_change"}, {"time": 1921, "annotation": {"number": 64, "value": 127}, "group": "control_change"}, {"time": 1942, "annotation": {"number": 64, "value": 0}, "group": "control_change"}, {"time": 1945, "annotation": {"number": 64, "value": 127}, "group": "control_change"}, {"time": 1967, "annotation": {"number": 64, "value": 0}, "group": "control_change"}, {"time": 1969, "annotation": {"number": 64, "value": 127}, "group": "control_change"}, {"time": 1992, "annotation": {"number": 64, "value": 0}, "group": "control_change"}, {"time": 1994, "annotation": {"number": 64, "value": 127}, "group": "control_change"}, {"time": 2014, "annotation": {"number": 64, "value": 0}, "group": "control_change"}, {"time": 2018, "annotation": {"number": 64, "value": 127}, "group": "control_change"}, {"time": 2038, "annotation": {"number": 64, "value": 0}, "group": "control_change"}, {"time": 2042, "annotation": {"number": 64, "value": 127}, "group": "control_change"}, {"time": 2061, "annotation": {"number": 64, "value": 0}, "group": "control_change"}, {"time": 2066, "annotation": {"number": 64, "value": 127}, "group": "control_change"}, {"time": 2087, "annotation": {"number": 64, "value": 0}, "group": "control_change"}, {"time": 2089, "annotation": {"number": 64, "value": 127}, "group": "control_change"}, {"time": 2110, "annotation": {"number": 64, "value": 0}, "group": "control_change"}, {"time": 2113, "annotation": {"number": 64, "value": 127}, "group": "control_change"}, {"time": 2135, "annotation": {"number": 64, "value": 0}, "group": "control_change"}, {"time": 2137, "annotation": {"number": 64, "value": 127}, "group": "control_change"}, {"time": 2159, "annotation": {"number": 64, "value": 0}, "group": "control_change"}, {"time": 2161, "annotation": {"number": 64, "value": 127}, "group": "control_change"}, {"time": 2183, "annotation": {"number": 64, "value": 0}, "group": "control_change"}, {"time": 2185, "annotation": {"number": 64, "value": 127}, "group": "control_change"}, {"time": 2206, "annotation": {"number": 64, "value": 0}, "group": "control_change"}, {"time": 2209, "annotation": {"number": 64, "value": 127}, "group": "control_change"}, {"time": 2219, "annotation": {"number": 64, "value": 0}, "group": "control_change"}, {"time": 2222, "annotation": {"number": 64, "value": 127}, "group": "control_change"}, {"time": 2230, "annotation": {"number": 64, "value": 0}, "group": "control_change"}, {"time": 2233, "annotation": {"number": 64, "value": 127}, "group": "control_change"}, {"time": 2255, "annotation": {"number": 64, "value": 0}, "group": "control_change"}, {"time": 2257, "annotation": {"number": 64, "value": 127}, "group": "control_change"}, {"time": 2258, "annotation": {"number": 64, "value": 127}, "group": "control_change"}, {"time": 2279, "annotation": {"number": 64, "value": 0}, "group": "control_change"}, {"time": 2282, "annotation": {"number": 64, "value": 127}, "group": "control_change"}, {"time": 2303, "annotation": {"number": 64, "value": 0}, "group": "control_change"}, {"time": 2306, "annotation": {"number": 64, "value": 127}, "group": "control_change"}, {"time": 2328, "annotation": {"number": 64, "value": 0}, "group": "control_change"}, {"time": 2330, "annotation": {"number": 64, "value": 127}, "group": "control_change"}, {"time": 2351, "annotation": {"number": 64, "value": 0}, "group": "control_change"}, {"time": 2353, "annotation": {"number": 64, "value": 127}, "group": "control_change"}, {"time": 2375, "annotation": {"number": 64, "value": 0}, "group": "control_change"}, {"time": 2377, "annotation": {"number": 64, "value": 127}, "group": "control_change"}, {"time": 2414, "annotation": {"number": 64, "value": 127}, "group": "control_change"}, {"time": 2422, "annotation": {"number": 64, "value": 0}, "group": "control_change"}, {"time": 2425, "annotation": {"number": 64, "value": 127}, "group": "control_change"}, {"time": 2447, "annotation": {"number": 64, "value": 0}, "group": "control_change"}, {"time": 2449, "annotation": {"number": 64, "value": 127}, "group": "control_change"}, {"time": 2471, "annotation": {"number": 64, "value": 0}, "group": "control_change"}, {"time": 2474, "annotation": {"number": 64, "value": 127}, "group": "control_change"}, {"time": 2495, "annotation": {"number": 64, "value": 0}, "group": "control_change"}, {"time": 2497, "annotation": {"number": 64, "value": 127}, "group": "control_change"}, {"time": 2519, "annotation": {"number": 64, "value": 0}, "group": "control_change"}, {"time": 2521, "annotation": {"number": 64, "value": 127}, "group": "control_change"}, {"time": 2543, "annotation": {"number": 64, "value": 0}, "group": "control_change"}, {"time": 2545, "annotation": {"number": 64, "value": 127}, "group": "control_change"}, {"time": 2565, "annotation": {"number": 64, "value": 0}, "group": "control_change"}, {"time": 2569, "annotation": {"number": 64, "value": 127}, "group": "control_change"}, {"time": 2570, "annotation": {"number": 64, "value": 127}, "group": "control_change"}, {"time": 2591, "annotation": {"number": 64, "value": 0}, "group": "control_change"}, {"time": 2593, "annotation": {"number": 64, "value": 127}, "group": "control_change"}, {"time": 2615, "annotation": {"number": 64, "value": 0}, "group": "control_change"}, {"time": 2618, "annotation": {"number": 64, "value": 127}, "group": "control_change"}, {"time": 2638, "annotation": {"number": 64, "value": 0}, "group": "control_change"}, {"time": 2642, "annotation": {"number": 64, "value": 127}, "group": "control_change"}, {"time": 2650, "annotation": {"number": 64, "value": 0}, "group": "control_change"}, {"time": 2654, "annotation": {"number": 64, "value": 127}, "group": "control_change"}, {"time": 2662, "annotation": {"number": 64, "value": 0}, "group": "control_change"}, {"time": 2665, "annotation": {"number": 64, "value": 127}, "group": "control_change"}, {"time": 2670, "annotation": {"number": 64, "value": 0}, "group": "control_change"}, {"time": 2677, "annotation": {"number": 64, "value": 127}, "group": "control_change"}, {"time": 2681, "annotation": {"number": 64, "value": 0}, "group": "control_change"}, {"time": 2725, "annotation": {"number": 64, "value": 127}, "group": "control_change"}, {"time": 2734, "annotation": {"number": 64, "value": 0}, "group": "control_change"}, {"time": 2810, "annotation": {"number": 64, "value": 127}, "group": "control_change"}, {"time": 2832, "annotation": {"number": 64, "value": 0}, "group": "control_change"}, {"time": 2834, "annotation": {"number": 64, "value": 127}, "group": "control_change"}, {"time": 2855, "annotation": {"number": 64, "value": 0}, "group": "control_change"}, {"time": 2857, "annotation": {"number": 64, "value": 127}, "group": "control_change"}, {"time": 2858, "annotation": {"number": 64, "value": 127}, "group": "control_change"}, {"time": 2879, "annotation": {"number": 64, "value": 0}, "group": "control_change"}, {"time": 2881, "annotation": {"number": 64, "value": 127}, "group": "control_change"}, {"time": 2902, "annotation": {"number": 64, "value": 0}, "group": "control_change"}, {"time": 2906, "annotation": {"number": 64, "value": 127}, "group": "control_change"}, {"time": 2927, "annotation": {"number": 64, "value": 0}, "group": "control_change"}, {"time": 2929, "annotation": {"number": 64, "value": 127}, "group": "control_change"}, {"time": 2951, "annotation": {"number": 64, "value": 0}, "group": "control_change"}, {"time": 2954, "annotation": {"number": 64, "value": 127}, "group": "control_change"}, {"time": 2970, "annotation": {"number": 64, "value": 0}, "group": "control_change"}, {"time": 2982, "annotation": {"number": 64, "value": 127}, "group": "control_change"}, {"time": 2993, "annotation": {"number": 64, "value": 127}, "group": "control_change"}, {"time": 2999, "annotation": {"number": 64, "value": 0}, "group": "control_change"}, {"time": 3011, "annotation": {"number": 64, "value": 0}, "group": "control_change"}, {"time": 3032, "annotation": {"number": 64, "value": 127}, "group": "control_change"}, {"time": 3034, "annotation": {"number": 64, "value": 0}, "group": "control_change"}, {"time": 3050, "annotation": {"number": 64, "value": 127}, "group": "control_change"}, {"time": 3073, "annotation": {"number": 64, "value": 0}, "group": "control_change"}, {"time": 3098, "annotation": {"number": 64, "value": 127}, "group": "control_change"}, {"time": 3120, "annotation": {"number": 64, "value": 0}, "group": "control_change"}, {"time": 3121, "annotation": {"number": 64, "value": 127}, "group": "control_change"}, {"time": 3144, "annotation": {"number": 64, "value": 0}, "group": "control_change"}, {"time": 3146, "annotation": {"number": 64, "value": 127}, "group": "control_change"}, {"time": 3168, "annotation": {"number": 64, "value": 0}, "group": "control_change"}, {"time": 3170, "annotation": {"number": 64, "value": 127}, "group": "control_change"}, {"time": 3191, "annotation": {"number": 64, "value": 0}, "group": "control_change"}, {"time": 3193, "annotation": {"number": 64, "value": 127}, "group": "control_change"}, {"time": 3216, "annotation": {"number": 64, "value": 0}, "group": "control_change"}, {"time": 3218, "annotation": {"number": 64, "value": 127}, "group": "control_change"}, {"time": 3257, "annotation": {"number": 64, "value": 0}, "group": "control_change"}, {"time": 3258, "annotation": {"number": 64, "value": 127}, "group": "control_change"}, {"time": 3263, "annotation": {"number": 64, "value": 127}, "group": "control_change"}, {"time": 3298, "annotation": {"number": 64, "value": 0}, "group": "control_change"}, {"time": 3299, "annotation": {"number": 64, "value": 127}, "group": "control_change"}, {"time": 3470, "annotation": {"number": 64, "value": 0}, "group": "control_change"}, {"time": 3471, "annotation": {"number": 64, "value": 127}, "group": "control_change"}, {"time": 3474, "annotation": {"number": 64, "value": 0}, "group": "control_change"}, {"time": 3474, "annotation": {"number": 64, "value": 127}, "group": "control_change"}, {"time": 3476, "annotation": {"number": 64, "value": 0}, "group": "control_change"}, {"time": 3476, "annotation": {"number": 64, "value": 127}, "group": "control_change"}, {"time": 3477, "annotation": {"number": 64, "value": 0}, "group": "control_change"}, {"time": 3478, "annotation": {"number": 64, "value": 127}, "group": "control_change"}, {"time": 3479, "annotation": {"number": 64, "value": 0}, "group": "control_change"}, {"time": 3480, "annotation": {"number": 64, "value": 127}, "group": "control_change"}, {"time": 3484, "annotation": {"number": 64, "value": 0}, "group": "control_change"}]}]}