{"metadata": {"schema_version": "0.2", "title": "None", "source_filename": "466.mid", "source_format": "midi"}, "resolution": 12, "tempos": [{"time": 0, "qpm": 73.00007178340392}], "time_signatures": [{"time": 0, "numerator": 1, "denominator": 4}], "tracks": [{"program": 0, "is_drum": false, "name": "MELODY", "notes": [{"time": 292, "pitch": 58, "duration": 12, "velocity": 89}, {"time": 304, "pitch": 58, "duration": 5, "velocity": 102}, {"time": 310, "pitch": 65, "duration": 6, "velocity": 83}, {"time": 316, "pitch": 63, "duration": 9, "velocity": 97}, {"time": 328, "pitch": 61, "duration": 4, "velocity": 102}, {"time": 334, "pitch": 60, "duration": 5, "velocity": 72}, {"time": 340, "pitch": 58, "duration": 6, "velocity": 92}, {"time": 346, "pitch": 61, "duration": 5, "velocity": 90}, {"time": 352, "pitch": 60, "duration": 5, "velocity": 89}, {"time": 358, "pitch": 56, "duration": 6, "velocity": 90}, {"time": 364, "pitch": 53, "duration": 8, "velocity": 82}, {"time": 376, "pitch": 53, "duration": 5, "velocity": 95}, {"time": 382, "pitch": 56, "duration": 5, "velocity": 89}, {"time": 388, "pitch": 58, "duration": 13, "velocity": 99}, {"time": 406, "pitch": 61, "duration": 4, "velocity": 100}, {"time": 412, "pitch": 63, "duration": 5, "velocity": 90}, {"time": 418, "pitch": 65, "duration": 3, "velocity": 79}, {"time": 421, "pitch": 63, "duration": 3, "velocity": 97}, {"time": 424, "pitch": 61, "duration": 5, "velocity": 82}, {"time": 430, "pitch": 63, "duration": 5, "velocity": 95}, {"time": 436, "pitch": 65, "duration": 19, "velocity": 96}, {"time": 454, "pitch": 65, "duration": 1, "velocity": 100}, {"time": 457, "pitch": 63, "duration": 1, "velocity": 92}, {"time": 460, "pitch": 63, "duration": 11, "velocity": 99}, {"time": 484, "pitch": 58, "duration": 12, "velocity": 89}, {"time": 496, "pitch": 58, "duration": 5, "velocity": 102}, {"time": 502, "pitch": 65, "duration": 6, "velocity": 83}, {"time": 508, "pitch": 63, "duration": 9, "velocity": 97}, {"time": 520, "pitch": 61, "duration": 4, "velocity": 102}, {"time": 526, "pitch": 60, "duration": 5, "velocity": 72}, {"time": 532, "pitch": 58, "duration": 6, "velocity": 92}, {"time": 538, "pitch": 61, "duration": 5, "velocity": 90}, {"time": 544, "pitch": 63, "duration": 5, "velocity": 99}, {"time": 550, "pitch": 60, "duration": 5, "velocity": 107}, {"time": 556, "pitch": 56, "duration": 11, "velocity": 92}, {"time": 568, "pitch": 53, "duration": 4, "velocity": 96}, {"time": 574, "pitch": 56, "duration": 4, "velocity": 97}, {"time": 580, "pitch": 58, "duration": 9, "velocity": 93}, {"time": 598, "pitch": 61, "duration": 5, "velocity": 117}, {"time": 604, "pitch": 60, "duration": 5, "velocity": 122}, {"time": 610, "pitch": 61, "duration": 2, "velocity": 112}, {"time": 613, "pitch": 60, "duration": 3, "velocity": 93}, {"time": 616, "pitch": 58, "duration": 4, "velocity": 96}, {"time": 622, "pitch": 56, "duration": 6, "velocity": 107}, {"time": 628, "pitch": 58, "duration": 26, "velocity": 99}, {"time": 658, "pitch": 58, "duration": 5, "velocity": 107}, {"time": 664, "pitch": 61, "duration": 3, "velocity": 102}, {"time": 670, "pitch": 65, "duration": 4, "velocity": 100}, {"time": 676, "pitch": 66, "duration": 11, "velocity": 122}, {"time": 694, "pitch": 63, "duration": 2, "velocity": 112}, {"time": 697, "pitch": 65, "duration": 2, "velocity": 89}, {"time": 700, "pitch": 66, "duration": 3, "velocity": 127}, {"time": 706, "pitch": 70, "duration": 4, "velocity": 127}, {"time": 712, "pitch": 68, "duration": 3, "velocity": 127}, {"time": 718, "pitch": 66, "duration": 3, "velocity": 127}, {"time": 724, "pitch": 65, "duration": 8, "velocity": 127}, {"time": 742, "pitch": 61, "duration": 2, "velocity": 127}, {"time": 745, "pitch": 63, "duration": 2, "velocity": 112}, {"time": 748, "pitch": 63, "duration": 1, "velocity": 53}, {"time": 748, "pitch": 65, "duration": 3, "velocity": 97}, {"time": 754, "pitch": 68, "duration": 6, "velocity": 127}, {"time": 760, "pitch": 66, "duration": 5, "velocity": 117}, {"time": 766, "pitch": 65, "duration": 5, "velocity": 117}, {"time": 772, "pitch": 63, "duration": 10, "velocity": 117}, {"time": 790, "pitch": 59, "duration": 1, "velocity": 92}, {"time": 793, "pitch": 61, "duration": 2, "velocity": 107}, {"time": 796, "pitch": 63, "duration": 5, "velocity": 102}, {"time": 802, "pitch": 66, "duration": 3, "velocity": 117}, {"time": 808, "pitch": 65, "duration": 4, "velocity": 117}, {"time": 814, "pitch": 63, "duration": 3, "velocity": 122}, {"time": 820, "pitch": 63, "duration": 2, "velocity": 127}, {"time": 823, "pitch": 65, "duration": 22, "velocity": 107}, {"time": 856, "pitch": 65, "duration": 5, "velocity": 107}, {"time": 862, "pitch": 68, "duration": 5, "velocity": 127}, {"time": 868, "pitch": 70, "duration": 8, "velocity": 127}, {"time": 874, "pitch": 65, "duration": 1, "velocity": 89}, {"time": 877, "pitch": 65, "duration": 3, "velocity": 99}, {"time": 883, "pitch": 68, "duration": 7, "velocity": 122}, {"time": 892, "pitch": 63, "duration": 9, "velocity": 117}, {"time": 904, "pitch": 63, "duration": 4, "velocity": 122}, {"time": 910, "pitch": 65, "duration": 4, "velocity": 100}, {"time": 916, "pitch": 68, "duration": 4, "velocity": 122}, {"time": 922, "pitch": 63, "duration": 1, "velocity": 107}, {"time": 925, "pitch": 63, "duration": 4, "velocity": 93}, {"time": 931, "pitch": 65, "duration": 7, "velocity": 99}, {"time": 940, "pitch": 58, "duration": 10, "velocity": 100}, {"time": 952, "pitch": 65, "duration": 5, "velocity": 112}, {"time": 958, "pitch": 68, "duration": 4, "velocity": 117}, {"time": 964, "pitch": 70, "duration": 5, "velocity": 127}, {"time": 970, "pitch": 65, "duration": 1, "velocity": 107}, {"time": 973, "pitch": 65, "duration": 3, "velocity": 93}, {"time": 979, "pitch": 73, "duration": 7, "velocity": 127}, {"time": 988, "pitch": 72, "duration": 6, "velocity": 127}, {"time": 994, "pitch": 68, "duration": 4, "velocity": 122}, {"time": 1000, "pitch": 63, "duration": 4, "velocity": 127}, {"time": 1006, "pitch": 60, "duration": 4, "velocity": 107}, {"time": 1012, "pitch": 63, "duration": 4, "velocity": 127}, {"time": 1018, "pitch": 61, "duration": 1, "velocity": 102}, {"time": 1021, "pitch": 61, "duration": 7, "velocity": 122}, {"time": 1027, "pitch": 65, "duration": 2, "velocity": 122}, {"time": 1033, "pitch": 65, "duration": 7, "velocity": 127}, {"time": 1048, "pitch": 65, "duration": 5, "velocity": 107}, {"time": 1054, "pitch": 68, "duration": 5, "velocity": 127}, {"time": 1060, "pitch": 70, "duration": 8, "velocity": 127}, {"time": 1066, "pitch": 65, "duration": 1, "velocity": 89}, {"time": 1069, "pitch": 65, "duration": 3, "velocity": 99}, {"time": 1075, "pitch": 68, "duration": 7, "velocity": 122}, {"time": 1084, "pitch": 63, "duration": 9, "velocity": 117}, {"time": 1096, "pitch": 63, "duration": 4, "velocity": 122}, {"time": 1102, "pitch": 65, "duration": 4, "velocity": 100}, {"time": 1108, "pitch": 68, "duration": 4, "velocity": 122}, {"time": 1114, "pitch": 72, "duration": 1, "velocity": 117}, {"time": 1117, "pitch": 72, "duration": 3, "velocity": 97}, {"time": 1123, "pitch": 73, "duration": 9, "velocity": 127}, {"time": 1132, "pitch": 70, "duration": 7, "velocity": 117}, {"time": 1144, "pitch": 70, "duration": 3, "velocity": 127}, {"time": 1150, "pitch": 68, "duration": 3, "velocity": 127}, {"time": 1156, "pitch": 66, "duration": 4, "velocity": 127}, {"time": 1162, "pitch": 68, "duration": 2, "velocity": 127}, {"time": 1165, "pitch": 70, "duration": 3, "velocity": 127}, {"time": 1174, "pitch": 73, "duration": 4, "velocity": 127}, {"time": 1180, "pitch": 73, "duration": 7, "velocity": 127}, {"time": 1186, "pitch": 72, "duration": 4, "velocity": 107}, {"time": 1192, "pitch": 72, "duration": 7, "velocity": 112}, {"time": 1201, "pitch": 70, "duration": 36, "velocity": 117}, {"time": 1828, "pitch": 58, "duration": 12, "velocity": 89}, {"time": 1840, "pitch": 58, "duration": 5, "velocity": 102}, {"time": 1846, "pitch": 65, "duration": 6, "velocity": 83}, {"time": 1852, "pitch": 63, "duration": 9, "velocity": 97}, {"time": 1864, "pitch": 61, "duration": 4, "velocity": 102}, {"time": 1870, "pitch": 60, "duration": 5, "velocity": 72}, {"time": 1876, "pitch": 58, "duration": 6, "velocity": 92}, {"time": 1882, "pitch": 61, "duration": 5, "velocity": 90}, {"time": 1888, "pitch": 63, "duration": 5, "velocity": 99}, {"time": 1894, "pitch": 60, "duration": 5, "velocity": 107}, {"time": 1900, "pitch": 56, "duration": 11, "velocity": 92}, {"time": 1912, "pitch": 53, "duration": 4, "velocity": 96}, {"time": 1918, "pitch": 56, "duration": 4, "velocity": 97}, {"time": 1924, "pitch": 58, "duration": 9, "velocity": 93}, {"time": 1942, "pitch": 61, "duration": 5, "velocity": 117}, {"time": 1948, "pitch": 60, "duration": 5, "velocity": 122}, {"time": 1954, "pitch": 61, "duration": 2, "velocity": 112}, {"time": 1957, "pitch": 60, "duration": 3, "velocity": 93}, {"time": 1960, "pitch": 58, "duration": 4, "velocity": 96}, {"time": 1966, "pitch": 56, "duration": 6, "velocity": 107}, {"time": 1972, "pitch": 58, "duration": 26, "velocity": 99}, {"time": 2002, "pitch": 58, "duration": 5, "velocity": 107}, {"time": 2008, "pitch": 61, "duration": 3, "velocity": 102}, {"time": 2014, "pitch": 65, "duration": 4, "velocity": 100}, {"time": 2020, "pitch": 66, "duration": 11, "velocity": 122}, {"time": 2038, "pitch": 63, "duration": 2, "velocity": 112}, {"time": 2041, "pitch": 65, "duration": 2, "velocity": 89}, {"time": 2044, "pitch": 66, "duration": 3, "velocity": 127}, {"time": 2050, "pitch": 70, "duration": 4, "velocity": 127}, {"time": 2056, "pitch": 68, "duration": 3, "velocity": 127}, {"time": 2062, "pitch": 66, "duration": 3, "velocity": 127}, {"time": 2068, "pitch": 65, "duration": 8, "velocity": 127}, {"time": 2086, "pitch": 61, "duration": 2, "velocity": 127}, {"time": 2089, "pitch": 63, "duration": 2, "velocity": 112}, {"time": 2092, "pitch": 63, "duration": 1, "velocity": 53}, {"time": 2092, "pitch": 65, "duration": 3, "velocity": 97}, {"time": 2098, "pitch": 68, "duration": 6, "velocity": 127}, {"time": 2104, "pitch": 66, "duration": 5, "velocity": 117}, {"time": 2110, "pitch": 65, "duration": 5, "velocity": 117}, {"time": 2116, "pitch": 63, "duration": 10, "velocity": 117}, {"time": 2134, "pitch": 59, "duration": 1, "velocity": 92}, {"time": 2137, "pitch": 61, "duration": 2, "velocity": 107}, {"time": 2140, "pitch": 63, "duration": 5, "velocity": 102}, {"time": 2146, "pitch": 66, "duration": 3, "velocity": 117}, {"time": 2152, "pitch": 65, "duration": 4, "velocity": 117}, {"time": 2158, "pitch": 63, "duration": 3, "velocity": 122}, {"time": 2164, "pitch": 63, "duration": 2, "velocity": 127}, {"time": 2167, "pitch": 65, "duration": 22, "velocity": 107}, {"time": 2200, "pitch": 65, "duration": 5, "velocity": 107}, {"time": 2206, "pitch": 68, "duration": 5, "velocity": 127}, {"time": 2212, "pitch": 70, "duration": 8, "velocity": 127}, {"time": 2218, "pitch": 65, "duration": 1, "velocity": 89}, {"time": 2221, "pitch": 65, "duration": 3, "velocity": 99}, {"time": 2227, "pitch": 68, "duration": 7, "velocity": 122}, {"time": 2236, "pitch": 63, "duration": 9, "velocity": 117}, {"time": 2248, "pitch": 63, "duration": 4, "velocity": 122}, {"time": 2254, "pitch": 65, "duration": 4, "velocity": 100}, {"time": 2260, "pitch": 68, "duration": 4, "velocity": 122}, {"time": 2266, "pitch": 63, "duration": 1, "velocity": 107}, {"time": 2269, "pitch": 63, "duration": 4, "velocity": 93}, {"time": 2275, "pitch": 65, "duration": 7, "velocity": 99}, {"time": 2284, "pitch": 58, "duration": 10, "velocity": 100}, {"time": 2296, "pitch": 65, "duration": 5, "velocity": 112}, {"time": 2302, "pitch": 68, "duration": 4, "velocity": 117}, {"time": 2308, "pitch": 70, "duration": 5, "velocity": 127}, {"time": 2314, "pitch": 65, "duration": 1, "velocity": 107}, {"time": 2317, "pitch": 65, "duration": 3, "velocity": 93}, {"time": 2323, "pitch": 73, "duration": 7, "velocity": 127}, {"time": 2332, "pitch": 72, "duration": 6, "velocity": 127}, {"time": 2338, "pitch": 68, "duration": 4, "velocity": 122}, {"time": 2344, "pitch": 63, "duration": 4, "velocity": 127}, {"time": 2350, "pitch": 60, "duration": 4, "velocity": 107}, {"time": 2356, "pitch": 63, "duration": 4, "velocity": 127}, {"time": 2362, "pitch": 61, "duration": 1, "velocity": 102}, {"time": 2365, "pitch": 61, "duration": 7, "velocity": 122}, {"time": 2371, "pitch": 65, "duration": 2, "velocity": 122}, {"time": 2377, "pitch": 65, "duration": 7, "velocity": 127}, {"time": 2392, "pitch": 65, "duration": 5, "velocity": 107}, {"time": 2398, "pitch": 68, "duration": 5, "velocity": 127}, {"time": 2404, "pitch": 70, "duration": 8, "velocity": 127}, {"time": 2410, "pitch": 65, "duration": 1, "velocity": 89}, {"time": 2413, "pitch": 65, "duration": 3, "velocity": 99}, {"time": 2419, "pitch": 68, "duration": 7, "velocity": 122}, {"time": 2428, "pitch": 63, "duration": 9, "velocity": 117}, {"time": 2440, "pitch": 63, "duration": 4, "velocity": 122}, {"time": 2446, "pitch": 65, "duration": 4, "velocity": 100}, {"time": 2452, "pitch": 68, "duration": 4, "velocity": 122}, {"time": 2458, "pitch": 72, "duration": 1, "velocity": 117}, {"time": 2461, "pitch": 72, "duration": 3, "velocity": 97}, {"time": 2467, "pitch": 73, "duration": 9, "velocity": 127}, {"time": 2476, "pitch": 70, "duration": 7, "velocity": 117}, {"time": 2488, "pitch": 70, "duration": 3, "velocity": 127}, {"time": 2494, "pitch": 68, "duration": 3, "velocity": 127}, {"time": 2500, "pitch": 66, "duration": 4, "velocity": 127}, {"time": 2506, "pitch": 68, "duration": 2, "velocity": 127}, {"time": 2509, "pitch": 70, "duration": 3, "velocity": 127}, {"time": 2518, "pitch": 73, "duration": 4, "velocity": 127}, {"time": 2524, "pitch": 73, "duration": 7, "velocity": 127}, {"time": 2530, "pitch": 72, "duration": 4, "velocity": 107}, {"time": 2536, "pitch": 72, "duration": 7, "velocity": 112}, {"time": 2545, "pitch": 70, "duration": 36, "velocity": 117}, {"time": 2584, "pitch": 65, "duration": 4, "velocity": 112}, {"time": 2590, "pitch": 65, "duration": 2, "velocity": 100}, {"time": 2596, "pitch": 68, "duration": 4, "velocity": 127}, {"time": 2602, "pitch": 66, "duration": 1, "velocity": 102}, {"time": 2605, "pitch": 66, "duration": 3, "velocity": 107}, {"time": 2611, "pitch": 65, "duration": 5, "velocity": 112}, {"time": 2617, "pitch": 65, "duration": 2, "velocity": 112}, {"time": 2626, "pitch": 56, "duration": 6, "velocity": 117}, {"time": 2632, "pitch": 61, "duration": 5, "velocity": 112}, {"time": 2638, "pitch": 68, "duration": 4, "velocity": 102}, {"time": 2644, "pitch": 68, "duration": 6, "velocity": 127}, {"time": 2650, "pitch": 66, "duration": 1, "velocity": 127}, {"time": 2653, "pitch": 66, "duration": 3, "velocity": 127}, {"time": 2659, "pitch": 65, "duration": 3, "velocity": 127}, {"time": 2665, "pitch": 61, "duration": 7, "velocity": 127}, {"time": 2686, "pitch": 66, "duration": 3, "velocity": 127}, {"time": 2692, "pitch": 66, "duration": 4, "velocity": 127}, {"time": 2698, "pitch": 64, "duration": 1, "velocity": 127}, {"time": 2701, "pitch": 64, "duration": 3, "velocity": 122}, {"time": 2710, "pitch": 63, "duration": 4, "velocity": 127}, {"time": 2716, "pitch": 63, "duration": 4, "velocity": 127}, {"time": 2722, "pitch": 61, "duration": 3, "velocity": 127}, {"time": 2728, "pitch": 61, "duration": 3, "velocity": 127}, {"time": 2734, "pitch": 63, "duration": 3, "velocity": 117}, {"time": 2740, "pitch": 63, "duration": 3, "velocity": 122}, {"time": 2743, "pitch": 61, "duration": 3, "velocity": 112}, {"time": 2746, "pitch": 63, "duration": 19, "velocity": 122}, {"time": 2776, "pitch": 61, "duration": 2, "velocity": 127}, {"time": 2779, "pitch": 63, "duration": 3, "velocity": 122}, {"time": 2785, "pitch": 65, "duration": 4, "velocity": 127}, {"time": 2791, "pitch": 63, "duration": 2, "velocity": 127}, {"time": 2794, "pitch": 65, "duration": 23, "velocity": 112}, {"time": 2824, "pitch": 65, "duration": 5, "velocity": 107}, {"time": 2830, "pitch": 68, "duration": 5, "velocity": 127}, {"time": 2836, "pitch": 70, "duration": 8, "velocity": 127}, {"time": 2842, "pitch": 65, "duration": 1, "velocity": 89}, {"time": 2845, "pitch": 65, "duration": 3, "velocity": 99}, {"time": 2851, "pitch": 68, "duration": 7, "velocity": 122}, {"time": 2860, "pitch": 63, "duration": 9, "velocity": 117}, {"time": 2872, "pitch": 63, "duration": 4, "velocity": 122}, {"time": 2878, "pitch": 65, "duration": 4, "velocity": 100}, {"time": 2884, "pitch": 68, "duration": 4, "velocity": 122}, {"time": 2890, "pitch": 63, "duration": 1, "velocity": 107}, {"time": 2893, "pitch": 63, "duration": 4, "velocity": 93}, {"time": 2899, "pitch": 65, "duration": 7, "velocity": 99}, {"time": 2908, "pitch": 58, "duration": 10, "velocity": 100}, {"time": 2920, "pitch": 65, "duration": 5, "velocity": 112}, {"time": 2926, "pitch": 68, "duration": 4, "velocity": 117}, {"time": 2932, "pitch": 70, "duration": 5, "velocity": 127}, {"time": 2938, "pitch": 65, "duration": 1, "velocity": 107}, {"time": 2941, "pitch": 65, "duration": 3, "velocity": 93}, {"time": 2947, "pitch": 73, "duration": 7, "velocity": 127}, {"time": 2956, "pitch": 72, "duration": 6, "velocity": 127}, {"time": 2962, "pitch": 68, "duration": 4, "velocity": 122}, {"time": 2968, "pitch": 63, "duration": 4, "velocity": 127}, {"time": 2974, "pitch": 60, "duration": 4, "velocity": 107}, {"time": 2980, "pitch": 63, "duration": 4, "velocity": 127}, {"time": 2986, "pitch": 61, "duration": 1, "velocity": 102}, {"time": 2989, "pitch": 61, "duration": 7, "velocity": 122}, {"time": 2995, "pitch": 65, "duration": 2, "velocity": 122}, {"time": 3001, "pitch": 65, "duration": 7, "velocity": 127}, {"time": 3016, "pitch": 65, "duration": 5, "velocity": 107}, {"time": 3022, "pitch": 68, "duration": 5, "velocity": 127}, {"time": 3028, "pitch": 70, "duration": 8, "velocity": 127}, {"time": 3034, "pitch": 65, "duration": 1, "velocity": 89}, {"time": 3037, "pitch": 65, "duration": 3, "velocity": 99}, {"time": 3043, "pitch": 68, "duration": 7, "velocity": 122}, {"time": 3052, "pitch": 63, "duration": 9, "velocity": 117}, {"time": 3064, "pitch": 63, "duration": 4, "velocity": 122}, {"time": 3070, "pitch": 65, "duration": 4, "velocity": 100}, {"time": 3076, "pitch": 68, "duration": 4, "velocity": 122}, {"time": 3082, "pitch": 72, "duration": 1, "velocity": 117}, {"time": 3085, "pitch": 72, "duration": 3, "velocity": 97}, {"time": 3091, "pitch": 73, "duration": 9, "velocity": 127}, {"time": 3100, "pitch": 70, "duration": 7, "velocity": 117}, {"time": 3112, "pitch": 70, "duration": 3, "velocity": 127}, {"time": 3118, "pitch": 68, "duration": 3, "velocity": 127}, {"time": 3124, "pitch": 66, "duration": 4, "velocity": 127}, {"time": 3130, "pitch": 68, "duration": 2, "velocity": 127}, {"time": 3133, "pitch": 70, "duration": 3, "velocity": 127}, {"time": 3142, "pitch": 73, "duration": 4, "velocity": 127}, {"time": 3148, "pitch": 73, "duration": 7, "velocity": 127}, {"time": 3154, "pitch": 72, "duration": 4, "velocity": 107}, {"time": 3160, "pitch": 72, "duration": 7, "velocity": 112}, {"time": 3169, "pitch": 70, "duration": 27, "velocity": 117}]}, {"program": 0, "is_drum": false, "name": "PIANO", "notes": [{"time": 4, "pitch": 46, "duration": 18, "velocity": 59}, {"time": 10, "pitch": 53, "duration": 11, "velocity": 37}, {"time": 16, "pitch": 58, "duration": 6, "velocity": 47}, {"time": 16, "pitch": 61, "duration": 1, "velocity": 37}, {"time": 16, "pitch": 65, "duration": 13, "velocity": 66}, {"time": 16, "pitch": 70, "duration": 13, "velocity": 66}, {"time": 22, "pitch": 61, "duration": 7, "velocity": 69}, {"time": 28, "pitch": 44, "duration": 17, "velocity": 59}, {"time": 34, "pitch": 56, "duration": 9, "velocity": 58}, {"time": 40, "pitch": 63, "duration": 12, "velocity": 68}, {"time": 40, "pitch": 68, "duration": 12, "velocity": 66}, {"time": 46, "pitch": 60, "duration": 6, "velocity": 50}, {"time": 52, "pitch": 42, "duration": 18, "velocity": 69}, {"time": 58, "pitch": 54, "duration": 14, "velocity": 59}, {"time": 64, "pitch": 61, "duration": 12, "velocity": 81}, {"time": 70, "pitch": 66, "duration": 6, "velocity": 40}, {"time": 76, "pitch": 44, "duration": 16, "velocity": 62}, {"time": 82, "pitch": 56, "duration": 13, "velocity": 67}, {"time": 88, "pitch": 63, "duration": 12, "velocity": 72}, {"time": 94, "pitch": 60, "duration": 6, "velocity": 65}, {"time": 97, "pitch": 46, "duration": 1, "velocity": 29}, {"time": 100, "pitch": 46, "duration": 18, "velocity": 79}, {"time": 106, "pitch": 58, "duration": 11, "velocity": 63}, {"time": 112, "pitch": 65, "duration": 3, "velocity": 73}, {"time": 112, "pitch": 70, "duration": 6, "velocity": 73}, {"time": 115, "pitch": 61, "duration": 8, "velocity": 77}, {"time": 118, "pitch": 65, "duration": 6, "velocity": 64}, {"time": 121, "pitch": 70, "duration": 4, "velocity": 68}, {"time": 124, "pitch": 44, "duration": 19, "velocity": 83}, {"time": 130, "pitch": 56, "duration": 12, "velocity": 82}, {"time": 136, "pitch": 60, "duration": 2, "velocity": 72}, {"time": 136, "pitch": 63, "duration": 11, "velocity": 102}, {"time": 142, "pitch": 60, "duration": 5, "velocity": 70}, {"time": 148, "pitch": 42, "duration": 37, "velocity": 88}, {"time": 154, "pitch": 54, "duration": 9, "velocity": 82}, {"time": 160, "pitch": 61, "duration": 13, "velocity": 97}, {"time": 166, "pitch": 54, "duration": 18, "velocity": 69}, {"time": 172, "pitch": 66, "duration": 24, "velocity": 54}, {"time": 172, "pitch": 70, "duration": 24, "velocity": 85}, {"time": 196, "pitch": 34, "duration": 46, "velocity": 66}, {"time": 202, "pitch": 46, "duration": 8, "velocity": 58}, {"time": 208, "pitch": 53, "duration": 23, "velocity": 60}, {"time": 208, "pitch": 58, "duration": 10, "velocity": 71}, {"time": 214, "pitch": 46, "duration": 8, "velocity": 53}, {"time": 220, "pitch": 58, "duration": 11, "velocity": 66}, {"time": 220, "pitch": 61, "duration": 8, "velocity": 66}, {"time": 226, "pitch": 46, "duration": 8, "velocity": 67}, {"time": 232, "pitch": 58, "duration": 16, "velocity": 72}, {"time": 232, "pitch": 61, "duration": 12, "velocity": 100}, {"time": 238, "pitch": 53, "duration": 14, "velocity": 68}, {"time": 244, "pitch": 34, "duration": 47, "velocity": 74}, {"time": 250, "pitch": 46, "duration": 9, "velocity": 95}, {"time": 256, "pitch": 58, "duration": 20, "velocity": 89}, {"time": 262, "pitch": 46, "duration": 9, "velocity": 93}, {"time": 268, "pitch": 61, "duration": 24, "velocity": 102}, {"time": 274, "pitch": 46, "duration": 14, "velocity": 89}, {"time": 280, "pitch": 58, "duration": 12, "velocity": 99}, {"time": 286, "pitch": 53, "duration": 6, "velocity": 85}, {"time": 292, "pitch": 46, "duration": 21, "velocity": 69}, {"time": 298, "pitch": 58, "duration": 14, "velocity": 44}, {"time": 304, "pitch": 61, "duration": 2, "velocity": 26}, {"time": 304, "pitch": 68, "duration": 14, "velocity": 67}, {"time": 310, "pitch": 61, "duration": 7, "velocity": 48}, {"time": 316, "pitch": 44, "duration": 17, "velocity": 52}, {"time": 322, "pitch": 56, "duration": 9, "velocity": 55}, {"time": 328, "pitch": 63, "duration": 12, "velocity": 71}, {"time": 340, "pitch": 42, "duration": 11, "velocity": 68}, {"time": 346, "pitch": 54, "duration": 6, "velocity": 58}, {"time": 352, "pitch": 44, "duration": 7, "velocity": 35}, {"time": 358, "pitch": 56, "duration": 5, "velocity": 53}, {"time": 358, "pitch": 63, "duration": 5, "velocity": 34}, {"time": 364, "pitch": 49, "duration": 16, "velocity": 37}, {"time": 370, "pitch": 61, "duration": 6, "velocity": 62}, {"time": 376, "pitch": 65, "duration": 11, "velocity": 67}, {"time": 382, "pitch": 68, "duration": 6, "velocity": 46}, {"time": 388, "pitch": 42, "duration": 18, "velocity": 44}, {"time": 394, "pitch": 54, "duration": 17, "velocity": 62}, {"time": 400, "pitch": 70, "duration": 12, "velocity": 71}, {"time": 406, "pitch": 66, "duration": 6, "velocity": 67}, {"time": 412, "pitch": 44, "duration": 17, "velocity": 60}, {"time": 418, "pitch": 56, "duration": 16, "velocity": 65}, {"time": 424, "pitch": 68, "duration": 12, "velocity": 86}, {"time": 430, "pitch": 63, "duration": 5, "velocity": 41}, {"time": 436, "pitch": 49, "duration": 15, "velocity": 92}, {"time": 442, "pitch": 61, "duration": 7, "velocity": 72}, {"time": 448, "pitch": 68, "duration": 12, "velocity": 79}, {"time": 454, "pitch": 61, "duration": 6, "velocity": 85}, {"time": 460, "pitch": 41, "duration": 18, "velocity": 69}, {"time": 466, "pitch": 48, "duration": 12, "velocity": 58}, {"time": 472, "pitch": 53, "duration": 9, "velocity": 61}, {"time": 472, "pitch": 65, "duration": 12, "velocity": 65}, {"time": 472, "pitch": 69, "duration": 12, "velocity": 67}, {"time": 478, "pitch": 60, "duration": 6, "velocity": 65}, {"time": 484, "pitch": 46, "duration": 19, "velocity": 60}, {"time": 490, "pitch": 58, "duration": 10, "velocity": 54}, {"time": 496, "pitch": 70, "duration": 12, "velocity": 69}, {"time": 499, "pitch": 65, "duration": 7, "velocity": 21}, {"time": 502, "pitch": 61, "duration": 8, "velocity": 64}, {"time": 508, "pitch": 44, "duration": 17, "velocity": 68}, {"time": 514, "pitch": 56, "duration": 7, "velocity": 53}, {"time": 520, "pitch": 68, "duration": 12, "velocity": 89}, {"time": 526, "pitch": 63, "duration": 6, "velocity": 63}, {"time": 532, "pitch": 42, "duration": 10, "velocity": 78}, {"time": 538, "pitch": 54, "duration": 6, "velocity": 70}, {"time": 544, "pitch": 44, "duration": 7, "velocity": 82}, {"time": 550, "pitch": 56, "duration": 6, "velocity": 73}, {"time": 556, "pitch": 49, "duration": 14, "velocity": 69}, {"time": 562, "pitch": 61, "duration": 22, "velocity": 63}, {"time": 568, "pitch": 68, "duration": 12, "velocity": 69}, {"time": 574, "pitch": 65, "duration": 4, "velocity": 42}, {"time": 580, "pitch": 42, "duration": 22, "velocity": 56}, {"time": 586, "pitch": 54, "duration": 18, "velocity": 60}, {"time": 592, "pitch": 61, "duration": 1, "velocity": 35}, {"time": 592, "pitch": 70, "duration": 12, "velocity": 96}, {"time": 598, "pitch": 66, "duration": 6, "velocity": 37}, {"time": 604, "pitch": 44, "duration": 19, "velocity": 45}, {"time": 610, "pitch": 56, "duration": 17, "velocity": 89}, {"time": 616, "pitch": 68, "duration": 11, "velocity": 96}, {"time": 622, "pitch": 60, "duration": 6, "velocity": 82}, {"time": 628, "pitch": 46, "duration": 23, "velocity": 88}, {"time": 634, "pitch": 58, "duration": 8, "velocity": 85}, {"time": 640, "pitch": 65, "duration": 10, "velocity": 73}, {"time": 646, "pitch": 58, "duration": 6, "velocity": 56}, {"time": 652, "pitch": 46, "duration": 16, "velocity": 86}, {"time": 652, "pitch": 61, "duration": 13, "velocity": 61}, {"time": 652, "pitch": 65, "duration": 10, "velocity": 73}, {"time": 652, "pitch": 70, "duration": 9, "velocity": 68}, {"time": 658, "pitch": 58, "duration": 7, "velocity": 97}, {"time": 664, "pitch": 70, "duration": 10, "velocity": 127}, {"time": 667, "pitch": 58, "duration": 1, "velocity": 97}, {"time": 670, "pitch": 61, "duration": 6, "velocity": 112}, {"time": 673, "pitch": 65, "duration": 2, "velocity": 56}, {"time": 676, "pitch": 39, "duration": 17, "velocity": 95}, {"time": 679, "pitch": 51, "duration": 17, "velocity": 79}, {"time": 682, "pitch": 58, "duration": 8, "velocity": 76}, {"time": 685, "pitch": 63, "duration": 3, "velocity": 35}, {"time": 688, "pitch": 66, "duration": 12, "velocity": 107}, {"time": 694, "pitch": 58, "duration": 6, "velocity": 69}, {"time": 700, "pitch": 44, "duration": 24, "velocity": 92}, {"time": 706, "pitch": 56, "duration": 9, "velocity": 75}, {"time": 712, "pitch": 68, "duration": 11, "velocity": 127}, {"time": 718, "pitch": 63, "duration": 5, "velocity": 88}, {"time": 724, "pitch": 49, "duration": 21, "velocity": 75}, {"time": 730, "pitch": 56, "duration": 8, "velocity": 85}, {"time": 736, "pitch": 65, "duration": 10, "velocity": 73}, {"time": 742, "pitch": 61, "duration": 5, "velocity": 55}, {"time": 748, "pitch": 42, "duration": 16, "velocity": 88}, {"time": 754, "pitch": 54, "duration": 12, "velocity": 78}, {"time": 760, "pitch": 66, "duration": 12, "velocity": 117}, {"time": 766, "pitch": 58, "duration": 5, "velocity": 107}, {"time": 772, "pitch": 47, "duration": 22, "velocity": 96}, {"time": 778, "pitch": 59, "duration": 6, "velocity": 75}, {"time": 784, "pitch": 63, "duration": 11, "velocity": 95}, {"time": 784, "pitch": 66, "duration": 11, "velocity": 117}, {"time": 790, "pitch": 59, "duration": 8, "velocity": 79}, {"time": 796, "pitch": 45, "duration": 9, "velocity": 95}, {"time": 802, "pitch": 57, "duration": 6, "velocity": 77}, {"time": 808, "pitch": 42, "duration": 10, "velocity": 99}, {"time": 814, "pitch": 54, "duration": 5, "velocity": 97}, {"time": 820, "pitch": 41, "duration": 22, "velocity": 88}, {"time": 826, "pitch": 48, "duration": 15, "velocity": 66}, {"time": 832, "pitch": 53, "duration": 5, "velocity": 100}, {"time": 838, "pitch": 57, "duration": 5, "velocity": 85}, {"time": 838, "pitch": 60, "duration": 5, "velocity": 88}, {"time": 844, "pitch": 41, "duration": 13, "velocity": 90}, {"time": 844, "pitch": 53, "duration": 10, "velocity": 112}, {"time": 844, "pitch": 57, "duration": 10, "velocity": 100}, {"time": 844, "pitch": 60, "duration": 10, "velocity": 89}, {"time": 856, "pitch": 57, "duration": 7, "velocity": 99}, {"time": 856, "pitch": 60, "duration": 11, "velocity": 100}, {"time": 859, "pitch": 41, "duration": 2, "velocity": 79}, {"time": 862, "pitch": 53, "duration": 4, "velocity": 92}, {"time": 865, "pitch": 57, "duration": 2, "velocity": 97}, {"time": 868, "pitch": 42, "duration": 21, "velocity": 107}, {"time": 871, "pitch": 54, "duration": 8, "velocity": 86}, {"time": 874, "pitch": 58, "duration": 5, "velocity": 78}, {"time": 877, "pitch": 61, "duration": 3, "velocity": 122}, {"time": 880, "pitch": 66, "duration": 12, "velocity": 92}, {"time": 883, "pitch": 54, "duration": 9, "velocity": 78}, {"time": 886, "pitch": 58, "duration": 4, "velocity": 92}, {"time": 889, "pitch": 61, "duration": 3, "velocity": 78}, {"time": 892, "pitch": 44, "duration": 20, "velocity": 99}, {"time": 895, "pitch": 56, "duration": 9, "velocity": 89}, {"time": 898, "pitch": 60, "duration": 7, "velocity": 77}, {"time": 901, "pitch": 63, "duration": 4, "velocity": 97}, {"time": 904, "pitch": 68, "duration": 12, "velocity": 117}, {"time": 907, "pitch": 56, "duration": 3, "velocity": 86}, {"time": 910, "pitch": 63, "duration": 6, "velocity": 112}, {"time": 913, "pitch": 60, "duration": 3, "velocity": 90}, {"time": 916, "pitch": 41, "duration": 17, "velocity": 79}, {"time": 919, "pitch": 48, "duration": 10, "velocity": 69}, {"time": 922, "pitch": 53, "duration": 4, "velocity": 83}, {"time": 925, "pitch": 56, "duration": 3, "velocity": 71}, {"time": 928, "pitch": 60, "duration": 11, "velocity": 92}, {"time": 931, "pitch": 48, "duration": 3, "velocity": 77}, {"time": 934, "pitch": 56, "duration": 5, "velocity": 100}, {"time": 937, "pitch": 53, "duration": 2, "velocity": 76}, {"time": 940, "pitch": 46, "duration": 18, "velocity": 88}, {"time": 943, "pitch": 58, "duration": 10, "velocity": 88}, {"time": 946, "pitch": 61, "duration": 7, "velocity": 88}, {"time": 949, "pitch": 65, "duration": 2, "velocity": 53}, {"time": 952, "pitch": 65, "duration": 1, "velocity": 37}, {"time": 952, "pitch": 70, "duration": 11, "velocity": 95}, {"time": 955, "pitch": 58, "duration": 2, "velocity": 86}, {"time": 958, "pitch": 61, "duration": 6, "velocity": 86}, {"time": 961, "pitch": 65, "duration": 2, "velocity": 72}, {"time": 964, "pitch": 42, "duration": 19, "velocity": 82}, {"time": 967, "pitch": 54, "duration": 9, "velocity": 68}, {"time": 970, "pitch": 58, "duration": 7, "velocity": 59}, {"time": 973, "pitch": 61, "duration": 3, "velocity": 86}, {"time": 976, "pitch": 66, "duration": 12, "velocity": 97}, {"time": 979, "pitch": 54, "duration": 9, "velocity": 78}, {"time": 982, "pitch": 58, "duration": 4, "velocity": 88}, {"time": 985, "pitch": 61, "duration": 2, "velocity": 97}, {"time": 988, "pitch": 44, "duration": 17, "velocity": 92}, {"time": 991, "pitch": 56, "duration": 9, "velocity": 92}, {"time": 994, "pitch": 60, "duration": 7, "velocity": 77}, {"time": 997, "pitch": 63, "duration": 4, "velocity": 112}, {"time": 1000, "pitch": 68, "duration": 11, "velocity": 127}, {"time": 1003, "pitch": 56, "duration": 4, "velocity": 100}, {"time": 1006, "pitch": 63, "duration": 4, "velocity": 127}, {"time": 1009, "pitch": 60, "duration": 3, "velocity": 117}, {"time": 1012, "pitch": 49, "duration": 13, "velocity": 100}, {"time": 1015, "pitch": 61, "duration": 4, "velocity": 86}, {"time": 1018, "pitch": 65, "duration": 5, "velocity": 97}, {"time": 1021, "pitch": 68, "duration": 2, "velocity": 95}, {"time": 1024, "pitch": 68, "duration": 11, "velocity": 127}, {"time": 1027, "pitch": 49, "duration": 2, "velocity": 83}, {"time": 1030, "pitch": 61, "duration": 6, "velocity": 107}, {"time": 1033, "pitch": 65, "duration": 2, "velocity": 59}, {"time": 1036, "pitch": 41, "duration": 16, "velocity": 82}, {"time": 1039, "pitch": 48, "duration": 13, "velocity": 64}, {"time": 1042, "pitch": 53, "duration": 7, "velocity": 93}, {"time": 1045, "pitch": 60, "duration": 5, "velocity": 79}, {"time": 1048, "pitch": 69, "duration": 10, "velocity": 127}, {"time": 1051, "pitch": 53, "duration": 2, "velocity": 93}, {"time": 1054, "pitch": 65, "duration": 4, "velocity": 100}, {"time": 1057, "pitch": 60, "duration": 3, "velocity": 102}, {"time": 1060, "pitch": 42, "duration": 21, "velocity": 102}, {"time": 1063, "pitch": 54, "duration": 9, "velocity": 82}, {"time": 1066, "pitch": 58, "duration": 6, "velocity": 83}, {"time": 1069, "pitch": 61, "duration": 2, "velocity": 102}, {"time": 1072, "pitch": 66, "duration": 12, "velocity": 112}, {"time": 1075, "pitch": 54, "duration": 8, "velocity": 90}, {"time": 1078, "pitch": 58, "duration": 5, "velocity": 95}, {"time": 1081, "pitch": 61, "duration": 3, "velocity": 122}, {"time": 1084, "pitch": 44, "duration": 18, "velocity": 100}, {"time": 1087, "pitch": 56, "duration": 9, "velocity": 97}, {"time": 1090, "pitch": 60, "duration": 7, "velocity": 75}, {"time": 1093, "pitch": 63, "duration": 3, "velocity": 112}, {"time": 1096, "pitch": 68, "duration": 11, "velocity": 127}, {"time": 1099, "pitch": 56, "duration": 2, "velocity": 93}, {"time": 1102, "pitch": 63, "duration": 4, "velocity": 122}, {"time": 1105, "pitch": 60, "duration": 5, "velocity": 100}, {"time": 1108, "pitch": 41, "duration": 16, "velocity": 83}, {"time": 1111, "pitch": 48, "duration": 13, "velocity": 76}, {"time": 1114, "pitch": 53, "duration": 7, "velocity": 92}, {"time": 1117, "pitch": 60, "duration": 7, "velocity": 82}, {"time": 1120, "pitch": 68, "duration": 11, "velocity": 127}, {"time": 1123, "pitch": 53, "duration": 3, "velocity": 92}, {"time": 1126, "pitch": 65, "duration": 6, "velocity": 102}, {"time": 1129, "pitch": 60, "duration": 3, "velocity": 89}, {"time": 1132, "pitch": 46, "duration": 18, "velocity": 99}, {"time": 1135, "pitch": 58, "duration": 10, "velocity": 90}, {"time": 1138, "pitch": 61, "duration": 7, "velocity": 89}, {"time": 1141, "pitch": 65, "duration": 3, "velocity": 71}, {"time": 1144, "pitch": 70, "duration": 11, "velocity": 117}, {"time": 1147, "pitch": 58, "duration": 2, "velocity": 99}, {"time": 1150, "pitch": 61, "duration": 6, "velocity": 102}, {"time": 1153, "pitch": 65, "duration": 3, "velocity": 65}, {"time": 1156, "pitch": 42, "duration": 21, "velocity": 92}, {"time": 1159, "pitch": 54, "duration": 9, "velocity": 82}, {"time": 1162, "pitch": 58, "duration": 7, "velocity": 76}, {"time": 1165, "pitch": 61, "duration": 2, "velocity": 86}, {"time": 1168, "pitch": 66, "duration": 11, "velocity": 122}, {"time": 1171, "pitch": 54, "duration": 8, "velocity": 95}, {"time": 1174, "pitch": 58, "duration": 4, "velocity": 97}, {"time": 1177, "pitch": 61, "duration": 2, "velocity": 102}, {"time": 1180, "pitch": 44, "duration": 20, "velocity": 99}, {"time": 1183, "pitch": 56, "duration": 9, "velocity": 95}, {"time": 1186, "pitch": 60, "duration": 7, "velocity": 81}, {"time": 1189, "pitch": 63, "duration": 2, "velocity": 112}, {"time": 1192, "pitch": 68, "duration": 10, "velocity": 122}, {"time": 1195, "pitch": 56, "duration": 3, "velocity": 99}, {"time": 1198, "pitch": 63, "duration": 4, "velocity": 117}, {"time": 1201, "pitch": 60, "duration": 3, "velocity": 99}, {"time": 1204, "pitch": 46, "duration": 23, "velocity": 112}, {"time": 1210, "pitch": 58, "duration": 7, "velocity": 93}, {"time": 1216, "pitch": 65, "duration": 6, "velocity": 77}, {"time": 1222, "pitch": 63, "duration": 6, "velocity": 95}, {"time": 1228, "pitch": 46, "duration": 23, "velocity": 90}, {"time": 1228, "pitch": 61, "duration": 11, "velocity": 97}, {"time": 1240, "pitch": 58, "duration": 3, "velocity": 89}, {"time": 1240, "pitch": 61, "duration": 11, "velocity": 86}, {"time": 1246, "pitch": 58, "duration": 6, "velocity": 66}, {"time": 1252, "pitch": 54, "duration": 24, "velocity": 95}, {"time": 1258, "pitch": 66, "duration": 8, "velocity": 46}, {"time": 1264, "pitch": 73, "duration": 11, "velocity": 86}, {"time": 1267, "pitch": 66, "duration": 4, "velocity": 58}, {"time": 1270, "pitch": 70, "duration": 5, "velocity": 39}, {"time": 1273, "pitch": 66, "duration": 3, "velocity": 52}, {"time": 1276, "pitch": 56, "duration": 23, "velocity": 55}, {"time": 1282, "pitch": 68, "duration": 8, "velocity": 43}, {"time": 1288, "pitch": 75, "duration": 11, "velocity": 79}, {"time": 1294, "pitch": 68, "duration": 6, "velocity": 52}, {"time": 1300, "pitch": 53, "duration": 16, "velocity": 47}, {"time": 1306, "pitch": 65, "duration": 7, "velocity": 34}, {"time": 1312, "pitch": 72, "duration": 11, "velocity": 74}, {"time": 1318, "pitch": 68, "duration": 4, "velocity": 52}, {"time": 1321, "pitch": 65, "duration": 4, "velocity": 44}, {"time": 1324, "pitch": 58, "duration": 13, "velocity": 68}, {"time": 1330, "pitch": 65, "duration": 7, "velocity": 52}, {"time": 1336, "pitch": 73, "duration": 11, "velocity": 122}, {"time": 1339, "pitch": 70, "duration": 3, "velocity": 78}, {"time": 1342, "pitch": 65, "duration": 5, "velocity": 89}, {"time": 1345, "pitch": 70, "duration": 3, "velocity": 89}, {"time": 1348, "pitch": 39, "duration": 17, "velocity": 99}, {"time": 1354, "pitch": 51, "duration": 7, "velocity": 72}, {"time": 1357, "pitch": 63, "duration": 5, "velocity": 44}, {"time": 1360, "pitch": 70, "duration": 10, "velocity": 102}, {"time": 1363, "pitch": 51, "duration": 7, "velocity": 95}, {"time": 1366, "pitch": 63, "duration": 6, "velocity": 83}, {"time": 1369, "pitch": 66, "duration": 2, "velocity": 40}, {"time": 1372, "pitch": 44, "duration": 15, "velocity": 102}, {"time": 1378, "pitch": 56, "duration": 7, "velocity": 90}, {"time": 1384, "pitch": 68, "duration": 11, "velocity": 112}, {"time": 1390, "pitch": 63, "duration": 5, "velocity": 92}, {"time": 1396, "pitch": 37, "duration": 17, "velocity": 93}, {"time": 1399, "pitch": 49, "duration": 9, "velocity": 72}, {"time": 1402, "pitch": 53, "duration": 7, "velocity": 58}, {"time": 1405, "pitch": 56, "duration": 7, "velocity": 76}, {"time": 1408, "pitch": 61, "duration": 11, "velocity": 112}, {"time": 1411, "pitch": 49, "duration": 4, "velocity": 88}, {"time": 1414, "pitch": 53, "duration": 6, "velocity": 86}, {"time": 1417, "pitch": 56, "duration": 3, "velocity": 97}, {"time": 1420, "pitch": 41, "duration": 16, "velocity": 71}, {"time": 1423, "pitch": 48, "duration": 10, "velocity": 73}, {"time": 1426, "pitch": 53, "duration": 2, "velocity": 83}, {"time": 1429, "pitch": 56, "duration": 3, "velocity": 97}, {"time": 1432, "pitch": 60, "duration": 11, "velocity": 107}, {"time": 1435, "pitch": 48, "duration": 2, "velocity": 85}, {"time": 1438, "pitch": 53, "duration": 4, "velocity": 97}, {"time": 1441, "pitch": 56, "duration": 2, "velocity": 127}, {"time": 1444, "pitch": 42, "duration": 22, "velocity": 117}, {"time": 1447, "pitch": 54, "duration": 10, "velocity": 107}, {"time": 1450, "pitch": 58, "duration": 7, "velocity": 75}, {"time": 1453, "pitch": 61, "duration": 4, "velocity": 90}, {"time": 1456, "pitch": 66, "duration": 16, "velocity": 102}, {"time": 1459, "pitch": 54, "duration": 9, "velocity": 99}, {"time": 1462, "pitch": 58, "duration": 9, "velocity": 92}, {"time": 1465, "pitch": 61, "duration": 7, "velocity": 83}, {"time": 1468, "pitch": 42, "duration": 17, "velocity": 92}, {"time": 1471, "pitch": 54, "duration": 10, "velocity": 74}, {"time": 1474, "pitch": 58, "duration": 8, "velocity": 55}, {"time": 1477, "pitch": 61, "duration": 2, "velocity": 68}, {"time": 1480, "pitch": 66, "duration": 10, "velocity": 122}, {"time": 1483, "pitch": 54, "duration": 2, "velocity": 93}, {"time": 1486, "pitch": 61, "duration": 5, "velocity": 93}, {"time": 1489, "pitch": 58, "duration": 3, "velocity": 100}, {"time": 1492, "pitch": 41, "duration": 18, "velocity": 68}, {"time": 1495, "pitch": 48, "duration": 10, "velocity": 53}, {"time": 1498, "pitch": 53, "duration": 5, "velocity": 86}, {"time": 1501, "pitch": 56, "duration": 3, "velocity": 72}, {"time": 1504, "pitch": 60, "duration": 11, "velocity": 96}, {"time": 1507, "pitch": 48, "duration": 2, "velocity": 77}, {"time": 1510, "pitch": 56, "duration": 5, "velocity": 102}, {"time": 1513, "pitch": 53, "duration": 3, "velocity": 70}, {"time": 1516, "pitch": 42, "duration": 17, "velocity": 82}, {"time": 1519, "pitch": 54, "duration": 9, "velocity": 60}, {"time": 1522, "pitch": 57, "duration": 8, "velocity": 53}, {"time": 1525, "pitch": 61, "duration": 4, "velocity": 66}, {"time": 1528, "pitch": 66, "duration": 9, "velocity": 107}, {"time": 1531, "pitch": 54, "duration": 3, "velocity": 83}, {"time": 1534, "pitch": 57, "duration": 3, "velocity": 88}, {"time": 1537, "pitch": 61, "duration": 2, "velocity": 92}, {"time": 1540, "pitch": 47, "duration": 16, "velocity": 95}, {"time": 1546, "pitch": 59, "duration": 8, "velocity": 82}, {"time": 1552, "pitch": 63, "duration": 2, "velocity": 127}, {"time": 1552, "pitch": 66, "duration": 1, "velocity": 92}, {"time": 1558, "pitch": 44, "duration": 21, "velocity": 95}, {"time": 1558, "pitch": 56, "duration": 10, "velocity": 96}, {"time": 1558, "pitch": 61, "duration": 11, "velocity": 96}, {"time": 1558, "pitch": 64, "duration": 11, "velocity": 88}, {"time": 1570, "pitch": 56, "duration": 5, "velocity": 93}, {"time": 1570, "pitch": 64, "duration": 1, "velocity": 34}, {"time": 1582, "pitch": 43, "duration": 22, "velocity": 77}, {"time": 1582, "pitch": 55, "duration": 16, "velocity": 81}, {"time": 1582, "pitch": 59, "duration": 16, "velocity": 85}, {"time": 1582, "pitch": 62, "duration": 16, "velocity": 88}, {"time": 1582, "pitch": 66, "duration": 16, "velocity": 85}, {"time": 1600, "pitch": 59, "duration": 29, "velocity": 93}, {"time": 1600, "pitch": 62, "duration": 36, "velocity": 92}, {"time": 1600, "pitch": 66, "duration": 18, "velocity": 93}, {"time": 1606, "pitch": 43, "duration": 11, "velocity": 56}, {"time": 1612, "pitch": 55, "duration": 12, "velocity": 90}, {"time": 1618, "pitch": 43, "duration": 6, "velocity": 64}, {"time": 1624, "pitch": 66, "duration": 12, "velocity": 107}, {"time": 1627, "pitch": 43, "duration": 10, "velocity": 72}, {"time": 1630, "pitch": 55, "duration": 6, "velocity": 92}, {"time": 1633, "pitch": 59, "duration": 3, "velocity": 69}, {"time": 1636, "pitch": 44, "duration": 23, "velocity": 112}, {"time": 1636, "pitch": 56, "duration": 10, "velocity": 88}, {"time": 1636, "pitch": 61, "duration": 9, "velocity": 102}, {"time": 1636, "pitch": 63, "duration": 9, "velocity": 100}, {"time": 1648, "pitch": 56, "duration": 6, "velocity": 59}, {"time": 1648, "pitch": 61, "duration": 3, "velocity": 112}, {"time": 1648, "pitch": 63, "duration": 3, "velocity": 122}, {"time": 1660, "pitch": 44, "duration": 12, "velocity": 67}, {"time": 1660, "pitch": 56, "duration": 10, "velocity": 83}, {"time": 1660, "pitch": 60, "duration": 10, "velocity": 96}, {"time": 1660, "pitch": 63, "duration": 9, "velocity": 95}, {"time": 1672, "pitch": 60, "duration": 11, "velocity": 112}, {"time": 1672, "pitch": 63, "duration": 11, "velocity": 127}, {"time": 1675, "pitch": 44, "duration": 8, "velocity": 96}, {"time": 1678, "pitch": 56, "duration": 5, "velocity": 97}, {"time": 1684, "pitch": 41, "duration": 17, "velocity": 61}, {"time": 1684, "pitch": 46, "duration": 11, "velocity": 74}, {"time": 1684, "pitch": 53, "duration": 10, "velocity": 63}, {"time": 1684, "pitch": 65, "duration": 10, "velocity": 85}, {"time": 1684, "pitch": 70, "duration": 10, "velocity": 107}, {"time": 1684, "pitch": 72, "duration": 10, "velocity": 92}, {"time": 1696, "pitch": 46, "duration": 2, "velocity": 41}, {"time": 1696, "pitch": 53, "duration": 4, "velocity": 82}, {"time": 1696, "pitch": 65, "duration": 4, "velocity": 81}, {"time": 1696, "pitch": 70, "duration": 4, "velocity": 112}, {"time": 1696, "pitch": 72, "duration": 4, "velocity": 86}, {"time": 1702, "pitch": 41, "duration": 29, "velocity": 44}, {"time": 1702, "pitch": 45, "duration": 29, "velocity": 89}, {"time": 1702, "pitch": 65, "duration": 17, "velocity": 88}, {"time": 1702, "pitch": 69, "duration": 17, "velocity": 95}, {"time": 1702, "pitch": 72, "duration": 17, "velocity": 97}, {"time": 1720, "pitch": 53, "duration": 11, "velocity": 59}, {"time": 1720, "pitch": 65, "duration": 3, "velocity": 75}, {"time": 1720, "pitch": 69, "duration": 11, "velocity": 81}, {"time": 1720, "pitch": 72, "duration": 11, "velocity": 86}, {"time": 1732, "pitch": 46, "duration": 46, "velocity": 61}, {"time": 1738, "pitch": 58, "duration": 7, "velocity": 53}, {"time": 1741, "pitch": 70, "duration": 1, "velocity": 32}, {"time": 1744, "pitch": 70, "duration": 1, "velocity": 35}, {"time": 1744, "pitch": 77, "duration": 20, "velocity": 66}, {"time": 1747, "pitch": 58, "duration": 7, "velocity": 50}, {"time": 1750, "pitch": 70, "duration": 3, "velocity": 39}, {"time": 1753, "pitch": 73, "duration": 16, "velocity": 66}, {"time": 1759, "pitch": 58, "duration": 3, "velocity": 42}, {"time": 1765, "pitch": 58, "duration": 4, "velocity": 56}, {"time": 1768, "pitch": 70, "duration": 6, "velocity": 51}, {"time": 1771, "pitch": 58, "duration": 9, "velocity": 58}, {"time": 1774, "pitch": 73, "duration": 15, "velocity": 40}, {"time": 1777, "pitch": 70, "duration": 8, "velocity": 37}, {"time": 1780, "pitch": 46, "duration": 48, "velocity": 58}, {"time": 1786, "pitch": 58, "duration": 6, "velocity": 42}, {"time": 1789, "pitch": 70, "duration": 4, "velocity": 41}, {"time": 1792, "pitch": 73, "duration": 35, "velocity": 63}, {"time": 1798, "pitch": 58, "duration": 9, "velocity": 42}, {"time": 1801, "pitch": 70, "duration": 26, "velocity": 44}, {"time": 1828, "pitch": 46, "duration": 19, "velocity": 60}, {"time": 1834, "pitch": 58, "duration": 10, "velocity": 54}, {"time": 1840, "pitch": 70, "duration": 12, "velocity": 69}, {"time": 1843, "pitch": 65, "duration": 7, "velocity": 21}, {"time": 1846, "pitch": 61, "duration": 8, "velocity": 64}, {"time": 1852, "pitch": 44, "duration": 17, "velocity": 68}, {"time": 1858, "pitch": 56, "duration": 7, "velocity": 53}, {"time": 1864, "pitch": 68, "duration": 12, "velocity": 89}, {"time": 1870, "pitch": 63, "duration": 6, "velocity": 63}, {"time": 1876, "pitch": 42, "duration": 10, "velocity": 78}, {"time": 1882, "pitch": 54, "duration": 6, "velocity": 70}, {"time": 1888, "pitch": 44, "duration": 7, "velocity": 82}, {"time": 1894, "pitch": 56, "duration": 6, "velocity": 73}, {"time": 1900, "pitch": 49, "duration": 14, "velocity": 69}, {"time": 1906, "pitch": 61, "duration": 22, "velocity": 63}, {"time": 1912, "pitch": 68, "duration": 12, "velocity": 69}, {"time": 1918, "pitch": 65, "duration": 4, "velocity": 42}, {"time": 1924, "pitch": 42, "duration": 22, "velocity": 56}, {"time": 1930, "pitch": 54, "duration": 18, "velocity": 60}, {"time": 1936, "pitch": 61, "duration": 1, "velocity": 35}, {"time": 1936, "pitch": 70, "duration": 12, "velocity": 96}, {"time": 1942, "pitch": 66, "duration": 6, "velocity": 37}, {"time": 1948, "pitch": 44, "duration": 19, "velocity": 45}, {"time": 1954, "pitch": 56, "duration": 17, "velocity": 89}, {"time": 1960, "pitch": 68, "duration": 11, "velocity": 96}, {"time": 1966, "pitch": 60, "duration": 6, "velocity": 82}, {"time": 1972, "pitch": 46, "duration": 23, "velocity": 88}, {"time": 1978, "pitch": 58, "duration": 8, "velocity": 85}, {"time": 1984, "pitch": 65, "duration": 10, "velocity": 73}, {"time": 1990, "pitch": 58, "duration": 6, "velocity": 56}, {"time": 1996, "pitch": 46, "duration": 16, "velocity": 86}, {"time": 1996, "pitch": 61, "duration": 13, "velocity": 61}, {"time": 1996, "pitch": 65, "duration": 10, "velocity": 73}, {"time": 1996, "pitch": 70, "duration": 9, "velocity": 68}, {"time": 2002, "pitch": 58, "duration": 7, "velocity": 97}, {"time": 2008, "pitch": 70, "duration": 10, "velocity": 127}, {"time": 2011, "pitch": 58, "duration": 1, "velocity": 97}, {"time": 2014, "pitch": 61, "duration": 6, "velocity": 112}, {"time": 2017, "pitch": 65, "duration": 2, "velocity": 56}, {"time": 2020, "pitch": 39, "duration": 17, "velocity": 95}, {"time": 2023, "pitch": 51, "duration": 17, "velocity": 79}, {"time": 2026, "pitch": 58, "duration": 8, "velocity": 76}, {"time": 2029, "pitch": 63, "duration": 3, "velocity": 35}, {"time": 2032, "pitch": 66, "duration": 12, "velocity": 107}, {"time": 2038, "pitch": 58, "duration": 6, "velocity": 69}, {"time": 2044, "pitch": 44, "duration": 24, "velocity": 92}, {"time": 2050, "pitch": 56, "duration": 9, "velocity": 75}, {"time": 2056, "pitch": 68, "duration": 11, "velocity": 127}, {"time": 2062, "pitch": 63, "duration": 5, "velocity": 88}, {"time": 2068, "pitch": 49, "duration": 21, "velocity": 75}, {"time": 2074, "pitch": 56, "duration": 8, "velocity": 85}, {"time": 2080, "pitch": 65, "duration": 10, "velocity": 73}, {"time": 2086, "pitch": 61, "duration": 5, "velocity": 55}, {"time": 2092, "pitch": 42, "duration": 16, "velocity": 88}, {"time": 2098, "pitch": 54, "duration": 12, "velocity": 78}, {"time": 2104, "pitch": 66, "duration": 12, "velocity": 117}, {"time": 2110, "pitch": 58, "duration": 5, "velocity": 107}, {"time": 2116, "pitch": 47, "duration": 22, "velocity": 96}, {"time": 2122, "pitch": 59, "duration": 6, "velocity": 75}, {"time": 2128, "pitch": 63, "duration": 11, "velocity": 95}, {"time": 2128, "pitch": 66, "duration": 11, "velocity": 117}, {"time": 2134, "pitch": 59, "duration": 8, "velocity": 79}, {"time": 2140, "pitch": 45, "duration": 9, "velocity": 95}, {"time": 2146, "pitch": 57, "duration": 6, "velocity": 77}, {"time": 2152, "pitch": 42, "duration": 10, "velocity": 99}, {"time": 2158, "pitch": 54, "duration": 5, "velocity": 97}, {"time": 2164, "pitch": 41, "duration": 22, "velocity": 88}, {"time": 2170, "pitch": 48, "duration": 15, "velocity": 66}, {"time": 2176, "pitch": 53, "duration": 5, "velocity": 100}, {"time": 2182, "pitch": 57, "duration": 5, "velocity": 85}, {"time": 2182, "pitch": 60, "duration": 5, "velocity": 88}, {"time": 2188, "pitch": 41, "duration": 13, "velocity": 90}, {"time": 2188, "pitch": 53, "duration": 10, "velocity": 112}, {"time": 2188, "pitch": 57, "duration": 10, "velocity": 100}, {"time": 2188, "pitch": 60, "duration": 10, "velocity": 89}, {"time": 2200, "pitch": 57, "duration": 7, "velocity": 99}, {"time": 2200, "pitch": 60, "duration": 11, "velocity": 100}, {"time": 2203, "pitch": 41, "duration": 2, "velocity": 79}, {"time": 2206, "pitch": 53, "duration": 4, "velocity": 92}, {"time": 2209, "pitch": 57, "duration": 2, "velocity": 97}, {"time": 2212, "pitch": 42, "duration": 21, "velocity": 107}, {"time": 2215, "pitch": 54, "duration": 8, "velocity": 86}, {"time": 2218, "pitch": 58, "duration": 5, "velocity": 78}, {"time": 2221, "pitch": 61, "duration": 3, "velocity": 122}, {"time": 2224, "pitch": 66, "duration": 12, "velocity": 92}, {"time": 2227, "pitch": 54, "duration": 9, "velocity": 78}, {"time": 2230, "pitch": 58, "duration": 4, "velocity": 92}, {"time": 2233, "pitch": 61, "duration": 3, "velocity": 78}, {"time": 2236, "pitch": 44, "duration": 20, "velocity": 99}, {"time": 2239, "pitch": 56, "duration": 9, "velocity": 89}, {"time": 2242, "pitch": 60, "duration": 7, "velocity": 77}, {"time": 2245, "pitch": 63, "duration": 4, "velocity": 97}, {"time": 2248, "pitch": 68, "duration": 12, "velocity": 117}, {"time": 2251, "pitch": 56, "duration": 3, "velocity": 86}, {"time": 2254, "pitch": 63, "duration": 6, "velocity": 112}, {"time": 2257, "pitch": 60, "duration": 3, "velocity": 90}, {"time": 2260, "pitch": 41, "duration": 17, "velocity": 79}, {"time": 2263, "pitch": 48, "duration": 10, "velocity": 69}, {"time": 2266, "pitch": 53, "duration": 4, "velocity": 83}, {"time": 2269, "pitch": 56, "duration": 3, "velocity": 71}, {"time": 2272, "pitch": 60, "duration": 11, "velocity": 92}, {"time": 2275, "pitch": 48, "duration": 3, "velocity": 77}, {"time": 2278, "pitch": 56, "duration": 5, "velocity": 100}, {"time": 2281, "pitch": 53, "duration": 2, "velocity": 76}, {"time": 2284, "pitch": 46, "duration": 18, "velocity": 88}, {"time": 2287, "pitch": 58, "duration": 10, "velocity": 88}, {"time": 2290, "pitch": 61, "duration": 7, "velocity": 88}, {"time": 2293, "pitch": 65, "duration": 2, "velocity": 53}, {"time": 2296, "pitch": 65, "duration": 1, "velocity": 37}, {"time": 2296, "pitch": 70, "duration": 11, "velocity": 95}, {"time": 2299, "pitch": 58, "duration": 2, "velocity": 86}, {"time": 2302, "pitch": 61, "duration": 6, "velocity": 86}, {"time": 2305, "pitch": 65, "duration": 2, "velocity": 72}, {"time": 2308, "pitch": 42, "duration": 19, "velocity": 82}, {"time": 2311, "pitch": 54, "duration": 9, "velocity": 68}, {"time": 2314, "pitch": 58, "duration": 7, "velocity": 59}, {"time": 2317, "pitch": 61, "duration": 3, "velocity": 86}, {"time": 2320, "pitch": 66, "duration": 12, "velocity": 97}, {"time": 2323, "pitch": 54, "duration": 9, "velocity": 78}, {"time": 2326, "pitch": 58, "duration": 4, "velocity": 88}, {"time": 2329, "pitch": 61, "duration": 2, "velocity": 97}, {"time": 2332, "pitch": 44, "duration": 17, "velocity": 92}, {"time": 2335, "pitch": 56, "duration": 9, "velocity": 92}, {"time": 2338, "pitch": 60, "duration": 7, "velocity": 77}, {"time": 2341, "pitch": 63, "duration": 4, "velocity": 112}, {"time": 2344, "pitch": 68, "duration": 11, "velocity": 127}, {"time": 2347, "pitch": 56, "duration": 4, "velocity": 100}, {"time": 2350, "pitch": 63, "duration": 4, "velocity": 127}, {"time": 2353, "pitch": 60, "duration": 3, "velocity": 117}, {"time": 2356, "pitch": 49, "duration": 13, "velocity": 100}, {"time": 2359, "pitch": 61, "duration": 4, "velocity": 86}, {"time": 2362, "pitch": 65, "duration": 5, "velocity": 97}, {"time": 2365, "pitch": 68, "duration": 2, "velocity": 95}, {"time": 2368, "pitch": 68, "duration": 11, "velocity": 127}, {"time": 2371, "pitch": 49, "duration": 2, "velocity": 83}, {"time": 2374, "pitch": 61, "duration": 6, "velocity": 107}, {"time": 2377, "pitch": 65, "duration": 2, "velocity": 59}, {"time": 2380, "pitch": 41, "duration": 16, "velocity": 82}, {"time": 2383, "pitch": 48, "duration": 13, "velocity": 64}, {"time": 2386, "pitch": 53, "duration": 7, "velocity": 93}, {"time": 2389, "pitch": 60, "duration": 5, "velocity": 79}, {"time": 2392, "pitch": 69, "duration": 10, "velocity": 127}, {"time": 2395, "pitch": 53, "duration": 2, "velocity": 93}, {"time": 2398, "pitch": 65, "duration": 4, "velocity": 100}, {"time": 2401, "pitch": 60, "duration": 3, "velocity": 102}, {"time": 2404, "pitch": 42, "duration": 21, "velocity": 102}, {"time": 2407, "pitch": 54, "duration": 9, "velocity": 82}, {"time": 2410, "pitch": 58, "duration": 6, "velocity": 83}, {"time": 2413, "pitch": 61, "duration": 2, "velocity": 102}, {"time": 2416, "pitch": 66, "duration": 12, "velocity": 112}, {"time": 2419, "pitch": 54, "duration": 8, "velocity": 90}, {"time": 2422, "pitch": 58, "duration": 5, "velocity": 95}, {"time": 2425, "pitch": 61, "duration": 3, "velocity": 122}, {"time": 2428, "pitch": 44, "duration": 18, "velocity": 100}, {"time": 2431, "pitch": 56, "duration": 9, "velocity": 97}, {"time": 2434, "pitch": 60, "duration": 7, "velocity": 75}, {"time": 2437, "pitch": 63, "duration": 3, "velocity": 112}, {"time": 2440, "pitch": 68, "duration": 11, "velocity": 127}, {"time": 2443, "pitch": 56, "duration": 2, "velocity": 93}, {"time": 2446, "pitch": 63, "duration": 4, "velocity": 122}, {"time": 2449, "pitch": 60, "duration": 5, "velocity": 100}, {"time": 2452, "pitch": 41, "duration": 16, "velocity": 83}, {"time": 2455, "pitch": 48, "duration": 13, "velocity": 76}, {"time": 2458, "pitch": 53, "duration": 7, "velocity": 92}, {"time": 2461, "pitch": 60, "duration": 7, "velocity": 82}, {"time": 2464, "pitch": 68, "duration": 11, "velocity": 127}, {"time": 2467, "pitch": 53, "duration": 3, "velocity": 92}, {"time": 2470, "pitch": 65, "duration": 6, "velocity": 102}, {"time": 2473, "pitch": 60, "duration": 3, "velocity": 89}, {"time": 2476, "pitch": 46, "duration": 18, "velocity": 99}, {"time": 2479, "pitch": 58, "duration": 10, "velocity": 90}, {"time": 2482, "pitch": 61, "duration": 7, "velocity": 89}, {"time": 2485, "pitch": 65, "duration": 3, "velocity": 71}, {"time": 2488, "pitch": 70, "duration": 11, "velocity": 117}, {"time": 2491, "pitch": 58, "duration": 2, "velocity": 99}, {"time": 2494, "pitch": 61, "duration": 6, "velocity": 102}, {"time": 2497, "pitch": 65, "duration": 3, "velocity": 65}, {"time": 2500, "pitch": 42, "duration": 21, "velocity": 92}, {"time": 2503, "pitch": 54, "duration": 9, "velocity": 82}, {"time": 2506, "pitch": 58, "duration": 7, "velocity": 76}, {"time": 2509, "pitch": 61, "duration": 2, "velocity": 86}, {"time": 2512, "pitch": 66, "duration": 11, "velocity": 122}, {"time": 2515, "pitch": 54, "duration": 8, "velocity": 95}, {"time": 2518, "pitch": 58, "duration": 4, "velocity": 97}, {"time": 2521, "pitch": 61, "duration": 2, "velocity": 102}, {"time": 2524, "pitch": 44, "duration": 20, "velocity": 99}, {"time": 2527, "pitch": 56, "duration": 9, "velocity": 95}, {"time": 2530, "pitch": 60, "duration": 7, "velocity": 81}, {"time": 2533, "pitch": 63, "duration": 2, "velocity": 112}, {"time": 2536, "pitch": 68, "duration": 10, "velocity": 122}, {"time": 2539, "pitch": 56, "duration": 3, "velocity": 99}, {"time": 2542, "pitch": 63, "duration": 4, "velocity": 117}, {"time": 2545, "pitch": 60, "duration": 3, "velocity": 99}, {"time": 2548, "pitch": 46, "duration": 23, "velocity": 112}, {"time": 2554, "pitch": 58, "duration": 7, "velocity": 93}, {"time": 2560, "pitch": 65, "duration": 6, "velocity": 77}, {"time": 2566, "pitch": 63, "duration": 6, "velocity": 95}, {"time": 2572, "pitch": 46, "duration": 23, "velocity": 90}, {"time": 2572, "pitch": 61, "duration": 11, "velocity": 97}, {"time": 2584, "pitch": 58, "duration": 3, "velocity": 89}, {"time": 2584, "pitch": 61, "duration": 11, "velocity": 86}, {"time": 2590, "pitch": 58, "duration": 6, "velocity": 66}, {"time": 2596, "pitch": 47, "duration": 45, "velocity": 92}, {"time": 2596, "pitch": 59, "duration": 11, "velocity": 95}, {"time": 2596, "pitch": 63, "duration": 11, "velocity": 112}, {"time": 2596, "pitch": 66, "duration": 10, "velocity": 100}, {"time": 2602, "pitch": 54, "duration": 9, "velocity": 76}, {"time": 2608, "pitch": 59, "duration": 10, "velocity": 92}, {"time": 2608, "pitch": 63, "duration": 8, "velocity": 112}, {"time": 2608, "pitch": 66, "duration": 8, "velocity": 107}, {"time": 2614, "pitch": 54, "duration": 8, "velocity": 97}, {"time": 2620, "pitch": 63, "duration": 9, "velocity": 117}, {"time": 2620, "pitch": 66, "duration": 9, "velocity": 117}, {"time": 2626, "pitch": 54, "duration": 7, "velocity": 112}, {"time": 2632, "pitch": 66, "duration": 9, "velocity": 127}, {"time": 2635, "pitch": 54, "duration": 5, "velocity": 96}, {"time": 2638, "pitch": 63, "duration": 3, "velocity": 112}, {"time": 2641, "pitch": 59, "duration": 2, "velocity": 93}, {"time": 2644, "pitch": 46, "duration": 41, "velocity": 127}, {"time": 2650, "pitch": 58, "duration": 8, "velocity": 82}, {"time": 2656, "pitch": 61, "duration": 9, "velocity": 122}, {"time": 2656, "pitch": 65, "duration": 6, "velocity": 122}, {"time": 2662, "pitch": 58, "duration": 8, "velocity": 95}, {"time": 2668, "pitch": 61, "duration": 9, "velocity": 112}, {"time": 2668, "pitch": 65, "duration": 6, "velocity": 117}, {"time": 2668, "pitch": 70, "duration": 7, "velocity": 117}, {"time": 2674, "pitch": 58, "duration": 6, "velocity": 100}, {"time": 2680, "pitch": 65, "duration": 5, "velocity": 102}, {"time": 2680, "pitch": 70, "duration": 5, "velocity": 127}, {"time": 2683, "pitch": 58, "duration": 2, "velocity": 112}, {"time": 2686, "pitch": 61, "duration": 1, "velocity": 102}, {"time": 2692, "pitch": 45, "duration": 40, "velocity": 89}, {"time": 2692, "pitch": 57, "duration": 10, "velocity": 127}, {"time": 2692, "pitch": 61, "duration": 10, "velocity": 127}, {"time": 2692, "pitch": 64, "duration": 10, "velocity": 97}, {"time": 2698, "pitch": 52, "duration": 7, "velocity": 38}, {"time": 2704, "pitch": 57, "duration": 6, "velocity": 99}, {"time": 2704, "pitch": 61, "duration": 8, "velocity": 117}, {"time": 2704, "pitch": 64, "duration": 10, "velocity": 96}, {"time": 2710, "pitch": 52, "duration": 9, "velocity": 72}, {"time": 2713, "pitch": 57, "duration": 1, "velocity": 74}, {"time": 2716, "pitch": 57, "duration": 7, "velocity": 100}, {"time": 2716, "pitch": 61, "duration": 10, "velocity": 127}, {"time": 2716, "pitch": 64, "duration": 10, "velocity": 97}, {"time": 2722, "pitch": 52, "duration": 6, "velocity": 86}, {"time": 2728, "pitch": 61, "duration": 6, "velocity": 127}, {"time": 2728, "pitch": 64, "duration": 6, "velocity": 102}, {"time": 2731, "pitch": 52, "duration": 1, "velocity": 86}, {"time": 2734, "pitch": 57, "duration": 1, "velocity": 90}, {"time": 2740, "pitch": 44, "duration": 22, "velocity": 99}, {"time": 2740, "pitch": 60, "duration": 6, "velocity": 112}, {"time": 2740, "pitch": 63, "duration": 6, "velocity": 127}, {"time": 2746, "pitch": 56, "duration": 7, "velocity": 112}, {"time": 2752, "pitch": 60, "duration": 7, "velocity": 102}, {"time": 2752, "pitch": 63, "duration": 7, "velocity": 127}, {"time": 2752, "pitch": 68, "duration": 9, "velocity": 122}, {"time": 2758, "pitch": 56, "duration": 4, "velocity": 117}, {"time": 2761, "pitch": 60, "duration": 1, "velocity": 45}, {"time": 2764, "pitch": 44, "duration": 17, "velocity": 102}, {"time": 2764, "pitch": 56, "duration": 12, "velocity": 56}, {"time": 2764, "pitch": 60, "duration": 10, "velocity": 97}, {"time": 2764, "pitch": 63, "duration": 10, "velocity": 127}, {"time": 2764, "pitch": 68, "duration": 10, "velocity": 100}, {"time": 2776, "pitch": 60, "duration": 2, "velocity": 95}, {"time": 2776, "pitch": 63, "duration": 6, "velocity": 127}, {"time": 2776, "pitch": 68, "duration": 6, "velocity": 127}, {"time": 2779, "pitch": 56, "duration": 2, "velocity": 112}, {"time": 2782, "pitch": 60, "duration": 1, "velocity": 95}, {"time": 2788, "pitch": 41, "duration": 21, "velocity": 73}, {"time": 2788, "pitch": 65, "duration": 7, "velocity": 97}, {"time": 2788, "pitch": 70, "duration": 10, "velocity": 122}, {"time": 2788, "pitch": 72, "duration": 9, "velocity": 99}, {"time": 2794, "pitch": 53, "duration": 8, "velocity": 38}, {"time": 2800, "pitch": 65, "duration": 10, "velocity": 95}, {"time": 2800, "pitch": 70, "duration": 7, "velocity": 127}, {"time": 2800, "pitch": 72, "duration": 9, "velocity": 112}, {"time": 2806, "pitch": 53, "duration": 3, "velocity": 83}, {"time": 2812, "pitch": 41, "duration": 23, "velocity": 74}, {"time": 2812, "pitch": 65, "duration": 24, "velocity": 96}, {"time": 2812, "pitch": 69, "duration": 23, "velocity": 102}, {"time": 2812, "pitch": 72, "duration": 24, "velocity": 100}, {"time": 2836, "pitch": 54, "duration": 20, "velocity": 83}, {"time": 2836, "pitch": 66, "duration": 19, "velocity": 62}, {"time": 2836, "pitch": 70, "duration": 19, "velocity": 69}, {"time": 2836, "pitch": 73, "duration": 19, "velocity": 60}, {"time": 2842, "pitch": 58, "duration": 16, "velocity": 58}, {"time": 2848, "pitch": 61, "duration": 10, "velocity": 42}, {"time": 2860, "pitch": 56, "duration": 25, "velocity": 63}, {"time": 2860, "pitch": 68, "duration": 2, "velocity": 32}, {"time": 2860, "pitch": 72, "duration": 23, "velocity": 53}, {"time": 2860, "pitch": 75, "duration": 10, "velocity": 41}, {"time": 2884, "pitch": 53, "duration": 16, "velocity": 67}, {"time": 2890, "pitch": 65, "duration": 8, "velocity": 52}, {"time": 2896, "pitch": 68, "duration": 16, "velocity": 56}, {"time": 2896, "pitch": 72, "duration": 11, "velocity": 60}, {"time": 2908, "pitch": 58, "duration": 16, "velocity": 61}, {"time": 2914, "pitch": 65, "duration": 9, "velocity": 42}, {"time": 2920, "pitch": 73, "duration": 10, "velocity": 117}, {"time": 2923, "pitch": 70, "duration": 8, "velocity": 47}, {"time": 2926, "pitch": 65, "duration": 6, "velocity": 58}, {"time": 2932, "pitch": 54, "duration": 23, "velocity": 117}, {"time": 2938, "pitch": 61, "duration": 8, "velocity": 75}, {"time": 2944, "pitch": 70, "duration": 11, "velocity": 82}, {"time": 2950, "pitch": 61, "duration": 5, "velocity": 71}, {"time": 2953, "pitch": 66, "duration": 2, "velocity": 67}, {"time": 2956, "pitch": 56, "duration": 22, "velocity": 63}, {"time": 2962, "pitch": 63, "duration": 9, "velocity": 73}, {"time": 2968, "pitch": 72, "duration": 11, "velocity": 73}, {"time": 2974, "pitch": 68, "duration": 4, "velocity": 43}, {"time": 2977, "pitch": 63, "duration": 3, "velocity": 76}, {"time": 2980, "pitch": 49, "duration": 14, "velocity": 78}, {"time": 2986, "pitch": 61, "duration": 9, "velocity": 81}, {"time": 2992, "pitch": 68, "duration": 12, "velocity": 127}, {"time": 2995, "pitch": 49, "duration": 3, "velocity": 95}, {"time": 2998, "pitch": 61, "duration": 4, "velocity": 97}, {"time": 3001, "pitch": 65, "duration": 1, "velocity": 70}, {"time": 3004, "pitch": 53, "duration": 16, "velocity": 72}, {"time": 3007, "pitch": 60, "duration": 10, "velocity": 77}, {"time": 3010, "pitch": 65, "duration": 3, "velocity": 112}, {"time": 3013, "pitch": 69, "duration": 3, "velocity": 122}, {"time": 3016, "pitch": 70, "duration": 1, "velocity": 59}, {"time": 3016, "pitch": 72, "duration": 11, "velocity": 112}, {"time": 3019, "pitch": 60, "duration": 1, "velocity": 100}, {"time": 3022, "pitch": 69, "duration": 5, "velocity": 127}, {"time": 3025, "pitch": 65, "duration": 3, "velocity": 112}, {"time": 3028, "pitch": 42, "duration": 19, "velocity": 107}, {"time": 3031, "pitch": 54, "duration": 9, "velocity": 97}, {"time": 3034, "pitch": 58, "duration": 7, "velocity": 85}, {"time": 3037, "pitch": 61, "duration": 3, "velocity": 96}, {"time": 3040, "pitch": 66, "duration": 11, "velocity": 127}, {"time": 3043, "pitch": 54, "duration": 7, "velocity": 96}, {"time": 3046, "pitch": 58, "duration": 4, "velocity": 95}, {"time": 3049, "pitch": 61, "duration": 2, "velocity": 99}, {"time": 3052, "pitch": 44, "duration": 18, "velocity": 90}, {"time": 3055, "pitch": 56, "duration": 9, "velocity": 102}, {"time": 3058, "pitch": 60, "duration": 7, "velocity": 74}, {"time": 3061, "pitch": 63, "duration": 4, "velocity": 127}, {"time": 3064, "pitch": 68, "duration": 11, "velocity": 127}, {"time": 3067, "pitch": 56, "duration": 2, "velocity": 97}, {"time": 3070, "pitch": 63, "duration": 5, "velocity": 122}, {"time": 3073, "pitch": 60, "duration": 3, "velocity": 100}, {"time": 3076, "pitch": 41, "duration": 16, "velocity": 72}, {"time": 3079, "pitch": 48, "duration": 10, "velocity": 82}, {"time": 3082, "pitch": 53, "duration": 4, "velocity": 100}, {"time": 3085, "pitch": 56, "duration": 3, "velocity": 92}, {"time": 3088, "pitch": 60, "duration": 11, "velocity": 102}, {"time": 3091, "pitch": 48, "duration": 2, "velocity": 86}, {"time": 3094, "pitch": 56, "duration": 5, "velocity": 107}, {"time": 3097, "pitch": 53, "duration": 2, "velocity": 86}, {"time": 3100, "pitch": 46, "duration": 1, "velocity": 127}, {"time": 3100, "pitch": 58, "duration": 1, "velocity": 127}, {"time": 3103, "pitch": 48, "duration": 1, "velocity": 99}, {"time": 3103, "pitch": 60, "duration": 1, "velocity": 99}, {"time": 3106, "pitch": 49, "duration": 1, "velocity": 127}, {"time": 3106, "pitch": 61, "duration": 1, "velocity": 127}, {"time": 3109, "pitch": 51, "duration": 5, "velocity": 127}, {"time": 3109, "pitch": 63, "duration": 5, "velocity": 127}, {"time": 3115, "pitch": 49, "duration": 2, "velocity": 127}, {"time": 3115, "pitch": 61, "duration": 2, "velocity": 127}, {"time": 3118, "pitch": 48, "duration": 2, "velocity": 117}, {"time": 3118, "pitch": 60, "duration": 2, "velocity": 117}, {"time": 3121, "pitch": 44, "duration": 2, "velocity": 127}, {"time": 3121, "pitch": 56, "duration": 2, "velocity": 127}, {"time": 3124, "pitch": 42, "duration": 20, "velocity": 100}, {"time": 3127, "pitch": 49, "duration": 18, "velocity": 75}, {"time": 3130, "pitch": 54, "duration": 6, "velocity": 93}, {"time": 3133, "pitch": 61, "duration": 5, "velocity": 95}, {"time": 3136, "pitch": 70, "duration": 9, "velocity": 127}, {"time": 3139, "pitch": 54, "duration": 8, "velocity": 102}, {"time": 3142, "pitch": 61, "duration": 4, "velocity": 117}, {"time": 3145, "pitch": 66, "duration": 3, "velocity": 117}, {"time": 3148, "pitch": 44, "duration": 23, "velocity": 83}, {"time": 3151, "pitch": 56, "duration": 10, "velocity": 107}, {"time": 3154, "pitch": 68, "duration": 8, "velocity": 78}, {"time": 3157, "pitch": 72, "duration": 3, "velocity": 57}, {"time": 3160, "pitch": 75, "duration": 12, "velocity": 99}, {"time": 3163, "pitch": 51, "duration": 7, "velocity": 51}, {"time": 3163, "pitch": 56, "duration": 6, "velocity": 99}, {"time": 3166, "pitch": 68, "duration": 6, "velocity": 117}, {"time": 3169, "pitch": 72, "duration": 3, "velocity": 72}, {"time": 3172, "pitch": 46, "duration": 20, "velocity": 102}, {"time": 3175, "pitch": 53, "duration": 9, "velocity": 75}, {"time": 3178, "pitch": 58, "duration": 8, "velocity": 74}, {"time": 3181, "pitch": 63, "duration": 5, "velocity": 88}, {"time": 3184, "pitch": 65, "duration": 5, "velocity": 78}, {"time": 3187, "pitch": 53, "duration": 8, "velocity": 73}, {"time": 3190, "pitch": 58, "duration": 4, "velocity": 68}, {"time": 3190, "pitch": 65, "duration": 1, "velocity": 60}, {"time": 3193, "pitch": 65, "duration": 27, "velocity": 61}, {"time": 3196, "pitch": 46, "duration": 23, "velocity": 63}, {"time": 3196, "pitch": 58, "duration": 12, "velocity": 96}, {"time": 3196, "pitch": 61, "duration": 23, "velocity": 55}, {"time": 3214, "pitch": 58, "duration": 6, "velocity": 57}, {"time": 3220, "pitch": 42, "duration": 18, "velocity": 79}, {"time": 3223, "pitch": 54, "duration": 9, "velocity": 75}, {"time": 3226, "pitch": 58, "duration": 7, "velocity": 79}, {"time": 3229, "pitch": 61, "duration": 7, "velocity": 66}, {"time": 3232, "pitch": 66, "duration": 12, "velocity": 76}, {"time": 3235, "pitch": 54, "duration": 8, "velocity": 67}, {"time": 3238, "pitch": 58, "duration": 5, "velocity": 48}, {"time": 3241, "pitch": 61, "duration": 3, "velocity": 66}, {"time": 3244, "pitch": 44, "duration": 18, "velocity": 44}, {"time": 3247, "pitch": 56, "duration": 9, "velocity": 74}, {"time": 3250, "pitch": 60, "duration": 7, "velocity": 58}, {"time": 3253, "pitch": 63, "duration": 4, "velocity": 69}, {"time": 3256, "pitch": 68, "duration": 12, "velocity": 117}, {"time": 3259, "pitch": 56, "duration": 7, "velocity": 70}, {"time": 3262, "pitch": 63, "duration": 6, "velocity": 63}, {"time": 3265, "pitch": 60, "duration": 3, "velocity": 68}, {"time": 3268, "pitch": 46, "duration": 23, "velocity": 55}, {"time": 3271, "pitch": 58, "duration": 9, "velocity": 81}, {"time": 3274, "pitch": 61, "duration": 7, "velocity": 59}, {"time": 3277, "pitch": 65, "duration": 7, "velocity": 61}, {"time": 3280, "pitch": 70, "duration": 19, "velocity": 72}, {"time": 3283, "pitch": 58, "duration": 10, "velocity": 77}, {"time": 3286, "pitch": 61, "duration": 10, "velocity": 44}, {"time": 3289, "pitch": 65, "duration": 9, "velocity": 58}, {"time": 3292, "pitch": 46, "duration": 19, "velocity": 63}, {"time": 3295, "pitch": 58, "duration": 9, "velocity": 68}, {"time": 3298, "pitch": 61, "duration": 8, "velocity": 55}, {"time": 3301, "pitch": 65, "duration": 7, "velocity": 59}, {"time": 3304, "pitch": 70, "duration": 12, "velocity": 95}, {"time": 3307, "pitch": 58, "duration": 3, "velocity": 88}, {"time": 3310, "pitch": 61, "duration": 6, "velocity": 93}, {"time": 3313, "pitch": 65, "duration": 3, "velocity": 65}, {"time": 3316, "pitch": 42, "duration": 20, "velocity": 82}, {"time": 3319, "pitch": 54, "duration": 9, "velocity": 62}, {"time": 3322, "pitch": 58, "duration": 7, "velocity": 63}, {"time": 3325, "pitch": 61, "duration": 4, "velocity": 73}, {"time": 3328, "pitch": 66, "duration": 12, "velocity": 100}, {"time": 3331, "pitch": 54, "duration": 8, "velocity": 77}, {"time": 3334, "pitch": 58, "duration": 5, "velocity": 75}, {"time": 3337, "pitch": 61, "duration": 3, "velocity": 53}, {"time": 3340, "pitch": 44, "duration": 20, "velocity": 67}, {"time": 3343, "pitch": 56, "duration": 10, "velocity": 86}, {"time": 3346, "pitch": 60, "duration": 7, "velocity": 63}, {"time": 3349, "pitch": 63, "duration": 4, "velocity": 86}, {"time": 3352, "pitch": 68, "duration": 11, "velocity": 122}, {"time": 3355, "pitch": 56, "duration": 8, "velocity": 77}, {"time": 3358, "pitch": 63, "duration": 5, "velocity": 78}, {"time": 3361, "pitch": 60, "duration": 3, "velocity": 66}, {"time": 3364, "pitch": 46, "duration": 18, "velocity": 76}, {"time": 3367, "pitch": 58, "duration": 9, "velocity": 81}, {"time": 3370, "pitch": 61, "duration": 8, "velocity": 62}, {"time": 3373, "pitch": 65, "duration": 5, "velocity": 55}, {"time": 3376, "pitch": 70, "duration": 12, "velocity": 69}, {"time": 3379, "pitch": 58, "duration": 2, "velocity": 78}, {"time": 3382, "pitch": 61, "duration": 6, "velocity": 74}, {"time": 3385, "pitch": 65, "duration": 3, "velocity": 72}, {"time": 3388, "pitch": 44, "duration": 17, "velocity": 68}, {"time": 3391, "pitch": 56, "duration": 9, "velocity": 69}, {"time": 3394, "pitch": 60, "duration": 7, "velocity": 40}, {"time": 3397, "pitch": 63, "duration": 8, "velocity": 63}, {"time": 3400, "pitch": 68, "duration": 11, "velocity": 112}, {"time": 3403, "pitch": 56, "duration": 1, "velocity": 82}, {"time": 3406, "pitch": 60, "duration": 5, "velocity": 81}, {"time": 3409, "pitch": 63, "duration": 3, "velocity": 64}, {"time": 3412, "pitch": 42, "duration": 18, "velocity": 63}, {"time": 3415, "pitch": 54, "duration": 9, "velocity": 40}, {"time": 3418, "pitch": 58, "duration": 7, "velocity": 55}, {"time": 3421, "pitch": 61, "duration": 4, "velocity": 61}, {"time": 3424, "pitch": 66, "duration": 12, "velocity": 95}, {"time": 3427, "pitch": 54, "duration": 7, "velocity": 68}, {"time": 3430, "pitch": 58, "duration": 5, "velocity": 69}, {"time": 3433, "pitch": 61, "duration": 3, "velocity": 52}, {"time": 3436, "pitch": 44, "duration": 19, "velocity": 79}, {"time": 3439, "pitch": 56, "duration": 9, "velocity": 61}, {"time": 3442, "pitch": 60, "duration": 7, "velocity": 58}, {"time": 3445, "pitch": 63, "duration": 7, "velocity": 92}, {"time": 3448, "pitch": 68, "duration": 11, "velocity": 107}, {"time": 3451, "pitch": 56, "duration": 8, "velocity": 68}, {"time": 3454, "pitch": 60, "duration": 5, "velocity": 76}, {"time": 3457, "pitch": 63, "duration": 2, "velocity": 68}, {"time": 3460, "pitch": 46, "duration": 17, "velocity": 89}, {"time": 3463, "pitch": 58, "duration": 9, "velocity": 60}, {"time": 3466, "pitch": 61, "duration": 8, "velocity": 63}, {"time": 3469, "pitch": 65, "duration": 4, "velocity": 68}, {"time": 3472, "pitch": 70, "duration": 15, "velocity": 76}, {"time": 3475, "pitch": 58, "duration": 1, "velocity": 72}, {"time": 3478, "pitch": 61, "duration": 7, "velocity": 82}, {"time": 3481, "pitch": 65, "duration": 3, "velocity": 64}, {"time": 3484, "pitch": 44, "duration": 19, "velocity": 74}, {"time": 3487, "pitch": 56, "duration": 10, "velocity": 58}, {"time": 3490, "pitch": 61, "duration": 6, "velocity": 63}, {"time": 3496, "pitch": 63, "duration": 7, "velocity": 82}, {"time": 3499, "pitch": 56, "duration": 3, "velocity": 61}, {"time": 3502, "pitch": 60, "duration": 5, "velocity": 66}, {"time": 3505, "pitch": 63, "duration": 3, "velocity": 64}, {"time": 3508, "pitch": 42, "duration": 21, "velocity": 82}, {"time": 3511, "pitch": 54, "duration": 9, "velocity": 55}, {"time": 3514, "pitch": 58, "duration": 8, "velocity": 55}, {"time": 3517, "pitch": 61, "duration": 4, "velocity": 56}, {"time": 3520, "pitch": 66, "duration": 12, "velocity": 93}, {"time": 3523, "pitch": 54, "duration": 7, "velocity": 69}, {"time": 3526, "pitch": 58, "duration": 5, "velocity": 63}, {"time": 3529, "pitch": 54, "duration": 1, "velocity": 25}, {"time": 3529, "pitch": 61, "duration": 3, "velocity": 42}, {"time": 3532, "pitch": 42, "duration": 18, "velocity": 61}, {"time": 3535, "pitch": 54, "duration": 9, "velocity": 53}, {"time": 3538, "pitch": 58, "duration": 7, "velocity": 45}, {"time": 3541, "pitch": 61, "duration": 4, "velocity": 73}, {"time": 3544, "pitch": 66, "duration": 11, "velocity": 96}, {"time": 3547, "pitch": 54, "duration": 8, "velocity": 79}, {"time": 3550, "pitch": 58, "duration": 5, "velocity": 64}, {"time": 3553, "pitch": 61, "duration": 3, "velocity": 71}, {"time": 3556, "pitch": 44, "duration": 21, "velocity": 74}, {"time": 3559, "pitch": 56, "duration": 9, "velocity": 60}, {"time": 3562, "pitch": 60, "duration": 8, "velocity": 46}, {"time": 3565, "pitch": 63, "duration": 5, "velocity": 63}, {"time": 3568, "pitch": 68, "duration": 22, "velocity": 93}, {"time": 3571, "pitch": 56, "duration": 10, "velocity": 75}, {"time": 3574, "pitch": 60, "duration": 10, "velocity": 47}, {"time": 3577, "pitch": 63, "duration": 10, "velocity": 50}, {"time": 3580, "pitch": 44, "duration": 24, "velocity": 58}, {"time": 3583, "pitch": 56, "duration": 20, "velocity": 53}, {"time": 3586, "pitch": 60, "duration": 18, "velocity": 41}, {"time": 3589, "pitch": 63, "duration": 14, "velocity": 58}, {"time": 3592, "pitch": 68, "duration": 12, "velocity": 68}, {"time": 3602, "pitch": 65, "duration": 111, "velocity": 58}, {"time": 3603, "pitch": 61, "duration": 110, "velocity": 68}, {"time": 3603, "pitch": 58, "duration": 29, "velocity": 69}, {"time": 3604, "pitch": 70, "duration": 109, "velocity": 67}, {"time": 3604, "pitch": 34, "duration": 110, "velocity": 62}, {"time": 3604, "pitch": 46, "duration": 110, "velocity": 75}, {"time": 3652, "pitch": 58, "duration": 26, "velocity": 24}, {"time": 3680, "pitch": 58, "duration": 33, "velocity": 35}], "annotations": [{"time": 4, "annotation": {"number": 64, "value": 127}, "group": "control_change"}, {"time": 27, "annotation": {"number": 64, "value": 0}, "group": "control_change"}, {"time": 29, "annotation": {"number": 64, "value": 127}, "group": "control_change"}, {"time": 50, "annotation": {"number": 64, "value": 0}, "group": "control_change"}, {"time": 52, "annotation": {"number": 64, "value": 127}, "group": "control_change"}, {"time": 73, "annotation": {"number": 64, "value": 0}, "group": "control_change"}, {"time": 76, "annotation": {"number": 64, "value": 127}, "group": "control_change"}, {"time": 98, "annotation": {"number": 64, "value": 0}, "group": "control_change"}, {"time": 100, "annotation": {"number": 64, "value": 127}, "group": "control_change"}, {"time": 122, "annotation": {"number": 64, "value": 0}, "group": "control_change"}, {"time": 124, "annotation": {"number": 64, "value": 127}, "group": "control_change"}, {"time": 146, "annotation": {"number": 64, "value": 0}, "group": "control_change"}, {"time": 148, "annotation": {"number": 64, "value": 127}, "group": "control_change"}, {"time": 194, "annotation": {"number": 64, "value": 0}, "group": "control_change"}, {"time": 196, "annotation": {"number": 64, "value": 127}, "group": "control_change"}, {"time": 242, "annotation": {"number": 64, "value": 0}, "group": "control_change"}, {"time": 244, "annotation": {"number": 64, "value": 127}, "group": "control_change"}, {"time": 286, "annotation": {"number": 64, "value": 0}, "group": "control_change"}, {"time": 293, "annotation": {"number": 64, "value": 127}, "group": "control_change"}, {"time": 315, "annotation": {"number": 64, "value": 0}, "group": "control_change"}, {"time": 319, "annotation": {"number": 64, "value": 127}, "group": "control_change"}, {"time": 354, "annotation": {"number": 64, "value": 0}, "group": "control_change"}, {"time": 357, "annotation": {"number": 64, "value": 127}, "group": "control_change"}, {"time": 366, "annotation": {"number": 64, "value": 0}, "group": "control_change"}, {"time": 370, "annotation": {"number": 64, "value": 127}, "group": "control_change"}, {"time": 385, "annotation": {"number": 64, "value": 0}, "group": "control_change"}, {"time": 388, "annotation": {"number": 64, "value": 127}, "group": "control_change"}, {"time": 408, "annotation": {"number": 64, "value": 0}, "group": "control_change"}, {"time": 413, "annotation": {"number": 64, "value": 127}, "group": "control_change"}, {"time": 433, "annotation": {"number": 64, "value": 0}, "group": "control_change"}, {"time": 438, "annotation": {"number": 64, "value": 127}, "group": "control_change"}, {"time": 458, "annotation": {"number": 64, "value": 0}, "group": "control_change"}, {"time": 462, "annotation": {"number": 64, "value": 127}, "group": "control_change"}, {"time": 482, "annotation": {"number": 64, "value": 0}, "group": "control_change"}, {"time": 491, "annotation": {"number": 64, "value": 127}, "group": "control_change"}, {"time": 506, "annotation": {"number": 64, "value": 0}, "group": "control_change"}, {"time": 510, "annotation": {"number": 64, "value": 127}, "group": "control_change"}, {"time": 543, "annotation": {"number": 64, "value": 0}, "group": "control_change"}, {"time": 547, "annotation": {"number": 64, "value": 127}, "group": "control_change"}, {"time": 554, "annotation": {"number": 64, "value": 0}, "group": "control_change"}, {"time": 558, "annotation": {"number": 64, "value": 127}, "group": "control_change"}, {"time": 577, "annotation": {"number": 64, "value": 0}, "group": "control_change"}, {"time": 581, "annotation": {"number": 64, "value": 127}, "group": "control_change"}, {"time": 601, "annotation": {"number": 64, "value": 0}, "group": "control_change"}, {"time": 605, "annotation": {"number": 64, "value": 127}, "group": "control_change"}, {"time": 625, "annotation": {"number": 64, "value": 0}, "group": "control_change"}, {"time": 629, "annotation": {"number": 64, "value": 127}, "group": "control_change"}, {"time": 650, "annotation": {"number": 64, "value": 0}, "group": "control_change"}, {"time": 653, "annotation": {"number": 64, "value": 127}, "group": "control_change"}, {"time": 673, "annotation": {"number": 64, "value": 0}, "group": "control_change"}, {"time": 676, "annotation": {"number": 64, "value": 127}, "group": "control_change"}, {"time": 697, "annotation": {"number": 64, "value": 0}, "group": "control_change"}, {"time": 700, "annotation": {"number": 64, "value": 127}, "group": "control_change"}, {"time": 721, "annotation": {"number": 64, "value": 0}, "group": "control_change"}, {"time": 725, "annotation": {"number": 64, "value": 127}, "group": "control_change"}, {"time": 745, "annotation": {"number": 64, "value": 0}, "group": "control_change"}, {"time": 748, "annotation": {"number": 64, "value": 127}, "group": "control_change"}, {"time": 769, "annotation": {"number": 64, "value": 0}, "group": "control_change"}, {"time": 773, "annotation": {"number": 64, "value": 127}, "group": "control_change"}, {"time": 793, "annotation": {"number": 64, "value": 0}, "group": "control_change"}, {"time": 797, "annotation": {"number": 64, "value": 127}, "group": "control_change"}, {"time": 807, "annotation": {"number": 64, "value": 0}, "group": "control_change"}, {"time": 812, "annotation": {"number": 64, "value": 127}, "group": "control_change"}, {"time": 817, "annotation": {"number": 64, "value": 0}, "group": "control_change"}, {"time": 855, "annotation": {"number": 64, "value": 127}, "group": "control_change"}, {"time": 865, "annotation": {"number": 64, "value": 0}, "group": "control_change"}, {"time": 868, "annotation": {"number": 64, "value": 127}, "group": "control_change"}, {"time": 889, "annotation": {"number": 64, "value": 0}, "group": "control_change"}, {"time": 893, "annotation": {"number": 64, "value": 127}, "group": "control_change"}, {"time": 894, "annotation": {"number": 64, "value": 0}, "group": "control_change"}, {"time": 918, "annotation": {"number": 64, "value": 127}, "group": "control_change"}, {"time": 926, "annotation": {"number": 64, "value": 0}, "group": "control_change"}, {"time": 927, "annotation": {"number": 64, "value": 127}, "group": "control_change"}, {"time": 948, "annotation": {"number": 64, "value": 0}, "group": "control_change"}, {"time": 948, "annotation": {"number": 64, "value": 127}, "group": "control_change"}, {"time": 955, "annotation": {"number": 64, "value": 0}, "group": "control_change"}, {"time": 955, "annotation": {"number": 64, "value": 127}, "group": "control_change"}, {"time": 961, "annotation": {"number": 64, "value": 0}, "group": "control_change"}, {"time": 964, "annotation": {"number": 64, "value": 127}, "group": "control_change"}, {"time": 985, "annotation": {"number": 64, "value": 0}, "group": "control_change"}, {"time": 988, "annotation": {"number": 64, "value": 127}, "group": "control_change"}, {"time": 1009, "annotation": {"number": 64, "value": 0}, "group": "control_change"}, {"time": 1012, "annotation": {"number": 64, "value": 127}, "group": "control_change"}, {"time": 1033, "annotation": {"number": 64, "value": 0}, "group": "control_change"}, {"time": 1037, "annotation": {"number": 64, "value": 127}, "group": "control_change"}, {"time": 1058, "annotation": {"number": 64, "value": 0}, "group": "control_change"}, {"time": 1060, "annotation": {"number": 64, "value": 127}, "group": "control_change"}, {"time": 1081, "annotation": {"number": 64, "value": 0}, "group": "control_change"}, {"time": 1084, "annotation": {"number": 64, "value": 127}, "group": "control_change"}, {"time": 1106, "annotation": {"number": 64, "value": 0}, "group": "control_change"}, {"time": 1108, "annotation": {"number": 64, "value": 127}, "group": "control_change"}, {"time": 1130, "annotation": {"number": 64, "value": 0}, "group": "control_change"}, {"time": 1132, "annotation": {"number": 64, "value": 127}, "group": "control_change"}, {"time": 1154, "annotation": {"number": 64, "value": 0}, "group": "control_change"}, {"time": 1156, "annotation": {"number": 64, "value": 127}, "group": "control_change"}, {"time": 1178, "annotation": {"number": 64, "value": 0}, "group": "control_change"}, {"time": 1180, "annotation": {"number": 64, "value": 127}, "group": "control_change"}, {"time": 1201, "annotation": {"number": 64, "value": 0}, "group": "control_change"}, {"time": 1203, "annotation": {"number": 64, "value": 127}, "group": "control_change"}, {"time": 1227, "annotation": {"number": 64, "value": 0}, "group": "control_change"}, {"time": 1232, "annotation": {"number": 64, "value": 127}, "group": "control_change"}, {"time": 1250, "annotation": {"number": 64, "value": 0}, "group": "control_change"}, {"time": 1252, "annotation": {"number": 64, "value": 127}, "group": "control_change"}, {"time": 1273, "annotation": {"number": 64, "value": 0}, "group": "control_change"}, {"time": 1277, "annotation": {"number": 64, "value": 127}, "group": "control_change"}, {"time": 1297, "annotation": {"number": 64, "value": 0}, "group": "control_change"}, {"time": 1301, "annotation": {"number": 64, "value": 127}, "group": "control_change"}, {"time": 1321, "annotation": {"number": 64, "value": 0}, "group": "control_change"}, {"time": 1324, "annotation": {"number": 64, "value": 127}, "group": "control_change"}, {"time": 1345, "annotation": {"number": 64, "value": 0}, "group": "control_change"}, {"time": 1348, "annotation": {"number": 64, "value": 127}, "group": "control_change"}, {"time": 1369, "annotation": {"number": 64, "value": 0}, "group": "control_change"}, {"time": 1372, "annotation": {"number": 64, "value": 127}, "group": "control_change"}, {"time": 1393, "annotation": {"number": 64, "value": 0}, "group": "control_change"}, {"time": 1396, "annotation": {"number": 64, "value": 127}, "group": "control_change"}, {"time": 1417, "annotation": {"number": 64, "value": 0}, "group": "control_change"}, {"time": 1420, "annotation": {"number": 64, "value": 127}, "group": "control_change"}, {"time": 1441, "annotation": {"number": 64, "value": 0}, "group": "control_change"}, {"time": 1445, "annotation": {"number": 64, "value": 127}, "group": "control_change"}, {"time": 1466, "annotation": {"number": 64, "value": 0}, "group": "control_change"}, {"time": 1469, "annotation": {"number": 64, "value": 127}, "group": "control_change"}, {"time": 1489, "annotation": {"number": 64, "value": 0}, "group": "control_change"}, {"time": 1492, "annotation": {"number": 64, "value": 127}, "group": "control_change"}, {"time": 1514, "annotation": {"number": 64, "value": 0}, "group": "control_change"}, {"time": 1516, "annotation": {"number": 64, "value": 127}, "group": "control_change"}, {"time": 1537, "annotation": {"number": 64, "value": 0}, "group": "control_change"}, {"time": 1540, "annotation": {"number": 64, "value": 127}, "group": "control_change"}, {"time": 1551, "annotation": {"number": 64, "value": 0}, "group": "control_change"}, {"time": 1552, "annotation": {"number": 64, "value": 127}, "group": "control_change"}, {"time": 1553, "annotation": {"number": 64, "value": 0}, "group": "control_change"}, {"time": 1555, "annotation": {"number": 64, "value": 0}, "group": "control_change"}, {"time": 1555, "annotation": {"number": 64, "value": 127}, "group": "control_change"}, {"time": 1556, "annotation": {"number": 64, "value": 0}, "group": "control_change"}, {"time": 1563, "annotation": {"number": 64, "value": 127}, "group": "control_change"}, {"time": 1576, "annotation": {"number": 64, "value": 127}, "group": "control_change"}, {"time": 1576, "annotation": {"number": 64, "value": 0}, "group": "control_change"}, {"time": 1638, "annotation": {"number": 64, "value": 127}, "group": "control_change"}, {"time": 1660, "annotation": {"number": 64, "value": 0}, "group": "control_change"}, {"time": 1695, "annotation": {"number": 64, "value": 0}, "group": "control_change"}, {"time": 1696, "annotation": {"number": 64, "value": 127}, "group": "control_change"}, {"time": 1697, "annotation": {"number": 64, "value": 0}, "group": "control_change"}, {"time": 1710, "annotation": {"number": 64, "value": 127}, "group": "control_change"}, {"time": 1728, "annotation": {"number": 64, "value": 0}, "group": "control_change"}, {"time": 1740, "annotation": {"number": 64, "value": 127}, "group": "control_change"}, {"time": 1778, "annotation": {"number": 64, "value": 0}, "group": "control_change"}, {"time": 1781, "annotation": {"number": 64, "value": 127}, "group": "control_change"}, {"time": 1825, "annotation": {"number": 64, "value": 0}, "group": "control_change"}, {"time": 1835, "annotation": {"number": 64, "value": 127}, "group": "control_change"}, {"time": 1850, "annotation": {"number": 64, "value": 0}, "group": "control_change"}, {"time": 1854, "annotation": {"number": 64, "value": 127}, "group": "control_change"}, {"time": 1887, "annotation": {"number": 64, "value": 0}, "group": "control_change"}, {"time": 1891, "annotation": {"number": 64, "value": 127}, "group": "control_change"}, {"time": 1898, "annotation": {"number": 64, "value": 0}, "group": "control_change"}, {"time": 1902, "annotation": {"number": 64, "value": 127}, "group": "control_change"}, {"time": 1921, "annotation": {"number": 64, "value": 0}, "group": "control_change"}, {"time": 1925, "annotation": {"number": 64, "value": 127}, "group": "control_change"}, {"time": 1945, "annotation": {"number": 64, "value": 0}, "group": "control_change"}, {"time": 1949, "annotation": {"number": 64, "value": 127}, "group": "control_change"}, {"time": 1969, "annotation": {"number": 64, "value": 0}, "group": "control_change"}, {"time": 1973, "annotation": {"number": 64, "value": 127}, "group": "control_change"}, {"time": 1994, "annotation": {"number": 64, "value": 0}, "group": "control_change"}, {"time": 1997, "annotation": {"number": 64, "value": 127}, "group": "control_change"}, {"time": 2017, "annotation": {"number": 64, "value": 0}, "group": "control_change"}, {"time": 2020, "annotation": {"number": 64, "value": 127}, "group": "control_change"}, {"time": 2041, "annotation": {"number": 64, "value": 0}, "group": "control_change"}, {"time": 2044, "annotation": {"number": 64, "value": 127}, "group": "control_change"}, {"time": 2065, "annotation": {"number": 64, "value": 0}, "group": "control_change"}, {"time": 2069, "annotation": {"number": 64, "value": 127}, "group": "control_change"}, {"time": 2089, "annotation": {"number": 64, "value": 0}, "group": "control_change"}, {"time": 2092, "annotation": {"number": 64, "value": 127}, "group": "control_change"}, {"time": 2113, "annotation": {"number": 64, "value": 0}, "group": "control_change"}, {"time": 2117, "annotation": {"number": 64, "value": 127}, "group": "control_change"}, {"time": 2137, "annotation": {"number": 64, "value": 0}, "group": "control_change"}, {"time": 2141, "annotation": {"number": 64, "value": 127}, "group": "control_change"}, {"time": 2151, "annotation": {"number": 64, "value": 0}, "group": "control_change"}, {"time": 2156, "annotation": {"number": 64, "value": 127}, "group": "control_change"}, {"time": 2161, "annotation": {"number": 64, "value": 0}, "group": "control_change"}, {"time": 2199, "annotation": {"number": 64, "value": 127}, "group": "control_change"}, {"time": 2209, "annotation": {"number": 64, "value": 0}, "group": "control_change"}, {"time": 2212, "annotation": {"number": 64, "value": 127}, "group": "control_change"}, {"time": 2233, "annotation": {"number": 64, "value": 0}, "group": "control_change"}, {"time": 2237, "annotation": {"number": 64, "value": 127}, "group": "control_change"}, {"time": 2238, "annotation": {"number": 64, "value": 0}, "group": "control_change"}, {"time": 2262, "annotation": {"number": 64, "value": 127}, "group": "control_change"}, {"time": 2270, "annotation": {"number": 64, "value": 0}, "group": "control_change"}, {"time": 2271, "annotation": {"number": 64, "value": 127}, "group": "control_change"}, {"time": 2292, "annotation": {"number": 64, "value": 0}, "group": "control_change"}, {"time": 2292, "annotation": {"number": 64, "value": 127}, "group": "control_change"}, {"time": 2299, "annotation": {"number": 64, "value": 0}, "group": "control_change"}, {"time": 2299, "annotation": {"number": 64, "value": 127}, "group": "control_change"}, {"time": 2305, "annotation": {"number": 64, "value": 0}, "group": "control_change"}, {"time": 2308, "annotation": {"number": 64, "value": 127}, "group": "control_change"}, {"time": 2329, "annotation": {"number": 64, "value": 0}, "group": "control_change"}, {"time": 2332, "annotation": {"number": 64, "value": 127}, "group": "control_change"}, {"time": 2353, "annotation": {"number": 64, "value": 0}, "group": "control_change"}, {"time": 2356, "annotation": {"number": 64, "value": 127}, "group": "control_change"}, {"time": 2377, "annotation": {"number": 64, "value": 0}, "group": "control_change"}, {"time": 2381, "annotation": {"number": 64, "value": 127}, "group": "control_change"}, {"time": 2402, "annotation": {"number": 64, "value": 0}, "group": "control_change"}, {"time": 2404, "annotation": {"number": 64, "value": 127}, "group": "control_change"}, {"time": 2425, "annotation": {"number": 64, "value": 0}, "group": "control_change"}, {"time": 2428, "annotation": {"number": 64, "value": 127}, "group": "control_change"}, {"time": 2450, "annotation": {"number": 64, "value": 0}, "group": "control_change"}, {"time": 2452, "annotation": {"number": 64, "value": 127}, "group": "control_change"}, {"time": 2474, "annotation": {"number": 64, "value": 0}, "group": "control_change"}, {"time": 2476, "annotation": {"number": 64, "value": 127}, "group": "control_change"}, {"time": 2498, "annotation": {"number": 64, "value": 0}, "group": "control_change"}, {"time": 2500, "annotation": {"number": 64, "value": 127}, "group": "control_change"}, {"time": 2522, "annotation": {"number": 64, "value": 0}, "group": "control_change"}, {"time": 2524, "annotation": {"number": 64, "value": 127}, "group": "control_change"}, {"time": 2545, "annotation": {"number": 64, "value": 0}, "group": "control_change"}, {"time": 2547, "annotation": {"number": 64, "value": 127}, "group": "control_change"}, {"time": 2571, "annotation": {"number": 64, "value": 0}, "group": "control_change"}, {"time": 2576, "annotation": {"number": 64, "value": 127}, "group": "control_change"}, {"time": 2594, "annotation": {"number": 64, "value": 0}, "group": "control_change"}, {"time": 2596, "annotation": {"number": 64, "value": 127}, "group": "control_change"}, {"time": 2642, "annotation": {"number": 64, "value": 0}, "group": "control_change"}, {"time": 2645, "annotation": {"number": 64, "value": 127}, "group": "control_change"}, {"time": 2691, "annotation": {"number": 64, "value": 0}, "group": "control_change"}, {"time": 2692, "annotation": {"number": 64, "value": 127}, "group": "control_change"}, {"time": 2763, "annotation": {"number": 64, "value": 0}, "group": "control_change"}, {"time": 2780, "annotation": {"number": 64, "value": 127}, "group": "control_change"}, {"time": 2788, "annotation": {"number": 64, "value": 127}, "group": "control_change"}, {"time": 2811, "annotation": {"number": 64, "value": 0}, "group": "control_change"}, {"time": 2841, "annotation": {"number": 64, "value": 127}, "group": "control_change"}, {"time": 2858, "annotation": {"number": 64, "value": 0}, "group": "control_change"}, {"time": 2862, "annotation": {"number": 64, "value": 127}, "group": "control_change"}, {"time": 2881, "annotation": {"number": 64, "value": 0}, "group": "control_change"}, {"time": 2887, "annotation": {"number": 64, "value": 127}, "group": "control_change"}, {"time": 2906, "annotation": {"number": 64, "value": 0}, "group": "control_change"}, {"time": 2911, "annotation": {"number": 64, "value": 127}, "group": "control_change"}, {"time": 2930, "annotation": {"number": 64, "value": 0}, "group": "control_change"}, {"time": 2936, "annotation": {"number": 64, "value": 127}, "group": "control_change"}, {"time": 3002, "annotation": {"number": 64, "value": 0}, "group": "control_change"}, {"time": 3009, "annotation": {"number": 64, "value": 127}, "group": "control_change"}, {"time": 3025, "annotation": {"number": 64, "value": 0}, "group": "control_change"}, {"time": 3029, "annotation": {"number": 64, "value": 127}, "group": "control_change"}, {"time": 3048, "annotation": {"number": 64, "value": 0}, "group": "control_change"}, {"time": 3053, "annotation": {"number": 64, "value": 127}, "group": "control_change"}, {"time": 3073, "annotation": {"number": 64, "value": 0}, "group": "control_change"}, {"time": 3077, "annotation": {"number": 64, "value": 127}, "group": "control_change"}, {"time": 3098, "annotation": {"number": 64, "value": 0}, "group": "control_change"}, {"time": 3125, "annotation": {"number": 64, "value": 127}, "group": "control_change"}, {"time": 3145, "annotation": {"number": 64, "value": 0}, "group": "control_change"}, {"time": 3148, "annotation": {"number": 64, "value": 127}, "group": "control_change"}, {"time": 3168, "annotation": {"number": 64, "value": 0}, "group": "control_change"}, {"time": 3173, "annotation": {"number": 64, "value": 127}, "group": "control_change"}, {"time": 3195, "annotation": {"number": 64, "value": 0}, "group": "control_change"}, {"time": 3208, "annotation": {"number": 64, "value": 127}, "group": "control_change"}, {"time": 3209, "annotation": {"number": 64, "value": 0}, "group": "control_change"}, {"time": 3230, "annotation": {"number": 64, "value": 127}, "group": "control_change"}, {"time": 3242, "annotation": {"number": 64, "value": 0}, "group": "control_change"}, {"time": 3245, "annotation": {"number": 64, "value": 127}, "group": "control_change"}, {"time": 3265, "annotation": {"number": 64, "value": 0}, "group": "control_change"}, {"time": 3269, "annotation": {"number": 64, "value": 127}, "group": "control_change"}, {"time": 3289, "annotation": {"number": 64, "value": 0}, "group": "control_change"}, {"time": 3293, "annotation": {"number": 64, "value": 127}, "group": "control_change"}, {"time": 3309, "annotation": {"number": 64, "value": 0}, "group": "control_change"}, {"time": 3317, "annotation": {"number": 64, "value": 127}, "group": "control_change"}, {"time": 3336, "annotation": {"number": 64, "value": 0}, "group": "control_change"}, {"time": 3350, "annotation": {"number": 64, "value": 127}, "group": "control_change"}, {"time": 3359, "annotation": {"number": 64, "value": 0}, "group": "control_change"}, {"time": 3366, "annotation": {"number": 64, "value": 127}, "group": "control_change"}, {"time": 3386, "annotation": {"number": 64, "value": 0}, "group": "control_change"}, {"time": 3389, "annotation": {"number": 64, "value": 127}, "group": "control_change"}, {"time": 3409, "annotation": {"number": 64, "value": 0}, "group": "control_change"}, {"time": 3413, "annotation": {"number": 64, "value": 127}, "group": "control_change"}, {"time": 3434, "annotation": {"number": 64, "value": 0}, "group": "control_change"}, {"time": 3437, "annotation": {"number": 64, "value": 127}, "group": "control_change"}, {"time": 3457, "annotation": {"number": 64, "value": 0}, "group": "control_change"}, {"time": 3461, "annotation": {"number": 64, "value": 127}, "group": "control_change"}, {"time": 3506, "annotation": {"number": 64, "value": 0}, "group": "control_change"}, {"time": 3510, "annotation": {"number": 64, "value": 127}, "group": "control_change"}, {"time": 3530, "annotation": {"number": 64, "value": 0}, "group": "control_change"}, {"time": 3532, "annotation": {"number": 64, "value": 127}, "group": "control_change"}, {"time": 3554, "annotation": {"number": 64, "value": 0}, "group": "control_change"}, {"time": 3557, "annotation": {"number": 64, "value": 127}, "group": "control_change"}, {"time": 3602, "annotation": {"number": 64, "value": 0}, "group": "control_change"}, {"time": 3627, "annotation": {"number": 64, "value": 127}, "group": "control_change"}, {"time": 3716, "annotation": {"number": 64, "value": 0}, "group": "control_change"}, {"time": 3718, "annotation": {"number": 64, "value": 127}, "group": "control_change"}, {"time": 3721, "annotation": {"number": 64, "value": 0}, "group": "control_change"}]}]}