{"metadata": {"schema_version": "0.2", "title": "None", "source_filename": "467.mid", "source_format": "midi"}, "resolution": 12, "tempos": [{"time": 0, "qpm": 60.06998152848068}], "time_signatures": [{"time": 0, "numerator": 1, "denominator": 4}], "tracks": [{"program": 0, "is_drum": false, "name": "MELODY", "notes": [{"time": 203, "pitch": 68, "duration": 2, "velocity": 97}, {"time": 206, "pitch": 71, "duration": 2, "velocity": 75}, {"time": 209, "pitch": 73, "duration": 5, "velocity": 97}, {"time": 215, "pitch": 71, "duration": 2, "velocity": 81}, {"time": 218, "pitch": 68, "duration": 1, "velocity": 77}, {"time": 221, "pitch": 68, "duration": 4, "velocity": 96}, {"time": 227, "pitch": 71, "duration": 2, "velocity": 82}, {"time": 230, "pitch": 73, "duration": 13, "velocity": 96}, {"time": 248, "pitch": 73, "duration": 2, "velocity": 102}, {"time": 251, "pitch": 73, "duration": 2, "velocity": 122}, {"time": 254, "pitch": 75, "duration": 1, "velocity": 122}, {"time": 257, "pitch": 76, "duration": 5, "velocity": 127}, {"time": 263, "pitch": 75, "duration": 2, "velocity": 127}, {"time": 266, "pitch": 73, "duration": 1, "velocity": 107}, {"time": 269, "pitch": 75, "duration": 4, "velocity": 112}, {"time": 275, "pitch": 71, "duration": 4, "velocity": 117}, {"time": 281, "pitch": 68, "duration": 18, "velocity": 112}, {"time": 302, "pitch": 68, "duration": 2, "velocity": 100}, {"time": 305, "pitch": 73, "duration": 2, "velocity": 127}, {"time": 308, "pitch": 73, "duration": 2, "velocity": 117}, {"time": 314, "pitch": 73, "duration": 1, "velocity": 127}, {"time": 317, "pitch": 73, "duration": 2, "velocity": 122}, {"time": 320, "pitch": 73, "duration": 5, "velocity": 107}, {"time": 329, "pitch": 71, "duration": 2, "velocity": 102}, {"time": 332, "pitch": 71, "duration": 2, "velocity": 107}, {"time": 338, "pitch": 71, "duration": 2, "velocity": 95}, {"time": 341, "pitch": 73, "duration": 4, "velocity": 112}, {"time": 347, "pitch": 71, "duration": 4, "velocity": 112}, {"time": 353, "pitch": 68, "duration": 15, "velocity": 112}, {"time": 395, "pitch": 68, "duration": 1, "velocity": 102}, {"time": 398, "pitch": 71, "duration": 2, "velocity": 93}, {"time": 401, "pitch": 73, "duration": 4, "velocity": 100}, {"time": 407, "pitch": 71, "duration": 2, "velocity": 92}, {"time": 410, "pitch": 68, "duration": 1, "velocity": 97}, {"time": 413, "pitch": 68, "duration": 4, "velocity": 100}, {"time": 419, "pitch": 71, "duration": 2, "velocity": 95}, {"time": 422, "pitch": 73, "duration": 10, "velocity": 102}, {"time": 440, "pitch": 73, "duration": 1, "velocity": 112}, {"time": 443, "pitch": 73, "duration": 1, "velocity": 100}, {"time": 446, "pitch": 75, "duration": 1, "velocity": 112}, {"time": 449, "pitch": 76, "duration": 4, "velocity": 89}, {"time": 455, "pitch": 75, "duration": 2, "velocity": 122}, {"time": 458, "pitch": 73, "duration": 2, "velocity": 102}, {"time": 461, "pitch": 75, "duration": 3, "velocity": 112}, {"time": 467, "pitch": 71, "duration": 4, "velocity": 122}, {"time": 473, "pitch": 68, "duration": 12, "velocity": 102}, {"time": 491, "pitch": 68, "duration": 2, "velocity": 112}, {"time": 494, "pitch": 66, "duration": 2, "velocity": 86}, {"time": 497, "pitch": 68, "duration": 4, "velocity": 100}, {"time": 503, "pitch": 61, "duration": 3, "velocity": 107}, {"time": 506, "pitch": 64, "duration": 4, "velocity": 93}, {"time": 512, "pitch": 64, "duration": 1, "velocity": 76}, {"time": 515, "pitch": 64, "duration": 2, "velocity": 71}, {"time": 518, "pitch": 66, "duration": 2, "velocity": 75}, {"time": 521, "pitch": 68, "duration": 4, "velocity": 102}, {"time": 527, "pitch": 73, "duration": 2, "velocity": 117}, {"time": 530, "pitch": 68, "duration": 3, "velocity": 100}, {"time": 536, "pitch": 66, "duration": 6, "velocity": 96}, {"time": 545, "pitch": 64, "duration": 4, "velocity": 93}, {"time": 551, "pitch": 64, "duration": 4, "velocity": 97}, {"time": 557, "pitch": 63, "duration": 4, "velocity": 93}, {"time": 563, "pitch": 64, "duration": 3, "velocity": 99}, {"time": 566, "pitch": 63, "duration": 3, "velocity": 99}, {"time": 569, "pitch": 61, "duration": 12, "velocity": 92}, {"time": 611, "pitch": 68, "duration": 2, "velocity": 97}, {"time": 614, "pitch": 71, "duration": 2, "velocity": 75}, {"time": 617, "pitch": 73, "duration": 5, "velocity": 97}, {"time": 623, "pitch": 71, "duration": 2, "velocity": 81}, {"time": 626, "pitch": 68, "duration": 1, "velocity": 77}, {"time": 629, "pitch": 68, "duration": 4, "velocity": 96}, {"time": 635, "pitch": 71, "duration": 2, "velocity": 82}, {"time": 638, "pitch": 73, "duration": 13, "velocity": 96}, {"time": 656, "pitch": 73, "duration": 2, "velocity": 102}, {"time": 659, "pitch": 73, "duration": 2, "velocity": 122}, {"time": 662, "pitch": 75, "duration": 1, "velocity": 122}, {"time": 665, "pitch": 76, "duration": 5, "velocity": 127}, {"time": 671, "pitch": 75, "duration": 2, "velocity": 127}, {"time": 674, "pitch": 73, "duration": 1, "velocity": 107}, {"time": 677, "pitch": 75, "duration": 4, "velocity": 112}, {"time": 683, "pitch": 71, "duration": 4, "velocity": 117}, {"time": 689, "pitch": 68, "duration": 18, "velocity": 112}, {"time": 710, "pitch": 68, "duration": 2, "velocity": 100}, {"time": 713, "pitch": 73, "duration": 2, "velocity": 127}, {"time": 716, "pitch": 73, "duration": 2, "velocity": 117}, {"time": 722, "pitch": 73, "duration": 1, "velocity": 127}, {"time": 725, "pitch": 73, "duration": 2, "velocity": 122}, {"time": 728, "pitch": 73, "duration": 5, "velocity": 107}, {"time": 737, "pitch": 71, "duration": 2, "velocity": 102}, {"time": 740, "pitch": 71, "duration": 2, "velocity": 107}, {"time": 746, "pitch": 71, "duration": 2, "velocity": 95}, {"time": 749, "pitch": 73, "duration": 4, "velocity": 112}, {"time": 755, "pitch": 71, "duration": 4, "velocity": 112}, {"time": 761, "pitch": 68, "duration": 15, "velocity": 112}, {"time": 803, "pitch": 68, "duration": 1, "velocity": 102}, {"time": 806, "pitch": 71, "duration": 2, "velocity": 93}, {"time": 809, "pitch": 73, "duration": 4, "velocity": 100}, {"time": 815, "pitch": 71, "duration": 2, "velocity": 92}, {"time": 818, "pitch": 68, "duration": 1, "velocity": 97}, {"time": 821, "pitch": 68, "duration": 4, "velocity": 100}, {"time": 827, "pitch": 71, "duration": 2, "velocity": 95}, {"time": 830, "pitch": 73, "duration": 10, "velocity": 102}, {"time": 848, "pitch": 73, "duration": 1, "velocity": 112}, {"time": 851, "pitch": 73, "duration": 1, "velocity": 100}, {"time": 854, "pitch": 75, "duration": 1, "velocity": 112}, {"time": 857, "pitch": 76, "duration": 4, "velocity": 89}, {"time": 863, "pitch": 75, "duration": 2, "velocity": 122}, {"time": 866, "pitch": 73, "duration": 2, "velocity": 102}, {"time": 869, "pitch": 75, "duration": 3, "velocity": 112}, {"time": 875, "pitch": 71, "duration": 4, "velocity": 122}, {"time": 881, "pitch": 68, "duration": 12, "velocity": 102}, {"time": 899, "pitch": 68, "duration": 2, "velocity": 112}, {"time": 902, "pitch": 66, "duration": 2, "velocity": 86}, {"time": 905, "pitch": 68, "duration": 4, "velocity": 100}, {"time": 911, "pitch": 61, "duration": 3, "velocity": 107}, {"time": 914, "pitch": 64, "duration": 4, "velocity": 93}, {"time": 920, "pitch": 64, "duration": 1, "velocity": 76}, {"time": 923, "pitch": 64, "duration": 2, "velocity": 71}, {"time": 926, "pitch": 66, "duration": 2, "velocity": 75}, {"time": 929, "pitch": 68, "duration": 4, "velocity": 102}, {"time": 935, "pitch": 73, "duration": 2, "velocity": 117}, {"time": 938, "pitch": 68, "duration": 3, "velocity": 100}, {"time": 944, "pitch": 66, "duration": 6, "velocity": 96}, {"time": 953, "pitch": 64, "duration": 4, "velocity": 93}, {"time": 959, "pitch": 64, "duration": 4, "velocity": 97}, {"time": 965, "pitch": 63, "duration": 4, "velocity": 93}, {"time": 971, "pitch": 64, "duration": 3, "velocity": 99}, {"time": 974, "pitch": 63, "duration": 3, "velocity": 99}, {"time": 977, "pitch": 61, "duration": 12, "velocity": 92}, {"time": 1004, "pitch": 66, "duration": 1, "velocity": 117}, {"time": 1007, "pitch": 66, "duration": 1, "velocity": 112}, {"time": 1010, "pitch": 66, "duration": 1, "velocity": 117}, {"time": 1013, "pitch": 66, "duration": 4, "velocity": 127}, {"time": 1019, "pitch": 66, "duration": 1, "velocity": 97}, {"time": 1022, "pitch": 68, "duration": 8, "velocity": 117}, {"time": 1031, "pitch": 66, "duration": 3, "velocity": 107}, {"time": 1040, "pitch": 64, "duration": 4, "velocity": 107}, {"time": 1046, "pitch": 66, "duration": 2, "velocity": 112}, {"time": 1049, "pitch": 68, "duration": 3, "velocity": 122}, {"time": 1055, "pitch": 73, "duration": 1, "velocity": 127}, {"time": 1058, "pitch": 71, "duration": 5, "velocity": 117}, {"time": 1064, "pitch": 68, "duration": 4, "velocity": 127}, {"time": 1070, "pitch": 66, "duration": 2, "velocity": 112}, {"time": 1073, "pitch": 68, "duration": 9, "velocity": 127}, {"time": 1100, "pitch": 73, "duration": 1, "velocity": 93}, {"time": 1103, "pitch": 73, "duration": 1, "velocity": 99}, {"time": 1106, "pitch": 73, "duration": 1, "velocity": 112}, {"time": 1109, "pitch": 73, "duration": 3, "velocity": 117}, {"time": 1115, "pitch": 73, "duration": 1, "velocity": 112}, {"time": 1118, "pitch": 75, "duration": 5, "velocity": 127}, {"time": 1127, "pitch": 75, "duration": 5, "velocity": 122}, {"time": 1133, "pitch": 73, "duration": 2, "velocity": 117}, {"time": 1136, "pitch": 73, "duration": 6, "velocity": 127}, {"time": 1145, "pitch": 71, "duration": 11, "velocity": 127}, {"time": 1184, "pitch": 73, "duration": 1, "velocity": 117}, {"time": 1187, "pitch": 73, "duration": 1, "velocity": 122}, {"time": 1190, "pitch": 75, "duration": 1, "velocity": 122}, {"time": 1193, "pitch": 76, "duration": 4, "velocity": 127}, {"time": 1199, "pitch": 76, "duration": 4, "velocity": 127}, {"time": 1205, "pitch": 76, "duration": 4, "velocity": 127}, {"time": 1211, "pitch": 76, "duration": 1, "velocity": 127}, {"time": 1217, "pitch": 75, "duration": 12, "velocity": 127}, {"time": 1232, "pitch": 75, "duration": 1, "velocity": 127}, {"time": 1235, "pitch": 75, "duration": 2, "velocity": 127}, {"time": 1238, "pitch": 76, "duration": 2, "velocity": 102}, {"time": 1241, "pitch": 78, "duration": 3, "velocity": 127}, {"time": 1247, "pitch": 78, "duration": 4, "velocity": 122}, {"time": 1253, "pitch": 78, "duration": 4, "velocity": 127}, {"time": 1259, "pitch": 75, "duration": 5, "velocity": 127}, {"time": 1265, "pitch": 73, "duration": 8, "velocity": 127}, {"time": 1280, "pitch": 73, "duration": 1, "velocity": 127}, {"time": 1283, "pitch": 73, "duration": 1, "velocity": 127}, {"time": 1286, "pitch": 75, "duration": 1, "velocity": 127}, {"time": 1289, "pitch": 76, "duration": 4, "velocity": 127}, {"time": 1295, "pitch": 69, "duration": 1, "velocity": 102}, {"time": 1298, "pitch": 69, "duration": 6, "velocity": 122}, {"time": 1310, "pitch": 76, "duration": 3, "velocity": 127}, {"time": 1313, "pitch": 75, "duration": 4, "velocity": 112}, {"time": 1319, "pitch": 75, "duration": 4, "velocity": 127}, {"time": 1325, "pitch": 73, "duration": 3, "velocity": 127}, {"time": 1331, "pitch": 73, "duration": 4, "velocity": 127}, {"time": 1337, "pitch": 71, "duration": 9, "velocity": 127}, {"time": 1376, "pitch": 73, "duration": 1, "velocity": 117}, {"time": 1379, "pitch": 73, "duration": 1, "velocity": 122}, {"time": 1382, "pitch": 75, "duration": 1, "velocity": 122}, {"time": 1385, "pitch": 76, "duration": 4, "velocity": 127}, {"time": 1391, "pitch": 76, "duration": 4, "velocity": 127}, {"time": 1397, "pitch": 76, "duration": 4, "velocity": 127}, {"time": 1403, "pitch": 76, "duration": 1, "velocity": 127}, {"time": 1409, "pitch": 75, "duration": 12, "velocity": 127}, {"time": 1424, "pitch": 75, "duration": 1, "velocity": 127}, {"time": 1427, "pitch": 75, "duration": 2, "velocity": 127}, {"time": 1430, "pitch": 76, "duration": 2, "velocity": 102}, {"time": 1433, "pitch": 78, "duration": 3, "velocity": 127}, {"time": 1439, "pitch": 78, "duration": 4, "velocity": 122}, {"time": 1445, "pitch": 78, "duration": 4, "velocity": 127}, {"time": 1451, "pitch": 75, "duration": 5, "velocity": 127}, {"time": 1457, "pitch": 73, "duration": 8, "velocity": 127}, {"time": 1472, "pitch": 73, "duration": 1, "velocity": 127}, {"time": 1475, "pitch": 73, "duration": 1, "velocity": 127}, {"time": 1478, "pitch": 75, "duration": 1, "velocity": 127}, {"time": 1481, "pitch": 76, "duration": 4, "velocity": 127}, {"time": 1487, "pitch": 69, "duration": 1, "velocity": 102}, {"time": 1490, "pitch": 69, "duration": 6, "velocity": 122}, {"time": 1502, "pitch": 76, "duration": 3, "velocity": 127}, {"time": 1505, "pitch": 75, "duration": 4, "velocity": 112}, {"time": 1511, "pitch": 75, "duration": 4, "velocity": 127}, {"time": 1517, "pitch": 76, "duration": 7, "velocity": 127}, {"time": 1526, "pitch": 75, "duration": 7, "velocity": 117}, {"time": 1535, "pitch": 73, "duration": 26, "velocity": 122}, {"time": 1859, "pitch": 68, "duration": 2, "velocity": 97}, {"time": 1862, "pitch": 71, "duration": 2, "velocity": 75}, {"time": 1865, "pitch": 73, "duration": 5, "velocity": 97}, {"time": 1871, "pitch": 71, "duration": 2, "velocity": 81}, {"time": 1874, "pitch": 68, "duration": 1, "velocity": 77}, {"time": 1877, "pitch": 68, "duration": 4, "velocity": 96}, {"time": 1883, "pitch": 71, "duration": 2, "velocity": 82}, {"time": 1886, "pitch": 73, "duration": 13, "velocity": 96}, {"time": 1904, "pitch": 73, "duration": 2, "velocity": 102}, {"time": 1907, "pitch": 73, "duration": 2, "velocity": 122}, {"time": 1910, "pitch": 75, "duration": 1, "velocity": 122}, {"time": 1913, "pitch": 76, "duration": 5, "velocity": 127}, {"time": 1919, "pitch": 75, "duration": 2, "velocity": 127}, {"time": 1922, "pitch": 73, "duration": 1, "velocity": 107}, {"time": 1925, "pitch": 75, "duration": 4, "velocity": 112}, {"time": 1931, "pitch": 71, "duration": 4, "velocity": 117}, {"time": 1937, "pitch": 68, "duration": 18, "velocity": 112}, {"time": 1958, "pitch": 68, "duration": 2, "velocity": 100}, {"time": 1961, "pitch": 73, "duration": 2, "velocity": 127}, {"time": 1964, "pitch": 73, "duration": 2, "velocity": 117}, {"time": 1970, "pitch": 73, "duration": 1, "velocity": 127}, {"time": 1973, "pitch": 73, "duration": 2, "velocity": 122}, {"time": 1976, "pitch": 73, "duration": 5, "velocity": 107}, {"time": 1985, "pitch": 71, "duration": 2, "velocity": 102}, {"time": 1988, "pitch": 71, "duration": 2, "velocity": 107}, {"time": 1994, "pitch": 71, "duration": 2, "velocity": 95}, {"time": 1997, "pitch": 73, "duration": 4, "velocity": 112}, {"time": 2003, "pitch": 71, "duration": 4, "velocity": 112}, {"time": 2009, "pitch": 68, "duration": 15, "velocity": 112}, {"time": 2051, "pitch": 68, "duration": 1, "velocity": 102}, {"time": 2054, "pitch": 71, "duration": 2, "velocity": 93}, {"time": 2057, "pitch": 73, "duration": 4, "velocity": 100}, {"time": 2063, "pitch": 71, "duration": 2, "velocity": 92}, {"time": 2066, "pitch": 68, "duration": 1, "velocity": 97}, {"time": 2069, "pitch": 68, "duration": 4, "velocity": 100}, {"time": 2075, "pitch": 71, "duration": 2, "velocity": 95}, {"time": 2078, "pitch": 73, "duration": 10, "velocity": 102}, {"time": 2096, "pitch": 73, "duration": 1, "velocity": 112}, {"time": 2099, "pitch": 73, "duration": 1, "velocity": 100}, {"time": 2102, "pitch": 75, "duration": 1, "velocity": 112}, {"time": 2105, "pitch": 76, "duration": 4, "velocity": 89}, {"time": 2111, "pitch": 75, "duration": 2, "velocity": 122}, {"time": 2114, "pitch": 73, "duration": 2, "velocity": 102}, {"time": 2117, "pitch": 75, "duration": 3, "velocity": 112}, {"time": 2123, "pitch": 71, "duration": 4, "velocity": 122}, {"time": 2129, "pitch": 68, "duration": 12, "velocity": 102}, {"time": 2147, "pitch": 68, "duration": 2, "velocity": 112}, {"time": 2150, "pitch": 66, "duration": 2, "velocity": 86}, {"time": 2153, "pitch": 68, "duration": 4, "velocity": 100}, {"time": 2159, "pitch": 61, "duration": 3, "velocity": 107}, {"time": 2162, "pitch": 64, "duration": 4, "velocity": 93}, {"time": 2168, "pitch": 64, "duration": 1, "velocity": 76}, {"time": 2171, "pitch": 64, "duration": 2, "velocity": 71}, {"time": 2174, "pitch": 66, "duration": 2, "velocity": 75}, {"time": 2177, "pitch": 68, "duration": 4, "velocity": 102}, {"time": 2183, "pitch": 73, "duration": 2, "velocity": 117}, {"time": 2186, "pitch": 68, "duration": 3, "velocity": 100}, {"time": 2192, "pitch": 66, "duration": 6, "velocity": 96}, {"time": 2201, "pitch": 64, "duration": 4, "velocity": 93}, {"time": 2207, "pitch": 64, "duration": 4, "velocity": 97}, {"time": 2213, "pitch": 63, "duration": 4, "velocity": 93}, {"time": 2219, "pitch": 64, "duration": 3, "velocity": 99}, {"time": 2222, "pitch": 63, "duration": 3, "velocity": 99}, {"time": 2225, "pitch": 61, "duration": 12, "velocity": 92}, {"time": 2252, "pitch": 66, "duration": 1, "velocity": 117}, {"time": 2255, "pitch": 66, "duration": 1, "velocity": 112}, {"time": 2258, "pitch": 66, "duration": 1, "velocity": 117}, {"time": 2261, "pitch": 66, "duration": 4, "velocity": 127}, {"time": 2267, "pitch": 66, "duration": 1, "velocity": 97}, {"time": 2270, "pitch": 68, "duration": 8, "velocity": 117}, {"time": 2279, "pitch": 66, "duration": 3, "velocity": 107}, {"time": 2288, "pitch": 64, "duration": 4, "velocity": 107}, {"time": 2294, "pitch": 66, "duration": 2, "velocity": 112}, {"time": 2297, "pitch": 68, "duration": 3, "velocity": 122}, {"time": 2303, "pitch": 73, "duration": 1, "velocity": 127}, {"time": 2306, "pitch": 71, "duration": 5, "velocity": 117}, {"time": 2312, "pitch": 68, "duration": 4, "velocity": 127}, {"time": 2318, "pitch": 66, "duration": 2, "velocity": 112}, {"time": 2321, "pitch": 68, "duration": 9, "velocity": 127}, {"time": 2348, "pitch": 73, "duration": 1, "velocity": 93}, {"time": 2351, "pitch": 73, "duration": 1, "velocity": 99}, {"time": 2354, "pitch": 73, "duration": 1, "velocity": 112}, {"time": 2357, "pitch": 73, "duration": 3, "velocity": 117}, {"time": 2363, "pitch": 73, "duration": 1, "velocity": 112}, {"time": 2366, "pitch": 75, "duration": 5, "velocity": 127}, {"time": 2375, "pitch": 75, "duration": 5, "velocity": 122}, {"time": 2381, "pitch": 73, "duration": 2, "velocity": 117}, {"time": 2384, "pitch": 73, "duration": 6, "velocity": 127}, {"time": 2393, "pitch": 71, "duration": 11, "velocity": 127}, {"time": 2432, "pitch": 73, "duration": 1, "velocity": 117}, {"time": 2435, "pitch": 73, "duration": 1, "velocity": 122}, {"time": 2438, "pitch": 75, "duration": 1, "velocity": 122}, {"time": 2441, "pitch": 76, "duration": 4, "velocity": 127}, {"time": 2447, "pitch": 76, "duration": 4, "velocity": 127}, {"time": 2453, "pitch": 76, "duration": 4, "velocity": 127}, {"time": 2459, "pitch": 76, "duration": 1, "velocity": 127}, {"time": 2465, "pitch": 75, "duration": 12, "velocity": 127}, {"time": 2480, "pitch": 75, "duration": 1, "velocity": 127}, {"time": 2483, "pitch": 75, "duration": 2, "velocity": 127}, {"time": 2486, "pitch": 76, "duration": 2, "velocity": 102}, {"time": 2489, "pitch": 78, "duration": 3, "velocity": 127}, {"time": 2495, "pitch": 78, "duration": 4, "velocity": 122}, {"time": 2501, "pitch": 78, "duration": 4, "velocity": 127}, {"time": 2507, "pitch": 75, "duration": 5, "velocity": 127}, {"time": 2513, "pitch": 73, "duration": 8, "velocity": 127}, {"time": 2528, "pitch": 73, "duration": 1, "velocity": 127}, {"time": 2531, "pitch": 73, "duration": 1, "velocity": 127}, {"time": 2534, "pitch": 75, "duration": 1, "velocity": 127}, {"time": 2537, "pitch": 76, "duration": 4, "velocity": 127}, {"time": 2543, "pitch": 69, "duration": 1, "velocity": 102}, {"time": 2546, "pitch": 69, "duration": 6, "velocity": 122}, {"time": 2558, "pitch": 76, "duration": 3, "velocity": 127}, {"time": 2561, "pitch": 75, "duration": 4, "velocity": 112}, {"time": 2567, "pitch": 75, "duration": 4, "velocity": 127}, {"time": 2573, "pitch": 73, "duration": 3, "velocity": 127}, {"time": 2579, "pitch": 73, "duration": 4, "velocity": 127}, {"time": 2585, "pitch": 71, "duration": 9, "velocity": 127}, {"time": 2600, "pitch": 68, "duration": 2, "velocity": 117}, {"time": 2603, "pitch": 71, "duration": 2, "velocity": 112}, {"time": 2606, "pitch": 72, "duration": 15, "velocity": 127}, {"time": 2624, "pitch": 73, "duration": 1, "velocity": 117}, {"time": 2627, "pitch": 73, "duration": 1, "velocity": 122}, {"time": 2630, "pitch": 75, "duration": 1, "velocity": 122}, {"time": 2633, "pitch": 76, "duration": 4, "velocity": 127}, {"time": 2639, "pitch": 76, "duration": 4, "velocity": 127}, {"time": 2645, "pitch": 76, "duration": 4, "velocity": 127}, {"time": 2651, "pitch": 76, "duration": 1, "velocity": 127}, {"time": 2657, "pitch": 75, "duration": 12, "velocity": 127}, {"time": 2672, "pitch": 75, "duration": 1, "velocity": 127}, {"time": 2675, "pitch": 75, "duration": 2, "velocity": 127}, {"time": 2678, "pitch": 76, "duration": 2, "velocity": 102}, {"time": 2681, "pitch": 78, "duration": 3, "velocity": 127}, {"time": 2687, "pitch": 78, "duration": 4, "velocity": 122}, {"time": 2693, "pitch": 78, "duration": 4, "velocity": 127}, {"time": 2699, "pitch": 75, "duration": 5, "velocity": 127}, {"time": 2705, "pitch": 73, "duration": 8, "velocity": 127}, {"time": 2720, "pitch": 73, "duration": 1, "velocity": 127}, {"time": 2723, "pitch": 73, "duration": 1, "velocity": 127}, {"time": 2726, "pitch": 75, "duration": 1, "velocity": 127}, {"time": 2729, "pitch": 76, "duration": 4, "velocity": 127}, {"time": 2735, "pitch": 69, "duration": 1, "velocity": 102}, {"time": 2738, "pitch": 69, "duration": 6, "velocity": 122}, {"time": 2750, "pitch": 76, "duration": 3, "velocity": 127}, {"time": 2753, "pitch": 75, "duration": 4, "velocity": 112}, {"time": 2759, "pitch": 75, "duration": 4, "velocity": 127}, {"time": 2765, "pitch": 76, "duration": 7, "velocity": 127}, {"time": 2774, "pitch": 75, "duration": 7, "velocity": 117}, {"time": 2783, "pitch": 73, "duration": 26, "velocity": 122}, {"time": 2816, "pitch": 73, "duration": 1, "velocity": 117}, {"time": 2819, "pitch": 73, "duration": 1, "velocity": 122}, {"time": 2822, "pitch": 75, "duration": 1, "velocity": 122}, {"time": 2825, "pitch": 76, "duration": 4, "velocity": 127}, {"time": 2831, "pitch": 76, "duration": 4, "velocity": 127}, {"time": 2837, "pitch": 76, "duration": 4, "velocity": 127}, {"time": 2843, "pitch": 76, "duration": 1, "velocity": 127}, {"time": 2846, "pitch": 75, "duration": 12, "velocity": 127}, {"time": 2864, "pitch": 75, "duration": 1, "velocity": 127}, {"time": 2867, "pitch": 75, "duration": 2, "velocity": 127}, {"time": 2870, "pitch": 76, "duration": 2, "velocity": 102}, {"time": 2873, "pitch": 78, "duration": 3, "velocity": 127}, {"time": 2879, "pitch": 78, "duration": 4, "velocity": 122}, {"time": 2885, "pitch": 78, "duration": 4, "velocity": 127}, {"time": 2891, "pitch": 75, "duration": 3, "velocity": 127}, {"time": 2894, "pitch": 73, "duration": 8, "velocity": 127}, {"time": 2912, "pitch": 73, "duration": 1, "velocity": 127}, {"time": 2915, "pitch": 73, "duration": 1, "velocity": 127}, {"time": 2918, "pitch": 75, "duration": 1, "velocity": 127}, {"time": 2921, "pitch": 76, "duration": 4, "velocity": 127}, {"time": 2927, "pitch": 69, "duration": 1, "velocity": 102}, {"time": 2930, "pitch": 69, "duration": 6, "velocity": 122}, {"time": 2942, "pitch": 76, "duration": 3, "velocity": 127}, {"time": 2945, "pitch": 75, "duration": 4, "velocity": 112}, {"time": 2951, "pitch": 75, "duration": 4, "velocity": 127}, {"time": 2957, "pitch": 73, "duration": 3, "velocity": 127}, {"time": 2963, "pitch": 73, "duration": 4, "velocity": 127}, {"time": 2969, "pitch": 71, "duration": 9, "velocity": 127}, {"time": 2984, "pitch": 68, "duration": 2, "velocity": 117}, {"time": 2987, "pitch": 71, "duration": 2, "velocity": 112}, {"time": 2990, "pitch": 72, "duration": 15, "velocity": 127}, {"time": 3008, "pitch": 73, "duration": 1, "velocity": 117}, {"time": 3011, "pitch": 73, "duration": 1, "velocity": 122}, {"time": 3014, "pitch": 75, "duration": 1, "velocity": 122}, {"time": 3017, "pitch": 76, "duration": 4, "velocity": 127}, {"time": 3023, "pitch": 76, "duration": 4, "velocity": 127}, {"time": 3029, "pitch": 76, "duration": 4, "velocity": 127}, {"time": 3035, "pitch": 76, "duration": 1, "velocity": 127}, {"time": 3041, "pitch": 75, "duration": 12, "velocity": 127}, {"time": 3056, "pitch": 75, "duration": 1, "velocity": 127}, {"time": 3059, "pitch": 75, "duration": 2, "velocity": 127}, {"time": 3062, "pitch": 76, "duration": 2, "velocity": 102}, {"time": 3065, "pitch": 78, "duration": 3, "velocity": 127}, {"time": 3071, "pitch": 78, "duration": 4, "velocity": 122}, {"time": 3077, "pitch": 78, "duration": 4, "velocity": 127}, {"time": 3083, "pitch": 75, "duration": 5, "velocity": 127}, {"time": 3089, "pitch": 73, "duration": 8, "velocity": 127}, {"time": 3104, "pitch": 73, "duration": 1, "velocity": 127}, {"time": 3107, "pitch": 73, "duration": 1, "velocity": 127}, {"time": 3110, "pitch": 75, "duration": 1, "velocity": 127}, {"time": 3113, "pitch": 76, "duration": 4, "velocity": 127}, {"time": 3119, "pitch": 69, "duration": 1, "velocity": 102}, {"time": 3122, "pitch": 69, "duration": 6, "velocity": 122}, {"time": 3134, "pitch": 76, "duration": 3, "velocity": 127}, {"time": 3137, "pitch": 75, "duration": 4, "velocity": 112}, {"time": 3143, "pitch": 75, "duration": 4, "velocity": 127}, {"time": 3149, "pitch": 76, "duration": 7, "velocity": 127}, {"time": 3158, "pitch": 75, "duration": 7, "velocity": 117}, {"time": 3167, "pitch": 73, "duration": 26, "velocity": 122}]}, {"program": 0, "is_drum": false, "name": "BRIDGE", "notes": [{"time": 17, "pitch": 73, "duration": 4, "velocity": 100}, {"time": 20, "pitch": 75, "duration": 3, "velocity": 34}, {"time": 23, "pitch": 73, "duration": 3, "velocity": 48}, {"time": 26, "pitch": 68, "duration": 4, "velocity": 64}, {"time": 29, "pitch": 73, "duration": 3, "velocity": 88}, {"time": 32, "pitch": 75, "duration": 8, "velocity": 78}, {"time": 38, "pitch": 71, "duration": 10, "velocity": 85}, {"time": 65, "pitch": 73, "duration": 3, "velocity": 102}, {"time": 68, "pitch": 75, "duration": 3, "velocity": 83}, {"time": 71, "pitch": 73, "duration": 3, "velocity": 92}, {"time": 74, "pitch": 68, "duration": 3, "velocity": 65}, {"time": 77, "pitch": 73, "duration": 3, "velocity": 62}, {"time": 80, "pitch": 75, "duration": 7, "velocity": 95}, {"time": 86, "pitch": 83, "duration": 19, "velocity": 76}, {"time": 113, "pitch": 73, "duration": 4, "velocity": 100}, {"time": 116, "pitch": 75, "duration": 3, "velocity": 34}, {"time": 119, "pitch": 73, "duration": 3, "velocity": 48}, {"time": 122, "pitch": 68, "duration": 4, "velocity": 64}, {"time": 125, "pitch": 73, "duration": 3, "velocity": 88}, {"time": 128, "pitch": 75, "duration": 8, "velocity": 78}, {"time": 134, "pitch": 71, "duration": 10, "velocity": 85}, {"time": 161, "pitch": 73, "duration": 3, "velocity": 102}, {"time": 164, "pitch": 75, "duration": 3, "velocity": 83}, {"time": 167, "pitch": 73, "duration": 3, "velocity": 92}, {"time": 170, "pitch": 68, "duration": 3, "velocity": 65}, {"time": 173, "pitch": 73, "duration": 3, "velocity": 62}, {"time": 176, "pitch": 75, "duration": 7, "velocity": 95}, {"time": 182, "pitch": 83, "duration": 19, "velocity": 76}, {"time": 209, "pitch": 73, "duration": 1, "velocity": 72}, {"time": 212, "pitch": 68, "duration": 2, "velocity": 63}, {"time": 215, "pitch": 73, "duration": 1, "velocity": 50}, {"time": 218, "pitch": 68, "duration": 2, "velocity": 55}, {"time": 221, "pitch": 76, "duration": 1, "velocity": 78}, {"time": 224, "pitch": 68, "duration": 2, "velocity": 49}, {"time": 227, "pitch": 73, "duration": 1, "velocity": 42}, {"time": 230, "pitch": 68, "duration": 1, "velocity": 62}, {"time": 233, "pitch": 73, "duration": 1, "velocity": 40}, {"time": 236, "pitch": 68, "duration": 2, "velocity": 52}, {"time": 239, "pitch": 73, "duration": 1, "velocity": 38}, {"time": 242, "pitch": 68, "duration": 2, "velocity": 58}, {"time": 245, "pitch": 76, "duration": 1, "velocity": 68}, {"time": 248, "pitch": 68, "duration": 1, "velocity": 69}, {"time": 251, "pitch": 73, "duration": 1, "velocity": 79}, {"time": 254, "pitch": 68, "duration": 1, "velocity": 73}, {"time": 257, "pitch": 69, "duration": 1, "velocity": 67}, {"time": 260, "pitch": 64, "duration": 2, "velocity": 66}, {"time": 263, "pitch": 69, "duration": 1, "velocity": 83}, {"time": 266, "pitch": 64, "duration": 1, "velocity": 66}, {"time": 269, "pitch": 73, "duration": 1, "velocity": 122}, {"time": 272, "pitch": 69, "duration": 1, "velocity": 77}, {"time": 275, "pitch": 73, "duration": 1, "velocity": 85}, {"time": 278, "pitch": 69, "duration": 1, "velocity": 67}, {"time": 281, "pitch": 76, "duration": 1, "velocity": 74}, {"time": 284, "pitch": 71, "duration": 2, "velocity": 60}, {"time": 287, "pitch": 76, "duration": 1, "velocity": 45}, {"time": 290, "pitch": 71, "duration": 2, "velocity": 50}, {"time": 293, "pitch": 80, "duration": 2, "velocity": 78}, {"time": 296, "pitch": 71, "duration": 2, "velocity": 53}, {"time": 299, "pitch": 76, "duration": 2, "velocity": 47}, {"time": 302, "pitch": 71, "duration": 2, "velocity": 51}, {"time": 305, "pitch": 73, "duration": 1, "velocity": 90}, {"time": 308, "pitch": 69, "duration": 2, "velocity": 41}, {"time": 311, "pitch": 73, "duration": 1, "velocity": 69}, {"time": 314, "pitch": 69, "duration": 2, "velocity": 43}, {"time": 317, "pitch": 76, "duration": 1, "velocity": 56}, {"time": 320, "pitch": 69, "duration": 2, "velocity": 56}, {"time": 323, "pitch": 73, "duration": 1, "velocity": 49}, {"time": 326, "pitch": 69, "duration": 1, "velocity": 67}, {"time": 329, "pitch": 71, "duration": 4, "velocity": 70}, {"time": 332, "pitch": 75, "duration": 1, "velocity": 53}, {"time": 335, "pitch": 75, "duration": 1, "velocity": 60}, {"time": 338, "pitch": 71, "duration": 2, "velocity": 55}, {"time": 341, "pitch": 78, "duration": 2, "velocity": 81}, {"time": 344, "pitch": 71, "duration": 1, "velocity": 48}, {"time": 347, "pitch": 75, "duration": 1, "velocity": 73}, {"time": 350, "pitch": 71, "duration": 2, "velocity": 55}, {"time": 353, "pitch": 76, "duration": 1, "velocity": 65}, {"time": 356, "pitch": 71, "duration": 2, "velocity": 52}, {"time": 359, "pitch": 76, "duration": 1, "velocity": 55}, {"time": 362, "pitch": 71, "duration": 2, "velocity": 63}, {"time": 365, "pitch": 80, "duration": 2, "velocity": 86}, {"time": 368, "pitch": 71, "duration": 2, "velocity": 49}, {"time": 371, "pitch": 76, "duration": 2, "velocity": 52}, {"time": 374, "pitch": 71, "duration": 2, "velocity": 67}, {"time": 377, "pitch": 75, "duration": 2, "velocity": 68}, {"time": 380, "pitch": 68, "duration": 2, "velocity": 61}, {"time": 383, "pitch": 72, "duration": 1, "velocity": 55}, {"time": 386, "pitch": 68, "duration": 3, "velocity": 62}, {"time": 389, "pitch": 75, "duration": 2, "velocity": 83}, {"time": 392, "pitch": 68, "duration": 2, "velocity": 67}, {"time": 395, "pitch": 72, "duration": 2, "velocity": 61}, {"time": 398, "pitch": 68, "duration": 2, "velocity": 71}, {"time": 401, "pitch": 73, "duration": 1, "velocity": 93}, {"time": 404, "pitch": 68, "duration": 2, "velocity": 61}, {"time": 407, "pitch": 73, "duration": 1, "velocity": 76}, {"time": 410, "pitch": 68, "duration": 2, "velocity": 72}, {"time": 413, "pitch": 76, "duration": 2, "velocity": 67}, {"time": 416, "pitch": 68, "duration": 2, "velocity": 63}, {"time": 419, "pitch": 73, "duration": 1, "velocity": 47}, {"time": 422, "pitch": 68, "duration": 2, "velocity": 66}, {"time": 425, "pitch": 73, "duration": 1, "velocity": 66}, {"time": 428, "pitch": 68, "duration": 2, "velocity": 66}, {"time": 431, "pitch": 73, "duration": 1, "velocity": 71}, {"time": 434, "pitch": 68, "duration": 2, "velocity": 66}, {"time": 437, "pitch": 76, "duration": 2, "velocity": 58}, {"time": 440, "pitch": 68, "duration": 1, "velocity": 71}, {"time": 443, "pitch": 73, "duration": 1, "velocity": 62}, {"time": 446, "pitch": 68, "duration": 1, "velocity": 76}, {"time": 449, "pitch": 69, "duration": 2, "velocity": 66}, {"time": 452, "pitch": 64, "duration": 2, "velocity": 59}, {"time": 455, "pitch": 69, "duration": 2, "velocity": 59}, {"time": 458, "pitch": 64, "duration": 2, "velocity": 54}, {"time": 461, "pitch": 73, "duration": 2, "velocity": 93}, {"time": 464, "pitch": 64, "duration": 2, "velocity": 58}, {"time": 467, "pitch": 69, "duration": 2, "velocity": 63}, {"time": 470, "pitch": 64, "duration": 1, "velocity": 58}, {"time": 473, "pitch": 76, "duration": 1, "velocity": 65}, {"time": 476, "pitch": 71, "duration": 2, "velocity": 58}, {"time": 479, "pitch": 76, "duration": 1, "velocity": 51}, {"time": 482, "pitch": 71, "duration": 2, "velocity": 69}, {"time": 485, "pitch": 80, "duration": 1, "velocity": 78}, {"time": 488, "pitch": 71, "duration": 2, "velocity": 48}, {"time": 491, "pitch": 76, "duration": 2, "velocity": 56}, {"time": 494, "pitch": 71, "duration": 1, "velocity": 68}, {"time": 497, "pitch": 69, "duration": 1, "velocity": 77}, {"time": 500, "pitch": 64, "duration": 2, "velocity": 62}, {"time": 503, "pitch": 69, "duration": 1, "velocity": 51}, {"time": 506, "pitch": 64, "duration": 2, "velocity": 55}, {"time": 509, "pitch": 73, "duration": 1, "velocity": 79}, {"time": 512, "pitch": 64, "duration": 2, "velocity": 61}, {"time": 515, "pitch": 69, "duration": 1, "velocity": 47}, {"time": 518, "pitch": 64, "duration": 2, "velocity": 62}, {"time": 521, "pitch": 68, "duration": 2, "velocity": 73}, {"time": 524, "pitch": 63, "duration": 2, "velocity": 70}, {"time": 527, "pitch": 68, "duration": 2, "velocity": 36}, {"time": 530, "pitch": 63, "duration": 4, "velocity": 69}, {"time": 533, "pitch": 71, "duration": 2, "velocity": 65}, {"time": 536, "pitch": 63, "duration": 2, "velocity": 56}, {"time": 539, "pitch": 68, "duration": 3, "velocity": 63}, {"time": 542, "pitch": 63, "duration": 1, "velocity": 76}, {"time": 545, "pitch": 69, "duration": 2, "velocity": 56}, {"time": 548, "pitch": 64, "duration": 5, "velocity": 52}, {"time": 551, "pitch": 73, "duration": 4, "velocity": 74}, {"time": 554, "pitch": 69, "duration": 1, "velocity": 59}, {"time": 557, "pitch": 71, "duration": 2, "velocity": 69}, {"time": 560, "pitch": 66, "duration": 2, "velocity": 69}, {"time": 563, "pitch": 71, "duration": 2, "velocity": 77}, {"time": 566, "pitch": 66, "duration": 1, "velocity": 83}, {"time": 569, "pitch": 73, "duration": 1, "velocity": 90}, {"time": 572, "pitch": 68, "duration": 2, "velocity": 74}, {"time": 575, "pitch": 73, "duration": 1, "velocity": 66}, {"time": 578, "pitch": 68, "duration": 2, "velocity": 61}, {"time": 581, "pitch": 76, "duration": 2, "velocity": 65}, {"time": 584, "pitch": 68, "duration": 2, "velocity": 58}, {"time": 587, "pitch": 73, "duration": 2, "velocity": 76}, {"time": 590, "pitch": 68, "duration": 2, "velocity": 56}, {"time": 593, "pitch": 73, "duration": 1, "velocity": 45}, {"time": 596, "pitch": 68, "duration": 2, "velocity": 33}, {"time": 599, "pitch": 73, "duration": 1, "velocity": 42}, {"time": 602, "pitch": 68, "duration": 2, "velocity": 61}, {"time": 605, "pitch": 76, "duration": 1, "velocity": 86}, {"time": 608, "pitch": 68, "duration": 2, "velocity": 83}, {"time": 611, "pitch": 73, "duration": 1, "velocity": 112}, {"time": 614, "pitch": 68, "duration": 1, "velocity": 97}, {"time": 617, "pitch": 73, "duration": 1, "velocity": 72}, {"time": 620, "pitch": 68, "duration": 2, "velocity": 63}, {"time": 623, "pitch": 73, "duration": 1, "velocity": 50}, {"time": 626, "pitch": 68, "duration": 2, "velocity": 55}, {"time": 629, "pitch": 76, "duration": 1, "velocity": 78}, {"time": 632, "pitch": 68, "duration": 2, "velocity": 49}, {"time": 635, "pitch": 73, "duration": 1, "velocity": 42}, {"time": 638, "pitch": 68, "duration": 1, "velocity": 62}, {"time": 641, "pitch": 73, "duration": 1, "velocity": 40}, {"time": 644, "pitch": 68, "duration": 2, "velocity": 52}, {"time": 647, "pitch": 73, "duration": 1, "velocity": 38}, {"time": 650, "pitch": 68, "duration": 2, "velocity": 58}, {"time": 653, "pitch": 76, "duration": 1, "velocity": 68}, {"time": 656, "pitch": 68, "duration": 1, "velocity": 69}, {"time": 659, "pitch": 73, "duration": 1, "velocity": 79}, {"time": 662, "pitch": 68, "duration": 1, "velocity": 73}, {"time": 665, "pitch": 69, "duration": 1, "velocity": 67}, {"time": 668, "pitch": 64, "duration": 2, "velocity": 66}, {"time": 671, "pitch": 69, "duration": 1, "velocity": 83}, {"time": 674, "pitch": 64, "duration": 1, "velocity": 66}, {"time": 677, "pitch": 73, "duration": 1, "velocity": 122}, {"time": 680, "pitch": 69, "duration": 1, "velocity": 77}, {"time": 683, "pitch": 73, "duration": 1, "velocity": 85}, {"time": 686, "pitch": 69, "duration": 1, "velocity": 67}, {"time": 689, "pitch": 76, "duration": 1, "velocity": 74}, {"time": 692, "pitch": 71, "duration": 2, "velocity": 60}, {"time": 695, "pitch": 76, "duration": 1, "velocity": 45}, {"time": 698, "pitch": 71, "duration": 2, "velocity": 50}, {"time": 701, "pitch": 80, "duration": 2, "velocity": 78}, {"time": 704, "pitch": 71, "duration": 2, "velocity": 53}, {"time": 707, "pitch": 76, "duration": 2, "velocity": 47}, {"time": 710, "pitch": 71, "duration": 2, "velocity": 51}, {"time": 713, "pitch": 73, "duration": 1, "velocity": 90}, {"time": 716, "pitch": 69, "duration": 2, "velocity": 41}, {"time": 719, "pitch": 73, "duration": 1, "velocity": 69}, {"time": 722, "pitch": 69, "duration": 2, "velocity": 43}, {"time": 725, "pitch": 76, "duration": 1, "velocity": 56}, {"time": 728, "pitch": 69, "duration": 2, "velocity": 56}, {"time": 731, "pitch": 73, "duration": 1, "velocity": 49}, {"time": 734, "pitch": 69, "duration": 1, "velocity": 67}, {"time": 737, "pitch": 71, "duration": 4, "velocity": 70}, {"time": 740, "pitch": 75, "duration": 1, "velocity": 53}, {"time": 743, "pitch": 75, "duration": 1, "velocity": 60}, {"time": 746, "pitch": 71, "duration": 2, "velocity": 55}, {"time": 749, "pitch": 78, "duration": 2, "velocity": 81}, {"time": 752, "pitch": 71, "duration": 1, "velocity": 48}, {"time": 755, "pitch": 75, "duration": 1, "velocity": 73}, {"time": 758, "pitch": 71, "duration": 2, "velocity": 55}, {"time": 761, "pitch": 76, "duration": 1, "velocity": 65}, {"time": 764, "pitch": 71, "duration": 2, "velocity": 52}, {"time": 767, "pitch": 76, "duration": 1, "velocity": 55}, {"time": 770, "pitch": 71, "duration": 2, "velocity": 63}, {"time": 773, "pitch": 80, "duration": 2, "velocity": 86}, {"time": 776, "pitch": 71, "duration": 2, "velocity": 49}, {"time": 779, "pitch": 76, "duration": 2, "velocity": 52}, {"time": 782, "pitch": 71, "duration": 2, "velocity": 67}, {"time": 785, "pitch": 75, "duration": 2, "velocity": 68}, {"time": 788, "pitch": 68, "duration": 2, "velocity": 61}, {"time": 791, "pitch": 72, "duration": 1, "velocity": 55}, {"time": 794, "pitch": 68, "duration": 3, "velocity": 62}, {"time": 797, "pitch": 75, "duration": 2, "velocity": 83}, {"time": 800, "pitch": 68, "duration": 2, "velocity": 67}, {"time": 803, "pitch": 72, "duration": 2, "velocity": 61}, {"time": 806, "pitch": 68, "duration": 2, "velocity": 71}, {"time": 809, "pitch": 73, "duration": 1, "velocity": 93}, {"time": 812, "pitch": 68, "duration": 2, "velocity": 61}, {"time": 815, "pitch": 73, "duration": 1, "velocity": 76}, {"time": 818, "pitch": 68, "duration": 2, "velocity": 72}, {"time": 821, "pitch": 76, "duration": 2, "velocity": 67}, {"time": 824, "pitch": 68, "duration": 2, "velocity": 63}, {"time": 827, "pitch": 73, "duration": 1, "velocity": 47}, {"time": 830, "pitch": 68, "duration": 2, "velocity": 66}, {"time": 833, "pitch": 73, "duration": 1, "velocity": 66}, {"time": 836, "pitch": 68, "duration": 2, "velocity": 66}, {"time": 839, "pitch": 73, "duration": 1, "velocity": 71}, {"time": 842, "pitch": 68, "duration": 2, "velocity": 66}, {"time": 845, "pitch": 76, "duration": 2, "velocity": 58}, {"time": 848, "pitch": 68, "duration": 1, "velocity": 71}, {"time": 851, "pitch": 73, "duration": 1, "velocity": 62}, {"time": 854, "pitch": 68, "duration": 1, "velocity": 76}, {"time": 857, "pitch": 69, "duration": 2, "velocity": 66}, {"time": 860, "pitch": 64, "duration": 2, "velocity": 59}, {"time": 863, "pitch": 69, "duration": 2, "velocity": 59}, {"time": 866, "pitch": 64, "duration": 2, "velocity": 54}, {"time": 869, "pitch": 73, "duration": 2, "velocity": 93}, {"time": 872, "pitch": 64, "duration": 2, "velocity": 58}, {"time": 875, "pitch": 69, "duration": 2, "velocity": 63}, {"time": 878, "pitch": 64, "duration": 1, "velocity": 58}, {"time": 881, "pitch": 76, "duration": 1, "velocity": 65}, {"time": 884, "pitch": 71, "duration": 2, "velocity": 58}, {"time": 887, "pitch": 76, "duration": 1, "velocity": 51}, {"time": 890, "pitch": 71, "duration": 2, "velocity": 69}, {"time": 893, "pitch": 80, "duration": 1, "velocity": 78}, {"time": 896, "pitch": 71, "duration": 2, "velocity": 48}, {"time": 899, "pitch": 76, "duration": 2, "velocity": 56}, {"time": 902, "pitch": 71, "duration": 1, "velocity": 68}, {"time": 905, "pitch": 69, "duration": 1, "velocity": 77}, {"time": 908, "pitch": 64, "duration": 2, "velocity": 62}, {"time": 911, "pitch": 69, "duration": 1, "velocity": 51}, {"time": 914, "pitch": 64, "duration": 2, "velocity": 55}, {"time": 917, "pitch": 73, "duration": 1, "velocity": 79}, {"time": 920, "pitch": 64, "duration": 2, "velocity": 61}, {"time": 923, "pitch": 69, "duration": 1, "velocity": 47}, {"time": 926, "pitch": 64, "duration": 2, "velocity": 62}, {"time": 929, "pitch": 68, "duration": 2, "velocity": 73}, {"time": 932, "pitch": 63, "duration": 2, "velocity": 70}, {"time": 935, "pitch": 68, "duration": 2, "velocity": 36}, {"time": 938, "pitch": 63, "duration": 4, "velocity": 69}, {"time": 941, "pitch": 71, "duration": 2, "velocity": 65}, {"time": 944, "pitch": 63, "duration": 2, "velocity": 56}, {"time": 947, "pitch": 68, "duration": 3, "velocity": 63}, {"time": 950, "pitch": 63, "duration": 1, "velocity": 76}, {"time": 953, "pitch": 69, "duration": 2, "velocity": 56}, {"time": 956, "pitch": 64, "duration": 5, "velocity": 52}, {"time": 959, "pitch": 73, "duration": 4, "velocity": 74}, {"time": 962, "pitch": 69, "duration": 1, "velocity": 59}, {"time": 965, "pitch": 71, "duration": 2, "velocity": 69}, {"time": 968, "pitch": 66, "duration": 2, "velocity": 69}, {"time": 971, "pitch": 71, "duration": 2, "velocity": 77}, {"time": 974, "pitch": 66, "duration": 1, "velocity": 83}, {"time": 977, "pitch": 73, "duration": 1, "velocity": 90}, {"time": 980, "pitch": 68, "duration": 2, "velocity": 74}, {"time": 983, "pitch": 73, "duration": 1, "velocity": 66}, {"time": 986, "pitch": 68, "duration": 2, "velocity": 61}, {"time": 989, "pitch": 76, "duration": 2, "velocity": 65}, {"time": 992, "pitch": 68, "duration": 2, "velocity": 58}, {"time": 995, "pitch": 73, "duration": 2, "velocity": 76}, {"time": 998, "pitch": 68, "duration": 2, "velocity": 56}, {"time": 1073, "pitch": 68, "duration": 10, "velocity": 122}, {"time": 1082, "pitch": 71, "duration": 16, "velocity": 100}, {"time": 1571, "pitch": 68, "duration": 6, "velocity": 99}, {"time": 1577, "pitch": 73, "duration": 18, "velocity": 122}, {"time": 1595, "pitch": 76, "duration": 6, "velocity": 100}, {"time": 1601, "pitch": 80, "duration": 17, "velocity": 127}, {"time": 1622, "pitch": 78, "duration": 2, "velocity": 107}, {"time": 1623, "pitch": 76, "duration": 2, "velocity": 85}, {"time": 1625, "pitch": 78, "duration": 14, "velocity": 122}, {"time": 1643, "pitch": 75, "duration": 2, "velocity": 112}, {"time": 1646, "pitch": 76, "duration": 2, "velocity": 82}, {"time": 1649, "pitch": 78, "duration": 4, "velocity": 117}, {"time": 1655, "pitch": 80, "duration": 3, "velocity": 102}, {"time": 1658, "pitch": 81, "duration": 4, "velocity": 82}, {"time": 1661, "pitch": 80, "duration": 5, "velocity": 122}, {"time": 1667, "pitch": 78, "duration": 6, "velocity": 100}, {"time": 1673, "pitch": 76, "duration": 13, "velocity": 88}, {"time": 1691, "pitch": 75, "duration": 3, "velocity": 112}, {"time": 1694, "pitch": 73, "duration": 2, "velocity": 77}, {"time": 1697, "pitch": 73, "duration": 5, "velocity": 112}, {"time": 1703, "pitch": 75, "duration": 3, "velocity": 100}, {"time": 1706, "pitch": 76, "duration": 3, "velocity": 88}, {"time": 1709, "pitch": 78, "duration": 6, "velocity": 112}, {"time": 1715, "pitch": 76, "duration": 2, "velocity": 92}, {"time": 1718, "pitch": 78, "duration": 3, "velocity": 95}, {"time": 1721, "pitch": 75, "duration": 3, "velocity": 93}, {"time": 1724, "pitch": 73, "duration": 3, "velocity": 93}, {"time": 1727, "pitch": 75, "duration": 16, "velocity": 100}, {"time": 1739, "pitch": 76, "duration": 3, "velocity": 96}, {"time": 1742, "pitch": 78, "duration": 3, "velocity": 93}, {"time": 1745, "pitch": 75, "duration": 14, "velocity": 112}, {"time": 1748, "pitch": 63, "duration": 4, "velocity": 100}, {"time": 1754, "pitch": 66, "duration": 3, "velocity": 97}, {"time": 1757, "pitch": 68, "duration": 5, "velocity": 102}, {"time": 1757, "pitch": 76, "duration": 5, "velocity": 96}, {"time": 1760, "pitch": 66, "duration": 4, "velocity": 96}, {"time": 1763, "pitch": 75, "duration": 3, "velocity": 102}, {"time": 1766, "pitch": 63, "duration": 2, "velocity": 89}, {"time": 1766, "pitch": 76, "duration": 3, "velocity": 73}, {"time": 1769, "pitch": 64, "duration": 15, "velocity": 90}, {"time": 1769, "pitch": 73, "duration": 24, "velocity": 82}, {"time": 1811, "pitch": 80, "duration": 6, "velocity": 112}, {"time": 1817, "pitch": 85, "duration": 42, "velocity": 117}, {"time": 1865, "pitch": 73, "duration": 1, "velocity": 72}, {"time": 1868, "pitch": 68, "duration": 2, "velocity": 63}, {"time": 1871, "pitch": 73, "duration": 1, "velocity": 50}, {"time": 1874, "pitch": 68, "duration": 2, "velocity": 55}, {"time": 1877, "pitch": 76, "duration": 1, "velocity": 78}, {"time": 1880, "pitch": 68, "duration": 2, "velocity": 49}, {"time": 1883, "pitch": 73, "duration": 1, "velocity": 42}, {"time": 1886, "pitch": 68, "duration": 1, "velocity": 62}, {"time": 1889, "pitch": 73, "duration": 1, "velocity": 40}, {"time": 1892, "pitch": 68, "duration": 2, "velocity": 52}, {"time": 1895, "pitch": 73, "duration": 1, "velocity": 38}, {"time": 1898, "pitch": 68, "duration": 2, "velocity": 58}, {"time": 1901, "pitch": 76, "duration": 1, "velocity": 68}, {"time": 1904, "pitch": 68, "duration": 1, "velocity": 69}, {"time": 1907, "pitch": 73, "duration": 1, "velocity": 79}, {"time": 1910, "pitch": 68, "duration": 1, "velocity": 73}, {"time": 1913, "pitch": 69, "duration": 1, "velocity": 67}, {"time": 1916, "pitch": 64, "duration": 2, "velocity": 66}, {"time": 1919, "pitch": 69, "duration": 1, "velocity": 83}, {"time": 1922, "pitch": 64, "duration": 1, "velocity": 66}, {"time": 1925, "pitch": 73, "duration": 1, "velocity": 122}, {"time": 1928, "pitch": 69, "duration": 1, "velocity": 77}, {"time": 1931, "pitch": 73, "duration": 1, "velocity": 85}, {"time": 1934, "pitch": 69, "duration": 1, "velocity": 67}, {"time": 1937, "pitch": 76, "duration": 1, "velocity": 74}, {"time": 1940, "pitch": 71, "duration": 2, "velocity": 60}, {"time": 1943, "pitch": 76, "duration": 1, "velocity": 45}, {"time": 1946, "pitch": 71, "duration": 2, "velocity": 50}, {"time": 1949, "pitch": 80, "duration": 2, "velocity": 78}, {"time": 1952, "pitch": 71, "duration": 2, "velocity": 53}, {"time": 1955, "pitch": 76, "duration": 2, "velocity": 47}, {"time": 1958, "pitch": 71, "duration": 2, "velocity": 51}, {"time": 1961, "pitch": 73, "duration": 1, "velocity": 90}, {"time": 1964, "pitch": 69, "duration": 2, "velocity": 41}, {"time": 1967, "pitch": 73, "duration": 1, "velocity": 69}, {"time": 1970, "pitch": 69, "duration": 2, "velocity": 43}, {"time": 1973, "pitch": 76, "duration": 1, "velocity": 56}, {"time": 1976, "pitch": 69, "duration": 2, "velocity": 56}, {"time": 1979, "pitch": 73, "duration": 1, "velocity": 49}, {"time": 1982, "pitch": 69, "duration": 1, "velocity": 67}, {"time": 1985, "pitch": 71, "duration": 4, "velocity": 70}, {"time": 1988, "pitch": 75, "duration": 1, "velocity": 53}, {"time": 1991, "pitch": 75, "duration": 1, "velocity": 60}, {"time": 1994, "pitch": 71, "duration": 2, "velocity": 55}, {"time": 1997, "pitch": 78, "duration": 2, "velocity": 81}, {"time": 2000, "pitch": 71, "duration": 1, "velocity": 48}, {"time": 2003, "pitch": 75, "duration": 1, "velocity": 73}, {"time": 2006, "pitch": 71, "duration": 2, "velocity": 55}, {"time": 2009, "pitch": 76, "duration": 1, "velocity": 65}, {"time": 2012, "pitch": 71, "duration": 2, "velocity": 52}, {"time": 2015, "pitch": 76, "duration": 1, "velocity": 55}, {"time": 2018, "pitch": 71, "duration": 2, "velocity": 63}, {"time": 2021, "pitch": 80, "duration": 2, "velocity": 86}, {"time": 2024, "pitch": 71, "duration": 2, "velocity": 49}, {"time": 2027, "pitch": 76, "duration": 2, "velocity": 52}, {"time": 2030, "pitch": 71, "duration": 2, "velocity": 67}, {"time": 2033, "pitch": 75, "duration": 2, "velocity": 68}, {"time": 2036, "pitch": 68, "duration": 2, "velocity": 61}, {"time": 2039, "pitch": 72, "duration": 1, "velocity": 55}, {"time": 2042, "pitch": 68, "duration": 3, "velocity": 62}, {"time": 2045, "pitch": 75, "duration": 2, "velocity": 83}, {"time": 2048, "pitch": 68, "duration": 2, "velocity": 67}, {"time": 2051, "pitch": 72, "duration": 2, "velocity": 61}, {"time": 2054, "pitch": 68, "duration": 2, "velocity": 71}, {"time": 2057, "pitch": 73, "duration": 1, "velocity": 93}, {"time": 2060, "pitch": 68, "duration": 2, "velocity": 61}, {"time": 2063, "pitch": 73, "duration": 1, "velocity": 76}, {"time": 2066, "pitch": 68, "duration": 2, "velocity": 72}, {"time": 2069, "pitch": 76, "duration": 2, "velocity": 67}, {"time": 2072, "pitch": 68, "duration": 2, "velocity": 63}, {"time": 2075, "pitch": 73, "duration": 1, "velocity": 47}, {"time": 2078, "pitch": 68, "duration": 2, "velocity": 66}, {"time": 2081, "pitch": 73, "duration": 1, "velocity": 66}, {"time": 2084, "pitch": 68, "duration": 2, "velocity": 66}, {"time": 2087, "pitch": 73, "duration": 1, "velocity": 71}, {"time": 2090, "pitch": 68, "duration": 2, "velocity": 66}, {"time": 2093, "pitch": 76, "duration": 2, "velocity": 58}, {"time": 2096, "pitch": 68, "duration": 1, "velocity": 71}, {"time": 2099, "pitch": 73, "duration": 1, "velocity": 62}, {"time": 2102, "pitch": 68, "duration": 1, "velocity": 76}, {"time": 2105, "pitch": 69, "duration": 2, "velocity": 66}, {"time": 2108, "pitch": 64, "duration": 2, "velocity": 59}, {"time": 2111, "pitch": 69, "duration": 2, "velocity": 59}, {"time": 2114, "pitch": 64, "duration": 2, "velocity": 54}, {"time": 2117, "pitch": 73, "duration": 2, "velocity": 93}, {"time": 2120, "pitch": 64, "duration": 2, "velocity": 58}, {"time": 2123, "pitch": 69, "duration": 2, "velocity": 63}, {"time": 2126, "pitch": 64, "duration": 1, "velocity": 58}, {"time": 2129, "pitch": 76, "duration": 1, "velocity": 65}, {"time": 2132, "pitch": 71, "duration": 2, "velocity": 58}, {"time": 2135, "pitch": 76, "duration": 1, "velocity": 51}, {"time": 2138, "pitch": 71, "duration": 2, "velocity": 69}, {"time": 2141, "pitch": 80, "duration": 1, "velocity": 78}, {"time": 2144, "pitch": 71, "duration": 2, "velocity": 48}, {"time": 2147, "pitch": 76, "duration": 2, "velocity": 56}, {"time": 2150, "pitch": 71, "duration": 1, "velocity": 68}, {"time": 2153, "pitch": 69, "duration": 1, "velocity": 77}, {"time": 2156, "pitch": 64, "duration": 2, "velocity": 62}, {"time": 2159, "pitch": 69, "duration": 1, "velocity": 51}, {"time": 2162, "pitch": 64, "duration": 2, "velocity": 55}, {"time": 2165, "pitch": 73, "duration": 1, "velocity": 79}, {"time": 2168, "pitch": 64, "duration": 2, "velocity": 61}, {"time": 2171, "pitch": 69, "duration": 1, "velocity": 47}, {"time": 2174, "pitch": 64, "duration": 2, "velocity": 62}, {"time": 2177, "pitch": 68, "duration": 2, "velocity": 73}, {"time": 2180, "pitch": 63, "duration": 2, "velocity": 70}, {"time": 2183, "pitch": 68, "duration": 2, "velocity": 36}, {"time": 2186, "pitch": 63, "duration": 4, "velocity": 69}, {"time": 2189, "pitch": 71, "duration": 2, "velocity": 65}, {"time": 2192, "pitch": 63, "duration": 2, "velocity": 56}, {"time": 2195, "pitch": 68, "duration": 3, "velocity": 63}, {"time": 2198, "pitch": 63, "duration": 1, "velocity": 76}, {"time": 2201, "pitch": 69, "duration": 2, "velocity": 56}, {"time": 2204, "pitch": 64, "duration": 5, "velocity": 52}, {"time": 2207, "pitch": 73, "duration": 4, "velocity": 74}, {"time": 2210, "pitch": 69, "duration": 1, "velocity": 59}, {"time": 2213, "pitch": 71, "duration": 2, "velocity": 69}, {"time": 2216, "pitch": 66, "duration": 2, "velocity": 69}, {"time": 2219, "pitch": 71, "duration": 2, "velocity": 77}, {"time": 2222, "pitch": 66, "duration": 1, "velocity": 83}, {"time": 2225, "pitch": 73, "duration": 1, "velocity": 90}, {"time": 2228, "pitch": 68, "duration": 2, "velocity": 74}, {"time": 2231, "pitch": 73, "duration": 1, "velocity": 66}, {"time": 2234, "pitch": 68, "duration": 2, "velocity": 61}, {"time": 2237, "pitch": 76, "duration": 2, "velocity": 65}, {"time": 2240, "pitch": 68, "duration": 2, "velocity": 58}, {"time": 2243, "pitch": 73, "duration": 2, "velocity": 76}, {"time": 2246, "pitch": 68, "duration": 2, "velocity": 56}, {"time": 2321, "pitch": 68, "duration": 10, "velocity": 122}, {"time": 2330, "pitch": 71, "duration": 16, "velocity": 100}, {"time": 3161, "pitch": 73, "duration": 10, "velocity": 127}, {"time": 3173, "pitch": 73, "duration": 5, "velocity": 127}, {"time": 3179, "pitch": 71, "duration": 30, "velocity": 127}, {"time": 3209, "pitch": 73, "duration": 18, "velocity": 127}, {"time": 3227, "pitch": 71, "duration": 54, "velocity": 112}, {"time": 3281, "pitch": 73, "duration": 41, "velocity": 122}]}, {"program": 0, "is_drum": false, "name": "PIANO", "notes": [{"time": 17, "pitch": 49, "duration": 18, "velocity": 60}, {"time": 17, "pitch": 61, "duration": 1, "velocity": 38}, {"time": 17, "pitch": 64, "duration": 17, "velocity": 66}, {"time": 17, "pitch": 68, "duration": 11, "velocity": 63}, {"time": 29, "pitch": 68, "duration": 5, "velocity": 23}, {"time": 41, "pitch": 47, "duration": 14, "velocity": 37}, {"time": 41, "pitch": 59, "duration": 17, "velocity": 47}, {"time": 41, "pitch": 63, "duration": 18, "velocity": 51}, {"time": 41, "pitch": 66, "duration": 18, "velocity": 44}, {"time": 65, "pitch": 49, "duration": 15, "velocity": 32}, {"time": 65, "pitch": 61, "duration": 10, "velocity": 50}, {"time": 65, "pitch": 64, "duration": 13, "velocity": 58}, {"time": 65, "pitch": 68, "duration": 14, "velocity": 63}, {"time": 89, "pitch": 47, "duration": 9, "velocity": 36}, {"time": 89, "pitch": 59, "duration": 12, "velocity": 57}, {"time": 89, "pitch": 63, "duration": 12, "velocity": 50}, {"time": 89, "pitch": 66, "duration": 13, "velocity": 55}, {"time": 113, "pitch": 49, "duration": 15, "velocity": 54}, {"time": 119, "pitch": 56, "duration": 8, "velocity": 50}, {"time": 125, "pitch": 64, "duration": 12, "velocity": 69}, {"time": 125, "pitch": 68, "duration": 13, "velocity": 65}, {"time": 134, "pitch": 61, "duration": 4, "velocity": 33}, {"time": 137, "pitch": 47, "duration": 22, "velocity": 65}, {"time": 143, "pitch": 54, "duration": 16, "velocity": 58}, {"time": 149, "pitch": 63, "duration": 12, "velocity": 72}, {"time": 149, "pitch": 66, "duration": 13, "velocity": 68}, {"time": 155, "pitch": 59, "duration": 6, "velocity": 50}, {"time": 161, "pitch": 49, "duration": 13, "velocity": 67}, {"time": 167, "pitch": 61, "duration": 19, "velocity": 56}, {"time": 173, "pitch": 64, "duration": 11, "velocity": 64}, {"time": 173, "pitch": 68, "duration": 12, "velocity": 70}, {"time": 185, "pitch": 47, "duration": 15, "velocity": 65}, {"time": 191, "pitch": 54, "duration": 9, "velocity": 63}, {"time": 197, "pitch": 63, "duration": 12, "velocity": 97}, {"time": 197, "pitch": 66, "duration": 12, "velocity": 95}, {"time": 203, "pitch": 59, "duration": 7, "velocity": 59}, {"time": 209, "pitch": 37, "duration": 23, "velocity": 95}, {"time": 215, "pitch": 49, "duration": 19, "velocity": 59}, {"time": 221, "pitch": 68, "duration": 21, "velocity": 99}, {"time": 227, "pitch": 64, "duration": 13, "velocity": 52}, {"time": 230, "pitch": 61, "duration": 17, "velocity": 54}, {"time": 233, "pitch": 37, "duration": 15, "velocity": 75}, {"time": 239, "pitch": 49, "duration": 11, "velocity": 59}, {"time": 245, "pitch": 68, "duration": 12, "velocity": 100}, {"time": 251, "pitch": 61, "duration": 6, "velocity": 69}, {"time": 254, "pitch": 64, "duration": 3, "velocity": 49}, {"time": 257, "pitch": 45, "duration": 16, "velocity": 77}, {"time": 263, "pitch": 52, "duration": 9, "velocity": 60}, {"time": 266, "pitch": 57, "duration": 10, "velocity": 63}, {"time": 269, "pitch": 64, "duration": 12, "velocity": 100}, {"time": 275, "pitch": 61, "duration": 6, "velocity": 69}, {"time": 278, "pitch": 57, "duration": 3, "velocity": 63}, {"time": 281, "pitch": 40, "duration": 18, "velocity": 63}, {"time": 284, "pitch": 47, "duration": 15, "velocity": 43}, {"time": 287, "pitch": 52, "duration": 17, "velocity": 71}, {"time": 290, "pitch": 59, "duration": 10, "velocity": 63}, {"time": 293, "pitch": 68, "duration": 12, "velocity": 122}, {"time": 299, "pitch": 64, "duration": 6, "velocity": 62}, {"time": 305, "pitch": 45, "duration": 16, "velocity": 76}, {"time": 311, "pitch": 52, "duration": 9, "velocity": 59}, {"time": 317, "pitch": 64, "duration": 13, "velocity": 117}, {"time": 323, "pitch": 61, "duration": 7, "velocity": 62}, {"time": 326, "pitch": 57, "duration": 4, "velocity": 59}, {"time": 329, "pitch": 47, "duration": 16, "velocity": 75}, {"time": 335, "pitch": 54, "duration": 9, "velocity": 54}, {"time": 341, "pitch": 66, "duration": 12, "velocity": 122}, {"time": 347, "pitch": 63, "duration": 5, "velocity": 93}, {"time": 353, "pitch": 40, "duration": 16, "velocity": 82}, {"time": 359, "pitch": 47, "duration": 10, "velocity": 55}, {"time": 365, "pitch": 52, "duration": 6, "velocity": 62}, {"time": 365, "pitch": 64, "duration": 12, "velocity": 79}, {"time": 365, "pitch": 68, "duration": 13, "velocity": 83}, {"time": 371, "pitch": 59, "duration": 8, "velocity": 66}, {"time": 377, "pitch": 44, "duration": 18, "velocity": 90}, {"time": 383, "pitch": 56, "duration": 7, "velocity": 73}, {"time": 389, "pitch": 63, "duration": 12, "velocity": 112}, {"time": 389, "pitch": 68, "duration": 13, "velocity": 100}, {"time": 392, "pitch": 56, "duration": 2, "velocity": 82}, {"time": 395, "pitch": 60, "duration": 7, "velocity": 85}, {"time": 401, "pitch": 37, "duration": 18, "velocity": 86}, {"time": 407, "pitch": 49, "duration": 15, "velocity": 75}, {"time": 413, "pitch": 64, "duration": 19, "velocity": 76}, {"time": 413, "pitch": 68, "duration": 20, "velocity": 93}, {"time": 419, "pitch": 61, "duration": 13, "velocity": 77}, {"time": 425, "pitch": 37, "duration": 17, "velocity": 90}, {"time": 428, "pitch": 44, "duration": 12, "velocity": 38}, {"time": 431, "pitch": 49, "duration": 12, "velocity": 71}, {"time": 434, "pitch": 61, "duration": 4, "velocity": 54}, {"time": 437, "pitch": 64, "duration": 12, "velocity": 66}, {"time": 437, "pitch": 68, "duration": 12, "velocity": 82}, {"time": 443, "pitch": 61, "duration": 7, "velocity": 59}, {"time": 449, "pitch": 45, "duration": 15, "velocity": 70}, {"time": 455, "pitch": 52, "duration": 8, "velocity": 58}, {"time": 461, "pitch": 61, "duration": 12, "velocity": 92}, {"time": 461, "pitch": 64, "duration": 12, "velocity": 81}, {"time": 467, "pitch": 57, "duration": 7, "velocity": 61}, {"time": 473, "pitch": 40, "duration": 17, "velocity": 69}, {"time": 479, "pitch": 47, "duration": 12, "velocity": 53}, {"time": 485, "pitch": 52, "duration": 10, "velocity": 58}, {"time": 485, "pitch": 64, "duration": 12, "velocity": 81}, {"time": 485, "pitch": 68, "duration": 13, "velocity": 73}, {"time": 491, "pitch": 59, "duration": 7, "velocity": 71}, {"time": 497, "pitch": 45, "duration": 14, "velocity": 74}, {"time": 503, "pitch": 52, "duration": 7, "velocity": 53}, {"time": 509, "pitch": 61, "duration": 12, "velocity": 100}, {"time": 509, "pitch": 64, "duration": 12, "velocity": 90}, {"time": 515, "pitch": 57, "duration": 6, "velocity": 79}, {"time": 521, "pitch": 44, "duration": 18, "velocity": 81}, {"time": 527, "pitch": 51, "duration": 11, "velocity": 33}, {"time": 533, "pitch": 56, "duration": 5, "velocity": 66}, {"time": 533, "pitch": 59, "duration": 2, "velocity": 73}, {"time": 533, "pitch": 63, "duration": 7, "velocity": 92}, {"time": 539, "pitch": 59, "duration": 4, "velocity": 71}, {"time": 545, "pitch": 45, "duration": 8, "velocity": 72}, {"time": 545, "pitch": 57, "duration": 9, "velocity": 89}, {"time": 545, "pitch": 61, "duration": 11, "velocity": 96}, {"time": 545, "pitch": 64, "duration": 6, "velocity": 76}, {"time": 557, "pitch": 47, "duration": 4, "velocity": 67}, {"time": 557, "pitch": 59, "duration": 12, "velocity": 81}, {"time": 557, "pitch": 63, "duration": 13, "velocity": 96}, {"time": 557, "pitch": 66, "duration": 13, "velocity": 95}, {"time": 569, "pitch": 37, "duration": 23, "velocity": 71}, {"time": 572, "pitch": 44, "duration": 21, "velocity": 56}, {"time": 575, "pitch": 49, "duration": 7, "velocity": 72}, {"time": 578, "pitch": 61, "duration": 7, "velocity": 76}, {"time": 581, "pitch": 68, "duration": 22, "velocity": 127}, {"time": 584, "pitch": 49, "duration": 22, "velocity": 88}, {"time": 587, "pitch": 64, "duration": 16, "velocity": 38}, {"time": 590, "pitch": 61, "duration": 16, "velocity": 92}, {"time": 593, "pitch": 37, "duration": 20, "velocity": 62}, {"time": 605, "pitch": 68, "duration": 12, "velocity": 122}, {"time": 608, "pitch": 49, "duration": 9, "velocity": 88}, {"time": 611, "pitch": 64, "duration": 6, "velocity": 49}, {"time": 614, "pitch": 61, "duration": 3, "velocity": 90}, {"time": 617, "pitch": 37, "duration": 7, "velocity": 86}, {"time": 620, "pitch": 56, "duration": 4, "velocity": 65}, {"time": 623, "pitch": 61, "duration": 7, "velocity": 73}, {"time": 626, "pitch": 37, "duration": 1, "velocity": 93}, {"time": 626, "pitch": 56, "duration": 4, "velocity": 23}, {"time": 629, "pitch": 37, "duration": 11, "velocity": 56}, {"time": 629, "pitch": 49, "duration": 10, "velocity": 77}, {"time": 632, "pitch": 56, "duration": 4, "velocity": 81}, {"time": 635, "pitch": 64, "duration": 10, "velocity": 95}, {"time": 638, "pitch": 56, "duration": 5, "velocity": 102}, {"time": 641, "pitch": 37, "duration": 8, "velocity": 86}, {"time": 644, "pitch": 56, "duration": 10, "velocity": 67}, {"time": 647, "pitch": 64, "duration": 9, "velocity": 85}, {"time": 650, "pitch": 37, "duration": 1, "velocity": 92}, {"time": 653, "pitch": 37, "duration": 5, "velocity": 79}, {"time": 656, "pitch": 56, "duration": 7, "velocity": 97}, {"time": 659, "pitch": 64, "duration": 7, "velocity": 89}, {"time": 662, "pitch": 61, "duration": 4, "velocity": 85}, {"time": 665, "pitch": 45, "duration": 8, "velocity": 78}, {"time": 668, "pitch": 52, "duration": 6, "velocity": 49}, {"time": 671, "pitch": 61, "duration": 10, "velocity": 92}, {"time": 671, "pitch": 64, "duration": 10, "velocity": 88}, {"time": 674, "pitch": 45, "duration": 10, "velocity": 85}, {"time": 677, "pitch": 52, "duration": 6, "velocity": 88}, {"time": 680, "pitch": 57, "duration": 8, "velocity": 70}, {"time": 683, "pitch": 64, "duration": 6, "velocity": 95}, {"time": 686, "pitch": 61, "duration": 3, "velocity": 96}, {"time": 689, "pitch": 40, "duration": 7, "velocity": 75}, {"time": 692, "pitch": 59, "duration": 10, "velocity": 66}, {"time": 695, "pitch": 64, "duration": 7, "velocity": 86}, {"time": 695, "pitch": 68, "duration": 9, "velocity": 97}, {"time": 698, "pitch": 40, "duration": 1, "velocity": 39}, {"time": 701, "pitch": 40, "duration": 6, "velocity": 86}, {"time": 704, "pitch": 59, "duration": 10, "velocity": 79}, {"time": 707, "pitch": 68, "duration": 6, "velocity": 122}, {"time": 710, "pitch": 64, "duration": 3, "velocity": 68}, {"time": 713, "pitch": 45, "duration": 8, "velocity": 77}, {"time": 716, "pitch": 57, "duration": 10, "velocity": 78}, {"time": 719, "pitch": 61, "duration": 9, "velocity": 90}, {"time": 719, "pitch": 64, "duration": 8, "velocity": 90}, {"time": 722, "pitch": 45, "duration": 1, "velocity": 66}, {"time": 725, "pitch": 45, "duration": 10, "velocity": 79}, {"time": 728, "pitch": 57, "duration": 8, "velocity": 82}, {"time": 731, "pitch": 64, "duration": 5, "velocity": 92}, {"time": 734, "pitch": 61, "duration": 4, "velocity": 95}, {"time": 737, "pitch": 47, "duration": 8, "velocity": 76}, {"time": 740, "pitch": 59, "duration": 14, "velocity": 71}, {"time": 743, "pitch": 63, "duration": 10, "velocity": 83}, {"time": 743, "pitch": 66, "duration": 11, "velocity": 90}, {"time": 746, "pitch": 47, "duration": 1, "velocity": 72}, {"time": 749, "pitch": 47, "duration": 4, "velocity": 76}, {"time": 752, "pitch": 54, "duration": 5, "velocity": 92}, {"time": 755, "pitch": 63, "duration": 5, "velocity": 96}, {"time": 755, "pitch": 66, "duration": 5, "velocity": 93}, {"time": 758, "pitch": 59, "duration": 4, "velocity": 72}, {"time": 761, "pitch": 40, "duration": 8, "velocity": 76}, {"time": 764, "pitch": 59, "duration": 10, "velocity": 82}, {"time": 767, "pitch": 64, "duration": 7, "velocity": 81}, {"time": 767, "pitch": 68, "duration": 7, "velocity": 95}, {"time": 770, "pitch": 47, "duration": 2, "velocity": 76}, {"time": 773, "pitch": 40, "duration": 8, "velocity": 81}, {"time": 776, "pitch": 59, "duration": 4, "velocity": 81}, {"time": 779, "pitch": 64, "duration": 5, "velocity": 86}, {"time": 779, "pitch": 68, "duration": 5, "velocity": 97}, {"time": 782, "pitch": 59, "duration": 3, "velocity": 75}, {"time": 785, "pitch": 44, "duration": 7, "velocity": 100}, {"time": 788, "pitch": 56, "duration": 10, "velocity": 86}, {"time": 791, "pitch": 60, "duration": 7, "velocity": 71}, {"time": 791, "pitch": 63, "duration": 7, "velocity": 97}, {"time": 794, "pitch": 44, "duration": 1, "velocity": 99}, {"time": 797, "pitch": 44, "duration": 7, "velocity": 92}, {"time": 800, "pitch": 56, "duration": 4, "velocity": 92}, {"time": 803, "pitch": 60, "duration": 5, "velocity": 79}, {"time": 803, "pitch": 63, "duration": 6, "velocity": 97}, {"time": 806, "pitch": 56, "duration": 2, "velocity": 72}, {"time": 809, "pitch": 49, "duration": 7, "velocity": 89}, {"time": 812, "pitch": 61, "duration": 4, "velocity": 75}, {"time": 815, "pitch": 64, "duration": 7, "velocity": 72}, {"time": 815, "pitch": 68, "duration": 7, "velocity": 93}, {"time": 818, "pitch": 49, "duration": 1, "velocity": 81}, {"time": 821, "pitch": 49, "duration": 11, "velocity": 86}, {"time": 824, "pitch": 61, "duration": 9, "velocity": 82}, {"time": 827, "pitch": 68, "duration": 8, "velocity": 112}, {"time": 830, "pitch": 64, "duration": 5, "velocity": 69}, {"time": 833, "pitch": 49, "duration": 8, "velocity": 85}, {"time": 836, "pitch": 61, "duration": 9, "velocity": 66}, {"time": 839, "pitch": 68, "duration": 7, "velocity": 112}, {"time": 842, "pitch": 49, "duration": 1, "velocity": 67}, {"time": 845, "pitch": 49, "duration": 7, "velocity": 95}, {"time": 848, "pitch": 61, "duration": 4, "velocity": 93}, {"time": 851, "pitch": 68, "duration": 4, "velocity": 122}, {"time": 854, "pitch": 61, "duration": 3, "velocity": 88}, {"time": 857, "pitch": 45, "duration": 8, "velocity": 72}, {"time": 860, "pitch": 57, "duration": 10, "velocity": 77}, {"time": 863, "pitch": 64, "duration": 7, "velocity": 95}, {"time": 866, "pitch": 45, "duration": 1, "velocity": 82}, {"time": 869, "pitch": 45, "duration": 7, "velocity": 90}, {"time": 872, "pitch": 57, "duration": 8, "velocity": 86}, {"time": 875, "pitch": 64, "duration": 5, "velocity": 89}, {"time": 878, "pitch": 61, "duration": 2, "velocity": 96}, {"time": 881, "pitch": 40, "duration": 8, "velocity": 71}, {"time": 884, "pitch": 59, "duration": 10, "velocity": 73}, {"time": 887, "pitch": 68, "duration": 9, "velocity": 99}, {"time": 890, "pitch": 40, "duration": 1, "velocity": 78}, {"time": 893, "pitch": 40, "duration": 8, "velocity": 61}, {"time": 896, "pitch": 59, "duration": 9, "velocity": 82}, {"time": 899, "pitch": 68, "duration": 5, "velocity": 117}, {"time": 902, "pitch": 64, "duration": 2, "velocity": 93}, {"time": 905, "pitch": 45, "duration": 7, "velocity": 79}, {"time": 908, "pitch": 57, "duration": 11, "velocity": 76}, {"time": 911, "pitch": 64, "duration": 10, "velocity": 93}, {"time": 914, "pitch": 45, "duration": 1, "velocity": 72}, {"time": 917, "pitch": 45, "duration": 10, "velocity": 78}, {"time": 920, "pitch": 57, "duration": 9, "velocity": 72}, {"time": 923, "pitch": 64, "duration": 6, "velocity": 96}, {"time": 926, "pitch": 61, "duration": 2, "velocity": 95}, {"time": 929, "pitch": 44, "duration": 7, "velocity": 81}, {"time": 932, "pitch": 56, "duration": 10, "velocity": 81}, {"time": 935, "pitch": 63, "duration": 8, "velocity": 107}, {"time": 938, "pitch": 44, "duration": 1, "velocity": 81}, {"time": 941, "pitch": 44, "duration": 7, "velocity": 82}, {"time": 944, "pitch": 56, "duration": 4, "velocity": 82}, {"time": 947, "pitch": 63, "duration": 4, "velocity": 107}, {"time": 950, "pitch": 56, "duration": 2, "velocity": 82}, {"time": 953, "pitch": 42, "duration": 11, "velocity": 90}, {"time": 956, "pitch": 54, "duration": 4, "velocity": 71}, {"time": 959, "pitch": 61, "duration": 5, "velocity": 117}, {"time": 962, "pitch": 54, "duration": 2, "velocity": 102}, {"time": 965, "pitch": 47, "duration": 7, "velocity": 70}, {"time": 968, "pitch": 59, "duration": 8, "velocity": 82}, {"time": 971, "pitch": 66, "duration": 6, "velocity": 107}, {"time": 974, "pitch": 63, "duration": 2, "velocity": 97}, {"time": 977, "pitch": 37, "duration": 24, "velocity": 95}, {"time": 980, "pitch": 49, "duration": 10, "velocity": 86}, {"time": 983, "pitch": 61, "duration": 9, "velocity": 89}, {"time": 986, "pitch": 64, "duration": 4, "velocity": 56}, {"time": 989, "pitch": 68, "duration": 12, "velocity": 122}, {"time": 992, "pitch": 49, "duration": 9, "velocity": 96}, {"time": 995, "pitch": 64, "duration": 6, "velocity": 61}, {"time": 998, "pitch": 61, "duration": 3, "velocity": 99}, {"time": 1001, "pitch": 42, "duration": 18, "velocity": 97}, {"time": 1007, "pitch": 49, "duration": 11, "velocity": 38}, {"time": 1013, "pitch": 66, "duration": 12, "velocity": 127}, {"time": 1019, "pitch": 61, "duration": 5, "velocity": 96}, {"time": 1022, "pitch": 57, "duration": 3, "velocity": 82}, {"time": 1025, "pitch": 47, "duration": 16, "velocity": 90}, {"time": 1031, "pitch": 54, "duration": 9, "velocity": 85}, {"time": 1037, "pitch": 66, "duration": 12, "velocity": 127}, {"time": 1043, "pitch": 63, "duration": 5, "velocity": 95}, {"time": 1049, "pitch": 37, "duration": 13, "velocity": 97}, {"time": 1055, "pitch": 49, "duration": 10, "velocity": 83}, {"time": 1061, "pitch": 64, "duration": 12, "velocity": 99}, {"time": 1061, "pitch": 68, "duration": 12, "velocity": 117}, {"time": 1067, "pitch": 61, "duration": 6, "velocity": 66}, {"time": 1073, "pitch": 44, "duration": 17, "velocity": 99}, {"time": 1079, "pitch": 51, "duration": 10, "velocity": 26}, {"time": 1085, "pitch": 56, "duration": 5, "velocity": 66}, {"time": 1085, "pitch": 63, "duration": 11, "velocity": 107}, {"time": 1085, "pitch": 68, "duration": 12, "velocity": 112}, {"time": 1091, "pitch": 59, "duration": 5, "velocity": 93}, {"time": 1097, "pitch": 45, "duration": 20, "velocity": 92}, {"time": 1103, "pitch": 52, "duration": 9, "velocity": 67}, {"time": 1109, "pitch": 57, "duration": 6, "velocity": 88}, {"time": 1109, "pitch": 69, "duration": 12, "velocity": 107}, {"time": 1109, "pitch": 73, "duration": 13, "velocity": 112}, {"time": 1115, "pitch": 52, "duration": 5, "velocity": 92}, {"time": 1118, "pitch": 64, "duration": 3, "velocity": 89}, {"time": 1121, "pitch": 47, "duration": 18, "velocity": 93}, {"time": 1127, "pitch": 54, "duration": 7, "velocity": 90}, {"time": 1133, "pitch": 63, "duration": 7, "velocity": 127}, {"time": 1133, "pitch": 66, "duration": 10, "velocity": 127}, {"time": 1136, "pitch": 54, "duration": 2, "velocity": 97}, {"time": 1139, "pitch": 59, "duration": 8, "velocity": 97}, {"time": 1142, "pitch": 63, "duration": 3, "velocity": 127}, {"time": 1145, "pitch": 40, "duration": 17, "velocity": 89}, {"time": 1151, "pitch": 47, "duration": 10, "velocity": 72}, {"time": 1157, "pitch": 52, "duration": 8, "velocity": 95}, {"time": 1160, "pitch": 68, "duration": 9, "velocity": 117}, {"time": 1163, "pitch": 64, "duration": 5, "velocity": 89}, {"time": 1166, "pitch": 59, "duration": 3, "velocity": 88}, {"time": 1169, "pitch": 44, "duration": 18, "velocity": 93}, {"time": 1172, "pitch": 51, "duration": 15, "velocity": 90}, {"time": 1175, "pitch": 56, "duration": 7, "velocity": 117}, {"time": 1178, "pitch": 60, "duration": 4, "velocity": 89}, {"time": 1181, "pitch": 63, "duration": 7, "velocity": 127}, {"time": 1181, "pitch": 68, "duration": 12, "velocity": 127}, {"time": 1184, "pitch": 56, "duration": 2, "velocity": 122}, {"time": 1187, "pitch": 60, "duration": 5, "velocity": 107}, {"time": 1190, "pitch": 63, "duration": 3, "velocity": 127}, {"time": 1193, "pitch": 49, "duration": 17, "velocity": 90}, {"time": 1196, "pitch": 56, "duration": 10, "velocity": 112}, {"time": 1199, "pitch": 61, "duration": 6, "velocity": 100}, {"time": 1202, "pitch": 64, "duration": 2, "velocity": 100}, {"time": 1205, "pitch": 68, "duration": 10, "velocity": 127}, {"time": 1208, "pitch": 56, "duration": 2, "velocity": 107}, {"time": 1211, "pitch": 61, "duration": 6, "velocity": 127}, {"time": 1214, "pitch": 64, "duration": 3, "velocity": 96}, {"time": 1217, "pitch": 44, "duration": 17, "velocity": 95}, {"time": 1220, "pitch": 51, "duration": 13, "velocity": 76}, {"time": 1223, "pitch": 56, "duration": 7, "velocity": 100}, {"time": 1226, "pitch": 59, "duration": 7, "velocity": 93}, {"time": 1229, "pitch": 68, "duration": 11, "velocity": 127}, {"time": 1232, "pitch": 56, "duration": 2, "velocity": 92}, {"time": 1235, "pitch": 63, "duration": 6, "velocity": 122}, {"time": 1238, "pitch": 59, "duration": 4, "velocity": 100}, {"time": 1241, "pitch": 42, "duration": 16, "velocity": 93}, {"time": 1244, "pitch": 49, "duration": 12, "velocity": 33}, {"time": 1247, "pitch": 54, "duration": 7, "velocity": 99}, {"time": 1250, "pitch": 57, "duration": 7, "velocity": 95}, {"time": 1253, "pitch": 66, "duration": 12, "velocity": 127}, {"time": 1256, "pitch": 54, "duration": 3, "velocity": 100}, {"time": 1259, "pitch": 61, "duration": 6, "velocity": 122}, {"time": 1262, "pitch": 57, "duration": 3, "velocity": 112}, {"time": 1265, "pitch": 49, "duration": 17, "velocity": 85}, {"time": 1268, "pitch": 56, "duration": 10, "velocity": 90}, {"time": 1271, "pitch": 61, "duration": 7, "velocity": 95}, {"time": 1274, "pitch": 64, "duration": 3, "velocity": 88}, {"time": 1277, "pitch": 68, "duration": 12, "velocity": 127}, {"time": 1280, "pitch": 56, "duration": 2, "velocity": 93}, {"time": 1283, "pitch": 61, "duration": 6, "velocity": 112}, {"time": 1286, "pitch": 64, "duration": 3, "velocity": 86}, {"time": 1289, "pitch": 45, "duration": 22, "velocity": 92}, {"time": 1292, "pitch": 52, "duration": 10, "velocity": 59}, {"time": 1295, "pitch": 57, "duration": 3, "velocity": 93}, {"time": 1298, "pitch": 61, "duration": 3, "velocity": 122}, {"time": 1301, "pitch": 64, "duration": 12, "velocity": 99}, {"time": 1304, "pitch": 52, "duration": 8, "velocity": 95}, {"time": 1307, "pitch": 61, "duration": 6, "velocity": 117}, {"time": 1310, "pitch": 57, "duration": 3, "velocity": 97}, {"time": 1313, "pitch": 47, "duration": 17, "velocity": 81}, {"time": 1316, "pitch": 54, "duration": 11, "velocity": 95}, {"time": 1319, "pitch": 59, "duration": 8, "velocity": 88}, {"time": 1322, "pitch": 63, "duration": 4, "velocity": 107}, {"time": 1325, "pitch": 66, "duration": 9, "velocity": 122}, {"time": 1328, "pitch": 54, "duration": 2, "velocity": 92}, {"time": 1331, "pitch": 63, "duration": 3, "velocity": 127}, {"time": 1334, "pitch": 59, "duration": 5, "velocity": 99}, {"time": 1337, "pitch": 40, "duration": 16, "velocity": 90}, {"time": 1340, "pitch": 47, "duration": 13, "velocity": 76}, {"time": 1343, "pitch": 52, "duration": 7, "velocity": 95}, {"time": 1346, "pitch": 59, "duration": 6, "velocity": 102}, {"time": 1349, "pitch": 68, "duration": 12, "velocity": 127}, {"time": 1352, "pitch": 52, "duration": 3, "velocity": 90}, {"time": 1355, "pitch": 64, "duration": 5, "velocity": 93}, {"time": 1358, "pitch": 59, "duration": 3, "velocity": 97}, {"time": 1361, "pitch": 44, "duration": 19, "velocity": 96}, {"time": 1364, "pitch": 51, "duration": 15, "velocity": 38}, {"time": 1367, "pitch": 56, "duration": 7, "velocity": 102}, {"time": 1370, "pitch": 60, "duration": 4, "velocity": 100}, {"time": 1373, "pitch": 63, "duration": 7, "velocity": 127}, {"time": 1373, "pitch": 68, "duration": 12, "velocity": 127}, {"time": 1376, "pitch": 56, "duration": 3, "velocity": 112}, {"time": 1379, "pitch": 60, "duration": 5, "velocity": 102}, {"time": 1382, "pitch": 63, "duration": 3, "velocity": 127}, {"time": 1385, "pitch": 37, "duration": 16, "velocity": 88}, {"time": 1388, "pitch": 44, "duration": 14, "velocity": 82}, {"time": 1391, "pitch": 49, "duration": 6, "velocity": 92}, {"time": 1394, "pitch": 61, "duration": 4, "velocity": 90}, {"time": 1397, "pitch": 64, "duration": 6, "velocity": 86}, {"time": 1397, "pitch": 68, "duration": 11, "velocity": 127}, {"time": 1400, "pitch": 49, "duration": 3, "velocity": 100}, {"time": 1403, "pitch": 61, "duration": 6, "velocity": 112}, {"time": 1406, "pitch": 64, "duration": 3, "velocity": 90}, {"time": 1409, "pitch": 47, "duration": 17, "velocity": 78}, {"time": 1412, "pitch": 54, "duration": 10, "velocity": 107}, {"time": 1415, "pitch": 59, "duration": 4, "velocity": 92}, {"time": 1418, "pitch": 63, "duration": 3, "velocity": 102}, {"time": 1421, "pitch": 66, "duration": 11, "velocity": 122}, {"time": 1424, "pitch": 54, "duration": 2, "velocity": 96}, {"time": 1427, "pitch": 63, "duration": 5, "velocity": 112}, {"time": 1430, "pitch": 59, "duration": 3, "velocity": 99}, {"time": 1433, "pitch": 42, "duration": 16, "velocity": 72}, {"time": 1436, "pitch": 49, "duration": 12, "velocity": 32}, {"time": 1439, "pitch": 54, "duration": 6, "velocity": 95}, {"time": 1442, "pitch": 57, "duration": 7, "velocity": 90}, {"time": 1445, "pitch": 66, "duration": 11, "velocity": 122}, {"time": 1448, "pitch": 54, "duration": 1, "velocity": 90}, {"time": 1451, "pitch": 61, "duration": 6, "velocity": 122}, {"time": 1454, "pitch": 57, "duration": 3, "velocity": 96}, {"time": 1457, "pitch": 37, "duration": 16, "velocity": 86}, {"time": 1460, "pitch": 44, "duration": 13, "velocity": 34}, {"time": 1463, "pitch": 49, "duration": 7, "velocity": 90}, {"time": 1466, "pitch": 56, "duration": 6, "velocity": 86}, {"time": 1469, "pitch": 64, "duration": 13, "velocity": 107}, {"time": 1472, "pitch": 49, "duration": 3, "velocity": 100}, {"time": 1475, "pitch": 61, "duration": 6, "velocity": 112}, {"time": 1478, "pitch": 56, "duration": 3, "velocity": 93}, {"time": 1481, "pitch": 45, "duration": 22, "velocity": 75}, {"time": 1484, "pitch": 52, "duration": 10, "velocity": 70}, {"time": 1487, "pitch": 57, "duration": 4, "velocity": 96}, {"time": 1490, "pitch": 61, "duration": 2, "velocity": 99}, {"time": 1490, "pitch": 64, "duration": 2, "velocity": 73}, {"time": 1493, "pitch": 61, "duration": 7, "velocity": 127}, {"time": 1493, "pitch": 64, "duration": 12, "velocity": 97}, {"time": 1496, "pitch": 52, "duration": 8, "velocity": 86}, {"time": 1499, "pitch": 57, "duration": 5, "velocity": 97}, {"time": 1502, "pitch": 61, "duration": 3, "velocity": 127}, {"time": 1505, "pitch": 47, "duration": 17, "velocity": 86}, {"time": 1508, "pitch": 54, "duration": 10, "velocity": 93}, {"time": 1511, "pitch": 59, "duration": 8, "velocity": 81}, {"time": 1514, "pitch": 63, "duration": 4, "velocity": 117}, {"time": 1517, "pitch": 66, "duration": 11, "velocity": 127}, {"time": 1520, "pitch": 54, "duration": 7, "velocity": 86}, {"time": 1523, "pitch": 63, "duration": 5, "velocity": 112}, {"time": 1526, "pitch": 59, "duration": 2, "velocity": 90}, {"time": 1529, "pitch": 49, "duration": 18, "velocity": 93}, {"time": 1532, "pitch": 61, "duration": 4, "velocity": 48}, {"time": 1535, "pitch": 64, "duration": 5, "velocity": 41}, {"time": 1538, "pitch": 61, "duration": 4, "velocity": 19}, {"time": 1541, "pitch": 68, "duration": 1, "velocity": 97}, {"time": 1547, "pitch": 47, "duration": 22, "velocity": 68}, {"time": 1547, "pitch": 59, "duration": 21, "velocity": 77}, {"time": 1547, "pitch": 63, "duration": 17, "velocity": 90}, {"time": 1547, "pitch": 66, "duration": 13, "velocity": 88}, {"time": 1565, "pitch": 66, "duration": 8, "velocity": 95}, {"time": 1568, "pitch": 63, "duration": 5, "velocity": 43}, {"time": 1571, "pitch": 59, "duration": 2, "velocity": 59}, {"time": 1577, "pitch": 49, "duration": 16, "velocity": 89}, {"time": 1583, "pitch": 56, "duration": 9, "velocity": 62}, {"time": 1589, "pitch": 64, "duration": 12, "velocity": 81}, {"time": 1589, "pitch": 68, "duration": 12, "velocity": 93}, {"time": 1595, "pitch": 61, "duration": 8, "velocity": 59}, {"time": 1601, "pitch": 47, "duration": 16, "velocity": 69}, {"time": 1607, "pitch": 54, "duration": 8, "velocity": 69}, {"time": 1613, "pitch": 63, "duration": 13, "velocity": 88}, {"time": 1613, "pitch": 66, "duration": 12, "velocity": 95}, {"time": 1619, "pitch": 59, "duration": 7, "velocity": 72}, {"time": 1625, "pitch": 44, "duration": 22, "velocity": 90}, {"time": 1631, "pitch": 56, "duration": 17, "velocity": 89}, {"time": 1637, "pitch": 63, "duration": 7, "velocity": 95}, {"time": 1637, "pitch": 68, "duration": 7, "velocity": 100}, {"time": 1643, "pitch": 59, "duration": 8, "velocity": 76}, {"time": 1646, "pitch": 63, "duration": 6, "velocity": 34}, {"time": 1649, "pitch": 44, "duration": 19, "velocity": 83}, {"time": 1655, "pitch": 56, "duration": 8, "velocity": 83}, {"time": 1661, "pitch": 60, "duration": 13, "velocity": 97}, {"time": 1661, "pitch": 63, "duration": 12, "velocity": 127}, {"time": 1667, "pitch": 56, "duration": 1, "velocity": 99}, {"time": 1673, "pitch": 45, "duration": 17, "velocity": 93}, {"time": 1679, "pitch": 52, "duration": 8, "velocity": 59}, {"time": 1685, "pitch": 61, "duration": 13, "velocity": 112}, {"time": 1685, "pitch": 64, "duration": 13, "velocity": 89}, {"time": 1688, "pitch": 52, "duration": 2, "velocity": 67}, {"time": 1691, "pitch": 57, "duration": 7, "velocity": 92}, {"time": 1697, "pitch": 42, "duration": 15, "velocity": 95}, {"time": 1703, "pitch": 49, "duration": 9, "velocity": 36}, {"time": 1709, "pitch": 54, "duration": 5, "velocity": 68}, {"time": 1709, "pitch": 61, "duration": 12, "velocity": 102}, {"time": 1709, "pitch": 66, "duration": 12, "velocity": 107}, {"time": 1715, "pitch": 57, "duration": 6, "velocity": 81}, {"time": 1721, "pitch": 47, "duration": 16, "velocity": 86}, {"time": 1727, "pitch": 54, "duration": 9, "velocity": 82}, {"time": 1733, "pitch": 63, "duration": 12, "velocity": 112}, {"time": 1733, "pitch": 66, "duration": 12, "velocity": 107}, {"time": 1739, "pitch": 59, "duration": 6, "velocity": 85}, {"time": 1745, "pitch": 44, "duration": 19, "velocity": 97}, {"time": 1751, "pitch": 51, "duration": 7, "velocity": 45}, {"time": 1757, "pitch": 56, "duration": 7, "velocity": 95}, {"time": 1757, "pitch": 60, "duration": 12, "velocity": 92}, {"time": 1757, "pitch": 63, "duration": 12, "velocity": 112}, {"time": 1769, "pitch": 37, "duration": 8, "velocity": 95}, {"time": 1775, "pitch": 56, "duration": 8, "velocity": 53}, {"time": 1775, "pitch": 61, "duration": 9, "velocity": 61}, {"time": 1775, "pitch": 64, "duration": 11, "velocity": 66}, {"time": 1778, "pitch": 37, "duration": 1, "velocity": 85}, {"time": 1781, "pitch": 37, "duration": 6, "velocity": 92}, {"time": 1784, "pitch": 56, "duration": 4, "velocity": 40}, {"time": 1787, "pitch": 61, "duration": 5, "velocity": 77}, {"time": 1787, "pitch": 64, "duration": 6, "velocity": 82}, {"time": 1790, "pitch": 56, "duration": 4, "velocity": 68}, {"time": 1793, "pitch": 44, "duration": 8, "velocity": 63}, {"time": 1799, "pitch": 56, "duration": 3, "velocity": 56}, {"time": 1799, "pitch": 59, "duration": 7, "velocity": 60}, {"time": 1799, "pitch": 63, "duration": 10, "velocity": 69}, {"time": 1802, "pitch": 44, "duration": 1, "velocity": 70}, {"time": 1805, "pitch": 44, "duration": 6, "velocity": 92}, {"time": 1808, "pitch": 56, "duration": 4, "velocity": 82}, {"time": 1811, "pitch": 59, "duration": 5, "velocity": 69}, {"time": 1811, "pitch": 63, "duration": 6, "velocity": 82}, {"time": 1814, "pitch": 56, "duration": 4, "velocity": 53}, {"time": 1817, "pitch": 37, "duration": 8, "velocity": 89}, {"time": 1820, "pitch": 56, "duration": 11, "velocity": 47}, {"time": 1823, "pitch": 61, "duration": 8, "velocity": 67}, {"time": 1823, "pitch": 64, "duration": 10, "velocity": 72}, {"time": 1826, "pitch": 37, "duration": 1, "velocity": 65}, {"time": 1829, "pitch": 37, "duration": 6, "velocity": 82}, {"time": 1832, "pitch": 56, "duration": 4, "velocity": 67}, {"time": 1835, "pitch": 61, "duration": 5, "velocity": 65}, {"time": 1835, "pitch": 64, "duration": 6, "velocity": 76}, {"time": 1838, "pitch": 56, "duration": 5, "velocity": 61}, {"time": 1841, "pitch": 44, "duration": 8, "velocity": 90}, {"time": 1844, "pitch": 56, "duration": 4, "velocity": 67}, {"time": 1847, "pitch": 59, "duration": 7, "velocity": 68}, {"time": 1847, "pitch": 63, "duration": 10, "velocity": 86}, {"time": 1850, "pitch": 44, "duration": 2, "velocity": 79}, {"time": 1853, "pitch": 44, "duration": 11, "velocity": 99}, {"time": 1856, "pitch": 56, "duration": 4, "velocity": 63}, {"time": 1859, "pitch": 59, "duration": 5, "velocity": 69}, {"time": 1859, "pitch": 63, "duration": 6, "velocity": 89}, {"time": 1865, "pitch": 37, "duration": 7, "velocity": 86}, {"time": 1868, "pitch": 56, "duration": 4, "velocity": 65}, {"time": 1871, "pitch": 61, "duration": 7, "velocity": 73}, {"time": 1874, "pitch": 37, "duration": 1, "velocity": 93}, {"time": 1874, "pitch": 56, "duration": 4, "velocity": 23}, {"time": 1877, "pitch": 37, "duration": 11, "velocity": 56}, {"time": 1877, "pitch": 49, "duration": 10, "velocity": 77}, {"time": 1880, "pitch": 56, "duration": 4, "velocity": 81}, {"time": 1883, "pitch": 64, "duration": 10, "velocity": 95}, {"time": 1886, "pitch": 56, "duration": 5, "velocity": 102}, {"time": 1889, "pitch": 37, "duration": 8, "velocity": 86}, {"time": 1892, "pitch": 56, "duration": 10, "velocity": 67}, {"time": 1895, "pitch": 64, "duration": 9, "velocity": 85}, {"time": 1898, "pitch": 37, "duration": 1, "velocity": 92}, {"time": 1901, "pitch": 37, "duration": 5, "velocity": 79}, {"time": 1904, "pitch": 56, "duration": 7, "velocity": 97}, {"time": 1907, "pitch": 64, "duration": 7, "velocity": 89}, {"time": 1910, "pitch": 61, "duration": 4, "velocity": 85}, {"time": 1913, "pitch": 45, "duration": 8, "velocity": 78}, {"time": 1916, "pitch": 52, "duration": 6, "velocity": 49}, {"time": 1919, "pitch": 61, "duration": 10, "velocity": 92}, {"time": 1919, "pitch": 64, "duration": 10, "velocity": 88}, {"time": 1922, "pitch": 45, "duration": 10, "velocity": 85}, {"time": 1925, "pitch": 52, "duration": 6, "velocity": 88}, {"time": 1928, "pitch": 57, "duration": 8, "velocity": 70}, {"time": 1931, "pitch": 64, "duration": 6, "velocity": 95}, {"time": 1934, "pitch": 61, "duration": 3, "velocity": 96}, {"time": 1937, "pitch": 40, "duration": 7, "velocity": 75}, {"time": 1940, "pitch": 59, "duration": 10, "velocity": 66}, {"time": 1943, "pitch": 64, "duration": 7, "velocity": 86}, {"time": 1943, "pitch": 68, "duration": 9, "velocity": 97}, {"time": 1946, "pitch": 40, "duration": 1, "velocity": 39}, {"time": 1949, "pitch": 40, "duration": 6, "velocity": 86}, {"time": 1952, "pitch": 59, "duration": 10, "velocity": 79}, {"time": 1955, "pitch": 68, "duration": 6, "velocity": 122}, {"time": 1958, "pitch": 64, "duration": 3, "velocity": 68}, {"time": 1961, "pitch": 45, "duration": 8, "velocity": 77}, {"time": 1964, "pitch": 57, "duration": 10, "velocity": 78}, {"time": 1967, "pitch": 61, "duration": 9, "velocity": 90}, {"time": 1967, "pitch": 64, "duration": 8, "velocity": 90}, {"time": 1970, "pitch": 45, "duration": 1, "velocity": 66}, {"time": 1973, "pitch": 45, "duration": 10, "velocity": 79}, {"time": 1976, "pitch": 57, "duration": 8, "velocity": 82}, {"time": 1979, "pitch": 64, "duration": 5, "velocity": 92}, {"time": 1982, "pitch": 61, "duration": 4, "velocity": 95}, {"time": 1985, "pitch": 47, "duration": 8, "velocity": 76}, {"time": 1988, "pitch": 59, "duration": 14, "velocity": 71}, {"time": 1991, "pitch": 63, "duration": 10, "velocity": 83}, {"time": 1991, "pitch": 66, "duration": 11, "velocity": 90}, {"time": 1994, "pitch": 47, "duration": 1, "velocity": 72}, {"time": 1997, "pitch": 47, "duration": 4, "velocity": 76}, {"time": 2000, "pitch": 54, "duration": 5, "velocity": 92}, {"time": 2003, "pitch": 63, "duration": 5, "velocity": 96}, {"time": 2003, "pitch": 66, "duration": 5, "velocity": 93}, {"time": 2006, "pitch": 59, "duration": 4, "velocity": 72}, {"time": 2009, "pitch": 40, "duration": 8, "velocity": 76}, {"time": 2012, "pitch": 59, "duration": 10, "velocity": 82}, {"time": 2015, "pitch": 64, "duration": 7, "velocity": 81}, {"time": 2015, "pitch": 68, "duration": 7, "velocity": 95}, {"time": 2018, "pitch": 47, "duration": 2, "velocity": 76}, {"time": 2021, "pitch": 40, "duration": 8, "velocity": 81}, {"time": 2024, "pitch": 59, "duration": 4, "velocity": 81}, {"time": 2027, "pitch": 64, "duration": 5, "velocity": 86}, {"time": 2027, "pitch": 68, "duration": 5, "velocity": 97}, {"time": 2030, "pitch": 59, "duration": 3, "velocity": 75}, {"time": 2033, "pitch": 44, "duration": 7, "velocity": 100}, {"time": 2036, "pitch": 56, "duration": 10, "velocity": 86}, {"time": 2039, "pitch": 60, "duration": 7, "velocity": 71}, {"time": 2039, "pitch": 63, "duration": 7, "velocity": 97}, {"time": 2042, "pitch": 44, "duration": 1, "velocity": 99}, {"time": 2045, "pitch": 44, "duration": 7, "velocity": 92}, {"time": 2048, "pitch": 56, "duration": 4, "velocity": 92}, {"time": 2051, "pitch": 60, "duration": 5, "velocity": 79}, {"time": 2051, "pitch": 63, "duration": 6, "velocity": 97}, {"time": 2054, "pitch": 56, "duration": 2, "velocity": 72}, {"time": 2057, "pitch": 49, "duration": 7, "velocity": 89}, {"time": 2060, "pitch": 61, "duration": 4, "velocity": 75}, {"time": 2063, "pitch": 64, "duration": 7, "velocity": 72}, {"time": 2063, "pitch": 68, "duration": 7, "velocity": 93}, {"time": 2066, "pitch": 49, "duration": 1, "velocity": 81}, {"time": 2069, "pitch": 49, "duration": 11, "velocity": 86}, {"time": 2072, "pitch": 61, "duration": 9, "velocity": 82}, {"time": 2075, "pitch": 68, "duration": 8, "velocity": 112}, {"time": 2078, "pitch": 64, "duration": 5, "velocity": 69}, {"time": 2081, "pitch": 49, "duration": 8, "velocity": 85}, {"time": 2084, "pitch": 61, "duration": 9, "velocity": 66}, {"time": 2087, "pitch": 68, "duration": 7, "velocity": 112}, {"time": 2090, "pitch": 49, "duration": 1, "velocity": 67}, {"time": 2093, "pitch": 49, "duration": 7, "velocity": 95}, {"time": 2096, "pitch": 61, "duration": 4, "velocity": 93}, {"time": 2099, "pitch": 68, "duration": 4, "velocity": 122}, {"time": 2102, "pitch": 61, "duration": 3, "velocity": 88}, {"time": 2105, "pitch": 45, "duration": 8, "velocity": 72}, {"time": 2108, "pitch": 57, "duration": 10, "velocity": 77}, {"time": 2111, "pitch": 64, "duration": 7, "velocity": 95}, {"time": 2114, "pitch": 45, "duration": 1, "velocity": 82}, {"time": 2117, "pitch": 45, "duration": 7, "velocity": 90}, {"time": 2120, "pitch": 57, "duration": 8, "velocity": 86}, {"time": 2123, "pitch": 64, "duration": 5, "velocity": 89}, {"time": 2126, "pitch": 61, "duration": 2, "velocity": 96}, {"time": 2129, "pitch": 40, "duration": 8, "velocity": 71}, {"time": 2132, "pitch": 59, "duration": 10, "velocity": 73}, {"time": 2135, "pitch": 68, "duration": 9, "velocity": 99}, {"time": 2138, "pitch": 40, "duration": 1, "velocity": 78}, {"time": 2141, "pitch": 40, "duration": 8, "velocity": 61}, {"time": 2144, "pitch": 59, "duration": 9, "velocity": 82}, {"time": 2147, "pitch": 68, "duration": 5, "velocity": 117}, {"time": 2150, "pitch": 64, "duration": 2, "velocity": 93}, {"time": 2153, "pitch": 45, "duration": 7, "velocity": 79}, {"time": 2156, "pitch": 57, "duration": 11, "velocity": 76}, {"time": 2159, "pitch": 64, "duration": 10, "velocity": 93}, {"time": 2162, "pitch": 45, "duration": 1, "velocity": 72}, {"time": 2165, "pitch": 45, "duration": 10, "velocity": 78}, {"time": 2168, "pitch": 57, "duration": 9, "velocity": 72}, {"time": 2171, "pitch": 64, "duration": 6, "velocity": 96}, {"time": 2174, "pitch": 61, "duration": 2, "velocity": 95}, {"time": 2177, "pitch": 44, "duration": 7, "velocity": 81}, {"time": 2180, "pitch": 56, "duration": 10, "velocity": 81}, {"time": 2183, "pitch": 63, "duration": 8, "velocity": 107}, {"time": 2186, "pitch": 44, "duration": 1, "velocity": 81}, {"time": 2189, "pitch": 44, "duration": 7, "velocity": 82}, {"time": 2192, "pitch": 56, "duration": 4, "velocity": 82}, {"time": 2195, "pitch": 63, "duration": 4, "velocity": 107}, {"time": 2198, "pitch": 56, "duration": 2, "velocity": 82}, {"time": 2201, "pitch": 42, "duration": 11, "velocity": 90}, {"time": 2204, "pitch": 54, "duration": 4, "velocity": 71}, {"time": 2207, "pitch": 61, "duration": 5, "velocity": 117}, {"time": 2210, "pitch": 54, "duration": 2, "velocity": 102}, {"time": 2213, "pitch": 47, "duration": 7, "velocity": 70}, {"time": 2216, "pitch": 59, "duration": 8, "velocity": 82}, {"time": 2219, "pitch": 66, "duration": 6, "velocity": 107}, {"time": 2222, "pitch": 63, "duration": 2, "velocity": 97}, {"time": 2225, "pitch": 37, "duration": 24, "velocity": 95}, {"time": 2228, "pitch": 49, "duration": 10, "velocity": 86}, {"time": 2231, "pitch": 61, "duration": 9, "velocity": 89}, {"time": 2234, "pitch": 64, "duration": 4, "velocity": 56}, {"time": 2237, "pitch": 68, "duration": 12, "velocity": 122}, {"time": 2240, "pitch": 49, "duration": 9, "velocity": 96}, {"time": 2243, "pitch": 64, "duration": 6, "velocity": 61}, {"time": 2246, "pitch": 61, "duration": 3, "velocity": 99}, {"time": 2249, "pitch": 42, "duration": 18, "velocity": 97}, {"time": 2255, "pitch": 49, "duration": 11, "velocity": 38}, {"time": 2261, "pitch": 66, "duration": 12, "velocity": 127}, {"time": 2267, "pitch": 61, "duration": 5, "velocity": 96}, {"time": 2270, "pitch": 57, "duration": 3, "velocity": 82}, {"time": 2273, "pitch": 47, "duration": 16, "velocity": 90}, {"time": 2279, "pitch": 54, "duration": 9, "velocity": 85}, {"time": 2285, "pitch": 66, "duration": 12, "velocity": 127}, {"time": 2291, "pitch": 63, "duration": 5, "velocity": 95}, {"time": 2297, "pitch": 37, "duration": 13, "velocity": 97}, {"time": 2303, "pitch": 49, "duration": 10, "velocity": 83}, {"time": 2309, "pitch": 64, "duration": 12, "velocity": 99}, {"time": 2309, "pitch": 68, "duration": 12, "velocity": 117}, {"time": 2315, "pitch": 61, "duration": 6, "velocity": 66}, {"time": 2321, "pitch": 44, "duration": 17, "velocity": 99}, {"time": 2327, "pitch": 51, "duration": 10, "velocity": 26}, {"time": 2333, "pitch": 56, "duration": 5, "velocity": 66}, {"time": 2333, "pitch": 63, "duration": 11, "velocity": 107}, {"time": 2333, "pitch": 68, "duration": 12, "velocity": 112}, {"time": 2339, "pitch": 59, "duration": 5, "velocity": 93}, {"time": 2345, "pitch": 45, "duration": 20, "velocity": 92}, {"time": 2351, "pitch": 52, "duration": 9, "velocity": 67}, {"time": 2357, "pitch": 57, "duration": 6, "velocity": 88}, {"time": 2357, "pitch": 69, "duration": 12, "velocity": 107}, {"time": 2357, "pitch": 73, "duration": 13, "velocity": 112}, {"time": 2363, "pitch": 52, "duration": 5, "velocity": 92}, {"time": 2366, "pitch": 64, "duration": 3, "velocity": 89}, {"time": 2369, "pitch": 47, "duration": 18, "velocity": 93}, {"time": 2375, "pitch": 54, "duration": 7, "velocity": 90}, {"time": 2381, "pitch": 63, "duration": 7, "velocity": 127}, {"time": 2381, "pitch": 66, "duration": 10, "velocity": 127}, {"time": 2384, "pitch": 54, "duration": 2, "velocity": 97}, {"time": 2387, "pitch": 59, "duration": 8, "velocity": 97}, {"time": 2390, "pitch": 63, "duration": 3, "velocity": 127}, {"time": 2393, "pitch": 40, "duration": 17, "velocity": 89}, {"time": 2399, "pitch": 47, "duration": 10, "velocity": 72}, {"time": 2405, "pitch": 52, "duration": 8, "velocity": 95}, {"time": 2408, "pitch": 68, "duration": 9, "velocity": 117}, {"time": 2411, "pitch": 64, "duration": 5, "velocity": 89}, {"time": 2414, "pitch": 59, "duration": 3, "velocity": 88}, {"time": 2417, "pitch": 44, "duration": 18, "velocity": 93}, {"time": 2420, "pitch": 51, "duration": 15, "velocity": 90}, {"time": 2423, "pitch": 56, "duration": 7, "velocity": 117}, {"time": 2426, "pitch": 60, "duration": 4, "velocity": 89}, {"time": 2429, "pitch": 63, "duration": 7, "velocity": 127}, {"time": 2429, "pitch": 68, "duration": 12, "velocity": 127}, {"time": 2432, "pitch": 56, "duration": 2, "velocity": 122}, {"time": 2435, "pitch": 60, "duration": 5, "velocity": 107}, {"time": 2438, "pitch": 63, "duration": 3, "velocity": 127}, {"time": 2441, "pitch": 49, "duration": 17, "velocity": 90}, {"time": 2444, "pitch": 56, "duration": 10, "velocity": 112}, {"time": 2447, "pitch": 61, "duration": 6, "velocity": 100}, {"time": 2450, "pitch": 64, "duration": 2, "velocity": 100}, {"time": 2453, "pitch": 68, "duration": 10, "velocity": 127}, {"time": 2456, "pitch": 56, "duration": 2, "velocity": 107}, {"time": 2459, "pitch": 61, "duration": 6, "velocity": 127}, {"time": 2462, "pitch": 64, "duration": 3, "velocity": 96}, {"time": 2465, "pitch": 44, "duration": 17, "velocity": 95}, {"time": 2468, "pitch": 51, "duration": 13, "velocity": 76}, {"time": 2471, "pitch": 56, "duration": 7, "velocity": 100}, {"time": 2474, "pitch": 59, "duration": 7, "velocity": 93}, {"time": 2477, "pitch": 68, "duration": 11, "velocity": 127}, {"time": 2480, "pitch": 56, "duration": 2, "velocity": 92}, {"time": 2483, "pitch": 63, "duration": 6, "velocity": 122}, {"time": 2486, "pitch": 59, "duration": 4, "velocity": 100}, {"time": 2489, "pitch": 42, "duration": 16, "velocity": 93}, {"time": 2492, "pitch": 49, "duration": 12, "velocity": 33}, {"time": 2495, "pitch": 54, "duration": 7, "velocity": 99}, {"time": 2498, "pitch": 57, "duration": 7, "velocity": 95}, {"time": 2501, "pitch": 66, "duration": 12, "velocity": 127}, {"time": 2504, "pitch": 54, "duration": 3, "velocity": 100}, {"time": 2507, "pitch": 61, "duration": 6, "velocity": 122}, {"time": 2510, "pitch": 57, "duration": 3, "velocity": 112}, {"time": 2513, "pitch": 49, "duration": 17, "velocity": 85}, {"time": 2516, "pitch": 56, "duration": 10, "velocity": 90}, {"time": 2519, "pitch": 61, "duration": 7, "velocity": 95}, {"time": 2522, "pitch": 64, "duration": 3, "velocity": 88}, {"time": 2525, "pitch": 68, "duration": 12, "velocity": 127}, {"time": 2528, "pitch": 56, "duration": 2, "velocity": 93}, {"time": 2531, "pitch": 61, "duration": 6, "velocity": 112}, {"time": 2534, "pitch": 64, "duration": 3, "velocity": 86}, {"time": 2537, "pitch": 45, "duration": 22, "velocity": 92}, {"time": 2540, "pitch": 52, "duration": 10, "velocity": 59}, {"time": 2543, "pitch": 57, "duration": 3, "velocity": 93}, {"time": 2546, "pitch": 61, "duration": 3, "velocity": 122}, {"time": 2549, "pitch": 64, "duration": 12, "velocity": 99}, {"time": 2552, "pitch": 52, "duration": 8, "velocity": 95}, {"time": 2555, "pitch": 61, "duration": 6, "velocity": 117}, {"time": 2558, "pitch": 57, "duration": 3, "velocity": 97}, {"time": 2561, "pitch": 47, "duration": 17, "velocity": 81}, {"time": 2564, "pitch": 54, "duration": 11, "velocity": 95}, {"time": 2567, "pitch": 59, "duration": 8, "velocity": 88}, {"time": 2570, "pitch": 63, "duration": 4, "velocity": 107}, {"time": 2573, "pitch": 66, "duration": 9, "velocity": 122}, {"time": 2576, "pitch": 54, "duration": 2, "velocity": 92}, {"time": 2579, "pitch": 63, "duration": 3, "velocity": 127}, {"time": 2582, "pitch": 59, "duration": 5, "velocity": 99}, {"time": 2585, "pitch": 40, "duration": 16, "velocity": 90}, {"time": 2588, "pitch": 47, "duration": 13, "velocity": 76}, {"time": 2591, "pitch": 52, "duration": 7, "velocity": 95}, {"time": 2594, "pitch": 59, "duration": 6, "velocity": 102}, {"time": 2597, "pitch": 68, "duration": 12, "velocity": 127}, {"time": 2600, "pitch": 52, "duration": 3, "velocity": 90}, {"time": 2603, "pitch": 64, "duration": 5, "velocity": 93}, {"time": 2606, "pitch": 59, "duration": 3, "velocity": 97}, {"time": 2609, "pitch": 44, "duration": 19, "velocity": 96}, {"time": 2612, "pitch": 51, "duration": 15, "velocity": 38}, {"time": 2615, "pitch": 56, "duration": 7, "velocity": 102}, {"time": 2618, "pitch": 60, "duration": 4, "velocity": 100}, {"time": 2621, "pitch": 63, "duration": 7, "velocity": 127}, {"time": 2621, "pitch": 68, "duration": 12, "velocity": 127}, {"time": 2624, "pitch": 56, "duration": 3, "velocity": 112}, {"time": 2627, "pitch": 60, "duration": 5, "velocity": 102}, {"time": 2630, "pitch": 63, "duration": 3, "velocity": 127}, {"time": 2633, "pitch": 37, "duration": 16, "velocity": 88}, {"time": 2636, "pitch": 44, "duration": 14, "velocity": 82}, {"time": 2639, "pitch": 49, "duration": 6, "velocity": 92}, {"time": 2642, "pitch": 61, "duration": 4, "velocity": 90}, {"time": 2645, "pitch": 64, "duration": 6, "velocity": 86}, {"time": 2645, "pitch": 68, "duration": 11, "velocity": 127}, {"time": 2648, "pitch": 49, "duration": 3, "velocity": 100}, {"time": 2651, "pitch": 61, "duration": 6, "velocity": 112}, {"time": 2654, "pitch": 64, "duration": 3, "velocity": 90}, {"time": 2657, "pitch": 47, "duration": 17, "velocity": 78}, {"time": 2660, "pitch": 54, "duration": 10, "velocity": 107}, {"time": 2663, "pitch": 59, "duration": 4, "velocity": 92}, {"time": 2666, "pitch": 63, "duration": 3, "velocity": 102}, {"time": 2669, "pitch": 66, "duration": 11, "velocity": 122}, {"time": 2672, "pitch": 54, "duration": 2, "velocity": 96}, {"time": 2675, "pitch": 63, "duration": 5, "velocity": 112}, {"time": 2678, "pitch": 59, "duration": 3, "velocity": 99}, {"time": 2681, "pitch": 42, "duration": 16, "velocity": 72}, {"time": 2684, "pitch": 49, "duration": 12, "velocity": 32}, {"time": 2687, "pitch": 54, "duration": 6, "velocity": 95}, {"time": 2690, "pitch": 57, "duration": 7, "velocity": 90}, {"time": 2693, "pitch": 66, "duration": 11, "velocity": 122}, {"time": 2696, "pitch": 54, "duration": 1, "velocity": 90}, {"time": 2699, "pitch": 61, "duration": 6, "velocity": 122}, {"time": 2702, "pitch": 57, "duration": 3, "velocity": 96}, {"time": 2705, "pitch": 37, "duration": 16, "velocity": 86}, {"time": 2708, "pitch": 44, "duration": 13, "velocity": 34}, {"time": 2711, "pitch": 49, "duration": 7, "velocity": 90}, {"time": 2714, "pitch": 56, "duration": 6, "velocity": 86}, {"time": 2717, "pitch": 64, "duration": 13, "velocity": 107}, {"time": 2720, "pitch": 49, "duration": 3, "velocity": 100}, {"time": 2723, "pitch": 61, "duration": 6, "velocity": 112}, {"time": 2726, "pitch": 56, "duration": 3, "velocity": 93}, {"time": 2729, "pitch": 45, "duration": 22, "velocity": 75}, {"time": 2732, "pitch": 52, "duration": 10, "velocity": 70}, {"time": 2735, "pitch": 57, "duration": 4, "velocity": 96}, {"time": 2738, "pitch": 61, "duration": 2, "velocity": 99}, {"time": 2738, "pitch": 64, "duration": 2, "velocity": 73}, {"time": 2741, "pitch": 61, "duration": 7, "velocity": 127}, {"time": 2741, "pitch": 64, "duration": 12, "velocity": 97}, {"time": 2744, "pitch": 52, "duration": 8, "velocity": 86}, {"time": 2747, "pitch": 57, "duration": 5, "velocity": 97}, {"time": 2750, "pitch": 61, "duration": 3, "velocity": 127}, {"time": 2753, "pitch": 47, "duration": 17, "velocity": 86}, {"time": 2756, "pitch": 54, "duration": 10, "velocity": 93}, {"time": 2759, "pitch": 59, "duration": 8, "velocity": 81}, {"time": 2762, "pitch": 63, "duration": 4, "velocity": 117}, {"time": 2765, "pitch": 66, "duration": 11, "velocity": 127}, {"time": 2768, "pitch": 54, "duration": 7, "velocity": 86}, {"time": 2771, "pitch": 63, "duration": 5, "velocity": 112}, {"time": 2774, "pitch": 59, "duration": 2, "velocity": 90}, {"time": 2777, "pitch": 37, "duration": 12, "velocity": 97}, {"time": 2780, "pitch": 49, "duration": 11, "velocity": 90}, {"time": 2783, "pitch": 56, "duration": 5, "velocity": 83}, {"time": 2786, "pitch": 61, "duration": 3, "velocity": 74}, {"time": 2789, "pitch": 64, "duration": 3, "velocity": 102}, {"time": 2792, "pitch": 56, "duration": 4, "velocity": 88}, {"time": 2795, "pitch": 44, "duration": 2, "velocity": 92}, {"time": 2795, "pitch": 59, "duration": 1, "velocity": 69}, {"time": 2795, "pitch": 63, "duration": 1, "velocity": 102}, {"time": 2798, "pitch": 44, "duration": 16, "velocity": 100}, {"time": 2798, "pitch": 56, "duration": 14, "velocity": 122}, {"time": 2798, "pitch": 59, "duration": 13, "velocity": 117}, {"time": 2798, "pitch": 63, "duration": 13, "velocity": 117}, {"time": 2813, "pitch": 56, "duration": 4, "velocity": 117}, {"time": 2813, "pitch": 59, "duration": 5, "velocity": 100}, {"time": 2813, "pitch": 63, "duration": 5, "velocity": 122}, {"time": 2816, "pitch": 44, "duration": 7, "velocity": 71}, {"time": 2819, "pitch": 56, "duration": 6, "velocity": 117}, {"time": 2819, "pitch": 59, "duration": 5, "velocity": 95}, {"time": 2819, "pitch": 63, "duration": 6, "velocity": 117}, {"time": 2825, "pitch": 49, "duration": 3, "velocity": 127}, {"time": 2825, "pitch": 56, "duration": 3, "velocity": 122}, {"time": 2825, "pitch": 61, "duration": 3, "velocity": 127}, {"time": 2825, "pitch": 64, "duration": 3, "velocity": 107}, {"time": 2843, "pitch": 42, "duration": 2, "velocity": 102}, {"time": 2843, "pitch": 54, "duration": 1, "velocity": 127}, {"time": 2846, "pitch": 44, "duration": 16, "velocity": 117}, {"time": 2846, "pitch": 56, "duration": 13, "velocity": 107}, {"time": 2846, "pitch": 59, "duration": 13, "velocity": 96}, {"time": 2846, "pitch": 63, "duration": 13, "velocity": 100}, {"time": 2861, "pitch": 56, "duration": 3, "velocity": 99}, {"time": 2861, "pitch": 59, "duration": 7, "velocity": 102}, {"time": 2861, "pitch": 63, "duration": 8, "velocity": 122}, {"time": 2864, "pitch": 44, "duration": 2, "velocity": 102}, {"time": 2867, "pitch": 56, "duration": 2, "velocity": 96}, {"time": 2873, "pitch": 42, "duration": 14, "velocity": 107}, {"time": 2873, "pitch": 57, "duration": 13, "velocity": 99}, {"time": 2873, "pitch": 61, "duration": 4, "velocity": 127}, {"time": 2879, "pitch": 54, "duration": 7, "velocity": 59}, {"time": 2885, "pitch": 61, "duration": 1, "velocity": 79}, {"time": 2885, "pitch": 66, "duration": 1, "velocity": 85}, {"time": 2891, "pitch": 42, "duration": 3, "velocity": 81}, {"time": 2891, "pitch": 54, "duration": 2, "velocity": 102}, {"time": 2891, "pitch": 57, "duration": 1, "velocity": 96}, {"time": 2891, "pitch": 61, "duration": 2, "velocity": 107}, {"time": 2891, "pitch": 66, "duration": 1, "velocity": 78}, {"time": 2894, "pitch": 49, "duration": 12, "velocity": 76}, {"time": 2894, "pitch": 56, "duration": 14, "velocity": 122}, {"time": 2894, "pitch": 61, "duration": 14, "velocity": 97}, {"time": 2894, "pitch": 64, "duration": 13, "velocity": 92}, {"time": 2906, "pitch": 49, "duration": 4, "velocity": 42}, {"time": 2909, "pitch": 56, "duration": 3, "velocity": 102}, {"time": 2909, "pitch": 61, "duration": 6, "velocity": 127}, {"time": 2909, "pitch": 64, "duration": 11, "velocity": 107}, {"time": 2912, "pitch": 49, "duration": 3, "velocity": 112}, {"time": 2915, "pitch": 56, "duration": 3, "velocity": 112}, {"time": 2918, "pitch": 61, "duration": 3, "velocity": 117}, {"time": 2921, "pitch": 45, "duration": 22, "velocity": 95}, {"time": 2924, "pitch": 52, "duration": 10, "velocity": 83}, {"time": 2927, "pitch": 57, "duration": 3, "velocity": 100}, {"time": 2930, "pitch": 61, "duration": 4, "velocity": 99}, {"time": 2933, "pitch": 69, "duration": 12, "velocity": 88}, {"time": 2936, "pitch": 52, "duration": 9, "velocity": 99}, {"time": 2939, "pitch": 61, "duration": 6, "velocity": 97}, {"time": 2942, "pitch": 64, "duration": 3, "velocity": 73}, {"time": 2945, "pitch": 47, "duration": 17, "velocity": 82}, {"time": 2948, "pitch": 54, "duration": 10, "velocity": 99}, {"time": 2951, "pitch": 59, "duration": 8, "velocity": 88}, {"time": 2954, "pitch": 63, "duration": 4, "velocity": 127}, {"time": 2957, "pitch": 66, "duration": 11, "velocity": 122}, {"time": 2960, "pitch": 54, "duration": 2, "velocity": 95}, {"time": 2963, "pitch": 63, "duration": 5, "velocity": 127}, {"time": 2966, "pitch": 59, "duration": 4, "velocity": 100}, {"time": 2969, "pitch": 40, "duration": 16, "velocity": 74}, {"time": 2972, "pitch": 47, "duration": 13, "velocity": 70}, {"time": 2975, "pitch": 52, "duration": 7, "velocity": 99}, {"time": 2978, "pitch": 59, "duration": 7, "velocity": 99}, {"time": 2981, "pitch": 68, "duration": 12, "velocity": 127}, {"time": 2984, "pitch": 52, "duration": 2, "velocity": 107}, {"time": 2987, "pitch": 64, "duration": 6, "velocity": 102}, {"time": 2990, "pitch": 59, "duration": 3, "velocity": 117}, {"time": 2993, "pitch": 44, "duration": 17, "velocity": 97}, {"time": 2996, "pitch": 51, "duration": 13, "velocity": 78}, {"time": 2999, "pitch": 56, "duration": 6, "velocity": 96}, {"time": 3002, "pitch": 60, "duration": 2, "velocity": 60}, {"time": 3002, "pitch": 63, "duration": 2, "velocity": 107}, {"time": 3002, "pitch": 68, "duration": 2, "velocity": 97}, {"time": 3005, "pitch": 63, "duration": 6, "velocity": 127}, {"time": 3005, "pitch": 68, "duration": 13, "velocity": 107}, {"time": 3008, "pitch": 56, "duration": 1, "velocity": 112}, {"time": 3011, "pitch": 60, "duration": 7, "velocity": 117}, {"time": 3014, "pitch": 63, "duration": 4, "velocity": 127}, {"time": 3017, "pitch": 37, "duration": 17, "velocity": 90}, {"time": 3020, "pitch": 44, "duration": 14, "velocity": 72}, {"time": 3023, "pitch": 49, "duration": 7, "velocity": 107}, {"time": 3026, "pitch": 61, "duration": 2, "velocity": 100}, {"time": 3029, "pitch": 61, "duration": 1, "velocity": 40}, {"time": 3029, "pitch": 64, "duration": 4, "velocity": 97}, {"time": 3029, "pitch": 68, "duration": 11, "velocity": 127}, {"time": 3032, "pitch": 49, "duration": 3, "velocity": 102}, {"time": 3035, "pitch": 61, "duration": 6, "velocity": 127}, {"time": 3038, "pitch": 64, "duration": 3, "velocity": 89}, {"time": 3041, "pitch": 47, "duration": 16, "velocity": 81}, {"time": 3044, "pitch": 54, "duration": 10, "velocity": 99}, {"time": 3047, "pitch": 59, "duration": 7, "velocity": 96}, {"time": 3050, "pitch": 63, "duration": 4, "velocity": 122}, {"time": 3053, "pitch": 66, "duration": 12, "velocity": 127}, {"time": 3056, "pitch": 54, "duration": 2, "velocity": 86}, {"time": 3059, "pitch": 63, "duration": 6, "velocity": 102}, {"time": 3062, "pitch": 59, "duration": 4, "velocity": 92}, {"time": 3065, "pitch": 42, "duration": 16, "velocity": 92}, {"time": 3068, "pitch": 49, "duration": 13, "velocity": 55}, {"time": 3071, "pitch": 54, "duration": 6, "velocity": 96}, {"time": 3074, "pitch": 57, "duration": 7, "velocity": 100}, {"time": 3077, "pitch": 66, "duration": 9, "velocity": 127}, {"time": 3080, "pitch": 54, "duration": 1, "velocity": 95}, {"time": 3083, "pitch": 61, "duration": 4, "velocity": 117}, {"time": 3086, "pitch": 57, "duration": 3, "velocity": 102}, {"time": 3089, "pitch": 37, "duration": 17, "velocity": 81}, {"time": 3092, "pitch": 44, "duration": 13, "velocity": 34}, {"time": 3095, "pitch": 49, "duration": 7, "velocity": 90}, {"time": 3098, "pitch": 56, "duration": 5, "velocity": 99}, {"time": 3101, "pitch": 64, "duration": 12, "velocity": 100}, {"time": 3104, "pitch": 49, "duration": 4, "velocity": 99}, {"time": 3107, "pitch": 56, "duration": 4, "velocity": 107}, {"time": 3110, "pitch": 61, "duration": 4, "velocity": 112}, {"time": 3113, "pitch": 45, "duration": 21, "velocity": 83}, {"time": 3116, "pitch": 52, "duration": 9, "velocity": 90}, {"time": 3119, "pitch": 57, "duration": 6, "velocity": 86}, {"time": 3122, "pitch": 61, "duration": 3, "velocity": 107}, {"time": 3125, "pitch": 64, "duration": 11, "velocity": 102}, {"time": 3128, "pitch": 52, "duration": 8, "velocity": 79}, {"time": 3131, "pitch": 61, "duration": 6, "velocity": 107}, {"time": 3134, "pitch": 57, "duration": 3, "velocity": 92}, {"time": 3137, "pitch": 47, "duration": 19, "velocity": 77}, {"time": 3140, "pitch": 54, "duration": 10, "velocity": 85}, {"time": 3143, "pitch": 59, "duration": 8, "velocity": 76}, {"time": 3146, "pitch": 63, "duration": 5, "velocity": 102}, {"time": 3149, "pitch": 66, "duration": 12, "velocity": 112}, {"time": 3152, "pitch": 54, "duration": 3, "velocity": 83}, {"time": 3155, "pitch": 59, "duration": 5, "velocity": 95}, {"time": 3158, "pitch": 63, "duration": 3, "velocity": 112}, {"time": 3161, "pitch": 37, "duration": 10, "velocity": 92}, {"time": 3167, "pitch": 49, "duration": 5, "velocity": 44}, {"time": 3167, "pitch": 61, "duration": 5, "velocity": 58}, {"time": 3173, "pitch": 61, "duration": 1, "velocity": 74}, {"time": 3173, "pitch": 68, "duration": 1, "velocity": 55}, {"time": 3173, "pitch": 64, "duration": 1, "velocity": 57}, {"time": 3178, "pitch": 66, "duration": 26, "velocity": 97}, {"time": 3178, "pitch": 63, "duration": 26, "velocity": 102}, {"time": 3178, "pitch": 59, "duration": 29, "velocity": 86}, {"time": 3178, "pitch": 54, "duration": 23, "velocity": 69}, {"time": 3179, "pitch": 47, "duration": 23, "velocity": 61}, {"time": 3209, "pitch": 45, "duration": 10, "velocity": 75}, {"time": 3209, "pitch": 61, "duration": 10, "velocity": 96}, {"time": 3209, "pitch": 64, "duration": 10, "velocity": 83}, {"time": 3209, "pitch": 57, "duration": 12, "velocity": 96}, {"time": 3227, "pitch": 44, "duration": 29, "velocity": 74}, {"time": 3227, "pitch": 56, "duration": 31, "velocity": 90}, {"time": 3227, "pitch": 63, "duration": 32, "velocity": 89}, {"time": 3227, "pitch": 59, "duration": 31, "velocity": 82}, {"time": 3279, "pitch": 61, "duration": 41, "velocity": 59}, {"time": 3280, "pitch": 37, "duration": 41, "velocity": 35}, {"time": 3280, "pitch": 64, "duration": 40, "velocity": 63}, {"time": 3280, "pitch": 68, "duration": 40, "velocity": 47}, {"time": 3281, "pitch": 44, "duration": 39, "velocity": 26}, {"time": 3281, "pitch": 49, "duration": 39, "velocity": 96}, {"time": 3282, "pitch": 73, "duration": 39, "velocity": 81}], "annotations": [{"time": 16, "annotation": {"number": 64, "value": 127}, "group": "control_change"}, {"time": 40, "annotation": {"number": 64, "value": 0}, "group": "control_change"}, {"time": 43, "annotation": {"number": 64, "value": 127}, "group": "control_change"}, {"time": 64, "annotation": {"number": 64, "value": 0}, "group": "control_change"}, {"time": 65, "annotation": {"number": 64, "value": 127}, "group": "control_change"}, {"time": 87, "annotation": {"number": 64, "value": 0}, "group": "control_change"}, {"time": 88, "annotation": {"number": 64, "value": 127}, "group": "control_change"}, {"time": 111, "annotation": {"number": 64, "value": 0}, "group": "control_change"}, {"time": 113, "annotation": {"number": 64, "value": 127}, "group": "control_change"}, {"time": 136, "annotation": {"number": 64, "value": 0}, "group": "control_change"}, {"time": 136, "annotation": {"number": 64, "value": 127}, "group": "control_change"}, {"time": 159, "annotation": {"number": 64, "value": 0}, "group": "control_change"}, {"time": 160, "annotation": {"number": 64, "value": 127}, "group": "control_change"}, {"time": 183, "annotation": {"number": 64, "value": 0}, "group": "control_change"}, {"time": 184, "annotation": {"number": 64, "value": 127}, "group": "control_change"}, {"time": 207, "annotation": {"number": 64, "value": 0}, "group": "control_change"}, {"time": 209, "annotation": {"number": 64, "value": 127}, "group": "control_change"}, {"time": 255, "annotation": {"number": 64, "value": 0}, "group": "control_change"}, {"time": 256, "annotation": {"number": 64, "value": 127}, "group": "control_change"}, {"time": 279, "annotation": {"number": 64, "value": 0}, "group": "control_change"}, {"time": 281, "annotation": {"number": 64, "value": 127}, "group": "control_change"}, {"time": 303, "annotation": {"number": 64, "value": 0}, "group": "control_change"}, {"time": 304, "annotation": {"number": 64, "value": 127}, "group": "control_change"}, {"time": 326, "annotation": {"number": 64, "value": 0}, "group": "control_change"}, {"time": 328, "annotation": {"number": 64, "value": 127}, "group": "control_change"}, {"time": 350, "annotation": {"number": 64, "value": 0}, "group": "control_change"}, {"time": 352, "annotation": {"number": 64, "value": 127}, "group": "control_change"}, {"time": 375, "annotation": {"number": 64, "value": 0}, "group": "control_change"}, {"time": 377, "annotation": {"number": 64, "value": 127}, "group": "control_change"}, {"time": 400, "annotation": {"number": 64, "value": 0}, "group": "control_change"}, {"time": 401, "annotation": {"number": 64, "value": 127}, "group": "control_change"}, {"time": 423, "annotation": {"number": 64, "value": 0}, "group": "control_change"}, {"time": 425, "annotation": {"number": 64, "value": 127}, "group": "control_change"}, {"time": 447, "annotation": {"number": 64, "value": 0}, "group": "control_change"}, {"time": 449, "annotation": {"number": 64, "value": 127}, "group": "control_change"}, {"time": 471, "annotation": {"number": 64, "value": 0}, "group": "control_change"}, {"time": 473, "annotation": {"number": 64, "value": 127}, "group": "control_change"}, {"time": 495, "annotation": {"number": 64, "value": 0}, "group": "control_change"}, {"time": 497, "annotation": {"number": 64, "value": 127}, "group": "control_change"}, {"time": 519, "annotation": {"number": 64, "value": 0}, "group": "control_change"}, {"time": 520, "annotation": {"number": 64, "value": 127}, "group": "control_change"}, {"time": 543, "annotation": {"number": 64, "value": 0}, "group": "control_change"}, {"time": 544, "annotation": {"number": 64, "value": 127}, "group": "control_change"}, {"time": 554, "annotation": {"number": 64, "value": 0}, "group": "control_change"}, {"time": 556, "annotation": {"number": 64, "value": 127}, "group": "control_change"}, {"time": 567, "annotation": {"number": 64, "value": 0}, "group": "control_change"}, {"time": 569, "annotation": {"number": 64, "value": 127}, "group": "control_change"}, {"time": 591, "annotation": {"number": 64, "value": 0}, "group": "control_change"}, {"time": 593, "annotation": {"number": 64, "value": 127}, "group": "control_change"}, {"time": 613, "annotation": {"number": 64, "value": 0}, "group": "control_change"}, {"time": 617, "annotation": {"number": 64, "value": 127}, "group": "control_change"}, {"time": 618, "annotation": {"number": 64, "value": 127}, "group": "control_change"}, {"time": 623, "annotation": {"number": 64, "value": 0}, "group": "control_change"}, {"time": 624, "annotation": {"number": 64, "value": 127}, "group": "control_change"}, {"time": 639, "annotation": {"number": 64, "value": 0}, "group": "control_change"}, {"time": 640, "annotation": {"number": 64, "value": 127}, "group": "control_change"}, {"time": 663, "annotation": {"number": 64, "value": 0}, "group": "control_change"}, {"time": 664, "annotation": {"number": 64, "value": 127}, "group": "control_change"}, {"time": 687, "annotation": {"number": 64, "value": 0}, "group": "control_change"}, {"time": 689, "annotation": {"number": 64, "value": 127}, "group": "control_change"}, {"time": 711, "annotation": {"number": 64, "value": 0}, "group": "control_change"}, {"time": 712, "annotation": {"number": 64, "value": 127}, "group": "control_change"}, {"time": 734, "annotation": {"number": 64, "value": 0}, "group": "control_change"}, {"time": 736, "annotation": {"number": 64, "value": 127}, "group": "control_change"}, {"time": 759, "annotation": {"number": 64, "value": 0}, "group": "control_change"}, {"time": 761, "annotation": {"number": 64, "value": 127}, "group": "control_change"}, {"time": 773, "annotation": {"number": 64, "value": 0}, "group": "control_change"}, {"time": 776, "annotation": {"number": 64, "value": 127}, "group": "control_change"}, {"time": 783, "annotation": {"number": 64, "value": 0}, "group": "control_change"}, {"time": 784, "annotation": {"number": 64, "value": 127}, "group": "control_change"}, {"time": 791, "annotation": {"number": 64, "value": 0}, "group": "control_change"}, {"time": 793, "annotation": {"number": 64, "value": 127}, "group": "control_change"}, {"time": 807, "annotation": {"number": 64, "value": 0}, "group": "control_change"}, {"time": 809, "annotation": {"number": 64, "value": 127}, "group": "control_change"}, {"time": 831, "annotation": {"number": 64, "value": 0}, "group": "control_change"}, {"time": 833, "annotation": {"number": 64, "value": 127}, "group": "control_change"}, {"time": 854, "annotation": {"number": 64, "value": 0}, "group": "control_change"}, {"time": 856, "annotation": {"number": 64, "value": 127}, "group": "control_change"}, {"time": 862, "annotation": {"number": 64, "value": 0}, "group": "control_change"}, {"time": 863, "annotation": {"number": 64, "value": 127}, "group": "control_change"}, {"time": 878, "annotation": {"number": 64, "value": 0}, "group": "control_change"}, {"time": 880, "annotation": {"number": 64, "value": 127}, "group": "control_change"}, {"time": 885, "annotation": {"number": 64, "value": 0}, "group": "control_change"}, {"time": 886, "annotation": {"number": 64, "value": 127}, "group": "control_change"}, {"time": 891, "annotation": {"number": 64, "value": 0}, "group": "control_change"}, {"time": 894, "annotation": {"number": 64, "value": 127}, "group": "control_change"}, {"time": 902, "annotation": {"number": 64, "value": 0}, "group": "control_change"}, {"time": 904, "annotation": {"number": 64, "value": 127}, "group": "control_change"}, {"time": 910, "annotation": {"number": 64, "value": 0}, "group": "control_change"}, {"time": 913, "annotation": {"number": 64, "value": 127}, "group": "control_change"}, {"time": 926, "annotation": {"number": 64, "value": 0}, "group": "control_change"}, {"time": 928, "annotation": {"number": 64, "value": 127}, "group": "control_change"}, {"time": 933, "annotation": {"number": 64, "value": 0}, "group": "control_change"}, {"time": 935, "annotation": {"number": 64, "value": 127}, "group": "control_change"}, {"time": 951, "annotation": {"number": 64, "value": 0}, "group": "control_change"}, {"time": 952, "annotation": {"number": 64, "value": 127}, "group": "control_change"}, {"time": 962, "annotation": {"number": 64, "value": 0}, "group": "control_change"}, {"time": 964, "annotation": {"number": 64, "value": 127}, "group": "control_change"}, {"time": 974, "annotation": {"number": 64, "value": 0}, "group": "control_change"}, {"time": 976, "annotation": {"number": 64, "value": 127}, "group": "control_change"}, {"time": 1000, "annotation": {"number": 64, "value": 0}, "group": "control_change"}, {"time": 1001, "annotation": {"number": 64, "value": 127}, "group": "control_change"}, {"time": 1023, "annotation": {"number": 64, "value": 0}, "group": "control_change"}, {"time": 1025, "annotation": {"number": 64, "value": 127}, "group": "control_change"}, {"time": 1047, "annotation": {"number": 64, "value": 0}, "group": "control_change"}, {"time": 1049, "annotation": {"number": 64, "value": 127}, "group": "control_change"}, {"time": 1072, "annotation": {"number": 64, "value": 0}, "group": "control_change"}, {"time": 1073, "annotation": {"number": 64, "value": 127}, "group": "control_change"}, {"time": 1095, "annotation": {"number": 64, "value": 0}, "group": "control_change"}, {"time": 1097, "annotation": {"number": 64, "value": 127}, "group": "control_change"}, {"time": 1119, "annotation": {"number": 64, "value": 0}, "group": "control_change"}, {"time": 1121, "annotation": {"number": 64, "value": 127}, "group": "control_change"}, {"time": 1143, "annotation": {"number": 64, "value": 0}, "group": "control_change"}, {"time": 1145, "annotation": {"number": 64, "value": 127}, "group": "control_change"}, {"time": 1167, "annotation": {"number": 64, "value": 0}, "group": "control_change"}, {"time": 1168, "annotation": {"number": 64, "value": 127}, "group": "control_change"}, {"time": 1191, "annotation": {"number": 64, "value": 0}, "group": "control_change"}, {"time": 1192, "annotation": {"number": 64, "value": 127}, "group": "control_change"}, {"time": 1215, "annotation": {"number": 64, "value": 0}, "group": "control_change"}, {"time": 1217, "annotation": {"number": 64, "value": 127}, "group": "control_change"}, {"time": 1240, "annotation": {"number": 64, "value": 0}, "group": "control_change"}, {"time": 1241, "annotation": {"number": 64, "value": 127}, "group": "control_change"}, {"time": 1263, "annotation": {"number": 64, "value": 0}, "group": "control_change"}, {"time": 1265, "annotation": {"number": 64, "value": 127}, "group": "control_change"}, {"time": 1287, "annotation": {"number": 64, "value": 0}, "group": "control_change"}, {"time": 1289, "annotation": {"number": 64, "value": 127}, "group": "control_change"}, {"time": 1311, "annotation": {"number": 64, "value": 0}, "group": "control_change"}, {"time": 1312, "annotation": {"number": 64, "value": 127}, "group": "control_change"}, {"time": 1334, "annotation": {"number": 64, "value": 0}, "group": "control_change"}, {"time": 1336, "annotation": {"number": 64, "value": 127}, "group": "control_change"}, {"time": 1359, "annotation": {"number": 64, "value": 0}, "group": "control_change"}, {"time": 1360, "annotation": {"number": 64, "value": 127}, "group": "control_change"}, {"time": 1383, "annotation": {"number": 64, "value": 0}, "group": "control_change"}, {"time": 1385, "annotation": {"number": 64, "value": 127}, "group": "control_change"}, {"time": 1407, "annotation": {"number": 64, "value": 0}, "group": "control_change"}, {"time": 1409, "annotation": {"number": 64, "value": 127}, "group": "control_change"}, {"time": 1432, "annotation": {"number": 64, "value": 0}, "group": "control_change"}, {"time": 1433, "annotation": {"number": 64, "value": 127}, "group": "control_change"}, {"time": 1455, "annotation": {"number": 64, "value": 0}, "group": "control_change"}, {"time": 1456, "annotation": {"number": 64, "value": 127}, "group": "control_change"}, {"time": 1479, "annotation": {"number": 64, "value": 0}, "group": "control_change"}, {"time": 1481, "annotation": {"number": 64, "value": 127}, "group": "control_change"}, {"time": 1503, "annotation": {"number": 64, "value": 0}, "group": "control_change"}, {"time": 1505, "annotation": {"number": 64, "value": 127}, "group": "control_change"}, {"time": 1527, "annotation": {"number": 64, "value": 0}, "group": "control_change"}, {"time": 1528, "annotation": {"number": 64, "value": 127}, "group": "control_change"}, {"time": 1529, "annotation": {"number": 64, "value": 127}, "group": "control_change"}, {"time": 1546, "annotation": {"number": 64, "value": 0}, "group": "control_change"}, {"time": 1553, "annotation": {"number": 64, "value": 127}, "group": "control_change"}, {"time": 1575, "annotation": {"number": 64, "value": 0}, "group": "control_change"}, {"time": 1577, "annotation": {"number": 64, "value": 127}, "group": "control_change"}, {"time": 1599, "annotation": {"number": 64, "value": 0}, "group": "control_change"}, {"time": 1601, "annotation": {"number": 64, "value": 127}, "group": "control_change"}, {"time": 1624, "annotation": {"number": 64, "value": 0}, "group": "control_change"}, {"time": 1625, "annotation": {"number": 64, "value": 127}, "group": "control_change"}, {"time": 1647, "annotation": {"number": 64, "value": 0}, "group": "control_change"}, {"time": 1649, "annotation": {"number": 64, "value": 127}, "group": "control_change"}, {"time": 1671, "annotation": {"number": 64, "value": 0}, "group": "control_change"}, {"time": 1673, "annotation": {"number": 64, "value": 127}, "group": "control_change"}, {"time": 1695, "annotation": {"number": 64, "value": 0}, "group": "control_change"}, {"time": 1697, "annotation": {"number": 64, "value": 127}, "group": "control_change"}, {"time": 1719, "annotation": {"number": 64, "value": 0}, "group": "control_change"}, {"time": 1721, "annotation": {"number": 64, "value": 127}, "group": "control_change"}, {"time": 1744, "annotation": {"number": 64, "value": 0}, "group": "control_change"}, {"time": 1745, "annotation": {"number": 64, "value": 127}, "group": "control_change"}, {"time": 1768, "annotation": {"number": 64, "value": 0}, "group": "control_change"}, {"time": 1769, "annotation": {"number": 64, "value": 127}, "group": "control_change"}, {"time": 1775, "annotation": {"number": 64, "value": 0}, "group": "control_change"}, {"time": 1778, "annotation": {"number": 64, "value": 127}, "group": "control_change"}, {"time": 1791, "annotation": {"number": 64, "value": 0}, "group": "control_change"}, {"time": 1793, "annotation": {"number": 64, "value": 127}, "group": "control_change"}, {"time": 1798, "annotation": {"number": 64, "value": 0}, "group": "control_change"}, {"time": 1801, "annotation": {"number": 64, "value": 127}, "group": "control_change"}, {"time": 1815, "annotation": {"number": 64, "value": 0}, "group": "control_change"}, {"time": 1817, "annotation": {"number": 64, "value": 127}, "group": "control_change"}, {"time": 1822, "annotation": {"number": 64, "value": 0}, "group": "control_change"}, {"time": 1825, "annotation": {"number": 64, "value": 127}, "group": "control_change"}, {"time": 1838, "annotation": {"number": 64, "value": 0}, "group": "control_change"}, {"time": 1840, "annotation": {"number": 64, "value": 127}, "group": "control_change"}, {"time": 1847, "annotation": {"number": 64, "value": 0}, "group": "control_change"}, {"time": 1849, "annotation": {"number": 64, "value": 127}, "group": "control_change"}, {"time": 1853, "annotation": {"number": 64, "value": 0}, "group": "control_change"}, {"time": 1866, "annotation": {"number": 64, "value": 127}, "group": "control_change"}, {"time": 1871, "annotation": {"number": 64, "value": 0}, "group": "control_change"}, {"time": 1872, "annotation": {"number": 64, "value": 127}, "group": "control_change"}, {"time": 1887, "annotation": {"number": 64, "value": 0}, "group": "control_change"}, {"time": 1888, "annotation": {"number": 64, "value": 127}, "group": "control_change"}, {"time": 1911, "annotation": {"number": 64, "value": 0}, "group": "control_change"}, {"time": 1912, "annotation": {"number": 64, "value": 127}, "group": "control_change"}, {"time": 1935, "annotation": {"number": 64, "value": 0}, "group": "control_change"}, {"time": 1937, "annotation": {"number": 64, "value": 127}, "group": "control_change"}, {"time": 1959, "annotation": {"number": 64, "value": 0}, "group": "control_change"}, {"time": 1960, "annotation": {"number": 64, "value": 127}, "group": "control_change"}, {"time": 1982, "annotation": {"number": 64, "value": 0}, "group": "control_change"}, {"time": 1984, "annotation": {"number": 64, "value": 127}, "group": "control_change"}, {"time": 2007, "annotation": {"number": 64, "value": 0}, "group": "control_change"}, {"time": 2009, "annotation": {"number": 64, "value": 127}, "group": "control_change"}, {"time": 2021, "annotation": {"number": 64, "value": 0}, "group": "control_change"}, {"time": 2024, "annotation": {"number": 64, "value": 127}, "group": "control_change"}, {"time": 2031, "annotation": {"number": 64, "value": 0}, "group": "control_change"}, {"time": 2032, "annotation": {"number": 64, "value": 127}, "group": "control_change"}, {"time": 2039, "annotation": {"number": 64, "value": 0}, "group": "control_change"}, {"time": 2041, "annotation": {"number": 64, "value": 127}, "group": "control_change"}, {"time": 2055, "annotation": {"number": 64, "value": 0}, "group": "control_change"}, {"time": 2057, "annotation": {"number": 64, "value": 127}, "group": "control_change"}, {"time": 2079, "annotation": {"number": 64, "value": 0}, "group": "control_change"}, {"time": 2081, "annotation": {"number": 64, "value": 127}, "group": "control_change"}, {"time": 2102, "annotation": {"number": 64, "value": 0}, "group": "control_change"}, {"time": 2104, "annotation": {"number": 64, "value": 127}, "group": "control_change"}, {"time": 2110, "annotation": {"number": 64, "value": 0}, "group": "control_change"}, {"time": 2111, "annotation": {"number": 64, "value": 127}, "group": "control_change"}, {"time": 2126, "annotation": {"number": 64, "value": 0}, "group": "control_change"}, {"time": 2128, "annotation": {"number": 64, "value": 127}, "group": "control_change"}, {"time": 2133, "annotation": {"number": 64, "value": 0}, "group": "control_change"}, {"time": 2134, "annotation": {"number": 64, "value": 127}, "group": "control_change"}, {"time": 2139, "annotation": {"number": 64, "value": 0}, "group": "control_change"}, {"time": 2142, "annotation": {"number": 64, "value": 127}, "group": "control_change"}, {"time": 2150, "annotation": {"number": 64, "value": 0}, "group": "control_change"}, {"time": 2152, "annotation": {"number": 64, "value": 127}, "group": "control_change"}, {"time": 2158, "annotation": {"number": 64, "value": 0}, "group": "control_change"}, {"time": 2161, "annotation": {"number": 64, "value": 127}, "group": "control_change"}, {"time": 2174, "annotation": {"number": 64, "value": 0}, "group": "control_change"}, {"time": 2176, "annotation": {"number": 64, "value": 127}, "group": "control_change"}, {"time": 2181, "annotation": {"number": 64, "value": 0}, "group": "control_change"}, {"time": 2183, "annotation": {"number": 64, "value": 127}, "group": "control_change"}, {"time": 2199, "annotation": {"number": 64, "value": 0}, "group": "control_change"}, {"time": 2200, "annotation": {"number": 64, "value": 127}, "group": "control_change"}, {"time": 2210, "annotation": {"number": 64, "value": 0}, "group": "control_change"}, {"time": 2212, "annotation": {"number": 64, "value": 127}, "group": "control_change"}, {"time": 2222, "annotation": {"number": 64, "value": 0}, "group": "control_change"}, {"time": 2224, "annotation": {"number": 64, "value": 127}, "group": "control_change"}, {"time": 2248, "annotation": {"number": 64, "value": 0}, "group": "control_change"}, {"time": 2249, "annotation": {"number": 64, "value": 127}, "group": "control_change"}, {"time": 2271, "annotation": {"number": 64, "value": 0}, "group": "control_change"}, {"time": 2273, "annotation": {"number": 64, "value": 127}, "group": "control_change"}, {"time": 2295, "annotation": {"number": 64, "value": 0}, "group": "control_change"}, {"time": 2297, "annotation": {"number": 64, "value": 127}, "group": "control_change"}, {"time": 2320, "annotation": {"number": 64, "value": 0}, "group": "control_change"}, {"time": 2321, "annotation": {"number": 64, "value": 127}, "group": "control_change"}, {"time": 2343, "annotation": {"number": 64, "value": 0}, "group": "control_change"}, {"time": 2345, "annotation": {"number": 64, "value": 127}, "group": "control_change"}, {"time": 2367, "annotation": {"number": 64, "value": 0}, "group": "control_change"}, {"time": 2369, "annotation": {"number": 64, "value": 127}, "group": "control_change"}, {"time": 2391, "annotation": {"number": 64, "value": 0}, "group": "control_change"}, {"time": 2393, "annotation": {"number": 64, "value": 127}, "group": "control_change"}, {"time": 2415, "annotation": {"number": 64, "value": 0}, "group": "control_change"}, {"time": 2416, "annotation": {"number": 64, "value": 127}, "group": "control_change"}, {"time": 2439, "annotation": {"number": 64, "value": 0}, "group": "control_change"}, {"time": 2440, "annotation": {"number": 64, "value": 127}, "group": "control_change"}, {"time": 2463, "annotation": {"number": 64, "value": 0}, "group": "control_change"}, {"time": 2465, "annotation": {"number": 64, "value": 127}, "group": "control_change"}, {"time": 2488, "annotation": {"number": 64, "value": 0}, "group": "control_change"}, {"time": 2489, "annotation": {"number": 64, "value": 127}, "group": "control_change"}, {"time": 2511, "annotation": {"number": 64, "value": 0}, "group": "control_change"}, {"time": 2513, "annotation": {"number": 64, "value": 127}, "group": "control_change"}, {"time": 2535, "annotation": {"number": 64, "value": 0}, "group": "control_change"}, {"time": 2537, "annotation": {"number": 64, "value": 127}, "group": "control_change"}, {"time": 2559, "annotation": {"number": 64, "value": 0}, "group": "control_change"}, {"time": 2560, "annotation": {"number": 64, "value": 127}, "group": "control_change"}, {"time": 2582, "annotation": {"number": 64, "value": 0}, "group": "control_change"}, {"time": 2584, "annotation": {"number": 64, "value": 127}, "group": "control_change"}, {"time": 2607, "annotation": {"number": 64, "value": 0}, "group": "control_change"}, {"time": 2608, "annotation": {"number": 64, "value": 127}, "group": "control_change"}, {"time": 2631, "annotation": {"number": 64, "value": 0}, "group": "control_change"}, {"time": 2633, "annotation": {"number": 64, "value": 127}, "group": "control_change"}, {"time": 2655, "annotation": {"number": 64, "value": 0}, "group": "control_change"}, {"time": 2657, "annotation": {"number": 64, "value": 127}, "group": "control_change"}, {"time": 2680, "annotation": {"number": 64, "value": 0}, "group": "control_change"}, {"time": 2681, "annotation": {"number": 64, "value": 127}, "group": "control_change"}, {"time": 2703, "annotation": {"number": 64, "value": 0}, "group": "control_change"}, {"time": 2704, "annotation": {"number": 64, "value": 127}, "group": "control_change"}, {"time": 2727, "annotation": {"number": 64, "value": 0}, "group": "control_change"}, {"time": 2729, "annotation": {"number": 64, "value": 127}, "group": "control_change"}, {"time": 2751, "annotation": {"number": 64, "value": 0}, "group": "control_change"}, {"time": 2753, "annotation": {"number": 64, "value": 127}, "group": "control_change"}, {"time": 2775, "annotation": {"number": 64, "value": 0}, "group": "control_change"}, {"time": 2777, "annotation": {"number": 64, "value": 127}, "group": "control_change"}, {"time": 2782, "annotation": {"number": 64, "value": 127}, "group": "control_change"}, {"time": 2794, "annotation": {"number": 64, "value": 0}, "group": "control_change"}, {"time": 2828, "annotation": {"number": 64, "value": 127}, "group": "control_change"}, {"time": 2831, "annotation": {"number": 64, "value": 0}, "group": "control_change"}, {"time": 2861, "annotation": {"number": 64, "value": 127}, "group": "control_change"}, {"time": 2870, "annotation": {"number": 64, "value": 0}, "group": "control_change"}, {"time": 2873, "annotation": {"number": 64, "value": 127}, "group": "control_change"}, {"time": 2891, "annotation": {"number": 64, "value": 0}, "group": "control_change"}, {"time": 2910, "annotation": {"number": 64, "value": 127}, "group": "control_change"}, {"time": 2919, "annotation": {"number": 64, "value": 0}, "group": "control_change"}, {"time": 2922, "annotation": {"number": 64, "value": 127}, "group": "control_change"}, {"time": 2942, "annotation": {"number": 64, "value": 0}, "group": "control_change"}, {"time": 2945, "annotation": {"number": 64, "value": 127}, "group": "control_change"}, {"time": 2966, "annotation": {"number": 64, "value": 0}, "group": "control_change"}, {"time": 2969, "annotation": {"number": 64, "value": 127}, "group": "control_change"}, {"time": 2991, "annotation": {"number": 64, "value": 0}, "group": "control_change"}, {"time": 2993, "annotation": {"number": 64, "value": 127}, "group": "control_change"}, {"time": 3016, "annotation": {"number": 64, "value": 0}, "group": "control_change"}, {"time": 3018, "annotation": {"number": 64, "value": 127}, "group": "control_change"}, {"time": 3039, "annotation": {"number": 64, "value": 0}, "group": "control_change"}, {"time": 3041, "annotation": {"number": 64, "value": 127}, "group": "control_change"}, {"time": 3064, "annotation": {"number": 64, "value": 0}, "group": "control_change"}, {"time": 3065, "annotation": {"number": 64, "value": 127}, "group": "control_change"}, {"time": 3087, "annotation": {"number": 64, "value": 0}, "group": "control_change"}, {"time": 3089, "annotation": {"number": 64, "value": 127}, "group": "control_change"}, {"time": 3111, "annotation": {"number": 64, "value": 0}, "group": "control_change"}, {"time": 3113, "annotation": {"number": 64, "value": 127}, "group": "control_change"}, {"time": 3134, "annotation": {"number": 64, "value": 0}, "group": "control_change"}, {"time": 3137, "annotation": {"number": 64, "value": 127}, "group": "control_change"}, {"time": 3158, "annotation": {"number": 64, "value": 0}, "group": "control_change"}, {"time": 3161, "annotation": {"number": 64, "value": 127}, "group": "control_change"}, {"time": 3177, "annotation": {"number": 64, "value": 0}, "group": "control_change"}, {"time": 3198, "annotation": {"number": 64, "value": 127}, "group": "control_change"}, {"time": 3205, "annotation": {"number": 64, "value": 0}, "group": "control_change"}, {"time": 3209, "annotation": {"number": 64, "value": 127}, "group": "control_change"}, {"time": 3227, "annotation": {"number": 64, "value": 0}, "group": "control_change"}, {"time": 3244, "annotation": {"number": 64, "value": 127}, "group": "control_change"}, {"time": 3281, "annotation": {"number": 64, "value": 0}, "group": "control_change"}, {"time": 3293, "annotation": {"number": 64, "value": 127}, "group": "control_change"}, {"time": 3342, "annotation": {"number": 64, "value": 0}, "group": "control_change"}, {"time": 3342, "annotation": {"number": 64, "value": 127}, "group": "control_change"}, {"time": 3344, "annotation": {"number": 64, "value": 0}, "group": "control_change"}, {"time": 3344, "annotation": {"number": 64, "value": 127}, "group": "control_change"}]}]}