{"metadata": {"schema_version": "0.2", "title": "None", "source_filename": "468.mid", "source_format": "midi"}, "resolution": 12, "tempos": [{"time": 0, "qpm": 46.49998488750491}, {"time": 660, "qpm": 46.99999060000188}, {"time": 720, "qpm": 46.49998488750491}, {"time": 1032, "qpm": 46.80001029600226}, {"time": 1080, "qpm": 46.649986704753786}, {"time": 1320, "qpm": 46.49998488750491}, {"time": 1944, "qpm": 46.80001029600226}, {"time": 2088, "qpm": 46.54998653929556}, {"time": 2244, "qpm": 46.40001608533891}, {"time": 2328, "qpm": 46.49998488750491}], "time_signatures": [{"time": 0, "numerator": 1, "denominator": 4}], "tracks": [{"program": 0, "is_drum": false, "name": "MELODY", "notes": [{"time": 199, "pitch": 57, "duration": 1, "velocity": 96}, {"time": 202, "pitch": 57, "duration": 3, "velocity": 95}, {"time": 205, "pitch": 59, "duration": 3, "velocity": 95}, {"time": 208, "pitch": 62, "duration": 1, "velocity": 102}, {"time": 211, "pitch": 62, "duration": 12, "velocity": 117}, {"time": 223, "pitch": 62, "duration": 1, "velocity": 107}, {"time": 229, "pitch": 64, "duration": 3, "velocity": 96}, {"time": 232, "pitch": 66, "duration": 3, "velocity": 102}, {"time": 235, "pitch": 66, "duration": 1, "velocity": 127}, {"time": 250, "pitch": 66, "duration": 3, "velocity": 112}, {"time": 253, "pitch": 69, "duration": 2, "velocity": 93}, {"time": 256, "pitch": 71, "duration": 1, "velocity": 96}, {"time": 259, "pitch": 74, "duration": 13, "velocity": 107}, {"time": 271, "pitch": 69, "duration": 3, "velocity": 112}, {"time": 274, "pitch": 71, "duration": 3, "velocity": 102}, {"time": 277, "pitch": 69, "duration": 2, "velocity": 92}, {"time": 280, "pitch": 66, "duration": 13, "velocity": 93}, {"time": 298, "pitch": 66, "duration": 3, "velocity": 107}, {"time": 301, "pitch": 69, "duration": 3, "velocity": 89}, {"time": 304, "pitch": 66, "duration": 3, "velocity": 107}, {"time": 307, "pitch": 64, "duration": 11, "velocity": 90}, {"time": 319, "pitch": 66, "duration": 3, "velocity": 112}, {"time": 322, "pitch": 64, "duration": 3, "velocity": 82}, {"time": 325, "pitch": 62, "duration": 2, "velocity": 72}, {"time": 328, "pitch": 59, "duration": 12, "velocity": 86}, {"time": 346, "pitch": 59, "duration": 2, "velocity": 96}, {"time": 349, "pitch": 62, "duration": 2, "velocity": 88}, {"time": 352, "pitch": 64, "duration": 2, "velocity": 88}, {"time": 355, "pitch": 64, "duration": 10, "velocity": 90}, {"time": 367, "pitch": 66, "duration": 3, "velocity": 100}, {"time": 370, "pitch": 64, "duration": 3, "velocity": 95}, {"time": 373, "pitch": 62, "duration": 3, "velocity": 89}, {"time": 376, "pitch": 57, "duration": 13, "velocity": 93}, {"time": 415, "pitch": 57, "duration": 3, "velocity": 70}, {"time": 418, "pitch": 59, "duration": 3, "velocity": 86}, {"time": 421, "pitch": 57, "duration": 3, "velocity": 82}, {"time": 424, "pitch": 62, "duration": 2, "velocity": 100}, {"time": 427, "pitch": 62, "duration": 9, "velocity": 102}, {"time": 439, "pitch": 62, "duration": 1, "velocity": 97}, {"time": 442, "pitch": 62, "duration": 3, "velocity": 95}, {"time": 445, "pitch": 64, "duration": 3, "velocity": 86}, {"time": 448, "pitch": 66, "duration": 1, "velocity": 107}, {"time": 451, "pitch": 66, "duration": 11, "velocity": 112}, {"time": 466, "pitch": 66, "duration": 2, "velocity": 100}, {"time": 469, "pitch": 69, "duration": 2, "velocity": 89}, {"time": 472, "pitch": 71, "duration": 1, "velocity": 97}, {"time": 475, "pitch": 74, "duration": 8, "velocity": 102}, {"time": 487, "pitch": 69, "duration": 2, "velocity": 93}, {"time": 490, "pitch": 71, "duration": 3, "velocity": 97}, {"time": 493, "pitch": 69, "duration": 3, "velocity": 93}, {"time": 496, "pitch": 66, "duration": 17, "velocity": 97}, {"time": 514, "pitch": 66, "duration": 2, "velocity": 122}, {"time": 517, "pitch": 69, "duration": 3, "velocity": 90}, {"time": 520, "pitch": 64, "duration": 2, "velocity": 93}, {"time": 523, "pitch": 64, "duration": 7, "velocity": 96}, {"time": 535, "pitch": 66, "duration": 2, "velocity": 127}, {"time": 538, "pitch": 64, "duration": 3, "velocity": 92}, {"time": 541, "pitch": 62, "duration": 2, "velocity": 96}, {"time": 544, "pitch": 59, "duration": 12, "velocity": 93}, {"time": 562, "pitch": 59, "duration": 2, "velocity": 100}, {"time": 565, "pitch": 62, "duration": 2, "velocity": 92}, {"time": 568, "pitch": 64, "duration": 1, "velocity": 95}, {"time": 571, "pitch": 64, "duration": 9, "velocity": 96}, {"time": 583, "pitch": 66, "duration": 3, "velocity": 107}, {"time": 586, "pitch": 64, "duration": 3, "velocity": 82}, {"time": 589, "pitch": 66, "duration": 2, "velocity": 93}, {"time": 592, "pitch": 69, "duration": 25, "velocity": 99}, {"time": 631, "pitch": 74, "duration": 1, "velocity": 93}, {"time": 634, "pitch": 74, "duration": 1, "velocity": 90}, {"time": 637, "pitch": 74, "duration": 3, "velocity": 96}, {"time": 640, "pitch": 76, "duration": 2, "velocity": 117}, {"time": 643, "pitch": 76, "duration": 12, "velocity": 122}, {"time": 658, "pitch": 76, "duration": 3, "velocity": 117}, {"time": 661, "pitch": 74, "duration": 3, "velocity": 92}, {"time": 664, "pitch": 76, "duration": 3, "velocity": 122}, {"time": 667, "pitch": 78, "duration": 9, "velocity": 127}, {"time": 682, "pitch": 78, "duration": 1, "velocity": 117}, {"time": 685, "pitch": 78, "duration": 3, "velocity": 96}, {"time": 688, "pitch": 76, "duration": 1, "velocity": 102}, {"time": 691, "pitch": 76, "duration": 8, "velocity": 99}, {"time": 697, "pitch": 74, "duration": 2, "velocity": 102}, {"time": 700, "pitch": 76, "duration": 3, "velocity": 117}, {"time": 703, "pitch": 74, "duration": 3, "velocity": 99}, {"time": 706, "pitch": 71, "duration": 3, "velocity": 93}, {"time": 709, "pitch": 74, "duration": 21, "velocity": 100}, {"time": 730, "pitch": 69, "duration": 2, "velocity": 89}, {"time": 733, "pitch": 69, "duration": 3, "velocity": 97}, {"time": 736, "pitch": 71, "duration": 2, "velocity": 112}, {"time": 739, "pitch": 71, "duration": 10, "velocity": 112}, {"time": 751, "pitch": 69, "duration": 3, "velocity": 100}, {"time": 754, "pitch": 71, "duration": 3, "velocity": 112}, {"time": 757, "pitch": 69, "duration": 3, "velocity": 97}, {"time": 760, "pitch": 66, "duration": 12, "velocity": 99}, {"time": 778, "pitch": 59, "duration": 3, "velocity": 96}, {"time": 781, "pitch": 62, "duration": 3, "velocity": 99}, {"time": 784, "pitch": 64, "duration": 2, "velocity": 89}, {"time": 787, "pitch": 64, "duration": 9, "velocity": 102}, {"time": 799, "pitch": 66, "duration": 3, "velocity": 112}, {"time": 802, "pitch": 64, "duration": 3, "velocity": 96}, {"time": 805, "pitch": 66, "duration": 2, "velocity": 112}, {"time": 808, "pitch": 69, "duration": 13, "velocity": 107}, {"time": 823, "pitch": 74, "duration": 1, "velocity": 100}, {"time": 826, "pitch": 74, "duration": 1, "velocity": 92}, {"time": 829, "pitch": 74, "duration": 2, "velocity": 95}, {"time": 832, "pitch": 76, "duration": 2, "velocity": 117}, {"time": 835, "pitch": 76, "duration": 9, "velocity": 117}, {"time": 850, "pitch": 76, "duration": 2, "velocity": 127}, {"time": 853, "pitch": 74, "duration": 2, "velocity": 77}, {"time": 856, "pitch": 76, "duration": 3, "velocity": 117}, {"time": 859, "pitch": 78, "duration": 11, "velocity": 99}, {"time": 874, "pitch": 78, "duration": 2, "velocity": 127}, {"time": 877, "pitch": 78, "duration": 3, "velocity": 93}, {"time": 880, "pitch": 76, "duration": 1, "velocity": 107}, {"time": 883, "pitch": 76, "duration": 8, "velocity": 107}, {"time": 889, "pitch": 74, "duration": 2, "velocity": 107}, {"time": 892, "pitch": 76, "duration": 2, "velocity": 99}, {"time": 895, "pitch": 74, "duration": 3, "velocity": 95}, {"time": 898, "pitch": 71, "duration": 3, "velocity": 90}, {"time": 901, "pitch": 74, "duration": 11, "velocity": 127}, {"time": 919, "pitch": 69, "duration": 1, "velocity": 82}, {"time": 922, "pitch": 69, "duration": 1, "velocity": 92}, {"time": 925, "pitch": 69, "duration": 3, "velocity": 90}, {"time": 928, "pitch": 71, "duration": 2, "velocity": 122}, {"time": 931, "pitch": 71, "duration": 8, "velocity": 117}, {"time": 943, "pitch": 69, "duration": 2, "velocity": 100}, {"time": 946, "pitch": 71, "duration": 3, "velocity": 100}, {"time": 949, "pitch": 69, "duration": 1, "velocity": 96}, {"time": 952, "pitch": 66, "duration": 11, "velocity": 117}, {"time": 970, "pitch": 66, "duration": 2, "velocity": 112}, {"time": 973, "pitch": 69, "duration": 3, "velocity": 81}, {"time": 976, "pitch": 64, "duration": 2, "velocity": 81}, {"time": 979, "pitch": 64, "duration": 9, "velocity": 95}, {"time": 991, "pitch": 66, "duration": 2, "velocity": 122}, {"time": 994, "pitch": 64, "duration": 3, "velocity": 92}, {"time": 997, "pitch": 62, "duration": 3, "velocity": 92}, {"time": 1000, "pitch": 57, "duration": 12, "velocity": 100}, {"time": 1018, "pitch": 59, "duration": 3, "velocity": 93}, {"time": 1021, "pitch": 62, "duration": 24, "velocity": 102}, {"time": 1207, "pitch": 57, "duration": 3, "velocity": 70}, {"time": 1210, "pitch": 57, "duration": 2, "velocity": 97}, {"time": 1213, "pitch": 57, "duration": 3, "velocity": 82}, {"time": 1216, "pitch": 62, "duration": 2, "velocity": 100}, {"time": 1219, "pitch": 62, "duration": 9, "velocity": 102}, {"time": 1231, "pitch": 62, "duration": 1, "velocity": 97}, {"time": 1234, "pitch": 62, "duration": 3, "velocity": 95}, {"time": 1237, "pitch": 64, "duration": 3, "velocity": 86}, {"time": 1240, "pitch": 66, "duration": 1, "velocity": 107}, {"time": 1243, "pitch": 66, "duration": 11, "velocity": 112}, {"time": 1258, "pitch": 66, "duration": 2, "velocity": 100}, {"time": 1261, "pitch": 69, "duration": 2, "velocity": 89}, {"time": 1264, "pitch": 71, "duration": 1, "velocity": 97}, {"time": 1267, "pitch": 74, "duration": 8, "velocity": 102}, {"time": 1279, "pitch": 69, "duration": 2, "velocity": 93}, {"time": 1282, "pitch": 71, "duration": 3, "velocity": 97}, {"time": 1285, "pitch": 69, "duration": 3, "velocity": 93}, {"time": 1288, "pitch": 66, "duration": 17, "velocity": 97}, {"time": 1306, "pitch": 66, "duration": 2, "velocity": 122}, {"time": 1309, "pitch": 69, "duration": 3, "velocity": 90}, {"time": 1312, "pitch": 64, "duration": 2, "velocity": 93}, {"time": 1315, "pitch": 64, "duration": 7, "velocity": 96}, {"time": 1327, "pitch": 66, "duration": 2, "velocity": 127}, {"time": 1330, "pitch": 64, "duration": 3, "velocity": 92}, {"time": 1333, "pitch": 62, "duration": 2, "velocity": 96}, {"time": 1336, "pitch": 59, "duration": 12, "velocity": 93}, {"time": 1354, "pitch": 59, "duration": 2, "velocity": 100}, {"time": 1357, "pitch": 62, "duration": 2, "velocity": 92}, {"time": 1360, "pitch": 64, "duration": 1, "velocity": 95}, {"time": 1363, "pitch": 64, "duration": 9, "velocity": 96}, {"time": 1375, "pitch": 66, "duration": 3, "velocity": 107}, {"time": 1378, "pitch": 64, "duration": 3, "velocity": 82}, {"time": 1381, "pitch": 62, "duration": 2, "velocity": 97}, {"time": 1384, "pitch": 59, "duration": 2, "velocity": 83}, {"time": 1387, "pitch": 57, "duration": 9, "velocity": 92}, {"time": 1423, "pitch": 74, "duration": 1, "velocity": 93}, {"time": 1426, "pitch": 74, "duration": 1, "velocity": 90}, {"time": 1429, "pitch": 74, "duration": 3, "velocity": 96}, {"time": 1432, "pitch": 76, "duration": 2, "velocity": 117}, {"time": 1435, "pitch": 76, "duration": 12, "velocity": 122}, {"time": 1450, "pitch": 76, "duration": 3, "velocity": 117}, {"time": 1453, "pitch": 74, "duration": 3, "velocity": 92}, {"time": 1456, "pitch": 76, "duration": 3, "velocity": 122}, {"time": 1459, "pitch": 78, "duration": 9, "velocity": 127}, {"time": 1474, "pitch": 78, "duration": 1, "velocity": 117}, {"time": 1477, "pitch": 78, "duration": 3, "velocity": 96}, {"time": 1480, "pitch": 76, "duration": 1, "velocity": 102}, {"time": 1483, "pitch": 76, "duration": 8, "velocity": 99}, {"time": 1489, "pitch": 74, "duration": 2, "velocity": 102}, {"time": 1492, "pitch": 76, "duration": 3, "velocity": 117}, {"time": 1495, "pitch": 74, "duration": 3, "velocity": 99}, {"time": 1498, "pitch": 71, "duration": 3, "velocity": 93}, {"time": 1501, "pitch": 74, "duration": 21, "velocity": 100}, {"time": 1522, "pitch": 69, "duration": 2, "velocity": 89}, {"time": 1525, "pitch": 69, "duration": 3, "velocity": 97}, {"time": 1528, "pitch": 71, "duration": 2, "velocity": 112}, {"time": 1531, "pitch": 71, "duration": 10, "velocity": 112}, {"time": 1543, "pitch": 69, "duration": 3, "velocity": 100}, {"time": 1546, "pitch": 71, "duration": 3, "velocity": 112}, {"time": 1549, "pitch": 69, "duration": 3, "velocity": 97}, {"time": 1552, "pitch": 66, "duration": 12, "velocity": 99}, {"time": 1570, "pitch": 59, "duration": 3, "velocity": 96}, {"time": 1573, "pitch": 62, "duration": 3, "velocity": 99}, {"time": 1576, "pitch": 64, "duration": 2, "velocity": 89}, {"time": 1579, "pitch": 64, "duration": 9, "velocity": 102}, {"time": 1591, "pitch": 66, "duration": 3, "velocity": 112}, {"time": 1594, "pitch": 64, "duration": 3, "velocity": 96}, {"time": 1597, "pitch": 66, "duration": 2, "velocity": 112}, {"time": 1600, "pitch": 69, "duration": 13, "velocity": 107}, {"time": 1615, "pitch": 74, "duration": 1, "velocity": 100}, {"time": 1618, "pitch": 74, "duration": 1, "velocity": 92}, {"time": 1621, "pitch": 74, "duration": 2, "velocity": 95}, {"time": 1624, "pitch": 76, "duration": 2, "velocity": 117}, {"time": 1627, "pitch": 76, "duration": 9, "velocity": 117}, {"time": 1642, "pitch": 76, "duration": 2, "velocity": 127}, {"time": 1645, "pitch": 74, "duration": 2, "velocity": 77}, {"time": 1648, "pitch": 76, "duration": 3, "velocity": 117}, {"time": 1651, "pitch": 78, "duration": 11, "velocity": 99}, {"time": 1666, "pitch": 78, "duration": 2, "velocity": 127}, {"time": 1669, "pitch": 78, "duration": 3, "velocity": 93}, {"time": 1672, "pitch": 76, "duration": 1, "velocity": 107}, {"time": 1675, "pitch": 76, "duration": 8, "velocity": 107}, {"time": 1681, "pitch": 74, "duration": 2, "velocity": 107}, {"time": 1684, "pitch": 76, "duration": 2, "velocity": 99}, {"time": 1687, "pitch": 74, "duration": 3, "velocity": 95}, {"time": 1690, "pitch": 71, "duration": 3, "velocity": 90}, {"time": 1693, "pitch": 74, "duration": 11, "velocity": 127}, {"time": 1711, "pitch": 69, "duration": 1, "velocity": 82}, {"time": 1714, "pitch": 69, "duration": 1, "velocity": 92}, {"time": 1717, "pitch": 69, "duration": 3, "velocity": 90}, {"time": 1720, "pitch": 71, "duration": 2, "velocity": 122}, {"time": 1723, "pitch": 71, "duration": 8, "velocity": 117}, {"time": 1735, "pitch": 69, "duration": 2, "velocity": 100}, {"time": 1738, "pitch": 71, "duration": 3, "velocity": 100}, {"time": 1741, "pitch": 69, "duration": 1, "velocity": 96}, {"time": 1744, "pitch": 66, "duration": 11, "velocity": 117}, {"time": 1762, "pitch": 66, "duration": 2, "velocity": 112}, {"time": 1765, "pitch": 69, "duration": 3, "velocity": 81}, {"time": 1768, "pitch": 64, "duration": 2, "velocity": 81}, {"time": 1771, "pitch": 64, "duration": 9, "velocity": 95}, {"time": 1783, "pitch": 66, "duration": 2, "velocity": 122}, {"time": 1786, "pitch": 64, "duration": 3, "velocity": 92}, {"time": 1789, "pitch": 62, "duration": 3, "velocity": 92}, {"time": 1792, "pitch": 69, "duration": 15, "velocity": 95}, {"time": 1831, "pitch": 57, "duration": 3, "velocity": 70}, {"time": 1834, "pitch": 57, "duration": 2, "velocity": 97}, {"time": 1837, "pitch": 57, "duration": 3, "velocity": 82}, {"time": 1840, "pitch": 62, "duration": 2, "velocity": 100}, {"time": 1843, "pitch": 62, "duration": 9, "velocity": 102}, {"time": 1855, "pitch": 62, "duration": 1, "velocity": 97}, {"time": 1858, "pitch": 62, "duration": 3, "velocity": 95}, {"time": 1861, "pitch": 64, "duration": 3, "velocity": 86}, {"time": 1864, "pitch": 66, "duration": 1, "velocity": 107}, {"time": 1867, "pitch": 66, "duration": 11, "velocity": 112}, {"time": 1882, "pitch": 66, "duration": 2, "velocity": 100}, {"time": 1885, "pitch": 69, "duration": 2, "velocity": 89}, {"time": 1888, "pitch": 71, "duration": 1, "velocity": 97}, {"time": 1891, "pitch": 74, "duration": 8, "velocity": 102}, {"time": 1903, "pitch": 69, "duration": 2, "velocity": 93}, {"time": 1906, "pitch": 71, "duration": 3, "velocity": 97}, {"time": 1909, "pitch": 69, "duration": 3, "velocity": 93}, {"time": 1912, "pitch": 66, "duration": 17, "velocity": 97}, {"time": 1930, "pitch": 66, "duration": 2, "velocity": 122}, {"time": 1933, "pitch": 69, "duration": 3, "velocity": 90}, {"time": 1936, "pitch": 64, "duration": 2, "velocity": 93}, {"time": 1939, "pitch": 64, "duration": 7, "velocity": 96}, {"time": 1951, "pitch": 66, "duration": 2, "velocity": 127}, {"time": 1954, "pitch": 64, "duration": 3, "velocity": 92}, {"time": 1957, "pitch": 62, "duration": 2, "velocity": 96}, {"time": 1960, "pitch": 59, "duration": 12, "velocity": 93}, {"time": 1978, "pitch": 59, "duration": 2, "velocity": 100}, {"time": 1981, "pitch": 62, "duration": 2, "velocity": 92}, {"time": 1984, "pitch": 64, "duration": 1, "velocity": 95}, {"time": 1987, "pitch": 64, "duration": 9, "velocity": 96}, {"time": 1999, "pitch": 66, "duration": 3, "velocity": 107}, {"time": 2002, "pitch": 64, "duration": 3, "velocity": 82}, {"time": 2005, "pitch": 62, "duration": 2, "velocity": 97}, {"time": 2008, "pitch": 57, "duration": 9, "velocity": 92}, {"time": 2026, "pitch": 59, "duration": 3, "velocity": 85}, {"time": 2029, "pitch": 62, "duration": 42, "velocity": 100}, {"time": 2074, "pitch": 66, "duration": 2, "velocity": 122}, {"time": 2077, "pitch": 69, "duration": 3, "velocity": 82}, {"time": 2080, "pitch": 64, "duration": 2, "velocity": 93}, {"time": 2083, "pitch": 64, "duration": 10, "velocity": 99}, {"time": 2095, "pitch": 66, "duration": 2, "velocity": 102}, {"time": 2098, "pitch": 64, "duration": 3, "velocity": 97}, {"time": 2101, "pitch": 62, "duration": 3, "velocity": 95}, {"time": 2104, "pitch": 57, "duration": 14, "velocity": 90}, {"time": 2122, "pitch": 59, "duration": 2, "velocity": 96}, {"time": 2125, "pitch": 59, "duration": 3, "velocity": 79}, {"time": 2128, "pitch": 62, "duration": 31, "velocity": 107}, {"time": 2170, "pitch": 66, "duration": 2, "velocity": 102}, {"time": 2173, "pitch": 69, "duration": 2, "velocity": 93}, {"time": 2176, "pitch": 71, "duration": 5, "velocity": 127}, {"time": 2182, "pitch": 69, "duration": 12, "velocity": 112}, {"time": 2242, "pitch": 66, "duration": 2, "velocity": 100}, {"time": 2245, "pitch": 69, "duration": 2, "velocity": 88}, {"time": 2248, "pitch": 71, "duration": 5, "velocity": 99}, {"time": 2254, "pitch": 69, "duration": 19, "velocity": 93}, {"time": 2290, "pitch": 74, "duration": 3, "velocity": 99}, {"time": 2293, "pitch": 76, "duration": 2, "velocity": 85}, {"time": 2296, "pitch": 78, "duration": 3, "velocity": 117}, {"time": 2299, "pitch": 74, "duration": 21, "velocity": 99}], "annotations": [{"time": 0, "annotation": {"number": 7, "value": 101}, "group": "control_change"}, {"time": 2300, "annotation": {"number": 7, "value": 101}, "group": "control_change"}, {"time": 2303, "annotation": {"number": 7, "value": 100}, "group": "control_change"}, {"time": 2306, "annotation": {"number": 7, "value": 99}, "group": "control_change"}, {"time": 2309, "annotation": {"number": 7, "value": 98}, "group": "control_change"}, {"time": 2312, "annotation": {"number": 7, "value": 97}, "group": "control_change"}, {"time": 2315, "annotation": {"number": 7, "value": 96}, "group": "control_change"}, {"time": 2318, "annotation": {"number": 7, "value": 95}, "group": "control_change"}, {"time": 2321, "annotation": {"number": 7, "value": 94}, "group": "control_change"}, {"time": 2324, "annotation": {"number": 7, "value": 92}, "group": "control_change"}, {"time": 2327, "annotation": {"number": 7, "value": 91}, "group": "control_change"}, {"time": 2330, "annotation": {"number": 7, "value": 90}, "group": "control_change"}, {"time": 2333, "annotation": {"number": 7, "value": 89}, "group": "control_change"}, {"time": 2336, "annotation": {"number": 7, "value": 88}, "group": "control_change"}, {"time": 2339, "annotation": {"number": 7, "value": 87}, "group": "control_change"}, {"time": 2342, "annotation": {"number": 7, "value": 86}, "group": "control_change"}, {"time": 2345, "annotation": {"number": 7, "value": 85}, "group": "control_change"}, {"time": 2348, "annotation": {"number": 7, "value": 84}, "group": "control_change"}, {"time": 2351, "annotation": {"number": 7, "value": 83}, "group": "control_change"}, {"time": 2354, "annotation": {"number": 7, "value": 82}, "group": "control_change"}, {"time": 2357, "annotation": {"number": 7, "value": 81}, "group": "control_change"}, {"time": 2360, "annotation": {"number": 7, "value": 80}, "group": "control_change"}, {"time": 2363, "annotation": {"number": 7, "value": 79}, "group": "control_change"}, {"time": 2366, "annotation": {"number": 7, "value": 78}, "group": "control_change"}, {"time": 2369, "annotation": {"number": 7, "value": 77}, "group": "control_change"}, {"time": 2372, "annotation": {"number": 7, "value": 75}, "group": "control_change"}, {"time": 2375, "annotation": {"number": 7, "value": 74}, "group": "control_change"}, {"time": 2378, "annotation": {"number": 7, "value": 73}, "group": "control_change"}, {"time": 2381, "annotation": {"number": 7, "value": 72}, "group": "control_change"}, {"time": 2384, "annotation": {"number": 7, "value": 71}, "group": "control_change"}, {"time": 2387, "annotation": {"number": 7, "value": 70}, "group": "control_change"}, {"time": 2390, "annotation": {"number": 7, "value": 69}, "group": "control_change"}, {"time": 2393, "annotation": {"number": 7, "value": 68}, "group": "control_change"}, {"time": 2396, "annotation": {"number": 7, "value": 67}, "group": "control_change"}, {"time": 2399, "annotation": {"number": 7, "value": 66}, "group": "control_change"}, {"time": 2402, "annotation": {"number": 7, "value": 65}, "group": "control_change"}, {"time": 2405, "annotation": {"number": 7, "value": 64}, "group": "control_change"}, {"time": 2408, "annotation": {"number": 7, "value": 63}, "group": "control_change"}, {"time": 2411, "annotation": {"number": 7, "value": 62}, "group": "control_change"}, {"time": 2414, "annotation": {"number": 7, "value": 61}, "group": "control_change"}, {"time": 2417, "annotation": {"number": 7, "value": 59}, "group": "control_change"}, {"time": 2420, "annotation": {"number": 7, "value": 58}, "group": "control_change"}, {"time": 2423, "annotation": {"number": 7, "value": 57}, "group": "control_change"}, {"time": 2426, "annotation": {"number": 7, "value": 56}, "group": "control_change"}, {"time": 2429, "annotation": {"number": 7, "value": 55}, "group": "control_change"}, {"time": 2432, "annotation": {"number": 7, "value": 54}, "group": "control_change"}, {"time": 2435, "annotation": {"number": 7, "value": 53}, "group": "control_change"}, {"time": 2438, "annotation": {"number": 7, "value": 52}, "group": "control_change"}, {"time": 2441, "annotation": {"number": 7, "value": 51}, "group": "control_change"}, {"time": 2444, "annotation": {"number": 7, "value": 50}, "group": "control_change"}, {"time": 2447, "annotation": {"number": 7, "value": 49}, "group": "control_change"}, {"time": 2450, "annotation": {"number": 7, "value": 48}, "group": "control_change"}, {"time": 2453, "annotation": {"number": 7, "value": 47}, "group": "control_change"}, {"time": 2456, "annotation": {"number": 7, "value": 46}, "group": "control_change"}, {"time": 2459, "annotation": {"number": 7, "value": 45}, "group": "control_change"}, {"time": 2462, "annotation": {"number": 7, "value": 44}, "group": "control_change"}, {"time": 2465, "annotation": {"number": 7, "value": 42}, "group": "control_change"}, {"time": 2468, "annotation": {"number": 7, "value": 41}, "group": "control_change"}, {"time": 2471, "annotation": {"number": 7, "value": 40}, "group": "control_change"}, {"time": 2474, "annotation": {"number": 7, "value": 39}, "group": "control_change"}, {"time": 2477, "annotation": {"number": 7, "value": 38}, "group": "control_change"}, {"time": 2480, "annotation": {"number": 7, "value": 37}, "group": "control_change"}, {"time": 2483, "annotation": {"number": 7, "value": 36}, "group": "control_change"}, {"time": 2486, "annotation": {"number": 7, "value": 35}, "group": "control_change"}, {"time": 2489, "annotation": {"number": 7, "value": 34}, "group": "control_change"}, {"time": 2492, "annotation": {"number": 7, "value": 33}, "group": "control_change"}, {"time": 2495, "annotation": {"number": 7, "value": 32}, "group": "control_change"}, {"time": 2498, "annotation": {"number": 7, "value": 31}, "group": "control_change"}, {"time": 2501, "annotation": {"number": 7, "value": 30}, "group": "control_change"}, {"time": 2504, "annotation": {"number": 7, "value": 29}, "group": "control_change"}, {"time": 2507, "annotation": {"number": 7, "value": 28}, "group": "control_change"}, {"time": 2510, "annotation": {"number": 7, "value": 26}, "group": "control_change"}, {"time": 2513, "annotation": {"number": 7, "value": 25}, "group": "control_change"}, {"time": 2516, "annotation": {"number": 7, "value": 24}, "group": "control_change"}, {"time": 2519, "annotation": {"number": 7, "value": 23}, "group": "control_change"}, {"time": 2522, "annotation": {"number": 7, "value": 22}, "group": "control_change"}, {"time": 2525, "annotation": {"number": 7, "value": 21}, "group": "control_change"}, {"time": 2528, "annotation": {"number": 7, "value": 20}, "group": "control_change"}, {"time": 2531, "annotation": {"number": 7, "value": 19}, "group": "control_change"}, {"time": 2534, "annotation": {"number": 7, "value": 18}, "group": "control_change"}, {"time": 2537, "annotation": {"number": 7, "value": 17}, "group": "control_change"}, {"time": 2540, "annotation": {"number": 7, "value": 16}, "group": "control_change"}, {"time": 2543, "annotation": {"number": 7, "value": 15}, "group": "control_change"}, {"time": 2546, "annotation": {"number": 7, "value": 14}, "group": "control_change"}, {"time": 2549, "annotation": {"number": 7, "value": 13}, "group": "control_change"}, {"time": 2552, "annotation": {"number": 7, "value": 12}, "group": "control_change"}, {"time": 2555, "annotation": {"number": 7, "value": 11}, "group": "control_change"}, {"time": 2558, "annotation": {"number": 7, "value": 9}, "group": "control_change"}, {"time": 2561, "annotation": {"number": 7, "value": 8}, "group": "control_change"}, {"time": 2564, "annotation": {"number": 7, "value": 7}, "group": "control_change"}, {"time": 2567, "annotation": {"number": 7, "value": 6}, "group": "control_change"}, {"time": 2570, "annotation": {"number": 7, "value": 5}, "group": "control_change"}, {"time": 2573, "annotation": {"number": 7, "value": 4}, "group": "control_change"}, {"time": 2576, "annotation": {"number": 7, "value": 3}, "group": "control_change"}, {"time": 2579, "annotation": {"number": 7, "value": 2}, "group": "control_change"}, {"time": 2582, "annotation": {"number": 7, "value": 1}, "group": "control_change"}, {"time": 2584, "annotation": {"number": 7, "value": 0}, "group": "control_change"}]}, {"program": 0, "is_drum": false, "name": "PIANO", "notes": [{"time": 16, "pitch": 38, "duration": 23, "velocity": 93}, {"time": 16, "pitch": 57, "duration": 1, "velocity": 30}, {"time": 16, "pitch": 66, "duration": 1, "velocity": 36}, {"time": 19, "pitch": 45, "duration": 22, "velocity": 68}, {"time": 22, "pitch": 50, "duration": 7, "velocity": 85}, {"time": 25, "pitch": 57, "duration": 10, "velocity": 71}, {"time": 28, "pitch": 66, "duration": 22, "velocity": 112}, {"time": 31, "pitch": 50, "duration": 8, "velocity": 63}, {"time": 34, "pitch": 62, "duration": 16, "velocity": 74}, {"time": 37, "pitch": 57, "duration": 10, "velocity": 65}, {"time": 40, "pitch": 38, "duration": 21, "velocity": 63}, {"time": 43, "pitch": 45, "duration": 21, "velocity": 31}, {"time": 46, "pitch": 50, "duration": 6, "velocity": 56}, {"time": 49, "pitch": 57, "duration": 4, "velocity": 46}, {"time": 52, "pitch": 62, "duration": 6, "velocity": 97}, {"time": 52, "pitch": 66, "duration": 23, "velocity": 100}, {"time": 55, "pitch": 50, "duration": 1, "velocity": 88}, {"time": 58, "pitch": 57, "duration": 13, "velocity": 62}, {"time": 61, "pitch": 62, "duration": 14, "velocity": 71}, {"time": 64, "pitch": 38, "duration": 23, "velocity": 72}, {"time": 67, "pitch": 45, "duration": 21, "velocity": 39}, {"time": 70, "pitch": 50, "duration": 6, "velocity": 93}, {"time": 73, "pitch": 57, "duration": 2, "velocity": 61}, {"time": 76, "pitch": 57, "duration": 1, "velocity": 60}, {"time": 76, "pitch": 62, "duration": 8, "velocity": 90}, {"time": 76, "pitch": 66, "duration": 23, "velocity": 97}, {"time": 79, "pitch": 50, "duration": 2, "velocity": 77}, {"time": 82, "pitch": 57, "duration": 13, "velocity": 66}, {"time": 85, "pitch": 62, "duration": 14, "velocity": 67}, {"time": 88, "pitch": 38, "duration": 22, "velocity": 72}, {"time": 91, "pitch": 45, "duration": 20, "velocity": 35}, {"time": 94, "pitch": 50, "duration": 7, "velocity": 78}, {"time": 97, "pitch": 57, "duration": 9, "velocity": 81}, {"time": 100, "pitch": 66, "duration": 22, "velocity": 122}, {"time": 103, "pitch": 50, "duration": 7, "velocity": 76}, {"time": 106, "pitch": 62, "duration": 16, "velocity": 71}, {"time": 109, "pitch": 57, "duration": 10, "velocity": 46}, {"time": 112, "pitch": 38, "duration": 22, "velocity": 86}, {"time": 115, "pitch": 45, "duration": 21, "velocity": 38}, {"time": 118, "pitch": 50, "duration": 7, "velocity": 85}, {"time": 121, "pitch": 57, "duration": 9, "velocity": 68}, {"time": 124, "pitch": 66, "duration": 22, "velocity": 102}, {"time": 127, "pitch": 50, "duration": 11, "velocity": 72}, {"time": 130, "pitch": 62, "duration": 15, "velocity": 82}, {"time": 133, "pitch": 57, "duration": 34, "velocity": 56}, {"time": 136, "pitch": 38, "duration": 22, "velocity": 63}, {"time": 139, "pitch": 45, "duration": 21, "velocity": 43}, {"time": 142, "pitch": 50, "duration": 6, "velocity": 72}, {"time": 148, "pitch": 66, "duration": 22, "velocity": 99}, {"time": 151, "pitch": 50, "duration": 8, "velocity": 70}, {"time": 154, "pitch": 62, "duration": 17, "velocity": 88}, {"time": 160, "pitch": 38, "duration": 22, "velocity": 89}, {"time": 163, "pitch": 45, "duration": 20, "velocity": 58}, {"time": 166, "pitch": 50, "duration": 7, "velocity": 79}, {"time": 169, "pitch": 57, "duration": 6, "velocity": 67}, {"time": 172, "pitch": 62, "duration": 6, "velocity": 77}, {"time": 172, "pitch": 66, "duration": 22, "velocity": 102}, {"time": 175, "pitch": 50, "duration": 14, "velocity": 82}, {"time": 178, "pitch": 57, "duration": 12, "velocity": 73}, {"time": 181, "pitch": 62, "duration": 13, "velocity": 69}, {"time": 184, "pitch": 38, "duration": 20, "velocity": 85}, {"time": 187, "pitch": 45, "duration": 21, "velocity": 59}, {"time": 190, "pitch": 50, "duration": 12, "velocity": 58}, {"time": 193, "pitch": 57, "duration": 9, "velocity": 59}, {"time": 196, "pitch": 66, "duration": 12, "velocity": 112}, {"time": 202, "pitch": 62, "duration": 5, "velocity": 53}, {"time": 208, "pitch": 38, "duration": 15, "velocity": 55}, {"time": 211, "pitch": 45, "duration": 13, "velocity": 39}, {"time": 214, "pitch": 50, "duration": 12, "velocity": 71}, {"time": 217, "pitch": 57, "duration": 9, "velocity": 50}, {"time": 220, "pitch": 66, "duration": 12, "velocity": 112}, {"time": 226, "pitch": 62, "duration": 6, "velocity": 62}, {"time": 232, "pitch": 42, "duration": 18, "velocity": 47}, {"time": 235, "pitch": 49, "duration": 15, "velocity": 39}, {"time": 238, "pitch": 54, "duration": 13, "velocity": 88}, {"time": 241, "pitch": 57, "duration": 7, "velocity": 71}, {"time": 244, "pitch": 66, "duration": 12, "velocity": 127}, {"time": 250, "pitch": 61, "duration": 5, "velocity": 88}, {"time": 253, "pitch": 57, "duration": 3, "velocity": 69}, {"time": 256, "pitch": 47, "duration": 8, "velocity": 76}, {"time": 259, "pitch": 54, "duration": 5, "velocity": 81}, {"time": 262, "pitch": 59, "duration": 7, "velocity": 57}, {"time": 265, "pitch": 62, "duration": 3, "velocity": 52}, {"time": 268, "pitch": 66, "duration": 16, "velocity": 117}, {"time": 271, "pitch": 62, "duration": 3, "velocity": 52}, {"time": 274, "pitch": 59, "duration": 8, "velocity": 72}, {"time": 277, "pitch": 62, "duration": 6, "velocity": 59}, {"time": 280, "pitch": 42, "duration": 19, "velocity": 88}, {"time": 283, "pitch": 49, "duration": 15, "velocity": 46}, {"time": 286, "pitch": 54, "duration": 7, "velocity": 89}, {"time": 289, "pitch": 57, "duration": 10, "velocity": 67}, {"time": 292, "pitch": 66, "duration": 11, "velocity": 112}, {"time": 295, "pitch": 54, "duration": 2, "velocity": 52}, {"time": 298, "pitch": 61, "duration": 5, "velocity": 89}, {"time": 301, "pitch": 57, "duration": 4, "velocity": 73}, {"time": 304, "pitch": 40, "duration": 18, "velocity": 72}, {"time": 307, "pitch": 47, "duration": 15, "velocity": 41}, {"time": 310, "pitch": 52, "duration": 7, "velocity": 88}, {"time": 313, "pitch": 59, "duration": 8, "velocity": 70}, {"time": 316, "pitch": 67, "duration": 12, "velocity": 112}, {"time": 319, "pitch": 52, "duration": 7, "velocity": 83}, {"time": 322, "pitch": 64, "duration": 6, "velocity": 90}, {"time": 325, "pitch": 59, "duration": 3, "velocity": 83}, {"time": 328, "pitch": 43, "duration": 19, "velocity": 81}, {"time": 331, "pitch": 50, "duration": 15, "velocity": 75}, {"time": 334, "pitch": 55, "duration": 7, "velocity": 102}, {"time": 337, "pitch": 59, "duration": 8, "velocity": 76}, {"time": 340, "pitch": 67, "duration": 12, "velocity": 122}, {"time": 343, "pitch": 55, "duration": 2, "velocity": 92}, {"time": 346, "pitch": 62, "duration": 5, "velocity": 102}, {"time": 349, "pitch": 59, "duration": 3, "velocity": 86}, {"time": 352, "pitch": 40, "duration": 17, "velocity": 90}, {"time": 355, "pitch": 47, "duration": 14, "velocity": 51}, {"time": 358, "pitch": 52, "duration": 7, "velocity": 92}, {"time": 361, "pitch": 59, "duration": 9, "velocity": 76}, {"time": 364, "pitch": 67, "duration": 12, "velocity": 117}, {"time": 367, "pitch": 52, "duration": 4, "velocity": 85}, {"time": 370, "pitch": 64, "duration": 6, "velocity": 79}, {"time": 373, "pitch": 59, "duration": 3, "velocity": 72}, {"time": 376, "pitch": 45, "duration": 21, "velocity": 78}, {"time": 379, "pitch": 52, "duration": 10, "velocity": 47}, {"time": 382, "pitch": 57, "duration": 3, "velocity": 99}, {"time": 385, "pitch": 61, "duration": 3, "velocity": 117}, {"time": 388, "pitch": 64, "duration": 12, "velocity": 97}, {"time": 391, "pitch": 52, "duration": 9, "velocity": 76}, {"time": 394, "pitch": 61, "duration": 6, "velocity": 107}, {"time": 397, "pitch": 57, "duration": 3, "velocity": 72}, {"time": 400, "pitch": 45, "duration": 18, "velocity": 73}, {"time": 403, "pitch": 52, "duration": 10, "velocity": 59}, {"time": 406, "pitch": 57, "duration": 3, "velocity": 90}, {"time": 409, "pitch": 59, "duration": 3, "velocity": 75}, {"time": 412, "pitch": 64, "duration": 12, "velocity": 117}, {"time": 415, "pitch": 52, "duration": 3, "velocity": 75}, {"time": 418, "pitch": 61, "duration": 5, "velocity": 76}, {"time": 421, "pitch": 57, "duration": 4, "velocity": 70}, {"time": 424, "pitch": 38, "duration": 16, "velocity": 78}, {"time": 427, "pitch": 45, "duration": 13, "velocity": 43}, {"time": 430, "pitch": 50, "duration": 7, "velocity": 75}, {"time": 433, "pitch": 57, "duration": 5, "velocity": 72}, {"time": 436, "pitch": 66, "duration": 10, "velocity": 127}, {"time": 439, "pitch": 50, "duration": 3, "velocity": 95}, {"time": 442, "pitch": 62, "duration": 6, "velocity": 62}, {"time": 445, "pitch": 57, "duration": 22, "velocity": 83}, {"time": 448, "pitch": 42, "duration": 17, "velocity": 44}, {"time": 451, "pitch": 49, "duration": 13, "velocity": 63}, {"time": 454, "pitch": 54, "duration": 7, "velocity": 92}, {"time": 457, "pitch": 61, "duration": 3, "velocity": 97}, {"time": 460, "pitch": 66, "duration": 13, "velocity": 122}, {"time": 463, "pitch": 54, "duration": 4, "velocity": 83}, {"time": 466, "pitch": 61, "duration": 6, "velocity": 100}, {"time": 469, "pitch": 57, "duration": 3, "velocity": 71}, {"time": 472, "pitch": 47, "duration": 17, "velocity": 69}, {"time": 475, "pitch": 54, "duration": 10, "velocity": 69}, {"time": 478, "pitch": 59, "duration": 4, "velocity": 79}, {"time": 481, "pitch": 62, "duration": 3, "velocity": 81}, {"time": 484, "pitch": 66, "duration": 12, "velocity": 112}, {"time": 487, "pitch": 54, "duration": 2, "velocity": 64}, {"time": 490, "pitch": 62, "duration": 5, "velocity": 107}, {"time": 493, "pitch": 59, "duration": 3, "velocity": 90}, {"time": 496, "pitch": 42, "duration": 18, "velocity": 76}, {"time": 499, "pitch": 49, "duration": 14, "velocity": 59}, {"time": 502, "pitch": 54, "duration": 7, "velocity": 96}, {"time": 505, "pitch": 57, "duration": 7, "velocity": 79}, {"time": 508, "pitch": 66, "duration": 11, "velocity": 117}, {"time": 511, "pitch": 54, "duration": 2, "velocity": 74}, {"time": 514, "pitch": 61, "duration": 5, "velocity": 112}, {"time": 517, "pitch": 57, "duration": 3, "velocity": 90}, {"time": 520, "pitch": 40, "duration": 18, "velocity": 78}, {"time": 523, "pitch": 47, "duration": 15, "velocity": 53}, {"time": 526, "pitch": 52, "duration": 7, "velocity": 89}, {"time": 529, "pitch": 59, "duration": 6, "velocity": 81}, {"time": 532, "pitch": 67, "duration": 11, "velocity": 112}, {"time": 535, "pitch": 52, "duration": 8, "velocity": 79}, {"time": 538, "pitch": 64, "duration": 5, "velocity": 85}, {"time": 541, "pitch": 59, "duration": 3, "velocity": 92}, {"time": 544, "pitch": 43, "duration": 18, "velocity": 64}, {"time": 547, "pitch": 50, "duration": 15, "velocity": 48}, {"time": 550, "pitch": 55, "duration": 9, "velocity": 89}, {"time": 553, "pitch": 59, "duration": 4, "velocity": 95}, {"time": 556, "pitch": 67, "duration": 13, "velocity": 99}, {"time": 559, "pitch": 62, "duration": 3, "velocity": 79}, {"time": 562, "pitch": 59, "duration": 6, "velocity": 73}, {"time": 565, "pitch": 62, "duration": 4, "velocity": 64}, {"time": 568, "pitch": 40, "duration": 18, "velocity": 72}, {"time": 571, "pitch": 47, "duration": 15, "velocity": 56}, {"time": 574, "pitch": 52, "duration": 7, "velocity": 86}, {"time": 577, "pitch": 55, "duration": 8, "velocity": 67}, {"time": 580, "pitch": 64, "duration": 12, "velocity": 96}, {"time": 583, "pitch": 52, "duration": 4, "velocity": 81}, {"time": 586, "pitch": 59, "duration": 5, "velocity": 92}, {"time": 589, "pitch": 55, "duration": 2, "velocity": 89}, {"time": 592, "pitch": 45, "duration": 22, "velocity": 79}, {"time": 595, "pitch": 52, "duration": 10, "velocity": 83}, {"time": 598, "pitch": 57, "duration": 4, "velocity": 85}, {"time": 601, "pitch": 61, "duration": 3, "velocity": 122}, {"time": 604, "pitch": 64, "duration": 12, "velocity": 97}, {"time": 607, "pitch": 52, "duration": 9, "velocity": 83}, {"time": 610, "pitch": 61, "duration": 6, "velocity": 127}, {"time": 613, "pitch": 59, "duration": 3, "velocity": 88}, {"time": 616, "pitch": 45, "duration": 19, "velocity": 100}, {"time": 619, "pitch": 52, "duration": 10, "velocity": 96}, {"time": 622, "pitch": 57, "duration": 3, "velocity": 95}, {"time": 625, "pitch": 61, "duration": 2, "velocity": 93}, {"time": 625, "pitch": 64, "duration": 2, "velocity": 70}, {"time": 628, "pitch": 61, "duration": 7, "velocity": 127}, {"time": 628, "pitch": 64, "duration": 8, "velocity": 97}, {"time": 631, "pitch": 52, "duration": 4, "velocity": 107}, {"time": 634, "pitch": 57, "duration": 5, "velocity": 117}, {"time": 637, "pitch": 61, "duration": 2, "velocity": 127}, {"time": 637, "pitch": 64, "duration": 2, "velocity": 56}, {"time": 640, "pitch": 40, "duration": 18, "velocity": 95}, {"time": 640, "pitch": 64, "duration": 6, "velocity": 100}, {"time": 640, "pitch": 67, "duration": 6, "velocity": 117}, {"time": 643, "pitch": 47, "duration": 11, "velocity": 78}, {"time": 646, "pitch": 59, "duration": 6, "velocity": 112}, {"time": 649, "pitch": 52, "duration": 4, "velocity": 102}, {"time": 652, "pitch": 64, "duration": 4, "velocity": 97}, {"time": 652, "pitch": 67, "duration": 4, "velocity": 102}, {"time": 655, "pitch": 47, "duration": 4, "velocity": 26}, {"time": 655, "pitch": 52, "duration": 6, "velocity": 102}, {"time": 658, "pitch": 64, "duration": 8, "velocity": 96}, {"time": 658, "pitch": 67, "duration": 8, "velocity": 102}, {"time": 661, "pitch": 59, "duration": 6, "velocity": 96}, {"time": 664, "pitch": 42, "duration": 20, "velocity": 82}, {"time": 667, "pitch": 49, "duration": 16, "velocity": 37}, {"time": 670, "pitch": 57, "duration": 9, "velocity": 76}, {"time": 670, "pitch": 61, "duration": 6, "velocity": 81}, {"time": 673, "pitch": 54, "duration": 4, "velocity": 95}, {"time": 676, "pitch": 66, "duration": 5, "velocity": 127}, {"time": 679, "pitch": 54, "duration": 3, "velocity": 107}, {"time": 682, "pitch": 61, "duration": 6, "velocity": 107}, {"time": 682, "pitch": 66, "duration": 6, "velocity": 117}, {"time": 685, "pitch": 57, "duration": 3, "velocity": 92}, {"time": 688, "pitch": 40, "duration": 19, "velocity": 75}, {"time": 691, "pitch": 47, "duration": 16, "velocity": 47}, {"time": 694, "pitch": 59, "duration": 6, "velocity": 95}, {"time": 697, "pitch": 52, "duration": 4, "velocity": 93}, {"time": 700, "pitch": 64, "duration": 7, "velocity": 95}, {"time": 700, "pitch": 67, "duration": 12, "velocity": 100}, {"time": 703, "pitch": 52, "duration": 8, "velocity": 93}, {"time": 706, "pitch": 59, "duration": 5, "velocity": 100}, {"time": 709, "pitch": 64, "duration": 3, "velocity": 100}, {"time": 712, "pitch": 43, "duration": 21, "velocity": 85}, {"time": 715, "pitch": 50, "duration": 17, "velocity": 75}, {"time": 718, "pitch": 55, "duration": 4, "velocity": 112}, {"time": 721, "pitch": 62, "duration": 3, "velocity": 99}, {"time": 724, "pitch": 69, "duration": 2, "velocity": 95}, {"time": 724, "pitch": 71, "duration": 2, "velocity": 127}, {"time": 727, "pitch": 62, "duration": 1, "velocity": 107}, {"time": 727, "pitch": 67, "duration": 1, "velocity": 102}, {"time": 730, "pitch": 59, "duration": 4, "velocity": 92}, {"time": 733, "pitch": 57, "duration": 3, "velocity": 92}, {"time": 736, "pitch": 47, "duration": 16, "velocity": 85}, {"time": 739, "pitch": 54, "duration": 10, "velocity": 85}, {"time": 742, "pitch": 59, "duration": 3, "velocity": 90}, {"time": 745, "pitch": 62, "duration": 3, "velocity": 96}, {"time": 748, "pitch": 66, "duration": 12, "velocity": 112}, {"time": 751, "pitch": 54, "duration": 1, "velocity": 66}, {"time": 754, "pitch": 62, "duration": 5, "velocity": 83}, {"time": 757, "pitch": 59, "duration": 4, "velocity": 77}, {"time": 760, "pitch": 42, "duration": 19, "velocity": 89}, {"time": 763, "pitch": 49, "duration": 15, "velocity": 63}, {"time": 766, "pitch": 54, "duration": 6, "velocity": 97}, {"time": 769, "pitch": 61, "duration": 2, "velocity": 96}, {"time": 769, "pitch": 66, "duration": 2, "velocity": 96}, {"time": 772, "pitch": 61, "duration": 7, "velocity": 97}, {"time": 772, "pitch": 66, "duration": 12, "velocity": 127}, {"time": 775, "pitch": 54, "duration": 2, "velocity": 100}, {"time": 778, "pitch": 57, "duration": 6, "velocity": 100}, {"time": 781, "pitch": 61, "duration": 3, "velocity": 127}, {"time": 784, "pitch": 40, "duration": 18, "velocity": 90}, {"time": 787, "pitch": 47, "duration": 15, "velocity": 79}, {"time": 790, "pitch": 52, "duration": 6, "velocity": 95}, {"time": 793, "pitch": 59, "duration": 3, "velocity": 96}, {"time": 796, "pitch": 64, "duration": 6, "velocity": 102}, {"time": 796, "pitch": 67, "duration": 12, "velocity": 102}, {"time": 799, "pitch": 52, "duration": 5, "velocity": 96}, {"time": 802, "pitch": 59, "duration": 5, "velocity": 102}, {"time": 805, "pitch": 45, "duration": 1, "velocity": 33}, {"time": 805, "pitch": 64, "duration": 3, "velocity": 117}, {"time": 808, "pitch": 45, "duration": 21, "velocity": 85}, {"time": 811, "pitch": 52, "duration": 17, "velocity": 78}, {"time": 814, "pitch": 57, "duration": 10, "velocity": 93}, {"time": 814, "pitch": 67, "duration": 1, "velocity": 49}, {"time": 814, "pitch": 69, "duration": 3, "velocity": 53}, {"time": 817, "pitch": 76, "duration": 5, "velocity": 97}, {"time": 820, "pitch": 73, "duration": 3, "velocity": 117}, {"time": 823, "pitch": 69, "duration": 1, "velocity": 95}, {"time": 826, "pitch": 64, "duration": 5, "velocity": 96}, {"time": 829, "pitch": 61, "duration": 2, "velocity": 122}, {"time": 832, "pitch": 40, "duration": 17, "velocity": 93}, {"time": 835, "pitch": 47, "duration": 15, "velocity": 67}, {"time": 838, "pitch": 52, "duration": 7, "velocity": 99}, {"time": 841, "pitch": 64, "duration": 4, "velocity": 85}, {"time": 844, "pitch": 71, "duration": 11, "velocity": 122}, {"time": 847, "pitch": 52, "duration": 3, "velocity": 99}, {"time": 850, "pitch": 67, "duration": 5, "velocity": 97}, {"time": 853, "pitch": 64, "duration": 3, "velocity": 95}, {"time": 856, "pitch": 42, "duration": 19, "velocity": 82}, {"time": 859, "pitch": 49, "duration": 16, "velocity": 34}, {"time": 859, "pitch": 54, "duration": 9, "velocity": 93}, {"time": 862, "pitch": 66, "duration": 3, "velocity": 89}, {"time": 865, "pitch": 69, "duration": 2, "velocity": 56}, {"time": 868, "pitch": 66, "duration": 2, "velocity": 56}, {"time": 868, "pitch": 69, "duration": 8, "velocity": 89}, {"time": 868, "pitch": 73, "duration": 7, "velocity": 127}, {"time": 871, "pitch": 54, "duration": 3, "velocity": 86}, {"time": 874, "pitch": 66, "duration": 6, "velocity": 107}, {"time": 877, "pitch": 69, "duration": 1, "velocity": 56}, {"time": 877, "pitch": 73, "duration": 3, "velocity": 117}, {"time": 880, "pitch": 40, "duration": 19, "velocity": 83}, {"time": 883, "pitch": 47, "duration": 17, "velocity": 79}, {"time": 883, "pitch": 52, "duration": 10, "velocity": 74}, {"time": 886, "pitch": 55, "duration": 7, "velocity": 96}, {"time": 889, "pitch": 59, "duration": 10, "velocity": 96}, {"time": 892, "pitch": 64, "duration": 11, "velocity": 97}, {"time": 895, "pitch": 52, "duration": 5, "velocity": 83}, {"time": 898, "pitch": 55, "duration": 3, "velocity": 96}, {"time": 901, "pitch": 59, "duration": 2, "velocity": 102}, {"time": 904, "pitch": 43, "duration": 22, "velocity": 89}, {"time": 907, "pitch": 50, "duration": 20, "velocity": 92}, {"time": 910, "pitch": 55, "duration": 7, "velocity": 100}, {"time": 913, "pitch": 59, "duration": 3, "velocity": 79}, {"time": 916, "pitch": 62, "duration": 7, "velocity": 93}, {"time": 916, "pitch": 67, "duration": 11, "velocity": 100}, {"time": 919, "pitch": 55, "duration": 2, "velocity": 96}, {"time": 922, "pitch": 59, "duration": 5, "velocity": 95}, {"time": 925, "pitch": 62, "duration": 3, "velocity": 99}, {"time": 928, "pitch": 47, "duration": 20, "velocity": 81}, {"time": 931, "pitch": 54, "duration": 10, "velocity": 79}, {"time": 934, "pitch": 59, "duration": 3, "velocity": 90}, {"time": 937, "pitch": 62, "duration": 3, "velocity": 72}, {"time": 940, "pitch": 66, "duration": 6, "velocity": 127}, {"time": 943, "pitch": 54, "duration": 3, "velocity": 95}, {"time": 946, "pitch": 54, "duration": 1, "velocity": 96}, {"time": 946, "pitch": 62, "duration": 6, "velocity": 93}, {"time": 949, "pitch": 59, "duration": 2, "velocity": 85}, {"time": 949, "pitch": 66, "duration": 3, "velocity": 99}, {"time": 952, "pitch": 42, "duration": 19, "velocity": 88}, {"time": 955, "pitch": 49, "duration": 14, "velocity": 66}, {"time": 958, "pitch": 54, "duration": 6, "velocity": 88}, {"time": 961, "pitch": 57, "duration": 6, "velocity": 72}, {"time": 964, "pitch": 66, "duration": 11, "velocity": 122}, {"time": 967, "pitch": 54, "duration": 2, "velocity": 75}, {"time": 970, "pitch": 61, "duration": 4, "velocity": 97}, {"time": 973, "pitch": 57, "duration": 3, "velocity": 86}, {"time": 976, "pitch": 40, "duration": 10, "velocity": 89}, {"time": 976, "pitch": 47, "duration": 8, "velocity": 86}, {"time": 979, "pitch": 52, "duration": 7, "velocity": 77}, {"time": 982, "pitch": 59, "duration": 3, "velocity": 77}, {"time": 982, "pitch": 64, "duration": 7, "velocity": 73}, {"time": 985, "pitch": 67, "duration": 5, "velocity": 85}, {"time": 988, "pitch": 59, "duration": 7, "velocity": 78}, {"time": 991, "pitch": 64, "duration": 3, "velocity": 57}, {"time": 994, "pitch": 67, "duration": 6, "velocity": 96}, {"time": 997, "pitch": 64, "duration": 3, "velocity": 82}, {"time": 1000, "pitch": 45, "duration": 17, "velocity": 76}, {"time": 1003, "pitch": 52, "duration": 9, "velocity": 65}, {"time": 1006, "pitch": 57, "duration": 3, "velocity": 88}, {"time": 1009, "pitch": 61, "duration": 2, "velocity": 92}, {"time": 1012, "pitch": 64, "duration": 12, "velocity": 99}, {"time": 1015, "pitch": 52, "duration": 1, "velocity": 71}, {"time": 1018, "pitch": 61, "duration": 5, "velocity": 74}, {"time": 1021, "pitch": 57, "duration": 3, "velocity": 77}, {"time": 1024, "pitch": 38, "duration": 22, "velocity": 85}, {"time": 1027, "pitch": 45, "duration": 21, "velocity": 58}, {"time": 1030, "pitch": 50, "duration": 7, "velocity": 95}, {"time": 1033, "pitch": 57, "duration": 22, "velocity": 85}, {"time": 1036, "pitch": 66, "duration": 22, "velocity": 122}, {"time": 1039, "pitch": 50, "duration": 2, "velocity": 78}, {"time": 1042, "pitch": 64, "duration": 14, "velocity": 65}, {"time": 1048, "pitch": 38, "duration": 21, "velocity": 72}, {"time": 1051, "pitch": 45, "duration": 21, "velocity": 63}, {"time": 1054, "pitch": 50, "duration": 7, "velocity": 79}, {"time": 1057, "pitch": 57, "duration": 31, "velocity": 61}, {"time": 1060, "pitch": 66, "duration": 23, "velocity": 122}, {"time": 1063, "pitch": 50, "duration": 3, "velocity": 74}, {"time": 1066, "pitch": 62, "duration": 17, "velocity": 59}, {"time": 1069, "pitch": 61, "duration": 11, "velocity": 50}, {"time": 1072, "pitch": 38, "duration": 22, "velocity": 69}, {"time": 1075, "pitch": 45, "duration": 21, "velocity": 50}, {"time": 1078, "pitch": 50, "duration": 7, "velocity": 82}, {"time": 1081, "pitch": 61, "duration": 7, "velocity": 60}, {"time": 1084, "pitch": 62, "duration": 23, "velocity": 66}, {"time": 1084, "pitch": 66, "duration": 23, "velocity": 107}, {"time": 1087, "pitch": 50, "duration": 3, "velocity": 82}, {"time": 1090, "pitch": 61, "duration": 6, "velocity": 86}, {"time": 1093, "pitch": 57, "duration": 11, "velocity": 70}, {"time": 1096, "pitch": 38, "duration": 22, "velocity": 67}, {"time": 1099, "pitch": 45, "duration": 21, "velocity": 48}, {"time": 1102, "pitch": 50, "duration": 7, "velocity": 95}, {"time": 1105, "pitch": 57, "duration": 5, "velocity": 72}, {"time": 1108, "pitch": 62, "duration": 7, "velocity": 96}, {"time": 1108, "pitch": 66, "duration": 21, "velocity": 117}, {"time": 1111, "pitch": 50, "duration": 3, "velocity": 72}, {"time": 1114, "pitch": 57, "duration": 18, "velocity": 60}, {"time": 1117, "pitch": 62, "duration": 14, "velocity": 67}, {"time": 1120, "pitch": 38, "duration": 22, "velocity": 51}, {"time": 1123, "pitch": 45, "duration": 21, "velocity": 52}, {"time": 1126, "pitch": 50, "duration": 6, "velocity": 74}, {"time": 1132, "pitch": 62, "duration": 7, "velocity": 74}, {"time": 1132, "pitch": 66, "duration": 32, "velocity": 99}, {"time": 1135, "pitch": 50, "duration": 2, "velocity": 82}, {"time": 1138, "pitch": 57, "duration": 14, "velocity": 63}, {"time": 1141, "pitch": 62, "duration": 16, "velocity": 79}, {"time": 1144, "pitch": 38, "duration": 20, "velocity": 78}, {"time": 1147, "pitch": 45, "duration": 21, "velocity": 35}, {"time": 1150, "pitch": 50, "duration": 6, "velocity": 82}, {"time": 1153, "pitch": 57, "duration": 23, "velocity": 61}, {"time": 1156, "pitch": 61, "duration": 20, "velocity": 90}, {"time": 1159, "pitch": 50, "duration": 2, "velocity": 75}, {"time": 1162, "pitch": 62, "duration": 17, "velocity": 58}, {"time": 1165, "pitch": 66, "duration": 13, "velocity": 72}, {"time": 1168, "pitch": 38, "duration": 23, "velocity": 64}, {"time": 1171, "pitch": 45, "duration": 21, "velocity": 60}, {"time": 1174, "pitch": 50, "duration": 6, "velocity": 71}, {"time": 1177, "pitch": 57, "duration": 4, "velocity": 48}, {"time": 1180, "pitch": 62, "duration": 8, "velocity": 89}, {"time": 1180, "pitch": 66, "duration": 8, "velocity": 112}, {"time": 1183, "pitch": 50, "duration": 12, "velocity": 93}, {"time": 1186, "pitch": 57, "duration": 13, "velocity": 95}, {"time": 1189, "pitch": 62, "duration": 14, "velocity": 89}, {"time": 1189, "pitch": 66, "duration": 13, "velocity": 97}, {"time": 1192, "pitch": 38, "duration": 22, "velocity": 76}, {"time": 1195, "pitch": 45, "duration": 19, "velocity": 38}, {"time": 1198, "pitch": 50, "duration": 6, "velocity": 79}, {"time": 1201, "pitch": 57, "duration": 4, "velocity": 59}, {"time": 1204, "pitch": 62, "duration": 7, "velocity": 99}, {"time": 1204, "pitch": 66, "duration": 12, "velocity": 107}, {"time": 1207, "pitch": 50, "duration": 3, "velocity": 88}, {"time": 1210, "pitch": 57, "duration": 6, "velocity": 89}, {"time": 1213, "pitch": 62, "duration": 3, "velocity": 68}, {"time": 1216, "pitch": 38, "duration": 16, "velocity": 78}, {"time": 1219, "pitch": 45, "duration": 13, "velocity": 43}, {"time": 1222, "pitch": 50, "duration": 7, "velocity": 75}, {"time": 1225, "pitch": 57, "duration": 5, "velocity": 72}, {"time": 1228, "pitch": 66, "duration": 10, "velocity": 127}, {"time": 1231, "pitch": 50, "duration": 3, "velocity": 95}, {"time": 1234, "pitch": 62, "duration": 6, "velocity": 62}, {"time": 1237, "pitch": 57, "duration": 22, "velocity": 83}, {"time": 1240, "pitch": 42, "duration": 17, "velocity": 44}, {"time": 1243, "pitch": 49, "duration": 13, "velocity": 63}, {"time": 1246, "pitch": 54, "duration": 7, "velocity": 92}, {"time": 1249, "pitch": 61, "duration": 3, "velocity": 97}, {"time": 1252, "pitch": 66, "duration": 13, "velocity": 122}, {"time": 1255, "pitch": 54, "duration": 4, "velocity": 83}, {"time": 1258, "pitch": 61, "duration": 6, "velocity": 100}, {"time": 1261, "pitch": 57, "duration": 3, "velocity": 71}, {"time": 1264, "pitch": 47, "duration": 17, "velocity": 69}, {"time": 1267, "pitch": 54, "duration": 10, "velocity": 69}, {"time": 1270, "pitch": 59, "duration": 4, "velocity": 79}, {"time": 1273, "pitch": 62, "duration": 3, "velocity": 81}, {"time": 1276, "pitch": 66, "duration": 12, "velocity": 112}, {"time": 1279, "pitch": 54, "duration": 2, "velocity": 64}, {"time": 1282, "pitch": 62, "duration": 5, "velocity": 107}, {"time": 1285, "pitch": 59, "duration": 3, "velocity": 90}, {"time": 1288, "pitch": 42, "duration": 18, "velocity": 76}, {"time": 1291, "pitch": 49, "duration": 14, "velocity": 59}, {"time": 1294, "pitch": 54, "duration": 7, "velocity": 96}, {"time": 1297, "pitch": 57, "duration": 7, "velocity": 79}, {"time": 1300, "pitch": 66, "duration": 11, "velocity": 117}, {"time": 1303, "pitch": 54, "duration": 2, "velocity": 74}, {"time": 1306, "pitch": 61, "duration": 5, "velocity": 112}, {"time": 1309, "pitch": 57, "duration": 3, "velocity": 90}, {"time": 1312, "pitch": 40, "duration": 18, "velocity": 78}, {"time": 1315, "pitch": 47, "duration": 15, "velocity": 53}, {"time": 1318, "pitch": 52, "duration": 7, "velocity": 89}, {"time": 1321, "pitch": 59, "duration": 6, "velocity": 81}, {"time": 1324, "pitch": 67, "duration": 11, "velocity": 112}, {"time": 1327, "pitch": 52, "duration": 8, "velocity": 79}, {"time": 1330, "pitch": 64, "duration": 5, "velocity": 85}, {"time": 1333, "pitch": 59, "duration": 3, "velocity": 92}, {"time": 1336, "pitch": 43, "duration": 18, "velocity": 64}, {"time": 1339, "pitch": 50, "duration": 15, "velocity": 48}, {"time": 1342, "pitch": 55, "duration": 9, "velocity": 89}, {"time": 1345, "pitch": 59, "duration": 4, "velocity": 95}, {"time": 1348, "pitch": 67, "duration": 13, "velocity": 99}, {"time": 1351, "pitch": 62, "duration": 3, "velocity": 79}, {"time": 1354, "pitch": 59, "duration": 6, "velocity": 73}, {"time": 1357, "pitch": 62, "duration": 4, "velocity": 64}, {"time": 1360, "pitch": 40, "duration": 18, "velocity": 72}, {"time": 1363, "pitch": 47, "duration": 15, "velocity": 56}, {"time": 1366, "pitch": 52, "duration": 7, "velocity": 86}, {"time": 1369, "pitch": 55, "duration": 8, "velocity": 67}, {"time": 1372, "pitch": 64, "duration": 12, "velocity": 96}, {"time": 1375, "pitch": 52, "duration": 4, "velocity": 81}, {"time": 1378, "pitch": 59, "duration": 5, "velocity": 92}, {"time": 1381, "pitch": 55, "duration": 2, "velocity": 89}, {"time": 1384, "pitch": 45, "duration": 22, "velocity": 79}, {"time": 1387, "pitch": 52, "duration": 10, "velocity": 83}, {"time": 1390, "pitch": 57, "duration": 4, "velocity": 85}, {"time": 1393, "pitch": 61, "duration": 3, "velocity": 122}, {"time": 1396, "pitch": 64, "duration": 12, "velocity": 97}, {"time": 1399, "pitch": 52, "duration": 9, "velocity": 83}, {"time": 1402, "pitch": 61, "duration": 6, "velocity": 127}, {"time": 1405, "pitch": 59, "duration": 3, "velocity": 88}, {"time": 1408, "pitch": 45, "duration": 19, "velocity": 100}, {"time": 1411, "pitch": 52, "duration": 10, "velocity": 96}, {"time": 1414, "pitch": 57, "duration": 3, "velocity": 95}, {"time": 1417, "pitch": 61, "duration": 2, "velocity": 93}, {"time": 1417, "pitch": 64, "duration": 2, "velocity": 70}, {"time": 1420, "pitch": 61, "duration": 7, "velocity": 127}, {"time": 1420, "pitch": 64, "duration": 8, "velocity": 97}, {"time": 1423, "pitch": 52, "duration": 4, "velocity": 107}, {"time": 1426, "pitch": 57, "duration": 5, "velocity": 117}, {"time": 1429, "pitch": 61, "duration": 2, "velocity": 127}, {"time": 1429, "pitch": 64, "duration": 2, "velocity": 56}, {"time": 1432, "pitch": 40, "duration": 18, "velocity": 95}, {"time": 1432, "pitch": 64, "duration": 6, "velocity": 100}, {"time": 1432, "pitch": 67, "duration": 6, "velocity": 117}, {"time": 1435, "pitch": 47, "duration": 11, "velocity": 78}, {"time": 1438, "pitch": 59, "duration": 6, "velocity": 112}, {"time": 1441, "pitch": 52, "duration": 4, "velocity": 102}, {"time": 1444, "pitch": 64, "duration": 4, "velocity": 97}, {"time": 1444, "pitch": 67, "duration": 4, "velocity": 102}, {"time": 1447, "pitch": 47, "duration": 4, "velocity": 26}, {"time": 1447, "pitch": 52, "duration": 6, "velocity": 102}, {"time": 1450, "pitch": 64, "duration": 8, "velocity": 96}, {"time": 1450, "pitch": 67, "duration": 8, "velocity": 102}, {"time": 1453, "pitch": 59, "duration": 6, "velocity": 96}, {"time": 1456, "pitch": 42, "duration": 20, "velocity": 82}, {"time": 1459, "pitch": 49, "duration": 16, "velocity": 37}, {"time": 1462, "pitch": 57, "duration": 9, "velocity": 76}, {"time": 1462, "pitch": 61, "duration": 6, "velocity": 81}, {"time": 1465, "pitch": 54, "duration": 4, "velocity": 95}, {"time": 1468, "pitch": 66, "duration": 5, "velocity": 127}, {"time": 1471, "pitch": 54, "duration": 3, "velocity": 107}, {"time": 1474, "pitch": 61, "duration": 6, "velocity": 107}, {"time": 1474, "pitch": 66, "duration": 6, "velocity": 117}, {"time": 1477, "pitch": 57, "duration": 3, "velocity": 92}, {"time": 1480, "pitch": 40, "duration": 19, "velocity": 75}, {"time": 1483, "pitch": 47, "duration": 16, "velocity": 47}, {"time": 1486, "pitch": 59, "duration": 6, "velocity": 95}, {"time": 1489, "pitch": 52, "duration": 4, "velocity": 93}, {"time": 1492, "pitch": 64, "duration": 7, "velocity": 95}, {"time": 1492, "pitch": 67, "duration": 12, "velocity": 100}, {"time": 1495, "pitch": 52, "duration": 8, "velocity": 93}, {"time": 1498, "pitch": 59, "duration": 5, "velocity": 100}, {"time": 1501, "pitch": 64, "duration": 3, "velocity": 100}, {"time": 1504, "pitch": 43, "duration": 21, "velocity": 85}, {"time": 1507, "pitch": 50, "duration": 17, "velocity": 75}, {"time": 1510, "pitch": 55, "duration": 4, "velocity": 112}, {"time": 1513, "pitch": 62, "duration": 3, "velocity": 99}, {"time": 1516, "pitch": 69, "duration": 2, "velocity": 95}, {"time": 1516, "pitch": 71, "duration": 2, "velocity": 127}, {"time": 1519, "pitch": 62, "duration": 1, "velocity": 107}, {"time": 1519, "pitch": 67, "duration": 1, "velocity": 102}, {"time": 1522, "pitch": 59, "duration": 4, "velocity": 92}, {"time": 1525, "pitch": 57, "duration": 3, "velocity": 92}, {"time": 1528, "pitch": 47, "duration": 16, "velocity": 85}, {"time": 1531, "pitch": 54, "duration": 10, "velocity": 85}, {"time": 1534, "pitch": 59, "duration": 3, "velocity": 90}, {"time": 1537, "pitch": 62, "duration": 3, "velocity": 96}, {"time": 1540, "pitch": 66, "duration": 12, "velocity": 112}, {"time": 1543, "pitch": 54, "duration": 1, "velocity": 66}, {"time": 1546, "pitch": 62, "duration": 5, "velocity": 83}, {"time": 1549, "pitch": 59, "duration": 4, "velocity": 77}, {"time": 1552, "pitch": 42, "duration": 19, "velocity": 89}, {"time": 1555, "pitch": 49, "duration": 15, "velocity": 63}, {"time": 1558, "pitch": 54, "duration": 6, "velocity": 97}, {"time": 1561, "pitch": 61, "duration": 2, "velocity": 96}, {"time": 1561, "pitch": 66, "duration": 2, "velocity": 96}, {"time": 1564, "pitch": 61, "duration": 7, "velocity": 97}, {"time": 1564, "pitch": 66, "duration": 12, "velocity": 127}, {"time": 1567, "pitch": 54, "duration": 2, "velocity": 100}, {"time": 1570, "pitch": 57, "duration": 6, "velocity": 100}, {"time": 1573, "pitch": 61, "duration": 3, "velocity": 127}, {"time": 1576, "pitch": 40, "duration": 18, "velocity": 90}, {"time": 1579, "pitch": 47, "duration": 15, "velocity": 79}, {"time": 1582, "pitch": 52, "duration": 6, "velocity": 95}, {"time": 1585, "pitch": 59, "duration": 3, "velocity": 96}, {"time": 1588, "pitch": 64, "duration": 6, "velocity": 102}, {"time": 1588, "pitch": 67, "duration": 12, "velocity": 102}, {"time": 1591, "pitch": 52, "duration": 5, "velocity": 96}, {"time": 1594, "pitch": 59, "duration": 5, "velocity": 102}, {"time": 1597, "pitch": 45, "duration": 1, "velocity": 33}, {"time": 1597, "pitch": 64, "duration": 3, "velocity": 117}, {"time": 1600, "pitch": 45, "duration": 21, "velocity": 85}, {"time": 1603, "pitch": 52, "duration": 17, "velocity": 78}, {"time": 1606, "pitch": 57, "duration": 10, "velocity": 93}, {"time": 1606, "pitch": 67, "duration": 1, "velocity": 49}, {"time": 1606, "pitch": 69, "duration": 3, "velocity": 53}, {"time": 1609, "pitch": 76, "duration": 5, "velocity": 97}, {"time": 1612, "pitch": 73, "duration": 3, "velocity": 117}, {"time": 1615, "pitch": 69, "duration": 1, "velocity": 95}, {"time": 1618, "pitch": 64, "duration": 5, "velocity": 96}, {"time": 1621, "pitch": 61, "duration": 2, "velocity": 122}, {"time": 1624, "pitch": 40, "duration": 17, "velocity": 93}, {"time": 1627, "pitch": 47, "duration": 15, "velocity": 67}, {"time": 1630, "pitch": 52, "duration": 7, "velocity": 99}, {"time": 1633, "pitch": 64, "duration": 4, "velocity": 85}, {"time": 1636, "pitch": 71, "duration": 11, "velocity": 122}, {"time": 1639, "pitch": 52, "duration": 3, "velocity": 99}, {"time": 1642, "pitch": 67, "duration": 5, "velocity": 97}, {"time": 1645, "pitch": 64, "duration": 3, "velocity": 95}, {"time": 1648, "pitch": 42, "duration": 19, "velocity": 82}, {"time": 1651, "pitch": 49, "duration": 16, "velocity": 34}, {"time": 1651, "pitch": 54, "duration": 9, "velocity": 93}, {"time": 1654, "pitch": 66, "duration": 3, "velocity": 89}, {"time": 1657, "pitch": 69, "duration": 2, "velocity": 56}, {"time": 1660, "pitch": 66, "duration": 2, "velocity": 56}, {"time": 1660, "pitch": 69, "duration": 8, "velocity": 89}, {"time": 1660, "pitch": 73, "duration": 7, "velocity": 127}, {"time": 1663, "pitch": 54, "duration": 3, "velocity": 86}, {"time": 1666, "pitch": 66, "duration": 6, "velocity": 107}, {"time": 1669, "pitch": 69, "duration": 1, "velocity": 56}, {"time": 1669, "pitch": 73, "duration": 3, "velocity": 117}, {"time": 1672, "pitch": 40, "duration": 19, "velocity": 83}, {"time": 1675, "pitch": 47, "duration": 17, "velocity": 79}, {"time": 1675, "pitch": 52, "duration": 10, "velocity": 74}, {"time": 1678, "pitch": 55, "duration": 7, "velocity": 96}, {"time": 1681, "pitch": 59, "duration": 10, "velocity": 96}, {"time": 1684, "pitch": 64, "duration": 11, "velocity": 97}, {"time": 1687, "pitch": 52, "duration": 5, "velocity": 83}, {"time": 1690, "pitch": 55, "duration": 3, "velocity": 96}, {"time": 1693, "pitch": 59, "duration": 2, "velocity": 102}, {"time": 1696, "pitch": 43, "duration": 22, "velocity": 89}, {"time": 1699, "pitch": 50, "duration": 20, "velocity": 92}, {"time": 1702, "pitch": 55, "duration": 7, "velocity": 100}, {"time": 1705, "pitch": 59, "duration": 3, "velocity": 79}, {"time": 1708, "pitch": 62, "duration": 7, "velocity": 93}, {"time": 1708, "pitch": 67, "duration": 11, "velocity": 100}, {"time": 1711, "pitch": 55, "duration": 2, "velocity": 96}, {"time": 1714, "pitch": 59, "duration": 5, "velocity": 95}, {"time": 1717, "pitch": 62, "duration": 3, "velocity": 99}, {"time": 1720, "pitch": 47, "duration": 20, "velocity": 81}, {"time": 1723, "pitch": 54, "duration": 10, "velocity": 79}, {"time": 1726, "pitch": 59, "duration": 3, "velocity": 90}, {"time": 1729, "pitch": 62, "duration": 3, "velocity": 72}, {"time": 1732, "pitch": 66, "duration": 6, "velocity": 127}, {"time": 1735, "pitch": 54, "duration": 3, "velocity": 95}, {"time": 1738, "pitch": 54, "duration": 1, "velocity": 96}, {"time": 1738, "pitch": 62, "duration": 6, "velocity": 93}, {"time": 1741, "pitch": 59, "duration": 2, "velocity": 85}, {"time": 1741, "pitch": 66, "duration": 3, "velocity": 99}, {"time": 1744, "pitch": 42, "duration": 19, "velocity": 88}, {"time": 1747, "pitch": 49, "duration": 14, "velocity": 66}, {"time": 1750, "pitch": 54, "duration": 6, "velocity": 88}, {"time": 1753, "pitch": 57, "duration": 6, "velocity": 72}, {"time": 1756, "pitch": 66, "duration": 11, "velocity": 122}, {"time": 1759, "pitch": 54, "duration": 2, "velocity": 75}, {"time": 1762, "pitch": 61, "duration": 4, "velocity": 97}, {"time": 1765, "pitch": 57, "duration": 3, "velocity": 86}, {"time": 1768, "pitch": 40, "duration": 10, "velocity": 89}, {"time": 1768, "pitch": 47, "duration": 8, "velocity": 86}, {"time": 1771, "pitch": 52, "duration": 7, "velocity": 77}, {"time": 1774, "pitch": 59, "duration": 3, "velocity": 77}, {"time": 1774, "pitch": 64, "duration": 7, "velocity": 73}, {"time": 1777, "pitch": 67, "duration": 5, "velocity": 85}, {"time": 1780, "pitch": 59, "duration": 7, "velocity": 78}, {"time": 1783, "pitch": 64, "duration": 3, "velocity": 57}, {"time": 1786, "pitch": 67, "duration": 6, "velocity": 96}, {"time": 1789, "pitch": 64, "duration": 3, "velocity": 82}, {"time": 1792, "pitch": 45, "duration": 17, "velocity": 76}, {"time": 1795, "pitch": 52, "duration": 9, "velocity": 65}, {"time": 1798, "pitch": 57, "duration": 3, "velocity": 88}, {"time": 1801, "pitch": 61, "duration": 2, "velocity": 92}, {"time": 1804, "pitch": 64, "duration": 12, "velocity": 99}, {"time": 1807, "pitch": 52, "duration": 1, "velocity": 71}, {"time": 1810, "pitch": 61, "duration": 5, "velocity": 74}, {"time": 1813, "pitch": 57, "duration": 3, "velocity": 77}, {"time": 1816, "pitch": 45, "duration": 17, "velocity": 89}, {"time": 1819, "pitch": 52, "duration": 9, "velocity": 54}, {"time": 1822, "pitch": 57, "duration": 3, "velocity": 88}, {"time": 1825, "pitch": 61, "duration": 2, "velocity": 82}, {"time": 1828, "pitch": 64, "duration": 11, "velocity": 112}, {"time": 1831, "pitch": 52, "duration": 1, "velocity": 69}, {"time": 1834, "pitch": 61, "duration": 4, "velocity": 102}, {"time": 1837, "pitch": 57, "duration": 3, "velocity": 89}, {"time": 1840, "pitch": 38, "duration": 15, "velocity": 81}, {"time": 1843, "pitch": 45, "duration": 12, "velocity": 50}, {"time": 1846, "pitch": 50, "duration": 11, "velocity": 78}, {"time": 1849, "pitch": 57, "duration": 4, "velocity": 72}, {"time": 1852, "pitch": 66, "duration": 12, "velocity": 127}, {"time": 1858, "pitch": 62, "duration": 6, "velocity": 50}, {"time": 1864, "pitch": 42, "duration": 18, "velocity": 74}, {"time": 1867, "pitch": 49, "duration": 14, "velocity": 27}, {"time": 1870, "pitch": 54, "duration": 13, "velocity": 78}, {"time": 1873, "pitch": 57, "duration": 5, "velocity": 70}, {"time": 1876, "pitch": 66, "duration": 12, "velocity": 127}, {"time": 1882, "pitch": 61, "duration": 6, "velocity": 54}, {"time": 1888, "pitch": 47, "duration": 16, "velocity": 67}, {"time": 1891, "pitch": 54, "duration": 11, "velocity": 40}, {"time": 1894, "pitch": 59, "duration": 3, "velocity": 67}, {"time": 1897, "pitch": 62, "duration": 3, "velocity": 73}, {"time": 1900, "pitch": 66, "duration": 12, "velocity": 127}, {"time": 1903, "pitch": 54, "duration": 1, "velocity": 68}, {"time": 1906, "pitch": 62, "duration": 6, "velocity": 93}, {"time": 1909, "pitch": 59, "duration": 4, "velocity": 60}, {"time": 1912, "pitch": 42, "duration": 18, "velocity": 59}, {"time": 1915, "pitch": 49, "duration": 14, "velocity": 39}, {"time": 1918, "pitch": 54, "duration": 7, "velocity": 90}, {"time": 1921, "pitch": 57, "duration": 9, "velocity": 62}, {"time": 1924, "pitch": 66, "duration": 12, "velocity": 112}, {"time": 1927, "pitch": 54, "duration": 2, "velocity": 71}, {"time": 1930, "pitch": 61, "duration": 6, "velocity": 107}, {"time": 1933, "pitch": 57, "duration": 3, "velocity": 82}, {"time": 1936, "pitch": 40, "duration": 18, "velocity": 78}, {"time": 1939, "pitch": 47, "duration": 15, "velocity": 35}, {"time": 1942, "pitch": 52, "duration": 8, "velocity": 76}, {"time": 1945, "pitch": 59, "duration": 9, "velocity": 67}, {"time": 1948, "pitch": 67, "duration": 13, "velocity": 117}, {"time": 1951, "pitch": 52, "duration": 6, "velocity": 62}, {"time": 1954, "pitch": 64, "duration": 7, "velocity": 77}, {"time": 1957, "pitch": 59, "duration": 4, "velocity": 57}, {"time": 1960, "pitch": 43, "duration": 19, "velocity": 71}, {"time": 1963, "pitch": 50, "duration": 11, "velocity": 63}, {"time": 1966, "pitch": 55, "duration": 3, "velocity": 75}, {"time": 1969, "pitch": 59, "duration": 15, "velocity": 64}, {"time": 1969, "pitch": 62, "duration": 15, "velocity": 66}, {"time": 1975, "pitch": 50, "duration": 3, "velocity": 53}, {"time": 1978, "pitch": 55, "duration": 5, "velocity": 85}, {"time": 1984, "pitch": 40, "duration": 18, "velocity": 92}, {"time": 1987, "pitch": 47, "duration": 15, "velocity": 49}, {"time": 1990, "pitch": 52, "duration": 7, "velocity": 79}, {"time": 1993, "pitch": 59, "duration": 6, "velocity": 79}, {"time": 1996, "pitch": 67, "duration": 12, "velocity": 107}, {"time": 1999, "pitch": 52, "duration": 5, "velocity": 73}, {"time": 2002, "pitch": 64, "duration": 6, "velocity": 102}, {"time": 2005, "pitch": 59, "duration": 3, "velocity": 93}, {"time": 2008, "pitch": 45, "duration": 20, "velocity": 89}, {"time": 2011, "pitch": 52, "duration": 10, "velocity": 93}, {"time": 2014, "pitch": 57, "duration": 3, "velocity": 100}, {"time": 2017, "pitch": 61, "duration": 2, "velocity": 127}, {"time": 2017, "pitch": 64, "duration": 2, "velocity": 102}, {"time": 2020, "pitch": 61, "duration": 6, "velocity": 127}, {"time": 2020, "pitch": 64, "duration": 11, "velocity": 100}, {"time": 2023, "pitch": 52, "duration": 4, "velocity": 96}, {"time": 2026, "pitch": 57, "duration": 6, "velocity": 100}, {"time": 2029, "pitch": 61, "duration": 3, "velocity": 112}, {"time": 2032, "pitch": 38, "duration": 22, "velocity": 83}, {"time": 2035, "pitch": 45, "duration": 21, "velocity": 51}, {"time": 2038, "pitch": 50, "duration": 7, "velocity": 69}, {"time": 2041, "pitch": 57, "duration": 17, "velocity": 69}, {"time": 2044, "pitch": 66, "duration": 13, "velocity": 127}, {"time": 2047, "pitch": 50, "duration": 3, "velocity": 77}, {"time": 2050, "pitch": 64, "duration": 7, "velocity": 85}, {"time": 2053, "pitch": 62, "duration": 4, "velocity": 72}, {"time": 2056, "pitch": 38, "duration": 22, "velocity": 59}, {"time": 2059, "pitch": 45, "duration": 21, "velocity": 42}, {"time": 2062, "pitch": 50, "duration": 7, "velocity": 79}, {"time": 2065, "pitch": 57, "duration": 15, "velocity": 63}, {"time": 2068, "pitch": 66, "duration": 12, "velocity": 127}, {"time": 2071, "pitch": 50, "duration": 2, "velocity": 67}, {"time": 2074, "pitch": 64, "duration": 3, "velocity": 51}, {"time": 2077, "pitch": 62, "duration": 3, "velocity": 82}, {"time": 2080, "pitch": 40, "duration": 18, "velocity": 77}, {"time": 2083, "pitch": 47, "duration": 14, "velocity": 52}, {"time": 2086, "pitch": 52, "duration": 7, "velocity": 93}, {"time": 2089, "pitch": 59, "duration": 9, "velocity": 82}, {"time": 2092, "pitch": 67, "duration": 12, "velocity": 127}, {"time": 2095, "pitch": 52, "duration": 3, "velocity": 73}, {"time": 2098, "pitch": 64, "duration": 6, "velocity": 85}, {"time": 2101, "pitch": 59, "duration": 3, "velocity": 60}, {"time": 2104, "pitch": 45, "duration": 17, "velocity": 79}, {"time": 2107, "pitch": 52, "duration": 10, "velocity": 44}, {"time": 2110, "pitch": 57, "duration": 5, "velocity": 89}, {"time": 2113, "pitch": 61, "duration": 3, "velocity": 93}, {"time": 2116, "pitch": 64, "duration": 13, "velocity": 99}, {"time": 2119, "pitch": 52, "duration": 2, "velocity": 46}, {"time": 2122, "pitch": 61, "duration": 6, "velocity": 88}, {"time": 2128, "pitch": 38, "duration": 22, "velocity": 76}, {"time": 2131, "pitch": 45, "duration": 20, "velocity": 69}, {"time": 2134, "pitch": 50, "duration": 7, "velocity": 76}, {"time": 2137, "pitch": 57, "duration": 16, "velocity": 86}, {"time": 2140, "pitch": 66, "duration": 13, "velocity": 127}, {"time": 2143, "pitch": 50, "duration": 3, "velocity": 85}, {"time": 2146, "pitch": 64, "duration": 4, "velocity": 85}, {"time": 2149, "pitch": 62, "duration": 4, "velocity": 82}, {"time": 2152, "pitch": 38, "duration": 20, "velocity": 86}, {"time": 2155, "pitch": 45, "duration": 21, "velocity": 39}, {"time": 2158, "pitch": 50, "duration": 7, "velocity": 92}, {"time": 2161, "pitch": 57, "duration": 15, "velocity": 102}, {"time": 2164, "pitch": 66, "duration": 12, "velocity": 127}, {"time": 2167, "pitch": 50, "duration": 3, "velocity": 74}, {"time": 2170, "pitch": 64, "duration": 6, "velocity": 93}, {"time": 2176, "pitch": 38, "duration": 23, "velocity": 74}, {"time": 2179, "pitch": 45, "duration": 22, "velocity": 58}, {"time": 2182, "pitch": 50, "duration": 7, "velocity": 97}, {"time": 2185, "pitch": 57, "duration": 23, "velocity": 86}, {"time": 2188, "pitch": 66, "duration": 22, "velocity": 127}, {"time": 2191, "pitch": 50, "duration": 3, "velocity": 90}, {"time": 2194, "pitch": 64, "duration": 13, "velocity": 68}, {"time": 2197, "pitch": 62, "duration": 8, "velocity": 73}, {"time": 2200, "pitch": 38, "duration": 22, "velocity": 77}, {"time": 2203, "pitch": 45, "duration": 22, "velocity": 55}, {"time": 2206, "pitch": 50, "duration": 7, "velocity": 96}, {"time": 2209, "pitch": 57, "duration": 17, "velocity": 66}, {"time": 2212, "pitch": 66, "duration": 12, "velocity": 127}, {"time": 2215, "pitch": 50, "duration": 8, "velocity": 78}, {"time": 2218, "pitch": 64, "duration": 6, "velocity": 65}, {"time": 2221, "pitch": 62, "duration": 4, "velocity": 45}, {"time": 2224, "pitch": 38, "duration": 22, "velocity": 73}, {"time": 2227, "pitch": 45, "duration": 21, "velocity": 69}, {"time": 2230, "pitch": 50, "duration": 7, "velocity": 97}, {"time": 2233, "pitch": 57, "duration": 22, "velocity": 95}, {"time": 2236, "pitch": 66, "duration": 21, "velocity": 117}, {"time": 2239, "pitch": 50, "duration": 5, "velocity": 75}, {"time": 2242, "pitch": 64, "duration": 15, "velocity": 52}, {"time": 2245, "pitch": 62, "duration": 12, "velocity": 81}, {"time": 2248, "pitch": 38, "duration": 22, "velocity": 81}, {"time": 2251, "pitch": 45, "duration": 21, "velocity": 67}, {"time": 2254, "pitch": 50, "duration": 7, "velocity": 92}, {"time": 2257, "pitch": 57, "duration": 15, "velocity": 69}, {"time": 2260, "pitch": 66, "duration": 12, "velocity": 117}, {"time": 2263, "pitch": 50, "duration": 13, "velocity": 74}, {"time": 2266, "pitch": 64, "duration": 6, "velocity": 78}, {"time": 2269, "pitch": 62, "duration": 4, "velocity": 69}, {"time": 2272, "pitch": 38, "duration": 22, "velocity": 81}, {"time": 2275, "pitch": 45, "duration": 22, "velocity": 41}, {"time": 2278, "pitch": 50, "duration": 6, "velocity": 81}, {"time": 2281, "pitch": 69, "duration": 4, "velocity": 43}, {"time": 2284, "pitch": 74, "duration": 7, "velocity": 93}, {"time": 2284, "pitch": 78, "duration": 12, "velocity": 117}, {"time": 2287, "pitch": 50, "duration": 7, "velocity": 83}, {"time": 2290, "pitch": 69, "duration": 7, "velocity": 66}, {"time": 2293, "pitch": 74, "duration": 3, "velocity": 60}, {"time": 2296, "pitch": 38, "duration": 21, "velocity": 62}, {"time": 2299, "pitch": 45, "duration": 21, "velocity": 45}, {"time": 2302, "pitch": 50, "duration": 6, "velocity": 75}, {"time": 2305, "pitch": 57, "duration": 2, "velocity": 46}, {"time": 2305, "pitch": 62, "duration": 2, "velocity": 68}, {"time": 2305, "pitch": 66, "duration": 2, "velocity": 61}, {"time": 2308, "pitch": 62, "duration": 8, "velocity": 100}, {"time": 2308, "pitch": 66, "duration": 7, "velocity": 112}, {"time": 2311, "pitch": 50, "duration": 12, "velocity": 58}, {"time": 2314, "pitch": 57, "duration": 13, "velocity": 55}, {"time": 2317, "pitch": 62, "duration": 13, "velocity": 55}, {"time": 2317, "pitch": 66, "duration": 13, "velocity": 55}, {"time": 2320, "pitch": 38, "duration": 22, "velocity": 62}, {"time": 2323, "pitch": 45, "duration": 21, "velocity": 44}, {"time": 2326, "pitch": 50, "duration": 6, "velocity": 64}, {"time": 2329, "pitch": 57, "duration": 23, "velocity": 58}, {"time": 2332, "pitch": 66, "duration": 22, "velocity": 112}, {"time": 2335, "pitch": 50, "duration": 12, "velocity": 69}, {"time": 2338, "pitch": 64, "duration": 16, "velocity": 56}, {"time": 2341, "pitch": 62, "duration": 13, "velocity": 48}, {"time": 2344, "pitch": 38, "duration": 22, "velocity": 48}, {"time": 2347, "pitch": 45, "duration": 21, "velocity": 27}, {"time": 2350, "pitch": 50, "duration": 6, "velocity": 44}, {"time": 2353, "pitch": 57, "duration": 22, "velocity": 47}, {"time": 2356, "pitch": 66, "duration": 22, "velocity": 99}, {"time": 2359, "pitch": 50, "duration": 12, "velocity": 40}, {"time": 2362, "pitch": 64, "duration": 16, "velocity": 40}, {"time": 2365, "pitch": 62, "duration": 12, "velocity": 35}, {"time": 2368, "pitch": 38, "duration": 22, "velocity": 44}, {"time": 2371, "pitch": 45, "duration": 21, "velocity": 27}, {"time": 2374, "pitch": 50, "duration": 6, "velocity": 35}, {"time": 2377, "pitch": 57, "duration": 21, "velocity": 51}, {"time": 2380, "pitch": 66, "duration": 21, "velocity": 92}, {"time": 2383, "pitch": 50, "duration": 11, "velocity": 40}, {"time": 2386, "pitch": 64, "duration": 15, "velocity": 44}, {"time": 2389, "pitch": 62, "duration": 12, "velocity": 37}, {"time": 2392, "pitch": 38, "duration": 22, "velocity": 39}, {"time": 2395, "pitch": 45, "duration": 21, "velocity": 27}, {"time": 2398, "pitch": 50, "duration": 7, "velocity": 32}, {"time": 2401, "pitch": 57, "duration": 23, "velocity": 38}, {"time": 2404, "pitch": 66, "duration": 22, "velocity": 52}, {"time": 2407, "pitch": 50, "duration": 9, "velocity": 32}, {"time": 2410, "pitch": 64, "duration": 15, "velocity": 42}, {"time": 2413, "pitch": 62, "duration": 13, "velocity": 41}, {"time": 2416, "pitch": 38, "duration": 22, "velocity": 52}, {"time": 2419, "pitch": 45, "duration": 22, "velocity": 35}, {"time": 2422, "pitch": 50, "duration": 7, "velocity": 38}, {"time": 2425, "pitch": 57, "duration": 23, "velocity": 42}, {"time": 2428, "pitch": 66, "duration": 21, "velocity": 89}, {"time": 2431, "pitch": 50, "duration": 8, "velocity": 40}, {"time": 2434, "pitch": 64, "duration": 15, "velocity": 41}, {"time": 2437, "pitch": 62, "duration": 13, "velocity": 34}, {"time": 2440, "pitch": 38, "duration": 20, "velocity": 42}, {"time": 2443, "pitch": 45, "duration": 21, "velocity": 42}, {"time": 2446, "pitch": 50, "duration": 6, "velocity": 41}, {"time": 2449, "pitch": 57, "duration": 10, "velocity": 53}, {"time": 2452, "pitch": 66, "duration": 22, "velocity": 88}, {"time": 2455, "pitch": 50, "duration": 13, "velocity": 37}, {"time": 2458, "pitch": 62, "duration": 14, "velocity": 35}, {"time": 2461, "pitch": 57, "duration": 9, "velocity": 37}, {"time": 2464, "pitch": 38, "duration": 13, "velocity": 55}, {"time": 2467, "pitch": 45, "duration": 10, "velocity": 29}, {"time": 2470, "pitch": 50, "duration": 6, "velocity": 26}, {"time": 2473, "pitch": 57, "duration": 4, "velocity": 37}, {"time": 2476, "pitch": 62, "duration": 5, "velocity": 33}, {"time": 2476, "pitch": 66, "duration": 5, "velocity": 32}], "annotations": [{"time": 0, "annotation": {"number": 7, "value": 101}, "group": "control_change"}, {"time": 17, "annotation": {"number": 64, "value": 127}, "group": "control_change"}, {"time": 39, "annotation": {"number": 64, "value": 0}, "group": "control_change"}, {"time": 41, "annotation": {"number": 64, "value": 127}, "group": "control_change"}, {"time": 63, "annotation": {"number": 64, "value": 0}, "group": "control_change"}, {"time": 65, "annotation": {"number": 64, "value": 127}, "group": "control_change"}, {"time": 87, "annotation": {"number": 64, "value": 0}, "group": "control_change"}, {"time": 89, "annotation": {"number": 64, "value": 127}, "group": "control_change"}, {"time": 110, "annotation": {"number": 64, "value": 0}, "group": "control_change"}, {"time": 113, "annotation": {"number": 64, "value": 127}, "group": "control_change"}, {"time": 134, "annotation": {"number": 64, "value": 0}, "group": "control_change"}, {"time": 136, "annotation": {"number": 64, "value": 127}, "group": "control_change"}, {"time": 147, "annotation": {"number": 64, "value": 0}, "group": "control_change"}, {"time": 149, "annotation": {"number": 64, "value": 127}, "group": "control_change"}, {"time": 157, "annotation": {"number": 64, "value": 0}, "group": "control_change"}, {"time": 161, "annotation": {"number": 64, "value": 127}, "group": "control_change"}, {"time": 182, "annotation": {"number": 64, "value": 0}, "group": "control_change"}, {"time": 184, "annotation": {"number": 64, "value": 127}, "group": "control_change"}, {"time": 204, "annotation": {"number": 64, "value": 0}, "group": "control_change"}, {"time": 208, "annotation": {"number": 64, "value": 127}, "group": "control_change"}, {"time": 231, "annotation": {"number": 64, "value": 0}, "group": "control_change"}, {"time": 232, "annotation": {"number": 64, "value": 127}, "group": "control_change"}, {"time": 254, "annotation": {"number": 64, "value": 0}, "group": "control_change"}, {"time": 257, "annotation": {"number": 64, "value": 127}, "group": "control_change"}, {"time": 279, "annotation": {"number": 64, "value": 0}, "group": "control_change"}, {"time": 281, "annotation": {"number": 64, "value": 127}, "group": "control_change"}, {"time": 303, "annotation": {"number": 64, "value": 0}, "group": "control_change"}, {"time": 304, "annotation": {"number": 64, "value": 127}, "group": "control_change"}, {"time": 327, "annotation": {"number": 64, "value": 0}, "group": "control_change"}, {"time": 328, "annotation": {"number": 64, "value": 127}, "group": "control_change"}, {"time": 350, "annotation": {"number": 64, "value": 0}, "group": "control_change"}, {"time": 352, "annotation": {"number": 64, "value": 127}, "group": "control_change"}, {"time": 375, "annotation": {"number": 64, "value": 0}, "group": "control_change"}, {"time": 376, "annotation": {"number": 64, "value": 127}, "group": "control_change"}, {"time": 398, "annotation": {"number": 64, "value": 0}, "group": "control_change"}, {"time": 400, "annotation": {"number": 64, "value": 127}, "group": "control_change"}, {"time": 422, "annotation": {"number": 64, "value": 0}, "group": "control_change"}, {"time": 424, "annotation": {"number": 64, "value": 127}, "group": "control_change"}, {"time": 447, "annotation": {"number": 64, "value": 0}, "group": "control_change"}, {"time": 448, "annotation": {"number": 64, "value": 127}, "group": "control_change"}, {"time": 470, "annotation": {"number": 64, "value": 0}, "group": "control_change"}, {"time": 472, "annotation": {"number": 64, "value": 127}, "group": "control_change"}, {"time": 494, "annotation": {"number": 64, "value": 0}, "group": "control_change"}, {"time": 496, "annotation": {"number": 64, "value": 127}, "group": "control_change"}, {"time": 518, "annotation": {"number": 64, "value": 0}, "group": "control_change"}, {"time": 520, "annotation": {"number": 64, "value": 127}, "group": "control_change"}, {"time": 542, "annotation": {"number": 64, "value": 0}, "group": "control_change"}, {"time": 544, "annotation": {"number": 64, "value": 127}, "group": "control_change"}, {"time": 566, "annotation": {"number": 64, "value": 0}, "group": "control_change"}, {"time": 568, "annotation": {"number": 64, "value": 127}, "group": "control_change"}, {"time": 590, "annotation": {"number": 64, "value": 0}, "group": "control_change"}, {"time": 592, "annotation": {"number": 64, "value": 127}, "group": "control_change"}, {"time": 614, "annotation": {"number": 64, "value": 0}, "group": "control_change"}, {"time": 616, "annotation": {"number": 64, "value": 127}, "group": "control_change"}, {"time": 639, "annotation": {"number": 64, "value": 0}, "group": "control_change"}, {"time": 640, "annotation": {"number": 64, "value": 127}, "group": "control_change"}, {"time": 650, "annotation": {"number": 64, "value": 0}, "group": "control_change"}, {"time": 652, "annotation": {"number": 64, "value": 127}, "group": "control_change"}, {"time": 663, "annotation": {"number": 64, "value": 0}, "group": "control_change"}, {"time": 664, "annotation": {"number": 64, "value": 127}, "group": "control_change"}, {"time": 675, "annotation": {"number": 64, "value": 0}, "group": "control_change"}, {"time": 676, "annotation": {"number": 64, "value": 127}, "group": "control_change"}, {"time": 687, "annotation": {"number": 64, "value": 0}, "group": "control_change"}, {"time": 688, "annotation": {"number": 64, "value": 127}, "group": "control_change"}, {"time": 710, "annotation": {"number": 64, "value": 0}, "group": "control_change"}, {"time": 712, "annotation": {"number": 64, "value": 127}, "group": "control_change"}, {"time": 735, "annotation": {"number": 64, "value": 0}, "group": "control_change"}, {"time": 736, "annotation": {"number": 64, "value": 127}, "group": "control_change"}, {"time": 758, "annotation": {"number": 64, "value": 0}, "group": "control_change"}, {"time": 760, "annotation": {"number": 64, "value": 127}, "group": "control_change"}, {"time": 783, "annotation": {"number": 64, "value": 0}, "group": "control_change"}, {"time": 784, "annotation": {"number": 64, "value": 127}, "group": "control_change"}, {"time": 806, "annotation": {"number": 64, "value": 0}, "group": "control_change"}, {"time": 808, "annotation": {"number": 64, "value": 127}, "group": "control_change"}, {"time": 831, "annotation": {"number": 64, "value": 0}, "group": "control_change"}, {"time": 832, "annotation": {"number": 64, "value": 127}, "group": "control_change"}, {"time": 854, "annotation": {"number": 64, "value": 0}, "group": "control_change"}, {"time": 856, "annotation": {"number": 64, "value": 127}, "group": "control_change"}, {"time": 878, "annotation": {"number": 64, "value": 0}, "group": "control_change"}, {"time": 880, "annotation": {"number": 64, "value": 127}, "group": "control_change"}, {"time": 903, "annotation": {"number": 64, "value": 0}, "group": "control_change"}, {"time": 904, "annotation": {"number": 64, "value": 127}, "group": "control_change"}, {"time": 926, "annotation": {"number": 64, "value": 0}, "group": "control_change"}, {"time": 927, "annotation": {"number": 64, "value": 127}, "group": "control_change"}, {"time": 951, "annotation": {"number": 64, "value": 0}, "group": "control_change"}, {"time": 952, "annotation": {"number": 64, "value": 127}, "group": "control_change"}, {"time": 974, "annotation": {"number": 64, "value": 0}, "group": "control_change"}, {"time": 976, "annotation": {"number": 64, "value": 127}, "group": "control_change"}, {"time": 999, "annotation": {"number": 64, "value": 0}, "group": "control_change"}, {"time": 1000, "annotation": {"number": 64, "value": 127}, "group": "control_change"}, {"time": 1022, "annotation": {"number": 64, "value": 0}, "group": "control_change"}, {"time": 1024, "annotation": {"number": 64, "value": 127}, "group": "control_change"}, {"time": 1046, "annotation": {"number": 64, "value": 0}, "group": "control_change"}, {"time": 1048, "annotation": {"number": 64, "value": 127}, "group": "control_change"}, {"time": 1070, "annotation": {"number": 64, "value": 0}, "group": "control_change"}, {"time": 1072, "annotation": {"number": 64, "value": 127}, "group": "control_change"}, {"time": 1094, "annotation": {"number": 64, "value": 0}, "group": "control_change"}, {"time": 1096, "annotation": {"number": 64, "value": 127}, "group": "control_change"}, {"time": 1118, "annotation": {"number": 64, "value": 0}, "group": "control_change"}, {"time": 1120, "annotation": {"number": 64, "value": 127}, "group": "control_change"}, {"time": 1142, "annotation": {"number": 64, "value": 0}, "group": "control_change"}, {"time": 1144, "annotation": {"number": 64, "value": 127}, "group": "control_change"}, {"time": 1166, "annotation": {"number": 64, "value": 0}, "group": "control_change"}, {"time": 1168, "annotation": {"number": 64, "value": 127}, "group": "control_change"}, {"time": 1190, "annotation": {"number": 64, "value": 0}, "group": "control_change"}, {"time": 1193, "annotation": {"number": 64, "value": 127}, "group": "control_change"}, {"time": 1210, "annotation": {"number": 64, "value": 0}, "group": "control_change"}, {"time": 1216, "annotation": {"number": 64, "value": 127}, "group": "control_change"}, {"time": 1239, "annotation": {"number": 64, "value": 0}, "group": "control_change"}, {"time": 1240, "annotation": {"number": 64, "value": 127}, "group": "control_change"}, {"time": 1262, "annotation": {"number": 64, "value": 0}, "group": "control_change"}, {"time": 1264, "annotation": {"number": 64, "value": 127}, "group": "control_change"}, {"time": 1286, "annotation": {"number": 64, "value": 0}, "group": "control_change"}, {"time": 1288, "annotation": {"number": 64, "value": 127}, "group": "control_change"}, {"time": 1310, "annotation": {"number": 64, "value": 0}, "group": "control_change"}, {"time": 1312, "annotation": {"number": 64, "value": 127}, "group": "control_change"}, {"time": 1334, "annotation": {"number": 64, "value": 0}, "group": "control_change"}, {"time": 1336, "annotation": {"number": 64, "value": 127}, "group": "control_change"}, {"time": 1358, "annotation": {"number": 64, "value": 0}, "group": "control_change"}, {"time": 1360, "annotation": {"number": 64, "value": 127}, "group": "control_change"}, {"time": 1382, "annotation": {"number": 64, "value": 0}, "group": "control_change"}, {"time": 1384, "annotation": {"number": 64, "value": 127}, "group": "control_change"}, {"time": 1406, "annotation": {"number": 64, "value": 0}, "group": "control_change"}, {"time": 1408, "annotation": {"number": 64, "value": 127}, "group": "control_change"}, {"time": 1431, "annotation": {"number": 64, "value": 0}, "group": "control_change"}, {"time": 1432, "annotation": {"number": 64, "value": 127}, "group": "control_change"}, {"time": 1442, "annotation": {"number": 64, "value": 0}, "group": "control_change"}, {"time": 1444, "annotation": {"number": 64, "value": 127}, "group": "control_change"}, {"time": 1455, "annotation": {"number": 64, "value": 0}, "group": "control_change"}, {"time": 1456, "annotation": {"number": 64, "value": 127}, "group": "control_change"}, {"time": 1467, "annotation": {"number": 64, "value": 0}, "group": "control_change"}, {"time": 1468, "annotation": {"number": 64, "value": 127}, "group": "control_change"}, {"time": 1479, "annotation": {"number": 64, "value": 0}, "group": "control_change"}, {"time": 1480, "annotation": {"number": 64, "value": 127}, "group": "control_change"}, {"time": 1502, "annotation": {"number": 64, "value": 0}, "group": "control_change"}, {"time": 1504, "annotation": {"number": 64, "value": 127}, "group": "control_change"}, {"time": 1527, "annotation": {"number": 64, "value": 0}, "group": "control_change"}, {"time": 1528, "annotation": {"number": 64, "value": 127}, "group": "control_change"}, {"time": 1550, "annotation": {"number": 64, "value": 0}, "group": "control_change"}, {"time": 1552, "annotation": {"number": 64, "value": 127}, "group": "control_change"}, {"time": 1575, "annotation": {"number": 64, "value": 0}, "group": "control_change"}, {"time": 1576, "annotation": {"number": 64, "value": 127}, "group": "control_change"}, {"time": 1598, "annotation": {"number": 64, "value": 0}, "group": "control_change"}, {"time": 1600, "annotation": {"number": 64, "value": 127}, "group": "control_change"}, {"time": 1623, "annotation": {"number": 64, "value": 0}, "group": "control_change"}, {"time": 1624, "annotation": {"number": 64, "value": 127}, "group": "control_change"}, {"time": 1646, "annotation": {"number": 64, "value": 0}, "group": "control_change"}, {"time": 1648, "annotation": {"number": 64, "value": 127}, "group": "control_change"}, {"time": 1670, "annotation": {"number": 64, "value": 0}, "group": "control_change"}, {"time": 1672, "annotation": {"number": 64, "value": 127}, "group": "control_change"}, {"time": 1695, "annotation": {"number": 64, "value": 0}, "group": "control_change"}, {"time": 1696, "annotation": {"number": 64, "value": 127}, "group": "control_change"}, {"time": 1718, "annotation": {"number": 64, "value": 0}, "group": "control_change"}, {"time": 1719, "annotation": {"number": 64, "value": 127}, "group": "control_change"}, {"time": 1743, "annotation": {"number": 64, "value": 0}, "group": "control_change"}, {"time": 1744, "annotation": {"number": 64, "value": 127}, "group": "control_change"}, {"time": 1766, "annotation": {"number": 64, "value": 0}, "group": "control_change"}, {"time": 1768, "annotation": {"number": 64, "value": 127}, "group": "control_change"}, {"time": 1791, "annotation": {"number": 64, "value": 0}, "group": "control_change"}, {"time": 1792, "annotation": {"number": 64, "value": 127}, "group": "control_change"}, {"time": 1814, "annotation": {"number": 64, "value": 0}, "group": "control_change"}, {"time": 1816, "annotation": {"number": 64, "value": 127}, "group": "control_change"}, {"time": 1837, "annotation": {"number": 64, "value": 0}, "group": "control_change"}, {"time": 1839, "annotation": {"number": 64, "value": 127}, "group": "control_change"}, {"time": 1861, "annotation": {"number": 64, "value": 0}, "group": "control_change"}, {"time": 1863, "annotation": {"number": 64, "value": 127}, "group": "control_change"}, {"time": 1886, "annotation": {"number": 64, "value": 0}, "group": "control_change"}, {"time": 1887, "annotation": {"number": 64, "value": 127}, "group": "control_change"}, {"time": 1909, "annotation": {"number": 64, "value": 0}, "group": "control_change"}, {"time": 1911, "annotation": {"number": 64, "value": 127}, "group": "control_change"}, {"time": 1933, "annotation": {"number": 64, "value": 0}, "group": "control_change"}, {"time": 1935, "annotation": {"number": 64, "value": 127}, "group": "control_change"}, {"time": 1958, "annotation": {"number": 64, "value": 0}, "group": "control_change"}, {"time": 1960, "annotation": {"number": 64, "value": 127}, "group": "control_change"}, {"time": 1982, "annotation": {"number": 64, "value": 0}, "group": "control_change"}, {"time": 1983, "annotation": {"number": 64, "value": 127}, "group": "control_change"}, {"time": 2006, "annotation": {"number": 64, "value": 0}, "group": "control_change"}, {"time": 2008, "annotation": {"number": 64, "value": 127}, "group": "control_change"}, {"time": 2029, "annotation": {"number": 64, "value": 0}, "group": "control_change"}, {"time": 2032, "annotation": {"number": 64, "value": 127}, "group": "control_change"}, {"time": 2053, "annotation": {"number": 64, "value": 0}, "group": "control_change"}, {"time": 2056, "annotation": {"number": 64, "value": 127}, "group": "control_change"}, {"time": 2077, "annotation": {"number": 64, "value": 0}, "group": "control_change"}, {"time": 2080, "annotation": {"number": 64, "value": 127}, "group": "control_change"}, {"time": 2102, "annotation": {"number": 64, "value": 0}, "group": "control_change"}, {"time": 2104, "annotation": {"number": 64, "value": 127}, "group": "control_change"}, {"time": 2125, "annotation": {"number": 64, "value": 0}, "group": "control_change"}, {"time": 2129, "annotation": {"number": 64, "value": 127}, "group": "control_change"}, {"time": 2150, "annotation": {"number": 64, "value": 0}, "group": "control_change"}, {"time": 2152, "annotation": {"number": 64, "value": 127}, "group": "control_change"}, {"time": 2173, "annotation": {"number": 64, "value": 0}, "group": "control_change"}, {"time": 2176, "annotation": {"number": 64, "value": 127}, "group": "control_change"}, {"time": 2197, "annotation": {"number": 64, "value": 0}, "group": "control_change"}, {"time": 2200, "annotation": {"number": 64, "value": 127}, "group": "control_change"}, {"time": 2221, "annotation": {"number": 64, "value": 0}, "group": "control_change"}, {"time": 2224, "annotation": {"number": 64, "value": 127}, "group": "control_change"}, {"time": 2246, "annotation": {"number": 64, "value": 0}, "group": "control_change"}, {"time": 2248, "annotation": {"number": 64, "value": 127}, "group": "control_change"}, {"time": 2299, "annotation": {"number": 7, "value": 101}, "group": "control_change"}, {"time": 2302, "annotation": {"number": 7, "value": 100}, "group": "control_change"}, {"time": 2305, "annotation": {"number": 7, "value": 99}, "group": "control_change"}, {"time": 2308, "annotation": {"number": 7, "value": 98}, "group": "control_change"}, {"time": 2311, "annotation": {"number": 7, "value": 97}, "group": "control_change"}, {"time": 2314, "annotation": {"number": 7, "value": 96}, "group": "control_change"}, {"time": 2317, "annotation": {"number": 7, "value": 95}, "group": "control_change"}, {"time": 2317, "annotation": {"number": 64, "value": 0}, "group": "control_change"}, {"time": 2319, "annotation": {"number": 64, "value": 127}, "group": "control_change"}, {"time": 2320, "annotation": {"number": 7, "value": 94}, "group": "control_change"}, {"time": 2323, "annotation": {"number": 7, "value": 93}, "group": "control_change"}, {"time": 2326, "annotation": {"number": 7, "value": 92}, "group": "control_change"}, {"time": 2329, "annotation": {"number": 7, "value": 91}, "group": "control_change"}, {"time": 2332, "annotation": {"number": 7, "value": 89}, "group": "control_change"}, {"time": 2335, "annotation": {"number": 7, "value": 88}, "group": "control_change"}, {"time": 2338, "annotation": {"number": 7, "value": 87}, "group": "control_change"}, {"time": 2341, "annotation": {"number": 64, "value": 0}, "group": "control_change"}, {"time": 2341, "annotation": {"number": 7, "value": 86}, "group": "control_change"}, {"time": 2343, "annotation": {"number": 64, "value": 127}, "group": "control_change"}, {"time": 2344, "annotation": {"number": 7, "value": 85}, "group": "control_change"}, {"time": 2347, "annotation": {"number": 7, "value": 84}, "group": "control_change"}, {"time": 2350, "annotation": {"number": 7, "value": 83}, "group": "control_change"}, {"time": 2353, "annotation": {"number": 7, "value": 82}, "group": "control_change"}, {"time": 2356, "annotation": {"number": 7, "value": 81}, "group": "control_change"}, {"time": 2359, "annotation": {"number": 7, "value": 80}, "group": "control_change"}, {"time": 2362, "annotation": {"number": 7, "value": 79}, "group": "control_change"}, {"time": 2365, "annotation": {"number": 64, "value": 0}, "group": "control_change"}, {"time": 2365, "annotation": {"number": 7, "value": 78}, "group": "control_change"}, {"time": 2368, "annotation": {"number": 64, "value": 127}, "group": "control_change"}, {"time": 2368, "annotation": {"number": 7, "value": 77}, "group": "control_change"}, {"time": 2371, "annotation": {"number": 7, "value": 76}, "group": "control_change"}, {"time": 2374, "annotation": {"number": 7, "value": 75}, "group": "control_change"}, {"time": 2377, "annotation": {"number": 7, "value": 74}, "group": "control_change"}, {"time": 2380, "annotation": {"number": 7, "value": 73}, "group": "control_change"}, {"time": 2383, "annotation": {"number": 7, "value": 72}, "group": "control_change"}, {"time": 2386, "annotation": {"number": 7, "value": 71}, "group": "control_change"}, {"time": 2388, "annotation": {"number": 64, "value": 0}, "group": "control_change"}, {"time": 2389, "annotation": {"number": 7, "value": 70}, "group": "control_change"}, {"time": 2391, "annotation": {"number": 64, "value": 127}, "group": "control_change"}, {"time": 2392, "annotation": {"number": 7, "value": 68}, "group": "control_change"}, {"time": 2395, "annotation": {"number": 7, "value": 67}, "group": "control_change"}, {"time": 2398, "annotation": {"number": 7, "value": 66}, "group": "control_change"}, {"time": 2401, "annotation": {"number": 7, "value": 65}, "group": "control_change"}, {"time": 2404, "annotation": {"number": 7, "value": 64}, "group": "control_change"}, {"time": 2407, "annotation": {"number": 7, "value": 63}, "group": "control_change"}, {"time": 2410, "annotation": {"number": 7, "value": 62}, "group": "control_change"}, {"time": 2413, "annotation": {"number": 64, "value": 0}, "group": "control_change"}, {"time": 2413, "annotation": {"number": 7, "value": 61}, "group": "control_change"}, {"time": 2415, "annotation": {"number": 64, "value": 127}, "group": "control_change"}, {"time": 2416, "annotation": {"number": 7, "value": 60}, "group": "control_change"}, {"time": 2419, "annotation": {"number": 7, "value": 59}, "group": "control_change"}, {"time": 2422, "annotation": {"number": 7, "value": 58}, "group": "control_change"}, {"time": 2425, "annotation": {"number": 7, "value": 57}, "group": "control_change"}, {"time": 2428, "annotation": {"number": 7, "value": 56}, "group": "control_change"}, {"time": 2431, "annotation": {"number": 7, "value": 55}, "group": "control_change"}, {"time": 2434, "annotation": {"number": 7, "value": 54}, "group": "control_change"}, {"time": 2437, "annotation": {"number": 64, "value": 0}, "group": "control_change"}, {"time": 2437, "annotation": {"number": 7, "value": 53}, "group": "control_change"}, {"time": 2440, "annotation": {"number": 64, "value": 127}, "group": "control_change"}, {"time": 2440, "annotation": {"number": 7, "value": 52}, "group": "control_change"}, {"time": 2443, "annotation": {"number": 7, "value": 51}, "group": "control_change"}, {"time": 2446, "annotation": {"number": 7, "value": 50}, "group": "control_change"}, {"time": 2449, "annotation": {"number": 7, "value": 49}, "group": "control_change"}, {"time": 2452, "annotation": {"number": 7, "value": 48}, "group": "control_change"}, {"time": 2455, "annotation": {"number": 7, "value": 46}, "group": "control_change"}, {"time": 2458, "annotation": {"number": 7, "value": 45}, "group": "control_change"}, {"time": 2461, "annotation": {"number": 7, "value": 44}, "group": "control_change"}, {"time": 2462, "annotation": {"number": 64, "value": 0}, "group": "control_change"}, {"time": 2464, "annotation": {"number": 7, "value": 43}, "group": "control_change"}, {"time": 2467, "annotation": {"number": 7, "value": 42}, "group": "control_change"}, {"time": 2470, "annotation": {"number": 7, "value": 41}, "group": "control_change"}, {"time": 2473, "annotation": {"number": 7, "value": 40}, "group": "control_change"}, {"time": 2474, "annotation": {"number": 64, "value": 127}, "group": "control_change"}, {"time": 2476, "annotation": {"number": 7, "value": 39}, "group": "control_change"}, {"time": 2479, "annotation": {"number": 7, "value": 38}, "group": "control_change"}, {"time": 2482, "annotation": {"number": 7, "value": 37}, "group": "control_change"}, {"time": 2485, "annotation": {"number": 7, "value": 36}, "group": "control_change"}, {"time": 2486, "annotation": {"number": 64, "value": 0}, "group": "control_change"}, {"time": 2488, "annotation": {"number": 7, "value": 35}, "group": "control_change"}, {"time": 2491, "annotation": {"number": 7, "value": 34}, "group": "control_change"}, {"time": 2494, "annotation": {"number": 7, "value": 33}, "group": "control_change"}, {"time": 2497, "annotation": {"number": 7, "value": 32}, "group": "control_change"}, {"time": 2500, "annotation": {"number": 7, "value": 31}, "group": "control_change"}, {"time": 2503, "annotation": {"number": 7, "value": 30}, "group": "control_change"}, {"time": 2506, "annotation": {"number": 7, "value": 29}, "group": "control_change"}, {"time": 2509, "annotation": {"number": 7, "value": 28}, "group": "control_change"}, {"time": 2512, "annotation": {"number": 7, "value": 27}, "group": "control_change"}, {"time": 2515, "annotation": {"number": 7, "value": 26}, "group": "control_change"}, {"time": 2518, "annotation": {"number": 7, "value": 24}, "group": "control_change"}, {"time": 2521, "annotation": {"number": 7, "value": 23}, "group": "control_change"}, {"time": 2524, "annotation": {"number": 7, "value": 22}, "group": "control_change"}, {"time": 2527, "annotation": {"number": 7, "value": 21}, "group": "control_change"}, {"time": 2530, "annotation": {"number": 7, "value": 20}, "group": "control_change"}, {"time": 2533, "annotation": {"number": 7, "value": 19}, "group": "control_change"}, {"time": 2536, "annotation": {"number": 7, "value": 18}, "group": "control_change"}, {"time": 2539, "annotation": {"number": 7, "value": 17}, "group": "control_change"}, {"time": 2542, "annotation": {"number": 7, "value": 16}, "group": "control_change"}, {"time": 2545, "annotation": {"number": 7, "value": 15}, "group": "control_change"}, {"time": 2548, "annotation": {"number": 7, "value": 14}, "group": "control_change"}, {"time": 2551, "annotation": {"number": 7, "value": 13}, "group": "control_change"}, {"time": 2554, "annotation": {"number": 7, "value": 12}, "group": "control_change"}, {"time": 2557, "annotation": {"number": 7, "value": 11}, "group": "control_change"}, {"time": 2560, "annotation": {"number": 7, "value": 10}, "group": "control_change"}, {"time": 2563, "annotation": {"number": 7, "value": 9}, "group": "control_change"}, {"time": 2566, "annotation": {"number": 7, "value": 8}, "group": "control_change"}, {"time": 2569, "annotation": {"number": 7, "value": 7}, "group": "control_change"}, {"time": 2572, "annotation": {"number": 7, "value": 6}, "group": "control_change"}, {"time": 2575, "annotation": {"number": 7, "value": 5}, "group": "control_change"}, {"time": 2578, "annotation": {"number": 7, "value": 3}, "group": "control_change"}, {"time": 2581, "annotation": {"number": 7, "value": 2}, "group": "control_change"}, {"time": 2584, "annotation": {"number": 7, "value": 1}, "group": "control_change"}, {"time": 2587, "annotation": {"number": 7, "value": 0}, "group": "control_change"}, {"time": 2588, "annotation": {"number": 7, "value": 0}, "group": "control_change"}]}]}